0, 0, Header, 1, 8, 192
1, 0, Start_track
1, 0, Title_t, "The Bee-Hive Rag"
1, 0, Copyright_t, "May NOT be used for commercial purposes."
1, 0, Text_t, "\012"
1, 0, Text_t, "Roll expression/accent tracks, where present, converted to MIDI velocties.\012"
1, 0, Text_t, "/music_category: Piano_Roll\012"
1, 0, Text_t, "/title: The Bee-Hive Rag\012"
1, 0, Text_t, "/subtitle: \012"
1, 0, Text_t, "/roll_type: 88n\012"
1, 0, Text_t, "/roll_manufacturer: Classics of Ragtime\012"
1, 0, Text_t, "/roll_number: 0079\012"
1, 0, Text_t, "/performer: \012"
1, 0, Text_t, "/composer: Lamb, Joseph\012"
1, 0, Text_t, "/lyricist: \012"
1, 0, Text_t, "/roll_copyright: \012"
1, 0, Text_t, "/roll_date: \012"
1, 0, Text_t, "/scanned_by: Terry Smythe\012"
1, 0, Text_t, "/scan_system: Stibbons Mk3a\012"
1, 0, Text_t, "/date_scanned: 1 Dec 04\012"
1, 0, Text_t, "/owner: Terry Smythe\012"
1, 0, Time_signature, 4, 2, 24, 8
1, 0, Key_signature, 0, "major"
1, 0, Tempo, 500000
1, 0, Marker_t, "Standard MIDI:Standard 88:LPI 125:Tempo  75: 12-01-2004"
1, 0, End_track
2, 0, Start_track
2, 0, Title_t, "The Bee-Hive Rag"
2, 0, Program_c, 0, 0
2, 165, Note_on_c, 0, 34, 60
2, 169, Note_on_c, 0, 46, 60
2, 257, Note_on_c, 0, 34, 0
2, 262, Note_on_c, 0, 46, 0
2, 288, Note_on_c, 0, 51, 60
2, 289, Note_on_c, 0, 39, 60
2, 380, Note_on_c, 0, 39, 0
2, 384, Note_on_c, 0, 51, 0
2, 410, Note_on_c, 0, 51, 60
2, 412, Note_on_c, 0, 75, 60
2, 415, Note_on_c, 0, 63, 60
2, 415, Note_on_c, 0, 67, 60
2, 415, Note_on_c, 0, 46, 60
2, 419, Note_on_c, 0, 55, 60
2, 501, Note_on_c, 0, 46, 0
2, 501, Note_on_c, 0, 67, 0
2, 503, Note_on_c, 0, 75, 0
2, 503, Note_on_c, 0, 55, 0
2, 504, Note_on_c, 0, 51, 0
2, 504, Note_on_c, 0, 63, 0
2, 528, Note_on_c, 0, 58, 60
2, 529, Note_on_c, 0, 67, 60
2, 529, Note_on_c, 0, 74, 60
2, 529, Note_on_c, 0, 46, 60
2, 535, Note_on_c, 0, 62, 60
2, 589, Note_on_c, 0, 70, 60
2, 595, Note_on_c, 0, 74, 0
2, 616, Note_on_c, 0, 46, 0
2, 616, Note_on_c, 0, 58, 0
2, 616, Note_on_c, 0, 67, 0
2, 618, Note_on_c, 0, 62, 0
2, 645, Note_on_c, 0, 65, 60
2, 645, Note_on_c, 0, 62, 60
2, 647, Note_on_c, 0, 44, 60
2, 648, Note_on_c, 0, 56, 60
2, 701, Note_on_c, 0, 72, 60
2, 708, Note_on_c, 0, 70, 0
2, 732, Note_on_c, 0, 56, 0
2, 734, Note_on_c, 0, 44, 0
2, 734, Note_on_c, 0, 65, 0
2, 734, Note_on_c, 0, 62, 0
2, 739, Note_on_c, 0, 72, 0
2, 759, Note_on_c, 0, 55, 60
2, 759, Note_on_c, 0, 43, 60
2, 763, Note_on_c, 0, 63, 60
2, 763, Note_on_c, 0, 70, 60
2, 763, Note_on_c, 0, 58, 60
2, 820, Note_on_c, 0, 67, 60
2, 824, Note_on_c, 0, 70, 0
2, 845, Note_on_c, 0, 58, 0
2, 849, Note_on_c, 0, 43, 0
2, 849, Note_on_c, 0, 55, 0
2, 853, Note_on_c, 0, 63, 0
2, 876, Note_on_c, 0, 46, 60
2, 876, Note_on_c, 0, 34, 60
2, 878, Note_on_c, 0, 56, 60
2, 880, Note_on_c, 0, 67, 0
2, 882, Note_on_c, 0, 68, 60
2, 882, Note_on_c, 0, 62, 60
2, 937, Note_on_c, 0, 65, 60
2, 941, Note_on_c, 0, 68, 0
2, 963, Note_on_c, 0, 46, 0
2, 963, Note_on_c, 0, 34, 0
2, 965, Note_on_c, 0, 56, 0
2, 965, Note_on_c, 0, 62, 0
2, 965, Note_on_c, 0, 65, 0
2, 990, Note_on_c, 0, 55, 60
2, 990, Note_on_c, 0, 51, 60
2, 992, Note_on_c, 0, 58, 60
2, 992, Note_on_c, 0, 39, 60
2, 996, Note_on_c, 0, 63, 60
2, 1077, Note_on_c, 0, 39, 0
2, 1082, Note_on_c, 0, 51, 0
2, 1103, Note_on_c, 0, 34, 60
2, 1107, Note_on_c, 0, 46, 60
2, 1195, Note_on_c, 0, 46, 0
2, 1195, Note_on_c, 0, 34, 0
2, 1228, Note_on_c, 0, 51, 60
2, 1230, Note_on_c, 0, 39, 60
2, 1318, Note_on_c, 0, 39, 0
2, 1320, Note_on_c, 0, 58, 0
2, 1320, Note_on_c, 0, 51, 0
2, 1324, Note_on_c, 0, 55, 0
2, 1324, Note_on_c, 0, 63, 0
2, 1344, Note_on_c, 0, 51, 60
2, 1348, Note_on_c, 0, 55, 60
2, 1348, Note_on_c, 0, 63, 60
2, 1348, Note_on_c, 0, 46, 60
2, 1410, Note_on_c, 0, 63, 0
2, 1410, Note_on_c, 0, 65, 60
2, 1437, Note_on_c, 0, 46, 0
2, 1437, Note_on_c, 0, 55, 0
2, 1439, Note_on_c, 0, 51, 0
2, 1464, Note_on_c, 0, 51, 60
2, 1465, Note_on_c, 0, 58, 60
2, 1467, Note_on_c, 0, 65, 0
2, 1467, Note_on_c, 0, 55, 60
2, 1469, Note_on_c, 0, 67, 60
2, 1525, Note_on_c, 0, 65, 60
2, 1527, Note_on_c, 0, 67, 0
2, 1586, Note_on_c, 0, 65, 0
2, 1588, Note_on_c, 0, 63, 60
2, 1648, Note_on_c, 0, 63, 0
2, 1648, Note_on_c, 0, 70, 60
2, 1675, Note_on_c, 0, 58, 0
2, 1679, Note_on_c, 0, 51, 0
2, 1679, Note_on_c, 0, 55, 0
2, 1703, Note_on_c, 0, 55, 60
2, 1703, Note_on_c, 0, 43, 60
2, 1824, Note_on_c, 0, 58, 60
2, 1828, Note_on_c, 0, 67, 60
2, 1828, Note_on_c, 0, 63, 60
2, 1918, Note_on_c, 0, 67, 0
2, 1918, Note_on_c, 0, 58, 0
2, 1922, Note_on_c, 0, 63, 0
2, 1944, Note_on_c, 0, 58, 60
2, 1948, Note_on_c, 0, 67, 60
2, 1948, Note_on_c, 0, 63, 60
2, 1984, Note_on_c, 0, 70, 0
2, 2010, Note_on_c, 0, 71, 60
2, 2096, Note_on_c, 0, 67, 0
2, 2096, Note_on_c, 0, 58, 0
2, 2100, Note_on_c, 0, 63, 0
2, 2123, Note_on_c, 0, 59, 60
2, 2125, Note_on_c, 0, 63, 60
2, 2127, Note_on_c, 0, 67, 60
2, 2152, Note_on_c, 0, 43, 0
2, 2154, Note_on_c, 0, 55, 0
2, 2156, Note_on_c, 0, 67, 0
2, 2158, Note_on_c, 0, 71, 0
2, 2160, Note_on_c, 0, 63, 0
2, 2160, Note_on_c, 0, 59, 0
2, 2194, Note_on_c, 0, 60, 60
2, 2194, Note_on_c, 0, 56, 60
2, 2197, Note_on_c, 0, 44, 60
2, 2199, Note_on_c, 0, 72, 60
2, 2199, Note_on_c, 0, 68, 60
2, 2286, Note_on_c, 0, 44, 0
2, 2289, Note_on_c, 0, 72, 0
2, 2289, Note_on_c, 0, 60, 0
2, 2289, Note_on_c, 0, 56, 0
2, 2291, Note_on_c, 0, 68, 0
2, 2311, Note_on_c, 0, 44, 60
2, 2313, Note_on_c, 0, 60, 60
2, 2313, Note_on_c, 0, 56, 60
2, 2315, Note_on_c, 0, 72, 60
2, 2317, Note_on_c, 0, 68, 60
2, 2348, Note_on_c, 0, 60, 0
2, 2378, Note_on_c, 0, 63, 60
2, 2407, Note_on_c, 0, 44, 0
2, 2409, Note_on_c, 0, 56, 0
2, 2414, Note_on_c, 0, 72, 0
2, 2414, Note_on_c, 0, 68, 0
2, 2414, Note_on_c, 0, 63, 0
2, 2436, Note_on_c, 0, 58, 60
2, 2436, Note_on_c, 0, 55, 60
2, 2438, Note_on_c, 0, 43, 60
2, 2440, Note_on_c, 0, 70, 60
2, 2440, Note_on_c, 0, 63, 60
2, 2475, Note_on_c, 0, 70, 0
2, 2501, Note_on_c, 0, 67, 60
2, 2530, Note_on_c, 0, 43, 0
2, 2530, Note_on_c, 0, 55, 0
2, 2557, Note_on_c, 0, 55, 60
2, 2557, Note_on_c, 0, 43, 60
2, 2592, Note_on_c, 0, 67, 0
2, 2622, Note_on_c, 0, 70, 60
2, 2649, Note_on_c, 0, 55, 0
2, 2649, Note_on_c, 0, 43, 0
2, 2649, Note_on_c, 0, 58, 0
2, 2653, Note_on_c, 0, 63, 0
2, 2653, Note_on_c, 0, 70, 0
2, 2678, Note_on_c, 0, 56, 60
2, 2678, Note_on_c, 0, 60, 60
2, 2678, Note_on_c, 0, 44, 60
2, 2682, Note_on_c, 0, 72, 60
2, 2682, Note_on_c, 0, 68, 60
2, 2766, Note_on_c, 0, 44, 0
2, 2774, Note_on_c, 0, 72, 0
2, 2774, Note_on_c, 0, 56, 0
2, 2774, Note_on_c, 0, 60, 0
2, 2774, Note_on_c, 0, 68, 0
2, 2797, Note_on_c, 0, 44, 60
2, 2799, Note_on_c, 0, 60, 60
2, 2799, Note_on_c, 0, 56, 60
2, 2803, Note_on_c, 0, 72, 60
2, 2803, Note_on_c, 0, 68, 60
2, 2832, Note_on_c, 0, 60, 0
2, 2862, Note_on_c, 0, 63, 60
2, 2882, Note_on_c, 0, 44, 0
2, 2889, Note_on_c, 0, 56, 0
2, 2891, Note_on_c, 0, 63, 0
2, 2891, Note_on_c, 0, 68, 0
2, 2893, Note_on_c, 0, 72, 0
2, 2913, Note_on_c, 0, 55, 60
2, 2913, Note_on_c, 0, 58, 60
2, 2913, Note_on_c, 0, 43, 60
2, 2915, Note_on_c, 0, 70, 60
2, 2918, Note_on_c, 0, 63, 60
2, 3001, Note_on_c, 0, 43, 0
2, 3005, Note_on_c, 0, 55, 0
2, 3005, Note_on_c, 0, 58, 0
2, 3007, Note_on_c, 0, 70, 0
2, 3010, Note_on_c, 0, 63, 0
2, 3030, Note_on_c, 0, 42, 60
2, 3032, Note_on_c, 0, 60, 60
2, 3032, Note_on_c, 0, 63, 60
2, 3032, Note_on_c, 0, 54, 60
2, 3036, Note_on_c, 0, 72, 60
2, 3120, Note_on_c, 0, 54, 0
2, 3120, Note_on_c, 0, 42, 0
2, 3124, Note_on_c, 0, 60, 0
2, 3124, Note_on_c, 0, 63, 0
2, 3124, Note_on_c, 0, 72, 0
2, 3153, Note_on_c, 0, 41, 60
2, 3155, Note_on_c, 0, 53, 60
2, 3157, Note_on_c, 0, 70, 60
2, 3157, Note_on_c, 0, 74, 60
2, 3157, Note_on_c, 0, 65, 60
2, 3161, Note_on_c, 0, 62, 60
2, 3237, Note_on_c, 0, 41, 0
2, 3243, Note_on_c, 0, 65, 0
2, 3243, Note_on_c, 0, 53, 0
2, 3243, Note_on_c, 0, 62, 0
2, 3247, Note_on_c, 0, 74, 0
2, 3247, Note_on_c, 0, 70, 0
2, 3267, Note_on_c, 0, 50, 60
2, 3269, Note_on_c, 0, 70, 60
2, 3269, Note_on_c, 0, 38, 60
2, 3272, Note_on_c, 0, 65, 60
2, 3272, Note_on_c, 0, 74, 60
2, 3272, Note_on_c, 0, 62, 60
2, 3358, Note_on_c, 0, 65, 0
2, 3358, Note_on_c, 0, 38, 0
2, 3360, Note_on_c, 0, 50, 0
2, 3361, Note_on_c, 0, 70, 0
2, 3361, Note_on_c, 0, 74, 0
2, 3361, Note_on_c, 0, 62, 0
2, 3384, Note_on_c, 0, 36, 60
2, 3388, Note_on_c, 0, 64, 60
2, 3388, Note_on_c, 0, 67, 60
2, 3388, Note_on_c, 0, 74, 60
2, 3388, Note_on_c, 0, 48, 60
2, 3421, Note_on_c, 0, 74, 0
2, 3448, Note_on_c, 0, 70, 60
2, 3473, Note_on_c, 0, 36, 0
2, 3473, Note_on_c, 0, 48, 0
2, 3477, Note_on_c, 0, 64, 0
2, 3477, Note_on_c, 0, 67, 0
2, 3480, Note_on_c, 0, 70, 0
2, 3502, Note_on_c, 0, 41, 60
2, 3502, Note_on_c, 0, 29, 60
2, 3504, Note_on_c, 0, 65, 60
2, 3505, Note_on_c, 0, 72, 60
2, 3505, Note_on_c, 0, 69, 60
2, 3507, Note_on_c, 0, 63, 60
2, 3536, Note_on_c, 0, 63, 0
2, 3536, Note_on_c, 0, 65, 0
2, 3536, Note_on_c, 0, 69, 0
2, 3540, Note_on_c, 0, 72, 0
2, 3560, Note_on_c, 0, 65, 60
2, 3565, Note_on_c, 0, 70, 60
2, 3569, Note_on_c, 0, 62, 60
2, 3589, Note_on_c, 0, 29, 0
2, 3589, Note_on_c, 0, 41, 0
2, 3620, Note_on_c, 0, 46, 60
2, 3620, Note_on_c, 0, 34, 60
2, 3712, Note_on_c, 0, 34, 0
2, 3712, Note_on_c, 0, 46, 0
2, 3741, Note_on_c, 0, 44, 60
2, 3741, Note_on_c, 0, 32, 60
2, 3822, Note_on_c, 0, 32, 0
2, 3827, Note_on_c, 0, 44, 0
2, 3856, Note_on_c, 0, 43, 60
2, 3858, Note_on_c, 0, 31, 60
2, 3945, Note_on_c, 0, 31, 0
2, 3950, Note_on_c, 0, 62, 0
2, 3950, Note_on_c, 0, 43, 0
2, 3954, Note_on_c, 0, 65, 0
2, 3956, Note_on_c, 0, 70, 0
2, 3974, Note_on_c, 0, 29, 60
2, 3976, Note_on_c, 0, 41, 60
2, 3981, Note_on_c, 0, 65, 60
2, 3981, Note_on_c, 0, 70, 60
2, 3981, Note_on_c, 0, 62, 60
2, 3984, Note_on_c, 0, 68, 60
2, 4060, Note_on_c, 0, 41, 0
2, 4060, Note_on_c, 0, 29, 0
2, 4068, Note_on_c, 0, 62, 0
2, 4068, Note_on_c, 0, 65, 0
2, 4073, Note_on_c, 0, 70, 0
2, 4073, Note_on_c, 0, 68, 0
2, 4099, Note_on_c, 0, 27, 60
2, 4102, Note_on_c, 0, 39, 60
2, 4185, Note_on_c, 0, 27, 0
2, 4187, Note_on_c, 0, 39, 0
2, 4216, Note_on_c, 0, 51, 60
2, 4220, Note_on_c, 0, 55, 60
2, 4220, Note_on_c, 0, 46, 60
2, 4224, Note_on_c, 0, 67, 60
2, 4224, Note_on_c, 0, 75, 60
2, 4224, Note_on_c, 0, 63, 60
2, 4304, Note_on_c, 0, 46, 0
2, 4308, Note_on_c, 0, 67, 0
2, 4312, Note_on_c, 0, 75, 0
2, 4312, Note_on_c, 0, 51, 0
2, 4312, Note_on_c, 0, 63, 0
2, 4312, Note_on_c, 0, 55, 0
2, 4337, Note_on_c, 0, 74, 60
2, 4337, Note_on_c, 0, 58, 60
2, 4339, Note_on_c, 0, 46, 60
2, 4341, Note_on_c, 0, 67, 60
2, 4341, Note_on_c, 0, 62, 60
2, 4398, Note_on_c, 0, 70, 60
2, 4404, Note_on_c, 0, 74, 0
2, 4420, Note_on_c, 0, 46, 0
2, 4425, Note_on_c, 0, 67, 0
2, 4425, Note_on_c, 0, 58, 0
2, 4429, Note_on_c, 0, 62, 0
2, 4454, Note_on_c, 0, 56, 60
2, 4454, Note_on_c, 0, 62, 60
2, 4454, Note_on_c, 0, 44, 60
2, 4458, Note_on_c, 0, 65, 60
2, 4519, Note_on_c, 0, 72, 60
2, 4521, Note_on_c, 0, 70, 0
2, 4543, Note_on_c, 0, 44, 0
2, 4546, Note_on_c, 0, 65, 0
2, 4550, Note_on_c, 0, 56, 0
2, 4550, Note_on_c, 0, 72, 0
2, 4550, Note_on_c, 0, 62, 0
2, 4572, Note_on_c, 0, 43, 60
2, 4577, Note_on_c, 0, 58, 60
2, 4577, Note_on_c, 0, 55, 60
2, 4581, Note_on_c, 0, 70, 60
2, 4581, Note_on_c, 0, 63, 60
2, 4642, Note_on_c, 0, 67, 60
2, 4646, Note_on_c, 0, 70, 0
2, 4669, Note_on_c, 0, 58, 0
2, 4669, Note_on_c, 0, 43, 0
2, 4671, Note_on_c, 0, 55, 0
2, 4673, Note_on_c, 0, 63, 0
2, 4695, Note_on_c, 0, 34, 60
2, 4697, Note_on_c, 0, 56, 60
2, 4700, Note_on_c, 0, 67, 0
2, 4700, Note_on_c, 0, 46, 60
2, 4702, Note_on_c, 0, 68, 60
2, 4705, Note_on_c, 0, 62, 60
2, 4758, Note_on_c, 0, 65, 60
2, 4761, Note_on_c, 0, 68, 0
2, 4783, Note_on_c, 0, 46, 0
2, 4787, Note_on_c, 0, 34, 0
2, 4789, Note_on_c, 0, 56, 0
2, 4789, Note_on_c, 0, 62, 0
2, 4789, Note_on_c, 0, 65, 0
2, 4812, Note_on_c, 0, 51, 60
2, 4818, Note_on_c, 0, 39, 60
2, 4820, Note_on_c, 0, 58, 60
2, 4820, Note_on_c, 0, 63, 60
2, 4820, Note_on_c, 0, 55, 60
2, 4904, Note_on_c, 0, 39, 0
2, 4912, Note_on_c, 0, 51, 0
2, 4939, Note_on_c, 0, 46, 60
2, 4939, Note_on_c, 0, 34, 60
2, 5027, Note_on_c, 0, 34, 0
2, 5027, Note_on_c, 0, 46, 0
2, 5065, Note_on_c, 0, 51, 60
2, 5065, Note_on_c, 0, 39, 60
2, 5150, Note_on_c, 0, 39, 0
2, 5154, Note_on_c, 0, 58, 0
2, 5158, Note_on_c, 0, 55, 0
2, 5158, Note_on_c, 0, 63, 0
2, 5158, Note_on_c, 0, 51, 0
2, 5181, Note_on_c, 0, 51, 60
2, 5183, Note_on_c, 0, 55, 60
2, 5183, Note_on_c, 0, 46, 60
2, 5186, Note_on_c, 0, 63, 60
2, 5246, Note_on_c, 0, 65, 60
2, 5250, Note_on_c, 0, 63, 0
2, 5271, Note_on_c, 0, 46, 0
2, 5275, Note_on_c, 0, 51, 0
2, 5279, Note_on_c, 0, 55, 0
2, 5300, Note_on_c, 0, 51, 60
2, 5304, Note_on_c, 0, 65, 0
2, 5304, Note_on_c, 0, 58, 60
2, 5304, Note_on_c, 0, 55, 60
2, 5307, Note_on_c, 0, 67, 60
2, 5363, Note_on_c, 0, 67, 0
2, 5363, Note_on_c, 0, 65, 60
2, 5420, Note_on_c, 0, 65, 0
2, 5423, Note_on_c, 0, 63, 60
2, 5481, Note_on_c, 0, 70, 60
2, 5484, Note_on_c, 0, 63, 0
2, 5510, Note_on_c, 0, 58, 0
2, 5512, Note_on_c, 0, 55, 0
2, 5515, Note_on_c, 0, 51, 0
2, 5537, Note_on_c, 0, 55, 60
2, 5537, Note_on_c, 0, 43, 60
2, 5656, Note_on_c, 0, 63, 60
2, 5656, Note_on_c, 0, 67, 60
2, 5656, Note_on_c, 0, 58, 60
2, 5744, Note_on_c, 0, 58, 0
2, 5746, Note_on_c, 0, 67, 0
2, 5748, Note_on_c, 0, 63, 0
2, 5772, Note_on_c, 0, 63, 60
2, 5772, Note_on_c, 0, 67, 60
2, 5772, Note_on_c, 0, 58, 60
2, 5811, Note_on_c, 0, 70, 0
2, 5836, Note_on_c, 0, 71, 60
2, 5918, Note_on_c, 0, 58, 0
2, 5922, Note_on_c, 0, 67, 0
2, 5922, Note_on_c, 0, 63, 0
2, 5949, Note_on_c, 0, 59, 60
2, 5951, Note_on_c, 0, 67, 60
2, 5951, Note_on_c, 0, 63, 60
2, 5977, Note_on_c, 0, 43, 0
2, 5981, Note_on_c, 0, 67, 0
2, 5981, Note_on_c, 0, 59, 0
2, 5981, Note_on_c, 0, 55, 0
2, 5985, Note_on_c, 0, 63, 0
2, 5985, Note_on_c, 0, 71, 0
2, 6014, Note_on_c, 0, 56, 60
2, 6014, Note_on_c, 0, 60, 60
2, 6014, Note_on_c, 0, 44, 60
2, 6018, Note_on_c, 0, 72, 60
2, 6018, Note_on_c, 0, 68, 60
2, 6108, Note_on_c, 0, 44, 0
2, 6113, Note_on_c, 0, 56, 0
2, 6113, Note_on_c, 0, 68, 0
2, 6113, Note_on_c, 0, 60, 0
2, 6117, Note_on_c, 0, 72, 0
2, 6137, Note_on_c, 0, 56, 60
2, 6137, Note_on_c, 0, 60, 60
2, 6137, Note_on_c, 0, 44, 60
2, 6141, Note_on_c, 0, 72, 60
2, 6141, Note_on_c, 0, 68, 60
2, 6171, Note_on_c, 0, 60, 0
2, 6198, Note_on_c, 0, 63, 60
2, 6223, Note_on_c, 0, 44, 0
2, 6229, Note_on_c, 0, 56, 0
2, 6231, Note_on_c, 0, 72, 0
2, 6231, Note_on_c, 0, 68, 0
2, 6231, Note_on_c, 0, 63, 0
2, 6252, Note_on_c, 0, 43, 60
2, 6256, Note_on_c, 0, 58, 60
2, 6256, Note_on_c, 0, 63, 60
2, 6256, Note_on_c, 0, 55, 60
2, 6258, Note_on_c, 0, 70, 60
2, 6288, Note_on_c, 0, 70, 0
2, 6317, Note_on_c, 0, 67, 60
2, 6344, Note_on_c, 0, 43, 0
2, 6346, Note_on_c, 0, 55, 0
2, 6370, Note_on_c, 0, 55, 60
2, 6370, Note_on_c, 0, 43, 60
2, 6401, Note_on_c, 0, 67, 0
2, 6432, Note_on_c, 0, 70, 60
2, 6456, Note_on_c, 0, 58, 0
2, 6456, Note_on_c, 0, 43, 0
2, 6458, Note_on_c, 0, 55, 0
2, 6460, Note_on_c, 0, 63, 0
2, 6462, Note_on_c, 0, 70, 0
2, 6483, Note_on_c, 0, 56, 60
2, 6483, Note_on_c, 0, 44, 60
2, 6487, Note_on_c, 0, 68, 60
2, 6487, Note_on_c, 0, 72, 60
2, 6487, Note_on_c, 0, 60, 60
2, 6571, Note_on_c, 0, 44, 0
2, 6574, Note_on_c, 0, 56, 0
2, 6577, Note_on_c, 0, 72, 0
2, 6577, Note_on_c, 0, 60, 0
2, 6579, Note_on_c, 0, 68, 0
2, 6600, Note_on_c, 0, 56, 60
2, 6600, Note_on_c, 0, 44, 60
2, 6601, Note_on_c, 0, 72, 60
2, 6601, Note_on_c, 0, 60, 60
2, 6604, Note_on_c, 0, 68, 60
2, 6637, Note_on_c, 0, 60, 0
2, 6666, Note_on_c, 0, 63, 60
2, 6690, Note_on_c, 0, 44, 0
2, 6698, Note_on_c, 0, 68, 0
2, 6698, Note_on_c, 0, 56, 0
2, 6698, Note_on_c, 0, 72, 0
2, 6698, Note_on_c, 0, 63, 0
2, 6720, Note_on_c, 0, 43, 60
2, 6722, Note_on_c, 0, 58, 60
2, 6722, Note_on_c, 0, 63, 60
2, 6722, Note_on_c, 0, 55, 60
2, 6727, Note_on_c, 0, 70, 60
2, 6811, Note_on_c, 0, 58, 0
2, 6813, Note_on_c, 0, 43, 0
2, 6815, Note_on_c, 0, 55, 0
2, 6819, Note_on_c, 0, 63, 0
2, 6819, Note_on_c, 0, 70, 0
2, 6841, Note_on_c, 0, 54, 60
2, 6841, Note_on_c, 0, 42, 60
2, 6843, Note_on_c, 0, 63, 60
2, 6843, Note_on_c, 0, 72, 60
2, 6843, Note_on_c, 0, 60, 60
2, 6932, Note_on_c, 0, 42, 0
2, 6934, Note_on_c, 0, 60, 0
2, 6936, Note_on_c, 0, 54, 0
2, 6939, Note_on_c, 0, 63, 0
2, 6939, Note_on_c, 0, 72, 0
2, 6968, Note_on_c, 0, 41, 60
2, 6973, Note_on_c, 0, 65, 60
2, 6975, Note_on_c, 0, 53, 60
2, 6977, Note_on_c, 0, 70, 60
2, 6977, Note_on_c, 0, 74, 60
2, 6977, Note_on_c, 0, 62, 60
2, 7058, Note_on_c, 0, 41, 0
2, 7062, Note_on_c, 0, 65, 0
2, 7065, Note_on_c, 0, 53, 0
2, 7067, Note_on_c, 0, 70, 0
2, 7067, Note_on_c, 0, 62, 0
2, 7069, Note_on_c, 0, 74, 0
2, 7091, Note_on_c, 0, 62, 60
2, 7091, Note_on_c, 0, 65, 60
2, 7091, Note_on_c, 0, 74, 60
2, 7091, Note_on_c, 0, 58, 60
2, 7093, Note_on_c, 0, 46, 60
2, 7096, Note_on_c, 0, 70, 60
2, 7179, Note_on_c, 0, 46, 0
2, 7179, Note_on_c, 0, 58, 0
2, 7183, Note_on_c, 0, 65, 0
2, 7183, Note_on_c, 0, 62, 0
2, 7188, Note_on_c, 0, 70, 0
2, 7190, Note_on_c, 0, 74, 0
2, 7210, Note_on_c, 0, 62, 60
2, 7210, Note_on_c, 0, 65, 60
2, 7210, Note_on_c, 0, 41, 60
2, 7212, Note_on_c, 0, 53, 60
2, 7214, Note_on_c, 0, 74, 60
2, 7249, Note_on_c, 0, 74, 0
2, 7273, Note_on_c, 0, 70, 60
2, 7298, Note_on_c, 0, 41, 0
2, 7304, Note_on_c, 0, 62, 0
2, 7306, Note_on_c, 0, 65, 0
2, 7306, Note_on_c, 0, 53, 0
2, 7311, Note_on_c, 0, 70, 0
2, 7327, Note_on_c, 0, 51, 60
2, 7331, Note_on_c, 0, 39, 60
2, 7333, Note_on_c, 0, 72, 60
2, 7333, Note_on_c, 0, 60, 60
2, 7335, Note_on_c, 0, 69, 60
2, 7335, Note_on_c, 0, 65, 60
2, 7413, Note_on_c, 0, 39, 0
2, 7421, Note_on_c, 0, 51, 0
2, 7421, Note_on_c, 0, 65, 0
2, 7423, Note_on_c, 0, 60, 0
2, 7425, Note_on_c, 0, 69, 0
2, 7425, Note_on_c, 0, 72, 0
2, 7447, Note_on_c, 0, 50, 60
2, 7447, Note_on_c, 0, 65, 60
2, 7447, Note_on_c, 0, 70, 60
2, 7447, Note_on_c, 0, 74, 60
2, 7447, Note_on_c, 0, 38, 60
2, 7450, Note_on_c, 0, 68, 60
2, 7452, Note_on_c, 0, 77, 60
2, 7536, Note_on_c, 0, 38, 0
2, 7539, Note_on_c, 0, 50, 0
2, 7564, Note_on_c, 0, 46, 60
2, 7564, Note_on_c, 0, 34, 60
2, 7653, Note_on_c, 0, 34, 0
2, 7653, Note_on_c, 0, 46, 0
2, 7680, Note_on_c, 0, 36, 60
2, 7683, Note_on_c, 0, 48, 60
2, 7763, Note_on_c, 0, 36, 0
2, 7767, Note_on_c, 0, 48, 0
2, 7772, Note_on_c, 0, 77, 0
2, 7776, Note_on_c, 0, 74, 0
2, 7776, Note_on_c, 0, 65, 0
2, 7776, Note_on_c, 0, 70, 0
2, 7776, Note_on_c, 0, 68, 0
2, 7796, Note_on_c, 0, 38, 60
2, 7800, Note_on_c, 0, 50, 60
2, 7888, Note_on_c, 0, 38, 0
2, 7895, Note_on_c, 0, 50, 0
2, 7929, Note_on_c, 0, 51, 60
2, 7931, Note_on_c, 0, 39, 60
2, 8017, Note_on_c, 0, 39, 0
2, 8025, Note_on_c, 0, 51, 0
2, 8048, Note_on_c, 0, 51, 60
2, 8050, Note_on_c, 0, 55, 60
2, 8050, Note_on_c, 0, 63, 60
2, 8050, Note_on_c, 0, 46, 60
2, 8054, Note_on_c, 0, 75, 60
2, 8054, Note_on_c, 0, 67, 60
2, 8137, Note_on_c, 0, 67, 0
2, 8137, Note_on_c, 0, 46, 0
2, 8142, Note_on_c, 0, 63, 0
2, 8142, Note_on_c, 0, 51, 0
2, 8142, Note_on_c, 0, 55, 0
2, 8142, Note_on_c, 0, 75, 0
2, 8166, Note_on_c, 0, 58, 60
2, 8166, Note_on_c, 0, 74, 60
2, 8166, Note_on_c, 0, 46, 60
2, 8168, Note_on_c, 0, 67, 60
2, 8171, Note_on_c, 0, 62, 60
2, 8228, Note_on_c, 0, 70, 60
2, 8234, Note_on_c, 0, 74, 0
2, 8255, Note_on_c, 0, 58, 0
2, 8255, Note_on_c, 0, 46, 0
2, 8256, Note_on_c, 0, 62, 0
2, 8258, Note_on_c, 0, 67, 0
2, 8283, Note_on_c, 0, 44, 60
2, 8287, Note_on_c, 0, 62, 60
2, 8287, Note_on_c, 0, 65, 60
2, 8287, Note_on_c, 0, 56, 60
2, 8349, Note_on_c, 0, 72, 60
2, 8351, Note_on_c, 0, 70, 0
2, 8374, Note_on_c, 0, 44, 0
2, 8377, Note_on_c, 0, 65, 0
2, 8379, Note_on_c, 0, 62, 0
2, 8379, Note_on_c, 0, 72, 0
2, 8379, Note_on_c, 0, 56, 0
2, 8406, Note_on_c, 0, 55, 60
2, 8406, Note_on_c, 0, 58, 60
2, 8406, Note_on_c, 0, 63, 60
2, 8406, Note_on_c, 0, 70, 60
2, 8406, Note_on_c, 0, 43, 60
2, 8470, Note_on_c, 0, 67, 60
2, 8472, Note_on_c, 0, 70, 0
2, 8496, Note_on_c, 0, 43, 0
2, 8496, Note_on_c, 0, 58, 0
2, 8500, Note_on_c, 0, 55, 0
2, 8500, Note_on_c, 0, 63, 0
2, 8522, Note_on_c, 0, 62, 60
2, 8525, Note_on_c, 0, 46, 60
2, 8525, Note_on_c, 0, 56, 60
2, 8525, Note_on_c, 0, 34, 60
2, 8527, Note_on_c, 0, 67, 0
2, 8529, Note_on_c, 0, 68, 60
2, 8587, Note_on_c, 0, 65, 60
2, 8591, Note_on_c, 0, 68, 0
2, 8611, Note_on_c, 0, 62, 0
2, 8611, Note_on_c, 0, 34, 0
2, 8611, Note_on_c, 0, 46, 0
2, 8613, Note_on_c, 0, 56, 0
2, 8615, Note_on_c, 0, 65, 0
2, 8638, Note_on_c, 0, 51, 60
2, 8640, Note_on_c, 0, 55, 60
2, 8641, Note_on_c, 0, 39, 60
2, 8643, Note_on_c, 0, 63, 60
2, 8643, Note_on_c, 0, 58, 60
2, 8728, Note_on_c, 0, 39, 0
2, 8730, Note_on_c, 0, 51, 0
2, 8757, Note_on_c, 0, 46, 60
2, 8757, Note_on_c, 0, 34, 60
2, 8842, Note_on_c, 0, 34, 0
2, 8842, Note_on_c, 0, 46, 0
2, 8873, Note_on_c, 0, 51, 60
2, 8878, Note_on_c, 0, 39, 60
2, 8961, Note_on_c, 0, 39, 0
2, 8965, Note_on_c, 0, 58, 0
2, 8967, Note_on_c, 0, 51, 0
2, 8967, Note_on_c, 0, 55, 0
2, 8970, Note_on_c, 0, 63, 0
2, 8990, Note_on_c, 0, 51, 60
2, 8994, Note_on_c, 0, 55, 60
2, 8994, Note_on_c, 0, 63, 60
2, 8994, Note_on_c, 0, 46, 60
2, 9053, Note_on_c, 0, 65, 60
2, 9057, Note_on_c, 0, 63, 0
2, 9084, Note_on_c, 0, 46, 0
2, 9086, Note_on_c, 0, 51, 0
2, 9086, Note_on_c, 0, 55, 0
2, 9109, Note_on_c, 0, 51, 60
2, 9113, Note_on_c, 0, 65, 0
2, 9113, Note_on_c, 0, 58, 60
2, 9113, Note_on_c, 0, 55, 60
2, 9117, Note_on_c, 0, 67, 60
2, 9174, Note_on_c, 0, 67, 0
2, 9174, Note_on_c, 0, 65, 60
2, 9232, Note_on_c, 0, 65, 0
2, 9232, Note_on_c, 0, 63, 60
2, 9290, Note_on_c, 0, 70, 60
2, 9293, Note_on_c, 0, 63, 0
2, 9317, Note_on_c, 0, 58, 0
2, 9321, Note_on_c, 0, 51, 0
2, 9321, Note_on_c, 0, 55, 0
2, 9348, Note_on_c, 0, 55, 60
2, 9352, Note_on_c, 0, 43, 60
2, 9471, Note_on_c, 0, 63, 60
2, 9471, Note_on_c, 0, 58, 60
2, 9475, Note_on_c, 0, 67, 60
2, 9559, Note_on_c, 0, 58, 0
2, 9561, Note_on_c, 0, 67, 0
2, 9565, Note_on_c, 0, 63, 0
2, 9588, Note_on_c, 0, 63, 60
2, 9588, Note_on_c, 0, 67, 60
2, 9588, Note_on_c, 0, 58, 60
2, 9623, Note_on_c, 0, 70, 0
2, 9651, Note_on_c, 0, 71, 60
2, 9742, Note_on_c, 0, 58, 0
2, 9745, Note_on_c, 0, 67, 0
2, 9749, Note_on_c, 0, 63, 0
2, 9772, Note_on_c, 0, 63, 60
2, 9774, Note_on_c, 0, 67, 60
2, 9774, Note_on_c, 0, 59, 60
2, 9805, Note_on_c, 0, 67, 0
2, 9805, Note_on_c, 0, 55, 0
2, 9805, Note_on_c, 0, 43, 0
2, 9809, Note_on_c, 0, 71, 0
2, 9809, Note_on_c, 0, 63, 0
2, 9809, Note_on_c, 0, 59, 0
2, 9838, Note_on_c, 0, 44, 60
2, 9841, Note_on_c, 0, 60, 60
2, 9841, Note_on_c, 0, 68, 60
2, 9841, Note_on_c, 0, 72, 60
2, 9841, Note_on_c, 0, 56, 60
2, 9928, Note_on_c, 0, 44, 0
2, 9932, Note_on_c, 0, 56, 0
2, 9936, Note_on_c, 0, 60, 0
2, 9936, Note_on_c, 0, 68, 0
2, 9936, Note_on_c, 0, 72, 0
2, 9957, Note_on_c, 0, 56, 60
2, 9959, Note_on_c, 0, 72, 60
2, 9959, Note_on_c, 0, 60, 60
2, 9960, Note_on_c, 0, 68, 60
2, 9960, Note_on_c, 0, 44, 60
2, 9993, Note_on_c, 0, 60, 0
2, 10022, Note_on_c, 0, 63, 60
2, 10049, Note_on_c, 0, 44, 0
2, 10053, Note_on_c, 0, 68, 0
2, 10053, Note_on_c, 0, 56, 0
2, 10053, Note_on_c, 0, 72, 0
2, 10053, Note_on_c, 0, 63, 0
2, 10076, Note_on_c, 0, 58, 60
2, 10076, Note_on_c, 0, 63, 60
2, 10076, Note_on_c, 0, 55, 60
2, 10078, Note_on_c, 0, 43, 60
2, 10080, Note_on_c, 0, 70, 60
2, 10112, Note_on_c, 0, 70, 0
2, 10139, Note_on_c, 0, 67, 60
2, 10168, Note_on_c, 0, 55, 0
2, 10168, Note_on_c, 0, 43, 0
2, 10190, Note_on_c, 0, 55, 60
2, 10190, Note_on_c, 0, 43, 60
2, 10224, Note_on_c, 0, 67, 0
2, 10255, Note_on_c, 0, 70, 60
2, 10282, Note_on_c, 0, 43, 0
2, 10282, Note_on_c, 0, 58, 0
2, 10286, Note_on_c, 0, 63, 0
2, 10286, Note_on_c, 0, 55, 0
2, 10286, Note_on_c, 0, 70, 0
2, 10309, Note_on_c, 0, 44, 60
2, 10311, Note_on_c, 0, 60, 60
2, 10311, Note_on_c, 0, 68, 60
2, 10311, Note_on_c, 0, 56, 60
2, 10315, Note_on_c, 0, 72, 60
2, 10394, Note_on_c, 0, 44, 0
2, 10401, Note_on_c, 0, 56, 0
2, 10401, Note_on_c, 0, 60, 0
2, 10401, Note_on_c, 0, 68, 0
2, 10401, Note_on_c, 0, 72, 0
2, 10423, Note_on_c, 0, 60, 60
2, 10425, Note_on_c, 0, 56, 60
2, 10425, Note_on_c, 0, 68, 60
2, 10425, Note_on_c, 0, 44, 60
2, 10427, Note_on_c, 0, 72, 60
2, 10458, Note_on_c, 0, 60, 0
2, 10487, Note_on_c, 0, 63, 60
2, 10515, Note_on_c, 0, 44, 0
2, 10517, Note_on_c, 0, 56, 0
2, 10519, Note_on_c, 0, 63, 0
2, 10519, Note_on_c, 0, 68, 0
2, 10522, Note_on_c, 0, 72, 0
2, 10542, Note_on_c, 0, 55, 60
2, 10542, Note_on_c, 0, 58, 60
2, 10542, Note_on_c, 0, 43, 60
2, 10546, Note_on_c, 0, 70, 60
2, 10546, Note_on_c, 0, 63, 60
2, 10634, Note_on_c, 0, 58, 0
2, 10638, Note_on_c, 0, 55, 0
2, 10638, Note_on_c, 0, 43, 0
2, 10640, Note_on_c, 0, 70, 0
2, 10640, Note_on_c, 0, 63, 0
2, 10663, Note_on_c, 0, 42, 60
2, 10667, Note_on_c, 0, 60, 60
2, 10667, Note_on_c, 0, 63, 60
2, 10667, Note_on_c, 0, 72, 60
2, 10667, Note_on_c, 0, 54, 60
2, 10755, Note_on_c, 0, 54, 0
2, 10755, Note_on_c, 0, 42, 0
2, 10757, Note_on_c, 0, 60, 0
2, 10757, Note_on_c, 0, 63, 0
2, 10757, Note_on_c, 0, 72, 0
2, 10790, Note_on_c, 0, 65, 60
2, 10790, Note_on_c, 0, 74, 60
2, 10790, Note_on_c, 0, 41, 60
2, 10792, Note_on_c, 0, 53, 60
2, 10794, Note_on_c, 0, 70, 60
2, 10799, Note_on_c, 0, 62, 60
2, 10880, Note_on_c, 0, 41, 0
2, 10880, Note_on_c, 0, 65, 0
2, 10884, Note_on_c, 0, 53, 0
2, 10884, Note_on_c, 0, 70, 0
2, 10884, Note_on_c, 0, 62, 0
2, 10888, Note_on_c, 0, 74, 0
2, 10909, Note_on_c, 0, 62, 60
2, 10911, Note_on_c, 0, 50, 60
2, 10911, Note_on_c, 0, 65, 60
2, 10911, Note_on_c, 0, 74, 60
2, 10911, Note_on_c, 0, 38, 60
2, 10913, Note_on_c, 0, 70, 60
2, 10999, Note_on_c, 0, 38, 0
2, 11001, Note_on_c, 0, 65, 0
2, 11001, Note_on_c, 0, 62, 0
2, 11003, Note_on_c, 0, 50, 0
2, 11005, Note_on_c, 0, 70, 0
2, 11005, Note_on_c, 0, 74, 0
2, 11025, Note_on_c, 0, 36, 60
2, 11030, Note_on_c, 0, 74, 60
2, 11032, Note_on_c, 0, 64, 60
2, 11032, Note_on_c, 0, 67, 60
2, 11032, Note_on_c, 0, 48, 60
2, 11063, Note_on_c, 0, 74, 0
2, 11085, Note_on_c, 0, 70, 60
2, 11112, Note_on_c, 0, 36, 0
2, 11112, Note_on_c, 0, 48, 0
2, 11115, Note_on_c, 0, 67, 0
2, 11115, Note_on_c, 0, 64, 0
2, 11120, Note_on_c, 0, 70, 0
2, 11142, Note_on_c, 0, 29, 60
2, 11144, Note_on_c, 0, 63, 60
2, 11144, Note_on_c, 0, 65, 60
2, 11144, Note_on_c, 0, 69, 60
2, 11144, Note_on_c, 0, 72, 60
2, 11144, Note_on_c, 0, 41, 60
2, 11177, Note_on_c, 0, 72, 0
2, 11177, Note_on_c, 0, 65, 0
2, 11179, Note_on_c, 0, 69, 0
2, 11179, Note_on_c, 0, 63, 0
2, 11200, Note_on_c, 0, 65, 60
2, 11204, Note_on_c, 0, 70, 60
2, 11204, Note_on_c, 0, 62, 60
2, 11226, Note_on_c, 0, 29, 0
2, 11226, Note_on_c, 0, 41, 0
2, 11259, Note_on_c, 0, 46, 60
2, 11259, Note_on_c, 0, 34, 60
2, 11345, Note_on_c, 0, 34, 0
2, 11345, Note_on_c, 0, 46, 0
2, 11372, Note_on_c, 0, 32, 60
2, 11374, Note_on_c, 0, 44, 60
2, 11453, Note_on_c, 0, 32, 0
2, 11460, Note_on_c, 0, 44, 0
2, 11489, Note_on_c, 0, 31, 60
2, 11493, Note_on_c, 0, 43, 60
2, 11576, Note_on_c, 0, 31, 0
2, 11585, Note_on_c, 0, 70, 0
2, 11585, Note_on_c, 0, 62, 0
2, 11585, Note_on_c, 0, 65, 0
2, 11585, Note_on_c, 0, 43, 0
2, 11609, Note_on_c, 0, 41, 60
2, 11609, Note_on_c, 0, 62, 60
2, 11609, Note_on_c, 0, 65, 60
2, 11609, Note_on_c, 0, 29, 60
2, 11614, Note_on_c, 0, 70, 60
2, 11614, Note_on_c, 0, 68, 60
2, 11697, Note_on_c, 0, 41, 0
2, 11699, Note_on_c, 0, 29, 0
2, 11701, Note_on_c, 0, 62, 0
2, 11701, Note_on_c, 0, 65, 0
2, 11706, Note_on_c, 0, 70, 0
2, 11708, Note_on_c, 0, 68, 0
2, 11730, Note_on_c, 0, 39, 60
2, 11730, Note_on_c, 0, 27, 60
2, 11824, Note_on_c, 0, 27, 0
2, 11824, Note_on_c, 0, 39, 0
2, 11855, Note_on_c, 0, 51, 60
2, 11859, Note_on_c, 0, 63, 60
2, 11859, Note_on_c, 0, 46, 60
2, 11861, Note_on_c, 0, 75, 60
2, 11861, Note_on_c, 0, 55, 60
2, 11863, Note_on_c, 0, 67, 60
2, 11947, Note_on_c, 0, 46, 0
2, 11952, Note_on_c, 0, 51, 0
2, 11952, Note_on_c, 0, 75, 0
2, 11952, Note_on_c, 0, 55, 0
2, 11952, Note_on_c, 0, 67, 0
2, 11955, Note_on_c, 0, 63, 0
2, 11977, Note_on_c, 0, 46, 60
2, 11982, Note_on_c, 0, 67, 60
2, 11982, Note_on_c, 0, 74, 60
2, 11982, Note_on_c, 0, 58, 60
2, 11984, Note_on_c, 0, 62, 60
2, 12046, Note_on_c, 0, 70, 60
2, 12048, Note_on_c, 0, 74, 0
2, 12070, Note_on_c, 0, 46, 0
2, 12074, Note_on_c, 0, 58, 0
2, 12074, Note_on_c, 0, 67, 0
2, 12078, Note_on_c, 0, 62, 0
2, 12103, Note_on_c, 0, 56, 60
2, 12103, Note_on_c, 0, 62, 60
2, 12103, Note_on_c, 0, 65, 60
2, 12103, Note_on_c, 0, 44, 60
2, 12165, Note_on_c, 0, 72, 60
2, 12167, Note_on_c, 0, 70, 0
2, 12192, Note_on_c, 0, 44, 0
2, 12197, Note_on_c, 0, 65, 0
2, 12197, Note_on_c, 0, 56, 0
2, 12197, Note_on_c, 0, 62, 0
2, 12201, Note_on_c, 0, 72, 0
2, 12221, Note_on_c, 0, 55, 60
2, 12221, Note_on_c, 0, 58, 60
2, 12221, Note_on_c, 0, 43, 60
2, 12223, Note_on_c, 0, 70, 60
2, 12226, Note_on_c, 0, 63, 60
2, 12283, Note_on_c, 0, 67, 60
2, 12288, Note_on_c, 0, 70, 0
2, 12310, Note_on_c, 0, 58, 0
2, 12313, Note_on_c, 0, 55, 0
2, 12313, Note_on_c, 0, 43, 0
2, 12318, Note_on_c, 0, 63, 0
2, 12336, Note_on_c, 0, 56, 60
2, 12338, Note_on_c, 0, 46, 60
2, 12338, Note_on_c, 0, 34, 60
2, 12342, Note_on_c, 0, 68, 60
2, 12344, Note_on_c, 0, 67, 0
2, 12346, Note_on_c, 0, 62, 60
2, 12402, Note_on_c, 0, 65, 60
2, 12404, Note_on_c, 0, 68, 0
2, 12427, Note_on_c, 0, 34, 0
2, 12427, Note_on_c, 0, 46, 0
2, 12429, Note_on_c, 0, 62, 0
2, 12431, Note_on_c, 0, 65, 0
2, 12432, Note_on_c, 0, 56, 0
2, 12453, Note_on_c, 0, 39, 60
2, 12455, Note_on_c, 0, 51, 60
2, 12457, Note_on_c, 0, 58, 60
2, 12457, Note_on_c, 0, 63, 60
2, 12457, Note_on_c, 0, 55, 60
2, 12541, Note_on_c, 0, 39, 0
2, 12545, Note_on_c, 0, 51, 0
2, 12570, Note_on_c, 0, 34, 60
2, 12572, Note_on_c, 0, 46, 60
2, 12653, Note_on_c, 0, 46, 0
2, 12658, Note_on_c, 0, 34, 0
2, 12684, Note_on_c, 0, 51, 60
2, 12687, Note_on_c, 0, 39, 60
2, 12776, Note_on_c, 0, 39, 0
2, 12776, Note_on_c, 0, 58, 0
2, 12781, Note_on_c, 0, 55, 0
2, 12781, Note_on_c, 0, 63, 0
2, 12781, Note_on_c, 0, 51, 0
2, 12805, Note_on_c, 0, 51, 60
2, 12810, Note_on_c, 0, 55, 60
2, 12810, Note_on_c, 0, 63, 60
2, 12810, Note_on_c, 0, 46, 60
2, 12868, Note_on_c, 0, 65, 60
2, 12873, Note_on_c, 0, 63, 0
2, 12895, Note_on_c, 0, 46, 0
2, 12902, Note_on_c, 0, 51, 0
2, 12902, Note_on_c, 0, 55, 0
2, 12924, Note_on_c, 0, 51, 60
2, 12928, Note_on_c, 0, 58, 60
2, 12928, Note_on_c, 0, 67, 60
2, 12928, Note_on_c, 0, 55, 60
2, 12930, Note_on_c, 0, 65, 0
2, 12987, Note_on_c, 0, 65, 60
2, 12989, Note_on_c, 0, 67, 0
2, 13047, Note_on_c, 0, 63, 60
2, 13049, Note_on_c, 0, 65, 0
2, 13110, Note_on_c, 0, 70, 60
2, 13112, Note_on_c, 0, 63, 0
2, 13137, Note_on_c, 0, 58, 0
2, 13141, Note_on_c, 0, 51, 0
2, 13141, Note_on_c, 0, 55, 0
2, 13164, Note_on_c, 0, 55, 60
2, 13164, Note_on_c, 0, 43, 60
2, 13284, Note_on_c, 0, 58, 60
2, 13287, Note_on_c, 0, 67, 60
2, 13287, Note_on_c, 0, 63, 60
2, 13372, Note_on_c, 0, 58, 0
2, 13374, Note_on_c, 0, 67, 0
2, 13376, Note_on_c, 0, 63, 0
2, 13397, Note_on_c, 0, 58, 60
2, 13401, Note_on_c, 0, 67, 60
2, 13401, Note_on_c, 0, 63, 60
2, 13432, Note_on_c, 0, 70, 0
2, 13459, Note_on_c, 0, 71, 60
2, 13542, Note_on_c, 0, 58, 0
2, 13547, Note_on_c, 0, 67, 0
2, 13547, Note_on_c, 0, 63, 0
2, 13571, Note_on_c, 0, 59, 60
2, 13575, Note_on_c, 0, 67, 60
2, 13575, Note_on_c, 0, 63, 60
2, 13600, Note_on_c, 0, 67, 0
2, 13600, Note_on_c, 0, 43, 0
2, 13604, Note_on_c, 0, 59, 0
2, 13604, Note_on_c, 0, 55, 0
2, 13604, Note_on_c, 0, 63, 0
2, 13604, Note_on_c, 0, 71, 0
2, 13634, Note_on_c, 0, 56, 60
2, 13636, Note_on_c, 0, 72, 60
2, 13639, Note_on_c, 0, 60, 60
2, 13639, Note_on_c, 0, 68, 60
2, 13639, Note_on_c, 0, 44, 60
2, 13719, Note_on_c, 0, 44, 0
2, 13727, Note_on_c, 0, 60, 0
2, 13727, Note_on_c, 0, 56, 0
2, 13727, Note_on_c, 0, 72, 0
2, 13727, Note_on_c, 0, 68, 0
2, 13750, Note_on_c, 0, 60, 60
2, 13750, Note_on_c, 0, 72, 60
2, 13750, Note_on_c, 0, 56, 60
2, 13752, Note_on_c, 0, 68, 60
2, 13752, Note_on_c, 0, 44, 60
2, 13782, Note_on_c, 0, 60, 0
2, 13813, Note_on_c, 0, 63, 60
2, 13840, Note_on_c, 0, 44, 0
2, 13844, Note_on_c, 0, 68, 0
2, 13844, Note_on_c, 0, 56, 0
2, 13848, Note_on_c, 0, 72, 0
2, 13848, Note_on_c, 0, 63, 0
2, 13868, Note_on_c, 0, 58, 60
2, 13868, Note_on_c, 0, 55, 60
2, 13871, Note_on_c, 0, 43, 60
2, 13872, Note_on_c, 0, 70, 60
2, 13872, Note_on_c, 0, 63, 60
2, 13905, Note_on_c, 0, 70, 0
2, 13932, Note_on_c, 0, 67, 60
2, 13960, Note_on_c, 0, 43, 0
2, 13965, Note_on_c, 0, 55, 0
2, 13991, Note_on_c, 0, 55, 60
2, 13991, Note_on_c, 0, 43, 60
2, 14024, Note_on_c, 0, 67, 0
2, 14055, Note_on_c, 0, 70, 60
2, 14081, Note_on_c, 0, 55, 0
2, 14081, Note_on_c, 0, 43, 0
2, 14081, Note_on_c, 0, 58, 0
2, 14088, Note_on_c, 0, 63, 0
2, 14088, Note_on_c, 0, 70, 0
2, 14112, Note_on_c, 0, 56, 60
2, 14112, Note_on_c, 0, 60, 60
2, 14112, Note_on_c, 0, 44, 60
2, 14116, Note_on_c, 0, 72, 60
2, 14116, Note_on_c, 0, 68, 60
2, 14206, Note_on_c, 0, 44, 0
2, 14208, Note_on_c, 0, 72, 0
2, 14208, Note_on_c, 0, 56, 0
2, 14208, Note_on_c, 0, 60, 0
2, 14210, Note_on_c, 0, 68, 0
2, 14234, Note_on_c, 0, 60, 60
2, 14234, Note_on_c, 0, 56, 60
2, 14236, Note_on_c, 0, 44, 60
2, 14239, Note_on_c, 0, 72, 60
2, 14239, Note_on_c, 0, 68, 60
2, 14272, Note_on_c, 0, 60, 0
2, 14301, Note_on_c, 0, 63, 60
2, 14327, Note_on_c, 0, 44, 0
2, 14331, Note_on_c, 0, 68, 0
2, 14331, Note_on_c, 0, 63, 0
2, 14331, Note_on_c, 0, 56, 0
2, 14335, Note_on_c, 0, 72, 0
2, 14357, Note_on_c, 0, 55, 60
2, 14357, Note_on_c, 0, 58, 60
2, 14357, Note_on_c, 0, 43, 60
2, 14362, Note_on_c, 0, 70, 60
2, 14362, Note_on_c, 0, 63, 60
2, 14449, Note_on_c, 0, 58, 0
2, 14449, Note_on_c, 0, 55, 0
2, 14451, Note_on_c, 0, 43, 0
2, 14454, Note_on_c, 0, 70, 0
2, 14454, Note_on_c, 0, 63, 0
2, 14476, Note_on_c, 0, 42, 60
2, 14478, Note_on_c, 0, 60, 60
2, 14478, Note_on_c, 0, 63, 60
2, 14478, Note_on_c, 0, 54, 60
2, 14482, Note_on_c, 0, 72, 60
2, 14570, Note_on_c, 0, 54, 0
2, 14570, Note_on_c, 0, 42, 0
2, 14572, Note_on_c, 0, 60, 0
2, 14574, Note_on_c, 0, 63, 0
2, 14574, Note_on_c, 0, 72, 0
2, 14601, Note_on_c, 0, 65, 60
2, 14603, Note_on_c, 0, 53, 60
2, 14603, Note_on_c, 0, 74, 60
2, 14603, Note_on_c, 0, 41, 60
2, 14605, Note_on_c, 0, 70, 60
2, 14605, Note_on_c, 0, 62, 60
2, 14689, Note_on_c, 0, 41, 0
2, 14689, Note_on_c, 0, 65, 0
2, 14693, Note_on_c, 0, 70, 0
2, 14693, Note_on_c, 0, 53, 0
2, 14693, Note_on_c, 0, 62, 0
2, 14693, Note_on_c, 0, 74, 0
2, 14716, Note_on_c, 0, 58, 60
2, 14716, Note_on_c, 0, 62, 60
2, 14716, Note_on_c, 0, 65, 60
2, 14716, Note_on_c, 0, 74, 60
2, 14716, Note_on_c, 0, 46, 60
2, 14720, Note_on_c, 0, 70, 60
2, 14802, Note_on_c, 0, 46, 0
2, 14807, Note_on_c, 0, 65, 0
2, 14807, Note_on_c, 0, 58, 0
2, 14810, Note_on_c, 0, 70, 0
2, 14810, Note_on_c, 0, 62, 0
2, 14812, Note_on_c, 0, 74, 0
2, 14832, Note_on_c, 0, 53, 60
2, 14832, Note_on_c, 0, 62, 60
2, 14832, Note_on_c, 0, 41, 60
2, 14837, Note_on_c, 0, 74, 60
2, 14837, Note_on_c, 0, 65, 60
2, 14870, Note_on_c, 0, 74, 0
2, 14894, Note_on_c, 0, 70, 60
2, 14919, Note_on_c, 0, 41, 0
2, 14923, Note_on_c, 0, 65, 0
2, 14923, Note_on_c, 0, 53, 0
2, 14923, Note_on_c, 0, 62, 0
2, 14927, Note_on_c, 0, 70, 0
2, 14948, Note_on_c, 0, 51, 60
2, 14950, Note_on_c, 0, 39, 60
2, 14952, Note_on_c, 0, 65, 60
2, 14952, Note_on_c, 0, 69, 60
2, 14952, Note_on_c, 0, 60, 60
2, 14955, Note_on_c, 0, 72, 60
2, 15038, Note_on_c, 0, 39, 0
2, 15040, Note_on_c, 0, 65, 0
2, 15044, Note_on_c, 0, 69, 0
2, 15044, Note_on_c, 0, 51, 0
2, 15044, Note_on_c, 0, 72, 0
2, 15044, Note_on_c, 0, 60, 0
2, 15071, Note_on_c, 0, 50, 60
2, 15071, Note_on_c, 0, 65, 60
2, 15071, Note_on_c, 0, 38, 60
2, 15072, Note_on_c, 0, 77, 60
2, 15074, Note_on_c, 0, 70, 60
2, 15074, Note_on_c, 0, 74, 60
2, 15074, Note_on_c, 0, 68, 60
2, 15158, Note_on_c, 0, 38, 0
2, 15163, Note_on_c, 0, 50, 0
2, 15185, Note_on_c, 0, 46, 60
2, 15187, Note_on_c, 0, 34, 60
2, 15273, Note_on_c, 0, 34, 0
2, 15273, Note_on_c, 0, 46, 0
2, 15302, Note_on_c, 0, 36, 60
2, 15306, Note_on_c, 0, 48, 60
2, 15387, Note_on_c, 0, 36, 0
2, 15392, Note_on_c, 0, 48, 0
2, 15396, Note_on_c, 0, 77, 0
2, 15396, Note_on_c, 0, 65, 0
2, 15396, Note_on_c, 0, 68, 0
2, 15400, Note_on_c, 0, 74, 0
2, 15400, Note_on_c, 0, 70, 0
2, 15421, Note_on_c, 0, 38, 60
2, 15423, Note_on_c, 0, 50, 60
2, 15513, Note_on_c, 0, 38, 0
2, 15515, Note_on_c, 0, 50, 0
2, 15550, Note_on_c, 0, 51, 60
2, 15550, Note_on_c, 0, 39, 60
2, 15640, Note_on_c, 0, 39, 0
2, 15646, Note_on_c, 0, 51, 0
2, 15671, Note_on_c, 0, 58, 60
2, 15671, Note_on_c, 0, 63, 60
2, 15671, Note_on_c, 0, 55, 60
2, 15672, Note_on_c, 0, 79, 60
2, 15674, Note_on_c, 0, 67, 60
2, 15701, Note_on_c, 0, 67, 0
2, 15705, Note_on_c, 0, 79, 0
2, 15734, Note_on_c, 0, 75, 60
2, 15736, Note_on_c, 0, 70, 60
2, 15759, Note_on_c, 0, 58, 0
2, 15763, Note_on_c, 0, 75, 0
2, 15763, Note_on_c, 0, 63, 0
2, 15763, Note_on_c, 0, 55, 0
2, 15767, Note_on_c, 0, 70, 0
2, 15787, Note_on_c, 0, 36, 60
2, 15792, Note_on_c, 0, 79, 60
2, 15793, Note_on_c, 0, 48, 60
2, 15820, Note_on_c, 0, 79, 0
2, 15848, Note_on_c, 0, 80, 60
2, 15851, Note_on_c, 0, 76, 60
2, 15851, Note_on_c, 0, 70, 60
2, 15873, Note_on_c, 0, 48, 0
2, 15873, Note_on_c, 0, 36, 0
2, 15904, Note_on_c, 0, 60, 60
2, 15906, Note_on_c, 0, 58, 60
2, 15906, Note_on_c, 0, 64, 60
2, 15906, Note_on_c, 0, 55, 60
2, 15935, Note_on_c, 0, 76, 0
2, 15936, Note_on_c, 0, 70, 0
2, 15936, Note_on_c, 0, 80, 0
2, 15965, Note_on_c, 0, 79, 60
2, 15992, Note_on_c, 0, 58, 0
2, 15994, Note_on_c, 0, 55, 0
2, 15994, Note_on_c, 0, 60, 0
2, 15994, Note_on_c, 0, 64, 0
2, 15994, Note_on_c, 0, 79, 0
2, 16018, Note_on_c, 0, 53, 60
2, 16018, Note_on_c, 0, 41, 60
2, 16021, Note_on_c, 0, 77, 60
2, 16023, Note_on_c, 0, 69, 60
2, 16052, Note_on_c, 0, 77, 0
2, 16056, Note_on_c, 0, 69, 0
2, 16080, Note_on_c, 0, 76, 60
2, 16106, Note_on_c, 0, 41, 0
2, 16110, Note_on_c, 0, 76, 0
2, 16110, Note_on_c, 0, 53, 0
2, 16133, Note_on_c, 0, 57, 60
2, 16135, Note_on_c, 0, 65, 60
2, 16135, Note_on_c, 0, 60, 60
2, 16137, Note_on_c, 0, 63, 60
2, 16139, Note_on_c, 0, 77, 60
2, 16166, Note_on_c, 0, 77, 0
2, 16193, Note_on_c, 0, 72, 60
2, 16195, Note_on_c, 0, 69, 60
2, 16225, Note_on_c, 0, 65, 0
2, 16227, Note_on_c, 0, 57, 0
2, 16227, Note_on_c, 0, 60, 0
2, 16229, Note_on_c, 0, 63, 0
2, 16248, Note_on_c, 0, 57, 60
2, 16252, Note_on_c, 0, 45, 60
2, 16343, Note_on_c, 0, 45, 0
2, 16348, Note_on_c, 0, 57, 0
2, 16373, Note_on_c, 0, 60, 60
2, 16373, Note_on_c, 0, 63, 60
2, 16373, Note_on_c, 0, 65, 60
2, 16373, Note_on_c, 0, 57, 60
2, 16465, Note_on_c, 0, 57, 0
2, 16465, Note_on_c, 0, 60, 0
2, 16465, Note_on_c, 0, 65, 0
2, 16469, Note_on_c, 0, 72, 0
2, 16469, Note_on_c, 0, 63, 0
2, 16471, Note_on_c, 0, 69, 0
2, 16498, Note_on_c, 0, 58, 60
2, 16498, Note_on_c, 0, 46, 60
2, 16502, Note_on_c, 0, 68, 60
2, 16560, Note_on_c, 0, 70, 60
2, 16561, Note_on_c, 0, 68, 0
2, 16584, Note_on_c, 0, 46, 0
2, 16588, Note_on_c, 0, 58, 0
2, 16619, Note_on_c, 0, 58, 60
2, 16619, Note_on_c, 0, 74, 60
2, 16619, Note_on_c, 0, 56, 60
2, 16623, Note_on_c, 0, 62, 60
2, 16625, Note_on_c, 0, 70, 0
2, 16657, Note_on_c, 0, 74, 0
2, 16680, Note_on_c, 0, 70, 60
2, 16682, Note_on_c, 0, 79, 60
2, 16682, Note_on_c, 0, 74, 60
2, 16708, Note_on_c, 0, 58, 0
2, 16713, Note_on_c, 0, 56, 0
2, 16713, Note_on_c, 0, 62, 0
2, 16735, Note_on_c, 0, 56, 60
2, 16737, Note_on_c, 0, 44, 60
2, 16775, Note_on_c, 0, 70, 0
2, 16775, Note_on_c, 0, 74, 0
2, 16775, Note_on_c, 0, 79, 0
2, 16799, Note_on_c, 0, 74, 60
2, 16827, Note_on_c, 0, 44, 0
2, 16829, Note_on_c, 0, 56, 0
2, 16836, Note_on_c, 0, 74, 0
2, 16858, Note_on_c, 0, 62, 60
2, 16858, Note_on_c, 0, 65, 60
2, 16858, Note_on_c, 0, 68, 60
2, 16858, Note_on_c, 0, 74, 60
2, 16858, Note_on_c, 0, 77, 60
2, 16858, Note_on_c, 0, 58, 60
2, 16950, Note_on_c, 0, 58, 0
2, 16950, Note_on_c, 0, 65, 0
2, 16950, Note_on_c, 0, 77, 0
2, 16952, Note_on_c, 0, 62, 0
2, 16954, Note_on_c, 0, 68, 0
2, 16954, Note_on_c, 0, 74, 0
2, 16977, Note_on_c, 0, 55, 60
2, 16979, Note_on_c, 0, 43, 60
2, 16981, Note_on_c, 0, 75, 60
2, 16981, Note_on_c, 0, 79, 60
2, 16981, Note_on_c, 0, 82, 60
2, 16981, Note_on_c, 0, 70, 60
2, 17008, Note_on_c, 0, 82, 0
2, 17012, Note_on_c, 0, 79, 0
2, 17012, Note_on_c, 0, 75, 0
2, 17012, Note_on_c, 0, 70, 0
2, 17040, Note_on_c, 0, 75, 60
2, 17063, Note_on_c, 0, 75, 0
2, 17065, Note_on_c, 0, 43, 0
2, 17067, Note_on_c, 0, 55, 0
2, 17089, Note_on_c, 0, 55, 60
2, 17091, Note_on_c, 0, 63, 60
2, 17091, Note_on_c, 0, 58, 60
2, 17096, Note_on_c, 0, 79, 60
2, 17124, Note_on_c, 0, 79, 0
2, 17153, Note_on_c, 0, 75, 60
2, 17153, Note_on_c, 0, 82, 60
2, 17153, Note_on_c, 0, 70, 60
2, 17155, Note_on_c, 0, 79, 60
2, 17180, Note_on_c, 0, 58, 0
2, 17184, Note_on_c, 0, 55, 0
2, 17184, Note_on_c, 0, 63, 0
2, 17208, Note_on_c, 0, 51, 60
2, 17208, Note_on_c, 0, 39, 60
2, 17292, Note_on_c, 0, 39, 0
2, 17301, Note_on_c, 0, 70, 0
2, 17301, Note_on_c, 0, 75, 0
2, 17301, Note_on_c, 0, 82, 0
2, 17301, Note_on_c, 0, 51, 0
2, 17304, Note_on_c, 0, 79, 0
2, 17326, Note_on_c, 0, 49, 60
2, 17328, Note_on_c, 0, 75, 60
2, 17328, Note_on_c, 0, 71, 60
2, 17329, Note_on_c, 0, 79, 60
2, 17335, Note_on_c, 0, 83, 60
2, 17344, Note_on_c, 0, 37, 60
2, 17411, Note_on_c, 0, 37, 0
2, 17413, Note_on_c, 0, 49, 0
2, 17413, Note_on_c, 0, 75, 0
2, 17418, Note_on_c, 0, 71, 0
2, 17418, Note_on_c, 0, 83, 0
2, 17420, Note_on_c, 0, 79, 0
2, 17440, Note_on_c, 0, 36, 60
2, 17444, Note_on_c, 0, 48, 60
2, 17446, Note_on_c, 0, 84, 60
2, 17448, Note_on_c, 0, 76, 60
2, 17448, Note_on_c, 0, 72, 60
2, 17532, Note_on_c, 0, 48, 0
2, 17532, Note_on_c, 0, 36, 0
2, 17534, Note_on_c, 0, 84, 0
2, 17536, Note_on_c, 0, 76, 0
2, 17538, Note_on_c, 0, 72, 0
2, 17565, Note_on_c, 0, 58, 60
2, 17565, Note_on_c, 0, 60, 60
2, 17565, Note_on_c, 0, 64, 60
2, 17565, Note_on_c, 0, 55, 60
2, 17568, Note_on_c, 0, 79, 60
2, 17597, Note_on_c, 0, 79, 0
2, 17624, Note_on_c, 0, 84, 60
2, 17624, Note_on_c, 0, 72, 60
2, 17626, Note_on_c, 0, 76, 60
2, 17651, Note_on_c, 0, 58, 0
2, 17655, Note_on_c, 0, 55, 0
2, 17655, Note_on_c, 0, 60, 0
2, 17655, Note_on_c, 0, 64, 0
2, 17680, Note_on_c, 0, 43, 60
2, 17682, Note_on_c, 0, 55, 60
2, 17712, Note_on_c, 0, 84, 0
2, 17714, Note_on_c, 0, 76, 0
2, 17716, Note_on_c, 0, 72, 0
2, 17745, Note_on_c, 0, 82, 60
2, 17774, Note_on_c, 0, 43, 0
2, 17774, Note_on_c, 0, 55, 0
2, 17800, Note_on_c, 0, 55, 60
2, 17805, Note_on_c, 0, 82, 0
2, 17805, Note_on_c, 0, 60, 60
2, 17805, Note_on_c, 0, 64, 60
2, 17805, Note_on_c, 0, 58, 60
2, 17807, Note_on_c, 0, 80, 60
2, 17866, Note_on_c, 0, 80, 0
2, 17866, Note_on_c, 0, 79, 60
2, 17892, Note_on_c, 0, 58, 0
2, 17897, Note_on_c, 0, 64, 0
2, 17897, Note_on_c, 0, 55, 0
2, 17897, Note_on_c, 0, 60, 0
2, 17897, Note_on_c, 0, 79, 0
2, 17921, Note_on_c, 0, 56, 60
2, 17923, Note_on_c, 0, 44, 60
2, 17926, Note_on_c, 0, 77, 60
2, 17987, Note_on_c, 0, 77, 0
2, 17987, Note_on_c, 0, 76, 60
2, 18013, Note_on_c, 0, 44, 0
2, 18015, Note_on_c, 0, 56, 0
2, 18042, Note_on_c, 0, 65, 60
2, 18042, Note_on_c, 0, 56, 60
2, 18044, Note_on_c, 0, 77, 60
2, 18046, Note_on_c, 0, 76, 0
2, 18046, Note_on_c, 0, 60, 60
2, 18101, Note_on_c, 0, 72, 60
2, 18103, Note_on_c, 0, 77, 0
2, 18105, Note_on_c, 0, 68, 60
2, 18132, Note_on_c, 0, 65, 0
2, 18136, Note_on_c, 0, 60, 0
2, 18136, Note_on_c, 0, 56, 0
2, 18159, Note_on_c, 0, 41, 60
2, 18163, Note_on_c, 0, 53, 60
2, 18247, Note_on_c, 0, 41, 0
2, 18253, Note_on_c, 0, 53, 0
2, 18278, Note_on_c, 0, 60, 60
2, 18278, Note_on_c, 0, 65, 60
2, 18278, Note_on_c, 0, 56, 60
2, 18363, Note_on_c, 0, 56, 0
2, 18363, Note_on_c, 0, 60, 0
2, 18365, Note_on_c, 0, 65, 0
2, 18365, Note_on_c, 0, 68, 0
2, 18367, Note_on_c, 0, 72, 0
2, 18392, Note_on_c, 0, 41, 60
2, 18394, Note_on_c, 0, 29, 60
2, 18396, Note_on_c, 0, 72, 60
2, 18396, Note_on_c, 0, 75, 60
2, 18396, Note_on_c, 0, 79, 60
2, 18396, Note_on_c, 0, 69, 60
2, 18476, Note_on_c, 0, 41, 0
2, 18479, Note_on_c, 0, 29, 0
2, 18480, Note_on_c, 0, 75, 0
2, 18484, Note_on_c, 0, 72, 0
2, 18484, Note_on_c, 0, 69, 0
2, 18484, Note_on_c, 0, 79, 0
2, 18509, Note_on_c, 0, 42, 60
2, 18511, Note_on_c, 0, 78, 60
2, 18511, Note_on_c, 0, 30, 60
2, 18546, Note_on_c, 0, 78, 0
2, 18568, Note_on_c, 0, 72, 60
2, 18568, Note_on_c, 0, 75, 60
2, 18568, Note_on_c, 0, 77, 60
2, 18568, Note_on_c, 0, 69, 60
2, 18593, Note_on_c, 0, 30, 0
2, 18599, Note_on_c, 0, 42, 0
2, 18622, Note_on_c, 0, 31, 60
2, 18624, Note_on_c, 0, 43, 60
2, 18656, Note_on_c, 0, 77, 0
2, 18656, Note_on_c, 0, 75, 0
2, 18660, Note_on_c, 0, 72, 0
2, 18660, Note_on_c, 0, 69, 0
2, 18687, Note_on_c, 0, 75, 60
2, 18714, Note_on_c, 0, 31, 0
2, 18718, Note_on_c, 0, 43, 0
2, 18746, Note_on_c, 0, 33, 60
2, 18750, Note_on_c, 0, 75, 0
2, 18750, Note_on_c, 0, 45, 60
2, 18752, Note_on_c, 0, 72, 60
2, 18814, Note_on_c, 0, 72, 0
2, 18814, Note_on_c, 0, 69, 60
2, 18837, Note_on_c, 0, 45, 0
2, 18837, Note_on_c, 0, 33, 0
2, 18867, Note_on_c, 0, 34, 60
2, 18871, Note_on_c, 0, 46, 60
2, 18875, Note_on_c, 0, 69, 0
2, 18875, Note_on_c, 0, 68, 60
2, 18935, Note_on_c, 0, 70, 60
2, 18936, Note_on_c, 0, 68, 0
2, 18961, Note_on_c, 0, 34, 0
2, 18961, Note_on_c, 0, 46, 0
2, 18990, Note_on_c, 0, 36, 60
2, 18994, Note_on_c, 0, 74, 60
2, 18994, Note_on_c, 0, 48, 60
2, 18998, Note_on_c, 0, 70, 0
2, 19054, Note_on_c, 0, 70, 60
2, 19054, Note_on_c, 0, 68, 60
2, 19057, Note_on_c, 0, 79, 60
2, 19059, Note_on_c, 0, 74, 0
2, 19080, Note_on_c, 0, 48, 0
2, 19080, Note_on_c, 0, 36, 0
2, 19111, Note_on_c, 0, 50, 60
2, 19111, Note_on_c, 0, 38, 60
2, 19200, Note_on_c, 0, 38, 0
2, 19203, Note_on_c, 0, 50, 0
2, 19207, Note_on_c, 0, 79, 0
2, 19207, Note_on_c, 0, 68, 0
2, 19207, Note_on_c, 0, 70, 0
2, 19230, Note_on_c, 0, 34, 60
2, 19232, Note_on_c, 0, 68, 60
2, 19232, Note_on_c, 0, 70, 60
2, 19232, Note_on_c, 0, 46, 60
2, 19234, Note_on_c, 0, 78, 60
2, 19316, Note_on_c, 0, 46, 0
2, 19320, Note_on_c, 0, 34, 0
2, 19324, Note_on_c, 0, 68, 0
2, 19324, Note_on_c, 0, 70, 0
2, 19328, Note_on_c, 0, 78, 0
2, 19350, Note_on_c, 0, 51, 60
2, 19355, Note_on_c, 0, 39, 60
2, 19442, Note_on_c, 0, 39, 0
2, 19447, Note_on_c, 0, 51, 0
2, 19478, Note_on_c, 0, 58, 60
2, 19478, Note_on_c, 0, 63, 60
2, 19478, Note_on_c, 0, 67, 60
2, 19478, Note_on_c, 0, 79, 60
2, 19478, Note_on_c, 0, 55, 60
2, 19507, Note_on_c, 0, 79, 0
2, 19507, Note_on_c, 0, 67, 0
2, 19535, Note_on_c, 0, 70, 60
2, 19537, Note_on_c, 0, 75, 60
2, 19560, Note_on_c, 0, 58, 0
2, 19561, Note_on_c, 0, 55, 0
2, 19561, Note_on_c, 0, 75, 0
2, 19565, Note_on_c, 0, 63, 0
2, 19565, Note_on_c, 0, 70, 0
2, 19588, Note_on_c, 0, 36, 60
2, 19592, Note_on_c, 0, 48, 60
2, 19594, Note_on_c, 0, 79, 60
2, 19623, Note_on_c, 0, 79, 0
2, 19648, Note_on_c, 0, 70, 60
2, 19652, Note_on_c, 0, 80, 60
2, 19652, Note_on_c, 0, 76, 60
2, 19677, Note_on_c, 0, 48, 0
2, 19677, Note_on_c, 0, 36, 0
2, 19704, Note_on_c, 0, 58, 60
2, 19704, Note_on_c, 0, 60, 60
2, 19704, Note_on_c, 0, 64, 60
2, 19704, Note_on_c, 0, 55, 60
2, 19735, Note_on_c, 0, 76, 0
2, 19738, Note_on_c, 0, 80, 0
2, 19740, Note_on_c, 0, 70, 0
2, 19773, Note_on_c, 0, 79, 60
2, 19793, Note_on_c, 0, 58, 0
2, 19797, Note_on_c, 0, 60, 0
2, 19797, Note_on_c, 0, 55, 0
2, 19797, Note_on_c, 0, 64, 0
2, 19797, Note_on_c, 0, 79, 0
2, 19822, Note_on_c, 0, 53, 60
2, 19822, Note_on_c, 0, 41, 60
2, 19825, Note_on_c, 0, 77, 60
2, 19825, Note_on_c, 0, 69, 60
2, 19856, Note_on_c, 0, 77, 0
2, 19861, Note_on_c, 0, 69, 0
2, 19889, Note_on_c, 0, 76, 60
2, 19912, Note_on_c, 0, 41, 0
2, 19916, Note_on_c, 0, 76, 0
2, 19918, Note_on_c, 0, 53, 0
2, 19943, Note_on_c, 0, 57, 60
2, 19946, Note_on_c, 0, 63, 60
2, 19946, Note_on_c, 0, 65, 60
2, 19946, Note_on_c, 0, 60, 60
2, 19950, Note_on_c, 0, 77, 60
2, 19977, Note_on_c, 0, 77, 0
2, 20010, Note_on_c, 0, 72, 60
2, 20010, Note_on_c, 0, 69, 60
2, 20037, Note_on_c, 0, 65, 0
2, 20039, Note_on_c, 0, 60, 0
2, 20039, Note_on_c, 0, 57, 0
2, 20040, Note_on_c, 0, 63, 0
2, 20065, Note_on_c, 0, 57, 60
2, 20065, Note_on_c, 0, 45, 60
2, 20154, Note_on_c, 0, 45, 0
2, 20161, Note_on_c, 0, 57, 0
2, 20183, Note_on_c, 0, 57, 60
2, 20184, Note_on_c, 0, 60, 60
2, 20186, Note_on_c, 0, 65, 60
2, 20186, Note_on_c, 0, 63, 60
2, 20277, Note_on_c, 0, 63, 0
2, 20277, Note_on_c, 0, 69, 0
2, 20277, Note_on_c, 0, 57, 0
2, 20277, Note_on_c, 0, 60, 0
2, 20277, Note_on_c, 0, 65, 0
2, 20280, Note_on_c, 0, 72, 0
2, 20307, Note_on_c, 0, 58, 60
2, 20307, Note_on_c, 0, 46, 60
2, 20309, Note_on_c, 0, 68, 60
2, 20371, Note_on_c, 0, 70, 60
2, 20373, Note_on_c, 0, 68, 0
2, 20398, Note_on_c, 0, 58, 0
2, 20398, Note_on_c, 0, 46, 0
2, 20424, Note_on_c, 0, 56, 60
2, 20425, Note_on_c, 0, 58, 60
2, 20428, Note_on_c, 0, 74, 60
2, 20430, Note_on_c, 0, 70, 0
2, 20432, Note_on_c, 0, 62, 60
2, 20463, Note_on_c, 0, 74, 0
2, 20487, Note_on_c, 0, 74, 60
2, 20487, Note_on_c, 0, 70, 60
2, 20492, Note_on_c, 0, 79, 60
2, 20512, Note_on_c, 0, 62, 0
2, 20516, Note_on_c, 0, 58, 0
2, 20518, Note_on_c, 0, 56, 0
2, 20544, Note_on_c, 0, 56, 60
2, 20544, Note_on_c, 0, 44, 60
2, 20577, Note_on_c, 0, 74, 0
2, 20577, Note_on_c, 0, 70, 0
2, 20577, Note_on_c, 0, 79, 0
2, 20604, Note_on_c, 0, 74, 60
2, 20631, Note_on_c, 0, 44, 0
2, 20637, Note_on_c, 0, 74, 0
2, 20637, Note_on_c, 0, 56, 0
2, 20660, Note_on_c, 0, 68, 60
2, 20660, Note_on_c, 0, 74, 60
2, 20660, Note_on_c, 0, 65, 60
2, 20662, Note_on_c, 0, 58, 60
2, 20664, Note_on_c, 0, 77, 60
2, 20664, Note_on_c, 0, 62, 60
2, 20743, Note_on_c, 0, 77, 0
2, 20743, Note_on_c, 0, 58, 0
2, 20743, Note_on_c, 0, 65, 0
2, 20747, Note_on_c, 0, 68, 0
2, 20747, Note_on_c, 0, 62, 0
2, 20747, Note_on_c, 0, 74, 0
2, 20774, Note_on_c, 0, 55, 60
2, 20774, Note_on_c, 0, 43, 60
2, 20776, Note_on_c, 0, 75, 60
2, 20776, Note_on_c, 0, 79, 60
2, 20776, Note_on_c, 0, 82, 60
2, 20776, Note_on_c, 0, 70, 60
2, 20805, Note_on_c, 0, 82, 0
2, 20805, Note_on_c, 0, 75, 0
2, 20807, Note_on_c, 0, 79, 0
2, 20807, Note_on_c, 0, 70, 0
2, 20833, Note_on_c, 0, 75, 60
2, 20860, Note_on_c, 0, 43, 0
2, 20864, Note_on_c, 0, 75, 0
2, 20864, Note_on_c, 0, 55, 0
2, 20891, Note_on_c, 0, 58, 60
2, 20891, Note_on_c, 0, 55, 60
2, 20895, Note_on_c, 0, 79, 60
2, 20895, Note_on_c, 0, 63, 60
2, 20924, Note_on_c, 0, 79, 0
2, 20952, Note_on_c, 0, 75, 60
2, 20952, Note_on_c, 0, 79, 60
2, 20952, Note_on_c, 0, 70, 60
2, 20954, Note_on_c, 0, 82, 60
2, 20978, Note_on_c, 0, 58, 0
2, 20983, Note_on_c, 0, 63, 0
2, 20983, Note_on_c, 0, 55, 0
2, 21005, Note_on_c, 0, 51, 60
2, 21007, Note_on_c, 0, 39, 60
2, 21092, Note_on_c, 0, 39, 0
2, 21097, Note_on_c, 0, 82, 0
2, 21097, Note_on_c, 0, 75, 0
2, 21097, Note_on_c, 0, 51, 0
2, 21101, Note_on_c, 0, 79, 0
2, 21101, Note_on_c, 0, 70, 0
2, 21122, Note_on_c, 0, 49, 60
2, 21128, Note_on_c, 0, 75, 60
2, 21130, Note_on_c, 0, 79, 60
2, 21130, Note_on_c, 0, 71, 60
2, 21132, Note_on_c, 0, 83, 60
2, 21132, Note_on_c, 0, 37, 60
2, 21215, Note_on_c, 0, 37, 0
2, 21218, Note_on_c, 0, 49, 0
2, 21220, Note_on_c, 0, 71, 0
2, 21220, Note_on_c, 0, 75, 0
2, 21222, Note_on_c, 0, 79, 0
2, 21224, Note_on_c, 0, 83, 0
2, 21239, Note_on_c, 0, 36, 60
2, 21243, Note_on_c, 0, 48, 60
2, 21245, Note_on_c, 0, 72, 60
2, 21247, Note_on_c, 0, 84, 60
2, 21247, Note_on_c, 0, 76, 60
2, 21327, Note_on_c, 0, 48, 0
2, 21327, Note_on_c, 0, 36, 0
2, 21331, Note_on_c, 0, 84, 0
2, 21331, Note_on_c, 0, 76, 0
2, 21336, Note_on_c, 0, 72, 0
2, 21360, Note_on_c, 0, 58, 60
2, 21360, Note_on_c, 0, 60, 60
2, 21360, Note_on_c, 0, 64, 60
2, 21360, Note_on_c, 0, 55, 60
2, 21363, Note_on_c, 0, 79, 60
2, 21394, Note_on_c, 0, 79, 0
2, 21421, Note_on_c, 0, 72, 60
2, 21423, Note_on_c, 0, 76, 60
2, 21425, Note_on_c, 0, 84, 60
2, 21448, Note_on_c, 0, 58, 0
2, 21452, Note_on_c, 0, 55, 0
2, 21452, Note_on_c, 0, 60, 0
2, 21452, Note_on_c, 0, 64, 0
2, 21479, Note_on_c, 0, 55, 60
2, 21479, Note_on_c, 0, 43, 60
2, 21511, Note_on_c, 0, 84, 0
2, 21513, Note_on_c, 0, 76, 0
2, 21513, Note_on_c, 0, 72, 0
2, 21546, Note_on_c, 0, 82, 60
2, 21573, Note_on_c, 0, 55, 0
2, 21573, Note_on_c, 0, 43, 0
2, 21600, Note_on_c, 0, 55, 60
2, 21601, Note_on_c, 0, 60, 60
2, 21603, Note_on_c, 0, 82, 0
2, 21603, Note_on_c, 0, 64, 60
2, 21603, Note_on_c, 0, 58, 60
2, 21607, Note_on_c, 0, 79, 60
2, 21663, Note_on_c, 0, 79, 0
2, 21663, Note_on_c, 0, 76, 60
2, 21690, Note_on_c, 0, 58, 0
2, 21694, Note_on_c, 0, 64, 0
2, 21694, Note_on_c, 0, 55, 0
2, 21694, Note_on_c, 0, 60, 0
2, 21719, Note_on_c, 0, 56, 60
2, 21720, Note_on_c, 0, 44, 60
2, 21722, Note_on_c, 0, 72, 60
2, 21724, Note_on_c, 0, 76, 0
2, 21784, Note_on_c, 0, 77, 60
2, 21786, Note_on_c, 0, 72, 0
2, 21813, Note_on_c, 0, 44, 0
2, 21815, Note_on_c, 0, 56, 0
2, 21841, Note_on_c, 0, 60, 60
2, 21841, Note_on_c, 0, 65, 60
2, 21841, Note_on_c, 0, 56, 60
2, 21845, Note_on_c, 0, 77, 0
2, 21847, Note_on_c, 0, 80, 60
2, 21903, Note_on_c, 0, 72, 60
2, 21905, Note_on_c, 0, 80, 0
2, 21907, Note_on_c, 0, 84, 60
2, 21907, Note_on_c, 0, 77, 60
2, 21934, Note_on_c, 0, 60, 0
2, 21934, Note_on_c, 0, 56, 0
2, 21934, Note_on_c, 0, 65, 0
2, 21958, Note_on_c, 0, 44, 60
2, 21960, Note_on_c, 0, 56, 60
2, 21988, Note_on_c, 0, 77, 0
2, 21992, Note_on_c, 0, 72, 0
2, 21992, Note_on_c, 0, 84, 0
2, 22023, Note_on_c, 0, 80, 60
2, 22046, Note_on_c, 0, 44, 0
2, 22052, Note_on_c, 0, 56, 0
2, 22079, Note_on_c, 0, 57, 60
2, 22079, Note_on_c, 0, 45, 60
2, 22080, Note_on_c, 0, 75, 60
2, 22080, Note_on_c, 0, 71, 60
2, 22082, Note_on_c, 0, 80, 0
2, 22091, Note_on_c, 0, 83, 60
2, 22169, Note_on_c, 0, 45, 0
2, 22173, Note_on_c, 0, 57, 0
2, 22175, Note_on_c, 0, 71, 0
2, 22176, Note_on_c, 0, 75, 0
2, 22176, Note_on_c, 0, 83, 0
2, 22196, Note_on_c, 0, 58, 60
2, 22196, Note_on_c, 0, 46, 60
2, 22200, Note_on_c, 0, 75, 60
2, 22201, Note_on_c, 0, 82, 60
2, 22203, Note_on_c, 0, 79, 60
2, 22230, Note_on_c, 0, 79, 0
2, 22259, Note_on_c, 0, 75, 0
2, 22259, Note_on_c, 0, 82, 0
2, 22259, Note_on_c, 0, 79, 60
2, 22281, Note_on_c, 0, 46, 0
2, 22283, Note_on_c, 0, 58, 0
2, 22314, Note_on_c, 0, 58, 60
2, 22316, Note_on_c, 0, 63, 60
2, 22319, Note_on_c, 0, 75, 60
2, 22319, Note_on_c, 0, 67, 60
2, 22322, Note_on_c, 0, 79, 0
2, 22375, Note_on_c, 0, 75, 0
2, 22377, Note_on_c, 0, 70, 60
2, 22406, Note_on_c, 0, 58, 0
2, 22408, Note_on_c, 0, 67, 0
2, 22411, Note_on_c, 0, 63, 0
2, 22433, Note_on_c, 0, 34, 60
2, 22437, Note_on_c, 0, 46, 60
2, 22496, Note_on_c, 0, 79, 60
2, 22500, Note_on_c, 0, 70, 0
2, 22519, Note_on_c, 0, 34, 0
2, 22519, Note_on_c, 0, 46, 0
2, 22527, Note_on_c, 0, 79, 0
2, 22548, Note_on_c, 0, 46, 60
2, 22552, Note_on_c, 0, 74, 60
2, 22552, Note_on_c, 0, 58, 60
2, 22554, Note_on_c, 0, 77, 60
2, 22556, Note_on_c, 0, 68, 60
2, 22633, Note_on_c, 0, 46, 0
2, 22637, Note_on_c, 0, 58, 0
2, 22642, Note_on_c, 0, 77, 0
2, 22646, Note_on_c, 0, 68, 0
2, 22646, Note_on_c, 0, 74, 0
2, 22666, Note_on_c, 0, 51, 60
2, 22666, Note_on_c, 0, 39, 60
2, 22673, Note_on_c, 0, 70, 60
2, 22673, Note_on_c, 0, 75, 60
2, 22673, Note_on_c, 0, 67, 60
2, 22754, Note_on_c, 0, 39, 0
2, 22763, Note_on_c, 0, 51, 0
2, 22783, Note_on_c, 0, 34, 60
2, 22787, Note_on_c, 0, 46, 60
2, 22873, Note_on_c, 0, 46, 0
2, 22875, Note_on_c, 0, 34, 0
2, 22904, Note_on_c, 0, 36, 60
2, 22908, Note_on_c, 0, 48, 60
2, 22990, Note_on_c, 0, 70, 0
2, 22994, Note_on_c, 0, 36, 0
2, 22994, Note_on_c, 0, 48, 0
2, 22998, Note_on_c, 0, 75, 0
2, 22998, Note_on_c, 0, 67, 0
2, 23022, Note_on_c, 0, 38, 60
2, 23027, Note_on_c, 0, 50, 60
2, 23112, Note_on_c, 0, 38, 0
2, 23119, Note_on_c, 0, 50, 0
2, 23141, Note_on_c, 0, 51, 60
2, 23145, Note_on_c, 0, 39, 60
2, 23230, Note_on_c, 0, 39, 0
2, 23235, Note_on_c, 0, 51, 0
2, 23258, Note_on_c, 0, 67, 60
2, 23260, Note_on_c, 0, 55, 60
2, 23262, Note_on_c, 0, 63, 60
2, 23262, Note_on_c, 0, 58, 60
2, 23268, Note_on_c, 0, 79, 60
2, 23289, Note_on_c, 0, 67, 0
2, 23299, Note_on_c, 0, 79, 0
2, 23311, Note_on_c, 0, 70, 60
2, 23318, Note_on_c, 0, 75, 60
2, 23340, Note_on_c, 0, 58, 0
2, 23342, Note_on_c, 0, 75, 0
2, 23344, Note_on_c, 0, 70, 0
2, 23347, Note_on_c, 0, 63, 0
2, 23351, Note_on_c, 0, 55, 0
2, 23375, Note_on_c, 0, 36, 60
2, 23377, Note_on_c, 0, 48, 60
2, 23381, Note_on_c, 0, 79, 60
2, 23405, Note_on_c, 0, 79, 0
2, 23432, Note_on_c, 0, 70, 60
2, 23434, Note_on_c, 0, 80, 60
2, 23436, Note_on_c, 0, 76, 60
2, 23459, Note_on_c, 0, 48, 0
2, 23459, Note_on_c, 0, 36, 0
2, 23490, Note_on_c, 0, 58, 60
2, 23490, Note_on_c, 0, 60, 60
2, 23490, Note_on_c, 0, 55, 60
2, 23492, Note_on_c, 0, 64, 60
2, 23519, Note_on_c, 0, 76, 0
2, 23522, Note_on_c, 0, 80, 0
2, 23522, Note_on_c, 0, 70, 0
2, 23555, Note_on_c, 0, 79, 60
2, 23578, Note_on_c, 0, 58, 0
2, 23580, Note_on_c, 0, 60, 0
2, 23580, Note_on_c, 0, 55, 0
2, 23582, Note_on_c, 0, 64, 0
2, 23582, Note_on_c, 0, 79, 0
2, 23609, Note_on_c, 0, 53, 60
2, 23609, Note_on_c, 0, 41, 60
2, 23613, Note_on_c, 0, 69, 60
2, 23615, Note_on_c, 0, 77, 60
2, 23641, Note_on_c, 0, 77, 0
2, 23645, Note_on_c, 0, 69, 0
2, 23676, Note_on_c, 0, 76, 60
2, 23698, Note_on_c, 0, 41, 0
2, 23707, Note_on_c, 0, 76, 0
2, 23707, Note_on_c, 0, 53, 0
2, 23732, Note_on_c, 0, 60, 60
2, 23734, Note_on_c, 0, 65, 60
2, 23734, Note_on_c, 0, 57, 60
2, 23736, Note_on_c, 0, 77, 60
2, 23736, Note_on_c, 0, 63, 60
2, 23764, Note_on_c, 0, 77, 0
2, 23795, Note_on_c, 0, 69, 60
2, 23797, Note_on_c, 0, 72, 60
2, 23824, Note_on_c, 0, 57, 0
2, 23824, Note_on_c, 0, 63, 0
2, 23824, Note_on_c, 0, 60, 0
2, 23824, Note_on_c, 0, 65, 0
2, 23852, Note_on_c, 0, 57, 60
2, 23852, Note_on_c, 0, 45, 60
2, 23944, Note_on_c, 0, 45, 0
2, 23951, Note_on_c, 0, 57, 0
2, 23975, Note_on_c, 0, 60, 60
2, 23975, Note_on_c, 0, 65, 60
2, 23975, Note_on_c, 0, 57, 60
2, 23977, Note_on_c, 0, 63, 60
2, 24067, Note_on_c, 0, 57, 0
2, 24067, Note_on_c, 0, 60, 0
2, 24070, Note_on_c, 0, 65, 0
2, 24070, Note_on_c, 0, 69, 0
2, 24070, Note_on_c, 0, 63, 0
2, 24070, Note_on_c, 0, 72, 0
2, 24090, Note_on_c, 0, 58, 60
2, 24090, Note_on_c, 0, 46, 60
2, 24094, Note_on_c, 0, 68, 60
2, 24155, Note_on_c, 0, 70, 60
2, 24159, Note_on_c, 0, 68, 0
2, 24182, Note_on_c, 0, 58, 0
2, 24182, Note_on_c, 0, 46, 0
2, 24215, Note_on_c, 0, 58, 60
2, 24215, Note_on_c, 0, 74, 60
2, 24215, Note_on_c, 0, 56, 60
2, 24218, Note_on_c, 0, 62, 60
2, 24220, Note_on_c, 0, 70, 0
2, 24251, Note_on_c, 0, 74, 0
2, 24276, Note_on_c, 0, 74, 60
2, 24276, Note_on_c, 0, 79, 60
2, 24276, Note_on_c, 0, 70, 60
2, 24303, Note_on_c, 0, 62, 0
2, 24303, Note_on_c, 0, 58, 0
2, 24307, Note_on_c, 0, 56, 0
2, 24332, Note_on_c, 0, 56, 60
2, 24332, Note_on_c, 0, 44, 60
2, 24366, Note_on_c, 0, 79, 0
2, 24370, Note_on_c, 0, 74, 0
2, 24370, Note_on_c, 0, 70, 0
2, 24393, Note_on_c, 0, 74, 60
2, 24415, Note_on_c, 0, 44, 0
2, 24422, Note_on_c, 0, 56, 0
2, 24428, Note_on_c, 0, 74, 0
2, 24448, Note_on_c, 0, 65, 60
2, 24448, Note_on_c, 0, 58, 60
2, 24453, Note_on_c, 0, 74, 60
2, 24453, Note_on_c, 0, 77, 60
2, 24453, Note_on_c, 0, 68, 60
2, 24456, Note_on_c, 0, 62, 60
2, 24540, Note_on_c, 0, 77, 0
2, 24540, Note_on_c, 0, 58, 0
2, 24540, Note_on_c, 0, 65, 0
2, 24545, Note_on_c, 0, 74, 0
2, 24545, Note_on_c, 0, 62, 0
2, 24545, Note_on_c, 0, 68, 0
2, 24571, Note_on_c, 0, 55, 60
2, 24571, Note_on_c, 0, 43, 60
2, 24573, Note_on_c, 0, 75, 60
2, 24573, Note_on_c, 0, 79, 60
2, 24573, Note_on_c, 0, 82, 60
2, 24573, Note_on_c, 0, 70, 60
2, 24601, Note_on_c, 0, 79, 0
2, 24603, Note_on_c, 0, 82, 0
2, 24603, Note_on_c, 0, 75, 0
2, 24608, Note_on_c, 0, 70, 0
2, 24634, Note_on_c, 0, 75, 60
2, 24663, Note_on_c, 0, 75, 0
2, 24663, Note_on_c, 0, 55, 0
2, 24663, Note_on_c, 0, 43, 0
2, 24690, Note_on_c, 0, 58, 60
2, 24690, Note_on_c, 0, 55, 60
2, 24692, Note_on_c, 0, 79, 60
2, 24694, Note_on_c, 0, 63, 60
2, 24722, Note_on_c, 0, 79, 0
2, 24751, Note_on_c, 0, 75, 60
2, 24751, Note_on_c, 0, 79, 60
2, 24751, Note_on_c, 0, 70, 60
2, 24755, Note_on_c, 0, 82, 60
2, 24778, Note_on_c, 0, 58, 0
2, 24782, Note_on_c, 0, 63, 0
2, 24782, Note_on_c, 0, 55, 0
2, 24804, Note_on_c, 0, 51, 60
2, 24804, Note_on_c, 0, 39, 60
2, 24892, Note_on_c, 0, 39, 0
2, 24896, Note_on_c, 0, 75, 0
2, 24896, Note_on_c, 0, 82, 0
2, 24901, Note_on_c, 0, 79, 0
2, 24901, Note_on_c, 0, 51, 0
2, 24901, Note_on_c, 0, 70, 0
2, 24925, Note_on_c, 0, 71, 60
2, 24925, Note_on_c, 0, 75, 60
2, 24925, Note_on_c, 0, 49, 60
2, 24930, Note_on_c, 0, 83, 60
2, 24932, Note_on_c, 0, 79, 60
2, 24936, Note_on_c, 0, 37, 60
2, 25011, Note_on_c, 0, 37, 0
2, 25015, Note_on_c, 0, 75, 0
2, 25015, Note_on_c, 0, 71, 0
2, 25015, Note_on_c, 0, 49, 0
2, 25015, Note_on_c, 0, 79, 0
2, 25019, Note_on_c, 0, 83, 0
2, 25038, Note_on_c, 0, 36, 60
2, 25040, Note_on_c, 0, 72, 60
2, 25040, Note_on_c, 0, 76, 60
2, 25040, Note_on_c, 0, 84, 60
2, 25040, Note_on_c, 0, 48, 60
2, 25122, Note_on_c, 0, 36, 0
2, 25126, Note_on_c, 0, 48, 0
2, 25130, Note_on_c, 0, 72, 0
2, 25130, Note_on_c, 0, 76, 0
2, 25130, Note_on_c, 0, 84, 0
2, 25154, Note_on_c, 0, 58, 60
2, 25156, Note_on_c, 0, 55, 60
2, 25159, Note_on_c, 0, 60, 60
2, 25161, Note_on_c, 0, 64, 60
2, 25163, Note_on_c, 0, 79, 60
2, 25194, Note_on_c, 0, 79, 0
2, 25221, Note_on_c, 0, 76, 60
2, 25221, Note_on_c, 0, 84, 60
2, 25221, Note_on_c, 0, 72, 60
2, 25247, Note_on_c, 0, 58, 0
2, 25251, Note_on_c, 0, 64, 0
2, 25251, Note_on_c, 0, 55, 0
2, 25251, Note_on_c, 0, 60, 0
2, 25275, Note_on_c, 0, 55, 60
2, 25275, Note_on_c, 0, 43, 60
2, 25308, Note_on_c, 0, 72, 0
2, 25308, Note_on_c, 0, 84, 0
2, 25308, Note_on_c, 0, 76, 0
2, 25337, Note_on_c, 0, 82, 60
2, 25366, Note_on_c, 0, 43, 0
2, 25368, Note_on_c, 0, 55, 0
2, 25394, Note_on_c, 0, 58, 60
2, 25394, Note_on_c, 0, 55, 60
2, 25396, Note_on_c, 0, 80, 60
2, 25396, Note_on_c, 0, 60, 60
2, 25398, Note_on_c, 0, 82, 0
2, 25398, Note_on_c, 0, 64, 60
2, 25456, Note_on_c, 0, 80, 0
2, 25458, Note_on_c, 0, 79, 60
2, 25485, Note_on_c, 0, 60, 0
2, 25485, Note_on_c, 0, 58, 0
2, 25485, Note_on_c, 0, 55, 0
2, 25490, Note_on_c, 0, 64, 0
2, 25511, Note_on_c, 0, 56, 60
2, 25515, Note_on_c, 0, 44, 60
2, 25517, Note_on_c, 0, 77, 60
2, 25519, Note_on_c, 0, 79, 0
2, 25572, Note_on_c, 0, 77, 0
2, 25575, Note_on_c, 0, 76, 60
2, 25601, Note_on_c, 0, 44, 0
2, 25606, Note_on_c, 0, 56, 0
2, 25630, Note_on_c, 0, 56, 60
2, 25632, Note_on_c, 0, 76, 0
2, 25633, Note_on_c, 0, 65, 60
2, 25633, Note_on_c, 0, 77, 60
2, 25633, Note_on_c, 0, 60, 60
2, 25691, Note_on_c, 0, 77, 0
2, 25691, Note_on_c, 0, 68, 60
2, 25695, Note_on_c, 0, 72, 60
2, 25722, Note_on_c, 0, 65, 0
2, 25724, Note_on_c, 0, 60, 0
2, 25724, Note_on_c, 0, 56, 0
2, 25751, Note_on_c, 0, 53, 60
2, 25751, Note_on_c, 0, 41, 60
2, 25839, Note_on_c, 0, 41, 0
2, 25843, Note_on_c, 0, 53, 0
2, 25866, Note_on_c, 0, 65, 60
2, 25866, Note_on_c, 0, 56, 60
2, 25870, Note_on_c, 0, 60, 60
2, 25958, Note_on_c, 0, 65, 0
2, 25962, Note_on_c, 0, 56, 0
2, 25962, Note_on_c, 0, 72, 0
2, 25962, Note_on_c, 0, 68, 0
2, 25962, Note_on_c, 0, 60, 0
2, 25982, Note_on_c, 0, 53, 60
2, 25982, Note_on_c, 0, 69, 60
2, 25982, Note_on_c, 0, 41, 60
2, 25984, Note_on_c, 0, 75, 60
2, 25984, Note_on_c, 0, 72, 60
2, 25986, Note_on_c, 0, 79, 60
2, 26070, Note_on_c, 0, 41, 0
2, 26074, Note_on_c, 0, 75, 0
2, 26076, Note_on_c, 0, 69, 0
2, 26076, Note_on_c, 0, 53, 0
2, 26076, Note_on_c, 0, 79, 0
2, 26081, Note_on_c, 0, 72, 0
2, 26101, Note_on_c, 0, 54, 60
2, 26101, Note_on_c, 0, 42, 60
2, 26105, Note_on_c, 0, 78, 60
2, 26142, Note_on_c, 0, 78, 0
2, 26166, Note_on_c, 0, 72, 60
2, 26166, Note_on_c, 0, 75, 60
2, 26166, Note_on_c, 0, 77, 60
2, 26166, Note_on_c, 0, 69, 60
2, 26195, Note_on_c, 0, 42, 0
2, 26195, Note_on_c, 0, 54, 0
2, 26224, Note_on_c, 0, 55, 60
2, 26224, Note_on_c, 0, 43, 60
2, 26255, Note_on_c, 0, 77, 0
2, 26255, Note_on_c, 0, 75, 0
2, 26258, Note_on_c, 0, 72, 0
2, 26258, Note_on_c, 0, 69, 0
2, 26285, Note_on_c, 0, 75, 60
2, 26314, Note_on_c, 0, 43, 0
2, 26316, Note_on_c, 0, 55, 0
2, 26343, Note_on_c, 0, 57, 60
2, 26343, Note_on_c, 0, 45, 60
2, 26345, Note_on_c, 0, 72, 60
2, 26349, Note_on_c, 0, 75, 0
2, 26408, Note_on_c, 0, 69, 60
2, 26412, Note_on_c, 0, 72, 0
2, 26435, Note_on_c, 0, 45, 0
2, 26443, Note_on_c, 0, 57, 0
2, 26468, Note_on_c, 0, 34, 60
2, 26470, Note_on_c, 0, 68, 60
2, 26470, Note_on_c, 0, 46, 60
2, 26473, Note_on_c, 0, 69, 0
2, 26529, Note_on_c, 0, 70, 60
2, 26531, Note_on_c, 0, 68, 0
2, 26553, Note_on_c, 0, 46, 0
2, 26558, Note_on_c, 0, 34, 0
2, 26584, Note_on_c, 0, 36, 60
2, 26586, Note_on_c, 0, 74, 60
2, 26589, Note_on_c, 0, 48, 60
2, 26591, Note_on_c, 0, 70, 0
2, 26621, Note_on_c, 0, 74, 0
2, 26647, Note_on_c, 0, 70, 60
2, 26647, Note_on_c, 0, 79, 60
2, 26647, Note_on_c, 0, 68, 60
2, 26674, Note_on_c, 0, 36, 0
2, 26676, Note_on_c, 0, 48, 0
2, 26709, Note_on_c, 0, 50, 60
2, 26709, Note_on_c, 0, 38, 60
2, 26804, Note_on_c, 0, 38, 0
2, 26804, Note_on_c, 0, 79, 0
2, 26804, Note_on_c, 0, 68, 0
2, 26804, Note_on_c, 0, 70, 0
2, 26804, Note_on_c, 0, 50, 0
2, 26830, Note_on_c, 0, 46, 60
2, 26830, Note_on_c, 0, 70, 60
2, 26830, Note_on_c, 0, 34, 60
2, 26832, Note_on_c, 0, 78, 60
2, 26834, Note_on_c, 0, 68, 60
2, 26918, Note_on_c, 0, 46, 0
2, 26922, Note_on_c, 0, 70, 0
2, 26922, Note_on_c, 0, 68, 0
2, 26922, Note_on_c, 0, 34, 0
2, 26927, Note_on_c, 0, 78, 0
2, 26949, Note_on_c, 0, 51, 60
2, 26952, Note_on_c, 0, 39, 60
2, 27037, Note_on_c, 0, 39, 0
2, 27039, Note_on_c, 0, 51, 0
2, 27070, Note_on_c, 0, 58, 60
2, 27070, Note_on_c, 0, 63, 60
2, 27070, Note_on_c, 0, 67, 60
2, 27070, Note_on_c, 0, 55, 60
2, 27073, Note_on_c, 0, 79, 60
2, 27098, Note_on_c, 0, 79, 0
2, 27102, Note_on_c, 0, 67, 0
2, 27131, Note_on_c, 0, 75, 60
2, 27131, Note_on_c, 0, 70, 60
2, 27153, Note_on_c, 0, 75, 0
2, 27153, Note_on_c, 0, 58, 0
2, 27158, Note_on_c, 0, 55, 0
2, 27158, Note_on_c, 0, 70, 0
2, 27160, Note_on_c, 0, 63, 0
2, 27184, Note_on_c, 0, 36, 60
2, 27189, Note_on_c, 0, 79, 60
2, 27189, Note_on_c, 0, 48, 60
2, 27217, Note_on_c, 0, 79, 0
2, 27243, Note_on_c, 0, 80, 60
2, 27245, Note_on_c, 0, 76, 60
2, 27245, Note_on_c, 0, 70, 60
2, 27266, Note_on_c, 0, 36, 0
2, 27270, Note_on_c, 0, 48, 0
2, 27299, Note_on_c, 0, 58, 60
2, 27299, Note_on_c, 0, 60, 60
2, 27299, Note_on_c, 0, 64, 60
2, 27299, Note_on_c, 0, 55, 60
2, 27330, Note_on_c, 0, 76, 0
2, 27330, Note_on_c, 0, 70, 0
2, 27330, Note_on_c, 0, 80, 0
2, 27362, Note_on_c, 0, 79, 60
2, 27387, Note_on_c, 0, 58, 0
2, 27389, Note_on_c, 0, 64, 0
2, 27391, Note_on_c, 0, 55, 0
2, 27391, Note_on_c, 0, 60, 0
2, 27391, Note_on_c, 0, 79, 0
2, 27415, Note_on_c, 0, 69, 60
2, 27415, Note_on_c, 0, 41, 60
2, 27418, Note_on_c, 0, 53, 60
2, 27420, Note_on_c, 0, 77, 60
2, 27444, Note_on_c, 0, 77, 0
2, 27444, Note_on_c, 0, 69, 0
2, 27477, Note_on_c, 0, 76, 60
2, 27504, Note_on_c, 0, 41, 0
2, 27507, Note_on_c, 0, 76, 0
2, 27507, Note_on_c, 0, 53, 0
2, 27532, Note_on_c, 0, 57, 60
2, 27534, Note_on_c, 0, 77, 60
2, 27534, Note_on_c, 0, 60, 60
2, 27536, Note_on_c, 0, 65, 60
2, 27536, Note_on_c, 0, 63, 60
2, 27565, Note_on_c, 0, 77, 0
2, 27598, Note_on_c, 0, 72, 60
2, 27598, Note_on_c, 0, 69, 60
2, 27624, Note_on_c, 0, 65, 0
2, 27628, Note_on_c, 0, 63, 0
2, 27628, Note_on_c, 0, 57, 0
2, 27628, Note_on_c, 0, 60, 0
2, 27653, Note_on_c, 0, 57, 60
2, 27657, Note_on_c, 0, 45, 60
2, 27747, Note_on_c, 0, 45, 0
2, 27749, Note_on_c, 0, 57, 0
2, 27774, Note_on_c, 0, 60, 60
2, 27774, Note_on_c, 0, 63, 60
2, 27774, Note_on_c, 0, 65, 60
2, 27774, Note_on_c, 0, 57, 60
2, 27864, Note_on_c, 0, 65, 0
2, 27868, Note_on_c, 0, 69, 0
2, 27868, Note_on_c, 0, 60, 0
2, 27868, Note_on_c, 0, 72, 0
2, 27868, Note_on_c, 0, 57, 0
2, 27868, Note_on_c, 0, 63, 0
2, 27897, Note_on_c, 0, 68, 60
2, 27899, Note_on_c, 0, 58, 60
2, 27899, Note_on_c, 0, 46, 60
2, 27960, Note_on_c, 0, 70, 60
2, 27962, Note_on_c, 0, 68, 0
2, 27983, Note_on_c, 0, 46, 0
2, 27987, Note_on_c, 0, 58, 0
2, 28016, Note_on_c, 0, 58, 60
2, 28016, Note_on_c, 0, 56, 60
2, 28020, Note_on_c, 0, 70, 0
2, 28020, Note_on_c, 0, 74, 60
2, 28022, Note_on_c, 0, 62, 60
2, 28049, Note_on_c, 0, 74, 0
2, 28078, Note_on_c, 0, 74, 60
2, 28078, Note_on_c, 0, 79, 60
2, 28078, Note_on_c, 0, 70, 60
2, 28104, Note_on_c, 0, 58, 0
2, 28105, Note_on_c, 0, 62, 0
2, 28105, Note_on_c, 0, 56, 0
2, 28130, Note_on_c, 0, 56, 60
2, 28130, Note_on_c, 0, 44, 60
2, 28165, Note_on_c, 0, 74, 0
2, 28165, Note_on_c, 0, 70, 0
2, 28165, Note_on_c, 0, 79, 0
2, 28190, Note_on_c, 0, 74, 60
2, 28217, Note_on_c, 0, 44, 0
2, 28224, Note_on_c, 0, 74, 0
2, 28224, Note_on_c, 0, 56, 0
2, 28248, Note_on_c, 0, 62, 60
2, 28248, Note_on_c, 0, 65, 60
2, 28248, Note_on_c, 0, 74, 60
2, 28248, Note_on_c, 0, 58, 60
2, 28251, Note_on_c, 0, 77, 60
2, 28251, Note_on_c, 0, 68, 60
2, 28335, Note_on_c, 0, 58, 0
2, 28335, Note_on_c, 0, 65, 0
2, 28335, Note_on_c, 0, 62, 0
2, 28337, Note_on_c, 0, 77, 0
2, 28340, Note_on_c, 0, 68, 0
2, 28344, Note_on_c, 0, 74, 0
2, 28364, Note_on_c, 0, 43, 60
2, 28366, Note_on_c, 0, 75, 60
2, 28366, Note_on_c, 0, 82, 60
2, 28366, Note_on_c, 0, 55, 60
2, 28370, Note_on_c, 0, 79, 60
2, 28370, Note_on_c, 0, 70, 60
2, 28394, Note_on_c, 0, 79, 0
2, 28394, Note_on_c, 0, 82, 0
2, 28394, Note_on_c, 0, 75, 0
2, 28401, Note_on_c, 0, 70, 0
2, 28425, Note_on_c, 0, 75, 60
2, 28456, Note_on_c, 0, 75, 0
2, 28458, Note_on_c, 0, 43, 0
2, 28460, Note_on_c, 0, 55, 0
2, 28485, Note_on_c, 0, 58, 60
2, 28485, Note_on_c, 0, 63, 60
2, 28485, Note_on_c, 0, 55, 60
2, 28488, Note_on_c, 0, 79, 60
2, 28517, Note_on_c, 0, 79, 0
2, 28548, Note_on_c, 0, 75, 60
2, 28548, Note_on_c, 0, 79, 60
2, 28548, Note_on_c, 0, 82, 60
2, 28548, Note_on_c, 0, 70, 60
2, 28575, Note_on_c, 0, 58, 0
2, 28579, Note_on_c, 0, 63, 0
2, 28579, Note_on_c, 0, 55, 0
2, 28604, Note_on_c, 0, 51, 60
2, 28608, Note_on_c, 0, 39, 60
2, 28696, Note_on_c, 0, 39, 0
2, 28696, Note_on_c, 0, 82, 0
2, 28696, Note_on_c, 0, 75, 0
2, 28700, Note_on_c, 0, 70, 0
2, 28700, Note_on_c, 0, 79, 0
2, 28700, Note_on_c, 0, 51, 0
2, 28725, Note_on_c, 0, 75, 60
2, 28727, Note_on_c, 0, 79, 60
2, 28727, Note_on_c, 0, 49, 60
2, 28728, Note_on_c, 0, 83, 60
2, 28728, Note_on_c, 0, 71, 60
2, 28736, Note_on_c, 0, 37, 60
2, 28815, Note_on_c, 0, 37, 0
2, 28815, Note_on_c, 0, 75, 0
2, 28821, Note_on_c, 0, 83, 0
2, 28821, Note_on_c, 0, 79, 0
2, 28821, Note_on_c, 0, 49, 0
2, 28821, Note_on_c, 0, 71, 0
2, 28843, Note_on_c, 0, 36, 60
2, 28846, Note_on_c, 0, 84, 60
2, 28846, Note_on_c, 0, 72, 60
2, 28848, Note_on_c, 0, 76, 60
2, 28848, Note_on_c, 0, 48, 60
2, 28931, Note_on_c, 0, 48, 0
2, 28931, Note_on_c, 0, 36, 0
2, 28935, Note_on_c, 0, 84, 0
2, 28935, Note_on_c, 0, 76, 0
2, 28940, Note_on_c, 0, 72, 0
2, 28960, Note_on_c, 0, 55, 60
2, 28962, Note_on_c, 0, 60, 60
2, 28964, Note_on_c, 0, 64, 60
2, 28964, Note_on_c, 0, 58, 60
2, 28966, Note_on_c, 0, 79, 60
2, 28996, Note_on_c, 0, 79, 0
2, 29025, Note_on_c, 0, 76, 60
2, 29025, Note_on_c, 0, 84, 60
2, 29025, Note_on_c, 0, 72, 60
2, 29052, Note_on_c, 0, 64, 0
2, 29052, Note_on_c, 0, 58, 0
2, 29056, Note_on_c, 0, 55, 0
2, 29056, Note_on_c, 0, 60, 0
2, 29079, Note_on_c, 0, 55, 60
2, 29083, Note_on_c, 0, 43, 60
2, 29113, Note_on_c, 0, 76, 0
2, 29117, Note_on_c, 0, 72, 0
2, 29117, Note_on_c, 0, 84, 0
2, 29148, Note_on_c, 0, 82, 60
2, 29179, Note_on_c, 0, 55, 0
2, 29179, Note_on_c, 0, 43, 0
2, 29206, Note_on_c, 0, 58, 60
2, 29206, Note_on_c, 0, 64, 60
2, 29206, Note_on_c, 0, 55, 60
2, 29208, Note_on_c, 0, 79, 60
2, 29209, Note_on_c, 0, 82, 0
2, 29209, Note_on_c, 0, 60, 60
2, 29269, Note_on_c, 0, 79, 0
2, 29269, Note_on_c, 0, 76, 60
2, 29296, Note_on_c, 0, 58, 0
2, 29296, Note_on_c, 0, 64, 0
2, 29298, Note_on_c, 0, 60, 0
2, 29300, Note_on_c, 0, 55, 0
2, 29325, Note_on_c, 0, 56, 60
2, 29327, Note_on_c, 0, 76, 0
2, 29327, Note_on_c, 0, 44, 60
2, 29328, Note_on_c, 0, 72, 60
2, 29388, Note_on_c, 0, 72, 0
2, 29388, Note_on_c, 0, 77, 60
2, 29417, Note_on_c, 0, 44, 0
2, 29419, Note_on_c, 0, 56, 0
2, 29443, Note_on_c, 0, 60, 60
2, 29443, Note_on_c, 0, 56, 60
2, 29446, Note_on_c, 0, 77, 0
2, 29446, Note_on_c, 0, 80, 60
2, 29448, Note_on_c, 0, 65, 60
2, 29504, Note_on_c, 0, 80, 0
2, 29504, Note_on_c, 0, 77, 60
2, 29504, Note_on_c, 0, 84, 60
2, 29504, Note_on_c, 0, 72, 60
2, 29535, Note_on_c, 0, 65, 0
2, 29538, Note_on_c, 0, 60, 0
2, 29538, Note_on_c, 0, 56, 0
2, 29564, Note_on_c, 0, 56, 60
2, 29564, Note_on_c, 0, 44, 60
2, 29592, Note_on_c, 0, 77, 0
2, 29592, Note_on_c, 0, 84, 0
2, 29596, Note_on_c, 0, 72, 0
2, 29621, Note_on_c, 0, 80, 60
2, 29652, Note_on_c, 0, 44, 0
2, 29654, Note_on_c, 0, 56, 0
2, 29681, Note_on_c, 0, 57, 60
2, 29681, Note_on_c, 0, 45, 60
2, 29683, Note_on_c, 0, 75, 60
2, 29683, Note_on_c, 0, 83, 60
2, 29683, Note_on_c, 0, 71, 60
2, 29685, Note_on_c, 0, 80, 0
2, 29771, Note_on_c, 0, 75, 0
2, 29773, Note_on_c, 0, 45, 0
2, 29775, Note_on_c, 0, 57, 0
2, 29775, Note_on_c, 0, 83, 0
2, 29775, Note_on_c, 0, 71, 0
2, 29798, Note_on_c, 0, 58, 60
2, 29798, Note_on_c, 0, 46, 60
2, 29800, Note_on_c, 0, 82, 60
2, 29800, Note_on_c, 0, 75, 60
2, 29806, Note_on_c, 0, 79, 60
2, 29832, Note_on_c, 0, 79, 0
2, 29859, Note_on_c, 0, 79, 60
2, 29861, Note_on_c, 0, 82, 0
2, 29861, Note_on_c, 0, 75, 0
2, 29885, Note_on_c, 0, 46, 0
2, 29890, Note_on_c, 0, 58, 0
2, 29918, Note_on_c, 0, 63, 60
2, 29918, Note_on_c, 0, 75, 60
2, 29918, Note_on_c, 0, 58, 60
2, 29921, Note_on_c, 0, 79, 0
2, 29921, Note_on_c, 0, 67, 60
2, 29977, Note_on_c, 0, 75, 0
2, 29977, Note_on_c, 0, 70, 60
2, 30004, Note_on_c, 0, 58, 0
2, 30004, Note_on_c, 0, 67, 0
2, 30008, Note_on_c, 0, 63, 0
2, 30033, Note_on_c, 0, 46, 60
2, 30033, Note_on_c, 0, 34, 60
2, 30096, Note_on_c, 0, 70, 0
2, 30096, Note_on_c, 0, 79, 60
2, 30121, Note_on_c, 0, 34, 0
2, 30121, Note_on_c, 0, 46, 0
2, 30149, Note_on_c, 0, 58, 60
2, 30149, Note_on_c, 0, 46, 60
2, 30152, Note_on_c, 0, 74, 60
2, 30152, Note_on_c, 0, 77, 60
2, 30152, Note_on_c, 0, 68, 60
2, 30154, Note_on_c, 0, 79, 0
2, 30236, Note_on_c, 0, 46, 0
2, 30240, Note_on_c, 0, 58, 0
2, 30240, Note_on_c, 0, 77, 0
2, 30244, Note_on_c, 0, 68, 0
2, 30244, Note_on_c, 0, 74, 0
2, 30266, Note_on_c, 0, 51, 60
2, 30270, Note_on_c, 0, 75, 60
2, 30270, Note_on_c, 0, 70, 60
2, 30272, Note_on_c, 0, 67, 60
2, 30272, Note_on_c, 0, 63, 60
2, 30362, Note_on_c, 0, 63, 0
2, 30362, Note_on_c, 0, 51, 0
2, 30389, Note_on_c, 0, 58, 60
2, 30389, Note_on_c, 0, 46, 60
2, 30476, Note_on_c, 0, 46, 0
2, 30480, Note_on_c, 0, 75, 0
2, 30480, Note_on_c, 0, 67, 0
2, 30480, Note_on_c, 0, 58, 0
2, 30483, Note_on_c, 0, 70, 0
2, 30508, Note_on_c, 0, 51, 60
2, 30510, Note_on_c, 0, 75, 60
2, 30510, Note_on_c, 0, 79, 60
2, 30510, Note_on_c, 0, 82, 60
2, 30510, Note_on_c, 0, 87, 60
2, 30510, Note_on_c, 0, 39, 60
2, 30599, Note_on_c, 0, 39, 0
2, 30599, Note_on_c, 0, 87, 0
2, 30600, Note_on_c, 0, 75, 0
2, 30600, Note_on_c, 0, 82, 0
2, 30604, Note_on_c, 0, 79, 0
2, 30604, Note_on_c, 0, 51, 0
2, 30629, Note_on_c, 0, 46, 60
2, 30629, Note_on_c, 0, 34, 60
2, 30720, Note_on_c, 0, 46, 0
2, 30723, Note_on_c, 0, 34, 0
2, 30744, Note_on_c, 0, 39, 60
2, 30758, Note_on_c, 0, 51, 60
2, 30832, Note_on_c, 0, 39, 0
2, 30838, Note_on_c, 0, 51, 0
2, 30859, Note_on_c, 0, 51, 60
2, 30863, Note_on_c, 0, 55, 60
2, 30863, Note_on_c, 0, 63, 60
2, 30863, Note_on_c, 0, 67, 60
2, 30863, Note_on_c, 0, 46, 60
2, 30864, Note_on_c, 0, 75, 60
2, 30948, Note_on_c, 0, 46, 0
2, 30953, Note_on_c, 0, 67, 0
2, 30953, Note_on_c, 0, 55, 0
2, 30953, Note_on_c, 0, 51, 0
2, 30953, Note_on_c, 0, 75, 0
2, 30957, Note_on_c, 0, 63, 0
2, 30977, Note_on_c, 0, 58, 60
2, 30977, Note_on_c, 0, 67, 60
2, 30977, Note_on_c, 0, 46, 60
2, 30982, Note_on_c, 0, 74, 60
2, 30984, Note_on_c, 0, 62, 60
2, 31038, Note_on_c, 0, 70, 60
2, 31045, Note_on_c, 0, 74, 0
2, 31065, Note_on_c, 0, 46, 0
2, 31067, Note_on_c, 0, 62, 0
2, 31069, Note_on_c, 0, 58, 0
2, 31069, Note_on_c, 0, 67, 0
2, 31098, Note_on_c, 0, 56, 60
2, 31098, Note_on_c, 0, 62, 60
2, 31098, Note_on_c, 0, 65, 60
2, 31098, Note_on_c, 0, 44, 60
2, 31155, Note_on_c, 0, 72, 60
2, 31159, Note_on_c, 0, 70, 0
2, 31184, Note_on_c, 0, 44, 0
2, 31184, Note_on_c, 0, 65, 0
2, 31184, Note_on_c, 0, 62, 0
2, 31188, Note_on_c, 0, 56, 0
2, 31188, Note_on_c, 0, 72, 0
2, 31213, Note_on_c, 0, 55, 60
2, 31217, Note_on_c, 0, 70, 60
2, 31219, Note_on_c, 0, 58, 60
2, 31219, Note_on_c, 0, 63, 60
2, 31219, Note_on_c, 0, 43, 60
2, 31284, Note_on_c, 0, 70, 0
2, 31284, Note_on_c, 0, 67, 60
2, 31307, Note_on_c, 0, 58, 0
2, 31311, Note_on_c, 0, 43, 0
2, 31311, Note_on_c, 0, 55, 0
2, 31315, Note_on_c, 0, 63, 0
2, 31340, Note_on_c, 0, 46, 60
2, 31340, Note_on_c, 0, 56, 60
2, 31340, Note_on_c, 0, 62, 60
2, 31340, Note_on_c, 0, 68, 60
2, 31340, Note_on_c, 0, 34, 60
2, 31342, Note_on_c, 0, 67, 0
2, 31399, Note_on_c, 0, 65, 60
2, 31405, Note_on_c, 0, 68, 0
2, 31428, Note_on_c, 0, 62, 0
2, 31428, Note_on_c, 0, 34, 0
2, 31432, Note_on_c, 0, 46, 0
2, 31432, Note_on_c, 0, 56, 0
2, 31459, Note_on_c, 0, 55, 60
2, 31459, Note_on_c, 0, 51, 60
2, 31461, Note_on_c, 0, 65, 0
2, 31463, Note_on_c, 0, 58, 60
2, 31463, Note_on_c, 0, 63, 60
2, 31463, Note_on_c, 0, 39, 60
2, 31551, Note_on_c, 0, 39, 0
2, 31557, Note_on_c, 0, 51, 0
2, 31584, Note_on_c, 0, 46, 60
2, 31584, Note_on_c, 0, 34, 60
2, 31676, Note_on_c, 0, 46, 0
2, 31680, Note_on_c, 0, 34, 0
2, 31706, Note_on_c, 0, 51, 60
2, 31710, Note_on_c, 0, 39, 60
2, 31792, Note_on_c, 0, 39, 0
2, 31797, Note_on_c, 0, 58, 0
2, 31799, Note_on_c, 0, 55, 0
2, 31799, Note_on_c, 0, 51, 0
2, 31800, Note_on_c, 0, 63, 0
2, 31821, Note_on_c, 0, 51, 60
2, 31825, Note_on_c, 0, 55, 60
2, 31825, Note_on_c, 0, 46, 60
2, 31829, Note_on_c, 0, 63, 60
2, 31887, Note_on_c, 0, 65, 60
2, 31893, Note_on_c, 0, 63, 0
2, 31911, Note_on_c, 0, 46, 0
2, 31915, Note_on_c, 0, 51, 0
2, 31920, Note_on_c, 0, 55, 0
2, 31942, Note_on_c, 0, 51, 60
2, 31944, Note_on_c, 0, 58, 60
2, 31944, Note_on_c, 0, 55, 60
2, 31945, Note_on_c, 0, 65, 0
2, 31945, Note_on_c, 0, 67, 60
2, 32003, Note_on_c, 0, 67, 0
2, 32003, Note_on_c, 0, 65, 60
2, 32063, Note_on_c, 0, 63, 60
2, 32064, Note_on_c, 0, 65, 0
2, 32126, Note_on_c, 0, 70, 60
2, 32128, Note_on_c, 0, 63, 0
2, 32149, Note_on_c, 0, 58, 0
2, 32153, Note_on_c, 0, 51, 0
2, 32157, Note_on_c, 0, 55, 0
2, 32182, Note_on_c, 0, 55, 60
2, 32184, Note_on_c, 0, 43, 60
2, 32298, Note_on_c, 0, 58, 60
2, 32303, Note_on_c, 0, 67, 60
2, 32303, Note_on_c, 0, 63, 60
2, 32384, Note_on_c, 0, 67, 0
2, 32384, Note_on_c, 0, 58, 0
2, 32413, Note_on_c, 0, 58, 60
2, 32419, Note_on_c, 0, 67, 60
2, 32448, Note_on_c, 0, 70, 0
2, 32476, Note_on_c, 0, 71, 60
2, 32565, Note_on_c, 0, 58, 0
2, 32567, Note_on_c, 0, 67, 0
2, 32568, Note_on_c, 0, 63, 0
2, 32589, Note_on_c, 0, 59, 60
2, 32593, Note_on_c, 0, 67, 60
2, 32593, Note_on_c, 0, 63, 60
2, 32617, Note_on_c, 0, 43, 0
2, 32621, Note_on_c, 0, 67, 0
2, 32621, Note_on_c, 0, 59, 0
2, 32621, Note_on_c, 0, 55, 0
2, 32626, Note_on_c, 0, 63, 0
2, 32626, Note_on_c, 0, 71, 0
2, 32640, Note_on_c, 0, 44, 60
2, 32642, Note_on_c, 0, 56, 60
2, 32648, Note_on_c, 0, 68, 60
2, 32648, Note_on_c, 0, 60, 60
2, 32652, Note_on_c, 0, 72, 60
2, 32728, Note_on_c, 0, 44, 0
2, 32738, Note_on_c, 0, 60, 0
2, 32738, Note_on_c, 0, 56, 0
2, 32740, Note_on_c, 0, 68, 0
2, 32742, Note_on_c, 0, 72, 0
2, 32759, Note_on_c, 0, 44, 60
2, 32765, Note_on_c, 0, 60, 60
2, 32765, Note_on_c, 0, 56, 60
2, 32769, Note_on_c, 0, 72, 60
2, 32769, Note_on_c, 0, 68, 60
2, 32800, Note_on_c, 0, 60, 0
2, 32829, Note_on_c, 0, 63, 60
2, 32851, Note_on_c, 0, 44, 0
2, 32857, Note_on_c, 0, 56, 0
2, 32859, Note_on_c, 0, 63, 0
2, 32859, Note_on_c, 0, 68, 0
2, 32863, Note_on_c, 0, 72, 0
2, 32881, Note_on_c, 0, 43, 60
2, 32883, Note_on_c, 0, 58, 60
2, 32883, Note_on_c, 0, 63, 60
2, 32883, Note_on_c, 0, 55, 60
2, 32888, Note_on_c, 0, 70, 60
2, 32921, Note_on_c, 0, 70, 0
2, 32943, Note_on_c, 0, 67, 60
2, 32970, Note_on_c, 0, 43, 0
2, 32972, Note_on_c, 0, 55, 0
2, 32995, Note_on_c, 0, 43, 60
2, 32997, Note_on_c, 0, 55, 60
2, 33031, Note_on_c, 0, 67, 0
2, 33060, Note_on_c, 0, 70, 60
2, 33085, Note_on_c, 0, 58, 0
2, 33087, Note_on_c, 0, 43, 0
2, 33089, Note_on_c, 0, 55, 0
2, 33093, Note_on_c, 0, 63, 0
2, 33093, Note_on_c, 0, 70, 0
2, 33113, Note_on_c, 0, 44, 60
2, 33116, Note_on_c, 0, 60, 60
2, 33116, Note_on_c, 0, 56, 60
2, 33120, Note_on_c, 0, 72, 60
2, 33121, Note_on_c, 0, 68, 60
2, 33201, Note_on_c, 0, 44, 0
2, 33208, Note_on_c, 0, 60, 0
2, 33208, Note_on_c, 0, 56, 0
2, 33210, Note_on_c, 0, 72, 0
2, 33210, Note_on_c, 0, 68, 0
2, 33232, Note_on_c, 0, 56, 60
2, 33232, Note_on_c, 0, 44, 60
2, 33234, Note_on_c, 0, 60, 60
2, 33239, Note_on_c, 0, 72, 60
2, 33239, Note_on_c, 0, 68, 60
2, 33266, Note_on_c, 0, 60, 0
2, 33295, Note_on_c, 0, 63, 60
2, 33322, Note_on_c, 0, 44, 0
2, 33326, Note_on_c, 0, 56, 0
2, 33331, Note_on_c, 0, 72, 0
2, 33331, Note_on_c, 0, 68, 0
2, 33331, Note_on_c, 0, 63, 0
2, 33351, Note_on_c, 0, 55, 60
2, 33351, Note_on_c, 0, 43, 60
2, 33353, Note_on_c, 0, 63, 60
2, 33353, Note_on_c, 0, 58, 60
2, 33359, Note_on_c, 0, 70, 60
2, 33443, Note_on_c, 0, 58, 0
2, 33447, Note_on_c, 0, 43, 0
2, 33449, Note_on_c, 0, 55, 0
2, 33454, Note_on_c, 0, 70, 0
2, 33456, Note_on_c, 0, 63, 0
2, 33470, Note_on_c, 0, 42, 60
2, 33474, Note_on_c, 0, 54, 60
2, 33478, Note_on_c, 0, 63, 60
2, 33478, Note_on_c, 0, 60, 60
2, 33481, Note_on_c, 0, 72, 60
2, 33564, Note_on_c, 0, 42, 0
2, 33566, Note_on_c, 0, 54, 0
2, 33568, Note_on_c, 0, 63, 0
2, 33570, Note_on_c, 0, 60, 0
2, 33572, Note_on_c, 0, 72, 0
2, 33588, Note_on_c, 0, 53, 60
2, 33588, Note_on_c, 0, 41, 60
2, 33590, Note_on_c, 0, 65, 60
2, 33595, Note_on_c, 0, 74, 60
2, 33595, Note_on_c, 0, 70, 60
2, 33599, Note_on_c, 0, 62, 60
2, 33672, Note_on_c, 0, 41, 0
2, 33685, Note_on_c, 0, 65, 0
2, 33685, Note_on_c, 0, 53, 0
2, 33685, Note_on_c, 0, 62, 0
2, 33689, Note_on_c, 0, 74, 0
2, 33689, Note_on_c, 0, 70, 0
2, 33709, Note_on_c, 0, 50, 60
2, 33709, Note_on_c, 0, 38, 60
2, 33711, Note_on_c, 0, 62, 60
2, 33713, Note_on_c, 0, 65, 60
2, 33716, Note_on_c, 0, 70, 60
2, 33718, Note_on_c, 0, 74, 60
2, 33793, Note_on_c, 0, 38, 0
2, 33799, Note_on_c, 0, 62, 0
2, 33801, Note_on_c, 0, 50, 0
2, 33803, Note_on_c, 0, 65, 0
2, 33808, Note_on_c, 0, 74, 0
2, 33808, Note_on_c, 0, 70, 0
2, 33822, Note_on_c, 0, 36, 60
2, 33830, Note_on_c, 0, 48, 60
2, 33832, Note_on_c, 0, 67, 60
2, 33832, Note_on_c, 0, 64, 60
2, 33836, Note_on_c, 0, 74, 60
2, 33871, Note_on_c, 0, 74, 0
2, 33895, Note_on_c, 0, 70, 60
2, 33914, Note_on_c, 0, 36, 0
2, 33916, Note_on_c, 0, 48, 0
2, 33924, Note_on_c, 0, 67, 0
2, 33926, Note_on_c, 0, 64, 0
2, 33931, Note_on_c, 0, 70, 0
2, 33940, Note_on_c, 0, 29, 60
2, 33949, Note_on_c, 0, 41, 60
2, 33957, Note_on_c, 0, 65, 60
2, 33957, Note_on_c, 0, 63, 60
2, 33959, Note_on_c, 0, 72, 60
2, 33961, Note_on_c, 0, 69, 60
2, 33987, Note_on_c, 0, 63, 0
2, 33987, Note_on_c, 0, 65, 0
2, 33992, Note_on_c, 0, 72, 0
2, 33992, Note_on_c, 0, 69, 0
2, 34014, Note_on_c, 0, 65, 60
2, 34016, Note_on_c, 0, 70, 60
2, 34016, Note_on_c, 0, 62, 60
2, 34032, Note_on_c, 0, 29, 0
2, 34037, Note_on_c, 0, 41, 0
2, 34072, Note_on_c, 0, 34, 60
2, 34074, Note_on_c, 0, 46, 60
2, 34162, Note_on_c, 0, 46, 0
2, 34162, Note_on_c, 0, 34, 0
2, 34186, Note_on_c, 0, 32, 60
2, 34191, Note_on_c, 0, 44, 60
2, 34276, Note_on_c, 0, 32, 0
2, 34285, Note_on_c, 0, 44, 0
2, 34309, Note_on_c, 0, 31, 60
2, 34316, Note_on_c, 0, 43, 60
2, 34397, Note_on_c, 0, 31, 0
2, 34406, Note_on_c, 0, 43, 0
2, 34410, Note_on_c, 0, 65, 0
2, 34426, Note_on_c, 0, 29, 60
2, 34428, Note_on_c, 0, 41, 60
2, 34430, Note_on_c, 0, 65, 60
2, 34432, Note_on_c, 0, 68, 60
2, 34508, Note_on_c, 0, 65, 0
2, 34508, Note_on_c, 0, 41, 0
2, 34508, Note_on_c, 0, 29, 0
2, 34510, Note_on_c, 0, 62, 0
2, 34512, Note_on_c, 0, 70, 0
2, 34512, Note_on_c, 0, 68, 0
2, 34533, Note_on_c, 0, 39, 60
2, 34533, Note_on_c, 0, 27, 60
2, 34623, Note_on_c, 0, 39, 0
2, 34625, Note_on_c, 0, 27, 0
2, 34652, Note_on_c, 0, 51, 60
2, 34656, Note_on_c, 0, 46, 60
2, 34657, Note_on_c, 0, 75, 60
2, 34657, Note_on_c, 0, 55, 60
2, 34659, Note_on_c, 0, 67, 60
2, 34659, Note_on_c, 0, 63, 60
2, 34741, Note_on_c, 0, 46, 0
2, 34746, Note_on_c, 0, 67, 0
2, 34746, Note_on_c, 0, 55, 0
2, 34746, Note_on_c, 0, 51, 0
2, 34748, Note_on_c, 0, 75, 0
2, 34750, Note_on_c, 0, 63, 0
2, 34770, Note_on_c, 0, 46, 60
2, 34772, Note_on_c, 0, 67, 60
2, 34772, Note_on_c, 0, 74, 60
2, 34772, Note_on_c, 0, 58, 60
2, 34776, Note_on_c, 0, 62, 60
2, 34833, Note_on_c, 0, 70, 60
2, 34838, Note_on_c, 0, 74, 0
2, 34860, Note_on_c, 0, 62, 0
2, 34860, Note_on_c, 0, 58, 0
2, 34860, Note_on_c, 0, 46, 0
2, 34860, Note_on_c, 0, 67, 0
2, 34887, Note_on_c, 0, 62, 60
2, 34887, Note_on_c, 0, 65, 60
2, 34887, Note_on_c, 0, 56, 60
2, 34889, Note_on_c, 0, 44, 60
2, 34959, Note_on_c, 0, 70, 0
2, 34959, Note_on_c, 0, 72, 60
2, 34981, Note_on_c, 0, 44, 0
2, 34985, Note_on_c, 0, 62, 0
2, 34985, Note_on_c, 0, 65, 0
2, 34987, Note_on_c, 0, 56, 0
2, 35014, Note_on_c, 0, 55, 60
2, 35014, Note_on_c, 0, 58, 60
2, 35014, Note_on_c, 0, 63, 60
2, 35014, Note_on_c, 0, 43, 60
2, 35017, Note_on_c, 0, 70, 60
2, 35020, Note_on_c, 0, 72, 0
2, 35079, Note_on_c, 0, 70, 0
2, 35079, Note_on_c, 0, 67, 60
2, 35104, Note_on_c, 0, 58, 0
2, 35106, Note_on_c, 0, 55, 0
2, 35108, Note_on_c, 0, 63, 0
2, 35108, Note_on_c, 0, 43, 0
2, 35131, Note_on_c, 0, 56, 60
2, 35133, Note_on_c, 0, 46, 60
2, 35133, Note_on_c, 0, 34, 60
2, 35135, Note_on_c, 0, 62, 60
2, 35136, Note_on_c, 0, 68, 60
2, 35138, Note_on_c, 0, 67, 0
2, 35194, Note_on_c, 0, 65, 60
2, 35200, Note_on_c, 0, 68, 0
2, 35227, Note_on_c, 0, 62, 0
2, 35227, Note_on_c, 0, 34, 0
2, 35227, Note_on_c, 0, 46, 0
2, 35229, Note_on_c, 0, 56, 0
2, 35256, Note_on_c, 0, 51, 60
2, 35256, Note_on_c, 0, 55, 60
2, 35256, Note_on_c, 0, 39, 60
2, 35259, Note_on_c, 0, 63, 60
2, 35259, Note_on_c, 0, 58, 60
2, 35261, Note_on_c, 0, 65, 0
2, 35341, Note_on_c, 0, 39, 0
2, 35350, Note_on_c, 0, 51, 0
2, 35372, Note_on_c, 0, 46, 60
2, 35372, Note_on_c, 0, 34, 60
2, 35458, Note_on_c, 0, 34, 0
2, 35458, Note_on_c, 0, 46, 0
2, 35483, Note_on_c, 0, 51, 60
2, 35487, Note_on_c, 0, 39, 60
2, 35573, Note_on_c, 0, 39, 0
2, 35575, Note_on_c, 0, 58, 0
2, 35579, Note_on_c, 0, 63, 0
2, 35579, Note_on_c, 0, 55, 0
2, 35579, Note_on_c, 0, 51, 0
2, 35599, Note_on_c, 0, 51, 60
2, 35601, Note_on_c, 0, 55, 60
2, 35604, Note_on_c, 0, 63, 60
2, 35604, Note_on_c, 0, 46, 60
2, 35663, Note_on_c, 0, 65, 60
2, 35667, Note_on_c, 0, 63, 0
2, 35691, Note_on_c, 0, 46, 0
2, 35691, Note_on_c, 0, 51, 0
2, 35691, Note_on_c, 0, 55, 0
2, 35714, Note_on_c, 0, 51, 60
2, 35718, Note_on_c, 0, 55, 60
2, 35720, Note_on_c, 0, 67, 60
2, 35720, Note_on_c, 0, 58, 60
2, 35722, Note_on_c, 0, 65, 0
2, 35778, Note_on_c, 0, 65, 60
2, 35780, Note_on_c, 0, 67, 0
2, 35837, Note_on_c, 0, 65, 0
2, 35841, Note_on_c, 0, 63, 60
2, 35899, Note_on_c, 0, 70, 60
2, 35906, Note_on_c, 0, 63, 0
2, 35928, Note_on_c, 0, 58, 0
2, 35929, Note_on_c, 0, 51, 0
2, 35933, Note_on_c, 0, 55, 0
2, 35960, Note_on_c, 0, 55, 60
2, 35960, Note_on_c, 0, 43, 60
2, 36081, Note_on_c, 0, 58, 60
2, 36083, Note_on_c, 0, 63, 60
2, 36085, Note_on_c, 0, 67, 60
2, 36175, Note_on_c, 0, 58, 0
2, 36177, Note_on_c, 0, 67, 0
2, 36179, Note_on_c, 0, 63, 0
2, 36204, Note_on_c, 0, 58, 60
2, 36206, Note_on_c, 0, 67, 60
2, 36206, Note_on_c, 0, 63, 60
2, 36300, Note_on_c, 0, 70, 0
2, 36327, Note_on_c, 0, 71, 60
2, 36358, Note_on_c, 0, 67, 0
2, 36358, Note_on_c, 0, 58, 0
2, 36361, Note_on_c, 0, 63, 0
2, 36385, Note_on_c, 0, 67, 60
2, 36385, Note_on_c, 0, 63, 60
2, 36388, Note_on_c, 0, 59, 60
2, 36419, Note_on_c, 0, 67, 0
2, 36421, Note_on_c, 0, 43, 0
2, 36421, Note_on_c, 0, 55, 0
2, 36421, Note_on_c, 0, 71, 0
2, 36421, Note_on_c, 0, 59, 0
2, 36421, Note_on_c, 0, 63, 0
2, 36452, Note_on_c, 0, 56, 60
2, 36454, Note_on_c, 0, 72, 60
2, 36456, Note_on_c, 0, 60, 60
2, 36456, Note_on_c, 0, 68, 60
2, 36456, Note_on_c, 0, 44, 60
2, 36546, Note_on_c, 0, 44, 0
2, 36548, Note_on_c, 0, 60, 0
2, 36548, Note_on_c, 0, 56, 0
2, 36550, Note_on_c, 0, 72, 0
2, 36550, Note_on_c, 0, 68, 0
2, 36573, Note_on_c, 0, 44, 60
2, 36575, Note_on_c, 0, 60, 60
2, 36575, Note_on_c, 0, 56, 60
2, 36576, Note_on_c, 0, 68, 60
2, 36578, Note_on_c, 0, 72, 60
2, 36609, Note_on_c, 0, 60, 0
2, 36634, Note_on_c, 0, 63, 60
2, 36662, Note_on_c, 0, 44, 0
2, 36665, Note_on_c, 0, 72, 0
2, 36665, Note_on_c, 0, 56, 0
2, 36667, Note_on_c, 0, 68, 0
2, 36667, Note_on_c, 0, 63, 0
2, 36691, Note_on_c, 0, 55, 60
2, 36691, Note_on_c, 0, 58, 60
2, 36691, Note_on_c, 0, 63, 60
2, 36691, Note_on_c, 0, 43, 60
2, 36693, Note_on_c, 0, 70, 60
2, 36723, Note_on_c, 0, 70, 0
2, 36748, Note_on_c, 0, 67, 60
2, 36779, Note_on_c, 0, 43, 0
2, 36781, Note_on_c, 0, 55, 0
2, 36806, Note_on_c, 0, 55, 60
2, 36806, Note_on_c, 0, 43, 60
2, 36839, Note_on_c, 0, 67, 0
2, 36867, Note_on_c, 0, 70, 60
2, 36894, Note_on_c, 0, 58, 0
2, 36896, Note_on_c, 0, 43, 0
2, 36896, Note_on_c, 0, 55, 0
2, 36898, Note_on_c, 0, 63, 0
2, 36900, Note_on_c, 0, 70, 0
2, 36920, Note_on_c, 0, 56, 60
2, 36920, Note_on_c, 0, 44, 60
2, 36925, Note_on_c, 0, 68, 60
2, 36925, Note_on_c, 0, 72, 60
2, 36925, Note_on_c, 0, 60, 60
2, 37012, Note_on_c, 0, 44, 0
2, 37014, Note_on_c, 0, 56, 0
2, 37017, Note_on_c, 0, 72, 0
2, 37017, Note_on_c, 0, 68, 0
2, 37017, Note_on_c, 0, 60, 0
2, 37037, Note_on_c, 0, 44, 60
2, 37039, Note_on_c, 0, 60, 60
2, 37039, Note_on_c, 0, 56, 60
2, 37043, Note_on_c, 0, 72, 60
2, 37045, Note_on_c, 0, 68, 60
2, 37074, Note_on_c, 0, 60, 0
2, 37104, Note_on_c, 0, 63, 60
2, 37131, Note_on_c, 0, 44, 0
2, 37135, Note_on_c, 0, 68, 0
2, 37135, Note_on_c, 0, 72, 0
2, 37135, Note_on_c, 0, 56, 0
2, 37135, Note_on_c, 0, 63, 0
2, 37162, Note_on_c, 0, 55, 60
2, 37164, Note_on_c, 0, 58, 60
2, 37164, Note_on_c, 0, 63, 60
2, 37164, Note_on_c, 0, 43, 60
2, 37166, Note_on_c, 0, 70, 60
2, 37252, Note_on_c, 0, 58, 0
2, 37254, Note_on_c, 0, 43, 0
2, 37254, Note_on_c, 0, 55, 0
2, 37256, Note_on_c, 0, 63, 0
2, 37256, Note_on_c, 0, 70, 0
2, 37279, Note_on_c, 0, 56, 60
2, 37281, Note_on_c, 0, 34, 60
2, 37283, Note_on_c, 0, 62, 60
2, 37283, Note_on_c, 0, 46, 60
2, 37285, Note_on_c, 0, 67, 60
2, 37316, Note_on_c, 0, 67, 0
2, 37343, Note_on_c, 0, 65, 60
2, 37371, Note_on_c, 0, 62, 0
2, 37373, Note_on_c, 0, 46, 0
2, 37373, Note_on_c, 0, 34, 0
2, 37375, Note_on_c, 0, 65, 0
2, 37377, Note_on_c, 0, 56, 0
2, 37399, Note_on_c, 0, 51, 60
2, 37404, Note_on_c, 0, 55, 60
2, 37404, Note_on_c, 0, 58, 60
2, 37404, Note_on_c, 0, 63, 60
2, 37404, Note_on_c, 0, 39, 60
2, 37465, Note_on_c, 0, 65, 60
2, 37467, Note_on_c, 0, 63, 0
2, 37525, Note_on_c, 0, 65, 0
2, 37527, Note_on_c, 0, 67, 60
2, 37553, Note_on_c, 0, 67, 0
2, 37553, Note_on_c, 0, 58, 0
2, 37558, Note_on_c, 0, 55, 0
2, 37580, Note_on_c, 0, 39, 0
2, 37582, Note_on_c, 0, 58, 60
2, 37582, Note_on_c, 0, 67, 60
2, 37582, Note_on_c, 0, 55, 60
2, 37584, Note_on_c, 0, 43, 60
2, 37586, Note_on_c, 0, 70, 60
2, 37586, Note_on_c, 0, 63, 60
2, 37588, Note_on_c, 0, 51, 0
2, 37674, Note_on_c, 0, 70, 0
2, 37674, Note_on_c, 0, 67, 0
2, 37703, Note_on_c, 0, 67, 60
2, 37729, Note_on_c, 0, 58, 0
2, 37735, Note_on_c, 0, 63, 0
2, 37760, Note_on_c, 0, 56, 60
2, 37760, Note_on_c, 0, 65, 60
2, 37760, Note_on_c, 0, 46, 60
2, 37762, Note_on_c, 0, 55, 0
2, 37762, Note_on_c, 0, 67, 0
2, 37762, Note_on_c, 0, 43, 0
2, 37764, Note_on_c, 0, 62, 60
2, 37820, Note_on_c, 0, 65, 0
2, 37822, Note_on_c, 0, 67, 60
2, 37847, Note_on_c, 0, 62, 0
2, 37848, Note_on_c, 0, 67, 0
2, 37850, Note_on_c, 0, 46, 0
2, 37850, Note_on_c, 0, 56, 0
2, 37877, Note_on_c, 0, 51, 60
2, 37879, Note_on_c, 0, 58, 60
2, 37879, Note_on_c, 0, 63, 60
2, 37879, Note_on_c, 0, 55, 60
2, 37995, Note_on_c, 0, 46, 60
2, 38086, Note_on_c, 0, 51, 0
2, 38111, Note_on_c, 0, 51, 60
2, 38111, Note_on_c, 0, 39, 60
2, 38114, Note_on_c, 0, 46, 0
2, 38196, Note_on_c, 0, 39, 0
2, 38198, Note_on_c, 0, 58, 0
2, 38203, Note_on_c, 0, 55, 0
2, 38203, Note_on_c, 0, 63, 0
2, 38203, Note_on_c, 0, 51, 0
2, 38223, Note_on_c, 0, 51, 60
2, 38227, Note_on_c, 0, 39, 60
2, 38317, Note_on_c, 0, 39, 0
2, 38319, Note_on_c, 0, 51, 0
2, 38342, Note_on_c, 0, 44, 60
2, 38346, Note_on_c, 0, 56, 60
2, 38434, Note_on_c, 0, 44, 0
2, 38461, Note_on_c, 0, 51, 60
2, 38463, Note_on_c, 0, 60, 60
2, 38465, Note_on_c, 0, 75, 60
2, 38465, Note_on_c, 0, 72, 60
2, 38467, Note_on_c, 0, 68, 60
2, 38467, Note_on_c, 0, 63, 60
2, 38497, Note_on_c, 0, 63, 0
2, 38497, Note_on_c, 0, 72, 0
2, 38497, Note_on_c, 0, 75, 0
2, 38497, Note_on_c, 0, 68, 0
2, 38520, Note_on_c, 0, 68, 60
2, 38520, Note_on_c, 0, 65, 60
2, 38524, Note_on_c, 0, 77, 60
2, 38524, Note_on_c, 0, 72, 60
2, 38550, Note_on_c, 0, 51, 0
2, 38555, Note_on_c, 0, 56, 0
2, 38555, Note_on_c, 0, 60, 0
2, 38575, Note_on_c, 0, 51, 60
2, 38577, Note_on_c, 0, 39, 60
2, 38612, Note_on_c, 0, 65, 0
2, 38612, Note_on_c, 0, 77, 0
2, 38616, Note_on_c, 0, 72, 0
2, 38616, Note_on_c, 0, 68, 0
2, 38645, Note_on_c, 0, 75, 60
2, 38671, Note_on_c, 0, 39, 0
2, 38680, Note_on_c, 0, 75, 0
2, 38680, Note_on_c, 0, 51, 0
2, 38702, Note_on_c, 0, 51, 60
2, 38704, Note_on_c, 0, 60, 60
2, 38704, Note_on_c, 0, 56, 60
2, 38707, Note_on_c, 0, 63, 60
2, 38709, Note_on_c, 0, 72, 60
2, 38709, Note_on_c, 0, 68, 60
2, 38803, Note_on_c, 0, 56, 0
2, 38803, Note_on_c, 0, 51, 0
2, 38803, Note_on_c, 0, 60, 0
2, 38807, Note_on_c, 0, 63, 0
2, 38807, Note_on_c, 0, 72, 0
2, 38807, Note_on_c, 0, 68, 0
2, 38830, Note_on_c, 0, 56, 60
2, 38832, Note_on_c, 0, 63, 60
2, 38832, Note_on_c, 0, 44, 60
2, 38835, Note_on_c, 0, 72, 60
2, 38835, Note_on_c, 0, 68, 60
2, 38866, Note_on_c, 0, 72, 0
2, 38893, Note_on_c, 0, 75, 60
2, 38919, Note_on_c, 0, 44, 0
2, 38924, Note_on_c, 0, 75, 0
2, 38924, Note_on_c, 0, 56, 0
2, 38928, Note_on_c, 0, 63, 0
2, 38928, Note_on_c, 0, 68, 0
2, 38950, Note_on_c, 0, 56, 60
2, 38950, Note_on_c, 0, 44, 60
2, 38954, Note_on_c, 0, 68, 60
2, 38954, Note_on_c, 0, 63, 60
2, 38956, Note_on_c, 0, 72, 60
2, 38980, Note_on_c, 0, 44, 0
2, 38985, Note_on_c, 0, 56, 0
2, 38989, Note_on_c, 0, 63, 0
2, 38989, Note_on_c, 0, 68, 0
2, 38989, Note_on_c, 0, 72, 0
2, 39011, Note_on_c, 0, 39, 60
2, 39016, Note_on_c, 0, 67, 60
2, 39016, Note_on_c, 0, 70, 60
2, 39016, Note_on_c, 0, 61, 60
2, 39027, Note_on_c, 0, 51, 60
2, 39103, Note_on_c, 0, 70, 0
2, 39132, Note_on_c, 0, 72, 60
2, 39159, Note_on_c, 0, 39, 0
2, 39161, Note_on_c, 0, 61, 0
2, 39163, Note_on_c, 0, 67, 0
2, 39165, Note_on_c, 0, 51, 0
2, 39165, Note_on_c, 0, 72, 0
2, 39188, Note_on_c, 0, 40, 60
2, 39192, Note_on_c, 0, 67, 60
2, 39192, Note_on_c, 0, 61, 60
2, 39193, Note_on_c, 0, 70, 60
2, 39195, Note_on_c, 0, 52, 60
2, 39278, Note_on_c, 0, 67, 0
2, 39278, Note_on_c, 0, 40, 0
2, 39282, Note_on_c, 0, 70, 0
2, 39282, Note_on_c, 0, 61, 0
2, 39282, Note_on_c, 0, 52, 0
2, 39304, Note_on_c, 0, 41, 60
2, 39307, Note_on_c, 0, 68, 60
2, 39307, Note_on_c, 0, 60, 60
2, 39309, Note_on_c, 0, 53, 60
2, 39312, Note_on_c, 0, 65, 60
2, 39392, Note_on_c, 0, 41, 0
2, 39396, Note_on_c, 0, 53, 0
2, 39396, Note_on_c, 0, 65, 0
2, 39399, Note_on_c, 0, 60, 0
2, 39401, Note_on_c, 0, 68, 0
2, 39423, Note_on_c, 0, 60, 60
2, 39423, Note_on_c, 0, 56, 60
2, 39425, Note_on_c, 0, 65, 60
2, 39425, Note_on_c, 0, 53, 60
2, 39427, Note_on_c, 0, 72, 60
2, 39430, Note_on_c, 0, 68, 60
2, 39430, Note_on_c, 0, 48, 60
2, 39457, Note_on_c, 0, 68, 0
2, 39457, Note_on_c, 0, 65, 0
2, 39457, Note_on_c, 0, 60, 0
2, 39457, Note_on_c, 0, 72, 0
2, 39484, Note_on_c, 0, 65, 60
2, 39484, Note_on_c, 0, 68, 60
2, 39484, Note_on_c, 0, 73, 60
2, 39484, Note_on_c, 0, 61, 60
2, 39511, Note_on_c, 0, 48, 0
2, 39515, Note_on_c, 0, 56, 0
2, 39515, Note_on_c, 0, 53, 0
2, 39542, Note_on_c, 0, 48, 60
2, 39542, Note_on_c, 0, 36, 60
2, 39576, Note_on_c, 0, 61, 0
2, 39576, Note_on_c, 0, 65, 0
2, 39576, Note_on_c, 0, 73, 0
2, 39580, Note_on_c, 0, 68, 0
2, 39605, Note_on_c, 0, 72, 60
2, 39632, Note_on_c, 0, 48, 0
2, 39632, Note_on_c, 0, 36, 0
2, 39642, Note_on_c, 0, 72, 0
2, 39661, Note_on_c, 0, 56, 60
2, 39663, Note_on_c, 0, 53, 60
2, 39663, Note_on_c, 0, 48, 60
2, 39665, Note_on_c, 0, 60, 60
2, 39667, Note_on_c, 0, 68, 60
2, 39667, Note_on_c, 0, 65, 60
2, 39748, Note_on_c, 0, 48, 0
2, 39753, Note_on_c, 0, 65, 0
2, 39757, Note_on_c, 0, 60, 0
2, 39757, Note_on_c, 0, 56, 0
2, 39759, Note_on_c, 0, 53, 0
2, 39759, Note_on_c, 0, 68, 0
2, 39784, Note_on_c, 0, 53, 60
2, 39784, Note_on_c, 0, 60, 60
2, 39784, Note_on_c, 0, 41, 60
2, 39788, Note_on_c, 0, 68, 60
2, 39788, Note_on_c, 0, 65, 60
2, 39822, Note_on_c, 0, 68, 0
2, 39849, Note_on_c, 0, 72, 60
2, 39874, Note_on_c, 0, 41, 0
2, 39880, Note_on_c, 0, 60, 0
2, 39882, Note_on_c, 0, 53, 0
2, 39882, Note_on_c, 0, 65, 0
2, 39882, Note_on_c, 0, 72, 0
2, 39907, Note_on_c, 0, 41, 60
2, 39909, Note_on_c, 0, 53, 60
2, 39911, Note_on_c, 0, 65, 60
2, 39911, Note_on_c, 0, 68, 60
2, 39911, Note_on_c, 0, 60, 60
2, 39936, Note_on_c, 0, 41, 0
2, 39939, Note_on_c, 0, 53, 0
2, 39939, Note_on_c, 0, 65, 0
2, 39943, Note_on_c, 0, 68, 0
2, 39943, Note_on_c, 0, 60, 0
2, 39968, Note_on_c, 0, 48, 60
2, 39968, Note_on_c, 0, 58, 60
2, 39968, Note_on_c, 0, 64, 60
2, 39968, Note_on_c, 0, 36, 60
2, 39972, Note_on_c, 0, 67, 60
2, 40060, Note_on_c, 0, 67, 0
2, 40091, Note_on_c, 0, 68, 60
2, 40115, Note_on_c, 0, 58, 0
2, 40115, Note_on_c, 0, 36, 0
2, 40115, Note_on_c, 0, 48, 0
2, 40120, Note_on_c, 0, 64, 0
2, 40122, Note_on_c, 0, 68, 0
2, 40144, Note_on_c, 0, 48, 60
2, 40144, Note_on_c, 0, 58, 60
2, 40144, Note_on_c, 0, 36, 60
2, 40151, Note_on_c, 0, 67, 60
2, 40151, Note_on_c, 0, 64, 60
2, 40234, Note_on_c, 0, 36, 0
2, 40234, Note_on_c, 0, 48, 0
2, 40236, Note_on_c, 0, 67, 0
2, 40238, Note_on_c, 0, 58, 0
2, 40243, Note_on_c, 0, 64, 0
2, 40263, Note_on_c, 0, 50, 60
2, 40263, Note_on_c, 0, 56, 60
2, 40263, Note_on_c, 0, 65, 60
2, 40263, Note_on_c, 0, 38, 60
2, 40265, Note_on_c, 0, 59, 60
2, 40265, Note_on_c, 0, 53, 60
2, 40348, Note_on_c, 0, 38, 0
2, 40351, Note_on_c, 0, 56, 0
2, 40351, Note_on_c, 0, 65, 0
2, 40351, Note_on_c, 0, 50, 0
2, 40351, Note_on_c, 0, 53, 0
2, 40351, Note_on_c, 0, 59, 0
2, 40375, Note_on_c, 0, 53, 60
2, 40379, Note_on_c, 0, 41, 60
2, 40390, Note_on_c, 0, 62, 60
2, 40404, Note_on_c, 0, 41, 0
2, 40410, Note_on_c, 0, 62, 0
2, 40415, Note_on_c, 0, 53, 0
2, 40435, Note_on_c, 0, 65, 60
2, 40437, Note_on_c, 0, 56, 60
2, 40437, Note_on_c, 0, 59, 60
2, 40437, Note_on_c, 0, 44, 60
2, 40440, Note_on_c, 0, 62, 60
2, 40523, Note_on_c, 0, 62, 0
2, 40523, Note_on_c, 0, 65, 0
2, 40523, Note_on_c, 0, 44, 0
2, 40527, Note_on_c, 0, 59, 0
2, 40527, Note_on_c, 0, 56, 0
2, 40554, Note_on_c, 0, 68, 60
2, 40554, Note_on_c, 0, 59, 60
2, 40556, Note_on_c, 0, 47, 60
2, 40583, Note_on_c, 0, 47, 0
2, 40584, Note_on_c, 0, 59, 0
2, 40584, Note_on_c, 0, 68, 0
2, 40611, Note_on_c, 0, 62, 60
2, 40611, Note_on_c, 0, 65, 60
2, 40611, Note_on_c, 0, 50, 60
2, 40613, Note_on_c, 0, 71, 60
2, 40613, Note_on_c, 0, 68, 60
2, 40699, Note_on_c, 0, 71, 0
2, 40699, Note_on_c, 0, 50, 0
2, 40699, Note_on_c, 0, 62, 0
2, 40699, Note_on_c, 0, 65, 0
2, 40704, Note_on_c, 0, 68, 0
2, 40724, Note_on_c, 0, 49, 60
2, 40726, Note_on_c, 0, 70, 60
2, 40726, Note_on_c, 0, 61, 60
2, 40729, Note_on_c, 0, 67, 60
2, 40729, Note_on_c, 0, 64, 60
2, 40758, Note_on_c, 0, 67, 0
2, 40762, Note_on_c, 0, 70, 0
2, 40762, Note_on_c, 0, 64, 0
2, 40791, Note_on_c, 0, 76, 60
2, 40818, Note_on_c, 0, 61, 0
2, 40822, Note_on_c, 0, 76, 0
2, 40822, Note_on_c, 0, 49, 0
2, 40848, Note_on_c, 0, 61, 60
2, 40848, Note_on_c, 0, 49, 60
2, 40852, Note_on_c, 0, 67, 60
2, 40852, Note_on_c, 0, 70, 60
2, 40852, Note_on_c, 0, 64, 60
2, 40879, Note_on_c, 0, 67, 0
2, 40879, Note_on_c, 0, 61, 0
2, 40879, Note_on_c, 0, 49, 0
2, 40883, Note_on_c, 0, 70, 0
2, 40883, Note_on_c, 0, 64, 0
2, 40912, Note_on_c, 0, 63, 60
2, 40912, Note_on_c, 0, 60, 60
2, 40914, Note_on_c, 0, 66, 60
2, 40914, Note_on_c, 0, 69, 60
2, 40914, Note_on_c, 0, 48, 60
2, 41002, Note_on_c, 0, 69, 0
2, 41002, Note_on_c, 0, 66, 0
2, 41002, Note_on_c, 0, 63, 0
2, 41037, Note_on_c, 0, 75, 60
2, 41060, Note_on_c, 0, 48, 0
2, 41064, Note_on_c, 0, 75, 0
2, 41065, Note_on_c, 0, 60, 0
2, 41088, Note_on_c, 0, 48, 60
2, 41090, Note_on_c, 0, 60, 60
2, 41092, Note_on_c, 0, 66, 60
2, 41092, Note_on_c, 0, 69, 60
2, 41092, Note_on_c, 0, 63, 60
2, 41181, Note_on_c, 0, 48, 0
2, 41184, Note_on_c, 0, 66, 0
2, 41186, Note_on_c, 0, 60, 0
2, 41186, Note_on_c, 0, 69, 0
2, 41186, Note_on_c, 0, 63, 0
2, 41211, Note_on_c, 0, 47, 60
2, 41213, Note_on_c, 0, 59, 60
2, 41215, Note_on_c, 0, 65, 60
2, 41219, Note_on_c, 0, 68, 60
2, 41219, Note_on_c, 0, 62, 60
2, 41246, Note_on_c, 0, 62, 0
2, 41246, Note_on_c, 0, 65, 0
2, 41250, Note_on_c, 0, 68, 0
2, 41275, Note_on_c, 0, 74, 60
2, 41301, Note_on_c, 0, 47, 0
2, 41305, Note_on_c, 0, 74, 0
2, 41309, Note_on_c, 0, 59, 0
2, 41329, Note_on_c, 0, 59, 60
2, 41329, Note_on_c, 0, 47, 60
2, 41334, Note_on_c, 0, 65, 60
2, 41338, Note_on_c, 0, 68, 60
2, 41342, Note_on_c, 0, 62, 60
2, 41362, Note_on_c, 0, 47, 0
2, 41367, Note_on_c, 0, 62, 0
2, 41367, Note_on_c, 0, 65, 0
2, 41371, Note_on_c, 0, 59, 0
2, 41371, Note_on_c, 0, 68, 0
2, 41396, Note_on_c, 0, 58, 60
2, 41396, Note_on_c, 0, 61, 60
2, 41396, Note_on_c, 0, 64, 60
2, 41396, Note_on_c, 0, 46, 60
2, 41400, Note_on_c, 0, 67, 60
2, 41483, Note_on_c, 0, 67, 0
2, 41483, Note_on_c, 0, 61, 0
2, 41488, Note_on_c, 0, 64, 0
2, 41520, Note_on_c, 0, 73, 60
2, 41546, Note_on_c, 0, 58, 0
2, 41546, Note_on_c, 0, 46, 0
2, 41551, Note_on_c, 0, 73, 0
2, 41573, Note_on_c, 0, 45, 60
2, 41575, Note_on_c, 0, 60, 60
2, 41575, Note_on_c, 0, 57, 60
2, 41577, Note_on_c, 0, 63, 60
2, 41584, Note_on_c, 0, 66, 60
2, 41660, Note_on_c, 0, 45, 0
2, 41665, Note_on_c, 0, 60, 0
2, 41665, Note_on_c, 0, 66, 0
2, 41665, Note_on_c, 0, 57, 0
2, 41669, Note_on_c, 0, 63, 0
2, 41690, Note_on_c, 0, 56, 60
2, 41692, Note_on_c, 0, 59, 60
2, 41692, Note_on_c, 0, 44, 60
2, 41694, Note_on_c, 0, 65, 60
2, 41696, Note_on_c, 0, 63, 60
2, 41727, Note_on_c, 0, 65, 0
2, 41727, Note_on_c, 0, 59, 0
2, 41731, Note_on_c, 0, 63, 0
2, 41756, Note_on_c, 0, 71, 60
2, 41781, Note_on_c, 0, 44, 0
2, 41786, Note_on_c, 0, 56, 0
2, 41788, Note_on_c, 0, 71, 0
2, 41809, Note_on_c, 0, 56, 60
2, 41809, Note_on_c, 0, 44, 60
2, 41813, Note_on_c, 0, 59, 60
2, 41815, Note_on_c, 0, 65, 60
2, 41815, Note_on_c, 0, 63, 60
2, 41837, Note_on_c, 0, 44, 0
2, 41842, Note_on_c, 0, 65, 0
2, 41846, Note_on_c, 0, 56, 0
2, 41846, Note_on_c, 0, 59, 0
2, 41846, Note_on_c, 0, 63, 0
2, 41868, Note_on_c, 0, 58, 60
2, 41868, Note_on_c, 0, 63, 60
2, 41868, Note_on_c, 0, 43, 60
2, 41873, Note_on_c, 0, 70, 60
2, 41873, Note_on_c, 0, 61, 60
2, 41875, Note_on_c, 0, 55, 60
2, 41954, Note_on_c, 0, 43, 0
2, 41960, Note_on_c, 0, 55, 0
2, 41985, Note_on_c, 0, 51, 60
2, 42020, Note_on_c, 0, 51, 0
2, 42045, Note_on_c, 0, 39, 60
2, 42133, Note_on_c, 0, 39, 0
2, 42135, Note_on_c, 0, 61, 0
2, 42135, Note_on_c, 0, 58, 0
2, 42139, Note_on_c, 0, 70, 0
2, 42141, Note_on_c, 0, 63, 0
2, 42161, Note_on_c, 0, 56, 60
2, 42164, Note_on_c, 0, 44, 60
2, 42253, Note_on_c, 0, 44, 0
2, 42260, Note_on_c, 0, 56, 0
2, 42278, Note_on_c, 0, 51, 60
2, 42287, Note_on_c, 0, 60, 60
2, 42287, Note_on_c, 0, 56, 60
2, 42288, Note_on_c, 0, 63, 60
2, 42290, Note_on_c, 0, 75, 60
2, 42290, Note_on_c, 0, 72, 60
2, 42292, Note_on_c, 0, 68, 60
2, 42321, Note_on_c, 0, 75, 0
2, 42323, Note_on_c, 0, 72, 0
2, 42323, Note_on_c, 0, 63, 0
2, 42323, Note_on_c, 0, 68, 0
2, 42348, Note_on_c, 0, 65, 60
2, 42350, Note_on_c, 0, 77, 60
2, 42350, Note_on_c, 0, 72, 60
2, 42352, Note_on_c, 0, 68, 60
2, 42381, Note_on_c, 0, 60, 0
2, 42381, Note_on_c, 0, 56, 0
2, 42403, Note_on_c, 0, 39, 60
2, 42435, Note_on_c, 0, 65, 0
2, 42440, Note_on_c, 0, 72, 0
2, 42440, Note_on_c, 0, 77, 0
2, 42440, Note_on_c, 0, 68, 0
2, 42466, Note_on_c, 0, 75, 60
2, 42491, Note_on_c, 0, 39, 0
2, 42497, Note_on_c, 0, 75, 0
2, 42497, Note_on_c, 0, 51, 0
2, 42518, Note_on_c, 0, 51, 60
2, 42520, Note_on_c, 0, 60, 60
2, 42522, Note_on_c, 0, 63, 60
2, 42522, Note_on_c, 0, 56, 60
2, 42524, Note_on_c, 0, 72, 60
2, 42524, Note_on_c, 0, 68, 60
2, 42612, Note_on_c, 0, 60, 0
2, 42612, Note_on_c, 0, 51, 0
2, 42614, Note_on_c, 0, 56, 0
2, 42616, Note_on_c, 0, 63, 0
2, 42616, Note_on_c, 0, 68, 0
2, 42616, Note_on_c, 0, 72, 0
2, 42639, Note_on_c, 0, 44, 60
2, 42641, Note_on_c, 0, 56, 60
2, 42643, Note_on_c, 0, 63, 60
2, 42645, Note_on_c, 0, 72, 60
2, 42645, Note_on_c, 0, 68, 60
2, 42675, Note_on_c, 0, 72, 0
2, 42702, Note_on_c, 0, 75, 60
2, 42728, Note_on_c, 0, 44, 0
2, 42733, Note_on_c, 0, 56, 0
2, 42733, Note_on_c, 0, 75, 0
2, 42737, Note_on_c, 0, 63, 0
2, 42737, Note_on_c, 0, 68, 0
2, 42757, Note_on_c, 0, 56, 60
2, 42757, Note_on_c, 0, 44, 60
2, 42762, Note_on_c, 0, 68, 60
2, 42762, Note_on_c, 0, 63, 60
2, 42764, Note_on_c, 0, 72, 60
2, 42786, Note_on_c, 0, 44, 0
2, 42788, Note_on_c, 0, 56, 0
2, 42792, Note_on_c, 0, 63, 0
2, 42792, Note_on_c, 0, 68, 0
2, 42792, Note_on_c, 0, 72, 0
2, 42813, Note_on_c, 0, 51, 60
2, 42815, Note_on_c, 0, 39, 60
2, 42816, Note_on_c, 0, 67, 60
2, 42816, Note_on_c, 0, 61, 60
2, 42820, Note_on_c, 0, 70, 60
2, 42907, Note_on_c, 0, 70, 0
2, 42932, Note_on_c, 0, 72, 60
2, 42956, Note_on_c, 0, 39, 0
2, 42958, Note_on_c, 0, 67, 0
2, 42962, Note_on_c, 0, 51, 0
2, 42962, Note_on_c, 0, 61, 0
2, 42962, Note_on_c, 0, 72, 0
2, 42988, Note_on_c, 0, 52, 60
2, 42988, Note_on_c, 0, 40, 60
2, 42990, Note_on_c, 0, 67, 60
2, 42990, Note_on_c, 0, 70, 60
2, 42990, Note_on_c, 0, 61, 60
2, 43075, Note_on_c, 0, 40, 0
2, 43079, Note_on_c, 0, 52, 0
2, 43079, Note_on_c, 0, 61, 0
2, 43079, Note_on_c, 0, 67, 0
2, 43082, Note_on_c, 0, 70, 0
2, 43105, Note_on_c, 0, 53, 60
2, 43105, Note_on_c, 0, 60, 60
2, 43105, Note_on_c, 0, 65, 60
2, 43105, Note_on_c, 0, 41, 60
2, 43109, Note_on_c, 0, 68, 60
2, 43189, Note_on_c, 0, 41, 0
2, 43198, Note_on_c, 0, 65, 0
2, 43198, Note_on_c, 0, 53, 0
2, 43198, Note_on_c, 0, 60, 0
2, 43198, Note_on_c, 0, 68, 0
2, 43223, Note_on_c, 0, 60, 60
2, 43224, Note_on_c, 0, 56, 60
2, 43224, Note_on_c, 0, 53, 60
2, 43226, Note_on_c, 0, 65, 60
2, 43226, Note_on_c, 0, 72, 60
2, 43226, Note_on_c, 0, 48, 60
2, 43228, Note_on_c, 0, 68, 60
2, 43259, Note_on_c, 0, 65, 0
2, 43259, Note_on_c, 0, 60, 0
2, 43263, Note_on_c, 0, 72, 0
2, 43263, Note_on_c, 0, 68, 0
2, 43284, Note_on_c, 0, 65, 60
2, 43288, Note_on_c, 0, 68, 60
2, 43288, Note_on_c, 0, 73, 60
2, 43288, Note_on_c, 0, 61, 60
2, 43312, Note_on_c, 0, 48, 0
2, 43317, Note_on_c, 0, 56, 0
2, 43319, Note_on_c, 0, 53, 0
2, 43339, Note_on_c, 0, 36, 60
2, 43343, Note_on_c, 0, 48, 60
2, 43371, Note_on_c, 0, 61, 0
2, 43376, Note_on_c, 0, 65, 0
2, 43376, Note_on_c, 0, 73, 0
2, 43378, Note_on_c, 0, 68, 0
2, 43404, Note_on_c, 0, 72, 60
2, 43427, Note_on_c, 0, 36, 0
2, 43431, Note_on_c, 0, 48, 0
2, 43441, Note_on_c, 0, 72, 0
2, 43462, Note_on_c, 0, 53, 60
2, 43462, Note_on_c, 0, 56, 60
2, 43462, Note_on_c, 0, 48, 60
2, 43464, Note_on_c, 0, 60, 60
2, 43465, Note_on_c, 0, 65, 60
2, 43470, Note_on_c, 0, 68, 60
2, 43552, Note_on_c, 0, 48, 0
2, 43554, Note_on_c, 0, 56, 0
2, 43556, Note_on_c, 0, 53, 0
2, 43556, Note_on_c, 0, 65, 0
2, 43558, Note_on_c, 0, 60, 0
2, 43560, Note_on_c, 0, 68, 0
2, 43581, Note_on_c, 0, 41, 60
2, 43583, Note_on_c, 0, 53, 60
2, 43584, Note_on_c, 0, 65, 60
2, 43584, Note_on_c, 0, 68, 60
2, 43584, Note_on_c, 0, 60, 60
2, 43619, Note_on_c, 0, 68, 0
2, 43646, Note_on_c, 0, 72, 60
2, 43666, Note_on_c, 0, 41, 0
2, 43673, Note_on_c, 0, 65, 0
2, 43675, Note_on_c, 0, 53, 0
2, 43677, Note_on_c, 0, 72, 0
2, 43677, Note_on_c, 0, 60, 0
2, 43695, Note_on_c, 0, 41, 60
2, 43700, Note_on_c, 0, 53, 60
2, 43702, Note_on_c, 0, 65, 60
2, 43702, Note_on_c, 0, 60, 60
2, 43705, Note_on_c, 0, 68, 60
2, 43726, Note_on_c, 0, 41, 0
2, 43734, Note_on_c, 0, 53, 0
2, 43734, Note_on_c, 0, 65, 0
2, 43736, Note_on_c, 0, 60, 0
2, 43738, Note_on_c, 0, 68, 0
2, 43758, Note_on_c, 0, 48, 60
2, 43758, Note_on_c, 0, 36, 60
2, 43763, Note_on_c, 0, 64, 60
2, 43763, Note_on_c, 0, 67, 60
2, 43763, Note_on_c, 0, 58, 60
2, 43855, Note_on_c, 0, 67, 0
2, 43884, Note_on_c, 0, 68, 60
2, 43906, Note_on_c, 0, 36, 0
2, 43910, Note_on_c, 0, 48, 0
2, 43915, Note_on_c, 0, 58, 0
2, 43919, Note_on_c, 0, 64, 0
2, 43919, Note_on_c, 0, 68, 0
2, 43935, Note_on_c, 0, 36, 60
2, 43939, Note_on_c, 0, 58, 60
2, 43939, Note_on_c, 0, 48, 60
2, 43945, Note_on_c, 0, 67, 60
2, 43945, Note_on_c, 0, 64, 60
2, 44027, Note_on_c, 0, 36, 0
2, 44031, Note_on_c, 0, 58, 0
2, 44031, Note_on_c, 0, 48, 0
2, 44035, Note_on_c, 0, 67, 0
2, 44040, Note_on_c, 0, 64, 0
2, 44060, Note_on_c, 0, 49, 60
2, 44062, Note_on_c, 0, 61, 60
2, 44062, Note_on_c, 0, 65, 60
2, 44062, Note_on_c, 0, 56, 60
2, 44070, Note_on_c, 0, 37, 60
2, 44154, Note_on_c, 0, 65, 0
2, 44184, Note_on_c, 0, 68, 60
2, 44208, Note_on_c, 0, 37, 0
2, 44211, Note_on_c, 0, 49, 0
2, 44213, Note_on_c, 0, 56, 0
2, 44215, Note_on_c, 0, 61, 0
2, 44219, Note_on_c, 0, 68, 0
2, 44236, Note_on_c, 0, 41, 60
2, 44240, Note_on_c, 0, 58, 60
2, 44240, Note_on_c, 0, 53, 60
2, 44244, Note_on_c, 0, 65, 60
2, 44244, Note_on_c, 0, 70, 60
2, 44244, Note_on_c, 0, 61, 60
2, 44326, Note_on_c, 0, 61, 0
2, 44328, Note_on_c, 0, 58, 0
2, 44330, Note_on_c, 0, 65, 0
2, 44330, Note_on_c, 0, 70, 0
2, 44356, Note_on_c, 0, 68, 60
2, 44379, Note_on_c, 0, 41, 0
2, 44387, Note_on_c, 0, 53, 0
2, 44408, Note_on_c, 0, 40, 60
2, 44410, Note_on_c, 0, 56, 60
2, 44412, Note_on_c, 0, 52, 60
2, 44421, Note_on_c, 0, 68, 0
2, 44470, Note_on_c, 0, 58, 60
2, 44475, Note_on_c, 0, 56, 0
2, 44498, Note_on_c, 0, 40, 0
2, 44502, Note_on_c, 0, 52, 0
2, 44526, Note_on_c, 0, 51, 60
2, 44531, Note_on_c, 0, 58, 0
2, 44531, Note_on_c, 0, 39, 60
2, 44535, Note_on_c, 0, 60, 60
2, 44594, Note_on_c, 0, 63, 60
2, 44598, Note_on_c, 0, 60, 0
2, 44658, Note_on_c, 0, 63, 0
2, 44658, Note_on_c, 0, 68, 60
2, 44676, Note_on_c, 0, 39, 0
2, 44683, Note_on_c, 0, 51, 0
2, 44707, Note_on_c, 0, 41, 60
2, 44711, Note_on_c, 0, 63, 60
2, 44713, Note_on_c, 0, 53, 60
2, 44715, Note_on_c, 0, 72, 60
2, 44715, Note_on_c, 0, 69, 60
2, 44717, Note_on_c, 0, 68, 0
2, 44806, Note_on_c, 0, 63, 0
2, 44806, Note_on_c, 0, 72, 0
2, 44806, Note_on_c, 0, 69, 0
2, 44832, Note_on_c, 0, 65, 60
2, 44855, Note_on_c, 0, 41, 0
2, 44862, Note_on_c, 0, 65, 0
2, 44862, Note_on_c, 0, 53, 0
2, 44889, Note_on_c, 0, 51, 60
2, 44889, Note_on_c, 0, 39, 60
2, 44891, Note_on_c, 0, 60, 60
2, 44895, Note_on_c, 0, 72, 60
2, 44895, Note_on_c, 0, 69, 60
2, 44971, Note_on_c, 0, 39, 0
2, 44981, Note_on_c, 0, 72, 0
2, 44981, Note_on_c, 0, 51, 0
2, 44981, Note_on_c, 0, 60, 0
2, 44983, Note_on_c, 0, 69, 0
2, 45006, Note_on_c, 0, 38, 60
2, 45010, Note_on_c, 0, 50, 60
2, 45014, Note_on_c, 0, 58, 60
2, 45073, Note_on_c, 0, 65, 60
2, 45075, Note_on_c, 0, 58, 0
2, 45137, Note_on_c, 0, 65, 0
2, 45139, Note_on_c, 0, 68, 60
2, 45155, Note_on_c, 0, 38, 0
2, 45164, Note_on_c, 0, 50, 0
2, 45189, Note_on_c, 0, 51, 60
2, 45189, Note_on_c, 0, 39, 60
2, 45194, Note_on_c, 0, 61, 60
2, 45196, Note_on_c, 0, 68, 0
2, 45196, Note_on_c, 0, 67, 60
2, 45198, Note_on_c, 0, 72, 60
2, 45281, Note_on_c, 0, 67, 0
2, 45281, Note_on_c, 0, 61, 0
2, 45285, Note_on_c, 0, 72, 0
2, 45312, Note_on_c, 0, 70, 60
2, 45332, Note_on_c, 0, 39, 0
2, 45337, Note_on_c, 0, 51, 0
2, 45344, Note_on_c, 0, 70, 0
2, 45362, Note_on_c, 0, 51, 60
2, 45364, Note_on_c, 0, 39, 60
2, 45368, Note_on_c, 0, 61, 60
2, 45370, Note_on_c, 0, 67, 60
2, 45373, Note_on_c, 0, 72, 60
2, 45451, Note_on_c, 0, 39, 0
2, 45456, Note_on_c, 0, 67, 0
2, 45456, Note_on_c, 0, 51, 0
2, 45456, Note_on_c, 0, 61, 0
2, 45460, Note_on_c, 0, 72, 0
2, 45481, Note_on_c, 0, 44, 60
2, 45483, Note_on_c, 0, 60, 60
2, 45483, Note_on_c, 0, 63, 60
2, 45483, Note_on_c, 0, 68, 60
2, 45483, Note_on_c, 0, 56, 60
2, 45569, Note_on_c, 0, 44, 0
2, 45576, Note_on_c, 0, 56, 0
2, 45598, Note_on_c, 0, 51, 60
2, 45601, Note_on_c, 0, 39, 60
2, 45688, Note_on_c, 0, 39, 0
2, 45692, Note_on_c, 0, 51, 0
2, 45717, Note_on_c, 0, 32, 60
2, 45720, Note_on_c, 0, 44, 60
2, 45809, Note_on_c, 0, 32, 0
2, 45813, Note_on_c, 0, 44, 0
2, 45819, Note_on_c, 0, 60, 0
2, 45821, Note_on_c, 0, 63, 0
2, 45821, Note_on_c, 0, 68, 0
2, 45843, Note_on_c, 0, 51, 60
2, 45843, Note_on_c, 0, 39, 60
2, 45939, Note_on_c, 0, 39, 0
2, 45942, Note_on_c, 0, 51, 0
2, 45970, Note_on_c, 0, 44, 60
2, 45975, Note_on_c, 0, 56, 60
2, 46062, Note_on_c, 0, 44, 0
2, 46069, Note_on_c, 0, 56, 0
2, 46096, Note_on_c, 0, 56, 60
2, 46096, Note_on_c, 0, 51, 60
2, 46100, Note_on_c, 0, 63, 60
2, 46100, Note_on_c, 0, 60, 60
2, 46102, Note_on_c, 0, 72, 60
2, 46102, Note_on_c, 0, 75, 60
2, 46102, Note_on_c, 0, 68, 60
2, 46132, Note_on_c, 0, 68, 0
2, 46132, Note_on_c, 0, 72, 0
2, 46132, Note_on_c, 0, 63, 0
2, 46132, Note_on_c, 0, 75, 0
2, 46157, Note_on_c, 0, 65, 60
2, 46161, Note_on_c, 0, 72, 60
2, 46161, Note_on_c, 0, 77, 60
2, 46161, Note_on_c, 0, 68, 60
2, 46188, Note_on_c, 0, 51, 0
2, 46190, Note_on_c, 0, 56, 0
2, 46190, Note_on_c, 0, 60, 0
2, 46208, Note_on_c, 0, 51, 60
2, 46212, Note_on_c, 0, 39, 60
2, 46243, Note_on_c, 0, 65, 0
2, 46243, Note_on_c, 0, 77, 0
2, 46247, Note_on_c, 0, 72, 0
2, 46247, Note_on_c, 0, 68, 0
2, 46275, Note_on_c, 0, 75, 60
2, 46295, Note_on_c, 0, 39, 0
2, 46302, Note_on_c, 0, 51, 0
2, 46306, Note_on_c, 0, 75, 0
2, 46322, Note_on_c, 0, 51, 60
2, 46329, Note_on_c, 0, 60, 60
2, 46329, Note_on_c, 0, 63, 60
2, 46329, Note_on_c, 0, 56, 60
2, 46333, Note_on_c, 0, 72, 60
2, 46333, Note_on_c, 0, 68, 60
2, 46421, Note_on_c, 0, 56, 0
2, 46421, Note_on_c, 0, 60, 0
2, 46421, Note_on_c, 0, 51, 0
2, 46427, Note_on_c, 0, 63, 0
2, 46427, Note_on_c, 0, 68, 0
2, 46427, Note_on_c, 0, 72, 0
2, 46448, Note_on_c, 0, 44, 60
2, 46452, Note_on_c, 0, 63, 60
2, 46452, Note_on_c, 0, 68, 60
2, 46452, Note_on_c, 0, 56, 60
2, 46456, Note_on_c, 0, 72, 60
2, 46485, Note_on_c, 0, 72, 0
2, 46513, Note_on_c, 0, 75, 60
2, 46534, Note_on_c, 0, 44, 0
2, 46540, Note_on_c, 0, 56, 0
2, 46544, Note_on_c, 0, 63, 0
2, 46544, Note_on_c, 0, 68, 0
2, 46544, Note_on_c, 0, 75, 0
2, 46564, Note_on_c, 0, 44, 60
2, 46568, Note_on_c, 0, 63, 60
2, 46568, Note_on_c, 0, 56, 60
2, 46571, Note_on_c, 0, 72, 60
2, 46573, Note_on_c, 0, 68, 60
2, 46595, Note_on_c, 0, 44, 0
2, 46597, Note_on_c, 0, 56, 0
2, 46604, Note_on_c, 0, 63, 0
2, 46606, Note_on_c, 0, 72, 0
2, 46608, Note_on_c, 0, 68, 0
2, 46620, Note_on_c, 0, 51, 60
2, 46626, Note_on_c, 0, 39, 60
2, 46630, Note_on_c, 0, 61, 60
2, 46634, Note_on_c, 0, 70, 60
2, 46634, Note_on_c, 0, 67, 60
2, 46727, Note_on_c, 0, 70, 0
2, 46752, Note_on_c, 0, 72, 60
2, 46774, Note_on_c, 0, 39, 0
2, 46777, Note_on_c, 0, 61, 0
2, 46779, Note_on_c, 0, 51, 0
2, 46781, Note_on_c, 0, 67, 0
2, 46783, Note_on_c, 0, 72, 0
2, 46806, Note_on_c, 0, 52, 60
2, 46806, Note_on_c, 0, 61, 60
2, 46806, Note_on_c, 0, 40, 60
2, 46810, Note_on_c, 0, 70, 60
2, 46810, Note_on_c, 0, 67, 60
2, 46890, Note_on_c, 0, 40, 0
2, 46895, Note_on_c, 0, 52, 0
2, 46895, Note_on_c, 0, 67, 0
2, 46895, Note_on_c, 0, 61, 0
2, 46898, Note_on_c, 0, 70, 0
2, 46919, Note_on_c, 0, 41, 60
2, 46922, Note_on_c, 0, 53, 60
2, 46925, Note_on_c, 0, 65, 60
2, 46927, Note_on_c, 0, 68, 60
2, 46927, Note_on_c, 0, 60, 60
2, 47007, Note_on_c, 0, 41, 0
2, 47015, Note_on_c, 0, 65, 0
2, 47017, Note_on_c, 0, 60, 0
2, 47019, Note_on_c, 0, 68, 0
2, 47019, Note_on_c, 0, 53, 0
2, 47043, Note_on_c, 0, 56, 60
2, 47043, Note_on_c, 0, 60, 60
2, 47043, Note_on_c, 0, 48, 60
2, 47045, Note_on_c, 0, 53, 60
2, 47048, Note_on_c, 0, 68, 60
2, 47048, Note_on_c, 0, 72, 60
2, 47048, Note_on_c, 0, 65, 60
2, 47076, Note_on_c, 0, 65, 0
2, 47076, Note_on_c, 0, 60, 0
2, 47079, Note_on_c, 0, 68, 0
2, 47081, Note_on_c, 0, 72, 0
2, 47101, Note_on_c, 0, 65, 60
2, 47101, Note_on_c, 0, 61, 60
2, 47103, Note_on_c, 0, 68, 60
2, 47105, Note_on_c, 0, 73, 60
2, 47128, Note_on_c, 0, 48, 0
2, 47132, Note_on_c, 0, 53, 0
2, 47134, Note_on_c, 0, 56, 0
2, 47155, Note_on_c, 0, 48, 60
2, 47155, Note_on_c, 0, 36, 60
2, 47189, Note_on_c, 0, 61, 0
2, 47189, Note_on_c, 0, 65, 0
2, 47189, Note_on_c, 0, 73, 0
2, 47193, Note_on_c, 0, 68, 0
2, 47222, Note_on_c, 0, 72, 60
2, 47240, Note_on_c, 0, 36, 0
2, 47244, Note_on_c, 0, 48, 0
2, 47253, Note_on_c, 0, 72, 0
2, 47273, Note_on_c, 0, 53, 60
2, 47273, Note_on_c, 0, 56, 60
2, 47273, Note_on_c, 0, 48, 60
2, 47275, Note_on_c, 0, 60, 60
2, 47278, Note_on_c, 0, 65, 60
2, 47281, Note_on_c, 0, 68, 60
2, 47361, Note_on_c, 0, 48, 0
2, 47367, Note_on_c, 0, 56, 0
2, 47370, Note_on_c, 0, 60, 0
2, 47370, Note_on_c, 0, 53, 0
2, 47370, Note_on_c, 0, 68, 0
2, 47370, Note_on_c, 0, 65, 0
2, 47390, Note_on_c, 0, 41, 60
2, 47392, Note_on_c, 0, 60, 60
2, 47394, Note_on_c, 0, 65, 60
2, 47394, Note_on_c, 0, 53, 60
2, 47398, Note_on_c, 0, 68, 60
2, 47428, Note_on_c, 0, 68, 0
2, 47459, Note_on_c, 0, 72, 60
2, 47478, Note_on_c, 0, 41, 0
2, 47484, Note_on_c, 0, 60, 0
2, 47486, Note_on_c, 0, 53, 0
2, 47486, Note_on_c, 0, 65, 0
2, 47493, Note_on_c, 0, 72, 0
2, 47509, Note_on_c, 0, 41, 60
2, 47513, Note_on_c, 0, 53, 60
2, 47515, Note_on_c, 0, 65, 60
2, 47515, Note_on_c, 0, 60, 60
2, 47519, Note_on_c, 0, 68, 60
2, 47537, Note_on_c, 0, 41, 0
2, 47545, Note_on_c, 0, 60, 0
2, 47545, Note_on_c, 0, 53, 0
2, 47545, Note_on_c, 0, 65, 0
2, 47549, Note_on_c, 0, 68, 0
2, 47568, Note_on_c, 0, 36, 60
2, 47572, Note_on_c, 0, 58, 60
2, 47572, Note_on_c, 0, 48, 60
2, 47574, Note_on_c, 0, 67, 60
2, 47574, Note_on_c, 0, 64, 60
2, 47668, Note_on_c, 0, 67, 0
2, 47695, Note_on_c, 0, 68, 60
2, 47717, Note_on_c, 0, 36, 0
2, 47719, Note_on_c, 0, 48, 0
2, 47724, Note_on_c, 0, 58, 0
2, 47728, Note_on_c, 0, 68, 0
2, 47728, Note_on_c, 0, 64, 0
2, 47746, Note_on_c, 0, 36, 60
2, 47750, Note_on_c, 0, 58, 60
2, 47750, Note_on_c, 0, 48, 60
2, 47752, Note_on_c, 0, 67, 60
2, 47752, Note_on_c, 0, 64, 60
2, 47826, Note_on_c, 0, 36, 0
2, 47831, Note_on_c, 0, 48, 0
2, 47834, Note_on_c, 0, 58, 0
2, 47834, Note_on_c, 0, 67, 0
2, 47838, Note_on_c, 0, 64, 0
2, 47871, Note_on_c, 0, 38, 60
2, 47873, Note_on_c, 0, 56, 60
2, 47875, Note_on_c, 0, 53, 60
2, 47875, Note_on_c, 0, 59, 60
2, 47875, Note_on_c, 0, 50, 60
2, 47878, Note_on_c, 0, 65, 60
2, 47959, Note_on_c, 0, 38, 0
2, 47965, Note_on_c, 0, 50, 0
2, 47965, Note_on_c, 0, 65, 0
2, 47970, Note_on_c, 0, 56, 0
2, 47970, Note_on_c, 0, 59, 0
2, 47970, Note_on_c, 0, 53, 0
2, 47990, Note_on_c, 0, 41, 60
2, 47994, Note_on_c, 0, 53, 60
2, 48006, Note_on_c, 0, 62, 60
2, 48021, Note_on_c, 0, 41, 0
2, 48023, Note_on_c, 0, 62, 0
2, 48028, Note_on_c, 0, 53, 0
2, 48049, Note_on_c, 0, 44, 60
2, 48051, Note_on_c, 0, 59, 60
2, 48051, Note_on_c, 0, 56, 60
2, 48055, Note_on_c, 0, 65, 60
2, 48055, Note_on_c, 0, 62, 60
2, 48135, Note_on_c, 0, 44, 0
2, 48142, Note_on_c, 0, 65, 0
2, 48142, Note_on_c, 0, 62, 0
2, 48142, Note_on_c, 0, 56, 0
2, 48144, Note_on_c, 0, 59, 0
2, 48170, Note_on_c, 0, 59, 60
2, 48172, Note_on_c, 0, 68, 60
2, 48172, Note_on_c, 0, 47, 60
2, 48196, Note_on_c, 0, 47, 0
2, 48205, Note_on_c, 0, 68, 0
2, 48205, Note_on_c, 0, 59, 0
2, 48230, Note_on_c, 0, 50, 60
2, 48234, Note_on_c, 0, 68, 60
2, 48234, Note_on_c, 0, 65, 60
2, 48236, Note_on_c, 0, 71, 60
2, 48236, Note_on_c, 0, 62, 60
2, 48324, Note_on_c, 0, 62, 0
2, 48324, Note_on_c, 0, 50, 0
2, 48330, Note_on_c, 0, 68, 0
2, 48330, Note_on_c, 0, 65, 0
2, 48330, Note_on_c, 0, 71, 0
2, 48350, Note_on_c, 0, 49, 60
2, 48355, Note_on_c, 0, 64, 60
2, 48355, Note_on_c, 0, 61, 60
2, 48357, Note_on_c, 0, 70, 60
2, 48359, Note_on_c, 0, 67, 60
2, 48385, Note_on_c, 0, 67, 0
2, 48389, Note_on_c, 0, 64, 0
2, 48391, Note_on_c, 0, 70, 0
2, 48420, Note_on_c, 0, 76, 60
2, 48445, Note_on_c, 0, 61, 0
2, 48445, Note_on_c, 0, 49, 0
2, 48453, Note_on_c, 0, 76, 0
2, 48473, Note_on_c, 0, 61, 60
2, 48473, Note_on_c, 0, 49, 60
2, 48478, Note_on_c, 0, 67, 60
2, 48478, Note_on_c, 0, 64, 60
2, 48481, Note_on_c, 0, 70, 60
2, 48502, Note_on_c, 0, 49, 0
2, 48502, Note_on_c, 0, 61, 0
2, 48508, Note_on_c, 0, 64, 0
2, 48508, Note_on_c, 0, 67, 0
2, 48514, Note_on_c, 0, 70, 0
2, 48534, Note_on_c, 0, 48, 60
2, 48537, Note_on_c, 0, 63, 60
2, 48537, Note_on_c, 0, 66, 60
2, 48537, Note_on_c, 0, 60, 60
2, 48541, Note_on_c, 0, 69, 60
2, 48626, Note_on_c, 0, 66, 0
2, 48626, Note_on_c, 0, 63, 0
2, 48631, Note_on_c, 0, 69, 0
2, 48657, Note_on_c, 0, 75, 60
2, 48682, Note_on_c, 0, 48, 0
2, 48691, Note_on_c, 0, 75, 0
2, 48691, Note_on_c, 0, 60, 0
2, 48711, Note_on_c, 0, 48, 60
2, 48715, Note_on_c, 0, 66, 60
2, 48715, Note_on_c, 0, 60, 60
2, 48717, Note_on_c, 0, 69, 60
2, 48717, Note_on_c, 0, 63, 60
2, 48801, Note_on_c, 0, 48, 0
2, 48805, Note_on_c, 0, 66, 0
2, 48805, Note_on_c, 0, 60, 0
2, 48809, Note_on_c, 0, 69, 0
2, 48809, Note_on_c, 0, 63, 0
2, 48836, Note_on_c, 0, 47, 60
2, 48840, Note_on_c, 0, 59, 60
2, 48841, Note_on_c, 0, 65, 60
2, 48844, Note_on_c, 0, 68, 60
2, 48850, Note_on_c, 0, 62, 60
2, 48868, Note_on_c, 0, 62, 0
2, 48872, Note_on_c, 0, 65, 0
2, 48879, Note_on_c, 0, 68, 0
2, 48908, Note_on_c, 0, 74, 60
2, 48930, Note_on_c, 0, 47, 0
2, 48934, Note_on_c, 0, 59, 0
2, 48938, Note_on_c, 0, 74, 0
2, 48962, Note_on_c, 0, 59, 60
2, 48962, Note_on_c, 0, 47, 60
2, 48964, Note_on_c, 0, 65, 60
2, 48969, Note_on_c, 0, 68, 60
2, 48969, Note_on_c, 0, 62, 60
2, 48991, Note_on_c, 0, 47, 0
2, 48995, Note_on_c, 0, 65, 0
2, 48998, Note_on_c, 0, 62, 0
2, 49000, Note_on_c, 0, 68, 0
2, 49000, Note_on_c, 0, 59, 0
2, 49020, Note_on_c, 0, 46, 60
2, 49022, Note_on_c, 0, 61, 60
2, 49022, Note_on_c, 0, 64, 60
2, 49022, Note_on_c, 0, 58, 60
2, 49026, Note_on_c, 0, 67, 60
2, 49114, Note_on_c, 0, 67, 0
2, 49114, Note_on_c, 0, 61, 0
2, 49118, Note_on_c, 0, 64, 0
2, 49147, Note_on_c, 0, 73, 60
2, 49174, Note_on_c, 0, 46, 0
2, 49174, Note_on_c, 0, 58, 0
2, 49177, Note_on_c, 0, 73, 0
2, 49202, Note_on_c, 0, 45, 60
2, 49204, Note_on_c, 0, 63, 60
2, 49204, Note_on_c, 0, 57, 60
2, 49206, Note_on_c, 0, 60, 60
2, 49208, Note_on_c, 0, 66, 60
2, 49286, Note_on_c, 0, 45, 0
2, 49295, Note_on_c, 0, 60, 0
2, 49295, Note_on_c, 0, 57, 0
2, 49298, Note_on_c, 0, 63, 0
2, 49298, Note_on_c, 0, 66, 0
2, 49319, Note_on_c, 0, 56, 60
2, 49319, Note_on_c, 0, 59, 60
2, 49319, Note_on_c, 0, 44, 60
2, 49323, Note_on_c, 0, 65, 60
2, 49323, Note_on_c, 0, 63, 60
2, 49352, Note_on_c, 0, 65, 0
2, 49356, Note_on_c, 0, 59, 0
2, 49356, Note_on_c, 0, 63, 0
2, 49385, Note_on_c, 0, 71, 60
2, 49407, Note_on_c, 0, 44, 0
2, 49416, Note_on_c, 0, 56, 0
2, 49419, Note_on_c, 0, 71, 0
2, 49436, Note_on_c, 0, 56, 60
2, 49438, Note_on_c, 0, 44, 60
2, 49440, Note_on_c, 0, 59, 60
2, 49441, Note_on_c, 0, 65, 60
2, 49444, Note_on_c, 0, 63, 60
2, 49464, Note_on_c, 0, 44, 0
2, 49468, Note_on_c, 0, 65, 0
2, 49468, Note_on_c, 0, 56, 0
2, 49472, Note_on_c, 0, 59, 0
2, 49472, Note_on_c, 0, 63, 0
2, 49495, Note_on_c, 0, 43, 60
2, 49497, Note_on_c, 0, 63, 60
2, 49497, Note_on_c, 0, 58, 60
2, 49501, Note_on_c, 0, 61, 60
2, 49501, Note_on_c, 0, 55, 60
2, 49585, Note_on_c, 0, 43, 0
2, 49587, Note_on_c, 0, 55, 0
2, 49612, Note_on_c, 0, 51, 60
2, 49645, Note_on_c, 0, 51, 0
2, 49669, Note_on_c, 0, 39, 60
2, 49753, Note_on_c, 0, 39, 0
2, 49761, Note_on_c, 0, 61, 0
2, 49761, Note_on_c, 0, 58, 0
2, 49766, Note_on_c, 0, 63, 0
2, 49797, Note_on_c, 0, 44, 60
2, 49799, Note_on_c, 0, 56, 60
2, 49884, Note_on_c, 0, 44, 0
2, 49891, Note_on_c, 0, 56, 0
2, 49913, Note_on_c, 0, 51, 60
2, 49915, Note_on_c, 0, 56, 60
2, 49920, Note_on_c, 0, 63, 60
2, 49920, Note_on_c, 0, 68, 60
2, 49920, Note_on_c, 0, 60, 60
2, 49923, Note_on_c, 0, 75, 60
2, 49923, Note_on_c, 0, 72, 60
2, 49947, Note_on_c, 0, 75, 0
2, 49947, Note_on_c, 0, 63, 0
2, 49952, Note_on_c, 0, 68, 0
2, 49952, Note_on_c, 0, 72, 0
2, 49974, Note_on_c, 0, 65, 60
2, 49976, Note_on_c, 0, 72, 60
2, 49976, Note_on_c, 0, 68, 60
2, 49981, Note_on_c, 0, 77, 60
2, 50001, Note_on_c, 0, 51, 0
2, 50005, Note_on_c, 0, 56, 0
2, 50005, Note_on_c, 0, 60, 0
2, 50025, Note_on_c, 0, 51, 60
2, 50025, Note_on_c, 0, 39, 60
2, 50061, Note_on_c, 0, 65, 0
2, 50063, Note_on_c, 0, 77, 0
2, 50064, Note_on_c, 0, 68, 0
2, 50066, Note_on_c, 0, 72, 0
2, 50093, Note_on_c, 0, 75, 60
2, 50112, Note_on_c, 0, 39, 0
2, 50120, Note_on_c, 0, 51, 0
2, 50124, Note_on_c, 0, 75, 0
2, 50144, Note_on_c, 0, 51, 60
2, 50151, Note_on_c, 0, 60, 60
2, 50151, Note_on_c, 0, 63, 60
2, 50151, Note_on_c, 0, 56, 60
2, 50155, Note_on_c, 0, 72, 60
2, 50159, Note_on_c, 0, 68, 60
2, 50238, Note_on_c, 0, 51, 0
2, 50240, Note_on_c, 0, 56, 0
2, 50240, Note_on_c, 0, 60, 0
2, 50243, Note_on_c, 0, 63, 0
2, 50243, Note_on_c, 0, 68, 0
2, 50245, Note_on_c, 0, 72, 0
2, 50263, Note_on_c, 0, 44, 60
2, 50265, Note_on_c, 0, 63, 60
2, 50265, Note_on_c, 0, 56, 60
2, 50271, Note_on_c, 0, 68, 60
2, 50276, Note_on_c, 0, 72, 60
2, 50304, Note_on_c, 0, 72, 0
2, 50328, Note_on_c, 0, 75, 60
2, 50352, Note_on_c, 0, 44, 0
2, 50353, Note_on_c, 0, 56, 0
2, 50359, Note_on_c, 0, 75, 0
2, 50361, Note_on_c, 0, 68, 0
2, 50361, Note_on_c, 0, 63, 0
2, 50382, Note_on_c, 0, 56, 60
2, 50382, Note_on_c, 0, 44, 60
2, 50384, Note_on_c, 0, 63, 60
2, 50388, Note_on_c, 0, 72, 60
2, 50388, Note_on_c, 0, 68, 60
2, 50408, Note_on_c, 0, 44, 0
2, 50415, Note_on_c, 0, 56, 0
2, 50417, Note_on_c, 0, 72, 0
2, 50419, Note_on_c, 0, 63, 0
2, 50419, Note_on_c, 0, 68, 0
2, 50435, Note_on_c, 0, 51, 60
2, 50437, Note_on_c, 0, 39, 60
2, 50442, Note_on_c, 0, 61, 60
2, 50444, Note_on_c, 0, 67, 60
2, 50446, Note_on_c, 0, 70, 60
2, 50538, Note_on_c, 0, 70, 0
2, 50567, Note_on_c, 0, 72, 60
2, 50585, Note_on_c, 0, 39, 0
2, 50591, Note_on_c, 0, 67, 0
2, 50591, Note_on_c, 0, 51, 0
2, 50591, Note_on_c, 0, 61, 0
2, 50597, Note_on_c, 0, 72, 0
2, 50612, Note_on_c, 0, 40, 60
2, 50616, Note_on_c, 0, 52, 60
2, 50619, Note_on_c, 0, 67, 60
2, 50619, Note_on_c, 0, 61, 60
2, 50621, Note_on_c, 0, 70, 60
2, 50697, Note_on_c, 0, 40, 0
2, 50706, Note_on_c, 0, 61, 0
2, 50706, Note_on_c, 0, 52, 0
2, 50712, Note_on_c, 0, 67, 0
2, 50715, Note_on_c, 0, 70, 0
2, 50732, Note_on_c, 0, 41, 60
2, 50735, Note_on_c, 0, 60, 60
2, 50736, Note_on_c, 0, 53, 60
2, 50738, Note_on_c, 0, 65, 60
2, 50740, Note_on_c, 0, 68, 60
2, 50822, Note_on_c, 0, 41, 0
2, 50831, Note_on_c, 0, 65, 0
2, 50831, Note_on_c, 0, 60, 0
2, 50831, Note_on_c, 0, 53, 0
2, 50834, Note_on_c, 0, 68, 0
2, 50855, Note_on_c, 0, 56, 60
2, 50857, Note_on_c, 0, 60, 60
2, 50857, Note_on_c, 0, 53, 60
2, 50859, Note_on_c, 0, 48, 60
2, 50861, Note_on_c, 0, 68, 60
2, 50861, Note_on_c, 0, 65, 60
2, 50863, Note_on_c, 0, 72, 60
2, 50890, Note_on_c, 0, 65, 0
2, 50890, Note_on_c, 0, 60, 0
2, 50894, Note_on_c, 0, 68, 0
2, 50894, Note_on_c, 0, 72, 0
2, 50914, Note_on_c, 0, 65, 60
2, 50916, Note_on_c, 0, 68, 60
2, 50916, Note_on_c, 0, 73, 60
2, 50916, Note_on_c, 0, 61, 60
2, 50941, Note_on_c, 0, 48, 0
2, 50945, Note_on_c, 0, 53, 0
2, 50947, Note_on_c, 0, 56, 0
2, 50968, Note_on_c, 0, 48, 60
2, 50968, Note_on_c, 0, 36, 60
2, 51002, Note_on_c, 0, 61, 0
2, 51006, Note_on_c, 0, 65, 0
2, 51011, Note_on_c, 0, 73, 0
2, 51011, Note_on_c, 0, 68, 0
2, 51042, Note_on_c, 0, 72, 60
2, 51056, Note_on_c, 0, 36, 0
2, 51060, Note_on_c, 0, 48, 0
2, 51072, Note_on_c, 0, 72, 0
2, 51089, Note_on_c, 0, 48, 60
2, 51093, Note_on_c, 0, 56, 60
2, 51095, Note_on_c, 0, 53, 60
2, 51096, Note_on_c, 0, 65, 60
2, 51096, Note_on_c, 0, 68, 60
2, 51096, Note_on_c, 0, 60, 60
2, 51181, Note_on_c, 0, 48, 0
2, 51183, Note_on_c, 0, 56, 0
2, 51187, Note_on_c, 0, 60, 0
2, 51189, Note_on_c, 0, 65, 0
2, 51189, Note_on_c, 0, 53, 0
2, 51192, Note_on_c, 0, 68, 0
2, 51205, Note_on_c, 0, 41, 60
2, 51210, Note_on_c, 0, 53, 60
2, 51212, Note_on_c, 0, 65, 60
2, 51212, Note_on_c, 0, 60, 60
2, 51217, Note_on_c, 0, 68, 60
2, 51250, Note_on_c, 0, 68, 0
2, 51279, Note_on_c, 0, 72, 60
2, 51297, Note_on_c, 0, 41, 0
2, 51306, Note_on_c, 0, 53, 0
2, 51306, Note_on_c, 0, 65, 0
2, 51308, Note_on_c, 0, 60, 0
2, 51315, Note_on_c, 0, 72, 0
2, 51330, Note_on_c, 0, 41, 60
2, 51335, Note_on_c, 0, 53, 60
2, 51336, Note_on_c, 0, 65, 60
2, 51336, Note_on_c, 0, 60, 60
2, 51344, Note_on_c, 0, 68, 60
2, 51363, Note_on_c, 0, 41, 0
2, 51367, Note_on_c, 0, 53, 0
2, 51371, Note_on_c, 0, 60, 0
2, 51371, Note_on_c, 0, 65, 0
2, 51371, Note_on_c, 0, 68, 0
2, 51389, Note_on_c, 0, 36, 60
2, 51396, Note_on_c, 0, 58, 60
2, 51396, Note_on_c, 0, 64, 60
2, 51396, Note_on_c, 0, 67, 60
2, 51396, Note_on_c, 0, 48, 60
2, 51494, Note_on_c, 0, 67, 0
2, 51523, Note_on_c, 0, 68, 60
2, 51541, Note_on_c, 0, 36, 0
2, 51545, Note_on_c, 0, 48, 0
2, 51550, Note_on_c, 0, 58, 0
2, 51553, Note_on_c, 0, 64, 0
2, 51553, Note_on_c, 0, 68, 0
2, 51570, Note_on_c, 0, 36, 60
2, 51576, Note_on_c, 0, 48, 60
2, 51578, Note_on_c, 0, 64, 60
2, 51578, Note_on_c, 0, 67, 60
2, 51578, Note_on_c, 0, 58, 60
2, 51662, Note_on_c, 0, 36, 0
2, 51666, Note_on_c, 0, 48, 0
2, 51668, Note_on_c, 0, 58, 0
2, 51671, Note_on_c, 0, 67, 0
2, 51674, Note_on_c, 0, 64, 0
2, 51698, Note_on_c, 0, 49, 60
2, 51701, Note_on_c, 0, 56, 60
2, 51705, Note_on_c, 0, 65, 60
2, 51705, Note_on_c, 0, 61, 60
2, 51709, Note_on_c, 0, 37, 60
2, 51789, Note_on_c, 0, 61, 0
2, 51793, Note_on_c, 0, 65, 0
2, 51793, Note_on_c, 0, 56, 0
2, 51824, Note_on_c, 0, 68, 60
2, 51840, Note_on_c, 0, 37, 0
2, 51846, Note_on_c, 0, 49, 0
2, 51855, Note_on_c, 0, 68, 0
2, 51873, Note_on_c, 0, 41, 60
2, 51875, Note_on_c, 0, 58, 60
2, 51877, Note_on_c, 0, 53, 60
2, 51879, Note_on_c, 0, 65, 60
2, 51879, Note_on_c, 0, 61, 60
2, 51883, Note_on_c, 0, 70, 60
2, 51963, Note_on_c, 0, 61, 0
2, 51963, Note_on_c, 0, 65, 0
2, 51963, Note_on_c, 0, 58, 0
2, 51967, Note_on_c, 0, 70, 0
2, 51996, Note_on_c, 0, 68, 60
2, 52014, Note_on_c, 0, 41, 0
2, 52022, Note_on_c, 0, 53, 0
2, 52049, Note_on_c, 0, 52, 60
2, 52049, Note_on_c, 0, 40, 60
2, 52053, Note_on_c, 0, 56, 60
2, 52061, Note_on_c, 0, 68, 0
2, 52114, Note_on_c, 0, 56, 0
2, 52114, Note_on_c, 0, 58, 60
2, 52137, Note_on_c, 0, 40, 0
2, 52141, Note_on_c, 0, 52, 0
2, 52168, Note_on_c, 0, 51, 60
2, 52168, Note_on_c, 0, 39, 60
2, 52170, Note_on_c, 0, 60, 60
2, 52172, Note_on_c, 0, 58, 0
2, 52237, Note_on_c, 0, 60, 0
2, 52240, Note_on_c, 0, 63, 60
2, 52296, Note_on_c, 0, 63, 0
2, 52298, Note_on_c, 0, 68, 60
2, 52320, Note_on_c, 0, 39, 0
2, 52323, Note_on_c, 0, 51, 0
2, 52348, Note_on_c, 0, 41, 60
2, 52352, Note_on_c, 0, 53, 60
2, 52356, Note_on_c, 0, 63, 60
2, 52358, Note_on_c, 0, 72, 60
2, 52358, Note_on_c, 0, 69, 60
2, 52360, Note_on_c, 0, 68, 0
2, 52446, Note_on_c, 0, 63, 0
2, 52446, Note_on_c, 0, 69, 0
2, 52448, Note_on_c, 0, 72, 0
2, 52473, Note_on_c, 0, 65, 60
2, 52493, Note_on_c, 0, 41, 0
2, 52502, Note_on_c, 0, 53, 0
2, 52506, Note_on_c, 0, 65, 0
2, 52526, Note_on_c, 0, 51, 60
2, 52528, Note_on_c, 0, 39, 60
2, 52533, Note_on_c, 0, 60, 60
2, 52535, Note_on_c, 0, 69, 60
2, 52536, Note_on_c, 0, 72, 60
2, 52612, Note_on_c, 0, 39, 0
2, 52618, Note_on_c, 0, 51, 0
2, 52623, Note_on_c, 0, 60, 0
2, 52627, Note_on_c, 0, 69, 0
2, 52627, Note_on_c, 0, 72, 0
2, 52641, Note_on_c, 0, 38, 60
2, 52645, Note_on_c, 0, 50, 60
2, 52647, Note_on_c, 0, 58, 60
2, 52704, Note_on_c, 0, 65, 60
2, 52706, Note_on_c, 0, 58, 0
2, 52768, Note_on_c, 0, 68, 60
2, 52770, Note_on_c, 0, 65, 0
2, 52788, Note_on_c, 0, 38, 0
2, 52795, Note_on_c, 0, 50, 0
2, 52819, Note_on_c, 0, 51, 60
2, 52821, Note_on_c, 0, 39, 60
2, 52825, Note_on_c, 0, 61, 60
2, 52827, Note_on_c, 0, 67, 60
2, 52829, Note_on_c, 0, 72, 60
2, 52831, Note_on_c, 0, 68, 0
2, 52909, Note_on_c, 0, 61, 0
2, 52913, Note_on_c, 0, 67, 0
2, 52918, Note_on_c, 0, 72, 0
2, 52942, Note_on_c, 0, 70, 60
2, 52965, Note_on_c, 0, 39, 0
2, 52970, Note_on_c, 0, 51, 0
2, 52974, Note_on_c, 0, 70, 0
2, 52992, Note_on_c, 0, 51, 60
2, 52993, Note_on_c, 0, 39, 60
2, 52999, Note_on_c, 0, 61, 60
2, 53001, Note_on_c, 0, 72, 60
2, 53001, Note_on_c, 0, 67, 60
2, 53079, Note_on_c, 0, 39, 0
2, 53086, Note_on_c, 0, 51, 0
2, 53086, Note_on_c, 0, 67, 0
2, 53086, Note_on_c, 0, 61, 0
2, 53091, Note_on_c, 0, 72, 0
2, 53112, Note_on_c, 0, 44, 60
2, 53114, Note_on_c, 0, 60, 60
2, 53114, Note_on_c, 0, 56, 60
2, 53118, Note_on_c, 0, 68, 60
2, 53118, Note_on_c, 0, 63, 60
2, 53204, Note_on_c, 0, 44, 0
2, 53207, Note_on_c, 0, 56, 0
2, 53227, Note_on_c, 0, 51, 60
2, 53325, Note_on_c, 0, 51, 0
2, 53352, Note_on_c, 0, 44, 60
2, 53355, Note_on_c, 0, 56, 60
2, 53440, Note_on_c, 0, 44, 0
2, 53448, Note_on_c, 0, 60, 0
2, 53448, Note_on_c, 0, 56, 0
2, 53454, Note_on_c, 0, 63, 0
2, 53454, Note_on_c, 0, 68, 0
2, 53474, Note_on_c, 0, 57, 60
2, 53474, Note_on_c, 0, 45, 60
2, 53478, Note_on_c, 0, 63, 60
2, 53483, Note_on_c, 0, 75, 60
2, 53567, Note_on_c, 0, 45, 0
2, 53575, Note_on_c, 0, 57, 0
2, 53597, Note_on_c, 0, 58, 60
2, 53599, Note_on_c, 0, 46, 60
2, 53686, Note_on_c, 0, 46, 0
2, 53689, Note_on_c, 0, 58, 0
2, 53693, Note_on_c, 0, 63, 0
2, 53693, Note_on_c, 0, 75, 0
2, 53714, Note_on_c, 0, 51, 60
2, 53724, Note_on_c, 0, 61, 60
2, 53724, Note_on_c, 0, 55, 60
2, 53726, Note_on_c, 0, 73, 60
2, 53729, Note_on_c, 0, 67, 60
2, 53731, Note_on_c, 0, 79, 60
2, 53807, Note_on_c, 0, 61, 0
2, 53810, Note_on_c, 0, 51, 0
2, 53810, Note_on_c, 0, 55, 0
2, 53834, Note_on_c, 0, 51, 60
2, 53834, Note_on_c, 0, 39, 60
2, 53874, Note_on_c, 0, 67, 0
2, 53876, Note_on_c, 0, 73, 0
2, 53880, Note_on_c, 0, 79, 0
2, 53904, Note_on_c, 0, 77, 60
2, 53925, Note_on_c, 0, 39, 0
2, 53933, Note_on_c, 0, 51, 0
2, 53955, Note_on_c, 0, 51, 60
2, 53960, Note_on_c, 0, 55, 60
2, 53962, Note_on_c, 0, 61, 60
2, 53968, Note_on_c, 0, 77, 0
2, 53970, Note_on_c, 0, 75, 60
2, 54025, Note_on_c, 0, 75, 0
2, 54029, Note_on_c, 0, 73, 60
2, 54049, Note_on_c, 0, 61, 0
2, 54049, Note_on_c, 0, 51, 0
2, 54054, Note_on_c, 0, 55, 0
2, 54076, Note_on_c, 0, 46, 60
2, 54080, Note_on_c, 0, 58, 60
2, 54114, Note_on_c, 0, 73, 0
2, 54144, Note_on_c, 0, 63, 60
2, 54167, Note_on_c, 0, 46, 0
2, 54170, Note_on_c, 0, 58, 0
2, 54195, Note_on_c, 0, 51, 60
2, 54199, Note_on_c, 0, 55, 60
2, 54201, Note_on_c, 0, 61, 60
2, 54208, Note_on_c, 0, 63, 0
2, 54208, Note_on_c, 0, 65, 60
2, 54261, Note_on_c, 0, 65, 0
2, 54261, Note_on_c, 0, 66, 60
2, 54288, Note_on_c, 0, 61, 0
2, 54288, Note_on_c, 0, 51, 0
2, 54288, Note_on_c, 0, 55, 0
2, 54310, Note_on_c, 0, 51, 60
2, 54318, Note_on_c, 0, 63, 60
2, 54320, Note_on_c, 0, 67, 60
2, 54322, Note_on_c, 0, 66, 0
2, 54380, Note_on_c, 0, 72, 60
2, 54382, Note_on_c, 0, 67, 0
2, 54407, Note_on_c, 0, 51, 0
2, 54408, Note_on_c, 0, 63, 0
2, 54431, Note_on_c, 0, 49, 60
2, 54437, Note_on_c, 0, 61, 60
2, 54494, Note_on_c, 0, 70, 60
2, 54499, Note_on_c, 0, 72, 0
2, 54521, Note_on_c, 0, 49, 0
2, 54521, Note_on_c, 0, 61, 0
2, 54550, Note_on_c, 0, 48, 60
2, 54553, Note_on_c, 0, 60, 60
2, 54555, Note_on_c, 0, 68, 60
2, 54558, Note_on_c, 0, 70, 0
2, 54633, Note_on_c, 0, 48, 0
2, 54640, Note_on_c, 0, 60, 0
2, 54642, Note_on_c, 0, 68, 0
2, 54658, Note_on_c, 0, 51, 60
2, 54667, Note_on_c, 0, 60, 60
2, 54667, Note_on_c, 0, 56, 60
2, 54671, Note_on_c, 0, 68, 60
2, 54699, Note_on_c, 0, 68, 0
2, 54728, Note_on_c, 0, 72, 60
2, 54732, Note_on_c, 0, 79, 60
2, 54754, Note_on_c, 0, 56, 0
2, 54756, Note_on_c, 0, 51, 0
2, 54759, Note_on_c, 0, 60, 0
2, 54777, Note_on_c, 0, 51, 60
2, 54777, Note_on_c, 0, 39, 60
2, 54820, Note_on_c, 0, 72, 0
2, 54824, Note_on_c, 0, 79, 0
2, 54848, Note_on_c, 0, 68, 60
2, 54867, Note_on_c, 0, 39, 0
2, 54873, Note_on_c, 0, 51, 0
2, 54879, Note_on_c, 0, 68, 0
2, 54898, Note_on_c, 0, 51, 60
2, 54900, Note_on_c, 0, 56, 60
2, 54902, Note_on_c, 0, 60, 60
2, 54906, Note_on_c, 0, 72, 60
2, 54910, Note_on_c, 0, 77, 60
2, 54992, Note_on_c, 0, 51, 0
2, 54994, Note_on_c, 0, 56, 0
2, 54994, Note_on_c, 0, 60, 0
2, 54998, Note_on_c, 0, 72, 0
2, 54998, Note_on_c, 0, 77, 0
2, 55019, Note_on_c, 0, 44, 60
2, 55021, Note_on_c, 0, 56, 60
2, 55031, Note_on_c, 0, 68, 60
2, 55061, Note_on_c, 0, 68, 0
2, 55090, Note_on_c, 0, 75, 60
2, 55090, Note_on_c, 0, 72, 60
2, 55113, Note_on_c, 0, 44, 0
2, 55119, Note_on_c, 0, 56, 0
2, 55144, Note_on_c, 0, 56, 60
2, 55144, Note_on_c, 0, 51, 60
2, 55148, Note_on_c, 0, 60, 60
2, 55180, Note_on_c, 0, 75, 0
2, 55184, Note_on_c, 0, 72, 0
2, 55213, Note_on_c, 0, 68, 60
2, 55234, Note_on_c, 0, 51, 0
2, 55238, Note_on_c, 0, 60, 0
2, 55238, Note_on_c, 0, 56, 0
2, 55242, Note_on_c, 0, 68, 0
2, 55260, Note_on_c, 0, 44, 60
2, 55265, Note_on_c, 0, 56, 60
2, 55267, Note_on_c, 0, 77, 60
2, 55269, Note_on_c, 0, 72, 60
2, 55346, Note_on_c, 0, 44, 0
2, 55357, Note_on_c, 0, 56, 0
2, 55357, Note_on_c, 0, 77, 0
2, 55361, Note_on_c, 0, 72, 0
2, 55379, Note_on_c, 0, 57, 60
2, 55379, Note_on_c, 0, 66, 60
2, 55379, Note_on_c, 0, 45, 60
2, 55383, Note_on_c, 0, 72, 60
2, 55388, Note_on_c, 0, 75, 60
2, 55463, Note_on_c, 0, 45, 0
2, 55469, Note_on_c, 0, 57, 0
2, 55469, Note_on_c, 0, 75, 0
2, 55469, Note_on_c, 0, 66, 0
2, 55473, Note_on_c, 0, 72, 0
2, 55489, Note_on_c, 0, 46, 60
2, 55493, Note_on_c, 0, 58, 60
2, 55582, Note_on_c, 0, 46, 0
2, 55588, Note_on_c, 0, 58, 0
2, 55610, Note_on_c, 0, 51, 60
2, 55614, Note_on_c, 0, 55, 60
2, 55616, Note_on_c, 0, 61, 60
2, 55619, Note_on_c, 0, 67, 60
2, 55650, Note_on_c, 0, 67, 0
2, 55680, Note_on_c, 0, 79, 60
2, 55680, Note_on_c, 0, 73, 60
2, 55704, Note_on_c, 0, 61, 0
2, 55708, Note_on_c, 0, 55, 0
2, 55731, Note_on_c, 0, 39, 60
2, 55768, Note_on_c, 0, 73, 0
2, 55775, Note_on_c, 0, 79, 0
2, 55800, Note_on_c, 0, 67, 60
2, 55818, Note_on_c, 0, 39, 0
2, 55825, Note_on_c, 0, 67, 0
2, 55825, Note_on_c, 0, 51, 0
2, 55852, Note_on_c, 0, 51, 60
2, 55854, Note_on_c, 0, 55, 60
2, 55858, Note_on_c, 0, 61, 60
2, 55860, Note_on_c, 0, 77, 60
2, 55860, Note_on_c, 0, 73, 60
2, 55938, Note_on_c, 0, 61, 0
2, 55943, Note_on_c, 0, 51, 0
2, 55943, Note_on_c, 0, 73, 0
2, 55943, Note_on_c, 0, 55, 0
2, 55948, Note_on_c, 0, 77, 0
2, 55968, Note_on_c, 0, 58, 60
2, 55968, Note_on_c, 0, 46, 60
2, 55973, Note_on_c, 0, 67, 60
2, 56006, Note_on_c, 0, 67, 0
2, 56040, Note_on_c, 0, 75, 60
2, 56040, Note_on_c, 0, 73, 60
2, 56057, Note_on_c, 0, 46, 0
2, 56064, Note_on_c, 0, 58, 0
2, 56091, Note_on_c, 0, 55, 60
2, 56091, Note_on_c, 0, 51, 60
2, 56094, Note_on_c, 0, 61, 60
2, 56127, Note_on_c, 0, 75, 0
2, 56127, Note_on_c, 0, 73, 0
2, 56156, Note_on_c, 0, 67, 60
2, 56178, Note_on_c, 0, 51, 0
2, 56178, Note_on_c, 0, 61, 0
2, 56182, Note_on_c, 0, 55, 0
2, 56184, Note_on_c, 0, 67, 0
2, 56207, Note_on_c, 0, 46, 60
2, 56212, Note_on_c, 0, 58, 60
2, 56214, Note_on_c, 0, 73, 60
2, 56217, Note_on_c, 0, 77, 60
2, 56297, Note_on_c, 0, 46, 0
2, 56301, Note_on_c, 0, 58, 0
2, 56306, Note_on_c, 0, 73, 0
2, 56306, Note_on_c, 0, 77, 0
2, 56329, Note_on_c, 0, 47, 60
2, 56335, Note_on_c, 0, 59, 60
2, 56337, Note_on_c, 0, 67, 60
2, 56342, Note_on_c, 0, 75, 60
2, 56342, Note_on_c, 0, 73, 60
2, 56424, Note_on_c, 0, 47, 0
2, 56429, Note_on_c, 0, 73, 0
2, 56432, Note_on_c, 0, 67, 0
2, 56436, Note_on_c, 0, 59, 0
2, 56436, Note_on_c, 0, 75, 0
2, 56458, Note_on_c, 0, 48, 60
2, 56463, Note_on_c, 0, 60, 60
2, 56548, Note_on_c, 0, 48, 0
2, 56557, Note_on_c, 0, 60, 0
2, 56575, Note_on_c, 0, 51, 60
2, 56579, Note_on_c, 0, 60, 60
2, 56579, Note_on_c, 0, 56, 60
2, 56588, Note_on_c, 0, 68, 60
2, 56618, Note_on_c, 0, 68, 0
2, 56644, Note_on_c, 0, 72, 60
2, 56649, Note_on_c, 0, 79, 60
2, 56669, Note_on_c, 0, 51, 0
2, 56671, Note_on_c, 0, 60, 0
2, 56671, Note_on_c, 0, 56, 0
2, 56694, Note_on_c, 0, 51, 60
2, 56694, Note_on_c, 0, 39, 60
2, 56736, Note_on_c, 0, 72, 0
2, 56736, Note_on_c, 0, 79, 0
2, 56761, Note_on_c, 0, 68, 60
2, 56778, Note_on_c, 0, 39, 0
2, 56786, Note_on_c, 0, 51, 0
2, 56794, Note_on_c, 0, 68, 0
2, 56810, Note_on_c, 0, 51, 60
2, 56812, Note_on_c, 0, 56, 60
2, 56817, Note_on_c, 0, 60, 60
2, 56821, Note_on_c, 0, 77, 60
2, 56821, Note_on_c, 0, 72, 60
2, 56901, Note_on_c, 0, 60, 0
2, 56901, Note_on_c, 0, 51, 0
2, 56901, Note_on_c, 0, 56, 0
2, 56904, Note_on_c, 0, 77, 0
2, 56904, Note_on_c, 0, 72, 0
2, 56926, Note_on_c, 0, 44, 60
2, 56929, Note_on_c, 0, 56, 60
2, 56933, Note_on_c, 0, 68, 60
2, 56964, Note_on_c, 0, 68, 0
2, 56997, Note_on_c, 0, 72, 60
2, 56999, Note_on_c, 0, 75, 60
2, 57020, Note_on_c, 0, 44, 0
2, 57025, Note_on_c, 0, 56, 0
2, 57047, Note_on_c, 0, 56, 60
2, 57047, Note_on_c, 0, 51, 60
2, 57050, Note_on_c, 0, 60, 60
2, 57083, Note_on_c, 0, 75, 0
2, 57087, Note_on_c, 0, 72, 0
2, 57116, Note_on_c, 0, 68, 60
2, 57141, Note_on_c, 0, 51, 0
2, 57141, Note_on_c, 0, 60, 0
2, 57141, Note_on_c, 0, 56, 0
2, 57144, Note_on_c, 0, 68, 0
2, 57167, Note_on_c, 0, 44, 60
2, 57171, Note_on_c, 0, 56, 60
2, 57175, Note_on_c, 0, 72, 60
2, 57179, Note_on_c, 0, 77, 60
2, 57257, Note_on_c, 0, 44, 0
2, 57267, Note_on_c, 0, 56, 0
2, 57267, Note_on_c, 0, 77, 0
2, 57271, Note_on_c, 0, 72, 0
2, 57289, Note_on_c, 0, 45, 60
2, 57292, Note_on_c, 0, 57, 60
2, 57294, Note_on_c, 0, 66, 60
2, 57300, Note_on_c, 0, 75, 60
2, 57300, Note_on_c, 0, 72, 60
2, 57378, Note_on_c, 0, 45, 0
2, 57386, Note_on_c, 0, 75, 0
2, 57386, Note_on_c, 0, 57, 0
2, 57386, Note_on_c, 0, 66, 0
2, 57390, Note_on_c, 0, 72, 0
2, 57407, Note_on_c, 0, 46, 60
2, 57410, Note_on_c, 0, 58, 60
2, 57495, Note_on_c, 0, 46, 0
2, 57499, Note_on_c, 0, 58, 0
2, 57519, Note_on_c, 0, 51, 60
2, 57526, Note_on_c, 0, 67, 60
2, 57526, Note_on_c, 0, 55, 60
2, 57529, Note_on_c, 0, 61, 60
2, 57531, Note_on_c, 0, 79, 60
2, 57531, Note_on_c, 0, 73, 60
2, 57611, Note_on_c, 0, 61, 0
2, 57616, Note_on_c, 0, 55, 0
2, 57616, Note_on_c, 0, 51, 0
2, 57636, Note_on_c, 0, 51, 60
2, 57636, Note_on_c, 0, 39, 60
2, 57672, Note_on_c, 0, 67, 0
2, 57677, Note_on_c, 0, 73, 0
2, 57681, Note_on_c, 0, 79, 0
2, 57708, Note_on_c, 0, 77, 60
2, 57724, Note_on_c, 0, 39, 0
2, 57730, Note_on_c, 0, 51, 0
2, 57750, Note_on_c, 0, 51, 60
2, 57755, Note_on_c, 0, 55, 60
2, 57759, Note_on_c, 0, 61, 60
2, 57763, Note_on_c, 0, 75, 60
2, 57765, Note_on_c, 0, 77, 0
2, 57820, Note_on_c, 0, 75, 0
2, 57822, Note_on_c, 0, 73, 60
2, 57847, Note_on_c, 0, 51, 0
2, 57847, Note_on_c, 0, 61, 0
2, 57851, Note_on_c, 0, 55, 0
2, 57876, Note_on_c, 0, 46, 60
2, 57878, Note_on_c, 0, 58, 60
2, 57912, Note_on_c, 0, 73, 0
2, 57941, Note_on_c, 0, 63, 60
2, 57965, Note_on_c, 0, 46, 0
2, 57970, Note_on_c, 0, 58, 0
2, 57994, Note_on_c, 0, 51, 60
2, 57996, Note_on_c, 0, 55, 60
2, 58001, Note_on_c, 0, 63, 0
2, 58001, Note_on_c, 0, 65, 60
2, 58001, Note_on_c, 0, 61, 60
2, 58057, Note_on_c, 0, 65, 0
2, 58057, Note_on_c, 0, 66, 60
2, 58082, Note_on_c, 0, 61, 0
2, 58086, Note_on_c, 0, 51, 0
2, 58086, Note_on_c, 0, 55, 0
2, 58107, Note_on_c, 0, 51, 60
2, 58115, Note_on_c, 0, 63, 60
2, 58117, Note_on_c, 0, 66, 0
2, 58124, Note_on_c, 0, 67, 60
2, 58176, Note_on_c, 0, 67, 0
2, 58178, Note_on_c, 0, 72, 60
2, 58203, Note_on_c, 0, 51, 0
2, 58207, Note_on_c, 0, 63, 0
2, 58227, Note_on_c, 0, 49, 60
2, 58234, Note_on_c, 0, 61, 60
2, 58297, Note_on_c, 0, 70, 60
2, 58301, Note_on_c, 0, 72, 0
2, 58322, Note_on_c, 0, 49, 0
2, 58326, Note_on_c, 0, 61, 0
2, 58350, Note_on_c, 0, 48, 60
2, 58357, Note_on_c, 0, 60, 60
2, 58359, Note_on_c, 0, 70, 0
2, 58361, Note_on_c, 0, 68, 60
2, 58439, Note_on_c, 0, 48, 0
2, 58447, Note_on_c, 0, 68, 0
2, 58449, Note_on_c, 0, 60, 0
2, 58467, Note_on_c, 0, 51, 60
2, 58469, Note_on_c, 0, 60, 60
2, 58469, Note_on_c, 0, 56, 60
2, 58478, Note_on_c, 0, 68, 60
2, 58511, Note_on_c, 0, 68, 0
2, 58541, Note_on_c, 0, 79, 60
2, 58541, Note_on_c, 0, 72, 60
2, 58565, Note_on_c, 0, 51, 0
2, 58570, Note_on_c, 0, 60, 0
2, 58570, Note_on_c, 0, 56, 0
2, 58588, Note_on_c, 0, 51, 60
2, 58592, Note_on_c, 0, 39, 60
2, 58633, Note_on_c, 0, 72, 0
2, 58637, Note_on_c, 0, 79, 0
2, 58664, Note_on_c, 0, 68, 60
2, 58680, Note_on_c, 0, 39, 0
2, 58686, Note_on_c, 0, 51, 0
2, 58691, Note_on_c, 0, 68, 0
2, 58709, Note_on_c, 0, 51, 60
2, 58715, Note_on_c, 0, 56, 60
2, 58719, Note_on_c, 0, 60, 60
2, 58724, Note_on_c, 0, 77, 60
2, 58724, Note_on_c, 0, 72, 60
2, 58807, Note_on_c, 0, 51, 0
2, 58809, Note_on_c, 0, 56, 0
2, 58809, Note_on_c, 0, 60, 0
2, 58814, Note_on_c, 0, 77, 0
2, 58814, Note_on_c, 0, 72, 0
2, 58834, Note_on_c, 0, 44, 60
2, 58836, Note_on_c, 0, 56, 60
2, 58848, Note_on_c, 0, 68, 60
2, 58877, Note_on_c, 0, 68, 0
2, 58908, Note_on_c, 0, 75, 60
2, 58908, Note_on_c, 0, 72, 60
2, 58928, Note_on_c, 0, 44, 0
2, 58937, Note_on_c, 0, 56, 0
2, 58959, Note_on_c, 0, 51, 60
2, 58961, Note_on_c, 0, 60, 60
2, 58961, Note_on_c, 0, 56, 60
2, 59000, Note_on_c, 0, 75, 0
2, 59000, Note_on_c, 0, 72, 0
2, 59029, Note_on_c, 0, 68, 60
2, 59055, Note_on_c, 0, 56, 0
2, 59055, Note_on_c, 0, 51, 0
2, 59057, Note_on_c, 0, 60, 0
2, 59060, Note_on_c, 0, 68, 0
2, 59078, Note_on_c, 0, 56, 60
2, 59078, Note_on_c, 0, 44, 60
2, 59088, Note_on_c, 0, 72, 60
2, 59090, Note_on_c, 0, 77, 60
2, 59168, Note_on_c, 0, 44, 0
2, 59172, Note_on_c, 0, 56, 0
2, 59174, Note_on_c, 0, 77, 0
2, 59176, Note_on_c, 0, 72, 0
2, 59197, Note_on_c, 0, 42, 60
2, 59199, Note_on_c, 0, 54, 60
2, 59205, Note_on_c, 0, 72, 60
2, 59205, Note_on_c, 0, 75, 60
2, 59205, Note_on_c, 0, 68, 60
2, 59284, Note_on_c, 0, 42, 0
2, 59286, Note_on_c, 0, 54, 0
2, 59291, Note_on_c, 0, 75, 0
2, 59291, Note_on_c, 0, 68, 0
2, 59295, Note_on_c, 0, 72, 0
2, 59313, Note_on_c, 0, 41, 60
2, 59317, Note_on_c, 0, 53, 60
2, 59383, Note_on_c, 0, 69, 60
2, 59401, Note_on_c, 0, 41, 0
2, 59409, Note_on_c, 0, 53, 0
2, 59434, Note_on_c, 0, 53, 60
2, 59438, Note_on_c, 0, 60, 60
2, 59438, Note_on_c, 0, 57, 60
2, 59440, Note_on_c, 0, 63, 60
2, 59445, Note_on_c, 0, 69, 0
2, 59447, Note_on_c, 0, 72, 60
2, 59504, Note_on_c, 0, 75, 60
2, 59506, Note_on_c, 0, 72, 0
2, 59528, Note_on_c, 0, 57, 0
2, 59528, Note_on_c, 0, 60, 0
2, 59530, Note_on_c, 0, 53, 0
2, 59535, Note_on_c, 0, 63, 0
2, 59548, Note_on_c, 0, 45, 60
2, 59555, Note_on_c, 0, 57, 60
2, 59563, Note_on_c, 0, 75, 0
2, 59566, Note_on_c, 0, 78, 60
2, 59620, Note_on_c, 0, 69, 60
2, 59622, Note_on_c, 0, 78, 0
2, 59622, Note_on_c, 0, 75, 60
2, 59622, Note_on_c, 0, 77, 60
2, 59622, Note_on_c, 0, 72, 60
2, 59639, Note_on_c, 0, 45, 0
2, 59649, Note_on_c, 0, 57, 0
2, 59669, Note_on_c, 0, 57, 60
2, 59674, Note_on_c, 0, 60, 60
2, 59674, Note_on_c, 0, 53, 60
2, 59678, Note_on_c, 0, 63, 60
2, 59711, Note_on_c, 0, 77, 0
2, 59711, Note_on_c, 0, 75, 0
2, 59711, Note_on_c, 0, 72, 0
2, 59712, Note_on_c, 0, 69, 0
2, 59739, Note_on_c, 0, 75, 60
2, 59766, Note_on_c, 0, 57, 0
2, 59766, Note_on_c, 0, 60, 0
2, 59770, Note_on_c, 0, 63, 0
2, 59770, Note_on_c, 0, 53, 0
2, 59774, Note_on_c, 0, 75, 0
2, 59794, Note_on_c, 0, 49, 60
2, 59803, Note_on_c, 0, 61, 60
2, 59805, Note_on_c, 0, 78, 60
2, 59860, Note_on_c, 0, 70, 60
2, 59862, Note_on_c, 0, 73, 60
2, 59864, Note_on_c, 0, 78, 0
2, 59864, Note_on_c, 0, 77, 60
2, 59882, Note_on_c, 0, 49, 0
2, 59886, Note_on_c, 0, 61, 0
2, 59915, Note_on_c, 0, 61, 60
2, 59915, Note_on_c, 0, 65, 60
2, 59915, Note_on_c, 0, 58, 60
2, 59948, Note_on_c, 0, 73, 0
2, 59952, Note_on_c, 0, 77, 0
2, 59952, Note_on_c, 0, 70, 0
2, 59981, Note_on_c, 0, 71, 60
2, 59981, Note_on_c, 0, 77, 60
2, 59981, Note_on_c, 0, 68, 60
2, 60003, Note_on_c, 0, 61, 0
2, 60003, Note_on_c, 0, 58, 0
2, 60007, Note_on_c, 0, 65, 0
2, 60032, Note_on_c, 0, 50, 60
2, 60047, Note_on_c, 0, 62, 60
2, 60122, Note_on_c, 0, 62, 0
2, 60122, Note_on_c, 0, 50, 0
2, 60126, Note_on_c, 0, 77, 0
2, 60130, Note_on_c, 0, 68, 0
2, 60130, Note_on_c, 0, 71, 0
2, 60151, Note_on_c, 0, 56, 60
2, 60155, Note_on_c, 0, 65, 60
2, 60155, Note_on_c, 0, 68, 60
2, 60155, Note_on_c, 0, 62, 60
2, 60157, Note_on_c, 0, 77, 60
2, 60159, Note_on_c, 0, 71, 60
2, 60237, Note_on_c, 0, 62, 0
2, 60241, Note_on_c, 0, 65, 0
2, 60241, Note_on_c, 0, 56, 0
2, 60245, Note_on_c, 0, 68, 0
2, 60245, Note_on_c, 0, 71, 0
2, 60245, Note_on_c, 0, 77, 0
2, 60264, Note_on_c, 0, 51, 60
2, 60272, Note_on_c, 0, 68, 60
2, 60272, Note_on_c, 0, 63, 60
2, 60274, Note_on_c, 0, 72, 60
2, 60278, Note_on_c, 0, 77, 60
2, 60331, Note_on_c, 0, 75, 60
2, 60334, Note_on_c, 0, 77, 0
2, 60334, Note_on_c, 0, 72, 0
2, 60334, Note_on_c, 0, 68, 0
2, 60354, Note_on_c, 0, 51, 0
2, 60361, Note_on_c, 0, 63, 0
2, 60383, Note_on_c, 0, 56, 60
2, 60386, Note_on_c, 0, 63, 60
2, 60386, Note_on_c, 0, 60, 60
2, 60390, Note_on_c, 0, 72, 60
2, 60392, Note_on_c, 0, 75, 0
2, 60448, Note_on_c, 0, 72, 0
2, 60448, Note_on_c, 0, 68, 60
2, 60475, Note_on_c, 0, 56, 0
2, 60479, Note_on_c, 0, 60, 0
2, 60479, Note_on_c, 0, 63, 0
2, 60495, Note_on_c, 0, 41, 60
2, 60499, Note_on_c, 0, 53, 60
2, 60505, Note_on_c, 0, 70, 60
2, 60505, Note_on_c, 0, 62, 60
2, 60507, Note_on_c, 0, 68, 0
2, 60562, Note_on_c, 0, 68, 60
2, 60567, Note_on_c, 0, 70, 0
2, 60579, Note_on_c, 0, 41, 0
2, 60585, Note_on_c, 0, 62, 0
2, 60587, Note_on_c, 0, 53, 0
2, 60610, Note_on_c, 0, 39, 60
2, 60612, Note_on_c, 0, 51, 60
2, 60618, Note_on_c, 0, 61, 60
2, 60620, Note_on_c, 0, 68, 0
2, 60622, Note_on_c, 0, 70, 60
2, 60622, Note_on_c, 0, 67, 60
2, 60673, Note_on_c, 0, 61, 0
2, 60673, Note_on_c, 0, 60, 60
2, 60675, Note_on_c, 0, 63, 60
2, 60679, Note_on_c, 0, 67, 0
2, 60681, Note_on_c, 0, 70, 0
2, 60681, Note_on_c, 0, 68, 60
2, 60696, Note_on_c, 0, 39, 0
2, 60706, Note_on_c, 0, 51, 0
2, 60728, Note_on_c, 0, 44, 60
2, 60730, Note_on_c, 0, 56, 60
2, 60816, Note_on_c, 0, 44, 0
2, 60822, Note_on_c, 0, 56, 0
2, 60849, Note_on_c, 0, 51, 60
2, 60945, Note_on_c, 0, 51, 0
2, 60970, Note_on_c, 0, 44, 60
2, 60974, Note_on_c, 0, 56, 60
2, 61064, Note_on_c, 0, 44, 0
2, 61071, Note_on_c, 0, 60, 0
2, 61071, Note_on_c, 0, 56, 0
2, 61073, Note_on_c, 0, 68, 0
2, 61073, Note_on_c, 0, 63, 0
2, 61093, Note_on_c, 0, 45, 60
2, 61097, Note_on_c, 0, 57, 60
2, 61104, Note_on_c, 0, 63, 60
2, 61105, Note_on_c, 0, 75, 60
2, 61185, Note_on_c, 0, 45, 0
2, 61191, Note_on_c, 0, 57, 0
2, 61218, Note_on_c, 0, 46, 60
2, 61222, Note_on_c, 0, 58, 60
2, 61310, Note_on_c, 0, 46, 0
2, 61314, Note_on_c, 0, 58, 0
2, 61320, Note_on_c, 0, 75, 0
2, 61322, Note_on_c, 0, 63, 0
2, 61341, Note_on_c, 0, 51, 60
2, 61347, Note_on_c, 0, 61, 60
2, 61347, Note_on_c, 0, 55, 60
2, 61351, Note_on_c, 0, 67, 60
2, 61355, Note_on_c, 0, 79, 60
2, 61355, Note_on_c, 0, 73, 60
2, 61437, Note_on_c, 0, 61, 0
2, 61437, Note_on_c, 0, 51, 0
2, 61441, Note_on_c, 0, 55, 0
2, 61460, Note_on_c, 0, 51, 60
2, 61460, Note_on_c, 0, 39, 60
2, 61501, Note_on_c, 0, 67, 0
2, 61503, Note_on_c, 0, 73, 0
2, 61507, Note_on_c, 0, 79, 0
2, 61534, Note_on_c, 0, 77, 60
2, 61548, Note_on_c, 0, 39, 0
2, 61558, Note_on_c, 0, 51, 0
2, 61581, Note_on_c, 0, 51, 60
2, 61584, Note_on_c, 0, 55, 60
2, 61588, Note_on_c, 0, 61, 60
2, 61593, Note_on_c, 0, 77, 0
2, 61593, Note_on_c, 0, 75, 60
2, 61650, Note_on_c, 0, 73, 60
2, 61652, Note_on_c, 0, 75, 0
2, 61675, Note_on_c, 0, 51, 0
2, 61675, Note_on_c, 0, 61, 0
2, 61679, Note_on_c, 0, 55, 0
2, 61699, Note_on_c, 0, 46, 60
2, 61707, Note_on_c, 0, 58, 60
2, 61742, Note_on_c, 0, 73, 0
2, 61767, Note_on_c, 0, 63, 60
2, 61787, Note_on_c, 0, 46, 0
2, 61791, Note_on_c, 0, 58, 0
2, 61816, Note_on_c, 0, 51, 60
2, 61818, Note_on_c, 0, 55, 60
2, 61822, Note_on_c, 0, 65, 60
2, 61822, Note_on_c, 0, 61, 60
2, 61828, Note_on_c, 0, 63, 0
2, 61881, Note_on_c, 0, 65, 0
2, 61886, Note_on_c, 0, 66, 60
2, 61910, Note_on_c, 0, 51, 0
2, 61910, Note_on_c, 0, 61, 0
2, 61910, Note_on_c, 0, 55, 0
2, 61931, Note_on_c, 0, 51, 60
2, 61943, Note_on_c, 0, 66, 0
2, 61943, Note_on_c, 0, 67, 60
2, 61943, Note_on_c, 0, 63, 60
2, 62006, Note_on_c, 0, 67, 0
2, 62006, Note_on_c, 0, 72, 60
2, 62029, Note_on_c, 0, 51, 0
2, 62033, Note_on_c, 0, 63, 0
2, 62056, Note_on_c, 0, 49, 60
2, 62062, Note_on_c, 0, 61, 60
2, 62123, Note_on_c, 0, 70, 60
2, 62125, Note_on_c, 0, 72, 0
2, 62146, Note_on_c, 0, 49, 0
2, 62146, Note_on_c, 0, 61, 0
2, 62174, Note_on_c, 0, 48, 60
2, 62177, Note_on_c, 0, 60, 60
2, 62181, Note_on_c, 0, 68, 60
2, 62183, Note_on_c, 0, 70, 0
2, 62260, Note_on_c, 0, 48, 0
2, 62271, Note_on_c, 0, 60, 0
2, 62273, Note_on_c, 0, 68, 0
2, 62289, Note_on_c, 0, 51, 60
2, 62293, Note_on_c, 0, 56, 60
2, 62297, Note_on_c, 0, 60, 60
2, 62302, Note_on_c, 0, 68, 60
2, 62332, Note_on_c, 0, 68, 0
2, 62361, Note_on_c, 0, 72, 60
2, 62365, Note_on_c, 0, 79, 60
2, 62383, Note_on_c, 0, 51, 0
2, 62387, Note_on_c, 0, 56, 0
2, 62387, Note_on_c, 0, 60, 0
2, 62405, Note_on_c, 0, 51, 60
2, 62405, Note_on_c, 0, 39, 60
2, 62450, Note_on_c, 0, 72, 0
2, 62455, Note_on_c, 0, 79, 0
2, 62484, Note_on_c, 0, 68, 60
2, 62496, Note_on_c, 0, 39, 0
2, 62504, Note_on_c, 0, 51, 0
2, 62510, Note_on_c, 0, 68, 0
2, 62526, Note_on_c, 0, 51, 60
2, 62533, Note_on_c, 0, 60, 60
2, 62533, Note_on_c, 0, 56, 60
2, 62539, Note_on_c, 0, 72, 60
2, 62541, Note_on_c, 0, 77, 60
2, 62623, Note_on_c, 0, 51, 0
2, 62625, Note_on_c, 0, 60, 0
2, 62625, Note_on_c, 0, 56, 0
2, 62631, Note_on_c, 0, 72, 0
2, 62631, Note_on_c, 0, 77, 0
2, 62647, Note_on_c, 0, 44, 60
2, 62651, Note_on_c, 0, 56, 60
2, 62658, Note_on_c, 0, 68, 60
2, 62688, Note_on_c, 0, 68, 0
2, 62721, Note_on_c, 0, 75, 60
2, 62721, Note_on_c, 0, 72, 60
2, 62736, Note_on_c, 0, 44, 0
2, 62746, Note_on_c, 0, 56, 0
2, 62766, Note_on_c, 0, 51, 60
2, 62768, Note_on_c, 0, 60, 60
2, 62770, Note_on_c, 0, 56, 60
2, 62808, Note_on_c, 0, 75, 0
2, 62809, Note_on_c, 0, 72, 0
2, 62833, Note_on_c, 0, 68, 60
2, 62856, Note_on_c, 0, 51, 0
2, 62858, Note_on_c, 0, 56, 0
2, 62858, Note_on_c, 0, 60, 0
2, 62864, Note_on_c, 0, 68, 0
2, 62880, Note_on_c, 0, 44, 60
2, 62885, Note_on_c, 0, 56, 60
2, 62891, Note_on_c, 0, 72, 60
2, 62895, Note_on_c, 0, 77, 60
2, 62971, Note_on_c, 0, 44, 0
2, 62973, Note_on_c, 0, 56, 0
2, 62977, Note_on_c, 0, 77, 0
2, 62981, Note_on_c, 0, 72, 0
2, 62996, Note_on_c, 0, 45, 60
2, 62998, Note_on_c, 0, 57, 60
2, 63003, Note_on_c, 0, 72, 60
2, 63003, Note_on_c, 0, 66, 60
2, 63008, Note_on_c, 0, 75, 60
2, 63084, Note_on_c, 0, 45, 0
2, 63090, Note_on_c, 0, 66, 0
2, 63090, Note_on_c, 0, 57, 0
2, 63094, Note_on_c, 0, 75, 0
2, 63098, Note_on_c, 0, 72, 0
2, 63117, Note_on_c, 0, 46, 60
2, 63120, Note_on_c, 0, 58, 60
2, 63202, Note_on_c, 0, 46, 0
2, 63209, Note_on_c, 0, 58, 0
2, 63235, Note_on_c, 0, 51, 60
2, 63240, Note_on_c, 0, 61, 60
2, 63240, Note_on_c, 0, 55, 60
2, 63243, Note_on_c, 0, 67, 60
2, 63274, Note_on_c, 0, 67, 0
2, 63311, Note_on_c, 0, 79, 60
2, 63311, Note_on_c, 0, 73, 60
2, 63332, Note_on_c, 0, 61, 0
2, 63336, Note_on_c, 0, 51, 0
2, 63336, Note_on_c, 0, 55, 0
2, 63358, Note_on_c, 0, 51, 60
2, 63358, Note_on_c, 0, 39, 60
2, 63399, Note_on_c, 0, 73, 0
2, 63408, Note_on_c, 0, 79, 0
2, 63428, Note_on_c, 0, 67, 60
2, 63446, Note_on_c, 0, 39, 0
2, 63456, Note_on_c, 0, 51, 0
2, 63460, Note_on_c, 0, 67, 0
2, 63480, Note_on_c, 0, 51, 60
2, 63485, Note_on_c, 0, 55, 60
2, 63489, Note_on_c, 0, 61, 60
2, 63495, Note_on_c, 0, 73, 60
2, 63498, Note_on_c, 0, 77, 60
2, 63579, Note_on_c, 0, 61, 0
2, 63579, Note_on_c, 0, 51, 0
2, 63579, Note_on_c, 0, 55, 0
2, 63583, Note_on_c, 0, 73, 0
2, 63587, Note_on_c, 0, 77, 0
2, 63606, Note_on_c, 0, 46, 60
2, 63610, Note_on_c, 0, 58, 60
2, 63614, Note_on_c, 0, 67, 60
2, 63647, Note_on_c, 0, 67, 0
2, 63677, Note_on_c, 0, 75, 60
2, 63677, Note_on_c, 0, 73, 60
2, 63696, Note_on_c, 0, 46, 0
2, 63700, Note_on_c, 0, 58, 0
2, 63729, Note_on_c, 0, 55, 60
2, 63729, Note_on_c, 0, 51, 60
2, 63733, Note_on_c, 0, 61, 60
2, 63769, Note_on_c, 0, 75, 0
2, 63769, Note_on_c, 0, 73, 0
2, 63798, Note_on_c, 0, 67, 60
2, 63821, Note_on_c, 0, 51, 0
2, 63825, Note_on_c, 0, 61, 0
2, 63825, Note_on_c, 0, 55, 0
2, 63825, Note_on_c, 0, 67, 0
2, 63852, Note_on_c, 0, 46, 60
2, 63854, Note_on_c, 0, 58, 60
2, 63862, Note_on_c, 0, 77, 60
2, 63862, Note_on_c, 0, 73, 60
2, 63939, Note_on_c, 0, 46, 0
2, 63944, Note_on_c, 0, 58, 0
2, 63950, Note_on_c, 0, 77, 0
2, 63950, Note_on_c, 0, 73, 0
2, 63968, Note_on_c, 0, 47, 60
2, 63972, Note_on_c, 0, 59, 60
2, 63977, Note_on_c, 0, 67, 60
2, 63981, Note_on_c, 0, 73, 60
2, 63983, Note_on_c, 0, 75, 60
2, 64055, Note_on_c, 0, 47, 0
2, 64062, Note_on_c, 0, 67, 0
2, 64067, Note_on_c, 0, 59, 0
2, 64067, Note_on_c, 0, 73, 0
2, 64067, Note_on_c, 0, 75, 0
2, 64083, Note_on_c, 0, 48, 60
2, 64085, Note_on_c, 0, 60, 60
2, 64174, Note_on_c, 0, 48, 0
2, 64183, Note_on_c, 0, 60, 0
2, 64201, Note_on_c, 0, 51, 60
2, 64208, Note_on_c, 0, 60, 60
2, 64208, Note_on_c, 0, 56, 60
2, 64216, Note_on_c, 0, 68, 60
2, 64247, Note_on_c, 0, 68, 0
2, 64273, Note_on_c, 0, 72, 60
2, 64277, Note_on_c, 0, 79, 60
2, 64296, Note_on_c, 0, 51, 0
2, 64300, Note_on_c, 0, 60, 0
2, 64300, Note_on_c, 0, 56, 0
2, 64317, Note_on_c, 0, 51, 60
2, 64319, Note_on_c, 0, 39, 60
2, 64362, Note_on_c, 0, 72, 0
2, 64366, Note_on_c, 0, 79, 0
2, 64389, Note_on_c, 0, 68, 60
2, 64407, Note_on_c, 0, 39, 0
2, 64413, Note_on_c, 0, 51, 0
2, 64421, Note_on_c, 0, 68, 0
2, 64433, Note_on_c, 0, 51, 60
2, 64441, Note_on_c, 0, 60, 60
2, 64441, Note_on_c, 0, 56, 60
2, 64447, Note_on_c, 0, 72, 60
2, 64452, Note_on_c, 0, 77, 60
2, 64530, Note_on_c, 0, 60, 0
2, 64532, Note_on_c, 0, 51, 0
2, 64532, Note_on_c, 0, 56, 0
2, 64536, Note_on_c, 0, 77, 0
2, 64539, Note_on_c, 0, 72, 0
2, 64554, Note_on_c, 0, 44, 60
2, 64556, Note_on_c, 0, 56, 60
2, 64566, Note_on_c, 0, 68, 60
2, 64599, Note_on_c, 0, 68, 0
2, 64628, Note_on_c, 0, 75, 60
2, 64628, Note_on_c, 0, 72, 60
2, 64642, Note_on_c, 0, 44, 0
2, 64655, Note_on_c, 0, 56, 0
2, 64671, Note_on_c, 0, 51, 60
2, 64679, Note_on_c, 0, 56, 60
2, 64683, Note_on_c, 0, 60, 60
2, 64716, Note_on_c, 0, 75, 0
2, 64716, Note_on_c, 0, 72, 0
2, 64747, Note_on_c, 0, 68, 60
2, 64767, Note_on_c, 0, 51, 0
2, 64769, Note_on_c, 0, 60, 0
2, 64769, Note_on_c, 0, 56, 0
2, 64776, Note_on_c, 0, 68, 0
2, 64792, Note_on_c, 0, 44, 60
2, 64796, Note_on_c, 0, 56, 60
2, 64804, Note_on_c, 0, 72, 60
2, 64806, Note_on_c, 0, 77, 60
2, 64884, Note_on_c, 0, 44, 0
2, 64890, Note_on_c, 0, 56, 0
2, 64894, Note_on_c, 0, 77, 0
2, 64898, Note_on_c, 0, 72, 0
2, 64913, Note_on_c, 0, 45, 60
2, 64917, Note_on_c, 0, 57, 60
2, 64920, Note_on_c, 0, 66, 60
2, 64922, Note_on_c, 0, 75, 60
2, 64922, Note_on_c, 0, 72, 60
2, 64998, Note_on_c, 0, 45, 0
2, 65007, Note_on_c, 0, 57, 0
2, 65009, Note_on_c, 0, 66, 0
2, 65011, Note_on_c, 0, 75, 0
2, 65011, Note_on_c, 0, 72, 0
2, 65025, Note_on_c, 0, 46, 60
2, 65029, Note_on_c, 0, 58, 60
2, 65113, Note_on_c, 0, 46, 0
2, 65119, Note_on_c, 0, 58, 0
2, 65142, Note_on_c, 0, 51, 60
2, 65150, Note_on_c, 0, 55, 60
2, 65152, Note_on_c, 0, 61, 60
2, 65154, Note_on_c, 0, 73, 60
2, 65157, Note_on_c, 0, 67, 60
2, 65159, Note_on_c, 0, 79, 60
2, 65238, Note_on_c, 0, 61, 0
2, 65238, Note_on_c, 0, 51, 0
2, 65238, Note_on_c, 0, 55, 0
2, 65258, Note_on_c, 0, 51, 60
2, 65260, Note_on_c, 0, 39, 60
2, 65300, Note_on_c, 0, 67, 0
2, 65304, Note_on_c, 0, 73, 0
2, 65307, Note_on_c, 0, 79, 0
2, 65334, Note_on_c, 0, 77, 60
2, 65347, Note_on_c, 0, 39, 0
2, 65357, Note_on_c, 0, 51, 0
2, 65379, Note_on_c, 0, 51, 60
2, 65385, Note_on_c, 0, 55, 60
2, 65390, Note_on_c, 0, 61, 60
2, 65392, Note_on_c, 0, 77, 0
2, 65392, Note_on_c, 0, 75, 60
2, 65445, Note_on_c, 0, 73, 60
2, 65447, Note_on_c, 0, 75, 0
2, 65472, Note_on_c, 0, 51, 0
2, 65473, Note_on_c, 0, 61, 0
2, 65473, Note_on_c, 0, 55, 0
2, 65495, Note_on_c, 0, 46, 60
2, 65500, Note_on_c, 0, 58, 60
2, 65535, Note_on_c, 0, 73, 0
2, 65560, Note_on_c, 0, 63, 60
2, 65584, Note_on_c, 0, 46, 0
2, 65587, Note_on_c, 0, 58, 0
2, 65613, Note_on_c, 0, 51, 60
2, 65615, Note_on_c, 0, 55, 60
2, 65617, Note_on_c, 0, 61, 60
2, 65619, Note_on_c, 0, 63, 0
2, 65619, Note_on_c, 0, 65, 60
2, 65674, Note_on_c, 0, 65, 0
2, 65681, Note_on_c, 0, 66, 60
2, 65703, Note_on_c, 0, 61, 0
2, 65707, Note_on_c, 0, 51, 0
2, 65707, Note_on_c, 0, 55, 0
2, 65730, Note_on_c, 0, 51, 60
2, 65740, Note_on_c, 0, 66, 0
2, 65740, Note_on_c, 0, 63, 60
2, 65744, Note_on_c, 0, 67, 60
2, 65806, Note_on_c, 0, 67, 0
2, 65809, Note_on_c, 0, 72, 60
2, 65834, Note_on_c, 0, 51, 0
2, 65836, Note_on_c, 0, 63, 0
2, 65863, Note_on_c, 0, 49, 60
2, 65867, Note_on_c, 0, 61, 60
2, 65928, Note_on_c, 0, 72, 0
2, 65928, Note_on_c, 0, 70, 60
2, 65952, Note_on_c, 0, 49, 0
2, 65955, Note_on_c, 0, 61, 0
2, 65981, Note_on_c, 0, 48, 60
2, 65983, Note_on_c, 0, 60, 60
2, 65988, Note_on_c, 0, 70, 0
2, 65992, Note_on_c, 0, 68, 60
2, 66072, Note_on_c, 0, 48, 0
2, 66078, Note_on_c, 0, 60, 0
2, 66084, Note_on_c, 0, 68, 0
2, 66102, Note_on_c, 0, 51, 60
2, 66104, Note_on_c, 0, 60, 60
2, 66104, Note_on_c, 0, 56, 60
2, 66109, Note_on_c, 0, 68, 60
2, 66144, Note_on_c, 0, 68, 0
2, 66170, Note_on_c, 0, 72, 60
2, 66174, Note_on_c, 0, 79, 60
2, 66196, Note_on_c, 0, 51, 0
2, 66201, Note_on_c, 0, 60, 0
2, 66201, Note_on_c, 0, 56, 0
2, 66217, Note_on_c, 0, 51, 60
2, 66217, Note_on_c, 0, 39, 60
2, 66260, Note_on_c, 0, 72, 0
2, 66268, Note_on_c, 0, 79, 0
2, 66290, Note_on_c, 0, 68, 60
2, 66307, Note_on_c, 0, 39, 0
2, 66317, Note_on_c, 0, 51, 0
2, 66321, Note_on_c, 0, 68, 0
2, 66340, Note_on_c, 0, 51, 60
2, 66342, Note_on_c, 0, 56, 60
2, 66346, Note_on_c, 0, 60, 60
2, 66348, Note_on_c, 0, 72, 60
2, 66352, Note_on_c, 0, 77, 60
2, 66436, Note_on_c, 0, 51, 0
2, 66438, Note_on_c, 0, 56, 0
2, 66438, Note_on_c, 0, 60, 0
2, 66442, Note_on_c, 0, 72, 0
2, 66442, Note_on_c, 0, 77, 0
2, 66460, Note_on_c, 0, 44, 60
2, 66465, Note_on_c, 0, 56, 60
2, 66473, Note_on_c, 0, 68, 60
2, 66502, Note_on_c, 0, 68, 0
2, 66528, Note_on_c, 0, 75, 60
2, 66528, Note_on_c, 0, 72, 60
2, 66547, Note_on_c, 0, 44, 0
2, 66555, Note_on_c, 0, 56, 0
2, 66577, Note_on_c, 0, 56, 60
2, 66577, Note_on_c, 0, 51, 60
2, 66581, Note_on_c, 0, 60, 60
2, 66614, Note_on_c, 0, 75, 0
2, 66619, Note_on_c, 0, 72, 0
2, 66645, Note_on_c, 0, 68, 60
2, 66672, Note_on_c, 0, 51, 0
2, 66673, Note_on_c, 0, 60, 0
2, 66673, Note_on_c, 0, 56, 0
2, 66680, Note_on_c, 0, 68, 0
2, 66696, Note_on_c, 0, 44, 60
2, 66698, Note_on_c, 0, 56, 60
2, 66706, Note_on_c, 0, 77, 60
2, 66706, Note_on_c, 0, 72, 60
2, 66789, Note_on_c, 0, 44, 0
2, 66791, Note_on_c, 0, 56, 0
2, 66794, Note_on_c, 0, 77, 0
2, 66798, Note_on_c, 0, 72, 0
2, 66813, Note_on_c, 0, 42, 60
2, 66821, Note_on_c, 0, 54, 60
2, 66823, Note_on_c, 0, 72, 60
2, 66823, Note_on_c, 0, 68, 60
2, 66827, Note_on_c, 0, 75, 60
2, 66905, Note_on_c, 0, 42, 0
2, 66912, Note_on_c, 0, 54, 0
2, 66917, Note_on_c, 0, 68, 0
2, 66917, Note_on_c, 0, 72, 0
2, 66917, Note_on_c, 0, 75, 0
2, 66932, Note_on_c, 0, 41, 60
2, 66938, Note_on_c, 0, 53, 60
2, 67006, Note_on_c, 0, 69, 60
2, 67022, Note_on_c, 0, 41, 0
2, 67034, Note_on_c, 0, 53, 0
2, 67056, Note_on_c, 0, 60, 60
2, 67056, Note_on_c, 0, 57, 60
2, 67058, Note_on_c, 0, 53, 60
2, 67061, Note_on_c, 0, 63, 60
2, 67065, Note_on_c, 0, 72, 60
2, 67067, Note_on_c, 0, 69, 0
2, 67127, Note_on_c, 0, 75, 60
2, 67128, Note_on_c, 0, 72, 0
2, 67151, Note_on_c, 0, 53, 0
2, 67153, Note_on_c, 0, 60, 0
2, 67155, Note_on_c, 0, 63, 0
2, 67155, Note_on_c, 0, 57, 0
2, 67176, Note_on_c, 0, 45, 60
2, 67179, Note_on_c, 0, 57, 60
2, 67188, Note_on_c, 0, 75, 0
2, 67190, Note_on_c, 0, 78, 60
2, 67246, Note_on_c, 0, 75, 60
2, 67246, Note_on_c, 0, 72, 60
2, 67248, Note_on_c, 0, 69, 60
2, 67249, Note_on_c, 0, 77, 60
2, 67251, Note_on_c, 0, 78, 0
2, 67266, Note_on_c, 0, 45, 0
2, 67273, Note_on_c, 0, 57, 0
2, 67298, Note_on_c, 0, 57, 60
2, 67300, Note_on_c, 0, 53, 60
2, 67302, Note_on_c, 0, 63, 60
2, 67302, Note_on_c, 0, 60, 60
2, 67335, Note_on_c, 0, 69, 0
2, 67335, Note_on_c, 0, 77, 0
2, 67340, Note_on_c, 0, 72, 0
2, 67340, Note_on_c, 0, 75, 0
2, 67366, Note_on_c, 0, 75, 60
2, 67392, Note_on_c, 0, 53, 0
2, 67394, Note_on_c, 0, 60, 0
2, 67394, Note_on_c, 0, 57, 0
2, 67396, Note_on_c, 0, 63, 0
2, 67401, Note_on_c, 0, 75, 0
2, 67417, Note_on_c, 0, 49, 60
2, 67423, Note_on_c, 0, 61, 60
2, 67430, Note_on_c, 0, 78, 60
2, 67487, Note_on_c, 0, 77, 60
2, 67487, Note_on_c, 0, 73, 60
2, 67488, Note_on_c, 0, 70, 60
2, 67493, Note_on_c, 0, 78, 0
2, 67508, Note_on_c, 0, 49, 0
2, 67512, Note_on_c, 0, 61, 0
2, 67538, Note_on_c, 0, 58, 60
2, 67542, Note_on_c, 0, 65, 60
2, 67544, Note_on_c, 0, 61, 60
2, 67573, Note_on_c, 0, 77, 0
2, 67577, Note_on_c, 0, 73, 0
2, 67577, Note_on_c, 0, 70, 0
2, 67602, Note_on_c, 0, 71, 60
2, 67604, Note_on_c, 0, 68, 60
2, 67606, Note_on_c, 0, 77, 60
2, 67624, Note_on_c, 0, 58, 0
2, 67624, Note_on_c, 0, 61, 0
2, 67628, Note_on_c, 0, 65, 0
2, 67655, Note_on_c, 0, 50, 60
2, 67673, Note_on_c, 0, 62, 60
2, 67747, Note_on_c, 0, 50, 0
2, 67749, Note_on_c, 0, 71, 0
2, 67749, Note_on_c, 0, 77, 0
2, 67749, Note_on_c, 0, 62, 0
2, 67751, Note_on_c, 0, 68, 0
2, 67776, Note_on_c, 0, 62, 60
2, 67776, Note_on_c, 0, 56, 60
2, 67777, Note_on_c, 0, 65, 60
2, 67779, Note_on_c, 0, 71, 60
2, 67779, Note_on_c, 0, 68, 60
2, 67781, Note_on_c, 0, 77, 60
2, 67862, Note_on_c, 0, 65, 0
2, 67862, Note_on_c, 0, 62, 0
2, 67864, Note_on_c, 0, 56, 0
2, 67866, Note_on_c, 0, 71, 0
2, 67866, Note_on_c, 0, 77, 0
2, 67870, Note_on_c, 0, 68, 0
2, 67882, Note_on_c, 0, 51, 60
2, 67895, Note_on_c, 0, 68, 60
2, 67895, Note_on_c, 0, 63, 60
2, 67898, Note_on_c, 0, 77, 60
2, 67898, Note_on_c, 0, 72, 60
2, 67952, Note_on_c, 0, 77, 0
2, 67956, Note_on_c, 0, 68, 0
2, 67956, Note_on_c, 0, 72, 0
2, 67956, Note_on_c, 0, 75, 60
2, 67978, Note_on_c, 0, 51, 0
2, 67983, Note_on_c, 0, 63, 0
2, 68007, Note_on_c, 0, 60, 60
2, 68007, Note_on_c, 0, 56, 60
2, 68011, Note_on_c, 0, 63, 60
2, 68016, Note_on_c, 0, 75, 0
2, 68016, Note_on_c, 0, 72, 60
2, 68075, Note_on_c, 0, 72, 0
2, 68075, Note_on_c, 0, 68, 60
2, 68097, Note_on_c, 0, 60, 0
2, 68097, Note_on_c, 0, 56, 0
2, 68099, Note_on_c, 0, 63, 0
2, 68119, Note_on_c, 0, 41, 60
2, 68124, Note_on_c, 0, 53, 60
2, 68130, Note_on_c, 0, 70, 60
2, 68132, Note_on_c, 0, 68, 0
2, 68140, Note_on_c, 0, 62, 60
2, 68189, Note_on_c, 0, 70, 0
2, 68189, Note_on_c, 0, 68, 60
2, 68208, Note_on_c, 0, 41, 0
2, 68216, Note_on_c, 0, 62, 0
2, 68218, Note_on_c, 0, 53, 0
2, 68236, Note_on_c, 0, 51, 60
2, 68236, Note_on_c, 0, 39, 60
2, 68245, Note_on_c, 0, 61, 60
2, 68247, Note_on_c, 0, 70, 60
2, 68247, Note_on_c, 0, 67, 60
2, 68249, Note_on_c, 0, 68, 0
2, 68302, Note_on_c, 0, 61, 0
2, 68306, Note_on_c, 0, 63, 60
2, 68308, Note_on_c, 0, 67, 0
2, 68308, Note_on_c, 0, 60, 60
2, 68310, Note_on_c, 0, 68, 60
2, 68314, Note_on_c, 0, 70, 0
2, 68328, Note_on_c, 0, 39, 0
2, 68334, Note_on_c, 0, 51, 0
2, 68361, Note_on_c, 0, 44, 60
2, 68365, Note_on_c, 0, 56, 60
2, 68446, Note_on_c, 0, 44, 0
2, 68455, Note_on_c, 0, 56, 0
2, 68478, Note_on_c, 0, 51, 60
2, 68478, Note_on_c, 0, 39, 60
2, 68564, Note_on_c, 0, 39, 0
2, 68574, Note_on_c, 0, 60, 0
2, 68574, Note_on_c, 0, 63, 0
2, 68574, Note_on_c, 0, 51, 0
2, 68578, Note_on_c, 0, 68, 0
2, 68592, Note_on_c, 0, 32, 60
2, 68597, Note_on_c, 0, 44, 60
2, 68607, Note_on_c, 0, 72, 60
2, 68607, Note_on_c, 0, 68, 60
2, 68609, Note_on_c, 0, 80, 60
2, 68611, Note_on_c, 0, 75, 60
2, 68685, Note_on_c, 0, 32, 0
2, 68691, Note_on_c, 0, 44, 0
2, 68699, Note_on_c, 0, 68, 0
2, 68699, Note_on_c, 0, 75, 0
2, 68701, Note_on_c, 0, 80, 0
2, 68703, Note_on_c, 0, 72, 0
2, 68703, End_track
3, 0, Start_track
3, 0, Title_t, ""
3, 0, End_track
4, 0, Start_track
4, 0, Title_t, ""
4, 0, End_track
5, 0, Start_track
5, 0, Title_t, ""
5, 0, End_track
6, 0, Start_track
6, 0, Title_t, "Scan of a player piano roll"
6, 0, End_track
7, 0, Start_track
7, 0, Title_t, "by Terry Smythe, Winnipeg, Canada"
7, 0, End_track
8, 0, Start_track
8, 1, Copyright_t, "___________________________________________________\012\012KUNSTDERFUGE.COM LARGE CLASSICAL MIDI COLLECTION\012ONCLASSICAL BY ALESSANDRO SIMONETTO, PROPRIETOR\012___________________________________________________\012\012! Attention: this file is under copyright !\012\012(c)onclassical, (nc)smythe, 2010\012___________________________________________________\012\012NO ONE MAY REPUBLISH THIS FILE WITHOUT PERMISSION\012COMMERCIAL USES OF THIS FILE IS STRICTLY PROHIBITED\012___________________________________________________\012\012Files & contributor's list: http://kunstderfuge.com/\012Terms and conditions: http://kunstderfuge.com/notes.htm"
8, 1, End_track
0, 0, End_of_file
