0, 0, Header, 1, 8, 192
1, 0, Start_track
1, 0, Title_t, "9900S"
1, 0, Copyright_t, "May NOT be used for commercial purposes."
1, 0, Text_t, "Roll expression/accent tracks, where present, converted to MIDI velocties.\012"
1, 0, Time_signature, 4, 2, 24, 8
1, 0, Key_signature, 0, "major"
1, 0, Tempo, 500000
1, 0, Marker_t, "Standard MIDI:LPI 121:Tempo  80: 12-04-2003"
1, 0, End_track
2, 0, Start_track
2, 0, Title_t, "Black Bottom Stomp (1919)"
2, 3, Control_c, 0, 64, 127
2, 17, Control_c, 0, 64, 0
2, 102, Note_on_c, 0, 53, 80
2, 104, Note_on_c, 0, 41, 80
2, 122, Note_on_c, 0, 55, 80
2, 124, Note_on_c, 0, 43, 80
2, 128, Note_on_c, 0, 41, 0
2, 128, Note_on_c, 0, 53, 0
2, 146, Note_on_c, 0, 57, 80
2, 148, Note_on_c, 0, 45, 80
2, 150, Note_on_c, 0, 55, 0
2, 152, Note_on_c, 0, 43, 0
2, 170, Note_on_c, 0, 58, 80
2, 172, Note_on_c, 0, 34, 80
2, 172, Note_on_c, 0, 46, 80
2, 174, Note_on_c, 0, 57, 0
2, 186, Note_on_c, 0, 45, 0
2, 243, Control_c, 0, 64, 127
2, 255, Note_on_c, 0, 58, 0
2, 298, Note_on_c, 0, 46, 0
2, 304, Note_on_c, 0, 55, 80
2, 304, Note_on_c, 0, 58, 80
2, 304, Note_on_c, 0, 62, 80
2, 304, Note_on_c, 0, 67, 80
2, 306, Note_on_c, 0, 53, 80
2, 341, Note_on_c, 0, 67, 0
2, 341, Note_on_c, 0, 62, 0
2, 341, Note_on_c, 0, 58, 0
2, 341, Note_on_c, 0, 55, 0
2, 343, Note_on_c, 0, 34, 0
2, 343, Note_on_c, 0, 53, 0
2, 357, Control_c, 0, 64, 0
2, 440, Note_on_c, 0, 41, 80
2, 507, Control_c, 0, 64, 127
2, 571, Note_on_c, 0, 58, 80
2, 571, Note_on_c, 0, 62, 80
2, 571, Note_on_c, 0, 67, 80
2, 571, Note_on_c, 0, 53, 80
2, 571, Note_on_c, 0, 55, 80
2, 604, Note_on_c, 0, 55, 0
2, 604, Note_on_c, 0, 58, 0
2, 604, Note_on_c, 0, 62, 0
2, 604, Note_on_c, 0, 67, 0
2, 606, Note_on_c, 0, 41, 0
2, 606, Note_on_c, 0, 53, 0
2, 620, Control_c, 0, 64, 0
2, 699, Note_on_c, 0, 36, 80
2, 699, Note_on_c, 0, 48, 80
2, 767, Control_c, 0, 64, 127
2, 774, Note_on_c, 0, 55, 80
2, 792, Note_on_c, 0, 48, 0
2, 850, Control_c, 0, 64, 0
2, 898, Control_c, 0, 64, 127
2, 906, Note_on_c, 0, 57, 80
2, 910, Note_on_c, 0, 55, 0
2, 961, Note_on_c, 0, 41, 80
2, 961, Note_on_c, 0, 55, 80
2, 965, Note_on_c, 0, 57, 0
2, 965, Note_on_c, 0, 36, 0
2, 987, Note_on_c, 0, 55, 0
2, 997, Note_on_c, 0, 57, 80
2, 1013, Control_c, 0, 64, 0
2, 1021, Note_on_c, 0, 57, 0
2, 1029, Note_on_c, 0, 55, 80
2, 1062, Note_on_c, 0, 53, 80
2, 1066, Note_on_c, 0, 55, 0
2, 1109, Note_on_c, 0, 53, 0
2, 1109, Note_on_c, 0, 41, 0
2, 1163, Note_on_c, 0, 53, 80
2, 1165, Note_on_c, 0, 41, 80
2, 1185, Note_on_c, 0, 43, 80
2, 1185, Note_on_c, 0, 55, 80
2, 1189, Note_on_c, 0, 41, 0
2, 1189, Note_on_c, 0, 53, 0
2, 1209, Note_on_c, 0, 57, 80
2, 1211, Note_on_c, 0, 55, 0
2, 1211, Note_on_c, 0, 45, 80
2, 1213, Note_on_c, 0, 43, 0
2, 1231, Note_on_c, 0, 58, 80
2, 1233, Note_on_c, 0, 34, 80
2, 1233, Note_on_c, 0, 46, 80
2, 1235, Note_on_c, 0, 57, 0
2, 1247, Note_on_c, 0, 45, 0
2, 1296, Control_c, 0, 64, 127
2, 1308, Note_on_c, 0, 58, 0
2, 1351, Note_on_c, 0, 46, 0
2, 1357, Note_on_c, 0, 55, 80
2, 1357, Note_on_c, 0, 62, 80
2, 1357, Note_on_c, 0, 67, 80
2, 1359, Note_on_c, 0, 53, 80
2, 1359, Note_on_c, 0, 58, 80
2, 1394, Note_on_c, 0, 58, 0
2, 1394, Note_on_c, 0, 62, 0
2, 1394, Note_on_c, 0, 67, 0
2, 1396, Note_on_c, 0, 34, 0
2, 1396, Note_on_c, 0, 53, 0
2, 1396, Note_on_c, 0, 55, 0
2, 1408, Control_c, 0, 64, 0
2, 1491, Note_on_c, 0, 41, 80
2, 1590, Control_c, 0, 64, 127
2, 1618, Note_on_c, 0, 58, 80
2, 1618, Note_on_c, 0, 62, 80
2, 1618, Note_on_c, 0, 67, 80
2, 1620, Note_on_c, 0, 53, 80
2, 1620, Note_on_c, 0, 55, 80
2, 1652, Note_on_c, 0, 55, 0
2, 1652, Note_on_c, 0, 67, 0
2, 1654, Note_on_c, 0, 62, 0
2, 1654, Note_on_c, 0, 41, 0
2, 1654, Note_on_c, 0, 58, 0
2, 1654, Note_on_c, 0, 53, 0
2, 1667, Control_c, 0, 64, 0
2, 1743, Note_on_c, 0, 55, 80
2, 1743, Note_on_c, 0, 58, 80
2, 1743, Note_on_c, 0, 64, 80
2, 1745, Note_on_c, 0, 43, 80
2, 1745, Note_on_c, 0, 48, 80
2, 1812, Note_on_c, 0, 64, 0
2, 1814, Note_on_c, 0, 43, 0
2, 1814, Note_on_c, 0, 55, 0
2, 1814, Note_on_c, 0, 58, 0
2, 1814, Note_on_c, 0, 48, 0
2, 1827, Note_on_c, 0, 60, 80
2, 1827, Note_on_c, 0, 63, 80
2, 1829, Note_on_c, 0, 45, 80
2, 1829, Note_on_c, 0, 53, 80
2, 1829, Note_on_c, 0, 57, 80
2, 1907, Note_on_c, 0, 53, 0
2, 1939, Note_on_c, 0, 60, 0
2, 1941, Note_on_c, 0, 63, 0
2, 1941, Note_on_c, 0, 57, 0
2, 1952, Note_on_c, 0, 45, 0
2, 1958, Note_on_c, 0, 58, 80
2, 1958, Note_on_c, 0, 62, 80
2, 1962, Note_on_c, 0, 46, 80
2, 1962, Note_on_c, 0, 53, 80
2, 1962, Note_on_c, 0, 55, 80
2, 2043, Control_c, 0, 64, 127
2, 2095, Note_on_c, 0, 62, 0
2, 2097, Note_on_c, 0, 53, 0
2, 2097, Note_on_c, 0, 58, 0
2, 2097, Note_on_c, 0, 46, 0
2, 2097, Note_on_c, 0, 55, 0
2, 2159, Control_c, 0, 64, 0
2, 2210, Note_on_c, 0, 41, 80
2, 2210, Note_on_c, 0, 53, 80
2, 2232, Note_on_c, 0, 55, 80
2, 2234, Note_on_c, 0, 43, 80
2, 2236, Note_on_c, 0, 53, 0
2, 2240, Note_on_c, 0, 41, 0
2, 2254, Note_on_c, 0, 57, 80
2, 2256, Note_on_c, 0, 45, 80
2, 2257, Note_on_c, 0, 55, 0
2, 2259, Note_on_c, 0, 43, 0
2, 2276, Note_on_c, 0, 58, 80
2, 2278, Note_on_c, 0, 34, 80
2, 2278, Note_on_c, 0, 46, 80
2, 2281, Note_on_c, 0, 57, 0
2, 2293, Note_on_c, 0, 45, 0
2, 2351, Control_c, 0, 64, 127
2, 2360, Note_on_c, 0, 58, 0
2, 2408, Note_on_c, 0, 46, 0
2, 2416, Note_on_c, 0, 58, 80
2, 2416, Note_on_c, 0, 62, 80
2, 2416, Note_on_c, 0, 67, 80
2, 2418, Note_on_c, 0, 53, 80
2, 2418, Note_on_c, 0, 55, 80
2, 2448, Note_on_c, 0, 67, 0
2, 2449, Note_on_c, 0, 58, 0
2, 2449, Note_on_c, 0, 62, 0
2, 2449, Note_on_c, 0, 53, 0
2, 2449, Note_on_c, 0, 55, 0
2, 2451, Note_on_c, 0, 34, 0
2, 2463, Control_c, 0, 64, 0
2, 2548, Note_on_c, 0, 41, 80
2, 2619, Control_c, 0, 64, 127
2, 2677, Note_on_c, 0, 53, 80
2, 2677, Note_on_c, 0, 55, 80
2, 2677, Note_on_c, 0, 58, 80
2, 2677, Note_on_c, 0, 62, 80
2, 2677, Note_on_c, 0, 67, 80
2, 2712, Note_on_c, 0, 67, 0
2, 2712, Note_on_c, 0, 53, 0
2, 2712, Note_on_c, 0, 55, 0
2, 2712, Note_on_c, 0, 58, 0
2, 2714, Note_on_c, 0, 41, 0
2, 2722, Note_on_c, 0, 62, 0
2, 2726, Control_c, 0, 64, 0
2, 2811, Note_on_c, 0, 48, 80
2, 2813, Note_on_c, 0, 36, 80
2, 2879, Control_c, 0, 64, 127
2, 2884, Note_on_c, 0, 55, 80
2, 2901, Note_on_c, 0, 48, 0
2, 2992, Control_c, 0, 64, 0
2, 3020, Note_on_c, 0, 57, 80
2, 3025, Note_on_c, 0, 55, 0
2, 3072, Note_on_c, 0, 55, 80
2, 3075, Note_on_c, 0, 41, 80
2, 3077, Note_on_c, 0, 57, 0
2, 3079, Note_on_c, 0, 36, 0
2, 3099, Note_on_c, 0, 55, 0
2, 3105, Note_on_c, 0, 57, 80
2, 3133, Note_on_c, 0, 57, 0
2, 3141, Note_on_c, 0, 55, 80
2, 3174, Note_on_c, 0, 53, 80
2, 3176, Control_c, 0, 64, 127
2, 3178, Note_on_c, 0, 55, 0
2, 3224, Note_on_c, 0, 53, 0
2, 3224, Note_on_c, 0, 41, 0
2, 3258, Control_c, 0, 64, 0
2, 3274, Note_on_c, 0, 41, 80
2, 3274, Note_on_c, 0, 53, 80
2, 3296, Note_on_c, 0, 43, 80
2, 3296, Note_on_c, 0, 55, 80
2, 3300, Note_on_c, 0, 53, 0
2, 3300, Note_on_c, 0, 41, 0
2, 3318, Note_on_c, 0, 57, 80
2, 3320, Note_on_c, 0, 45, 80
2, 3322, Note_on_c, 0, 55, 0
2, 3324, Note_on_c, 0, 43, 0
2, 3340, Note_on_c, 0, 58, 80
2, 3342, Note_on_c, 0, 34, 80
2, 3342, Note_on_c, 0, 46, 80
2, 3344, Note_on_c, 0, 57, 0
2, 3358, Note_on_c, 0, 45, 0
2, 3423, Note_on_c, 0, 58, 0
2, 3445, Control_c, 0, 64, 127
2, 3469, Note_on_c, 0, 46, 0
2, 3473, Note_on_c, 0, 67, 80
2, 3475, Note_on_c, 0, 53, 80
2, 3475, Note_on_c, 0, 55, 80
2, 3475, Note_on_c, 0, 58, 80
2, 3475, Note_on_c, 0, 62, 80
2, 3510, Note_on_c, 0, 62, 0
2, 3510, Note_on_c, 0, 67, 0
2, 3510, Note_on_c, 0, 53, 0
2, 3510, Note_on_c, 0, 55, 0
2, 3510, Note_on_c, 0, 58, 0
2, 3512, Note_on_c, 0, 34, 0
2, 3524, Control_c, 0, 64, 0
2, 3609, Note_on_c, 0, 41, 80
2, 3710, Control_c, 0, 64, 127
2, 3738, Note_on_c, 0, 67, 80
2, 3740, Note_on_c, 0, 53, 80
2, 3740, Note_on_c, 0, 55, 80
2, 3740, Note_on_c, 0, 58, 80
2, 3740, Note_on_c, 0, 62, 80
2, 3773, Note_on_c, 0, 62, 0
2, 3773, Note_on_c, 0, 67, 0
2, 3775, Note_on_c, 0, 55, 0
2, 3775, Note_on_c, 0, 41, 0
2, 3775, Note_on_c, 0, 53, 0
2, 3775, Note_on_c, 0, 58, 0
2, 3821, Control_c, 0, 64, 0
2, 3869, Note_on_c, 0, 55, 80
2, 3869, Note_on_c, 0, 58, 80
2, 3869, Note_on_c, 0, 64, 80
2, 3871, Note_on_c, 0, 43, 80
2, 3871, Note_on_c, 0, 48, 80
2, 3935, Note_on_c, 0, 48, 0
2, 3935, Note_on_c, 0, 55, 0
2, 3935, Note_on_c, 0, 64, 0
2, 3935, Note_on_c, 0, 58, 0
2, 3936, Note_on_c, 0, 43, 0
2, 3953, Note_on_c, 0, 60, 80
2, 3955, Note_on_c, 0, 53, 80
2, 3955, Note_on_c, 0, 57, 80
2, 3955, Note_on_c, 0, 63, 80
2, 3957, Note_on_c, 0, 45, 80
2, 4034, Note_on_c, 0, 53, 0
2, 4064, Note_on_c, 0, 63, 0
2, 4064, Note_on_c, 0, 60, 0
2, 4064, Note_on_c, 0, 57, 0
2, 4074, Note_on_c, 0, 45, 0
2, 4080, Note_on_c, 0, 53, 80
2, 4080, Note_on_c, 0, 55, 80
2, 4080, Note_on_c, 0, 58, 80
2, 4080, Note_on_c, 0, 62, 80
2, 4081, Note_on_c, 0, 46, 80
2, 4157, Control_c, 0, 64, 127
2, 4211, Note_on_c, 0, 46, 0
2, 4211, Note_on_c, 0, 58, 0
2, 4211, Note_on_c, 0, 53, 0
2, 4211, Note_on_c, 0, 55, 0
2, 4211, Note_on_c, 0, 62, 0
2, 4239, Control_c, 0, 64, 0
2, 4322, Note_on_c, 0, 64, 80
2, 4324, Note_on_c, 0, 52, 80
2, 4344, Note_on_c, 0, 65, 80
2, 4346, Note_on_c, 0, 53, 80
2, 4348, Note_on_c, 0, 64, 0
2, 4350, Note_on_c, 0, 52, 0
2, 4370, Note_on_c, 0, 54, 80
2, 4370, Note_on_c, 0, 66, 80
2, 4372, Note_on_c, 0, 65, 0
2, 4374, Note_on_c, 0, 53, 0
2, 4391, Note_on_c, 0, 64, 80
2, 4391, Note_on_c, 0, 67, 80
2, 4391, Note_on_c, 0, 70, 80
2, 4394, Note_on_c, 0, 55, 80
2, 4396, Note_on_c, 0, 54, 0
2, 4396, Note_on_c, 0, 66, 0
2, 4416, Note_on_c, 0, 70, 0
2, 4416, Note_on_c, 0, 67, 0
2, 4416, Note_on_c, 0, 64, 0
2, 4424, Note_on_c, 0, 62, 80
2, 4450, Note_on_c, 0, 62, 0
2, 4454, Note_on_c, 0, 70, 80
2, 4456, Note_on_c, 0, 64, 80
2, 4456, Note_on_c, 0, 67, 80
2, 4460, Control_c, 0, 64, 127
2, 4480, Note_on_c, 0, 70, 0
2, 4482, Note_on_c, 0, 67, 0
2, 4482, Note_on_c, 0, 64, 0
2, 4489, Note_on_c, 0, 62, 80
2, 4515, Note_on_c, 0, 62, 0
2, 4523, Note_on_c, 0, 64, 80
2, 4523, Note_on_c, 0, 67, 80
2, 4523, Note_on_c, 0, 70, 80
2, 4549, Note_on_c, 0, 70, 0
2, 4549, Note_on_c, 0, 67, 0
2, 4549, Note_on_c, 0, 64, 0
2, 4557, Note_on_c, 0, 62, 80
2, 4583, Note_on_c, 0, 62, 0
2, 4590, Note_on_c, 0, 64, 80
2, 4590, Note_on_c, 0, 67, 80
2, 4590, Note_on_c, 0, 70, 80
2, 4616, Note_on_c, 0, 70, 0
2, 4616, Note_on_c, 0, 67, 0
2, 4616, Note_on_c, 0, 64, 0
2, 4624, Note_on_c, 0, 62, 80
2, 4648, Note_on_c, 0, 62, 0
2, 4654, Note_on_c, 0, 67, 80
2, 4654, Note_on_c, 0, 70, 80
2, 4656, Note_on_c, 0, 64, 80
2, 4680, Note_on_c, 0, 64, 0
2, 4680, Note_on_c, 0, 70, 0
2, 4680, Note_on_c, 0, 67, 0
2, 4687, Note_on_c, 0, 62, 80
2, 4707, Control_c, 0, 64, 0
2, 4721, Note_on_c, 0, 64, 80
2, 4721, Note_on_c, 0, 67, 80
2, 4721, Note_on_c, 0, 70, 80
2, 4725, Note_on_c, 0, 62, 0
2, 4747, Note_on_c, 0, 67, 0
2, 4747, Note_on_c, 0, 70, 0
2, 4747, Note_on_c, 0, 64, 0
2, 4754, Note_on_c, 0, 62, 80
2, 4782, Note_on_c, 0, 62, 0
2, 4782, Note_on_c, 0, 55, 0
2, 4788, Note_on_c, 0, 67, 80
2, 4788, Note_on_c, 0, 70, 80
2, 4790, Note_on_c, 0, 64, 80
2, 4812, Note_on_c, 0, 64, 0
2, 4812, Note_on_c, 0, 70, 0
2, 4812, Note_on_c, 0, 67, 0
2, 4820, Note_on_c, 0, 62, 80
2, 4853, Note_on_c, 0, 66, 80
2, 4855, Note_on_c, 0, 54, 80
2, 4857, Note_on_c, 0, 62, 0
2, 4873, Note_on_c, 0, 65, 80
2, 4875, Note_on_c, 0, 53, 80
2, 4877, Note_on_c, 0, 66, 0
2, 4879, Note_on_c, 0, 54, 0
2, 4897, Note_on_c, 0, 64, 80
2, 4899, Note_on_c, 0, 65, 0
2, 4899, Note_on_c, 0, 52, 80
2, 4901, Note_on_c, 0, 53, 0
2, 4921, Note_on_c, 0, 63, 80
2, 4921, Note_on_c, 0, 66, 80
2, 4921, Note_on_c, 0, 69, 80
2, 4923, Note_on_c, 0, 51, 80
2, 4925, Note_on_c, 0, 52, 0
2, 4925, Note_on_c, 0, 64, 0
2, 4945, Note_on_c, 0, 69, 0
2, 4945, Note_on_c, 0, 66, 0
2, 4947, Note_on_c, 0, 63, 0
2, 4955, Note_on_c, 0, 60, 80
2, 4981, Note_on_c, 0, 60, 0
2, 4987, Note_on_c, 0, 66, 80
2, 4987, Note_on_c, 0, 69, 80
2, 4989, Note_on_c, 0, 63, 80
2, 5011, Note_on_c, 0, 63, 0
2, 5011, Note_on_c, 0, 69, 0
2, 5011, Note_on_c, 0, 66, 0
2, 5018, Note_on_c, 0, 60, 80
2, 5022, Control_c, 0, 64, 127
2, 5044, Note_on_c, 0, 60, 0
2, 5048, Note_on_c, 0, 69, 80
2, 5050, Note_on_c, 0, 63, 80
2, 5050, Note_on_c, 0, 66, 80
2, 5074, Note_on_c, 0, 66, 0
2, 5074, Note_on_c, 0, 63, 0
2, 5074, Note_on_c, 0, 69, 0
2, 5084, Note_on_c, 0, 60, 80
2, 5108, Note_on_c, 0, 60, 0
2, 5115, Note_on_c, 0, 63, 80
2, 5115, Note_on_c, 0, 66, 80
2, 5115, Note_on_c, 0, 69, 80
2, 5143, Note_on_c, 0, 69, 0
2, 5143, Note_on_c, 0, 66, 0
2, 5143, Note_on_c, 0, 63, 0
2, 5153, Note_on_c, 0, 60, 80
2, 5177, Note_on_c, 0, 60, 0
2, 5184, Note_on_c, 0, 69, 80
2, 5186, Note_on_c, 0, 63, 80
2, 5186, Note_on_c, 0, 66, 80
2, 5212, Note_on_c, 0, 66, 0
2, 5212, Note_on_c, 0, 63, 0
2, 5212, Note_on_c, 0, 69, 0
2, 5218, Note_on_c, 0, 60, 80
2, 5238, Control_c, 0, 64, 0
2, 5244, Note_on_c, 0, 60, 0
2, 5252, Note_on_c, 0, 63, 80
2, 5252, Note_on_c, 0, 66, 80
2, 5252, Note_on_c, 0, 69, 80
2, 5276, Note_on_c, 0, 69, 0
2, 5276, Note_on_c, 0, 66, 0
2, 5276, Note_on_c, 0, 63, 0
2, 5285, Note_on_c, 0, 60, 80
2, 5311, Note_on_c, 0, 60, 0
2, 5319, Note_on_c, 0, 63, 80
2, 5319, Note_on_c, 0, 66, 80
2, 5319, Note_on_c, 0, 69, 80
2, 5325, Note_on_c, 0, 51, 0
2, 5343, Note_on_c, 0, 69, 0
2, 5345, Note_on_c, 0, 66, 0
2, 5345, Note_on_c, 0, 63, 0
2, 5352, Note_on_c, 0, 60, 80
2, 5378, Note_on_c, 0, 60, 0
2, 5386, Note_on_c, 0, 65, 80
2, 5388, Note_on_c, 0, 53, 80
2, 5408, Note_on_c, 0, 64, 80
2, 5410, Note_on_c, 0, 65, 0
2, 5410, Note_on_c, 0, 52, 80
2, 5412, Note_on_c, 0, 53, 0
2, 5430, Note_on_c, 0, 51, 80
2, 5430, Note_on_c, 0, 63, 80
2, 5434, Note_on_c, 0, 52, 0
2, 5434, Note_on_c, 0, 64, 0
2, 5450, Note_on_c, 0, 62, 80
2, 5450, Note_on_c, 0, 65, 80
2, 5452, Note_on_c, 0, 67, 80
2, 5454, Note_on_c, 0, 50, 80
2, 5456, Note_on_c, 0, 51, 0
2, 5456, Note_on_c, 0, 63, 0
2, 5476, Note_on_c, 0, 67, 0
2, 5476, Note_on_c, 0, 65, 0
2, 5484, Note_on_c, 0, 59, 80
2, 5488, Note_on_c, 0, 62, 0
2, 5512, Note_on_c, 0, 59, 0
2, 5516, Note_on_c, 0, 67, 80
2, 5518, Note_on_c, 0, 62, 80
2, 5518, Note_on_c, 0, 65, 80
2, 5521, Control_c, 0, 64, 127
2, 5544, Note_on_c, 0, 67, 0
2, 5545, Note_on_c, 0, 65, 0
2, 5545, Note_on_c, 0, 62, 0
2, 5551, Note_on_c, 0, 59, 80
2, 5577, Note_on_c, 0, 59, 0
2, 5585, Note_on_c, 0, 62, 80
2, 5585, Note_on_c, 0, 65, 80
2, 5585, Note_on_c, 0, 67, 80
2, 5609, Note_on_c, 0, 67, 0
2, 5609, Note_on_c, 0, 65, 0
2, 5609, Note_on_c, 0, 62, 0
2, 5615, Note_on_c, 0, 59, 80
2, 5642, Note_on_c, 0, 59, 0
2, 5644, Note_on_c, 0, 62, 80
2, 5644, Note_on_c, 0, 65, 80
2, 5644, Note_on_c, 0, 67, 80
2, 5670, Note_on_c, 0, 67, 0
2, 5670, Note_on_c, 0, 65, 0
2, 5670, Note_on_c, 0, 62, 0
2, 5678, Note_on_c, 0, 59, 80
2, 5712, Note_on_c, 0, 62, 80
2, 5712, Note_on_c, 0, 65, 80
2, 5712, Note_on_c, 0, 67, 80
2, 5715, Note_on_c, 0, 59, 0
2, 5737, Note_on_c, 0, 65, 0
2, 5737, Note_on_c, 0, 67, 0
2, 5737, Note_on_c, 0, 62, 0
2, 5745, Note_on_c, 0, 59, 80
2, 5779, Note_on_c, 0, 62, 80
2, 5779, Note_on_c, 0, 65, 80
2, 5779, Note_on_c, 0, 67, 80
2, 5783, Note_on_c, 0, 59, 0
2, 5796, Control_c, 0, 64, 0
2, 5802, Note_on_c, 0, 65, 0
2, 5802, Note_on_c, 0, 67, 0
2, 5802, Note_on_c, 0, 62, 0
2, 5808, Note_on_c, 0, 59, 80
2, 5841, Note_on_c, 0, 62, 80
2, 5841, Note_on_c, 0, 65, 80
2, 5841, Note_on_c, 0, 67, 80
2, 5845, Note_on_c, 0, 59, 0
2, 5847, Note_on_c, 0, 50, 0
2, 5865, Note_on_c, 0, 65, 0
2, 5865, Note_on_c, 0, 62, 0
2, 5865, Note_on_c, 0, 67, 0
2, 5873, Note_on_c, 0, 59, 80
2, 5899, Note_on_c, 0, 59, 0
2, 5908, Note_on_c, 0, 51, 80
2, 5908, Note_on_c, 0, 63, 80
2, 5930, Note_on_c, 0, 50, 80
2, 5930, Note_on_c, 0, 62, 80
2, 5934, Note_on_c, 0, 63, 0
2, 5934, Note_on_c, 0, 51, 0
2, 5952, Note_on_c, 0, 60, 80
2, 5954, Note_on_c, 0, 48, 80
2, 5956, Note_on_c, 0, 50, 0
2, 5956, Note_on_c, 0, 62, 0
2, 5976, Note_on_c, 0, 55, 80
2, 5976, Note_on_c, 0, 59, 80
2, 5976, Note_on_c, 0, 62, 80
2, 5978, Note_on_c, 0, 47, 80
2, 5980, Note_on_c, 0, 60, 0
2, 5980, Note_on_c, 0, 48, 0
2, 6002, Note_on_c, 0, 62, 0
2, 6002, Note_on_c, 0, 59, 0
2, 6002, Note_on_c, 0, 55, 0
2, 6008, Note_on_c, 0, 53, 80
2, 6032, Note_on_c, 0, 53, 0
2, 6038, Note_on_c, 0, 55, 80
2, 6038, Note_on_c, 0, 59, 80
2, 6038, Note_on_c, 0, 62, 80
2, 6042, Control_c, 0, 64, 127
2, 6064, Note_on_c, 0, 62, 0
2, 6064, Note_on_c, 0, 59, 0
2, 6064, Note_on_c, 0, 55, 0
2, 6072, Note_on_c, 0, 53, 80
2, 6099, Note_on_c, 0, 53, 0
2, 6105, Note_on_c, 0, 55, 80
2, 6105, Note_on_c, 0, 59, 80
2, 6105, Note_on_c, 0, 62, 80
2, 6121, Control_c, 0, 64, 0
2, 6129, Note_on_c, 0, 62, 0
2, 6129, Note_on_c, 0, 59, 0
2, 6131, Note_on_c, 0, 55, 0
2, 6137, Note_on_c, 0, 53, 80
2, 6165, Note_on_c, 0, 53, 0
2, 6170, Note_on_c, 0, 59, 80
2, 6170, Note_on_c, 0, 62, 80
2, 6172, Note_on_c, 0, 55, 80
2, 6174, Control_c, 0, 64, 127
2, 6196, Note_on_c, 0, 55, 0
2, 6196, Note_on_c, 0, 62, 0
2, 6196, Note_on_c, 0, 59, 0
2, 6204, Note_on_c, 0, 53, 80
2, 6228, Note_on_c, 0, 53, 0
2, 6234, Note_on_c, 0, 59, 80
2, 6234, Note_on_c, 0, 62, 80
2, 6236, Note_on_c, 0, 55, 80
2, 6260, Note_on_c, 0, 55, 0
2, 6260, Note_on_c, 0, 62, 0
2, 6260, Note_on_c, 0, 59, 0
2, 6269, Note_on_c, 0, 53, 80
2, 6286, Control_c, 0, 64, 0
2, 6293, Note_on_c, 0, 53, 0
2, 6301, Note_on_c, 0, 59, 80
2, 6301, Note_on_c, 0, 62, 80
2, 6303, Note_on_c, 0, 55, 80
2, 6325, Note_on_c, 0, 62, 0
2, 6325, Note_on_c, 0, 59, 0
2, 6327, Note_on_c, 0, 55, 0
2, 6335, Note_on_c, 0, 53, 80
2, 6360, Note_on_c, 0, 53, 0
2, 6368, Note_on_c, 0, 55, 80
2, 6368, Note_on_c, 0, 59, 80
2, 6368, Note_on_c, 0, 62, 80
2, 6392, Note_on_c, 0, 62, 0
2, 6394, Note_on_c, 0, 59, 0
2, 6394, Note_on_c, 0, 55, 0
2, 6400, Note_on_c, 0, 53, 80
2, 6416, Note_on_c, 0, 47, 0
2, 6426, Note_on_c, 0, 53, 0
2, 6433, Note_on_c, 0, 43, 80
2, 6456, Note_on_c, 0, 45, 80
2, 6457, Note_on_c, 0, 43, 0
2, 6476, Note_on_c, 0, 47, 80
2, 6480, Note_on_c, 0, 45, 0
2, 6498, Note_on_c, 0, 55, 80
2, 6498, Note_on_c, 0, 60, 80
2, 6500, Note_on_c, 0, 48, 80
2, 6500, Note_on_c, 0, 57, 80
2, 6500, Note_on_c, 0, 63, 80
2, 6502, Note_on_c, 0, 47, 0
2, 6543, Note_on_c, 0, 60, 0
2, 6543, Note_on_c, 0, 63, 0
2, 6545, Note_on_c, 0, 55, 0
2, 6545, Note_on_c, 0, 48, 0
2, 6545, Note_on_c, 0, 57, 0
2, 6565, Note_on_c, 0, 45, 80
2, 6585, Note_on_c, 0, 47, 80
2, 6589, Note_on_c, 0, 45, 0
2, 6609, Note_on_c, 0, 49, 80
2, 6611, Note_on_c, 0, 47, 0
2, 6629, Note_on_c, 0, 50, 80
2, 6629, Note_on_c, 0, 53, 80
2, 6629, Note_on_c, 0, 55, 80
2, 6629, Note_on_c, 0, 59, 80
2, 6629, Note_on_c, 0, 62, 80
2, 6629, Note_on_c, 0, 65, 80
2, 6633, Note_on_c, 0, 49, 0
2, 6665, Control_c, 0, 64, 127
2, 6851, Note_on_c, 0, 62, 0
2, 6851, Note_on_c, 0, 59, 0
2, 6851, Note_on_c, 0, 55, 0
2, 6851, Note_on_c, 0, 65, 0
2, 6853, Note_on_c, 0, 50, 0
2, 6853, Note_on_c, 0, 53, 0
2, 6879, Control_c, 0, 64, 0
2, 6892, Note_on_c, 0, 67, 80
2, 6894, Note_on_c, 0, 55, 80
2, 6894, Note_on_c, 0, 57, 80
2, 6894, Note_on_c, 0, 60, 80
2, 6894, Note_on_c, 0, 63, 80
2, 6896, Note_on_c, 0, 51, 80
2, 6978, Note_on_c, 0, 63, 0
2, 6978, Note_on_c, 0, 60, 0
2, 6978, Note_on_c, 0, 67, 0
2, 6980, Note_on_c, 0, 57, 0
2, 6980, Note_on_c, 0, 51, 0
2, 7009, Note_on_c, 0, 40, 80
2, 7030, Note_on_c, 0, 58, 80
2, 7030, Note_on_c, 0, 62, 80
2, 7032, Note_on_c, 0, 52, 80
2, 7056, Note_on_c, 0, 55, 0
2, 7111, Note_on_c, 0, 62, 0
2, 7111, Note_on_c, 0, 58, 0
2, 7121, Note_on_c, 0, 55, 80
2, 7125, Note_on_c, 0, 52, 0
2, 7166, Note_on_c, 0, 62, 80
2, 7168, Note_on_c, 0, 52, 80
2, 7168, Note_on_c, 0, 58, 80
2, 7224, Note_on_c, 0, 41, 80
2, 7225, Note_on_c, 0, 58, 0
2, 7225, Note_on_c, 0, 52, 0
2, 7225, Note_on_c, 0, 55, 0
2, 7227, Note_on_c, 0, 40, 0
2, 7231, Note_on_c, 0, 60, 80
2, 7233, Note_on_c, 0, 51, 80
2, 7233, Note_on_c, 0, 53, 80
2, 7233, Note_on_c, 0, 57, 80
2, 7235, Note_on_c, 0, 62, 0
2, 7306, Note_on_c, 0, 53, 0
2, 7306, Control_c, 0, 64, 127
2, 7349, Note_on_c, 0, 60, 0
2, 7351, Note_on_c, 0, 57, 0
2, 7351, Note_on_c, 0, 51, 0
2, 7391, Note_on_c, 0, 53, 80
2, 7418, Control_c, 0, 64, 0
2, 7432, Note_on_c, 0, 51, 80
2, 7432, Note_on_c, 0, 57, 80
2, 7432, Note_on_c, 0, 60, 80
2, 7491, Note_on_c, 0, 41, 0
2, 7497, Note_on_c, 0, 46, 80
2, 7501, Note_on_c, 0, 57, 0
2, 7501, Note_on_c, 0, 60, 0
2, 7501, Note_on_c, 0, 53, 0
2, 7501, Note_on_c, 0, 51, 0
2, 7521, Note_on_c, 0, 48, 80
2, 7527, Note_on_c, 0, 46, 0
2, 7545, Note_on_c, 0, 49, 80
2, 7547, Note_on_c, 0, 48, 0
2, 7567, Note_on_c, 0, 50, 80
2, 7567, Note_on_c, 0, 55, 80
2, 7567, Note_on_c, 0, 58, 80
2, 7567, Note_on_c, 0, 62, 80
2, 7567, Note_on_c, 0, 65, 80
2, 7571, Note_on_c, 0, 49, 0
2, 7634, Note_on_c, 0, 55, 0
2, 7634, Note_on_c, 0, 58, 0
2, 7634, Note_on_c, 0, 50, 0
2, 7634, Note_on_c, 0, 65, 0
2, 7634, Note_on_c, 0, 62, 0
2, 7696, Note_on_c, 0, 64, 80
2, 7696, Note_on_c, 0, 69, 80
2, 7698, Note_on_c, 0, 49, 80
2, 7698, Note_on_c, 0, 55, 80
2, 7698, Note_on_c, 0, 58, 80
2, 7698, Note_on_c, 0, 61, 80
2, 7767, Control_c, 0, 64, 127
2, 7896, Note_on_c, 0, 69, 0
2, 7896, Note_on_c, 0, 64, 0
2, 7897, Note_on_c, 0, 58, 0
2, 7897, Note_on_c, 0, 55, 0
2, 7897, Note_on_c, 0, 49, 0
2, 7911, Control_c, 0, 64, 0
2, 7952, Note_on_c, 0, 37, 80
2, 7960, Note_on_c, 0, 58, 80
2, 7960, Note_on_c, 0, 64, 80
2, 7960, Note_on_c, 0, 67, 80
2, 7962, Note_on_c, 0, 52, 80
2, 7962, Note_on_c, 0, 55, 80
2, 8023, Note_on_c, 0, 67, 0
2, 8025, Note_on_c, 0, 52, 0
2, 8025, Note_on_c, 0, 61, 0
2, 8025, Note_on_c, 0, 58, 0
2, 8025, Note_on_c, 0, 64, 0
2, 8025, Note_on_c, 0, 55, 0
2, 8027, Note_on_c, 0, 37, 0
2, 8090, Note_on_c, 0, 67, 80
2, 8092, Note_on_c, 0, 57, 80
2, 8092, Note_on_c, 0, 63, 80
2, 8094, Note_on_c, 0, 36, 80
2, 8094, Note_on_c, 0, 48, 80
2, 8130, Control_c, 0, 64, 127
2, 8160, Note_on_c, 0, 65, 80
2, 8163, Note_on_c, 0, 67, 0
2, 8227, Note_on_c, 0, 63, 0
2, 8229, Note_on_c, 0, 36, 0
2, 8229, Note_on_c, 0, 57, 0
2, 8229, Note_on_c, 0, 48, 0
2, 8282, Note_on_c, 0, 65, 0
2, 8288, Note_on_c, 0, 67, 80
2, 8290, Note_on_c, 0, 41, 80
2, 8290, Note_on_c, 0, 48, 80
2, 8290, Note_on_c, 0, 57, 80
2, 8290, Note_on_c, 0, 63, 80
2, 8316, Note_on_c, 0, 67, 0
2, 8359, Note_on_c, 0, 67, 80
2, 8363, Note_on_c, 0, 57, 0
2, 8363, Note_on_c, 0, 48, 0
2, 8365, Note_on_c, 0, 41, 0
2, 8383, Note_on_c, 0, 67, 0
2, 8389, Note_on_c, 0, 69, 80
2, 8421, Note_on_c, 0, 67, 80
2, 8426, Note_on_c, 0, 69, 0
2, 8458, Note_on_c, 0, 41, 80
2, 8458, Note_on_c, 0, 48, 80
2, 8458, Note_on_c, 0, 57, 80
2, 8458, Note_on_c, 0, 65, 80
2, 8460, Note_on_c, 0, 67, 0
2, 8472, Control_c, 0, 64, 0
2, 8525, Note_on_c, 0, 65, 0
2, 8527, Note_on_c, 0, 48, 0
2, 8527, Note_on_c, 0, 63, 0
2, 8527, Note_on_c, 0, 41, 0
2, 8527, Note_on_c, 0, 57, 0
2, 8555, Note_on_c, 0, 79, 80
2, 8557, Note_on_c, 0, 55, 80
2, 8575, Note_on_c, 0, 56, 80
2, 8575, Note_on_c, 0, 80, 80
2, 8577, Note_on_c, 0, 79, 0
2, 8579, Note_on_c, 0, 55, 0
2, 8595, Note_on_c, 0, 81, 80
2, 8597, Note_on_c, 0, 57, 80
2, 8601, Note_on_c, 0, 56, 0
2, 8609, Note_on_c, 0, 80, 0
2, 8615, Note_on_c, 0, 76, 80
2, 8615, Note_on_c, 0, 79, 80
2, 8615, Note_on_c, 0, 82, 80
2, 8616, Note_on_c, 0, 50, 80
2, 8616, Note_on_c, 0, 58, 80
2, 8618, Note_on_c, 0, 81, 0
2, 8618, Note_on_c, 0, 43, 80
2, 8622, Note_on_c, 0, 57, 0
2, 8639, Note_on_c, 0, 79, 0
2, 8639, Note_on_c, 0, 82, 0
2, 8639, Note_on_c, 0, 76, 0
2, 8646, Note_on_c, 0, 74, 80
2, 8648, Note_on_c, 0, 70, 80
2, 8672, Note_on_c, 0, 70, 0
2, 8672, Note_on_c, 0, 74, 0
2, 8680, Note_on_c, 0, 76, 80
2, 8680, Note_on_c, 0, 79, 80
2, 8680, Note_on_c, 0, 82, 80
2, 8684, Control_c, 0, 64, 127
2, 8706, Note_on_c, 0, 82, 0
2, 8706, Note_on_c, 0, 76, 0
2, 8706, Note_on_c, 0, 79, 0
2, 8712, Note_on_c, 0, 74, 80
2, 8713, Note_on_c, 0, 70, 80
2, 8737, Note_on_c, 0, 74, 0
2, 8739, Note_on_c, 0, 70, 0
2, 8747, Note_on_c, 0, 76, 80
2, 8747, Note_on_c, 0, 79, 80
2, 8747, Note_on_c, 0, 82, 80
2, 8765, Control_c, 0, 64, 0
2, 8769, Note_on_c, 0, 82, 0
2, 8769, Note_on_c, 0, 76, 0
2, 8769, Note_on_c, 0, 79, 0
2, 8777, Note_on_c, 0, 70, 80
2, 8777, Note_on_c, 0, 74, 80
2, 8801, Note_on_c, 0, 74, 0
2, 8803, Note_on_c, 0, 70, 0
2, 8808, Note_on_c, 0, 76, 80
2, 8808, Note_on_c, 0, 79, 80
2, 8808, Note_on_c, 0, 82, 80
2, 8812, Control_c, 0, 64, 127
2, 8832, Note_on_c, 0, 82, 0
2, 8832, Note_on_c, 0, 76, 0
2, 8832, Note_on_c, 0, 79, 0
2, 8840, Note_on_c, 0, 74, 80
2, 8842, Note_on_c, 0, 70, 80
2, 8864, Note_on_c, 0, 70, 0
2, 8864, Note_on_c, 0, 74, 0
2, 8872, Note_on_c, 0, 76, 80
2, 8872, Note_on_c, 0, 79, 80
2, 8872, Note_on_c, 0, 82, 80
2, 8900, Note_on_c, 0, 82, 0
2, 8900, Note_on_c, 0, 76, 0
2, 8900, Note_on_c, 0, 79, 0
2, 8907, Note_on_c, 0, 70, 80
2, 8907, Note_on_c, 0, 74, 80
2, 8928, Control_c, 0, 64, 0
2, 8931, Note_on_c, 0, 74, 0
2, 8933, Note_on_c, 0, 70, 0
2, 8939, Note_on_c, 0, 76, 80
2, 8939, Note_on_c, 0, 79, 80
2, 8939, Note_on_c, 0, 82, 80
2, 8965, Note_on_c, 0, 82, 0
2, 8965, Note_on_c, 0, 76, 0
2, 8965, Note_on_c, 0, 79, 0
2, 8971, Note_on_c, 0, 74, 80
2, 8973, Note_on_c, 0, 70, 80
2, 8997, Note_on_c, 0, 70, 0
2, 8997, Note_on_c, 0, 74, 0
2, 9000, Note_on_c, 0, 82, 80
2, 9002, Note_on_c, 0, 76, 80
2, 9002, Note_on_c, 0, 79, 80
2, 9006, Note_on_c, 0, 58, 0
2, 9008, Note_on_c, 0, 50, 0
2, 9008, Note_on_c, 0, 43, 0
2, 9028, Note_on_c, 0, 82, 0
2, 9028, Note_on_c, 0, 76, 0
2, 9028, Note_on_c, 0, 79, 0
2, 9038, Note_on_c, 0, 74, 80
2, 9040, Note_on_c, 0, 70, 80
2, 9062, Note_on_c, 0, 74, 0
2, 9064, Note_on_c, 0, 70, 0
2, 9072, Note_on_c, 0, 78, 80
2, 9073, Note_on_c, 0, 38, 80
2, 9097, Note_on_c, 0, 79, 80
2, 9099, Note_on_c, 0, 78, 0
2, 9099, Note_on_c, 0, 40, 80
2, 9103, Note_on_c, 0, 38, 0
2, 9120, Note_on_c, 0, 80, 80
2, 9121, Note_on_c, 0, 79, 0
2, 9121, Note_on_c, 0, 41, 80
2, 9125, Note_on_c, 0, 40, 0
2, 9142, Note_on_c, 0, 57, 80
2, 9142, Note_on_c, 0, 75, 80
2, 9142, Note_on_c, 0, 78, 80
2, 9142, Note_on_c, 0, 81, 80
2, 9144, Note_on_c, 0, 51, 80
2, 9145, Note_on_c, 0, 42, 80
2, 9147, Note_on_c, 0, 41, 0
2, 9157, Note_on_c, 0, 80, 0
2, 9167, Note_on_c, 0, 75, 0
2, 9167, Note_on_c, 0, 78, 0
2, 9167, Note_on_c, 0, 81, 0
2, 9174, Note_on_c, 0, 69, 80
2, 9174, Note_on_c, 0, 72, 80
2, 9178, Control_c, 0, 64, 127
2, 9200, Note_on_c, 0, 72, 0
2, 9200, Note_on_c, 0, 69, 0
2, 9204, Note_on_c, 0, 75, 80
2, 9204, Note_on_c, 0, 81, 80
2, 9206, Note_on_c, 0, 78, 80
2, 9230, Note_on_c, 0, 78, 0
2, 9230, Note_on_c, 0, 75, 0
2, 9230, Note_on_c, 0, 81, 0
2, 9241, Note_on_c, 0, 69, 80
2, 9241, Note_on_c, 0, 72, 80
2, 9265, Note_on_c, 0, 72, 0
2, 9267, Note_on_c, 0, 69, 0
2, 9273, Note_on_c, 0, 75, 80
2, 9273, Note_on_c, 0, 78, 80
2, 9273, Note_on_c, 0, 81, 80
2, 9299, Note_on_c, 0, 81, 0
2, 9299, Note_on_c, 0, 75, 0
2, 9299, Note_on_c, 0, 78, 0
2, 9307, Note_on_c, 0, 72, 80
2, 9309, Note_on_c, 0, 69, 80
2, 9333, Note_on_c, 0, 69, 0
2, 9333, Note_on_c, 0, 72, 0
2, 9340, Note_on_c, 0, 81, 80
2, 9342, Note_on_c, 0, 75, 80
2, 9342, Note_on_c, 0, 78, 80
2, 9366, Note_on_c, 0, 78, 0
2, 9366, Note_on_c, 0, 81, 0
2, 9366, Note_on_c, 0, 75, 0
2, 9372, Note_on_c, 0, 72, 80
2, 9374, Note_on_c, 0, 69, 80
2, 9398, Note_on_c, 0, 72, 0
2, 9400, Note_on_c, 0, 69, 0
2, 9404, Note_on_c, 0, 78, 80
2, 9404, Note_on_c, 0, 81, 80
2, 9406, Note_on_c, 0, 75, 80
2, 9430, Note_on_c, 0, 75, 0
2, 9430, Note_on_c, 0, 78, 0
2, 9430, Note_on_c, 0, 81, 0
2, 9437, Note_on_c, 0, 69, 80
2, 9437, Note_on_c, 0, 72, 80
2, 9463, Note_on_c, 0, 72, 0
2, 9463, Note_on_c, 0, 69, 0
2, 9469, Note_on_c, 0, 75, 80
2, 9469, Note_on_c, 0, 78, 80
2, 9469, Note_on_c, 0, 81, 80
2, 9489, Control_c, 0, 64, 0
2, 9495, Note_on_c, 0, 81, 0
2, 9495, Note_on_c, 0, 75, 0
2, 9495, Note_on_c, 0, 78, 0
2, 9504, Note_on_c, 0, 69, 80
2, 9504, Note_on_c, 0, 72, 80
2, 9528, Note_on_c, 0, 72, 0
2, 9528, Note_on_c, 0, 69, 0
2, 9534, Note_on_c, 0, 81, 80
2, 9536, Note_on_c, 0, 75, 80
2, 9536, Note_on_c, 0, 78, 80
2, 9542, Note_on_c, 0, 51, 0
2, 9542, Note_on_c, 0, 42, 0
2, 9542, Note_on_c, 0, 57, 0
2, 9562, Note_on_c, 0, 81, 0
2, 9562, Note_on_c, 0, 75, 0
2, 9562, Note_on_c, 0, 78, 0
2, 9568, Note_on_c, 0, 69, 80
2, 9570, Note_on_c, 0, 72, 80
2, 9594, Note_on_c, 0, 72, 0
2, 9596, Note_on_c, 0, 69, 0
2, 9601, Note_on_c, 0, 76, 80
2, 9603, Note_on_c, 0, 55, 80
2, 9624, Note_on_c, 0, 77, 80
2, 9627, Note_on_c, 0, 76, 0
2, 9627, Note_on_c, 0, 53, 80
2, 9629, Note_on_c, 0, 55, 0
2, 9646, Note_on_c, 0, 78, 80
2, 9649, Note_on_c, 0, 51, 80
2, 9653, Note_on_c, 0, 53, 0
2, 9670, Note_on_c, 0, 71, 80
2, 9670, Note_on_c, 0, 74, 80
2, 9670, Note_on_c, 0, 79, 80
2, 9673, Note_on_c, 0, 78, 0
2, 9673, Note_on_c, 0, 50, 80
2, 9675, Note_on_c, 0, 51, 0
2, 9675, Note_on_c, 0, 35, 80
2, 9696, Note_on_c, 0, 77, 0
2, 9696, Note_on_c, 0, 71, 0
2, 9696, Note_on_c, 0, 74, 0
2, 9696, Note_on_c, 0, 79, 0
2, 9703, Note_on_c, 0, 65, 80
2, 9703, Note_on_c, 0, 67, 80
2, 9729, Note_on_c, 0, 67, 0
2, 9729, Note_on_c, 0, 65, 0
2, 9735, Note_on_c, 0, 74, 80
2, 9735, Note_on_c, 0, 79, 80
2, 9737, Note_on_c, 0, 71, 80
2, 9737, Note_on_c, 0, 77, 80
2, 9741, Control_c, 0, 64, 127
2, 9761, Note_on_c, 0, 77, 0
2, 9761, Note_on_c, 0, 79, 0
2, 9761, Note_on_c, 0, 74, 0
2, 9761, Note_on_c, 0, 71, 0
2, 9768, Note_on_c, 0, 65, 80
2, 9768, Note_on_c, 0, 67, 80
2, 9792, Note_on_c, 0, 67, 0
2, 9792, Note_on_c, 0, 65, 0
2, 9798, Note_on_c, 0, 74, 80
2, 9798, Note_on_c, 0, 77, 80
2, 9798, Note_on_c, 0, 79, 80
2, 9800, Note_on_c, 0, 71, 80
2, 9822, Note_on_c, 0, 77, 0
2, 9822, Note_on_c, 0, 74, 0
2, 9824, Note_on_c, 0, 79, 0
2, 9824, Note_on_c, 0, 71, 0
2, 9832, Note_on_c, 0, 65, 80
2, 9832, Note_on_c, 0, 67, 80
2, 9858, Note_on_c, 0, 67, 0
2, 9858, Note_on_c, 0, 65, 0
2, 9865, Note_on_c, 0, 74, 80
2, 9865, Note_on_c, 0, 77, 80
2, 9865, Note_on_c, 0, 79, 80
2, 9867, Note_on_c, 0, 71, 80
2, 9893, Note_on_c, 0, 71, 0
2, 9893, Note_on_c, 0, 77, 0
2, 9893, Note_on_c, 0, 74, 0
2, 9893, Note_on_c, 0, 79, 0
2, 9899, Note_on_c, 0, 65, 80
2, 9899, Note_on_c, 0, 67, 80
2, 9927, Note_on_c, 0, 67, 0
2, 9927, Note_on_c, 0, 65, 0
2, 9933, Note_on_c, 0, 74, 80
2, 9933, Note_on_c, 0, 77, 80
2, 9933, Note_on_c, 0, 79, 80
2, 9935, Note_on_c, 0, 71, 80
2, 9959, Note_on_c, 0, 71, 0
2, 9959, Note_on_c, 0, 77, 0
2, 9959, Note_on_c, 0, 74, 0
2, 9959, Note_on_c, 0, 79, 0
2, 9966, Note_on_c, 0, 65, 80
2, 9966, Note_on_c, 0, 67, 80
2, 9990, Note_on_c, 0, 67, 0
2, 9990, Note_on_c, 0, 65, 0
2, 9996, Note_on_c, 0, 77, 80
2, 9996, Note_on_c, 0, 79, 80
2, 9998, Note_on_c, 0, 71, 80
2, 9998, Note_on_c, 0, 74, 80
2, 10016, Control_c, 0, 64, 0
2, 10022, Note_on_c, 0, 74, 0
2, 10022, Note_on_c, 0, 77, 0
2, 10022, Note_on_c, 0, 79, 0
2, 10024, Note_on_c, 0, 71, 0
2, 10032, Note_on_c, 0, 65, 80
2, 10032, Note_on_c, 0, 67, 80
2, 10057, Note_on_c, 0, 67, 0
2, 10057, Note_on_c, 0, 65, 0
2, 10065, Note_on_c, 0, 71, 80
2, 10065, Note_on_c, 0, 74, 80
2, 10065, Note_on_c, 0, 77, 80
2, 10065, Note_on_c, 0, 79, 80
2, 10071, Note_on_c, 0, 50, 0
2, 10071, Note_on_c, 0, 35, 0
2, 10089, Note_on_c, 0, 77, 0
2, 10089, Note_on_c, 0, 74, 0
2, 10089, Note_on_c, 0, 79, 0
2, 10089, Note_on_c, 0, 71, 0
2, 10099, Note_on_c, 0, 65, 80
2, 10099, Note_on_c, 0, 67, 80
2, 10125, Note_on_c, 0, 67, 0
2, 10125, Note_on_c, 0, 65, 0
2, 10132, Note_on_c, 0, 77, 80
2, 10136, Note_on_c, 0, 41, 80
2, 10154, Note_on_c, 0, 76, 80
2, 10158, Note_on_c, 0, 77, 0
2, 10158, Note_on_c, 0, 40, 80
2, 10162, Note_on_c, 0, 41, 0
2, 10176, Note_on_c, 0, 75, 80
2, 10179, Note_on_c, 0, 76, 0
2, 10179, Note_on_c, 0, 39, 80
2, 10183, Note_on_c, 0, 40, 0
2, 10197, Note_on_c, 0, 67, 80
2, 10197, Note_on_c, 0, 71, 80
2, 10197, Note_on_c, 0, 74, 80
2, 10199, Note_on_c, 0, 53, 80
2, 10200, Note_on_c, 0, 75, 0
2, 10200, Note_on_c, 0, 38, 80
2, 10204, Note_on_c, 0, 39, 0
2, 10223, Note_on_c, 0, 71, 0
2, 10223, Note_on_c, 0, 74, 0
2, 10223, Note_on_c, 0, 67, 0
2, 10230, Note_on_c, 0, 62, 80
2, 10230, Note_on_c, 0, 65, 80
2, 10232, Control_c, 0, 64, 127
2, 10256, Note_on_c, 0, 65, 0
2, 10264, Note_on_c, 0, 67, 80
2, 10264, Note_on_c, 0, 71, 80
2, 10264, Note_on_c, 0, 74, 80
2, 10268, Note_on_c, 0, 62, 0
2, 10288, Note_on_c, 0, 74, 0
2, 10290, Note_on_c, 0, 67, 0
2, 10290, Note_on_c, 0, 71, 0
2, 10296, Note_on_c, 0, 62, 80
2, 10296, Note_on_c, 0, 65, 80
2, 10323, Note_on_c, 0, 65, 0
2, 10323, Note_on_c, 0, 62, 0
2, 10329, Note_on_c, 0, 74, 80
2, 10331, Note_on_c, 0, 67, 80
2, 10331, Note_on_c, 0, 71, 80
2, 10355, Note_on_c, 0, 71, 0
2, 10355, Note_on_c, 0, 74, 0
2, 10355, Note_on_c, 0, 67, 0
2, 10361, Note_on_c, 0, 62, 80
2, 10361, Note_on_c, 0, 65, 80
2, 10387, Note_on_c, 0, 65, 0
2, 10387, Note_on_c, 0, 62, 0
2, 10392, Note_on_c, 0, 67, 80
2, 10392, Note_on_c, 0, 71, 80
2, 10392, Note_on_c, 0, 74, 80
2, 10418, Note_on_c, 0, 74, 0
2, 10418, Note_on_c, 0, 71, 0
2, 10420, Note_on_c, 0, 67, 0
2, 10428, Note_on_c, 0, 62, 80
2, 10428, Note_on_c, 0, 65, 80
2, 10452, Note_on_c, 0, 65, 0
2, 10452, Note_on_c, 0, 62, 0
2, 10460, Note_on_c, 0, 67, 80
2, 10460, Note_on_c, 0, 71, 80
2, 10460, Note_on_c, 0, 74, 80
2, 10486, Note_on_c, 0, 74, 0
2, 10486, Note_on_c, 0, 67, 0
2, 10486, Note_on_c, 0, 71, 0
2, 10495, Note_on_c, 0, 62, 80
2, 10495, Note_on_c, 0, 65, 80
2, 10519, Note_on_c, 0, 65, 0
2, 10527, Note_on_c, 0, 67, 80
2, 10527, Note_on_c, 0, 71, 80
2, 10527, Note_on_c, 0, 74, 80
2, 10531, Note_on_c, 0, 62, 0
2, 10547, Control_c, 0, 64, 0
2, 10551, Note_on_c, 0, 74, 0
2, 10553, Note_on_c, 0, 67, 0
2, 10553, Note_on_c, 0, 71, 0
2, 10559, Note_on_c, 0, 65, 80
2, 10560, Note_on_c, 0, 62, 80
2, 10584, Note_on_c, 0, 62, 0
2, 10584, Note_on_c, 0, 65, 0
2, 10590, Note_on_c, 0, 67, 80
2, 10590, Note_on_c, 0, 71, 80
2, 10590, Note_on_c, 0, 74, 80
2, 10596, Note_on_c, 0, 53, 0
2, 10596, Note_on_c, 0, 38, 0
2, 10614, Note_on_c, 0, 71, 0
2, 10614, Note_on_c, 0, 67, 0
2, 10614, Note_on_c, 0, 74, 0
2, 10624, Note_on_c, 0, 62, 80
2, 10624, Note_on_c, 0, 65, 80
2, 10650, Note_on_c, 0, 65, 0
2, 10659, Note_on_c, 0, 62, 0
2, 10695, Note_on_c, 0, 36, 80
2, 10706, Note_on_c, 0, 43, 80
2, 10725, Note_on_c, 0, 67, 80
2, 10725, Note_on_c, 0, 69, 80
2, 10725, Note_on_c, 0, 72, 80
2, 10725, Note_on_c, 0, 75, 80
2, 10728, Note_on_c, 0, 51, 80
2, 10794, Note_on_c, 0, 75, 0
2, 10794, Note_on_c, 0, 72, 0
2, 10796, Note_on_c, 0, 69, 0
2, 10796, Note_on_c, 0, 43, 0
2, 10835, Note_on_c, 0, 38, 80
2, 10839, Note_on_c, 0, 36, 0
2, 10848, Note_on_c, 0, 51, 0
2, 10854, Note_on_c, 0, 65, 80
2, 10854, Note_on_c, 0, 71, 80
2, 10854, Note_on_c, 0, 74, 80
2, 10854, Note_on_c, 0, 77, 80
2, 10856, Note_on_c, 0, 53, 80
2, 10892, Control_c, 0, 64, 127
2, 11064, Note_on_c, 0, 53, 0
2, 11064, Note_on_c, 0, 74, 0
2, 11064, Note_on_c, 0, 71, 0
2, 11064, Note_on_c, 0, 65, 0
2, 11064, Note_on_c, 0, 77, 0
2, 11066, Note_on_c, 0, 38, 0
2, 11068, Control_c, 0, 64, 0
2, 11118, Note_on_c, 0, 69, 80
2, 11118, Note_on_c, 0, 72, 80
2, 11118, Note_on_c, 0, 75, 80
2, 11118, Note_on_c, 0, 79, 80
2, 11120, Note_on_c, 0, 55, 80
2, 11122, Note_on_c, 0, 39, 80
2, 11195, Note_on_c, 0, 79, 0
2, 11195, Note_on_c, 0, 75, 0
2, 11195, Note_on_c, 0, 72, 0
2, 11195, Note_on_c, 0, 67, 0
2, 11195, Note_on_c, 0, 52, 80
2, 11197, Note_on_c, 0, 69, 0
2, 11197, Note_on_c, 0, 55, 0
2, 11199, Note_on_c, 0, 39, 0
2, 11207, Note_on_c, 0, 36, 80
2, 11246, Note_on_c, 0, 67, 80
2, 11246, Note_on_c, 0, 74, 80
2, 11248, Note_on_c, 0, 64, 80
2, 11248, Note_on_c, 0, 70, 80
2, 11274, Note_on_c, 0, 64, 0
2, 11276, Note_on_c, 0, 52, 0
2, 11322, Note_on_c, 0, 74, 0
2, 11322, Note_on_c, 0, 67, 0
2, 11322, Note_on_c, 0, 70, 0
2, 11340, Note_on_c, 0, 64, 80
2, 11342, Note_on_c, 0, 52, 80
2, 11381, Note_on_c, 0, 67, 80
2, 11381, Note_on_c, 0, 70, 80
2, 11381, Note_on_c, 0, 74, 80
2, 11409, Note_on_c, 0, 52, 0
2, 11429, Note_on_c, 0, 64, 0
2, 11429, Note_on_c, 0, 67, 0
2, 11429, Note_on_c, 0, 70, 0
2, 11429, Note_on_c, 0, 74, 0
2, 11439, Note_on_c, 0, 41, 80
2, 11443, Note_on_c, 0, 36, 0
2, 11448, Note_on_c, 0, 60, 80
2, 11448, Note_on_c, 0, 63, 80
2, 11448, Note_on_c, 0, 69, 80
2, 11448, Note_on_c, 0, 72, 80
2, 11450, Note_on_c, 0, 51, 80
2, 11450, Note_on_c, 0, 57, 80
2, 11484, Control_c, 0, 64, 127
2, 11581, Note_on_c, 0, 72, 0
2, 11581, Note_on_c, 0, 69, 0
2, 11581, Note_on_c, 0, 63, 0
2, 11583, Note_on_c, 0, 51, 0
2, 11583, Note_on_c, 0, 57, 0
2, 11585, Note_on_c, 0, 41, 0
2, 11598, Note_on_c, 0, 65, 80
2, 11600, Note_on_c, 0, 53, 80
2, 11641, Note_on_c, 0, 72, 80
2, 11643, Note_on_c, 0, 69, 80
2, 11645, Note_on_c, 0, 41, 80
2, 11645, Note_on_c, 0, 51, 80
2, 11645, Note_on_c, 0, 57, 80
2, 11645, Note_on_c, 0, 63, 80
2, 11664, Control_c, 0, 64, 0
2, 11671, Note_on_c, 0, 53, 0
2, 11712, Note_on_c, 0, 69, 0
2, 11712, Note_on_c, 0, 72, 0
2, 11712, Note_on_c, 0, 65, 0
2, 11714, Note_on_c, 0, 60, 0
2, 11714, Note_on_c, 0, 57, 0
2, 11714, Note_on_c, 0, 63, 0
2, 11714, Note_on_c, 0, 51, 0
2, 11716, Note_on_c, 0, 41, 0
2, 11748, Note_on_c, 0, 38, 80
2, 11776, Note_on_c, 0, 77, 80
2, 11778, Note_on_c, 0, 53, 80
2, 11778, Note_on_c, 0, 65, 80
2, 11778, Note_on_c, 0, 67, 80
2, 11778, Note_on_c, 0, 70, 80
2, 11778, Note_on_c, 0, 74, 80
2, 11843, Note_on_c, 0, 74, 0
2, 11843, Note_on_c, 0, 77, 0
2, 11845, Note_on_c, 0, 67, 0
2, 11845, Note_on_c, 0, 65, 0
2, 11845, Note_on_c, 0, 70, 0
2, 11847, Note_on_c, 0, 53, 0
2, 11849, Note_on_c, 0, 38, 0
2, 11880, Note_on_c, 0, 37, 80
2, 11912, Note_on_c, 0, 81, 80
2, 11914, Note_on_c, 0, 69, 80
2, 11914, Note_on_c, 0, 70, 80
2, 11914, Note_on_c, 0, 73, 80
2, 11914, Note_on_c, 0, 76, 80
2, 11916, Note_on_c, 0, 52, 80
2, 11950, Control_c, 0, 64, 127
2, 12126, Note_on_c, 0, 76, 0
2, 12126, Note_on_c, 0, 81, 0
2, 12128, Note_on_c, 0, 73, 0
2, 12128, Note_on_c, 0, 70, 0
2, 12128, Note_on_c, 0, 69, 0
2, 12130, Note_on_c, 0, 37, 0
2, 12130, Note_on_c, 0, 52, 0
2, 12134, Control_c, 0, 64, 0
2, 12160, Note_on_c, 0, 40, 80
2, 12178, Note_on_c, 0, 70, 80
2, 12178, Note_on_c, 0, 73, 80
2, 12178, Note_on_c, 0, 76, 80
2, 12178, Note_on_c, 0, 79, 80
2, 12180, Note_on_c, 0, 55, 80
2, 12180, Note_on_c, 0, 67, 80
2, 12247, Note_on_c, 0, 67, 0
2, 12247, Note_on_c, 0, 73, 0
2, 12247, Note_on_c, 0, 76, 0
2, 12249, Note_on_c, 0, 55, 0
2, 12312, Note_on_c, 0, 69, 80
2, 12312, Note_on_c, 0, 75, 80
2, 12312, Note_on_c, 0, 77, 80
2, 12314, Note_on_c, 0, 51, 80
2, 12314, Note_on_c, 0, 57, 80
2, 12314, Note_on_c, 0, 65, 80
2, 12314, Note_on_c, 0, 72, 80
2, 12316, Note_on_c, 0, 79, 0
2, 12316, Note_on_c, 0, 70, 0
2, 12316, Note_on_c, 0, 41, 80
2, 12320, Note_on_c, 0, 40, 0
2, 12350, Control_c, 0, 64, 127
2, 12378, Note_on_c, 0, 72, 0
2, 12378, Note_on_c, 0, 75, 0
2, 12378, Note_on_c, 0, 77, 0
2, 12380, Note_on_c, 0, 65, 0
2, 12380, Note_on_c, 0, 57, 0
2, 12380, Note_on_c, 0, 69, 0
2, 12382, Note_on_c, 0, 51, 0
2, 12382, Note_on_c, 0, 41, 0
2, 12430, Control_c, 0, 64, 0
2, 12441, Note_on_c, 0, 55, 80
2, 12441, Note_on_c, 0, 79, 80
2, 12530, Note_on_c, 0, 77, 80
2, 12534, Note_on_c, 0, 53, 80
2, 12546, Note_on_c, 0, 79, 0
2, 12548, Note_on_c, 0, 55, 0
2, 12574, Note_on_c, 0, 75, 80
2, 12576, Note_on_c, 0, 51, 80
2, 12577, Note_on_c, 0, 77, 0
2, 12581, Note_on_c, 0, 53, 0
2, 12665, Note_on_c, 0, 72, 80
2, 12667, Note_on_c, 0, 48, 80
2, 12678, Note_on_c, 0, 75, 0
2, 12678, Note_on_c, 0, 51, 0
2, 12706, Note_on_c, 0, 69, 80
2, 12710, Note_on_c, 0, 72, 0
2, 12710, Note_on_c, 0, 45, 80
2, 12712, Note_on_c, 0, 48, 0
2, 12793, Note_on_c, 0, 65, 80
2, 12797, Note_on_c, 0, 41, 80
2, 12807, Note_on_c, 0, 69, 0
2, 12809, Note_on_c, 0, 45, 0
2, 12839, Note_on_c, 0, 50, 80
2, 12839, Note_on_c, 0, 58, 80
2, 12840, Note_on_c, 0, 65, 0
2, 12840, Note_on_c, 0, 43, 80
2, 12844, Note_on_c, 0, 41, 0
2, 12876, Note_on_c, 0, 50, 0
2, 12969, Note_on_c, 0, 73, 80
2, 12969, Note_on_c, 0, 79, 80
2, 12969, Note_on_c, 0, 82, 80
2, 12969, Note_on_c, 0, 85, 80
2, 12971, Note_on_c, 0, 55, 80
2, 12971, Note_on_c, 0, 62, 80
2, 12971, Note_on_c, 0, 64, 80
2, 13005, Note_on_c, 0, 64, 0
2, 13005, Note_on_c, 0, 62, 0
2, 13005, Note_on_c, 0, 55, 0
2, 13007, Note_on_c, 0, 58, 0
2, 13014, Note_on_c, 0, 82, 0
2, 13057, Note_on_c, 0, 82, 80
2, 13057, Note_on_c, 0, 86, 80
2, 13059, Note_on_c, 0, 74, 80
2, 13059, Note_on_c, 0, 76, 80
2, 13061, Note_on_c, 0, 73, 0
2, 13061, Note_on_c, 0, 85, 0
2, 13078, Note_on_c, 0, 43, 0
2, 13109, Note_on_c, 0, 38, 80
2, 13109, Note_on_c, 0, 50, 80
2, 13121, Note_on_c, 0, 76, 0
2, 13121, Note_on_c, 0, 82, 0
2, 13121, Note_on_c, 0, 79, 0
2, 13143, Note_on_c, 0, 50, 0
2, 13169, Note_on_c, 0, 82, 80
2, 13173, Note_on_c, 0, 86, 0
2, 13236, Note_on_c, 0, 64, 80
2, 13236, Note_on_c, 0, 70, 80
2, 13236, Note_on_c, 0, 76, 80
2, 13236, Note_on_c, 0, 79, 80
2, 13238, Note_on_c, 0, 82, 0
2, 13238, Note_on_c, 0, 55, 80
2, 13238, Note_on_c, 0, 58, 80
2, 13238, Note_on_c, 0, 62, 80
2, 13273, Note_on_c, 0, 62, 0
2, 13273, Note_on_c, 0, 58, 0
2, 13273, Note_on_c, 0, 55, 0
2, 13273, Note_on_c, 0, 64, 0
2, 13305, Note_on_c, 0, 74, 0
2, 13305, Note_on_c, 0, 70, 0
2, 13305, Note_on_c, 0, 79, 0
2, 13331, Note_on_c, 0, 38, 0
2, 13337, Note_on_c, 0, 42, 80
2, 13355, Note_on_c, 0, 78, 80
2, 13359, Note_on_c, 0, 57, 80
2, 13365, Note_on_c, 0, 81, 80
2, 13365, Note_on_c, 0, 84, 80
2, 13365, Note_on_c, 0, 72, 80
2, 13365, Note_on_c, 0, 74, 80
2, 13389, Note_on_c, 0, 74, 0
2, 13389, Note_on_c, 0, 72, 0
2, 13389, Note_on_c, 0, 81, 0
2, 13389, Note_on_c, 0, 76, 0
2, 13389, Note_on_c, 0, 84, 0
2, 13452, Note_on_c, 0, 81, 80
2, 13454, Note_on_c, 0, 72, 80
2, 13454, Note_on_c, 0, 74, 80
2, 13454, Note_on_c, 0, 76, 80
2, 13454, Note_on_c, 0, 84, 80
2, 13488, Note_on_c, 0, 54, 80
2, 13488, Note_on_c, 0, 60, 80
2, 13488, Note_on_c, 0, 64, 80
2, 13504, Note_on_c, 0, 57, 0
2, 13530, Note_on_c, 0, 81, 0
2, 13530, Note_on_c, 0, 76, 0
2, 13530, Note_on_c, 0, 78, 0
2, 13530, Note_on_c, 0, 74, 0
2, 13532, Note_on_c, 0, 60, 0
2, 13532, Note_on_c, 0, 64, 0
2, 13532, Note_on_c, 0, 72, 0
2, 13534, Note_on_c, 0, 54, 0
2, 13539, Note_on_c, 0, 84, 0
2, 13579, Note_on_c, 0, 74, 80
2, 13579, Note_on_c, 0, 76, 80
2, 13579, Note_on_c, 0, 78, 80
2, 13579, Note_on_c, 0, 81, 80
2, 13579, Note_on_c, 0, 84, 80
2, 13581, Note_on_c, 0, 72, 80
2, 13592, Note_on_c, 0, 72, 0
2, 13592, Note_on_c, 0, 78, 0
2, 13592, Note_on_c, 0, 81, 0
2, 13594, Note_on_c, 0, 74, 0
2, 13604, Note_on_c, 0, 38, 80
2, 13608, Note_on_c, 0, 42, 0
2, 13613, Note_on_c, 0, 84, 0
2, 13621, Note_on_c, 0, 69, 80
2, 13621, Note_on_c, 0, 72, 80
2, 13621, Note_on_c, 0, 78, 80
2, 13621, Note_on_c, 0, 81, 80
2, 13625, Note_on_c, 0, 54, 80
2, 13662, Control_c, 0, 64, 127
2, 13712, Note_on_c, 0, 55, 80
2, 13714, Note_on_c, 0, 40, 80
2, 13716, Note_on_c, 0, 54, 0
2, 13716, Note_on_c, 0, 38, 0
2, 13753, Note_on_c, 0, 41, 80
2, 13753, Note_on_c, 0, 56, 80
2, 13755, Note_on_c, 0, 78, 0
2, 13755, Note_on_c, 0, 76, 0
2, 13755, Note_on_c, 0, 72, 0
2, 13755, Note_on_c, 0, 81, 0
2, 13755, Note_on_c, 0, 69, 0
2, 13757, Note_on_c, 0, 55, 0
2, 13759, Note_on_c, 0, 40, 0
2, 13841, Control_c, 0, 64, 0
2, 13845, Note_on_c, 0, 57, 80
2, 13847, Note_on_c, 0, 42, 80
2, 13848, Note_on_c, 0, 56, 0
2, 13850, Note_on_c, 0, 41, 0
2, 13892, Note_on_c, 0, 59, 80
2, 13894, Note_on_c, 0, 43, 80
2, 13896, Note_on_c, 0, 57, 0
2, 13896, Note_on_c, 0, 42, 0
2, 13944, Note_on_c, 0, 82, 80
2, 13953, Note_on_c, 0, 83, 80
2, 13955, Note_on_c, 0, 71, 80
2, 13968, Note_on_c, 0, 82, 0
2, 13991, Note_on_c, 0, 71, 0
2, 14022, Note_on_c, 0, 60, 80
2, 14024, Note_on_c, 0, 59, 0
2, 14024, Note_on_c, 0, 45, 80
2, 14026, Note_on_c, 0, 43, 0
2, 14089, Note_on_c, 0, 82, 80
2, 14093, Note_on_c, 0, 83, 0
2, 14153, Note_on_c, 0, 81, 80
2, 14157, Note_on_c, 0, 61, 80
2, 14159, Note_on_c, 0, 82, 0
2, 14159, Note_on_c, 0, 46, 80
2, 14160, Note_on_c, 0, 60, 0
2, 14162, Note_on_c, 0, 45, 0
2, 14208, Note_on_c, 0, 80, 80
2, 14212, Note_on_c, 0, 81, 0
2, 14232, Note_on_c, 0, 79, 80
2, 14256, Note_on_c, 0, 78, 80
2, 14260, Note_on_c, 0, 80, 0
2, 14272, Note_on_c, 0, 79, 0
2, 14292, Note_on_c, 0, 62, 80
2, 14292, Note_on_c, 0, 77, 80
2, 14294, Note_on_c, 0, 78, 0
2, 14294, Note_on_c, 0, 47, 80
2, 14296, Note_on_c, 0, 61, 0
2, 14298, Note_on_c, 0, 46, 0
2, 14324, Note_on_c, 0, 74, 80
2, 14328, Note_on_c, 0, 77, 0
2, 14405, Note_on_c, 0, 74, 0
2, 14405, Note_on_c, 0, 43, 80
2, 14424, Note_on_c, 0, 77, 80
2, 14424, Note_on_c, 0, 81, 80
2, 14425, Note_on_c, 0, 59, 80
2, 14425, Note_on_c, 0, 69, 80
2, 14425, Note_on_c, 0, 71, 80
2, 14429, Note_on_c, 0, 62, 0
2, 14431, Note_on_c, 0, 47, 0
2, 14461, Note_on_c, 0, 77, 0
2, 14495, Note_on_c, 0, 71, 0
2, 14495, Note_on_c, 0, 81, 0
2, 14495, Note_on_c, 0, 69, 0
2, 14513, Note_on_c, 0, 77, 80
2, 14550, Note_on_c, 0, 77, 0
2, 14556, Note_on_c, 0, 74, 80
2, 14558, Note_on_c, 0, 60, 80
2, 14560, Note_on_c, 0, 45, 80
2, 14562, Note_on_c, 0, 43, 0
2, 14571, Note_on_c, 0, 59, 0
2, 14615, Note_on_c, 0, 74, 0
2, 14622, Note_on_c, 0, 71, 80
2, 14689, Note_on_c, 0, 61, 80
2, 14693, Note_on_c, 0, 60, 0
2, 14693, Note_on_c, 0, 46, 80
2, 14695, Control_c, 0, 64, 127
2, 14707, Note_on_c, 0, 45, 0
2, 14725, Note_on_c, 0, 71, 0
2, 14807, Control_c, 0, 64, 0
2, 14820, Note_on_c, 0, 62, 80
2, 14822, Note_on_c, 0, 47, 80
2, 14824, Note_on_c, 0, 61, 0
2, 14826, Note_on_c, 0, 46, 0
2, 14923, Note_on_c, 0, 62, 0
2, 14932, Note_on_c, 0, 36, 80
2, 14934, Note_on_c, 0, 47, 0
2, 14951, Note_on_c, 0, 67, 80
2, 14951, Note_on_c, 0, 69, 80
2, 14951, Note_on_c, 0, 72, 80
2, 14951, Note_on_c, 0, 75, 80
2, 14952, Note_on_c, 0, 51, 80
2, 15016, Note_on_c, 0, 75, 0
2, 15018, Note_on_c, 0, 72, 0
2, 15018, Note_on_c, 0, 69, 0
2, 15051, Note_on_c, 0, 38, 80
2, 15053, Note_on_c, 0, 51, 0
2, 15055, Note_on_c, 0, 36, 0
2, 15079, Note_on_c, 0, 77, 80
2, 15081, Note_on_c, 0, 65, 80
2, 15081, Note_on_c, 0, 71, 80
2, 15081, Note_on_c, 0, 74, 80
2, 15083, Note_on_c, 0, 53, 80
2, 15087, Control_c, 0, 64, 127
2, 15275, Note_on_c, 0, 74, 0
2, 15275, Note_on_c, 0, 77, 0
2, 15277, Note_on_c, 0, 71, 0
2, 15277, Note_on_c, 0, 65, 0
2, 15277, Note_on_c, 0, 67, 0
2, 15293, Control_c, 0, 64, 0
2, 15319, Note_on_c, 0, 39, 80
2, 15323, Note_on_c, 0, 38, 0
2, 15323, Note_on_c, 0, 53, 0
2, 15335, Note_on_c, 0, 69, 80
2, 15335, Note_on_c, 0, 79, 80
2, 15336, Note_on_c, 0, 67, 80
2, 15336, Note_on_c, 0, 72, 80
2, 15336, Note_on_c, 0, 75, 80
2, 15338, Note_on_c, 0, 55, 80
2, 15406, Note_on_c, 0, 75, 0
2, 15406, Note_on_c, 0, 79, 0
2, 15408, Note_on_c, 0, 72, 0
2, 15408, Note_on_c, 0, 69, 0
2, 15471, Note_on_c, 0, 70, 80
2, 15471, Note_on_c, 0, 74, 80
2, 15473, Note_on_c, 0, 48, 80
2, 15473, Note_on_c, 0, 64, 80
2, 15475, Note_on_c, 0, 36, 80
2, 15477, Note_on_c, 0, 55, 0
2, 15479, Note_on_c, 0, 39, 0
2, 15504, Note_on_c, 0, 64, 0
2, 15546, Note_on_c, 0, 74, 0
2, 15548, Note_on_c, 0, 70, 0
2, 15550, Note_on_c, 0, 36, 0
2, 15555, Note_on_c, 0, 52, 80
2, 15555, Note_on_c, 0, 64, 80
2, 15599, Note_on_c, 0, 70, 80
2, 15599, Note_on_c, 0, 74, 80
2, 15602, Note_on_c, 0, 36, 80
2, 15616, Note_on_c, 0, 52, 0
2, 15648, Note_on_c, 0, 70, 0
2, 15648, Note_on_c, 0, 67, 0
2, 15648, Note_on_c, 0, 64, 0
2, 15648, Note_on_c, 0, 74, 0
2, 15649, Note_on_c, 0, 48, 0
2, 15651, Note_on_c, 0, 36, 0
2, 15657, Note_on_c, 0, 41, 80
2, 15667, Note_on_c, 0, 60, 80
2, 15667, Note_on_c, 0, 63, 80
2, 15667, Note_on_c, 0, 69, 80
2, 15667, Note_on_c, 0, 72, 80
2, 15732, Control_c, 0, 64, 127
2, 15795, Note_on_c, 0, 72, 0
2, 15797, Note_on_c, 0, 63, 0
2, 15797, Note_on_c, 0, 60, 0
2, 15811, Note_on_c, 0, 41, 0
2, 15816, Note_on_c, 0, 65, 80
2, 15818, Note_on_c, 0, 51, 80
2, 15862, Note_on_c, 0, 72, 80
2, 15864, Note_on_c, 0, 41, 80
2, 15864, Note_on_c, 0, 57, 80
2, 15864, Note_on_c, 0, 60, 80
2, 15864, Note_on_c, 0, 63, 80
2, 15882, Control_c, 0, 64, 0
2, 15928, Note_on_c, 0, 72, 0
2, 15928, Note_on_c, 0, 69, 0
2, 15930, Note_on_c, 0, 57, 0
2, 15930, Note_on_c, 0, 51, 0
2, 15930, Note_on_c, 0, 65, 0
2, 15930, Note_on_c, 0, 63, 0
2, 15930, Note_on_c, 0, 60, 0
2, 15932, Note_on_c, 0, 41, 0
2, 15961, Note_on_c, 0, 38, 80
2, 15991, Note_on_c, 0, 65, 80
2, 15991, Note_on_c, 0, 67, 80
2, 15991, Note_on_c, 0, 70, 80
2, 15991, Note_on_c, 0, 74, 80
2, 15991, Note_on_c, 0, 77, 80
2, 15993, Note_on_c, 0, 53, 80
2, 16031, Note_on_c, 0, 53, 0
2, 16060, Note_on_c, 0, 74, 0
2, 16060, Note_on_c, 0, 77, 0
2, 16062, Note_on_c, 0, 67, 0
2, 16062, Note_on_c, 0, 65, 0
2, 16096, Note_on_c, 0, 37, 80
2, 16100, Note_on_c, 0, 38, 0
2, 16122, Note_on_c, 0, 81, 80
2, 16124, Note_on_c, 0, 69, 80
2, 16124, Note_on_c, 0, 73, 80
2, 16124, Note_on_c, 0, 76, 80
2, 16126, Note_on_c, 0, 52, 80
2, 16161, Control_c, 0, 64, 127
2, 16323, Note_on_c, 0, 76, 0
2, 16323, Note_on_c, 0, 81, 0
2, 16323, Note_on_c, 0, 70, 0
2, 16323, Note_on_c, 0, 69, 0
2, 16325, Note_on_c, 0, 52, 0
2, 16339, Control_c, 0, 64, 0
2, 16380, Note_on_c, 0, 40, 80
2, 16384, Note_on_c, 0, 37, 0
2, 16388, Note_on_c, 0, 67, 80
2, 16388, Note_on_c, 0, 70, 80
2, 16388, Note_on_c, 0, 76, 80
2, 16388, Note_on_c, 0, 79, 80
2, 16390, Note_on_c, 0, 55, 80
2, 16459, Note_on_c, 0, 79, 0
2, 16459, Note_on_c, 0, 70, 0
2, 16459, Note_on_c, 0, 73, 0
2, 16459, Note_on_c, 0, 67, 0
2, 16459, Note_on_c, 0, 76, 0
2, 16511, Note_on_c, 0, 41, 80
2, 16512, Note_on_c, 0, 55, 0
2, 16514, Note_on_c, 0, 40, 0
2, 16518, Note_on_c, 0, 67, 80
2, 16518, Note_on_c, 0, 69, 80
2, 16518, Note_on_c, 0, 72, 80
2, 16518, Note_on_c, 0, 75, 80
2, 16518, Note_on_c, 0, 79, 80
2, 16520, Note_on_c, 0, 57, 80
2, 16522, Note_on_c, 0, 51, 80
2, 16556, Control_c, 0, 64, 127
2, 16608, Note_on_c, 0, 77, 80
2, 16609, Note_on_c, 0, 65, 80
2, 16611, Note_on_c, 0, 79, 0
2, 16628, Note_on_c, 0, 51, 0
2, 16628, Note_on_c, 0, 57, 0
2, 16659, Note_on_c, 0, 72, 0
2, 16659, Note_on_c, 0, 75, 0
2, 16659, Note_on_c, 0, 69, 0
2, 16659, Note_on_c, 0, 67, 0
2, 16676, Control_c, 0, 64, 0
2, 16709, Note_on_c, 0, 41, 0
2, 16715, Note_on_c, 0, 77, 0
2, 16715, Note_on_c, 0, 45, 80
2, 16717, Note_on_c, 0, 65, 0
2, 16721, Note_on_c, 0, 75, 80
2, 16721, Note_on_c, 0, 81, 80
2, 16723, Note_on_c, 0, 60, 80
2, 16723, Note_on_c, 0, 69, 80
2, 16727, Control_c, 0, 64, 127
2, 16780, Note_on_c, 0, 81, 0
2, 16782, Note_on_c, 0, 60, 0
2, 16782, Note_on_c, 0, 69, 0
2, 16782, Note_on_c, 0, 75, 0
2, 16800, Note_on_c, 0, 79, 80
2, 16802, Note_on_c, 0, 67, 80
2, 16830, Note_on_c, 0, 67, 0
2, 16830, Note_on_c, 0, 79, 0
2, 16838, Note_on_c, 0, 69, 80
2, 16838, Note_on_c, 0, 81, 80
2, 16864, Note_on_c, 0, 81, 0
2, 16864, Note_on_c, 0, 69, 0
2, 16870, Note_on_c, 0, 79, 80
2, 16872, Note_on_c, 0, 67, 80
2, 16879, Control_c, 0, 64, 0
2, 16891, Note_on_c, 0, 75, 80
2, 16891, Note_on_c, 0, 77, 80
2, 16893, Note_on_c, 0, 51, 80
2, 16893, Note_on_c, 0, 57, 80
2, 16893, Note_on_c, 0, 65, 80
2, 16895, Note_on_c, 0, 79, 0
2, 16895, Note_on_c, 0, 41, 80
2, 16898, Note_on_c, 0, 45, 0
2, 16958, Note_on_c, 0, 75, 0
2, 16960, Note_on_c, 0, 67, 0
2, 16960, Note_on_c, 0, 65, 0
2, 16960, Note_on_c, 0, 57, 0
2, 16962, Note_on_c, 0, 51, 0
2, 16992, Note_on_c, 0, 77, 0
2, 17010, Note_on_c, 0, 41, 0
2, 17038, Note_on_c, 0, 43, 80
2, 17038, Note_on_c, 0, 58, 80
2, 17111, Note_on_c, 0, 69, 80
2, 17111, Note_on_c, 0, 73, 80
2, 17154, Note_on_c, 0, 64, 80
2, 17154, Note_on_c, 0, 70, 80
2, 17154, Note_on_c, 0, 74, 80
2, 17156, Note_on_c, 0, 55, 80
2, 17156, Note_on_c, 0, 62, 80
2, 17158, Note_on_c, 0, 73, 0
2, 17158, Note_on_c, 0, 69, 0
2, 17189, Note_on_c, 0, 64, 0
2, 17191, Note_on_c, 0, 55, 0
2, 17191, Note_on_c, 0, 58, 0
2, 17201, Note_on_c, 0, 70, 0
2, 17225, Control_c, 0, 64, 127
2, 17243, Note_on_c, 0, 67, 80
2, 17243, Note_on_c, 0, 70, 80
2, 17245, Note_on_c, 0, 74, 0
2, 17247, Note_on_c, 0, 62, 0
2, 17273, Control_c, 0, 64, 0
2, 17293, Note_on_c, 0, 43, 0
2, 17299, Note_on_c, 0, 57, 80
2, 17301, Note_on_c, 0, 42, 80
2, 17360, Note_on_c, 0, 69, 80
2, 17362, Note_on_c, 0, 66, 80
2, 17364, Note_on_c, 0, 70, 0
2, 17364, Note_on_c, 0, 67, 0
2, 17407, Note_on_c, 0, 69, 0
2, 17427, Note_on_c, 0, 54, 80
2, 17427, Note_on_c, 0, 69, 80
2, 17427, Note_on_c, 0, 72, 80
2, 17429, Note_on_c, 0, 60, 80
2, 17429, Note_on_c, 0, 62, 80
2, 17431, Note_on_c, 0, 66, 0
2, 17477, Note_on_c, 0, 57, 0
2, 17477, Note_on_c, 0, 62, 0
2, 17477, Note_on_c, 0, 54, 0
2, 17477, Note_on_c, 0, 60, 0
2, 17505, Note_on_c, 0, 67, 80
2, 17505, Note_on_c, 0, 70, 80
2, 17507, Note_on_c, 0, 72, 0
2, 17509, Note_on_c, 0, 69, 0
2, 17541, Control_c, 0, 64, 127
2, 17554, Note_on_c, 0, 42, 0
2, 17560, Note_on_c, 0, 66, 80
2, 17560, Note_on_c, 0, 69, 80
2, 17562, Note_on_c, 0, 38, 80
2, 17562, Note_on_c, 0, 54, 80
2, 17564, Note_on_c, 0, 67, 0
2, 17573, Note_on_c, 0, 70, 0
2, 17623, Control_c, 0, 64, 0
2, 17653, Note_on_c, 0, 60, 80
2, 17653, Note_on_c, 0, 63, 80
2, 17664, Note_on_c, 0, 69, 0
2, 17666, Note_on_c, 0, 66, 0
2, 17680, Note_on_c, 0, 75, 80
2, 17682, Note_on_c, 0, 72, 80
2, 17693, Note_on_c, 0, 55, 80
2, 17695, Note_on_c, 0, 39, 80
2, 17697, Note_on_c, 0, 54, 0
2, 17697, Note_on_c, 0, 60, 0
2, 17697, Note_on_c, 0, 63, 0
2, 17699, Note_on_c, 0, 38, 0
2, 17781, Note_on_c, 0, 74, 80
2, 17783, Note_on_c, 0, 70, 80
2, 17784, Note_on_c, 0, 75, 0
2, 17784, Note_on_c, 0, 72, 0
2, 17828, Note_on_c, 0, 69, 80
2, 17828, Note_on_c, 0, 72, 80
2, 17830, Note_on_c, 0, 42, 80
2, 17830, Note_on_c, 0, 57, 80
2, 17832, Note_on_c, 0, 55, 0
2, 17832, Note_on_c, 0, 74, 0
2, 17832, Note_on_c, 0, 70, 0
2, 17833, Note_on_c, 0, 39, 0
2, 17915, Note_on_c, 0, 62, 80
2, 17915, Note_on_c, 0, 66, 80
2, 17931, Note_on_c, 0, 69, 0
2, 17931, Note_on_c, 0, 72, 0
2, 17961, Note_on_c, 0, 45, 80
2, 17961, Note_on_c, 0, 60, 80
2, 17963, Note_on_c, 0, 57, 0
2, 17965, Note_on_c, 0, 42, 0
2, 18008, Note_on_c, 0, 62, 0
2, 18008, Note_on_c, 0, 66, 0
2, 18090, Note_on_c, 0, 59, 80
2, 18092, Note_on_c, 0, 43, 80
2, 18094, Control_c, 0, 64, 127
2, 18096, Note_on_c, 0, 60, 0
2, 18096, Note_on_c, 0, 45, 0
2, 18121, Note_on_c, 0, 66, 80
2, 18125, Note_on_c, 0, 59, 0
2, 18135, Note_on_c, 0, 66, 0
2, 18143, Note_on_c, 0, 70, 80
2, 18159, Note_on_c, 0, 70, 0
2, 18165, Note_on_c, 0, 66, 80
2, 18181, Note_on_c, 0, 66, 0
2, 18189, Note_on_c, 0, 70, 80
2, 18202, Note_on_c, 0, 70, 0
2, 18208, Note_on_c, 0, 66, 80
2, 18221, Note_on_c, 0, 60, 80
2, 18223, Note_on_c, 0, 45, 80
2, 18225, Note_on_c, 0, 66, 0
2, 18225, Note_on_c, 0, 43, 0
2, 18231, Note_on_c, 0, 70, 80
2, 18244, Note_on_c, 0, 70, 0
2, 18268, Control_c, 0, 64, 0
2, 18276, Note_on_c, 0, 60, 0
2, 18282, Note_on_c, 0, 67, 80
2, 18282, Note_on_c, 0, 71, 80
2, 18337, Note_on_c, 0, 71, 0
2, 18337, Note_on_c, 0, 67, 0
2, 18345, Note_on_c, 0, 61, 80
2, 18347, Note_on_c, 0, 46, 80
2, 18360, Note_on_c, 0, 45, 0
2, 18394, Note_on_c, 0, 61, 0
2, 18435, Note_on_c, 0, 70, 80
2, 18435, Note_on_c, 0, 73, 80
2, 18477, Note_on_c, 0, 74, 80
2, 18479, Note_on_c, 0, 62, 80
2, 18479, Note_on_c, 0, 71, 80
2, 18480, Note_on_c, 0, 73, 0
2, 18480, Note_on_c, 0, 47, 80
2, 18482, Note_on_c, 0, 46, 0
2, 18482, Note_on_c, 0, 70, 0
2, 18546, Note_on_c, 0, 62, 0
2, 18546, Note_on_c, 0, 74, 0
2, 18546, Note_on_c, 0, 71, 0
2, 18579, Note_on_c, 0, 43, 80
2, 18583, Note_on_c, 0, 47, 0
2, 18613, Note_on_c, 0, 50, 80
2, 18613, Note_on_c, 0, 59, 80
2, 18661, Note_on_c, 0, 59, 0
2, 18663, Note_on_c, 0, 50, 0
2, 18741, Note_on_c, 0, 43, 0
2, 18746, Note_on_c, 0, 60, 80
2, 18746, Note_on_c, 0, 66, 80
2, 18746, Note_on_c, 0, 78, 80
2, 18748, Note_on_c, 0, 45, 80
2, 18796, Note_on_c, 0, 60, 0
2, 18838, Note_on_c, 0, 67, 80
2, 18838, Note_on_c, 0, 79, 80
2, 18841, Note_on_c, 0, 78, 0
2, 18843, Note_on_c, 0, 66, 0
2, 18883, Note_on_c, 0, 62, 80
2, 18883, Note_on_c, 0, 65, 80
2, 18883, Note_on_c, 0, 71, 80
2, 18883, Note_on_c, 0, 80, 80
2, 18885, Note_on_c, 0, 79, 0
2, 18885, Note_on_c, 0, 47, 80
2, 18887, Note_on_c, 0, 67, 0
2, 18888, Note_on_c, 0, 45, 0
2, 18930, Note_on_c, 0, 62, 0
2, 18961, Note_on_c, 0, 80, 0
2, 18961, Note_on_c, 0, 71, 0
2, 18963, Note_on_c, 0, 65, 0
2, 18969, Note_on_c, 0, 79, 80
2, 18971, Note_on_c, 0, 67, 80
2, 19017, Note_on_c, 0, 78, 80
2, 19019, Note_on_c, 0, 64, 80
2, 19019, Note_on_c, 0, 66, 80
2, 19021, Note_on_c, 0, 67, 0
2, 19021, Note_on_c, 0, 79, 0
2, 19021, Note_on_c, 0, 49, 80
2, 19023, Note_on_c, 0, 47, 0
2, 19055, Note_on_c, 0, 64, 0
2, 19082, Note_on_c, 0, 67, 80
2, 19082, Note_on_c, 0, 79, 80
2, 19086, Note_on_c, 0, 78, 0
2, 19088, Note_on_c, 0, 66, 0
2, 19120, Note_on_c, 0, 67, 0
2, 19144, Note_on_c, 0, 49, 0
2, 19148, Note_on_c, 0, 75, 80
2, 19150, Note_on_c, 0, 67, 80
2, 19150, Note_on_c, 0, 69, 80
2, 19150, Note_on_c, 0, 72, 80
2, 19152, Note_on_c, 0, 79, 0
2, 19152, Note_on_c, 0, 36, 80
2, 19152, Note_on_c, 0, 51, 80
2, 19187, Note_on_c, 0, 51, 0
2, 19219, Note_on_c, 0, 72, 0
2, 19219, Note_on_c, 0, 75, 0
2, 19219, Note_on_c, 0, 69, 0
2, 19260, Note_on_c, 0, 38, 80
2, 19264, Note_on_c, 0, 36, 0
2, 19280, Note_on_c, 0, 65, 80
2, 19280, Note_on_c, 0, 71, 80
2, 19280, Note_on_c, 0, 74, 80
2, 19280, Note_on_c, 0, 77, 80
2, 19282, Note_on_c, 0, 53, 80
2, 19347, Control_c, 0, 64, 127
2, 19488, Note_on_c, 0, 77, 0
2, 19488, Note_on_c, 0, 71, 0
2, 19488, Note_on_c, 0, 67, 0
2, 19488, Note_on_c, 0, 74, 0
2, 19490, Note_on_c, 0, 65, 0
2, 19490, Note_on_c, 0, 53, 0
2, 19492, Control_c, 0, 64, 0
2, 19540, Note_on_c, 0, 67, 80
2, 19540, Note_on_c, 0, 72, 80
2, 19540, Note_on_c, 0, 75, 80
2, 19540, Note_on_c, 0, 79, 80
2, 19542, Note_on_c, 0, 55, 80
2, 19542, Note_on_c, 0, 69, 80
2, 19544, Note_on_c, 0, 39, 80
2, 19546, Note_on_c, 0, 38, 0
2, 19592, Note_on_c, 0, 55, 0
2, 19612, Note_on_c, 0, 69, 0
2, 19612, Note_on_c, 0, 79, 0
2, 19612, Note_on_c, 0, 75, 0
2, 19612, Note_on_c, 0, 67, 0
2, 19612, Note_on_c, 0, 72, 0
2, 19670, Note_on_c, 0, 36, 80
2, 19674, Note_on_c, 0, 39, 0
2, 19678, Note_on_c, 0, 67, 80
2, 19678, Note_on_c, 0, 74, 80
2, 19680, Note_on_c, 0, 52, 80
2, 19680, Note_on_c, 0, 64, 80
2, 19680, Note_on_c, 0, 70, 80
2, 19715, Note_on_c, 0, 52, 0
2, 19725, Note_on_c, 0, 64, 0
2, 19756, Note_on_c, 0, 74, 0
2, 19756, Note_on_c, 0, 70, 0
2, 19766, Note_on_c, 0, 64, 80
2, 19768, Note_on_c, 0, 52, 80
2, 19809, Note_on_c, 0, 55, 80
2, 19809, Note_on_c, 0, 70, 80
2, 19809, Note_on_c, 0, 74, 80
2, 19811, Note_on_c, 0, 40, 80
2, 19815, Note_on_c, 0, 36, 0
2, 19856, Note_on_c, 0, 55, 0
2, 19856, Note_on_c, 0, 70, 0
2, 19856, Note_on_c, 0, 64, 0
2, 19856, Note_on_c, 0, 67, 0
2, 19856, Note_on_c, 0, 74, 0
2, 19858, Note_on_c, 0, 52, 0
2, 19874, Note_on_c, 0, 60, 80
2, 19874, Note_on_c, 0, 63, 80
2, 19874, Note_on_c, 0, 69, 80
2, 19874, Note_on_c, 0, 72, 80
2, 19876, Note_on_c, 0, 41, 80
2, 19880, Note_on_c, 0, 40, 0
2, 19908, Control_c, 0, 64, 127
2, 20009, Note_on_c, 0, 72, 0
2, 20011, Note_on_c, 0, 60, 0
2, 20029, Note_on_c, 0, 65, 80
2, 20031, Note_on_c, 0, 53, 80
2, 20070, Note_on_c, 0, 72, 80
2, 20072, Note_on_c, 0, 51, 80
2, 20072, Note_on_c, 0, 57, 80
2, 20072, Note_on_c, 0, 60, 80
2, 20090, Control_c, 0, 64, 0
2, 20138, Note_on_c, 0, 60, 0
2, 20138, Note_on_c, 0, 72, 0
2, 20138, Note_on_c, 0, 69, 0
2, 20138, Note_on_c, 0, 65, 0
2, 20138, Note_on_c, 0, 63, 0
2, 20140, Note_on_c, 0, 53, 0
2, 20140, Note_on_c, 0, 57, 0
2, 20140, Note_on_c, 0, 51, 0
2, 20198, Note_on_c, 0, 41, 0
2, 20204, Note_on_c, 0, 65, 80
2, 20204, Note_on_c, 0, 67, 80
2, 20204, Note_on_c, 0, 70, 80
2, 20204, Note_on_c, 0, 74, 80
2, 20204, Note_on_c, 0, 77, 80
2, 20206, Note_on_c, 0, 38, 80
2, 20206, Note_on_c, 0, 53, 80
2, 20271, Note_on_c, 0, 77, 0
2, 20271, Note_on_c, 0, 74, 0
2, 20273, Note_on_c, 0, 65, 0
2, 20273, Note_on_c, 0, 67, 0
2, 20275, Note_on_c, 0, 38, 0
2, 20275, Note_on_c, 0, 53, 0
2, 20303, Note_on_c, 0, 37, 80
2, 20332, Note_on_c, 0, 73, 80
2, 20332, Note_on_c, 0, 81, 80
2, 20334, Note_on_c, 0, 52, 80
2, 20334, Note_on_c, 0, 69, 80
2, 20334, Note_on_c, 0, 76, 80
2, 20338, Control_c, 0, 64, 127
2, 20528, Note_on_c, 0, 76, 0
2, 20528, Note_on_c, 0, 73, 0
2, 20528, Note_on_c, 0, 70, 0
2, 20528, Note_on_c, 0, 69, 0
2, 20530, Note_on_c, 0, 52, 0
2, 20542, Control_c, 0, 64, 0
2, 20590, Note_on_c, 0, 55, 80
2, 20590, Note_on_c, 0, 67, 80
2, 20590, Note_on_c, 0, 70, 80
2, 20590, Note_on_c, 0, 73, 80
2, 20590, Note_on_c, 0, 76, 80
2, 20590, Note_on_c, 0, 79, 80
2, 20592, Note_on_c, 0, 81, 0
2, 20592, Note_on_c, 0, 40, 80
2, 20595, Note_on_c, 0, 37, 0
2, 20655, Note_on_c, 0, 67, 0
2, 20655, Note_on_c, 0, 73, 0
2, 20655, Note_on_c, 0, 79, 0
2, 20655, Note_on_c, 0, 70, 0
2, 20655, Note_on_c, 0, 76, 0
2, 20657, Note_on_c, 0, 40, 0
2, 20657, Note_on_c, 0, 55, 0
2, 20698, Note_on_c, 0, 41, 80
2, 20716, Note_on_c, 0, 69, 80
2, 20716, Note_on_c, 0, 72, 80
2, 20716, Note_on_c, 0, 75, 80
2, 20716, Note_on_c, 0, 77, 80
2, 20718, Note_on_c, 0, 51, 80
2, 20718, Note_on_c, 0, 57, 80
2, 20718, Note_on_c, 0, 63, 80
2, 20744, Note_on_c, 0, 51, 0
2, 20764, Note_on_c, 0, 75, 0
2, 20764, Note_on_c, 0, 72, 0
2, 20764, Note_on_c, 0, 77, 0
2, 20766, Note_on_c, 0, 57, 0
2, 20766, Note_on_c, 0, 63, 0
2, 20766, Note_on_c, 0, 69, 0
2, 20768, Note_on_c, 0, 41, 0
2, 20786, Note_on_c, 0, 87, 80
2, 20788, Note_on_c, 0, 51, 80
2, 20808, Note_on_c, 0, 89, 80
2, 20810, Note_on_c, 0, 87, 0
2, 20810, Note_on_c, 0, 53, 80
2, 20814, Note_on_c, 0, 51, 0
2, 20831, Note_on_c, 0, 90, 80
2, 20834, Note_on_c, 0, 89, 0
2, 20834, Note_on_c, 0, 54, 80
2, 20838, Note_on_c, 0, 53, 0
2, 20850, Note_on_c, 0, 91, 80
2, 20854, Note_on_c, 0, 55, 80
2, 20856, Note_on_c, 0, 90, 0
2, 20857, Note_on_c, 0, 54, 0
2, 20941, Note_on_c, 0, 89, 80
2, 20945, Note_on_c, 0, 91, 0
2, 20945, Note_on_c, 0, 53, 80
2, 20947, Note_on_c, 0, 55, 0
2, 20988, Note_on_c, 0, 87, 80
2, 20990, Note_on_c, 0, 89, 0
2, 20990, Note_on_c, 0, 51, 80
2, 20994, Note_on_c, 0, 53, 0
2, 21075, Note_on_c, 0, 84, 80
2, 21077, Note_on_c, 0, 48, 80
2, 21079, Note_on_c, 0, 87, 0
2, 21081, Note_on_c, 0, 51, 0
2, 21119, Note_on_c, 0, 81, 80
2, 21122, Note_on_c, 0, 84, 0
2, 21122, Note_on_c, 0, 45, 80
2, 21126, Note_on_c, 0, 48, 0
2, 21214, Note_on_c, 0, 77, 80
2, 21217, Note_on_c, 0, 81, 0
2, 21217, Note_on_c, 0, 41, 80
2, 21219, Note_on_c, 0, 45, 0
2, 21245, Note_on_c, 0, 70, 80
2, 21247, Note_on_c, 0, 58, 80
2, 21247, Note_on_c, 0, 62, 80
2, 21247, Note_on_c, 0, 64, 80
2, 21247, Note_on_c, 0, 67, 80
2, 21249, Note_on_c, 0, 77, 0
2, 21249, Note_on_c, 0, 43, 80
2, 21251, Note_on_c, 0, 41, 0
2, 21292, Note_on_c, 0, 64, 0
2, 21292, Note_on_c, 0, 67, 0
2, 21292, Control_c, 0, 64, 127
2, 21294, Note_on_c, 0, 43, 0
2, 21304, Note_on_c, 0, 62, 0
2, 21391, Note_on_c, 0, 62, 80
2, 21391, Note_on_c, 0, 64, 80
2, 21393, Note_on_c, 0, 55, 80
2, 21411, Control_c, 0, 64, 0
2, 21430, Note_on_c, 0, 64, 0
2, 21430, Note_on_c, 0, 62, 0
2, 21432, Note_on_c, 0, 55, 0
2, 21467, Note_on_c, 0, 74, 80
2, 21467, Note_on_c, 0, 82, 80
2, 21513, Note_on_c, 0, 76, 80
2, 21513, Note_on_c, 0, 79, 80
2, 21515, Note_on_c, 0, 82, 0
2, 21515, Note_on_c, 0, 74, 0
2, 21515, Note_on_c, 0, 50, 80
2, 21517, Note_on_c, 0, 38, 80
2, 21551, Note_on_c, 0, 38, 0
2, 21551, Note_on_c, 0, 50, 0
2, 21599, Note_on_c, 0, 74, 80
2, 21599, Note_on_c, 0, 82, 80
2, 21602, Note_on_c, 0, 76, 0
2, 21602, Note_on_c, 0, 79, 0
2, 21644, Note_on_c, 0, 82, 0
2, 21644, Note_on_c, 0, 55, 80
2, 21644, Note_on_c, 0, 62, 80
2, 21644, Note_on_c, 0, 64, 80
2, 21644, Note_on_c, 0, 76, 80
2, 21644, Note_on_c, 0, 79, 80
2, 21646, Note_on_c, 0, 74, 0
2, 21675, Note_on_c, 0, 62, 0
2, 21675, Note_on_c, 0, 64, 0
2, 21677, Note_on_c, 0, 55, 0
2, 21707, Note_on_c, 0, 76, 0
2, 21709, Note_on_c, 0, 79, 0
2, 21765, Note_on_c, 0, 58, 0
2, 21765, Note_on_c, 0, 70, 0
2, 21772, Note_on_c, 0, 62, 80
2, 21772, Note_on_c, 0, 66, 80
2, 21772, Note_on_c, 0, 72, 80
2, 21774, Note_on_c, 0, 54, 80
2, 21774, Note_on_c, 0, 60, 80
2, 21776, Note_on_c, 0, 45, 80
2, 21786, Control_c, 0, 64, 127
2, 21816, Note_on_c, 0, 66, 0
2, 21816, Note_on_c, 0, 62, 0
2, 21817, Note_on_c, 0, 54, 0
2, 21827, Note_on_c, 0, 45, 0
2, 21894, Control_c, 0, 64, 0
2, 21898, Note_on_c, 0, 54, 80
2, 21898, Note_on_c, 0, 62, 80
2, 21934, Note_on_c, 0, 62, 0
2, 21934, Note_on_c, 0, 54, 0
2, 21987, Note_on_c, 0, 74, 80
2, 21987, Note_on_c, 0, 84, 80
2, 22031, Note_on_c, 0, 81, 80
2, 22032, Note_on_c, 0, 78, 80
2, 22034, Note_on_c, 0, 84, 0
2, 22034, Note_on_c, 0, 54, 80
2, 22036, Note_on_c, 0, 74, 0
2, 22036, Note_on_c, 0, 38, 80
2, 22068, Note_on_c, 0, 54, 0
2, 22070, Note_on_c, 0, 38, 0
2, 22098, Note_on_c, 0, 78, 0
2, 22116, Note_on_c, 0, 84, 80
2, 22118, Note_on_c, 0, 74, 80
2, 22122, Note_on_c, 0, 81, 0
2, 22163, Note_on_c, 0, 78, 80
2, 22163, Note_on_c, 0, 81, 80
2, 22165, Note_on_c, 0, 54, 80
2, 22165, Note_on_c, 0, 62, 80
2, 22167, Note_on_c, 0, 84, 0
2, 22167, Note_on_c, 0, 74, 0
2, 22202, Note_on_c, 0, 62, 0
2, 22202, Note_on_c, 0, 54, 0
2, 22232, Note_on_c, 0, 78, 0
2, 22232, Note_on_c, 0, 81, 0
2, 22288, Note_on_c, 0, 72, 0
2, 22297, Note_on_c, 0, 59, 80
2, 22297, Note_on_c, 0, 62, 80
2, 22297, Note_on_c, 0, 65, 80
2, 22297, Note_on_c, 0, 67, 80
2, 22297, Note_on_c, 0, 71, 80
2, 22299, Note_on_c, 0, 43, 80
2, 22301, Note_on_c, 0, 60, 0
2, 22344, Note_on_c, 0, 67, 0
2, 22344, Note_on_c, 0, 65, 0
2, 22344, Note_on_c, 0, 62, 0
2, 22346, Note_on_c, 0, 43, 0
2, 22346, Control_c, 0, 64, 127
2, 22426, Control_c, 0, 64, 0
2, 22430, Note_on_c, 0, 55, 80
2, 22432, Note_on_c, 0, 50, 80
2, 22432, Note_on_c, 0, 53, 80
2, 22465, Note_on_c, 0, 55, 0
2, 22467, Note_on_c, 0, 50, 0
2, 22467, Note_on_c, 0, 53, 0
2, 22515, Note_on_c, 0, 74, 80
2, 22515, Note_on_c, 0, 83, 80
2, 22561, Note_on_c, 0, 77, 80
2, 22563, Note_on_c, 0, 79, 80
2, 22565, Note_on_c, 0, 83, 0
2, 22565, Note_on_c, 0, 53, 80
2, 22567, Note_on_c, 0, 74, 0
2, 22567, Note_on_c, 0, 38, 80
2, 22601, Note_on_c, 0, 38, 0
2, 22601, Note_on_c, 0, 53, 0
2, 22647, Note_on_c, 0, 74, 80
2, 22647, Note_on_c, 0, 83, 80
2, 22653, Note_on_c, 0, 77, 0
2, 22653, Note_on_c, 0, 79, 0
2, 22692, Note_on_c, 0, 62, 80
2, 22692, Note_on_c, 0, 77, 80
2, 22692, Note_on_c, 0, 79, 80
2, 22694, Note_on_c, 0, 74, 0
2, 22694, Note_on_c, 0, 83, 0
2, 22694, Note_on_c, 0, 53, 80
2, 22729, Note_on_c, 0, 53, 0
2, 22739, Note_on_c, 0, 62, 0
2, 22759, Note_on_c, 0, 77, 0
2, 22759, Note_on_c, 0, 79, 0
2, 22817, Note_on_c, 0, 71, 0
2, 22823, Note_on_c, 0, 83, 80
2, 22823, Note_on_c, 0, 86, 80
2, 22826, Note_on_c, 0, 43, 80
2, 22826, Note_on_c, 0, 55, 80
2, 22828, Note_on_c, 0, 59, 0
2, 22847, Note_on_c, 0, 83, 0
2, 22847, Note_on_c, 0, 86, 0
2, 22854, Note_on_c, 0, 74, 80
2, 22854, Note_on_c, 0, 77, 80
2, 22880, Note_on_c, 0, 77, 0
2, 22880, Note_on_c, 0, 74, 0
2, 22886, Note_on_c, 0, 83, 80
2, 22886, Note_on_c, 0, 86, 80
2, 22906, Note_on_c, 0, 43, 0
2, 22906, Note_on_c, 0, 55, 0
2, 22914, Note_on_c, 0, 83, 0
2, 22914, Note_on_c, 0, 86, 0
2, 22914, Note_on_c, 0, 42, 80
2, 22914, Note_on_c, 0, 54, 80
2, 22920, Note_on_c, 0, 74, 80
2, 22921, Note_on_c, 0, 77, 80
2, 22947, Note_on_c, 0, 77, 0
2, 22947, Note_on_c, 0, 74, 0
2, 22955, Note_on_c, 0, 83, 80
2, 22955, Note_on_c, 0, 86, 80
2, 22957, Note_on_c, 0, 55, 80
2, 22959, Note_on_c, 0, 43, 80
2, 22961, Note_on_c, 0, 54, 0
2, 22961, Note_on_c, 0, 42, 0
2, 22981, Note_on_c, 0, 86, 0
2, 22983, Note_on_c, 0, 83, 0
2, 22989, Note_on_c, 0, 77, 80
2, 22991, Note_on_c, 0, 74, 80
2, 23015, Note_on_c, 0, 74, 0
2, 23015, Note_on_c, 0, 77, 0
2, 23020, Note_on_c, 0, 83, 80
2, 23020, Note_on_c, 0, 86, 80
2, 23042, Note_on_c, 0, 57, 80
2, 23044, Note_on_c, 0, 86, 0
2, 23044, Note_on_c, 0, 83, 0
2, 23044, Note_on_c, 0, 45, 80
2, 23048, Note_on_c, 0, 55, 0
2, 23048, Note_on_c, 0, 43, 0
2, 23050, Note_on_c, 0, 77, 80
2, 23052, Note_on_c, 0, 74, 80
2, 23074, Note_on_c, 0, 74, 0
2, 23074, Note_on_c, 0, 77, 0
2, 23084, Note_on_c, 0, 83, 80
2, 23084, Note_on_c, 0, 86, 80
2, 23088, Note_on_c, 0, 47, 80
2, 23088, Note_on_c, 0, 59, 80
2, 23089, Note_on_c, 0, 57, 0
2, 23089, Note_on_c, 0, 45, 0
2, 23108, Note_on_c, 0, 86, 0
2, 23108, Note_on_c, 0, 83, 0
2, 23115, Note_on_c, 0, 74, 80
2, 23115, Note_on_c, 0, 77, 80
2, 23143, Note_on_c, 0, 77, 0
2, 23143, Note_on_c, 0, 74, 0
2, 23151, Note_on_c, 0, 83, 80
2, 23151, Note_on_c, 0, 86, 80
2, 23177, Note_on_c, 0, 86, 0
2, 23177, Note_on_c, 0, 83, 0
2, 23177, Note_on_c, 0, 43, 80
2, 23177, Note_on_c, 0, 55, 80
2, 23181, Note_on_c, 0, 47, 0
2, 23184, Note_on_c, 0, 74, 80
2, 23184, Note_on_c, 0, 77, 80
2, 23190, Note_on_c, 0, 59, 0
2, 23210, Note_on_c, 0, 74, 0
2, 23210, Note_on_c, 0, 77, 0
2, 23216, Note_on_c, 0, 86, 80
2, 23220, Note_on_c, 0, 83, 80
2, 23222, Note_on_c, 0, 45, 80
2, 23222, Note_on_c, 0, 57, 80
2, 23226, Note_on_c, 0, 43, 0
2, 23235, Note_on_c, 0, 55, 0
2, 23241, Note_on_c, 0, 83, 0
2, 23241, Note_on_c, 0, 86, 0
2, 23249, Note_on_c, 0, 74, 80
2, 23249, Note_on_c, 0, 77, 80
2, 23275, Note_on_c, 0, 77, 0
2, 23275, Note_on_c, 0, 74, 0
2, 23282, Note_on_c, 0, 83, 80
2, 23282, Note_on_c, 0, 86, 80
2, 23306, Note_on_c, 0, 86, 0
2, 23306, Note_on_c, 0, 83, 0
2, 23306, Note_on_c, 0, 47, 80
2, 23306, Note_on_c, 0, 59, 80
2, 23310, Note_on_c, 0, 57, 0
2, 23318, Note_on_c, 0, 74, 80
2, 23318, Note_on_c, 0, 77, 80
2, 23322, Note_on_c, 0, 45, 0
2, 23342, Note_on_c, 0, 74, 0
2, 23342, Note_on_c, 0, 77, 0
2, 23350, Note_on_c, 0, 84, 80
2, 23352, Note_on_c, 0, 64, 80
2, 23352, Note_on_c, 0, 70, 80
2, 23352, Note_on_c, 0, 76, 80
2, 23353, Note_on_c, 0, 48, 80
2, 23353, Note_on_c, 0, 58, 80
2, 23355, Note_on_c, 0, 47, 0
2, 23365, Note_on_c, 0, 59, 0
2, 23367, Control_c, 0, 64, 127
2, 23419, Note_on_c, 0, 70, 0
2, 23419, Note_on_c, 0, 76, 0
2, 23421, Note_on_c, 0, 58, 0
2, 23448, Control_c, 0, 64, 0
2, 23474, Note_on_c, 0, 46, 80
2, 23478, Note_on_c, 0, 48, 0
2, 23482, Note_on_c, 0, 67, 80
2, 23484, Note_on_c, 0, 58, 80
2, 23486, Note_on_c, 0, 64, 0
2, 23536, Note_on_c, 0, 46, 0
2, 23536, Note_on_c, 0, 58, 0
2, 23568, Note_on_c, 0, 67, 0
2, 23575, Note_on_c, 0, 74, 80
2, 23577, Note_on_c, 0, 84, 0
2, 23613, Note_on_c, 0, 74, 0
2, 23613, Note_on_c, 0, 43, 80
2, 23618, Note_on_c, 0, 72, 80
2, 23620, Note_on_c, 0, 55, 80
2, 23668, Note_on_c, 0, 55, 0
2, 23670, Note_on_c, 0, 43, 0
2, 23700, Note_on_c, 0, 72, 0
2, 23710, Note_on_c, 0, 70, 80
2, 23747, Note_on_c, 0, 70, 0
2, 23747, Note_on_c, 0, 40, 80
2, 23757, Note_on_c, 0, 52, 80
2, 23757, Note_on_c, 0, 67, 80
2, 23808, Note_on_c, 0, 52, 0
2, 23810, Note_on_c, 0, 40, 0
2, 23838, Note_on_c, 0, 67, 0
2, 23844, Note_on_c, 0, 70, 80
2, 23880, Note_on_c, 0, 70, 0
2, 23880, Note_on_c, 0, 41, 80
2, 23887, Note_on_c, 0, 69, 80
2, 23889, Note_on_c, 0, 57, 80
2, 23889, Note_on_c, 0, 60, 80
2, 23889, Note_on_c, 0, 63, 80
2, 23891, Note_on_c, 0, 51, 80
2, 23904, Control_c, 0, 64, 127
2, 23936, Note_on_c, 0, 51, 0
2, 23936, Note_on_c, 0, 57, 0
2, 23938, Note_on_c, 0, 41, 0
2, 23977, Note_on_c, 0, 63, 0
2, 23977, Note_on_c, 0, 60, 0
2, 24009, Note_on_c, 0, 43, 80
2, 24015, Control_c, 0, 64, 0
2, 24017, Note_on_c, 0, 55, 80
2, 24063, Note_on_c, 0, 55, 0
2, 24065, Note_on_c, 0, 43, 0
2, 24093, Note_on_c, 0, 67, 80
2, 24096, Note_on_c, 0, 69, 0
2, 24143, Note_on_c, 0, 67, 0
2, 24152, Note_on_c, 0, 57, 80
2, 24152, Note_on_c, 0, 60, 80
2, 24152, Note_on_c, 0, 63, 80
2, 24152, Note_on_c, 0, 65, 80
2, 24154, Note_on_c, 0, 45, 80
2, 24202, Note_on_c, 0, 45, 0
2, 24202, Note_on_c, 0, 57, 0
2, 24220, Note_on_c, 0, 60, 0
2, 24220, Note_on_c, 0, 63, 0
2, 24220, Note_on_c, 0, 65, 0
2, 24239, Note_on_c, 0, 67, 80
2, 24272, Note_on_c, 0, 67, 0
2, 24280, Note_on_c, 0, 60, 80
2, 24280, Note_on_c, 0, 63, 80
2, 24280, Note_on_c, 0, 65, 80
2, 24282, Note_on_c, 0, 41, 80
2, 24282, Note_on_c, 0, 53, 80
2, 24328, Note_on_c, 0, 63, 0
2, 24328, Note_on_c, 0, 60, 0
2, 24354, Note_on_c, 0, 41, 0
2, 24370, Note_on_c, 0, 64, 80
2, 24372, Note_on_c, 0, 55, 80
2, 24374, Note_on_c, 0, 65, 0
2, 24376, Note_on_c, 0, 53, 0
2, 24392, Note_on_c, 0, 63, 80
2, 24394, Note_on_c, 0, 57, 80
2, 24396, Note_on_c, 0, 64, 0
2, 24398, Note_on_c, 0, 55, 0
2, 24414, Note_on_c, 0, 58, 80
2, 24414, Note_on_c, 0, 62, 80
2, 24418, Note_on_c, 0, 63, 0
2, 24418, Note_on_c, 0, 57, 0
2, 24448, Note_on_c, 0, 62, 0
2, 24457, Note_on_c, 0, 58, 0
2, 24497, Note_on_c, 0, 62, 80
2, 24497, Note_on_c, 0, 65, 80
2, 24525, Control_c, 0, 64, 127
2, 24543, Note_on_c, 0, 70, 80
2, 24545, Note_on_c, 0, 65, 0
2, 24575, Control_c, 0, 64, 0
2, 24593, Note_on_c, 0, 70, 0
2, 24602, Note_on_c, 0, 62, 0
2, 24626, Control_c, 0, 64, 127
2, 24630, Note_on_c, 0, 74, 80
2, 24632, Note_on_c, 0, 65, 80
2, 24640, Control_c, 0, 64, 0
2, 24675, Note_on_c, 0, 67, 80
2, 24675, Note_on_c, 0, 73, 80
2, 24679, Note_on_c, 0, 65, 0
2, 24679, Note_on_c, 0, 74, 0
2, 24725, Note_on_c, 0, 67, 0
2, 24725, Note_on_c, 0, 73, 0
2, 24768, Note_on_c, 0, 64, 80
2, 24768, Note_on_c, 0, 70, 80
2, 24810, Note_on_c, 0, 67, 80
2, 24812, Note_on_c, 0, 61, 80
2, 24814, Note_on_c, 0, 70, 0
2, 24814, Note_on_c, 0, 64, 0
2, 24857, Note_on_c, 0, 67, 0
2, 24857, Note_on_c, 0, 61, 0
2, 24898, Note_on_c, 0, 70, 80
2, 24900, Note_on_c, 0, 64, 80
2, 24943, Note_on_c, 0, 77, 80
2, 24943, Note_on_c, 0, 81, 80
2, 24943, Note_on_c, 0, 69, 80
2, 24945, Note_on_c, 0, 41, 80
2, 24945, Note_on_c, 0, 51, 80
2, 24945, Note_on_c, 0, 57, 80
2, 24947, Note_on_c, 0, 64, 0
2, 24947, Note_on_c, 0, 70, 0
2, 24959, Control_c, 0, 64, 127
2, 24990, Note_on_c, 0, 77, 0
2, 24992, Note_on_c, 0, 51, 0
2, 25012, Note_on_c, 0, 69, 0
2, 25029, Note_on_c, 0, 65, 80
2, 25029, Note_on_c, 0, 77, 80
2, 25032, Note_on_c, 0, 81, 0
2, 25062, Note_on_c, 0, 77, 0
2, 25068, Control_c, 0, 64, 0
2, 25070, Note_on_c, 0, 67, 80
2, 25070, Note_on_c, 0, 79, 80
2, 25072, Note_on_c, 0, 60, 80
2, 25072, Note_on_c, 0, 63, 80
2, 25076, Note_on_c, 0, 41, 0
2, 25115, Note_on_c, 0, 65, 0
2, 25115, Note_on_c, 0, 60, 0
2, 25117, Note_on_c, 0, 63, 0
2, 25117, Note_on_c, 0, 57, 0
2, 25149, Note_on_c, 0, 79, 0
2, 25156, Note_on_c, 0, 69, 80
2, 25156, Note_on_c, 0, 81, 80
2, 25160, Note_on_c, 0, 67, 0
2, 25196, Note_on_c, 0, 82, 80
2, 25198, Note_on_c, 0, 70, 80
2, 25198, Note_on_c, 0, 73, 80
2, 25198, Note_on_c, 0, 76, 80
2, 25198, Note_on_c, 0, 79, 80
2, 25200, Note_on_c, 0, 81, 0
2, 25200, Note_on_c, 0, 52, 80
2, 25201, Note_on_c, 0, 69, 0
2, 25201, Note_on_c, 0, 37, 80
2, 25243, Note_on_c, 0, 52, 0
2, 25261, Note_on_c, 0, 70, 0
2, 25261, Note_on_c, 0, 73, 0
2, 25261, Note_on_c, 0, 79, 0
2, 25263, Note_on_c, 0, 76, 0
2, 25295, Note_on_c, 0, 82, 0
2, 25300, Note_on_c, 0, 37, 0
2, 25326, Note_on_c, 0, 69, 80
2, 25326, Note_on_c, 0, 72, 80
2, 25326, Note_on_c, 0, 74, 80
2, 25326, Note_on_c, 0, 78, 80
2, 25326, Note_on_c, 0, 81, 80
2, 25328, Note_on_c, 0, 54, 80
2, 25330, Note_on_c, 0, 38, 80
2, 25342, Control_c, 0, 64, 127
2, 25373, Note_on_c, 0, 54, 0
2, 25392, Note_on_c, 0, 74, 0
2, 25392, Note_on_c, 0, 72, 0
2, 25392, Note_on_c, 0, 69, 0
2, 25392, Note_on_c, 0, 78, 0
2, 25419, Control_c, 0, 64, 0
2, 25423, Note_on_c, 0, 81, 0
2, 25427, Note_on_c, 0, 38, 0
2, 25453, Note_on_c, 0, 43, 80
2, 25461, Note_on_c, 0, 67, 80
2, 25461, Note_on_c, 0, 70, 80
2, 25464, Note_on_c, 0, 55, 80
2, 25464, Note_on_c, 0, 58, 80
2, 25464, Note_on_c, 0, 62, 80
2, 25488, Note_on_c, 0, 55, 0
2, 25490, Note_on_c, 0, 43, 0
2, 25498, Note_on_c, 0, 67, 0
2, 25510, Note_on_c, 0, 62, 0
2, 25534, Control_c, 0, 64, 127
2, 25597, Note_on_c, 0, 55, 80
2, 25597, Note_on_c, 0, 62, 80
2, 25597, Note_on_c, 0, 64, 80
2, 25625, Control_c, 0, 64, 0
2, 25631, Note_on_c, 0, 64, 0
2, 25631, Note_on_c, 0, 55, 0
2, 25631, Note_on_c, 0, 62, 0
2, 25682, Note_on_c, 0, 74, 80
2, 25682, Note_on_c, 0, 82, 80
2, 25730, Note_on_c, 0, 76, 80
2, 25730, Note_on_c, 0, 79, 80
2, 25732, Note_on_c, 0, 82, 0
2, 25732, Note_on_c, 0, 74, 0
2, 25732, Note_on_c, 0, 50, 80
2, 25734, Note_on_c, 0, 38, 80
2, 25770, Note_on_c, 0, 50, 0
2, 25772, Note_on_c, 0, 38, 0
2, 25800, Note_on_c, 0, 76, 0
2, 25800, Note_on_c, 0, 79, 0
2, 25818, Note_on_c, 0, 74, 80
2, 25818, Note_on_c, 0, 82, 80
2, 25864, Note_on_c, 0, 79, 80
2, 25866, Note_on_c, 0, 62, 80
2, 25866, Note_on_c, 0, 64, 80
2, 25866, Note_on_c, 0, 76, 80
2, 25868, Note_on_c, 0, 82, 0
2, 25868, Note_on_c, 0, 74, 0
2, 25868, Note_on_c, 0, 55, 80
2, 25901, Note_on_c, 0, 64, 0
2, 25903, Note_on_c, 0, 55, 0
2, 25915, Note_on_c, 0, 62, 0
2, 25935, Note_on_c, 0, 79, 0
2, 25935, Note_on_c, 0, 76, 0
2, 25998, Note_on_c, 0, 60, 80
2, 25998, Note_on_c, 0, 62, 80
2, 25998, Note_on_c, 0, 66, 80
2, 25998, Note_on_c, 0, 72, 80
2, 26000, Note_on_c, 0, 70, 0
2, 26000, Note_on_c, 0, 45, 80
2, 26000, Note_on_c, 0, 54, 80
2, 26002, Note_on_c, 0, 58, 0
2, 26043, Note_on_c, 0, 62, 0
2, 26043, Note_on_c, 0, 66, 0
2, 26043, Control_c, 0, 64, 127
2, 26045, Note_on_c, 0, 54, 0
2, 26055, Note_on_c, 0, 45, 0
2, 26131, Note_on_c, 0, 62, 80
2, 26133, Note_on_c, 0, 54, 80
2, 26160, Control_c, 0, 64, 0
2, 26168, Note_on_c, 0, 54, 0
2, 26178, Note_on_c, 0, 62, 0
2, 26215, Note_on_c, 0, 74, 80
2, 26215, Note_on_c, 0, 84, 80
2, 26258, Note_on_c, 0, 78, 80
2, 26258, Note_on_c, 0, 81, 80
2, 26260, Note_on_c, 0, 54, 80
2, 26262, Note_on_c, 0, 74, 0
2, 26262, Note_on_c, 0, 38, 80
2, 26272, Note_on_c, 0, 84, 0
2, 26298, Note_on_c, 0, 54, 0
2, 26300, Note_on_c, 0, 38, 0
2, 26328, Note_on_c, 0, 78, 0
2, 26328, Note_on_c, 0, 81, 0
2, 26348, Note_on_c, 0, 74, 80
2, 26348, Note_on_c, 0, 84, 80
2, 26389, Note_on_c, 0, 81, 80
2, 26391, Note_on_c, 0, 62, 80
2, 26391, Note_on_c, 0, 78, 80
2, 26393, Note_on_c, 0, 84, 0
2, 26393, Note_on_c, 0, 54, 80
2, 26395, Note_on_c, 0, 74, 0
2, 26426, Note_on_c, 0, 54, 0
2, 26436, Note_on_c, 0, 62, 0
2, 26458, Note_on_c, 0, 81, 0
2, 26458, Note_on_c, 0, 78, 0
2, 26525, Note_on_c, 0, 62, 80
2, 26525, Note_on_c, 0, 65, 80
2, 26525, Note_on_c, 0, 67, 80
2, 26525, Note_on_c, 0, 71, 80
2, 26527, Note_on_c, 0, 43, 80
2, 26527, Note_on_c, 0, 50, 80
2, 26527, Note_on_c, 0, 59, 80
2, 26529, Note_on_c, 0, 72, 0
2, 26529, Note_on_c, 0, 60, 0
2, 26541, Control_c, 0, 64, 127
2, 26572, Note_on_c, 0, 65, 0
2, 26572, Note_on_c, 0, 67, 0
2, 26572, Note_on_c, 0, 62, 0
2, 26574, Note_on_c, 0, 43, 0
2, 26574, Note_on_c, 0, 50, 0
2, 26658, Note_on_c, 0, 62, 80
2, 26660, Note_on_c, 0, 53, 80
2, 26660, Note_on_c, 0, 55, 80
2, 26695, Note_on_c, 0, 55, 0
2, 26695, Note_on_c, 0, 62, 0
2, 26695, Note_on_c, 0, 53, 0
2, 26721, Control_c, 0, 64, 0
2, 26747, Note_on_c, 0, 74, 80
2, 26747, Note_on_c, 0, 83, 80
2, 26783, Note_on_c, 0, 83, 0
2, 26783, Note_on_c, 0, 74, 0
2, 26790, Note_on_c, 0, 77, 80
2, 26790, Note_on_c, 0, 79, 80
2, 26792, Note_on_c, 0, 38, 80
2, 26792, Note_on_c, 0, 53, 80
2, 26826, Note_on_c, 0, 53, 0
2, 26828, Note_on_c, 0, 38, 0
2, 26857, Note_on_c, 0, 77, 0
2, 26857, Note_on_c, 0, 79, 0
2, 26876, Note_on_c, 0, 74, 80
2, 26876, Note_on_c, 0, 83, 80
2, 26913, Note_on_c, 0, 83, 0
2, 26913, Note_on_c, 0, 74, 0
2, 26921, Note_on_c, 0, 79, 80
2, 26923, Note_on_c, 0, 55, 80
2, 26923, Note_on_c, 0, 62, 80
2, 26923, Note_on_c, 0, 77, 80
2, 26925, Note_on_c, 0, 53, 80
2, 26958, Note_on_c, 0, 53, 0
2, 26958, Note_on_c, 0, 55, 0
2, 26968, Note_on_c, 0, 62, 0
2, 26988, Note_on_c, 0, 79, 0
2, 26988, Note_on_c, 0, 77, 0
2, 27048, Note_on_c, 0, 86, 80
2, 27049, Note_on_c, 0, 77, 80
2, 27049, Note_on_c, 0, 79, 80
2, 27049, Note_on_c, 0, 83, 80
2, 27051, Note_on_c, 0, 43, 80
2, 27051, Note_on_c, 0, 55, 80
2, 27053, Note_on_c, 0, 71, 0
2, 27067, Note_on_c, 0, 59, 0
2, 27067, Control_c, 0, 64, 127
2, 27130, Note_on_c, 0, 83, 0
2, 27130, Note_on_c, 0, 86, 0
2, 27132, Note_on_c, 0, 79, 0
2, 27132, Note_on_c, 0, 77, 0
2, 27140, Note_on_c, 0, 74, 80
2, 27175, Note_on_c, 0, 55, 0
2, 27183, Note_on_c, 0, 77, 80
2, 27183, Note_on_c, 0, 79, 80
2, 27183, Note_on_c, 0, 83, 80
2, 27183, Note_on_c, 0, 86, 80
2, 27185, Note_on_c, 0, 74, 0
2, 27185, Note_on_c, 0, 57, 80
2, 27187, Note_on_c, 0, 45, 80
2, 27189, Note_on_c, 0, 43, 0
2, 27213, Control_c, 0, 64, 0
2, 27261, Note_on_c, 0, 77, 0
2, 27261, Note_on_c, 0, 79, 0
2, 27261, Note_on_c, 0, 83, 0
2, 27261, Note_on_c, 0, 86, 0
2, 27263, Control_c, 0, 64, 127
2, 27268, Note_on_c, 0, 74, 80
2, 27310, Note_on_c, 0, 57, 0
2, 27313, Note_on_c, 0, 83, 80
2, 27313, Note_on_c, 0, 86, 80
2, 27315, Note_on_c, 0, 47, 80
2, 27315, Note_on_c, 0, 59, 80
2, 27315, Note_on_c, 0, 77, 80
2, 27315, Note_on_c, 0, 79, 80
2, 27317, Note_on_c, 0, 74, 0
2, 27331, Note_on_c, 0, 45, 0
2, 27390, Note_on_c, 0, 86, 0
2, 27392, Note_on_c, 0, 83, 0
2, 27392, Note_on_c, 0, 79, 0
2, 27392, Note_on_c, 0, 77, 0
2, 27396, Note_on_c, 0, 74, 80
2, 27439, Control_c, 0, 64, 0
2, 27441, Note_on_c, 0, 83, 80
2, 27441, Note_on_c, 0, 86, 80
2, 27443, Note_on_c, 0, 77, 80
2, 27443, Note_on_c, 0, 79, 80
2, 27445, Note_on_c, 0, 43, 80
2, 27445, Note_on_c, 0, 55, 80
2, 27447, Note_on_c, 0, 59, 0
2, 27449, Note_on_c, 0, 47, 0
2, 27510, Note_on_c, 0, 83, 0
2, 27510, Note_on_c, 0, 77, 0
2, 27510, Note_on_c, 0, 74, 0
2, 27510, Note_on_c, 0, 86, 0
2, 27510, Note_on_c, 0, 79, 0
2, 27570, Note_on_c, 0, 55, 0
2, 27572, Note_on_c, 0, 75, 80
2, 27574, Note_on_c, 0, 63, 80
2, 27574, Note_on_c, 0, 67, 80
2, 27574, Note_on_c, 0, 69, 80
2, 27574, Note_on_c, 0, 72, 80
2, 27576, Note_on_c, 0, 51, 80
2, 27577, Note_on_c, 0, 36, 80
2, 27579, Note_on_c, 0, 43, 0
2, 27641, Note_on_c, 0, 69, 0
2, 27641, Note_on_c, 0, 67, 0
2, 27641, Note_on_c, 0, 72, 0
2, 27696, Note_on_c, 0, 75, 0
2, 27698, Note_on_c, 0, 63, 0
2, 27706, Note_on_c, 0, 71, 80
2, 27706, Note_on_c, 0, 74, 80
2, 27706, Note_on_c, 0, 77, 80
2, 27708, Note_on_c, 0, 38, 80
2, 27708, Note_on_c, 0, 53, 80
2, 27710, Note_on_c, 0, 51, 0
2, 27712, Note_on_c, 0, 36, 0
2, 27730, Note_on_c, 0, 74, 0
2, 27730, Note_on_c, 0, 77, 0
2, 27730, Note_on_c, 0, 71, 0
2, 27738, Note_on_c, 0, 65, 80
2, 27738, Note_on_c, 0, 67, 80
2, 27751, Control_c, 0, 64, 127
2, 27763, Note_on_c, 0, 67, 0
2, 27763, Note_on_c, 0, 65, 0
2, 27767, Note_on_c, 0, 71, 80
2, 27768, Note_on_c, 0, 74, 80
2, 27768, Note_on_c, 0, 77, 80
2, 27792, Note_on_c, 0, 77, 0
2, 27792, Note_on_c, 0, 71, 0
2, 27792, Note_on_c, 0, 74, 0
2, 27800, Note_on_c, 0, 65, 80
2, 27800, Note_on_c, 0, 67, 80
2, 27830, Note_on_c, 0, 71, 80
2, 27832, Note_on_c, 0, 74, 80
2, 27832, Note_on_c, 0, 77, 80
2, 27895, Control_c, 0, 64, 0
2, 27901, Note_on_c, 0, 77, 0
2, 27901, Note_on_c, 0, 71, 0
2, 27901, Note_on_c, 0, 67, 0
2, 27901, Note_on_c, 0, 65, 0
2, 27901, Note_on_c, 0, 74, 0
2, 27903, Note_on_c, 0, 38, 0
2, 27903, Note_on_c, 0, 53, 0
2, 27964, Note_on_c, 0, 69, 80
2, 27964, Note_on_c, 0, 72, 80
2, 27964, Note_on_c, 0, 75, 80
2, 27964, Note_on_c, 0, 79, 80
2, 27966, Note_on_c, 0, 55, 80
2, 27966, Note_on_c, 0, 67, 80
2, 27968, Note_on_c, 0, 39, 80
2, 28033, Note_on_c, 0, 67, 0
2, 28033, Note_on_c, 0, 69, 0
2, 28033, Note_on_c, 0, 72, 0
2, 28033, Note_on_c, 0, 75, 0
2, 28080, Note_on_c, 0, 79, 0
2, 28081, Note_on_c, 0, 55, 0
2, 28083, Note_on_c, 0, 39, 0
2, 28102, Note_on_c, 0, 67, 80
2, 28102, Note_on_c, 0, 70, 80
2, 28102, Note_on_c, 0, 74, 80
2, 28104, Note_on_c, 0, 43, 80
2, 28104, Note_on_c, 0, 58, 80
2, 28104, Note_on_c, 0, 64, 80
2, 28150, Control_c, 0, 64, 127
2, 28170, Note_on_c, 0, 74, 0
2, 28170, Note_on_c, 0, 67, 0
2, 28170, Note_on_c, 0, 70, 0
2, 28172, Note_on_c, 0, 64, 0
2, 28190, Note_on_c, 0, 62, 80
2, 28236, Note_on_c, 0, 67, 80
2, 28236, Note_on_c, 0, 70, 80
2, 28236, Note_on_c, 0, 74, 80
2, 28238, Note_on_c, 0, 64, 80
2, 28240, Note_on_c, 0, 62, 0
2, 28301, Control_c, 0, 64, 0
2, 28307, Note_on_c, 0, 74, 0
2, 28307, Note_on_c, 0, 70, 0
2, 28307, Note_on_c, 0, 67, 0
2, 28307, Note_on_c, 0, 64, 0
2, 28365, Note_on_c, 0, 58, 0
2, 28367, Note_on_c, 0, 43, 0
2, 28370, Note_on_c, 0, 60, 80
2, 28370, Note_on_c, 0, 63, 80
2, 28370, Note_on_c, 0, 69, 80
2, 28370, Note_on_c, 0, 72, 80
2, 28372, Note_on_c, 0, 41, 80
2, 28372, Note_on_c, 0, 57, 80
2, 28450, Control_c, 0, 64, 127
2, 28458, Note_on_c, 0, 51, 80
2, 28495, Note_on_c, 0, 51, 0
2, 28503, Note_on_c, 0, 48, 80
2, 28531, Control_c, 0, 64, 0
2, 28549, Note_on_c, 0, 63, 0
2, 28549, Note_on_c, 0, 69, 0
2, 28549, Note_on_c, 0, 60, 0
2, 28549, Note_on_c, 0, 72, 0
2, 28551, Note_on_c, 0, 48, 0
2, 28551, Note_on_c, 0, 41, 0
2, 28551, Note_on_c, 0, 57, 0
2, 28567, Note_on_c, 0, 53, 80
2, 28591, Note_on_c, 0, 55, 80
2, 28595, Note_on_c, 0, 53, 0
2, 28611, Note_on_c, 0, 57, 80
2, 28615, Note_on_c, 0, 55, 0
2, 28633, Note_on_c, 0, 58, 80
2, 28633, Note_on_c, 0, 68, 80
2, 28633, Note_on_c, 0, 74, 80
2, 28633, Note_on_c, 0, 77, 80
2, 28637, Note_on_c, 0, 57, 0
2, 28704, Note_on_c, 0, 74, 0
2, 28704, Note_on_c, 0, 68, 0
2, 28768, Note_on_c, 0, 57, 80
2, 28768, Note_on_c, 0, 67, 80
2, 28768, Note_on_c, 0, 73, 80
2, 28768, Note_on_c, 0, 76, 80
2, 28770, Note_on_c, 0, 77, 0
2, 28772, Note_on_c, 0, 58, 0
2, 28835, Note_on_c, 0, 73, 0
2, 28835, Note_on_c, 0, 67, 0
2, 28900, Note_on_c, 0, 72, 80
2, 28900, Note_on_c, 0, 75, 80
2, 28902, Note_on_c, 0, 56, 80
2, 28902, Note_on_c, 0, 66, 80
2, 28904, Note_on_c, 0, 76, 0
2, 28906, Note_on_c, 0, 57, 0
2, 28971, Note_on_c, 0, 72, 0
2, 28971, Note_on_c, 0, 66, 0
2, 29031, Note_on_c, 0, 55, 80
2, 29031, Note_on_c, 0, 65, 80
2, 29031, Note_on_c, 0, 71, 80
2, 29031, Note_on_c, 0, 74, 80
2, 29035, Note_on_c, 0, 75, 0
2, 29035, Note_on_c, 0, 56, 0
2, 29104, Note_on_c, 0, 71, 0
2, 29104, Note_on_c, 0, 65, 0
2, 29165, Note_on_c, 0, 73, 80
2, 29167, Note_on_c, 0, 54, 80
2, 29167, Note_on_c, 0, 64, 80
2, 29167, Note_on_c, 0, 70, 80
2, 29169, Note_on_c, 0, 74, 0
2, 29171, Note_on_c, 0, 55, 0
2, 29234, Note_on_c, 0, 73, 0
2, 29236, Note_on_c, 0, 54, 0
2, 29236, Note_on_c, 0, 64, 0
2, 29236, Note_on_c, 0, 70, 0
2, 29255, Note_on_c, 0, 63, 80
2, 29255, Note_on_c, 0, 69, 80
2, 29255, Note_on_c, 0, 72, 80
2, 29256, Note_on_c, 0, 53, 80
2, 29350, Note_on_c, 0, 53, 0
2, 29368, Note_on_c, 0, 63, 0
2, 29368, Note_on_c, 0, 69, 0
2, 29368, Note_on_c, 0, 72, 0
2, 29386, Note_on_c, 0, 62, 80
2, 29386, Note_on_c, 0, 65, 80
2, 29386, Note_on_c, 0, 70, 80
2, 29388, Note_on_c, 0, 46, 80
2, 29388, Note_on_c, 0, 53, 80
2, 29424, Control_c, 0, 64, 127
2, 29499, Note_on_c, 0, 70, 0
2, 29501, Note_on_c, 0, 65, 0
2, 29503, Note_on_c, 0, 53, 0
2, 29503, Note_on_c, 0, 46, 0
2, 29513, Note_on_c, 0, 62, 0
2, 29563, Note_on_c, 0, 70, 80
2, 29565, Note_on_c, 0, 58, 80
2, 29570, Control_c, 0, 64, 0
2, 29641, Note_on_c, 0, 70, 0
2, 29643, Note_on_c, 0, 58, 0
2, 29649, Note_on_c, 0, 72, 80
2, 29651, Note_on_c, 0, 60, 80
2, 29697, Note_on_c, 0, 58, 80
2, 29697, Note_on_c, 0, 62, 80
2, 29697, Note_on_c, 0, 65, 80
2, 29697, Note_on_c, 0, 68, 80
2, 29697, Note_on_c, 0, 70, 80
2, 29699, Note_on_c, 0, 72, 0
2, 29701, Note_on_c, 0, 60, 0
2, 29733, Note_on_c, 0, 65, 0
2, 29733, Note_on_c, 0, 68, 0
2, 29742, Note_on_c, 0, 62, 0
2, 29754, Note_on_c, 0, 58, 0
2, 29756, Note_on_c, 0, 70, 0
2, 29811, Note_on_c, 0, 58, 80
2, 29811, Note_on_c, 0, 61, 80
2, 29811, Note_on_c, 0, 64, 80
2, 29811, Note_on_c, 0, 67, 80
2, 29813, Note_on_c, 0, 46, 80
2, 29813, Note_on_c, 0, 52, 80
2, 29827, Control_c, 0, 64, 127
2, 29843, Control_c, 0, 64, 0
2, 29882, Note_on_c, 0, 46, 0
2, 29882, Note_on_c, 0, 58, 0
2, 29892, Control_c, 0, 64, 127
2, 29905, Control_c, 0, 64, 0
2, 29924, Note_on_c, 0, 61, 0
2, 29924, Note_on_c, 0, 64, 0
2, 29924, Note_on_c, 0, 52, 0
2, 29942, Note_on_c, 0, 46, 80
2, 29942, Note_on_c, 0, 53, 80
2, 29942, Note_on_c, 0, 58, 80
2, 29942, Note_on_c, 0, 62, 80
2, 29942, Note_on_c, 0, 65, 80
2, 29942, Note_on_c, 0, 68, 80
2, 29946, Note_on_c, 0, 67, 0
2, 29976, Note_on_c, 0, 65, 0
2, 29976, Note_on_c, 0, 62, 0
2, 29976, Note_on_c, 0, 58, 0
2, 29976, Note_on_c, 0, 68, 0
2, 29977, Note_on_c, 0, 46, 0
2, 29977, Note_on_c, 0, 53, 0
2, 30072, Note_on_c, 0, 58, 80
2, 30072, Note_on_c, 0, 70, 80
2, 30152, Note_on_c, 0, 70, 0
2, 30152, Note_on_c, 0, 58, 0
2, 30156, Note_on_c, 0, 72, 80
2, 30158, Note_on_c, 0, 60, 80
2, 30201, Note_on_c, 0, 67, 80
2, 30201, Note_on_c, 0, 70, 80
2, 30203, Note_on_c, 0, 58, 80
2, 30203, Note_on_c, 0, 61, 80
2, 30203, Note_on_c, 0, 64, 80
2, 30205, Note_on_c, 0, 60, 0
2, 30205, Note_on_c, 0, 72, 0
2, 30237, Note_on_c, 0, 67, 0
2, 30237, Note_on_c, 0, 61, 0
2, 30237, Note_on_c, 0, 64, 0
2, 30261, Note_on_c, 0, 70, 0
2, 30263, Note_on_c, 0, 58, 0
2, 30336, Note_on_c, 0, 46, 80
2, 30336, Note_on_c, 0, 52, 80
2, 30336, Note_on_c, 0, 58, 80
2, 30336, Note_on_c, 0, 61, 80
2, 30336, Note_on_c, 0, 64, 80
2, 30336, Note_on_c, 0, 67, 80
2, 30349, Control_c, 0, 64, 127
2, 30403, Note_on_c, 0, 58, 0
2, 30405, Note_on_c, 0, 46, 0
2, 30429, Control_c, 0, 64, 0
2, 30449, Note_on_c, 0, 61, 0
2, 30449, Note_on_c, 0, 64, 0
2, 30451, Note_on_c, 0, 52, 0
2, 30467, Note_on_c, 0, 58, 80
2, 30467, Note_on_c, 0, 68, 80
2, 30469, Note_on_c, 0, 46, 80
2, 30469, Note_on_c, 0, 53, 80
2, 30469, Note_on_c, 0, 62, 80
2, 30469, Note_on_c, 0, 65, 80
2, 30471, Note_on_c, 0, 67, 0
2, 30504, Note_on_c, 0, 62, 0
2, 30504, Note_on_c, 0, 68, 0
2, 30504, Note_on_c, 0, 58, 0
2, 30504, Note_on_c, 0, 65, 0
2, 30506, Note_on_c, 0, 46, 0
2, 30506, Note_on_c, 0, 53, 0
2, 30601, Note_on_c, 0, 58, 80
2, 30601, Note_on_c, 0, 70, 80
2, 30687, Note_on_c, 0, 70, 0
2, 30689, Note_on_c, 0, 58, 0
2, 30695, Note_on_c, 0, 72, 80
2, 30696, Note_on_c, 0, 60, 80
2, 30738, Note_on_c, 0, 58, 80
2, 30738, Note_on_c, 0, 62, 80
2, 30738, Note_on_c, 0, 65, 80
2, 30738, Note_on_c, 0, 68, 80
2, 30738, Note_on_c, 0, 70, 80
2, 30740, Note_on_c, 0, 46, 80
2, 30740, Note_on_c, 0, 53, 80
2, 30742, Note_on_c, 0, 60, 0
2, 30742, Note_on_c, 0, 72, 0
2, 30753, Control_c, 0, 64, 127
2, 30773, Note_on_c, 0, 62, 0
2, 30773, Note_on_c, 0, 68, 0
2, 30773, Note_on_c, 0, 58, 0
2, 30773, Note_on_c, 0, 65, 0
2, 30773, Note_on_c, 0, 70, 0
2, 30775, Note_on_c, 0, 53, 0
2, 30775, Note_on_c, 0, 46, 0
2, 30797, Control_c, 0, 64, 0
2, 30870, Note_on_c, 0, 70, 80
2, 30872, Note_on_c, 0, 58, 80
2, 30956, Note_on_c, 0, 72, 80
2, 30958, Note_on_c, 0, 60, 80
2, 30960, Note_on_c, 0, 70, 0
2, 30961, Note_on_c, 0, 58, 0
2, 31001, Note_on_c, 0, 70, 80
2, 31003, Note_on_c, 0, 61, 80
2, 31003, Note_on_c, 0, 64, 80
2, 31003, Note_on_c, 0, 67, 80
2, 31005, Note_on_c, 0, 72, 0
2, 31005, Note_on_c, 0, 46, 80
2, 31005, Note_on_c, 0, 52, 80
2, 31005, Note_on_c, 0, 55, 80
2, 31007, Note_on_c, 0, 60, 0
2, 31036, Note_on_c, 0, 70, 0
2, 31036, Note_on_c, 0, 64, 0
2, 31036, Note_on_c, 0, 67, 0
2, 31038, Note_on_c, 0, 61, 0
2, 31038, Note_on_c, 0, 55, 0
2, 31038, Note_on_c, 0, 46, 0
2, 31038, Note_on_c, 0, 52, 0
2, 31048, Control_c, 0, 64, 127
2, 31096, Control_c, 0, 64, 0
2, 31133, Note_on_c, 0, 58, 80
2, 31133, Note_on_c, 0, 70, 80
2, 31213, Note_on_c, 0, 70, 0
2, 31213, Note_on_c, 0, 58, 0
2, 31219, Note_on_c, 0, 72, 80
2, 31221, Note_on_c, 0, 60, 80
2, 31258, Note_on_c, 0, 60, 0
2, 31258, Note_on_c, 0, 72, 0
2, 31266, Note_on_c, 0, 46, 80
2, 31266, Note_on_c, 0, 56, 80
2, 31266, Note_on_c, 0, 62, 80
2, 31266, Note_on_c, 0, 65, 80
2, 31266, Note_on_c, 0, 68, 80
2, 31266, Note_on_c, 0, 70, 80
2, 31268, Note_on_c, 0, 53, 80
2, 31301, Note_on_c, 0, 68, 0
2, 31301, Note_on_c, 0, 65, 0
2, 31333, Note_on_c, 0, 62, 0
2, 31333, Note_on_c, 0, 70, 0
2, 31335, Note_on_c, 0, 46, 0
2, 31335, Note_on_c, 0, 53, 0
2, 31335, Note_on_c, 0, 56, 0
2, 31351, Note_on_c, 0, 84, 80
2, 31392, Note_on_c, 0, 87, 80
2, 31394, Note_on_c, 0, 75, 80
2, 31398, Note_on_c, 0, 36, 80
2, 31441, Note_on_c, 0, 84, 0
2, 31483, Note_on_c, 0, 82, 80
2, 31487, Note_on_c, 0, 87, 0
2, 31487, Note_on_c, 0, 75, 0
2, 31526, Note_on_c, 0, 74, 80
2, 31526, Note_on_c, 0, 86, 80
2, 31530, Note_on_c, 0, 38, 80
2, 31534, Note_on_c, 0, 36, 0
2, 31573, Note_on_c, 0, 82, 0
2, 31612, Note_on_c, 0, 80, 80
2, 31614, Note_on_c, 0, 86, 0
2, 31616, Note_on_c, 0, 74, 0
2, 31657, Note_on_c, 0, 72, 80
2, 31657, Note_on_c, 0, 84, 80
2, 31661, Note_on_c, 0, 40, 80
2, 31663, Note_on_c, 0, 38, 0
2, 31704, Note_on_c, 0, 80, 0
2, 31742, Note_on_c, 0, 77, 80
2, 31746, Note_on_c, 0, 84, 0
2, 31746, Note_on_c, 0, 72, 0
2, 31777, Note_on_c, 0, 41, 80
2, 31781, Note_on_c, 0, 40, 0
2, 31785, Note_on_c, 0, 68, 80
2, 31785, Note_on_c, 0, 72, 80
2, 31785, Note_on_c, 0, 74, 80
2, 31785, Note_on_c, 0, 80, 80
2, 31787, Note_on_c, 0, 56, 80
2, 31787, Note_on_c, 0, 62, 80
2, 31800, Control_c, 0, 64, 127
2, 31834, Note_on_c, 0, 56, 0
2, 31852, Note_on_c, 0, 72, 0
2, 31852, Note_on_c, 0, 77, 0
2, 31852, Note_on_c, 0, 68, 0
2, 31852, Note_on_c, 0, 74, 0
2, 31914, Control_c, 0, 64, 0
2, 31918, Note_on_c, 0, 56, 80
2, 31918, Note_on_c, 0, 58, 80
2, 31918, Note_on_c, 0, 65, 80
2, 31961, Note_on_c, 0, 65, 0
2, 31961, Note_on_c, 0, 58, 0
2, 31963, Note_on_c, 0, 41, 0
2, 31963, Note_on_c, 0, 56, 0
2, 31994, Note_on_c, 0, 80, 0
2, 32000, Note_on_c, 0, 74, 80
2, 32046, Note_on_c, 0, 77, 80
2, 32050, Note_on_c, 0, 74, 0
2, 32050, Note_on_c, 0, 46, 80
2, 32052, Note_on_c, 0, 34, 80
2, 32095, Note_on_c, 0, 46, 0
2, 32097, Note_on_c, 0, 34, 0
2, 32133, Note_on_c, 0, 73, 80
2, 32136, Note_on_c, 0, 77, 0
2, 32176, Note_on_c, 0, 74, 80
2, 32178, Note_on_c, 0, 56, 80
2, 32178, Note_on_c, 0, 58, 80
2, 32178, Note_on_c, 0, 65, 80
2, 32180, Note_on_c, 0, 73, 0
2, 32223, Note_on_c, 0, 65, 0
2, 32225, Note_on_c, 0, 56, 0
2, 32225, Note_on_c, 0, 58, 0
2, 32262, Note_on_c, 0, 77, 80
2, 32262, Note_on_c, 0, 84, 80
2, 32264, Note_on_c, 0, 72, 80
2, 32264, Note_on_c, 0, 80, 80
2, 32288, Control_c, 0, 64, 127
2, 32308, Note_on_c, 0, 41, 80
2, 32308, Note_on_c, 0, 56, 80
2, 32328, Note_on_c, 0, 84, 0
2, 32351, Note_on_c, 0, 77, 0
2, 32351, Note_on_c, 0, 74, 0
2, 32352, Note_on_c, 0, 56, 0
2, 32352, Note_on_c, 0, 41, 0
2, 32362, Note_on_c, 0, 80, 0
2, 32366, Control_c, 0, 64, 0
2, 32384, Note_on_c, 0, 72, 0
2, 32392, Note_on_c, 0, 84, 80
2, 32435, Note_on_c, 0, 87, 80
2, 32437, Note_on_c, 0, 75, 80
2, 32441, Note_on_c, 0, 56, 80
2, 32441, Note_on_c, 0, 58, 80
2, 32441, Note_on_c, 0, 65, 80
2, 32484, Note_on_c, 0, 84, 0
2, 32488, Note_on_c, 0, 58, 0
2, 32488, Note_on_c, 0, 56, 0
2, 32488, Note_on_c, 0, 65, 0
2, 32523, Note_on_c, 0, 82, 80
2, 32527, Note_on_c, 0, 87, 0
2, 32527, Note_on_c, 0, 75, 0
2, 32567, Note_on_c, 0, 86, 80
2, 32568, Note_on_c, 0, 74, 80
2, 32570, Note_on_c, 0, 46, 80
2, 32572, Note_on_c, 0, 34, 80
2, 32614, Note_on_c, 0, 82, 0
2, 32619, Note_on_c, 0, 46, 0
2, 32619, Note_on_c, 0, 34, 0
2, 32649, Note_on_c, 0, 74, 0
2, 32655, Note_on_c, 0, 80, 80
2, 32661, Note_on_c, 0, 86, 0
2, 32700, Note_on_c, 0, 84, 80
2, 32702, Note_on_c, 0, 56, 80
2, 32702, Note_on_c, 0, 58, 80
2, 32702, Note_on_c, 0, 65, 80
2, 32702, Note_on_c, 0, 72, 80
2, 32702, Note_on_c, 0, 74, 80
2, 32745, Note_on_c, 0, 65, 0
2, 32745, Note_on_c, 0, 80, 0
2, 32747, Note_on_c, 0, 58, 0
2, 32747, Note_on_c, 0, 56, 0
2, 32757, Note_on_c, 0, 62, 0
2, 32788, Note_on_c, 0, 84, 0
2, 32790, Note_on_c, 0, 74, 0
2, 32790, Note_on_c, 0, 72, 0
2, 32833, Note_on_c, 0, 75, 80
2, 32833, Note_on_c, 0, 79, 80
2, 32835, Note_on_c, 0, 46, 80
2, 32835, Note_on_c, 0, 55, 80
2, 32835, Note_on_c, 0, 63, 80
2, 32835, Note_on_c, 0, 67, 80
2, 32837, Note_on_c, 0, 39, 80
2, 32849, Control_c, 0, 64, 127
2, 32882, Note_on_c, 0, 55, 0
2, 32882, Note_on_c, 0, 46, 0
2, 32884, Note_on_c, 0, 39, 0
2, 32922, Note_on_c, 0, 67, 0
2, 32922, Note_on_c, 0, 75, 0
2, 32963, Note_on_c, 0, 58, 80
2, 32963, Note_on_c, 0, 60, 80
2, 32965, Note_on_c, 0, 55, 80
2, 33015, Note_on_c, 0, 55, 0
2, 33015, Note_on_c, 0, 58, 0
2, 33015, Note_on_c, 0, 60, 0
2, 33028, Control_c, 0, 64, 0
2, 33056, Note_on_c, 0, 70, 80
2, 33058, Note_on_c, 0, 79, 0
2, 33097, Note_on_c, 0, 72, 80
2, 33101, Note_on_c, 0, 70, 0
2, 33101, Note_on_c, 0, 34, 80
2, 33101, Note_on_c, 0, 46, 80
2, 33147, Note_on_c, 0, 46, 0
2, 33149, Note_on_c, 0, 34, 0
2, 33187, Note_on_c, 0, 66, 80
2, 33191, Note_on_c, 0, 72, 0
2, 33234, Note_on_c, 0, 55, 80
2, 33234, Note_on_c, 0, 60, 80
2, 33234, Note_on_c, 0, 67, 80
2, 33236, Note_on_c, 0, 66, 0
2, 33236, Note_on_c, 0, 58, 80
2, 33282, Note_on_c, 0, 58, 0
2, 33282, Note_on_c, 0, 60, 0
2, 33282, Note_on_c, 0, 55, 0
2, 33282, Control_c, 0, 64, 127
2, 33321, Note_on_c, 0, 72, 80
2, 33321, Note_on_c, 0, 75, 80
2, 33321, Note_on_c, 0, 79, 80
2, 33323, Note_on_c, 0, 70, 80
2, 33366, Note_on_c, 0, 55, 80
2, 33368, Note_on_c, 0, 39, 80
2, 33414, Note_on_c, 0, 55, 0
2, 33416, Note_on_c, 0, 39, 0
2, 33430, Control_c, 0, 64, 0
2, 33435, Note_on_c, 0, 79, 0
2, 33435, Note_on_c, 0, 67, 0
2, 33435, Note_on_c, 0, 72, 0
2, 33435, Note_on_c, 0, 75, 0
2, 33435, Note_on_c, 0, 70, 0
2, 33443, Note_on_c, 0, 84, 80
2, 33497, Note_on_c, 0, 60, 80
2, 33497, Note_on_c, 0, 75, 80
2, 33497, Note_on_c, 0, 87, 80
2, 33501, Note_on_c, 0, 63, 0
2, 33544, Note_on_c, 0, 84, 0
2, 33585, Note_on_c, 0, 82, 80
2, 33587, Note_on_c, 0, 75, 0
2, 33587, Note_on_c, 0, 87, 0
2, 33630, Note_on_c, 0, 74, 80
2, 33630, Note_on_c, 0, 86, 80
2, 33632, Note_on_c, 0, 58, 80
2, 33634, Note_on_c, 0, 60, 0
2, 33677, Note_on_c, 0, 82, 0
2, 33715, Note_on_c, 0, 80, 80
2, 33719, Note_on_c, 0, 86, 0
2, 33720, Note_on_c, 0, 74, 0
2, 33762, Note_on_c, 0, 84, 80
2, 33764, Note_on_c, 0, 56, 80
2, 33764, Note_on_c, 0, 72, 80
2, 33768, Note_on_c, 0, 58, 0
2, 33811, Note_on_c, 0, 80, 0
2, 33835, Note_on_c, 0, 56, 0
2, 33844, Note_on_c, 0, 72, 0
2, 33852, Note_on_c, 0, 77, 80
2, 33854, Note_on_c, 0, 84, 0
2, 33893, Note_on_c, 0, 74, 80
2, 33893, Note_on_c, 0, 80, 80
2, 33895, Note_on_c, 0, 48, 80
2, 33895, Note_on_c, 0, 56, 80
2, 33895, Note_on_c, 0, 62, 80
2, 33895, Note_on_c, 0, 68, 80
2, 33895, Note_on_c, 0, 72, 80
2, 33897, Note_on_c, 0, 41, 80
2, 33909, Control_c, 0, 64, 127
2, 33940, Note_on_c, 0, 41, 0
2, 33940, Note_on_c, 0, 56, 0
2, 33940, Note_on_c, 0, 48, 0
2, 33960, Note_on_c, 0, 77, 0
2, 33960, Note_on_c, 0, 72, 0
2, 33960, Note_on_c, 0, 74, 0
2, 33962, Note_on_c, 0, 68, 0
2, 34028, Note_on_c, 0, 56, 80
2, 34028, Note_on_c, 0, 58, 80
2, 34028, Note_on_c, 0, 65, 80
2, 34056, Control_c, 0, 64, 0
2, 34074, Note_on_c, 0, 65, 0
2, 34074, Note_on_c, 0, 56, 0
2, 34074, Note_on_c, 0, 58, 0
2, 34109, Note_on_c, 0, 74, 80
2, 34113, Note_on_c, 0, 80, 0
2, 34151, Note_on_c, 0, 77, 80
2, 34152, Note_on_c, 0, 50, 80
2, 34154, Note_on_c, 0, 74, 0
2, 34154, Note_on_c, 0, 34, 80
2, 34204, Note_on_c, 0, 50, 0
2, 34206, Note_on_c, 0, 34, 0
2, 34244, Note_on_c, 0, 73, 80
2, 34246, Note_on_c, 0, 77, 0
2, 34285, Note_on_c, 0, 65, 80
2, 34285, Note_on_c, 0, 74, 80
2, 34287, Note_on_c, 0, 56, 80
2, 34287, Note_on_c, 0, 58, 80
2, 34289, Note_on_c, 0, 73, 0
2, 34332, Note_on_c, 0, 65, 0
2, 34332, Note_on_c, 0, 56, 0
2, 34332, Note_on_c, 0, 58, 0
2, 34366, Control_c, 0, 64, 127
2, 34371, Note_on_c, 0, 72, 80
2, 34371, Note_on_c, 0, 80, 80
2, 34371, Note_on_c, 0, 84, 80
2, 34375, Note_on_c, 0, 74, 0
2, 34416, Note_on_c, 0, 41, 80
2, 34416, Note_on_c, 0, 56, 80
2, 34460, Note_on_c, 0, 80, 0
2, 34460, Note_on_c, 0, 84, 0
2, 34460, Note_on_c, 0, 72, 0
2, 34462, Note_on_c, 0, 56, 0
2, 34464, Note_on_c, 0, 41, 0
2, 34471, Note_on_c, 0, 62, 0
2, 34475, Control_c, 0, 64, 0
2, 34501, Note_on_c, 0, 54, 80
2, 34512, Note_on_c, 0, 55, 80
2, 34516, Note_on_c, 0, 54, 0
2, 34524, Note_on_c, 0, 56, 80
2, 34528, Note_on_c, 0, 55, 0
2, 34541, Note_on_c, 0, 81, 80
2, 34543, Note_on_c, 0, 69, 80
2, 34545, Note_on_c, 0, 57, 80
2, 34549, Note_on_c, 0, 56, 0
2, 34616, Note_on_c, 0, 57, 0
2, 34634, Note_on_c, 0, 82, 80
2, 34636, Note_on_c, 0, 58, 80
2, 34636, Note_on_c, 0, 70, 80
2, 34638, Note_on_c, 0, 81, 0
2, 34640, Note_on_c, 0, 69, 0
2, 34672, Note_on_c, 0, 58, 0
2, 34674, Note_on_c, 0, 83, 80
2, 34676, Note_on_c, 0, 71, 80
2, 34678, Note_on_c, 0, 45, 80
2, 34678, Note_on_c, 0, 57, 80
2, 34680, Note_on_c, 0, 82, 0
2, 34680, Note_on_c, 0, 70, 0
2, 34747, Note_on_c, 0, 57, 0
2, 34758, Note_on_c, 0, 45, 0
2, 34762, Note_on_c, 0, 72, 80
2, 34762, Note_on_c, 0, 84, 80
2, 34766, Note_on_c, 0, 83, 0
2, 34766, Note_on_c, 0, 71, 0
2, 34807, Note_on_c, 0, 85, 80
2, 34809, Note_on_c, 0, 73, 80
2, 34811, Note_on_c, 0, 72, 0
2, 34811, Note_on_c, 0, 84, 0
2, 34811, Note_on_c, 0, 44, 80
2, 34811, Note_on_c, 0, 56, 80
2, 34878, Note_on_c, 0, 56, 0
2, 34880, Note_on_c, 0, 44, 0
2, 34892, Note_on_c, 0, 86, 80
2, 34896, Note_on_c, 0, 74, 80
2, 34897, Note_on_c, 0, 85, 0
2, 34899, Note_on_c, 0, 73, 0
2, 34935, Note_on_c, 0, 75, 80
2, 34935, Note_on_c, 0, 87, 80
2, 34937, Note_on_c, 0, 55, 80
2, 34939, Note_on_c, 0, 86, 0
2, 34939, Note_on_c, 0, 74, 0
2, 34939, Note_on_c, 0, 46, 80
2, 35004, Note_on_c, 0, 73, 80
2, 35004, Note_on_c, 0, 85, 80
2, 35006, Note_on_c, 0, 87, 0
2, 35008, Note_on_c, 0, 75, 0
2, 35008, Note_on_c, 0, 49, 80
2, 35010, Note_on_c, 0, 46, 0
2, 35010, Note_on_c, 0, 55, 0
2, 35051, Control_c, 0, 64, 127
2, 35097, Control_c, 0, 64, 0
2, 35147, Control_c, 0, 64, 127
2, 35379, Note_on_c, 0, 85, 0
2, 35381, Note_on_c, 0, 73, 0
2, 35383, Note_on_c, 0, 49, 0
2, 35395, Control_c, 0, 64, 0
2, 35432, Note_on_c, 0, 73, 80
2, 35432, Note_on_c, 0, 85, 80
2, 35436, Note_on_c, 0, 49, 80
2, 35442, Note_on_c, 0, 84, 80
2, 35444, Note_on_c, 0, 72, 80
2, 35446, Note_on_c, 0, 85, 0
2, 35446, Note_on_c, 0, 48, 80
2, 35448, Note_on_c, 0, 73, 0
2, 35449, Note_on_c, 0, 49, 0
2, 35453, Note_on_c, 0, 83, 80
2, 35455, Note_on_c, 0, 71, 80
2, 35457, Note_on_c, 0, 47, 80
2, 35459, Note_on_c, 0, 84, 0
2, 35459, Note_on_c, 0, 72, 0
2, 35463, Note_on_c, 0, 48, 0
2, 35465, Note_on_c, 0, 82, 80
2, 35467, Note_on_c, 0, 70, 80
2, 35469, Note_on_c, 0, 83, 0
2, 35469, Note_on_c, 0, 46, 80
2, 35471, Note_on_c, 0, 71, 0
2, 35472, Note_on_c, 0, 47, 0
2, 35532, Note_on_c, 0, 78, 80
2, 35534, Note_on_c, 0, 54, 80
2, 35534, Note_on_c, 0, 66, 80
2, 35536, Note_on_c, 0, 82, 0
2, 35536, Note_on_c, 0, 70, 0
2, 35538, Note_on_c, 0, 46, 0
2, 35621, Control_c, 0, 64, 127
2, 35762, Note_on_c, 0, 78, 0
2, 35806, Note_on_c, 0, 74, 80
2, 35806, Note_on_c, 0, 75, 80
2, 35806, Note_on_c, 0, 78, 80
2, 35806, Note_on_c, 0, 81, 80
2, 35806, Note_on_c, 0, 86, 80
2, 35809, Note_on_c, 0, 66, 0
2, 35811, Note_on_c, 0, 54, 0
2, 35835, Control_c, 0, 64, 0
2, 35849, Note_on_c, 0, 57, 80
2, 35851, Note_on_c, 0, 42, 80
2, 35851, Note_on_c, 0, 51, 80
2, 35916, Note_on_c, 0, 51, 0
2, 35916, Note_on_c, 0, 57, 0
2, 35918, Note_on_c, 0, 42, 0
2, 35936, Note_on_c, 0, 81, 0
2, 35936, Note_on_c, 0, 78, 0
2, 35936, Note_on_c, 0, 75, 0
2, 35936, Note_on_c, 0, 74, 0
2, 35954, Note_on_c, 0, 84, 80
2, 35956, Note_on_c, 0, 72, 80
2, 35958, Note_on_c, 0, 86, 0
2, 36000, Note_on_c, 0, 74, 80
2, 36000, Note_on_c, 0, 77, 80
2, 36000, Note_on_c, 0, 80, 80
2, 36001, Note_on_c, 0, 62, 80
2, 36001, Note_on_c, 0, 68, 80
2, 36003, Note_on_c, 0, 84, 0
2, 36003, Note_on_c, 0, 41, 80
2, 36003, Note_on_c, 0, 48, 80
2, 36003, Note_on_c, 0, 56, 80
2, 36049, Note_on_c, 0, 56, 0
2, 36049, Note_on_c, 0, 48, 0
2, 36049, Control_c, 0, 64, 127
2, 36051, Note_on_c, 0, 41, 0
2, 36068, Note_on_c, 0, 74, 0
2, 36068, Note_on_c, 0, 77, 0
2, 36070, Note_on_c, 0, 72, 0
2, 36070, Note_on_c, 0, 68, 0
2, 36133, Note_on_c, 0, 56, 80
2, 36133, Note_on_c, 0, 58, 80
2, 36133, Note_on_c, 0, 65, 80
2, 36161, Control_c, 0, 64, 0
2, 36179, Note_on_c, 0, 65, 0
2, 36179, Note_on_c, 0, 58, 0
2, 36181, Note_on_c, 0, 56, 0
2, 36218, Note_on_c, 0, 74, 80
2, 36220, Note_on_c, 0, 80, 0
2, 36262, Note_on_c, 0, 65, 80
2, 36262, Note_on_c, 0, 68, 80
2, 36262, Note_on_c, 0, 77, 80
2, 36264, Note_on_c, 0, 50, 80
2, 36265, Note_on_c, 0, 34, 80
2, 36307, Note_on_c, 0, 50, 0
2, 36309, Note_on_c, 0, 34, 0
2, 36327, Note_on_c, 0, 74, 0
2, 36327, Note_on_c, 0, 65, 0
2, 36327, Note_on_c, 0, 68, 0
2, 36345, Note_on_c, 0, 73, 80
2, 36349, Note_on_c, 0, 77, 0
2, 36392, Note_on_c, 0, 74, 80
2, 36394, Note_on_c, 0, 56, 80
2, 36394, Note_on_c, 0, 58, 80
2, 36394, Note_on_c, 0, 65, 80
2, 36396, Note_on_c, 0, 73, 0
2, 36439, Note_on_c, 0, 74, 0
2, 36439, Note_on_c, 0, 56, 0
2, 36439, Note_on_c, 0, 58, 0
2, 36439, Note_on_c, 0, 65, 0
2, 36479, Note_on_c, 0, 72, 80
2, 36479, Note_on_c, 0, 74, 80
2, 36479, Note_on_c, 0, 77, 80
2, 36479, Note_on_c, 0, 80, 80
2, 36479, Note_on_c, 0, 84, 80
2, 36504, Control_c, 0, 64, 127
2, 36523, Note_on_c, 0, 48, 80
2, 36523, Note_on_c, 0, 56, 80
2, 36525, Note_on_c, 0, 41, 80
2, 36545, Note_on_c, 0, 84, 0
2, 36551, Control_c, 0, 64, 0
2, 36569, Note_on_c, 0, 77, 0
2, 36569, Note_on_c, 0, 74, 0
2, 36569, Note_on_c, 0, 80, 0
2, 36571, Note_on_c, 0, 56, 0
2, 36571, Note_on_c, 0, 48, 0
2, 36573, Note_on_c, 0, 41, 0
2, 36610, Note_on_c, 0, 84, 80
2, 36614, Note_on_c, 0, 72, 0
2, 36653, Note_on_c, 0, 87, 80
2, 36655, Note_on_c, 0, 56, 80
2, 36655, Note_on_c, 0, 58, 80
2, 36655, Note_on_c, 0, 65, 80
2, 36655, Note_on_c, 0, 75, 80
2, 36698, Note_on_c, 0, 65, 0
2, 36700, Note_on_c, 0, 56, 0
2, 36700, Note_on_c, 0, 58, 0
2, 36720, Note_on_c, 0, 84, 0
2, 36741, Note_on_c, 0, 82, 80
2, 36743, Note_on_c, 0, 75, 0
2, 36743, Note_on_c, 0, 87, 0
2, 36784, Note_on_c, 0, 74, 80
2, 36784, Note_on_c, 0, 86, 80
2, 36788, Note_on_c, 0, 34, 80
2, 36788, Note_on_c, 0, 50, 80
2, 36836, Note_on_c, 0, 50, 0
2, 36836, Note_on_c, 0, 34, 0
2, 36854, Note_on_c, 0, 82, 0
2, 36870, Note_on_c, 0, 80, 80
2, 36874, Note_on_c, 0, 86, 0
2, 36874, Note_on_c, 0, 74, 0
2, 36915, Note_on_c, 0, 72, 80
2, 36915, Note_on_c, 0, 74, 80
2, 36915, Note_on_c, 0, 84, 80
2, 36917, Note_on_c, 0, 58, 80
2, 36917, Note_on_c, 0, 65, 80
2, 36919, Note_on_c, 0, 56, 80
2, 36965, Note_on_c, 0, 56, 0
2, 36965, Note_on_c, 0, 65, 0
2, 36965, Note_on_c, 0, 62, 0
2, 36965, Note_on_c, 0, 58, 0
2, 36987, Note_on_c, 0, 80, 0
2, 36987, Note_on_c, 0, 74, 0
2, 37006, Note_on_c, 0, 75, 80
2, 37009, Note_on_c, 0, 84, 0
2, 37011, Note_on_c, 0, 72, 0
2, 37051, Note_on_c, 0, 79, 80
2, 37053, Note_on_c, 0, 63, 80
2, 37053, Note_on_c, 0, 67, 80
2, 37055, Note_on_c, 0, 39, 80
2, 37055, Note_on_c, 0, 46, 80
2, 37055, Note_on_c, 0, 55, 80
2, 37098, Note_on_c, 0, 55, 0
2, 37098, Note_on_c, 0, 46, 0
2, 37098, Control_c, 0, 64, 127
2, 37100, Note_on_c, 0, 39, 0
2, 37141, Note_on_c, 0, 75, 0
2, 37143, Note_on_c, 0, 67, 0
2, 37184, Note_on_c, 0, 55, 80
2, 37184, Note_on_c, 0, 58, 80
2, 37232, Note_on_c, 0, 58, 0
2, 37232, Note_on_c, 0, 55, 0
2, 37246, Control_c, 0, 64, 0
2, 37272, Note_on_c, 0, 70, 80
2, 37275, Note_on_c, 0, 79, 0
2, 37317, Note_on_c, 0, 72, 80
2, 37319, Note_on_c, 0, 34, 80
2, 37319, Note_on_c, 0, 46, 80
2, 37319, Note_on_c, 0, 50, 80
2, 37320, Note_on_c, 0, 70, 0
2, 37364, Note_on_c, 0, 46, 0
2, 37364, Note_on_c, 0, 50, 0
2, 37366, Note_on_c, 0, 34, 0
2, 37403, Note_on_c, 0, 66, 80
2, 37407, Note_on_c, 0, 72, 0
2, 37446, Note_on_c, 0, 55, 80
2, 37446, Note_on_c, 0, 58, 80
2, 37446, Note_on_c, 0, 60, 80
2, 37446, Note_on_c, 0, 67, 80
2, 37450, Note_on_c, 0, 66, 0
2, 37491, Note_on_c, 0, 60, 0
2, 37491, Note_on_c, 0, 58, 0
2, 37491, Note_on_c, 0, 55, 0
2, 37491, Control_c, 0, 64, 127
2, 37519, Note_on_c, 0, 70, 80
2, 37519, Note_on_c, 0, 75, 80
2, 37519, Note_on_c, 0, 79, 80
2, 37575, Note_on_c, 0, 55, 80
2, 37577, Note_on_c, 0, 75, 0
2, 37577, Note_on_c, 0, 39, 80
2, 37620, Note_on_c, 0, 55, 0
2, 37622, Note_on_c, 0, 39, 0
2, 37628, Note_on_c, 0, 79, 0
2, 37630, Note_on_c, 0, 70, 0
2, 37630, Note_on_c, 0, 67, 0
2, 37633, Control_c, 0, 64, 0
2, 37671, Note_on_c, 0, 40, 80
2, 37701, Note_on_c, 0, 79, 80
2, 37703, Note_on_c, 0, 55, 80
2, 37703, Note_on_c, 0, 58, 80
2, 37703, Note_on_c, 0, 60, 80
2, 37703, Note_on_c, 0, 67, 80
2, 37727, Note_on_c, 0, 79, 0
2, 37728, Note_on_c, 0, 67, 0
2, 37734, Note_on_c, 0, 75, 80
2, 37736, Note_on_c, 0, 70, 80
2, 37750, Note_on_c, 0, 63, 0
2, 37750, Note_on_c, 0, 58, 0
2, 37750, Note_on_c, 0, 55, 0
2, 37750, Note_on_c, 0, 60, 0
2, 37752, Note_on_c, 0, 40, 0
2, 37759, Note_on_c, 0, 70, 0
2, 37759, Note_on_c, 0, 75, 0
2, 37767, Note_on_c, 0, 79, 80
2, 37769, Note_on_c, 0, 67, 80
2, 37785, Control_c, 0, 64, 127
2, 37801, Control_c, 0, 64, 0
2, 37801, Note_on_c, 0, 70, 80
2, 37801, Note_on_c, 0, 75, 80
2, 37827, Note_on_c, 0, 75, 0
2, 37827, Note_on_c, 0, 37, 80
2, 37829, Note_on_c, 0, 70, 0
2, 37833, Note_on_c, 0, 77, 80
2, 37837, Note_on_c, 0, 53, 80
2, 37837, Note_on_c, 0, 65, 80
2, 37839, Note_on_c, 0, 79, 0
2, 37839, Note_on_c, 0, 67, 0
2, 37885, Note_on_c, 0, 37, 0
2, 37885, Note_on_c, 0, 53, 0
2, 37913, Note_on_c, 0, 68, 80
2, 37913, Note_on_c, 0, 73, 80
2, 37963, Note_on_c, 0, 73, 0
2, 37965, Note_on_c, 0, 68, 0
2, 37972, Note_on_c, 0, 67, 80
2, 37972, Note_on_c, 0, 70, 80
2, 37972, Note_on_c, 0, 79, 80
2, 37976, Note_on_c, 0, 65, 0
2, 37976, Note_on_c, 0, 77, 0
2, 37976, Note_on_c, 0, 52, 80
2, 37990, Control_c, 0, 64, 127
2, 38023, Note_on_c, 0, 52, 0
2, 38041, Note_on_c, 0, 70, 0
2, 38069, Control_c, 0, 64, 0
2, 38083, Note_on_c, 0, 79, 0
2, 38085, Note_on_c, 0, 67, 0
2, 38085, Note_on_c, 0, 36, 80
2, 38101, Note_on_c, 0, 85, 80
2, 38103, Note_on_c, 0, 73, 80
2, 38105, Note_on_c, 0, 52, 80
2, 38105, Note_on_c, 0, 64, 80
2, 38107, Note_on_c, 0, 43, 80
2, 38155, Note_on_c, 0, 43, 0
2, 38157, Note_on_c, 0, 36, 0
2, 38179, Note_on_c, 0, 52, 0
2, 38197, Note_on_c, 0, 82, 80
2, 38199, Note_on_c, 0, 76, 80
2, 38199, Note_on_c, 0, 79, 80
2, 38201, Note_on_c, 0, 85, 0
2, 38203, Note_on_c, 0, 73, 0
2, 38225, Control_c, 0, 64, 127
2, 38241, Note_on_c, 0, 73, 80
2, 38241, Note_on_c, 0, 85, 80
2, 38243, Note_on_c, 0, 55, 80
2, 38243, Note_on_c, 0, 58, 80
2, 38289, Note_on_c, 0, 58, 0
2, 38289, Note_on_c, 0, 55, 0
2, 38303, Control_c, 0, 64, 0
2, 38310, Note_on_c, 0, 82, 0
2, 38312, Note_on_c, 0, 76, 0
2, 38312, Note_on_c, 0, 79, 0
2, 38340, Note_on_c, 0, 72, 80
2, 38340, Note_on_c, 0, 84, 80
2, 38344, Note_on_c, 0, 73, 0
2, 38366, Note_on_c, 0, 85, 0
2, 38376, Note_on_c, 0, 40, 80
2, 38376, Note_on_c, 0, 55, 80
2, 38407, Note_on_c, 0, 82, 80
2, 38409, Note_on_c, 0, 84, 0
2, 38421, Note_on_c, 0, 72, 0
2, 38423, Note_on_c, 0, 40, 0
2, 38423, Note_on_c, 0, 55, 0
2, 38430, Note_on_c, 0, 82, 0
2, 38436, Note_on_c, 0, 84, 80
2, 38468, Note_on_c, 0, 82, 80
2, 38472, Note_on_c, 0, 84, 0
2, 38505, Note_on_c, 0, 79, 80
2, 38507, Note_on_c, 0, 82, 0
2, 38507, Note_on_c, 0, 55, 80
2, 38507, Note_on_c, 0, 58, 80
2, 38507, Note_on_c, 0, 60, 80
2, 38520, Control_c, 0, 64, 127
2, 38552, Note_on_c, 0, 60, 0
2, 38554, Note_on_c, 0, 55, 0
2, 38554, Note_on_c, 0, 58, 0
2, 38570, Note_on_c, 0, 76, 80
2, 38574, Note_on_c, 0, 79, 0
2, 38602, Control_c, 0, 64, 0
2, 38640, Note_on_c, 0, 52, 80
2, 38641, Note_on_c, 0, 64, 0
2, 38641, Note_on_c, 0, 36, 80
2, 38723, Note_on_c, 0, 78, 80
2, 38725, Note_on_c, 0, 76, 0
2, 38762, Note_on_c, 0, 52, 0
2, 38768, Note_on_c, 0, 79, 80
2, 38770, Note_on_c, 0, 78, 0
2, 38770, Note_on_c, 0, 53, 80
2, 38772, Note_on_c, 0, 38, 80
2, 38774, Note_on_c, 0, 36, 0
2, 38833, Note_on_c, 0, 85, 80
2, 38837, Note_on_c, 0, 79, 0
2, 38895, Note_on_c, 0, 53, 0
2, 38903, Note_on_c, 0, 39, 80
2, 38903, Note_on_c, 0, 54, 80
2, 38906, Note_on_c, 0, 38, 0
2, 38932, Note_on_c, 0, 84, 80
2, 38934, Note_on_c, 0, 85, 0
2, 38962, Note_on_c, 0, 84, 0
2, 38966, Note_on_c, 0, 85, 80
2, 39000, Note_on_c, 0, 84, 80
2, 39001, Note_on_c, 0, 85, 0
2, 39027, Note_on_c, 0, 54, 0
2, 39031, Note_on_c, 0, 78, 80
2, 39033, Note_on_c, 0, 55, 80
2, 39035, Note_on_c, 0, 40, 80
2, 39037, Note_on_c, 0, 84, 0
2, 39039, Note_on_c, 0, 39, 0
2, 39096, Note_on_c, 0, 79, 80
2, 39098, Note_on_c, 0, 78, 0
2, 39136, Note_on_c, 0, 55, 0
2, 39144, Note_on_c, 0, 41, 80
2, 39147, Note_on_c, 0, 40, 0
2, 39155, Note_on_c, 0, 48, 80
2, 39163, Note_on_c, 0, 77, 80
2, 39163, Note_on_c, 0, 82, 80
2, 39165, Note_on_c, 0, 56, 80
2, 39167, Note_on_c, 0, 79, 0
2, 39215, Note_on_c, 0, 48, 0
2, 39248, Note_on_c, 0, 72, 80
2, 39252, Note_on_c, 0, 77, 0
2, 39252, Note_on_c, 0, 82, 0
2, 39291, Note_on_c, 0, 74, 80
2, 39293, Note_on_c, 0, 60, 80
2, 39293, Note_on_c, 0, 62, 80
2, 39293, Note_on_c, 0, 65, 80
2, 39295, Note_on_c, 0, 72, 0
2, 39343, Note_on_c, 0, 56, 0
2, 39343, Note_on_c, 0, 60, 0
2, 39343, Note_on_c, 0, 65, 0
2, 39355, Note_on_c, 0, 41, 0
2, 39362, Note_on_c, 0, 74, 0
2, 39410, Control_c, 0, 64, 127
2, 39427, Note_on_c, 0, 80, 80
2, 39429, Note_on_c, 0, 74, 80
2, 39429, Note_on_c, 0, 77, 80
2, 39431, Note_on_c, 0, 41, 80
2, 39431, Note_on_c, 0, 56, 80
2, 39432, Note_on_c, 0, 62, 0
2, 39453, Note_on_c, 0, 77, 0
2, 39453, Note_on_c, 0, 80, 0
2, 39453, Note_on_c, 0, 74, 0
2, 39458, Note_on_c, 0, 72, 80
2, 39486, Note_on_c, 0, 72, 0
2, 39492, Note_on_c, 0, 77, 80
2, 39492, Note_on_c, 0, 80, 80
2, 39494, Note_on_c, 0, 74, 80
2, 39516, Note_on_c, 0, 74, 0
2, 39516, Note_on_c, 0, 77, 0
2, 39516, Note_on_c, 0, 80, 0
2, 39526, Note_on_c, 0, 72, 80
2, 39531, Note_on_c, 0, 56, 0
2, 39553, Note_on_c, 0, 72, 0
2, 39557, Note_on_c, 0, 80, 80
2, 39559, Note_on_c, 0, 58, 80
2, 39559, Note_on_c, 0, 74, 80
2, 39559, Note_on_c, 0, 77, 80
2, 39561, Note_on_c, 0, 43, 80
2, 39565, Note_on_c, 0, 41, 0
2, 39585, Note_on_c, 0, 77, 0
2, 39585, Note_on_c, 0, 74, 0
2, 39585, Note_on_c, 0, 80, 0
2, 39589, Control_c, 0, 64, 0
2, 39591, Note_on_c, 0, 72, 80
2, 39617, Note_on_c, 0, 72, 0
2, 39623, Note_on_c, 0, 74, 80
2, 39623, Note_on_c, 0, 77, 80
2, 39623, Note_on_c, 0, 80, 80
2, 39647, Note_on_c, 0, 80, 0
2, 39647, Note_on_c, 0, 74, 0
2, 39647, Note_on_c, 0, 77, 0
2, 39654, Note_on_c, 0, 72, 80
2, 39668, Note_on_c, 0, 58, 0
2, 39686, Note_on_c, 0, 80, 80
2, 39688, Note_on_c, 0, 60, 80
2, 39688, Note_on_c, 0, 74, 80
2, 39688, Note_on_c, 0, 77, 80
2, 39690, Note_on_c, 0, 44, 80
2, 39694, Note_on_c, 0, 43, 0
2, 39745, Note_on_c, 0, 74, 0
2, 39745, Note_on_c, 0, 80, 0
2, 39745, Note_on_c, 0, 72, 0
2, 39745, Note_on_c, 0, 77, 0
2, 39751, Note_on_c, 0, 84, 80
2, 39751, Note_on_c, 0, 87, 80
2, 39753, Note_on_c, 0, 75, 80
2, 39791, Note_on_c, 0, 60, 0
2, 39818, Note_on_c, 0, 38, 80
2, 39818, Note_on_c, 0, 54, 80
2, 39822, Note_on_c, 0, 44, 0
2, 39840, Note_on_c, 0, 84, 0
2, 39852, Note_on_c, 0, 75, 0
2, 39860, Note_on_c, 0, 87, 0
2, 39876, Note_on_c, 0, 81, 80
2, 39878, Note_on_c, 0, 69, 80
2, 39878, Note_on_c, 0, 78, 80
2, 39926, Note_on_c, 0, 78, 0
2, 39944, Note_on_c, 0, 86, 80
2, 39946, Note_on_c, 0, 74, 80
2, 39948, Note_on_c, 0, 39, 80
2, 39948, Note_on_c, 0, 55, 80
2, 39950, Note_on_c, 0, 54, 0
2, 39950, Note_on_c, 0, 69, 0
2, 39952, Note_on_c, 0, 38, 0
2, 40011, Note_on_c, 0, 81, 0
2, 40011, Note_on_c, 0, 74, 0
2, 40073, Note_on_c, 0, 72, 80
2, 40073, Note_on_c, 0, 74, 80
2, 40073, Note_on_c, 0, 78, 80
2, 40073, Note_on_c, 0, 81, 80
2, 40073, Note_on_c, 0, 84, 80
2, 40075, Note_on_c, 0, 86, 0
2, 40075, Note_on_c, 0, 57, 80
2, 40077, Note_on_c, 0, 55, 0
2, 40077, Note_on_c, 0, 42, 80
2, 40080, Note_on_c, 0, 39, 0
2, 40090, Control_c, 0, 64, 127
2, 40136, Control_c, 0, 64, 0
2, 40140, Note_on_c, 0, 84, 0
2, 40140, Note_on_c, 0, 81, 0
2, 40142, Note_on_c, 0, 72, 0
2, 40142, Note_on_c, 0, 74, 0
2, 40142, Note_on_c, 0, 78, 0
2, 40185, Note_on_c, 0, 39, 80
2, 40187, Note_on_c, 0, 57, 0
2, 40191, Note_on_c, 0, 42, 0
2, 40202, Note_on_c, 0, 82, 80
2, 40202, Note_on_c, 0, 84, 80
2, 40204, Note_on_c, 0, 55, 80
2, 40204, Note_on_c, 0, 60, 80
2, 40204, Note_on_c, 0, 72, 80
2, 40204, Note_on_c, 0, 75, 80
2, 40204, Note_on_c, 0, 79, 80
2, 40206, Note_on_c, 0, 46, 80
2, 40228, Note_on_c, 0, 79, 0
2, 40228, Note_on_c, 0, 75, 0
2, 40228, Note_on_c, 0, 72, 0
2, 40228, Note_on_c, 0, 84, 0
2, 40228, Note_on_c, 0, 82, 0
2, 40250, Note_on_c, 0, 55, 0
2, 40252, Note_on_c, 0, 46, 0
2, 40288, Control_c, 0, 64, 127
2, 40294, Note_on_c, 0, 72, 80
2, 40294, Note_on_c, 0, 79, 80
2, 40294, Note_on_c, 0, 82, 80
2, 40294, Note_on_c, 0, 84, 80
2, 40296, Note_on_c, 0, 75, 80
2, 40345, Note_on_c, 0, 55, 80
2, 40345, Note_on_c, 0, 58, 80
2, 40345, Note_on_c, 0, 63, 80
2, 40369, Note_on_c, 0, 75, 0
2, 40369, Note_on_c, 0, 79, 0
2, 40369, Note_on_c, 0, 72, 0
2, 40369, Note_on_c, 0, 84, 0
2, 40369, Note_on_c, 0, 82, 0
2, 40373, Control_c, 0, 64, 0
2, 40393, Note_on_c, 0, 55, 0
2, 40393, Note_on_c, 0, 63, 0
2, 40393, Note_on_c, 0, 58, 0
2, 40407, Note_on_c, 0, 72, 80
2, 40407, Note_on_c, 0, 75, 80
2, 40407, Note_on_c, 0, 79, 80
2, 40407, Note_on_c, 0, 82, 80
2, 40407, Note_on_c, 0, 84, 80
2, 40423, Control_c, 0, 64, 127
2, 40440, Control_c, 0, 64, 0
2, 40467, Note_on_c, 0, 39, 0
2, 40475, Note_on_c, 0, 79, 0
2, 40475, Note_on_c, 0, 75, 0
2, 40475, Note_on_c, 0, 82, 0
2, 40475, Note_on_c, 0, 43, 80
2, 40475, Note_on_c, 0, 58, 80
2, 40477, Note_on_c, 0, 60, 0
2, 40566, Note_on_c, 0, 79, 80
2, 40566, Note_on_c, 0, 82, 80
2, 40570, Note_on_c, 0, 72, 0
2, 40570, Note_on_c, 0, 84, 0
2, 40608, Note_on_c, 0, 78, 80
2, 40608, Note_on_c, 0, 81, 80
2, 40611, Note_on_c, 0, 42, 80
2, 40611, Note_on_c, 0, 57, 80
2, 40613, Note_on_c, 0, 58, 0
2, 40613, Note_on_c, 0, 79, 0
2, 40613, Note_on_c, 0, 82, 0
2, 40615, Note_on_c, 0, 43, 0
2, 40697, Note_on_c, 0, 79, 80
2, 40697, Note_on_c, 0, 82, 80
2, 40699, Note_on_c, 0, 78, 0
2, 40699, Note_on_c, 0, 81, 0
2, 40742, Note_on_c, 0, 72, 80
2, 40742, Note_on_c, 0, 80, 80
2, 40744, Note_on_c, 0, 41, 80
2, 40744, Note_on_c, 0, 56, 80
2, 40746, Note_on_c, 0, 57, 0
2, 40746, Note_on_c, 0, 79, 0
2, 40746, Note_on_c, 0, 82, 0
2, 40748, Note_on_c, 0, 42, 0
2, 40789, Control_c, 0, 64, 127
2, 40809, Note_on_c, 0, 72, 0
2, 40827, Note_on_c, 0, 77, 80
2, 40833, Note_on_c, 0, 80, 0
2, 40874, Note_on_c, 0, 58, 80
2, 40874, Note_on_c, 0, 62, 80
2, 40874, Note_on_c, 0, 65, 80
2, 40874, Note_on_c, 0, 72, 80
2, 40876, Note_on_c, 0, 77, 0
2, 40902, Control_c, 0, 64, 0
2, 40922, Note_on_c, 0, 62, 0
2, 40922, Note_on_c, 0, 65, 0
2, 40924, Note_on_c, 0, 58, 0
2, 40924, Note_on_c, 0, 56, 0
2, 40966, Note_on_c, 0, 74, 80
2, 40968, Note_on_c, 0, 72, 0
2, 41003, Note_on_c, 0, 41, 0
2, 41009, Note_on_c, 0, 50, 80
2, 41009, Note_on_c, 0, 68, 80
2, 41009, Note_on_c, 0, 70, 80
2, 41009, Note_on_c, 0, 79, 80
2, 41011, Note_on_c, 0, 74, 0
2, 41011, Note_on_c, 0, 34, 80
2, 41076, Note_on_c, 0, 70, 0
2, 41076, Note_on_c, 0, 68, 0
2, 41088, Control_c, 0, 64, 127
2, 41093, Note_on_c, 0, 74, 80
2, 41099, Note_on_c, 0, 79, 0
2, 41138, Note_on_c, 0, 58, 80
2, 41138, Note_on_c, 0, 62, 80
2, 41138, Note_on_c, 0, 65, 80
2, 41138, Note_on_c, 0, 68, 80
2, 41138, Note_on_c, 0, 77, 80
2, 41140, Note_on_c, 0, 56, 80
2, 41144, Note_on_c, 0, 74, 0
2, 41202, Control_c, 0, 64, 0
2, 41208, Note_on_c, 0, 77, 0
2, 41208, Note_on_c, 0, 62, 0
2, 41208, Note_on_c, 0, 65, 0
2, 41208, Note_on_c, 0, 58, 0
2, 41208, Note_on_c, 0, 68, 0
2, 41209, Note_on_c, 0, 56, 0
2, 41209, Note_on_c, 0, 50, 0
2, 41209, Note_on_c, 0, 34, 0
2, 41251, Note_on_c, 0, 39, 80
2, 41271, Note_on_c, 0, 46, 80
2, 41271, Note_on_c, 0, 55, 80
2, 41271, Note_on_c, 0, 67, 80
2, 41271, Note_on_c, 0, 75, 80
2, 41338, Note_on_c, 0, 75, 0
2, 41338, Note_on_c, 0, 55, 0
2, 41338, Note_on_c, 0, 67, 0
2, 41340, Note_on_c, 0, 46, 0
2, 41340, Note_on_c, 0, 39, 0
2, 41401, Note_on_c, 0, 61, 80
2, 41401, Note_on_c, 0, 70, 80
2, 41403, Note_on_c, 0, 51, 80
2, 41469, Note_on_c, 0, 70, 0
2, 41469, Note_on_c, 0, 61, 0
2, 41487, Note_on_c, 0, 75, 80
2, 41524, Note_on_c, 0, 75, 0
2, 41532, Note_on_c, 0, 60, 80
2, 41532, Note_on_c, 0, 69, 80
2, 41601, Note_on_c, 0, 69, 0
2, 41601, Note_on_c, 0, 60, 0
2, 41617, Note_on_c, 0, 75, 80
2, 41653, Note_on_c, 0, 75, 0
2, 41661, Note_on_c, 0, 68, 80
2, 41663, Note_on_c, 0, 59, 80
2, 41732, Note_on_c, 0, 59, 0
2, 41732, Note_on_c, 0, 68, 0
2, 41750, Note_on_c, 0, 75, 80
2, 41778, Control_c, 0, 64, 127
2, 41796, Note_on_c, 0, 58, 80
2, 41796, Note_on_c, 0, 67, 80
2, 41796, Note_on_c, 0, 70, 80
2, 41839, Note_on_c, 0, 70, 0
2, 41839, Note_on_c, 0, 75, 0
2, 41841, Note_on_c, 0, 51, 0
2, 41841, Note_on_c, 0, 58, 0
2, 41841, Note_on_c, 0, 67, 0
2, 41857, Control_c, 0, 64, 0
2, 41927, Note_on_c, 0, 69, 80
2, 41927, Note_on_c, 0, 72, 80
2, 41928, Note_on_c, 0, 42, 80
2, 41928, Note_on_c, 0, 51, 80
2, 41928, Note_on_c, 0, 57, 80
2, 41952, Note_on_c, 0, 72, 0
2, 41952, Note_on_c, 0, 69, 0
2, 41958, Note_on_c, 0, 60, 80
2, 41960, Note_on_c, 0, 63, 80
2, 41984, Note_on_c, 0, 63, 0
2, 41984, Note_on_c, 0, 60, 0
2, 41990, Note_on_c, 0, 69, 80
2, 41990, Note_on_c, 0, 72, 80
2, 42016, Note_on_c, 0, 72, 0
2, 42016, Note_on_c, 0, 69, 0
2, 42022, Note_on_c, 0, 60, 80
2, 42022, Note_on_c, 0, 63, 80
2, 42035, Control_c, 0, 64, 127
2, 42045, Note_on_c, 0, 63, 0
2, 42045, Note_on_c, 0, 60, 0
2, 42052, Note_on_c, 0, 69, 80
2, 42052, Note_on_c, 0, 72, 80
2, 42078, Note_on_c, 0, 72, 0
2, 42078, Note_on_c, 0, 69, 0
2, 42086, Note_on_c, 0, 60, 80
2, 42086, Note_on_c, 0, 63, 80
2, 42110, Note_on_c, 0, 60, 0
2, 42112, Note_on_c, 0, 63, 0
2, 42118, Note_on_c, 0, 69, 80
2, 42118, Note_on_c, 0, 72, 80
2, 42144, Note_on_c, 0, 72, 0
2, 42144, Note_on_c, 0, 69, 0
2, 42151, Note_on_c, 0, 63, 80
2, 42153, Note_on_c, 0, 60, 80
2, 42181, Note_on_c, 0, 69, 80
2, 42181, Note_on_c, 0, 72, 80
2, 42187, Note_on_c, 0, 51, 0
2, 42187, Note_on_c, 0, 57, 0
2, 42187, Note_on_c, 0, 42, 0
2, 42224, Note_on_c, 0, 72, 0
2, 42226, Note_on_c, 0, 63, 0
2, 42226, Note_on_c, 0, 69, 0
2, 42226, Note_on_c, 0, 60, 0
2, 42274, Control_c, 0, 64, 0
2, 42313, Note_on_c, 0, 41, 80
2, 42313, Note_on_c, 0, 56, 80
2, 42401, Note_on_c, 0, 58, 80
2, 42405, Note_on_c, 0, 56, 0
2, 42436, Note_on_c, 0, 58, 0
2, 42444, Note_on_c, 0, 65, 80
2, 42448, Note_on_c, 0, 44, 80
2, 42450, Note_on_c, 0, 41, 0
2, 42539, Note_on_c, 0, 56, 80
2, 42541, Note_on_c, 0, 65, 0
2, 42575, Note_on_c, 0, 56, 0
2, 42580, Note_on_c, 0, 58, 80
2, 42582, Note_on_c, 0, 50, 80
2, 42584, Note_on_c, 0, 44, 0
2, 42670, Note_on_c, 0, 65, 80
2, 42673, Note_on_c, 0, 58, 0
2, 42707, Note_on_c, 0, 65, 0
2, 42717, Note_on_c, 0, 53, 80
2, 42717, Note_on_c, 0, 56, 80
2, 42720, Note_on_c, 0, 50, 0
2, 42800, Note_on_c, 0, 56, 0
2, 42804, Note_on_c, 0, 58, 80
2, 42820, Note_on_c, 0, 58, 0
2, 42850, Note_on_c, 0, 50, 80
2, 42850, Note_on_c, 0, 56, 80
2, 42850, Note_on_c, 0, 58, 80
2, 42850, Note_on_c, 0, 65, 80
2, 42856, Note_on_c, 0, 53, 0
2, 42876, Note_on_c, 0, 58, 0
2, 42876, Note_on_c, 0, 65, 0
2, 42876, Note_on_c, 0, 56, 0
2, 42898, Control_c, 0, 64, 127
2, 42939, Note_on_c, 0, 56, 80
2, 42939, Note_on_c, 0, 58, 80
2, 42939, Note_on_c, 0, 65, 80
2, 42983, Note_on_c, 0, 51, 80
2, 42986, Note_on_c, 0, 50, 0
2, 43007, Note_on_c, 0, 65, 0
2, 43007, Note_on_c, 0, 56, 0
2, 43007, Note_on_c, 0, 58, 0
2, 43010, Control_c, 0, 64, 0
2, 43060, Note_on_c, 0, 56, 80
2, 43060, Note_on_c, 0, 58, 80
2, 43060, Note_on_c, 0, 65, 80
2, 43062, Control_c, 0, 64, 127
2, 43118, Note_on_c, 0, 53, 80
2, 43122, Note_on_c, 0, 51, 0
2, 43146, Control_c, 0, 64, 0
2, 43203, Note_on_c, 0, 51, 80
2, 43209, Note_on_c, 0, 53, 0
2, 43239, Note_on_c, 0, 51, 0
2, 43247, Note_on_c, 0, 50, 80
2, 43250, Note_on_c, 0, 56, 0
2, 43250, Note_on_c, 0, 65, 0
2, 43250, Note_on_c, 0, 58, 0
2, 43336, Note_on_c, 0, 48, 80
2, 43340, Note_on_c, 0, 50, 0
2, 43373, Note_on_c, 0, 48, 0
2, 43379, Note_on_c, 0, 46, 80
2, 43379, Note_on_c, 0, 55, 80
2, 43464, Note_on_c, 0, 58, 80
2, 43470, Note_on_c, 0, 55, 0
2, 43504, Note_on_c, 0, 58, 0
2, 43510, Note_on_c, 0, 63, 80
2, 43512, Note_on_c, 0, 43, 80
2, 43513, Note_on_c, 0, 46, 0
2, 43597, Note_on_c, 0, 55, 80
2, 43603, Note_on_c, 0, 63, 0
2, 43632, Note_on_c, 0, 55, 0
2, 43642, Note_on_c, 0, 39, 80
2, 43642, Note_on_c, 0, 58, 80
2, 43646, Note_on_c, 0, 43, 0
2, 43729, Note_on_c, 0, 63, 80
2, 43733, Note_on_c, 0, 58, 0
2, 43765, Note_on_c, 0, 63, 0
2, 43771, Note_on_c, 0, 55, 80
2, 43773, Note_on_c, 0, 34, 80
2, 43775, Note_on_c, 0, 39, 0
2, 43848, Note_on_c, 0, 55, 0
2, 43853, Note_on_c, 0, 58, 80
2, 43872, Note_on_c, 0, 58, 0
2, 43899, Note_on_c, 0, 55, 80
2, 43899, Note_on_c, 0, 58, 80
2, 43899, Note_on_c, 0, 63, 80
2, 43901, Note_on_c, 0, 39, 80
2, 43903, Note_on_c, 0, 34, 0
2, 43915, Control_c, 0, 64, 127
2, 43924, Note_on_c, 0, 63, 0
2, 43926, Note_on_c, 0, 55, 0
2, 43926, Note_on_c, 0, 58, 0
2, 43988, Note_on_c, 0, 55, 80
2, 43988, Note_on_c, 0, 58, 80
2, 43988, Note_on_c, 0, 63, 80
2, 44034, Note_on_c, 0, 43, 80
2, 44038, Note_on_c, 0, 39, 0
2, 44045, Note_on_c, 0, 63, 0
2, 44045, Note_on_c, 0, 55, 0
2, 44045, Note_on_c, 0, 58, 0
2, 44112, Note_on_c, 0, 55, 80
2, 44112, Note_on_c, 0, 58, 80
2, 44112, Note_on_c, 0, 63, 80
2, 44166, Note_on_c, 0, 48, 80
2, 44170, Note_on_c, 0, 43, 0
2, 44194, Control_c, 0, 64, 0
2, 44254, Note_on_c, 0, 46, 80
2, 44257, Note_on_c, 0, 48, 0
2, 44293, Note_on_c, 0, 46, 0
2, 44301, Note_on_c, 0, 63, 0
2, 44301, Note_on_c, 0, 44, 80
2, 44303, Note_on_c, 0, 58, 0
2, 44303, Note_on_c, 0, 55, 0
2, 44384, Note_on_c, 0, 43, 80
2, 44390, Note_on_c, 0, 44, 0
2, 44422, Note_on_c, 0, 43, 0
2, 44429, Note_on_c, 0, 41, 80
2, 44429, Note_on_c, 0, 56, 80
2, 44517, Note_on_c, 0, 58, 80
2, 44520, Note_on_c, 0, 56, 0
2, 44552, Note_on_c, 0, 58, 0
2, 44558, Note_on_c, 0, 44, 80
2, 44558, Note_on_c, 0, 65, 80
2, 44562, Note_on_c, 0, 41, 0
2, 44643, Note_on_c, 0, 56, 80
2, 44645, Note_on_c, 0, 65, 0
2, 44679, Note_on_c, 0, 56, 0
2, 44685, Note_on_c, 0, 50, 80
2, 44685, Note_on_c, 0, 58, 80
2, 44690, Note_on_c, 0, 44, 0
2, 44772, Note_on_c, 0, 65, 80
2, 44776, Note_on_c, 0, 58, 0
2, 44808, Note_on_c, 0, 65, 0
2, 44813, Note_on_c, 0, 53, 80
2, 44813, Note_on_c, 0, 56, 80
2, 44819, Note_on_c, 0, 50, 0
2, 44899, Note_on_c, 0, 56, 0
2, 44904, Note_on_c, 0, 58, 80
2, 44921, Note_on_c, 0, 58, 0
2, 44949, Note_on_c, 0, 58, 80
2, 44949, Note_on_c, 0, 65, 80
2, 44951, Note_on_c, 0, 50, 80
2, 44951, Note_on_c, 0, 56, 80
2, 44954, Note_on_c, 0, 53, 0
2, 44962, Control_c, 0, 64, 127
2, 44974, Note_on_c, 0, 58, 0
2, 44974, Note_on_c, 0, 56, 0
2, 44974, Note_on_c, 0, 65, 0
2, 45037, Note_on_c, 0, 56, 80
2, 45037, Note_on_c, 0, 58, 80
2, 45037, Note_on_c, 0, 65, 80
2, 45085, Note_on_c, 0, 46, 80
2, 45089, Note_on_c, 0, 50, 0
2, 45111, Note_on_c, 0, 65, 0
2, 45111, Note_on_c, 0, 58, 0
2, 45113, Note_on_c, 0, 56, 0
2, 45137, Note_on_c, 0, 46, 0
2, 45165, Note_on_c, 0, 58, 80
2, 45165, Note_on_c, 0, 65, 80
2, 45167, Note_on_c, 0, 56, 80
2, 45220, Note_on_c, 0, 46, 80
2, 45312, Note_on_c, 0, 47, 80
2, 45315, Note_on_c, 0, 46, 0
2, 45317, Control_c, 0, 64, 0
2, 45349, Note_on_c, 0, 47, 0
2, 45353, Note_on_c, 0, 48, 80
2, 45442, Note_on_c, 0, 50, 80
2, 45444, Note_on_c, 0, 58, 0
2, 45444, Note_on_c, 0, 65, 0
2, 45446, Note_on_c, 0, 48, 0
2, 45446, Note_on_c, 0, 56, 0
2, 45481, Note_on_c, 0, 50, 0
2, 45489, Note_on_c, 0, 39, 80
2, 45489, Note_on_c, 0, 51, 80
2, 45489, Note_on_c, 0, 55, 80
2, 45489, Note_on_c, 0, 58, 80
2, 45489, Note_on_c, 0, 63, 80
2, 45556, Note_on_c, 0, 63, 0
2, 45556, Note_on_c, 0, 55, 0
2, 45556, Note_on_c, 0, 39, 0
2, 45556, Note_on_c, 0, 51, 0
2, 45556, Note_on_c, 0, 58, 0
2, 45620, Note_on_c, 0, 51, 80
2, 45620, Note_on_c, 0, 55, 80
2, 45642, Note_on_c, 0, 56, 80
2, 45644, Note_on_c, 0, 55, 0
2, 45644, Note_on_c, 0, 52, 80
2, 45646, Note_on_c, 0, 51, 0
2, 45666, Note_on_c, 0, 53, 80
2, 45666, Note_on_c, 0, 57, 80
2, 45670, Note_on_c, 0, 52, 0
2, 45670, Note_on_c, 0, 56, 0
2, 45688, Note_on_c, 0, 54, 80
2, 45688, Note_on_c, 0, 58, 80
2, 45690, Note_on_c, 0, 57, 0
2, 45692, Note_on_c, 0, 53, 0
2, 45712, Note_on_c, 0, 55, 80
2, 45712, Note_on_c, 0, 59, 80
2, 45714, Note_on_c, 0, 58, 0
2, 45716, Note_on_c, 0, 54, 0
2, 45732, Note_on_c, 0, 56, 80
2, 45732, Note_on_c, 0, 60, 80
2, 45736, Note_on_c, 0, 55, 0
2, 45736, Note_on_c, 0, 59, 0
2, 45754, Note_on_c, 0, 58, 80
2, 45756, Note_on_c, 0, 54, 80
2, 45758, Note_on_c, 0, 60, 0
2, 45760, Note_on_c, 0, 56, 0
2, 45790, Note_on_c, 0, 58, 0
2, 45790, Note_on_c, 0, 54, 0
2, 45797, Note_on_c, 0, 55, 80
2, 45797, Note_on_c, 0, 59, 80
2, 45833, Note_on_c, 0, 55, 0
2, 45842, Note_on_c, 0, 56, 80
2, 45842, Note_on_c, 0, 60, 80
2, 45844, Note_on_c, 0, 59, 0
2, 45878, Note_on_c, 0, 60, 0
2, 45880, Note_on_c, 0, 56, 0
2, 45886, Note_on_c, 0, 58, 80
2, 45886, Note_on_c, 0, 62, 80
2, 45923, Note_on_c, 0, 62, 0
2, 45923, Note_on_c, 0, 58, 0
2, 45929, Note_on_c, 0, 57, 80
2, 45929, Note_on_c, 0, 60, 80
2, 45962, Note_on_c, 0, 60, 0
2, 45964, Note_on_c, 0, 57, 0
2, 45968, Note_on_c, 0, 59, 80
2, 45970, Note_on_c, 0, 56, 80
2, 45996, Note_on_c, 0, 56, 0
2, 46006, Note_on_c, 0, 59, 0
2, 46013, Note_on_c, 0, 34, 80
2, 46013, Note_on_c, 0, 58, 80
2, 46061, Control_c, 0, 64, 127
2, 46083, Note_on_c, 0, 67, 80
2, 46143, Control_c, 0, 64, 0
2, 46204, Note_on_c, 0, 58, 0
2, 46206, Note_on_c, 0, 34, 0
2, 46228, Note_on_c, 0, 67, 0
2, 46236, Note_on_c, 0, 62, 80
2, 46272, Note_on_c, 0, 62, 0
2, 46279, Note_on_c, 0, 65, 80
2, 46367, Note_on_c, 0, 63, 80
2, 46370, Note_on_c, 0, 65, 0
2, 46406, Note_on_c, 0, 63, 0
2, 46412, Note_on_c, 0, 62, 80
2, 46505, Note_on_c, 0, 60, 80
2, 46509, Note_on_c, 0, 62, 0
2, 46538, Note_on_c, 0, 60, 0
2, 46546, Note_on_c, 0, 68, 80
2, 46548, Note_on_c, 0, 56, 80
2, 46550, Note_on_c, 0, 41, 80
2, 46582, Note_on_c, 0, 56, 0
2, 46633, Note_on_c, 0, 70, 80
2, 46637, Note_on_c, 0, 68, 0
2, 46673, Note_on_c, 0, 70, 0
2, 46677, Note_on_c, 0, 77, 80
2, 46679, Note_on_c, 0, 58, 80
2, 46679, Note_on_c, 0, 62, 80
2, 46679, Note_on_c, 0, 65, 80
2, 46680, Note_on_c, 0, 56, 80
2, 46716, Note_on_c, 0, 56, 0
2, 46716, Note_on_c, 0, 62, 0
2, 46716, Note_on_c, 0, 58, 0
2, 46716, Note_on_c, 0, 65, 0
2, 46718, Note_on_c, 0, 41, 0
2, 46761, Note_on_c, 0, 68, 80
2, 46765, Note_on_c, 0, 77, 0
2, 46797, Note_on_c, 0, 68, 0
2, 46804, Note_on_c, 0, 50, 80
2, 46804, Note_on_c, 0, 70, 80
2, 46806, Note_on_c, 0, 34, 80
2, 46840, Note_on_c, 0, 50, 0
2, 46890, Note_on_c, 0, 77, 80
2, 46894, Note_on_c, 0, 70, 0
2, 46925, Note_on_c, 0, 77, 0
2, 46933, Note_on_c, 0, 62, 80
2, 46933, Note_on_c, 0, 65, 80
2, 46933, Note_on_c, 0, 68, 80
2, 46935, Note_on_c, 0, 56, 80
2, 46935, Note_on_c, 0, 58, 80
2, 46967, Note_on_c, 0, 65, 0
2, 46968, Note_on_c, 0, 62, 0
2, 46968, Note_on_c, 0, 34, 0
2, 46968, Note_on_c, 0, 56, 0
2, 46968, Note_on_c, 0, 58, 0
2, 47012, Note_on_c, 0, 68, 0
2, 47019, Note_on_c, 0, 70, 80
2, 47033, Note_on_c, 0, 70, 0
2, 47061, Note_on_c, 0, 68, 80
2, 47061, Note_on_c, 0, 77, 80
2, 47063, Note_on_c, 0, 56, 80
2, 47063, Note_on_c, 0, 70, 80
2, 47064, Note_on_c, 0, 41, 80
2, 47087, Note_on_c, 0, 70, 0
2, 47087, Note_on_c, 0, 77, 0
2, 47087, Note_on_c, 0, 68, 0
2, 47098, Control_c, 0, 64, 127
2, 47100, Note_on_c, 0, 56, 0
2, 47136, Note_on_c, 0, 68, 80
2, 47136, Note_on_c, 0, 70, 80
2, 47136, Note_on_c, 0, 77, 80
2, 47189, Note_on_c, 0, 62, 80
2, 47189, Note_on_c, 0, 65, 80
2, 47191, Note_on_c, 0, 56, 80
2, 47191, Note_on_c, 0, 58, 80
2, 47213, Note_on_c, 0, 77, 0
2, 47215, Note_on_c, 0, 68, 0
2, 47227, Note_on_c, 0, 65, 0
2, 47227, Note_on_c, 0, 70, 0
2, 47227, Note_on_c, 0, 62, 0
2, 47227, Note_on_c, 0, 58, 0
2, 47227, Note_on_c, 0, 56, 0
2, 47229, Note_on_c, 0, 41, 0
2, 47268, Note_on_c, 0, 70, 80
2, 47268, Note_on_c, 0, 77, 80
2, 47270, Note_on_c, 0, 68, 80
2, 47324, Note_on_c, 0, 46, 80
2, 47326, Note_on_c, 0, 34, 80
2, 47352, Control_c, 0, 64, 0
2, 47411, Note_on_c, 0, 47, 80
2, 47413, Note_on_c, 0, 35, 80
2, 47415, Note_on_c, 0, 46, 0
2, 47417, Note_on_c, 0, 34, 0
2, 47448, Note_on_c, 0, 47, 0
2, 47450, Note_on_c, 0, 35, 0
2, 47456, Note_on_c, 0, 77, 0
2, 47456, Note_on_c, 0, 36, 80
2, 47456, Note_on_c, 0, 48, 80
2, 47458, Note_on_c, 0, 68, 0
2, 47458, Note_on_c, 0, 70, 0
2, 47544, Note_on_c, 0, 50, 80
2, 47545, Note_on_c, 0, 38, 80
2, 47549, Note_on_c, 0, 36, 0
2, 47549, Note_on_c, 0, 48, 0
2, 47581, Note_on_c, 0, 50, 0
2, 47581, Note_on_c, 0, 38, 0
2, 47587, Note_on_c, 0, 55, 80
2, 47587, Note_on_c, 0, 67, 80
2, 47589, Note_on_c, 0, 39, 80
2, 47626, Note_on_c, 0, 55, 0
2, 47678, Note_on_c, 0, 70, 80
2, 47682, Note_on_c, 0, 67, 0
2, 47713, Note_on_c, 0, 70, 0
2, 47719, Note_on_c, 0, 75, 80
2, 47723, Note_on_c, 0, 58, 80
2, 47723, Note_on_c, 0, 60, 80
2, 47723, Note_on_c, 0, 63, 80
2, 47725, Note_on_c, 0, 55, 80
2, 47759, Note_on_c, 0, 55, 0
2, 47759, Note_on_c, 0, 60, 0
2, 47759, Note_on_c, 0, 58, 0
2, 47759, Note_on_c, 0, 63, 0
2, 47760, Note_on_c, 0, 39, 0
2, 47810, Note_on_c, 0, 67, 80
2, 47812, Note_on_c, 0, 75, 0
2, 47850, Note_on_c, 0, 67, 0
2, 47857, Note_on_c, 0, 58, 80
2, 47857, Note_on_c, 0, 70, 80
2, 47861, Note_on_c, 0, 43, 80
2, 47895, Note_on_c, 0, 58, 0
2, 47945, Note_on_c, 0, 75, 80
2, 47951, Note_on_c, 0, 70, 0
2, 47980, Note_on_c, 0, 75, 0
2, 47990, Note_on_c, 0, 55, 80
2, 47990, Note_on_c, 0, 58, 80
2, 47990, Note_on_c, 0, 60, 80
2, 47990, Note_on_c, 0, 63, 80
2, 47990, Note_on_c, 0, 67, 80
2, 48027, Note_on_c, 0, 63, 0
2, 48027, Note_on_c, 0, 60, 0
2, 48027, Note_on_c, 0, 58, 0
2, 48027, Note_on_c, 0, 43, 0
2, 48027, Note_on_c, 0, 55, 0
2, 48071, Note_on_c, 0, 67, 0
2, 48078, Note_on_c, 0, 70, 80
2, 48095, Note_on_c, 0, 70, 0
2, 48119, Note_on_c, 0, 70, 80
2, 48119, Note_on_c, 0, 75, 80
2, 48120, Note_on_c, 0, 67, 80
2, 48122, Note_on_c, 0, 39, 80
2, 48122, Note_on_c, 0, 55, 80
2, 48144, Note_on_c, 0, 67, 0
2, 48144, Note_on_c, 0, 70, 0
2, 48144, Note_on_c, 0, 75, 0
2, 48156, Note_on_c, 0, 55, 0
2, 48168, Control_c, 0, 64, 127
2, 48195, Note_on_c, 0, 67, 80
2, 48195, Note_on_c, 0, 70, 80
2, 48195, Note_on_c, 0, 75, 80
2, 48253, Note_on_c, 0, 55, 80
2, 48253, Note_on_c, 0, 58, 80
2, 48253, Note_on_c, 0, 60, 80
2, 48253, Note_on_c, 0, 63, 80
2, 48275, Note_on_c, 0, 75, 0
2, 48275, Note_on_c, 0, 70, 0
2, 48275, Note_on_c, 0, 67, 0
2, 48281, Control_c, 0, 64, 0
2, 48287, Note_on_c, 0, 58, 0
2, 48287, Note_on_c, 0, 55, 0
2, 48287, Note_on_c, 0, 63, 0
2, 48287, Note_on_c, 0, 60, 0
2, 48290, Note_on_c, 0, 39, 0
2, 48324, Note_on_c, 0, 67, 80
2, 48324, Note_on_c, 0, 70, 80
2, 48324, Note_on_c, 0, 75, 80
2, 48330, Control_c, 0, 64, 127
2, 48378, Control_c, 0, 64, 0
2, 48380, Note_on_c, 0, 55, 80
2, 48382, Note_on_c, 0, 39, 80
2, 48449, Note_on_c, 0, 75, 0
2, 48449, Note_on_c, 0, 67, 0
2, 48449, Note_on_c, 0, 70, 0
2, 48514, Note_on_c, 0, 53, 80
2, 48518, Note_on_c, 0, 55, 0
2, 48518, Note_on_c, 0, 37, 80
2, 48520, Note_on_c, 0, 39, 0
2, 48647, Note_on_c, 0, 72, 80
2, 48648, Note_on_c, 0, 52, 80
2, 48650, Note_on_c, 0, 36, 80
2, 48654, Note_on_c, 0, 53, 0
2, 48656, Note_on_c, 0, 37, 0
2, 48684, Note_on_c, 0, 72, 0
2, 48688, Note_on_c, 0, 52, 0
2, 48690, Note_on_c, 0, 74, 80
2, 48733, Note_on_c, 0, 72, 80
2, 48737, Note_on_c, 0, 74, 0
2, 48778, Note_on_c, 0, 71, 80
2, 48780, Note_on_c, 0, 55, 80
2, 48780, Note_on_c, 0, 58, 80
2, 48780, Note_on_c, 0, 60, 80
2, 48780, Note_on_c, 0, 64, 80
2, 48782, Note_on_c, 0, 72, 0
2, 48816, Note_on_c, 0, 60, 0
2, 48816, Note_on_c, 0, 58, 0
2, 48816, Note_on_c, 0, 55, 0
2, 48816, Note_on_c, 0, 64, 0
2, 48817, Note_on_c, 0, 36, 0
2, 48867, Note_on_c, 0, 72, 80
2, 48871, Note_on_c, 0, 71, 0
2, 48905, Note_on_c, 0, 72, 0
2, 48911, Note_on_c, 0, 76, 80
2, 48914, Note_on_c, 0, 43, 80
2, 48914, Note_on_c, 0, 58, 80
2, 48960, Note_on_c, 0, 58, 0
2, 49000, Note_on_c, 0, 72, 80
2, 49002, Note_on_c, 0, 76, 0
2, 49035, Note_on_c, 0, 72, 0
2, 49041, Note_on_c, 0, 79, 80
2, 49045, Note_on_c, 0, 55, 80
2, 49049, Note_on_c, 0, 40, 80
2, 49051, Note_on_c, 0, 43, 0
2, 49092, Note_on_c, 0, 55, 0
2, 49129, Note_on_c, 0, 76, 80
2, 49133, Note_on_c, 0, 79, 0
2, 49165, Note_on_c, 0, 76, 0
2, 49169, Note_on_c, 0, 40, 0
2, 49171, Note_on_c, 0, 85, 80
2, 49175, Note_on_c, 0, 52, 80
2, 49178, Note_on_c, 0, 37, 80
2, 49190, Control_c, 0, 64, 127
2, 49246, Note_on_c, 0, 52, 0
2, 49305, Note_on_c, 0, 53, 80
2, 49307, Note_on_c, 0, 38, 80
2, 49311, Note_on_c, 0, 37, 0
2, 49348, Note_on_c, 0, 53, 0
2, 49367, Control_c, 0, 64, 0
2, 49387, Note_on_c, 0, 84, 80
2, 49391, Note_on_c, 0, 85, 0
2, 49424, Note_on_c, 0, 84, 0
2, 49432, Note_on_c, 0, 82, 80
2, 49438, Note_on_c, 0, 40, 80
2, 49438, Note_on_c, 0, 55, 80
2, 49441, Note_on_c, 0, 38, 0
2, 49458, Note_on_c, 0, 82, 0
2, 49465, Note_on_c, 0, 79, 80
2, 49484, Note_on_c, 0, 55, 0
2, 49491, Note_on_c, 0, 79, 0
2, 49497, Note_on_c, 0, 82, 80
2, 49529, Note_on_c, 0, 79, 80
2, 49533, Note_on_c, 0, 82, 0
2, 49562, Note_on_c, 0, 60, 80
2, 49562, Note_on_c, 0, 64, 80
2, 49562, Note_on_c, 0, 76, 80
2, 49564, Note_on_c, 0, 79, 0
2, 49564, Note_on_c, 0, 55, 80
2, 49564, Note_on_c, 0, 58, 80
2, 49598, Note_on_c, 0, 64, 0
2, 49598, Note_on_c, 0, 60, 0
2, 49600, Note_on_c, 0, 40, 0
2, 49600, Note_on_c, 0, 55, 0
2, 49600, Note_on_c, 0, 58, 0
2, 49628, Note_on_c, 0, 72, 80
2, 49630, Note_on_c, 0, 76, 0
2, 49676, Note_on_c, 0, 72, 0
2, 49678, Note_on_c, 0, 41, 80
2, 49691, Note_on_c, 0, 77, 80
2, 49695, Note_on_c, 0, 48, 80
2, 49695, Note_on_c, 0, 56, 80
2, 49727, Note_on_c, 0, 77, 0
2, 49736, Note_on_c, 0, 79, 80
2, 49742, Note_on_c, 0, 56, 0
2, 49744, Note_on_c, 0, 48, 0
2, 49781, Note_on_c, 0, 77, 80
2, 49783, Note_on_c, 0, 79, 0
2, 49829, Note_on_c, 0, 76, 80
2, 49831, Note_on_c, 0, 77, 0
2, 49831, Note_on_c, 0, 62, 80
2, 49831, Note_on_c, 0, 65, 80
2, 49833, Note_on_c, 0, 56, 80
2, 49833, Note_on_c, 0, 60, 80
2, 49867, Note_on_c, 0, 60, 0
2, 49867, Note_on_c, 0, 62, 0
2, 49867, Note_on_c, 0, 65, 0
2, 49869, Note_on_c, 0, 56, 0
2, 49871, Note_on_c, 0, 41, 0
2, 49912, Note_on_c, 0, 77, 80
2, 49920, Note_on_c, 0, 76, 0
2, 49951, Note_on_c, 0, 77, 0
2, 49961, Note_on_c, 0, 84, 80
2, 49965, Note_on_c, 0, 52, 80
2, 49967, Note_on_c, 0, 36, 80
2, 50015, Note_on_c, 0, 52, 0
2, 50054, Note_on_c, 0, 79, 80
2, 50067, Note_on_c, 0, 84, 0
2, 50089, Note_on_c, 0, 79, 0
2, 50097, Note_on_c, 0, 82, 80
2, 50101, Note_on_c, 0, 55, 80
2, 50103, Note_on_c, 0, 40, 80
2, 50107, Note_on_c, 0, 36, 0
2, 50146, Note_on_c, 0, 55, 0
2, 50184, Note_on_c, 0, 80, 80
2, 50187, Note_on_c, 0, 82, 0
2, 50221, Note_on_c, 0, 80, 0
2, 50231, Note_on_c, 0, 72, 80
2, 50232, Note_on_c, 0, 56, 80
2, 50234, Note_on_c, 0, 41, 80
2, 50238, Note_on_c, 0, 40, 0
2, 50248, Control_c, 0, 64, 127
2, 50280, Note_on_c, 0, 56, 0
2, 50291, Note_on_c, 0, 87, 80
2, 50297, Note_on_c, 0, 72, 0
2, 50356, Control_c, 0, 64, 0
2, 50360, Note_on_c, 0, 56, 80
2, 50360, Note_on_c, 0, 60, 80
2, 50360, Note_on_c, 0, 62, 80
2, 50360, Note_on_c, 0, 65, 80
2, 50396, Note_on_c, 0, 65, 0
2, 50396, Note_on_c, 0, 60, 0
2, 50396, Note_on_c, 0, 62, 0
2, 50398, Note_on_c, 0, 56, 0
2, 50400, Note_on_c, 0, 41, 0
2, 50424, Note_on_c, 0, 81, 80
2, 50425, Note_on_c, 0, 87, 0
2, 50487, Note_on_c, 0, 86, 80
2, 50489, Note_on_c, 0, 74, 80
2, 50491, Note_on_c, 0, 81, 0
2, 50491, Note_on_c, 0, 57, 80
2, 50495, Note_on_c, 0, 42, 80
2, 50495, Note_on_c, 0, 51, 80
2, 50560, Note_on_c, 0, 51, 0
2, 50621, Note_on_c, 0, 72, 80
2, 50621, Note_on_c, 0, 84, 80
2, 50623, Note_on_c, 0, 86, 0
2, 50623, Note_on_c, 0, 54, 80
2, 50625, Note_on_c, 0, 74, 0
2, 50625, Note_on_c, 0, 38, 80
2, 50625, Note_on_c, 0, 45, 80
2, 50627, Note_on_c, 0, 57, 0
2, 50629, Note_on_c, 0, 42, 0
2, 50694, Note_on_c, 0, 45, 0
2, 50734, Note_on_c, 0, 39, 80
2, 50736, Note_on_c, 0, 54, 0
2, 50737, Note_on_c, 0, 38, 0
2, 50749, Note_on_c, 0, 82, 80
2, 50751, Note_on_c, 0, 70, 80
2, 50755, Note_on_c, 0, 84, 0
2, 50755, Note_on_c, 0, 55, 80
2, 50757, Note_on_c, 0, 72, 0
2, 50840, Note_on_c, 0, 79, 80
2, 50844, Note_on_c, 0, 82, 0
2, 50846, Note_on_c, 0, 70, 0
2, 50887, Note_on_c, 0, 74, 80
2, 50889, Note_on_c, 0, 79, 0
2, 50889, Note_on_c, 0, 56, 80
2, 50891, Note_on_c, 0, 41, 80
2, 50893, Note_on_c, 0, 55, 0
2, 50895, Note_on_c, 0, 39, 0
2, 50958, Note_on_c, 0, 56, 0
2, 50976, Note_on_c, 0, 77, 80
2, 50978, Note_on_c, 0, 74, 0
2, 51020, Note_on_c, 0, 75, 80
2, 51024, Note_on_c, 0, 77, 0
2, 51024, Note_on_c, 0, 51, 80
2, 51024, Note_on_c, 0, 57, 80
2, 51025, Note_on_c, 0, 42, 80
2, 51027, Note_on_c, 0, 41, 0
2, 51091, Note_on_c, 0, 57, 0
2, 51091, Note_on_c, 0, 51, 0
2, 51104, Note_on_c, 0, 69, 80
2, 51108, Note_on_c, 0, 75, 0
2, 51147, Note_on_c, 0, 74, 80
2, 51149, Note_on_c, 0, 54, 80
2, 51149, Note_on_c, 0, 60, 80
2, 51151, Note_on_c, 0, 69, 0
2, 51151, Note_on_c, 0, 45, 80
2, 51155, Note_on_c, 0, 42, 0
2, 51218, Note_on_c, 0, 60, 0
2, 51222, Note_on_c, 0, 54, 0
2, 51236, Note_on_c, 0, 72, 80
2, 51240, Note_on_c, 0, 74, 0
2, 51281, Note_on_c, 0, 70, 80
2, 51283, Note_on_c, 0, 72, 0
2, 51283, Note_on_c, 0, 41, 80
2, 51283, Note_on_c, 0, 56, 80
2, 51287, Note_on_c, 0, 45, 0
2, 51328, Note_on_c, 0, 56, 0
2, 51367, Note_on_c, 0, 69, 80
2, 51369, Note_on_c, 0, 70, 0
2, 51410, Note_on_c, 0, 68, 80
2, 51412, Note_on_c, 0, 69, 0
2, 51412, Note_on_c, 0, 56, 80
2, 51412, Note_on_c, 0, 58, 80
2, 51412, Note_on_c, 0, 62, 80
2, 51456, Note_on_c, 0, 62, 0
2, 51457, Note_on_c, 0, 56, 0
2, 51457, Note_on_c, 0, 58, 0
2, 51459, Note_on_c, 0, 41, 0
2, 51495, Note_on_c, 0, 65, 80
2, 51499, Note_on_c, 0, 68, 0
2, 51540, Note_on_c, 0, 60, 80
2, 51542, Note_on_c, 0, 50, 80
2, 51544, Note_on_c, 0, 65, 0
2, 51544, Note_on_c, 0, 34, 80
2, 51585, Note_on_c, 0, 61, 80
2, 51589, Note_on_c, 0, 50, 0
2, 51589, Note_on_c, 0, 60, 0
2, 51630, Note_on_c, 0, 62, 80
2, 51634, Note_on_c, 0, 61, 0
2, 51672, Note_on_c, 0, 55, 80
2, 51672, Note_on_c, 0, 56, 80
2, 51672, Note_on_c, 0, 59, 80
2, 51672, Note_on_c, 0, 67, 80
2, 51688, Note_on_c, 0, 34, 0
2, 51718, Control_c, 0, 64, 127
2, 51755, Note_on_c, 0, 65, 80
2, 51757, Note_on_c, 0, 67, 0
2, 51768, Note_on_c, 0, 62, 0
2, 51780, Note_on_c, 0, 59, 0
2, 51790, Note_on_c, 0, 56, 0
2, 51797, Note_on_c, 0, 58, 80
2, 51797, Note_on_c, 0, 60, 80
2, 51797, Note_on_c, 0, 63, 80
2, 51799, Note_on_c, 0, 65, 0
2, 51799, Note_on_c, 0, 51, 80
2, 51801, Note_on_c, 0, 39, 80
2, 51864, Note_on_c, 0, 60, 0
2, 51864, Note_on_c, 0, 63, 0
2, 51866, Note_on_c, 0, 51, 0
2, 51866, Note_on_c, 0, 55, 0
2, 51866, Note_on_c, 0, 58, 0
2, 51868, Note_on_c, 0, 39, 0
2, 51892, Control_c, 0, 64, 0
2, 51926, Note_on_c, 0, 70, 80
2, 51928, Note_on_c, 0, 51, 80
2, 51928, Note_on_c, 0, 61, 80
2, 52013, Note_on_c, 0, 75, 80
2, 52017, Note_on_c, 0, 70, 0
2, 52019, Note_on_c, 0, 61, 0
2, 52056, Note_on_c, 0, 69, 80
2, 52058, Note_on_c, 0, 60, 80
2, 52060, Note_on_c, 0, 75, 0
2, 52144, Note_on_c, 0, 75, 80
2, 52150, Note_on_c, 0, 60, 0
2, 52150, Note_on_c, 0, 69, 0
2, 52193, Note_on_c, 0, 59, 80
2, 52193, Note_on_c, 0, 68, 80
2, 52195, Note_on_c, 0, 75, 0
2, 52278, Note_on_c, 0, 75, 80
2, 52284, Note_on_c, 0, 68, 0
2, 52284, Note_on_c, 0, 59, 0
2, 52306, Control_c, 0, 64, 127
2, 52322, Note_on_c, 0, 67, 80
2, 52322, Note_on_c, 0, 70, 80
2, 52324, Note_on_c, 0, 58, 80
2, 52390, Note_on_c, 0, 70, 0
2, 52390, Note_on_c, 0, 67, 0
2, 52390, Note_on_c, 0, 75, 0
2, 52392, Note_on_c, 0, 58, 0
2, 52393, Note_on_c, 0, 51, 0
2, 52455, Control_c, 0, 64, 0
2, 52457, Note_on_c, 0, 63, 80
2, 52477, Note_on_c, 0, 70, 80
2, 52499, Note_on_c, 0, 72, 80
2, 52521, Note_on_c, 0, 75, 80
2, 52545, Note_on_c, 0, 79, 80
2, 52565, Note_on_c, 0, 82, 80
2, 52589, Note_on_c, 0, 84, 80
2, 52589, Note_on_c, 0, 87, 80
2, 52593, Note_on_c, 0, 39, 80
2, 52636, Control_c, 0, 64, 127
2, 52648, Control_c, 0, 64, 0
2, 52755, Control_c, 0, 64, 127
2, 52807, Note_on_c, 0, 87, 0
2, 52807, Note_on_c, 0, 84, 0
2, 52807, Note_on_c, 0, 75, 0
2, 52807, Note_on_c, 0, 79, 0
2, 52807, Note_on_c, 0, 82, 0
2, 52811, Note_on_c, 0, 72, 0
2, 52811, Note_on_c, 0, 63, 0
2, 52811, Note_on_c, 0, 70, 0
2, 52813, Note_on_c, 0, 39, 0
2, 52837, Control_c, 0, 64, 0
2, 53116, Control_c, 0, 64, 127
2, 53130, Control_c, 0, 64, 0
2, 53130, End_track
3, 0, Start_track
3, 0, Title_t, "c/b ""Jelly Roll"" Morton"
3, 0, End_track
4, 0, Start_track
4, 0, Title_t, "p/b Hi Babit"
4, 0, End_track
5, 0, Start_track
5, 0, Title_t, "QRS # 9900"
5, 0, End_track
6, 0, Start_track
6, 0, Title_t, "Scan of a player piano roll"
6, 0, End_track
7, 0, Start_track
7, 0, Title_t, "by Terry Smythe, Winnipeg, Canada"
7, 0, End_track
8, 0, Start_track
8, 1, Copyright_t, "___________________________________________________\012\012KUNSTDERFUGE.COM LARGE CLASSICAL MIDI COLLECTION\012ONCLASSICAL BY ALESSANDRO SIMONETTO, PROPRIETOR\012___________________________________________________\012\012! Attention: this file is under copyright !\012\012(c)onclassical, (nc)smythe, 2010\012___________________________________________________\012\012NO ONE MAY REPUBLISH THIS FILE WITHOUT PERMISSION\012COMMERCIAL USES OF THIS FILE IS STRICTLY PROHIBITED\012___________________________________________________\012\012Files & contributor's list: http://kunstderfuge.com/\012Terms and conditions: http://kunstderfuge.com/notes.htm"
8, 1, End_track
0, 0, End_of_file
