0, 0, Header, 1, 8, 120
1, 0, Start_track
1, 0, Title_t, "untitled"
1, 0, Text_t, "Terry Smythe"
1, 0, Time_signature, 4, 2, 24, 8
1, 0, Key_signature, 0, "major"
1, 0, Tempo, 500000
1, 0, End_track
2, 0, Start_track
2, 0, Title_t, "The Cascades, a Rag (1904)"
2, 120, Note_on_c, 0, 55, 80
2, 121, Note_on_c, 0, 43, 80
2, 130, Note_on_c, 0, 67, 80
2, 158, Note_on_c, 0, 43, 0
2, 159, Note_on_c, 0, 67, 0
2, 161, Note_on_c, 0, 55, 0
2, 191, Note_on_c, 0, 55, 80
2, 200, Note_on_c, 0, 43, 80
2, 201, Note_on_c, 0, 67, 80
2, 325, Note_on_c, 0, 43, 0
2, 330, Note_on_c, 0, 67, 0
2, 330, Note_on_c, 0, 55, 0
2, 331, Note_on_c, 0, 45, 80
2, 331, Note_on_c, 0, 57, 80
2, 345, Note_on_c, 0, 69, 80
2, 400, Note_on_c, 0, 45, 0
2, 401, Note_on_c, 0, 69, 0
2, 402, Note_on_c, 0, 57, 0
2, 402, Note_on_c, 0, 47, 80
2, 406, Note_on_c, 0, 59, 80
2, 414, Note_on_c, 0, 71, 80
2, 443, Note_on_c, 0, 71, 0
2, 446, Note_on_c, 0, 47, 0
2, 447, Note_on_c, 0, 59, 0
2, 478, Note_on_c, 0, 47, 80
2, 479, Note_on_c, 0, 59, 80
2, 486, Note_on_c, 0, 71, 80
2, 612, Note_on_c, 0, 71, 0
2, 615, Note_on_c, 0, 59, 0
2, 617, Note_on_c, 0, 47, 0
2, 621, Note_on_c, 0, 53, 80
2, 621, Note_on_c, 0, 65, 80
2, 628, Note_on_c, 0, 77, 80
2, 682, Note_on_c, 0, 53, 0
2, 683, Note_on_c, 0, 65, 0
2, 688, Note_on_c, 0, 77, 0
2, 692, Note_on_c, 0, 52, 80
2, 693, Note_on_c, 0, 64, 80
2, 703, Note_on_c, 0, 76, 80
2, 833, Note_on_c, 0, 64, 0
2, 833, Note_on_c, 0, 52, 0
2, 834, Note_on_c, 0, 76, 0
2, 837, Note_on_c, 0, 50, 80
2, 837, Note_on_c, 0, 62, 80
2, 850, Note_on_c, 0, 74, 80
2, 966, Note_on_c, 0, 74, 0
2, 971, Note_on_c, 0, 62, 0
2, 971, Note_on_c, 0, 50, 0
2, 981, Note_on_c, 0, 43, 80
2, 981, Note_on_c, 0, 67, 80
2, 981, Note_on_c, 0, 71, 80
2, 986, Note_on_c, 0, 55, 80
2, 991, Note_on_c, 0, 79, 80
2, 1030, Note_on_c, 0, 71, 0
2, 1037, Note_on_c, 0, 79, 0
2, 1037, Note_on_c, 0, 67, 0
2, 1040, Note_on_c, 0, 43, 0
2, 1040, Note_on_c, 0, 55, 0
2, 1056, Note_on_c, 0, 66, 80
2, 1087, Note_on_c, 0, 66, 0
2, 1091, Note_on_c, 0, 67, 80
2, 1130, Note_on_c, 0, 67, 0
2, 1131, Note_on_c, 0, 69, 80
2, 1165, Note_on_c, 0, 71, 80
2, 1170, Note_on_c, 0, 69, 0
2, 1194, Note_on_c, 0, 71, 0
2, 1201, Note_on_c, 0, 72, 80
2, 1235, Note_on_c, 0, 74, 80
2, 1242, Note_on_c, 0, 72, 0
2, 1263, Note_on_c, 0, 48, 80
2, 1271, Note_on_c, 0, 60, 80
2, 1272, Note_on_c, 0, 76, 80
2, 1274, Note_on_c, 0, 74, 0
2, 1300, Note_on_c, 0, 76, 0
2, 1307, Note_on_c, 0, 75, 80
2, 1312, Note_on_c, 0, 60, 0
2, 1335, Note_on_c, 0, 55, 80
2, 1336, Note_on_c, 0, 75, 0
2, 1341, Note_on_c, 0, 60, 80
2, 1342, Note_on_c, 0, 76, 80
2, 1350, Note_on_c, 0, 64, 80
2, 1355, Note_on_c, 0, 48, 0
2, 1373, Note_on_c, 0, 76, 0
2, 1378, Note_on_c, 0, 77, 80
2, 1382, Note_on_c, 0, 64, 0
2, 1387, Note_on_c, 0, 60, 0
2, 1389, Note_on_c, 0, 55, 0
2, 1405, Note_on_c, 0, 79, 80
2, 1412, Note_on_c, 0, 52, 80
2, 1413, Note_on_c, 0, 64, 80
2, 1415, Note_on_c, 0, 77, 0
2, 1444, Note_on_c, 0, 79, 0
2, 1447, Note_on_c, 0, 81, 80
2, 1477, Note_on_c, 0, 64, 0
2, 1478, Note_on_c, 0, 52, 0
2, 1481, Note_on_c, 0, 51, 80
2, 1483, Note_on_c, 0, 81, 0
2, 1483, Note_on_c, 0, 63, 80
2, 1483, Note_on_c, 0, 84, 80
2, 1518, Note_on_c, 0, 81, 80
2, 1521, Note_on_c, 0, 84, 0
2, 1551, Note_on_c, 0, 51, 0
2, 1551, Note_on_c, 0, 63, 0
2, 1554, Note_on_c, 0, 62, 80
2, 1555, Note_on_c, 0, 83, 80
2, 1556, Note_on_c, 0, 50, 80
2, 1557, Note_on_c, 0, 81, 0
2, 1586, Note_on_c, 0, 83, 0
2, 1592, Note_on_c, 0, 84, 80
2, 1626, Note_on_c, 0, 59, 80
2, 1626, Note_on_c, 0, 86, 80
2, 1629, Note_on_c, 0, 55, 80
2, 1630, Note_on_c, 0, 84, 0
2, 1631, Note_on_c, 0, 50, 0
2, 1634, Note_on_c, 0, 62, 0
2, 1637, Note_on_c, 0, 65, 80
2, 1661, Note_on_c, 0, 77, 80
2, 1664, Note_on_c, 0, 86, 0
2, 1665, Note_on_c, 0, 55, 0
2, 1687, Note_on_c, 0, 59, 0
2, 1691, Note_on_c, 0, 65, 0
2, 1699, Note_on_c, 0, 43, 80
2, 1699, Note_on_c, 0, 55, 80
2, 1700, Note_on_c, 0, 81, 80
2, 1702, Note_on_c, 0, 77, 0
2, 1735, Note_on_c, 0, 79, 80
2, 1739, Note_on_c, 0, 81, 0
2, 1740, Note_on_c, 0, 55, 0
2, 1765, Note_on_c, 0, 74, 80
2, 1770, Note_on_c, 0, 55, 80
2, 1774, Note_on_c, 0, 59, 80
2, 1775, Note_on_c, 0, 79, 0
2, 1780, Note_on_c, 0, 65, 80
2, 1793, Note_on_c, 0, 43, 0
2, 1801, Note_on_c, 0, 74, 0
2, 1805, Note_on_c, 0, 75, 80
2, 1828, Note_on_c, 0, 59, 0
2, 1829, Note_on_c, 0, 55, 0
2, 1830, Note_on_c, 0, 75, 0
2, 1831, Note_on_c, 0, 65, 0
2, 1831, Note_on_c, 0, 76, 80
2, 1838, Note_on_c, 0, 60, 80
2, 1845, Note_on_c, 0, 48, 80
2, 1875, Note_on_c, 0, 76, 0
2, 1879, Note_on_c, 0, 60, 0
2, 1880, Note_on_c, 0, 75, 80
2, 1911, Note_on_c, 0, 75, 0
2, 1915, Note_on_c, 0, 60, 80
2, 1916, Note_on_c, 0, 48, 0
2, 1916, Note_on_c, 0, 76, 80
2, 1917, Note_on_c, 0, 55, 80
2, 1927, Note_on_c, 0, 64, 80
2, 1945, Note_on_c, 0, 76, 0
2, 1949, Note_on_c, 0, 77, 80
2, 1950, Note_on_c, 0, 60, 0
2, 1955, Note_on_c, 0, 64, 0
2, 1964, Note_on_c, 0, 55, 0
2, 1985, Note_on_c, 0, 52, 80
2, 1986, Note_on_c, 0, 79, 80
2, 1988, Note_on_c, 0, 64, 80
2, 1991, Note_on_c, 0, 77, 0
2, 2020, Note_on_c, 0, 81, 80
2, 2025, Note_on_c, 0, 79, 0
2, 2053, Note_on_c, 0, 52, 0
2, 2053, Note_on_c, 0, 51, 80
2, 2054, Note_on_c, 0, 64, 0
2, 2055, Note_on_c, 0, 63, 80
2, 2056, Note_on_c, 0, 84, 80
2, 2060, Note_on_c, 0, 81, 0
2, 2094, Note_on_c, 0, 81, 80
2, 2095, Note_on_c, 0, 84, 0
2, 2121, Note_on_c, 0, 51, 0
2, 2122, Note_on_c, 0, 63, 0
2, 2126, Note_on_c, 0, 50, 80
2, 2126, Note_on_c, 0, 62, 80
2, 2126, Note_on_c, 0, 83, 80
2, 2130, Note_on_c, 0, 81, 0
2, 2160, Note_on_c, 0, 83, 0
2, 2160, Note_on_c, 0, 84, 80
2, 2197, Note_on_c, 0, 86, 80
2, 2198, Note_on_c, 0, 55, 80
2, 2200, Note_on_c, 0, 50, 0
2, 2200, Note_on_c, 0, 59, 80
2, 2201, Note_on_c, 0, 84, 0
2, 2204, Note_on_c, 0, 62, 0
2, 2205, Note_on_c, 0, 65, 80
2, 2234, Note_on_c, 0, 86, 0
2, 2234, Note_on_c, 0, 77, 80
2, 2235, Note_on_c, 0, 55, 0
2, 2247, Note_on_c, 0, 59, 0
2, 2250, Note_on_c, 0, 65, 0
2, 2268, Note_on_c, 0, 43, 80
2, 2268, Note_on_c, 0, 81, 80
2, 2271, Note_on_c, 0, 55, 80
2, 2274, Note_on_c, 0, 77, 0
2, 2305, Note_on_c, 0, 81, 0
2, 2305, Note_on_c, 0, 79, 80
2, 2309, Note_on_c, 0, 55, 0
2, 2331, Note_on_c, 0, 79, 0
2, 2339, Note_on_c, 0, 55, 80
2, 2339, Note_on_c, 0, 59, 80
2, 2342, Note_on_c, 0, 74, 80
2, 2348, Note_on_c, 0, 65, 80
2, 2362, Note_on_c, 0, 43, 0
2, 2374, Note_on_c, 0, 76, 80
2, 2380, Note_on_c, 0, 74, 0
2, 2387, Note_on_c, 0, 59, 0
2, 2390, Note_on_c, 0, 55, 0
2, 2393, Note_on_c, 0, 65, 0
2, 2407, Note_on_c, 0, 76, 0
2, 2410, Note_on_c, 0, 56, 80
2, 2412, Note_on_c, 0, 77, 80
2, 2447, Note_on_c, 0, 74, 80
2, 2450, Note_on_c, 0, 59, 80
2, 2453, Note_on_c, 0, 77, 0
2, 2456, Note_on_c, 0, 56, 0
2, 2486, Note_on_c, 0, 71, 80
2, 2488, Note_on_c, 0, 59, 0
2, 2488, Note_on_c, 0, 62, 80
2, 2490, Note_on_c, 0, 74, 0
2, 2520, Note_on_c, 0, 65, 80
2, 2522, Note_on_c, 0, 71, 0
2, 2523, Note_on_c, 0, 68, 80
2, 2526, Note_on_c, 0, 62, 0
2, 2552, Note_on_c, 0, 60, 80
2, 2556, Note_on_c, 0, 65, 0
2, 2558, Note_on_c, 0, 64, 80
2, 2562, Note_on_c, 0, 68, 0
2, 2567, Note_on_c, 0, 69, 80
2, 2606, Note_on_c, 0, 64, 0
2, 2613, Note_on_c, 0, 60, 0
2, 2615, Note_on_c, 0, 69, 0
2, 2703, Note_on_c, 0, 56, 80
2, 2703, Note_on_c, 0, 77, 80
2, 2740, Note_on_c, 0, 59, 80
2, 2741, Note_on_c, 0, 74, 80
2, 2744, Note_on_c, 0, 77, 0
2, 2744, Note_on_c, 0, 56, 0
2, 2774, Note_on_c, 0, 62, 80
2, 2775, Note_on_c, 0, 71, 80
2, 2779, Note_on_c, 0, 74, 0
2, 2780, Note_on_c, 0, 59, 0
2, 2809, Note_on_c, 0, 65, 80
2, 2809, Note_on_c, 0, 68, 80
2, 2814, Note_on_c, 0, 71, 0
2, 2816, Note_on_c, 0, 62, 0
2, 2842, Note_on_c, 0, 60, 80
2, 2847, Note_on_c, 0, 65, 0
2, 2847, Note_on_c, 0, 64, 80
2, 2852, Note_on_c, 0, 68, 0
2, 2857, Note_on_c, 0, 69, 80
2, 2895, Note_on_c, 0, 64, 0
2, 2902, Note_on_c, 0, 60, 0
2, 2907, Note_on_c, 0, 69, 0
2, 2991, Note_on_c, 0, 36, 80
2, 2993, Note_on_c, 0, 45, 80
2, 3027, Note_on_c, 0, 48, 80
2, 3028, Note_on_c, 0, 39, 80
2, 3033, Note_on_c, 0, 45, 0
2, 3038, Note_on_c, 0, 36, 0
2, 3062, Note_on_c, 0, 51, 80
2, 3063, Note_on_c, 0, 42, 80
2, 3066, Note_on_c, 0, 48, 0
2, 3077, Note_on_c, 0, 39, 0
2, 3100, Note_on_c, 0, 45, 80
2, 3100, Note_on_c, 0, 54, 80
2, 3104, Note_on_c, 0, 51, 0
2, 3111, Note_on_c, 0, 42, 0
2, 3136, Note_on_c, 0, 57, 80
2, 3140, Note_on_c, 0, 48, 80
2, 3143, Note_on_c, 0, 54, 0
2, 3149, Note_on_c, 0, 45, 0
2, 3171, Note_on_c, 0, 60, 80
2, 3172, Note_on_c, 0, 51, 80
2, 3180, Note_on_c, 0, 57, 0
2, 3185, Note_on_c, 0, 48, 0
2, 3208, Note_on_c, 0, 54, 80
2, 3208, Note_on_c, 0, 63, 80
2, 3217, Note_on_c, 0, 60, 0
2, 3221, Note_on_c, 0, 51, 0
2, 3241, Note_on_c, 0, 63, 0
2, 3244, Note_on_c, 0, 66, 80
2, 3245, Note_on_c, 0, 57, 80
2, 3256, Note_on_c, 0, 54, 0
2, 3278, Note_on_c, 0, 60, 80
2, 3278, Note_on_c, 0, 69, 80
2, 3283, Note_on_c, 0, 66, 0
2, 3296, Note_on_c, 0, 57, 0
2, 3315, Note_on_c, 0, 63, 80
2, 3315, Note_on_c, 0, 72, 80
2, 3319, Note_on_c, 0, 69, 0
2, 3326, Note_on_c, 0, 60, 0
2, 3354, Note_on_c, 0, 72, 0
2, 3354, Note_on_c, 0, 66, 80
2, 3354, Note_on_c, 0, 75, 80
2, 3365, Note_on_c, 0, 63, 0
2, 3387, Note_on_c, 0, 69, 80
2, 3390, Note_on_c, 0, 75, 0
2, 3390, Note_on_c, 0, 78, 80
2, 3399, Note_on_c, 0, 66, 0
2, 3421, Note_on_c, 0, 81, 80
2, 3424, Note_on_c, 0, 78, 0
2, 3424, Note_on_c, 0, 72, 80
2, 3436, Note_on_c, 0, 69, 0
2, 3458, Note_on_c, 0, 84, 80
2, 3459, Note_on_c, 0, 75, 80
2, 3463, Note_on_c, 0, 81, 0
2, 3472, Note_on_c, 0, 72, 0
2, 3491, Note_on_c, 0, 87, 80
2, 3494, Note_on_c, 0, 78, 80
2, 3499, Note_on_c, 0, 84, 0
2, 3506, Note_on_c, 0, 75, 0
2, 3520, Note_on_c, 0, 90, 80
2, 3529, Note_on_c, 0, 81, 80
2, 3530, Note_on_c, 0, 87, 0
2, 3543, Note_on_c, 0, 78, 0
2, 3557, Note_on_c, 0, 81, 0
2, 3564, Note_on_c, 0, 80, 80
2, 3564, Note_on_c, 0, 87, 80
2, 3564, Note_on_c, 0, 92, 80
2, 3565, Note_on_c, 0, 84, 80
2, 3569, Note_on_c, 0, 90, 0
2, 3604, Note_on_c, 0, 84, 0
2, 3604, Note_on_c, 0, 87, 0
2, 3630, Note_on_c, 0, 92, 0
2, 3636, Note_on_c, 0, 75, 80
2, 3636, Note_on_c, 0, 84, 80
2, 3636, Note_on_c, 0, 87, 80
2, 3636, Note_on_c, 0, 90, 80
2, 3639, Note_on_c, 0, 80, 0
2, 3646, Note_on_c, 0, 87, 0
2, 3646, Note_on_c, 0, 90, 0
2, 3646, Note_on_c, 0, 84, 0
2, 3671, Note_on_c, 0, 84, 80
2, 3671, Note_on_c, 0, 87, 80
2, 3680, Note_on_c, 0, 90, 80
2, 3705, Note_on_c, 0, 75, 0
2, 3709, Note_on_c, 0, 87, 0
2, 3709, Note_on_c, 0, 72, 80
2, 3712, Note_on_c, 0, 84, 0
2, 3713, Note_on_c, 0, 90, 0
2, 3745, Note_on_c, 0, 84, 80
2, 3745, Note_on_c, 0, 87, 80
2, 3745, Note_on_c, 0, 90, 80
2, 3756, Note_on_c, 0, 87, 0
2, 3759, Note_on_c, 0, 90, 0
2, 3759, Note_on_c, 0, 84, 0
2, 3783, Note_on_c, 0, 84, 80
2, 3783, Note_on_c, 0, 87, 80
2, 3784, Note_on_c, 0, 68, 80
2, 3785, Note_on_c, 0, 72, 0
2, 3791, Note_on_c, 0, 90, 80
2, 3819, Note_on_c, 0, 84, 0
2, 3819, Note_on_c, 0, 87, 0
2, 3823, Note_on_c, 0, 90, 0
2, 3848, Note_on_c, 0, 68, 0
2, 3853, Note_on_c, 0, 88, 80
2, 3855, Note_on_c, 0, 67, 80
2, 3855, Note_on_c, 0, 84, 80
2, 3860, Note_on_c, 0, 91, 80
2, 3928, Note_on_c, 0, 72, 80
2, 3933, Note_on_c, 0, 76, 80
2, 3953, Note_on_c, 0, 84, 0
2, 3957, Note_on_c, 0, 88, 0
2, 3961, Note_on_c, 0, 91, 0
2, 3979, Note_on_c, 0, 72, 0
2, 3979, Note_on_c, 0, 76, 0
2, 3988, Note_on_c, 0, 67, 0
2, 3993, Note_on_c, 0, 91, 80
2, 3996, Note_on_c, 0, 64, 80
2, 4030, Note_on_c, 0, 91, 0
2, 4030, Note_on_c, 0, 88, 80
2, 4064, Note_on_c, 0, 67, 80
2, 4065, Note_on_c, 0, 72, 80
2, 4065, Note_on_c, 0, 84, 80
2, 4066, Note_on_c, 0, 88, 0
2, 4073, Note_on_c, 0, 76, 80
2, 4101, Note_on_c, 0, 79, 80
2, 4102, Note_on_c, 0, 72, 0
2, 4105, Note_on_c, 0, 84, 0
2, 4113, Note_on_c, 0, 67, 0
2, 4121, Note_on_c, 0, 76, 0
2, 4132, Note_on_c, 0, 79, 0
2, 4136, Note_on_c, 0, 62, 80
2, 4137, Note_on_c, 0, 72, 80
2, 4137, Note_on_c, 0, 78, 80
2, 4143, Note_on_c, 0, 64, 0
2, 4144, Note_on_c, 0, 81, 80
2, 4210, Note_on_c, 0, 69, 80
2, 4211, Note_on_c, 0, 62, 0
2, 4246, Note_on_c, 0, 72, 0
2, 4264, Note_on_c, 0, 78, 0
2, 4264, Note_on_c, 0, 81, 0
2, 4264, Note_on_c, 0, 69, 0
2, 4276, Note_on_c, 0, 71, 80
2, 4278, Note_on_c, 0, 67, 80
2, 4278, Note_on_c, 0, 77, 80
2, 4278, Note_on_c, 0, 86, 80
2, 4287, Note_on_c, 0, 86, 0
2, 4295, Note_on_c, 0, 77, 0
2, 4315, Note_on_c, 0, 77, 80
2, 4315, Note_on_c, 0, 86, 80
2, 4357, Note_on_c, 0, 77, 0
2, 4381, Note_on_c, 0, 86, 0
2, 4389, Note_on_c, 0, 79, 80
2, 4390, Note_on_c, 0, 71, 0
2, 4390, Note_on_c, 0, 77, 80
2, 4391, Note_on_c, 0, 67, 0
2, 4423, Note_on_c, 0, 67, 80
2, 4425, Note_on_c, 0, 60, 80
2, 4426, Note_on_c, 0, 72, 80
2, 4426, Note_on_c, 0, 76, 80
2, 4427, Note_on_c, 0, 77, 0
2, 4428, Note_on_c, 0, 79, 0
2, 4433, Note_on_c, 0, 84, 80
2, 4461, Note_on_c, 0, 60, 0
2, 4462, Note_on_c, 0, 72, 0
2, 4462, Note_on_c, 0, 67, 0
2, 4462, Note_on_c, 0, 76, 0
2, 4462, Note_on_c, 0, 84, 0
2, 4495, Note_on_c, 0, 72, 80
2, 4535, Note_on_c, 0, 74, 80
2, 4536, Note_on_c, 0, 72, 0
2, 4569, Note_on_c, 0, 76, 80
2, 4573, Note_on_c, 0, 74, 0
2, 4606, Note_on_c, 0, 77, 80
2, 4612, Note_on_c, 0, 76, 0
2, 4638, Note_on_c, 0, 77, 0
2, 4646, Note_on_c, 0, 78, 80
2, 4680, Note_on_c, 0, 79, 80
2, 4685, Note_on_c, 0, 78, 0
2, 4714, Note_on_c, 0, 75, 80
2, 4717, Note_on_c, 0, 72, 80
2, 4720, Note_on_c, 0, 79, 0
2, 4720, Note_on_c, 0, 68, 80
2, 4725, Note_on_c, 0, 80, 80
2, 4754, Note_on_c, 0, 80, 0
2, 4755, Note_on_c, 0, 75, 0
2, 4755, Note_on_c, 0, 72, 0
2, 4787, Note_on_c, 0, 72, 80
2, 4787, Note_on_c, 0, 75, 80
2, 4787, Note_on_c, 0, 78, 80
2, 4788, Note_on_c, 0, 63, 80
2, 4791, Note_on_c, 0, 68, 0
2, 4800, Note_on_c, 0, 78, 0
2, 4801, Note_on_c, 0, 72, 0
2, 4801, Note_on_c, 0, 75, 0
2, 4823, Note_on_c, 0, 72, 80
2, 4825, Note_on_c, 0, 75, 80
2, 4833, Note_on_c, 0, 78, 80
2, 4859, Note_on_c, 0, 60, 80
2, 4863, Note_on_c, 0, 72, 0
2, 4863, Note_on_c, 0, 63, 0
2, 4864, Note_on_c, 0, 78, 0
2, 4864, Note_on_c, 0, 75, 0
2, 4896, Note_on_c, 0, 78, 80
2, 4897, Note_on_c, 0, 72, 80
2, 4897, Note_on_c, 0, 75, 80
2, 4906, Note_on_c, 0, 75, 0
2, 4906, Note_on_c, 0, 72, 0
2, 4907, Note_on_c, 0, 78, 0
2, 4931, Note_on_c, 0, 72, 80
2, 4931, Note_on_c, 0, 75, 80
2, 4933, Note_on_c, 0, 56, 80
2, 4937, Note_on_c, 0, 60, 0
2, 4938, Note_on_c, 0, 78, 80
2, 4966, Note_on_c, 0, 78, 0
2, 4966, Note_on_c, 0, 75, 0
2, 4969, Note_on_c, 0, 72, 0
2, 5002, Note_on_c, 0, 56, 0
2, 5003, Note_on_c, 0, 76, 80
2, 5006, Note_on_c, 0, 55, 80
2, 5006, Note_on_c, 0, 72, 80
2, 5016, Note_on_c, 0, 79, 80
2, 5073, Note_on_c, 0, 60, 80
2, 5078, Note_on_c, 0, 64, 80
2, 5104, Note_on_c, 0, 72, 0
2, 5113, Note_on_c, 0, 76, 0
2, 5115, Note_on_c, 0, 79, 0
2, 5130, Note_on_c, 0, 55, 0
2, 5130, Note_on_c, 0, 60, 0
2, 5134, Note_on_c, 0, 64, 0
2, 5147, Note_on_c, 0, 79, 80
2, 5148, Note_on_c, 0, 52, 80
2, 5179, Note_on_c, 0, 76, 80
2, 5185, Note_on_c, 0, 79, 0
2, 5215, Note_on_c, 0, 55, 80
2, 5215, Note_on_c, 0, 60, 80
2, 5215, Note_on_c, 0, 72, 80
2, 5222, Note_on_c, 0, 76, 0
2, 5226, Note_on_c, 0, 64, 80
2, 5253, Note_on_c, 0, 67, 80
2, 5254, Note_on_c, 0, 60, 0
2, 5255, Note_on_c, 0, 72, 0
2, 5264, Note_on_c, 0, 55, 0
2, 5273, Note_on_c, 0, 64, 0
2, 5282, Note_on_c, 0, 67, 0
2, 5282, Note_on_c, 0, 52, 0
2, 5286, Note_on_c, 0, 50, 80
2, 5286, Note_on_c, 0, 60, 80
2, 5287, Note_on_c, 0, 66, 80
2, 5298, Note_on_c, 0, 69, 80
2, 5357, Note_on_c, 0, 57, 80
2, 5367, Note_on_c, 0, 50, 0
2, 5397, Note_on_c, 0, 66, 0
2, 5407, Note_on_c, 0, 60, 0
2, 5408, Note_on_c, 0, 69, 0
2, 5429, Note_on_c, 0, 57, 0
2, 5430, Note_on_c, 0, 55, 80
2, 5431, Note_on_c, 0, 59, 80
2, 5431, Note_on_c, 0, 65, 80
2, 5431, Note_on_c, 0, 74, 80
2, 5442, Note_on_c, 0, 74, 0
2, 5447, Note_on_c, 0, 65, 0
2, 5467, Note_on_c, 0, 65, 80
2, 5467, Note_on_c, 0, 74, 80
2, 5501, Note_on_c, 0, 65, 0
2, 5534, Note_on_c, 0, 74, 0
2, 5538, Note_on_c, 0, 65, 80
2, 5538, Note_on_c, 0, 67, 80
2, 5544, Note_on_c, 0, 55, 0
2, 5545, Note_on_c, 0, 59, 0
2, 5573, Note_on_c, 0, 55, 80
2, 5573, Note_on_c, 0, 60, 80
2, 5576, Note_on_c, 0, 67, 0
2, 5576, Note_on_c, 0, 48, 80
2, 5576, Note_on_c, 0, 64, 80
2, 5583, Note_on_c, 0, 65, 0
2, 5585, Note_on_c, 0, 72, 80
2, 5612, Note_on_c, 0, 60, 0
2, 5613, Note_on_c, 0, 48, 0
2, 5616, Note_on_c, 0, 72, 0
2, 5617, Note_on_c, 0, 55, 0
2, 5617, Note_on_c, 0, 64, 0
2, 5650, Note_on_c, 0, 66, 80
2, 5683, Note_on_c, 0, 67, 80
2, 5688, Note_on_c, 0, 66, 0
2, 5721, Note_on_c, 0, 69, 80
2, 5724, Note_on_c, 0, 67, 0
2, 5755, Note_on_c, 0, 71, 80
2, 5760, Note_on_c, 0, 69, 0
2, 5793, Note_on_c, 0, 72, 80
2, 5797, Note_on_c, 0, 71, 0
2, 5830, Note_on_c, 0, 72, 0
2, 5830, Note_on_c, 0, 74, 80
2, 5861, Note_on_c, 0, 60, 80
2, 5863, Note_on_c, 0, 48, 80
2, 5863, Note_on_c, 0, 76, 80
2, 5866, Note_on_c, 0, 74, 0
2, 5899, Note_on_c, 0, 75, 80
2, 5903, Note_on_c, 0, 76, 0
2, 5904, Note_on_c, 0, 60, 0
2, 5933, Note_on_c, 0, 75, 0
2, 5934, Note_on_c, 0, 55, 80
2, 5934, Note_on_c, 0, 60, 80
2, 5935, Note_on_c, 0, 76, 80
2, 5943, Note_on_c, 0, 64, 80
2, 5946, Note_on_c, 0, 48, 0
2, 5967, Note_on_c, 0, 77, 80
2, 5970, Note_on_c, 0, 76, 0
2, 5971, Note_on_c, 0, 64, 0
2, 5983, Note_on_c, 0, 55, 0
2, 5983, Note_on_c, 0, 60, 0
2, 6003, Note_on_c, 0, 52, 80
2, 6006, Note_on_c, 0, 64, 80
2, 6006, Note_on_c, 0, 79, 80
2, 6010, Note_on_c, 0, 77, 0
2, 6042, Note_on_c, 0, 81, 80
2, 6044, Note_on_c, 0, 79, 0
2, 6061, Note_on_c, 0, 52, 0
2, 6070, Note_on_c, 0, 64, 0
2, 6073, Note_on_c, 0, 51, 80
2, 6074, Note_on_c, 0, 63, 80
2, 6077, Note_on_c, 0, 84, 80
2, 6080, Note_on_c, 0, 81, 0
2, 6106, Note_on_c, 0, 81, 80
2, 6114, Note_on_c, 0, 84, 0
2, 6139, Note_on_c, 0, 51, 0
2, 6143, Note_on_c, 0, 63, 0
2, 6145, Note_on_c, 0, 83, 80
2, 6147, Note_on_c, 0, 50, 80
2, 6147, Note_on_c, 0, 62, 80
2, 6150, Note_on_c, 0, 81, 0
2, 6177, Note_on_c, 0, 83, 0
2, 6180, Note_on_c, 0, 84, 80
2, 6218, Note_on_c, 0, 86, 80
2, 6219, Note_on_c, 0, 55, 80
2, 6223, Note_on_c, 0, 50, 0
2, 6223, Note_on_c, 0, 59, 80
2, 6224, Note_on_c, 0, 62, 0
2, 6224, Note_on_c, 0, 84, 0
2, 6225, Note_on_c, 0, 65, 80
2, 6255, Note_on_c, 0, 86, 0
2, 6255, Note_on_c, 0, 77, 80
2, 6256, Note_on_c, 0, 55, 0
2, 6276, Note_on_c, 0, 59, 0
2, 6279, Note_on_c, 0, 65, 0
2, 6288, Note_on_c, 0, 55, 80
2, 6291, Note_on_c, 0, 43, 80
2, 6291, Note_on_c, 0, 81, 80
2, 6293, Note_on_c, 0, 77, 0
2, 6325, Note_on_c, 0, 79, 80
2, 6327, Note_on_c, 0, 81, 0
2, 6331, Note_on_c, 0, 55, 0
2, 6365, Note_on_c, 0, 55, 80
2, 6365, Note_on_c, 0, 59, 80
2, 6365, Note_on_c, 0, 74, 80
2, 6368, Note_on_c, 0, 79, 0
2, 6373, Note_on_c, 0, 65, 80
2, 6382, Note_on_c, 0, 43, 0
2, 6398, Note_on_c, 0, 75, 80
2, 6403, Note_on_c, 0, 74, 0
2, 6421, Note_on_c, 0, 55, 0
2, 6422, Note_on_c, 0, 59, 0
2, 6427, Note_on_c, 0, 65, 0
2, 6430, Note_on_c, 0, 75, 0
2, 6431, Note_on_c, 0, 60, 80
2, 6435, Note_on_c, 0, 48, 80
2, 6436, Note_on_c, 0, 76, 80
2, 6471, Note_on_c, 0, 75, 80
2, 6472, Note_on_c, 0, 76, 0
2, 6476, Note_on_c, 0, 60, 0
2, 6504, Note_on_c, 0, 75, 0
2, 6504, Note_on_c, 0, 60, 80
2, 6506, Note_on_c, 0, 55, 80
2, 6508, Note_on_c, 0, 48, 0
2, 6509, Note_on_c, 0, 76, 80
2, 6519, Note_on_c, 0, 64, 80
2, 6545, Note_on_c, 0, 77, 80
2, 6547, Note_on_c, 0, 76, 0
2, 6547, Note_on_c, 0, 60, 0
2, 6550, Note_on_c, 0, 64, 0
2, 6557, Note_on_c, 0, 55, 0
2, 6583, Note_on_c, 0, 52, 80
2, 6583, Note_on_c, 0, 64, 80
2, 6583, Note_on_c, 0, 79, 80
2, 6587, Note_on_c, 0, 77, 0
2, 6618, Note_on_c, 0, 81, 80
2, 6621, Note_on_c, 0, 79, 0
2, 6649, Note_on_c, 0, 52, 0
2, 6651, Note_on_c, 0, 64, 0
2, 6651, Note_on_c, 0, 51, 80
2, 6651, Note_on_c, 0, 63, 80
2, 6653, Note_on_c, 0, 84, 80
2, 6658, Note_on_c, 0, 81, 0
2, 6687, Note_on_c, 0, 81, 80
2, 6692, Note_on_c, 0, 84, 0
2, 6717, Note_on_c, 0, 51, 0
2, 6717, Note_on_c, 0, 63, 0
2, 6722, Note_on_c, 0, 50, 80
2, 6722, Note_on_c, 0, 62, 80
2, 6723, Note_on_c, 0, 83, 80
2, 6728, Note_on_c, 0, 81, 0
2, 6761, Note_on_c, 0, 84, 80
2, 6766, Note_on_c, 0, 83, 0
2, 6796, Note_on_c, 0, 59, 80
2, 6797, Note_on_c, 0, 55, 80
2, 6797, Note_on_c, 0, 86, 80
2, 6801, Note_on_c, 0, 50, 0
2, 6803, Note_on_c, 0, 84, 0
2, 6803, Note_on_c, 0, 62, 0
2, 6804, Note_on_c, 0, 65, 80
2, 6833, Note_on_c, 0, 86, 0
2, 6833, Note_on_c, 0, 77, 80
2, 6835, Note_on_c, 0, 55, 0
2, 6847, Note_on_c, 0, 59, 0
2, 6848, Note_on_c, 0, 65, 0
2, 6866, Note_on_c, 0, 43, 80
2, 6866, Note_on_c, 0, 55, 80
2, 6866, Note_on_c, 0, 81, 80
2, 6870, Note_on_c, 0, 77, 0
2, 6903, Note_on_c, 0, 79, 80
2, 6907, Note_on_c, 0, 81, 0
2, 6909, Note_on_c, 0, 55, 0
2, 6935, Note_on_c, 0, 79, 0
2, 6939, Note_on_c, 0, 55, 80
2, 6939, Note_on_c, 0, 59, 80
2, 6940, Note_on_c, 0, 74, 80
2, 6950, Note_on_c, 0, 65, 80
2, 6958, Note_on_c, 0, 43, 0
2, 6976, Note_on_c, 0, 76, 80
2, 6977, Note_on_c, 0, 74, 0
2, 6986, Note_on_c, 0, 55, 0
2, 6986, Note_on_c, 0, 59, 0
2, 6991, Note_on_c, 0, 65, 0
2, 7011, Note_on_c, 0, 77, 80
2, 7014, Note_on_c, 0, 56, 80
2, 7015, Note_on_c, 0, 76, 0
2, 7039, Note_on_c, 0, 74, 80
2, 7047, Note_on_c, 0, 77, 0
2, 7047, Note_on_c, 0, 59, 80
2, 7048, Note_on_c, 0, 56, 0
2, 7083, Note_on_c, 0, 62, 80
2, 7083, Note_on_c, 0, 71, 80
2, 7087, Note_on_c, 0, 74, 0
2, 7088, Note_on_c, 0, 59, 0
2, 7120, Note_on_c, 0, 65, 80
2, 7120, Note_on_c, 0, 68, 80
2, 7121, Note_on_c, 0, 71, 0
2, 7124, Note_on_c, 0, 62, 0
2, 7153, Note_on_c, 0, 60, 80
2, 7153, Note_on_c, 0, 64, 80
2, 7159, Note_on_c, 0, 68, 0
2, 7163, Note_on_c, 0, 65, 0
2, 7165, Note_on_c, 0, 69, 80
2, 7203, Note_on_c, 0, 64, 0
2, 7211, Note_on_c, 0, 69, 0
2, 7211, Note_on_c, 0, 60, 0
2, 7298, Note_on_c, 0, 56, 80
2, 7298, Note_on_c, 0, 77, 80
2, 7335, Note_on_c, 0, 59, 80
2, 7336, Note_on_c, 0, 74, 80
2, 7337, Note_on_c, 0, 77, 0
2, 7340, Note_on_c, 0, 56, 0
2, 7369, Note_on_c, 0, 62, 80
2, 7369, Note_on_c, 0, 71, 80
2, 7372, Note_on_c, 0, 74, 0
2, 7373, Note_on_c, 0, 59, 0
2, 7404, Note_on_c, 0, 65, 80
2, 7404, Note_on_c, 0, 68, 80
2, 7407, Note_on_c, 0, 71, 0
2, 7412, Note_on_c, 0, 62, 0
2, 7440, Note_on_c, 0, 60, 80
2, 7443, Note_on_c, 0, 64, 80
2, 7445, Note_on_c, 0, 68, 0
2, 7451, Note_on_c, 0, 69, 80
2, 7452, Note_on_c, 0, 65, 0
2, 7489, Note_on_c, 0, 64, 0
2, 7498, Note_on_c, 0, 60, 0
2, 7502, Note_on_c, 0, 69, 0
2, 7588, Note_on_c, 0, 36, 80
2, 7591, Note_on_c, 0, 45, 80
2, 7621, Note_on_c, 0, 39, 80
2, 7621, Note_on_c, 0, 48, 80
2, 7627, Note_on_c, 0, 45, 0
2, 7643, Note_on_c, 0, 36, 0
2, 7660, Note_on_c, 0, 48, 0
2, 7660, Note_on_c, 0, 42, 80
2, 7660, Note_on_c, 0, 51, 80
2, 7675, Note_on_c, 0, 39, 0
2, 7693, Note_on_c, 0, 45, 80
2, 7693, Note_on_c, 0, 54, 80
2, 7694, Note_on_c, 0, 51, 0
2, 7703, Note_on_c, 0, 42, 0
2, 7732, Note_on_c, 0, 48, 80
2, 7732, Note_on_c, 0, 57, 80
2, 7736, Note_on_c, 0, 54, 0
2, 7741, Note_on_c, 0, 45, 0
2, 7763, Note_on_c, 0, 60, 80
2, 7766, Note_on_c, 0, 51, 80
2, 7770, Note_on_c, 0, 57, 0
2, 7778, Note_on_c, 0, 48, 0
2, 7799, Note_on_c, 0, 63, 80
2, 7803, Note_on_c, 0, 54, 80
2, 7805, Note_on_c, 0, 60, 0
2, 7813, Note_on_c, 0, 51, 0
2, 7837, Note_on_c, 0, 66, 80
2, 7838, Note_on_c, 0, 57, 80
2, 7841, Note_on_c, 0, 63, 0
2, 7846, Note_on_c, 0, 54, 0
2, 7869, Note_on_c, 0, 60, 80
2, 7873, Note_on_c, 0, 69, 80
2, 7876, Note_on_c, 0, 66, 0
2, 7886, Note_on_c, 0, 57, 0
2, 7906, Note_on_c, 0, 63, 80
2, 7906, Note_on_c, 0, 72, 80
2, 7912, Note_on_c, 0, 69, 0
2, 7917, Note_on_c, 0, 60, 0
2, 7941, Note_on_c, 0, 66, 80
2, 7941, Note_on_c, 0, 75, 80
2, 7946, Note_on_c, 0, 72, 0
2, 7955, Note_on_c, 0, 63, 0
2, 7979, Note_on_c, 0, 75, 0
2, 7979, Note_on_c, 0, 69, 80
2, 7979, Note_on_c, 0, 78, 80
2, 7989, Note_on_c, 0, 66, 0
2, 8011, Note_on_c, 0, 72, 80
2, 8011, Note_on_c, 0, 81, 80
2, 8015, Note_on_c, 0, 78, 0
2, 8025, Note_on_c, 0, 69, 0
2, 8047, Note_on_c, 0, 84, 80
2, 8051, Note_on_c, 0, 81, 0
2, 8051, Note_on_c, 0, 75, 80
2, 8059, Note_on_c, 0, 72, 0
2, 8083, Note_on_c, 0, 78, 80
2, 8083, Note_on_c, 0, 87, 80
2, 8088, Note_on_c, 0, 84, 0
2, 8096, Note_on_c, 0, 75, 0
2, 8118, Note_on_c, 0, 81, 80
2, 8119, Note_on_c, 0, 87, 0
2, 8120, Note_on_c, 0, 90, 80
2, 8129, Note_on_c, 0, 78, 0
2, 8147, Note_on_c, 0, 81, 0
2, 8155, Note_on_c, 0, 80, 80
2, 8155, Note_on_c, 0, 84, 80
2, 8155, Note_on_c, 0, 87, 80
2, 8158, Note_on_c, 0, 90, 0
2, 8163, Note_on_c, 0, 92, 80
2, 8193, Note_on_c, 0, 87, 0
2, 8193, Note_on_c, 0, 84, 0
2, 8217, Note_on_c, 0, 92, 0
2, 8223, Note_on_c, 0, 87, 80
2, 8224, Note_on_c, 0, 90, 80
2, 8227, Note_on_c, 0, 75, 80
2, 8227, Note_on_c, 0, 84, 80
2, 8229, Note_on_c, 0, 80, 0
2, 8234, Note_on_c, 0, 87, 0
2, 8237, Note_on_c, 0, 90, 0
2, 8238, Note_on_c, 0, 84, 0
2, 8259, Note_on_c, 0, 84, 80
2, 8263, Note_on_c, 0, 87, 80
2, 8270, Note_on_c, 0, 90, 80
2, 8300, Note_on_c, 0, 84, 0
2, 8300, Note_on_c, 0, 72, 80
2, 8301, Note_on_c, 0, 90, 0
2, 8302, Note_on_c, 0, 75, 0
2, 8302, Note_on_c, 0, 87, 0
2, 8335, Note_on_c, 0, 87, 80
2, 8335, Note_on_c, 0, 90, 80
2, 8336, Note_on_c, 0, 84, 80
2, 8345, Note_on_c, 0, 84, 0
2, 8346, Note_on_c, 0, 90, 0
2, 8346, Note_on_c, 0, 87, 0
2, 8367, Note_on_c, 0, 84, 80
2, 8367, Note_on_c, 0, 87, 80
2, 8373, Note_on_c, 0, 68, 80
2, 8374, Note_on_c, 0, 72, 0
2, 8377, Note_on_c, 0, 90, 80
2, 8416, Note_on_c, 0, 90, 0
2, 8416, Note_on_c, 0, 87, 0
2, 8420, Note_on_c, 0, 84, 0
2, 8449, Note_on_c, 0, 68, 0
2, 8453, Note_on_c, 0, 67, 80
2, 8453, Note_on_c, 0, 84, 80
2, 8453, Note_on_c, 0, 88, 80
2, 8461, Note_on_c, 0, 91, 80
2, 8525, Note_on_c, 0, 72, 80
2, 8535, Note_on_c, 0, 76, 80
2, 8553, Note_on_c, 0, 91, 0
2, 8553, Note_on_c, 0, 88, 0
2, 8559, Note_on_c, 0, 84, 0
2, 8580, Note_on_c, 0, 72, 0
2, 8584, Note_on_c, 0, 76, 0
2, 8593, Note_on_c, 0, 67, 0
2, 8594, Note_on_c, 0, 91, 80
2, 8601, Note_on_c, 0, 64, 80
2, 8632, Note_on_c, 0, 88, 80
2, 8635, Note_on_c, 0, 91, 0
2, 8667, Note_on_c, 0, 84, 80
2, 8670, Note_on_c, 0, 88, 0
2, 8670, Note_on_c, 0, 67, 80
2, 8670, Note_on_c, 0, 72, 80
2, 8679, Note_on_c, 0, 76, 80
2, 8710, Note_on_c, 0, 79, 80
2, 8711, Note_on_c, 0, 72, 0
2, 8711, Note_on_c, 0, 84, 0
2, 8719, Note_on_c, 0, 67, 0
2, 8728, Note_on_c, 0, 76, 0
2, 8736, Note_on_c, 0, 79, 0
2, 8740, Note_on_c, 0, 62, 80
2, 8744, Note_on_c, 0, 72, 80
2, 8744, Note_on_c, 0, 78, 80
2, 8745, Note_on_c, 0, 64, 0
2, 8748, Note_on_c, 0, 81, 80
2, 8816, Note_on_c, 0, 69, 80
2, 8818, Note_on_c, 0, 62, 0
2, 8852, Note_on_c, 0, 72, 0
2, 8872, Note_on_c, 0, 78, 0
2, 8872, Note_on_c, 0, 81, 0
2, 8872, Note_on_c, 0, 69, 0
2, 8883, Note_on_c, 0, 71, 80
2, 8885, Note_on_c, 0, 67, 80
2, 8885, Note_on_c, 0, 77, 80
2, 8886, Note_on_c, 0, 86, 80
2, 8895, Note_on_c, 0, 86, 0
2, 8897, Note_on_c, 0, 77, 0
2, 8921, Note_on_c, 0, 77, 80
2, 8921, Note_on_c, 0, 86, 80
2, 8962, Note_on_c, 0, 77, 0
2, 8987, Note_on_c, 0, 86, 0
2, 8992, Note_on_c, 0, 77, 80
2, 8995, Note_on_c, 0, 79, 80
2, 8996, Note_on_c, 0, 71, 0
2, 8999, Note_on_c, 0, 67, 0
2, 9030, Note_on_c, 0, 60, 80
2, 9030, Note_on_c, 0, 67, 80
2, 9030, Note_on_c, 0, 72, 80
2, 9030, Note_on_c, 0, 76, 80
2, 9033, Note_on_c, 0, 77, 0
2, 9033, Note_on_c, 0, 79, 0
2, 9041, Note_on_c, 0, 84, 80
2, 9065, Note_on_c, 0, 84, 0
2, 9066, Note_on_c, 0, 67, 0
2, 9066, Note_on_c, 0, 72, 0
2, 9070, Note_on_c, 0, 76, 0
2, 9071, Note_on_c, 0, 60, 0
2, 9101, Note_on_c, 0, 72, 80
2, 9138, Note_on_c, 0, 74, 80
2, 9141, Note_on_c, 0, 72, 0
2, 9173, Note_on_c, 0, 76, 80
2, 9179, Note_on_c, 0, 74, 0
2, 9209, Note_on_c, 0, 77, 80
2, 9213, Note_on_c, 0, 76, 0
2, 9243, Note_on_c, 0, 77, 0
2, 9244, Note_on_c, 0, 78, 80
2, 9283, Note_on_c, 0, 79, 80
2, 9284, Note_on_c, 0, 78, 0
2, 9315, Note_on_c, 0, 79, 0
2, 9319, Note_on_c, 0, 68, 80
2, 9319, Note_on_c, 0, 72, 80
2, 9319, Note_on_c, 0, 75, 80
2, 9325, Note_on_c, 0, 80, 80
2, 9355, Note_on_c, 0, 75, 0
2, 9355, Note_on_c, 0, 72, 0
2, 9356, Note_on_c, 0, 80, 0
2, 9387, Note_on_c, 0, 72, 80
2, 9387, Note_on_c, 0, 75, 80
2, 9387, Note_on_c, 0, 78, 80
2, 9388, Note_on_c, 0, 63, 80
2, 9394, Note_on_c, 0, 68, 0
2, 9400, Note_on_c, 0, 78, 0
2, 9401, Note_on_c, 0, 72, 0
2, 9401, Note_on_c, 0, 75, 0
2, 9425, Note_on_c, 0, 72, 80
2, 9425, Note_on_c, 0, 75, 80
2, 9436, Note_on_c, 0, 78, 80
2, 9462, Note_on_c, 0, 60, 80
2, 9466, Note_on_c, 0, 63, 0
2, 9467, Note_on_c, 0, 78, 0
2, 9467, Note_on_c, 0, 72, 0
2, 9467, Note_on_c, 0, 75, 0
2, 9497, Note_on_c, 0, 78, 80
2, 9500, Note_on_c, 0, 72, 80
2, 9500, Note_on_c, 0, 75, 80
2, 9508, Note_on_c, 0, 75, 0
2, 9508, Note_on_c, 0, 72, 0
2, 9508, Note_on_c, 0, 78, 0
2, 9534, Note_on_c, 0, 56, 80
2, 9534, Note_on_c, 0, 72, 80
2, 9534, Note_on_c, 0, 75, 80
2, 9535, Note_on_c, 0, 60, 0
2, 9545, Note_on_c, 0, 78, 80
2, 9574, Note_on_c, 0, 78, 0
2, 9574, Note_on_c, 0, 75, 0
2, 9574, Note_on_c, 0, 72, 0
2, 9602, Note_on_c, 0, 56, 0
2, 9605, Note_on_c, 0, 55, 80
2, 9606, Note_on_c, 0, 72, 80
2, 9606, Note_on_c, 0, 76, 80
2, 9615, Note_on_c, 0, 79, 80
2, 9676, Note_on_c, 0, 60, 80
2, 9676, Note_on_c, 0, 64, 80
2, 9705, Note_on_c, 0, 72, 0
2, 9714, Note_on_c, 0, 79, 0
2, 9717, Note_on_c, 0, 76, 0
2, 9730, Note_on_c, 0, 60, 0
2, 9731, Note_on_c, 0, 55, 0
2, 9736, Note_on_c, 0, 64, 0
2, 9748, Note_on_c, 0, 52, 80
2, 9749, Note_on_c, 0, 79, 80
2, 9781, Note_on_c, 0, 76, 80
2, 9789, Note_on_c, 0, 79, 0
2, 9815, Note_on_c, 0, 60, 80
2, 9818, Note_on_c, 0, 55, 80
2, 9818, Note_on_c, 0, 72, 80
2, 9820, Note_on_c, 0, 76, 0
2, 9830, Note_on_c, 0, 64, 80
2, 9853, Note_on_c, 0, 67, 80
2, 9854, Note_on_c, 0, 72, 0
2, 9856, Note_on_c, 0, 60, 0
2, 9864, Note_on_c, 0, 55, 0
2, 9876, Note_on_c, 0, 64, 0
2, 9881, Note_on_c, 0, 67, 0
2, 9882, Note_on_c, 0, 52, 0
2, 9883, Note_on_c, 0, 60, 80
2, 9888, Note_on_c, 0, 50, 80
2, 9889, Note_on_c, 0, 66, 80
2, 9900, Note_on_c, 0, 69, 80
2, 9959, Note_on_c, 0, 57, 80
2, 9965, Note_on_c, 0, 50, 0
2, 9998, Note_on_c, 0, 66, 0
2, 10005, Note_on_c, 0, 60, 0
2, 10009, Note_on_c, 0, 69, 0
2, 10028, Note_on_c, 0, 57, 0
2, 10028, Note_on_c, 0, 65, 80
2, 10029, Note_on_c, 0, 74, 80
2, 10031, Note_on_c, 0, 55, 80
2, 10031, Note_on_c, 0, 59, 80
2, 10043, Note_on_c, 0, 74, 0
2, 10047, Note_on_c, 0, 65, 0
2, 10057, Note_on_c, 0, 74, 80
2, 10064, Note_on_c, 0, 65, 80
2, 10102, Note_on_c, 0, 65, 0
2, 10136, Note_on_c, 0, 74, 0
2, 10140, Note_on_c, 0, 65, 80
2, 10140, Note_on_c, 0, 67, 80
2, 10142, Note_on_c, 0, 55, 0
2, 10145, Note_on_c, 0, 59, 0
2, 10166, Note_on_c, 0, 55, 80
2, 10171, Note_on_c, 0, 60, 80
2, 10175, Note_on_c, 0, 48, 80
2, 10178, Note_on_c, 0, 64, 80
2, 10179, Note_on_c, 0, 67, 0
2, 10182, Note_on_c, 0, 72, 80
2, 10183, Note_on_c, 0, 65, 0
2, 10214, Note_on_c, 0, 48, 0
2, 10215, Note_on_c, 0, 60, 0
2, 10216, Note_on_c, 0, 64, 0
2, 10216, Note_on_c, 0, 72, 0
2, 10217, Note_on_c, 0, 55, 0
2, 10251, Note_on_c, 0, 79, 80
2, 10259, Note_on_c, 0, 79, 0
2, 10286, Note_on_c, 0, 79, 80
2, 10299, Note_on_c, 0, 79, 0
2, 10320, Note_on_c, 0, 79, 80
2, 10361, Note_on_c, 0, 79, 0
2, 10391, Note_on_c, 0, 49, 80
2, 10391, Note_on_c, 0, 61, 80
2, 10393, Note_on_c, 0, 79, 80
2, 10426, Note_on_c, 0, 79, 0
2, 10453, Note_on_c, 0, 61, 0
2, 10453, Note_on_c, 0, 49, 0
2, 10462, Note_on_c, 0, 79, 80
2, 10466, Note_on_c, 0, 83, 80
2, 10467, Note_on_c, 0, 50, 80
2, 10467, Note_on_c, 0, 62, 80
2, 10475, Note_on_c, 0, 91, 80
2, 10504, Note_on_c, 0, 89, 80
2, 10505, Note_on_c, 0, 79, 0
2, 10509, Note_on_c, 0, 83, 0
2, 10514, Note_on_c, 0, 91, 0
2, 10540, Note_on_c, 0, 55, 80
2, 10540, Note_on_c, 0, 59, 80
2, 10540, Note_on_c, 0, 86, 80
2, 10545, Note_on_c, 0, 62, 0
2, 10548, Note_on_c, 0, 65, 80
2, 10552, Note_on_c, 0, 89, 0
2, 10571, Note_on_c, 0, 50, 0
2, 10576, Note_on_c, 0, 83, 80
2, 10581, Note_on_c, 0, 55, 0
2, 10589, Note_on_c, 0, 86, 0
2, 10598, Note_on_c, 0, 59, 0
2, 10601, Note_on_c, 0, 65, 0
2, 10609, Note_on_c, 0, 43, 80
2, 10612, Note_on_c, 0, 55, 80
2, 10615, Note_on_c, 0, 79, 80
2, 10626, Note_on_c, 0, 83, 0
2, 10647, Note_on_c, 0, 77, 80
2, 10656, Note_on_c, 0, 55, 0
2, 10661, Note_on_c, 0, 79, 0
2, 10685, Note_on_c, 0, 55, 80
2, 10685, Note_on_c, 0, 59, 80
2, 10685, Note_on_c, 0, 74, 80
2, 10696, Note_on_c, 0, 77, 0
2, 10696, Note_on_c, 0, 65, 80
2, 10713, Note_on_c, 0, 43, 0
2, 10721, Note_on_c, 0, 71, 80
2, 10733, Note_on_c, 0, 74, 0
2, 10733, Note_on_c, 0, 59, 0
2, 10733, Note_on_c, 0, 55, 0
2, 10745, Note_on_c, 0, 65, 0
2, 10751, Note_on_c, 0, 60, 80
2, 10754, Note_on_c, 0, 48, 80
2, 10755, Note_on_c, 0, 76, 80
2, 10756, Note_on_c, 0, 72, 80
2, 10757, Note_on_c, 0, 71, 0
2, 10794, Note_on_c, 0, 76, 0
2, 10794, Note_on_c, 0, 72, 0
2, 10796, Note_on_c, 0, 60, 0
2, 10822, Note_on_c, 0, 60, 80
2, 10825, Note_on_c, 0, 55, 80
2, 10825, Note_on_c, 0, 69, 80
2, 10825, Note_on_c, 0, 72, 80
2, 10825, Note_on_c, 0, 76, 80
2, 10836, Note_on_c, 0, 76, 0
2, 10836, Note_on_c, 0, 72, 0
2, 10836, Note_on_c, 0, 64, 80
2, 10860, Note_on_c, 0, 67, 80
2, 10860, Note_on_c, 0, 72, 80
2, 10864, Note_on_c, 0, 55, 0
2, 10864, Note_on_c, 0, 69, 0
2, 10865, Note_on_c, 0, 48, 0
2, 10869, Note_on_c, 0, 76, 80
2, 10873, Note_on_c, 0, 60, 0
2, 10884, Note_on_c, 0, 64, 0
2, 10897, Note_on_c, 0, 43, 80
2, 10900, Note_on_c, 0, 55, 80
2, 10901, Note_on_c, 0, 72, 0
2, 10901, Note_on_c, 0, 76, 0
2, 10901, Note_on_c, 0, 67, 0
2, 10933, Note_on_c, 0, 76, 80
2, 10938, Note_on_c, 0, 69, 80
2, 10939, Note_on_c, 0, 55, 0
2, 10939, Note_on_c, 0, 72, 80
2, 10943, Note_on_c, 0, 76, 0
2, 10947, Note_on_c, 0, 72, 0
2, 10967, Note_on_c, 0, 69, 0
2, 10968, Note_on_c, 0, 60, 80
2, 10968, Note_on_c, 0, 67, 80
2, 10968, Note_on_c, 0, 72, 80
2, 10971, Note_on_c, 0, 55, 80
2, 10981, Note_on_c, 0, 64, 80
2, 10982, Note_on_c, 0, 76, 80
2, 10998, Note_on_c, 0, 43, 0
2, 11016, Note_on_c, 0, 60, 0
2, 11025, Note_on_c, 0, 72, 0
2, 11025, Note_on_c, 0, 67, 0
2, 11026, Note_on_c, 0, 55, 0
2, 11027, Note_on_c, 0, 64, 0
2, 11028, Note_on_c, 0, 76, 0
2, 11040, Note_on_c, 0, 50, 80
2, 11040, Note_on_c, 0, 62, 80
2, 11040, Note_on_c, 0, 71, 80
2, 11040, Note_on_c, 0, 77, 80
2, 11078, Note_on_c, 0, 77, 0
2, 11078, Note_on_c, 0, 71, 0
2, 11111, Note_on_c, 0, 55, 80
2, 11111, Note_on_c, 0, 59, 80
2, 11113, Note_on_c, 0, 69, 80
2, 11113, Note_on_c, 0, 77, 80
2, 11116, Note_on_c, 0, 71, 80
2, 11120, Note_on_c, 0, 62, 0
2, 11121, Note_on_c, 0, 65, 80
2, 11125, Note_on_c, 0, 77, 0
2, 11125, Note_on_c, 0, 71, 0
2, 11146, Note_on_c, 0, 77, 80
2, 11149, Note_on_c, 0, 55, 0
2, 11151, Note_on_c, 0, 67, 80
2, 11151, Note_on_c, 0, 71, 80
2, 11152, Note_on_c, 0, 69, 0
2, 11152, Note_on_c, 0, 50, 0
2, 11161, Note_on_c, 0, 59, 0
2, 11174, Note_on_c, 0, 65, 0
2, 11184, Note_on_c, 0, 43, 80
2, 11185, Note_on_c, 0, 67, 0
2, 11185, Note_on_c, 0, 55, 80
2, 11186, Note_on_c, 0, 71, 0
2, 11187, Note_on_c, 0, 77, 0
2, 11218, Note_on_c, 0, 77, 80
2, 11222, Note_on_c, 0, 69, 80
2, 11223, Note_on_c, 0, 55, 0
2, 11233, Note_on_c, 0, 77, 0
2, 11254, Note_on_c, 0, 67, 80
2, 11255, Note_on_c, 0, 55, 80
2, 11255, Note_on_c, 0, 59, 80
2, 11255, Note_on_c, 0, 77, 80
2, 11262, Note_on_c, 0, 69, 0
2, 11265, Note_on_c, 0, 65, 80
2, 11287, Note_on_c, 0, 43, 0
2, 11314, Note_on_c, 0, 55, 0
2, 11314, Note_on_c, 0, 59, 0
2, 11314, Note_on_c, 0, 77, 0
2, 11315, Note_on_c, 0, 67, 0
2, 11318, Note_on_c, 0, 65, 0
2, 11325, Note_on_c, 0, 60, 80
2, 11329, Note_on_c, 0, 72, 80
2, 11329, Note_on_c, 0, 76, 80
2, 11330, Note_on_c, 0, 48, 80
2, 11367, Note_on_c, 0, 76, 0
2, 11367, Note_on_c, 0, 72, 0
2, 11368, Note_on_c, 0, 60, 0
2, 11398, Note_on_c, 0, 55, 80
2, 11398, Note_on_c, 0, 60, 80
2, 11400, Note_on_c, 0, 76, 80
2, 11403, Note_on_c, 0, 69, 80
2, 11403, Note_on_c, 0, 72, 80
2, 11410, Note_on_c, 0, 64, 80
2, 11413, Note_on_c, 0, 72, 0
2, 11414, Note_on_c, 0, 76, 0
2, 11434, Note_on_c, 0, 48, 0
2, 11434, Note_on_c, 0, 72, 80
2, 11437, Note_on_c, 0, 67, 80
2, 11441, Note_on_c, 0, 69, 0
2, 11442, Note_on_c, 0, 55, 0
2, 11448, Note_on_c, 0, 76, 80
2, 11457, Note_on_c, 0, 60, 0
2, 11458, Note_on_c, 0, 64, 0
2, 11473, Note_on_c, 0, 43, 80
2, 11473, Note_on_c, 0, 55, 80
2, 11501, Note_on_c, 0, 67, 0
2, 11503, Note_on_c, 0, 72, 0
2, 11504, Note_on_c, 0, 76, 0
2, 11512, Note_on_c, 0, 55, 0
2, 11513, Note_on_c, 0, 79, 80
2, 11542, Note_on_c, 0, 55, 80
2, 11542, Note_on_c, 0, 60, 80
2, 11545, Note_on_c, 0, 84, 80
2, 11546, Note_on_c, 0, 79, 0
2, 11556, Note_on_c, 0, 64, 80
2, 11572, Note_on_c, 0, 43, 0
2, 11578, Note_on_c, 0, 88, 80
2, 11582, Note_on_c, 0, 84, 0
2, 11598, Note_on_c, 0, 60, 0
2, 11599, Note_on_c, 0, 55, 0
2, 11605, Note_on_c, 0, 64, 0
2, 11607, Note_on_c, 0, 88, 0
2, 11607, Note_on_c, 0, 79, 80
2, 11615, Note_on_c, 0, 50, 80
2, 11615, Note_on_c, 0, 62, 80
2, 11615, Note_on_c, 0, 83, 80
2, 11621, Note_on_c, 0, 91, 80
2, 11650, Note_on_c, 0, 89, 80
2, 11653, Note_on_c, 0, 79, 0
2, 11656, Note_on_c, 0, 83, 0
2, 11657, Note_on_c, 0, 91, 0
2, 11683, Note_on_c, 0, 55, 80
2, 11685, Note_on_c, 0, 59, 80
2, 11688, Note_on_c, 0, 86, 80
2, 11693, Note_on_c, 0, 62, 0
2, 11695, Note_on_c, 0, 65, 80
2, 11698, Note_on_c, 0, 89, 0
2, 11722, Note_on_c, 0, 83, 80
2, 11725, Note_on_c, 0, 55, 0
2, 11726, Note_on_c, 0, 50, 0
2, 11735, Note_on_c, 0, 86, 0
2, 11743, Note_on_c, 0, 59, 0
2, 11747, Note_on_c, 0, 65, 0
2, 11755, Note_on_c, 0, 55, 80
2, 11756, Note_on_c, 0, 79, 80
2, 11756, Note_on_c, 0, 43, 80
2, 11768, Note_on_c, 0, 83, 0
2, 11789, Note_on_c, 0, 77, 80
2, 11795, Note_on_c, 0, 55, 0
2, 11803, Note_on_c, 0, 79, 0
2, 11824, Note_on_c, 0, 55, 80
2, 11825, Note_on_c, 0, 59, 80
2, 11825, Note_on_c, 0, 74, 80
2, 11833, Note_on_c, 0, 65, 80
2, 11837, Note_on_c, 0, 77, 0
2, 11859, Note_on_c, 0, 71, 80
2, 11861, Note_on_c, 0, 43, 0
2, 11874, Note_on_c, 0, 74, 0
2, 11883, Note_on_c, 0, 55, 0
2, 11884, Note_on_c, 0, 59, 0
2, 11887, Note_on_c, 0, 65, 0
2, 11894, Note_on_c, 0, 60, 80
2, 11897, Note_on_c, 0, 71, 0
2, 11897, Note_on_c, 0, 72, 80
2, 11898, Note_on_c, 0, 76, 80
2, 11901, Note_on_c, 0, 48, 80
2, 11935, Note_on_c, 0, 76, 0
2, 11935, Note_on_c, 0, 72, 0
2, 11936, Note_on_c, 0, 60, 0
2, 11970, Note_on_c, 0, 55, 80
2, 11970, Note_on_c, 0, 60, 80
2, 11970, Note_on_c, 0, 69, 80
2, 11970, Note_on_c, 0, 72, 80
2, 11974, Note_on_c, 0, 76, 80
2, 11980, Note_on_c, 0, 64, 80
2, 11982, Note_on_c, 0, 76, 0
2, 11983, Note_on_c, 0, 72, 0
2, 12008, Note_on_c, 0, 67, 80
2, 12008, Note_on_c, 0, 72, 80
2, 12009, Note_on_c, 0, 69, 0
2, 12009, Note_on_c, 0, 48, 0
2, 12014, Note_on_c, 0, 76, 80
2, 12023, Note_on_c, 0, 60, 0
2, 12026, Note_on_c, 0, 55, 0
2, 12029, Note_on_c, 0, 64, 0
2, 12038, Note_on_c, 0, 40, 80
2, 12041, Note_on_c, 0, 52, 80
2, 12042, Note_on_c, 0, 72, 0
2, 12042, Note_on_c, 0, 67, 0
2, 12043, Note_on_c, 0, 76, 0
2, 12076, Note_on_c, 0, 67, 80
2, 12090, Note_on_c, 0, 67, 0
2, 12105, Note_on_c, 0, 40, 0
2, 12109, Note_on_c, 0, 52, 0
2, 12113, Note_on_c, 0, 37, 80
2, 12113, Note_on_c, 0, 67, 80
2, 12114, Note_on_c, 0, 49, 80
2, 12118, Note_on_c, 0, 70, 80
2, 12125, Note_on_c, 0, 76, 80
2, 12153, Note_on_c, 0, 76, 0
2, 12154, Note_on_c, 0, 67, 0
2, 12155, Note_on_c, 0, 70, 0
2, 12175, Note_on_c, 0, 49, 0
2, 12183, Note_on_c, 0, 37, 0
2, 12187, Note_on_c, 0, 38, 80
2, 12188, Note_on_c, 0, 67, 80
2, 12188, Note_on_c, 0, 71, 80
2, 12191, Note_on_c, 0, 50, 80
2, 12196, Note_on_c, 0, 76, 80
2, 12226, Note_on_c, 0, 71, 0
2, 12227, Note_on_c, 0, 50, 0
2, 12227, Note_on_c, 0, 67, 0
2, 12248, Note_on_c, 0, 76, 0
2, 12260, Note_on_c, 0, 50, 80
2, 12261, Note_on_c, 0, 55, 80
2, 12261, Note_on_c, 0, 67, 80
2, 12261, Note_on_c, 0, 71, 80
2, 12261, Note_on_c, 0, 74, 80
2, 12270, Note_on_c, 0, 67, 0
2, 12274, Note_on_c, 0, 71, 0
2, 12291, Note_on_c, 0, 38, 0
2, 12293, Note_on_c, 0, 67, 80
2, 12293, Note_on_c, 0, 71, 80
2, 12298, Note_on_c, 0, 74, 0
2, 12301, Note_on_c, 0, 55, 0
2, 12303, Note_on_c, 0, 50, 0
2, 12333, Note_on_c, 0, 38, 80
2, 12333, Note_on_c, 0, 50, 80
2, 12337, Note_on_c, 0, 67, 0
2, 12353, Note_on_c, 0, 71, 0
2, 12370, Note_on_c, 0, 59, 80
2, 12370, Note_on_c, 0, 67, 80
2, 12378, Note_on_c, 0, 50, 0
2, 12406, Note_on_c, 0, 50, 80
2, 12406, Note_on_c, 0, 60, 80
2, 12409, Note_on_c, 0, 54, 80
2, 12413, Note_on_c, 0, 59, 0
2, 12414, Note_on_c, 0, 67, 0
2, 12418, Note_on_c, 0, 69, 80
2, 12437, Note_on_c, 0, 38, 0
2, 12449, Note_on_c, 0, 50, 0
2, 12466, Note_on_c, 0, 54, 0
2, 12467, Note_on_c, 0, 60, 0
2, 12476, Note_on_c, 0, 69, 0
2, 12478, Note_on_c, 0, 55, 80
2, 12480, Note_on_c, 0, 43, 80
2, 12480, Note_on_c, 0, 50, 80
2, 12481, Note_on_c, 0, 67, 80
2, 12491, Note_on_c, 0, 67, 0
2, 12491, Note_on_c, 0, 59, 80
2, 12513, Note_on_c, 0, 67, 80
2, 12535, Note_on_c, 0, 59, 0
2, 12541, Note_on_c, 0, 50, 0
2, 12544, Note_on_c, 0, 55, 0
2, 12545, Note_on_c, 0, 43, 0
2, 12548, Note_on_c, 0, 71, 80
2, 12555, Note_on_c, 0, 67, 0
2, 12587, Note_on_c, 0, 71, 0
2, 12587, Note_on_c, 0, 74, 80
2, 12624, Note_on_c, 0, 55, 80
2, 12626, Note_on_c, 0, 59, 80
2, 12626, Note_on_c, 0, 79, 80
2, 12628, Note_on_c, 0, 74, 0
2, 12632, Note_on_c, 0, 62, 80
2, 12635, Note_on_c, 0, 79, 0
2, 12660, Note_on_c, 0, 79, 80
2, 12670, Note_on_c, 0, 59, 0
2, 12678, Note_on_c, 0, 55, 0
2, 12683, Note_on_c, 0, 62, 0
2, 12695, Note_on_c, 0, 83, 80
2, 12701, Note_on_c, 0, 79, 0
2, 12731, Note_on_c, 0, 86, 80
2, 12736, Note_on_c, 0, 83, 0
2, 12758, Note_on_c, 0, 86, 0
2, 12758, Note_on_c, 0, 79, 80
2, 12765, Note_on_c, 0, 50, 80
2, 12765, Note_on_c, 0, 62, 80
2, 12765, Note_on_c, 0, 83, 80
2, 12772, Note_on_c, 0, 91, 80
2, 12798, Note_on_c, 0, 89, 80
2, 12802, Note_on_c, 0, 79, 0
2, 12809, Note_on_c, 0, 83, 0
2, 12810, Note_on_c, 0, 91, 0
2, 12834, Note_on_c, 0, 55, 80
2, 12835, Note_on_c, 0, 59, 80
2, 12838, Note_on_c, 0, 86, 80
2, 12839, Note_on_c, 0, 62, 0
2, 12846, Note_on_c, 0, 65, 80
2, 12847, Note_on_c, 0, 89, 0
2, 12870, Note_on_c, 0, 83, 80
2, 12874, Note_on_c, 0, 55, 0
2, 12876, Note_on_c, 0, 50, 0
2, 12882, Note_on_c, 0, 86, 0
2, 12892, Note_on_c, 0, 59, 0
2, 12895, Note_on_c, 0, 65, 0
2, 12905, Note_on_c, 0, 43, 80
2, 12908, Note_on_c, 0, 55, 80
2, 12909, Note_on_c, 0, 79, 80
2, 12923, Note_on_c, 0, 83, 0
2, 12943, Note_on_c, 0, 77, 80
2, 12944, Note_on_c, 0, 55, 0
2, 12955, Note_on_c, 0, 79, 0
2, 12976, Note_on_c, 0, 55, 80
2, 12981, Note_on_c, 0, 59, 80
2, 12981, Note_on_c, 0, 74, 80
2, 12986, Note_on_c, 0, 65, 80
2, 12989, Note_on_c, 0, 77, 0
2, 13006, Note_on_c, 0, 43, 0
2, 13011, Note_on_c, 0, 71, 80
2, 13024, Note_on_c, 0, 74, 0
2, 13034, Note_on_c, 0, 59, 0
2, 13034, Note_on_c, 0, 55, 0
2, 13037, Note_on_c, 0, 65, 0
2, 13048, Note_on_c, 0, 60, 80
2, 13048, Note_on_c, 0, 72, 80
2, 13048, Note_on_c, 0, 76, 80
2, 13050, Note_on_c, 0, 48, 80
2, 13054, Note_on_c, 0, 71, 0
2, 13086, Note_on_c, 0, 76, 0
2, 13086, Note_on_c, 0, 72, 0
2, 13089, Note_on_c, 0, 60, 0
2, 13121, Note_on_c, 0, 55, 80
2, 13121, Note_on_c, 0, 60, 80
2, 13121, Note_on_c, 0, 69, 80
2, 13121, Note_on_c, 0, 72, 80
2, 13125, Note_on_c, 0, 76, 80
2, 13130, Note_on_c, 0, 64, 80
2, 13133, Note_on_c, 0, 72, 0
2, 13138, Note_on_c, 0, 76, 0
2, 13154, Note_on_c, 0, 48, 0
2, 13157, Note_on_c, 0, 67, 80
2, 13161, Note_on_c, 0, 72, 80
2, 13164, Note_on_c, 0, 69, 0
2, 13164, Note_on_c, 0, 55, 0
2, 13171, Note_on_c, 0, 76, 80
2, 13174, Note_on_c, 0, 60, 0
2, 13184, Note_on_c, 0, 64, 0
2, 13196, Note_on_c, 0, 43, 80
2, 13196, Note_on_c, 0, 55, 80
2, 13199, Note_on_c, 0, 72, 0
2, 13199, Note_on_c, 0, 76, 0
2, 13200, Note_on_c, 0, 67, 0
2, 13232, Note_on_c, 0, 72, 80
2, 13232, Note_on_c, 0, 76, 80
2, 13235, Note_on_c, 0, 55, 0
2, 13235, Note_on_c, 0, 69, 80
2, 13245, Note_on_c, 0, 76, 0
2, 13245, Note_on_c, 0, 72, 0
2, 13264, Note_on_c, 0, 69, 0
2, 13266, Note_on_c, 0, 60, 80
2, 13267, Note_on_c, 0, 67, 80
2, 13267, Note_on_c, 0, 72, 80
2, 13270, Note_on_c, 0, 55, 80
2, 13280, Note_on_c, 0, 64, 80
2, 13280, Note_on_c, 0, 76, 80
2, 13298, Note_on_c, 0, 43, 0
2, 13317, Note_on_c, 0, 72, 0
2, 13317, Note_on_c, 0, 67, 0
2, 13318, Note_on_c, 0, 76, 0
2, 13327, Note_on_c, 0, 60, 0
2, 13328, Note_on_c, 0, 64, 0
2, 13330, Note_on_c, 0, 55, 0
2, 13338, Note_on_c, 0, 62, 80
2, 13341, Note_on_c, 0, 50, 80
2, 13341, Note_on_c, 0, 71, 80
2, 13341, Note_on_c, 0, 77, 80
2, 13382, Note_on_c, 0, 77, 0
2, 13382, Note_on_c, 0, 71, 0
2, 13411, Note_on_c, 0, 55, 80
2, 13415, Note_on_c, 0, 59, 80
2, 13415, Note_on_c, 0, 69, 80
2, 13415, Note_on_c, 0, 71, 80
2, 13415, Note_on_c, 0, 77, 80
2, 13421, Note_on_c, 0, 62, 0
2, 13425, Note_on_c, 0, 71, 0
2, 13425, Note_on_c, 0, 77, 0
2, 13425, Note_on_c, 0, 65, 80
2, 13449, Note_on_c, 0, 50, 0
2, 13449, Note_on_c, 0, 71, 80
2, 13451, Note_on_c, 0, 67, 80
2, 13452, Note_on_c, 0, 55, 0
2, 13454, Note_on_c, 0, 69, 0
2, 13460, Note_on_c, 0, 77, 80
2, 13473, Note_on_c, 0, 59, 0
2, 13476, Note_on_c, 0, 65, 0
2, 13486, Note_on_c, 0, 43, 80
2, 13486, Note_on_c, 0, 55, 80
2, 13487, Note_on_c, 0, 67, 0
2, 13488, Note_on_c, 0, 71, 0
2, 13488, Note_on_c, 0, 77, 0
2, 13520, Note_on_c, 0, 77, 80
2, 13525, Note_on_c, 0, 69, 80
2, 13527, Note_on_c, 0, 55, 0
2, 13537, Note_on_c, 0, 77, 0
2, 13556, Note_on_c, 0, 55, 80
2, 13556, Note_on_c, 0, 67, 80
2, 13556, Note_on_c, 0, 77, 80
2, 13560, Note_on_c, 0, 59, 80
2, 13563, Note_on_c, 0, 69, 0
2, 13568, Note_on_c, 0, 65, 80
2, 13585, Note_on_c, 0, 43, 0
2, 13612, Note_on_c, 0, 67, 0
2, 13614, Note_on_c, 0, 55, 0
2, 13614, Note_on_c, 0, 59, 0
2, 13615, Note_on_c, 0, 77, 0
2, 13619, Note_on_c, 0, 65, 0
2, 13628, Note_on_c, 0, 48, 80
2, 13628, Note_on_c, 0, 60, 80
2, 13628, Note_on_c, 0, 72, 80
2, 13628, Note_on_c, 0, 76, 80
2, 13664, Note_on_c, 0, 72, 0
2, 13667, Note_on_c, 0, 76, 0
2, 13667, Note_on_c, 0, 60, 0
2, 13696, Note_on_c, 0, 60, 80
2, 13698, Note_on_c, 0, 55, 80
2, 13698, Note_on_c, 0, 76, 80
2, 13699, Note_on_c, 0, 69, 80
2, 13699, Note_on_c, 0, 72, 80
2, 13707, Note_on_c, 0, 64, 80
2, 13713, Note_on_c, 0, 72, 0
2, 13713, Note_on_c, 0, 76, 0
2, 13734, Note_on_c, 0, 67, 80
2, 13734, Note_on_c, 0, 72, 80
2, 13735, Note_on_c, 0, 60, 0
2, 13736, Note_on_c, 0, 48, 0
2, 13736, Note_on_c, 0, 55, 0
2, 13737, Note_on_c, 0, 64, 0
2, 13738, Note_on_c, 0, 69, 0
2, 13743, Note_on_c, 0, 76, 80
2, 13765, Note_on_c, 0, 60, 80
2, 13768, Note_on_c, 0, 55, 80
2, 13776, Note_on_c, 0, 64, 80
2, 13804, Note_on_c, 0, 60, 0
2, 13805, Note_on_c, 0, 67, 0
2, 13806, Note_on_c, 0, 55, 0
2, 13806, Note_on_c, 0, 76, 0
2, 13807, Note_on_c, 0, 72, 0
2, 13815, Note_on_c, 0, 64, 0
2, 13838, Note_on_c, 0, 43, 80
2, 13841, Note_on_c, 0, 55, 80
2, 13841, Note_on_c, 0, 67, 80
2, 13841, Note_on_c, 0, 71, 80
2, 13841, Note_on_c, 0, 74, 80
2, 13850, Note_on_c, 0, 79, 80
2, 13896, Note_on_c, 0, 79, 0
2, 13896, Note_on_c, 0, 74, 0
2, 13897, Note_on_c, 0, 67, 0
2, 13897, Note_on_c, 0, 71, 0
2, 13906, Note_on_c, 0, 55, 0
2, 13910, Note_on_c, 0, 60, 80
2, 13911, Note_on_c, 0, 48, 80
2, 13913, Note_on_c, 0, 72, 80
2, 13914, Note_on_c, 0, 43, 0
2, 13945, Note_on_c, 0, 76, 80
2, 13948, Note_on_c, 0, 60, 0
2, 13950, Note_on_c, 0, 72, 0
2, 13976, Note_on_c, 0, 76, 0
2, 13980, Note_on_c, 0, 60, 80
2, 13983, Note_on_c, 0, 55, 80
2, 13988, Note_on_c, 0, 79, 80
2, 13991, Note_on_c, 0, 64, 80
2, 14021, Note_on_c, 0, 84, 80
2, 14024, Note_on_c, 0, 79, 0
2, 14040, Note_on_c, 0, 64, 0
2, 14041, Note_on_c, 0, 55, 0
2, 14041, Note_on_c, 0, 60, 0
2, 14042, Note_on_c, 0, 48, 0
2, 14056, Note_on_c, 0, 46, 80
2, 14056, Note_on_c, 0, 58, 80
2, 14056, Note_on_c, 0, 72, 80
2, 14059, Note_on_c, 0, 84, 0
2, 14093, Note_on_c, 0, 76, 80
2, 14094, Note_on_c, 0, 72, 0
2, 14126, Note_on_c, 0, 55, 80
2, 14127, Note_on_c, 0, 60, 80
2, 14131, Note_on_c, 0, 79, 80
2, 14136, Note_on_c, 0, 76, 0
2, 14140, Note_on_c, 0, 64, 80
2, 14168, Note_on_c, 0, 79, 0
2, 14168, Note_on_c, 0, 84, 80
2, 14176, Note_on_c, 0, 60, 0
2, 14177, Note_on_c, 0, 55, 0
2, 14185, Note_on_c, 0, 58, 0
2, 14185, Note_on_c, 0, 64, 0
2, 14195, Note_on_c, 0, 46, 0
2, 14199, Note_on_c, 0, 45, 80
2, 14199, Note_on_c, 0, 72, 80
2, 14201, Note_on_c, 0, 57, 80
2, 14204, Note_on_c, 0, 84, 0
2, 14237, Note_on_c, 0, 72, 0
2, 14237, Note_on_c, 0, 77, 80
2, 14244, Note_on_c, 0, 57, 0
2, 14270, Note_on_c, 0, 60, 80
2, 14273, Note_on_c, 0, 84, 80
2, 14276, Note_on_c, 0, 77, 0
2, 14276, Note_on_c, 0, 57, 80
2, 14281, Note_on_c, 0, 65, 80
2, 14309, Note_on_c, 0, 84, 0
2, 14309, Note_on_c, 0, 77, 80
2, 14329, Note_on_c, 0, 45, 0
2, 14329, Note_on_c, 0, 60, 0
2, 14334, Note_on_c, 0, 57, 0
2, 14334, Note_on_c, 0, 65, 0
2, 14345, Note_on_c, 0, 44, 80
2, 14345, Note_on_c, 0, 56, 80
2, 14346, Note_on_c, 0, 72, 80
2, 14353, Note_on_c, 0, 77, 0
2, 14382, Note_on_c, 0, 84, 80
2, 14385, Note_on_c, 0, 72, 0
2, 14389, Note_on_c, 0, 56, 0
2, 14418, Note_on_c, 0, 60, 80
2, 14419, Note_on_c, 0, 56, 80
2, 14428, Note_on_c, 0, 63, 80
2, 14455, Note_on_c, 0, 78, 80
2, 14459, Note_on_c, 0, 84, 0
2, 14467, Note_on_c, 0, 60, 0
2, 14475, Note_on_c, 0, 44, 0
2, 14476, Note_on_c, 0, 63, 0
2, 14479, Note_on_c, 0, 56, 0
2, 14487, Note_on_c, 0, 43, 80
2, 14490, Note_on_c, 0, 55, 80
2, 14491, Note_on_c, 0, 78, 0
2, 14491, Note_on_c, 0, 79, 80
2, 14526, Note_on_c, 0, 67, 80
2, 14530, Note_on_c, 0, 79, 0
2, 14531, Note_on_c, 0, 55, 0
2, 14561, Note_on_c, 0, 60, 80
2, 14564, Note_on_c, 0, 55, 80
2, 14564, Note_on_c, 0, 76, 80
2, 14567, Note_on_c, 0, 67, 0
2, 14576, Note_on_c, 0, 64, 80
2, 14601, Note_on_c, 0, 76, 0
2, 14601, Note_on_c, 0, 74, 80
2, 14602, Note_on_c, 0, 43, 0
2, 14620, Note_on_c, 0, 60, 0
2, 14621, Note_on_c, 0, 55, 0
2, 14622, Note_on_c, 0, 64, 0
2, 14634, Note_on_c, 0, 66, 80
2, 14635, Note_on_c, 0, 45, 80
2, 14635, Note_on_c, 0, 57, 80
2, 14639, Note_on_c, 0, 74, 0
2, 14643, Note_on_c, 0, 72, 80
2, 14698, Note_on_c, 0, 45, 0
2, 14699, Note_on_c, 0, 72, 0
2, 14702, Note_on_c, 0, 66, 0
2, 14703, Note_on_c, 0, 57, 0
2, 14703, Note_on_c, 0, 65, 80
2, 14703, Note_on_c, 0, 71, 80
2, 14705, Note_on_c, 0, 43, 80
2, 14705, Note_on_c, 0, 55, 80
2, 14717, Note_on_c, 0, 74, 80
2, 14760, Note_on_c, 0, 71, 0
2, 14763, Note_on_c, 0, 74, 0
2, 14767, Note_on_c, 0, 65, 0
2, 14773, Note_on_c, 0, 43, 0
2, 14773, Note_on_c, 0, 55, 0
2, 14776, Note_on_c, 0, 60, 80
2, 14776, Note_on_c, 0, 64, 80
2, 14779, Note_on_c, 0, 48, 80
2, 14787, Note_on_c, 0, 72, 80
2, 14816, Note_on_c, 0, 72, 0
2, 14816, Note_on_c, 0, 60, 0
2, 14818, Note_on_c, 0, 48, 0
2, 14820, Note_on_c, 0, 64, 0
2, 14853, Note_on_c, 0, 79, 80
2, 14864, Note_on_c, 0, 79, 0
2, 14890, Note_on_c, 0, 79, 80
2, 14898, Note_on_c, 0, 79, 0
2, 14925, Note_on_c, 0, 79, 80
2, 14964, Note_on_c, 0, 79, 0
2, 14996, Note_on_c, 0, 49, 80
2, 14996, Note_on_c, 0, 61, 80
2, 14996, Note_on_c, 0, 79, 80
2, 15035, Note_on_c, 0, 79, 0
2, 15055, Note_on_c, 0, 49, 0
2, 15060, Note_on_c, 0, 79, 80
2, 15064, Note_on_c, 0, 61, 0
2, 15066, Note_on_c, 0, 50, 80
2, 15066, Note_on_c, 0, 62, 80
2, 15066, Note_on_c, 0, 83, 80
2, 15075, Note_on_c, 0, 91, 80
2, 15101, Note_on_c, 0, 89, 80
2, 15106, Note_on_c, 0, 79, 0
2, 15107, Note_on_c, 0, 83, 0
2, 15113, Note_on_c, 0, 91, 0
2, 15136, Note_on_c, 0, 55, 80
2, 15137, Note_on_c, 0, 86, 80
2, 15138, Note_on_c, 0, 59, 80
2, 15144, Note_on_c, 0, 62, 0
2, 15146, Note_on_c, 0, 65, 80
2, 15150, Note_on_c, 0, 89, 0
2, 15170, Note_on_c, 0, 50, 0
2, 15171, Note_on_c, 0, 83, 80
2, 15175, Note_on_c, 0, 55, 0
2, 15188, Note_on_c, 0, 86, 0
2, 15194, Note_on_c, 0, 59, 0
2, 15195, Note_on_c, 0, 65, 0
2, 15205, Note_on_c, 0, 43, 80
2, 15207, Note_on_c, 0, 55, 80
2, 15208, Note_on_c, 0, 79, 80
2, 15224, Note_on_c, 0, 83, 0
2, 15244, Note_on_c, 0, 77, 80
2, 15247, Note_on_c, 0, 55, 0
2, 15255, Note_on_c, 0, 79, 0
2, 15280, Note_on_c, 0, 55, 80
2, 15282, Note_on_c, 0, 59, 80
2, 15283, Note_on_c, 0, 74, 80
2, 15292, Note_on_c, 0, 65, 80
2, 15293, Note_on_c, 0, 77, 0
2, 15308, Note_on_c, 0, 43, 0
2, 15316, Note_on_c, 0, 71, 80
2, 15329, Note_on_c, 0, 55, 0
2, 15330, Note_on_c, 0, 74, 0
2, 15331, Note_on_c, 0, 59, 0
2, 15343, Note_on_c, 0, 65, 0
2, 15351, Note_on_c, 0, 48, 80
2, 15351, Note_on_c, 0, 60, 80
2, 15355, Note_on_c, 0, 72, 80
2, 15356, Note_on_c, 0, 71, 0
2, 15356, Note_on_c, 0, 76, 80
2, 15391, Note_on_c, 0, 72, 0
2, 15392, Note_on_c, 0, 76, 0
2, 15392, Note_on_c, 0, 60, 0
2, 15418, Note_on_c, 0, 60, 80
2, 15422, Note_on_c, 0, 55, 80
2, 15422, Note_on_c, 0, 69, 80
2, 15423, Note_on_c, 0, 72, 80
2, 15428, Note_on_c, 0, 76, 80
2, 15431, Note_on_c, 0, 64, 80
2, 15434, Note_on_c, 0, 72, 0
2, 15435, Note_on_c, 0, 76, 0
2, 15456, Note_on_c, 0, 67, 80
2, 15459, Note_on_c, 0, 72, 80
2, 15460, Note_on_c, 0, 69, 0
2, 15460, Note_on_c, 0, 55, 0
2, 15460, Note_on_c, 0, 48, 0
2, 15467, Note_on_c, 0, 76, 80
2, 15471, Note_on_c, 0, 60, 0
2, 15480, Note_on_c, 0, 64, 0
2, 15491, Note_on_c, 0, 55, 80
2, 15494, Note_on_c, 0, 43, 80
2, 15495, Note_on_c, 0, 72, 0
2, 15495, Note_on_c, 0, 67, 0
2, 15500, Note_on_c, 0, 76, 0
2, 15530, Note_on_c, 0, 69, 80
2, 15530, Note_on_c, 0, 72, 80
2, 15530, Note_on_c, 0, 76, 80
2, 15534, Note_on_c, 0, 55, 0
2, 15540, Note_on_c, 0, 76, 0
2, 15541, Note_on_c, 0, 72, 0
2, 15564, Note_on_c, 0, 55, 80
2, 15564, Note_on_c, 0, 60, 80
2, 15566, Note_on_c, 0, 67, 80
2, 15566, Note_on_c, 0, 72, 80
2, 15568, Note_on_c, 0, 69, 0
2, 15573, Note_on_c, 0, 76, 80
2, 15575, Note_on_c, 0, 64, 80
2, 15595, Note_on_c, 0, 43, 0
2, 15611, Note_on_c, 0, 60, 0
2, 15619, Note_on_c, 0, 72, 0
2, 15619, Note_on_c, 0, 76, 0
2, 15621, Note_on_c, 0, 55, 0
2, 15622, Note_on_c, 0, 67, 0
2, 15624, Note_on_c, 0, 64, 0
2, 15633, Note_on_c, 0, 50, 80
2, 15633, Note_on_c, 0, 62, 80
2, 15633, Note_on_c, 0, 71, 80
2, 15633, Note_on_c, 0, 77, 80
2, 15671, Note_on_c, 0, 71, 0
2, 15672, Note_on_c, 0, 77, 0
2, 15702, Note_on_c, 0, 59, 80
2, 15702, Note_on_c, 0, 71, 80
2, 15702, Note_on_c, 0, 77, 80
2, 15703, Note_on_c, 0, 55, 80
2, 15706, Note_on_c, 0, 69, 80
2, 15711, Note_on_c, 0, 62, 0
2, 15714, Note_on_c, 0, 65, 80
2, 15716, Note_on_c, 0, 77, 0
2, 15716, Note_on_c, 0, 71, 0
2, 15738, Note_on_c, 0, 67, 80
2, 15738, Note_on_c, 0, 71, 80
2, 15741, Note_on_c, 0, 55, 0
2, 15741, Note_on_c, 0, 77, 80
2, 15742, Note_on_c, 0, 69, 0
2, 15744, Note_on_c, 0, 50, 0
2, 15750, Note_on_c, 0, 59, 0
2, 15764, Note_on_c, 0, 65, 0
2, 15774, Note_on_c, 0, 43, 80
2, 15774, Note_on_c, 0, 55, 80
2, 15777, Note_on_c, 0, 71, 0
2, 15777, Note_on_c, 0, 77, 0
2, 15777, Note_on_c, 0, 67, 0
2, 15811, Note_on_c, 0, 69, 80
2, 15813, Note_on_c, 0, 77, 80
2, 15816, Note_on_c, 0, 55, 0
2, 15823, Note_on_c, 0, 77, 0
2, 15844, Note_on_c, 0, 67, 80
2, 15844, Note_on_c, 0, 77, 80
2, 15847, Note_on_c, 0, 55, 80
2, 15847, Note_on_c, 0, 59, 80
2, 15850, Note_on_c, 0, 69, 0
2, 15855, Note_on_c, 0, 65, 80
2, 15875, Note_on_c, 0, 43, 0
2, 15903, Note_on_c, 0, 67, 0
2, 15903, Note_on_c, 0, 55, 0
2, 15903, Note_on_c, 0, 77, 0
2, 15903, Note_on_c, 0, 59, 0
2, 15906, Note_on_c, 0, 65, 0
2, 15916, Note_on_c, 0, 60, 80
2, 15917, Note_on_c, 0, 48, 80
2, 15917, Note_on_c, 0, 72, 80
2, 15917, Note_on_c, 0, 76, 80
2, 15956, Note_on_c, 0, 72, 0
2, 15959, Note_on_c, 0, 76, 0
2, 15959, Note_on_c, 0, 60, 0
2, 15987, Note_on_c, 0, 60, 80
2, 15987, Note_on_c, 0, 76, 80
2, 15990, Note_on_c, 0, 55, 80
2, 15991, Note_on_c, 0, 69, 80
2, 15995, Note_on_c, 0, 72, 80
2, 16004, Note_on_c, 0, 72, 0
2, 16004, Note_on_c, 0, 76, 0
2, 16004, Note_on_c, 0, 64, 80
2, 16024, Note_on_c, 0, 48, 0
2, 16027, Note_on_c, 0, 72, 80
2, 16028, Note_on_c, 0, 67, 80
2, 16031, Note_on_c, 0, 55, 0
2, 16034, Note_on_c, 0, 69, 0
2, 16037, Note_on_c, 0, 76, 80
2, 16048, Note_on_c, 0, 60, 0
2, 16054, Note_on_c, 0, 64, 0
2, 16062, Note_on_c, 0, 55, 80
2, 16065, Note_on_c, 0, 43, 80
2, 16093, Note_on_c, 0, 76, 0
2, 16093, Note_on_c, 0, 67, 0
2, 16096, Note_on_c, 0, 72, 0
2, 16106, Note_on_c, 0, 55, 0
2, 16106, Note_on_c, 0, 79, 80
2, 16136, Note_on_c, 0, 60, 80
2, 16136, Note_on_c, 0, 84, 80
2, 16140, Note_on_c, 0, 55, 80
2, 16144, Note_on_c, 0, 79, 0
2, 16148, Note_on_c, 0, 64, 80
2, 16169, Note_on_c, 0, 43, 0
2, 16175, Note_on_c, 0, 88, 80
2, 16179, Note_on_c, 0, 84, 0
2, 16195, Note_on_c, 0, 60, 0
2, 16196, Note_on_c, 0, 55, 0
2, 16196, Note_on_c, 0, 64, 0
2, 16201, Note_on_c, 0, 88, 0
2, 16202, Note_on_c, 0, 79, 80
2, 16211, Note_on_c, 0, 83, 80
2, 16211, Note_on_c, 0, 50, 80
2, 16211, Note_on_c, 0, 62, 80
2, 16219, Note_on_c, 0, 91, 80
2, 16247, Note_on_c, 0, 89, 80
2, 16251, Note_on_c, 0, 79, 0
2, 16252, Note_on_c, 0, 83, 0
2, 16258, Note_on_c, 0, 91, 0
2, 16285, Note_on_c, 0, 55, 80
2, 16286, Note_on_c, 0, 86, 80
2, 16289, Note_on_c, 0, 59, 80
2, 16290, Note_on_c, 0, 62, 0
2, 16290, Note_on_c, 0, 65, 80
2, 16293, Note_on_c, 0, 89, 0
2, 16321, Note_on_c, 0, 83, 80
2, 16323, Note_on_c, 0, 55, 0
2, 16324, Note_on_c, 0, 50, 0
2, 16332, Note_on_c, 0, 86, 0
2, 16341, Note_on_c, 0, 59, 0
2, 16345, Note_on_c, 0, 65, 0
2, 16355, Note_on_c, 0, 43, 80
2, 16355, Note_on_c, 0, 55, 80
2, 16359, Note_on_c, 0, 79, 80
2, 16370, Note_on_c, 0, 83, 0
2, 16394, Note_on_c, 0, 77, 80
2, 16398, Note_on_c, 0, 55, 0
2, 16406, Note_on_c, 0, 79, 0
2, 16428, Note_on_c, 0, 55, 80
2, 16428, Note_on_c, 0, 59, 80
2, 16429, Note_on_c, 0, 74, 80
2, 16436, Note_on_c, 0, 65, 80
2, 16442, Note_on_c, 0, 77, 0
2, 16463, Note_on_c, 0, 71, 80
2, 16466, Note_on_c, 0, 43, 0
2, 16478, Note_on_c, 0, 74, 0
2, 16487, Note_on_c, 0, 59, 0
2, 16487, Note_on_c, 0, 55, 0
2, 16492, Note_on_c, 0, 65, 0
2, 16496, Note_on_c, 0, 60, 80
2, 16499, Note_on_c, 0, 48, 80
2, 16500, Note_on_c, 0, 72, 80
2, 16500, Note_on_c, 0, 76, 80
2, 16502, Note_on_c, 0, 71, 0
2, 16536, Note_on_c, 0, 72, 0
2, 16538, Note_on_c, 0, 76, 0
2, 16539, Note_on_c, 0, 60, 0
2, 16572, Note_on_c, 0, 55, 80
2, 16572, Note_on_c, 0, 60, 80
2, 16572, Note_on_c, 0, 72, 80
2, 16573, Note_on_c, 0, 69, 80
2, 16573, Note_on_c, 0, 76, 80
2, 16583, Note_on_c, 0, 64, 80
2, 16586, Note_on_c, 0, 76, 0
2, 16586, Note_on_c, 0, 72, 0
2, 16610, Note_on_c, 0, 67, 80
2, 16610, Note_on_c, 0, 72, 80
2, 16612, Note_on_c, 0, 48, 0
2, 16614, Note_on_c, 0, 69, 0
2, 16617, Note_on_c, 0, 76, 80
2, 16627, Note_on_c, 0, 60, 0
2, 16631, Note_on_c, 0, 55, 0
2, 16634, Note_on_c, 0, 64, 0
2, 16643, Note_on_c, 0, 40, 80
2, 16643, Note_on_c, 0, 52, 80
2, 16648, Note_on_c, 0, 72, 0
2, 16648, Note_on_c, 0, 67, 0
2, 16648, Note_on_c, 0, 76, 0
2, 16678, Note_on_c, 0, 67, 80
2, 16691, Note_on_c, 0, 67, 0
2, 16709, Note_on_c, 0, 40, 0
2, 16711, Note_on_c, 0, 52, 0
2, 16713, Note_on_c, 0, 67, 80
2, 16715, Note_on_c, 0, 37, 80
2, 16716, Note_on_c, 0, 49, 80
2, 16719, Note_on_c, 0, 70, 80
2, 16724, Note_on_c, 0, 76, 80
2, 16753, Note_on_c, 0, 76, 0
2, 16754, Note_on_c, 0, 67, 0
2, 16755, Note_on_c, 0, 70, 0
2, 16772, Note_on_c, 0, 49, 0
2, 16781, Note_on_c, 0, 37, 0
2, 16787, Note_on_c, 0, 38, 80
2, 16787, Note_on_c, 0, 50, 80
2, 16788, Note_on_c, 0, 71, 80
2, 16790, Note_on_c, 0, 67, 80
2, 16798, Note_on_c, 0, 76, 80
2, 16826, Note_on_c, 0, 67, 0
2, 16826, Note_on_c, 0, 71, 0
2, 16831, Note_on_c, 0, 50, 0
2, 16847, Note_on_c, 0, 76, 0
2, 16858, Note_on_c, 0, 55, 80
2, 16858, Note_on_c, 0, 67, 80
2, 16860, Note_on_c, 0, 74, 80
2, 16861, Note_on_c, 0, 50, 80
2, 16861, Note_on_c, 0, 71, 80
2, 16871, Note_on_c, 0, 71, 0
2, 16874, Note_on_c, 0, 67, 0
2, 16891, Note_on_c, 0, 71, 80
2, 16895, Note_on_c, 0, 67, 80
2, 16899, Note_on_c, 0, 74, 0
2, 16900, Note_on_c, 0, 50, 0
2, 16900, Note_on_c, 0, 38, 0
2, 16900, Note_on_c, 0, 55, 0
2, 16930, Note_on_c, 0, 50, 80
2, 16931, Note_on_c, 0, 38, 80
2, 16936, Note_on_c, 0, 67, 0
2, 16951, Note_on_c, 0, 71, 0
2, 16965, Note_on_c, 0, 67, 80
2, 16971, Note_on_c, 0, 59, 80
2, 16974, Note_on_c, 0, 50, 0
2, 17003, Note_on_c, 0, 60, 80
2, 17006, Note_on_c, 0, 67, 0
2, 17006, Note_on_c, 0, 50, 80
2, 17006, Note_on_c, 0, 54, 80
2, 17009, Note_on_c, 0, 59, 0
2, 17012, Note_on_c, 0, 69, 80
2, 17032, Note_on_c, 0, 38, 0
2, 17045, Note_on_c, 0, 50, 0
2, 17058, Note_on_c, 0, 60, 0
2, 17063, Note_on_c, 0, 54, 0
2, 17066, Note_on_c, 0, 43, 80
2, 17074, Note_on_c, 0, 69, 0
2, 17077, Note_on_c, 0, 50, 80
2, 17077, Note_on_c, 0, 55, 80
2, 17077, Note_on_c, 0, 67, 80
2, 17086, Note_on_c, 0, 59, 80
2, 17091, Note_on_c, 0, 67, 0
2, 17111, Note_on_c, 0, 67, 80
2, 17131, Note_on_c, 0, 50, 0
2, 17132, Note_on_c, 0, 59, 0
2, 17140, Note_on_c, 0, 43, 0
2, 17143, Note_on_c, 0, 55, 0
2, 17146, Note_on_c, 0, 71, 80
2, 17149, Note_on_c, 0, 67, 0
2, 17186, Note_on_c, 0, 74, 80
2, 17187, Note_on_c, 0, 71, 0
2, 17217, Note_on_c, 0, 55, 80
2, 17218, Note_on_c, 0, 79, 80
2, 17223, Note_on_c, 0, 59, 80
2, 17226, Note_on_c, 0, 74, 0
2, 17230, Note_on_c, 0, 79, 0
2, 17230, Note_on_c, 0, 62, 80
2, 17254, Note_on_c, 0, 79, 80
2, 17267, Note_on_c, 0, 59, 0
2, 17278, Note_on_c, 0, 55, 0
2, 17279, Note_on_c, 0, 62, 0
2, 17289, Note_on_c, 0, 83, 80
2, 17294, Note_on_c, 0, 79, 0
2, 17326, Note_on_c, 0, 86, 80
2, 17332, Note_on_c, 0, 83, 0
2, 17354, Note_on_c, 0, 79, 80
2, 17355, Note_on_c, 0, 86, 0
2, 17358, Note_on_c, 0, 83, 80
2, 17360, Note_on_c, 0, 50, 80
2, 17363, Note_on_c, 0, 62, 80
2, 17370, Note_on_c, 0, 91, 80
2, 17396, Note_on_c, 0, 89, 80
2, 17399, Note_on_c, 0, 79, 0
2, 17402, Note_on_c, 0, 83, 0
2, 17408, Note_on_c, 0, 91, 0
2, 17421, Note_on_c, 0, 55, 80
2, 17433, Note_on_c, 0, 59, 80
2, 17433, Note_on_c, 0, 86, 80
2, 17437, Note_on_c, 0, 62, 0
2, 17441, Note_on_c, 0, 65, 80
2, 17444, Note_on_c, 0, 89, 0
2, 17466, Note_on_c, 0, 83, 80
2, 17467, Note_on_c, 0, 55, 0
2, 17471, Note_on_c, 0, 50, 0
2, 17478, Note_on_c, 0, 86, 0
2, 17487, Note_on_c, 0, 59, 0
2, 17490, Note_on_c, 0, 65, 0
2, 17495, Note_on_c, 0, 55, 80
2, 17503, Note_on_c, 0, 43, 80
2, 17506, Note_on_c, 0, 79, 80
2, 17518, Note_on_c, 0, 83, 0
2, 17540, Note_on_c, 0, 77, 80
2, 17543, Note_on_c, 0, 55, 0
2, 17551, Note_on_c, 0, 79, 0
2, 17573, Note_on_c, 0, 55, 80
2, 17576, Note_on_c, 0, 59, 80
2, 17576, Note_on_c, 0, 74, 80
2, 17585, Note_on_c, 0, 65, 80
2, 17588, Note_on_c, 0, 77, 0
2, 17605, Note_on_c, 0, 43, 0
2, 17611, Note_on_c, 0, 71, 80
2, 17621, Note_on_c, 0, 74, 0
2, 17632, Note_on_c, 0, 55, 0
2, 17634, Note_on_c, 0, 59, 0
2, 17636, Note_on_c, 0, 65, 0
2, 17639, Note_on_c, 0, 60, 80
2, 17643, Note_on_c, 0, 76, 80
2, 17646, Note_on_c, 0, 48, 80
2, 17646, Note_on_c, 0, 72, 80
2, 17647, Note_on_c, 0, 71, 0
2, 17684, Note_on_c, 0, 60, 0
2, 17684, Note_on_c, 0, 72, 0
2, 17684, Note_on_c, 0, 76, 0
2, 17715, Note_on_c, 0, 60, 80
2, 17716, Note_on_c, 0, 72, 80
2, 17716, Note_on_c, 0, 76, 80
2, 17717, Note_on_c, 0, 55, 80
2, 17718, Note_on_c, 0, 69, 80
2, 17726, Note_on_c, 0, 72, 0
2, 17726, Note_on_c, 0, 64, 80
2, 17727, Note_on_c, 0, 76, 0
2, 17743, Note_on_c, 0, 48, 0
2, 17749, Note_on_c, 0, 72, 80
2, 17752, Note_on_c, 0, 67, 80
2, 17755, Note_on_c, 0, 55, 0
2, 17756, Note_on_c, 0, 69, 0
2, 17760, Note_on_c, 0, 76, 80
2, 17764, Note_on_c, 0, 60, 0
2, 17774, Note_on_c, 0, 64, 0
2, 17787, Note_on_c, 0, 43, 80
2, 17787, Note_on_c, 0, 55, 80
2, 17790, Note_on_c, 0, 67, 0
2, 17790, Note_on_c, 0, 76, 0
2, 17790, Note_on_c, 0, 72, 0
2, 17824, Note_on_c, 0, 76, 80
2, 17825, Note_on_c, 0, 69, 80
2, 17825, Note_on_c, 0, 72, 80
2, 17830, Note_on_c, 0, 55, 0
2, 17834, Note_on_c, 0, 72, 0
2, 17838, Note_on_c, 0, 76, 0
2, 17851, Note_on_c, 0, 55, 80
2, 17856, Note_on_c, 0, 60, 80
2, 17857, Note_on_c, 0, 69, 0
2, 17860, Note_on_c, 0, 67, 80
2, 17861, Note_on_c, 0, 72, 80
2, 17866, Note_on_c, 0, 76, 80
2, 17870, Note_on_c, 0, 64, 80
2, 17890, Note_on_c, 0, 43, 0
2, 17907, Note_on_c, 0, 72, 0
2, 17907, Note_on_c, 0, 67, 0
2, 17907, Note_on_c, 0, 76, 0
2, 17915, Note_on_c, 0, 55, 0
2, 17918, Note_on_c, 0, 64, 0
2, 17919, Note_on_c, 0, 60, 0
2, 17930, Note_on_c, 0, 62, 80
2, 17930, Note_on_c, 0, 71, 80
2, 17930, Note_on_c, 0, 77, 80
2, 17934, Note_on_c, 0, 50, 80
2, 17972, Note_on_c, 0, 77, 0
2, 17972, Note_on_c, 0, 71, 0
2, 18004, Note_on_c, 0, 69, 80
2, 18004, Note_on_c, 0, 71, 80
2, 18004, Note_on_c, 0, 77, 80
2, 18007, Note_on_c, 0, 55, 80
2, 18008, Note_on_c, 0, 59, 80
2, 18013, Note_on_c, 0, 77, 0
2, 18013, Note_on_c, 0, 71, 0
2, 18013, Note_on_c, 0, 62, 0
2, 18016, Note_on_c, 0, 65, 80
2, 18038, Note_on_c, 0, 50, 0
2, 18041, Note_on_c, 0, 71, 80
2, 18043, Note_on_c, 0, 67, 80
2, 18046, Note_on_c, 0, 55, 0
2, 18047, Note_on_c, 0, 69, 0
2, 18051, Note_on_c, 0, 77, 80
2, 18067, Note_on_c, 0, 59, 0
2, 18069, Note_on_c, 0, 65, 0
2, 18077, Note_on_c, 0, 55, 80
2, 18078, Note_on_c, 0, 43, 80
2, 18079, Note_on_c, 0, 71, 0
2, 18081, Note_on_c, 0, 67, 0
2, 18083, Note_on_c, 0, 77, 0
2, 18115, Note_on_c, 0, 69, 80
2, 18115, Note_on_c, 0, 77, 80
2, 18120, Note_on_c, 0, 55, 0
2, 18128, Note_on_c, 0, 77, 0
2, 18151, Note_on_c, 0, 55, 80
2, 18151, Note_on_c, 0, 67, 80
2, 18151, Note_on_c, 0, 77, 80
2, 18155, Note_on_c, 0, 59, 80
2, 18160, Note_on_c, 0, 69, 0
2, 18163, Note_on_c, 0, 65, 80
2, 18182, Note_on_c, 0, 43, 0
2, 18206, Note_on_c, 0, 67, 0
2, 18209, Note_on_c, 0, 77, 0
2, 18209, Note_on_c, 0, 55, 0
2, 18210, Note_on_c, 0, 59, 0
2, 18214, Note_on_c, 0, 65, 0
2, 18221, Note_on_c, 0, 60, 80
2, 18225, Note_on_c, 0, 72, 80
2, 18225, Note_on_c, 0, 76, 80
2, 18226, Note_on_c, 0, 48, 80
2, 18261, Note_on_c, 0, 72, 0
2, 18263, Note_on_c, 0, 76, 0
2, 18264, Note_on_c, 0, 60, 0
2, 18295, Note_on_c, 0, 60, 80
2, 18295, Note_on_c, 0, 76, 80
2, 18297, Note_on_c, 0, 55, 80
2, 18297, Note_on_c, 0, 69, 80
2, 18297, Note_on_c, 0, 72, 80
2, 18307, Note_on_c, 0, 72, 0
2, 18307, Note_on_c, 0, 64, 80
2, 18308, Note_on_c, 0, 76, 0
2, 18326, Note_on_c, 0, 48, 0
2, 18332, Note_on_c, 0, 69, 0
2, 18332, Note_on_c, 0, 64, 0
2, 18333, Note_on_c, 0, 60, 0
2, 18333, Note_on_c, 0, 55, 0
2, 18333, Note_on_c, 0, 67, 80
2, 18333, Note_on_c, 0, 72, 80
2, 18339, Note_on_c, 0, 76, 80
2, 18364, Note_on_c, 0, 55, 80
2, 18364, Note_on_c, 0, 60, 80
2, 18375, Note_on_c, 0, 64, 80
2, 18406, Note_on_c, 0, 72, 0
2, 18406, Note_on_c, 0, 67, 0
2, 18407, Note_on_c, 0, 60, 0
2, 18410, Note_on_c, 0, 76, 0
2, 18412, Note_on_c, 0, 55, 0
2, 18419, Note_on_c, 0, 64, 0
2, 18458, Note_on_c, 0, 55, 80
2, 18461, Note_on_c, 0, 43, 80
2, 18461, Note_on_c, 0, 67, 80
2, 18461, Note_on_c, 0, 71, 80
2, 18463, Note_on_c, 0, 74, 80
2, 18476, Note_on_c, 0, 79, 80
2, 18525, Note_on_c, 0, 74, 0
2, 18525, Note_on_c, 0, 71, 0
2, 18525, Note_on_c, 0, 67, 0
2, 18526, Note_on_c, 0, 79, 0
2, 18535, Note_on_c, 0, 55, 0
2, 18535, Note_on_c, 0, 43, 0
2, 18537, Note_on_c, 0, 60, 80
2, 18538, Note_on_c, 0, 72, 80
2, 18540, Note_on_c, 0, 48, 80
2, 18570, Note_on_c, 0, 76, 80
2, 18573, Note_on_c, 0, 72, 0
2, 18575, Note_on_c, 0, 60, 0
2, 18596, Note_on_c, 0, 76, 0
2, 18601, Note_on_c, 0, 60, 80
2, 18602, Note_on_c, 0, 55, 80
2, 18603, Note_on_c, 0, 79, 80
2, 18609, Note_on_c, 0, 64, 80
2, 18631, Note_on_c, 0, 84, 80
2, 18634, Note_on_c, 0, 79, 0
2, 18650, Note_on_c, 0, 48, 0
2, 18653, Note_on_c, 0, 64, 0
2, 18653, Note_on_c, 0, 60, 0
2, 18656, Note_on_c, 0, 55, 0
2, 18664, Note_on_c, 0, 46, 80
2, 18665, Note_on_c, 0, 72, 80
2, 18668, Note_on_c, 0, 58, 80
2, 18669, Note_on_c, 0, 84, 0
2, 18696, Note_on_c, 0, 76, 80
2, 18699, Note_on_c, 0, 72, 0
2, 18731, Note_on_c, 0, 55, 80
2, 18731, Note_on_c, 0, 60, 80
2, 18733, Note_on_c, 0, 79, 80
2, 18734, Note_on_c, 0, 76, 0
2, 18744, Note_on_c, 0, 64, 80
2, 18768, Note_on_c, 0, 79, 0
2, 18768, Note_on_c, 0, 84, 80
2, 18775, Note_on_c, 0, 60, 0
2, 18777, Note_on_c, 0, 55, 0
2, 18789, Note_on_c, 0, 58, 0
2, 18790, Note_on_c, 0, 64, 0
2, 18793, Note_on_c, 0, 46, 0
2, 18802, Note_on_c, 0, 57, 80
2, 18802, Note_on_c, 0, 72, 80
2, 18803, Note_on_c, 0, 45, 80
2, 18805, Note_on_c, 0, 84, 0
2, 18839, Note_on_c, 0, 72, 0
2, 18840, Note_on_c, 0, 77, 80
2, 18843, Note_on_c, 0, 57, 0
2, 18870, Note_on_c, 0, 60, 80
2, 18871, Note_on_c, 0, 84, 80
2, 18872, Note_on_c, 0, 77, 0
2, 18872, Note_on_c, 0, 57, 80
2, 18881, Note_on_c, 0, 65, 80
2, 18907, Note_on_c, 0, 77, 80
2, 18914, Note_on_c, 0, 84, 0
2, 18928, Note_on_c, 0, 60, 0
2, 18931, Note_on_c, 0, 45, 0
2, 18934, Note_on_c, 0, 57, 0
2, 18937, Note_on_c, 0, 65, 0
2, 18945, Note_on_c, 0, 77, 0
2, 18945, Note_on_c, 0, 44, 80
2, 18945, Note_on_c, 0, 56, 80
2, 18945, Note_on_c, 0, 72, 80
2, 18980, Note_on_c, 0, 84, 80
2, 18983, Note_on_c, 0, 72, 0
2, 18986, Note_on_c, 0, 56, 0
2, 19015, Note_on_c, 0, 60, 80
2, 19017, Note_on_c, 0, 56, 80
2, 19026, Note_on_c, 0, 63, 80
2, 19055, Note_on_c, 0, 78, 80
2, 19058, Note_on_c, 0, 84, 0
2, 19061, Note_on_c, 0, 60, 0
2, 19071, Note_on_c, 0, 44, 0
2, 19076, Note_on_c, 0, 63, 0
2, 19077, Note_on_c, 0, 56, 0
2, 19085, Note_on_c, 0, 55, 80
2, 19089, Note_on_c, 0, 43, 80
2, 19089, Note_on_c, 0, 79, 80
2, 19091, Note_on_c, 0, 78, 0
2, 19124, Note_on_c, 0, 67, 80
2, 19127, Note_on_c, 0, 79, 0
2, 19128, Note_on_c, 0, 55, 0
2, 19158, Note_on_c, 0, 60, 80
2, 19159, Note_on_c, 0, 55, 80
2, 19160, Note_on_c, 0, 67, 0
2, 19160, Note_on_c, 0, 76, 80
2, 19170, Note_on_c, 0, 64, 80
2, 19195, Note_on_c, 0, 74, 80
2, 19200, Note_on_c, 0, 76, 0
2, 19200, Note_on_c, 0, 43, 0
2, 19217, Note_on_c, 0, 55, 0
2, 19217, Note_on_c, 0, 60, 0
2, 19219, Note_on_c, 0, 64, 0
2, 19231, Note_on_c, 0, 66, 80
2, 19232, Note_on_c, 0, 45, 80
2, 19235, Note_on_c, 0, 74, 0
2, 19235, Note_on_c, 0, 57, 80
2, 19240, Note_on_c, 0, 72, 80
2, 19293, Note_on_c, 0, 45, 0
2, 19299, Note_on_c, 0, 66, 0
2, 19299, Note_on_c, 0, 72, 0
2, 19300, Note_on_c, 0, 71, 80
2, 19302, Note_on_c, 0, 57, 0
2, 19302, Note_on_c, 0, 43, 80
2, 19302, Note_on_c, 0, 55, 80
2, 19302, Note_on_c, 0, 65, 80
2, 19311, Note_on_c, 0, 74, 80
2, 19359, Note_on_c, 0, 71, 0
2, 19361, Note_on_c, 0, 74, 0
2, 19362, Note_on_c, 0, 65, 0
2, 19368, Note_on_c, 0, 43, 0
2, 19371, Note_on_c, 0, 55, 0
2, 19371, Note_on_c, 0, 60, 80
2, 19374, Note_on_c, 0, 48, 80
2, 19375, Note_on_c, 0, 64, 80
2, 19385, Note_on_c, 0, 72, 80
2, 19439, Note_on_c, 0, 48, 0
2, 19445, Note_on_c, 0, 43, 80
2, 19445, Note_on_c, 0, 55, 80
2, 19446, Note_on_c, 0, 60, 0
2, 19481, Note_on_c, 0, 72, 0
2, 19484, Note_on_c, 0, 64, 0
2, 19509, Note_on_c, 0, 36, 80
2, 19509, Note_on_c, 0, 48, 80
2, 19511, Note_on_c, 0, 76, 80
2, 19515, Note_on_c, 0, 72, 80
2, 19516, Note_on_c, 0, 43, 0
2, 19518, Note_on_c, 0, 55, 0
2, 19520, Note_on_c, 0, 84, 80
2, 19576, Note_on_c, 0, 36, 0
2, 19579, Note_on_c, 0, 72, 0
2, 19579, Note_on_c, 0, 84, 0
2, 19579, Note_on_c, 0, 76, 0
2, 19583, Note_on_c, 0, 48, 0
2, 19661, Note_on_c, 0, 67, 80
2, 19663, Note_on_c, 0, 71, 80
2, 19666, Note_on_c, 0, 74, 80
2, 19671, Note_on_c, 0, 77, 80
2, 19700, Note_on_c, 0, 77, 0
2, 19700, Note_on_c, 0, 67, 0
2, 19701, Note_on_c, 0, 74, 0
2, 19701, Note_on_c, 0, 71, 0
2, 19733, Note_on_c, 0, 67, 80
2, 19735, Note_on_c, 0, 71, 80
2, 19735, Note_on_c, 0, 74, 80
2, 19743, Note_on_c, 0, 77, 80
2, 19837, Note_on_c, 0, 67, 0
2, 19838, Note_on_c, 0, 71, 0
2, 19838, Note_on_c, 0, 74, 0
2, 19841, Note_on_c, 0, 77, 0
2, 19868, Note_on_c, 0, 67, 80
2, 19868, Note_on_c, 0, 71, 80
2, 19872, Note_on_c, 0, 74, 80
2, 19878, Note_on_c, 0, 77, 80
2, 19904, Note_on_c, 0, 67, 0
2, 19905, Note_on_c, 0, 71, 0
2, 19908, Note_on_c, 0, 74, 0
2, 19909, Note_on_c, 0, 77, 0
2, 19941, Note_on_c, 0, 74, 80
2, 19945, Note_on_c, 0, 68, 80
2, 19945, Note_on_c, 0, 70, 80
2, 19952, Note_on_c, 0, 77, 80
2, 19980, Note_on_c, 0, 77, 0
2, 19980, Note_on_c, 0, 70, 0
2, 19980, Note_on_c, 0, 68, 0
2, 19982, Note_on_c, 0, 74, 0
2, 20014, Note_on_c, 0, 70, 80
2, 20015, Note_on_c, 0, 74, 80
2, 20016, Note_on_c, 0, 68, 80
2, 20023, Note_on_c, 0, 77, 80
2, 20116, Note_on_c, 0, 70, 0
2, 20117, Note_on_c, 0, 74, 0
2, 20124, Note_on_c, 0, 68, 0
2, 20127, Note_on_c, 0, 77, 0
2, 20161, Note_on_c, 0, 68, 80
2, 20161, Note_on_c, 0, 70, 80
2, 20161, Note_on_c, 0, 74, 80
2, 20170, Note_on_c, 0, 77, 80
2, 20200, Note_on_c, 0, 70, 0
2, 20210, Note_on_c, 0, 77, 0
2, 20217, Note_on_c, 0, 74, 0
2, 20217, Note_on_c, 0, 68, 0
2, 20231, Note_on_c, 0, 67, 80
2, 20231, Note_on_c, 0, 70, 80
2, 20239, Note_on_c, 0, 75, 80
2, 20342, Note_on_c, 0, 75, 0
2, 20342, Note_on_c, 0, 67, 0
2, 20346, Note_on_c, 0, 70, 0
2, 20375, Note_on_c, 0, 67, 80
2, 20376, Note_on_c, 0, 72, 80
2, 20378, Note_on_c, 0, 70, 80
2, 20387, Note_on_c, 0, 76, 80
2, 20489, Note_on_c, 0, 72, 0
2, 20489, Note_on_c, 0, 67, 0
2, 20490, Note_on_c, 0, 70, 0
2, 20490, Note_on_c, 0, 76, 0
2, 20523, Note_on_c, 0, 65, 80
2, 20523, Note_on_c, 0, 72, 80
2, 20528, Note_on_c, 0, 69, 80
2, 20535, Note_on_c, 0, 77, 80
2, 20590, Note_on_c, 0, 69, 0
2, 20591, Note_on_c, 0, 77, 0
2, 20591, Note_on_c, 0, 72, 0
2, 20594, Note_on_c, 0, 65, 0
2, 20669, Note_on_c, 0, 41, 80
2, 20670, Note_on_c, 0, 53, 80
2, 20670, Note_on_c, 0, 65, 80
2, 20671, Note_on_c, 0, 69, 80
2, 20671, Note_on_c, 0, 75, 80
2, 20680, Note_on_c, 0, 77, 80
2, 20778, Note_on_c, 0, 77, 0
2, 20778, Note_on_c, 0, 75, 0
2, 20780, Note_on_c, 0, 41, 0
2, 20780, Note_on_c, 0, 69, 0
2, 20781, Note_on_c, 0, 53, 0
2, 20786, Note_on_c, 0, 65, 0
2, 20810, Note_on_c, 0, 50, 80
2, 20811, Note_on_c, 0, 62, 80
2, 20811, Note_on_c, 0, 65, 80
2, 20813, Note_on_c, 0, 69, 80
2, 20814, Note_on_c, 0, 74, 80
2, 20822, Note_on_c, 0, 77, 80
2, 20846, Note_on_c, 0, 46, 80
2, 20849, Note_on_c, 0, 58, 80
2, 20850, Note_on_c, 0, 62, 0
2, 20853, Note_on_c, 0, 50, 0
2, 20883, Note_on_c, 0, 46, 0
2, 20883, Note_on_c, 0, 45, 80
2, 20884, Note_on_c, 0, 57, 80
2, 20887, Note_on_c, 0, 58, 0
2, 20915, Note_on_c, 0, 43, 80
2, 20915, Note_on_c, 0, 55, 80
2, 20920, Note_on_c, 0, 45, 0
2, 20925, Note_on_c, 0, 57, 0
2, 20951, Note_on_c, 0, 43, 0
2, 20951, Note_on_c, 0, 41, 80
2, 20952, Note_on_c, 0, 53, 80
2, 20957, Note_on_c, 0, 74, 0
2, 20958, Note_on_c, 0, 55, 0
2, 20973, Note_on_c, 0, 77, 0
2, 20974, Note_on_c, 0, 69, 0
2, 20979, Note_on_c, 0, 65, 0
2, 20979, Note_on_c, 0, 46, 80
2, 20979, Note_on_c, 0, 58, 80
2, 20987, Note_on_c, 0, 62, 80
2, 20988, Note_on_c, 0, 74, 80
2, 20989, Note_on_c, 0, 41, 0
2, 20994, Note_on_c, 0, 53, 0
2, 21020, Note_on_c, 0, 60, 80
2, 21020, Note_on_c, 0, 63, 80
2, 21023, Note_on_c, 0, 48, 80
2, 21026, Note_on_c, 0, 46, 0
2, 21026, Note_on_c, 0, 58, 0
2, 21026, Note_on_c, 0, 74, 0
2, 21029, Note_on_c, 0, 62, 0
2, 21032, Note_on_c, 0, 75, 80
2, 21052, Note_on_c, 0, 60, 0
2, 21053, Note_on_c, 0, 63, 0
2, 21055, Note_on_c, 0, 61, 80
2, 21057, Note_on_c, 0, 49, 80
2, 21058, Note_on_c, 0, 64, 80
2, 21059, Note_on_c, 0, 48, 0
2, 21061, Note_on_c, 0, 75, 0
2, 21066, Note_on_c, 0, 76, 80
2, 21085, Note_on_c, 0, 49, 0
2, 21091, Note_on_c, 0, 50, 80
2, 21093, Note_on_c, 0, 62, 80
2, 21093, Note_on_c, 0, 65, 80
2, 21094, Note_on_c, 0, 64, 0
2, 21094, Note_on_c, 0, 76, 0
2, 21098, Note_on_c, 0, 61, 0
2, 21101, Note_on_c, 0, 77, 80
2, 21131, Note_on_c, 0, 70, 80
2, 21133, Note_on_c, 0, 74, 80
2, 21134, Note_on_c, 0, 77, 0
2, 21139, Note_on_c, 0, 65, 0
2, 21139, Note_on_c, 0, 62, 0
2, 21157, Note_on_c, 0, 63, 80
2, 21160, Note_on_c, 0, 70, 0
2, 21160, Note_on_c, 0, 48, 80
2, 21164, Note_on_c, 0, 60, 80
2, 21168, Note_on_c, 0, 69, 80
2, 21171, Note_on_c, 0, 50, 0
2, 21171, Note_on_c, 0, 74, 0
2, 21176, Note_on_c, 0, 75, 80
2, 21199, Note_on_c, 0, 62, 80
2, 21203, Note_on_c, 0, 69, 0
2, 21203, Note_on_c, 0, 70, 80
2, 21206, Note_on_c, 0, 63, 0
2, 21207, Note_on_c, 0, 75, 0
2, 21210, Note_on_c, 0, 74, 80
2, 21228, Note_on_c, 0, 46, 80
2, 21228, Note_on_c, 0, 58, 80
2, 21238, Note_on_c, 0, 60, 0
2, 21239, Note_on_c, 0, 74, 0
2, 21239, Note_on_c, 0, 70, 0
2, 21242, Note_on_c, 0, 48, 0
2, 21242, Note_on_c, 0, 62, 0
2, 21273, Note_on_c, 0, 74, 80
2, 21274, Note_on_c, 0, 58, 0
2, 21296, Note_on_c, 0, 58, 80
2, 21308, Note_on_c, 0, 53, 80
2, 21311, Note_on_c, 0, 77, 80
2, 21312, Note_on_c, 0, 74, 0
2, 21316, Note_on_c, 0, 62, 80
2, 21336, Note_on_c, 0, 46, 0
2, 21343, Note_on_c, 0, 80, 80
2, 21347, Note_on_c, 0, 77, 0
2, 21364, Note_on_c, 0, 58, 0
2, 21365, Note_on_c, 0, 62, 0
2, 21369, Note_on_c, 0, 53, 0
2, 21380, Note_on_c, 0, 39, 80
2, 21381, Note_on_c, 0, 51, 80
2, 21384, Note_on_c, 0, 80, 0
2, 21415, Note_on_c, 0, 75, 80
2, 21417, Note_on_c, 0, 79, 80
2, 21452, Note_on_c, 0, 82, 80
2, 21453, Note_on_c, 0, 55, 80
2, 21455, Note_on_c, 0, 79, 0
2, 21455, Note_on_c, 0, 58, 80
2, 21455, Note_on_c, 0, 70, 80
2, 21458, Note_on_c, 0, 75, 0
2, 21463, Note_on_c, 0, 63, 80
2, 21479, Note_on_c, 0, 51, 0
2, 21486, Note_on_c, 0, 75, 80
2, 21487, Note_on_c, 0, 79, 80
2, 21488, Note_on_c, 0, 39, 0
2, 21491, Note_on_c, 0, 82, 0
2, 21491, Note_on_c, 0, 70, 0
2, 21501, Note_on_c, 0, 55, 0
2, 21501, Note_on_c, 0, 58, 0
2, 21509, Note_on_c, 0, 63, 0
2, 21518, Note_on_c, 0, 75, 0
2, 21521, Note_on_c, 0, 39, 80
2, 21521, Note_on_c, 0, 51, 80
2, 21521, Note_on_c, 0, 72, 80
2, 21521, Note_on_c, 0, 84, 80
2, 21525, Note_on_c, 0, 79, 0
2, 21558, Note_on_c, 0, 72, 0
2, 21558, Note_on_c, 0, 70, 80
2, 21558, Note_on_c, 0, 82, 80
2, 21561, Note_on_c, 0, 84, 0
2, 21587, Note_on_c, 0, 51, 0
2, 21592, Note_on_c, 0, 37, 80
2, 21595, Note_on_c, 0, 39, 0
2, 21595, Note_on_c, 0, 49, 80
2, 21596, Note_on_c, 0, 70, 0
2, 21621, Note_on_c, 0, 82, 0
2, 21631, Note_on_c, 0, 65, 80
2, 21631, Note_on_c, 0, 70, 80
2, 21631, Note_on_c, 0, 74, 80
2, 21638, Note_on_c, 0, 77, 80
2, 21658, Note_on_c, 0, 37, 0
2, 21662, Note_on_c, 0, 49, 0
2, 21665, Note_on_c, 0, 38, 80
2, 21665, Note_on_c, 0, 50, 80
2, 21736, Note_on_c, 0, 41, 80
2, 21736, Note_on_c, 0, 53, 80
2, 21738, Note_on_c, 0, 38, 0
2, 21741, Note_on_c, 0, 50, 0
2, 21771, Note_on_c, 0, 46, 80
2, 21771, Note_on_c, 0, 58, 80
2, 21772, Note_on_c, 0, 41, 0
2, 21776, Note_on_c, 0, 53, 0
2, 21805, Note_on_c, 0, 60, 80
2, 21807, Note_on_c, 0, 58, 0
2, 21807, Note_on_c, 0, 46, 0
2, 21808, Note_on_c, 0, 48, 80
2, 21829, Note_on_c, 0, 74, 0
2, 21829, Note_on_c, 0, 70, 0
2, 21838, Note_on_c, 0, 77, 0
2, 21840, Note_on_c, 0, 65, 0
2, 21844, Note_on_c, 0, 69, 80
2, 21875, Note_on_c, 0, 63, 80
2, 21879, Note_on_c, 0, 51, 80
2, 21879, Note_on_c, 0, 72, 80
2, 21880, Note_on_c, 0, 60, 0
2, 21881, Note_on_c, 0, 69, 0
2, 21882, Note_on_c, 0, 48, 0
2, 21913, Note_on_c, 0, 77, 80
2, 21917, Note_on_c, 0, 72, 0
2, 21927, Note_on_c, 0, 77, 0
2, 21941, Note_on_c, 0, 51, 0
2, 21945, Note_on_c, 0, 63, 0
2, 21948, Note_on_c, 0, 62, 80
2, 21948, Note_on_c, 0, 65, 80
2, 21949, Note_on_c, 0, 50, 80
2, 21949, Note_on_c, 0, 70, 80
2, 21949, Note_on_c, 0, 74, 80
2, 21961, Note_on_c, 0, 77, 80
2, 21983, Note_on_c, 0, 46, 80
2, 21986, Note_on_c, 0, 58, 80
2, 21990, Note_on_c, 0, 50, 0
2, 21991, Note_on_c, 0, 62, 0
2, 22019, Note_on_c, 0, 45, 80
2, 22019, Note_on_c, 0, 57, 80
2, 22022, Note_on_c, 0, 58, 0
2, 22022, Note_on_c, 0, 46, 0
2, 22056, Note_on_c, 0, 45, 0
2, 22056, Note_on_c, 0, 43, 80
2, 22056, Note_on_c, 0, 55, 80
2, 22064, Note_on_c, 0, 57, 0
2, 22093, Note_on_c, 0, 41, 80
2, 22093, Note_on_c, 0, 53, 80
2, 22094, Note_on_c, 0, 43, 0
2, 22095, Note_on_c, 0, 70, 0
2, 22096, Note_on_c, 0, 55, 0
2, 22117, Note_on_c, 0, 74, 0
2, 22117, Note_on_c, 0, 77, 0
2, 22119, Note_on_c, 0, 65, 0
2, 22126, Note_on_c, 0, 50, 80
2, 22126, Note_on_c, 0, 70, 80
2, 22128, Note_on_c, 0, 38, 80
2, 22128, Note_on_c, 0, 58, 80
2, 22129, Note_on_c, 0, 41, 0
2, 22133, Note_on_c, 0, 53, 0
2, 22164, Note_on_c, 0, 60, 80
2, 22164, Note_on_c, 0, 72, 80
2, 22167, Note_on_c, 0, 38, 0
2, 22168, Note_on_c, 0, 39, 80
2, 22168, Note_on_c, 0, 51, 80
2, 22169, Note_on_c, 0, 70, 0
2, 22169, Note_on_c, 0, 58, 0
2, 22172, Note_on_c, 0, 50, 0
2, 22196, Note_on_c, 0, 39, 0
2, 22196, Note_on_c, 0, 51, 0
2, 22199, Note_on_c, 0, 61, 80
2, 22202, Note_on_c, 0, 52, 80
2, 22203, Note_on_c, 0, 40, 80
2, 22203, Note_on_c, 0, 73, 80
2, 22205, Note_on_c, 0, 60, 0
2, 22206, Note_on_c, 0, 72, 0
2, 22232, Note_on_c, 0, 73, 0
2, 22233, Note_on_c, 0, 61, 0
2, 22238, Note_on_c, 0, 41, 80
2, 22238, Note_on_c, 0, 62, 80
2, 22239, Note_on_c, 0, 40, 0
2, 22240, Note_on_c, 0, 53, 80
2, 22240, Note_on_c, 0, 74, 80
2, 22241, Note_on_c, 0, 52, 0
2, 22276, Note_on_c, 0, 70, 80
2, 22277, Note_on_c, 0, 74, 0
2, 22279, Note_on_c, 0, 62, 0
2, 22302, Note_on_c, 0, 53, 0
2, 22304, Note_on_c, 0, 41, 0
2, 22306, Note_on_c, 0, 60, 80
2, 22310, Note_on_c, 0, 42, 80
2, 22310, Note_on_c, 0, 54, 80
2, 22310, Note_on_c, 0, 63, 80
2, 22317, Note_on_c, 0, 70, 0
2, 22324, Note_on_c, 0, 72, 80
2, 22346, Note_on_c, 0, 70, 80
2, 22347, Note_on_c, 0, 60, 0
2, 22347, Note_on_c, 0, 43, 80
2, 22347, Note_on_c, 0, 55, 80
2, 22347, Note_on_c, 0, 58, 80
2, 22347, Note_on_c, 0, 62, 80
2, 22348, Note_on_c, 0, 42, 0
2, 22349, Note_on_c, 0, 63, 0
2, 22350, Note_on_c, 0, 54, 0
2, 22353, Note_on_c, 0, 72, 0
2, 22386, Note_on_c, 0, 58, 0
2, 22416, Note_on_c, 0, 70, 0
2, 22419, Note_on_c, 0, 62, 0
2, 22419, Note_on_c, 0, 46, 80
2, 22420, Note_on_c, 0, 58, 80
2, 22420, Note_on_c, 0, 67, 80
2, 22421, Note_on_c, 0, 43, 0
2, 22422, Note_on_c, 0, 55, 0
2, 22453, Note_on_c, 0, 50, 80
2, 22453, Note_on_c, 0, 62, 80
2, 22454, Note_on_c, 0, 65, 80
2, 22457, Note_on_c, 0, 46, 0
2, 22458, Note_on_c, 0, 58, 0
2, 22459, Note_on_c, 0, 67, 0
2, 22464, Note_on_c, 0, 70, 80
2, 22490, Note_on_c, 0, 49, 80
2, 22491, Note_on_c, 0, 61, 80
2, 22493, Note_on_c, 0, 50, 0
2, 22500, Note_on_c, 0, 65, 0
2, 22500, Note_on_c, 0, 62, 0
2, 22515, Note_on_c, 0, 70, 0
2, 22520, Note_on_c, 0, 61, 0
2, 22521, Note_on_c, 0, 49, 0
2, 22522, Note_on_c, 0, 60, 80
2, 22525, Note_on_c, 0, 48, 80
2, 22526, Note_on_c, 0, 65, 80
2, 22538, Note_on_c, 0, 69, 80
2, 22561, Note_on_c, 0, 77, 80
2, 22567, Note_on_c, 0, 69, 0
2, 22567, Note_on_c, 0, 60, 0
2, 22570, Note_on_c, 0, 65, 0
2, 22596, Note_on_c, 0, 60, 80
2, 22596, Note_on_c, 0, 65, 80
2, 22600, Note_on_c, 0, 57, 80
2, 22601, Note_on_c, 0, 69, 80
2, 22603, Note_on_c, 0, 77, 0
2, 22611, Note_on_c, 0, 72, 80
2, 22631, Note_on_c, 0, 48, 0
2, 22638, Note_on_c, 0, 69, 0
2, 22638, Note_on_c, 0, 72, 0
2, 22638, Note_on_c, 0, 64, 80
2, 22638, Note_on_c, 0, 70, 80
2, 22642, Note_on_c, 0, 65, 0
2, 22645, Note_on_c, 0, 74, 80
2, 22650, Note_on_c, 0, 60, 0
2, 22652, Note_on_c, 0, 57, 0
2, 22673, Note_on_c, 0, 48, 80
2, 22677, Note_on_c, 0, 70, 0
2, 22705, Note_on_c, 0, 74, 0
2, 22706, Note_on_c, 0, 64, 0
2, 22709, Note_on_c, 0, 70, 80
2, 22744, Note_on_c, 0, 60, 80
2, 22747, Note_on_c, 0, 58, 80
2, 22747, Note_on_c, 0, 64, 80
2, 22750, Note_on_c, 0, 70, 0
2, 22753, Note_on_c, 0, 67, 80
2, 22779, Note_on_c, 0, 48, 0
2, 22785, Note_on_c, 0, 60, 0
2, 22794, Note_on_c, 0, 58, 0
2, 22802, Note_on_c, 0, 67, 0
2, 22803, Note_on_c, 0, 64, 0
2, 22816, Note_on_c, 0, 53, 80
2, 22817, Note_on_c, 0, 65, 80
2, 22818, Note_on_c, 0, 57, 80
2, 22824, Note_on_c, 0, 60, 80
2, 22857, Note_on_c, 0, 57, 0
2, 22869, Note_on_c, 0, 53, 0
2, 22870, Note_on_c, 0, 60, 0
2, 22888, Note_on_c, 0, 65, 0
2, 22888, Note_on_c, 0, 57, 80
2, 22888, Note_on_c, 0, 72, 80
2, 22891, Note_on_c, 0, 45, 80
2, 22925, Note_on_c, 0, 77, 80
2, 22926, Note_on_c, 0, 72, 0
2, 22956, Note_on_c, 0, 60, 80
2, 22957, Note_on_c, 0, 57, 0
2, 22958, Note_on_c, 0, 48, 80
2, 22962, Note_on_c, 0, 45, 0
2, 22994, Note_on_c, 0, 69, 80
2, 22998, Note_on_c, 0, 77, 0
2, 23026, Note_on_c, 0, 60, 0
2, 23028, Note_on_c, 0, 51, 80
2, 23031, Note_on_c, 0, 63, 80
2, 23032, Note_on_c, 0, 48, 0
2, 23032, Note_on_c, 0, 72, 80
2, 23035, Note_on_c, 0, 69, 0
2, 23067, Note_on_c, 0, 77, 80
2, 23068, Note_on_c, 0, 72, 0
2, 23080, Note_on_c, 0, 77, 0
2, 23098, Note_on_c, 0, 51, 0
2, 23099, Note_on_c, 0, 63, 0
2, 23105, Note_on_c, 0, 50, 80
2, 23105, Note_on_c, 0, 62, 80
2, 23105, Note_on_c, 0, 65, 80
2, 23105, Note_on_c, 0, 70, 80
2, 23106, Note_on_c, 0, 74, 80
2, 23111, Note_on_c, 0, 77, 80
2, 23141, Note_on_c, 0, 46, 80
2, 23141, Note_on_c, 0, 58, 80
2, 23144, Note_on_c, 0, 62, 0
2, 23145, Note_on_c, 0, 50, 0
2, 23175, Note_on_c, 0, 45, 80
2, 23175, Note_on_c, 0, 57, 80
2, 23177, Note_on_c, 0, 46, 0
2, 23178, Note_on_c, 0, 58, 0
2, 23211, Note_on_c, 0, 55, 80
2, 23213, Note_on_c, 0, 45, 0
2, 23213, Note_on_c, 0, 43, 80
2, 23216, Note_on_c, 0, 57, 0
2, 23245, Note_on_c, 0, 41, 80
2, 23248, Note_on_c, 0, 53, 80
2, 23250, Note_on_c, 0, 55, 0
2, 23251, Note_on_c, 0, 74, 0
2, 23251, Note_on_c, 0, 43, 0
2, 23261, Note_on_c, 0, 70, 0
2, 23262, Note_on_c, 0, 65, 0
2, 23267, Note_on_c, 0, 77, 0
2, 23281, Note_on_c, 0, 62, 80
2, 23284, Note_on_c, 0, 46, 80
2, 23284, Note_on_c, 0, 58, 80
2, 23284, Note_on_c, 0, 74, 80
2, 23285, Note_on_c, 0, 41, 0
2, 23289, Note_on_c, 0, 53, 0
2, 23319, Note_on_c, 0, 48, 80
2, 23319, Note_on_c, 0, 60, 80
2, 23320, Note_on_c, 0, 46, 0
2, 23320, Note_on_c, 0, 63, 80
2, 23320, Note_on_c, 0, 75, 80
2, 23321, Note_on_c, 0, 58, 0
2, 23322, Note_on_c, 0, 62, 0
2, 23325, Note_on_c, 0, 74, 0
2, 23351, Note_on_c, 0, 60, 0
2, 23351, Note_on_c, 0, 63, 0
2, 23355, Note_on_c, 0, 49, 80
2, 23355, Note_on_c, 0, 64, 80
2, 23355, Note_on_c, 0, 76, 80
2, 23356, Note_on_c, 0, 61, 80
2, 23357, Note_on_c, 0, 48, 0
2, 23360, Note_on_c, 0, 75, 0
2, 23387, Note_on_c, 0, 76, 0
2, 23388, Note_on_c, 0, 49, 0
2, 23389, Note_on_c, 0, 50, 80
2, 23392, Note_on_c, 0, 62, 80
2, 23393, Note_on_c, 0, 65, 80
2, 23394, Note_on_c, 0, 64, 0
2, 23396, Note_on_c, 0, 61, 0
2, 23399, Note_on_c, 0, 77, 80
2, 23428, Note_on_c, 0, 70, 80
2, 23428, Note_on_c, 0, 74, 80
2, 23430, Note_on_c, 0, 77, 0
2, 23438, Note_on_c, 0, 65, 0
2, 23459, Note_on_c, 0, 62, 0
2, 23460, Note_on_c, 0, 60, 80
2, 23461, Note_on_c, 0, 74, 0
2, 23461, Note_on_c, 0, 63, 80
2, 23461, Note_on_c, 0, 75, 80
2, 23463, Note_on_c, 0, 48, 80
2, 23464, Note_on_c, 0, 69, 80
2, 23465, Note_on_c, 0, 70, 0
2, 23465, Note_on_c, 0, 50, 0
2, 23493, Note_on_c, 0, 75, 0
2, 23493, Note_on_c, 0, 69, 0
2, 23493, Note_on_c, 0, 62, 80
2, 23497, Note_on_c, 0, 63, 0
2, 23498, Note_on_c, 0, 70, 80
2, 23498, Note_on_c, 0, 74, 80
2, 23524, Note_on_c, 0, 70, 0
2, 23531, Note_on_c, 0, 46, 80
2, 23531, Note_on_c, 0, 58, 80
2, 23534, Note_on_c, 0, 62, 0
2, 23534, Note_on_c, 0, 74, 0
2, 23534, Note_on_c, 0, 48, 0
2, 23537, Note_on_c, 0, 60, 0
2, 23566, Note_on_c, 0, 74, 80
2, 23568, Note_on_c, 0, 58, 0
2, 23600, Note_on_c, 0, 77, 80
2, 23603, Note_on_c, 0, 74, 0
2, 23603, Note_on_c, 0, 53, 80
2, 23603, Note_on_c, 0, 58, 80
2, 23611, Note_on_c, 0, 62, 80
2, 23623, Note_on_c, 0, 46, 0
2, 23636, Note_on_c, 0, 80, 80
2, 23641, Note_on_c, 0, 77, 0
2, 23656, Note_on_c, 0, 58, 0
2, 23659, Note_on_c, 0, 53, 0
2, 23664, Note_on_c, 0, 62, 0
2, 23675, Note_on_c, 0, 80, 0
2, 23675, Note_on_c, 0, 39, 80
2, 23675, Note_on_c, 0, 51, 80
2, 23713, Note_on_c, 0, 75, 80
2, 23713, Note_on_c, 0, 79, 80
2, 23743, Note_on_c, 0, 55, 80
2, 23743, Note_on_c, 0, 58, 80
2, 23745, Note_on_c, 0, 70, 80
2, 23745, Note_on_c, 0, 82, 80
2, 23746, Note_on_c, 0, 75, 0
2, 23749, Note_on_c, 0, 79, 0
2, 23753, Note_on_c, 0, 63, 80
2, 23764, Note_on_c, 0, 39, 0
2, 23770, Note_on_c, 0, 51, 0
2, 23778, Note_on_c, 0, 75, 80
2, 23780, Note_on_c, 0, 79, 80
2, 23781, Note_on_c, 0, 82, 0
2, 23781, Note_on_c, 0, 70, 0
2, 23787, Note_on_c, 0, 55, 0
2, 23791, Note_on_c, 0, 58, 0
2, 23803, Note_on_c, 0, 63, 0
2, 23813, Note_on_c, 0, 84, 80
2, 23815, Note_on_c, 0, 39, 80
2, 23815, Note_on_c, 0, 51, 80
2, 23815, Note_on_c, 0, 72, 80
2, 23818, Note_on_c, 0, 75, 0
2, 23819, Note_on_c, 0, 79, 0
2, 23852, Note_on_c, 0, 70, 80
2, 23853, Note_on_c, 0, 84, 0
2, 23853, Note_on_c, 0, 72, 0
2, 23861, Note_on_c, 0, 82, 80
2, 23881, Note_on_c, 0, 51, 0
2, 23886, Note_on_c, 0, 43, 80
2, 23886, Note_on_c, 0, 55, 80
2, 23888, Note_on_c, 0, 39, 0
2, 23891, Note_on_c, 0, 70, 0
2, 23918, Note_on_c, 0, 82, 0
2, 23921, Note_on_c, 0, 74, 80
2, 23921, Note_on_c, 0, 77, 80
2, 23923, Note_on_c, 0, 65, 80
2, 23923, Note_on_c, 0, 70, 80
2, 23951, Note_on_c, 0, 55, 0
2, 23951, Note_on_c, 0, 43, 0
2, 23955, Note_on_c, 0, 46, 80
2, 23955, Note_on_c, 0, 58, 80
2, 23960, Note_on_c, 0, 74, 0
2, 23977, Note_on_c, 0, 70, 0
2, 23989, Note_on_c, 0, 77, 0
2, 23992, Note_on_c, 0, 65, 0
2, 23992, Note_on_c, 0, 74, 80
2, 24023, Note_on_c, 0, 46, 0
2, 24024, Note_on_c, 0, 58, 0
2, 24028, Note_on_c, 0, 44, 80
2, 24028, Note_on_c, 0, 56, 80
2, 24029, Note_on_c, 0, 77, 80
2, 24032, Note_on_c, 0, 74, 0
2, 24063, Note_on_c, 0, 65, 80
2, 24068, Note_on_c, 0, 77, 0
2, 24094, Note_on_c, 0, 44, 0
2, 24101, Note_on_c, 0, 56, 0
2, 24101, Note_on_c, 0, 43, 80
2, 24101, Note_on_c, 0, 55, 80
2, 24103, Note_on_c, 0, 70, 80
2, 24108, Note_on_c, 0, 65, 0
2, 24138, Note_on_c, 0, 74, 80
2, 24144, Note_on_c, 0, 70, 0
2, 24168, Note_on_c, 0, 43, 0
2, 24168, Note_on_c, 0, 55, 0
2, 24171, Note_on_c, 0, 41, 80
2, 24172, Note_on_c, 0, 77, 80
2, 24176, Note_on_c, 0, 53, 80
2, 24179, Note_on_c, 0, 74, 0
2, 24210, Note_on_c, 0, 80, 80
2, 24215, Note_on_c, 0, 77, 0
2, 24240, Note_on_c, 0, 41, 0
2, 24244, Note_on_c, 0, 53, 0
2, 24246, Note_on_c, 0, 39, 80
2, 24246, Note_on_c, 0, 51, 80
2, 24250, Note_on_c, 0, 80, 0
2, 24283, Note_on_c, 0, 75, 80
2, 24283, Note_on_c, 0, 79, 80
2, 24320, Note_on_c, 0, 82, 80
2, 24323, Note_on_c, 0, 55, 80
2, 24323, Note_on_c, 0, 58, 80
2, 24323, Note_on_c, 0, 70, 80
2, 24326, Note_on_c, 0, 79, 0
2, 24326, Note_on_c, 0, 75, 0
2, 24330, Note_on_c, 0, 63, 80
2, 24347, Note_on_c, 0, 51, 0
2, 24352, Note_on_c, 0, 39, 0
2, 24355, Note_on_c, 0, 75, 80
2, 24358, Note_on_c, 0, 79, 80
2, 24359, Note_on_c, 0, 70, 0
2, 24361, Note_on_c, 0, 82, 0
2, 24377, Note_on_c, 0, 55, 0
2, 24379, Note_on_c, 0, 58, 0
2, 24379, Note_on_c, 0, 63, 0
2, 24391, Note_on_c, 0, 39, 80
2, 24391, Note_on_c, 0, 51, 80
2, 24392, Note_on_c, 0, 72, 80
2, 24392, Note_on_c, 0, 84, 80
2, 24393, Note_on_c, 0, 75, 0
2, 24395, Note_on_c, 0, 79, 0
2, 24428, Note_on_c, 0, 70, 80
2, 24428, Note_on_c, 0, 82, 80
2, 24431, Note_on_c, 0, 72, 0
2, 24431, Note_on_c, 0, 84, 0
2, 24457, Note_on_c, 0, 39, 0
2, 24461, Note_on_c, 0, 37, 80
2, 24461, Note_on_c, 0, 49, 80
2, 24465, Note_on_c, 0, 51, 0
2, 24469, Note_on_c, 0, 70, 0
2, 24497, Note_on_c, 0, 82, 0
2, 24498, Note_on_c, 0, 77, 80
2, 24501, Note_on_c, 0, 65, 80
2, 24501, Note_on_c, 0, 70, 80
2, 24510, Note_on_c, 0, 74, 80
2, 24530, Note_on_c, 0, 37, 0
2, 24530, Note_on_c, 0, 49, 0
2, 24536, Note_on_c, 0, 38, 80
2, 24537, Note_on_c, 0, 50, 80
2, 24538, Note_on_c, 0, 70, 0
2, 24543, Note_on_c, 0, 74, 0
2, 24550, Note_on_c, 0, 65, 0
2, 24558, Note_on_c, 0, 77, 0
2, 24572, Note_on_c, 0, 70, 80
2, 24572, Note_on_c, 0, 74, 80
2, 24581, Note_on_c, 0, 70, 0
2, 24585, Note_on_c, 0, 74, 0
2, 24596, Note_on_c, 0, 32, 80
2, 24603, Note_on_c, 0, 50, 0
2, 24608, Note_on_c, 0, 44, 80
2, 24608, Note_on_c, 0, 65, 80
2, 24609, Note_on_c, 0, 70, 80
2, 24609, Note_on_c, 0, 74, 80
2, 24610, Note_on_c, 0, 38, 0
2, 24615, Note_on_c, 0, 77, 80
2, 24623, Note_on_c, 0, 74, 0
2, 24642, Note_on_c, 0, 71, 80
2, 24643, Note_on_c, 0, 67, 80
2, 24643, Note_on_c, 0, 74, 80
2, 24644, Note_on_c, 0, 77, 0
2, 24648, Note_on_c, 0, 70, 0
2, 24649, Note_on_c, 0, 65, 0
2, 24653, Note_on_c, 0, 79, 80
2, 24670, Note_on_c, 0, 32, 0
2, 24671, Note_on_c, 0, 44, 0
2, 24677, Note_on_c, 0, 31, 80
2, 24677, Note_on_c, 0, 43, 80
2, 24680, Note_on_c, 0, 74, 0
2, 24691, Note_on_c, 0, 71, 0
2, 24700, Note_on_c, 0, 67, 0
2, 24700, Note_on_c, 0, 79, 0
2, 24716, Note_on_c, 0, 74, 80
2, 24749, Note_on_c, 0, 55, 80
2, 24752, Note_on_c, 0, 59, 80
2, 24752, Note_on_c, 0, 62, 80
2, 24752, Note_on_c, 0, 65, 80
2, 24754, Note_on_c, 0, 74, 0
2, 24761, Note_on_c, 0, 71, 80
2, 24781, Note_on_c, 0, 43, 0
2, 24787, Note_on_c, 0, 55, 0
2, 24787, Note_on_c, 0, 31, 0
2, 24787, Note_on_c, 0, 67, 80
2, 24788, Note_on_c, 0, 59, 0
2, 24789, Note_on_c, 0, 71, 0
2, 24791, Note_on_c, 0, 62, 0
2, 24792, Note_on_c, 0, 65, 0
2, 24821, Note_on_c, 0, 48, 80
2, 24821, Note_on_c, 0, 58, 80
2, 24821, Note_on_c, 0, 64, 80
2, 24825, Note_on_c, 0, 55, 80
2, 24826, Note_on_c, 0, 67, 0
2, 24835, Note_on_c, 0, 72, 80
2, 24858, Note_on_c, 0, 67, 80
2, 24860, Note_on_c, 0, 72, 0
2, 24861, Note_on_c, 0, 55, 0
2, 24862, Note_on_c, 0, 64, 0
2, 24878, Note_on_c, 0, 48, 0
2, 24889, Note_on_c, 0, 58, 0
2, 24890, Note_on_c, 0, 60, 80
2, 24893, Note_on_c, 0, 55, 80
2, 24895, Note_on_c, 0, 64, 80
2, 24898, Note_on_c, 0, 67, 0
2, 24906, Note_on_c, 0, 70, 80
2, 24934, Note_on_c, 0, 60, 0
2, 24951, Note_on_c, 0, 55, 0
2, 24962, Note_on_c, 0, 70, 0
2, 24963, Note_on_c, 0, 64, 0
2, 24963, Note_on_c, 0, 53, 80
2, 24963, Note_on_c, 0, 60, 80
2, 24966, Note_on_c, 0, 63, 80
2, 24978, Note_on_c, 0, 69, 80
2, 25003, Note_on_c, 0, 77, 80
2, 25004, Note_on_c, 0, 69, 0
2, 25004, Note_on_c, 0, 63, 0
2, 25004, Note_on_c, 0, 60, 0
2, 25007, Note_on_c, 0, 53, 0
2, 25038, Note_on_c, 0, 75, 80
2, 25041, Note_on_c, 0, 53, 80
2, 25041, Note_on_c, 0, 57, 80
2, 25042, Note_on_c, 0, 77, 0
2, 25049, Note_on_c, 0, 63, 80
2, 25076, Note_on_c, 0, 75, 0
2, 25076, Note_on_c, 0, 72, 80
2, 25097, Note_on_c, 0, 63, 0
2, 25098, Note_on_c, 0, 57, 0
2, 25098, Note_on_c, 0, 53, 0
2, 25109, Note_on_c, 0, 58, 80
2, 25112, Note_on_c, 0, 62, 80
2, 25114, Note_on_c, 0, 72, 0
2, 25121, Note_on_c, 0, 70, 80
2, 25182, Note_on_c, 0, 41, 80
2, 25182, Note_on_c, 0, 53, 80
2, 25188, Note_on_c, 0, 58, 0
2, 25218, Note_on_c, 0, 55, 80
2, 25220, Note_on_c, 0, 41, 0
2, 25220, Note_on_c, 0, 43, 80
2, 25225, Note_on_c, 0, 53, 0
2, 25252, Note_on_c, 0, 70, 0
2, 25253, Note_on_c, 0, 43, 0
2, 25253, Note_on_c, 0, 62, 0
2, 25260, Note_on_c, 0, 57, 80
2, 25261, Note_on_c, 0, 45, 80
2, 25268, Note_on_c, 0, 55, 0
2, 25393, Note_on_c, 0, 58, 80
2, 25396, Note_on_c, 0, 45, 0
2, 25396, Note_on_c, 0, 46, 80
2, 25401, Note_on_c, 0, 57, 0
2, 25420, Note_on_c, 0, 60, 80
2, 25421, Note_on_c, 0, 48, 80
2, 25422, Note_on_c, 0, 46, 0
2, 25422, Note_on_c, 0, 58, 0
2, 25445, Note_on_c, 0, 49, 80
2, 25445, Note_on_c, 0, 61, 80
2, 25448, Note_on_c, 0, 60, 0
2, 25448, Note_on_c, 0, 48, 0
2, 25467, Note_on_c, 0, 62, 80
2, 25468, Note_on_c, 0, 65, 80
2, 25470, Note_on_c, 0, 50, 80
2, 25470, Note_on_c, 0, 69, 80
2, 25471, Note_on_c, 0, 49, 0
2, 25471, Note_on_c, 0, 74, 80
2, 25473, Note_on_c, 0, 61, 0
2, 25475, Note_on_c, 0, 77, 80
2, 25485, Note_on_c, 0, 58, 80
2, 25492, Note_on_c, 0, 46, 80
2, 25496, Note_on_c, 0, 50, 0
2, 25496, Note_on_c, 0, 62, 0
2, 25514, Note_on_c, 0, 45, 80
2, 25517, Note_on_c, 0, 57, 80
2, 25518, Note_on_c, 0, 46, 0
2, 25519, Note_on_c, 0, 58, 0
2, 25538, Note_on_c, 0, 55, 80
2, 25542, Note_on_c, 0, 57, 0
2, 25542, Note_on_c, 0, 45, 0
2, 25542, Note_on_c, 0, 43, 80
2, 25563, Note_on_c, 0, 53, 80
2, 25565, Note_on_c, 0, 41, 80
2, 25567, Note_on_c, 0, 55, 0
2, 25569, Note_on_c, 0, 43, 0
2, 25583, Note_on_c, 0, 69, 0
2, 25583, Note_on_c, 0, 77, 0
2, 25586, Note_on_c, 0, 65, 0
2, 25586, Note_on_c, 0, 46, 80
2, 25591, Note_on_c, 0, 62, 80
2, 25595, Note_on_c, 0, 58, 80
2, 25597, Note_on_c, 0, 41, 0
2, 25599, Note_on_c, 0, 53, 0
2, 25621, Note_on_c, 0, 48, 80
2, 25621, Note_on_c, 0, 63, 80
2, 25630, Note_on_c, 0, 46, 0
2, 25630, Note_on_c, 0, 60, 80
2, 25632, Note_on_c, 0, 74, 0
2, 25633, Note_on_c, 0, 58, 0
2, 25638, Note_on_c, 0, 62, 0
2, 25638, Note_on_c, 0, 75, 80
2, 25658, Note_on_c, 0, 60, 0
2, 25662, Note_on_c, 0, 63, 0
2, 25664, Note_on_c, 0, 61, 80
2, 25665, Note_on_c, 0, 49, 80
2, 25666, Note_on_c, 0, 64, 80
2, 25667, Note_on_c, 0, 48, 0
2, 25667, Note_on_c, 0, 75, 0
2, 25675, Note_on_c, 0, 76, 80
2, 25701, Note_on_c, 0, 50, 80
2, 25701, Note_on_c, 0, 62, 80
2, 25701, Note_on_c, 0, 65, 80
2, 25702, Note_on_c, 0, 64, 0
2, 25704, Note_on_c, 0, 76, 0
2, 25706, Note_on_c, 0, 49, 0
2, 25707, Note_on_c, 0, 61, 0
2, 25710, Note_on_c, 0, 77, 80
2, 25739, Note_on_c, 0, 70, 80
2, 25743, Note_on_c, 0, 77, 0
2, 25743, Note_on_c, 0, 74, 80
2, 25747, Note_on_c, 0, 65, 0
2, 25747, Note_on_c, 0, 62, 0
2, 25773, Note_on_c, 0, 70, 0
2, 25774, Note_on_c, 0, 60, 80
2, 25775, Note_on_c, 0, 48, 80
2, 25778, Note_on_c, 0, 74, 0
2, 25778, Note_on_c, 0, 63, 80
2, 25778, Note_on_c, 0, 69, 80
2, 25779, Note_on_c, 0, 50, 0
2, 25786, Note_on_c, 0, 75, 80
2, 25803, Note_on_c, 0, 70, 80
2, 25809, Note_on_c, 0, 62, 80
2, 25811, Note_on_c, 0, 75, 0
2, 25816, Note_on_c, 0, 63, 0
2, 25816, Note_on_c, 0, 69, 0
2, 25825, Note_on_c, 0, 74, 80
2, 25844, Note_on_c, 0, 60, 0
2, 25850, Note_on_c, 0, 74, 0
2, 25850, Note_on_c, 0, 46, 80
2, 25850, Note_on_c, 0, 58, 80
2, 25852, Note_on_c, 0, 70, 0
2, 25856, Note_on_c, 0, 48, 0
2, 25856, Note_on_c, 0, 62, 0
2, 25886, Note_on_c, 0, 74, 80
2, 25889, Note_on_c, 0, 58, 0
2, 25923, Note_on_c, 0, 53, 80
2, 25923, Note_on_c, 0, 58, 80
2, 25923, Note_on_c, 0, 77, 80
2, 25926, Note_on_c, 0, 74, 0
2, 25933, Note_on_c, 0, 62, 80
2, 25951, Note_on_c, 0, 46, 0
2, 25958, Note_on_c, 0, 80, 80
2, 25962, Note_on_c, 0, 77, 0
2, 25979, Note_on_c, 0, 58, 0
2, 25987, Note_on_c, 0, 62, 0
2, 25987, Note_on_c, 0, 53, 0
2, 25998, Note_on_c, 0, 39, 80
2, 25998, Note_on_c, 0, 51, 80
2, 25999, Note_on_c, 0, 80, 0
2, 26033, Note_on_c, 0, 75, 80
2, 26034, Note_on_c, 0, 79, 80
2, 26070, Note_on_c, 0, 55, 80
2, 26070, Note_on_c, 0, 58, 80
2, 26070, Note_on_c, 0, 70, 80
2, 26070, Note_on_c, 0, 82, 80
2, 26074, Note_on_c, 0, 75, 0
2, 26077, Note_on_c, 0, 79, 0
2, 26081, Note_on_c, 0, 63, 80
2, 26100, Note_on_c, 0, 51, 0
2, 26105, Note_on_c, 0, 75, 80
2, 26106, Note_on_c, 0, 70, 0
2, 26107, Note_on_c, 0, 39, 0
2, 26108, Note_on_c, 0, 82, 0
2, 26108, Note_on_c, 0, 79, 80
2, 26116, Note_on_c, 0, 55, 0
2, 26116, Note_on_c, 0, 58, 0
2, 26128, Note_on_c, 0, 63, 0
2, 26136, Note_on_c, 0, 75, 0
2, 26140, Note_on_c, 0, 72, 80
2, 26140, Note_on_c, 0, 84, 80
2, 26143, Note_on_c, 0, 39, 80
2, 26143, Note_on_c, 0, 51, 80
2, 26147, Note_on_c, 0, 79, 0
2, 26180, Note_on_c, 0, 82, 80
2, 26181, Note_on_c, 0, 72, 0
2, 26182, Note_on_c, 0, 70, 80
2, 26183, Note_on_c, 0, 84, 0
2, 26209, Note_on_c, 0, 51, 0
2, 26214, Note_on_c, 0, 37, 80
2, 26214, Note_on_c, 0, 49, 80
2, 26217, Note_on_c, 0, 39, 0
2, 26218, Note_on_c, 0, 70, 0
2, 26245, Note_on_c, 0, 82, 0
2, 26253, Note_on_c, 0, 65, 80
2, 26253, Note_on_c, 0, 70, 80
2, 26253, Note_on_c, 0, 74, 80
2, 26260, Note_on_c, 0, 77, 80
2, 26280, Note_on_c, 0, 37, 0
2, 26283, Note_on_c, 0, 49, 0
2, 26286, Note_on_c, 0, 38, 80
2, 26290, Note_on_c, 0, 50, 80
2, 26356, Note_on_c, 0, 41, 80
2, 26359, Note_on_c, 0, 53, 80
2, 26360, Note_on_c, 0, 38, 0
2, 26364, Note_on_c, 0, 50, 0
2, 26393, Note_on_c, 0, 46, 80
2, 26394, Note_on_c, 0, 58, 80
2, 26395, Note_on_c, 0, 41, 0
2, 26402, Note_on_c, 0, 53, 0
2, 26425, Note_on_c, 0, 60, 80
2, 26430, Note_on_c, 0, 48, 80
2, 26433, Note_on_c, 0, 58, 0
2, 26433, Note_on_c, 0, 46, 0
2, 26449, Note_on_c, 0, 70, 0
2, 26453, Note_on_c, 0, 74, 0
2, 26459, Note_on_c, 0, 77, 0
2, 26466, Note_on_c, 0, 65, 0
2, 26468, Note_on_c, 0, 69, 80
2, 26501, Note_on_c, 0, 63, 80
2, 26501, Note_on_c, 0, 72, 80
2, 26501, Note_on_c, 0, 51, 80
2, 26505, Note_on_c, 0, 60, 0
2, 26506, Note_on_c, 0, 48, 0
2, 26506, Note_on_c, 0, 69, 0
2, 26535, Note_on_c, 0, 77, 80
2, 26543, Note_on_c, 0, 72, 0
2, 26549, Note_on_c, 0, 77, 0
2, 26567, Note_on_c, 0, 51, 0
2, 26568, Note_on_c, 0, 63, 0
2, 26571, Note_on_c, 0, 65, 80
2, 26572, Note_on_c, 0, 50, 80
2, 26572, Note_on_c, 0, 62, 80
2, 26575, Note_on_c, 0, 70, 80
2, 26575, Note_on_c, 0, 74, 80
2, 26582, Note_on_c, 0, 77, 80
2, 26608, Note_on_c, 0, 46, 80
2, 26608, Note_on_c, 0, 58, 80
2, 26613, Note_on_c, 0, 50, 0
2, 26614, Note_on_c, 0, 62, 0
2, 26643, Note_on_c, 0, 45, 80
2, 26643, Note_on_c, 0, 57, 80
2, 26644, Note_on_c, 0, 46, 0
2, 26650, Note_on_c, 0, 58, 0
2, 26676, Note_on_c, 0, 45, 0
2, 26676, Note_on_c, 0, 55, 80
2, 26680, Note_on_c, 0, 43, 80
2, 26683, Note_on_c, 0, 57, 0
2, 26710, Note_on_c, 0, 70, 0
2, 26714, Note_on_c, 0, 43, 0
2, 26714, Note_on_c, 0, 41, 80
2, 26714, Note_on_c, 0, 53, 80
2, 26717, Note_on_c, 0, 55, 0
2, 26738, Note_on_c, 0, 74, 0
2, 26738, Note_on_c, 0, 77, 0
2, 26740, Note_on_c, 0, 65, 0
2, 26749, Note_on_c, 0, 38, 80
2, 26749, Note_on_c, 0, 50, 80
2, 26750, Note_on_c, 0, 41, 0
2, 26750, Note_on_c, 0, 58, 80
2, 26750, Note_on_c, 0, 70, 80
2, 26755, Note_on_c, 0, 53, 0
2, 26785, Note_on_c, 0, 51, 80
2, 26785, Note_on_c, 0, 60, 80
2, 26785, Note_on_c, 0, 72, 80
2, 26786, Note_on_c, 0, 38, 0
2, 26786, Note_on_c, 0, 39, 80
2, 26789, Note_on_c, 0, 70, 0
2, 26789, Note_on_c, 0, 58, 0
2, 26792, Note_on_c, 0, 50, 0
2, 26816, Note_on_c, 0, 51, 0
2, 26816, Note_on_c, 0, 39, 0
2, 26819, Note_on_c, 0, 73, 80
2, 26820, Note_on_c, 0, 52, 80
2, 26821, Note_on_c, 0, 61, 80
2, 26823, Note_on_c, 0, 60, 0
2, 26823, Note_on_c, 0, 40, 80
2, 26824, Note_on_c, 0, 72, 0
2, 26849, Note_on_c, 0, 73, 0
2, 26850, Note_on_c, 0, 61, 0
2, 26856, Note_on_c, 0, 41, 80
2, 26856, Note_on_c, 0, 53, 80
2, 26856, Note_on_c, 0, 62, 80
2, 26856, Note_on_c, 0, 74, 80
2, 26861, Note_on_c, 0, 40, 0
2, 26861, Note_on_c, 0, 52, 0
2, 26891, Note_on_c, 0, 70, 80
2, 26897, Note_on_c, 0, 62, 0
2, 26897, Note_on_c, 0, 74, 0
2, 26915, Note_on_c, 0, 53, 0
2, 26923, Note_on_c, 0, 60, 80
2, 26924, Note_on_c, 0, 41, 0
2, 26926, Note_on_c, 0, 42, 80
2, 26926, Note_on_c, 0, 54, 80
2, 26931, Note_on_c, 0, 63, 80
2, 26934, Note_on_c, 0, 70, 0
2, 26938, Note_on_c, 0, 72, 80
2, 26966, Note_on_c, 0, 43, 80
2, 26966, Note_on_c, 0, 55, 80
2, 26966, Note_on_c, 0, 58, 80
2, 26966, Note_on_c, 0, 62, 80
2, 26967, Note_on_c, 0, 72, 0
2, 26967, Note_on_c, 0, 60, 0
2, 26967, Note_on_c, 0, 42, 0
2, 26967, Note_on_c, 0, 70, 80
2, 26969, Note_on_c, 0, 54, 0
2, 26969, Note_on_c, 0, 63, 0
2, 27004, Note_on_c, 0, 58, 0
2, 27030, Note_on_c, 0, 70, 0
2, 27031, Note_on_c, 0, 62, 0
2, 27035, Note_on_c, 0, 67, 80
2, 27036, Note_on_c, 0, 46, 80
2, 27038, Note_on_c, 0, 58, 80
2, 27039, Note_on_c, 0, 55, 0
2, 27039, Note_on_c, 0, 43, 0
2, 27070, Note_on_c, 0, 65, 80
2, 27072, Note_on_c, 0, 50, 80
2, 27072, Note_on_c, 0, 62, 80
2, 27075, Note_on_c, 0, 67, 0
2, 27076, Note_on_c, 0, 46, 0
2, 27077, Note_on_c, 0, 58, 0
2, 27084, Note_on_c, 0, 70, 80
2, 27106, Note_on_c, 0, 61, 80
2, 27109, Note_on_c, 0, 49, 80
2, 27115, Note_on_c, 0, 62, 0
2, 27115, Note_on_c, 0, 50, 0
2, 27116, Note_on_c, 0, 65, 0
2, 27130, Note_on_c, 0, 70, 0
2, 27133, Note_on_c, 0, 49, 0
2, 27138, Note_on_c, 0, 61, 0
2, 27141, Note_on_c, 0, 60, 80
2, 27141, Note_on_c, 0, 65, 80
2, 27144, Note_on_c, 0, 48, 80
2, 27152, Note_on_c, 0, 69, 80
2, 27176, Note_on_c, 0, 77, 80
2, 27182, Note_on_c, 0, 60, 0
2, 27183, Note_on_c, 0, 69, 0
2, 27187, Note_on_c, 0, 65, 0
2, 27215, Note_on_c, 0, 60, 80
2, 27215, Note_on_c, 0, 65, 80
2, 27216, Note_on_c, 0, 57, 80
2, 27218, Note_on_c, 0, 69, 80
2, 27221, Note_on_c, 0, 77, 0
2, 27229, Note_on_c, 0, 72, 80
2, 27247, Note_on_c, 0, 48, 0
2, 27252, Note_on_c, 0, 72, 0
2, 27253, Note_on_c, 0, 70, 80
2, 27255, Note_on_c, 0, 64, 80
2, 27256, Note_on_c, 0, 69, 0
2, 27260, Note_on_c, 0, 60, 0
2, 27261, Note_on_c, 0, 65, 0
2, 27263, Note_on_c, 0, 74, 80
2, 27267, Note_on_c, 0, 57, 0
2, 27289, Note_on_c, 0, 70, 0
2, 27289, Note_on_c, 0, 48, 80
2, 27319, Note_on_c, 0, 64, 0
2, 27320, Note_on_c, 0, 74, 0
2, 27324, Note_on_c, 0, 70, 80
2, 27355, Note_on_c, 0, 58, 80
2, 27356, Note_on_c, 0, 60, 80
2, 27356, Note_on_c, 0, 64, 80
2, 27357, Note_on_c, 0, 70, 0
2, 27364, Note_on_c, 0, 67, 80
2, 27382, Note_on_c, 0, 48, 0
2, 27390, Note_on_c, 0, 60, 0
2, 27403, Note_on_c, 0, 58, 0
2, 27410, Note_on_c, 0, 67, 0
2, 27415, Note_on_c, 0, 64, 0
2, 27427, Note_on_c, 0, 53, 80
2, 27427, Note_on_c, 0, 57, 80
2, 27427, Note_on_c, 0, 65, 80
2, 27435, Note_on_c, 0, 60, 80
2, 27469, Note_on_c, 0, 57, 0
2, 27477, Note_on_c, 0, 53, 0
2, 27484, Note_on_c, 0, 60, 0
2, 27497, Note_on_c, 0, 57, 80
2, 27498, Note_on_c, 0, 65, 0
2, 27500, Note_on_c, 0, 72, 80
2, 27501, Note_on_c, 0, 45, 80
2, 27537, Note_on_c, 0, 77, 80
2, 27538, Note_on_c, 0, 72, 0
2, 27571, Note_on_c, 0, 57, 0
2, 27571, Note_on_c, 0, 60, 80
2, 27572, Note_on_c, 0, 45, 0
2, 27572, Note_on_c, 0, 48, 80
2, 27609, Note_on_c, 0, 77, 0
2, 27609, Note_on_c, 0, 69, 80
2, 27634, Note_on_c, 0, 60, 0
2, 27637, Note_on_c, 0, 51, 80
2, 27641, Note_on_c, 0, 63, 80
2, 27641, Note_on_c, 0, 72, 80
2, 27644, Note_on_c, 0, 69, 0
2, 27645, Note_on_c, 0, 48, 0
2, 27679, Note_on_c, 0, 72, 0
2, 27679, Note_on_c, 0, 77, 80
2, 27687, Note_on_c, 0, 77, 0
2, 27708, Note_on_c, 0, 51, 0
2, 27712, Note_on_c, 0, 63, 0
2, 27715, Note_on_c, 0, 50, 80
2, 27715, Note_on_c, 0, 62, 80
2, 27715, Note_on_c, 0, 65, 80
2, 27716, Note_on_c, 0, 70, 80
2, 27716, Note_on_c, 0, 74, 80
2, 27724, Note_on_c, 0, 77, 80
2, 27749, Note_on_c, 0, 46, 80
2, 27749, Note_on_c, 0, 58, 80
2, 27754, Note_on_c, 0, 50, 0
2, 27758, Note_on_c, 0, 62, 0
2, 27786, Note_on_c, 0, 57, 80
2, 27787, Note_on_c, 0, 45, 80
2, 27790, Note_on_c, 0, 58, 0
2, 27790, Note_on_c, 0, 46, 0
2, 27822, Note_on_c, 0, 43, 80
2, 27822, Note_on_c, 0, 55, 80
2, 27825, Note_on_c, 0, 45, 0
2, 27831, Note_on_c, 0, 57, 0
2, 27857, Note_on_c, 0, 43, 0
2, 27860, Note_on_c, 0, 41, 80
2, 27860, Note_on_c, 0, 53, 80
2, 27861, Note_on_c, 0, 55, 0
2, 27863, Note_on_c, 0, 74, 0
2, 27867, Note_on_c, 0, 70, 0
2, 27876, Note_on_c, 0, 65, 0
2, 27882, Note_on_c, 0, 77, 0
2, 27894, Note_on_c, 0, 58, 80
2, 27894, Note_on_c, 0, 62, 80
2, 27895, Note_on_c, 0, 41, 0
2, 27896, Note_on_c, 0, 46, 80
2, 27896, Note_on_c, 0, 74, 80
2, 27901, Note_on_c, 0, 53, 0
2, 27930, Note_on_c, 0, 60, 80
2, 27933, Note_on_c, 0, 63, 80
2, 27934, Note_on_c, 0, 48, 80
2, 27934, Note_on_c, 0, 75, 80
2, 27935, Note_on_c, 0, 74, 0
2, 27937, Note_on_c, 0, 46, 0
2, 27937, Note_on_c, 0, 62, 0
2, 27937, Note_on_c, 0, 58, 0
2, 27961, Note_on_c, 0, 60, 0
2, 27962, Note_on_c, 0, 63, 0
2, 27967, Note_on_c, 0, 61, 80
2, 27967, Note_on_c, 0, 64, 80
2, 27968, Note_on_c, 0, 49, 80
2, 27968, Note_on_c, 0, 76, 80
2, 27970, Note_on_c, 0, 75, 0
2, 27971, Note_on_c, 0, 48, 0
2, 27996, Note_on_c, 0, 76, 0
2, 27997, Note_on_c, 0, 49, 0
2, 28001, Note_on_c, 0, 65, 80
2, 28002, Note_on_c, 0, 50, 80
2, 28003, Note_on_c, 0, 62, 80
2, 28006, Note_on_c, 0, 64, 0
2, 28008, Note_on_c, 0, 61, 0
2, 28012, Note_on_c, 0, 77, 80
2, 28038, Note_on_c, 0, 74, 80
2, 28041, Note_on_c, 0, 70, 80
2, 28043, Note_on_c, 0, 77, 0
2, 28047, Note_on_c, 0, 65, 0
2, 28072, Note_on_c, 0, 62, 0
2, 28072, Note_on_c, 0, 60, 80
2, 28072, Note_on_c, 0, 63, 80
2, 28072, Note_on_c, 0, 75, 80
2, 28073, Note_on_c, 0, 48, 80
2, 28074, Note_on_c, 0, 74, 0
2, 28075, Note_on_c, 0, 70, 0
2, 28076, Note_on_c, 0, 69, 80
2, 28078, Note_on_c, 0, 50, 0
2, 28102, Note_on_c, 0, 69, 0
2, 28103, Note_on_c, 0, 75, 0
2, 28106, Note_on_c, 0, 62, 80
2, 28106, Note_on_c, 0, 70, 80
2, 28109, Note_on_c, 0, 74, 80
2, 28110, Note_on_c, 0, 63, 0
2, 28139, Note_on_c, 0, 70, 0
2, 28143, Note_on_c, 0, 46, 80
2, 28143, Note_on_c, 0, 58, 80
2, 28147, Note_on_c, 0, 74, 0
2, 28148, Note_on_c, 0, 60, 0
2, 28149, Note_on_c, 0, 62, 0
2, 28149, Note_on_c, 0, 48, 0
2, 28181, Note_on_c, 0, 74, 80
2, 28183, Note_on_c, 0, 58, 0
2, 28216, Note_on_c, 0, 53, 80
2, 28216, Note_on_c, 0, 58, 80
2, 28220, Note_on_c, 0, 77, 80
2, 28222, Note_on_c, 0, 74, 0
2, 28228, Note_on_c, 0, 62, 80
2, 28241, Note_on_c, 0, 46, 0
2, 28255, Note_on_c, 0, 80, 80
2, 28256, Note_on_c, 0, 77, 0
2, 28275, Note_on_c, 0, 58, 0
2, 28276, Note_on_c, 0, 53, 0
2, 28277, Note_on_c, 0, 62, 0
2, 28289, Note_on_c, 0, 39, 80
2, 28289, Note_on_c, 0, 51, 80
2, 28293, Note_on_c, 0, 80, 0
2, 28326, Note_on_c, 0, 79, 80
2, 28329, Note_on_c, 0, 75, 80
2, 28360, Note_on_c, 0, 55, 80
2, 28362, Note_on_c, 0, 58, 80
2, 28362, Note_on_c, 0, 70, 80
2, 28362, Note_on_c, 0, 82, 80
2, 28365, Note_on_c, 0, 75, 0
2, 28365, Note_on_c, 0, 79, 0
2, 28371, Note_on_c, 0, 63, 80
2, 28389, Note_on_c, 0, 39, 0
2, 28390, Note_on_c, 0, 51, 0
2, 28397, Note_on_c, 0, 75, 80
2, 28397, Note_on_c, 0, 79, 80
2, 28398, Note_on_c, 0, 82, 0
2, 28398, Note_on_c, 0, 70, 0
2, 28404, Note_on_c, 0, 55, 0
2, 28406, Note_on_c, 0, 58, 0
2, 28419, Note_on_c, 0, 63, 0
2, 28432, Note_on_c, 0, 72, 80
2, 28432, Note_on_c, 0, 84, 80
2, 28433, Note_on_c, 0, 39, 80
2, 28433, Note_on_c, 0, 51, 80
2, 28435, Note_on_c, 0, 79, 0
2, 28435, Note_on_c, 0, 75, 0
2, 28468, Note_on_c, 0, 72, 0
2, 28468, Note_on_c, 0, 70, 80
2, 28468, Note_on_c, 0, 82, 80
2, 28471, Note_on_c, 0, 84, 0
2, 28496, Note_on_c, 0, 51, 0
2, 28501, Note_on_c, 0, 43, 80
2, 28504, Note_on_c, 0, 39, 0
2, 28505, Note_on_c, 0, 55, 80
2, 28508, Note_on_c, 0, 70, 0
2, 28536, Note_on_c, 0, 82, 0
2, 28539, Note_on_c, 0, 65, 80
2, 28539, Note_on_c, 0, 70, 80
2, 28539, Note_on_c, 0, 74, 80
2, 28539, Note_on_c, 0, 77, 80
2, 28568, Note_on_c, 0, 43, 0
2, 28569, Note_on_c, 0, 55, 0
2, 28575, Note_on_c, 0, 46, 80
2, 28576, Note_on_c, 0, 58, 80
2, 28578, Note_on_c, 0, 74, 0
2, 28598, Note_on_c, 0, 70, 0
2, 28605, Note_on_c, 0, 77, 0
2, 28609, Note_on_c, 0, 65, 0
2, 28609, Note_on_c, 0, 74, 80
2, 28641, Note_on_c, 0, 46, 0
2, 28641, Note_on_c, 0, 58, 0
2, 28646, Note_on_c, 0, 56, 80
2, 28646, Note_on_c, 0, 77, 80
2, 28648, Note_on_c, 0, 44, 80
2, 28653, Note_on_c, 0, 74, 0
2, 28684, Note_on_c, 0, 65, 80
2, 28688, Note_on_c, 0, 77, 0
2, 28711, Note_on_c, 0, 44, 0
2, 28715, Note_on_c, 0, 56, 0
2, 28719, Note_on_c, 0, 43, 80
2, 28719, Note_on_c, 0, 55, 80
2, 28719, Note_on_c, 0, 70, 80
2, 28728, Note_on_c, 0, 65, 0
2, 28759, Note_on_c, 0, 74, 80
2, 28760, Note_on_c, 0, 70, 0
2, 28782, Note_on_c, 0, 43, 0
2, 28785, Note_on_c, 0, 55, 0
2, 28788, Note_on_c, 0, 77, 80
2, 28793, Note_on_c, 0, 41, 80
2, 28793, Note_on_c, 0, 53, 80
2, 28794, Note_on_c, 0, 74, 0
2, 28826, Note_on_c, 0, 80, 80
2, 28831, Note_on_c, 0, 77, 0
2, 28858, Note_on_c, 0, 41, 0
2, 28861, Note_on_c, 0, 53, 0
2, 28861, Note_on_c, 0, 51, 80
2, 28864, Note_on_c, 0, 80, 0
2, 28864, Note_on_c, 0, 39, 80
2, 28901, Note_on_c, 0, 75, 80
2, 28903, Note_on_c, 0, 79, 80
2, 28934, Note_on_c, 0, 55, 80
2, 28937, Note_on_c, 0, 58, 80
2, 28937, Note_on_c, 0, 82, 80
2, 28938, Note_on_c, 0, 70, 80
2, 28940, Note_on_c, 0, 75, 0
2, 28944, Note_on_c, 0, 79, 0
2, 28948, Note_on_c, 0, 63, 80
2, 28962, Note_on_c, 0, 39, 0
2, 28965, Note_on_c, 0, 51, 0
2, 28972, Note_on_c, 0, 75, 80
2, 28975, Note_on_c, 0, 82, 0
2, 28975, Note_on_c, 0, 79, 80
2, 28976, Note_on_c, 0, 70, 0
2, 28992, Note_on_c, 0, 63, 0
2, 28992, Note_on_c, 0, 55, 0
2, 28995, Note_on_c, 0, 58, 0
2, 29006, Note_on_c, 0, 51, 80
2, 29007, Note_on_c, 0, 84, 80
2, 29010, Note_on_c, 0, 39, 80
2, 29010, Note_on_c, 0, 72, 80
2, 29013, Note_on_c, 0, 75, 0
2, 29013, Note_on_c, 0, 79, 0
2, 29044, Note_on_c, 0, 82, 80
2, 29045, Note_on_c, 0, 70, 80
2, 29046, Note_on_c, 0, 84, 0
2, 29046, Note_on_c, 0, 72, 0
2, 29070, Note_on_c, 0, 39, 0
2, 29078, Note_on_c, 0, 37, 80
2, 29081, Note_on_c, 0, 51, 0
2, 29081, Note_on_c, 0, 49, 80
2, 29083, Note_on_c, 0, 70, 0
2, 29108, Note_on_c, 0, 82, 0
2, 29113, Note_on_c, 0, 70, 80
2, 29117, Note_on_c, 0, 65, 80
2, 29117, Note_on_c, 0, 77, 80
2, 29128, Note_on_c, 0, 74, 80
2, 29142, Note_on_c, 0, 37, 0
2, 29145, Note_on_c, 0, 49, 0
2, 29153, Note_on_c, 0, 38, 80
2, 29153, Note_on_c, 0, 50, 80
2, 29154, Note_on_c, 0, 70, 0
2, 29154, Note_on_c, 0, 74, 0
2, 29170, Note_on_c, 0, 65, 0
2, 29171, Note_on_c, 0, 77, 0
2, 29188, Note_on_c, 0, 70, 80
2, 29188, Note_on_c, 0, 74, 80
2, 29197, Note_on_c, 0, 74, 0
2, 29197, Note_on_c, 0, 70, 0
2, 29216, Note_on_c, 0, 50, 0
2, 29222, Note_on_c, 0, 32, 80
2, 29223, Note_on_c, 0, 44, 80
2, 29223, Note_on_c, 0, 65, 80
2, 29223, Note_on_c, 0, 70, 80
2, 29223, Note_on_c, 0, 74, 80
2, 29224, Note_on_c, 0, 38, 0
2, 29231, Note_on_c, 0, 77, 80
2, 29236, Note_on_c, 0, 74, 0
2, 29258, Note_on_c, 0, 70, 0
2, 29258, Note_on_c, 0, 67, 80
2, 29258, Note_on_c, 0, 71, 80
2, 29260, Note_on_c, 0, 74, 80
2, 29261, Note_on_c, 0, 77, 0
2, 29266, Note_on_c, 0, 65, 0
2, 29267, Note_on_c, 0, 79, 80
2, 29273, Note_on_c, 0, 32, 0
2, 29285, Note_on_c, 0, 44, 0
2, 29290, Note_on_c, 0, 31, 80
2, 29290, Note_on_c, 0, 43, 80
2, 29295, Note_on_c, 0, 74, 0
2, 29300, Note_on_c, 0, 71, 0
2, 29311, Note_on_c, 0, 67, 0
2, 29311, Note_on_c, 0, 79, 0
2, 29323, Note_on_c, 0, 74, 80
2, 29358, Note_on_c, 0, 62, 80
2, 29361, Note_on_c, 0, 55, 80
2, 29361, Note_on_c, 0, 65, 80
2, 29362, Note_on_c, 0, 59, 80
2, 29366, Note_on_c, 0, 74, 0
2, 29369, Note_on_c, 0, 71, 80
2, 29388, Note_on_c, 0, 31, 0
2, 29389, Note_on_c, 0, 43, 0
2, 29396, Note_on_c, 0, 67, 80
2, 29399, Note_on_c, 0, 55, 0
2, 29400, Note_on_c, 0, 59, 0
2, 29400, Note_on_c, 0, 71, 0
2, 29401, Note_on_c, 0, 62, 0
2, 29404, Note_on_c, 0, 65, 0
2, 29433, Note_on_c, 0, 48, 80
2, 29433, Note_on_c, 0, 55, 80
2, 29433, Note_on_c, 0, 58, 80
2, 29433, Note_on_c, 0, 64, 80
2, 29437, Note_on_c, 0, 67, 0
2, 29441, Note_on_c, 0, 72, 80
2, 29469, Note_on_c, 0, 67, 80
2, 29470, Note_on_c, 0, 72, 0
2, 29470, Note_on_c, 0, 55, 0
2, 29474, Note_on_c, 0, 64, 0
2, 29495, Note_on_c, 0, 48, 0
2, 29499, Note_on_c, 0, 58, 0
2, 29505, Note_on_c, 0, 55, 80
2, 29505, Note_on_c, 0, 64, 80
2, 29508, Note_on_c, 0, 67, 0
2, 29509, Note_on_c, 0, 60, 80
2, 29512, Note_on_c, 0, 70, 80
2, 29542, Note_on_c, 0, 60, 0
2, 29559, Note_on_c, 0, 55, 0
2, 29572, Note_on_c, 0, 70, 0
2, 29573, Note_on_c, 0, 64, 0
2, 29573, Note_on_c, 0, 60, 80
2, 29573, Note_on_c, 0, 63, 80
2, 29575, Note_on_c, 0, 53, 80
2, 29584, Note_on_c, 0, 69, 80
2, 29612, Note_on_c, 0, 60, 0
2, 29612, Note_on_c, 0, 77, 80
2, 29613, Note_on_c, 0, 63, 0
2, 29613, Note_on_c, 0, 69, 0
2, 29618, Note_on_c, 0, 53, 0
2, 29646, Note_on_c, 0, 53, 80
2, 29646, Note_on_c, 0, 75, 80
2, 29647, Note_on_c, 0, 57, 80
2, 29651, Note_on_c, 0, 77, 0
2, 29655, Note_on_c, 0, 63, 80
2, 29683, Note_on_c, 0, 72, 80
2, 29684, Note_on_c, 0, 75, 0
2, 29704, Note_on_c, 0, 63, 0
2, 29705, Note_on_c, 0, 53, 0
2, 29708, Note_on_c, 0, 57, 0
2, 29720, Note_on_c, 0, 62, 80
2, 29721, Note_on_c, 0, 72, 0
2, 29721, Note_on_c, 0, 46, 80
2, 29723, Note_on_c, 0, 58, 80
2, 29726, Note_on_c, 0, 70, 80
2, 29784, Note_on_c, 0, 46, 0
2, 29791, Note_on_c, 0, 41, 80
2, 29791, Note_on_c, 0, 53, 80
2, 29795, Note_on_c, 0, 58, 0
2, 29833, Note_on_c, 0, 70, 0
2, 29833, Note_on_c, 0, 62, 0
2, 29864, Note_on_c, 0, 34, 80
2, 29864, Note_on_c, 0, 74, 80
2, 29865, Note_on_c, 0, 46, 80
2, 29865, Note_on_c, 0, 70, 80
2, 29868, Note_on_c, 0, 41, 0
2, 29871, Note_on_c, 0, 53, 0
2, 29876, Note_on_c, 0, 82, 80
2, 29930, Note_on_c, 0, 46, 0
2, 29933, Note_on_c, 0, 74, 0
2, 29936, Note_on_c, 0, 82, 0
2, 29936, Note_on_c, 0, 70, 0
2, 29945, Note_on_c, 0, 34, 0
2, 30011, Note_on_c, 0, 39, 80
2, 30011, Note_on_c, 0, 51, 80
2, 30011, Note_on_c, 0, 70, 80
2, 30015, Note_on_c, 0, 67, 80
2, 30027, Note_on_c, 0, 70, 0
2, 30028, Note_on_c, 0, 67, 0
2, 30047, Note_on_c, 0, 67, 80
2, 30050, Note_on_c, 0, 70, 80
2, 30085, Note_on_c, 0, 55, 80
2, 30085, Note_on_c, 0, 58, 80
2, 30093, Note_on_c, 0, 63, 80
2, 30114, Note_on_c, 0, 51, 0
2, 30122, Note_on_c, 0, 39, 0
2, 30123, Note_on_c, 0, 65, 80
2, 30123, Note_on_c, 0, 68, 80
2, 30124, Note_on_c, 0, 67, 0
2, 30124, Note_on_c, 0, 70, 0
2, 30124, Note_on_c, 0, 63, 0
2, 30132, Note_on_c, 0, 58, 0
2, 30142, Note_on_c, 0, 55, 0
2, 30151, Note_on_c, 0, 68, 0
2, 30153, Note_on_c, 0, 63, 80
2, 30153, Note_on_c, 0, 67, 80
2, 30156, Note_on_c, 0, 34, 80
2, 30156, Note_on_c, 0, 46, 80
2, 30158, Note_on_c, 0, 65, 0
2, 30192, Note_on_c, 0, 66, 80
2, 30195, Note_on_c, 0, 67, 0
2, 30196, Note_on_c, 0, 63, 0
2, 30223, Note_on_c, 0, 66, 0
2, 30226, Note_on_c, 0, 55, 80
2, 30227, Note_on_c, 0, 58, 80
2, 30227, Note_on_c, 0, 67, 80
2, 30236, Note_on_c, 0, 63, 80
2, 30243, Note_on_c, 0, 67, 0
2, 30258, Note_on_c, 0, 46, 0
2, 30259, Note_on_c, 0, 34, 0
2, 30263, Note_on_c, 0, 67, 80
2, 30266, Note_on_c, 0, 70, 80
2, 30268, Note_on_c, 0, 63, 0
2, 30277, Note_on_c, 0, 67, 0
2, 30278, Note_on_c, 0, 55, 0
2, 30285, Note_on_c, 0, 58, 0
2, 30294, Note_on_c, 0, 70, 0
2, 30298, Note_on_c, 0, 39, 80
2, 30300, Note_on_c, 0, 51, 80
2, 30300, Note_on_c, 0, 75, 80
2, 30301, Note_on_c, 0, 67, 80
2, 30340, Note_on_c, 0, 67, 0
2, 30341, Note_on_c, 0, 75, 0
2, 30372, Note_on_c, 0, 55, 80
2, 30373, Note_on_c, 0, 58, 80
2, 30373, Note_on_c, 0, 75, 80
2, 30373, Note_on_c, 0, 82, 80
2, 30375, Note_on_c, 0, 79, 80
2, 30379, Note_on_c, 0, 63, 80
2, 30383, Note_on_c, 0, 75, 0
2, 30384, Note_on_c, 0, 79, 0
2, 30399, Note_on_c, 0, 39, 0
2, 30403, Note_on_c, 0, 51, 0
2, 30407, Note_on_c, 0, 75, 80
2, 30407, Note_on_c, 0, 79, 80
2, 30410, Note_on_c, 0, 82, 0
2, 30423, Note_on_c, 0, 55, 0
2, 30428, Note_on_c, 0, 63, 0
2, 30428, Note_on_c, 0, 58, 0
2, 30438, Note_on_c, 0, 75, 0
2, 30442, Note_on_c, 0, 34, 80
2, 30442, Note_on_c, 0, 46, 80
2, 30445, Note_on_c, 0, 79, 0
2, 30480, Note_on_c, 0, 75, 80
2, 30480, Note_on_c, 0, 84, 80
2, 30484, Note_on_c, 0, 79, 80
2, 30491, Note_on_c, 0, 75, 0
2, 30495, Note_on_c, 0, 79, 0
2, 30513, Note_on_c, 0, 75, 80
2, 30518, Note_on_c, 0, 55, 80
2, 30518, Note_on_c, 0, 79, 80
2, 30521, Note_on_c, 0, 84, 0
2, 30521, Note_on_c, 0, 58, 80
2, 30521, Note_on_c, 0, 63, 80
2, 30525, Note_on_c, 0, 82, 80
2, 30545, Note_on_c, 0, 46, 0
2, 30546, Note_on_c, 0, 34, 0
2, 30562, Note_on_c, 0, 75, 0
2, 30563, Note_on_c, 0, 55, 0
2, 30566, Note_on_c, 0, 79, 0
2, 30569, Note_on_c, 0, 58, 0
2, 30571, Note_on_c, 0, 63, 0
2, 30572, Note_on_c, 0, 82, 0
2, 30583, Note_on_c, 0, 70, 80
2, 30584, Note_on_c, 0, 39, 80
2, 30584, Note_on_c, 0, 51, 80
2, 30585, Note_on_c, 0, 67, 80
2, 30594, Note_on_c, 0, 70, 0
2, 30598, Note_on_c, 0, 67, 0
2, 30620, Note_on_c, 0, 67, 80
2, 30620, Note_on_c, 0, 70, 80
2, 30658, Note_on_c, 0, 55, 80
2, 30659, Note_on_c, 0, 58, 80
2, 30668, Note_on_c, 0, 63, 80
2, 30686, Note_on_c, 0, 39, 0
2, 30687, Note_on_c, 0, 51, 0
2, 30688, Note_on_c, 0, 67, 0
2, 30689, Note_on_c, 0, 70, 0
2, 30695, Note_on_c, 0, 65, 80
2, 30695, Note_on_c, 0, 68, 80
2, 30698, Note_on_c, 0, 63, 0
2, 30702, Note_on_c, 0, 58, 0
2, 30709, Note_on_c, 0, 55, 0
2, 30725, Note_on_c, 0, 68, 0
2, 30726, Note_on_c, 0, 34, 80
2, 30726, Note_on_c, 0, 46, 80
2, 30727, Note_on_c, 0, 67, 80
2, 30730, Note_on_c, 0, 63, 80
2, 30731, Note_on_c, 0, 65, 0
2, 30760, Note_on_c, 0, 67, 0
2, 30762, Note_on_c, 0, 66, 80
2, 30769, Note_on_c, 0, 63, 0
2, 30796, Note_on_c, 0, 66, 0
2, 30801, Note_on_c, 0, 55, 80
2, 30801, Note_on_c, 0, 58, 80
2, 30801, Note_on_c, 0, 63, 80
2, 30803, Note_on_c, 0, 67, 80
2, 30816, Note_on_c, 0, 67, 0
2, 30822, Note_on_c, 0, 46, 0
2, 30835, Note_on_c, 0, 34, 0
2, 30838, Note_on_c, 0, 67, 80
2, 30839, Note_on_c, 0, 70, 80
2, 30843, Note_on_c, 0, 63, 0
2, 30852, Note_on_c, 0, 67, 0
2, 30857, Note_on_c, 0, 55, 0
2, 30860, Note_on_c, 0, 58, 0
2, 30873, Note_on_c, 0, 39, 80
2, 30873, Note_on_c, 0, 51, 80
2, 30874, Note_on_c, 0, 67, 80
2, 30874, Note_on_c, 0, 75, 80
2, 30875, Note_on_c, 0, 70, 0
2, 30910, Note_on_c, 0, 67, 0
2, 30914, Note_on_c, 0, 75, 0
2, 30943, Note_on_c, 0, 75, 80
2, 30948, Note_on_c, 0, 55, 80
2, 30948, Note_on_c, 0, 58, 80
2, 30948, Note_on_c, 0, 79, 80
2, 30948, Note_on_c, 0, 82, 80
2, 30953, Note_on_c, 0, 63, 80
2, 30959, Note_on_c, 0, 79, 0
2, 30959, Note_on_c, 0, 75, 0
2, 30974, Note_on_c, 0, 39, 0
2, 30974, Note_on_c, 0, 51, 0
2, 30979, Note_on_c, 0, 67, 80
2, 30979, Note_on_c, 0, 75, 80
2, 30979, Note_on_c, 0, 79, 80
2, 30986, Note_on_c, 0, 82, 0
2, 30992, Note_on_c, 0, 58, 0
2, 30992, Note_on_c, 0, 55, 0
2, 31000, Note_on_c, 0, 63, 0
2, 31014, Note_on_c, 0, 39, 80
2, 31014, Note_on_c, 0, 51, 80
2, 31050, Note_on_c, 0, 84, 80
2, 31055, Note_on_c, 0, 72, 80
2, 31066, Note_on_c, 0, 79, 0
2, 31070, Note_on_c, 0, 51, 0
2, 31070, Note_on_c, 0, 39, 0
2, 31072, Note_on_c, 0, 67, 0
2, 31080, Note_on_c, 0, 75, 0
2, 31084, Note_on_c, 0, 73, 80
2, 31085, Note_on_c, 0, 40, 80
2, 31086, Note_on_c, 0, 52, 80
2, 31086, Note_on_c, 0, 79, 80
2, 31087, Note_on_c, 0, 72, 0
2, 31091, Note_on_c, 0, 84, 0
2, 31091, Note_on_c, 0, 82, 80
2, 31095, Note_on_c, 0, 70, 80
2, 31139, Note_on_c, 0, 52, 0
2, 31140, Note_on_c, 0, 73, 0
2, 31141, Note_on_c, 0, 40, 0
2, 31142, Note_on_c, 0, 79, 0
2, 31142, Note_on_c, 0, 82, 0
2, 31143, Note_on_c, 0, 70, 0
2, 31153, Note_on_c, 0, 41, 80
2, 31155, Note_on_c, 0, 53, 80
2, 31155, Note_on_c, 0, 80, 80
2, 31158, Note_on_c, 0, 68, 80
2, 31158, Note_on_c, 0, 74, 80
2, 31167, Note_on_c, 0, 74, 0
2, 31167, Note_on_c, 0, 68, 0
2, 31168, Note_on_c, 0, 80, 0
2, 31188, Note_on_c, 0, 80, 80
2, 31190, Note_on_c, 0, 74, 80
2, 31191, Note_on_c, 0, 68, 80
2, 31225, Note_on_c, 0, 56, 80
2, 31225, Note_on_c, 0, 58, 80
2, 31229, Note_on_c, 0, 74, 0
2, 31233, Note_on_c, 0, 62, 80
2, 31247, Note_on_c, 0, 68, 0
2, 31251, Note_on_c, 0, 41, 0
2, 31254, Note_on_c, 0, 80, 0
2, 31259, Note_on_c, 0, 53, 0
2, 31259, Note_on_c, 0, 67, 80
2, 31259, Note_on_c, 0, 74, 80
2, 31259, Note_on_c, 0, 79, 80
2, 31271, Note_on_c, 0, 58, 0
2, 31272, Note_on_c, 0, 56, 0
2, 31275, Note_on_c, 0, 74, 0
2, 31281, Note_on_c, 0, 62, 0
2, 31290, Note_on_c, 0, 34, 80
2, 31295, Note_on_c, 0, 46, 80
2, 31295, Note_on_c, 0, 65, 80
2, 31295, Note_on_c, 0, 74, 80
2, 31295, Note_on_c, 0, 77, 80
2, 31297, Note_on_c, 0, 79, 0
2, 31298, Note_on_c, 0, 67, 0
2, 31330, Note_on_c, 0, 77, 0
2, 31330, Note_on_c, 0, 64, 80
2, 31333, Note_on_c, 0, 76, 80
2, 31337, Note_on_c, 0, 65, 0
2, 31359, Note_on_c, 0, 64, 0
2, 31361, Note_on_c, 0, 76, 0
2, 31365, Note_on_c, 0, 56, 80
2, 31365, Note_on_c, 0, 58, 80
2, 31365, Note_on_c, 0, 65, 80
2, 31365, Note_on_c, 0, 77, 80
2, 31373, Note_on_c, 0, 62, 80
2, 31395, Note_on_c, 0, 46, 0
2, 31396, Note_on_c, 0, 34, 0
2, 31403, Note_on_c, 0, 78, 80
2, 31404, Note_on_c, 0, 66, 80
2, 31406, Note_on_c, 0, 77, 0
2, 31409, Note_on_c, 0, 65, 0
2, 31413, Note_on_c, 0, 58, 0
2, 31418, Note_on_c, 0, 56, 0
2, 31426, Note_on_c, 0, 62, 0
2, 31426, Note_on_c, 0, 74, 0
2, 31432, Note_on_c, 0, 78, 0
2, 31432, Note_on_c, 0, 66, 0
2, 31435, Note_on_c, 0, 75, 80
2, 31437, Note_on_c, 0, 39, 80
2, 31437, Note_on_c, 0, 51, 80
2, 31437, Note_on_c, 0, 67, 80
2, 31440, Note_on_c, 0, 79, 80
2, 31473, Note_on_c, 0, 80, 80
2, 31477, Note_on_c, 0, 79, 0
2, 31477, Note_on_c, 0, 67, 0
2, 31477, Note_on_c, 0, 68, 80
2, 31478, Note_on_c, 0, 75, 0
2, 31511, Note_on_c, 0, 55, 80
2, 31511, Note_on_c, 0, 58, 80
2, 31511, Note_on_c, 0, 82, 80
2, 31513, Note_on_c, 0, 68, 0
2, 31513, Note_on_c, 0, 80, 0
2, 31513, Note_on_c, 0, 70, 80
2, 31521, Note_on_c, 0, 63, 80
2, 31540, Note_on_c, 0, 51, 0
2, 31541, Note_on_c, 0, 39, 0
2, 31545, Note_on_c, 0, 84, 80
2, 31547, Note_on_c, 0, 82, 0
2, 31548, Note_on_c, 0, 72, 80
2, 31549, Note_on_c, 0, 55, 0
2, 31552, Note_on_c, 0, 70, 0
2, 31557, Note_on_c, 0, 58, 0
2, 31565, Note_on_c, 0, 63, 0
2, 31583, Note_on_c, 0, 43, 80
2, 31583, Note_on_c, 0, 55, 80
2, 31620, Note_on_c, 0, 74, 80
2, 31620, Note_on_c, 0, 86, 80
2, 31625, Note_on_c, 0, 72, 0
2, 31625, Note_on_c, 0, 84, 0
2, 31645, Note_on_c, 0, 55, 0
2, 31649, Note_on_c, 0, 86, 0
2, 31651, Note_on_c, 0, 43, 0
2, 31655, Note_on_c, 0, 74, 0
2, 31655, Note_on_c, 0, 42, 80
2, 31655, Note_on_c, 0, 54, 80
2, 31656, Note_on_c, 0, 87, 80
2, 31660, Note_on_c, 0, 75, 80
2, 31714, Note_on_c, 0, 75, 0
2, 31715, Note_on_c, 0, 54, 0
2, 31722, Note_on_c, 0, 87, 0
2, 31723, Note_on_c, 0, 42, 0
2, 31731, Note_on_c, 0, 41, 80
2, 31731, Note_on_c, 0, 53, 80
2, 31732, Note_on_c, 0, 74, 80
2, 31733, Note_on_c, 0, 86, 80
2, 31768, Note_on_c, 0, 75, 80
2, 31768, Note_on_c, 0, 87, 80
2, 31769, Note_on_c, 0, 86, 0
2, 31769, Note_on_c, 0, 74, 0
2, 31775, Note_on_c, 0, 53, 0
2, 31795, Note_on_c, 0, 87, 0
2, 31795, Note_on_c, 0, 75, 0
2, 31803, Note_on_c, 0, 53, 80
2, 31803, Note_on_c, 0, 76, 80
2, 31803, Note_on_c, 0, 88, 80
2, 31806, Note_on_c, 0, 58, 80
2, 31811, Note_on_c, 0, 62, 80
2, 31831, Note_on_c, 0, 41, 0
2, 31841, Note_on_c, 0, 88, 0
2, 31841, Note_on_c, 0, 76, 0
2, 31841, Note_on_c, 0, 77, 80
2, 31841, Note_on_c, 0, 89, 80
2, 31845, Note_on_c, 0, 53, 0
2, 31854, Note_on_c, 0, 58, 0
2, 31865, Note_on_c, 0, 62, 0
2, 31876, Note_on_c, 0, 41, 80
2, 31876, Note_on_c, 0, 53, 80
2, 31877, Note_on_c, 0, 77, 0
2, 31889, Note_on_c, 0, 89, 0
2, 31914, Note_on_c, 0, 77, 80
2, 31918, Note_on_c, 0, 53, 0
2, 31948, Note_on_c, 0, 57, 80
2, 31950, Note_on_c, 0, 53, 80
2, 31950, Note_on_c, 0, 75, 80
2, 31950, Note_on_c, 0, 84, 80
2, 31953, Note_on_c, 0, 77, 0
2, 31977, Note_on_c, 0, 41, 0
2, 31999, Note_on_c, 0, 57, 0
2, 32006, Note_on_c, 0, 84, 0
2, 32006, Note_on_c, 0, 75, 0
2, 32008, Note_on_c, 0, 53, 0
2, 32020, Note_on_c, 0, 74, 80
2, 32020, Note_on_c, 0, 82, 80
2, 32021, Note_on_c, 0, 46, 80
2, 32021, Note_on_c, 0, 58, 80
2, 32084, Note_on_c, 0, 46, 0
2, 32090, Note_on_c, 0, 53, 80
2, 32091, Note_on_c, 0, 58, 0
2, 32159, Note_on_c, 0, 53, 0
2, 32162, Note_on_c, 0, 50, 80
2, 32200, Note_on_c, 0, 82, 0
2, 32200, Note_on_c, 0, 74, 0
2, 32232, Note_on_c, 0, 46, 80
2, 32232, Note_on_c, 0, 70, 80
2, 32233, Note_on_c, 0, 68, 80
2, 32236, Note_on_c, 0, 50, 0
2, 32273, Note_on_c, 0, 68, 0
2, 32275, Note_on_c, 0, 70, 0
2, 32296, Note_on_c, 0, 46, 0
2, 32304, Note_on_c, 0, 39, 80
2, 32304, Note_on_c, 0, 51, 80
2, 32304, Note_on_c, 0, 67, 80
2, 32304, Note_on_c, 0, 70, 80
2, 32312, Note_on_c, 0, 67, 0
2, 32317, Note_on_c, 0, 70, 0
2, 32340, Note_on_c, 0, 67, 80
2, 32340, Note_on_c, 0, 70, 80
2, 32368, Note_on_c, 0, 55, 80
2, 32368, Note_on_c, 0, 58, 80
2, 32390, Note_on_c, 0, 63, 80
2, 32402, Note_on_c, 0, 39, 0
2, 32407, Note_on_c, 0, 51, 0
2, 32411, Note_on_c, 0, 65, 80
2, 32411, Note_on_c, 0, 68, 80
2, 32414, Note_on_c, 0, 70, 0
2, 32414, Note_on_c, 0, 67, 0
2, 32418, Note_on_c, 0, 63, 0
2, 32425, Note_on_c, 0, 58, 0
2, 32436, Note_on_c, 0, 55, 0
2, 32441, Note_on_c, 0, 63, 80
2, 32444, Note_on_c, 0, 68, 0
2, 32446, Note_on_c, 0, 34, 80
2, 32446, Note_on_c, 0, 46, 80
2, 32451, Note_on_c, 0, 67, 80
2, 32458, Note_on_c, 0, 65, 0
2, 32487, Note_on_c, 0, 67, 0
2, 32488, Note_on_c, 0, 66, 80
2, 32489, Note_on_c, 0, 63, 0
2, 32511, Note_on_c, 0, 63, 80
2, 32517, Note_on_c, 0, 66, 0
2, 32520, Note_on_c, 0, 55, 80
2, 32521, Note_on_c, 0, 58, 80
2, 32522, Note_on_c, 0, 67, 80
2, 32536, Note_on_c, 0, 67, 0
2, 32552, Note_on_c, 0, 34, 0
2, 32552, Note_on_c, 0, 46, 0
2, 32555, Note_on_c, 0, 67, 80
2, 32557, Note_on_c, 0, 63, 0
2, 32559, Note_on_c, 0, 70, 80
2, 32564, Note_on_c, 0, 67, 0
2, 32577, Note_on_c, 0, 55, 0
2, 32580, Note_on_c, 0, 58, 0
2, 32591, Note_on_c, 0, 67, 80
2, 32591, Note_on_c, 0, 75, 80
2, 32592, Note_on_c, 0, 39, 80
2, 32592, Note_on_c, 0, 51, 80
2, 32597, Note_on_c, 0, 70, 0
2, 32629, Note_on_c, 0, 75, 0
2, 32634, Note_on_c, 0, 67, 0
2, 32664, Note_on_c, 0, 82, 80
2, 32665, Note_on_c, 0, 55, 80
2, 32665, Note_on_c, 0, 58, 80
2, 32665, Note_on_c, 0, 75, 80
2, 32665, Note_on_c, 0, 79, 80
2, 32673, Note_on_c, 0, 63, 80
2, 32676, Note_on_c, 0, 79, 0
2, 32676, Note_on_c, 0, 75, 0
2, 32690, Note_on_c, 0, 51, 0
2, 32695, Note_on_c, 0, 39, 0
2, 32701, Note_on_c, 0, 75, 80
2, 32701, Note_on_c, 0, 79, 80
2, 32703, Note_on_c, 0, 82, 0
2, 32721, Note_on_c, 0, 55, 0
2, 32721, Note_on_c, 0, 58, 0
2, 32722, Note_on_c, 0, 63, 0
2, 32736, Note_on_c, 0, 34, 80
2, 32736, Note_on_c, 0, 46, 80
2, 32737, Note_on_c, 0, 75, 0
2, 32737, Note_on_c, 0, 79, 0
2, 32771, Note_on_c, 0, 75, 80
2, 32773, Note_on_c, 0, 79, 80
2, 32773, Note_on_c, 0, 84, 80
2, 32782, Note_on_c, 0, 79, 0
2, 32782, Note_on_c, 0, 75, 0
2, 32804, Note_on_c, 0, 55, 80
2, 32804, Note_on_c, 0, 75, 80
2, 32807, Note_on_c, 0, 79, 80
2, 32808, Note_on_c, 0, 58, 80
2, 32811, Note_on_c, 0, 84, 0
2, 32816, Note_on_c, 0, 82, 80
2, 32820, Note_on_c, 0, 63, 80
2, 32829, Note_on_c, 0, 46, 0
2, 32837, Note_on_c, 0, 34, 0
2, 32844, Note_on_c, 0, 75, 0
2, 32844, Note_on_c, 0, 79, 0
2, 32845, Note_on_c, 0, 82, 0
2, 32852, Note_on_c, 0, 55, 0
2, 32855, Note_on_c, 0, 58, 0
2, 32865, Note_on_c, 0, 63, 0
2, 32877, Note_on_c, 0, 71, 80
2, 32878, Note_on_c, 0, 38, 80
2, 32878, Note_on_c, 0, 67, 80
2, 32881, Note_on_c, 0, 50, 80
2, 32883, Note_on_c, 0, 79, 80
2, 32892, Note_on_c, 0, 67, 0
2, 32892, Note_on_c, 0, 71, 0
2, 32894, Note_on_c, 0, 79, 0
2, 32916, Note_on_c, 0, 67, 80
2, 32916, Note_on_c, 0, 71, 80
2, 32917, Note_on_c, 0, 79, 80
2, 32954, Note_on_c, 0, 71, 0
2, 32957, Note_on_c, 0, 67, 0
2, 32958, Note_on_c, 0, 79, 0
2, 32959, Note_on_c, 0, 65, 80
2, 32960, Note_on_c, 0, 55, 80
2, 32960, Note_on_c, 0, 59, 80
2, 32980, Note_on_c, 0, 38, 0
2, 32984, Note_on_c, 0, 50, 0
2, 32985, Note_on_c, 0, 67, 80
2, 32985, Note_on_c, 0, 71, 80
2, 32988, Note_on_c, 0, 79, 80
2, 32996, Note_on_c, 0, 71, 0
2, 32999, Note_on_c, 0, 55, 0
2, 33001, Note_on_c, 0, 59, 0
2, 33015, Note_on_c, 0, 65, 0
2, 33017, Note_on_c, 0, 79, 0
2, 33019, Note_on_c, 0, 67, 0
2, 33020, Note_on_c, 0, 43, 80
2, 33021, Note_on_c, 0, 68, 80
2, 33021, Note_on_c, 0, 80, 80
2, 33025, Note_on_c, 0, 71, 80
2, 33050, Note_on_c, 0, 68, 0
2, 33056, Note_on_c, 0, 67, 80
2, 33056, Note_on_c, 0, 79, 80
2, 33060, Note_on_c, 0, 80, 0
2, 33089, Note_on_c, 0, 67, 0
2, 33093, Note_on_c, 0, 55, 80
2, 33093, Note_on_c, 0, 59, 80
2, 33093, Note_on_c, 0, 62, 80
2, 33097, Note_on_c, 0, 79, 0
2, 33097, Note_on_c, 0, 74, 80
2, 33101, Note_on_c, 0, 65, 80
2, 33119, Note_on_c, 0, 43, 0
2, 33126, Note_on_c, 0, 77, 80
2, 33131, Note_on_c, 0, 74, 0
2, 33134, Note_on_c, 0, 62, 0
2, 33141, Note_on_c, 0, 59, 0
2, 33148, Note_on_c, 0, 71, 0
2, 33151, Note_on_c, 0, 55, 0
2, 33160, Note_on_c, 0, 36, 80
2, 33163, Note_on_c, 0, 63, 80
2, 33163, Note_on_c, 0, 75, 80
2, 33165, Note_on_c, 0, 72, 80
2, 33166, Note_on_c, 0, 48, 80
2, 33167, Note_on_c, 0, 77, 0
2, 33173, Note_on_c, 0, 65, 0
2, 33199, Note_on_c, 0, 75, 0
2, 33199, Note_on_c, 0, 65, 80
2, 33199, Note_on_c, 0, 77, 80
2, 33204, Note_on_c, 0, 63, 0
2, 33209, Note_on_c, 0, 72, 0
2, 33233, Note_on_c, 0, 60, 80
2, 33233, Note_on_c, 0, 67, 80
2, 33234, Note_on_c, 0, 79, 80
2, 33235, Note_on_c, 0, 77, 0
2, 33235, Note_on_c, 0, 55, 80
2, 33239, Note_on_c, 0, 63, 80
2, 33242, Note_on_c, 0, 65, 0
2, 33263, Note_on_c, 0, 36, 0
2, 33264, Note_on_c, 0, 48, 0
2, 33266, Note_on_c, 0, 72, 80
2, 33267, Note_on_c, 0, 84, 80
2, 33269, Note_on_c, 0, 67, 0
2, 33272, Note_on_c, 0, 79, 0
2, 33285, Note_on_c, 0, 63, 0
2, 33286, Note_on_c, 0, 55, 0
2, 33287, Note_on_c, 0, 60, 0
2, 33300, Note_on_c, 0, 36, 80
2, 33300, Note_on_c, 0, 48, 80
2, 33330, Note_on_c, 0, 72, 0
2, 33335, Note_on_c, 0, 67, 80
2, 33338, Note_on_c, 0, 84, 0
2, 33338, Note_on_c, 0, 79, 80
2, 33369, Note_on_c, 0, 60, 80
2, 33371, Note_on_c, 0, 72, 80
2, 33373, Note_on_c, 0, 55, 80
2, 33373, Note_on_c, 0, 84, 80
2, 33374, Note_on_c, 0, 67, 0
2, 33375, Note_on_c, 0, 79, 0
2, 33381, Note_on_c, 0, 63, 80
2, 33403, Note_on_c, 0, 48, 0
2, 33411, Note_on_c, 0, 36, 0
2, 33424, Note_on_c, 0, 72, 0
2, 33428, Note_on_c, 0, 60, 0
2, 33429, Note_on_c, 0, 63, 0
2, 33430, Note_on_c, 0, 84, 0
2, 33431, Note_on_c, 0, 55, 0
2, 33442, Note_on_c, 0, 41, 80
2, 33442, Note_on_c, 0, 53, 80
2, 33480, Note_on_c, 0, 80, 80
2, 33481, Note_on_c, 0, 68, 80
2, 33512, Note_on_c, 0, 68, 0
2, 33513, Note_on_c, 0, 60, 80
2, 33513, Note_on_c, 0, 67, 80
2, 33514, Note_on_c, 0, 56, 80
2, 33515, Note_on_c, 0, 79, 80
2, 33517, Note_on_c, 0, 80, 0
2, 33523, Note_on_c, 0, 65, 80
2, 33540, Note_on_c, 0, 53, 0
2, 33541, Note_on_c, 0, 41, 0
2, 33551, Note_on_c, 0, 60, 0
2, 33551, Note_on_c, 0, 77, 80
2, 33555, Note_on_c, 0, 79, 0
2, 33556, Note_on_c, 0, 67, 0
2, 33575, Note_on_c, 0, 56, 0
2, 33583, Note_on_c, 0, 60, 80
2, 33586, Note_on_c, 0, 48, 80
2, 33586, Note_on_c, 0, 80, 80
2, 33591, Note_on_c, 0, 77, 0
2, 33591, Note_on_c, 0, 68, 80
2, 33595, Note_on_c, 0, 65, 0
2, 33621, Note_on_c, 0, 87, 80
2, 33624, Note_on_c, 0, 80, 0
2, 33625, Note_on_c, 0, 75, 80
2, 33627, Note_on_c, 0, 68, 0
2, 33649, Note_on_c, 0, 48, 0
2, 33651, Note_on_c, 0, 60, 0
2, 33659, Note_on_c, 0, 47, 80
2, 33662, Note_on_c, 0, 59, 80
2, 33699, Note_on_c, 0, 87, 0
2, 33699, Note_on_c, 0, 75, 0
2, 33703, Note_on_c, 0, 80, 80
2, 33707, Note_on_c, 0, 68, 80
2, 33727, Note_on_c, 0, 47, 0
2, 33727, Note_on_c, 0, 59, 0
2, 33730, Note_on_c, 0, 46, 80
2, 33731, Note_on_c, 0, 58, 80
2, 33731, Note_on_c, 0, 67, 80
2, 33732, Note_on_c, 0, 80, 0
2, 33733, Note_on_c, 0, 79, 80
2, 33736, Note_on_c, 0, 68, 0
2, 33763, Note_on_c, 0, 67, 0
2, 33767, Note_on_c, 0, 63, 80
2, 33768, Note_on_c, 0, 75, 80
2, 33771, Note_on_c, 0, 79, 0
2, 33772, Note_on_c, 0, 58, 0
2, 33781, Note_on_c, 0, 63, 0
2, 33802, Note_on_c, 0, 67, 80
2, 33802, Note_on_c, 0, 79, 80
2, 33803, Note_on_c, 0, 55, 80
2, 33803, Note_on_c, 0, 58, 80
2, 33804, Note_on_c, 0, 75, 0
2, 33810, Note_on_c, 0, 63, 80
2, 33831, Note_on_c, 0, 46, 0
2, 33851, Note_on_c, 0, 55, 0
2, 33851, Note_on_c, 0, 58, 0
2, 33860, Note_on_c, 0, 79, 0
2, 33861, Note_on_c, 0, 63, 0
2, 33871, Note_on_c, 0, 67, 0
2, 33873, Note_on_c, 0, 72, 80
2, 33874, Note_on_c, 0, 45, 80
2, 33874, Note_on_c, 0, 57, 80
2, 33874, Note_on_c, 0, 66, 80
2, 33875, Note_on_c, 0, 75, 80
2, 33883, Note_on_c, 0, 78, 80
2, 33986, Note_on_c, 0, 78, 0
2, 33986, Note_on_c, 0, 66, 0
2, 33986, Note_on_c, 0, 75, 0
2, 33996, Note_on_c, 0, 72, 0
2, 34012, Note_on_c, 0, 57, 0
2, 34015, Note_on_c, 0, 45, 0
2, 34017, Note_on_c, 0, 46, 80
2, 34018, Note_on_c, 0, 58, 80
2, 34018, Note_on_c, 0, 67, 80
2, 34023, Note_on_c, 0, 70, 80
2, 34023, Note_on_c, 0, 75, 80
2, 34023, Note_on_c, 0, 79, 80
2, 34032, Note_on_c, 0, 70, 0
2, 34055, Note_on_c, 0, 70, 80
2, 34059, Note_on_c, 0, 58, 0
2, 34059, Note_on_c, 0, 75, 0
2, 34059, Note_on_c, 0, 67, 0
2, 34059, Note_on_c, 0, 79, 0
2, 34090, Note_on_c, 0, 67, 80
2, 34092, Note_on_c, 0, 79, 80
2, 34093, Note_on_c, 0, 55, 80
2, 34093, Note_on_c, 0, 58, 80
2, 34097, Note_on_c, 0, 70, 0
2, 34101, Note_on_c, 0, 63, 80
2, 34121, Note_on_c, 0, 46, 0
2, 34128, Note_on_c, 0, 65, 80
2, 34128, Note_on_c, 0, 77, 80
2, 34129, Note_on_c, 0, 79, 0
2, 34131, Note_on_c, 0, 67, 0
2, 34140, Note_on_c, 0, 63, 0
2, 34148, Note_on_c, 0, 55, 0
2, 34148, Note_on_c, 0, 58, 0
2, 34162, Note_on_c, 0, 65, 0
2, 34162, Note_on_c, 0, 60, 80
2, 34162, Note_on_c, 0, 63, 80
2, 34162, Note_on_c, 0, 75, 80
2, 34165, Note_on_c, 0, 48, 80
2, 34165, Note_on_c, 0, 69, 80
2, 34169, Note_on_c, 0, 77, 0
2, 34218, Note_on_c, 0, 63, 0
2, 34220, Note_on_c, 0, 75, 0
2, 34221, Note_on_c, 0, 69, 0
2, 34226, Note_on_c, 0, 58, 80
2, 34227, Note_on_c, 0, 60, 0
2, 34235, Note_on_c, 0, 46, 80
2, 34235, Note_on_c, 0, 65, 80
2, 34235, Note_on_c, 0, 68, 80
2, 34235, Note_on_c, 0, 74, 80
2, 34240, Note_on_c, 0, 48, 0
2, 34244, Note_on_c, 0, 77, 80
2, 34290, Note_on_c, 0, 77, 0
2, 34294, Note_on_c, 0, 74, 0
2, 34294, Note_on_c, 0, 68, 0
2, 34299, Note_on_c, 0, 65, 0
2, 34300, Note_on_c, 0, 58, 0
2, 34301, Note_on_c, 0, 46, 0
2, 34302, Note_on_c, 0, 67, 80
2, 34302, Note_on_c, 0, 75, 80
2, 34303, Note_on_c, 0, 51, 80
2, 34303, Note_on_c, 0, 63, 80
2, 34343, Note_on_c, 0, 67, 0
2, 34344, Note_on_c, 0, 63, 0
2, 34344, Note_on_c, 0, 51, 0
2, 34345, Note_on_c, 0, 75, 0
2, 34381, Note_on_c, 0, 70, 80
2, 34390, Note_on_c, 0, 70, 0
2, 34416, Note_on_c, 0, 70, 80
2, 34432, Note_on_c, 0, 70, 0
2, 34453, Note_on_c, 0, 56, 80
2, 34456, Note_on_c, 0, 53, 80
2, 34456, Note_on_c, 0, 58, 80
2, 34457, Note_on_c, 0, 70, 80
2, 34460, Note_on_c, 0, 62, 80
2, 34494, Note_on_c, 0, 70, 0
2, 34523, Note_on_c, 0, 46, 80
2, 34526, Note_on_c, 0, 70, 80
2, 34532, Note_on_c, 0, 53, 0
2, 34565, Note_on_c, 0, 58, 0
2, 34567, Note_on_c, 0, 56, 0
2, 34567, Note_on_c, 0, 70, 0
2, 34568, Note_on_c, 0, 62, 0
2, 34591, Note_on_c, 0, 46, 0
2, 34595, Note_on_c, 0, 51, 80
2, 34598, Note_on_c, 0, 39, 80
2, 34598, Note_on_c, 0, 67, 80
2, 34599, Note_on_c, 0, 70, 80
2, 34610, Note_on_c, 0, 70, 0
2, 34611, Note_on_c, 0, 67, 0
2, 34631, Note_on_c, 0, 67, 80
2, 34634, Note_on_c, 0, 70, 80
2, 34668, Note_on_c, 0, 55, 80
2, 34672, Note_on_c, 0, 58, 80
2, 34676, Note_on_c, 0, 63, 80
2, 34701, Note_on_c, 0, 51, 0
2, 34705, Note_on_c, 0, 39, 0
2, 34706, Note_on_c, 0, 65, 80
2, 34706, Note_on_c, 0, 68, 80
2, 34707, Note_on_c, 0, 63, 0
2, 34710, Note_on_c, 0, 67, 0
2, 34710, Note_on_c, 0, 70, 0
2, 34716, Note_on_c, 0, 55, 0
2, 34718, Note_on_c, 0, 58, 0
2, 34735, Note_on_c, 0, 68, 0
2, 34738, Note_on_c, 0, 34, 80
2, 34739, Note_on_c, 0, 65, 0
2, 34739, Note_on_c, 0, 46, 80
2, 34739, Note_on_c, 0, 63, 80
2, 34739, Note_on_c, 0, 67, 80
2, 34774, Note_on_c, 0, 66, 80
2, 34775, Note_on_c, 0, 67, 0
2, 34775, Note_on_c, 0, 63, 0
2, 34806, Note_on_c, 0, 66, 0
2, 34807, Note_on_c, 0, 55, 80
2, 34808, Note_on_c, 0, 58, 80
2, 34810, Note_on_c, 0, 67, 80
2, 34818, Note_on_c, 0, 63, 80
2, 34821, Note_on_c, 0, 67, 0
2, 34837, Note_on_c, 0, 46, 0
2, 34840, Note_on_c, 0, 34, 0
2, 34842, Note_on_c, 0, 67, 80
2, 34847, Note_on_c, 0, 63, 0
2, 34848, Note_on_c, 0, 70, 80
2, 34855, Note_on_c, 0, 67, 0
2, 34856, Note_on_c, 0, 55, 0
2, 34856, Note_on_c, 0, 58, 0
2, 34877, Note_on_c, 0, 70, 0
2, 34878, Note_on_c, 0, 51, 80
2, 34880, Note_on_c, 0, 39, 80
2, 34880, Note_on_c, 0, 67, 80
2, 34880, Note_on_c, 0, 75, 80
2, 34921, Note_on_c, 0, 75, 0
2, 34921, Note_on_c, 0, 67, 0
2, 34953, Note_on_c, 0, 75, 80
2, 34954, Note_on_c, 0, 55, 80
2, 34954, Note_on_c, 0, 58, 80
2, 34954, Note_on_c, 0, 82, 80
2, 34957, Note_on_c, 0, 79, 80
2, 34961, Note_on_c, 0, 63, 80
2, 34964, Note_on_c, 0, 79, 0
2, 34967, Note_on_c, 0, 75, 0
2, 34982, Note_on_c, 0, 51, 0
2, 34983, Note_on_c, 0, 39, 0
2, 34990, Note_on_c, 0, 75, 80
2, 34990, Note_on_c, 0, 79, 80
2, 34993, Note_on_c, 0, 82, 0
2, 35002, Note_on_c, 0, 55, 0
2, 35010, Note_on_c, 0, 58, 0
2, 35011, Note_on_c, 0, 63, 0
2, 35018, Note_on_c, 0, 75, 0
2, 35025, Note_on_c, 0, 34, 80
2, 35025, Note_on_c, 0, 46, 80
2, 35028, Note_on_c, 0, 79, 0
2, 35062, Note_on_c, 0, 75, 80
2, 35062, Note_on_c, 0, 79, 80
2, 35062, Note_on_c, 0, 84, 80
2, 35071, Note_on_c, 0, 75, 0
2, 35073, Note_on_c, 0, 79, 0
2, 35095, Note_on_c, 0, 75, 80
2, 35098, Note_on_c, 0, 84, 0
2, 35098, Note_on_c, 0, 55, 80
2, 35098, Note_on_c, 0, 58, 80
2, 35098, Note_on_c, 0, 79, 80
2, 35106, Note_on_c, 0, 63, 80
2, 35106, Note_on_c, 0, 82, 80
2, 35126, Note_on_c, 0, 46, 0
2, 35127, Note_on_c, 0, 34, 0
2, 35143, Note_on_c, 0, 55, 0
2, 35144, Note_on_c, 0, 75, 0
2, 35144, Note_on_c, 0, 79, 0
2, 35146, Note_on_c, 0, 58, 0
2, 35150, Note_on_c, 0, 82, 0
2, 35154, Note_on_c, 0, 63, 0
2, 35166, Note_on_c, 0, 39, 80
2, 35168, Note_on_c, 0, 51, 80
2, 35168, Note_on_c, 0, 67, 80
2, 35171, Note_on_c, 0, 70, 80
2, 35180, Note_on_c, 0, 70, 0
2, 35181, Note_on_c, 0, 67, 0
2, 35204, Note_on_c, 0, 67, 80
2, 35204, Note_on_c, 0, 70, 80
2, 35242, Note_on_c, 0, 55, 80
2, 35242, Note_on_c, 0, 58, 80
2, 35253, Note_on_c, 0, 63, 80
2, 35341, Note_on_c, 0, 39, 0
2, 35371, Note_on_c, 0, 70, 0
2, 35378, Note_on_c, 0, 67, 0
2, 35380, Note_on_c, 0, 51, 0
2, 35385, Note_on_c, 0, 65, 80
2, 35385, Note_on_c, 0, 68, 80
2, 35393, Note_on_c, 0, 63, 0
2, 35401, Note_on_c, 0, 55, 0
2, 35403, Note_on_c, 0, 58, 0
2, 35423, Note_on_c, 0, 68, 0
2, 35424, Note_on_c, 0, 34, 80
2, 35424, Note_on_c, 0, 67, 80
2, 35425, Note_on_c, 0, 46, 80
2, 35425, Note_on_c, 0, 63, 80
2, 35426, Note_on_c, 0, 65, 0
2, 35449, Note_on_c, 0, 67, 0
2, 35450, Note_on_c, 0, 66, 80
2, 35453, Note_on_c, 0, 63, 0
2, 35471, Note_on_c, 0, 66, 0
2, 35472, Note_on_c, 0, 55, 80
2, 35473, Note_on_c, 0, 58, 80
2, 35475, Note_on_c, 0, 63, 80
2, 35475, Note_on_c, 0, 67, 80
2, 35484, Note_on_c, 0, 67, 0
2, 35487, Note_on_c, 0, 46, 0
2, 35495, Note_on_c, 0, 34, 0
2, 35496, Note_on_c, 0, 67, 80
2, 35496, Note_on_c, 0, 70, 80
2, 35499, Note_on_c, 0, 63, 0
2, 35503, Note_on_c, 0, 55, 0
2, 35504, Note_on_c, 0, 58, 0
2, 35504, Note_on_c, 0, 67, 0
2, 35518, Note_on_c, 0, 39, 80
2, 35518, Note_on_c, 0, 67, 80
2, 35519, Note_on_c, 0, 51, 80
2, 35519, Note_on_c, 0, 75, 80
2, 35520, Note_on_c, 0, 70, 0
2, 35545, Note_on_c, 0, 75, 0
2, 35545, Note_on_c, 0, 67, 0
2, 35565, Note_on_c, 0, 55, 80
2, 35565, Note_on_c, 0, 75, 80
2, 35565, Note_on_c, 0, 58, 80
2, 35565, Note_on_c, 0, 79, 80
2, 35568, Note_on_c, 0, 82, 80
2, 35571, Note_on_c, 0, 63, 80
2, 35574, Note_on_c, 0, 79, 0
2, 35574, Note_on_c, 0, 75, 0
2, 35582, Note_on_c, 0, 51, 0
2, 35589, Note_on_c, 0, 39, 0
2, 35597, Note_on_c, 0, 67, 80
2, 35597, Note_on_c, 0, 75, 80
2, 35597, Note_on_c, 0, 79, 80
2, 35601, Note_on_c, 0, 82, 0
2, 35606, Note_on_c, 0, 58, 0
2, 35609, Note_on_c, 0, 55, 0
2, 35618, Note_on_c, 0, 63, 0
2, 35632, Note_on_c, 0, 51, 80
2, 35633, Note_on_c, 0, 39, 80
2, 35668, Note_on_c, 0, 72, 80
2, 35668, Note_on_c, 0, 84, 80
2, 35680, Note_on_c, 0, 79, 0
2, 35684, Note_on_c, 0, 39, 0
2, 35686, Note_on_c, 0, 51, 0
2, 35695, Note_on_c, 0, 67, 0
2, 35697, Note_on_c, 0, 75, 0
2, 35701, Note_on_c, 0, 40, 80
2, 35701, Note_on_c, 0, 79, 80
2, 35703, Note_on_c, 0, 72, 0
2, 35703, Note_on_c, 0, 52, 80
2, 35703, Note_on_c, 0, 70, 80
2, 35703, Note_on_c, 0, 73, 80
2, 35706, Note_on_c, 0, 84, 0
2, 35710, Note_on_c, 0, 82, 80
2, 35756, Note_on_c, 0, 73, 0
2, 35759, Note_on_c, 0, 40, 0
2, 35759, Note_on_c, 0, 52, 0
2, 35759, Note_on_c, 0, 79, 0
2, 35759, Note_on_c, 0, 82, 0
2, 35759, Note_on_c, 0, 70, 0
2, 35771, Note_on_c, 0, 80, 80
2, 35773, Note_on_c, 0, 41, 80
2, 35773, Note_on_c, 0, 74, 80
2, 35776, Note_on_c, 0, 53, 80
2, 35776, Note_on_c, 0, 68, 80
2, 35783, Note_on_c, 0, 80, 0
2, 35789, Note_on_c, 0, 68, 0
2, 35790, Note_on_c, 0, 74, 0
2, 35811, Note_on_c, 0, 68, 80
2, 35811, Note_on_c, 0, 74, 80
2, 35811, Note_on_c, 0, 80, 80
2, 35846, Note_on_c, 0, 56, 80
2, 35848, Note_on_c, 0, 58, 80
2, 35852, Note_on_c, 0, 74, 0
2, 35856, Note_on_c, 0, 62, 80
2, 35873, Note_on_c, 0, 41, 0
2, 35876, Note_on_c, 0, 53, 0
2, 35876, Note_on_c, 0, 80, 0
2, 35876, Note_on_c, 0, 68, 0
2, 35881, Note_on_c, 0, 67, 80
2, 35881, Note_on_c, 0, 74, 80
2, 35881, Note_on_c, 0, 79, 80
2, 35891, Note_on_c, 0, 74, 0
2, 35891, Note_on_c, 0, 58, 0
2, 35893, Note_on_c, 0, 56, 0
2, 35903, Note_on_c, 0, 62, 0
2, 35910, Note_on_c, 0, 67, 0
2, 35913, Note_on_c, 0, 34, 80
2, 35914, Note_on_c, 0, 65, 80
2, 35914, Note_on_c, 0, 74, 80
2, 35917, Note_on_c, 0, 46, 80
2, 35918, Note_on_c, 0, 77, 80
2, 35919, Note_on_c, 0, 79, 0
2, 35951, Note_on_c, 0, 65, 0
2, 35951, Note_on_c, 0, 64, 80
2, 35955, Note_on_c, 0, 76, 80
2, 35956, Note_on_c, 0, 77, 0
2, 35984, Note_on_c, 0, 76, 0
2, 35985, Note_on_c, 0, 64, 0
2, 35986, Note_on_c, 0, 56, 80
2, 35986, Note_on_c, 0, 58, 80
2, 35988, Note_on_c, 0, 65, 80
2, 35992, Note_on_c, 0, 77, 80
2, 35997, Note_on_c, 0, 62, 80
2, 36022, Note_on_c, 0, 34, 0
2, 36025, Note_on_c, 0, 65, 0
2, 36026, Note_on_c, 0, 66, 80
2, 36026, Note_on_c, 0, 78, 80
2, 36028, Note_on_c, 0, 77, 0
2, 36031, Note_on_c, 0, 46, 0
2, 36039, Note_on_c, 0, 58, 0
2, 36047, Note_on_c, 0, 62, 0
2, 36051, Note_on_c, 0, 56, 0
2, 36055, Note_on_c, 0, 66, 0
2, 36057, Note_on_c, 0, 78, 0
2, 36057, Note_on_c, 0, 74, 0
2, 36060, Note_on_c, 0, 51, 80
2, 36061, Note_on_c, 0, 67, 80
2, 36063, Note_on_c, 0, 39, 80
2, 36063, Note_on_c, 0, 75, 80
2, 36074, Note_on_c, 0, 79, 80
2, 36096, Note_on_c, 0, 80, 80
2, 36101, Note_on_c, 0, 68, 80
2, 36103, Note_on_c, 0, 67, 0
2, 36104, Note_on_c, 0, 75, 0
2, 36105, Note_on_c, 0, 79, 0
2, 36133, Note_on_c, 0, 82, 80
2, 36136, Note_on_c, 0, 55, 80
2, 36136, Note_on_c, 0, 58, 80
2, 36140, Note_on_c, 0, 80, 0
2, 36140, Note_on_c, 0, 68, 0
2, 36140, Note_on_c, 0, 70, 80
2, 36145, Note_on_c, 0, 63, 80
2, 36164, Note_on_c, 0, 39, 0
2, 36165, Note_on_c, 0, 51, 0
2, 36170, Note_on_c, 0, 72, 80
2, 36170, Note_on_c, 0, 84, 80
2, 36174, Note_on_c, 0, 70, 0
2, 36175, Note_on_c, 0, 55, 0
2, 36176, Note_on_c, 0, 82, 0
2, 36187, Note_on_c, 0, 58, 0
2, 36192, Note_on_c, 0, 63, 0
2, 36205, Note_on_c, 0, 43, 80
2, 36205, Note_on_c, 0, 55, 80
2, 36243, Note_on_c, 0, 74, 80
2, 36244, Note_on_c, 0, 84, 0
2, 36247, Note_on_c, 0, 72, 0
2, 36248, Note_on_c, 0, 86, 80
2, 36268, Note_on_c, 0, 55, 0
2, 36273, Note_on_c, 0, 43, 0
2, 36274, Note_on_c, 0, 74, 0
2, 36274, Note_on_c, 0, 86, 0
2, 36277, Note_on_c, 0, 42, 80
2, 36278, Note_on_c, 0, 54, 80
2, 36278, Note_on_c, 0, 87, 80
2, 36281, Note_on_c, 0, 75, 80
2, 36336, Note_on_c, 0, 75, 0
2, 36336, Note_on_c, 0, 54, 0
2, 36340, Note_on_c, 0, 87, 0
2, 36343, Note_on_c, 0, 42, 0
2, 36347, Note_on_c, 0, 53, 80
2, 36350, Note_on_c, 0, 41, 80
2, 36351, Note_on_c, 0, 74, 80
2, 36351, Note_on_c, 0, 86, 80
2, 36386, Note_on_c, 0, 75, 80
2, 36387, Note_on_c, 0, 74, 0
2, 36387, Note_on_c, 0, 87, 80
2, 36391, Note_on_c, 0, 53, 0
2, 36395, Note_on_c, 0, 86, 0
2, 36414, Note_on_c, 0, 87, 0
2, 36418, Note_on_c, 0, 75, 0
2, 36421, Note_on_c, 0, 53, 80
2, 36421, Note_on_c, 0, 58, 80
2, 36422, Note_on_c, 0, 88, 80
2, 36423, Note_on_c, 0, 76, 80
2, 36431, Note_on_c, 0, 62, 80
2, 36453, Note_on_c, 0, 41, 0
2, 36458, Note_on_c, 0, 88, 0
2, 36458, Note_on_c, 0, 77, 80
2, 36458, Note_on_c, 0, 89, 80
2, 36461, Note_on_c, 0, 76, 0
2, 36461, Note_on_c, 0, 53, 0
2, 36471, Note_on_c, 0, 58, 0
2, 36482, Note_on_c, 0, 62, 0
2, 36491, Note_on_c, 0, 41, 80
2, 36493, Note_on_c, 0, 53, 80
2, 36500, Note_on_c, 0, 77, 0
2, 36507, Note_on_c, 0, 89, 0
2, 36533, Note_on_c, 0, 77, 80
2, 36537, Note_on_c, 0, 53, 0
2, 36567, Note_on_c, 0, 53, 80
2, 36567, Note_on_c, 0, 57, 80
2, 36567, Note_on_c, 0, 75, 80
2, 36568, Note_on_c, 0, 84, 80
2, 36570, Note_on_c, 0, 77, 0
2, 36595, Note_on_c, 0, 41, 0
2, 36616, Note_on_c, 0, 57, 0
2, 36621, Note_on_c, 0, 75, 0
2, 36622, Note_on_c, 0, 84, 0
2, 36626, Note_on_c, 0, 53, 0
2, 36636, Note_on_c, 0, 46, 80
2, 36638, Note_on_c, 0, 74, 80
2, 36638, Note_on_c, 0, 82, 80
2, 36639, Note_on_c, 0, 58, 80
2, 36700, Note_on_c, 0, 46, 0
2, 36710, Note_on_c, 0, 58, 0
2, 36710, Note_on_c, 0, 53, 80
2, 36774, Note_on_c, 0, 53, 0
2, 36778, Note_on_c, 0, 50, 80
2, 36818, Note_on_c, 0, 82, 0
2, 36821, Note_on_c, 0, 74, 0
2, 36851, Note_on_c, 0, 46, 80
2, 36852, Note_on_c, 0, 68, 80
2, 36852, Note_on_c, 0, 70, 80
2, 36856, Note_on_c, 0, 50, 0
2, 36889, Note_on_c, 0, 70, 0
2, 36889, Note_on_c, 0, 68, 0
2, 36917, Note_on_c, 0, 46, 0
2, 36921, Note_on_c, 0, 67, 80
2, 36923, Note_on_c, 0, 39, 80
2, 36923, Note_on_c, 0, 51, 80
2, 36923, Note_on_c, 0, 70, 80
2, 36934, Note_on_c, 0, 67, 0
2, 36937, Note_on_c, 0, 70, 0
2, 36959, Note_on_c, 0, 67, 80
2, 36962, Note_on_c, 0, 70, 80
2, 36995, Note_on_c, 0, 58, 80
2, 36999, Note_on_c, 0, 55, 80
2, 37006, Note_on_c, 0, 63, 80
2, 37016, Note_on_c, 0, 51, 0
2, 37021, Note_on_c, 0, 39, 0
2, 37032, Note_on_c, 0, 65, 80
2, 37033, Note_on_c, 0, 67, 0
2, 37035, Note_on_c, 0, 63, 0
2, 37035, Note_on_c, 0, 70, 0
2, 37035, Note_on_c, 0, 68, 80
2, 37043, Note_on_c, 0, 58, 0
2, 37053, Note_on_c, 0, 55, 0
2, 37062, Note_on_c, 0, 68, 0
2, 37063, Note_on_c, 0, 34, 80
2, 37064, Note_on_c, 0, 46, 80
2, 37068, Note_on_c, 0, 63, 80
2, 37068, Note_on_c, 0, 67, 80
2, 37076, Note_on_c, 0, 65, 0
2, 37104, Note_on_c, 0, 66, 80
2, 37107, Note_on_c, 0, 63, 0
2, 37107, Note_on_c, 0, 67, 0
2, 37130, Note_on_c, 0, 66, 0
2, 37137, Note_on_c, 0, 55, 80
2, 37138, Note_on_c, 0, 58, 80
2, 37138, Note_on_c, 0, 63, 80
2, 37138, Note_on_c, 0, 67, 80
2, 37148, Note_on_c, 0, 67, 0
2, 37166, Note_on_c, 0, 46, 0
2, 37167, Note_on_c, 0, 34, 0
2, 37171, Note_on_c, 0, 67, 80
2, 37176, Note_on_c, 0, 63, 0
2, 37176, Note_on_c, 0, 70, 80
2, 37187, Note_on_c, 0, 67, 0
2, 37191, Note_on_c, 0, 55, 0
2, 37196, Note_on_c, 0, 58, 0
2, 37208, Note_on_c, 0, 75, 80
2, 37210, Note_on_c, 0, 39, 80
2, 37210, Note_on_c, 0, 51, 80
2, 37211, Note_on_c, 0, 67, 80
2, 37212, Note_on_c, 0, 70, 0
2, 37248, Note_on_c, 0, 75, 0
2, 37249, Note_on_c, 0, 67, 0
2, 37279, Note_on_c, 0, 75, 80
2, 37279, Note_on_c, 0, 82, 80
2, 37280, Note_on_c, 0, 79, 80
2, 37281, Note_on_c, 0, 55, 80
2, 37281, Note_on_c, 0, 58, 80
2, 37288, Note_on_c, 0, 75, 0
2, 37290, Note_on_c, 0, 63, 80
2, 37294, Note_on_c, 0, 79, 0
2, 37307, Note_on_c, 0, 51, 0
2, 37307, Note_on_c, 0, 39, 0
2, 37316, Note_on_c, 0, 75, 80
2, 37316, Note_on_c, 0, 79, 80
2, 37326, Note_on_c, 0, 82, 0
2, 37334, Note_on_c, 0, 55, 0
2, 37335, Note_on_c, 0, 58, 0
2, 37336, Note_on_c, 0, 63, 0
2, 37349, Note_on_c, 0, 34, 80
2, 37349, Note_on_c, 0, 46, 80
2, 37352, Note_on_c, 0, 75, 0
2, 37364, Note_on_c, 0, 79, 0
2, 37386, Note_on_c, 0, 75, 80
2, 37386, Note_on_c, 0, 79, 80
2, 37386, Note_on_c, 0, 84, 80
2, 37399, Note_on_c, 0, 79, 0
2, 37399, Note_on_c, 0, 75, 0
2, 37418, Note_on_c, 0, 75, 80
2, 37422, Note_on_c, 0, 55, 80
2, 37422, Note_on_c, 0, 58, 80
2, 37425, Note_on_c, 0, 84, 0
2, 37425, Note_on_c, 0, 79, 80
2, 37431, Note_on_c, 0, 63, 80
2, 37431, Note_on_c, 0, 82, 80
2, 37442, Note_on_c, 0, 46, 0
2, 37451, Note_on_c, 0, 34, 0
2, 37459, Note_on_c, 0, 82, 0
2, 37459, Note_on_c, 0, 79, 0
2, 37462, Note_on_c, 0, 75, 0
2, 37466, Note_on_c, 0, 58, 0
2, 37470, Note_on_c, 0, 55, 0
2, 37479, Note_on_c, 0, 63, 0
2, 37490, Note_on_c, 0, 38, 80
2, 37495, Note_on_c, 0, 50, 80
2, 37495, Note_on_c, 0, 67, 80
2, 37495, Note_on_c, 0, 71, 80
2, 37496, Note_on_c, 0, 79, 80
2, 37504, Note_on_c, 0, 71, 0
2, 37504, Note_on_c, 0, 67, 0
2, 37505, Note_on_c, 0, 79, 0
2, 37530, Note_on_c, 0, 67, 80
2, 37530, Note_on_c, 0, 71, 80
2, 37531, Note_on_c, 0, 79, 80
2, 37566, Note_on_c, 0, 71, 0
2, 37566, Note_on_c, 0, 55, 80
2, 37566, Note_on_c, 0, 59, 80
2, 37569, Note_on_c, 0, 67, 0
2, 37573, Note_on_c, 0, 79, 0
2, 37575, Note_on_c, 0, 65, 80
2, 37594, Note_on_c, 0, 38, 0
2, 37598, Note_on_c, 0, 50, 0
2, 37601, Note_on_c, 0, 71, 80
2, 37603, Note_on_c, 0, 67, 80
2, 37606, Note_on_c, 0, 79, 80
2, 37611, Note_on_c, 0, 71, 0
2, 37614, Note_on_c, 0, 59, 0
2, 37614, Note_on_c, 0, 55, 0
2, 37631, Note_on_c, 0, 65, 0
2, 37633, Note_on_c, 0, 79, 0
2, 37634, Note_on_c, 0, 67, 0
2, 37637, Note_on_c, 0, 43, 80
2, 37640, Note_on_c, 0, 71, 80
2, 37640, Note_on_c, 0, 80, 80
2, 37643, Note_on_c, 0, 68, 80
2, 37667, Note_on_c, 0, 68, 0
2, 37676, Note_on_c, 0, 80, 0
2, 37676, Note_on_c, 0, 67, 80
2, 37678, Note_on_c, 0, 79, 80
2, 37707, Note_on_c, 0, 67, 0
2, 37711, Note_on_c, 0, 55, 80
2, 37711, Note_on_c, 0, 62, 80
2, 37713, Note_on_c, 0, 59, 80
2, 37713, Note_on_c, 0, 74, 80
2, 37716, Note_on_c, 0, 79, 0
2, 37719, Note_on_c, 0, 65, 80
2, 37740, Note_on_c, 0, 43, 0
2, 37747, Note_on_c, 0, 77, 80
2, 37748, Note_on_c, 0, 62, 0
2, 37754, Note_on_c, 0, 74, 0
2, 37758, Note_on_c, 0, 59, 0
2, 37765, Note_on_c, 0, 55, 0
2, 37765, Note_on_c, 0, 71, 0
2, 37780, Note_on_c, 0, 63, 80
2, 37783, Note_on_c, 0, 36, 80
2, 37783, Note_on_c, 0, 72, 80
2, 37783, Note_on_c, 0, 75, 80
2, 37787, Note_on_c, 0, 77, 0
2, 37791, Note_on_c, 0, 48, 80
2, 37792, Note_on_c, 0, 65, 0
2, 37813, Note_on_c, 0, 63, 0
2, 37818, Note_on_c, 0, 65, 80
2, 37821, Note_on_c, 0, 72, 0
2, 37821, Note_on_c, 0, 75, 0
2, 37821, Note_on_c, 0, 77, 80
2, 37853, Note_on_c, 0, 79, 80
2, 37855, Note_on_c, 0, 60, 80
2, 37857, Note_on_c, 0, 55, 80
2, 37857, Note_on_c, 0, 67, 80
2, 37859, Note_on_c, 0, 77, 0
2, 37863, Note_on_c, 0, 65, 0
2, 37863, Note_on_c, 0, 63, 80
2, 37880, Note_on_c, 0, 36, 0
2, 37882, Note_on_c, 0, 48, 0
2, 37888, Note_on_c, 0, 84, 80
2, 37889, Note_on_c, 0, 67, 0
2, 37890, Note_on_c, 0, 72, 80
2, 37891, Note_on_c, 0, 79, 0
2, 37910, Note_on_c, 0, 55, 0
2, 37910, Note_on_c, 0, 60, 0
2, 37911, Note_on_c, 0, 63, 0
2, 37922, Note_on_c, 0, 36, 80
2, 37926, Note_on_c, 0, 48, 80
2, 37957, Note_on_c, 0, 72, 0
2, 37961, Note_on_c, 0, 67, 80
2, 37962, Note_on_c, 0, 79, 80
2, 37968, Note_on_c, 0, 84, 0
2, 37996, Note_on_c, 0, 60, 80
2, 37999, Note_on_c, 0, 55, 80
2, 38000, Note_on_c, 0, 72, 80
2, 38000, Note_on_c, 0, 84, 80
2, 38001, Note_on_c, 0, 79, 0
2, 38006, Note_on_c, 0, 67, 0
2, 38010, Note_on_c, 0, 63, 80
2, 38029, Note_on_c, 0, 48, 0
2, 38036, Note_on_c, 0, 36, 0
2, 38055, Note_on_c, 0, 60, 0
2, 38058, Note_on_c, 0, 72, 0
2, 38058, Note_on_c, 0, 63, 0
2, 38059, Note_on_c, 0, 84, 0
2, 38059, Note_on_c, 0, 55, 0
2, 38071, Note_on_c, 0, 41, 80
2, 38073, Note_on_c, 0, 53, 80
2, 38111, Note_on_c, 0, 68, 80
2, 38111, Note_on_c, 0, 80, 80
2, 38131, Note_on_c, 0, 60, 80
2, 38137, Note_on_c, 0, 68, 0
2, 38138, Note_on_c, 0, 79, 80
2, 38145, Note_on_c, 0, 56, 80
2, 38145, Note_on_c, 0, 67, 80
2, 38147, Note_on_c, 0, 80, 0
2, 38155, Note_on_c, 0, 65, 80
2, 38168, Note_on_c, 0, 53, 0
2, 38171, Note_on_c, 0, 41, 0
2, 38171, Note_on_c, 0, 67, 0
2, 38171, Note_on_c, 0, 77, 80
2, 38177, Note_on_c, 0, 79, 0
2, 38180, Note_on_c, 0, 60, 0
2, 38202, Note_on_c, 0, 56, 0
2, 38205, Note_on_c, 0, 48, 80
2, 38205, Note_on_c, 0, 60, 80
2, 38208, Note_on_c, 0, 80, 80
2, 38210, Note_on_c, 0, 68, 80
2, 38211, Note_on_c, 0, 77, 0
2, 38215, Note_on_c, 0, 65, 0
2, 38241, Note_on_c, 0, 87, 80
2, 38242, Note_on_c, 0, 80, 0
2, 38243, Note_on_c, 0, 75, 80
2, 38254, Note_on_c, 0, 68, 0
2, 38280, Note_on_c, 0, 47, 80
2, 38281, Note_on_c, 0, 48, 0
2, 38284, Note_on_c, 0, 60, 0
2, 38289, Note_on_c, 0, 59, 80
2, 38316, Note_on_c, 0, 75, 0
2, 38318, Note_on_c, 0, 87, 0
2, 38322, Note_on_c, 0, 68, 80
2, 38322, Note_on_c, 0, 80, 80
2, 38347, Note_on_c, 0, 59, 0
2, 38350, Note_on_c, 0, 46, 80
2, 38350, Note_on_c, 0, 58, 80
2, 38351, Note_on_c, 0, 68, 0
2, 38351, Note_on_c, 0, 67, 80
2, 38353, Note_on_c, 0, 47, 0
2, 38360, Note_on_c, 0, 80, 0
2, 38360, Note_on_c, 0, 79, 80
2, 38387, Note_on_c, 0, 67, 0
2, 38388, Note_on_c, 0, 58, 0
2, 38395, Note_on_c, 0, 63, 80
2, 38395, Note_on_c, 0, 75, 80
2, 38398, Note_on_c, 0, 79, 0
2, 38405, Note_on_c, 0, 63, 0
2, 38431, Note_on_c, 0, 55, 80
2, 38431, Note_on_c, 0, 58, 80
2, 38431, Note_on_c, 0, 67, 80
2, 38431, Note_on_c, 0, 79, 80
2, 38436, Note_on_c, 0, 75, 0
2, 38440, Note_on_c, 0, 63, 80
2, 38460, Note_on_c, 0, 46, 0
2, 38479, Note_on_c, 0, 58, 0
2, 38479, Note_on_c, 0, 55, 0
2, 38480, Note_on_c, 0, 67, 0
2, 38489, Note_on_c, 0, 79, 0
2, 38490, Note_on_c, 0, 63, 0
2, 38503, Note_on_c, 0, 57, 80
2, 38503, Note_on_c, 0, 66, 80
2, 38504, Note_on_c, 0, 72, 80
2, 38504, Note_on_c, 0, 75, 80
2, 38505, Note_on_c, 0, 45, 80
2, 38513, Note_on_c, 0, 78, 80
2, 38611, Note_on_c, 0, 66, 0
2, 38614, Note_on_c, 0, 72, 0
2, 38614, Note_on_c, 0, 75, 0
2, 38614, Note_on_c, 0, 78, 0
2, 38631, Note_on_c, 0, 45, 0
2, 38636, Note_on_c, 0, 57, 0
2, 38645, Note_on_c, 0, 46, 80
2, 38645, Note_on_c, 0, 58, 80
2, 38650, Note_on_c, 0, 70, 80
2, 38650, Note_on_c, 0, 75, 80
2, 38650, Note_on_c, 0, 79, 80
2, 38654, Note_on_c, 0, 67, 80
2, 38659, Note_on_c, 0, 70, 0
2, 38679, Note_on_c, 0, 75, 0
2, 38683, Note_on_c, 0, 70, 80
2, 38685, Note_on_c, 0, 58, 0
2, 38686, Note_on_c, 0, 67, 0
2, 38686, Note_on_c, 0, 79, 0
2, 38716, Note_on_c, 0, 58, 80
2, 38716, Note_on_c, 0, 67, 80
2, 38720, Note_on_c, 0, 55, 80
2, 38721, Note_on_c, 0, 70, 0
2, 38721, Note_on_c, 0, 79, 80
2, 38728, Note_on_c, 0, 63, 80
2, 38745, Note_on_c, 0, 46, 0
2, 38753, Note_on_c, 0, 65, 80
2, 38754, Note_on_c, 0, 67, 0
2, 38755, Note_on_c, 0, 79, 0
2, 38755, Note_on_c, 0, 77, 80
2, 38766, Note_on_c, 0, 63, 0
2, 38775, Note_on_c, 0, 58, 0
2, 38776, Note_on_c, 0, 55, 0
2, 38776, Note_on_c, 0, 60, 80
2, 38788, Note_on_c, 0, 75, 80
2, 38791, Note_on_c, 0, 63, 80
2, 38791, Note_on_c, 0, 69, 80
2, 38792, Note_on_c, 0, 48, 80
2, 38794, Note_on_c, 0, 77, 0
2, 38797, Note_on_c, 0, 65, 0
2, 38843, Note_on_c, 0, 75, 0
2, 38844, Note_on_c, 0, 63, 0
2, 38844, Note_on_c, 0, 69, 0
2, 38851, Note_on_c, 0, 58, 80
2, 38851, Note_on_c, 0, 65, 80
2, 38851, Note_on_c, 0, 68, 80
2, 38851, Note_on_c, 0, 74, 80
2, 38855, Note_on_c, 0, 60, 0
2, 38856, Note_on_c, 0, 46, 80
2, 38860, Note_on_c, 0, 77, 80
2, 38863, Note_on_c, 0, 48, 0
2, 38905, Note_on_c, 0, 77, 0
2, 38907, Note_on_c, 0, 74, 0
2, 38909, Note_on_c, 0, 68, 0
2, 38910, Note_on_c, 0, 65, 0
2, 38920, Note_on_c, 0, 63, 80
2, 38920, Note_on_c, 0, 67, 80
2, 38921, Note_on_c, 0, 46, 0
2, 38921, Note_on_c, 0, 51, 80
2, 38926, Note_on_c, 0, 58, 0
2, 38929, Note_on_c, 0, 75, 80
2, 38996, Note_on_c, 0, 63, 0
2, 39001, Note_on_c, 0, 46, 80
2, 39001, Note_on_c, 0, 58, 80
2, 39005, Note_on_c, 0, 51, 0
2, 39033, Note_on_c, 0, 67, 0
2, 39034, Note_on_c, 0, 75, 0
2, 39066, Note_on_c, 0, 75, 80
2, 39066, Note_on_c, 0, 79, 80
2, 39075, Note_on_c, 0, 46, 0
2, 39075, Note_on_c, 0, 39, 80
2, 39075, Note_on_c, 0, 51, 80
2, 39076, Note_on_c, 0, 87, 80
2, 39080, Note_on_c, 0, 58, 0
2, 39125, Note_on_c, 0, 87, 0
2, 39128, Note_on_c, 0, 79, 0
2, 39128, Note_on_c, 0, 75, 0
2, 39137, Note_on_c, 0, 39, 0
2, 39138, Note_on_c, 0, 51, 0
2, 39138, End_track
3, 0, Start_track
3, 0, Title_t, "c/b Scott Joplin"
3, 0, End_track
4, 0, Start_track
4, 0, Title_t, "p/b "
4, 0, End_track
5, 0, Start_track
5, 0, Title_t, "Unknown Manufacturer"
5, 0, End_track
6, 0, Start_track
6, 0, Title_t, "Scan of a player piano roll"
6, 0, End_track
7, 0, Start_track
7, 0, Title_t, "by Terry Smythe, Winnipeg, Canada"
7, 0, End_track
8, 0, Start_track
8, 1, Copyright_t, "___________________________________________________\012\012KUNSTDERFUGE.COM LARGE CLASSICAL MIDI COLLECTION\012ONCLASSICAL BY ALESSANDRO SIMONETTO, PROPRIETOR\012___________________________________________________\012\012! Attention: this file is under copyright !\012\012(c)onclassical, (nc)smythe, 2010\012___________________________________________________\012\012NO ONE MAY REPUBLISH THIS FILE WITHOUT PERMISSION\012COMMERCIAL USES OF THIS FILE IS STRICTLY PROHIBITED\012___________________________________________________\012\012Files & contributor's list: http://kunstderfuge.com/\012Terms and conditions: http://kunstderfuge.com/notes.htm"
8, 1, End_track
0, 0, End_of_file
