0, 0, Header, 1, 18, 384
1, 0, Start_track
1, 0, Time_signature, 4, 2, 96, 8
1, 0, Sequencer_specific, 3, 0, 0, 65
1, 0, Tempo, 500000
1, 1536, Tempo, 490196
1, 24576, Tempo, 466926
1, 27648, Tempo, 490196
1, 30816, Tempo, 478468
1, 32064, Tempo, 494641
1, 32220, Tempo, 486223
1, 33792, Tempo, 495867
1, 34176, Tempo, 514579
1, 34752, Tempo, 542005
1, 34944, Tempo, 540054
1, 35232, Tempo, 512820
1, 38168, Tempo, 529100
1, 38400, Tempo, 515463
1, 39044, Tempo, 505475
1, 39244, Tempo, 595238
1, 39456, Tempo, 532386
1, 39744, Tempo, 532386
1, 39892, Tempo, 516351
1, 41184, Tempo, 522193
1, 41376, Tempo, 506329
1, 41472, Tempo, 505475
1, 41664, Tempo, 500417
1, 42624, Tempo, 516351
1, 44544, Tempo, 505475
1, 46068, Tempo, 500000
1, 52032, Tempo, 515463
1, 52608, Tempo, 526315
1, 53336, Tempo, 542986
1, 53568, Tempo, 515463
1, 54484, Tempo, 476190
1, 55488, Tempo, 537153
1, 55584, Tempo, 491803
1, 55872, Tempo, 511508
1, 56160, Tempo, 495867
1, 61440, Tempo, 500000
1, 77184, Tempo, 545454
1, 77568, Tempo, 500000
1, 78144, Tempo, 535714
1, 78432, Tempo, 500000
1, 83212, Tempo, 526315
1, 83328, Tempo, 588235
1, 83712, Tempo, 526315
1, 84196, Tempo, 500000
1, 85920, Tempo, 526315
1, 87552, Tempo, 526315
1, 88848, Tempo, 576923
1, 88996, Tempo, 500000
1, 89280, Tempo, 620475
1, 89472, Tempo, 508474
1, 92160, Tempo, 500000
1, 92352, Tempo, 500000
1, 92388, Tempo, 504201
1, 92536, Tempo, 476190
1, 92616, Tempo, 508474
1, 92844, Tempo, 512820
1, 93072, Tempo, 517241
1, 93300, Tempo, 521739
1, 93528, Tempo, 526315
1, 93756, Tempo, 526315
1, 93984, Tempo, 526315
1, 94212, Tempo, 530973
1, 94440, Tempo, 530973
1, 95232, Tempo, 480000
1, 95236, Tempo, 500000
1, 95236, End_track
2, 0, Start_track
2, 0, Title_t, "Scott Joplin's Rag-Time performance"
2, 0, Key_signature, 0, "major"
2, 2224, Note_on_c, 1, 67, 69
2, 2224, Note_on_c, 1, 55, 60
2, 2228, Note_on_c, 1, 43, 53
2, 2236, Note_off_c, 1, 67, 64
2, 2244, Note_off_c, 1, 55, 64
2, 2248, Note_off_c, 1, 43, 64
2, 2484, Note_on_c, 1, 67, 88
2, 2484, Note_on_c, 1, 43, 61
2, 2484, Note_on_c, 1, 55, 57
2, 2556, Control_c, 1, 64, 127
2, 2664, Note_off_c, 1, 55, 64
2, 2768, Control_c, 1, 64, 0
2, 2948, Note_off_c, 1, 67, 64
2, 2956, Note_on_c, 1, 69, 77
2, 2964, Note_on_c, 1, 57, 57
2, 2968, Note_on_c, 1, 45, 47
2, 3016, Note_off_c, 1, 43, 64
2, 3052, Control_c, 1, 64, 127
2, 3088, Note_off_c, 1, 57, 64
2, 3100, Note_off_c, 1, 45, 64
2, 3192, Note_on_c, 1, 71, 70
2, 3192, Control_c, 1, 64, 0
2, 3204, Note_off_c, 1, 69, 64
2, 3208, Note_on_c, 1, 59, 56
2, 3208, Note_on_c, 1, 47, 45
2, 3220, Note_off_c, 1, 71, 64
2, 3220, Note_off_c, 1, 47, 64
2, 3228, Note_off_c, 1, 59, 64
2, 3444, Note_on_c, 1, 71, 85
2, 3448, Note_on_c, 1, 47, 65
2, 3448, Note_on_c, 1, 59, 57
2, 3448, Control_c, 1, 64, 127
2, 3460, Note_off_c, 1, 59, 64
2, 3692, Control_c, 1, 64, 0
2, 3800, Note_off_c, 1, 47, 64
2, 3912, Note_on_c, 1, 77, 80
2, 3916, Note_off_c, 1, 71, 64
2, 3928, Note_on_c, 1, 65, 54
2, 3928, Note_on_c, 1, 53, 57
2, 3928, Control_c, 1, 64, 127
2, 3952, Note_off_c, 1, 65, 64
2, 3952, Note_off_c, 1, 53, 64
2, 4136, Note_off_c, 1, 77, 64
2, 4144, Note_on_c, 1, 76, 75
2, 4144, Note_on_c, 1, 64, 35
2, 4144, Note_on_c, 1, 52, 35
2, 4156, Control_c, 1, 64, 0
2, 4444, Control_c, 1, 64, 127
2, 4488, Note_off_c, 1, 64, 64
2, 4504, Note_off_c, 1, 52, 64
2, 4592, Control_c, 1, 64, 0
2, 4608, Note_on_c, 1, 74, 73
2, 4608, Note_on_c, 1, 62, 35
2, 4608, Note_on_c, 1, 50, 34
2, 4624, Note_off_c, 1, 76, 64
2, 4828, Control_c, 1, 64, 127
2, 4840, Note_off_c, 1, 74, 64
2, 4840, Note_off_c, 1, 62, 64
2, 4856, Note_off_c, 1, 50, 64
2, 5092, Note_on_c, 1, 79, 64
2, 5096, Note_on_c, 1, 71, 58
2, 5096, Note_on_c, 1, 67, 37
2, 5108, Note_on_c, 1, 43, 29
2, 5108, Note_on_c, 1, 55, 34
2, 5112, Control_c, 1, 64, 0
2, 5168, Note_off_c, 1, 71, 64
2, 5168, Note_off_c, 1, 55, 64
2, 5172, Note_off_c, 1, 79, 64
2, 5172, Note_off_c, 1, 43, 64
2, 5180, Note_off_c, 1, 67, 64
2, 5336, Note_on_c, 1, 66, 70
2, 5440, Note_off_c, 1, 66, 64
2, 5448, Note_on_c, 1, 67, 65
2, 5544, Note_on_c, 1, 69, 63
2, 5572, Note_off_c, 1, 67, 64
2, 5652, Note_on_c, 1, 71, 65
2, 5656, Note_off_c, 1, 69, 64
2, 5756, Note_on_c, 1, 72, 55
2, 5760, Note_off_c, 1, 71, 64
2, 5868, Note_on_c, 1, 74, 57
2, 5884, Note_off_c, 1, 72, 64
2, 5956, Note_on_c, 1, 48, 61
2, 5964, Note_off_c, 1, 48, 64
2, 5964, Note_on_c, 1, 60, 58
2, 5968, Note_on_c, 1, 76, 68
2, 5976, Note_off_c, 1, 60, 64
2, 6016, Note_off_c, 1, 74, 64
2, 6068, Note_off_c, 1, 76, 64
2, 6068, Note_on_c, 1, 75, 68
2, 6152, Note_on_c, 1, 55, 54
2, 6152, Note_on_c, 1, 64, 61
2, 6164, Note_on_c, 1, 60, 58
2, 6168, Note_off_c, 1, 75, 64
2, 6168, Note_on_c, 1, 76, 70
2, 6176, Note_off_c, 1, 55, 64
2, 6176, Note_off_c, 1, 60, 64
2, 6180, Note_off_c, 1, 64, 64
2, 6256, Note_on_c, 1, 77, 73
2, 6272, Note_off_c, 1, 76, 64
2, 6356, Note_on_c, 1, 52, 57
2, 6364, Note_off_c, 1, 77, 64
2, 6364, Note_on_c, 1, 64, 62
2, 6364, Note_on_c, 1, 79, 74
2, 6368, Note_off_c, 1, 52, 64
2, 6372, Note_off_c, 1, 64, 64
2, 6452, Note_off_c, 1, 79, 64
2, 6452, Note_on_c, 1, 81, 77
2, 6544, Note_off_c, 1, 81, 64
2, 6552, Note_on_c, 1, 63, 60
2, 6552, Note_on_c, 1, 84, 70
2, 6572, Note_off_c, 1, 63, 64
2, 6656, Note_on_c, 1, 81, 75
2, 6660, Note_off_c, 1, 84, 64
2, 6744, Note_off_c, 1, 81, 64
2, 6748, Note_on_c, 1, 50, 62
2, 6752, Note_on_c, 1, 83, 58
2, 6752, Note_on_c, 1, 62, 44
2, 6768, Note_off_c, 1, 50, 64
2, 6772, Note_off_c, 1, 62, 64
2, 6852, Note_off_c, 1, 83, 64
2, 6852, Note_on_c, 1, 84, 62
2, 6940, Note_off_c, 1, 84, 64
2, 6948, Note_on_c, 1, 65, 57
2, 6956, Note_on_c, 1, 55, 57
2, 6956, Note_on_c, 1, 59, 56
2, 6956, Note_on_c, 1, 86, 68
2, 6960, Note_off_c, 1, 65, 64
2, 6964, Note_off_c, 1, 55, 64
2, 6968, Note_off_c, 1, 59, 64
2, 7044, Note_off_c, 1, 86, 64
2, 7052, Note_on_c, 1, 77, 62
2, 7152, Note_off_c, 1, 77, 64
2, 7152, Note_on_c, 1, 55, 61
2, 7156, Note_on_c, 1, 43, 58
2, 7156, Note_on_c, 1, 81, 73
2, 7168, Note_off_c, 1, 43, 64
2, 7176, Note_off_c, 1, 55, 64
2, 7248, Note_off_c, 1, 81, 64
2, 7264, Note_on_c, 1, 79, 71
2, 7344, Note_off_c, 1, 79, 64
2, 7352, Note_on_c, 1, 55, 43
2, 7352, Note_on_c, 1, 65, 58
2, 7352, Note_on_c, 1, 74, 70
2, 7352, Note_on_c, 1, 59, 52
2, 7360, Note_off_c, 1, 65, 64
2, 7364, Note_off_c, 1, 55, 64
2, 7364, Note_off_c, 1, 59, 64
2, 7452, Note_off_c, 1, 74, 64
2, 7452, Note_on_c, 1, 75, 62
2, 7460, Note_off_c, 1, 75, 64
2, 7544, Note_on_c, 1, 48, 64
2, 7548, Note_on_c, 1, 60, 64
2, 7552, Note_on_c, 1, 76, 77
2, 7552, Control_c, 1, 64, 127
2, 7564, Note_off_c, 1, 48, 64
2, 7568, Note_off_c, 1, 60, 64
2, 7644, Note_off_c, 1, 76, 64
2, 7648, Control_c, 1, 64, 0
2, 7652, Note_on_c, 1, 75, 77
2, 7744, Note_off_c, 1, 75, 64
2, 7752, Note_on_c, 1, 55, 65
2, 7752, Note_on_c, 1, 64, 60
2, 7752, Note_on_c, 1, 60, 58
2, 7752, Note_on_c, 1, 76, 73
2, 7756, Note_off_c, 1, 60, 64
2, 7760, Note_off_c, 1, 55, 64
2, 7764, Note_off_c, 1, 64, 64
2, 7840, Note_off_c, 1, 76, 64
2, 7848, Note_on_c, 1, 77, 71
2, 7936, Note_on_c, 1, 52, 62
2, 7936, Note_on_c, 1, 64, 61
2, 7948, Note_on_c, 1, 79, 75
2, 7952, Note_off_c, 1, 77, 64
2, 7956, Note_off_c, 1, 64, 64
2, 7960, Note_off_c, 1, 52, 64
2, 8036, Note_off_c, 1, 79, 64
2, 8036, Note_on_c, 1, 81, 75
2, 8132, Note_off_c, 1, 81, 64
2, 8136, Note_on_c, 1, 84, 62
2, 8136, Note_on_c, 1, 63, 59
2, 8136, Note_on_c, 1, 51, 57
2, 8148, Note_off_c, 1, 63, 64
2, 8156, Note_off_c, 1, 51, 64
2, 8224, Note_off_c, 1, 84, 64
2, 8244, Note_on_c, 1, 81, 82
2, 8328, Note_on_c, 1, 50, 64
2, 8332, Note_off_c, 1, 81, 64
2, 8332, Note_on_c, 1, 83, 75
2, 8336, Note_on_c, 1, 62, 51
2, 8340, Note_off_c, 1, 50, 64
2, 8344, Note_off_c, 1, 62, 64
2, 8420, Note_off_c, 1, 83, 64
2, 8432, Note_on_c, 1, 84, 65
2, 8520, Note_off_c, 1, 84, 64
2, 8524, Note_on_c, 1, 59, 68
2, 8528, Note_on_c, 1, 55, 60
2, 8528, Note_on_c, 1, 65, 58
2, 8528, Note_on_c, 1, 86, 68
2, 8536, Note_off_c, 1, 59, 64
2, 8536, Note_off_c, 1, 55, 64
2, 8536, Note_off_c, 1, 65, 64
2, 8616, Note_off_c, 1, 86, 64
2, 8628, Note_on_c, 1, 77, 70
2, 8716, Note_off_c, 1, 77, 64
2, 8716, Note_on_c, 1, 43, 62
2, 8716, Note_on_c, 1, 55, 61
2, 8728, Note_on_c, 1, 81, 82
2, 8736, Note_off_c, 1, 43, 64
2, 8740, Note_off_c, 1, 55, 64
2, 8820, Note_off_c, 1, 81, 64
2, 8824, Note_on_c, 1, 79, 77
2, 8912, Note_off_c, 1, 79, 64
2, 8924, Note_on_c, 1, 74, 75
2, 8928, Note_on_c, 1, 65, 60
2, 8928, Note_on_c, 1, 59, 58
2, 8928, Note_on_c, 1, 55, 35
2, 8936, Note_off_c, 1, 59, 64
2, 8936, Note_off_c, 1, 55, 64
2, 8940, Note_off_c, 1, 65, 64
2, 9008, Note_off_c, 1, 74, 64
2, 9012, Note_on_c, 1, 76, 70
2, 9112, Note_on_c, 1, 56, 71
2, 9116, Note_off_c, 1, 76, 64
2, 9116, Note_on_c, 1, 77, 77
2, 9208, Note_on_c, 1, 59, 65
2, 9208, Note_on_c, 1, 74, 73
2, 9296, Note_on_c, 1, 62, 51
2, 9308, Note_on_c, 1, 71, 65
2, 9320, Note_off_c, 1, 74, 64
2, 9328, Note_on_c, 1, 74, 34
2, 9348, Note_off_c, 1, 74, 64
2, 9388, Note_off_c, 1, 62, 64
2, 9400, Note_off_c, 1, 71, 64
2, 9404, Note_on_c, 1, 65, 58
2, 9404, Note_on_c, 1, 68, 58
2, 9408, Control_c, 1, 64, 127
2, 9420, Note_off_c, 1, 56, 64
2, 9420, Note_off_c, 1, 59, 64
2, 9432, Note_off_c, 1, 65, 64
2, 9464, Note_off_c, 1, 68, 64
2, 9504, Note_off_c, 1, 77, 64
2, 9512, Note_on_c, 1, 64, 35
2, 9512, Note_on_c, 1, 69, 62
2, 9516, Note_on_c, 1, 60, 34
2, 9516, Control_c, 1, 64, 0
2, 9548, Note_off_c, 1, 60, 64
2, 9556, Note_off_c, 1, 64, 64
2, 9584, Note_off_c, 1, 69, 64
2, 9912, Note_on_c, 1, 77, 60
2, 9916, Note_on_c, 1, 56, 28
2, 10004, Note_off_c, 1, 56, 64
2, 10008, Note_on_c, 1, 59, 54
2, 10012, Note_on_c, 1, 74, 65
2, 10016, Note_off_c, 1, 77, 64
2, 10112, Note_off_c, 1, 59, 64
2, 10112, Note_off_c, 1, 74, 64
2, 10112, Note_on_c, 1, 71, 60
2, 10116, Note_on_c, 1, 62, 35
2, 10204, Note_off_c, 1, 71, 64
2, 10216, Note_on_c, 1, 68, 56
2, 10216, Note_on_c, 1, 65, 37
2, 10224, Note_off_c, 1, 62, 64
2, 10224, Control_c, 1, 64, 127
2, 10248, Note_off_c, 1, 65, 64
2, 10256, Note_off_c, 1, 68, 64
2, 10344, Note_on_c, 1, 64, 29
2, 10344, Note_on_c, 1, 69, 30
2, 10348, Note_on_c, 1, 60, 28
2, 10352, Control_c, 1, 64, 0
2, 10408, Note_off_c, 1, 64, 64
2, 10412, Note_off_c, 1, 60, 64
2, 10424, Note_off_c, 1, 69, 64
2, 10784, Note_on_c, 1, 45, 62
2, 10784, Note_on_c, 1, 36, 53
2, 10784, Control_c, 1, 64, 127
2, 10808, Note_off_c, 1, 45, 64
2, 10872, Note_off_c, 1, 36, 64
2, 10896, Note_on_c, 1, 39, 54
2, 10896, Note_on_c, 1, 48, 68
2, 10916, Note_off_c, 1, 48, 64
2, 10984, Note_off_c, 1, 39, 64
2, 10992, Note_on_c, 1, 51, 71
2, 11004, Note_on_c, 1, 42, 62
2, 11096, Note_off_c, 1, 42, 64
2, 11100, Note_off_c, 1, 51, 64
2, 11104, Note_on_c, 1, 45, 68
2, 11104, Note_on_c, 1, 54, 77
2, 11116, Note_off_c, 1, 54, 64
2, 11196, Note_off_c, 1, 45, 64
2, 11204, Note_on_c, 1, 57, 82
2, 11208, Note_on_c, 1, 48, 64
2, 11288, Note_off_c, 1, 48, 64
2, 11308, Note_off_c, 1, 57, 64
2, 11308, Note_on_c, 1, 51, 68
2, 11312, Note_on_c, 1, 60, 75
2, 11400, Note_off_c, 1, 60, 64
2, 11408, Note_on_c, 1, 63, 68
2, 11408, Note_on_c, 1, 54, 71
2, 11512, Note_on_c, 1, 66, 70
2, 11516, Note_off_c, 1, 63, 64
2, 11516, Note_on_c, 1, 57, 75
2, 11524, Note_off_c, 1, 66, 64
2, 11604, Note_off_c, 1, 57, 64
2, 11608, Note_off_c, 1, 51, 64
2, 11608, Note_off_c, 1, 54, 64
2, 11616, Note_on_c, 1, 60, 66
2, 11624, Note_on_c, 1, 69, 79
2, 11704, Note_off_c, 1, 60, 64
2, 11724, Note_on_c, 1, 63, 66
2, 11728, Note_off_c, 1, 69, 64
2, 11728, Note_on_c, 1, 72, 78
2, 11816, Note_off_c, 1, 72, 64
2, 11824, Note_on_c, 1, 75, 73
2, 11824, Note_on_c, 1, 66, 71
2, 11924, Note_on_c, 1, 69, 73
2, 11928, Note_on_c, 1, 78, 75
2, 11932, Note_off_c, 1, 75, 64
2, 11948, Note_off_c, 1, 78, 64
2, 12016, Note_off_c, 1, 63, 64
2, 12028, Note_off_c, 1, 66, 64
2, 12028, Note_off_c, 1, 69, 64
2, 12032, Note_on_c, 1, 72, 64
2, 12032, Note_on_c, 1, 81, 82
2, 12124, Note_off_c, 1, 72, 64
2, 12132, Note_on_c, 1, 84, 80
2, 12144, Note_on_c, 1, 75, 65
2, 12240, Note_off_c, 1, 84, 64
2, 12248, Note_on_c, 1, 87, 68
2, 12256, Note_off_c, 1, 81, 64
2, 12256, Note_on_c, 1, 78, 71
2, 12388, Note_on_c, 1, 90, 62
2, 12388, Note_on_c, 1, 81, 70
2, 12392, Note_off_c, 1, 75, 64
2, 12400, Note_off_c, 1, 78, 64
2, 12400, Note_off_c, 1, 87, 64
2, 12408, Note_off_c, 1, 90, 64
2, 12412, Note_off_c, 1, 81, 64
2, 12572, Note_on_c, 1, 80, 77
2, 12572, Note_on_c, 1, 92, 64
2, 12572, Note_on_c, 1, 87, 64
2, 12576, Note_on_c, 1, 84, 66
2, 12576, Control_c, 1, 64, 0
2, 12632, Control_c, 1, 64, 127
2, 12644, Note_off_c, 1, 92, 64
2, 12644, Note_off_c, 1, 87, 64
2, 12644, Note_off_c, 1, 84, 64
2, 12692, Note_off_c, 1, 80, 64
2, 12792, Note_on_c, 1, 75, 66
2, 12792, Note_on_c, 1, 87, 60
2, 12804, Note_on_c, 1, 84, 63
2, 12804, Note_on_c, 1, 90, 61
2, 12804, Control_c, 1, 64, 0
2, 12816, Note_off_c, 1, 87, 64
2, 12828, Note_off_c, 1, 84, 64
2, 12828, Note_off_c, 1, 90, 64
2, 12892, Note_off_c, 1, 75, 64
2, 12904, Note_on_c, 1, 90, 61
2, 12908, Note_on_c, 1, 87, 57
2, 12908, Note_on_c, 1, 84, 65
2, 13016, Note_off_c, 1, 90, 64
2, 13016, Note_on_c, 1, 72, 61
2, 13020, Note_off_c, 1, 87, 64
2, 13020, Note_off_c, 1, 84, 64
2, 13108, Note_off_c, 1, 72, 64
2, 13124, Note_on_c, 1, 90, 60
2, 13128, Note_on_c, 1, 87, 55
2, 13132, Note_on_c, 1, 84, 62
2, 13156, Note_off_c, 1, 87, 64
2, 13156, Note_off_c, 1, 84, 64
2, 13164, Note_off_c, 1, 90, 64
2, 13228, Note_on_c, 1, 68, 50
2, 13236, Note_on_c, 1, 90, 52
2, 13236, Note_on_c, 1, 87, 49
2, 13244, Note_on_c, 1, 84, 45
2, 13252, Control_c, 1, 64, 127
2, 13260, Note_off_c, 1, 68, 64
2, 13268, Note_off_c, 1, 90, 64
2, 13268, Note_off_c, 1, 87, 64
2, 13272, Note_off_c, 1, 84, 64
2, 13436, Control_c, 1, 64, 0
2, 13448, Note_on_c, 1, 67, 54
2, 13452, Note_on_c, 1, 88, 58
2, 13456, Note_on_c, 1, 91, 65
2, 13456, Note_on_c, 1, 84, 59
2, 13496, Control_c, 1, 64, 127
2, 13528, Note_off_c, 1, 91, 64
2, 13540, Note_off_c, 1, 88, 64
2, 13540, Note_off_c, 1, 84, 64
2, 13664, Note_on_c, 1, 76, 53
2, 13668, Note_on_c, 1, 72, 48
2, 13700, Note_off_c, 1, 67, 64
2, 13756, Note_off_c, 1, 72, 64
2, 13768, Note_off_c, 1, 76, 64
2, 13868, Note_on_c, 1, 64, 28
2, 13884, Note_on_c, 1, 91, 80
2, 13884, Control_c, 1, 64, 0
2, 13984, Note_on_c, 1, 88, 75
2, 14092, Note_off_c, 1, 88, 64
2, 14096, Note_on_c, 1, 72, 51
2, 14096, Note_on_c, 1, 67, 29
2, 14096, Note_on_c, 1, 84, 75
2, 14096, Note_on_c, 1, 76, 57
2, 14108, Control_c, 1, 64, 127
2, 14120, Note_off_c, 1, 72, 64
2, 14120, Note_off_c, 1, 76, 64
2, 14128, Note_off_c, 1, 67, 64
2, 14136, Note_off_c, 1, 64, 64
2, 14184, Note_off_c, 1, 84, 64
2, 14188, Note_off_c, 1, 91, 64
2, 14192, Note_on_c, 1, 79, 63
2, 14204, Note_off_c, 1, 79, 64
2, 14308, Note_on_c, 1, 62, 62
2, 14324, Note_on_c, 1, 78, 62
2, 14324, Note_on_c, 1, 81, 71
2, 14324, Note_on_c, 1, 72, 59
2, 14324, Control_c, 1, 64, 0
2, 14508, Note_on_c, 1, 69, 58
2, 14512, Note_off_c, 1, 72, 64
2, 14524, Note_off_c, 1, 78, 64
2, 14528, Note_off_c, 1, 81, 64
2, 14528, Control_c, 1, 64, 127
2, 14568, Note_off_c, 1, 62, 64
2, 14580, Note_off_c, 1, 69, 64
2, 14716, Note_on_c, 1, 86, 66
2, 14724, Note_on_c, 1, 67, 35
2, 14728, Note_on_c, 1, 77, 57
2, 14728, Note_on_c, 1, 71, 34
2, 14736, Control_c, 1, 64, 0
2, 14744, Note_off_c, 1, 86, 64
2, 14752, Note_off_c, 1, 77, 64
2, 14832, Note_on_c, 1, 86, 70
2, 14832, Note_on_c, 1, 77, 58
2, 14888, Control_c, 1, 64, 127
2, 14916, Note_off_c, 1, 86, 64
2, 14920, Note_off_c, 1, 77, 64
2, 14952, Control_c, 1, 64, 0
2, 14968, Note_off_c, 1, 67, 64
2, 14980, Note_off_c, 1, 71, 64
2, 15024, Note_on_c, 1, 79, 66
2, 15028, Note_on_c, 1, 77, 57
2, 15040, Note_off_c, 1, 77, 64
2, 15044, Note_off_c, 1, 79, 64
2, 15132, Note_on_c, 1, 84, 70
2, 15132, Control_c, 1, 64, 127
2, 15136, Note_on_c, 1, 67, 48
2, 15136, Note_on_c, 1, 76, 62
2, 15136, Note_on_c, 1, 72, 53
2, 15144, Note_off_c, 1, 84, 64
2, 15144, Note_off_c, 1, 76, 64
2, 15144, Note_on_c, 1, 60, 34
2, 15160, Note_off_c, 1, 67, 64
2, 15160, Note_off_c, 1, 72, 64
2, 15168, Note_off_c, 1, 60, 64
2, 15304, Control_c, 1, 64, 0
2, 15352, Note_on_c, 1, 72, 66
2, 15440, Note_off_c, 1, 72, 64
2, 15452, Note_on_c, 1, 74, 77
2, 15556, Note_off_c, 1, 74, 64
2, 15564, Note_on_c, 1, 76, 77
2, 15664, Note_off_c, 1, 76, 64
2, 15672, Note_on_c, 1, 77, 68
2, 15676, Control_c, 1, 64, 127
2, 15768, Control_c, 1, 64, 0
2, 15784, Note_on_c, 1, 78, 66
2, 15788, Note_off_c, 1, 77, 64
2, 15896, Note_off_c, 1, 78, 64
2, 15896, Control_c, 1, 64, 127
2, 15904, Note_on_c, 1, 79, 68
2, 15924, Note_off_c, 1, 79, 64
2, 16048, Note_on_c, 1, 80, 62
2, 16048, Note_on_c, 1, 68, 57
2, 16048, Note_on_c, 1, 72, 55
2, 16052, Note_on_c, 1, 75, 50
2, 16056, Control_c, 1, 64, 0
2, 16152, Control_c, 1, 64, 127
2, 16164, Note_off_c, 1, 75, 64
2, 16168, Note_off_c, 1, 72, 64
2, 16176, Note_off_c, 1, 80, 64
2, 16248, Control_c, 1, 64, 0
2, 16252, Note_on_c, 1, 78, 63
2, 16256, Note_on_c, 1, 75, 62
2, 16256, Note_on_c, 1, 72, 62
2, 16256, Note_on_c, 1, 63, 35
2, 16268, Note_off_c, 1, 68, 64
2, 16276, Note_off_c, 1, 78, 64
2, 16276, Note_off_c, 1, 75, 64
2, 16280, Note_off_c, 1, 72, 64
2, 16348, Note_off_c, 1, 63, 64
2, 16364, Note_on_c, 1, 75, 62
2, 16368, Note_on_c, 1, 78, 65
2, 16368, Note_on_c, 1, 72, 66
2, 16468, Note_off_c, 1, 75, 64
2, 16472, Note_off_c, 1, 72, 64
2, 16476, Note_off_c, 1, 78, 64
2, 16476, Note_on_c, 1, 60, 60
2, 16576, Note_off_c, 1, 60, 64
2, 16576, Note_on_c, 1, 78, 60
2, 16576, Note_on_c, 1, 72, 61
2, 16600, Note_off_c, 1, 78, 64
2, 16600, Note_off_c, 1, 72, 64
2, 16692, Note_on_c, 1, 56, 60
2, 16704, Note_on_c, 1, 78, 64
2, 16704, Note_on_c, 1, 72, 63
2, 16704, Note_on_c, 1, 75, 62
2, 16704, Control_c, 1, 64, 127
2, 16724, Note_off_c, 1, 56, 64
2, 16728, Note_off_c, 1, 78, 64
2, 16728, Note_off_c, 1, 72, 64
2, 16732, Note_off_c, 1, 75, 64
2, 16924, Note_on_c, 1, 55, 39
2, 16928, Note_on_c, 1, 76, 61
2, 16932, Note_on_c, 1, 79, 63
2, 16936, Note_on_c, 1, 72, 57
2, 16948, Control_c, 1, 64, 0
2, 17032, Control_c, 1, 64, 127
2, 17080, Note_off_c, 1, 72, 64
2, 17092, Note_off_c, 1, 76, 64
2, 17100, Note_off_c, 1, 79, 64
2, 17148, Note_on_c, 1, 64, 38
2, 17156, Note_on_c, 1, 60, 34
2, 17176, Note_off_c, 1, 55, 64
2, 17180, Note_off_c, 1, 64, 64
2, 17180, Note_off_c, 1, 60, 64
2, 17348, Note_on_c, 1, 52, 29
2, 17376, Control_c, 1, 64, 0
2, 17384, Note_on_c, 1, 79, 82
2, 17496, Note_on_c, 1, 76, 75
2, 17600, Note_off_c, 1, 76, 64
2, 17612, Note_on_c, 1, 60, 35
2, 17616, Note_on_c, 1, 72, 70
2, 17616, Note_on_c, 1, 64, 35
2, 17616, Note_on_c, 1, 55, 30
2, 17652, Control_c, 1, 64, 127
2, 17668, Note_off_c, 1, 60, 64
2, 17676, Note_off_c, 1, 64, 64
2, 17676, Note_off_c, 1, 55, 64
2, 17688, Note_off_c, 1, 52, 64
2, 17708, Note_off_c, 1, 72, 64
2, 17712, Note_on_c, 1, 67, 63
2, 17716, Note_off_c, 1, 79, 64
2, 17732, Note_off_c, 1, 67, 64
2, 17836, Note_on_c, 1, 66, 60
2, 17836, Note_on_c, 1, 69, 68
2, 17844, Note_on_c, 1, 50, 32
2, 17844, Control_c, 1, 64, 0
2, 17872, Note_on_c, 1, 60, 28
2, 18052, Note_off_c, 1, 60, 64
2, 18060, Note_off_c, 1, 66, 64
2, 18064, Note_off_c, 1, 69, 64
2, 18068, Note_on_c, 1, 57, 53
2, 18068, Control_c, 1, 64, 127
2, 18104, Note_off_c, 1, 50, 64
2, 18108, Note_off_c, 1, 57, 64
2, 18284, Note_on_c, 1, 74, 63
2, 18284, Note_on_c, 1, 65, 57
2, 18284, Note_on_c, 1, 55, 45
2, 18284, Control_c, 1, 64, 0
2, 18288, Note_on_c, 1, 59, 39
2, 18296, Note_off_c, 1, 74, 64
2, 18308, Note_off_c, 1, 65, 64
2, 18392, Note_on_c, 1, 74, 66
2, 18404, Note_on_c, 1, 65, 51
2, 18428, Control_c, 1, 64, 127
2, 18492, Note_off_c, 1, 74, 64
2, 18504, Note_off_c, 1, 65, 64
2, 18508, Note_off_c, 1, 59, 64
2, 18524, Note_off_c, 1, 55, 64
2, 18608, Note_on_c, 1, 67, 60
2, 18612, Note_on_c, 1, 65, 49
2, 18624, Control_c, 1, 64, 0
2, 18644, Note_off_c, 1, 65, 64
2, 18652, Note_off_c, 1, 67, 64
2, 18796, Note_on_c, 1, 72, 58
2, 18796, Control_c, 1, 64, 127
2, 18804, Note_on_c, 1, 64, 48
2, 18808, Note_on_c, 1, 55, 35
2, 18808, Note_on_c, 1, 48, 34
2, 18812, Note_on_c, 1, 60, 30
2, 18816, Note_off_c, 1, 64, 64
2, 18828, Note_off_c, 1, 72, 64
2, 18848, Note_off_c, 1, 55, 64
2, 18856, Note_off_c, 1, 48, 64
2, 18856, Note_off_c, 1, 60, 64
2, 19032, Note_on_c, 1, 66, 70
2, 19036, Control_c, 1, 64, 0
2, 19140, Note_off_c, 1, 66, 64
2, 19156, Note_on_c, 1, 67, 62
2, 19256, Note_off_c, 1, 67, 64
2, 19264, Note_on_c, 1, 69, 68
2, 19376, Note_off_c, 1, 69, 64
2, 19376, Note_on_c, 1, 71, 66
2, 19476, Note_off_c, 1, 71, 64
2, 19492, Note_on_c, 1, 72, 68
2, 19592, Note_off_c, 1, 72, 64
2, 19596, Note_on_c, 1, 74, 62
2, 19696, Note_off_c, 1, 74, 64
2, 19696, Note_on_c, 1, 60, 65
2, 19696, Note_on_c, 1, 48, 62
2, 19708, Note_off_c, 1, 60, 64
2, 19708, Note_off_c, 1, 48, 64
2, 19708, Note_on_c, 1, 76, 73
2, 19796, Note_off_c, 1, 76, 64
2, 19804, Note_on_c, 1, 75, 66
2, 19904, Note_off_c, 1, 75, 64
2, 19908, Note_on_c, 1, 55, 63
2, 19908, Note_on_c, 1, 64, 60
2, 19908, Note_on_c, 1, 76, 66
2, 19908, Note_on_c, 1, 60, 61
2, 19912, Note_off_c, 1, 60, 64
2, 19916, Note_off_c, 1, 55, 64
2, 19916, Note_off_c, 1, 64, 64
2, 20012, Note_on_c, 1, 77, 75
2, 20020, Note_off_c, 1, 76, 64
2, 20112, Note_on_c, 1, 64, 48
2, 20112, Note_on_c, 1, 79, 75
2, 20124, Note_off_c, 1, 77, 64
2, 20124, Note_on_c, 1, 52, 61
2, 20196, Control_c, 1, 64, 127
2, 20220, Note_off_c, 1, 79, 64
2, 20224, Note_on_c, 1, 81, 68
2, 20232, Note_off_c, 1, 64, 64
2, 20252, Note_off_c, 1, 52, 64
2, 20304, Note_off_c, 1, 81, 64
2, 20316, Note_on_c, 1, 84, 60
2, 20316, Note_on_c, 1, 63, 60
2, 20324, Note_on_c, 1, 51, 64
2, 20336, Control_c, 1, 64, 0
2, 20416, Note_on_c, 1, 81, 71
2, 20424, Note_off_c, 1, 84, 64
2, 20428, Control_c, 1, 64, 127
2, 20436, Note_off_c, 1, 63, 64
2, 20436, Note_off_c, 1, 51, 64
2, 20512, Control_c, 1, 64, 0
2, 20528, Note_off_c, 1, 81, 64
2, 20528, Note_on_c, 1, 83, 75
2, 20528, Note_on_c, 1, 50, 57
2, 20528, Note_on_c, 1, 62, 53
2, 20532, Control_c, 1, 64, 127
2, 20548, Note_off_c, 1, 50, 64
2, 20552, Note_off_c, 1, 62, 64
2, 20612, Control_c, 1, 64, 0
2, 20628, Note_off_c, 1, 83, 64
2, 20632, Note_on_c, 1, 84, 66
2, 20732, Note_off_c, 1, 84, 64
2, 20732, Note_on_c, 1, 55, 58
2, 20736, Note_on_c, 1, 86, 66
2, 20744, Note_off_c, 1, 55, 64
2, 20744, Note_on_c, 1, 65, 58
2, 20744, Note_on_c, 1, 59, 58
2, 20748, Note_off_c, 1, 59, 64
2, 20752, Note_off_c, 1, 65, 64
2, 20824, Note_off_c, 1, 86, 64
2, 20828, Note_on_c, 1, 77, 68
2, 20936, Note_off_c, 1, 77, 64
2, 20936, Note_on_c, 1, 43, 64
2, 20944, Note_on_c, 1, 55, 65
2, 20944, Note_on_c, 1, 81, 75
2, 20944, Control_c, 1, 64, 127
2, 20956, Note_off_c, 1, 43, 64
2, 20968, Note_off_c, 1, 55, 64
2, 21044, Note_off_c, 1, 81, 64
2, 21052, Note_on_c, 1, 79, 80
2, 21144, Note_off_c, 1, 79, 64
2, 21148, Note_on_c, 1, 74, 80
2, 21152, Note_on_c, 1, 65, 61
2, 21152, Note_on_c, 1, 59, 61
2, 21152, Note_on_c, 1, 55, 59
2, 21156, Control_c, 1, 64, 0
2, 21172, Note_off_c, 1, 65, 64
2, 21172, Note_off_c, 1, 59, 64
2, 21176, Note_off_c, 1, 55, 64
2, 21248, Note_on_c, 1, 75, 63
2, 21252, Note_off_c, 1, 74, 64
2, 21272, Note_off_c, 1, 75, 64
2, 21352, Note_on_c, 1, 48, 68
2, 21356, Note_on_c, 1, 60, 61
2, 21368, Note_on_c, 1, 76, 88
2, 21368, Control_c, 1, 64, 127
2, 21376, Note_off_c, 1, 48, 64
2, 21384, Note_off_c, 1, 60, 64
2, 21456, Note_off_c, 1, 76, 64
2, 21456, Note_on_c, 1, 75, 77
2, 21548, Note_off_c, 1, 75, 64
2, 21564, Note_on_c, 1, 76, 75
2, 21564, Note_on_c, 1, 55, 63
2, 21568, Note_on_c, 1, 64, 65
2, 21568, Note_on_c, 1, 60, 61
2, 21568, Control_c, 1, 64, 0
2, 21616, Note_off_c, 1, 60, 64
2, 21624, Note_off_c, 1, 55, 64
2, 21632, Note_off_c, 1, 64, 64
2, 21656, Note_off_c, 1, 76, 64
2, 21656, Note_on_c, 1, 77, 78
2, 21764, Note_on_c, 1, 64, 63
2, 21764, Note_on_c, 1, 52, 62
2, 21764, Note_on_c, 1, 79, 82
2, 21784, Note_off_c, 1, 77, 64
2, 21796, Note_off_c, 1, 64, 64
2, 21852, Note_off_c, 1, 52, 64
2, 21872, Note_on_c, 1, 81, 86
2, 21888, Note_off_c, 1, 79, 64
2, 21960, Note_off_c, 1, 81, 64
2, 21964, Note_on_c, 1, 84, 77
2, 21972, Note_on_c, 1, 51, 65
2, 21972, Note_on_c, 1, 63, 56
2, 21992, Note_off_c, 1, 51, 64
2, 21996, Note_off_c, 1, 63, 64
2, 22072, Note_on_c, 1, 81, 82
2, 22076, Note_off_c, 1, 84, 64
2, 22172, Note_on_c, 1, 50, 58
2, 22176, Note_on_c, 1, 62, 49
2, 22184, Note_off_c, 1, 50, 64
2, 22204, Note_off_c, 1, 81, 64
2, 22204, Note_off_c, 1, 62, 64
2, 22212, Note_on_c, 1, 83, 80
2, 22304, Note_on_c, 1, 84, 71
2, 22316, Note_off_c, 1, 83, 64
2, 22404, Note_off_c, 1, 84, 64
2, 22404, Note_on_c, 1, 65, 59
2, 22408, Note_on_c, 1, 55, 56
2, 22408, Note_on_c, 1, 59, 62
2, 22408, Note_on_c, 1, 86, 73
2, 22416, Note_off_c, 1, 65, 64
2, 22420, Note_off_c, 1, 55, 64
2, 22420, Note_off_c, 1, 59, 64
2, 22492, Note_off_c, 1, 86, 64
2, 22496, Note_on_c, 1, 77, 70
2, 22600, Note_off_c, 1, 77, 64
2, 22604, Note_on_c, 1, 43, 58
2, 22604, Note_on_c, 1, 55, 52
2, 22608, Note_on_c, 1, 81, 75
2, 22608, Control_c, 1, 64, 127
2, 22624, Note_off_c, 1, 43, 64
2, 22628, Note_off_c, 1, 55, 64
2, 22708, Note_off_c, 1, 81, 64
2, 22712, Note_on_c, 1, 79, 75
2, 22796, Note_off_c, 1, 79, 64
2, 22812, Note_on_c, 1, 55, 49
2, 22812, Note_on_c, 1, 74, 75
2, 22812, Note_on_c, 1, 65, 53
2, 22816, Note_on_c, 1, 59, 38
2, 22824, Control_c, 1, 64, 0
2, 22832, Control_c, 1, 64, 127
2, 22872, Note_off_c, 1, 55, 64
2, 22884, Note_off_c, 1, 59, 64
2, 22900, Note_off_c, 1, 74, 64
2, 22904, Note_off_c, 1, 65, 64
2, 22912, Note_on_c, 1, 76, 64
2, 22984, Note_off_c, 1, 76, 64
2, 23016, Note_on_c, 1, 56, 73
2, 23032, Note_on_c, 1, 77, 73
2, 23048, Control_c, 1, 64, 0
2, 23128, Note_on_c, 1, 74, 66
2, 23132, Note_on_c, 1, 59, 64
2, 23232, Note_off_c, 1, 59, 64
2, 23232, Note_on_c, 1, 62, 46
2, 23236, Note_off_c, 1, 74, 64
2, 23244, Note_on_c, 1, 71, 62
2, 23324, Note_off_c, 1, 71, 64
2, 23328, Note_on_c, 1, 65, 54
2, 23332, Note_on_c, 1, 68, 54
2, 23344, Note_off_c, 1, 62, 64
2, 23344, Control_c, 1, 64, 127
2, 23356, Note_off_c, 1, 56, 64
2, 23360, Note_off_c, 1, 65, 64
2, 23380, Note_off_c, 1, 68, 64
2, 23452, Note_on_c, 1, 60, 33
2, 23452, Note_on_c, 1, 69, 62
2, 23456, Note_on_c, 1, 64, 48
2, 23468, Note_off_c, 1, 77, 64
2, 23476, Control_c, 1, 64, 0
2, 23504, Note_off_c, 1, 60, 64
2, 23504, Note_off_c, 1, 64, 64
2, 23532, Note_off_c, 1, 69, 64
2, 23884, Note_on_c, 1, 77, 61
2, 23892, Note_on_c, 1, 56, 26
2, 23892, Control_c, 1, 64, 127
2, 23984, Note_off_c, 1, 56, 64
2, 23992, Note_on_c, 1, 74, 65
2, 23996, Note_off_c, 1, 77, 64
2, 24004, Note_on_c, 1, 59, 31
2, 24052, Control_c, 1, 64, 0
2, 24096, Note_on_c, 1, 71, 57
2, 24104, Note_off_c, 1, 74, 64
2, 24108, Note_off_c, 1, 59, 64
2, 24108, Note_on_c, 1, 62, 34
2, 24184, Note_off_c, 1, 71, 64
2, 24192, Note_on_c, 1, 68, 56
2, 24196, Note_on_c, 1, 65, 49
2, 24208, Control_c, 1, 64, 127
2, 24216, Note_off_c, 1, 62, 64
2, 24228, Note_off_c, 1, 65, 64
2, 24348, Note_on_c, 1, 64, 34
2, 24356, Note_on_c, 1, 69, 35
2, 24364, Note_off_c, 1, 68, 64
2, 24384, Note_on_c, 1, 60, 28
2, 24404, Control_c, 1, 64, 0
2, 24452, Note_off_c, 1, 60, 64
2, 24456, Note_off_c, 1, 64, 64
2, 24476, Note_off_c, 1, 69, 64
2, 24816, Note_on_c, 1, 36, 102
2, 24816, Note_on_c, 1, 45, 82
2, 24828, Control_c, 1, 64, 127
2, 24868, Note_off_c, 1, 45, 64
2, 24916, Note_off_c, 1, 36, 64
2, 24928, Note_on_c, 1, 39, 62
2, 24932, Note_on_c, 1, 48, 71
2, 25004, Note_off_c, 1, 48, 64
2, 25020, Note_off_c, 1, 39, 64
2, 25036, Note_on_c, 1, 42, 66
2, 25044, Note_on_c, 1, 51, 71
2, 25148, Note_off_c, 1, 42, 64
2, 25156, Note_off_c, 1, 51, 64
2, 25164, Note_on_c, 1, 45, 85
2, 25164, Note_on_c, 1, 54, 77
2, 25184, Note_off_c, 1, 54, 64
2, 25264, Note_off_c, 1, 45, 64
2, 25272, Note_on_c, 1, 57, 75
2, 25276, Note_on_c, 1, 48, 71
2, 25356, Note_off_c, 1, 48, 64
2, 25372, Note_off_c, 1, 57, 64
2, 25372, Note_on_c, 1, 51, 68
2, 25376, Note_on_c, 1, 60, 75
2, 25476, Note_off_c, 1, 60, 64
2, 25476, Note_on_c, 1, 63, 66
2, 25484, Note_on_c, 1, 54, 75
2, 25588, Note_off_c, 1, 63, 64
2, 25588, Note_on_c, 1, 57, 75
2, 25588, Note_on_c, 1, 66, 71
2, 25616, Note_off_c, 1, 66, 64
2, 25680, Note_off_c, 1, 51, 64
2, 25688, Note_off_c, 1, 54, 64
2, 25688, Note_off_c, 1, 57, 64
2, 25704, Note_on_c, 1, 60, 66
2, 25704, Note_on_c, 1, 69, 75
2, 25776, Note_off_c, 1, 60, 64
2, 25808, Note_off_c, 1, 69, 64
2, 25808, Note_on_c, 1, 63, 63
2, 25808, Note_on_c, 1, 72, 71
2, 25904, Note_on_c, 1, 66, 66
2, 25904, Note_on_c, 1, 75, 66
2, 25928, Note_off_c, 1, 72, 64
2, 25996, Note_on_c, 1, 69, 68
2, 26004, Note_on_c, 1, 78, 70
2, 26008, Note_off_c, 1, 75, 64
2, 26028, Note_off_c, 1, 78, 64
2, 26088, Note_off_c, 1, 63, 64
2, 26092, Note_off_c, 1, 66, 64
2, 26100, Note_off_c, 1, 69, 64
2, 26104, Note_on_c, 1, 81, 73
2, 26104, Note_on_c, 1, 72, 64
2, 26192, Note_off_c, 1, 72, 64
2, 26204, Note_on_c, 1, 84, 66
2, 26212, Note_on_c, 1, 75, 57
2, 26328, Note_on_c, 1, 87, 56
2, 26328, Note_on_c, 1, 78, 63
2, 26332, Note_off_c, 1, 84, 64
2, 26352, Note_off_c, 1, 81, 64
2, 26476, Note_on_c, 1, 90, 60
2, 26476, Note_on_c, 1, 81, 62
2, 26480, Note_off_c, 1, 87, 64
2, 26496, Note_off_c, 1, 75, 64
2, 26496, Note_off_c, 1, 78, 64
2, 26500, Note_off_c, 1, 90, 64
2, 26500, Note_off_c, 1, 81, 64
2, 26752, Control_c, 1, 64, 0
2, 26756, Note_on_c, 1, 92, 64
2, 26756, Note_on_c, 1, 80, 63
2, 26764, Note_on_c, 1, 84, 68
2, 26764, Note_on_c, 1, 87, 61
2, 26812, Control_c, 1, 64, 127
2, 26892, Note_off_c, 1, 84, 64
2, 26892, Note_off_c, 1, 87, 64
2, 26900, Note_off_c, 1, 92, 64
2, 27028, Note_off_c, 1, 80, 64
2, 27028, Note_on_c, 1, 87, 61
2, 27028, Note_on_c, 1, 90, 62
2, 27028, Note_on_c, 1, 84, 62
2, 27032, Note_on_c, 1, 75, 33
2, 27032, Control_c, 1, 64, 0
2, 27060, Note_off_c, 1, 87, 64
2, 27068, Note_off_c, 1, 90, 64
2, 27068, Note_off_c, 1, 84, 64
2, 27132, Note_off_c, 1, 75, 64
2, 27148, Note_on_c, 1, 87, 58
2, 27156, Note_on_c, 1, 90, 60
2, 27156, Note_on_c, 1, 84, 66
2, 27248, Note_off_c, 1, 90, 64
2, 27248, Note_off_c, 1, 84, 64
2, 27252, Note_off_c, 1, 87, 64
2, 27256, Note_on_c, 1, 72, 57
2, 27332, Note_off_c, 1, 72, 64
2, 27352, Note_on_c, 1, 90, 62
2, 27356, Note_on_c, 1, 87, 60
2, 27356, Note_on_c, 1, 84, 62
2, 27376, Note_off_c, 1, 87, 64
2, 27380, Note_off_c, 1, 84, 64
2, 27392, Note_off_c, 1, 90, 64
2, 27472, Note_on_c, 1, 68, 53
2, 27476, Note_on_c, 1, 90, 58
2, 27476, Note_on_c, 1, 87, 53
2, 27476, Note_on_c, 1, 84, 49
2, 27488, Control_c, 1, 64, 127
2, 27508, Note_off_c, 1, 90, 64
2, 27508, Note_off_c, 1, 87, 64
2, 27512, Note_off_c, 1, 68, 64
2, 27516, Note_off_c, 1, 84, 64
2, 27572, Control_c, 1, 64, 0
2, 27692, Note_on_c, 1, 67, 70
2, 27692, Note_on_c, 1, 91, 77
2, 27692, Note_on_c, 1, 88, 75
2, 27696, Note_on_c, 1, 84, 65
2, 27696, Control_c, 1, 64, 127
2, 27804, Note_off_c, 1, 88, 64
2, 27804, Note_off_c, 1, 84, 64
2, 27812, Note_off_c, 1, 91, 64
2, 27912, Note_on_c, 1, 76, 68
2, 27912, Note_on_c, 1, 72, 57
2, 27916, Note_off_c, 1, 67, 64
2, 27936, Note_off_c, 1, 76, 64
2, 27936, Note_off_c, 1, 72, 64
2, 28108, Note_on_c, 1, 64, 57
2, 28128, Note_on_c, 1, 91, 80
2, 28132, Control_c, 1, 64, 0
2, 28232, Note_on_c, 1, 88, 70
2, 28320, Note_off_c, 1, 88, 64
2, 28332, Note_on_c, 1, 67, 35
2, 28332, Note_on_c, 1, 72, 52
2, 28336, Note_on_c, 1, 76, 62
2, 28344, Note_on_c, 1, 84, 73
2, 28352, Control_c, 1, 64, 127
2, 28368, Note_off_c, 1, 76, 64
2, 28372, Note_off_c, 1, 72, 64
2, 28380, Note_off_c, 1, 67, 64
2, 28392, Note_off_c, 1, 64, 64
2, 28428, Note_off_c, 1, 84, 64
2, 28432, Note_off_c, 1, 91, 64
2, 28432, Note_on_c, 1, 79, 64
2, 28444, Note_off_c, 1, 79, 64
2, 28544, Note_on_c, 1, 62, 62
2, 28548, Note_on_c, 1, 81, 70
2, 28548, Note_on_c, 1, 78, 62
2, 28548, Note_on_c, 1, 72, 58
2, 28556, Control_c, 1, 64, 0
2, 28752, Note_on_c, 1, 69, 64
2, 28756, Note_off_c, 1, 72, 64
2, 28756, Control_c, 1, 64, 127
2, 28760, Note_off_c, 1, 81, 64
2, 28760, Note_off_c, 1, 78, 64
2, 28768, Note_off_c, 1, 62, 64
2, 28792, Note_off_c, 1, 69, 64
2, 28948, Note_on_c, 1, 67, 39
2, 28952, Note_on_c, 1, 86, 64
2, 28952, Note_on_c, 1, 77, 60
2, 28952, Control_c, 1, 64, 0
2, 28956, Note_on_c, 1, 71, 35
2, 28972, Note_off_c, 1, 86, 64
2, 28980, Note_off_c, 1, 77, 64
2, 29056, Note_on_c, 1, 86, 70
2, 29056, Note_on_c, 1, 77, 61
2, 29064, Control_c, 1, 64, 127
2, 29068, Note_off_c, 1, 71, 64
2, 29088, Note_off_c, 1, 67, 64
2, 29144, Note_off_c, 1, 86, 64
2, 29144, Note_off_c, 1, 77, 64
2, 29248, Note_on_c, 1, 79, 66
2, 29252, Note_on_c, 1, 77, 58
2, 29264, Note_off_c, 1, 77, 64
2, 29268, Control_c, 1, 64, 0
2, 29276, Note_off_c, 1, 79, 64
2, 29364, Note_on_c, 1, 84, 77
2, 29364, Control_c, 1, 64, 127
2, 29368, Note_on_c, 1, 76, 62
2, 29372, Note_on_c, 1, 72, 58
2, 29372, Note_on_c, 1, 67, 48
2, 29376, Note_on_c, 1, 60, 36
2, 29384, Note_off_c, 1, 84, 64
2, 29392, Note_off_c, 1, 76, 64
2, 29392, Note_off_c, 1, 72, 64
2, 29396, Note_off_c, 1, 67, 64
2, 29400, Note_off_c, 1, 60, 64
2, 29576, Note_on_c, 1, 72, 66
2, 29588, Control_c, 1, 64, 0
2, 29692, Note_on_c, 1, 74, 75
2, 29696, Note_off_c, 1, 72, 64
2, 29736, Note_off_c, 1, 74, 64
2, 29808, Note_on_c, 1, 76, 77
2, 29816, Control_c, 1, 64, 127
2, 29900, Note_off_c, 1, 76, 64
2, 29916, Note_on_c, 1, 77, 80
2, 29976, Note_off_c, 1, 77, 64
2, 29996, Control_c, 1, 64, 0
2, 30024, Note_on_c, 1, 79, 88
2, 30048, Control_c, 1, 64, 127
2, 30252, Note_off_c, 1, 79, 64
2, 30304, Note_on_c, 1, 80, 62
2, 30308, Note_on_c, 1, 68, 52
2, 30308, Note_on_c, 1, 75, 63
2, 30312, Note_on_c, 1, 72, 58
2, 30312, Control_c, 1, 64, 127
2, 30340, Note_off_c, 1, 75, 64
2, 30344, Note_off_c, 1, 80, 64
2, 30344, Note_off_c, 1, 72, 64
2, 30412, Note_off_c, 1, 68, 64
2, 30512, Note_on_c, 1, 63, 40
2, 30512, Control_c, 1, 64, 0
2, 30524, Note_on_c, 1, 78, 64
2, 30528, Note_on_c, 1, 75, 62
2, 30528, Note_on_c, 1, 72, 58
2, 30548, Note_off_c, 1, 78, 64
2, 30548, Note_off_c, 1, 75, 64
2, 30548, Note_off_c, 1, 72, 64
2, 30616, Note_off_c, 1, 63, 64
2, 30636, Note_on_c, 1, 78, 65
2, 30636, Note_on_c, 1, 75, 65
2, 30636, Note_on_c, 1, 72, 63
2, 30736, Note_off_c, 1, 72, 64
2, 30736, Note_on_c, 1, 60, 64
2, 30740, Note_off_c, 1, 75, 64
2, 30740, Note_off_c, 1, 78, 64
2, 30836, Note_off_c, 1, 60, 64
2, 30844, Note_on_c, 1, 78, 66
2, 30852, Note_on_c, 1, 75, 65
2, 30852, Note_on_c, 1, 72, 64
2, 30884, Note_off_c, 1, 78, 64
2, 30884, Note_off_c, 1, 75, 64
2, 30884, Note_off_c, 1, 72, 64
2, 30988, Note_on_c, 1, 75, 63
2, 30992, Note_on_c, 1, 78, 62
2, 30992, Note_on_c, 1, 72, 55
2, 30992, Note_on_c, 1, 56, 53
2, 30992, Control_c, 1, 64, 127
2, 31020, Note_off_c, 1, 75, 64
2, 31024, Note_off_c, 1, 78, 64
2, 31024, Note_off_c, 1, 72, 64
2, 31024, Note_off_c, 1, 56, 64
2, 31248, Note_on_c, 1, 55, 61
2, 31248, Note_on_c, 1, 72, 56
2, 31252, Note_on_c, 1, 76, 61
2, 31252, Note_on_c, 1, 79, 63
2, 31252, Control_c, 1, 64, 0
2, 31284, Control_c, 1, 64, 127
2, 31348, Note_off_c, 1, 72, 64
2, 31356, Note_off_c, 1, 76, 64
2, 31356, Note_off_c, 1, 79, 64
2, 31484, Note_on_c, 1, 64, 57
2, 31484, Note_on_c, 1, 60, 44
2, 31516, Note_off_c, 1, 55, 64
2, 31516, Note_off_c, 1, 64, 64
2, 31516, Note_off_c, 1, 60, 64
2, 31684, Note_on_c, 1, 52, 28
2, 31708, Note_on_c, 1, 79, 75
2, 31724, Control_c, 1, 64, 0
2, 31816, Note_on_c, 1, 76, 66
2, 31928, Note_off_c, 1, 76, 64
2, 31936, Note_on_c, 1, 60, 40
2, 31936, Note_on_c, 1, 72, 58
2, 31936, Note_on_c, 1, 55, 34
2, 31944, Note_on_c, 1, 64, 43
2, 31952, Control_c, 1, 64, 127
2, 31988, Note_off_c, 1, 60, 64
2, 31992, Note_off_c, 1, 64, 64
2, 32004, Note_off_c, 1, 55, 64
2, 32012, Note_off_c, 1, 52, 64
2, 32036, Note_off_c, 1, 72, 64
2, 32044, Note_on_c, 1, 67, 61
2, 32052, Note_off_c, 1, 79, 64
2, 32064, Note_off_c, 1, 67, 64
2, 32204, Note_on_c, 1, 60, 50
2, 32208, Note_on_c, 1, 69, 61
2, 32208, Note_on_c, 1, 50, 49
2, 32208, Note_on_c, 1, 66, 54
2, 32232, Control_c, 1, 64, 0
2, 32412, Note_off_c, 1, 60, 64
2, 32428, Note_on_c, 1, 57, 53
2, 32432, Control_c, 1, 64, 127
2, 32436, Note_off_c, 1, 66, 64
2, 32440, Note_off_c, 1, 69, 64
2, 32468, Note_off_c, 1, 50, 64
2, 32476, Note_off_c, 1, 57, 64
2, 32648, Note_on_c, 1, 74, 66
2, 32652, Note_on_c, 1, 65, 58
2, 32652, Note_on_c, 1, 55, 45
2, 32652, Note_on_c, 1, 59, 43
2, 32656, Control_c, 1, 64, 0
2, 32680, Note_off_c, 1, 74, 64
2, 32680, Note_off_c, 1, 65, 64
2, 32772, Note_on_c, 1, 74, 68
2, 32784, Note_on_c, 1, 65, 57
2, 32784, Control_c, 1, 64, 127
2, 32836, Note_off_c, 1, 74, 64
2, 32836, Note_off_c, 1, 65, 64
2, 33004, Note_off_c, 1, 55, 64
2, 33012, Note_on_c, 1, 67, 63
2, 33012, Note_on_c, 1, 65, 53
2, 33016, Note_off_c, 1, 59, 64
2, 33036, Note_off_c, 1, 65, 64
2, 33044, Note_off_c, 1, 67, 64
2, 33108, Control_c, 1, 64, 0
2, 33156, Control_c, 1, 64, 127
2, 33188, Note_on_c, 1, 72, 58
2, 33192, Note_on_c, 1, 48, 53
2, 33192, Note_on_c, 1, 60, 35
2, 33192, Note_on_c, 1, 64, 55
2, 33200, Note_off_c, 1, 64, 64
2, 33212, Note_off_c, 1, 48, 64
2, 33216, Note_off_c, 1, 72, 64
2, 33216, Note_off_c, 1, 60, 64
2, 33512, Note_on_c, 1, 79, 90
2, 33532, Control_c, 1, 64, 0
2, 33536, Note_off_c, 1, 79, 64
2, 33624, Note_on_c, 1, 79, 88
2, 33672, Note_off_c, 1, 79, 64
2, 33748, Note_on_c, 1, 79, 102
2, 33748, Note_on_c, 1, 61, 76
2, 33748, Note_on_c, 1, 49, 71
2, 33752, Control_c, 1, 64, 127
2, 33768, Note_off_c, 1, 49, 64
2, 33772, Note_off_c, 1, 61, 64
2, 33800, Note_off_c, 1, 79, 64
2, 33836, Control_c, 1, 64, 0
2, 33996, Control_c, 1, 64, 127
2, 34008, Note_on_c, 1, 79, 102
2, 34032, Note_off_c, 1, 79, 64
2, 34184, Note_on_c, 1, 79, 58
2, 34212, Control_c, 1, 64, 0
2, 34216, Note_on_c, 1, 83, 64
2, 34272, Note_on_c, 1, 91, 102
2, 34276, Note_on_c, 1, 62, 75
2, 34276, Note_on_c, 1, 50, 73
2, 34288, Note_off_c, 1, 50, 64
2, 34296, Note_off_c, 1, 62, 64
2, 34328, Note_off_c, 1, 83, 64
2, 34392, Note_off_c, 1, 91, 64
2, 34392, Note_on_c, 1, 89, 66
2, 34408, Note_off_c, 1, 79, 64
2, 34492, Note_off_c, 1, 89, 64
2, 34492, Note_on_c, 1, 67, 64
2, 34504, Note_off_c, 1, 67, 64
2, 34504, Note_on_c, 1, 59, 68
2, 34504, Note_on_c, 1, 55, 58
2, 34508, Note_on_c, 1, 86, 80
2, 34512, Note_off_c, 1, 59, 64
2, 34516, Note_off_c, 1, 55, 64
2, 34600, Note_off_c, 1, 86, 64
2, 34612, Note_on_c, 1, 83, 73
2, 34672, Note_off_c, 1, 83, 64
2, 34708, Note_on_c, 1, 79, 75
2, 34712, Note_on_c, 1, 43, 66
2, 34712, Note_on_c, 1, 55, 63
2, 34720, Note_off_c, 1, 43, 64
2, 34736, Note_off_c, 1, 55, 64
2, 34816, Note_off_c, 1, 79, 64
2, 34816, Note_on_c, 1, 77, 80
2, 34924, Note_off_c, 1, 77, 64
2, 34924, Note_on_c, 1, 59, 62
2, 34928, Note_on_c, 1, 55, 61
2, 34932, Note_on_c, 1, 65, 62
2, 34932, Note_on_c, 1, 74, 77
2, 34940, Note_off_c, 1, 55, 64
2, 34940, Note_off_c, 1, 65, 64
2, 34944, Note_off_c, 1, 59, 64
2, 35024, Note_off_c, 1, 74, 64
2, 35036, Note_on_c, 1, 71, 65
2, 35084, Note_off_c, 1, 71, 64
2, 35172, Note_on_c, 1, 72, 65
2, 35184, Note_on_c, 1, 60, 32
2, 35184, Control_c, 1, 64, 127
2, 35188, Note_on_c, 1, 76, 65
2, 35208, Note_off_c, 1, 60, 64
2, 35224, Note_off_c, 1, 72, 64
2, 35228, Note_off_c, 1, 76, 64
2, 35384, Note_on_c, 1, 55, 57
2, 35392, Note_on_c, 1, 76, 62
2, 35396, Note_on_c, 1, 72, 58
2, 35396, Note_on_c, 1, 69, 35
2, 35404, Note_off_c, 1, 76, 64
2, 35404, Note_off_c, 1, 69, 64
2, 35408, Note_off_c, 1, 55, 64
2, 35408, Note_off_c, 1, 72, 64
2, 35428, Control_c, 1, 64, 0
2, 35504, Note_on_c, 1, 67, 53
2, 35504, Note_on_c, 1, 72, 35
2, 35504, Note_on_c, 1, 76, 62
2, 35596, Control_c, 1, 64, 127
2, 35604, Note_off_c, 1, 67, 64
2, 35604, Note_on_c, 1, 43, 58
2, 35608, Note_on_c, 1, 55, 37
2, 35616, Note_off_c, 1, 72, 64
2, 35616, Note_off_c, 1, 76, 64
2, 35624, Note_off_c, 1, 43, 64
2, 35636, Note_off_c, 1, 55, 64
2, 35704, Note_on_c, 1, 69, 55
2, 35712, Note_on_c, 1, 76, 53
2, 35712, Note_on_c, 1, 72, 35
2, 35724, Note_off_c, 1, 69, 64
2, 35724, Control_c, 1, 64, 0
2, 35732, Note_off_c, 1, 76, 64
2, 35732, Note_off_c, 1, 72, 64
2, 35808, Note_on_c, 1, 55, 58
2, 35816, Note_on_c, 1, 64, 46
2, 35816, Note_on_c, 1, 60, 35
2, 35828, Note_off_c, 1, 60, 64
2, 35828, Note_on_c, 1, 67, 44
2, 35828, Note_on_c, 1, 76, 62
2, 35828, Note_on_c, 1, 72, 54
2, 35840, Note_off_c, 1, 55, 64
2, 35840, Note_off_c, 1, 64, 64
2, 35840, Note_off_c, 1, 72, 64
2, 35848, Note_off_c, 1, 67, 64
2, 35852, Note_off_c, 1, 76, 64
2, 36028, Control_c, 1, 64, 127
2, 36036, Note_on_c, 1, 77, 75
2, 36036, Note_on_c, 1, 71, 60
2, 36036, Note_on_c, 1, 50, 57
2, 36036, Note_on_c, 1, 62, 54
2, 36048, Note_off_c, 1, 50, 64
2, 36060, Note_off_c, 1, 62, 64
2, 36064, Note_off_c, 1, 77, 64
2, 36076, Note_off_c, 1, 71, 64
2, 36244, Note_on_c, 1, 59, 54
2, 36244, Note_on_c, 1, 55, 52
2, 36248, Note_on_c, 1, 71, 49
2, 36248, Note_on_c, 1, 69, 50
2, 36248, Note_on_c, 1, 65, 43
2, 36252, Control_c, 1, 64, 0
2, 36256, Note_off_c, 1, 59, 64
2, 36256, Note_off_c, 1, 55, 64
2, 36260, Note_off_c, 1, 71, 64
2, 36260, Note_off_c, 1, 69, 64
2, 36260, Note_off_c, 1, 65, 64
2, 36356, Note_on_c, 1, 77, 58
2, 36356, Note_on_c, 1, 71, 56
2, 36356, Note_on_c, 1, 67, 49
2, 36448, Control_c, 1, 64, 127
2, 36460, Note_off_c, 1, 71, 64
2, 36468, Note_off_c, 1, 77, 64
2, 36468, Note_off_c, 1, 67, 64
2, 36472, Note_on_c, 1, 43, 35
2, 36472, Note_on_c, 1, 55, 58
2, 36476, Note_off_c, 1, 43, 64
2, 36480, Note_off_c, 1, 55, 64
2, 36564, Note_on_c, 1, 71, 51
2, 36564, Note_on_c, 1, 69, 50
2, 36568, Note_on_c, 1, 77, 53
2, 36588, Note_off_c, 1, 71, 64
2, 36588, Note_off_c, 1, 69, 64
2, 36588, Note_off_c, 1, 77, 64
2, 36672, Note_on_c, 1, 55, 60
2, 36676, Note_on_c, 1, 59, 57
2, 36676, Note_on_c, 1, 65, 49
2, 36676, Note_on_c, 1, 77, 63
2, 36676, Note_on_c, 1, 71, 54
2, 36676, Note_on_c, 1, 67, 42
2, 36676, Control_c, 1, 64, 0
2, 36696, Note_off_c, 1, 65, 64
2, 36700, Note_off_c, 1, 55, 64
2, 36700, Note_off_c, 1, 59, 64
2, 36700, Note_off_c, 1, 71, 64
2, 36704, Note_off_c, 1, 67, 64
2, 36708, Note_off_c, 1, 77, 64
2, 36888, Control_c, 1, 64, 127
2, 36892, Note_on_c, 1, 48, 57
2, 36892, Note_on_c, 1, 72, 63
2, 36892, Note_on_c, 1, 76, 64
2, 36896, Note_on_c, 1, 60, 46
2, 36916, Note_off_c, 1, 48, 64
2, 36932, Note_off_c, 1, 72, 64
2, 36936, Note_off_c, 1, 76, 64
2, 36936, Note_off_c, 1, 60, 64
2, 37096, Note_on_c, 1, 72, 57
2, 37096, Note_on_c, 1, 55, 55
2, 37096, Note_on_c, 1, 76, 63
2, 37096, Note_on_c, 1, 64, 45
2, 37096, Note_on_c, 1, 69, 36
2, 37108, Note_off_c, 1, 64, 64
2, 37116, Note_off_c, 1, 55, 64
2, 37120, Note_off_c, 1, 72, 64
2, 37120, Note_off_c, 1, 76, 64
2, 37120, Note_off_c, 1, 69, 64
2, 37124, Control_c, 1, 64, 0
2, 37204, Note_on_c, 1, 67, 37
2, 37208, Note_on_c, 1, 72, 46
2, 37208, Note_on_c, 1, 76, 57
2, 37236, Note_off_c, 1, 72, 64
2, 37244, Note_off_c, 1, 67, 64
2, 37244, Control_c, 1, 64, 127
2, 37268, Note_off_c, 1, 76, 64
2, 37312, Note_on_c, 1, 43, 62
2, 37316, Note_on_c, 1, 55, 58
2, 37332, Note_off_c, 1, 43, 64
2, 37340, Note_off_c, 1, 55, 64
2, 37412, Note_on_c, 1, 79, 85
2, 37512, Note_on_c, 1, 84, 85
2, 37524, Note_on_c, 1, 60, 68
2, 37524, Note_on_c, 1, 55, 70
2, 37524, Note_on_c, 1, 64, 68
2, 37528, Note_off_c, 1, 60, 64
2, 37528, Note_off_c, 1, 55, 64
2, 37532, Note_off_c, 1, 64, 64
2, 37584, Note_off_c, 1, 84, 64
2, 37604, Note_on_c, 1, 88, 77
2, 37612, Note_off_c, 1, 79, 64
2, 37628, Note_off_c, 1, 88, 64
2, 37648, Note_on_c, 1, 79, 82
2, 37652, Control_c, 1, 64, 0
2, 37688, Note_on_c, 1, 83, 90
2, 37736, Note_off_c, 1, 83, 64
2, 37736, Note_on_c, 1, 91, 98
2, 37736, Note_on_c, 1, 50, 80
2, 37736, Note_on_c, 1, 62, 71
2, 37744, Control_c, 1, 64, 127
2, 37756, Note_off_c, 1, 50, 64
2, 37756, Note_off_c, 1, 62, 64
2, 37828, Note_off_c, 1, 91, 64
2, 37832, Note_off_c, 1, 79, 64
2, 37836, Note_on_c, 1, 89, 71
2, 37932, Note_on_c, 1, 55, 61
2, 37944, Note_off_c, 1, 89, 64
2, 37944, Note_on_c, 1, 65, 62
2, 37944, Note_on_c, 1, 59, 66
2, 37948, Note_on_c, 1, 86, 85
2, 37952, Note_off_c, 1, 55, 64
2, 37956, Note_off_c, 1, 65, 64
2, 37956, Note_off_c, 1, 59, 64
2, 38032, Note_off_c, 1, 86, 64
2, 38036, Note_on_c, 1, 83, 88
2, 38060, Note_off_c, 1, 83, 64
2, 38156, Note_on_c, 1, 79, 88
2, 38156, Note_on_c, 1, 55, 75
2, 38156, Note_on_c, 1, 43, 82
2, 38156, Control_c, 1, 64, 0
2, 38168, Control_c, 1, 64, 127
2, 38184, Note_off_c, 1, 43, 64
2, 38200, Note_off_c, 1, 55, 64
2, 38260, Note_off_c, 1, 79, 64
2, 38268, Note_on_c, 1, 77, 88
2, 38368, Note_off_c, 1, 77, 64
2, 38372, Note_on_c, 1, 74, 85
2, 38376, Note_on_c, 1, 65, 64
2, 38376, Note_on_c, 1, 55, 65
2, 38376, Note_on_c, 1, 59, 70
2, 38388, Note_off_c, 1, 65, 64
2, 38396, Note_off_c, 1, 55, 64
2, 38396, Note_off_c, 1, 59, 64
2, 38460, Note_off_c, 1, 74, 64
2, 38476, Note_on_c, 1, 71, 73
2, 38500, Note_off_c, 1, 71, 64
2, 38564, Control_c, 1, 64, 0
2, 38604, Control_c, 1, 64, 127
2, 38612, Note_on_c, 1, 48, 50
2, 38616, Note_on_c, 1, 76, 65
2, 38616, Note_on_c, 1, 72, 46
2, 38628, Note_on_c, 1, 60, 29
2, 38632, Note_off_c, 1, 48, 64
2, 38648, Note_off_c, 1, 60, 64
2, 38656, Note_off_c, 1, 76, 64
2, 38656, Note_off_c, 1, 72, 64
2, 38824, Note_on_c, 1, 55, 58
2, 38824, Note_on_c, 1, 69, 63
2, 38828, Note_on_c, 1, 72, 60
2, 38828, Note_on_c, 1, 76, 50
2, 38848, Note_off_c, 1, 69, 64
2, 38848, Note_off_c, 1, 72, 64
2, 38848, Note_off_c, 1, 76, 64
2, 38852, Note_off_c, 1, 55, 64
2, 38928, Note_on_c, 1, 67, 62
2, 38928, Note_on_c, 1, 72, 62
2, 38928, Note_on_c, 1, 76, 70
2, 38936, Control_c, 1, 64, 0
2, 39028, Note_off_c, 1, 72, 64
2, 39028, Note_off_c, 1, 76, 64
2, 39040, Note_off_c, 1, 67, 64
2, 39044, Note_on_c, 1, 40, 71
2, 39044, Note_on_c, 1, 52, 80
2, 39044, Control_c, 1, 64, 127
2, 39116, Note_off_c, 1, 52, 64
2, 39132, Note_off_c, 1, 40, 64
2, 39144, Note_on_c, 1, 67, 82
2, 39172, Note_off_c, 1, 67, 64
2, 39244, Control_c, 1, 64, 0
2, 39248, Note_on_c, 1, 70, 66
2, 39248, Note_on_c, 1, 76, 82
2, 39252, Note_on_c, 1, 49, 70
2, 39252, Note_on_c, 1, 37, 75
2, 39252, Note_on_c, 1, 67, 73
2, 39264, Control_c, 1, 64, 127
2, 39316, Note_off_c, 1, 70, 64
2, 39316, Note_off_c, 1, 37, 64
2, 39316, Note_off_c, 1, 67, 64
2, 39320, Note_off_c, 1, 76, 64
2, 39320, Note_off_c, 1, 49, 64
2, 39452, Control_c, 1, 64, 0
2, 39464, Note_on_c, 1, 38, 68
2, 39468, Note_on_c, 1, 50, 61
2, 39468, Note_on_c, 1, 76, 77
2, 39468, Note_on_c, 1, 67, 73
2, 39468, Note_on_c, 1, 71, 68
2, 39468, Control_c, 1, 64, 127
2, 39484, Note_off_c, 1, 38, 64
2, 39492, Note_off_c, 1, 50, 64
2, 39532, Note_off_c, 1, 76, 64
2, 39536, Note_off_c, 1, 67, 64
2, 39536, Note_off_c, 1, 71, 64
2, 39668, Note_on_c, 1, 67, 73
2, 39668, Note_on_c, 1, 74, 73
2, 39668, Note_on_c, 1, 55, 62
2, 39672, Note_on_c, 1, 50, 63
2, 39672, Note_on_c, 1, 71, 65
2, 39688, Note_off_c, 1, 55, 64
2, 39692, Note_off_c, 1, 50, 64
2, 39692, Note_off_c, 1, 71, 64
2, 39696, Note_off_c, 1, 67, 64
2, 39700, Note_off_c, 1, 74, 64
2, 39776, Note_on_c, 1, 71, 68
2, 39784, Note_on_c, 1, 67, 68
2, 39816, Note_off_c, 1, 71, 64
2, 39824, Note_off_c, 1, 67, 64
2, 39876, Control_c, 1, 64, 0
2, 39888, Note_on_c, 1, 50, 64
2, 39888, Control_c, 1, 64, 127
2, 39892, Note_on_c, 1, 38, 60
2, 39900, Note_off_c, 1, 38, 64
2, 39916, Note_off_c, 1, 50, 64
2, 39988, Note_on_c, 1, 67, 73
2, 39988, Note_on_c, 1, 59, 64
2, 40008, Note_off_c, 1, 59, 64
2, 40012, Note_off_c, 1, 67, 64
2, 40096, Note_on_c, 1, 50, 73
2, 40096, Note_on_c, 1, 69, 76
2, 40104, Note_on_c, 1, 54, 62
2, 40104, Note_on_c, 1, 60, 64
2, 40156, Note_off_c, 1, 50, 64
2, 40156, Note_off_c, 1, 54, 64
2, 40164, Note_off_c, 1, 60, 64
2, 40176, Note_off_c, 1, 69, 64
2, 40304, Control_c, 1, 64, 0
2, 40308, Note_on_c, 1, 67, 71
2, 40308, Note_on_c, 1, 59, 68
2, 40308, Note_on_c, 1, 50, 75
2, 40308, Note_on_c, 1, 43, 75
2, 40308, Note_on_c, 1, 55, 65
2, 40308, Control_c, 1, 64, 127
2, 40328, Note_off_c, 1, 67, 64
2, 40332, Note_off_c, 1, 59, 64
2, 40416, Note_off_c, 1, 43, 64
2, 40420, Note_off_c, 1, 50, 64
2, 40424, Note_on_c, 1, 67, 75
2, 40436, Note_off_c, 1, 55, 64
2, 40512, Note_off_c, 1, 67, 64
2, 40516, Note_on_c, 1, 71, 65
2, 40620, Note_off_c, 1, 71, 64
2, 40624, Note_on_c, 1, 74, 88
2, 40636, Note_off_c, 1, 74, 64
2, 40736, Note_on_c, 1, 55, 65
2, 40748, Note_on_c, 1, 62, 80
2, 40748, Note_on_c, 1, 59, 81
2, 40748, Note_on_c, 1, 79, 86
2, 40748, Control_c, 1, 64, 0
2, 40776, Note_off_c, 1, 79, 64
2, 40832, Control_c, 1, 64, 127
2, 40856, Note_on_c, 1, 79, 88
2, 40956, Note_off_c, 1, 55, 64
2, 40956, Note_off_c, 1, 62, 64
2, 40956, Note_off_c, 1, 59, 64
2, 40956, Note_on_c, 1, 83, 94
2, 40968, Control_c, 1, 64, 0
2, 41068, Note_on_c, 1, 86, 85
2, 41080, Note_off_c, 1, 83, 64
2, 41088, Note_off_c, 1, 79, 64
2, 41124, Note_on_c, 1, 79, 90
2, 41136, Note_off_c, 1, 86, 64
2, 41168, Note_on_c, 1, 83, 90
2, 41216, Note_on_c, 1, 50, 85
2, 41224, Note_on_c, 1, 62, 82
2, 41224, Control_c, 1, 64, 127
2, 41232, Note_on_c, 1, 91, 102
2, 41236, Note_off_c, 1, 83, 64
2, 41244, Note_off_c, 1, 50, 64
2, 41248, Note_off_c, 1, 62, 64
2, 41332, Note_on_c, 1, 89, 75
2, 41336, Note_off_c, 1, 91, 64
2, 41344, Note_off_c, 1, 79, 64
2, 41428, Note_on_c, 1, 65, 61
2, 41432, Note_on_c, 1, 55, 62
2, 41432, Note_on_c, 1, 59, 68
2, 41432, Note_on_c, 1, 86, 90
2, 41440, Note_off_c, 1, 89, 64
2, 41440, Note_off_c, 1, 65, 64
2, 41444, Note_off_c, 1, 55, 64
2, 41456, Note_off_c, 1, 59, 64
2, 41536, Note_off_c, 1, 86, 64
2, 41544, Note_on_c, 1, 83, 90
2, 41552, Note_off_c, 1, 83, 64
2, 41648, Note_on_c, 1, 43, 81
2, 41652, Note_on_c, 1, 55, 84
2, 41652, Note_on_c, 1, 79, 90
2, 41652, Control_c, 1, 64, 0
2, 41668, Control_c, 1, 64, 127
2, 41692, Note_off_c, 1, 43, 64
2, 41704, Note_off_c, 1, 55, 64
2, 41744, Note_off_c, 1, 79, 64
2, 41752, Note_on_c, 1, 77, 90
2, 41852, Note_on_c, 1, 55, 75
2, 41856, Note_off_c, 1, 77, 64
2, 41856, Note_on_c, 1, 65, 68
2, 41856, Note_on_c, 1, 59, 75
2, 41864, Note_on_c, 1, 74, 90
2, 41876, Note_off_c, 1, 55, 64
2, 41876, Note_off_c, 1, 65, 64
2, 41876, Note_off_c, 1, 59, 64
2, 41956, Note_off_c, 1, 74, 64
2, 41964, Note_on_c, 1, 71, 85
2, 41992, Note_off_c, 1, 71, 64
2, 42072, Control_c, 1, 64, 0
2, 42084, Note_on_c, 1, 48, 62
2, 42088, Note_on_c, 1, 72, 66
2, 42092, Note_on_c, 1, 60, 36
2, 42092, Note_on_c, 1, 76, 70
2, 42092, Control_c, 1, 64, 127
2, 42116, Note_off_c, 1, 48, 64
2, 42136, Note_off_c, 1, 72, 64
2, 42136, Note_off_c, 1, 60, 64
2, 42144, Note_off_c, 1, 76, 64
2, 42308, Note_on_c, 1, 72, 59
2, 42308, Note_on_c, 1, 76, 63
2, 42308, Note_on_c, 1, 69, 53
2, 42328, Note_off_c, 1, 72, 64
2, 42332, Note_off_c, 1, 76, 64
2, 42332, Note_off_c, 1, 69, 64
2, 42408, Note_on_c, 1, 67, 57
2, 42412, Note_on_c, 1, 76, 63
2, 42416, Note_on_c, 1, 72, 59
2, 42416, Control_c, 1, 64, 0
2, 42508, Control_c, 1, 64, 127
2, 42516, Note_on_c, 1, 43, 58
2, 42524, Note_on_c, 1, 55, 55
2, 42528, Note_off_c, 1, 67, 64
2, 42528, Note_off_c, 1, 72, 64
2, 42532, Note_off_c, 1, 76, 64
2, 42536, Note_off_c, 1, 43, 64
2, 42544, Note_off_c, 1, 55, 64
2, 42624, Note_on_c, 1, 69, 58
2, 42624, Note_on_c, 1, 76, 62
2, 42628, Note_on_c, 1, 72, 54
2, 42648, Note_off_c, 1, 69, 64
2, 42652, Note_off_c, 1, 76, 64
2, 42652, Note_off_c, 1, 72, 64
2, 42736, Note_on_c, 1, 55, 57
2, 42736, Note_on_c, 1, 67, 40
2, 42744, Note_on_c, 1, 72, 57
2, 42744, Note_on_c, 1, 64, 48
2, 42744, Note_on_c, 1, 60, 38
2, 42744, Note_on_c, 1, 76, 62
2, 42756, Note_off_c, 1, 64, 64
2, 42760, Note_off_c, 1, 55, 64
2, 42764, Note_off_c, 1, 60, 64
2, 42772, Note_off_c, 1, 72, 64
2, 42776, Note_off_c, 1, 67, 64
2, 42776, Note_off_c, 1, 76, 64
2, 42916, Control_c, 1, 64, 0
2, 42948, Note_on_c, 1, 50, 58
2, 42952, Note_on_c, 1, 71, 57
2, 42952, Control_c, 1, 64, 127
2, 42956, Note_on_c, 1, 62, 52
2, 42964, Note_on_c, 1, 77, 62
2, 42980, Note_off_c, 1, 50, 64
2, 42988, Note_off_c, 1, 62, 64
2, 42996, Note_off_c, 1, 77, 64
2, 43004, Note_off_c, 1, 71, 64
2, 43172, Note_on_c, 1, 71, 53
2, 43176, Note_on_c, 1, 59, 57
2, 43176, Note_on_c, 1, 65, 53
2, 43176, Note_on_c, 1, 69, 55
2, 43184, Note_off_c, 1, 65, 64
2, 43184, Note_on_c, 1, 55, 38
2, 43184, Note_on_c, 1, 77, 63
2, 43200, Note_off_c, 1, 71, 64
2, 43200, Note_off_c, 1, 59, 64
2, 43200, Note_off_c, 1, 69, 64
2, 43208, Note_off_c, 1, 55, 64
2, 43208, Note_off_c, 1, 77, 64
2, 43276, Control_c, 1, 64, 0
2, 43284, Note_on_c, 1, 71, 63
2, 43284, Note_on_c, 1, 67, 63
2, 43292, Note_on_c, 1, 77, 53
2, 43392, Note_off_c, 1, 67, 64
2, 43392, Control_c, 1, 64, 127
2, 43396, Note_on_c, 1, 43, 64
2, 43404, Note_off_c, 1, 77, 64
2, 43408, Note_off_c, 1, 43, 64
2, 43408, Note_on_c, 1, 55, 62
2, 43412, Note_off_c, 1, 71, 64
2, 43420, Note_off_c, 1, 55, 64
2, 43508, Note_on_c, 1, 71, 57
2, 43508, Note_on_c, 1, 69, 57
2, 43512, Note_on_c, 1, 77, 64
2, 43528, Note_off_c, 1, 71, 64
2, 43536, Note_off_c, 1, 69, 64
2, 43536, Note_off_c, 1, 77, 64
2, 43624, Note_on_c, 1, 65, 54
2, 43624, Note_on_c, 1, 77, 66
2, 43628, Note_on_c, 1, 55, 57
2, 43628, Note_on_c, 1, 67, 58
2, 43628, Note_on_c, 1, 59, 52
2, 43628, Note_on_c, 1, 71, 55
2, 43636, Note_off_c, 1, 65, 64
2, 43636, Note_off_c, 1, 59, 64
2, 43640, Note_off_c, 1, 55, 64
2, 43652, Note_off_c, 1, 71, 64
2, 43656, Note_off_c, 1, 67, 64
2, 43664, Note_off_c, 1, 77, 64
2, 43828, Control_c, 1, 64, 0
2, 43848, Control_c, 1, 64, 127
2, 43852, Note_on_c, 1, 48, 35
2, 43852, Note_on_c, 1, 60, 48
2, 43852, Note_on_c, 1, 72, 62
2, 43856, Note_on_c, 1, 76, 64
2, 43876, Note_off_c, 1, 48, 64
2, 43884, Note_off_c, 1, 72, 64
2, 43888, Note_off_c, 1, 76, 64
2, 43892, Note_off_c, 1, 60, 64
2, 44068, Note_on_c, 1, 55, 48
2, 44068, Note_on_c, 1, 76, 61
2, 44068, Note_on_c, 1, 64, 57
2, 44076, Note_on_c, 1, 60, 35
2, 44084, Note_on_c, 1, 69, 34
2, 44092, Note_off_c, 1, 69, 64
2, 44100, Note_off_c, 1, 76, 64
2, 44108, Note_off_c, 1, 60, 64
2, 44112, Note_off_c, 1, 64, 64
2, 44120, Note_off_c, 1, 55, 64
2, 44176, Note_on_c, 1, 67, 58
2, 44176, Note_on_c, 1, 76, 63
2, 44188, Note_on_c, 1, 72, 55
2, 44256, Note_off_c, 1, 72, 64
2, 44264, Note_off_c, 1, 76, 64
2, 44268, Note_off_c, 1, 67, 64
2, 44304, Note_on_c, 1, 55, 53
2, 44304, Note_on_c, 1, 64, 58
2, 44304, Note_on_c, 1, 60, 48
2, 44312, Note_off_c, 1, 64, 64
2, 44312, Note_off_c, 1, 60, 64
2, 44324, Note_off_c, 1, 55, 64
2, 44364, Control_c, 1, 64, 0
2, 44532, Note_on_c, 1, 79, 102
2, 44532, Note_on_c, 1, 71, 98
2, 44532, Note_on_c, 1, 67, 98
2, 44532, Note_on_c, 1, 43, 88
2, 44532, Note_on_c, 1, 55, 77
2, 44536, Control_c, 1, 64, 127
2, 44540, Note_off_c, 1, 79, 64
2, 44540, Note_off_c, 1, 71, 64
2, 44548, Note_off_c, 1, 67, 64
2, 44552, Note_off_c, 1, 43, 64
2, 44552, Note_off_c, 1, 55, 64
2, 44628, Control_c, 1, 64, 0
2, 44776, Note_on_c, 1, 48, 68
2, 44784, Note_on_c, 1, 60, 68
2, 44784, Note_on_c, 1, 72, 75
2, 44796, Note_off_c, 1, 48, 64
2, 44804, Note_off_c, 1, 60, 64
2, 44892, Note_on_c, 1, 76, 68
2, 44996, Note_off_c, 1, 76, 64
2, 44996, Note_on_c, 1, 64, 66
2, 45004, Note_on_c, 1, 55, 65
2, 45004, Note_on_c, 1, 60, 63
2, 45012, Note_off_c, 1, 60, 64
2, 45012, Note_on_c, 1, 79, 75
2, 45016, Note_off_c, 1, 64, 64
2, 45016, Note_off_c, 1, 55, 64
2, 45104, Note_off_c, 1, 79, 64
2, 45108, Note_on_c, 1, 84, 70
2, 45128, Control_c, 1, 64, 127
2, 45152, Note_off_c, 1, 72, 64
2, 45212, Note_on_c, 1, 46, 71
2, 45212, Control_c, 1, 64, 0
2, 45216, Note_on_c, 1, 72, 73
2, 45216, Note_on_c, 1, 58, 75
2, 45224, Note_off_c, 1, 46, 64
2, 45228, Note_off_c, 1, 58, 64
2, 45332, Note_on_c, 1, 76, 80
2, 45340, Note_off_c, 1, 84, 64
2, 45428, Note_on_c, 1, 55, 80
2, 45436, Note_on_c, 1, 60, 65
2, 45436, Note_on_c, 1, 64, 66
2, 45436, Note_on_c, 1, 79, 88
2, 45448, Note_off_c, 1, 60, 64
2, 45448, Note_off_c, 1, 64, 64
2, 45452, Note_off_c, 1, 76, 64
2, 45452, Note_off_c, 1, 55, 64
2, 45528, Note_off_c, 1, 79, 64
2, 45536, Note_on_c, 1, 84, 85
2, 45556, Note_off_c, 1, 72, 64
2, 45644, Note_on_c, 1, 45, 80
2, 45648, Note_on_c, 1, 57, 71
2, 45656, Note_on_c, 1, 72, 88
2, 45668, Note_off_c, 1, 45, 64
2, 45668, Note_off_c, 1, 57, 64
2, 45740, Note_off_c, 1, 84, 64
2, 45752, Note_on_c, 1, 77, 90
2, 45856, Note_off_c, 1, 77, 64
2, 45864, Note_on_c, 1, 57, 80
2, 45864, Note_on_c, 1, 65, 71
2, 45864, Note_on_c, 1, 60, 66
2, 45864, Note_on_c, 1, 84, 107
2, 45872, Note_off_c, 1, 57, 64
2, 45872, Note_off_c, 1, 65, 64
2, 45872, Note_off_c, 1, 60, 64
2, 45944, Note_off_c, 1, 72, 64
2, 45964, Note_on_c, 1, 77, 90
2, 45964, Control_c, 1, 64, 127
2, 46044, Control_c, 1, 64, 0
2, 46064, Note_off_c, 1, 84, 64
2, 46064, Note_off_c, 1, 77, 64
2, 46064, Note_on_c, 1, 72, 88
2, 46068, Note_on_c, 1, 56, 88
2, 46068, Note_on_c, 1, 44, 90
2, 46068, Control_c, 1, 64, 127
2, 46088, Note_off_c, 1, 44, 64
2, 46092, Note_off_c, 1, 56, 64
2, 46184, Note_on_c, 1, 84, 90
2, 46296, Note_on_c, 1, 66, 75
2, 46296, Note_on_c, 1, 60, 85
2, 46296, Note_on_c, 1, 63, 75
2, 46316, Note_off_c, 1, 66, 64
2, 46316, Note_off_c, 1, 60, 64
2, 46316, Note_off_c, 1, 63, 64
2, 46412, Note_off_c, 1, 84, 64
2, 46412, Note_on_c, 1, 78, 94
2, 46432, Note_off_c, 1, 78, 64
2, 46456, Note_off_c, 1, 72, 64
2, 46528, Note_on_c, 1, 43, 88
2, 46532, Note_on_c, 1, 55, 88
2, 46532, Note_on_c, 1, 79, 85
2, 46532, Control_c, 1, 64, 0
2, 46552, Control_c, 1, 64, 127
2, 46556, Note_off_c, 1, 43, 64
2, 46576, Note_off_c, 1, 55, 64
2, 46644, Note_on_c, 1, 67, 80
2, 46692, Note_off_c, 1, 79, 64
2, 46736, Note_on_c, 1, 55, 82
2, 46744, Note_on_c, 1, 64, 71
2, 46748, Note_on_c, 1, 60, 70
2, 46748, Note_on_c, 1, 76, 88
2, 46756, Note_off_c, 1, 64, 64
2, 46756, Note_off_c, 1, 60, 64
2, 46760, Note_off_c, 1, 55, 64
2, 46848, Note_off_c, 1, 76, 64
2, 46848, Note_on_c, 1, 74, 85
2, 46856, Note_off_c, 1, 67, 64
2, 46872, Note_off_c, 1, 74, 64
2, 46944, Control_c, 1, 64, 0
2, 46956, Note_on_c, 1, 72, 88
2, 46956, Note_on_c, 1, 66, 68
2, 46964, Note_on_c, 1, 45, 77
2, 46964, Note_on_c, 1, 57, 75
2, 46964, Control_c, 1, 64, 127
2, 47004, Note_off_c, 1, 72, 64
2, 47020, Note_off_c, 1, 66, 64
2, 47024, Note_off_c, 1, 57, 64
2, 47028, Note_off_c, 1, 45, 64
2, 47152, Control_c, 1, 64, 0
2, 47184, Note_on_c, 1, 65, 75
2, 47184, Note_on_c, 1, 43, 77
2, 47184, Note_on_c, 1, 71, 82
2, 47188, Note_on_c, 1, 55, 77
2, 47188, Note_on_c, 1, 74, 88
2, 47188, Control_c, 1, 64, 127
2, 47212, Note_off_c, 1, 43, 64
2, 47228, Note_off_c, 1, 55, 64
2, 47248, Note_off_c, 1, 65, 64
2, 47248, Note_off_c, 1, 71, 64
2, 47248, Note_off_c, 1, 74, 64
2, 47376, Control_c, 1, 64, 0
2, 47396, Note_on_c, 1, 48, 77
2, 47404, Note_on_c, 1, 64, 77
2, 47404, Note_on_c, 1, 72, 82
2, 47404, Note_on_c, 1, 60, 70
2, 47408, Control_c, 1, 64, 127
2, 47428, Note_off_c, 1, 64, 64
2, 47444, Note_off_c, 1, 72, 64
2, 47496, Note_off_c, 1, 48, 64
2, 47504, Note_off_c, 1, 60, 64
2, 47592, Control_c, 1, 64, 0
2, 47624, Note_on_c, 1, 79, 73
2, 47652, Note_off_c, 1, 79, 64
2, 47744, Note_on_c, 1, 79, 83
2, 47756, Note_off_c, 1, 79, 64
2, 47844, Note_on_c, 1, 79, 107
2, 47844, Control_c, 1, 64, 127
2, 47856, Note_on_c, 1, 61, 89
2, 47856, Note_on_c, 1, 49, 97
2, 47868, Note_off_c, 1, 79, 64
2, 48064, Note_off_c, 1, 61, 64
2, 48064, Note_off_c, 1, 49, 64
2, 48084, Note_on_c, 1, 79, 100
2, 48104, Note_off_c, 1, 79, 64
2, 48188, Note_on_c, 1, 79, 75
2, 48248, Note_on_c, 1, 50, 80
2, 48248, Note_on_c, 1, 83, 82
2, 48272, Control_c, 1, 64, 0
2, 48324, Note_on_c, 1, 62, 107
2, 48332, Note_on_c, 1, 91, 96
2, 48336, Note_off_c, 1, 83, 64
2, 48336, Control_c, 1, 64, 127
2, 48372, Note_off_c, 1, 50, 64
2, 48392, Note_off_c, 1, 62, 64
2, 48416, Note_off_c, 1, 91, 64
2, 48432, Note_on_c, 1, 89, 75
2, 48512, Note_off_c, 1, 79, 64
2, 48536, Note_on_c, 1, 65, 75
2, 48536, Note_on_c, 1, 55, 73
2, 48544, Note_off_c, 1, 65, 64
2, 48544, Note_off_c, 1, 55, 64
2, 48544, Note_on_c, 1, 59, 82
2, 48544, Note_on_c, 1, 86, 90
2, 48552, Note_off_c, 1, 59, 64
2, 48572, Control_c, 1, 64, 0
2, 48636, Note_off_c, 1, 86, 64
2, 48644, Note_off_c, 1, 89, 64
2, 48648, Control_c, 1, 64, 127
2, 48652, Note_on_c, 1, 83, 82
2, 48664, Note_off_c, 1, 83, 64
2, 48752, Note_on_c, 1, 43, 90
2, 48752, Note_on_c, 1, 55, 88
2, 48752, Note_on_c, 1, 79, 85
2, 48752, Control_c, 1, 64, 0
2, 48796, Control_c, 1, 64, 127
2, 48800, Note_off_c, 1, 43, 64
2, 48812, Note_off_c, 1, 55, 64
2, 48844, Note_off_c, 1, 79, 64
2, 48856, Note_on_c, 1, 77, 82
2, 48956, Control_c, 1, 64, 0
2, 48964, Note_off_c, 1, 77, 64
2, 48972, Note_on_c, 1, 74, 88
2, 48972, Note_on_c, 1, 55, 64
2, 48972, Note_on_c, 1, 65, 62
2, 48976, Note_on_c, 1, 62, 62
2, 48976, Control_c, 1, 64, 127
2, 48980, Note_off_c, 1, 65, 64
2, 48988, Note_off_c, 1, 62, 64
2, 48996, Note_off_c, 1, 55, 64
2, 49056, Note_off_c, 1, 74, 64
2, 49068, Note_on_c, 1, 71, 73
2, 49080, Note_off_c, 1, 71, 64
2, 49144, Control_c, 1, 64, 0
2, 49212, Note_on_c, 1, 72, 62
2, 49212, Note_on_c, 1, 48, 34
2, 49212, Note_on_c, 1, 76, 64
2, 49212, Control_c, 1, 64, 127
2, 49216, Note_on_c, 1, 60, 34
2, 49232, Note_off_c, 1, 48, 64
2, 49248, Note_off_c, 1, 60, 64
2, 49252, Note_off_c, 1, 72, 64
2, 49252, Note_off_c, 1, 76, 64
2, 49416, Note_on_c, 1, 55, 41
2, 49424, Note_on_c, 1, 76, 64
2, 49424, Note_on_c, 1, 72, 57
2, 49428, Note_on_c, 1, 69, 38
2, 49428, Note_on_c, 1, 60, 34
2, 49428, Note_on_c, 1, 64, 35
2, 49432, Note_off_c, 1, 60, 64
2, 49440, Note_off_c, 1, 64, 64
2, 49444, Note_off_c, 1, 55, 64
2, 49448, Note_off_c, 1, 72, 64
2, 49448, Note_off_c, 1, 69, 64
2, 49452, Note_off_c, 1, 76, 64
2, 49456, Control_c, 1, 64, 0
2, 49528, Note_on_c, 1, 67, 57
2, 49532, Note_on_c, 1, 72, 57
2, 49536, Note_on_c, 1, 76, 58
2, 49624, Control_c, 1, 64, 127
2, 49644, Note_on_c, 1, 43, 56
2, 49644, Note_on_c, 1, 55, 62
2, 49648, Note_off_c, 1, 67, 64
2, 49648, Note_off_c, 1, 76, 64
2, 49652, Note_off_c, 1, 72, 64
2, 49664, Note_off_c, 1, 43, 64
2, 49676, Note_off_c, 1, 55, 64
2, 49744, Note_on_c, 1, 76, 62
2, 49752, Note_on_c, 1, 69, 59
2, 49752, Note_on_c, 1, 72, 53
2, 49764, Note_off_c, 1, 69, 64
2, 49772, Note_off_c, 1, 76, 64
2, 49772, Note_off_c, 1, 72, 64
2, 49816, Control_c, 1, 64, 0
2, 49864, Note_on_c, 1, 55, 57
2, 49864, Note_on_c, 1, 64, 61
2, 49864, Note_on_c, 1, 60, 61
2, 49864, Note_on_c, 1, 67, 51
2, 49864, Note_on_c, 1, 72, 54
2, 49868, Note_on_c, 1, 76, 63
2, 49876, Note_off_c, 1, 64, 64
2, 49876, Note_off_c, 1, 60, 64
2, 49884, Note_off_c, 1, 55, 64
2, 49884, Note_off_c, 1, 72, 64
2, 49896, Note_off_c, 1, 67, 64
2, 49896, Note_off_c, 1, 76, 64
2, 50072, Note_on_c, 1, 50, 53
2, 50072, Note_on_c, 1, 77, 66
2, 50084, Note_on_c, 1, 71, 60
2, 50084, Note_on_c, 1, 62, 53
2, 50084, Control_c, 1, 64, 127
2, 50092, Note_off_c, 1, 50, 64
2, 50104, Note_off_c, 1, 62, 64
2, 50112, Note_off_c, 1, 77, 64
2, 50124, Note_off_c, 1, 71, 64
2, 50292, Note_on_c, 1, 71, 62
2, 50296, Note_on_c, 1, 59, 58
2, 50296, Note_on_c, 1, 55, 44
2, 50296, Note_on_c, 1, 65, 50
2, 50296, Note_on_c, 1, 69, 57
2, 50296, Note_on_c, 1, 77, 62
2, 50304, Control_c, 1, 64, 0
2, 50308, Note_off_c, 1, 65, 64
2, 50316, Note_off_c, 1, 71, 64
2, 50316, Note_off_c, 1, 59, 64
2, 50316, Note_off_c, 1, 55, 64
2, 50316, Note_off_c, 1, 69, 64
2, 50316, Note_off_c, 1, 77, 64
2, 50408, Note_on_c, 1, 67, 63
2, 50408, Note_on_c, 1, 71, 61
2, 50408, Note_on_c, 1, 77, 62
2, 50512, Control_c, 1, 64, 127
2, 50520, Note_off_c, 1, 67, 64
2, 50524, Note_on_c, 1, 43, 54
2, 50524, Note_on_c, 1, 55, 66
2, 50536, Note_off_c, 1, 71, 64
2, 50536, Note_off_c, 1, 77, 64
2, 50548, Note_off_c, 1, 43, 64
2, 50556, Note_off_c, 1, 55, 64
2, 50628, Note_on_c, 1, 77, 66
2, 50628, Note_on_c, 1, 71, 58
2, 50632, Note_on_c, 1, 69, 34
2, 50652, Note_off_c, 1, 71, 64
2, 50652, Note_off_c, 1, 69, 64
2, 50660, Note_off_c, 1, 77, 64
2, 50708, Control_c, 1, 64, 0
2, 50736, Note_on_c, 1, 55, 54
2, 50736, Note_on_c, 1, 59, 56
2, 50736, Note_on_c, 1, 77, 68
2, 50744, Note_on_c, 1, 67, 62
2, 50748, Note_off_c, 1, 59, 64
2, 50748, Note_on_c, 1, 65, 61
2, 50748, Note_on_c, 1, 71, 56
2, 50756, Note_off_c, 1, 55, 64
2, 50756, Note_off_c, 1, 67, 64
2, 50756, Note_off_c, 1, 65, 64
2, 50768, Note_off_c, 1, 71, 64
2, 50776, Note_off_c, 1, 77, 64
2, 50956, Note_on_c, 1, 48, 62
2, 50956, Note_on_c, 1, 76, 70
2, 50964, Note_on_c, 1, 72, 61
2, 50964, Control_c, 1, 64, 127
2, 50968, Note_on_c, 1, 60, 53
2, 50976, Note_off_c, 1, 48, 64
2, 50988, Note_off_c, 1, 60, 64
2, 50996, Note_off_c, 1, 72, 64
2, 51000, Note_off_c, 1, 76, 64
2, 51164, Note_on_c, 1, 64, 58
2, 51168, Note_on_c, 1, 72, 62
2, 51168, Note_on_c, 1, 69, 62
2, 51168, Note_on_c, 1, 76, 70
2, 51172, Note_on_c, 1, 60, 44
2, 51176, Note_on_c, 1, 55, 28
2, 51184, Note_off_c, 1, 60, 64
2, 51188, Note_off_c, 1, 64, 64
2, 51188, Note_off_c, 1, 69, 64
2, 51188, Note_off_c, 1, 55, 64
2, 51196, Note_off_c, 1, 72, 64
2, 51196, Note_off_c, 1, 76, 64
2, 51208, Control_c, 1, 64, 0
2, 51276, Note_on_c, 1, 67, 58
2, 51284, Note_on_c, 1, 72, 60
2, 51284, Note_on_c, 1, 76, 65
2, 51348, Note_off_c, 1, 67, 64
2, 51348, Note_off_c, 1, 72, 64
2, 51372, Note_off_c, 1, 76, 64
2, 51372, Control_c, 1, 64, 127
2, 51392, Note_on_c, 1, 55, 64
2, 51392, Note_on_c, 1, 43, 60
2, 51404, Note_off_c, 1, 43, 64
2, 51416, Note_off_c, 1, 55, 64
2, 51484, Note_on_c, 1, 79, 77
2, 51596, Note_on_c, 1, 84, 80
2, 51596, Note_on_c, 1, 60, 68
2, 51604, Note_on_c, 1, 55, 66
2, 51604, Note_on_c, 1, 64, 64
2, 51608, Note_off_c, 1, 60, 64
2, 51616, Note_off_c, 1, 55, 64
2, 51616, Note_off_c, 1, 64, 64
2, 51680, Note_off_c, 1, 84, 64
2, 51684, Note_off_c, 1, 79, 64
2, 51688, Note_on_c, 1, 88, 75
2, 51732, Note_on_c, 1, 79, 85
2, 51748, Note_off_c, 1, 88, 64
2, 51756, Control_c, 1, 64, 0
2, 51784, Note_on_c, 1, 83, 102
2, 51824, Note_on_c, 1, 62, 70
2, 51832, Note_on_c, 1, 50, 77
2, 51836, Control_c, 1, 64, 127
2, 51844, Note_off_c, 1, 83, 64
2, 51844, Note_off_c, 1, 50, 64
2, 51844, Note_on_c, 1, 91, 107
2, 51852, Note_off_c, 1, 62, 64
2, 51936, Note_off_c, 1, 91, 64
2, 51944, Note_on_c, 1, 89, 75
2, 51980, Note_off_c, 1, 79, 64
2, 52032, Note_on_c, 1, 59, 77
2, 52032, Note_on_c, 1, 65, 66
2, 52036, Note_on_c, 1, 55, 62
2, 52036, Note_on_c, 1, 86, 82
2, 52044, Note_off_c, 1, 89, 64
2, 52052, Note_off_c, 1, 59, 64
2, 52056, Note_off_c, 1, 65, 64
2, 52056, Note_off_c, 1, 55, 64
2, 52136, Note_off_c, 1, 86, 64
2, 52144, Note_on_c, 1, 83, 90
2, 52156, Note_off_c, 1, 83, 64
2, 52244, Note_on_c, 1, 43, 82
2, 52248, Note_on_c, 1, 55, 88
2, 52248, Note_on_c, 1, 79, 85
2, 52248, Control_c, 1, 64, 0
2, 52276, Control_c, 1, 64, 127
2, 52288, Note_off_c, 1, 43, 64
2, 52296, Note_off_c, 1, 55, 64
2, 52344, Note_on_c, 1, 77, 88
2, 52348, Note_off_c, 1, 79, 64
2, 52444, Note_off_c, 1, 77, 64
2, 52448, Note_on_c, 1, 65, 73
2, 52452, Note_on_c, 1, 59, 82
2, 52452, Note_on_c, 1, 74, 90
2, 52452, Note_on_c, 1, 55, 63
2, 52460, Note_off_c, 1, 65, 64
2, 52460, Note_off_c, 1, 59, 64
2, 52460, Note_off_c, 1, 55, 64
2, 52536, Note_off_c, 1, 74, 64
2, 52552, Note_on_c, 1, 71, 75
2, 52556, Note_on_c, 1, 72, 75
2, 52560, Note_off_c, 1, 72, 64
2, 52576, Note_off_c, 1, 71, 64
2, 52656, Control_c, 1, 64, 0
2, 52668, Note_on_c, 1, 60, 68
2, 52668, Note_on_c, 1, 48, 75
2, 52672, Note_on_c, 1, 76, 82
2, 52672, Note_on_c, 1, 72, 82
2, 52676, Control_c, 1, 64, 127
2, 52696, Note_off_c, 1, 48, 64
2, 52712, Note_off_c, 1, 60, 64
2, 52744, Note_off_c, 1, 76, 64
2, 52752, Note_off_c, 1, 72, 64
2, 52884, Note_on_c, 1, 55, 65
2, 52888, Note_on_c, 1, 60, 57
2, 52888, Note_on_c, 1, 64, 61
2, 52888, Note_on_c, 1, 72, 66
2, 52892, Note_on_c, 1, 76, 75
2, 52892, Note_on_c, 1, 69, 65
2, 52896, Note_off_c, 1, 60, 64
2, 52900, Note_off_c, 1, 64, 64
2, 52904, Note_off_c, 1, 55, 64
2, 52904, Note_off_c, 1, 69, 64
2, 52912, Note_off_c, 1, 72, 64
2, 52912, Note_off_c, 1, 76, 64
2, 53004, Note_on_c, 1, 72, 75
2, 53008, Note_on_c, 1, 67, 75
2, 53008, Note_on_c, 1, 76, 75
2, 53044, Control_c, 1, 64, 0
2, 53096, Note_off_c, 1, 72, 64
2, 53100, Note_off_c, 1, 67, 64
2, 53100, Note_off_c, 1, 76, 64
2, 53104, Note_on_c, 1, 40, 80
2, 53112, Note_on_c, 1, 52, 90
2, 53112, Control_c, 1, 64, 127
2, 53200, Note_off_c, 1, 52, 64
2, 53212, Note_off_c, 1, 40, 64
2, 53212, Note_on_c, 1, 67, 90
2, 53264, Note_off_c, 1, 67, 64
2, 53328, Note_on_c, 1, 67, 85
2, 53336, Note_on_c, 1, 37, 111
2, 53336, Note_on_c, 1, 49, 102
2, 53336, Note_on_c, 1, 76, 90
2, 53336, Note_on_c, 1, 70, 75
2, 53336, Control_c, 1, 64, 0
2, 53356, Control_c, 1, 64, 127
2, 53400, Note_off_c, 1, 67, 64
2, 53400, Note_off_c, 1, 70, 64
2, 53416, Note_off_c, 1, 37, 64
2, 53416, Note_off_c, 1, 49, 64
2, 53420, Note_off_c, 1, 76, 64
2, 53536, Control_c, 1, 64, 0
2, 53548, Note_on_c, 1, 50, 88
2, 53548, Note_on_c, 1, 38, 85
2, 53552, Note_on_c, 1, 76, 85
2, 53564, Note_on_c, 1, 71, 85
2, 53564, Note_on_c, 1, 67, 88
2, 53564, Control_c, 1, 64, 127
2, 53576, Note_off_c, 1, 38, 64
2, 53592, Note_off_c, 1, 50, 64
2, 53628, Note_off_c, 1, 71, 64
2, 53644, Note_off_c, 1, 67, 64
2, 53652, Note_off_c, 1, 76, 64
2, 53756, Note_on_c, 1, 55, 71
2, 53764, Note_on_c, 1, 74, 85
2, 53768, Note_on_c, 1, 50, 75
2, 53768, Note_on_c, 1, 67, 77
2, 53768, Note_on_c, 1, 71, 71
2, 53780, Note_off_c, 1, 50, 64
2, 53784, Note_off_c, 1, 55, 64
2, 53808, Note_off_c, 1, 74, 64
2, 53808, Note_off_c, 1, 71, 64
2, 53812, Note_off_c, 1, 67, 64
2, 53876, Note_on_c, 1, 71, 75
2, 53884, Note_on_c, 1, 67, 77
2, 53924, Note_off_c, 1, 71, 64
2, 53928, Note_off_c, 1, 67, 64
2, 53992, Note_on_c, 1, 50, 85
2, 53992, Note_on_c, 1, 38, 85
2, 54004, Control_c, 1, 64, 0
2, 54032, Control_c, 1, 64, 127
2, 54060, Note_off_c, 1, 38, 64
2, 54072, Note_off_c, 1, 50, 64
2, 54096, Note_on_c, 1, 67, 75
2, 54104, Note_on_c, 1, 59, 75
2, 54124, Note_off_c, 1, 59, 64
2, 54136, Note_off_c, 1, 67, 64
2, 54216, Note_on_c, 1, 69, 80
2, 54216, Control_c, 1, 64, 0
2, 54224, Note_on_c, 1, 54, 70
2, 54224, Note_on_c, 1, 60, 70
2, 54224, Note_on_c, 1, 50, 88
2, 54236, Control_c, 1, 64, 127
2, 54284, Note_off_c, 1, 54, 64
2, 54288, Note_off_c, 1, 69, 64
2, 54288, Note_off_c, 1, 60, 64
2, 54288, Note_off_c, 1, 50, 64
2, 54456, Control_c, 1, 64, 0
2, 54464, Note_on_c, 1, 50, 75
2, 54464, Note_on_c, 1, 43, 75
2, 54464, Note_on_c, 1, 55, 70
2, 54468, Note_on_c, 1, 67, 80
2, 54468, Note_on_c, 1, 59, 75
2, 54484, Control_c, 1, 64, 127
2, 54492, Note_off_c, 1, 59, 64
2, 54496, Note_off_c, 1, 67, 64
2, 54568, Note_off_c, 1, 43, 64
2, 54576, Note_off_c, 1, 50, 64
2, 54592, Note_on_c, 1, 67, 75
2, 54596, Note_off_c, 1, 55, 64
2, 54612, Control_c, 1, 64, 0
2, 54716, Note_off_c, 1, 67, 64
2, 54716, Note_on_c, 1, 71, 73
2, 54836, Control_c, 1, 64, 127
2, 54852, Note_on_c, 1, 74, 82
2, 54868, Note_off_c, 1, 71, 64
2, 54952, Control_c, 1, 64, 0
2, 54964, Note_off_c, 1, 74, 64
2, 54968, Note_on_c, 1, 79, 77
2, 54976, Note_on_c, 1, 55, 64
2, 54976, Control_c, 1, 64, 127
2, 54984, Note_on_c, 1, 62, 68
2, 54988, Note_off_c, 1, 79, 64
2, 54988, Note_on_c, 1, 59, 71
2, 55008, Control_c, 1, 64, 0
2, 55104, Note_on_c, 1, 79, 85
2, 55224, Note_on_c, 1, 83, 90
2, 55228, Note_off_c, 1, 55, 64
2, 55232, Note_off_c, 1, 62, 64
2, 55232, Note_off_c, 1, 59, 64
2, 55332, Note_off_c, 1, 83, 64
2, 55332, Note_on_c, 1, 86, 88
2, 55336, Note_off_c, 1, 79, 64
2, 55376, Note_off_c, 1, 86, 64
2, 55376, Note_on_c, 1, 79, 85
2, 55428, Note_on_c, 1, 83, 88
2, 55480, Note_off_c, 1, 83, 64
2, 55492, Note_on_c, 1, 50, 88
2, 55492, Note_on_c, 1, 62, 82
2, 55492, Note_on_c, 1, 91, 107
2, 55492, Control_c, 1, 64, 127
2, 55504, Note_off_c, 1, 50, 64
2, 55512, Note_off_c, 1, 62, 64
2, 55580, Note_off_c, 1, 91, 64
2, 55592, Note_on_c, 1, 89, 77
2, 55616, Note_off_c, 1, 79, 64
2, 55696, Note_on_c, 1, 55, 68
2, 55696, Note_on_c, 1, 59, 82
2, 55696, Note_on_c, 1, 65, 63
2, 55700, Note_off_c, 1, 89, 64
2, 55704, Note_off_c, 1, 55, 64
2, 55704, Note_on_c, 1, 86, 90
2, 55708, Note_off_c, 1, 59, 64
2, 55708, Note_off_c, 1, 65, 64
2, 55712, Control_c, 1, 64, 0
2, 55804, Note_off_c, 1, 86, 64
2, 55804, Note_on_c, 1, 83, 88
2, 55808, Control_c, 1, 64, 127
2, 55824, Note_off_c, 1, 83, 64
2, 55904, Note_on_c, 1, 79, 88
2, 55908, Note_on_c, 1, 43, 72
2, 55916, Note_on_c, 1, 55, 77
2, 55916, Control_c, 1, 64, 0
2, 55960, Note_off_c, 1, 43, 64
2, 55976, Note_off_c, 1, 55, 64
2, 56012, Note_off_c, 1, 79, 64
2, 56016, Note_on_c, 1, 77, 88
2, 56112, Note_off_c, 1, 77, 64
2, 56116, Note_on_c, 1, 59, 73
2, 56116, Note_on_c, 1, 55, 71
2, 56116, Note_on_c, 1, 65, 68
2, 56116, Note_on_c, 1, 74, 85
2, 56124, Control_c, 1, 64, 127
2, 56128, Note_off_c, 1, 59, 64
2, 56128, Note_off_c, 1, 55, 64
2, 56128, Note_off_c, 1, 65, 64
2, 56148, Control_c, 1, 64, 0
2, 56208, Note_off_c, 1, 74, 64
2, 56224, Note_on_c, 1, 71, 71
2, 56232, Control_c, 1, 64, 127
2, 56236, Note_off_c, 1, 71, 64
2, 56276, Control_c, 1, 64, 0
2, 56348, Note_on_c, 1, 48, 62
2, 56348, Control_c, 1, 64, 127
2, 56364, Note_on_c, 1, 72, 65
2, 56364, Note_on_c, 1, 76, 66
2, 56368, Note_on_c, 1, 60, 35
2, 56372, Note_off_c, 1, 48, 64
2, 56388, Note_off_c, 1, 60, 64
2, 56404, Note_off_c, 1, 72, 64
2, 56408, Note_off_c, 1, 76, 64
2, 56568, Note_on_c, 1, 64, 58
2, 56572, Note_on_c, 1, 76, 65
2, 56576, Note_on_c, 1, 69, 58
2, 56576, Note_on_c, 1, 60, 57
2, 56576, Note_on_c, 1, 55, 59
2, 56576, Note_on_c, 1, 72, 58
2, 56580, Note_off_c, 1, 64, 64
2, 56584, Note_off_c, 1, 69, 64
2, 56584, Note_off_c, 1, 60, 64
2, 56596, Note_off_c, 1, 76, 64
2, 56596, Note_off_c, 1, 55, 64
2, 56596, Note_off_c, 1, 72, 64
2, 56604, Control_c, 1, 64, 0
2, 56684, Note_on_c, 1, 67, 62
2, 56688, Note_on_c, 1, 76, 65
2, 56688, Note_on_c, 1, 72, 58
2, 56772, Control_c, 1, 64, 127
2, 56788, Note_off_c, 1, 67, 64
2, 56792, Note_off_c, 1, 76, 64
2, 56792, Note_off_c, 1, 72, 64
2, 56796, Note_on_c, 1, 43, 62
2, 56796, Note_on_c, 1, 55, 63
2, 56820, Note_off_c, 1, 43, 64
2, 56824, Note_off_c, 1, 55, 64
2, 56908, Note_on_c, 1, 69, 62
2, 56908, Note_on_c, 1, 76, 62
2, 56908, Note_on_c, 1, 72, 62
2, 56920, Note_off_c, 1, 69, 64
2, 56920, Note_off_c, 1, 72, 64
2, 56936, Note_off_c, 1, 76, 64
2, 56984, Control_c, 1, 64, 0
2, 57024, Note_on_c, 1, 55, 65
2, 57028, Note_on_c, 1, 67, 60
2, 57028, Note_on_c, 1, 60, 58
2, 57028, Note_on_c, 1, 64, 58
2, 57028, Note_on_c, 1, 76, 63
2, 57028, Note_on_c, 1, 72, 58
2, 57032, Control_c, 1, 64, 127
2, 57036, Note_off_c, 1, 55, 64
2, 57036, Note_off_c, 1, 60, 64
2, 57048, Note_off_c, 1, 64, 64
2, 57052, Note_off_c, 1, 72, 64
2, 57056, Note_off_c, 1, 67, 64
2, 57060, Note_off_c, 1, 76, 64
2, 57124, Control_c, 1, 64, 0
2, 57244, Control_c, 1, 64, 127
2, 57248, Note_on_c, 1, 50, 58
2, 57248, Note_on_c, 1, 71, 63
2, 57248, Note_on_c, 1, 77, 75
2, 57252, Note_on_c, 1, 62, 50
2, 57268, Note_off_c, 1, 50, 64
2, 57280, Note_off_c, 1, 71, 64
2, 57280, Note_off_c, 1, 62, 64
2, 57288, Note_off_c, 1, 77, 64
2, 57472, Note_on_c, 1, 71, 63
2, 57472, Note_on_c, 1, 65, 37
2, 57472, Note_on_c, 1, 77, 64
2, 57476, Note_on_c, 1, 55, 57
2, 57476, Note_on_c, 1, 69, 61
2, 57476, Note_on_c, 1, 59, 57
2, 57480, Note_off_c, 1, 65, 64
2, 57480, Note_off_c, 1, 59, 64
2, 57484, Note_off_c, 1, 55, 64
2, 57496, Note_off_c, 1, 71, 64
2, 57496, Note_off_c, 1, 77, 64
2, 57496, Note_off_c, 1, 69, 64
2, 57496, Control_c, 1, 64, 0
2, 57584, Note_on_c, 1, 77, 75
2, 57588, Note_on_c, 1, 71, 66
2, 57588, Note_on_c, 1, 67, 68
2, 57692, Control_c, 1, 64, 127
2, 57696, Note_on_c, 1, 43, 61
2, 57696, Note_on_c, 1, 55, 62
2, 57708, Note_off_c, 1, 77, 64
2, 57708, Note_off_c, 1, 67, 64
2, 57708, Note_off_c, 1, 43, 64
2, 57712, Note_off_c, 1, 71, 64
2, 57724, Note_off_c, 1, 55, 64
2, 57804, Note_on_c, 1, 69, 62
2, 57804, Note_on_c, 1, 71, 62
2, 57804, Note_on_c, 1, 77, 68
2, 57816, Note_off_c, 1, 71, 64
2, 57824, Note_off_c, 1, 69, 64
2, 57828, Note_off_c, 1, 77, 64
2, 57904, Note_on_c, 1, 55, 65
2, 57904, Note_on_c, 1, 59, 65
2, 57908, Note_on_c, 1, 65, 60
2, 57908, Note_on_c, 1, 77, 75
2, 57908, Note_on_c, 1, 67, 68
2, 57920, Note_off_c, 1, 65, 64
2, 57924, Note_on_c, 1, 71, 66
2, 57928, Note_off_c, 1, 55, 64
2, 57928, Note_off_c, 1, 59, 64
2, 57968, Control_c, 1, 64, 0
2, 57984, Note_off_c, 1, 71, 64
2, 57996, Note_off_c, 1, 67, 64
2, 58008, Note_off_c, 1, 77, 64
2, 58128, Note_on_c, 1, 60, 70
2, 58128, Note_on_c, 1, 76, 73
2, 58128, Note_on_c, 1, 72, 71
2, 58132, Note_on_c, 1, 48, 75
2, 58132, Control_c, 1, 64, 127
2, 58144, Note_off_c, 1, 48, 64
2, 58156, Note_off_c, 1, 60, 64
2, 58188, Note_off_c, 1, 72, 64
2, 58192, Note_off_c, 1, 76, 64
2, 58344, Note_on_c, 1, 55, 67
2, 58348, Note_on_c, 1, 60, 70
2, 58348, Note_on_c, 1, 64, 73
2, 58348, Note_on_c, 1, 76, 76
2, 58352, Note_on_c, 1, 69, 71
2, 58352, Note_on_c, 1, 72, 68
2, 58372, Note_off_c, 1, 69, 64
2, 58376, Note_off_c, 1, 72, 64
2, 58376, Note_off_c, 1, 76, 64
2, 58452, Note_on_c, 1, 67, 76
2, 58456, Note_off_c, 1, 64, 64
2, 58456, Note_on_c, 1, 76, 79
2, 58456, Note_on_c, 1, 72, 75
2, 58460, Note_off_c, 1, 60, 64
2, 58464, Note_off_c, 1, 55, 64
2, 58488, Control_c, 1, 64, 0
2, 58544, Control_c, 1, 64, 127
2, 58564, Note_off_c, 1, 76, 64
2, 58568, Note_off_c, 1, 72, 64
2, 58568, Note_on_c, 1, 60, 70
2, 58568, Note_on_c, 1, 55, 85
2, 58572, Note_on_c, 1, 64, 82
2, 58580, Note_off_c, 1, 60, 64
2, 58580, Note_off_c, 1, 64, 64
2, 58584, Note_off_c, 1, 67, 64
2, 58584, Control_c, 1, 64, 0
2, 58588, Note_off_c, 1, 55, 64
2, 58784, Note_on_c, 1, 43, 100
2, 58784, Note_on_c, 1, 71, 95
2, 58784, Note_on_c, 1, 67, 90
2, 58792, Note_on_c, 1, 55, 99
2, 58792, Note_on_c, 1, 79, 96
2, 58792, Control_c, 1, 64, 127
2, 58812, Note_off_c, 1, 43, 64
2, 58812, Note_off_c, 1, 55, 64
2, 58832, Note_off_c, 1, 71, 64
2, 58836, Note_off_c, 1, 67, 64
2, 58844, Note_off_c, 1, 79, 64
2, 58872, Control_c, 1, 64, 0
2, 59012, Note_on_c, 1, 48, 71
2, 59024, Note_on_c, 1, 60, 54
2, 59024, Note_on_c, 1, 72, 65
2, 59036, Note_off_c, 1, 48, 64
2, 59036, Note_off_c, 1, 60, 64
2, 59128, Note_on_c, 1, 76, 58
2, 59228, Note_on_c, 1, 55, 75
2, 59236, Note_on_c, 1, 64, 68
2, 59236, Note_on_c, 1, 60, 63
2, 59236, Note_on_c, 1, 79, 66
2, 59244, Note_off_c, 1, 64, 64
2, 59244, Note_off_c, 1, 60, 64
2, 59252, Note_off_c, 1, 55, 64
2, 59344, Note_on_c, 1, 84, 62
2, 59356, Note_off_c, 1, 79, 64
2, 59360, Note_off_c, 1, 76, 64
2, 59388, Note_off_c, 1, 72, 64
2, 59448, Note_on_c, 1, 46, 71
2, 59448, Note_on_c, 1, 72, 65
2, 59448, Note_on_c, 1, 58, 61
2, 59472, Note_off_c, 1, 46, 64
2, 59476, Note_off_c, 1, 58, 64
2, 59556, Note_on_c, 1, 76, 60
2, 59572, Note_off_c, 1, 84, 64
2, 59672, Note_on_c, 1, 55, 66
2, 59672, Note_on_c, 1, 60, 57
2, 59672, Note_on_c, 1, 64, 57
2, 59676, Note_on_c, 1, 79, 63
2, 59680, Note_off_c, 1, 60, 64
2, 59692, Note_off_c, 1, 55, 64
2, 59692, Note_off_c, 1, 64, 64
2, 59776, Note_off_c, 1, 76, 64
2, 59784, Note_off_c, 1, 79, 64
2, 59788, Note_on_c, 1, 84, 63
2, 59816, Note_off_c, 1, 72, 64
2, 59892, Note_on_c, 1, 72, 59
2, 59896, Note_on_c, 1, 45, 51
2, 59896, Note_on_c, 1, 57, 67
2, 59904, Control_c, 1, 64, 127
2, 59928, Note_off_c, 1, 45, 64
2, 59932, Note_off_c, 1, 57, 64
2, 60008, Note_off_c, 1, 84, 64
2, 60008, Note_on_c, 1, 77, 63
2, 60116, Note_on_c, 1, 60, 44
2, 60116, Note_on_c, 1, 57, 45
2, 60120, Note_off_c, 1, 77, 64
2, 60124, Note_off_c, 1, 60, 64
2, 60124, Note_on_c, 1, 84, 68
2, 60124, Note_on_c, 1, 65, 44
2, 60132, Note_off_c, 1, 65, 64
2, 60136, Note_off_c, 1, 57, 64
2, 60228, Note_off_c, 1, 72, 64
2, 60232, Note_on_c, 1, 77, 73
2, 60324, Control_c, 1, 64, 0
2, 60344, Note_on_c, 1, 44, 54
2, 60344, Note_on_c, 1, 56, 50
2, 60348, Control_c, 1, 64, 127
2, 60352, Note_off_c, 1, 77, 64
2, 60364, Note_off_c, 1, 84, 64
2, 60364, Note_on_c, 1, 72, 75
2, 60376, Note_off_c, 1, 44, 64
2, 60392, Note_off_c, 1, 56, 64
2, 60476, Note_on_c, 1, 84, 90
2, 60604, Note_off_c, 1, 84, 64
2, 60612, Note_on_c, 1, 66, 60
2, 60612, Note_on_c, 1, 60, 64
2, 60616, Note_on_c, 1, 63, 51
2, 60620, Note_off_c, 1, 66, 64
2, 60620, Note_off_c, 1, 63, 64
2, 60624, Note_off_c, 1, 60, 64
2, 60716, Note_on_c, 1, 78, 75
2, 60728, Note_off_c, 1, 72, 64
2, 60736, Note_off_c, 1, 78, 64
2, 60844, Note_on_c, 1, 79, 88
2, 60848, Note_on_c, 1, 55, 71
2, 60848, Note_on_c, 1, 43, 70
2, 60848, Control_c, 1, 64, 0
2, 60876, Control_c, 1, 64, 127
2, 60880, Note_off_c, 1, 43, 64
2, 60900, Note_off_c, 1, 55, 64
2, 60968, Note_on_c, 1, 67, 75
2, 61024, Note_off_c, 1, 79, 64
2, 61076, Note_on_c, 1, 55, 65
2, 61076, Note_on_c, 1, 60, 62
2, 61084, Note_on_c, 1, 64, 64
2, 61084, Note_on_c, 1, 76, 80
2, 61096, Note_off_c, 1, 64, 64
2, 61100, Note_off_c, 1, 55, 64
2, 61100, Note_off_c, 1, 60, 64
2, 61184, Note_off_c, 1, 76, 64
2, 61192, Note_on_c, 1, 74, 75
2, 61212, Note_off_c, 1, 67, 64
2, 61216, Note_off_c, 1, 74, 64
2, 61296, Control_c, 1, 64, 0
2, 61312, Note_on_c, 1, 72, 80
2, 61312, Note_on_c, 1, 45, 60
2, 61312, Note_on_c, 1, 57, 62
2, 61324, Note_on_c, 1, 66, 62
2, 61324, Control_c, 1, 64, 127
2, 61364, Note_off_c, 1, 72, 64
2, 61372, Note_off_c, 1, 57, 64
2, 61376, Note_off_c, 1, 45, 64
2, 61388, Note_off_c, 1, 66, 64
2, 61508, Control_c, 1, 64, 0
2, 61556, Note_on_c, 1, 74, 73
2, 61564, Note_on_c, 1, 71, 64
2, 61564, Note_on_c, 1, 65, 62
2, 61564, Note_on_c, 1, 43, 64
2, 61564, Note_on_c, 1, 55, 58
2, 61564, Control_c, 1, 64, 127
2, 61592, Note_off_c, 1, 43, 64
2, 61604, Note_off_c, 1, 55, 64
2, 61608, Note_off_c, 1, 74, 64
2, 61624, Note_off_c, 1, 71, 64
2, 61624, Note_off_c, 1, 65, 64
2, 61776, Control_c, 1, 64, 0
2, 61824, Note_on_c, 1, 55, 58
2, 61824, Note_on_c, 1, 64, 61
2, 61824, Note_on_c, 1, 72, 62
2, 61828, Note_on_c, 1, 60, 57
2, 61828, Note_on_c, 1, 48, 36
2, 61836, Note_off_c, 1, 55, 64
2, 61852, Note_off_c, 1, 60, 64
2, 61856, Note_off_c, 1, 48, 64
2, 62104, Control_c, 1, 64, 127
2, 62148, Note_on_c, 1, 55, 57
2, 62156, Note_on_c, 1, 43, 35
2, 62164, Note_off_c, 1, 64, 64
2, 62172, Note_off_c, 1, 72, 64
2, 62176, Control_c, 1, 64, 0
2, 62188, Note_off_c, 1, 55, 64
2, 62196, Note_off_c, 1, 43, 64
2, 62524, Note_on_c, 1, 36, 102
2, 62524, Note_on_c, 1, 72, 107
2, 62524, Note_on_c, 1, 79, 101
2, 62524, Note_on_c, 1, 48, 111
2, 62524, Note_on_c, 1, 84, 110
2, 62524, Note_on_c, 1, 43, 107
2, 62524, Note_on_c, 1, 76, 111
2, 62532, Control_c, 1, 64, 127
2, 62536, Note_off_c, 1, 43, 64
2, 62544, Note_off_c, 1, 48, 64
2, 62548, Note_off_c, 1, 36, 64
2, 62556, Note_off_c, 1, 72, 64
2, 62556, Note_off_c, 1, 79, 64
2, 62556, Note_off_c, 1, 84, 64
2, 62556, Note_off_c, 1, 76, 64
2, 62792, Control_c, 1, 64, 0
2, 63264, Control_c, 1, 64, 127
2, 63288, Note_on_c, 1, 71, 51
2, 63288, Note_on_c, 1, 67, 48
2, 63292, Note_on_c, 1, 74, 62
2, 63292, Note_on_c, 1, 77, 68
2, 63316, Note_off_c, 1, 71, 64
2, 63324, Note_off_c, 1, 74, 64
2, 63324, Note_off_c, 1, 77, 64
2, 63332, Note_off_c, 1, 67, 64
2, 63568, Note_on_c, 1, 77, 81
2, 63572, Note_on_c, 1, 74, 72
2, 63572, Note_on_c, 1, 71, 66
2, 63572, Note_on_c, 1, 67, 61
2, 63604, Control_c, 1, 64, 0
2, 63636, Control_c, 1, 64, 127
2, 63824, Note_off_c, 1, 74, 64
2, 63832, Note_off_c, 1, 77, 64
2, 63836, Note_off_c, 1, 71, 64
2, 63836, Note_off_c, 1, 67, 64
2, 64104, Control_c, 1, 64, 0
2, 64124, Note_on_c, 1, 67, 53
2, 64128, Note_on_c, 1, 74, 66
2, 64132, Note_on_c, 1, 77, 68
2, 64132, Note_on_c, 1, 71, 58
2, 64152, Control_c, 1, 64, 127
2, 64200, Note_off_c, 1, 71, 64
2, 64204, Note_off_c, 1, 67, 64
2, 64208, Note_off_c, 1, 74, 64
2, 64216, Note_off_c, 1, 77, 64
2, 64384, Note_on_c, 1, 74, 69
2, 64392, Note_on_c, 1, 68, 52
2, 64392, Note_on_c, 1, 77, 73
2, 64396, Note_on_c, 1, 70, 50
2, 64448, Control_c, 1, 64, 0
2, 64464, Note_off_c, 1, 74, 64
2, 64464, Note_off_c, 1, 68, 64
2, 64468, Note_off_c, 1, 70, 64
2, 64472, Note_off_c, 1, 77, 64
2, 64636, Note_on_c, 1, 68, 65
2, 64636, Note_on_c, 1, 77, 80
2, 64636, Note_on_c, 1, 74, 71
2, 64636, Note_on_c, 1, 70, 67
2, 64648, Control_c, 1, 64, 127
2, 64728, Note_off_c, 1, 74, 64
2, 64748, Note_off_c, 1, 77, 64
2, 64760, Note_off_c, 1, 70, 64
2, 64764, Note_off_c, 1, 68, 64
2, 65112, Control_c, 1, 64, 0
2, 65128, Note_on_c, 1, 74, 65
2, 65128, Note_on_c, 1, 77, 75
2, 65128, Note_on_c, 1, 68, 50
2, 65128, Note_on_c, 1, 70, 49
2, 65132, Control_c, 1, 64, 127
2, 65188, Note_off_c, 1, 70, 64
2, 65192, Note_off_c, 1, 77, 64
2, 65192, Note_off_c, 1, 68, 64
2, 65196, Note_off_c, 1, 74, 64
2, 65388, Note_on_c, 1, 75, 61
2, 65392, Note_on_c, 1, 70, 52
2, 65392, Note_on_c, 1, 67, 43
2, 65416, Control_c, 1, 64, 0
2, 65504, Control_c, 1, 64, 127
2, 65600, Note_off_c, 1, 75, 64
2, 65644, Note_off_c, 1, 67, 64
2, 65652, Note_off_c, 1, 70, 64
2, 65668, Control_c, 1, 64, 0
2, 65956, Note_on_c, 1, 73, 60
2, 65964, Note_on_c, 1, 76, 65
2, 65964, Note_on_c, 1, 70, 50
2, 65964, Note_on_c, 1, 66, 42
2, 65984, Control_c, 1, 64, 127
2, 66248, Note_off_c, 1, 66, 64
2, 66248, Note_off_c, 1, 70, 64
2, 66252, Note_off_c, 1, 76, 64
2, 66256, Note_off_c, 1, 73, 64
2, 66324, Control_c, 1, 64, 0
2, 66596, Note_on_c, 1, 72, 57
2, 66596, Note_on_c, 1, 77, 63
2, 66608, Note_on_c, 1, 69, 45
2, 66608, Note_on_c, 1, 65, 35
2, 66608, Control_c, 1, 64, 127
2, 66668, Note_off_c, 1, 72, 64
2, 66672, Note_off_c, 1, 69, 64
2, 66676, Note_off_c, 1, 77, 64
2, 66676, Note_off_c, 1, 65, 64
2, 66944, Control_c, 1, 64, 0
2, 67288, Note_on_c, 1, 77, 107
2, 67296, Note_on_c, 1, 75, 85
2, 67296, Note_on_c, 1, 69, 107
2, 67296, Note_on_c, 1, 65, 94
2, 67296, Note_on_c, 1, 41, 94
2, 67304, Note_on_c, 1, 53, 111
2, 67316, Control_c, 1, 64, 127
2, 67448, Note_off_c, 1, 41, 64
2, 67452, Note_off_c, 1, 53, 64
2, 67616, Note_off_c, 1, 69, 64
2, 67624, Note_off_c, 1, 65, 64
2, 67624, Note_off_c, 1, 75, 64
2, 67624, Note_off_c, 1, 77, 64
2, 67696, Control_c, 1, 64, 0
2, 67876, Note_on_c, 1, 77, 107
2, 67876, Note_on_c, 1, 70, 90
2, 67876, Note_on_c, 1, 65, 94
2, 67884, Note_on_c, 1, 74, 107
2, 67884, Note_on_c, 1, 50, 88
2, 67884, Note_on_c, 1, 62, 73
2, 67888, Control_c, 1, 64, 127
2, 67904, Note_off_c, 1, 50, 64
2, 67908, Note_off_c, 1, 62, 64
2, 68004, Note_on_c, 1, 46, 90
2, 68004, Note_on_c, 1, 58, 80
2, 68076, Note_off_c, 1, 46, 64
2, 68076, Note_off_c, 1, 58, 64
2, 68116, Note_on_c, 1, 45, 85
2, 68116, Note_on_c, 1, 57, 85
2, 68132, Control_c, 1, 64, 0
2, 68140, Note_off_c, 1, 57, 64
2, 68144, Note_off_c, 1, 45, 64
2, 68232, Note_on_c, 1, 43, 85
2, 68232, Note_on_c, 1, 55, 88
2, 68252, Note_off_c, 1, 55, 64
2, 68256, Note_off_c, 1, 43, 64
2, 68352, Note_on_c, 1, 41, 90
2, 68352, Note_on_c, 1, 53, 90
2, 68364, Note_off_c, 1, 77, 0
2, 68364, Control_c, 1, 64, 127
2, 68368, Note_off_c, 1, 70, 0
2, 68368, Note_off_c, 1, 65, 0
2, 68368, Note_off_c, 1, 74, 0
2, 68376, Note_off_c, 1, 41, 64
2, 68376, Note_off_c, 1, 53, 64
2, 68436, Control_c, 1, 64, 0
2, 68456, Control_c, 1, 64, 127
2, 68468, Note_on_c, 1, 74, 94
2, 68468, Note_on_c, 1, 46, 62
2, 68468, Note_on_c, 1, 62, 82
2, 68476, Note_on_c, 1, 58, 80
2, 68492, Note_off_c, 1, 46, 64
2, 68492, Note_off_c, 1, 62, 64
2, 68496, Note_off_c, 1, 74, 64
2, 68496, Note_off_c, 1, 58, 64
2, 68584, Note_on_c, 1, 75, 90
2, 68584, Note_on_c, 1, 63, 90
2, 68584, Note_on_c, 1, 60, 73
2, 68584, Note_on_c, 1, 48, 80
2, 68612, Note_off_c, 1, 60, 64
2, 68628, Note_off_c, 1, 48, 64
2, 68632, Note_off_c, 1, 63, 64
2, 68652, Note_off_c, 1, 75, 64
2, 68672, Control_c, 1, 64, 0
2, 68684, Control_c, 1, 64, 127
2, 68688, Note_on_c, 1, 61, 80
2, 68688, Note_on_c, 1, 76, 90
2, 68696, Note_on_c, 1, 64, 88
2, 68696, Note_on_c, 1, 49, 73
2, 68728, Control_c, 1, 64, 127
2, 68736, Note_off_c, 1, 76, 64
2, 68736, Note_off_c, 1, 64, 64
2, 68740, Note_off_c, 1, 49, 64
2, 68752, Note_off_c, 1, 61, 64
2, 68812, Note_on_c, 1, 77, 88
2, 68812, Note_on_c, 1, 65, 90
2, 68812, Note_on_c, 1, 62, 77
2, 68812, Note_on_c, 1, 50, 85
2, 68816, Control_c, 1, 64, 0
2, 68904, Control_c, 1, 64, 127
2, 68920, Note_off_c, 1, 50, 64
2, 68932, Note_off_c, 1, 62, 64
2, 68936, Note_on_c, 1, 70, 70
2, 68936, Note_on_c, 1, 74, 77
2, 68940, Note_off_c, 1, 77, 64
2, 68960, Note_off_c, 1, 65, 64
2, 68960, Note_off_c, 1, 70, 64
2, 68960, Note_off_c, 1, 74, 64
2, 69048, Note_on_c, 1, 75, 70
2, 69052, Note_on_c, 1, 63, 64
2, 69052, Note_on_c, 1, 69, 88
2, 69052, Note_on_c, 1, 60, 70
2, 69052, Note_on_c, 1, 48, 70
2, 69052, Control_c, 1, 64, 0
2, 69056, Control_c, 1, 64, 127
2, 69092, Note_off_c, 1, 69, 64
2, 69100, Note_off_c, 1, 63, 64
2, 69112, Note_off_c, 1, 75, 64
2, 69160, Note_off_c, 1, 60, 64
2, 69164, Note_off_c, 1, 48, 64
2, 69172, Note_on_c, 1, 70, 77
2, 69176, Note_on_c, 1, 74, 102
2, 69176, Note_on_c, 1, 62, 80
2, 69184, Control_c, 1, 64, 0
2, 69284, Note_off_c, 1, 62, 64
2, 69288, Control_c, 1, 64, 127
2, 69300, Note_off_c, 1, 70, 64
2, 69304, Note_on_c, 1, 58, 85
2, 69304, Note_on_c, 1, 46, 80
2, 69308, Note_off_c, 1, 74, 64
2, 69316, Note_off_c, 1, 46, 64
2, 69324, Note_off_c, 1, 58, 64
2, 69416, Note_on_c, 1, 74, 98
2, 69536, Note_on_c, 1, 53, 75
2, 69536, Note_on_c, 1, 77, 102
2, 69544, Note_on_c, 1, 62, 64
2, 69544, Note_on_c, 1, 58, 68
2, 69556, Note_off_c, 1, 53, 64
2, 69556, Note_off_c, 1, 62, 64
2, 69556, Note_off_c, 1, 58, 64
2, 69664, Note_on_c, 1, 80, 88
2, 69668, Note_off_c, 1, 77, 64
2, 69752, Control_c, 1, 64, 0
2, 69788, Note_on_c, 1, 51, 107
2, 69792, Note_on_c, 1, 39, 111
2, 69792, Control_c, 1, 64, 127
2, 69804, Note_off_c, 1, 39, 64
2, 69812, Note_off_c, 1, 51, 64
2, 69816, Note_off_c, 1, 74, 64
2, 69836, Note_off_c, 1, 80, 0
2, 69916, Note_on_c, 1, 79, 94
2, 69916, Note_on_c, 1, 75, 77
2, 69928, Note_off_c, 1, 75, 64
2, 69936, Note_off_c, 1, 79, 64
2, 70028, Note_on_c, 1, 82, 98
2, 70032, Note_on_c, 1, 55, 85
2, 70032, Note_on_c, 1, 63, 64
2, 70032, Note_on_c, 1, 70, 94
2, 70032, Note_on_c, 1, 58, 70
2, 70036, Note_off_c, 1, 55, 64
2, 70040, Note_off_c, 1, 63, 64
2, 70040, Note_off_c, 1, 58, 64
2, 70128, Note_on_c, 1, 79, 102
2, 70136, Note_on_c, 1, 75, 88
2, 70140, Note_off_c, 1, 70, 64
2, 70148, Note_off_c, 1, 82, 64
2, 70160, Note_off_c, 1, 79, 64
2, 70160, Note_off_c, 1, 75, 64
2, 70216, Control_c, 1, 64, 0
2, 70248, Note_on_c, 1, 84, 98
2, 70252, Note_on_c, 1, 39, 107
2, 70252, Note_on_c, 1, 51, 98
2, 70252, Note_on_c, 1, 72, 94
2, 70252, Control_c, 1, 64, 127
2, 70264, Note_off_c, 1, 72, 64
2, 70268, Note_off_c, 1, 84, 64
2, 70364, Note_on_c, 1, 82, 98
2, 70368, Note_on_c, 1, 70, 94
2, 70380, Note_off_c, 1, 39, 64
2, 70380, Note_off_c, 1, 51, 64
2, 70472, Note_off_c, 1, 82, 64
2, 70480, Note_off_c, 1, 70, 64
2, 70484, Note_on_c, 1, 37, 102
2, 70484, Note_on_c, 1, 49, 102
2, 70488, Control_c, 1, 64, 0
2, 70600, Note_on_c, 1, 77, 102
2, 70604, Note_on_c, 1, 74, 94
2, 70604, Note_on_c, 1, 65, 98
2, 70604, Note_on_c, 1, 70, 94
2, 70616, Note_off_c, 1, 37, 64
2, 70636, Note_off_c, 1, 49, 64
2, 70708, Note_on_c, 1, 38, 88
2, 70712, Note_on_c, 1, 50, 90
2, 70712, Control_c, 1, 64, 127
2, 70724, Note_off_c, 1, 50, 64
2, 70732, Note_off_c, 1, 38, 64
2, 70936, Note_on_c, 1, 53, 88
2, 70936, Note_on_c, 1, 41, 80
2, 70956, Note_off_c, 1, 53, 64
2, 70956, Note_off_c, 1, 41, 64
2, 71048, Note_on_c, 1, 58, 82
2, 71048, Control_c, 1, 64, 0
2, 71052, Note_on_c, 1, 46, 90
2, 71052, Control_c, 1, 64, 127
2, 71080, Note_off_c, 1, 58, 64
2, 71080, Note_off_c, 1, 46, 64
2, 71168, Note_on_c, 1, 60, 85
2, 71172, Note_off_c, 1, 65, 0
2, 71172, Note_on_c, 1, 48, 85
2, 71176, Note_off_c, 1, 74, 0
2, 71184, Note_off_c, 1, 70, 0
2, 71184, Control_c, 1, 64, 0
2, 71192, Note_off_c, 1, 77, 64
2, 71284, Note_off_c, 1, 48, 64
2, 71284, Control_c, 1, 64, 127
2, 71292, Note_off_c, 1, 60, 64
2, 71292, Note_on_c, 1, 69, 80
2, 71404, Note_on_c, 1, 72, 82
2, 71408, Note_on_c, 1, 51, 71
2, 71408, Note_on_c, 1, 63, 75
2, 71428, Control_c, 1, 64, 0
2, 71528, Note_on_c, 1, 77, 85
2, 71528, Control_c, 1, 64, 127
2, 71552, Note_off_c, 1, 69, 64
2, 71552, Note_off_c, 1, 72, 64
2, 71552, Note_off_c, 1, 51, 64
2, 71556, Note_off_c, 1, 63, 64
2, 71560, Note_off_c, 1, 77, 64
2, 71652, Control_c, 1, 64, 0
2, 71668, Note_on_c, 1, 62, 80
2, 71668, Note_on_c, 1, 77, 107
2, 71668, Note_on_c, 1, 70, 94
2, 71672, Note_on_c, 1, 74, 107
2, 71672, Note_on_c, 1, 65, 111
2, 71672, Note_on_c, 1, 50, 90
2, 71672, Control_c, 1, 64, 127
2, 71700, Note_off_c, 1, 62, 64
2, 71712, Note_off_c, 1, 50, 64
2, 71788, Control_c, 1, 64, 0
2, 71792, Note_on_c, 1, 46, 90
2, 71792, Note_on_c, 1, 58, 88
2, 71792, Control_c, 1, 64, 127
2, 71884, Note_off_c, 1, 46, 64
2, 71884, Note_off_c, 1, 58, 64
2, 71916, Note_on_c, 1, 45, 90
2, 71916, Note_on_c, 1, 57, 80
2, 71916, Control_c, 1, 64, 0
2, 71928, Control_c, 1, 64, 127
2, 71956, Note_off_c, 1, 45, 64
2, 71956, Note_off_c, 1, 57, 64
2, 72004, Control_c, 1, 64, 0
2, 72024, Note_on_c, 1, 43, 102
2, 72024, Note_on_c, 1, 55, 85
2, 72064, Note_off_c, 1, 43, 64
2, 72064, Note_off_c, 1, 55, 64
2, 72152, Control_c, 1, 64, 127
2, 72164, Note_on_c, 1, 41, 88
2, 72164, Note_on_c, 1, 53, 107
2, 72176, Note_off_c, 1, 77, 64
2, 72176, Note_off_c, 1, 74, 64
2, 72180, Note_off_c, 1, 70, 64
2, 72184, Note_off_c, 1, 65, 64
2, 72188, Note_off_c, 1, 53, 64
2, 72196, Note_off_c, 1, 41, 64
2, 72276, Control_c, 1, 64, 0
2, 72292, Note_on_c, 1, 38, 80
2, 72292, Note_on_c, 1, 50, 85
2, 72292, Control_c, 1, 64, 127
2, 72316, Note_on_c, 1, 70, 77
2, 72316, Note_on_c, 1, 58, 85
2, 72356, Note_off_c, 1, 50, 64
2, 72376, Note_off_c, 1, 38, 64
2, 72376, Note_off_c, 1, 70, 64
2, 72380, Note_off_c, 1, 58, 64
2, 72424, Note_on_c, 1, 39, 64
2, 72428, Note_on_c, 1, 51, 82
2, 72428, Note_on_c, 1, 72, 94
2, 72428, Note_on_c, 1, 60, 88
2, 72452, Note_off_c, 1, 60, 64
2, 72472, Note_off_c, 1, 72, 64
2, 72488, Note_off_c, 1, 39, 64
2, 72492, Note_off_c, 1, 51, 64
2, 72532, Note_on_c, 1, 73, 77
2, 72532, Note_on_c, 1, 40, 71
2, 72532, Note_on_c, 1, 52, 77
2, 72532, Note_on_c, 1, 61, 102
2, 72532, Control_c, 1, 64, 0
2, 72544, Control_c, 1, 64, 127
2, 72572, Note_off_c, 1, 73, 0
2, 72576, Note_off_c, 1, 61, 0
2, 72580, Note_off_c, 1, 52, 0
2, 72584, Note_off_c, 1, 40, 0
2, 72652, Note_on_c, 1, 74, 94
2, 72652, Note_on_c, 1, 62, 85
2, 72652, Control_c, 1, 64, 0
2, 72656, Note_on_c, 1, 53, 85
2, 72656, Note_on_c, 1, 41, 85
2, 72724, Control_c, 1, 64, 127
2, 72764, Note_off_c, 1, 53, 64
2, 72772, Note_on_c, 1, 70, 73
2, 72780, Note_off_c, 1, 74, 64
2, 72780, Note_off_c, 1, 62, 64
2, 72780, Note_off_c, 1, 41, 64
2, 72796, Note_off_c, 1, 70, 64
2, 72864, Control_c, 1, 64, 0
2, 72872, Note_on_c, 1, 72, 88
2, 72876, Note_on_c, 1, 42, 70
2, 72876, Note_on_c, 1, 63, 73
2, 72876, Note_on_c, 1, 60, 82
2, 72876, Note_on_c, 1, 54, 85
2, 72876, Control_c, 1, 64, 127
2, 72896, Note_off_c, 1, 63, 64
2, 72896, Note_off_c, 1, 60, 64
2, 72900, Note_off_c, 1, 72, 64
2, 72924, Note_off_c, 1, 42, 64
2, 72924, Note_off_c, 1, 54, 64
2, 72992, Note_on_c, 1, 70, 73
2, 72992, Note_on_c, 1, 62, 90
2, 72992, Note_on_c, 1, 58, 71
2, 72996, Note_on_c, 1, 43, 70
2, 72996, Note_on_c, 1, 55, 77
2, 73004, Control_c, 1, 64, 0
2, 73056, Control_c, 1, 64, 127
2, 73064, Note_off_c, 1, 62, 64
2, 73072, Note_off_c, 1, 58, 64
2, 73104, Note_off_c, 1, 70, 64
2, 73128, Note_off_c, 1, 43, 64
2, 73128, Note_off_c, 1, 55, 64
2, 73212, Note_on_c, 1, 65, 88
2, 73212, Control_c, 1, 64, 0
2, 73216, Note_on_c, 1, 58, 80
2, 73224, Note_on_c, 1, 46, 71
2, 73224, Control_c, 1, 64, 127
2, 73248, Note_off_c, 1, 58, 64
2, 73248, Note_off_c, 1, 46, 64
2, 73284, Note_off_c, 1, 65, 64
2, 73344, Note_on_c, 1, 70, 90
2, 73344, Note_on_c, 1, 62, 85
2, 73348, Note_on_c, 1, 50, 107
2, 73348, Note_on_c, 1, 65, 98
2, 73348, Control_c, 1, 64, 0
2, 73368, Control_c, 1, 64, 127
2, 73412, Note_off_c, 1, 62, 64
2, 73420, Note_off_c, 1, 50, 64
2, 73452, Control_c, 1, 64, 0
2, 73464, Control_c, 1, 64, 127
2, 73472, Note_on_c, 1, 49, 90
2, 73472, Note_on_c, 1, 61, 88
2, 73500, Note_off_c, 1, 65, 64
2, 73508, Note_off_c, 1, 70, 64
2, 73556, Note_off_c, 1, 49, 64
2, 73556, Note_off_c, 1, 61, 64
2, 73596, Note_on_c, 1, 69, 88
2, 73596, Note_on_c, 1, 65, 82
2, 73596, Note_on_c, 1, 48, 80
2, 73596, Note_on_c, 1, 60, 88
2, 73604, Control_c, 1, 64, 0
2, 73716, Note_on_c, 1, 77, 88
2, 73716, Control_c, 1, 64, 127
2, 73728, Note_off_c, 1, 48, 64
2, 73744, Note_off_c, 1, 60, 64
2, 73764, Note_off_c, 1, 77, 64
2, 73768, Note_off_c, 1, 69, 64
2, 73780, Note_off_c, 1, 65, 64
2, 73848, Note_on_c, 1, 69, 77
2, 73848, Note_on_c, 1, 57, 64
2, 73848, Note_on_c, 1, 65, 75
2, 73848, Note_on_c, 1, 72, 73
2, 73848, Note_on_c, 1, 60, 63
2, 73852, Control_c, 1, 64, 0
2, 73860, Note_off_c, 1, 69, 64
2, 73860, Note_off_c, 1, 72, 64
2, 73868, Note_off_c, 1, 65, 64
2, 73872, Note_off_c, 1, 57, 64
2, 73880, Note_off_c, 1, 60, 64
2, 73968, Note_on_c, 1, 70, 82
2, 73968, Note_on_c, 1, 74, 93
2, 73968, Note_on_c, 1, 64, 77
2, 74084, Note_on_c, 1, 48, 80
2, 74088, Control_c, 1, 64, 127
2, 74104, Note_off_c, 1, 48, 64
2, 74116, Note_off_c, 1, 70, 0
2, 74116, Note_off_c, 1, 74, 0
2, 74196, Note_off_c, 1, 64, 0
2, 74196, Note_on_c, 1, 70, 70
2, 74228, Note_off_c, 1, 70, 64
2, 74312, Control_c, 1, 64, 0
2, 74316, Note_on_c, 1, 67, 75
2, 74316, Note_on_c, 1, 64, 65
2, 74316, Control_c, 1, 64, 127
2, 74324, Note_on_c, 1, 58, 53
2, 74324, Note_on_c, 1, 60, 61
2, 74356, Note_off_c, 1, 58, 64
2, 74360, Note_off_c, 1, 64, 64
2, 74364, Note_off_c, 1, 60, 64
2, 74376, Note_off_c, 1, 67, 64
2, 74544, Control_c, 1, 64, 0
2, 74552, Note_on_c, 1, 65, 76
2, 74564, Note_on_c, 1, 53, 60
2, 74564, Note_on_c, 1, 57, 60
2, 74568, Note_on_c, 1, 60, 53
2, 74568, Control_c, 1, 64, 127
2, 74604, Note_off_c, 1, 57, 64
2, 74608, Note_off_c, 1, 60, 64
2, 74612, Note_off_c, 1, 53, 64
2, 74772, Control_c, 1, 64, 0
2, 74788, Note_on_c, 1, 45, 82
2, 74796, Note_on_c, 1, 57, 73
2, 74796, Note_on_c, 1, 72, 85
2, 74804, Note_off_c, 1, 72, 64
2, 74852, Note_off_c, 1, 45, 64
2, 74860, Note_off_c, 1, 57, 64
2, 74916, Note_on_c, 1, 77, 102
2, 75016, Note_off_c, 1, 65, 64
2, 75028, Note_off_c, 1, 77, 64
2, 75028, Note_on_c, 1, 48, 94
2, 75028, Note_on_c, 1, 60, 94
2, 75028, Control_c, 1, 64, 127
2, 75104, Control_c, 1, 64, 0
2, 75116, Note_off_c, 1, 48, 64
2, 75132, Note_off_c, 1, 60, 64
2, 75152, Note_on_c, 1, 69, 102
2, 75156, Control_c, 1, 64, 127
2, 75224, Control_c, 1, 64, 0
2, 75268, Note_on_c, 1, 72, 117
2, 75272, Note_on_c, 1, 63, 85
2, 75272, Note_on_c, 1, 51, 88
2, 75384, Note_off_c, 1, 63, 64
2, 75384, Control_c, 1, 64, 127
2, 75388, Note_on_c, 1, 77, 117
2, 75392, Note_off_c, 1, 72, 64
2, 75392, Note_off_c, 1, 51, 64
2, 75408, Note_off_c, 1, 69, 64
2, 75416, Note_off_c, 1, 77, 64
2, 75512, Note_on_c, 1, 77, 107
2, 75512, Control_c, 1, 64, 0
2, 75516, Note_on_c, 1, 65, 107
2, 75516, Note_on_c, 1, 74, 117
2, 75516, Note_on_c, 1, 70, 102
2, 75516, Note_on_c, 1, 50, 102
2, 75524, Note_on_c, 1, 62, 90
2, 75528, Control_c, 1, 64, 127
2, 75556, Note_off_c, 1, 62, 64
2, 75564, Note_off_c, 1, 50, 64
2, 75632, Note_on_c, 1, 46, 98
2, 75632, Note_on_c, 1, 58, 102
2, 75712, Note_off_c, 1, 58, 64
2, 75716, Note_off_c, 1, 46, 64
2, 75748, Note_on_c, 1, 45, 94
2, 75748, Note_on_c, 1, 57, 90
2, 75756, Control_c, 1, 64, 0
2, 75772, Note_off_c, 1, 45, 64
2, 75772, Note_off_c, 1, 57, 64
2, 75852, Note_on_c, 1, 55, 85
2, 75852, Note_on_c, 1, 43, 94
2, 75872, Note_off_c, 1, 55, 64
2, 75876, Note_off_c, 1, 43, 64
2, 75968, Note_off_c, 1, 74, 64
2, 75968, Note_on_c, 1, 41, 73
2, 75968, Note_on_c, 1, 53, 98
2, 75968, Note_on_c, 1, 40, 71
2, 75968, Control_c, 1, 64, 127
2, 75972, Note_off_c, 1, 77, 64
2, 75976, Note_off_c, 1, 65, 64
2, 75976, Note_off_c, 1, 70, 64
2, 75988, Note_off_c, 1, 40, 64
2, 75992, Note_off_c, 1, 41, 64
2, 75992, Note_off_c, 1, 53, 64
2, 76072, Note_on_c, 1, 74, 102
2, 76072, Note_on_c, 1, 46, 73
2, 76072, Note_on_c, 1, 62, 85
2, 76084, Note_on_c, 1, 58, 90
2, 76096, Note_off_c, 1, 62, 64
2, 76120, Note_off_c, 1, 46, 64
2, 76124, Note_off_c, 1, 74, 64
2, 76128, Note_off_c, 1, 58, 64
2, 76184, Control_c, 1, 64, 0
2, 76188, Note_on_c, 1, 75, 90
2, 76188, Note_on_c, 1, 63, 90
2, 76196, Note_on_c, 1, 60, 80
2, 76204, Note_on_c, 1, 48, 68
2, 76204, Control_c, 1, 64, 127
2, 76236, Note_off_c, 1, 60, 64
2, 76244, Note_off_c, 1, 48, 64
2, 76248, Note_off_c, 1, 63, 64
2, 76272, Note_off_c, 1, 75, 64
2, 76284, Control_c, 1, 64, 0
2, 76308, Note_on_c, 1, 76, 82
2, 76308, Note_on_c, 1, 64, 90
2, 76308, Note_on_c, 1, 61, 94
2, 76308, Note_on_c, 1, 49, 80
2, 76308, Control_c, 1, 64, 127
2, 76340, Note_off_c, 1, 64, 64
2, 76352, Note_off_c, 1, 76, 64
2, 76368, Note_off_c, 1, 49, 64
2, 76376, Note_off_c, 1, 61, 64
2, 76432, Note_on_c, 1, 62, 80
2, 76432, Note_on_c, 1, 77, 94
2, 76432, Note_on_c, 1, 50, 94
2, 76432, Note_on_c, 1, 65, 88
2, 76444, Control_c, 1, 64, 0
2, 76544, Control_c, 1, 64, 127
2, 76552, Note_off_c, 1, 62, 64
2, 76552, Note_off_c, 1, 50, 64
2, 76552, Note_on_c, 1, 70, 73
2, 76552, Note_on_c, 1, 74, 82
2, 76556, Note_off_c, 1, 77, 64
2, 76572, Note_off_c, 1, 65, 64
2, 76576, Note_off_c, 1, 70, 64
2, 76576, Note_off_c, 1, 74, 64
2, 76664, Note_on_c, 1, 75, 75
2, 76664, Note_on_c, 1, 63, 65
2, 76668, Note_on_c, 1, 69, 90
2, 76668, Note_on_c, 1, 48, 80
2, 76668, Note_on_c, 1, 60, 68
2, 76668, Control_c, 1, 64, 0
2, 76684, Control_c, 1, 64, 127
2, 76712, Note_off_c, 1, 75, 64
2, 76712, Note_off_c, 1, 63, 64
2, 76712, Note_off_c, 1, 69, 64
2, 76776, Note_off_c, 1, 60, 64
2, 76780, Note_off_c, 1, 48, 64
2, 76784, Note_on_c, 1, 70, 82
2, 76784, Note_on_c, 1, 74, 107
2, 76788, Note_on_c, 1, 62, 85
2, 76808, Control_c, 1, 64, 0
2, 76896, Control_c, 1, 64, 127
2, 76900, Note_off_c, 1, 62, 0
2, 76904, Note_on_c, 1, 46, 82
2, 76904, Note_on_c, 1, 58, 107
2, 76912, Note_off_c, 1, 70, 0
2, 76916, Note_off_c, 1, 74, 0
2, 76924, Note_off_c, 1, 46, 64
2, 76928, Note_off_c, 1, 58, 64
2, 77024, Note_on_c, 1, 74, 98
2, 77132, Note_on_c, 1, 53, 77
2, 77136, Note_on_c, 1, 62, 75
2, 77136, Note_on_c, 1, 58, 73
2, 77136, Note_on_c, 1, 77, 102
2, 77148, Note_off_c, 1, 62, 64
2, 77148, Note_off_c, 1, 58, 64
2, 77152, Note_off_c, 1, 53, 64
2, 77236, Note_off_c, 1, 77, 64
2, 77248, Note_on_c, 1, 80, 111
2, 77272, Control_c, 1, 64, 0
2, 77364, Note_on_c, 1, 51, 111
2, 77368, Note_on_c, 1, 39, 111
2, 77368, Control_c, 1, 64, 127
2, 77376, Note_off_c, 1, 74, 64
2, 77376, Note_off_c, 1, 39, 64
2, 77384, Note_off_c, 1, 51, 64
2, 77388, Note_off_c, 1, 80, 64
2, 77472, Note_on_c, 1, 79, 90
2, 77484, Note_on_c, 1, 75, 80
2, 77492, Note_off_c, 1, 75, 64
2, 77500, Note_off_c, 1, 79, 64
2, 77588, Note_on_c, 1, 82, 111
2, 77592, Note_on_c, 1, 55, 88
2, 77592, Note_on_c, 1, 63, 66
2, 77592, Note_on_c, 1, 70, 98
2, 77592, Note_on_c, 1, 58, 73
2, 77600, Note_off_c, 1, 55, 64
2, 77600, Note_off_c, 1, 63, 64
2, 77600, Note_off_c, 1, 58, 64
2, 77692, Note_on_c, 1, 75, 85
2, 77704, Note_on_c, 1, 79, 90
2, 77712, Note_off_c, 1, 82, 64
2, 77712, Note_off_c, 1, 70, 64
2, 77724, Note_off_c, 1, 75, 64
2, 77752, Note_off_c, 1, 79, 64
2, 77776, Control_c, 1, 64, 0
2, 77808, Control_c, 1, 64, 127
2, 77816, Note_on_c, 1, 84, 94
2, 77824, Note_on_c, 1, 72, 88
2, 77824, Note_on_c, 1, 51, 107
2, 77828, Note_on_c, 1, 39, 111
2, 77832, Note_off_c, 1, 72, 64
2, 77836, Note_off_c, 1, 84, 64
2, 77872, Note_off_c, 1, 39, 64
2, 77892, Note_off_c, 1, 51, 64
2, 77944, Note_on_c, 1, 82, 98
2, 77944, Note_on_c, 1, 70, 102
2, 78028, Note_off_c, 1, 82, 64
2, 78032, Note_off_c, 1, 70, 64
2, 78056, Note_on_c, 1, 43, 80
2, 78056, Note_on_c, 1, 55, 98
2, 78144, Note_off_c, 1, 43, 64
2, 78148, Note_off_c, 1, 55, 64
2, 78172, Note_on_c, 1, 74, 99
2, 78172, Note_on_c, 1, 77, 107
2, 78172, Note_on_c, 1, 70, 90
2, 78176, Note_on_c, 1, 65, 94
2, 78284, Control_c, 1, 64, 0
2, 78292, Note_on_c, 1, 46, 107
2, 78292, Note_on_c, 1, 58, 114
2, 78312, Control_c, 1, 64, 127
2, 78352, Note_off_c, 1, 70, 0
2, 78352, Note_off_c, 1, 74, 0
2, 78356, Note_off_c, 1, 65, 0
2, 78360, Note_off_c, 1, 77, 0
2, 78396, Note_on_c, 1, 74, 107
2, 78424, Note_off_c, 1, 46, 64
2, 78424, Note_off_c, 1, 58, 64
2, 78512, Note_on_c, 1, 77, 107
2, 78516, Note_on_c, 1, 44, 98
2, 78524, Note_on_c, 1, 56, 98
2, 78524, Control_c, 1, 64, 0
2, 78624, Control_c, 1, 64, 127
2, 78636, Note_on_c, 1, 65, 85
2, 78644, Note_off_c, 1, 74, 64
2, 78648, Note_off_c, 1, 44, 64
2, 78656, Note_off_c, 1, 56, 64
2, 78656, Note_off_c, 1, 65, 64
2, 78676, Note_off_c, 1, 77, 64
2, 78748, Note_on_c, 1, 70, 90
2, 78748, Note_on_c, 1, 55, 75
2, 78748, Note_on_c, 1, 43, 77
2, 78752, Control_c, 1, 64, 0
2, 78864, Note_on_c, 1, 74, 102
2, 78868, Control_c, 1, 64, 127
2, 78880, Note_off_c, 1, 55, 64
2, 78888, Note_off_c, 1, 43, 64
2, 78976, Note_on_c, 1, 77, 102
2, 78976, Note_on_c, 1, 41, 90
2, 78976, Note_on_c, 1, 53, 98
2, 78988, Control_c, 1, 64, 0
2, 78992, Note_off_c, 1, 74, 64
2, 79084, Note_off_c, 1, 53, 64
2, 79088, Note_off_c, 1, 77, 64
2, 79088, Note_on_c, 1, 80, 98
2, 79100, Note_off_c, 1, 41, 64
2, 79204, Note_on_c, 1, 39, 111
2, 79204, Note_on_c, 1, 51, 111
2, 79208, Control_c, 1, 64, 127
2, 79224, Note_off_c, 1, 39, 64
2, 79224, Note_off_c, 1, 51, 64
2, 79228, Note_off_c, 1, 70, 64
2, 79232, Note_off_c, 1, 80, 64
2, 79308, Note_on_c, 1, 79, 107
2, 79312, Note_on_c, 1, 75, 77
2, 79332, Note_off_c, 1, 75, 64
2, 79340, Note_off_c, 1, 79, 64
2, 79428, Note_on_c, 1, 55, 88
2, 79432, Note_on_c, 1, 82, 117
2, 79432, Note_on_c, 1, 63, 63
2, 79432, Note_on_c, 1, 70, 94
2, 79432, Note_on_c, 1, 58, 71
2, 79444, Note_off_c, 1, 63, 64
2, 79444, Note_off_c, 1, 58, 64
2, 79448, Note_off_c, 1, 55, 64
2, 79544, Note_on_c, 1, 79, 98
2, 79544, Note_on_c, 1, 75, 80
2, 79552, Note_off_c, 1, 70, 64
2, 79564, Note_off_c, 1, 82, 64
2, 79584, Note_off_c, 1, 75, 64
2, 79596, Note_off_c, 1, 79, 64
2, 79644, Control_c, 1, 64, 0
2, 79652, Note_on_c, 1, 84, 102
2, 79656, Note_on_c, 1, 72, 98
2, 79668, Note_on_c, 1, 51, 90
2, 79668, Note_on_c, 1, 39, 102
2, 79668, Control_c, 1, 64, 127
2, 79676, Note_off_c, 1, 72, 64
2, 79680, Note_off_c, 1, 84, 64
2, 79784, Note_on_c, 1, 82, 98
2, 79788, Note_on_c, 1, 70, 90
2, 79792, Note_off_c, 1, 39, 64
2, 79796, Note_off_c, 1, 51, 64
2, 79804, Note_off_c, 1, 82, 64
2, 79808, Note_off_c, 1, 70, 64
2, 79904, Note_on_c, 1, 37, 111
2, 79904, Note_on_c, 1, 49, 107
2, 79916, Control_c, 1, 64, 0
2, 80012, Control_c, 1, 64, 127
2, 80028, Note_off_c, 1, 37, 64
2, 80028, Note_on_c, 1, 77, 102
2, 80028, Note_on_c, 1, 74, 107
2, 80028, Note_on_c, 1, 65, 94
2, 80028, Note_on_c, 1, 70, 85
2, 80036, Note_off_c, 1, 49, 64
2, 80140, Note_off_c, 1, 70, 64
2, 80144, Note_on_c, 1, 50, 90
2, 80148, Note_off_c, 1, 74, 64
2, 80148, Note_on_c, 1, 38, 102
2, 80152, Control_c, 1, 64, 0
2, 80248, Control_c, 1, 64, 127
2, 80252, Note_off_c, 1, 50, 64
2, 80256, Note_on_c, 1, 74, 94
2, 80256, Note_on_c, 1, 70, 88
2, 80260, Note_off_c, 1, 38, 64
2, 80268, Note_off_c, 1, 77, 64
2, 80268, Note_off_c, 1, 65, 64
2, 80284, Note_off_c, 1, 70, 64
2, 80300, Note_off_c, 1, 74, 64
2, 80364, Note_on_c, 1, 70, 98
2, 80364, Note_on_c, 1, 77, 102
2, 80368, Note_on_c, 1, 74, 105
2, 80368, Note_on_c, 1, 65, 102
2, 80368, Note_on_c, 1, 44, 90
2, 80372, Note_on_c, 1, 32, 100
2, 80372, Control_c, 1, 64, 0
2, 80376, Note_off_c, 1, 70, 64
2, 80388, Note_off_c, 1, 74, 64
2, 80388, Note_off_c, 1, 65, 64
2, 80396, Note_off_c, 1, 77, 64
2, 80508, Note_off_c, 1, 44, 64
2, 80512, Note_on_c, 1, 71, 110
2, 80516, Note_on_c, 1, 67, 90
2, 80516, Note_on_c, 1, 79, 108
2, 80516, Note_on_c, 1, 74, 107
2, 80524, Note_off_c, 1, 32, 64
2, 80624, Note_on_c, 1, 31, 102
2, 80624, Note_on_c, 1, 43, 102
2, 80628, Control_c, 1, 64, 127
2, 80636, Note_off_c, 1, 31, 64
2, 80652, Note_off_c, 1, 43, 64
2, 80668, Note_off_c, 1, 79, 64
2, 80716, Note_off_c, 1, 71, 64
2, 80716, Note_off_c, 1, 74, 64
2, 80744, Note_on_c, 1, 77, 94
2, 80768, Note_off_c, 1, 67, 64
2, 80856, Note_on_c, 1, 55, 75
2, 80864, Note_on_c, 1, 59, 80
2, 80864, Note_on_c, 1, 74, 98
2, 80864, Note_on_c, 1, 62, 82
2, 80864, Note_on_c, 1, 65, 61
2, 80868, Note_off_c, 1, 55, 64
2, 80872, Note_off_c, 1, 65, 64
2, 80884, Note_off_c, 1, 59, 64
2, 80884, Note_off_c, 1, 62, 64
2, 80972, Note_on_c, 1, 71, 88
2, 80976, Note_off_c, 1, 77, 64
2, 80976, Note_off_c, 1, 74, 64
2, 80996, Note_off_c, 1, 71, 64
2, 81084, Note_on_c, 1, 72, 94
2, 81084, Note_on_c, 1, 48, 75
2, 81084, Note_on_c, 1, 55, 98
2, 81088, Note_on_c, 1, 58, 75
2, 81088, Note_on_c, 1, 64, 77
2, 81088, Note_on_c, 1, 62, 65
2, 81088, Control_c, 1, 64, 0
2, 81092, Note_off_c, 1, 62, 64
2, 81128, Control_c, 1, 64, 127
2, 81152, Note_off_c, 1, 48, 64
2, 81156, Note_off_c, 1, 55, 64
2, 81160, Note_off_c, 1, 58, 64
2, 81188, Note_off_c, 1, 64, 64
2, 81204, Note_on_c, 1, 67, 82
2, 81276, Note_off_c, 1, 67, 64
2, 81284, Note_off_c, 1, 72, 64
2, 81312, Note_on_c, 1, 70, 84
2, 81312, Note_on_c, 1, 60, 62
2, 81316, Note_on_c, 1, 55, 73
2, 81316, Note_on_c, 1, 64, 65
2, 81316, Control_c, 1, 64, 0
2, 81348, Control_c, 1, 64, 127
2, 81368, Note_off_c, 1, 55, 64
2, 81368, Note_off_c, 1, 64, 64
2, 81376, Note_off_c, 1, 60, 64
2, 81384, Note_off_c, 1, 70, 64
2, 81532, Note_on_c, 1, 69, 82
2, 81536, Note_on_c, 1, 53, 60
2, 81536, Note_on_c, 1, 60, 49
2, 81544, Note_on_c, 1, 63, 34
2, 81544, Control_c, 1, 64, 0
2, 81620, Note_off_c, 1, 60, 64
2, 81624, Note_off_c, 1, 53, 64
2, 81628, Note_off_c, 1, 63, 64
2, 81628, Control_c, 1, 64, 127
2, 81656, Note_on_c, 1, 77, 84
2, 81768, Note_off_c, 1, 77, 64
2, 81768, Note_on_c, 1, 53, 58
2, 81768, Note_on_c, 1, 57, 57
2, 81768, Note_on_c, 1, 63, 45
2, 81772, Note_on_c, 1, 75, 87
2, 81772, Control_c, 1, 64, 0
2, 81796, Note_off_c, 1, 69, 64
2, 81836, Control_c, 1, 64, 127
2, 81860, Note_off_c, 1, 53, 64
2, 81868, Note_off_c, 1, 63, 64
2, 81876, Note_off_c, 1, 57, 64
2, 81884, Note_off_c, 1, 75, 64
2, 81892, Note_on_c, 1, 72, 89
2, 81912, Note_off_c, 1, 72, 64
2, 82032, Note_on_c, 1, 70, 80
2, 82036, Note_on_c, 1, 62, 56
2, 82044, Note_on_c, 1, 58, 48
2, 82044, Control_c, 1, 64, 0
2, 82068, Control_c, 1, 64, 127
2, 82100, Note_off_c, 1, 62, 64
2, 82108, Note_off_c, 1, 58, 64
2, 82228, Control_c, 1, 64, 0
2, 82252, Note_on_c, 1, 41, 80
2, 82252, Note_on_c, 1, 53, 82
2, 82252, Control_c, 1, 64, 127
2, 82296, Note_off_c, 1, 41, 64
2, 82312, Note_off_c, 1, 53, 64
2, 82364, Control_c, 1, 64, 0
2, 82368, Note_on_c, 1, 55, 80
2, 82372, Note_on_c, 1, 43, 84
2, 82376, Control_c, 1, 64, 127
2, 82420, Note_off_c, 1, 43, 64
2, 82428, Note_off_c, 1, 55, 64
2, 82468, Control_c, 1, 64, 0
2, 82488, Note_on_c, 1, 45, 90
2, 82488, Note_on_c, 1, 57, 88
2, 82492, Control_c, 1, 64, 127
2, 82540, Note_off_c, 1, 57, 0
2, 82548, Note_off_c, 1, 45, 0
2, 82588, Control_c, 1, 64, 0
2, 82604, Note_on_c, 1, 46, 98
2, 82604, Note_on_c, 1, 58, 96
2, 82608, Control_c, 1, 64, 127
2, 82668, Note_off_c, 1, 46, 64
2, 82672, Note_off_c, 1, 58, 64
2, 82716, Control_c, 1, 64, 0
2, 82724, Note_on_c, 1, 48, 88
2, 82724, Note_on_c, 1, 60, 90
2, 82752, Control_c, 1, 64, 127
2, 82760, Note_off_c, 1, 70, 0
2, 82788, Note_off_c, 1, 48, 64
2, 82788, Note_off_c, 1, 60, 64
2, 82828, Control_c, 1, 64, 0
2, 82848, Note_on_c, 1, 61, 94
2, 82848, Note_on_c, 1, 49, 80
2, 82848, Control_c, 1, 64, 127
2, 82900, Note_off_c, 1, 49, 64
2, 82912, Note_off_c, 1, 61, 64
2, 82944, Control_c, 1, 64, 0
2, 82988, Note_on_c, 1, 77, 107
2, 82988, Note_on_c, 1, 74, 111
2, 82988, Note_on_c, 1, 70, 94
2, 82988, Note_on_c, 1, 65, 102
2, 82988, Note_on_c, 1, 50, 111
2, 82992, Note_on_c, 1, 62, 107
2, 83004, Control_c, 1, 64, 127
2, 83012, Note_off_c, 1, 62, 64
2, 83016, Note_off_c, 1, 50, 64
2, 83108, Note_on_c, 1, 46, 113
2, 83108, Note_on_c, 1, 58, 102
2, 83188, Note_off_c, 1, 46, 64
2, 83188, Note_off_c, 1, 58, 64
2, 83212, Control_c, 1, 64, 0
2, 83216, Note_on_c, 1, 45, 98
2, 83216, Note_on_c, 1, 57, 102
2, 83228, Control_c, 1, 64, 127
2, 83248, Note_off_c, 1, 57, 64
2, 83264, Note_off_c, 1, 45, 64
2, 83324, Note_on_c, 1, 43, 90
2, 83324, Note_on_c, 1, 55, 102
2, 83352, Note_off_c, 1, 55, 64
2, 83356, Note_off_c, 1, 43, 64
2, 83364, Control_c, 1, 64, 0
2, 83432, Note_on_c, 1, 41, 107
2, 83432, Control_c, 1, 64, 127
2, 83436, Note_off_c, 1, 77, 64
2, 83436, Note_off_c, 1, 74, 64
2, 83436, Note_off_c, 1, 70, 64
2, 83440, Note_off_c, 1, 65, 64
2, 83444, Note_on_c, 1, 53, 117
2, 83456, Note_off_c, 1, 41, 64
2, 83456, Note_off_c, 1, 53, 64
2, 83536, Note_on_c, 1, 46, 94
2, 83544, Note_on_c, 1, 58, 88
2, 83544, Note_on_c, 1, 74, 111
2, 83548, Note_on_c, 1, 62, 88
2, 83556, Note_off_c, 1, 62, 64
2, 83568, Note_off_c, 1, 74, 64
2, 83584, Note_off_c, 1, 46, 64
2, 83596, Note_off_c, 1, 58, 64
2, 83636, Note_on_c, 1, 75, 98
2, 83636, Note_on_c, 1, 63, 102
2, 83636, Note_on_c, 1, 48, 88
2, 83648, Note_on_c, 1, 60, 88
2, 83688, Note_off_c, 1, 63, 64
2, 83688, Note_off_c, 1, 48, 64
2, 83688, Note_off_c, 1, 60, 64
2, 83696, Note_off_c, 1, 75, 64
2, 83744, Note_on_c, 1, 76, 85
2, 83744, Note_on_c, 1, 49, 90
2, 83744, Note_on_c, 1, 64, 90
2, 83748, Note_on_c, 1, 61, 98
2, 83764, Note_off_c, 1, 64, 64
2, 83768, Note_off_c, 1, 76, 64
2, 83788, Note_off_c, 1, 49, 64
2, 83788, Note_off_c, 1, 61, 64
2, 83852, Control_c, 1, 64, 0
2, 83856, Note_on_c, 1, 50, 107
2, 83856, Note_on_c, 1, 77, 107
2, 83856, Note_on_c, 1, 62, 107
2, 83868, Note_on_c, 1, 65, 98
2, 83892, Control_c, 1, 64, 127
2, 83968, Note_off_c, 1, 50, 0
2, 83968, Note_off_c, 1, 62, 0
2, 83984, Note_off_c, 1, 77, 0
2, 83984, Note_on_c, 1, 70, 73
2, 83984, Note_on_c, 1, 74, 85
2, 83996, Note_off_c, 1, 70, 64
2, 84000, Note_off_c, 1, 65, 0
2, 84004, Note_off_c, 1, 74, 64
2, 84084, Note_on_c, 1, 75, 75
2, 84088, Note_on_c, 1, 63, 68
2, 84088, Note_on_c, 1, 69, 98
2, 84088, Note_on_c, 1, 48, 94
2, 84096, Note_on_c, 1, 60, 107
2, 84096, Control_c, 1, 64, 0
2, 84112, Note_off_c, 1, 69, 64
2, 84112, Control_c, 1, 64, 127
2, 84132, Note_off_c, 1, 75, 64
2, 84140, Note_off_c, 1, 63, 64
2, 84196, Note_off_c, 1, 60, 64
2, 84208, Note_off_c, 1, 48, 64
2, 84212, Note_on_c, 1, 74, 90
2, 84216, Note_on_c, 1, 70, 73
2, 84216, Note_on_c, 1, 62, 82
2, 84304, Note_off_c, 1, 62, 64
2, 84312, Control_c, 1, 64, 0
2, 84316, Note_off_c, 1, 70, 64
2, 84328, Note_on_c, 1, 46, 118
2, 84328, Note_on_c, 1, 58, 111
2, 84328, Control_c, 1, 64, 127
2, 84336, Note_off_c, 1, 74, 64
2, 84372, Note_off_c, 1, 46, 64
2, 84380, Note_off_c, 1, 58, 64
2, 84444, Note_on_c, 1, 74, 102
2, 84548, Note_on_c, 1, 77, 102
2, 84556, Note_on_c, 1, 62, 75
2, 84556, Note_on_c, 1, 53, 94
2, 84556, Note_on_c, 1, 58, 71
2, 84564, Note_off_c, 1, 58, 64
2, 84568, Note_off_c, 1, 62, 64
2, 84568, Note_off_c, 1, 53, 64
2, 84672, Note_on_c, 1, 80, 98
2, 84676, Note_off_c, 1, 77, 64
2, 84748, Control_c, 1, 64, 0
2, 84784, Control_c, 1, 64, 127
2, 84788, Note_on_c, 1, 51, 118
2, 84788, Note_on_c, 1, 39, 113
2, 84800, Note_off_c, 1, 51, 64
2, 84800, Note_off_c, 1, 39, 64
2, 84804, Note_off_c, 1, 74, 64
2, 84812, Note_off_c, 1, 80, 64
2, 84908, Note_on_c, 1, 79, 90
2, 84912, Note_on_c, 1, 75, 77
2, 84924, Note_off_c, 1, 75, 64
2, 84936, Note_off_c, 1, 79, 64
2, 85024, Note_on_c, 1, 55, 85
2, 85024, Note_on_c, 1, 63, 65
2, 85024, Note_on_c, 1, 70, 102
2, 85024, Note_on_c, 1, 82, 114
2, 85024, Note_on_c, 1, 58, 73
2, 85032, Note_off_c, 1, 55, 64
2, 85036, Note_off_c, 1, 63, 64
2, 85036, Note_off_c, 1, 58, 64
2, 85132, Note_on_c, 1, 79, 94
2, 85136, Note_on_c, 1, 75, 85
2, 85144, Note_off_c, 1, 82, 64
2, 85148, Note_off_c, 1, 70, 64
2, 85160, Note_off_c, 1, 75, 64
2, 85180, Note_off_c, 1, 79, 64
2, 85212, Control_c, 1, 64, 0
2, 85244, Note_on_c, 1, 84, 107
2, 85248, Note_on_c, 1, 72, 88
2, 85248, Note_on_c, 1, 39, 117
2, 85248, Note_on_c, 1, 51, 111
2, 85248, Control_c, 1, 64, 127
2, 85268, Note_off_c, 1, 84, 64
2, 85268, Note_off_c, 1, 72, 64
2, 85364, Note_on_c, 1, 82, 111
2, 85364, Note_on_c, 1, 70, 102
2, 85372, Note_off_c, 1, 39, 0
2, 85372, Note_off_c, 1, 51, 0
2, 85384, Note_off_c, 1, 70, 64
2, 85388, Note_off_c, 1, 82, 64
2, 85468, Note_on_c, 1, 37, 107
2, 85472, Note_on_c, 1, 49, 111
2, 85476, Control_c, 1, 64, 0
2, 85508, Control_c, 1, 64, 127
2, 85560, Note_off_c, 1, 37, 64
2, 85576, Note_off_c, 1, 49, 64
2, 85576, Note_on_c, 1, 74, 107
2, 85576, Note_on_c, 1, 77, 102
2, 85584, Note_on_c, 1, 70, 98
2, 85584, Note_on_c, 1, 65, 98
2, 85676, Control_c, 1, 64, 0
2, 85688, Note_on_c, 1, 38, 94
2, 85692, Note_on_c, 1, 50, 107
2, 85704, Control_c, 1, 64, 127
2, 85736, Note_off_c, 1, 38, 64
2, 85740, Note_off_c, 1, 50, 64
2, 85904, Control_c, 1, 64, 0
2, 85904, Control_c, 1, 64, 127
2, 85908, Note_on_c, 1, 41, 85
2, 85908, Note_on_c, 1, 53, 94
2, 85932, Note_off_c, 1, 41, 64
2, 85936, Note_off_c, 1, 53, 64
2, 86032, Note_on_c, 1, 46, 100
2, 86032, Note_on_c, 1, 58, 94
2, 86052, Note_off_c, 1, 46, 64
2, 86060, Note_off_c, 1, 58, 64
2, 86136, Note_on_c, 1, 48, 102
2, 86136, Note_on_c, 1, 60, 102
2, 86144, Note_off_c, 1, 65, 64
2, 86144, Control_c, 1, 64, 0
2, 86148, Note_off_c, 1, 70, 64
2, 86156, Note_off_c, 1, 74, 64
2, 86188, Note_off_c, 1, 77, 64
2, 86216, Control_c, 1, 64, 127
2, 86236, Note_on_c, 1, 69, 90
2, 86240, Note_off_c, 1, 48, 64
2, 86248, Note_off_c, 1, 60, 64
2, 86368, Note_on_c, 1, 63, 107
2, 86372, Note_on_c, 1, 51, 102
2, 86372, Note_on_c, 1, 72, 95
2, 86388, Control_c, 1, 64, 0
2, 86504, Control_c, 1, 64, 127
2, 86536, Note_on_c, 1, 77, 100
2, 86540, Note_off_c, 1, 63, 64
2, 86540, Note_off_c, 1, 51, 64
2, 86544, Note_off_c, 1, 72, 64
2, 86560, Note_off_c, 1, 69, 64
2, 86576, Note_off_c, 1, 77, 64
2, 86692, Control_c, 1, 64, 0
2, 86696, Note_on_c, 1, 50, 107
2, 86708, Note_on_c, 1, 62, 111
2, 86708, Note_on_c, 1, 70, 88
2, 86708, Note_on_c, 1, 65, 88
2, 86712, Note_on_c, 1, 77, 98
2, 86712, Note_on_c, 1, 74, 94
2, 86732, Control_c, 1, 64, 127
2, 86768, Note_off_c, 1, 62, 64
2, 86788, Note_off_c, 1, 50, 64
2, 86836, Control_c, 1, 64, 0
2, 86848, Note_on_c, 1, 46, 108
2, 86848, Note_on_c, 1, 58, 102
2, 86848, Control_c, 1, 64, 127
2, 86936, Note_off_c, 1, 46, 64
2, 86940, Note_off_c, 1, 58, 64
2, 86964, Control_c, 1, 64, 0
2, 86976, Note_on_c, 1, 45, 111
2, 86976, Note_on_c, 1, 57, 98
2, 86988, Control_c, 1, 64, 127
2, 87020, Note_off_c, 1, 57, 64
2, 87024, Note_off_c, 1, 45, 64
2, 87072, Control_c, 1, 64, 0
2, 87076, Note_on_c, 1, 43, 111
2, 87088, Note_on_c, 1, 55, 102
2, 87128, Note_off_c, 1, 43, 64
2, 87132, Note_off_c, 1, 55, 64
2, 87192, Control_c, 1, 64, 127
2, 87204, Note_off_c, 1, 77, 64
2, 87208, Note_off_c, 1, 70, 64
2, 87208, Note_off_c, 1, 65, 64
2, 87208, Note_off_c, 1, 74, 64
2, 87208, Note_on_c, 1, 53, 117
2, 87208, Note_on_c, 1, 41, 111
2, 87220, Note_off_c, 1, 53, 64
2, 87228, Note_off_c, 1, 41, 64
2, 87292, Control_c, 1, 64, 0
2, 87304, Note_on_c, 1, 58, 85
2, 87308, Note_on_c, 1, 70, 80
2, 87308, Note_on_c, 1, 38, 107
2, 87308, Note_on_c, 1, 50, 102
2, 87316, Control_c, 1, 64, 127
2, 87332, Note_off_c, 1, 58, 64
2, 87332, Note_off_c, 1, 70, 64
2, 87368, Note_off_c, 1, 50, 64
2, 87376, Note_off_c, 1, 38, 64
2, 87412, Control_c, 1, 64, 0
2, 87428, Note_on_c, 1, 39, 88
2, 87428, Note_on_c, 1, 72, 98
2, 87428, Note_on_c, 1, 51, 107
2, 87428, Note_on_c, 1, 60, 88
2, 87432, Control_c, 1, 64, 127
2, 87448, Note_off_c, 1, 60, 64
2, 87452, Note_off_c, 1, 72, 64
2, 87476, Note_off_c, 1, 39, 64
2, 87480, Note_off_c, 1, 51, 64
2, 87524, Note_on_c, 1, 73, 80
2, 87524, Note_on_c, 1, 61, 82
2, 87528, Note_on_c, 1, 40, 90
2, 87528, Note_on_c, 1, 52, 107
2, 87556, Note_off_c, 1, 61, 64
2, 87556, Note_off_c, 1, 73, 64
2, 87584, Note_off_c, 1, 40, 64
2, 87584, Note_off_c, 1, 52, 64
2, 87656, Note_on_c, 1, 41, 111
2, 87660, Note_on_c, 1, 53, 102
2, 87664, Note_on_c, 1, 74, 102
2, 87664, Note_on_c, 1, 62, 94
2, 87684, Control_c, 1, 64, 0
2, 87720, Control_c, 1, 64, 127
2, 87780, Note_off_c, 1, 41, 64
2, 87780, Note_on_c, 1, 70, 73
2, 87784, Note_off_c, 1, 53, 64
2, 87788, Note_off_c, 1, 74, 64
2, 87804, Note_off_c, 1, 62, 64
2, 87808, Note_off_c, 1, 70, 64
2, 87896, Note_on_c, 1, 72, 95
2, 87900, Note_on_c, 1, 63, 82
2, 87900, Note_on_c, 1, 42, 111
2, 87900, Note_on_c, 1, 60, 90
2, 87900, Note_on_c, 1, 54, 107
2, 87904, Control_c, 1, 64, 0
2, 87924, Note_off_c, 1, 63, 64
2, 87928, Note_off_c, 1, 72, 64
2, 87928, Note_off_c, 1, 60, 64
2, 87928, Control_c, 1, 64, 127
2, 87972, Note_off_c, 1, 42, 64
2, 87980, Note_off_c, 1, 54, 64
2, 88016, Note_on_c, 1, 70, 80
2, 88016, Note_on_c, 1, 58, 85
2, 88016, Note_on_c, 1, 43, 102
2, 88020, Note_on_c, 1, 62, 90
2, 88020, Note_on_c, 1, 55, 94
2, 88020, Control_c, 1, 64, 0
2, 88048, Control_c, 1, 64, 127
2, 88084, Note_off_c, 1, 58, 64
2, 88088, Note_off_c, 1, 62, 64
2, 88116, Note_off_c, 1, 70, 64
2, 88160, Note_off_c, 1, 55, 64
2, 88176, Note_off_c, 1, 43, 64
2, 88220, Control_c, 1, 64, 0
2, 88228, Note_on_c, 1, 65, 85
2, 88228, Note_on_c, 1, 46, 111
2, 88228, Note_on_c, 1, 58, 98
2, 88236, Control_c, 1, 64, 127
2, 88272, Note_off_c, 1, 46, 0
2, 88276, Note_off_c, 1, 58, 0
2, 88292, Note_off_c, 1, 65, 0
2, 88348, Note_on_c, 1, 70, 80
2, 88356, Note_on_c, 1, 65, 85
2, 88356, Note_on_c, 1, 62, 90
2, 88356, Note_on_c, 1, 50, 111
2, 88364, Control_c, 1, 64, 0
2, 88380, Control_c, 1, 64, 127
2, 88416, Note_off_c, 1, 62, 64
2, 88424, Note_off_c, 1, 50, 64
2, 88460, Control_c, 1, 64, 0
2, 88464, Note_on_c, 1, 61, 77
2, 88464, Note_on_c, 1, 49, 111
2, 88480, Control_c, 1, 64, 127
2, 88488, Note_off_c, 1, 70, 64
2, 88488, Note_off_c, 1, 65, 64
2, 88544, Note_off_c, 1, 61, 64
2, 88544, Note_off_c, 1, 49, 64
2, 88584, Note_on_c, 1, 69, 90
2, 88584, Note_on_c, 1, 48, 88
2, 88584, Note_on_c, 1, 65, 85
2, 88584, Note_on_c, 1, 60, 102
2, 88596, Control_c, 1, 64, 0
2, 88620, Control_c, 1, 64, 127
2, 88648, Note_off_c, 1, 48, 64
2, 88672, Note_off_c, 1, 60, 64
2, 88716, Note_on_c, 1, 77, 94
2, 88756, Note_off_c, 1, 77, 64
2, 88760, Note_off_c, 1, 69, 64
2, 88760, Note_off_c, 1, 65, 64
2, 88820, Note_on_c, 1, 69, 95
2, 88820, Note_on_c, 1, 60, 85
2, 88824, Note_on_c, 1, 65, 91
2, 88824, Note_on_c, 1, 72, 90
2, 88824, Note_on_c, 1, 57, 82
2, 88824, Control_c, 1, 64, 0
2, 88836, Note_off_c, 1, 72, 64
2, 88844, Note_off_c, 1, 69, 64
2, 88844, Control_c, 1, 64, 127
2, 88852, Note_off_c, 1, 65, 64
2, 88864, Note_off_c, 1, 57, 64
2, 88872, Note_off_c, 1, 60, 64
2, 88928, Control_c, 1, 64, 0
2, 88944, Note_on_c, 1, 74, 117
2, 88944, Note_on_c, 1, 70, 111
2, 88944, Note_on_c, 1, 64, 98
2, 89060, Note_on_c, 1, 48, 111
2, 89064, Control_c, 1, 64, 127
2, 89088, Note_off_c, 1, 70, 64
2, 89092, Note_off_c, 1, 48, 64
2, 89108, Note_off_c, 1, 74, 64
2, 89168, Note_off_c, 1, 64, 64
2, 89180, Note_on_c, 1, 70, 95
2, 89212, Note_off_c, 1, 70, 64
2, 89284, Note_on_c, 1, 58, 90
2, 89284, Note_on_c, 1, 67, 90
2, 89288, Note_on_c, 1, 64, 85
2, 89288, Note_on_c, 1, 60, 90
2, 89296, Note_off_c, 1, 58, 64
2, 89300, Note_off_c, 1, 64, 64
2, 89300, Note_off_c, 1, 60, 64
2, 89304, Note_off_c, 1, 67, 64
2, 89508, Note_on_c, 1, 65, 75
2, 89508, Note_on_c, 1, 53, 82
2, 89508, Note_on_c, 1, 57, 77
2, 89508, Note_on_c, 1, 60, 71
2, 89520, Control_c, 1, 64, 0
2, 89560, Control_c, 1, 64, 127
2, 89596, Note_off_c, 1, 60, 64
2, 89616, Note_off_c, 1, 53, 64
2, 89616, Note_off_c, 1, 57, 64
2, 89716, Control_c, 1, 64, 0
2, 89724, Note_on_c, 1, 72, 85
2, 89724, Note_on_c, 1, 45, 102
2, 89728, Note_on_c, 1, 57, 82
2, 89736, Control_c, 1, 64, 127
2, 89744, Note_off_c, 1, 72, 64
2, 89856, Note_on_c, 1, 77, 102
2, 89856, Control_c, 1, 64, 0
2, 89860, Control_c, 1, 64, 127
2, 89868, Note_off_c, 1, 45, 64
2, 89868, Note_off_c, 1, 57, 64
2, 89968, Note_on_c, 1, 48, 102
2, 89968, Note_on_c, 1, 60, 98
2, 89976, Note_off_c, 1, 65, 0
2, 89976, Control_c, 1, 64, 0
2, 90060, Note_off_c, 1, 77, 64
2, 90068, Control_c, 1, 64, 127
2, 90092, Note_off_c, 1, 48, 64
2, 90096, Note_off_c, 1, 60, 64
2, 90096, Note_on_c, 1, 69, 107
2, 90236, Note_on_c, 1, 63, 107
2, 90236, Note_on_c, 1, 51, 111
2, 90236, Note_on_c, 1, 72, 117
2, 90240, Control_c, 1, 64, 0
2, 90284, Control_c, 1, 64, 127
2, 90376, Note_off_c, 1, 72, 64
2, 90388, Note_on_c, 1, 77, 102
2, 90396, Note_off_c, 1, 69, 64
2, 90396, Note_off_c, 1, 63, 64
2, 90404, Note_off_c, 1, 51, 64
2, 90428, Note_off_c, 1, 77, 64
2, 90528, Control_c, 1, 64, 0
2, 90540, Note_on_c, 1, 65, 98
2, 90544, Note_on_c, 1, 74, 117
2, 90544, Note_on_c, 1, 70, 98
2, 90544, Note_on_c, 1, 77, 107
2, 90544, Note_on_c, 1, 62, 102
2, 90544, Note_on_c, 1, 50, 107
2, 90548, Control_c, 1, 64, 127
2, 90588, Note_off_c, 1, 62, 64
2, 90596, Note_off_c, 1, 50, 64
2, 90660, Control_c, 1, 64, 0
2, 90676, Note_on_c, 1, 58, 107
2, 90676, Control_c, 1, 64, 127
2, 90680, Note_on_c, 1, 46, 117
2, 90760, Note_off_c, 1, 46, 64
2, 90764, Note_off_c, 1, 58, 64
2, 90796, Control_c, 1, 64, 0
2, 90800, Note_on_c, 1, 45, 107
2, 90800, Note_on_c, 1, 57, 90
2, 90808, Control_c, 1, 64, 127
2, 90840, Note_off_c, 1, 57, 64
2, 90848, Note_off_c, 1, 45, 64
2, 90900, Control_c, 1, 64, 0
2, 90908, Note_on_c, 1, 43, 102
2, 90908, Note_on_c, 1, 55, 102
2, 90936, Note_off_c, 1, 55, 64
2, 90948, Note_off_c, 1, 43, 64
2, 91020, Control_c, 1, 64, 127
2, 91024, Note_on_c, 1, 41, 102
2, 91024, Note_on_c, 1, 53, 107
2, 91028, Note_off_c, 1, 70, 64
2, 91028, Note_off_c, 1, 74, 64
2, 91036, Note_off_c, 1, 77, 64
2, 91040, Note_off_c, 1, 65, 64
2, 91048, Note_off_c, 1, 41, 64
2, 91048, Note_off_c, 1, 53, 64
2, 91128, Control_c, 1, 64, 0
2, 91140, Note_on_c, 1, 74, 88
2, 91144, Note_on_c, 1, 46, 82
2, 91144, Note_on_c, 1, 62, 82
2, 91144, Note_on_c, 1, 58, 88
2, 91144, Control_c, 1, 64, 127
2, 91168, Note_off_c, 1, 62, 64
2, 91180, Note_off_c, 1, 74, 64
2, 91188, Note_off_c, 1, 46, 64
2, 91188, Note_off_c, 1, 58, 64
2, 91248, Control_c, 1, 64, 0
2, 91260, Note_on_c, 1, 75, 107
2, 91260, Note_on_c, 1, 48, 88
2, 91260, Note_on_c, 1, 63, 94
2, 91260, Note_on_c, 1, 60, 88
2, 91260, Control_c, 1, 64, 127
2, 91292, Note_off_c, 1, 60, 0
2, 91304, Note_off_c, 1, 48, 0
2, 91308, Note_off_c, 1, 63, 0
2, 91324, Note_off_c, 1, 75, 0
2, 91360, Control_c, 1, 64, 0
2, 91364, Note_on_c, 1, 49, 94
2, 91368, Note_on_c, 1, 76, 102
2, 91368, Note_on_c, 1, 61, 102
2, 91368, Note_on_c, 1, 64, 94
2, 91376, Control_c, 1, 64, 127
2, 91392, Note_off_c, 1, 64, 64
2, 91400, Note_off_c, 1, 76, 64
2, 91412, Note_off_c, 1, 49, 64
2, 91416, Note_off_c, 1, 61, 64
2, 91500, Note_on_c, 1, 62, 102
2, 91500, Note_on_c, 1, 50, 117
2, 91500, Note_on_c, 1, 77, 107
2, 91500, Note_on_c, 1, 65, 88
2, 91500, Control_c, 1, 64, 0
2, 91556, Control_c, 1, 64, 127
2, 91612, Note_off_c, 1, 62, 64
2, 91612, Note_off_c, 1, 50, 64
2, 91628, Note_on_c, 1, 74, 80
2, 91628, Note_on_c, 1, 70, 73
2, 91632, Note_off_c, 1, 77, 64
2, 91640, Note_off_c, 1, 74, 64
2, 91644, Note_off_c, 1, 65, 64
2, 91652, Note_off_c, 1, 70, 64
2, 91740, Note_on_c, 1, 75, 88
2, 91744, Note_on_c, 1, 60, 102
2, 91744, Note_on_c, 1, 48, 98
2, 91744, Note_on_c, 1, 63, 73
2, 91744, Note_on_c, 1, 69, 98
2, 91748, Control_c, 1, 64, 0
2, 91812, Note_off_c, 1, 69, 64
2, 91816, Note_off_c, 1, 63, 64
2, 91820, Note_off_c, 1, 75, 64
2, 91824, Control_c, 1, 64, 127
2, 91864, Note_off_c, 1, 60, 64
2, 91868, Note_off_c, 1, 48, 64
2, 91868, Note_on_c, 1, 70, 98
2, 91868, Note_on_c, 1, 74, 105
2, 91868, Note_on_c, 1, 62, 85
2, 91988, Note_on_c, 1, 46, 113
2, 91988, Control_c, 1, 64, 0
2, 91996, Note_off_c, 1, 62, 64
2, 92000, Note_off_c, 1, 70, 64
2, 92000, Note_on_c, 1, 58, 111
2, 92008, Control_c, 1, 64, 127
2, 92016, Note_off_c, 1, 74, 64
2, 92056, Note_off_c, 1, 46, 64
2, 92064, Note_off_c, 1, 58, 64
2, 92124, Note_on_c, 1, 74, 107
2, 92260, Note_on_c, 1, 62, 73
2, 92260, Note_on_c, 1, 53, 88
2, 92260, Note_on_c, 1, 77, 90
2, 92264, Note_on_c, 1, 58, 70
2, 92268, Note_off_c, 1, 62, 64
2, 92272, Note_off_c, 1, 53, 64
2, 92272, Note_off_c, 1, 58, 64
2, 92388, Note_off_c, 1, 77, 64
2, 92388, Note_on_c, 1, 80, 102
2, 92484, Control_c, 1, 64, 0
2, 92528, Control_c, 1, 64, 127
2, 92536, Note_on_c, 1, 51, 115
2, 92540, Note_on_c, 1, 39, 112
2, 92544, Note_off_c, 1, 39, 64
2, 92548, Note_off_c, 1, 51, 64
2, 92556, Note_off_c, 1, 74, 64
2, 92580, Note_off_c, 1, 80, 64
2, 92648, Note_on_c, 1, 79, 102
2, 92648, Note_on_c, 1, 75, 88
2, 92668, Note_off_c, 1, 75, 64
2, 92680, Note_off_c, 1, 79, 64
2, 92768, Note_on_c, 1, 82, 102
2, 92776, Note_on_c, 1, 63, 68
2, 92776, Note_on_c, 1, 55, 82
2, 92776, Note_on_c, 1, 70, 94
2, 92776, Note_on_c, 1, 58, 68
2, 92796, Note_off_c, 1, 63, 64
2, 92796, Note_off_c, 1, 55, 64
2, 92796, Note_off_c, 1, 58, 64
2, 92884, Note_on_c, 1, 79, 98
2, 92888, Note_on_c, 1, 75, 88
2, 92900, Note_off_c, 1, 70, 0
2, 92912, Note_off_c, 1, 82, 0
2, 92920, Note_off_c, 1, 75, 64
2, 92936, Note_off_c, 1, 79, 64
2, 92988, Control_c, 1, 64, 0
2, 93004, Note_on_c, 1, 84, 102
2, 93016, Note_on_c, 1, 72, 98
2, 93020, Note_on_c, 1, 39, 102
2, 93020, Note_on_c, 1, 51, 98
2, 93020, Control_c, 1, 64, 127
2, 93028, Note_off_c, 1, 72, 64
2, 93032, Note_off_c, 1, 84, 64
2, 93104, Note_off_c, 1, 39, 64
2, 93108, Note_off_c, 1, 51, 64
2, 93128, Note_on_c, 1, 82, 102
2, 93136, Note_on_c, 1, 70, 94
2, 93252, Note_off_c, 1, 82, 64
2, 93256, Note_off_c, 1, 70, 64
2, 93260, Note_on_c, 1, 43, 102
2, 93260, Note_on_c, 1, 55, 90
2, 93324, Control_c, 1, 64, 0
2, 93360, Control_c, 1, 64, 127
2, 93380, Note_on_c, 1, 65, 107
2, 93384, Note_on_c, 1, 70, 102
2, 93384, Note_on_c, 1, 77, 107
2, 93384, Note_on_c, 1, 74, 117
2, 93388, Note_off_c, 1, 43, 64
2, 93388, Note_off_c, 1, 55, 64
2, 93504, Control_c, 1, 64, 0
2, 93516, Note_on_c, 1, 46, 108
2, 93516, Note_on_c, 1, 58, 102
2, 93536, Control_c, 1, 64, 127
2, 93564, Note_off_c, 1, 70, 64
2, 93568, Note_off_c, 1, 65, 64
2, 93572, Note_off_c, 1, 74, 64
2, 93588, Note_off_c, 1, 77, 64
2, 93636, Note_on_c, 1, 74, 107
2, 93648, Note_off_c, 1, 58, 64
2, 93660, Note_off_c, 1, 46, 64
2, 93748, Note_on_c, 1, 77, 107
2, 93756, Note_on_c, 1, 44, 85
2, 93760, Note_on_c, 1, 56, 88
2, 93760, Control_c, 1, 64, 0
2, 93796, Control_c, 1, 64, 127
2, 93864, Note_off_c, 1, 56, 64
2, 93868, Note_on_c, 1, 65, 88
2, 93876, Note_off_c, 1, 44, 64
2, 93884, Note_off_c, 1, 74, 64
2, 93892, Note_off_c, 1, 65, 64
2, 93908, Note_off_c, 1, 77, 64
2, 93980, Note_on_c, 1, 70, 80
2, 93984, Note_on_c, 1, 43, 102
2, 93984, Note_on_c, 1, 55, 102
2, 94004, Control_c, 1, 64, 0
2, 94096, Control_c, 1, 64, 127
2, 94104, Note_on_c, 1, 74, 98
2, 94124, Note_off_c, 1, 43, 64
2, 94128, Note_off_c, 1, 55, 64
2, 94236, Note_on_c, 1, 77, 101
2, 94236, Note_on_c, 1, 41, 102
2, 94240, Note_on_c, 1, 53, 109
2, 94244, Note_off_c, 1, 74, 64
2, 94248, Control_c, 1, 64, 0
2, 94364, Control_c, 1, 64, 127
2, 94384, Note_on_c, 1, 80, 104
2, 94388, Note_off_c, 1, 77, 0
2, 94388, Note_off_c, 1, 53, 0
2, 94396, Note_off_c, 1, 41, 0
2, 94488, Control_c, 1, 64, 0
2, 94500, Note_on_c, 1, 39, 112
2, 94500, Note_on_c, 1, 51, 112
2, 94516, Note_off_c, 1, 80, 64
2, 94516, Control_c, 1, 64, 127
2, 94528, Note_off_c, 1, 70, 64
2, 94540, Note_off_c, 1, 39, 64
2, 94548, Note_off_c, 1, 51, 64
2, 94604, Note_on_c, 1, 75, 80
2, 94608, Note_on_c, 1, 79, 94
2, 94624, Note_off_c, 1, 75, 64
2, 94632, Note_off_c, 1, 79, 64
2, 94724, Note_on_c, 1, 82, 107
2, 94724, Note_on_c, 1, 55, 88
2, 94724, Note_on_c, 1, 63, 65
2, 94724, Note_on_c, 1, 70, 107
2, 94728, Note_on_c, 1, 58, 68
2, 94736, Note_off_c, 1, 63, 64
2, 94736, Note_off_c, 1, 58, 64
2, 94744, Note_off_c, 1, 55, 64
2, 94828, Note_on_c, 1, 79, 94
2, 94828, Note_on_c, 1, 75, 90
2, 94836, Note_off_c, 1, 70, 64
2, 94844, Note_off_c, 1, 82, 64
2, 94852, Note_off_c, 1, 75, 64
2, 94856, Note_off_c, 1, 79, 64
2, 94928, Control_c, 1, 64, 0
2, 94948, Note_on_c, 1, 84, 117
2, 94956, Note_on_c, 1, 39, 111
2, 94956, Note_on_c, 1, 72, 98
2, 94956, Note_on_c, 1, 51, 115
2, 94960, Control_c, 1, 64, 127
2, 94968, Note_off_c, 1, 84, 64
2, 94968, Note_off_c, 1, 72, 64
2, 95076, Note_on_c, 1, 70, 94
2, 95080, Note_on_c, 1, 82, 98
2, 95096, Note_off_c, 1, 39, 64
2, 95100, Note_off_c, 1, 51, 64
2, 95104, Note_off_c, 1, 70, 64
2, 95104, Note_off_c, 1, 82, 64
2, 95188, Note_on_c, 1, 49, 111
2, 95188, Note_on_c, 1, 37, 111
2, 95200, Control_c, 1, 64, 0
2, 95276, Control_c, 1, 64, 127
2, 95296, Note_off_c, 1, 37, 64
2, 95308, Note_off_c, 1, 49, 64
2, 95308, Note_on_c, 1, 77, 102
2, 95308, Note_on_c, 1, 70, 98
2, 95316, Note_on_c, 1, 74, 111
2, 95316, Note_on_c, 1, 65, 107
2, 95428, Note_on_c, 1, 50, 90
2, 95428, Note_on_c, 1, 38, 111
2, 95440, Control_c, 1, 64, 0
2, 95456, Note_off_c, 1, 70, 64
2, 95460, Note_off_c, 1, 77, 64
2, 95464, Note_off_c, 1, 74, 64
2, 95464, Note_off_c, 1, 65, 64
2, 95496, Control_c, 1, 64, 127
2, 95540, Note_off_c, 1, 50, 64
2, 95548, Note_off_c, 1, 38, 64
2, 95548, Note_on_c, 1, 70, 94
2, 95548, Note_on_c, 1, 74, 107
2, 95668, Note_off_c, 1, 70, 64
2, 95676, Note_on_c, 1, 77, 102
2, 95676, Note_on_c, 1, 65, 85
2, 95676, Note_on_c, 1, 32, 111
2, 95680, Note_off_c, 1, 74, 64
2, 95680, Note_on_c, 1, 44, 111
2, 95680, Control_c, 1, 64, 0
2, 95696, Note_off_c, 1, 65, 64
2, 95700, Note_off_c, 1, 77, 64
2, 95836, Note_on_c, 1, 79, 117
2, 95836, Note_on_c, 1, 74, 117
2, 95836, Note_on_c, 1, 71, 117
2, 95840, Note_off_c, 1, 32, 64
2, 95840, Note_on_c, 1, 67, 117
2, 95852, Note_off_c, 1, 44, 64
2, 95948, Note_on_c, 1, 31, 102
2, 95948, Note_on_c, 1, 43, 107
2, 95956, Control_c, 1, 64, 127
2, 95976, Note_off_c, 1, 31, 64
2, 95988, Note_off_c, 1, 43, 64
2, 96016, Note_off_c, 1, 79, 0
2, 96044, Note_off_c, 1, 74, 0
2, 96048, Note_off_c, 1, 71, 0
2, 96060, Note_off_c, 1, 67, 0
2, 96080, Note_on_c, 1, 77, 94
2, 96188, Note_on_c, 1, 55, 71
2, 96200, Note_on_c, 1, 59, 75
2, 96200, Note_on_c, 1, 62, 77
2, 96200, Note_on_c, 1, 74, 102
2, 96200, Note_on_c, 1, 65, 65
2, 96208, Note_off_c, 1, 62, 64
2, 96208, Note_off_c, 1, 65, 64
2, 96212, Note_off_c, 1, 59, 64
2, 96216, Note_off_c, 1, 55, 64
2, 96320, Note_off_c, 1, 77, 64
2, 96320, Note_on_c, 1, 71, 80
2, 96324, Note_off_c, 1, 74, 64
2, 96340, Note_off_c, 1, 71, 64
2, 96440, Note_on_c, 1, 48, 66
2, 96440, Note_on_c, 1, 58, 62
2, 96444, Note_on_c, 1, 72, 98
2, 96444, Note_on_c, 1, 55, 77
2, 96444, Note_on_c, 1, 64, 94
2, 96444, Control_c, 1, 64, 0
2, 96500, Control_c, 1, 64, 127
2, 96508, Note_off_c, 1, 48, 64
2, 96512, Note_off_c, 1, 55, 64
2, 96524, Note_off_c, 1, 58, 64
2, 96548, Note_off_c, 1, 64, 64
2, 96580, Note_on_c, 1, 67, 88
2, 96588, Note_off_c, 1, 72, 64
2, 96664, Note_off_c, 1, 67, 64
2, 96700, Note_on_c, 1, 55, 70
2, 96704, Note_on_c, 1, 70, 98
2, 96704, Note_on_c, 1, 60, 61
2, 96704, Control_c, 1, 64, 0
2, 96708, Note_on_c, 1, 64, 62
2, 96728, Control_c, 1, 64, 127
2, 96748, Note_off_c, 1, 64, 64
2, 96756, Note_off_c, 1, 60, 64
2, 96760, Note_off_c, 1, 55, 64
2, 96768, Note_off_c, 1, 70, 64
2, 96944, Note_on_c, 1, 69, 90
2, 96948, Note_on_c, 1, 53, 70
2, 96948, Control_c, 1, 64, 0
2, 96960, Note_on_c, 1, 60, 64
2, 96960, Note_on_c, 1, 63, 53
2, 97036, Note_off_c, 1, 53, 64
2, 97044, Control_c, 1, 64, 127
2, 97052, Note_off_c, 1, 60, 64
2, 97068, Note_off_c, 1, 63, 64
2, 97080, Note_on_c, 1, 77, 85
2, 97096, Note_off_c, 1, 69, 64
2, 97204, Note_on_c, 1, 75, 77
2, 97216, Note_on_c, 1, 63, 47
2, 97220, Note_on_c, 1, 57, 64
2, 97220, Note_on_c, 1, 53, 44
2, 97220, Control_c, 1, 64, 0
2, 97224, Note_off_c, 1, 77, 64
2, 97260, Control_c, 1, 64, 127
2, 97304, Note_off_c, 1, 63, 64
2, 97308, Note_off_c, 1, 57, 64
2, 97312, Note_off_c, 1, 53, 64
2, 97340, Note_on_c, 1, 72, 77
2, 97344, Note_off_c, 1, 75, 64
2, 97380, Note_off_c, 1, 72, 64
2, 97480, Note_on_c, 1, 70, 73
2, 97488, Note_on_c, 1, 58, 49
2, 97496, Note_on_c, 1, 62, 57
2, 97500, Control_c, 1, 64, 0
2, 97528, Control_c, 1, 64, 127
2, 97588, Note_off_c, 1, 62, 64
2, 97608, Note_off_c, 1, 58, 64
2, 97716, Control_c, 1, 64, 0
2, 97796, Note_on_c, 1, 53, 94
2, 97796, Note_on_c, 1, 41, 85
2, 97800, Control_c, 1, 64, 127
2, 97828, Note_off_c, 1, 53, 64
2, 97828, Note_off_c, 1, 41, 64
2, 97912, Note_off_c, 1, 70, 64
2, 97996, Control_c, 1, 64, 0
2, 98200, Note_on_c, 1, 82, 107
2, 98200, Note_on_c, 1, 74, 117
2, 98204, Note_on_c, 1, 70, 123
2, 98208, Note_on_c, 1, 34, 122
2, 98208, Note_on_c, 1, 46, 122
2, 98216, Control_c, 1, 64, 127
2, 98240, Note_off_c, 1, 34, 64
2, 98240, Note_off_c, 1, 46, 64
2, 98360, Note_off_c, 1, 70, 64
2, 98376, Note_off_c, 1, 74, 64
2, 98400, Note_off_c, 1, 82, 64
2, 98600, Control_c, 1, 64, 0
2, 98928, Note_on_c, 1, 51, 51
2, 98936, Note_on_c, 1, 67, 66
2, 98936, Note_on_c, 1, 70, 56
2, 98940, Control_c, 1, 64, 127
2, 98960, Note_off_c, 1, 70, 64
2, 98964, Note_off_c, 1, 67, 64
2, 98980, Note_off_c, 1, 51, 64
2, 99008, Control_c, 1, 64, 0
2, 99076, Note_on_c, 1, 67, 60
2, 99076, Note_on_c, 1, 70, 53
2, 99076, Control_c, 1, 64, 127
2, 99148, Note_off_c, 1, 70, 64
2, 99156, Note_off_c, 1, 67, 64
2, 99188, Note_on_c, 1, 55, 56
2, 99188, Note_on_c, 1, 58, 51
2, 99188, Note_on_c, 1, 63, 49
2, 99200, Note_off_c, 1, 58, 64
2, 99208, Note_off_c, 1, 55, 64
2, 99208, Note_off_c, 1, 63, 64
2, 99300, Note_on_c, 1, 65, 68
2, 99300, Note_on_c, 1, 68, 61
2, 99304, Control_c, 1, 64, 0
2, 99324, Note_off_c, 1, 65, 64
2, 99332, Note_off_c, 1, 68, 64
2, 99424, Note_on_c, 1, 46, 64
2, 99424, Note_on_c, 1, 67, 62
2, 99424, Note_on_c, 1, 63, 56
2, 99428, Control_c, 1, 64, 127
2, 99448, Note_off_c, 1, 46, 64
2, 99468, Note_off_c, 1, 63, 64
2, 99524, Note_off_c, 1, 67, 64
2, 99540, Note_on_c, 1, 66, 70
2, 99568, Note_off_c, 1, 66, 64
2, 99660, Note_on_c, 1, 67, 64
2, 99664, Note_on_c, 1, 63, 54
2, 99680, Note_on_c, 1, 55, 30
2, 99684, Note_off_c, 1, 63, 64
2, 99684, Note_on_c, 1, 58, 27
2, 99692, Note_off_c, 1, 67, 64
2, 99768, Note_on_c, 1, 67, 63
2, 99768, Note_on_c, 1, 70, 63
2, 99792, Note_off_c, 1, 67, 64
2, 99792, Note_off_c, 1, 70, 64
2, 99920, Control_c, 1, 64, 0
2, 99928, Note_on_c, 1, 51, 33
2, 99940, Control_c, 1, 64, 127
2, 99944, Note_off_c, 1, 55, 64
2, 99944, Note_off_c, 1, 58, 64
2, 99948, Note_on_c, 1, 67, 57
2, 99948, Note_on_c, 1, 75, 60
2, 99976, Note_off_c, 1, 67, 64
2, 99988, Note_off_c, 1, 75, 64
2, 100188, Note_on_c, 1, 82, 71
2, 100188, Note_on_c, 1, 75, 64
2, 100196, Note_on_c, 1, 63, 46
2, 100196, Note_on_c, 1, 58, 39
2, 100196, Note_on_c, 1, 55, 34
2, 100196, Note_on_c, 1, 79, 68
2, 100220, Note_off_c, 1, 75, 64
2, 100220, Note_off_c, 1, 58, 64
2, 100224, Note_off_c, 1, 63, 64
2, 100224, Note_off_c, 1, 55, 64
2, 100228, Note_off_c, 1, 79, 64
2, 100244, Note_off_c, 1, 51, 64
2, 100244, Note_off_c, 1, 82, 64
2, 100320, Note_on_c, 1, 79, 82
2, 100320, Note_on_c, 1, 75, 60
2, 100408, Control_c, 1, 64, 0
2, 100440, Control_c, 1, 64, 127
2, 100448, Note_on_c, 1, 46, 65
2, 100476, Note_off_c, 1, 46, 64
2, 100480, Note_off_c, 1, 79, 64
2, 100480, Note_off_c, 1, 75, 64
2, 100568, Note_on_c, 1, 84, 71
2, 100576, Note_on_c, 1, 79, 73
2, 100576, Note_on_c, 1, 75, 57
2, 100600, Note_off_c, 1, 84, 64
2, 100600, Note_off_c, 1, 79, 64
2, 100600, Note_off_c, 1, 75, 64
2, 100708, Note_on_c, 1, 55, 58
2, 100708, Note_on_c, 1, 63, 55
2, 100716, Note_on_c, 1, 82, 71
2, 100716, Note_on_c, 1, 75, 63
2, 100716, Note_on_c, 1, 79, 80
2, 100716, Note_on_c, 1, 58, 34
2, 100724, Note_off_c, 1, 82, 64
2, 100736, Note_off_c, 1, 75, 64
2, 100736, Note_off_c, 1, 79, 64
2, 100856, Control_c, 1, 64, 0
2, 100868, Note_off_c, 1, 58, 64
2, 100872, Note_off_c, 1, 55, 64
2, 100896, Note_off_c, 1, 63, 64
2, 100944, Control_c, 1, 64, 127
2, 100956, Note_on_c, 1, 67, 60
2, 100956, Note_on_c, 1, 51, 46
2, 100964, Note_on_c, 1, 70, 53
2, 100988, Note_off_c, 1, 67, 64
2, 100988, Note_off_c, 1, 70, 64
2, 101096, Note_on_c, 1, 70, 65
2, 101096, Note_on_c, 1, 67, 66
2, 101196, Note_off_c, 1, 70, 64
2, 101200, Note_off_c, 1, 67, 64
2, 101200, Note_on_c, 1, 63, 50
2, 101204, Note_on_c, 1, 58, 44
2, 101204, Note_on_c, 1, 55, 35
2, 101224, Note_off_c, 1, 51, 64
2, 101224, Note_off_c, 1, 63, 64
2, 101224, Note_off_c, 1, 58, 64
2, 101232, Note_off_c, 1, 55, 64
2, 101308, Note_on_c, 1, 68, 59
2, 101308, Note_on_c, 1, 65, 71
2, 101336, Note_off_c, 1, 65, 64
2, 101340, Note_off_c, 1, 68, 64
2, 101404, Control_c, 1, 64, 0
2, 101420, Note_on_c, 1, 67, 70
2, 101424, Note_on_c, 1, 46, 64
2, 101424, Control_c, 1, 64, 127
2, 101428, Note_on_c, 1, 63, 46
2, 101452, Note_off_c, 1, 46, 64
2, 101492, Note_off_c, 1, 63, 64
2, 101528, Note_off_c, 1, 67, 64
2, 101528, Note_on_c, 1, 63, 27
2, 101528, Note_on_c, 1, 66, 77
2, 101540, Note_off_c, 1, 63, 64
2, 101548, Note_off_c, 1, 66, 64
2, 101636, Note_on_c, 1, 67, 75
2, 101636, Note_on_c, 1, 63, 60
2, 101644, Note_on_c, 1, 55, 64
2, 101644, Note_on_c, 1, 58, 50
2, 101660, Note_off_c, 1, 67, 64
2, 101664, Note_off_c, 1, 63, 64
2, 101740, Note_on_c, 1, 67, 70
2, 101740, Note_on_c, 1, 70, 66
2, 101760, Note_off_c, 1, 67, 64
2, 101764, Note_off_c, 1, 70, 64
2, 101888, Control_c, 1, 64, 0
2, 101896, Note_on_c, 1, 51, 46
2, 101904, Note_off_c, 1, 58, 64
2, 101904, Note_on_c, 1, 75, 66
2, 101904, Note_on_c, 1, 67, 61
2, 101904, Control_c, 1, 64, 127
2, 101912, Note_off_c, 1, 55, 64
2, 101944, Note_off_c, 1, 75, 64
2, 101948, Note_off_c, 1, 67, 64
2, 102140, Note_on_c, 1, 82, 70
2, 102140, Note_on_c, 1, 63, 50
2, 102144, Note_on_c, 1, 55, 33
2, 102144, Note_on_c, 1, 75, 53
2, 102144, Note_on_c, 1, 58, 39
2, 102144, Note_on_c, 1, 79, 80
2, 102168, Note_off_c, 1, 75, 64
2, 102172, Note_off_c, 1, 79, 64
2, 102180, Note_off_c, 1, 82, 64
2, 102180, Note_off_c, 1, 63, 64
2, 102184, Note_off_c, 1, 58, 64
2, 102188, Note_off_c, 1, 55, 64
2, 102224, Note_off_c, 1, 51, 64
2, 102268, Note_on_c, 1, 75, 61
2, 102276, Note_on_c, 1, 79, 88
2, 102384, Control_c, 1, 64, 0
2, 102396, Note_on_c, 1, 39, 70
2, 102396, Note_on_c, 1, 51, 66
2, 102400, Note_off_c, 1, 75, 64
2, 102404, Note_off_c, 1, 79, 64
2, 102404, Control_c, 1, 64, 127
2, 102524, Note_on_c, 1, 84, 80
2, 102524, Note_on_c, 1, 75, 61
2, 102524, Note_on_c, 1, 79, 75
2, 102536, Note_off_c, 1, 39, 64
2, 102544, Note_off_c, 1, 51, 64
2, 102552, Note_off_c, 1, 84, 64
2, 102552, Note_off_c, 1, 79, 64
2, 102556, Note_off_c, 1, 75, 64
2, 102664, Note_on_c, 1, 82, 77
2, 102664, Control_c, 1, 64, 0
2, 102668, Note_on_c, 1, 40, 80
2, 102668, Note_on_c, 1, 79, 88
2, 102668, Note_on_c, 1, 73, 66
2, 102668, Note_on_c, 1, 52, 70
2, 102680, Control_c, 1, 64, 127
2, 102720, Note_off_c, 1, 79, 64
2, 102736, Note_off_c, 1, 82, 64
2, 102736, Note_off_c, 1, 73, 64
2, 102760, Note_off_c, 1, 40, 64
2, 102772, Note_off_c, 1, 52, 64
2, 102888, Control_c, 1, 64, 0
2, 102920, Note_on_c, 1, 80, 66
2, 102920, Note_on_c, 1, 53, 66
2, 102920, Note_on_c, 1, 41, 65
2, 102920, Note_on_c, 1, 74, 70
2, 102920, Control_c, 1, 64, 127
2, 102944, Note_off_c, 1, 41, 64
2, 102948, Note_off_c, 1, 80, 64
2, 102948, Note_off_c, 1, 53, 64
2, 102952, Note_off_c, 1, 74, 64
2, 103036, Note_on_c, 1, 80, 70
2, 103048, Note_on_c, 1, 74, 71
2, 103160, Note_off_c, 1, 80, 64
2, 103160, Note_on_c, 1, 56, 53
2, 103164, Note_on_c, 1, 62, 60
2, 103164, Note_on_c, 1, 58, 53
2, 103172, Note_off_c, 1, 74, 64
2, 103176, Note_off_c, 1, 62, 64
2, 103184, Note_off_c, 1, 58, 64
2, 103188, Note_off_c, 1, 56, 64
2, 103276, Note_on_c, 1, 79, 82
2, 103280, Note_on_c, 1, 74, 65
2, 103304, Note_off_c, 1, 79, 64
2, 103312, Note_off_c, 1, 74, 64
2, 103348, Control_c, 1, 64, 0
2, 103396, Note_on_c, 1, 46, 62
2, 103396, Control_c, 1, 64, 127
2, 103400, Note_on_c, 1, 34, 60
2, 103400, Note_on_c, 1, 74, 70
2, 103400, Note_on_c, 1, 77, 77
2, 103420, Note_off_c, 1, 34, 64
2, 103436, Note_off_c, 1, 46, 64
2, 103504, Note_off_c, 1, 77, 64
2, 103520, Note_on_c, 1, 76, 75
2, 103636, Note_on_c, 1, 56, 47
2, 103636, Note_on_c, 1, 62, 58
2, 103640, Note_on_c, 1, 58, 52
2, 103640, Note_on_c, 1, 77, 80
2, 103660, Note_off_c, 1, 76, 64
2, 103660, Note_off_c, 1, 62, 64
2, 103664, Note_off_c, 1, 56, 64
2, 103664, Note_off_c, 1, 58, 64
2, 103756, Note_on_c, 1, 78, 68
2, 103764, Note_off_c, 1, 74, 64
2, 103764, Note_off_c, 1, 77, 64
2, 103780, Note_off_c, 1, 78, 64
2, 103836, Control_c, 1, 64, 0
2, 103848, Control_c, 1, 64, 127
2, 103864, Note_on_c, 1, 51, 62
2, 103864, Note_on_c, 1, 39, 61
2, 103880, Note_on_c, 1, 75, 64
2, 103880, Note_on_c, 1, 67, 66
2, 103884, Note_off_c, 1, 39, 64
2, 103884, Note_on_c, 1, 79, 68
2, 103892, Note_off_c, 1, 51, 64
2, 103900, Note_off_c, 1, 67, 0
2, 103904, Note_off_c, 1, 75, 0
2, 103908, Note_off_c, 1, 79, 0
2, 103984, Note_on_c, 1, 68, 65
2, 103996, Note_on_c, 1, 80, 71
2, 104012, Note_off_c, 1, 68, 64
2, 104024, Note_off_c, 1, 80, 64
2, 104108, Note_on_c, 1, 55, 64
2, 104116, Note_on_c, 1, 63, 57
2, 104116, Note_on_c, 1, 58, 57
2, 104116, Note_on_c, 1, 82, 77
2, 104116, Note_on_c, 1, 70, 65
2, 104128, Note_off_c, 1, 63, 64
2, 104136, Note_off_c, 1, 55, 64
2, 104140, Note_off_c, 1, 58, 64
2, 104144, Note_off_c, 1, 82, 64
2, 104144, Note_off_c, 1, 70, 64
2, 104228, Note_on_c, 1, 72, 65
2, 104236, Note_on_c, 1, 84, 77
2, 104308, Control_c, 1, 64, 0
2, 104344, Note_on_c, 1, 43, 68
2, 104344, Note_on_c, 1, 55, 68
2, 104348, Note_off_c, 1, 84, 64
2, 104352, Note_off_c, 1, 72, 64
2, 104356, Control_c, 1, 64, 127
2, 104460, Note_on_c, 1, 74, 66
2, 104464, Note_on_c, 1, 86, 65
2, 104472, Note_off_c, 1, 55, 64
2, 104484, Note_off_c, 1, 43, 64
2, 104488, Note_off_c, 1, 74, 64
2, 104492, Note_off_c, 1, 86, 64
2, 104600, Note_on_c, 1, 54, 68
2, 104600, Note_on_c, 1, 87, 82
2, 104600, Note_on_c, 1, 42, 66
2, 104604, Note_on_c, 1, 75, 73
2, 104616, Control_c, 1, 64, 0
2, 104624, Control_c, 1, 64, 127
2, 104684, Note_off_c, 1, 54, 64
2, 104688, Note_off_c, 1, 42, 64
2, 104748, Note_off_c, 1, 87, 64
2, 104752, Note_off_c, 1, 75, 64
2, 104808, Control_c, 1, 64, 0
2, 104824, Note_on_c, 1, 41, 65
2, 104824, Note_on_c, 1, 53, 63
2, 104828, Note_on_c, 1, 86, 71
2, 104828, Note_on_c, 1, 74, 70
2, 104828, Control_c, 1, 64, 127
2, 104848, Note_off_c, 1, 41, 64
2, 104848, Note_off_c, 1, 74, 64
2, 104864, Note_off_c, 1, 53, 64
2, 104868, Note_off_c, 1, 86, 64
2, 104948, Note_on_c, 1, 87, 65
2, 104948, Note_on_c, 1, 75, 62
2, 104980, Note_off_c, 1, 75, 64
2, 104988, Note_off_c, 1, 87, 64
2, 105060, Note_on_c, 1, 53, 70
2, 105060, Note_on_c, 1, 62, 60
2, 105064, Note_on_c, 1, 58, 57
2, 105064, Note_on_c, 1, 88, 71
2, 105064, Note_on_c, 1, 76, 70
2, 105084, Note_off_c, 1, 62, 64
2, 105088, Note_off_c, 1, 53, 64
2, 105088, Note_off_c, 1, 58, 64
2, 105092, Note_off_c, 1, 76, 64
2, 105096, Note_off_c, 1, 88, 64
2, 105176, Note_on_c, 1, 89, 71
2, 105180, Note_on_c, 1, 77, 64
2, 105260, Control_c, 1, 64, 0
2, 105284, Note_off_c, 1, 89, 64
2, 105284, Control_c, 1, 64, 127
2, 105288, Note_on_c, 1, 41, 66
2, 105288, Note_on_c, 1, 53, 68
2, 105304, Note_off_c, 1, 77, 64
2, 105316, Note_off_c, 1, 41, 64
2, 105332, Note_off_c, 1, 53, 64
2, 105404, Note_on_c, 1, 77, 71
2, 105424, Note_off_c, 1, 77, 64
2, 105528, Note_on_c, 1, 84, 73
2, 105540, Note_on_c, 1, 75, 57
2, 105540, Note_on_c, 1, 57, 62
2, 105544, Note_on_c, 1, 53, 57
2, 105592, Note_off_c, 1, 57, 64
2, 105596, Note_off_c, 1, 84, 64
2, 105596, Note_off_c, 1, 53, 64
2, 105604, Note_off_c, 1, 75, 64
2, 105780, Note_on_c, 1, 58, 51
2, 105780, Note_on_c, 1, 46, 50
2, 105780, Note_on_c, 1, 74, 68
2, 105784, Note_on_c, 1, 82, 64
2, 105788, Note_on_c, 1, 53, 38
2, 105788, Control_c, 1, 64, 0
2, 105808, Control_c, 1, 64, 127
2, 105848, Note_off_c, 1, 58, 64
2, 105852, Note_off_c, 1, 53, 64
2, 105860, Note_off_c, 1, 46, 64
2, 106020, Note_on_c, 1, 53, 57
2, 106024, Control_c, 1, 64, 0
2, 106048, Control_c, 1, 64, 127
2, 106088, Note_off_c, 1, 53, 64
2, 106164, Note_off_c, 1, 82, 64
2, 106180, Note_off_c, 1, 74, 64
2, 106280, Note_on_c, 1, 50, 63
2, 106284, Control_c, 1, 64, 0
2, 106304, Control_c, 1, 64, 127
2, 106372, Note_off_c, 1, 50, 64
2, 106544, Note_on_c, 1, 46, 58
2, 106548, Note_on_c, 1, 68, 58
2, 106556, Note_on_c, 1, 70, 55
2, 106588, Note_off_c, 1, 46, 64
2, 106608, Note_off_c, 1, 68, 64
2, 106628, Note_off_c, 1, 70, 64
2, 106844, Note_on_c, 1, 51, 32
2, 106848, Note_on_c, 1, 70, 52
2, 106856, Note_on_c, 1, 67, 37
2, 106884, Control_c, 1, 64, 0
2, 106888, Note_off_c, 1, 70, 64
2, 106916, Note_off_c, 1, 67, 64
2, 106988, Note_on_c, 1, 67, 53
2, 106988, Note_on_c, 1, 70, 53
2, 107000, Control_c, 1, 64, 127
2, 107088, Note_off_c, 1, 70, 64
2, 107100, Note_off_c, 1, 67, 64
2, 107120, Note_on_c, 1, 63, 29
2, 107128, Note_on_c, 1, 55, 28
2, 107128, Note_on_c, 1, 58, 26
2, 107164, Note_off_c, 1, 63, 0
2, 107168, Note_off_c, 1, 58, 0
2, 107176, Note_off_c, 1, 55, 0
2, 107192, Note_off_c, 1, 51, 0
2, 107224, Note_on_c, 1, 68, 60
2, 107228, Note_on_c, 1, 65, 60
2, 107248, Control_c, 1, 64, 0
2, 107252, Note_off_c, 1, 68, 64
2, 107252, Note_off_c, 1, 65, 64
2, 107348, Note_on_c, 1, 67, 66
2, 107348, Note_on_c, 1, 46, 53
2, 107348, Note_on_c, 1, 63, 57
2, 107360, Control_c, 1, 64, 127
2, 107372, Note_off_c, 1, 46, 64
2, 107416, Note_off_c, 1, 63, 64
2, 107436, Note_off_c, 1, 67, 64
2, 107464, Note_on_c, 1, 66, 62
2, 107488, Note_off_c, 1, 66, 64
2, 107580, Note_on_c, 1, 67, 66
2, 107580, Note_on_c, 1, 63, 60
2, 107584, Note_on_c, 1, 55, 57
2, 107588, Note_on_c, 1, 58, 34
2, 107604, Note_off_c, 1, 67, 64
2, 107604, Note_off_c, 1, 63, 64
2, 107680, Note_on_c, 1, 67, 64
2, 107680, Note_on_c, 1, 70, 55
2, 107700, Note_off_c, 1, 67, 64
2, 107704, Note_off_c, 1, 70, 64
2, 107816, Control_c, 1, 64, 0
2, 107824, Note_on_c, 1, 67, 62
2, 107828, Note_on_c, 1, 75, 62
2, 107828, Control_c, 1, 64, 127
2, 107832, Note_off_c, 1, 55, 64
2, 107836, Note_on_c, 1, 51, 46
2, 107840, Note_off_c, 1, 58, 64
2, 107860, Note_off_c, 1, 75, 64
2, 107864, Note_off_c, 1, 67, 64
2, 108048, Note_on_c, 1, 82, 73
2, 108056, Note_on_c, 1, 75, 60
2, 108056, Note_on_c, 1, 55, 34
2, 108056, Note_on_c, 1, 58, 39
2, 108060, Note_on_c, 1, 63, 45
2, 108084, Note_off_c, 1, 55, 64
2, 108088, Note_off_c, 1, 51, 64
2, 108088, Note_off_c, 1, 75, 64
2, 108088, Note_off_c, 1, 58, 64
2, 108088, Note_off_c, 1, 63, 64
2, 108092, Note_off_c, 1, 82, 64
2, 108176, Note_on_c, 1, 75, 62
2, 108180, Note_on_c, 1, 79, 82
2, 108276, Control_c, 1, 64, 0
2, 108288, Control_c, 1, 64, 127
2, 108308, Note_on_c, 1, 46, 71
2, 108320, Note_off_c, 1, 46, 64
2, 108340, Note_off_c, 1, 79, 64
2, 108344, Note_off_c, 1, 75, 64
2, 108416, Note_on_c, 1, 84, 71
2, 108424, Note_on_c, 1, 75, 59
2, 108424, Note_on_c, 1, 79, 75
2, 108448, Note_off_c, 1, 79, 64
2, 108456, Note_off_c, 1, 84, 64
2, 108456, Note_off_c, 1, 75, 64
2, 108564, Note_on_c, 1, 58, 55
2, 108564, Note_on_c, 1, 63, 49
2, 108564, Note_on_c, 1, 55, 66
2, 108564, Note_on_c, 1, 82, 75
2, 108564, Note_on_c, 1, 79, 88
2, 108568, Note_on_c, 1, 75, 45
2, 108572, Note_off_c, 1, 82, 64
2, 108572, Note_off_c, 1, 75, 64
2, 108576, Note_off_c, 1, 79, 64
2, 108584, Note_off_c, 1, 58, 64
2, 108584, Note_off_c, 1, 63, 64
2, 108588, Note_off_c, 1, 55, 64
2, 108780, Note_on_c, 1, 50, 84
2, 108788, Control_c, 1, 64, 0
2, 108816, Note_on_c, 1, 79, 71
2, 108820, Note_on_c, 1, 71, 80
2, 108824, Control_c, 1, 64, 127
2, 108880, Note_off_c, 1, 71, 64
2, 108884, Note_off_c, 1, 79, 64
2, 108928, Note_on_c, 1, 79, 82
2, 108936, Note_on_c, 1, 71, 73
2, 109044, Note_on_c, 1, 65, 59
2, 109044, Note_on_c, 1, 59, 73
2, 109044, Note_on_c, 1, 55, 57
2, 109048, Note_off_c, 1, 79, 64
2, 109060, Note_off_c, 1, 71, 64
2, 109064, Note_off_c, 1, 65, 64
2, 109068, Note_off_c, 1, 59, 64
2, 109072, Note_off_c, 1, 55, 64
2, 109080, Note_off_c, 1, 50, 64
2, 109148, Note_on_c, 1, 79, 75
2, 109156, Note_on_c, 1, 71, 66
2, 109172, Note_off_c, 1, 79, 64
2, 109176, Note_off_c, 1, 71, 64
2, 109260, Control_c, 1, 64, 0
2, 109264, Note_on_c, 1, 43, 71
2, 109276, Note_on_c, 1, 80, 77
2, 109276, Note_on_c, 1, 71, 71
2, 109276, Control_c, 1, 64, 127
2, 109292, Note_off_c, 1, 43, 64
2, 109376, Note_off_c, 1, 80, 64
2, 109388, Note_on_c, 1, 79, 73
2, 109500, Note_off_c, 1, 79, 64
2, 109500, Note_on_c, 1, 74, 71
2, 109504, Note_on_c, 1, 65, 60
2, 109504, Note_on_c, 1, 59, 43
2, 109504, Note_on_c, 1, 55, 49
2, 109524, Note_off_c, 1, 65, 64
2, 109524, Note_off_c, 1, 59, 64
2, 109524, Note_off_c, 1, 55, 64
2, 109592, Note_off_c, 1, 74, 64
2, 109604, Note_on_c, 1, 77, 73
2, 109628, Note_off_c, 1, 71, 64
2, 109644, Note_off_c, 1, 77, 64
2, 109716, Note_on_c, 1, 48, 62
2, 109716, Control_c, 1, 64, 0
2, 109720, Note_on_c, 1, 60, 44
2, 109724, Note_on_c, 1, 72, 62
2, 109728, Note_on_c, 1, 75, 70
2, 109728, Control_c, 1, 64, 127
2, 109744, Note_off_c, 1, 48, 64
2, 109764, Note_off_c, 1, 60, 64
2, 109836, Note_off_c, 1, 75, 64
2, 109848, Note_on_c, 1, 77, 68
2, 109948, Note_off_c, 1, 77, 64
2, 109948, Note_on_c, 1, 79, 71
2, 109956, Note_on_c, 1, 55, 57
2, 109956, Note_on_c, 1, 63, 52
2, 109956, Note_on_c, 1, 60, 57
2, 109972, Note_off_c, 1, 79, 64
2, 109980, Note_off_c, 1, 60, 64
2, 109988, Note_off_c, 1, 55, 64
2, 109988, Note_off_c, 1, 63, 64
2, 110068, Note_on_c, 1, 84, 85
2, 110100, Control_c, 1, 64, 0
2, 110188, Note_on_c, 1, 51, 65
2, 110200, Control_c, 1, 64, 127
2, 110308, Note_on_c, 1, 79, 65
2, 110316, Note_off_c, 1, 84, 64
2, 110460, Note_on_c, 1, 55, 59
2, 110464, Note_on_c, 1, 60, 60
2, 110464, Note_on_c, 1, 63, 52
2, 110492, Note_off_c, 1, 79, 0
2, 110492, Note_off_c, 1, 60, 64
2, 110492, Note_off_c, 1, 63, 64
2, 110504, Note_off_c, 1, 55, 64
2, 110504, Note_on_c, 1, 84, 73
2, 110520, Note_off_c, 1, 51, 0
2, 110628, Note_off_c, 1, 72, 64
2, 110716, Control_c, 1, 64, 0
2, 110728, Note_on_c, 1, 41, 70
2, 110736, Note_on_c, 1, 53, 70
2, 110744, Control_c, 1, 64, 127
2, 110752, Note_off_c, 1, 41, 64
2, 110768, Note_off_c, 1, 53, 64
2, 110848, Note_on_c, 1, 80, 71
2, 110852, Note_off_c, 1, 84, 64
2, 110964, Note_on_c, 1, 56, 54
2, 110968, Note_on_c, 1, 79, 77
2, 110968, Note_on_c, 1, 65, 58
2, 110968, Note_on_c, 1, 60, 36
2, 110980, Note_off_c, 1, 80, 64
2, 110992, Note_off_c, 1, 56, 64
2, 110992, Note_off_c, 1, 65, 64
2, 110992, Note_off_c, 1, 60, 64
2, 111060, Note_off_c, 1, 79, 64
2, 111068, Note_on_c, 1, 77, 85
2, 111184, Note_on_c, 1, 48, 63
2, 111184, Note_on_c, 1, 60, 57
2, 111184, Control_c, 1, 64, 0
2, 111204, Note_on_c, 1, 80, 77
2, 111236, Control_c, 1, 64, 127
2, 111248, Note_off_c, 1, 77, 64
2, 111292, Note_off_c, 1, 60, 64
2, 111296, Note_off_c, 1, 48, 64
2, 111304, Note_off_c, 1, 80, 64
2, 111316, Note_on_c, 1, 87, 71
2, 111420, Note_on_c, 1, 47, 59
2, 111420, Note_on_c, 1, 59, 55
2, 111424, Control_c, 1, 64, 0
2, 111476, Control_c, 1, 64, 127
2, 111504, Note_off_c, 1, 59, 64
2, 111512, Note_off_c, 1, 47, 64
2, 111528, Note_on_c, 1, 80, 66
2, 111560, Note_off_c, 1, 87, 64
2, 111580, Note_off_c, 1, 80, 64
2, 111644, Control_c, 1, 64, 0
2, 111660, Note_on_c, 1, 46, 55
2, 111664, Note_on_c, 1, 58, 46
2, 111664, Note_on_c, 1, 79, 66
2, 111664, Control_c, 1, 64, 127
2, 111684, Note_off_c, 1, 46, 64
2, 111724, Note_off_c, 1, 58, 64
2, 111760, Note_off_c, 1, 79, 64
2, 111764, Note_on_c, 1, 75, 53
2, 111828, Note_off_c, 1, 75, 64
2, 111896, Note_on_c, 1, 79, 64
2, 111904, Note_on_c, 1, 55, 35
2, 111908, Note_on_c, 1, 63, 33
2, 111920, Note_on_c, 1, 58, 26
2, 111924, Note_off_c, 1, 79, 64
2, 111936, Note_off_c, 1, 63, 64
2, 111948, Note_off_c, 1, 55, 0
2, 111960, Note_off_c, 1, 58, 0
2, 112188, Note_on_c, 1, 78, 55
2, 112188, Note_on_c, 1, 45, 54
2, 112196, Note_on_c, 1, 75, 44
2, 112196, Note_on_c, 1, 72, 54
2, 112204, Note_on_c, 1, 57, 52
2, 112216, Control_c, 1, 64, 0
2, 112264, Control_c, 1, 64, 127
2, 112344, Note_off_c, 1, 57, 64
2, 112356, Note_off_c, 1, 75, 64
2, 112356, Note_off_c, 1, 72, 64
2, 112368, Note_off_c, 1, 78, 64
2, 112372, Note_off_c, 1, 45, 64
2, 112604, Control_c, 1, 64, 0
2, 112676, Note_on_c, 1, 46, 55
2, 112676, Control_c, 1, 64, 127
2, 112680, Note_on_c, 1, 58, 49
2, 112688, Note_on_c, 1, 75, 53
2, 112696, Note_on_c, 1, 70, 46
2, 112696, Note_on_c, 1, 79, 60
2, 112704, Note_off_c, 1, 46, 64
2, 112728, Note_off_c, 1, 58, 64
2, 112736, Note_off_c, 1, 70, 64
2, 112740, Note_off_c, 1, 75, 64
2, 112784, Note_off_c, 1, 79, 64
2, 112804, Note_on_c, 1, 70, 64
2, 112904, Note_off_c, 1, 70, 64
2, 112904, Note_on_c, 1, 55, 61
2, 112908, Note_on_c, 1, 79, 73
2, 112908, Note_on_c, 1, 63, 51
2, 112932, Note_off_c, 1, 63, 64
2, 112936, Note_off_c, 1, 55, 64
2, 113012, Note_off_c, 1, 79, 64
2, 113024, Note_on_c, 1, 77, 73
2, 113120, Control_c, 1, 64, 0
2, 113132, Note_off_c, 1, 77, 64
2, 113136, Note_on_c, 1, 75, 66
2, 113144, Note_on_c, 1, 48, 60
2, 113144, Note_on_c, 1, 60, 54
2, 113148, Note_on_c, 1, 69, 44
2, 113148, Control_c, 1, 64, 127
2, 113188, Note_off_c, 1, 75, 64
2, 113188, Note_off_c, 1, 60, 64
2, 113192, Note_off_c, 1, 69, 64
2, 113204, Note_off_c, 1, 48, 64
2, 113268, Control_c, 1, 64, 0
2, 113380, Control_c, 1, 64, 127
2, 113384, Note_on_c, 1, 46, 50
2, 113384, Note_on_c, 1, 77, 60
2, 113388, Note_on_c, 1, 68, 50
2, 113388, Note_on_c, 1, 58, 47
2, 113388, Note_on_c, 1, 74, 60
2, 113416, Note_off_c, 1, 46, 64
2, 113428, Note_off_c, 1, 58, 64
2, 113432, Note_off_c, 1, 68, 64
2, 113464, Note_off_c, 1, 77, 64
2, 113468, Note_off_c, 1, 74, 64
2, 113556, Control_c, 1, 64, 0
2, 113644, Note_on_c, 1, 75, 54
2, 113644, Control_c, 1, 64, 127
2, 113648, Note_on_c, 1, 67, 57
2, 113656, Note_on_c, 1, 51, 31
2, 113660, Note_on_c, 1, 58, 29
2, 113660, Note_on_c, 1, 63, 30
2, 113684, Note_off_c, 1, 75, 64
2, 113688, Note_off_c, 1, 67, 64
2, 113700, Note_off_c, 1, 51, 64
2, 113704, Note_off_c, 1, 58, 64
2, 113704, Note_off_c, 1, 63, 64
2, 113888, Note_on_c, 1, 70, 71
2, 113900, Control_c, 1, 64, 0
2, 113952, Note_off_c, 1, 70, 64
2, 114020, Note_on_c, 1, 70, 62
2, 114100, Note_off_c, 1, 70, 64
2, 114148, Control_c, 1, 64, 127
2, 114168, Note_on_c, 1, 70, 62
2, 114168, Note_on_c, 1, 62, 59
2, 114176, Note_on_c, 1, 58, 49
2, 114180, Note_on_c, 1, 65, 55
2, 114180, Note_on_c, 1, 56, 52
2, 114204, Note_off_c, 1, 65, 64
2, 114208, Note_off_c, 1, 62, 64
2, 114208, Note_off_c, 1, 56, 64
2, 114216, Note_off_c, 1, 58, 64
2, 114400, Note_off_c, 1, 70, 64
2, 114480, Note_on_c, 1, 70, 64
2, 114484, Note_on_c, 1, 46, 71
2, 114484, Control_c, 1, 64, 0
2, 114484, Control_c, 1, 64, 127
2, 114528, Note_off_c, 1, 46, 64
2, 114580, Note_off_c, 1, 70, 64
2, 114788, Note_on_c, 1, 67, 65
2, 114796, Note_on_c, 1, 70, 57
2, 114796, Note_on_c, 1, 51, 44
2, 114824, Control_c, 1, 64, 0
2, 114836, Note_off_c, 1, 70, 64
2, 114840, Note_off_c, 1, 67, 64
2, 114936, Note_on_c, 1, 70, 60
2, 114940, Note_on_c, 1, 67, 59
2, 115060, Control_c, 1, 64, 127
2, 115068, Note_on_c, 1, 55, 65
2, 115068, Note_on_c, 1, 58, 54
2, 115080, Note_off_c, 1, 70, 64
2, 115080, Note_off_c, 1, 67, 64
2, 115080, Note_on_c, 1, 63, 55
2, 115092, Note_off_c, 1, 58, 64
2, 115096, Note_off_c, 1, 55, 64
2, 115100, Note_off_c, 1, 63, 64
2, 115120, Note_off_c, 1, 51, 64
2, 115196, Note_on_c, 1, 68, 60
2, 115196, Note_on_c, 1, 65, 62
2, 115224, Note_off_c, 1, 65, 64
2, 115228, Note_off_c, 1, 68, 64
2, 115320, Note_on_c, 1, 67, 70
2, 115320, Control_c, 1, 64, 0
2, 115324, Control_c, 1, 64, 127
2, 115328, Note_on_c, 1, 46, 62
2, 115340, Note_on_c, 1, 63, 43
2, 115356, Note_off_c, 1, 46, 64
2, 115364, Note_off_c, 1, 67, 64
2, 115440, Note_on_c, 1, 66, 61
2, 115480, Note_off_c, 1, 66, 64
2, 115488, Note_off_c, 1, 63, 64
2, 115568, Note_on_c, 1, 67, 66
2, 115568, Note_on_c, 1, 63, 59
2, 115576, Note_on_c, 1, 55, 62
2, 115588, Note_on_c, 1, 58, 26
2, 115616, Note_off_c, 1, 67, 64
2, 115616, Note_off_c, 1, 63, 64
2, 115688, Note_on_c, 1, 67, 62
2, 115688, Note_on_c, 1, 70, 61
2, 115708, Note_off_c, 1, 67, 64
2, 115712, Note_off_c, 1, 70, 64
2, 115860, Note_off_c, 1, 58, 64
2, 115860, Note_on_c, 1, 75, 64
2, 115860, Note_on_c, 1, 51, 44
2, 115864, Note_off_c, 1, 55, 64
2, 115864, Note_on_c, 1, 67, 60
2, 115864, Control_c, 1, 64, 0
2, 115888, Control_c, 1, 64, 127
2, 115924, Note_off_c, 1, 67, 64
2, 115932, Note_off_c, 1, 75, 64
2, 116108, Note_on_c, 1, 82, 66
2, 116108, Note_on_c, 1, 63, 53
2, 116108, Note_on_c, 1, 58, 49
2, 116116, Note_on_c, 1, 75, 56
2, 116116, Note_on_c, 1, 55, 48
2, 116116, Note_on_c, 1, 79, 73
2, 116140, Note_off_c, 1, 63, 64
2, 116140, Note_off_c, 1, 58, 64
2, 116148, Note_off_c, 1, 79, 64
2, 116156, Note_off_c, 1, 55, 64
2, 116160, Note_off_c, 1, 75, 64
2, 116168, Note_off_c, 1, 51, 64
2, 116168, Note_off_c, 1, 82, 64
2, 116248, Note_on_c, 1, 79, 80
2, 116256, Note_on_c, 1, 75, 60
2, 116348, Control_c, 1, 64, 0
2, 116368, Control_c, 1, 64, 127
2, 116380, Note_on_c, 1, 46, 68
2, 116408, Note_off_c, 1, 46, 64
2, 116412, Note_off_c, 1, 79, 64
2, 116420, Note_off_c, 1, 75, 64
2, 116504, Note_on_c, 1, 84, 71
2, 116516, Note_on_c, 1, 75, 61
2, 116520, Note_on_c, 1, 79, 59
2, 116544, Note_off_c, 1, 75, 64
2, 116544, Note_off_c, 1, 79, 64
2, 116556, Note_off_c, 1, 84, 64
2, 116660, Note_on_c, 1, 82, 66
2, 116660, Note_on_c, 1, 79, 75
2, 116664, Note_on_c, 1, 75, 59
2, 116664, Note_on_c, 1, 55, 60
2, 116668, Note_on_c, 1, 63, 51
2, 116680, Note_off_c, 1, 82, 64
2, 116680, Note_off_c, 1, 79, 64
2, 116684, Note_off_c, 1, 75, 64
2, 116684, Note_on_c, 1, 58, 47
2, 116896, Control_c, 1, 64, 0
2, 116900, Note_on_c, 1, 51, 45
2, 116908, Note_off_c, 1, 55, 64
2, 116908, Note_off_c, 1, 58, 64
2, 116912, Note_off_c, 1, 63, 64
2, 116916, Note_on_c, 1, 70, 59
2, 116916, Note_on_c, 1, 67, 62
2, 116916, Control_c, 1, 64, 127
2, 116948, Note_off_c, 1, 70, 64
2, 116948, Note_off_c, 1, 67, 64
2, 117028, Note_on_c, 1, 67, 68
2, 117028, Note_on_c, 1, 70, 63
2, 117148, Note_on_c, 1, 63, 55
2, 117148, Note_on_c, 1, 55, 65
2, 117160, Note_off_c, 1, 67, 0
2, 117168, Note_off_c, 1, 70, 0
2, 117172, Note_off_c, 1, 63, 64
2, 117176, Note_off_c, 1, 55, 64
2, 117180, Note_off_c, 1, 51, 0
2, 117264, Note_on_c, 1, 68, 62
2, 117264, Note_on_c, 1, 65, 64
2, 117284, Note_off_c, 1, 68, 64
2, 117288, Note_off_c, 1, 65, 64
2, 117384, Note_on_c, 1, 67, 66
2, 117388, Note_on_c, 1, 46, 63
2, 117388, Note_on_c, 1, 63, 57
2, 117420, Note_off_c, 1, 46, 64
2, 117460, Note_off_c, 1, 63, 64
2, 117472, Note_off_c, 1, 67, 64
2, 117500, Note_on_c, 1, 66, 64
2, 117504, Note_on_c, 1, 63, 48
2, 117532, Note_off_c, 1, 66, 64
2, 117532, Note_off_c, 1, 63, 64
2, 117624, Note_on_c, 1, 67, 65
2, 117628, Note_on_c, 1, 63, 57
2, 117636, Note_on_c, 1, 55, 64
2, 117644, Note_on_c, 1, 58, 41
2, 117652, Note_off_c, 1, 67, 64
2, 117656, Note_off_c, 1, 63, 64
2, 117736, Note_on_c, 1, 67, 62
2, 117740, Note_on_c, 1, 70, 60
2, 117756, Note_off_c, 1, 67, 64
2, 117768, Note_off_c, 1, 70, 64
2, 117888, Note_on_c, 1, 51, 60
2, 117896, Note_on_c, 1, 75, 65
2, 117900, Control_c, 1, 64, 0
2, 117908, Note_off_c, 1, 55, 64
2, 117908, Note_off_c, 1, 58, 64
2, 117908, Note_on_c, 1, 67, 64
2, 117920, Control_c, 1, 64, 127
2, 117956, Note_off_c, 1, 67, 64
2, 117968, Note_off_c, 1, 75, 64
2, 118140, Note_on_c, 1, 82, 75
2, 118144, Note_on_c, 1, 75, 52
2, 118148, Note_on_c, 1, 79, 78
2, 118148, Note_on_c, 1, 55, 45
2, 118160, Note_on_c, 1, 63, 50
2, 118160, Note_on_c, 1, 58, 35
2, 118184, Note_off_c, 1, 75, 64
2, 118188, Note_off_c, 1, 79, 64
2, 118192, Note_off_c, 1, 63, 64
2, 118200, Note_off_c, 1, 82, 64
2, 118204, Note_off_c, 1, 58, 64
2, 118236, Note_off_c, 1, 55, 64
2, 118288, Note_on_c, 1, 79, 77
2, 118296, Note_off_c, 1, 51, 64
2, 118296, Note_on_c, 1, 75, 62
2, 118408, Note_on_c, 1, 51, 73
2, 118408, Control_c, 1, 64, 0
2, 118416, Note_on_c, 1, 39, 75
2, 118420, Note_off_c, 1, 79, 64
2, 118436, Note_off_c, 1, 75, 64
2, 118436, Control_c, 1, 64, 127
2, 118540, Note_on_c, 1, 84, 77
2, 118544, Note_on_c, 1, 75, 64
2, 118544, Note_on_c, 1, 79, 77
2, 118576, Note_off_c, 1, 39, 64
2, 118588, Note_off_c, 1, 51, 64
2, 118588, Note_off_c, 1, 84, 64
2, 118588, Note_off_c, 1, 75, 64
2, 118596, Note_off_c, 1, 79, 64
2, 118696, Note_on_c, 1, 40, 75
2, 118696, Note_on_c, 1, 52, 77
2, 118696, Note_on_c, 1, 73, 61
2, 118704, Note_on_c, 1, 82, 70
2, 118704, Note_on_c, 1, 79, 73
2, 118704, Control_c, 1, 64, 0
2, 118724, Control_c, 1, 64, 127
2, 118756, Note_off_c, 1, 79, 64
2, 118764, Note_off_c, 1, 73, 64
2, 118764, Note_off_c, 1, 82, 0
2, 118840, Note_off_c, 1, 40, 0
2, 118856, Note_off_c, 1, 52, 0
2, 118936, Control_c, 1, 64, 0
2, 118948, Note_on_c, 1, 80, 68
2, 118956, Note_on_c, 1, 53, 68
2, 118956, Note_on_c, 1, 41, 66
2, 118960, Note_on_c, 1, 74, 73
2, 118960, Control_c, 1, 64, 127
2, 118984, Note_off_c, 1, 41, 64
2, 118996, Note_off_c, 1, 80, 64
2, 119000, Note_off_c, 1, 53, 64
2, 119008, Note_off_c, 1, 74, 64
2, 119084, Note_on_c, 1, 80, 62
2, 119088, Note_on_c, 1, 74, 68
2, 119184, Note_off_c, 1, 80, 64
2, 119188, Note_off_c, 1, 74, 64
2, 119196, Note_on_c, 1, 56, 54
2, 119204, Note_on_c, 1, 58, 60
2, 119204, Note_on_c, 1, 62, 58
2, 119224, Note_off_c, 1, 58, 64
2, 119224, Note_off_c, 1, 62, 64
2, 119228, Note_off_c, 1, 56, 64
2, 119320, Note_on_c, 1, 79, 68
2, 119320, Note_on_c, 1, 74, 61
2, 119348, Note_off_c, 1, 79, 64
2, 119360, Note_off_c, 1, 74, 64
2, 119428, Control_c, 1, 64, 0
2, 119444, Note_on_c, 1, 46, 54
2, 119448, Note_on_c, 1, 34, 55
2, 119448, Note_on_c, 1, 77, 70
2, 119460, Control_c, 1, 64, 127
2, 119464, Note_on_c, 1, 74, 63
2, 119468, Note_off_c, 1, 34, 64
2, 119504, Note_off_c, 1, 46, 64
2, 119560, Note_off_c, 1, 77, 64
2, 119576, Note_on_c, 1, 76, 63
2, 119696, Note_on_c, 1, 77, 75
2, 119700, Note_on_c, 1, 56, 48
2, 119700, Note_on_c, 1, 62, 57
2, 119704, Note_on_c, 1, 58, 45
2, 119708, Note_off_c, 1, 76, 64
2, 119728, Note_off_c, 1, 56, 64
2, 119732, Note_off_c, 1, 62, 64
2, 119732, Note_off_c, 1, 58, 64
2, 119816, Note_off_c, 1, 74, 64
2, 119816, Note_on_c, 1, 78, 65
2, 119820, Note_off_c, 1, 77, 64
2, 119836, Note_off_c, 1, 78, 64
2, 119920, Control_c, 1, 64, 0
2, 119936, Control_c, 1, 64, 127
2, 119944, Note_on_c, 1, 39, 62
2, 119944, Note_on_c, 1, 51, 60
2, 119948, Note_on_c, 1, 67, 68
2, 119948, Note_on_c, 1, 79, 77
2, 119960, Note_on_c, 1, 75, 62
2, 119964, Note_off_c, 1, 39, 64
2, 119968, Note_off_c, 1, 75, 64
2, 119976, Note_off_c, 1, 51, 64
2, 119976, Note_off_c, 1, 67, 64
2, 119988, Note_off_c, 1, 79, 64
2, 120080, Note_on_c, 1, 80, 66
2, 120080, Note_on_c, 1, 68, 71
2, 120104, Note_off_c, 1, 80, 64
2, 120108, Note_off_c, 1, 68, 64
2, 120196, Note_on_c, 1, 63, 54
2, 120196, Note_on_c, 1, 55, 63
2, 120200, Note_on_c, 1, 82, 68
2, 120204, Note_on_c, 1, 70, 65
2, 120204, Note_on_c, 1, 58, 34
2, 120224, Note_off_c, 1, 63, 64
2, 120228, Note_off_c, 1, 55, 64
2, 120228, Note_off_c, 1, 82, 64
2, 120232, Note_off_c, 1, 70, 64
2, 120232, Note_off_c, 1, 58, 64
2, 120320, Note_on_c, 1, 72, 73
2, 120328, Note_on_c, 1, 84, 85
2, 120444, Note_on_c, 1, 43, 71
2, 120444, Note_on_c, 1, 55, 75
2, 120444, Control_c, 1, 64, 0
2, 120472, Note_off_c, 1, 72, 0
2, 120476, Control_c, 1, 64, 127
2, 120492, Note_off_c, 1, 84, 0
2, 120564, Note_on_c, 1, 86, 73
2, 120568, Note_on_c, 1, 74, 80
2, 120584, Note_off_c, 1, 55, 64
2, 120588, Note_off_c, 1, 43, 64
2, 120588, Note_off_c, 1, 74, 64
2, 120604, Note_off_c, 1, 86, 64
2, 120700, Note_on_c, 1, 54, 73
2, 120708, Note_on_c, 1, 87, 71
2, 120708, Note_on_c, 1, 42, 75
2, 120708, Note_on_c, 1, 75, 70
2, 120708, Control_c, 1, 64, 0
2, 120740, Control_c, 1, 64, 127
2, 120804, Note_off_c, 1, 54, 64
2, 120808, Note_off_c, 1, 42, 64
2, 120820, Note_off_c, 1, 87, 64
2, 120820, Note_off_c, 1, 75, 64
2, 120920, Control_c, 1, 64, 0
2, 120944, Note_on_c, 1, 41, 73
2, 120948, Note_on_c, 1, 53, 71
2, 120948, Note_on_c, 1, 86, 73
2, 120948, Control_c, 1, 64, 127
2, 120956, Note_on_c, 1, 74, 77
2, 120980, Note_off_c, 1, 74, 64
2, 120984, Note_off_c, 1, 41, 64
2, 120988, Note_off_c, 1, 86, 64
2, 120992, Note_off_c, 1, 53, 64
2, 121080, Note_on_c, 1, 87, 62
2, 121080, Note_on_c, 1, 75, 68
2, 121132, Note_off_c, 1, 75, 64
2, 121152, Note_off_c, 1, 87, 64
2, 121188, Note_on_c, 1, 53, 75
2, 121196, Note_on_c, 1, 62, 63
2, 121196, Note_on_c, 1, 58, 57
2, 121216, Note_off_c, 1, 53, 64
2, 121216, Note_off_c, 1, 58, 64
2, 121220, Note_off_c, 1, 62, 64
2, 121224, Note_on_c, 1, 76, 70
2, 121224, Note_on_c, 1, 88, 75
2, 121252, Note_off_c, 1, 76, 64
2, 121264, Note_off_c, 1, 88, 64
2, 121336, Note_on_c, 1, 89, 70
2, 121336, Note_on_c, 1, 77, 66
2, 121416, Control_c, 1, 64, 0
2, 121440, Note_off_c, 1, 89, 64
2, 121448, Note_on_c, 1, 41, 65
2, 121448, Note_on_c, 1, 53, 68
2, 121448, Control_c, 1, 64, 127
2, 121468, Note_off_c, 1, 77, 64
2, 121476, Note_off_c, 1, 41, 64
2, 121488, Note_off_c, 1, 53, 64
2, 121568, Note_on_c, 1, 77, 66
2, 121592, Note_off_c, 1, 77, 64
2, 121700, Note_on_c, 1, 53, 64
2, 121700, Note_on_c, 1, 84, 70
2, 121704, Note_on_c, 1, 57, 64
2, 121704, Note_on_c, 1, 75, 57
2, 121716, Note_off_c, 1, 75, 64
2, 121728, Note_off_c, 1, 84, 64
2, 121744, Note_off_c, 1, 53, 64
2, 121744, Note_off_c, 1, 57, 64
2, 121948, Note_on_c, 1, 74, 64
2, 121948, Note_on_c, 1, 58, 54
2, 121948, Note_on_c, 1, 82, 64
2, 121948, Note_on_c, 1, 46, 50
2, 121948, Note_on_c, 1, 53, 58
2, 121956, Control_c, 1, 64, 0
2, 121988, Control_c, 1, 64, 127
2, 122036, Note_off_c, 1, 58, 64
2, 122040, Note_off_c, 1, 53, 64
2, 122052, Note_off_c, 1, 46, 64
2, 122204, Note_on_c, 1, 53, 64
2, 122208, Control_c, 1, 64, 0
2, 122228, Control_c, 1, 64, 127
2, 122236, Note_off_c, 1, 74, 0
2, 122240, Note_off_c, 1, 82, 0
2, 122276, Note_off_c, 1, 53, 64
2, 122476, Note_on_c, 1, 50, 39
2, 122488, Control_c, 1, 64, 0
2, 122504, Control_c, 1, 64, 127
2, 122584, Note_off_c, 1, 50, 64
2, 122804, Note_on_c, 1, 68, 52
2, 122808, Note_on_c, 1, 70, 48
2, 122816, Note_on_c, 1, 46, 37
2, 122816, Control_c, 1, 64, 0
2, 122840, Control_c, 1, 64, 127
2, 122864, Note_off_c, 1, 46, 64
2, 122904, Note_off_c, 1, 68, 64
2, 122908, Note_off_c, 1, 70, 64
2, 123136, Note_on_c, 1, 70, 49
2, 123136, Note_on_c, 1, 67, 48
2, 123140, Note_on_c, 1, 51, 34
2, 123156, Control_c, 1, 64, 0
2, 123188, Note_off_c, 1, 70, 64
2, 123200, Note_off_c, 1, 67, 64
2, 123264, Control_c, 1, 64, 127
2, 123276, Note_on_c, 1, 67, 55
2, 123276, Note_on_c, 1, 70, 58
2, 123316, Note_off_c, 1, 70, 64
2, 123336, Note_off_c, 1, 67, 64
2, 123388, Note_on_c, 1, 63, 40
2, 123404, Note_on_c, 1, 58, 28
2, 123404, Note_on_c, 1, 55, 28
2, 123440, Note_off_c, 1, 63, 64
2, 123448, Note_off_c, 1, 58, 64
2, 123452, Note_off_c, 1, 55, 64
2, 123480, Note_off_c, 1, 51, 64
2, 123516, Note_on_c, 1, 68, 56
2, 123516, Note_on_c, 1, 65, 53
2, 123536, Note_off_c, 1, 68, 64
2, 123536, Note_off_c, 1, 65, 64
2, 123624, Note_on_c, 1, 46, 57
2, 123628, Note_on_c, 1, 67, 61
2, 123640, Note_on_c, 1, 63, 51
2, 123656, Note_off_c, 1, 46, 64
2, 123740, Note_on_c, 1, 66, 71
2, 123748, Note_off_c, 1, 67, 64
2, 123760, Note_off_c, 1, 63, 64
2, 123772, Note_off_c, 1, 66, 0
2, 123856, Note_on_c, 1, 67, 68
2, 123856, Note_on_c, 1, 63, 61
2, 123860, Note_on_c, 1, 55, 62
2, 123864, Note_on_c, 1, 58, 38
2, 123896, Note_off_c, 1, 63, 64
2, 123900, Note_off_c, 1, 67, 64
2, 123956, Note_on_c, 1, 67, 71
2, 123960, Note_on_c, 1, 70, 66
2, 123984, Note_off_c, 1, 67, 64
2, 123988, Note_off_c, 1, 70, 64
2, 124124, Note_on_c, 1, 51, 49
2, 124128, Note_off_c, 1, 58, 64
2, 124132, Note_off_c, 1, 55, 64
2, 124136, Note_on_c, 1, 75, 63
2, 124144, Note_on_c, 1, 67, 59
2, 124188, Note_off_c, 1, 67, 64
2, 124196, Note_off_c, 1, 75, 64
2, 124364, Note_on_c, 1, 82, 70
2, 124364, Note_on_c, 1, 75, 62
2, 124376, Note_on_c, 1, 55, 35
2, 124376, Note_on_c, 1, 58, 46
2, 124376, Note_on_c, 1, 63, 44
2, 124396, Note_off_c, 1, 75, 64
2, 124404, Note_off_c, 1, 63, 64
2, 124408, Note_off_c, 1, 58, 64
2, 124416, Note_off_c, 1, 82, 64
2, 124420, Note_off_c, 1, 55, 64
2, 124428, Note_off_c, 1, 51, 64
2, 124504, Note_on_c, 1, 75, 60
2, 124504, Note_on_c, 1, 79, 75
2, 124620, Control_c, 1, 64, 0
2, 124628, Note_on_c, 1, 46, 71
2, 124636, Control_c, 1, 64, 127
2, 124664, Note_off_c, 1, 75, 64
2, 124664, Note_off_c, 1, 79, 64
2, 124668, Note_off_c, 1, 46, 64
2, 124744, Note_on_c, 1, 84, 66
2, 124748, Note_on_c, 1, 75, 60
2, 124748, Note_on_c, 1, 79, 73
2, 124780, Note_off_c, 1, 79, 64
2, 124788, Note_off_c, 1, 84, 64
2, 124796, Note_off_c, 1, 75, 64
2, 124888, Note_on_c, 1, 55, 66
2, 124888, Note_on_c, 1, 75, 56
2, 124896, Note_on_c, 1, 79, 85
2, 124896, Note_on_c, 1, 82, 63
2, 124896, Note_on_c, 1, 58, 55
2, 124896, Note_on_c, 1, 63, 49
2, 124908, Note_off_c, 1, 75, 64
2, 124908, Note_off_c, 1, 79, 64
2, 124908, Note_off_c, 1, 82, 64
2, 124920, Note_off_c, 1, 55, 64
2, 124920, Note_off_c, 1, 58, 64
2, 124920, Note_off_c, 1, 63, 64
2, 125136, Control_c, 1, 64, 0
2, 125140, Note_on_c, 1, 50, 63
2, 125160, Note_on_c, 1, 79, 77
2, 125164, Note_on_c, 1, 71, 59
2, 125188, Control_c, 1, 64, 127
2, 125200, Note_off_c, 1, 71, 64
2, 125208, Note_off_c, 1, 79, 64
2, 125304, Note_on_c, 1, 79, 82
2, 125308, Note_on_c, 1, 71, 70
2, 125412, Note_off_c, 1, 79, 64
2, 125416, Note_on_c, 1, 59, 73
2, 125420, Note_on_c, 1, 55, 62
2, 125420, Note_on_c, 1, 65, 62
2, 125432, Note_off_c, 1, 71, 0
2, 125444, Note_off_c, 1, 59, 64
2, 125444, Note_off_c, 1, 65, 64
2, 125448, Note_off_c, 1, 55, 64
2, 125468, Note_off_c, 1, 50, 64
2, 125524, Note_on_c, 1, 79, 80
2, 125524, Note_on_c, 1, 71, 60
2, 125564, Note_off_c, 1, 79, 64
2, 125648, Note_on_c, 1, 80, 73
2, 125648, Control_c, 1, 64, 0
2, 125656, Note_on_c, 1, 43, 77
2, 125676, Control_c, 1, 64, 127
2, 125696, Note_off_c, 1, 43, 64
2, 125748, Note_off_c, 1, 80, 64
2, 125768, Note_on_c, 1, 79, 73
2, 125872, Note_off_c, 1, 79, 64
2, 125884, Note_on_c, 1, 74, 73
2, 125896, Note_on_c, 1, 59, 64
2, 125896, Note_on_c, 1, 55, 62
2, 125896, Note_on_c, 1, 65, 60
2, 125916, Note_off_c, 1, 65, 64
2, 125920, Note_off_c, 1, 59, 64
2, 125920, Note_off_c, 1, 55, 64
2, 126012, Note_off_c, 1, 74, 64
2, 126016, Note_on_c, 1, 77, 70
2, 126028, Note_off_c, 1, 71, 64
2, 126040, Note_off_c, 1, 77, 64
2, 126128, Control_c, 1, 64, 0
2, 126140, Note_on_c, 1, 60, 62
2, 126140, Note_on_c, 1, 75, 70
2, 126140, Note_on_c, 1, 48, 62
2, 126144, Note_on_c, 1, 72, 68
2, 126164, Control_c, 1, 64, 127
2, 126188, Note_off_c, 1, 48, 64
2, 126212, Note_off_c, 1, 60, 64
2, 126268, Note_off_c, 1, 75, 64
2, 126268, Note_on_c, 1, 77, 75
2, 126368, Note_off_c, 1, 77, 64
2, 126388, Note_on_c, 1, 79, 77
2, 126388, Note_on_c, 1, 55, 59
2, 126396, Note_on_c, 1, 63, 49
2, 126400, Note_off_c, 1, 79, 64
2, 126400, Note_on_c, 1, 60, 60
2, 126412, Note_off_c, 1, 55, 64
2, 126424, Note_off_c, 1, 63, 64
2, 126424, Note_off_c, 1, 60, 64
2, 126520, Note_on_c, 1, 84, 77
2, 126624, Note_on_c, 1, 51, 54
2, 126640, Control_c, 1, 64, 0
2, 126740, Note_on_c, 1, 79, 68
2, 126748, Note_off_c, 1, 84, 64
2, 126756, Control_c, 1, 64, 127
2, 126888, Note_on_c, 1, 55, 34
2, 126888, Note_on_c, 1, 63, 37
2, 126896, Note_on_c, 1, 60, 33
2, 126904, Note_off_c, 1, 79, 64
2, 126916, Note_off_c, 1, 63, 64
2, 126928, Note_off_c, 1, 60, 64
2, 126928, Note_on_c, 1, 84, 68
2, 126948, Note_off_c, 1, 55, 64
2, 126964, Note_off_c, 1, 51, 64
2, 127036, Note_off_c, 1, 72, 64
2, 127140, Control_c, 1, 64, 0
2, 127156, Note_on_c, 1, 53, 80
2, 127156, Note_on_c, 1, 41, 68
2, 127184, Control_c, 1, 64, 127
2, 127224, Note_off_c, 1, 41, 64
2, 127236, Note_off_c, 1, 53, 64
2, 127284, Note_on_c, 1, 80, 77
2, 127296, Note_off_c, 1, 84, 64
2, 127408, Note_off_c, 1, 80, 64
2, 127424, Note_on_c, 1, 79, 88
2, 127424, Note_on_c, 1, 60, 61
2, 127424, Note_on_c, 1, 56, 60
2, 127424, Note_on_c, 1, 65, 66
2, 127448, Note_off_c, 1, 60, 64
2, 127448, Note_off_c, 1, 65, 64
2, 127452, Note_off_c, 1, 56, 64
2, 127528, Note_off_c, 1, 79, 64
2, 127536, Note_on_c, 1, 77, 89
2, 127660, Note_on_c, 1, 48, 73
2, 127668, Note_on_c, 1, 60, 64
2, 127668, Note_on_c, 1, 80, 92
2, 127668, Control_c, 1, 64, 0
2, 127688, Note_off_c, 1, 77, 64
2, 127736, Control_c, 1, 64, 127
2, 127792, Note_off_c, 1, 80, 64
2, 127808, Note_off_c, 1, 60, 64
2, 127808, Note_on_c, 1, 87, 85
2, 127812, Note_off_c, 1, 48, 64
2, 127936, Note_on_c, 1, 47, 71
2, 127936, Note_on_c, 1, 59, 75
2, 127936, Control_c, 1, 64, 0
2, 128028, Control_c, 1, 64, 127
2, 128056, Note_on_c, 1, 80, 88
2, 128060, Note_off_c, 1, 59, 64
2, 128064, Note_off_c, 1, 47, 64
2, 128076, Note_off_c, 1, 87, 64
2, 128104, Note_off_c, 1, 80, 64
2, 128180, Control_c, 1, 64, 0
2, 128184, Note_on_c, 1, 46, 73
2, 128184, Note_on_c, 1, 58, 77
2, 128184, Note_on_c, 1, 79, 95
2, 128216, Control_c, 1, 64, 127
2, 128232, Note_off_c, 1, 46, 64
2, 128264, Note_off_c, 1, 58, 64
2, 128304, Note_off_c, 1, 79, 64
2, 128324, Note_on_c, 1, 75, 92
2, 128368, Note_off_c, 1, 75, 64
2, 128448, Note_on_c, 1, 55, 75
2, 128456, Note_on_c, 1, 79, 90
2, 128456, Note_on_c, 1, 63, 63
2, 128456, Control_c, 1, 64, 0
2, 128464, Note_on_c, 1, 58, 70
2, 128480, Control_c, 1, 64, 127
2, 128488, Note_off_c, 1, 58, 64
2, 128496, Note_off_c, 1, 63, 64
2, 128508, Note_off_c, 1, 55, 64
2, 128516, Note_off_c, 1, 79, 64
2, 128740, Note_on_c, 1, 75, 77
2, 128740, Note_on_c, 1, 78, 89
2, 128740, Note_on_c, 1, 72, 82
2, 128740, Note_on_c, 1, 45, 77
2, 128740, Note_on_c, 1, 57, 75
2, 128748, Control_c, 1, 64, 0
2, 129048, Control_c, 1, 64, 127
2, 129076, Note_off_c, 1, 57, 64
2, 129080, Note_off_c, 1, 45, 64
2, 129080, Note_off_c, 1, 72, 64
2, 129080, Note_off_c, 1, 78, 64
2, 129084, Note_off_c, 1, 75, 64
2, 129200, Control_c, 1, 64, 0
2, 129320, Note_on_c, 1, 46, 64
2, 129324, Note_on_c, 1, 79, 90
2, 129324, Note_on_c, 1, 75, 88
2, 129324, Note_on_c, 1, 70, 68
2, 129324, Note_on_c, 1, 58, 63
2, 129324, Control_c, 1, 64, 127
2, 129348, Note_off_c, 1, 46, 64
2, 129364, Note_off_c, 1, 58, 64
2, 129376, Note_off_c, 1, 70, 64
2, 129412, Note_off_c, 1, 79, 64
2, 129416, Note_off_c, 1, 75, 64
2, 129476, Note_on_c, 1, 70, 75
2, 129516, Note_off_c, 1, 70, 64
2, 129596, Control_c, 1, 64, 0
2, 129604, Note_on_c, 1, 55, 68
2, 129608, Note_on_c, 1, 79, 88
2, 129616, Note_on_c, 1, 58, 62
2, 129616, Note_on_c, 1, 63, 62
2, 129636, Control_c, 1, 64, 127
2, 129668, Note_off_c, 1, 63, 64
2, 129672, Note_off_c, 1, 55, 64
2, 129676, Note_off_c, 1, 58, 64
2, 129720, Note_off_c, 1, 79, 64
2, 129740, Note_on_c, 1, 77, 80
2, 129792, Note_off_c, 1, 77, 64
2, 129884, Note_on_c, 1, 48, 73
2, 129888, Note_on_c, 1, 75, 82
2, 129888, Note_on_c, 1, 60, 65
2, 129896, Note_on_c, 1, 69, 79
2, 129896, Control_c, 1, 64, 0
2, 129980, Control_c, 1, 64, 127
2, 130004, Note_off_c, 1, 69, 64
2, 130016, Note_off_c, 1, 75, 64
2, 130028, Note_off_c, 1, 60, 64
2, 130036, Note_off_c, 1, 48, 64
2, 130224, Note_on_c, 1, 68, 71
2, 130228, Note_on_c, 1, 77, 88
2, 130228, Note_on_c, 1, 74, 75
2, 130228, Note_on_c, 1, 46, 75
2, 130236, Note_on_c, 1, 58, 65
2, 130236, Control_c, 1, 64, 0
2, 130276, Control_c, 1, 64, 127
2, 130328, Note_off_c, 1, 46, 64
2, 130348, Note_off_c, 1, 58, 64
2, 130400, Note_off_c, 1, 74, 64
2, 130408, Note_off_c, 1, 68, 64
2, 130412, Note_off_c, 1, 77, 64
2, 130608, Note_on_c, 1, 67, 68
2, 130608, Note_on_c, 1, 75, 75
2, 130608, Note_on_c, 1, 51, 65
2, 130608, Note_on_c, 1, 58, 71
2, 130608, Note_on_c, 1, 63, 61
2, 130628, Control_c, 1, 64, 0
2, 130676, Control_c, 1, 64, 127
2, 130720, Note_off_c, 1, 63, 64
2, 130760, Note_off_c, 1, 58, 64
2, 130792, Note_off_c, 1, 51, 64
2, 130916, Control_c, 1, 64, 0
2, 131028, Note_on_c, 1, 58, 56
2, 131028, Note_on_c, 1, 46, 53
2, 131028, Control_c, 1, 64, 127
2, 131080, Note_off_c, 1, 58, 64
2, 131080, Note_off_c, 1, 46, 64
2, 131096, Note_off_c, 1, 67, 64
2, 131120, Note_off_c, 1, 75, 64
2, 131356, Control_c, 1, 64, 0
2, 131844, Note_on_c, 1, 87, 102
2, 131844, Note_on_c, 1, 75, 117
2, 131844, Note_on_c, 1, 79, 122
2, 131848, Note_on_c, 1, 39, 122
2, 131848, Note_on_c, 1, 51, 122
2, 131848, Control_c, 1, 64, 127
2, 131952, Note_off_c, 1, 75, 64
2, 131956, Note_off_c, 1, 79, 64
2, 131980, Note_off_c, 1, 51, 64
2, 131984, Note_off_c, 1, 87, 64
2, 132000, Note_off_c, 1, 39, 64
2, 132388, Control_c, 1, 64, 0
2, 132388, End_track
3, 0, Start_track
3, 0, Title_t, "Alessandro Simonetto, piano"
3, 0, Key_signature, 0, "major"
3, 0, End_track
4, 0, Start_track
4, 0, Title_t, "Info: www.kunstderfuge.com/ragtime.htm!"
4, 0, Key_signature, 0, "major"
4, 0, End_track
5, 0, Start_track
5, 0, Title_t, "All rights reserved,  2003-04"
5, 0, Key_signature, 0, "major"
5, 0, End_track
6, 0, Start_track
6, 0, Key_signature, 0, "major"
6, 0, End_track
7, 0, Start_track
7, 0, Key_signature, 0, "major"
7, 0, End_track
8, 0, Start_track
8, 0, Key_signature, 0, "major"
8, 0, End_track
9, 0, Start_track
9, 0, Key_signature, 0, "major"
9, 0, End_track
10, 0, Start_track
10, 0, Key_signature, 0, "major"
10, 0, End_track
11, 0, Start_track
11, 0, Key_signature, 0, "major"
11, 0, End_track
12, 0, Start_track
12, 0, Key_signature, 0, "major"
12, 0, End_track
13, 0, Start_track
13, 0, Key_signature, 0, "major"
13, 0, End_track
14, 0, Start_track
14, 0, Key_signature, 0, "major"
14, 0, End_track
15, 0, Start_track
15, 0, Key_signature, 0, "major"
15, 0, End_track
16, 0, Start_track
16, 0, Key_signature, 0, "major"
16, 0, End_track
17, 0, Start_track
17, 0, Key_signature, 0, "major"
17, 0, End_track
18, 0, Start_track
18, 1, Copyright_t, "___________________________________________________\012\012KUNSTDERFUGE.COM LARGE CLASSICAL MIDI COLLECTION\012ONCLASSICAL BY ALESSANDRO SIMONETTO, PROPRIETOR\012___________________________________________________\012\012! Attention: this file is under copyright !\012\012(c)onclassical, (c)simonetto, 2010\012___________________________________________________\012\012NO ONE MAY REPUBLISH THIS FILE WITHOUT PERMISSION\012COMMERCIAL USES OF THIS FILE IS STRICTLY PROHIBITED\012___________________________________________________\012\012Files & contributor's list: http://kunstderfuge.com/\012Terms and conditions: http://kunstderfuge.com/notes.htm"
18, 1, End_track
0, 0, End_of_file
