0, 0, Header, 1, 8, 192
1, 0, Start_track
1, 0, Title_t, "Cascades Rag"
1, 0, Copyright_t, "May NOT be used for commercial purposes."
1, 0, Text_t, "\012"
1, 0, Text_t, "Roll expression/accent tracks, where present, converted to MIDI velocties.\012"
1, 0, Text_t, "/music_category: Piano_Roll\012"
1, 0, Text_t, "/title: Cascades Rag\012"
1, 0, Text_t, "/subtitle: \012"
1, 0, Text_t, "/roll_type: 88n\012"
1, 0, Text_t, "/roll_manufacturer: Aeolian\012"
1, 0, Text_t, "/roll_number: 1006\012"
1, 0, Text_t, "/performer: \012"
1, 0, Text_t, "/composer: Joplin, Scott\012"
1, 0, Text_t, "/lyricist: \012"
1, 0, Text_t, "/roll_copyright: 1904\012"
1, 0, Text_t, "/roll_date: \012"
1, 0, Text_t, "/scanned_by: Terry Smythe\012"
1, 0, Text_t, "/scan_system: Stibbons Mk3a\012"
1, 0, Text_t, "/date_scanned: 1 Dec 04\012"
1, 0, Text_t, "/owner: Terry Smythe\012"
1, 0, Time_signature, 4, 2, 24, 8
1, 0, Key_signature, 0, "major"
1, 0, Tempo, 500000
1, 0, Marker_t, "Standard MIDI:Standard 88:LPI 116:Tempo  65: 12-01-2004"
1, 0, End_track
2, 0, Start_track
2, 0, Title_t, "Cascades Rag"
2, 0, Program_c, 0, 0
2, 160, Note_on_c, 0, 79, 60
2, 165, Note_on_c, 0, 67, 60
2, 168, Note_on_c, 0, 55, 60
2, 169, Note_on_c, 0, 43, 60
2, 228, Note_on_c, 0, 43, 0
2, 234, Note_on_c, 0, 79, 0
2, 234, Note_on_c, 0, 67, 0
2, 236, Note_on_c, 0, 55, 0
2, 271, Note_on_c, 0, 79, 60
2, 274, Note_on_c, 0, 67, 60
2, 274, Control_c, 0, 64, 127
2, 277, Note_on_c, 0, 55, 60
2, 277, Note_on_c, 0, 43, 60
2, 513, Note_on_c, 0, 81, 60
2, 513, Note_on_c, 0, 69, 60
2, 516, Note_on_c, 0, 57, 60
2, 521, Note_on_c, 0, 45, 60
2, 524, Control_c, 0, 64, 0
2, 534, Note_on_c, 0, 79, 0
2, 536, Note_on_c, 0, 67, 0
2, 539, Note_on_c, 0, 55, 0
2, 541, Note_on_c, 0, 43, 0
2, 633, Note_on_c, 0, 83, 60
2, 633, Note_on_c, 0, 71, 60
2, 636, Note_on_c, 0, 59, 60
2, 638, Note_on_c, 0, 47, 60
2, 656, Note_on_c, 0, 45, 0
2, 661, Note_on_c, 0, 81, 0
2, 664, Note_on_c, 0, 69, 0
2, 664, Note_on_c, 0, 57, 0
2, 696, Note_on_c, 0, 47, 0
2, 704, Note_on_c, 0, 71, 0
2, 707, Note_on_c, 0, 59, 0
2, 712, Note_on_c, 0, 83, 0
2, 753, Note_on_c, 0, 83, 60
2, 755, Note_on_c, 0, 71, 60
2, 758, Note_on_c, 0, 59, 60
2, 761, Note_on_c, 0, 47, 60
2, 987, Note_on_c, 0, 89, 60
2, 989, Note_on_c, 0, 77, 60
2, 992, Note_on_c, 0, 65, 60
2, 995, Note_on_c, 0, 53, 60
2, 1012, Note_on_c, 0, 59, 0
2, 1015, Note_on_c, 0, 47, 0
2, 1018, Note_on_c, 0, 83, 0
2, 1020, Note_on_c, 0, 71, 0
2, 1094, Note_on_c, 0, 89, 0
2, 1097, Note_on_c, 0, 77, 0
2, 1099, Note_on_c, 0, 65, 0
2, 1102, Note_on_c, 0, 53, 0
2, 1104, Note_on_c, 0, 88, 60
2, 1106, Note_on_c, 0, 76, 60
2, 1109, Note_on_c, 0, 64, 60
2, 1109, Note_on_c, 0, 52, 60
2, 1333, Note_on_c, 0, 86, 60
2, 1333, Note_on_c, 0, 74, 60
2, 1339, Note_on_c, 0, 62, 60
2, 1339, Note_on_c, 0, 50, 60
2, 1356, Note_on_c, 0, 64, 0
2, 1359, Note_on_c, 0, 52, 0
2, 1362, Note_on_c, 0, 88, 0
2, 1364, Note_on_c, 0, 76, 0
2, 1430, Control_c, 0, 64, 127
2, 1573, Note_on_c, 0, 91, 60
2, 1573, Note_on_c, 0, 79, 60
2, 1575, Note_on_c, 0, 71, 60
2, 1578, Note_on_c, 0, 67, 60
2, 1578, Note_on_c, 0, 55, 60
2, 1581, Note_on_c, 0, 43, 60
2, 1593, Control_c, 0, 64, 0
2, 1608, Note_on_c, 0, 50, 0
2, 1616, Note_on_c, 0, 67, 0
2, 1616, Note_on_c, 0, 71, 0
2, 1616, Note_on_c, 0, 62, 0
2, 1619, Note_on_c, 0, 55, 0
2, 1619, Note_on_c, 0, 43, 0
2, 1621, Note_on_c, 0, 91, 0
2, 1624, Note_on_c, 0, 79, 0
2, 1624, Note_on_c, 0, 74, 0
2, 1624, Note_on_c, 0, 86, 0
2, 1700, Note_on_c, 0, 66, 60
2, 1703, Note_on_c, 0, 54, 60
2, 1730, Note_on_c, 0, 66, 0
2, 1733, Note_on_c, 0, 54, 0
2, 1758, Note_on_c, 0, 67, 60
2, 1761, Note_on_c, 0, 55, 60
2, 1792, Note_on_c, 0, 67, 0
2, 1795, Note_on_c, 0, 55, 0
2, 1824, Note_on_c, 0, 69, 60
2, 1824, Note_on_c, 0, 57, 60
2, 1848, Note_on_c, 0, 57, 0
2, 1855, Note_on_c, 0, 69, 0
2, 1886, Note_on_c, 0, 71, 60
2, 1889, Note_on_c, 0, 59, 60
2, 1920, Note_on_c, 0, 71, 0
2, 1921, Note_on_c, 0, 59, 0
2, 1949, Note_on_c, 0, 72, 60
2, 1949, Note_on_c, 0, 60, 60
2, 1983, Note_on_c, 0, 60, 0
2, 1983, Note_on_c, 0, 72, 0
2, 2011, Note_on_c, 0, 74, 60
2, 2014, Note_on_c, 0, 62, 60
2, 2041, Note_on_c, 0, 74, 0
2, 2043, Note_on_c, 0, 62, 0
2, 2074, Note_on_c, 0, 76, 60
2, 2077, Note_on_c, 0, 48, 60
2, 2077, Note_on_c, 0, 60, 60
2, 2077, Note_on_c, 0, 64, 60
2, 2108, Note_on_c, 0, 60, 0
2, 2133, Note_on_c, 0, 76, 0
2, 2136, Note_on_c, 0, 64, 0
2, 2136, Note_on_c, 0, 75, 60
2, 2136, Note_on_c, 0, 63, 60
2, 2194, Note_on_c, 0, 75, 0
2, 2194, Note_on_c, 0, 76, 60
2, 2194, Note_on_c, 0, 64, 60
2, 2197, Note_on_c, 0, 60, 60
2, 2197, Note_on_c, 0, 55, 60
2, 2207, Note_on_c, 0, 63, 0
2, 2227, Note_on_c, 0, 60, 0
2, 2227, Note_on_c, 0, 55, 0
2, 2253, Note_on_c, 0, 77, 60
2, 2256, Note_on_c, 0, 76, 0
2, 2256, Note_on_c, 0, 65, 60
2, 2265, Note_on_c, 0, 64, 0
2, 2268, Note_on_c, 0, 48, 0
2, 2314, Note_on_c, 0, 79, 60
2, 2316, Note_on_c, 0, 77, 0
2, 2316, Note_on_c, 0, 65, 0
2, 2316, Note_on_c, 0, 67, 60
2, 2316, Note_on_c, 0, 64, 60
2, 2319, Note_on_c, 0, 52, 60
2, 2373, Note_on_c, 0, 81, 60
2, 2375, Note_on_c, 0, 67, 0
2, 2375, Note_on_c, 0, 79, 0
2, 2375, Note_on_c, 0, 69, 60
2, 2431, Note_on_c, 0, 81, 0
2, 2431, Note_on_c, 0, 84, 60
2, 2433, Note_on_c, 0, 72, 60
2, 2433, Note_on_c, 0, 63, 60
2, 2436, Note_on_c, 0, 51, 60
2, 2444, Note_on_c, 0, 69, 0
2, 2444, Note_on_c, 0, 64, 0
2, 2447, Note_on_c, 0, 52, 0
2, 2490, Note_on_c, 0, 81, 60
2, 2492, Note_on_c, 0, 69, 60
2, 2497, Note_on_c, 0, 84, 0
2, 2499, Note_on_c, 0, 72, 0
2, 2548, Note_on_c, 0, 83, 60
2, 2548, Note_on_c, 0, 71, 60
2, 2550, Note_on_c, 0, 62, 60
2, 2550, Note_on_c, 0, 50, 60
2, 2553, Note_on_c, 0, 51, 0
2, 2558, Note_on_c, 0, 81, 0
2, 2561, Note_on_c, 0, 63, 0
2, 2561, Note_on_c, 0, 69, 0
2, 2607, Note_on_c, 0, 83, 0
2, 2607, Note_on_c, 0, 84, 60
2, 2609, Note_on_c, 0, 72, 60
2, 2616, Note_on_c, 0, 71, 0
2, 2660, Control_c, 0, 64, 127
2, 2663, Note_on_c, 0, 84, 0
2, 2663, Note_on_c, 0, 86, 60
2, 2663, Note_on_c, 0, 74, 60
2, 2665, Note_on_c, 0, 72, 0
2, 2665, Note_on_c, 0, 65, 60
2, 2667, Note_on_c, 0, 59, 60
2, 2667, Note_on_c, 0, 55, 60
2, 2686, Note_on_c, 0, 65, 0
2, 2696, Note_on_c, 0, 59, 0
2, 2696, Note_on_c, 0, 55, 0
2, 2721, Note_on_c, 0, 77, 60
2, 2721, Note_on_c, 0, 65, 60
2, 2734, Note_on_c, 0, 50, 0
2, 2741, Note_on_c, 0, 74, 0
2, 2741, Note_on_c, 0, 62, 0
2, 2749, Note_on_c, 0, 86, 0
2, 2777, Note_on_c, 0, 81, 60
2, 2780, Note_on_c, 0, 77, 0
2, 2780, Note_on_c, 0, 65, 0
2, 2780, Note_on_c, 0, 69, 60
2, 2783, Note_on_c, 0, 55, 60
2, 2783, Note_on_c, 0, 43, 60
2, 2838, Note_on_c, 0, 81, 0
2, 2838, Note_on_c, 0, 79, 60
2, 2841, Note_on_c, 0, 67, 60
2, 2849, Note_on_c, 0, 69, 0
2, 2851, Note_on_c, 0, 55, 0
2, 2897, Note_on_c, 0, 74, 60
2, 2900, Note_on_c, 0, 67, 0
2, 2900, Note_on_c, 0, 79, 0
2, 2900, Note_on_c, 0, 65, 60
2, 2902, Note_on_c, 0, 59, 60
2, 2902, Note_on_c, 0, 62, 60
2, 2902, Note_on_c, 0, 55, 60
2, 2917, Control_c, 0, 64, 0
2, 2930, Note_on_c, 0, 55, 0
2, 2930, Note_on_c, 0, 65, 0
2, 2930, Note_on_c, 0, 59, 0
2, 2948, Note_on_c, 0, 74, 0
2, 2951, Note_on_c, 0, 62, 0
2, 2958, Note_on_c, 0, 75, 60
2, 2960, Note_on_c, 0, 63, 60
2, 2997, Note_on_c, 0, 43, 0
2, 3011, Note_on_c, 0, 63, 0
2, 3019, Note_on_c, 0, 75, 0
2, 3019, Note_on_c, 0, 76, 60
2, 3022, Note_on_c, 0, 64, 60
2, 3022, Note_on_c, 0, 60, 60
2, 3024, Note_on_c, 0, 48, 60
2, 3070, Note_on_c, 0, 76, 0
2, 3072, Note_on_c, 0, 64, 0
2, 3077, Note_on_c, 0, 75, 60
2, 3080, Note_on_c, 0, 63, 60
2, 3091, Note_on_c, 0, 60, 0
2, 3119, Note_on_c, 0, 75, 0
2, 3131, Note_on_c, 0, 63, 0
2, 3139, Note_on_c, 0, 76, 60
2, 3142, Note_on_c, 0, 64, 60
2, 3142, Note_on_c, 0, 60, 60
2, 3144, Note_on_c, 0, 55, 60
2, 3169, Note_on_c, 0, 60, 0
2, 3172, Note_on_c, 0, 55, 0
2, 3200, Note_on_c, 0, 64, 0
2, 3200, Note_on_c, 0, 76, 0
2, 3200, Note_on_c, 0, 65, 60
2, 3200, Note_on_c, 0, 77, 60
2, 3216, Note_on_c, 0, 48, 0
2, 3261, Note_on_c, 0, 79, 60
2, 3264, Note_on_c, 0, 77, 0
2, 3264, Note_on_c, 0, 65, 0
2, 3264, Note_on_c, 0, 67, 60
2, 3264, Note_on_c, 0, 64, 60
2, 3266, Note_on_c, 0, 52, 60
2, 3322, Note_on_c, 0, 79, 0
2, 3322, Note_on_c, 0, 81, 60
2, 3325, Note_on_c, 0, 67, 0
2, 3325, Note_on_c, 0, 69, 60
2, 3378, Note_on_c, 0, 84, 60
2, 3381, Note_on_c, 0, 81, 0
2, 3381, Note_on_c, 0, 72, 60
2, 3381, Note_on_c, 0, 63, 60
2, 3384, Note_on_c, 0, 51, 60
2, 3391, Note_on_c, 0, 69, 0
2, 3393, Note_on_c, 0, 52, 0
2, 3393, Note_on_c, 0, 64, 0
2, 3439, Note_on_c, 0, 72, 0
2, 3439, Note_on_c, 0, 84, 0
2, 3439, Note_on_c, 0, 81, 60
2, 3439, Note_on_c, 0, 69, 60
2, 3498, Note_on_c, 0, 83, 60
2, 3501, Note_on_c, 0, 69, 0
2, 3501, Note_on_c, 0, 81, 0
2, 3501, Note_on_c, 0, 63, 0
2, 3501, Note_on_c, 0, 71, 60
2, 3501, Note_on_c, 0, 62, 60
2, 3503, Note_on_c, 0, 51, 0
2, 3503, Note_on_c, 0, 50, 60
2, 3549, Note_on_c, 0, 83, 0
2, 3549, Note_on_c, 0, 71, 0
2, 3556, Note_on_c, 0, 84, 60
2, 3559, Note_on_c, 0, 72, 60
2, 3612, Note_on_c, 0, 72, 0
2, 3618, Note_on_c, 0, 86, 60
2, 3618, Note_on_c, 0, 74, 60
2, 3620, Note_on_c, 0, 84, 0
2, 3620, Note_on_c, 0, 65, 60
2, 3623, Note_on_c, 0, 59, 60
2, 3623, Note_on_c, 0, 55, 60
2, 3643, Note_on_c, 0, 65, 0
2, 3650, Note_on_c, 0, 59, 0
2, 3650, Note_on_c, 0, 62, 0
2, 3650, Note_on_c, 0, 55, 0
2, 3681, Note_on_c, 0, 77, 60
2, 3681, Note_on_c, 0, 65, 60
2, 3694, Note_on_c, 0, 50, 0
2, 3717, Note_on_c, 0, 86, 0
2, 3720, Note_on_c, 0, 74, 0
2, 3740, Note_on_c, 0, 81, 60
2, 3740, Note_on_c, 0, 69, 60
2, 3743, Note_on_c, 0, 55, 60
2, 3744, Note_on_c, 0, 43, 60
2, 3778, Note_on_c, 0, 77, 0
2, 3780, Note_on_c, 0, 65, 0
2, 3795, Note_on_c, 0, 79, 60
2, 3798, Note_on_c, 0, 69, 0
2, 3798, Note_on_c, 0, 81, 0
2, 3798, Note_on_c, 0, 67, 60
2, 3811, Note_on_c, 0, 55, 0
2, 3844, Note_on_c, 0, 74, 60
2, 3846, Note_on_c, 0, 67, 0
2, 3846, Note_on_c, 0, 62, 60
2, 3846, Note_on_c, 0, 65, 60
2, 3846, Note_on_c, 0, 55, 60
2, 3849, Note_on_c, 0, 59, 60
2, 3854, Note_on_c, 0, 79, 0
2, 3885, Note_on_c, 0, 55, 0
2, 3885, Note_on_c, 0, 65, 0
2, 3885, Note_on_c, 0, 59, 0
2, 3911, Note_on_c, 0, 76, 60
2, 3912, Note_on_c, 0, 74, 0
2, 3912, Note_on_c, 0, 62, 0
2, 3912, Note_on_c, 0, 64, 60
2, 3926, Note_on_c, 0, 43, 0
2, 3969, Note_on_c, 0, 64, 0
2, 3969, Note_on_c, 0, 76, 0
2, 3969, Note_on_c, 0, 65, 60
2, 3969, Note_on_c, 0, 77, 60
2, 3971, Note_on_c, 0, 56, 60
2, 4028, Note_on_c, 0, 74, 60
2, 4030, Note_on_c, 0, 77, 0
2, 4030, Note_on_c, 0, 65, 0
2, 4030, Note_on_c, 0, 62, 60
2, 4030, Note_on_c, 0, 59, 60
2, 4048, Note_on_c, 0, 62, 0
2, 4051, Note_on_c, 0, 59, 0
2, 4060, Note_on_c, 0, 56, 0
2, 4083, Note_on_c, 0, 71, 60
2, 4086, Note_on_c, 0, 74, 0
2, 4086, Note_on_c, 0, 62, 60
2, 4086, Note_on_c, 0, 59, 60
2, 4117, Note_on_c, 0, 62, 0
2, 4145, Note_on_c, 0, 59, 0
2, 4145, Note_on_c, 0, 71, 0
2, 4145, Note_on_c, 0, 65, 60
2, 4145, Note_on_c, 0, 68, 60
2, 4145, Note_on_c, 0, 56, 60
2, 4173, Note_on_c, 0, 65, 0
2, 4200, Note_on_c, 0, 68, 0
2, 4200, Note_on_c, 0, 69, 60
2, 4200, Note_on_c, 0, 64, 60
2, 4203, Note_on_c, 0, 56, 0
2, 4203, Note_on_c, 0, 57, 60
2, 4203, Note_on_c, 0, 60, 60
2, 4231, Note_on_c, 0, 60, 0
2, 4231, Note_on_c, 0, 64, 0
2, 4279, Note_on_c, 0, 69, 0
2, 4282, Note_on_c, 0, 57, 0
2, 4447, Note_on_c, 0, 77, 60
2, 4450, Note_on_c, 0, 65, 60
2, 4453, Note_on_c, 0, 56, 60
2, 4458, Control_c, 0, 64, 127
2, 4506, Note_on_c, 0, 74, 60
2, 4506, Note_on_c, 0, 62, 60
2, 4509, Note_on_c, 0, 56, 0
2, 4509, Note_on_c, 0, 65, 0
2, 4509, Note_on_c, 0, 59, 60
2, 4516, Note_on_c, 0, 77, 0
2, 4529, Note_on_c, 0, 59, 0
2, 4529, Note_on_c, 0, 62, 0
2, 4567, Note_on_c, 0, 71, 60
2, 4570, Note_on_c, 0, 74, 0
2, 4570, Note_on_c, 0, 62, 60
2, 4570, Note_on_c, 0, 59, 60
2, 4610, Note_on_c, 0, 62, 0
2, 4629, Note_on_c, 0, 71, 0
2, 4629, Note_on_c, 0, 68, 60
2, 4629, Note_on_c, 0, 65, 60
2, 4631, Note_on_c, 0, 59, 0
2, 4631, Note_on_c, 0, 56, 60
2, 4667, Control_c, 0, 64, 0
2, 4681, Note_on_c, 0, 56, 0
2, 4681, Note_on_c, 0, 65, 0
2, 4681, Note_on_c, 0, 68, 0
2, 4692, Note_on_c, 0, 69, 60
2, 4692, Note_on_c, 0, 64, 60
2, 4695, Note_on_c, 0, 60, 60
2, 4695, Note_on_c, 0, 57, 60
2, 4723, Note_on_c, 0, 60, 0
2, 4723, Note_on_c, 0, 64, 0
2, 4763, Note_on_c, 0, 57, 0
2, 4774, Note_on_c, 0, 69, 0
2, 4944, Note_on_c, 0, 45, 60
2, 4944, Note_on_c, 0, 36, 60
2, 5005, Note_on_c, 0, 48, 60
2, 5005, Note_on_c, 0, 39, 60
2, 5064, Note_on_c, 0, 51, 60
2, 5066, Note_on_c, 0, 42, 60
2, 5077, Note_on_c, 0, 45, 0
2, 5112, Note_on_c, 0, 54, 60
2, 5114, Note_on_c, 0, 45, 60
2, 5125, Note_on_c, 0, 48, 0
2, 5145, Note_on_c, 0, 36, 0
2, 5181, Note_on_c, 0, 51, 0
2, 5181, Note_on_c, 0, 57, 60
2, 5184, Note_on_c, 0, 48, 60
2, 5202, Note_on_c, 0, 39, 0
2, 5237, Note_on_c, 0, 60, 60
2, 5237, Note_on_c, 0, 51, 60
2, 5247, Note_on_c, 0, 54, 0
2, 5250, Note_on_c, 0, 42, 0
2, 5296, Note_on_c, 0, 63, 60
2, 5296, Note_on_c, 0, 54, 60
2, 5305, Note_on_c, 0, 57, 0
2, 5316, Note_on_c, 0, 45, 0
2, 5352, Note_on_c, 0, 57, 60
2, 5352, Note_on_c, 0, 66, 60
2, 5364, Note_on_c, 0, 48, 0
2, 5372, Note_on_c, 0, 60, 0
2, 5407, Note_on_c, 0, 69, 60
2, 5410, Note_on_c, 0, 60, 60
2, 5423, Note_on_c, 0, 51, 0
2, 5430, Note_on_c, 0, 63, 0
2, 5466, Note_on_c, 0, 72, 60
2, 5469, Note_on_c, 0, 63, 60
2, 5479, Note_on_c, 0, 66, 0
2, 5481, Note_on_c, 0, 54, 0
2, 5524, Note_on_c, 0, 75, 60
2, 5524, Note_on_c, 0, 66, 60
2, 5538, Note_on_c, 0, 57, 0
2, 5538, Note_on_c, 0, 69, 0
2, 5583, Note_on_c, 0, 78, 60
2, 5586, Note_on_c, 0, 69, 60
2, 5596, Note_on_c, 0, 72, 0
2, 5596, Note_on_c, 0, 60, 0
2, 5641, Note_on_c, 0, 81, 60
2, 5641, Note_on_c, 0, 72, 60
2, 5655, Note_on_c, 0, 63, 0
2, 5664, Note_on_c, 0, 75, 0
2, 5703, Note_on_c, 0, 78, 0
2, 5703, Note_on_c, 0, 84, 60
2, 5703, Note_on_c, 0, 75, 60
2, 5723, Note_on_c, 0, 66, 0
2, 5741, Note_on_c, 0, 84, 0
2, 5761, Note_on_c, 0, 87, 60
2, 5761, Note_on_c, 0, 78, 60
2, 5784, Note_on_c, 0, 69, 0
2, 5784, Note_on_c, 0, 81, 0
2, 5792, Note_on_c, 0, 87, 0
2, 5820, Note_on_c, 0, 90, 60
2, 5823, Note_on_c, 0, 81, 60
2, 5843, Note_on_c, 0, 72, 0
2, 5851, Note_on_c, 0, 90, 0
2, 5854, Note_on_c, 0, 81, 0
2, 5877, Note_on_c, 0, 75, 0
2, 5881, Note_on_c, 0, 87, 60
2, 5881, Note_on_c, 0, 92, 60
2, 5881, Note_on_c, 0, 84, 60
2, 5883, Note_on_c, 0, 80, 60
2, 5902, Note_on_c, 0, 78, 0
2, 5973, Note_on_c, 0, 84, 0
2, 5973, Note_on_c, 0, 87, 0
2, 5999, Note_on_c, 0, 90, 60
2, 6000, Note_on_c, 0, 84, 60
2, 6000, Note_on_c, 0, 87, 60
2, 6000, Note_on_c, 0, 78, 60
2, 6003, Note_on_c, 0, 75, 60
2, 6011, Control_c, 0, 64, 127
2, 6022, Note_on_c, 0, 90, 0
2, 6022, Note_on_c, 0, 92, 0
2, 6024, Note_on_c, 0, 87, 0
2, 6024, Note_on_c, 0, 84, 0
2, 6024, Note_on_c, 0, 80, 0
2, 6024, Note_on_c, 0, 78, 0
2, 6059, Note_on_c, 0, 90, 60
2, 6062, Note_on_c, 0, 84, 60
2, 6062, Note_on_c, 0, 87, 60
2, 6062, Note_on_c, 0, 78, 60
2, 6123, Note_on_c, 0, 72, 60
2, 6141, Note_on_c, 0, 87, 0
2, 6141, Note_on_c, 0, 84, 0
2, 6141, Note_on_c, 0, 90, 0
2, 6144, Note_on_c, 0, 78, 0
2, 6164, Note_on_c, 0, 75, 0
2, 6179, Note_on_c, 0, 87, 60
2, 6179, Note_on_c, 0, 90, 60
2, 6179, Note_on_c, 0, 84, 60
2, 6182, Note_on_c, 0, 78, 60
2, 6199, Note_on_c, 0, 90, 0
2, 6202, Note_on_c, 0, 84, 0
2, 6202, Note_on_c, 0, 78, 0
2, 6202, Note_on_c, 0, 87, 0
2, 6238, Note_on_c, 0, 90, 60
2, 6240, Note_on_c, 0, 84, 60
2, 6240, Note_on_c, 0, 87, 60
2, 6240, Note_on_c, 0, 78, 60
2, 6242, Note_on_c, 0, 68, 60
2, 6273, Note_on_c, 0, 72, 0
2, 6309, Note_on_c, 0, 84, 0
2, 6330, Note_on_c, 0, 87, 0
2, 6330, Control_c, 0, 64, 0
2, 6358, Note_on_c, 0, 84, 60
2, 6358, Note_on_c, 0, 88, 60
2, 6358, Note_on_c, 0, 91, 60
2, 6358, Note_on_c, 0, 79, 60
2, 6362, Note_on_c, 0, 67, 60
2, 6367, Note_on_c, 0, 90, 0
2, 6370, Note_on_c, 0, 78, 0
2, 6370, Note_on_c, 0, 68, 0
2, 6480, Note_on_c, 0, 76, 60
2, 6480, Note_on_c, 0, 72, 60
2, 6518, Note_on_c, 0, 72, 0
2, 6518, Note_on_c, 0, 76, 0
2, 6546, Note_on_c, 0, 91, 0
2, 6549, Note_on_c, 0, 79, 0
2, 6569, Note_on_c, 0, 67, 0
2, 6595, Note_on_c, 0, 91, 60
2, 6595, Note_on_c, 0, 79, 60
2, 6597, Note_on_c, 0, 64, 60
2, 6604, Note_on_c, 0, 88, 0
2, 6615, Note_on_c, 0, 84, 0
2, 6655, Note_on_c, 0, 88, 60
2, 6655, Note_on_c, 0, 76, 60
2, 6675, Note_on_c, 0, 76, 0
2, 6696, Note_on_c, 0, 79, 0
2, 6704, Note_on_c, 0, 91, 0
2, 6714, Note_on_c, 0, 84, 60
2, 6717, Note_on_c, 0, 72, 60
2, 6717, Note_on_c, 0, 76, 60
2, 6717, Note_on_c, 0, 67, 60
2, 6734, Note_on_c, 0, 67, 0
2, 6752, Note_on_c, 0, 88, 0
2, 6772, Note_on_c, 0, 79, 60
2, 6775, Note_on_c, 0, 67, 60
2, 6785, Note_on_c, 0, 72, 0
2, 6795, Note_on_c, 0, 64, 0
2, 6814, Note_on_c, 0, 76, 0
2, 6814, Note_on_c, 0, 84, 0
2, 6831, Note_on_c, 0, 81, 60
2, 6831, Note_on_c, 0, 78, 60
2, 6834, Note_on_c, 0, 72, 60
2, 6834, Note_on_c, 0, 69, 60
2, 6837, Note_on_c, 0, 62, 60
2, 6854, Note_on_c, 0, 67, 0
2, 6854, Note_on_c, 0, 79, 0
2, 6902, Note_on_c, 0, 69, 0
2, 6951, Note_on_c, 0, 69, 60
2, 7048, Note_on_c, 0, 62, 0
2, 7056, Note_on_c, 0, 78, 0
2, 7057, Note_on_c, 0, 72, 0
2, 7063, Note_on_c, 0, 77, 60
2, 7063, Note_on_c, 0, 86, 60
2, 7063, Note_on_c, 0, 74, 60
2, 7065, Note_on_c, 0, 81, 0
2, 7065, Note_on_c, 0, 69, 0
2, 7065, Note_on_c, 0, 71, 60
2, 7065, Note_on_c, 0, 67, 60
2, 7083, Note_on_c, 0, 86, 0
2, 7085, Note_on_c, 0, 74, 0
2, 7085, Note_on_c, 0, 77, 0
2, 7124, Note_on_c, 0, 77, 60
2, 7124, Note_on_c, 0, 86, 60
2, 7124, Note_on_c, 0, 74, 60
2, 7205, Note_on_c, 0, 77, 0
2, 7205, Note_on_c, 0, 67, 0
2, 7244, Note_on_c, 0, 79, 60
2, 7244, Note_on_c, 0, 77, 60
2, 7247, Note_on_c, 0, 67, 60
2, 7267, Note_on_c, 0, 67, 0
2, 7274, Note_on_c, 0, 86, 0
2, 7276, Note_on_c, 0, 74, 0
2, 7302, Note_on_c, 0, 84, 60
2, 7305, Note_on_c, 0, 76, 60
2, 7305, Note_on_c, 0, 72, 60
2, 7307, Note_on_c, 0, 67, 60
2, 7310, Note_on_c, 0, 60, 60
2, 7315, Note_on_c, 0, 79, 0
2, 7318, Note_on_c, 0, 71, 0
2, 7318, Note_on_c, 0, 77, 0
2, 7379, Note_on_c, 0, 72, 0
2, 7381, Note_on_c, 0, 60, 0
2, 7427, Note_on_c, 0, 72, 60
2, 7432, Note_on_c, 0, 60, 60
2, 7450, Note_on_c, 0, 67, 0
2, 7460, Note_on_c, 0, 72, 0
2, 7460, Note_on_c, 0, 76, 0
2, 7460, Note_on_c, 0, 84, 0
2, 7463, Note_on_c, 0, 60, 0
2, 7490, Note_on_c, 0, 74, 60
2, 7493, Note_on_c, 0, 62, 60
2, 7521, Note_on_c, 0, 74, 0
2, 7524, Note_on_c, 0, 62, 0
2, 7552, Note_on_c, 0, 76, 60
2, 7555, Note_on_c, 0, 64, 60
2, 7584, Note_on_c, 0, 64, 0
2, 7584, Note_on_c, 0, 76, 0
2, 7613, Note_on_c, 0, 77, 60
2, 7615, Note_on_c, 0, 65, 60
2, 7646, Note_on_c, 0, 77, 0
2, 7649, Note_on_c, 0, 65, 0
2, 7677, Note_on_c, 0, 66, 60
2, 7677, Note_on_c, 0, 78, 60
2, 7707, Note_on_c, 0, 78, 0
2, 7709, Note_on_c, 0, 66, 0
2, 7735, Note_on_c, 0, 79, 60
2, 7735, Note_on_c, 0, 67, 60
2, 7768, Note_on_c, 0, 67, 0
2, 7768, Note_on_c, 0, 79, 0
2, 7799, Note_on_c, 0, 72, 60
2, 7799, Note_on_c, 0, 75, 60
2, 7799, Note_on_c, 0, 80, 60
2, 7799, Note_on_c, 0, 68, 60
2, 7880, Note_on_c, 0, 75, 0
2, 7880, Note_on_c, 0, 72, 0
2, 7900, Control_c, 0, 64, 127
2, 7919, Note_on_c, 0, 72, 60
2, 7920, Note_on_c, 0, 75, 60
2, 7920, Note_on_c, 0, 78, 60
2, 7920, Note_on_c, 0, 66, 60
2, 7923, Note_on_c, 0, 63, 60
2, 7942, Note_on_c, 0, 66, 0
2, 7942, Note_on_c, 0, 75, 0
2, 7942, Note_on_c, 0, 80, 0
2, 7942, Note_on_c, 0, 72, 0
2, 7942, Note_on_c, 0, 68, 0
2, 7942, Note_on_c, 0, 78, 0
2, 7979, Note_on_c, 0, 75, 60
2, 7979, Note_on_c, 0, 78, 60
2, 7979, Note_on_c, 0, 66, 60
2, 7982, Note_on_c, 0, 72, 60
2, 8040, Note_on_c, 0, 60, 60
2, 8048, Note_on_c, 0, 78, 0
2, 8048, Note_on_c, 0, 75, 0
2, 8051, Note_on_c, 0, 66, 0
2, 8051, Note_on_c, 0, 72, 0
2, 8071, Note_on_c, 0, 63, 0
2, 8097, Note_on_c, 0, 78, 60
2, 8097, Note_on_c, 0, 75, 60
2, 8099, Note_on_c, 0, 72, 60
2, 8099, Note_on_c, 0, 66, 60
2, 8119, Note_on_c, 0, 66, 0
2, 8119, Note_on_c, 0, 75, 0
2, 8119, Note_on_c, 0, 72, 0
2, 8119, Note_on_c, 0, 78, 0
2, 8158, Note_on_c, 0, 75, 60
2, 8158, Note_on_c, 0, 78, 60
2, 8158, Note_on_c, 0, 72, 60
2, 8160, Note_on_c, 0, 66, 60
2, 8162, Note_on_c, 0, 56, 60
2, 8191, Note_on_c, 0, 60, 0
2, 8207, Control_c, 0, 64, 0
2, 8236, Note_on_c, 0, 72, 0
2, 8275, Note_on_c, 0, 76, 60
2, 8275, Note_on_c, 0, 79, 60
2, 8275, Note_on_c, 0, 72, 60
2, 8278, Note_on_c, 0, 67, 60
2, 8278, Note_on_c, 0, 55, 60
2, 8285, Note_on_c, 0, 78, 0
2, 8287, Note_on_c, 0, 75, 0
2, 8287, Note_on_c, 0, 66, 0
2, 8290, Note_on_c, 0, 56, 0
2, 8395, Note_on_c, 0, 64, 60
2, 8395, Note_on_c, 0, 60, 60
2, 8433, Note_on_c, 0, 60, 0
2, 8433, Note_on_c, 0, 64, 0
2, 8471, Note_on_c, 0, 79, 0
2, 8471, Note_on_c, 0, 67, 0
2, 8473, Note_on_c, 0, 55, 0
2, 8509, Note_on_c, 0, 79, 60
2, 8512, Note_on_c, 0, 67, 60
2, 8515, Note_on_c, 0, 52, 60
2, 8543, Note_on_c, 0, 76, 0
2, 8543, Note_on_c, 0, 72, 0
2, 8568, Note_on_c, 0, 76, 60
2, 8570, Note_on_c, 0, 64, 60
2, 8591, Note_on_c, 0, 64, 0
2, 8591, Note_on_c, 0, 67, 0
2, 8591, Note_on_c, 0, 79, 0
2, 8629, Note_on_c, 0, 76, 0
2, 8629, Note_on_c, 0, 72, 60
2, 8632, Note_on_c, 0, 60, 60
2, 8632, Note_on_c, 0, 64, 60
2, 8632, Note_on_c, 0, 55, 60
2, 8654, Note_on_c, 0, 55, 0
2, 8690, Note_on_c, 0, 67, 60
2, 8692, Note_on_c, 0, 55, 60
2, 8700, Note_on_c, 0, 60, 0
2, 8700, Note_on_c, 0, 64, 0
2, 8700, Note_on_c, 0, 72, 0
2, 8712, Note_on_c, 0, 52, 0
2, 8741, Note_on_c, 0, 50, 60
2, 8749, Note_on_c, 0, 66, 60
2, 8749, Note_on_c, 0, 69, 60
2, 8749, Note_on_c, 0, 57, 60
2, 8751, Note_on_c, 0, 60, 60
2, 8759, Note_on_c, 0, 67, 0
2, 8769, Note_on_c, 0, 55, 0
2, 8817, Note_on_c, 0, 57, 0
2, 8868, Note_on_c, 0, 57, 60
2, 8983, Note_on_c, 0, 74, 60
2, 8985, Note_on_c, 0, 65, 60
2, 8988, Note_on_c, 0, 59, 60
2, 8988, Note_on_c, 0, 62, 60
2, 8988, Note_on_c, 0, 55, 60
2, 8996, Note_on_c, 0, 69, 0
2, 8996, Note_on_c, 0, 66, 0
2, 8999, Note_on_c, 0, 60, 0
2, 8999, Note_on_c, 0, 57, 0
2, 8999, Note_on_c, 0, 50, 0
2, 9005, Note_on_c, 0, 74, 0
2, 9008, Note_on_c, 0, 62, 0
2, 9008, Note_on_c, 0, 65, 0
2, 9044, Note_on_c, 0, 74, 60
2, 9047, Note_on_c, 0, 65, 60
2, 9047, Note_on_c, 0, 62, 60
2, 9105, Note_on_c, 0, 65, 0
2, 9105, Note_on_c, 0, 55, 0
2, 9164, Note_on_c, 0, 67, 60
2, 9164, Note_on_c, 0, 65, 60
2, 9167, Note_on_c, 0, 55, 60
2, 9194, Note_on_c, 0, 62, 0
2, 9202, Note_on_c, 0, 65, 0
2, 9202, Note_on_c, 0, 67, 0
2, 9202, Note_on_c, 0, 74, 0
2, 9215, Note_on_c, 0, 59, 0
2, 9219, Note_on_c, 0, 72, 60
2, 9222, Note_on_c, 0, 64, 60
2, 9225, Note_on_c, 0, 48, 60
2, 9227, Note_on_c, 0, 60, 60
2, 9339, Note_on_c, 0, 78, 60
2, 9342, Note_on_c, 0, 66, 60
2, 9344, Note_on_c, 0, 55, 0
2, 9344, Note_on_c, 0, 54, 60
2, 9362, Note_on_c, 0, 72, 0
2, 9362, Note_on_c, 0, 64, 0
2, 9367, Note_on_c, 0, 48, 0
2, 9372, Note_on_c, 0, 66, 0
2, 9372, Note_on_c, 0, 78, 0
2, 9375, Note_on_c, 0, 54, 0
2, 9375, Note_on_c, 0, 60, 0
2, 9401, Note_on_c, 0, 79, 60
2, 9403, Note_on_c, 0, 67, 60
2, 9406, Note_on_c, 0, 55, 60
2, 9431, Note_on_c, 0, 67, 0
2, 9431, Note_on_c, 0, 79, 0
2, 9433, Note_on_c, 0, 55, 0
2, 9461, Note_on_c, 0, 81, 60
2, 9464, Note_on_c, 0, 69, 60
2, 9464, Note_on_c, 0, 57, 60
2, 9492, Note_on_c, 0, 69, 0
2, 9492, Note_on_c, 0, 81, 0
2, 9495, Note_on_c, 0, 57, 0
2, 9520, Note_on_c, 0, 83, 60
2, 9523, Note_on_c, 0, 71, 60
2, 9526, Note_on_c, 0, 59, 60
2, 9551, Note_on_c, 0, 71, 0
2, 9551, Note_on_c, 0, 83, 0
2, 9553, Note_on_c, 0, 59, 0
2, 9578, Note_on_c, 0, 84, 60
2, 9581, Note_on_c, 0, 72, 60
2, 9584, Note_on_c, 0, 60, 60
2, 9612, Note_on_c, 0, 84, 0
2, 9614, Note_on_c, 0, 60, 0
2, 9614, Note_on_c, 0, 72, 0
2, 9640, Note_on_c, 0, 86, 60
2, 9643, Note_on_c, 0, 74, 60
2, 9645, Note_on_c, 0, 62, 60
2, 9671, Note_on_c, 0, 74, 0
2, 9671, Note_on_c, 0, 86, 0
2, 9672, Note_on_c, 0, 62, 0
2, 9698, Note_on_c, 0, 88, 60
2, 9701, Note_on_c, 0, 76, 60
2, 9703, Note_on_c, 0, 72, 60
2, 9703, Note_on_c, 0, 64, 60
2, 9706, Note_on_c, 0, 48, 60
2, 9709, Note_on_c, 0, 36, 60
2, 9757, Note_on_c, 0, 76, 0
2, 9757, Note_on_c, 0, 75, 60
2, 9757, Note_on_c, 0, 87, 60
2, 9760, Note_on_c, 0, 63, 60
2, 9765, Note_on_c, 0, 88, 0
2, 9769, Note_on_c, 0, 64, 0
2, 9805, Note_on_c, 0, 75, 0
2, 9805, Note_on_c, 0, 87, 0
2, 9813, Note_on_c, 0, 88, 60
2, 9813, Note_on_c, 0, 76, 60
2, 9816, Note_on_c, 0, 64, 60
2, 9818, Note_on_c, 0, 60, 60
2, 9818, Note_on_c, 0, 55, 60
2, 9828, Note_on_c, 0, 63, 0
2, 9854, Note_on_c, 0, 60, 0
2, 9856, Note_on_c, 0, 55, 0
2, 9866, Note_on_c, 0, 89, 60
2, 9869, Note_on_c, 0, 77, 60
2, 9871, Note_on_c, 0, 65, 60
2, 9877, Note_on_c, 0, 36, 0
2, 9879, Note_on_c, 0, 88, 0
2, 9882, Note_on_c, 0, 64, 0
2, 9885, Note_on_c, 0, 48, 0
2, 9892, Note_on_c, 0, 76, 0
2, 9928, Note_on_c, 0, 91, 60
2, 9930, Note_on_c, 0, 89, 0
2, 9930, Note_on_c, 0, 76, 60
2, 9930, Note_on_c, 0, 79, 60
2, 9930, Note_on_c, 0, 67, 60
2, 9933, Note_on_c, 0, 77, 0
2, 9933, Note_on_c, 0, 65, 0
2, 9936, Note_on_c, 0, 52, 60
2, 9936, Note_on_c, 0, 40, 60
2, 9960, Note_on_c, 0, 72, 0
2, 9986, Note_on_c, 0, 93, 60
2, 9988, Note_on_c, 0, 81, 60
2, 9991, Note_on_c, 0, 69, 60
2, 9996, Note_on_c, 0, 91, 0
2, 9999, Note_on_c, 0, 79, 0
2, 10009, Note_on_c, 0, 67, 0
2, 10034, Note_on_c, 0, 40, 0
2, 10034, Note_on_c, 0, 52, 0
2, 10037, Note_on_c, 0, 75, 60
2, 10042, Note_on_c, 0, 51, 60
2, 10042, Note_on_c, 0, 96, 60
2, 10042, Note_on_c, 0, 39, 60
2, 10047, Note_on_c, 0, 84, 60
2, 10050, Note_on_c, 0, 76, 0
2, 10050, Note_on_c, 0, 69, 0
2, 10050, Note_on_c, 0, 72, 60
2, 10065, Note_on_c, 0, 93, 0
2, 10070, Note_on_c, 0, 81, 0
2, 10104, Note_on_c, 0, 96, 0
2, 10104, Note_on_c, 0, 93, 60
2, 10108, Note_on_c, 0, 84, 0
2, 10108, Note_on_c, 0, 81, 60
2, 10108, Note_on_c, 0, 69, 60
2, 10111, Note_on_c, 0, 72, 0
2, 10164, Note_on_c, 0, 39, 0
2, 10164, Note_on_c, 0, 95, 60
2, 10167, Note_on_c, 0, 83, 60
2, 10170, Note_on_c, 0, 77, 60
2, 10170, Note_on_c, 0, 71, 60
2, 10172, Note_on_c, 0, 51, 0
2, 10172, Note_on_c, 0, 50, 60
2, 10175, Note_on_c, 0, 38, 60
2, 10177, Note_on_c, 0, 93, 0
2, 10179, Note_on_c, 0, 69, 0
2, 10179, Note_on_c, 0, 81, 0
2, 10210, Note_on_c, 0, 75, 0
2, 10223, Note_on_c, 0, 96, 60
2, 10223, Note_on_c, 0, 84, 60
2, 10225, Note_on_c, 0, 95, 0
2, 10228, Note_on_c, 0, 83, 0
2, 10230, Note_on_c, 0, 72, 60
2, 10238, Note_on_c, 0, 71, 0
2, 10281, Note_on_c, 0, 98, 60
2, 10284, Note_on_c, 0, 86, 60
2, 10284, Note_on_c, 0, 74, 60
2, 10287, Note_on_c, 0, 65, 60
2, 10292, Note_on_c, 0, 59, 60
2, 10292, Note_on_c, 0, 55, 60
2, 10295, Note_on_c, 0, 96, 0
2, 10299, Note_on_c, 0, 84, 0
2, 10299, Note_on_c, 0, 72, 0
2, 10318, Note_on_c, 0, 77, 0
2, 10320, Note_on_c, 0, 65, 0
2, 10330, Note_on_c, 0, 59, 0
2, 10330, Note_on_c, 0, 55, 0
2, 10343, Note_on_c, 0, 89, 60
2, 10347, Note_on_c, 0, 77, 60
2, 10347, Note_on_c, 0, 65, 60
2, 10353, Note_on_c, 0, 98, 0
2, 10355, Note_on_c, 0, 86, 0
2, 10358, Note_on_c, 0, 74, 0
2, 10361, Note_on_c, 0, 50, 0
2, 10363, Note_on_c, 0, 38, 0
2, 10389, Control_c, 0, 64, 127
2, 10404, Note_on_c, 0, 43, 60
2, 10406, Note_on_c, 0, 93, 60
2, 10406, Note_on_c, 0, 31, 60
2, 10409, Note_on_c, 0, 89, 0
2, 10409, Note_on_c, 0, 81, 60
2, 10409, Note_on_c, 0, 71, 60
2, 10412, Note_on_c, 0, 77, 0
2, 10412, Note_on_c, 0, 65, 0
2, 10412, Note_on_c, 0, 69, 60
2, 10467, Note_on_c, 0, 93, 0
2, 10467, Note_on_c, 0, 91, 60
2, 10467, Note_on_c, 0, 79, 60
2, 10470, Note_on_c, 0, 81, 0
2, 10470, Note_on_c, 0, 69, 0
2, 10470, Note_on_c, 0, 67, 60
2, 10480, Note_on_c, 0, 71, 0
2, 10529, Note_on_c, 0, 79, 0
2, 10529, Note_on_c, 0, 86, 60
2, 10529, Note_on_c, 0, 74, 60
2, 10531, Note_on_c, 0, 67, 0
2, 10531, Note_on_c, 0, 59, 60
2, 10531, Note_on_c, 0, 62, 60
2, 10531, Note_on_c, 0, 65, 60
2, 10531, Note_on_c, 0, 71, 60
2, 10531, Note_on_c, 0, 55, 60
2, 10538, Note_on_c, 0, 91, 0
2, 10569, Control_c, 0, 64, 0
2, 10572, Note_on_c, 0, 55, 0
2, 10572, Note_on_c, 0, 62, 0
2, 10572, Note_on_c, 0, 59, 0
2, 10584, Note_on_c, 0, 87, 60
2, 10587, Note_on_c, 0, 86, 0
2, 10589, Note_on_c, 0, 74, 0
2, 10589, Note_on_c, 0, 75, 60
2, 10589, Note_on_c, 0, 63, 60
2, 10597, Note_on_c, 0, 31, 0
2, 10600, Note_on_c, 0, 65, 0
2, 10605, Note_on_c, 0, 43, 0
2, 10640, Note_on_c, 0, 71, 0
2, 10643, Note_on_c, 0, 63, 0
2, 10648, Note_on_c, 0, 88, 60
2, 10651, Note_on_c, 0, 75, 0
2, 10651, Note_on_c, 0, 87, 0
2, 10651, Note_on_c, 0, 76, 60
2, 10651, Note_on_c, 0, 72, 60
2, 10654, Note_on_c, 0, 64, 60
2, 10656, Note_on_c, 0, 48, 60
2, 10656, Note_on_c, 0, 36, 60
2, 10699, Note_on_c, 0, 76, 0
2, 10702, Note_on_c, 0, 64, 0
2, 10709, Note_on_c, 0, 88, 0
2, 10709, Note_on_c, 0, 87, 60
2, 10709, Note_on_c, 0, 75, 60
2, 10712, Note_on_c, 0, 63, 60
2, 10760, Note_on_c, 0, 87, 0
2, 10763, Note_on_c, 0, 75, 0
2, 10765, Note_on_c, 0, 63, 0
2, 10771, Note_on_c, 0, 88, 60
2, 10773, Note_on_c, 0, 76, 60
2, 10776, Note_on_c, 0, 64, 60
2, 10776, Note_on_c, 0, 60, 60
2, 10778, Note_on_c, 0, 55, 60
2, 10803, Note_on_c, 0, 55, 0
2, 10803, Note_on_c, 0, 60, 0
2, 10819, Note_on_c, 0, 88, 0
2, 10822, Note_on_c, 0, 76, 0
2, 10824, Note_on_c, 0, 64, 0
2, 10829, Note_on_c, 0, 89, 60
2, 10831, Note_on_c, 0, 77, 60
2, 10834, Note_on_c, 0, 65, 60
2, 10847, Note_on_c, 0, 48, 0
2, 10849, Note_on_c, 0, 36, 0
2, 10893, Note_on_c, 0, 89, 0
2, 10893, Note_on_c, 0, 91, 60
2, 10893, Note_on_c, 0, 79, 60
2, 10896, Note_on_c, 0, 77, 0
2, 10896, Note_on_c, 0, 65, 0
2, 10896, Note_on_c, 0, 67, 60
2, 10896, Note_on_c, 0, 76, 60
2, 10897, Note_on_c, 0, 52, 60
2, 10897, Note_on_c, 0, 40, 60
2, 10933, Note_on_c, 0, 72, 0
2, 10948, Note_on_c, 0, 93, 60
2, 10951, Note_on_c, 0, 81, 60
2, 10954, Note_on_c, 0, 79, 0
2, 10954, Note_on_c, 0, 69, 60
2, 10962, Note_on_c, 0, 91, 0
2, 10964, Note_on_c, 0, 67, 0
2, 11007, Note_on_c, 0, 96, 60
2, 11010, Note_on_c, 0, 93, 0
2, 11010, Note_on_c, 0, 84, 60
2, 11013, Note_on_c, 0, 81, 0
2, 11013, Note_on_c, 0, 75, 60
2, 11013, Note_on_c, 0, 72, 60
2, 11015, Note_on_c, 0, 51, 60
2, 11017, Note_on_c, 0, 40, 0
2, 11017, Note_on_c, 0, 39, 60
2, 11022, Note_on_c, 0, 76, 0
2, 11025, Note_on_c, 0, 52, 0
2, 11033, Note_on_c, 0, 69, 0
2, 11071, Note_on_c, 0, 96, 0
2, 11071, Note_on_c, 0, 93, 60
2, 11073, Note_on_c, 0, 84, 0
2, 11073, Note_on_c, 0, 81, 60
2, 11076, Note_on_c, 0, 72, 0
2, 11076, Note_on_c, 0, 69, 60
2, 11127, Note_on_c, 0, 95, 60
2, 11130, Note_on_c, 0, 93, 0
2, 11132, Note_on_c, 0, 75, 0
2, 11132, Note_on_c, 0, 81, 0
2, 11132, Note_on_c, 0, 77, 60
2, 11132, Note_on_c, 0, 83, 60
2, 11132, Note_on_c, 0, 71, 60
2, 11135, Note_on_c, 0, 69, 0
2, 11137, Note_on_c, 0, 39, 0
2, 11137, Note_on_c, 0, 51, 0
2, 11137, Note_on_c, 0, 50, 60
2, 11137, Note_on_c, 0, 38, 60
2, 11185, Note_on_c, 0, 96, 60
2, 11188, Note_on_c, 0, 95, 0
2, 11188, Note_on_c, 0, 84, 60
2, 11190, Note_on_c, 0, 72, 60
2, 11201, Note_on_c, 0, 71, 0
2, 11201, Note_on_c, 0, 83, 0
2, 11247, Note_on_c, 0, 96, 0
2, 11247, Note_on_c, 0, 98, 60
2, 11249, Note_on_c, 0, 84, 0
2, 11249, Note_on_c, 0, 86, 60
2, 11249, Note_on_c, 0, 74, 60
2, 11252, Note_on_c, 0, 72, 0
2, 11252, Note_on_c, 0, 65, 60
2, 11255, Note_on_c, 0, 59, 60
2, 11255, Note_on_c, 0, 55, 60
2, 11270, Note_on_c, 0, 65, 0
2, 11270, Note_on_c, 0, 77, 0
2, 11290, Note_on_c, 0, 59, 0
2, 11292, Note_on_c, 0, 55, 0
2, 11305, Note_on_c, 0, 89, 60
2, 11307, Note_on_c, 0, 77, 60
2, 11310, Note_on_c, 0, 65, 60
2, 11315, Note_on_c, 0, 98, 0
2, 11318, Note_on_c, 0, 86, 0
2, 11321, Note_on_c, 0, 74, 0
2, 11323, Note_on_c, 0, 50, 0
2, 11326, Note_on_c, 0, 38, 0
2, 11366, Note_on_c, 0, 93, 60
2, 11369, Note_on_c, 0, 89, 0
2, 11369, Note_on_c, 0, 81, 60
2, 11369, Note_on_c, 0, 71, 60
2, 11372, Note_on_c, 0, 77, 0
2, 11372, Note_on_c, 0, 69, 60
2, 11374, Note_on_c, 0, 65, 0
2, 11376, Note_on_c, 0, 43, 60
2, 11376, Note_on_c, 0, 31, 60
2, 11424, Note_on_c, 0, 93, 0
2, 11424, Note_on_c, 0, 91, 60
2, 11427, Note_on_c, 0, 79, 60
2, 11430, Note_on_c, 0, 69, 0
2, 11430, Note_on_c, 0, 81, 0
2, 11430, Note_on_c, 0, 67, 60
2, 11486, Note_on_c, 0, 91, 0
2, 11486, Note_on_c, 0, 74, 60
2, 11486, Note_on_c, 0, 86, 60
2, 11489, Note_on_c, 0, 79, 0
2, 11489, Note_on_c, 0, 67, 0
2, 11489, Note_on_c, 0, 65, 60
2, 11489, Note_on_c, 0, 62, 60
2, 11491, Note_on_c, 0, 59, 60
2, 11491, Note_on_c, 0, 55, 60
2, 11529, Note_on_c, 0, 55, 0
2, 11529, Note_on_c, 0, 59, 0
2, 11542, Note_on_c, 0, 88, 60
2, 11544, Note_on_c, 0, 86, 0
2, 11544, Note_on_c, 0, 76, 60
2, 11547, Note_on_c, 0, 74, 0
2, 11547, Note_on_c, 0, 64, 60
2, 11557, Note_on_c, 0, 62, 0
2, 11563, Note_on_c, 0, 43, 0
2, 11565, Note_on_c, 0, 31, 0
2, 11568, Note_on_c, 0, 65, 0
2, 11598, Note_on_c, 0, 76, 0
2, 11598, Note_on_c, 0, 64, 0
2, 11603, Note_on_c, 0, 89, 60
2, 11606, Note_on_c, 0, 88, 0
2, 11606, Note_on_c, 0, 77, 60
2, 11606, Note_on_c, 0, 74, 60
2, 11608, Note_on_c, 0, 65, 60
2, 11611, Note_on_c, 0, 56, 60
2, 11611, Note_on_c, 0, 44, 60
2, 11623, Note_on_c, 0, 74, 0
2, 11623, Note_on_c, 0, 71, 0
2, 11662, Note_on_c, 0, 86, 60
2, 11662, Note_on_c, 0, 74, 60
2, 11664, Note_on_c, 0, 77, 0
2, 11664, Note_on_c, 0, 71, 60
2, 11666, Note_on_c, 0, 65, 0
2, 11666, Note_on_c, 0, 59, 60
2, 11666, Note_on_c, 0, 62, 60
2, 11666, Note_on_c, 0, 47, 60
2, 11672, Note_on_c, 0, 89, 0
2, 11685, Note_on_c, 0, 62, 0
2, 11685, Note_on_c, 0, 71, 0
2, 11688, Note_on_c, 0, 59, 0
2, 11697, Note_on_c, 0, 56, 0
2, 11697, Note_on_c, 0, 44, 0
2, 11720, Note_on_c, 0, 83, 60
2, 11723, Note_on_c, 0, 74, 0
2, 11723, Note_on_c, 0, 86, 0
2, 11723, Note_on_c, 0, 71, 60
2, 11723, Note_on_c, 0, 68, 60
2, 11725, Note_on_c, 0, 62, 60
2, 11725, Note_on_c, 0, 59, 60
2, 11728, Note_on_c, 0, 50, 60
2, 11746, Note_on_c, 0, 68, 0
2, 11759, Note_on_c, 0, 47, 0
2, 11782, Note_on_c, 0, 83, 0
2, 11782, Note_on_c, 0, 80, 60
2, 11782, Note_on_c, 0, 68, 60
2, 11784, Note_on_c, 0, 71, 0
2, 11784, Note_on_c, 0, 65, 60
2, 11786, Note_on_c, 0, 56, 60
2, 11786, Note_on_c, 0, 53, 60
2, 11814, Note_on_c, 0, 62, 0
2, 11817, Note_on_c, 0, 50, 0
2, 11825, Note_on_c, 0, 59, 0
2, 11842, Note_on_c, 0, 69, 60
2, 11842, Note_on_c, 0, 81, 60
2, 11842, Note_on_c, 0, 64, 60
2, 11845, Note_on_c, 0, 60, 60
2, 11845, Note_on_c, 0, 57, 60
2, 11848, Note_on_c, 0, 48, 60
2, 11853, Note_on_c, 0, 80, 0
2, 11856, Note_on_c, 0, 68, 0
2, 11857, Note_on_c, 0, 56, 0
2, 11865, Note_on_c, 0, 65, 0
2, 11868, Note_on_c, 0, 53, 0
2, 11922, Note_on_c, 0, 64, 0
2, 11924, Note_on_c, 0, 48, 0
2, 11929, Note_on_c, 0, 81, 0
2, 11931, Note_on_c, 0, 69, 0
2, 11931, Note_on_c, 0, 60, 0
2, 11934, Note_on_c, 0, 57, 0
2, 12054, Control_c, 0, 64, 127
2, 12082, Note_on_c, 0, 89, 60
2, 12084, Note_on_c, 0, 74, 60
2, 12084, Note_on_c, 0, 77, 60
2, 12084, Note_on_c, 0, 65, 60
2, 12090, Note_on_c, 0, 56, 60
2, 12090, Note_on_c, 0, 44, 60
2, 12105, Note_on_c, 0, 74, 0
2, 12143, Note_on_c, 0, 89, 0
2, 12143, Note_on_c, 0, 86, 60
2, 12145, Note_on_c, 0, 77, 0
2, 12145, Note_on_c, 0, 74, 60
2, 12145, Note_on_c, 0, 71, 60
2, 12148, Note_on_c, 0, 62, 60
2, 12148, Note_on_c, 0, 59, 60
2, 12150, Note_on_c, 0, 47, 60
2, 12166, Note_on_c, 0, 59, 0
2, 12166, Note_on_c, 0, 62, 0
2, 12166, Note_on_c, 0, 71, 0
2, 12176, Note_on_c, 0, 56, 0
2, 12179, Note_on_c, 0, 44, 0
2, 12186, Note_on_c, 0, 65, 0
2, 12204, Note_on_c, 0, 86, 0
2, 12204, Note_on_c, 0, 74, 0
2, 12204, Note_on_c, 0, 71, 60
2, 12207, Note_on_c, 0, 62, 60
2, 12207, Note_on_c, 0, 68, 60
2, 12207, Note_on_c, 0, 59, 60
2, 12209, Note_on_c, 0, 50, 60
2, 12212, Note_on_c, 0, 83, 60
2, 12224, Note_on_c, 0, 68, 0
2, 12240, Note_on_c, 0, 47, 0
2, 12263, Note_on_c, 0, 80, 60
2, 12265, Note_on_c, 0, 68, 60
2, 12265, Note_on_c, 0, 65, 60
2, 12267, Note_on_c, 0, 56, 60
2, 12267, Note_on_c, 0, 53, 60
2, 12296, Note_on_c, 0, 62, 0
2, 12296, Note_on_c, 0, 50, 0
2, 12303, Note_on_c, 0, 59, 0
2, 12309, Note_on_c, 0, 83, 0
2, 12311, Note_on_c, 0, 71, 0
2, 12316, Note_on_c, 0, 81, 60
2, 12318, Note_on_c, 0, 64, 60
2, 12318, Note_on_c, 0, 69, 60
2, 12318, Control_c, 0, 64, 0
2, 12321, Note_on_c, 0, 60, 60
2, 12321, Note_on_c, 0, 57, 60
2, 12324, Note_on_c, 0, 48, 60
2, 12329, Note_on_c, 0, 68, 0
2, 12332, Note_on_c, 0, 56, 0
2, 12336, Note_on_c, 0, 80, 0
2, 12339, Note_on_c, 0, 65, 0
2, 12352, Note_on_c, 0, 53, 0
2, 12392, Note_on_c, 0, 48, 0
2, 12398, Note_on_c, 0, 64, 0
2, 12400, Note_on_c, 0, 60, 0
2, 12400, Note_on_c, 0, 57, 0
2, 12406, Note_on_c, 0, 81, 0
2, 12408, Note_on_c, 0, 69, 0
2, 12558, Note_on_c, 0, 36, 60
2, 12566, Note_on_c, 0, 57, 60
2, 12568, Note_on_c, 0, 45, 60
2, 12624, Note_on_c, 0, 60, 60
2, 12626, Note_on_c, 0, 48, 60
2, 12626, Note_on_c, 0, 39, 60
2, 12683, Note_on_c, 0, 51, 60
2, 12683, Note_on_c, 0, 63, 60
2, 12683, Note_on_c, 0, 42, 60
2, 12693, Note_on_c, 0, 45, 0
2, 12736, Note_on_c, 0, 66, 60
2, 12739, Note_on_c, 0, 54, 60
2, 12742, Note_on_c, 0, 45, 60
2, 12749, Note_on_c, 0, 48, 0
2, 12749, Note_on_c, 0, 57, 0
2, 12779, Note_on_c, 0, 36, 0
2, 12792, Note_on_c, 0, 69, 60
2, 12794, Note_on_c, 0, 57, 60
2, 12794, Note_on_c, 0, 48, 60
2, 12805, Note_on_c, 0, 60, 0
2, 12808, Note_on_c, 0, 39, 0
2, 12808, Note_on_c, 0, 51, 0
2, 12851, Note_on_c, 0, 72, 60
2, 12853, Note_on_c, 0, 60, 60
2, 12856, Note_on_c, 0, 51, 60
2, 12864, Note_on_c, 0, 54, 0
2, 12866, Note_on_c, 0, 42, 0
2, 12874, Note_on_c, 0, 63, 0
2, 12912, Note_on_c, 0, 75, 60
2, 12914, Note_on_c, 0, 63, 60
2, 12914, Note_on_c, 0, 54, 60
2, 12927, Note_on_c, 0, 45, 0
2, 12933, Note_on_c, 0, 66, 0
2, 12935, Note_on_c, 0, 57, 0
2, 12970, Note_on_c, 0, 66, 60
2, 12970, Note_on_c, 0, 78, 60
2, 12970, Note_on_c, 0, 57, 60
2, 12981, Note_on_c, 0, 69, 0
2, 12984, Note_on_c, 0, 48, 0
2, 12991, Note_on_c, 0, 60, 0
2, 13027, Note_on_c, 0, 81, 60
2, 13027, Note_on_c, 0, 69, 60
2, 13029, Note_on_c, 0, 60, 60
2, 13042, Note_on_c, 0, 72, 0
2, 13042, Note_on_c, 0, 63, 0
2, 13044, Note_on_c, 0, 51, 0
2, 13085, Note_on_c, 0, 84, 60
2, 13087, Note_on_c, 0, 72, 60
2, 13087, Note_on_c, 0, 63, 60
2, 13098, Note_on_c, 0, 66, 0
2, 13101, Note_on_c, 0, 54, 0
2, 13105, Note_on_c, 0, 75, 0
2, 13144, Note_on_c, 0, 87, 60
2, 13146, Note_on_c, 0, 75, 60
2, 13149, Note_on_c, 0, 66, 60
2, 13156, Note_on_c, 0, 78, 0
2, 13159, Note_on_c, 0, 69, 0
2, 13159, Note_on_c, 0, 57, 0
2, 13200, Note_on_c, 0, 90, 60
2, 13204, Note_on_c, 0, 78, 60
2, 13204, Note_on_c, 0, 69, 60
2, 13215, Note_on_c, 0, 81, 0
2, 13215, Note_on_c, 0, 72, 0
2, 13218, Note_on_c, 0, 60, 0
2, 13263, Note_on_c, 0, 93, 60
2, 13263, Note_on_c, 0, 81, 60
2, 13266, Note_on_c, 0, 72, 60
2, 13276, Note_on_c, 0, 84, 0
2, 13276, Note_on_c, 0, 75, 0
2, 13278, Note_on_c, 0, 63, 0
2, 13321, Note_on_c, 0, 96, 60
2, 13321, Note_on_c, 0, 84, 60
2, 13327, Note_on_c, 0, 75, 60
2, 13335, Note_on_c, 0, 78, 0
2, 13335, Note_on_c, 0, 87, 0
2, 13337, Note_on_c, 0, 66, 0
2, 13378, Note_on_c, 0, 99, 60
2, 13380, Note_on_c, 0, 87, 60
2, 13383, Note_on_c, 0, 78, 60
2, 13395, Note_on_c, 0, 69, 0
2, 13395, Note_on_c, 0, 81, 0
2, 13403, Note_on_c, 0, 90, 0
2, 13437, Note_on_c, 0, 102, 60
2, 13440, Note_on_c, 0, 90, 60
2, 13441, Note_on_c, 0, 81, 60
2, 13452, Note_on_c, 0, 84, 0
2, 13452, Note_on_c, 0, 87, 0
2, 13454, Note_on_c, 0, 72, 0
2, 13495, Note_on_c, 0, 104, 60
2, 13498, Note_on_c, 0, 92, 60
2, 13500, Note_on_c, 0, 84, 60
2, 13500, Note_on_c, 0, 87, 60
2, 13500, Note_on_c, 0, 80, 60
2, 13503, Note_on_c, 0, 68, 60
2, 13511, Note_on_c, 0, 93, 0
2, 13512, Note_on_c, 0, 81, 0
2, 13531, Note_on_c, 0, 96, 0
2, 13536, Note_on_c, 0, 75, 0
2, 13551, Note_on_c, 0, 90, 0
2, 13551, Note_on_c, 0, 102, 0
2, 13551, Note_on_c, 0, 99, 0
2, 13554, Control_c, 0, 64, 127
2, 13594, Note_on_c, 0, 84, 0
2, 13594, Note_on_c, 0, 87, 0
2, 13597, Note_on_c, 0, 78, 0
2, 13622, Note_on_c, 0, 102, 60
2, 13622, Note_on_c, 0, 90, 60
2, 13625, Note_on_c, 0, 87, 60
2, 13625, Note_on_c, 0, 84, 60
2, 13628, Note_on_c, 0, 78, 60
2, 13628, Note_on_c, 0, 75, 60
2, 13630, Note_on_c, 0, 63, 60
2, 13643, Note_on_c, 0, 102, 0
2, 13645, Note_on_c, 0, 84, 0
2, 13645, Note_on_c, 0, 90, 0
2, 13648, Note_on_c, 0, 78, 0
2, 13648, Note_on_c, 0, 80, 0
2, 13648, Note_on_c, 0, 87, 0
2, 13653, Note_on_c, 0, 104, 0
2, 13656, Note_on_c, 0, 92, 0
2, 13658, Note_on_c, 0, 68, 0
2, 13683, Note_on_c, 0, 102, 60
2, 13686, Note_on_c, 0, 87, 60
2, 13686, Note_on_c, 0, 90, 60
2, 13686, Note_on_c, 0, 84, 60
2, 13688, Note_on_c, 0, 78, 60
2, 13750, Note_on_c, 0, 78, 0
2, 13750, Note_on_c, 0, 72, 60
2, 13752, Note_on_c, 0, 60, 60
2, 13754, Note_on_c, 0, 102, 0
2, 13757, Note_on_c, 0, 90, 0
2, 13757, Note_on_c, 0, 87, 0
2, 13757, Note_on_c, 0, 84, 0
2, 13780, Note_on_c, 0, 63, 0
2, 13791, Note_on_c, 0, 75, 0
2, 13803, Note_on_c, 0, 102, 60
2, 13805, Note_on_c, 0, 90, 60
2, 13808, Note_on_c, 0, 87, 60
2, 13808, Note_on_c, 0, 84, 60
2, 13811, Note_on_c, 0, 78, 60
2, 13826, Note_on_c, 0, 102, 0
2, 13828, Note_on_c, 0, 87, 0
2, 13828, Note_on_c, 0, 90, 0
2, 13828, Note_on_c, 0, 84, 0
2, 13831, Note_on_c, 0, 78, 0
2, 13867, Note_on_c, 0, 102, 60
2, 13870, Note_on_c, 0, 84, 60
2, 13870, Note_on_c, 0, 87, 60
2, 13870, Note_on_c, 0, 90, 60
2, 13870, Control_c, 0, 64, 0
2, 13872, Note_on_c, 0, 78, 60
2, 13872, Note_on_c, 0, 68, 60
2, 13874, Note_on_c, 0, 56, 60
2, 13895, Note_on_c, 0, 60, 0
2, 13905, Note_on_c, 0, 72, 0
2, 13964, Note_on_c, 0, 84, 0
2, 13964, Note_on_c, 0, 87, 0
2, 13989, Note_on_c, 0, 103, 60
2, 13992, Note_on_c, 0, 91, 60
2, 13994, Note_on_c, 0, 84, 60
2, 13994, Note_on_c, 0, 87, 60
2, 13994, Note_on_c, 0, 79, 60
2, 13996, Note_on_c, 0, 67, 60
2, 13999, Note_on_c, 0, 56, 0
2, 13999, Note_on_c, 0, 55, 60
2, 14002, Note_on_c, 0, 102, 0
2, 14004, Note_on_c, 0, 90, 0
2, 14004, Note_on_c, 0, 78, 0
2, 14004, Note_on_c, 0, 68, 0
2, 14113, Note_on_c, 0, 76, 60
2, 14113, Note_on_c, 0, 72, 60
2, 14150, Note_on_c, 0, 72, 0
2, 14150, Note_on_c, 0, 76, 0
2, 14150, Note_on_c, 0, 79, 0
2, 14158, Note_on_c, 0, 91, 0
2, 14164, Note_on_c, 0, 103, 0
2, 14170, Note_on_c, 0, 67, 0
2, 14172, Note_on_c, 0, 55, 0
2, 14226, Note_on_c, 0, 103, 60
2, 14229, Note_on_c, 0, 91, 60
2, 14231, Note_on_c, 0, 79, 60
2, 14231, Note_on_c, 0, 64, 60
2, 14236, Note_on_c, 0, 52, 60
2, 14269, Note_on_c, 0, 87, 0
2, 14269, Note_on_c, 0, 84, 0
2, 14284, Note_on_c, 0, 100, 60
2, 14287, Note_on_c, 0, 103, 0
2, 14287, Note_on_c, 0, 88, 60
2, 14289, Note_on_c, 0, 91, 0
2, 14289, Note_on_c, 0, 76, 60
2, 14312, Note_on_c, 0, 76, 0
2, 14346, Note_on_c, 0, 100, 0
2, 14346, Note_on_c, 0, 96, 60
2, 14348, Note_on_c, 0, 88, 0
2, 14348, Note_on_c, 0, 84, 60
2, 14351, Note_on_c, 0, 72, 60
2, 14351, Note_on_c, 0, 76, 60
2, 14351, Note_on_c, 0, 67, 60
2, 14358, Note_on_c, 0, 79, 0
2, 14369, Note_on_c, 0, 67, 0
2, 14404, Note_on_c, 0, 91, 60
2, 14406, Note_on_c, 0, 79, 60
2, 14406, Note_on_c, 0, 67, 60
2, 14420, Note_on_c, 0, 72, 0
2, 14422, Note_on_c, 0, 52, 0
2, 14429, Note_on_c, 0, 64, 0
2, 14443, Note_on_c, 0, 96, 0
2, 14448, Note_on_c, 0, 76, 0
2, 14463, Note_on_c, 0, 91, 0
2, 14463, Note_on_c, 0, 93, 60
2, 14465, Note_on_c, 0, 79, 0
2, 14465, Note_on_c, 0, 72, 60
2, 14465, Note_on_c, 0, 78, 60
2, 14465, Note_on_c, 0, 81, 60
2, 14465, Note_on_c, 0, 69, 60
2, 14468, Note_on_c, 0, 67, 0
2, 14468, Note_on_c, 0, 62, 60
2, 14468, Note_on_c, 0, 50, 60
2, 14475, Note_on_c, 0, 84, 0
2, 14537, Note_on_c, 0, 62, 0
2, 14537, Note_on_c, 0, 69, 0
2, 14585, Note_on_c, 0, 66, 60
2, 14585, Note_on_c, 0, 69, 60
2, 14585, Note_on_c, 0, 62, 60
2, 14626, Note_on_c, 0, 62, 0
2, 14626, Note_on_c, 0, 66, 0
2, 14639, Note_on_c, 0, 50, 0
2, 14697, Note_on_c, 0, 98, 60
2, 14699, Note_on_c, 0, 86, 60
2, 14699, Note_on_c, 0, 77, 60
2, 14702, Note_on_c, 0, 71, 60
2, 14702, Note_on_c, 0, 74, 60
2, 14702, Note_on_c, 0, 67, 60
2, 14705, Note_on_c, 0, 55, 60
2, 14712, Note_on_c, 0, 72, 0
2, 14712, Note_on_c, 0, 78, 0
2, 14717, Note_on_c, 0, 98, 0
2, 14720, Note_on_c, 0, 86, 0
2, 14722, Note_on_c, 0, 77, 0
2, 14722, Note_on_c, 0, 74, 0
2, 14728, Note_on_c, 0, 93, 0
2, 14730, Note_on_c, 0, 81, 0
2, 14733, Note_on_c, 0, 69, 0
2, 14756, Note_on_c, 0, 98, 60
2, 14759, Note_on_c, 0, 86, 60
2, 14760, Note_on_c, 0, 77, 60
2, 14760, Note_on_c, 0, 74, 60
2, 14809, Note_on_c, 0, 67, 0
2, 14819, Note_on_c, 0, 77, 0
2, 14876, Note_on_c, 0, 91, 60
2, 14878, Note_on_c, 0, 79, 60
2, 14880, Note_on_c, 0, 77, 60
2, 14880, Note_on_c, 0, 67, 60
2, 14901, Note_on_c, 0, 67, 0
2, 14905, Note_on_c, 0, 98, 0
2, 14911, Note_on_c, 0, 71, 0
2, 14911, Note_on_c, 0, 74, 0
2, 14919, Note_on_c, 0, 86, 0
2, 14931, Note_on_c, 0, 48, 60
2, 14934, Note_on_c, 0, 96, 60
2, 14936, Note_on_c, 0, 84, 60
2, 14939, Note_on_c, 0, 72, 60
2, 14939, Note_on_c, 0, 76, 60
2, 14939, Note_on_c, 0, 67, 60
2, 14941, Note_on_c, 0, 60, 60
2, 14949, Note_on_c, 0, 77, 0
2, 14952, Note_on_c, 0, 55, 0
2, 14967, Note_on_c, 0, 91, 0
2, 14970, Note_on_c, 0, 79, 0
2, 15000, Note_on_c, 0, 60, 0
2, 15007, Note_on_c, 0, 84, 0
2, 15010, Note_on_c, 0, 72, 0
2, 15059, Note_on_c, 0, 84, 60
2, 15061, Note_on_c, 0, 72, 60
2, 15064, Note_on_c, 0, 60, 60
2, 15076, Note_on_c, 0, 48, 0
2, 15081, Note_on_c, 0, 67, 0
2, 15092, Note_on_c, 0, 84, 0
2, 15092, Note_on_c, 0, 72, 0
2, 15095, Note_on_c, 0, 60, 0
2, 15099, Note_on_c, 0, 96, 0
2, 15102, Note_on_c, 0, 76, 0
2, 15120, Note_on_c, 0, 86, 60
2, 15122, Note_on_c, 0, 74, 60
2, 15124, Note_on_c, 0, 62, 60
2, 15153, Note_on_c, 0, 74, 0
2, 15153, Note_on_c, 0, 86, 0
2, 15155, Note_on_c, 0, 62, 0
2, 15181, Note_on_c, 0, 88, 60
2, 15183, Note_on_c, 0, 76, 60
2, 15183, Note_on_c, 0, 64, 60
2, 15212, Note_on_c, 0, 88, 0
2, 15214, Note_on_c, 0, 76, 0
2, 15216, Note_on_c, 0, 64, 0
2, 15241, Note_on_c, 0, 89, 60
2, 15244, Note_on_c, 0, 77, 60
2, 15244, Note_on_c, 0, 65, 60
2, 15272, Note_on_c, 0, 89, 0
2, 15275, Note_on_c, 0, 77, 0
2, 15278, Note_on_c, 0, 65, 0
2, 15300, Note_on_c, 0, 90, 60
2, 15306, Note_on_c, 0, 78, 60
2, 15306, Note_on_c, 0, 66, 60
2, 15331, Note_on_c, 0, 90, 0
2, 15334, Note_on_c, 0, 78, 0
2, 15336, Note_on_c, 0, 66, 0
2, 15361, Note_on_c, 0, 91, 60
2, 15361, Note_on_c, 0, 79, 60
2, 15364, Note_on_c, 0, 67, 60
2, 15392, Note_on_c, 0, 91, 0
2, 15395, Note_on_c, 0, 67, 0
2, 15395, Note_on_c, 0, 79, 0
2, 15423, Note_on_c, 0, 92, 60
2, 15425, Note_on_c, 0, 75, 60
2, 15425, Note_on_c, 0, 80, 60
2, 15425, Note_on_c, 0, 56, 60
2, 15425, Note_on_c, 0, 72, 60
2, 15425, Note_on_c, 0, 68, 60
2, 15471, Control_c, 0, 64, 127
2, 15491, Note_on_c, 0, 72, 0
2, 15502, Note_on_c, 0, 75, 0
2, 15535, Note_on_c, 0, 90, 60
2, 15537, Note_on_c, 0, 72, 60
2, 15537, Note_on_c, 0, 75, 60
2, 15537, Note_on_c, 0, 78, 60
2, 15537, Note_on_c, 0, 66, 60
2, 15540, Note_on_c, 0, 63, 60
2, 15540, Note_on_c, 0, 51, 60
2, 15555, Note_on_c, 0, 90, 0
2, 15557, Note_on_c, 0, 66, 0
2, 15557, Note_on_c, 0, 78, 0
2, 15557, Note_on_c, 0, 75, 0
2, 15557, Note_on_c, 0, 72, 0
2, 15565, Note_on_c, 0, 68, 0
2, 15568, Note_on_c, 0, 56, 0
2, 15573, Note_on_c, 0, 92, 0
2, 15576, Note_on_c, 0, 80, 0
2, 15583, Note_on_c, 0, 66, 60
2, 15591, Note_on_c, 0, 90, 60
2, 15594, Note_on_c, 0, 75, 60
2, 15594, Note_on_c, 0, 78, 60
2, 15594, Note_on_c, 0, 72, 60
2, 15652, Note_on_c, 0, 60, 60
2, 15652, Note_on_c, 0, 48, 60
2, 15662, Note_on_c, 0, 66, 0
2, 15662, Note_on_c, 0, 51, 0
2, 15667, Note_on_c, 0, 90, 0
2, 15670, Note_on_c, 0, 72, 0
2, 15670, Note_on_c, 0, 63, 0
2, 15670, Note_on_c, 0, 75, 0
2, 15670, Note_on_c, 0, 78, 0
2, 15705, Note_on_c, 0, 90, 60
2, 15708, Note_on_c, 0, 75, 60
2, 15708, Note_on_c, 0, 78, 60
2, 15708, Note_on_c, 0, 72, 60
2, 15711, Note_on_c, 0, 66, 60
2, 15725, Note_on_c, 0, 90, 0
2, 15728, Note_on_c, 0, 72, 0
2, 15728, Note_on_c, 0, 78, 0
2, 15728, Note_on_c, 0, 75, 0
2, 15728, Note_on_c, 0, 66, 0
2, 15767, Note_on_c, 0, 90, 60
2, 15769, Note_on_c, 0, 75, 60
2, 15769, Note_on_c, 0, 78, 60
2, 15769, Note_on_c, 0, 72, 60
2, 15771, Note_on_c, 0, 66, 60
2, 15771, Note_on_c, 0, 56, 60
2, 15774, Note_on_c, 0, 44, 60
2, 15784, Note_on_c, 0, 48, 0
2, 15787, Control_c, 0, 64, 0
2, 15792, Note_on_c, 0, 60, 0
2, 15858, Note_on_c, 0, 72, 0
2, 15876, Note_on_c, 0, 90, 0
2, 15879, Note_on_c, 0, 75, 0
2, 15879, Note_on_c, 0, 78, 0
2, 15879, Note_on_c, 0, 66, 0
2, 15881, Note_on_c, 0, 44, 0
2, 15884, Note_on_c, 0, 91, 60
2, 15887, Note_on_c, 0, 79, 60
2, 15888, Note_on_c, 0, 67, 60
2, 15888, Note_on_c, 0, 72, 60
2, 15888, Note_on_c, 0, 76, 60
2, 15888, Note_on_c, 0, 55, 60
2, 15891, Note_on_c, 0, 43, 60
2, 15899, Note_on_c, 0, 56, 0
2, 15950, Note_on_c, 0, 55, 0
2, 16006, Note_on_c, 0, 64, 60
2, 16008, Note_on_c, 0, 60, 60
2, 16008, Note_on_c, 0, 55, 60
2, 16036, Note_on_c, 0, 55, 0
2, 16036, Note_on_c, 0, 60, 0
2, 16036, Note_on_c, 0, 64, 0
2, 16070, Note_on_c, 0, 43, 0
2, 16082, Note_on_c, 0, 91, 0
2, 16084, Note_on_c, 0, 79, 0
2, 16084, Note_on_c, 0, 76, 0
2, 16084, Note_on_c, 0, 67, 0
2, 16126, Note_on_c, 0, 91, 60
2, 16126, Note_on_c, 0, 79, 60
2, 16128, Note_on_c, 0, 76, 60
2, 16130, Note_on_c, 0, 67, 60
2, 16130, Note_on_c, 0, 52, 60
2, 16133, Note_on_c, 0, 40, 60
2, 16149, Note_on_c, 0, 76, 0
2, 16151, Note_on_c, 0, 72, 0
2, 16187, Note_on_c, 0, 91, 0
2, 16187, Note_on_c, 0, 79, 0
2, 16187, Note_on_c, 0, 88, 60
2, 16187, Note_on_c, 0, 76, 60
2, 16189, Note_on_c, 0, 72, 60
2, 16189, Note_on_c, 0, 64, 60
2, 16207, Note_on_c, 0, 64, 0
2, 16207, Note_on_c, 0, 67, 0
2, 16207, Note_on_c, 0, 72, 0
2, 16246, Note_on_c, 0, 88, 0
2, 16246, Note_on_c, 0, 84, 60
2, 16248, Note_on_c, 0, 76, 0
2, 16248, Note_on_c, 0, 60, 60
2, 16248, Note_on_c, 0, 64, 60
2, 16248, Note_on_c, 0, 67, 60
2, 16248, Note_on_c, 0, 72, 60
2, 16248, Note_on_c, 0, 55, 60
2, 16268, Note_on_c, 0, 67, 0
2, 16271, Note_on_c, 0, 64, 0
2, 16281, Note_on_c, 0, 55, 0
2, 16306, Note_on_c, 0, 84, 0
2, 16306, Note_on_c, 0, 79, 60
2, 16309, Note_on_c, 0, 72, 0
2, 16309, Note_on_c, 0, 67, 60
2, 16309, Note_on_c, 0, 64, 60
2, 16312, Note_on_c, 0, 55, 60
2, 16324, Note_on_c, 0, 40, 0
2, 16329, Note_on_c, 0, 60, 0
2, 16332, Note_on_c, 0, 52, 0
2, 16368, Note_on_c, 0, 79, 0
2, 16368, Note_on_c, 0, 81, 60
2, 16368, Note_on_c, 0, 66, 60
2, 16370, Note_on_c, 0, 67, 0
2, 16370, Note_on_c, 0, 64, 0
2, 16370, Note_on_c, 0, 60, 60
2, 16370, Note_on_c, 0, 69, 60
2, 16370, Note_on_c, 0, 57, 60
2, 16372, Note_on_c, 0, 55, 0
2, 16372, Note_on_c, 0, 50, 60
2, 16375, Note_on_c, 0, 38, 60
2, 16462, Note_on_c, 0, 60, 0
2, 16462, Note_on_c, 0, 57, 0
2, 16495, Note_on_c, 0, 57, 60
2, 16495, Note_on_c, 0, 60, 60
2, 16495, Note_on_c, 0, 54, 60
2, 16571, Note_on_c, 0, 54, 0
2, 16574, Note_on_c, 0, 50, 0
2, 16576, Note_on_c, 0, 38, 0
2, 16607, Note_on_c, 0, 86, 60
2, 16609, Note_on_c, 0, 74, 60
2, 16609, Note_on_c, 0, 65, 60
2, 16612, Note_on_c, 0, 59, 60
2, 16612, Note_on_c, 0, 62, 60
2, 16612, Note_on_c, 0, 55, 60
2, 16614, Note_on_c, 0, 43, 60
2, 16619, Note_on_c, 0, 81, 0
2, 16619, Note_on_c, 0, 69, 0
2, 16622, Note_on_c, 0, 66, 0
2, 16622, Note_on_c, 0, 57, 0
2, 16622, Note_on_c, 0, 60, 0
2, 16630, Note_on_c, 0, 62, 0
2, 16630, Note_on_c, 0, 74, 0
2, 16630, Note_on_c, 0, 86, 0
2, 16632, Note_on_c, 0, 65, 0
2, 16668, Note_on_c, 0, 86, 60
2, 16671, Note_on_c, 0, 74, 60
2, 16673, Note_on_c, 0, 65, 60
2, 16673, Note_on_c, 0, 62, 60
2, 16752, Note_on_c, 0, 65, 0
2, 16754, Note_on_c, 0, 55, 0
2, 16790, Note_on_c, 0, 79, 60
2, 16793, Note_on_c, 0, 67, 60
2, 16796, Note_on_c, 0, 65, 60
2, 16796, Note_on_c, 0, 55, 60
2, 16813, Note_on_c, 0, 55, 0
2, 16821, Note_on_c, 0, 74, 0
2, 16824, Note_on_c, 0, 62, 0
2, 16839, Note_on_c, 0, 86, 0
2, 16844, Note_on_c, 0, 59, 0
2, 16848, Note_on_c, 0, 84, 60
2, 16851, Note_on_c, 0, 72, 60
2, 16851, Note_on_c, 0, 64, 60
2, 16854, Note_on_c, 0, 55, 60
2, 16854, Note_on_c, 0, 60, 60
2, 16854, Note_on_c, 0, 48, 60
2, 16856, Note_on_c, 0, 36, 60
2, 16864, Note_on_c, 0, 65, 0
2, 16867, Note_on_c, 0, 43, 0
2, 16872, Note_on_c, 0, 67, 0
2, 16882, Note_on_c, 0, 79, 0
2, 16943, Note_on_c, 0, 55, 0
2, 16968, Note_on_c, 0, 91, 60
2, 16968, Note_on_c, 0, 79, 60
2, 16971, Note_on_c, 0, 67, 60
2, 16973, Note_on_c, 0, 55, 60
2, 16981, Note_on_c, 0, 60, 0
2, 16984, Note_on_c, 0, 48, 0
2, 16986, Note_on_c, 0, 91, 0
2, 16986, Note_on_c, 0, 36, 0
2, 16989, Note_on_c, 0, 79, 0
2, 16992, Note_on_c, 0, 67, 0
2, 17001, Note_on_c, 0, 64, 0
2, 17004, Note_on_c, 0, 55, 0
2, 17012, Note_on_c, 0, 72, 0
2, 17019, Note_on_c, 0, 84, 0
2, 17027, Note_on_c, 0, 91, 60
2, 17030, Note_on_c, 0, 79, 60
2, 17032, Note_on_c, 0, 67, 60
2, 17047, Note_on_c, 0, 91, 0
2, 17050, Note_on_c, 0, 79, 0
2, 17052, Note_on_c, 0, 67, 0
2, 17086, Note_on_c, 0, 91, 60
2, 17088, Note_on_c, 0, 79, 60
2, 17088, Control_c, 0, 64, 127
2, 17090, Note_on_c, 0, 67, 60
2, 17160, Note_on_c, 0, 91, 0
2, 17161, Note_on_c, 0, 67, 0
2, 17161, Note_on_c, 0, 79, 0
2, 17210, Note_on_c, 0, 91, 60
2, 17213, Note_on_c, 0, 79, 60
2, 17215, Note_on_c, 0, 67, 60
2, 17215, Note_on_c, 0, 61, 60
2, 17218, Note_on_c, 0, 49, 60
2, 17254, Note_on_c, 0, 79, 0
2, 17272, Note_on_c, 0, 91, 0
2, 17272, Control_c, 0, 64, 0
2, 17289, Note_on_c, 0, 79, 60
2, 17309, Note_on_c, 0, 83, 60
2, 17315, Note_on_c, 0, 49, 0
2, 17325, Note_on_c, 0, 103, 60
2, 17328, Note_on_c, 0, 91, 60
2, 17332, Note_on_c, 0, 61, 0
2, 17332, Note_on_c, 0, 62, 60
2, 17332, Note_on_c, 0, 50, 60
2, 17351, Note_on_c, 0, 67, 0
2, 17383, Note_on_c, 0, 101, 60
2, 17386, Note_on_c, 0, 89, 60
2, 17397, Note_on_c, 0, 103, 0
2, 17399, Note_on_c, 0, 91, 0
2, 17419, Note_on_c, 0, 79, 0
2, 17429, Note_on_c, 0, 83, 0
2, 17445, Note_on_c, 0, 98, 60
2, 17448, Note_on_c, 0, 55, 60
2, 17448, Note_on_c, 0, 59, 60
2, 17448, Note_on_c, 0, 65, 60
2, 17448, Note_on_c, 0, 86, 60
2, 17452, Note_on_c, 0, 101, 0
2, 17455, Note_on_c, 0, 89, 0
2, 17477, Note_on_c, 0, 65, 0
2, 17477, Note_on_c, 0, 55, 0
2, 17477, Note_on_c, 0, 59, 0
2, 17503, Note_on_c, 0, 95, 60
2, 17506, Note_on_c, 0, 83, 60
2, 17511, Note_on_c, 0, 50, 0
2, 17514, Note_on_c, 0, 98, 0
2, 17516, Note_on_c, 0, 86, 0
2, 17519, Note_on_c, 0, 62, 0
2, 17565, Note_on_c, 0, 91, 60
2, 17567, Note_on_c, 0, 79, 60
2, 17572, Note_on_c, 0, 55, 60
2, 17572, Note_on_c, 0, 43, 60
2, 17574, Note_on_c, 0, 95, 0
2, 17577, Note_on_c, 0, 83, 0
2, 17623, Note_on_c, 0, 89, 60
2, 17625, Note_on_c, 0, 77, 60
2, 17633, Note_on_c, 0, 91, 0
2, 17636, Note_on_c, 0, 79, 0
2, 17639, Note_on_c, 0, 55, 0
2, 17684, Note_on_c, 0, 86, 60
2, 17684, Note_on_c, 0, 74, 60
2, 17687, Note_on_c, 0, 59, 60
2, 17687, Note_on_c, 0, 65, 60
2, 17687, Note_on_c, 0, 55, 60
2, 17694, Note_on_c, 0, 89, 0
2, 17697, Note_on_c, 0, 77, 0
2, 17727, Note_on_c, 0, 65, 0
2, 17727, Note_on_c, 0, 55, 0
2, 17727, Note_on_c, 0, 59, 0
2, 17740, Note_on_c, 0, 83, 60
2, 17742, Note_on_c, 0, 71, 60
2, 17753, Note_on_c, 0, 74, 0
2, 17758, Note_on_c, 0, 43, 0
2, 17762, Note_on_c, 0, 86, 0
2, 17801, Note_on_c, 0, 84, 60
2, 17804, Note_on_c, 0, 76, 60
2, 17804, Note_on_c, 0, 72, 60
2, 17807, Note_on_c, 0, 60, 60
2, 17807, Note_on_c, 0, 48, 60
2, 17814, Note_on_c, 0, 71, 0
2, 17824, Note_on_c, 0, 83, 0
2, 17844, Note_on_c, 0, 76, 0
2, 17844, Note_on_c, 0, 84, 0
2, 17847, Note_on_c, 0, 72, 0
2, 17878, Note_on_c, 0, 60, 0
2, 17926, Note_on_c, 0, 76, 60
2, 17926, Note_on_c, 0, 81, 60
2, 17926, Note_on_c, 0, 72, 60
2, 17928, Note_on_c, 0, 69, 60
2, 17928, Note_on_c, 0, 64, 60
2, 17931, Note_on_c, 0, 60, 60
2, 17931, Note_on_c, 0, 55, 60
2, 17949, Note_on_c, 0, 72, 0
2, 17949, Note_on_c, 0, 76, 0
2, 17959, Note_on_c, 0, 64, 0
2, 17959, Note_on_c, 0, 55, 0
2, 17959, Note_on_c, 0, 60, 0
2, 17987, Note_on_c, 0, 79, 60
2, 17987, Note_on_c, 0, 76, 60
2, 17990, Note_on_c, 0, 72, 60
2, 17990, Note_on_c, 0, 67, 60
2, 17998, Note_on_c, 0, 81, 0
2, 18000, Note_on_c, 0, 69, 0
2, 18010, Note_on_c, 0, 48, 0
2, 18048, Note_on_c, 0, 55, 60
2, 18048, Note_on_c, 0, 43, 60
2, 18063, Note_on_c, 0, 76, 0
2, 18066, Note_on_c, 0, 72, 0
2, 18101, Note_on_c, 0, 81, 60
2, 18101, Note_on_c, 0, 76, 60
2, 18104, Note_on_c, 0, 72, 60
2, 18107, Note_on_c, 0, 69, 60
2, 18117, Note_on_c, 0, 55, 0
2, 18121, Note_on_c, 0, 79, 0
2, 18121, Note_on_c, 0, 76, 0
2, 18124, Note_on_c, 0, 67, 0
2, 18124, Note_on_c, 0, 72, 0
2, 18160, Note_on_c, 0, 79, 60
2, 18163, Note_on_c, 0, 72, 60
2, 18163, Note_on_c, 0, 76, 60
2, 18163, Note_on_c, 0, 67, 60
2, 18166, Note_on_c, 0, 60, 60
2, 18166, Note_on_c, 0, 64, 60
2, 18166, Note_on_c, 0, 55, 60
2, 18170, Note_on_c, 0, 81, 0
2, 18173, Note_on_c, 0, 69, 0
2, 18201, Note_on_c, 0, 64, 0
2, 18201, Note_on_c, 0, 60, 0
2, 18203, Note_on_c, 0, 55, 0
2, 18264, Note_on_c, 0, 43, 0
2, 18277, Note_on_c, 0, 83, 60
2, 18280, Note_on_c, 0, 71, 60
2, 18280, Note_on_c, 0, 77, 60
2, 18280, Note_on_c, 0, 62, 60
2, 18283, Note_on_c, 0, 50, 60
2, 18290, Note_on_c, 0, 79, 0
2, 18290, Note_on_c, 0, 67, 0
2, 18290, Note_on_c, 0, 72, 0
2, 18290, Note_on_c, 0, 76, 0
2, 18336, Note_on_c, 0, 83, 0
2, 18338, Note_on_c, 0, 71, 0
2, 18338, Note_on_c, 0, 77, 0
2, 18389, Note_on_c, 0, 55, 60
2, 18394, Note_on_c, 0, 81, 60
2, 18394, Note_on_c, 0, 77, 60
2, 18397, Note_on_c, 0, 69, 60
2, 18397, Note_on_c, 0, 71, 60
2, 18397, Note_on_c, 0, 65, 60
2, 18400, Note_on_c, 0, 59, 60
2, 18415, Note_on_c, 0, 71, 0
2, 18415, Note_on_c, 0, 77, 0
2, 18425, Note_on_c, 0, 65, 0
2, 18428, Note_on_c, 0, 59, 0
2, 18428, Note_on_c, 0, 55, 0
2, 18453, Note_on_c, 0, 79, 60
2, 18456, Note_on_c, 0, 71, 60
2, 18456, Note_on_c, 0, 77, 60
2, 18456, Note_on_c, 0, 67, 60
2, 18466, Note_on_c, 0, 69, 0
2, 18468, Note_on_c, 0, 50, 0
2, 18476, Note_on_c, 0, 81, 0
2, 18496, Note_on_c, 0, 62, 0
2, 18517, Note_on_c, 0, 55, 60
2, 18517, Note_on_c, 0, 43, 60
2, 18534, Note_on_c, 0, 77, 0
2, 18573, Note_on_c, 0, 77, 60
2, 18576, Note_on_c, 0, 81, 60
2, 18576, Note_on_c, 0, 69, 60
2, 18585, Note_on_c, 0, 67, 0
2, 18585, Note_on_c, 0, 79, 0
2, 18588, Note_on_c, 0, 55, 0
2, 18593, Note_on_c, 0, 77, 0
2, 18596, Note_on_c, 0, 71, 0
2, 18631, Note_on_c, 0, 79, 60
2, 18631, Note_on_c, 0, 77, 60
2, 18634, Note_on_c, 0, 65, 60
2, 18634, Note_on_c, 0, 67, 60
2, 18634, Note_on_c, 0, 59, 60
2, 18636, Note_on_c, 0, 55, 60
2, 18654, Note_on_c, 0, 81, 0
2, 18654, Note_on_c, 0, 69, 0
2, 18664, Note_on_c, 0, 55, 0
2, 18664, Note_on_c, 0, 59, 0
2, 18664, Note_on_c, 0, 65, 0
2, 18708, Note_on_c, 0, 43, 0
2, 18751, Note_on_c, 0, 84, 60
2, 18751, Note_on_c, 0, 76, 60
2, 18753, Note_on_c, 0, 60, 60
2, 18753, Note_on_c, 0, 72, 60
2, 18753, Note_on_c, 0, 48, 60
2, 18761, Note_on_c, 0, 77, 0
2, 18771, Note_on_c, 0, 67, 0
2, 18781, Note_on_c, 0, 79, 0
2, 18792, Note_on_c, 0, 84, 0
2, 18792, Note_on_c, 0, 76, 0
2, 18792, Note_on_c, 0, 72, 0
2, 18804, Note_on_c, 0, 60, 0
2, 18870, Note_on_c, 0, 81, 60
2, 18870, Note_on_c, 0, 72, 60
2, 18873, Note_on_c, 0, 60, 60
2, 18873, Note_on_c, 0, 64, 60
2, 18873, Note_on_c, 0, 69, 60
2, 18873, Note_on_c, 0, 76, 60
2, 18873, Note_on_c, 0, 55, 60
2, 18891, Note_on_c, 0, 76, 0
2, 18891, Note_on_c, 0, 72, 0
2, 18904, Note_on_c, 0, 64, 0
2, 18906, Note_on_c, 0, 55, 0
2, 18906, Note_on_c, 0, 60, 0
2, 18932, Note_on_c, 0, 79, 60
2, 18935, Note_on_c, 0, 69, 0
2, 18935, Note_on_c, 0, 81, 0
2, 18935, Note_on_c, 0, 72, 60
2, 18935, Note_on_c, 0, 76, 60
2, 18935, Note_on_c, 0, 67, 60
2, 18958, Note_on_c, 0, 48, 0
2, 18998, Note_on_c, 0, 55, 60
2, 18998, Note_on_c, 0, 43, 60
2, 19016, Note_on_c, 0, 79, 0
2, 19052, Note_on_c, 0, 91, 60
2, 19052, Note_on_c, 0, 79, 60
2, 19067, Note_on_c, 0, 55, 0
2, 19095, Note_on_c, 0, 67, 0
2, 19095, Note_on_c, 0, 72, 0
2, 19103, Note_on_c, 0, 76, 0
2, 19107, Note_on_c, 0, 96, 60
2, 19107, Note_on_c, 0, 55, 60
2, 19112, Note_on_c, 0, 79, 0
2, 19112, Note_on_c, 0, 91, 0
2, 19112, Note_on_c, 0, 64, 60
2, 19115, Note_on_c, 0, 60, 60
2, 19120, Note_on_c, 0, 84, 60
2, 19153, Note_on_c, 0, 64, 0
2, 19155, Note_on_c, 0, 60, 0
2, 19155, Note_on_c, 0, 55, 0
2, 19169, Note_on_c, 0, 96, 0
2, 19169, Note_on_c, 0, 100, 60
2, 19171, Note_on_c, 0, 88, 60
2, 19181, Note_on_c, 0, 84, 0
2, 19189, Note_on_c, 0, 43, 0
2, 19192, Note_on_c, 0, 79, 60
2, 19212, Note_on_c, 0, 83, 60
2, 19229, Note_on_c, 0, 103, 60
2, 19232, Note_on_c, 0, 100, 0
2, 19232, Note_on_c, 0, 91, 60
2, 19235, Note_on_c, 0, 88, 0
2, 19237, Note_on_c, 0, 62, 60
2, 19237, Note_on_c, 0, 50, 60
2, 19265, Note_on_c, 0, 79, 0
2, 19272, Control_c, 0, 64, 127
2, 19275, Note_on_c, 0, 83, 0
2, 19291, Note_on_c, 0, 101, 60
2, 19294, Note_on_c, 0, 103, 0
2, 19294, Note_on_c, 0, 89, 60
2, 19296, Note_on_c, 0, 91, 0
2, 19352, Note_on_c, 0, 98, 60
2, 19354, Note_on_c, 0, 86, 60
2, 19360, Note_on_c, 0, 59, 60
2, 19360, Note_on_c, 0, 65, 60
2, 19360, Note_on_c, 0, 55, 60
2, 19388, Note_on_c, 0, 89, 0
2, 19390, Note_on_c, 0, 55, 0
2, 19390, Note_on_c, 0, 65, 0
2, 19390, Note_on_c, 0, 59, 0
2, 19395, Note_on_c, 0, 101, 0
2, 19403, Note_on_c, 0, 50, 0
2, 19416, Note_on_c, 0, 95, 60
2, 19418, Note_on_c, 0, 83, 60
2, 19431, Note_on_c, 0, 62, 0
2, 19443, Note_on_c, 0, 98, 0
2, 19459, Note_on_c, 0, 86, 0
2, 19477, Note_on_c, 0, 91, 60
2, 19477, Note_on_c, 0, 79, 60
2, 19482, Note_on_c, 0, 55, 60
2, 19485, Note_on_c, 0, 43, 60
2, 19520, Note_on_c, 0, 83, 0
2, 19528, Note_on_c, 0, 95, 0
2, 19537, Note_on_c, 0, 89, 60
2, 19540, Note_on_c, 0, 77, 60
2, 19551, Note_on_c, 0, 55, 0
2, 19579, Note_on_c, 0, 79, 0
2, 19579, Note_on_c, 0, 91, 0
2, 19599, Note_on_c, 0, 86, 60
2, 19602, Note_on_c, 0, 65, 60
2, 19602, Note_on_c, 0, 74, 60
2, 19602, Note_on_c, 0, 59, 60
2, 19604, Note_on_c, 0, 55, 60
2, 19619, Control_c, 0, 64, 0
2, 19637, Note_on_c, 0, 89, 0
2, 19639, Note_on_c, 0, 65, 0
2, 19642, Note_on_c, 0, 55, 0
2, 19642, Note_on_c, 0, 59, 0
2, 19650, Note_on_c, 0, 77, 0
2, 19657, Note_on_c, 0, 83, 60
2, 19660, Note_on_c, 0, 71, 60
2, 19676, Note_on_c, 0, 43, 0
2, 19690, Note_on_c, 0, 74, 0
2, 19698, Note_on_c, 0, 86, 0
2, 19713, Note_on_c, 0, 48, 60
2, 19716, Note_on_c, 0, 76, 60
2, 19719, Note_on_c, 0, 84, 60
2, 19721, Note_on_c, 0, 71, 0
2, 19721, Note_on_c, 0, 72, 60
2, 19721, Note_on_c, 0, 60, 60
2, 19739, Note_on_c, 0, 83, 0
2, 19759, Note_on_c, 0, 84, 0
2, 19762, Note_on_c, 0, 72, 0
2, 19762, Note_on_c, 0, 76, 0
2, 19793, Note_on_c, 0, 60, 0
2, 19838, Note_on_c, 0, 81, 60
2, 19838, Note_on_c, 0, 76, 60
2, 19841, Note_on_c, 0, 60, 60
2, 19841, Note_on_c, 0, 64, 60
2, 19841, Note_on_c, 0, 69, 60
2, 19841, Note_on_c, 0, 72, 60
2, 19841, Note_on_c, 0, 55, 60
2, 19859, Note_on_c, 0, 76, 0
2, 19861, Note_on_c, 0, 72, 0
2, 19872, Note_on_c, 0, 55, 0
2, 19872, Note_on_c, 0, 64, 0
2, 19872, Note_on_c, 0, 60, 0
2, 19896, Note_on_c, 0, 79, 60
2, 19899, Note_on_c, 0, 72, 60
2, 19899, Note_on_c, 0, 76, 60
2, 19899, Note_on_c, 0, 67, 60
2, 19912, Note_on_c, 0, 48, 0
2, 19918, Note_on_c, 0, 69, 0
2, 19918, Note_on_c, 0, 81, 0
2, 19961, Note_on_c, 0, 52, 60
2, 19961, Note_on_c, 0, 40, 60
2, 19978, Note_on_c, 0, 67, 0
2, 19978, Note_on_c, 0, 79, 0
2, 20014, Note_on_c, 0, 79, 60
2, 20016, Note_on_c, 0, 67, 60
2, 20037, Note_on_c, 0, 67, 0
2, 20037, Note_on_c, 0, 76, 0
2, 20037, Note_on_c, 0, 72, 0
2, 20072, Note_on_c, 0, 88, 60
2, 20075, Note_on_c, 0, 76, 60
2, 20075, Note_on_c, 0, 70, 60
2, 20078, Note_on_c, 0, 67, 60
2, 20080, Note_on_c, 0, 49, 60
2, 20080, Note_on_c, 0, 37, 60
2, 20093, Note_on_c, 0, 79, 0
2, 20093, Note_on_c, 0, 40, 0
2, 20098, Note_on_c, 0, 52, 0
2, 20152, Note_on_c, 0, 88, 0
2, 20154, Note_on_c, 0, 76, 0
2, 20154, Note_on_c, 0, 67, 0
2, 20177, Note_on_c, 0, 37, 0
2, 20187, Note_on_c, 0, 49, 0
2, 20189, Note_on_c, 0, 88, 60
2, 20192, Note_on_c, 0, 71, 60
2, 20192, Note_on_c, 0, 76, 60
2, 20192, Note_on_c, 0, 67, 60
2, 20195, Note_on_c, 0, 50, 60
2, 20197, Note_on_c, 0, 38, 60
2, 20203, Note_on_c, 0, 70, 0
2, 20261, Note_on_c, 0, 50, 0
2, 20279, Note_on_c, 0, 67, 0
2, 20279, Note_on_c, 0, 71, 0
2, 20306, Note_on_c, 0, 74, 60
2, 20306, Note_on_c, 0, 86, 60
2, 20306, Note_on_c, 0, 71, 60
2, 20309, Note_on_c, 0, 59, 60
2, 20309, Note_on_c, 0, 55, 60
2, 20312, Note_on_c, 0, 50, 60
2, 20328, Note_on_c, 0, 71, 0
2, 20328, Note_on_c, 0, 88, 0
2, 20337, Note_on_c, 0, 76, 0
2, 20340, Note_on_c, 0, 59, 0
2, 20340, Note_on_c, 0, 50, 0
2, 20340, Note_on_c, 0, 55, 0
2, 20365, Note_on_c, 0, 83, 60
2, 20368, Note_on_c, 0, 71, 60
2, 20371, Note_on_c, 0, 67, 60
2, 20373, Note_on_c, 0, 38, 0
2, 20399, Note_on_c, 0, 74, 0
2, 20408, Note_on_c, 0, 86, 0
2, 20434, Note_on_c, 0, 38, 60
2, 20449, Note_on_c, 0, 67, 0
2, 20488, Note_on_c, 0, 79, 60
2, 20490, Note_on_c, 0, 67, 60
2, 20490, Note_on_c, 0, 59, 60
2, 20519, Note_on_c, 0, 83, 0
2, 20520, Note_on_c, 0, 71, 0
2, 20546, Note_on_c, 0, 81, 60
2, 20548, Note_on_c, 0, 57, 60
2, 20548, Note_on_c, 0, 60, 60
2, 20548, Note_on_c, 0, 69, 60
2, 20548, Note_on_c, 0, 54, 60
2, 20551, Note_on_c, 0, 50, 60
2, 20556, Note_on_c, 0, 79, 0
2, 20556, Note_on_c, 0, 67, 0
2, 20559, Note_on_c, 0, 59, 0
2, 20579, Note_on_c, 0, 54, 0
2, 20579, Note_on_c, 0, 50, 0
2, 20579, Note_on_c, 0, 57, 0
2, 20602, Note_on_c, 0, 38, 0
2, 20668, Note_on_c, 0, 79, 60
2, 20668, Note_on_c, 0, 67, 60
2, 20671, Note_on_c, 0, 59, 60
2, 20671, Note_on_c, 0, 55, 60
2, 20673, Note_on_c, 0, 50, 60
2, 20673, Note_on_c, 0, 43, 60
2, 20681, Note_on_c, 0, 60, 0
2, 20688, Note_on_c, 0, 67, 0
2, 20688, Note_on_c, 0, 79, 0
2, 20699, Note_on_c, 0, 69, 0
2, 20699, Note_on_c, 0, 81, 0
2, 20727, Note_on_c, 0, 79, 60
2, 20730, Note_on_c, 0, 67, 60
2, 20785, Note_on_c, 0, 83, 60
2, 20788, Note_on_c, 0, 71, 60
2, 20801, Note_on_c, 0, 43, 0
2, 20801, Note_on_c, 0, 50, 0
2, 20808, Note_on_c, 0, 55, 0
2, 20819, Note_on_c, 0, 59, 0
2, 20819, Note_on_c, 0, 67, 0
2, 20826, Note_on_c, 0, 79, 0
2, 20844, Note_on_c, 0, 86, 60
2, 20847, Note_on_c, 0, 74, 60
2, 20878, Note_on_c, 0, 71, 0
2, 20887, Note_on_c, 0, 83, 0
2, 20903, Note_on_c, 0, 91, 60
2, 20905, Note_on_c, 0, 79, 60
2, 20907, Note_on_c, 0, 59, 60
2, 20907, Note_on_c, 0, 62, 60
2, 20907, Note_on_c, 0, 55, 60
2, 20923, Note_on_c, 0, 79, 0
2, 20923, Note_on_c, 0, 91, 0
2, 20936, Note_on_c, 0, 74, 0
2, 20943, Note_on_c, 0, 86, 0
2, 20961, Note_on_c, 0, 91, 60
2, 20964, Note_on_c, 0, 79, 60
2, 21001, Note_on_c, 0, 91, 0
2, 21004, Note_on_c, 0, 79, 0
2, 21020, Note_on_c, 0, 95, 60
2, 21023, Note_on_c, 0, 83, 60
2, 21043, Note_on_c, 0, 62, 0
2, 21046, Note_on_c, 0, 55, 0
2, 21055, Note_on_c, 0, 59, 0
2, 21058, Note_on_c, 0, 95, 0
2, 21060, Note_on_c, 0, 83, 0
2, 21078, Note_on_c, 0, 98, 60
2, 21081, Note_on_c, 0, 86, 60
2, 21098, Note_on_c, 0, 79, 60
2, 21120, Note_on_c, 0, 98, 0
2, 21121, Note_on_c, 0, 86, 0
2, 21121, Note_on_c, 0, 83, 60
2, 21134, Note_on_c, 0, 103, 60
2, 21137, Note_on_c, 0, 91, 60
2, 21144, Note_on_c, 0, 62, 60
2, 21144, Note_on_c, 0, 50, 60
2, 21163, Note_on_c, 0, 79, 0
2, 21180, Note_on_c, 0, 83, 0
2, 21188, Control_c, 0, 64, 127
2, 21195, Note_on_c, 0, 101, 60
2, 21198, Note_on_c, 0, 89, 60
2, 21237, Note_on_c, 0, 91, 0
2, 21251, Note_on_c, 0, 98, 60
2, 21254, Note_on_c, 0, 103, 0
2, 21257, Note_on_c, 0, 86, 60
2, 21259, Note_on_c, 0, 59, 60
2, 21259, Note_on_c, 0, 65, 60
2, 21259, Note_on_c, 0, 55, 60
2, 21292, Note_on_c, 0, 101, 0
2, 21295, Note_on_c, 0, 89, 0
2, 21308, Note_on_c, 0, 95, 60
2, 21310, Note_on_c, 0, 83, 60
2, 21323, Note_on_c, 0, 65, 0
2, 21323, Note_on_c, 0, 62, 0
2, 21325, Note_on_c, 0, 50, 0
2, 21325, Note_on_c, 0, 55, 0
2, 21333, Note_on_c, 0, 59, 0
2, 21338, Note_on_c, 0, 98, 0
2, 21340, Note_on_c, 0, 86, 0
2, 21371, Note_on_c, 0, 91, 60
2, 21371, Note_on_c, 0, 79, 60
2, 21374, Note_on_c, 0, 55, 60
2, 21376, Note_on_c, 0, 43, 60
2, 21391, Note_on_c, 0, 83, 0
2, 21399, Note_on_c, 0, 95, 0
2, 21399, Control_c, 0, 64, 0
2, 21417, Note_on_c, 0, 89, 60
2, 21430, Note_on_c, 0, 77, 60
2, 21442, Note_on_c, 0, 55, 0
2, 21471, Note_on_c, 0, 79, 0
2, 21471, Note_on_c, 0, 91, 0
2, 21488, Note_on_c, 0, 86, 60
2, 21488, Note_on_c, 0, 74, 60
2, 21491, Note_on_c, 0, 65, 60
2, 21491, Note_on_c, 0, 55, 60
2, 21493, Note_on_c, 0, 59, 60
2, 21522, Note_on_c, 0, 89, 0
2, 21524, Note_on_c, 0, 77, 0
2, 21550, Note_on_c, 0, 83, 60
2, 21550, Note_on_c, 0, 71, 60
2, 21562, Note_on_c, 0, 55, 0
2, 21565, Note_on_c, 0, 43, 0
2, 21570, Note_on_c, 0, 65, 0
2, 21573, Note_on_c, 0, 59, 0
2, 21590, Note_on_c, 0, 74, 0
2, 21590, Note_on_c, 0, 86, 0
2, 21608, Note_on_c, 0, 84, 60
2, 21608, Note_on_c, 0, 76, 60
2, 21610, Note_on_c, 0, 72, 60
2, 21613, Note_on_c, 0, 60, 60
2, 21613, Note_on_c, 0, 48, 60
2, 21631, Note_on_c, 0, 71, 0
2, 21639, Note_on_c, 0, 83, 0
2, 21651, Note_on_c, 0, 76, 0
2, 21651, Note_on_c, 0, 72, 0
2, 21651, Note_on_c, 0, 84, 0
2, 21692, Note_on_c, 0, 60, 0
2, 21730, Note_on_c, 0, 81, 60
2, 21730, Note_on_c, 0, 76, 60
2, 21733, Note_on_c, 0, 60, 60
2, 21733, Note_on_c, 0, 64, 60
2, 21733, Note_on_c, 0, 69, 60
2, 21733, Note_on_c, 0, 72, 60
2, 21733, Note_on_c, 0, 55, 60
2, 21753, Note_on_c, 0, 72, 0
2, 21753, Note_on_c, 0, 76, 0
2, 21792, Note_on_c, 0, 79, 60
2, 21792, Note_on_c, 0, 67, 60
2, 21793, Note_on_c, 0, 76, 60
2, 21793, Note_on_c, 0, 72, 60
2, 21796, Note_on_c, 0, 55, 0
2, 21796, Note_on_c, 0, 60, 0
2, 21807, Note_on_c, 0, 64, 0
2, 21807, Note_on_c, 0, 48, 0
2, 21824, Note_on_c, 0, 81, 0
2, 21824, Note_on_c, 0, 69, 0
2, 21855, Note_on_c, 0, 55, 60
2, 21858, Note_on_c, 0, 43, 60
2, 21875, Note_on_c, 0, 72, 0
2, 21886, Note_on_c, 0, 76, 0
2, 21913, Note_on_c, 0, 76, 60
2, 21916, Note_on_c, 0, 72, 60
2, 21916, Note_on_c, 0, 81, 60
2, 21916, Note_on_c, 0, 69, 60
2, 21926, Note_on_c, 0, 55, 0
2, 21926, Note_on_c, 0, 79, 0
2, 21926, Note_on_c, 0, 67, 0
2, 21936, Note_on_c, 0, 76, 0
2, 21936, Note_on_c, 0, 72, 0
2, 21975, Note_on_c, 0, 76, 60
2, 21975, Note_on_c, 0, 79, 60
2, 21975, Note_on_c, 0, 67, 60
2, 21977, Note_on_c, 0, 60, 60
2, 21977, Note_on_c, 0, 64, 60
2, 21977, Note_on_c, 0, 72, 60
2, 21977, Note_on_c, 0, 55, 60
2, 21984, Note_on_c, 0, 81, 0
2, 21987, Note_on_c, 0, 69, 0
2, 22043, Note_on_c, 0, 64, 0
2, 22046, Note_on_c, 0, 55, 0
2, 22049, Note_on_c, 0, 43, 0
2, 22054, Note_on_c, 0, 60, 0
2, 22086, Note_on_c, 0, 50, 60
2, 22094, Note_on_c, 0, 71, 60
2, 22094, Note_on_c, 0, 77, 60
2, 22094, Note_on_c, 0, 83, 60
2, 22094, Note_on_c, 0, 62, 60
2, 22104, Note_on_c, 0, 72, 0
2, 22104, Note_on_c, 0, 76, 0
2, 22125, Note_on_c, 0, 67, 0
2, 22135, Note_on_c, 0, 79, 0
2, 22145, Note_on_c, 0, 77, 0
2, 22145, Note_on_c, 0, 83, 0
2, 22145, Note_on_c, 0, 71, 0
2, 22219, Note_on_c, 0, 81, 60
2, 22222, Note_on_c, 0, 77, 60
2, 22222, Note_on_c, 0, 69, 60
2, 22224, Note_on_c, 0, 59, 60
2, 22224, Note_on_c, 0, 65, 60
2, 22224, Note_on_c, 0, 71, 60
2, 22224, Note_on_c, 0, 55, 60
2, 22242, Note_on_c, 0, 71, 0
2, 22242, Note_on_c, 0, 77, 0
2, 22252, Note_on_c, 0, 62, 0
2, 22262, Note_on_c, 0, 59, 0
2, 22262, Note_on_c, 0, 55, 0
2, 22262, Note_on_c, 0, 65, 0
2, 22280, Note_on_c, 0, 77, 60
2, 22280, Note_on_c, 0, 79, 60
2, 22280, Note_on_c, 0, 71, 60
2, 22283, Note_on_c, 0, 67, 60
2, 22296, Note_on_c, 0, 50, 0
2, 22323, Note_on_c, 0, 81, 0
2, 22323, Note_on_c, 0, 69, 0
2, 22344, Note_on_c, 0, 55, 60
2, 22344, Note_on_c, 0, 43, 60
2, 22362, Note_on_c, 0, 77, 0
2, 22400, Note_on_c, 0, 77, 60
2, 22400, Note_on_c, 0, 81, 60
2, 22400, Note_on_c, 0, 69, 60
2, 22420, Note_on_c, 0, 77, 0
2, 22420, Note_on_c, 0, 67, 0
2, 22420, Note_on_c, 0, 79, 0
2, 22423, Note_on_c, 0, 55, 0
2, 22431, Note_on_c, 0, 71, 0
2, 22461, Note_on_c, 0, 77, 60
2, 22461, Note_on_c, 0, 79, 60
2, 22461, Note_on_c, 0, 67, 60
2, 22464, Note_on_c, 0, 59, 60
2, 22464, Note_on_c, 0, 65, 60
2, 22464, Note_on_c, 0, 55, 60
2, 22499, Note_on_c, 0, 81, 0
2, 22502, Note_on_c, 0, 69, 0
2, 22542, Note_on_c, 0, 59, 0
2, 22542, Note_on_c, 0, 43, 0
2, 22550, Note_on_c, 0, 65, 0
2, 22550, Note_on_c, 0, 55, 0
2, 22578, Note_on_c, 0, 84, 60
2, 22578, Note_on_c, 0, 76, 60
2, 22581, Note_on_c, 0, 72, 60
2, 22584, Note_on_c, 0, 60, 60
2, 22584, Note_on_c, 0, 48, 60
2, 22591, Note_on_c, 0, 77, 0
2, 22596, Note_on_c, 0, 79, 0
2, 22596, Note_on_c, 0, 67, 0
2, 22616, Note_on_c, 0, 84, 0
2, 22619, Note_on_c, 0, 76, 0
2, 22619, Note_on_c, 0, 72, 0
2, 22652, Note_on_c, 0, 60, 0
2, 22659, Note_on_c, 0, 48, 0
2, 22698, Note_on_c, 0, 81, 60
2, 22698, Note_on_c, 0, 76, 60
2, 22701, Note_on_c, 0, 60, 60
2, 22701, Note_on_c, 0, 64, 60
2, 22701, Note_on_c, 0, 69, 60
2, 22701, Note_on_c, 0, 72, 60
2, 22701, Note_on_c, 0, 55, 60
2, 22703, Note_on_c, 0, 48, 60
2, 22721, Note_on_c, 0, 72, 0
2, 22721, Note_on_c, 0, 76, 0
2, 22756, Note_on_c, 0, 72, 60
2, 22756, Note_on_c, 0, 76, 60
2, 22756, Note_on_c, 0, 79, 60
2, 22756, Note_on_c, 0, 67, 60
2, 22767, Note_on_c, 0, 69, 0
2, 22767, Note_on_c, 0, 81, 0
2, 22767, Note_on_c, 0, 64, 0
2, 22769, Note_on_c, 0, 55, 0
2, 22769, Note_on_c, 0, 60, 0
2, 22818, Note_on_c, 0, 64, 60
2, 22818, Note_on_c, 0, 60, 60
2, 22820, Note_on_c, 0, 55, 60
2, 22863, Note_on_c, 0, 79, 0
2, 22896, Note_on_c, 0, 55, 0
2, 22904, Note_on_c, 0, 67, 0
2, 22929, Note_on_c, 0, 91, 60
2, 22932, Note_on_c, 0, 74, 60
2, 22932, Note_on_c, 0, 79, 60
2, 22932, Note_on_c, 0, 71, 60
2, 22935, Note_on_c, 0, 55, 60
2, 22937, Note_on_c, 0, 43, 60
2, 22943, Note_on_c, 0, 72, 0
2, 22943, Note_on_c, 0, 76, 0
2, 22943, Note_on_c, 0, 64, 0
2, 22944, Note_on_c, 0, 60, 0
2, 22944, Note_on_c, 0, 48, 0
2, 23003, Note_on_c, 0, 43, 0
2, 23006, Note_on_c, 0, 91, 0
2, 23009, Note_on_c, 0, 71, 0
2, 23009, Note_on_c, 0, 79, 0
2, 23009, Note_on_c, 0, 74, 0
2, 23011, Note_on_c, 0, 55, 0
2, 23046, Note_on_c, 0, 84, 60
2, 23049, Note_on_c, 0, 72, 60
2, 23052, Note_on_c, 0, 60, 60
2, 23052, Note_on_c, 0, 48, 60
2, 23064, Control_c, 0, 64, 127
2, 23105, Note_on_c, 0, 88, 60
2, 23108, Note_on_c, 0, 76, 60
2, 23120, Note_on_c, 0, 60, 0
2, 23138, Note_on_c, 0, 72, 0
2, 23163, Note_on_c, 0, 91, 60
2, 23166, Note_on_c, 0, 84, 0
2, 23166, Note_on_c, 0, 79, 60
2, 23166, Note_on_c, 0, 64, 60
2, 23169, Note_on_c, 0, 60, 60
2, 23169, Note_on_c, 0, 55, 60
2, 23194, Note_on_c, 0, 88, 0
2, 23208, Note_on_c, 0, 76, 0
2, 23220, Note_on_c, 0, 96, 60
2, 23225, Note_on_c, 0, 84, 60
2, 23230, Note_on_c, 0, 48, 0
2, 23237, Note_on_c, 0, 60, 0
2, 23237, Note_on_c, 0, 55, 0
2, 23237, Note_on_c, 0, 64, 0
2, 23245, Note_on_c, 0, 79, 0
2, 23245, Note_on_c, 0, 84, 0
2, 23256, Note_on_c, 0, 91, 0
2, 23286, Note_on_c, 0, 84, 60
2, 23288, Note_on_c, 0, 72, 60
2, 23291, Note_on_c, 0, 58, 60
2, 23291, Note_on_c, 0, 46, 60
2, 23314, Note_on_c, 0, 96, 0
2, 23327, Control_c, 0, 64, 0
2, 23345, Note_on_c, 0, 88, 60
2, 23347, Note_on_c, 0, 76, 60
2, 23380, Note_on_c, 0, 72, 0
2, 23399, Note_on_c, 0, 84, 0
2, 23405, Note_on_c, 0, 91, 60
2, 23408, Note_on_c, 0, 79, 60
2, 23411, Note_on_c, 0, 60, 60
2, 23411, Note_on_c, 0, 64, 60
2, 23411, Note_on_c, 0, 55, 60
2, 23444, Note_on_c, 0, 88, 0
2, 23447, Note_on_c, 0, 76, 0
2, 23459, Note_on_c, 0, 96, 60
2, 23462, Note_on_c, 0, 84, 60
2, 23477, Note_on_c, 0, 55, 0
2, 23477, Note_on_c, 0, 64, 0
2, 23477, Note_on_c, 0, 58, 0
2, 23477, Note_on_c, 0, 60, 0
2, 23479, Note_on_c, 0, 46, 0
2, 23482, Note_on_c, 0, 84, 0
2, 23495, Note_on_c, 0, 91, 0
2, 23495, Note_on_c, 0, 79, 0
2, 23525, Note_on_c, 0, 84, 60
2, 23528, Note_on_c, 0, 72, 60
2, 23530, Note_on_c, 0, 57, 60
2, 23530, Note_on_c, 0, 45, 60
2, 23564, Note_on_c, 0, 96, 0
2, 23587, Note_on_c, 0, 89, 60
2, 23589, Note_on_c, 0, 77, 60
2, 23599, Note_on_c, 0, 84, 0
2, 23602, Note_on_c, 0, 57, 0
2, 23619, Note_on_c, 0, 72, 0
2, 23645, Note_on_c, 0, 96, 60
2, 23647, Note_on_c, 0, 84, 60
2, 23650, Note_on_c, 0, 65, 60
2, 23650, Note_on_c, 0, 57, 60
2, 23653, Note_on_c, 0, 60, 60
2, 23658, Note_on_c, 0, 89, 0
2, 23661, Note_on_c, 0, 77, 0
2, 23704, Note_on_c, 0, 89, 60
2, 23709, Note_on_c, 0, 77, 60
2, 23716, Note_on_c, 0, 96, 0
2, 23719, Note_on_c, 0, 84, 0
2, 23721, Note_on_c, 0, 60, 0
2, 23721, Note_on_c, 0, 57, 0
2, 23721, Note_on_c, 0, 65, 0
2, 23724, Note_on_c, 0, 45, 0
2, 23764, Note_on_c, 0, 84, 60
2, 23767, Note_on_c, 0, 72, 60
2, 23770, Note_on_c, 0, 56, 60
2, 23770, Note_on_c, 0, 44, 60
2, 23778, Note_on_c, 0, 89, 0
2, 23778, Note_on_c, 0, 77, 0
2, 23787, Note_on_c, 0, 84, 0
2, 23823, Note_on_c, 0, 96, 60
2, 23829, Note_on_c, 0, 84, 60
2, 23838, Note_on_c, 0, 56, 0
2, 23846, Note_on_c, 0, 72, 0
2, 23887, Note_on_c, 0, 63, 60
2, 23889, Note_on_c, 0, 60, 60
2, 23889, Note_on_c, 0, 56, 60
2, 23943, Note_on_c, 0, 90, 60
2, 23946, Note_on_c, 0, 78, 60
2, 23955, Note_on_c, 0, 56, 0
2, 23955, Note_on_c, 0, 44, 0
2, 23955, Note_on_c, 0, 60, 0
2, 23966, Note_on_c, 0, 63, 0
2, 23978, Note_on_c, 0, 96, 0
2, 23981, Note_on_c, 0, 84, 0
2, 24001, Note_on_c, 0, 90, 0
2, 24001, Note_on_c, 0, 91, 60
2, 24001, Note_on_c, 0, 79, 60
2, 24004, Note_on_c, 0, 78, 0
2, 24006, Note_on_c, 0, 55, 60
2, 24006, Note_on_c, 0, 43, 60
2, 24022, Note_on_c, 0, 79, 0
2, 24060, Note_on_c, 0, 79, 60
2, 24063, Note_on_c, 0, 67, 60
2, 24075, Note_on_c, 0, 55, 0
2, 24098, Note_on_c, 0, 91, 0
2, 24119, Note_on_c, 0, 88, 60
2, 24119, Note_on_c, 0, 76, 60
2, 24121, Note_on_c, 0, 79, 0
2, 24121, Note_on_c, 0, 67, 0
2, 24121, Note_on_c, 0, 64, 60
2, 24121, Note_on_c, 0, 60, 60
2, 24123, Note_on_c, 0, 55, 60
2, 24175, Note_on_c, 0, 86, 60
2, 24175, Note_on_c, 0, 74, 60
2, 24185, Note_on_c, 0, 88, 0
2, 24188, Note_on_c, 0, 76, 0
2, 24188, Note_on_c, 0, 55, 0
2, 24190, Note_on_c, 0, 43, 0
2, 24195, Note_on_c, 0, 64, 0
2, 24197, Note_on_c, 0, 60, 0
2, 24234, Note_on_c, 0, 84, 60
2, 24234, Note_on_c, 0, 72, 60
2, 24236, Note_on_c, 0, 66, 60
2, 24236, Note_on_c, 0, 57, 60
2, 24239, Note_on_c, 0, 45, 60
2, 24243, Note_on_c, 0, 86, 0
2, 24243, Note_on_c, 0, 74, 0
2, 24351, Note_on_c, 0, 86, 60
2, 24353, Note_on_c, 0, 71, 60
2, 24353, Note_on_c, 0, 74, 60
2, 24353, Note_on_c, 0, 65, 60
2, 24356, Note_on_c, 0, 72, 0
2, 24356, Note_on_c, 0, 66, 0
2, 24356, Note_on_c, 0, 55, 60
2, 24359, Note_on_c, 0, 43, 60
2, 24376, Note_on_c, 0, 57, 0
2, 24376, Note_on_c, 0, 45, 0
2, 24384, Note_on_c, 0, 84, 0
2, 24470, Note_on_c, 0, 84, 60
2, 24473, Note_on_c, 0, 64, 60
2, 24473, Note_on_c, 0, 72, 60
2, 24473, Note_on_c, 0, 60, 60
2, 24476, Note_on_c, 0, 48, 60
2, 24485, Note_on_c, 0, 65, 0
2, 24485, Note_on_c, 0, 71, 0
2, 24488, Note_on_c, 0, 43, 0
2, 24493, Note_on_c, 0, 86, 0
2, 24496, Note_on_c, 0, 55, 0
2, 24496, Note_on_c, 0, 74, 0
2, 24587, Note_on_c, 0, 91, 60
2, 24590, Note_on_c, 0, 79, 60
2, 24593, Note_on_c, 0, 67, 60
2, 24602, Note_on_c, 0, 64, 0
2, 24605, Note_on_c, 0, 48, 0
2, 24613, Note_on_c, 0, 79, 0
2, 24613, Note_on_c, 0, 91, 0
2, 24613, Note_on_c, 0, 67, 0
2, 24613, Note_on_c, 0, 72, 0
2, 24613, Note_on_c, 0, 84, 0
2, 24615, Note_on_c, 0, 60, 0
2, 24651, Note_on_c, 0, 91, 60
2, 24653, Note_on_c, 0, 79, 60
2, 24653, Note_on_c, 0, 67, 60
2, 24673, Note_on_c, 0, 79, 0
2, 24673, Note_on_c, 0, 91, 0
2, 24676, Note_on_c, 0, 67, 0
2, 24718, Note_on_c, 0, 91, 60
2, 24720, Note_on_c, 0, 79, 60
2, 24722, Note_on_c, 0, 67, 60
2, 24791, Note_on_c, 0, 91, 0
2, 24793, Note_on_c, 0, 67, 0
2, 24793, Note_on_c, 0, 79, 0
2, 24841, Note_on_c, 0, 91, 60
2, 24844, Note_on_c, 0, 79, 60
2, 24849, Note_on_c, 0, 49, 60
2, 24849, Note_on_c, 0, 67, 60
2, 24849, Note_on_c, 0, 37, 60
2, 24883, Note_on_c, 0, 79, 0
2, 24911, Note_on_c, 0, 91, 0
2, 24921, Note_on_c, 0, 79, 60
2, 24941, Note_on_c, 0, 83, 60
2, 24957, Note_on_c, 0, 103, 60
2, 24960, Note_on_c, 0, 91, 60
2, 24966, Note_on_c, 0, 50, 60
2, 24969, Note_on_c, 0, 37, 0
2, 24969, Note_on_c, 0, 38, 60
2, 24980, Note_on_c, 0, 49, 0
2, 25003, Note_on_c, 0, 67, 0
2, 25010, Control_c, 0, 64, 127
2, 25015, Note_on_c, 0, 101, 60
2, 25020, Note_on_c, 0, 89, 60
2, 25023, Note_on_c, 0, 77, 60
2, 25028, Note_on_c, 0, 103, 0
2, 25031, Note_on_c, 0, 91, 0
2, 25032, Note_on_c, 0, 79, 0
2, 25032, Note_on_c, 0, 83, 0
2, 25077, Note_on_c, 0, 98, 60
2, 25079, Note_on_c, 0, 86, 60
2, 25081, Note_on_c, 0, 74, 60
2, 25083, Note_on_c, 0, 59, 60
2, 25083, Note_on_c, 0, 65, 60
2, 25083, Note_on_c, 0, 55, 60
2, 25089, Note_on_c, 0, 101, 0
2, 25091, Note_on_c, 0, 89, 0
2, 25094, Note_on_c, 0, 77, 0
2, 25135, Note_on_c, 0, 95, 60
2, 25140, Note_on_c, 0, 83, 60
2, 25140, Note_on_c, 0, 71, 60
2, 25148, Note_on_c, 0, 98, 0
2, 25150, Note_on_c, 0, 74, 0
2, 25150, Note_on_c, 0, 86, 0
2, 25152, Note_on_c, 0, 65, 0
2, 25152, Note_on_c, 0, 55, 0
2, 25152, Note_on_c, 0, 59, 0
2, 25152, Note_on_c, 0, 50, 0
2, 25155, Note_on_c, 0, 38, 0
2, 25194, Note_on_c, 0, 91, 60
2, 25196, Note_on_c, 0, 79, 60
2, 25199, Note_on_c, 0, 67, 60
2, 25203, Note_on_c, 0, 43, 60
2, 25203, Note_on_c, 0, 31, 60
2, 25206, Note_on_c, 0, 95, 0
2, 25208, Note_on_c, 0, 71, 0
2, 25208, Note_on_c, 0, 83, 0
2, 25257, Note_on_c, 0, 77, 60
2, 25257, Note_on_c, 0, 89, 60
2, 25257, Note_on_c, 0, 65, 60
2, 25265, Note_on_c, 0, 91, 0
2, 25265, Note_on_c, 0, 79, 0
2, 25265, Control_c, 0, 64, 0
2, 25267, Note_on_c, 0, 67, 0
2, 25277, Note_on_c, 0, 65, 0
2, 25316, Note_on_c, 0, 86, 60
2, 25316, Note_on_c, 0, 74, 60
2, 25319, Note_on_c, 0, 65, 60
2, 25319, Note_on_c, 0, 62, 60
2, 25320, Note_on_c, 0, 59, 60
2, 25320, Note_on_c, 0, 55, 60
2, 25325, Note_on_c, 0, 89, 0
2, 25328, Note_on_c, 0, 77, 0
2, 25339, Note_on_c, 0, 59, 0
2, 25371, Note_on_c, 0, 83, 60
2, 25374, Note_on_c, 0, 71, 60
2, 25377, Note_on_c, 0, 59, 60
2, 25382, Note_on_c, 0, 31, 0
2, 25384, Note_on_c, 0, 86, 0
2, 25384, Note_on_c, 0, 74, 0
2, 25387, Note_on_c, 0, 55, 0
2, 25387, Note_on_c, 0, 65, 0
2, 25390, Note_on_c, 0, 43, 0
2, 25397, Note_on_c, 0, 62, 0
2, 25433, Note_on_c, 0, 84, 60
2, 25436, Note_on_c, 0, 76, 60
2, 25436, Note_on_c, 0, 72, 60
2, 25438, Note_on_c, 0, 60, 60
2, 25440, Note_on_c, 0, 48, 60
2, 25440, Note_on_c, 0, 36, 60
2, 25445, Note_on_c, 0, 83, 0
2, 25448, Note_on_c, 0, 59, 0
2, 25448, Note_on_c, 0, 71, 0
2, 25479, Note_on_c, 0, 60, 0
2, 25487, Note_on_c, 0, 76, 0
2, 25488, Note_on_c, 0, 72, 0
2, 25494, Note_on_c, 0, 84, 0
2, 25550, Note_on_c, 0, 57, 60
2, 25550, Note_on_c, 0, 55, 60
2, 25555, Note_on_c, 0, 81, 60
2, 25558, Note_on_c, 0, 69, 60
2, 25558, Note_on_c, 0, 72, 60
2, 25558, Note_on_c, 0, 76, 60
2, 25558, Note_on_c, 0, 64, 60
2, 25560, Note_on_c, 0, 60, 60
2, 25575, Note_on_c, 0, 76, 0
2, 25578, Note_on_c, 0, 64, 0
2, 25578, Note_on_c, 0, 72, 0
2, 25581, Note_on_c, 0, 55, 0
2, 25613, Note_on_c, 0, 79, 60
2, 25613, Note_on_c, 0, 76, 60
2, 25616, Note_on_c, 0, 67, 60
2, 25616, Note_on_c, 0, 72, 60
2, 25616, Note_on_c, 0, 64, 60
2, 25619, Note_on_c, 0, 55, 60
2, 25621, Note_on_c, 0, 36, 0
2, 25647, Note_on_c, 0, 48, 0
2, 25664, Note_on_c, 0, 69, 0
2, 25664, Note_on_c, 0, 60, 0
2, 25664, Note_on_c, 0, 81, 0
2, 25664, Note_on_c, 0, 57, 0
2, 25675, Note_on_c, 0, 43, 60
2, 25678, Note_on_c, 0, 31, 60
2, 25692, Note_on_c, 0, 72, 0
2, 25692, Note_on_c, 0, 76, 0
2, 25692, Note_on_c, 0, 64, 0
2, 25728, Note_on_c, 0, 76, 60
2, 25728, Note_on_c, 0, 81, 60
2, 25728, Note_on_c, 0, 72, 60
2, 25733, Note_on_c, 0, 64, 60
2, 25733, Note_on_c, 0, 69, 60
2, 25733, Note_on_c, 0, 57, 60
2, 25741, Note_on_c, 0, 67, 0
2, 25743, Note_on_c, 0, 55, 0
2, 25749, Note_on_c, 0, 79, 0
2, 25749, Note_on_c, 0, 76, 0
2, 25751, Note_on_c, 0, 64, 0
2, 25751, Note_on_c, 0, 72, 0
2, 25787, Note_on_c, 0, 79, 60
2, 25789, Note_on_c, 0, 67, 60
2, 25789, Note_on_c, 0, 72, 60
2, 25789, Note_on_c, 0, 76, 60
2, 25789, Note_on_c, 0, 64, 60
2, 25792, Note_on_c, 0, 60, 60
2, 25792, Note_on_c, 0, 55, 60
2, 25820, Note_on_c, 0, 81, 0
2, 25823, Note_on_c, 0, 57, 0
2, 25823, Note_on_c, 0, 69, 0
2, 25858, Note_on_c, 0, 31, 0
2, 25873, Note_on_c, 0, 43, 0
2, 25906, Note_on_c, 0, 83, 60
2, 25909, Note_on_c, 0, 71, 60
2, 25912, Note_on_c, 0, 59, 60
2, 25912, Note_on_c, 0, 50, 60
2, 25914, Note_on_c, 0, 38, 60
2, 25920, Note_on_c, 0, 72, 0
2, 25921, Note_on_c, 0, 60, 0
2, 25929, Note_on_c, 0, 64, 0
2, 25929, Note_on_c, 0, 55, 0
2, 25937, Note_on_c, 0, 67, 0
2, 25947, Note_on_c, 0, 76, 0
2, 25947, Note_on_c, 0, 79, 0
2, 25955, Note_on_c, 0, 83, 0
2, 25957, Note_on_c, 0, 71, 0
2, 25960, Note_on_c, 0, 59, 0
2, 26026, Note_on_c, 0, 71, 60
2, 26026, Note_on_c, 0, 77, 60
2, 26026, Note_on_c, 0, 81, 60
2, 26026, Note_on_c, 0, 69, 60
2, 26029, Note_on_c, 0, 57, 60
2, 26029, Note_on_c, 0, 59, 60
2, 26029, Note_on_c, 0, 65, 60
2, 26029, Note_on_c, 0, 55, 60
2, 26049, Note_on_c, 0, 77, 0
2, 26049, Note_on_c, 0, 71, 0
2, 26051, Note_on_c, 0, 55, 0
2, 26088, Note_on_c, 0, 79, 60
2, 26088, Note_on_c, 0, 77, 60
2, 26089, Note_on_c, 0, 71, 60
2, 26089, Note_on_c, 0, 67, 60
2, 26092, Note_on_c, 0, 55, 60
2, 26095, Note_on_c, 0, 38, 0
2, 26100, Note_on_c, 0, 65, 0
2, 26100, Note_on_c, 0, 81, 0
2, 26102, Note_on_c, 0, 50, 0
2, 26110, Note_on_c, 0, 69, 0
2, 26112, Note_on_c, 0, 59, 0
2, 26112, Note_on_c, 0, 57, 0
2, 26154, Note_on_c, 0, 43, 60
2, 26156, Note_on_c, 0, 31, 60
2, 26209, Note_on_c, 0, 81, 60
2, 26212, Note_on_c, 0, 69, 60
2, 26212, Note_on_c, 0, 57, 60
2, 26219, Note_on_c, 0, 79, 0
2, 26222, Note_on_c, 0, 67, 0
2, 26225, Note_on_c, 0, 55, 0
2, 26230, Note_on_c, 0, 77, 0
2, 26232, Note_on_c, 0, 71, 0
2, 26268, Note_on_c, 0, 79, 60
2, 26271, Note_on_c, 0, 67, 60
2, 26271, Note_on_c, 0, 77, 60
2, 26271, Note_on_c, 0, 65, 60
2, 26273, Note_on_c, 0, 59, 60
2, 26273, Note_on_c, 0, 55, 60
2, 26299, Note_on_c, 0, 81, 0
2, 26301, Note_on_c, 0, 69, 0
2, 26301, Note_on_c, 0, 57, 0
2, 26316, Note_on_c, 0, 31, 0
2, 26334, Note_on_c, 0, 43, 0
2, 26352, Note_on_c, 0, 65, 0
2, 26352, Note_on_c, 0, 59, 0
2, 26385, Note_on_c, 0, 84, 60
2, 26388, Note_on_c, 0, 76, 60
2, 26390, Note_on_c, 0, 72, 60
2, 26390, Note_on_c, 0, 60, 60
2, 26393, Note_on_c, 0, 48, 60
2, 26393, Note_on_c, 0, 36, 60
2, 26398, Note_on_c, 0, 77, 0
2, 26398, Note_on_c, 0, 79, 0
2, 26400, Note_on_c, 0, 55, 0
2, 26400, Note_on_c, 0, 67, 0
2, 26425, Note_on_c, 0, 72, 0
2, 26425, Note_on_c, 0, 84, 0
2, 26425, Note_on_c, 0, 76, 0
2, 26428, Note_on_c, 0, 60, 0
2, 26507, Note_on_c, 0, 76, 60
2, 26510, Note_on_c, 0, 69, 60
2, 26510, Note_on_c, 0, 72, 60
2, 26510, Note_on_c, 0, 81, 60
2, 26510, Note_on_c, 0, 64, 60
2, 26513, Note_on_c, 0, 57, 60
2, 26513, Note_on_c, 0, 60, 60
2, 26513, Note_on_c, 0, 55, 60
2, 26530, Note_on_c, 0, 72, 0
2, 26530, Note_on_c, 0, 76, 0
2, 26533, Note_on_c, 0, 55, 0
2, 26568, Note_on_c, 0, 79, 60
2, 26568, Note_on_c, 0, 76, 60
2, 26571, Note_on_c, 0, 72, 60
2, 26571, Note_on_c, 0, 67, 60
2, 26573, Note_on_c, 0, 55, 60
2, 26584, Note_on_c, 0, 48, 0
2, 26586, Note_on_c, 0, 36, 0
2, 26592, Note_on_c, 0, 64, 0
2, 26599, Note_on_c, 0, 57, 0
2, 26609, Note_on_c, 0, 60, 0
2, 26615, Note_on_c, 0, 79, 0
2, 26615, Note_on_c, 0, 81, 0
2, 26616, Note_on_c, 0, 67, 0
2, 26627, Note_on_c, 0, 69, 0
2, 26630, Note_on_c, 0, 43, 60
2, 26632, Note_on_c, 0, 31, 60
2, 26681, Note_on_c, 0, 91, 60
2, 26683, Note_on_c, 0, 79, 60
2, 26683, Note_on_c, 0, 67, 60
2, 26696, Note_on_c, 0, 72, 0
2, 26698, Note_on_c, 0, 55, 0
2, 26703, Note_on_c, 0, 76, 0
2, 26736, Note_on_c, 0, 96, 60
2, 26741, Note_on_c, 0, 84, 60
2, 26744, Note_on_c, 0, 64, 60
2, 26744, Note_on_c, 0, 72, 60
2, 26744, Note_on_c, 0, 60, 60
2, 26747, Note_on_c, 0, 55, 60
2, 26772, Note_on_c, 0, 67, 0
2, 26772, Note_on_c, 0, 79, 0
2, 26780, Note_on_c, 0, 91, 0
2, 26795, Note_on_c, 0, 100, 60
2, 26798, Note_on_c, 0, 88, 60
2, 26798, Note_on_c, 0, 76, 60
2, 26806, Note_on_c, 0, 96, 0
2, 26808, Note_on_c, 0, 31, 0
2, 26808, Note_on_c, 0, 84, 0
2, 26810, Note_on_c, 0, 72, 0
2, 26810, Note_on_c, 0, 64, 0
2, 26813, Note_on_c, 0, 60, 0
2, 26813, Note_on_c, 0, 55, 0
2, 26815, Note_on_c, 0, 43, 0
2, 26818, Note_on_c, 0, 79, 60
2, 26838, Note_on_c, 0, 83, 60
2, 26854, Note_on_c, 0, 103, 60
2, 26856, Note_on_c, 0, 100, 0
2, 26856, Note_on_c, 0, 91, 60
2, 26858, Note_on_c, 0, 88, 0
2, 26861, Note_on_c, 0, 76, 0
2, 26864, Note_on_c, 0, 50, 60
2, 26864, Note_on_c, 0, 38, 60
2, 26909, Note_on_c, 0, 101, 60
2, 26915, Note_on_c, 0, 89, 60
2, 26917, Note_on_c, 0, 77, 60
2, 26948, Note_on_c, 0, 79, 0
2, 26955, Note_on_c, 0, 91, 0
2, 26958, Note_on_c, 0, 83, 0
2, 26963, Note_on_c, 0, 103, 0
2, 26971, Note_on_c, 0, 98, 60
2, 26974, Note_on_c, 0, 86, 60
2, 26976, Note_on_c, 0, 74, 60
2, 26976, Note_on_c, 0, 59, 60
2, 26978, Note_on_c, 0, 65, 60
2, 26978, Note_on_c, 0, 55, 60
2, 27003, Note_on_c, 0, 89, 0
2, 27014, Note_on_c, 0, 77, 0
2, 27017, Note_on_c, 0, 101, 0
2, 27029, Note_on_c, 0, 95, 60
2, 27032, Note_on_c, 0, 83, 60
2, 27034, Note_on_c, 0, 71, 60
2, 27045, Note_on_c, 0, 65, 0
2, 27048, Note_on_c, 0, 38, 0
2, 27048, Note_on_c, 0, 59, 0
2, 27048, Note_on_c, 0, 50, 0
2, 27048, Note_on_c, 0, 55, 0
2, 27052, Note_on_c, 0, 74, 0
2, 27057, Note_on_c, 0, 98, 0
2, 27070, Note_on_c, 0, 86, 0
2, 27091, Note_on_c, 0, 91, 60
2, 27091, Note_on_c, 0, 79, 60
2, 27093, Note_on_c, 0, 67, 60
2, 27098, Note_on_c, 0, 43, 60
2, 27098, Note_on_c, 0, 31, 60
2, 27100, Control_c, 0, 64, 127
2, 27131, Note_on_c, 0, 71, 0
2, 27136, Note_on_c, 0, 95, 0
2, 27139, Note_on_c, 0, 83, 0
2, 27146, Note_on_c, 0, 89, 60
2, 27151, Note_on_c, 0, 77, 60
2, 27151, Note_on_c, 0, 65, 60
2, 27172, Note_on_c, 0, 65, 0
2, 27172, Note_on_c, 0, 67, 0
2, 27179, Note_on_c, 0, 91, 0
2, 27179, Note_on_c, 0, 79, 0
2, 27197, Control_c, 0, 64, 0
2, 27210, Note_on_c, 0, 86, 60
2, 27210, Note_on_c, 0, 74, 60
2, 27213, Note_on_c, 0, 65, 60
2, 27213, Note_on_c, 0, 62, 60
2, 27216, Note_on_c, 0, 59, 60
2, 27216, Note_on_c, 0, 55, 60
2, 27231, Note_on_c, 0, 89, 0
2, 27233, Note_on_c, 0, 59, 0
2, 27240, Note_on_c, 0, 77, 0
2, 27271, Note_on_c, 0, 83, 60
2, 27271, Note_on_c, 0, 71, 60
2, 27274, Note_on_c, 0, 59, 60
2, 27284, Note_on_c, 0, 31, 0
2, 27289, Note_on_c, 0, 62, 0
2, 27291, Note_on_c, 0, 43, 0
2, 27291, Note_on_c, 0, 55, 0
2, 27299, Note_on_c, 0, 65, 0
2, 27299, Note_on_c, 0, 74, 0
2, 27307, Note_on_c, 0, 86, 0
2, 27327, Note_on_c, 0, 84, 60
2, 27330, Note_on_c, 0, 76, 60
2, 27330, Note_on_c, 0, 72, 60
2, 27333, Note_on_c, 0, 60, 60
2, 27333, Note_on_c, 0, 48, 60
2, 27335, Note_on_c, 0, 36, 60
2, 27340, Note_on_c, 0, 71, 0
2, 27342, Note_on_c, 0, 59, 0
2, 27360, Note_on_c, 0, 83, 0
2, 27368, Note_on_c, 0, 84, 0
2, 27370, Note_on_c, 0, 76, 0
2, 27370, Note_on_c, 0, 72, 0
2, 27373, Note_on_c, 0, 60, 0
2, 27442, Note_on_c, 0, 57, 60
2, 27444, Note_on_c, 0, 55, 60
2, 27450, Note_on_c, 0, 81, 60
2, 27450, Note_on_c, 0, 76, 60
2, 27452, Note_on_c, 0, 69, 60
2, 27452, Note_on_c, 0, 72, 60
2, 27452, Note_on_c, 0, 64, 60
2, 27455, Note_on_c, 0, 60, 60
2, 27473, Note_on_c, 0, 72, 0
2, 27473, Note_on_c, 0, 76, 0
2, 27475, Note_on_c, 0, 55, 0
2, 27510, Note_on_c, 0, 72, 60
2, 27510, Note_on_c, 0, 76, 60
2, 27510, Note_on_c, 0, 79, 60
2, 27510, Note_on_c, 0, 67, 60
2, 27513, Note_on_c, 0, 55, 60
2, 27531, Note_on_c, 0, 36, 0
2, 27536, Note_on_c, 0, 60, 0
2, 27539, Note_on_c, 0, 48, 0
2, 27541, Note_on_c, 0, 81, 0
2, 27544, Note_on_c, 0, 64, 0
2, 27544, Note_on_c, 0, 69, 0
2, 27546, Note_on_c, 0, 57, 0
2, 27576, Note_on_c, 0, 52, 60
2, 27576, Note_on_c, 0, 40, 60
2, 27582, Note_on_c, 0, 79, 0
2, 27584, Note_on_c, 0, 76, 0
2, 27584, Note_on_c, 0, 67, 0
2, 27587, Note_on_c, 0, 55, 0
2, 27635, Note_on_c, 0, 79, 60
2, 27635, Note_on_c, 0, 76, 60
2, 27638, Note_on_c, 0, 67, 60
2, 27641, Note_on_c, 0, 55, 60
2, 27658, Note_on_c, 0, 67, 0
2, 27658, Note_on_c, 0, 76, 0
2, 27669, Note_on_c, 0, 72, 0
2, 27696, Note_on_c, 0, 88, 60
2, 27699, Note_on_c, 0, 67, 60
2, 27699, Note_on_c, 0, 70, 60
2, 27699, Note_on_c, 0, 76, 60
2, 27699, Note_on_c, 0, 64, 60
2, 27701, Note_on_c, 0, 49, 60
2, 27704, Note_on_c, 0, 37, 60
2, 27715, Note_on_c, 0, 40, 0
2, 27720, Note_on_c, 0, 79, 0
2, 27721, Note_on_c, 0, 52, 0
2, 27721, Note_on_c, 0, 55, 0
2, 27755, Note_on_c, 0, 88, 0
2, 27758, Note_on_c, 0, 76, 0
2, 27758, Note_on_c, 0, 67, 0
2, 27758, Note_on_c, 0, 64, 0
2, 27803, Note_on_c, 0, 37, 0
2, 27816, Note_on_c, 0, 88, 60
2, 27816, Note_on_c, 0, 67, 60
2, 27818, Note_on_c, 0, 76, 60
2, 27818, Note_on_c, 0, 71, 60
2, 27821, Note_on_c, 0, 64, 60
2, 27821, Note_on_c, 0, 50, 60
2, 27824, Note_on_c, 0, 38, 60
2, 27829, Note_on_c, 0, 70, 0
2, 27832, Note_on_c, 0, 49, 0
2, 27872, Note_on_c, 0, 50, 0
2, 27890, Note_on_c, 0, 67, 0
2, 27900, Note_on_c, 0, 71, 0
2, 27936, Note_on_c, 0, 86, 60
2, 27938, Note_on_c, 0, 71, 60
2, 27938, Note_on_c, 0, 74, 60
2, 27938, Note_on_c, 0, 67, 60
2, 27941, Note_on_c, 0, 62, 60
2, 27943, Note_on_c, 0, 55, 60
2, 27943, Note_on_c, 0, 50, 60
2, 27959, Note_on_c, 0, 67, 0
2, 27959, Note_on_c, 0, 71, 0
2, 27959, Note_on_c, 0, 64, 0
2, 27966, Note_on_c, 0, 88, 0
2, 27969, Note_on_c, 0, 76, 0
2, 27992, Note_on_c, 0, 50, 0
2, 27994, Note_on_c, 0, 38, 0
2, 27997, Note_on_c, 0, 83, 60
2, 28000, Note_on_c, 0, 71, 60
2, 28000, Note_on_c, 0, 67, 60
2, 28002, Note_on_c, 0, 59, 60
2, 28022, Note_on_c, 0, 55, 0
2, 28022, Note_on_c, 0, 62, 0
2, 28028, Note_on_c, 0, 86, 0
2, 28030, Note_on_c, 0, 74, 0
2, 28060, Note_on_c, 0, 50, 60
2, 28063, Note_on_c, 0, 38, 60
2, 28068, Note_on_c, 0, 67, 0
2, 28071, Note_on_c, 0, 59, 0
2, 28117, Note_on_c, 0, 79, 60
2, 28119, Note_on_c, 0, 67, 60
2, 28122, Note_on_c, 0, 50, 0
2, 28122, Note_on_c, 0, 55, 60
2, 28122, Note_on_c, 0, 59, 60
2, 28147, Note_on_c, 0, 71, 0
2, 28147, Note_on_c, 0, 83, 0
2, 28176, Note_on_c, 0, 81, 60
2, 28177, Note_on_c, 0, 57, 60
2, 28177, Note_on_c, 0, 60, 60
2, 28177, Note_on_c, 0, 69, 60
2, 28177, Note_on_c, 0, 54, 60
2, 28180, Note_on_c, 0, 50, 60
2, 28188, Note_on_c, 0, 59, 0
2, 28191, Note_on_c, 0, 55, 0
2, 28216, Note_on_c, 0, 67, 0
2, 28216, Note_on_c, 0, 79, 0
2, 28221, Note_on_c, 0, 38, 0
2, 28228, Note_on_c, 0, 50, 0
2, 28247, Note_on_c, 0, 54, 0
2, 28293, Note_on_c, 0, 79, 60
2, 28295, Note_on_c, 0, 60, 0
2, 28295, Note_on_c, 0, 67, 60
2, 28295, Note_on_c, 0, 59, 60
2, 28297, Note_on_c, 0, 50, 60
2, 28297, Note_on_c, 0, 55, 60
2, 28297, Note_on_c, 0, 43, 60
2, 28300, Note_on_c, 0, 31, 60
2, 28316, Note_on_c, 0, 67, 0
2, 28316, Note_on_c, 0, 79, 0
2, 28318, Note_on_c, 0, 55, 0
2, 28333, Note_on_c, 0, 81, 0
2, 28336, Note_on_c, 0, 57, 0
2, 28336, Note_on_c, 0, 69, 0
2, 28353, Note_on_c, 0, 55, 60
2, 28353, Note_on_c, 0, 67, 60
2, 28353, Note_on_c, 0, 79, 60
2, 28374, Note_on_c, 0, 59, 0
2, 28410, Note_on_c, 0, 83, 60
2, 28412, Note_on_c, 0, 71, 60
2, 28412, Note_on_c, 0, 59, 60
2, 28419, Note_on_c, 0, 31, 0
2, 28427, Note_on_c, 0, 43, 0
2, 28435, Note_on_c, 0, 55, 0
2, 28435, Note_on_c, 0, 50, 0
2, 28442, Note_on_c, 0, 67, 0
2, 28450, Note_on_c, 0, 79, 0
2, 28468, Note_on_c, 0, 86, 60
2, 28470, Note_on_c, 0, 74, 60
2, 28473, Note_on_c, 0, 62, 60
2, 28484, Note_on_c, 0, 59, 0
2, 28491, Note_on_c, 0, 62, 0
2, 28501, Note_on_c, 0, 71, 0
2, 28509, Note_on_c, 0, 83, 0
2, 28529, Note_on_c, 0, 91, 60
2, 28529, Note_on_c, 0, 79, 60
2, 28535, Note_on_c, 0, 59, 60
2, 28535, Note_on_c, 0, 62, 60
2, 28535, Note_on_c, 0, 67, 60
2, 28535, Note_on_c, 0, 55, 60
2, 28536, Note_on_c, 0, 43, 60
2, 28547, Note_on_c, 0, 91, 0
2, 28550, Note_on_c, 0, 79, 0
2, 28550, Note_on_c, 0, 86, 0
2, 28552, Note_on_c, 0, 74, 0
2, 28552, Note_on_c, 0, 67, 0
2, 28585, Note_on_c, 0, 91, 60
2, 28587, Note_on_c, 0, 79, 60
2, 28590, Note_on_c, 0, 67, 60
2, 28644, Note_on_c, 0, 95, 60
2, 28649, Note_on_c, 0, 83, 60
2, 28649, Note_on_c, 0, 71, 60
2, 28667, Note_on_c, 0, 43, 0
2, 28672, Note_on_c, 0, 67, 0
2, 28672, Note_on_c, 0, 62, 0
2, 28675, Note_on_c, 0, 59, 0
2, 28675, Note_on_c, 0, 55, 0
2, 28680, Note_on_c, 0, 79, 0
2, 28687, Note_on_c, 0, 91, 0
2, 28689, Note_on_c, 0, 83, 0
2, 28703, Note_on_c, 0, 71, 0
2, 28704, Note_on_c, 0, 98, 60
2, 28710, Note_on_c, 0, 86, 60
2, 28710, Note_on_c, 0, 74, 60
2, 28718, Note_on_c, 0, 95, 0
2, 28728, Note_on_c, 0, 79, 60
2, 28751, Note_on_c, 0, 83, 60
2, 28763, Note_on_c, 0, 103, 60
2, 28766, Note_on_c, 0, 91, 60
2, 28774, Note_on_c, 0, 50, 60
2, 28776, Note_on_c, 0, 98, 0
2, 28776, Note_on_c, 0, 38, 60
2, 28778, Note_on_c, 0, 86, 0
2, 28781, Note_on_c, 0, 74, 0
2, 28824, Note_on_c, 0, 89, 60
2, 28827, Note_on_c, 0, 77, 60
2, 28832, Note_on_c, 0, 101, 60
2, 28837, Control_c, 0, 64, 127
2, 28865, Note_on_c, 0, 91, 0
2, 28868, Note_on_c, 0, 79, 0
2, 28868, Note_on_c, 0, 83, 0
2, 28872, Note_on_c, 0, 103, 0
2, 28880, Note_on_c, 0, 98, 60
2, 28883, Note_on_c, 0, 86, 60
2, 28886, Note_on_c, 0, 74, 60
2, 28888, Note_on_c, 0, 59, 60
2, 28888, Note_on_c, 0, 65, 60
2, 28888, Note_on_c, 0, 55, 60
2, 28923, Note_on_c, 0, 89, 0
2, 28926, Note_on_c, 0, 77, 0
2, 28929, Note_on_c, 0, 101, 0
2, 28942, Note_on_c, 0, 95, 60
2, 28944, Note_on_c, 0, 83, 60
2, 28946, Note_on_c, 0, 71, 60
2, 28960, Note_on_c, 0, 59, 0
2, 28960, Note_on_c, 0, 55, 0
2, 28960, Note_on_c, 0, 50, 0
2, 28962, Note_on_c, 0, 38, 0
2, 28968, Note_on_c, 0, 65, 0
2, 28972, Note_on_c, 0, 98, 0
2, 28977, Note_on_c, 0, 74, 0
2, 28985, Note_on_c, 0, 86, 0
2, 29003, Note_on_c, 0, 91, 60
2, 29005, Note_on_c, 0, 79, 60
2, 29008, Note_on_c, 0, 67, 60
2, 29011, Note_on_c, 0, 55, 60
2, 29011, Note_on_c, 0, 43, 60
2, 29048, Note_on_c, 0, 71, 0
2, 29056, Note_on_c, 0, 83, 0
2, 29064, Note_on_c, 0, 95, 0
2, 29064, Note_on_c, 0, 89, 60
2, 29066, Note_on_c, 0, 77, 60
2, 29066, Note_on_c, 0, 65, 60
2, 29079, Note_on_c, 0, 55, 0
2, 29087, Note_on_c, 0, 79, 0
2, 29087, Note_on_c, 0, 67, 0
2, 29089, Note_on_c, 0, 65, 0
2, 29094, Note_on_c, 0, 91, 0
2, 29097, Control_c, 0, 64, 0
2, 29125, Note_on_c, 0, 86, 60
2, 29128, Note_on_c, 0, 74, 60
2, 29128, Note_on_c, 0, 65, 60
2, 29130, Note_on_c, 0, 59, 60
2, 29130, Note_on_c, 0, 62, 60
2, 29130, Note_on_c, 0, 55, 60
2, 29151, Note_on_c, 0, 59, 0
2, 29156, Note_on_c, 0, 89, 0
2, 29168, Note_on_c, 0, 77, 0
2, 29184, Note_on_c, 0, 83, 60
2, 29186, Note_on_c, 0, 71, 60
2, 29188, Note_on_c, 0, 59, 60
2, 29204, Note_on_c, 0, 43, 0
2, 29211, Note_on_c, 0, 55, 0
2, 29217, Note_on_c, 0, 74, 0
2, 29219, Note_on_c, 0, 62, 0
2, 29219, Note_on_c, 0, 65, 0
2, 29224, Note_on_c, 0, 86, 0
2, 29245, Note_on_c, 0, 84, 60
2, 29247, Note_on_c, 0, 71, 0
2, 29247, Note_on_c, 0, 83, 0
2, 29247, Note_on_c, 0, 72, 60
2, 29247, Note_on_c, 0, 76, 60
2, 29250, Note_on_c, 0, 60, 60
2, 29250, Note_on_c, 0, 48, 60
2, 29253, Note_on_c, 0, 36, 60
2, 29260, Note_on_c, 0, 59, 0
2, 29296, Note_on_c, 0, 84, 0
2, 29298, Note_on_c, 0, 76, 0
2, 29298, Note_on_c, 0, 72, 0
2, 29301, Note_on_c, 0, 60, 0
2, 29367, Note_on_c, 0, 76, 60
2, 29367, Note_on_c, 0, 81, 60
2, 29367, Note_on_c, 0, 72, 60
2, 29370, Note_on_c, 0, 60, 60
2, 29370, Note_on_c, 0, 64, 60
2, 29370, Note_on_c, 0, 69, 60
2, 29370, Note_on_c, 0, 57, 60
2, 29372, Note_on_c, 0, 55, 60
2, 29387, Note_on_c, 0, 72, 0
2, 29387, Note_on_c, 0, 76, 0
2, 29393, Note_on_c, 0, 55, 0
2, 29425, Note_on_c, 0, 79, 60
2, 29425, Note_on_c, 0, 76, 60
2, 29428, Note_on_c, 0, 72, 60
2, 29428, Note_on_c, 0, 67, 60
2, 29430, Note_on_c, 0, 55, 60
2, 29444, Note_on_c, 0, 36, 0
2, 29448, Note_on_c, 0, 64, 0
2, 29451, Note_on_c, 0, 48, 0
2, 29456, Note_on_c, 0, 81, 0
2, 29459, Note_on_c, 0, 60, 0
2, 29459, Note_on_c, 0, 69, 0
2, 29461, Note_on_c, 0, 57, 0
2, 29492, Note_on_c, 0, 43, 60
2, 29495, Note_on_c, 0, 31, 60
2, 29496, Note_on_c, 0, 76, 0
2, 29499, Note_on_c, 0, 72, 0
2, 29545, Note_on_c, 0, 76, 60
2, 29545, Note_on_c, 0, 81, 60
2, 29545, Note_on_c, 0, 69, 60
2, 29547, Note_on_c, 0, 72, 60
2, 29547, Note_on_c, 0, 57, 60
2, 29555, Note_on_c, 0, 67, 0
2, 29558, Note_on_c, 0, 55, 0
2, 29563, Note_on_c, 0, 79, 0
2, 29563, Note_on_c, 0, 76, 0
2, 29566, Note_on_c, 0, 72, 0
2, 29601, Note_on_c, 0, 79, 60
2, 29601, Note_on_c, 0, 67, 60
2, 29601, Note_on_c, 0, 72, 60
2, 29601, Note_on_c, 0, 76, 60
2, 29604, Note_on_c, 0, 60, 60
2, 29604, Note_on_c, 0, 64, 60
2, 29604, Note_on_c, 0, 55, 60
2, 29629, Note_on_c, 0, 81, 0
2, 29632, Note_on_c, 0, 69, 0
2, 29635, Note_on_c, 0, 57, 0
2, 29660, Note_on_c, 0, 31, 0
2, 29664, Note_on_c, 0, 43, 0
2, 29670, Note_on_c, 0, 64, 0
2, 29672, Note_on_c, 0, 60, 0
2, 29715, Note_on_c, 0, 83, 60
2, 29715, Note_on_c, 0, 77, 60
2, 29718, Note_on_c, 0, 71, 60
2, 29721, Note_on_c, 0, 59, 60
2, 29721, Note_on_c, 0, 50, 60
2, 29726, Note_on_c, 0, 79, 0
2, 29726, Note_on_c, 0, 38, 60
2, 29729, Note_on_c, 0, 67, 0
2, 29729, Note_on_c, 0, 72, 0
2, 29729, Note_on_c, 0, 76, 0
2, 29741, Note_on_c, 0, 55, 0
2, 29757, Note_on_c, 0, 83, 0
2, 29760, Note_on_c, 0, 59, 0
2, 29760, Note_on_c, 0, 71, 0
2, 29760, Note_on_c, 0, 77, 0
2, 29835, Note_on_c, 0, 77, 60
2, 29835, Note_on_c, 0, 81, 60
2, 29835, Note_on_c, 0, 71, 60
2, 29838, Note_on_c, 0, 69, 60
2, 29838, Note_on_c, 0, 65, 60
2, 29840, Note_on_c, 0, 57, 60
2, 29840, Note_on_c, 0, 59, 60
2, 29840, Note_on_c, 0, 55, 60
2, 29858, Note_on_c, 0, 71, 0
2, 29858, Note_on_c, 0, 77, 0
2, 29861, Note_on_c, 0, 55, 0
2, 29894, Note_on_c, 0, 77, 60
2, 29894, Note_on_c, 0, 79, 60
2, 29894, Note_on_c, 0, 71, 60
2, 29897, Note_on_c, 0, 67, 60
2, 29899, Note_on_c, 0, 55, 60
2, 29909, Note_on_c, 0, 50, 0
2, 29912, Note_on_c, 0, 38, 0
2, 29937, Note_on_c, 0, 59, 0
2, 29955, Note_on_c, 0, 57, 0
2, 29955, Note_on_c, 0, 65, 0
2, 29957, Note_on_c, 0, 43, 60
2, 29957, Note_on_c, 0, 31, 60
2, 29963, Note_on_c, 0, 69, 0
2, 29963, Note_on_c, 0, 81, 0
2, 29980, Note_on_c, 0, 77, 0
2, 30011, Note_on_c, 0, 77, 60
2, 30011, Note_on_c, 0, 81, 60
2, 30011, Note_on_c, 0, 69, 60
2, 30014, Note_on_c, 0, 57, 60
2, 30022, Note_on_c, 0, 79, 0
2, 30022, Note_on_c, 0, 67, 0
2, 30024, Note_on_c, 0, 55, 0
2, 30031, Note_on_c, 0, 71, 0
2, 30031, Note_on_c, 0, 77, 0
2, 30070, Note_on_c, 0, 79, 60
2, 30072, Note_on_c, 0, 67, 60
2, 30072, Note_on_c, 0, 77, 60
2, 30072, Note_on_c, 0, 65, 60
2, 30074, Note_on_c, 0, 59, 60
2, 30074, Note_on_c, 0, 55, 60
2, 30100, Note_on_c, 0, 81, 0
2, 30103, Note_on_c, 0, 69, 0
2, 30103, Note_on_c, 0, 57, 0
2, 30131, Note_on_c, 0, 31, 0
2, 30148, Note_on_c, 0, 43, 0
2, 30154, Note_on_c, 0, 65, 0
2, 30154, Note_on_c, 0, 59, 0
2, 30192, Note_on_c, 0, 84, 60
2, 30192, Note_on_c, 0, 72, 60
2, 30197, Note_on_c, 0, 60, 60
2, 30197, Note_on_c, 0, 48, 60
2, 30199, Note_on_c, 0, 36, 60
2, 30202, Note_on_c, 0, 76, 60
2, 30205, Note_on_c, 0, 77, 0
2, 30217, Note_on_c, 0, 55, 0
2, 30222, Note_on_c, 0, 67, 0
2, 30222, Note_on_c, 0, 79, 0
2, 30236, Note_on_c, 0, 60, 0
2, 30236, Note_on_c, 0, 72, 0
2, 30245, Note_on_c, 0, 76, 0
2, 30245, Note_on_c, 0, 84, 0
2, 30316, Note_on_c, 0, 76, 60
2, 30316, Note_on_c, 0, 81, 60
2, 30316, Note_on_c, 0, 72, 60
2, 30319, Note_on_c, 0, 69, 60
2, 30319, Note_on_c, 0, 64, 60
2, 30322, Note_on_c, 0, 60, 60
2, 30322, Note_on_c, 0, 57, 60
2, 30337, Note_on_c, 0, 72, 0
2, 30337, Note_on_c, 0, 76, 0
2, 30373, Note_on_c, 0, 79, 60
2, 30375, Note_on_c, 0, 72, 60
2, 30375, Note_on_c, 0, 76, 60
2, 30375, Note_on_c, 0, 67, 60
2, 30385, Note_on_c, 0, 64, 0
2, 30390, Note_on_c, 0, 60, 0
2, 30406, Note_on_c, 0, 81, 0
2, 30408, Note_on_c, 0, 69, 0
2, 30411, Note_on_c, 0, 57, 0
2, 30439, Note_on_c, 0, 64, 60
2, 30439, Note_on_c, 0, 60, 60
2, 30441, Note_on_c, 0, 55, 60
2, 30507, Note_on_c, 0, 67, 0
2, 30515, Note_on_c, 0, 79, 0
2, 30553, Note_on_c, 0, 91, 60
2, 30553, Note_on_c, 0, 79, 60
2, 30556, Note_on_c, 0, 71, 60
2, 30556, Note_on_c, 0, 74, 60
2, 30556, Note_on_c, 0, 67, 60
2, 30561, Note_on_c, 0, 43, 60
2, 30564, Note_on_c, 0, 36, 0
2, 30564, Note_on_c, 0, 31, 60
2, 30566, Note_on_c, 0, 76, 0
2, 30569, Note_on_c, 0, 60, 0
2, 30569, Note_on_c, 0, 72, 0
2, 30569, Note_on_c, 0, 64, 0
2, 30572, Note_on_c, 0, 55, 0
2, 30572, Note_on_c, 0, 48, 0
2, 30624, Note_on_c, 0, 43, 0
2, 30627, Note_on_c, 0, 31, 0
2, 30630, Note_on_c, 0, 71, 0
2, 30630, Note_on_c, 0, 67, 0
2, 30635, Note_on_c, 0, 91, 0
2, 30638, Note_on_c, 0, 74, 0
2, 30638, Note_on_c, 0, 79, 0
2, 30675, Note_on_c, 0, 84, 60
2, 30681, Note_on_c, 0, 72, 60
2, 30681, Note_on_c, 0, 60, 60
2, 30683, Note_on_c, 0, 48, 60
2, 30686, Note_on_c, 0, 36, 60
2, 30734, Note_on_c, 0, 88, 60
2, 30737, Note_on_c, 0, 67, 60
2, 30737, Note_on_c, 0, 76, 60
2, 30737, Note_on_c, 0, 64, 60
2, 30747, Control_c, 0, 64, 127
2, 30749, Note_on_c, 0, 60, 0
2, 30749, Note_on_c, 0, 72, 0
2, 30757, Note_on_c, 0, 64, 0
2, 30757, Note_on_c, 0, 67, 0
2, 30792, Note_on_c, 0, 91, 60
2, 30795, Note_on_c, 0, 79, 60
2, 30795, Note_on_c, 0, 72, 60
2, 30798, Note_on_c, 0, 64, 60
2, 30798, Note_on_c, 0, 67, 60
2, 30798, Note_on_c, 0, 55, 60
2, 30800, Note_on_c, 0, 60, 60
2, 30806, Note_on_c, 0, 84, 0
2, 30818, Note_on_c, 0, 72, 0
2, 30834, Note_on_c, 0, 88, 0
2, 30837, Note_on_c, 0, 76, 0
2, 30851, Note_on_c, 0, 96, 60
2, 30851, Note_on_c, 0, 84, 60
2, 30854, Note_on_c, 0, 36, 0
2, 30857, Note_on_c, 0, 72, 60
2, 30866, Note_on_c, 0, 64, 0
2, 30866, Note_on_c, 0, 67, 0
2, 30869, Note_on_c, 0, 55, 0
2, 30869, Note_on_c, 0, 60, 0
2, 30872, Note_on_c, 0, 48, 0
2, 30874, Note_on_c, 0, 84, 0
2, 30874, Note_on_c, 0, 72, 0
2, 30874, Note_on_c, 0, 79, 0
2, 30885, Note_on_c, 0, 91, 0
2, 30915, Note_on_c, 0, 84, 60
2, 30920, Note_on_c, 0, 72, 60
2, 30920, Note_on_c, 0, 64, 60
2, 30923, Note_on_c, 0, 60, 60
2, 30923, Note_on_c, 0, 46, 60
2, 30925, Note_on_c, 0, 34, 60
2, 30954, Note_on_c, 0, 96, 0
2, 30960, Note_on_c, 0, 64, 0
2, 30976, Note_on_c, 0, 88, 60
2, 30976, Note_on_c, 0, 76, 60
2, 30979, Note_on_c, 0, 67, 60
2, 30991, Note_on_c, 0, 60, 0
2, 30997, Note_on_c, 0, 67, 0
2, 30997, Note_on_c, 0, 72, 0
2, 30997, Control_c, 0, 64, 0
2, 31005, Note_on_c, 0, 84, 0
2, 31032, Note_on_c, 0, 91, 60
2, 31034, Note_on_c, 0, 79, 60
2, 31037, Note_on_c, 0, 72, 60
2, 31037, Note_on_c, 0, 64, 60
2, 31040, Note_on_c, 0, 60, 60
2, 31040, Note_on_c, 0, 67, 60
2, 31040, Note_on_c, 0, 55, 60
2, 31056, Note_on_c, 0, 72, 0
2, 31063, Note_on_c, 0, 88, 0
2, 31065, Note_on_c, 0, 76, 0
2, 31083, Note_on_c, 0, 34, 0
2, 31088, Note_on_c, 0, 60, 0
2, 31088, Note_on_c, 0, 96, 60
2, 31091, Note_on_c, 0, 46, 0
2, 31093, Note_on_c, 0, 84, 60
2, 31096, Note_on_c, 0, 72, 60
2, 31106, Note_on_c, 0, 64, 0
2, 31106, Note_on_c, 0, 67, 0
2, 31108, Note_on_c, 0, 55, 0
2, 31114, Note_on_c, 0, 79, 0
2, 31114, Note_on_c, 0, 91, 0
2, 31114, Note_on_c, 0, 84, 0
2, 31116, Note_on_c, 0, 72, 0
2, 31154, Note_on_c, 0, 84, 60
2, 31157, Note_on_c, 0, 72, 60
2, 31157, Note_on_c, 0, 65, 60
2, 31159, Note_on_c, 0, 60, 60
2, 31162, Note_on_c, 0, 45, 60
2, 31162, Note_on_c, 0, 33, 60
2, 31180, Note_on_c, 0, 65, 0
2, 31182, Note_on_c, 0, 96, 0
2, 31213, Note_on_c, 0, 89, 60
2, 31216, Note_on_c, 0, 69, 60
2, 31216, Note_on_c, 0, 77, 60
2, 31216, Note_on_c, 0, 65, 60
2, 31225, Note_on_c, 0, 72, 0
2, 31228, Note_on_c, 0, 60, 0
2, 31233, Note_on_c, 0, 84, 0
2, 31236, Note_on_c, 0, 65, 0
2, 31247, Note_on_c, 0, 77, 0
2, 31269, Note_on_c, 0, 96, 60
2, 31274, Note_on_c, 0, 84, 60
2, 31276, Note_on_c, 0, 72, 60
2, 31279, Note_on_c, 0, 60, 60
2, 31279, Note_on_c, 0, 65, 60
2, 31279, Note_on_c, 0, 57, 60
2, 31295, Note_on_c, 0, 89, 0
2, 31297, Note_on_c, 0, 69, 0
2, 31297, Note_on_c, 0, 72, 0
2, 31299, Note_on_c, 0, 65, 0
2, 31315, Note_on_c, 0, 33, 0
2, 31333, Note_on_c, 0, 89, 60
2, 31335, Note_on_c, 0, 77, 60
2, 31338, Note_on_c, 0, 72, 60
2, 31338, Note_on_c, 0, 65, 60
2, 31341, Note_on_c, 0, 45, 0
2, 31341, Note_on_c, 0, 44, 60
2, 31343, Note_on_c, 0, 32, 60
2, 31348, Note_on_c, 0, 60, 0
2, 31348, Note_on_c, 0, 57, 0
2, 31350, Note_on_c, 0, 96, 0
2, 31353, Note_on_c, 0, 84, 0
2, 31356, Note_on_c, 0, 72, 0
2, 31392, Note_on_c, 0, 84, 60
2, 31393, Note_on_c, 0, 72, 60
2, 31393, Note_on_c, 0, 68, 60
2, 31396, Note_on_c, 0, 60, 60
2, 31399, Note_on_c, 0, 56, 60
2, 31412, Note_on_c, 0, 84, 0
2, 31415, Note_on_c, 0, 72, 0
2, 31416, Note_on_c, 0, 65, 0
2, 31422, Note_on_c, 0, 89, 0
2, 31424, Note_on_c, 0, 77, 0
2, 31447, Note_on_c, 0, 96, 60
2, 31450, Note_on_c, 0, 84, 60
2, 31452, Note_on_c, 0, 72, 60
2, 31455, Note_on_c, 0, 60, 0
2, 31465, Note_on_c, 0, 56, 0
2, 31516, Note_on_c, 0, 60, 60
2, 31516, Note_on_c, 0, 63, 60
2, 31516, Note_on_c, 0, 56, 60
2, 31560, Note_on_c, 0, 32, 0
2, 31567, Note_on_c, 0, 90, 60
2, 31572, Note_on_c, 0, 78, 60
2, 31572, Note_on_c, 0, 66, 60
2, 31584, Note_on_c, 0, 72, 0
2, 31587, Note_on_c, 0, 44, 0
2, 31595, Note_on_c, 0, 56, 0
2, 31595, Note_on_c, 0, 63, 0
2, 31606, Note_on_c, 0, 60, 0
2, 31608, Note_on_c, 0, 96, 0
2, 31610, Note_on_c, 0, 84, 0
2, 31628, Note_on_c, 0, 91, 60
2, 31631, Note_on_c, 0, 90, 0
2, 31631, Note_on_c, 0, 79, 60
2, 31633, Note_on_c, 0, 78, 0
2, 31633, Note_on_c, 0, 72, 60
2, 31633, Note_on_c, 0, 67, 60
2, 31638, Note_on_c, 0, 43, 60
2, 31641, Note_on_c, 0, 31, 60
2, 31643, Note_on_c, 0, 68, 0
2, 31646, Note_on_c, 0, 66, 0
2, 31651, Note_on_c, 0, 79, 0
2, 31654, Note_on_c, 0, 67, 0
2, 31692, Note_on_c, 0, 79, 60
2, 31694, Note_on_c, 0, 67, 60
2, 31697, Note_on_c, 0, 55, 60
2, 31700, Note_on_c, 0, 91, 0
2, 31717, Note_on_c, 0, 55, 0
2, 31751, Note_on_c, 0, 88, 60
2, 31752, Note_on_c, 0, 76, 60
2, 31752, Note_on_c, 0, 64, 60
2, 31755, Note_on_c, 0, 60, 60
2, 31755, Note_on_c, 0, 55, 60
2, 31781, Note_on_c, 0, 79, 0
2, 31781, Note_on_c, 0, 67, 0
2, 31811, Note_on_c, 0, 86, 60
2, 31811, Note_on_c, 0, 74, 60
2, 31814, Note_on_c, 0, 62, 60
2, 31822, Note_on_c, 0, 31, 0
2, 31824, Note_on_c, 0, 72, 0
2, 31826, Note_on_c, 0, 60, 0
2, 31829, Note_on_c, 0, 43, 0
2, 31834, Note_on_c, 0, 64, 0
2, 31840, Note_on_c, 0, 88, 0
2, 31845, Note_on_c, 0, 76, 0
2, 31848, Note_on_c, 0, 55, 0
2, 31872, Note_on_c, 0, 84, 60
2, 31875, Note_on_c, 0, 72, 60
2, 31875, Note_on_c, 0, 66, 60
2, 31877, Note_on_c, 0, 60, 60
2, 31880, Note_on_c, 0, 45, 60
2, 31883, Note_on_c, 0, 33, 60
2, 31896, Note_on_c, 0, 62, 0
2, 31903, Note_on_c, 0, 74, 0
2, 31914, Note_on_c, 0, 86, 0
2, 31992, Note_on_c, 0, 86, 60
2, 31994, Note_on_c, 0, 74, 60
2, 31994, Note_on_c, 0, 71, 60
2, 31997, Note_on_c, 0, 65, 60
2, 31997, Note_on_c, 0, 62, 60
2, 32000, Note_on_c, 0, 43, 60
2, 32002, Note_on_c, 0, 31, 60
2, 32005, Note_on_c, 0, 72, 0
2, 32008, Note_on_c, 0, 66, 0
2, 32017, Note_on_c, 0, 45, 0
2, 32023, Note_on_c, 0, 33, 0
2, 32025, Note_on_c, 0, 60, 0
2, 32031, Note_on_c, 0, 84, 0
2, 32107, Note_on_c, 0, 84, 60
2, 32110, Note_on_c, 0, 72, 60
2, 32110, Note_on_c, 0, 64, 60
2, 32112, Note_on_c, 0, 60, 60
2, 32114, Note_on_c, 0, 48, 60
2, 32119, Note_on_c, 0, 71, 0
2, 32122, Note_on_c, 0, 65, 0
2, 32135, Note_on_c, 0, 43, 0
2, 32137, Note_on_c, 0, 31, 0
2, 32140, Note_on_c, 0, 62, 0
2, 32150, Note_on_c, 0, 74, 0
2, 32158, Note_on_c, 0, 86, 0
2, 32184, Note_on_c, 0, 48, 0
2, 32207, Control_c, 0, 64, 127
2, 32229, Note_on_c, 0, 55, 60
2, 32232, Note_on_c, 0, 43, 60
2, 32295, Note_on_c, 0, 84, 0
2, 32298, Note_on_c, 0, 72, 0
2, 32303, Note_on_c, 0, 43, 0
2, 32310, Note_on_c, 0, 55, 0
2, 32341, Note_on_c, 0, 96, 60
2, 32344, Note_on_c, 0, 84, 60
2, 32346, Note_on_c, 0, 76, 60
2, 32346, Note_on_c, 0, 72, 60
2, 32352, Note_on_c, 0, 48, 60
2, 32353, Note_on_c, 0, 36, 60
2, 32369, Note_on_c, 0, 64, 0
2, 32369, Note_on_c, 0, 60, 0
2, 32412, Note_on_c, 0, 36, 0
2, 32430, Note_on_c, 0, 48, 0
2, 32433, Note_on_c, 0, 84, 0
2, 32435, Note_on_c, 0, 72, 0
2, 32441, Note_on_c, 0, 96, 0
2, 32446, Control_c, 0, 64, 0
2, 32456, Note_on_c, 0, 76, 0
2, 32580, Note_on_c, 0, 89, 60
2, 32583, Note_on_c, 0, 83, 60
2, 32583, Note_on_c, 0, 86, 60
2, 32583, Note_on_c, 0, 79, 60
2, 32586, Note_on_c, 0, 71, 60
2, 32586, Note_on_c, 0, 74, 60
2, 32586, Note_on_c, 0, 77, 60
2, 32586, Note_on_c, 0, 67, 60
2, 32649, Note_on_c, 0, 86, 0
2, 32649, Note_on_c, 0, 89, 0
2, 32652, Note_on_c, 0, 77, 0
2, 32652, Note_on_c, 0, 74, 0
2, 32652, Note_on_c, 0, 79, 0
2, 32652, Note_on_c, 0, 71, 0
2, 32652, Note_on_c, 0, 83, 0
2, 32652, Note_on_c, 0, 67, 0
2, 32698, Note_on_c, 0, 89, 60
2, 32700, Note_on_c, 0, 79, 60
2, 32700, Note_on_c, 0, 83, 60
2, 32700, Note_on_c, 0, 86, 60
2, 32700, Note_on_c, 0, 77, 60
2, 32703, Note_on_c, 0, 71, 60
2, 32703, Note_on_c, 0, 74, 60
2, 32703, Note_on_c, 0, 67, 60
2, 32880, Note_on_c, 0, 86, 0
2, 32880, Note_on_c, 0, 83, 0
2, 32880, Note_on_c, 0, 89, 0
2, 32880, Note_on_c, 0, 79, 0
2, 32883, Note_on_c, 0, 77, 0
2, 32883, Note_on_c, 0, 67, 0
2, 32883, Note_on_c, 0, 71, 0
2, 32883, Note_on_c, 0, 74, 0
2, 32932, Note_on_c, 0, 83, 60
2, 32932, Note_on_c, 0, 86, 60
2, 32932, Note_on_c, 0, 89, 60
2, 32932, Note_on_c, 0, 79, 60
2, 32934, Note_on_c, 0, 71, 60
2, 32934, Note_on_c, 0, 74, 60
2, 32934, Note_on_c, 0, 77, 60
2, 32934, Note_on_c, 0, 67, 60
2, 33000, Note_on_c, 0, 89, 0
2, 33003, Note_on_c, 0, 77, 0
2, 33003, Note_on_c, 0, 74, 0
2, 33003, Note_on_c, 0, 86, 0
2, 33049, Note_on_c, 0, 89, 60
2, 33051, Note_on_c, 0, 77, 60
2, 33051, Note_on_c, 0, 80, 60
2, 33051, Note_on_c, 0, 82, 60
2, 33051, Note_on_c, 0, 86, 60
2, 33051, Note_on_c, 0, 74, 60
2, 33054, Note_on_c, 0, 70, 60
2, 33054, Note_on_c, 0, 68, 60
2, 33064, Note_on_c, 0, 79, 0
2, 33064, Note_on_c, 0, 83, 0
2, 33067, Note_on_c, 0, 71, 0
2, 33067, Note_on_c, 0, 67, 0
2, 33116, Control_c, 0, 64, 127
2, 33122, Note_on_c, 0, 82, 0
2, 33122, Note_on_c, 0, 86, 0
2, 33122, Note_on_c, 0, 89, 0
2, 33122, Note_on_c, 0, 80, 0
2, 33125, Note_on_c, 0, 77, 0
2, 33125, Note_on_c, 0, 70, 0
2, 33125, Note_on_c, 0, 68, 0
2, 33125, Note_on_c, 0, 74, 0
2, 33174, Note_on_c, 0, 89, 60
2, 33176, Note_on_c, 0, 70, 60
2, 33176, Note_on_c, 0, 74, 60
2, 33176, Note_on_c, 0, 77, 60
2, 33176, Note_on_c, 0, 80, 60
2, 33176, Note_on_c, 0, 82, 60
2, 33176, Note_on_c, 0, 86, 60
2, 33176, Note_on_c, 0, 68, 60
2, 33364, Note_on_c, 0, 86, 0
2, 33364, Note_on_c, 0, 89, 0
2, 33367, Note_on_c, 0, 82, 0
2, 33367, Note_on_c, 0, 74, 0
2, 33367, Note_on_c, 0, 77, 0
2, 33367, Note_on_c, 0, 80, 0
2, 33367, Note_on_c, 0, 70, 0
2, 33367, Note_on_c, 0, 68, 0
2, 33416, Note_on_c, 0, 86, 60
2, 33416, Note_on_c, 0, 89, 60
2, 33416, Note_on_c, 0, 77, 60
2, 33418, Note_on_c, 0, 70, 60
2, 33418, Note_on_c, 0, 74, 60
2, 33418, Note_on_c, 0, 80, 60
2, 33418, Note_on_c, 0, 68, 60
2, 33421, Note_on_c, 0, 82, 60
2, 33438, Control_c, 0, 64, 0
2, 33487, Note_on_c, 0, 82, 0
2, 33489, Note_on_c, 0, 70, 0
2, 33535, Note_on_c, 0, 79, 60
2, 33535, Note_on_c, 0, 82, 60
2, 33535, Note_on_c, 0, 87, 60
2, 33535, Note_on_c, 0, 75, 60
2, 33538, Note_on_c, 0, 80, 0
2, 33538, Note_on_c, 0, 70, 60
2, 33538, Note_on_c, 0, 67, 60
2, 33546, Note_on_c, 0, 86, 0
2, 33546, Note_on_c, 0, 89, 0
2, 33548, Note_on_c, 0, 74, 0
2, 33548, Note_on_c, 0, 68, 0
2, 33548, Note_on_c, 0, 77, 0
2, 33714, Note_on_c, 0, 87, 0
2, 33717, Note_on_c, 0, 75, 0
2, 33717, Note_on_c, 0, 67, 0
2, 33717, Note_on_c, 0, 70, 0
2, 33717, Note_on_c, 0, 82, 0
2, 33717, Note_on_c, 0, 79, 0
2, 33775, Note_on_c, 0, 78, 60
2, 33775, Note_on_c, 0, 82, 60
2, 33775, Note_on_c, 0, 84, 60
2, 33775, Note_on_c, 0, 88, 60
2, 33775, Note_on_c, 0, 76, 60
2, 33777, Note_on_c, 0, 70, 60
2, 33777, Note_on_c, 0, 72, 60
2, 33777, Note_on_c, 0, 66, 60
2, 33945, Note_on_c, 0, 66, 0
2, 33945, Note_on_c, 0, 72, 0
2, 33945, Note_on_c, 0, 70, 0
2, 33951, Note_on_c, 0, 88, 0
2, 33953, Note_on_c, 0, 84, 0
2, 33953, Note_on_c, 0, 76, 0
2, 33953, Note_on_c, 0, 82, 0
2, 33953, Note_on_c, 0, 78, 0
2, 34011, Note_on_c, 0, 89, 60
2, 34014, Note_on_c, 0, 81, 60
2, 34014, Note_on_c, 0, 84, 60
2, 34014, Note_on_c, 0, 77, 60
2, 34017, Note_on_c, 0, 69, 60
2, 34017, Note_on_c, 0, 72, 60
2, 34017, Note_on_c, 0, 65, 60
2, 34045, Control_c, 0, 64, 127
2, 34200, Note_on_c, 0, 89, 0
2, 34202, Note_on_c, 0, 69, 0
2, 34202, Note_on_c, 0, 84, 0
2, 34202, Note_on_c, 0, 77, 0
2, 34202, Note_on_c, 0, 81, 0
2, 34202, Note_on_c, 0, 72, 0
2, 34205, Note_on_c, 0, 65, 0
2, 34248, Note_on_c, 0, 101, 60
2, 34251, Note_on_c, 0, 89, 60
2, 34253, Note_on_c, 0, 77, 60
2, 34253, Note_on_c, 0, 81, 60
2, 34253, Note_on_c, 0, 75, 60
2, 34256, Note_on_c, 0, 65, 60
2, 34256, Note_on_c, 0, 69, 60
2, 34256, Note_on_c, 0, 53, 60
2, 34261, Note_on_c, 0, 41, 60
2, 34368, Note_on_c, 0, 41, 0
2, 34370, Control_c, 0, 64, 0
2, 34376, Note_on_c, 0, 53, 0
2, 34378, Note_on_c, 0, 89, 0
2, 34381, Note_on_c, 0, 75, 0
2, 34381, Note_on_c, 0, 81, 0
2, 34381, Note_on_c, 0, 77, 0
2, 34383, Note_on_c, 0, 65, 0
2, 34383, Note_on_c, 0, 69, 0
2, 34398, Note_on_c, 0, 101, 0
2, 34495, Note_on_c, 0, 74, 60
2, 34495, Note_on_c, 0, 77, 60
2, 34495, Note_on_c, 0, 70, 60
2, 34498, Note_on_c, 0, 65, 60
2, 34498, Note_on_c, 0, 62, 60
2, 34500, Note_on_c, 0, 50, 60
2, 34549, Note_on_c, 0, 62, 0
2, 34552, Note_on_c, 0, 50, 0
2, 34560, Note_on_c, 0, 58, 60
2, 34561, Note_on_c, 0, 46, 60
2, 34610, Note_on_c, 0, 46, 0
2, 34610, Note_on_c, 0, 58, 0
2, 34618, Note_on_c, 0, 57, 60
2, 34620, Note_on_c, 0, 45, 60
2, 34669, Note_on_c, 0, 45, 0
2, 34669, Note_on_c, 0, 57, 0
2, 34677, Note_on_c, 0, 55, 60
2, 34679, Note_on_c, 0, 43, 60
2, 34728, Note_on_c, 0, 55, 0
2, 34729, Note_on_c, 0, 43, 0
2, 34740, Note_on_c, 0, 53, 60
2, 34740, Note_on_c, 0, 41, 60
2, 34745, Note_on_c, 0, 74, 0
2, 34786, Note_on_c, 0, 53, 0
2, 34788, Note_on_c, 0, 41, 0
2, 34791, Note_on_c, 0, 74, 60
2, 34794, Note_on_c, 0, 62, 60
2, 34796, Note_on_c, 0, 58, 60
2, 34796, Note_on_c, 0, 46, 60
2, 34824, Note_on_c, 0, 70, 0
2, 34834, Note_on_c, 0, 65, 0
2, 34845, Note_on_c, 0, 77, 0
2, 34854, Note_on_c, 0, 63, 60
2, 34854, Note_on_c, 0, 75, 60
2, 34854, Note_on_c, 0, 60, 60
2, 34857, Note_on_c, 0, 48, 60
2, 34870, Note_on_c, 0, 46, 0
2, 34874, Note_on_c, 0, 62, 0
2, 34885, Note_on_c, 0, 74, 0
2, 34896, Note_on_c, 0, 58, 0
2, 34911, Note_on_c, 0, 76, 60
2, 34916, Note_on_c, 0, 61, 60
2, 34916, Note_on_c, 0, 64, 60
2, 34916, Note_on_c, 0, 49, 60
2, 34925, Note_on_c, 0, 63, 0
2, 34928, Note_on_c, 0, 48, 0
2, 34933, Note_on_c, 0, 60, 0
2, 34941, Note_on_c, 0, 75, 0
2, 34969, Note_on_c, 0, 77, 60
2, 34969, Note_on_c, 0, 62, 60
2, 34971, Note_on_c, 0, 65, 60
2, 34974, Note_on_c, 0, 50, 60
2, 34982, Note_on_c, 0, 64, 0
2, 34982, Note_on_c, 0, 61, 0
2, 34984, Note_on_c, 0, 49, 0
2, 34990, Note_on_c, 0, 76, 0
2, 34992, Note_on_c, 0, 62, 0
2, 35030, Note_on_c, 0, 74, 60
2, 35030, Note_on_c, 0, 70, 60
2, 35033, Note_on_c, 0, 62, 60
2, 35061, Note_on_c, 0, 65, 0
2, 35071, Note_on_c, 0, 77, 0
2, 35088, Note_on_c, 0, 75, 60
2, 35088, Note_on_c, 0, 69, 60
2, 35091, Note_on_c, 0, 63, 60
2, 35091, Note_on_c, 0, 60, 60
2, 35094, Note_on_c, 0, 48, 60
2, 35099, Note_on_c, 0, 70, 0
2, 35101, Note_on_c, 0, 50, 0
2, 35101, Note_on_c, 0, 62, 0
2, 35109, Note_on_c, 0, 74, 0
2, 35145, Note_on_c, 0, 74, 60
2, 35145, Note_on_c, 0, 70, 60
2, 35147, Note_on_c, 0, 62, 60
2, 35158, Note_on_c, 0, 75, 0
2, 35158, Note_on_c, 0, 69, 0
2, 35160, Note_on_c, 0, 63, 0
2, 35211, Note_on_c, 0, 58, 60
2, 35211, Note_on_c, 0, 46, 60
2, 35216, Note_on_c, 0, 74, 0
2, 35219, Note_on_c, 0, 62, 0
2, 35219, Note_on_c, 0, 60, 0
2, 35221, Note_on_c, 0, 48, 0
2, 35267, Note_on_c, 0, 74, 60
2, 35270, Note_on_c, 0, 62, 60
2, 35287, Note_on_c, 0, 62, 0
2, 35287, Note_on_c, 0, 58, 0
2, 35295, Note_on_c, 0, 70, 0
2, 35323, Note_on_c, 0, 77, 60
2, 35326, Note_on_c, 0, 65, 60
2, 35328, Note_on_c, 0, 58, 60
2, 35328, Note_on_c, 0, 62, 60
2, 35328, Note_on_c, 0, 53, 60
2, 35366, Note_on_c, 0, 53, 0
2, 35366, Note_on_c, 0, 58, 0
2, 35366, Note_on_c, 0, 62, 0
2, 35374, Note_on_c, 0, 74, 0
2, 35381, Note_on_c, 0, 80, 60
2, 35381, Note_on_c, 0, 68, 60
2, 35397, Note_on_c, 0, 46, 0
2, 35423, Note_on_c, 0, 65, 0
2, 35423, Note_on_c, 0, 77, 0
2, 35443, Note_on_c, 0, 51, 60
2, 35446, Note_on_c, 0, 39, 60
2, 35478, Note_on_c, 0, 80, 0
2, 35491, Note_on_c, 0, 68, 0
2, 35498, Note_on_c, 0, 79, 60
2, 35498, Note_on_c, 0, 75, 60
2, 35501, Note_on_c, 0, 67, 60
2, 35560, Note_on_c, 0, 82, 60
2, 35560, Note_on_c, 0, 70, 60
2, 35563, Note_on_c, 0, 58, 60
2, 35563, Note_on_c, 0, 63, 60
2, 35563, Note_on_c, 0, 55, 60
2, 35570, Note_on_c, 0, 67, 0
2, 35578, Note_on_c, 0, 79, 0
2, 35580, Note_on_c, 0, 75, 0
2, 35591, Note_on_c, 0, 58, 0
2, 35591, Note_on_c, 0, 63, 0
2, 35591, Note_on_c, 0, 55, 0
2, 35616, Note_on_c, 0, 79, 60
2, 35616, Note_on_c, 0, 67, 60
2, 35618, Note_on_c, 0, 75, 60
2, 35631, Note_on_c, 0, 51, 0
2, 35634, Note_on_c, 0, 39, 0
2, 35646, Note_on_c, 0, 82, 0
2, 35646, Note_on_c, 0, 70, 0
2, 35672, Note_on_c, 0, 84, 60
2, 35674, Note_on_c, 0, 72, 60
2, 35680, Note_on_c, 0, 51, 60
2, 35680, Note_on_c, 0, 39, 60
2, 35715, Note_on_c, 0, 79, 0
2, 35717, Note_on_c, 0, 67, 0
2, 35725, Note_on_c, 0, 75, 0
2, 35733, Note_on_c, 0, 82, 60
2, 35736, Note_on_c, 0, 70, 60
2, 35763, Note_on_c, 0, 72, 0
2, 35771, Note_on_c, 0, 84, 0
2, 35799, Note_on_c, 0, 49, 60
2, 35799, Note_on_c, 0, 37, 60
2, 35814, Note_on_c, 0, 70, 0
2, 35817, Note_on_c, 0, 39, 0
2, 35817, Note_on_c, 0, 51, 0
2, 35850, Note_on_c, 0, 74, 60
2, 35853, Note_on_c, 0, 70, 60
2, 35853, Note_on_c, 0, 77, 60
2, 35853, Note_on_c, 0, 65, 60
2, 35893, Note_on_c, 0, 82, 0
2, 35916, Note_on_c, 0, 50, 60
2, 35919, Note_on_c, 0, 37, 0
2, 35919, Note_on_c, 0, 38, 60
2, 35927, Note_on_c, 0, 49, 0
2, 35982, Control_c, 0, 64, 127
2, 36039, Note_on_c, 0, 53, 60
2, 36041, Note_on_c, 0, 41, 60
2, 36048, Note_on_c, 0, 50, 0
2, 36061, Note_on_c, 0, 38, 0
2, 36099, Note_on_c, 0, 58, 60
2, 36099, Note_on_c, 0, 46, 60
2, 36118, Note_on_c, 0, 53, 0
2, 36120, Note_on_c, 0, 41, 0
2, 36158, Note_on_c, 0, 60, 60
2, 36161, Note_on_c, 0, 46, 0
2, 36161, Note_on_c, 0, 48, 60
2, 36196, Note_on_c, 0, 58, 0
2, 36215, Note_on_c, 0, 69, 60
2, 36216, Note_on_c, 0, 57, 60
2, 36227, Note_on_c, 0, 70, 0
2, 36230, Note_on_c, 0, 60, 0
2, 36244, Control_c, 0, 64, 0
2, 36247, Note_on_c, 0, 65, 0
2, 36258, Note_on_c, 0, 74, 0
2, 36267, Note_on_c, 0, 77, 0
2, 36278, Note_on_c, 0, 63, 60
2, 36278, Note_on_c, 0, 72, 60
2, 36278, Note_on_c, 0, 60, 60
2, 36281, Note_on_c, 0, 51, 60
2, 36301, Note_on_c, 0, 48, 0
2, 36321, Note_on_c, 0, 69, 0
2, 36321, Note_on_c, 0, 57, 0
2, 36339, Note_on_c, 0, 77, 60
2, 36341, Note_on_c, 0, 65, 60
2, 36360, Note_on_c, 0, 65, 0
2, 36360, Note_on_c, 0, 77, 0
2, 36369, Note_on_c, 0, 72, 0
2, 36369, Note_on_c, 0, 60, 0
2, 36398, Note_on_c, 0, 77, 60
2, 36398, Note_on_c, 0, 74, 60
2, 36400, Note_on_c, 0, 65, 60
2, 36400, Note_on_c, 0, 70, 60
2, 36400, Note_on_c, 0, 62, 60
2, 36403, Note_on_c, 0, 51, 0
2, 36403, Note_on_c, 0, 50, 60
2, 36413, Note_on_c, 0, 63, 0
2, 36451, Note_on_c, 0, 62, 0
2, 36451, Note_on_c, 0, 50, 0
2, 36461, Note_on_c, 0, 58, 60
2, 36461, Note_on_c, 0, 46, 60
2, 36502, Note_on_c, 0, 58, 0
2, 36504, Note_on_c, 0, 46, 0
2, 36523, Note_on_c, 0, 57, 60
2, 36523, Note_on_c, 0, 45, 60
2, 36571, Note_on_c, 0, 45, 0
2, 36571, Note_on_c, 0, 57, 0
2, 36581, Note_on_c, 0, 55, 60
2, 36581, Note_on_c, 0, 43, 60
2, 36629, Note_on_c, 0, 55, 0
2, 36632, Note_on_c, 0, 43, 0
2, 36640, Note_on_c, 0, 53, 60
2, 36642, Note_on_c, 0, 41, 60
2, 36657, Note_on_c, 0, 70, 0
2, 36691, Note_on_c, 0, 53, 0
2, 36693, Note_on_c, 0, 41, 0
2, 36696, Note_on_c, 0, 70, 60
2, 36698, Note_on_c, 0, 50, 60
2, 36700, Note_on_c, 0, 58, 60
2, 36700, Note_on_c, 0, 38, 60
2, 36736, Note_on_c, 0, 74, 0
2, 36739, Note_on_c, 0, 65, 0
2, 36746, Note_on_c, 0, 77, 0
2, 36757, Note_on_c, 0, 72, 60
2, 36759, Note_on_c, 0, 60, 60
2, 36759, Note_on_c, 0, 51, 60
2, 36762, Note_on_c, 0, 50, 0
2, 36762, Note_on_c, 0, 38, 0
2, 36762, Note_on_c, 0, 39, 60
2, 36797, Note_on_c, 0, 70, 0
2, 36800, Note_on_c, 0, 58, 0
2, 36816, Note_on_c, 0, 73, 60
2, 36820, Note_on_c, 0, 61, 60
2, 36820, Note_on_c, 0, 52, 60
2, 36823, Note_on_c, 0, 40, 60
2, 36831, Note_on_c, 0, 51, 0
2, 36831, Note_on_c, 0, 39, 0
2, 36839, Note_on_c, 0, 72, 0
2, 36839, Note_on_c, 0, 60, 0
2, 36866, Note_on_c, 0, 74, 60
2, 36871, Note_on_c, 0, 41, 60
2, 36879, Note_on_c, 0, 52, 0
2, 36879, Note_on_c, 0, 53, 60
2, 36879, Note_on_c, 0, 62, 60
2, 36882, Note_on_c, 0, 40, 0
2, 36887, Note_on_c, 0, 73, 0
2, 36889, Note_on_c, 0, 61, 0
2, 36935, Note_on_c, 0, 70, 60
2, 36937, Note_on_c, 0, 58, 60
2, 36965, Note_on_c, 0, 74, 0
2, 36965, Note_on_c, 0, 62, 0
2, 36970, Note_on_c, 0, 41, 0
2, 36996, Note_on_c, 0, 63, 60
2, 36996, Note_on_c, 0, 72, 60
2, 36996, Note_on_c, 0, 54, 60
2, 36999, Note_on_c, 0, 60, 60
2, 36999, Note_on_c, 0, 42, 60
2, 37008, Note_on_c, 0, 53, 0
2, 37016, Note_on_c, 0, 70, 0
2, 37019, Note_on_c, 0, 58, 0
2, 37055, Note_on_c, 0, 70, 60
2, 37057, Note_on_c, 0, 62, 60
2, 37059, Note_on_c, 0, 58, 60
2, 37059, Note_on_c, 0, 43, 60
2, 37070, Note_on_c, 0, 42, 0
2, 37078, Note_on_c, 0, 63, 0
2, 37080, Note_on_c, 0, 54, 0
2, 37095, Note_on_c, 0, 72, 0
2, 37098, Note_on_c, 0, 60, 0
2, 37118, Note_on_c, 0, 55, 60
2, 37141, Note_on_c, 0, 55, 0
2, 37179, Note_on_c, 0, 67, 60
2, 37179, Note_on_c, 0, 55, 60
2, 37182, Note_on_c, 0, 46, 60
2, 37198, Note_on_c, 0, 70, 0
2, 37200, Note_on_c, 0, 58, 0
2, 37200, Note_on_c, 0, 62, 0
2, 37202, Note_on_c, 0, 43, 0
2, 37235, Note_on_c, 0, 70, 60
2, 37238, Note_on_c, 0, 62, 60
2, 37238, Note_on_c, 0, 65, 60
2, 37238, Note_on_c, 0, 50, 60
2, 37241, Note_on_c, 0, 58, 60
2, 37246, Note_on_c, 0, 55, 0
2, 37248, Note_on_c, 0, 46, 0
2, 37253, Note_on_c, 0, 67, 0
2, 37296, Note_on_c, 0, 61, 60
2, 37296, Note_on_c, 0, 49, 60
2, 37304, Note_on_c, 0, 65, 0
2, 37307, Note_on_c, 0, 62, 0
2, 37307, Note_on_c, 0, 50, 0
2, 37355, Note_on_c, 0, 69, 60
2, 37355, Note_on_c, 0, 65, 60
2, 37358, Note_on_c, 0, 58, 0
2, 37358, Note_on_c, 0, 61, 0
2, 37358, Note_on_c, 0, 57, 60
2, 37358, Note_on_c, 0, 60, 60
2, 37358, Note_on_c, 0, 48, 60
2, 37366, Note_on_c, 0, 70, 0
2, 37368, Note_on_c, 0, 49, 0
2, 37375, Note_on_c, 0, 65, 0
2, 37414, Note_on_c, 0, 77, 60
2, 37416, Note_on_c, 0, 65, 60
2, 37437, Note_on_c, 0, 65, 0
2, 37437, Note_on_c, 0, 60, 0
2, 37437, Note_on_c, 0, 69, 0
2, 37440, Note_on_c, 0, 57, 0
2, 37477, Note_on_c, 0, 60, 60
2, 37477, Note_on_c, 0, 65, 60
2, 37477, Note_on_c, 0, 69, 60
2, 37477, Note_on_c, 0, 72, 60
2, 37477, Note_on_c, 0, 57, 60
2, 37480, Note_on_c, 0, 53, 60
2, 37515, Note_on_c, 0, 77, 0
2, 37518, Note_on_c, 0, 53, 0
2, 37518, Note_on_c, 0, 60, 0
2, 37518, Note_on_c, 0, 57, 0
2, 37534, Note_on_c, 0, 74, 60
2, 37534, Note_on_c, 0, 70, 60
2, 37536, Note_on_c, 0, 64, 60
2, 37536, Note_on_c, 0, 62, 60
2, 37538, Note_on_c, 0, 48, 0
2, 37546, Note_on_c, 0, 69, 0
2, 37557, Note_on_c, 0, 65, 0
2, 37563, Note_on_c, 0, 72, 0
2, 37594, Note_on_c, 0, 70, 0
2, 37597, Note_on_c, 0, 48, 60
2, 37653, Note_on_c, 0, 70, 60
2, 37656, Note_on_c, 0, 58, 60
2, 37674, Note_on_c, 0, 64, 0
2, 37676, Note_on_c, 0, 58, 0
2, 37694, Note_on_c, 0, 62, 0
2, 37702, Note_on_c, 0, 74, 0
2, 37711, Note_on_c, 0, 67, 60
2, 37711, Note_on_c, 0, 64, 60
2, 37714, Note_on_c, 0, 58, 60
2, 37714, Note_on_c, 0, 60, 60
2, 37714, Note_on_c, 0, 55, 60
2, 37742, Note_on_c, 0, 70, 0
2, 37745, Note_on_c, 0, 48, 0
2, 37754, Note_on_c, 0, 58, 0
2, 37754, Note_on_c, 0, 60, 0
2, 37834, Note_on_c, 0, 65, 60
2, 37834, Note_on_c, 0, 60, 60
2, 37836, Note_on_c, 0, 57, 60
2, 37836, Note_on_c, 0, 53, 60
2, 37844, Note_on_c, 0, 64, 0
2, 37844, Note_on_c, 0, 67, 0
2, 37844, Note_on_c, 0, 55, 0
2, 37874, Note_on_c, 0, 60, 0
2, 37874, Note_on_c, 0, 57, 0
2, 37951, Note_on_c, 0, 72, 60
2, 37951, Note_on_c, 0, 60, 60
2, 37953, Note_on_c, 0, 57, 60
2, 37956, Note_on_c, 0, 45, 60
2, 37961, Note_on_c, 0, 65, 0
2, 37964, Note_on_c, 0, 53, 0
2, 38007, Note_on_c, 0, 77, 60
2, 38007, Note_on_c, 0, 65, 60
2, 38019, Note_on_c, 0, 60, 0
2, 38047, Note_on_c, 0, 72, 0
2, 38068, Note_on_c, 0, 60, 60
2, 38068, Note_on_c, 0, 48, 60
2, 38078, Note_on_c, 0, 45, 0
2, 38088, Note_on_c, 0, 57, 0
2, 38124, Note_on_c, 0, 69, 60
2, 38127, Note_on_c, 0, 57, 60
2, 38136, Note_on_c, 0, 60, 0
2, 38164, Note_on_c, 0, 77, 0
2, 38167, Note_on_c, 0, 65, 0
2, 38185, Note_on_c, 0, 72, 60
2, 38187, Note_on_c, 0, 60, 60
2, 38187, Note_on_c, 0, 63, 60
2, 38187, Note_on_c, 0, 51, 60
2, 38190, Note_on_c, 0, 48, 0
2, 38216, Note_on_c, 0, 57, 0
2, 38216, Note_on_c, 0, 69, 0
2, 38244, Note_on_c, 0, 77, 60
2, 38244, Note_on_c, 0, 65, 60
2, 38264, Note_on_c, 0, 65, 0
2, 38264, Note_on_c, 0, 60, 0
2, 38264, Note_on_c, 0, 77, 0
2, 38275, Note_on_c, 0, 72, 0
2, 38277, Note_on_c, 0, 51, 0
2, 38303, Note_on_c, 0, 70, 60
2, 38303, Note_on_c, 0, 74, 60
2, 38303, Note_on_c, 0, 77, 60
2, 38303, Note_on_c, 0, 65, 60
2, 38304, Note_on_c, 0, 62, 60
2, 38304, Note_on_c, 0, 50, 60
2, 38312, Note_on_c, 0, 63, 0
2, 38361, Note_on_c, 0, 58, 60
2, 38361, Note_on_c, 0, 46, 60
2, 38369, Control_c, 0, 64, 127
2, 38374, Note_on_c, 0, 50, 0
2, 38420, Note_on_c, 0, 62, 0
2, 38420, Note_on_c, 0, 57, 60
2, 38422, Note_on_c, 0, 45, 60
2, 38429, Note_on_c, 0, 46, 0
2, 38429, Note_on_c, 0, 58, 0
2, 38478, Note_on_c, 0, 55, 60
2, 38480, Note_on_c, 0, 43, 60
2, 38491, Note_on_c, 0, 45, 0
2, 38519, Note_on_c, 0, 57, 0
2, 38537, Note_on_c, 0, 53, 60
2, 38539, Note_on_c, 0, 41, 60
2, 38549, Note_on_c, 0, 43, 0
2, 38552, Note_on_c, 0, 74, 0
2, 38554, Note_on_c, 0, 55, 0
2, 38592, Note_on_c, 0, 62, 60
2, 38592, Note_on_c, 0, 74, 60
2, 38592, Control_c, 0, 64, 0
2, 38595, Note_on_c, 0, 58, 60
2, 38595, Note_on_c, 0, 46, 60
2, 38605, Note_on_c, 0, 41, 0
2, 38613, Note_on_c, 0, 53, 0
2, 38640, Note_on_c, 0, 70, 0
2, 38640, Note_on_c, 0, 77, 0
2, 38643, Note_on_c, 0, 65, 0
2, 38651, Note_on_c, 0, 75, 60
2, 38651, Note_on_c, 0, 63, 60
2, 38654, Note_on_c, 0, 60, 60
2, 38654, Note_on_c, 0, 48, 60
2, 38662, Note_on_c, 0, 74, 0
2, 38662, Note_on_c, 0, 58, 0
2, 38662, Note_on_c, 0, 62, 0
2, 38664, Note_on_c, 0, 46, 0
2, 38710, Note_on_c, 0, 76, 60
2, 38710, Note_on_c, 0, 64, 60
2, 38712, Note_on_c, 0, 61, 60
2, 38712, Note_on_c, 0, 49, 60
2, 38722, Note_on_c, 0, 48, 0
2, 38733, Note_on_c, 0, 63, 0
2, 38733, Note_on_c, 0, 60, 0
2, 38740, Note_on_c, 0, 75, 0
2, 38768, Note_on_c, 0, 77, 60
2, 38773, Note_on_c, 0, 65, 60
2, 38773, Note_on_c, 0, 62, 60
2, 38776, Note_on_c, 0, 50, 60
2, 38784, Note_on_c, 0, 64, 0
2, 38784, Note_on_c, 0, 61, 0
2, 38786, Note_on_c, 0, 49, 0
2, 38791, Note_on_c, 0, 76, 0
2, 38794, Note_on_c, 0, 62, 0
2, 38832, Note_on_c, 0, 74, 60
2, 38834, Note_on_c, 0, 70, 60
2, 38834, Note_on_c, 0, 62, 60
2, 38868, Note_on_c, 0, 65, 0
2, 38885, Note_on_c, 0, 77, 0
2, 38896, Note_on_c, 0, 75, 60
2, 38896, Note_on_c, 0, 69, 60
2, 38898, Note_on_c, 0, 60, 60
2, 38898, Note_on_c, 0, 63, 60
2, 38898, Note_on_c, 0, 48, 60
2, 38905, Note_on_c, 0, 74, 0
2, 38905, Note_on_c, 0, 62, 0
2, 38919, Note_on_c, 0, 70, 0
2, 38919, Note_on_c, 0, 50, 0
2, 38954, Note_on_c, 0, 74, 60
2, 38956, Note_on_c, 0, 70, 60
2, 38956, Note_on_c, 0, 62, 60
2, 38967, Note_on_c, 0, 63, 0
2, 38979, Note_on_c, 0, 75, 0
2, 38979, Note_on_c, 0, 69, 0
2, 39018, Note_on_c, 0, 58, 60
2, 39021, Note_on_c, 0, 46, 60
2, 39030, Note_on_c, 0, 62, 0
2, 39038, Note_on_c, 0, 74, 0
2, 39041, Note_on_c, 0, 48, 0
2, 39048, Note_on_c, 0, 60, 0
2, 39076, Note_on_c, 0, 74, 60
2, 39079, Note_on_c, 0, 62, 60
2, 39092, Note_on_c, 0, 58, 0
2, 39099, Note_on_c, 0, 62, 0
2, 39120, Note_on_c, 0, 70, 0
2, 39138, Note_on_c, 0, 77, 60
2, 39140, Note_on_c, 0, 58, 60
2, 39140, Note_on_c, 0, 62, 60
2, 39140, Note_on_c, 0, 65, 60
2, 39140, Note_on_c, 0, 53, 60
2, 39170, Note_on_c, 0, 74, 0
2, 39181, Note_on_c, 0, 62, 0
2, 39181, Note_on_c, 0, 58, 0
2, 39183, Note_on_c, 0, 53, 0
2, 39198, Note_on_c, 0, 80, 60
2, 39198, Note_on_c, 0, 68, 60
2, 39214, Note_on_c, 0, 46, 0
2, 39232, Note_on_c, 0, 65, 0
2, 39252, Note_on_c, 0, 77, 0
2, 39263, Note_on_c, 0, 51, 60
2, 39264, Note_on_c, 0, 39, 60
2, 39290, Note_on_c, 0, 80, 0
2, 39293, Note_on_c, 0, 68, 0
2, 39318, Note_on_c, 0, 79, 60
2, 39321, Note_on_c, 0, 75, 60
2, 39321, Note_on_c, 0, 67, 60
2, 39382, Note_on_c, 0, 82, 60
2, 39382, Note_on_c, 0, 70, 60
2, 39384, Note_on_c, 0, 58, 60
2, 39384, Note_on_c, 0, 63, 60
2, 39384, Note_on_c, 0, 55, 60
2, 39392, Note_on_c, 0, 67, 0
2, 39400, Note_on_c, 0, 79, 0
2, 39403, Note_on_c, 0, 75, 0
2, 39423, Note_on_c, 0, 58, 0
2, 39423, Note_on_c, 0, 63, 0
2, 39423, Note_on_c, 0, 55, 0
2, 39438, Note_on_c, 0, 79, 60
2, 39438, Note_on_c, 0, 75, 60
2, 39440, Note_on_c, 0, 67, 60
2, 39454, Note_on_c, 0, 39, 0
2, 39461, Note_on_c, 0, 51, 0
2, 39469, Note_on_c, 0, 70, 0
2, 39489, Note_on_c, 0, 82, 0
2, 39497, Note_on_c, 0, 84, 60
2, 39499, Note_on_c, 0, 51, 60
2, 39499, Note_on_c, 0, 72, 60
2, 39499, Note_on_c, 0, 39, 60
2, 39537, Note_on_c, 0, 67, 0
2, 39537, Note_on_c, 0, 79, 0
2, 39537, Note_on_c, 0, 75, 0
2, 39555, Note_on_c, 0, 82, 60
2, 39555, Note_on_c, 0, 70, 60
2, 39586, Note_on_c, 0, 84, 0
2, 39588, Note_on_c, 0, 72, 0
2, 39608, Note_on_c, 0, 55, 60
2, 39611, Note_on_c, 0, 43, 60
2, 39619, Note_on_c, 0, 70, 0
2, 39652, Note_on_c, 0, 51, 0
2, 39662, Note_on_c, 0, 39, 0
2, 39674, Note_on_c, 0, 77, 60
2, 39674, Note_on_c, 0, 74, 60
2, 39677, Note_on_c, 0, 70, 60
2, 39677, Note_on_c, 0, 65, 60
2, 39725, Note_on_c, 0, 82, 0
2, 39736, Note_on_c, 0, 58, 60
2, 39739, Note_on_c, 0, 46, 60
2, 39746, Note_on_c, 0, 74, 0
2, 39759, Note_on_c, 0, 43, 0
2, 39767, Note_on_c, 0, 55, 0
2, 39792, Note_on_c, 0, 74, 60
2, 39794, Note_on_c, 0, 62, 60
2, 39815, Note_on_c, 0, 65, 0
2, 39822, Note_on_c, 0, 77, 0
2, 39822, Note_on_c, 0, 70, 0
2, 39850, Note_on_c, 0, 77, 60
2, 39853, Note_on_c, 0, 65, 60
2, 39856, Note_on_c, 0, 56, 60
2, 39856, Note_on_c, 0, 44, 60
2, 39873, Note_on_c, 0, 65, 0
2, 39876, Note_on_c, 0, 46, 0
2, 39884, Note_on_c, 0, 62, 0
2, 39884, Note_on_c, 0, 58, 0
2, 39884, Note_on_c, 0, 74, 0
2, 39916, Note_on_c, 0, 65, 60
2, 39916, Note_on_c, 0, 53, 60
2, 39955, Note_on_c, 0, 77, 0
2, 39973, Note_on_c, 0, 70, 60
2, 39975, Note_on_c, 0, 55, 60
2, 39978, Note_on_c, 0, 44, 0
2, 39978, Note_on_c, 0, 58, 60
2, 39978, Note_on_c, 0, 43, 60
2, 39985, Note_on_c, 0, 56, 0
2, 39996, Note_on_c, 0, 65, 0
2, 39996, Note_on_c, 0, 53, 0
2, 40032, Note_on_c, 0, 74, 60
2, 40036, Note_on_c, 0, 62, 60
2, 40064, Note_on_c, 0, 70, 0
2, 40067, Note_on_c, 0, 58, 0
2, 40092, Note_on_c, 0, 77, 60
2, 40095, Note_on_c, 0, 65, 60
2, 40098, Note_on_c, 0, 53, 60
2, 40098, Note_on_c, 0, 41, 60
2, 40118, Note_on_c, 0, 43, 0
2, 40133, Note_on_c, 0, 62, 0
2, 40136, Note_on_c, 0, 55, 0
2, 40143, Note_on_c, 0, 74, 0
2, 40151, Note_on_c, 0, 80, 60
2, 40151, Note_on_c, 0, 68, 60
2, 40195, Note_on_c, 0, 65, 0
2, 40201, Note_on_c, 0, 77, 0
2, 40215, Note_on_c, 0, 51, 60
2, 40215, Note_on_c, 0, 39, 60
2, 40217, Note_on_c, 0, 41, 0
2, 40253, Note_on_c, 0, 68, 0
2, 40255, Note_on_c, 0, 53, 0
2, 40263, Note_on_c, 0, 80, 0
2, 40273, Note_on_c, 0, 79, 60
2, 40273, Note_on_c, 0, 75, 60
2, 40275, Note_on_c, 0, 67, 60
2, 40304, Note_on_c, 0, 75, 0
2, 40332, Note_on_c, 0, 82, 60
2, 40334, Note_on_c, 0, 70, 60
2, 40337, Note_on_c, 0, 58, 60
2, 40337, Note_on_c, 0, 63, 60
2, 40337, Note_on_c, 0, 55, 60
2, 40344, Note_on_c, 0, 67, 0
2, 40355, Note_on_c, 0, 79, 0
2, 40375, Note_on_c, 0, 63, 0
2, 40375, Note_on_c, 0, 58, 0
2, 40378, Note_on_c, 0, 55, 0
2, 40378, Note_on_c, 0, 39, 0
2, 40388, Note_on_c, 0, 51, 0
2, 40392, Note_on_c, 0, 79, 60
2, 40392, Note_on_c, 0, 75, 60
2, 40395, Note_on_c, 0, 67, 60
2, 40423, Note_on_c, 0, 82, 0
2, 40423, Note_on_c, 0, 70, 0
2, 40434, Note_on_c, 0, 75, 0
2, 40451, Note_on_c, 0, 84, 60
2, 40454, Note_on_c, 0, 72, 60
2, 40457, Note_on_c, 0, 51, 60
2, 40459, Note_on_c, 0, 39, 60
2, 40474, Note_on_c, 0, 67, 0
2, 40482, Note_on_c, 0, 79, 0
2, 40510, Note_on_c, 0, 82, 60
2, 40512, Note_on_c, 0, 70, 60
2, 40531, Note_on_c, 0, 84, 0
2, 40533, Note_on_c, 0, 72, 0
2, 40576, Note_on_c, 0, 49, 60
2, 40576, Note_on_c, 0, 37, 60
2, 40591, Note_on_c, 0, 70, 0
2, 40594, Note_on_c, 0, 51, 0
2, 40594, Note_on_c, 0, 39, 0
2, 40627, Note_on_c, 0, 74, 60
2, 40630, Note_on_c, 0, 70, 60
2, 40630, Note_on_c, 0, 77, 60
2, 40630, Note_on_c, 0, 65, 60
2, 40657, Note_on_c, 0, 70, 0
2, 40657, Note_on_c, 0, 74, 0
2, 40668, Note_on_c, 0, 82, 0
2, 40673, Note_on_c, 0, 37, 0
2, 40691, Note_on_c, 0, 50, 60
2, 40693, Note_on_c, 0, 38, 60
2, 40701, Note_on_c, 0, 49, 0
2, 40747, Note_on_c, 0, 70, 60
2, 40747, Note_on_c, 0, 74, 60
2, 40747, Note_on_c, 0, 62, 60
2, 40757, Note_on_c, 0, 77, 0
2, 40770, Note_on_c, 0, 70, 0
2, 40770, Note_on_c, 0, 65, 0
2, 40770, Note_on_c, 0, 74, 0
2, 40808, Note_on_c, 0, 70, 60
2, 40808, Note_on_c, 0, 74, 60
2, 40808, Note_on_c, 0, 77, 60
2, 40808, Note_on_c, 0, 65, 60
2, 40810, Note_on_c, 0, 44, 60
2, 40813, Note_on_c, 0, 32, 60
2, 40825, Note_on_c, 0, 74, 0
2, 40831, Note_on_c, 0, 38, 0
2, 40839, Note_on_c, 0, 50, 0
2, 40839, Note_on_c, 0, 62, 0
2, 40847, Note_on_c, 0, 70, 0
2, 40861, Note_on_c, 0, 74, 60
2, 40861, Note_on_c, 0, 79, 60
2, 40861, Note_on_c, 0, 71, 60
2, 40864, Note_on_c, 0, 67, 60
2, 40884, Note_on_c, 0, 65, 0
2, 40892, Note_on_c, 0, 71, 0
2, 40897, Note_on_c, 0, 32, 0
2, 40902, Note_on_c, 0, 74, 0
2, 40902, Note_on_c, 0, 77, 0
2, 40918, Note_on_c, 0, 44, 0
2, 40927, Note_on_c, 0, 43, 60
2, 40927, Note_on_c, 0, 31, 60
2, 40981, Note_on_c, 0, 74, 60
2, 40984, Note_on_c, 0, 62, 60
2, 41004, Note_on_c, 0, 62, 0
2, 41012, Note_on_c, 0, 79, 0
2, 41012, Note_on_c, 0, 67, 0
2, 41044, Note_on_c, 0, 62, 60
2, 41044, Note_on_c, 0, 65, 60
2, 41044, Note_on_c, 0, 71, 60
2, 41044, Note_on_c, 0, 59, 60
2, 41083, Note_on_c, 0, 74, 0
2, 41086, Note_on_c, 0, 65, 0
2, 41086, Note_on_c, 0, 62, 0
2, 41103, Note_on_c, 0, 67, 60
2, 41106, Note_on_c, 0, 55, 60
2, 41118, Note_on_c, 0, 31, 0
2, 41126, Note_on_c, 0, 43, 0
2, 41136, Note_on_c, 0, 59, 0
2, 41136, Note_on_c, 0, 71, 0
2, 41164, Note_on_c, 0, 64, 60
2, 41167, Note_on_c, 0, 72, 60
2, 41167, Note_on_c, 0, 60, 60
2, 41169, Note_on_c, 0, 48, 60
2, 41175, Note_on_c, 0, 67, 0
2, 41177, Note_on_c, 0, 55, 0
2, 41206, Note_on_c, 0, 64, 0
2, 41223, Note_on_c, 0, 67, 60
2, 41226, Note_on_c, 0, 55, 60
2, 41246, Note_on_c, 0, 55, 0
2, 41246, Note_on_c, 0, 60, 0
2, 41254, Note_on_c, 0, 72, 0
2, 41284, Note_on_c, 0, 70, 60
2, 41284, Note_on_c, 0, 64, 60
2, 41286, Note_on_c, 0, 58, 60
2, 41286, Note_on_c, 0, 60, 60
2, 41286, Note_on_c, 0, 55, 60
2, 41304, Note_on_c, 0, 67, 0
2, 41307, Note_on_c, 0, 48, 0
2, 41323, Note_on_c, 0, 64, 0
2, 41325, Note_on_c, 0, 60, 0
2, 41401, Note_on_c, 0, 69, 60
2, 41403, Note_on_c, 0, 57, 60
2, 41403, Note_on_c, 0, 60, 60
2, 41403, Note_on_c, 0, 63, 60
2, 41403, Note_on_c, 0, 53, 60
2, 41414, Note_on_c, 0, 70, 0
2, 41417, Note_on_c, 0, 55, 0
2, 41417, Note_on_c, 0, 58, 0
2, 41445, Note_on_c, 0, 60, 0
2, 41445, Note_on_c, 0, 63, 0
2, 41460, Note_on_c, 0, 77, 60
2, 41462, Note_on_c, 0, 65, 60
2, 41472, Note_on_c, 0, 57, 0
2, 41475, Note_on_c, 0, 53, 0
2, 41483, Note_on_c, 0, 69, 0
2, 41520, Note_on_c, 0, 75, 60
2, 41523, Note_on_c, 0, 57, 60
2, 41523, Note_on_c, 0, 63, 60
2, 41523, Note_on_c, 0, 53, 60
2, 41551, Note_on_c, 0, 65, 0
2, 41559, Note_on_c, 0, 77, 0
2, 41579, Note_on_c, 0, 72, 60
2, 41582, Note_on_c, 0, 60, 60
2, 41628, Note_on_c, 0, 75, 0
2, 41639, Note_on_c, 0, 62, 60
2, 41639, Note_on_c, 0, 70, 60
2, 41639, Note_on_c, 0, 58, 60
2, 41648, Note_on_c, 0, 57, 0
2, 41648, Note_on_c, 0, 63, 0
2, 41659, Note_on_c, 0, 60, 0
2, 41659, Note_on_c, 0, 53, 0
2, 41668, Note_on_c, 0, 72, 0
2, 41760, Note_on_c, 0, 53, 60
2, 41762, Note_on_c, 0, 41, 60
2, 41791, Note_on_c, 0, 41, 0
2, 41791, Note_on_c, 0, 53, 0
2, 41821, Note_on_c, 0, 55, 60
2, 41824, Note_on_c, 0, 43, 60
2, 41852, Note_on_c, 0, 43, 0
2, 41852, Note_on_c, 0, 55, 0
2, 41857, Note_on_c, 0, 70, 0
2, 41880, Note_on_c, 0, 57, 60
2, 41882, Note_on_c, 0, 45, 60
2, 41893, Note_on_c, 0, 58, 0
2, 41903, Note_on_c, 0, 62, 0
2, 41913, Note_on_c, 0, 57, 0
2, 41913, Note_on_c, 0, 45, 0
2, 41944, Note_on_c, 0, 58, 60
2, 41944, Note_on_c, 0, 46, 60
2, 41975, Note_on_c, 0, 58, 0
2, 41976, Note_on_c, 0, 46, 0
2, 42004, Note_on_c, 0, 60, 60
2, 42004, Note_on_c, 0, 48, 60
2, 42033, Note_on_c, 0, 60, 0
2, 42035, Note_on_c, 0, 48, 0
2, 42066, Note_on_c, 0, 61, 60
2, 42069, Note_on_c, 0, 49, 60
2, 42096, Note_on_c, 0, 49, 0
2, 42096, Note_on_c, 0, 61, 0
2, 42121, Note_on_c, 0, 89, 60
2, 42121, Note_on_c, 0, 74, 60
2, 42124, Note_on_c, 0, 65, 60
2, 42124, Note_on_c, 0, 70, 60
2, 42124, Note_on_c, 0, 77, 60
2, 42124, Note_on_c, 0, 62, 60
2, 42127, Note_on_c, 0, 50, 60
2, 42175, Note_on_c, 0, 50, 0
2, 42175, Note_on_c, 0, 62, 0
2, 42186, Note_on_c, 0, 58, 60
2, 42186, Note_on_c, 0, 46, 60
2, 42224, Note_on_c, 0, 58, 0
2, 42226, Note_on_c, 0, 46, 0
2, 42241, Note_on_c, 0, 57, 60
2, 42246, Note_on_c, 0, 45, 60
2, 42290, Note_on_c, 0, 57, 0
2, 42290, Note_on_c, 0, 55, 60
2, 42292, Note_on_c, 0, 45, 0
2, 42292, Note_on_c, 0, 43, 60
2, 42349, Note_on_c, 0, 55, 0
2, 42349, Note_on_c, 0, 53, 60
2, 42351, Note_on_c, 0, 43, 0
2, 42351, Note_on_c, 0, 41, 60
2, 42377, Note_on_c, 0, 74, 0
2, 42397, Note_on_c, 0, 53, 0
2, 42397, Note_on_c, 0, 41, 0
2, 42412, Note_on_c, 0, 86, 60
2, 42415, Note_on_c, 0, 74, 60
2, 42417, Note_on_c, 0, 62, 60
2, 42417, Note_on_c, 0, 58, 60
2, 42420, Note_on_c, 0, 46, 60
2, 42435, Note_on_c, 0, 70, 0
2, 42435, Note_on_c, 0, 65, 0
2, 42443, Note_on_c, 0, 89, 0
2, 42445, Note_on_c, 0, 77, 0
2, 42466, Note_on_c, 0, 48, 60
2, 42471, Note_on_c, 0, 87, 60
2, 42474, Note_on_c, 0, 75, 60
2, 42476, Note_on_c, 0, 63, 60
2, 42476, Note_on_c, 0, 60, 60
2, 42483, Note_on_c, 0, 86, 0
2, 42483, Note_on_c, 0, 74, 0
2, 42486, Note_on_c, 0, 62, 0
2, 42496, Note_on_c, 0, 58, 0
2, 42496, Note_on_c, 0, 46, 0
2, 42529, Note_on_c, 0, 88, 60
2, 42532, Note_on_c, 0, 76, 60
2, 42534, Note_on_c, 0, 61, 60
2, 42534, Note_on_c, 0, 64, 60
2, 42534, Note_on_c, 0, 49, 60
2, 42542, Note_on_c, 0, 87, 0
2, 42545, Note_on_c, 0, 60, 0
2, 42545, Note_on_c, 0, 63, 0
2, 42547, Note_on_c, 0, 48, 0
2, 42554, Note_on_c, 0, 75, 0
2, 42591, Note_on_c, 0, 89, 60
2, 42593, Note_on_c, 0, 77, 60
2, 42593, Note_on_c, 0, 65, 60
2, 42596, Note_on_c, 0, 62, 60
2, 42596, Note_on_c, 0, 50, 60
2, 42603, Note_on_c, 0, 64, 0
2, 42605, Note_on_c, 0, 49, 0
2, 42611, Note_on_c, 0, 88, 0
2, 42613, Note_on_c, 0, 62, 0
2, 42613, Note_on_c, 0, 76, 0
2, 42613, Note_on_c, 0, 61, 0
2, 42654, Note_on_c, 0, 74, 60
2, 42657, Note_on_c, 0, 70, 60
2, 42657, Note_on_c, 0, 62, 60
2, 42664, Note_on_c, 0, 86, 60
2, 42695, Note_on_c, 0, 77, 0
2, 42697, Note_on_c, 0, 65, 0
2, 42713, Note_on_c, 0, 89, 0
2, 42713, Note_on_c, 0, 87, 60
2, 42713, Note_on_c, 0, 75, 60
2, 42716, Note_on_c, 0, 69, 60
2, 42716, Note_on_c, 0, 63, 60
2, 42718, Note_on_c, 0, 60, 60
2, 42718, Note_on_c, 0, 48, 60
2, 42725, Note_on_c, 0, 70, 0
2, 42725, Note_on_c, 0, 74, 0
2, 42725, Note_on_c, 0, 62, 0
2, 42733, Note_on_c, 0, 86, 0
2, 42738, Note_on_c, 0, 50, 0
2, 42771, Note_on_c, 0, 86, 60
2, 42771, Note_on_c, 0, 74, 60
2, 42774, Note_on_c, 0, 70, 60
2, 42774, Note_on_c, 0, 62, 60
2, 42794, Note_on_c, 0, 69, 0
2, 42794, Note_on_c, 0, 63, 0
2, 42794, Note_on_c, 0, 75, 0
2, 42802, Note_on_c, 0, 87, 0
2, 42835, Note_on_c, 0, 58, 60
2, 42835, Note_on_c, 0, 46, 60
2, 42850, Note_on_c, 0, 86, 0
2, 42853, Note_on_c, 0, 74, 0
2, 42853, Note_on_c, 0, 62, 0
2, 42855, Note_on_c, 0, 48, 0
2, 42873, Note_on_c, 0, 60, 0
2, 42891, Note_on_c, 0, 86, 60
2, 42891, Note_on_c, 0, 74, 60
2, 42893, Note_on_c, 0, 62, 60
2, 42913, Note_on_c, 0, 62, 0
2, 42913, Note_on_c, 0, 58, 0
2, 42944, Note_on_c, 0, 70, 0
2, 42952, Note_on_c, 0, 89, 60
2, 42952, Note_on_c, 0, 77, 60
2, 42955, Note_on_c, 0, 65, 60
2, 42955, Note_on_c, 0, 62, 60
2, 42958, Note_on_c, 0, 58, 60
2, 42958, Note_on_c, 0, 53, 60
2, 42985, Note_on_c, 0, 58, 0
2, 42985, Note_on_c, 0, 62, 0
2, 42985, Note_on_c, 0, 74, 0
2, 42987, Note_on_c, 0, 53, 0
2, 42993, Note_on_c, 0, 86, 0
2, 43008, Note_on_c, 0, 92, 60
2, 43013, Note_on_c, 0, 80, 60
2, 43013, Note_on_c, 0, 68, 60
2, 43018, Note_on_c, 0, 46, 0
2, 43061, Note_on_c, 0, 89, 0
2, 43064, Note_on_c, 0, 65, 0
2, 43075, Note_on_c, 0, 77, 0
2, 43077, Note_on_c, 0, 51, 60
2, 43077, Note_on_c, 0, 39, 60
2, 43112, Note_on_c, 0, 68, 0
2, 43112, Note_on_c, 0, 80, 0
2, 43120, Note_on_c, 0, 92, 0
2, 43128, Note_on_c, 0, 91, 60
2, 43130, Note_on_c, 0, 79, 60
2, 43130, Note_on_c, 0, 75, 60
2, 43133, Note_on_c, 0, 67, 60
2, 43171, Note_on_c, 0, 75, 0
2, 43186, Note_on_c, 0, 94, 60
2, 43189, Note_on_c, 0, 82, 60
2, 43192, Note_on_c, 0, 63, 60
2, 43192, Note_on_c, 0, 70, 60
2, 43192, Note_on_c, 0, 55, 60
2, 43194, Note_on_c, 0, 58, 60
2, 43212, Note_on_c, 0, 91, 0
2, 43214, Note_on_c, 0, 79, 0
2, 43214, Note_on_c, 0, 67, 0
2, 43235, Note_on_c, 0, 63, 0
2, 43235, Note_on_c, 0, 58, 0
2, 43237, Note_on_c, 0, 55, 0
2, 43250, Note_on_c, 0, 91, 60
2, 43252, Note_on_c, 0, 75, 60
2, 43252, Note_on_c, 0, 79, 60
2, 43252, Note_on_c, 0, 67, 60
2, 43258, Note_on_c, 0, 39, 0
2, 43268, Note_on_c, 0, 51, 0
2, 43283, Note_on_c, 0, 70, 0
2, 43291, Note_on_c, 0, 94, 0
2, 43294, Note_on_c, 0, 82, 0
2, 43294, Note_on_c, 0, 75, 0
2, 43309, Note_on_c, 0, 96, 60
2, 43311, Note_on_c, 0, 84, 60
2, 43314, Note_on_c, 0, 72, 60
2, 43317, Note_on_c, 0, 51, 60
2, 43317, Note_on_c, 0, 39, 60
2, 43352, Note_on_c, 0, 67, 0
2, 43360, Note_on_c, 0, 91, 0
2, 43362, Note_on_c, 0, 79, 0
2, 43368, Note_on_c, 0, 94, 60
2, 43369, Note_on_c, 0, 82, 60
2, 43369, Note_on_c, 0, 70, 60
2, 43428, Note_on_c, 0, 70, 0
2, 43428, Note_on_c, 0, 72, 0
2, 43431, Note_on_c, 0, 48, 60
2, 43431, Note_on_c, 0, 36, 60
2, 43434, Note_on_c, 0, 96, 0
2, 43436, Note_on_c, 0, 84, 0
2, 43451, Note_on_c, 0, 39, 0
2, 43459, Note_on_c, 0, 51, 0
2, 43485, Note_on_c, 0, 89, 60
2, 43485, Note_on_c, 0, 74, 60
2, 43487, Note_on_c, 0, 77, 60
2, 43487, Note_on_c, 0, 70, 60
2, 43489, Note_on_c, 0, 65, 60
2, 43536, Note_on_c, 0, 82, 0
2, 43545, Note_on_c, 0, 50, 60
2, 43548, Note_on_c, 0, 38, 60
2, 43551, Note_on_c, 0, 94, 0
2, 43559, Note_on_c, 0, 48, 0
2, 43559, Note_on_c, 0, 36, 0
2, 43591, Control_c, 0, 64, 127
2, 43668, Note_on_c, 0, 53, 60
2, 43670, Note_on_c, 0, 41, 60
2, 43688, Note_on_c, 0, 50, 0
2, 43688, Note_on_c, 0, 38, 0
2, 43727, Note_on_c, 0, 41, 0
2, 43727, Note_on_c, 0, 46, 60
2, 43727, Note_on_c, 0, 58, 60
2, 43747, Note_on_c, 0, 53, 0
2, 43782, Note_on_c, 0, 58, 0
2, 43782, Note_on_c, 0, 60, 60
2, 43785, Note_on_c, 0, 46, 0
2, 43785, Note_on_c, 0, 48, 60
2, 43838, Note_on_c, 0, 81, 60
2, 43838, Note_on_c, 0, 69, 60
2, 43841, Note_on_c, 0, 57, 60
2, 43848, Note_on_c, 0, 70, 0
2, 43851, Note_on_c, 0, 60, 0
2, 43856, Control_c, 0, 64, 0
2, 43869, Note_on_c, 0, 74, 0
2, 43872, Note_on_c, 0, 65, 0
2, 43879, Note_on_c, 0, 77, 0
2, 43879, Note_on_c, 0, 89, 0
2, 43896, Note_on_c, 0, 84, 60
2, 43899, Note_on_c, 0, 63, 60
2, 43899, Note_on_c, 0, 72, 60
2, 43899, Note_on_c, 0, 51, 60
2, 43902, Note_on_c, 0, 60, 60
2, 43912, Note_on_c, 0, 48, 0
2, 43918, Note_on_c, 0, 69, 0
2, 43918, Note_on_c, 0, 81, 0
2, 43920, Note_on_c, 0, 57, 0
2, 43955, Note_on_c, 0, 89, 60
2, 43958, Note_on_c, 0, 77, 60
2, 43963, Note_on_c, 0, 65, 60
2, 43973, Note_on_c, 0, 60, 0
2, 43978, Note_on_c, 0, 89, 0
2, 43981, Note_on_c, 0, 77, 0
2, 43981, Note_on_c, 0, 65, 0
2, 43981, Note_on_c, 0, 72, 0
2, 43983, Note_on_c, 0, 51, 0
2, 43989, Note_on_c, 0, 84, 0
2, 44021, Note_on_c, 0, 89, 60
2, 44021, Note_on_c, 0, 77, 60
2, 44024, Note_on_c, 0, 65, 60
2, 44024, Note_on_c, 0, 70, 60
2, 44024, Note_on_c, 0, 74, 60
2, 44024, Note_on_c, 0, 62, 60
2, 44027, Note_on_c, 0, 50, 60
2, 44037, Note_on_c, 0, 63, 0
2, 44086, Note_on_c, 0, 58, 60
2, 44088, Note_on_c, 0, 46, 60
2, 44095, Note_on_c, 0, 50, 0
2, 44123, Note_on_c, 0, 62, 0
2, 44144, Note_on_c, 0, 57, 60
2, 44146, Note_on_c, 0, 45, 60
2, 44161, Note_on_c, 0, 58, 0
2, 44164, Note_on_c, 0, 46, 0
2, 44200, Note_on_c, 0, 55, 60
2, 44203, Note_on_c, 0, 43, 60
2, 44223, Note_on_c, 0, 45, 0
2, 44261, Note_on_c, 0, 57, 0
2, 44261, Note_on_c, 0, 53, 60
2, 44261, Note_on_c, 0, 41, 60
2, 44277, Note_on_c, 0, 70, 0
2, 44281, Note_on_c, 0, 43, 0
2, 44297, Note_on_c, 0, 55, 0
2, 44312, Note_on_c, 0, 82, 60
2, 44314, Note_on_c, 0, 70, 60
2, 44317, Note_on_c, 0, 58, 60
2, 44317, Note_on_c, 0, 50, 60
2, 44320, Note_on_c, 0, 38, 60
2, 44340, Note_on_c, 0, 41, 0
2, 44348, Note_on_c, 0, 53, 0
2, 44363, Note_on_c, 0, 89, 0
2, 44365, Note_on_c, 0, 74, 0
2, 44365, Note_on_c, 0, 65, 0
2, 44365, Note_on_c, 0, 77, 0
2, 44371, Note_on_c, 0, 84, 60
2, 44373, Note_on_c, 0, 72, 60
2, 44376, Note_on_c, 0, 60, 60
2, 44376, Note_on_c, 0, 51, 60
2, 44378, Note_on_c, 0, 38, 0
2, 44378, Note_on_c, 0, 39, 60
2, 44386, Note_on_c, 0, 50, 0
2, 44396, Note_on_c, 0, 58, 0
2, 44403, Note_on_c, 0, 70, 0
2, 44411, Note_on_c, 0, 82, 0
2, 44431, Note_on_c, 0, 85, 60
2, 44434, Note_on_c, 0, 73, 60
2, 44434, Note_on_c, 0, 61, 60
2, 44437, Note_on_c, 0, 52, 60
2, 44437, Note_on_c, 0, 40, 60
2, 44445, Note_on_c, 0, 72, 0
2, 44447, Note_on_c, 0, 39, 0
2, 44447, Note_on_c, 0, 51, 0
2, 44452, Note_on_c, 0, 84, 0
2, 44454, Note_on_c, 0, 60, 0
2, 44488, Note_on_c, 0, 86, 60
2, 44488, Note_on_c, 0, 74, 60
2, 44490, Note_on_c, 0, 62, 60
2, 44493, Note_on_c, 0, 53, 60
2, 44493, Note_on_c, 0, 41, 60
2, 44503, Note_on_c, 0, 52, 0
2, 44503, Note_on_c, 0, 61, 0
2, 44505, Note_on_c, 0, 40, 0
2, 44511, Note_on_c, 0, 73, 0
2, 44511, Note_on_c, 0, 85, 0
2, 44546, Note_on_c, 0, 82, 60
2, 44551, Note_on_c, 0, 70, 60
2, 44554, Note_on_c, 0, 58, 60
2, 44562, Note_on_c, 0, 62, 0
2, 44579, Note_on_c, 0, 74, 0
2, 44587, Note_on_c, 0, 86, 0
2, 44592, Note_on_c, 0, 41, 0
2, 44607, Note_on_c, 0, 84, 60
2, 44610, Note_on_c, 0, 72, 60
2, 44613, Note_on_c, 0, 53, 0
2, 44613, Note_on_c, 0, 54, 60
2, 44613, Note_on_c, 0, 60, 60
2, 44613, Note_on_c, 0, 63, 60
2, 44615, Note_on_c, 0, 42, 60
2, 44620, Note_on_c, 0, 82, 0
2, 44620, Note_on_c, 0, 70, 0
2, 44620, Note_on_c, 0, 58, 0
2, 44668, Note_on_c, 0, 82, 60
2, 44668, Note_on_c, 0, 70, 60
2, 44671, Note_on_c, 0, 55, 60
2, 44671, Note_on_c, 0, 58, 60
2, 44671, Note_on_c, 0, 62, 60
2, 44671, Note_on_c, 0, 43, 60
2, 44681, Note_on_c, 0, 42, 0
2, 44681, Note_on_c, 0, 54, 0
2, 44688, Note_on_c, 0, 63, 0
2, 44701, Note_on_c, 0, 60, 0
2, 44719, Note_on_c, 0, 72, 0
2, 44727, Note_on_c, 0, 84, 0
2, 44739, Note_on_c, 0, 55, 0
2, 44739, Note_on_c, 0, 58, 0
2, 44785, Note_on_c, 0, 79, 60
2, 44790, Note_on_c, 0, 67, 60
2, 44790, Note_on_c, 0, 55, 60
2, 44793, Note_on_c, 0, 58, 60
2, 44793, Note_on_c, 0, 46, 60
2, 44808, Note_on_c, 0, 70, 0
2, 44808, Note_on_c, 0, 82, 0
2, 44811, Note_on_c, 0, 58, 0
2, 44811, Note_on_c, 0, 62, 0
2, 44813, Note_on_c, 0, 43, 0
2, 44849, Note_on_c, 0, 82, 60
2, 44849, Note_on_c, 0, 70, 60
2, 44852, Note_on_c, 0, 58, 60
2, 44852, Note_on_c, 0, 62, 60
2, 44852, Note_on_c, 0, 65, 60
2, 44852, Note_on_c, 0, 50, 60
2, 44872, Note_on_c, 0, 46, 0
2, 44890, Note_on_c, 0, 67, 0
2, 44892, Note_on_c, 0, 55, 0
2, 44898, Note_on_c, 0, 79, 0
2, 44907, Note_on_c, 0, 61, 60
2, 44910, Note_on_c, 0, 49, 60
2, 44918, Note_on_c, 0, 62, 0
2, 44921, Note_on_c, 0, 50, 0
2, 44928, Note_on_c, 0, 65, 0
2, 44966, Note_on_c, 0, 69, 60
2, 44966, Note_on_c, 0, 81, 60
2, 44966, Note_on_c, 0, 65, 60
2, 44969, Note_on_c, 0, 58, 0
2, 44969, Note_on_c, 0, 57, 60
2, 44969, Note_on_c, 0, 48, 60
2, 44976, Note_on_c, 0, 82, 0
2, 44976, Note_on_c, 0, 70, 0
2, 44979, Note_on_c, 0, 49, 0
2, 44989, Note_on_c, 0, 65, 0
2, 44989, Note_on_c, 0, 61, 0
2, 45024, Note_on_c, 0, 89, 60
2, 45024, Note_on_c, 0, 77, 60
2, 45027, Note_on_c, 0, 65, 60
2, 45040, Note_on_c, 0, 57, 0
2, 45040, Note_on_c, 0, 69, 0
2, 45050, Note_on_c, 0, 65, 0
2, 45058, Note_on_c, 0, 81, 0
2, 45086, Note_on_c, 0, 84, 60
2, 45091, Note_on_c, 0, 69, 60
2, 45091, Note_on_c, 0, 72, 60
2, 45091, Note_on_c, 0, 65, 60
2, 45094, Note_on_c, 0, 57, 60
2, 45094, Note_on_c, 0, 60, 60
2, 45094, Note_on_c, 0, 53, 60
2, 45120, Note_on_c, 0, 89, 0
2, 45121, Note_on_c, 0, 77, 0
2, 45147, Note_on_c, 0, 70, 60
2, 45147, Note_on_c, 0, 74, 60
2, 45147, Note_on_c, 0, 86, 60
2, 45147, Note_on_c, 0, 64, 60
2, 45149, Note_on_c, 0, 62, 60
2, 45152, Note_on_c, 0, 48, 0
2, 45163, Note_on_c, 0, 57, 0
2, 45163, Note_on_c, 0, 60, 0
2, 45163, Note_on_c, 0, 65, 0
2, 45165, Note_on_c, 0, 53, 0
2, 45170, Note_on_c, 0, 72, 0
2, 45172, Note_on_c, 0, 69, 0
2, 45178, Note_on_c, 0, 84, 0
2, 45208, Note_on_c, 0, 70, 0
2, 45214, Note_on_c, 0, 48, 60
2, 45266, Note_on_c, 0, 82, 60
2, 45266, Note_on_c, 0, 70, 60
2, 45269, Note_on_c, 0, 58, 60
2, 45280, Note_on_c, 0, 64, 0
2, 45289, Note_on_c, 0, 58, 0
2, 45289, Note_on_c, 0, 62, 0
2, 45295, Note_on_c, 0, 86, 0
2, 45297, Note_on_c, 0, 74, 0
2, 45325, Note_on_c, 0, 67, 60
2, 45328, Note_on_c, 0, 79, 60
2, 45328, Note_on_c, 0, 64, 60
2, 45331, Note_on_c, 0, 58, 60
2, 45331, Note_on_c, 0, 60, 60
2, 45331, Note_on_c, 0, 55, 60
2, 45348, Note_on_c, 0, 70, 0
2, 45366, Note_on_c, 0, 82, 0
2, 45368, Note_on_c, 0, 60, 0
2, 45368, Note_on_c, 0, 58, 0
2, 45382, Note_on_c, 0, 48, 0
2, 45448, Note_on_c, 0, 65, 60
2, 45450, Note_on_c, 0, 77, 60
2, 45450, Note_on_c, 0, 57, 60
2, 45453, Note_on_c, 0, 53, 60
2, 45453, Note_on_c, 0, 60, 60
2, 45453, Note_on_c, 0, 41, 60
2, 45460, Note_on_c, 0, 64, 0
2, 45463, Note_on_c, 0, 55, 0
2, 45480, Note_on_c, 0, 67, 0
2, 45488, Note_on_c, 0, 79, 0
2, 45491, Note_on_c, 0, 60, 0
2, 45491, Note_on_c, 0, 57, 0
2, 45570, Note_on_c, 0, 84, 60
2, 45573, Note_on_c, 0, 72, 60
2, 45573, Note_on_c, 0, 57, 60
2, 45575, Note_on_c, 0, 60, 60
2, 45577, Note_on_c, 0, 45, 60
2, 45582, Note_on_c, 0, 65, 0
2, 45585, Note_on_c, 0, 41, 0
2, 45596, Note_on_c, 0, 77, 0
2, 45598, Note_on_c, 0, 53, 0
2, 45616, Note_on_c, 0, 60, 0
2, 45628, Note_on_c, 0, 89, 60
2, 45633, Note_on_c, 0, 77, 60
2, 45633, Note_on_c, 0, 65, 60
2, 45664, Note_on_c, 0, 72, 0
2, 45682, Note_on_c, 0, 84, 0
2, 45695, Note_on_c, 0, 57, 0
2, 45695, Note_on_c, 0, 60, 60
2, 45695, Note_on_c, 0, 48, 60
2, 45697, Note_on_c, 0, 45, 0
2, 45750, Note_on_c, 0, 81, 60
2, 45753, Note_on_c, 0, 69, 60
2, 45756, Note_on_c, 0, 57, 60
2, 45764, Note_on_c, 0, 60, 0
2, 45773, Note_on_c, 0, 65, 0
2, 45781, Note_on_c, 0, 89, 0
2, 45784, Note_on_c, 0, 77, 0
2, 45809, Note_on_c, 0, 84, 60
2, 45812, Note_on_c, 0, 72, 60
2, 45815, Note_on_c, 0, 60, 60
2, 45815, Note_on_c, 0, 63, 60
2, 45815, Note_on_c, 0, 51, 60
2, 45827, Note_on_c, 0, 48, 0
2, 45835, Note_on_c, 0, 57, 0
2, 45842, Note_on_c, 0, 81, 0
2, 45842, Note_on_c, 0, 69, 0
2, 45870, Note_on_c, 0, 89, 60
2, 45873, Note_on_c, 0, 77, 60
2, 45873, Note_on_c, 0, 65, 60
2, 45893, Note_on_c, 0, 65, 0
2, 45893, Note_on_c, 0, 77, 0
2, 45893, Note_on_c, 0, 72, 0
2, 45893, Note_on_c, 0, 89, 0
2, 45896, Note_on_c, 0, 60, 0
2, 45903, Note_on_c, 0, 84, 0
2, 45932, Note_on_c, 0, 89, 60
2, 45934, Note_on_c, 0, 70, 60
2, 45934, Note_on_c, 0, 74, 60
2, 45934, Note_on_c, 0, 77, 60
2, 45934, Note_on_c, 0, 50, 60
2, 45934, Note_on_c, 0, 65, 60
2, 45934, Note_on_c, 0, 62, 60
2, 45944, Note_on_c, 0, 63, 0
2, 45944, Note_on_c, 0, 51, 0
2, 45972, Note_on_c, 0, 62, 0
2, 45992, Note_on_c, 0, 58, 60
2, 45995, Note_on_c, 0, 46, 60
2, 46013, Note_on_c, 0, 50, 0
2, 46023, Note_on_c, 0, 46, 0
2, 46023, Note_on_c, 0, 58, 0
2, 46051, Note_on_c, 0, 57, 60
2, 46054, Note_on_c, 0, 45, 60
2, 46094, Note_on_c, 0, 45, 0
2, 46094, Note_on_c, 0, 57, 0
2, 46115, Note_on_c, 0, 55, 60
2, 46115, Note_on_c, 0, 43, 60
2, 46152, Note_on_c, 0, 55, 0
2, 46155, Note_on_c, 0, 43, 0
2, 46174, Note_on_c, 0, 53, 60
2, 46174, Note_on_c, 0, 41, 60
2, 46181, Note_on_c, 0, 74, 0
2, 46203, Note_on_c, 0, 53, 0
2, 46203, Note_on_c, 0, 41, 0
2, 46226, Note_on_c, 0, 86, 60
2, 46229, Note_on_c, 0, 74, 60
2, 46232, Note_on_c, 0, 58, 60
2, 46232, Note_on_c, 0, 62, 60
2, 46232, Note_on_c, 0, 46, 60
2, 46260, Note_on_c, 0, 70, 0
2, 46268, Note_on_c, 0, 77, 0
2, 46270, Note_on_c, 0, 65, 0
2, 46285, Note_on_c, 0, 89, 0
2, 46285, Note_on_c, 0, 87, 60
2, 46288, Note_on_c, 0, 75, 60
2, 46288, Note_on_c, 0, 60, 60
2, 46291, Note_on_c, 0, 63, 60
2, 46291, Note_on_c, 0, 48, 60
2, 46298, Note_on_c, 0, 62, 0
2, 46298, Note_on_c, 0, 74, 0
2, 46306, Note_on_c, 0, 86, 0
2, 46308, Note_on_c, 0, 46, 0
2, 46319, Note_on_c, 0, 58, 0
2, 46342, Note_on_c, 0, 88, 60
2, 46344, Note_on_c, 0, 64, 60
2, 46344, Note_on_c, 0, 76, 60
2, 46344, Note_on_c, 0, 61, 60
2, 46346, Note_on_c, 0, 49, 60
2, 46354, Note_on_c, 0, 60, 0
2, 46354, Note_on_c, 0, 63, 0
2, 46357, Note_on_c, 0, 48, 0
2, 46362, Note_on_c, 0, 75, 0
2, 46362, Note_on_c, 0, 87, 0
2, 46400, Note_on_c, 0, 89, 60
2, 46400, Note_on_c, 0, 77, 60
2, 46402, Note_on_c, 0, 65, 60
2, 46402, Note_on_c, 0, 62, 60
2, 46405, Note_on_c, 0, 50, 60
2, 46413, Note_on_c, 0, 64, 0
2, 46416, Note_on_c, 0, 49, 0
2, 46420, Note_on_c, 0, 76, 0
2, 46420, Note_on_c, 0, 88, 0
2, 46423, Note_on_c, 0, 61, 0
2, 46423, Note_on_c, 0, 62, 0
2, 46459, Note_on_c, 0, 74, 60
2, 46459, Note_on_c, 0, 86, 60
2, 46459, Note_on_c, 0, 70, 60
2, 46464, Note_on_c, 0, 62, 60
2, 46484, Note_on_c, 0, 65, 0
2, 46502, Note_on_c, 0, 77, 0
2, 46510, Note_on_c, 0, 89, 0
2, 46517, Note_on_c, 0, 87, 60
2, 46519, Note_on_c, 0, 75, 60
2, 46519, Note_on_c, 0, 69, 60
2, 46522, Note_on_c, 0, 63, 60
2, 46522, Note_on_c, 0, 60, 60
2, 46525, Note_on_c, 0, 48, 60
2, 46530, Note_on_c, 0, 86, 0
2, 46530, Note_on_c, 0, 70, 0
2, 46533, Note_on_c, 0, 50, 0
2, 46533, Note_on_c, 0, 62, 0
2, 46540, Note_on_c, 0, 74, 0
2, 46578, Note_on_c, 0, 86, 60
2, 46581, Note_on_c, 0, 70, 60
2, 46581, Note_on_c, 0, 74, 60
2, 46581, Note_on_c, 0, 62, 60
2, 46591, Note_on_c, 0, 69, 0
2, 46601, Note_on_c, 0, 63, 0
2, 46601, Note_on_c, 0, 75, 0
2, 46608, Note_on_c, 0, 87, 0
2, 46642, Note_on_c, 0, 60, 0
2, 46642, Note_on_c, 0, 58, 60
2, 46644, Note_on_c, 0, 46, 60
2, 46652, Note_on_c, 0, 74, 0
2, 46652, Note_on_c, 0, 62, 0
2, 46655, Note_on_c, 0, 48, 0
2, 46659, Note_on_c, 0, 86, 0
2, 46695, Note_on_c, 0, 86, 60
2, 46698, Note_on_c, 0, 74, 60
2, 46701, Note_on_c, 0, 62, 60
2, 46713, Note_on_c, 0, 58, 0
2, 46721, Note_on_c, 0, 62, 0
2, 46741, Note_on_c, 0, 70, 0
2, 46756, Note_on_c, 0, 89, 60
2, 46759, Note_on_c, 0, 65, 60
2, 46759, Note_on_c, 0, 77, 60
2, 46759, Note_on_c, 0, 62, 60
2, 46761, Note_on_c, 0, 58, 60
2, 46761, Note_on_c, 0, 53, 60
2, 46782, Note_on_c, 0, 74, 0
2, 46798, Note_on_c, 0, 86, 0
2, 46800, Note_on_c, 0, 62, 0
2, 46802, Note_on_c, 0, 58, 0
2, 46802, Note_on_c, 0, 53, 0
2, 46815, Note_on_c, 0, 92, 60
2, 46818, Note_on_c, 0, 80, 60
2, 46818, Note_on_c, 0, 68, 60
2, 46833, Note_on_c, 0, 46, 0
2, 46841, Note_on_c, 0, 65, 0
2, 46878, Note_on_c, 0, 89, 0
2, 46881, Note_on_c, 0, 77, 0
2, 46884, Note_on_c, 0, 51, 60
2, 46884, Note_on_c, 0, 39, 60
2, 46920, Note_on_c, 0, 80, 0
2, 46927, Note_on_c, 0, 92, 0
2, 46932, Note_on_c, 0, 68, 0
2, 46935, Note_on_c, 0, 91, 60
2, 46937, Note_on_c, 0, 79, 60
2, 46940, Note_on_c, 0, 75, 60
2, 46940, Note_on_c, 0, 67, 60
2, 46991, Note_on_c, 0, 75, 0
2, 46993, Note_on_c, 0, 94, 60
2, 46995, Note_on_c, 0, 91, 0
2, 46995, Note_on_c, 0, 82, 60
2, 46998, Note_on_c, 0, 79, 0
2, 46998, Note_on_c, 0, 67, 0
2, 46998, Note_on_c, 0, 70, 60
2, 47001, Note_on_c, 0, 58, 60
2, 47001, Note_on_c, 0, 63, 60
2, 47001, Note_on_c, 0, 55, 60
2, 47052, Note_on_c, 0, 55, 0
2, 47052, Note_on_c, 0, 63, 0
2, 47052, Note_on_c, 0, 58, 0
2, 47054, Note_on_c, 0, 91, 60
2, 47057, Note_on_c, 0, 79, 60
2, 47057, Note_on_c, 0, 75, 60
2, 47060, Note_on_c, 0, 67, 60
2, 47072, Note_on_c, 0, 51, 0
2, 47072, Note_on_c, 0, 39, 0
2, 47088, Note_on_c, 0, 70, 0
2, 47095, Note_on_c, 0, 82, 0
2, 47103, Note_on_c, 0, 94, 0
2, 47105, Note_on_c, 0, 75, 0
2, 47111, Note_on_c, 0, 96, 60
2, 47112, Note_on_c, 0, 84, 60
2, 47112, Note_on_c, 0, 72, 60
2, 47118, Note_on_c, 0, 51, 60
2, 47120, Note_on_c, 0, 39, 60
2, 47143, Note_on_c, 0, 67, 0
2, 47151, Note_on_c, 0, 79, 0
2, 47163, Note_on_c, 0, 91, 0
2, 47169, Note_on_c, 0, 94, 60
2, 47171, Note_on_c, 0, 82, 60
2, 47174, Note_on_c, 0, 70, 60
2, 47192, Note_on_c, 0, 84, 0
2, 47194, Note_on_c, 0, 72, 0
2, 47200, Note_on_c, 0, 96, 0
2, 47232, Note_on_c, 0, 55, 60
2, 47235, Note_on_c, 0, 43, 60
2, 47240, Note_on_c, 0, 70, 0
2, 47245, Note_on_c, 0, 39, 0
2, 47253, Note_on_c, 0, 51, 0
2, 47286, Note_on_c, 0, 89, 60
2, 47288, Note_on_c, 0, 74, 60
2, 47288, Note_on_c, 0, 77, 60
2, 47288, Note_on_c, 0, 70, 60
2, 47291, Note_on_c, 0, 65, 60
2, 47327, Note_on_c, 0, 82, 0
2, 47347, Note_on_c, 0, 74, 0
2, 47352, Note_on_c, 0, 58, 60
2, 47354, Note_on_c, 0, 94, 0
2, 47354, Note_on_c, 0, 46, 60
2, 47365, Note_on_c, 0, 43, 0
2, 47370, Note_on_c, 0, 55, 0
2, 47403, Note_on_c, 0, 86, 60
2, 47403, Note_on_c, 0, 74, 60
2, 47405, Note_on_c, 0, 62, 60
2, 47419, Note_on_c, 0, 65, 0
2, 47424, Note_on_c, 0, 89, 0
2, 47426, Note_on_c, 0, 77, 0
2, 47444, Note_on_c, 0, 70, 0
2, 47462, Note_on_c, 0, 89, 60
2, 47464, Note_on_c, 0, 77, 60
2, 47467, Note_on_c, 0, 65, 60
2, 47470, Note_on_c, 0, 56, 60
2, 47472, Note_on_c, 0, 44, 60
2, 47477, Note_on_c, 0, 58, 0
2, 47479, Note_on_c, 0, 46, 0
2, 47485, Note_on_c, 0, 65, 0
2, 47485, Note_on_c, 0, 77, 0
2, 47487, Note_on_c, 0, 62, 0
2, 47505, Note_on_c, 0, 74, 0
2, 47513, Note_on_c, 0, 86, 0
2, 47522, Note_on_c, 0, 77, 60
2, 47525, Note_on_c, 0, 65, 60
2, 47528, Note_on_c, 0, 53, 60
2, 47559, Note_on_c, 0, 44, 0
2, 47574, Note_on_c, 0, 55, 60
2, 47581, Note_on_c, 0, 89, 0
2, 47581, Note_on_c, 0, 82, 60
2, 47581, Note_on_c, 0, 70, 60
2, 47589, Note_on_c, 0, 56, 0
2, 47589, Note_on_c, 0, 58, 60
2, 47589, Note_on_c, 0, 43, 60
2, 47607, Note_on_c, 0, 53, 0
2, 47635, Note_on_c, 0, 65, 0
2, 47640, Note_on_c, 0, 86, 60
2, 47642, Note_on_c, 0, 77, 0
2, 47642, Note_on_c, 0, 74, 60
2, 47645, Note_on_c, 0, 62, 60
2, 47684, Note_on_c, 0, 82, 0
2, 47684, Note_on_c, 0, 70, 0
2, 47686, Note_on_c, 0, 58, 0
2, 47699, Note_on_c, 0, 89, 60
2, 47701, Note_on_c, 0, 77, 60
2, 47704, Note_on_c, 0, 65, 60
2, 47709, Note_on_c, 0, 53, 60
2, 47712, Note_on_c, 0, 41, 60
2, 47727, Note_on_c, 0, 62, 0
2, 47727, Note_on_c, 0, 55, 0
2, 47729, Note_on_c, 0, 43, 0
2, 47747, Note_on_c, 0, 74, 0
2, 47755, Note_on_c, 0, 86, 0
2, 47760, Note_on_c, 0, 92, 60
2, 47762, Note_on_c, 0, 80, 60
2, 47764, Note_on_c, 0, 68, 60
2, 47826, Note_on_c, 0, 77, 0
2, 47829, Note_on_c, 0, 65, 0
2, 47829, Note_on_c, 0, 51, 60
2, 47831, Note_on_c, 0, 39, 60
2, 47833, Note_on_c, 0, 89, 0
2, 47849, Note_on_c, 0, 41, 0
2, 47856, Note_on_c, 0, 53, 0
2, 47864, Note_on_c, 0, 80, 0
2, 47875, Control_c, 0, 64, 127
2, 47877, Note_on_c, 0, 68, 0
2, 47880, Note_on_c, 0, 91, 60
2, 47881, Note_on_c, 0, 92, 0
2, 47881, Note_on_c, 0, 79, 60
2, 47884, Note_on_c, 0, 75, 60
2, 47884, Note_on_c, 0, 67, 60
2, 47938, Note_on_c, 0, 94, 60
2, 47940, Note_on_c, 0, 82, 60
2, 47940, Note_on_c, 0, 70, 60
2, 47943, Note_on_c, 0, 75, 0
2, 47943, Note_on_c, 0, 63, 60
2, 47948, Note_on_c, 0, 58, 60
2, 47948, Note_on_c, 0, 55, 60
2, 47953, Note_on_c, 0, 67, 0
2, 47961, Note_on_c, 0, 91, 0
2, 47963, Note_on_c, 0, 79, 0
2, 47976, Note_on_c, 0, 58, 0
2, 47976, Note_on_c, 0, 63, 0
2, 47976, Note_on_c, 0, 55, 0
2, 48001, Note_on_c, 0, 91, 60
2, 48001, Note_on_c, 0, 79, 60
2, 48004, Note_on_c, 0, 75, 60
2, 48006, Note_on_c, 0, 67, 60
2, 48020, Note_on_c, 0, 39, 0
2, 48020, Note_on_c, 0, 51, 0
2, 48048, Note_on_c, 0, 70, 0
2, 48060, Note_on_c, 0, 96, 60
2, 48063, Note_on_c, 0, 94, 0
2, 48063, Note_on_c, 0, 84, 60
2, 48065, Note_on_c, 0, 72, 60
2, 48068, Note_on_c, 0, 51, 60
2, 48071, Note_on_c, 0, 39, 60
2, 48075, Note_on_c, 0, 75, 0
2, 48075, Note_on_c, 0, 82, 0
2, 48096, Note_on_c, 0, 67, 0
2, 48114, Note_on_c, 0, 79, 0
2, 48119, Note_on_c, 0, 94, 60
2, 48121, Note_on_c, 0, 91, 0
2, 48123, Note_on_c, 0, 82, 60
2, 48123, Note_on_c, 0, 70, 60
2, 48146, Note_on_c, 0, 72, 0
2, 48180, Note_on_c, 0, 96, 0
2, 48182, Note_on_c, 0, 84, 0
2, 48185, Note_on_c, 0, 49, 60
2, 48188, Note_on_c, 0, 37, 60
2, 48195, Control_c, 0, 64, 0
2, 48197, Note_on_c, 0, 51, 0
2, 48205, Note_on_c, 0, 70, 0
2, 48211, Note_on_c, 0, 39, 0
2, 48239, Note_on_c, 0, 89, 60
2, 48243, Note_on_c, 0, 74, 60
2, 48243, Note_on_c, 0, 77, 60
2, 48243, Note_on_c, 0, 70, 60
2, 48246, Note_on_c, 0, 65, 60
2, 48282, Note_on_c, 0, 82, 0
2, 48285, Note_on_c, 0, 70, 0
2, 48285, Note_on_c, 0, 74, 0
2, 48289, Note_on_c, 0, 37, 0
2, 48289, Note_on_c, 0, 94, 0
2, 48299, Note_on_c, 0, 49, 0
2, 48310, Note_on_c, 0, 50, 60
2, 48310, Note_on_c, 0, 38, 60
2, 48365, Note_on_c, 0, 86, 60
2, 48365, Note_on_c, 0, 74, 60
2, 48368, Note_on_c, 0, 70, 60
2, 48368, Note_on_c, 0, 62, 60
2, 48386, Note_on_c, 0, 89, 0
2, 48388, Note_on_c, 0, 70, 0
2, 48388, Note_on_c, 0, 77, 0
2, 48388, Note_on_c, 0, 65, 0
2, 48388, Note_on_c, 0, 74, 0
2, 48424, Note_on_c, 0, 89, 60
2, 48427, Note_on_c, 0, 74, 60
2, 48427, Note_on_c, 0, 77, 60
2, 48427, Note_on_c, 0, 70, 60
2, 48430, Note_on_c, 0, 65, 60
2, 48432, Note_on_c, 0, 44, 60
2, 48434, Note_on_c, 0, 32, 60
2, 48442, Note_on_c, 0, 50, 0
2, 48445, Note_on_c, 0, 38, 0
2, 48450, Note_on_c, 0, 74, 0
2, 48460, Note_on_c, 0, 70, 0
2, 48462, Note_on_c, 0, 62, 0
2, 48485, Note_on_c, 0, 91, 60
2, 48488, Note_on_c, 0, 86, 0
2, 48488, Note_on_c, 0, 79, 60
2, 48488, Note_on_c, 0, 74, 60
2, 48490, Note_on_c, 0, 71, 60
2, 48490, Note_on_c, 0, 67, 60
2, 48504, Note_on_c, 0, 43, 60
2, 48505, Note_on_c, 0, 31, 60
2, 48513, Note_on_c, 0, 44, 0
2, 48516, Note_on_c, 0, 32, 0
2, 48521, Note_on_c, 0, 65, 0
2, 48527, Note_on_c, 0, 89, 0
2, 48528, Note_on_c, 0, 71, 0
2, 48528, Note_on_c, 0, 74, 0
2, 48528, Note_on_c, 0, 77, 0
2, 48607, Note_on_c, 0, 86, 60
2, 48610, Note_on_c, 0, 74, 60
2, 48613, Note_on_c, 0, 62, 60
2, 48633, Note_on_c, 0, 62, 0
2, 48638, Note_on_c, 0, 91, 0
2, 48641, Note_on_c, 0, 67, 0
2, 48641, Note_on_c, 0, 79, 0
2, 48669, Note_on_c, 0, 83, 60
2, 48672, Note_on_c, 0, 65, 60
2, 48672, Note_on_c, 0, 71, 60
2, 48672, Note_on_c, 0, 62, 60
2, 48673, Note_on_c, 0, 59, 60
2, 48710, Note_on_c, 0, 74, 0
2, 48712, Note_on_c, 0, 62, 0
2, 48712, Note_on_c, 0, 65, 0
2, 48718, Note_on_c, 0, 86, 0
2, 48727, Note_on_c, 0, 79, 60
2, 48730, Note_on_c, 0, 67, 60
2, 48732, Note_on_c, 0, 55, 60
2, 48745, Note_on_c, 0, 43, 0
2, 48747, Note_on_c, 0, 31, 0
2, 48753, Note_on_c, 0, 55, 0
2, 48763, Note_on_c, 0, 59, 0
2, 48770, Note_on_c, 0, 71, 0
2, 48789, Note_on_c, 0, 84, 60
2, 48791, Note_on_c, 0, 83, 0
2, 48791, Note_on_c, 0, 72, 60
2, 48791, Note_on_c, 0, 64, 60
2, 48793, Note_on_c, 0, 58, 60
2, 48793, Note_on_c, 0, 60, 60
2, 48793, Note_on_c, 0, 55, 60
2, 48796, Note_on_c, 0, 48, 60
2, 48796, Note_on_c, 0, 36, 60
2, 48814, Note_on_c, 0, 55, 0
2, 48819, Note_on_c, 0, 79, 0
2, 48821, Note_on_c, 0, 67, 0
2, 48852, Note_on_c, 0, 55, 60
2, 48857, Note_on_c, 0, 79, 60
2, 48860, Note_on_c, 0, 67, 60
2, 48863, Note_on_c, 0, 64, 0
2, 48863, Note_on_c, 0, 60, 0
2, 48863, Note_on_c, 0, 58, 0
2, 48872, Note_on_c, 0, 55, 0
2, 48890, Note_on_c, 0, 72, 0
2, 48898, Note_on_c, 0, 84, 0
2, 48908, Note_on_c, 0, 82, 60
2, 48911, Note_on_c, 0, 60, 60
2, 48911, Note_on_c, 0, 64, 60
2, 48911, Note_on_c, 0, 70, 60
2, 48911, Note_on_c, 0, 55, 60
2, 48913, Note_on_c, 0, 58, 60
2, 48913, Note_on_c, 0, 43, 60
2, 48923, Note_on_c, 0, 48, 0
2, 48923, Note_on_c, 0, 36, 0
2, 48949, Note_on_c, 0, 67, 0
2, 48949, Note_on_c, 0, 64, 0
2, 48957, Note_on_c, 0, 79, 0
2, 48960, Note_on_c, 0, 60, 0
2, 49023, Note_on_c, 0, 81, 60
2, 49025, Note_on_c, 0, 69, 60
2, 49025, Note_on_c, 0, 57, 60
2, 49028, Note_on_c, 0, 55, 0
2, 49028, Note_on_c, 0, 58, 0
2, 49028, Note_on_c, 0, 53, 60
2, 49028, Note_on_c, 0, 60, 60
2, 49028, Note_on_c, 0, 63, 60
2, 49028, Note_on_c, 0, 41, 60
2, 49031, Note_on_c, 0, 43, 0
2, 49032, Note_on_c, 0, 82, 0
2, 49035, Note_on_c, 0, 70, 0
2, 49066, Note_on_c, 0, 60, 0
2, 49066, Note_on_c, 0, 63, 0
2, 49081, Note_on_c, 0, 89, 60
2, 49083, Note_on_c, 0, 77, 60
2, 49086, Note_on_c, 0, 65, 60
2, 49091, Note_on_c, 0, 41, 0
2, 49099, Note_on_c, 0, 57, 0
2, 49099, Note_on_c, 0, 53, 0
2, 49114, Note_on_c, 0, 81, 0
2, 49117, Note_on_c, 0, 69, 0
2, 49142, Note_on_c, 0, 87, 60
2, 49145, Note_on_c, 0, 75, 60
2, 49148, Note_on_c, 0, 57, 60
2, 49148, Note_on_c, 0, 63, 60
2, 49148, Note_on_c, 0, 53, 60
2, 49152, Note_on_c, 0, 41, 60
2, 49176, Note_on_c, 0, 65, 0
2, 49180, Note_on_c, 0, 89, 0
2, 49183, Note_on_c, 0, 77, 0
2, 49200, Note_on_c, 0, 84, 60
2, 49203, Note_on_c, 0, 72, 60
2, 49203, Note_on_c, 0, 60, 60
2, 49242, Note_on_c, 0, 87, 0
2, 49252, Note_on_c, 0, 75, 0
2, 49259, Note_on_c, 0, 82, 60
2, 49262, Note_on_c, 0, 70, 60
2, 49262, Note_on_c, 0, 62, 60
2, 49265, Note_on_c, 0, 58, 60
2, 49267, Note_on_c, 0, 46, 60
2, 49272, Note_on_c, 0, 60, 0
2, 49274, Note_on_c, 0, 41, 0
2, 49282, Note_on_c, 0, 63, 0
2, 49282, Note_on_c, 0, 57, 0
2, 49293, Note_on_c, 0, 53, 0
2, 49297, Note_on_c, 0, 84, 0
2, 49300, Note_on_c, 0, 72, 0
2, 49325, Note_on_c, 0, 46, 0
2, 49348, Control_c, 0, 64, 127
2, 49382, Note_on_c, 0, 53, 60
2, 49384, Note_on_c, 0, 41, 60
2, 49448, Note_on_c, 0, 82, 0
2, 49458, Note_on_c, 0, 70, 0
2, 49476, Note_on_c, 0, 41, 0
2, 49484, Note_on_c, 0, 53, 0
2, 49494, Note_on_c, 0, 94, 60
2, 49499, Note_on_c, 0, 70, 60
2, 49499, Note_on_c, 0, 74, 60
2, 49499, Note_on_c, 0, 82, 60
2, 49499, Control_c, 0, 64, 0
2, 49504, Note_on_c, 0, 46, 60
2, 49504, Note_on_c, 0, 34, 60
2, 49539, Note_on_c, 0, 62, 0
2, 49542, Note_on_c, 0, 58, 0
2, 49585, Note_on_c, 0, 46, 0
2, 49588, Note_on_c, 0, 34, 0
2, 49590, Note_on_c, 0, 70, 0
2, 49601, Note_on_c, 0, 74, 0
2, 49601, Note_on_c, 0, 82, 0
2, 49606, Note_on_c, 0, 94, 0
2, 49743, Note_on_c, 0, 70, 60
2, 49746, Note_on_c, 0, 67, 60
2, 49749, Note_on_c, 0, 51, 60
2, 49749, Note_on_c, 0, 58, 60
2, 49749, Note_on_c, 0, 39, 60
2, 49766, Note_on_c, 0, 67, 0
2, 49766, Note_on_c, 0, 70, 0
2, 49769, Note_on_c, 0, 58, 0
2, 49804, Note_on_c, 0, 70, 60
2, 49804, Note_on_c, 0, 67, 60
2, 49807, Note_on_c, 0, 58, 60
2, 49827, Note_on_c, 0, 58, 0
2, 49866, Note_on_c, 0, 63, 60
2, 49868, Note_on_c, 0, 58, 60
2, 49868, Note_on_c, 0, 55, 60
2, 49906, Note_on_c, 0, 58, 0
2, 49906, Note_on_c, 0, 63, 0
2, 49921, Note_on_c, 0, 68, 60
2, 49924, Note_on_c, 0, 65, 60
2, 49926, Note_on_c, 0, 56, 60
2, 49937, Note_on_c, 0, 51, 0
2, 49937, Note_on_c, 0, 55, 0
2, 49940, Note_on_c, 0, 39, 0
2, 49944, Note_on_c, 0, 67, 0
2, 49944, Note_on_c, 0, 70, 0
2, 49980, Note_on_c, 0, 67, 60
2, 49983, Note_on_c, 0, 63, 60
2, 49983, Note_on_c, 0, 55, 60
2, 49985, Note_on_c, 0, 46, 60
2, 49988, Note_on_c, 0, 34, 60
2, 50000, Note_on_c, 0, 68, 0
2, 50003, Note_on_c, 0, 56, 0
2, 50003, Note_on_c, 0, 65, 0
2, 50031, Note_on_c, 0, 63, 0
2, 50039, Note_on_c, 0, 66, 60
2, 50041, Note_on_c, 0, 54, 60
2, 50051, Note_on_c, 0, 55, 0
2, 50059, Note_on_c, 0, 67, 0
2, 50095, Note_on_c, 0, 67, 60
2, 50097, Note_on_c, 0, 63, 60
2, 50097, Note_on_c, 0, 58, 60
2, 50100, Note_on_c, 0, 54, 0
2, 50100, Note_on_c, 0, 55, 60
2, 50115, Note_on_c, 0, 67, 0
2, 50117, Note_on_c, 0, 66, 0
2, 50117, Note_on_c, 0, 58, 0
2, 50136, Note_on_c, 0, 63, 0
2, 50154, Note_on_c, 0, 70, 60
2, 50156, Note_on_c, 0, 67, 60
2, 50159, Note_on_c, 0, 58, 60
2, 50168, Note_on_c, 0, 46, 0
2, 50171, Note_on_c, 0, 34, 0
2, 50174, Note_on_c, 0, 67, 0
2, 50176, Note_on_c, 0, 55, 0
2, 50212, Note_on_c, 0, 75, 60
2, 50214, Note_on_c, 0, 67, 60
2, 50214, Note_on_c, 0, 63, 60
2, 50217, Note_on_c, 0, 51, 60
2, 50219, Note_on_c, 0, 39, 60
2, 50232, Note_on_c, 0, 70, 0
2, 50234, Note_on_c, 0, 58, 0
2, 50253, Note_on_c, 0, 63, 0
2, 50301, Note_on_c, 0, 75, 0
2, 50327, Note_on_c, 0, 82, 60
2, 50327, Note_on_c, 0, 79, 60
2, 50329, Note_on_c, 0, 75, 60
2, 50329, Note_on_c, 0, 70, 60
2, 50331, Note_on_c, 0, 58, 60
2, 50331, Note_on_c, 0, 63, 60
2, 50331, Note_on_c, 0, 55, 60
2, 50339, Note_on_c, 0, 67, 0
2, 50347, Note_on_c, 0, 79, 0
2, 50350, Note_on_c, 0, 75, 0
2, 50373, Note_on_c, 0, 51, 0
2, 50373, Note_on_c, 0, 63, 0
2, 50373, Note_on_c, 0, 55, 0
2, 50373, Note_on_c, 0, 58, 0
2, 50375, Note_on_c, 0, 39, 0
2, 50385, Note_on_c, 0, 79, 60
2, 50388, Note_on_c, 0, 75, 60
2, 50388, Note_on_c, 0, 67, 60
2, 50405, Control_c, 0, 64, 127
2, 50408, Note_on_c, 0, 70, 0
2, 50416, Note_on_c, 0, 82, 0
2, 50451, Note_on_c, 0, 46, 60
2, 50451, Note_on_c, 0, 34, 60
2, 50464, Note_on_c, 0, 75, 0
2, 50464, Note_on_c, 0, 79, 0
2, 50502, Note_on_c, 0, 84, 60
2, 50502, Note_on_c, 0, 79, 60
2, 50505, Note_on_c, 0, 75, 60
2, 50505, Note_on_c, 0, 72, 60
2, 50522, Note_on_c, 0, 75, 0
2, 50522, Note_on_c, 0, 79, 0
2, 50535, Note_on_c, 0, 67, 0
2, 50545, Control_c, 0, 64, 0
2, 50561, Note_on_c, 0, 82, 60
2, 50564, Note_on_c, 0, 75, 60
2, 50564, Note_on_c, 0, 79, 60
2, 50564, Note_on_c, 0, 70, 60
2, 50566, Note_on_c, 0, 63, 60
2, 50566, Note_on_c, 0, 55, 60
2, 50568, Note_on_c, 0, 58, 60
2, 50596, Note_on_c, 0, 72, 0
2, 50604, Note_on_c, 0, 84, 0
2, 50607, Note_on_c, 0, 55, 0
2, 50607, Note_on_c, 0, 63, 0
2, 50607, Note_on_c, 0, 58, 0
2, 50619, Note_on_c, 0, 46, 0
2, 50624, Note_on_c, 0, 34, 0
2, 50644, Note_on_c, 0, 70, 0
2, 50688, Note_on_c, 0, 70, 60
2, 50688, Note_on_c, 0, 67, 60
2, 50690, Note_on_c, 0, 58, 60
2, 50690, Note_on_c, 0, 51, 60
2, 50693, Note_on_c, 0, 39, 60
2, 50706, Note_on_c, 0, 67, 0
2, 50706, Note_on_c, 0, 70, 0
2, 50706, Note_on_c, 0, 79, 0
2, 50709, Note_on_c, 0, 58, 0
2, 50716, Note_on_c, 0, 82, 0
2, 50716, Note_on_c, 0, 75, 0
2, 50747, Note_on_c, 0, 70, 60
2, 50747, Note_on_c, 0, 67, 60
2, 50749, Note_on_c, 0, 58, 60
2, 50772, Note_on_c, 0, 58, 0
2, 50808, Note_on_c, 0, 63, 60
2, 50808, Note_on_c, 0, 55, 60
2, 50810, Note_on_c, 0, 58, 60
2, 50849, Note_on_c, 0, 63, 0
2, 50864, Note_on_c, 0, 68, 60
2, 50866, Note_on_c, 0, 65, 60
2, 50866, Note_on_c, 0, 56, 60
2, 50877, Note_on_c, 0, 67, 0
2, 50880, Note_on_c, 0, 58, 0
2, 50881, Note_on_c, 0, 39, 0
2, 50881, Note_on_c, 0, 51, 0
2, 50886, Note_on_c, 0, 70, 0
2, 50889, Note_on_c, 0, 55, 0
2, 50925, Note_on_c, 0, 67, 60
2, 50928, Note_on_c, 0, 63, 60
2, 50928, Note_on_c, 0, 55, 60
2, 50930, Note_on_c, 0, 46, 60
2, 50935, Note_on_c, 0, 34, 60
2, 50943, Note_on_c, 0, 56, 0
2, 50951, Note_on_c, 0, 68, 0
2, 50958, Note_on_c, 0, 65, 0
2, 50971, Note_on_c, 0, 63, 0
2, 50989, Note_on_c, 0, 66, 60
2, 50991, Note_on_c, 0, 54, 60
2, 51003, Note_on_c, 0, 55, 0
2, 51011, Note_on_c, 0, 67, 0
2, 51049, Note_on_c, 0, 67, 60
2, 51052, Note_on_c, 0, 54, 0
2, 51052, Note_on_c, 0, 55, 60
2, 51052, Note_on_c, 0, 58, 60
2, 51052, Note_on_c, 0, 63, 60
2, 51070, Note_on_c, 0, 66, 0
2, 51070, Note_on_c, 0, 67, 0
2, 51072, Note_on_c, 0, 58, 0
2, 51093, Note_on_c, 0, 63, 0
2, 51111, Note_on_c, 0, 70, 60
2, 51114, Note_on_c, 0, 67, 60
2, 51116, Note_on_c, 0, 58, 60
2, 51131, Note_on_c, 0, 67, 0
2, 51134, Note_on_c, 0, 55, 0
2, 51136, Note_on_c, 0, 46, 0
2, 51139, Note_on_c, 0, 34, 0
2, 51169, Note_on_c, 0, 75, 60
2, 51169, Note_on_c, 0, 67, 60
2, 51172, Note_on_c, 0, 63, 60
2, 51172, Note_on_c, 0, 51, 60
2, 51177, Note_on_c, 0, 39, 60
2, 51200, Note_on_c, 0, 70, 0
2, 51202, Note_on_c, 0, 58, 0
2, 51239, Note_on_c, 0, 75, 0
2, 51253, Note_on_c, 0, 63, 0
2, 51274, Control_c, 0, 64, 127
2, 51289, Note_on_c, 0, 82, 60
2, 51289, Note_on_c, 0, 79, 60
2, 51291, Note_on_c, 0, 75, 60
2, 51291, Note_on_c, 0, 70, 60
2, 51294, Note_on_c, 0, 63, 60
2, 51297, Note_on_c, 0, 58, 60
2, 51297, Note_on_c, 0, 55, 60
2, 51310, Note_on_c, 0, 75, 0
2, 51310, Note_on_c, 0, 79, 0
2, 51312, Note_on_c, 0, 67, 0
2, 51333, Note_on_c, 0, 63, 0
2, 51335, Note_on_c, 0, 58, 0
2, 51335, Note_on_c, 0, 55, 0
2, 51348, Note_on_c, 0, 79, 60
2, 51350, Note_on_c, 0, 75, 60
2, 51353, Note_on_c, 0, 67, 60
2, 51365, Note_on_c, 0, 51, 0
2, 51368, Note_on_c, 0, 39, 0
2, 51381, Note_on_c, 0, 70, 0
2, 51401, Note_on_c, 0, 82, 0
2, 51416, Note_on_c, 0, 51, 60
2, 51419, Note_on_c, 0, 39, 60
2, 51421, Note_on_c, 0, 79, 0
2, 51424, Note_on_c, 0, 75, 0
2, 51470, Note_on_c, 0, 79, 60
2, 51470, Note_on_c, 0, 75, 60
2, 51473, Note_on_c, 0, 72, 60
2, 51473, Note_on_c, 0, 84, 60
2, 51473, Control_c, 0, 64, 0
2, 51490, Note_on_c, 0, 79, 0
2, 51503, Note_on_c, 0, 67, 0
2, 51528, Note_on_c, 0, 79, 60
2, 51531, Note_on_c, 0, 73, 60
2, 51531, Note_on_c, 0, 82, 60
2, 51531, Note_on_c, 0, 70, 60
2, 51536, Note_on_c, 0, 51, 0
2, 51536, Note_on_c, 0, 52, 60
2, 51539, Note_on_c, 0, 39, 0
2, 51539, Note_on_c, 0, 40, 60
2, 51541, Note_on_c, 0, 72, 0
2, 51559, Note_on_c, 0, 84, 0
2, 51561, Note_on_c, 0, 75, 0
2, 51646, Note_on_c, 0, 40, 0
2, 51648, Note_on_c, 0, 74, 60
2, 51650, Note_on_c, 0, 80, 60
2, 51650, Note_on_c, 0, 68, 60
2, 51653, Note_on_c, 0, 53, 60
2, 51656, Note_on_c, 0, 79, 0
2, 51656, Note_on_c, 0, 41, 60
2, 51658, Note_on_c, 0, 73, 0
2, 51658, Note_on_c, 0, 70, 0
2, 51661, Note_on_c, 0, 52, 0
2, 51666, Note_on_c, 0, 80, 0
2, 51666, Note_on_c, 0, 82, 0
2, 51666, Note_on_c, 0, 74, 0
2, 51669, Note_on_c, 0, 68, 0
2, 51709, Note_on_c, 0, 74, 60
2, 51709, Note_on_c, 0, 80, 60
2, 51709, Note_on_c, 0, 68, 60
2, 51770, Note_on_c, 0, 62, 60
2, 51773, Note_on_c, 0, 58, 60
2, 51773, Note_on_c, 0, 56, 60
2, 51788, Note_on_c, 0, 74, 0
2, 51811, Note_on_c, 0, 56, 0
2, 51811, Note_on_c, 0, 62, 0
2, 51811, Note_on_c, 0, 58, 0
2, 51824, Note_on_c, 0, 74, 60
2, 51824, Note_on_c, 0, 79, 60
2, 51826, Note_on_c, 0, 67, 60
2, 51834, Note_on_c, 0, 80, 0
2, 51837, Note_on_c, 0, 68, 0
2, 51840, Note_on_c, 0, 41, 0
2, 51844, Note_on_c, 0, 74, 0
2, 51849, Note_on_c, 0, 53, 0
2, 51883, Note_on_c, 0, 77, 60
2, 51883, Note_on_c, 0, 74, 60
2, 51885, Note_on_c, 0, 65, 60
2, 51890, Note_on_c, 0, 46, 60
2, 51892, Note_on_c, 0, 34, 60
2, 51912, Note_on_c, 0, 79, 0
2, 51912, Note_on_c, 0, 67, 0
2, 51941, Note_on_c, 0, 76, 60
2, 51943, Note_on_c, 0, 64, 60
2, 51961, Note_on_c, 0, 77, 0
2, 51963, Note_on_c, 0, 65, 0
2, 52000, Note_on_c, 0, 77, 60
2, 52002, Note_on_c, 0, 65, 60
2, 52005, Note_on_c, 0, 58, 60
2, 52005, Note_on_c, 0, 62, 60
2, 52005, Note_on_c, 0, 56, 60
2, 52015, Note_on_c, 0, 64, 0
2, 52022, Note_on_c, 0, 76, 0
2, 52043, Note_on_c, 0, 62, 0
2, 52045, Note_on_c, 0, 58, 0
2, 52045, Note_on_c, 0, 56, 0
2, 52060, Note_on_c, 0, 78, 60
2, 52060, Note_on_c, 0, 66, 60
2, 52076, Note_on_c, 0, 46, 0
2, 52079, Note_on_c, 0, 34, 0
2, 52080, Note_on_c, 0, 77, 0
2, 52083, Note_on_c, 0, 65, 0
2, 52119, Note_on_c, 0, 79, 60
2, 52119, Note_on_c, 0, 75, 60
2, 52122, Note_on_c, 0, 67, 60
2, 52125, Note_on_c, 0, 51, 60
2, 52127, Note_on_c, 0, 39, 60
2, 52132, Note_on_c, 0, 74, 0
2, 52139, Note_on_c, 0, 78, 0
2, 52142, Note_on_c, 0, 66, 0
2, 52177, Note_on_c, 0, 80, 60
2, 52180, Note_on_c, 0, 68, 60
2, 52188, Note_on_c, 0, 79, 0
2, 52191, Note_on_c, 0, 67, 0
2, 52199, Note_on_c, 0, 75, 0
2, 52239, Note_on_c, 0, 82, 60
2, 52239, Note_on_c, 0, 70, 60
2, 52242, Note_on_c, 0, 63, 60
2, 52242, Note_on_c, 0, 55, 60
2, 52244, Note_on_c, 0, 58, 60
2, 52259, Note_on_c, 0, 80, 0
2, 52259, Note_on_c, 0, 68, 0
2, 52272, Note_on_c, 0, 51, 0
2, 52274, Note_on_c, 0, 39, 0
2, 52279, Note_on_c, 0, 63, 0
2, 52279, Note_on_c, 0, 55, 0
2, 52279, Note_on_c, 0, 58, 0
2, 52295, Note_on_c, 0, 84, 60
2, 52297, Note_on_c, 0, 72, 60
2, 52320, Note_on_c, 0, 70, 0
2, 52320, Note_on_c, 0, 82, 0
2, 52364, Note_on_c, 0, 55, 60
2, 52367, Note_on_c, 0, 43, 60
2, 52419, Note_on_c, 0, 86, 60
2, 52422, Note_on_c, 0, 74, 60
2, 52442, Note_on_c, 0, 72, 0
2, 52447, Note_on_c, 0, 43, 0
2, 52450, Note_on_c, 0, 84, 0
2, 52478, Note_on_c, 0, 87, 60
2, 52481, Note_on_c, 0, 75, 60
2, 52488, Note_on_c, 0, 54, 60
2, 52491, Note_on_c, 0, 42, 60
2, 52499, Note_on_c, 0, 55, 0
2, 52504, Note_on_c, 0, 86, 0
2, 52506, Note_on_c, 0, 74, 0
2, 52587, Note_on_c, 0, 42, 0
2, 52587, Note_on_c, 0, 54, 0
2, 52601, Note_on_c, 0, 86, 60
2, 52601, Note_on_c, 0, 74, 60
2, 52606, Note_on_c, 0, 53, 60
2, 52608, Note_on_c, 0, 41, 60
2, 52613, Note_on_c, 0, 87, 0
2, 52613, Note_on_c, 0, 75, 0
2, 52659, Note_on_c, 0, 87, 60
2, 52661, Note_on_c, 0, 75, 60
2, 52672, Note_on_c, 0, 74, 0
2, 52675, Note_on_c, 0, 53, 0
2, 52680, Note_on_c, 0, 86, 0
2, 52718, Note_on_c, 0, 88, 60
2, 52720, Note_on_c, 0, 76, 60
2, 52723, Note_on_c, 0, 58, 60
2, 52723, Note_on_c, 0, 62, 60
2, 52723, Note_on_c, 0, 53, 60
2, 52738, Note_on_c, 0, 87, 0
2, 52740, Note_on_c, 0, 75, 0
2, 52761, Note_on_c, 0, 62, 0
2, 52761, Note_on_c, 0, 58, 0
2, 52774, Note_on_c, 0, 89, 60
2, 52778, Note_on_c, 0, 77, 60
2, 52784, Note_on_c, 0, 41, 0
2, 52786, Note_on_c, 0, 88, 0
2, 52792, Note_on_c, 0, 53, 0
2, 52797, Note_on_c, 0, 76, 0
2, 52843, Note_on_c, 0, 53, 60
2, 52845, Note_on_c, 0, 41, 60
2, 52850, Note_on_c, 0, 77, 0
2, 52896, Note_on_c, 0, 77, 60
2, 52898, Note_on_c, 0, 65, 60
2, 52921, Note_on_c, 0, 53, 0
2, 52952, Note_on_c, 0, 89, 0
2, 52952, Note_on_c, 0, 84, 60
2, 52954, Note_on_c, 0, 75, 60
2, 52954, Note_on_c, 0, 72, 60
2, 52957, Note_on_c, 0, 57, 60
2, 52960, Note_on_c, 0, 53, 60
2, 52968, Note_on_c, 0, 65, 0
2, 53013, Note_on_c, 0, 77, 0
2, 53020, Note_on_c, 0, 41, 0
2, 53026, Note_on_c, 0, 57, 0
2, 53028, Note_on_c, 0, 53, 0
2, 53071, Note_on_c, 0, 75, 0
2, 53071, Note_on_c, 0, 74, 60
2, 53071, Note_on_c, 0, 82, 60
2, 53071, Note_on_c, 0, 70, 60
2, 53077, Note_on_c, 0, 58, 60
2, 53077, Note_on_c, 0, 46, 60
2, 53110, Note_on_c, 0, 72, 0
2, 53110, Note_on_c, 0, 84, 0
2, 53151, Control_c, 0, 64, 127
2, 53194, Note_on_c, 0, 53, 60
2, 53222, Note_on_c, 0, 46, 0
2, 53232, Note_on_c, 0, 58, 0
2, 53311, Note_on_c, 0, 50, 60
2, 53349, Note_on_c, 0, 53, 0
2, 53367, Note_on_c, 0, 70, 0
2, 53423, Note_on_c, 0, 70, 60
2, 53423, Note_on_c, 0, 68, 60
2, 53428, Note_on_c, 0, 58, 60
2, 53428, Note_on_c, 0, 46, 60
2, 53433, Control_c, 0, 64, 0
2, 53459, Note_on_c, 0, 50, 0
2, 53464, Note_on_c, 0, 74, 0
2, 53481, Note_on_c, 0, 82, 0
2, 53495, Note_on_c, 0, 70, 0
2, 53496, Note_on_c, 0, 58, 0
2, 53550, Note_on_c, 0, 51, 60
2, 53550, Note_on_c, 0, 39, 60
2, 53558, Note_on_c, 0, 68, 0
2, 53561, Note_on_c, 0, 46, 0
2, 53606, Note_on_c, 0, 70, 60
2, 53609, Note_on_c, 0, 67, 60
2, 53612, Note_on_c, 0, 58, 60
2, 53632, Note_on_c, 0, 58, 0
2, 53670, Note_on_c, 0, 58, 60
2, 53670, Note_on_c, 0, 63, 60
2, 53670, Note_on_c, 0, 55, 60
2, 53726, Note_on_c, 0, 68, 60
2, 53729, Note_on_c, 0, 65, 60
2, 53729, Note_on_c, 0, 56, 60
2, 53736, Note_on_c, 0, 67, 0
2, 53738, Note_on_c, 0, 55, 0
2, 53738, Note_on_c, 0, 63, 0
2, 53744, Note_on_c, 0, 39, 0
2, 53749, Note_on_c, 0, 58, 0
2, 53749, Note_on_c, 0, 70, 0
2, 53752, Note_on_c, 0, 51, 0
2, 53784, Note_on_c, 0, 67, 60
2, 53787, Note_on_c, 0, 63, 60
2, 53787, Note_on_c, 0, 55, 60
2, 53789, Note_on_c, 0, 46, 60
2, 53792, Note_on_c, 0, 34, 60
2, 53800, Note_on_c, 0, 68, 0
2, 53800, Note_on_c, 0, 65, 0
2, 53803, Note_on_c, 0, 56, 0
2, 53848, Note_on_c, 0, 66, 60
2, 53848, Note_on_c, 0, 54, 60
2, 53869, Note_on_c, 0, 67, 0
2, 53871, Note_on_c, 0, 63, 0
2, 53871, Note_on_c, 0, 55, 0
2, 53906, Note_on_c, 0, 67, 60
2, 53909, Note_on_c, 0, 63, 60
2, 53909, Note_on_c, 0, 58, 60
2, 53912, Note_on_c, 0, 55, 60
2, 53925, Note_on_c, 0, 54, 0
2, 53932, Note_on_c, 0, 67, 0
2, 53932, Note_on_c, 0, 66, 0
2, 53932, Note_on_c, 0, 58, 0
2, 53971, Note_on_c, 0, 70, 60
2, 53973, Note_on_c, 0, 67, 60
2, 53976, Note_on_c, 0, 58, 60
2, 53988, Note_on_c, 0, 34, 0
2, 53991, Note_on_c, 0, 67, 0
2, 53994, Note_on_c, 0, 63, 0
2, 53996, Note_on_c, 0, 46, 0
2, 54003, Note_on_c, 0, 55, 0
2, 54031, Note_on_c, 0, 75, 60
2, 54034, Note_on_c, 0, 67, 60
2, 54037, Note_on_c, 0, 51, 60
2, 54037, Note_on_c, 0, 63, 60
2, 54037, Note_on_c, 0, 39, 60
2, 54052, Control_c, 0, 64, 127
2, 54082, Note_on_c, 0, 70, 0
2, 54085, Note_on_c, 0, 58, 0
2, 54103, Note_on_c, 0, 75, 0
2, 54103, Note_on_c, 0, 63, 0
2, 54148, Note_on_c, 0, 75, 60
2, 54148, Note_on_c, 0, 79, 60
2, 54148, Note_on_c, 0, 82, 60
2, 54148, Note_on_c, 0, 70, 60
2, 54151, Note_on_c, 0, 63, 60
2, 54151, Note_on_c, 0, 55, 60
2, 54154, Note_on_c, 0, 58, 60
2, 54169, Note_on_c, 0, 79, 0
2, 54169, Note_on_c, 0, 67, 0
2, 54171, Note_on_c, 0, 75, 0
2, 54192, Note_on_c, 0, 63, 0
2, 54192, Note_on_c, 0, 55, 0
2, 54192, Note_on_c, 0, 58, 0
2, 54210, Note_on_c, 0, 79, 60
2, 54210, Note_on_c, 0, 75, 60
2, 54213, Note_on_c, 0, 67, 60
2, 54225, Note_on_c, 0, 39, 0
2, 54225, Note_on_c, 0, 51, 0
2, 54250, Note_on_c, 0, 70, 0
2, 54271, Note_on_c, 0, 82, 0
2, 54276, Note_on_c, 0, 46, 60
2, 54276, Note_on_c, 0, 34, 60
2, 54281, Note_on_c, 0, 79, 0
2, 54281, Note_on_c, 0, 75, 0
2, 54330, Note_on_c, 0, 84, 60
2, 54332, Note_on_c, 0, 72, 60
2, 54332, Note_on_c, 0, 75, 60
2, 54332, Note_on_c, 0, 79, 60
2, 54332, Control_c, 0, 64, 0
2, 54353, Note_on_c, 0, 79, 0
2, 54353, Note_on_c, 0, 75, 0
2, 54362, Note_on_c, 0, 67, 0
2, 54390, Note_on_c, 0, 82, 60
2, 54393, Note_on_c, 0, 70, 60
2, 54393, Note_on_c, 0, 75, 60
2, 54393, Note_on_c, 0, 79, 60
2, 54393, Note_on_c, 0, 63, 60
2, 54396, Note_on_c, 0, 58, 60
2, 54396, Note_on_c, 0, 55, 60
2, 54413, Note_on_c, 0, 72, 0
2, 54432, Note_on_c, 0, 84, 0
2, 54433, Note_on_c, 0, 58, 0
2, 54433, Note_on_c, 0, 63, 0
2, 54433, Note_on_c, 0, 55, 0
2, 54447, Note_on_c, 0, 34, 0
2, 54467, Note_on_c, 0, 46, 0
2, 54470, Note_on_c, 0, 79, 0
2, 54507, Note_on_c, 0, 71, 60
2, 54507, Note_on_c, 0, 79, 60
2, 54507, Note_on_c, 0, 67, 60
2, 54513, Note_on_c, 0, 50, 60
2, 54513, Note_on_c, 0, 38, 60
2, 54518, Note_on_c, 0, 70, 0
2, 54528, Note_on_c, 0, 79, 0
2, 54528, Note_on_c, 0, 71, 0
2, 54528, Note_on_c, 0, 67, 0
2, 54546, Note_on_c, 0, 82, 0
2, 54549, Note_on_c, 0, 75, 0
2, 54566, Note_on_c, 0, 79, 60
2, 54566, Note_on_c, 0, 71, 60
2, 54569, Note_on_c, 0, 67, 60
2, 54627, Note_on_c, 0, 65, 60
2, 54630, Note_on_c, 0, 59, 60
2, 54630, Note_on_c, 0, 55, 60
2, 54648, Note_on_c, 0, 67, 0
2, 54648, Note_on_c, 0, 71, 0
2, 54648, Note_on_c, 0, 79, 0
2, 54668, Note_on_c, 0, 65, 0
2, 54671, Note_on_c, 0, 59, 0
2, 54671, Note_on_c, 0, 55, 0
2, 54686, Note_on_c, 0, 79, 60
2, 54689, Note_on_c, 0, 71, 60
2, 54689, Note_on_c, 0, 67, 60
2, 54701, Note_on_c, 0, 50, 0
2, 54704, Note_on_c, 0, 38, 0
2, 54709, Note_on_c, 0, 71, 0
2, 54747, Note_on_c, 0, 80, 60
2, 54747, Note_on_c, 0, 71, 60
2, 54749, Note_on_c, 0, 68, 60
2, 54755, Note_on_c, 0, 43, 60
2, 54755, Note_on_c, 0, 31, 60
2, 54760, Note_on_c, 0, 67, 0
2, 54768, Note_on_c, 0, 79, 0
2, 54803, Note_on_c, 0, 79, 60
2, 54806, Note_on_c, 0, 67, 60
2, 54816, Note_on_c, 0, 68, 0
2, 54816, Note_on_c, 0, 80, 0
2, 54864, Note_on_c, 0, 65, 60
2, 54864, Note_on_c, 0, 74, 60
2, 54864, Note_on_c, 0, 62, 60
2, 54866, Note_on_c, 0, 59, 60
2, 54866, Note_on_c, 0, 55, 60
2, 54882, Note_on_c, 0, 67, 0
2, 54885, Note_on_c, 0, 65, 0
2, 54892, Note_on_c, 0, 79, 0
2, 54902, Note_on_c, 0, 59, 0
2, 54905, Note_on_c, 0, 55, 0
2, 54920, Note_on_c, 0, 77, 60
2, 54923, Note_on_c, 0, 65, 60
2, 54936, Note_on_c, 0, 43, 0
2, 54938, Note_on_c, 0, 31, 0
2, 54954, Note_on_c, 0, 62, 0
2, 54963, Note_on_c, 0, 74, 0
2, 54982, Note_on_c, 0, 75, 60
2, 54982, Control_c, 0, 64, 127
2, 54984, Note_on_c, 0, 72, 60
2, 54984, Note_on_c, 0, 63, 60
2, 54986, Note_on_c, 0, 48, 60
2, 54986, Note_on_c, 0, 36, 60
2, 54991, Note_on_c, 0, 71, 0
2, 54991, Note_on_c, 0, 77, 0
2, 54994, Note_on_c, 0, 65, 0
2, 55040, Note_on_c, 0, 77, 60
2, 55042, Note_on_c, 0, 65, 60
2, 55053, Note_on_c, 0, 72, 0
2, 55053, Note_on_c, 0, 63, 0
2, 55060, Note_on_c, 0, 75, 0
2, 55101, Note_on_c, 0, 79, 60
2, 55104, Note_on_c, 0, 67, 60
2, 55106, Note_on_c, 0, 60, 60
2, 55106, Note_on_c, 0, 63, 60
2, 55106, Note_on_c, 0, 55, 60
2, 55124, Note_on_c, 0, 65, 0
2, 55131, Note_on_c, 0, 77, 0
2, 55144, Note_on_c, 0, 63, 0
2, 55144, Note_on_c, 0, 55, 0
2, 55144, Note_on_c, 0, 60, 0
2, 55157, Note_on_c, 0, 36, 0
2, 55159, Note_on_c, 0, 84, 60
2, 55162, Note_on_c, 0, 72, 60
2, 55165, Note_on_c, 0, 48, 0
2, 55180, Note_on_c, 0, 79, 0
2, 55180, Note_on_c, 0, 67, 0
2, 55225, Note_on_c, 0, 48, 60
2, 55228, Note_on_c, 0, 36, 60
2, 55279, Note_on_c, 0, 79, 60
2, 55282, Note_on_c, 0, 67, 60
2, 55299, Note_on_c, 0, 84, 0
2, 55302, Note_on_c, 0, 72, 0
2, 55341, Note_on_c, 0, 84, 60
2, 55343, Note_on_c, 0, 72, 60
2, 55343, Note_on_c, 0, 63, 60
2, 55345, Note_on_c, 0, 60, 60
2, 55345, Note_on_c, 0, 55, 60
2, 55350, Control_c, 0, 64, 0
2, 55364, Note_on_c, 0, 67, 0
2, 55381, Note_on_c, 0, 79, 0
2, 55384, Note_on_c, 0, 60, 0
2, 55384, Note_on_c, 0, 55, 0
2, 55384, Note_on_c, 0, 63, 0
2, 55427, Note_on_c, 0, 48, 0
2, 55427, Note_on_c, 0, 36, 0
2, 55465, Note_on_c, 0, 53, 60
2, 55467, Note_on_c, 0, 41, 60
2, 55516, Note_on_c, 0, 72, 0
2, 55524, Note_on_c, 0, 84, 0
2, 55524, Note_on_c, 0, 80, 60
2, 55526, Note_on_c, 0, 68, 60
2, 55583, Note_on_c, 0, 79, 60
2, 55584, Note_on_c, 0, 67, 60
2, 55587, Note_on_c, 0, 60, 60
2, 55587, Note_on_c, 0, 65, 60
2, 55587, Note_on_c, 0, 56, 60
2, 55595, Note_on_c, 0, 80, 0
2, 55606, Note_on_c, 0, 68, 0
2, 55626, Note_on_c, 0, 60, 0
2, 55628, Note_on_c, 0, 56, 0
2, 55643, Note_on_c, 0, 77, 60
2, 55656, Note_on_c, 0, 53, 0
2, 55658, Note_on_c, 0, 41, 0
2, 55661, Note_on_c, 0, 79, 0
2, 55664, Note_on_c, 0, 67, 0
2, 55702, Note_on_c, 0, 80, 60
2, 55702, Note_on_c, 0, 68, 60
2, 55704, Note_on_c, 0, 60, 60
2, 55707, Note_on_c, 0, 48, 60
2, 55723, Note_on_c, 0, 65, 0
2, 55743, Note_on_c, 0, 77, 0
2, 55760, Note_on_c, 0, 87, 60
2, 55760, Note_on_c, 0, 75, 60
2, 55781, Note_on_c, 0, 80, 0
2, 55791, Note_on_c, 0, 68, 0
2, 55824, Note_on_c, 0, 59, 60
2, 55824, Note_on_c, 0, 47, 60
2, 55832, Note_on_c, 0, 60, 0
2, 55834, Note_on_c, 0, 48, 0
2, 55880, Note_on_c, 0, 80, 60
2, 55883, Note_on_c, 0, 68, 60
2, 55928, Note_on_c, 0, 87, 0
2, 55931, Note_on_c, 0, 75, 0
2, 55936, Note_on_c, 0, 79, 60
2, 55939, Note_on_c, 0, 67, 60
2, 55942, Note_on_c, 0, 58, 60
2, 55944, Note_on_c, 0, 46, 60
2, 55951, Note_on_c, 0, 47, 0
2, 55951, Note_on_c, 0, 59, 0
2, 55959, Note_on_c, 0, 80, 0
2, 55959, Note_on_c, 0, 68, 0
2, 55997, Note_on_c, 0, 75, 60
2, 55997, Note_on_c, 0, 63, 60
2, 56016, Note_on_c, 0, 79, 0
2, 56016, Note_on_c, 0, 67, 0
2, 56017, Note_on_c, 0, 58, 0
2, 56017, Note_on_c, 0, 63, 0
2, 56053, Note_on_c, 0, 79, 60
2, 56056, Note_on_c, 0, 67, 60
2, 56056, Note_on_c, 0, 63, 60
2, 56059, Note_on_c, 0, 58, 60
2, 56059, Note_on_c, 0, 55, 60
2, 56087, Note_on_c, 0, 75, 0
2, 56097, Note_on_c, 0, 63, 0
2, 56099, Note_on_c, 0, 58, 0
2, 56099, Note_on_c, 0, 55, 0
2, 56140, Note_on_c, 0, 46, 0
2, 56173, Note_on_c, 0, 78, 60
2, 56176, Note_on_c, 0, 72, 60
2, 56176, Note_on_c, 0, 75, 60
2, 56176, Note_on_c, 0, 66, 60
2, 56178, Note_on_c, 0, 57, 60
2, 56181, Note_on_c, 0, 45, 60
2, 56184, Note_on_c, 0, 79, 0
2, 56185, Note_on_c, 0, 67, 0
2, 56376, Note_on_c, 0, 75, 0
2, 56398, Note_on_c, 0, 46, 60
2, 56402, Note_on_c, 0, 79, 60
2, 56404, Note_on_c, 0, 70, 60
2, 56404, Note_on_c, 0, 75, 60
2, 56404, Note_on_c, 0, 67, 60
2, 56407, Note_on_c, 0, 45, 0
2, 56407, Note_on_c, 0, 57, 0
2, 56407, Note_on_c, 0, 58, 60
2, 56412, Note_on_c, 0, 78, 0
2, 56415, Note_on_c, 0, 66, 0
2, 56415, Note_on_c, 0, 72, 0
2, 56423, Note_on_c, 0, 70, 0
2, 56425, Note_on_c, 0, 58, 0
2, 56463, Note_on_c, 0, 70, 60
2, 56466, Note_on_c, 0, 58, 60
2, 56484, Note_on_c, 0, 79, 0
2, 56486, Note_on_c, 0, 67, 0
2, 56486, Note_on_c, 0, 58, 0
2, 56496, Note_on_c, 0, 75, 0
2, 56521, Note_on_c, 0, 79, 60
2, 56524, Note_on_c, 0, 67, 60
2, 56524, Note_on_c, 0, 63, 60
2, 56529, Note_on_c, 0, 58, 60
2, 56529, Note_on_c, 0, 55, 60
2, 56555, Note_on_c, 0, 70, 0
2, 56568, Note_on_c, 0, 58, 0
2, 56568, Note_on_c, 0, 63, 0
2, 56568, Note_on_c, 0, 55, 0
2, 56588, Note_on_c, 0, 77, 60
2, 56588, Note_on_c, 0, 65, 60
2, 56601, Note_on_c, 0, 46, 0
2, 56616, Note_on_c, 0, 67, 0
2, 56616, Note_on_c, 0, 79, 0
2, 56649, Note_on_c, 0, 69, 60
2, 56649, Note_on_c, 0, 75, 60
2, 56649, Note_on_c, 0, 63, 60
2, 56652, Note_on_c, 0, 60, 60
2, 56652, Note_on_c, 0, 48, 60
2, 56669, Note_on_c, 0, 69, 0
2, 56690, Note_on_c, 0, 65, 0
2, 56690, Note_on_c, 0, 77, 0
2, 56708, Note_on_c, 0, 69, 60
2, 56766, Note_on_c, 0, 77, 60
2, 56766, Note_on_c, 0, 74, 60
2, 56769, Note_on_c, 0, 68, 60
2, 56769, Note_on_c, 0, 65, 60
2, 56771, Note_on_c, 0, 58, 60
2, 56771, Note_on_c, 0, 46, 60
2, 56779, Note_on_c, 0, 69, 0
2, 56779, Note_on_c, 0, 75, 0
2, 56792, Note_on_c, 0, 48, 0
2, 56792, Note_on_c, 0, 63, 0
2, 56792, Note_on_c, 0, 60, 0
2, 56888, Note_on_c, 0, 75, 60
2, 56891, Note_on_c, 0, 67, 60
2, 56891, Note_on_c, 0, 63, 60
2, 56894, Note_on_c, 0, 51, 60
2, 56902, Note_on_c, 0, 68, 0
2, 56902, Note_on_c, 0, 74, 0
2, 56911, Note_on_c, 0, 65, 0
2, 56911, Note_on_c, 0, 77, 0
2, 56914, Note_on_c, 0, 46, 0
2, 56914, Note_on_c, 0, 58, 0
2, 57011, Note_on_c, 0, 82, 60
2, 57013, Note_on_c, 0, 70, 60
2, 57026, Note_on_c, 0, 51, 0
2, 57031, Note_on_c, 0, 82, 0
2, 57034, Note_on_c, 0, 70, 0
2, 57044, Note_on_c, 0, 63, 0
2, 57044, Note_on_c, 0, 67, 0
2, 57044, Note_on_c, 0, 75, 0
2, 57072, Note_on_c, 0, 82, 60
2, 57074, Note_on_c, 0, 70, 60
2, 57093, Note_on_c, 0, 82, 0
2, 57095, Note_on_c, 0, 70, 0
2, 57133, Note_on_c, 0, 82, 60
2, 57133, Note_on_c, 0, 70, 60
2, 57136, Note_on_c, 0, 62, 60
2, 57138, Note_on_c, 0, 53, 60
2, 57138, Note_on_c, 0, 56, 60
2, 57138, Note_on_c, 0, 58, 60
2, 57138, Note_on_c, 0, 41, 60
2, 57181, Control_c, 0, 64, 127
2, 57202, Note_on_c, 0, 70, 0
2, 57202, Note_on_c, 0, 82, 0
2, 57247, Note_on_c, 0, 82, 60
2, 57250, Note_on_c, 0, 70, 60
2, 57253, Note_on_c, 0, 46, 60
2, 57253, Note_on_c, 0, 34, 60
2, 57273, Note_on_c, 0, 53, 0
2, 57273, Note_on_c, 0, 41, 0
2, 57329, Note_on_c, 0, 82, 0
2, 57329, Note_on_c, 0, 70, 0
2, 57332, Note_on_c, 0, 58, 0
2, 57367, Note_on_c, 0, 82, 60
2, 57370, Note_on_c, 0, 70, 60
2, 57372, Note_on_c, 0, 58, 60
2, 57372, Note_on_c, 0, 51, 60
2, 57375, Note_on_c, 0, 39, 60
2, 57378, Control_c, 0, 64, 0
2, 57385, Note_on_c, 0, 34, 0
2, 57387, Note_on_c, 0, 82, 0
2, 57390, Note_on_c, 0, 58, 0
2, 57390, Note_on_c, 0, 70, 0
2, 57390, Note_on_c, 0, 62, 0
2, 57393, Note_on_c, 0, 56, 0
2, 57393, Note_on_c, 0, 46, 0
2, 57429, Note_on_c, 0, 70, 60
2, 57429, Note_on_c, 0, 67, 60
2, 57431, Note_on_c, 0, 82, 60
2, 57431, Note_on_c, 0, 58, 60
2, 57452, Note_on_c, 0, 58, 0
2, 57489, Note_on_c, 0, 58, 60
2, 57489, Note_on_c, 0, 63, 60
2, 57489, Note_on_c, 0, 55, 60
2, 57528, Note_on_c, 0, 58, 0
2, 57546, Note_on_c, 0, 63, 0
2, 57546, Note_on_c, 0, 65, 60
2, 57546, Note_on_c, 0, 68, 60
2, 57546, Note_on_c, 0, 80, 60
2, 57546, Note_on_c, 0, 56, 60
2, 57555, Note_on_c, 0, 55, 0
2, 57555, Note_on_c, 0, 67, 0
2, 57558, Note_on_c, 0, 39, 0
2, 57558, Note_on_c, 0, 51, 0
2, 57566, Note_on_c, 0, 70, 0
2, 57584, Note_on_c, 0, 82, 0
2, 57601, Note_on_c, 0, 79, 60
2, 57606, Note_on_c, 0, 55, 60
2, 57606, Note_on_c, 0, 63, 60
2, 57606, Note_on_c, 0, 67, 60
2, 57606, Note_on_c, 0, 46, 60
2, 57609, Note_on_c, 0, 34, 60
2, 57614, Note_on_c, 0, 68, 0
2, 57614, Note_on_c, 0, 80, 0
2, 57617, Note_on_c, 0, 56, 0
2, 57624, Note_on_c, 0, 65, 0
2, 57624, Note_on_c, 0, 63, 0
2, 57663, Note_on_c, 0, 78, 60
2, 57663, Note_on_c, 0, 66, 60
2, 57665, Note_on_c, 0, 54, 60
2, 57672, Note_on_c, 0, 67, 0
2, 57672, Note_on_c, 0, 79, 0
2, 57675, Note_on_c, 0, 55, 0
2, 57721, Note_on_c, 0, 79, 60
2, 57723, Note_on_c, 0, 67, 60
2, 57723, Note_on_c, 0, 63, 60
2, 57726, Note_on_c, 0, 58, 60
2, 57726, Note_on_c, 0, 55, 60
2, 57734, Note_on_c, 0, 78, 0
2, 57737, Note_on_c, 0, 54, 0
2, 57742, Note_on_c, 0, 67, 0
2, 57744, Note_on_c, 0, 58, 0
2, 57744, Note_on_c, 0, 66, 0
2, 57768, Note_on_c, 0, 63, 0
2, 57782, Note_on_c, 0, 82, 60
2, 57782, Note_on_c, 0, 67, 60
2, 57785, Note_on_c, 0, 70, 60
2, 57788, Note_on_c, 0, 58, 60
2, 57795, Note_on_c, 0, 55, 0
2, 57797, Note_on_c, 0, 34, 0
2, 57797, Note_on_c, 0, 46, 0
2, 57803, Note_on_c, 0, 67, 0
2, 57813, Note_on_c, 0, 79, 0
2, 57840, Note_on_c, 0, 75, 60
2, 57840, Note_on_c, 0, 87, 60
2, 57840, Note_on_c, 0, 67, 60
2, 57843, Note_on_c, 0, 63, 60
2, 57843, Note_on_c, 0, 51, 60
2, 57846, Note_on_c, 0, 39, 60
2, 57851, Note_on_c, 0, 70, 0
2, 57854, Note_on_c, 0, 58, 0
2, 57869, Note_on_c, 0, 82, 0
2, 57877, Control_c, 0, 64, 127
2, 57902, Note_on_c, 0, 75, 0
2, 57912, Note_on_c, 0, 63, 0
2, 57956, Note_on_c, 0, 94, 60
2, 57959, Note_on_c, 0, 82, 60
2, 57960, Note_on_c, 0, 75, 60
2, 57960, Note_on_c, 0, 79, 60
2, 57960, Note_on_c, 0, 70, 60
2, 57963, Note_on_c, 0, 58, 60
2, 57963, Note_on_c, 0, 63, 60
2, 57963, Note_on_c, 0, 55, 60
2, 57971, Note_on_c, 0, 67, 0
2, 57979, Note_on_c, 0, 79, 0
2, 57984, Note_on_c, 0, 75, 0
2, 57991, Note_on_c, 0, 87, 0
2, 58004, Note_on_c, 0, 63, 0
2, 58004, Note_on_c, 0, 58, 0
2, 58004, Note_on_c, 0, 55, 0
2, 58017, Note_on_c, 0, 91, 60
2, 58019, Note_on_c, 0, 79, 60
2, 58019, Note_on_c, 0, 75, 60
2, 58022, Note_on_c, 0, 67, 60
2, 58037, Control_c, 0, 64, 0
2, 58042, Note_on_c, 0, 51, 0
2, 58045, Note_on_c, 0, 39, 0
2, 58050, Note_on_c, 0, 70, 0
2, 58076, Note_on_c, 0, 94, 0
2, 58078, Note_on_c, 0, 82, 0
2, 58085, Note_on_c, 0, 46, 60
2, 58088, Note_on_c, 0, 34, 60
2, 58101, Note_on_c, 0, 75, 0
2, 58101, Note_on_c, 0, 79, 0
2, 58136, Note_on_c, 0, 96, 60
2, 58139, Note_on_c, 0, 75, 60
2, 58139, Note_on_c, 0, 79, 60
2, 58139, Note_on_c, 0, 84, 60
2, 58139, Note_on_c, 0, 72, 60
2, 58159, Note_on_c, 0, 79, 0
2, 58159, Note_on_c, 0, 75, 0
2, 58159, Note_on_c, 0, 67, 0
2, 58195, Note_on_c, 0, 94, 60
2, 58198, Note_on_c, 0, 79, 60
2, 58198, Note_on_c, 0, 82, 60
2, 58198, Note_on_c, 0, 75, 60
2, 58200, Note_on_c, 0, 70, 60
2, 58200, Note_on_c, 0, 55, 60
2, 58202, Note_on_c, 0, 63, 60
2, 58202, Note_on_c, 0, 58, 60
2, 58207, Note_on_c, 0, 91, 0
2, 58218, Note_on_c, 0, 72, 0
2, 58236, Note_on_c, 0, 84, 0
2, 58238, Note_on_c, 0, 55, 0
2, 58238, Note_on_c, 0, 63, 0
2, 58238, Note_on_c, 0, 58, 0
2, 58244, Note_on_c, 0, 96, 0
2, 58261, Note_on_c, 0, 46, 0
2, 58264, Note_on_c, 0, 34, 0
2, 58269, Note_on_c, 0, 82, 0
2, 58269, Note_on_c, 0, 70, 0
2, 58315, Note_on_c, 0, 82, 60
2, 58315, Note_on_c, 0, 67, 60
2, 58318, Note_on_c, 0, 70, 60
2, 58320, Note_on_c, 0, 58, 60
2, 58320, Note_on_c, 0, 51, 60
2, 58322, Note_on_c, 0, 39, 60
2, 58340, Note_on_c, 0, 70, 0
2, 58340, Note_on_c, 0, 82, 0
2, 58340, Note_on_c, 0, 75, 0
2, 58340, Note_on_c, 0, 67, 0
2, 58343, Note_on_c, 0, 58, 0
2, 58350, Note_on_c, 0, 79, 0
2, 58378, Note_on_c, 0, 94, 0
2, 58378, Note_on_c, 0, 82, 60
2, 58381, Note_on_c, 0, 70, 60
2, 58381, Note_on_c, 0, 67, 60
2, 58383, Note_on_c, 0, 58, 60
2, 58404, Note_on_c, 0, 58, 0
2, 58441, Note_on_c, 0, 63, 60
2, 58444, Note_on_c, 0, 55, 60
2, 58447, Note_on_c, 0, 58, 60
2, 58472, Note_on_c, 0, 70, 0
2, 58472, Note_on_c, 0, 67, 0
2, 58483, Note_on_c, 0, 63, 0
2, 58486, Note_on_c, 0, 58, 0
2, 58486, Note_on_c, 0, 51, 0
2, 58486, Note_on_c, 0, 55, 0
2, 58495, Note_on_c, 0, 39, 0
2, 58500, Note_on_c, 0, 80, 60
2, 58500, Note_on_c, 0, 68, 60
2, 58503, Note_on_c, 0, 65, 60
2, 58503, Note_on_c, 0, 56, 60
2, 58560, Note_on_c, 0, 79, 60
2, 58561, Note_on_c, 0, 63, 60
2, 58561, Note_on_c, 0, 67, 60
2, 58561, Note_on_c, 0, 55, 60
2, 58564, Note_on_c, 0, 46, 60
2, 58564, Note_on_c, 0, 34, 60
2, 58569, Note_on_c, 0, 82, 0
2, 58572, Note_on_c, 0, 56, 0
2, 58572, Note_on_c, 0, 68, 0
2, 58580, Note_on_c, 0, 80, 0
2, 58592, Note_on_c, 0, 65, 0
2, 58620, Note_on_c, 0, 78, 60
2, 58620, Note_on_c, 0, 66, 60
2, 58623, Note_on_c, 0, 54, 60
2, 58631, Note_on_c, 0, 67, 0
2, 58632, Note_on_c, 0, 55, 0
2, 58632, Note_on_c, 0, 63, 0
2, 58640, Note_on_c, 0, 79, 0
2, 58677, Note_on_c, 0, 79, 60
2, 58679, Note_on_c, 0, 67, 60
2, 58681, Note_on_c, 0, 58, 60
2, 58681, Note_on_c, 0, 63, 60
2, 58681, Note_on_c, 0, 55, 60
2, 58691, Note_on_c, 0, 66, 0
2, 58691, Note_on_c, 0, 54, 0
2, 58699, Note_on_c, 0, 67, 0
2, 58699, Note_on_c, 0, 78, 0
2, 58702, Note_on_c, 0, 58, 0
2, 58737, Note_on_c, 0, 82, 60
2, 58740, Note_on_c, 0, 70, 60
2, 58742, Note_on_c, 0, 63, 0
2, 58742, Note_on_c, 0, 58, 60
2, 58752, Note_on_c, 0, 55, 0
2, 58752, Note_on_c, 0, 46, 0
2, 58755, Note_on_c, 0, 34, 0
2, 58768, Note_on_c, 0, 79, 0
2, 58794, Note_on_c, 0, 39, 60
2, 58799, Note_on_c, 0, 75, 60
2, 58799, Note_on_c, 0, 87, 60
2, 58799, Note_on_c, 0, 67, 60
2, 58800, Note_on_c, 0, 63, 60
2, 58800, Note_on_c, 0, 51, 60
2, 58829, Note_on_c, 0, 70, 0
2, 58831, Note_on_c, 0, 58, 0
2, 58837, Note_on_c, 0, 82, 0
2, 58877, Note_on_c, 0, 75, 0
2, 58888, Note_on_c, 0, 63, 0
2, 58908, Note_on_c, 0, 94, 60
2, 58913, Note_on_c, 0, 75, 60
2, 58913, Note_on_c, 0, 79, 60
2, 58913, Note_on_c, 0, 82, 60
2, 58913, Note_on_c, 0, 70, 60
2, 58916, Note_on_c, 0, 58, 60
2, 58916, Note_on_c, 0, 63, 60
2, 58916, Note_on_c, 0, 55, 60
2, 58923, Note_on_c, 0, 67, 0
2, 58931, Note_on_c, 0, 79, 0
2, 58931, Note_on_c, 0, 75, 0
2, 58941, Note_on_c, 0, 87, 0
2, 58951, Note_on_c, 0, 63, 0
2, 58951, Note_on_c, 0, 58, 0
2, 58951, Note_on_c, 0, 55, 0
2, 58967, Note_on_c, 0, 91, 60
2, 58969, Note_on_c, 0, 79, 60
2, 58969, Note_on_c, 0, 75, 60
2, 58971, Note_on_c, 0, 67, 60
2, 58984, Note_on_c, 0, 51, 0
2, 58984, Note_on_c, 0, 39, 0
2, 58990, Note_on_c, 0, 70, 0
2, 59007, Note_on_c, 0, 82, 0
2, 59025, Note_on_c, 0, 94, 0
2, 59030, Note_on_c, 0, 51, 60
2, 59033, Note_on_c, 0, 39, 60
2, 59038, Note_on_c, 0, 79, 0
2, 59048, Note_on_c, 0, 75, 0
2, 59081, Note_on_c, 0, 96, 60
2, 59087, Note_on_c, 0, 75, 60
2, 59087, Note_on_c, 0, 79, 60
2, 59087, Note_on_c, 0, 84, 60
2, 59087, Note_on_c, 0, 72, 60
2, 59107, Note_on_c, 0, 79, 0
2, 59107, Note_on_c, 0, 67, 0
2, 59122, Note_on_c, 0, 91, 0
2, 59127, Note_on_c, 0, 51, 0
2, 59130, Note_on_c, 0, 39, 0
2, 59142, Note_on_c, 0, 94, 60
2, 59142, Note_on_c, 0, 79, 60
2, 59145, Note_on_c, 0, 73, 60
2, 59145, Note_on_c, 0, 82, 60
2, 59145, Note_on_c, 0, 70, 60
2, 59147, Note_on_c, 0, 52, 60
2, 59150, Note_on_c, 0, 40, 60
2, 59155, Note_on_c, 0, 72, 0
2, 59170, Note_on_c, 0, 96, 0
2, 59173, Note_on_c, 0, 84, 0
2, 59173, Note_on_c, 0, 75, 0
2, 59226, Note_on_c, 0, 40, 0
2, 59259, Note_on_c, 0, 80, 60
2, 59259, Note_on_c, 0, 92, 60
2, 59259, Note_on_c, 0, 74, 60
2, 59262, Note_on_c, 0, 68, 60
2, 59264, Note_on_c, 0, 53, 60
2, 59264, Note_on_c, 0, 41, 60
2, 59270, Note_on_c, 0, 82, 0
2, 59270, Note_on_c, 0, 79, 0
2, 59272, Note_on_c, 0, 73, 0
2, 59272, Note_on_c, 0, 70, 0
2, 59275, Note_on_c, 0, 52, 0
2, 59278, Note_on_c, 0, 92, 0
2, 59278, Note_on_c, 0, 94, 0
2, 59280, Note_on_c, 0, 80, 0
2, 59280, Note_on_c, 0, 74, 0
2, 59280, Note_on_c, 0, 68, 0
2, 59318, Note_on_c, 0, 92, 60
2, 59321, Note_on_c, 0, 74, 60
2, 59321, Note_on_c, 0, 80, 60
2, 59321, Note_on_c, 0, 68, 60
2, 59381, Note_on_c, 0, 58, 60
2, 59381, Note_on_c, 0, 62, 60
2, 59381, Note_on_c, 0, 56, 60
2, 59400, Note_on_c, 0, 74, 0
2, 59415, Note_on_c, 0, 56, 0
2, 59415, Note_on_c, 0, 58, 0
2, 59423, Note_on_c, 0, 62, 0
2, 59438, Note_on_c, 0, 91, 60
2, 59438, Note_on_c, 0, 79, 60
2, 59443, Note_on_c, 0, 67, 60
2, 59450, Note_on_c, 0, 92, 0
2, 59453, Note_on_c, 0, 80, 0
2, 59453, Note_on_c, 0, 68, 0
2, 59455, Note_on_c, 0, 53, 0
2, 59455, Note_on_c, 0, 41, 0
2, 59494, Note_on_c, 0, 74, 60
2, 59496, Note_on_c, 0, 65, 60
2, 59498, Note_on_c, 0, 46, 60
2, 59498, Note_on_c, 0, 34, 60
2, 59504, Note_on_c, 0, 89, 60
2, 59504, Note_on_c, 0, 77, 60
2, 59526, Note_on_c, 0, 67, 0
2, 59544, Note_on_c, 0, 91, 0
2, 59544, Note_on_c, 0, 79, 0
2, 59565, Note_on_c, 0, 88, 60
2, 59568, Note_on_c, 0, 76, 60
2, 59568, Note_on_c, 0, 64, 60
2, 59585, Note_on_c, 0, 89, 0
2, 59588, Note_on_c, 0, 77, 0
2, 59588, Note_on_c, 0, 65, 0
2, 59598, Note_on_c, 0, 64, 0
2, 59623, Note_on_c, 0, 89, 60
2, 59626, Note_on_c, 0, 77, 60
2, 59629, Note_on_c, 0, 62, 60
2, 59629, Note_on_c, 0, 65, 60
2, 59629, Note_on_c, 0, 56, 60
2, 59631, Note_on_c, 0, 58, 60
2, 59643, Note_on_c, 0, 88, 0
2, 59646, Note_on_c, 0, 76, 0
2, 59666, Note_on_c, 0, 62, 0
2, 59669, Note_on_c, 0, 56, 0
2, 59669, Note_on_c, 0, 58, 0
2, 59680, Note_on_c, 0, 34, 0
2, 59682, Note_on_c, 0, 90, 60
2, 59685, Note_on_c, 0, 78, 60
2, 59685, Note_on_c, 0, 66, 60
2, 59697, Note_on_c, 0, 46, 0
2, 59702, Note_on_c, 0, 89, 0
2, 59708, Note_on_c, 0, 77, 0
2, 59708, Note_on_c, 0, 65, 0
2, 59740, Note_on_c, 0, 91, 60
2, 59743, Note_on_c, 0, 79, 60
2, 59746, Note_on_c, 0, 75, 60
2, 59746, Note_on_c, 0, 67, 60
2, 59748, Note_on_c, 0, 51, 60
2, 59748, Note_on_c, 0, 39, 60
2, 59756, Note_on_c, 0, 66, 0
2, 59756, Note_on_c, 0, 74, 0
2, 59766, Note_on_c, 0, 78, 0
2, 59766, Note_on_c, 0, 90, 0
2, 59805, Note_on_c, 0, 80, 60
2, 59805, Note_on_c, 0, 92, 60
2, 59805, Note_on_c, 0, 68, 60
2, 59814, Note_on_c, 0, 67, 0
2, 59814, Note_on_c, 0, 79, 0
2, 59827, Note_on_c, 0, 75, 0
2, 59827, Note_on_c, 0, 91, 0
2, 59863, Note_on_c, 0, 94, 60
2, 59865, Note_on_c, 0, 75, 60
2, 59865, Note_on_c, 0, 82, 60
2, 59865, Note_on_c, 0, 70, 60
2, 59868, Note_on_c, 0, 58, 60
2, 59868, Note_on_c, 0, 63, 60
2, 59868, Note_on_c, 0, 55, 60
2, 59885, Note_on_c, 0, 80, 0
2, 59888, Note_on_c, 0, 68, 0
2, 59911, Note_on_c, 0, 63, 0
2, 59911, Note_on_c, 0, 58, 0
2, 59911, Note_on_c, 0, 55, 0
2, 59924, Note_on_c, 0, 96, 60
2, 59927, Note_on_c, 0, 92, 0
2, 59927, Note_on_c, 0, 84, 60
2, 59927, Note_on_c, 0, 72, 60
2, 59939, Note_on_c, 0, 51, 0
2, 59942, Note_on_c, 0, 39, 0
2, 59947, Note_on_c, 0, 70, 0
2, 59967, Note_on_c, 0, 82, 0
2, 59977, Note_on_c, 0, 55, 60
2, 59985, Note_on_c, 0, 94, 0
2, 59993, Note_on_c, 0, 43, 60
2, 60033, Note_on_c, 0, 86, 60
2, 60036, Note_on_c, 0, 74, 60
2, 60041, Note_on_c, 0, 98, 60
2, 60044, Note_on_c, 0, 79, 60
2, 60056, Note_on_c, 0, 75, 0
2, 60084, Note_on_c, 0, 84, 0
2, 60084, Note_on_c, 0, 96, 0
2, 60087, Note_on_c, 0, 72, 0
2, 60090, Note_on_c, 0, 43, 0
2, 60097, Note_on_c, 0, 55, 0
2, 60102, Note_on_c, 0, 99, 60
2, 60102, Note_on_c, 0, 87, 60
2, 60105, Note_on_c, 0, 78, 60
2, 60105, Note_on_c, 0, 75, 60
2, 60107, Note_on_c, 0, 54, 60
2, 60110, Note_on_c, 0, 42, 60
2, 60113, Note_on_c, 0, 98, 0
2, 60115, Note_on_c, 0, 79, 0
2, 60115, Note_on_c, 0, 74, 0
2, 60115, Note_on_c, 0, 86, 0
2, 60189, Note_on_c, 0, 54, 0
2, 60189, Note_on_c, 0, 42, 0
2, 60222, Note_on_c, 0, 98, 60
2, 60224, Note_on_c, 0, 82, 60
2, 60224, Note_on_c, 0, 86, 60
2, 60224, Note_on_c, 0, 74, 60
2, 60230, Note_on_c, 0, 53, 60
2, 60230, Note_on_c, 0, 41, 60
2, 60238, Note_on_c, 0, 75, 0
2, 60238, Note_on_c, 0, 87, 0
2, 60244, Note_on_c, 0, 99, 0
2, 60255, Note_on_c, 0, 78, 0
2, 60281, Note_on_c, 0, 99, 60
2, 60283, Note_on_c, 0, 87, 60
2, 60286, Note_on_c, 0, 75, 60
2, 60293, Note_on_c, 0, 98, 0
2, 60296, Note_on_c, 0, 86, 0
2, 60298, Note_on_c, 0, 53, 0
2, 60298, Note_on_c, 0, 74, 0
2, 60306, Note_on_c, 0, 82, 0
2, 60344, Note_on_c, 0, 100, 60
2, 60347, Note_on_c, 0, 88, 60
2, 60349, Note_on_c, 0, 76, 60
2, 60349, Note_on_c, 0, 82, 60
2, 60349, Note_on_c, 0, 62, 60
2, 60352, Note_on_c, 0, 58, 60
2, 60352, Note_on_c, 0, 53, 60
2, 60367, Note_on_c, 0, 99, 0
2, 60367, Note_on_c, 0, 87, 0
2, 60369, Note_on_c, 0, 75, 0
2, 60387, Note_on_c, 0, 62, 0
2, 60390, Note_on_c, 0, 58, 0
2, 60403, Note_on_c, 0, 101, 60
2, 60406, Note_on_c, 0, 89, 60
2, 60406, Note_on_c, 0, 77, 60
2, 60410, Note_on_c, 0, 41, 0
2, 60413, Note_on_c, 0, 100, 0
2, 60415, Note_on_c, 0, 76, 0
2, 60415, Note_on_c, 0, 88, 0
2, 60418, Note_on_c, 0, 53, 0
2, 60464, Note_on_c, 0, 81, 60
2, 60466, Note_on_c, 0, 41, 60
2, 60469, Note_on_c, 0, 53, 60
2, 60494, Note_on_c, 0, 82, 0
2, 60494, Note_on_c, 0, 89, 0
2, 60497, Note_on_c, 0, 77, 0
2, 60523, Note_on_c, 0, 89, 60
2, 60525, Note_on_c, 0, 65, 60
2, 60535, Note_on_c, 0, 77, 60
2, 60538, Note_on_c, 0, 53, 0
2, 60545, Note_on_c, 0, 81, 0
2, 60581, Note_on_c, 0, 96, 60
2, 60583, Note_on_c, 0, 75, 60
2, 60583, Note_on_c, 0, 81, 60
2, 60583, Note_on_c, 0, 84, 60
2, 60583, Note_on_c, 0, 72, 60
2, 60586, Note_on_c, 0, 57, 60
2, 60586, Note_on_c, 0, 63, 60
2, 60586, Note_on_c, 0, 53, 60
2, 60591, Note_on_c, 0, 101, 0
2, 60622, Note_on_c, 0, 89, 0
2, 60624, Note_on_c, 0, 57, 0
2, 60624, Note_on_c, 0, 63, 0
2, 60624, Note_on_c, 0, 65, 0
2, 60632, Note_on_c, 0, 77, 0
2, 60657, Note_on_c, 0, 41, 0
2, 60668, Note_on_c, 0, 53, 0
2, 60693, Note_on_c, 0, 74, 60
2, 60693, Note_on_c, 0, 82, 60
2, 60693, Note_on_c, 0, 70, 60
2, 60696, Note_on_c, 0, 58, 60
2, 60698, Note_on_c, 0, 94, 60
2, 60698, Note_on_c, 0, 46, 60
2, 60703, Note_on_c, 0, 81, 0
2, 60703, Note_on_c, 0, 75, 0
2, 60714, Note_on_c, 0, 72, 0
2, 60728, Note_on_c, 0, 96, 0
2, 60731, Note_on_c, 0, 84, 0
2, 60749, Control_c, 0, 64, 127
2, 60813, Note_on_c, 0, 53, 60
2, 60816, Note_on_c, 0, 41, 60
2, 60851, Note_on_c, 0, 58, 0
2, 60851, Note_on_c, 0, 46, 0
2, 60942, Note_on_c, 0, 50, 60
2, 60945, Note_on_c, 0, 38, 60
2, 60965, Note_on_c, 0, 41, 0
2, 60973, Note_on_c, 0, 53, 0
2, 60978, Control_c, 0, 64, 0
2, 61014, Note_on_c, 0, 70, 0
2, 61021, Note_on_c, 0, 82, 0
2, 61059, Note_on_c, 0, 82, 60
2, 61062, Note_on_c, 0, 70, 60
2, 61062, Note_on_c, 0, 68, 60
2, 61065, Note_on_c, 0, 46, 60
2, 61065, Note_on_c, 0, 58, 60
2, 61065, Note_on_c, 0, 34, 60
2, 61082, Note_on_c, 0, 50, 0
2, 61087, Note_on_c, 0, 38, 0
2, 61093, Note_on_c, 0, 74, 0
2, 61110, Note_on_c, 0, 94, 0
2, 61121, Note_on_c, 0, 82, 0
2, 61124, Note_on_c, 0, 70, 0
2, 61144, Note_on_c, 0, 58, 0
2, 61182, Note_on_c, 0, 82, 60
2, 61182, Note_on_c, 0, 67, 60
2, 61184, Note_on_c, 0, 70, 60
2, 61187, Note_on_c, 0, 51, 60
2, 61187, Note_on_c, 0, 39, 60
2, 61195, Note_on_c, 0, 68, 0
2, 61198, Note_on_c, 0, 34, 0
2, 61202, Note_on_c, 0, 82, 0
2, 61202, Note_on_c, 0, 67, 0
2, 61204, Note_on_c, 0, 70, 0
2, 61207, Note_on_c, 0, 46, 0
2, 61241, Note_on_c, 0, 82, 60
2, 61243, Note_on_c, 0, 70, 60
2, 61243, Note_on_c, 0, 67, 60
2, 61246, Note_on_c, 0, 58, 60
2, 61266, Note_on_c, 0, 58, 0
2, 61294, Note_on_c, 0, 55, 60
2, 61304, Note_on_c, 0, 63, 60
2, 61304, Note_on_c, 0, 58, 60
2, 61344, Note_on_c, 0, 63, 0
2, 61360, Note_on_c, 0, 80, 60
2, 61363, Note_on_c, 0, 65, 60
2, 61363, Note_on_c, 0, 68, 60
2, 61363, Note_on_c, 0, 56, 60
2, 61373, Note_on_c, 0, 55, 0
2, 61373, Note_on_c, 0, 67, 0
2, 61375, Note_on_c, 0, 51, 0
2, 61375, Note_on_c, 0, 39, 0
2, 61383, Note_on_c, 0, 58, 0
2, 61391, Note_on_c, 0, 70, 0
2, 61391, Note_on_c, 0, 82, 0
2, 61393, Note_on_c, 0, 65, 0
2, 61409, Note_on_c, 0, 79, 60
2, 61411, Note_on_c, 0, 67, 60
2, 61414, Note_on_c, 0, 55, 60
2, 61414, Note_on_c, 0, 63, 60
2, 61414, Note_on_c, 0, 46, 60
2, 61416, Note_on_c, 0, 34, 60
2, 61432, Note_on_c, 0, 80, 0
2, 61432, Note_on_c, 0, 68, 0
2, 61434, Note_on_c, 0, 56, 0
2, 61452, Note_on_c, 0, 63, 0
2, 61469, Note_on_c, 0, 66, 60
2, 61472, Note_on_c, 0, 54, 60
2, 61477, Note_on_c, 0, 78, 60
2, 61480, Note_on_c, 0, 55, 0
2, 61488, Note_on_c, 0, 79, 0
2, 61488, Note_on_c, 0, 67, 0
2, 61531, Note_on_c, 0, 55, 60
2, 61536, Note_on_c, 0, 79, 60
2, 61541, Note_on_c, 0, 54, 0
2, 61541, Note_on_c, 0, 63, 60
2, 61549, Note_on_c, 0, 66, 0
2, 61559, Note_on_c, 0, 78, 0
2, 61579, Note_on_c, 0, 63, 0
2, 61594, Note_on_c, 0, 82, 60
2, 61594, Note_on_c, 0, 67, 60
2, 61597, Note_on_c, 0, 70, 60
2, 61600, Note_on_c, 0, 58, 60
2, 61617, Note_on_c, 0, 67, 0
2, 61620, Note_on_c, 0, 55, 0
2, 61620, Note_on_c, 0, 46, 0
2, 61622, Note_on_c, 0, 34, 0
2, 61625, Note_on_c, 0, 79, 0
2, 61653, Note_on_c, 0, 87, 60
2, 61653, Note_on_c, 0, 67, 60
2, 61656, Note_on_c, 0, 75, 60
2, 61656, Note_on_c, 0, 63, 60
2, 61658, Note_on_c, 0, 51, 60
2, 61660, Note_on_c, 0, 39, 60
2, 61683, Note_on_c, 0, 70, 0
2, 61686, Note_on_c, 0, 58, 0
2, 61694, Note_on_c, 0, 82, 0
2, 61727, Note_on_c, 0, 63, 0
2, 61734, Note_on_c, 0, 75, 0
2, 61773, Note_on_c, 0, 79, 60
2, 61773, Note_on_c, 0, 82, 60
2, 61773, Note_on_c, 0, 70, 60
2, 61776, Note_on_c, 0, 63, 60
2, 61776, Note_on_c, 0, 55, 60
2, 61777, Note_on_c, 0, 58, 60
2, 61780, Note_on_c, 0, 94, 60
2, 61793, Note_on_c, 0, 79, 0
2, 61793, Note_on_c, 0, 67, 0
2, 61811, Note_on_c, 0, 87, 0
2, 61813, Note_on_c, 0, 55, 0
2, 61813, Note_on_c, 0, 63, 0
2, 61813, Note_on_c, 0, 58, 0
2, 61831, Note_on_c, 0, 91, 60
2, 61831, Note_on_c, 0, 79, 60
2, 61834, Note_on_c, 0, 75, 60
2, 61834, Note_on_c, 0, 67, 60
2, 61844, Note_on_c, 0, 51, 0
2, 61847, Note_on_c, 0, 39, 0
2, 61857, Control_c, 0, 64, 127
2, 61862, Note_on_c, 0, 70, 0
2, 61879, Note_on_c, 0, 82, 0
2, 61893, Note_on_c, 0, 46, 60
2, 61893, Note_on_c, 0, 34, 60
2, 61895, Note_on_c, 0, 94, 0
2, 61897, Note_on_c, 0, 79, 0
2, 61900, Note_on_c, 0, 75, 0
2, 61944, Note_on_c, 0, 96, 60
2, 61945, Note_on_c, 0, 84, 60
2, 61945, Note_on_c, 0, 79, 60
2, 61948, Note_on_c, 0, 75, 60
2, 61948, Note_on_c, 0, 72, 60
2, 61967, Note_on_c, 0, 75, 0
2, 61967, Note_on_c, 0, 79, 0
2, 61967, Note_on_c, 0, 67, 0
2, 61974, Note_on_c, 0, 91, 0
2, 61984, Control_c, 0, 64, 0
2, 62002, Note_on_c, 0, 94, 60
2, 62002, Note_on_c, 0, 55, 60
2, 62004, Note_on_c, 0, 82, 60
2, 62004, Note_on_c, 0, 79, 60
2, 62007, Note_on_c, 0, 75, 60
2, 62007, Note_on_c, 0, 70, 60
2, 62010, Note_on_c, 0, 63, 60
2, 62010, Note_on_c, 0, 58, 60
2, 62035, Note_on_c, 0, 72, 0
2, 62042, Note_on_c, 0, 96, 0
2, 62042, Note_on_c, 0, 84, 0
2, 62045, Note_on_c, 0, 63, 0
2, 62047, Note_on_c, 0, 58, 0
2, 62047, Note_on_c, 0, 55, 0
2, 62061, Note_on_c, 0, 34, 0
2, 62068, Note_on_c, 0, 46, 0
2, 62084, Note_on_c, 0, 79, 0
2, 62119, Note_on_c, 0, 38, 60
2, 62129, Note_on_c, 0, 50, 60
2, 62136, Note_on_c, 0, 70, 0
2, 62160, Note_on_c, 0, 94, 0
2, 62162, Note_on_c, 0, 82, 0
2, 62164, Note_on_c, 0, 75, 0
2, 62180, Note_on_c, 0, 91, 60
2, 62183, Note_on_c, 0, 79, 60
2, 62183, Note_on_c, 0, 71, 60
2, 62185, Note_on_c, 0, 67, 60
2, 62244, Note_on_c, 0, 65, 60
2, 62244, Note_on_c, 0, 55, 60
2, 62246, Note_on_c, 0, 59, 60
2, 62252, Note_on_c, 0, 91, 0
2, 62254, Note_on_c, 0, 71, 0
2, 62254, Note_on_c, 0, 67, 0
2, 62261, Note_on_c, 0, 79, 0
2, 62284, Note_on_c, 0, 59, 0
2, 62284, Note_on_c, 0, 55, 0
2, 62284, Note_on_c, 0, 65, 0
2, 62297, Note_on_c, 0, 91, 60
2, 62300, Note_on_c, 0, 79, 60
2, 62303, Note_on_c, 0, 67, 60
2, 62315, Note_on_c, 0, 50, 0
2, 62318, Note_on_c, 0, 38, 0
2, 62348, Note_on_c, 0, 92, 60
2, 62351, Note_on_c, 0, 71, 60
2, 62351, Note_on_c, 0, 80, 60
2, 62351, Note_on_c, 0, 68, 60
2, 62355, Note_on_c, 0, 43, 60
2, 62358, Note_on_c, 0, 31, 60
2, 62374, Note_on_c, 0, 67, 0
2, 62381, Note_on_c, 0, 79, 0
2, 62381, Note_on_c, 0, 91, 0
2, 62420, Note_on_c, 0, 91, 60
2, 62420, Note_on_c, 0, 79, 60
2, 62422, Note_on_c, 0, 67, 60
2, 62432, Note_on_c, 0, 68, 0
2, 62432, Note_on_c, 0, 80, 0
2, 62443, Note_on_c, 0, 92, 0
2, 62483, Note_on_c, 0, 86, 60
2, 62483, Note_on_c, 0, 74, 60
2, 62486, Note_on_c, 0, 59, 60
2, 62486, Note_on_c, 0, 62, 60
2, 62486, Note_on_c, 0, 65, 60
2, 62486, Note_on_c, 0, 55, 60
2, 62503, Note_on_c, 0, 65, 0
2, 62511, Note_on_c, 0, 67, 0
2, 62521, Note_on_c, 0, 79, 0
2, 62526, Note_on_c, 0, 62, 0
2, 62526, Note_on_c, 0, 59, 0
2, 62526, Note_on_c, 0, 55, 0
2, 62529, Note_on_c, 0, 31, 0
2, 62531, Note_on_c, 0, 91, 0
2, 62539, Note_on_c, 0, 89, 60
2, 62544, Note_on_c, 0, 77, 60
2, 62544, Note_on_c, 0, 65, 60
2, 62557, Note_on_c, 0, 43, 0
2, 62575, Note_on_c, 0, 74, 0
2, 62582, Note_on_c, 0, 86, 0
2, 62600, Note_on_c, 0, 87, 60
2, 62603, Note_on_c, 0, 75, 60
2, 62603, Note_on_c, 0, 72, 60
2, 62605, Note_on_c, 0, 48, 60
2, 62605, Note_on_c, 0, 63, 60
2, 62605, Note_on_c, 0, 36, 60
2, 62616, Note_on_c, 0, 71, 0
2, 62626, Note_on_c, 0, 65, 0
2, 62634, Note_on_c, 0, 77, 0
2, 62634, Note_on_c, 0, 89, 0
2, 62662, Note_on_c, 0, 89, 60
2, 62664, Note_on_c, 0, 77, 60
2, 62664, Note_on_c, 0, 65, 60
2, 62674, Note_on_c, 0, 63, 0
2, 62692, Note_on_c, 0, 75, 0
2, 62699, Note_on_c, 0, 87, 0
2, 62720, Note_on_c, 0, 91, 60
2, 62722, Note_on_c, 0, 67, 60
2, 62722, Note_on_c, 0, 79, 60
2, 62722, Note_on_c, 0, 63, 60
2, 62725, Note_on_c, 0, 60, 60
2, 62725, Note_on_c, 0, 55, 60
2, 62740, Note_on_c, 0, 79, 0
2, 62743, Note_on_c, 0, 72, 0
2, 62753, Note_on_c, 0, 89, 0
2, 62756, Note_on_c, 0, 65, 0
2, 62763, Note_on_c, 0, 77, 0
2, 62763, Note_on_c, 0, 60, 0
2, 62763, Note_on_c, 0, 63, 0
2, 62765, Note_on_c, 0, 55, 0
2, 62779, Note_on_c, 0, 96, 60
2, 62779, Note_on_c, 0, 79, 60
2, 62781, Note_on_c, 0, 84, 60
2, 62781, Note_on_c, 0, 72, 60
2, 62786, Note_on_c, 0, 48, 0
2, 62786, Note_on_c, 0, 36, 0
2, 62786, Control_c, 0, 64, 127
2, 62791, Note_on_c, 0, 67, 0
2, 62837, Note_on_c, 0, 48, 60
2, 62837, Note_on_c, 0, 36, 60
2, 62842, Note_on_c, 0, 91, 0
2, 62845, Note_on_c, 0, 79, 0
2, 62904, Note_on_c, 0, 91, 60
2, 62904, Note_on_c, 0, 79, 60
2, 62905, Note_on_c, 0, 67, 60
2, 62921, Note_on_c, 0, 96, 0
2, 62924, Note_on_c, 0, 72, 0
2, 62924, Note_on_c, 0, 84, 0
2, 62924, Note_on_c, 0, 79, 0
2, 62934, Control_c, 0, 64, 0
2, 62962, Note_on_c, 0, 96, 60
2, 62964, Note_on_c, 0, 84, 60
2, 62964, Note_on_c, 0, 79, 60
2, 62967, Note_on_c, 0, 60, 60
2, 62967, Note_on_c, 0, 63, 60
2, 62967, Note_on_c, 0, 72, 60
2, 62967, Note_on_c, 0, 55, 60
2, 62993, Note_on_c, 0, 67, 0
2, 63002, Note_on_c, 0, 91, 0
2, 63005, Note_on_c, 0, 63, 0
2, 63005, Note_on_c, 0, 60, 0
2, 63005, Note_on_c, 0, 55, 0
2, 63025, Note_on_c, 0, 48, 0
2, 63028, Note_on_c, 0, 36, 0
2, 63084, Note_on_c, 0, 53, 60
2, 63087, Note_on_c, 0, 41, 60
2, 63104, Note_on_c, 0, 72, 0
2, 63112, Note_on_c, 0, 96, 0
2, 63115, Note_on_c, 0, 84, 0
2, 63115, Note_on_c, 0, 79, 0
2, 63140, Note_on_c, 0, 92, 60
2, 63143, Note_on_c, 0, 80, 60
2, 63145, Note_on_c, 0, 72, 60
2, 63145, Note_on_c, 0, 68, 60
2, 63166, Note_on_c, 0, 72, 0
2, 63198, Note_on_c, 0, 91, 60
2, 63204, Note_on_c, 0, 79, 60
2, 63204, Note_on_c, 0, 67, 60
2, 63206, Note_on_c, 0, 72, 60
2, 63206, Note_on_c, 0, 65, 60
2, 63209, Note_on_c, 0, 60, 60
2, 63209, Note_on_c, 0, 56, 60
2, 63221, Note_on_c, 0, 92, 0
2, 63224, Note_on_c, 0, 80, 0
2, 63224, Note_on_c, 0, 68, 0
2, 63227, Note_on_c, 0, 65, 0
2, 63241, Note_on_c, 0, 60, 0
2, 63241, Note_on_c, 0, 56, 0
2, 63257, Note_on_c, 0, 89, 60
2, 63257, Note_on_c, 0, 77, 60
2, 63260, Note_on_c, 0, 65, 60
2, 63270, Note_on_c, 0, 72, 0
2, 63272, Note_on_c, 0, 53, 0
2, 63272, Note_on_c, 0, 41, 0
2, 63278, Note_on_c, 0, 67, 0
2, 63298, Note_on_c, 0, 79, 0
2, 63315, Note_on_c, 0, 92, 60
2, 63318, Note_on_c, 0, 80, 60
2, 63321, Note_on_c, 0, 91, 0
2, 63321, Note_on_c, 0, 68, 60
2, 63321, Note_on_c, 0, 72, 60
2, 63321, Note_on_c, 0, 60, 60
2, 63323, Note_on_c, 0, 48, 60
2, 63331, Note_on_c, 0, 65, 0
2, 63349, Note_on_c, 0, 89, 0
2, 63360, Note_on_c, 0, 77, 0
2, 63374, Note_on_c, 0, 99, 60
2, 63377, Note_on_c, 0, 87, 60
2, 63377, Note_on_c, 0, 75, 60
2, 63400, Note_on_c, 0, 80, 0
2, 63425, Note_on_c, 0, 92, 0
2, 63428, Note_on_c, 0, 68, 0
2, 63435, Note_on_c, 0, 71, 60
2, 63438, Note_on_c, 0, 59, 60
2, 63438, Note_on_c, 0, 47, 60
2, 63448, Note_on_c, 0, 60, 0
2, 63448, Note_on_c, 0, 72, 0
2, 63451, Note_on_c, 0, 48, 0
2, 63494, Note_on_c, 0, 92, 60
2, 63497, Note_on_c, 0, 80, 60
2, 63499, Note_on_c, 0, 68, 60
2, 63528, Note_on_c, 0, 75, 0
2, 63545, Note_on_c, 0, 70, 60
2, 63550, Note_on_c, 0, 58, 60
2, 63550, Note_on_c, 0, 46, 60
2, 63555, Note_on_c, 0, 91, 60
2, 63557, Note_on_c, 0, 87, 0
2, 63557, Note_on_c, 0, 79, 60
2, 63557, Note_on_c, 0, 67, 60
2, 63560, Note_on_c, 0, 71, 0
2, 63560, Note_on_c, 0, 47, 0
2, 63560, Note_on_c, 0, 59, 0
2, 63565, Note_on_c, 0, 99, 0
2, 63568, Note_on_c, 0, 68, 0
2, 63576, Note_on_c, 0, 92, 0
2, 63578, Note_on_c, 0, 80, 0
2, 63616, Note_on_c, 0, 87, 60
2, 63616, Note_on_c, 0, 75, 60
2, 63619, Note_on_c, 0, 63, 60
2, 63639, Note_on_c, 0, 91, 0
2, 63639, Note_on_c, 0, 79, 0
2, 63642, Note_on_c, 0, 63, 0
2, 63642, Note_on_c, 0, 58, 0
2, 63642, Note_on_c, 0, 67, 0
2, 63642, Note_on_c, 0, 70, 0
2, 63677, Note_on_c, 0, 91, 60
2, 63680, Note_on_c, 0, 70, 60
2, 63680, Note_on_c, 0, 79, 60
2, 63680, Note_on_c, 0, 67, 60
2, 63682, Note_on_c, 0, 58, 60
2, 63682, Note_on_c, 0, 63, 60
2, 63682, Note_on_c, 0, 55, 60
2, 63720, Note_on_c, 0, 87, 0
2, 63723, Note_on_c, 0, 63, 0
2, 63723, Note_on_c, 0, 75, 0
2, 63748, Note_on_c, 0, 55, 0
2, 63751, Note_on_c, 0, 46, 0
2, 63759, Note_on_c, 0, 58, 0
2, 63792, Note_on_c, 0, 90, 60
2, 63794, Note_on_c, 0, 78, 60
2, 63794, Note_on_c, 0, 66, 60
2, 63797, Note_on_c, 0, 70, 0
2, 63797, Note_on_c, 0, 67, 0
2, 63797, Note_on_c, 0, 72, 60
2, 63797, Note_on_c, 0, 75, 60
2, 63797, Note_on_c, 0, 57, 60
2, 63799, Note_on_c, 0, 45, 60
2, 63807, Note_on_c, 0, 91, 0
2, 63807, Note_on_c, 0, 79, 0
2, 64032, Note_on_c, 0, 91, 60
2, 64032, Note_on_c, 0, 79, 60
2, 64033, Note_on_c, 0, 67, 60
2, 64036, Note_on_c, 0, 70, 60
2, 64036, Note_on_c, 0, 58, 60
2, 64039, Note_on_c, 0, 46, 60
2, 64047, Note_on_c, 0, 57, 0
2, 64047, Note_on_c, 0, 66, 0
2, 64047, Note_on_c, 0, 72, 0
2, 64049, Note_on_c, 0, 45, 0
2, 64052, Note_on_c, 0, 90, 0
2, 64055, Note_on_c, 0, 78, 0
2, 64055, Note_on_c, 0, 70, 0
2, 64056, Note_on_c, 0, 58, 0
2, 64090, Note_on_c, 0, 94, 60
2, 64092, Note_on_c, 0, 82, 60
2, 64095, Note_on_c, 0, 70, 60
2, 64098, Note_on_c, 0, 58, 60
2, 64113, Note_on_c, 0, 91, 0
2, 64115, Note_on_c, 0, 70, 0
2, 64115, Note_on_c, 0, 67, 0
2, 64115, Note_on_c, 0, 79, 0
2, 64115, Note_on_c, 0, 75, 0
2, 64118, Note_on_c, 0, 58, 0
2, 64153, Note_on_c, 0, 91, 60
2, 64153, Note_on_c, 0, 79, 60
2, 64156, Note_on_c, 0, 67, 60
2, 64156, Note_on_c, 0, 70, 60
2, 64156, Note_on_c, 0, 63, 60
2, 64158, Note_on_c, 0, 58, 60
2, 64158, Note_on_c, 0, 55, 60
2, 64164, Note_on_c, 0, 94, 0
2, 64195, Note_on_c, 0, 82, 0
2, 64209, Note_on_c, 0, 89, 60
2, 64212, Note_on_c, 0, 77, 60
2, 64215, Note_on_c, 0, 65, 60
2, 64227, Note_on_c, 0, 58, 0
2, 64227, Note_on_c, 0, 63, 0
2, 64227, Note_on_c, 0, 55, 0
2, 64230, Note_on_c, 0, 46, 0
2, 64243, Note_on_c, 0, 79, 0
2, 64243, Note_on_c, 0, 91, 0
2, 64246, Note_on_c, 0, 67, 0
2, 64271, Note_on_c, 0, 87, 60
2, 64273, Note_on_c, 0, 70, 0
2, 64273, Note_on_c, 0, 75, 60
2, 64275, Note_on_c, 0, 60, 60
2, 64275, Note_on_c, 0, 63, 60
2, 64275, Note_on_c, 0, 48, 60
2, 64286, Note_on_c, 0, 65, 0
2, 64291, Note_on_c, 0, 89, 0
2, 64294, Note_on_c, 0, 77, 0
2, 64391, Note_on_c, 0, 89, 60
2, 64392, Note_on_c, 0, 74, 60
2, 64392, Note_on_c, 0, 77, 60
2, 64392, Note_on_c, 0, 68, 60
2, 64395, Note_on_c, 0, 65, 60
2, 64395, Note_on_c, 0, 58, 60
2, 64398, Note_on_c, 0, 46, 60
2, 64403, Note_on_c, 0, 87, 0
2, 64406, Note_on_c, 0, 75, 0
2, 64416, Note_on_c, 0, 63, 0
2, 64416, Note_on_c, 0, 60, 0
2, 64416, Note_on_c, 0, 48, 0
2, 64510, Note_on_c, 0, 75, 60
2, 64510, Note_on_c, 0, 87, 60
2, 64510, Note_on_c, 0, 67, 60
2, 64512, Note_on_c, 0, 58, 0
2, 64512, Note_on_c, 0, 63, 60
2, 64515, Note_on_c, 0, 46, 0
2, 64515, Note_on_c, 0, 51, 60
2, 64520, Note_on_c, 0, 77, 0
2, 64520, Note_on_c, 0, 89, 0
2, 64520, Note_on_c, 0, 74, 0
2, 64523, Note_on_c, 0, 65, 0
2, 64523, Note_on_c, 0, 68, 0
2, 64584, Note_on_c, 0, 51, 0
2, 64632, Note_on_c, 0, 58, 60
2, 64632, Note_on_c, 0, 46, 60
2, 64704, Note_on_c, 0, 46, 0
2, 64711, Note_on_c, 0, 75, 0
2, 64711, Note_on_c, 0, 58, 0
2, 64719, Note_on_c, 0, 87, 0
2, 64744, Note_on_c, 0, 99, 60
2, 64747, Note_on_c, 0, 79, 60
2, 64747, Note_on_c, 0, 87, 60
2, 64747, Note_on_c, 0, 75, 60
2, 64752, Note_on_c, 0, 51, 60
2, 64754, Note_on_c, 0, 39, 60
2, 64757, Control_c, 0, 64, 127
2, 64777, Note_on_c, 0, 67, 0
2, 64780, Note_on_c, 0, 63, 0
2, 64813, Note_on_c, 0, 39, 0
2, 64821, Note_on_c, 0, 51, 0
2, 64825, Note_on_c, 0, 79, 0
2, 64833, Note_on_c, 0, 87, 0
2, 64836, Note_on_c, 0, 75, 0
2, 64841, Note_on_c, 0, 99, 0
2, 64956, Control_c, 0, 64, 0
2, 64956, End_track
3, 0, Start_track
3, 0, Title_t, ""
3, 0, End_track
4, 0, Start_track
4, 0, Title_t, ""
4, 0, End_track
5, 0, Start_track
5, 0, Title_t, ""
5, 0, End_track
6, 0, Start_track
6, 0, Title_t, "Scan of a player piano roll"
6, 0, End_track
7, 0, Start_track
7, 0, Title_t, "by Terry Smythe, Winnipeg, Canada"
7, 0, End_track
8, 0, Start_track
8, 1, Copyright_t, "___________________________________________________\012\012KUNSTDERFUGE.COM LARGE CLASSICAL MIDI COLLECTION\012ONCLASSICAL BY ALESSANDRO SIMONETTO, PROPRIETOR\012___________________________________________________\012\012! Attention: this file is under copyright !\012\012(c)onclassical, (nc)smythe, 2010\012___________________________________________________\012\012NO ONE MAY REPUBLISH THIS FILE WITHOUT PERMISSION\012COMMERCIAL USES OF THIS FILE IS STRICTLY PROHIBITED\012___________________________________________________\012\012Files & contributor's list: http://kunstderfuge.com/\012Terms and conditions: http://kunstderfuge.com/notes.htm"
8, 1, End_track
0, 0, End_of_file
