0, 0, Header, 1, 8, 192
1, 0, Start_track
1, 0, Title_t, "1168S"
1, 0, Copyright_t, "May NOT be used for commercial purposes."
1, 0, Text_t, "Roll expression/accent tracks, where present, converted to MIDI velocties.\012"
1, 0, Time_signature, 4, 2, 24, 8
1, 0, Key_signature, 0, "major"
1, 0, Tempo, 500000
1, 0, Marker_t, "Standard MIDI:LPI 132:Tempo  75: 02-27-2004"
1, 0, End_track
2, 0, Start_track
2, 0, Title_t, "Climax Rag (1914)"
2, 133, Note_on_c, 0, 84, 80
2, 139, Note_on_c, 0, 72, 80
2, 190, Note_on_c, 0, 72, 0
2, 190, Note_on_c, 0, 84, 0
2, 193, Note_on_c, 0, 85, 80
2, 195, Note_on_c, 0, 73, 80
2, 246, Note_on_c, 0, 86, 80
2, 248, Note_on_c, 0, 73, 0
2, 248, Note_on_c, 0, 85, 0
2, 250, Note_on_c, 0, 74, 80
2, 301, Note_on_c, 0, 87, 80
2, 303, Note_on_c, 0, 86, 0
2, 303, Note_on_c, 0, 75, 80
2, 305, Note_on_c, 0, 74, 0
2, 332, Control_c, 0, 64, 127
2, 351, Note_on_c, 0, 80, 80
2, 351, Note_on_c, 0, 92, 80
2, 353, Note_on_c, 0, 87, 0
2, 355, Note_on_c, 0, 75, 0
2, 404, Note_on_c, 0, 92, 0
2, 406, Note_on_c, 0, 80, 0
2, 438, Control_c, 0, 64, 0
2, 463, Note_on_c, 0, 77, 80
2, 463, Note_on_c, 0, 89, 80
2, 541, Note_on_c, 0, 89, 0
2, 541, Note_on_c, 0, 77, 0
2, 566, Note_on_c, 0, 74, 80
2, 566, Note_on_c, 0, 86, 80
2, 612, Note_on_c, 0, 86, 0
2, 614, Note_on_c, 0, 71, 80
2, 618, Note_on_c, 0, 74, 0
2, 618, Note_on_c, 0, 83, 80
2, 667, Note_on_c, 0, 80, 80
2, 669, Note_on_c, 0, 83, 0
2, 669, Note_on_c, 0, 71, 0
2, 686, Note_on_c, 0, 68, 80
2, 717, Note_on_c, 0, 80, 0
2, 720, Note_on_c, 0, 65, 80
2, 720, Note_on_c, 0, 77, 80
2, 722, Note_on_c, 0, 68, 0
2, 745, Control_c, 0, 64, 127
2, 768, Note_on_c, 0, 77, 0
2, 768, Note_on_c, 0, 79, 80
2, 770, Note_on_c, 0, 65, 0
2, 772, Note_on_c, 0, 67, 80
2, 821, Note_on_c, 0, 67, 0
2, 821, Note_on_c, 0, 79, 0
2, 821, Note_on_c, 0, 80, 80
2, 823, Note_on_c, 0, 68, 80
2, 848, Control_c, 0, 64, 0
2, 875, Note_on_c, 0, 80, 0
2, 877, Note_on_c, 0, 68, 0
2, 877, Note_on_c, 0, 71, 80
2, 877, Note_on_c, 0, 83, 80
2, 959, Note_on_c, 0, 83, 0
2, 959, Note_on_c, 0, 71, 0
2, 989, Note_on_c, 0, 80, 80
2, 993, Note_on_c, 0, 68, 80
2, 1042, Note_on_c, 0, 80, 0
2, 1046, Note_on_c, 0, 77, 80
2, 1048, Note_on_c, 0, 68, 0
2, 1052, Note_on_c, 0, 65, 80
2, 1096, Note_on_c, 0, 77, 0
2, 1098, Note_on_c, 0, 74, 80
2, 1100, Note_on_c, 0, 65, 0
2, 1102, Note_on_c, 0, 62, 80
2, 1162, Note_on_c, 0, 62, 0
2, 1164, Note_on_c, 0, 74, 0
2, 1166, Note_on_c, 0, 63, 80
2, 1166, Note_on_c, 0, 75, 80
2, 1267, Note_on_c, 0, 61, 80
2, 1269, Note_on_c, 0, 67, 80
2, 1272, Note_on_c, 0, 39, 80
2, 1272, Note_on_c, 0, 51, 80
2, 1280, Control_c, 0, 64, 127
2, 1319, Note_on_c, 0, 61, 0
2, 1320, Note_on_c, 0, 39, 0
2, 1320, Note_on_c, 0, 67, 0
2, 1320, Note_on_c, 0, 51, 0
2, 1371, Note_on_c, 0, 51, 80
2, 1373, Note_on_c, 0, 60, 80
2, 1373, Note_on_c, 0, 66, 80
2, 1373, Note_on_c, 0, 69, 80
2, 1377, Note_on_c, 0, 39, 80
2, 1387, Control_c, 0, 64, 0
2, 1423, Note_on_c, 0, 39, 0
2, 1423, Note_on_c, 0, 66, 0
2, 1423, Note_on_c, 0, 60, 0
2, 1423, Note_on_c, 0, 69, 0
2, 1427, Note_on_c, 0, 51, 0
2, 1476, Note_on_c, 0, 39, 80
2, 1476, Note_on_c, 0, 51, 80
2, 1476, Note_on_c, 0, 59, 80
2, 1476, Note_on_c, 0, 65, 80
2, 1478, Note_on_c, 0, 68, 80
2, 1531, Note_on_c, 0, 68, 0
2, 1531, Note_on_c, 0, 51, 0
2, 1531, Note_on_c, 0, 63, 0
2, 1531, Note_on_c, 0, 65, 0
2, 1533, Note_on_c, 0, 39, 0
2, 1533, Note_on_c, 0, 59, 0
2, 1582, Note_on_c, 0, 58, 80
2, 1582, Note_on_c, 0, 61, 80
2, 1582, Note_on_c, 0, 63, 80
2, 1584, Note_on_c, 0, 51, 80
2, 1584, Note_on_c, 0, 67, 80
2, 1587, Note_on_c, 0, 39, 80
2, 1616, Control_c, 0, 64, 127
2, 1632, Note_on_c, 0, 61, 0
2, 1637, Note_on_c, 0, 67, 0
2, 1637, Note_on_c, 0, 58, 0
2, 1637, Note_on_c, 0, 63, 0
2, 1637, Note_on_c, 0, 75, 0
2, 1637, Note_on_c, 0, 39, 0
2, 1637, Note_on_c, 0, 51, 0
2, 1715, Control_c, 0, 64, 0
2, 1787, Note_on_c, 0, 39, 80
2, 1799, Note_on_c, 0, 51, 80
2, 1851, Note_on_c, 0, 39, 0
2, 1851, Note_on_c, 0, 84, 80
2, 1855, Note_on_c, 0, 51, 0
2, 1899, Note_on_c, 0, 84, 0
2, 1903, Note_on_c, 0, 85, 80
2, 1952, Note_on_c, 0, 85, 0
2, 1956, Note_on_c, 0, 86, 80
2, 2009, Note_on_c, 0, 86, 0
2, 2011, Note_on_c, 0, 80, 80
2, 2011, Note_on_c, 0, 87, 80
2, 2036, Control_c, 0, 64, 127
2, 2059, Note_on_c, 0, 80, 0
2, 2063, Note_on_c, 0, 87, 0
2, 2066, Note_on_c, 0, 92, 80
2, 2111, Note_on_c, 0, 92, 0
2, 2114, Note_on_c, 0, 77, 80
2, 2139, Control_c, 0, 64, 0
2, 2164, Note_on_c, 0, 77, 0
2, 2166, Note_on_c, 0, 80, 80
2, 2166, Note_on_c, 0, 83, 80
2, 2166, Note_on_c, 0, 89, 80
2, 2221, Note_on_c, 0, 74, 80
2, 2244, Note_on_c, 0, 89, 0
2, 2244, Note_on_c, 0, 80, 0
2, 2246, Note_on_c, 0, 83, 0
2, 2271, Note_on_c, 0, 74, 0
2, 2273, Note_on_c, 0, 86, 80
2, 2328, Note_on_c, 0, 86, 0
2, 2329, Note_on_c, 0, 71, 80
2, 2329, Note_on_c, 0, 83, 80
2, 2382, Note_on_c, 0, 83, 0
2, 2382, Note_on_c, 0, 71, 0
2, 2384, Note_on_c, 0, 80, 80
2, 2433, Note_on_c, 0, 80, 0
2, 2441, Note_on_c, 0, 68, 80
2, 2441, Note_on_c, 0, 77, 80
2, 2466, Control_c, 0, 64, 127
2, 2491, Note_on_c, 0, 77, 0
2, 2491, Note_on_c, 0, 68, 0
2, 2493, Note_on_c, 0, 79, 80
2, 2542, Note_on_c, 0, 79, 0
2, 2542, Note_on_c, 0, 80, 80
2, 2547, Note_on_c, 0, 65, 80
2, 2572, Control_c, 0, 64, 0
2, 2582, Note_on_c, 0, 83, 80
2, 2592, Note_on_c, 0, 80, 0
2, 2597, Note_on_c, 0, 65, 0
2, 2648, Note_on_c, 0, 62, 80
2, 2673, Note_on_c, 0, 83, 0
2, 2696, Note_on_c, 0, 80, 80
2, 2698, Note_on_c, 0, 62, 0
2, 2744, Note_on_c, 0, 80, 0
2, 2748, Note_on_c, 0, 59, 80
2, 2748, Note_on_c, 0, 77, 80
2, 2794, Note_on_c, 0, 77, 0
2, 2796, Note_on_c, 0, 74, 80
2, 2798, Note_on_c, 0, 59, 0
2, 2851, Note_on_c, 0, 74, 0
2, 2851, Note_on_c, 0, 48, 80
2, 2851, Note_on_c, 0, 80, 80
2, 2851, Note_on_c, 0, 84, 80
2, 2853, Note_on_c, 0, 60, 80
2, 2853, Note_on_c, 0, 68, 80
2, 2853, Note_on_c, 0, 72, 80
2, 2870, Note_on_c, 0, 84, 0
2, 2870, Control_c, 0, 64, 127
2, 2874, Note_on_c, 0, 72, 0
2, 2897, Note_on_c, 0, 80, 0
2, 2899, Note_on_c, 0, 60, 0
2, 2899, Note_on_c, 0, 79, 80
2, 2899, Note_on_c, 0, 84, 80
2, 2901, Note_on_c, 0, 68, 0
2, 2901, Note_on_c, 0, 67, 80
2, 2901, Note_on_c, 0, 72, 80
2, 2945, Note_on_c, 0, 72, 0
2, 2945, Note_on_c, 0, 84, 0
2, 2945, Note_on_c, 0, 79, 0
2, 2949, Note_on_c, 0, 68, 80
2, 2951, Note_on_c, 0, 67, 0
2, 2951, Note_on_c, 0, 51, 80
2, 2951, Note_on_c, 0, 56, 80
2, 2951, Note_on_c, 0, 60, 80
2, 2951, Note_on_c, 0, 63, 80
2, 2970, Control_c, 0, 64, 0
2, 2976, Note_on_c, 0, 48, 0
2, 2997, Note_on_c, 0, 51, 0
2, 2997, Note_on_c, 0, 56, 0
2, 2997, Note_on_c, 0, 63, 0
2, 2999, Note_on_c, 0, 65, 80
2, 2999, Note_on_c, 0, 72, 80
2, 2999, Note_on_c, 0, 77, 80
2, 2999, Note_on_c, 0, 84, 80
2, 3000, Note_on_c, 0, 68, 0
2, 3051, Note_on_c, 0, 68, 80
2, 3053, Note_on_c, 0, 39, 80
2, 3053, Note_on_c, 0, 51, 80
2, 3074, Note_on_c, 0, 60, 0
2, 3078, Note_on_c, 0, 65, 0
2, 3078, Note_on_c, 0, 72, 0
2, 3078, Note_on_c, 0, 77, 0
2, 3078, Note_on_c, 0, 84, 0
2, 3101, Note_on_c, 0, 87, 80
2, 3103, Note_on_c, 0, 75, 80
2, 3105, Note_on_c, 0, 51, 0
2, 3105, Note_on_c, 0, 68, 0
2, 3105, Note_on_c, 0, 39, 0
2, 3156, Note_on_c, 0, 87, 0
2, 3156, Note_on_c, 0, 75, 0
2, 3158, Note_on_c, 0, 89, 80
2, 3160, Note_on_c, 0, 63, 80
2, 3160, Note_on_c, 0, 68, 80
2, 3160, Note_on_c, 0, 77, 80
2, 3164, Note_on_c, 0, 51, 80
2, 3164, Note_on_c, 0, 56, 80
2, 3164, Note_on_c, 0, 60, 80
2, 3210, Note_on_c, 0, 60, 0
2, 3210, Note_on_c, 0, 77, 0
2, 3210, Note_on_c, 0, 63, 0
2, 3210, Note_on_c, 0, 89, 0
2, 3210, Note_on_c, 0, 56, 0
2, 3210, Note_on_c, 0, 91, 80
2, 3214, Note_on_c, 0, 79, 80
2, 3216, Note_on_c, 0, 51, 0
2, 3268, Note_on_c, 0, 79, 0
2, 3268, Note_on_c, 0, 96, 80
2, 3270, Note_on_c, 0, 91, 0
2, 3272, Note_on_c, 0, 84, 80
2, 3272, Note_on_c, 0, 92, 80
2, 3274, Note_on_c, 0, 48, 80
2, 3274, Note_on_c, 0, 60, 80
2, 3274, Note_on_c, 0, 63, 80
2, 3293, Note_on_c, 0, 96, 0
2, 3295, Control_c, 0, 64, 127
2, 3297, Note_on_c, 0, 84, 0
2, 3299, Note_on_c, 0, 68, 0
2, 3320, Note_on_c, 0, 92, 0
2, 3322, Note_on_c, 0, 63, 0
2, 3322, Note_on_c, 0, 91, 80
2, 3322, Note_on_c, 0, 96, 80
2, 3324, Note_on_c, 0, 84, 80
2, 3326, Note_on_c, 0, 60, 0
2, 3370, Note_on_c, 0, 96, 0
2, 3376, Note_on_c, 0, 84, 0
2, 3376, Note_on_c, 0, 91, 0
2, 3376, Note_on_c, 0, 63, 80
2, 3376, Note_on_c, 0, 68, 80
2, 3380, Note_on_c, 0, 51, 80
2, 3380, Note_on_c, 0, 56, 80
2, 3380, Note_on_c, 0, 60, 80
2, 3401, Control_c, 0, 64, 0
2, 3407, Note_on_c, 0, 48, 0
2, 3424, Note_on_c, 0, 89, 80
2, 3424, Note_on_c, 0, 96, 80
2, 3426, Note_on_c, 0, 56, 0
2, 3426, Note_on_c, 0, 60, 0
2, 3426, Note_on_c, 0, 84, 80
2, 3428, Note_on_c, 0, 68, 0
2, 3432, Note_on_c, 0, 51, 0
2, 3482, Note_on_c, 0, 63, 0
2, 3482, Note_on_c, 0, 48, 80
2, 3482, Note_on_c, 0, 60, 80
2, 3502, Note_on_c, 0, 96, 0
2, 3507, Note_on_c, 0, 89, 0
2, 3507, Note_on_c, 0, 84, 0
2, 3534, Note_on_c, 0, 63, 80
2, 3536, Note_on_c, 0, 48, 0
2, 3536, Note_on_c, 0, 60, 0
2, 3538, Note_on_c, 0, 75, 80
2, 3576, Note_on_c, 0, 45, 80
2, 3586, Note_on_c, 0, 75, 0
2, 3590, Note_on_c, 0, 57, 80
2, 3590, Note_on_c, 0, 77, 80
2, 3592, Note_on_c, 0, 63, 0
2, 3594, Note_on_c, 0, 65, 80
2, 3640, Note_on_c, 0, 77, 0
2, 3640, Note_on_c, 0, 57, 0
2, 3640, Note_on_c, 0, 67, 80
2, 3640, Note_on_c, 0, 79, 80
2, 3642, Note_on_c, 0, 65, 0
2, 3651, Note_on_c, 0, 45, 0
2, 3682, Note_on_c, 0, 46, 80
2, 3690, Note_on_c, 0, 79, 0
2, 3690, Note_on_c, 0, 80, 80
2, 3690, Note_on_c, 0, 85, 80
2, 3690, Note_on_c, 0, 58, 80
2, 3692, Note_on_c, 0, 67, 0
2, 3692, Note_on_c, 0, 73, 80
2, 3713, Control_c, 0, 64, 127
2, 3715, Note_on_c, 0, 73, 0
2, 3715, Note_on_c, 0, 85, 0
2, 3740, Note_on_c, 0, 80, 0
2, 3742, Note_on_c, 0, 73, 80
2, 3744, Note_on_c, 0, 85, 80
2, 3745, Note_on_c, 0, 79, 80
2, 3792, Note_on_c, 0, 79, 0
2, 3792, Note_on_c, 0, 85, 0
2, 3793, Note_on_c, 0, 61, 80
2, 3795, Note_on_c, 0, 73, 0
2, 3795, Note_on_c, 0, 55, 80
2, 3795, Note_on_c, 0, 63, 80
2, 3795, Note_on_c, 0, 67, 80
2, 3797, Note_on_c, 0, 51, 80
2, 3818, Control_c, 0, 64, 0
2, 3820, Note_on_c, 0, 46, 0
2, 3841, Note_on_c, 0, 63, 0
2, 3841, Note_on_c, 0, 61, 0
2, 3841, Note_on_c, 0, 67, 0
2, 3845, Note_on_c, 0, 55, 0
2, 3845, Note_on_c, 0, 51, 0
2, 3845, Note_on_c, 0, 73, 80
2, 3845, Note_on_c, 0, 77, 80
2, 3845, Note_on_c, 0, 85, 80
2, 3902, Note_on_c, 0, 39, 80
2, 3902, Note_on_c, 0, 51, 80
2, 3902, Note_on_c, 0, 67, 80
2, 3925, Note_on_c, 0, 58, 0
2, 3927, Note_on_c, 0, 85, 0
2, 3927, Note_on_c, 0, 73, 0
2, 3927, Note_on_c, 0, 77, 0
2, 3952, Note_on_c, 0, 67, 0
2, 3952, Note_on_c, 0, 39, 0
2, 3956, Note_on_c, 0, 51, 0
2, 3958, Note_on_c, 0, 87, 80
2, 3960, Note_on_c, 0, 75, 80
2, 4010, Note_on_c, 0, 75, 0
2, 4010, Note_on_c, 0, 87, 0
2, 4012, Note_on_c, 0, 55, 80
2, 4012, Note_on_c, 0, 61, 80
2, 4012, Note_on_c, 0, 89, 80
2, 4014, Note_on_c, 0, 51, 80
2, 4014, Note_on_c, 0, 63, 80
2, 4014, Note_on_c, 0, 67, 80
2, 4014, Note_on_c, 0, 77, 80
2, 4060, Note_on_c, 0, 77, 0
2, 4060, Note_on_c, 0, 61, 0
2, 4060, Note_on_c, 0, 89, 0
2, 4062, Note_on_c, 0, 63, 0
2, 4062, Note_on_c, 0, 91, 80
2, 4064, Note_on_c, 0, 55, 0
2, 4064, Note_on_c, 0, 51, 0
2, 4064, Note_on_c, 0, 79, 80
2, 4106, Note_on_c, 0, 46, 80
2, 4110, Note_on_c, 0, 91, 0
2, 4112, Note_on_c, 0, 79, 0
2, 4114, Note_on_c, 0, 58, 80
2, 4114, Note_on_c, 0, 61, 80
2, 4114, Note_on_c, 0, 85, 80
2, 4114, Note_on_c, 0, 92, 80
2, 4118, Note_on_c, 0, 97, 80
2, 4133, Note_on_c, 0, 97, 0
2, 4137, Note_on_c, 0, 85, 0
2, 4139, Note_on_c, 0, 67, 0
2, 4139, Control_c, 0, 64, 127
2, 4160, Note_on_c, 0, 92, 0
2, 4166, Note_on_c, 0, 46, 0
2, 4166, Note_on_c, 0, 61, 0
2, 4166, Note_on_c, 0, 58, 0
2, 4166, Note_on_c, 0, 85, 80
2, 4166, Note_on_c, 0, 91, 80
2, 4166, Note_on_c, 0, 97, 80
2, 4215, Note_on_c, 0, 91, 0
2, 4215, Note_on_c, 0, 85, 0
2, 4217, Note_on_c, 0, 97, 0
2, 4219, Note_on_c, 0, 61, 80
2, 4221, Note_on_c, 0, 67, 80
2, 4223, Note_on_c, 0, 51, 80
2, 4223, Note_on_c, 0, 55, 80
2, 4223, Note_on_c, 0, 63, 80
2, 4242, Control_c, 0, 64, 0
2, 4269, Note_on_c, 0, 63, 0
2, 4269, Note_on_c, 0, 51, 0
2, 4269, Note_on_c, 0, 55, 0
2, 4269, Note_on_c, 0, 67, 0
2, 4269, Note_on_c, 0, 89, 80
2, 4271, Note_on_c, 0, 85, 80
2, 4271, Note_on_c, 0, 97, 80
2, 4327, Note_on_c, 0, 39, 80
2, 4327, Note_on_c, 0, 51, 80
2, 4344, Note_on_c, 0, 97, 0
2, 4348, Note_on_c, 0, 85, 0
2, 4348, Note_on_c, 0, 89, 0
2, 4375, Note_on_c, 0, 63, 80
2, 4377, Note_on_c, 0, 61, 0
2, 4377, Note_on_c, 0, 51, 0
2, 4377, Note_on_c, 0, 39, 0
2, 4379, Note_on_c, 0, 75, 80
2, 4425, Note_on_c, 0, 61, 80
2, 4425, Note_on_c, 0, 77, 80
2, 4427, Note_on_c, 0, 75, 0
2, 4427, Note_on_c, 0, 63, 0
2, 4429, Note_on_c, 0, 51, 80
2, 4429, Note_on_c, 0, 55, 80
2, 4429, Note_on_c, 0, 65, 80
2, 4478, Note_on_c, 0, 55, 0
2, 4478, Note_on_c, 0, 61, 0
2, 4478, Note_on_c, 0, 77, 0
2, 4482, Note_on_c, 0, 67, 80
2, 4482, Note_on_c, 0, 79, 80
2, 4484, Note_on_c, 0, 51, 0
2, 4484, Note_on_c, 0, 65, 0
2, 4522, Note_on_c, 0, 48, 80
2, 4528, Note_on_c, 0, 79, 0
2, 4532, Note_on_c, 0, 67, 0
2, 4532, Note_on_c, 0, 84, 80
2, 4534, Note_on_c, 0, 60, 80
2, 4534, Note_on_c, 0, 80, 80
2, 4536, Note_on_c, 0, 72, 80
2, 4559, Note_on_c, 0, 72, 0
2, 4559, Note_on_c, 0, 84, 0
2, 4559, Control_c, 0, 64, 127
2, 4580, Note_on_c, 0, 80, 0
2, 4582, Note_on_c, 0, 84, 80
2, 4584, Note_on_c, 0, 60, 0
2, 4585, Note_on_c, 0, 72, 80
2, 4587, Note_on_c, 0, 79, 80
2, 4638, Note_on_c, 0, 79, 0
2, 4638, Note_on_c, 0, 72, 0
2, 4638, Note_on_c, 0, 84, 0
2, 4640, Note_on_c, 0, 56, 80
2, 4642, Note_on_c, 0, 60, 80
2, 4642, Note_on_c, 0, 63, 80
2, 4642, Note_on_c, 0, 68, 80
2, 4646, Note_on_c, 0, 51, 80
2, 4667, Control_c, 0, 64, 0
2, 4671, Note_on_c, 0, 48, 0
2, 4696, Note_on_c, 0, 56, 0
2, 4696, Note_on_c, 0, 77, 80
2, 4696, Note_on_c, 0, 84, 80
2, 4698, Note_on_c, 0, 68, 0
2, 4698, Note_on_c, 0, 63, 0
2, 4698, Note_on_c, 0, 51, 0
2, 4698, Note_on_c, 0, 72, 80
2, 4754, Note_on_c, 0, 39, 80
2, 4754, Note_on_c, 0, 51, 80
2, 4754, Note_on_c, 0, 68, 80
2, 4774, Note_on_c, 0, 72, 0
2, 4774, Note_on_c, 0, 77, 0
2, 4777, Note_on_c, 0, 60, 0
2, 4777, Note_on_c, 0, 84, 0
2, 4800, Note_on_c, 0, 68, 0
2, 4800, Note_on_c, 0, 39, 0
2, 4800, Note_on_c, 0, 87, 80
2, 4802, Note_on_c, 0, 75, 80
2, 4804, Note_on_c, 0, 51, 0
2, 4853, Note_on_c, 0, 87, 0
2, 4853, Note_on_c, 0, 89, 80
2, 4855, Note_on_c, 0, 77, 80
2, 4857, Note_on_c, 0, 75, 0
2, 4861, Note_on_c, 0, 51, 80
2, 4861, Note_on_c, 0, 56, 80
2, 4861, Note_on_c, 0, 60, 80
2, 4861, Note_on_c, 0, 63, 80
2, 4861, Note_on_c, 0, 68, 80
2, 4905, Note_on_c, 0, 63, 0
2, 4905, Note_on_c, 0, 77, 0
2, 4905, Note_on_c, 0, 89, 0
2, 4905, Note_on_c, 0, 60, 0
2, 4905, Note_on_c, 0, 91, 80
2, 4907, Note_on_c, 0, 79, 80
2, 4909, Note_on_c, 0, 56, 0
2, 4909, Note_on_c, 0, 51, 0
2, 4953, Note_on_c, 0, 91, 0
2, 4955, Note_on_c, 0, 79, 0
2, 4955, Note_on_c, 0, 44, 80
2, 4957, Note_on_c, 0, 56, 80
2, 4957, Note_on_c, 0, 63, 80
2, 4957, Note_on_c, 0, 84, 80
2, 4957, Note_on_c, 0, 92, 80
2, 4957, Note_on_c, 0, 96, 80
2, 4961, Note_on_c, 0, 72, 80
2, 4976, Note_on_c, 0, 96, 0
2, 4982, Note_on_c, 0, 68, 0
2, 4982, Note_on_c, 0, 84, 0
2, 4982, Control_c, 0, 64, 127
2, 5003, Note_on_c, 0, 92, 0
2, 5005, Note_on_c, 0, 96, 80
2, 5007, Note_on_c, 0, 72, 0
2, 5007, Note_on_c, 0, 56, 0
2, 5009, Note_on_c, 0, 44, 0
2, 5009, Note_on_c, 0, 63, 0
2, 5009, Note_on_c, 0, 91, 80
2, 5011, Note_on_c, 0, 84, 80
2, 5053, Note_on_c, 0, 96, 0
2, 5057, Note_on_c, 0, 84, 0
2, 5057, Note_on_c, 0, 91, 0
2, 5061, Note_on_c, 0, 56, 80
2, 5061, Note_on_c, 0, 63, 80
2, 5061, Note_on_c, 0, 68, 80
2, 5064, Note_on_c, 0, 51, 80
2, 5064, Note_on_c, 0, 60, 80
2, 5084, Control_c, 0, 64, 0
2, 5107, Note_on_c, 0, 84, 80
2, 5107, Note_on_c, 0, 89, 80
2, 5107, Note_on_c, 0, 96, 80
2, 5109, Note_on_c, 0, 60, 0
2, 5109, Note_on_c, 0, 56, 0
2, 5111, Note_on_c, 0, 63, 0
2, 5111, Note_on_c, 0, 51, 0
2, 5111, Note_on_c, 0, 68, 0
2, 5157, Note_on_c, 0, 60, 80
2, 5159, Note_on_c, 0, 84, 0
2, 5159, Note_on_c, 0, 56, 80
2, 5159, Note_on_c, 0, 63, 80
2, 5159, Note_on_c, 0, 68, 80
2, 5162, Note_on_c, 0, 51, 80
2, 5176, Note_on_c, 0, 96, 0
2, 5182, Note_on_c, 0, 89, 0
2, 5207, Note_on_c, 0, 84, 80
2, 5208, Note_on_c, 0, 68, 0
2, 5208, Note_on_c, 0, 63, 0
2, 5208, Note_on_c, 0, 56, 0
2, 5208, Note_on_c, 0, 60, 0
2, 5208, Note_on_c, 0, 51, 0
2, 5261, Note_on_c, 0, 84, 0
2, 5263, Note_on_c, 0, 85, 80
2, 5314, Note_on_c, 0, 85, 0
2, 5316, Note_on_c, 0, 86, 80
2, 5369, Note_on_c, 0, 86, 0
2, 5371, Note_on_c, 0, 87, 80
2, 5376, Note_on_c, 0, 80, 80
2, 5401, Control_c, 0, 64, 127
2, 5421, Note_on_c, 0, 80, 0
2, 5421, Note_on_c, 0, 87, 0
2, 5423, Note_on_c, 0, 92, 80
2, 5475, Note_on_c, 0, 92, 0
2, 5483, Note_on_c, 0, 77, 80
2, 5504, Control_c, 0, 64, 0
2, 5531, Note_on_c, 0, 77, 0
2, 5533, Note_on_c, 0, 80, 80
2, 5533, Note_on_c, 0, 83, 80
2, 5533, Note_on_c, 0, 89, 80
2, 5584, Note_on_c, 0, 74, 80
2, 5609, Note_on_c, 0, 89, 0
2, 5609, Note_on_c, 0, 80, 0
2, 5609, Note_on_c, 0, 83, 0
2, 5632, Note_on_c, 0, 74, 0
2, 5636, Note_on_c, 0, 86, 80
2, 5682, Note_on_c, 0, 86, 0
2, 5688, Note_on_c, 0, 71, 80
2, 5688, Note_on_c, 0, 83, 80
2, 5734, Note_on_c, 0, 83, 0
2, 5734, Note_on_c, 0, 71, 0
2, 5736, Note_on_c, 0, 80, 80
2, 5786, Note_on_c, 0, 80, 0
2, 5790, Note_on_c, 0, 68, 80
2, 5790, Note_on_c, 0, 77, 80
2, 5815, Control_c, 0, 64, 127
2, 5844, Note_on_c, 0, 77, 0
2, 5846, Note_on_c, 0, 68, 0
2, 5848, Note_on_c, 0, 79, 80
2, 5897, Note_on_c, 0, 79, 0
2, 5899, Note_on_c, 0, 80, 80
2, 5904, Note_on_c, 0, 65, 80
2, 5924, Control_c, 0, 64, 0
2, 5949, Note_on_c, 0, 80, 0
2, 5952, Note_on_c, 0, 65, 0
2, 5952, Note_on_c, 0, 83, 80
2, 6005, Note_on_c, 0, 62, 80
2, 6032, Note_on_c, 0, 83, 0
2, 6057, Note_on_c, 0, 62, 0
2, 6057, Note_on_c, 0, 80, 80
2, 6112, Note_on_c, 0, 80, 0
2, 6114, Note_on_c, 0, 77, 80
2, 6118, Note_on_c, 0, 59, 80
2, 6164, Note_on_c, 0, 77, 0
2, 6168, Note_on_c, 0, 74, 80
2, 6169, Note_on_c, 0, 59, 0
2, 6214, Note_on_c, 0, 48, 80
2, 6219, Note_on_c, 0, 74, 0
2, 6225, Note_on_c, 0, 60, 80
2, 6225, Note_on_c, 0, 72, 80
2, 6225, Note_on_c, 0, 80, 80
2, 6225, Note_on_c, 0, 84, 80
2, 6227, Note_on_c, 0, 68, 80
2, 6248, Note_on_c, 0, 84, 0
2, 6250, Note_on_c, 0, 72, 0
2, 6250, Control_c, 0, 64, 127
2, 6273, Note_on_c, 0, 84, 80
2, 6275, Note_on_c, 0, 80, 0
2, 6275, Note_on_c, 0, 60, 0
2, 6275, Note_on_c, 0, 67, 80
2, 6275, Note_on_c, 0, 72, 80
2, 6275, Note_on_c, 0, 79, 80
2, 6277, Note_on_c, 0, 68, 0
2, 6323, Note_on_c, 0, 84, 0
2, 6325, Note_on_c, 0, 67, 0
2, 6325, Note_on_c, 0, 72, 0
2, 6325, Note_on_c, 0, 79, 0
2, 6327, Note_on_c, 0, 51, 80
2, 6327, Note_on_c, 0, 56, 80
2, 6327, Note_on_c, 0, 60, 80
2, 6327, Note_on_c, 0, 63, 80
2, 6329, Note_on_c, 0, 68, 80
2, 6350, Note_on_c, 0, 48, 0
2, 6350, Control_c, 0, 64, 0
2, 6373, Note_on_c, 0, 63, 0
2, 6373, Note_on_c, 0, 72, 80
2, 6373, Note_on_c, 0, 77, 80
2, 6373, Note_on_c, 0, 84, 80
2, 6375, Note_on_c, 0, 51, 0
2, 6375, Note_on_c, 0, 56, 0
2, 6375, Note_on_c, 0, 68, 0
2, 6379, Note_on_c, 0, 65, 80
2, 6428, Note_on_c, 0, 51, 80
2, 6428, Note_on_c, 0, 68, 80
2, 6432, Note_on_c, 0, 39, 80
2, 6451, Note_on_c, 0, 65, 0
2, 6451, Note_on_c, 0, 72, 0
2, 6451, Note_on_c, 0, 60, 0
2, 6451, Note_on_c, 0, 84, 0
2, 6451, Note_on_c, 0, 77, 0
2, 6474, Note_on_c, 0, 39, 0
2, 6476, Note_on_c, 0, 87, 80
2, 6478, Note_on_c, 0, 68, 0
2, 6478, Note_on_c, 0, 51, 0
2, 6480, Note_on_c, 0, 75, 80
2, 6526, Note_on_c, 0, 87, 0
2, 6528, Note_on_c, 0, 75, 0
2, 6529, Note_on_c, 0, 56, 80
2, 6529, Note_on_c, 0, 60, 80
2, 6529, Note_on_c, 0, 77, 80
2, 6529, Note_on_c, 0, 89, 80
2, 6531, Note_on_c, 0, 51, 80
2, 6531, Note_on_c, 0, 63, 80
2, 6531, Note_on_c, 0, 68, 80
2, 6574, Note_on_c, 0, 91, 80
2, 6576, Note_on_c, 0, 63, 0
2, 6576, Note_on_c, 0, 77, 0
2, 6576, Note_on_c, 0, 56, 0
2, 6576, Note_on_c, 0, 60, 0
2, 6576, Note_on_c, 0, 89, 0
2, 6579, Note_on_c, 0, 51, 0
2, 6579, Note_on_c, 0, 79, 80
2, 6618, Note_on_c, 0, 48, 80
2, 6622, Note_on_c, 0, 79, 0
2, 6624, Note_on_c, 0, 96, 80
2, 6625, Note_on_c, 0, 91, 0
2, 6627, Note_on_c, 0, 60, 80
2, 6627, Note_on_c, 0, 63, 80
2, 6627, Note_on_c, 0, 84, 80
2, 6627, Note_on_c, 0, 92, 80
2, 6648, Note_on_c, 0, 96, 0
2, 6650, Control_c, 0, 64, 127
2, 6652, Note_on_c, 0, 68, 0
2, 6652, Note_on_c, 0, 84, 0
2, 6675, Note_on_c, 0, 63, 0
2, 6675, Note_on_c, 0, 92, 0
2, 6677, Note_on_c, 0, 84, 80
2, 6677, Note_on_c, 0, 91, 80
2, 6677, Note_on_c, 0, 96, 80
2, 6679, Note_on_c, 0, 48, 0
2, 6679, Note_on_c, 0, 60, 0
2, 6725, Note_on_c, 0, 96, 0
2, 6729, Note_on_c, 0, 84, 0
2, 6729, Note_on_c, 0, 91, 0
2, 6731, Note_on_c, 0, 56, 80
2, 6731, Note_on_c, 0, 60, 80
2, 6731, Note_on_c, 0, 63, 80
2, 6733, Note_on_c, 0, 51, 80
2, 6733, Note_on_c, 0, 68, 80
2, 6758, Control_c, 0, 64, 0
2, 6783, Note_on_c, 0, 84, 80
2, 6783, Note_on_c, 0, 89, 80
2, 6783, Note_on_c, 0, 96, 80
2, 6785, Note_on_c, 0, 68, 0
2, 6785, Note_on_c, 0, 51, 0
2, 6785, Note_on_c, 0, 56, 0
2, 6785, Note_on_c, 0, 60, 0
2, 6829, Note_on_c, 0, 44, 80
2, 6840, Note_on_c, 0, 56, 80
2, 6887, Note_on_c, 0, 96, 0
2, 6890, Note_on_c, 0, 84, 0
2, 6890, Note_on_c, 0, 89, 0
2, 6892, Note_on_c, 0, 63, 0
2, 6892, Note_on_c, 0, 44, 0
2, 6892, Note_on_c, 0, 56, 0
2, 6953, Note_on_c, 0, 45, 80
2, 6953, Note_on_c, 0, 57, 80
2, 6953, Note_on_c, 0, 63, 80
2, 6953, Note_on_c, 0, 69, 80
2, 6953, Note_on_c, 0, 71, 80
2, 6953, Note_on_c, 0, 75, 80
2, 6953, Note_on_c, 0, 78, 80
2, 6953, Note_on_c, 0, 83, 80
2, 6999, Note_on_c, 0, 83, 0
2, 6999, Note_on_c, 0, 78, 0
2, 6999, Note_on_c, 0, 71, 0
2, 6999, Note_on_c, 0, 75, 0
2, 7001, Note_on_c, 0, 69, 0
2, 7003, Note_on_c, 0, 57, 0
2, 7005, Note_on_c, 0, 63, 0
2, 7005, Note_on_c, 0, 45, 0
2, 7057, Note_on_c, 0, 82, 80
2, 7059, Note_on_c, 0, 58, 80
2, 7059, Note_on_c, 0, 63, 80
2, 7059, Note_on_c, 0, 70, 80
2, 7059, Note_on_c, 0, 75, 80
2, 7061, Note_on_c, 0, 46, 80
2, 7061, Note_on_c, 0, 67, 80
2, 7061, Note_on_c, 0, 79, 80
2, 7084, Note_on_c, 0, 75, 0
2, 7084, Control_c, 0, 64, 127
2, 7107, Note_on_c, 0, 79, 0
2, 7107, Note_on_c, 0, 70, 0
2, 7107, Note_on_c, 0, 82, 0
2, 7109, Note_on_c, 0, 67, 0
2, 7109, Note_on_c, 0, 75, 80
2, 7109, Note_on_c, 0, 87, 80
2, 7111, Note_on_c, 0, 58, 0
2, 7111, Note_on_c, 0, 63, 0
2, 7111, Note_on_c, 0, 46, 0
2, 7162, Note_on_c, 0, 75, 0
2, 7162, Note_on_c, 0, 87, 0
2, 7164, Note_on_c, 0, 58, 80
2, 7166, Note_on_c, 0, 55, 80
2, 7166, Note_on_c, 0, 63, 80
2, 7166, Note_on_c, 0, 67, 80
2, 7191, Control_c, 0, 64, 0
2, 7214, Note_on_c, 0, 74, 80
2, 7214, Note_on_c, 0, 79, 80
2, 7214, Note_on_c, 0, 82, 80
2, 7214, Note_on_c, 0, 86, 80
2, 7216, Note_on_c, 0, 55, 0
2, 7216, Note_on_c, 0, 58, 0
2, 7254, Note_on_c, 0, 43, 80
2, 7266, Note_on_c, 0, 55, 80
2, 7287, Note_on_c, 0, 79, 0
2, 7287, Note_on_c, 0, 86, 0
2, 7287, Note_on_c, 0, 74, 0
2, 7287, Note_on_c, 0, 82, 0
2, 7312, Note_on_c, 0, 63, 0
2, 7316, Note_on_c, 0, 55, 0
2, 7318, Note_on_c, 0, 67, 0
2, 7318, Note_on_c, 0, 43, 0
2, 7367, Note_on_c, 0, 70, 80
2, 7367, Note_on_c, 0, 72, 80
2, 7367, Note_on_c, 0, 82, 80
2, 7367, Note_on_c, 0, 84, 80
2, 7368, Note_on_c, 0, 52, 80
2, 7368, Note_on_c, 0, 60, 80
2, 7368, Note_on_c, 0, 64, 80
2, 7368, Note_on_c, 0, 79, 80
2, 7372, Note_on_c, 0, 40, 80
2, 7411, Note_on_c, 0, 84, 0
2, 7411, Note_on_c, 0, 82, 0
2, 7413, Note_on_c, 0, 79, 0
2, 7413, Note_on_c, 0, 70, 0
2, 7413, Note_on_c, 0, 72, 0
2, 7415, Note_on_c, 0, 64, 0
2, 7415, Note_on_c, 0, 60, 0
2, 7416, Note_on_c, 0, 40, 0
2, 7416, Note_on_c, 0, 52, 0
2, 7465, Note_on_c, 0, 53, 80
2, 7465, Note_on_c, 0, 63, 80
2, 7465, Note_on_c, 0, 69, 80
2, 7465, Note_on_c, 0, 74, 80
2, 7465, Note_on_c, 0, 75, 80
2, 7465, Note_on_c, 0, 81, 80
2, 7465, Note_on_c, 0, 85, 80
2, 7469, Note_on_c, 0, 41, 80
2, 7483, Note_on_c, 0, 81, 0
2, 7487, Note_on_c, 0, 75, 0
2, 7488, Control_c, 0, 64, 127
2, 7508, Note_on_c, 0, 85, 0
2, 7510, Note_on_c, 0, 74, 0
2, 7510, Note_on_c, 0, 84, 80
2, 7512, Note_on_c, 0, 63, 0
2, 7512, Note_on_c, 0, 41, 0
2, 7513, Note_on_c, 0, 53, 0
2, 7513, Note_on_c, 0, 72, 80
2, 7513, Note_on_c, 0, 75, 80
2, 7513, Note_on_c, 0, 81, 80
2, 7560, Note_on_c, 0, 81, 0
2, 7561, Note_on_c, 0, 72, 0
2, 7563, Note_on_c, 0, 75, 0
2, 7563, Note_on_c, 0, 84, 0
2, 7567, Note_on_c, 0, 53, 80
2, 7567, Note_on_c, 0, 57, 80
2, 7567, Note_on_c, 0, 63, 80
2, 7592, Control_c, 0, 64, 0
2, 7617, Note_on_c, 0, 57, 0
2, 7619, Note_on_c, 0, 67, 80
2, 7619, Note_on_c, 0, 70, 80
2, 7619, Note_on_c, 0, 74, 80
2, 7619, Note_on_c, 0, 79, 80
2, 7621, Note_on_c, 0, 53, 0
2, 7629, Note_on_c, 0, 69, 0
2, 7680, Note_on_c, 0, 34, 80
2, 7680, Note_on_c, 0, 46, 80
2, 7680, Note_on_c, 0, 62, 80
2, 7680, Note_on_c, 0, 68, 80
2, 7689, Note_on_c, 0, 67, 0
2, 7689, Note_on_c, 0, 63, 0
2, 7699, Note_on_c, 0, 79, 0
2, 7703, Note_on_c, 0, 74, 0
2, 7703, Note_on_c, 0, 70, 0
2, 7728, Note_on_c, 0, 34, 0
2, 7728, Note_on_c, 0, 82, 80
2, 7729, Note_on_c, 0, 62, 0
2, 7729, Note_on_c, 0, 46, 0
2, 7778, Note_on_c, 0, 82, 0
2, 7784, Note_on_c, 0, 68, 0
2, 7784, Note_on_c, 0, 62, 80
2, 7786, Note_on_c, 0, 56, 80
2, 7786, Note_on_c, 0, 58, 80
2, 7835, Note_on_c, 0, 58, 0
2, 7835, Note_on_c, 0, 62, 0
2, 7839, Note_on_c, 0, 56, 0
2, 7839, Note_on_c, 0, 65, 80
2, 7839, Note_on_c, 0, 68, 80
2, 7839, Note_on_c, 0, 74, 80
2, 7839, Note_on_c, 0, 77, 80
2, 7888, Note_on_c, 0, 77, 0
2, 7888, Note_on_c, 0, 74, 0
2, 7890, Note_on_c, 0, 63, 80
2, 7890, Note_on_c, 0, 67, 80
2, 7892, Note_on_c, 0, 68, 0
2, 7892, Note_on_c, 0, 65, 0
2, 7894, Note_on_c, 0, 55, 80
2, 7894, Note_on_c, 0, 58, 80
2, 7894, Note_on_c, 0, 70, 80
2, 7894, Note_on_c, 0, 75, 80
2, 7915, Control_c, 0, 64, 127
2, 7940, Note_on_c, 0, 75, 0
2, 7940, Note_on_c, 0, 55, 0
2, 7940, Note_on_c, 0, 70, 0
2, 7942, Note_on_c, 0, 67, 0
2, 7942, Note_on_c, 0, 58, 0
2, 7942, Note_on_c, 0, 63, 0
2, 8002, Note_on_c, 0, 53, 80
2, 8002, Note_on_c, 0, 65, 80
2, 8039, Control_c, 0, 64, 0
2, 8050, Note_on_c, 0, 53, 0
2, 8056, Note_on_c, 0, 65, 0
2, 8056, Note_on_c, 0, 51, 80
2, 8056, Note_on_c, 0, 63, 80
2, 8132, Note_on_c, 0, 63, 0
2, 8136, Note_on_c, 0, 51, 0
2, 8159, Note_on_c, 0, 61, 80
2, 8162, Note_on_c, 0, 49, 80
2, 8211, Note_on_c, 0, 49, 0
2, 8211, Note_on_c, 0, 61, 0
2, 8213, Note_on_c, 0, 58, 80
2, 8217, Note_on_c, 0, 46, 80
2, 8268, Note_on_c, 0, 58, 0
2, 8270, Note_on_c, 0, 46, 0
2, 8330, Note_on_c, 0, 39, 80
2, 8330, Note_on_c, 0, 51, 80
2, 8353, Control_c, 0, 64, 127
2, 8382, Note_on_c, 0, 51, 0
2, 8384, Note_on_c, 0, 39, 0
2, 8464, Control_c, 0, 64, 0
2, 8545, Note_on_c, 0, 82, 80
2, 8545, Note_on_c, 0, 87, 80
2, 8545, Note_on_c, 0, 58, 80
2, 8545, Note_on_c, 0, 63, 80
2, 8545, Note_on_c, 0, 67, 80
2, 8545, Note_on_c, 0, 70, 80
2, 8545, Note_on_c, 0, 75, 80
2, 8545, Note_on_c, 0, 79, 80
2, 8549, Note_on_c, 0, 39, 80
2, 8549, Note_on_c, 0, 51, 80
2, 8590, Note_on_c, 0, 79, 0
2, 8590, Note_on_c, 0, 75, 0
2, 8590, Note_on_c, 0, 82, 0
2, 8590, Note_on_c, 0, 70, 0
2, 8590, Note_on_c, 0, 87, 0
2, 8592, Note_on_c, 0, 39, 0
2, 8592, Note_on_c, 0, 67, 0
2, 8592, Note_on_c, 0, 84, 80
2, 8593, Note_on_c, 0, 58, 0
2, 8595, Note_on_c, 0, 63, 0
2, 8595, Note_on_c, 0, 51, 0
2, 8644, Note_on_c, 0, 84, 0
2, 8646, Note_on_c, 0, 85, 80
2, 8688, Note_on_c, 0, 85, 0
2, 8696, Note_on_c, 0, 86, 80
2, 8742, Note_on_c, 0, 86, 0
2, 8742, Note_on_c, 0, 80, 80
2, 8742, Note_on_c, 0, 87, 80
2, 8769, Control_c, 0, 64, 127
2, 8790, Note_on_c, 0, 87, 0
2, 8790, Note_on_c, 0, 80, 0
2, 8792, Note_on_c, 0, 92, 80
2, 8843, Note_on_c, 0, 92, 0
2, 8849, Note_on_c, 0, 77, 80
2, 8874, Control_c, 0, 64, 0
2, 8897, Note_on_c, 0, 77, 0
2, 8897, Note_on_c, 0, 80, 80
2, 8897, Note_on_c, 0, 89, 80
2, 8899, Note_on_c, 0, 83, 80
2, 8950, Note_on_c, 0, 74, 80
2, 8971, Note_on_c, 0, 89, 0
2, 8973, Note_on_c, 0, 80, 0
2, 8975, Note_on_c, 0, 83, 0
2, 8998, Note_on_c, 0, 74, 0
2, 9001, Note_on_c, 0, 86, 80
2, 9052, Note_on_c, 0, 86, 0
2, 9054, Note_on_c, 0, 71, 80
2, 9054, Note_on_c, 0, 83, 80
2, 9107, Note_on_c, 0, 83, 0
2, 9107, Note_on_c, 0, 71, 0
2, 9109, Note_on_c, 0, 80, 80
2, 9164, Note_on_c, 0, 80, 0
2, 9168, Note_on_c, 0, 68, 80
2, 9168, Note_on_c, 0, 77, 80
2, 9198, Control_c, 0, 64, 127
2, 9219, Note_on_c, 0, 77, 0
2, 9219, Note_on_c, 0, 68, 0
2, 9221, Note_on_c, 0, 79, 80
2, 9272, Note_on_c, 0, 79, 0
2, 9274, Note_on_c, 0, 80, 80
2, 9278, Note_on_c, 0, 65, 80
2, 9299, Control_c, 0, 64, 0
2, 9320, Note_on_c, 0, 80, 0
2, 9324, Note_on_c, 0, 83, 80
2, 9326, Note_on_c, 0, 65, 0
2, 9377, Note_on_c, 0, 62, 80
2, 9402, Note_on_c, 0, 83, 0
2, 9425, Note_on_c, 0, 80, 80
2, 9429, Note_on_c, 0, 62, 0
2, 9473, Note_on_c, 0, 80, 0
2, 9479, Note_on_c, 0, 77, 80
2, 9480, Note_on_c, 0, 59, 80
2, 9529, Note_on_c, 0, 59, 0
2, 9529, Note_on_c, 0, 77, 0
2, 9531, Note_on_c, 0, 74, 80
2, 9580, Note_on_c, 0, 74, 0
2, 9580, Note_on_c, 0, 72, 80
2, 9580, Note_on_c, 0, 80, 80
2, 9580, Note_on_c, 0, 84, 80
2, 9582, Note_on_c, 0, 48, 80
2, 9582, Note_on_c, 0, 60, 80
2, 9582, Note_on_c, 0, 68, 80
2, 9601, Note_on_c, 0, 84, 0
2, 9603, Note_on_c, 0, 72, 0
2, 9626, Note_on_c, 0, 80, 0
2, 9626, Note_on_c, 0, 68, 0
2, 9626, Note_on_c, 0, 84, 80
2, 9628, Note_on_c, 0, 67, 80
2, 9628, Note_on_c, 0, 79, 80
2, 9630, Note_on_c, 0, 60, 0
2, 9630, Note_on_c, 0, 72, 80
2, 9672, Note_on_c, 0, 72, 0
2, 9672, Note_on_c, 0, 79, 0
2, 9672, Note_on_c, 0, 84, 0
2, 9674, Note_on_c, 0, 67, 0
2, 9674, Note_on_c, 0, 56, 80
2, 9676, Note_on_c, 0, 60, 80
2, 9676, Note_on_c, 0, 63, 80
2, 9676, Note_on_c, 0, 68, 80
2, 9680, Note_on_c, 0, 51, 80
2, 9703, Note_on_c, 0, 48, 0
2, 9724, Note_on_c, 0, 68, 0
2, 9724, Note_on_c, 0, 63, 0
2, 9724, Note_on_c, 0, 56, 0
2, 9724, Note_on_c, 0, 84, 80
2, 9726, Note_on_c, 0, 72, 80
2, 9726, Note_on_c, 0, 77, 80
2, 9728, Note_on_c, 0, 51, 0
2, 9730, Note_on_c, 0, 65, 80
2, 9779, Note_on_c, 0, 39, 80
2, 9779, Note_on_c, 0, 51, 80
2, 9779, Note_on_c, 0, 68, 80
2, 9798, Note_on_c, 0, 72, 0
2, 9798, Note_on_c, 0, 77, 0
2, 9798, Note_on_c, 0, 84, 0
2, 9802, Note_on_c, 0, 60, 0
2, 9802, Note_on_c, 0, 65, 0
2, 9829, Note_on_c, 0, 68, 0
2, 9829, Note_on_c, 0, 51, 0
2, 9829, Note_on_c, 0, 39, 0
2, 9829, Note_on_c, 0, 87, 80
2, 9831, Note_on_c, 0, 75, 80
2, 9875, Note_on_c, 0, 87, 0
2, 9877, Note_on_c, 0, 75, 0
2, 9877, Note_on_c, 0, 89, 80
2, 9879, Note_on_c, 0, 56, 80
2, 9879, Note_on_c, 0, 77, 80
2, 9881, Note_on_c, 0, 63, 80
2, 9881, Note_on_c, 0, 68, 80
2, 9885, Note_on_c, 0, 51, 80
2, 9885, Note_on_c, 0, 60, 80
2, 9929, Note_on_c, 0, 89, 0
2, 9931, Note_on_c, 0, 91, 80
2, 9933, Note_on_c, 0, 51, 0
2, 9933, Note_on_c, 0, 63, 0
2, 9933, Note_on_c, 0, 77, 0
2, 9933, Note_on_c, 0, 56, 0
2, 9933, Note_on_c, 0, 60, 0
2, 9933, Note_on_c, 0, 79, 80
2, 9979, Note_on_c, 0, 79, 0
2, 9979, Note_on_c, 0, 92, 80
2, 9979, Note_on_c, 0, 96, 80
2, 9981, Note_on_c, 0, 91, 0
2, 9981, Note_on_c, 0, 84, 80
2, 9986, Note_on_c, 0, 60, 80
2, 9986, Note_on_c, 0, 63, 80
2, 9988, Note_on_c, 0, 48, 80
2, 10002, Note_on_c, 0, 96, 0
2, 10006, Note_on_c, 0, 84, 0
2, 10011, Note_on_c, 0, 68, 0
2, 10011, Control_c, 0, 64, 127
2, 10029, Note_on_c, 0, 92, 0
2, 10032, Note_on_c, 0, 96, 80
2, 10034, Note_on_c, 0, 63, 0
2, 10034, Note_on_c, 0, 84, 80
2, 10034, Note_on_c, 0, 91, 80
2, 10036, Note_on_c, 0, 60, 0
2, 10082, Note_on_c, 0, 96, 0
2, 10082, Note_on_c, 0, 91, 0
2, 10088, Note_on_c, 0, 84, 0
2, 10090, Note_on_c, 0, 51, 80
2, 10090, Note_on_c, 0, 56, 80
2, 10090, Note_on_c, 0, 60, 80
2, 10090, Note_on_c, 0, 63, 80
2, 10090, Note_on_c, 0, 68, 80
2, 10115, Note_on_c, 0, 48, 0
2, 10117, Control_c, 0, 64, 0
2, 10134, Note_on_c, 0, 96, 80
2, 10138, Note_on_c, 0, 68, 0
2, 10138, Note_on_c, 0, 89, 80
2, 10140, Note_on_c, 0, 84, 80
2, 10142, Note_on_c, 0, 60, 0
2, 10142, Note_on_c, 0, 51, 0
2, 10142, Note_on_c, 0, 56, 0
2, 10193, Note_on_c, 0, 60, 80
2, 10195, Note_on_c, 0, 63, 0
2, 10197, Note_on_c, 0, 48, 80
2, 10212, Note_on_c, 0, 96, 0
2, 10216, Note_on_c, 0, 84, 0
2, 10216, Note_on_c, 0, 89, 0
2, 10245, Note_on_c, 0, 60, 0
2, 10245, Note_on_c, 0, 48, 0
2, 10247, Note_on_c, 0, 63, 80
2, 10247, Note_on_c, 0, 75, 80
2, 10287, Note_on_c, 0, 45, 80
2, 10296, Note_on_c, 0, 75, 0
2, 10300, Note_on_c, 0, 57, 80
2, 10300, Note_on_c, 0, 77, 80
2, 10302, Note_on_c, 0, 63, 0
2, 10304, Note_on_c, 0, 65, 80
2, 10348, Note_on_c, 0, 79, 80
2, 10350, Note_on_c, 0, 77, 0
2, 10350, Note_on_c, 0, 57, 0
2, 10350, Note_on_c, 0, 67, 80
2, 10352, Note_on_c, 0, 65, 0
2, 10364, Note_on_c, 0, 45, 0
2, 10392, Note_on_c, 0, 46, 80
2, 10398, Note_on_c, 0, 79, 0
2, 10404, Note_on_c, 0, 67, 0
2, 10404, Note_on_c, 0, 73, 80
2, 10404, Note_on_c, 0, 80, 80
2, 10404, Note_on_c, 0, 85, 80
2, 10406, Note_on_c, 0, 58, 80
2, 10425, Note_on_c, 0, 85, 0
2, 10425, Note_on_c, 0, 73, 0
2, 10431, Control_c, 0, 64, 127
2, 10452, Note_on_c, 0, 80, 0
2, 10454, Note_on_c, 0, 73, 80
2, 10454, Note_on_c, 0, 79, 80
2, 10454, Note_on_c, 0, 85, 80
2, 10503, Note_on_c, 0, 85, 0
2, 10503, Note_on_c, 0, 79, 0
2, 10507, Note_on_c, 0, 73, 0
2, 10509, Note_on_c, 0, 55, 80
2, 10509, Note_on_c, 0, 61, 80
2, 10511, Note_on_c, 0, 51, 80
2, 10511, Note_on_c, 0, 63, 80
2, 10511, Note_on_c, 0, 67, 80
2, 10534, Note_on_c, 0, 46, 0
2, 10534, Control_c, 0, 64, 0
2, 10557, Note_on_c, 0, 61, 0
2, 10560, Note_on_c, 0, 51, 0
2, 10560, Note_on_c, 0, 55, 0
2, 10562, Note_on_c, 0, 63, 0
2, 10562, Note_on_c, 0, 67, 0
2, 10562, Note_on_c, 0, 73, 80
2, 10562, Note_on_c, 0, 77, 80
2, 10562, Note_on_c, 0, 85, 80
2, 10621, Note_on_c, 0, 51, 80
2, 10621, Note_on_c, 0, 67, 80
2, 10623, Note_on_c, 0, 39, 80
2, 10640, Note_on_c, 0, 85, 0
2, 10640, Note_on_c, 0, 77, 0
2, 10640, Note_on_c, 0, 73, 0
2, 10644, Note_on_c, 0, 58, 0
2, 10669, Note_on_c, 0, 39, 0
2, 10673, Note_on_c, 0, 51, 0
2, 10675, Note_on_c, 0, 67, 0
2, 10675, Note_on_c, 0, 75, 80
2, 10675, Note_on_c, 0, 87, 80
2, 10724, Note_on_c, 0, 87, 0
2, 10728, Note_on_c, 0, 61, 80
2, 10729, Note_on_c, 0, 75, 0
2, 10729, Note_on_c, 0, 67, 80
2, 10729, Note_on_c, 0, 89, 80
2, 10731, Note_on_c, 0, 55, 80
2, 10731, Note_on_c, 0, 77, 80
2, 10733, Note_on_c, 0, 51, 80
2, 10733, Note_on_c, 0, 63, 80
2, 10779, Note_on_c, 0, 89, 0
2, 10781, Note_on_c, 0, 77, 0
2, 10781, Note_on_c, 0, 61, 0
2, 10781, Note_on_c, 0, 91, 80
2, 10783, Note_on_c, 0, 79, 80
2, 10785, Note_on_c, 0, 55, 0
2, 10785, Note_on_c, 0, 63, 0
2, 10785, Note_on_c, 0, 51, 0
2, 10827, Note_on_c, 0, 46, 80
2, 10833, Note_on_c, 0, 91, 0
2, 10833, Note_on_c, 0, 61, 80
2, 10835, Note_on_c, 0, 79, 0
2, 10835, Note_on_c, 0, 92, 80
2, 10835, Note_on_c, 0, 97, 80
2, 10837, Note_on_c, 0, 58, 80
2, 10837, Note_on_c, 0, 85, 80
2, 10852, Note_on_c, 0, 97, 0
2, 10856, Note_on_c, 0, 85, 0
2, 10862, Note_on_c, 0, 67, 0
2, 10862, Control_c, 0, 64, 127
2, 10883, Note_on_c, 0, 92, 0
2, 10885, Note_on_c, 0, 61, 0
2, 10885, Note_on_c, 0, 58, 0
2, 10887, Note_on_c, 0, 91, 80
2, 10887, Note_on_c, 0, 97, 80
2, 10889, Note_on_c, 0, 46, 0
2, 10889, Note_on_c, 0, 85, 80
2, 10935, Note_on_c, 0, 97, 0
2, 10939, Note_on_c, 0, 85, 0
2, 10939, Note_on_c, 0, 91, 0
2, 10943, Note_on_c, 0, 51, 80
2, 10943, Note_on_c, 0, 55, 80
2, 10943, Note_on_c, 0, 61, 80
2, 10943, Note_on_c, 0, 63, 80
2, 10943, Note_on_c, 0, 67, 80
2, 10968, Control_c, 0, 64, 0
2, 10991, Note_on_c, 0, 67, 0
2, 10991, Note_on_c, 0, 63, 0
2, 10992, Note_on_c, 0, 85, 80
2, 10992, Note_on_c, 0, 89, 80
2, 10992, Note_on_c, 0, 97, 80
2, 10994, Note_on_c, 0, 51, 0
2, 10994, Note_on_c, 0, 55, 0
2, 11047, Note_on_c, 0, 39, 80
2, 11047, Note_on_c, 0, 51, 80
2, 11064, Note_on_c, 0, 97, 0
2, 11068, Note_on_c, 0, 85, 0
2, 11068, Note_on_c, 0, 89, 0
2, 11093, Note_on_c, 0, 61, 0
2, 11095, Note_on_c, 0, 39, 0
2, 11095, Note_on_c, 0, 75, 80
2, 11097, Note_on_c, 0, 51, 0
2, 11097, Note_on_c, 0, 63, 80
2, 11146, Note_on_c, 0, 61, 80
2, 11146, Note_on_c, 0, 77, 80
2, 11148, Note_on_c, 0, 75, 0
2, 11150, Note_on_c, 0, 63, 0
2, 11152, Note_on_c, 0, 51, 80
2, 11152, Note_on_c, 0, 55, 80
2, 11152, Note_on_c, 0, 65, 80
2, 11198, Note_on_c, 0, 65, 0
2, 11198, Note_on_c, 0, 61, 0
2, 11198, Note_on_c, 0, 77, 0
2, 11198, Note_on_c, 0, 55, 0
2, 11200, Note_on_c, 0, 67, 80
2, 11200, Note_on_c, 0, 79, 80
2, 11202, Note_on_c, 0, 51, 0
2, 11240, Note_on_c, 0, 48, 80
2, 11248, Note_on_c, 0, 79, 0
2, 11250, Note_on_c, 0, 72, 80
2, 11250, Note_on_c, 0, 80, 80
2, 11250, Note_on_c, 0, 84, 80
2, 11252, Note_on_c, 0, 67, 0
2, 11254, Note_on_c, 0, 60, 80
2, 11275, Note_on_c, 0, 84, 0
2, 11277, Note_on_c, 0, 72, 0
2, 11280, Control_c, 0, 64, 127
2, 11302, Note_on_c, 0, 80, 0
2, 11304, Note_on_c, 0, 84, 80
2, 11305, Note_on_c, 0, 60, 0
2, 11307, Note_on_c, 0, 72, 80
2, 11307, Note_on_c, 0, 79, 80
2, 11353, Note_on_c, 0, 79, 0
2, 11357, Note_on_c, 0, 72, 0
2, 11357, Note_on_c, 0, 84, 0
2, 11359, Note_on_c, 0, 56, 80
2, 11359, Note_on_c, 0, 60, 80
2, 11359, Note_on_c, 0, 63, 80
2, 11359, Note_on_c, 0, 68, 80
2, 11363, Note_on_c, 0, 51, 80
2, 11384, Control_c, 0, 64, 0
2, 11388, Note_on_c, 0, 48, 0
2, 11407, Note_on_c, 0, 56, 0
2, 11409, Note_on_c, 0, 68, 0
2, 11409, Note_on_c, 0, 63, 0
2, 11409, Note_on_c, 0, 72, 80
2, 11409, Note_on_c, 0, 77, 80
2, 11409, Note_on_c, 0, 84, 80
2, 11413, Note_on_c, 0, 51, 0
2, 11466, Note_on_c, 0, 68, 80
2, 11470, Note_on_c, 0, 39, 80
2, 11470, Note_on_c, 0, 51, 80
2, 11489, Note_on_c, 0, 77, 0
2, 11489, Note_on_c, 0, 84, 0
2, 11489, Note_on_c, 0, 72, 0
2, 11493, Note_on_c, 0, 60, 0
2, 11518, Note_on_c, 0, 51, 0
2, 11518, Note_on_c, 0, 39, 0
2, 11518, Note_on_c, 0, 68, 0
2, 11520, Note_on_c, 0, 75, 80
2, 11520, Note_on_c, 0, 87, 80
2, 11570, Note_on_c, 0, 87, 0
2, 11572, Note_on_c, 0, 75, 0
2, 11572, Note_on_c, 0, 56, 80
2, 11572, Note_on_c, 0, 77, 80
2, 11572, Note_on_c, 0, 89, 80
2, 11574, Note_on_c, 0, 60, 80
2, 11574, Note_on_c, 0, 63, 80
2, 11576, Note_on_c, 0, 68, 80
2, 11578, Note_on_c, 0, 51, 80
2, 11618, Note_on_c, 0, 89, 0
2, 11622, Note_on_c, 0, 56, 0
2, 11624, Note_on_c, 0, 63, 0
2, 11624, Note_on_c, 0, 60, 0
2, 11624, Note_on_c, 0, 77, 0
2, 11624, Note_on_c, 0, 91, 80
2, 11626, Note_on_c, 0, 79, 80
2, 11628, Note_on_c, 0, 51, 0
2, 11672, Note_on_c, 0, 44, 80
2, 11674, Note_on_c, 0, 91, 0
2, 11674, Note_on_c, 0, 96, 80
2, 11676, Note_on_c, 0, 79, 0
2, 11676, Note_on_c, 0, 84, 80
2, 11676, Note_on_c, 0, 92, 80
2, 11678, Note_on_c, 0, 56, 80
2, 11678, Note_on_c, 0, 63, 80
2, 11678, Note_on_c, 0, 72, 80
2, 11695, Note_on_c, 0, 96, 0
2, 11699, Note_on_c, 0, 84, 0
2, 11701, Note_on_c, 0, 68, 0
2, 11701, Control_c, 0, 64, 127
2, 11722, Note_on_c, 0, 92, 0
2, 11724, Note_on_c, 0, 72, 0
2, 11724, Note_on_c, 0, 84, 80
2, 11724, Note_on_c, 0, 91, 80
2, 11724, Note_on_c, 0, 96, 80
2, 11726, Note_on_c, 0, 56, 0
2, 11728, Note_on_c, 0, 44, 0
2, 11728, Note_on_c, 0, 63, 0
2, 11772, Note_on_c, 0, 96, 0
2, 11778, Note_on_c, 0, 91, 0
2, 11778, Note_on_c, 0, 84, 0
2, 11782, Note_on_c, 0, 51, 80
2, 11782, Note_on_c, 0, 56, 80
2, 11782, Note_on_c, 0, 60, 80
2, 11782, Note_on_c, 0, 63, 80
2, 11782, Note_on_c, 0, 68, 80
2, 11808, Control_c, 0, 64, 0
2, 11828, Note_on_c, 0, 68, 0
2, 11828, Note_on_c, 0, 63, 0
2, 11828, Note_on_c, 0, 89, 80
2, 11828, Note_on_c, 0, 96, 80
2, 11830, Note_on_c, 0, 84, 80
2, 11832, Note_on_c, 0, 60, 0
2, 11832, Note_on_c, 0, 56, 0
2, 11833, Note_on_c, 0, 51, 0
2, 11880, Note_on_c, 0, 84, 0
2, 11883, Note_on_c, 0, 56, 80
2, 11883, Note_on_c, 0, 63, 80
2, 11883, Note_on_c, 0, 68, 80
2, 11887, Note_on_c, 0, 51, 80
2, 11887, Note_on_c, 0, 60, 80
2, 11899, Note_on_c, 0, 96, 0
2, 11904, Note_on_c, 0, 89, 0
2, 11933, Note_on_c, 0, 63, 0
2, 11933, Note_on_c, 0, 68, 0
2, 11933, Note_on_c, 0, 60, 0
2, 11933, Note_on_c, 0, 84, 80
2, 11937, Note_on_c, 0, 51, 0
2, 11937, Note_on_c, 0, 56, 0
2, 11986, Note_on_c, 0, 84, 0
2, 11988, Note_on_c, 0, 85, 80
2, 12037, Note_on_c, 0, 85, 0
2, 12043, Note_on_c, 0, 86, 80
2, 12092, Note_on_c, 0, 86, 0
2, 12096, Note_on_c, 0, 80, 80
2, 12096, Note_on_c, 0, 87, 80
2, 12122, Control_c, 0, 64, 127
2, 12142, Note_on_c, 0, 87, 0
2, 12142, Note_on_c, 0, 80, 0
2, 12147, Note_on_c, 0, 92, 80
2, 12198, Note_on_c, 0, 92, 0
2, 12202, Note_on_c, 0, 77, 80
2, 12231, Control_c, 0, 64, 0
2, 12250, Note_on_c, 0, 89, 80
2, 12252, Note_on_c, 0, 77, 0
2, 12254, Note_on_c, 0, 80, 80
2, 12256, Note_on_c, 0, 83, 80
2, 12305, Note_on_c, 0, 74, 80
2, 12328, Note_on_c, 0, 83, 0
2, 12328, Note_on_c, 0, 89, 0
2, 12328, Note_on_c, 0, 80, 0
2, 12349, Note_on_c, 0, 86, 80
2, 12351, Note_on_c, 0, 74, 0
2, 12400, Note_on_c, 0, 86, 0
2, 12402, Note_on_c, 0, 71, 80
2, 12402, Note_on_c, 0, 83, 80
2, 12456, Note_on_c, 0, 83, 0
2, 12456, Note_on_c, 0, 71, 0
2, 12458, Note_on_c, 0, 80, 80
2, 12509, Note_on_c, 0, 80, 0
2, 12513, Note_on_c, 0, 68, 80
2, 12513, Note_on_c, 0, 77, 80
2, 12538, Control_c, 0, 64, 127
2, 12561, Note_on_c, 0, 77, 0
2, 12563, Note_on_c, 0, 79, 80
2, 12567, Note_on_c, 0, 68, 0
2, 12613, Note_on_c, 0, 79, 0
2, 12613, Note_on_c, 0, 80, 80
2, 12619, Note_on_c, 0, 65, 80
2, 12640, Control_c, 0, 64, 0
2, 12661, Note_on_c, 0, 80, 0
2, 12663, Note_on_c, 0, 83, 80
2, 12667, Note_on_c, 0, 65, 0
2, 12720, Note_on_c, 0, 62, 80
2, 12744, Note_on_c, 0, 83, 0
2, 12773, Note_on_c, 0, 62, 0
2, 12775, Note_on_c, 0, 80, 80
2, 12830, Note_on_c, 0, 80, 0
2, 12834, Note_on_c, 0, 77, 80
2, 12836, Note_on_c, 0, 59, 80
2, 12887, Note_on_c, 0, 77, 0
2, 12888, Note_on_c, 0, 59, 0
2, 12890, Note_on_c, 0, 74, 80
2, 12935, Note_on_c, 0, 48, 80
2, 12944, Note_on_c, 0, 74, 0
2, 12944, Note_on_c, 0, 60, 80
2, 12944, Note_on_c, 0, 80, 80
2, 12944, Note_on_c, 0, 84, 80
2, 12946, Note_on_c, 0, 68, 80
2, 12946, Note_on_c, 0, 72, 80
2, 12965, Note_on_c, 0, 72, 0
2, 12965, Note_on_c, 0, 84, 0
2, 12967, Control_c, 0, 64, 127
2, 12990, Note_on_c, 0, 80, 0
2, 12992, Note_on_c, 0, 68, 0
2, 12994, Note_on_c, 0, 72, 80
2, 12994, Note_on_c, 0, 79, 80
2, 12994, Note_on_c, 0, 84, 80
2, 12996, Note_on_c, 0, 60, 0
2, 12996, Note_on_c, 0, 67, 80
2, 13042, Note_on_c, 0, 79, 0
2, 13042, Note_on_c, 0, 84, 0
2, 13042, Note_on_c, 0, 72, 0
2, 13044, Note_on_c, 0, 67, 0
2, 13046, Note_on_c, 0, 63, 80
2, 13048, Note_on_c, 0, 51, 80
2, 13048, Note_on_c, 0, 56, 80
2, 13048, Note_on_c, 0, 60, 80
2, 13048, Note_on_c, 0, 68, 80
2, 13069, Control_c, 0, 64, 0
2, 13082, Note_on_c, 0, 65, 80
2, 13082, Note_on_c, 0, 72, 80
2, 13082, Note_on_c, 0, 77, 80
2, 13082, Note_on_c, 0, 84, 80
2, 13084, Note_on_c, 0, 48, 0
2, 13086, Note_on_c, 0, 56, 0
2, 13086, Note_on_c, 0, 63, 0
2, 13086, Note_on_c, 0, 68, 0
2, 13088, Note_on_c, 0, 51, 0
2, 13139, Note_on_c, 0, 68, 80
2, 13143, Note_on_c, 0, 39, 80
2, 13143, Note_on_c, 0, 51, 80
2, 13160, Note_on_c, 0, 77, 0
2, 13162, Note_on_c, 0, 84, 0
2, 13164, Note_on_c, 0, 60, 0
2, 13164, Note_on_c, 0, 72, 0
2, 13164, Note_on_c, 0, 65, 0
2, 13189, Note_on_c, 0, 87, 80
2, 13191, Note_on_c, 0, 51, 0
2, 13191, Note_on_c, 0, 68, 0
2, 13191, Note_on_c, 0, 39, 0
2, 13191, Note_on_c, 0, 75, 80
2, 13240, Note_on_c, 0, 87, 0
2, 13244, Note_on_c, 0, 75, 0
2, 13246, Note_on_c, 0, 89, 80
2, 13248, Note_on_c, 0, 51, 80
2, 13248, Note_on_c, 0, 56, 80
2, 13248, Note_on_c, 0, 60, 80
2, 13248, Note_on_c, 0, 63, 80
2, 13248, Note_on_c, 0, 68, 80
2, 13248, Note_on_c, 0, 77, 80
2, 13294, Note_on_c, 0, 77, 0
2, 13294, Note_on_c, 0, 60, 0
2, 13294, Note_on_c, 0, 89, 0
2, 13294, Note_on_c, 0, 63, 0
2, 13296, Note_on_c, 0, 79, 80
2, 13296, Note_on_c, 0, 91, 80
2, 13297, Note_on_c, 0, 51, 0
2, 13297, Note_on_c, 0, 56, 0
2, 13336, Note_on_c, 0, 48, 80
2, 13342, Note_on_c, 0, 96, 80
2, 13344, Note_on_c, 0, 91, 0
2, 13344, Note_on_c, 0, 84, 80
2, 13345, Note_on_c, 0, 79, 0
2, 13347, Note_on_c, 0, 60, 80
2, 13347, Note_on_c, 0, 63, 80
2, 13347, Note_on_c, 0, 92, 80
2, 13363, Note_on_c, 0, 96, 0
2, 13368, Note_on_c, 0, 84, 0
2, 13372, Note_on_c, 0, 68, 0
2, 13372, Control_c, 0, 64, 127
2, 13392, Note_on_c, 0, 96, 80
2, 13395, Note_on_c, 0, 92, 0
2, 13395, Note_on_c, 0, 48, 0
2, 13395, Note_on_c, 0, 63, 0
2, 13395, Note_on_c, 0, 84, 80
2, 13395, Note_on_c, 0, 91, 80
2, 13399, Note_on_c, 0, 60, 0
2, 13445, Note_on_c, 0, 96, 0
2, 13449, Note_on_c, 0, 91, 0
2, 13451, Note_on_c, 0, 84, 0
2, 13453, Note_on_c, 0, 51, 80
2, 13453, Note_on_c, 0, 56, 80
2, 13453, Note_on_c, 0, 60, 80
2, 13455, Note_on_c, 0, 63, 80
2, 13455, Note_on_c, 0, 68, 80
2, 13478, Control_c, 0, 64, 0
2, 13501, Note_on_c, 0, 96, 80
2, 13503, Note_on_c, 0, 84, 80
2, 13503, Note_on_c, 0, 89, 80
2, 13505, Note_on_c, 0, 60, 0
2, 13505, Note_on_c, 0, 56, 0
2, 13507, Note_on_c, 0, 68, 0
2, 13507, Note_on_c, 0, 51, 0
2, 13551, Note_on_c, 0, 44, 80
2, 13560, Note_on_c, 0, 56, 80
2, 13603, Note_on_c, 0, 96, 0
2, 13608, Note_on_c, 0, 89, 0
2, 13608, Note_on_c, 0, 84, 0
2, 13610, Note_on_c, 0, 63, 0
2, 13612, Note_on_c, 0, 56, 0
2, 13614, Note_on_c, 0, 44, 0
2, 13669, Note_on_c, 0, 63, 80
2, 13669, Note_on_c, 0, 69, 80
2, 13669, Note_on_c, 0, 71, 80
2, 13669, Note_on_c, 0, 75, 80
2, 13669, Note_on_c, 0, 78, 80
2, 13669, Note_on_c, 0, 83, 80
2, 13671, Note_on_c, 0, 57, 80
2, 13675, Note_on_c, 0, 45, 80
2, 13715, Note_on_c, 0, 83, 0
2, 13715, Note_on_c, 0, 71, 0
2, 13715, Note_on_c, 0, 78, 0
2, 13717, Note_on_c, 0, 69, 0
2, 13717, Note_on_c, 0, 75, 0
2, 13717, Note_on_c, 0, 57, 0
2, 13721, Note_on_c, 0, 45, 0
2, 13721, Note_on_c, 0, 63, 0
2, 13776, Note_on_c, 0, 58, 80
2, 13776, Note_on_c, 0, 63, 80
2, 13776, Note_on_c, 0, 67, 80
2, 13776, Note_on_c, 0, 70, 80
2, 13776, Note_on_c, 0, 75, 80
2, 13776, Note_on_c, 0, 79, 80
2, 13776, Note_on_c, 0, 82, 80
2, 13779, Note_on_c, 0, 46, 80
2, 13800, Note_on_c, 0, 75, 0
2, 13802, Control_c, 0, 64, 127
2, 13822, Note_on_c, 0, 82, 0
2, 13824, Note_on_c, 0, 79, 0
2, 13824, Note_on_c, 0, 70, 0
2, 13824, Note_on_c, 0, 67, 0
2, 13824, Note_on_c, 0, 58, 0
2, 13824, Note_on_c, 0, 63, 0
2, 13824, Note_on_c, 0, 87, 80
2, 13825, Note_on_c, 0, 75, 80
2, 13827, Note_on_c, 0, 46, 0
2, 13872, Note_on_c, 0, 87, 0
2, 13873, Note_on_c, 0, 75, 0
2, 13875, Note_on_c, 0, 63, 80
2, 13877, Note_on_c, 0, 67, 80
2, 13879, Note_on_c, 0, 55, 80
2, 13879, Note_on_c, 0, 58, 80
2, 13902, Control_c, 0, 64, 0
2, 13927, Note_on_c, 0, 58, 0
2, 13927, Note_on_c, 0, 55, 0
2, 13929, Note_on_c, 0, 82, 80
2, 13929, Note_on_c, 0, 86, 80
2, 13931, Note_on_c, 0, 74, 80
2, 13931, Note_on_c, 0, 79, 80
2, 13971, Note_on_c, 0, 43, 80
2, 13983, Note_on_c, 0, 55, 80
2, 14000, Note_on_c, 0, 79, 0
2, 14000, Note_on_c, 0, 82, 0
2, 14002, Note_on_c, 0, 86, 0
2, 14004, Note_on_c, 0, 74, 0
2, 14031, Note_on_c, 0, 43, 0
2, 14031, Note_on_c, 0, 55, 0
2, 14031, Note_on_c, 0, 63, 0
2, 14033, Note_on_c, 0, 67, 0
2, 14077, Note_on_c, 0, 84, 80
2, 14083, Note_on_c, 0, 40, 80
2, 14083, Note_on_c, 0, 64, 80
2, 14083, Note_on_c, 0, 70, 80
2, 14083, Note_on_c, 0, 72, 80
2, 14083, Note_on_c, 0, 79, 80
2, 14083, Note_on_c, 0, 82, 80
2, 14085, Note_on_c, 0, 52, 80
2, 14085, Note_on_c, 0, 60, 80
2, 14125, Note_on_c, 0, 82, 0
2, 14125, Note_on_c, 0, 79, 0
2, 14125, Note_on_c, 0, 84, 0
2, 14127, Note_on_c, 0, 72, 0
2, 14127, Note_on_c, 0, 70, 0
2, 14129, Note_on_c, 0, 60, 0
2, 14131, Note_on_c, 0, 64, 0
2, 14131, Note_on_c, 0, 40, 0
2, 14131, Note_on_c, 0, 52, 0
2, 14180, Note_on_c, 0, 75, 80
2, 14180, Note_on_c, 0, 81, 80
2, 14180, Note_on_c, 0, 85, 80
2, 14182, Note_on_c, 0, 63, 80
2, 14182, Note_on_c, 0, 69, 80
2, 14182, Note_on_c, 0, 74, 80
2, 14184, Note_on_c, 0, 41, 80
2, 14184, Note_on_c, 0, 53, 80
2, 14205, Note_on_c, 0, 81, 0
2, 14205, Note_on_c, 0, 75, 0
2, 14205, Control_c, 0, 64, 127
2, 14226, Note_on_c, 0, 84, 80
2, 14228, Note_on_c, 0, 85, 0
2, 14230, Note_on_c, 0, 63, 0
2, 14230, Note_on_c, 0, 53, 0
2, 14230, Note_on_c, 0, 74, 0
2, 14230, Note_on_c, 0, 81, 80
2, 14232, Note_on_c, 0, 72, 80
2, 14232, Note_on_c, 0, 75, 80
2, 14233, Note_on_c, 0, 41, 0
2, 14278, Note_on_c, 0, 81, 0
2, 14283, Note_on_c, 0, 72, 0
2, 14283, Note_on_c, 0, 84, 0
2, 14283, Note_on_c, 0, 75, 0
2, 14285, Note_on_c, 0, 53, 80
2, 14285, Note_on_c, 0, 57, 80
2, 14285, Note_on_c, 0, 63, 80
2, 14310, Control_c, 0, 64, 0
2, 14337, Note_on_c, 0, 57, 0
2, 14339, Note_on_c, 0, 53, 0
2, 14339, Note_on_c, 0, 70, 80
2, 14339, Note_on_c, 0, 74, 80
2, 14339, Note_on_c, 0, 79, 80
2, 14341, Note_on_c, 0, 67, 80
2, 14349, Note_on_c, 0, 69, 0
2, 14395, Note_on_c, 0, 68, 80
2, 14399, Note_on_c, 0, 34, 80
2, 14399, Note_on_c, 0, 46, 80
2, 14399, Note_on_c, 0, 62, 80
2, 14406, Note_on_c, 0, 63, 0
2, 14406, Note_on_c, 0, 67, 0
2, 14418, Note_on_c, 0, 70, 0
2, 14418, Note_on_c, 0, 74, 0
2, 14418, Note_on_c, 0, 79, 0
2, 14445, Note_on_c, 0, 34, 0
2, 14445, Note_on_c, 0, 46, 0
2, 14445, Note_on_c, 0, 62, 0
2, 14447, Note_on_c, 0, 82, 80
2, 14496, Note_on_c, 0, 82, 0
2, 14497, Note_on_c, 0, 58, 80
2, 14499, Note_on_c, 0, 68, 0
2, 14503, Note_on_c, 0, 56, 80
2, 14503, Note_on_c, 0, 62, 80
2, 14552, Note_on_c, 0, 62, 0
2, 14552, Note_on_c, 0, 56, 0
2, 14552, Note_on_c, 0, 58, 0
2, 14552, Note_on_c, 0, 65, 80
2, 14552, Note_on_c, 0, 74, 80
2, 14552, Note_on_c, 0, 77, 80
2, 14554, Note_on_c, 0, 68, 80
2, 14600, Note_on_c, 0, 68, 0
2, 14600, Note_on_c, 0, 77, 0
2, 14600, Note_on_c, 0, 74, 0
2, 14602, Note_on_c, 0, 70, 80
2, 14604, Note_on_c, 0, 65, 0
2, 14604, Note_on_c, 0, 58, 80
2, 14604, Note_on_c, 0, 63, 80
2, 14604, Note_on_c, 0, 67, 80
2, 14604, Note_on_c, 0, 75, 80
2, 14608, Note_on_c, 0, 55, 80
2, 14629, Control_c, 0, 64, 127
2, 14650, Note_on_c, 0, 70, 0
2, 14654, Note_on_c, 0, 63, 0
2, 14654, Note_on_c, 0, 67, 0
2, 14654, Note_on_c, 0, 58, 0
2, 14654, Note_on_c, 0, 55, 0
2, 14654, Note_on_c, 0, 75, 0
2, 14711, Note_on_c, 0, 65, 80
2, 14712, Note_on_c, 0, 53, 80
2, 14736, Control_c, 0, 64, 0
2, 14760, Note_on_c, 0, 53, 0
2, 14760, Note_on_c, 0, 65, 0
2, 14762, Note_on_c, 0, 63, 80
2, 14766, Note_on_c, 0, 51, 80
2, 14838, Note_on_c, 0, 63, 0
2, 14842, Note_on_c, 0, 51, 0
2, 14869, Note_on_c, 0, 49, 80
2, 14869, Note_on_c, 0, 61, 80
2, 14915, Note_on_c, 0, 61, 0
2, 14921, Note_on_c, 0, 49, 0
2, 14921, Note_on_c, 0, 46, 80
2, 14921, Note_on_c, 0, 58, 80
2, 14972, Note_on_c, 0, 58, 0
2, 14976, Note_on_c, 0, 46, 0
2, 15032, Note_on_c, 0, 51, 80
2, 15036, Note_on_c, 0, 39, 80
2, 15057, Control_c, 0, 64, 127
2, 15084, Note_on_c, 0, 39, 0
2, 15088, Note_on_c, 0, 51, 0
2, 15146, Note_on_c, 0, 63, 80
2, 15146, Note_on_c, 0, 75, 80
2, 15179, Control_c, 0, 64, 0
2, 15194, Note_on_c, 0, 62, 80
2, 15196, Note_on_c, 0, 75, 0
2, 15196, Note_on_c, 0, 63, 0
2, 15196, Note_on_c, 0, 74, 80
2, 15249, Note_on_c, 0, 74, 0
2, 15249, Note_on_c, 0, 62, 0
2, 15251, Note_on_c, 0, 63, 80
2, 15253, Note_on_c, 0, 75, 80
2, 15302, Note_on_c, 0, 75, 0
2, 15302, Note_on_c, 0, 63, 0
2, 15304, Note_on_c, 0, 62, 80
2, 15304, Note_on_c, 0, 74, 80
2, 15353, Note_on_c, 0, 63, 80
2, 15355, Note_on_c, 0, 74, 0
2, 15355, Note_on_c, 0, 62, 0
2, 15355, Note_on_c, 0, 75, 80
2, 15404, Note_on_c, 0, 75, 0
2, 15408, Note_on_c, 0, 64, 80
2, 15408, Note_on_c, 0, 76, 80
2, 15409, Note_on_c, 0, 63, 0
2, 15452, Note_on_c, 0, 46, 80
2, 15457, Note_on_c, 0, 76, 0
2, 15461, Note_on_c, 0, 64, 0
2, 15463, Note_on_c, 0, 58, 80
2, 15463, Note_on_c, 0, 61, 80
2, 15463, Note_on_c, 0, 65, 80
2, 15463, Note_on_c, 0, 67, 80
2, 15463, Note_on_c, 0, 73, 80
2, 15463, Note_on_c, 0, 77, 80
2, 15484, Control_c, 0, 64, 127
2, 15504, Note_on_c, 0, 61, 0
2, 15509, Note_on_c, 0, 46, 0
2, 15509, Note_on_c, 0, 58, 0
2, 15560, Note_on_c, 0, 77, 0
2, 15560, Note_on_c, 0, 89, 80
2, 15562, Note_on_c, 0, 51, 80
2, 15562, Note_on_c, 0, 55, 80
2, 15562, Note_on_c, 0, 61, 80
2, 15585, Control_c, 0, 64, 0
2, 15610, Note_on_c, 0, 82, 80
2, 15610, Note_on_c, 0, 85, 80
2, 15612, Note_on_c, 0, 77, 80
2, 15614, Note_on_c, 0, 55, 0
2, 15614, Note_on_c, 0, 51, 0
2, 15660, Note_on_c, 0, 82, 0
2, 15664, Note_on_c, 0, 51, 80
2, 15668, Note_on_c, 0, 39, 80
2, 15708, Note_on_c, 0, 89, 0
2, 15708, Note_on_c, 0, 85, 0
2, 15708, Note_on_c, 0, 73, 0
2, 15712, Note_on_c, 0, 61, 0
2, 15712, Note_on_c, 0, 67, 0
2, 15712, Note_on_c, 0, 51, 0
2, 15712, Note_on_c, 0, 39, 0
2, 15712, Note_on_c, 0, 77, 0
2, 15714, Note_on_c, 0, 82, 80
2, 15770, Note_on_c, 0, 55, 80
2, 15770, Note_on_c, 0, 61, 80
2, 15772, Note_on_c, 0, 70, 80
2, 15772, Note_on_c, 0, 73, 80
2, 15772, Note_on_c, 0, 77, 80
2, 15776, Note_on_c, 0, 51, 80
2, 15825, Note_on_c, 0, 77, 0
2, 15825, Note_on_c, 0, 82, 0
2, 15825, Note_on_c, 0, 70, 0
2, 15825, Note_on_c, 0, 73, 0
2, 15829, Note_on_c, 0, 65, 0
2, 15829, Note_on_c, 0, 51, 0
2, 15829, Note_on_c, 0, 55, 0
2, 15869, Note_on_c, 0, 46, 80
2, 15885, Note_on_c, 0, 58, 80
2, 15885, Note_on_c, 0, 73, 80
2, 15885, Note_on_c, 0, 77, 80
2, 15887, Note_on_c, 0, 65, 80
2, 15887, Note_on_c, 0, 70, 80
2, 15906, Control_c, 0, 64, 127
2, 15933, Note_on_c, 0, 70, 0
2, 15933, Note_on_c, 0, 46, 0
2, 15933, Note_on_c, 0, 73, 0
2, 15933, Note_on_c, 0, 58, 0
2, 15933, Note_on_c, 0, 61, 0
2, 15933, Note_on_c, 0, 77, 0
2, 15936, Note_on_c, 0, 65, 0
2, 15985, Note_on_c, 0, 61, 80
2, 15985, Note_on_c, 0, 63, 80
2, 15985, Note_on_c, 0, 75, 80
2, 15989, Note_on_c, 0, 51, 80
2, 15989, Note_on_c, 0, 55, 80
2, 16008, Control_c, 0, 64, 0
2, 16033, Note_on_c, 0, 74, 80
2, 16035, Note_on_c, 0, 55, 0
2, 16035, Note_on_c, 0, 75, 0
2, 16035, Note_on_c, 0, 61, 0
2, 16035, Note_on_c, 0, 63, 0
2, 16037, Note_on_c, 0, 62, 80
2, 16039, Note_on_c, 0, 51, 0
2, 16085, Note_on_c, 0, 74, 0
2, 16087, Note_on_c, 0, 51, 80
2, 16087, Note_on_c, 0, 63, 80
2, 16087, Note_on_c, 0, 75, 80
2, 16089, Note_on_c, 0, 62, 0
2, 16138, Note_on_c, 0, 75, 0
2, 16140, Note_on_c, 0, 62, 80
2, 16140, Note_on_c, 0, 74, 80
2, 16142, Note_on_c, 0, 63, 0
2, 16142, Note_on_c, 0, 51, 0
2, 16180, Note_on_c, 0, 49, 80
2, 16190, Note_on_c, 0, 74, 0
2, 16194, Note_on_c, 0, 62, 0
2, 16194, Note_on_c, 0, 61, 80
2, 16194, Note_on_c, 0, 63, 80
2, 16198, Note_on_c, 0, 75, 80
2, 16242, Note_on_c, 0, 75, 0
2, 16242, Note_on_c, 0, 49, 0
2, 16242, Note_on_c, 0, 61, 0
2, 16244, Note_on_c, 0, 63, 0
2, 16246, Note_on_c, 0, 64, 80
2, 16246, Note_on_c, 0, 76, 80
2, 16292, Note_on_c, 0, 76, 0
2, 16296, Note_on_c, 0, 64, 0
2, 16296, Note_on_c, 0, 48, 80
2, 16296, Note_on_c, 0, 60, 80
2, 16296, Note_on_c, 0, 68, 80
2, 16296, Note_on_c, 0, 72, 80
2, 16296, Note_on_c, 0, 77, 80
2, 16299, Note_on_c, 0, 65, 80
2, 16322, Control_c, 0, 64, 127
2, 16344, Note_on_c, 0, 60, 0
2, 16347, Note_on_c, 0, 48, 0
2, 16393, Note_on_c, 0, 77, 0
2, 16393, Note_on_c, 0, 89, 80
2, 16399, Note_on_c, 0, 51, 80
2, 16399, Note_on_c, 0, 56, 80
2, 16399, Note_on_c, 0, 60, 80
2, 16409, Control_c, 0, 64, 0
2, 16449, Note_on_c, 0, 77, 80
2, 16449, Note_on_c, 0, 80, 80
2, 16449, Note_on_c, 0, 84, 80
2, 16451, Note_on_c, 0, 56, 0
2, 16453, Note_on_c, 0, 51, 0
2, 16504, Note_on_c, 0, 51, 80
2, 16508, Note_on_c, 0, 39, 80
2, 16512, Note_on_c, 0, 84, 0
2, 16552, Note_on_c, 0, 89, 0
2, 16552, Note_on_c, 0, 80, 0
2, 16554, Note_on_c, 0, 77, 0
2, 16554, Note_on_c, 0, 60, 0
2, 16554, Note_on_c, 0, 39, 0
2, 16554, Note_on_c, 0, 72, 0
2, 16556, Note_on_c, 0, 84, 80
2, 16558, Note_on_c, 0, 51, 0
2, 16610, Note_on_c, 0, 56, 80
2, 16610, Note_on_c, 0, 80, 80
2, 16612, Note_on_c, 0, 60, 80
2, 16612, Note_on_c, 0, 72, 80
2, 16612, Note_on_c, 0, 77, 80
2, 16616, Note_on_c, 0, 51, 80
2, 16656, Note_on_c, 0, 80, 0
2, 16658, Note_on_c, 0, 77, 0
2, 16662, Note_on_c, 0, 56, 0
2, 16662, Note_on_c, 0, 60, 0
2, 16662, Note_on_c, 0, 84, 0
2, 16662, Note_on_c, 0, 68, 0
2, 16662, Note_on_c, 0, 72, 0
2, 16664, Note_on_c, 0, 51, 0
2, 16668, Note_on_c, 0, 65, 0
2, 16704, Note_on_c, 0, 48, 80
2, 16714, Note_on_c, 0, 72, 80
2, 16714, Note_on_c, 0, 77, 80
2, 16716, Note_on_c, 0, 60, 80
2, 16716, Note_on_c, 0, 65, 80
2, 16716, Note_on_c, 0, 68, 80
2, 16741, Control_c, 0, 64, 127
2, 16762, Note_on_c, 0, 68, 0
2, 16762, Note_on_c, 0, 72, 0
2, 16762, Note_on_c, 0, 77, 0
2, 16766, Note_on_c, 0, 48, 0
2, 16766, Note_on_c, 0, 60, 0
2, 16766, Note_on_c, 0, 65, 0
2, 16821, Note_on_c, 0, 51, 80
2, 16821, Note_on_c, 0, 56, 80
2, 16821, Note_on_c, 0, 60, 80
2, 16821, Note_on_c, 0, 63, 80
2, 16821, Note_on_c, 0, 75, 80
2, 16842, Control_c, 0, 64, 0
2, 16865, Note_on_c, 0, 75, 0
2, 16865, Note_on_c, 0, 56, 0
2, 16865, Note_on_c, 0, 63, 0
2, 16867, Note_on_c, 0, 62, 80
2, 16869, Note_on_c, 0, 51, 0
2, 16869, Note_on_c, 0, 74, 80
2, 16907, Note_on_c, 0, 46, 80
2, 16915, Note_on_c, 0, 74, 0
2, 16917, Note_on_c, 0, 58, 80
2, 16917, Note_on_c, 0, 63, 80
2, 16917, Note_on_c, 0, 75, 80
2, 16919, Note_on_c, 0, 62, 0
2, 16969, Note_on_c, 0, 63, 0
2, 16969, Note_on_c, 0, 58, 0
2, 16969, Note_on_c, 0, 46, 0
2, 16969, Note_on_c, 0, 75, 0
2, 16971, Note_on_c, 0, 62, 80
2, 16971, Note_on_c, 0, 74, 80
2, 17022, Note_on_c, 0, 56, 80
2, 17022, Note_on_c, 0, 63, 80
2, 17022, Note_on_c, 0, 75, 80
2, 17026, Note_on_c, 0, 44, 80
2, 17032, Note_on_c, 0, 74, 0
2, 17034, Note_on_c, 0, 62, 0
2, 17068, Note_on_c, 0, 75, 0
2, 17070, Note_on_c, 0, 65, 80
2, 17070, Note_on_c, 0, 77, 80
2, 17072, Note_on_c, 0, 56, 0
2, 17072, Note_on_c, 0, 44, 0
2, 17095, Note_on_c, 0, 63, 0
2, 17120, Note_on_c, 0, 67, 80
2, 17120, Note_on_c, 0, 72, 80
2, 17120, Note_on_c, 0, 75, 80
2, 17120, Note_on_c, 0, 79, 80
2, 17122, Note_on_c, 0, 55, 80
2, 17124, Note_on_c, 0, 43, 80
2, 17145, Note_on_c, 0, 65, 0
2, 17145, Note_on_c, 0, 77, 0
2, 17145, Control_c, 0, 64, 127
2, 17168, Note_on_c, 0, 91, 80
2, 17170, Note_on_c, 0, 55, 0
2, 17170, Note_on_c, 0, 60, 0
2, 17172, Note_on_c, 0, 43, 0
2, 17223, Note_on_c, 0, 55, 80
2, 17223, Note_on_c, 0, 60, 80
2, 17223, Note_on_c, 0, 63, 80
2, 17223, Note_on_c, 0, 87, 80
2, 17246, Note_on_c, 0, 91, 0
2, 17248, Control_c, 0, 64, 0
2, 17275, Note_on_c, 0, 79, 0
2, 17275, Note_on_c, 0, 84, 80
2, 17298, Note_on_c, 0, 87, 0
2, 17325, Note_on_c, 0, 75, 0
2, 17328, Note_on_c, 0, 79, 80
2, 17353, Note_on_c, 0, 84, 0
2, 17380, Note_on_c, 0, 60, 0
2, 17380, Note_on_c, 0, 55, 0
2, 17380, Note_on_c, 0, 72, 0
2, 17380, Note_on_c, 0, 63, 0
2, 17382, Note_on_c, 0, 75, 80
2, 17407, Note_on_c, 0, 79, 0
2, 17424, Note_on_c, 0, 48, 80
2, 17434, Note_on_c, 0, 67, 0
2, 17436, Note_on_c, 0, 60, 80
2, 17436, Note_on_c, 0, 72, 80
2, 17463, Note_on_c, 0, 75, 0
2, 17488, Note_on_c, 0, 67, 80
2, 17490, Note_on_c, 0, 48, 0
2, 17490, Note_on_c, 0, 60, 0
2, 17513, Note_on_c, 0, 72, 0
2, 17538, Note_on_c, 0, 67, 0
2, 17538, Note_on_c, 0, 80, 80
2, 17540, Note_on_c, 0, 68, 80
2, 17540, Note_on_c, 0, 71, 80
2, 17540, Note_on_c, 0, 77, 80
2, 17542, Note_on_c, 0, 74, 80
2, 17544, Note_on_c, 0, 62, 80
2, 17545, Note_on_c, 0, 50, 80
2, 17565, Control_c, 0, 64, 127
2, 17586, Note_on_c, 0, 74, 0
2, 17586, Note_on_c, 0, 77, 0
2, 17586, Note_on_c, 0, 80, 0
2, 17590, Note_on_c, 0, 71, 0
2, 17590, Note_on_c, 0, 62, 0
2, 17592, Note_on_c, 0, 68, 0
2, 17592, Note_on_c, 0, 50, 0
2, 17644, Note_on_c, 0, 55, 80
2, 17644, Note_on_c, 0, 65, 80
2, 17644, Note_on_c, 0, 71, 80
2, 17646, Note_on_c, 0, 59, 80
2, 17646, Note_on_c, 0, 67, 80
2, 17646, Note_on_c, 0, 77, 80
2, 17646, Note_on_c, 0, 79, 80
2, 17669, Control_c, 0, 64, 0
2, 17690, Note_on_c, 0, 77, 0
2, 17690, Note_on_c, 0, 71, 0
2, 17692, Note_on_c, 0, 67, 0
2, 17692, Note_on_c, 0, 79, 0
2, 17694, Note_on_c, 0, 55, 0
2, 17696, Note_on_c, 0, 59, 0
2, 17696, Note_on_c, 0, 65, 0
2, 17745, Note_on_c, 0, 66, 80
2, 17745, Note_on_c, 0, 71, 80
2, 17745, Note_on_c, 0, 77, 80
2, 17745, Note_on_c, 0, 78, 80
2, 17749, Note_on_c, 0, 43, 80
2, 17749, Note_on_c, 0, 55, 80
2, 17791, Note_on_c, 0, 78, 0
2, 17793, Note_on_c, 0, 67, 80
2, 17793, Note_on_c, 0, 79, 80
2, 17795, Note_on_c, 0, 43, 0
2, 17795, Note_on_c, 0, 55, 0
2, 17807, Note_on_c, 0, 66, 0
2, 17822, Note_on_c, 0, 67, 0
2, 17847, Note_on_c, 0, 55, 80
2, 17849, Note_on_c, 0, 59, 80
2, 17849, Note_on_c, 0, 65, 80
2, 17849, Note_on_c, 0, 67, 80
2, 17866, Note_on_c, 0, 79, 0
2, 17866, Note_on_c, 0, 77, 0
2, 17868, Note_on_c, 0, 71, 0
2, 17895, Note_on_c, 0, 72, 80
2, 17895, Note_on_c, 0, 75, 80
2, 17895, Note_on_c, 0, 84, 80
2, 17897, Note_on_c, 0, 59, 0
2, 17897, Note_on_c, 0, 65, 0
2, 17897, Note_on_c, 0, 55, 0
2, 17897, Note_on_c, 0, 67, 0
2, 17952, Note_on_c, 0, 48, 80
2, 17952, Note_on_c, 0, 60, 80
2, 17978, Control_c, 0, 64, 127
2, 18001, Note_on_c, 0, 84, 0
2, 18001, Note_on_c, 0, 75, 0
2, 18001, Note_on_c, 0, 72, 0
2, 18005, Note_on_c, 0, 48, 0
2, 18005, Note_on_c, 0, 60, 0
2, 18062, Note_on_c, 0, 66, 80
2, 18066, Note_on_c, 0, 54, 80
2, 18087, Control_c, 0, 64, 0
2, 18114, Note_on_c, 0, 54, 0
2, 18116, Note_on_c, 0, 66, 0
2, 18116, Note_on_c, 0, 55, 80
2, 18118, Note_on_c, 0, 67, 80
2, 18199, Note_on_c, 0, 55, 0
2, 18201, Note_on_c, 0, 67, 0
2, 18226, Note_on_c, 0, 62, 80
2, 18230, Note_on_c, 0, 50, 80
2, 18279, Note_on_c, 0, 63, 80
2, 18281, Note_on_c, 0, 50, 0
2, 18281, Note_on_c, 0, 62, 0
2, 18281, Note_on_c, 0, 51, 80
2, 18332, Note_on_c, 0, 51, 0
2, 18332, Note_on_c, 0, 63, 0
2, 18390, Note_on_c, 0, 48, 80
2, 18390, Note_on_c, 0, 60, 80
2, 18411, Control_c, 0, 64, 127
2, 18438, Note_on_c, 0, 60, 0
2, 18438, Note_on_c, 0, 48, 0
2, 18493, Note_on_c, 0, 63, 80
2, 18493, Note_on_c, 0, 75, 80
2, 18518, Control_c, 0, 64, 0
2, 18539, Note_on_c, 0, 75, 0
2, 18539, Note_on_c, 0, 63, 0
2, 18543, Note_on_c, 0, 62, 80
2, 18543, Note_on_c, 0, 74, 80
2, 18592, Note_on_c, 0, 74, 0
2, 18594, Note_on_c, 0, 62, 0
2, 18596, Note_on_c, 0, 63, 80
2, 18596, Note_on_c, 0, 75, 80
2, 18645, Note_on_c, 0, 63, 0
2, 18648, Note_on_c, 0, 75, 0
2, 18650, Note_on_c, 0, 62, 80
2, 18650, Note_on_c, 0, 74, 80
2, 18701, Note_on_c, 0, 62, 0
2, 18703, Note_on_c, 0, 74, 0
2, 18703, Note_on_c, 0, 63, 80
2, 18703, Note_on_c, 0, 75, 80
2, 18754, Note_on_c, 0, 75, 0
2, 18754, Note_on_c, 0, 63, 0
2, 18758, Note_on_c, 0, 64, 80
2, 18758, Note_on_c, 0, 76, 80
2, 18811, Note_on_c, 0, 76, 0
2, 18811, Note_on_c, 0, 64, 0
2, 18811, Note_on_c, 0, 73, 80
2, 18813, Note_on_c, 0, 58, 80
2, 18813, Note_on_c, 0, 61, 80
2, 18813, Note_on_c, 0, 65, 80
2, 18813, Note_on_c, 0, 67, 80
2, 18813, Note_on_c, 0, 77, 80
2, 18816, Note_on_c, 0, 46, 80
2, 18843, Control_c, 0, 64, 127
2, 18863, Note_on_c, 0, 61, 0
2, 18866, Note_on_c, 0, 58, 0
2, 18866, Note_on_c, 0, 46, 0
2, 18919, Note_on_c, 0, 77, 0
2, 18919, Note_on_c, 0, 89, 80
2, 18919, Note_on_c, 0, 55, 80
2, 18919, Note_on_c, 0, 61, 80
2, 18921, Note_on_c, 0, 51, 80
2, 18942, Control_c, 0, 64, 0
2, 18967, Note_on_c, 0, 77, 80
2, 18969, Note_on_c, 0, 51, 0
2, 18969, Note_on_c, 0, 55, 0
2, 18971, Note_on_c, 0, 82, 80
2, 18971, Note_on_c, 0, 85, 80
2, 19026, Note_on_c, 0, 39, 80
2, 19026, Note_on_c, 0, 51, 80
2, 19030, Note_on_c, 0, 82, 0
2, 19066, Note_on_c, 0, 85, 0
2, 19066, Note_on_c, 0, 89, 0
2, 19068, Note_on_c, 0, 82, 80
2, 19070, Note_on_c, 0, 77, 0
2, 19072, Note_on_c, 0, 73, 0
2, 19072, Note_on_c, 0, 61, 0
2, 19072, Note_on_c, 0, 51, 0
2, 19072, Note_on_c, 0, 39, 0
2, 19127, Note_on_c, 0, 55, 80
2, 19127, Note_on_c, 0, 61, 80
2, 19127, Note_on_c, 0, 70, 80
2, 19127, Note_on_c, 0, 73, 80
2, 19127, Note_on_c, 0, 77, 80
2, 19130, Note_on_c, 0, 51, 80
2, 19173, Note_on_c, 0, 77, 0
2, 19173, Note_on_c, 0, 73, 0
2, 19173, Note_on_c, 0, 70, 0
2, 19173, Note_on_c, 0, 82, 0
2, 19176, Note_on_c, 0, 65, 0
2, 19176, Note_on_c, 0, 55, 0
2, 19176, Note_on_c, 0, 51, 0
2, 19176, Note_on_c, 0, 67, 0
2, 19221, Note_on_c, 0, 46, 80
2, 19232, Note_on_c, 0, 58, 80
2, 19232, Note_on_c, 0, 70, 80
2, 19232, Note_on_c, 0, 73, 80
2, 19232, Note_on_c, 0, 77, 80
2, 19236, Note_on_c, 0, 65, 80
2, 19257, Control_c, 0, 64, 127
2, 19276, Note_on_c, 0, 77, 0
2, 19278, Note_on_c, 0, 70, 0
2, 19278, Note_on_c, 0, 61, 0
2, 19278, Note_on_c, 0, 58, 0
2, 19278, Note_on_c, 0, 73, 0
2, 19282, Note_on_c, 0, 46, 0
2, 19282, Note_on_c, 0, 65, 0
2, 19331, Note_on_c, 0, 61, 80
2, 19335, Note_on_c, 0, 55, 80
2, 19335, Note_on_c, 0, 75, 80
2, 19337, Note_on_c, 0, 51, 80
2, 19337, Note_on_c, 0, 63, 80
2, 19356, Control_c, 0, 64, 0
2, 19383, Note_on_c, 0, 63, 0
2, 19383, Note_on_c, 0, 61, 0
2, 19383, Note_on_c, 0, 75, 0
2, 19383, Note_on_c, 0, 55, 0
2, 19385, Note_on_c, 0, 62, 80
2, 19385, Note_on_c, 0, 74, 80
2, 19387, Note_on_c, 0, 51, 0
2, 19433, Note_on_c, 0, 74, 0
2, 19437, Note_on_c, 0, 62, 0
2, 19439, Note_on_c, 0, 63, 80
2, 19439, Note_on_c, 0, 75, 80
2, 19440, Note_on_c, 0, 51, 80
2, 19491, Note_on_c, 0, 51, 0
2, 19491, Note_on_c, 0, 75, 0
2, 19491, Note_on_c, 0, 63, 0
2, 19493, Note_on_c, 0, 62, 80
2, 19493, Note_on_c, 0, 74, 80
2, 19546, Note_on_c, 0, 74, 0
2, 19546, Note_on_c, 0, 62, 0
2, 19548, Note_on_c, 0, 61, 80
2, 19548, Note_on_c, 0, 63, 80
2, 19548, Note_on_c, 0, 75, 80
2, 19554, Note_on_c, 0, 49, 80
2, 19598, Note_on_c, 0, 49, 0
2, 19598, Note_on_c, 0, 61, 0
2, 19598, Note_on_c, 0, 63, 0
2, 19598, Note_on_c, 0, 75, 0
2, 19602, Note_on_c, 0, 64, 80
2, 19602, Note_on_c, 0, 76, 80
2, 19653, Note_on_c, 0, 76, 0
2, 19653, Note_on_c, 0, 64, 0
2, 19655, Note_on_c, 0, 48, 80
2, 19655, Note_on_c, 0, 60, 80
2, 19655, Note_on_c, 0, 68, 80
2, 19655, Note_on_c, 0, 72, 80
2, 19655, Note_on_c, 0, 77, 80
2, 19658, Note_on_c, 0, 65, 80
2, 19680, Control_c, 0, 64, 127
2, 19703, Note_on_c, 0, 60, 0
2, 19749, Note_on_c, 0, 89, 80
2, 19751, Note_on_c, 0, 77, 0
2, 19754, Note_on_c, 0, 51, 80
2, 19754, Note_on_c, 0, 56, 80
2, 19754, Note_on_c, 0, 60, 80
2, 19764, Note_on_c, 0, 48, 0
2, 19774, Control_c, 0, 64, 0
2, 19800, Note_on_c, 0, 56, 0
2, 19800, Note_on_c, 0, 77, 80
2, 19800, Note_on_c, 0, 84, 80
2, 19802, Note_on_c, 0, 51, 0
2, 19802, Note_on_c, 0, 80, 80
2, 19848, Note_on_c, 0, 84, 0
2, 19852, Note_on_c, 0, 51, 80
2, 19858, Note_on_c, 0, 39, 80
2, 19898, Note_on_c, 0, 89, 0
2, 19900, Note_on_c, 0, 84, 80
2, 19902, Note_on_c, 0, 60, 0
2, 19904, Note_on_c, 0, 51, 0
2, 19904, Note_on_c, 0, 39, 0
2, 19912, Note_on_c, 0, 80, 0
2, 19916, Note_on_c, 0, 77, 0
2, 19918, Note_on_c, 0, 72, 0
2, 19954, Note_on_c, 0, 72, 80
2, 19956, Note_on_c, 0, 80, 80
2, 19958, Note_on_c, 0, 51, 80
2, 19958, Note_on_c, 0, 56, 80
2, 19958, Note_on_c, 0, 60, 80
2, 19958, Note_on_c, 0, 77, 80
2, 20004, Note_on_c, 0, 77, 0
2, 20004, Note_on_c, 0, 72, 0
2, 20004, Note_on_c, 0, 60, 0
2, 20004, Note_on_c, 0, 80, 0
2, 20004, Note_on_c, 0, 68, 0
2, 20008, Note_on_c, 0, 51, 0
2, 20008, Note_on_c, 0, 65, 0
2, 20008, Note_on_c, 0, 56, 0
2, 20016, Note_on_c, 0, 84, 0
2, 20048, Note_on_c, 0, 48, 80
2, 20058, Note_on_c, 0, 60, 80
2, 20058, Note_on_c, 0, 72, 80
2, 20058, Note_on_c, 0, 77, 80
2, 20060, Note_on_c, 0, 65, 80
2, 20060, Note_on_c, 0, 68, 80
2, 20087, Control_c, 0, 64, 127
2, 20106, Note_on_c, 0, 77, 0
2, 20108, Note_on_c, 0, 72, 0
2, 20108, Note_on_c, 0, 68, 0
2, 20110, Note_on_c, 0, 60, 0
2, 20112, Note_on_c, 0, 65, 0
2, 20112, Note_on_c, 0, 48, 0
2, 20166, Note_on_c, 0, 63, 80
2, 20166, Note_on_c, 0, 75, 80
2, 20205, Control_c, 0, 64, 0
2, 20220, Note_on_c, 0, 75, 0
2, 20220, Note_on_c, 0, 63, 0
2, 20222, Note_on_c, 0, 62, 80
2, 20222, Note_on_c, 0, 74, 80
2, 20275, Note_on_c, 0, 62, 0
2, 20277, Note_on_c, 0, 74, 0
2, 20277, Note_on_c, 0, 75, 80
2, 20279, Note_on_c, 0, 63, 80
2, 20331, Note_on_c, 0, 63, 0
2, 20331, Note_on_c, 0, 75, 0
2, 20333, Note_on_c, 0, 64, 80
2, 20333, Note_on_c, 0, 76, 80
2, 20390, Note_on_c, 0, 76, 0
2, 20390, Note_on_c, 0, 64, 0
2, 20392, Note_on_c, 0, 65, 80
2, 20392, Note_on_c, 0, 77, 80
2, 20441, Note_on_c, 0, 77, 0
2, 20441, Note_on_c, 0, 65, 0
2, 20445, Note_on_c, 0, 66, 80
2, 20445, Note_on_c, 0, 78, 80
2, 20487, Note_on_c, 0, 50, 80
2, 20491, Note_on_c, 0, 78, 0
2, 20493, Note_on_c, 0, 66, 0
2, 20493, Note_on_c, 0, 71, 80
2, 20495, Note_on_c, 0, 67, 80
2, 20495, Note_on_c, 0, 74, 80
2, 20496, Note_on_c, 0, 62, 80
2, 20496, Note_on_c, 0, 79, 80
2, 20500, Note_on_c, 0, 68, 80
2, 20518, Note_on_c, 0, 68, 0
2, 20518, Note_on_c, 0, 71, 0
2, 20518, Note_on_c, 0, 74, 0
2, 20523, Control_c, 0, 64, 127
2, 20544, Note_on_c, 0, 79, 0
2, 20544, Note_on_c, 0, 67, 0
2, 20544, Note_on_c, 0, 71, 80
2, 20546, Note_on_c, 0, 65, 80
2, 20546, Note_on_c, 0, 68, 80
2, 20546, Note_on_c, 0, 74, 80
2, 20546, Note_on_c, 0, 77, 80
2, 20548, Note_on_c, 0, 50, 0
2, 20571, Note_on_c, 0, 65, 0
2, 20592, Note_on_c, 0, 74, 0
2, 20592, Note_on_c, 0, 77, 0
2, 20596, Note_on_c, 0, 71, 0
2, 20596, Note_on_c, 0, 68, 0
2, 20598, Note_on_c, 0, 56, 80
2, 20600, Note_on_c, 0, 59, 80
2, 20600, Note_on_c, 0, 65, 80
2, 20635, Control_c, 0, 64, 0
2, 20646, Note_on_c, 0, 56, 0
2, 20646, Note_on_c, 0, 76, 80
2, 20648, Note_on_c, 0, 65, 0
2, 20648, Note_on_c, 0, 59, 0
2, 20650, Note_on_c, 0, 64, 80
2, 20650, Note_on_c, 0, 68, 80
2, 20650, Note_on_c, 0, 71, 80
2, 20675, Note_on_c, 0, 64, 0
2, 20700, Note_on_c, 0, 52, 80
2, 20700, Note_on_c, 0, 64, 80
2, 20749, Note_on_c, 0, 76, 0
2, 20753, Note_on_c, 0, 52, 0
2, 20753, Note_on_c, 0, 71, 0
2, 20753, Note_on_c, 0, 62, 0
2, 20755, Note_on_c, 0, 68, 0
2, 20755, Note_on_c, 0, 64, 0
2, 20801, Note_on_c, 0, 68, 80
2, 20801, Note_on_c, 0, 71, 80
2, 20801, Note_on_c, 0, 77, 80
2, 20805, Note_on_c, 0, 50, 80
2, 20805, Note_on_c, 0, 62, 80
2, 20805, Note_on_c, 0, 65, 80
2, 20851, Note_on_c, 0, 62, 0
2, 20851, Note_on_c, 0, 77, 0
2, 20851, Note_on_c, 0, 71, 0
2, 20853, Note_on_c, 0, 68, 0
2, 20853, Note_on_c, 0, 50, 0
2, 20855, Note_on_c, 0, 65, 0
2, 20899, Note_on_c, 0, 48, 80
2, 20906, Note_on_c, 0, 75, 80
2, 20906, Note_on_c, 0, 82, 80
2, 20910, Note_on_c, 0, 60, 80
2, 20910, Note_on_c, 0, 70, 80
2, 20931, Note_on_c, 0, 75, 0
2, 20935, Control_c, 0, 64, 127
2, 20956, Note_on_c, 0, 60, 0
2, 20956, Note_on_c, 0, 82, 0
2, 20958, Note_on_c, 0, 70, 0
2, 20958, Note_on_c, 0, 80, 80
2, 20960, Note_on_c, 0, 68, 80
2, 20960, Note_on_c, 0, 75, 80
2, 21013, Note_on_c, 0, 75, 0
2, 21013, Note_on_c, 0, 68, 0
2, 21013, Note_on_c, 0, 80, 0
2, 21017, Note_on_c, 0, 51, 80
2, 21017, Note_on_c, 0, 56, 80
2, 21017, Note_on_c, 0, 60, 80
2, 21042, Note_on_c, 0, 48, 0
2, 21042, Control_c, 0, 64, 0
2, 21069, Note_on_c, 0, 56, 0
2, 21071, Note_on_c, 0, 51, 0
2, 21071, Note_on_c, 0, 60, 0
2, 21072, Note_on_c, 0, 66, 80
2, 21072, Note_on_c, 0, 72, 80
2, 21072, Note_on_c, 0, 75, 80
2, 21072, Note_on_c, 0, 78, 80
2, 21121, Note_on_c, 0, 57, 80
2, 21125, Note_on_c, 0, 45, 80
2, 21174, Note_on_c, 0, 45, 0
2, 21174, Note_on_c, 0, 57, 0
2, 21184, Note_on_c, 0, 75, 0
2, 21184, Note_on_c, 0, 78, 0
2, 21184, Note_on_c, 0, 72, 0
2, 21186, Note_on_c, 0, 66, 0
2, 21226, Note_on_c, 0, 58, 80
2, 21226, Note_on_c, 0, 70, 80
2, 21226, Note_on_c, 0, 73, 80
2, 21226, Note_on_c, 0, 77, 80
2, 21230, Note_on_c, 0, 46, 80
2, 21230, Note_on_c, 0, 65, 80
2, 21270, Note_on_c, 0, 77, 0
2, 21270, Note_on_c, 0, 73, 0
2, 21270, Note_on_c, 0, 70, 0
2, 21276, Note_on_c, 0, 58, 0
2, 21276, Note_on_c, 0, 46, 0
2, 21276, Note_on_c, 0, 65, 0
2, 21329, Note_on_c, 0, 48, 80
2, 21329, Note_on_c, 0, 63, 80
2, 21329, Note_on_c, 0, 66, 80
2, 21329, Note_on_c, 0, 72, 80
2, 21329, Note_on_c, 0, 75, 80
2, 21333, Note_on_c, 0, 36, 80
2, 21354, Control_c, 0, 64, 127
2, 21373, Note_on_c, 0, 75, 0
2, 21373, Note_on_c, 0, 72, 0
2, 21373, Note_on_c, 0, 66, 0
2, 21373, Note_on_c, 0, 63, 0
2, 21375, Note_on_c, 0, 61, 80
2, 21375, Note_on_c, 0, 65, 80
2, 21375, Note_on_c, 0, 70, 80
2, 21375, Note_on_c, 0, 73, 80
2, 21377, Note_on_c, 0, 48, 0
2, 21377, Note_on_c, 0, 36, 0
2, 21423, Note_on_c, 0, 70, 0
2, 21423, Note_on_c, 0, 73, 0
2, 21427, Note_on_c, 0, 65, 0
2, 21427, Note_on_c, 0, 61, 0
2, 21429, Note_on_c, 0, 37, 80
2, 21431, Note_on_c, 0, 49, 80
2, 21450, Control_c, 0, 64, 0
2, 21479, Note_on_c, 0, 60, 80
2, 21479, Note_on_c, 0, 63, 80
2, 21479, Note_on_c, 0, 67, 80
2, 21479, Note_on_c, 0, 72, 80
2, 21480, Note_on_c, 0, 49, 0
2, 21480, Note_on_c, 0, 37, 0
2, 21529, Note_on_c, 0, 39, 80
2, 21529, Note_on_c, 0, 51, 80
2, 21551, Note_on_c, 0, 72, 0
2, 21554, Note_on_c, 0, 60, 0
2, 21554, Note_on_c, 0, 63, 0
2, 21554, Note_on_c, 0, 67, 0
2, 21579, Note_on_c, 0, 75, 80
2, 21630, Note_on_c, 0, 61, 80
2, 21632, Note_on_c, 0, 75, 0
2, 21634, Note_on_c, 0, 58, 80
2, 21634, Note_on_c, 0, 67, 80
2, 21634, Note_on_c, 0, 70, 80
2, 21680, Note_on_c, 0, 70, 0
2, 21680, Note_on_c, 0, 61, 0
2, 21682, Note_on_c, 0, 58, 0
2, 21682, Note_on_c, 0, 67, 0
2, 21686, Note_on_c, 0, 39, 0
2, 21739, Note_on_c, 0, 60, 80
2, 21739, Note_on_c, 0, 63, 80
2, 21739, Note_on_c, 0, 68, 80
2, 21743, Note_on_c, 0, 44, 80
2, 21743, Note_on_c, 0, 56, 80
2, 21766, Control_c, 0, 64, 127
2, 21789, Note_on_c, 0, 68, 0
2, 21789, Note_on_c, 0, 63, 0
2, 21791, Note_on_c, 0, 60, 0
2, 21791, Note_on_c, 0, 56, 0
2, 21792, Note_on_c, 0, 51, 0
2, 21792, Note_on_c, 0, 44, 0
2, 21847, Note_on_c, 0, 63, 80
2, 21847, Note_on_c, 0, 75, 80
2, 21872, Control_c, 0, 64, 0
2, 21899, Note_on_c, 0, 75, 0
2, 21899, Note_on_c, 0, 63, 0
2, 21901, Note_on_c, 0, 62, 80
2, 21903, Note_on_c, 0, 74, 80
2, 21949, Note_on_c, 0, 74, 0
2, 21949, Note_on_c, 0, 62, 0
2, 21951, Note_on_c, 0, 63, 80
2, 21951, Note_on_c, 0, 75, 80
2, 22002, Note_on_c, 0, 74, 80
2, 22004, Note_on_c, 0, 75, 0
2, 22006, Note_on_c, 0, 63, 0
2, 22006, Note_on_c, 0, 62, 80
2, 22052, Note_on_c, 0, 62, 0
2, 22056, Note_on_c, 0, 63, 80
2, 22056, Note_on_c, 0, 75, 80
2, 22065, Note_on_c, 0, 74, 0
2, 22104, Note_on_c, 0, 63, 0
2, 22111, Note_on_c, 0, 64, 80
2, 22111, Note_on_c, 0, 76, 80
2, 22119, Note_on_c, 0, 75, 0
2, 22148, Note_on_c, 0, 46, 80
2, 22153, Note_on_c, 0, 76, 0
2, 22157, Note_on_c, 0, 64, 0
2, 22159, Note_on_c, 0, 58, 80
2, 22159, Note_on_c, 0, 61, 80
2, 22159, Note_on_c, 0, 65, 80
2, 22159, Note_on_c, 0, 67, 80
2, 22159, Note_on_c, 0, 73, 80
2, 22159, Note_on_c, 0, 77, 80
2, 22182, Control_c, 0, 64, 127
2, 22203, Note_on_c, 0, 61, 0
2, 22203, Note_on_c, 0, 58, 0
2, 22207, Note_on_c, 0, 46, 0
2, 22253, Note_on_c, 0, 77, 0
2, 22253, Note_on_c, 0, 61, 80
2, 22253, Note_on_c, 0, 89, 80
2, 22257, Note_on_c, 0, 55, 80
2, 22259, Note_on_c, 0, 51, 80
2, 22278, Control_c, 0, 64, 0
2, 22303, Note_on_c, 0, 55, 0
2, 22305, Note_on_c, 0, 77, 80
2, 22305, Note_on_c, 0, 82, 80
2, 22305, Note_on_c, 0, 85, 80
2, 22307, Note_on_c, 0, 51, 0
2, 22353, Note_on_c, 0, 82, 0
2, 22359, Note_on_c, 0, 39, 80
2, 22359, Note_on_c, 0, 51, 80
2, 22405, Note_on_c, 0, 61, 0
2, 22405, Note_on_c, 0, 85, 0
2, 22405, Note_on_c, 0, 73, 0
2, 22405, Note_on_c, 0, 89, 0
2, 22405, Note_on_c, 0, 77, 0
2, 22407, Note_on_c, 0, 82, 80
2, 22409, Note_on_c, 0, 39, 0
2, 22409, Note_on_c, 0, 51, 0
2, 22409, Note_on_c, 0, 67, 0
2, 22469, Note_on_c, 0, 55, 80
2, 22469, Note_on_c, 0, 61, 80
2, 22469, Note_on_c, 0, 70, 80
2, 22469, Note_on_c, 0, 73, 80
2, 22469, Note_on_c, 0, 77, 80
2, 22473, Note_on_c, 0, 51, 80
2, 22522, Note_on_c, 0, 77, 0
2, 22522, Note_on_c, 0, 82, 0
2, 22522, Note_on_c, 0, 70, 0
2, 22522, Note_on_c, 0, 73, 0
2, 22526, Note_on_c, 0, 65, 0
2, 22526, Note_on_c, 0, 51, 0
2, 22526, Note_on_c, 0, 55, 0
2, 22572, Note_on_c, 0, 46, 80
2, 22580, Note_on_c, 0, 77, 80
2, 22584, Note_on_c, 0, 58, 80
2, 22584, Note_on_c, 0, 65, 80
2, 22584, Note_on_c, 0, 70, 80
2, 22584, Note_on_c, 0, 73, 80
2, 22607, Control_c, 0, 64, 127
2, 22630, Note_on_c, 0, 73, 0
2, 22630, Note_on_c, 0, 58, 0
2, 22630, Note_on_c, 0, 46, 0
2, 22630, Note_on_c, 0, 77, 0
2, 22630, Note_on_c, 0, 61, 0
2, 22630, Note_on_c, 0, 70, 0
2, 22635, Note_on_c, 0, 65, 0
2, 22686, Note_on_c, 0, 61, 80
2, 22690, Note_on_c, 0, 51, 80
2, 22690, Note_on_c, 0, 55, 80
2, 22690, Note_on_c, 0, 63, 80
2, 22690, Note_on_c, 0, 75, 80
2, 22717, Control_c, 0, 64, 0
2, 22738, Note_on_c, 0, 75, 0
2, 22738, Note_on_c, 0, 61, 0
2, 22738, Note_on_c, 0, 63, 0
2, 22740, Note_on_c, 0, 62, 80
2, 22742, Note_on_c, 0, 55, 0
2, 22742, Note_on_c, 0, 51, 0
2, 22742, Note_on_c, 0, 74, 80
2, 22795, Note_on_c, 0, 74, 0
2, 22797, Note_on_c, 0, 62, 0
2, 22797, Note_on_c, 0, 63, 80
2, 22797, Note_on_c, 0, 75, 80
2, 22800, Note_on_c, 0, 51, 80
2, 22851, Note_on_c, 0, 75, 0
2, 22853, Note_on_c, 0, 63, 0
2, 22855, Note_on_c, 0, 62, 80
2, 22855, Note_on_c, 0, 74, 80
2, 22857, Note_on_c, 0, 51, 0
2, 22899, Note_on_c, 0, 49, 80
2, 22905, Note_on_c, 0, 74, 0
2, 22907, Note_on_c, 0, 61, 80
2, 22909, Note_on_c, 0, 62, 0
2, 22911, Note_on_c, 0, 63, 80
2, 22911, Note_on_c, 0, 75, 80
2, 22957, Note_on_c, 0, 75, 0
2, 22957, Note_on_c, 0, 63, 0
2, 22957, Note_on_c, 0, 61, 0
2, 22961, Note_on_c, 0, 64, 80
2, 22961, Note_on_c, 0, 76, 80
2, 22963, Note_on_c, 0, 49, 0
2, 23009, Note_on_c, 0, 64, 0
2, 23011, Note_on_c, 0, 76, 0
2, 23013, Note_on_c, 0, 60, 80
2, 23013, Note_on_c, 0, 68, 80
2, 23013, Note_on_c, 0, 72, 80
2, 23013, Note_on_c, 0, 77, 80
2, 23016, Note_on_c, 0, 48, 80
2, 23016, Note_on_c, 0, 65, 80
2, 23036, Control_c, 0, 64, 127
2, 23063, Note_on_c, 0, 48, 0
2, 23063, Note_on_c, 0, 60, 0
2, 23113, Note_on_c, 0, 77, 0
2, 23113, Note_on_c, 0, 89, 80
2, 23115, Note_on_c, 0, 56, 80
2, 23115, Note_on_c, 0, 60, 80
2, 23119, Note_on_c, 0, 51, 80
2, 23129, Control_c, 0, 64, 0
2, 23161, Note_on_c, 0, 77, 80
2, 23161, Note_on_c, 0, 84, 80
2, 23163, Note_on_c, 0, 56, 0
2, 23165, Note_on_c, 0, 51, 0
2, 23165, Note_on_c, 0, 80, 80
2, 23220, Note_on_c, 0, 51, 80
2, 23224, Note_on_c, 0, 39, 80
2, 23226, Note_on_c, 0, 84, 0
2, 23266, Note_on_c, 0, 80, 0
2, 23266, Note_on_c, 0, 77, 0
2, 23266, Note_on_c, 0, 72, 0
2, 23266, Note_on_c, 0, 89, 0
2, 23268, Note_on_c, 0, 39, 0
2, 23268, Note_on_c, 0, 84, 80
2, 23270, Note_on_c, 0, 51, 0
2, 23270, Note_on_c, 0, 60, 0
2, 23325, Note_on_c, 0, 72, 80
2, 23325, Note_on_c, 0, 77, 80
2, 23325, Note_on_c, 0, 80, 80
2, 23328, Note_on_c, 0, 51, 80
2, 23328, Note_on_c, 0, 56, 80
2, 23328, Note_on_c, 0, 60, 80
2, 23375, Note_on_c, 0, 56, 0
2, 23376, Note_on_c, 0, 72, 0
2, 23376, Note_on_c, 0, 60, 0
2, 23376, Note_on_c, 0, 77, 0
2, 23376, Note_on_c, 0, 68, 0
2, 23376, Note_on_c, 0, 84, 0
2, 23376, Note_on_c, 0, 51, 0
2, 23376, Note_on_c, 0, 80, 0
2, 23380, Note_on_c, 0, 65, 0
2, 23419, Note_on_c, 0, 48, 80
2, 23430, Note_on_c, 0, 60, 80
2, 23430, Note_on_c, 0, 65, 80
2, 23430, Note_on_c, 0, 68, 80
2, 23430, Note_on_c, 0, 72, 80
2, 23430, Note_on_c, 0, 77, 80
2, 23453, Control_c, 0, 64, 127
2, 23476, Note_on_c, 0, 77, 0
2, 23476, Note_on_c, 0, 72, 0
2, 23480, Note_on_c, 0, 65, 0
2, 23480, Note_on_c, 0, 48, 0
2, 23480, Note_on_c, 0, 60, 0
2, 23480, Note_on_c, 0, 68, 0
2, 23531, Note_on_c, 0, 63, 80
2, 23531, Note_on_c, 0, 75, 80
2, 23533, Note_on_c, 0, 56, 80
2, 23535, Note_on_c, 0, 51, 80
2, 23535, Note_on_c, 0, 60, 80
2, 23560, Control_c, 0, 64, 0
2, 23583, Note_on_c, 0, 56, 0
2, 23583, Note_on_c, 0, 63, 0
2, 23583, Note_on_c, 0, 75, 0
2, 23583, Note_on_c, 0, 62, 80
2, 23585, Note_on_c, 0, 74, 80
2, 23587, Note_on_c, 0, 51, 0
2, 23623, Note_on_c, 0, 46, 80
2, 23633, Note_on_c, 0, 74, 0
2, 23635, Note_on_c, 0, 62, 0
2, 23635, Note_on_c, 0, 58, 80
2, 23635, Note_on_c, 0, 63, 80
2, 23635, Note_on_c, 0, 75, 80
2, 23688, Note_on_c, 0, 75, 0
2, 23688, Note_on_c, 0, 58, 0
2, 23688, Note_on_c, 0, 63, 0
2, 23688, Note_on_c, 0, 46, 0
2, 23688, Note_on_c, 0, 62, 80
2, 23689, Note_on_c, 0, 74, 80
2, 23740, Note_on_c, 0, 56, 80
2, 23742, Note_on_c, 0, 63, 80
2, 23742, Note_on_c, 0, 75, 80
2, 23746, Note_on_c, 0, 44, 80
2, 23752, Note_on_c, 0, 74, 0
2, 23752, Note_on_c, 0, 62, 0
2, 23788, Note_on_c, 0, 75, 0
2, 23792, Note_on_c, 0, 56, 0
2, 23792, Note_on_c, 0, 44, 0
2, 23792, Note_on_c, 0, 77, 80
2, 23796, Note_on_c, 0, 65, 80
2, 23815, Note_on_c, 0, 63, 0
2, 23844, Note_on_c, 0, 43, 80
2, 23844, Note_on_c, 0, 55, 80
2, 23844, Note_on_c, 0, 67, 80
2, 23844, Note_on_c, 0, 72, 80
2, 23844, Note_on_c, 0, 75, 80
2, 23844, Note_on_c, 0, 79, 80
2, 23863, Note_on_c, 0, 77, 0
2, 23869, Note_on_c, 0, 65, 0
2, 23869, Control_c, 0, 64, 127
2, 23890, Note_on_c, 0, 91, 80
2, 23892, Note_on_c, 0, 55, 0
2, 23892, Note_on_c, 0, 60, 0
2, 23894, Note_on_c, 0, 43, 0
2, 23943, Note_on_c, 0, 87, 80
2, 23949, Note_on_c, 0, 55, 80
2, 23949, Note_on_c, 0, 60, 80
2, 23949, Note_on_c, 0, 63, 80
2, 23966, Note_on_c, 0, 91, 0
2, 23972, Control_c, 0, 64, 0
2, 23995, Note_on_c, 0, 79, 0
2, 23997, Note_on_c, 0, 84, 80
2, 24016, Note_on_c, 0, 87, 0
2, 24050, Note_on_c, 0, 75, 0
2, 24054, Note_on_c, 0, 79, 80
2, 24079, Note_on_c, 0, 84, 0
2, 24102, Note_on_c, 0, 72, 0
2, 24102, Note_on_c, 0, 63, 0
2, 24104, Note_on_c, 0, 75, 80
2, 24106, Note_on_c, 0, 55, 0
2, 24106, Note_on_c, 0, 60, 0
2, 24129, Note_on_c, 0, 79, 0
2, 24143, Note_on_c, 0, 48, 80
2, 24152, Note_on_c, 0, 60, 80
2, 24152, Note_on_c, 0, 72, 80
2, 24156, Note_on_c, 0, 67, 0
2, 24179, Note_on_c, 0, 75, 0
2, 24210, Note_on_c, 0, 60, 0
2, 24210, Note_on_c, 0, 67, 80
2, 24212, Note_on_c, 0, 48, 0
2, 24233, Note_on_c, 0, 72, 0
2, 24260, Note_on_c, 0, 67, 0
2, 24260, Note_on_c, 0, 71, 80
2, 24260, Note_on_c, 0, 80, 80
2, 24262, Note_on_c, 0, 68, 80
2, 24262, Note_on_c, 0, 74, 80
2, 24262, Note_on_c, 0, 77, 80
2, 24265, Note_on_c, 0, 50, 80
2, 24265, Note_on_c, 0, 62, 80
2, 24288, Control_c, 0, 64, 127
2, 24310, Note_on_c, 0, 80, 0
2, 24312, Note_on_c, 0, 77, 0
2, 24312, Note_on_c, 0, 68, 0
2, 24312, Note_on_c, 0, 74, 0
2, 24312, Note_on_c, 0, 71, 0
2, 24312, Note_on_c, 0, 50, 0
2, 24315, Note_on_c, 0, 62, 0
2, 24366, Note_on_c, 0, 59, 80
2, 24366, Note_on_c, 0, 67, 80
2, 24366, Note_on_c, 0, 71, 80
2, 24366, Note_on_c, 0, 77, 80
2, 24366, Note_on_c, 0, 79, 80
2, 24370, Note_on_c, 0, 55, 80
2, 24370, Note_on_c, 0, 65, 80
2, 24391, Control_c, 0, 64, 0
2, 24414, Note_on_c, 0, 79, 0
2, 24414, Note_on_c, 0, 77, 0
2, 24414, Note_on_c, 0, 59, 0
2, 24414, Note_on_c, 0, 71, 0
2, 24414, Note_on_c, 0, 67, 0
2, 24418, Note_on_c, 0, 65, 0
2, 24418, Note_on_c, 0, 55, 0
2, 24469, Note_on_c, 0, 55, 80
2, 24469, Note_on_c, 0, 66, 80
2, 24469, Note_on_c, 0, 71, 80
2, 24469, Note_on_c, 0, 77, 80
2, 24469, Note_on_c, 0, 78, 80
2, 24473, Note_on_c, 0, 43, 80
2, 24513, Note_on_c, 0, 78, 0
2, 24517, Note_on_c, 0, 55, 0
2, 24517, Note_on_c, 0, 43, 0
2, 24517, Note_on_c, 0, 67, 80
2, 24517, Note_on_c, 0, 79, 80
2, 24525, Note_on_c, 0, 66, 0
2, 24542, Note_on_c, 0, 67, 0
2, 24571, Note_on_c, 0, 55, 80
2, 24571, Note_on_c, 0, 59, 80
2, 24571, Note_on_c, 0, 67, 80
2, 24575, Note_on_c, 0, 65, 80
2, 24592, Note_on_c, 0, 79, 0
2, 24596, Note_on_c, 0, 77, 0
2, 24596, Note_on_c, 0, 71, 0
2, 24621, Note_on_c, 0, 84, 80
2, 24623, Note_on_c, 0, 65, 0
2, 24623, Note_on_c, 0, 55, 0
2, 24624, Note_on_c, 0, 59, 0
2, 24624, Note_on_c, 0, 67, 0
2, 24624, Note_on_c, 0, 72, 80
2, 24624, Note_on_c, 0, 75, 80
2, 24681, Note_on_c, 0, 48, 80
2, 24681, Note_on_c, 0, 60, 80
2, 24706, Control_c, 0, 64, 127
2, 24729, Note_on_c, 0, 60, 0
2, 24729, Note_on_c, 0, 75, 0
2, 24729, Note_on_c, 0, 84, 0
2, 24729, Note_on_c, 0, 72, 0
2, 24729, Note_on_c, 0, 48, 0
2, 24788, Note_on_c, 0, 54, 80
2, 24790, Note_on_c, 0, 66, 80
2, 24813, Control_c, 0, 64, 0
2, 24838, Note_on_c, 0, 66, 0
2, 24838, Note_on_c, 0, 54, 0
2, 24840, Note_on_c, 0, 55, 80
2, 24841, Note_on_c, 0, 67, 80
2, 24913, Note_on_c, 0, 55, 0
2, 24915, Note_on_c, 0, 67, 0
2, 24944, Note_on_c, 0, 50, 80
2, 24944, Note_on_c, 0, 62, 80
2, 24995, Note_on_c, 0, 50, 0
2, 24997, Note_on_c, 0, 63, 80
2, 24999, Note_on_c, 0, 62, 0
2, 25001, Note_on_c, 0, 51, 80
2, 25050, Note_on_c, 0, 51, 0
2, 25050, Note_on_c, 0, 63, 0
2, 25103, Note_on_c, 0, 60, 80
2, 25104, Note_on_c, 0, 48, 80
2, 25131, Control_c, 0, 64, 127
2, 25152, Note_on_c, 0, 60, 0
2, 25158, Note_on_c, 0, 48, 0
2, 25207, Note_on_c, 0, 63, 80
2, 25207, Note_on_c, 0, 75, 80
2, 25232, Control_c, 0, 64, 0
2, 25257, Note_on_c, 0, 75, 0
2, 25257, Note_on_c, 0, 63, 0
2, 25259, Note_on_c, 0, 74, 80
2, 25261, Note_on_c, 0, 62, 80
2, 25312, Note_on_c, 0, 62, 0
2, 25314, Note_on_c, 0, 74, 0
2, 25316, Note_on_c, 0, 63, 80
2, 25316, Note_on_c, 0, 75, 80
2, 25362, Note_on_c, 0, 75, 0
2, 25362, Note_on_c, 0, 63, 0
2, 25362, Note_on_c, 0, 62, 80
2, 25364, Note_on_c, 0, 74, 80
2, 25416, Note_on_c, 0, 74, 0
2, 25416, Note_on_c, 0, 62, 0
2, 25418, Note_on_c, 0, 75, 80
2, 25420, Note_on_c, 0, 63, 80
2, 25473, Note_on_c, 0, 75, 0
2, 25475, Note_on_c, 0, 63, 0
2, 25477, Note_on_c, 0, 64, 80
2, 25477, Note_on_c, 0, 76, 80
2, 25526, Note_on_c, 0, 76, 0
2, 25530, Note_on_c, 0, 64, 0
2, 25532, Note_on_c, 0, 58, 80
2, 25532, Note_on_c, 0, 61, 80
2, 25532, Note_on_c, 0, 67, 80
2, 25532, Note_on_c, 0, 73, 80
2, 25532, Note_on_c, 0, 77, 80
2, 25536, Note_on_c, 0, 46, 80
2, 25536, Note_on_c, 0, 65, 80
2, 25557, Control_c, 0, 64, 127
2, 25580, Note_on_c, 0, 61, 0
2, 25582, Note_on_c, 0, 58, 0
2, 25582, Note_on_c, 0, 46, 0
2, 25631, Note_on_c, 0, 77, 0
2, 25632, Note_on_c, 0, 89, 80
2, 25634, Note_on_c, 0, 61, 80
2, 25638, Note_on_c, 0, 51, 80
2, 25638, Note_on_c, 0, 55, 80
2, 25657, Control_c, 0, 64, 0
2, 25680, Note_on_c, 0, 55, 0
2, 25682, Note_on_c, 0, 51, 0
2, 25682, Note_on_c, 0, 77, 80
2, 25682, Note_on_c, 0, 82, 80
2, 25682, Note_on_c, 0, 85, 80
2, 25735, Note_on_c, 0, 51, 80
2, 25737, Note_on_c, 0, 39, 80
2, 25741, Note_on_c, 0, 82, 0
2, 25777, Note_on_c, 0, 85, 0
2, 25777, Note_on_c, 0, 77, 0
2, 25777, Note_on_c, 0, 89, 0
2, 25781, Note_on_c, 0, 82, 80
2, 25783, Note_on_c, 0, 51, 0
2, 25783, Note_on_c, 0, 61, 0
2, 25783, Note_on_c, 0, 39, 0
2, 25795, Note_on_c, 0, 73, 0
2, 25833, Note_on_c, 0, 61, 80
2, 25833, Note_on_c, 0, 73, 80
2, 25833, Note_on_c, 0, 77, 80
2, 25835, Note_on_c, 0, 51, 80
2, 25835, Note_on_c, 0, 55, 80
2, 25835, Note_on_c, 0, 70, 80
2, 25879, Note_on_c, 0, 77, 0
2, 25879, Note_on_c, 0, 82, 0
2, 25883, Note_on_c, 0, 70, 0
2, 25883, Note_on_c, 0, 51, 0
2, 25883, Note_on_c, 0, 67, 0
2, 25883, Note_on_c, 0, 65, 0
2, 25883, Note_on_c, 0, 55, 0
2, 25883, Note_on_c, 0, 73, 0
2, 25923, Note_on_c, 0, 46, 80
2, 25935, Note_on_c, 0, 58, 80
2, 25935, Note_on_c, 0, 73, 80
2, 25935, Note_on_c, 0, 77, 80
2, 25937, Note_on_c, 0, 65, 80
2, 25937, Note_on_c, 0, 70, 80
2, 25960, Control_c, 0, 64, 127
2, 25983, Note_on_c, 0, 70, 0
2, 25983, Note_on_c, 0, 61, 0
2, 25983, Note_on_c, 0, 73, 0
2, 25983, Note_on_c, 0, 58, 0
2, 25983, Note_on_c, 0, 77, 0
2, 25987, Note_on_c, 0, 46, 0
2, 25987, Note_on_c, 0, 65, 0
2, 26040, Note_on_c, 0, 61, 80
2, 26040, Note_on_c, 0, 75, 80
2, 26043, Note_on_c, 0, 51, 80
2, 26043, Note_on_c, 0, 55, 80
2, 26043, Note_on_c, 0, 63, 80
2, 26064, Control_c, 0, 64, 0
2, 26089, Note_on_c, 0, 63, 0
2, 26089, Note_on_c, 0, 61, 0
2, 26089, Note_on_c, 0, 75, 0
2, 26091, Note_on_c, 0, 62, 80
2, 26093, Note_on_c, 0, 51, 0
2, 26093, Note_on_c, 0, 55, 0
2, 26093, Note_on_c, 0, 74, 80
2, 26146, Note_on_c, 0, 62, 0
2, 26148, Note_on_c, 0, 74, 0
2, 26150, Note_on_c, 0, 51, 80
2, 26150, Note_on_c, 0, 63, 80
2, 26150, Note_on_c, 0, 75, 80
2, 26205, Note_on_c, 0, 75, 0
2, 26205, Note_on_c, 0, 63, 0
2, 26208, Note_on_c, 0, 51, 0
2, 26208, Note_on_c, 0, 74, 80
2, 26212, Note_on_c, 0, 62, 80
2, 26258, Note_on_c, 0, 74, 0
2, 26262, Note_on_c, 0, 62, 0
2, 26262, Note_on_c, 0, 61, 80
2, 26264, Note_on_c, 0, 63, 80
2, 26264, Note_on_c, 0, 75, 80
2, 26266, Note_on_c, 0, 49, 80
2, 26317, Note_on_c, 0, 75, 0
2, 26317, Note_on_c, 0, 61, 0
2, 26317, Note_on_c, 0, 63, 0
2, 26319, Note_on_c, 0, 64, 80
2, 26319, Note_on_c, 0, 76, 80
2, 26321, Note_on_c, 0, 49, 0
2, 26370, Note_on_c, 0, 76, 0
2, 26370, Note_on_c, 0, 64, 0
2, 26370, Note_on_c, 0, 72, 80
2, 26370, Note_on_c, 0, 77, 80
2, 26376, Note_on_c, 0, 48, 80
2, 26376, Note_on_c, 0, 60, 80
2, 26376, Note_on_c, 0, 65, 80
2, 26376, Note_on_c, 0, 68, 80
2, 26400, Control_c, 0, 64, 127
2, 26422, Note_on_c, 0, 60, 0
2, 26472, Note_on_c, 0, 77, 0
2, 26474, Note_on_c, 0, 56, 80
2, 26474, Note_on_c, 0, 60, 80
2, 26474, Note_on_c, 0, 89, 80
2, 26480, Note_on_c, 0, 51, 80
2, 26490, Note_on_c, 0, 48, 0
2, 26499, Control_c, 0, 64, 0
2, 26524, Note_on_c, 0, 56, 0
2, 26524, Note_on_c, 0, 77, 80
2, 26524, Note_on_c, 0, 84, 80
2, 26526, Note_on_c, 0, 51, 0
2, 26528, Note_on_c, 0, 80, 80
2, 26574, Note_on_c, 0, 84, 0
2, 26580, Note_on_c, 0, 51, 80
2, 26582, Note_on_c, 0, 39, 80
2, 26622, Note_on_c, 0, 89, 0
2, 26624, Note_on_c, 0, 84, 80
2, 26626, Note_on_c, 0, 60, 0
2, 26626, Note_on_c, 0, 39, 0
2, 26626, Note_on_c, 0, 51, 0
2, 26638, Note_on_c, 0, 80, 0
2, 26638, Note_on_c, 0, 72, 0
2, 26638, Note_on_c, 0, 77, 0
2, 26678, Note_on_c, 0, 51, 80
2, 26678, Note_on_c, 0, 56, 80
2, 26678, Note_on_c, 0, 60, 80
2, 26678, Note_on_c, 0, 72, 80
2, 26678, Note_on_c, 0, 77, 80
2, 26678, Note_on_c, 0, 80, 80
2, 26722, Note_on_c, 0, 80, 0
2, 26722, Note_on_c, 0, 77, 0
2, 26724, Note_on_c, 0, 72, 0
2, 26724, Note_on_c, 0, 68, 0
2, 26726, Note_on_c, 0, 56, 0
2, 26726, Note_on_c, 0, 60, 0
2, 26728, Note_on_c, 0, 65, 0
2, 26728, Note_on_c, 0, 51, 0
2, 26734, Note_on_c, 0, 84, 0
2, 26770, Note_on_c, 0, 48, 80
2, 26782, Note_on_c, 0, 60, 80
2, 26782, Note_on_c, 0, 65, 80
2, 26782, Note_on_c, 0, 68, 80
2, 26782, Note_on_c, 0, 72, 80
2, 26782, Note_on_c, 0, 77, 80
2, 26805, Control_c, 0, 64, 127
2, 26828, Note_on_c, 0, 77, 0
2, 26828, Note_on_c, 0, 68, 0
2, 26828, Note_on_c, 0, 72, 0
2, 26832, Note_on_c, 0, 48, 0
2, 26832, Note_on_c, 0, 65, 0
2, 26832, Note_on_c, 0, 60, 0
2, 26886, Note_on_c, 0, 63, 80
2, 26886, Note_on_c, 0, 75, 80
2, 26927, Control_c, 0, 64, 0
2, 26938, Note_on_c, 0, 75, 0
2, 26938, Note_on_c, 0, 63, 0
2, 26942, Note_on_c, 0, 62, 80
2, 26944, Note_on_c, 0, 74, 80
2, 26995, Note_on_c, 0, 74, 0
2, 26997, Note_on_c, 0, 62, 0
2, 27000, Note_on_c, 0, 63, 80
2, 27000, Note_on_c, 0, 75, 80
2, 27053, Note_on_c, 0, 75, 0
2, 27053, Note_on_c, 0, 63, 0
2, 27057, Note_on_c, 0, 64, 80
2, 27057, Note_on_c, 0, 76, 80
2, 27108, Note_on_c, 0, 76, 0
2, 27110, Note_on_c, 0, 77, 80
2, 27112, Note_on_c, 0, 64, 0
2, 27112, Note_on_c, 0, 65, 80
2, 27154, Note_on_c, 0, 77, 0
2, 27158, Note_on_c, 0, 78, 80
2, 27160, Note_on_c, 0, 65, 0
2, 27162, Note_on_c, 0, 66, 80
2, 27200, Note_on_c, 0, 50, 80
2, 27206, Note_on_c, 0, 78, 0
2, 27210, Note_on_c, 0, 66, 0
2, 27210, Note_on_c, 0, 62, 80
2, 27210, Note_on_c, 0, 71, 80
2, 27210, Note_on_c, 0, 74, 80
2, 27210, Note_on_c, 0, 79, 80
2, 27212, Note_on_c, 0, 67, 80
2, 27212, Note_on_c, 0, 68, 80
2, 27231, Note_on_c, 0, 68, 0
2, 27235, Note_on_c, 0, 71, 0
2, 27235, Note_on_c, 0, 74, 0
2, 27237, Control_c, 0, 64, 127
2, 27258, Note_on_c, 0, 79, 0
2, 27258, Note_on_c, 0, 67, 0
2, 27258, Note_on_c, 0, 50, 0
2, 27260, Note_on_c, 0, 71, 80
2, 27260, Note_on_c, 0, 77, 80
2, 27262, Note_on_c, 0, 68, 80
2, 27262, Note_on_c, 0, 74, 80
2, 27264, Note_on_c, 0, 65, 80
2, 27285, Note_on_c, 0, 65, 0
2, 27308, Note_on_c, 0, 77, 0
2, 27310, Note_on_c, 0, 74, 0
2, 27312, Note_on_c, 0, 71, 0
2, 27313, Note_on_c, 0, 68, 0
2, 27313, Note_on_c, 0, 56, 80
2, 27315, Note_on_c, 0, 59, 80
2, 27315, Note_on_c, 0, 65, 80
2, 27346, Control_c, 0, 64, 0
2, 27358, Note_on_c, 0, 56, 0
2, 27360, Note_on_c, 0, 59, 0
2, 27360, Note_on_c, 0, 64, 80
2, 27360, Note_on_c, 0, 68, 80
2, 27360, Note_on_c, 0, 71, 80
2, 27360, Note_on_c, 0, 76, 80
2, 27361, Note_on_c, 0, 65, 0
2, 27384, Note_on_c, 0, 64, 0
2, 27411, Note_on_c, 0, 52, 80
2, 27411, Note_on_c, 0, 64, 80
2, 27456, Note_on_c, 0, 71, 0
2, 27457, Note_on_c, 0, 76, 0
2, 27457, Note_on_c, 0, 68, 0
2, 27457, Note_on_c, 0, 64, 0
2, 27459, Note_on_c, 0, 62, 0
2, 27461, Note_on_c, 0, 52, 0
2, 27507, Note_on_c, 0, 71, 80
2, 27507, Note_on_c, 0, 77, 80
2, 27511, Note_on_c, 0, 50, 80
2, 27511, Note_on_c, 0, 62, 80
2, 27513, Note_on_c, 0, 65, 80
2, 27513, Note_on_c, 0, 68, 80
2, 27562, Note_on_c, 0, 68, 0
2, 27562, Note_on_c, 0, 77, 0
2, 27562, Note_on_c, 0, 71, 0
2, 27562, Note_on_c, 0, 50, 0
2, 27564, Note_on_c, 0, 62, 0
2, 27566, Note_on_c, 0, 65, 0
2, 27606, Note_on_c, 0, 48, 80
2, 27618, Note_on_c, 0, 82, 80
2, 27620, Note_on_c, 0, 60, 80
2, 27620, Note_on_c, 0, 70, 80
2, 27620, Note_on_c, 0, 75, 80
2, 27641, Note_on_c, 0, 75, 0
2, 27643, Control_c, 0, 64, 127
2, 27670, Note_on_c, 0, 60, 0
2, 27670, Note_on_c, 0, 70, 0
2, 27670, Note_on_c, 0, 82, 0
2, 27672, Note_on_c, 0, 75, 80
2, 27672, Note_on_c, 0, 80, 80
2, 27673, Note_on_c, 0, 68, 80
2, 27722, Note_on_c, 0, 80, 0
2, 27722, Note_on_c, 0, 75, 0
2, 27728, Note_on_c, 0, 68, 0
2, 27728, Note_on_c, 0, 56, 80
2, 27728, Note_on_c, 0, 60, 80
2, 27730, Note_on_c, 0, 51, 80
2, 27751, Control_c, 0, 64, 0
2, 27755, Note_on_c, 0, 48, 0
2, 27782, Note_on_c, 0, 56, 0
2, 27782, Note_on_c, 0, 60, 0
2, 27784, Note_on_c, 0, 51, 0
2, 27786, Note_on_c, 0, 66, 80
2, 27786, Note_on_c, 0, 72, 80
2, 27786, Note_on_c, 0, 75, 80
2, 27786, Note_on_c, 0, 78, 80
2, 27837, Note_on_c, 0, 57, 80
2, 27840, Note_on_c, 0, 45, 80
2, 27887, Note_on_c, 0, 45, 0
2, 27887, Note_on_c, 0, 57, 0
2, 27898, Note_on_c, 0, 75, 0
2, 27898, Note_on_c, 0, 78, 0
2, 27898, Note_on_c, 0, 72, 0
2, 27900, Note_on_c, 0, 66, 0
2, 27940, Note_on_c, 0, 77, 80
2, 27942, Note_on_c, 0, 58, 80
2, 27942, Note_on_c, 0, 70, 80
2, 27942, Note_on_c, 0, 73, 80
2, 27946, Note_on_c, 0, 46, 80
2, 27946, Note_on_c, 0, 65, 80
2, 27990, Note_on_c, 0, 73, 0
2, 27990, Note_on_c, 0, 70, 0
2, 27990, Note_on_c, 0, 77, 0
2, 27990, Note_on_c, 0, 58, 0
2, 27994, Note_on_c, 0, 65, 0
2, 27994, Note_on_c, 0, 46, 0
2, 28051, Note_on_c, 0, 48, 80
2, 28051, Note_on_c, 0, 72, 80
2, 28051, Note_on_c, 0, 75, 80
2, 28053, Note_on_c, 0, 63, 80
2, 28053, Note_on_c, 0, 66, 80
2, 28055, Note_on_c, 0, 36, 80
2, 28072, Control_c, 0, 64, 127
2, 28091, Note_on_c, 0, 72, 0
2, 28093, Note_on_c, 0, 63, 0
2, 28095, Note_on_c, 0, 75, 0
2, 28095, Note_on_c, 0, 48, 0
2, 28095, Note_on_c, 0, 36, 0
2, 28097, Note_on_c, 0, 66, 0
2, 28099, Note_on_c, 0, 61, 80
2, 28099, Note_on_c, 0, 65, 80
2, 28099, Note_on_c, 0, 70, 80
2, 28099, Note_on_c, 0, 73, 80
2, 28145, Note_on_c, 0, 73, 0
2, 28145, Note_on_c, 0, 70, 0
2, 28145, Note_on_c, 0, 61, 0
2, 28151, Note_on_c, 0, 65, 0
2, 28151, Note_on_c, 0, 37, 80
2, 28151, Note_on_c, 0, 49, 80
2, 28174, Control_c, 0, 64, 0
2, 28197, Note_on_c, 0, 72, 80
2, 28199, Note_on_c, 0, 49, 0
2, 28199, Note_on_c, 0, 37, 0
2, 28199, Note_on_c, 0, 67, 80
2, 28200, Note_on_c, 0, 60, 80
2, 28202, Note_on_c, 0, 63, 80
2, 28251, Note_on_c, 0, 51, 80
2, 28255, Note_on_c, 0, 39, 80
2, 28271, Note_on_c, 0, 63, 0
2, 28271, Note_on_c, 0, 72, 0
2, 28272, Note_on_c, 0, 67, 0
2, 28274, Note_on_c, 0, 60, 0
2, 28301, Note_on_c, 0, 75, 80
2, 28352, Note_on_c, 0, 75, 0
2, 28356, Note_on_c, 0, 58, 80
2, 28356, Note_on_c, 0, 61, 80
2, 28356, Note_on_c, 0, 67, 80
2, 28356, Note_on_c, 0, 70, 80
2, 28398, Note_on_c, 0, 70, 0
2, 28398, Note_on_c, 0, 61, 0
2, 28400, Note_on_c, 0, 58, 0
2, 28400, Note_on_c, 0, 67, 0
2, 28404, Note_on_c, 0, 39, 0
2, 28461, Note_on_c, 0, 44, 80
2, 28461, Note_on_c, 0, 56, 80
2, 28461, Note_on_c, 0, 60, 80
2, 28461, Note_on_c, 0, 63, 80
2, 28461, Note_on_c, 0, 68, 80
2, 28484, Control_c, 0, 64, 127
2, 28509, Note_on_c, 0, 68, 0
2, 28509, Note_on_c, 0, 60, 0
2, 28509, Note_on_c, 0, 56, 0
2, 28509, Note_on_c, 0, 63, 0
2, 28512, Note_on_c, 0, 51, 0
2, 28512, Note_on_c, 0, 44, 0
2, 28573, Note_on_c, 0, 39, 80
2, 28573, Note_on_c, 0, 51, 80
2, 28594, Control_c, 0, 64, 0
2, 28623, Note_on_c, 0, 51, 0
2, 28623, Note_on_c, 0, 39, 0
2, 28676, Note_on_c, 0, 56, 80
2, 28680, Note_on_c, 0, 44, 80
2, 28728, Note_on_c, 0, 44, 0
2, 28728, Note_on_c, 0, 56, 0
2, 28728, Note_on_c, 0, 84, 80
2, 28777, Note_on_c, 0, 84, 0
2, 28783, Note_on_c, 0, 85, 80
2, 28834, Note_on_c, 0, 85, 0
2, 28836, Note_on_c, 0, 86, 80
2, 28887, Note_on_c, 0, 86, 0
2, 28887, Note_on_c, 0, 80, 80
2, 28887, Note_on_c, 0, 87, 80
2, 28916, Control_c, 0, 64, 127
2, 28935, Note_on_c, 0, 87, 0
2, 28935, Note_on_c, 0, 80, 0
2, 28937, Note_on_c, 0, 92, 80
2, 28988, Note_on_c, 0, 92, 0
2, 28995, Note_on_c, 0, 77, 80
2, 29018, Control_c, 0, 64, 0
2, 29040, Note_on_c, 0, 77, 0
2, 29040, Note_on_c, 0, 89, 80
2, 29041, Note_on_c, 0, 80, 80
2, 29043, Note_on_c, 0, 83, 80
2, 29094, Note_on_c, 0, 74, 80
2, 29115, Note_on_c, 0, 83, 0
2, 29115, Note_on_c, 0, 89, 0
2, 29115, Note_on_c, 0, 80, 0
2, 29142, Note_on_c, 0, 74, 0
2, 29148, Note_on_c, 0, 86, 80
2, 29194, Note_on_c, 0, 86, 0
2, 29200, Note_on_c, 0, 71, 80
2, 29200, Note_on_c, 0, 83, 80
2, 29246, Note_on_c, 0, 83, 0
2, 29246, Note_on_c, 0, 71, 0
2, 29250, Note_on_c, 0, 80, 80
2, 29299, Note_on_c, 0, 80, 0
2, 29304, Note_on_c, 0, 68, 80
2, 29304, Note_on_c, 0, 77, 80
2, 29328, Control_c, 0, 64, 127
2, 29349, Note_on_c, 0, 77, 0
2, 29349, Note_on_c, 0, 68, 0
2, 29351, Note_on_c, 0, 79, 80
2, 29400, Note_on_c, 0, 79, 0
2, 29403, Note_on_c, 0, 80, 80
2, 29405, Note_on_c, 0, 65, 80
2, 29430, Control_c, 0, 64, 0
2, 29453, Note_on_c, 0, 80, 0
2, 29455, Note_on_c, 0, 83, 80
2, 29457, Note_on_c, 0, 65, 0
2, 29510, Note_on_c, 0, 62, 80
2, 29531, Note_on_c, 0, 83, 0
2, 29558, Note_on_c, 0, 62, 0
2, 29562, Note_on_c, 0, 80, 80
2, 29608, Note_on_c, 0, 80, 0
2, 29610, Note_on_c, 0, 77, 80
2, 29616, Note_on_c, 0, 59, 80
2, 29658, Note_on_c, 0, 77, 0
2, 29664, Note_on_c, 0, 59, 0
2, 29665, Note_on_c, 0, 74, 80
2, 29712, Note_on_c, 0, 84, 80
2, 29713, Note_on_c, 0, 74, 0
2, 29715, Note_on_c, 0, 60, 80
2, 29715, Note_on_c, 0, 72, 80
2, 29715, Note_on_c, 0, 80, 80
2, 29717, Note_on_c, 0, 48, 80
2, 29717, Note_on_c, 0, 68, 80
2, 29736, Note_on_c, 0, 72, 0
2, 29736, Note_on_c, 0, 84, 0
2, 29740, Control_c, 0, 64, 127
2, 29761, Note_on_c, 0, 80, 0
2, 29761, Note_on_c, 0, 68, 0
2, 29763, Note_on_c, 0, 84, 80
2, 29765, Note_on_c, 0, 60, 0
2, 29765, Note_on_c, 0, 67, 80
2, 29769, Note_on_c, 0, 72, 80
2, 29769, Note_on_c, 0, 79, 80
2, 29815, Note_on_c, 0, 84, 0
2, 29817, Note_on_c, 0, 72, 0
2, 29817, Note_on_c, 0, 79, 0
2, 29817, Note_on_c, 0, 67, 0
2, 29819, Note_on_c, 0, 56, 80
2, 29819, Note_on_c, 0, 63, 80
2, 29819, Note_on_c, 0, 68, 80
2, 29823, Note_on_c, 0, 51, 80
2, 29823, Note_on_c, 0, 60, 80
2, 29846, Note_on_c, 0, 48, 0
2, 29848, Control_c, 0, 64, 0
2, 29869, Note_on_c, 0, 68, 0
2, 29869, Note_on_c, 0, 63, 0
2, 29871, Note_on_c, 0, 72, 80
2, 29871, Note_on_c, 0, 77, 80
2, 29871, Note_on_c, 0, 84, 80
2, 29873, Note_on_c, 0, 56, 0
2, 29873, Note_on_c, 0, 51, 0
2, 29875, Note_on_c, 0, 65, 80
2, 29929, Note_on_c, 0, 68, 80
2, 29935, Note_on_c, 0, 39, 80
2, 29935, Note_on_c, 0, 51, 80
2, 29954, Note_on_c, 0, 84, 0
2, 29956, Note_on_c, 0, 65, 0
2, 29956, Note_on_c, 0, 60, 0
2, 29956, Note_on_c, 0, 77, 0
2, 29956, Note_on_c, 0, 72, 0
2, 29979, Note_on_c, 0, 68, 0
2, 29979, Note_on_c, 0, 39, 0
2, 29983, Note_on_c, 0, 51, 0
2, 29983, Note_on_c, 0, 87, 80
2, 29985, Note_on_c, 0, 75, 80
2, 30038, Note_on_c, 0, 87, 0
2, 30040, Note_on_c, 0, 75, 0
2, 30040, Note_on_c, 0, 56, 80
2, 30040, Note_on_c, 0, 77, 80
2, 30040, Note_on_c, 0, 89, 80
2, 30044, Note_on_c, 0, 60, 80
2, 30044, Note_on_c, 0, 63, 80
2, 30044, Note_on_c, 0, 68, 80
2, 30046, Note_on_c, 0, 51, 80
2, 30088, Note_on_c, 0, 89, 0
2, 30088, Note_on_c, 0, 77, 0
2, 30090, Note_on_c, 0, 91, 80
2, 30092, Note_on_c, 0, 60, 0
2, 30092, Note_on_c, 0, 56, 0
2, 30092, Note_on_c, 0, 79, 80
2, 30094, Note_on_c, 0, 63, 0
2, 30094, Note_on_c, 0, 51, 0
2, 30140, Note_on_c, 0, 91, 0
2, 30140, Note_on_c, 0, 96, 80
2, 30142, Note_on_c, 0, 79, 0
2, 30145, Note_on_c, 0, 84, 80
2, 30145, Note_on_c, 0, 92, 80
2, 30147, Note_on_c, 0, 48, 80
2, 30147, Note_on_c, 0, 60, 80
2, 30147, Note_on_c, 0, 63, 80
2, 30163, Note_on_c, 0, 96, 0
2, 30167, Note_on_c, 0, 84, 0
2, 30170, Control_c, 0, 64, 127
2, 30172, Note_on_c, 0, 68, 0
2, 30192, Note_on_c, 0, 96, 80
2, 30193, Note_on_c, 0, 92, 0
2, 30197, Note_on_c, 0, 60, 0
2, 30197, Note_on_c, 0, 84, 80
2, 30197, Note_on_c, 0, 91, 80
2, 30199, Note_on_c, 0, 63, 0
2, 30240, Note_on_c, 0, 96, 0
2, 30243, Note_on_c, 0, 91, 0
2, 30243, Note_on_c, 0, 84, 0
2, 30247, Note_on_c, 0, 63, 80
2, 30249, Note_on_c, 0, 56, 80
2, 30251, Note_on_c, 0, 51, 80
2, 30251, Note_on_c, 0, 60, 80
2, 30251, Note_on_c, 0, 68, 80
2, 30270, Control_c, 0, 64, 0
2, 30276, Note_on_c, 0, 48, 0
2, 30295, Note_on_c, 0, 96, 80
2, 30299, Note_on_c, 0, 68, 0
2, 30299, Note_on_c, 0, 84, 80
2, 30299, Note_on_c, 0, 89, 80
2, 30301, Note_on_c, 0, 56, 0
2, 30303, Note_on_c, 0, 60, 0
2, 30303, Note_on_c, 0, 51, 0
2, 30354, Note_on_c, 0, 63, 0
2, 30356, Note_on_c, 0, 48, 80
2, 30356, Note_on_c, 0, 60, 80
2, 30373, Note_on_c, 0, 96, 0
2, 30377, Note_on_c, 0, 89, 0
2, 30377, Note_on_c, 0, 84, 0
2, 30408, Note_on_c, 0, 63, 80
2, 30408, Note_on_c, 0, 75, 80
2, 30409, Note_on_c, 0, 48, 0
2, 30409, Note_on_c, 0, 60, 0
2, 30448, Note_on_c, 0, 45, 80
2, 30456, Note_on_c, 0, 63, 0
2, 30456, Note_on_c, 0, 75, 0
2, 30457, Note_on_c, 0, 57, 80
2, 30457, Note_on_c, 0, 77, 80
2, 30461, Note_on_c, 0, 65, 80
2, 30505, Note_on_c, 0, 77, 0
2, 30507, Note_on_c, 0, 67, 80
2, 30509, Note_on_c, 0, 65, 0
2, 30509, Note_on_c, 0, 57, 0
2, 30511, Note_on_c, 0, 79, 80
2, 30521, Note_on_c, 0, 45, 0
2, 30550, Note_on_c, 0, 46, 80
2, 30557, Note_on_c, 0, 79, 0
2, 30559, Note_on_c, 0, 67, 0
2, 30559, Note_on_c, 0, 58, 80
2, 30559, Note_on_c, 0, 80, 80
2, 30559, Note_on_c, 0, 85, 80
2, 30561, Note_on_c, 0, 73, 80
2, 30584, Note_on_c, 0, 73, 0
2, 30584, Note_on_c, 0, 85, 0
2, 30584, Control_c, 0, 64, 127
2, 30605, Note_on_c, 0, 80, 0
2, 30613, Note_on_c, 0, 73, 80
2, 30613, Note_on_c, 0, 79, 80
2, 30613, Note_on_c, 0, 85, 80
2, 30664, Note_on_c, 0, 85, 0
2, 30664, Note_on_c, 0, 73, 0
2, 30664, Note_on_c, 0, 79, 0
2, 30670, Note_on_c, 0, 55, 80
2, 30670, Note_on_c, 0, 61, 80
2, 30672, Note_on_c, 0, 51, 80
2, 30672, Note_on_c, 0, 63, 80
2, 30672, Note_on_c, 0, 67, 80
2, 30695, Note_on_c, 0, 46, 0
2, 30695, Control_c, 0, 64, 0
2, 30720, Note_on_c, 0, 61, 0
2, 30725, Note_on_c, 0, 55, 0
2, 30725, Note_on_c, 0, 51, 0
2, 30725, Note_on_c, 0, 63, 0
2, 30725, Note_on_c, 0, 67, 0
2, 30725, Note_on_c, 0, 73, 80
2, 30725, Note_on_c, 0, 77, 80
2, 30725, Note_on_c, 0, 85, 80
2, 30782, Note_on_c, 0, 51, 80
2, 30782, Note_on_c, 0, 67, 80
2, 30786, Note_on_c, 0, 39, 80
2, 30801, Note_on_c, 0, 85, 0
2, 30801, Note_on_c, 0, 77, 0
2, 30801, Note_on_c, 0, 73, 0
2, 30805, Note_on_c, 0, 58, 0
2, 30828, Note_on_c, 0, 87, 80
2, 30830, Note_on_c, 0, 75, 80
2, 30832, Note_on_c, 0, 39, 0
2, 30832, Note_on_c, 0, 51, 0
2, 30832, Note_on_c, 0, 67, 0
2, 30876, Note_on_c, 0, 87, 0
2, 30878, Note_on_c, 0, 75, 0
2, 30878, Note_on_c, 0, 89, 80
2, 30880, Note_on_c, 0, 77, 80
2, 30884, Note_on_c, 0, 51, 80
2, 30884, Note_on_c, 0, 55, 80
2, 30884, Note_on_c, 0, 61, 80
2, 30884, Note_on_c, 0, 67, 80
2, 30886, Note_on_c, 0, 63, 80
2, 30932, Note_on_c, 0, 63, 0
2, 30932, Note_on_c, 0, 55, 0
2, 30932, Note_on_c, 0, 89, 0
2, 30932, Note_on_c, 0, 77, 0
2, 30932, Note_on_c, 0, 61, 0
2, 30934, Note_on_c, 0, 91, 80
2, 30936, Note_on_c, 0, 79, 80
2, 30937, Note_on_c, 0, 51, 0
2, 30974, Note_on_c, 0, 46, 80
2, 30980, Note_on_c, 0, 79, 0
2, 30984, Note_on_c, 0, 91, 0
2, 30985, Note_on_c, 0, 58, 80
2, 30985, Note_on_c, 0, 61, 80
2, 30985, Note_on_c, 0, 85, 80
2, 30985, Note_on_c, 0, 92, 80
2, 30985, Note_on_c, 0, 97, 80
2, 31007, Note_on_c, 0, 97, 0
2, 31007, Note_on_c, 0, 85, 0
2, 31010, Note_on_c, 0, 67, 0
2, 31012, Control_c, 0, 64, 127
2, 31028, Note_on_c, 0, 92, 0
2, 31033, Note_on_c, 0, 61, 0
2, 31035, Note_on_c, 0, 85, 80
2, 31035, Note_on_c, 0, 91, 80
2, 31035, Note_on_c, 0, 97, 80
2, 31037, Note_on_c, 0, 58, 0
2, 31037, Note_on_c, 0, 46, 0
2, 31080, Note_on_c, 0, 97, 0
2, 31081, Note_on_c, 0, 91, 0
2, 31083, Note_on_c, 0, 85, 0
2, 31085, Note_on_c, 0, 63, 80
2, 31085, Note_on_c, 0, 67, 80
2, 31087, Note_on_c, 0, 61, 80
2, 31089, Note_on_c, 0, 55, 80
2, 31091, Note_on_c, 0, 51, 80
2, 31110, Control_c, 0, 64, 0
2, 31133, Note_on_c, 0, 63, 0
2, 31133, Note_on_c, 0, 85, 80
2, 31133, Note_on_c, 0, 89, 80
2, 31135, Note_on_c, 0, 97, 80
2, 31137, Note_on_c, 0, 55, 0
2, 31137, Note_on_c, 0, 51, 0
2, 31137, Note_on_c, 0, 67, 0
2, 31186, Note_on_c, 0, 51, 80
2, 31190, Note_on_c, 0, 39, 80
2, 31207, Note_on_c, 0, 89, 0
2, 31207, Note_on_c, 0, 97, 0
2, 31211, Note_on_c, 0, 85, 0
2, 31236, Note_on_c, 0, 61, 0
2, 31238, Note_on_c, 0, 63, 80
2, 31240, Note_on_c, 0, 39, 0
2, 31240, Note_on_c, 0, 51, 0
2, 31242, Note_on_c, 0, 75, 80
2, 31293, Note_on_c, 0, 75, 0
2, 31293, Note_on_c, 0, 63, 0
2, 31295, Note_on_c, 0, 51, 80
2, 31295, Note_on_c, 0, 55, 80
2, 31295, Note_on_c, 0, 61, 80
2, 31295, Note_on_c, 0, 77, 80
2, 31300, Note_on_c, 0, 65, 80
2, 31343, Note_on_c, 0, 77, 0
2, 31343, Note_on_c, 0, 61, 0
2, 31346, Note_on_c, 0, 51, 0
2, 31346, Note_on_c, 0, 55, 0
2, 31346, Note_on_c, 0, 65, 0
2, 31348, Note_on_c, 0, 79, 80
2, 31350, Note_on_c, 0, 67, 80
2, 31399, Note_on_c, 0, 79, 0
2, 31403, Note_on_c, 0, 67, 0
2, 31403, Note_on_c, 0, 80, 80
2, 31405, Note_on_c, 0, 48, 80
2, 31405, Note_on_c, 0, 60, 80
2, 31405, Note_on_c, 0, 72, 80
2, 31405, Note_on_c, 0, 84, 80
2, 31424, Note_on_c, 0, 84, 0
2, 31428, Note_on_c, 0, 72, 0
2, 31430, Control_c, 0, 64, 127
2, 31451, Note_on_c, 0, 80, 0
2, 31455, Note_on_c, 0, 60, 0
2, 31457, Note_on_c, 0, 79, 80
2, 31457, Note_on_c, 0, 84, 80
2, 31459, Note_on_c, 0, 72, 80
2, 31505, Note_on_c, 0, 84, 0
2, 31505, Note_on_c, 0, 79, 0
2, 31509, Note_on_c, 0, 72, 0
2, 31511, Note_on_c, 0, 56, 80
2, 31511, Note_on_c, 0, 60, 80
2, 31511, Note_on_c, 0, 63, 80
2, 31512, Note_on_c, 0, 68, 80
2, 31514, Note_on_c, 0, 51, 80
2, 31536, Note_on_c, 0, 48, 0
2, 31536, Control_c, 0, 64, 0
2, 31557, Note_on_c, 0, 68, 0
2, 31557, Note_on_c, 0, 63, 0
2, 31557, Note_on_c, 0, 56, 0
2, 31557, Note_on_c, 0, 84, 80
2, 31559, Note_on_c, 0, 72, 80
2, 31559, Note_on_c, 0, 77, 80
2, 31560, Note_on_c, 0, 51, 0
2, 31609, Note_on_c, 0, 68, 80
2, 31613, Note_on_c, 0, 39, 80
2, 31613, Note_on_c, 0, 51, 80
2, 31632, Note_on_c, 0, 72, 0
2, 31632, Note_on_c, 0, 77, 0
2, 31632, Note_on_c, 0, 84, 0
2, 31636, Note_on_c, 0, 60, 0
2, 31656, Note_on_c, 0, 87, 80
2, 31657, Note_on_c, 0, 68, 0
2, 31659, Note_on_c, 0, 39, 0
2, 31659, Note_on_c, 0, 75, 80
2, 31663, Note_on_c, 0, 51, 0
2, 31702, Note_on_c, 0, 87, 0
2, 31707, Note_on_c, 0, 75, 0
2, 31707, Note_on_c, 0, 89, 80
2, 31709, Note_on_c, 0, 56, 80
2, 31709, Note_on_c, 0, 60, 80
2, 31709, Note_on_c, 0, 63, 80
2, 31709, Note_on_c, 0, 77, 80
2, 31711, Note_on_c, 0, 68, 80
2, 31715, Note_on_c, 0, 51, 80
2, 31753, Note_on_c, 0, 77, 0
2, 31753, Note_on_c, 0, 63, 0
2, 31753, Note_on_c, 0, 89, 0
2, 31753, Note_on_c, 0, 91, 80
2, 31755, Note_on_c, 0, 79, 80
2, 31757, Note_on_c, 0, 60, 0
2, 31757, Note_on_c, 0, 56, 0
2, 31757, Note_on_c, 0, 51, 0
2, 31796, Note_on_c, 0, 44, 80
2, 31801, Note_on_c, 0, 79, 0
2, 31801, Note_on_c, 0, 91, 0
2, 31801, Note_on_c, 0, 96, 80
2, 31805, Note_on_c, 0, 56, 80
2, 31805, Note_on_c, 0, 63, 80
2, 31805, Note_on_c, 0, 72, 80
2, 31805, Note_on_c, 0, 84, 80
2, 31805, Note_on_c, 0, 92, 80
2, 31823, Note_on_c, 0, 96, 0
2, 31826, Note_on_c, 0, 84, 0
2, 31830, Note_on_c, 0, 68, 0
2, 31830, Control_c, 0, 64, 127
2, 31848, Note_on_c, 0, 92, 0
2, 31848, Note_on_c, 0, 96, 80
2, 31851, Note_on_c, 0, 63, 0
2, 31851, Note_on_c, 0, 72, 0
2, 31851, Note_on_c, 0, 91, 80
2, 31853, Note_on_c, 0, 84, 80
2, 31855, Note_on_c, 0, 44, 0
2, 31855, Note_on_c, 0, 56, 0
2, 31896, Note_on_c, 0, 96, 0
2, 31901, Note_on_c, 0, 91, 0
2, 31901, Note_on_c, 0, 84, 0
2, 31903, Note_on_c, 0, 60, 80
2, 31903, Note_on_c, 0, 63, 80
2, 31905, Note_on_c, 0, 68, 80
2, 31907, Note_on_c, 0, 51, 80
2, 31907, Note_on_c, 0, 56, 80
2, 31928, Control_c, 0, 64, 0
2, 31953, Note_on_c, 0, 84, 80
2, 31953, Note_on_c, 0, 89, 80
2, 31953, Note_on_c, 0, 96, 80
2, 31955, Note_on_c, 0, 56, 0
2, 31955, Note_on_c, 0, 51, 0
2, 31955, Note_on_c, 0, 60, 0
2, 31955, Note_on_c, 0, 68, 0
2, 31955, Note_on_c, 0, 63, 0
2, 32004, Note_on_c, 0, 84, 0
2, 32010, Note_on_c, 0, 56, 80
2, 32010, Note_on_c, 0, 60, 80
2, 32010, Note_on_c, 0, 63, 80
2, 32012, Note_on_c, 0, 51, 80
2, 32012, Note_on_c, 0, 68, 80
2, 32025, Note_on_c, 0, 96, 0
2, 32029, Note_on_c, 0, 89, 0
2, 32058, Note_on_c, 0, 68, 0
2, 32060, Note_on_c, 0, 56, 0
2, 32060, Note_on_c, 0, 60, 0
2, 32060, Note_on_c, 0, 84, 80
2, 32062, Note_on_c, 0, 51, 0
2, 32062, Note_on_c, 0, 63, 0
2, 32114, Note_on_c, 0, 84, 0
2, 32116, Note_on_c, 0, 85, 80
2, 32171, Note_on_c, 0, 85, 0
2, 32175, Note_on_c, 0, 86, 80
2, 32226, Note_on_c, 0, 86, 0
2, 32232, Note_on_c, 0, 87, 80
2, 32233, Note_on_c, 0, 80, 80
2, 32260, Control_c, 0, 64, 127
2, 32281, Note_on_c, 0, 80, 0
2, 32281, Note_on_c, 0, 87, 0
2, 32283, Note_on_c, 0, 92, 80
2, 32336, Note_on_c, 0, 92, 0
2, 32342, Note_on_c, 0, 77, 80
2, 32369, Control_c, 0, 64, 0
2, 32392, Note_on_c, 0, 77, 0
2, 32392, Note_on_c, 0, 80, 80
2, 32392, Note_on_c, 0, 83, 80
2, 32392, Note_on_c, 0, 89, 80
2, 32448, Note_on_c, 0, 74, 80
2, 32468, Note_on_c, 0, 89, 0
2, 32468, Note_on_c, 0, 80, 0
2, 32473, Note_on_c, 0, 83, 0
2, 32498, Note_on_c, 0, 74, 0
2, 32500, Note_on_c, 0, 86, 80
2, 32546, Note_on_c, 0, 86, 0
2, 32548, Note_on_c, 0, 83, 80
2, 32552, Note_on_c, 0, 71, 80
2, 32603, Note_on_c, 0, 71, 0
2, 32603, Note_on_c, 0, 83, 0
2, 32607, Note_on_c, 0, 80, 80
2, 32653, Note_on_c, 0, 80, 0
2, 32655, Note_on_c, 0, 77, 80
2, 32661, Note_on_c, 0, 68, 80
2, 32686, Control_c, 0, 64, 127
2, 32709, Note_on_c, 0, 68, 0
2, 32709, Note_on_c, 0, 77, 0
2, 32711, Note_on_c, 0, 79, 80
2, 32760, Note_on_c, 0, 79, 0
2, 32763, Note_on_c, 0, 80, 80
2, 32765, Note_on_c, 0, 65, 80
2, 32784, Control_c, 0, 64, 0
2, 32813, Note_on_c, 0, 80, 0
2, 32815, Note_on_c, 0, 83, 80
2, 32817, Note_on_c, 0, 65, 0
2, 32876, Note_on_c, 0, 62, 80
2, 32897, Note_on_c, 0, 83, 0
2, 32924, Note_on_c, 0, 80, 80
2, 32926, Note_on_c, 0, 62, 0
2, 32976, Note_on_c, 0, 80, 0
2, 32984, Note_on_c, 0, 77, 80
2, 32986, Note_on_c, 0, 59, 80
2, 33035, Note_on_c, 0, 77, 0
2, 33035, Note_on_c, 0, 74, 80
2, 33037, Note_on_c, 0, 59, 0
2, 33079, Note_on_c, 0, 48, 80
2, 33087, Note_on_c, 0, 74, 0
2, 33087, Note_on_c, 0, 80, 80
2, 33087, Note_on_c, 0, 84, 80
2, 33089, Note_on_c, 0, 60, 80
2, 33089, Note_on_c, 0, 68, 80
2, 33089, Note_on_c, 0, 72, 80
2, 33110, Note_on_c, 0, 84, 0
2, 33112, Note_on_c, 0, 72, 0
2, 33112, Control_c, 0, 64, 127
2, 33137, Note_on_c, 0, 60, 0
2, 33137, Note_on_c, 0, 80, 0
2, 33137, Note_on_c, 0, 67, 80
2, 33137, Note_on_c, 0, 72, 80
2, 33137, Note_on_c, 0, 84, 80
2, 33139, Note_on_c, 0, 68, 0
2, 33141, Note_on_c, 0, 79, 80
2, 33187, Note_on_c, 0, 84, 0
2, 33189, Note_on_c, 0, 72, 0
2, 33189, Note_on_c, 0, 79, 0
2, 33189, Note_on_c, 0, 67, 0
2, 33191, Note_on_c, 0, 56, 80
2, 33191, Note_on_c, 0, 60, 80
2, 33192, Note_on_c, 0, 63, 80
2, 33192, Note_on_c, 0, 68, 80
2, 33194, Note_on_c, 0, 51, 80
2, 33216, Note_on_c, 0, 48, 0
2, 33217, Control_c, 0, 64, 0
2, 33240, Note_on_c, 0, 72, 80
2, 33240, Note_on_c, 0, 77, 80
2, 33240, Note_on_c, 0, 84, 80
2, 33242, Note_on_c, 0, 68, 0
2, 33242, Note_on_c, 0, 56, 0
2, 33242, Note_on_c, 0, 63, 0
2, 33242, Note_on_c, 0, 51, 0
2, 33246, Note_on_c, 0, 65, 80
2, 33292, Note_on_c, 0, 51, 80
2, 33292, Note_on_c, 0, 68, 80
2, 33296, Note_on_c, 0, 39, 80
2, 33315, Note_on_c, 0, 65, 0
2, 33315, Note_on_c, 0, 60, 0
2, 33315, Note_on_c, 0, 84, 0
2, 33315, Note_on_c, 0, 77, 0
2, 33315, Note_on_c, 0, 72, 0
2, 33336, Note_on_c, 0, 87, 80
2, 33338, Note_on_c, 0, 68, 0
2, 33340, Note_on_c, 0, 39, 0
2, 33340, Note_on_c, 0, 75, 80
2, 33342, Note_on_c, 0, 51, 0
2, 33384, Note_on_c, 0, 87, 0
2, 33386, Note_on_c, 0, 89, 80
2, 33388, Note_on_c, 0, 75, 0
2, 33390, Note_on_c, 0, 51, 80
2, 33390, Note_on_c, 0, 56, 80
2, 33390, Note_on_c, 0, 60, 80
2, 33392, Note_on_c, 0, 63, 80
2, 33392, Note_on_c, 0, 68, 80
2, 33392, Note_on_c, 0, 77, 80
2, 33438, Note_on_c, 0, 77, 0
2, 33438, Note_on_c, 0, 89, 0
2, 33438, Note_on_c, 0, 63, 0
2, 33438, Note_on_c, 0, 91, 80
2, 33440, Note_on_c, 0, 79, 80
2, 33442, Note_on_c, 0, 60, 0
2, 33442, Note_on_c, 0, 56, 0
2, 33442, Note_on_c, 0, 51, 0
2, 33491, Note_on_c, 0, 96, 80
2, 33493, Note_on_c, 0, 91, 0
2, 33493, Note_on_c, 0, 79, 0
2, 33495, Note_on_c, 0, 84, 80
2, 33495, Note_on_c, 0, 92, 80
2, 33497, Note_on_c, 0, 60, 80
2, 33497, Note_on_c, 0, 63, 80
2, 33501, Note_on_c, 0, 48, 80
2, 33516, Note_on_c, 0, 96, 0
2, 33520, Note_on_c, 0, 68, 0
2, 33520, Note_on_c, 0, 84, 0
2, 33522, Control_c, 0, 64, 127
2, 33543, Note_on_c, 0, 92, 0
2, 33545, Note_on_c, 0, 96, 80
2, 33547, Note_on_c, 0, 48, 0
2, 33547, Note_on_c, 0, 60, 0
2, 33549, Note_on_c, 0, 63, 0
2, 33549, Note_on_c, 0, 84, 80
2, 33549, Note_on_c, 0, 91, 80
2, 33598, Note_on_c, 0, 96, 0
2, 33601, Note_on_c, 0, 91, 0
2, 33601, Note_on_c, 0, 84, 0
2, 33605, Note_on_c, 0, 63, 80
2, 33605, Note_on_c, 0, 68, 80
2, 33609, Note_on_c, 0, 51, 80
2, 33609, Note_on_c, 0, 56, 80
2, 33609, Note_on_c, 0, 60, 80
2, 33630, Control_c, 0, 64, 0
2, 33657, Note_on_c, 0, 96, 80
2, 33659, Note_on_c, 0, 84, 80
2, 33659, Note_on_c, 0, 89, 80
2, 33661, Note_on_c, 0, 60, 0
2, 33661, Note_on_c, 0, 56, 0
2, 33661, Note_on_c, 0, 51, 0
2, 33663, Note_on_c, 0, 68, 0
2, 33720, Note_on_c, 0, 51, 80
2, 33720, Note_on_c, 0, 56, 80
2, 33720, Note_on_c, 0, 60, 80
2, 33760, Note_on_c, 0, 96, 0
2, 33766, Note_on_c, 0, 56, 0
2, 33766, Note_on_c, 0, 84, 0
2, 33766, Note_on_c, 0, 89, 0
2, 33766, Note_on_c, 0, 60, 0
2, 33768, Note_on_c, 0, 63, 0
2, 33771, Note_on_c, 0, 51, 0
2, 33814, Note_on_c, 0, 45, 80
2, 33819, Note_on_c, 0, 84, 80
2, 33823, Note_on_c, 0, 87, 80
2, 33825, Note_on_c, 0, 57, 80
2, 33825, Note_on_c, 0, 63, 80
2, 33825, Note_on_c, 0, 66, 80
2, 33825, Note_on_c, 0, 69, 80
2, 33825, Note_on_c, 0, 75, 80
2, 33825, Note_on_c, 0, 78, 80
2, 33825, Note_on_c, 0, 81, 80
2, 33865, Note_on_c, 0, 87, 0
2, 33867, Note_on_c, 0, 81, 0
2, 33869, Note_on_c, 0, 84, 0
2, 33871, Note_on_c, 0, 45, 0
2, 33871, Note_on_c, 0, 69, 0
2, 33871, Note_on_c, 0, 66, 0
2, 33871, Note_on_c, 0, 78, 0
2, 33871, Note_on_c, 0, 75, 0
2, 33871, Note_on_c, 0, 63, 0
2, 33871, Note_on_c, 0, 57, 0
2, 33924, Note_on_c, 0, 75, 80
2, 33924, Note_on_c, 0, 77, 80
2, 33924, Note_on_c, 0, 82, 80
2, 33924, Note_on_c, 0, 87, 80
2, 33926, Note_on_c, 0, 58, 80
2, 33926, Note_on_c, 0, 63, 80
2, 33926, Note_on_c, 0, 70, 80
2, 33930, Note_on_c, 0, 46, 80
2, 33930, Note_on_c, 0, 65, 80
2, 33943, Note_on_c, 0, 82, 0
2, 33947, Note_on_c, 0, 65, 0
2, 33947, Note_on_c, 0, 70, 0
2, 33947, Note_on_c, 0, 77, 0
2, 33949, Control_c, 0, 64, 127
2, 33970, Note_on_c, 0, 87, 0
2, 33970, Note_on_c, 0, 85, 80
2, 33972, Note_on_c, 0, 73, 80
2, 33972, Note_on_c, 0, 82, 80
2, 33974, Note_on_c, 0, 75, 0
2, 33974, Note_on_c, 0, 61, 80
2, 33974, Note_on_c, 0, 70, 80
2, 33974, Note_on_c, 0, 77, 80
2, 33976, Note_on_c, 0, 58, 0
2, 33976, Note_on_c, 0, 63, 0
2, 33976, Note_on_c, 0, 46, 0
2, 33978, Note_on_c, 0, 65, 80
2, 33995, Note_on_c, 0, 61, 0
2, 34020, Note_on_c, 0, 82, 0
2, 34020, Note_on_c, 0, 85, 0
2, 34022, Note_on_c, 0, 73, 0
2, 34022, Note_on_c, 0, 77, 0
2, 34022, Note_on_c, 0, 70, 0
2, 34022, Note_on_c, 0, 61, 80
2, 34024, Note_on_c, 0, 58, 80
2, 34026, Note_on_c, 0, 65, 0
2, 34028, Note_on_c, 0, 53, 80
2, 34049, Control_c, 0, 64, 0
2, 34072, Note_on_c, 0, 61, 0
2, 34072, Note_on_c, 0, 84, 80
2, 34076, Note_on_c, 0, 53, 0
2, 34076, Note_on_c, 0, 58, 0
2, 34076, Note_on_c, 0, 60, 80
2, 34076, Note_on_c, 0, 63, 80
2, 34076, Note_on_c, 0, 68, 80
2, 34076, Note_on_c, 0, 75, 80
2, 34076, Note_on_c, 0, 80, 80
2, 34078, Note_on_c, 0, 72, 80
2, 34124, Note_on_c, 0, 48, 80
2, 34128, Note_on_c, 0, 36, 80
2, 34168, Note_on_c, 0, 72, 0
2, 34168, Note_on_c, 0, 80, 0
2, 34168, Note_on_c, 0, 84, 0
2, 34170, Note_on_c, 0, 63, 0
2, 34172, Note_on_c, 0, 60, 0
2, 34172, Note_on_c, 0, 68, 0
2, 34172, Note_on_c, 0, 48, 0
2, 34172, Note_on_c, 0, 75, 0
2, 34172, Note_on_c, 0, 36, 0
2, 34226, Note_on_c, 0, 49, 80
2, 34226, Note_on_c, 0, 58, 80
2, 34226, Note_on_c, 0, 61, 80
2, 34226, Note_on_c, 0, 65, 80
2, 34226, Note_on_c, 0, 70, 80
2, 34226, Note_on_c, 0, 73, 80
2, 34226, Note_on_c, 0, 77, 80
2, 34226, Note_on_c, 0, 82, 80
2, 34230, Note_on_c, 0, 37, 80
2, 34269, Note_on_c, 0, 82, 0
2, 34269, Note_on_c, 0, 77, 0
2, 34269, Note_on_c, 0, 61, 0
2, 34269, Note_on_c, 0, 70, 0
2, 34269, Note_on_c, 0, 73, 0
2, 34274, Note_on_c, 0, 65, 0
2, 34274, Note_on_c, 0, 37, 0
2, 34274, Note_on_c, 0, 58, 0
2, 34274, Note_on_c, 0, 49, 0
2, 34331, Note_on_c, 0, 77, 80
2, 34335, Note_on_c, 0, 38, 80
2, 34335, Note_on_c, 0, 50, 80
2, 34335, Note_on_c, 0, 59, 80
2, 34335, Note_on_c, 0, 65, 80
2, 34335, Note_on_c, 0, 68, 80
2, 34335, Note_on_c, 0, 71, 80
2, 34335, Note_on_c, 0, 80, 80
2, 34335, Note_on_c, 0, 83, 80
2, 34352, Note_on_c, 0, 80, 0
2, 34358, Note_on_c, 0, 68, 0
2, 34358, Control_c, 0, 64, 127
2, 34381, Note_on_c, 0, 71, 0
2, 34381, Note_on_c, 0, 77, 0
2, 34385, Note_on_c, 0, 65, 0
2, 34385, Note_on_c, 0, 38, 0
2, 34385, Note_on_c, 0, 83, 0
2, 34385, Note_on_c, 0, 50, 0
2, 34387, Note_on_c, 0, 59, 0
2, 34387, Note_on_c, 0, 60, 80
2, 34387, Note_on_c, 0, 63, 80
2, 34387, Note_on_c, 0, 72, 80
2, 34387, Note_on_c, 0, 75, 80
2, 34387, Note_on_c, 0, 80, 80
2, 34387, Note_on_c, 0, 84, 80
2, 34389, Note_on_c, 0, 68, 80
2, 34440, Note_on_c, 0, 68, 0
2, 34440, Note_on_c, 0, 80, 0
2, 34440, Note_on_c, 0, 63, 0
2, 34440, Note_on_c, 0, 72, 0
2, 34440, Note_on_c, 0, 75, 0
2, 34440, Note_on_c, 0, 84, 0
2, 34443, Note_on_c, 0, 60, 0
2, 34447, Note_on_c, 0, 39, 80
2, 34447, Note_on_c, 0, 51, 80
2, 34472, Control_c, 0, 64, 0
2, 34495, Note_on_c, 0, 39, 0
2, 34497, Note_on_c, 0, 58, 80
2, 34497, Note_on_c, 0, 60, 80
2, 34497, Note_on_c, 0, 64, 80
2, 34497, Note_on_c, 0, 67, 80
2, 34497, Note_on_c, 0, 70, 80
2, 34497, Note_on_c, 0, 72, 80
2, 34497, Note_on_c, 0, 76, 80
2, 34497, Note_on_c, 0, 79, 80
2, 34499, Note_on_c, 0, 51, 0
2, 34548, Note_on_c, 0, 52, 80
2, 34552, Note_on_c, 0, 40, 80
2, 34596, Note_on_c, 0, 67, 0
2, 34596, Note_on_c, 0, 79, 0
2, 34596, Note_on_c, 0, 76, 0
2, 34596, Note_on_c, 0, 72, 0
2, 34596, Note_on_c, 0, 70, 0
2, 34600, Note_on_c, 0, 60, 0
2, 34600, Note_on_c, 0, 40, 0
2, 34600, Note_on_c, 0, 64, 0
2, 34600, Note_on_c, 0, 58, 0
2, 34600, Note_on_c, 0, 52, 0
2, 34656, Note_on_c, 0, 56, 80
2, 34656, Note_on_c, 0, 65, 80
2, 34656, Note_on_c, 0, 72, 80
2, 34656, Note_on_c, 0, 77, 80
2, 34656, Note_on_c, 0, 80, 80
2, 34660, Note_on_c, 0, 53, 80
2, 34660, Note_on_c, 0, 60, 80
2, 34660, Note_on_c, 0, 68, 80
2, 34662, Note_on_c, 0, 41, 80
2, 34706, Note_on_c, 0, 80, 0
2, 34706, Note_on_c, 0, 77, 0
2, 34706, Note_on_c, 0, 72, 0
2, 34708, Note_on_c, 0, 68, 0
2, 34708, Note_on_c, 0, 53, 0
2, 34710, Note_on_c, 0, 41, 0
2, 34710, Note_on_c, 0, 56, 0
2, 34710, Note_on_c, 0, 65, 0
2, 34710, Note_on_c, 0, 60, 0
2, 34765, Note_on_c, 0, 67, 80
2, 34769, Note_on_c, 0, 34, 80
2, 34769, Note_on_c, 0, 58, 80
2, 34769, Note_on_c, 0, 62, 80
2, 34769, Note_on_c, 0, 70, 80
2, 34769, Note_on_c, 0, 74, 80
2, 34769, Note_on_c, 0, 79, 80
2, 34790, Note_on_c, 0, 70, 0
2, 34790, Note_on_c, 0, 58, 0
2, 34792, Note_on_c, 0, 74, 0
2, 34794, Note_on_c, 0, 62, 0
2, 34796, Control_c, 0, 64, 127
2, 34819, Note_on_c, 0, 67, 0
2, 34819, Note_on_c, 0, 34, 0
2, 34819, Note_on_c, 0, 79, 0
2, 34819, Note_on_c, 0, 62, 80
2, 34819, Note_on_c, 0, 70, 80
2, 34819, Note_on_c, 0, 77, 80
2, 34821, Note_on_c, 0, 58, 80
2, 34821, Note_on_c, 0, 68, 80
2, 34821, Note_on_c, 0, 74, 80
2, 34870, Note_on_c, 0, 74, 0
2, 34870, Note_on_c, 0, 70, 0
2, 34870, Note_on_c, 0, 77, 0
2, 34870, Note_on_c, 0, 68, 0
2, 34873, Note_on_c, 0, 62, 0
2, 34875, Note_on_c, 0, 46, 80
2, 34898, Control_c, 0, 64, 0
2, 34921, Note_on_c, 0, 46, 0
2, 34921, Note_on_c, 0, 73, 80
2, 34923, Note_on_c, 0, 61, 80
2, 34923, Note_on_c, 0, 67, 80
2, 34923, Note_on_c, 0, 75, 80
2, 34927, Note_on_c, 0, 65, 80
2, 34971, Note_on_c, 0, 61, 0
2, 34975, Note_on_c, 0, 58, 0
2, 34975, Note_on_c, 0, 67, 0
2, 34975, Note_on_c, 0, 65, 0
2, 34979, Note_on_c, 0, 39, 80
2, 34998, Note_on_c, 0, 73, 0
2, 34998, Note_on_c, 0, 75, 0
2, 35027, Note_on_c, 0, 39, 0
2, 35029, Note_on_c, 0, 60, 80
2, 35029, Note_on_c, 0, 63, 80
2, 35029, Note_on_c, 0, 67, 80
2, 35029, Note_on_c, 0, 72, 80
2, 35054, Note_on_c, 0, 67, 0
2, 35081, Note_on_c, 0, 60, 0
2, 35081, Note_on_c, 0, 63, 0
2, 35081, Note_on_c, 0, 72, 0
2, 35081, Note_on_c, 0, 61, 80
2, 35083, Note_on_c, 0, 51, 80
2, 35083, Note_on_c, 0, 58, 80
2, 35083, Note_on_c, 0, 70, 80
2, 35085, Note_on_c, 0, 67, 80
2, 35127, Note_on_c, 0, 70, 0
2, 35131, Note_on_c, 0, 61, 0
2, 35133, Note_on_c, 0, 67, 0
2, 35133, Note_on_c, 0, 58, 0
2, 35189, Note_on_c, 0, 44, 80
2, 35189, Note_on_c, 0, 56, 80
2, 35191, Note_on_c, 0, 60, 80
2, 35191, Note_on_c, 0, 63, 80
2, 35191, Note_on_c, 0, 68, 80
2, 35216, Control_c, 0, 64, 127
2, 35237, Note_on_c, 0, 68, 0
2, 35237, Note_on_c, 0, 60, 0
2, 35237, Note_on_c, 0, 63, 0
2, 35241, Note_on_c, 0, 51, 0
2, 35241, Note_on_c, 0, 56, 0
2, 35241, Note_on_c, 0, 44, 0
2, 35296, Note_on_c, 0, 39, 80
2, 35296, Note_on_c, 0, 51, 80
2, 35330, Control_c, 0, 64, 0
2, 35344, Note_on_c, 0, 51, 0
2, 35344, Note_on_c, 0, 39, 0
2, 35393, Note_on_c, 0, 63, 80
2, 35393, Note_on_c, 0, 72, 80
2, 35393, Note_on_c, 0, 80, 80
2, 35393, Note_on_c, 0, 68, 80
2, 35395, Note_on_c, 0, 44, 80
2, 35395, Note_on_c, 0, 56, 80
2, 35395, Note_on_c, 0, 75, 80
2, 35439, Note_on_c, 0, 77, 80
2, 35441, Note_on_c, 0, 75, 0
2, 35441, Note_on_c, 0, 80, 0
2, 35441, Note_on_c, 0, 68, 0
2, 35441, Note_on_c, 0, 72, 0
2, 35441, Note_on_c, 0, 63, 0
2, 35441, Note_on_c, 0, 56, 0
2, 35445, Note_on_c, 0, 44, 0
2, 35489, Note_on_c, 0, 77, 0
2, 35491, Note_on_c, 0, 78, 80
2, 35544, Note_on_c, 0, 78, 0
2, 35545, Note_on_c, 0, 79, 80
2, 35596, Note_on_c, 0, 79, 0
2, 35596, Note_on_c, 0, 80, 80
2, 35598, Note_on_c, 0, 73, 80
2, 35598, Note_on_c, 0, 77, 80
2, 35625, Control_c, 0, 64, 127
2, 35642, Note_on_c, 0, 80, 0
2, 35644, Note_on_c, 0, 77, 0
2, 35644, Note_on_c, 0, 73, 0
2, 35646, Note_on_c, 0, 85, 80
2, 35699, Note_on_c, 0, 85, 0
2, 35701, Note_on_c, 0, 80, 80
2, 35703, Note_on_c, 0, 71, 80
2, 35728, Control_c, 0, 64, 0
2, 35749, Note_on_c, 0, 80, 0
2, 35751, Note_on_c, 0, 71, 0
2, 35753, Note_on_c, 0, 76, 80
2, 35753, Note_on_c, 0, 79, 80
2, 35808, Note_on_c, 0, 70, 80
2, 35829, Note_on_c, 0, 79, 0
2, 35829, Note_on_c, 0, 76, 0
2, 35859, Note_on_c, 0, 70, 0
2, 35863, Note_on_c, 0, 85, 80
2, 35912, Note_on_c, 0, 85, 0
2, 35914, Note_on_c, 0, 78, 80
2, 35916, Note_on_c, 0, 69, 80
2, 35918, Note_on_c, 0, 75, 80
2, 35964, Note_on_c, 0, 75, 0
2, 35964, Note_on_c, 0, 78, 0
2, 35966, Note_on_c, 0, 69, 0
2, 36019, Note_on_c, 0, 77, 80
2, 36023, Note_on_c, 0, 73, 80
2, 36024, Note_on_c, 0, 68, 80
2, 36046, Control_c, 0, 64, 127
2, 36069, Note_on_c, 0, 68, 0
2, 36069, Note_on_c, 0, 73, 0
2, 36069, Note_on_c, 0, 77, 0
2, 36069, Note_on_c, 0, 78, 80
2, 36069, Note_on_c, 0, 82, 80
2, 36071, Note_on_c, 0, 72, 80
2, 36071, Note_on_c, 0, 75, 80
2, 36115, Note_on_c, 0, 75, 0
2, 36115, Note_on_c, 0, 78, 0
2, 36115, Note_on_c, 0, 82, 0
2, 36119, Note_on_c, 0, 72, 0
2, 36122, Note_on_c, 0, 66, 80
2, 36147, Control_c, 0, 64, 0
2, 36172, Note_on_c, 0, 66, 0
2, 36172, Note_on_c, 0, 80, 80
2, 36174, Note_on_c, 0, 73, 80
2, 36174, Note_on_c, 0, 77, 80
2, 36227, Note_on_c, 0, 65, 80
2, 36246, Note_on_c, 0, 80, 0
2, 36248, Note_on_c, 0, 73, 0
2, 36248, Note_on_c, 0, 77, 0
2, 36273, Note_on_c, 0, 82, 80
2, 36275, Note_on_c, 0, 65, 0
2, 36321, Note_on_c, 0, 84, 80
2, 36323, Note_on_c, 0, 82, 0
2, 36325, Note_on_c, 0, 73, 80
2, 36327, Note_on_c, 0, 64, 80
2, 36327, Note_on_c, 0, 79, 80
2, 36369, Note_on_c, 0, 79, 0
2, 36373, Note_on_c, 0, 84, 0
2, 36373, Note_on_c, 0, 73, 0
2, 36373, Note_on_c, 0, 64, 0
2, 36417, Note_on_c, 0, 51, 80
2, 36425, Note_on_c, 0, 70, 80
2, 36425, Note_on_c, 0, 72, 80
2, 36427, Note_on_c, 0, 78, 80
2, 36427, Note_on_c, 0, 82, 80
2, 36429, Note_on_c, 0, 63, 80
2, 36454, Control_c, 0, 64, 127
2, 36528, Note_on_c, 0, 82, 0
2, 36528, Note_on_c, 0, 78, 0
2, 36528, Note_on_c, 0, 72, 0
2, 36528, Note_on_c, 0, 70, 0
2, 36531, Note_on_c, 0, 56, 80
2, 36531, Note_on_c, 0, 60, 80
2, 36531, Note_on_c, 0, 66, 80
2, 36556, Note_on_c, 0, 51, 0
2, 36556, Note_on_c, 0, 63, 0
2, 36556, Control_c, 0, 64, 0
2, 36581, Note_on_c, 0, 56, 0
2, 36583, Note_on_c, 0, 72, 80
2, 36583, Note_on_c, 0, 78, 80
2, 36583, Note_on_c, 0, 80, 80
2, 36585, Note_on_c, 0, 68, 80
2, 36629, Note_on_c, 0, 80, 0
2, 36637, Note_on_c, 0, 56, 80
2, 36639, Note_on_c, 0, 44, 80
2, 36658, Note_on_c, 0, 78, 0
2, 36658, Note_on_c, 0, 72, 0
2, 36658, Note_on_c, 0, 68, 0
2, 36685, Note_on_c, 0, 60, 0
2, 36685, Note_on_c, 0, 56, 0
2, 36687, Note_on_c, 0, 66, 0
2, 36687, Note_on_c, 0, 44, 0
2, 36689, Note_on_c, 0, 80, 80
2, 36738, Note_on_c, 0, 89, 80
2, 36744, Note_on_c, 0, 56, 80
2, 36744, Note_on_c, 0, 60, 80
2, 36744, Note_on_c, 0, 66, 80
2, 36744, Note_on_c, 0, 77, 80
2, 36745, Note_on_c, 0, 68, 80
2, 36790, Note_on_c, 0, 77, 0
2, 36790, Note_on_c, 0, 80, 0
2, 36790, Note_on_c, 0, 89, 0
2, 36792, Note_on_c, 0, 66, 0
2, 36792, Note_on_c, 0, 68, 0
2, 36793, Note_on_c, 0, 56, 0
2, 36838, Note_on_c, 0, 41, 80
2, 36849, Note_on_c, 0, 53, 80
2, 36849, Note_on_c, 0, 61, 80
2, 36849, Note_on_c, 0, 63, 80
2, 36849, Note_on_c, 0, 68, 80
2, 36849, Note_on_c, 0, 80, 80
2, 36849, Note_on_c, 0, 87, 80
2, 36851, Note_on_c, 0, 75, 80
2, 36859, Note_on_c, 0, 60, 0
2, 36874, Control_c, 0, 64, 127
2, 36897, Note_on_c, 0, 61, 0
2, 36901, Note_on_c, 0, 41, 0
2, 36901, Note_on_c, 0, 53, 0
2, 36947, Note_on_c, 0, 87, 0
2, 36947, Note_on_c, 0, 80, 0
2, 36951, Note_on_c, 0, 75, 0
2, 36951, Note_on_c, 0, 63, 0
2, 36951, Note_on_c, 0, 68, 0
2, 36953, Note_on_c, 0, 56, 80
2, 36953, Note_on_c, 0, 61, 80
2, 36955, Note_on_c, 0, 65, 80
2, 36978, Note_on_c, 0, 65, 0
2, 36987, Control_c, 0, 64, 0
2, 37003, Note_on_c, 0, 61, 0
2, 37003, Note_on_c, 0, 56, 0
2, 37003, Note_on_c, 0, 80, 80
2, 37005, Note_on_c, 0, 73, 80
2, 37005, Note_on_c, 0, 85, 80
2, 37007, Note_on_c, 0, 68, 80
2, 37008, Note_on_c, 0, 65, 80
2, 37030, Note_on_c, 0, 65, 0
2, 37056, Note_on_c, 0, 56, 80
2, 37058, Note_on_c, 0, 61, 80
2, 37058, Note_on_c, 0, 65, 80
2, 37078, Note_on_c, 0, 80, 0
2, 37078, Note_on_c, 0, 85, 0
2, 37078, Note_on_c, 0, 73, 0
2, 37083, Note_on_c, 0, 68, 0
2, 37106, Note_on_c, 0, 65, 0
2, 37106, Note_on_c, 0, 61, 0
2, 37106, Note_on_c, 0, 56, 0
2, 37110, Note_on_c, 0, 77, 80
2, 37159, Note_on_c, 0, 77, 0
2, 37163, Note_on_c, 0, 78, 80
2, 37214, Note_on_c, 0, 78, 0
2, 37220, Note_on_c, 0, 79, 80
2, 37271, Note_on_c, 0, 79, 0
2, 37271, Note_on_c, 0, 73, 80
2, 37271, Note_on_c, 0, 77, 80
2, 37271, Note_on_c, 0, 80, 80
2, 37299, Control_c, 0, 64, 127
2, 37324, Note_on_c, 0, 80, 0
2, 37326, Note_on_c, 0, 77, 0
2, 37326, Note_on_c, 0, 73, 0
2, 37332, Note_on_c, 0, 85, 80
2, 37381, Note_on_c, 0, 85, 0
2, 37387, Note_on_c, 0, 71, 80
2, 37387, Note_on_c, 0, 80, 80
2, 37425, Control_c, 0, 64, 0
2, 37435, Note_on_c, 0, 80, 0
2, 37437, Note_on_c, 0, 71, 0
2, 37444, Note_on_c, 0, 76, 80
2, 37444, Note_on_c, 0, 79, 80
2, 37499, Note_on_c, 0, 70, 80
2, 37520, Note_on_c, 0, 79, 0
2, 37520, Note_on_c, 0, 76, 0
2, 37545, Note_on_c, 0, 70, 0
2, 37545, Note_on_c, 0, 85, 80
2, 37596, Note_on_c, 0, 85, 0
2, 37598, Note_on_c, 0, 69, 80
2, 37602, Note_on_c, 0, 75, 80
2, 37602, Note_on_c, 0, 78, 80
2, 37646, Note_on_c, 0, 78, 0
2, 37650, Note_on_c, 0, 75, 0
2, 37650, Note_on_c, 0, 69, 0
2, 37703, Note_on_c, 0, 68, 80
2, 37703, Note_on_c, 0, 73, 80
2, 37703, Note_on_c, 0, 77, 80
2, 37733, Control_c, 0, 64, 127
2, 37751, Note_on_c, 0, 77, 0
2, 37754, Note_on_c, 0, 73, 0
2, 37754, Note_on_c, 0, 68, 0
2, 37754, Note_on_c, 0, 78, 80
2, 37754, Note_on_c, 0, 82, 80
2, 37756, Note_on_c, 0, 72, 80
2, 37756, Note_on_c, 0, 75, 80
2, 37800, Note_on_c, 0, 82, 0
2, 37800, Note_on_c, 0, 78, 0
2, 37802, Note_on_c, 0, 72, 0
2, 37802, Note_on_c, 0, 75, 0
2, 37804, Note_on_c, 0, 66, 80
2, 37845, Control_c, 0, 64, 0
2, 37854, Note_on_c, 0, 80, 80
2, 37856, Note_on_c, 0, 66, 0
2, 37858, Note_on_c, 0, 73, 80
2, 37858, Note_on_c, 0, 77, 80
2, 37904, Note_on_c, 0, 80, 0
2, 37908, Note_on_c, 0, 65, 80
2, 37931, Note_on_c, 0, 77, 0
2, 37931, Note_on_c, 0, 73, 0
2, 37958, Note_on_c, 0, 80, 80
2, 37960, Note_on_c, 0, 65, 0
2, 38006, Note_on_c, 0, 43, 80
2, 38010, Note_on_c, 0, 80, 0
2, 38012, Note_on_c, 0, 61, 80
2, 38012, Note_on_c, 0, 77, 80
2, 38012, Note_on_c, 0, 82, 80
2, 38014, Note_on_c, 0, 67, 80
2, 38016, Note_on_c, 0, 55, 80
2, 38016, Note_on_c, 0, 65, 80
2, 38016, Note_on_c, 0, 70, 80
2, 38016, Note_on_c, 0, 73, 80
2, 38016, Note_on_c, 0, 79, 80
2, 38058, Note_on_c, 0, 79, 0
2, 38062, Note_on_c, 0, 77, 0
2, 38062, Note_on_c, 0, 82, 0
2, 38062, Note_on_c, 0, 73, 0
2, 38062, Note_on_c, 0, 67, 0
2, 38062, Note_on_c, 0, 61, 0
2, 38062, Note_on_c, 0, 70, 0
2, 38062, Note_on_c, 0, 65, 0
2, 38062, Note_on_c, 0, 55, 0
2, 38065, Note_on_c, 0, 43, 0
2, 38124, Note_on_c, 0, 60, 80
2, 38124, Note_on_c, 0, 67, 80
2, 38124, Note_on_c, 0, 72, 80
2, 38124, Note_on_c, 0, 79, 80
2, 38124, Note_on_c, 0, 84, 80
2, 38126, Note_on_c, 0, 64, 80
2, 38126, Note_on_c, 0, 76, 80
2, 38128, Note_on_c, 0, 48, 80
2, 38149, Control_c, 0, 64, 127
2, 38176, Note_on_c, 0, 48, 0
2, 38176, Note_on_c, 0, 64, 0
2, 38176, Note_on_c, 0, 60, 0
2, 38176, Note_on_c, 0, 67, 0
2, 38227, Note_on_c, 0, 79, 0
2, 38229, Note_on_c, 0, 84, 0
2, 38231, Note_on_c, 0, 72, 0
2, 38231, Note_on_c, 0, 76, 0
2, 38232, Note_on_c, 0, 55, 80
2, 38232, Note_on_c, 0, 58, 80
2, 38232, Note_on_c, 0, 60, 80
2, 38232, Note_on_c, 0, 64, 80
2, 38232, Note_on_c, 0, 67, 80
2, 38256, Note_on_c, 0, 60, 0
2, 38257, Note_on_c, 0, 64, 0
2, 38257, Note_on_c, 0, 67, 0
2, 38269, Control_c, 0, 64, 0
2, 38282, Note_on_c, 0, 64, 80
2, 38282, Note_on_c, 0, 67, 80
2, 38282, Note_on_c, 0, 70, 80
2, 38282, Note_on_c, 0, 72, 80
2, 38282, Note_on_c, 0, 76, 80
2, 38282, Note_on_c, 0, 79, 80
2, 38284, Note_on_c, 0, 55, 0
2, 38288, Note_on_c, 0, 60, 80
2, 38325, Note_on_c, 0, 43, 80
2, 38334, Note_on_c, 0, 55, 80
2, 38353, Note_on_c, 0, 79, 0
2, 38353, Note_on_c, 0, 70, 0
2, 38355, Note_on_c, 0, 76, 0
2, 38357, Note_on_c, 0, 60, 0
2, 38357, Note_on_c, 0, 72, 0
2, 38359, Note_on_c, 0, 67, 0
2, 38359, Note_on_c, 0, 64, 0
2, 38384, Note_on_c, 0, 66, 80
2, 38384, Note_on_c, 0, 78, 80
2, 38386, Note_on_c, 0, 55, 0
2, 38386, Note_on_c, 0, 43, 0
2, 38386, Note_on_c, 0, 58, 0
2, 38428, Note_on_c, 0, 36, 80
2, 38436, Note_on_c, 0, 78, 0
2, 38436, Note_on_c, 0, 70, 80
2, 38438, Note_on_c, 0, 66, 0
2, 38440, Note_on_c, 0, 48, 80
2, 38440, Note_on_c, 0, 58, 80
2, 38440, Note_on_c, 0, 60, 80
2, 38440, Note_on_c, 0, 72, 80
2, 38440, Note_on_c, 0, 76, 80
2, 38440, Note_on_c, 0, 79, 80
2, 38442, Note_on_c, 0, 64, 80
2, 38442, Note_on_c, 0, 67, 80
2, 38482, Note_on_c, 0, 79, 0
2, 38484, Note_on_c, 0, 64, 0
2, 38484, Note_on_c, 0, 76, 0
2, 38484, Note_on_c, 0, 58, 0
2, 38484, Note_on_c, 0, 60, 0
2, 38484, Note_on_c, 0, 70, 0
2, 38484, Note_on_c, 0, 48, 0
2, 38484, Note_on_c, 0, 72, 0
2, 38486, Note_on_c, 0, 67, 0
2, 38488, Note_on_c, 0, 36, 0
2, 38539, Note_on_c, 0, 53, 80
2, 38539, Note_on_c, 0, 60, 80
2, 38539, Note_on_c, 0, 77, 80
2, 38539, Note_on_c, 0, 80, 80
2, 38541, Note_on_c, 0, 68, 80
2, 38541, Note_on_c, 0, 72, 80
2, 38544, Note_on_c, 0, 65, 80
2, 38564, Control_c, 0, 64, 127
2, 38589, Note_on_c, 0, 60, 0
2, 38591, Note_on_c, 0, 53, 0
2, 38591, Note_on_c, 0, 65, 0
2, 38635, Note_on_c, 0, 72, 0
2, 38635, Note_on_c, 0, 80, 0
2, 38635, Note_on_c, 0, 77, 0
2, 38639, Note_on_c, 0, 68, 0
2, 38639, Note_on_c, 0, 64, 80
2, 38642, Note_on_c, 0, 52, 80
2, 38688, Note_on_c, 0, 52, 0
2, 38688, Note_on_c, 0, 64, 0
2, 38688, Control_c, 0, 64, 0
2, 38690, Note_on_c, 0, 72, 80
2, 38690, Note_on_c, 0, 78, 80
2, 38690, Note_on_c, 0, 80, 80
2, 38692, Note_on_c, 0, 68, 80
2, 38749, Note_on_c, 0, 51, 80
2, 38749, Note_on_c, 0, 63, 80
2, 38766, Note_on_c, 0, 80, 0
2, 38768, Note_on_c, 0, 72, 0
2, 38768, Note_on_c, 0, 78, 0
2, 38772, Note_on_c, 0, 68, 0
2, 38797, Note_on_c, 0, 63, 0
2, 38797, Note_on_c, 0, 77, 80
2, 38801, Note_on_c, 0, 51, 0
2, 38847, Note_on_c, 0, 77, 0
2, 38847, Note_on_c, 0, 44, 80
2, 38853, Note_on_c, 0, 56, 80
2, 38853, Note_on_c, 0, 78, 80
2, 38899, Note_on_c, 0, 78, 0
2, 38899, Note_on_c, 0, 56, 0
2, 38904, Note_on_c, 0, 44, 0
2, 38904, Note_on_c, 0, 79, 80
2, 38955, Note_on_c, 0, 79, 0
2, 38961, Note_on_c, 0, 73, 80
2, 38961, Note_on_c, 0, 77, 80
2, 38961, Note_on_c, 0, 80, 80
2, 38984, Control_c, 0, 64, 127
2, 39003, Note_on_c, 0, 80, 0
2, 39003, Note_on_c, 0, 77, 0
2, 39003, Note_on_c, 0, 73, 0
2, 39009, Note_on_c, 0, 85, 80
2, 39055, Note_on_c, 0, 85, 0
2, 39059, Note_on_c, 0, 71, 80
2, 39059, Note_on_c, 0, 80, 80
2, 39105, Note_on_c, 0, 80, 0
2, 39109, Note_on_c, 0, 71, 0
2, 39109, Note_on_c, 0, 76, 80
2, 39109, Note_on_c, 0, 79, 80
2, 39111, Control_c, 0, 64, 0
2, 39162, Note_on_c, 0, 70, 80
2, 39183, Note_on_c, 0, 79, 0
2, 39183, Note_on_c, 0, 76, 0
2, 39206, Note_on_c, 0, 70, 0
2, 39210, Note_on_c, 0, 85, 80
2, 39259, Note_on_c, 0, 85, 0
2, 39261, Note_on_c, 0, 75, 80
2, 39263, Note_on_c, 0, 69, 80
2, 39263, Note_on_c, 0, 78, 80
2, 39309, Note_on_c, 0, 69, 0
2, 39312, Note_on_c, 0, 78, 0
2, 39312, Note_on_c, 0, 75, 0
2, 39369, Note_on_c, 0, 68, 80
2, 39369, Note_on_c, 0, 73, 80
2, 39369, Note_on_c, 0, 77, 80
2, 39392, Control_c, 0, 64, 127
2, 39411, Note_on_c, 0, 77, 0
2, 39415, Note_on_c, 0, 73, 0
2, 39417, Note_on_c, 0, 68, 0
2, 39417, Note_on_c, 0, 72, 80
2, 39417, Note_on_c, 0, 75, 80
2, 39417, Note_on_c, 0, 78, 80
2, 39417, Note_on_c, 0, 82, 80
2, 39468, Note_on_c, 0, 82, 0
2, 39468, Note_on_c, 0, 72, 0
2, 39468, Note_on_c, 0, 75, 0
2, 39468, Note_on_c, 0, 78, 0
2, 39470, Note_on_c, 0, 66, 80
2, 39525, Note_on_c, 0, 66, 0
2, 39525, Control_c, 0, 64, 0
2, 39527, Note_on_c, 0, 73, 80
2, 39527, Note_on_c, 0, 77, 80
2, 39527, Note_on_c, 0, 80, 80
2, 39583, Note_on_c, 0, 65, 80
2, 39602, Note_on_c, 0, 77, 0
2, 39602, Note_on_c, 0, 73, 0
2, 39606, Note_on_c, 0, 80, 0
2, 39637, Note_on_c, 0, 65, 0
2, 39639, Note_on_c, 0, 82, 80
2, 39683, Note_on_c, 0, 52, 80
2, 39687, Note_on_c, 0, 82, 0
2, 39689, Note_on_c, 0, 84, 80
2, 39693, Note_on_c, 0, 73, 80
2, 39695, Note_on_c, 0, 64, 80
2, 39695, Note_on_c, 0, 79, 80
2, 39737, Note_on_c, 0, 79, 0
2, 39741, Note_on_c, 0, 73, 0
2, 39741, Note_on_c, 0, 52, 0
2, 39741, Note_on_c, 0, 84, 0
2, 39741, Note_on_c, 0, 64, 0
2, 39783, Note_on_c, 0, 51, 80
2, 39794, Note_on_c, 0, 63, 80
2, 39794, Note_on_c, 0, 70, 80
2, 39794, Note_on_c, 0, 72, 80
2, 39794, Note_on_c, 0, 78, 80
2, 39794, Note_on_c, 0, 82, 80
2, 39817, Control_c, 0, 64, 127
2, 39895, Note_on_c, 0, 82, 0
2, 39895, Note_on_c, 0, 72, 0
2, 39895, Note_on_c, 0, 70, 0
2, 39895, Note_on_c, 0, 78, 0
2, 39897, Note_on_c, 0, 56, 80
2, 39897, Note_on_c, 0, 60, 80
2, 39897, Note_on_c, 0, 66, 80
2, 39922, Note_on_c, 0, 51, 0
2, 39922, Note_on_c, 0, 63, 0
2, 39947, Note_on_c, 0, 72, 80
2, 39947, Note_on_c, 0, 78, 80
2, 39947, Note_on_c, 0, 80, 80
2, 39949, Note_on_c, 0, 56, 0
2, 39949, Control_c, 0, 64, 0
2, 39949, Note_on_c, 0, 68, 80
2, 39987, Note_on_c, 0, 44, 80
2, 39993, Note_on_c, 0, 80, 0
2, 39999, Note_on_c, 0, 56, 80
2, 40020, Note_on_c, 0, 78, 0
2, 40020, Note_on_c, 0, 72, 0
2, 40020, Note_on_c, 0, 68, 0
2, 40045, Note_on_c, 0, 56, 0
2, 40045, Note_on_c, 0, 60, 0
2, 40047, Note_on_c, 0, 66, 0
2, 40047, Note_on_c, 0, 80, 80
2, 40049, Note_on_c, 0, 44, 0
2, 40068, Note_on_c, 0, 80, 0
2, 40091, Note_on_c, 0, 42, 80
2, 40099, Note_on_c, 0, 66, 80
2, 40099, Note_on_c, 0, 77, 80
2, 40099, Note_on_c, 0, 80, 80
2, 40099, Note_on_c, 0, 89, 80
2, 40101, Note_on_c, 0, 60, 80
2, 40101, Note_on_c, 0, 68, 80
2, 40103, Note_on_c, 0, 54, 80
2, 40145, Note_on_c, 0, 89, 0
2, 40147, Note_on_c, 0, 80, 0
2, 40147, Note_on_c, 0, 77, 0
2, 40151, Note_on_c, 0, 66, 0
2, 40151, Note_on_c, 0, 42, 0
2, 40151, Note_on_c, 0, 54, 0
2, 40151, Note_on_c, 0, 68, 0
2, 40193, Note_on_c, 0, 41, 80
2, 40204, Note_on_c, 0, 61, 80
2, 40204, Note_on_c, 0, 80, 80
2, 40204, Note_on_c, 0, 87, 80
2, 40206, Note_on_c, 0, 63, 80
2, 40206, Note_on_c, 0, 68, 80
2, 40206, Note_on_c, 0, 75, 80
2, 40210, Note_on_c, 0, 53, 80
2, 40218, Note_on_c, 0, 60, 0
2, 40229, Control_c, 0, 64, 127
2, 40252, Note_on_c, 0, 61, 0
2, 40256, Note_on_c, 0, 53, 0
2, 40256, Note_on_c, 0, 41, 0
2, 40307, Note_on_c, 0, 87, 0
2, 40311, Note_on_c, 0, 68, 0
2, 40311, Note_on_c, 0, 80, 0
2, 40311, Note_on_c, 0, 75, 0
2, 40311, Note_on_c, 0, 63, 0
2, 40313, Note_on_c, 0, 56, 80
2, 40313, Note_on_c, 0, 61, 80
2, 40317, Note_on_c, 0, 65, 80
2, 40338, Note_on_c, 0, 65, 0
2, 40340, Control_c, 0, 64, 0
2, 40367, Note_on_c, 0, 56, 0
2, 40368, Note_on_c, 0, 61, 0
2, 40370, Note_on_c, 0, 68, 80
2, 40370, Note_on_c, 0, 73, 80
2, 40370, Note_on_c, 0, 80, 80
2, 40370, Note_on_c, 0, 85, 80
2, 40374, Note_on_c, 0, 65, 80
2, 40399, Note_on_c, 0, 65, 0
2, 40422, Note_on_c, 0, 73, 0
2, 40422, Note_on_c, 0, 85, 0
2, 40424, Note_on_c, 0, 56, 80
2, 40424, Note_on_c, 0, 61, 80
2, 40428, Note_on_c, 0, 65, 80
2, 40447, Note_on_c, 0, 80, 0
2, 40449, Note_on_c, 0, 68, 0
2, 40474, Note_on_c, 0, 61, 0
2, 40474, Note_on_c, 0, 73, 80
2, 40478, Note_on_c, 0, 56, 0
2, 40478, Note_on_c, 0, 65, 0
2, 40478, Note_on_c, 0, 85, 80
2, 40520, Note_on_c, 0, 47, 80
2, 40530, Note_on_c, 0, 92, 80
2, 40532, Note_on_c, 0, 68, 80
2, 40532, Note_on_c, 0, 80, 80
2, 40534, Note_on_c, 0, 59, 80
2, 40578, Note_on_c, 0, 92, 0
2, 40578, Note_on_c, 0, 85, 0
2, 40582, Note_on_c, 0, 80, 0
2, 40584, Note_on_c, 0, 68, 0
2, 40584, Note_on_c, 0, 73, 0
2, 40584, Note_on_c, 0, 47, 0
2, 40584, Note_on_c, 0, 59, 0
2, 40636, Note_on_c, 0, 92, 80
2, 40638, Note_on_c, 0, 58, 80
2, 40638, Note_on_c, 0, 73, 80
2, 40638, Note_on_c, 0, 80, 80
2, 40638, Note_on_c, 0, 85, 80
2, 40640, Note_on_c, 0, 68, 80
2, 40642, Note_on_c, 0, 46, 80
2, 40659, Note_on_c, 0, 85, 0
2, 40663, Note_on_c, 0, 73, 0
2, 40665, Control_c, 0, 64, 127
2, 40684, Note_on_c, 0, 92, 0
2, 40684, Note_on_c, 0, 80, 0
2, 40684, Note_on_c, 0, 68, 0
2, 40684, Note_on_c, 0, 78, 80
2, 40684, Note_on_c, 0, 90, 80
2, 40686, Note_on_c, 0, 58, 0
2, 40686, Note_on_c, 0, 46, 0
2, 40686, Note_on_c, 0, 85, 80
2, 40690, Note_on_c, 0, 66, 80
2, 40690, Note_on_c, 0, 73, 80
2, 40709, Note_on_c, 0, 66, 0
2, 40734, Note_on_c, 0, 85, 0
2, 40736, Note_on_c, 0, 90, 0
2, 40736, Note_on_c, 0, 78, 0
2, 40736, Note_on_c, 0, 73, 0
2, 40738, Note_on_c, 0, 58, 80
2, 40738, Note_on_c, 0, 61, 80
2, 40738, Note_on_c, 0, 66, 80
2, 40787, Note_on_c, 0, 66, 0
2, 40787, Note_on_c, 0, 61, 0
2, 40787, Note_on_c, 0, 73, 80
2, 40787, Note_on_c, 0, 77, 80
2, 40787, Note_on_c, 0, 80, 80
2, 40787, Note_on_c, 0, 85, 80
2, 40787, Note_on_c, 0, 89, 80
2, 40789, Note_on_c, 0, 58, 0
2, 40789, Control_c, 0, 64, 0
2, 40793, Note_on_c, 0, 65, 80
2, 40793, Note_on_c, 0, 68, 80
2, 40829, Note_on_c, 0, 44, 80
2, 40837, Note_on_c, 0, 56, 80
2, 40883, Note_on_c, 0, 85, 0
2, 40883, Note_on_c, 0, 77, 0
2, 40887, Note_on_c, 0, 56, 0
2, 40887, Note_on_c, 0, 44, 0
2, 40898, Note_on_c, 0, 73, 0
2, 40898, Note_on_c, 0, 80, 0
2, 40898, Note_on_c, 0, 89, 0
2, 40900, Note_on_c, 0, 68, 0
2, 40904, Note_on_c, 0, 65, 0
2, 40941, Note_on_c, 0, 72, 80
2, 40941, Note_on_c, 0, 75, 80
2, 40941, Note_on_c, 0, 84, 80
2, 40941, Note_on_c, 0, 87, 80
2, 40943, Note_on_c, 0, 57, 80
2, 40943, Note_on_c, 0, 63, 80
2, 40943, Note_on_c, 0, 66, 80
2, 40943, Note_on_c, 0, 78, 80
2, 40946, Note_on_c, 0, 45, 80
2, 40987, Note_on_c, 0, 87, 0
2, 40991, Note_on_c, 0, 57, 0
2, 40991, Note_on_c, 0, 72, 0
2, 40991, Note_on_c, 0, 63, 0
2, 40991, Note_on_c, 0, 75, 0
2, 40991, Note_on_c, 0, 84, 0
2, 40991, Note_on_c, 0, 78, 0
2, 40991, Note_on_c, 0, 66, 0
2, 40991, Note_on_c, 0, 45, 0
2, 41049, Note_on_c, 0, 70, 80
2, 41049, Note_on_c, 0, 75, 80
2, 41049, Note_on_c, 0, 77, 80
2, 41049, Note_on_c, 0, 82, 80
2, 41049, Note_on_c, 0, 87, 80
2, 41055, Note_on_c, 0, 46, 80
2, 41055, Note_on_c, 0, 58, 80
2, 41055, Note_on_c, 0, 65, 80
2, 41074, Note_on_c, 0, 82, 0
2, 41074, Note_on_c, 0, 77, 0
2, 41074, Note_on_c, 0, 70, 0
2, 41078, Note_on_c, 0, 65, 0
2, 41080, Control_c, 0, 64, 127
2, 41099, Note_on_c, 0, 87, 0
2, 41103, Note_on_c, 0, 70, 80
2, 41103, Note_on_c, 0, 73, 80
2, 41103, Note_on_c, 0, 77, 80
2, 41103, Note_on_c, 0, 82, 80
2, 41103, Note_on_c, 0, 85, 80
2, 41105, Note_on_c, 0, 75, 0
2, 41105, Note_on_c, 0, 46, 0
2, 41105, Note_on_c, 0, 58, 0
2, 41107, Note_on_c, 0, 65, 80
2, 41132, Note_on_c, 0, 65, 0
2, 41153, Note_on_c, 0, 82, 0
2, 41153, Note_on_c, 0, 85, 0
2, 41153, Note_on_c, 0, 70, 0
2, 41155, Note_on_c, 0, 77, 0
2, 41155, Note_on_c, 0, 73, 0
2, 41157, Note_on_c, 0, 61, 80
2, 41160, Note_on_c, 0, 58, 80
2, 41160, Note_on_c, 0, 65, 80
2, 41185, Note_on_c, 0, 65, 0
2, 41197, Control_c, 0, 64, 0
2, 41208, Note_on_c, 0, 58, 0
2, 41208, Note_on_c, 0, 61, 0
2, 41208, Note_on_c, 0, 81, 80
2, 41208, Note_on_c, 0, 84, 80
2, 41210, Note_on_c, 0, 69, 80
2, 41210, Note_on_c, 0, 72, 80
2, 41210, Note_on_c, 0, 75, 80
2, 41210, Note_on_c, 0, 77, 80
2, 41212, Note_on_c, 0, 63, 80
2, 41216, Note_on_c, 0, 65, 80
2, 41262, Note_on_c, 0, 48, 80
2, 41264, Note_on_c, 0, 60, 80
2, 41306, Note_on_c, 0, 84, 0
2, 41306, Note_on_c, 0, 81, 0
2, 41308, Note_on_c, 0, 72, 0
2, 41308, Note_on_c, 0, 75, 0
2, 41308, Note_on_c, 0, 77, 0
2, 41308, Note_on_c, 0, 69, 0
2, 41308, Note_on_c, 0, 60, 0
2, 41308, Note_on_c, 0, 48, 0
2, 41308, Note_on_c, 0, 63, 0
2, 41312, Note_on_c, 0, 65, 0
2, 41361, Note_on_c, 0, 61, 80
2, 41361, Note_on_c, 0, 70, 80
2, 41361, Note_on_c, 0, 73, 80
2, 41361, Note_on_c, 0, 77, 80
2, 41361, Note_on_c, 0, 82, 80
2, 41365, Note_on_c, 0, 49, 80
2, 41365, Note_on_c, 0, 65, 80
2, 41414, Note_on_c, 0, 49, 0
2, 41414, Note_on_c, 0, 77, 0
2, 41414, Note_on_c, 0, 70, 0
2, 41414, Note_on_c, 0, 73, 0
2, 41414, Note_on_c, 0, 61, 0
2, 41414, Note_on_c, 0, 82, 0
2, 41418, Note_on_c, 0, 65, 0
2, 41464, Note_on_c, 0, 80, 80
2, 41466, Note_on_c, 0, 71, 80
2, 41466, Note_on_c, 0, 77, 80
2, 41468, Note_on_c, 0, 62, 80
2, 41472, Note_on_c, 0, 50, 80
2, 41472, Note_on_c, 0, 65, 80
2, 41472, Note_on_c, 0, 68, 80
2, 41496, Control_c, 0, 64, 127
2, 41514, Note_on_c, 0, 80, 0
2, 41516, Note_on_c, 0, 77, 0
2, 41516, Note_on_c, 0, 50, 0
2, 41516, Note_on_c, 0, 71, 0
2, 41516, Note_on_c, 0, 68, 0
2, 41516, Note_on_c, 0, 78, 80
2, 41518, Note_on_c, 0, 66, 80
2, 41518, Note_on_c, 0, 70, 80
2, 41518, Note_on_c, 0, 75, 80
2, 41520, Note_on_c, 0, 62, 0
2, 41520, Note_on_c, 0, 65, 0
2, 41564, Note_on_c, 0, 78, 0
2, 41566, Note_on_c, 0, 66, 0
2, 41566, Note_on_c, 0, 70, 0
2, 41566, Note_on_c, 0, 75, 0
2, 41568, Note_on_c, 0, 63, 80
2, 41569, Note_on_c, 0, 51, 80
2, 41620, Note_on_c, 0, 63, 0
2, 41620, Control_c, 0, 64, 0
2, 41620, Note_on_c, 0, 66, 80
2, 41620, Note_on_c, 0, 70, 80
2, 41620, Note_on_c, 0, 72, 80
2, 41620, Note_on_c, 0, 75, 80
2, 41620, Note_on_c, 0, 78, 80
2, 41622, Note_on_c, 0, 51, 0
2, 41663, Note_on_c, 0, 44, 80
2, 41674, Note_on_c, 0, 56, 80
2, 41693, Note_on_c, 0, 72, 0
2, 41693, Note_on_c, 0, 66, 0
2, 41693, Note_on_c, 0, 78, 0
2, 41697, Note_on_c, 0, 75, 0
2, 41697, Note_on_c, 0, 70, 0
2, 41724, Note_on_c, 0, 56, 0
2, 41724, Note_on_c, 0, 72, 80
2, 41724, Note_on_c, 0, 77, 80
2, 41726, Note_on_c, 0, 44, 0
2, 41726, Note_on_c, 0, 68, 80
2, 41728, Note_on_c, 0, 65, 80
2, 41749, Note_on_c, 0, 72, 0
2, 41778, Note_on_c, 0, 77, 0
2, 41782, Note_on_c, 0, 65, 0
2, 41784, Note_on_c, 0, 56, 80
2, 41784, Note_on_c, 0, 60, 80
2, 41784, Note_on_c, 0, 63, 80
2, 41784, Note_on_c, 0, 66, 80
2, 41784, Note_on_c, 0, 72, 80
2, 41784, Note_on_c, 0, 75, 80
2, 41836, Note_on_c, 0, 75, 0
2, 41836, Note_on_c, 0, 66, 0
2, 41836, Note_on_c, 0, 56, 0
2, 41836, Note_on_c, 0, 60, 0
2, 41836, Note_on_c, 0, 68, 0
2, 41836, Note_on_c, 0, 72, 0
2, 41836, Note_on_c, 0, 63, 0
2, 41901, Note_on_c, 0, 53, 80
2, 41901, Note_on_c, 0, 56, 80
2, 41901, Note_on_c, 0, 61, 80
2, 41901, Note_on_c, 0, 65, 80
2, 41901, Note_on_c, 0, 68, 80
2, 41901, Note_on_c, 0, 73, 80
2, 41924, Control_c, 0, 64, 127
2, 41947, Note_on_c, 0, 73, 0
2, 41947, Note_on_c, 0, 53, 0
2, 41947, Note_on_c, 0, 61, 0
2, 41947, Note_on_c, 0, 65, 0
2, 41947, Note_on_c, 0, 68, 0
2, 41949, Note_on_c, 0, 56, 0
2, 42005, Note_on_c, 0, 44, 80
2, 42005, Note_on_c, 0, 56, 80
2, 42032, Control_c, 0, 64, 0
2, 42059, Note_on_c, 0, 56, 0
2, 42059, Note_on_c, 0, 44, 0
2, 42118, Note_on_c, 0, 37, 80
2, 42118, Note_on_c, 0, 49, 80
2, 42164, Note_on_c, 0, 49, 0
2, 42164, Note_on_c, 0, 37, 0
2, 42164, Note_on_c, 0, 77, 80
2, 42164, Note_on_c, 0, 89, 80
2, 42215, Note_on_c, 0, 89, 0
2, 42215, Note_on_c, 0, 77, 0
2, 42215, Note_on_c, 0, 78, 80
2, 42216, Note_on_c, 0, 90, 80
2, 42261, Note_on_c, 0, 90, 0
2, 42261, Note_on_c, 0, 78, 0
2, 42263, Note_on_c, 0, 91, 80
2, 42264, Note_on_c, 0, 79, 80
2, 42311, Note_on_c, 0, 79, 0
2, 42311, Note_on_c, 0, 91, 0
2, 42312, Note_on_c, 0, 73, 80
2, 42312, Note_on_c, 0, 77, 80
2, 42312, Note_on_c, 0, 80, 80
2, 42312, Note_on_c, 0, 92, 80
2, 42337, Control_c, 0, 64, 127
2, 42360, Note_on_c, 0, 92, 0
2, 42360, Note_on_c, 0, 77, 0
2, 42364, Note_on_c, 0, 80, 0
2, 42364, Note_on_c, 0, 73, 0
2, 42366, Note_on_c, 0, 85, 80
2, 42366, Note_on_c, 0, 97, 80
2, 42412, Note_on_c, 0, 97, 0
2, 42414, Note_on_c, 0, 85, 0
2, 42416, Note_on_c, 0, 80, 80
2, 42416, Note_on_c, 0, 92, 80
2, 42418, Note_on_c, 0, 71, 80
2, 42441, Control_c, 0, 64, 0
2, 42462, Note_on_c, 0, 92, 0
2, 42462, Note_on_c, 0, 80, 0
2, 42468, Note_on_c, 0, 71, 0
2, 42470, Note_on_c, 0, 76, 80
2, 42470, Note_on_c, 0, 79, 80
2, 42470, Note_on_c, 0, 91, 80
2, 42527, Note_on_c, 0, 70, 80
2, 42550, Note_on_c, 0, 91, 0
2, 42552, Note_on_c, 0, 76, 0
2, 42552, Note_on_c, 0, 79, 0
2, 42578, Note_on_c, 0, 70, 0
2, 42578, Note_on_c, 0, 85, 80
2, 42580, Note_on_c, 0, 97, 80
2, 42624, Note_on_c, 0, 97, 0
2, 42628, Note_on_c, 0, 85, 0
2, 42634, Note_on_c, 0, 69, 80
2, 42634, Note_on_c, 0, 75, 80
2, 42634, Note_on_c, 0, 78, 80
2, 42634, Note_on_c, 0, 90, 80
2, 42683, Note_on_c, 0, 90, 0
2, 42683, Note_on_c, 0, 78, 0
2, 42683, Note_on_c, 0, 69, 0
2, 42687, Note_on_c, 0, 75, 0
2, 42740, Note_on_c, 0, 89, 80
2, 42742, Note_on_c, 0, 77, 80
2, 42744, Note_on_c, 0, 73, 80
2, 42745, Note_on_c, 0, 68, 80
2, 42768, Control_c, 0, 64, 127
2, 42788, Note_on_c, 0, 77, 0
2, 42788, Note_on_c, 0, 89, 0
2, 42790, Note_on_c, 0, 94, 80
2, 42792, Note_on_c, 0, 72, 80
2, 42792, Note_on_c, 0, 82, 80
2, 42793, Note_on_c, 0, 73, 0
2, 42793, Note_on_c, 0, 68, 0
2, 42795, Note_on_c, 0, 75, 80
2, 42795, Note_on_c, 0, 78, 80
2, 42844, Note_on_c, 0, 78, 0
2, 42844, Note_on_c, 0, 72, 0
2, 42844, Note_on_c, 0, 82, 0
2, 42844, Note_on_c, 0, 75, 0
2, 42846, Note_on_c, 0, 66, 80
2, 42865, Note_on_c, 0, 94, 0
2, 42871, Control_c, 0, 64, 0
2, 42892, Note_on_c, 0, 66, 0
2, 42892, Note_on_c, 0, 92, 80
2, 42894, Note_on_c, 0, 80, 80
2, 42896, Note_on_c, 0, 73, 80
2, 42896, Note_on_c, 0, 77, 80
2, 42951, Note_on_c, 0, 65, 80
2, 42970, Note_on_c, 0, 77, 0
2, 42970, Note_on_c, 0, 73, 0
2, 42970, Note_on_c, 0, 80, 0
2, 42993, Note_on_c, 0, 92, 0
2, 42997, Note_on_c, 0, 65, 0
2, 42997, Note_on_c, 0, 94, 80
2, 42999, Note_on_c, 0, 82, 80
2, 43043, Note_on_c, 0, 96, 80
2, 43045, Note_on_c, 0, 94, 0
2, 43047, Note_on_c, 0, 82, 0
2, 43049, Note_on_c, 0, 73, 80
2, 43049, Note_on_c, 0, 84, 80
2, 43051, Note_on_c, 0, 64, 80
2, 43051, Note_on_c, 0, 79, 80
2, 43091, Note_on_c, 0, 96, 0
2, 43097, Note_on_c, 0, 73, 0
2, 43097, Note_on_c, 0, 79, 0
2, 43097, Note_on_c, 0, 84, 0
2, 43103, Note_on_c, 0, 64, 0
2, 43141, Note_on_c, 0, 51, 80
2, 43149, Note_on_c, 0, 63, 80
2, 43149, Note_on_c, 0, 78, 80
2, 43149, Note_on_c, 0, 82, 80
2, 43151, Note_on_c, 0, 94, 80
2, 43152, Note_on_c, 0, 70, 80
2, 43152, Note_on_c, 0, 72, 80
2, 43172, Control_c, 0, 64, 127
2, 43246, Note_on_c, 0, 72, 0
2, 43246, Note_on_c, 0, 78, 0
2, 43246, Note_on_c, 0, 82, 0
2, 43249, Note_on_c, 0, 70, 0
2, 43251, Note_on_c, 0, 56, 80
2, 43251, Note_on_c, 0, 60, 80
2, 43251, Note_on_c, 0, 66, 80
2, 43276, Note_on_c, 0, 51, 0
2, 43276, Note_on_c, 0, 63, 0
2, 43276, Control_c, 0, 64, 0
2, 43297, Note_on_c, 0, 94, 0
2, 43301, Note_on_c, 0, 56, 0
2, 43301, Note_on_c, 0, 68, 80
2, 43301, Note_on_c, 0, 72, 80
2, 43303, Note_on_c, 0, 78, 80
2, 43303, Note_on_c, 0, 80, 80
2, 43313, Note_on_c, 0, 92, 80
2, 43349, Note_on_c, 0, 80, 0
2, 43355, Note_on_c, 0, 56, 80
2, 43357, Note_on_c, 0, 44, 80
2, 43378, Note_on_c, 0, 78, 0
2, 43382, Note_on_c, 0, 72, 0
2, 43384, Note_on_c, 0, 68, 0
2, 43399, Note_on_c, 0, 92, 0
2, 43405, Note_on_c, 0, 56, 0
2, 43405, Note_on_c, 0, 60, 0
2, 43405, Note_on_c, 0, 66, 0
2, 43407, Note_on_c, 0, 80, 80
2, 43409, Note_on_c, 0, 44, 0
2, 43458, Note_on_c, 0, 89, 80
2, 43464, Note_on_c, 0, 56, 80
2, 43464, Note_on_c, 0, 60, 80
2, 43464, Note_on_c, 0, 77, 80
2, 43465, Note_on_c, 0, 66, 80
2, 43465, Note_on_c, 0, 68, 80
2, 43506, Note_on_c, 0, 89, 0
2, 43510, Note_on_c, 0, 77, 0
2, 43510, Note_on_c, 0, 80, 0
2, 43510, Note_on_c, 0, 56, 0
2, 43512, Note_on_c, 0, 66, 0
2, 43512, Note_on_c, 0, 68, 0
2, 43558, Note_on_c, 0, 41, 80
2, 43563, Note_on_c, 0, 80, 80
2, 43563, Note_on_c, 0, 87, 80
2, 43565, Note_on_c, 0, 61, 80
2, 43565, Note_on_c, 0, 63, 80
2, 43565, Note_on_c, 0, 68, 80
2, 43565, Note_on_c, 0, 75, 80
2, 43569, Note_on_c, 0, 53, 80
2, 43577, Note_on_c, 0, 60, 0
2, 43590, Control_c, 0, 64, 127
2, 43611, Note_on_c, 0, 61, 0
2, 43617, Note_on_c, 0, 53, 0
2, 43617, Note_on_c, 0, 41, 0
2, 43666, Note_on_c, 0, 75, 0
2, 43666, Note_on_c, 0, 87, 0
2, 43666, Note_on_c, 0, 80, 0
2, 43668, Note_on_c, 0, 68, 0
2, 43668, Note_on_c, 0, 63, 0
2, 43668, Note_on_c, 0, 56, 80
2, 43668, Note_on_c, 0, 61, 80
2, 43670, Note_on_c, 0, 65, 80
2, 43695, Note_on_c, 0, 65, 0
2, 43708, Control_c, 0, 64, 0
2, 43718, Note_on_c, 0, 61, 0
2, 43720, Note_on_c, 0, 80, 80
2, 43720, Note_on_c, 0, 85, 80
2, 43722, Note_on_c, 0, 56, 0
2, 43722, Note_on_c, 0, 68, 80
2, 43722, Note_on_c, 0, 73, 80
2, 43726, Note_on_c, 0, 65, 80
2, 43749, Note_on_c, 0, 65, 0
2, 43770, Note_on_c, 0, 61, 80
2, 43774, Note_on_c, 0, 56, 80
2, 43774, Note_on_c, 0, 65, 80
2, 43791, Note_on_c, 0, 80, 0
2, 43791, Note_on_c, 0, 85, 0
2, 43793, Note_on_c, 0, 73, 0
2, 43793, Note_on_c, 0, 68, 0
2, 43816, Note_on_c, 0, 89, 80
2, 43818, Note_on_c, 0, 65, 0
2, 43818, Note_on_c, 0, 56, 0
2, 43818, Note_on_c, 0, 61, 0
2, 43820, Note_on_c, 0, 77, 80
2, 43869, Note_on_c, 0, 77, 0
2, 43869, Note_on_c, 0, 89, 0
2, 43871, Note_on_c, 0, 78, 80
2, 43871, Note_on_c, 0, 90, 80
2, 43917, Note_on_c, 0, 90, 0
2, 43917, Note_on_c, 0, 78, 0
2, 43922, Note_on_c, 0, 91, 80
2, 43924, Note_on_c, 0, 79, 80
2, 43970, Note_on_c, 0, 79, 0
2, 43970, Note_on_c, 0, 91, 0
2, 43972, Note_on_c, 0, 92, 80
2, 43976, Note_on_c, 0, 80, 80
2, 43978, Note_on_c, 0, 73, 80
2, 43978, Note_on_c, 0, 77, 80
2, 44003, Control_c, 0, 64, 127
2, 44024, Note_on_c, 0, 80, 0
2, 44024, Note_on_c, 0, 92, 0
2, 44026, Note_on_c, 0, 73, 0
2, 44026, Note_on_c, 0, 77, 0
2, 44028, Note_on_c, 0, 97, 80
2, 44032, Note_on_c, 0, 85, 80
2, 44076, Note_on_c, 0, 97, 0
2, 44078, Note_on_c, 0, 85, 0
2, 44080, Note_on_c, 0, 92, 80
2, 44084, Note_on_c, 0, 71, 80
2, 44084, Note_on_c, 0, 80, 80
2, 44122, Control_c, 0, 64, 0
2, 44128, Note_on_c, 0, 92, 0
2, 44130, Note_on_c, 0, 80, 0
2, 44132, Note_on_c, 0, 71, 0
2, 44132, Note_on_c, 0, 91, 80
2, 44134, Note_on_c, 0, 76, 80
2, 44134, Note_on_c, 0, 79, 80
2, 44190, Note_on_c, 0, 70, 80
2, 44209, Note_on_c, 0, 79, 0
2, 44209, Note_on_c, 0, 91, 0
2, 44209, Note_on_c, 0, 76, 0
2, 44238, Note_on_c, 0, 70, 0
2, 44240, Note_on_c, 0, 85, 80
2, 44240, Note_on_c, 0, 97, 80
2, 44286, Note_on_c, 0, 97, 0
2, 44290, Note_on_c, 0, 85, 0
2, 44292, Note_on_c, 0, 90, 80
2, 44296, Note_on_c, 0, 69, 80
2, 44296, Note_on_c, 0, 75, 80
2, 44296, Note_on_c, 0, 78, 80
2, 44340, Note_on_c, 0, 78, 0
2, 44340, Note_on_c, 0, 90, 0
2, 44342, Note_on_c, 0, 69, 0
2, 44346, Note_on_c, 0, 75, 0
2, 44400, Note_on_c, 0, 73, 80
2, 44400, Note_on_c, 0, 77, 80
2, 44400, Note_on_c, 0, 89, 80
2, 44402, Note_on_c, 0, 68, 80
2, 44425, Control_c, 0, 64, 127
2, 44445, Note_on_c, 0, 89, 0
2, 44447, Note_on_c, 0, 73, 0
2, 44447, Note_on_c, 0, 77, 0
2, 44447, Note_on_c, 0, 94, 80
2, 44450, Note_on_c, 0, 68, 0
2, 44452, Note_on_c, 0, 72, 80
2, 44452, Note_on_c, 0, 75, 80
2, 44452, Note_on_c, 0, 78, 80
2, 44452, Note_on_c, 0, 82, 80
2, 44501, Note_on_c, 0, 82, 0
2, 44501, Note_on_c, 0, 75, 0
2, 44501, Note_on_c, 0, 78, 0
2, 44501, Note_on_c, 0, 72, 0
2, 44505, Note_on_c, 0, 66, 80
2, 44522, Note_on_c, 0, 94, 0
2, 44542, Control_c, 0, 64, 0
2, 44551, Note_on_c, 0, 66, 0
2, 44551, Note_on_c, 0, 92, 80
2, 44553, Note_on_c, 0, 73, 80
2, 44553, Note_on_c, 0, 77, 80
2, 44553, Note_on_c, 0, 80, 80
2, 44602, Note_on_c, 0, 80, 0
2, 44602, Note_on_c, 0, 92, 0
2, 44610, Note_on_c, 0, 65, 80
2, 44629, Note_on_c, 0, 77, 0
2, 44629, Note_on_c, 0, 73, 0
2, 44656, Note_on_c, 0, 80, 80
2, 44656, Note_on_c, 0, 92, 80
2, 44660, Note_on_c, 0, 65, 0
2, 44706, Note_on_c, 0, 92, 0
2, 44706, Note_on_c, 0, 43, 80
2, 44708, Note_on_c, 0, 80, 0
2, 44710, Note_on_c, 0, 94, 80
2, 44712, Note_on_c, 0, 55, 80
2, 44712, Note_on_c, 0, 61, 80
2, 44712, Note_on_c, 0, 70, 80
2, 44712, Note_on_c, 0, 73, 80
2, 44712, Note_on_c, 0, 77, 80
2, 44712, Note_on_c, 0, 79, 80
2, 44712, Note_on_c, 0, 82, 80
2, 44713, Note_on_c, 0, 67, 80
2, 44715, Note_on_c, 0, 65, 80
2, 44756, Note_on_c, 0, 94, 0
2, 44760, Note_on_c, 0, 67, 0
2, 44760, Note_on_c, 0, 61, 0
2, 44760, Note_on_c, 0, 79, 0
2, 44760, Note_on_c, 0, 70, 0
2, 44760, Note_on_c, 0, 73, 0
2, 44760, Note_on_c, 0, 82, 0
2, 44760, Note_on_c, 0, 77, 0
2, 44765, Note_on_c, 0, 65, 0
2, 44765, Note_on_c, 0, 43, 0
2, 44765, Note_on_c, 0, 55, 0
2, 44818, Note_on_c, 0, 84, 80
2, 44818, Note_on_c, 0, 96, 80
2, 44822, Note_on_c, 0, 48, 80
2, 44822, Note_on_c, 0, 60, 80
2, 44822, Note_on_c, 0, 64, 80
2, 44822, Note_on_c, 0, 67, 80
2, 44822, Note_on_c, 0, 72, 80
2, 44822, Note_on_c, 0, 76, 80
2, 44822, Note_on_c, 0, 79, 80
2, 44845, Control_c, 0, 64, 127
2, 44870, Note_on_c, 0, 67, 0
2, 44872, Note_on_c, 0, 60, 0
2, 44874, Note_on_c, 0, 64, 0
2, 44874, Note_on_c, 0, 48, 0
2, 44906, Note_on_c, 0, 96, 0
2, 44924, Note_on_c, 0, 72, 0
2, 44924, Note_on_c, 0, 84, 0
2, 44926, Note_on_c, 0, 79, 0
2, 44926, Note_on_c, 0, 76, 0
2, 44926, Note_on_c, 0, 60, 80
2, 44928, Note_on_c, 0, 58, 80
2, 44928, Note_on_c, 0, 64, 80
2, 44928, Note_on_c, 0, 67, 80
2, 44931, Note_on_c, 0, 55, 80
2, 44951, Note_on_c, 0, 67, 0
2, 44951, Note_on_c, 0, 64, 0
2, 44951, Note_on_c, 0, 60, 0
2, 44966, Control_c, 0, 64, 0
2, 44976, Note_on_c, 0, 70, 80
2, 44976, Note_on_c, 0, 76, 80
2, 44976, Note_on_c, 0, 79, 80
2, 44976, Note_on_c, 0, 91, 80
2, 44977, Note_on_c, 0, 55, 0
2, 44977, Note_on_c, 0, 64, 80
2, 44977, Note_on_c, 0, 67, 80
2, 44979, Note_on_c, 0, 60, 80
2, 44979, Note_on_c, 0, 72, 80
2, 45020, Note_on_c, 0, 43, 80
2, 45031, Note_on_c, 0, 55, 80
2, 45052, Note_on_c, 0, 79, 0
2, 45054, Note_on_c, 0, 67, 0
2, 45056, Note_on_c, 0, 72, 0
2, 45056, Note_on_c, 0, 60, 0
2, 45056, Note_on_c, 0, 76, 0
2, 45056, Note_on_c, 0, 64, 0
2, 45056, Note_on_c, 0, 70, 0
2, 45077, Note_on_c, 0, 91, 0
2, 45079, Note_on_c, 0, 78, 80
2, 45079, Note_on_c, 0, 90, 80
2, 45081, Note_on_c, 0, 66, 80
2, 45083, Note_on_c, 0, 43, 0
2, 45083, Note_on_c, 0, 58, 0
2, 45083, Note_on_c, 0, 55, 0
2, 45125, Note_on_c, 0, 36, 80
2, 45131, Note_on_c, 0, 78, 0
2, 45131, Note_on_c, 0, 90, 0
2, 45133, Note_on_c, 0, 66, 0
2, 45137, Note_on_c, 0, 91, 80
2, 45139, Note_on_c, 0, 48, 80
2, 45139, Note_on_c, 0, 58, 80
2, 45139, Note_on_c, 0, 60, 80
2, 45139, Note_on_c, 0, 64, 80
2, 45139, Note_on_c, 0, 67, 80
2, 45139, Note_on_c, 0, 70, 80
2, 45139, Note_on_c, 0, 72, 80
2, 45139, Note_on_c, 0, 76, 80
2, 45139, Note_on_c, 0, 79, 80
2, 45183, Note_on_c, 0, 79, 0
2, 45183, Note_on_c, 0, 76, 0
2, 45185, Note_on_c, 0, 70, 0
2, 45185, Note_on_c, 0, 60, 0
2, 45185, Note_on_c, 0, 91, 0
2, 45185, Note_on_c, 0, 72, 0
2, 45187, Note_on_c, 0, 48, 0
2, 45187, Note_on_c, 0, 64, 0
2, 45187, Note_on_c, 0, 58, 0
2, 45187, Note_on_c, 0, 67, 0
2, 45189, Note_on_c, 0, 36, 0
2, 45240, Note_on_c, 0, 80, 80
2, 45240, Note_on_c, 0, 92, 80
2, 45241, Note_on_c, 0, 60, 80
2, 45241, Note_on_c, 0, 68, 80
2, 45241, Note_on_c, 0, 72, 80
2, 45241, Note_on_c, 0, 77, 80
2, 45245, Note_on_c, 0, 53, 80
2, 45245, Note_on_c, 0, 65, 80
2, 45266, Control_c, 0, 64, 127
2, 45293, Note_on_c, 0, 65, 0
2, 45293, Note_on_c, 0, 53, 0
2, 45293, Note_on_c, 0, 60, 0
2, 45336, Note_on_c, 0, 80, 0
2, 45336, Note_on_c, 0, 92, 0
2, 45337, Note_on_c, 0, 77, 0
2, 45341, Note_on_c, 0, 72, 0
2, 45341, Note_on_c, 0, 68, 0
2, 45343, Note_on_c, 0, 52, 80
2, 45343, Note_on_c, 0, 64, 80
2, 45394, Note_on_c, 0, 80, 80
2, 45394, Note_on_c, 0, 92, 80
2, 45396, Note_on_c, 0, 64, 0
2, 45396, Note_on_c, 0, 52, 0
2, 45396, Control_c, 0, 64, 0
2, 45396, Note_on_c, 0, 72, 80
2, 45398, Note_on_c, 0, 78, 80
2, 45400, Note_on_c, 0, 68, 80
2, 45455, Note_on_c, 0, 51, 80
2, 45455, Note_on_c, 0, 63, 80
2, 45474, Note_on_c, 0, 78, 0
2, 45474, Note_on_c, 0, 72, 0
2, 45474, Note_on_c, 0, 80, 0
2, 45476, Note_on_c, 0, 68, 0
2, 45501, Note_on_c, 0, 92, 0
2, 45506, Note_on_c, 0, 51, 0
2, 45506, Note_on_c, 0, 63, 0
2, 45508, Note_on_c, 0, 77, 80
2, 45508, Note_on_c, 0, 89, 80
2, 45552, Note_on_c, 0, 44, 80
2, 45556, Note_on_c, 0, 89, 0
2, 45556, Note_on_c, 0, 77, 0
2, 45558, Note_on_c, 0, 78, 80
2, 45558, Note_on_c, 0, 90, 80
2, 45562, Note_on_c, 0, 56, 80
2, 45613, Note_on_c, 0, 90, 0
2, 45615, Note_on_c, 0, 78, 0
2, 45615, Note_on_c, 0, 91, 80
2, 45617, Note_on_c, 0, 56, 0
2, 45617, Note_on_c, 0, 79, 80
2, 45619, Note_on_c, 0, 44, 0
2, 45665, Note_on_c, 0, 79, 0
2, 45667, Note_on_c, 0, 91, 0
2, 45667, Note_on_c, 0, 92, 80
2, 45671, Note_on_c, 0, 73, 80
2, 45671, Note_on_c, 0, 77, 80
2, 45671, Note_on_c, 0, 80, 80
2, 45696, Control_c, 0, 64, 127
2, 45713, Note_on_c, 0, 80, 0
2, 45713, Note_on_c, 0, 92, 0
2, 45715, Note_on_c, 0, 77, 0
2, 45715, Note_on_c, 0, 73, 0
2, 45719, Note_on_c, 0, 85, 80
2, 45720, Note_on_c, 0, 97, 80
2, 45765, Note_on_c, 0, 97, 0
2, 45768, Note_on_c, 0, 85, 0
2, 45768, Note_on_c, 0, 80, 80
2, 45768, Note_on_c, 0, 92, 80
2, 45770, Note_on_c, 0, 71, 80
2, 45816, Note_on_c, 0, 92, 0
2, 45816, Note_on_c, 0, 80, 0
2, 45822, Note_on_c, 0, 71, 0
2, 45824, Control_c, 0, 64, 0
2, 45824, Note_on_c, 0, 76, 80
2, 45824, Note_on_c, 0, 79, 80
2, 45824, Note_on_c, 0, 91, 80
2, 45875, Note_on_c, 0, 70, 80
2, 45896, Note_on_c, 0, 79, 0
2, 45898, Note_on_c, 0, 91, 0
2, 45900, Note_on_c, 0, 76, 0
2, 45923, Note_on_c, 0, 70, 0
2, 45923, Note_on_c, 0, 85, 80
2, 45923, Note_on_c, 0, 97, 80
2, 45976, Note_on_c, 0, 97, 0
2, 45976, Note_on_c, 0, 85, 0
2, 45978, Note_on_c, 0, 90, 80
2, 45982, Note_on_c, 0, 69, 80
2, 45982, Note_on_c, 0, 75, 80
2, 45982, Note_on_c, 0, 78, 80
2, 46024, Note_on_c, 0, 90, 0
2, 46030, Note_on_c, 0, 69, 0
2, 46030, Note_on_c, 0, 75, 0
2, 46030, Note_on_c, 0, 78, 0
2, 46082, Note_on_c, 0, 73, 80
2, 46082, Note_on_c, 0, 77, 80
2, 46082, Note_on_c, 0, 89, 80
2, 46086, Note_on_c, 0, 68, 80
2, 46109, Control_c, 0, 64, 127
2, 46130, Note_on_c, 0, 89, 0
2, 46130, Note_on_c, 0, 73, 0
2, 46130, Note_on_c, 0, 77, 0
2, 46132, Note_on_c, 0, 68, 0
2, 46132, Note_on_c, 0, 94, 80
2, 46134, Note_on_c, 0, 72, 80
2, 46134, Note_on_c, 0, 78, 80
2, 46134, Note_on_c, 0, 82, 80
2, 46138, Note_on_c, 0, 75, 80
2, 46184, Note_on_c, 0, 75, 0
2, 46184, Note_on_c, 0, 78, 0
2, 46184, Note_on_c, 0, 82, 0
2, 46186, Note_on_c, 0, 72, 0
2, 46186, Note_on_c, 0, 66, 80
2, 46205, Note_on_c, 0, 94, 0
2, 46236, Note_on_c, 0, 66, 0
2, 46236, Control_c, 0, 64, 0
2, 46236, Note_on_c, 0, 80, 80
2, 46236, Note_on_c, 0, 92, 80
2, 46238, Note_on_c, 0, 73, 80
2, 46238, Note_on_c, 0, 77, 80
2, 46293, Note_on_c, 0, 65, 80
2, 46312, Note_on_c, 0, 77, 0
2, 46312, Note_on_c, 0, 73, 0
2, 46312, Note_on_c, 0, 80, 0
2, 46312, Note_on_c, 0, 92, 0
2, 46343, Note_on_c, 0, 65, 0
2, 46343, Note_on_c, 0, 94, 80
2, 46344, Note_on_c, 0, 82, 80
2, 46387, Note_on_c, 0, 52, 80
2, 46392, Note_on_c, 0, 94, 0
2, 46394, Note_on_c, 0, 82, 0
2, 46394, Note_on_c, 0, 96, 80
2, 46396, Note_on_c, 0, 64, 80
2, 46396, Note_on_c, 0, 73, 80
2, 46396, Note_on_c, 0, 79, 80
2, 46396, Note_on_c, 0, 84, 80
2, 46439, Note_on_c, 0, 96, 0
2, 46442, Note_on_c, 0, 79, 0
2, 46442, Note_on_c, 0, 73, 0
2, 46446, Note_on_c, 0, 52, 0
2, 46446, Note_on_c, 0, 84, 0
2, 46446, Note_on_c, 0, 64, 0
2, 46488, Note_on_c, 0, 51, 80
2, 46500, Note_on_c, 0, 78, 80
2, 46500, Note_on_c, 0, 82, 80
2, 46500, Note_on_c, 0, 94, 80
2, 46502, Note_on_c, 0, 63, 80
2, 46502, Note_on_c, 0, 70, 80
2, 46502, Note_on_c, 0, 72, 80
2, 46525, Control_c, 0, 64, 127
2, 46595, Note_on_c, 0, 94, 0
2, 46595, Note_on_c, 0, 82, 0
2, 46599, Note_on_c, 0, 78, 0
2, 46599, Note_on_c, 0, 70, 0
2, 46599, Note_on_c, 0, 72, 0
2, 46599, Note_on_c, 0, 56, 80
2, 46601, Note_on_c, 0, 60, 80
2, 46601, Note_on_c, 0, 66, 80
2, 46622, Note_on_c, 0, 63, 0
2, 46626, Note_on_c, 0, 51, 0
2, 46651, Control_c, 0, 64, 0
2, 46651, Note_on_c, 0, 78, 80
2, 46651, Note_on_c, 0, 80, 80
2, 46651, Note_on_c, 0, 92, 80
2, 46653, Note_on_c, 0, 56, 0
2, 46653, Note_on_c, 0, 68, 80
2, 46653, Note_on_c, 0, 72, 80
2, 46695, Note_on_c, 0, 44, 80
2, 46699, Note_on_c, 0, 80, 0
2, 46701, Note_on_c, 0, 56, 80
2, 46724, Note_on_c, 0, 78, 0
2, 46726, Note_on_c, 0, 72, 0
2, 46726, Note_on_c, 0, 68, 0
2, 46749, Note_on_c, 0, 92, 0
2, 46751, Note_on_c, 0, 80, 80
2, 46752, Note_on_c, 0, 60, 0
2, 46752, Note_on_c, 0, 56, 0
2, 46752, Note_on_c, 0, 66, 0
2, 46752, Note_on_c, 0, 44, 0
2, 46777, Note_on_c, 0, 80, 0
2, 46795, Note_on_c, 0, 42, 80
2, 46800, Note_on_c, 0, 89, 80
2, 46802, Note_on_c, 0, 77, 80
2, 46802, Note_on_c, 0, 80, 80
2, 46806, Note_on_c, 0, 54, 80
2, 46806, Note_on_c, 0, 60, 80
2, 46808, Note_on_c, 0, 66, 80
2, 46808, Note_on_c, 0, 68, 80
2, 46848, Note_on_c, 0, 89, 0
2, 46852, Note_on_c, 0, 54, 0
2, 46852, Note_on_c, 0, 42, 0
2, 46852, Note_on_c, 0, 80, 0
2, 46852, Note_on_c, 0, 77, 0
2, 46854, Note_on_c, 0, 68, 0
2, 46854, Note_on_c, 0, 66, 0
2, 46898, Note_on_c, 0, 41, 80
2, 46908, Note_on_c, 0, 87, 80
2, 46910, Note_on_c, 0, 75, 80
2, 46910, Note_on_c, 0, 80, 80
2, 46912, Note_on_c, 0, 53, 80
2, 46912, Note_on_c, 0, 61, 80
2, 46912, Note_on_c, 0, 63, 80
2, 46912, Note_on_c, 0, 68, 80
2, 46920, Note_on_c, 0, 60, 0
2, 46935, Control_c, 0, 64, 127
2, 46958, Note_on_c, 0, 61, 0
2, 46960, Note_on_c, 0, 53, 0
2, 46962, Note_on_c, 0, 41, 0
2, 47006, Note_on_c, 0, 87, 0
2, 47010, Note_on_c, 0, 80, 0
2, 47012, Note_on_c, 0, 68, 0
2, 47012, Note_on_c, 0, 75, 0
2, 47012, Note_on_c, 0, 63, 0
2, 47014, Note_on_c, 0, 56, 80
2, 47014, Note_on_c, 0, 61, 80
2, 47017, Note_on_c, 0, 65, 80
2, 47037, Control_c, 0, 64, 0
2, 47039, Note_on_c, 0, 65, 0
2, 47065, Note_on_c, 0, 61, 0
2, 47065, Note_on_c, 0, 56, 0
2, 47067, Note_on_c, 0, 73, 80
2, 47067, Note_on_c, 0, 80, 80
2, 47067, Note_on_c, 0, 85, 80
2, 47071, Note_on_c, 0, 68, 80
2, 47073, Note_on_c, 0, 65, 80
2, 47092, Note_on_c, 0, 65, 0
2, 47117, Note_on_c, 0, 85, 0
2, 47119, Note_on_c, 0, 61, 80
2, 47121, Note_on_c, 0, 73, 0
2, 47123, Note_on_c, 0, 56, 80
2, 47123, Note_on_c, 0, 65, 80
2, 47142, Note_on_c, 0, 80, 0
2, 47144, Note_on_c, 0, 68, 0
2, 47171, Note_on_c, 0, 61, 0
2, 47171, Note_on_c, 0, 56, 0
2, 47173, Note_on_c, 0, 65, 0
2, 47173, Note_on_c, 0, 73, 80
2, 47173, Note_on_c, 0, 85, 80
2, 47217, Note_on_c, 0, 47, 80
2, 47223, Note_on_c, 0, 92, 80
2, 47229, Note_on_c, 0, 80, 80
2, 47231, Note_on_c, 0, 59, 80
2, 47231, Note_on_c, 0, 68, 80
2, 47273, Note_on_c, 0, 92, 0
2, 47277, Note_on_c, 0, 59, 0
2, 47277, Note_on_c, 0, 80, 0
2, 47277, Note_on_c, 0, 85, 0
2, 47277, Note_on_c, 0, 73, 0
2, 47277, Note_on_c, 0, 68, 0
2, 47280, Note_on_c, 0, 47, 0
2, 47331, Note_on_c, 0, 73, 80
2, 47331, Note_on_c, 0, 80, 80
2, 47331, Note_on_c, 0, 85, 80
2, 47331, Note_on_c, 0, 92, 80
2, 47333, Note_on_c, 0, 68, 80
2, 47337, Note_on_c, 0, 46, 80
2, 47337, Note_on_c, 0, 58, 80
2, 47358, Note_on_c, 0, 85, 0
2, 47358, Note_on_c, 0, 73, 0
2, 47358, Control_c, 0, 64, 127
2, 47379, Note_on_c, 0, 80, 0
2, 47381, Note_on_c, 0, 92, 0
2, 47383, Note_on_c, 0, 66, 80
2, 47383, Note_on_c, 0, 78, 80
2, 47383, Note_on_c, 0, 85, 80
2, 47383, Note_on_c, 0, 90, 80
2, 47385, Note_on_c, 0, 46, 0
2, 47385, Note_on_c, 0, 68, 0
2, 47385, Note_on_c, 0, 58, 0
2, 47387, Note_on_c, 0, 73, 80
2, 47408, Note_on_c, 0, 66, 0
2, 47431, Note_on_c, 0, 90, 0
2, 47433, Note_on_c, 0, 78, 0
2, 47433, Note_on_c, 0, 85, 0
2, 47435, Note_on_c, 0, 73, 0
2, 47437, Note_on_c, 0, 61, 80
2, 47439, Note_on_c, 0, 58, 80
2, 47439, Note_on_c, 0, 66, 80
2, 47490, Note_on_c, 0, 66, 0
2, 47490, Note_on_c, 0, 58, 0
2, 47490, Note_on_c, 0, 61, 0
2, 47490, Note_on_c, 0, 80, 80
2, 47490, Note_on_c, 0, 89, 80
2, 47492, Note_on_c, 0, 73, 80
2, 47492, Note_on_c, 0, 77, 80
2, 47492, Note_on_c, 0, 85, 80
2, 47494, Note_on_c, 0, 68, 80
2, 47496, Control_c, 0, 64, 0
2, 47496, Note_on_c, 0, 65, 80
2, 47532, Note_on_c, 0, 44, 80
2, 47544, Note_on_c, 0, 56, 80
2, 47590, Note_on_c, 0, 85, 0
2, 47590, Note_on_c, 0, 77, 0
2, 47593, Note_on_c, 0, 56, 0
2, 47595, Note_on_c, 0, 44, 0
2, 47601, Note_on_c, 0, 80, 0
2, 47601, Note_on_c, 0, 89, 0
2, 47603, Note_on_c, 0, 73, 0
2, 47607, Note_on_c, 0, 65, 0
2, 47607, Note_on_c, 0, 68, 0
2, 47645, Note_on_c, 0, 84, 80
2, 47649, Note_on_c, 0, 75, 80
2, 47649, Note_on_c, 0, 78, 80
2, 47649, Note_on_c, 0, 87, 80
2, 47651, Note_on_c, 0, 57, 80
2, 47651, Note_on_c, 0, 63, 80
2, 47651, Note_on_c, 0, 66, 80
2, 47651, Note_on_c, 0, 72, 80
2, 47655, Note_on_c, 0, 45, 80
2, 47695, Note_on_c, 0, 87, 0
2, 47695, Note_on_c, 0, 78, 0
2, 47695, Note_on_c, 0, 84, 0
2, 47697, Note_on_c, 0, 66, 0
2, 47697, Note_on_c, 0, 72, 0
2, 47697, Note_on_c, 0, 75, 0
2, 47697, Note_on_c, 0, 63, 0
2, 47701, Note_on_c, 0, 45, 0
2, 47701, Note_on_c, 0, 57, 0
2, 47756, Note_on_c, 0, 70, 80
2, 47756, Note_on_c, 0, 77, 80
2, 47756, Note_on_c, 0, 82, 80
2, 47756, Note_on_c, 0, 87, 80
2, 47760, Note_on_c, 0, 46, 80
2, 47760, Note_on_c, 0, 58, 80
2, 47760, Note_on_c, 0, 65, 80
2, 47760, Note_on_c, 0, 75, 80
2, 47779, Note_on_c, 0, 82, 0
2, 47779, Note_on_c, 0, 70, 0
2, 47779, Note_on_c, 0, 77, 0
2, 47779, Control_c, 0, 64, 127
2, 47783, Note_on_c, 0, 65, 0
2, 47800, Note_on_c, 0, 87, 0
2, 47806, Note_on_c, 0, 75, 0
2, 47806, Note_on_c, 0, 58, 0
2, 47806, Note_on_c, 0, 46, 0
2, 47808, Note_on_c, 0, 65, 80
2, 47808, Note_on_c, 0, 70, 80
2, 47808, Note_on_c, 0, 73, 80
2, 47808, Note_on_c, 0, 77, 80
2, 47808, Note_on_c, 0, 82, 80
2, 47808, Note_on_c, 0, 85, 80
2, 47831, Note_on_c, 0, 65, 0
2, 47857, Note_on_c, 0, 73, 0
2, 47857, Note_on_c, 0, 77, 0
2, 47857, Note_on_c, 0, 70, 0
2, 47857, Note_on_c, 0, 85, 0
2, 47857, Note_on_c, 0, 82, 0
2, 47863, Note_on_c, 0, 58, 80
2, 47863, Note_on_c, 0, 61, 80
2, 47863, Note_on_c, 0, 65, 80
2, 47888, Note_on_c, 0, 65, 0
2, 47900, Control_c, 0, 64, 0
2, 47911, Note_on_c, 0, 61, 0
2, 47911, Note_on_c, 0, 58, 0
2, 47913, Note_on_c, 0, 81, 80
2, 47915, Note_on_c, 0, 63, 80
2, 47915, Note_on_c, 0, 65, 80
2, 47915, Note_on_c, 0, 69, 80
2, 47915, Note_on_c, 0, 72, 80
2, 47915, Note_on_c, 0, 75, 80
2, 47915, Note_on_c, 0, 77, 80
2, 47915, Note_on_c, 0, 84, 80
2, 47968, Note_on_c, 0, 48, 80
2, 47968, Note_on_c, 0, 60, 80
2, 48008, Note_on_c, 0, 77, 0
2, 48008, Note_on_c, 0, 81, 0
2, 48012, Note_on_c, 0, 60, 0
2, 48012, Note_on_c, 0, 84, 0
2, 48014, Note_on_c, 0, 75, 0
2, 48014, Note_on_c, 0, 65, 0
2, 48014, Note_on_c, 0, 72, 0
2, 48014, Note_on_c, 0, 48, 0
2, 48014, Note_on_c, 0, 69, 0
2, 48014, Note_on_c, 0, 63, 0
2, 48069, Note_on_c, 0, 49, 80
2, 48069, Note_on_c, 0, 61, 80
2, 48069, Note_on_c, 0, 70, 80
2, 48069, Note_on_c, 0, 73, 80
2, 48069, Note_on_c, 0, 77, 80
2, 48069, Note_on_c, 0, 82, 80
2, 48072, Note_on_c, 0, 65, 80
2, 48115, Note_on_c, 0, 82, 0
2, 48115, Note_on_c, 0, 73, 0
2, 48115, Note_on_c, 0, 61, 0
2, 48115, Note_on_c, 0, 70, 0
2, 48115, Note_on_c, 0, 77, 0
2, 48119, Note_on_c, 0, 49, 0
2, 48119, Note_on_c, 0, 65, 0
2, 48173, Note_on_c, 0, 71, 80
2, 48173, Note_on_c, 0, 77, 80
2, 48173, Note_on_c, 0, 80, 80
2, 48175, Note_on_c, 0, 68, 80
2, 48179, Note_on_c, 0, 50, 80
2, 48179, Note_on_c, 0, 62, 80
2, 48179, Note_on_c, 0, 65, 80
2, 48200, Control_c, 0, 64, 127
2, 48219, Note_on_c, 0, 80, 0
2, 48219, Note_on_c, 0, 77, 0
2, 48223, Note_on_c, 0, 66, 80
2, 48223, Note_on_c, 0, 70, 80
2, 48223, Note_on_c, 0, 78, 80
2, 48225, Note_on_c, 0, 62, 0
2, 48225, Note_on_c, 0, 50, 0
2, 48225, Note_on_c, 0, 71, 0
2, 48225, Note_on_c, 0, 68, 0
2, 48225, Note_on_c, 0, 65, 0
2, 48227, Note_on_c, 0, 75, 80
2, 48271, Note_on_c, 0, 78, 0
2, 48271, Note_on_c, 0, 70, 0
2, 48275, Note_on_c, 0, 66, 0
2, 48275, Note_on_c, 0, 75, 0
2, 48279, Note_on_c, 0, 51, 80
2, 48279, Note_on_c, 0, 63, 80
2, 48330, Note_on_c, 0, 63, 0
2, 48330, Note_on_c, 0, 51, 0
2, 48330, Control_c, 0, 64, 0
2, 48330, Note_on_c, 0, 70, 80
2, 48330, Note_on_c, 0, 72, 80
2, 48330, Note_on_c, 0, 75, 80
2, 48330, Note_on_c, 0, 78, 80
2, 48330, Note_on_c, 0, 90, 80
2, 48332, Note_on_c, 0, 66, 80
2, 48372, Note_on_c, 0, 44, 80
2, 48382, Note_on_c, 0, 56, 80
2, 48403, Note_on_c, 0, 66, 0
2, 48403, Note_on_c, 0, 75, 0
2, 48403, Note_on_c, 0, 70, 0
2, 48403, Note_on_c, 0, 72, 0
2, 48403, Note_on_c, 0, 78, 0
2, 48430, Note_on_c, 0, 90, 0
2, 48430, Note_on_c, 0, 89, 80
2, 48433, Note_on_c, 0, 44, 0
2, 48433, Note_on_c, 0, 56, 0
2, 48433, Note_on_c, 0, 68, 80
2, 48433, Note_on_c, 0, 72, 80
2, 48433, Note_on_c, 0, 77, 80
2, 48437, Note_on_c, 0, 65, 80
2, 48456, Note_on_c, 0, 72, 0
2, 48483, Note_on_c, 0, 77, 0
2, 48483, Note_on_c, 0, 89, 0
2, 48487, Note_on_c, 0, 65, 0
2, 48489, Note_on_c, 0, 56, 80
2, 48489, Note_on_c, 0, 60, 80
2, 48489, Note_on_c, 0, 72, 80
2, 48489, Note_on_c, 0, 75, 80
2, 48489, Note_on_c, 0, 87, 80
2, 48491, Note_on_c, 0, 63, 80
2, 48491, Note_on_c, 0, 66, 80
2, 48540, Note_on_c, 0, 66, 0
2, 48540, Note_on_c, 0, 68, 0
2, 48540, Note_on_c, 0, 75, 0
2, 48540, Note_on_c, 0, 56, 0
2, 48540, Note_on_c, 0, 60, 0
2, 48540, Note_on_c, 0, 72, 0
2, 48540, Note_on_c, 0, 87, 0
2, 48540, Note_on_c, 0, 63, 0
2, 48604, Note_on_c, 0, 53, 80
2, 48604, Note_on_c, 0, 56, 80
2, 48604, Note_on_c, 0, 61, 80
2, 48604, Note_on_c, 0, 73, 80
2, 48604, Note_on_c, 0, 77, 80
2, 48604, Note_on_c, 0, 85, 80
2, 48606, Note_on_c, 0, 68, 80
2, 48608, Note_on_c, 0, 65, 80
2, 48627, Control_c, 0, 64, 127
2, 48650, Note_on_c, 0, 68, 0
2, 48650, Note_on_c, 0, 73, 0
2, 48650, Note_on_c, 0, 77, 0
2, 48650, Note_on_c, 0, 56, 0
2, 48650, Note_on_c, 0, 61, 0
2, 48650, Note_on_c, 0, 53, 0
2, 48650, Note_on_c, 0, 85, 0
2, 48654, Note_on_c, 0, 65, 0
2, 48707, Note_on_c, 0, 56, 80
2, 48709, Note_on_c, 0, 44, 80
2, 48730, Control_c, 0, 64, 0
2, 48755, Note_on_c, 0, 56, 0
2, 48757, Note_on_c, 0, 44, 0
2, 48808, Note_on_c, 0, 61, 80
2, 48808, Note_on_c, 0, 73, 80
2, 48808, Note_on_c, 0, 77, 80
2, 48808, Note_on_c, 0, 85, 80
2, 48808, Note_on_c, 0, 89, 80
2, 48810, Note_on_c, 0, 68, 80
2, 48810, Note_on_c, 0, 97, 80
2, 48812, Note_on_c, 0, 37, 80
2, 48812, Note_on_c, 0, 56, 80
2, 48814, Note_on_c, 0, 49, 80
2, 48854, Note_on_c, 0, 97, 0
2, 48854, Note_on_c, 0, 85, 0
2, 48854, Note_on_c, 0, 61, 0
2, 48854, Note_on_c, 0, 89, 0
2, 48858, Note_on_c, 0, 73, 0
2, 48858, Note_on_c, 0, 56, 0
2, 48858, Note_on_c, 0, 77, 0
2, 48860, Note_on_c, 0, 37, 0
2, 48860, Note_on_c, 0, 49, 0
2, 48860, Note_on_c, 0, 68, 0
2, 49015, Note_on_c, 0, 87, 80
2, 49021, Note_on_c, 0, 75, 80
2, 49044, Control_c, 0, 64, 127
2, 49061, Note_on_c, 0, 87, 0
2, 49067, Note_on_c, 0, 75, 0
2, 49069, Note_on_c, 0, 76, 80
2, 49069, Note_on_c, 0, 88, 80
2, 49118, Note_on_c, 0, 88, 0
2, 49118, Note_on_c, 0, 76, 0
2, 49145, Control_c, 0, 64, 0
2, 49174, Note_on_c, 0, 77, 80
2, 49174, Note_on_c, 0, 89, 80
2, 49253, Note_on_c, 0, 89, 0
2, 49253, Note_on_c, 0, 77, 0
2, 49286, Note_on_c, 0, 75, 80
2, 49286, Note_on_c, 0, 87, 80
2, 49332, Note_on_c, 0, 87, 0
2, 49336, Note_on_c, 0, 75, 0
2, 49338, Note_on_c, 0, 73, 80
2, 49338, Note_on_c, 0, 85, 80
2, 49382, Note_on_c, 0, 85, 0
2, 49382, Note_on_c, 0, 73, 0
2, 49388, Note_on_c, 0, 84, 80
2, 49390, Note_on_c, 0, 72, 80
2, 49434, Note_on_c, 0, 72, 0
2, 49434, Note_on_c, 0, 84, 0
2, 49441, Note_on_c, 0, 70, 80
2, 49441, Note_on_c, 0, 82, 80
2, 49466, Control_c, 0, 64, 127
2, 49486, Note_on_c, 0, 82, 0
2, 49486, Note_on_c, 0, 70, 0
2, 49489, Note_on_c, 0, 80, 80
2, 49493, Note_on_c, 0, 68, 80
2, 49539, Note_on_c, 0, 68, 0
2, 49539, Note_on_c, 0, 80, 0
2, 49584, Control_c, 0, 64, 0
2, 49599, Note_on_c, 0, 67, 80
2, 49599, Note_on_c, 0, 79, 80
2, 49671, Note_on_c, 0, 79, 0
2, 49677, Note_on_c, 0, 67, 0
2, 49704, Note_on_c, 0, 70, 80
2, 49704, Note_on_c, 0, 82, 80
2, 49750, Note_on_c, 0, 82, 0
2, 49752, Note_on_c, 0, 70, 0
2, 49753, Note_on_c, 0, 77, 80
2, 49757, Note_on_c, 0, 65, 80
2, 49803, Note_on_c, 0, 77, 0
2, 49807, Note_on_c, 0, 65, 0
2, 49862, Note_on_c, 0, 63, 80
2, 49862, Note_on_c, 0, 75, 80
2, 49889, Control_c, 0, 64, 127
2, 49912, Note_on_c, 0, 63, 0
2, 49970, Note_on_c, 0, 67, 80
2, 49974, Note_on_c, 0, 39, 80
2, 49974, Note_on_c, 0, 51, 80
2, 49974, Note_on_c, 0, 58, 80
2, 49974, Note_on_c, 0, 63, 80
2, 50018, Note_on_c, 0, 58, 0
2, 50018, Note_on_c, 0, 67, 0
2, 50022, Note_on_c, 0, 51, 0
2, 50022, Note_on_c, 0, 39, 0
2, 50022, Control_c, 0, 64, 0
2, 50081, Note_on_c, 0, 39, 80
2, 50081, Note_on_c, 0, 51, 80
2, 50081, Note_on_c, 0, 59, 80
2, 50081, Note_on_c, 0, 65, 80
2, 50081, Note_on_c, 0, 68, 80
2, 50100, Note_on_c, 0, 51, 0
2, 50100, Note_on_c, 0, 39, 0
2, 50127, Note_on_c, 0, 65, 0
2, 50127, Note_on_c, 0, 59, 0
2, 50127, Note_on_c, 0, 68, 0
2, 50127, Note_on_c, 0, 60, 80
2, 50127, Note_on_c, 0, 66, 80
2, 50127, Note_on_c, 0, 69, 80
2, 50133, Note_on_c, 0, 39, 80
2, 50133, Note_on_c, 0, 51, 80
2, 50175, Note_on_c, 0, 39, 0
2, 50175, Note_on_c, 0, 66, 0
2, 50175, Note_on_c, 0, 60, 0
2, 50175, Note_on_c, 0, 69, 0
2, 50179, Note_on_c, 0, 51, 0
2, 50232, Note_on_c, 0, 39, 80
2, 50232, Note_on_c, 0, 51, 80
2, 50232, Note_on_c, 0, 61, 80
2, 50232, Note_on_c, 0, 67, 80
2, 50232, Note_on_c, 0, 70, 80
2, 50305, Control_c, 0, 64, 127
2, 50327, Note_on_c, 0, 63, 0
2, 50327, Note_on_c, 0, 75, 0
2, 50338, Note_on_c, 0, 67, 0
2, 50338, Note_on_c, 0, 61, 0
2, 50338, Note_on_c, 0, 70, 0
2, 50342, Note_on_c, 0, 51, 0
2, 50342, Note_on_c, 0, 39, 0
2, 50384, Note_on_c, 0, 63, 80
2, 50384, Note_on_c, 0, 75, 80
2, 50423, Control_c, 0, 64, 0
2, 50432, Note_on_c, 0, 75, 0
2, 50434, Note_on_c, 0, 63, 0
2, 50436, Note_on_c, 0, 74, 80
2, 50440, Note_on_c, 0, 62, 80
2, 50484, Note_on_c, 0, 62, 0
2, 50484, Note_on_c, 0, 74, 0
2, 50486, Note_on_c, 0, 63, 80
2, 50490, Note_on_c, 0, 75, 80
2, 50539, Note_on_c, 0, 75, 0
2, 50541, Note_on_c, 0, 63, 0
2, 50541, Note_on_c, 0, 62, 80
2, 50541, Note_on_c, 0, 74, 80
2, 50590, Note_on_c, 0, 62, 0
2, 50592, Note_on_c, 0, 63, 80
2, 50595, Note_on_c, 0, 75, 80
2, 50601, Note_on_c, 0, 74, 0
2, 50643, Note_on_c, 0, 63, 0
2, 50645, Note_on_c, 0, 64, 80
2, 50647, Note_on_c, 0, 76, 80
2, 50655, Note_on_c, 0, 75, 0
2, 50688, Note_on_c, 0, 46, 80
2, 50693, Note_on_c, 0, 76, 0
2, 50697, Note_on_c, 0, 64, 0
2, 50697, Note_on_c, 0, 77, 80
2, 50701, Note_on_c, 0, 58, 80
2, 50701, Note_on_c, 0, 61, 80
2, 50701, Note_on_c, 0, 65, 80
2, 50701, Note_on_c, 0, 67, 80
2, 50701, Note_on_c, 0, 73, 80
2, 50724, Control_c, 0, 64, 127
2, 50745, Note_on_c, 0, 61, 0
2, 50749, Note_on_c, 0, 58, 0
2, 50751, Note_on_c, 0, 46, 0
2, 50800, Note_on_c, 0, 77, 0
2, 50804, Note_on_c, 0, 89, 80
2, 50806, Note_on_c, 0, 55, 80
2, 50806, Note_on_c, 0, 61, 80
2, 50809, Note_on_c, 0, 51, 80
2, 50831, Control_c, 0, 64, 0
2, 50856, Note_on_c, 0, 55, 0
2, 50856, Note_on_c, 0, 77, 80
2, 50856, Note_on_c, 0, 82, 80
2, 50857, Note_on_c, 0, 51, 0
2, 50859, Note_on_c, 0, 85, 80
2, 50908, Note_on_c, 0, 82, 0
2, 50910, Note_on_c, 0, 51, 80
2, 50916, Note_on_c, 0, 39, 80
2, 50956, Note_on_c, 0, 85, 0
2, 50956, Note_on_c, 0, 89, 0
2, 50956, Note_on_c, 0, 73, 0
2, 50956, Note_on_c, 0, 61, 0
2, 50956, Note_on_c, 0, 77, 0
2, 50960, Note_on_c, 0, 67, 0
2, 50960, Note_on_c, 0, 82, 80
2, 50962, Note_on_c, 0, 51, 0
2, 50964, Note_on_c, 0, 39, 0
2, 51013, Note_on_c, 0, 61, 80
2, 51013, Note_on_c, 0, 77, 80
2, 51017, Note_on_c, 0, 55, 80
2, 51017, Note_on_c, 0, 73, 80
2, 51019, Note_on_c, 0, 51, 80
2, 51019, Note_on_c, 0, 70, 80
2, 51068, Note_on_c, 0, 70, 0
2, 51068, Note_on_c, 0, 73, 0
2, 51068, Note_on_c, 0, 77, 0
2, 51068, Note_on_c, 0, 82, 0
2, 51068, Note_on_c, 0, 55, 0
2, 51072, Note_on_c, 0, 65, 0
2, 51072, Note_on_c, 0, 51, 0
2, 51112, Note_on_c, 0, 46, 80
2, 51123, Note_on_c, 0, 70, 80
2, 51123, Note_on_c, 0, 73, 80
2, 51123, Note_on_c, 0, 77, 80
2, 51125, Note_on_c, 0, 58, 80
2, 51127, Note_on_c, 0, 65, 80
2, 51148, Control_c, 0, 64, 127
2, 51168, Note_on_c, 0, 61, 0
2, 51171, Note_on_c, 0, 77, 0
2, 51171, Note_on_c, 0, 70, 0
2, 51171, Note_on_c, 0, 73, 0
2, 51171, Note_on_c, 0, 58, 0
2, 51175, Note_on_c, 0, 46, 0
2, 51175, Note_on_c, 0, 65, 0
2, 51226, Note_on_c, 0, 51, 80
2, 51226, Note_on_c, 0, 55, 80
2, 51226, Note_on_c, 0, 63, 80
2, 51226, Note_on_c, 0, 75, 80
2, 51230, Note_on_c, 0, 61, 80
2, 51249, Control_c, 0, 64, 0
2, 51274, Note_on_c, 0, 61, 0
2, 51274, Note_on_c, 0, 63, 0
2, 51274, Note_on_c, 0, 75, 0
2, 51276, Note_on_c, 0, 74, 80
2, 51278, Note_on_c, 0, 55, 0
2, 51278, Note_on_c, 0, 51, 0
2, 51280, Note_on_c, 0, 62, 80
2, 51326, Note_on_c, 0, 62, 0
2, 51326, Note_on_c, 0, 74, 0
2, 51328, Note_on_c, 0, 75, 80
2, 51330, Note_on_c, 0, 51, 80
2, 51330, Note_on_c, 0, 63, 80
2, 51383, Note_on_c, 0, 63, 0
2, 51383, Note_on_c, 0, 51, 0
2, 51383, Note_on_c, 0, 75, 0
2, 51384, Note_on_c, 0, 62, 80
2, 51386, Note_on_c, 0, 74, 80
2, 51429, Note_on_c, 0, 49, 80
2, 51434, Note_on_c, 0, 74, 0
2, 51436, Note_on_c, 0, 62, 0
2, 51438, Note_on_c, 0, 61, 80
2, 51438, Note_on_c, 0, 75, 80
2, 51440, Note_on_c, 0, 63, 80
2, 51482, Note_on_c, 0, 61, 0
2, 51484, Note_on_c, 0, 63, 0
2, 51486, Note_on_c, 0, 75, 0
2, 51486, Note_on_c, 0, 49, 0
2, 51490, Note_on_c, 0, 64, 80
2, 51490, Note_on_c, 0, 76, 80
2, 51536, Note_on_c, 0, 76, 0
2, 51536, Note_on_c, 0, 64, 0
2, 51540, Note_on_c, 0, 48, 80
2, 51540, Note_on_c, 0, 72, 80
2, 51540, Note_on_c, 0, 77, 80
2, 51542, Note_on_c, 0, 60, 80
2, 51542, Note_on_c, 0, 65, 80
2, 51542, Note_on_c, 0, 68, 80
2, 51563, Control_c, 0, 64, 127
2, 51588, Note_on_c, 0, 60, 0
2, 51588, Note_on_c, 0, 48, 0
2, 51639, Note_on_c, 0, 77, 0
2, 51641, Note_on_c, 0, 56, 80
2, 51641, Note_on_c, 0, 60, 80
2, 51641, Note_on_c, 0, 89, 80
2, 51643, Note_on_c, 0, 51, 80
2, 51650, Control_c, 0, 64, 0
2, 51689, Note_on_c, 0, 77, 80
2, 51689, Note_on_c, 0, 80, 80
2, 51689, Note_on_c, 0, 84, 80
2, 51691, Note_on_c, 0, 51, 0
2, 51691, Note_on_c, 0, 56, 0
2, 51744, Note_on_c, 0, 39, 80
2, 51744, Note_on_c, 0, 51, 80
2, 51753, Note_on_c, 0, 84, 0
2, 51788, Note_on_c, 0, 84, 80
2, 51790, Note_on_c, 0, 80, 0
2, 51792, Note_on_c, 0, 77, 0
2, 51792, Note_on_c, 0, 60, 0
2, 51792, Note_on_c, 0, 72, 0
2, 51792, Note_on_c, 0, 89, 0
2, 51795, Note_on_c, 0, 39, 0
2, 51795, Note_on_c, 0, 51, 0
2, 51841, Note_on_c, 0, 80, 80
2, 51843, Note_on_c, 0, 72, 80
2, 51843, Note_on_c, 0, 77, 80
2, 51845, Note_on_c, 0, 51, 80
2, 51845, Note_on_c, 0, 56, 80
2, 51847, Note_on_c, 0, 60, 80
2, 51891, Note_on_c, 0, 68, 0
2, 51893, Note_on_c, 0, 56, 0
2, 51893, Note_on_c, 0, 80, 0
2, 51893, Note_on_c, 0, 84, 0
2, 51893, Note_on_c, 0, 77, 0
2, 51895, Note_on_c, 0, 72, 0
2, 51897, Note_on_c, 0, 60, 0
2, 51899, Note_on_c, 0, 65, 0
2, 51899, Note_on_c, 0, 51, 0
2, 51937, Note_on_c, 0, 48, 80
2, 51951, Note_on_c, 0, 60, 80
2, 51951, Note_on_c, 0, 72, 80
2, 51951, Note_on_c, 0, 77, 80
2, 51955, Note_on_c, 0, 65, 80
2, 51955, Note_on_c, 0, 68, 80
2, 51976, Control_c, 0, 64, 127
2, 51997, Note_on_c, 0, 60, 0
2, 51999, Note_on_c, 0, 77, 0
2, 51999, Note_on_c, 0, 72, 0
2, 52003, Note_on_c, 0, 48, 0
2, 52003, Note_on_c, 0, 65, 0
2, 52003, Note_on_c, 0, 68, 0
2, 52057, Note_on_c, 0, 51, 80
2, 52057, Note_on_c, 0, 56, 80
2, 52057, Note_on_c, 0, 60, 80
2, 52057, Note_on_c, 0, 63, 80
2, 52057, Note_on_c, 0, 75, 80
2, 52084, Control_c, 0, 64, 0
2, 52105, Note_on_c, 0, 75, 0
2, 52109, Note_on_c, 0, 56, 0
2, 52111, Note_on_c, 0, 51, 0
2, 52111, Note_on_c, 0, 63, 0
2, 52111, Note_on_c, 0, 62, 80
2, 52113, Note_on_c, 0, 74, 80
2, 52155, Note_on_c, 0, 46, 80
2, 52161, Note_on_c, 0, 74, 0
2, 52165, Note_on_c, 0, 62, 0
2, 52167, Note_on_c, 0, 75, 80
2, 52169, Note_on_c, 0, 58, 80
2, 52169, Note_on_c, 0, 63, 80
2, 52220, Note_on_c, 0, 58, 0
2, 52220, Note_on_c, 0, 75, 0
2, 52220, Note_on_c, 0, 46, 0
2, 52222, Note_on_c, 0, 63, 0
2, 52224, Note_on_c, 0, 62, 80
2, 52224, Note_on_c, 0, 74, 80
2, 52282, Note_on_c, 0, 44, 80
2, 52284, Note_on_c, 0, 56, 80
2, 52284, Note_on_c, 0, 63, 80
2, 52284, Note_on_c, 0, 75, 80
2, 52294, Note_on_c, 0, 74, 0
2, 52294, Note_on_c, 0, 62, 0
2, 52330, Note_on_c, 0, 56, 0
2, 52332, Note_on_c, 0, 75, 0
2, 52334, Note_on_c, 0, 77, 80
2, 52336, Note_on_c, 0, 44, 0
2, 52340, Note_on_c, 0, 65, 80
2, 52359, Note_on_c, 0, 63, 0
2, 52390, Note_on_c, 0, 55, 80
2, 52390, Note_on_c, 0, 72, 80
2, 52390, Note_on_c, 0, 75, 80
2, 52390, Note_on_c, 0, 79, 80
2, 52392, Note_on_c, 0, 43, 80
2, 52392, Note_on_c, 0, 67, 80
2, 52411, Note_on_c, 0, 77, 0
2, 52415, Note_on_c, 0, 65, 0
2, 52415, Control_c, 0, 64, 127
2, 52436, Note_on_c, 0, 55, 0
2, 52436, Note_on_c, 0, 60, 0
2, 52441, Note_on_c, 0, 91, 80
2, 52443, Note_on_c, 0, 43, 0
2, 52494, Note_on_c, 0, 55, 80
2, 52494, Note_on_c, 0, 60, 80
2, 52494, Note_on_c, 0, 63, 80
2, 52494, Note_on_c, 0, 87, 80
2, 52515, Note_on_c, 0, 91, 0
2, 52515, Control_c, 0, 64, 0
2, 52542, Note_on_c, 0, 79, 0
2, 52542, Note_on_c, 0, 84, 80
2, 52565, Note_on_c, 0, 87, 0
2, 52596, Note_on_c, 0, 75, 0
2, 52596, Note_on_c, 0, 79, 80
2, 52621, Note_on_c, 0, 84, 0
2, 52648, Note_on_c, 0, 60, 0
2, 52648, Note_on_c, 0, 55, 0
2, 52648, Note_on_c, 0, 72, 0
2, 52648, Note_on_c, 0, 63, 0
2, 52652, Note_on_c, 0, 75, 80
2, 52671, Note_on_c, 0, 79, 0
2, 52692, Note_on_c, 0, 48, 80
2, 52700, Note_on_c, 0, 67, 0
2, 52702, Note_on_c, 0, 60, 80
2, 52702, Note_on_c, 0, 72, 80
2, 52727, Note_on_c, 0, 75, 0
2, 52750, Note_on_c, 0, 48, 0
2, 52752, Note_on_c, 0, 60, 0
2, 52752, Note_on_c, 0, 67, 80
2, 52776, Note_on_c, 0, 72, 0
2, 52807, Note_on_c, 0, 67, 0
2, 52807, Note_on_c, 0, 80, 80
2, 52809, Note_on_c, 0, 50, 80
2, 52809, Note_on_c, 0, 62, 80
2, 52809, Note_on_c, 0, 68, 80
2, 52809, Note_on_c, 0, 71, 80
2, 52809, Note_on_c, 0, 74, 80
2, 52809, Note_on_c, 0, 77, 80
2, 52832, Control_c, 0, 64, 127
2, 52853, Note_on_c, 0, 80, 0
2, 52855, Note_on_c, 0, 74, 0
2, 52855, Note_on_c, 0, 68, 0
2, 52855, Note_on_c, 0, 77, 0
2, 52857, Note_on_c, 0, 50, 0
2, 52857, Note_on_c, 0, 71, 0
2, 52857, Note_on_c, 0, 62, 0
2, 52914, Note_on_c, 0, 67, 80
2, 52914, Note_on_c, 0, 71, 80
2, 52918, Note_on_c, 0, 55, 80
2, 52918, Note_on_c, 0, 59, 80
2, 52918, Note_on_c, 0, 65, 80
2, 52918, Note_on_c, 0, 77, 80
2, 52918, Note_on_c, 0, 79, 80
2, 52935, Control_c, 0, 64, 0
2, 52960, Note_on_c, 0, 77, 0
2, 52960, Note_on_c, 0, 71, 0
2, 52962, Note_on_c, 0, 67, 0
2, 52962, Note_on_c, 0, 79, 0
2, 52964, Note_on_c, 0, 55, 0
2, 52966, Note_on_c, 0, 65, 0
2, 52966, Note_on_c, 0, 59, 0
2, 53018, Note_on_c, 0, 66, 80
2, 53018, Note_on_c, 0, 71, 80
2, 53022, Note_on_c, 0, 43, 80
2, 53022, Note_on_c, 0, 55, 80
2, 53022, Note_on_c, 0, 77, 80
2, 53022, Note_on_c, 0, 78, 80
2, 53068, Note_on_c, 0, 78, 0
2, 53070, Note_on_c, 0, 55, 0
2, 53072, Note_on_c, 0, 67, 80
2, 53072, Note_on_c, 0, 79, 80
2, 53074, Note_on_c, 0, 43, 0
2, 53097, Note_on_c, 0, 67, 0
2, 53097, Note_on_c, 0, 66, 0
2, 53124, Note_on_c, 0, 67, 80
2, 53128, Note_on_c, 0, 55, 80
2, 53128, Note_on_c, 0, 59, 80
2, 53128, Note_on_c, 0, 65, 80
2, 53147, Note_on_c, 0, 71, 0
2, 53147, Note_on_c, 0, 77, 0
2, 53149, Note_on_c, 0, 79, 0
2, 53172, Note_on_c, 0, 84, 80
2, 53174, Note_on_c, 0, 55, 0
2, 53176, Note_on_c, 0, 59, 0
2, 53176, Note_on_c, 0, 67, 0
2, 53176, Note_on_c, 0, 65, 0
2, 53176, Note_on_c, 0, 72, 80
2, 53176, Note_on_c, 0, 75, 80
2, 53231, Note_on_c, 0, 48, 80
2, 53231, Note_on_c, 0, 60, 80
2, 53256, Control_c, 0, 64, 127
2, 53277, Note_on_c, 0, 60, 0
2, 53277, Note_on_c, 0, 84, 0
2, 53279, Note_on_c, 0, 72, 0
2, 53279, Note_on_c, 0, 75, 0
2, 53279, Note_on_c, 0, 48, 0
2, 53331, Note_on_c, 0, 66, 80
2, 53335, Note_on_c, 0, 54, 80
2, 53360, Control_c, 0, 64, 0
2, 53383, Note_on_c, 0, 66, 0
2, 53385, Note_on_c, 0, 67, 80
2, 53387, Note_on_c, 0, 54, 0
2, 53389, Note_on_c, 0, 55, 80
2, 53467, Note_on_c, 0, 55, 0
2, 53467, Note_on_c, 0, 67, 0
2, 53492, Note_on_c, 0, 62, 80
2, 53494, Note_on_c, 0, 50, 80
2, 53540, Note_on_c, 0, 62, 0
2, 53542, Note_on_c, 0, 50, 0
2, 53542, Note_on_c, 0, 63, 80
2, 53545, Note_on_c, 0, 51, 80
2, 53592, Note_on_c, 0, 63, 0
2, 53595, Note_on_c, 0, 51, 0
2, 53652, Note_on_c, 0, 48, 80
2, 53652, Note_on_c, 0, 60, 80
2, 53671, Control_c, 0, 64, 127
2, 53698, Note_on_c, 0, 60, 0
2, 53698, Note_on_c, 0, 48, 0
2, 53753, Note_on_c, 0, 63, 80
2, 53753, Note_on_c, 0, 75, 80
2, 53778, Control_c, 0, 64, 0
2, 53799, Note_on_c, 0, 63, 0
2, 53801, Note_on_c, 0, 75, 0
2, 53803, Note_on_c, 0, 62, 80
2, 53805, Note_on_c, 0, 74, 80
2, 53851, Note_on_c, 0, 74, 0
2, 53853, Note_on_c, 0, 63, 80
2, 53853, Note_on_c, 0, 75, 80
2, 53855, Note_on_c, 0, 62, 0
2, 53904, Note_on_c, 0, 63, 0
2, 53905, Note_on_c, 0, 75, 0
2, 53905, Note_on_c, 0, 74, 80
2, 53907, Note_on_c, 0, 62, 80
2, 53953, Note_on_c, 0, 62, 0
2, 53955, Note_on_c, 0, 74, 0
2, 53957, Note_on_c, 0, 63, 80
2, 53957, Note_on_c, 0, 75, 80
2, 54001, Note_on_c, 0, 75, 0
2, 54003, Note_on_c, 0, 63, 0
2, 54005, Note_on_c, 0, 76, 80
2, 54007, Note_on_c, 0, 64, 80
2, 54051, Note_on_c, 0, 76, 0
2, 54055, Note_on_c, 0, 77, 80
2, 54057, Note_on_c, 0, 64, 0
2, 54059, Note_on_c, 0, 46, 80
2, 54059, Note_on_c, 0, 58, 80
2, 54059, Note_on_c, 0, 61, 80
2, 54059, Note_on_c, 0, 65, 80
2, 54059, Note_on_c, 0, 67, 80
2, 54059, Note_on_c, 0, 73, 80
2, 54082, Control_c, 0, 64, 127
2, 54099, Note_on_c, 0, 61, 0
2, 54103, Note_on_c, 0, 58, 0
2, 54103, Note_on_c, 0, 46, 0
2, 54154, Note_on_c, 0, 77, 0
2, 54156, Note_on_c, 0, 89, 80
2, 54158, Note_on_c, 0, 55, 80
2, 54158, Note_on_c, 0, 61, 80
2, 54162, Note_on_c, 0, 51, 80
2, 54181, Control_c, 0, 64, 0
2, 54204, Note_on_c, 0, 55, 0
2, 54206, Note_on_c, 0, 77, 80
2, 54206, Note_on_c, 0, 82, 80
2, 54206, Note_on_c, 0, 85, 80
2, 54208, Note_on_c, 0, 51, 0
2, 54261, Note_on_c, 0, 39, 80
2, 54261, Note_on_c, 0, 51, 80
2, 54268, Note_on_c, 0, 82, 0
2, 54307, Note_on_c, 0, 39, 0
2, 54307, Note_on_c, 0, 89, 0
2, 54307, Note_on_c, 0, 85, 0
2, 54307, Note_on_c, 0, 61, 0
2, 54307, Note_on_c, 0, 73, 0
2, 54307, Note_on_c, 0, 77, 0
2, 54309, Note_on_c, 0, 82, 80
2, 54311, Note_on_c, 0, 51, 0
2, 54361, Note_on_c, 0, 61, 80
2, 54361, Note_on_c, 0, 73, 80
2, 54361, Note_on_c, 0, 77, 80
2, 54365, Note_on_c, 0, 51, 80
2, 54365, Note_on_c, 0, 55, 80
2, 54365, Note_on_c, 0, 70, 80
2, 54411, Note_on_c, 0, 70, 0
2, 54411, Note_on_c, 0, 77, 0
2, 54411, Note_on_c, 0, 82, 0
2, 54411, Note_on_c, 0, 73, 0
2, 54411, Note_on_c, 0, 65, 0
2, 54415, Note_on_c, 0, 67, 0
2, 54415, Note_on_c, 0, 55, 0
2, 54415, Note_on_c, 0, 51, 0
2, 54464, Note_on_c, 0, 46, 80
2, 54470, Note_on_c, 0, 70, 80
2, 54470, Note_on_c, 0, 73, 80
2, 54470, Note_on_c, 0, 77, 80
2, 54472, Note_on_c, 0, 58, 80
2, 54472, Note_on_c, 0, 65, 80
2, 54499, Control_c, 0, 64, 127
2, 54522, Note_on_c, 0, 58, 0
2, 54522, Note_on_c, 0, 73, 0
2, 54522, Note_on_c, 0, 61, 0
2, 54522, Note_on_c, 0, 70, 0
2, 54522, Note_on_c, 0, 77, 0
2, 54528, Note_on_c, 0, 46, 0
2, 54528, Note_on_c, 0, 65, 0
2, 54578, Note_on_c, 0, 61, 80
2, 54582, Note_on_c, 0, 51, 80
2, 54582, Note_on_c, 0, 55, 80
2, 54584, Note_on_c, 0, 63, 80
2, 54584, Note_on_c, 0, 75, 80
2, 54609, Control_c, 0, 64, 0
2, 54630, Note_on_c, 0, 75, 0
2, 54630, Note_on_c, 0, 61, 0
2, 54632, Note_on_c, 0, 63, 0
2, 54632, Note_on_c, 0, 55, 0
2, 54634, Note_on_c, 0, 62, 80
2, 54634, Note_on_c, 0, 74, 80
2, 54636, Note_on_c, 0, 51, 0
2, 54685, Note_on_c, 0, 74, 0
2, 54689, Note_on_c, 0, 62, 0
2, 54691, Note_on_c, 0, 51, 80
2, 54691, Note_on_c, 0, 63, 80
2, 54691, Note_on_c, 0, 75, 80
2, 54742, Note_on_c, 0, 75, 0
2, 54742, Note_on_c, 0, 63, 0
2, 54744, Note_on_c, 0, 62, 80
2, 54745, Note_on_c, 0, 51, 0
2, 54745, Note_on_c, 0, 74, 80
2, 54796, Note_on_c, 0, 62, 0
2, 54798, Note_on_c, 0, 74, 0
2, 54798, Note_on_c, 0, 61, 80
2, 54798, Note_on_c, 0, 75, 80
2, 54800, Note_on_c, 0, 63, 80
2, 54802, Note_on_c, 0, 49, 80
2, 54848, Note_on_c, 0, 63, 0
2, 54848, Note_on_c, 0, 61, 0
2, 54852, Note_on_c, 0, 75, 0
2, 54852, Note_on_c, 0, 49, 0
2, 54852, Note_on_c, 0, 64, 80
2, 54856, Note_on_c, 0, 76, 80
2, 54907, Note_on_c, 0, 76, 0
2, 54907, Note_on_c, 0, 64, 0
2, 54909, Note_on_c, 0, 60, 80
2, 54909, Note_on_c, 0, 65, 80
2, 54909, Note_on_c, 0, 68, 80
2, 54909, Note_on_c, 0, 72, 80
2, 54909, Note_on_c, 0, 77, 80
2, 54912, Note_on_c, 0, 48, 80
2, 54936, Control_c, 0, 64, 127
2, 54959, Note_on_c, 0, 60, 0
2, 55005, Note_on_c, 0, 77, 0
2, 55007, Note_on_c, 0, 89, 80
2, 55008, Note_on_c, 0, 60, 80
2, 55012, Note_on_c, 0, 51, 80
2, 55012, Note_on_c, 0, 56, 80
2, 55020, Note_on_c, 0, 48, 0
2, 55030, Control_c, 0, 64, 0
2, 55055, Note_on_c, 0, 56, 0
2, 55055, Note_on_c, 0, 51, 0
2, 55055, Note_on_c, 0, 80, 80
2, 55056, Note_on_c, 0, 77, 80
2, 55056, Note_on_c, 0, 84, 80
2, 55103, Note_on_c, 0, 84, 0
2, 55110, Note_on_c, 0, 39, 80
2, 55110, Note_on_c, 0, 51, 80
2, 55156, Note_on_c, 0, 51, 0
2, 55156, Note_on_c, 0, 72, 0
2, 55156, Note_on_c, 0, 39, 0
2, 55156, Note_on_c, 0, 89, 0
2, 55156, Note_on_c, 0, 60, 0
2, 55156, Note_on_c, 0, 84, 80
2, 55166, Note_on_c, 0, 77, 0
2, 55166, Note_on_c, 0, 80, 0
2, 55210, Note_on_c, 0, 51, 80
2, 55210, Note_on_c, 0, 77, 80
2, 55210, Note_on_c, 0, 80, 80
2, 55212, Note_on_c, 0, 60, 80
2, 55212, Note_on_c, 0, 72, 80
2, 55214, Note_on_c, 0, 56, 80
2, 55256, Note_on_c, 0, 72, 0
2, 55256, Note_on_c, 0, 60, 0
2, 55256, Note_on_c, 0, 68, 0
2, 55256, Note_on_c, 0, 77, 0
2, 55256, Note_on_c, 0, 80, 0
2, 55260, Note_on_c, 0, 51, 0
2, 55260, Note_on_c, 0, 56, 0
2, 55260, Note_on_c, 0, 65, 0
2, 55272, Note_on_c, 0, 84, 0
2, 55306, Note_on_c, 0, 48, 80
2, 55316, Note_on_c, 0, 60, 80
2, 55316, Note_on_c, 0, 77, 80
2, 55318, Note_on_c, 0, 65, 80
2, 55318, Note_on_c, 0, 72, 80
2, 55320, Note_on_c, 0, 68, 80
2, 55343, Control_c, 0, 64, 127
2, 55366, Note_on_c, 0, 68, 0
2, 55366, Note_on_c, 0, 60, 0
2, 55366, Note_on_c, 0, 77, 0
2, 55366, Note_on_c, 0, 65, 0
2, 55366, Note_on_c, 0, 72, 0
2, 55369, Note_on_c, 0, 48, 0
2, 55426, Note_on_c, 0, 63, 80
2, 55426, Note_on_c, 0, 75, 80
2, 55463, Control_c, 0, 64, 0
2, 55472, Note_on_c, 0, 75, 0
2, 55474, Note_on_c, 0, 63, 0
2, 55474, Note_on_c, 0, 74, 80
2, 55480, Note_on_c, 0, 62, 80
2, 55524, Note_on_c, 0, 74, 0
2, 55530, Note_on_c, 0, 62, 0
2, 55534, Note_on_c, 0, 63, 80
2, 55534, Note_on_c, 0, 75, 80
2, 55580, Note_on_c, 0, 75, 0
2, 55582, Note_on_c, 0, 63, 0
2, 55584, Note_on_c, 0, 64, 80
2, 55584, Note_on_c, 0, 76, 80
2, 55632, Note_on_c, 0, 76, 0
2, 55636, Note_on_c, 0, 64, 0
2, 55638, Note_on_c, 0, 77, 80
2, 55640, Note_on_c, 0, 65, 80
2, 55682, Note_on_c, 0, 77, 0
2, 55688, Note_on_c, 0, 65, 0
2, 55690, Note_on_c, 0, 66, 80
2, 55690, Note_on_c, 0, 78, 80
2, 55732, Note_on_c, 0, 50, 80
2, 55736, Note_on_c, 0, 78, 0
2, 55738, Note_on_c, 0, 66, 0
2, 55740, Note_on_c, 0, 71, 80
2, 55740, Note_on_c, 0, 79, 80
2, 55742, Note_on_c, 0, 67, 80
2, 55742, Note_on_c, 0, 68, 80
2, 55744, Note_on_c, 0, 62, 80
2, 55744, Note_on_c, 0, 74, 80
2, 55763, Note_on_c, 0, 71, 0
2, 55765, Note_on_c, 0, 68, 0
2, 55765, Note_on_c, 0, 74, 0
2, 55765, Control_c, 0, 64, 127
2, 55788, Note_on_c, 0, 79, 0
2, 55792, Note_on_c, 0, 50, 0
2, 55792, Note_on_c, 0, 67, 0
2, 55792, Note_on_c, 0, 71, 80
2, 55794, Note_on_c, 0, 68, 80
2, 55794, Note_on_c, 0, 74, 80
2, 55794, Note_on_c, 0, 77, 80
2, 55798, Note_on_c, 0, 65, 80
2, 55817, Note_on_c, 0, 65, 0
2, 55838, Note_on_c, 0, 71, 0
2, 55838, Note_on_c, 0, 77, 0
2, 55840, Note_on_c, 0, 74, 0
2, 55844, Note_on_c, 0, 68, 0
2, 55846, Note_on_c, 0, 56, 80
2, 55846, Note_on_c, 0, 65, 80
2, 55848, Note_on_c, 0, 59, 80
2, 55882, Control_c, 0, 64, 0
2, 55896, Note_on_c, 0, 65, 0
2, 55896, Note_on_c, 0, 56, 0
2, 55897, Note_on_c, 0, 59, 0
2, 55897, Note_on_c, 0, 64, 80
2, 55897, Note_on_c, 0, 71, 80
2, 55897, Note_on_c, 0, 76, 80
2, 55899, Note_on_c, 0, 68, 80
2, 55922, Note_on_c, 0, 64, 0
2, 55955, Note_on_c, 0, 52, 80
2, 55957, Note_on_c, 0, 64, 80
2, 55999, Note_on_c, 0, 71, 0
2, 56001, Note_on_c, 0, 62, 0
2, 56003, Note_on_c, 0, 52, 0
2, 56003, Note_on_c, 0, 76, 0
2, 56003, Note_on_c, 0, 64, 0
2, 56003, Note_on_c, 0, 68, 0
2, 56065, Note_on_c, 0, 62, 80
2, 56065, Note_on_c, 0, 65, 80
2, 56065, Note_on_c, 0, 71, 80
2, 56065, Note_on_c, 0, 77, 80
2, 56067, Note_on_c, 0, 50, 80
2, 56067, Note_on_c, 0, 68, 80
2, 56108, Note_on_c, 0, 77, 0
2, 56110, Note_on_c, 0, 68, 0
2, 56112, Note_on_c, 0, 71, 0
2, 56112, Note_on_c, 0, 62, 0
2, 56113, Note_on_c, 0, 65, 0
2, 56113, Note_on_c, 0, 50, 0
2, 56160, Note_on_c, 0, 48, 80
2, 56169, Note_on_c, 0, 60, 80
2, 56169, Note_on_c, 0, 70, 80
2, 56169, Note_on_c, 0, 75, 80
2, 56169, Note_on_c, 0, 82, 80
2, 56190, Note_on_c, 0, 75, 0
2, 56194, Control_c, 0, 64, 127
2, 56211, Note_on_c, 0, 82, 0
2, 56215, Note_on_c, 0, 70, 0
2, 56215, Note_on_c, 0, 60, 0
2, 56217, Note_on_c, 0, 80, 80
2, 56219, Note_on_c, 0, 68, 80
2, 56219, Note_on_c, 0, 75, 80
2, 56263, Note_on_c, 0, 80, 0
2, 56269, Note_on_c, 0, 75, 0
2, 56269, Note_on_c, 0, 68, 0
2, 56271, Note_on_c, 0, 51, 80
2, 56271, Note_on_c, 0, 56, 80
2, 56271, Note_on_c, 0, 60, 80
2, 56296, Note_on_c, 0, 48, 0
2, 56296, Control_c, 0, 64, 0
2, 56317, Note_on_c, 0, 60, 0
2, 56317, Note_on_c, 0, 56, 0
2, 56319, Note_on_c, 0, 72, 80
2, 56319, Note_on_c, 0, 75, 80
2, 56319, Note_on_c, 0, 78, 80
2, 56321, Note_on_c, 0, 66, 80
2, 56323, Note_on_c, 0, 51, 0
2, 56376, Note_on_c, 0, 45, 80
2, 56376, Note_on_c, 0, 57, 80
2, 56416, Note_on_c, 0, 57, 0
2, 56420, Note_on_c, 0, 45, 0
2, 56431, Note_on_c, 0, 66, 0
2, 56431, Note_on_c, 0, 72, 0
2, 56431, Note_on_c, 0, 75, 0
2, 56431, Note_on_c, 0, 78, 0
2, 56472, Note_on_c, 0, 58, 80
2, 56472, Note_on_c, 0, 65, 80
2, 56472, Note_on_c, 0, 70, 80
2, 56472, Note_on_c, 0, 73, 80
2, 56472, Note_on_c, 0, 77, 80
2, 56475, Note_on_c, 0, 46, 80
2, 56516, Note_on_c, 0, 77, 0
2, 56516, Note_on_c, 0, 73, 0
2, 56516, Note_on_c, 0, 70, 0
2, 56516, Note_on_c, 0, 58, 0
2, 56520, Note_on_c, 0, 65, 0
2, 56520, Note_on_c, 0, 46, 0
2, 56574, Note_on_c, 0, 75, 80
2, 56576, Note_on_c, 0, 66, 80
2, 56576, Note_on_c, 0, 72, 80
2, 56578, Note_on_c, 0, 36, 80
2, 56578, Note_on_c, 0, 48, 80
2, 56580, Note_on_c, 0, 63, 80
2, 56603, Control_c, 0, 64, 127
2, 56626, Note_on_c, 0, 63, 0
2, 56626, Note_on_c, 0, 66, 0
2, 56626, Note_on_c, 0, 75, 0
2, 56626, Note_on_c, 0, 72, 0
2, 56626, Note_on_c, 0, 48, 0
2, 56626, Note_on_c, 0, 61, 80
2, 56626, Note_on_c, 0, 73, 80
2, 56628, Note_on_c, 0, 36, 0
2, 56628, Note_on_c, 0, 70, 80
2, 56632, Note_on_c, 0, 65, 80
2, 56678, Note_on_c, 0, 70, 0
2, 56678, Note_on_c, 0, 61, 0
2, 56678, Note_on_c, 0, 73, 0
2, 56682, Note_on_c, 0, 65, 0
2, 56684, Note_on_c, 0, 37, 80
2, 56684, Note_on_c, 0, 49, 80
2, 56707, Control_c, 0, 64, 0
2, 56732, Note_on_c, 0, 37, 0
2, 56736, Note_on_c, 0, 49, 0
2, 56737, Note_on_c, 0, 72, 80
2, 56739, Note_on_c, 0, 60, 80
2, 56739, Note_on_c, 0, 63, 80
2, 56739, Note_on_c, 0, 67, 80
2, 56794, Note_on_c, 0, 51, 80
2, 56798, Note_on_c, 0, 39, 80
2, 56813, Note_on_c, 0, 72, 0
2, 56817, Note_on_c, 0, 60, 0
2, 56817, Note_on_c, 0, 63, 0
2, 56819, Note_on_c, 0, 67, 0
2, 56844, Note_on_c, 0, 75, 80
2, 56895, Note_on_c, 0, 75, 0
2, 56897, Note_on_c, 0, 61, 80
2, 56899, Note_on_c, 0, 67, 80
2, 56901, Note_on_c, 0, 70, 80
2, 56903, Note_on_c, 0, 58, 80
2, 56945, Note_on_c, 0, 70, 0
2, 56945, Note_on_c, 0, 61, 0
2, 56949, Note_on_c, 0, 39, 0
2, 56949, Note_on_c, 0, 58, 0
2, 56951, Note_on_c, 0, 67, 0
2, 57001, Note_on_c, 0, 44, 80
2, 57001, Note_on_c, 0, 60, 80
2, 57001, Note_on_c, 0, 63, 80
2, 57003, Note_on_c, 0, 68, 80
2, 57026, Control_c, 0, 64, 127
2, 57051, Note_on_c, 0, 63, 0
2, 57055, Note_on_c, 0, 60, 0
2, 57055, Note_on_c, 0, 51, 0
2, 57055, Note_on_c, 0, 44, 0
2, 57055, Note_on_c, 0, 68, 0
2, 57108, Note_on_c, 0, 51, 80
2, 57112, Note_on_c, 0, 39, 80
2, 57158, Note_on_c, 0, 39, 0
2, 57162, Note_on_c, 0, 51, 0
2, 57173, Control_c, 0, 64, 0
2, 57198, Note_on_c, 0, 44, 80
2, 57210, Note_on_c, 0, 56, 80
2, 57210, Note_on_c, 0, 63, 80
2, 57210, Note_on_c, 0, 72, 80
2, 57210, Note_on_c, 0, 80, 80
2, 57210, Note_on_c, 0, 84, 80
2, 57210, Note_on_c, 0, 92, 80
2, 57212, Note_on_c, 0, 68, 80
2, 57254, Note_on_c, 0, 92, 0
2, 57258, Note_on_c, 0, 68, 0
2, 57258, Note_on_c, 0, 80, 0
2, 57258, Note_on_c, 0, 56, 0
2, 57258, Note_on_c, 0, 63, 0
2, 57258, Note_on_c, 0, 72, 0
2, 57258, Note_on_c, 0, 84, 0
2, 57262, Note_on_c, 0, 44, 0
2, 57262, End_track
3, 0, Start_track
3, 0, Title_t, "c/b James Scott"
3, 0, End_track
4, 0, Start_track
4, 0, Title_t, "p/b James Scott"
4, 0, End_track
5, 0, Start_track
5, 0, Title_t, "Golden Age # 1168"
5, 0, End_track
6, 0, Start_track
6, 0, Title_t, "Scan of a player piano roll"
6, 0, End_track
7, 0, Start_track
7, 0, Title_t, "by Terry Smythe, Winnipeg, Canada"
7, 0, End_track
8, 0, Start_track
8, 1, Copyright_t, "___________________________________________________\012\012KUNSTDERFUGE.COM LARGE CLASSICAL MIDI COLLECTION\012ONCLASSICAL BY ALESSANDRO SIMONETTO, PROPRIETOR\012___________________________________________________\012\012! Attention: this file is under copyright !\012\012(c)onclassical, (nc)smythe, 2010\012___________________________________________________\012\012NO ONE MAY REPUBLISH THIS FILE WITHOUT PERMISSION\012COMMERCIAL USES OF THIS FILE IS STRICTLY PROHIBITED\012___________________________________________________\012\012Files & contributor's list: http://kunstderfuge.com/\012Terms and conditions: http://kunstderfuge.com/notes.htm"
8, 1, End_track
0, 0, End_of_file
