0, 0, Header, 1, 18, 384
1, 0, Start_track
1, 0, Time_signature, 4, 2, 96, 8
1, 0, Sequencer_specific, 3, 0, 0, 65
1, 0, Tempo, 500000
1, 0, End_track
2, 0, Start_track
2, 0, Title_t, "Scott Joplin's Rag-Time performance"
2, 0, Key_signature, 0, "major"
2, 2084, Note_on_c, 1, 66, 54
2, 2084, Note_on_c, 1, 54, 46
2, 2172, Note_on_c, 1, 67, 51
2, 2172, Note_on_c, 1, 55, 30
2, 2184, Note_off_c, 1, 54, 64
2, 2192, Note_off_c, 1, 66, 64
2, 2604, Note_off_c, 1, 67, 64
2, 2608, Note_off_c, 1, 55, 64
2, 2684, Note_on_c, 1, 66, 54
2, 2688, Note_on_c, 1, 54, 44
2, 2736, Note_on_c, 1, 67, 67
2, 2740, Note_off_c, 1, 66, 64
2, 2744, Note_off_c, 1, 54, 64
2, 2744, Note_on_c, 1, 55, 50
2, 3300, Note_on_c, 1, 72, 60
2, 3304, Note_on_c, 1, 60, 27
2, 3316, Note_off_c, 1, 55, 64
2, 3328, Note_off_c, 1, 67, 64
2, 3596, Note_on_c, 1, 69, 63
2, 3604, Note_off_c, 1, 72, 64
2, 3604, Note_on_c, 1, 57, 25
2, 3612, Note_off_c, 1, 60, 64
2, 3872, Note_on_c, 1, 67, 55
2, 3880, Note_on_c, 1, 55, 24
2, 3896, Note_off_c, 1, 57, 64
2, 3900, Note_off_c, 1, 69, 64
2, 3924, Note_off_c, 1, 55, 64
2, 3940, Note_off_c, 1, 67, 64
2, 4148, Note_on_c, 1, 51, 39
2, 4148, Note_on_c, 1, 63, 60
2, 4296, Note_off_c, 1, 51, 64
2, 4296, Note_on_c, 1, 64, 64
2, 4296, Note_on_c, 1, 52, 44
2, 4300, Note_off_c, 1, 63, 64
2, 4436, Note_on_c, 1, 65, 63
2, 4440, Note_on_c, 1, 53, 49
2, 4444, Note_off_c, 1, 64, 64
2, 4456, Note_off_c, 1, 52, 64
2, 4724, Note_on_c, 1, 64, 61
2, 4732, Note_on_c, 1, 52, 37
2, 4744, Note_off_c, 1, 65, 64
2, 4756, Note_off_c, 1, 53, 64
2, 4860, Note_off_c, 1, 52, 64
2, 4860, Note_on_c, 1, 53, 53
2, 4864, Note_on_c, 1, 65, 61
2, 4872, Note_off_c, 1, 64, 64
2, 5004, Note_on_c, 1, 64, 59
2, 5012, Note_off_c, 1, 53, 64
2, 5016, Note_off_c, 1, 65, 64
2, 5016, Note_on_c, 1, 52, 30
2, 5292, Note_on_c, 1, 63, 58
2, 5292, Note_on_c, 1, 51, 24
2, 5560, Note_off_c, 1, 63, 64
2, 5564, Note_on_c, 1, 62, 49
2, 5568, Note_on_c, 1, 50, 29
2, 5592, Note_off_c, 1, 52, 64
2, 5596, Note_off_c, 1, 64, 64
2, 5596, Note_off_c, 1, 51, 64
2, 5796, Control_c, 1, 64, 127
2, 5800, Note_off_c, 1, 62, 64
2, 5868, Note_off_c, 1, 50, 64
2, 5968, Control_c, 1, 64, 0
2, 6136, Note_on_c, 1, 43, 71
2, 6136, Note_on_c, 1, 79, 86
2, 6136, Note_on_c, 1, 71, 80
2, 6136, Note_on_c, 1, 74, 75
2, 6136, Note_on_c, 1, 67, 71
2, 6136, Note_on_c, 1, 55, 62
2, 6140, Control_c, 1, 64, 127
2, 6144, Note_off_c, 1, 71, 64
2, 6144, Note_off_c, 1, 74, 64
2, 6144, Note_off_c, 1, 67, 64
2, 6156, Note_off_c, 1, 43, 64
2, 6156, Note_off_c, 1, 79, 64
2, 6156, Note_off_c, 1, 55, 64
2, 6552, Control_c, 1, 64, 0
2, 6628, Note_on_c, 1, 78, 77
2, 6672, Note_off_c, 1, 78, 64
2, 6688, Note_on_c, 1, 79, 96
2, 6688, Note_on_c, 1, 76, 92
2, 6688, Note_on_c, 1, 72, 86
2, 6696, Note_on_c, 1, 36, 59
2, 6696, Note_on_c, 1, 48, 56
2, 6696, Control_c, 1, 64, 127
2, 6708, Note_off_c, 1, 36, 64
2, 6720, Note_off_c, 1, 48, 64
2, 6896, Control_c, 1, 64, 0
2, 7004, Note_on_c, 1, 55, 67
2, 7004, Note_on_c, 1, 60, 62
2, 7008, Note_on_c, 1, 64, 60
2, 7020, Note_off_c, 1, 60, 64
2, 7024, Note_off_c, 1, 55, 64
2, 7024, Note_off_c, 1, 64, 64
2, 7112, Note_off_c, 1, 76, 64
2, 7112, Note_off_c, 1, 72, 64
2, 7116, Note_off_c, 1, 79, 64
2, 7228, Note_on_c, 1, 78, 80
2, 7272, Note_off_c, 1, 78, 64
2, 7288, Note_on_c, 1, 76, 92
2, 7288, Note_on_c, 1, 79, 100
2, 7288, Note_on_c, 1, 72, 86
2, 7288, Note_on_c, 1, 40, 73
2, 7292, Note_on_c, 1, 52, 61
2, 7344, Note_off_c, 1, 40, 64
2, 7356, Note_off_c, 1, 52, 64
2, 7564, Note_on_c, 1, 55, 63
2, 7564, Note_on_c, 1, 64, 63
2, 7564, Note_on_c, 1, 60, 61
2, 7584, Note_off_c, 1, 64, 64
2, 7588, Note_off_c, 1, 60, 64
2, 7592, Note_off_c, 1, 55, 64
2, 7644, Note_off_c, 1, 72, 64
2, 7648, Note_off_c, 1, 79, 64
2, 7656, Note_off_c, 1, 76, 64
2, 7832, Note_on_c, 1, 84, 89
2, 7836, Note_on_c, 1, 45, 64
2, 7836, Note_on_c, 1, 72, 77
2, 7836, Note_on_c, 1, 57, 61
2, 7836, Control_c, 1, 64, 127
2, 7852, Note_off_c, 1, 84, 64
2, 7852, Note_off_c, 1, 72, 64
2, 7860, Note_off_c, 1, 45, 64
2, 7860, Note_off_c, 1, 57, 64
2, 7988, Control_c, 1, 64, 0
2, 8112, Note_on_c, 1, 81, 67
2, 8112, Note_on_c, 1, 41, 53
2, 8116, Note_on_c, 1, 69, 65
2, 8116, Note_on_c, 1, 53, 56
2, 8140, Control_c, 1, 64, 127
2, 8160, Note_off_c, 1, 81, 64
2, 8164, Note_off_c, 1, 69, 64
2, 8168, Note_off_c, 1, 41, 64
2, 8168, Note_off_c, 1, 53, 64
2, 8244, Control_c, 1, 64, 0
2, 8400, Note_on_c, 1, 40, 42
2, 8400, Note_on_c, 1, 79, 63
2, 8404, Note_on_c, 1, 76, 59
2, 8404, Note_on_c, 1, 72, 58
2, 8404, Note_on_c, 1, 52, 35
2, 8404, Note_on_c, 1, 67, 43
2, 8404, Control_c, 1, 64, 127
2, 8412, Note_off_c, 1, 40, 64
2, 8432, Note_off_c, 1, 52, 64
2, 8660, Control_c, 1, 64, 0
2, 8676, Note_on_c, 1, 48, 69
2, 8676, Note_on_c, 1, 60, 62
2, 8700, Note_off_c, 1, 60, 64
2, 8704, Note_off_c, 1, 48, 64
2, 8808, Note_off_c, 1, 67, 64
2, 8812, Note_off_c, 1, 72, 64
2, 8820, Note_off_c, 1, 76, 64
2, 8820, Note_on_c, 1, 58, 59
2, 8824, Note_on_c, 1, 46, 59
2, 8832, Note_off_c, 1, 79, 64
2, 8848, Note_off_c, 1, 58, 64
2, 8848, Note_off_c, 1, 46, 64
2, 8964, Note_on_c, 1, 45, 73
2, 8968, Note_on_c, 1, 57, 60
2, 8968, Note_on_c, 1, 77, 71
2, 8972, Control_c, 1, 64, 127
2, 8980, Note_off_c, 1, 45, 64
2, 8988, Note_off_c, 1, 57, 64
2, 9108, Control_c, 1, 64, 0
2, 9112, Note_on_c, 1, 88, 83
2, 9252, Note_on_c, 1, 60, 57
2, 9256, Note_on_c, 1, 65, 55
2, 9256, Note_on_c, 1, 57, 54
2, 9272, Note_off_c, 1, 60, 64
2, 9272, Note_off_c, 1, 65, 64
2, 9280, Note_off_c, 1, 57, 64
2, 9388, Note_off_c, 1, 88, 64
2, 9388, Note_on_c, 1, 86, 65
2, 9428, Note_off_c, 1, 77, 64
2, 9524, Note_on_c, 1, 44, 52
2, 9528, Note_off_c, 1, 86, 64
2, 9532, Note_on_c, 1, 84, 67
2, 9532, Note_on_c, 1, 56, 44
2, 9552, Note_off_c, 1, 44, 64
2, 9560, Note_off_c, 1, 56, 64
2, 9672, Note_on_c, 1, 74, 67
2, 9676, Note_off_c, 1, 84, 64
2, 9808, Note_on_c, 1, 76, 67
2, 9812, Note_on_c, 1, 56, 45
2, 9820, Note_on_c, 1, 65, 49
2, 9820, Note_on_c, 1, 60, 38
2, 9824, Note_off_c, 1, 74, 64
2, 9840, Note_off_c, 1, 65, 64
2, 9840, Note_off_c, 1, 60, 64
2, 9852, Note_off_c, 1, 56, 64
2, 9964, Note_on_c, 1, 77, 67
2, 9972, Note_off_c, 1, 76, 64
2, 10096, Note_off_c, 1, 77, 64
2, 10100, Note_on_c, 1, 43, 58
2, 10108, Note_on_c, 1, 76, 64
2, 10108, Note_on_c, 1, 55, 48
2, 10108, Note_on_c, 1, 72, 47
2, 10132, Note_off_c, 1, 43, 64
2, 10160, Note_off_c, 1, 55, 64
2, 10244, Note_on_c, 1, 81, 75
2, 10292, Note_off_c, 1, 76, 64
2, 10324, Note_off_c, 1, 81, 64
2, 10392, Note_on_c, 1, 81, 71
2, 10396, Note_on_c, 1, 55, 59
2, 10400, Note_on_c, 1, 60, 49
2, 10400, Note_on_c, 1, 64, 55
2, 10412, Note_off_c, 1, 72, 64
2, 10416, Note_off_c, 1, 81, 64
2, 10516, Note_off_c, 1, 64, 64
2, 10520, Note_off_c, 1, 60, 64
2, 10528, Note_off_c, 1, 55, 64
2, 10532, Note_on_c, 1, 81, 83
2, 10532, Note_on_c, 1, 77, 86
2, 10540, Note_on_c, 1, 71, 73
2, 10668, Note_on_c, 1, 43, 77
2, 10668, Note_on_c, 1, 55, 73
2, 10672, Control_c, 1, 64, 127
2, 10684, Note_off_c, 1, 81, 64
2, 10684, Note_off_c, 1, 43, 64
2, 10684, Note_off_c, 1, 55, 64
2, 10804, Note_off_c, 1, 77, 64
2, 10804, Note_on_c, 1, 79, 83
2, 10828, Note_off_c, 1, 71, 64
2, 10832, Note_off_c, 1, 79, 64
2, 10940, Note_on_c, 1, 65, 56
2, 10940, Note_on_c, 1, 59, 55
2, 10944, Note_on_c, 1, 74, 77
2, 10944, Note_on_c, 1, 55, 52
2, 10944, Note_on_c, 1, 71, 60
2, 10956, Note_off_c, 1, 65, 64
2, 10960, Note_off_c, 1, 59, 64
2, 10960, Note_off_c, 1, 55, 64
2, 10980, Control_c, 1, 64, 0
2, 11072, Note_on_c, 1, 79, 92
2, 11100, Note_off_c, 1, 74, 64
2, 11104, Note_off_c, 1, 71, 64
2, 11120, Note_off_c, 1, 79, 64
2, 11220, Note_on_c, 1, 76, 92
2, 11220, Note_on_c, 1, 79, 92
2, 11220, Note_on_c, 1, 72, 83
2, 11220, Note_on_c, 1, 36, 75
2, 11228, Note_on_c, 1, 48, 63
2, 11228, Control_c, 1, 64, 127
2, 11240, Note_off_c, 1, 36, 64
2, 11248, Note_off_c, 1, 48, 64
2, 11528, Note_on_c, 1, 64, 67
2, 11528, Note_on_c, 1, 60, 64
2, 11532, Note_on_c, 1, 55, 45
2, 11536, Note_off_c, 1, 64, 64
2, 11544, Note_off_c, 1, 60, 64
2, 11548, Note_off_c, 1, 55, 64
2, 11572, Note_off_c, 1, 76, 64
2, 11584, Note_off_c, 1, 79, 64
2, 11608, Note_off_c, 1, 72, 64
2, 11612, Control_c, 1, 64, 0
2, 11728, Note_on_c, 1, 78, 73
2, 11788, Note_off_c, 1, 78, 64
2, 11800, Note_on_c, 1, 79, 100
2, 11804, Note_on_c, 1, 76, 89
2, 11804, Note_on_c, 1, 72, 75
2, 11804, Note_on_c, 1, 40, 69
2, 11804, Note_on_c, 1, 52, 65
2, 11812, Control_c, 1, 64, 127
2, 11820, Note_off_c, 1, 40, 64
2, 11832, Note_off_c, 1, 52, 64
2, 12100, Note_on_c, 1, 55, 69
2, 12100, Note_on_c, 1, 64, 75
2, 12100, Note_on_c, 1, 60, 67
2, 12120, Note_off_c, 1, 64, 64
2, 12120, Note_off_c, 1, 60, 64
2, 12124, Note_off_c, 1, 55, 64
2, 12152, Note_off_c, 1, 72, 64
2, 12156, Note_off_c, 1, 76, 64
2, 12160, Note_off_c, 1, 79, 64
2, 12224, Control_c, 1, 64, 0
2, 12364, Note_on_c, 1, 84, 83
2, 12368, Note_on_c, 1, 45, 73
2, 12368, Note_on_c, 1, 72, 77
2, 12372, Note_on_c, 1, 57, 61
2, 12376, Control_c, 1, 64, 127
2, 12380, Note_off_c, 1, 72, 64
2, 12388, Note_off_c, 1, 84, 64
2, 12388, Note_off_c, 1, 45, 64
2, 12392, Note_off_c, 1, 57, 64
2, 12620, Control_c, 1, 64, 0
2, 12648, Note_on_c, 1, 41, 59
2, 12652, Note_on_c, 1, 81, 80
2, 12652, Note_on_c, 1, 53, 61
2, 12656, Note_on_c, 1, 69, 63
2, 12676, Control_c, 1, 64, 127
2, 12700, Note_off_c, 1, 81, 64
2, 12700, Note_off_c, 1, 69, 64
2, 12708, Note_off_c, 1, 53, 64
2, 12712, Note_off_c, 1, 41, 64
2, 12856, Control_c, 1, 64, 0
2, 12924, Note_on_c, 1, 40, 53
2, 12932, Note_on_c, 1, 79, 63
2, 12932, Note_on_c, 1, 52, 43
2, 12932, Note_on_c, 1, 67, 55
2, 12936, Note_on_c, 1, 76, 71
2, 12940, Note_on_c, 1, 72, 64
2, 12940, Control_c, 1, 64, 127
2, 12952, Note_off_c, 1, 72, 64
2, 12956, Note_off_c, 1, 52, 64
2, 12956, Note_off_c, 1, 67, 64
2, 12964, Note_off_c, 1, 40, 64
2, 12964, Note_off_c, 1, 79, 64
2, 12964, Note_off_c, 1, 76, 64
2, 13156, Control_c, 1, 64, 0
2, 13196, Control_c, 1, 64, 127
2, 13208, Note_on_c, 1, 81, 77
2, 13208, Note_on_c, 1, 36, 56
2, 13212, Note_on_c, 1, 48, 56
2, 13212, Note_on_c, 1, 69, 69
2, 13224, Note_off_c, 1, 69, 64
2, 13232, Note_off_c, 1, 81, 64
2, 13324, Note_off_c, 1, 48, 64
2, 13328, Note_off_c, 1, 36, 64
2, 13336, Note_on_c, 1, 82, 77
2, 13340, Note_on_c, 1, 70, 67
2, 13364, Note_off_c, 1, 82, 64
2, 13364, Note_off_c, 1, 70, 64
2, 13484, Note_on_c, 1, 83, 89
2, 13484, Note_on_c, 1, 71, 89
2, 13484, Note_on_c, 1, 75, 86
2, 13488, Note_on_c, 1, 78, 92
2, 13488, Note_on_c, 1, 35, 73
2, 13488, Note_on_c, 1, 47, 67
2, 13488, Control_c, 1, 64, 0
2, 13556, Note_off_c, 1, 35, 64
2, 13560, Note_off_c, 1, 47, 64
2, 13784, Note_on_c, 1, 45, 86
2, 13784, Note_on_c, 1, 57, 89
2, 13844, Note_off_c, 1, 45, 64
2, 13844, Note_off_c, 1, 57, 64
2, 13904, Note_off_c, 1, 75, 64
2, 13904, Note_off_c, 1, 78, 64
2, 13908, Note_off_c, 1, 83, 64
2, 13908, Note_off_c, 1, 71, 64
2, 14068, Note_on_c, 1, 83, 96
2, 14068, Note_on_c, 1, 75, 92
2, 14068, Note_on_c, 1, 78, 96
2, 14068, Note_on_c, 1, 71, 75
2, 14076, Note_on_c, 1, 43, 65
2, 14076, Note_on_c, 1, 55, 62
2, 14132, Note_off_c, 1, 55, 64
2, 14156, Note_off_c, 1, 43, 64
2, 14348, Note_on_c, 1, 42, 83
2, 14348, Note_on_c, 1, 54, 86
2, 14432, Note_off_c, 1, 42, 64
2, 14436, Note_off_c, 1, 54, 64
2, 14444, Note_off_c, 1, 78, 64
2, 14448, Note_off_c, 1, 83, 64
2, 14448, Note_off_c, 1, 75, 64
2, 14448, Note_off_c, 1, 71, 64
2, 14628, Note_on_c, 1, 83, 89
2, 14632, Note_on_c, 1, 79, 105
2, 14632, Note_on_c, 1, 76, 105
2, 14632, Note_on_c, 1, 71, 92
2, 14636, Note_on_c, 1, 52, 63
2, 14636, Note_on_c, 1, 40, 62
2, 14644, Control_c, 1, 64, 127
2, 14668, Note_off_c, 1, 40, 64
2, 14676, Note_off_c, 1, 52, 64
2, 14780, Note_off_c, 1, 83, 64
2, 14780, Note_off_c, 1, 79, 64
2, 14788, Note_off_c, 1, 76, 64
2, 14904, Note_off_c, 1, 71, 64
2, 14908, Note_on_c, 1, 76, 86
2, 14908, Note_on_c, 1, 55, 62
2, 14912, Note_on_c, 1, 64, 60
2, 14912, Note_on_c, 1, 59, 62
2, 14932, Note_off_c, 1, 64, 64
2, 14936, Note_off_c, 1, 59, 64
2, 14940, Note_off_c, 1, 55, 64
2, 15036, Note_on_c, 1, 79, 83
2, 15100, Note_off_c, 1, 76, 64
2, 15120, Note_off_c, 1, 79, 64
2, 15180, Note_on_c, 1, 77, 86
2, 15180, Note_on_c, 1, 79, 89
2, 15184, Note_on_c, 1, 71, 75
2, 15184, Note_on_c, 1, 50, 73
2, 15252, Control_c, 1, 64, 0
2, 15328, Note_on_c, 1, 47, 77
2, 15460, Note_on_c, 1, 43, 83
2, 15524, Note_off_c, 1, 50, 64
2, 15532, Note_off_c, 1, 77, 64
2, 15532, Note_off_c, 1, 71, 64
2, 15532, Note_off_c, 1, 47, 64
2, 15540, Note_off_c, 1, 79, 64
2, 15540, Note_off_c, 1, 43, 64
2, 15668, Note_on_c, 1, 78, 77
2, 15740, Note_off_c, 1, 78, 64
2, 15760, Note_on_c, 1, 48, 75
2, 15760, Note_on_c, 1, 36, 86
2, 15764, Note_on_c, 1, 76, 92
2, 15764, Note_on_c, 1, 72, 80
2, 15764, Note_on_c, 1, 79, 105
2, 15768, Control_c, 1, 64, 127
2, 15800, Note_off_c, 1, 36, 64
2, 15820, Note_off_c, 1, 48, 64
2, 16036, Note_on_c, 1, 55, 77
2, 16040, Note_on_c, 1, 60, 71
2, 16040, Note_on_c, 1, 64, 71
2, 16044, Control_c, 1, 64, 0
2, 16072, Note_off_c, 1, 60, 64
2, 16072, Note_off_c, 1, 64, 64
2, 16084, Note_off_c, 1, 55, 64
2, 16112, Note_off_c, 1, 76, 64
2, 16112, Note_off_c, 1, 72, 64
2, 16116, Note_off_c, 1, 79, 64
2, 16252, Note_on_c, 1, 78, 73
2, 16316, Note_off_c, 1, 78, 64
2, 16332, Note_on_c, 1, 76, 80
2, 16332, Note_on_c, 1, 79, 86
2, 16336, Note_on_c, 1, 72, 62
2, 16340, Note_on_c, 1, 52, 57
2, 16344, Note_on_c, 1, 40, 40
2, 16356, Control_c, 1, 64, 127
2, 16384, Note_off_c, 1, 40, 64
2, 16396, Note_off_c, 1, 52, 64
2, 16604, Control_c, 1, 64, 0
2, 16612, Note_on_c, 1, 55, 59
2, 16616, Note_on_c, 1, 60, 45
2, 16620, Note_on_c, 1, 64, 45
2, 16636, Control_c, 1, 64, 127
2, 16652, Note_off_c, 1, 60, 64
2, 16652, Note_off_c, 1, 64, 64
2, 16664, Note_off_c, 1, 55, 64
2, 16684, Note_off_c, 1, 76, 64
2, 16684, Note_off_c, 1, 72, 64
2, 16692, Note_off_c, 1, 79, 64
2, 16828, Control_c, 1, 64, 0
2, 16880, Note_on_c, 1, 84, 64
2, 16884, Note_on_c, 1, 45, 57
2, 16884, Note_on_c, 1, 72, 56
2, 16888, Note_on_c, 1, 57, 55
2, 16888, Control_c, 1, 64, 127
2, 16908, Note_off_c, 1, 72, 64
2, 16912, Note_off_c, 1, 84, 64
2, 16916, Note_off_c, 1, 57, 64
2, 16920, Note_off_c, 1, 45, 64
2, 17156, Note_on_c, 1, 81, 67
2, 17160, Note_on_c, 1, 41, 30
2, 17160, Note_on_c, 1, 69, 56
2, 17164, Note_on_c, 1, 53, 44
2, 17164, Control_c, 1, 64, 0
2, 17196, Control_c, 1, 64, 127
2, 17228, Note_off_c, 1, 81, 64
2, 17228, Note_off_c, 1, 41, 64
2, 17228, Note_off_c, 1, 69, 64
2, 17228, Note_off_c, 1, 53, 64
2, 17432, Control_c, 1, 64, 0
2, 17452, Note_on_c, 1, 40, 32
2, 17452, Note_on_c, 1, 67, 52
2, 17456, Note_on_c, 1, 52, 45
2, 17456, Note_on_c, 1, 76, 58
2, 17456, Note_on_c, 1, 72, 55
2, 17460, Note_on_c, 1, 79, 67
2, 17468, Control_c, 1, 64, 127
2, 17484, Note_off_c, 1, 40, 64
2, 17492, Note_off_c, 1, 52, 64
2, 17760, Note_on_c, 1, 60, 41
2, 17760, Note_on_c, 1, 48, 29
2, 17772, Control_c, 1, 64, 0
2, 17784, Note_off_c, 1, 67, 64
2, 17784, Note_off_c, 1, 76, 64
2, 17784, Note_off_c, 1, 72, 64
2, 17784, Note_off_c, 1, 79, 64
2, 17812, Note_off_c, 1, 60, 64
2, 17816, Note_off_c, 1, 48, 64
2, 18036, Note_on_c, 1, 47, 61
2, 18040, Note_on_c, 1, 80, 85
2, 18040, Note_on_c, 1, 76, 82
2, 18040, Note_on_c, 1, 68, 64
2, 18040, Note_on_c, 1, 74, 82
2, 18044, Control_c, 1, 64, 127
2, 18060, Note_off_c, 1, 47, 64
2, 18116, Note_off_c, 1, 68, 64
2, 18124, Note_off_c, 1, 74, 64
2, 18140, Note_off_c, 1, 76, 64
2, 18152, Note_off_c, 1, 80, 64
2, 18316, Note_on_c, 1, 56, 49
2, 18324, Note_on_c, 1, 59, 61
2, 18324, Note_on_c, 1, 62, 59
2, 18324, Note_on_c, 1, 64, 54
2, 18336, Note_off_c, 1, 62, 64
2, 18340, Note_off_c, 1, 56, 64
2, 18340, Note_off_c, 1, 59, 64
2, 18340, Note_off_c, 1, 64, 64
2, 18452, Note_on_c, 1, 81, 77
2, 18452, Note_on_c, 1, 69, 65
2, 18476, Note_off_c, 1, 69, 64
2, 18480, Note_off_c, 1, 81, 64
2, 18580, Note_on_c, 1, 83, 86
2, 18584, Note_on_c, 1, 74, 86
2, 18584, Note_on_c, 1, 80, 77
2, 18584, Note_on_c, 1, 40, 65
2, 18584, Note_on_c, 1, 71, 69
2, 18588, Note_on_c, 1, 52, 64
2, 18588, Control_c, 1, 64, 0
2, 18624, Control_c, 1, 64, 127
2, 18628, Note_off_c, 1, 40, 64
2, 18644, Note_off_c, 1, 52, 64
2, 18668, Note_off_c, 1, 83, 64
2, 18668, Note_off_c, 1, 80, 64
2, 18672, Note_off_c, 1, 74, 64
2, 18676, Note_off_c, 1, 71, 64
2, 18868, Control_c, 1, 64, 0
2, 18872, Note_on_c, 1, 80, 65
2, 18872, Note_on_c, 1, 68, 67
2, 18872, Note_on_c, 1, 76, 86
2, 18876, Note_on_c, 1, 74, 92
2, 18876, Note_on_c, 1, 64, 59
2, 18876, Note_on_c, 1, 62, 67
2, 18876, Note_on_c, 1, 59, 64
2, 18900, Control_c, 1, 64, 127
2, 18936, Note_off_c, 1, 74, 64
2, 18936, Note_off_c, 1, 62, 64
2, 18940, Note_off_c, 1, 68, 64
2, 18940, Note_off_c, 1, 64, 64
2, 18940, Note_off_c, 1, 59, 64
2, 18944, Note_off_c, 1, 76, 64
2, 18956, Note_off_c, 1, 80, 64
2, 19116, Control_c, 1, 64, 0
2, 19140, Note_on_c, 1, 76, 69
2, 19144, Note_on_c, 1, 72, 75
2, 19144, Note_on_c, 1, 81, 100
2, 19148, Note_on_c, 1, 45, 67
2, 19148, Note_on_c, 1, 69, 75
2, 19148, Note_on_c, 1, 57, 63
2, 19156, Control_c, 1, 64, 127
2, 19184, Note_off_c, 1, 45, 64
2, 19212, Note_off_c, 1, 57, 64
2, 19428, Control_c, 1, 64, 0
2, 19436, Note_on_c, 1, 57, 62
2, 19444, Note_on_c, 1, 60, 67
2, 19444, Note_on_c, 1, 64, 67
2, 19468, Control_c, 1, 64, 127
2, 19492, Note_off_c, 1, 64, 64
2, 19504, Note_off_c, 1, 60, 64
2, 19512, Note_off_c, 1, 57, 64
2, 19676, Control_c, 1, 64, 0
2, 19708, Note_on_c, 1, 48, 83
2, 19716, Note_on_c, 1, 60, 75
2, 19744, Control_c, 1, 64, 127
2, 19808, Note_off_c, 1, 60, 64
2, 19820, Note_off_c, 1, 48, 64
2, 19828, Note_off_c, 1, 81, 64
2, 19828, Note_off_c, 1, 69, 64
2, 19852, Note_off_c, 1, 76, 64
2, 19852, Note_off_c, 1, 72, 64
2, 19932, Control_c, 1, 64, 0
2, 20012, Note_on_c, 1, 76, 67
2, 20012, Note_on_c, 1, 46, 55
2, 20016, Note_on_c, 1, 58, 50
2, 20016, Note_on_c, 1, 67, 64
2, 20016, Note_on_c, 1, 79, 69
2, 20016, Note_on_c, 1, 72, 67
2, 20024, Control_c, 1, 64, 127
2, 20036, Note_off_c, 1, 67, 64
2, 20044, Note_off_c, 1, 76, 64
2, 20044, Note_off_c, 1, 72, 64
2, 20052, Note_off_c, 1, 46, 64
2, 20056, Note_off_c, 1, 58, 64
2, 20056, Note_off_c, 1, 79, 64
2, 20236, Control_c, 1, 64, 0
2, 20268, Note_on_c, 1, 45, 58
2, 20276, Note_on_c, 1, 57, 48
2, 20280, Control_c, 1, 64, 127
2, 20284, Note_on_c, 1, 77, 60
2, 20300, Note_off_c, 1, 45, 64
2, 20320, Note_off_c, 1, 57, 64
2, 20428, Note_on_c, 1, 88, 75
2, 20444, Control_c, 1, 64, 0
2, 20556, Note_on_c, 1, 57, 58
2, 20556, Note_on_c, 1, 65, 56
2, 20556, Note_on_c, 1, 60, 45
2, 20576, Note_off_c, 1, 65, 64
2, 20576, Note_off_c, 1, 60, 64
2, 20580, Note_off_c, 1, 57, 64
2, 20692, Note_off_c, 1, 88, 64
2, 20692, Note_on_c, 1, 86, 77
2, 20836, Note_off_c, 1, 77, 64
2, 20836, Note_off_c, 1, 86, 64
2, 20836, Note_on_c, 1, 44, 47
2, 20836, Note_on_c, 1, 84, 69
2, 20836, Note_on_c, 1, 56, 48
2, 20856, Note_off_c, 1, 44, 64
2, 20864, Note_off_c, 1, 56, 64
2, 20976, Note_on_c, 1, 74, 67
2, 20980, Note_off_c, 1, 84, 64
2, 21112, Note_on_c, 1, 56, 47
2, 21120, Note_on_c, 1, 76, 75
2, 21120, Note_on_c, 1, 65, 54
2, 21120, Note_on_c, 1, 60, 33
2, 21124, Note_off_c, 1, 74, 64
2, 21140, Note_off_c, 1, 60, 64
2, 21144, Note_off_c, 1, 65, 64
2, 21148, Note_off_c, 1, 56, 64
2, 21268, Note_on_c, 1, 77, 75
2, 21280, Note_off_c, 1, 76, 64
2, 21420, Note_on_c, 1, 43, 45
2, 21420, Note_on_c, 1, 76, 67
2, 21424, Note_off_c, 1, 77, 64
2, 21424, Note_on_c, 1, 55, 42
2, 21428, Note_on_c, 1, 72, 50
2, 21428, Control_c, 1, 64, 127
2, 21440, Note_off_c, 1, 43, 64
2, 21460, Note_off_c, 1, 55, 64
2, 21712, Note_on_c, 1, 55, 41
2, 21716, Note_on_c, 1, 60, 33
2, 21716, Note_on_c, 1, 64, 52
2, 21732, Note_off_c, 1, 72, 64
2, 21752, Note_off_c, 1, 64, 64
2, 21756, Note_off_c, 1, 76, 64
2, 21756, Note_off_c, 1, 60, 64
2, 21772, Note_off_c, 1, 55, 64
2, 21908, Control_c, 1, 64, 0
2, 21988, Note_on_c, 1, 81, 75
2, 21996, Note_on_c, 1, 69, 60
2, 21996, Note_on_c, 1, 53, 50
2, 21996, Note_on_c, 1, 65, 51
2, 21996, Control_c, 1, 64, 127
2, 22028, Note_off_c, 1, 81, 64
2, 22028, Note_off_c, 1, 69, 64
2, 22044, Note_off_c, 1, 65, 64
2, 22048, Note_off_c, 1, 53, 64
2, 22260, Note_on_c, 1, 79, 62
2, 22260, Note_on_c, 1, 67, 55
2, 22268, Note_on_c, 1, 52, 32
2, 22268, Control_c, 1, 64, 0
2, 22272, Note_on_c, 1, 64, 30
2, 22272, Control_c, 1, 64, 127
2, 22316, Note_off_c, 1, 64, 64
2, 22320, Note_off_c, 1, 79, 64
2, 22332, Note_off_c, 1, 67, 64
2, 22336, Note_off_c, 1, 52, 64
2, 22396, Control_c, 1, 64, 0
2, 22544, Note_on_c, 1, 45, 43
2, 22544, Note_on_c, 1, 72, 59
2, 22544, Note_on_c, 1, 66, 46
2, 22828, Note_on_c, 1, 57, 45
2, 22832, Control_c, 1, 64, 127
2, 22888, Note_off_c, 1, 72, 64
2, 22896, Note_off_c, 1, 66, 64
2, 22960, Note_off_c, 1, 45, 64
2, 23032, Note_off_c, 1, 57, 64
2, 23108, Note_on_c, 1, 71, 52
2, 23116, Note_on_c, 1, 65, 34
2, 23116, Note_on_c, 1, 74, 58
2, 23116, Note_on_c, 1, 43, 26
2, 23128, Control_c, 1, 64, 0
2, 23392, Note_on_c, 1, 55, 34
2, 23420, Control_c, 1, 64, 127
2, 23456, Note_off_c, 1, 74, 64
2, 23456, Note_off_c, 1, 43, 64
2, 23456, Note_off_c, 1, 55, 64
2, 23468, Note_off_c, 1, 65, 64
2, 23476, Note_off_c, 1, 71, 64
2, 23680, Note_on_c, 1, 72, 56
2, 23684, Note_on_c, 1, 48, 29
2, 23684, Note_on_c, 1, 64, 33
2, 23692, Note_on_c, 1, 55, 29
2, 23704, Control_c, 1, 64, 0
2, 23788, Note_off_c, 1, 55, 64
2, 23800, Note_off_c, 1, 48, 64
2, 23804, Note_off_c, 1, 72, 64
2, 23812, Note_off_c, 1, 64, 64
2, 23948, Note_on_c, 1, 76, 75
2, 24080, Control_c, 1, 64, 127
2, 24084, Note_on_c, 1, 72, 61
2, 24104, Note_off_c, 1, 76, 64
2, 24104, Note_off_c, 1, 72, 64
2, 24240, Note_on_c, 1, 74, 62
2, 24240, Note_on_c, 1, 43, 33
2, 24240, Note_on_c, 1, 65, 49
2, 24240, Note_on_c, 1, 71, 54
2, 24240, Control_c, 1, 64, 0
2, 24256, Note_on_c, 1, 55, 28
2, 24276, Note_off_c, 1, 74, 64
2, 24300, Note_off_c, 1, 71, 64
2, 24352, Note_off_c, 1, 43, 64
2, 24356, Note_off_c, 1, 55, 64
2, 24384, Note_off_c, 1, 65, 64
2, 24528, Note_on_c, 1, 79, 64
2, 24536, Control_c, 1, 64, 127
2, 24564, Note_off_c, 1, 79, 64
2, 24720, Note_on_c, 1, 78, 83
2, 24780, Note_off_c, 1, 78, 64
2, 24808, Note_on_c, 1, 79, 89
2, 24808, Note_on_c, 1, 72, 80
2, 24808, Note_on_c, 1, 76, 86
2, 24812, Note_on_c, 1, 36, 63
2, 24812, Note_on_c, 1, 48, 64
2, 24816, Control_c, 1, 64, 0
2, 24868, Note_off_c, 1, 36, 64
2, 24884, Note_off_c, 1, 48, 64
2, 25084, Note_on_c, 1, 55, 62
2, 25088, Note_on_c, 1, 64, 56
2, 25088, Note_on_c, 1, 60, 57
2, 25096, Control_c, 1, 64, 127
2, 25116, Note_off_c, 1, 55, 64
2, 25116, Note_off_c, 1, 64, 64
2, 25116, Note_off_c, 1, 60, 64
2, 25160, Note_off_c, 1, 76, 64
2, 25164, Note_off_c, 1, 72, 64
2, 25168, Note_off_c, 1, 79, 64
2, 25180, Control_c, 1, 64, 0
2, 25308, Note_on_c, 1, 78, 73
2, 25380, Note_off_c, 1, 78, 64
2, 25388, Note_on_c, 1, 79, 80
2, 25388, Note_on_c, 1, 72, 73
2, 25388, Note_on_c, 1, 76, 73
2, 25388, Note_on_c, 1, 40, 75
2, 25392, Note_on_c, 1, 52, 69
2, 25444, Control_c, 1, 64, 127
2, 25452, Note_off_c, 1, 40, 64
2, 25472, Note_off_c, 1, 52, 64
2, 25664, Note_on_c, 1, 55, 73
2, 25664, Note_on_c, 1, 64, 73
2, 25664, Note_on_c, 1, 60, 75
2, 25684, Note_off_c, 1, 79, 64
2, 25684, Note_off_c, 1, 72, 64
2, 25684, Note_off_c, 1, 76, 64
2, 25684, Note_off_c, 1, 60, 64
2, 25688, Note_off_c, 1, 55, 64
2, 25688, Note_off_c, 1, 64, 64
2, 25936, Note_on_c, 1, 84, 83
2, 25944, Note_on_c, 1, 72, 71
2, 25944, Note_on_c, 1, 45, 73
2, 25944, Note_on_c, 1, 57, 71
2, 25944, Control_c, 1, 64, 0
2, 25968, Control_c, 1, 64, 127
2, 25988, Note_off_c, 1, 84, 64
2, 25988, Note_off_c, 1, 72, 64
2, 25988, Note_off_c, 1, 57, 64
2, 26000, Note_off_c, 1, 45, 64
2, 26208, Note_on_c, 1, 81, 75
2, 26216, Note_on_c, 1, 69, 65
2, 26216, Note_on_c, 1, 41, 67
2, 26216, Note_on_c, 1, 53, 69
2, 26228, Control_c, 1, 64, 0
2, 26256, Control_c, 1, 64, 127
2, 26300, Note_off_c, 1, 53, 64
2, 26304, Note_off_c, 1, 41, 64
2, 26312, Note_off_c, 1, 81, 64
2, 26316, Note_off_c, 1, 69, 64
2, 26500, Note_on_c, 1, 79, 69
2, 26500, Note_on_c, 1, 67, 62
2, 26504, Note_on_c, 1, 52, 52
2, 26508, Note_on_c, 1, 40, 51
2, 26516, Control_c, 1, 64, 0
2, 26556, Control_c, 1, 64, 127
2, 26572, Note_off_c, 1, 40, 64
2, 26584, Note_off_c, 1, 52, 64
2, 26756, Control_c, 1, 64, 0
2, 26780, Note_on_c, 1, 60, 45
2, 26780, Note_on_c, 1, 48, 56
2, 26784, Control_c, 1, 64, 127
2, 26804, Note_off_c, 1, 60, 64
2, 26812, Note_off_c, 1, 48, 64
2, 26816, Note_off_c, 1, 67, 64
2, 26848, Note_off_c, 1, 79, 64
2, 26912, Note_on_c, 1, 58, 53
2, 26912, Note_on_c, 1, 46, 60
2, 26940, Note_off_c, 1, 58, 64
2, 26940, Note_off_c, 1, 46, 64
2, 27052, Note_on_c, 1, 45, 60
2, 27056, Note_on_c, 1, 57, 43
2, 27056, Control_c, 1, 64, 0
2, 27060, Note_on_c, 1, 77, 60
2, 27084, Note_off_c, 1, 45, 64
2, 27092, Note_off_c, 1, 57, 64
2, 27192, Note_on_c, 1, 88, 77
2, 27336, Note_on_c, 1, 57, 56
2, 27336, Note_on_c, 1, 60, 53
2, 27336, Note_on_c, 1, 65, 59
2, 27352, Note_off_c, 1, 57, 64
2, 27356, Note_off_c, 1, 60, 64
2, 27356, Note_off_c, 1, 65, 64
2, 27476, Note_off_c, 1, 88, 64
2, 27480, Note_on_c, 1, 86, 73
2, 27496, Note_off_c, 1, 77, 64
2, 27616, Note_on_c, 1, 44, 54
2, 27620, Note_off_c, 1, 86, 64
2, 27620, Note_on_c, 1, 56, 45
2, 27624, Note_on_c, 1, 84, 63
2, 27644, Note_off_c, 1, 44, 64
2, 27648, Note_off_c, 1, 56, 64
2, 27760, Note_off_c, 1, 84, 64
2, 27760, Note_on_c, 1, 74, 69
2, 27896, Note_on_c, 1, 76, 61
2, 27900, Note_on_c, 1, 56, 49
2, 27904, Note_on_c, 1, 60, 53
2, 27904, Note_on_c, 1, 65, 52
2, 27920, Note_off_c, 1, 74, 64
2, 27928, Note_off_c, 1, 65, 64
2, 27932, Note_off_c, 1, 60, 64
2, 27936, Note_off_c, 1, 56, 64
2, 28052, Note_on_c, 1, 77, 59
2, 28060, Note_off_c, 1, 76, 64
2, 28180, Note_off_c, 1, 77, 64
2, 28188, Note_on_c, 1, 43, 32
2, 28188, Note_on_c, 1, 55, 31
2, 28192, Note_on_c, 1, 72, 54
2, 28196, Note_on_c, 1, 76, 64
2, 28204, Control_c, 1, 64, 127
2, 28220, Note_off_c, 1, 43, 64
2, 28244, Note_off_c, 1, 55, 64
2, 28336, Note_on_c, 1, 81, 80
2, 28408, Note_off_c, 1, 81, 64
2, 28468, Note_on_c, 1, 81, 80
2, 28468, Note_on_c, 1, 55, 58
2, 28472, Note_on_c, 1, 64, 54
2, 28472, Note_on_c, 1, 60, 48
2, 28480, Note_off_c, 1, 76, 64
2, 28488, Note_off_c, 1, 72, 64
2, 28496, Note_off_c, 1, 64, 64
2, 28496, Note_off_c, 1, 60, 64
2, 28504, Note_off_c, 1, 55, 64
2, 28512, Note_off_c, 1, 81, 64
2, 28600, Control_c, 1, 64, 0
2, 28612, Note_on_c, 1, 77, 89
2, 28612, Note_on_c, 1, 81, 86
2, 28612, Note_on_c, 1, 71, 77
2, 28748, Note_on_c, 1, 43, 67
2, 28752, Note_on_c, 1, 55, 69
2, 28756, Control_c, 1, 64, 127
2, 28768, Note_off_c, 1, 43, 64
2, 28772, Note_off_c, 1, 55, 64
2, 28780, Note_off_c, 1, 81, 64
2, 28888, Note_on_c, 1, 79, 75
2, 28896, Note_off_c, 1, 77, 64
2, 28924, Note_off_c, 1, 71, 64
2, 28952, Note_off_c, 1, 79, 64
2, 29024, Note_on_c, 1, 74, 77
2, 29032, Note_on_c, 1, 55, 54
2, 29032, Note_on_c, 1, 59, 61
2, 29032, Note_on_c, 1, 71, 60
2, 29040, Note_off_c, 1, 55, 64
2, 29040, Note_off_c, 1, 59, 64
2, 29160, Note_on_c, 1, 79, 77
2, 29188, Note_off_c, 1, 74, 64
2, 29188, Note_off_c, 1, 71, 64
2, 29200, Note_off_c, 1, 79, 64
2, 29300, Control_c, 1, 64, 0
2, 29308, Note_on_c, 1, 76, 80
2, 29308, Note_on_c, 1, 72, 75
2, 29308, Note_on_c, 1, 79, 80
2, 29308, Note_on_c, 1, 36, 75
2, 29308, Note_on_c, 1, 48, 73
2, 29340, Control_c, 1, 64, 127
2, 29360, Note_off_c, 1, 36, 64
2, 29372, Note_off_c, 1, 48, 64
2, 29616, Note_on_c, 1, 64, 75
2, 29616, Note_on_c, 1, 55, 75
2, 29616, Note_on_c, 1, 60, 65
2, 29628, Note_off_c, 1, 64, 64
2, 29628, Note_off_c, 1, 60, 64
2, 29632, Note_off_c, 1, 55, 64
2, 29696, Note_off_c, 1, 76, 64
2, 29724, Note_off_c, 1, 79, 64
2, 29744, Note_off_c, 1, 72, 64
2, 29804, Note_on_c, 1, 78, 62
2, 29848, Note_off_c, 1, 78, 64
2, 29884, Note_on_c, 1, 40, 80
2, 29884, Note_on_c, 1, 76, 83
2, 29888, Note_on_c, 1, 72, 67
2, 29888, Note_on_c, 1, 52, 89
2, 29888, Note_on_c, 1, 79, 89
2, 29892, Control_c, 1, 64, 0
2, 29928, Control_c, 1, 64, 127
2, 29944, Note_off_c, 1, 40, 64
2, 29956, Note_off_c, 1, 52, 64
2, 30184, Note_on_c, 1, 55, 83
2, 30188, Note_on_c, 1, 64, 80
2, 30192, Note_on_c, 1, 60, 80
2, 30200, Note_off_c, 1, 60, 64
2, 30204, Note_off_c, 1, 55, 64
2, 30204, Note_off_c, 1, 64, 64
2, 30308, Note_off_c, 1, 76, 64
2, 30308, Note_off_c, 1, 72, 64
2, 30308, Note_off_c, 1, 79, 64
2, 30460, Note_on_c, 1, 45, 92
2, 30460, Note_on_c, 1, 57, 82
2, 30464, Note_on_c, 1, 84, 82
2, 30464, Note_on_c, 1, 72, 67
2, 30464, Control_c, 1, 64, 0
2, 30496, Control_c, 1, 64, 127
2, 30520, Note_off_c, 1, 84, 64
2, 30520, Note_off_c, 1, 72, 64
2, 30584, Note_off_c, 1, 45, 64
2, 30584, Note_off_c, 1, 57, 64
2, 30736, Note_on_c, 1, 81, 83
2, 30736, Note_on_c, 1, 41, 96
2, 30740, Note_on_c, 1, 53, 96
2, 30740, Note_on_c, 1, 69, 64
2, 30752, Control_c, 1, 64, 0
2, 30784, Control_c, 1, 64, 127
2, 30824, Note_off_c, 1, 81, 64
2, 30832, Note_off_c, 1, 69, 64
2, 30856, Note_off_c, 1, 41, 64
2, 30860, Note_off_c, 1, 53, 64
2, 31012, Note_on_c, 1, 40, 86
2, 31012, Note_on_c, 1, 79, 75
2, 31016, Note_on_c, 1, 52, 86
2, 31016, Note_on_c, 1, 67, 67
2, 31016, Note_on_c, 1, 72, 69
2, 31016, Note_on_c, 1, 76, 77
2, 31036, Control_c, 1, 64, 0
2, 31064, Control_c, 1, 64, 127
2, 31076, Note_off_c, 1, 67, 64
2, 31084, Note_off_c, 1, 72, 64
2, 31096, Note_off_c, 1, 79, 64
2, 31096, Note_off_c, 1, 76, 64
2, 31108, Note_off_c, 1, 52, 64
2, 31120, Note_off_c, 1, 40, 64
2, 31296, Note_on_c, 1, 36, 80
2, 31304, Note_on_c, 1, 48, 86
2, 31304, Note_on_c, 1, 81, 67
2, 31304, Note_on_c, 1, 69, 69
2, 31312, Control_c, 1, 64, 0
2, 31336, Control_c, 1, 64, 127
2, 31344, Note_off_c, 1, 81, 64
2, 31344, Note_off_c, 1, 69, 64
2, 31452, Note_off_c, 1, 48, 64
2, 31452, Note_on_c, 1, 82, 73
2, 31460, Note_off_c, 1, 36, 64
2, 31460, Note_on_c, 1, 70, 63
2, 31492, Note_off_c, 1, 82, 64
2, 31492, Note_off_c, 1, 70, 64
2, 31592, Note_on_c, 1, 83, 92
2, 31596, Note_on_c, 1, 75, 89
2, 31596, Note_on_c, 1, 78, 89
2, 31596, Note_on_c, 1, 71, 83
2, 31596, Note_on_c, 1, 35, 86
2, 31600, Note_on_c, 1, 47, 83
2, 31608, Control_c, 1, 64, 0
2, 31652, Control_c, 1, 64, 127
2, 31664, Note_off_c, 1, 35, 64
2, 31672, Note_off_c, 1, 47, 64
2, 31872, Note_on_c, 1, 57, 86
2, 31872, Note_on_c, 1, 45, 92
2, 31872, Control_c, 1, 64, 0
2, 31912, Control_c, 1, 64, 127
2, 31952, Note_off_c, 1, 83, 64
2, 31956, Note_off_c, 1, 75, 64
2, 31956, Note_off_c, 1, 71, 64
2, 31960, Note_off_c, 1, 57, 64
2, 31964, Note_off_c, 1, 78, 64
2, 31972, Note_off_c, 1, 45, 64
2, 32140, Note_on_c, 1, 83, 92
2, 32140, Note_on_c, 1, 78, 96
2, 32144, Note_on_c, 1, 75, 105
2, 32144, Note_on_c, 1, 71, 86
2, 32144, Note_on_c, 1, 43, 75
2, 32144, Note_on_c, 1, 55, 73
2, 32156, Control_c, 1, 64, 0
2, 32204, Control_c, 1, 64, 127
2, 32248, Note_off_c, 1, 55, 64
2, 32260, Note_off_c, 1, 43, 64
2, 32436, Note_on_c, 1, 42, 92
2, 32436, Note_on_c, 1, 54, 96
2, 32440, Control_c, 1, 64, 0
2, 32472, Control_c, 1, 64, 127
2, 32516, Note_off_c, 1, 75, 64
2, 32520, Note_off_c, 1, 78, 64
2, 32520, Note_off_c, 1, 54, 64
2, 32528, Note_off_c, 1, 83, 64
2, 32528, Note_off_c, 1, 71, 64
2, 32528, Note_off_c, 1, 42, 64
2, 32708, Note_on_c, 1, 83, 83
2, 32708, Note_on_c, 1, 79, 83
2, 32712, Note_on_c, 1, 71, 80
2, 32712, Note_on_c, 1, 76, 80
2, 32720, Note_on_c, 1, 40, 92
2, 32720, Note_on_c, 1, 52, 86
2, 32732, Control_c, 1, 64, 0
2, 32772, Control_c, 1, 64, 127
2, 32796, Note_off_c, 1, 40, 64
2, 32808, Note_off_c, 1, 52, 64
2, 32856, Note_off_c, 1, 83, 64
2, 32856, Note_off_c, 1, 79, 64
2, 32860, Note_off_c, 1, 76, 64
2, 32868, Note_off_c, 1, 71, 64
2, 33000, Note_on_c, 1, 55, 62
2, 33004, Note_on_c, 1, 59, 63
2, 33008, Note_on_c, 1, 64, 63
2, 33008, Note_on_c, 1, 76, 86
2, 33020, Note_off_c, 1, 59, 64
2, 33020, Note_off_c, 1, 64, 64
2, 33020, Control_c, 1, 64, 0
2, 33024, Note_off_c, 1, 55, 64
2, 33136, Note_on_c, 1, 79, 71
2, 33136, Control_c, 1, 64, 127
2, 33156, Note_off_c, 1, 76, 64
2, 33172, Note_off_c, 1, 79, 64
2, 33280, Note_on_c, 1, 77, 100
2, 33280, Note_on_c, 1, 79, 92
2, 33284, Note_on_c, 1, 71, 80
2, 33288, Note_on_c, 1, 50, 64
2, 33304, Control_c, 1, 64, 0
2, 33428, Note_on_c, 1, 47, 56
2, 33512, Note_off_c, 1, 47, 64
2, 33564, Control_c, 1, 64, 127
2, 33568, Note_on_c, 1, 43, 58
2, 33592, Note_off_c, 1, 77, 64
2, 33600, Note_off_c, 1, 79, 64
2, 33608, Note_off_c, 1, 71, 64
2, 33616, Note_off_c, 1, 43, 64
2, 33620, Note_off_c, 1, 50, 64
2, 33748, Note_on_c, 1, 78, 77
2, 33800, Note_off_c, 1, 78, 64
2, 33848, Note_on_c, 1, 79, 100
2, 33848, Note_on_c, 1, 72, 75
2, 33848, Note_on_c, 1, 76, 92
2, 33852, Note_on_c, 1, 36, 69
2, 33852, Note_on_c, 1, 48, 73
2, 33856, Control_c, 1, 64, 0
2, 33904, Control_c, 1, 64, 127
2, 33920, Note_off_c, 1, 36, 64
2, 33936, Note_off_c, 1, 48, 64
2, 34128, Note_on_c, 1, 55, 67
2, 34128, Note_on_c, 1, 64, 69
2, 34128, Note_on_c, 1, 60, 65
2, 34128, Control_c, 1, 64, 0
2, 34144, Note_off_c, 1, 64, 64
2, 34152, Note_off_c, 1, 55, 64
2, 34152, Note_off_c, 1, 60, 64
2, 34256, Note_off_c, 1, 79, 64
2, 34256, Note_off_c, 1, 72, 64
2, 34256, Note_off_c, 1, 76, 64
2, 34312, Note_on_c, 1, 78, 86
2, 34376, Note_off_c, 1, 78, 64
2, 34400, Note_on_c, 1, 79, 89
2, 34400, Note_on_c, 1, 76, 80
2, 34400, Note_on_c, 1, 72, 75
2, 34400, Note_on_c, 1, 40, 67
2, 34404, Note_on_c, 1, 52, 63
2, 34416, Control_c, 1, 64, 127
2, 34432, Note_off_c, 1, 40, 64
2, 34448, Note_off_c, 1, 52, 64
2, 34684, Note_on_c, 1, 55, 65
2, 34688, Note_on_c, 1, 64, 61
2, 34688, Note_on_c, 1, 60, 57
2, 34688, Control_c, 1, 64, 0
2, 34716, Note_off_c, 1, 60, 64
2, 34720, Note_off_c, 1, 55, 64
2, 34720, Note_off_c, 1, 64, 64
2, 34768, Note_off_c, 1, 79, 64
2, 34768, Note_off_c, 1, 76, 64
2, 34768, Note_off_c, 1, 72, 64
2, 34972, Note_on_c, 1, 84, 83
2, 34976, Note_on_c, 1, 72, 73
2, 34976, Note_on_c, 1, 45, 58
2, 34976, Note_on_c, 1, 57, 57
2, 34976, Control_c, 1, 64, 127
2, 34988, Note_off_c, 1, 84, 64
2, 34988, Note_off_c, 1, 72, 64
2, 35000, Note_off_c, 1, 45, 64
2, 35000, Note_off_c, 1, 57, 64
2, 35240, Control_c, 1, 64, 0
2, 35248, Note_on_c, 1, 81, 75
2, 35248, Note_on_c, 1, 41, 56
2, 35252, Note_on_c, 1, 69, 71
2, 35252, Note_on_c, 1, 53, 60
2, 35264, Control_c, 1, 64, 127
2, 35296, Note_off_c, 1, 81, 64
2, 35296, Note_off_c, 1, 69, 64
2, 35296, Note_off_c, 1, 53, 64
2, 35304, Note_off_c, 1, 41, 64
2, 35504, Control_c, 1, 64, 0
2, 35532, Note_on_c, 1, 79, 67
2, 35536, Note_on_c, 1, 67, 63
2, 35536, Note_on_c, 1, 72, 62
2, 35536, Note_on_c, 1, 76, 69
2, 35544, Note_on_c, 1, 40, 39
2, 35548, Note_on_c, 1, 52, 47
2, 35556, Control_c, 1, 64, 127
2, 35568, Note_off_c, 1, 40, 64
2, 35584, Note_off_c, 1, 52, 64
2, 35824, Control_c, 1, 64, 0
2, 35836, Note_on_c, 1, 48, 43
2, 35840, Note_on_c, 1, 60, 40
2, 35848, Control_c, 1, 64, 127
2, 35856, Note_off_c, 1, 67, 64
2, 35860, Note_off_c, 1, 72, 64
2, 35860, Note_off_c, 1, 76, 64
2, 35864, Note_off_c, 1, 79, 64
2, 35880, Note_off_c, 1, 60, 64
2, 35888, Note_off_c, 1, 48, 64
2, 36104, Control_c, 1, 64, 0
2, 36108, Note_on_c, 1, 80, 71
2, 36108, Note_on_c, 1, 68, 61
2, 36112, Note_on_c, 1, 76, 86
2, 36112, Note_on_c, 1, 74, 92
2, 36120, Note_on_c, 1, 47, 63
2, 36144, Note_off_c, 1, 47, 64
2, 36144, Control_c, 1, 64, 127
2, 36284, Note_off_c, 1, 80, 64
2, 36284, Note_off_c, 1, 68, 64
2, 36316, Note_off_c, 1, 76, 64
2, 36372, Note_off_c, 1, 74, 64
2, 36392, Note_on_c, 1, 56, 53
2, 36396, Note_on_c, 1, 59, 65
2, 36396, Note_on_c, 1, 62, 57
2, 36400, Note_on_c, 1, 64, 47
2, 36408, Note_off_c, 1, 56, 64
2, 36412, Note_off_c, 1, 59, 64
2, 36412, Note_off_c, 1, 62, 64
2, 36416, Note_off_c, 1, 64, 64
2, 36516, Note_on_c, 1, 81, 77
2, 36520, Note_on_c, 1, 69, 69
2, 36536, Note_off_c, 1, 69, 64
2, 36544, Note_off_c, 1, 81, 64
2, 36652, Note_on_c, 1, 83, 86
2, 36652, Note_on_c, 1, 80, 73
2, 36656, Note_on_c, 1, 74, 80
2, 36656, Note_on_c, 1, 71, 65
2, 36664, Note_on_c, 1, 40, 61
2, 36664, Control_c, 1, 64, 0
2, 36668, Note_on_c, 1, 52, 60
2, 36696, Note_off_c, 1, 40, 64
2, 36696, Control_c, 1, 64, 127
2, 36704, Note_off_c, 1, 52, 64
2, 36740, Note_off_c, 1, 83, 64
2, 36760, Note_off_c, 1, 74, 64
2, 36760, Note_off_c, 1, 71, 64
2, 36764, Note_off_c, 1, 80, 64
2, 36944, Note_on_c, 1, 80, 75
2, 36944, Note_on_c, 1, 76, 77
2, 36948, Note_on_c, 1, 68, 63
2, 36948, Note_on_c, 1, 74, 92
2, 36948, Note_on_c, 1, 56, 55
2, 36952, Note_on_c, 1, 64, 48
2, 36952, Note_on_c, 1, 62, 38
2, 36968, Note_on_c, 1, 59, 23
2, 36984, Note_off_c, 1, 68, 64
2, 36988, Note_off_c, 1, 56, 64
2, 36988, Note_off_c, 1, 62, 64
2, 36988, Note_off_c, 1, 59, 64
2, 36996, Note_off_c, 1, 76, 64
2, 37000, Note_off_c, 1, 74, 64
2, 37000, Note_off_c, 1, 64, 64
2, 37028, Note_off_c, 1, 80, 64
2, 37228, Note_on_c, 1, 76, 69
2, 37228, Note_on_c, 1, 81, 86
2, 37232, Note_on_c, 1, 72, 73
2, 37232, Note_on_c, 1, 69, 67
2, 37232, Control_c, 1, 64, 0
2, 37240, Note_on_c, 1, 45, 65
2, 37244, Note_on_c, 1, 57, 55
2, 37268, Control_c, 1, 64, 127
2, 37284, Note_off_c, 1, 45, 64
2, 37304, Note_off_c, 1, 57, 64
2, 37524, Note_on_c, 1, 57, 56
2, 37524, Note_on_c, 1, 60, 54
2, 37524, Control_c, 1, 64, 0
2, 37528, Note_on_c, 1, 64, 53
2, 37636, Note_off_c, 1, 64, 64
2, 37652, Note_off_c, 1, 60, 64
2, 37656, Note_off_c, 1, 57, 64
2, 37680, Control_c, 1, 64, 127
2, 37724, Control_c, 1, 64, 0
2, 37800, Note_on_c, 1, 48, 61
2, 37808, Note_on_c, 1, 60, 57
2, 37868, Note_off_c, 1, 60, 64
2, 37888, Note_off_c, 1, 48, 64
2, 37940, Note_off_c, 1, 81, 64
2, 37944, Note_off_c, 1, 69, 64
2, 37948, Control_c, 1, 64, 127
2, 37952, Note_off_c, 1, 76, 64
2, 37952, Note_off_c, 1, 72, 64
2, 37996, Control_c, 1, 64, 0
2, 38096, Note_on_c, 1, 79, 60
2, 38096, Note_on_c, 1, 46, 46
2, 38096, Note_on_c, 1, 76, 51
2, 38096, Note_on_c, 1, 58, 48
2, 38100, Note_on_c, 1, 72, 48
2, 38100, Note_on_c, 1, 67, 32
2, 38100, Control_c, 1, 64, 127
2, 38120, Note_off_c, 1, 67, 64
2, 38128, Note_off_c, 1, 79, 64
2, 38128, Note_off_c, 1, 76, 64
2, 38128, Note_off_c, 1, 72, 64
2, 38132, Note_off_c, 1, 46, 64
2, 38132, Note_off_c, 1, 58, 64
2, 38356, Control_c, 1, 64, 0
2, 38364, Note_on_c, 1, 45, 28
2, 38364, Note_on_c, 1, 77, 65
2, 38364, Note_on_c, 1, 57, 32
2, 38396, Control_c, 1, 64, 127
2, 38428, Note_off_c, 1, 45, 64
2, 38448, Note_off_c, 1, 57, 64
2, 38516, Note_on_c, 1, 88, 77
2, 38632, Note_on_c, 1, 57, 62
2, 38640, Note_on_c, 1, 60, 31
2, 38640, Note_on_c, 1, 65, 52
2, 38660, Note_off_c, 1, 65, 64
2, 38664, Note_off_c, 1, 57, 64
2, 38664, Note_off_c, 1, 60, 64
2, 38768, Note_off_c, 1, 88, 64
2, 38776, Note_on_c, 1, 86, 77
2, 38900, Control_c, 1, 64, 0
2, 38916, Note_off_c, 1, 77, 64
2, 38916, Note_off_c, 1, 86, 64
2, 38916, Note_on_c, 1, 44, 56
2, 38916, Note_on_c, 1, 84, 73
2, 38920, Note_on_c, 1, 56, 47
2, 38936, Control_c, 1, 64, 127
2, 38952, Note_off_c, 1, 44, 64
2, 38964, Note_off_c, 1, 56, 64
2, 39064, Note_on_c, 1, 74, 65
2, 39068, Note_off_c, 1, 84, 64
2, 39200, Note_on_c, 1, 56, 34
2, 39208, Note_on_c, 1, 76, 62
2, 39208, Note_on_c, 1, 65, 40
2, 39212, Note_off_c, 1, 74, 64
2, 39216, Note_on_c, 1, 60, 25
2, 39236, Note_off_c, 1, 65, 64
2, 39240, Note_off_c, 1, 60, 64
2, 39256, Note_off_c, 1, 56, 64
2, 39344, Note_on_c, 1, 77, 73
2, 39356, Note_off_c, 1, 76, 64
2, 39380, Note_off_c, 1, 77, 64
2, 39464, Control_c, 1, 64, 0
2, 39480, Note_on_c, 1, 76, 69
2, 39480, Note_on_c, 1, 72, 58
2, 39480, Note_on_c, 1, 43, 56
2, 39484, Note_on_c, 1, 55, 55
2, 39496, Control_c, 1, 64, 127
2, 39512, Note_off_c, 1, 43, 64
2, 39528, Note_off_c, 1, 55, 64
2, 39556, Note_off_c, 1, 76, 64
2, 39556, Note_on_c, 1, 77, 60
2, 39612, Note_on_c, 1, 76, 67
2, 39616, Note_off_c, 1, 77, 64
2, 39784, Note_on_c, 1, 55, 59
2, 39788, Note_on_c, 1, 64, 47
2, 39792, Note_off_c, 1, 76, 64
2, 39792, Note_on_c, 1, 60, 49
2, 39796, Note_off_c, 1, 72, 64
2, 39824, Note_off_c, 1, 64, 64
2, 39824, Note_off_c, 1, 60, 64
2, 39828, Note_off_c, 1, 55, 64
2, 40060, Note_on_c, 1, 81, 71
2, 40060, Note_on_c, 1, 69, 61
2, 40064, Note_on_c, 1, 53, 49
2, 40064, Note_on_c, 1, 65, 45
2, 40072, Control_c, 1, 64, 0
2, 40100, Control_c, 1, 64, 127
2, 40140, Note_off_c, 1, 53, 64
2, 40144, Note_off_c, 1, 65, 64
2, 40156, Note_off_c, 1, 81, 64
2, 40156, Note_off_c, 1, 69, 64
2, 40336, Control_c, 1, 64, 0
2, 40344, Note_on_c, 1, 79, 62
2, 40344, Note_on_c, 1, 52, 45
2, 40344, Note_on_c, 1, 67, 57
2, 40348, Note_on_c, 1, 64, 45
2, 40356, Control_c, 1, 64, 127
2, 40372, Note_off_c, 1, 79, 64
2, 40392, Note_off_c, 1, 67, 64
2, 40392, Note_off_c, 1, 64, 64
2, 40408, Note_off_c, 1, 52, 64
2, 40608, Note_on_c, 1, 45, 61
2, 40612, Note_on_c, 1, 72, 62
2, 40612, Note_on_c, 1, 66, 45
2, 40636, Control_c, 1, 64, 0
2, 40900, Note_on_c, 1, 57, 59
2, 40916, Control_c, 1, 64, 127
2, 40960, Note_off_c, 1, 72, 64
2, 40968, Note_off_c, 1, 66, 64
2, 41016, Note_off_c, 1, 45, 64
2, 41172, Note_on_c, 1, 43, 30
2, 41188, Note_on_c, 1, 71, 55
2, 41188, Note_on_c, 1, 74, 63
2, 41188, Note_on_c, 1, 65, 44
2, 41188, Control_c, 1, 64, 0
2, 41216, Note_off_c, 1, 57, 64
2, 41476, Note_on_c, 1, 55, 30
2, 41488, Control_c, 1, 64, 127
2, 41512, Note_off_c, 1, 65, 64
2, 41516, Note_off_c, 1, 71, 64
2, 41516, Note_off_c, 1, 74, 64
2, 41536, Note_off_c, 1, 55, 64
2, 41540, Note_off_c, 1, 43, 64
2, 41732, Control_c, 1, 64, 0
2, 41748, Note_on_c, 1, 48, 38
2, 41748, Note_on_c, 1, 55, 43
2, 41748, Note_on_c, 1, 72, 54
2, 41752, Note_on_c, 1, 64, 43
2, 41752, Control_c, 1, 64, 127
2, 41764, Note_off_c, 1, 64, 64
2, 41768, Note_off_c, 1, 48, 64
2, 41776, Note_off_c, 1, 72, 64
2, 41780, Note_off_c, 1, 55, 64
2, 42004, Control_c, 1, 64, 0
2, 42020, Note_on_c, 1, 79, 69
2, 42024, Note_on_c, 1, 76, 83
2, 42040, Control_c, 1, 64, 127
2, 42064, Note_off_c, 1, 76, 64
2, 42160, Note_on_c, 1, 84, 60
2, 42176, Note_off_c, 1, 79, 64
2, 42184, Note_off_c, 1, 84, 64
2, 42304, Note_on_c, 1, 77, 73
2, 42308, Note_on_c, 1, 86, 83
2, 42332, Control_c, 1, 64, 0
2, 42380, Note_off_c, 1, 77, 64
2, 42536, Note_off_c, 1, 86, 64
2, 42616, Note_on_c, 1, 88, 67
2, 42616, Note_on_c, 1, 79, 54
2, 42620, Control_c, 1, 64, 127
2, 42704, Note_off_c, 1, 88, 64
2, 42716, Note_off_c, 1, 79, 64
2, 42892, Control_c, 1, 64, 0
2, 42900, Note_on_c, 1, 89, 59
2, 42900, Note_on_c, 1, 43, 71
2, 42904, Note_on_c, 1, 86, 63
2, 42912, Control_c, 1, 64, 127
2, 42916, Note_off_c, 1, 43, 64
2, 43160, Note_off_c, 1, 89, 64
2, 43176, Note_on_c, 1, 65, 54
2, 43180, Note_off_c, 1, 86, 64
2, 43180, Note_on_c, 1, 55, 33
2, 43180, Note_on_c, 1, 59, 49
2, 43192, Note_off_c, 1, 59, 64
2, 43200, Note_off_c, 1, 65, 64
2, 43200, Control_c, 1, 64, 0
2, 43204, Note_off_c, 1, 55, 64
2, 43304, Note_on_c, 1, 88, 65
2, 43308, Note_on_c, 1, 84, 63
2, 43316, Control_c, 1, 64, 127
2, 43324, Note_off_c, 1, 84, 64
2, 43328, Note_off_c, 1, 88, 64
2, 43392, Control_c, 1, 64, 0
2, 43432, Note_on_c, 1, 83, 57
2, 43440, Note_on_c, 1, 86, 69
2, 43444, Note_on_c, 1, 47, 63
2, 43444, Control_c, 1, 64, 127
2, 43456, Note_off_c, 1, 86, 64
2, 43456, Note_off_c, 1, 47, 64
2, 43460, Note_off_c, 1, 83, 64
2, 43580, Note_on_c, 1, 83, 69
2, 43580, Note_on_c, 1, 79, 61
2, 43720, Note_on_c, 1, 55, 56
2, 43720, Control_c, 1, 64, 0
2, 43724, Note_on_c, 1, 59, 59
2, 43728, Note_on_c, 1, 65, 50
2, 43748, Note_off_c, 1, 55, 64
2, 43748, Note_off_c, 1, 59, 64
2, 43752, Note_off_c, 1, 65, 64
2, 43756, Note_off_c, 1, 79, 64
2, 43760, Note_off_c, 1, 83, 64
2, 43860, Note_on_c, 1, 81, 63
2, 43860, Note_on_c, 1, 84, 63
2, 43880, Note_off_c, 1, 81, 64
2, 43892, Note_off_c, 1, 84, 64
2, 44004, Note_on_c, 1, 50, 60
2, 44004, Note_on_c, 1, 79, 59
2, 44012, Note_on_c, 1, 83, 64
2, 44020, Control_c, 1, 64, 127
2, 44024, Note_off_c, 1, 50, 64
2, 44068, Note_off_c, 1, 83, 64
2, 44076, Note_off_c, 1, 79, 64
2, 44284, Note_on_c, 1, 81, 61
2, 44284, Note_on_c, 1, 77, 61
2, 44284, Note_on_c, 1, 55, 56
2, 44292, Note_on_c, 1, 65, 52
2, 44292, Note_on_c, 1, 59, 40
2, 44296, Control_c, 1, 64, 0
2, 44312, Note_off_c, 1, 81, 64
2, 44312, Note_off_c, 1, 77, 64
2, 44312, Note_off_c, 1, 65, 64
2, 44320, Note_off_c, 1, 55, 64
2, 44320, Note_off_c, 1, 59, 64
2, 44436, Note_on_c, 1, 77, 77
2, 44436, Note_on_c, 1, 74, 63
2, 44564, Note_on_c, 1, 43, 61
2, 44576, Control_c, 1, 64, 127
2, 44580, Note_off_c, 1, 43, 64
2, 44636, Note_off_c, 1, 77, 64
2, 44660, Note_off_c, 1, 74, 64
2, 44704, Note_on_c, 1, 76, 71
2, 44708, Note_on_c, 1, 73, 58
2, 44724, Note_off_c, 1, 73, 64
2, 44732, Note_off_c, 1, 76, 64
2, 44852, Note_on_c, 1, 77, 67
2, 44852, Note_on_c, 1, 74, 63
2, 44852, Note_on_c, 1, 55, 47
2, 44856, Note_on_c, 1, 65, 50
2, 44860, Note_on_c, 1, 59, 29
2, 44876, Note_off_c, 1, 74, 64
2, 44876, Note_off_c, 1, 65, 64
2, 44876, Note_off_c, 1, 59, 64
2, 44884, Note_off_c, 1, 77, 64
2, 44884, Note_off_c, 1, 55, 64
2, 45080, Control_c, 1, 64, 0
2, 45140, Note_on_c, 1, 78, 59
2, 45144, Note_on_c, 1, 48, 30
2, 45144, Note_on_c, 1, 75, 47
2, 45148, Note_on_c, 1, 60, 34
2, 45176, Control_c, 1, 64, 127
2, 45180, Note_off_c, 1, 48, 64
2, 45188, Note_off_c, 1, 60, 64
2, 45268, Control_c, 1, 64, 0
2, 45276, Note_off_c, 1, 78, 64
2, 45276, Note_off_c, 1, 75, 64
2, 45284, Note_on_c, 1, 79, 60
2, 45284, Note_on_c, 1, 76, 51
2, 45416, Note_on_c, 1, 55, 49
2, 45420, Note_on_c, 1, 64, 50
2, 45428, Note_on_c, 1, 60, 25
2, 45440, Note_off_c, 1, 64, 64
2, 45440, Note_off_c, 1, 60, 64
2, 45448, Note_off_c, 1, 55, 64
2, 45456, Note_off_c, 1, 79, 64
2, 45460, Note_off_c, 1, 76, 64
2, 45556, Note_on_c, 1, 75, 59
2, 45556, Note_on_c, 1, 78, 58
2, 45688, Note_off_c, 1, 75, 64
2, 45688, Note_on_c, 1, 76, 69
2, 45692, Note_off_c, 1, 78, 64
2, 45692, Note_on_c, 1, 79, 73
2, 45692, Note_on_c, 1, 48, 56
2, 45700, Control_c, 1, 64, 127
2, 45716, Note_off_c, 1, 48, 64
2, 45764, Note_off_c, 1, 79, 64
2, 45772, Note_off_c, 1, 76, 64
2, 45824, Note_on_c, 1, 77, 75
2, 45824, Note_on_c, 1, 74, 69
2, 45852, Note_off_c, 1, 77, 64
2, 45852, Note_off_c, 1, 74, 64
2, 45976, Note_on_c, 1, 76, 67
2, 45980, Note_on_c, 1, 72, 56
2, 45980, Note_on_c, 1, 55, 45
2, 45980, Note_on_c, 1, 60, 49
2, 45980, Note_on_c, 1, 64, 49
2, 46004, Note_off_c, 1, 64, 64
2, 46008, Note_off_c, 1, 60, 64
2, 46016, Note_off_c, 1, 55, 64
2, 46020, Note_off_c, 1, 76, 64
2, 46028, Note_off_c, 1, 72, 64
2, 46272, Note_on_c, 1, 54, 64
2, 46276, Note_on_c, 1, 72, 62
2, 46276, Note_on_c, 1, 75, 69
2, 46276, Note_on_c, 1, 69, 56
2, 46284, Control_c, 1, 64, 0
2, 46408, Note_on_c, 1, 55, 67
2, 46420, Note_off_c, 1, 54, 64
2, 46552, Note_on_c, 1, 57, 49
2, 46560, Note_off_c, 1, 55, 64
2, 46684, Note_on_c, 1, 54, 39
2, 46700, Note_off_c, 1, 57, 64
2, 46708, Note_off_c, 1, 69, 64
2, 46712, Note_off_c, 1, 75, 64
2, 46712, Control_c, 1, 64, 127
2, 46716, Note_off_c, 1, 72, 64
2, 46792, Control_c, 1, 64, 0
2, 46836, Note_on_c, 1, 55, 42
2, 46840, Note_on_c, 1, 76, 49
2, 46840, Note_on_c, 1, 67, 29
2, 46844, Note_on_c, 1, 72, 34
2, 46852, Note_off_c, 1, 54, 64
2, 46940, Note_off_c, 1, 55, 64
2, 47020, Note_off_c, 1, 67, 64
2, 47088, Note_off_c, 1, 72, 64
2, 47116, Note_off_c, 1, 76, 64
2, 47120, Note_on_c, 1, 52, 52
2, 47128, Control_c, 1, 64, 127
2, 47188, Note_off_c, 1, 52, 64
2, 47304, Control_c, 1, 64, 0
2, 47384, Note_on_c, 1, 50, 51
2, 47384, Note_on_c, 1, 76, 59
2, 47388, Note_on_c, 1, 73, 44
2, 47412, Note_off_c, 1, 50, 64
2, 47516, Note_off_c, 1, 73, 64
2, 47520, Note_off_c, 1, 76, 64
2, 47520, Note_on_c, 1, 74, 56
2, 47528, Note_on_c, 1, 77, 54
2, 47668, Note_on_c, 1, 55, 54
2, 47672, Note_on_c, 1, 65, 52
2, 47672, Note_on_c, 1, 59, 49
2, 47692, Note_off_c, 1, 59, 64
2, 47696, Note_off_c, 1, 55, 64
2, 47696, Note_off_c, 1, 65, 64
2, 47804, Note_off_c, 1, 77, 64
2, 47812, Note_off_c, 1, 74, 64
2, 47820, Note_on_c, 1, 73, 46
2, 47828, Note_on_c, 1, 76, 55
2, 47956, Note_on_c, 1, 43, 30
2, 47960, Note_off_c, 1, 73, 64
2, 47964, Note_off_c, 1, 76, 64
2, 47964, Note_on_c, 1, 77, 65
2, 47964, Note_on_c, 1, 74, 65
2, 47972, Note_off_c, 1, 43, 64
2, 47972, Control_c, 1, 64, 127
2, 48052, Control_c, 1, 64, 0
2, 48092, Note_off_c, 1, 77, 64
2, 48092, Note_off_c, 1, 74, 64
2, 48104, Note_on_c, 1, 76, 58
2, 48104, Note_on_c, 1, 72, 42
2, 48224, Note_off_c, 1, 72, 64
2, 48236, Note_on_c, 1, 74, 58
2, 48236, Note_on_c, 1, 55, 45
2, 48236, Note_on_c, 1, 71, 55
2, 48244, Note_off_c, 1, 76, 64
2, 48244, Note_on_c, 1, 65, 53
2, 48244, Note_on_c, 1, 59, 33
2, 48244, Control_c, 1, 64, 127
2, 48264, Note_off_c, 1, 65, 64
2, 48268, Note_off_c, 1, 59, 64
2, 48272, Note_off_c, 1, 74, 64
2, 48272, Note_off_c, 1, 71, 64
2, 48288, Note_off_c, 1, 55, 64
2, 48512, Control_c, 1, 64, 0
2, 48516, Note_on_c, 1, 43, 69
2, 48532, Note_on_c, 1, 73, 52
2, 48532, Note_on_c, 1, 70, 50
2, 48532, Note_on_c, 1, 64, 51
2, 48660, Note_on_c, 1, 51, 52
2, 48792, Note_on_c, 1, 52, 56
2, 48804, Note_off_c, 1, 51, 64
2, 48924, Control_c, 1, 64, 127
2, 48932, Note_off_c, 1, 64, 64
2, 48932, Note_on_c, 1, 55, 54
2, 48940, Note_off_c, 1, 73, 64
2, 48940, Note_off_c, 1, 70, 64
2, 48952, Note_off_c, 1, 52, 64
2, 48992, Note_off_c, 1, 43, 64
2, 49056, Note_off_c, 1, 55, 64
2, 49084, Note_on_c, 1, 74, 58
2, 49084, Note_on_c, 1, 43, 55
2, 49088, Note_on_c, 1, 71, 48
2, 49088, Note_on_c, 1, 65, 39
2, 49092, Control_c, 1, 64, 0
2, 49140, Note_off_c, 1, 71, 64
2, 49140, Note_off_c, 1, 65, 64
2, 49180, Note_off_c, 1, 74, 64
2, 49256, Note_off_c, 1, 43, 64
2, 49364, Note_on_c, 1, 74, 73
2, 49368, Note_on_c, 1, 77, 83
2, 49380, Control_c, 1, 64, 127
2, 49384, Note_off_c, 1, 74, 64
2, 49392, Note_off_c, 1, 77, 64
2, 49628, Note_on_c, 1, 48, 29
2, 49632, Control_c, 1, 64, 0
2, 49660, Note_on_c, 1, 78, 59
2, 49660, Note_on_c, 1, 75, 57
2, 49668, Note_off_c, 1, 48, 64
2, 49792, Note_off_c, 1, 75, 64
2, 49800, Note_off_c, 1, 78, 64
2, 49800, Note_on_c, 1, 79, 59
2, 49800, Note_on_c, 1, 76, 43
2, 49932, Note_on_c, 1, 55, 49
2, 49936, Note_on_c, 1, 64, 50
2, 49936, Note_on_c, 1, 60, 41
2, 49952, Note_off_c, 1, 79, 64
2, 49952, Note_off_c, 1, 76, 64
2, 50068, Note_on_c, 1, 78, 60
2, 50072, Note_on_c, 1, 75, 60
2, 50080, Control_c, 1, 64, 127
2, 50088, Note_off_c, 1, 55, 64
2, 50096, Note_off_c, 1, 64, 64
2, 50096, Note_off_c, 1, 60, 64
2, 50200, Note_off_c, 1, 78, 64
2, 50200, Note_off_c, 1, 75, 64
2, 50200, Control_c, 1, 64, 0
2, 50208, Note_on_c, 1, 76, 65
2, 50208, Note_on_c, 1, 79, 75
2, 50212, Note_on_c, 1, 55, 50
2, 50220, Note_on_c, 1, 64, 50
2, 50220, Note_on_c, 1, 60, 52
2, 50240, Control_c, 1, 64, 127
2, 50276, Note_off_c, 1, 76, 64
2, 50276, Note_off_c, 1, 79, 64
2, 50276, Note_off_c, 1, 64, 64
2, 50284, Note_off_c, 1, 55, 64
2, 50284, Note_off_c, 1, 60, 64
2, 50496, Note_on_c, 1, 81, 71
2, 50496, Note_on_c, 1, 77, 67
2, 50496, Control_c, 1, 64, 0
2, 50500, Note_on_c, 1, 65, 45
2, 50500, Note_on_c, 1, 57, 55
2, 50504, Note_on_c, 1, 60, 47
2, 50532, Control_c, 1, 64, 127
2, 50548, Note_off_c, 1, 60, 64
2, 50556, Note_off_c, 1, 65, 64
2, 50560, Note_off_c, 1, 57, 64
2, 50564, Note_off_c, 1, 81, 64
2, 50588, Note_off_c, 1, 77, 64
2, 50776, Control_c, 1, 64, 0
2, 50784, Note_on_c, 1, 76, 56
2, 50784, Note_on_c, 1, 79, 62
2, 50788, Note_on_c, 1, 55, 43
2, 50788, Note_on_c, 1, 60, 30
2, 50788, Note_on_c, 1, 64, 35
2, 50804, Control_c, 1, 64, 127
2, 50816, Note_off_c, 1, 76, 64
2, 50816, Note_off_c, 1, 55, 64
2, 50820, Note_off_c, 1, 60, 64
2, 50836, Note_off_c, 1, 64, 64
2, 50840, Note_off_c, 1, 79, 64
2, 51056, Note_on_c, 1, 76, 71
2, 51060, Note_on_c, 1, 84, 65
2, 51064, Control_c, 1, 64, 0
2, 51188, Note_off_c, 1, 76, 64
2, 51348, Note_on_c, 1, 86, 62
2, 51352, Note_off_c, 1, 84, 64
2, 51352, Note_on_c, 1, 77, 38
2, 51476, Note_off_c, 1, 77, 64
2, 51628, Note_on_c, 1, 79, 55
2, 51628, Note_on_c, 1, 88, 37
2, 51632, Note_off_c, 1, 86, 64
2, 51648, Control_c, 1, 64, 127
2, 51660, Note_off_c, 1, 79, 64
2, 51724, Note_off_c, 1, 88, 64
2, 51892, Control_c, 1, 64, 0
2, 51908, Note_on_c, 1, 43, 43
2, 51924, Control_c, 1, 64, 127
2, 51928, Note_off_c, 1, 43, 64
2, 51932, Note_on_c, 1, 89, 61
2, 51932, Note_on_c, 1, 86, 59
2, 52168, Note_off_c, 1, 89, 64
2, 52168, Note_off_c, 1, 86, 64
2, 52204, Note_on_c, 1, 65, 53
2, 52204, Note_on_c, 1, 59, 32
2, 52212, Note_on_c, 1, 55, 30
2, 52232, Note_off_c, 1, 65, 64
2, 52232, Note_off_c, 1, 59, 64
2, 52236, Note_off_c, 1, 55, 64
2, 52244, Control_c, 1, 64, 0
2, 52340, Note_on_c, 1, 88, 61
2, 52340, Note_on_c, 1, 84, 54
2, 52352, Note_off_c, 1, 84, 64
2, 52356, Note_off_c, 1, 88, 64
2, 52476, Note_on_c, 1, 86, 67
2, 52484, Note_on_c, 1, 83, 30
2, 52484, Note_on_c, 1, 47, 52
2, 52484, Control_c, 1, 64, 127
2, 52500, Note_off_c, 1, 86, 64
2, 52504, Note_off_c, 1, 83, 64
2, 52504, Note_off_c, 1, 47, 64
2, 52616, Note_on_c, 1, 83, 62
2, 52616, Note_on_c, 1, 79, 59
2, 52664, Note_off_c, 1, 79, 64
2, 52692, Note_off_c, 1, 83, 64
2, 52768, Note_on_c, 1, 55, 31
2, 52772, Note_on_c, 1, 65, 43
2, 52772, Note_on_c, 1, 59, 26
2, 52788, Note_off_c, 1, 59, 64
2, 52796, Note_off_c, 1, 55, 64
2, 52796, Note_off_c, 1, 65, 64
2, 52900, Note_on_c, 1, 84, 62
2, 52912, Note_on_c, 1, 81, 44
2, 52924, Note_off_c, 1, 84, 64
2, 52928, Note_off_c, 1, 81, 64
2, 53044, Control_c, 1, 64, 0
2, 53048, Note_on_c, 1, 50, 53
2, 53052, Note_on_c, 1, 83, 56
2, 53056, Note_on_c, 1, 79, 46
2, 53068, Control_c, 1, 64, 127
2, 53080, Note_off_c, 1, 50, 64
2, 53080, Note_off_c, 1, 83, 64
2, 53088, Note_off_c, 1, 79, 64
2, 53316, Note_on_c, 1, 81, 55
2, 53320, Note_on_c, 1, 55, 43
2, 53320, Note_on_c, 1, 65, 35
2, 53320, Note_on_c, 1, 77, 60
2, 53320, Note_on_c, 1, 59, 28
2, 53348, Note_off_c, 1, 65, 64
2, 53352, Note_off_c, 1, 77, 64
2, 53352, Note_off_c, 1, 59, 64
2, 53356, Note_off_c, 1, 81, 64
2, 53364, Note_off_c, 1, 55, 64
2, 53456, Control_c, 1, 64, 0
2, 53472, Note_on_c, 1, 77, 80
2, 53472, Note_on_c, 1, 74, 65
2, 53596, Note_on_c, 1, 43, 58
2, 53604, Control_c, 1, 64, 127
2, 53620, Note_off_c, 1, 77, 64
2, 53620, Note_off_c, 1, 43, 64
2, 53644, Note_off_c, 1, 74, 64
2, 53736, Note_on_c, 1, 76, 73
2, 53736, Note_on_c, 1, 73, 55
2, 53752, Note_off_c, 1, 73, 64
2, 53764, Note_off_c, 1, 76, 64
2, 53884, Note_on_c, 1, 77, 83
2, 53884, Note_on_c, 1, 55, 54
2, 53888, Note_on_c, 1, 74, 64
2, 53892, Note_on_c, 1, 65, 48
2, 53912, Note_off_c, 1, 65, 64
2, 53916, Note_off_c, 1, 74, 64
2, 53920, Note_off_c, 1, 77, 64
2, 53920, Note_off_c, 1, 55, 64
2, 54144, Control_c, 1, 64, 0
2, 54172, Note_on_c, 1, 78, 64
2, 54172, Note_on_c, 1, 48, 29
2, 54172, Note_on_c, 1, 75, 58
2, 54176, Note_on_c, 1, 60, 45
2, 54188, Control_c, 1, 64, 127
2, 54200, Note_off_c, 1, 48, 64
2, 54220, Note_off_c, 1, 60, 64
2, 54292, Note_off_c, 1, 75, 64
2, 54308, Note_on_c, 1, 79, 69
2, 54312, Note_off_c, 1, 78, 64
2, 54316, Note_on_c, 1, 76, 31
2, 54340, Note_off_c, 1, 79, 64
2, 54340, Note_off_c, 1, 76, 64
2, 54444, Note_on_c, 1, 55, 57
2, 54448, Note_on_c, 1, 64, 45
2, 54448, Note_on_c, 1, 60, 45
2, 54472, Note_off_c, 1, 64, 64
2, 54472, Note_off_c, 1, 60, 64
2, 54476, Note_off_c, 1, 55, 64
2, 54576, Note_on_c, 1, 84, 71
2, 54608, Note_off_c, 1, 84, 64
2, 54716, Control_c, 1, 64, 0
2, 54720, Note_on_c, 1, 52, 55
2, 54724, Note_on_c, 1, 84, 77
2, 54724, Note_on_c, 1, 76, 73
2, 54732, Note_on_c, 1, 79, 75
2, 54748, Control_c, 1, 64, 127
2, 54764, Note_off_c, 1, 52, 64
2, 54784, Note_off_c, 1, 79, 64
2, 54796, Note_off_c, 1, 76, 64
2, 54808, Note_off_c, 1, 84, 64
2, 55016, Note_on_c, 1, 84, 80
2, 55016, Note_on_c, 1, 80, 73
2, 55016, Note_on_c, 1, 76, 64
2, 55020, Note_on_c, 1, 58, 29
2, 55020, Control_c, 1, 64, 0
2, 55024, Note_on_c, 1, 60, 27
2, 55024, Note_on_c, 1, 64, 30
2, 55044, Control_c, 1, 64, 127
2, 55060, Note_off_c, 1, 58, 64
2, 55064, Note_off_c, 1, 60, 64
2, 55068, Note_off_c, 1, 76, 64
2, 55072, Note_off_c, 1, 64, 64
2, 55080, Note_off_c, 1, 80, 64
2, 55084, Note_off_c, 1, 84, 64
2, 55256, Note_on_c, 1, 53, 35
2, 55268, Note_on_c, 1, 77, 34
2, 55284, Note_on_c, 1, 81, 69
2, 55308, Control_c, 1, 64, 0
2, 55312, Note_on_c, 1, 84, 67
2, 55584, Note_on_c, 1, 60, 30
2, 55584, Note_on_c, 1, 65, 38
2, 55592, Note_on_c, 1, 57, 24
2, 55640, Note_off_c, 1, 60, 64
2, 55644, Note_off_c, 1, 65, 64
2, 55644, Note_off_c, 1, 57, 64
2, 55828, Control_c, 1, 64, 127
2, 55856, Note_off_c, 1, 81, 64
2, 55856, Note_off_c, 1, 84, 64
2, 55868, Note_off_c, 1, 77, 64
2, 55892, Note_on_c, 1, 65, 30
2, 55896, Note_on_c, 1, 57, 25
2, 55896, Note_on_c, 1, 60, 24
2, 55972, Note_off_c, 1, 57, 64
2, 55980, Note_off_c, 1, 60, 64
2, 55988, Note_off_c, 1, 53, 64
2, 55988, Note_off_c, 1, 65, 64
2, 56164, Note_on_c, 1, 57, 52
2, 56164, Note_on_c, 1, 69, 69
2, 56168, Control_c, 1, 64, 0
2, 56188, Control_c, 1, 64, 127
2, 56200, Note_off_c, 1, 57, 64
2, 56228, Note_off_c, 1, 69, 64
2, 56440, Note_on_c, 1, 77, 43
2, 56440, Note_on_c, 1, 69, 41
2, 56444, Note_on_c, 1, 62, 24
2, 56448, Control_c, 1, 64, 0
2, 56828, Note_on_c, 1, 76, 49
2, 56832, Note_off_c, 1, 77, 64
2, 56836, Note_on_c, 1, 64, 23
2, 56840, Note_off_c, 1, 62, 64
2, 56988, Note_on_c, 1, 74, 56
2, 57004, Note_off_c, 1, 76, 64
2, 57008, Note_on_c, 1, 65, 23
2, 57020, Note_off_c, 1, 64, 64
2, 57100, Note_off_c, 1, 69, 64
2, 57100, Note_off_c, 1, 74, 64
2, 57108, Note_off_c, 1, 65, 64
2, 57280, Note_on_c, 1, 57, 26
2, 57284, Note_on_c, 1, 69, 46
2, 57292, Control_c, 1, 64, 127
2, 57332, Note_off_c, 1, 57, 64
2, 57348, Note_off_c, 1, 69, 64
2, 57564, Note_on_c, 1, 62, 23
2, 57564, Note_on_c, 1, 77, 44
2, 57564, Note_on_c, 1, 69, 30
2, 57592, Control_c, 1, 64, 0
2, 57976, Note_on_c, 1, 64, 25
2, 57976, Note_on_c, 1, 76, 44
2, 57984, Note_off_c, 1, 77, 64
2, 57988, Note_off_c, 1, 62, 64
2, 58140, Note_on_c, 1, 65, 23
2, 58164, Note_off_c, 1, 64, 64
2, 58168, Note_on_c, 1, 74, 39
2, 58172, Note_off_c, 1, 76, 64
2, 58200, Control_c, 1, 64, 127
2, 58232, Note_off_c, 1, 69, 64
2, 58252, Note_off_c, 1, 74, 64
2, 58396, Note_off_c, 1, 65, 64
2, 58412, Note_on_c, 1, 69, 75
2, 58420, Note_on_c, 1, 57, 62
2, 58420, Control_c, 1, 64, 0
2, 58544, Note_on_c, 1, 68, 73
2, 58548, Note_on_c, 1, 56, 51
2, 58552, Note_off_c, 1, 69, 64
2, 58552, Note_off_c, 1, 57, 64
2, 58676, Note_on_c, 1, 55, 49
2, 58680, Note_off_c, 1, 56, 64
2, 58688, Note_off_c, 1, 68, 64
2, 58688, Note_on_c, 1, 67, 57
2, 58700, Note_off_c, 1, 55, 64
2, 58820, Note_on_c, 1, 68, 63
2, 58828, Note_off_c, 1, 67, 64
2, 58956, Note_off_c, 1, 68, 64
2, 58968, Note_on_c, 1, 69, 62
2, 58972, Note_on_c, 1, 65, 55
2, 58972, Note_on_c, 1, 59, 49
2, 58988, Note_off_c, 1, 65, 64
2, 58996, Note_off_c, 1, 59, 64
2, 59108, Note_on_c, 1, 70, 61
2, 59112, Note_off_c, 1, 69, 64
2, 59244, Note_on_c, 1, 43, 58
2, 59260, Note_on_c, 1, 71, 51
2, 59264, Note_off_c, 1, 70, 64
2, 59264, Note_off_c, 1, 43, 64
2, 59396, Note_on_c, 1, 74, 63
2, 59404, Note_off_c, 1, 71, 64
2, 59528, Note_off_c, 1, 74, 64
2, 59532, Note_on_c, 1, 55, 53
2, 59544, Note_on_c, 1, 69, 56
2, 59544, Note_on_c, 1, 65, 42
2, 59544, Note_on_c, 1, 59, 29
2, 59556, Note_off_c, 1, 65, 64
2, 59556, Note_off_c, 1, 59, 64
2, 59576, Note_off_c, 1, 55, 64
2, 59680, Note_on_c, 1, 71, 48
2, 59688, Note_off_c, 1, 69, 64
2, 59720, Note_off_c, 1, 71, 64
2, 59816, Note_on_c, 1, 48, 62
2, 59820, Note_on_c, 1, 72, 67
2, 59820, Note_on_c, 1, 60, 58
2, 59820, Note_on_c, 1, 64, 61
2, 59824, Control_c, 1, 64, 127
2, 59832, Note_off_c, 1, 48, 64
2, 59836, Note_off_c, 1, 60, 64
2, 59836, Note_off_c, 1, 64, 64
2, 59840, Note_off_c, 1, 72, 64
2, 60100, Note_on_c, 1, 76, 83
2, 60100, Note_on_c, 1, 79, 65
2, 60104, Control_c, 1, 64, 0
2, 60168, Note_off_c, 1, 76, 64
2, 60244, Note_on_c, 1, 84, 69
2, 60376, Note_off_c, 1, 84, 64
2, 60384, Note_on_c, 1, 77, 89
2, 60384, Note_on_c, 1, 86, 75
2, 60408, Note_off_c, 1, 79, 64
2, 60512, Note_off_c, 1, 77, 64
2, 60672, Note_on_c, 1, 79, 75
2, 60680, Note_off_c, 1, 86, 64
2, 60680, Note_on_c, 1, 88, 64
2, 60680, Control_c, 1, 64, 127
2, 60696, Note_off_c, 1, 79, 64
2, 60736, Note_off_c, 1, 88, 64
2, 60948, Note_on_c, 1, 43, 80
2, 60956, Note_on_c, 1, 89, 66
2, 60956, Note_on_c, 1, 86, 56
2, 60960, Note_off_c, 1, 43, 64
2, 61008, Control_c, 1, 64, 0
2, 61224, Note_on_c, 1, 55, 56
2, 61228, Note_on_c, 1, 65, 60
2, 61228, Note_on_c, 1, 59, 64
2, 61248, Note_off_c, 1, 65, 64
2, 61248, Note_off_c, 1, 59, 64
2, 61252, Note_off_c, 1, 55, 64
2, 61352, Note_off_c, 1, 86, 64
2, 61368, Note_off_c, 1, 89, 64
2, 61368, Note_on_c, 1, 88, 56
2, 61368, Note_on_c, 1, 84, 34
2, 61496, Note_on_c, 1, 47, 58
2, 61512, Note_off_c, 1, 88, 64
2, 61512, Note_off_c, 1, 84, 64
2, 61516, Note_on_c, 1, 86, 64
2, 61516, Note_on_c, 1, 83, 49
2, 61528, Note_off_c, 1, 47, 64
2, 61532, Control_c, 1, 64, 127
2, 61580, Note_off_c, 1, 86, 64
2, 61580, Note_off_c, 1, 83, 64
2, 61652, Note_on_c, 1, 83, 63
2, 61664, Note_on_c, 1, 79, 55
2, 61740, Note_off_c, 1, 79, 64
2, 61764, Note_off_c, 1, 83, 64
2, 61784, Note_on_c, 1, 55, 56
2, 61788, Note_on_c, 1, 59, 38
2, 61792, Note_on_c, 1, 65, 49
2, 61804, Note_off_c, 1, 55, 64
2, 61812, Note_off_c, 1, 59, 64
2, 61812, Note_off_c, 1, 65, 64
2, 61816, Control_c, 1, 64, 0
2, 61920, Note_on_c, 1, 81, 53
2, 61920, Note_on_c, 1, 84, 56
2, 61940, Note_off_c, 1, 84, 64
2, 61948, Note_off_c, 1, 81, 64
2, 62072, Note_on_c, 1, 50, 54
2, 62076, Note_on_c, 1, 83, 58
2, 62080, Note_on_c, 1, 79, 42
2, 62088, Control_c, 1, 64, 127
2, 62096, Note_off_c, 1, 50, 64
2, 62132, Note_off_c, 1, 83, 64
2, 62132, Note_off_c, 1, 79, 64
2, 62336, Note_on_c, 1, 55, 30
2, 62344, Note_on_c, 1, 81, 60
2, 62344, Note_on_c, 1, 65, 45
2, 62344, Note_on_c, 1, 77, 65
2, 62348, Note_on_c, 1, 59, 25
2, 62368, Control_c, 1, 64, 0
2, 62372, Note_off_c, 1, 65, 64
2, 62372, Note_off_c, 1, 59, 64
2, 62376, Note_off_c, 1, 55, 64
2, 62376, Note_off_c, 1, 81, 64
2, 62376, Note_off_c, 1, 77, 64
2, 62500, Note_on_c, 1, 77, 83
2, 62504, Note_on_c, 1, 74, 67
2, 62632, Note_on_c, 1, 43, 63
2, 62632, Control_c, 1, 64, 127
2, 62648, Note_off_c, 1, 43, 64
2, 62700, Note_off_c, 1, 77, 64
2, 62716, Note_off_c, 1, 74, 64
2, 62768, Note_on_c, 1, 76, 69
2, 62772, Note_on_c, 1, 73, 53
2, 62788, Note_off_c, 1, 73, 64
2, 62796, Note_off_c, 1, 76, 64
2, 62912, Note_on_c, 1, 74, 65
2, 62912, Note_on_c, 1, 55, 59
2, 62916, Note_on_c, 1, 77, 71
2, 62916, Note_on_c, 1, 59, 57
2, 62920, Note_on_c, 1, 65, 30
2, 62924, Note_off_c, 1, 65, 64
2, 62936, Note_off_c, 1, 55, 64
2, 62936, Note_off_c, 1, 59, 64
2, 63036, Note_off_c, 1, 74, 64
2, 63044, Note_off_c, 1, 77, 64
2, 63184, Control_c, 1, 64, 0
2, 63196, Note_on_c, 1, 48, 45
2, 63208, Note_on_c, 1, 78, 60
2, 63216, Note_off_c, 1, 48, 64
2, 63220, Note_on_c, 1, 75, 36
2, 63336, Note_off_c, 1, 78, 64
2, 63336, Note_off_c, 1, 75, 64
2, 63344, Note_on_c, 1, 79, 63
2, 63352, Note_on_c, 1, 76, 44
2, 63480, Note_on_c, 1, 55, 39
2, 63492, Note_on_c, 1, 64, 42
2, 63492, Note_on_c, 1, 60, 36
2, 63504, Note_off_c, 1, 79, 64
2, 63512, Note_off_c, 1, 76, 64
2, 63512, Note_off_c, 1, 64, 64
2, 63516, Note_off_c, 1, 60, 64
2, 63528, Note_off_c, 1, 55, 64
2, 63620, Note_on_c, 1, 78, 60
2, 63620, Note_on_c, 1, 75, 51
2, 63764, Note_off_c, 1, 75, 64
2, 63764, Note_on_c, 1, 48, 37
2, 63768, Note_on_c, 1, 79, 67
2, 63768, Note_on_c, 1, 76, 53
2, 63772, Note_off_c, 1, 78, 64
2, 63772, Control_c, 1, 64, 127
2, 63788, Note_off_c, 1, 48, 64
2, 63824, Note_off_c, 1, 79, 64
2, 63844, Note_off_c, 1, 76, 64
2, 63904, Note_on_c, 1, 77, 69
2, 63904, Note_on_c, 1, 74, 63
2, 63932, Note_off_c, 1, 74, 64
2, 63936, Note_off_c, 1, 77, 64
2, 64048, Note_on_c, 1, 76, 61
2, 64052, Note_on_c, 1, 72, 52
2, 64052, Note_on_c, 1, 55, 62
2, 64056, Note_on_c, 1, 64, 55
2, 64056, Note_on_c, 1, 60, 43
2, 64068, Note_off_c, 1, 64, 64
2, 64068, Note_off_c, 1, 60, 64
2, 64072, Note_off_c, 1, 55, 64
2, 64088, Note_off_c, 1, 76, 64
2, 64096, Note_off_c, 1, 72, 64
2, 64340, Note_on_c, 1, 54, 69
2, 64340, Note_on_c, 1, 75, 66
2, 64344, Note_on_c, 1, 72, 63
2, 64348, Note_on_c, 1, 69, 39
2, 64356, Control_c, 1, 64, 0
2, 64472, Note_on_c, 1, 55, 73
2, 64492, Note_off_c, 1, 54, 64
2, 64616, Note_on_c, 1, 57, 63
2, 64624, Note_off_c, 1, 55, 64
2, 64744, Note_on_c, 1, 54, 65
2, 64744, Control_c, 1, 64, 127
2, 64752, Note_off_c, 1, 69, 64
2, 64760, Note_off_c, 1, 75, 64
2, 64760, Note_off_c, 1, 57, 64
2, 64768, Note_off_c, 1, 72, 64
2, 64856, Control_c, 1, 64, 0
2, 64888, Note_on_c, 1, 55, 48
2, 64896, Note_on_c, 1, 76, 52
2, 64904, Note_on_c, 1, 67, 33
2, 64904, Note_on_c, 1, 72, 30
2, 64908, Note_off_c, 1, 54, 64
2, 64968, Note_off_c, 1, 55, 64
2, 65180, Note_on_c, 1, 52, 56
2, 65208, Note_off_c, 1, 67, 64
2, 65208, Note_off_c, 1, 72, 64
2, 65220, Note_off_c, 1, 52, 64
2, 65232, Note_off_c, 1, 76, 64
2, 65440, Note_on_c, 1, 50, 60
2, 65468, Note_off_c, 1, 50, 64
2, 65476, Note_on_c, 1, 73, 61
2, 65476, Note_on_c, 1, 76, 65
2, 65604, Note_off_c, 1, 73, 64
2, 65604, Note_off_c, 1, 76, 64
2, 65608, Note_on_c, 1, 77, 62
2, 65612, Note_on_c, 1, 74, 54
2, 65744, Note_on_c, 1, 55, 46
2, 65744, Note_on_c, 1, 65, 47
2, 65752, Note_off_c, 1, 77, 64
2, 65756, Note_on_c, 1, 59, 23
2, 65768, Note_off_c, 1, 74, 64
2, 65768, Note_off_c, 1, 65, 64
2, 65768, Note_off_c, 1, 59, 64
2, 65776, Note_off_c, 1, 55, 64
2, 65880, Note_on_c, 1, 76, 65
2, 65880, Note_on_c, 1, 73, 54
2, 66012, Note_on_c, 1, 43, 56
2, 66016, Note_off_c, 1, 73, 64
2, 66024, Note_on_c, 1, 77, 60
2, 66028, Note_off_c, 1, 76, 64
2, 66028, Note_on_c, 1, 74, 60
2, 66040, Note_off_c, 1, 43, 64
2, 66156, Note_off_c, 1, 77, 64
2, 66156, Note_on_c, 1, 76, 60
2, 66160, Note_off_c, 1, 74, 64
2, 66168, Note_on_c, 1, 72, 33
2, 66300, Note_off_c, 1, 72, 64
2, 66300, Note_on_c, 1, 71, 44
2, 66300, Note_on_c, 1, 74, 63
2, 66304, Note_on_c, 1, 55, 29
2, 66308, Note_off_c, 1, 76, 64
2, 66308, Note_on_c, 1, 59, 29
2, 66312, Note_on_c, 1, 65, 30
2, 66332, Control_c, 1, 64, 127
2, 66340, Note_off_c, 1, 65, 64
2, 66344, Note_off_c, 1, 71, 64
2, 66344, Note_off_c, 1, 55, 64
2, 66344, Note_off_c, 1, 59, 64
2, 66352, Note_off_c, 1, 74, 64
2, 66540, Control_c, 1, 64, 0
2, 66588, Note_on_c, 1, 73, 54
2, 66596, Note_on_c, 1, 64, 34
2, 66600, Note_on_c, 1, 43, 25
2, 66600, Note_on_c, 1, 70, 29
2, 66724, Note_on_c, 1, 51, 50
2, 66864, Note_on_c, 1, 52, 62
2, 66872, Note_off_c, 1, 51, 64
2, 66992, Note_on_c, 1, 55, 57
2, 67000, Note_off_c, 1, 64, 64
2, 67000, Note_off_c, 1, 70, 64
2, 67000, Control_c, 1, 64, 127
2, 67004, Note_off_c, 1, 73, 64
2, 67008, Note_off_c, 1, 52, 64
2, 67052, Note_off_c, 1, 43, 64
2, 67148, Note_on_c, 1, 74, 57
2, 67148, Note_on_c, 1, 71, 41
2, 67148, Note_on_c, 1, 65, 30
2, 67152, Note_off_c, 1, 55, 64
2, 67152, Note_on_c, 1, 43, 32
2, 67160, Control_c, 1, 64, 0
2, 67208, Note_off_c, 1, 65, 64
2, 67212, Note_off_c, 1, 71, 64
2, 67240, Note_off_c, 1, 74, 64
2, 67444, Note_on_c, 1, 74, 64
2, 67444, Note_on_c, 1, 77, 73
2, 67444, Control_c, 1, 64, 127
2, 67452, Note_off_c, 1, 43, 64
2, 67460, Note_off_c, 1, 74, 64
2, 67472, Note_off_c, 1, 77, 64
2, 67708, Control_c, 1, 64, 0
2, 67720, Note_on_c, 1, 78, 60
2, 67720, Note_on_c, 1, 75, 60
2, 67720, Note_on_c, 1, 48, 55
2, 67736, Note_off_c, 1, 48, 64
2, 67848, Note_off_c, 1, 78, 64
2, 67852, Note_off_c, 1, 75, 64
2, 67856, Note_on_c, 1, 76, 57
2, 67864, Note_on_c, 1, 79, 71
2, 68000, Note_off_c, 1, 76, 64
2, 68000, Note_off_c, 1, 79, 64
2, 68000, Note_on_c, 1, 55, 45
2, 68000, Note_on_c, 1, 60, 42
2, 68004, Note_on_c, 1, 64, 45
2, 68028, Note_off_c, 1, 55, 64
2, 68028, Note_off_c, 1, 60, 64
2, 68028, Note_off_c, 1, 64, 64
2, 68128, Note_on_c, 1, 78, 60
2, 68128, Note_on_c, 1, 75, 63
2, 68272, Note_off_c, 1, 78, 64
2, 68276, Note_on_c, 1, 76, 60
2, 68276, Note_on_c, 1, 79, 73
2, 68280, Note_off_c, 1, 75, 64
2, 68280, Note_on_c, 1, 55, 52
2, 68280, Note_on_c, 1, 64, 51
2, 68280, Note_on_c, 1, 60, 45
2, 68316, Note_off_c, 1, 64, 64
2, 68324, Note_off_c, 1, 60, 64
2, 68332, Note_off_c, 1, 55, 64
2, 68364, Note_off_c, 1, 76, 64
2, 68364, Note_off_c, 1, 79, 64
2, 68552, Note_on_c, 1, 57, 56
2, 68556, Note_on_c, 1, 60, 37
2, 68556, Note_on_c, 1, 81, 63
2, 68556, Note_on_c, 1, 77, 58
2, 68556, Note_on_c, 1, 65, 43
2, 68604, Note_off_c, 1, 60, 64
2, 68604, Note_off_c, 1, 65, 64
2, 68608, Note_off_c, 1, 57, 64
2, 68624, Note_off_c, 1, 81, 64
2, 68636, Note_off_c, 1, 77, 64
2, 68844, Note_on_c, 1, 79, 61
2, 68844, Note_on_c, 1, 76, 55
2, 68844, Note_on_c, 1, 55, 32
2, 68844, Note_on_c, 1, 60, 29
2, 68848, Note_on_c, 1, 64, 30
2, 68848, Control_c, 1, 64, 127
2, 68868, Note_off_c, 1, 76, 64
2, 68876, Note_off_c, 1, 79, 64
2, 68876, Note_off_c, 1, 55, 64
2, 68876, Note_off_c, 1, 60, 64
2, 68896, Note_off_c, 1, 64, 64
2, 69116, Note_on_c, 1, 84, 77
2, 69116, Control_c, 1, 64, 0
2, 69120, Note_on_c, 1, 76, 61
2, 69144, Note_off_c, 1, 76, 64
2, 69200, Note_off_c, 1, 84, 64
2, 69400, Note_on_c, 1, 77, 69
2, 69400, Note_on_c, 1, 86, 80
2, 69416, Note_off_c, 1, 77, 64
2, 69452, Note_off_c, 1, 86, 64
2, 69696, Note_on_c, 1, 79, 65
2, 69700, Note_on_c, 1, 88, 86
2, 69704, Control_c, 1, 64, 127
2, 69716, Note_off_c, 1, 79, 64
2, 69820, Note_off_c, 1, 88, 64
2, 69828, Note_on_c, 1, 86, 75
2, 69852, Control_c, 1, 64, 0
2, 69888, Note_on_c, 1, 88, 80
2, 69912, Note_off_c, 1, 86, 64
2, 69956, Note_off_c, 1, 88, 64
2, 69968, Note_on_c, 1, 43, 73
2, 69976, Note_on_c, 1, 89, 62
2, 69976, Note_on_c, 1, 86, 75
2, 69980, Control_c, 1, 64, 127
2, 69988, Note_off_c, 1, 43, 64
2, 70240, Note_off_c, 1, 89, 64
2, 70240, Note_off_c, 1, 86, 64
2, 70252, Note_on_c, 1, 55, 53
2, 70252, Note_on_c, 1, 59, 56
2, 70260, Note_on_c, 1, 65, 55
2, 70272, Note_off_c, 1, 59, 64
2, 70272, Note_off_c, 1, 65, 64
2, 70276, Note_off_c, 1, 55, 64
2, 70352, Control_c, 1, 64, 0
2, 70384, Note_on_c, 1, 88, 65
2, 70388, Note_on_c, 1, 84, 64
2, 70488, Note_off_c, 1, 88, 64
2, 70508, Note_off_c, 1, 84, 64
2, 70520, Note_on_c, 1, 47, 64
2, 70524, Note_on_c, 1, 83, 64
2, 70532, Note_on_c, 1, 86, 73
2, 70540, Note_off_c, 1, 47, 64
2, 70540, Note_off_c, 1, 83, 64
2, 70540, Control_c, 1, 64, 127
2, 70544, Note_off_c, 1, 86, 64
2, 70668, Note_on_c, 1, 83, 62
2, 70668, Note_on_c, 1, 79, 64
2, 70812, Note_off_c, 1, 79, 64
2, 70816, Note_on_c, 1, 55, 52
2, 70816, Note_on_c, 1, 59, 51
2, 70820, Note_off_c, 1, 83, 64
2, 70820, Note_on_c, 1, 65, 45
2, 70844, Note_off_c, 1, 59, 64
2, 70844, Note_off_c, 1, 65, 64
2, 70848, Note_off_c, 1, 55, 64
2, 70948, Note_on_c, 1, 84, 67
2, 70956, Note_on_c, 1, 81, 69
2, 70972, Note_off_c, 1, 81, 64
2, 70976, Note_off_c, 1, 84, 64
2, 71080, Control_c, 1, 64, 0
2, 71100, Note_on_c, 1, 83, 80
2, 71100, Note_on_c, 1, 50, 63
2, 71100, Note_on_c, 1, 79, 64
2, 71116, Note_off_c, 1, 50, 64
2, 71116, Control_c, 1, 64, 127
2, 71168, Note_off_c, 1, 83, 64
2, 71176, Note_off_c, 1, 79, 64
2, 71380, Note_on_c, 1, 81, 60
2, 71380, Note_on_c, 1, 77, 67
2, 71384, Note_on_c, 1, 55, 52
2, 71392, Note_on_c, 1, 65, 36
2, 71408, Note_off_c, 1, 77, 64
2, 71408, Control_c, 1, 64, 0
2, 71412, Note_off_c, 1, 81, 64
2, 71412, Note_off_c, 1, 65, 64
2, 71416, Note_off_c, 1, 55, 64
2, 71520, Note_on_c, 1, 77, 80
2, 71524, Note_on_c, 1, 74, 63
2, 71536, Note_on_c, 1, 76, 51
2, 71544, Note_off_c, 1, 76, 64
2, 71656, Note_on_c, 1, 43, 64
2, 71660, Control_c, 1, 64, 127
2, 71676, Note_off_c, 1, 43, 64
2, 71780, Note_off_c, 1, 74, 64
2, 71788, Note_off_c, 1, 77, 64
2, 71792, Note_on_c, 1, 76, 67
2, 71792, Note_on_c, 1, 73, 54
2, 71816, Note_off_c, 1, 76, 64
2, 71816, Note_off_c, 1, 73, 64
2, 71940, Note_on_c, 1, 74, 63
2, 71940, Note_on_c, 1, 77, 71
2, 71944, Note_on_c, 1, 55, 30
2, 71944, Note_on_c, 1, 65, 47
2, 71968, Note_off_c, 1, 55, 64
2, 71968, Note_off_c, 1, 65, 64
2, 72004, Note_off_c, 1, 74, 64
2, 72020, Note_off_c, 1, 77, 64
2, 72168, Control_c, 1, 64, 0
2, 72220, Note_on_c, 1, 48, 57
2, 72228, Note_on_c, 1, 78, 61
2, 72228, Note_on_c, 1, 75, 62
2, 72240, Note_off_c, 1, 48, 64
2, 72244, Note_on_c, 1, 60, 23
2, 72256, Control_c, 1, 64, 127
2, 72268, Note_off_c, 1, 60, 64
2, 72364, Note_off_c, 1, 78, 64
2, 72364, Note_off_c, 1, 75, 64
2, 72372, Note_on_c, 1, 79, 75
2, 72372, Note_on_c, 1, 76, 62
2, 72440, Note_off_c, 1, 76, 64
2, 72448, Note_off_c, 1, 79, 64
2, 72516, Note_on_c, 1, 55, 60
2, 72516, Note_on_c, 1, 64, 49
2, 72520, Note_on_c, 1, 60, 32
2, 72536, Note_off_c, 1, 60, 64
2, 72540, Note_off_c, 1, 55, 64
2, 72540, Note_off_c, 1, 64, 64
2, 72644, Note_on_c, 1, 84, 71
2, 72672, Note_off_c, 1, 84, 64
2, 72784, Control_c, 1, 64, 0
2, 72796, Note_on_c, 1, 84, 80
2, 72796, Note_on_c, 1, 79, 77
2, 72796, Note_on_c, 1, 76, 67
2, 72800, Note_on_c, 1, 52, 52
2, 72816, Control_c, 1, 64, 127
2, 72832, Note_off_c, 1, 52, 64
2, 72908, Note_off_c, 1, 79, 64
2, 72916, Note_off_c, 1, 76, 64
2, 72928, Note_off_c, 1, 84, 64
2, 73060, Note_on_c, 1, 80, 69
2, 73064, Note_on_c, 1, 84, 73
2, 73068, Note_on_c, 1, 76, 62
2, 73068, Note_on_c, 1, 58, 45
2, 73076, Control_c, 1, 64, 0
2, 73080, Note_on_c, 1, 60, 28
2, 73084, Note_on_c, 1, 64, 36
2, 73104, Control_c, 1, 64, 127
2, 73124, Note_off_c, 1, 58, 64
2, 73124, Note_off_c, 1, 60, 64
2, 73128, Note_off_c, 1, 64, 64
2, 73148, Note_off_c, 1, 80, 64
2, 73152, Note_off_c, 1, 76, 64
2, 73168, Note_off_c, 1, 84, 64
2, 73352, Note_on_c, 1, 53, 39
2, 73352, Note_on_c, 1, 77, 61
2, 73356, Note_on_c, 1, 81, 63
2, 73356, Note_on_c, 1, 84, 62
2, 73356, Control_c, 1, 64, 0
2, 73636, Note_on_c, 1, 57, 29
2, 73636, Note_on_c, 1, 60, 29
2, 73640, Note_on_c, 1, 65, 30
2, 73708, Note_off_c, 1, 57, 64
2, 73708, Note_off_c, 1, 60, 64
2, 73712, Note_off_c, 1, 65, 64
2, 73936, Note_on_c, 1, 57, 28
2, 73940, Note_on_c, 1, 65, 29
2, 73940, Note_on_c, 1, 60, 25
2, 73940, Control_c, 1, 64, 127
2, 73948, Note_off_c, 1, 77, 64
2, 73948, Note_off_c, 1, 81, 64
2, 73952, Note_off_c, 1, 84, 64
2, 73984, Note_off_c, 1, 57, 64
2, 73988, Note_off_c, 1, 60, 64
2, 73992, Note_off_c, 1, 53, 64
2, 73996, Note_off_c, 1, 65, 64
2, 74184, Control_c, 1, 64, 0
2, 74188, Note_on_c, 1, 57, 63
2, 74196, Note_on_c, 1, 69, 65
2, 74212, Control_c, 1, 64, 127
2, 74244, Note_off_c, 1, 69, 64
2, 74248, Note_off_c, 1, 57, 64
2, 74472, Note_on_c, 1, 77, 59
2, 74476, Note_on_c, 1, 62, 30
2, 74476, Control_c, 1, 64, 0
2, 74480, Note_on_c, 1, 69, 63
2, 74880, Note_off_c, 1, 62, 64
2, 74880, Note_on_c, 1, 64, 29
2, 74880, Note_on_c, 1, 76, 63
2, 74884, Note_off_c, 1, 77, 64
2, 75048, Note_off_c, 1, 76, 64
2, 75048, Note_on_c, 1, 65, 25
2, 75052, Note_off_c, 1, 64, 64
2, 75052, Note_on_c, 1, 74, 30
2, 75164, Note_off_c, 1, 65, 64
2, 75172, Note_off_c, 1, 69, 64
2, 75172, Note_off_c, 1, 74, 64
2, 75320, Note_on_c, 1, 69, 58
2, 75336, Control_c, 1, 64, 127
2, 75380, Note_off_c, 1, 69, 64
2, 75612, Note_on_c, 1, 74, 63
2, 75616, Note_on_c, 1, 65, 29
2, 75620, Note_on_c, 1, 69, 57
2, 75620, Control_c, 1, 64, 0
2, 76000, Note_off_c, 1, 74, 64
2, 76000, Note_on_c, 1, 76, 62
2, 76004, Note_on_c, 1, 64, 29
2, 76032, Note_off_c, 1, 65, 64
2, 76160, Note_on_c, 1, 77, 61
2, 76164, Note_on_c, 1, 62, 29
2, 76168, Note_off_c, 1, 76, 64
2, 76188, Note_off_c, 1, 64, 64
2, 76228, Note_off_c, 1, 62, 64
2, 76240, Note_off_c, 1, 69, 64
2, 76252, Note_off_c, 1, 77, 64
2, 76448, Note_on_c, 1, 77, 92
2, 76448, Note_on_c, 1, 56, 73
2, 76448, Note_on_c, 1, 44, 75
2, 76448, Note_on_c, 1, 74, 83
2, 76452, Note_on_c, 1, 71, 75
2, 76456, Note_off_c, 1, 44, 64
2, 76464, Note_off_c, 1, 56, 64
2, 76472, Note_off_c, 1, 74, 64
2, 76472, Note_off_c, 1, 71, 64
2, 76488, Note_off_c, 1, 77, 64
2, 76732, Note_on_c, 1, 45, 69
2, 76740, Note_on_c, 1, 78, 81
2, 76744, Note_on_c, 1, 74, 77
2, 76744, Note_on_c, 1, 72, 69
2, 76748, Note_off_c, 1, 45, 64
2, 76876, Note_off_c, 1, 78, 64
2, 76884, Note_on_c, 1, 77, 84
2, 77008, Note_off_c, 1, 77, 64
2, 77016, Note_on_c, 1, 78, 83
2, 77092, Control_c, 1, 64, 127
2, 77152, Note_off_c, 1, 74, 64
2, 77152, Note_off_c, 1, 72, 64
2, 77168, Note_off_c, 1, 78, 64
2, 77296, Note_on_c, 1, 44, 55
2, 77296, Note_on_c, 1, 78, 77
2, 77296, Note_on_c, 1, 56, 54
2, 77300, Note_on_c, 1, 74, 83
2, 77300, Note_on_c, 1, 72, 71
2, 77308, Control_c, 1, 64, 0
2, 77320, Note_off_c, 1, 44, 64
2, 77320, Note_off_c, 1, 56, 64
2, 77444, Note_off_c, 1, 78, 64
2, 77444, Note_on_c, 1, 77, 65
2, 77584, Note_off_c, 1, 77, 64
2, 77588, Note_on_c, 1, 78, 65
2, 77644, Control_c, 1, 64, 127
2, 77684, Note_off_c, 1, 72, 64
2, 77704, Note_off_c, 1, 74, 64
2, 77704, Note_off_c, 1, 78, 64
2, 77864, Note_on_c, 1, 43, 65
2, 77864, Control_c, 1, 64, 0
2, 77868, Note_on_c, 1, 79, 73
2, 77868, Note_on_c, 1, 55, 65
2, 77868, Note_on_c, 1, 74, 67
2, 77868, Note_on_c, 1, 71, 62
2, 78012, Control_c, 1, 64, 127
2, 78060, Note_off_c, 1, 55, 64
2, 78104, Note_off_c, 1, 43, 64
2, 78136, Control_c, 1, 64, 0
2, 78148, Note_on_c, 1, 41, 73
2, 78148, Note_on_c, 1, 53, 80
2, 78204, Control_c, 1, 64, 127
2, 78312, Note_off_c, 1, 53, 64
2, 78324, Note_off_c, 1, 41, 64
2, 78416, Control_c, 1, 64, 0
2, 78432, Note_on_c, 1, 52, 77
2, 78432, Note_on_c, 1, 40, 75
2, 78476, Control_c, 1, 64, 127
2, 78556, Note_off_c, 1, 74, 64
2, 78564, Note_off_c, 1, 79, 64
2, 78572, Note_off_c, 1, 71, 64
2, 78592, Note_off_c, 1, 52, 64
2, 78604, Note_off_c, 1, 40, 64
2, 78628, Control_c, 1, 64, 0
2, 78712, Note_on_c, 1, 79, 89
2, 78712, Note_on_c, 1, 71, 71
2, 78716, Note_on_c, 1, 77, 86
2, 78716, Note_on_c, 1, 38, 83
2, 78716, Note_on_c, 1, 50, 80
2, 78724, Control_c, 1, 64, 127
2, 78756, Note_off_c, 1, 71, 64
2, 78776, Note_off_c, 1, 50, 64
2, 78780, Note_off_c, 1, 79, 64
2, 78780, Note_off_c, 1, 77, 64
2, 78784, Note_off_c, 1, 38, 64
2, 78904, Note_on_c, 1, 78, 86
2, 78960, Note_off_c, 1, 78, 64
2, 78992, Note_on_c, 1, 76, 89
2, 78992, Note_on_c, 1, 72, 75
2, 78992, Note_on_c, 1, 79, 97
2, 78992, Note_on_c, 1, 36, 86
2, 78992, Note_on_c, 1, 48, 89
2, 79004, Control_c, 1, 64, 0
2, 79036, Control_c, 1, 64, 127
2, 79048, Note_off_c, 1, 36, 64
2, 79068, Note_off_c, 1, 48, 64
2, 79280, Note_on_c, 1, 55, 86
2, 79280, Note_on_c, 1, 64, 83
2, 79280, Note_on_c, 1, 60, 80
2, 79292, Note_off_c, 1, 55, 64
2, 79292, Note_off_c, 1, 64, 64
2, 79292, Note_off_c, 1, 60, 64
2, 79312, Note_off_c, 1, 76, 64
2, 79312, Note_off_c, 1, 72, 64
2, 79316, Note_off_c, 1, 79, 64
2, 79472, Note_on_c, 1, 78, 80
2, 79532, Note_off_c, 1, 78, 64
2, 79552, Note_on_c, 1, 76, 92
2, 79552, Control_c, 1, 64, 0
2, 79556, Note_on_c, 1, 79, 99
2, 79556, Note_on_c, 1, 72, 80
2, 79560, Note_on_c, 1, 40, 71
2, 79560, Note_on_c, 1, 52, 75
2, 79584, Control_c, 1, 64, 127
2, 79612, Note_off_c, 1, 40, 64
2, 79620, Note_off_c, 1, 52, 64
2, 79844, Note_on_c, 1, 55, 89
2, 79844, Note_on_c, 1, 64, 83
2, 79852, Note_on_c, 1, 60, 80
2, 79860, Note_off_c, 1, 55, 64
2, 79860, Note_off_c, 1, 64, 64
2, 79860, Note_off_c, 1, 60, 64
2, 79872, Note_off_c, 1, 72, 64
2, 79876, Note_off_c, 1, 76, 64
2, 79884, Note_off_c, 1, 79, 64
2, 80068, Control_c, 1, 64, 0
2, 80124, Note_on_c, 1, 84, 92
2, 80124, Note_on_c, 1, 72, 89
2, 80124, Note_on_c, 1, 45, 80
2, 80124, Control_c, 1, 64, 127
2, 80128, Note_on_c, 1, 57, 75
2, 80140, Note_off_c, 1, 72, 64
2, 80156, Note_off_c, 1, 84, 64
2, 80164, Note_off_c, 1, 57, 64
2, 80172, Note_off_c, 1, 45, 64
2, 80384, Control_c, 1, 64, 0
2, 80400, Note_on_c, 1, 81, 89
2, 80400, Note_on_c, 1, 69, 86
2, 80404, Note_on_c, 1, 41, 86
2, 80404, Note_on_c, 1, 53, 86
2, 80404, Control_c, 1, 64, 127
2, 80420, Note_off_c, 1, 69, 64
2, 80428, Note_off_c, 1, 81, 64
2, 80464, Note_off_c, 1, 41, 64
2, 80468, Note_off_c, 1, 53, 64
2, 80688, Note_on_c, 1, 79, 86
2, 80688, Note_on_c, 1, 76, 75
2, 80696, Note_on_c, 1, 72, 83
2, 80696, Note_on_c, 1, 67, 77
2, 80696, Control_c, 1, 64, 0
2, 80700, Note_on_c, 1, 40, 73
2, 80700, Note_on_c, 1, 52, 71
2, 80736, Control_c, 1, 64, 127
2, 80756, Note_off_c, 1, 40, 64
2, 80768, Note_off_c, 1, 52, 64
2, 80952, Control_c, 1, 64, 0
2, 80964, Note_on_c, 1, 48, 80
2, 80964, Note_on_c, 1, 60, 77
2, 80980, Control_c, 1, 64, 127
2, 80996, Note_off_c, 1, 60, 64
2, 81012, Note_off_c, 1, 48, 64
2, 81036, Note_off_c, 1, 67, 64
2, 81044, Note_off_c, 1, 72, 64
2, 81056, Note_off_c, 1, 76, 64
2, 81068, Note_off_c, 1, 79, 64
2, 81100, Note_on_c, 1, 46, 77
2, 81100, Note_on_c, 1, 58, 73
2, 81124, Note_off_c, 1, 46, 64
2, 81128, Note_off_c, 1, 58, 64
2, 81240, Control_c, 1, 64, 0
2, 81244, Note_on_c, 1, 77, 86
2, 81244, Note_on_c, 1, 45, 83
2, 81248, Note_on_c, 1, 57, 77
2, 81264, Note_off_c, 1, 45, 64
2, 81272, Control_c, 1, 64, 127
2, 81284, Note_off_c, 1, 57, 64
2, 81396, Note_on_c, 1, 88, 80
2, 81520, Note_on_c, 1, 57, 73
2, 81524, Note_on_c, 1, 65, 69
2, 81524, Note_on_c, 1, 60, 63
2, 81532, Note_off_c, 1, 60, 64
2, 81536, Note_off_c, 1, 57, 64
2, 81536, Note_off_c, 1, 65, 64
2, 81652, Note_off_c, 1, 88, 64
2, 81668, Note_on_c, 1, 86, 80
2, 81796, Note_off_c, 1, 86, 64
2, 81796, Note_on_c, 1, 84, 80
2, 81800, Note_on_c, 1, 44, 73
2, 81800, Note_on_c, 1, 56, 73
2, 81804, Note_off_c, 1, 77, 64
2, 81804, Control_c, 1, 64, 0
2, 81840, Control_c, 1, 64, 127
2, 81868, Note_off_c, 1, 44, 64
2, 81876, Note_off_c, 1, 56, 64
2, 81932, Note_on_c, 1, 74, 83
2, 82064, Note_off_c, 1, 74, 64
2, 82080, Note_on_c, 1, 56, 56
2, 82080, Note_on_c, 1, 76, 80
2, 82080, Note_on_c, 1, 65, 63
2, 82080, Note_on_c, 1, 60, 61
2, 82100, Note_off_c, 1, 60, 64
2, 82104, Note_off_c, 1, 65, 64
2, 82108, Note_off_c, 1, 56, 64
2, 82220, Note_off_c, 1, 76, 64
2, 82220, Note_on_c, 1, 77, 75
2, 82236, Note_off_c, 1, 84, 64
2, 82244, Note_off_c, 1, 77, 64
2, 82372, Note_on_c, 1, 43, 63
2, 82372, Note_on_c, 1, 76, 75
2, 82372, Note_on_c, 1, 55, 61
2, 82372, Note_on_c, 1, 72, 73
2, 82380, Control_c, 1, 64, 0
2, 82412, Control_c, 1, 64, 127
2, 82432, Note_off_c, 1, 43, 64
2, 82452, Note_off_c, 1, 55, 64
2, 82516, Note_on_c, 1, 81, 86
2, 82564, Note_off_c, 1, 81, 64
2, 82652, Note_on_c, 1, 81, 80
2, 82656, Note_on_c, 1, 55, 64
2, 82660, Note_on_c, 1, 60, 56
2, 82660, Note_on_c, 1, 64, 61
2, 82672, Note_off_c, 1, 76, 64
2, 82672, Note_off_c, 1, 72, 64
2, 82676, Note_off_c, 1, 55, 64
2, 82676, Note_off_c, 1, 60, 64
2, 82676, Note_off_c, 1, 64, 64
2, 82680, Note_off_c, 1, 81, 64
2, 82704, Control_c, 1, 64, 0
2, 82796, Note_on_c, 1, 81, 92
2, 82796, Note_on_c, 1, 71, 89
2, 82796, Note_on_c, 1, 77, 100
2, 82928, Note_on_c, 1, 43, 71
2, 82936, Note_on_c, 1, 55, 69
2, 82940, Control_c, 1, 64, 127
2, 82948, Note_off_c, 1, 43, 64
2, 82952, Note_off_c, 1, 55, 64
2, 82960, Note_off_c, 1, 81, 64
2, 83068, Note_off_c, 1, 77, 64
2, 83068, Note_on_c, 1, 79, 86
2, 83204, Note_on_c, 1, 55, 69
2, 83204, Note_on_c, 1, 74, 89
2, 83204, Note_on_c, 1, 65, 62
2, 83204, Note_on_c, 1, 59, 65
2, 83212, Note_off_c, 1, 79, 64
2, 83216, Note_off_c, 1, 65, 64
2, 83220, Note_off_c, 1, 55, 64
2, 83220, Note_off_c, 1, 59, 64
2, 83336, Note_on_c, 1, 79, 89
2, 83388, Note_off_c, 1, 79, 64
2, 83396, Note_off_c, 1, 74, 64
2, 83400, Note_off_c, 1, 71, 64
2, 83480, Note_on_c, 1, 79, 105
2, 83480, Note_on_c, 1, 76, 100
2, 83484, Note_on_c, 1, 72, 86
2, 83484, Note_on_c, 1, 36, 73
2, 83484, Note_on_c, 1, 43, 96
2, 83484, Note_on_c, 1, 48, 89
2, 83492, Control_c, 1, 64, 0
2, 83524, Control_c, 1, 64, 127
2, 83536, Note_off_c, 1, 43, 64
2, 83544, Note_off_c, 1, 36, 64
2, 83556, Note_off_c, 1, 48, 64
2, 83780, Note_on_c, 1, 55, 86
2, 83780, Note_on_c, 1, 60, 77
2, 83780, Note_on_c, 1, 64, 80
2, 83792, Note_off_c, 1, 55, 64
2, 83796, Note_off_c, 1, 76, 64
2, 83796, Note_off_c, 1, 60, 64
2, 83796, Note_off_c, 1, 64, 64
2, 83804, Note_off_c, 1, 79, 64
2, 83804, Note_off_c, 1, 72, 64
2, 83952, Note_on_c, 1, 78, 89
2, 84016, Note_off_c, 1, 78, 64
2, 84068, Note_on_c, 1, 79, 98
2, 84068, Note_on_c, 1, 76, 92
2, 84068, Note_on_c, 1, 72, 83
2, 84068, Note_on_c, 1, 52, 75
2, 84068, Note_on_c, 1, 40, 86
2, 84076, Control_c, 1, 64, 0
2, 84112, Control_c, 1, 64, 127
2, 84124, Note_off_c, 1, 40, 64
2, 84136, Note_off_c, 1, 52, 64
2, 84364, Note_on_c, 1, 55, 86
2, 84364, Note_on_c, 1, 64, 89
2, 84368, Note_off_c, 1, 72, 64
2, 84368, Note_on_c, 1, 60, 83
2, 84380, Note_off_c, 1, 79, 64
2, 84380, Note_off_c, 1, 76, 64
2, 84380, Note_off_c, 1, 55, 64
2, 84380, Note_off_c, 1, 64, 64
2, 84380, Note_off_c, 1, 60, 64
2, 84620, Control_c, 1, 64, 0
2, 84636, Note_on_c, 1, 84, 77
2, 84636, Note_on_c, 1, 72, 92
2, 84640, Note_on_c, 1, 83, 47
2, 84640, Note_on_c, 1, 45, 83
2, 84644, Note_off_c, 1, 83, 64
2, 84644, Note_on_c, 1, 57, 86
2, 84644, Control_c, 1, 64, 127
2, 84688, Note_off_c, 1, 72, 64
2, 84696, Note_off_c, 1, 84, 64
2, 84700, Note_off_c, 1, 57, 64
2, 84704, Note_off_c, 1, 45, 64
2, 84924, Note_on_c, 1, 81, 86
2, 84924, Note_on_c, 1, 69, 86
2, 84924, Note_on_c, 1, 41, 89
2, 84928, Note_on_c, 1, 53, 89
2, 84932, Control_c, 1, 64, 0
2, 84968, Control_c, 1, 64, 127
2, 84992, Note_off_c, 1, 81, 64
2, 85004, Note_off_c, 1, 69, 64
2, 85004, Note_off_c, 1, 53, 64
2, 85008, Note_off_c, 1, 41, 64
2, 85196, Note_on_c, 1, 79, 92
2, 85196, Note_on_c, 1, 67, 83
2, 85200, Note_on_c, 1, 76, 80
2, 85200, Note_on_c, 1, 72, 83
2, 85200, Note_on_c, 1, 40, 80
2, 85200, Note_on_c, 1, 52, 83
2, 85208, Control_c, 1, 64, 0
2, 85232, Control_c, 1, 64, 127
2, 85256, Note_off_c, 1, 67, 64
2, 85264, Note_off_c, 1, 72, 64
2, 85276, Note_off_c, 1, 79, 64
2, 85276, Note_off_c, 1, 52, 64
2, 85280, Note_off_c, 1, 76, 64
2, 85280, Note_off_c, 1, 40, 64
2, 85460, Control_c, 1, 64, 0
2, 85468, Note_on_c, 1, 81, 83
2, 85468, Note_on_c, 1, 36, 100
2, 85468, Note_on_c, 1, 48, 92
2, 85472, Note_on_c, 1, 69, 77
2, 85488, Note_off_c, 1, 69, 64
2, 85492, Control_c, 1, 64, 127
2, 85500, Note_off_c, 1, 81, 64
2, 85576, Note_off_c, 1, 36, 64
2, 85576, Note_off_c, 1, 48, 64
2, 85612, Note_on_c, 1, 82, 73
2, 85616, Note_on_c, 1, 70, 77
2, 85628, Note_off_c, 1, 70, 64
2, 85636, Note_off_c, 1, 82, 64
2, 85752, Note_on_c, 1, 83, 99
2, 85756, Note_on_c, 1, 35, 92
2, 85756, Note_on_c, 1, 78, 94
2, 85756, Note_on_c, 1, 71, 92
2, 85756, Note_on_c, 1, 75, 93
2, 85760, Note_on_c, 1, 47, 96
2, 85760, Control_c, 1, 64, 0
2, 85804, Control_c, 1, 64, 127
2, 85824, Note_off_c, 1, 35, 64
2, 85832, Note_off_c, 1, 47, 64
2, 86044, Note_on_c, 1, 45, 105
2, 86044, Note_on_c, 1, 57, 100
2, 86048, Control_c, 1, 64, 0
2, 86092, Control_c, 1, 64, 127
2, 86136, Note_off_c, 1, 45, 64
2, 86136, Note_off_c, 1, 57, 64
2, 86152, Note_off_c, 1, 83, 64
2, 86156, Note_off_c, 1, 78, 64
2, 86156, Note_off_c, 1, 71, 64
2, 86156, Note_off_c, 1, 75, 64
2, 86320, Note_on_c, 1, 83, 104
2, 86320, Note_on_c, 1, 75, 97
2, 86328, Note_on_c, 1, 78, 97
2, 86328, Note_on_c, 1, 71, 96
2, 86328, Note_on_c, 1, 43, 77
2, 86328, Note_on_c, 1, 55, 77
2, 86336, Control_c, 1, 64, 0
2, 86372, Control_c, 1, 64, 127
2, 86412, Note_off_c, 1, 55, 64
2, 86436, Note_off_c, 1, 43, 64
2, 86604, Note_on_c, 1, 54, 96
2, 86604, Note_on_c, 1, 42, 105
2, 86608, Control_c, 1, 64, 0
2, 86640, Control_c, 1, 64, 127
2, 86688, Note_off_c, 1, 75, 64
2, 86692, Note_off_c, 1, 83, 64
2, 86692, Note_off_c, 1, 78, 64
2, 86704, Note_off_c, 1, 71, 64
2, 86708, Note_off_c, 1, 54, 64
2, 86712, Note_off_c, 1, 42, 64
2, 86888, Note_on_c, 1, 83, 92
2, 86888, Note_on_c, 1, 79, 105
2, 86888, Note_on_c, 1, 76, 95
2, 86888, Note_on_c, 1, 71, 96
2, 86892, Note_on_c, 1, 40, 86
2, 86892, Note_on_c, 1, 52, 83
2, 86896, Control_c, 1, 64, 0
2, 86940, Control_c, 1, 64, 127
2, 86968, Note_off_c, 1, 40, 64
2, 86980, Note_off_c, 1, 52, 64
2, 87008, Note_off_c, 1, 83, 64
2, 87012, Note_off_c, 1, 79, 64
2, 87012, Note_off_c, 1, 76, 64
2, 87168, Note_on_c, 1, 55, 67
2, 87168, Note_on_c, 1, 76, 92
2, 87172, Note_on_c, 1, 59, 67
2, 87172, Note_on_c, 1, 64, 64
2, 87184, Note_off_c, 1, 59, 64
2, 87188, Note_off_c, 1, 55, 64
2, 87188, Note_off_c, 1, 64, 64
2, 87304, Note_on_c, 1, 79, 89
2, 87316, Note_off_c, 1, 76, 64
2, 87368, Note_off_c, 1, 79, 64
2, 87372, Note_off_c, 1, 71, 64
2, 87436, Note_on_c, 1, 79, 92
2, 87436, Note_on_c, 1, 71, 83
2, 87436, Note_on_c, 1, 77, 92
2, 87436, Note_on_c, 1, 50, 115
2, 87580, Note_on_c, 1, 47, 83
2, 87584, Control_c, 1, 64, 0
2, 87728, Note_on_c, 1, 43, 86
2, 87808, Note_off_c, 1, 77, 64
2, 87808, Note_off_c, 1, 50, 64
2, 87812, Note_off_c, 1, 71, 64
2, 87812, Note_off_c, 1, 47, 64
2, 87816, Note_off_c, 1, 43, 64
2, 87824, Note_off_c, 1, 79, 64
2, 87856, Note_on_c, 1, 78, 89
2, 87980, Note_off_c, 1, 78, 64
2, 88000, Note_on_c, 1, 72, 86
2, 88000, Note_on_c, 1, 76, 96
2, 88000, Note_on_c, 1, 36, 96
2, 88000, Note_on_c, 1, 48, 105
2, 88004, Note_on_c, 1, 79, 110
2, 88012, Control_c, 1, 64, 127
2, 88016, Note_off_c, 1, 36, 64
2, 88016, Note_off_c, 1, 48, 64
2, 88288, Note_on_c, 1, 64, 83
2, 88288, Note_on_c, 1, 55, 77
2, 88292, Note_on_c, 1, 60, 80
2, 88304, Note_off_c, 1, 64, 64
2, 88304, Note_off_c, 1, 55, 64
2, 88304, Note_off_c, 1, 60, 64
2, 88332, Note_off_c, 1, 79, 64
2, 88336, Note_off_c, 1, 72, 64
2, 88336, Note_off_c, 1, 76, 64
2, 88432, Note_on_c, 1, 78, 105
2, 88464, Note_off_c, 1, 78, 64
2, 88568, Note_on_c, 1, 40, 100
2, 88572, Note_on_c, 1, 79, 105
2, 88572, Note_on_c, 1, 72, 105
2, 88576, Note_on_c, 1, 76, 115
2, 88576, Note_on_c, 1, 52, 100
2, 88576, Control_c, 1, 64, 0
2, 88612, Control_c, 1, 64, 127
2, 88624, Note_off_c, 1, 40, 64
2, 88640, Note_off_c, 1, 52, 64
2, 88872, Note_on_c, 1, 55, 86
2, 88872, Note_on_c, 1, 64, 83
2, 88872, Note_on_c, 1, 60, 89
2, 88880, Note_off_c, 1, 60, 64
2, 88884, Note_off_c, 1, 55, 64
2, 88888, Note_off_c, 1, 64, 64
2, 88912, Note_off_c, 1, 79, 64
2, 88912, Note_off_c, 1, 76, 64
2, 88928, Note_off_c, 1, 72, 64
2, 89144, Note_on_c, 1, 84, 105
2, 89148, Note_on_c, 1, 72, 86
2, 89148, Note_on_c, 1, 45, 89
2, 89152, Note_on_c, 1, 57, 80
2, 89152, Control_c, 1, 64, 0
2, 89184, Control_c, 1, 64, 127
2, 89220, Note_off_c, 1, 57, 64
2, 89224, Note_off_c, 1, 84, 64
2, 89228, Note_off_c, 1, 72, 64
2, 89228, Note_off_c, 1, 45, 64
2, 89420, Note_on_c, 1, 81, 86
2, 89424, Note_on_c, 1, 69, 89
2, 89424, Note_on_c, 1, 41, 89
2, 89424, Note_on_c, 1, 53, 92
2, 89424, Control_c, 1, 64, 0
2, 89456, Control_c, 1, 64, 127
2, 89504, Note_off_c, 1, 81, 64
2, 89504, Note_off_c, 1, 41, 64
2, 89512, Note_off_c, 1, 69, 64
2, 89516, Note_off_c, 1, 53, 64
2, 89700, Note_on_c, 1, 79, 92
2, 89700, Note_on_c, 1, 76, 86
2, 89700, Note_on_c, 1, 67, 86
2, 89700, Note_on_c, 1, 72, 86
2, 89704, Note_on_c, 1, 40, 77
2, 89708, Note_on_c, 1, 52, 89
2, 89708, Control_c, 1, 64, 0
2, 89768, Control_c, 1, 64, 127
2, 89792, Note_off_c, 1, 40, 64
2, 89800, Note_off_c, 1, 52, 64
2, 89992, Control_c, 1, 64, 0
2, 90000, Note_on_c, 1, 60, 73
2, 90000, Note_on_c, 1, 48, 96
2, 90048, Control_c, 1, 64, 127
2, 90064, Note_off_c, 1, 67, 64
2, 90068, Note_off_c, 1, 79, 64
2, 90068, Note_off_c, 1, 72, 64
2, 90080, Note_off_c, 1, 76, 64
2, 90088, Note_off_c, 1, 48, 64
2, 90096, Note_off_c, 1, 60, 64
2, 90200, Control_c, 1, 64, 0
2, 90276, Note_on_c, 1, 80, 96
2, 90276, Note_on_c, 1, 76, 89
2, 90276, Note_on_c, 1, 68, 88
2, 90276, Note_on_c, 1, 74, 84
2, 90284, Note_on_c, 1, 47, 89
2, 90284, Control_c, 1, 64, 127
2, 90308, Note_off_c, 1, 47, 64
2, 90548, Note_off_c, 1, 80, 64
2, 90548, Note_off_c, 1, 76, 64
2, 90552, Note_off_c, 1, 74, 64
2, 90552, Note_on_c, 1, 56, 64
2, 90552, Note_on_c, 1, 59, 75
2, 90552, Note_on_c, 1, 62, 65
2, 90556, Note_off_c, 1, 68, 64
2, 90556, Note_on_c, 1, 64, 49
2, 90572, Note_off_c, 1, 62, 64
2, 90576, Note_off_c, 1, 56, 64
2, 90576, Note_off_c, 1, 59, 64
2, 90576, Note_off_c, 1, 64, 64
2, 90676, Note_on_c, 1, 81, 86
2, 90684, Note_on_c, 1, 69, 80
2, 90700, Note_off_c, 1, 69, 64
2, 90704, Note_off_c, 1, 81, 64
2, 90812, Note_on_c, 1, 83, 107
2, 90812, Note_on_c, 1, 80, 83
2, 90816, Note_on_c, 1, 74, 89
2, 90816, Note_on_c, 1, 71, 80
2, 90820, Note_on_c, 1, 40, 75
2, 90820, Note_on_c, 1, 52, 77
2, 90824, Control_c, 1, 64, 0
2, 90856, Control_c, 1, 64, 127
2, 90860, Note_off_c, 1, 40, 64
2, 90876, Note_off_c, 1, 52, 64
2, 90892, Note_off_c, 1, 83, 64
2, 90908, Note_off_c, 1, 80, 64
2, 90908, Note_off_c, 1, 74, 64
2, 90912, Note_off_c, 1, 71, 64
2, 91104, Note_on_c, 1, 80, 75
2, 91112, Note_on_c, 1, 68, 75
2, 91112, Note_on_c, 1, 76, 89
2, 91116, Note_on_c, 1, 74, 100
2, 91116, Note_on_c, 1, 64, 64
2, 91116, Note_on_c, 1, 62, 64
2, 91116, Note_on_c, 1, 59, 71
2, 91156, Note_off_c, 1, 62, 64
2, 91160, Note_off_c, 1, 59, 64
2, 91172, Note_off_c, 1, 64, 64
2, 91180, Note_off_c, 1, 68, 64
2, 91180, Note_off_c, 1, 74, 64
2, 91184, Note_off_c, 1, 76, 64
2, 91204, Note_off_c, 1, 80, 64
2, 91388, Note_on_c, 1, 81, 100
2, 91388, Note_on_c, 1, 76, 100
2, 91392, Note_on_c, 1, 72, 105
2, 91392, Note_on_c, 1, 69, 96
2, 91392, Note_on_c, 1, 45, 83
2, 91392, Note_on_c, 1, 57, 77
2, 91392, Control_c, 1, 64, 0
2, 91432, Control_c, 1, 64, 127
2, 91464, Note_off_c, 1, 45, 64
2, 91488, Note_off_c, 1, 57, 64
2, 91676, Note_on_c, 1, 57, 83
2, 91680, Note_on_c, 1, 60, 75
2, 91680, Note_on_c, 1, 64, 75
2, 91680, Control_c, 1, 64, 0
2, 91712, Control_c, 1, 64, 127
2, 91724, Note_off_c, 1, 64, 64
2, 91728, Note_off_c, 1, 60, 64
2, 91732, Note_off_c, 1, 57, 64
2, 91964, Note_on_c, 1, 60, 86
2, 91964, Note_on_c, 1, 48, 96
2, 91968, Control_c, 1, 64, 0
2, 92060, Note_off_c, 1, 60, 64
2, 92072, Note_off_c, 1, 69, 64
2, 92072, Note_off_c, 1, 48, 64
2, 92080, Note_off_c, 1, 81, 64
2, 92088, Note_off_c, 1, 76, 64
2, 92088, Note_off_c, 1, 72, 64
2, 92256, Note_on_c, 1, 76, 105
2, 92256, Note_on_c, 1, 79, 96
2, 92256, Note_on_c, 1, 72, 105
2, 92256, Note_on_c, 1, 67, 96
2, 92256, Note_on_c, 1, 58, 75
2, 92256, Note_on_c, 1, 46, 86
2, 92276, Control_c, 1, 64, 127
2, 92308, Note_off_c, 1, 67, 64
2, 92312, Note_off_c, 1, 46, 64
2, 92324, Note_off_c, 1, 72, 64
2, 92324, Note_off_c, 1, 58, 64
2, 92336, Note_off_c, 1, 76, 64
2, 92336, Note_off_c, 1, 79, 64
2, 92524, Note_on_c, 1, 45, 80
2, 92528, Note_on_c, 1, 57, 63
2, 92528, Note_on_c, 1, 77, 105
2, 92544, Control_c, 1, 64, 0
2, 92548, Note_off_c, 1, 45, 64
2, 92556, Note_off_c, 1, 57, 64
2, 92676, Note_on_c, 1, 88, 96
2, 92808, Note_on_c, 1, 57, 69
2, 92812, Note_on_c, 1, 60, 71
2, 92812, Note_on_c, 1, 65, 67
2, 92820, Note_off_c, 1, 57, 64
2, 92824, Note_off_c, 1, 60, 64
2, 92824, Note_off_c, 1, 65, 64
2, 92936, Note_off_c, 1, 88, 64
2, 92944, Note_on_c, 1, 86, 92
2, 93072, Note_off_c, 1, 86, 64
2, 93080, Note_on_c, 1, 84, 73
2, 93084, Note_on_c, 1, 56, 61
2, 93084, Note_on_c, 1, 44, 62
2, 93096, Note_off_c, 1, 77, 64
2, 93104, Note_off_c, 1, 44, 64
2, 93112, Note_off_c, 1, 56, 64
2, 93216, Note_on_c, 1, 74, 91
2, 93352, Note_off_c, 1, 74, 64
2, 93356, Note_on_c, 1, 56, 55
2, 93356, Note_on_c, 1, 76, 89
2, 93360, Note_on_c, 1, 65, 60
2, 93360, Note_on_c, 1, 60, 58
2, 93376, Note_off_c, 1, 56, 64
2, 93376, Note_off_c, 1, 65, 64
2, 93376, Note_off_c, 1, 60, 64
2, 93504, Note_on_c, 1, 77, 86
2, 93512, Note_off_c, 1, 84, 64
2, 93520, Note_off_c, 1, 76, 64
2, 93644, Note_on_c, 1, 55, 67
2, 93648, Note_on_c, 1, 43, 86
2, 93648, Note_on_c, 1, 72, 75
2, 93648, Note_on_c, 1, 76, 86
2, 93648, Control_c, 1, 64, 127
2, 93660, Note_off_c, 1, 77, 64
2, 93664, Note_off_c, 1, 43, 64
2, 93668, Note_off_c, 1, 55, 64
2, 93952, Note_on_c, 1, 60, 67
2, 93952, Note_on_c, 1, 64, 69
2, 93952, Note_on_c, 1, 55, 77
2, 94004, Note_off_c, 1, 72, 64
2, 94004, Note_off_c, 1, 64, 64
2, 94016, Note_off_c, 1, 60, 64
2, 94016, Note_off_c, 1, 55, 64
2, 94024, Note_off_c, 1, 76, 64
2, 94236, Note_on_c, 1, 81, 94
2, 94236, Note_on_c, 1, 69, 83
2, 94252, Control_c, 1, 64, 0
2, 94268, Control_c, 1, 64, 127
2, 94368, Note_on_c, 1, 53, 99
2, 94368, Note_on_c, 1, 65, 83
2, 94372, Note_off_c, 1, 81, 64
2, 94380, Note_off_c, 1, 69, 64
2, 94380, Note_off_c, 1, 53, 64
2, 94384, Note_off_c, 1, 65, 64
2, 94512, Note_on_c, 1, 79, 100
2, 94516, Note_on_c, 1, 67, 88
2, 94528, Control_c, 1, 64, 0
2, 94628, Control_c, 1, 64, 127
2, 94636, Note_on_c, 1, 52, 88
2, 94640, Note_off_c, 1, 79, 64
2, 94640, Note_on_c, 1, 64, 75
2, 94656, Note_off_c, 1, 67, 64
2, 94656, Note_off_c, 1, 52, 64
2, 94656, Note_off_c, 1, 64, 64
2, 94776, Note_on_c, 1, 66, 67
2, 94776, Note_on_c, 1, 72, 89
2, 94776, Note_on_c, 1, 45, 73
2, 94784, Control_c, 1, 64, 0
2, 95060, Note_on_c, 1, 57, 77
2, 95080, Control_c, 1, 64, 127
2, 95152, Note_off_c, 1, 72, 64
2, 95156, Note_off_c, 1, 66, 64
2, 95208, Note_off_c, 1, 45, 64
2, 95344, Note_on_c, 1, 43, 75
2, 95352, Note_on_c, 1, 71, 73
2, 95352, Note_on_c, 1, 74, 89
2, 95352, Note_on_c, 1, 65, 67
2, 95364, Control_c, 1, 64, 0
2, 95400, Note_off_c, 1, 57, 64
2, 95636, Note_on_c, 1, 55, 69
2, 95656, Control_c, 1, 64, 127
2, 95712, Note_off_c, 1, 65, 64
2, 95716, Note_off_c, 1, 43, 64
2, 95716, Note_off_c, 1, 71, 64
2, 95716, Note_off_c, 1, 74, 64
2, 95716, Note_off_c, 1, 55, 64
2, 95912, Note_on_c, 1, 72, 67
2, 95912, Note_on_c, 1, 64, 63
2, 95916, Note_on_c, 1, 55, 64
2, 95916, Note_on_c, 1, 48, 59
2, 95928, Control_c, 1, 64, 0
2, 95956, Note_off_c, 1, 48, 64
2, 96004, Note_off_c, 1, 55, 64
2, 96192, Note_on_c, 1, 43, 92
2, 96212, Note_off_c, 1, 43, 64
2, 96480, Note_on_c, 1, 36, 86
2, 96484, Control_c, 1, 64, 127
2, 96492, Note_off_c, 1, 36, 64
2, 96512, Note_off_c, 1, 72, 64
2, 96512, Note_off_c, 1, 64, 64
2, 96540, Control_c, 1, 64, 0
2, 96836, Note_on_c, 1, 60, 80
2, 96844, Control_c, 1, 64, 127
2, 96912, Note_off_c, 1, 60, 64
2, 97104, Note_on_c, 1, 53, 59
2, 97108, Note_on_c, 1, 65, 73
2, 97120, Control_c, 1, 64, 0
2, 97136, Note_off_c, 1, 53, 64
2, 97240, Note_off_c, 1, 65, 64
2, 97244, Note_on_c, 1, 64, 69
2, 97384, Note_on_c, 1, 65, 71
2, 97388, Note_off_c, 1, 64, 64
2, 97388, Note_on_c, 1, 57, 40
2, 97392, Note_on_c, 1, 60, 29
2, 97408, Note_off_c, 1, 57, 64
2, 97412, Note_off_c, 1, 60, 64
2, 97520, Note_off_c, 1, 65, 64
2, 97520, Note_on_c, 1, 67, 65
2, 97656, Note_off_c, 1, 67, 64
2, 97660, Note_on_c, 1, 69, 63
2, 97800, Note_on_c, 1, 74, 60
2, 97808, Note_off_c, 1, 69, 64
2, 97932, Note_on_c, 1, 57, 55
2, 97932, Note_on_c, 1, 60, 45
2, 97952, Note_off_c, 1, 57, 64
2, 97952, Note_off_c, 1, 60, 64
2, 98072, Note_off_c, 1, 74, 64
2, 98072, Note_on_c, 1, 69, 67
2, 98080, Control_c, 1, 64, 127
2, 98136, Note_off_c, 1, 69, 64
2, 98212, Note_on_c, 1, 53, 60
2, 98216, Note_on_c, 1, 69, 59
2, 98216, Note_on_c, 1, 72, 59
2, 98224, Control_c, 1, 64, 0
2, 98232, Control_c, 1, 64, 127
2, 98264, Note_off_c, 1, 72, 64
2, 98272, Note_off_c, 1, 69, 64
2, 98348, Note_on_c, 1, 71, 65
2, 98352, Note_on_c, 1, 68, 62
2, 98380, Note_off_c, 1, 68, 64
2, 98384, Note_off_c, 1, 71, 64
2, 98484, Note_on_c, 1, 72, 67
2, 98492, Note_on_c, 1, 69, 67
2, 98500, Note_on_c, 1, 60, 47
2, 98500, Note_on_c, 1, 57, 47
2, 98508, Note_off_c, 1, 69, 64
2, 98512, Note_off_c, 1, 72, 64
2, 98544, Note_off_c, 1, 60, 64
2, 98544, Note_off_c, 1, 57, 64
2, 98552, Note_off_c, 1, 53, 0
2, 98636, Control_c, 1, 64, 0
2, 98772, Note_on_c, 1, 77, 80
2, 98776, Note_on_c, 1, 69, 75
2, 98780, Note_on_c, 1, 50, 49
2, 98780, Control_c, 1, 64, 127
2, 98860, Note_off_c, 1, 69, 64
2, 98868, Note_off_c, 1, 77, 64
2, 99068, Note_on_c, 1, 62, 42
2, 99072, Note_on_c, 1, 57, 40
2, 99112, Note_off_c, 1, 57, 64
2, 99116, Note_off_c, 1, 62, 64
2, 99120, Note_off_c, 1, 50, 64
2, 99332, Note_on_c, 1, 67, 58
2, 99332, Note_on_c, 1, 70, 65
2, 99336, Note_on_c, 1, 49, 45
2, 99348, Control_c, 1, 64, 0
2, 99592, Note_on_c, 1, 58, 47
2, 99596, Note_on_c, 1, 61, 43
2, 99632, Control_c, 1, 64, 127
2, 99652, Note_off_c, 1, 61, 64
2, 99656, Note_off_c, 1, 58, 64
2, 99660, Note_off_c, 1, 49, 0
2, 99696, Note_off_c, 1, 67, 0
2, 99696, Note_off_c, 1, 70, 0
2, 99728, Note_on_c, 1, 69, 63
2, 99728, Note_on_c, 1, 66, 48
2, 99772, Note_off_c, 1, 66, 64
2, 99776, Note_off_c, 1, 69, 64
2, 99868, Note_on_c, 1, 48, 37
2, 99872, Note_on_c, 1, 70, 58
2, 99872, Note_on_c, 1, 67, 42
2, 99876, Control_c, 1, 64, 0
2, 99924, Control_c, 1, 64, 127
2, 99984, Note_off_c, 1, 70, 64
2, 99984, Note_off_c, 1, 67, 64
2, 100016, Note_on_c, 1, 69, 53
2, 100016, Note_on_c, 1, 72, 62
2, 100140, Control_c, 1, 64, 0
2, 100144, Note_on_c, 1, 58, 46
2, 100148, Note_on_c, 1, 60, 31
2, 100160, Control_c, 1, 64, 127
2, 100176, Note_off_c, 1, 72, 64
2, 100200, Note_off_c, 1, 69, 64
2, 100284, Note_off_c, 1, 60, 64
2, 100288, Note_off_c, 1, 48, 64
2, 100288, Note_off_c, 1, 58, 64
2, 100288, Note_on_c, 1, 70, 50
2, 100288, Note_on_c, 1, 67, 53
2, 100316, Note_off_c, 1, 70, 64
2, 100320, Note_off_c, 1, 67, 64
2, 100420, Note_on_c, 1, 70, 54
2, 100420, Note_on_c, 1, 67, 56
2, 100420, Control_c, 1, 64, 0
2, 100428, Note_on_c, 1, 53, 31
2, 100444, Control_c, 1, 64, 127
2, 100480, Note_off_c, 1, 70, 64
2, 100600, Note_on_c, 1, 69, 51
2, 100604, Note_on_c, 1, 65, 43
2, 100632, Note_off_c, 1, 67, 64
2, 100712, Note_off_c, 1, 69, 64
2, 100716, Note_off_c, 1, 65, 64
2, 100716, Control_c, 1, 64, 0
2, 100724, Note_on_c, 1, 57, 36
2, 100732, Note_on_c, 1, 60, 30
2, 100732, Control_c, 1, 64, 127
2, 100836, Note_off_c, 1, 57, 0
2, 100836, Note_off_c, 1, 60, 0
2, 100840, Note_on_c, 1, 65, 58
2, 100844, Note_off_c, 1, 53, 0
2, 100868, Note_off_c, 1, 65, 64
2, 100992, Note_on_c, 1, 53, 63
2, 100992, Note_on_c, 1, 56, 58
2, 100992, Note_on_c, 1, 62, 57
2, 100992, Control_c, 1, 64, 0
2, 101028, Note_off_c, 1, 56, 64
2, 101032, Note_off_c, 1, 53, 64
2, 101032, Note_off_c, 1, 62, 64
2, 101052, Note_on_c, 1, 53, 29
2, 101256, Note_on_c, 1, 60, 48
2, 101264, Note_on_c, 1, 57, 29
2, 101276, Control_c, 1, 64, 127
2, 101292, Note_off_c, 1, 60, 64
2, 101324, Note_off_c, 1, 53, 64
2, 101328, Note_off_c, 1, 57, 64
2, 101512, Note_on_c, 1, 53, 42
2, 101540, Note_on_c, 1, 65, 61
2, 101540, Control_c, 1, 64, 0
2, 101676, Note_off_c, 1, 65, 64
2, 101680, Note_on_c, 1, 64, 67
2, 101812, Note_off_c, 1, 64, 64
2, 101812, Note_on_c, 1, 65, 71
2, 101824, Note_on_c, 1, 60, 32
2, 101824, Note_on_c, 1, 57, 30
2, 101868, Note_off_c, 1, 53, 64
2, 101868, Note_off_c, 1, 60, 64
2, 101868, Note_off_c, 1, 57, 64
2, 101940, Note_on_c, 1, 67, 63
2, 101964, Note_off_c, 1, 65, 64
2, 102072, Note_on_c, 1, 48, 30
2, 102084, Note_off_c, 1, 67, 0
2, 102084, Note_on_c, 1, 69, 54
2, 102220, Note_on_c, 1, 74, 69
2, 102232, Note_off_c, 1, 69, 64
2, 102348, Note_on_c, 1, 57, 43
2, 102352, Control_c, 1, 64, 127
2, 102356, Note_on_c, 1, 60, 25
2, 102372, Note_off_c, 1, 74, 64
2, 102468, Note_off_c, 1, 48, 64
2, 102472, Note_off_c, 1, 57, 64
2, 102472, Note_off_c, 1, 60, 64
2, 102484, Note_on_c, 1, 69, 67
2, 102544, Note_off_c, 1, 69, 64
2, 102624, Control_c, 1, 64, 0
2, 102628, Note_on_c, 1, 53, 48
2, 102628, Note_on_c, 1, 72, 61
2, 102628, Note_on_c, 1, 69, 58
2, 102648, Control_c, 1, 64, 127
2, 102680, Note_off_c, 1, 72, 64
2, 102688, Note_off_c, 1, 69, 64
2, 102768, Note_on_c, 1, 71, 67
2, 102768, Note_on_c, 1, 68, 59
2, 102788, Note_off_c, 1, 71, 64
2, 102788, Note_off_c, 1, 68, 64
2, 102896, Note_on_c, 1, 72, 75
2, 102896, Note_on_c, 1, 69, 69
2, 102912, Note_on_c, 1, 60, 32
2, 102912, Note_on_c, 1, 57, 33
2, 102920, Note_off_c, 1, 69, 64
2, 102924, Note_off_c, 1, 72, 64
2, 102928, Note_off_c, 1, 60, 64
2, 102928, Note_off_c, 1, 57, 64
2, 102940, Note_off_c, 1, 53, 64
2, 103188, Note_on_c, 1, 77, 78
2, 103192, Note_on_c, 1, 72, 67
2, 103192, Note_on_c, 1, 45, 62
2, 103192, Note_on_c, 1, 65, 73
2, 103204, Control_c, 1, 64, 0
2, 103268, Control_c, 1, 64, 127
2, 103320, Note_off_c, 1, 45, 0
2, 103340, Note_off_c, 1, 77, 0
2, 103364, Note_off_c, 1, 72, 0
2, 103444, Note_on_c, 1, 44, 50
2, 103468, Control_c, 1, 64, 0
2, 103476, Note_on_c, 1, 74, 89
2, 103500, Control_c, 1, 64, 127
2, 103592, Note_off_c, 1, 44, 64
2, 103600, Note_on_c, 1, 75, 77
2, 103620, Note_off_c, 1, 74, 64
2, 103624, Note_off_c, 1, 65, 0
2, 103636, Note_off_c, 1, 75, 64
2, 103720, Control_c, 1, 64, 0
2, 103736, Note_on_c, 1, 43, 59
2, 103744, Note_on_c, 1, 72, 67
2, 103744, Note_on_c, 1, 67, 59
2, 103744, Note_on_c, 1, 76, 75
2, 103748, Control_c, 1, 64, 127
2, 103752, Note_off_c, 1, 43, 64
2, 103796, Note_off_c, 1, 76, 64
2, 103876, Note_on_c, 1, 79, 77
2, 103892, Note_off_c, 1, 72, 64
2, 103932, Note_off_c, 1, 67, 64
2, 103988, Note_off_c, 1, 79, 64
2, 104012, Note_on_c, 1, 55, 59
2, 104012, Note_on_c, 1, 60, 55
2, 104012, Note_on_c, 1, 64, 58
2, 104020, Control_c, 1, 64, 0
2, 104024, Note_off_c, 1, 60, 64
2, 104024, Note_off_c, 1, 64, 64
2, 104032, Note_off_c, 1, 55, 64
2, 104284, Note_on_c, 1, 74, 80
2, 104284, Note_on_c, 1, 43, 46
2, 104288, Note_on_c, 1, 71, 75
2, 104288, Control_c, 1, 64, 127
2, 104296, Note_off_c, 1, 43, 64
2, 104420, Note_on_c, 1, 79, 80
2, 104436, Note_off_c, 1, 74, 64
2, 104564, Note_on_c, 1, 55, 50
2, 104564, Note_on_c, 1, 59, 44
2, 104564, Note_on_c, 1, 65, 44
2, 104568, Note_off_c, 1, 71, 0
2, 104568, Note_off_c, 1, 79, 0
2, 104588, Note_off_c, 1, 55, 64
2, 104588, Note_off_c, 1, 59, 64
2, 104588, Note_off_c, 1, 65, 64
2, 104816, Control_c, 1, 64, 0
2, 104824, Note_on_c, 1, 48, 59
2, 104836, Note_on_c, 1, 79, 83
2, 104836, Note_on_c, 1, 70, 71
2, 104844, Control_c, 1, 64, 127
2, 104884, Note_off_c, 1, 48, 64
2, 105124, Note_on_c, 1, 60, 33
2, 105124, Note_on_c, 1, 64, 36
2, 105132, Note_on_c, 1, 58, 21
2, 105184, Note_off_c, 1, 60, 64
2, 105188, Note_off_c, 1, 64, 64
2, 105188, Note_off_c, 1, 58, 64
2, 105392, Note_off_c, 1, 79, 64
2, 105392, Note_off_c, 1, 70, 64
2, 105392, Note_on_c, 1, 64, 41
2, 105392, Note_on_c, 1, 60, 29
2, 105404, Note_on_c, 1, 58, 21
2, 105648, Note_off_c, 1, 64, 64
2, 105656, Note_off_c, 1, 60, 64
2, 105656, Note_on_c, 1, 69, 69
2, 105696, Note_off_c, 1, 58, 64
2, 105812, Note_on_c, 1, 67, 69
2, 105824, Note_off_c, 1, 69, 0
2, 105828, Control_c, 1, 64, 0
2, 105936, Note_off_c, 1, 67, 64
2, 105936, Note_on_c, 1, 53, 40
2, 105948, Note_on_c, 1, 65, 59
2, 106080, Note_off_c, 1, 65, 64
2, 106080, Note_on_c, 1, 64, 63
2, 106216, Note_off_c, 1, 64, 64
2, 106216, Note_on_c, 1, 60, 35
2, 106216, Note_on_c, 1, 65, 60
2, 106216, Note_on_c, 1, 57, 34
2, 106244, Note_off_c, 1, 57, 64
2, 106248, Note_off_c, 1, 60, 64
2, 106252, Note_off_c, 1, 53, 64
2, 106352, Note_on_c, 1, 67, 56
2, 106356, Note_off_c, 1, 65, 64
2, 106472, Note_on_c, 1, 48, 30
2, 106492, Note_off_c, 1, 67, 64
2, 106496, Note_on_c, 1, 69, 59
2, 106628, Note_on_c, 1, 74, 77
2, 106648, Note_off_c, 1, 69, 64
2, 106744, Control_c, 1, 64, 127
2, 106748, Note_off_c, 1, 74, 64
2, 106760, Note_on_c, 1, 60, 46
2, 106764, Note_on_c, 1, 57, 44
2, 106900, Note_on_c, 1, 69, 75
2, 106984, Note_off_c, 1, 69, 64
2, 107012, Note_off_c, 1, 48, 0
2, 107032, Note_on_c, 1, 53, 23
2, 107040, Control_c, 1, 64, 0
2, 107044, Note_off_c, 1, 60, 0
2, 107044, Note_on_c, 1, 72, 67
2, 107044, Note_on_c, 1, 69, 67
2, 107048, Note_off_c, 1, 57, 0
2, 107064, Control_c, 1, 64, 127
2, 107108, Note_off_c, 1, 72, 64
2, 107116, Note_off_c, 1, 69, 64
2, 107172, Note_on_c, 1, 71, 69
2, 107172, Note_on_c, 1, 68, 63
2, 107200, Note_off_c, 1, 68, 64
2, 107216, Note_off_c, 1, 71, 64
2, 107312, Note_on_c, 1, 69, 75
2, 107312, Note_on_c, 1, 72, 80
2, 107316, Note_on_c, 1, 57, 55
2, 107316, Note_on_c, 1, 60, 58
2, 107332, Note_off_c, 1, 69, 64
2, 107340, Note_off_c, 1, 72, 64
2, 107436, Note_off_c, 1, 60, 64
2, 107440, Note_off_c, 1, 57, 64
2, 107452, Note_off_c, 1, 53, 64
2, 107588, Note_on_c, 1, 77, 86
2, 107588, Note_on_c, 1, 69, 75
2, 107592, Note_on_c, 1, 50, 58
2, 107600, Control_c, 1, 64, 0
2, 107880, Note_on_c, 1, 57, 52
2, 107884, Note_on_c, 1, 62, 57
2, 107892, Control_c, 1, 64, 127
2, 107908, Note_off_c, 1, 77, 64
2, 107916, Note_off_c, 1, 69, 64
2, 107920, Note_off_c, 1, 57, 64
2, 107924, Note_off_c, 1, 62, 64
2, 107948, Note_off_c, 1, 50, 64
2, 108156, Note_on_c, 1, 69, 66
2, 108156, Note_on_c, 1, 65, 56
2, 108168, Note_on_c, 1, 48, 23
2, 108168, Control_c, 1, 64, 0
2, 108424, Note_off_c, 1, 48, 0
2, 108424, Note_on_c, 1, 53, 69
2, 108504, Control_c, 1, 64, 127
2, 108548, Note_off_c, 1, 65, 0
2, 108556, Note_off_c, 1, 69, 0
2, 108688, Note_on_c, 1, 52, 64
2, 108688, Note_on_c, 1, 69, 75
2, 108696, Note_on_c, 1, 65, 65
2, 108704, Note_off_c, 1, 53, 64
2, 108704, Control_c, 1, 64, 0
2, 108780, Control_c, 1, 64, 127
2, 108952, Note_off_c, 1, 52, 64
2, 108964, Note_on_c, 1, 51, 71
2, 108980, Control_c, 1, 64, 0
2, 109012, Control_c, 1, 64, 127
2, 109064, Note_off_c, 1, 65, 64
2, 109068, Note_off_c, 1, 69, 64
2, 109068, Note_off_c, 1, 51, 64
2, 109232, Note_on_c, 1, 50, 64
2, 109236, Note_on_c, 1, 70, 69
2, 109244, Note_on_c, 1, 65, 67
2, 109248, Control_c, 1, 64, 0
2, 109292, Control_c, 1, 64, 127
2, 109296, Note_off_c, 1, 65, 64
2, 109308, Note_off_c, 1, 70, 64
2, 109508, Note_on_c, 1, 53, 55
2, 109648, Note_on_c, 1, 58, 41
2, 109796, Note_on_c, 1, 62, 38
2, 109852, Note_off_c, 1, 50, 0
2, 109860, Note_off_c, 1, 53, 64
2, 109860, Note_off_c, 1, 58, 64
2, 109876, Note_off_c, 1, 62, 64
2, 110336, Note_on_c, 1, 71, 52
2, 110336, Note_on_c, 1, 86, 86
2, 110340, Note_on_c, 1, 68, 31
2, 110352, Control_c, 1, 64, 0
2, 110472, Note_on_c, 1, 84, 71
2, 110484, Control_c, 1, 64, 127
2, 110488, Note_off_c, 1, 68, 64
2, 110500, Note_off_c, 1, 71, 64
2, 110612, Note_on_c, 1, 83, 67
2, 110616, Note_on_c, 1, 71, 38
2, 110628, Note_on_c, 1, 74, 24
2, 110628, Control_c, 1, 64, 0
2, 110736, Note_off_c, 1, 71, 64
2, 110740, Note_on_c, 1, 81, 55
2, 110744, Note_off_c, 1, 74, 64
2, 110884, Note_on_c, 1, 80, 47
2, 110896, Note_on_c, 1, 74, 28
2, 110896, Note_on_c, 1, 77, 30
2, 110956, Note_off_c, 1, 86, 0
2, 110956, Note_off_c, 1, 83, 0
2, 110956, Note_off_c, 1, 77, 64
2, 110960, Note_off_c, 1, 84, 0
2, 110960, Note_off_c, 1, 81, 0
2, 110960, Note_off_c, 1, 80, 64
2, 110960, Note_off_c, 1, 74, 64
2, 111428, Note_on_c, 1, 68, 22
2, 111432, Note_on_c, 1, 71, 24
2, 111432, Note_on_c, 1, 86, 37
2, 111436, Control_c, 1, 64, 127
2, 111500, Note_off_c, 1, 68, 64
2, 111500, Note_off_c, 1, 71, 64
2, 111572, Note_on_c, 1, 84, 45
2, 111700, Note_on_c, 1, 83, 48
2, 111708, Note_on_c, 1, 74, 26
2, 111708, Note_on_c, 1, 71, 23
2, 111764, Note_off_c, 1, 74, 64
2, 111764, Note_off_c, 1, 71, 64
2, 111832, Note_on_c, 1, 81, 52
2, 111852, Note_off_c, 1, 83, 64
2, 111972, Note_on_c, 1, 80, 48
2, 111984, Note_off_c, 1, 81, 64
2, 111984, Note_on_c, 1, 74, 29
2, 111988, Note_off_c, 1, 86, 64
2, 111988, Note_off_c, 1, 84, 64
2, 111988, Note_on_c, 1, 77, 29
2, 112000, Note_off_c, 1, 80, 0
2, 112008, Note_off_c, 1, 74, 0
2, 112008, Note_off_c, 1, 77, 0
2, 112256, Note_on_c, 1, 68, 67
2, 112256, Note_on_c, 1, 65, 63
2, 112260, Note_on_c, 1, 59, 61
2, 112272, Note_off_c, 1, 65, 64
2, 112272, Control_c, 1, 64, 0
2, 112276, Note_off_c, 1, 68, 64
2, 112276, Note_off_c, 1, 59, 64
2, 112548, Note_on_c, 1, 69, 61
2, 112548, Note_on_c, 1, 65, 59
2, 112548, Note_on_c, 1, 60, 30
2, 112548, Control_c, 1, 64, 127
2, 112572, Note_off_c, 1, 69, 64
2, 112572, Note_off_c, 1, 65, 64
2, 112600, Note_off_c, 1, 60, 64
2, 113064, Note_on_c, 1, 48, 29
2, 113068, Control_c, 1, 64, 0
2, 113092, Note_on_c, 1, 70, 53
2, 113092, Note_on_c, 1, 64, 59
2, 113096, Note_on_c, 1, 62, 50
2, 113096, Control_c, 1, 64, 127
2, 113124, Note_off_c, 1, 70, 64
2, 113124, Note_off_c, 1, 62, 64
2, 113156, Note_off_c, 1, 64, 64
2, 113228, Note_on_c, 1, 69, 65
2, 113228, Note_on_c, 1, 60, 56
2, 113236, Note_on_c, 1, 64, 55
2, 113248, Note_off_c, 1, 64, 0
2, 113252, Note_off_c, 1, 69, 0
2, 113256, Note_off_c, 1, 60, 0
2, 113372, Note_on_c, 1, 67, 62
2, 113372, Note_on_c, 1, 64, 67
2, 113372, Note_on_c, 1, 58, 52
2, 113420, Note_off_c, 1, 67, 64
2, 113420, Note_off_c, 1, 58, 64
2, 113428, Note_off_c, 1, 64, 64
2, 113444, Note_off_c, 1, 48, 0
2, 113632, Control_c, 1, 64, 0
2, 113636, Note_on_c, 1, 65, 59
2, 113640, Note_on_c, 1, 53, 55
2, 113640, Note_on_c, 1, 57, 55
2, 113652, Control_c, 1, 64, 127
2, 113676, Note_off_c, 1, 57, 64
2, 113680, Note_off_c, 1, 65, 64
2, 113704, Note_off_c, 1, 53, 64
2, 113912, Note_on_c, 1, 48, 73
2, 113952, Note_off_c, 1, 48, 64
2, 114152, Control_c, 1, 64, 0
2, 114196, Note_on_c, 1, 50, 75
2, 114204, Control_c, 1, 64, 127
2, 114296, Note_off_c, 1, 50, 64
2, 114360, Control_c, 1, 64, 0
2, 114468, Note_on_c, 1, 52, 33
2, 114468, Control_c, 1, 64, 127
2, 114472, Note_on_c, 1, 72, 62
2, 114480, Note_on_c, 1, 60, 48
2, 114488, Note_off_c, 1, 60, 0
2, 114496, Note_off_c, 1, 52, 0
2, 114496, Note_off_c, 1, 72, 0
2, 114720, Note_on_c, 1, 53, 63
2, 114748, Note_off_c, 1, 53, 64
2, 114748, Note_on_c, 1, 65, 62
2, 114756, Control_c, 1, 64, 0
2, 114880, Note_on_c, 1, 64, 65
2, 114884, Note_off_c, 1, 65, 64
2, 115016, Note_off_c, 1, 64, 64
2, 115016, Note_on_c, 1, 57, 52
2, 115016, Note_on_c, 1, 65, 63
2, 115024, Note_on_c, 1, 60, 48
2, 115040, Note_off_c, 1, 57, 64
2, 115044, Note_off_c, 1, 60, 64
2, 115148, Note_on_c, 1, 67, 61
2, 115148, Control_c, 1, 64, 127
2, 115160, Note_off_c, 1, 65, 64
2, 115172, Note_off_c, 1, 67, 64
2, 115264, Note_on_c, 1, 68, 55
2, 115272, Note_on_c, 1, 48, 27
2, 115284, Note_off_c, 1, 68, 64
2, 115292, Note_on_c, 1, 69, 57
2, 115300, Control_c, 1, 64, 0
2, 115332, Note_off_c, 1, 48, 64
2, 115428, Note_on_c, 1, 74, 69
2, 115436, Note_off_c, 1, 69, 64
2, 115556, Note_on_c, 1, 57, 34
2, 115560, Note_on_c, 1, 60, 29
2, 115584, Note_off_c, 1, 57, 64
2, 115600, Note_off_c, 1, 60, 64
2, 115700, Note_on_c, 1, 69, 63
2, 115704, Note_off_c, 1, 74, 64
2, 115716, Control_c, 1, 64, 127
2, 115756, Note_off_c, 1, 69, 0
2, 115828, Control_c, 1, 64, 0
2, 115836, Note_on_c, 1, 53, 41
2, 115848, Note_on_c, 1, 72, 63
2, 115852, Note_on_c, 1, 69, 49
2, 115852, Control_c, 1, 64, 127
2, 115876, Note_off_c, 1, 72, 64
2, 115876, Note_off_c, 1, 69, 64
2, 115880, Note_off_c, 1, 53, 64
2, 115972, Note_on_c, 1, 71, 67
2, 115972, Note_on_c, 1, 68, 59
2, 115992, Note_off_c, 1, 68, 64
2, 116008, Note_off_c, 1, 71, 64
2, 116112, Note_on_c, 1, 69, 61
2, 116116, Note_on_c, 1, 72, 71
2, 116124, Note_on_c, 1, 57, 42
2, 116124, Note_on_c, 1, 60, 38
2, 116136, Note_off_c, 1, 69, 64
2, 116136, Note_off_c, 1, 72, 64
2, 116160, Note_off_c, 1, 57, 64
2, 116160, Note_off_c, 1, 60, 64
2, 116232, Control_c, 1, 64, 0
2, 116392, Note_on_c, 1, 77, 77
2, 116392, Note_on_c, 1, 69, 73
2, 116392, Control_c, 1, 64, 127
2, 116396, Note_on_c, 1, 50, 33
2, 116400, Note_off_c, 1, 69, 64
2, 116404, Note_off_c, 1, 77, 64
2, 116680, Note_on_c, 1, 62, 33
2, 116680, Note_on_c, 1, 57, 30
2, 116736, Note_off_c, 1, 50, 64
2, 116736, Note_off_c, 1, 62, 64
2, 116740, Note_off_c, 1, 57, 64
2, 116916, Note_on_c, 1, 49, 36
2, 116952, Control_c, 1, 64, 0
2, 116964, Note_on_c, 1, 70, 57
2, 116964, Note_on_c, 1, 67, 56
2, 117212, Note_on_c, 1, 58, 21
2, 117224, Note_on_c, 1, 61, 38
2, 117248, Control_c, 1, 64, 127
2, 117276, Note_off_c, 1, 70, 0
2, 117276, Note_off_c, 1, 61, 64
2, 117288, Note_off_c, 1, 49, 0
2, 117288, Note_off_c, 1, 67, 0
2, 117304, Note_off_c, 1, 58, 64
2, 117356, Note_on_c, 1, 69, 62
2, 117356, Note_on_c, 1, 66, 52
2, 117380, Note_off_c, 1, 66, 64
2, 117400, Note_off_c, 1, 69, 64
2, 117476, Note_on_c, 1, 48, 28
2, 117496, Control_c, 1, 64, 0
2, 117504, Note_on_c, 1, 70, 59
2, 117508, Note_on_c, 1, 67, 48
2, 117544, Control_c, 1, 64, 127
2, 117552, Note_off_c, 1, 70, 64
2, 117556, Note_off_c, 1, 67, 64
2, 117640, Note_on_c, 1, 72, 59
2, 117640, Note_on_c, 1, 69, 61
2, 117680, Control_c, 1, 64, 0
2, 117768, Note_on_c, 1, 58, 34
2, 117768, Note_on_c, 1, 60, 49
2, 117780, Note_off_c, 1, 72, 64
2, 117780, Control_c, 1, 64, 127
2, 117784, Note_off_c, 1, 69, 64
2, 117892, Note_off_c, 1, 48, 64
2, 117892, Note_off_c, 1, 58, 64
2, 117900, Note_off_c, 1, 60, 64
2, 117900, Note_on_c, 1, 67, 65
2, 117900, Note_on_c, 1, 70, 62
2, 117928, Note_off_c, 1, 70, 64
2, 117932, Note_off_c, 1, 67, 64
2, 118032, Control_c, 1, 64, 0
2, 118036, Note_on_c, 1, 53, 47
2, 118056, Note_on_c, 1, 70, 58
2, 118056, Note_on_c, 1, 67, 56
2, 118072, Control_c, 1, 64, 127
2, 118092, Note_off_c, 1, 70, 64
2, 118172, Note_off_c, 1, 67, 64
2, 118204, Note_on_c, 1, 69, 58
2, 118208, Note_on_c, 1, 65, 33
2, 118220, Control_c, 1, 64, 0
2, 118320, Note_off_c, 1, 69, 0
2, 118324, Control_c, 1, 64, 127
2, 118328, Note_on_c, 1, 60, 44
2, 118332, Note_off_c, 1, 65, 0
2, 118332, Note_on_c, 1, 57, 33
2, 118408, Note_off_c, 1, 60, 64
2, 118412, Note_off_c, 1, 57, 64
2, 118424, Note_off_c, 1, 53, 0
2, 118448, Note_on_c, 1, 65, 69
2, 118460, Note_off_c, 1, 65, 64
2, 118592, Note_on_c, 1, 56, 49
2, 118596, Note_on_c, 1, 62, 69
2, 118596, Note_on_c, 1, 53, 54
2, 118604, Note_off_c, 1, 62, 64
2, 118604, Control_c, 1, 64, 0
2, 118632, Note_off_c, 1, 56, 64
2, 118872, Note_on_c, 1, 60, 60
2, 118876, Note_on_c, 1, 57, 32
2, 118876, Control_c, 1, 64, 127
2, 118896, Note_off_c, 1, 60, 64
2, 118920, Note_off_c, 1, 53, 64
2, 118932, Note_off_c, 1, 57, 64
2, 119120, Note_on_c, 1, 53, 40
2, 119148, Note_on_c, 1, 65, 64
2, 119152, Note_on_c, 1, 67, 41
2, 119156, Control_c, 1, 64, 0
2, 119184, Note_off_c, 1, 67, 64
2, 119272, Note_off_c, 1, 65, 64
2, 119276, Note_on_c, 1, 64, 65
2, 119416, Note_off_c, 1, 64, 64
2, 119420, Note_on_c, 1, 65, 75
2, 119420, Note_on_c, 1, 57, 29
2, 119420, Note_on_c, 1, 60, 29
2, 119496, Note_off_c, 1, 53, 0
2, 119520, Note_off_c, 1, 60, 0
2, 119528, Note_off_c, 1, 57, 0
2, 119548, Note_on_c, 1, 67, 64
2, 119560, Note_off_c, 1, 65, 0
2, 119680, Note_on_c, 1, 48, 32
2, 119692, Note_off_c, 1, 67, 64
2, 119700, Note_on_c, 1, 69, 61
2, 119828, Note_on_c, 1, 74, 61
2, 119844, Note_off_c, 1, 69, 64
2, 119968, Note_on_c, 1, 57, 42
2, 119972, Note_on_c, 1, 60, 30
2, 120096, Control_c, 1, 64, 127
2, 120104, Note_off_c, 1, 74, 64
2, 120104, Note_on_c, 1, 69, 65
2, 120112, Note_off_c, 1, 48, 64
2, 120116, Note_off_c, 1, 57, 64
2, 120120, Note_off_c, 1, 60, 64
2, 120148, Note_off_c, 1, 69, 64
2, 120244, Note_on_c, 1, 72, 65
2, 120244, Note_on_c, 1, 53, 47
2, 120244, Note_on_c, 1, 69, 63
2, 120244, Control_c, 1, 64, 0
2, 120276, Control_c, 1, 64, 127
2, 120312, Note_off_c, 1, 72, 64
2, 120324, Note_off_c, 1, 69, 64
2, 120372, Note_on_c, 1, 68, 61
2, 120372, Note_on_c, 1, 71, 67
2, 120400, Note_off_c, 1, 68, 64
2, 120404, Note_off_c, 1, 71, 64
2, 120508, Note_on_c, 1, 69, 73
2, 120508, Note_on_c, 1, 72, 75
2, 120508, Note_on_c, 1, 57, 57
2, 120516, Note_on_c, 1, 60, 52
2, 120532, Note_off_c, 1, 57, 64
2, 120532, Note_off_c, 1, 60, 64
2, 120540, Note_off_c, 1, 53, 64
2, 120552, Note_off_c, 1, 69, 64
2, 120560, Note_off_c, 1, 72, 64
2, 120784, Note_on_c, 1, 72, 79
2, 120784, Note_on_c, 1, 77, 83
2, 120784, Note_on_c, 1, 45, 67
2, 120788, Note_on_c, 1, 65, 73
2, 120804, Control_c, 1, 64, 0
2, 120868, Control_c, 1, 64, 127
2, 120924, Note_off_c, 1, 45, 64
2, 120940, Note_off_c, 1, 77, 64
2, 121000, Note_off_c, 1, 72, 64
2, 121048, Note_on_c, 1, 44, 50
2, 121068, Note_on_c, 1, 74, 85
2, 121068, Control_c, 1, 64, 0
2, 121092, Control_c, 1, 64, 127
2, 121136, Note_off_c, 1, 44, 64
2, 121204, Note_on_c, 1, 75, 88
2, 121208, Note_off_c, 1, 74, 64
2, 121228, Note_off_c, 1, 65, 64
2, 121240, Note_off_c, 1, 75, 64
2, 121332, Note_on_c, 1, 43, 59
2, 121332, Control_c, 1, 64, 0
2, 121356, Note_on_c, 1, 72, 77
2, 121356, Note_on_c, 1, 76, 83
2, 121356, Note_on_c, 1, 67, 65
2, 121356, Control_c, 1, 64, 127
2, 121364, Note_off_c, 1, 43, 64
2, 121388, Note_off_c, 1, 72, 64
2, 121440, Note_off_c, 1, 76, 64
2, 121484, Note_on_c, 1, 79, 80
2, 121576, Note_off_c, 1, 67, 64
2, 121620, Note_on_c, 1, 55, 75
2, 121620, Note_on_c, 1, 60, 58
2, 121624, Note_off_c, 1, 79, 64
2, 121624, Note_on_c, 1, 64, 60
2, 121632, Control_c, 1, 64, 0
2, 121636, Note_off_c, 1, 60, 64
2, 121636, Note_off_c, 1, 64, 64
2, 121640, Note_off_c, 1, 55, 64
2, 121884, Note_on_c, 1, 43, 62
2, 121896, Note_on_c, 1, 74, 89
2, 121900, Note_off_c, 1, 43, 64
2, 121900, Note_on_c, 1, 71, 77
2, 121900, Control_c, 1, 64, 127
2, 122032, Note_on_c, 1, 79, 83
2, 122048, Note_off_c, 1, 74, 0
2, 122184, Note_off_c, 1, 71, 0
2, 122184, Note_off_c, 1, 79, 64
2, 122184, Note_on_c, 1, 59, 63
2, 122184, Note_on_c, 1, 55, 61
2, 122184, Note_on_c, 1, 65, 52
2, 122204, Note_off_c, 1, 55, 64
2, 122204, Note_off_c, 1, 65, 64
2, 122208, Note_off_c, 1, 59, 64
2, 122452, Note_on_c, 1, 48, 53
2, 122460, Note_on_c, 1, 79, 86
2, 122460, Note_on_c, 1, 70, 65
2, 122460, Control_c, 1, 64, 0
2, 122484, Control_c, 1, 64, 127
2, 122512, Note_off_c, 1, 48, 64
2, 122744, Note_on_c, 1, 64, 46
2, 122748, Note_on_c, 1, 58, 45
2, 122748, Note_on_c, 1, 61, 32
2, 122816, Note_off_c, 1, 58, 64
2, 122816, Note_off_c, 1, 61, 64
2, 122828, Note_off_c, 1, 64, 64
2, 123028, Note_on_c, 1, 60, 34
2, 123028, Note_on_c, 1, 58, 27
2, 123036, Note_on_c, 1, 64, 39
2, 123036, Control_c, 1, 64, 0
2, 123056, Control_c, 1, 64, 127
2, 123100, Note_off_c, 1, 79, 64
2, 123164, Note_off_c, 1, 70, 64
2, 123288, Note_off_c, 1, 64, 0
2, 123296, Note_off_c, 1, 60, 0
2, 123300, Note_off_c, 1, 58, 0
2, 123304, Note_on_c, 1, 69, 60
2, 123444, Note_on_c, 1, 67, 67
2, 123448, Note_off_c, 1, 69, 64
2, 123572, Note_on_c, 1, 53, 43
2, 123572, Control_c, 1, 64, 0
2, 123584, Note_off_c, 1, 67, 64
2, 123584, Note_on_c, 1, 65, 62
2, 123716, Note_off_c, 1, 65, 64
2, 123720, Note_on_c, 1, 64, 62
2, 123856, Note_off_c, 1, 64, 64
2, 123856, Note_on_c, 1, 57, 30
2, 123856, Note_on_c, 1, 65, 64
2, 123860, Note_on_c, 1, 60, 28
2, 123872, Note_off_c, 1, 57, 64
2, 123872, Note_off_c, 1, 60, 64
2, 123880, Note_off_c, 1, 53, 64
2, 123992, Note_on_c, 1, 67, 61
2, 124004, Note_off_c, 1, 65, 64
2, 124124, Note_on_c, 1, 48, 43
2, 124136, Note_off_c, 1, 67, 64
2, 124140, Note_on_c, 1, 69, 56
2, 124156, Note_off_c, 1, 48, 64
2, 124268, Note_on_c, 1, 74, 60
2, 124280, Note_off_c, 1, 69, 64
2, 124400, Note_on_c, 1, 57, 43
2, 124400, Note_on_c, 1, 60, 46
2, 124432, Note_off_c, 1, 57, 64
2, 124432, Note_off_c, 1, 60, 64
2, 124528, Control_c, 1, 64, 127
2, 124532, Note_off_c, 1, 74, 0
2, 124532, Note_on_c, 1, 69, 62
2, 124560, Note_off_c, 1, 69, 64
2, 124668, Control_c, 1, 64, 0
2, 124672, Note_on_c, 1, 53, 55
2, 124672, Note_on_c, 1, 72, 67
2, 124676, Note_on_c, 1, 69, 60
2, 124688, Control_c, 1, 64, 127
2, 124708, Note_off_c, 1, 72, 64
2, 124732, Note_off_c, 1, 69, 64
2, 124804, Note_on_c, 1, 68, 63
2, 124804, Note_on_c, 1, 71, 71
2, 124824, Note_off_c, 1, 68, 64
2, 124836, Note_off_c, 1, 71, 64
2, 124936, Note_on_c, 1, 72, 71
2, 124940, Note_on_c, 1, 69, 69
2, 124948, Note_on_c, 1, 60, 35
2, 124948, Note_on_c, 1, 57, 34
2, 124964, Note_off_c, 1, 69, 64
2, 124976, Note_off_c, 1, 72, 64
2, 124992, Note_off_c, 1, 60, 64
2, 125000, Note_off_c, 1, 53, 64
2, 125000, Note_off_c, 1, 57, 64
2, 125124, Control_c, 1, 64, 0
2, 125204, Note_on_c, 1, 69, 73
2, 125212, Note_on_c, 1, 77, 83
2, 125212, Note_on_c, 1, 50, 36
2, 125228, Control_c, 1, 64, 127
2, 125288, Note_off_c, 1, 69, 64
2, 125296, Note_off_c, 1, 77, 64
2, 125476, Note_on_c, 1, 57, 48
2, 125480, Note_on_c, 1, 62, 45
2, 125520, Note_off_c, 1, 62, 64
2, 125528, Note_off_c, 1, 57, 64
2, 125540, Note_off_c, 1, 50, 64
2, 125748, Note_on_c, 1, 48, 31
2, 125752, Note_on_c, 1, 65, 54
2, 125760, Note_on_c, 1, 69, 66
2, 125772, Control_c, 1, 64, 0
2, 126024, Note_on_c, 1, 53, 67
2, 126036, Control_c, 1, 64, 127
2, 126104, Note_off_c, 1, 65, 64
2, 126120, Note_off_c, 1, 69, 64
2, 126148, Note_off_c, 1, 48, 64
2, 126156, Note_off_c, 1, 53, 64
2, 126292, Note_on_c, 1, 65, 71
2, 126296, Note_on_c, 1, 69, 76
2, 126296, Note_on_c, 1, 52, 60
2, 126316, Control_c, 1, 64, 0
2, 126384, Control_c, 1, 64, 127
2, 126444, Note_off_c, 1, 52, 64
2, 126568, Note_on_c, 1, 51, 69
2, 126580, Control_c, 1, 64, 0
2, 126584, Control_c, 1, 64, 127
2, 126644, Note_off_c, 1, 65, 64
2, 126648, Note_off_c, 1, 51, 64
2, 126656, Note_off_c, 1, 69, 64
2, 126832, Note_on_c, 1, 70, 85
2, 126832, Note_on_c, 1, 65, 73
2, 126836, Note_on_c, 1, 50, 62
2, 126852, Control_c, 1, 64, 0
2, 126908, Control_c, 1, 64, 127
2, 126924, Note_off_c, 1, 65, 64
2, 126948, Note_off_c, 1, 70, 0
2, 127108, Note_on_c, 1, 53, 65
2, 127240, Note_on_c, 1, 58, 69
2, 127380, Note_on_c, 1, 62, 75
2, 127460, Note_off_c, 1, 50, 0
2, 127464, Note_off_c, 1, 58, 64
2, 127468, Note_off_c, 1, 53, 64
2, 127592, Note_off_c, 1, 62, 64
2, 127824, Control_c, 1, 64, 0
2, 127944, Note_on_c, 1, 68, 47
2, 127948, Note_on_c, 1, 71, 55
2, 127948, Note_on_c, 1, 86, 92
2, 127956, Control_c, 1, 64, 127
2, 128008, Note_off_c, 1, 71, 64
2, 128016, Note_off_c, 1, 68, 64
2, 128084, Note_on_c, 1, 84, 80
2, 128220, Note_on_c, 1, 83, 83
2, 128228, Note_on_c, 1, 71, 51
2, 128228, Note_on_c, 1, 74, 56
2, 128260, Note_off_c, 1, 74, 64
2, 128268, Note_off_c, 1, 71, 64
2, 128356, Note_on_c, 1, 81, 80
2, 128440, Note_off_c, 1, 83, 64
2, 128488, Note_off_c, 1, 81, 64
2, 128488, Note_on_c, 1, 80, 65
2, 128492, Note_off_c, 1, 84, 0
2, 128492, Note_on_c, 1, 74, 58
2, 128500, Note_on_c, 1, 77, 57
2, 128504, Note_off_c, 1, 86, 0
2, 128512, Note_off_c, 1, 80, 64
2, 128524, Note_off_c, 1, 74, 64
2, 128524, Note_off_c, 1, 77, 64
2, 128744, Control_c, 1, 64, 0
2, 129048, Note_on_c, 1, 86, 58
2, 129048, Control_c, 1, 64, 127
2, 129056, Note_on_c, 1, 71, 31
2, 129056, Note_on_c, 1, 68, 31
2, 129100, Note_off_c, 1, 68, 64
2, 129108, Note_off_c, 1, 71, 64
2, 129192, Note_on_c, 1, 84, 56
2, 129320, Note_on_c, 1, 83, 60
2, 129320, Note_on_c, 1, 71, 40
2, 129328, Note_on_c, 1, 74, 35
2, 129372, Note_off_c, 1, 71, 64
2, 129372, Note_off_c, 1, 74, 64
2, 129404, Note_off_c, 1, 83, 64
2, 129444, Note_off_c, 1, 84, 0
2, 129464, Note_on_c, 1, 81, 58
2, 129584, Note_off_c, 1, 81, 64
2, 129592, Note_on_c, 1, 74, 28
2, 129592, Note_on_c, 1, 80, 36
2, 129596, Note_on_c, 1, 77, 37
2, 129612, Note_off_c, 1, 86, 0
2, 129620, Note_off_c, 1, 80, 64
2, 129632, Note_off_c, 1, 77, 64
2, 129636, Note_off_c, 1, 74, 64
2, 129672, Control_c, 1, 64, 0
2, 129860, Note_on_c, 1, 59, 73
2, 129860, Note_on_c, 1, 68, 69
2, 129868, Note_on_c, 1, 65, 62
2, 129868, Control_c, 1, 64, 127
2, 129872, Note_off_c, 1, 68, 64
2, 129872, Note_off_c, 1, 65, 64
2, 129880, Note_off_c, 1, 59, 64
2, 129888, Control_c, 1, 64, 0
2, 130160, Note_on_c, 1, 69, 62
2, 130164, Note_on_c, 1, 65, 41
2, 130164, Note_on_c, 1, 60, 30
2, 130164, Control_c, 1, 64, 127
2, 130216, Note_off_c, 1, 60, 64
2, 130304, Note_off_c, 1, 69, 64
2, 130316, Note_off_c, 1, 65, 64
2, 130704, Note_on_c, 1, 48, 23
2, 130708, Note_on_c, 1, 70, 58
2, 130712, Note_on_c, 1, 64, 42
2, 130720, Control_c, 1, 64, 0
2, 130724, Control_c, 1, 64, 127
2, 130728, Note_on_c, 1, 62, 24
2, 130756, Note_off_c, 1, 70, 64
2, 130760, Note_off_c, 1, 62, 64
2, 130768, Note_off_c, 1, 64, 64
2, 130852, Note_on_c, 1, 69, 65
2, 130856, Note_on_c, 1, 64, 55
2, 130856, Note_on_c, 1, 60, 29
2, 130880, Note_off_c, 1, 60, 64
2, 130884, Note_off_c, 1, 64, 64
2, 130888, Note_off_c, 1, 69, 64
2, 131000, Note_on_c, 1, 67, 63
2, 131004, Note_on_c, 1, 64, 56
2, 131004, Note_on_c, 1, 58, 45
2, 131012, Control_c, 1, 64, 0
2, 131108, Control_c, 1, 64, 127
2, 131152, Note_off_c, 1, 48, 0
2, 131152, Note_off_c, 1, 67, 64
2, 131152, Note_off_c, 1, 64, 64
2, 131152, Note_off_c, 1, 58, 64
2, 131280, Note_on_c, 1, 65, 59
2, 131284, Note_on_c, 1, 53, 46
2, 131284, Note_on_c, 1, 57, 46
2, 131288, Control_c, 1, 64, 0
2, 131544, Note_on_c, 1, 48, 69
2, 131556, Note_off_c, 1, 48, 64
2, 131668, Control_c, 1, 64, 127
2, 131672, Note_off_c, 1, 57, 64
2, 131732, Note_off_c, 1, 65, 64
2, 131824, Note_on_c, 1, 41, 83
2, 131828, Control_c, 1, 64, 0
2, 131876, Control_c, 1, 64, 127
2, 131896, Note_off_c, 1, 53, 64
2, 132032, Control_c, 1, 64, 0
2, 132092, Note_on_c, 1, 72, 77
2, 132096, Control_c, 1, 64, 127
2, 132104, Note_off_c, 1, 41, 64
2, 132216, Note_on_c, 1, 74, 89
2, 132220, Note_off_c, 1, 72, 64
2, 132272, Note_off_c, 1, 74, 0
2, 132340, Control_c, 1, 64, 0
2, 132356, Note_on_c, 1, 55, 52
2, 132364, Note_on_c, 1, 76, 77
2, 132368, Note_on_c, 1, 72, 63
2, 132376, Note_off_c, 1, 55, 64
2, 132632, Note_on_c, 1, 58, 55
2, 132632, Note_on_c, 1, 64, 59
2, 132632, Note_on_c, 1, 60, 56
2, 132644, Note_off_c, 1, 72, 64
2, 132648, Note_off_c, 1, 60, 64
2, 132652, Note_off_c, 1, 76, 64
2, 132652, Note_off_c, 1, 58, 64
2, 132652, Note_off_c, 1, 64, 64
2, 132772, Note_on_c, 1, 77, 77
2, 132772, Note_on_c, 1, 74, 69
2, 132772, Control_c, 1, 64, 127
2, 132788, Note_off_c, 1, 74, 64
2, 132792, Note_off_c, 1, 77, 64
2, 132908, Control_c, 1, 64, 0
2, 132916, Note_on_c, 1, 48, 52
2, 132916, Note_on_c, 1, 75, 77
2, 132916, Note_on_c, 1, 78, 71
2, 132940, Note_off_c, 1, 48, 64
2, 133056, Note_off_c, 1, 75, 64
2, 133060, Note_on_c, 1, 79, 73
2, 133060, Note_on_c, 1, 76, 63
2, 133064, Note_off_c, 1, 78, 64
2, 133184, Control_c, 1, 64, 127
2, 133192, Note_on_c, 1, 58, 55
2, 133192, Note_on_c, 1, 55, 63
2, 133192, Note_on_c, 1, 60, 59
2, 133196, Note_on_c, 1, 64, 55
2, 133200, Note_off_c, 1, 79, 64
2, 133200, Note_off_c, 1, 76, 64
2, 133276, Note_off_c, 1, 60, 64
2, 133280, Note_off_c, 1, 64, 64
2, 133292, Note_off_c, 1, 58, 64
2, 133292, Note_off_c, 1, 55, 64
2, 133464, Note_on_c, 1, 55, 69
2, 133468, Note_on_c, 1, 76, 77
2, 133468, Note_on_c, 1, 72, 65
2, 133476, Control_c, 1, 64, 0
2, 133488, Note_off_c, 1, 55, 0
2, 133732, Note_on_c, 1, 58, 54
2, 133732, Note_on_c, 1, 64, 65
2, 133732, Note_on_c, 1, 60, 61
2, 133752, Note_off_c, 1, 72, 0
2, 133752, Note_off_c, 1, 58, 64
2, 133752, Note_off_c, 1, 60, 64
2, 133756, Note_off_c, 1, 76, 0
2, 133756, Note_off_c, 1, 64, 64
2, 133868, Note_on_c, 1, 74, 67
2, 133876, Note_on_c, 1, 77, 73
2, 133892, Note_off_c, 1, 74, 64
2, 133892, Note_off_c, 1, 77, 64
2, 134000, Note_on_c, 1, 48, 55
2, 134008, Note_on_c, 1, 78, 67
2, 134008, Note_on_c, 1, 75, 64
2, 134020, Note_off_c, 1, 48, 64
2, 134020, Control_c, 1, 64, 127
2, 134136, Note_off_c, 1, 78, 64
2, 134136, Note_off_c, 1, 75, 64
2, 134136, Note_on_c, 1, 79, 67
2, 134144, Note_on_c, 1, 76, 61
2, 134156, Note_off_c, 1, 76, 64
2, 134160, Note_off_c, 1, 79, 64
2, 134276, Note_on_c, 1, 58, 34
2, 134276, Note_on_c, 1, 64, 51
2, 134280, Note_on_c, 1, 60, 41
2, 134284, Note_on_c, 1, 84, 86
2, 134292, Note_off_c, 1, 58, 64
2, 134300, Note_off_c, 1, 60, 64
2, 134300, Note_off_c, 1, 84, 64
2, 134308, Note_off_c, 1, 64, 64
2, 134484, Note_on_c, 1, 83, 86
2, 134556, Note_on_c, 1, 84, 88
2, 134568, Note_on_c, 1, 60, 59
2, 134568, Note_on_c, 1, 57, 56
2, 134568, Note_on_c, 1, 65, 58
2, 134568, Control_c, 1, 64, 0
2, 134572, Note_off_c, 1, 83, 64
2, 134588, Note_off_c, 1, 60, 64
2, 134596, Note_off_c, 1, 65, 64
2, 134600, Note_off_c, 1, 57, 64
2, 134692, Note_off_c, 1, 84, 64
2, 134692, Note_on_c, 1, 81, 80
2, 134824, Note_off_c, 1, 81, 0
2, 134832, Note_on_c, 1, 77, 75
2, 134952, Note_off_c, 1, 77, 64
2, 134968, Note_on_c, 1, 81, 64
2, 135112, Note_on_c, 1, 77, 61
2, 135116, Note_off_c, 1, 81, 64
2, 135252, Note_on_c, 1, 72, 46
2, 135388, Note_on_c, 1, 69, 29
2, 135516, Note_on_c, 1, 65, 42
2, 135532, Note_off_c, 1, 77, 64
2, 135540, Note_off_c, 1, 72, 64
2, 135540, Note_off_c, 1, 69, 64
2, 135572, Note_off_c, 1, 65, 64
2, 135656, Note_on_c, 1, 57, 71
2, 135784, Note_on_c, 1, 60, 67
2, 135788, Note_off_c, 1, 57, 64
2, 135920, Note_off_c, 1, 60, 64
2, 135920, Note_on_c, 1, 65, 65
2, 136028, Note_off_c, 1, 65, 0
2, 136052, Note_on_c, 1, 69, 64
2, 136064, Control_c, 1, 64, 127
2, 136072, Note_off_c, 1, 69, 64
2, 136152, Control_c, 1, 64, 0
2, 136200, Note_on_c, 1, 57, 65
2, 136200, Note_on_c, 1, 72, 83
2, 136200, Note_on_c, 1, 54, 46
2, 136208, Note_on_c, 1, 63, 26
2, 136216, Note_on_c, 1, 60, 23
2, 136340, Note_on_c, 1, 73, 71
2, 136352, Note_off_c, 1, 54, 64
2, 136356, Note_off_c, 1, 60, 64
2, 136360, Note_off_c, 1, 63, 64
2, 136368, Note_off_c, 1, 57, 64
2, 136368, Note_off_c, 1, 72, 64
2, 136488, Note_off_c, 1, 73, 64
2, 136488, Note_on_c, 1, 74, 67
2, 136620, Note_on_c, 1, 75, 60
2, 136632, Control_c, 1, 64, 127
2, 136652, Note_off_c, 1, 74, 64
2, 136664, Note_off_c, 1, 75, 64
2, 136752, Note_on_c, 1, 55, 60
2, 136764, Note_on_c, 1, 76, 75
2, 136768, Note_on_c, 1, 72, 62
2, 136768, Control_c, 1, 64, 0
2, 136780, Note_off_c, 1, 55, 64
2, 137032, Note_on_c, 1, 58, 49
2, 137036, Note_on_c, 1, 64, 58
2, 137036, Note_on_c, 1, 60, 52
2, 137052, Note_off_c, 1, 72, 64
2, 137052, Control_c, 1, 64, 127
2, 137052, Control_c, 1, 64, 0
2, 137056, Note_off_c, 1, 76, 64
2, 137056, Note_off_c, 1, 64, 64
2, 137056, Note_off_c, 1, 60, 64
2, 137068, Note_off_c, 1, 58, 64
2, 137172, Note_on_c, 1, 74, 73
2, 137172, Note_on_c, 1, 77, 77
2, 137172, Control_c, 1, 64, 127
2, 137184, Note_off_c, 1, 74, 64
2, 137188, Note_off_c, 1, 77, 64
2, 137276, Control_c, 1, 64, 0
2, 137312, Note_on_c, 1, 75, 77
2, 137312, Note_on_c, 1, 78, 83
2, 137324, Note_on_c, 1, 48, 24
2, 137332, Control_c, 1, 64, 127
2, 137340, Note_off_c, 1, 48, 64
2, 137456, Note_off_c, 1, 75, 64
2, 137456, Note_off_c, 1, 78, 64
2, 137456, Note_on_c, 1, 79, 64
2, 137456, Note_on_c, 1, 76, 57
2, 137456, Control_c, 1, 64, 0
2, 137584, Note_on_c, 1, 58, 47
2, 137588, Note_on_c, 1, 60, 54
2, 137588, Note_on_c, 1, 64, 58
2, 137596, Note_off_c, 1, 79, 64
2, 137604, Note_off_c, 1, 76, 64
2, 137608, Note_off_c, 1, 58, 64
2, 137608, Note_off_c, 1, 60, 64
2, 137612, Note_off_c, 1, 64, 64
2, 137864, Note_on_c, 1, 55, 67
2, 137868, Note_on_c, 1, 76, 75
2, 137872, Note_on_c, 1, 72, 64
2, 137876, Control_c, 1, 64, 127
2, 137880, Note_off_c, 1, 55, 64
2, 137924, Note_off_c, 1, 72, 64
2, 137964, Note_off_c, 1, 76, 64
2, 138136, Note_on_c, 1, 58, 56
2, 138136, Note_on_c, 1, 60, 59
2, 138136, Note_on_c, 1, 64, 59
2, 138156, Note_off_c, 1, 58, 64
2, 138156, Note_off_c, 1, 60, 64
2, 138156, Note_off_c, 1, 64, 64
2, 138196, Control_c, 1, 64, 0
2, 138276, Note_on_c, 1, 77, 77
2, 138276, Note_on_c, 1, 74, 67
2, 138296, Note_off_c, 1, 77, 64
2, 138296, Note_off_c, 1, 74, 64
2, 138408, Note_on_c, 1, 78, 75
2, 138408, Note_on_c, 1, 48, 64
2, 138408, Note_on_c, 1, 75, 77
2, 138416, Control_c, 1, 64, 127
2, 138424, Note_off_c, 1, 48, 64
2, 138540, Note_off_c, 1, 75, 0
2, 138540, Note_on_c, 1, 79, 83
2, 138540, Note_on_c, 1, 76, 73
2, 138544, Note_off_c, 1, 78, 0
2, 138560, Note_off_c, 1, 79, 64
2, 138560, Note_off_c, 1, 76, 64
2, 138680, Note_on_c, 1, 55, 65
2, 138680, Note_on_c, 1, 60, 60
2, 138680, Note_on_c, 1, 64, 56
2, 138688, Note_on_c, 1, 84, 83
2, 138704, Note_off_c, 1, 55, 64
2, 138704, Note_off_c, 1, 60, 64
2, 138708, Note_off_c, 1, 84, 64
2, 138716, Note_off_c, 1, 64, 64
2, 138872, Note_on_c, 1, 83, 86
2, 138960, Note_on_c, 1, 84, 86
2, 138968, Note_off_c, 1, 83, 64
2, 138968, Note_on_c, 1, 60, 54
2, 138968, Note_on_c, 1, 57, 52
2, 138968, Note_on_c, 1, 65, 46
2, 138972, Control_c, 1, 64, 0
2, 139080, Note_off_c, 1, 60, 64
2, 139088, Note_off_c, 1, 84, 64
2, 139088, Note_off_c, 1, 57, 64
2, 139092, Note_on_c, 1, 81, 77
2, 139096, Note_off_c, 1, 65, 64
2, 139224, Note_on_c, 1, 77, 69
2, 139232, Note_off_c, 1, 81, 64
2, 139364, Note_off_c, 1, 77, 64
2, 139372, Note_on_c, 1, 81, 75
2, 139512, Note_off_c, 1, 81, 64
2, 139512, Note_on_c, 1, 77, 69
2, 139644, Note_on_c, 1, 72, 59
2, 139788, Note_on_c, 1, 69, 62
2, 139908, Note_on_c, 1, 65, 58
2, 139932, Note_off_c, 1, 65, 64
2, 139976, Note_off_c, 1, 69, 64
2, 139988, Note_off_c, 1, 77, 0
2, 139988, Note_off_c, 1, 72, 0
2, 140052, Note_on_c, 1, 57, 75
2, 140184, Note_on_c, 1, 60, 67
2, 140328, Note_on_c, 1, 65, 67
2, 140424, Control_c, 1, 64, 127
2, 140452, Note_off_c, 1, 65, 64
2, 140456, Note_off_c, 1, 60, 64
2, 140456, Note_on_c, 1, 69, 67
2, 140460, Note_off_c, 1, 57, 64
2, 140600, Note_off_c, 1, 69, 64
2, 140600, Note_on_c, 1, 60, 66
2, 140600, Note_on_c, 1, 53, 48
2, 140600, Note_on_c, 1, 57, 49
2, 140604, Control_c, 1, 64, 0
2, 140744, Note_on_c, 1, 65, 60
2, 140876, Note_off_c, 1, 57, 64
2, 140884, Note_off_c, 1, 53, 64
2, 140884, Note_off_c, 1, 65, 64
2, 140884, Note_on_c, 1, 69, 62
2, 140896, Note_off_c, 1, 60, 64
2, 140912, Control_c, 1, 64, 127
2, 140980, Control_c, 1, 64, 0
2, 141004, Control_c, 1, 64, 127
2, 141016, Note_on_c, 1, 72, 52
2, 141020, Note_off_c, 1, 69, 0
2, 141152, Note_on_c, 1, 52, 48
2, 141156, Note_off_c, 1, 72, 64
2, 141160, Note_on_c, 1, 73, 63
2, 141160, Control_c, 1, 64, 0
2, 141172, Note_on_c, 1, 69, 49
2, 141180, Note_off_c, 1, 52, 64
2, 141432, Note_on_c, 1, 55, 61
2, 141432, Note_on_c, 1, 57, 55
2, 141440, Note_on_c, 1, 61, 44
2, 141456, Note_off_c, 1, 57, 64
2, 141460, Note_off_c, 1, 61, 64
2, 141464, Note_off_c, 1, 55, 64
2, 141556, Note_on_c, 1, 74, 71
2, 141564, Control_c, 1, 64, 127
2, 141568, Note_off_c, 1, 73, 64
2, 141580, Note_off_c, 1, 74, 64
2, 141688, Note_on_c, 1, 45, 51
2, 141692, Note_on_c, 1, 75, 62
2, 141716, Note_off_c, 1, 45, 64
2, 141720, Note_on_c, 1, 76, 52
2, 141732, Note_off_c, 1, 75, 64
2, 141736, Control_c, 1, 64, 0
2, 141848, Note_off_c, 1, 76, 64
2, 141848, Note_on_c, 1, 73, 60
2, 141976, Note_on_c, 1, 55, 59
2, 141984, Note_on_c, 1, 61, 43
2, 141984, Note_on_c, 1, 57, 61
2, 142004, Control_c, 1, 64, 127
2, 142020, Note_off_c, 1, 57, 64
2, 142024, Note_off_c, 1, 61, 64
2, 142028, Note_off_c, 1, 55, 64
2, 142036, Note_off_c, 1, 69, 64
2, 142040, Note_off_c, 1, 73, 64
2, 142184, Control_c, 1, 64, 0
2, 142244, Note_on_c, 1, 50, 30
2, 142252, Note_on_c, 1, 74, 67
2, 142252, Note_on_c, 1, 65, 64
2, 142392, Note_on_c, 1, 73, 69
2, 142408, Note_off_c, 1, 74, 64
2, 142528, Note_off_c, 1, 73, 64
2, 142528, Note_on_c, 1, 74, 75
2, 142532, Note_on_c, 1, 53, 35
2, 142536, Note_on_c, 1, 57, 32
2, 142540, Note_on_c, 1, 62, 29
2, 142656, Control_c, 1, 64, 127
2, 142664, Note_on_c, 1, 68, 63
2, 142668, Note_off_c, 1, 74, 64
2, 142668, Note_off_c, 1, 57, 64
2, 142668, Note_off_c, 1, 62, 64
2, 142672, Note_off_c, 1, 50, 64
2, 142672, Note_off_c, 1, 53, 64
2, 142684, Note_off_c, 1, 68, 64
2, 142692, Note_off_c, 1, 65, 64
2, 142804, Note_on_c, 1, 69, 65
2, 142808, Note_on_c, 1, 65, 56
2, 142812, Note_on_c, 1, 53, 41
2, 142816, Note_on_c, 1, 57, 32
2, 142816, Note_on_c, 1, 62, 29
2, 142820, Note_off_c, 1, 69, 64
2, 142824, Note_off_c, 1, 65, 64
2, 142892, Control_c, 1, 64, 0
2, 142936, Note_on_c, 1, 81, 74
2, 142952, Note_off_c, 1, 57, 64
2, 142952, Note_off_c, 1, 62, 64
2, 142956, Note_off_c, 1, 53, 64
2, 143080, Note_off_c, 1, 81, 64
2, 143080, Note_on_c, 1, 77, 83
2, 143208, Note_on_c, 1, 74, 77
2, 143216, Control_c, 1, 64, 127
2, 143220, Note_off_c, 1, 77, 64
2, 143232, Note_off_c, 1, 74, 64
2, 143332, Note_on_c, 1, 52, 28
2, 143352, Control_c, 1, 64, 0
2, 143356, Note_on_c, 1, 73, 58
2, 143360, Note_off_c, 1, 52, 64
2, 143364, Note_on_c, 1, 69, 58
2, 143632, Note_on_c, 1, 55, 50
2, 143636, Note_on_c, 1, 61, 44
2, 143636, Note_on_c, 1, 57, 45
2, 143652, Note_off_c, 1, 57, 64
2, 143656, Note_off_c, 1, 61, 64
2, 143660, Note_off_c, 1, 55, 64
2, 143760, Note_off_c, 1, 73, 0
2, 143764, Note_on_c, 1, 74, 67
2, 143908, Note_on_c, 1, 45, 25
2, 143908, Note_on_c, 1, 76, 67
2, 143912, Note_off_c, 1, 74, 64
2, 143932, Note_off_c, 1, 45, 64
2, 144040, Note_off_c, 1, 76, 64
2, 144044, Note_on_c, 1, 73, 54
2, 144180, Note_on_c, 1, 55, 49
2, 144180, Note_on_c, 1, 61, 38
2, 144180, Note_on_c, 1, 57, 52
2, 144200, Note_off_c, 1, 69, 0
2, 144212, Note_off_c, 1, 73, 64
2, 144212, Note_off_c, 1, 57, 64
2, 144224, Note_off_c, 1, 55, 64
2, 144228, Note_off_c, 1, 61, 64
2, 144452, Note_on_c, 1, 50, 34
2, 144480, Note_on_c, 1, 65, 75
2, 144480, Note_on_c, 1, 74, 66
2, 144616, Note_off_c, 1, 74, 64
2, 144616, Note_on_c, 1, 73, 69
2, 144744, Note_on_c, 1, 74, 77
2, 144752, Note_on_c, 1, 57, 55
2, 144752, Note_on_c, 1, 53, 53
2, 144752, Note_on_c, 1, 62, 45
2, 144760, Note_off_c, 1, 73, 0
2, 144772, Control_c, 1, 64, 127
2, 144788, Note_off_c, 1, 57, 64
2, 144792, Note_off_c, 1, 62, 64
2, 144804, Note_off_c, 1, 53, 64
2, 144808, Note_off_c, 1, 50, 0
2, 144852, Note_off_c, 1, 74, 64
2, 144860, Note_off_c, 1, 65, 0
2, 145020, Note_on_c, 1, 69, 75
2, 145020, Note_on_c, 1, 74, 84
2, 145020, Control_c, 1, 64, 0
2, 145024, Note_on_c, 1, 65, 75
2, 145024, Note_on_c, 1, 48, 37
2, 145292, Note_on_c, 1, 57, 67
2, 145292, Note_on_c, 1, 53, 67
2, 145292, Note_on_c, 1, 62, 59
2, 145316, Control_c, 1, 64, 127
2, 145332, Note_off_c, 1, 62, 64
2, 145336, Note_off_c, 1, 57, 64
2, 145336, Note_off_c, 1, 53, 64
2, 145356, Note_off_c, 1, 65, 64
2, 145364, Note_off_c, 1, 48, 64
2, 145368, Note_off_c, 1, 69, 64
2, 145376, Note_off_c, 1, 74, 64
2, 145556, Note_on_c, 1, 46, 69
2, 145556, Control_c, 1, 64, 0
2, 145560, Note_on_c, 1, 67, 72
2, 145560, Note_on_c, 1, 74, 87
2, 145588, Control_c, 1, 64, 127
2, 145620, Note_off_c, 1, 46, 64
2, 145832, Note_on_c, 1, 55, 60
2, 145832, Note_on_c, 1, 58, 62
2, 145832, Note_on_c, 1, 62, 65
2, 145844, Note_off_c, 1, 58, 64
2, 145844, Note_off_c, 1, 62, 64
2, 145848, Note_off_c, 1, 55, 64
2, 145956, Note_on_c, 1, 73, 73
2, 145968, Note_off_c, 1, 74, 0
2, 145980, Note_off_c, 1, 67, 0
2, 145992, Note_off_c, 1, 73, 64
2, 146092, Note_on_c, 1, 68, 73
2, 146092, Note_on_c, 1, 74, 92
2, 146092, Control_c, 1, 64, 0
2, 146096, Note_on_c, 1, 47, 69
2, 146124, Control_c, 1, 64, 127
2, 146148, Note_off_c, 1, 47, 64
2, 146236, Note_on_c, 1, 76, 89
2, 146240, Note_off_c, 1, 74, 64
2, 146376, Note_on_c, 1, 56, 65
2, 146376, Note_on_c, 1, 62, 63
2, 146376, Note_on_c, 1, 65, 62
2, 146388, Note_off_c, 1, 62, 64
2, 146392, Note_off_c, 1, 56, 64
2, 146392, Note_off_c, 1, 65, 64
2, 146496, Note_off_c, 1, 76, 64
2, 146500, Note_on_c, 1, 74, 92
2, 146540, Note_off_c, 1, 68, 64
2, 146540, Note_off_c, 1, 74, 64
2, 146624, Control_c, 1, 64, 0
2, 146632, Note_on_c, 1, 48, 58
2, 146636, Note_on_c, 1, 74, 86
2, 146640, Note_on_c, 1, 69, 73
2, 146652, Control_c, 1, 64, 127
2, 146656, Note_off_c, 1, 48, 64
2, 146780, Note_on_c, 1, 72, 75
2, 146784, Note_off_c, 1, 69, 64
2, 146792, Note_off_c, 1, 74, 64
2, 146792, Note_off_c, 1, 72, 64
2, 146916, Note_on_c, 1, 60, 58
2, 146916, Note_on_c, 1, 65, 64
2, 146916, Note_on_c, 1, 57, 65
2, 146932, Note_off_c, 1, 65, 64
2, 146936, Note_off_c, 1, 60, 64
2, 146936, Note_off_c, 1, 57, 64
2, 147032, Note_on_c, 1, 81, 92
2, 147056, Note_off_c, 1, 81, 64
2, 147176, Control_c, 1, 64, 0
2, 147180, Note_on_c, 1, 78, 75
2, 147180, Note_on_c, 1, 82, 83
2, 147180, Note_on_c, 1, 72, 69
2, 147180, Note_on_c, 1, 50, 73
2, 147200, Control_c, 1, 64, 127
2, 147204, Note_off_c, 1, 50, 0
2, 147356, Note_off_c, 1, 82, 0
2, 147472, Note_on_c, 1, 81, 86
2, 147480, Note_on_c, 1, 66, 45
2, 147480, Note_on_c, 1, 57, 51
2, 147480, Note_on_c, 1, 60, 52
2, 147484, Note_on_c, 1, 62, 56
2, 147504, Note_off_c, 1, 66, 64
2, 147504, Note_off_c, 1, 62, 64
2, 147508, Note_off_c, 1, 60, 64
2, 147512, Note_off_c, 1, 78, 0
2, 147512, Note_off_c, 1, 72, 0
2, 147512, Note_off_c, 1, 81, 64
2, 147520, Note_off_c, 1, 57, 64
2, 147744, Note_on_c, 1, 81, 81
2, 147748, Note_on_c, 1, 55, 56
2, 147748, Note_on_c, 1, 77, 76
2, 147748, Note_on_c, 1, 62, 59
2, 147748, Note_on_c, 1, 65, 57
2, 147748, Note_on_c, 1, 71, 67
2, 147748, Note_on_c, 1, 59, 56
2, 147752, Control_c, 1, 64, 0
2, 147776, Note_off_c, 1, 62, 64
2, 147776, Control_c, 1, 64, 127
2, 147780, Note_off_c, 1, 55, 64
2, 147780, Note_off_c, 1, 59, 64
2, 147784, Note_off_c, 1, 65, 64
2, 147876, Note_off_c, 1, 81, 64
2, 147880, Note_off_c, 1, 77, 64
2, 147888, Note_on_c, 1, 79, 86
2, 148016, Note_off_c, 1, 79, 64
2, 148020, Note_on_c, 1, 77, 89
2, 148020, Note_on_c, 1, 56, 50
2, 148024, Note_on_c, 1, 62, 56
2, 148028, Note_on_c, 1, 65, 32
2, 148028, Note_on_c, 1, 59, 40
2, 148040, Control_c, 1, 64, 0
2, 148044, Note_off_c, 1, 62, 64
2, 148044, Note_off_c, 1, 65, 64
2, 148048, Note_off_c, 1, 56, 64
2, 148048, Note_off_c, 1, 59, 64
2, 148076, Note_off_c, 1, 71, 64
2, 148168, Note_off_c, 1, 77, 64
2, 148168, Note_on_c, 1, 71, 80
2, 148288, Note_on_c, 1, 57, 57
2, 148296, Note_on_c, 1, 60, 54
2, 148296, Note_on_c, 1, 65, 42
2, 148300, Note_on_c, 1, 74, 75
2, 148304, Note_off_c, 1, 71, 64
2, 148312, Note_off_c, 1, 65, 64
2, 148316, Note_off_c, 1, 57, 64
2, 148316, Note_off_c, 1, 60, 64
2, 148424, Note_off_c, 1, 74, 64
2, 148424, Note_on_c, 1, 72, 65
2, 148560, Note_on_c, 1, 48, 43
2, 148564, Note_off_c, 1, 72, 0
2, 148564, Note_on_c, 1, 58, 43
2, 148564, Note_on_c, 1, 64, 59
2, 148564, Note_on_c, 1, 67, 65
2, 148596, Note_off_c, 1, 58, 64
2, 148704, Note_off_c, 1, 48, 64
2, 148708, Note_on_c, 1, 69, 62
2, 148712, Note_off_c, 1, 67, 64
2, 148828, Note_off_c, 1, 64, 64
2, 148832, Note_on_c, 1, 53, 56
2, 148836, Note_on_c, 1, 57, 48
2, 148836, Note_on_c, 1, 65, 58
2, 148840, Note_off_c, 1, 69, 64
2, 148864, Note_off_c, 1, 53, 64
2, 149116, Note_on_c, 1, 48, 64
2, 149140, Note_off_c, 1, 48, 64
2, 149300, Control_c, 1, 64, 127
2, 149340, Note_off_c, 1, 65, 64
2, 149404, Note_on_c, 1, 41, 46
2, 149408, Control_c, 1, 64, 0
2, 149460, Control_c, 1, 64, 127
2, 149532, Note_off_c, 1, 41, 64
2, 149532, Note_on_c, 1, 72, 73
2, 149556, Note_off_c, 1, 57, 64
2, 149556, Note_off_c, 1, 72, 64
2, 149668, Note_on_c, 1, 74, 77
2, 149668, Note_on_c, 1, 72, 67
2, 149676, Note_on_c, 1, 53, 67
2, 149692, Note_off_c, 1, 53, 0
2, 149700, Note_off_c, 1, 74, 0
2, 149708, Note_off_c, 1, 72, 0
2, 149788, Note_on_c, 1, 54, 77
2, 149800, Note_on_c, 1, 75, 86
2, 149800, Note_on_c, 1, 72, 71
2, 149812, Note_off_c, 1, 54, 64
2, 149836, Note_off_c, 1, 75, 64
2, 149848, Note_off_c, 1, 72, 64
2, 149928, Note_on_c, 1, 55, 75
2, 149932, Note_on_c, 1, 76, 86
2, 149936, Note_on_c, 1, 72, 69
2, 149952, Control_c, 1, 64, 0
2, 150176, Note_off_c, 1, 55, 64
2, 150212, Note_on_c, 1, 58, 53
2, 150212, Note_on_c, 1, 64, 62
2, 150216, Note_on_c, 1, 60, 61
2, 150224, Note_off_c, 1, 60, 64
2, 150228, Note_off_c, 1, 64, 64
2, 150232, Note_off_c, 1, 72, 64
2, 150232, Note_off_c, 1, 58, 64
2, 150248, Note_off_c, 1, 76, 64
2, 150348, Note_on_c, 1, 74, 83
2, 150348, Note_on_c, 1, 77, 83
2, 150368, Note_off_c, 1, 74, 64
2, 150368, Note_off_c, 1, 77, 64
2, 150484, Note_on_c, 1, 48, 63
2, 150484, Note_on_c, 1, 78, 92
2, 150484, Note_on_c, 1, 75, 89
2, 150492, Control_c, 1, 64, 127
2, 150496, Note_off_c, 1, 48, 64
2, 150624, Note_off_c, 1, 75, 64
2, 150636, Note_off_c, 1, 78, 64
2, 150636, Note_on_c, 1, 76, 63
2, 150636, Note_on_c, 1, 79, 67
2, 150652, Note_off_c, 1, 79, 64
2, 150656, Note_off_c, 1, 76, 64
2, 150760, Note_on_c, 1, 55, 65
2, 150760, Note_on_c, 1, 58, 60
2, 150760, Note_on_c, 1, 64, 75
2, 150760, Note_on_c, 1, 60, 73
2, 150860, Note_off_c, 1, 55, 64
2, 150860, Note_off_c, 1, 60, 64
2, 150864, Note_off_c, 1, 64, 64
2, 150868, Note_off_c, 1, 58, 64
2, 150952, Control_c, 1, 64, 0
2, 151048, Note_on_c, 1, 55, 57
2, 151052, Note_on_c, 1, 76, 80
2, 151052, Note_on_c, 1, 72, 67
2, 151056, Control_c, 1, 64, 127
2, 151080, Note_off_c, 1, 55, 64
2, 151140, Note_off_c, 1, 72, 64
2, 151156, Note_off_c, 1, 76, 64
2, 151312, Note_on_c, 1, 58, 49
2, 151316, Note_on_c, 1, 60, 58
2, 151316, Note_on_c, 1, 64, 62
2, 151324, Note_off_c, 1, 60, 64
2, 151332, Note_off_c, 1, 64, 64
2, 151336, Note_off_c, 1, 58, 64
2, 151344, Control_c, 1, 64, 0
2, 151440, Note_on_c, 1, 77, 80
2, 151440, Note_on_c, 1, 74, 65
2, 151460, Note_off_c, 1, 77, 64
2, 151464, Note_off_c, 1, 74, 64
2, 151580, Note_on_c, 1, 48, 63
2, 151580, Note_on_c, 1, 78, 71
2, 151584, Note_on_c, 1, 75, 73
2, 151584, Control_c, 1, 64, 127
2, 151592, Note_off_c, 1, 48, 64
2, 151704, Note_off_c, 1, 75, 64
2, 151708, Note_off_c, 1, 78, 64
2, 151712, Note_on_c, 1, 79, 80
2, 151712, Note_on_c, 1, 76, 69
2, 151724, Note_off_c, 1, 79, 64
2, 151724, Note_off_c, 1, 76, 64
2, 151856, Note_on_c, 1, 58, 48
2, 151860, Note_on_c, 1, 55, 65
2, 151864, Note_on_c, 1, 60, 56
2, 151864, Note_on_c, 1, 84, 89
2, 151864, Note_on_c, 1, 64, 55
2, 151884, Note_off_c, 1, 84, 64
2, 151888, Note_off_c, 1, 58, 64
2, 151888, Note_off_c, 1, 60, 64
2, 151892, Note_off_c, 1, 55, 64
2, 151892, Note_off_c, 1, 64, 64
2, 152068, Note_on_c, 1, 83, 83
2, 152148, Note_on_c, 1, 84, 92
2, 152148, Note_on_c, 1, 60, 58
2, 152148, Note_on_c, 1, 57, 56
2, 152148, Note_on_c, 1, 65, 63
2, 152160, Note_off_c, 1, 83, 64
2, 152168, Control_c, 1, 64, 0
2, 152200, Note_off_c, 1, 60, 0
2, 152220, Note_off_c, 1, 65, 0
2, 152240, Note_off_c, 1, 57, 0
2, 152276, Note_off_c, 1, 84, 0
2, 152276, Note_on_c, 1, 81, 73
2, 152416, Note_off_c, 1, 81, 64
2, 152424, Note_on_c, 1, 77, 73
2, 152552, Note_off_c, 1, 77, 64
2, 152560, Note_on_c, 1, 81, 64
2, 152600, Note_off_c, 1, 81, 64
2, 152684, Note_on_c, 1, 77, 71
2, 152824, Note_on_c, 1, 72, 65
2, 152952, Note_on_c, 1, 69, 67
2, 153092, Note_on_c, 1, 65, 55
2, 153128, Note_off_c, 1, 65, 64
2, 153216, Note_off_c, 1, 77, 64
2, 153220, Note_on_c, 1, 57, 67
2, 153228, Note_off_c, 1, 69, 64
2, 153232, Note_off_c, 1, 72, 64
2, 153368, Note_on_c, 1, 60, 43
2, 153500, Note_on_c, 1, 65, 56
2, 153596, Control_c, 1, 64, 127
2, 153620, Note_off_c, 1, 65, 64
2, 153624, Note_off_c, 1, 60, 0
2, 153628, Note_off_c, 1, 57, 0
2, 153640, Note_on_c, 1, 69, 63
2, 153660, Note_off_c, 1, 69, 64
2, 153776, Note_on_c, 1, 72, 71
2, 153776, Control_c, 1, 64, 0
2, 153780, Note_on_c, 1, 57, 59
2, 153780, Note_on_c, 1, 54, 41
2, 153788, Note_on_c, 1, 60, 59
2, 153788, Note_on_c, 1, 63, 53
2, 153912, Note_on_c, 1, 73, 76
2, 153920, Note_off_c, 1, 72, 64
2, 153996, Note_off_c, 1, 54, 64
2, 154020, Note_off_c, 1, 60, 64
2, 154028, Note_off_c, 1, 63, 64
2, 154032, Note_off_c, 1, 57, 64
2, 154044, Note_on_c, 1, 74, 81
2, 154060, Note_off_c, 1, 73, 64
2, 154192, Note_on_c, 1, 75, 71
2, 154200, Note_off_c, 1, 74, 64
2, 154200, Control_c, 1, 64, 127
2, 154212, Note_off_c, 1, 75, 64
2, 154336, Note_on_c, 1, 55, 40
2, 154348, Note_on_c, 1, 76, 69
2, 154352, Note_on_c, 1, 72, 60
2, 154364, Control_c, 1, 64, 0
2, 154368, Note_off_c, 1, 55, 64
2, 154612, Note_on_c, 1, 58, 49
2, 154616, Note_off_c, 1, 72, 64
2, 154616, Note_on_c, 1, 64, 56
2, 154616, Note_on_c, 1, 60, 54
2, 154624, Note_off_c, 1, 58, 64
2, 154632, Note_off_c, 1, 60, 64
2, 154636, Note_off_c, 1, 76, 64
2, 154636, Note_off_c, 1, 64, 64
2, 154740, Control_c, 1, 64, 127
2, 154744, Note_on_c, 1, 77, 80
2, 154744, Note_on_c, 1, 74, 75
2, 154764, Note_off_c, 1, 77, 64
2, 154764, Note_off_c, 1, 74, 64
2, 154812, Control_c, 1, 64, 0
2, 154880, Note_on_c, 1, 48, 65
2, 154888, Note_on_c, 1, 78, 73
2, 154888, Note_on_c, 1, 75, 68
2, 154892, Control_c, 1, 64, 127
2, 154900, Note_off_c, 1, 48, 64
2, 155020, Note_off_c, 1, 78, 64
2, 155020, Note_off_c, 1, 75, 64
2, 155024, Note_on_c, 1, 79, 69
2, 155024, Note_on_c, 1, 76, 67
2, 155160, Note_on_c, 1, 58, 60
2, 155160, Note_on_c, 1, 64, 69
2, 155160, Note_on_c, 1, 60, 64
2, 155180, Note_off_c, 1, 76, 64
2, 155184, Note_off_c, 1, 79, 64
2, 155324, Note_off_c, 1, 58, 64
2, 155324, Note_off_c, 1, 60, 64
2, 155332, Note_off_c, 1, 64, 64
2, 155436, Note_on_c, 1, 72, 63
2, 155436, Note_on_c, 1, 76, 80
2, 155436, Note_on_c, 1, 55, 75
2, 155448, Control_c, 1, 64, 0
2, 155704, Note_off_c, 1, 72, 64
2, 155708, Note_off_c, 1, 76, 64
2, 155712, Note_on_c, 1, 64, 67
2, 155720, Note_on_c, 1, 58, 54
2, 155720, Note_on_c, 1, 60, 64
2, 155736, Note_off_c, 1, 64, 64
2, 155736, Note_off_c, 1, 58, 64
2, 155736, Note_off_c, 1, 60, 64
2, 155744, Note_off_c, 1, 55, 64
2, 155836, Note_on_c, 1, 74, 75
2, 155836, Note_on_c, 1, 77, 83
2, 155856, Note_off_c, 1, 74, 64
2, 155856, Note_off_c, 1, 77, 64
2, 155968, Note_on_c, 1, 48, 64
2, 155980, Note_on_c, 1, 78, 77
2, 155980, Note_on_c, 1, 75, 77
2, 155988, Note_off_c, 1, 48, 64
2, 155992, Control_c, 1, 64, 127
2, 156120, Note_off_c, 1, 75, 64
2, 156120, Note_on_c, 1, 79, 80
2, 156124, Note_off_c, 1, 78, 64
2, 156124, Note_on_c, 1, 76, 75
2, 156136, Note_off_c, 1, 76, 64
2, 156140, Note_off_c, 1, 79, 64
2, 156256, Note_on_c, 1, 58, 50
2, 156256, Note_on_c, 1, 55, 56
2, 156256, Note_on_c, 1, 84, 83
2, 156260, Note_on_c, 1, 60, 58
2, 156260, Note_on_c, 1, 64, 63
2, 156280, Note_off_c, 1, 60, 64
2, 156284, Note_off_c, 1, 58, 64
2, 156284, Note_off_c, 1, 55, 64
2, 156284, Note_off_c, 1, 64, 64
2, 156308, Note_off_c, 1, 84, 64
2, 156460, Note_on_c, 1, 83, 80
2, 156532, Note_on_c, 1, 65, 63
2, 156532, Note_on_c, 1, 57, 60
2, 156532, Note_on_c, 1, 60, 61
2, 156532, Note_on_c, 1, 84, 86
2, 156536, Note_off_c, 1, 83, 64
2, 156544, Control_c, 1, 64, 0
2, 156672, Note_off_c, 1, 84, 64
2, 156676, Note_on_c, 1, 81, 77
2, 156696, Note_off_c, 1, 60, 64
2, 156812, Note_off_c, 1, 81, 64
2, 156816, Note_off_c, 1, 65, 64
2, 156816, Note_on_c, 1, 77, 77
2, 156824, Note_off_c, 1, 57, 64
2, 156952, Note_off_c, 1, 77, 64
2, 156952, Note_on_c, 1, 81, 73
2, 157088, Note_off_c, 1, 81, 64
2, 157092, Note_on_c, 1, 77, 67
2, 157228, Note_on_c, 1, 72, 61
2, 157372, Note_on_c, 1, 69, 60
2, 157508, Note_on_c, 1, 65, 56
2, 157532, Note_off_c, 1, 65, 64
2, 157548, Note_off_c, 1, 72, 64
2, 157548, Note_off_c, 1, 69, 64
2, 157556, Note_off_c, 1, 77, 0
2, 157640, Note_on_c, 1, 57, 75
2, 157772, Note_on_c, 1, 60, 65
2, 157912, Note_on_c, 1, 65, 71
2, 157948, Control_c, 1, 64, 127
2, 157996, Note_off_c, 1, 65, 64
2, 158000, Note_off_c, 1, 60, 64
2, 158008, Note_off_c, 1, 57, 64
2, 158040, Note_on_c, 1, 69, 77
2, 158056, Note_off_c, 1, 69, 64
2, 158172, Note_on_c, 1, 60, 71
2, 158180, Note_on_c, 1, 53, 63
2, 158180, Note_on_c, 1, 57, 71
2, 158188, Control_c, 1, 64, 0
2, 158308, Note_on_c, 1, 65, 86
2, 158328, Control_c, 1, 64, 127
2, 158376, Note_off_c, 1, 53, 64
2, 158376, Note_off_c, 1, 57, 64
2, 158432, Note_off_c, 1, 65, 0
2, 158456, Note_on_c, 1, 69, 80
2, 158576, Note_off_c, 1, 60, 0
2, 158580, Note_off_c, 1, 69, 64
2, 158580, Note_on_c, 1, 72, 83
2, 158604, Note_off_c, 1, 72, 64
2, 158732, Note_on_c, 1, 52, 58
2, 158752, Note_on_c, 1, 73, 89
2, 158752, Note_on_c, 1, 69, 75
2, 158752, Control_c, 1, 64, 0
2, 158768, Note_off_c, 1, 52, 64
2, 159020, Note_on_c, 1, 55, 71
2, 159020, Note_on_c, 1, 61, 58
2, 159024, Note_on_c, 1, 57, 73
2, 159032, Note_off_c, 1, 57, 64
2, 159036, Note_off_c, 1, 55, 64
2, 159036, Note_off_c, 1, 61, 64
2, 159144, Note_on_c, 1, 74, 86
2, 159156, Note_off_c, 1, 73, 64
2, 159156, Control_c, 1, 64, 127
2, 159184, Note_off_c, 1, 74, 64
2, 159284, Note_on_c, 1, 45, 63
2, 159284, Note_on_c, 1, 75, 62
2, 159300, Note_on_c, 1, 76, 73
2, 159300, Control_c, 1, 64, 0
2, 159312, Note_off_c, 1, 45, 64
2, 159312, Note_off_c, 1, 75, 64
2, 159428, Note_off_c, 1, 76, 64
2, 159428, Note_on_c, 1, 73, 75
2, 159576, Note_on_c, 1, 55, 75
2, 159576, Note_on_c, 1, 61, 53
2, 159580, Note_on_c, 1, 57, 75
2, 159588, Control_c, 1, 64, 127
2, 159600, Note_off_c, 1, 69, 64
2, 159600, Note_off_c, 1, 73, 64
2, 159604, Note_off_c, 1, 57, 64
2, 159608, Note_off_c, 1, 55, 64
2, 159608, Note_off_c, 1, 61, 64
2, 159820, Note_on_c, 1, 50, 62
2, 159832, Control_c, 1, 64, 0
2, 159836, Note_on_c, 1, 74, 91
2, 159836, Note_on_c, 1, 65, 76
2, 159984, Note_off_c, 1, 74, 64
2, 159988, Note_on_c, 1, 73, 71
2, 160120, Note_off_c, 1, 73, 64
2, 160124, Note_off_c, 1, 50, 64
2, 160124, Note_on_c, 1, 74, 80
2, 160128, Note_on_c, 1, 57, 63
2, 160128, Note_on_c, 1, 62, 58
2, 160128, Note_on_c, 1, 53, 58
2, 160148, Note_off_c, 1, 57, 64
2, 160148, Note_off_c, 1, 53, 64
2, 160156, Note_off_c, 1, 62, 64
2, 160252, Note_off_c, 1, 74, 64
2, 160252, Note_on_c, 1, 68, 63
2, 160276, Control_c, 1, 64, 127
2, 160300, Note_off_c, 1, 68, 64
2, 160308, Note_off_c, 1, 65, 64
2, 160372, Control_c, 1, 64, 0
2, 160380, Control_c, 1, 64, 127
2, 160396, Note_on_c, 1, 57, 52
2, 160396, Note_on_c, 1, 69, 80
2, 160396, Note_on_c, 1, 53, 55
2, 160396, Note_on_c, 1, 62, 33
2, 160396, Note_on_c, 1, 65, 63
2, 160404, Note_off_c, 1, 65, 64
2, 160408, Note_off_c, 1, 57, 64
2, 160408, Note_off_c, 1, 69, 64
2, 160416, Note_off_c, 1, 53, 64
2, 160416, Note_off_c, 1, 62, 64
2, 160528, Control_c, 1, 64, 0
2, 160540, Note_on_c, 1, 81, 91
2, 160668, Note_on_c, 1, 77, 89
2, 160676, Note_off_c, 1, 81, 64
2, 160796, Note_on_c, 1, 74, 89
2, 160796, Control_c, 1, 64, 127
2, 160808, Note_off_c, 1, 77, 64
2, 160816, Note_off_c, 1, 74, 64
2, 160936, Note_on_c, 1, 73, 63
2, 160936, Note_on_c, 1, 52, 64
2, 160940, Note_on_c, 1, 69, 69
2, 160952, Control_c, 1, 64, 0
2, 160956, Note_off_c, 1, 52, 64
2, 161216, Note_on_c, 1, 55, 60
2, 161216, Note_on_c, 1, 61, 56
2, 161216, Note_on_c, 1, 57, 69
2, 161228, Note_off_c, 1, 57, 64
2, 161236, Note_off_c, 1, 55, 64
2, 161236, Note_off_c, 1, 61, 64
2, 161352, Note_on_c, 1, 74, 83
2, 161360, Note_off_c, 1, 73, 64
2, 161380, Note_off_c, 1, 74, 64
2, 161484, Note_on_c, 1, 45, 65
2, 161492, Note_on_c, 1, 76, 80
2, 161508, Note_off_c, 1, 45, 64
2, 161632, Note_off_c, 1, 76, 64
2, 161636, Note_on_c, 1, 73, 65
2, 161780, Note_off_c, 1, 69, 64
2, 161780, Note_on_c, 1, 55, 64
2, 161780, Note_on_c, 1, 61, 47
2, 161780, Note_on_c, 1, 57, 62
2, 161784, Note_off_c, 1, 73, 64
2, 161784, Control_c, 1, 64, 127
2, 161796, Note_off_c, 1, 57, 64
2, 161804, Note_off_c, 1, 55, 64
2, 161804, Note_off_c, 1, 61, 64
2, 161900, Control_c, 1, 64, 0
2, 162012, Note_on_c, 1, 50, 43
2, 162044, Note_on_c, 1, 74, 71
2, 162052, Note_on_c, 1, 65, 58
2, 162060, Note_off_c, 1, 50, 64
2, 162188, Note_on_c, 1, 73, 67
2, 162192, Note_off_c, 1, 74, 0
2, 162316, Note_on_c, 1, 74, 67
2, 162328, Note_off_c, 1, 73, 64
2, 162328, Note_on_c, 1, 53, 55
2, 162332, Note_on_c, 1, 57, 52
2, 162332, Note_on_c, 1, 62, 35
2, 162336, Control_c, 1, 64, 127
2, 162360, Note_off_c, 1, 53, 64
2, 162364, Note_off_c, 1, 57, 64
2, 162368, Note_off_c, 1, 62, 64
2, 162416, Note_off_c, 1, 74, 64
2, 162432, Note_off_c, 1, 65, 0
2, 162584, Note_on_c, 1, 48, 32
2, 162612, Note_on_c, 1, 74, 55
2, 162612, Note_on_c, 1, 69, 57
2, 162616, Control_c, 1, 64, 0
2, 162620, Note_on_c, 1, 65, 29
2, 162872, Note_on_c, 1, 57, 51
2, 162876, Note_on_c, 1, 62, 47
2, 162876, Note_on_c, 1, 53, 33
2, 162880, Control_c, 1, 64, 127
2, 162912, Note_off_c, 1, 57, 64
2, 162916, Note_off_c, 1, 62, 64
2, 162916, Note_off_c, 1, 53, 64
2, 162924, Note_off_c, 1, 48, 64
2, 162932, Note_off_c, 1, 65, 64
2, 162944, Note_off_c, 1, 74, 64
2, 162972, Note_off_c, 1, 69, 64
2, 163116, Note_on_c, 1, 46, 47
2, 163132, Control_c, 1, 64, 0
2, 163148, Note_on_c, 1, 74, 67
2, 163148, Note_on_c, 1, 67, 58
2, 163164, Control_c, 1, 64, 127
2, 163192, Note_off_c, 1, 46, 64
2, 163292, Note_on_c, 1, 73, 74
2, 163300, Note_off_c, 1, 74, 64
2, 163420, Note_on_c, 1, 55, 52
2, 163424, Note_on_c, 1, 74, 86
2, 163428, Note_on_c, 1, 58, 29
2, 163428, Note_on_c, 1, 62, 43
2, 163444, Note_off_c, 1, 73, 0
2, 163456, Note_off_c, 1, 58, 64
2, 163460, Note_off_c, 1, 62, 64
2, 163476, Note_off_c, 1, 55, 64
2, 163520, Note_off_c, 1, 67, 0
2, 163532, Note_off_c, 1, 74, 64
2, 163668, Note_on_c, 1, 47, 40
2, 163676, Control_c, 1, 64, 0
2, 163692, Note_on_c, 1, 74, 69
2, 163696, Note_on_c, 1, 68, 58
2, 163704, Control_c, 1, 64, 127
2, 163708, Note_off_c, 1, 47, 64
2, 163840, Note_on_c, 1, 76, 73
2, 163844, Note_off_c, 1, 74, 64
2, 163972, Note_on_c, 1, 56, 55
2, 163976, Note_on_c, 1, 62, 57
2, 163980, Note_on_c, 1, 65, 47
2, 163980, Control_c, 1, 64, 0
2, 163996, Note_off_c, 1, 62, 64
2, 163996, Control_c, 1, 64, 127
2, 164000, Note_off_c, 1, 56, 64
2, 164008, Note_off_c, 1, 65, 64
2, 164104, Note_on_c, 1, 74, 83
2, 164116, Note_off_c, 1, 76, 64
2, 164148, Note_off_c, 1, 68, 64
2, 164156, Note_off_c, 1, 74, 64
2, 164228, Note_on_c, 1, 48, 29
2, 164228, Control_c, 1, 64, 0
2, 164248, Note_on_c, 1, 74, 77
2, 164252, Note_on_c, 1, 69, 62
2, 164260, Note_off_c, 1, 48, 64
2, 164264, Control_c, 1, 64, 127
2, 164384, Note_on_c, 1, 72, 73
2, 164392, Note_off_c, 1, 74, 64
2, 164448, Note_off_c, 1, 69, 64
2, 164460, Note_off_c, 1, 72, 64
2, 164516, Note_on_c, 1, 57, 55
2, 164520, Note_on_c, 1, 65, 55
2, 164520, Note_on_c, 1, 60, 54
2, 164540, Note_off_c, 1, 65, 64
2, 164540, Note_off_c, 1, 60, 64
2, 164544, Note_off_c, 1, 57, 64
2, 164628, Control_c, 1, 64, 0
2, 164628, Control_c, 1, 64, 127
2, 164636, Note_on_c, 1, 81, 77
2, 164644, Control_c, 1, 64, 0
2, 164656, Note_off_c, 1, 81, 64
2, 164792, Note_on_c, 1, 50, 61
2, 164796, Note_on_c, 1, 82, 89
2, 164796, Note_on_c, 1, 78, 69
2, 164804, Note_on_c, 1, 72, 80
2, 164804, Control_c, 1, 64, 127
2, 164812, Note_off_c, 1, 50, 64
2, 164956, Note_off_c, 1, 82, 64
2, 165080, Note_on_c, 1, 81, 89
2, 165084, Note_on_c, 1, 66, 58
2, 165088, Note_on_c, 1, 60, 51
2, 165088, Note_on_c, 1, 57, 67
2, 165104, Note_off_c, 1, 78, 64
2, 165112, Note_off_c, 1, 66, 64
2, 165112, Note_off_c, 1, 60, 64
2, 165116, Note_off_c, 1, 57, 64
2, 165144, Note_off_c, 1, 81, 64
2, 165152, Note_off_c, 1, 72, 64
2, 165344, Note_on_c, 1, 55, 58
2, 165344, Note_on_c, 1, 59, 57
2, 165344, Note_on_c, 1, 77, 75
2, 165352, Note_on_c, 1, 81, 75
2, 165352, Note_on_c, 1, 62, 52
2, 165352, Note_on_c, 1, 65, 53
2, 165352, Note_on_c, 1, 71, 60
2, 165356, Control_c, 1, 64, 0
2, 165372, Note_off_c, 1, 62, 64
2, 165372, Note_off_c, 1, 65, 64
2, 165380, Note_off_c, 1, 55, 64
2, 165380, Note_off_c, 1, 59, 64
2, 165492, Note_on_c, 1, 79, 83
2, 165504, Note_off_c, 1, 77, 64
2, 165504, Note_off_c, 1, 81, 64
2, 165616, Note_on_c, 1, 77, 75
2, 165624, Note_off_c, 1, 79, 64
2, 165624, Note_on_c, 1, 56, 45
2, 165624, Note_on_c, 1, 62, 46
2, 165628, Note_on_c, 1, 65, 46
2, 165628, Note_on_c, 1, 59, 30
2, 165656, Control_c, 1, 64, 127
2, 165660, Note_off_c, 1, 71, 64
2, 165716, Note_off_c, 1, 56, 64
2, 165724, Note_off_c, 1, 59, 64
2, 165728, Note_off_c, 1, 62, 64
2, 165732, Note_off_c, 1, 65, 64
2, 165760, Note_off_c, 1, 77, 64
2, 165768, Note_on_c, 1, 71, 67
2, 165904, Note_off_c, 1, 71, 0
2, 165904, Note_on_c, 1, 60, 50
2, 165904, Note_on_c, 1, 57, 56
2, 165904, Note_on_c, 1, 65, 41
2, 165908, Note_on_c, 1, 74, 64
2, 165932, Note_off_c, 1, 65, 64
2, 165932, Control_c, 1, 64, 0
2, 165936, Note_off_c, 1, 60, 64
2, 165948, Note_off_c, 1, 57, 64
2, 166040, Note_on_c, 1, 72, 56
2, 166056, Note_off_c, 1, 74, 64
2, 166172, Note_on_c, 1, 58, 28
2, 166172, Note_on_c, 1, 64, 50
2, 166176, Note_off_c, 1, 72, 64
2, 166176, Note_on_c, 1, 67, 59
2, 166176, Note_on_c, 1, 48, 30
2, 166204, Note_off_c, 1, 48, 64
2, 166208, Note_off_c, 1, 58, 64
2, 166316, Note_on_c, 1, 69, 59
2, 166324, Note_off_c, 1, 67, 64
2, 166440, Note_off_c, 1, 64, 64
2, 166444, Note_on_c, 1, 53, 47
2, 166448, Note_off_c, 1, 69, 64
2, 166448, Note_on_c, 1, 65, 48
2, 166448, Note_on_c, 1, 57, 37
2, 166480, Note_off_c, 1, 53, 64
2, 166744, Note_on_c, 1, 48, 47
2, 166752, Note_off_c, 1, 65, 64
2, 166768, Note_off_c, 1, 48, 64
2, 166800, Note_off_c, 1, 57, 64
2, 167076, Control_c, 1, 64, 127
2, 167080, Note_on_c, 1, 69, 98
2, 167080, Note_on_c, 1, 72, 96
2, 167080, Note_on_c, 1, 77, 111
2, 167080, Note_on_c, 1, 65, 98
2, 167080, Note_on_c, 1, 41, 83
2, 167096, Note_off_c, 1, 41, 64
2, 167112, Note_off_c, 1, 65, 64
2, 167116, Note_off_c, 1, 69, 64
2, 167116, Note_off_c, 1, 72, 64
2, 167116, Note_off_c, 1, 77, 0
2, 167280, Control_c, 1, 64, 0
2, 167280, End_track
3, 0, Start_track
3, 0, Title_t, "Alessandro Simonetto, piano"
3, 0, Key_signature, 0, "major"
3, 0, End_track
4, 0, Start_track
4, 0, Title_t, "Info: www.kunstderfuge.com/ragtime.htm!"
4, 0, Key_signature, 0, "major"
4, 0, End_track
5, 0, Start_track
5, 0, Title_t, "All rights reserved,  2003-04"
5, 0, Key_signature, 0, "major"
5, 0, End_track
6, 0, Start_track
6, 0, Key_signature, 0, "major"
6, 0, End_track
7, 0, Start_track
7, 0, Key_signature, 0, "major"
7, 0, End_track
8, 0, Start_track
8, 0, Key_signature, 0, "major"
8, 0, End_track
9, 0, Start_track
9, 0, Key_signature, 0, "major"
9, 0, End_track
10, 0, Start_track
10, 0, Key_signature, 0, "major"
10, 0, End_track
11, 0, Start_track
11, 0, Key_signature, 0, "major"
11, 0, End_track
12, 0, Start_track
12, 0, Key_signature, 0, "major"
12, 0, End_track
13, 0, Start_track
13, 0, Key_signature, 0, "major"
13, 0, End_track
14, 0, Start_track
14, 0, Key_signature, 0, "major"
14, 0, End_track
15, 0, Start_track
15, 0, Key_signature, 0, "major"
15, 0, End_track
16, 0, Start_track
16, 0, Key_signature, 0, "major"
16, 0, End_track
17, 0, Start_track
17, 0, Key_signature, 0, "major"
17, 0, End_track
18, 0, Start_track
18, 1, Copyright_t, "___________________________________________________\012\012KUNSTDERFUGE.COM LARGE CLASSICAL MIDI COLLECTION\012ONCLASSICAL BY ALESSANDRO SIMONETTO, PROPRIETOR\012___________________________________________________\012\012! Attention: this file is under copyright !\012\012(c)onclassical, (c)simonetto, 2010\012___________________________________________________\012\012NO ONE MAY REPUBLISH THIS FILE WITHOUT PERMISSION\012COMMERCIAL USES OF THIS FILE IS STRICTLY PROHIBITED\012___________________________________________________\012\012Files & contributor's list: http://kunstderfuge.com/\012Terms and conditions: http://kunstderfuge.com/notes.htm"
18, 1, End_track
0, 0, End_of_file
