0, 0, Header, 1, 18, 384
1, 0, Start_track
1, 0, Time_signature, 4, 2, 96, 8
1, 0, Sequencer_specific, 3, 0, 0, 65
1, 0, Tempo, 500000
1, 0, End_track
2, 0, Start_track
2, 0, Title_t, "Scott Joplin's Rag-Time performance"
2, 0, Key_signature, 0, "major"
2, 1884, Note_on_c, 1, 77, 69
2, 1888, Note_on_c, 1, 65, 40
2, 1988, Note_on_c, 1, 78, 73
2, 1992, Note_off_c, 1, 77, 64
2, 1996, Note_on_c, 1, 66, 37
2, 2012, Note_off_c, 1, 65, 64
2, 2100, Note_on_c, 1, 67, 62
2, 2104, Note_off_c, 1, 78, 64
2, 2104, Note_on_c, 1, 79, 70
2, 2108, Note_off_c, 1, 66, 64
2, 2208, Note_off_c, 1, 79, 64
2, 2208, Note_on_c, 1, 80, 73
2, 2208, Note_on_c, 1, 68, 53
2, 2216, Note_off_c, 1, 67, 64
2, 2320, Note_on_c, 1, 69, 66
2, 2324, Note_off_c, 1, 80, 64
2, 2324, Note_on_c, 1, 81, 83
2, 2328, Note_off_c, 1, 68, 64
2, 2780, Note_off_c, 1, 81, 64
2, 2784, Note_off_c, 1, 69, 64
2, 2868, Note_on_c, 1, 81, 63
2, 2868, Note_on_c, 1, 69, 51
2, 2976, Note_on_c, 1, 82, 78
2, 2980, Note_on_c, 1, 70, 55
2, 2984, Note_off_c, 1, 81, 64
2, 2984, Note_off_c, 1, 69, 64
2, 3080, Note_off_c, 1, 70, 64
2, 3080, Note_off_c, 1, 82, 64
2, 3080, Note_on_c, 1, 83, 83
2, 3080, Note_on_c, 1, 71, 64
2, 3200, Note_off_c, 1, 71, 64
2, 3204, Note_on_c, 1, 72, 66
2, 3204, Note_on_c, 1, 84, 83
2, 3208, Note_off_c, 1, 83, 64
2, 3464, Note_off_c, 1, 72, 0
2, 3464, Note_off_c, 1, 84, 0
2, 3520, Control_c, 1, 64, 127
2, 3540, Control_c, 1, 64, 0
2, 3632, Note_on_c, 1, 75, 51
2, 3632, Note_on_c, 1, 87, 53
2, 3744, Note_on_c, 1, 74, 46
2, 3744, Note_on_c, 1, 86, 67
2, 3748, Note_off_c, 1, 75, 64
2, 3760, Note_off_c, 1, 87, 64
2, 3852, Note_on_c, 1, 72, 53
2, 3856, Note_off_c, 1, 74, 64
2, 3856, Note_on_c, 1, 84, 70
2, 3864, Note_off_c, 1, 86, 64
2, 3964, Note_on_c, 1, 70, 55
2, 3972, Note_off_c, 1, 72, 64
2, 3972, Note_on_c, 1, 82, 78
2, 3976, Note_off_c, 1, 84, 64
2, 4076, Note_off_c, 1, 82, 64
2, 4080, Note_off_c, 1, 70, 64
2, 4080, Note_on_c, 1, 81, 88
2, 4080, Note_on_c, 1, 69, 66
2, 4188, Note_off_c, 1, 69, 64
2, 4192, Note_on_c, 1, 80, 96
2, 4192, Note_on_c, 1, 68, 65
2, 4196, Note_off_c, 1, 81, 64
2, 4296, Note_off_c, 1, 68, 64
2, 4296, Note_on_c, 1, 79, 96
2, 4304, Note_off_c, 1, 80, 64
2, 4308, Note_on_c, 1, 67, 70
2, 4408, Note_on_c, 1, 78, 93
2, 4408, Note_on_c, 1, 66, 71
2, 4412, Note_off_c, 1, 79, 64
2, 4412, Note_off_c, 1, 67, 64
2, 4516, Note_off_c, 1, 78, 64
2, 4516, Note_off_c, 1, 66, 64
2, 4516, Note_on_c, 1, 77, 93
2, 4520, Note_on_c, 1, 65, 77
2, 4584, Note_off_c, 1, 77, 64
2, 4608, Note_off_c, 1, 65, 64
2, 4980, Note_on_c, 1, 84, 104
2, 4980, Note_on_c, 1, 89, 100
2, 4980, Note_on_c, 1, 81, 108
2, 4980, Note_on_c, 1, 29, 85
2, 4980, Note_on_c, 1, 77, 93
2, 4984, Note_on_c, 1, 41, 88
2, 4984, Control_c, 1, 64, 127
2, 5020, Note_off_c, 1, 84, 64
2, 5020, Note_off_c, 1, 81, 64
2, 5020, Note_off_c, 1, 29, 64
2, 5024, Note_off_c, 1, 89, 64
2, 5024, Note_off_c, 1, 77, 64
2, 5024, Note_off_c, 1, 41, 64
2, 5224, Control_c, 1, 64, 0
2, 5436, Note_on_c, 1, 82, 71
2, 5436, Note_on_c, 1, 74, 90
2, 5440, Note_on_c, 1, 70, 65
2, 5440, Note_on_c, 1, 46, 68
2, 5444, Control_c, 1, 64, 127
2, 5448, Note_off_c, 1, 74, 64
2, 5456, Note_off_c, 1, 70, 64
2, 5460, Note_off_c, 1, 46, 64
2, 5464, Note_off_c, 1, 82, 64
2, 5548, Note_on_c, 1, 75, 78
2, 5552, Note_on_c, 1, 72, 70
2, 5556, Note_on_c, 1, 84, 71
2, 5560, Note_off_c, 1, 75, 64
2, 5564, Note_off_c, 1, 72, 64
2, 5568, Note_off_c, 1, 84, 64
2, 5660, Note_on_c, 1, 53, 70
2, 5668, Note_on_c, 1, 77, 80
2, 5668, Note_on_c, 1, 58, 59
2, 5668, Note_on_c, 1, 86, 80
2, 5668, Note_on_c, 1, 62, 61
2, 5668, Note_on_c, 1, 74, 73
2, 5676, Note_off_c, 1, 58, 64
2, 5680, Note_off_c, 1, 53, 64
2, 5680, Note_off_c, 1, 62, 64
2, 5760, Control_c, 1, 64, 0
2, 5872, Note_on_c, 1, 41, 67
2, 5872, Control_c, 1, 64, 127
2, 5880, Note_off_c, 1, 77, 64
2, 5880, Note_off_c, 1, 86, 64
2, 5884, Note_off_c, 1, 74, 64
2, 5884, Note_off_c, 1, 41, 64
2, 5984, Note_on_c, 1, 75, 71
2, 5984, Note_on_c, 1, 84, 85
2, 5984, Note_on_c, 1, 72, 75
2, 5992, Note_off_c, 1, 75, 64
2, 5992, Note_off_c, 1, 84, 64
2, 6004, Note_off_c, 1, 72, 64
2, 6100, Note_on_c, 1, 82, 73
2, 6100, Note_on_c, 1, 74, 90
2, 6104, Note_on_c, 1, 70, 66
2, 6108, Note_off_c, 1, 74, 64
2, 6108, Note_on_c, 1, 58, 60
2, 6108, Note_on_c, 1, 62, 54
2, 6108, Note_on_c, 1, 53, 57
2, 6112, Note_off_c, 1, 70, 64
2, 6124, Note_off_c, 1, 82, 64
2, 6124, Note_off_c, 1, 58, 64
2, 6128, Note_off_c, 1, 62, 64
2, 6132, Note_off_c, 1, 53, 64
2, 6212, Note_on_c, 1, 75, 83
2, 6216, Note_on_c, 1, 84, 83
2, 6216, Note_on_c, 1, 72, 71
2, 6220, Note_off_c, 1, 75, 64
2, 6224, Note_off_c, 1, 72, 64
2, 6228, Note_off_c, 1, 84, 64
2, 6308, Control_c, 1, 64, 0
2, 6336, Note_on_c, 1, 86, 83
2, 6336, Note_on_c, 1, 77, 78
2, 6336, Note_on_c, 1, 74, 77
2, 6336, Note_on_c, 1, 46, 71
2, 6336, Control_c, 1, 64, 127
2, 6340, Note_off_c, 1, 77, 64
2, 6344, Note_off_c, 1, 86, 64
2, 6344, Note_off_c, 1, 74, 64
2, 6344, Note_off_c, 1, 46, 64
2, 6548, Note_on_c, 1, 77, 73
2, 6552, Note_on_c, 1, 74, 71
2, 6552, Note_on_c, 1, 62, 41
2, 6552, Note_on_c, 1, 58, 37
2, 6552, Note_on_c, 1, 65, 56
2, 6560, Note_off_c, 1, 62, 64
2, 6560, Note_on_c, 1, 53, 38
2, 6564, Note_off_c, 1, 58, 64
2, 6568, Note_off_c, 1, 77, 64
2, 6568, Note_off_c, 1, 74, 64
2, 6568, Note_off_c, 1, 65, 64
2, 6576, Note_off_c, 1, 53, 64
2, 6608, Control_c, 1, 64, 0
2, 6652, Note_on_c, 1, 77, 73
2, 6656, Note_on_c, 1, 74, 78
2, 6664, Note_on_c, 1, 65, 71
2, 6772, Control_c, 1, 64, 127
2, 6776, Note_off_c, 1, 74, 64
2, 6776, Note_off_c, 1, 65, 64
2, 6780, Note_on_c, 1, 41, 68
2, 6788, Note_off_c, 1, 77, 64
2, 6792, Note_off_c, 1, 41, 64
2, 6884, Note_on_c, 1, 77, 83
2, 6984, Note_on_c, 1, 58, 54
2, 6988, Note_on_c, 1, 82, 80
2, 6988, Note_on_c, 1, 53, 54
2, 6988, Note_on_c, 1, 62, 53
2, 7008, Note_off_c, 1, 58, 64
2, 7008, Note_off_c, 1, 62, 64
2, 7016, Note_off_c, 1, 53, 64
2, 7096, Note_on_c, 1, 84, 80
2, 7100, Note_off_c, 1, 82, 64
2, 7104, Note_off_c, 1, 77, 64
2, 7108, Note_off_c, 1, 84, 64
2, 7204, Note_on_c, 1, 86, 78
2, 7204, Control_c, 1, 64, 0
2, 7212, Note_on_c, 1, 46, 65
2, 7216, Note_on_c, 1, 74, 83
2, 7216, Note_on_c, 1, 58, 40
2, 7232, Control_c, 1, 64, 127
2, 7248, Note_off_c, 1, 46, 64
2, 7256, Note_off_c, 1, 58, 64
2, 7324, Note_on_c, 1, 77, 65
2, 7336, Note_off_c, 1, 74, 64
2, 7428, Note_on_c, 1, 82, 66
2, 7432, Note_off_c, 1, 77, 64
2, 7436, Note_off_c, 1, 86, 64
2, 7440, Note_on_c, 1, 58, 34
2, 7440, Note_on_c, 1, 62, 51
2, 7440, Note_on_c, 1, 53, 39
2, 7444, Note_off_c, 1, 82, 64
2, 7452, Note_off_c, 1, 58, 64
2, 7456, Note_off_c, 1, 62, 64
2, 7468, Note_off_c, 1, 53, 64
2, 7544, Note_on_c, 1, 86, 90
2, 7544, Note_on_c, 1, 74, 88
2, 7596, Control_c, 1, 64, 0
2, 7664, Note_on_c, 1, 47, 70
2, 7664, Note_on_c, 1, 59, 64
2, 7664, Control_c, 1, 64, 127
2, 7672, Note_off_c, 1, 47, 64
2, 7676, Note_off_c, 1, 59, 64
2, 7768, Note_off_c, 1, 74, 64
2, 7768, Note_on_c, 1, 79, 77
2, 7784, Note_off_c, 1, 86, 64
2, 7876, Note_off_c, 1, 79, 64
2, 7880, Note_on_c, 1, 53, 65
2, 7880, Note_on_c, 1, 86, 77
2, 7880, Note_on_c, 1, 56, 65
2, 7884, Note_on_c, 1, 62, 61
2, 7884, Note_on_c, 1, 74, 67
2, 7888, Note_off_c, 1, 74, 64
2, 7892, Note_off_c, 1, 86, 64
2, 7896, Note_off_c, 1, 56, 64
2, 7900, Note_off_c, 1, 62, 64
2, 7912, Note_off_c, 1, 53, 64
2, 7976, Control_c, 1, 64, 0
2, 7988, Note_on_c, 1, 87, 78
2, 7996, Note_on_c, 1, 75, 83
2, 8096, Note_on_c, 1, 48, 62
2, 8100, Control_c, 1, 64, 127
2, 8104, Note_on_c, 1, 60, 53
2, 8120, Note_off_c, 1, 48, 64
2, 8124, Note_off_c, 1, 60, 64
2, 8208, Note_on_c, 1, 81, 83
2, 8212, Note_off_c, 1, 75, 64
2, 8216, Note_off_c, 1, 87, 64
2, 8320, Note_off_c, 1, 81, 64
2, 8324, Note_on_c, 1, 57, 75
2, 8324, Note_on_c, 1, 89, 75
2, 8332, Note_on_c, 1, 53, 67
2, 8332, Note_on_c, 1, 63, 56
2, 8332, Note_on_c, 1, 77, 73
2, 8348, Note_off_c, 1, 57, 64
2, 8348, Note_off_c, 1, 63, 64
2, 8360, Note_off_c, 1, 53, 64
2, 8432, Note_off_c, 1, 77, 64
2, 8436, Note_on_c, 1, 81, 68
2, 8484, Note_off_c, 1, 89, 64
2, 8544, Note_on_c, 1, 84, 83
2, 8548, Note_on_c, 1, 41, 62
2, 8548, Note_on_c, 1, 53, 65
2, 8552, Control_c, 1, 64, 0
2, 8576, Control_c, 1, 64, 127
2, 8584, Note_off_c, 1, 81, 64
2, 8584, Note_off_c, 1, 41, 64
2, 8588, Note_off_c, 1, 53, 64
2, 8596, Note_off_c, 1, 84, 64
2, 8648, Note_on_c, 1, 87, 71
2, 8648, Note_on_c, 1, 75, 69
2, 8708, Note_off_c, 1, 87, 64
2, 8712, Note_off_c, 1, 75, 64
2, 8764, Note_on_c, 1, 53, 71
2, 8764, Note_on_c, 1, 57, 68
2, 8768, Note_on_c, 1, 63, 42
2, 8788, Note_off_c, 1, 63, 64
2, 8792, Note_off_c, 1, 57, 64
2, 8796, Note_off_c, 1, 53, 64
2, 8880, Note_on_c, 1, 77, 78
2, 8892, Note_off_c, 1, 77, 64
2, 8976, Control_c, 1, 64, 0
2, 8988, Note_on_c, 1, 41, 68
2, 8988, Note_on_c, 1, 53, 69
2, 8996, Note_on_c, 1, 84, 83
2, 8996, Note_on_c, 1, 81, 88
2, 8996, Note_on_c, 1, 72, 78
2, 8996, Control_c, 1, 64, 127
2, 9020, Note_off_c, 1, 41, 64
2, 9020, Note_off_c, 1, 81, 64
2, 9020, Note_off_c, 1, 72, 64
2, 9028, Note_off_c, 1, 84, 64
2, 9036, Note_off_c, 1, 53, 64
2, 9104, Note_on_c, 1, 86, 85
2, 9108, Note_on_c, 1, 82, 75
2, 9108, Note_on_c, 1, 74, 75
2, 9120, Note_off_c, 1, 82, 64
2, 9120, Note_off_c, 1, 74, 64
2, 9124, Note_off_c, 1, 86, 64
2, 9216, Note_on_c, 1, 53, 63
2, 9216, Note_on_c, 1, 57, 63
2, 9216, Note_on_c, 1, 63, 53
2, 9220, Note_on_c, 1, 84, 93
2, 9224, Note_on_c, 1, 87, 78
2, 9224, Note_on_c, 1, 75, 78
2, 9240, Note_off_c, 1, 57, 64
2, 9240, Note_off_c, 1, 63, 64
2, 9244, Note_off_c, 1, 53, 64
2, 9344, Control_c, 1, 64, 0
2, 9432, Note_on_c, 1, 45, 66
2, 9432, Note_on_c, 1, 57, 67
2, 9436, Control_c, 1, 64, 127
2, 9444, Note_off_c, 1, 45, 64
2, 9456, Note_off_c, 1, 84, 64
2, 9456, Note_off_c, 1, 57, 64
2, 9464, Note_off_c, 1, 75, 64
2, 9468, Note_off_c, 1, 87, 64
2, 9544, Note_on_c, 1, 86, 83
2, 9544, Note_on_c, 1, 82, 77
2, 9544, Note_on_c, 1, 74, 78
2, 9556, Note_off_c, 1, 86, 64
2, 9556, Note_off_c, 1, 82, 64
2, 9556, Note_off_c, 1, 74, 64
2, 9660, Note_on_c, 1, 57, 69
2, 9660, Note_on_c, 1, 53, 64
2, 9660, Note_on_c, 1, 81, 85
2, 9664, Note_on_c, 1, 72, 71
2, 9664, Note_on_c, 1, 63, 56
2, 9664, Note_on_c, 1, 84, 71
2, 9672, Note_off_c, 1, 81, 64
2, 9676, Note_off_c, 1, 72, 64
2, 9676, Note_off_c, 1, 63, 64
2, 9676, Note_off_c, 1, 84, 64
2, 9684, Note_off_c, 1, 57, 64
2, 9696, Note_off_c, 1, 53, 64
2, 9768, Note_on_c, 1, 82, 77
2, 9768, Note_on_c, 1, 86, 88
2, 9772, Note_on_c, 1, 74, 83
2, 9784, Note_off_c, 1, 82, 64
2, 9784, Note_off_c, 1, 74, 64
2, 9792, Note_off_c, 1, 86, 64
2, 9876, Control_c, 1, 64, 0
2, 9884, Note_on_c, 1, 41, 68
2, 9884, Note_on_c, 1, 53, 68
2, 9892, Note_on_c, 1, 87, 78
2, 9896, Note_on_c, 1, 84, 88
2, 9896, Note_on_c, 1, 75, 71
2, 9896, Control_c, 1, 64, 127
2, 9908, Note_off_c, 1, 41, 64
2, 9916, Note_off_c, 1, 53, 64
2, 9928, Note_off_c, 1, 87, 64
2, 9928, Note_off_c, 1, 84, 64
2, 9936, Note_off_c, 1, 75, 64
2, 10104, Note_on_c, 1, 77, 80
2, 10104, Note_on_c, 1, 75, 68
2, 10108, Note_on_c, 1, 57, 66
2, 10108, Note_on_c, 1, 65, 66
2, 10116, Note_on_c, 1, 53, 62
2, 10116, Note_on_c, 1, 63, 38
2, 10120, Note_off_c, 1, 65, 64
2, 10124, Note_off_c, 1, 77, 64
2, 10128, Note_off_c, 1, 75, 64
2, 10140, Note_off_c, 1, 63, 64
2, 10148, Note_off_c, 1, 57, 64
2, 10148, Note_off_c, 1, 53, 64
2, 10224, Note_on_c, 1, 75, 61
2, 10224, Note_on_c, 1, 77, 75
2, 10228, Note_on_c, 1, 65, 67
2, 10244, Control_c, 1, 64, 0
2, 10332, Note_off_c, 1, 65, 64
2, 10332, Note_on_c, 1, 45, 71
2, 10336, Control_c, 1, 64, 127
2, 10340, Note_on_c, 1, 57, 62
2, 10344, Note_off_c, 1, 75, 64
2, 10344, Note_off_c, 1, 77, 64
2, 10344, Note_off_c, 1, 45, 64
2, 10348, Note_off_c, 1, 57, 64
2, 10440, Note_on_c, 1, 77, 85
2, 10548, Note_off_c, 1, 77, 64
2, 10552, Note_on_c, 1, 57, 70
2, 10552, Note_on_c, 1, 63, 54
2, 10552, Note_on_c, 1, 81, 85
2, 10556, Note_on_c, 1, 53, 45
2, 10572, Note_off_c, 1, 57, 64
2, 10576, Note_off_c, 1, 63, 64
2, 10576, Note_off_c, 1, 53, 64
2, 10644, Note_off_c, 1, 81, 64
2, 10660, Note_on_c, 1, 84, 80
2, 10680, Note_off_c, 1, 84, 64
2, 10764, Note_on_c, 1, 48, 65
2, 10764, Note_on_c, 1, 87, 71
2, 10764, Control_c, 1, 64, 0
2, 10768, Note_on_c, 1, 75, 85
2, 10768, Note_on_c, 1, 60, 51
2, 10788, Control_c, 1, 64, 127
2, 10816, Note_off_c, 1, 48, 64
2, 10824, Note_off_c, 1, 60, 64
2, 10880, Note_on_c, 1, 81, 80
2, 10904, Note_off_c, 1, 87, 64
2, 10992, Note_on_c, 1, 84, 69
2, 10992, Note_on_c, 1, 63, 54
2, 10992, Note_on_c, 1, 57, 61
2, 10996, Note_off_c, 1, 81, 64
2, 10996, Note_on_c, 1, 65, 41
2, 11004, Note_off_c, 1, 75, 64
2, 11008, Note_off_c, 1, 84, 64
2, 11012, Control_c, 1, 64, 0
2, 11044, Note_off_c, 1, 65, 64
2, 11048, Note_off_c, 1, 63, 64
2, 11048, Note_off_c, 1, 57, 64
2, 11108, Note_on_c, 1, 88, 90
2, 11108, Note_on_c, 1, 76, 88
2, 11220, Note_on_c, 1, 49, 70
2, 11220, Note_on_c, 1, 61, 58
2, 11224, Control_c, 1, 64, 127
2, 11232, Note_off_c, 1, 49, 64
2, 11240, Note_off_c, 1, 61, 64
2, 11332, Note_on_c, 1, 82, 75
2, 11336, Note_off_c, 1, 76, 64
2, 11348, Note_off_c, 1, 88, 64
2, 11448, Note_on_c, 1, 67, 53
2, 11448, Note_on_c, 1, 61, 37
2, 11452, Note_on_c, 1, 88, 71
2, 11452, Note_on_c, 1, 76, 66
2, 11452, Note_on_c, 1, 58, 34
2, 11460, Note_off_c, 1, 67, 64
2, 11464, Note_off_c, 1, 82, 64
2, 11464, Note_off_c, 1, 61, 64
2, 11464, Note_off_c, 1, 88, 64
2, 11468, Note_off_c, 1, 76, 64
2, 11468, Note_off_c, 1, 58, 64
2, 11468, Control_c, 1, 64, 0
2, 11560, Note_on_c, 1, 89, 90
2, 11560, Note_on_c, 1, 77, 83
2, 11672, Note_on_c, 1, 50, 65
2, 11672, Note_on_c, 1, 62, 61
2, 11680, Control_c, 1, 64, 127
2, 11700, Note_off_c, 1, 50, 64
2, 11704, Note_off_c, 1, 62, 64
2, 11788, Note_on_c, 1, 86, 69
2, 11792, Note_off_c, 1, 77, 64
2, 11796, Note_off_c, 1, 89, 64
2, 11812, Note_off_c, 1, 86, 64
2, 11900, Note_on_c, 1, 58, 54
2, 11900, Note_on_c, 1, 62, 49
2, 11904, Note_on_c, 1, 91, 90
2, 11904, Note_on_c, 1, 65, 54
2, 11908, Note_on_c, 1, 79, 78
2, 11912, Note_off_c, 1, 62, 64
2, 11916, Note_off_c, 1, 58, 64
2, 11916, Note_off_c, 1, 65, 64
2, 12012, Note_on_c, 1, 86, 83
2, 12024, Note_off_c, 1, 91, 64
2, 12124, Note_on_c, 1, 46, 57
2, 12124, Control_c, 1, 64, 0
2, 12128, Note_on_c, 1, 58, 40
2, 12128, Note_on_c, 1, 89, 88
2, 12136, Note_off_c, 1, 79, 64
2, 12136, Note_off_c, 1, 86, 64
2, 12148, Control_c, 1, 64, 127
2, 12172, Note_off_c, 1, 46, 64
2, 12180, Note_off_c, 1, 58, 64
2, 12248, Note_on_c, 1, 86, 78
2, 12340, Note_on_c, 1, 53, 56
2, 12344, Note_on_c, 1, 62, 54
2, 12344, Note_on_c, 1, 58, 39
2, 12348, Note_on_c, 1, 82, 83
2, 12364, Note_off_c, 1, 62, 64
2, 12364, Note_off_c, 1, 58, 64
2, 12376, Note_off_c, 1, 53, 64
2, 12464, Note_on_c, 1, 77, 71
2, 12468, Note_off_c, 1, 86, 64
2, 12468, Note_off_c, 1, 89, 64
2, 12468, Note_off_c, 1, 82, 64
2, 12476, Note_off_c, 1, 77, 64
2, 12556, Control_c, 1, 64, 0
2, 12576, Note_on_c, 1, 46, 51
2, 12576, Note_on_c, 1, 82, 59
2, 12576, Note_on_c, 1, 70, 61
2, 12580, Note_on_c, 1, 74, 83
2, 12584, Control_c, 1, 64, 127
2, 12588, Note_off_c, 1, 70, 64
2, 12588, Note_off_c, 1, 74, 64
2, 12600, Note_off_c, 1, 46, 64
2, 12604, Note_off_c, 1, 82, 64
2, 12688, Note_on_c, 1, 75, 66
2, 12688, Note_on_c, 1, 84, 68
2, 12692, Note_on_c, 1, 72, 61
2, 12696, Note_off_c, 1, 75, 64
2, 12700, Note_off_c, 1, 84, 64
2, 12704, Note_off_c, 1, 72, 64
2, 12800, Note_on_c, 1, 86, 68
2, 12800, Note_on_c, 1, 58, 53
2, 12800, Note_on_c, 1, 77, 68
2, 12808, Note_on_c, 1, 53, 61
2, 12808, Note_on_c, 1, 74, 65
2, 12812, Note_off_c, 1, 74, 64
2, 12816, Note_off_c, 1, 58, 64
2, 12820, Note_off_c, 1, 86, 64
2, 12820, Note_off_c, 1, 77, 64
2, 12832, Note_off_c, 1, 53, 64
2, 12912, Note_on_c, 1, 86, 85
2, 12912, Note_on_c, 1, 77, 78
2, 12912, Note_on_c, 1, 74, 65
2, 12920, Note_off_c, 1, 77, 64
2, 12920, Note_off_c, 1, 74, 64
2, 12924, Note_off_c, 1, 86, 64
2, 13004, Control_c, 1, 64, 0
2, 13020, Note_on_c, 1, 86, 90
2, 13024, Note_on_c, 1, 77, 90
2, 13024, Note_on_c, 1, 41, 70
2, 13028, Note_on_c, 1, 74, 77
2, 13032, Note_off_c, 1, 77, 64
2, 13032, Note_off_c, 1, 41, 64
2, 13032, Note_off_c, 1, 74, 64
2, 13032, Control_c, 1, 64, 127
2, 13036, Note_off_c, 1, 86, 64
2, 13132, Note_on_c, 1, 75, 78
2, 13132, Note_on_c, 1, 84, 77
2, 13132, Note_on_c, 1, 72, 67
2, 13148, Note_off_c, 1, 75, 64
2, 13148, Note_off_c, 1, 84, 64
2, 13152, Note_off_c, 1, 72, 64
2, 13240, Note_on_c, 1, 82, 73
2, 13244, Note_on_c, 1, 74, 83
2, 13248, Note_off_c, 1, 74, 64
2, 13248, Note_on_c, 1, 70, 64
2, 13248, Note_on_c, 1, 53, 66
2, 13248, Note_on_c, 1, 58, 54
2, 13248, Note_on_c, 1, 62, 64
2, 13252, Note_off_c, 1, 70, 64
2, 13264, Note_off_c, 1, 82, 64
2, 13264, Note_off_c, 1, 62, 64
2, 13268, Note_off_c, 1, 58, 64
2, 13276, Note_off_c, 1, 53, 64
2, 13344, Note_on_c, 1, 75, 73
2, 13348, Note_on_c, 1, 84, 78
2, 13356, Note_on_c, 1, 72, 67
2, 13360, Note_off_c, 1, 75, 64
2, 13360, Note_off_c, 1, 72, 64
2, 13368, Note_off_c, 1, 84, 64
2, 13452, Control_c, 1, 64, 0
2, 13460, Note_on_c, 1, 86, 93
2, 13460, Note_on_c, 1, 77, 78
2, 13460, Note_on_c, 1, 46, 78
2, 13460, Note_on_c, 1, 74, 78
2, 13476, Control_c, 1, 64, 127
2, 13488, Note_off_c, 1, 46, 64
2, 13508, Note_off_c, 1, 86, 64
2, 13508, Note_off_c, 1, 77, 64
2, 13508, Note_off_c, 1, 74, 64
2, 13688, Note_on_c, 1, 58, 61
2, 13688, Note_on_c, 1, 77, 77
2, 13692, Note_on_c, 1, 74, 71
2, 13692, Note_on_c, 1, 53, 70
2, 13692, Note_on_c, 1, 65, 62
2, 13696, Note_on_c, 1, 62, 37
2, 13700, Note_off_c, 1, 58, 64
2, 13704, Note_off_c, 1, 74, 64
2, 13704, Note_off_c, 1, 65, 64
2, 13704, Note_off_c, 1, 62, 64
2, 13708, Note_off_c, 1, 77, 64
2, 13720, Note_off_c, 1, 53, 64
2, 13796, Note_on_c, 1, 74, 78
2, 13796, Note_on_c, 1, 77, 78
2, 13800, Note_on_c, 1, 65, 66
2, 13876, Control_c, 1, 64, 0
2, 13912, Note_off_c, 1, 65, 64
2, 13912, Note_on_c, 1, 41, 83
2, 13912, Control_c, 1, 64, 127
2, 13916, Note_off_c, 1, 74, 64
2, 13928, Note_off_c, 1, 77, 64
2, 13928, Note_off_c, 1, 41, 64
2, 14024, Note_on_c, 1, 70, 77
2, 14132, Note_off_c, 1, 70, 64
2, 14132, Note_on_c, 1, 53, 65
2, 14132, Note_on_c, 1, 58, 62
2, 14132, Note_on_c, 1, 74, 93
2, 14132, Note_on_c, 1, 62, 59
2, 14204, Note_off_c, 1, 62, 64
2, 14208, Note_off_c, 1, 58, 64
2, 14216, Note_off_c, 1, 53, 64
2, 14244, Note_on_c, 1, 77, 96
2, 14248, Note_off_c, 1, 74, 64
2, 14316, Note_off_c, 1, 77, 64
2, 14356, Note_on_c, 1, 46, 80
2, 14360, Note_on_c, 1, 80, 78
2, 14360, Control_c, 1, 64, 0
2, 14368, Note_on_c, 1, 68, 80
2, 14400, Control_c, 1, 64, 127
2, 14416, Note_off_c, 1, 46, 64
2, 14468, Note_on_c, 1, 74, 62
2, 14564, Note_on_c, 1, 77, 66
2, 14568, Control_c, 1, 64, 0
2, 14572, Note_on_c, 1, 58, 53
2, 14576, Note_on_c, 1, 62, 55
2, 14588, Note_off_c, 1, 74, 64
2, 14596, Control_c, 1, 64, 127
2, 14600, Note_off_c, 1, 80, 64
2, 14612, Note_off_c, 1, 68, 64
2, 14624, Note_off_c, 1, 77, 64
2, 14692, Note_on_c, 1, 80, 68
2, 14692, Note_on_c, 1, 68, 60
2, 14792, Note_on_c, 1, 53, 54
2, 14796, Control_c, 1, 64, 0
2, 14812, Note_off_c, 1, 62, 64
2, 14816, Note_off_c, 1, 58, 64
2, 14904, Note_on_c, 1, 74, 73
2, 14916, Control_c, 1, 64, 127
2, 14928, Note_off_c, 1, 80, 64
2, 14928, Note_off_c, 1, 68, 64
2, 14940, Note_off_c, 1, 74, 64
2, 15020, Note_on_c, 1, 58, 38
2, 15020, Note_on_c, 1, 62, 44
2, 15028, Note_on_c, 1, 80, 71
2, 15028, Control_c, 1, 64, 0
2, 15036, Note_on_c, 1, 68, 70
2, 15068, Control_c, 1, 64, 127
2, 15088, Note_off_c, 1, 80, 64
2, 15088, Note_off_c, 1, 68, 64
2, 15120, Note_off_c, 1, 53, 64
2, 15140, Note_on_c, 1, 79, 71
2, 15140, Note_on_c, 1, 67, 64
2, 15232, Control_c, 1, 64, 0
2, 15236, Note_off_c, 1, 62, 64
2, 15240, Note_on_c, 1, 51, 45
2, 15248, Note_off_c, 1, 58, 64
2, 15344, Note_on_c, 1, 75, 54
2, 15356, Control_c, 1, 64, 127
2, 15372, Note_off_c, 1, 79, 64
2, 15376, Note_off_c, 1, 67, 64
2, 15376, Note_off_c, 1, 75, 64
2, 15460, Note_on_c, 1, 58, 39
2, 15460, Note_on_c, 1, 63, 44
2, 15464, Note_on_c, 1, 78, 77
2, 15472, Note_on_c, 1, 66, 66
2, 15472, Control_c, 1, 64, 0
2, 15572, Note_on_c, 1, 70, 49
2, 15588, Note_off_c, 1, 66, 64
2, 15588, Control_c, 1, 64, 127
2, 15636, Note_off_c, 1, 78, 64
2, 15644, Note_off_c, 1, 51, 64
2, 15684, Note_off_c, 1, 63, 64
2, 15688, Note_off_c, 1, 58, 64
2, 15688, Note_on_c, 1, 51, 51
2, 15688, Note_on_c, 1, 75, 66
2, 15692, Control_c, 1, 64, 0
2, 15716, Control_c, 1, 64, 127
2, 15752, Note_off_c, 1, 70, 64
2, 15768, Note_off_c, 1, 75, 64
2, 15796, Note_on_c, 1, 79, 69
2, 15796, Note_on_c, 1, 67, 48
2, 15796, Control_c, 1, 64, 0
2, 15828, Control_c, 1, 64, 127
2, 15880, Note_off_c, 1, 67, 64
2, 15908, Note_off_c, 1, 79, 64
2, 15912, Note_on_c, 1, 58, 39
2, 15916, Note_on_c, 1, 63, 43
2, 15916, Control_c, 1, 64, 0
2, 16020, Note_off_c, 1, 51, 64
2, 16024, Note_on_c, 1, 79, 96
2, 16032, Control_c, 1, 64, 127
2, 16128, Note_on_c, 1, 52, 62
2, 16132, Note_off_c, 1, 63, 64
2, 16132, Control_c, 1, 64, 0
2, 16140, Note_off_c, 1, 58, 64
2, 16244, Note_on_c, 1, 81, 93
2, 16248, Note_off_c, 1, 79, 64
2, 16360, Note_on_c, 1, 58, 51
2, 16360, Note_on_c, 1, 61, 46
2, 16360, Note_on_c, 1, 55, 37
2, 16360, Note_on_c, 1, 82, 93
2, 16372, Note_off_c, 1, 81, 64
2, 16472, Note_on_c, 1, 81, 93
2, 16476, Note_off_c, 1, 82, 64
2, 16480, Control_c, 1, 64, 127
2, 16504, Note_off_c, 1, 52, 64
2, 16576, Note_on_c, 1, 52, 59
2, 16584, Note_off_c, 1, 58, 64
2, 16584, Note_off_c, 1, 61, 64
2, 16584, Note_off_c, 1, 55, 64
2, 16584, Note_on_c, 1, 82, 80
2, 16584, Control_c, 1, 64, 0
2, 16604, Note_off_c, 1, 81, 64
2, 16692, Note_on_c, 1, 81, 80
2, 16704, Note_off_c, 1, 82, 64
2, 16704, Control_c, 1, 64, 127
2, 16792, Note_on_c, 1, 58, 52
2, 16792, Note_on_c, 1, 55, 41
2, 16796, Note_on_c, 1, 61, 46
2, 16796, Control_c, 1, 64, 0
2, 16804, Note_on_c, 1, 82, 75
2, 16812, Note_off_c, 1, 81, 64
2, 16900, Note_off_c, 1, 52, 64
2, 16904, Note_off_c, 1, 82, 64
2, 16908, Note_on_c, 1, 79, 80
2, 16932, Control_c, 1, 64, 127
2, 17008, Note_off_c, 1, 58, 64
2, 17008, Note_off_c, 1, 61, 64
2, 17008, Note_on_c, 1, 53, 39
2, 17016, Note_off_c, 1, 55, 64
2, 17020, Note_off_c, 1, 79, 64
2, 17024, Note_on_c, 1, 77, 69
2, 17028, Control_c, 1, 64, 0
2, 17080, Control_c, 1, 64, 127
2, 17112, Note_off_c, 1, 77, 64
2, 17112, Control_c, 1, 64, 0
2, 17236, Note_on_c, 1, 58, 56
2, 17240, Note_on_c, 1, 62, 54
2, 17252, Note_on_c, 1, 86, 83
2, 17260, Note_on_c, 1, 77, 80
2, 17260, Control_c, 1, 64, 127
2, 17272, Note_off_c, 1, 58, 64
2, 17272, Note_off_c, 1, 62, 64
2, 17292, Note_off_c, 1, 53, 64
2, 17440, Control_c, 1, 64, 0
2, 17464, Note_on_c, 1, 43, 80
2, 17472, Control_c, 1, 64, 127
2, 17480, Note_off_c, 1, 77, 64
2, 17480, Note_off_c, 1, 43, 64
2, 17488, Note_off_c, 1, 86, 64
2, 17580, Note_on_c, 1, 79, 85
2, 17684, Note_off_c, 1, 79, 64
2, 17688, Note_on_c, 1, 55, 64
2, 17692, Note_on_c, 1, 59, 64
2, 17696, Note_on_c, 1, 65, 50
2, 17696, Note_on_c, 1, 83, 85
2, 17716, Note_off_c, 1, 59, 64
2, 17720, Note_off_c, 1, 65, 64
2, 17724, Note_off_c, 1, 55, 64
2, 17796, Note_on_c, 1, 86, 77
2, 17804, Note_off_c, 1, 83, 64
2, 17832, Note_off_c, 1, 86, 64
2, 17908, Note_on_c, 1, 48, 67
2, 17912, Note_on_c, 1, 84, 77
2, 17912, Control_c, 1, 64, 0
2, 17916, Note_on_c, 1, 82, 70
2, 17916, Note_on_c, 1, 76, 73
2, 17936, Control_c, 1, 64, 127
2, 17968, Note_off_c, 1, 84, 64
2, 17968, Note_off_c, 1, 82, 64
2, 17968, Note_off_c, 1, 76, 64
2, 17972, Note_off_c, 1, 48, 64
2, 18024, Note_on_c, 1, 82, 70
2, 18024, Note_on_c, 1, 76, 73
2, 18024, Note_on_c, 1, 84, 71
2, 18136, Note_off_c, 1, 82, 64
2, 18140, Note_off_c, 1, 84, 64
2, 18144, Note_off_c, 1, 76, 64
2, 18144, Note_on_c, 1, 58, 53
2, 18144, Note_on_c, 1, 60, 53
2, 18148, Note_on_c, 1, 64, 53
2, 18172, Note_off_c, 1, 58, 64
2, 18176, Note_off_c, 1, 60, 64
2, 18176, Note_off_c, 1, 64, 64
2, 18240, Note_on_c, 1, 86, 77
2, 18240, Note_on_c, 1, 76, 71
2, 18240, Note_on_c, 1, 82, 60
2, 18248, Note_off_c, 1, 86, 64
2, 18256, Note_off_c, 1, 76, 64
2, 18256, Note_off_c, 1, 82, 64
2, 18348, Control_c, 1, 64, 0
2, 18356, Note_on_c, 1, 84, 78
2, 18356, Note_on_c, 1, 41, 68
2, 18356, Note_on_c, 1, 75, 69
2, 18372, Control_c, 1, 64, 127
2, 18380, Note_off_c, 1, 41, 64
2, 18476, Note_off_c, 1, 84, 64
2, 18476, Note_on_c, 1, 77, 73
2, 18484, Note_off_c, 1, 75, 64
2, 18492, Note_off_c, 1, 77, 64
2, 18580, Note_on_c, 1, 84, 71
2, 18580, Note_on_c, 1, 57, 51
2, 18580, Note_on_c, 1, 75, 62
2, 18584, Note_on_c, 1, 65, 51
2, 18600, Note_off_c, 1, 84, 64
2, 18600, Note_off_c, 1, 75, 64
2, 18632, Note_off_c, 1, 65, 64
2, 18644, Note_off_c, 1, 57, 64
2, 18684, Note_on_c, 1, 77, 73
2, 18688, Note_on_c, 1, 75, 55
2, 18696, Note_off_c, 1, 77, 64
2, 18700, Note_off_c, 1, 75, 64
2, 18808, Note_on_c, 1, 82, 65
2, 18808, Note_on_c, 1, 74, 65
2, 18812, Note_on_c, 1, 58, 49
2, 18816, Note_on_c, 1, 65, 40
2, 18816, Control_c, 1, 64, 0
2, 18840, Control_c, 1, 64, 127
2, 18856, Note_off_c, 1, 65, 64
2, 18864, Note_off_c, 1, 58, 64
2, 18916, Control_c, 1, 64, 0
2, 19024, Note_on_c, 1, 41, 74
2, 19024, Note_on_c, 1, 53, 79
2, 19120, Note_off_c, 1, 41, 64
2, 19124, Note_off_c, 1, 53, 64
2, 19256, Note_off_c, 1, 82, 64
2, 19256, Note_off_c, 1, 74, 64
2, 19260, Note_on_c, 1, 55, 78
2, 19264, Note_on_c, 1, 43, 85
2, 19368, Note_off_c, 1, 55, 0
2, 19376, Note_off_c, 1, 43, 0
2, 19492, Note_on_c, 1, 57, 74
2, 19500, Note_on_c, 1, 45, 88
2, 19564, Control_c, 1, 64, 127
2, 19588, Note_off_c, 1, 57, 64
2, 19596, Note_off_c, 1, 45, 64
2, 19608, Control_c, 1, 64, 0
2, 19724, Note_on_c, 1, 82, 78
2, 19728, Note_on_c, 1, 74, 104
2, 19728, Note_on_c, 1, 70, 71
2, 19728, Note_on_c, 1, 46, 69
2, 19732, Note_on_c, 1, 58, 61
2, 19732, Control_c, 1, 64, 127
2, 19740, Note_off_c, 1, 74, 64
2, 19740, Note_off_c, 1, 70, 64
2, 19744, Note_off_c, 1, 82, 64
2, 19748, Note_off_c, 1, 46, 64
2, 19748, Note_off_c, 1, 58, 64
2, 19840, Note_on_c, 1, 75, 83
2, 19844, Note_on_c, 1, 84, 90
2, 19844, Note_on_c, 1, 72, 67
2, 19848, Note_off_c, 1, 75, 64
2, 19852, Note_off_c, 1, 72, 64
2, 19860, Note_off_c, 1, 84, 64
2, 19940, Note_on_c, 1, 53, 69
2, 19944, Note_on_c, 1, 58, 38
2, 19952, Note_on_c, 1, 62, 54
2, 19952, Note_on_c, 1, 77, 93
2, 19952, Note_on_c, 1, 86, 90
2, 19956, Note_on_c, 1, 74, 78
2, 19968, Note_off_c, 1, 58, 64
2, 19968, Note_off_c, 1, 62, 64
2, 19972, Note_off_c, 1, 53, 64
2, 20120, Control_c, 1, 64, 0
2, 20168, Note_on_c, 1, 41, 78
2, 20168, Control_c, 1, 64, 127
2, 20176, Note_off_c, 1, 41, 64
2, 20196, Note_off_c, 1, 74, 64
2, 20196, Note_off_c, 1, 77, 64
2, 20200, Note_off_c, 1, 86, 64
2, 20284, Note_on_c, 1, 75, 77
2, 20284, Note_on_c, 1, 84, 90
2, 20284, Note_on_c, 1, 72, 75
2, 20296, Note_off_c, 1, 75, 64
2, 20300, Note_off_c, 1, 84, 64
2, 20300, Note_off_c, 1, 72, 64
2, 20400, Note_on_c, 1, 82, 80
2, 20400, Note_on_c, 1, 74, 90
2, 20400, Note_on_c, 1, 70, 68
2, 20408, Note_on_c, 1, 58, 65
2, 20408, Note_on_c, 1, 53, 70
2, 20408, Note_on_c, 1, 62, 66
2, 20416, Note_off_c, 1, 74, 64
2, 20416, Note_off_c, 1, 70, 64
2, 20420, Note_off_c, 1, 82, 64
2, 20460, Note_off_c, 1, 62, 64
2, 20472, Note_off_c, 1, 58, 64
2, 20480, Note_off_c, 1, 53, 64
2, 20512, Note_on_c, 1, 75, 80
2, 20512, Note_on_c, 1, 84, 83
2, 20516, Note_on_c, 1, 72, 71
2, 20528, Note_off_c, 1, 75, 64
2, 20528, Note_off_c, 1, 72, 64
2, 20532, Note_off_c, 1, 84, 64
2, 20612, Control_c, 1, 64, 0
2, 20632, Note_on_c, 1, 86, 88
2, 20632, Note_on_c, 1, 77, 80
2, 20632, Note_on_c, 1, 74, 71
2, 20632, Note_on_c, 1, 46, 66
2, 20648, Control_c, 1, 64, 127
2, 20660, Note_off_c, 1, 46, 64
2, 20680, Note_off_c, 1, 86, 64
2, 20684, Note_off_c, 1, 77, 64
2, 20684, Note_off_c, 1, 74, 64
2, 20748, Control_c, 1, 64, 0
2, 20860, Note_on_c, 1, 58, 55
2, 20864, Note_on_c, 1, 62, 59
2, 20864, Note_on_c, 1, 53, 63
2, 20864, Note_on_c, 1, 77, 80
2, 20864, Note_on_c, 1, 74, 78
2, 20864, Note_on_c, 1, 65, 70
2, 20868, Note_off_c, 1, 58, 64
2, 20872, Note_off_c, 1, 62, 64
2, 20872, Note_off_c, 1, 53, 64
2, 20872, Note_off_c, 1, 77, 64
2, 20872, Note_off_c, 1, 74, 64
2, 20872, Note_off_c, 1, 65, 64
2, 20972, Note_on_c, 1, 77, 93
2, 20972, Note_on_c, 1, 74, 78
2, 20972, Note_on_c, 1, 65, 71
2, 21072, Note_off_c, 1, 65, 64
2, 21084, Note_off_c, 1, 74, 64
2, 21084, Note_on_c, 1, 41, 75
2, 21088, Note_off_c, 1, 77, 64
2, 21088, Control_c, 1, 64, 127
2, 21092, Note_off_c, 1, 41, 64
2, 21184, Note_on_c, 1, 77, 77
2, 21204, Control_c, 1, 64, 0
2, 21296, Note_on_c, 1, 82, 80
2, 21296, Note_on_c, 1, 58, 67
2, 21296, Note_on_c, 1, 62, 73
2, 21300, Note_off_c, 1, 77, 64
2, 21300, Note_on_c, 1, 53, 83
2, 21304, Note_off_c, 1, 58, 64
2, 21304, Control_c, 1, 64, 127
2, 21316, Note_off_c, 1, 62, 64
2, 21316, Note_off_c, 1, 53, 64
2, 21396, Control_c, 1, 64, 0
2, 21408, Note_on_c, 1, 84, 83
2, 21416, Control_c, 1, 64, 127
2, 21436, Note_off_c, 1, 82, 64
2, 21456, Note_off_c, 1, 84, 64
2, 21512, Note_on_c, 1, 46, 68
2, 21512, Note_on_c, 1, 58, 58
2, 21516, Control_c, 1, 64, 0
2, 21536, Note_on_c, 1, 86, 88
2, 21536, Note_on_c, 1, 77, 77
2, 21568, Control_c, 1, 64, 127
2, 21572, Note_off_c, 1, 46, 64
2, 21588, Note_off_c, 1, 58, 64
2, 21604, Note_off_c, 1, 77, 64
2, 21624, Note_on_c, 1, 77, 69
2, 21728, Control_c, 1, 64, 0
2, 21740, Note_on_c, 1, 82, 78
2, 21740, Note_on_c, 1, 53, 65
2, 21740, Note_on_c, 1, 62, 60
2, 21744, Note_off_c, 1, 86, 64
2, 21744, Note_on_c, 1, 58, 54
2, 21748, Note_off_c, 1, 77, 64
2, 21748, Control_c, 1, 64, 127
2, 21752, Note_off_c, 1, 82, 64
2, 21776, Note_off_c, 1, 62, 64
2, 21780, Note_off_c, 1, 58, 64
2, 21788, Note_off_c, 1, 53, 64
2, 21848, Note_on_c, 1, 86, 85
2, 21848, Note_on_c, 1, 74, 88
2, 21852, Control_c, 1, 64, 0
2, 21964, Note_on_c, 1, 47, 78
2, 21964, Note_on_c, 1, 59, 71
2, 21968, Control_c, 1, 64, 127
2, 21996, Note_off_c, 1, 47, 64
2, 22016, Note_off_c, 1, 59, 64
2, 22028, Note_off_c, 1, 74, 64
2, 22048, Note_off_c, 1, 86, 64
2, 22080, Note_on_c, 1, 79, 88
2, 22104, Note_off_c, 1, 79, 64
2, 22184, Note_on_c, 1, 53, 61
2, 22184, Note_on_c, 1, 56, 60
2, 22192, Note_on_c, 1, 62, 58
2, 22196, Note_on_c, 1, 86, 88
2, 22196, Note_on_c, 1, 74, 71
2, 22200, Note_off_c, 1, 56, 64
2, 22200, Note_off_c, 1, 62, 64
2, 22200, Note_off_c, 1, 74, 64
2, 22204, Note_off_c, 1, 53, 64
2, 22204, Note_off_c, 1, 86, 64
2, 22216, Control_c, 1, 64, 0
2, 22300, Note_on_c, 1, 87, 80
2, 22304, Note_on_c, 1, 75, 83
2, 22412, Note_on_c, 1, 48, 65
2, 22416, Note_on_c, 1, 60, 51
2, 22416, Control_c, 1, 64, 127
2, 22424, Note_off_c, 1, 48, 64
2, 22436, Note_off_c, 1, 60, 64
2, 22516, Note_off_c, 1, 75, 64
2, 22524, Note_on_c, 1, 81, 80
2, 22528, Note_off_c, 1, 87, 64
2, 22532, Note_off_c, 1, 81, 64
2, 22624, Note_on_c, 1, 57, 68
2, 22628, Note_on_c, 1, 53, 65
2, 22628, Note_on_c, 1, 63, 53
2, 22628, Note_on_c, 1, 89, 85
2, 22632, Note_on_c, 1, 77, 80
2, 22636, Note_off_c, 1, 63, 64
2, 22640, Note_off_c, 1, 57, 64
2, 22648, Note_off_c, 1, 53, 64
2, 22744, Note_off_c, 1, 89, 64
2, 22744, Note_off_c, 1, 77, 64
2, 22744, Note_on_c, 1, 81, 78
2, 22756, Note_off_c, 1, 81, 64
2, 22844, Control_c, 1, 64, 0
2, 22848, Note_on_c, 1, 84, 78
2, 22848, Note_on_c, 1, 41, 63
2, 22848, Note_on_c, 1, 53, 63
2, 22864, Note_off_c, 1, 84, 64
2, 22868, Control_c, 1, 64, 127
2, 22872, Note_off_c, 1, 41, 64
2, 22880, Note_off_c, 1, 53, 64
2, 22968, Note_on_c, 1, 75, 71
2, 22968, Note_on_c, 1, 87, 77
2, 23052, Note_off_c, 1, 87, 64
2, 23068, Note_off_c, 1, 75, 64
2, 23076, Note_on_c, 1, 53, 62
2, 23080, Note_on_c, 1, 57, 66
2, 23080, Note_on_c, 1, 63, 53
2, 23092, Note_off_c, 1, 63, 64
2, 23104, Note_off_c, 1, 53, 64
2, 23108, Note_off_c, 1, 57, 64
2, 23184, Note_on_c, 1, 77, 85
2, 23204, Note_off_c, 1, 77, 64
2, 23288, Control_c, 1, 64, 0
2, 23296, Note_on_c, 1, 41, 70
2, 23300, Note_on_c, 1, 81, 90
2, 23300, Note_on_c, 1, 72, 83
2, 23300, Note_on_c, 1, 53, 68
2, 23300, Note_on_c, 1, 84, 85
2, 23316, Control_c, 1, 64, 127
2, 23332, Note_off_c, 1, 81, 64
2, 23336, Note_off_c, 1, 72, 64
2, 23336, Note_off_c, 1, 84, 64
2, 23344, Note_off_c, 1, 41, 64
2, 23352, Note_off_c, 1, 53, 64
2, 23412, Note_on_c, 1, 82, 80
2, 23412, Note_on_c, 1, 86, 83
2, 23412, Note_on_c, 1, 74, 77
2, 23424, Note_off_c, 1, 82, 64
2, 23424, Note_off_c, 1, 86, 64
2, 23424, Note_off_c, 1, 74, 64
2, 23524, Note_on_c, 1, 87, 70
2, 23528, Note_on_c, 1, 57, 71
2, 23528, Note_on_c, 1, 53, 80
2, 23528, Note_on_c, 1, 75, 77
2, 23532, Note_on_c, 1, 84, 90
2, 23532, Note_on_c, 1, 63, 54
2, 23540, Note_off_c, 1, 57, 64
2, 23540, Note_off_c, 1, 53, 64
2, 23544, Note_off_c, 1, 63, 64
2, 23716, Control_c, 1, 64, 0
2, 23744, Note_on_c, 1, 45, 83
2, 23748, Note_on_c, 1, 57, 80
2, 23764, Control_c, 1, 64, 127
2, 23776, Note_off_c, 1, 84, 64
2, 23788, Note_off_c, 1, 87, 64
2, 23788, Note_off_c, 1, 75, 64
2, 23796, Note_off_c, 1, 45, 64
2, 23812, Note_off_c, 1, 57, 64
2, 23864, Note_on_c, 1, 82, 80
2, 23868, Note_on_c, 1, 86, 88
2, 23868, Note_on_c, 1, 74, 78
2, 23876, Note_off_c, 1, 82, 64
2, 23880, Note_off_c, 1, 86, 64
2, 23880, Note_off_c, 1, 74, 64
2, 23980, Note_on_c, 1, 81, 80
2, 23980, Note_on_c, 1, 72, 73
2, 23980, Note_on_c, 1, 84, 80
2, 23984, Note_on_c, 1, 53, 66
2, 23984, Note_on_c, 1, 57, 77
2, 23984, Note_on_c, 1, 63, 54
2, 23992, Note_off_c, 1, 72, 64
2, 23996, Note_off_c, 1, 81, 64
2, 24000, Note_off_c, 1, 84, 64
2, 24000, Note_off_c, 1, 53, 64
2, 24000, Note_off_c, 1, 57, 64
2, 24000, Note_off_c, 1, 63, 64
2, 24084, Note_on_c, 1, 82, 78
2, 24084, Note_on_c, 1, 86, 85
2, 24084, Note_on_c, 1, 74, 80
2, 24100, Note_off_c, 1, 82, 64
2, 24100, Note_off_c, 1, 74, 64
2, 24104, Note_off_c, 1, 86, 64
2, 24188, Control_c, 1, 64, 0
2, 24196, Note_on_c, 1, 87, 73
2, 24196, Note_on_c, 1, 84, 90
2, 24200, Note_on_c, 1, 75, 77
2, 24200, Note_on_c, 1, 41, 75
2, 24200, Note_on_c, 1, 53, 69
2, 24204, Control_c, 1, 64, 127
2, 24220, Note_off_c, 1, 41, 64
2, 24224, Note_off_c, 1, 53, 64
2, 24236, Note_off_c, 1, 87, 64
2, 24236, Note_off_c, 1, 84, 64
2, 24236, Note_off_c, 1, 75, 64
2, 24416, Note_on_c, 1, 57, 62
2, 24416, Note_on_c, 1, 53, 61
2, 24416, Note_on_c, 1, 63, 53
2, 24416, Note_on_c, 1, 77, 78
2, 24416, Note_on_c, 1, 75, 67
2, 24416, Note_on_c, 1, 65, 65
2, 24436, Note_off_c, 1, 63, 64
2, 24440, Note_off_c, 1, 57, 64
2, 24440, Note_off_c, 1, 53, 64
2, 24440, Note_off_c, 1, 77, 64
2, 24440, Note_off_c, 1, 75, 64
2, 24440, Note_off_c, 1, 65, 64
2, 24528, Note_on_c, 1, 77, 75
2, 24532, Note_on_c, 1, 75, 64
2, 24532, Note_on_c, 1, 65, 60
2, 24592, Control_c, 1, 64, 0
2, 24636, Note_off_c, 1, 65, 64
2, 24636, Control_c, 1, 64, 127
2, 24648, Note_off_c, 1, 75, 64
2, 24652, Note_off_c, 1, 77, 64
2, 24652, Note_on_c, 1, 45, 73
2, 24652, Note_on_c, 1, 57, 66
2, 24664, Note_off_c, 1, 45, 64
2, 24664, Note_off_c, 1, 57, 64
2, 24764, Note_on_c, 1, 77, 77
2, 24764, Note_on_c, 1, 76, 56
2, 24768, Note_off_c, 1, 76, 64
2, 24868, Note_on_c, 1, 57, 69
2, 24872, Note_on_c, 1, 53, 61
2, 24872, Note_on_c, 1, 63, 55
2, 24872, Note_on_c, 1, 81, 85
2, 24888, Note_off_c, 1, 77, 64
2, 24888, Note_off_c, 1, 57, 64
2, 24888, Note_off_c, 1, 53, 64
2, 24888, Note_off_c, 1, 63, 64
2, 24976, Note_off_c, 1, 81, 64
2, 24976, Note_on_c, 1, 84, 80
2, 24992, Note_off_c, 1, 84, 64
2, 25084, Note_on_c, 1, 48, 65
2, 25084, Note_on_c, 1, 60, 64
2, 25084, Note_on_c, 1, 87, 83
2, 25084, Note_on_c, 1, 75, 88
2, 25084, Control_c, 1, 64, 0
2, 25112, Control_c, 1, 64, 127
2, 25144, Note_off_c, 1, 48, 64
2, 25152, Note_off_c, 1, 60, 64
2, 25200, Note_on_c, 1, 81, 71
2, 25224, Note_off_c, 1, 87, 64
2, 25252, Note_off_c, 1, 75, 64
2, 25320, Note_on_c, 1, 84, 66
2, 25324, Note_on_c, 1, 57, 58
2, 25324, Note_on_c, 1, 63, 45
2, 25328, Note_on_c, 1, 65, 38
2, 25332, Note_off_c, 1, 81, 64
2, 25344, Control_c, 1, 64, 0
2, 25348, Note_off_c, 1, 84, 64
2, 25424, Note_off_c, 1, 65, 64
2, 25432, Note_off_c, 1, 63, 64
2, 25440, Note_off_c, 1, 57, 64
2, 25440, Note_on_c, 1, 88, 104
2, 25440, Note_on_c, 1, 76, 80
2, 25444, Control_c, 1, 64, 127
2, 25512, Control_c, 1, 64, 0
2, 25544, Note_on_c, 1, 49, 78
2, 25552, Note_on_c, 1, 61, 64
2, 25552, Control_c, 1, 64, 127
2, 25560, Note_off_c, 1, 49, 64
2, 25564, Note_off_c, 1, 61, 64
2, 25648, Note_on_c, 1, 82, 78
2, 25656, Note_off_c, 1, 88, 64
2, 25656, Note_off_c, 1, 76, 64
2, 25752, Note_off_c, 1, 82, 64
2, 25756, Note_on_c, 1, 88, 88
2, 25756, Note_on_c, 1, 58, 52
2, 25756, Note_on_c, 1, 61, 56
2, 25756, Note_on_c, 1, 67, 62
2, 25756, Note_on_c, 1, 76, 67
2, 25768, Note_off_c, 1, 76, 64
2, 25772, Note_off_c, 1, 88, 64
2, 25780, Note_off_c, 1, 58, 64
2, 25784, Note_off_c, 1, 61, 64
2, 25792, Note_off_c, 1, 67, 64
2, 25868, Note_on_c, 1, 89, 100
2, 25872, Note_on_c, 1, 77, 78
2, 25976, Control_c, 1, 64, 0
2, 25984, Note_on_c, 1, 50, 80
2, 25984, Note_on_c, 1, 62, 75
2, 26004, Control_c, 1, 64, 127
2, 26048, Note_off_c, 1, 50, 64
2, 26060, Note_off_c, 1, 62, 64
2, 26088, Note_off_c, 1, 89, 64
2, 26096, Note_off_c, 1, 77, 64
2, 26100, Note_on_c, 1, 86, 80
2, 26128, Note_off_c, 1, 86, 64
2, 26216, Note_on_c, 1, 62, 61
2, 26216, Note_on_c, 1, 58, 55
2, 26216, Note_on_c, 1, 65, 64
2, 26220, Note_on_c, 1, 91, 90
2, 26220, Note_on_c, 1, 79, 83
2, 26228, Note_off_c, 1, 62, 64
2, 26232, Note_off_c, 1, 58, 64
2, 26236, Note_off_c, 1, 65, 64
2, 26324, Note_off_c, 1, 91, 64
2, 26328, Note_on_c, 1, 86, 85
2, 26388, Note_off_c, 1, 79, 64
2, 26440, Note_off_c, 1, 86, 64
2, 26448, Note_on_c, 1, 89, 78
2, 26448, Note_on_c, 1, 77, 85
2, 26448, Note_on_c, 1, 46, 73
2, 26448, Note_on_c, 1, 58, 61
2, 26448, Control_c, 1, 64, 0
2, 26476, Control_c, 1, 64, 127
2, 26500, Note_off_c, 1, 46, 64
2, 26508, Note_off_c, 1, 58, 64
2, 26564, Note_on_c, 1, 86, 83
2, 26580, Note_off_c, 1, 77, 64
2, 26672, Note_on_c, 1, 53, 64
2, 26672, Note_on_c, 1, 58, 58
2, 26672, Note_on_c, 1, 62, 51
2, 26676, Note_on_c, 1, 82, 83
2, 26680, Note_off_c, 1, 58, 64
2, 26684, Note_off_c, 1, 53, 64
2, 26684, Note_off_c, 1, 62, 64
2, 26776, Note_off_c, 1, 89, 64
2, 26776, Note_off_c, 1, 86, 64
2, 26776, Note_off_c, 1, 82, 64
2, 26780, Note_on_c, 1, 77, 78
2, 26784, Note_off_c, 1, 77, 64
2, 26872, Control_c, 1, 64, 0
2, 26884, Note_on_c, 1, 46, 83
2, 26892, Note_on_c, 1, 82, 78
2, 26896, Note_on_c, 1, 74, 45
2, 26896, Note_on_c, 1, 70, 43
2, 26900, Control_c, 1, 64, 127
2, 26912, Note_off_c, 1, 74, 64
2, 26920, Note_off_c, 1, 70, 64
2, 26928, Note_off_c, 1, 82, 64
2, 26944, Note_off_c, 1, 46, 64
2, 27004, Note_on_c, 1, 84, 68
2, 27004, Note_on_c, 1, 75, 64
2, 27004, Note_on_c, 1, 72, 40
2, 27012, Note_off_c, 1, 84, 64
2, 27012, Note_off_c, 1, 75, 64
2, 27016, Note_off_c, 1, 72, 64
2, 27104, Note_on_c, 1, 86, 70
2, 27108, Note_on_c, 1, 77, 61
2, 27108, Note_on_c, 1, 58, 60
2, 27108, Note_on_c, 1, 74, 57
2, 27112, Note_on_c, 1, 53, 69
2, 27112, Note_on_c, 1, 62, 63
2, 27116, Note_off_c, 1, 74, 64
2, 27128, Note_off_c, 1, 86, 64
2, 27128, Note_off_c, 1, 77, 64
2, 27132, Note_off_c, 1, 58, 64
2, 27132, Note_off_c, 1, 53, 64
2, 27132, Note_off_c, 1, 62, 64
2, 27208, Note_on_c, 1, 86, 73
2, 27208, Note_on_c, 1, 77, 66
2, 27220, Note_on_c, 1, 74, 62
2, 27232, Note_off_c, 1, 74, 64
2, 27236, Note_off_c, 1, 86, 64
2, 27236, Note_off_c, 1, 77, 64
2, 27320, Control_c, 1, 64, 0
2, 27332, Note_on_c, 1, 86, 82
2, 27332, Note_on_c, 1, 77, 77
2, 27332, Note_on_c, 1, 41, 71
2, 27332, Note_on_c, 1, 74, 70
2, 27336, Control_c, 1, 64, 127
2, 27340, Note_off_c, 1, 41, 64
2, 27344, Note_off_c, 1, 77, 64
2, 27352, Note_off_c, 1, 86, 64
2, 27352, Note_off_c, 1, 74, 64
2, 27444, Note_on_c, 1, 75, 75
2, 27444, Note_on_c, 1, 72, 69
2, 27444, Note_on_c, 1, 84, 73
2, 27460, Note_off_c, 1, 75, 64
2, 27460, Note_off_c, 1, 72, 64
2, 27460, Note_off_c, 1, 84, 64
2, 27556, Note_on_c, 1, 74, 88
2, 27560, Note_on_c, 1, 70, 67
2, 27560, Note_on_c, 1, 82, 71
2, 27560, Note_on_c, 1, 58, 55
2, 27564, Note_on_c, 1, 53, 56
2, 27564, Note_on_c, 1, 62, 41
2, 27568, Note_off_c, 1, 74, 64
2, 27572, Note_off_c, 1, 70, 64
2, 27572, Note_off_c, 1, 82, 64
2, 27580, Note_off_c, 1, 58, 64
2, 27580, Note_off_c, 1, 62, 64
2, 27588, Note_off_c, 1, 53, 64
2, 27664, Note_on_c, 1, 75, 69
2, 27672, Note_on_c, 1, 72, 69
2, 27672, Note_on_c, 1, 84, 68
2, 27680, Note_off_c, 1, 75, 64
2, 27684, Note_off_c, 1, 72, 64
2, 27688, Note_off_c, 1, 84, 64
2, 27772, Control_c, 1, 64, 0
2, 27776, Note_on_c, 1, 77, 73
2, 27780, Note_on_c, 1, 46, 85
2, 27784, Note_on_c, 1, 74, 77
2, 27784, Note_on_c, 1, 86, 75
2, 27800, Control_c, 1, 64, 127
2, 27820, Note_off_c, 1, 86, 64
2, 27824, Note_off_c, 1, 77, 64
2, 27824, Note_off_c, 1, 46, 64
2, 27824, Note_off_c, 1, 74, 64
2, 28004, Note_on_c, 1, 74, 73
2, 28004, Note_on_c, 1, 77, 80
2, 28004, Note_on_c, 1, 58, 55
2, 28004, Note_on_c, 1, 65, 66
2, 28004, Note_on_c, 1, 53, 62
2, 28004, Note_on_c, 1, 62, 53
2, 28012, Note_off_c, 1, 58, 64
2, 28016, Note_off_c, 1, 65, 64
2, 28016, Note_off_c, 1, 62, 64
2, 28020, Note_off_c, 1, 74, 64
2, 28020, Note_off_c, 1, 77, 64
2, 28020, Note_off_c, 1, 53, 64
2, 28104, Note_on_c, 1, 74, 78
2, 28108, Note_on_c, 1, 77, 78
2, 28112, Note_on_c, 1, 65, 62
2, 28168, Note_off_c, 1, 65, 64
2, 28196, Note_off_c, 1, 74, 64
2, 28220, Control_c, 1, 64, 0
2, 28228, Note_on_c, 1, 41, 80
2, 28236, Control_c, 1, 64, 127
2, 28244, Note_off_c, 1, 77, 64
2, 28244, Note_off_c, 1, 41, 64
2, 28340, Note_on_c, 1, 70, 73
2, 28396, Note_off_c, 1, 70, 64
2, 28448, Note_on_c, 1, 53, 65
2, 28460, Note_on_c, 1, 74, 88
2, 28460, Note_on_c, 1, 62, 42
2, 28460, Note_on_c, 1, 58, 33
2, 28516, Note_off_c, 1, 62, 64
2, 28520, Note_off_c, 1, 58, 64
2, 28524, Note_off_c, 1, 74, 64
2, 28532, Note_off_c, 1, 53, 64
2, 28560, Note_on_c, 1, 77, 90
2, 28580, Note_off_c, 1, 77, 64
2, 28656, Control_c, 1, 64, 0
2, 28660, Note_on_c, 1, 46, 57
2, 28676, Note_on_c, 1, 80, 70
2, 28680, Note_on_c, 1, 68, 73
2, 28708, Control_c, 1, 64, 127
2, 28732, Note_off_c, 1, 46, 64
2, 28780, Note_on_c, 1, 74, 70
2, 28892, Note_on_c, 1, 77, 77
2, 28892, Note_on_c, 1, 58, 49
2, 28900, Note_off_c, 1, 80, 64
2, 28900, Note_off_c, 1, 74, 64
2, 28900, Note_on_c, 1, 62, 51
2, 28904, Note_off_c, 1, 68, 64
2, 28904, Note_off_c, 1, 77, 64
2, 29008, Note_on_c, 1, 80, 75
2, 29008, Note_on_c, 1, 68, 70
2, 29012, Control_c, 1, 64, 0
2, 29124, Note_on_c, 1, 53, 67
2, 29136, Note_off_c, 1, 58, 64
2, 29136, Note_off_c, 1, 62, 64
2, 29244, Note_on_c, 1, 74, 71
2, 29256, Note_off_c, 1, 68, 64
2, 29256, Note_off_c, 1, 80, 64
2, 29256, Control_c, 1, 64, 127
2, 29280, Note_off_c, 1, 74, 64
2, 29352, Note_on_c, 1, 62, 49
2, 29352, Note_on_c, 1, 58, 43
2, 29352, Control_c, 1, 64, 0
2, 29364, Note_on_c, 1, 80, 75
2, 29368, Note_on_c, 1, 68, 67
2, 29380, Control_c, 1, 64, 127
2, 29400, Note_off_c, 1, 68, 64
2, 29404, Note_off_c, 1, 80, 64
2, 29456, Note_off_c, 1, 53, 64
2, 29460, Control_c, 1, 64, 0
2, 29472, Note_on_c, 1, 79, 83
2, 29472, Note_on_c, 1, 67, 71
2, 29488, Control_c, 1, 64, 127
2, 29584, Note_on_c, 1, 51, 47
2, 29588, Note_off_c, 1, 62, 64
2, 29592, Note_off_c, 1, 58, 64
2, 29592, Control_c, 1, 64, 0
2, 29688, Note_on_c, 1, 75, 66
2, 29708, Control_c, 1, 64, 127
2, 29740, Note_off_c, 1, 79, 64
2, 29744, Note_off_c, 1, 75, 64
2, 29748, Note_off_c, 1, 67, 64
2, 29808, Note_on_c, 1, 58, 45
2, 29812, Note_on_c, 1, 78, 69
2, 29812, Note_on_c, 1, 63, 39
2, 29812, Note_on_c, 1, 66, 65
2, 29812, Control_c, 1, 64, 0
2, 29848, Control_c, 1, 64, 127
2, 29920, Note_on_c, 1, 70, 54
2, 29924, Note_off_c, 1, 51, 64
2, 29924, Note_off_c, 1, 66, 64
2, 29940, Note_off_c, 1, 78, 64
2, 30024, Note_on_c, 1, 51, 37
2, 30032, Note_off_c, 1, 63, 64
2, 30044, Note_off_c, 1, 58, 64
2, 30044, Note_off_c, 1, 70, 64
2, 30044, Note_on_c, 1, 75, 54
2, 30044, Control_c, 1, 64, 0
2, 30072, Control_c, 1, 64, 127
2, 30080, Note_off_c, 1, 75, 64
2, 30140, Control_c, 1, 64, 0
2, 30152, Note_on_c, 1, 79, 78
2, 30156, Note_on_c, 1, 67, 68
2, 30172, Control_c, 1, 64, 127
2, 30220, Note_off_c, 1, 67, 64
2, 30260, Note_off_c, 1, 79, 64
2, 30264, Note_on_c, 1, 58, 39
2, 30272, Note_on_c, 1, 63, 47
2, 30272, Control_c, 1, 64, 0
2, 30376, Note_off_c, 1, 51, 64
2, 30380, Note_on_c, 1, 79, 100
2, 30396, Control_c, 1, 64, 127
2, 30424, Note_off_c, 1, 63, 64
2, 30428, Note_off_c, 1, 58, 64
2, 30500, Note_on_c, 1, 52, 41
2, 30500, Control_c, 1, 64, 0
2, 30612, Note_on_c, 1, 81, 90
2, 30620, Note_off_c, 1, 79, 64
2, 30636, Control_c, 1, 64, 127
2, 30728, Note_on_c, 1, 58, 43
2, 30728, Note_on_c, 1, 55, 39
2, 30728, Note_on_c, 1, 61, 40
2, 30732, Note_on_c, 1, 82, 80
2, 30732, Control_c, 1, 64, 0
2, 30740, Note_off_c, 1, 81, 64
2, 30832, Note_on_c, 1, 81, 90
2, 30840, Control_c, 1, 64, 127
2, 30848, Note_off_c, 1, 82, 64
2, 30864, Note_off_c, 1, 52, 64
2, 30932, Note_off_c, 1, 61, 64
2, 30940, Note_off_c, 1, 58, 64
2, 30944, Note_on_c, 1, 52, 54
2, 30948, Note_on_c, 1, 82, 83
2, 30948, Control_c, 1, 64, 0
2, 30952, Note_off_c, 1, 55, 64
2, 30952, Note_off_c, 1, 81, 64
2, 31052, Note_on_c, 1, 81, 80
2, 31068, Note_off_c, 1, 82, 64
2, 31168, Note_on_c, 1, 58, 51
2, 31172, Note_off_c, 1, 81, 64
2, 31172, Note_on_c, 1, 55, 38
2, 31172, Note_on_c, 1, 61, 39
2, 31172, Note_on_c, 1, 82, 80
2, 31284, Note_off_c, 1, 82, 64
2, 31284, Note_on_c, 1, 79, 85
2, 31292, Control_c, 1, 64, 127
2, 31304, Note_off_c, 1, 55, 64
2, 31308, Note_off_c, 1, 52, 64
2, 31316, Note_off_c, 1, 58, 64
2, 31316, Note_off_c, 1, 61, 64
2, 31392, Note_on_c, 1, 53, 41
2, 31396, Note_off_c, 1, 79, 64
2, 31400, Note_on_c, 1, 77, 77
2, 31400, Control_c, 1, 64, 0
2, 31476, Note_off_c, 1, 77, 64
2, 31612, Note_on_c, 1, 86, 85
2, 31612, Note_on_c, 1, 77, 83
2, 31616, Note_on_c, 1, 62, 42
2, 31616, Note_on_c, 1, 58, 40
2, 31620, Control_c, 1, 64, 127
2, 31640, Note_off_c, 1, 62, 64
2, 31648, Note_off_c, 1, 58, 64
2, 31668, Note_off_c, 1, 53, 64
2, 31756, Control_c, 1, 64, 0
2, 31836, Note_on_c, 1, 43, 74
2, 31840, Note_off_c, 1, 77, 64
2, 31840, Control_c, 1, 64, 127
2, 31848, Note_off_c, 1, 86, 64
2, 31848, Note_off_c, 1, 43, 64
2, 31948, Note_on_c, 1, 79, 90
2, 32048, Note_off_c, 1, 79, 64
2, 32060, Note_on_c, 1, 55, 51
2, 32064, Note_on_c, 1, 59, 64
2, 32064, Note_on_c, 1, 83, 93
2, 32064, Note_on_c, 1, 65, 56
2, 32080, Note_off_c, 1, 59, 64
2, 32088, Note_off_c, 1, 65, 64
2, 32092, Note_off_c, 1, 55, 64
2, 32172, Note_off_c, 1, 83, 64
2, 32172, Note_on_c, 1, 86, 85
2, 32204, Note_off_c, 1, 86, 64
2, 32288, Note_on_c, 1, 82, 88
2, 32292, Note_on_c, 1, 84, 85
2, 32292, Note_on_c, 1, 48, 66
2, 32292, Note_on_c, 1, 76, 78
2, 32300, Control_c, 1, 64, 0
2, 32364, Note_off_c, 1, 82, 64
2, 32364, Note_off_c, 1, 84, 64
2, 32364, Note_off_c, 1, 76, 64
2, 32400, Note_on_c, 1, 84, 78
2, 32400, Control_c, 1, 64, 127
2, 32404, Note_off_c, 1, 48, 64
2, 32404, Note_on_c, 1, 82, 73
2, 32404, Note_on_c, 1, 76, 77
2, 32512, Note_off_c, 1, 82, 64
2, 32516, Note_on_c, 1, 58, 55
2, 32516, Control_c, 1, 64, 0
2, 32520, Note_off_c, 1, 84, 64
2, 32520, Note_off_c, 1, 76, 64
2, 32520, Note_on_c, 1, 60, 54
2, 32524, Note_on_c, 1, 64, 63
2, 32612, Note_off_c, 1, 64, 64
2, 32616, Note_off_c, 1, 60, 64
2, 32620, Note_off_c, 1, 58, 64
2, 32620, Control_c, 1, 64, 127
2, 32624, Note_on_c, 1, 86, 78
2, 32632, Note_on_c, 1, 82, 66
2, 32632, Note_on_c, 1, 76, 73
2, 32636, Note_off_c, 1, 86, 64
2, 32636, Note_off_c, 1, 82, 64
2, 32636, Note_off_c, 1, 76, 64
2, 32724, Control_c, 1, 64, 0
2, 32740, Note_on_c, 1, 41, 71
2, 32744, Note_on_c, 1, 84, 78
2, 32748, Note_on_c, 1, 75, 73
2, 32756, Control_c, 1, 64, 127
2, 32768, Note_off_c, 1, 41, 64
2, 32796, Note_off_c, 1, 75, 64
2, 32800, Note_off_c, 1, 84, 64
2, 32864, Note_on_c, 1, 75, 64
2, 32864, Note_on_c, 1, 77, 75
2, 32876, Note_off_c, 1, 77, 64
2, 32880, Note_off_c, 1, 75, 64
2, 32880, Control_c, 1, 64, 0
2, 32972, Note_on_c, 1, 57, 63
2, 32976, Note_on_c, 1, 84, 75
2, 32976, Note_on_c, 1, 65, 56
2, 32976, Note_on_c, 1, 75, 66
2, 32996, Note_off_c, 1, 84, 64
2, 32996, Control_c, 1, 64, 127
2, 33000, Note_off_c, 1, 75, 64
2, 33044, Note_off_c, 1, 65, 64
2, 33060, Control_c, 1, 64, 0
2, 33072, Note_off_c, 1, 57, 64
2, 33092, Note_on_c, 1, 77, 66
2, 33092, Note_on_c, 1, 75, 52
2, 33096, Control_c, 1, 64, 127
2, 33100, Note_off_c, 1, 77, 64
2, 33108, Note_off_c, 1, 75, 64
2, 33192, Control_c, 1, 64, 0
2, 33196, Note_on_c, 1, 82, 67
2, 33200, Note_on_c, 1, 74, 67
2, 33208, Note_on_c, 1, 62, 41
2, 33208, Note_on_c, 1, 65, 49
2, 33208, Note_on_c, 1, 58, 34
2, 33224, Control_c, 1, 64, 127
2, 33232, Note_off_c, 1, 62, 64
2, 33240, Note_off_c, 1, 65, 64
2, 33240, Note_off_c, 1, 58, 64
2, 33320, Control_c, 1, 64, 0
2, 33416, Note_off_c, 1, 74, 64
2, 33424, Note_off_c, 1, 82, 64
2, 33424, Control_c, 1, 64, 127
2, 33428, Note_on_c, 1, 53, 83
2, 33432, Note_on_c, 1, 41, 71
2, 33440, Note_off_c, 1, 53, 64
2, 33444, Note_off_c, 1, 41, 64
2, 33572, Control_c, 1, 64, 0
2, 33672, Note_on_c, 1, 94, 80
2, 33672, Note_on_c, 1, 89, 90
2, 33672, Note_on_c, 1, 86, 93
2, 33676, Note_on_c, 1, 82, 83
2, 33676, Note_on_c, 1, 34, 77
2, 33676, Note_on_c, 1, 46, 85
2, 33676, Control_c, 1, 64, 127
2, 33712, Note_off_c, 1, 89, 64
2, 33716, Note_off_c, 1, 94, 64
2, 33724, Note_off_c, 1, 86, 64
2, 33724, Note_off_c, 1, 82, 64
2, 33736, Note_off_c, 1, 34, 64
2, 33736, Note_off_c, 1, 46, 64
2, 33920, Control_c, 1, 64, 0
2, 34140, Note_on_c, 1, 51, 53
2, 34148, Note_on_c, 1, 70, 65
2, 34152, Note_on_c, 1, 67, 62
2, 34256, Note_off_c, 1, 70, 64
2, 34256, Note_off_c, 1, 67, 64
2, 34380, Note_on_c, 1, 75, 67
2, 34380, Note_on_c, 1, 67, 73
2, 34388, Note_on_c, 1, 55, 37
2, 34388, Note_on_c, 1, 58, 39
2, 34388, Note_on_c, 1, 63, 38
2, 34400, Control_c, 1, 64, 127
2, 34424, Note_off_c, 1, 63, 64
2, 34428, Note_off_c, 1, 55, 64
2, 34428, Note_off_c, 1, 58, 64
2, 34452, Note_off_c, 1, 51, 64
2, 34516, Control_c, 1, 64, 0
2, 34604, Note_off_c, 1, 75, 64
2, 34604, Note_on_c, 1, 44, 56
2, 34608, Control_c, 1, 64, 127
2, 34612, Note_off_c, 1, 67, 64
2, 34620, Note_off_c, 1, 44, 64
2, 34708, Note_on_c, 1, 75, 64
2, 34708, Note_on_c, 1, 72, 68
2, 34732, Note_off_c, 1, 75, 64
2, 34736, Note_off_c, 1, 72, 64
2, 34828, Note_on_c, 1, 56, 54
2, 34828, Note_on_c, 1, 74, 71
2, 34828, Note_on_c, 1, 70, 64
2, 34832, Note_on_c, 1, 60, 36
2, 34832, Note_on_c, 1, 63, 34
2, 34856, Note_off_c, 1, 60, 64
2, 34856, Note_off_c, 1, 63, 64
2, 34860, Note_off_c, 1, 70, 64
2, 34864, Note_off_c, 1, 56, 64
2, 34864, Note_off_c, 1, 74, 64
2, 34948, Note_on_c, 1, 72, 70
2, 34948, Note_on_c, 1, 68, 64
2, 34972, Note_off_c, 1, 68, 64
2, 34976, Note_off_c, 1, 72, 64
2, 35068, Note_on_c, 1, 51, 54
2, 35072, Note_on_c, 1, 72, 69
2, 35072, Note_on_c, 1, 67, 66
2, 35072, Control_c, 1, 64, 0
2, 35184, Note_off_c, 1, 72, 64
2, 35184, Note_on_c, 1, 70, 59
2, 35288, Note_on_c, 1, 69, 64
2, 35288, Note_on_c, 1, 58, 38
2, 35288, Note_on_c, 1, 55, 36
2, 35288, Note_on_c, 1, 63, 38
2, 35300, Note_off_c, 1, 70, 64
2, 35332, Control_c, 1, 64, 127
2, 35344, Note_off_c, 1, 58, 64
2, 35348, Note_off_c, 1, 55, 64
2, 35356, Note_off_c, 1, 63, 64
2, 35356, Note_off_c, 1, 67, 64
2, 35372, Note_off_c, 1, 69, 64
2, 35396, Control_c, 1, 64, 0
2, 35400, Note_on_c, 1, 70, 65
2, 35432, Control_c, 1, 64, 127
2, 35480, Note_off_c, 1, 51, 64
2, 35520, Control_c, 1, 64, 0
2, 35524, Note_on_c, 1, 63, 56
2, 35524, Note_on_c, 1, 58, 39
2, 35528, Note_off_c, 1, 70, 64
2, 35528, Note_on_c, 1, 55, 35
2, 35544, Control_c, 1, 64, 127
2, 35548, Note_off_c, 1, 63, 64
2, 35568, Note_off_c, 1, 58, 64
2, 35576, Note_off_c, 1, 55, 64
2, 35636, Note_on_c, 1, 63, 66
2, 35644, Control_c, 1, 64, 0
2, 35752, Note_off_c, 1, 63, 64
2, 35756, Note_on_c, 1, 65, 77
2, 35864, Note_on_c, 1, 66, 83
2, 35872, Note_off_c, 1, 65, 64
2, 35980, Note_on_c, 1, 48, 46
2, 35980, Note_on_c, 1, 67, 54
2, 35984, Note_off_c, 1, 66, 64
2, 36012, Control_c, 1, 64, 127
2, 36024, Note_off_c, 1, 48, 64
2, 36088, Control_c, 1, 64, 0
2, 36092, Note_off_c, 1, 67, 64
2, 36212, Note_on_c, 1, 72, 65
2, 36216, Note_on_c, 1, 55, 39
2, 36216, Note_on_c, 1, 67, 42
2, 36216, Note_on_c, 1, 63, 36
2, 36236, Control_c, 1, 64, 127
2, 36244, Note_off_c, 1, 55, 64
2, 36244, Note_off_c, 1, 63, 64
2, 36308, Control_c, 1, 64, 0
2, 36424, Note_on_c, 1, 53, 42
2, 36432, Note_off_c, 1, 72, 64
2, 36440, Note_off_c, 1, 67, 64
2, 36544, Note_on_c, 1, 72, 67
2, 36552, Control_c, 1, 64, 127
2, 36660, Control_c, 1, 64, 0
2, 36664, Note_off_c, 1, 53, 64
2, 36664, Note_off_c, 1, 72, 64
2, 36664, Note_on_c, 1, 60, 46
2, 36664, Note_on_c, 1, 56, 57
2, 36664, Note_on_c, 1, 70, 64
2, 36668, Note_on_c, 1, 65, 43
2, 36772, Note_off_c, 1, 60, 64
2, 36780, Note_off_c, 1, 56, 64
2, 36780, Note_off_c, 1, 70, 64
2, 36780, Note_off_c, 1, 65, 64
2, 36780, Note_on_c, 1, 68, 64
2, 36780, Control_c, 1, 64, 127
2, 36852, Note_off_c, 1, 68, 64
2, 36884, Control_c, 1, 64, 0
2, 36888, Note_on_c, 1, 68, 59
2, 36888, Note_on_c, 1, 48, 38
2, 36908, Control_c, 1, 64, 127
2, 36924, Note_off_c, 1, 48, 64
2, 37000, Note_on_c, 1, 67, 62
2, 37004, Note_off_c, 1, 68, 64
2, 37028, Control_c, 1, 64, 0
2, 37112, Note_off_c, 1, 67, 64
2, 37112, Note_on_c, 1, 66, 61
2, 37112, Note_on_c, 1, 55, 61
2, 37116, Note_on_c, 1, 60, 39
2, 37116, Note_on_c, 1, 63, 38
2, 37224, Note_off_c, 1, 63, 64
2, 37228, Note_off_c, 1, 66, 64
2, 37228, Note_on_c, 1, 67, 70
2, 37236, Note_off_c, 1, 55, 64
2, 37236, Note_off_c, 1, 60, 64
2, 37236, Control_c, 1, 64, 127
2, 37348, Note_on_c, 1, 63, 48
2, 37348, Control_c, 1, 64, 0
2, 37356, Note_on_c, 1, 60, 39
2, 37356, Note_on_c, 1, 55, 39
2, 37364, Note_off_c, 1, 67, 64
2, 37376, Control_c, 1, 64, 127
2, 37404, Note_off_c, 1, 63, 64
2, 37460, Note_off_c, 1, 60, 64
2, 37464, Note_on_c, 1, 67, 74
2, 37468, Note_off_c, 1, 55, 64
2, 37468, Control_c, 1, 64, 0
2, 37576, Note_on_c, 1, 68, 80
2, 37584, Note_off_c, 1, 67, 64
2, 37688, Note_off_c, 1, 68, 64
2, 37688, Note_on_c, 1, 70, 85
2, 37700, Control_c, 1, 64, 127
2, 37740, Note_off_c, 1, 70, 64
2, 37792, Control_c, 1, 64, 0
2, 37800, Note_on_c, 1, 72, 73
2, 37800, Note_on_c, 1, 53, 39
2, 37800, Note_on_c, 1, 68, 70
2, 37872, Note_off_c, 1, 68, 64
2, 37880, Note_off_c, 1, 72, 64
2, 37884, Control_c, 1, 64, 127
2, 37980, Note_on_c, 1, 74, 78
2, 37984, Note_on_c, 1, 68, 68
2, 38012, Control_c, 1, 64, 0
2, 38044, Note_on_c, 1, 58, 58
2, 38044, Note_on_c, 1, 62, 59
2, 38044, Note_on_c, 1, 56, 34
2, 38068, Note_off_c, 1, 68, 64
2, 38072, Note_off_c, 1, 74, 64
2, 38072, Control_c, 1, 64, 127
2, 38136, Note_off_c, 1, 58, 64
2, 38136, Note_off_c, 1, 62, 64
2, 38144, Note_off_c, 1, 53, 64
2, 38144, Note_off_c, 1, 56, 64
2, 38148, Note_on_c, 1, 72, 71
2, 38152, Note_on_c, 1, 68, 65
2, 38152, Control_c, 1, 64, 0
2, 38256, Note_on_c, 1, 46, 57
2, 38264, Control_c, 1, 64, 127
2, 38272, Note_off_c, 1, 72, 64
2, 38272, Note_off_c, 1, 68, 64
2, 38280, Note_off_c, 1, 46, 64
2, 38368, Note_on_c, 1, 65, 77
2, 38464, Note_on_c, 1, 62, 44
2, 38464, Note_on_c, 1, 56, 43
2, 38464, Note_on_c, 1, 58, 40
2, 38464, Control_c, 1, 64, 0
2, 38476, Note_off_c, 1, 65, 64
2, 38484, Note_on_c, 1, 67, 78
2, 38584, Note_on_c, 1, 68, 82
2, 38600, Note_off_c, 1, 67, 64
2, 38604, Control_c, 1, 64, 127
2, 38636, Note_off_c, 1, 68, 64
2, 38692, Note_on_c, 1, 51, 42
2, 38696, Note_off_c, 1, 56, 64
2, 38700, Control_c, 1, 64, 0
2, 38704, Note_off_c, 1, 62, 64
2, 38708, Note_off_c, 1, 58, 64
2, 38708, Note_on_c, 1, 70, 64
2, 38716, Note_on_c, 1, 67, 66
2, 38776, Note_off_c, 1, 70, 64
2, 38784, Note_off_c, 1, 67, 64
2, 38868, Note_on_c, 1, 72, 71
2, 38872, Note_on_c, 1, 67, 68
2, 38928, Note_off_c, 1, 72, 64
2, 38928, Note_on_c, 1, 63, 60
2, 38928, Note_on_c, 1, 58, 55
2, 38932, Note_off_c, 1, 67, 64
2, 38932, Note_on_c, 1, 55, 53
2, 38936, Control_c, 1, 64, 127
2, 38960, Note_off_c, 1, 63, 64
2, 38960, Note_off_c, 1, 58, 64
2, 38964, Note_off_c, 1, 55, 64
2, 39000, Note_off_c, 1, 51, 64
2, 39036, Note_on_c, 1, 70, 69
2, 39040, Note_on_c, 1, 67, 73
2, 39148, Note_on_c, 1, 43, 78
2, 39148, Control_c, 1, 64, 0
2, 39156, Note_on_c, 1, 55, 78
2, 39164, Note_off_c, 1, 70, 64
2, 39204, Note_off_c, 1, 67, 64
2, 39268, Note_on_c, 1, 70, 83
2, 39272, Control_c, 1, 64, 127
2, 39292, Note_off_c, 1, 55, 64
2, 39300, Note_off_c, 1, 43, 64
2, 39304, Note_off_c, 1, 70, 64
2, 39376, Note_on_c, 1, 42, 70
2, 39384, Note_on_c, 1, 72, 88
2, 39384, Note_on_c, 1, 54, 68
2, 39384, Control_c, 1, 64, 0
2, 39412, Control_c, 1, 64, 127
2, 39460, Note_off_c, 1, 72, 64
2, 39484, Control_c, 1, 64, 0
2, 39504, Note_on_c, 1, 73, 83
2, 39508, Note_off_c, 1, 42, 64
2, 39508, Note_off_c, 1, 54, 64
2, 39512, Control_c, 1, 64, 127
2, 39544, Note_off_c, 1, 73, 64
2, 39608, Control_c, 1, 64, 0
2, 39612, Note_on_c, 1, 41, 56
2, 39612, Note_on_c, 1, 53, 64
2, 39616, Note_on_c, 1, 74, 85
2, 39640, Control_c, 1, 64, 127
2, 39656, Note_off_c, 1, 41, 64
2, 39656, Note_off_c, 1, 53, 64
2, 39692, Note_off_c, 1, 74, 64
2, 39724, Control_c, 1, 64, 0
2, 39732, Note_on_c, 1, 65, 68
2, 39844, Note_on_c, 1, 53, 61
2, 39844, Note_on_c, 1, 62, 58
2, 39848, Note_on_c, 1, 58, 50
2, 39860, Note_off_c, 1, 62, 64
2, 39860, Note_off_c, 1, 58, 64
2, 39876, Note_off_c, 1, 53, 64
2, 39952, Note_on_c, 1, 66, 67
2, 39960, Note_off_c, 1, 65, 64
2, 39980, Control_c, 1, 64, 127
2, 40012, Note_off_c, 1, 66, 64
2, 40052, Control_c, 1, 64, 0
2, 40072, Note_on_c, 1, 67, 68
2, 40072, Note_on_c, 1, 36, 44
2, 40072, Note_on_c, 1, 64, 64
2, 40092, Control_c, 1, 64, 127
2, 40108, Note_off_c, 1, 36, 64
2, 40120, Note_off_c, 1, 64, 64
2, 40140, Note_off_c, 1, 67, 64
2, 40204, Control_c, 1, 64, 0
2, 40304, Note_on_c, 1, 63, 53
2, 40304, Note_on_c, 1, 69, 68
2, 40308, Note_on_c, 1, 41, 47
2, 40308, Note_on_c, 1, 53, 43
2, 40312, Control_c, 1, 64, 127
2, 40344, Note_off_c, 1, 41, 64
2, 40352, Note_off_c, 1, 53, 64
2, 40364, Note_off_c, 1, 63, 64
2, 40372, Note_off_c, 1, 69, 64
2, 40436, Control_c, 1, 64, 0
2, 40544, Note_on_c, 1, 46, 60
2, 40544, Note_on_c, 1, 70, 69
2, 40548, Note_on_c, 1, 62, 64
2, 40552, Note_on_c, 1, 34, 32
2, 40552, Control_c, 1, 64, 127
2, 40592, Note_off_c, 1, 46, 64
2, 40592, Note_off_c, 1, 34, 64
2, 40768, Control_c, 1, 64, 0
2, 40776, Note_on_c, 1, 44, 66
2, 40776, Note_on_c, 1, 56, 71
2, 40888, Control_c, 1, 64, 127
2, 40908, Note_off_c, 1, 44, 64
2, 40912, Note_off_c, 1, 56, 64
2, 41004, Control_c, 1, 64, 0
2, 41016, Note_on_c, 1, 43, 71
2, 41016, Note_on_c, 1, 55, 80
2, 41116, Note_off_c, 1, 62, 64
2, 41120, Control_c, 1, 64, 127
2, 41128, Note_off_c, 1, 70, 64
2, 41160, Note_off_c, 1, 55, 64
2, 41168, Note_off_c, 1, 43, 64
2, 41236, Control_c, 1, 64, 0
2, 41240, Note_on_c, 1, 41, 70
2, 41244, Note_on_c, 1, 53, 78
2, 41288, Control_c, 1, 64, 127
2, 41336, Note_off_c, 1, 53, 64
2, 41340, Note_off_c, 1, 41, 64
2, 41368, Control_c, 1, 64, 0
2, 41472, Note_on_c, 1, 39, 54
2, 41480, Note_on_c, 1, 67, 69
2, 41480, Note_on_c, 1, 70, 75
2, 41484, Note_on_c, 1, 51, 53
2, 41484, Control_c, 1, 64, 127
2, 41492, Note_off_c, 1, 39, 64
2, 41500, Note_off_c, 1, 51, 64
2, 41580, Note_off_c, 1, 67, 64
2, 41592, Note_off_c, 1, 70, 64
2, 41632, Control_c, 1, 64, 0
2, 41692, Note_on_c, 1, 55, 61
2, 41696, Note_on_c, 1, 58, 38
2, 41696, Note_on_c, 1, 63, 42
2, 41712, Note_on_c, 1, 75, 66
2, 41716, Control_c, 1, 64, 127
2, 41720, Note_off_c, 1, 63, 64
2, 41720, Note_on_c, 1, 67, 73
2, 41728, Note_off_c, 1, 55, 64
2, 41732, Note_off_c, 1, 58, 64
2, 41904, Control_c, 1, 64, 0
2, 41932, Note_on_c, 1, 44, 63
2, 41936, Control_c, 1, 64, 127
2, 41948, Note_off_c, 1, 44, 64
2, 41964, Note_off_c, 1, 75, 64
2, 41968, Note_off_c, 1, 67, 64
2, 42036, Note_on_c, 1, 75, 59
2, 42040, Note_on_c, 1, 72, 70
2, 42068, Note_off_c, 1, 75, 64
2, 42076, Note_off_c, 1, 72, 64
2, 42156, Note_on_c, 1, 70, 66
2, 42156, Note_on_c, 1, 74, 71
2, 42156, Note_on_c, 1, 56, 53
2, 42156, Note_on_c, 1, 60, 44
2, 42156, Control_c, 1, 64, 0
2, 42160, Note_on_c, 1, 63, 39
2, 42172, Control_c, 1, 64, 127
2, 42200, Note_off_c, 1, 70, 64
2, 42204, Note_off_c, 1, 74, 64
2, 42212, Note_off_c, 1, 60, 64
2, 42212, Note_off_c, 1, 63, 64
2, 42220, Note_off_c, 1, 56, 64
2, 42272, Note_on_c, 1, 72, 65
2, 42272, Note_on_c, 1, 68, 57
2, 42292, Note_off_c, 1, 72, 64
2, 42292, Note_off_c, 1, 68, 64
2, 42384, Note_on_c, 1, 51, 46
2, 42388, Control_c, 1, 64, 0
2, 42396, Note_on_c, 1, 67, 64
2, 42400, Note_on_c, 1, 72, 69
2, 42508, Note_off_c, 1, 72, 64
2, 42512, Note_on_c, 1, 70, 60
2, 42620, Note_off_c, 1, 70, 64
2, 42620, Note_on_c, 1, 69, 71
2, 42620, Note_on_c, 1, 58, 51
2, 42620, Note_on_c, 1, 63, 51
2, 42620, Note_on_c, 1, 55, 35
2, 42712, Note_off_c, 1, 55, 64
2, 42716, Note_off_c, 1, 58, 64
2, 42716, Note_off_c, 1, 63, 64
2, 42728, Note_on_c, 1, 70, 63
2, 42744, Note_off_c, 1, 69, 64
2, 42744, Control_c, 1, 64, 127
2, 42832, Control_c, 1, 64, 0
2, 42844, Note_on_c, 1, 63, 52
2, 42848, Note_on_c, 1, 58, 38
2, 42848, Note_on_c, 1, 55, 37
2, 42852, Note_off_c, 1, 67, 64
2, 42852, Note_off_c, 1, 70, 64
2, 42852, Control_c, 1, 64, 127
2, 42876, Note_off_c, 1, 63, 64
2, 42892, Note_off_c, 1, 58, 64
2, 42896, Note_off_c, 1, 55, 64
2, 42956, Control_c, 1, 64, 0
2, 42964, Note_on_c, 1, 63, 75
2, 43000, Note_off_c, 1, 51, 64
2, 43076, Note_on_c, 1, 65, 78
2, 43080, Note_off_c, 1, 63, 64
2, 43184, Note_on_c, 1, 66, 77
2, 43196, Note_off_c, 1, 65, 64
2, 43292, Note_on_c, 1, 48, 37
2, 43300, Note_off_c, 1, 66, 64
2, 43300, Note_on_c, 1, 67, 59
2, 43304, Control_c, 1, 64, 127
2, 43316, Note_off_c, 1, 48, 64
2, 43440, Note_off_c, 1, 67, 64
2, 43504, Control_c, 1, 64, 0
2, 43520, Note_on_c, 1, 63, 40
2, 43520, Note_on_c, 1, 55, 54
2, 43528, Note_on_c, 1, 60, 39
2, 43532, Note_on_c, 1, 72, 65
2, 43532, Note_on_c, 1, 67, 58
2, 43548, Note_off_c, 1, 63, 64
2, 43560, Note_off_c, 1, 60, 64
2, 43572, Note_off_c, 1, 55, 64
2, 43740, Note_on_c, 1, 53, 62
2, 43756, Note_off_c, 1, 72, 64
2, 43760, Note_off_c, 1, 67, 64
2, 43856, Note_on_c, 1, 72, 70
2, 43972, Note_on_c, 1, 60, 39
2, 43976, Note_on_c, 1, 70, 68
2, 43976, Note_on_c, 1, 65, 53
2, 43976, Note_on_c, 1, 56, 42
2, 43984, Note_off_c, 1, 72, 64
2, 44092, Note_off_c, 1, 70, 64
2, 44096, Note_on_c, 1, 68, 66
2, 44108, Note_off_c, 1, 60, 64
2, 44108, Note_off_c, 1, 65, 64
2, 44108, Note_off_c, 1, 56, 64
2, 44112, Note_off_c, 1, 53, 64
2, 44112, Control_c, 1, 64, 127
2, 44180, Note_off_c, 1, 68, 64
2, 44200, Control_c, 1, 64, 0
2, 44204, Note_on_c, 1, 68, 65
2, 44212, Note_on_c, 1, 48, 34
2, 44232, Control_c, 1, 64, 127
2, 44256, Note_off_c, 1, 48, 64
2, 44324, Note_on_c, 1, 67, 64
2, 44328, Note_off_c, 1, 68, 64
2, 44436, Note_on_c, 1, 55, 42
2, 44436, Note_on_c, 1, 66, 56
2, 44436, Control_c, 1, 64, 0
2, 44440, Note_off_c, 1, 67, 64
2, 44440, Note_on_c, 1, 63, 36
2, 44440, Note_on_c, 1, 60, 35
2, 44468, Control_c, 1, 64, 127
2, 44528, Note_off_c, 1, 63, 64
2, 44532, Note_off_c, 1, 55, 64
2, 44536, Note_off_c, 1, 66, 64
2, 44536, Note_off_c, 1, 60, 64
2, 44544, Note_on_c, 1, 67, 69
2, 44652, Control_c, 1, 64, 0
2, 44660, Note_on_c, 1, 63, 45
2, 44664, Note_on_c, 1, 55, 41
2, 44664, Note_on_c, 1, 60, 37
2, 44716, Note_off_c, 1, 67, 64
2, 44772, Note_off_c, 1, 63, 64
2, 44776, Note_on_c, 1, 67, 73
2, 44788, Note_off_c, 1, 60, 64
2, 44816, Note_off_c, 1, 55, 64
2, 44884, Note_off_c, 1, 67, 64
2, 44892, Note_on_c, 1, 68, 77
2, 45004, Note_on_c, 1, 70, 80
2, 45012, Note_off_c, 1, 68, 64
2, 45012, Control_c, 1, 64, 127
2, 45056, Note_off_c, 1, 70, 64
2, 45132, Note_on_c, 1, 56, 61
2, 45136, Note_on_c, 1, 44, 60
2, 45140, Note_on_c, 1, 72, 83
2, 45140, Control_c, 1, 64, 0
2, 45256, Note_off_c, 1, 72, 64
2, 45380, Note_on_c, 1, 63, 66
2, 45380, Note_on_c, 1, 60, 64
2, 45448, Control_c, 1, 64, 127
2, 45500, Note_off_c, 1, 56, 64
2, 45500, Note_off_c, 1, 63, 64
2, 45500, Control_c, 1, 64, 0
2, 45504, Note_off_c, 1, 44, 64
2, 45504, Note_off_c, 1, 60, 64
2, 45616, Note_on_c, 1, 56, 54
2, 45620, Note_on_c, 1, 65, 70
2, 45624, Note_on_c, 1, 63, 54
2, 45624, Note_on_c, 1, 44, 43
2, 45624, Note_on_c, 1, 60, 52
2, 45624, Control_c, 1, 64, 127
2, 45680, Note_off_c, 1, 56, 64
2, 45688, Note_off_c, 1, 44, 64
2, 45700, Note_off_c, 1, 65, 64
2, 45700, Note_off_c, 1, 63, 64
2, 45700, Note_off_c, 1, 60, 64
2, 45848, Note_on_c, 1, 66, 72
2, 45852, Note_on_c, 1, 63, 64
2, 45852, Note_on_c, 1, 60, 68
2, 45852, Note_on_c, 1, 57, 48
2, 45852, Note_on_c, 1, 45, 59
2, 45852, Control_c, 1, 64, 0
2, 45884, Control_c, 1, 64, 127
2, 45920, Note_off_c, 1, 63, 64
2, 45924, Note_off_c, 1, 57, 64
2, 45924, Note_off_c, 1, 45, 64
2, 45932, Note_off_c, 1, 66, 64
2, 45932, Note_off_c, 1, 60, 64
2, 46088, Note_on_c, 1, 46, 59
2, 46088, Note_on_c, 1, 63, 66
2, 46088, Note_on_c, 1, 67, 73
2, 46088, Note_on_c, 1, 58, 63
2, 46092, Control_c, 1, 64, 0
2, 46116, Control_c, 1, 64, 127
2, 46136, Note_off_c, 1, 58, 64
2, 46148, Note_off_c, 1, 63, 64
2, 46152, Note_off_c, 1, 67, 64
2, 46168, Note_off_c, 1, 46, 64
2, 46208, Control_c, 1, 64, 0
2, 46320, Note_on_c, 1, 70, 71
2, 46320, Note_on_c, 1, 64, 83
2, 46320, Note_on_c, 1, 60, 70
2, 46324, Note_on_c, 1, 36, 66
2, 46328, Note_on_c, 1, 48, 60
2, 46412, Control_c, 1, 64, 127
2, 46480, Note_off_c, 1, 48, 64
2, 46508, Note_off_c, 1, 36, 64
2, 46640, Note_off_c, 1, 64, 64
2, 46652, Note_off_c, 1, 70, 64
2, 46652, Note_off_c, 1, 60, 64
2, 46708, Control_c, 1, 64, 0
2, 46772, Note_on_c, 1, 68, 66
2, 46776, Note_on_c, 1, 60, 54
2, 46776, Note_on_c, 1, 29, 40
2, 46776, Note_on_c, 1, 41, 56
2, 46776, Note_on_c, 1, 65, 51
2, 46776, Control_c, 1, 64, 127
2, 46800, Note_off_c, 1, 41, 64
2, 46804, Note_off_c, 1, 68, 64
2, 46808, Note_off_c, 1, 60, 64
2, 46808, Note_off_c, 1, 29, 64
2, 46808, Note_off_c, 1, 65, 64
2, 46992, Note_on_c, 1, 34, 41
2, 46996, Note_on_c, 1, 46, 46
2, 47000, Note_on_c, 1, 67, 64
2, 47012, Control_c, 1, 64, 0
2, 47224, Note_on_c, 1, 63, 40
2, 47228, Note_on_c, 1, 58, 52
2, 47264, Note_off_c, 1, 63, 64
2, 47264, Note_off_c, 1, 58, 64
2, 47288, Note_off_c, 1, 67, 64
2, 47352, Control_c, 1, 64, 127
2, 47384, Note_off_c, 1, 34, 64
2, 47384, Note_off_c, 1, 46, 64
2, 47456, Note_on_c, 1, 65, 64
2, 47468, Note_on_c, 1, 34, 35
2, 47472, Note_on_c, 1, 46, 38
2, 47476, Control_c, 1, 64, 0
2, 47688, Note_on_c, 1, 56, 53
2, 47692, Note_on_c, 1, 62, 37
2, 47692, Note_on_c, 1, 58, 38
2, 47712, Control_c, 1, 64, 127
2, 47720, Note_off_c, 1, 34, 64
2, 47728, Note_off_c, 1, 58, 64
2, 47736, Note_off_c, 1, 46, 64
2, 47736, Note_off_c, 1, 56, 64
2, 47740, Note_off_c, 1, 62, 64
2, 47776, Note_off_c, 1, 65, 64
2, 47876, Control_c, 1, 64, 0
2, 47912, Note_on_c, 1, 58, 54
2, 47912, Note_on_c, 1, 63, 51
2, 47912, Note_on_c, 1, 55, 54
2, 47920, Note_on_c, 1, 46, 33
2, 47924, Note_on_c, 1, 39, 34
2, 47924, Note_on_c, 1, 51, 33
2, 47924, Control_c, 1, 64, 127
2, 47948, Note_off_c, 1, 55, 64
2, 47952, Note_off_c, 1, 58, 64
2, 47964, Note_off_c, 1, 63, 64
2, 47972, Note_off_c, 1, 39, 64
2, 47972, Note_off_c, 1, 51, 64
2, 47988, Note_off_c, 1, 46, 64
2, 48056, Control_c, 1, 64, 0
2, 48140, Note_on_c, 1, 70, 83
2, 48140, Control_c, 1, 64, 127
2, 48208, Note_off_c, 1, 70, 64
2, 48252, Control_c, 1, 64, 0
2, 48356, Note_on_c, 1, 68, 77
2, 48356, Note_on_c, 1, 70, 77
2, 48356, Note_on_c, 1, 62, 78
2, 48360, Note_on_c, 1, 34, 71
2, 48360, Note_on_c, 1, 46, 71
2, 48360, Control_c, 1, 64, 127
2, 48584, Note_off_c, 1, 34, 64
2, 48592, Note_off_c, 1, 46, 64
2, 48608, Note_off_c, 1, 62, 64
2, 48628, Note_off_c, 1, 68, 64
2, 48636, Note_off_c, 1, 70, 64
2, 48724, Control_c, 1, 64, 0
2, 48816, Note_on_c, 1, 51, 75
2, 48820, Note_on_c, 1, 70, 66
2, 48828, Note_on_c, 1, 67, 58
2, 48872, Note_off_c, 1, 51, 64
2, 48936, Note_off_c, 1, 70, 64
2, 48936, Note_off_c, 1, 67, 64
2, 49056, Note_on_c, 1, 58, 54
2, 49056, Note_on_c, 1, 75, 66
2, 49060, Note_on_c, 1, 55, 65
2, 49060, Note_on_c, 1, 67, 67
2, 49084, Note_off_c, 1, 58, 64
2, 49084, Note_off_c, 1, 55, 64
2, 49272, Note_on_c, 1, 44, 45
2, 49272, Control_c, 1, 64, 127
2, 49288, Note_off_c, 1, 67, 64
2, 49288, Note_off_c, 1, 75, 64
2, 49292, Note_off_c, 1, 44, 64
2, 49316, Control_c, 1, 64, 0
2, 49380, Note_on_c, 1, 75, 60
2, 49384, Note_on_c, 1, 72, 66
2, 49392, Control_c, 1, 64, 127
2, 49404, Note_off_c, 1, 75, 64
2, 49408, Note_off_c, 1, 72, 64
2, 49484, Control_c, 1, 64, 0
2, 49492, Note_on_c, 1, 70, 62
2, 49496, Note_on_c, 1, 56, 39
2, 49496, Note_on_c, 1, 74, 66
2, 49496, Note_on_c, 1, 60, 40
2, 49500, Note_on_c, 1, 63, 50
2, 49512, Note_off_c, 1, 56, 64
2, 49512, Note_off_c, 1, 60, 64
2, 49512, Note_off_c, 1, 63, 64
2, 49556, Note_off_c, 1, 70, 64
2, 49596, Note_on_c, 1, 68, 58
2, 49604, Note_on_c, 1, 72, 66
2, 49616, Note_off_c, 1, 74, 64
2, 49624, Note_off_c, 1, 72, 64
2, 49628, Note_off_c, 1, 68, 64
2, 49720, Note_on_c, 1, 72, 71
2, 49720, Note_on_c, 1, 51, 37
2, 49724, Note_on_c, 1, 67, 66
2, 49828, Note_off_c, 1, 72, 64
2, 49828, Note_on_c, 1, 70, 58
2, 49932, Note_on_c, 1, 69, 67
2, 49936, Note_on_c, 1, 58, 40
2, 49936, Note_on_c, 1, 63, 39
2, 49936, Note_on_c, 1, 55, 37
2, 49944, Note_off_c, 1, 70, 64
2, 49976, Note_off_c, 1, 63, 64
2, 49980, Note_off_c, 1, 58, 64
2, 49980, Note_off_c, 1, 55, 64
2, 50056, Note_off_c, 1, 69, 64
2, 50056, Note_on_c, 1, 70, 52
2, 50156, Note_off_c, 1, 67, 64
2, 50160, Note_on_c, 1, 58, 49
2, 50160, Note_on_c, 1, 63, 46
2, 50160, Control_c, 1, 64, 127
2, 50164, Note_on_c, 1, 55, 36
2, 50168, Note_off_c, 1, 70, 64
2, 50188, Note_off_c, 1, 58, 64
2, 50188, Note_off_c, 1, 63, 64
2, 50196, Note_off_c, 1, 55, 64
2, 50204, Note_off_c, 1, 51, 64
2, 50268, Note_on_c, 1, 63, 65
2, 50272, Control_c, 1, 64, 0
2, 50380, Note_on_c, 1, 65, 70
2, 50388, Note_off_c, 1, 63, 64
2, 50500, Note_on_c, 1, 66, 73
2, 50508, Note_off_c, 1, 65, 64
2, 50612, Note_on_c, 1, 48, 39
2, 50616, Note_on_c, 1, 67, 62
2, 50628, Note_off_c, 1, 66, 64
2, 50664, Note_off_c, 1, 48, 64
2, 50664, Control_c, 1, 64, 127
2, 50724, Control_c, 1, 64, 0
2, 50744, Note_off_c, 1, 67, 64
2, 50832, Note_on_c, 1, 55, 64
2, 50832, Note_on_c, 1, 72, 69
2, 50836, Note_on_c, 1, 63, 44
2, 50840, Note_on_c, 1, 67, 38
2, 50856, Note_off_c, 1, 55, 64
2, 50860, Note_off_c, 1, 63, 64
2, 51044, Note_on_c, 1, 53, 64
2, 51048, Note_off_c, 1, 72, 64
2, 51056, Note_off_c, 1, 67, 64
2, 51164, Note_on_c, 1, 72, 69
2, 51280, Note_on_c, 1, 70, 71
2, 51284, Note_off_c, 1, 72, 64
2, 51284, Note_on_c, 1, 60, 42
2, 51284, Note_on_c, 1, 65, 60
2, 51288, Note_on_c, 1, 56, 40
2, 51320, Note_off_c, 1, 60, 64
2, 51320, Note_off_c, 1, 65, 64
2, 51356, Note_off_c, 1, 56, 64
2, 51360, Note_off_c, 1, 53, 64
2, 51392, Note_on_c, 1, 68, 69
2, 51404, Note_off_c, 1, 70, 64
2, 51472, Note_off_c, 1, 68, 64
2, 51500, Note_on_c, 1, 48, 44
2, 51508, Note_on_c, 1, 68, 60
2, 51520, Control_c, 1, 64, 127
2, 51536, Note_off_c, 1, 48, 64
2, 51604, Note_on_c, 1, 67, 66
2, 51620, Note_off_c, 1, 68, 64
2, 51620, Control_c, 1, 64, 0
2, 51720, Note_off_c, 1, 67, 64
2, 51720, Note_on_c, 1, 66, 60
2, 51724, Note_on_c, 1, 60, 41
2, 51724, Note_on_c, 1, 63, 44
2, 51732, Note_on_c, 1, 55, 37
2, 51764, Note_off_c, 1, 60, 64
2, 51768, Note_off_c, 1, 63, 64
2, 51768, Note_off_c, 1, 55, 64
2, 51832, Note_off_c, 1, 66, 64
2, 51836, Note_on_c, 1, 67, 62
2, 51952, Note_on_c, 1, 63, 37
2, 51952, Note_on_c, 1, 60, 37
2, 51956, Note_on_c, 1, 55, 36
2, 51972, Note_off_c, 1, 67, 64
2, 52056, Note_off_c, 1, 63, 64
2, 52064, Note_on_c, 1, 67, 69
2, 52068, Note_off_c, 1, 60, 64
2, 52072, Note_off_c, 1, 55, 64
2, 52176, Note_on_c, 1, 68, 73
2, 52184, Note_off_c, 1, 67, 64
2, 52284, Note_on_c, 1, 70, 71
2, 52288, Note_off_c, 1, 68, 64
2, 52292, Control_c, 1, 64, 127
2, 52324, Note_off_c, 1, 70, 64
2, 52388, Note_on_c, 1, 53, 54
2, 52400, Note_on_c, 1, 68, 60
2, 52404, Note_on_c, 1, 72, 66
2, 52404, Control_c, 1, 64, 0
2, 52416, Note_off_c, 1, 68, 64
2, 52428, Note_off_c, 1, 72, 64
2, 52548, Note_on_c, 1, 68, 70
2, 52548, Note_on_c, 1, 74, 75
2, 52628, Note_off_c, 1, 68, 64
2, 52628, Note_on_c, 1, 62, 64
2, 52628, Note_on_c, 1, 56, 49
2, 52632, Note_off_c, 1, 74, 64
2, 52632, Note_on_c, 1, 58, 53
2, 52640, Control_c, 1, 64, 127
2, 52712, Note_off_c, 1, 62, 64
2, 52716, Note_off_c, 1, 56, 64
2, 52716, Note_off_c, 1, 58, 64
2, 52732, Note_off_c, 1, 53, 64
2, 52732, Note_on_c, 1, 68, 60
2, 52732, Note_on_c, 1, 72, 67
2, 52760, Control_c, 1, 64, 0
2, 52840, Note_on_c, 1, 46, 73
2, 52844, Control_c, 1, 64, 127
2, 52864, Note_off_c, 1, 46, 64
2, 52956, Note_off_c, 1, 68, 64
2, 52956, Note_on_c, 1, 65, 71
2, 52960, Control_c, 1, 64, 0
2, 53068, Note_on_c, 1, 67, 85
2, 53068, Note_on_c, 1, 62, 64
2, 53068, Note_on_c, 1, 58, 46
2, 53072, Note_off_c, 1, 65, 64
2, 53076, Note_on_c, 1, 56, 41
2, 53176, Note_off_c, 1, 67, 64
2, 53176, Note_on_c, 1, 68, 73
2, 53204, Control_c, 1, 64, 127
2, 53248, Note_off_c, 1, 68, 64
2, 53268, Note_off_c, 1, 72, 64
2, 53276, Note_on_c, 1, 51, 48
2, 53280, Note_off_c, 1, 62, 64
2, 53280, Note_off_c, 1, 58, 64
2, 53280, Note_off_c, 1, 56, 64
2, 53292, Control_c, 1, 64, 0
2, 53296, Note_on_c, 1, 67, 66
2, 53304, Note_on_c, 1, 70, 69
2, 53376, Note_off_c, 1, 67, 64
2, 53376, Note_off_c, 1, 70, 64
2, 53464, Note_on_c, 1, 72, 67
2, 53468, Note_on_c, 1, 67, 68
2, 53520, Note_off_c, 1, 72, 64
2, 53520, Note_off_c, 1, 67, 64
2, 53520, Note_on_c, 1, 63, 57
2, 53520, Note_on_c, 1, 58, 56
2, 53520, Note_on_c, 1, 55, 66
2, 53524, Control_c, 1, 64, 127
2, 53536, Note_off_c, 1, 63, 64
2, 53548, Note_off_c, 1, 58, 64
2, 53556, Note_off_c, 1, 55, 64
2, 53568, Note_off_c, 1, 51, 64
2, 53624, Note_on_c, 1, 70, 70
2, 53624, Note_on_c, 1, 67, 73
2, 53736, Control_c, 1, 64, 0
2, 53740, Note_on_c, 1, 43, 67
2, 53740, Note_on_c, 1, 55, 67
2, 53764, Note_off_c, 1, 70, 64
2, 53804, Note_off_c, 1, 67, 64
2, 53844, Control_c, 1, 64, 127
2, 53852, Note_on_c, 1, 70, 88
2, 53868, Note_off_c, 1, 55, 64
2, 53884, Note_off_c, 1, 43, 64
2, 53956, Note_on_c, 1, 42, 71
2, 53960, Note_off_c, 1, 70, 64
2, 53960, Note_on_c, 1, 54, 64
2, 53960, Note_on_c, 1, 72, 81
2, 53964, Control_c, 1, 64, 0
2, 53984, Control_c, 1, 64, 127
2, 54048, Note_off_c, 1, 72, 64
2, 54056, Control_c, 1, 64, 0
2, 54068, Note_on_c, 1, 73, 83
2, 54080, Control_c, 1, 64, 127
2, 54084, Note_off_c, 1, 54, 64
2, 54092, Note_off_c, 1, 42, 64
2, 54124, Note_off_c, 1, 73, 64
2, 54176, Note_on_c, 1, 41, 71
2, 54184, Note_on_c, 1, 53, 70
2, 54184, Control_c, 1, 64, 0
2, 54196, Note_on_c, 1, 74, 85
2, 54224, Control_c, 1, 64, 127
2, 54236, Note_off_c, 1, 41, 64
2, 54244, Note_off_c, 1, 53, 64
2, 54296, Note_on_c, 1, 65, 78
2, 54396, Control_c, 1, 64, 0
2, 54408, Note_on_c, 1, 53, 69
2, 54408, Note_on_c, 1, 62, 64
2, 54408, Note_on_c, 1, 58, 60
2, 54492, Note_off_c, 1, 62, 64
2, 54504, Note_off_c, 1, 58, 64
2, 54508, Note_off_c, 1, 65, 64
2, 54516, Note_off_c, 1, 53, 64
2, 54520, Note_on_c, 1, 66, 75
2, 54524, Control_c, 1, 64, 127
2, 54552, Note_off_c, 1, 66, 64
2, 54564, Note_off_c, 1, 74, 64
2, 54624, Note_on_c, 1, 67, 77
2, 54624, Note_on_c, 1, 36, 71
2, 54624, Note_on_c, 1, 64, 73
2, 54628, Note_on_c, 1, 48, 67
2, 54636, Control_c, 1, 64, 0
2, 54680, Control_c, 1, 64, 127
2, 54728, Note_off_c, 1, 36, 64
2, 54728, Note_off_c, 1, 48, 64
2, 54732, Note_off_c, 1, 67, 64
2, 54732, Note_off_c, 1, 64, 64
2, 54776, Control_c, 1, 64, 0
2, 54860, Note_on_c, 1, 69, 80
2, 54860, Note_on_c, 1, 41, 65
2, 54860, Note_on_c, 1, 63, 62
2, 54864, Note_on_c, 1, 53, 66
2, 54864, Control_c, 1, 64, 127
2, 54908, Note_off_c, 1, 53, 64
2, 54916, Note_off_c, 1, 41, 64
2, 54972, Note_off_c, 1, 63, 64
2, 54984, Note_off_c, 1, 69, 64
2, 55000, Control_c, 1, 64, 0
2, 55100, Note_on_c, 1, 62, 73
2, 55104, Note_on_c, 1, 70, 78
2, 55104, Note_on_c, 1, 34, 64
2, 55104, Note_on_c, 1, 46, 62
2, 55104, Control_c, 1, 64, 127
2, 55144, Note_off_c, 1, 34, 64
2, 55152, Note_off_c, 1, 46, 64
2, 55252, Control_c, 1, 64, 0
2, 55324, Note_on_c, 1, 56, 68
2, 55332, Note_on_c, 1, 44, 66
2, 55444, Control_c, 1, 64, 127
2, 55476, Note_off_c, 1, 56, 64
2, 55488, Note_off_c, 1, 44, 64
2, 55568, Note_on_c, 1, 43, 63
2, 55568, Control_c, 1, 64, 0
2, 55576, Note_on_c, 1, 55, 65
2, 55656, Control_c, 1, 64, 127
2, 55684, Note_off_c, 1, 43, 64
2, 55688, Note_off_c, 1, 55, 64
2, 55712, Note_off_c, 1, 62, 64
2, 55720, Note_off_c, 1, 70, 64
2, 55792, Control_c, 1, 64, 0
2, 55800, Note_on_c, 1, 53, 56
2, 55800, Note_on_c, 1, 41, 60
2, 55868, Control_c, 1, 64, 127
2, 55900, Note_off_c, 1, 53, 64
2, 55908, Note_off_c, 1, 41, 64
2, 56000, Control_c, 1, 64, 0
2, 56016, Note_on_c, 1, 39, 51
2, 56020, Note_on_c, 1, 70, 64
2, 56020, Note_on_c, 1, 51, 50
2, 56020, Note_on_c, 1, 67, 54
2, 56032, Control_c, 1, 64, 127
2, 56048, Note_off_c, 1, 39, 64
2, 56052, Note_off_c, 1, 51, 64
2, 56136, Note_off_c, 1, 70, 64
2, 56136, Note_off_c, 1, 67, 64
2, 56232, Note_on_c, 1, 58, 34
2, 56240, Note_on_c, 1, 63, 33
2, 56240, Note_on_c, 1, 55, 34
2, 56252, Note_on_c, 1, 75, 67
2, 56256, Note_off_c, 1, 58, 64
2, 56260, Note_off_c, 1, 63, 64
2, 56260, Note_off_c, 1, 55, 64
2, 56260, Note_on_c, 1, 67, 69
2, 56416, Control_c, 1, 64, 0
2, 56460, Note_on_c, 1, 44, 55
2, 56460, Control_c, 1, 64, 127
2, 56472, Note_off_c, 1, 44, 64
2, 56504, Note_off_c, 1, 75, 64
2, 56524, Note_off_c, 1, 67, 64
2, 56568, Note_on_c, 1, 72, 70
2, 56576, Note_on_c, 1, 75, 64
2, 56588, Note_off_c, 1, 75, 64
2, 56592, Note_off_c, 1, 72, 64
2, 56680, Note_on_c, 1, 56, 36
2, 56684, Note_on_c, 1, 70, 65
2, 56688, Note_on_c, 1, 63, 39
2, 56688, Note_on_c, 1, 60, 38
2, 56688, Note_on_c, 1, 74, 77
2, 56704, Note_off_c, 1, 63, 64
2, 56708, Note_off_c, 1, 56, 64
2, 56708, Note_off_c, 1, 60, 64
2, 56716, Note_off_c, 1, 70, 64
2, 56724, Note_off_c, 1, 74, 64
2, 56792, Note_on_c, 1, 72, 68
2, 56796, Note_on_c, 1, 68, 64
2, 56820, Note_off_c, 1, 72, 64
2, 56824, Note_off_c, 1, 68, 64
2, 56912, Note_on_c, 1, 51, 58
2, 56916, Note_on_c, 1, 72, 68
2, 56916, Note_on_c, 1, 67, 70
2, 56916, Control_c, 1, 64, 0
2, 57020, Note_off_c, 1, 72, 64
2, 57020, Note_on_c, 1, 70, 61
2, 57064, Control_c, 1, 64, 127
2, 57124, Note_on_c, 1, 58, 54
2, 57128, Note_on_c, 1, 63, 53
2, 57128, Note_on_c, 1, 69, 71
2, 57128, Control_c, 1, 64, 0
2, 57132, Note_on_c, 1, 55, 49
2, 57136, Note_off_c, 1, 70, 64
2, 57188, Control_c, 1, 64, 127
2, 57192, Control_c, 1, 64, 0
2, 57240, Control_c, 1, 64, 127
2, 57244, Note_off_c, 1, 63, 64
2, 57248, Note_off_c, 1, 69, 64
2, 57248, Note_on_c, 1, 70, 60
2, 57252, Note_off_c, 1, 58, 64
2, 57252, Note_off_c, 1, 55, 64
2, 57352, Control_c, 1, 64, 0
2, 57360, Note_on_c, 1, 58, 51
2, 57364, Note_on_c, 1, 55, 44
2, 57364, Note_on_c, 1, 63, 52
2, 57372, Control_c, 1, 64, 127
2, 57392, Note_off_c, 1, 67, 64
2, 57400, Note_off_c, 1, 70, 64
2, 57404, Note_off_c, 1, 55, 64
2, 57404, Note_off_c, 1, 63, 64
2, 57412, Note_off_c, 1, 58, 64
2, 57468, Control_c, 1, 64, 0
2, 57472, Note_on_c, 1, 63, 62
2, 57492, Note_off_c, 1, 51, 64
2, 57584, Note_on_c, 1, 65, 58
2, 57616, Control_c, 1, 64, 127
2, 57688, Note_on_c, 1, 66, 60
2, 57696, Control_c, 1, 64, 0
2, 57728, Control_c, 1, 64, 127
2, 57732, Note_off_c, 1, 65, 64
2, 57800, Note_off_c, 1, 63, 64
2, 57800, Note_off_c, 1, 66, 64
2, 57800, Note_on_c, 1, 67, 38
2, 57804, Note_on_c, 1, 48, 39
2, 57808, Control_c, 1, 64, 0
2, 57836, Control_c, 1, 64, 127
2, 57852, Note_off_c, 1, 48, 64
2, 57888, Note_off_c, 1, 67, 64
2, 58036, Note_on_c, 1, 55, 36
2, 58040, Note_on_c, 1, 63, 34
2, 58040, Note_on_c, 1, 72, 64
2, 58040, Note_on_c, 1, 67, 45
2, 58044, Note_on_c, 1, 60, 34
2, 58072, Note_off_c, 1, 63, 64
2, 58076, Note_off_c, 1, 60, 64
2, 58080, Note_off_c, 1, 55, 64
2, 58240, Control_c, 1, 64, 0
2, 58244, Note_on_c, 1, 53, 47
2, 58284, Note_off_c, 1, 72, 64
2, 58312, Control_c, 1, 64, 127
2, 58320, Control_c, 1, 64, 0
2, 58348, Note_off_c, 1, 67, 64
2, 58360, Control_c, 1, 64, 127
2, 58364, Note_on_c, 1, 72, 49
2, 58472, Note_on_c, 1, 60, 34
2, 58480, Note_on_c, 1, 56, 32
2, 58480, Note_on_c, 1, 65, 54
2, 58484, Note_on_c, 1, 70, 54
2, 58488, Control_c, 1, 64, 0
2, 58492, Note_off_c, 1, 72, 64
2, 58520, Control_c, 1, 64, 127
2, 58556, Note_off_c, 1, 60, 64
2, 58556, Note_off_c, 1, 65, 64
2, 58572, Note_off_c, 1, 53, 64
2, 58572, Note_off_c, 1, 56, 64
2, 58588, Note_on_c, 1, 68, 54
2, 58612, Note_off_c, 1, 70, 64
2, 58664, Note_off_c, 1, 68, 64
2, 58692, Note_on_c, 1, 48, 41
2, 58696, Control_c, 1, 64, 0
2, 58700, Note_on_c, 1, 68, 56
2, 58716, Control_c, 1, 64, 127
2, 58732, Note_off_c, 1, 48, 64
2, 58816, Note_off_c, 1, 68, 64
2, 58816, Note_on_c, 1, 67, 57
2, 58916, Note_on_c, 1, 66, 56
2, 58920, Note_on_c, 1, 55, 42
2, 58924, Note_off_c, 1, 67, 64
2, 58924, Note_on_c, 1, 63, 41
2, 58924, Note_on_c, 1, 60, 40
2, 58924, Control_c, 1, 64, 0
2, 58948, Control_c, 1, 64, 127
2, 58976, Control_c, 1, 64, 0
2, 59008, Control_c, 1, 64, 127
2, 59032, Note_off_c, 1, 66, 64
2, 59032, Note_on_c, 1, 67, 53
2, 59040, Note_off_c, 1, 55, 64
2, 59040, Note_off_c, 1, 63, 64
2, 59040, Note_off_c, 1, 60, 64
2, 59148, Note_on_c, 1, 55, 58
2, 59148, Note_on_c, 1, 60, 45
2, 59148, Note_on_c, 1, 63, 40
2, 59152, Control_c, 1, 64, 0
2, 59164, Control_c, 1, 64, 127
2, 59180, Note_off_c, 1, 67, 64
2, 59252, Control_c, 1, 64, 0
2, 59260, Note_off_c, 1, 63, 64
2, 59260, Note_on_c, 1, 67, 73
2, 59268, Control_c, 1, 64, 127
2, 59280, Note_off_c, 1, 60, 64
2, 59292, Note_off_c, 1, 55, 64
2, 59352, Control_c, 1, 64, 0
2, 59360, Note_off_c, 1, 67, 64
2, 59368, Note_on_c, 1, 68, 75
2, 59388, Control_c, 1, 64, 127
2, 59436, Control_c, 1, 64, 0
2, 59468, Control_c, 1, 64, 127
2, 59472, Note_off_c, 1, 68, 64
2, 59472, Note_on_c, 1, 70, 73
2, 59496, Note_off_c, 1, 70, 64
2, 59592, Note_on_c, 1, 72, 80
2, 59600, Note_on_c, 1, 56, 60
2, 59600, Note_on_c, 1, 44, 66
2, 59600, Control_c, 1, 64, 0
2, 59712, Note_off_c, 1, 72, 64
2, 59712, Control_c, 1, 64, 127
2, 59720, Control_c, 1, 64, 0
2, 59832, Note_on_c, 1, 63, 67
2, 59836, Note_on_c, 1, 60, 71
2, 59892, Control_c, 1, 64, 127
2, 59944, Note_off_c, 1, 56, 64
2, 59948, Note_off_c, 1, 44, 64
2, 59948, Note_off_c, 1, 60, 64
2, 59948, Note_off_c, 1, 63, 64
2, 60056, Note_on_c, 1, 65, 75
2, 60060, Note_on_c, 1, 44, 66
2, 60060, Note_on_c, 1, 60, 73
2, 60064, Note_on_c, 1, 63, 62
2, 60064, Note_on_c, 1, 56, 60
2, 60068, Control_c, 1, 64, 0
2, 60152, Control_c, 1, 64, 127
2, 60180, Note_off_c, 1, 44, 64
2, 60180, Note_off_c, 1, 56, 64
2, 60184, Note_off_c, 1, 63, 64
2, 60188, Note_off_c, 1, 65, 64
2, 60188, Note_off_c, 1, 60, 64
2, 60284, Note_on_c, 1, 66, 68
2, 60288, Note_on_c, 1, 45, 73
2, 60288, Note_on_c, 1, 63, 67
2, 60288, Note_on_c, 1, 57, 73
2, 60288, Note_on_c, 1, 60, 78
2, 60296, Control_c, 1, 64, 0
2, 60364, Control_c, 1, 64, 127
2, 60392, Note_off_c, 1, 63, 64
2, 60396, Note_off_c, 1, 45, 64
2, 60400, Note_off_c, 1, 66, 64
2, 60400, Note_off_c, 1, 57, 64
2, 60400, Note_off_c, 1, 60, 64
2, 60520, Note_on_c, 1, 58, 60
2, 60520, Note_on_c, 1, 67, 75
2, 60520, Note_on_c, 1, 63, 69
2, 60520, Note_on_c, 1, 46, 68
2, 60528, Control_c, 1, 64, 0
2, 60568, Control_c, 1, 64, 127
2, 60588, Note_off_c, 1, 58, 64
2, 60592, Note_off_c, 1, 67, 64
2, 60592, Note_off_c, 1, 63, 64
2, 60612, Note_off_c, 1, 46, 64
2, 60632, Control_c, 1, 64, 0
2, 60760, Note_on_c, 1, 70, 77
2, 60764, Note_on_c, 1, 64, 80
2, 60764, Note_on_c, 1, 60, 73
2, 60764, Note_on_c, 1, 36, 71
2, 60764, Note_on_c, 1, 48, 68
2, 60768, Control_c, 1, 64, 127
2, 60888, Note_off_c, 1, 48, 64
2, 60912, Note_off_c, 1, 36, 64
2, 61056, Note_off_c, 1, 64, 64
2, 61056, Note_off_c, 1, 60, 64
2, 61064, Note_off_c, 1, 70, 64
2, 61208, Control_c, 1, 64, 0
2, 61216, Note_on_c, 1, 29, 56
2, 61220, Note_on_c, 1, 41, 62
2, 61220, Note_on_c, 1, 68, 59
2, 61220, Note_on_c, 1, 60, 58
2, 61224, Note_on_c, 1, 65, 60
2, 61236, Control_c, 1, 64, 127
2, 61272, Note_off_c, 1, 41, 64
2, 61276, Note_off_c, 1, 29, 64
2, 61288, Note_off_c, 1, 60, 64
2, 61288, Note_off_c, 1, 65, 64
2, 61296, Note_off_c, 1, 68, 64
2, 61456, Note_on_c, 1, 67, 67
2, 61460, Note_on_c, 1, 46, 52
2, 61460, Note_on_c, 1, 34, 38
2, 61460, Control_c, 1, 64, 0
2, 61692, Note_on_c, 1, 63, 48
2, 61696, Note_on_c, 1, 58, 43
2, 61736, Control_c, 1, 64, 127
2, 61772, Note_off_c, 1, 67, 64
2, 61788, Note_off_c, 1, 46, 64
2, 61788, Note_off_c, 1, 63, 64
2, 61788, Note_off_c, 1, 58, 64
2, 61800, Note_off_c, 1, 34, 64
2, 61932, Note_on_c, 1, 65, 70
2, 61932, Note_on_c, 1, 46, 56
2, 61932, Note_on_c, 1, 34, 50
2, 61940, Control_c, 1, 64, 0
2, 62156, Note_on_c, 1, 56, 56
2, 62164, Note_on_c, 1, 58, 53
2, 62164, Note_on_c, 1, 62, 51
2, 62176, Control_c, 1, 64, 127
2, 62188, Note_off_c, 1, 34, 64
2, 62192, Note_off_c, 1, 46, 64
2, 62232, Note_off_c, 1, 56, 64
2, 62248, Note_off_c, 1, 58, 64
2, 62248, Note_off_c, 1, 62, 64
2, 62276, Note_off_c, 1, 65, 64
2, 62372, Control_c, 1, 64, 0
2, 62388, Note_on_c, 1, 58, 59
2, 62388, Note_on_c, 1, 63, 59
2, 62388, Note_on_c, 1, 51, 43
2, 62388, Note_on_c, 1, 55, 40
2, 62392, Note_on_c, 1, 46, 39
2, 62392, Note_on_c, 1, 39, 39
2, 62392, Control_c, 1, 64, 127
2, 62408, Note_off_c, 1, 55, 64
2, 62416, Note_off_c, 1, 39, 64
2, 62420, Note_off_c, 1, 58, 64
2, 62420, Note_off_c, 1, 46, 64
2, 62424, Note_off_c, 1, 51, 64
2, 62428, Note_off_c, 1, 63, 64
2, 62604, Control_c, 1, 64, 0
2, 62616, Note_on_c, 1, 70, 66
2, 62616, Note_on_c, 1, 58, 56
2, 62632, Control_c, 1, 64, 127
2, 62668, Note_off_c, 1, 58, 64
2, 62704, Control_c, 1, 64, 0
2, 62720, Note_on_c, 1, 82, 77
2, 62720, Note_on_c, 1, 58, 56
2, 62724, Note_off_c, 1, 70, 64
2, 62724, Control_c, 1, 64, 127
2, 62748, Note_off_c, 1, 82, 64
2, 62752, Note_off_c, 1, 58, 64
2, 62820, Control_c, 1, 64, 0
2, 62824, Note_on_c, 1, 82, 90
2, 62828, Control_c, 1, 64, 127
2, 62832, Note_on_c, 1, 58, 58
2, 62872, Note_off_c, 1, 82, 64
2, 62872, Note_off_c, 1, 58, 64
2, 62944, Note_on_c, 1, 82, 88
2, 62944, Note_on_c, 1, 58, 59
2, 62968, Note_off_c, 1, 82, 64
2, 62968, Note_off_c, 1, 58, 64
2, 63052, Control_c, 1, 64, 0
2, 63060, Note_on_c, 1, 82, 93
2, 63060, Note_on_c, 1, 58, 56
2, 63068, Control_c, 1, 64, 127
2, 63092, Note_off_c, 1, 58, 64
2, 63120, Note_off_c, 1, 82, 64
2, 63128, Control_c, 1, 64, 0
2, 63268, Note_on_c, 1, 53, 66
2, 63272, Note_on_c, 1, 86, 88
2, 63272, Note_on_c, 1, 80, 68
2, 63280, Note_off_c, 1, 53, 64
2, 63284, Note_off_c, 1, 86, 64
2, 63284, Note_off_c, 1, 80, 64
2, 63492, Note_on_c, 1, 89, 80
2, 63496, Note_on_c, 1, 56, 66
2, 63504, Note_on_c, 1, 58, 68
2, 63504, Note_off_c, 1, 58, 64
2, 63504, Note_on_c, 1, 80, 75
2, 63504, Note_on_c, 1, 62, 71
2, 63508, Note_off_c, 1, 89, 64
2, 63508, Note_off_c, 1, 56, 64
2, 63512, Note_off_c, 1, 80, 64
2, 63512, Note_off_c, 1, 62, 64
2, 63716, Note_on_c, 1, 80, 66
2, 63720, Note_on_c, 1, 84, 88
2, 63724, Note_on_c, 1, 46, 69
2, 63728, Note_off_c, 1, 46, 64
2, 63948, Note_on_c, 1, 56, 66
2, 63948, Note_on_c, 1, 58, 66
2, 63948, Note_on_c, 1, 62, 60
2, 63960, Note_off_c, 1, 56, 64
2, 63960, Note_off_c, 1, 58, 64
2, 63960, Note_off_c, 1, 62, 64
2, 64052, Note_on_c, 1, 83, 78
2, 64056, Note_off_c, 1, 84, 0
2, 64060, Control_c, 1, 64, 127
2, 64072, Note_off_c, 1, 80, 0
2, 64080, Note_off_c, 1, 83, 64
2, 64164, Note_on_c, 1, 53, 78
2, 64164, Control_c, 1, 64, 0
2, 64172, Note_on_c, 1, 84, 78
2, 64172, Note_on_c, 1, 80, 67
2, 64176, Note_off_c, 1, 53, 64
2, 64276, Note_off_c, 1, 80, 64
2, 64280, Note_on_c, 1, 74, 78
2, 64392, Note_off_c, 1, 74, 64
2, 64396, Note_on_c, 1, 56, 60
2, 64396, Note_on_c, 1, 77, 83
2, 64400, Note_on_c, 1, 62, 63
2, 64412, Note_off_c, 1, 62, 64
2, 64416, Note_off_c, 1, 84, 64
2, 64416, Note_off_c, 1, 56, 64
2, 64508, Note_off_c, 1, 77, 64
2, 64512, Note_on_c, 1, 80, 78
2, 64612, Note_off_c, 1, 80, 64
2, 64612, Note_on_c, 1, 46, 66
2, 64612, Note_on_c, 1, 82, 75
2, 64624, Note_off_c, 1, 46, 64
2, 64728, Note_off_c, 1, 82, 0
2, 64728, Note_on_c, 1, 84, 78
2, 64844, Note_on_c, 1, 56, 54
2, 64848, Note_on_c, 1, 62, 60
2, 64848, Note_on_c, 1, 58, 52
2, 64856, Note_off_c, 1, 62, 64
2, 64856, Note_off_c, 1, 58, 64
2, 64860, Note_off_c, 1, 56, 64
2, 64948, Note_on_c, 1, 82, 77
2, 64956, Note_off_c, 1, 84, 64
2, 65052, Note_off_c, 1, 82, 64
2, 65056, Note_on_c, 1, 51, 68
2, 65060, Note_on_c, 1, 84, 83
2, 65064, Note_on_c, 1, 79, 70
2, 65068, Note_off_c, 1, 51, 64
2, 65072, Note_off_c, 1, 84, 64
2, 65072, Note_off_c, 1, 79, 64
2, 65280, Note_on_c, 1, 87, 71
2, 65280, Note_on_c, 1, 63, 57
2, 65280, Note_on_c, 1, 58, 65
2, 65284, Note_on_c, 1, 55, 68
2, 65284, Note_on_c, 1, 79, 77
2, 65292, Note_off_c, 1, 87, 64
2, 65292, Note_off_c, 1, 63, 64
2, 65292, Note_off_c, 1, 58, 64
2, 65292, Note_off_c, 1, 55, 64
2, 65292, Note_off_c, 1, 79, 64
2, 65508, Note_on_c, 1, 46, 68
2, 65512, Note_on_c, 1, 82, 90
2, 65516, Note_off_c, 1, 46, 64
2, 65516, Note_on_c, 1, 79, 75
2, 65732, Note_on_c, 1, 55, 73
2, 65736, Note_on_c, 1, 63, 57
2, 65736, Note_on_c, 1, 58, 61
2, 65744, Note_off_c, 1, 55, 64
2, 65744, Note_off_c, 1, 58, 64
2, 65748, Note_off_c, 1, 63, 64
2, 65840, Note_off_c, 1, 82, 0
2, 65844, Note_on_c, 1, 81, 78
2, 65884, Note_off_c, 1, 79, 0
2, 65884, Control_c, 1, 64, 127
2, 65896, Note_off_c, 1, 81, 64
2, 65940, Control_c, 1, 64, 0
2, 65956, Note_on_c, 1, 51, 43
2, 65956, Note_on_c, 1, 82, 75
2, 65956, Note_on_c, 1, 79, 73
2, 65968, Note_off_c, 1, 51, 64
2, 65972, Note_off_c, 1, 79, 64
2, 65972, Control_c, 1, 64, 127
2, 65976, Note_off_c, 1, 82, 64
2, 66052, Control_c, 1, 64, 0
2, 66060, Note_on_c, 1, 70, 68
2, 66168, Note_off_c, 1, 70, 64
2, 66172, Note_on_c, 1, 75, 75
2, 66176, Note_on_c, 1, 63, 53
2, 66184, Note_off_c, 1, 63, 64
2, 66192, Note_on_c, 1, 55, 34
2, 66204, Note_off_c, 1, 55, 64
2, 66296, Note_on_c, 1, 77, 75
2, 66300, Note_off_c, 1, 75, 64
2, 66396, Note_on_c, 1, 46, 65
2, 66404, Note_off_c, 1, 77, 0
2, 66404, Note_on_c, 1, 79, 80
2, 66416, Note_off_c, 1, 46, 64
2, 66512, Note_on_c, 1, 82, 78
2, 66532, Note_off_c, 1, 79, 64
2, 66624, Note_on_c, 1, 58, 57
2, 66628, Note_on_c, 1, 55, 66
2, 66628, Note_on_c, 1, 63, 56
2, 66628, Note_on_c, 1, 79, 78
2, 66632, Note_off_c, 1, 82, 64
2, 66636, Note_off_c, 1, 58, 64
2, 66640, Note_off_c, 1, 55, 64
2, 66640, Note_off_c, 1, 63, 64
2, 66732, Note_off_c, 1, 79, 64
2, 66736, Note_on_c, 1, 75, 80
2, 66848, Note_off_c, 1, 75, 64
2, 66852, Note_on_c, 1, 53, 54
2, 66852, Note_on_c, 1, 74, 85
2, 66868, Note_off_c, 1, 53, 64
2, 66960, Note_off_c, 1, 74, 64
2, 66964, Note_on_c, 1, 75, 73
2, 67068, Note_off_c, 1, 75, 64
2, 67076, Note_on_c, 1, 56, 53
2, 67076, Note_on_c, 1, 77, 78
2, 67080, Note_on_c, 1, 62, 61
2, 67080, Note_on_c, 1, 58, 39
2, 67084, Note_off_c, 1, 58, 64
2, 67088, Note_off_c, 1, 56, 64
2, 67088, Note_off_c, 1, 62, 64
2, 67180, Note_off_c, 1, 77, 64
2, 67180, Note_on_c, 1, 79, 77
2, 67292, Note_off_c, 1, 79, 0
2, 67292, Note_on_c, 1, 46, 66
2, 67296, Note_on_c, 1, 80, 71
2, 67300, Note_off_c, 1, 46, 64
2, 67408, Note_off_c, 1, 80, 64
2, 67408, Note_on_c, 1, 82, 75
2, 67516, Note_off_c, 1, 82, 64
2, 67516, Note_on_c, 1, 86, 73
2, 67520, Note_on_c, 1, 62, 58
2, 67524, Note_off_c, 1, 86, 64
2, 67524, Note_on_c, 1, 56, 40
2, 67536, Note_off_c, 1, 62, 64
2, 67536, Note_off_c, 1, 56, 64
2, 67628, Note_on_c, 1, 80, 80
2, 67632, Note_on_c, 1, 84, 85
2, 67744, Note_off_c, 1, 80, 64
2, 67748, Note_off_c, 1, 84, 64
2, 67748, Note_on_c, 1, 53, 71
2, 67748, Control_c, 1, 64, 127
2, 67756, Note_off_c, 1, 53, 64
2, 67856, Note_on_c, 1, 70, 66
2, 67876, Note_off_c, 1, 70, 64
2, 67968, Note_on_c, 1, 72, 70
2, 67972, Note_on_c, 1, 56, 48
2, 67972, Note_on_c, 1, 58, 46
2, 67972, Note_on_c, 1, 62, 50
2, 67972, Control_c, 1, 64, 0
2, 67984, Note_off_c, 1, 58, 64
2, 67988, Note_off_c, 1, 56, 64
2, 67988, Note_off_c, 1, 62, 64
2, 68080, Note_off_c, 1, 72, 0
2, 68080, Note_on_c, 1, 74, 73
2, 68188, Note_on_c, 1, 46, 61
2, 68196, Control_c, 1, 64, 127
2, 68204, Note_off_c, 1, 46, 64
2, 68292, Control_c, 1, 64, 0
2, 68300, Note_on_c, 1, 80, 80
2, 68304, Note_off_c, 1, 74, 64
2, 68416, Note_on_c, 1, 62, 50
2, 68416, Note_on_c, 1, 56, 37
2, 68416, Note_on_c, 1, 58, 39
2, 68420, Note_off_c, 1, 80, 64
2, 68420, Note_on_c, 1, 79, 85
2, 68424, Note_off_c, 1, 58, 64
2, 68428, Note_off_c, 1, 56, 64
2, 68432, Note_off_c, 1, 62, 64
2, 68528, Note_on_c, 1, 77, 86
2, 68536, Note_off_c, 1, 79, 64
2, 68640, Note_on_c, 1, 51, 50
2, 68640, Note_on_c, 1, 75, 82
2, 68652, Note_off_c, 1, 77, 64
2, 68688, Note_off_c, 1, 51, 64
2, 68752, Note_off_c, 1, 75, 64
2, 68752, Note_on_c, 1, 76, 84
2, 68864, Note_off_c, 1, 76, 64
2, 68864, Note_on_c, 1, 63, 48
2, 68864, Note_on_c, 1, 55, 61
2, 68864, Note_on_c, 1, 77, 86
2, 68876, Note_off_c, 1, 55, 0
2, 68880, Note_off_c, 1, 63, 0
2, 68972, Note_off_c, 1, 77, 0
2, 68972, Note_on_c, 1, 78, 83
2, 69080, Note_on_c, 1, 46, 65
2, 69084, Note_off_c, 1, 78, 64
2, 69088, Note_on_c, 1, 79, 83
2, 69092, Note_off_c, 1, 46, 64
2, 69196, Note_off_c, 1, 79, 64
2, 69196, Note_on_c, 1, 82, 70
2, 69304, Note_on_c, 1, 84, 82
2, 69308, Note_off_c, 1, 82, 64
2, 69308, Note_on_c, 1, 55, 56
2, 69308, Note_on_c, 1, 58, 44
2, 69316, Note_on_c, 1, 63, 52
2, 69320, Note_off_c, 1, 84, 64
2, 69324, Note_off_c, 1, 55, 64
2, 69324, Note_off_c, 1, 58, 64
2, 69324, Note_off_c, 1, 63, 64
2, 69428, Note_on_c, 1, 82, 88
2, 69428, Note_on_c, 1, 79, 76
2, 69536, Note_off_c, 1, 79, 64
2, 69544, Note_on_c, 1, 51, 69
2, 69544, Control_c, 1, 64, 127
2, 69548, Note_off_c, 1, 82, 64
2, 69648, Note_on_c, 1, 70, 75
2, 69744, Control_c, 1, 64, 0
2, 69748, Note_off_c, 1, 70, 0
2, 69752, Note_on_c, 1, 75, 80
2, 69752, Note_on_c, 1, 63, 60
2, 69752, Note_on_c, 1, 55, 64
2, 69756, Note_on_c, 1, 58, 62
2, 69756, Control_c, 1, 64, 127
2, 69788, Note_off_c, 1, 75, 64
2, 69836, Note_off_c, 1, 51, 0
2, 69852, Note_off_c, 1, 63, 64
2, 69860, Note_off_c, 1, 58, 64
2, 69860, Note_on_c, 1, 79, 80
2, 69864, Note_off_c, 1, 55, 64
2, 69972, Note_on_c, 1, 52, 78
2, 69976, Control_c, 1, 64, 0
2, 69984, Note_off_c, 1, 79, 64
2, 70076, Control_c, 1, 64, 127
2, 70080, Note_on_c, 1, 79, 93
2, 70096, Note_off_c, 1, 79, 64
2, 70200, Note_on_c, 1, 82, 83
2, 70204, Note_on_c, 1, 55, 68
2, 70204, Note_on_c, 1, 61, 65
2, 70204, Note_on_c, 1, 58, 65
2, 70204, Control_c, 1, 64, 0
2, 70224, Control_c, 1, 64, 127
2, 70260, Note_off_c, 1, 61, 64
2, 70260, Note_off_c, 1, 58, 64
2, 70264, Note_off_c, 1, 52, 64
2, 70264, Note_off_c, 1, 55, 64
2, 70292, Note_off_c, 1, 82, 64
2, 70356, Control_c, 1, 64, 0
2, 70424, Note_on_c, 1, 53, 67
2, 70428, Note_on_c, 1, 80, 62
2, 70428, Note_on_c, 1, 86, 78
2, 70436, Control_c, 1, 64, 127
2, 70440, Note_off_c, 1, 80, 64
2, 70440, Note_off_c, 1, 86, 64
2, 70448, Control_c, 1, 64, 0
2, 70456, Note_off_c, 1, 53, 64
2, 70648, Note_on_c, 1, 89, 78
2, 70652, Note_on_c, 1, 80, 66
2, 70652, Note_on_c, 1, 56, 53
2, 70652, Note_on_c, 1, 62, 50
2, 70656, Note_off_c, 1, 89, 64
2, 70656, Note_off_c, 1, 80, 64
2, 70656, Note_on_c, 1, 58, 39
2, 70656, Control_c, 1, 64, 127
2, 70660, Note_off_c, 1, 56, 64
2, 70660, Note_off_c, 1, 58, 64
2, 70668, Note_off_c, 1, 62, 64
2, 70752, Control_c, 1, 64, 0
2, 70868, Note_on_c, 1, 46, 65
2, 70872, Control_c, 1, 64, 127
2, 70876, Note_on_c, 1, 80, 65
2, 70880, Note_on_c, 1, 84, 70
2, 70884, Note_off_c, 1, 46, 64
2, 71000, Control_c, 1, 64, 0
2, 71104, Note_on_c, 1, 56, 60
2, 71104, Note_on_c, 1, 62, 66
2, 71104, Note_on_c, 1, 58, 58
2, 71212, Note_off_c, 1, 84, 64
2, 71212, Note_on_c, 1, 83, 77
2, 71212, Control_c, 1, 64, 127
2, 71224, Note_off_c, 1, 80, 64
2, 71232, Note_off_c, 1, 83, 64
2, 71304, Note_on_c, 1, 53, 67
2, 71312, Note_off_c, 1, 56, 64
2, 71316, Note_off_c, 1, 62, 64
2, 71316, Note_off_c, 1, 58, 64
2, 71316, Control_c, 1, 64, 0
2, 71320, Note_on_c, 1, 84, 78
2, 71320, Note_on_c, 1, 80, 60
2, 71424, Note_off_c, 1, 80, 0
2, 71428, Note_off_c, 1, 53, 0
2, 71428, Note_on_c, 1, 74, 78
2, 71548, Note_on_c, 1, 77, 69
2, 71556, Note_on_c, 1, 62, 57
2, 71556, Note_on_c, 1, 56, 52
2, 71556, Note_on_c, 1, 58, 43
2, 71556, Control_c, 1, 64, 127
2, 71572, Note_off_c, 1, 62, 64
2, 71572, Note_off_c, 1, 58, 64
2, 71576, Note_off_c, 1, 56, 64
2, 71656, Note_off_c, 1, 77, 64
2, 71656, Note_on_c, 1, 80, 62
2, 71676, Note_off_c, 1, 84, 0
2, 71748, Control_c, 1, 64, 0
2, 71756, Note_on_c, 1, 46, 53
2, 71772, Note_on_c, 1, 82, 66
2, 71776, Control_c, 1, 64, 127
2, 71780, Note_off_c, 1, 80, 64
2, 71804, Note_off_c, 1, 46, 64
2, 71876, Note_off_c, 1, 82, 64
2, 71880, Note_on_c, 1, 84, 59
2, 71896, Note_off_c, 1, 74, 64
2, 71988, Control_c, 1, 64, 0
2, 71996, Note_on_c, 1, 62, 41
2, 72000, Note_on_c, 1, 56, 38
2, 72000, Note_on_c, 1, 58, 36
2, 72104, Note_on_c, 1, 82, 69
2, 72112, Note_off_c, 1, 84, 64
2, 72112, Control_c, 1, 64, 127
2, 72116, Note_off_c, 1, 82, 64
2, 72204, Note_off_c, 1, 56, 0
2, 72208, Note_off_c, 1, 58, 0
2, 72208, Note_on_c, 1, 51, 39
2, 72208, Control_c, 1, 64, 0
2, 72220, Note_off_c, 1, 62, 0
2, 72224, Note_on_c, 1, 84, 65
2, 72224, Note_on_c, 1, 79, 62
2, 72260, Note_off_c, 1, 84, 64
2, 72260, Note_off_c, 1, 79, 64
2, 72440, Note_on_c, 1, 63, 39
2, 72440, Note_on_c, 1, 58, 37
2, 72440, Note_on_c, 1, 55, 36
2, 72440, Note_on_c, 1, 87, 62
2, 72444, Note_on_c, 1, 79, 64
2, 72448, Control_c, 1, 64, 127
2, 72472, Note_off_c, 1, 63, 64
2, 72472, Note_off_c, 1, 58, 64
2, 72476, Note_off_c, 1, 55, 64
2, 72496, Note_off_c, 1, 51, 64
2, 72532, Note_off_c, 1, 87, 64
2, 72536, Note_off_c, 1, 79, 64
2, 72636, Control_c, 1, 64, 0
2, 72648, Note_on_c, 1, 46, 46
2, 72664, Control_c, 1, 64, 127
2, 72668, Note_on_c, 1, 82, 66
2, 72668, Note_on_c, 1, 79, 64
2, 72676, Note_off_c, 1, 46, 64
2, 72800, Note_off_c, 1, 82, 64
2, 72820, Note_off_c, 1, 79, 64
2, 72888, Note_on_c, 1, 58, 37
2, 72892, Note_on_c, 1, 55, 40
2, 72896, Note_on_c, 1, 63, 32
2, 72904, Note_off_c, 1, 63, 64
2, 72920, Note_off_c, 1, 58, 64
2, 72920, Note_off_c, 1, 55, 64
2, 72992, Note_on_c, 1, 81, 73
2, 73012, Note_off_c, 1, 81, 64
2, 73100, Note_on_c, 1, 51, 33
2, 73104, Control_c, 1, 64, 0
2, 73112, Note_on_c, 1, 82, 53
2, 73112, Note_on_c, 1, 79, 62
2, 73128, Control_c, 1, 64, 127
2, 73140, Note_off_c, 1, 79, 64
2, 73144, Note_off_c, 1, 82, 64
2, 73212, Note_on_c, 1, 70, 56
2, 73240, Note_off_c, 1, 70, 64
2, 73324, Note_on_c, 1, 63, 37
2, 73328, Note_on_c, 1, 55, 34
2, 73328, Note_on_c, 1, 58, 36
2, 73328, Note_on_c, 1, 75, 60
2, 73356, Note_off_c, 1, 51, 64
2, 73364, Note_off_c, 1, 55, 64
2, 73364, Note_off_c, 1, 58, 64
2, 73376, Note_off_c, 1, 63, 64
2, 73380, Note_off_c, 1, 75, 64
2, 73440, Note_on_c, 1, 79, 65
2, 73552, Note_on_c, 1, 55, 40
2, 73564, Note_on_c, 1, 82, 64
2, 73564, Control_c, 1, 64, 0
2, 73568, Note_off_c, 1, 79, 64
2, 73600, Control_c, 1, 64, 127
2, 73636, Note_off_c, 1, 82, 64
2, 73664, Control_c, 1, 64, 0
2, 73776, Note_on_c, 1, 61, 39
2, 73780, Note_on_c, 1, 63, 43
2, 73780, Control_c, 1, 64, 127
2, 73784, Note_on_c, 1, 82, 83
2, 73800, Note_off_c, 1, 82, 64
2, 73824, Note_off_c, 1, 61, 64
2, 73824, Note_off_c, 1, 63, 64
2, 73828, Note_off_c, 1, 55, 64
2, 73996, Note_on_c, 1, 56, 49
2, 73996, Note_on_c, 1, 60, 43
2, 73996, Note_on_c, 1, 63, 39
2, 74000, Note_on_c, 1, 84, 70
2, 74000, Control_c, 1, 64, 0
2, 74028, Control_c, 1, 64, 127
2, 74116, Note_off_c, 1, 84, 64
2, 74152, Control_c, 1, 64, 0
2, 74228, Note_on_c, 1, 75, 67
2, 74232, Note_on_c, 1, 72, 66
2, 74232, Control_c, 1, 64, 127
2, 74240, Note_off_c, 1, 63, 64
2, 74248, Note_off_c, 1, 60, 64
2, 74256, Note_off_c, 1, 56, 64
2, 74348, Note_off_c, 1, 75, 64
2, 74348, Note_off_c, 1, 72, 64
2, 74448, Note_on_c, 1, 44, 60
2, 74448, Note_on_c, 1, 77, 75
2, 74448, Note_on_c, 1, 72, 71
2, 74448, Note_on_c, 1, 75, 66
2, 74448, Control_c, 1, 64, 0
2, 74452, Note_on_c, 1, 56, 51
2, 74484, Control_c, 1, 64, 127
2, 74528, Note_off_c, 1, 75, 64
2, 74536, Note_off_c, 1, 72, 64
2, 74540, Note_off_c, 1, 44, 64
2, 74544, Note_off_c, 1, 77, 64
2, 74544, Note_off_c, 1, 56, 64
2, 74672, Control_c, 1, 64, 0
2, 74676, Note_on_c, 1, 78, 77
2, 74680, Note_on_c, 1, 45, 60
2, 74680, Note_on_c, 1, 72, 77
2, 74684, Note_on_c, 1, 75, 61
2, 74684, Note_on_c, 1, 57, 54
2, 74708, Control_c, 1, 64, 127
2, 74744, Note_off_c, 1, 75, 64
2, 74748, Note_off_c, 1, 57, 64
2, 74752, Note_off_c, 1, 72, 64
2, 74756, Note_off_c, 1, 78, 64
2, 74756, Note_off_c, 1, 45, 64
2, 74896, Note_on_c, 1, 79, 66
2, 74900, Note_on_c, 1, 46, 54
2, 74900, Note_on_c, 1, 75, 54
2, 74900, Control_c, 1, 64, 0
2, 74904, Note_on_c, 1, 58, 40
2, 74904, Note_on_c, 1, 70, 44
2, 74932, Note_off_c, 1, 58, 64
2, 74944, Note_off_c, 1, 75, 64
2, 74944, Note_off_c, 1, 70, 64
2, 74952, Note_off_c, 1, 79, 64
2, 74952, Note_off_c, 1, 46, 64
2, 75120, Note_on_c, 1, 76, 65
2, 75128, Note_on_c, 1, 82, 71
2, 75128, Note_on_c, 1, 72, 60
2, 75128, Note_on_c, 1, 48, 45
2, 75132, Note_on_c, 1, 36, 44
2, 75132, Control_c, 1, 64, 127
2, 75164, Note_off_c, 1, 48, 64
2, 75172, Note_off_c, 1, 36, 64
2, 75444, Note_off_c, 1, 76, 64
2, 75444, Note_off_c, 1, 82, 64
2, 75448, Note_off_c, 1, 72, 64
2, 75512, Control_c, 1, 64, 0
2, 75568, Note_on_c, 1, 41, 54
2, 75568, Note_on_c, 1, 29, 45
2, 75568, Note_on_c, 1, 72, 58
2, 75568, Note_on_c, 1, 80, 64
2, 75568, Note_on_c, 1, 77, 60
2, 75572, Control_c, 1, 64, 127
2, 75592, Note_off_c, 1, 41, 64
2, 75596, Note_off_c, 1, 29, 64
2, 75604, Note_off_c, 1, 72, 64
2, 75612, Note_off_c, 1, 80, 64
2, 75612, Note_off_c, 1, 77, 64
2, 75800, Note_on_c, 1, 79, 70
2, 75800, Note_on_c, 1, 34, 42
2, 75804, Note_on_c, 1, 46, 46
2, 75808, Control_c, 1, 64, 0
2, 76012, Note_on_c, 1, 75, 54
2, 76016, Note_on_c, 1, 70, 53
2, 76064, Note_off_c, 1, 75, 64
2, 76072, Note_off_c, 1, 79, 64
2, 76072, Note_off_c, 1, 70, 64
2, 76104, Control_c, 1, 64, 127
2, 76140, Note_off_c, 1, 46, 64
2, 76144, Note_off_c, 1, 34, 64
2, 76240, Note_on_c, 1, 77, 70
2, 76240, Note_on_c, 1, 34, 47
2, 76248, Note_on_c, 1, 46, 43
2, 76252, Control_c, 1, 64, 0
2, 76464, Note_on_c, 1, 68, 43
2, 76464, Note_on_c, 1, 74, 41
2, 76468, Note_on_c, 1, 70, 41
2, 76472, Control_c, 1, 64, 127
2, 76492, Note_off_c, 1, 46, 0
2, 76496, Note_off_c, 1, 34, 0
2, 76524, Note_off_c, 1, 68, 64
2, 76524, Note_off_c, 1, 74, 64
2, 76528, Note_off_c, 1, 70, 64
2, 76556, Note_off_c, 1, 77, 0
2, 76684, Note_on_c, 1, 75, 44
2, 76688, Note_on_c, 1, 70, 39
2, 76692, Note_on_c, 1, 67, 39
2, 76700, Note_on_c, 1, 51, 35
2, 76700, Note_on_c, 1, 39, 32
2, 76700, Control_c, 1, 64, 0
2, 76716, Control_c, 1, 64, 127
2, 76740, Note_off_c, 1, 39, 64
2, 76744, Note_off_c, 1, 70, 64
2, 76744, Note_off_c, 1, 67, 64
2, 76748, Note_off_c, 1, 51, 64
2, 76768, Note_off_c, 1, 75, 64
2, 76896, Control_c, 1, 64, 0
2, 76916, Note_on_c, 1, 82, 73
2, 76920, Note_on_c, 1, 58, 53
2, 76924, Control_c, 1, 64, 127
2, 76952, Note_off_c, 1, 58, 64
2, 76964, Note_off_c, 1, 82, 64
2, 77016, Control_c, 1, 64, 0
2, 77020, Note_on_c, 1, 82, 85
2, 77024, Note_on_c, 1, 58, 53
2, 77024, Control_c, 1, 64, 127
2, 77052, Note_off_c, 1, 58, 64
2, 77056, Note_off_c, 1, 82, 64
2, 77124, Control_c, 1, 64, 0
2, 77132, Note_on_c, 1, 82, 100
2, 77132, Note_on_c, 1, 58, 66
2, 77160, Note_off_c, 1, 58, 64
2, 77164, Note_off_c, 1, 82, 64
2, 77236, Note_on_c, 1, 82, 83
2, 77244, Note_on_c, 1, 58, 56
2, 77252, Note_off_c, 1, 82, 64
2, 77256, Note_off_c, 1, 58, 64
2, 77372, Note_on_c, 1, 82, 96
2, 77372, Note_on_c, 1, 58, 63
2, 77372, Control_c, 1, 64, 127
2, 77380, Note_off_c, 1, 58, 64
2, 77488, Note_off_c, 1, 82, 64
2, 77596, Note_on_c, 1, 53, 66
2, 77600, Note_on_c, 1, 86, 85
2, 77608, Note_on_c, 1, 80, 64
2, 77608, Control_c, 1, 64, 0
2, 77612, Note_off_c, 1, 53, 64
2, 77620, Note_off_c, 1, 86, 64
2, 77620, Note_off_c, 1, 80, 64
2, 77824, Note_on_c, 1, 56, 60
2, 77828, Note_on_c, 1, 89, 78
2, 77828, Note_on_c, 1, 58, 61
2, 77828, Note_on_c, 1, 62, 62
2, 77828, Note_on_c, 1, 80, 65
2, 77832, Note_off_c, 1, 58, 64
2, 77836, Note_off_c, 1, 56, 64
2, 77836, Note_off_c, 1, 62, 64
2, 77836, Note_off_c, 1, 80, 64
2, 77840, Note_off_c, 1, 89, 64
2, 78044, Note_on_c, 1, 46, 64
2, 78044, Note_on_c, 1, 80, 68
2, 78048, Note_on_c, 1, 84, 83
2, 78056, Note_off_c, 1, 46, 64
2, 78268, Note_on_c, 1, 58, 64
2, 78268, Note_on_c, 1, 56, 59
2, 78268, Note_on_c, 1, 62, 62
2, 78376, Note_on_c, 1, 83, 78
2, 78380, Note_off_c, 1, 84, 64
2, 78380, Control_c, 1, 64, 127
2, 78388, Note_off_c, 1, 80, 64
2, 78400, Note_off_c, 1, 83, 64
2, 78480, Note_on_c, 1, 53, 36
2, 78480, Control_c, 1, 64, 0
2, 78492, Note_on_c, 1, 84, 80
2, 78492, Note_on_c, 1, 80, 67
2, 78496, Note_off_c, 1, 56, 64
2, 78496, Note_off_c, 1, 58, 64
2, 78500, Note_off_c, 1, 62, 64
2, 78540, Note_off_c, 1, 53, 64
2, 78596, Note_off_c, 1, 80, 64
2, 78600, Note_on_c, 1, 74, 78
2, 78716, Note_on_c, 1, 77, 73
2, 78720, Note_on_c, 1, 56, 39
2, 78720, Note_on_c, 1, 58, 42
2, 78720, Note_on_c, 1, 62, 59
2, 78732, Note_off_c, 1, 56, 64
2, 78736, Note_off_c, 1, 58, 64
2, 78736, Note_off_c, 1, 62, 64
2, 78828, Note_off_c, 1, 77, 64
2, 78832, Note_on_c, 1, 80, 69
2, 78836, Note_off_c, 1, 84, 64
2, 78932, Note_on_c, 1, 46, 64
2, 78940, Note_on_c, 1, 82, 75
2, 78944, Note_off_c, 1, 80, 0
2, 78944, Note_off_c, 1, 46, 64
2, 79048, Note_on_c, 1, 84, 77
2, 79060, Note_off_c, 1, 82, 64
2, 79064, Note_off_c, 1, 74, 0
2, 79168, Note_on_c, 1, 56, 46
2, 79172, Note_on_c, 1, 62, 57
2, 79172, Note_on_c, 1, 58, 50
2, 79176, Note_off_c, 1, 58, 64
2, 79184, Note_off_c, 1, 56, 64
2, 79188, Note_off_c, 1, 62, 64
2, 79276, Note_on_c, 1, 82, 75
2, 79280, Note_off_c, 1, 84, 64
2, 79288, Control_c, 1, 64, 127
2, 79320, Note_off_c, 1, 82, 64
2, 79384, Note_on_c, 1, 51, 53
2, 79384, Note_on_c, 1, 84, 77
2, 79388, Note_on_c, 1, 79, 70
2, 79388, Control_c, 1, 64, 0
2, 79400, Note_off_c, 1, 84, 64
2, 79400, Note_off_c, 1, 79, 64
2, 79408, Note_off_c, 1, 51, 64
2, 79612, Note_on_c, 1, 87, 66
2, 79612, Note_on_c, 1, 55, 66
2, 79612, Note_on_c, 1, 79, 70
2, 79616, Note_on_c, 1, 58, 55
2, 79620, Note_on_c, 1, 63, 45
2, 79624, Note_off_c, 1, 87, 64
2, 79624, Note_off_c, 1, 79, 64
2, 79628, Note_off_c, 1, 58, 64
2, 79628, Note_off_c, 1, 63, 64
2, 79636, Note_off_c, 1, 55, 64
2, 79824, Note_on_c, 1, 46, 67
2, 79828, Note_on_c, 1, 82, 71
2, 79832, Note_on_c, 1, 79, 77
2, 79836, Note_off_c, 1, 46, 64
2, 80060, Note_on_c, 1, 63, 53
2, 80068, Note_on_c, 1, 58, 38
2, 80072, Note_off_c, 1, 63, 64
2, 80076, Note_off_c, 1, 58, 64
2, 80164, Note_on_c, 1, 81, 80
2, 80172, Note_off_c, 1, 82, 64
2, 80172, Control_c, 1, 64, 127
2, 80184, Note_off_c, 1, 79, 64
2, 80184, Note_off_c, 1, 81, 64
2, 80264, Note_on_c, 1, 51, 46
2, 80264, Control_c, 1, 64, 0
2, 80280, Note_on_c, 1, 82, 70
2, 80284, Note_on_c, 1, 79, 78
2, 80288, Control_c, 1, 64, 127
2, 80296, Note_off_c, 1, 79, 64
2, 80304, Note_off_c, 1, 82, 64
2, 80384, Note_on_c, 1, 70, 69
2, 80392, Control_c, 1, 64, 0
2, 80408, Control_c, 1, 64, 127
2, 80424, Note_off_c, 1, 70, 64
2, 80496, Control_c, 1, 64, 0
2, 80504, Note_on_c, 1, 55, 37
2, 80508, Note_on_c, 1, 63, 39
2, 80508, Note_on_c, 1, 58, 36
2, 80508, Note_on_c, 1, 75, 73
2, 80520, Control_c, 1, 64, 127
2, 80536, Note_off_c, 1, 63, 0
2, 80544, Note_off_c, 1, 58, 64
2, 80552, Note_off_c, 1, 55, 0
2, 80556, Note_off_c, 1, 75, 64
2, 80576, Note_off_c, 1, 51, 0
2, 80612, Note_on_c, 1, 77, 77
2, 80700, Control_c, 1, 64, 0
2, 80716, Note_on_c, 1, 46, 55
2, 80732, Note_on_c, 1, 79, 81
2, 80740, Note_off_c, 1, 77, 64
2, 80740, Control_c, 1, 64, 127
2, 80756, Note_off_c, 1, 46, 64
2, 80840, Note_off_c, 1, 79, 64
2, 80848, Note_on_c, 1, 82, 84
2, 80948, Note_on_c, 1, 55, 59
2, 80952, Note_on_c, 1, 63, 55
2, 80952, Note_on_c, 1, 58, 53
2, 80952, Control_c, 1, 64, 0
2, 80956, Note_off_c, 1, 82, 64
2, 80956, Note_on_c, 1, 79, 86
2, 80972, Control_c, 1, 64, 127
2, 80988, Note_off_c, 1, 63, 64
2, 81004, Note_off_c, 1, 55, 64
2, 81004, Note_off_c, 1, 58, 64
2, 81064, Note_off_c, 1, 79, 64
2, 81068, Note_on_c, 1, 75, 85
2, 81172, Note_off_c, 1, 75, 64
2, 81172, Control_c, 1, 64, 0
2, 81180, Note_on_c, 1, 53, 40
2, 81184, Note_on_c, 1, 74, 68
2, 81192, Note_off_c, 1, 53, 64
2, 81288, Note_off_c, 1, 74, 64
2, 81300, Note_on_c, 1, 75, 69
2, 81400, Note_off_c, 1, 75, 0
2, 81404, Note_on_c, 1, 56, 39
2, 81404, Note_on_c, 1, 77, 78
2, 81408, Note_on_c, 1, 62, 53
2, 81408, Note_on_c, 1, 58, 37
2, 81412, Note_off_c, 1, 58, 64
2, 81424, Note_off_c, 1, 56, 64
2, 81424, Note_off_c, 1, 62, 64
2, 81504, Note_off_c, 1, 77, 64
2, 81512, Note_on_c, 1, 79, 80
2, 81616, Note_on_c, 1, 46, 60
2, 81620, Note_off_c, 1, 79, 64
2, 81620, Note_on_c, 1, 80, 78
2, 81620, Control_c, 1, 64, 127
2, 81648, Note_off_c, 1, 46, 64
2, 81724, Note_on_c, 1, 82, 80
2, 81736, Note_off_c, 1, 80, 64
2, 81828, Note_on_c, 1, 62, 54
2, 81832, Note_on_c, 1, 56, 55
2, 81832, Note_on_c, 1, 58, 54
2, 81832, Note_on_c, 1, 86, 78
2, 81836, Note_off_c, 1, 82, 64
2, 81848, Note_off_c, 1, 86, 64
2, 81920, Control_c, 1, 64, 0
2, 81960, Note_on_c, 1, 84, 83
2, 81960, Note_on_c, 1, 80, 88
2, 81968, Control_c, 1, 64, 127
2, 81976, Note_off_c, 1, 62, 64
2, 81980, Note_off_c, 1, 56, 64
2, 81980, Note_off_c, 1, 58, 64
2, 81988, Note_off_c, 1, 80, 64
2, 81996, Note_off_c, 1, 84, 64
2, 82068, Note_on_c, 1, 53, 83
2, 82088, Control_c, 1, 64, 0
2, 82096, Control_c, 1, 64, 127
2, 82164, Control_c, 1, 64, 0
2, 82184, Note_on_c, 1, 70, 77
2, 82184, Control_c, 1, 64, 127
2, 82196, Note_off_c, 1, 70, 64
2, 82288, Note_on_c, 1, 56, 59
2, 82288, Note_on_c, 1, 62, 62
2, 82288, Control_c, 1, 64, 0
2, 82292, Note_on_c, 1, 58, 41
2, 82308, Note_on_c, 1, 72, 82
2, 82324, Control_c, 1, 64, 127
2, 82332, Note_off_c, 1, 62, 64
2, 82340, Note_off_c, 1, 58, 64
2, 82348, Note_off_c, 1, 56, 64
2, 82352, Note_off_c, 1, 53, 0
2, 82400, Note_off_c, 1, 72, 64
2, 82404, Note_on_c, 1, 74, 90
2, 82500, Control_c, 1, 64, 0
2, 82516, Note_on_c, 1, 46, 66
2, 82548, Note_off_c, 1, 74, 64
2, 82548, Control_c, 1, 64, 127
2, 82572, Note_off_c, 1, 46, 64
2, 82632, Note_on_c, 1, 80, 77
2, 82652, Note_off_c, 1, 80, 64
2, 82736, Note_on_c, 1, 56, 46
2, 82740, Note_on_c, 1, 62, 57
2, 82740, Control_c, 1, 64, 0
2, 82744, Note_on_c, 1, 58, 37
2, 82744, Note_on_c, 1, 79, 83
2, 82768, Control_c, 1, 64, 127
2, 82816, Note_off_c, 1, 79, 64
2, 82848, Control_c, 1, 64, 0
2, 82856, Note_on_c, 1, 77, 77
2, 82860, Control_c, 1, 64, 127
2, 82864, Note_off_c, 1, 56, 64
2, 82868, Note_off_c, 1, 58, 64
2, 82876, Note_off_c, 1, 62, 64
2, 82924, Note_off_c, 1, 77, 64
2, 82968, Note_on_c, 1, 51, 46
2, 82968, Control_c, 1, 64, 0
2, 82976, Note_on_c, 1, 75, 77
2, 83080, Note_off_c, 1, 75, 0
2, 83088, Note_on_c, 1, 76, 65
2, 83100, Control_c, 1, 64, 127
2, 83192, Note_on_c, 1, 55, 47
2, 83196, Note_off_c, 1, 76, 64
2, 83196, Note_on_c, 1, 63, 43
2, 83196, Note_on_c, 1, 77, 78
2, 83196, Note_on_c, 1, 58, 43
2, 83196, Control_c, 1, 64, 0
2, 83292, Control_c, 1, 64, 127
2, 83300, Note_off_c, 1, 63, 64
2, 83304, Note_off_c, 1, 77, 64
2, 83304, Note_off_c, 1, 58, 64
2, 83308, Note_off_c, 1, 55, 64
2, 83308, Note_on_c, 1, 78, 80
2, 83316, Note_off_c, 1, 51, 0
2, 83400, Control_c, 1, 64, 0
2, 83412, Note_off_c, 1, 78, 64
2, 83412, Note_on_c, 1, 46, 77
2, 83412, Note_on_c, 1, 79, 78
2, 83428, Control_c, 1, 64, 127
2, 83456, Note_off_c, 1, 46, 64
2, 83528, Note_on_c, 1, 82, 85
2, 83636, Note_on_c, 1, 84, 78
2, 83644, Note_on_c, 1, 58, 57
2, 83644, Note_on_c, 1, 55, 62
2, 83648, Note_off_c, 1, 79, 64
2, 83648, Note_off_c, 1, 82, 64
2, 83648, Note_on_c, 1, 63, 45
2, 83652, Note_off_c, 1, 84, 64
2, 83676, Note_off_c, 1, 63, 64
2, 83680, Note_off_c, 1, 55, 64
2, 83684, Note_off_c, 1, 58, 64
2, 83756, Note_on_c, 1, 82, 93
2, 83756, Note_on_c, 1, 79, 75
2, 83768, Control_c, 1, 64, 0
2, 83860, Note_off_c, 1, 82, 0
2, 83860, Note_off_c, 1, 79, 0
2, 83860, Note_on_c, 1, 51, 78
2, 83864, Control_c, 1, 64, 127
2, 83984, Note_on_c, 1, 70, 77
2, 84092, Note_off_c, 1, 70, 64
2, 84096, Note_on_c, 1, 75, 77
2, 84100, Note_on_c, 1, 63, 60
2, 84100, Note_on_c, 1, 55, 73
2, 84100, Note_on_c, 1, 58, 61
2, 84156, Note_off_c, 1, 75, 64
2, 84188, Note_off_c, 1, 51, 64
2, 84196, Note_off_c, 1, 63, 64
2, 84200, Note_off_c, 1, 58, 64
2, 84208, Note_off_c, 1, 55, 64
2, 84208, Note_on_c, 1, 79, 78
2, 84328, Note_on_c, 1, 61, 69
2, 84328, Note_on_c, 1, 52, 73
2, 84328, Note_on_c, 1, 58, 77
2, 84328, Note_on_c, 1, 55, 88
2, 84332, Control_c, 1, 64, 0
2, 84388, Note_off_c, 1, 79, 64
2, 84440, Note_on_c, 1, 79, 100
2, 84440, Control_c, 1, 64, 127
2, 84472, Note_off_c, 1, 79, 64
2, 84548, Control_c, 1, 64, 0
2, 84556, Note_on_c, 1, 82, 108
2, 84560, Control_c, 1, 64, 127
2, 84608, Note_off_c, 1, 52, 64
2, 84608, Note_off_c, 1, 58, 64
2, 84608, Note_off_c, 1, 61, 64
2, 84612, Note_off_c, 1, 82, 64
2, 84616, Note_off_c, 1, 55, 64
2, 84788, Note_on_c, 1, 86, 90
2, 84788, Note_on_c, 1, 80, 73
2, 84788, Note_on_c, 1, 53, 66
2, 84788, Control_c, 1, 64, 0
2, 84864, Note_off_c, 1, 80, 64
2, 84872, Note_off_c, 1, 86, 64
2, 85012, Note_on_c, 1, 56, 50
2, 85016, Note_on_c, 1, 89, 77
2, 85016, Note_on_c, 1, 62, 64
2, 85016, Note_on_c, 1, 80, 80
2, 85024, Note_on_c, 1, 58, 49
2, 85024, Control_c, 1, 64, 127
2, 85032, Note_off_c, 1, 89, 64
2, 85032, Note_off_c, 1, 80, 64
2, 85044, Note_off_c, 1, 62, 64
2, 85048, Note_off_c, 1, 56, 64
2, 85048, Note_off_c, 1, 58, 64
2, 85064, Note_off_c, 1, 53, 64
2, 85180, Control_c, 1, 64, 0
2, 85244, Note_on_c, 1, 46, 68
2, 85248, Note_on_c, 1, 80, 78
2, 85248, Note_on_c, 1, 84, 83
2, 85248, Control_c, 1, 64, 127
2, 85256, Note_off_c, 1, 46, 64
2, 85468, Note_on_c, 1, 56, 60
2, 85472, Note_on_c, 1, 58, 66
2, 85480, Note_on_c, 1, 62, 66
2, 85484, Control_c, 1, 64, 0
2, 85580, Note_off_c, 1, 84, 0
2, 85584, Note_on_c, 1, 83, 88
2, 85584, Control_c, 1, 64, 127
2, 85592, Note_off_c, 1, 80, 0
2, 85600, Note_off_c, 1, 83, 64
2, 85692, Note_on_c, 1, 53, 54
2, 85696, Note_off_c, 1, 62, 0
2, 85696, Control_c, 1, 64, 0
2, 85700, Note_off_c, 1, 56, 0
2, 85700, Note_off_c, 1, 58, 0
2, 85700, Note_on_c, 1, 84, 73
2, 85704, Note_on_c, 1, 80, 71
2, 85732, Note_off_c, 1, 53, 64
2, 85796, Note_off_c, 1, 80, 64
2, 85800, Note_on_c, 1, 74, 83
2, 85912, Note_off_c, 1, 74, 64
2, 85916, Note_on_c, 1, 77, 83
2, 85920, Note_on_c, 1, 62, 66
2, 85920, Note_on_c, 1, 58, 57
2, 85920, Note_on_c, 1, 56, 56
2, 85972, Note_off_c, 1, 62, 64
2, 85976, Note_off_c, 1, 58, 64
2, 85976, Note_off_c, 1, 56, 64
2, 86032, Note_off_c, 1, 77, 64
2, 86032, Note_on_c, 1, 80, 71
2, 86136, Note_off_c, 1, 84, 64
2, 86136, Note_on_c, 1, 46, 65
2, 86144, Note_on_c, 1, 82, 71
2, 86148, Note_off_c, 1, 80, 64
2, 86152, Note_off_c, 1, 46, 64
2, 86256, Note_on_c, 1, 84, 63
2, 86272, Note_off_c, 1, 82, 64
2, 86372, Note_on_c, 1, 56, 50
2, 86376, Note_on_c, 1, 62, 62
2, 86376, Note_on_c, 1, 58, 53
2, 86388, Note_off_c, 1, 62, 64
2, 86388, Note_off_c, 1, 58, 64
2, 86392, Note_off_c, 1, 56, 0
2, 86480, Note_on_c, 1, 82, 71
2, 86484, Note_off_c, 1, 84, 0
2, 86584, Note_on_c, 1, 51, 53
2, 86588, Note_off_c, 1, 82, 64
2, 86588, Note_on_c, 1, 84, 70
2, 86592, Note_on_c, 1, 79, 66
2, 86604, Note_off_c, 1, 51, 64
2, 86612, Note_off_c, 1, 84, 64
2, 86612, Note_off_c, 1, 79, 64
2, 86812, Note_on_c, 1, 55, 62
2, 86812, Note_on_c, 1, 63, 53
2, 86812, Note_on_c, 1, 87, 69
2, 86812, Note_on_c, 1, 58, 49
2, 86816, Note_on_c, 1, 79, 77
2, 86820, Note_off_c, 1, 63, 64
2, 86824, Note_off_c, 1, 58, 64
2, 86828, Note_off_c, 1, 55, 64
2, 86832, Note_off_c, 1, 79, 64
2, 86840, Note_off_c, 1, 87, 64
2, 87032, Note_on_c, 1, 46, 61
2, 87036, Note_on_c, 1, 82, 80
2, 87040, Note_off_c, 1, 46, 64
2, 87040, Note_on_c, 1, 79, 71
2, 87040, Control_c, 1, 64, 127
2, 87132, Control_c, 1, 64, 0
2, 87256, Note_on_c, 1, 55, 65
2, 87264, Note_on_c, 1, 58, 61
2, 87268, Note_on_c, 1, 63, 51
2, 87300, Control_c, 1, 64, 127
2, 87308, Note_off_c, 1, 63, 64
2, 87324, Note_off_c, 1, 55, 64
2, 87324, Note_off_c, 1, 58, 64
2, 87328, Note_off_c, 1, 82, 0
2, 87332, Note_off_c, 1, 79, 0
2, 87368, Note_on_c, 1, 81, 83
2, 87376, Note_off_c, 1, 81, 64
2, 87464, Note_on_c, 1, 51, 46
2, 87464, Control_c, 1, 64, 0
2, 87476, Note_on_c, 1, 82, 85
2, 87480, Note_on_c, 1, 79, 78
2, 87488, Control_c, 1, 64, 127
2, 87492, Note_off_c, 1, 82, 64
2, 87492, Note_off_c, 1, 79, 64
2, 87580, Note_on_c, 1, 70, 71
2, 87584, Control_c, 1, 64, 0
2, 87588, Control_c, 1, 64, 127
2, 87604, Note_off_c, 1, 70, 64
2, 87692, Control_c, 1, 64, 0
2, 87696, Note_on_c, 1, 55, 62
2, 87700, Note_on_c, 1, 58, 52
2, 87700, Note_on_c, 1, 63, 48
2, 87704, Note_on_c, 1, 75, 75
2, 87724, Control_c, 1, 64, 127
2, 87748, Note_off_c, 1, 75, 64
2, 87768, Note_off_c, 1, 51, 64
2, 87772, Note_off_c, 1, 55, 64
2, 87780, Note_off_c, 1, 58, 64
2, 87780, Note_off_c, 1, 63, 64
2, 87800, Note_on_c, 1, 79, 70
2, 87820, Note_off_c, 1, 79, 64
2, 87912, Note_on_c, 1, 55, 40
2, 87920, Control_c, 1, 64, 0
2, 87932, Note_on_c, 1, 82, 73
2, 87968, Control_c, 1, 64, 127
2, 88036, Note_off_c, 1, 82, 0
2, 88140, Control_c, 1, 64, 0
2, 88148, Note_on_c, 1, 61, 48
2, 88152, Note_on_c, 1, 82, 83
2, 88156, Note_on_c, 1, 63, 39
2, 88160, Control_c, 1, 64, 127
2, 88184, Note_off_c, 1, 63, 64
2, 88188, Note_off_c, 1, 61, 64
2, 88192, Note_off_c, 1, 82, 64
2, 88196, Note_off_c, 1, 55, 0
2, 88360, Control_c, 1, 64, 0
2, 88368, Note_on_c, 1, 84, 73
2, 88372, Note_on_c, 1, 56, 52
2, 88372, Note_on_c, 1, 63, 46
2, 88376, Note_on_c, 1, 60, 39
2, 88376, Control_c, 1, 64, 127
2, 88420, Note_off_c, 1, 84, 64
2, 88492, Control_c, 1, 64, 0
2, 88596, Note_on_c, 1, 75, 71
2, 88596, Control_c, 1, 64, 127
2, 88604, Note_on_c, 1, 72, 65
2, 88608, Note_off_c, 1, 63, 64
2, 88612, Note_off_c, 1, 60, 64
2, 88624, Note_off_c, 1, 56, 64
2, 88704, Note_off_c, 1, 72, 64
2, 88708, Note_off_c, 1, 75, 64
2, 88800, Control_c, 1, 64, 0
2, 88820, Note_on_c, 1, 44, 66
2, 88824, Note_on_c, 1, 77, 83
2, 88824, Note_on_c, 1, 72, 71
2, 88824, Note_on_c, 1, 56, 60
2, 88824, Note_on_c, 1, 75, 60
2, 88852, Control_c, 1, 64, 127
2, 88920, Note_off_c, 1, 44, 0
2, 88920, Note_off_c, 1, 56, 0
2, 88928, Note_off_c, 1, 72, 0
2, 88932, Note_off_c, 1, 77, 0
2, 88936, Note_off_c, 1, 75, 0
2, 89012, Control_c, 1, 64, 0
2, 89052, Note_on_c, 1, 78, 80
2, 89052, Note_on_c, 1, 75, 69
2, 89060, Note_on_c, 1, 72, 71
2, 89060, Note_on_c, 1, 45, 64
2, 89064, Note_on_c, 1, 57, 60
2, 89068, Control_c, 1, 64, 127
2, 89100, Note_off_c, 1, 72, 64
2, 89108, Note_off_c, 1, 75, 64
2, 89112, Note_off_c, 1, 45, 64
2, 89112, Note_off_c, 1, 57, 64
2, 89120, Note_off_c, 1, 78, 64
2, 89260, Control_c, 1, 64, 0
2, 89280, Note_on_c, 1, 79, 73
2, 89288, Note_on_c, 1, 46, 58
2, 89288, Note_on_c, 1, 75, 62
2, 89288, Note_on_c, 1, 58, 53
2, 89292, Note_on_c, 1, 70, 56
2, 89296, Control_c, 1, 64, 127
2, 89308, Note_off_c, 1, 58, 64
2, 89312, Note_off_c, 1, 70, 64
2, 89320, Note_off_c, 1, 46, 64
2, 89324, Note_off_c, 1, 79, 64
2, 89328, Note_off_c, 1, 75, 64
2, 89392, Control_c, 1, 64, 0
2, 89508, Note_on_c, 1, 82, 78
2, 89508, Note_on_c, 1, 76, 85
2, 89508, Note_on_c, 1, 72, 66
2, 89512, Note_on_c, 1, 48, 61
2, 89516, Note_on_c, 1, 36, 39
2, 89516, Control_c, 1, 64, 127
2, 89716, Note_off_c, 1, 48, 64
2, 89732, Note_off_c, 1, 36, 0
2, 89752, Note_off_c, 1, 72, 0
2, 89756, Note_off_c, 1, 76, 0
2, 89764, Note_off_c, 1, 82, 0
2, 89912, Control_c, 1, 64, 0
2, 89968, Note_on_c, 1, 29, 59
2, 89972, Note_on_c, 1, 80, 72
2, 89976, Note_on_c, 1, 77, 69
2, 89976, Note_on_c, 1, 41, 55
2, 89976, Note_on_c, 1, 72, 63
2, 89984, Control_c, 1, 64, 127
2, 90008, Note_off_c, 1, 41, 64
2, 90016, Note_off_c, 1, 29, 64
2, 90024, Note_off_c, 1, 77, 64
2, 90024, Note_off_c, 1, 72, 64
2, 90028, Note_off_c, 1, 80, 64
2, 90216, Note_on_c, 1, 46, 42
2, 90216, Note_on_c, 1, 34, 38
2, 90220, Note_on_c, 1, 79, 74
2, 90228, Control_c, 1, 64, 0
2, 90452, Note_on_c, 1, 75, 53
2, 90456, Note_on_c, 1, 70, 49
2, 90480, Note_off_c, 1, 75, 64
2, 90480, Note_off_c, 1, 70, 64
2, 90488, Note_off_c, 1, 79, 64
2, 90536, Control_c, 1, 64, 127
2, 90576, Note_off_c, 1, 46, 64
2, 90588, Note_off_c, 1, 34, 64
2, 90688, Note_on_c, 1, 77, 71
2, 90692, Note_on_c, 1, 34, 39
2, 90696, Note_on_c, 1, 46, 38
2, 90696, Control_c, 1, 64, 0
2, 90912, Note_on_c, 1, 68, 39
2, 90916, Note_on_c, 1, 74, 36
2, 90924, Note_on_c, 1, 70, 32
2, 90932, Control_c, 1, 64, 127
2, 90944, Note_off_c, 1, 74, 64
2, 90952, Note_off_c, 1, 68, 64
2, 90952, Note_off_c, 1, 70, 64
2, 90964, Note_off_c, 1, 34, 64
2, 90964, Note_off_c, 1, 46, 64
2, 91000, Note_off_c, 1, 77, 64
2, 91016, Control_c, 1, 64, 0
2, 91144, Note_on_c, 1, 75, 54
2, 91144, Note_on_c, 1, 67, 40
2, 91148, Note_on_c, 1, 70, 51
2, 91148, Note_on_c, 1, 39, 33
2, 91152, Note_on_c, 1, 51, 32
2, 91152, Control_c, 1, 64, 127
2, 91180, Note_off_c, 1, 67, 64
2, 91180, Note_off_c, 1, 70, 64
2, 91180, Note_off_c, 1, 39, 64
2, 91180, Note_off_c, 1, 51, 64
2, 91184, Note_off_c, 1, 75, 64
2, 91472, Control_c, 1, 64, 0
2, 91596, Note_on_c, 1, 87, 100
2, 91600, Note_on_c, 1, 82, 108
2, 91600, Note_on_c, 1, 79, 116
2, 91600, Note_on_c, 1, 75, 104
2, 91600, Note_on_c, 1, 39, 112
2, 91600, Note_on_c, 1, 27, 104
2, 91672, Note_off_c, 1, 82, 64
2, 91680, Note_off_c, 1, 79, 64
2, 91680, Note_off_c, 1, 75, 64
2, 91684, Note_off_c, 1, 87, 64
2, 91684, Note_off_c, 1, 39, 64
2, 91688, Note_off_c, 1, 27, 64
2, 92064, Note_on_c, 1, 33, 55
2, 92072, Note_on_c, 1, 32, 45
2, 92076, Note_on_c, 1, 31, 46
2, 92076, Note_on_c, 1, 30, 43
2, 92076, Note_on_c, 1, 28, 51
2, 92076, Note_on_c, 1, 29, 50
2, 92120, Note_off_c, 1, 31, 35
2, 92120, Note_off_c, 1, 29, 35
2, 92124, Note_off_c, 1, 33, 35
2, 92124, Note_off_c, 1, 30, 35
2, 92132, Note_off_c, 1, 28, 35
2, 92136, Note_off_c, 1, 32, 35
2, 92292, Note_on_c, 1, 79, 83
2, 92292, Note_on_c, 1, 70, 66
2, 92292, Note_on_c, 1, 63, 53
2, 92296, Note_on_c, 1, 61, 41
2, 92500, Note_on_c, 1, 32, 32
2, 92500, Note_on_c, 1, 30, 31
2, 92500, Note_on_c, 1, 31, 32
2, 92512, Note_on_c, 1, 28, 33
2, 92512, Note_on_c, 1, 29, 33
2, 92568, Note_off_c, 1, 32, 35
2, 92568, Note_off_c, 1, 30, 35
2, 92572, Note_off_c, 1, 31, 35
2, 92572, Note_off_c, 1, 29, 35
2, 92592, Note_off_c, 1, 28, 35
2, 92608, Note_on_c, 1, 75, 65
2, 92608, Control_c, 1, 64, 127
2, 92624, Note_off_c, 1, 63, 0
2, 92628, Note_off_c, 1, 79, 0
2, 92628, Note_off_c, 1, 61, 0
2, 92632, Note_off_c, 1, 70, 0
2, 92648, Note_off_c, 1, 75, 64
2, 92728, Note_on_c, 1, 79, 73
2, 92728, Note_on_c, 1, 61, 46
2, 92728, Note_on_c, 1, 70, 63
2, 92732, Note_on_c, 1, 63, 33
2, 92732, Control_c, 1, 64, 0
2, 92816, Control_c, 1, 64, 127
2, 92836, Note_off_c, 1, 61, 64
2, 92840, Note_off_c, 1, 63, 64
2, 92840, Note_on_c, 1, 75, 65
2, 92852, Note_off_c, 1, 79, 64
2, 92860, Note_off_c, 1, 70, 64
2, 92864, Note_off_c, 1, 75, 64
2, 92952, Note_on_c, 1, 32, 32
2, 92956, Note_on_c, 1, 30, 31
2, 92960, Note_on_c, 1, 80, 68
2, 92960, Note_on_c, 1, 33, 34
2, 92960, Note_on_c, 1, 31, 31
2, 92960, Note_on_c, 1, 68, 61
2, 92964, Note_on_c, 1, 28, 32
2, 92964, Note_on_c, 1, 29, 33
2, 92964, Control_c, 1, 64, 0
2, 92968, Note_on_c, 1, 60, 36
2, 92968, Note_on_c, 1, 63, 32
2, 93016, Note_off_c, 1, 32, 35
2, 93020, Note_off_c, 1, 33, 35
2, 93024, Note_off_c, 1, 30, 35
2, 93024, Note_off_c, 1, 31, 35
2, 93024, Note_off_c, 1, 29, 35
2, 93040, Note_off_c, 1, 28, 35
2, 93144, Note_off_c, 1, 60, 0
2, 93148, Note_off_c, 1, 63, 0
2, 93168, Note_off_c, 1, 68, 0
2, 93172, Note_off_c, 1, 80, 0
2, 93396, Note_on_c, 1, 32, 31
2, 93396, Note_on_c, 1, 30, 31
2, 93396, Note_on_c, 1, 33, 33
2, 93408, Note_on_c, 1, 28, 32
2, 93408, Note_on_c, 1, 29, 32
2, 93420, Note_on_c, 1, 31, 23
2, 93472, Note_off_c, 1, 32, 35
2, 93476, Note_off_c, 1, 30, 35
2, 93480, Note_off_c, 1, 33, 35
2, 93480, Note_off_c, 1, 29, 35
2, 93480, Note_off_c, 1, 31, 35
2, 93488, Note_off_c, 1, 28, 35
2, 93840, Note_on_c, 1, 32, 37
2, 93840, Note_on_c, 1, 31, 39
2, 93840, Note_on_c, 1, 29, 42
2, 93848, Note_on_c, 1, 28, 43
2, 93848, Note_on_c, 1, 30, 43
2, 93904, Note_off_c, 1, 29, 35
2, 93908, Note_off_c, 1, 32, 35
2, 93908, Note_off_c, 1, 31, 35
2, 93920, Note_off_c, 1, 30, 35
2, 93932, Note_off_c, 1, 28, 35
2, 94108, Note_on_c, 1, 80, 71
2, 94108, Note_on_c, 1, 68, 65
2, 94112, Note_on_c, 1, 60, 43
2, 94112, Note_on_c, 1, 63, 39
2, 94272, Note_on_c, 1, 32, 32
2, 94280, Note_on_c, 1, 30, 31
2, 94284, Note_on_c, 1, 33, 34
2, 94284, Note_on_c, 1, 31, 31
2, 94284, Note_on_c, 1, 28, 32
2, 94284, Note_on_c, 1, 29, 33
2, 94336, Note_off_c, 1, 32, 35
2, 94336, Note_off_c, 1, 33, 35
2, 94336, Control_c, 1, 64, 127
2, 94348, Note_off_c, 1, 30, 35
2, 94348, Note_off_c, 1, 31, 35
2, 94348, Note_off_c, 1, 29, 35
2, 94356, Note_off_c, 1, 28, 35
2, 94360, Control_c, 1, 64, 0
2, 94432, Note_on_c, 1, 75, 60
2, 94436, Note_off_c, 1, 68, 64
2, 94444, Note_off_c, 1, 80, 64
2, 94444, Control_c, 1, 64, 127
2, 94456, Note_off_c, 1, 60, 64
2, 94464, Note_off_c, 1, 63, 64
2, 94472, Note_off_c, 1, 75, 64
2, 94544, Note_on_c, 1, 80, 69
2, 94548, Note_on_c, 1, 68, 59
2, 94556, Note_on_c, 1, 60, 50
2, 94556, Note_on_c, 1, 63, 37
2, 94556, Control_c, 1, 64, 0
2, 94652, Control_c, 1, 64, 127
2, 94656, Note_off_c, 1, 63, 64
2, 94660, Note_off_c, 1, 60, 64
2, 94660, Note_on_c, 1, 75, 65
2, 94676, Note_off_c, 1, 68, 64
2, 94684, Note_off_c, 1, 80, 64
2, 94692, Note_off_c, 1, 75, 64
2, 94768, Note_on_c, 1, 32, 31
2, 94768, Note_on_c, 1, 30, 30
2, 94776, Note_on_c, 1, 33, 35
2, 94776, Note_on_c, 1, 28, 33
2, 94776, Note_on_c, 1, 31, 33
2, 94780, Note_on_c, 1, 81, 65
2, 94780, Note_on_c, 1, 63, 37
2, 94780, Note_on_c, 1, 66, 37
2, 94780, Note_on_c, 1, 29, 32
2, 94780, Note_on_c, 1, 69, 61
2, 94784, Note_on_c, 1, 59, 37
2, 94788, Control_c, 1, 64, 0
2, 94832, Note_off_c, 1, 32, 35
2, 94836, Note_off_c, 1, 30, 35
2, 94836, Note_off_c, 1, 33, 35
2, 94836, Note_off_c, 1, 28, 35
2, 94836, Note_off_c, 1, 31, 35
2, 94836, Note_off_c, 1, 29, 35
2, 95008, Note_off_c, 1, 63, 0
2, 95012, Note_off_c, 1, 81, 0
2, 95012, Note_off_c, 1, 66, 0
2, 95012, Note_off_c, 1, 59, 0
2, 95016, Note_off_c, 1, 69, 0
2, 95244, Note_on_c, 1, 32, 32
2, 95256, Note_on_c, 1, 30, 31
2, 95256, Note_on_c, 1, 31, 32
2, 95260, Note_on_c, 1, 28, 33
2, 95268, Note_on_c, 1, 29, 33
2, 95320, Note_off_c, 1, 32, 35
2, 95324, Note_off_c, 1, 30, 35
2, 95328, Note_off_c, 1, 31, 35
2, 95328, Note_off_c, 1, 29, 35
2, 95344, Note_off_c, 1, 28, 35
2, 95704, Note_on_c, 1, 32, 39
2, 95708, Note_on_c, 1, 30, 39
2, 95708, Note_on_c, 1, 33, 43
2, 95712, Note_on_c, 1, 31, 37
2, 95716, Note_on_c, 1, 28, 40
2, 95716, Note_on_c, 1, 29, 46
2, 95768, Note_off_c, 1, 32, 35
2, 95768, Note_off_c, 1, 33, 35
2, 95776, Note_off_c, 1, 30, 35
2, 95780, Note_off_c, 1, 31, 35
2, 95780, Note_off_c, 1, 29, 35
2, 95784, Note_off_c, 1, 28, 35
2, 95920, Note_on_c, 1, 81, 68
2, 95920, Note_on_c, 1, 66, 37
2, 95920, Note_on_c, 1, 69, 60
2, 95928, Note_on_c, 1, 59, 34
2, 95940, Note_on_c, 1, 63, 32
2, 96148, Note_on_c, 1, 32, 31
2, 96148, Note_on_c, 1, 30, 31
2, 96152, Note_on_c, 1, 33, 33
2, 96160, Note_on_c, 1, 28, 32
2, 96160, Note_on_c, 1, 29, 32
2, 96168, Note_on_c, 1, 31, 23
2, 96224, Note_off_c, 1, 32, 35
2, 96228, Note_off_c, 1, 30, 35
2, 96228, Note_off_c, 1, 33, 35
2, 96232, Note_off_c, 1, 29, 35
2, 96232, Note_off_c, 1, 31, 35
2, 96236, Note_on_c, 1, 75, 64
2, 96236, Control_c, 1, 64, 127
2, 96240, Note_off_c, 1, 28, 35
2, 96252, Note_off_c, 1, 81, 64
2, 96252, Note_off_c, 1, 66, 64
2, 96252, Note_off_c, 1, 59, 64
2, 96256, Note_off_c, 1, 69, 64
2, 96256, Note_off_c, 1, 63, 64
2, 96264, Note_off_c, 1, 75, 64
2, 96356, Note_on_c, 1, 81, 80
2, 96356, Note_on_c, 1, 66, 37
2, 96356, Note_on_c, 1, 69, 66
2, 96356, Note_on_c, 1, 63, 39
2, 96356, Note_on_c, 1, 59, 39
2, 96360, Control_c, 1, 64, 0
2, 96464, Control_c, 1, 64, 127
2, 96476, Note_off_c, 1, 63, 64
2, 96476, Note_off_c, 1, 59, 64
2, 96476, Note_on_c, 1, 75, 56
2, 96480, Note_off_c, 1, 66, 64
2, 96484, Note_off_c, 1, 81, 64
2, 96492, Note_off_c, 1, 69, 64
2, 96496, Note_off_c, 1, 75, 64
2, 96540, Note_on_c, 1, 32, 31
2, 96544, Note_on_c, 1, 33, 32
2, 96544, Note_on_c, 1, 31, 31
2, 96544, Note_on_c, 1, 30, 31
2, 96556, Note_on_c, 1, 28, 32
2, 96560, Note_on_c, 1, 29, 32
2, 96596, Note_on_c, 1, 82, 73
2, 96596, Note_on_c, 1, 70, 61
2, 96596, Note_on_c, 1, 58, 38
2, 96600, Note_on_c, 1, 63, 38
2, 96600, Note_on_c, 1, 67, 40
2, 96600, Control_c, 1, 64, 0
2, 96612, Note_off_c, 1, 31, 35
2, 96612, Note_off_c, 1, 30, 35
2, 96616, Note_off_c, 1, 32, 35
2, 96620, Note_off_c, 1, 33, 35
2, 96624, Note_off_c, 1, 29, 35
2, 96628, Note_off_c, 1, 28, 35
2, 96696, Note_off_c, 1, 70, 64
2, 96708, Note_off_c, 1, 58, 64
2, 96712, Note_off_c, 1, 63, 64
2, 96716, Note_off_c, 1, 82, 64
2, 96716, Note_off_c, 1, 67, 64
2, 97044, Note_on_c, 1, 30, 41
2, 97048, Note_on_c, 1, 28, 44
2, 97052, Note_on_c, 1, 32, 43
2, 97052, Note_on_c, 1, 84, 104
2, 97052, Note_on_c, 1, 72, 108
2, 97052, Note_on_c, 1, 31, 43
2, 97052, Note_on_c, 1, 66, 70
2, 97056, Note_on_c, 1, 57, 71
2, 97056, Note_on_c, 1, 63, 75
2, 97056, Note_on_c, 1, 33, 46
2, 97056, Note_on_c, 1, 29, 44
2, 97108, Note_off_c, 1, 32, 35
2, 97112, Note_off_c, 1, 30, 35
2, 97112, Note_off_c, 1, 33, 35
2, 97116, Note_off_c, 1, 31, 35
2, 97116, Note_off_c, 1, 29, 35
2, 97140, Note_off_c, 1, 28, 35
2, 97508, Note_on_c, 1, 32, 30
2, 97524, Note_on_c, 1, 28, 32
2, 97524, Note_on_c, 1, 33, 32
2, 97524, Note_on_c, 1, 31, 30
2, 97528, Note_on_c, 1, 30, 32
2, 97532, Note_on_c, 1, 29, 32
2, 97544, Control_c, 1, 64, 127
2, 97588, Note_off_c, 1, 32, 35
2, 97588, Note_off_c, 1, 33, 35
2, 97588, Note_off_c, 1, 30, 35
2, 97592, Note_off_c, 1, 31, 35
2, 97592, Note_off_c, 1, 29, 35
2, 97604, Note_off_c, 1, 28, 35
2, 97616, Note_off_c, 1, 66, 0
2, 97620, Note_off_c, 1, 63, 0
2, 97628, Note_off_c, 1, 72, 0
2, 97628, Note_off_c, 1, 57, 0
2, 97632, Note_off_c, 1, 84, 0
2, 97688, Control_c, 1, 64, 0
2, 97756, Note_on_c, 1, 82, 77
2, 97764, Note_on_c, 1, 67, 62
2, 97764, Note_on_c, 1, 63, 55
2, 97768, Note_on_c, 1, 70, 71
2, 97768, Note_on_c, 1, 58, 49
2, 97800, Control_c, 1, 64, 127
2, 97884, Note_off_c, 1, 70, 64
2, 97980, Note_off_c, 1, 67, 64
2, 97984, Note_off_c, 1, 58, 64
2, 97984, Note_on_c, 1, 32, 31
2, 97988, Note_off_c, 1, 63, 64
2, 97988, Note_on_c, 1, 30, 31
2, 97992, Note_on_c, 1, 33, 32
2, 97992, Note_on_c, 1, 28, 32
2, 97992, Note_on_c, 1, 29, 32
2, 98044, Note_off_c, 1, 30, 35
2, 98044, Note_off_c, 1, 29, 35
2, 98048, Note_off_c, 1, 32, 35
2, 98048, Note_off_c, 1, 33, 35
2, 98056, Note_off_c, 1, 28, 35
2, 98072, Note_off_c, 1, 82, 64
2, 98076, Note_on_c, 1, 79, 83
2, 98196, Control_c, 1, 64, 0
2, 98200, Note_off_c, 1, 79, 64
2, 98204, Note_on_c, 1, 77, 88
2, 98204, Note_on_c, 1, 68, 56
2, 98204, Note_on_c, 1, 58, 48
2, 98204, Note_on_c, 1, 62, 66
2, 98312, Note_on_c, 1, 70, 71
2, 98320, Note_off_c, 1, 77, 0
2, 98324, Note_off_c, 1, 68, 0
2, 98328, Note_off_c, 1, 58, 0
2, 98328, Note_off_c, 1, 62, 0
2, 98328, Control_c, 1, 64, 127
2, 98380, Note_off_c, 1, 70, 64
2, 98400, Note_on_c, 1, 32, 29
2, 98408, Note_on_c, 1, 33, 31
2, 98408, Note_on_c, 1, 30, 29
2, 98412, Note_on_c, 1, 29, 32
2, 98412, Note_on_c, 1, 28, 32
2, 98416, Note_on_c, 1, 31, 23
2, 98428, Note_on_c, 1, 75, 71
2, 98432, Note_on_c, 1, 67, 50
2, 98432, Note_on_c, 1, 63, 43
2, 98432, Control_c, 1, 64, 0
2, 98460, Note_off_c, 1, 30, 35
2, 98464, Note_off_c, 1, 32, 35
2, 98468, Note_off_c, 1, 33, 35
2, 98468, Note_off_c, 1, 31, 35
2, 98472, Note_off_c, 1, 29, 35
2, 98472, Note_off_c, 1, 63, 64
2, 98476, Note_off_c, 1, 67, 64
2, 98480, Note_off_c, 1, 28, 35
2, 98492, Note_off_c, 1, 75, 64
2, 98872, Note_on_c, 1, 32, 31
2, 98872, Note_on_c, 1, 30, 31
2, 98876, Note_on_c, 1, 33, 32
2, 98884, Note_on_c, 1, 28, 32
2, 98884, Note_on_c, 1, 31, 31
2, 98884, Note_on_c, 1, 29, 32
2, 98884, Note_on_c, 1, 82, 54
2, 98884, Note_on_c, 1, 79, 64
2, 98888, Note_on_c, 1, 27, 53
2, 98888, Note_on_c, 1, 87, 37
2, 98888, Note_on_c, 1, 39, 39
2, 98888, Note_on_c, 1, 75, 33
2, 98932, Note_off_c, 1, 33, 35
2, 98936, Note_off_c, 1, 32, 35
2, 98936, Note_off_c, 1, 30, 35
2, 98936, Note_off_c, 1, 31, 35
2, 98944, Note_off_c, 1, 29, 35
2, 98948, Note_off_c, 1, 28, 35
2, 98980, Note_off_c, 1, 39, 64
2, 98984, Note_off_c, 1, 79, 64
2, 98984, Note_off_c, 1, 75, 64
2, 98988, Note_off_c, 1, 82, 64
2, 98992, Note_off_c, 1, 27, 64
2, 98992, Note_off_c, 1, 87, 64
2, 99336, Note_on_c, 1, 32, 35
2, 99336, Note_on_c, 1, 33, 37
2, 99344, Note_on_c, 1, 30, 35
2, 99344, Note_on_c, 1, 28, 37
2, 99344, Note_on_c, 1, 31, 32
2, 99344, Note_on_c, 1, 29, 37
2, 99400, Note_off_c, 1, 32, 35
2, 99400, Note_off_c, 1, 30, 35
2, 99400, Note_off_c, 1, 29, 35
2, 99408, Note_off_c, 1, 33, 35
2, 99408, Note_off_c, 1, 28, 35
2, 99412, Note_off_c, 1, 31, 35
2, 99572, Note_on_c, 1, 79, 52
2, 99572, Note_on_c, 1, 61, 32
2, 99572, Note_on_c, 1, 70, 34
2, 99580, Note_on_c, 1, 63, 28
2, 99784, Note_on_c, 1, 32, 33
2, 99796, Note_on_c, 1, 30, 34
2, 99796, Note_on_c, 1, 33, 36
2, 99800, Note_on_c, 1, 28, 35
2, 99800, Note_on_c, 1, 29, 35
2, 99804, Note_on_c, 1, 31, 26
2, 99864, Note_off_c, 1, 29, 35
2, 99868, Note_off_c, 1, 28, 35
2, 99868, Note_off_c, 1, 30, 35
2, 99868, Note_off_c, 1, 31, 35
2, 99868, Note_off_c, 1, 32, 35
2, 99868, Note_off_c, 1, 33, 35
2, 99892, Control_c, 1, 64, 127
2, 99900, Note_off_c, 1, 79, 64
2, 99900, Note_on_c, 1, 75, 45
2, 99912, Note_off_c, 1, 63, 64
2, 99920, Note_off_c, 1, 61, 64
2, 99920, Note_off_c, 1, 70, 64
2, 99928, Note_off_c, 1, 75, 64
2, 100012, Note_on_c, 1, 79, 54
2, 100020, Note_on_c, 1, 61, 32
2, 100020, Note_on_c, 1, 70, 36
2, 100024, Note_on_c, 1, 63, 29
2, 100032, Control_c, 1, 64, 0
2, 100128, Note_on_c, 1, 75, 38
2, 100128, Control_c, 1, 64, 127
2, 100132, Note_off_c, 1, 61, 64
2, 100136, Note_off_c, 1, 63, 64
2, 100140, Note_off_c, 1, 79, 64
2, 100144, Note_off_c, 1, 70, 64
2, 100156, Note_off_c, 1, 75, 64
2, 100212, Note_on_c, 1, 32, 33
2, 100212, Note_on_c, 1, 28, 37
2, 100216, Note_on_c, 1, 30, 35
2, 100220, Note_on_c, 1, 33, 36
2, 100224, Note_on_c, 1, 29, 37
2, 100224, Note_on_c, 1, 31, 27
2, 100244, Note_on_c, 1, 80, 37
2, 100248, Note_on_c, 1, 68, 34
2, 100248, Note_on_c, 1, 60, 31
2, 100248, Note_on_c, 1, 63, 28
2, 100260, Control_c, 1, 64, 0
2, 100284, Note_off_c, 1, 30, 35
2, 100284, Note_off_c, 1, 29, 35
2, 100288, Note_off_c, 1, 33, 35
2, 100292, Note_off_c, 1, 32, 35
2, 100292, Note_off_c, 1, 28, 35
2, 100292, Note_off_c, 1, 31, 35
2, 100352, Note_off_c, 1, 63, 64
2, 100356, Note_off_c, 1, 60, 64
2, 100364, Note_off_c, 1, 80, 64
2, 100368, Note_off_c, 1, 68, 64
2, 100728, Note_on_c, 1, 32, 35
2, 100736, Note_on_c, 1, 30, 35
2, 100736, Note_on_c, 1, 31, 35
2, 100736, Note_on_c, 1, 28, 37
2, 100740, Note_on_c, 1, 33, 37
2, 100744, Note_on_c, 1, 29, 37
2, 100792, Note_off_c, 1, 30, 35
2, 100800, Note_off_c, 1, 32, 35
2, 100800, Note_off_c, 1, 29, 35
2, 100808, Note_off_c, 1, 31, 35
2, 100812, Note_off_c, 1, 28, 35
2, 100812, Note_off_c, 1, 33, 35
2, 101204, Note_on_c, 1, 32, 36
2, 101212, Note_on_c, 1, 30, 36
2, 101216, Note_on_c, 1, 33, 38
2, 101220, Note_on_c, 1, 31, 34
2, 101224, Note_on_c, 1, 28, 39
2, 101224, Note_on_c, 1, 29, 38
2, 101276, Note_off_c, 1, 32, 35
2, 101276, Note_off_c, 1, 30, 35
2, 101276, Note_off_c, 1, 29, 35
2, 101280, Note_off_c, 1, 33, 35
2, 101284, Note_off_c, 1, 31, 35
2, 101284, Note_off_c, 1, 28, 35
2, 101408, Note_on_c, 1, 80, 54
2, 101412, Note_on_c, 1, 60, 34
2, 101416, Note_on_c, 1, 68, 44
2, 101432, Note_on_c, 1, 63, 28
2, 101644, Note_on_c, 1, 33, 35
2, 101648, Note_on_c, 1, 32, 35
2, 101648, Note_on_c, 1, 30, 35
2, 101652, Note_on_c, 1, 31, 32
2, 101652, Note_on_c, 1, 28, 37
2, 101656, Note_on_c, 1, 29, 37
2, 101708, Note_off_c, 1, 32, 35
2, 101712, Note_off_c, 1, 30, 35
2, 101712, Note_off_c, 1, 29, 35
2, 101716, Note_off_c, 1, 31, 35
2, 101716, Note_off_c, 1, 28, 35
2, 101720, Note_on_c, 1, 75, 38
2, 101728, Control_c, 1, 64, 127
2, 101732, Note_off_c, 1, 60, 0
2, 101732, Note_off_c, 1, 63, 0
2, 101732, Note_off_c, 1, 33, 35
2, 101740, Note_off_c, 1, 68, 0
2, 101748, Note_off_c, 1, 80, 0
2, 101768, Note_off_c, 1, 75, 64
2, 101840, Note_on_c, 1, 60, 34
2, 101840, Note_on_c, 1, 63, 31
2, 101840, Note_on_c, 1, 80, 54
2, 101848, Note_on_c, 1, 68, 46
2, 101848, Control_c, 1, 64, 0
2, 101884, Control_c, 1, 64, 127
2, 101916, Note_off_c, 1, 60, 64
2, 101916, Note_off_c, 1, 63, 64
2, 101956, Note_on_c, 1, 75, 45
2, 101976, Note_off_c, 1, 80, 64
2, 101976, Note_off_c, 1, 68, 64
2, 102000, Note_off_c, 1, 75, 64
2, 102004, Note_on_c, 1, 59, 34
2, 102044, Note_on_c, 1, 63, 28
2, 102052, Note_on_c, 1, 66, 31
2, 102052, Note_on_c, 1, 32, 35
2, 102052, Control_c, 1, 64, 0
2, 102064, Note_on_c, 1, 33, 38
2, 102068, Note_on_c, 1, 30, 37
2, 102068, Note_on_c, 1, 31, 35
2, 102068, Note_on_c, 1, 28, 39
2, 102068, Note_on_c, 1, 29, 39
2, 102084, Note_on_c, 1, 81, 54
2, 102084, Note_on_c, 1, 69, 35
2, 102120, Note_off_c, 1, 30, 35
2, 102120, Note_off_c, 1, 29, 35
2, 102124, Note_off_c, 1, 32, 35
2, 102128, Note_off_c, 1, 33, 35
2, 102128, Note_off_c, 1, 31, 35
2, 102136, Note_off_c, 1, 28, 35
2, 102220, Control_c, 1, 64, 127
2, 102288, Note_off_c, 1, 66, 64
2, 102292, Note_off_c, 1, 81, 64
2, 102292, Note_off_c, 1, 69, 64
2, 102292, Control_c, 1, 64, 0
2, 102312, Note_off_c, 1, 63, 64
2, 102376, Note_off_c, 1, 59, 64
2, 102548, Note_on_c, 1, 32, 36
2, 102552, Note_on_c, 1, 30, 37
2, 102552, Note_on_c, 1, 28, 39
2, 102556, Note_on_c, 1, 33, 37
2, 102556, Note_on_c, 1, 29, 39
2, 102560, Note_on_c, 1, 31, 35
2, 102604, Note_off_c, 1, 30, 35
2, 102608, Note_off_c, 1, 29, 35
2, 102612, Note_off_c, 1, 32, 35
2, 102612, Note_off_c, 1, 33, 35
2, 102612, Note_off_c, 1, 31, 35
2, 102620, Note_off_c, 1, 28, 35
2, 103020, Note_on_c, 1, 32, 40
2, 103028, Note_on_c, 1, 30, 39
2, 103032, Note_on_c, 1, 31, 43
2, 103036, Note_on_c, 1, 33, 43
2, 103036, Note_on_c, 1, 28, 43
2, 103040, Note_on_c, 1, 29, 43
2, 103088, Note_off_c, 1, 31, 35
2, 103092, Note_off_c, 1, 32, 35
2, 103092, Note_off_c, 1, 30, 35
2, 103092, Note_off_c, 1, 33, 35
2, 103096, Note_off_c, 1, 29, 35
2, 103104, Note_off_c, 1, 28, 35
2, 103212, Note_on_c, 1, 69, 52
2, 103212, Note_on_c, 1, 81, 64
2, 103212, Note_on_c, 1, 59, 32
2, 103216, Note_on_c, 1, 66, 30
2, 103216, Note_on_c, 1, 63, 28
2, 103428, Control_c, 1, 64, 127
2, 103440, Note_on_c, 1, 32, 40
2, 103456, Note_on_c, 1, 30, 41
2, 103456, Note_on_c, 1, 28, 44
2, 103456, Note_on_c, 1, 33, 43
2, 103460, Note_on_c, 1, 31, 37
2, 103464, Note_on_c, 1, 29, 43
2, 103472, Note_off_c, 1, 66, 0
2, 103488, Note_off_c, 1, 63, 0
2, 103492, Note_off_c, 1, 59, 0
2, 103504, Note_off_c, 1, 32, 35
2, 103512, Note_off_c, 1, 30, 35
2, 103512, Note_off_c, 1, 31, 35
2, 103512, Note_off_c, 1, 29, 35
2, 103516, Note_off_c, 1, 33, 35
2, 103520, Note_off_c, 1, 28, 35
2, 103536, Note_on_c, 1, 75, 54
2, 103544, Note_off_c, 1, 69, 0
2, 103548, Note_off_c, 1, 81, 64
2, 103556, Note_off_c, 1, 75, 64
2, 103652, Note_on_c, 1, 63, 34
2, 103652, Note_on_c, 1, 81, 52
2, 103652, Note_on_c, 1, 69, 45
2, 103656, Note_on_c, 1, 59, 34
2, 103656, Note_on_c, 1, 66, 28
2, 103656, Control_c, 1, 64, 0
2, 103736, Control_c, 1, 64, 127
2, 103768, Note_on_c, 1, 75, 50
2, 103776, Note_off_c, 1, 63, 64
2, 103784, Note_off_c, 1, 81, 64
2, 103784, Note_off_c, 1, 59, 64
2, 103788, Note_off_c, 1, 69, 64
2, 103788, Note_off_c, 1, 66, 64
2, 103800, Note_off_c, 1, 75, 64
2, 103836, Note_on_c, 1, 32, 38
2, 103844, Note_on_c, 1, 33, 39
2, 103848, Note_on_c, 1, 31, 33
2, 103852, Note_on_c, 1, 30, 40
2, 103856, Note_on_c, 1, 28, 41
2, 103860, Note_on_c, 1, 29, 42
2, 103892, Note_on_c, 1, 82, 53
2, 103896, Note_on_c, 1, 70, 48
2, 103900, Note_on_c, 1, 67, 31
2, 103908, Note_on_c, 1, 63, 28
2, 103908, Control_c, 1, 64, 0
2, 103912, Note_off_c, 1, 32, 35
2, 103916, Note_off_c, 1, 33, 35
2, 103916, Note_off_c, 1, 31, 35
2, 103916, Note_off_c, 1, 30, 35
2, 103916, Note_off_c, 1, 28, 35
2, 103916, Note_off_c, 1, 29, 35
2, 103916, Note_on_c, 1, 58, 28
2, 104008, Control_c, 1, 64, 127
2, 104028, Note_off_c, 1, 63, 64
2, 104032, Note_off_c, 1, 70, 64
2, 104032, Note_off_c, 1, 67, 64
2, 104032, Note_off_c, 1, 58, 64
2, 104048, Note_off_c, 1, 82, 64
2, 104228, Control_c, 1, 64, 0
2, 104336, Note_on_c, 1, 32, 42
2, 104340, Note_on_c, 1, 30, 43
2, 104340, Note_on_c, 1, 28, 45
2, 104348, Note_on_c, 1, 29, 44
2, 104348, Note_on_c, 1, 33, 43
2, 104348, Note_on_c, 1, 31, 41
2, 104368, Note_on_c, 1, 63, 37
2, 104372, Note_on_c, 1, 57, 38
2, 104376, Note_on_c, 1, 84, 52
2, 104376, Note_on_c, 1, 66, 32
2, 104376, Note_on_c, 1, 72, 38
2, 104404, Note_off_c, 1, 33, 35
2, 104408, Note_off_c, 1, 30, 35
2, 104412, Note_off_c, 1, 32, 35
2, 104412, Note_off_c, 1, 28, 35
2, 104412, Note_off_c, 1, 29, 35
2, 104412, Note_off_c, 1, 31, 35
2, 104808, Control_c, 1, 64, 127
2, 104824, Note_on_c, 1, 32, 43
2, 104828, Note_on_c, 1, 28, 43
2, 104832, Note_on_c, 1, 30, 42
2, 104836, Note_on_c, 1, 33, 44
2, 104836, Note_on_c, 1, 31, 43
2, 104836, Note_on_c, 1, 29, 44
2, 104856, Note_off_c, 1, 72, 64
2, 104856, Note_off_c, 1, 84, 64
2, 104864, Note_off_c, 1, 66, 64
2, 104868, Note_off_c, 1, 63, 64
2, 104876, Note_off_c, 1, 57, 64
2, 104896, Note_off_c, 1, 30, 35
2, 104896, Note_off_c, 1, 33, 35
2, 104896, Note_off_c, 1, 29, 35
2, 104904, Note_off_c, 1, 32, 35
2, 104904, Note_off_c, 1, 28, 35
2, 104904, Note_off_c, 1, 31, 35
2, 105072, Note_on_c, 1, 82, 39
2, 105072, Note_on_c, 1, 67, 32
2, 105072, Note_on_c, 1, 70, 31
2, 105076, Note_on_c, 1, 63, 28
2, 105076, Note_on_c, 1, 58, 28
2, 105080, Control_c, 1, 64, 0
2, 105140, Control_c, 1, 64, 127
2, 105184, Note_off_c, 1, 70, 64
2, 105192, Note_off_c, 1, 82, 64
2, 105272, Note_off_c, 1, 67, 64
2, 105276, Note_off_c, 1, 63, 64
2, 105276, Note_off_c, 1, 58, 64
2, 105276, Note_on_c, 1, 30, 43
2, 105276, Note_on_c, 1, 32, 40
2, 105288, Note_on_c, 1, 28, 45
2, 105288, Note_on_c, 1, 33, 41
2, 105292, Note_on_c, 1, 29, 44
2, 105292, Note_on_c, 1, 31, 39
2, 105340, Note_off_c, 1, 29, 35
2, 105348, Note_off_c, 1, 30, 35
2, 105352, Note_off_c, 1, 28, 35
2, 105352, Note_off_c, 1, 33, 35
2, 105352, Note_off_c, 1, 31, 35
2, 105360, Note_off_c, 1, 32, 35
2, 105380, Note_on_c, 1, 79, 49
2, 105440, Control_c, 1, 64, 0
2, 105496, Note_on_c, 1, 58, 30
2, 105500, Note_on_c, 1, 68, 32
2, 105504, Note_on_c, 1, 77, 59
2, 105512, Note_off_c, 1, 79, 64
2, 105512, Note_on_c, 1, 62, 32
2, 105624, Note_on_c, 1, 70, 54
2, 105632, Note_off_c, 1, 77, 64
2, 105644, Note_off_c, 1, 62, 64
2, 105652, Note_off_c, 1, 68, 64
2, 105684, Note_off_c, 1, 58, 64
2, 105716, Note_on_c, 1, 32, 40
2, 105724, Note_on_c, 1, 29, 43
2, 105728, Note_on_c, 1, 28, 43
2, 105728, Note_on_c, 1, 31, 40
2, 105728, Note_on_c, 1, 30, 42
2, 105728, Note_on_c, 1, 33, 42
2, 105744, Note_on_c, 1, 75, 49
2, 105744, Note_on_c, 1, 67, 31
2, 105756, Note_on_c, 1, 63, 28
2, 105760, Note_off_c, 1, 70, 64
2, 105768, Note_off_c, 1, 29, 35
2, 105788, Note_off_c, 1, 28, 35
2, 105792, Note_off_c, 1, 31, 35
2, 105792, Note_off_c, 1, 30, 35
2, 105792, Control_c, 1, 64, 127
2, 105796, Note_off_c, 1, 33, 35
2, 105800, Note_off_c, 1, 32, 35
2, 105800, Note_off_c, 1, 63, 64
2, 105804, Note_off_c, 1, 75, 64
2, 105812, Note_off_c, 1, 67, 64
2, 106096, Control_c, 1, 64, 0
2, 106212, Note_on_c, 1, 32, 41
2, 106220, Note_on_c, 1, 30, 40
2, 106224, Note_on_c, 1, 28, 46
2, 106224, Note_on_c, 1, 31, 43
2, 106224, Note_on_c, 1, 33, 44
2, 106228, Note_on_c, 1, 29, 44
2, 106240, Note_on_c, 1, 82, 43
2, 106244, Note_on_c, 1, 79, 34
2, 106244, Note_on_c, 1, 87, 32
2, 106244, Note_on_c, 1, 51, 32
2, 106248, Note_on_c, 1, 39, 29
2, 106248, Note_on_c, 1, 75, 28
2, 106268, Control_c, 1, 64, 127
2, 106276, Note_off_c, 1, 29, 35
2, 106288, Note_off_c, 1, 30, 35
2, 106296, Note_off_c, 1, 33, 35
2, 106300, Note_off_c, 1, 32, 35
2, 106300, Note_off_c, 1, 31, 35
2, 106304, Note_off_c, 1, 28, 35
2, 106304, Note_off_c, 1, 51, 64
2, 106308, Note_off_c, 1, 75, 64
2, 106312, Note_off_c, 1, 39, 64
2, 106320, Note_off_c, 1, 79, 64
2, 106328, Note_off_c, 1, 82, 64
2, 106340, Note_off_c, 1, 87, 64
2, 106580, Control_c, 1, 64, 0
2, 106680, Note_on_c, 1, 82, 76
2, 106684, Note_on_c, 1, 79, 71
2, 106684, Control_c, 1, 64, 127
2, 106700, Note_off_c, 1, 82, 64
2, 106700, Note_off_c, 1, 79, 64
2, 106720, Note_on_c, 1, 32, 50
2, 106732, Note_on_c, 1, 30, 43
2, 106732, Note_on_c, 1, 31, 46
2, 106732, Note_on_c, 1, 33, 51
2, 106740, Note_on_c, 1, 28, 50
2, 106740, Note_on_c, 1, 29, 47
2, 106768, Note_off_c, 1, 31, 35
2, 106768, Note_off_c, 1, 33, 35
2, 106772, Note_off_c, 1, 32, 35
2, 106780, Note_off_c, 1, 30, 35
2, 106780, Note_off_c, 1, 29, 35
2, 106784, Note_off_c, 1, 28, 35
2, 106800, Note_on_c, 1, 78, 59
2, 106800, Note_on_c, 1, 81, 68
2, 106800, Control_c, 1, 64, 0
2, 106904, Note_off_c, 1, 78, 64
2, 106904, Note_off_c, 1, 81, 64
2, 106908, Note_on_c, 1, 77, 62
2, 106908, Note_on_c, 1, 80, 59
2, 107016, Note_off_c, 1, 80, 64
2, 107028, Note_off_c, 1, 77, 64
2, 107028, Note_on_c, 1, 76, 63
2, 107032, Note_on_c, 1, 79, 55
2, 107092, Note_off_c, 1, 79, 64
2, 107100, Note_off_c, 1, 76, 64
2, 107124, Note_on_c, 1, 32, 42
2, 107128, Note_on_c, 1, 30, 43
2, 107132, Note_on_c, 1, 33, 43
2, 107136, Note_on_c, 1, 28, 45
2, 107144, Note_on_c, 1, 31, 40
2, 107148, Note_on_c, 1, 29, 45
2, 107148, Note_on_c, 1, 75, 76
2, 107152, Note_on_c, 1, 78, 66
2, 107168, Note_off_c, 1, 30, 35
2, 107176, Note_off_c, 1, 29, 35
2, 107180, Note_off_c, 1, 28, 35
2, 107188, Note_off_c, 1, 32, 35
2, 107188, Note_off_c, 1, 33, 35
2, 107188, Note_off_c, 1, 31, 35
2, 107248, Note_off_c, 1, 78, 64
2, 107264, Note_off_c, 1, 75, 64
2, 107268, Note_on_c, 1, 77, 57
2, 107268, Note_on_c, 1, 74, 62
2, 107372, Note_off_c, 1, 77, 64
2, 107372, Note_on_c, 1, 73, 55
2, 107372, Note_on_c, 1, 76, 59
2, 107376, Note_off_c, 1, 74, 64
2, 107484, Note_off_c, 1, 76, 64
2, 107488, Note_on_c, 1, 75, 62
2, 107488, Note_on_c, 1, 72, 53
2, 107492, Note_off_c, 1, 73, 64
2, 107508, Control_c, 1, 64, 127
2, 107524, Note_off_c, 1, 72, 64
2, 107524, Note_off_c, 1, 75, 64
2, 107576, Note_on_c, 1, 30, 43
2, 107576, Note_on_c, 1, 32, 42
2, 107580, Note_on_c, 1, 28, 45
2, 107588, Note_on_c, 1, 33, 44
2, 107592, Note_on_c, 1, 29, 44
2, 107592, Note_on_c, 1, 31, 41
2, 107592, Note_on_c, 1, 74, 64
2, 107592, Note_on_c, 1, 71, 64
2, 107592, Control_c, 1, 64, 0
2, 107616, Note_off_c, 1, 29, 35
2, 107632, Note_off_c, 1, 30, 35
2, 107640, Note_off_c, 1, 32, 35
2, 107640, Note_off_c, 1, 28, 35
2, 107640, Note_off_c, 1, 33, 35
2, 107644, Note_off_c, 1, 31, 35
2, 107700, Note_off_c, 1, 74, 0
2, 107704, Note_off_c, 1, 71, 0
2, 107704, Note_on_c, 1, 73, 61
2, 107704, Note_on_c, 1, 70, 62
2, 107800, Note_off_c, 1, 73, 64
2, 107804, Note_off_c, 1, 70, 64
2, 107804, Note_on_c, 1, 69, 59
2, 107804, Note_on_c, 1, 72, 55
2, 107904, Note_off_c, 1, 72, 64
2, 107904, Note_on_c, 1, 71, 55
2, 107908, Note_on_c, 1, 68, 49
2, 107916, Note_off_c, 1, 69, 64
2, 107976, Note_on_c, 1, 32, 39
2, 107984, Note_on_c, 1, 30, 42
2, 107984, Note_on_c, 1, 28, 43
2, 107992, Note_on_c, 1, 33, 43
2, 107992, Note_on_c, 1, 31, 37
2, 107996, Note_on_c, 1, 29, 43
2, 108012, Note_on_c, 1, 67, 36
2, 108012, Note_on_c, 1, 70, 55
2, 108016, Note_off_c, 1, 71, 64
2, 108016, Note_off_c, 1, 68, 64
2, 108036, Note_off_c, 1, 30, 35
2, 108036, Note_off_c, 1, 33, 35
2, 108036, Note_off_c, 1, 29, 35
2, 108044, Note_off_c, 1, 28, 35
2, 108044, Note_off_c, 1, 31, 35
2, 108052, Note_off_c, 1, 32, 35
2, 108224, Note_off_c, 1, 67, 64
2, 108224, Note_off_c, 1, 70, 64
2, 108460, Note_on_c, 1, 55, 71
2, 108460, Note_on_c, 1, 32, 44
2, 108464, Note_on_c, 1, 43, 55
2, 108464, Note_on_c, 1, 30, 43
2, 108464, Note_on_c, 1, 28, 49
2, 108468, Note_on_c, 1, 33, 44
2, 108468, Note_on_c, 1, 31, 43
2, 108476, Note_on_c, 1, 29, 47
2, 108516, Note_off_c, 1, 30, 35
2, 108516, Note_off_c, 1, 33, 35
2, 108516, Note_off_c, 1, 31, 35
2, 108520, Note_off_c, 1, 32, 35
2, 108520, Note_off_c, 1, 29, 35
2, 108524, Note_off_c, 1, 28, 35
2, 108572, Note_on_c, 1, 44, 52
2, 108576, Note_off_c, 1, 43, 64
2, 108576, Note_on_c, 1, 56, 64
2, 108580, Note_off_c, 1, 55, 64
2, 108688, Note_off_c, 1, 44, 64
2, 108692, Note_off_c, 1, 56, 64
2, 108692, Note_on_c, 1, 58, 66
2, 108692, Note_on_c, 1, 46, 49
2, 108788, Note_off_c, 1, 58, 64
2, 108788, Note_off_c, 1, 46, 64
2, 108912, Note_on_c, 1, 30, 43
2, 108920, Note_on_c, 1, 28, 45
2, 108920, Note_on_c, 1, 32, 39
2, 108920, Note_on_c, 1, 29, 46
2, 108932, Note_on_c, 1, 33, 41
2, 108936, Note_on_c, 1, 31, 32
2, 108960, Note_off_c, 1, 30, 35
2, 108960, Note_off_c, 1, 29, 35
2, 108964, Note_off_c, 1, 28, 35
2, 108976, Note_off_c, 1, 33, 35
2, 108984, Note_off_c, 1, 32, 35
2, 108984, Note_off_c, 1, 31, 35
2, 109152, Note_on_c, 1, 67, 71
2, 109152, Note_on_c, 1, 63, 57
2, 109152, Note_on_c, 1, 29, 60
2, 109156, Note_on_c, 1, 57, 66
2, 109156, Note_on_c, 1, 41, 56
2, 109172, Note_off_c, 1, 63, 64
2, 109176, Note_off_c, 1, 57, 64
2, 109180, Note_off_c, 1, 67, 64
2, 109184, Note_off_c, 1, 29, 64
2, 109184, Note_off_c, 1, 41, 64
2, 109364, Note_on_c, 1, 30, 43
2, 109372, Note_on_c, 1, 28, 46
2, 109372, Note_on_c, 1, 32, 41
2, 109376, Note_on_c, 1, 29, 46
2, 109384, Note_on_c, 1, 65, 71
2, 109384, Note_on_c, 1, 62, 63
2, 109384, Control_c, 1, 64, 127
2, 109388, Note_on_c, 1, 56, 59
2, 109388, Note_on_c, 1, 34, 53
2, 109388, Note_on_c, 1, 33, 43
2, 109388, Note_on_c, 1, 46, 49
2, 109392, Note_on_c, 1, 31, 36
2, 109420, Note_off_c, 1, 62, 64
2, 109420, Note_off_c, 1, 56, 64
2, 109420, Note_off_c, 1, 34, 64
2, 109420, Note_off_c, 1, 46, 64
2, 109424, Note_off_c, 1, 29, 35
2, 109428, Note_off_c, 1, 30, 35
2, 109428, Note_off_c, 1, 65, 64
2, 109432, Note_off_c, 1, 28, 35
2, 109432, Note_off_c, 1, 31, 35
2, 109436, Note_off_c, 1, 33, 35
2, 109444, Note_off_c, 1, 32, 35
2, 109600, Control_c, 1, 64, 0
2, 109852, Note_on_c, 1, 56, 36
2, 109856, Note_on_c, 1, 70, 57
2, 109856, Note_on_c, 1, 62, 56
2, 109856, Note_on_c, 1, 53, 37
2, 109856, Note_on_c, 1, 46, 36
2, 109856, Control_c, 1, 64, 127
2, 109868, Note_on_c, 1, 32, 39
2, 109872, Note_on_c, 1, 30, 43
2, 109876, Note_off_c, 1, 70, 64
2, 109876, Note_off_c, 1, 62, 64
2, 109876, Note_on_c, 1, 28, 46
2, 109880, Note_on_c, 1, 31, 40
2, 109884, Note_on_c, 1, 29, 46
2, 109884, Note_on_c, 1, 33, 43
2, 109892, Note_off_c, 1, 56, 64
2, 109892, Note_off_c, 1, 46, 64
2, 109900, Note_off_c, 1, 53, 64
2, 109932, Note_off_c, 1, 30, 35
2, 109932, Note_off_c, 1, 29, 35
2, 109936, Note_off_c, 1, 28, 35
2, 109940, Note_off_c, 1, 33, 35
2, 109948, Note_off_c, 1, 32, 35
2, 109952, Note_off_c, 1, 31, 35
2, 110092, Control_c, 1, 64, 0
2, 110312, Note_on_c, 1, 32, 56
2, 110316, Note_on_c, 1, 31, 51
2, 110324, Note_on_c, 1, 33, 55
2, 110324, Note_on_c, 1, 80, 68
2, 110328, Note_on_c, 1, 77, 76
2, 110328, Note_on_c, 1, 30, 47
2, 110332, Note_on_c, 1, 29, 52
2, 110336, Note_on_c, 1, 28, 54
2, 110360, Note_off_c, 1, 31, 35
2, 110360, Note_off_c, 1, 33, 35
2, 110368, Note_off_c, 1, 32, 35
2, 110368, Note_off_c, 1, 29, 35
2, 110372, Note_off_c, 1, 30, 35
2, 110376, Note_off_c, 1, 28, 35
2, 110432, Note_off_c, 1, 80, 64
2, 110444, Note_off_c, 1, 77, 64
2, 110444, Note_on_c, 1, 76, 63
2, 110444, Note_on_c, 1, 79, 56
2, 110552, Note_off_c, 1, 79, 64
2, 110552, Note_on_c, 1, 75, 60
2, 110552, Note_on_c, 1, 78, 57
2, 110556, Note_off_c, 1, 76, 64
2, 110668, Note_off_c, 1, 75, 64
2, 110668, Note_off_c, 1, 78, 64
2, 110668, Note_on_c, 1, 77, 48
2, 110668, Note_on_c, 1, 74, 45
2, 110748, Note_on_c, 1, 32, 39
2, 110748, Note_on_c, 1, 30, 42
2, 110756, Note_on_c, 1, 28, 43
2, 110760, Note_on_c, 1, 29, 43
2, 110776, Note_off_c, 1, 77, 64
2, 110780, Note_off_c, 1, 74, 64
2, 110780, Note_on_c, 1, 73, 59
2, 110780, Note_on_c, 1, 76, 64
2, 110784, Note_off_c, 1, 29, 35
2, 110788, Note_off_c, 1, 30, 35
2, 110792, Note_off_c, 1, 28, 35
2, 110808, Note_off_c, 1, 32, 35
2, 110880, Note_off_c, 1, 76, 64
2, 110884, Note_on_c, 1, 75, 58
2, 110888, Note_off_c, 1, 73, 64
2, 110888, Note_on_c, 1, 72, 44
2, 110980, Note_off_c, 1, 75, 64
2, 110988, Note_on_c, 1, 71, 48
2, 110992, Note_off_c, 1, 72, 64
2, 110996, Note_on_c, 1, 74, 39
2, 111092, Note_on_c, 1, 73, 50
2, 111096, Note_off_c, 1, 74, 0
2, 111100, Note_off_c, 1, 71, 0
2, 111100, Note_on_c, 1, 70, 50
2, 111124, Control_c, 1, 64, 127
2, 111128, Note_off_c, 1, 73, 64
2, 111128, Note_off_c, 1, 70, 64
2, 111164, Control_c, 1, 64, 0
2, 111188, Note_on_c, 1, 32, 43
2, 111192, Note_on_c, 1, 30, 43
2, 111192, Note_on_c, 1, 28, 45
2, 111204, Note_on_c, 1, 31, 41
2, 111204, Note_on_c, 1, 33, 43
2, 111204, Note_on_c, 1, 29, 45
2, 111208, Note_on_c, 1, 72, 60
2, 111208, Note_on_c, 1, 69, 59
2, 111220, Note_off_c, 1, 29, 35
2, 111232, Note_off_c, 1, 30, 35
2, 111240, Note_off_c, 1, 33, 35
2, 111244, Note_off_c, 1, 28, 35
2, 111248, Note_off_c, 1, 31, 35
2, 111252, Note_off_c, 1, 32, 35
2, 111304, Note_off_c, 1, 72, 64
2, 111312, Note_off_c, 1, 69, 64
2, 111312, Note_on_c, 1, 68, 55
2, 111312, Note_on_c, 1, 71, 55
2, 111412, Note_off_c, 1, 68, 64
2, 111416, Note_off_c, 1, 71, 64
2, 111416, Note_on_c, 1, 70, 58
2, 111416, Note_on_c, 1, 67, 54
2, 111432, Control_c, 1, 64, 127
2, 111452, Note_off_c, 1, 70, 64
2, 111492, Note_off_c, 1, 67, 64
2, 111512, Note_on_c, 1, 66, 53
2, 111512, Note_on_c, 1, 69, 57
2, 111516, Control_c, 1, 64, 0
2, 111600, Note_on_c, 1, 32, 43
2, 111600, Note_on_c, 1, 30, 41
2, 111600, Note_on_c, 1, 28, 43
2, 111608, Note_on_c, 1, 33, 44
2, 111608, Note_on_c, 1, 31, 41
2, 111612, Note_on_c, 1, 29, 44
2, 111616, Note_off_c, 1, 66, 64
2, 111624, Note_on_c, 1, 68, 57
2, 111628, Note_on_c, 1, 65, 36
2, 111632, Note_off_c, 1, 69, 64
2, 111656, Note_off_c, 1, 29, 35
2, 111660, Note_off_c, 1, 30, 35
2, 111660, Note_off_c, 1, 28, 35
2, 111664, Note_off_c, 1, 32, 35
2, 111664, Note_off_c, 1, 33, 35
2, 111664, Note_off_c, 1, 31, 35
2, 111700, Note_off_c, 1, 68, 64
2, 111700, Note_off_c, 1, 65, 64
2, 112064, Note_on_c, 1, 32, 41
2, 112068, Note_on_c, 1, 30, 43
2, 112072, Note_on_c, 1, 28, 44
2, 112080, Note_on_c, 1, 29, 45
2, 112080, Note_on_c, 1, 53, 71
2, 112080, Note_on_c, 1, 41, 37
2, 112084, Note_on_c, 1, 33, 43
2, 112088, Note_on_c, 1, 31, 37
2, 112116, Note_off_c, 1, 30, 35
2, 112116, Note_off_c, 1, 29, 35
2, 112116, Note_off_c, 1, 33, 35
2, 112120, Note_off_c, 1, 28, 35
2, 112128, Note_off_c, 1, 31, 35
2, 112132, Note_off_c, 1, 32, 35
2, 112200, Note_off_c, 1, 41, 64
2, 112200, Note_on_c, 1, 43, 37
2, 112200, Note_on_c, 1, 55, 63
2, 112212, Note_off_c, 1, 53, 64
2, 112308, Note_on_c, 1, 56, 55
2, 112312, Note_off_c, 1, 55, 64
2, 112320, Note_on_c, 1, 44, 34
2, 112324, Note_off_c, 1, 43, 64
2, 112372, Note_off_c, 1, 56, 64
2, 112388, Note_off_c, 1, 44, 64
2, 112520, Note_on_c, 1, 32, 42
2, 112520, Note_on_c, 1, 30, 43
2, 112520, Note_on_c, 1, 29, 47
2, 112524, Note_on_c, 1, 28, 44
2, 112532, Note_on_c, 1, 33, 42
2, 112536, Note_on_c, 1, 31, 40
2, 112564, Note_off_c, 1, 30, 35
2, 112572, Note_off_c, 1, 29, 35
2, 112572, Note_off_c, 1, 28, 35
2, 112576, Note_off_c, 1, 33, 35
2, 112576, Note_off_c, 1, 31, 35
2, 112584, Note_off_c, 1, 32, 35
2, 112760, Note_on_c, 1, 46, 54
2, 112764, Note_on_c, 1, 62, 66
2, 112764, Note_on_c, 1, 65, 66
2, 112764, Note_on_c, 1, 56, 53
2, 112764, Note_on_c, 1, 34, 49
2, 112776, Note_on_c, 1, 58, 29
2, 112784, Note_off_c, 1, 58, 64
2, 112788, Note_off_c, 1, 46, 64
2, 112792, Note_off_c, 1, 62, 64
2, 112792, Note_off_c, 1, 56, 64
2, 112792, Note_off_c, 1, 34, 64
2, 112796, Note_off_c, 1, 65, 64
2, 112988, Note_on_c, 1, 32, 42
2, 112988, Note_on_c, 1, 30, 42
2, 112992, Note_on_c, 1, 63, 54
2, 112996, Note_on_c, 1, 28, 47
2, 113000, Note_on_c, 1, 58, 57
2, 113000, Note_on_c, 1, 55, 54
2, 113000, Note_on_c, 1, 29, 47
2, 113000, Note_on_c, 1, 31, 41
2, 113000, Note_on_c, 1, 33, 43
2, 113000, Note_on_c, 1, 39, 33
2, 113004, Note_on_c, 1, 51, 30
2, 113004, Note_on_c, 1, 46, 29
2, 113032, Note_off_c, 1, 33, 35
2, 113036, Note_off_c, 1, 30, 35
2, 113040, Note_off_c, 1, 29, 35
2, 113040, Note_off_c, 1, 31, 35
2, 113040, Control_c, 1, 64, 127
2, 113048, Note_off_c, 1, 32, 35
2, 113048, Note_off_c, 1, 28, 35
2, 113052, Note_off_c, 1, 55, 64
2, 113056, Note_off_c, 1, 58, 64
2, 113064, Note_off_c, 1, 63, 64
2, 113064, Note_off_c, 1, 39, 64
2, 113064, Note_off_c, 1, 51, 64
2, 113068, Note_off_c, 1, 46, 64
2, 113220, Control_c, 1, 64, 0
2, 113472, Note_on_c, 1, 32, 55
2, 113476, Note_on_c, 1, 75, 63
2, 113480, Note_on_c, 1, 67, 64
2, 113480, Note_off_c, 1, 67, 64
2, 113480, Note_on_c, 1, 63, 55
2, 113480, Note_on_c, 1, 33, 52
2, 113480, Note_on_c, 1, 39, 33
2, 113480, Control_c, 1, 64, 127
2, 113484, Note_off_c, 1, 75, 64
2, 113484, Note_off_c, 1, 63, 64
2, 113484, Note_on_c, 1, 31, 47
2, 113492, Note_on_c, 1, 30, 45
2, 113492, Note_on_c, 1, 29, 49
2, 113492, Note_on_c, 1, 28, 50
2, 113500, Note_off_c, 1, 39, 64
2, 113516, Note_off_c, 1, 33, 35
2, 113524, Note_off_c, 1, 32, 35
2, 113524, Note_off_c, 1, 31, 35
2, 113532, Note_off_c, 1, 30, 35
2, 113536, Note_off_c, 1, 29, 35
2, 113540, Note_off_c, 1, 28, 35
2, 113816, Control_c, 1, 64, 0
2, 113956, Note_on_c, 1, 79, 66
2, 113956, Note_on_c, 1, 82, 66
2, 113960, Note_on_c, 1, 32, 46
2, 113964, Note_on_c, 1, 30, 43
2, 113972, Note_on_c, 1, 28, 46
2, 113972, Note_on_c, 1, 31, 43
2, 113976, Note_on_c, 1, 29, 43
2, 114000, Note_off_c, 1, 29, 35
2, 114004, Note_off_c, 1, 31, 35
2, 114008, Note_off_c, 1, 30, 35
2, 114016, Note_off_c, 1, 32, 35
2, 114016, Note_off_c, 1, 28, 35
2, 114064, Note_off_c, 1, 82, 64
2, 114072, Note_on_c, 1, 78, 62
2, 114076, Note_off_c, 1, 79, 64
2, 114080, Note_on_c, 1, 81, 55
2, 114184, Note_off_c, 1, 78, 64
2, 114188, Note_off_c, 1, 81, 64
2, 114188, Note_on_c, 1, 77, 59
2, 114188, Note_on_c, 1, 80, 57
2, 114296, Note_off_c, 1, 80, 64
2, 114300, Note_off_c, 1, 77, 64
2, 114300, Note_on_c, 1, 76, 58
2, 114304, Note_on_c, 1, 79, 46
2, 114388, Note_off_c, 1, 76, 64
2, 114388, Note_off_c, 1, 79, 64
2, 114392, Note_on_c, 1, 32, 37
2, 114408, Note_on_c, 1, 30, 40
2, 114408, Note_on_c, 1, 28, 43
2, 114412, Note_on_c, 1, 29, 42
2, 114416, Note_on_c, 1, 75, 61
2, 114420, Note_on_c, 1, 78, 59
2, 114456, Note_off_c, 1, 30, 35
2, 114460, Note_off_c, 1, 32, 35
2, 114460, Note_off_c, 1, 29, 35
2, 114472, Note_off_c, 1, 28, 35
2, 114520, Note_off_c, 1, 75, 64
2, 114520, Note_on_c, 1, 74, 57
2, 114520, Note_on_c, 1, 77, 52
2, 114536, Note_off_c, 1, 78, 64
2, 114628, Note_off_c, 1, 74, 64
2, 114628, Note_off_c, 1, 77, 64
2, 114628, Note_on_c, 1, 76, 55
2, 114628, Note_on_c, 1, 73, 43
2, 114732, Note_off_c, 1, 73, 64
2, 114740, Note_off_c, 1, 76, 64
2, 114744, Note_on_c, 1, 75, 58
2, 114744, Note_on_c, 1, 72, 44
2, 114756, Control_c, 1, 64, 127
2, 114776, Note_off_c, 1, 75, 64
2, 114776, Note_off_c, 1, 72, 64
2, 114836, Note_on_c, 1, 32, 41
2, 114840, Note_on_c, 1, 30, 43
2, 114840, Note_on_c, 1, 28, 44
2, 114844, Note_on_c, 1, 29, 44
2, 114844, Control_c, 1, 64, 0
2, 114848, Note_on_c, 1, 31, 37
2, 114848, Note_on_c, 1, 71, 54
2, 114852, Note_on_c, 1, 74, 61
2, 114856, Note_on_c, 1, 33, 36
2, 114884, Note_off_c, 1, 29, 35
2, 114892, Note_off_c, 1, 33, 35
2, 114896, Note_off_c, 1, 30, 35
2, 114896, Note_off_c, 1, 31, 35
2, 114904, Note_off_c, 1, 32, 35
2, 114904, Note_off_c, 1, 28, 35
2, 114952, Note_off_c, 1, 74, 64
2, 114956, Note_on_c, 1, 73, 52
2, 114960, Note_off_c, 1, 71, 64
2, 114960, Note_on_c, 1, 70, 59
2, 115052, Note_off_c, 1, 73, 64
2, 115052, Note_off_c, 1, 70, 64
2, 115052, Note_on_c, 1, 69, 55
2, 115056, Note_on_c, 1, 72, 38
2, 115148, Note_off_c, 1, 72, 64
2, 115152, Note_on_c, 1, 71, 36
2, 115152, Note_on_c, 1, 68, 37
2, 115156, Note_off_c, 1, 69, 64
2, 115236, Note_on_c, 1, 32, 38
2, 115248, Note_on_c, 1, 28, 42
2, 115256, Note_on_c, 1, 30, 40
2, 115260, Note_off_c, 1, 68, 0
2, 115260, Note_on_c, 1, 67, 36
2, 115260, Note_on_c, 1, 29, 40
2, 115264, Note_off_c, 1, 71, 0
2, 115264, Note_on_c, 1, 70, 50
2, 115292, Note_off_c, 1, 29, 35
2, 115296, Note_off_c, 1, 30, 35
2, 115304, Note_off_c, 1, 28, 35
2, 115308, Note_off_c, 1, 32, 35
2, 115468, Note_off_c, 1, 70, 64
2, 115480, Note_off_c, 1, 67, 64
2, 115688, Note_on_c, 1, 32, 39
2, 115696, Note_on_c, 1, 55, 48
2, 115700, Note_on_c, 1, 30, 39
2, 115700, Note_on_c, 1, 43, 31
2, 115708, Note_on_c, 1, 28, 41
2, 115708, Note_on_c, 1, 33, 41
2, 115712, Note_on_c, 1, 31, 39
2, 115716, Note_on_c, 1, 29, 37
2, 115744, Note_off_c, 1, 29, 35
2, 115756, Note_off_c, 1, 30, 35
2, 115756, Note_off_c, 1, 33, 35
2, 115756, Note_off_c, 1, 31, 35
2, 115760, Note_off_c, 1, 28, 35
2, 115772, Note_off_c, 1, 32, 35
2, 115808, Note_on_c, 1, 44, 30
2, 115812, Note_on_c, 1, 56, 40
2, 115816, Note_off_c, 1, 55, 64
2, 115820, Note_off_c, 1, 43, 64
2, 115924, Note_on_c, 1, 58, 33
2, 115928, Note_on_c, 1, 46, 36
2, 115932, Note_off_c, 1, 56, 64
2, 115940, Note_off_c, 1, 44, 64
2, 115984, Note_off_c, 1, 58, 64
2, 116000, Note_off_c, 1, 46, 64
2, 116136, Note_on_c, 1, 32, 38
2, 116140, Note_on_c, 1, 30, 37
2, 116148, Note_on_c, 1, 28, 43
2, 116156, Note_on_c, 1, 31, 37
2, 116156, Note_on_c, 1, 33, 38
2, 116164, Note_on_c, 1, 29, 43
2, 116200, Note_off_c, 1, 31, 35
2, 116200, Note_off_c, 1, 33, 35
2, 116200, Note_off_c, 1, 29, 35
2, 116204, Note_off_c, 1, 30, 35
2, 116216, Note_off_c, 1, 32, 35
2, 116224, Note_off_c, 1, 28, 35
2, 116376, Note_on_c, 1, 67, 81
2, 116380, Note_on_c, 1, 29, 63
2, 116380, Note_on_c, 1, 63, 62
2, 116380, Note_on_c, 1, 41, 63
2, 116384, Note_on_c, 1, 57, 83
2, 116392, Note_off_c, 1, 57, 64
2, 116396, Note_off_c, 1, 67, 64
2, 116396, Note_off_c, 1, 29, 64
2, 116396, Note_off_c, 1, 63, 64
2, 116396, Note_off_c, 1, 41, 64
2, 116596, Note_on_c, 1, 32, 41
2, 116600, Note_on_c, 1, 30, 43
2, 116600, Note_on_c, 1, 28, 44
2, 116600, Note_on_c, 1, 65, 81
2, 116604, Note_on_c, 1, 56, 63
2, 116604, Note_on_c, 1, 34, 66
2, 116604, Note_on_c, 1, 62, 76
2, 116608, Note_on_c, 1, 29, 44
2, 116608, Note_on_c, 1, 46, 66
2, 116616, Note_on_c, 1, 31, 41
2, 116616, Note_on_c, 1, 33, 41
2, 116616, Control_c, 1, 64, 127
2, 116628, Note_off_c, 1, 34, 64
2, 116628, Note_off_c, 1, 46, 64
2, 116632, Note_off_c, 1, 56, 64
2, 116636, Note_off_c, 1, 62, 64
2, 116640, Note_off_c, 1, 65, 64
2, 116660, Note_off_c, 1, 30, 35
2, 116664, Note_off_c, 1, 29, 35
2, 116664, Note_off_c, 1, 31, 35
2, 116668, Note_off_c, 1, 28, 35
2, 116668, Note_off_c, 1, 33, 35
2, 116680, Note_off_c, 1, 32, 35
2, 116840, Control_c, 1, 64, 0
2, 117064, Note_on_c, 1, 70, 71
2, 117072, Note_on_c, 1, 62, 81
2, 117076, Note_on_c, 1, 46, 60
2, 117080, Note_on_c, 1, 53, 64
2, 117080, Note_on_c, 1, 56, 58
2, 117080, Note_on_c, 1, 32, 52
2, 117080, Note_on_c, 1, 31, 50
2, 117080, Note_on_c, 1, 33, 51
2, 117080, Control_c, 1, 64, 127
2, 117084, Note_off_c, 1, 70, 64
2, 117084, Note_off_c, 1, 62, 64
2, 117084, Note_on_c, 1, 30, 43
2, 117088, Note_off_c, 1, 53, 64
2, 117092, Note_off_c, 1, 46, 64
2, 117092, Note_off_c, 1, 56, 64
2, 117096, Note_on_c, 1, 28, 47
2, 117096, Note_on_c, 1, 29, 45
2, 117120, Note_off_c, 1, 33, 35
2, 117132, Note_off_c, 1, 32, 35
2, 117136, Note_off_c, 1, 31, 35
2, 117140, Note_off_c, 1, 30, 35
2, 117140, Note_off_c, 1, 29, 35
2, 117148, Note_off_c, 1, 28, 35
2, 117320, Control_c, 1, 64, 0
2, 117532, Note_on_c, 1, 32, 43
2, 117540, Note_on_c, 1, 30, 42
2, 117556, Note_on_c, 1, 28, 43
2, 117556, Note_on_c, 1, 80, 59
2, 117564, Note_on_c, 1, 29, 43
2, 117576, Note_on_c, 1, 77, 45
2, 117592, Note_off_c, 1, 29, 35
2, 117600, Note_off_c, 1, 30, 35
2, 117600, Note_off_c, 1, 28, 35
2, 117608, Note_off_c, 1, 32, 35
2, 117656, Note_off_c, 1, 80, 64
2, 117656, Note_on_c, 1, 76, 59
2, 117660, Note_off_c, 1, 77, 64
2, 117664, Note_on_c, 1, 79, 49
2, 117768, Note_off_c, 1, 79, 0
2, 117768, Note_on_c, 1, 78, 54
2, 117768, Note_on_c, 1, 75, 58
2, 117772, Note_off_c, 1, 76, 0
2, 117876, Note_off_c, 1, 75, 64
2, 117880, Note_on_c, 1, 74, 52
2, 117888, Note_off_c, 1, 78, 64
2, 117892, Note_on_c, 1, 77, 40
2, 117928, Note_off_c, 1, 77, 64
2, 117932, Note_off_c, 1, 74, 64
2, 117972, Note_on_c, 1, 32, 39
2, 117984, Note_on_c, 1, 30, 42
2, 117988, Note_on_c, 1, 31, 41
2, 117992, Note_on_c, 1, 73, 56
2, 117992, Note_on_c, 1, 76, 59
2, 117992, Note_on_c, 1, 28, 45
2, 117996, Note_on_c, 1, 33, 41
2, 117996, Note_on_c, 1, 29, 44
2, 118044, Note_off_c, 1, 31, 35
2, 118044, Note_off_c, 1, 33, 35
2, 118044, Note_off_c, 1, 29, 35
2, 118048, Note_off_c, 1, 32, 35
2, 118048, Note_off_c, 1, 30, 35
2, 118048, Note_off_c, 1, 28, 35
2, 118108, Note_off_c, 1, 73, 64
2, 118108, Note_off_c, 1, 76, 64
2, 118108, Note_on_c, 1, 75, 60
2, 118112, Note_on_c, 1, 72, 50
2, 118164, Control_c, 1, 64, 127
2, 118176, Note_off_c, 1, 72, 64
2, 118204, Note_off_c, 1, 75, 64
2, 118204, Note_on_c, 1, 71, 50
2, 118208, Note_on_c, 1, 74, 55
2, 118212, Control_c, 1, 64, 0
2, 118320, Note_off_c, 1, 71, 64
2, 118320, Note_on_c, 1, 73, 49
2, 118324, Note_off_c, 1, 74, 64
2, 118328, Note_on_c, 1, 70, 50
2, 118352, Note_off_c, 1, 70, 64
2, 118356, Note_off_c, 1, 73, 64
2, 118392, Note_on_c, 1, 32, 40
2, 118396, Note_on_c, 1, 30, 43
2, 118408, Note_on_c, 1, 28, 44
2, 118408, Note_on_c, 1, 31, 40
2, 118412, Note_on_c, 1, 33, 41
2, 118412, Note_on_c, 1, 29, 44
2, 118424, Note_on_c, 1, 69, 59
2, 118424, Note_on_c, 1, 72, 57
2, 118464, Note_off_c, 1, 32, 35
2, 118464, Note_off_c, 1, 33, 35
2, 118464, Note_off_c, 1, 29, 35
2, 118468, Note_off_c, 1, 30, 35
2, 118468, Note_off_c, 1, 31, 35
2, 118468, Control_c, 1, 64, 127
2, 118476, Note_off_c, 1, 28, 35
2, 118532, Note_off_c, 1, 72, 64
2, 118532, Note_on_c, 1, 68, 61
2, 118536, Note_on_c, 1, 71, 59
2, 118540, Note_off_c, 1, 69, 0
2, 118596, Control_c, 1, 64, 0
2, 118632, Note_off_c, 1, 71, 0
2, 118636, Note_on_c, 1, 70, 59
2, 118644, Note_off_c, 1, 68, 0
2, 118644, Note_on_c, 1, 67, 55
2, 118728, Note_off_c, 1, 70, 64
2, 118740, Note_on_c, 1, 69, 48
2, 118744, Note_on_c, 1, 66, 48
2, 118748, Note_off_c, 1, 67, 64
2, 118812, Note_on_c, 1, 32, 42
2, 118820, Note_on_c, 1, 30, 41
2, 118820, Note_on_c, 1, 31, 42
2, 118820, Note_on_c, 1, 33, 43
2, 118832, Note_on_c, 1, 28, 43
2, 118836, Note_on_c, 1, 29, 44
2, 118844, Note_off_c, 1, 69, 64
2, 118844, Note_off_c, 1, 66, 64
2, 118844, Note_on_c, 1, 65, 37
2, 118848, Note_on_c, 1, 68, 35
2, 118876, Note_off_c, 1, 33, 35
2, 118880, Note_off_c, 1, 32, 35
2, 118888, Note_off_c, 1, 30, 35
2, 118888, Note_off_c, 1, 31, 35
2, 118888, Note_off_c, 1, 29, 35
2, 118892, Note_off_c, 1, 28, 35
2, 118904, Note_off_c, 1, 65, 64
2, 118908, Note_off_c, 1, 68, 64
2, 119268, Note_on_c, 1, 32, 43
2, 119272, Note_on_c, 1, 31, 43
2, 119280, Note_on_c, 1, 33, 44
2, 119284, Note_on_c, 1, 41, 56
2, 119288, Note_on_c, 1, 53, 55
2, 119288, Note_on_c, 1, 30, 40
2, 119288, Note_on_c, 1, 29, 43
2, 119292, Note_on_c, 1, 28, 44
2, 119328, Note_off_c, 1, 31, 35
2, 119328, Note_off_c, 1, 33, 35
2, 119328, Note_off_c, 1, 30, 35
2, 119332, Note_off_c, 1, 32, 35
2, 119340, Note_off_c, 1, 29, 35
2, 119340, Note_off_c, 1, 28, 35
2, 119384, Note_on_c, 1, 55, 55
2, 119388, Note_on_c, 1, 43, 43
2, 119404, Note_off_c, 1, 41, 0
2, 119404, Note_off_c, 1, 53, 0
2, 119500, Note_off_c, 1, 43, 64
2, 119504, Note_on_c, 1, 44, 43
2, 119504, Note_on_c, 1, 56, 54
2, 119508, Note_off_c, 1, 55, 64
2, 119560, Note_off_c, 1, 56, 64
2, 119596, Note_off_c, 1, 44, 64
2, 119692, Note_on_c, 1, 32, 43
2, 119696, Note_on_c, 1, 30, 43
2, 119704, Note_on_c, 1, 31, 42
2, 119704, Note_on_c, 1, 29, 46
2, 119708, Note_on_c, 1, 28, 45
2, 119708, Note_on_c, 1, 33, 43
2, 119744, Note_off_c, 1, 33, 35
2, 119748, Note_off_c, 1, 31, 35
2, 119752, Note_off_c, 1, 32, 35
2, 119756, Note_off_c, 1, 30, 35
2, 119756, Note_off_c, 1, 29, 35
2, 119756, Note_off_c, 1, 28, 35
2, 119940, Note_on_c, 1, 65, 75
2, 119948, Note_on_c, 1, 56, 49
2, 119948, Note_on_c, 1, 58, 81
2, 119948, Note_on_c, 1, 62, 77
2, 119948, Note_on_c, 1, 46, 71
2, 119948, Note_on_c, 1, 34, 66
2, 119956, Note_off_c, 1, 56, 64
2, 119956, Note_off_c, 1, 58, 64
2, 119956, Note_off_c, 1, 62, 64
2, 119956, Note_off_c, 1, 46, 64
2, 119960, Note_off_c, 1, 65, 64
2, 119960, Note_off_c, 1, 34, 64
2, 120144, Note_on_c, 1, 32, 47
2, 120148, Note_on_c, 1, 33, 46
2, 120160, Note_on_c, 1, 31, 44
2, 120164, Note_on_c, 1, 30, 41
2, 120164, Note_on_c, 1, 28, 47
2, 120168, Note_on_c, 1, 63, 68
2, 120172, Note_on_c, 1, 55, 77
2, 120172, Note_on_c, 1, 58, 74
2, 120176, Note_on_c, 1, 39, 59
2, 120176, Note_on_c, 1, 46, 74
2, 120176, Note_on_c, 1, 51, 63
2, 120176, Note_on_c, 1, 29, 45
2, 120176, Control_c, 1, 64, 127
2, 120180, Note_off_c, 1, 55, 0
2, 120188, Note_off_c, 1, 63, 0
2, 120188, Note_off_c, 1, 58, 0
2, 120188, Note_off_c, 1, 46, 0
2, 120188, Note_off_c, 1, 51, 0
2, 120192, Note_off_c, 1, 39, 0
2, 120196, Note_off_c, 1, 33, 35
2, 120196, Note_off_c, 1, 31, 35
2, 120208, Note_off_c, 1, 32, 35
2, 120212, Note_off_c, 1, 29, 35
2, 120220, Note_off_c, 1, 30, 35
2, 120220, Note_off_c, 1, 28, 35
2, 120408, Control_c, 1, 64, 0
2, 120652, Note_on_c, 1, 32, 56
2, 120660, Note_on_c, 1, 30, 55
2, 120664, Note_on_c, 1, 31, 54
2, 120664, Note_on_c, 1, 33, 54
2, 120664, Note_on_c, 1, 29, 54
2, 120672, Note_on_c, 1, 28, 52
2, 120680, Note_on_c, 1, 75, 76
2, 120680, Note_on_c, 1, 67, 89
2, 120680, Note_on_c, 1, 63, 71
2, 120684, Note_on_c, 1, 39, 68
2, 120684, Note_on_c, 1, 70, 71
2, 120684, Note_on_c, 1, 27, 76
2, 120688, Control_c, 1, 64, 127
2, 120708, Note_off_c, 1, 31, 35
2, 120708, Note_off_c, 1, 33, 35
2, 120712, Note_off_c, 1, 32, 35
2, 120712, Note_off_c, 1, 30, 35
2, 120712, Note_off_c, 1, 29, 35
2, 120712, Note_off_c, 1, 39, 64
2, 120716, Note_off_c, 1, 67, 64
2, 120720, Note_off_c, 1, 28, 35
2, 120720, Note_off_c, 1, 63, 64
2, 120720, Note_off_c, 1, 70, 64
2, 120720, Note_off_c, 1, 27, 64
2, 120724, Note_off_c, 1, 75, 64
2, 120924, Control_c, 1, 64, 0
2, 121036, Note_on_c, 1, 75, 62
2, 121040, Control_c, 1, 64, 127
2, 121052, Note_off_c, 1, 75, 64
2, 121148, Note_on_c, 1, 32, 48
2, 121156, Note_on_c, 1, 79, 71
2, 121156, Note_on_c, 1, 73, 53
2, 121156, Control_c, 1, 64, 0
2, 121160, Note_on_c, 1, 58, 55
2, 121160, Note_on_c, 1, 70, 52
2, 121160, Note_on_c, 1, 30, 47
2, 121160, Note_on_c, 1, 31, 44
2, 121164, Note_on_c, 1, 33, 47
2, 121164, Note_on_c, 1, 29, 44
2, 121164, Note_on_c, 1, 28, 44
2, 121200, Note_off_c, 1, 30, 35
2, 121200, Note_off_c, 1, 33, 35
2, 121200, Note_off_c, 1, 29, 35
2, 121200, Note_off_c, 1, 28, 35
2, 121204, Note_off_c, 1, 31, 35
2, 121208, Note_off_c, 1, 32, 35
2, 121280, Control_c, 1, 64, 127
2, 121300, Note_off_c, 1, 73, 64
2, 121300, Note_off_c, 1, 58, 64
2, 121308, Note_off_c, 1, 79, 64
2, 121308, Note_off_c, 1, 70, 64
2, 121380, Note_on_c, 1, 77, 71
2, 121380, Control_c, 1, 64, 0
2, 121384, Note_on_c, 1, 73, 60
2, 121388, Note_on_c, 1, 70, 49
2, 121392, Note_on_c, 1, 58, 48
2, 121460, Note_off_c, 1, 77, 64
2, 121496, Note_on_c, 1, 75, 61
2, 121524, Note_off_c, 1, 58, 64
2, 121528, Note_off_c, 1, 70, 64
2, 121528, Note_off_c, 1, 75, 64
2, 121532, Note_off_c, 1, 73, 64
2, 121592, Note_on_c, 1, 30, 41
2, 121592, Note_on_c, 1, 32, 44
2, 121600, Note_on_c, 1, 31, 42
2, 121604, Note_on_c, 1, 28, 40
2, 121604, Note_on_c, 1, 33, 44
2, 121604, Note_on_c, 1, 29, 40
2, 121612, Note_on_c, 1, 79, 66
2, 121612, Note_on_c, 1, 69, 48
2, 121616, Note_on_c, 1, 72, 60
2, 121616, Note_on_c, 1, 57, 37
2, 121628, Note_off_c, 1, 29, 35
2, 121636, Note_off_c, 1, 30, 35
2, 121644, Note_off_c, 1, 28, 35
2, 121652, Note_off_c, 1, 31, 35
2, 121652, Note_off_c, 1, 33, 35
2, 121656, Note_off_c, 1, 32, 35
2, 121764, Control_c, 1, 64, 127
2, 121772, Note_off_c, 1, 79, 64
2, 121772, Note_off_c, 1, 72, 64
2, 121776, Note_off_c, 1, 57, 64
2, 121780, Note_off_c, 1, 69, 64
2, 121816, Control_c, 1, 64, 0
2, 121844, Note_on_c, 1, 72, 60
2, 121852, Note_on_c, 1, 77, 66
2, 121852, Note_on_c, 1, 57, 55
2, 121852, Note_on_c, 1, 69, 55
2, 121916, Note_off_c, 1, 77, 64
2, 121952, Note_on_c, 1, 75, 55
2, 121968, Note_off_c, 1, 57, 0
2, 121968, Note_off_c, 1, 69, 0
2, 121976, Control_c, 1, 64, 127
2, 121992, Note_off_c, 1, 72, 0
2, 121996, Note_off_c, 1, 75, 64
2, 122012, Control_c, 1, 64, 0
2, 122052, Note_on_c, 1, 32, 41
2, 122052, Note_on_c, 1, 30, 41
2, 122056, Note_on_c, 1, 29, 44
2, 122064, Note_on_c, 1, 68, 36
2, 122068, Note_on_c, 1, 28, 43
2, 122068, Note_on_c, 1, 77, 66
2, 122068, Note_on_c, 1, 71, 61
2, 122068, Note_on_c, 1, 56, 33
2, 122072, Note_on_c, 1, 31, 33
2, 122108, Note_off_c, 1, 29, 35
2, 122112, Note_off_c, 1, 30, 35
2, 122120, Note_off_c, 1, 28, 35
2, 122120, Note_off_c, 1, 31, 35
2, 122128, Note_off_c, 1, 32, 35
2, 122188, Note_on_c, 1, 75, 62
2, 122200, Note_off_c, 1, 77, 64
2, 122220, Control_c, 1, 64, 127
2, 122232, Note_off_c, 1, 71, 64
2, 122232, Note_off_c, 1, 75, 64
2, 122252, Note_off_c, 1, 68, 64
2, 122252, Note_off_c, 1, 56, 64
2, 122296, Control_c, 1, 64, 0
2, 122312, Note_on_c, 1, 56, 40
2, 122316, Note_on_c, 1, 68, 45
2, 122316, Note_on_c, 1, 71, 61
2, 122316, Note_on_c, 1, 77, 66
2, 122416, Note_on_c, 1, 79, 69
2, 122420, Note_off_c, 1, 77, 64
2, 122432, Control_c, 1, 64, 127
2, 122440, Note_off_c, 1, 71, 64
2, 122440, Note_off_c, 1, 79, 64
2, 122452, Note_off_c, 1, 56, 64
2, 122452, Note_off_c, 1, 68, 64
2, 122520, Note_on_c, 1, 32, 39
2, 122520, Note_on_c, 1, 30, 43
2, 122532, Note_on_c, 1, 28, 44
2, 122532, Note_on_c, 1, 29, 44
2, 122532, Control_c, 1, 64, 0
2, 122536, Note_on_c, 1, 67, 49
2, 122536, Note_on_c, 1, 55, 48
2, 122536, Note_on_c, 1, 75, 55
2, 122540, Note_on_c, 1, 70, 57
2, 122540, Note_on_c, 1, 31, 36
2, 122540, Note_on_c, 1, 33, 37
2, 122592, Note_off_c, 1, 30, 35
2, 122596, Note_off_c, 1, 33, 35
2, 122600, Note_off_c, 1, 29, 35
2, 122600, Note_off_c, 1, 70, 64
2, 122604, Note_off_c, 1, 31, 35
2, 122604, Control_c, 1, 64, 127
2, 122616, Note_off_c, 1, 28, 35
2, 122616, Note_off_c, 1, 75, 64
2, 122620, Note_off_c, 1, 32, 35
2, 122692, Note_off_c, 1, 67, 64
2, 122692, Note_off_c, 1, 55, 64
2, 122744, Control_c, 1, 64, 0
2, 122760, Note_on_c, 1, 67, 55
2, 122764, Note_on_c, 1, 55, 49
2, 122764, Note_on_c, 1, 82, 76
2, 122768, Note_on_c, 1, 75, 71
2, 122776, Note_off_c, 1, 67, 64
2, 122780, Control_c, 1, 64, 127
2, 122800, Note_off_c, 1, 55, 0
2, 122868, Control_c, 1, 64, 0
2, 122872, Note_on_c, 1, 79, 77
2, 122884, Note_off_c, 1, 82, 0
2, 122912, Note_off_c, 1, 75, 0
2, 122972, Note_on_c, 1, 32, 43
2, 122976, Note_on_c, 1, 30, 43
2, 122980, Note_on_c, 1, 33, 44
2, 122980, Note_on_c, 1, 31, 42
2, 122984, Note_on_c, 1, 39, 66
2, 122984, Note_on_c, 1, 82, 81
2, 122984, Note_on_c, 1, 51, 63
2, 122988, Note_on_c, 1, 28, 46
2, 122988, Note_on_c, 1, 29, 46
2, 122988, Control_c, 1, 64, 127
2, 122992, Note_off_c, 1, 79, 64
2, 122996, Note_off_c, 1, 39, 64
2, 123004, Note_off_c, 1, 51, 64
2, 123028, Note_off_c, 1, 30, 35
2, 123036, Note_off_c, 1, 32, 35
2, 123036, Note_off_c, 1, 33, 35
2, 123036, Note_off_c, 1, 31, 35
2, 123036, Note_off_c, 1, 29, 35
2, 123044, Note_off_c, 1, 28, 35
2, 123100, Note_off_c, 1, 82, 64
2, 123100, Note_on_c, 1, 79, 83
2, 123136, Note_off_c, 1, 79, 64
2, 123192, Control_c, 1, 64, 0
2, 123200, Note_on_c, 1, 58, 53
2, 123204, Note_on_c, 1, 67, 49
2, 123204, Note_on_c, 1, 63, 49
2, 123208, Note_on_c, 1, 84, 81
2, 123220, Note_off_c, 1, 67, 64
2, 123220, Note_off_c, 1, 63, 64
2, 123220, Control_c, 1, 64, 127
2, 123224, Note_off_c, 1, 58, 64
2, 123256, Note_off_c, 1, 84, 64
2, 123316, Note_on_c, 1, 82, 100
2, 123324, Control_c, 1, 64, 0
2, 123412, Note_on_c, 1, 32, 49
2, 123420, Note_on_c, 1, 30, 45
2, 123420, Control_c, 1, 64, 127
2, 123428, Note_on_c, 1, 43, 66
2, 123428, Note_on_c, 1, 55, 66
2, 123428, Note_on_c, 1, 28, 46
2, 123432, Note_off_c, 1, 82, 64
2, 123432, Note_on_c, 1, 33, 46
2, 123432, Note_on_c, 1, 29, 44
2, 123432, Note_on_c, 1, 31, 43
2, 123436, Note_off_c, 1, 43, 64
2, 123440, Note_off_c, 1, 55, 64
2, 123476, Note_off_c, 1, 30, 35
2, 123476, Note_off_c, 1, 28, 35
2, 123476, Note_off_c, 1, 33, 35
2, 123476, Note_off_c, 1, 29, 35
2, 123480, Note_off_c, 1, 32, 35
2, 123480, Note_off_c, 1, 31, 35
2, 123532, Note_on_c, 1, 79, 74
2, 123640, Control_c, 1, 64, 0
2, 123644, Note_on_c, 1, 67, 58
2, 123648, Note_on_c, 1, 77, 77
2, 123648, Note_on_c, 1, 58, 49
2, 123648, Note_on_c, 1, 63, 52
2, 123652, Note_off_c, 1, 79, 0
2, 123668, Control_c, 1, 64, 127
2, 123692, Note_off_c, 1, 67, 64
2, 123700, Note_off_c, 1, 63, 64
2, 123708, Note_off_c, 1, 58, 64
2, 123752, Note_on_c, 1, 75, 74
2, 123760, Note_off_c, 1, 77, 64
2, 123768, Note_off_c, 1, 75, 64
2, 123824, Note_on_c, 1, 30, 47
2, 123824, Note_on_c, 1, 32, 49
2, 123828, Note_on_c, 1, 29, 44
2, 123832, Note_on_c, 1, 28, 45
2, 123832, Note_on_c, 1, 33, 45
2, 123836, Note_on_c, 1, 31, 43
2, 123856, Control_c, 1, 64, 0
2, 123860, Note_on_c, 1, 41, 63
2, 123860, Note_on_c, 1, 79, 71
2, 123860, Note_on_c, 1, 53, 62
2, 123864, Note_on_c, 1, 75, 48
2, 123864, Note_on_c, 1, 69, 66
2, 123864, Note_on_c, 1, 71, 64
2, 123868, Note_off_c, 1, 30, 35
2, 123868, Note_off_c, 1, 29, 35
2, 123872, Note_off_c, 1, 28, 35
2, 123872, Note_off_c, 1, 33, 35
2, 123872, Note_off_c, 1, 31, 35
2, 123880, Note_off_c, 1, 32, 35
2, 123880, Note_off_c, 1, 71, 64
2, 123904, Control_c, 1, 64, 127
2, 123920, Note_off_c, 1, 75, 64
2, 123920, Note_off_c, 1, 69, 64
2, 123924, Note_off_c, 1, 79, 64
2, 123944, Control_c, 1, 64, 0
2, 123960, Note_on_c, 1, 77, 74
2, 123960, Note_on_c, 1, 75, 59
2, 123960, Note_on_c, 1, 69, 66
2, 123964, Control_c, 1, 64, 127
2, 124012, Note_off_c, 1, 41, 64
2, 124012, Note_off_c, 1, 53, 64
2, 124012, Note_off_c, 1, 75, 64
2, 124048, Note_off_c, 1, 77, 64
2, 124048, Note_off_c, 1, 69, 64
2, 124052, Control_c, 1, 64, 0
2, 124056, Note_on_c, 1, 41, 63
2, 124064, Note_on_c, 1, 53, 64
2, 124168, Note_on_c, 1, 74, 85
2, 124168, Note_on_c, 1, 82, 71
2, 124172, Note_off_c, 1, 53, 64
2, 124172, Note_on_c, 1, 70, 62
2, 124172, Control_c, 1, 64, 127
2, 124184, Note_off_c, 1, 41, 64
2, 124228, Note_on_c, 1, 30, 44
2, 124236, Note_on_c, 1, 32, 48
2, 124236, Note_on_c, 1, 28, 46
2, 124244, Note_on_c, 1, 29, 43
2, 124248, Note_on_c, 1, 31, 44
2, 124248, Note_on_c, 1, 33, 46
2, 124276, Control_c, 1, 64, 0
2, 124280, Note_on_c, 1, 46, 71
2, 124280, Note_on_c, 1, 34, 76
2, 124284, Note_off_c, 1, 29, 35
2, 124288, Note_off_c, 1, 30, 35
2, 124292, Note_off_c, 1, 33, 35
2, 124296, Note_off_c, 1, 32, 35
2, 124304, Note_off_c, 1, 31, 35
2, 124308, Note_off_c, 1, 28, 35
2, 124348, Control_c, 1, 64, 127
2, 124404, Note_off_c, 1, 70, 0
2, 124408, Note_off_c, 1, 46, 0
2, 124408, Note_off_c, 1, 34, 0
2, 124480, Note_off_c, 1, 74, 0
2, 124480, Note_on_c, 1, 34, 48
2, 124480, Control_c, 1, 64, 0
2, 124488, Note_off_c, 1, 82, 0
2, 124488, Note_on_c, 1, 46, 52
2, 124516, Control_c, 1, 64, 127
2, 124536, Note_off_c, 1, 34, 64
2, 124540, Note_off_c, 1, 46, 64
2, 124580, Control_c, 1, 64, 0
2, 124596, Note_on_c, 1, 75, 60
2, 124596, Control_c, 1, 64, 127
2, 124624, Note_off_c, 1, 75, 64
2, 124688, Note_on_c, 1, 30, 43
2, 124692, Note_on_c, 1, 32, 42
2, 124704, Note_on_c, 1, 28, 43
2, 124708, Note_on_c, 1, 29, 36
2, 124712, Note_on_c, 1, 79, 66
2, 124716, Note_on_c, 1, 73, 54
2, 124720, Note_on_c, 1, 70, 40
2, 124720, Note_on_c, 1, 58, 33
2, 124720, Note_on_c, 1, 31, 31
2, 124728, Control_c, 1, 64, 0
2, 124768, Note_off_c, 1, 30, 35
2, 124768, Note_off_c, 1, 29, 35
2, 124780, Note_off_c, 1, 28, 35
2, 124788, Note_off_c, 1, 31, 35
2, 124792, Note_off_c, 1, 32, 35
2, 124804, Control_c, 1, 64, 127
2, 124832, Note_off_c, 1, 70, 64
2, 124832, Note_off_c, 1, 58, 64
2, 124840, Note_off_c, 1, 73, 64
2, 124844, Note_off_c, 1, 79, 64
2, 124944, Note_on_c, 1, 70, 37
2, 124948, Note_on_c, 1, 77, 71
2, 124948, Note_on_c, 1, 73, 57
2, 124952, Note_on_c, 1, 58, 30
2, 124952, Control_c, 1, 64, 0
2, 125064, Note_off_c, 1, 77, 64
2, 125064, Note_on_c, 1, 75, 57
2, 125068, Note_off_c, 1, 58, 64
2, 125072, Control_c, 1, 64, 127
2, 125080, Note_off_c, 1, 70, 64
2, 125096, Note_off_c, 1, 73, 64
2, 125100, Note_off_c, 1, 75, 64
2, 125156, Note_on_c, 1, 32, 36
2, 125168, Note_on_c, 1, 30, 39
2, 125168, Note_on_c, 1, 28, 40
2, 125172, Control_c, 1, 64, 0
2, 125176, Note_on_c, 1, 33, 37
2, 125176, Note_on_c, 1, 72, 58
2, 125184, Note_on_c, 1, 79, 68
2, 125188, Note_on_c, 1, 31, 29
2, 125188, Note_on_c, 1, 29, 39
2, 125188, Note_on_c, 1, 57, 53
2, 125188, Note_on_c, 1, 69, 37
2, 125224, Note_off_c, 1, 29, 35
2, 125236, Note_off_c, 1, 30, 35
2, 125244, Note_off_c, 1, 28, 35
2, 125248, Note_off_c, 1, 33, 35
2, 125248, Note_off_c, 1, 31, 35
2, 125252, Note_off_c, 1, 32, 35
2, 125284, Control_c, 1, 64, 127
2, 125320, Note_off_c, 1, 57, 0
2, 125324, Note_off_c, 1, 79, 0
2, 125328, Note_off_c, 1, 72, 0
2, 125328, Note_off_c, 1, 69, 0
2, 125412, Note_on_c, 1, 77, 71
2, 125412, Note_on_c, 1, 57, 36
2, 125412, Note_on_c, 1, 69, 36
2, 125412, Note_on_c, 1, 72, 53
2, 125412, Control_c, 1, 64, 0
2, 125520, Note_off_c, 1, 77, 64
2, 125520, Note_on_c, 1, 75, 60
2, 125528, Control_c, 1, 64, 127
2, 125532, Note_off_c, 1, 69, 64
2, 125536, Note_off_c, 1, 57, 64
2, 125540, Note_off_c, 1, 72, 64
2, 125548, Note_off_c, 1, 75, 64
2, 125612, Note_on_c, 1, 32, 38
2, 125620, Note_on_c, 1, 30, 40
2, 125628, Note_on_c, 1, 33, 42
2, 125628, Note_on_c, 1, 28, 41
2, 125628, Note_on_c, 1, 29, 43
2, 125628, Note_on_c, 1, 31, 38
2, 125636, Note_on_c, 1, 68, 43
2, 125636, Control_c, 1, 64, 0
2, 125640, Note_on_c, 1, 56, 36
2, 125640, Note_on_c, 1, 71, 59
2, 125644, Note_on_c, 1, 77, 63
2, 125684, Note_off_c, 1, 30, 35
2, 125688, Note_off_c, 1, 33, 35
2, 125696, Note_off_c, 1, 31, 35
2, 125700, Note_off_c, 1, 32, 35
2, 125704, Note_off_c, 1, 29, 35
2, 125712, Note_off_c, 1, 28, 35
2, 125740, Note_off_c, 1, 77, 64
2, 125748, Note_on_c, 1, 75, 61
2, 125780, Control_c, 1, 64, 127
2, 125812, Note_off_c, 1, 71, 64
2, 125812, Note_off_c, 1, 75, 64
2, 125824, Note_off_c, 1, 68, 64
2, 125828, Note_off_c, 1, 56, 64
2, 125872, Note_on_c, 1, 56, 46
2, 125872, Note_on_c, 1, 71, 57
2, 125872, Note_on_c, 1, 68, 36
2, 125880, Note_on_c, 1, 77, 55
2, 125880, Control_c, 1, 64, 0
2, 125984, Note_on_c, 1, 79, 64
2, 125988, Control_c, 1, 64, 127
2, 126000, Note_off_c, 1, 77, 64
2, 126008, Note_off_c, 1, 71, 64
2, 126012, Note_off_c, 1, 79, 64
2, 126020, Note_off_c, 1, 56, 64
2, 126024, Note_off_c, 1, 68, 64
2, 126096, Note_on_c, 1, 32, 38
2, 126096, Note_on_c, 1, 75, 52
2, 126096, Note_on_c, 1, 30, 38
2, 126100, Note_on_c, 1, 28, 43
2, 126100, Note_on_c, 1, 67, 37
2, 126104, Note_on_c, 1, 55, 35
2, 126108, Note_on_c, 1, 29, 43
2, 126108, Note_on_c, 1, 33, 40
2, 126108, Note_on_c, 1, 31, 35
2, 126108, Control_c, 1, 64, 0
2, 126112, Note_on_c, 1, 70, 29
2, 126140, Control_c, 1, 64, 127
2, 126156, Note_off_c, 1, 30, 35
2, 126160, Note_off_c, 1, 29, 35
2, 126168, Note_off_c, 1, 28, 35
2, 126168, Note_off_c, 1, 33, 35
2, 126172, Note_off_c, 1, 32, 35
2, 126172, Note_off_c, 1, 31, 35
2, 126188, Note_off_c, 1, 70, 64
2, 126192, Note_off_c, 1, 75, 0
2, 126248, Note_off_c, 1, 67, 0
2, 126248, Note_off_c, 1, 55, 0
2, 126320, Control_c, 1, 64, 0
2, 126332, Note_on_c, 1, 67, 38
2, 126332, Note_on_c, 1, 55, 52
2, 126344, Note_on_c, 1, 82, 74
2, 126344, Note_on_c, 1, 75, 71
2, 126348, Control_c, 1, 64, 127
2, 126368, Note_off_c, 1, 67, 64
2, 126392, Note_off_c, 1, 55, 64
2, 126428, Note_off_c, 1, 75, 64
2, 126448, Note_off_c, 1, 82, 64
2, 126448, Note_on_c, 1, 79, 81
2, 126496, Note_off_c, 1, 79, 64
2, 126532, Control_c, 1, 64, 0
2, 126560, Note_on_c, 1, 82, 93
2, 126560, Note_on_c, 1, 39, 62
2, 126560, Note_on_c, 1, 51, 61
2, 126560, Note_on_c, 1, 32, 43
2, 126560, Note_on_c, 1, 30, 44
2, 126564, Note_on_c, 1, 31, 45
2, 126564, Control_c, 1, 64, 127
2, 126568, Note_on_c, 1, 33, 48
2, 126568, Note_on_c, 1, 29, 52
2, 126576, Note_off_c, 1, 39, 64
2, 126576, Note_on_c, 1, 28, 51
2, 126584, Note_off_c, 1, 51, 64
2, 126612, Note_off_c, 1, 30, 35
2, 126616, Note_off_c, 1, 31, 35
2, 126620, Note_off_c, 1, 32, 35
2, 126620, Note_off_c, 1, 33, 35
2, 126620, Note_off_c, 1, 29, 35
2, 126624, Note_off_c, 1, 28, 35
2, 126652, Note_off_c, 1, 82, 64
2, 126656, Note_on_c, 1, 79, 71
2, 126680, Note_off_c, 1, 79, 64
2, 126760, Control_c, 1, 64, 0
2, 126764, Note_on_c, 1, 67, 55
2, 126764, Note_on_c, 1, 58, 50
2, 126764, Note_on_c, 1, 63, 56
2, 126768, Note_on_c, 1, 84, 77
2, 126772, Note_off_c, 1, 67, 64
2, 126776, Note_off_c, 1, 58, 64
2, 126776, Note_off_c, 1, 63, 64
2, 126872, Note_on_c, 1, 82, 83
2, 126880, Note_off_c, 1, 84, 64
2, 126956, Note_on_c, 1, 32, 51
2, 126968, Note_on_c, 1, 30, 51
2, 126968, Note_on_c, 1, 31, 47
2, 126972, Note_on_c, 1, 29, 47
2, 126976, Note_on_c, 1, 28, 47
2, 126976, Note_on_c, 1, 33, 47
2, 126984, Note_on_c, 1, 39, 61
2, 126984, Note_on_c, 1, 51, 58
2, 126988, Control_c, 1, 64, 127
2, 126992, Note_off_c, 1, 39, 64
2, 126992, Note_off_c, 1, 51, 64
2, 127000, Note_off_c, 1, 33, 35
2, 127004, Note_off_c, 1, 29, 35
2, 127008, Note_off_c, 1, 30, 35
2, 127012, Note_off_c, 1, 31, 35
2, 127012, Note_off_c, 1, 28, 35
2, 127016, Note_off_c, 1, 32, 35
2, 127096, Note_off_c, 1, 82, 0
2, 127100, Note_on_c, 1, 79, 77
2, 127104, Control_c, 1, 64, 0
2, 127204, Note_off_c, 1, 79, 64
2, 127204, Note_on_c, 1, 58, 50
2, 127204, Note_on_c, 1, 77, 74
2, 127204, Note_on_c, 1, 67, 55
2, 127216, Note_off_c, 1, 58, 64
2, 127220, Note_off_c, 1, 67, 64
2, 127312, Note_off_c, 1, 77, 64
2, 127312, Note_on_c, 1, 75, 71
2, 127356, Note_on_c, 1, 32, 44
2, 127356, Note_on_c, 1, 30, 46
2, 127368, Note_on_c, 1, 31, 44
2, 127368, Note_on_c, 1, 29, 44
2, 127372, Note_on_c, 1, 28, 45
2, 127372, Note_on_c, 1, 33, 44
2, 127408, Note_off_c, 1, 29, 35
2, 127412, Note_off_c, 1, 28, 35
2, 127412, Note_off_c, 1, 33, 35
2, 127416, Note_off_c, 1, 30, 35
2, 127416, Note_off_c, 1, 31, 35
2, 127424, Note_off_c, 1, 75, 64
2, 127428, Note_off_c, 1, 32, 35
2, 127428, Note_on_c, 1, 79, 73
2, 127432, Note_on_c, 1, 55, 63
2, 127432, Note_on_c, 1, 43, 61
2, 127432, Note_on_c, 1, 70, 54
2, 127460, Control_c, 1, 64, 127
2, 127500, Control_c, 1, 64, 0
2, 127512, Note_off_c, 1, 79, 64
2, 127524, Note_on_c, 1, 75, 66
2, 127524, Control_c, 1, 64, 127
2, 127536, Note_off_c, 1, 70, 64
2, 127556, Note_off_c, 1, 75, 64
2, 127564, Note_off_c, 1, 55, 64
2, 127568, Note_off_c, 1, 43, 64
2, 127640, Control_c, 1, 64, 0
2, 127648, Note_on_c, 1, 77, 74
2, 127648, Note_on_c, 1, 68, 62
2, 127648, Note_on_c, 1, 74, 74
2, 127648, Note_on_c, 1, 55, 62
2, 127648, Note_on_c, 1, 43, 59
2, 127740, Control_c, 1, 64, 127
2, 127768, Note_off_c, 1, 68, 0
2, 127772, Note_off_c, 1, 74, 0
2, 127776, Note_off_c, 1, 77, 0
2, 127776, Note_off_c, 1, 55, 0
2, 127776, Note_off_c, 1, 43, 0
2, 127800, Control_c, 1, 64, 0
2, 127852, Note_on_c, 1, 30, 54
2, 127856, Note_on_c, 1, 32, 55
2, 127860, Note_on_c, 1, 28, 52
2, 127860, Note_on_c, 1, 29, 54
2, 127860, Note_on_c, 1, 31, 50
2, 127864, Note_on_c, 1, 33, 51
2, 127880, Note_on_c, 1, 39, 58
2, 127880, Note_on_c, 1, 67, 66
2, 127884, Note_on_c, 1, 75, 63
2, 127888, Note_on_c, 1, 51, 56
2, 127908, Note_off_c, 1, 29, 35
2, 127912, Note_off_c, 1, 30, 35
2, 127912, Note_off_c, 1, 28, 35
2, 127912, Note_off_c, 1, 31, 35
2, 127916, Note_off_c, 1, 33, 35
2, 127924, Note_off_c, 1, 32, 35
2, 127940, Control_c, 1, 64, 127
2, 128000, Note_off_c, 1, 51, 64
2, 128004, Note_off_c, 1, 39, 64
2, 128048, Note_off_c, 1, 67, 64
2, 128100, Note_on_c, 1, 51, 43
2, 128100, Note_on_c, 1, 39, 45
2, 128104, Note_off_c, 1, 75, 64
2, 128132, Note_off_c, 1, 51, 64
2, 128132, Note_off_c, 1, 39, 64
2, 128212, Note_on_c, 1, 75, 59
2, 128248, Note_off_c, 1, 75, 64
2, 128256, Control_c, 1, 64, 0
2, 128336, Note_on_c, 1, 79, 55
2, 128340, Note_on_c, 1, 70, 36
2, 128340, Note_on_c, 1, 73, 37
2, 128340, Note_on_c, 1, 58, 35
2, 128344, Note_on_c, 1, 32, 37
2, 128344, Note_on_c, 1, 30, 40
2, 128360, Note_on_c, 1, 31, 35
2, 128364, Note_on_c, 1, 28, 41
2, 128364, Note_on_c, 1, 29, 40
2, 128364, Note_on_c, 1, 33, 36
2, 128376, Control_c, 1, 64, 127
2, 128396, Note_off_c, 1, 29, 35
2, 128400, Note_off_c, 1, 30, 35
2, 128404, Note_off_c, 1, 28, 35
2, 128420, Note_off_c, 1, 33, 35
2, 128428, Note_off_c, 1, 31, 35
2, 128440, Note_off_c, 1, 70, 64
2, 128440, Note_off_c, 1, 58, 64
2, 128440, Note_off_c, 1, 32, 35
2, 128472, Note_off_c, 1, 73, 64
2, 128484, Note_off_c, 1, 79, 64
2, 128576, Note_on_c, 1, 77, 59
2, 128576, Note_on_c, 1, 73, 57
2, 128576, Note_on_c, 1, 58, 36
2, 128580, Note_on_c, 1, 70, 29
2, 128580, Control_c, 1, 64, 0
2, 128688, Note_on_c, 1, 75, 58
2, 128696, Note_off_c, 1, 77, 0
2, 128704, Control_c, 1, 64, 127
2, 128728, Note_off_c, 1, 58, 0
2, 128732, Note_off_c, 1, 70, 0
2, 128764, Note_off_c, 1, 73, 0
2, 128764, Note_off_c, 1, 75, 64
2, 128804, Note_on_c, 1, 72, 54
2, 128804, Note_on_c, 1, 79, 68
2, 128808, Note_on_c, 1, 69, 45
2, 128808, Note_on_c, 1, 32, 37
2, 128808, Note_on_c, 1, 57, 47
2, 128808, Control_c, 1, 64, 0
2, 128824, Note_on_c, 1, 30, 40
2, 128824, Note_on_c, 1, 28, 43
2, 128824, Note_on_c, 1, 31, 34
2, 128828, Note_on_c, 1, 29, 43
2, 128828, Note_on_c, 1, 33, 36
2, 128864, Note_off_c, 1, 29, 35
2, 128876, Note_off_c, 1, 30, 35
2, 128876, Note_off_c, 1, 33, 35
2, 128880, Note_off_c, 1, 28, 35
2, 128884, Note_off_c, 1, 31, 35
2, 128888, Note_off_c, 1, 32, 35
2, 128912, Control_c, 1, 64, 127
2, 128944, Note_off_c, 1, 69, 64
2, 128948, Note_off_c, 1, 57, 64
2, 128972, Note_off_c, 1, 79, 64
2, 129000, Note_off_c, 1, 72, 64
2, 129048, Note_on_c, 1, 72, 59
2, 129056, Note_on_c, 1, 77, 64
2, 129060, Note_on_c, 1, 69, 41
2, 129060, Note_on_c, 1, 57, 36
2, 129060, Control_c, 1, 64, 0
2, 129172, Note_off_c, 1, 77, 64
2, 129172, Note_off_c, 1, 69, 64
2, 129172, Note_on_c, 1, 75, 60
2, 129180, Control_c, 1, 64, 127
2, 129184, Note_off_c, 1, 57, 64
2, 129196, Note_off_c, 1, 72, 64
2, 129200, Note_off_c, 1, 75, 64
2, 129272, Note_on_c, 1, 32, 37
2, 129280, Note_on_c, 1, 28, 42
2, 129280, Note_on_c, 1, 30, 37
2, 129292, Note_on_c, 1, 56, 55
2, 129292, Note_on_c, 1, 71, 60
2, 129292, Note_on_c, 1, 68, 49
2, 129300, Note_on_c, 1, 77, 63
2, 129300, Note_on_c, 1, 33, 34
2, 129300, Control_c, 1, 64, 0
2, 129328, Note_off_c, 1, 30, 35
2, 129348, Note_off_c, 1, 28, 35
2, 129348, Note_off_c, 1, 33, 35
2, 129364, Note_off_c, 1, 32, 35
2, 129408, Note_off_c, 1, 77, 64
2, 129408, Note_on_c, 1, 75, 55
2, 129412, Control_c, 1, 64, 127
2, 129424, Note_off_c, 1, 56, 64
2, 129428, Note_off_c, 1, 68, 64
2, 129452, Note_off_c, 1, 75, 64
2, 129472, Note_off_c, 1, 71, 64
2, 129524, Note_on_c, 1, 71, 62
2, 129528, Note_on_c, 1, 56, 55
2, 129528, Note_on_c, 1, 68, 49
2, 129528, Note_on_c, 1, 77, 64
2, 129532, Control_c, 1, 64, 0
2, 129636, Control_c, 1, 64, 127
2, 129640, Note_off_c, 1, 56, 64
2, 129640, Note_off_c, 1, 68, 64
2, 129644, Note_on_c, 1, 79, 62
2, 129652, Note_off_c, 1, 77, 64
2, 129656, Note_off_c, 1, 79, 64
2, 129668, Note_off_c, 1, 71, 64
2, 129744, Note_on_c, 1, 32, 41
2, 129756, Note_on_c, 1, 67, 46
2, 129760, Note_on_c, 1, 70, 64
2, 129760, Note_on_c, 1, 75, 62
2, 129760, Note_on_c, 1, 31, 42
2, 129764, Note_on_c, 1, 33, 43
2, 129764, Note_on_c, 1, 55, 46
2, 129764, Note_on_c, 1, 30, 39
2, 129764, Control_c, 1, 64, 0
2, 129768, Note_on_c, 1, 28, 43
2, 129772, Note_on_c, 1, 29, 42
2, 129800, Control_c, 1, 64, 127
2, 129804, Note_off_c, 1, 29, 35
2, 129812, Note_off_c, 1, 33, 35
2, 129812, Note_off_c, 1, 30, 35
2, 129816, Note_off_c, 1, 31, 35
2, 129820, Note_off_c, 1, 32, 35
2, 129820, Note_off_c, 1, 28, 35
2, 129832, Note_off_c, 1, 70, 64
2, 129836, Note_off_c, 1, 75, 64
2, 129856, Note_off_c, 1, 67, 64
2, 129860, Note_off_c, 1, 55, 64
2, 129976, Control_c, 1, 64, 0
2, 129984, Note_on_c, 1, 67, 45
2, 129988, Note_on_c, 1, 55, 48
2, 129996, Note_on_c, 1, 82, 85
2, 130000, Note_on_c, 1, 75, 62
2, 130024, Note_off_c, 1, 67, 64
2, 130044, Note_off_c, 1, 55, 64
2, 130120, Note_on_c, 1, 79, 83
2, 130124, Note_off_c, 1, 82, 64
2, 130156, Note_off_c, 1, 75, 64
2, 130192, Note_on_c, 1, 32, 48
2, 130192, Note_on_c, 1, 31, 49
2, 130200, Note_on_c, 1, 33, 54
2, 130200, Note_on_c, 1, 30, 45
2, 130208, Note_on_c, 1, 28, 51
2, 130208, Note_on_c, 1, 29, 52
2, 130228, Note_off_c, 1, 79, 64
2, 130228, Note_on_c, 1, 82, 77
2, 130228, Note_on_c, 1, 39, 66
2, 130228, Note_on_c, 1, 51, 64
2, 130256, Note_off_c, 1, 32, 35
2, 130256, Note_off_c, 1, 31, 35
2, 130256, Note_off_c, 1, 29, 35
2, 130260, Note_off_c, 1, 33, 35
2, 130260, Note_off_c, 1, 30, 35
2, 130268, Note_off_c, 1, 28, 35
2, 130272, Control_c, 1, 64, 127
2, 130284, Note_off_c, 1, 39, 64
2, 130292, Note_off_c, 1, 51, 64
2, 130332, Note_on_c, 1, 79, 76
2, 130344, Note_off_c, 1, 82, 64
2, 130428, Control_c, 1, 64, 0
2, 130436, Note_off_c, 1, 79, 0
2, 130436, Note_on_c, 1, 58, 59
2, 130436, Note_on_c, 1, 67, 59
2, 130440, Note_on_c, 1, 63, 55
2, 130440, Note_on_c, 1, 84, 81
2, 130448, Note_off_c, 1, 63, 64
2, 130452, Note_off_c, 1, 58, 64
2, 130452, Note_off_c, 1, 67, 64
2, 130548, Note_on_c, 1, 82, 76
2, 130556, Note_off_c, 1, 84, 64
2, 130640, Note_on_c, 1, 32, 46
2, 130644, Note_on_c, 1, 30, 44
2, 130648, Note_on_c, 1, 28, 50
2, 130648, Note_on_c, 1, 29, 50
2, 130648, Note_on_c, 1, 33, 46
2, 130652, Note_on_c, 1, 31, 44
2, 130664, Note_on_c, 1, 55, 58
2, 130664, Note_on_c, 1, 43, 41
2, 130664, Control_c, 1, 64, 127
2, 130676, Note_off_c, 1, 55, 64
2, 130680, Note_off_c, 1, 43, 64
2, 130696, Note_off_c, 1, 30, 35
2, 130696, Note_off_c, 1, 29, 35
2, 130700, Note_off_c, 1, 28, 35
2, 130708, Note_off_c, 1, 32, 35
2, 130708, Note_off_c, 1, 33, 35
2, 130720, Note_off_c, 1, 31, 35
2, 130764, Note_on_c, 1, 79, 76
2, 130768, Note_off_c, 1, 82, 64
2, 130864, Control_c, 1, 64, 0
2, 130880, Note_off_c, 1, 79, 64
2, 130880, Note_on_c, 1, 67, 52
2, 130880, Note_on_c, 1, 58, 50
2, 130884, Note_on_c, 1, 77, 68
2, 130884, Note_on_c, 1, 63, 54
2, 130896, Note_off_c, 1, 67, 64
2, 130904, Note_off_c, 1, 63, 64
2, 130908, Note_off_c, 1, 58, 64
2, 130984, Note_on_c, 1, 75, 62
2, 130996, Control_c, 1, 64, 127
2, 131000, Note_off_c, 1, 77, 64
2, 131008, Note_off_c, 1, 75, 64
2, 131068, Note_on_c, 1, 30, 50
2, 131068, Note_on_c, 1, 32, 48
2, 131068, Note_on_c, 1, 29, 50
2, 131072, Note_on_c, 1, 28, 49
2, 131072, Note_on_c, 1, 33, 46
2, 131076, Note_on_c, 1, 31, 43
2, 131088, Control_c, 1, 64, 0
2, 131092, Note_on_c, 1, 41, 49
2, 131096, Note_on_c, 1, 79, 63
2, 131096, Note_on_c, 1, 53, 49
2, 131100, Note_on_c, 1, 75, 57
2, 131100, Note_on_c, 1, 69, 55
2, 131104, Note_off_c, 1, 75, 64
2, 131108, Note_off_c, 1, 29, 35
2, 131108, Note_off_c, 1, 69, 64
2, 131116, Note_off_c, 1, 30, 35
2, 131116, Note_off_c, 1, 79, 64
2, 131120, Note_off_c, 1, 28, 35
2, 131120, Note_off_c, 1, 33, 35
2, 131120, Note_off_c, 1, 31, 35
2, 131128, Note_off_c, 1, 32, 35
2, 131192, Note_on_c, 1, 77, 68
2, 131192, Note_on_c, 1, 75, 59
2, 131196, Note_on_c, 1, 69, 59
2, 131196, Control_c, 1, 64, 127
2, 131200, Note_off_c, 1, 41, 0
2, 131200, Note_off_c, 1, 53, 0
2, 131256, Note_off_c, 1, 75, 64
2, 131280, Note_off_c, 1, 69, 64
2, 131284, Note_off_c, 1, 77, 64
2, 131288, Control_c, 1, 64, 0
2, 131296, Note_on_c, 1, 41, 68
2, 131300, Note_on_c, 1, 53, 68
2, 131312, Control_c, 1, 64, 127
2, 131392, Control_c, 1, 64, 0
2, 131400, Note_on_c, 1, 82, 71
2, 131404, Note_off_c, 1, 53, 64
2, 131404, Note_on_c, 1, 74, 93
2, 131404, Note_on_c, 1, 70, 66
2, 131408, Control_c, 1, 64, 127
2, 131412, Note_off_c, 1, 41, 64
2, 131488, Note_on_c, 1, 32, 46
2, 131492, Note_on_c, 1, 30, 52
2, 131492, Control_c, 1, 64, 0
2, 131496, Note_on_c, 1, 31, 45
2, 131496, Note_on_c, 1, 29, 52
2, 131496, Note_on_c, 1, 28, 50
2, 131500, Note_on_c, 1, 33, 48
2, 131512, Note_on_c, 1, 34, 74
2, 131512, Note_on_c, 1, 46, 76
2, 131544, Note_off_c, 1, 29, 35
2, 131544, Note_off_c, 1, 33, 35
2, 131548, Note_off_c, 1, 30, 35
2, 131552, Note_off_c, 1, 32, 35
2, 131552, Note_off_c, 1, 28, 35
2, 131556, Note_off_c, 1, 31, 35
2, 131588, Control_c, 1, 64, 127
2, 131644, Note_off_c, 1, 34, 64
2, 131644, Note_off_c, 1, 46, 64
2, 131660, Note_off_c, 1, 70, 64
2, 131724, Control_c, 1, 64, 0
2, 131732, Note_on_c, 1, 34, 64
2, 131736, Note_off_c, 1, 82, 64
2, 131736, Note_on_c, 1, 46, 66
2, 131740, Note_off_c, 1, 74, 64
2, 131744, Control_c, 1, 64, 127
2, 131760, Note_off_c, 1, 34, 64
2, 131760, Note_off_c, 1, 46, 64
2, 131844, Control_c, 1, 64, 0
2, 131856, Note_on_c, 1, 75, 68
2, 131876, Control_c, 1, 64, 127
2, 131916, Note_off_c, 1, 75, 64
2, 131948, Note_on_c, 1, 30, 40
2, 131948, Note_on_c, 1, 28, 43
2, 131948, Note_on_c, 1, 32, 39
2, 131952, Note_on_c, 1, 29, 43
2, 131964, Note_on_c, 1, 79, 66
2, 131968, Note_on_c, 1, 31, 37
2, 131968, Note_on_c, 1, 58, 49
2, 131968, Note_on_c, 1, 73, 53
2, 131968, Note_on_c, 1, 33, 37
2, 131972, Note_on_c, 1, 70, 40
2, 131972, Control_c, 1, 64, 0
2, 131984, Note_off_c, 1, 30, 35
2, 131992, Note_off_c, 1, 29, 35
2, 132004, Note_off_c, 1, 28, 35
2, 132016, Note_off_c, 1, 33, 35
2, 132024, Note_off_c, 1, 31, 35
2, 132032, Note_off_c, 1, 32, 35
2, 132072, Control_c, 1, 64, 127
2, 132096, Note_off_c, 1, 58, 0
2, 132104, Note_off_c, 1, 70, 0
2, 132104, Note_off_c, 1, 79, 0
2, 132116, Note_off_c, 1, 73, 0
2, 132188, Control_c, 1, 64, 0
2, 132192, Note_on_c, 1, 77, 64
2, 132196, Note_on_c, 1, 58, 38
2, 132196, Note_on_c, 1, 73, 50
2, 132196, Note_on_c, 1, 70, 35
2, 132304, Note_off_c, 1, 77, 64
2, 132304, Note_on_c, 1, 75, 64
2, 132332, Control_c, 1, 64, 127
2, 132336, Note_off_c, 1, 58, 64
2, 132344, Note_off_c, 1, 70, 64
2, 132356, Note_off_c, 1, 75, 64
2, 132364, Note_off_c, 1, 73, 64
2, 132388, Note_on_c, 1, 32, 39
2, 132396, Note_on_c, 1, 30, 42
2, 132396, Note_on_c, 1, 33, 42
2, 132400, Note_on_c, 1, 28, 43
2, 132400, Note_on_c, 1, 29, 43
2, 132408, Note_on_c, 1, 31, 32
2, 132424, Note_on_c, 1, 57, 47
2, 132428, Note_on_c, 1, 69, 55
2, 132428, Note_on_c, 1, 79, 61
2, 132428, Control_c, 1, 64, 0
2, 132432, Note_on_c, 1, 72, 45
2, 132452, Note_off_c, 1, 30, 35
2, 132452, Note_off_c, 1, 33, 35
2, 132456, Note_off_c, 1, 29, 35
2, 132456, Note_off_c, 1, 31, 35
2, 132460, Note_off_c, 1, 32, 35
2, 132468, Note_off_c, 1, 28, 35
2, 132528, Control_c, 1, 64, 127
2, 132552, Note_off_c, 1, 57, 64
2, 132556, Note_off_c, 1, 69, 64
2, 132560, Note_off_c, 1, 79, 64
2, 132572, Note_off_c, 1, 72, 64
2, 132652, Note_on_c, 1, 72, 61
2, 132660, Note_on_c, 1, 77, 62
2, 132660, Note_on_c, 1, 57, 37
2, 132660, Note_on_c, 1, 69, 35
2, 132664, Control_c, 1, 64, 0
2, 132772, Note_on_c, 1, 75, 59
2, 132772, Control_c, 1, 64, 127
2, 132780, Note_off_c, 1, 77, 64
2, 132780, Note_off_c, 1, 69, 64
2, 132784, Note_off_c, 1, 57, 64
2, 132796, Note_off_c, 1, 72, 64
2, 132800, Note_off_c, 1, 75, 64
2, 132856, Note_on_c, 1, 32, 39
2, 132860, Note_on_c, 1, 30, 39
2, 132864, Note_on_c, 1, 28, 42
2, 132872, Note_on_c, 1, 33, 41
2, 132876, Note_on_c, 1, 31, 38
2, 132876, Note_on_c, 1, 29, 42
2, 132888, Note_on_c, 1, 56, 50
2, 132888, Note_on_c, 1, 68, 50
2, 132888, Note_on_c, 1, 71, 60
2, 132892, Note_on_c, 1, 77, 63
2, 132892, Control_c, 1, 64, 0
2, 132924, Note_off_c, 1, 30, 35
2, 132932, Note_off_c, 1, 29, 35
2, 132936, Note_off_c, 1, 33, 35
2, 132940, Note_off_c, 1, 32, 35
2, 132944, Note_off_c, 1, 31, 35
2, 132952, Note_off_c, 1, 28, 35
2, 133004, Note_on_c, 1, 75, 57
2, 133012, Note_off_c, 1, 77, 64
2, 133016, Control_c, 1, 64, 127
2, 133024, Note_off_c, 1, 56, 64
2, 133028, Note_off_c, 1, 68, 64
2, 133056, Note_off_c, 1, 75, 64
2, 133064, Note_off_c, 1, 71, 64
2, 133128, Note_on_c, 1, 68, 59
2, 133132, Note_on_c, 1, 71, 63
2, 133132, Note_on_c, 1, 56, 57
2, 133136, Note_on_c, 1, 77, 64
2, 133136, Control_c, 1, 64, 0
2, 133248, Note_off_c, 1, 56, 64
2, 133252, Control_c, 1, 64, 127
2, 133264, Note_off_c, 1, 68, 64
2, 133264, Note_on_c, 1, 79, 66
2, 133276, Note_off_c, 1, 77, 64
2, 133280, Note_off_c, 1, 79, 64
2, 133296, Note_off_c, 1, 71, 64
2, 133348, Note_on_c, 1, 32, 39
2, 133356, Note_on_c, 1, 30, 40
2, 133356, Note_on_c, 1, 28, 41
2, 133360, Note_on_c, 1, 29, 43
2, 133364, Note_on_c, 1, 33, 40
2, 133372, Note_on_c, 1, 31, 36
2, 133384, Note_on_c, 1, 67, 62
2, 133384, Note_on_c, 1, 55, 60
2, 133384, Note_on_c, 1, 70, 63
2, 133384, Note_on_c, 1, 75, 64
2, 133384, Control_c, 1, 64, 0
2, 133416, Note_off_c, 1, 29, 35
2, 133420, Note_off_c, 1, 30, 35
2, 133424, Note_off_c, 1, 28, 35
2, 133424, Note_off_c, 1, 33, 35
2, 133424, Note_off_c, 1, 31, 35
2, 133428, Note_off_c, 1, 32, 35
2, 133432, Control_c, 1, 64, 127
2, 133460, Note_off_c, 1, 70, 64
2, 133476, Note_off_c, 1, 75, 64
2, 133528, Note_off_c, 1, 55, 64
2, 133536, Note_off_c, 1, 67, 64
2, 133604, Control_c, 1, 64, 0
2, 133620, Note_on_c, 1, 55, 58
2, 133628, Note_on_c, 1, 67, 48
2, 133648, Note_off_c, 1, 67, 64
2, 133660, Control_c, 1, 64, 127
2, 133668, Note_on_c, 1, 82, 96
2, 133668, Note_on_c, 1, 75, 89
2, 133672, Note_off_c, 1, 55, 64
2, 133796, Note_on_c, 1, 79, 89
2, 133800, Note_off_c, 1, 82, 64
2, 133816, Note_off_c, 1, 75, 64
2, 133888, Control_c, 1, 64, 127
2, 133892, Note_on_c, 1, 30, 47
2, 133892, Note_on_c, 1, 32, 49
2, 133892, Note_on_c, 1, 28, 49
2, 133900, Note_on_c, 1, 29, 48
2, 133900, Note_on_c, 1, 33, 51
2, 133904, Note_on_c, 1, 31, 47
2, 133904, Control_c, 1, 64, 0
2, 133916, Note_off_c, 1, 79, 64
2, 133920, Note_on_c, 1, 39, 74
2, 133920, Note_on_c, 1, 51, 71
2, 133920, Note_on_c, 1, 82, 105
2, 133932, Control_c, 1, 64, 127
2, 133960, Note_off_c, 1, 39, 64
2, 133964, Note_off_c, 1, 30, 35
2, 133968, Note_off_c, 1, 28, 35
2, 133968, Note_off_c, 1, 29, 35
2, 133968, Note_off_c, 1, 33, 35
2, 133968, Note_off_c, 1, 31, 35
2, 133968, Note_off_c, 1, 51, 64
2, 133976, Note_off_c, 1, 32, 35
2, 134040, Note_on_c, 1, 79, 71
2, 134052, Note_off_c, 1, 82, 0
2, 134060, Note_off_c, 1, 79, 64
2, 134144, Note_on_c, 1, 67, 55
2, 134144, Note_on_c, 1, 63, 53
2, 134144, Note_on_c, 1, 58, 53
2, 134152, Note_off_c, 1, 67, 64
2, 134156, Note_off_c, 1, 63, 64
2, 134156, Note_off_c, 1, 58, 64
2, 134156, Note_on_c, 1, 84, 93
2, 134272, Note_on_c, 1, 82, 93
2, 134272, Control_c, 1, 64, 0
2, 134280, Note_off_c, 1, 84, 64
2, 134384, Note_on_c, 1, 30, 47
2, 134388, Note_on_c, 1, 32, 49
2, 134388, Note_on_c, 1, 29, 48
2, 134392, Note_on_c, 1, 28, 50
2, 134392, Note_on_c, 1, 39, 68
2, 134400, Note_on_c, 1, 51, 68
2, 134400, Note_on_c, 1, 33, 46
2, 134400, Note_on_c, 1, 31, 45
2, 134404, Control_c, 1, 64, 127
2, 134416, Note_off_c, 1, 39, 64
2, 134424, Note_off_c, 1, 51, 64
2, 134444, Note_off_c, 1, 30, 35
2, 134448, Note_off_c, 1, 29, 35
2, 134456, Note_off_c, 1, 28, 35
2, 134476, Note_off_c, 1, 33, 35
2, 134476, Note_off_c, 1, 31, 35
2, 134480, Note_off_c, 1, 32, 35
2, 134512, Note_off_c, 1, 82, 64
2, 134512, Note_on_c, 1, 79, 83
2, 134616, Control_c, 1, 64, 0
2, 134620, Note_off_c, 1, 79, 64
2, 134628, Note_on_c, 1, 67, 62
2, 134632, Note_on_c, 1, 58, 59
2, 134632, Note_on_c, 1, 77, 85
2, 134632, Note_on_c, 1, 63, 59
2, 134648, Control_c, 1, 64, 127
2, 134676, Control_c, 1, 64, 0
2, 134740, Note_off_c, 1, 67, 64
2, 134748, Note_off_c, 1, 58, 64
2, 134748, Note_off_c, 1, 77, 64
2, 134748, Note_off_c, 1, 63, 64
2, 134752, Note_on_c, 1, 75, 82
2, 134752, Control_c, 1, 64, 127
2, 134760, Note_off_c, 1, 75, 64
2, 134812, Note_on_c, 1, 32, 48
2, 134812, Note_on_c, 1, 30, 49
2, 134816, Note_on_c, 1, 31, 47
2, 134816, Note_on_c, 1, 33, 50
2, 134820, Note_on_c, 1, 28, 51
2, 134820, Note_on_c, 1, 29, 49
2, 134852, Control_c, 1, 64, 0
2, 134856, Note_on_c, 1, 68, 39
2, 134860, Note_on_c, 1, 56, 48
2, 134860, Note_on_c, 1, 77, 71
2, 134868, Note_on_c, 1, 71, 60
2, 134872, Note_off_c, 1, 29, 35
2, 134876, Note_off_c, 1, 30, 35
2, 134876, Note_off_c, 1, 33, 35
2, 134880, Note_off_c, 1, 31, 35
2, 134880, Note_off_c, 1, 28, 35
2, 134892, Note_off_c, 1, 32, 35
2, 134968, Note_on_c, 1, 75, 60
2, 134972, Note_off_c, 1, 77, 0
2, 134972, Control_c, 1, 64, 127
2, 134988, Note_off_c, 1, 68, 0
2, 135004, Note_off_c, 1, 56, 0
2, 135004, Note_off_c, 1, 71, 0
2, 135004, Note_off_c, 1, 75, 64
2, 135072, Control_c, 1, 64, 0
2, 135080, Note_on_c, 1, 56, 48
2, 135084, Note_on_c, 1, 77, 66
2, 135084, Note_on_c, 1, 68, 35
2, 135084, Note_on_c, 1, 71, 60
2, 135192, Note_on_c, 1, 79, 62
2, 135200, Note_off_c, 1, 77, 64
2, 135204, Control_c, 1, 64, 127
2, 135208, Note_off_c, 1, 56, 64
2, 135212, Note_off_c, 1, 68, 64
2, 135216, Note_off_c, 1, 71, 64
2, 135220, Note_off_c, 1, 79, 64
2, 135300, Note_on_c, 1, 32, 49
2, 135300, Note_on_c, 1, 30, 49
2, 135308, Note_on_c, 1, 31, 48
2, 135308, Note_on_c, 1, 33, 51
2, 135312, Note_on_c, 1, 28, 50
2, 135312, Note_on_c, 1, 29, 49
2, 135312, Note_on_c, 1, 75, 66
2, 135312, Control_c, 1, 64, 0
2, 135316, Note_on_c, 1, 70, 54
2, 135324, Note_on_c, 1, 67, 49
2, 135324, Note_on_c, 1, 55, 36
2, 135356, Note_off_c, 1, 67, 64
2, 135364, Note_off_c, 1, 30, 35
2, 135364, Note_off_c, 1, 33, 35
2, 135364, Note_off_c, 1, 29, 35
2, 135368, Note_off_c, 1, 32, 35
2, 135368, Note_off_c, 1, 28, 35
2, 135368, Note_off_c, 1, 70, 64
2, 135372, Note_off_c, 1, 31, 35
2, 135372, Note_off_c, 1, 75, 64
2, 135372, Note_off_c, 1, 55, 64
2, 135556, Note_on_c, 1, 78, 75
2, 135556, Note_on_c, 1, 75, 68
2, 135556, Note_on_c, 1, 33, 72
2, 135556, Note_on_c, 1, 45, 66
2, 135564, Note_on_c, 1, 72, 66
2, 135584, Note_off_c, 1, 33, 64
2, 135588, Note_off_c, 1, 75, 64
2, 135596, Note_off_c, 1, 45, 64
2, 135596, Note_off_c, 1, 72, 64
2, 135600, Note_off_c, 1, 78, 64
2, 135808, Note_on_c, 1, 32, 44
2, 135820, Note_on_c, 1, 31, 45
2, 135820, Note_on_c, 1, 30, 43
2, 135820, Note_on_c, 1, 79, 72
2, 135824, Note_on_c, 1, 75, 68
2, 135824, Note_on_c, 1, 33, 47
2, 135824, Note_on_c, 1, 70, 66
2, 135824, Note_on_c, 1, 34, 64
2, 135824, Note_on_c, 1, 46, 71
2, 135828, Note_on_c, 1, 28, 48
2, 135836, Note_on_c, 1, 29, 48
2, 135836, Control_c, 1, 64, 127
2, 135856, Note_off_c, 1, 34, 64
2, 135860, Note_off_c, 1, 46, 64
2, 135884, Note_off_c, 1, 31, 35
2, 135884, Note_off_c, 1, 75, 64
2, 135884, Note_off_c, 1, 33, 35
2, 135888, Note_off_c, 1, 32, 35
2, 135888, Note_off_c, 1, 30, 35
2, 135888, Note_off_c, 1, 70, 64
2, 135888, Note_off_c, 1, 29, 35
2, 135896, Note_off_c, 1, 28, 35
2, 135900, Note_off_c, 1, 79, 64
2, 136068, Control_c, 1, 64, 0
2, 136340, Note_on_c, 1, 32, 39
2, 136340, Note_on_c, 1, 30, 40
2, 136344, Note_on_c, 1, 28, 43
2, 136356, Note_on_c, 1, 29, 43
2, 136360, Note_on_c, 1, 33, 36
2, 136364, Note_on_c, 1, 31, 32
2, 136404, Note_off_c, 1, 29, 35
2, 136420, Note_off_c, 1, 32, 35
2, 136420, Note_off_c, 1, 30, 35
2, 136420, Note_off_c, 1, 28, 35
2, 136424, Note_off_c, 1, 33, 35
2, 136424, Note_off_c, 1, 31, 35
2, 136900, Note_on_c, 1, 32, 40
2, 136912, Note_on_c, 1, 30, 40
2, 136916, Note_on_c, 1, 33, 42
2, 136916, Note_on_c, 1, 28, 43
2, 136916, Note_on_c, 1, 31, 40
2, 136920, Note_on_c, 1, 29, 43
2, 136976, Note_off_c, 1, 29, 35
2, 136980, Note_off_c, 1, 30, 35
2, 136988, Note_off_c, 1, 33, 35
2, 136992, Note_off_c, 1, 32, 35
2, 136992, Note_off_c, 1, 28, 35
2, 136992, Note_off_c, 1, 31, 35
2, 137428, Note_on_c, 1, 32, 56
2, 137440, Note_on_c, 1, 30, 58
2, 137440, Note_on_c, 1, 28, 54
2, 137444, Note_on_c, 1, 33, 51
2, 137448, Note_on_c, 1, 29, 56
2, 137448, Note_on_c, 1, 31, 42
2, 137500, Note_off_c, 1, 30, 35
2, 137500, Note_off_c, 1, 33, 35
2, 137500, Note_off_c, 1, 29, 35
2, 137504, Note_off_c, 1, 32, 35
2, 137504, Note_off_c, 1, 31, 35
2, 137508, Note_off_c, 1, 28, 35
2, 137688, Note_on_c, 1, 82, 100
2, 137692, Note_on_c, 1, 80, 76
2, 137692, Note_on_c, 1, 74, 81
2, 137692, Note_on_c, 1, 58, 68
2, 137696, Note_on_c, 1, 46, 74
2, 137716, Note_off_c, 1, 80, 64
2, 137720, Note_off_c, 1, 58, 64
2, 137724, Note_off_c, 1, 82, 64
2, 137724, Note_off_c, 1, 46, 64
2, 137728, Note_off_c, 1, 74, 64
2, 138068, Note_on_c, 1, 87, 93
2, 138076, Note_on_c, 1, 79, 100
2, 138076, Control_c, 1, 64, 127
2, 138080, Note_on_c, 1, 75, 89
2, 138084, Note_on_c, 1, 39, 83
2, 138084, Note_on_c, 1, 51, 85
2, 138108, Note_on_c, 1, 32, 46
2, 138108, Note_on_c, 1, 31, 49
2, 138108, Note_on_c, 1, 33, 54
2, 138112, Note_on_c, 1, 30, 52
2, 138116, Note_on_c, 1, 29, 54
2, 138120, Note_on_c, 1, 28, 55
2, 138128, Note_off_c, 1, 51, 64
2, 138140, Note_off_c, 1, 87, 64
2, 138140, Note_off_c, 1, 79, 64
2, 138140, Note_off_c, 1, 75, 64
2, 138140, Note_off_c, 1, 39, 64
2, 138176, Note_off_c, 1, 31, 35
2, 138184, Note_off_c, 1, 32, 35
2, 138184, Note_off_c, 1, 29, 35
2, 138184, Note_off_c, 1, 28, 35
2, 138188, Note_off_c, 1, 33, 35
2, 138188, Note_off_c, 1, 30, 35
2, 138448, Control_c, 1, 64, 0
2, 138448, End_track
3, 0, Start_track
3, 0, Title_t, "Alessandro Simonetto, piano"
3, 0, Key_signature, 0, "major"
3, 0, End_track
4, 0, Start_track
4, 0, Title_t, "Info: www.kunstderfuge.com/ragtime.htm!"
4, 0, Key_signature, 0, "major"
4, 0, End_track
5, 0, Start_track
5, 0, Title_t, "All rights reserved,  2003-04"
5, 0, Key_signature, 0, "major"
5, 0, End_track
6, 0, Start_track
6, 0, Key_signature, 0, "major"
6, 0, End_track
7, 0, Start_track
7, 0, Key_signature, 0, "major"
7, 0, End_track
8, 0, Start_track
8, 0, Key_signature, 0, "major"
8, 0, End_track
9, 0, Start_track
9, 0, Key_signature, 0, "major"
9, 0, End_track
10, 0, Start_track
10, 0, Key_signature, 0, "major"
10, 0, End_track
11, 0, Start_track
11, 0, Key_signature, 0, "major"
11, 0, End_track
12, 0, Start_track
12, 0, Key_signature, 0, "major"
12, 0, End_track
13, 0, Start_track
13, 0, Key_signature, 0, "major"
13, 0, End_track
14, 0, Start_track
14, 0, Key_signature, 0, "major"
14, 0, End_track
15, 0, Start_track
15, 0, Key_signature, 0, "major"
15, 0, End_track
16, 0, Start_track
16, 0, Key_signature, 0, "major"
16, 0, End_track
17, 0, Start_track
17, 0, Key_signature, 0, "major"
17, 0, End_track
18, 0, Start_track
18, 1, Copyright_t, "___________________________________________________\012\012KUNSTDERFUGE.COM LARGE CLASSICAL MIDI COLLECTION\012ONCLASSICAL BY ALESSANDRO SIMONETTO, PROPRIETOR\012___________________________________________________\012\012! Attention: this file is under copyright !\012\012(c)onclassical, (c)simonetto, 2010\012___________________________________________________\012\012NO ONE MAY REPUBLISH THIS FILE WITHOUT PERMISSION\012COMMERCIAL USES OF THIS FILE IS STRICTLY PROHIBITED\012___________________________________________________\012\012Files & contributor's list: http://kunstderfuge.com/\012Terms and conditions: http://kunstderfuge.com/notes.htm"
18, 1, End_track
0, 0, End_of_file
