0, 0, Header, 1, 14, 384
1, 0, Start_track
1, 0, Time_signature, 4, 2, 96, 8
1, 0, Sequencer_specific, 3, 0, 0, 65
1, 0, Tempo, 500000
1, 0, End_track
2, 0, Start_track
2, 0, Title_t, "Scott Joplin's Rag-Time performance"
2, 0, Key_signature, 0, "major"
2, 0, Control_c, 1, 121, 127
2, 1264, Note_on_c, 1, 86, 80
2, 1264, Note_on_c, 1, 74, 69
2, 1400, Note_off_c, 1, 74, 64
2, 1400, Note_on_c, 1, 88, 75
2, 1400, Note_on_c, 1, 76, 52
2, 1412, Note_off_c, 1, 86, 64
2, 1520, Note_off_c, 1, 88, 64
2, 1524, Note_off_c, 1, 76, 64
2, 1524, Note_on_c, 1, 72, 48
2, 1524, Note_on_c, 1, 84, 75
2, 1652, Note_off_c, 1, 84, 64
2, 1656, Note_off_c, 1, 72, 64
2, 1656, Note_on_c, 1, 81, 73
2, 1656, Note_on_c, 1, 69, 61
2, 1920, Note_off_c, 1, 81, 64
2, 1920, Note_on_c, 1, 71, 59
2, 1924, Note_off_c, 1, 69, 64
2, 1924, Note_on_c, 1, 83, 77
2, 2064, Note_off_c, 1, 83, 64
2, 2064, Note_on_c, 1, 67, 61
2, 2064, Note_on_c, 1, 79, 80
2, 2068, Note_off_c, 1, 71, 64
2, 2084, Control_c, 1, 64, 127
2, 2120, Note_off_c, 1, 79, 64
2, 2132, Note_off_c, 1, 67, 64
2, 2200, Control_c, 1, 64, 0
2, 2320, Note_on_c, 1, 74, 92
2, 2320, Note_on_c, 1, 62, 67
2, 2440, Note_off_c, 1, 74, 64
2, 2440, Note_on_c, 1, 76, 80
2, 2444, Note_off_c, 1, 62, 64
2, 2444, Note_on_c, 1, 64, 63
2, 2564, Note_off_c, 1, 76, 64
2, 2564, Note_on_c, 1, 60, 69
2, 2568, Note_off_c, 1, 64, 64
2, 2568, Note_on_c, 1, 72, 80
2, 2700, Note_off_c, 1, 60, 64
2, 2700, Note_off_c, 1, 72, 64
2, 2704, Note_on_c, 1, 69, 80
2, 2704, Note_on_c, 1, 57, 80
2, 2960, Note_off_c, 1, 69, 64
2, 2968, Note_off_c, 1, 57, 64
2, 2968, Note_on_c, 1, 71, 80
2, 2968, Note_on_c, 1, 59, 71
2, 3100, Note_off_c, 1, 59, 64
2, 3100, Note_off_c, 1, 71, 64
2, 3100, Note_on_c, 1, 67, 75
2, 3100, Note_on_c, 1, 55, 77
2, 3144, Control_c, 1, 64, 127
2, 3168, Note_off_c, 1, 67, 64
2, 3180, Note_off_c, 1, 55, 64
2, 3240, Control_c, 1, 64, 0
2, 3368, Note_on_c, 1, 50, 71
2, 3368, Note_on_c, 1, 62, 89
2, 3492, Note_off_c, 1, 50, 64
2, 3492, Note_on_c, 1, 64, 86
2, 3496, Note_on_c, 1, 52, 55
2, 3504, Note_off_c, 1, 62, 64
2, 3620, Note_off_c, 1, 64, 64
2, 3620, Note_off_c, 1, 52, 64
2, 3624, Note_on_c, 1, 60, 75
2, 3624, Note_on_c, 1, 48, 64
2, 3744, Note_off_c, 1, 48, 64
2, 3748, Note_off_c, 1, 60, 64
2, 3748, Note_on_c, 1, 57, 89
2, 3752, Note_on_c, 1, 45, 83
2, 3920, Control_c, 1, 64, 127
2, 4004, Note_off_c, 1, 57, 64
2, 4004, Note_off_c, 1, 45, 64
2, 4008, Note_on_c, 1, 59, 83
2, 4012, Note_on_c, 1, 47, 69
2, 4012, Control_c, 1, 64, 0
2, 4148, Note_off_c, 1, 59, 64
2, 4148, Note_off_c, 1, 47, 64
2, 4148, Note_on_c, 1, 45, 83
2, 4148, Note_on_c, 1, 57, 92
2, 4268, Note_off_c, 1, 45, 64
2, 4268, Note_off_c, 1, 57, 64
2, 4272, Note_on_c, 1, 44, 73
2, 4272, Note_on_c, 1, 56, 80
2, 4328, Control_c, 1, 64, 127
2, 4372, Note_off_c, 1, 56, 64
2, 4412, Note_on_c, 1, 43, 75
2, 4412, Note_on_c, 1, 55, 105
2, 4416, Note_off_c, 1, 44, 64
2, 4420, Control_c, 1, 64, 0
2, 4500, Control_c, 1, 64, 127
2, 4548, Note_off_c, 1, 55, 64
2, 4584, Note_off_c, 1, 43, 64
2, 4752, Control_c, 1, 64, 0
2, 4920, Note_on_c, 1, 79, 115
2, 4920, Note_on_c, 1, 67, 105
2, 4920, Note_on_c, 1, 71, 111
2, 4920, Note_on_c, 1, 74, 111
2, 4920, Note_on_c, 1, 31, 105
2, 4920, Note_on_c, 1, 43, 86
2, 4928, Control_c, 1, 64, 127
2, 4964, Note_off_c, 1, 31, 64
2, 4964, Note_off_c, 1, 43, 64
2, 4968, Note_off_c, 1, 67, 64
2, 4972, Note_off_c, 1, 79, 64
2, 4972, Note_off_c, 1, 71, 64
2, 4972, Note_off_c, 1, 74, 64
2, 5112, Control_c, 1, 64, 0
2, 5188, Note_on_c, 1, 55, 63
2, 5188, Note_on_c, 1, 59, 62
2, 5192, Note_on_c, 1, 62, 100
2, 5324, Note_on_c, 1, 63, 92
2, 5336, Note_off_c, 1, 62, 64
2, 5436, Note_off_c, 1, 55, 64
2, 5444, Note_off_c, 1, 59, 64
2, 5444, Note_on_c, 1, 48, 25
2, 5456, Note_off_c, 1, 63, 64
2, 5464, Note_on_c, 1, 64, 71
2, 5492, Note_off_c, 1, 48, 64
2, 5592, Note_on_c, 1, 72, 73
2, 5600, Note_off_c, 1, 64, 64
2, 5720, Note_on_c, 1, 55, 56
2, 5724, Note_on_c, 1, 52, 54
2, 5724, Note_on_c, 1, 60, 55
2, 5740, Note_off_c, 1, 55, 64
2, 5740, Note_off_c, 1, 60, 64
2, 5744, Note_off_c, 1, 52, 64
2, 5852, Note_off_c, 1, 72, 64
2, 5860, Note_on_c, 1, 64, 58
2, 5988, Note_off_c, 1, 64, 64
2, 5988, Note_on_c, 1, 43, 58
2, 5988, Note_on_c, 1, 72, 63
2, 5988, Note_on_c, 1, 55, 31
2, 6012, Note_off_c, 1, 43, 64
2, 6020, Note_off_c, 1, 55, 64
2, 6244, Note_on_c, 1, 55, 47
2, 6248, Note_off_c, 1, 72, 64
2, 6248, Note_on_c, 1, 64, 58
2, 6252, Note_on_c, 1, 60, 29
2, 6264, Note_off_c, 1, 55, 64
2, 6264, Note_off_c, 1, 60, 64
2, 6388, Note_on_c, 1, 72, 63
2, 6396, Note_off_c, 1, 64, 64
2, 6508, Note_on_c, 1, 53, 46
2, 6508, Note_on_c, 1, 41, 61
2, 6532, Note_off_c, 1, 41, 64
2, 6536, Note_off_c, 1, 53, 64
2, 6776, Note_on_c, 1, 57, 53
2, 6776, Note_on_c, 1, 60, 35
2, 6788, Note_off_c, 1, 57, 64
2, 6788, Note_off_c, 1, 60, 64
2, 7028, Note_on_c, 1, 40, 55
2, 7032, Note_on_c, 1, 52, 39
2, 7040, Control_c, 1, 64, 127
2, 7048, Note_off_c, 1, 40, 64
2, 7056, Note_off_c, 1, 52, 64
2, 7068, Note_off_c, 1, 72, 64
2, 7168, Note_on_c, 1, 84, 69
2, 7172, Note_on_c, 1, 72, 56
2, 7176, Note_on_c, 1, 76, 59
2, 7184, Note_off_c, 1, 72, 64
2, 7184, Note_off_c, 1, 76, 64
2, 7188, Note_off_c, 1, 84, 64
2, 7292, Note_on_c, 1, 60, 57
2, 7292, Note_on_c, 1, 55, 55
2, 7296, Note_on_c, 1, 86, 75
2, 7300, Note_on_c, 1, 77, 71
2, 7300, Note_on_c, 1, 74, 69
2, 7312, Note_off_c, 1, 60, 64
2, 7316, Note_off_c, 1, 55, 64
2, 7316, Note_off_c, 1, 86, 64
2, 7316, Note_off_c, 1, 77, 64
2, 7316, Note_off_c, 1, 74, 64
2, 7420, Note_on_c, 1, 87, 77
2, 7420, Note_on_c, 1, 75, 80
2, 7420, Note_on_c, 1, 78, 89
2, 7432, Note_off_c, 1, 75, 64
2, 7432, Note_off_c, 1, 78, 64
2, 7440, Note_off_c, 1, 87, 64
2, 7528, Control_c, 1, 64, 0
2, 7544, Note_on_c, 1, 55, 71
2, 7548, Note_on_c, 1, 88, 89
2, 7548, Note_on_c, 1, 43, 75
2, 7548, Note_on_c, 1, 76, 96
2, 7548, Note_on_c, 1, 79, 100
2, 7552, Control_c, 1, 64, 127
2, 7560, Note_off_c, 1, 76, 64
2, 7560, Note_off_c, 1, 79, 64
2, 7568, Note_off_c, 1, 88, 64
2, 7568, Note_off_c, 1, 43, 64
2, 7572, Note_off_c, 1, 55, 64
2, 7672, Note_on_c, 1, 76, 75
2, 7672, Note_on_c, 1, 72, 67
2, 7672, Note_on_c, 1, 84, 83
2, 7684, Note_off_c, 1, 76, 64
2, 7688, Note_off_c, 1, 72, 64
2, 7692, Note_off_c, 1, 84, 64
2, 7808, Note_on_c, 1, 52, 56
2, 7808, Note_on_c, 1, 55, 60
2, 7808, Note_on_c, 1, 77, 83
2, 7808, Note_on_c, 1, 86, 89
2, 7808, Note_on_c, 1, 74, 71
2, 7808, Note_on_c, 1, 60, 46
2, 7820, Note_off_c, 1, 55, 64
2, 7820, Note_off_c, 1, 77, 64
2, 7820, Note_off_c, 1, 74, 64
2, 7820, Note_off_c, 1, 60, 64
2, 7824, Note_off_c, 1, 86, 64
2, 7828, Note_off_c, 1, 52, 64
2, 7872, Control_c, 1, 64, 0
2, 7948, Note_on_c, 1, 88, 100
2, 7952, Note_on_c, 1, 76, 92
2, 7952, Note_on_c, 1, 79, 105
2, 7968, Control_c, 1, 64, 127
2, 8088, Note_off_c, 1, 88, 64
2, 8088, Note_off_c, 1, 79, 64
2, 8088, Note_on_c, 1, 43, 71
2, 8088, Note_on_c, 1, 55, 69
2, 8096, Note_off_c, 1, 76, 64
2, 8104, Note_off_c, 1, 43, 64
2, 8112, Note_off_c, 1, 55, 64
2, 8224, Note_on_c, 1, 83, 71
2, 8224, Note_on_c, 1, 74, 83
2, 8224, Note_on_c, 1, 71, 69
2, 8240, Note_off_c, 1, 71, 64
2, 8244, Note_off_c, 1, 74, 64
2, 8248, Note_off_c, 1, 83, 64
2, 8352, Note_on_c, 1, 86, 86
2, 8352, Note_on_c, 1, 53, 61
2, 8352, Note_on_c, 1, 77, 92
2, 8352, Note_on_c, 1, 55, 60
2, 8352, Note_on_c, 1, 59, 56
2, 8352, Note_on_c, 1, 74, 77
2, 8368, Note_off_c, 1, 55, 64
2, 8376, Note_off_c, 1, 53, 64
2, 8376, Note_off_c, 1, 59, 64
2, 8408, Note_off_c, 1, 86, 64
2, 8408, Note_off_c, 1, 77, 64
2, 8412, Note_off_c, 1, 74, 64
2, 8588, Control_c, 1, 64, 0
2, 8608, Note_on_c, 1, 84, 80
2, 8612, Note_on_c, 1, 48, 60
2, 8612, Note_on_c, 1, 76, 80
2, 8612, Note_on_c, 1, 72, 60
2, 8648, Control_c, 1, 64, 127
2, 8752, Note_off_c, 1, 48, 64
2, 8868, Note_on_c, 1, 52, 54
2, 8868, Note_on_c, 1, 55, 50
2, 8872, Note_on_c, 1, 60, 30
2, 8880, Control_c, 1, 64, 0
2, 8892, Note_off_c, 1, 55, 64
2, 8896, Note_off_c, 1, 52, 64
2, 8896, Note_off_c, 1, 60, 64
2, 9144, Note_off_c, 1, 84, 64
2, 9144, Note_off_c, 1, 72, 64
2, 9144, Note_on_c, 1, 52, 47
2, 9144, Note_on_c, 1, 55, 45
2, 9144, Note_on_c, 1, 60, 33
2, 9152, Note_off_c, 1, 76, 64
2, 9152, Control_c, 1, 64, 127
2, 9176, Note_off_c, 1, 55, 64
2, 9184, Note_off_c, 1, 60, 64
2, 9188, Note_off_c, 1, 52, 64
2, 9380, Note_on_c, 1, 59, 57
2, 9384, Note_on_c, 1, 55, 50
2, 9392, Control_c, 1, 64, 0
2, 9408, Note_on_c, 1, 62, 86
2, 9532, Note_on_c, 1, 63, 75
2, 9544, Note_off_c, 1, 62, 64
2, 9624, Note_off_c, 1, 55, 64
2, 9652, Note_on_c, 1, 48, 28
2, 9656, Note_off_c, 1, 59, 64
2, 9656, Note_off_c, 1, 63, 64
2, 9664, Note_on_c, 1, 64, 59
2, 9708, Note_off_c, 1, 48, 64
2, 9784, Note_on_c, 1, 72, 62
2, 9800, Note_off_c, 1, 64, 64
2, 9928, Note_on_c, 1, 55, 52
2, 9928, Note_on_c, 1, 60, 47
2, 9928, Note_on_c, 1, 52, 46
2, 9944, Note_off_c, 1, 55, 64
2, 9944, Note_off_c, 1, 60, 64
2, 9948, Note_off_c, 1, 52, 64
2, 10048, Note_off_c, 1, 72, 64
2, 10060, Note_on_c, 1, 64, 53
2, 10188, Note_on_c, 1, 43, 67
2, 10192, Note_off_c, 1, 64, 64
2, 10192, Note_on_c, 1, 55, 67
2, 10192, Note_on_c, 1, 72, 75
2, 10212, Note_off_c, 1, 43, 64
2, 10216, Note_off_c, 1, 55, 64
2, 10448, Note_off_c, 1, 72, 64
2, 10448, Note_on_c, 1, 58, 47
2, 10448, Note_on_c, 1, 55, 58
2, 10448, Note_on_c, 1, 60, 48
2, 10456, Note_on_c, 1, 64, 55
2, 10460, Note_off_c, 1, 58, 64
2, 10460, Note_off_c, 1, 60, 64
2, 10464, Note_off_c, 1, 55, 64
2, 10584, Note_on_c, 1, 72, 67
2, 10604, Note_off_c, 1, 64, 64
2, 10708, Control_c, 1, 64, 127
2, 10712, Note_on_c, 1, 53, 73
2, 10712, Note_on_c, 1, 41, 69
2, 10728, Note_off_c, 1, 41, 64
2, 10740, Note_off_c, 1, 53, 64
2, 10976, Note_on_c, 1, 57, 80
2, 10976, Note_on_c, 1, 60, 75
2, 11000, Note_off_c, 1, 57, 64
2, 11000, Note_off_c, 1, 60, 64
2, 11228, Note_on_c, 1, 52, 83
2, 11228, Control_c, 1, 64, 0
2, 11232, Note_on_c, 1, 40, 83
2, 11276, Control_c, 1, 64, 127
2, 11332, Note_off_c, 1, 72, 64
2, 11332, Note_off_c, 1, 52, 64
2, 11344, Note_off_c, 1, 40, 64
2, 11480, Control_c, 1, 64, 0
2, 11484, Note_on_c, 1, 81, 105
2, 11488, Note_on_c, 1, 72, 86
2, 11488, Note_on_c, 1, 69, 80
2, 11488, Note_on_c, 1, 39, 83
2, 11488, Note_on_c, 1, 51, 77
2, 11508, Control_c, 1, 64, 127
2, 11544, Note_off_c, 1, 81, 64
2, 11548, Note_off_c, 1, 72, 64
2, 11548, Note_off_c, 1, 69, 64
2, 11620, Note_off_c, 1, 39, 64
2, 11620, Note_on_c, 1, 79, 83
2, 11620, Note_on_c, 1, 67, 83
2, 11620, Note_on_c, 1, 72, 80
2, 11628, Note_off_c, 1, 51, 64
2, 11636, Note_off_c, 1, 67, 64
2, 11636, Note_off_c, 1, 72, 64
2, 11640, Note_off_c, 1, 79, 64
2, 11724, Control_c, 1, 64, 0
2, 11748, Note_on_c, 1, 72, 105
2, 11748, Note_on_c, 1, 78, 105
2, 11748, Note_on_c, 1, 66, 92
2, 11748, Note_on_c, 1, 50, 83
2, 11752, Note_on_c, 1, 38, 86
2, 11760, Control_c, 1, 64, 127
2, 11772, Note_off_c, 1, 38, 64
2, 11784, Note_off_c, 1, 66, 64
2, 11784, Note_off_c, 1, 50, 64
2, 11788, Note_off_c, 1, 72, 64
2, 11788, Note_off_c, 1, 78, 64
2, 11892, Note_on_c, 1, 81, 89
2, 11892, Note_on_c, 1, 69, 77
2, 11908, Note_off_c, 1, 69, 64
2, 11916, Note_off_c, 1, 81, 64
2, 12016, Note_on_c, 1, 84, 80
2, 12016, Note_on_c, 1, 72, 75
2, 12016, Note_on_c, 1, 57, 69
2, 12016, Note_on_c, 1, 60, 63
2, 12020, Note_on_c, 1, 54, 60
2, 12028, Note_off_c, 1, 72, 64
2, 12028, Control_c, 1, 64, 0
2, 12032, Note_off_c, 1, 84, 64
2, 12156, Note_on_c, 1, 88, 105
2, 12156, Note_on_c, 1, 76, 96
2, 12276, Note_off_c, 1, 54, 64
2, 12280, Note_off_c, 1, 57, 64
2, 12280, Note_off_c, 1, 60, 64
2, 12280, Note_on_c, 1, 50, 86
2, 12284, Control_c, 1, 64, 127
2, 12288, Note_off_c, 1, 88, 64
2, 12288, Note_off_c, 1, 76, 64
2, 12412, Note_on_c, 1, 86, 86
2, 12416, Note_on_c, 1, 74, 75
2, 12428, Note_off_c, 1, 86, 64
2, 12428, Note_off_c, 1, 74, 64
2, 12540, Note_on_c, 1, 84, 83
2, 12540, Note_on_c, 1, 57, 57
2, 12544, Note_on_c, 1, 60, 55
2, 12544, Note_on_c, 1, 54, 49
2, 12544, Note_on_c, 1, 72, 75
2, 12560, Note_off_c, 1, 84, 64
2, 12564, Note_off_c, 1, 72, 64
2, 12592, Note_off_c, 1, 54, 64
2, 12596, Note_off_c, 1, 57, 64
2, 12596, Note_off_c, 1, 60, 64
2, 12608, Note_off_c, 1, 50, 64
2, 12664, Note_on_c, 1, 81, 80
2, 12672, Note_on_c, 1, 69, 69
2, 12680, Note_off_c, 1, 69, 64
2, 12688, Note_off_c, 1, 81, 64
2, 12736, Control_c, 1, 64, 0
2, 12808, Note_on_c, 1, 74, 80
2, 12812, Note_on_c, 1, 55, 55
2, 12812, Note_on_c, 1, 86, 100
2, 12812, Note_on_c, 1, 77, 86
2, 12812, Note_on_c, 1, 59, 57
2, 12832, Control_c, 1, 64, 127
2, 12868, Note_off_c, 1, 59, 64
2, 12888, Note_off_c, 1, 55, 64
2, 12948, Control_c, 1, 64, 0
2, 13072, Note_on_c, 1, 43, 105
2, 13072, Note_on_c, 1, 55, 86
2, 13084, Control_c, 1, 64, 127
2, 13176, Note_off_c, 1, 43, 64
2, 13180, Note_off_c, 1, 55, 64
2, 13196, Control_c, 1, 64, 0
2, 13272, Note_off_c, 1, 74, 64
2, 13272, Note_off_c, 1, 77, 64
2, 13284, Note_off_c, 1, 86, 64
2, 13340, Note_on_c, 1, 57, 75
2, 13344, Note_on_c, 1, 45, 96
2, 13424, Control_c, 1, 64, 127
2, 13452, Note_off_c, 1, 45, 64
2, 13456, Note_off_c, 1, 57, 64
2, 13480, Control_c, 1, 64, 0
2, 13608, Note_on_c, 1, 59, 58
2, 13612, Note_on_c, 1, 62, 67
2, 13612, Note_on_c, 1, 47, 58
2, 13740, Note_on_c, 1, 63, 73
2, 13752, Note_off_c, 1, 62, 64
2, 13768, Note_off_c, 1, 47, 64
2, 13856, Note_on_c, 1, 48, 55
2, 13864, Note_off_c, 1, 59, 64
2, 13880, Note_on_c, 1, 64, 59
2, 13888, Note_off_c, 1, 63, 64
2, 13924, Note_off_c, 1, 48, 64
2, 13996, Note_on_c, 1, 72, 57
2, 14004, Note_off_c, 1, 64, 64
2, 14116, Note_on_c, 1, 52, 61
2, 14116, Note_on_c, 1, 60, 57
2, 14116, Note_on_c, 1, 55, 62
2, 14128, Note_off_c, 1, 52, 64
2, 14128, Note_off_c, 1, 55, 64
2, 14132, Note_off_c, 1, 60, 64
2, 14244, Note_off_c, 1, 72, 64
2, 14248, Note_on_c, 1, 64, 59
2, 14372, Note_off_c, 1, 64, 64
2, 14392, Note_on_c, 1, 43, 47
2, 14392, Note_on_c, 1, 55, 38
2, 14396, Note_on_c, 1, 72, 71
2, 14408, Control_c, 1, 64, 127
2, 14424, Note_off_c, 1, 43, 64
2, 14432, Note_off_c, 1, 55, 64
2, 14644, Note_on_c, 1, 55, 45
2, 14644, Note_on_c, 1, 58, 39
2, 14648, Note_on_c, 1, 64, 60
2, 14648, Note_on_c, 1, 60, 32
2, 14648, Control_c, 1, 64, 0
2, 14660, Note_off_c, 1, 72, 64
2, 14660, Note_off_c, 1, 58, 64
2, 14664, Note_off_c, 1, 55, 64
2, 14664, Note_off_c, 1, 60, 64
2, 14672, Note_off_c, 1, 64, 64
2, 14780, Note_on_c, 1, 72, 80
2, 14912, Note_on_c, 1, 41, 63
2, 14912, Note_on_c, 1, 53, 68
2, 14916, Control_c, 1, 64, 127
2, 14928, Note_off_c, 1, 41, 64
2, 14936, Note_off_c, 1, 53, 64
2, 15172, Note_on_c, 1, 60, 65
2, 15176, Note_on_c, 1, 57, 67
2, 15188, Note_off_c, 1, 60, 64
2, 15188, Note_off_c, 1, 57, 64
2, 15388, Control_c, 1, 64, 0
2, 15424, Note_on_c, 1, 52, 75
2, 15424, Note_on_c, 1, 40, 78
2, 15428, Control_c, 1, 64, 127
2, 15444, Note_off_c, 1, 72, 64
2, 15452, Note_off_c, 1, 40, 64
2, 15468, Note_off_c, 1, 52, 64
2, 15556, Note_on_c, 1, 76, 86
2, 15556, Note_on_c, 1, 72, 73
2, 15556, Note_on_c, 1, 84, 80
2, 15568, Note_off_c, 1, 76, 64
2, 15572, Note_off_c, 1, 72, 64
2, 15576, Note_off_c, 1, 84, 64
2, 15680, Note_on_c, 1, 60, 55
2, 15680, Note_on_c, 1, 55, 61
2, 15680, Note_on_c, 1, 52, 58
2, 15688, Note_on_c, 1, 77, 92
2, 15692, Note_on_c, 1, 86, 92
2, 15692, Note_on_c, 1, 74, 86
2, 15696, Note_off_c, 1, 60, 64
2, 15696, Note_off_c, 1, 55, 64
2, 15704, Note_off_c, 1, 52, 64
2, 15704, Note_off_c, 1, 77, 64
2, 15704, Note_off_c, 1, 74, 64
2, 15716, Note_off_c, 1, 86, 64
2, 15816, Note_on_c, 1, 75, 73
2, 15820, Note_on_c, 1, 78, 86
2, 15820, Note_on_c, 1, 87, 86
2, 15832, Note_off_c, 1, 75, 64
2, 15832, Note_off_c, 1, 78, 64
2, 15848, Note_off_c, 1, 87, 64
2, 15936, Control_c, 1, 64, 0
2, 15956, Note_on_c, 1, 55, 86
2, 15956, Note_on_c, 1, 43, 105
2, 15956, Note_on_c, 1, 88, 92
2, 15956, Note_on_c, 1, 76, 96
2, 15956, Note_on_c, 1, 79, 105
2, 15972, Control_c, 1, 64, 127
2, 15980, Note_off_c, 1, 79, 64
2, 15988, Note_off_c, 1, 88, 64
2, 15992, Note_off_c, 1, 76, 64
2, 16004, Note_off_c, 1, 43, 64
2, 16016, Note_off_c, 1, 55, 64
2, 16092, Note_on_c, 1, 76, 86
2, 16092, Note_on_c, 1, 84, 89
2, 16096, Note_on_c, 1, 72, 69
2, 16108, Note_off_c, 1, 76, 64
2, 16112, Note_off_c, 1, 72, 64
2, 16116, Note_off_c, 1, 84, 64
2, 16228, Note_on_c, 1, 60, 55
2, 16228, Note_on_c, 1, 52, 53
2, 16228, Note_on_c, 1, 77, 75
2, 16232, Note_on_c, 1, 55, 56
2, 16232, Note_on_c, 1, 86, 75
2, 16232, Note_on_c, 1, 74, 69
2, 16248, Note_off_c, 1, 60, 64
2, 16248, Note_off_c, 1, 77, 64
2, 16248, Note_off_c, 1, 55, 64
2, 16248, Note_off_c, 1, 74, 64
2, 16252, Note_off_c, 1, 52, 64
2, 16252, Note_off_c, 1, 86, 64
2, 16292, Control_c, 1, 64, 0
2, 16368, Note_on_c, 1, 88, 89
2, 16368, Note_on_c, 1, 79, 110
2, 16368, Note_on_c, 1, 76, 92
2, 16496, Note_on_c, 1, 43, 77
2, 16496, Control_c, 1, 64, 127
2, 16500, Note_off_c, 1, 88, 64
2, 16500, Note_off_c, 1, 79, 64
2, 16500, Note_off_c, 1, 76, 64
2, 16500, Note_on_c, 1, 55, 80
2, 16516, Note_off_c, 1, 43, 64
2, 16516, Note_off_c, 1, 55, 64
2, 16628, Note_on_c, 1, 74, 92
2, 16628, Note_on_c, 1, 83, 92
2, 16628, Note_on_c, 1, 71, 77
2, 16636, Note_off_c, 1, 74, 64
2, 16640, Note_off_c, 1, 71, 64
2, 16644, Note_off_c, 1, 83, 64
2, 16756, Note_on_c, 1, 59, 57
2, 16756, Note_on_c, 1, 55, 62
2, 16756, Note_on_c, 1, 86, 89
2, 16756, Note_on_c, 1, 77, 105
2, 16756, Note_on_c, 1, 74, 89
2, 16784, Note_off_c, 1, 55, 64
2, 16796, Note_off_c, 1, 59, 64
2, 16808, Note_off_c, 1, 77, 64
2, 16812, Note_off_c, 1, 86, 64
2, 16816, Note_off_c, 1, 74, 64
2, 16996, Control_c, 1, 64, 0
2, 17008, Note_on_c, 1, 48, 63
2, 17008, Note_on_c, 1, 76, 92
2, 17008, Note_on_c, 1, 72, 80
2, 17008, Note_on_c, 1, 84, 75
2, 17048, Control_c, 1, 64, 127
2, 17148, Note_off_c, 1, 48, 64
2, 17248, Control_c, 1, 64, 0
2, 17272, Note_on_c, 1, 52, 69
2, 17276, Note_on_c, 1, 55, 75
2, 17276, Note_on_c, 1, 60, 67
2, 17284, Control_c, 1, 64, 127
2, 17300, Note_off_c, 1, 55, 64
2, 17300, Note_off_c, 1, 60, 64
2, 17304, Note_off_c, 1, 52, 64
2, 17404, Control_c, 1, 64, 0
2, 17540, Note_on_c, 1, 55, 71
2, 17540, Note_on_c, 1, 64, 65
2, 17544, Note_on_c, 1, 60, 67
2, 17548, Control_c, 1, 64, 127
2, 17556, Note_off_c, 1, 55, 64
2, 17556, Note_off_c, 1, 60, 64
2, 17560, Note_off_c, 1, 64, 64
2, 17600, Note_off_c, 1, 76, 64
2, 17600, Note_off_c, 1, 84, 64
2, 17604, Note_off_c, 1, 72, 64
2, 17800, Note_on_c, 1, 84, 75
2, 17800, Control_c, 1, 64, 0
2, 17804, Note_on_c, 1, 72, 59
2, 17840, Control_c, 1, 64, 127
2, 17872, Note_off_c, 1, 72, 64
2, 17884, Note_off_c, 1, 84, 64
2, 17936, Note_on_c, 1, 74, 75
2, 17936, Note_on_c, 1, 86, 71
2, 17952, Note_off_c, 1, 74, 64
2, 17956, Note_off_c, 1, 86, 64
2, 18044, Control_c, 1, 64, 0
2, 18064, Note_on_c, 1, 48, 75
2, 18064, Note_on_c, 1, 60, 63
2, 18064, Note_on_c, 1, 88, 77
2, 18068, Note_on_c, 1, 76, 77
2, 18084, Control_c, 1, 64, 127
2, 18096, Note_off_c, 1, 88, 64
2, 18100, Note_off_c, 1, 76, 64
2, 18120, Note_off_c, 1, 48, 64
2, 18132, Note_off_c, 1, 60, 64
2, 18204, Note_on_c, 1, 84, 71
2, 18204, Note_on_c, 1, 72, 67
2, 18220, Note_off_c, 1, 72, 64
2, 18224, Note_off_c, 1, 84, 64
2, 18328, Note_on_c, 1, 55, 63
2, 18328, Note_on_c, 1, 64, 59
2, 18332, Note_on_c, 1, 86, 73
2, 18332, Note_on_c, 1, 74, 67
2, 18336, Control_c, 1, 64, 0
2, 18348, Note_off_c, 1, 64, 64
2, 18352, Note_off_c, 1, 55, 64
2, 18352, Note_off_c, 1, 74, 64
2, 18356, Note_off_c, 1, 86, 64
2, 18452, Note_on_c, 1, 88, 86
2, 18456, Note_on_c, 1, 76, 75
2, 18584, Note_on_c, 1, 58, 61
2, 18584, Control_c, 1, 64, 127
2, 18588, Note_on_c, 1, 46, 71
2, 18604, Note_off_c, 1, 88, 64
2, 18604, Note_off_c, 1, 46, 64
2, 18608, Note_off_c, 1, 76, 64
2, 18608, Note_off_c, 1, 58, 64
2, 18716, Note_on_c, 1, 84, 80
2, 18720, Note_on_c, 1, 72, 73
2, 18736, Note_off_c, 1, 72, 64
2, 18744, Note_off_c, 1, 84, 64
2, 18848, Note_on_c, 1, 55, 58
2, 18848, Note_on_c, 1, 64, 55
2, 18848, Note_on_c, 1, 60, 55
2, 18848, Note_on_c, 1, 86, 80
2, 18852, Note_on_c, 1, 74, 86
2, 18860, Note_off_c, 1, 64, 64
2, 18864, Note_off_c, 1, 60, 64
2, 18872, Note_off_c, 1, 86, 64
2, 18872, Note_off_c, 1, 74, 64
2, 18876, Note_off_c, 1, 55, 64
2, 18972, Note_on_c, 1, 72, 75
2, 18972, Note_on_c, 1, 84, 69
2, 18988, Note_off_c, 1, 72, 64
2, 18996, Note_off_c, 1, 84, 64
2, 19060, Control_c, 1, 64, 0
2, 19104, Note_on_c, 1, 88, 83
2, 19104, Note_on_c, 1, 57, 67
2, 19104, Note_on_c, 1, 45, 69
2, 19108, Note_on_c, 1, 76, 86
2, 19112, Control_c, 1, 64, 127
2, 19124, Note_off_c, 1, 88, 64
2, 19124, Note_off_c, 1, 45, 64
2, 19124, Note_off_c, 1, 76, 64
2, 19140, Note_off_c, 1, 57, 64
2, 19236, Note_on_c, 1, 84, 71
2, 19240, Note_on_c, 1, 72, 69
2, 19260, Note_off_c, 1, 72, 64
2, 19268, Note_off_c, 1, 84, 64
2, 19372, Note_on_c, 1, 65, 56
2, 19376, Note_on_c, 1, 57, 57
2, 19380, Note_on_c, 1, 86, 75
2, 19380, Note_on_c, 1, 74, 73
2, 19380, Note_on_c, 1, 60, 47
2, 19388, Note_off_c, 1, 65, 64
2, 19392, Note_off_c, 1, 60, 64
2, 19396, Note_off_c, 1, 57, 64
2, 19396, Note_off_c, 1, 74, 64
2, 19400, Note_off_c, 1, 86, 64
2, 19412, Control_c, 1, 64, 0
2, 19520, Note_on_c, 1, 76, 92
2, 19520, Note_on_c, 1, 88, 89
2, 19640, Note_on_c, 1, 56, 64
2, 19644, Note_on_c, 1, 44, 67
2, 19644, Control_c, 1, 64, 127
2, 19660, Note_off_c, 1, 76, 64
2, 19660, Note_off_c, 1, 88, 64
2, 19660, Note_off_c, 1, 44, 64
2, 19668, Note_off_c, 1, 56, 64
2, 19764, Note_on_c, 1, 84, 83
2, 19768, Note_on_c, 1, 72, 64
2, 19784, Note_off_c, 1, 72, 64
2, 19792, Note_off_c, 1, 84, 64
2, 19900, Note_on_c, 1, 56, 48
2, 19900, Note_on_c, 1, 60, 55
2, 19900, Note_on_c, 1, 65, 33
2, 19904, Note_on_c, 1, 86, 80
2, 19904, Note_on_c, 1, 74, 80
2, 19912, Note_off_c, 1, 60, 64
2, 19916, Note_off_c, 1, 65, 64
2, 19920, Note_off_c, 1, 56, 64
2, 19920, Note_off_c, 1, 86, 64
2, 19920, Note_off_c, 1, 74, 64
2, 20020, Note_on_c, 1, 84, 67
2, 20024, Note_on_c, 1, 72, 67
2, 20040, Note_off_c, 1, 72, 64
2, 20044, Note_off_c, 1, 84, 64
2, 20124, Control_c, 1, 64, 0
2, 20152, Note_on_c, 1, 55, 69
2, 20152, Note_on_c, 1, 43, 80
2, 20152, Note_on_c, 1, 88, 89
2, 20152, Note_on_c, 1, 76, 83
2, 20156, Note_on_c, 1, 79, 86
2, 20164, Control_c, 1, 64, 127
2, 20172, Note_off_c, 1, 76, 64
2, 20172, Note_off_c, 1, 79, 64
2, 20176, Note_off_c, 1, 88, 64
2, 20188, Note_off_c, 1, 43, 64
2, 20200, Note_off_c, 1, 55, 64
2, 20292, Note_on_c, 1, 72, 69
2, 20292, Note_on_c, 1, 84, 89
2, 20292, Note_on_c, 1, 76, 86
2, 20304, Note_off_c, 1, 72, 64
2, 20304, Note_off_c, 1, 76, 64
2, 20308, Note_off_c, 1, 84, 64
2, 20424, Note_on_c, 1, 86, 89
2, 20424, Note_on_c, 1, 55, 57
2, 20424, Note_on_c, 1, 77, 89
2, 20424, Note_on_c, 1, 74, 75
2, 20432, Note_on_c, 1, 64, 28
2, 20440, Note_off_c, 1, 77, 64
2, 20440, Note_off_c, 1, 74, 64
2, 20440, Note_off_c, 1, 64, 64
2, 20444, Note_off_c, 1, 86, 64
2, 20444, Note_off_c, 1, 55, 64
2, 20460, Control_c, 1, 64, 0
2, 20560, Note_on_c, 1, 88, 100
2, 20560, Note_on_c, 1, 76, 92
2, 20564, Note_on_c, 1, 79, 100
2, 20688, Control_c, 1, 64, 127
2, 20692, Note_on_c, 1, 43, 73
2, 20692, Note_on_c, 1, 55, 65
2, 20696, Note_off_c, 1, 88, 64
2, 20696, Note_off_c, 1, 76, 64
2, 20696, Note_off_c, 1, 79, 64
2, 20708, Note_off_c, 1, 43, 64
2, 20716, Note_off_c, 1, 55, 64
2, 20820, Note_on_c, 1, 74, 80
2, 20820, Note_on_c, 1, 83, 83
2, 20820, Note_on_c, 1, 71, 67
2, 20836, Note_off_c, 1, 74, 64
2, 20836, Note_off_c, 1, 71, 64
2, 20840, Note_off_c, 1, 83, 64
2, 20956, Note_on_c, 1, 59, 65
2, 20956, Note_on_c, 1, 77, 80
2, 20956, Note_on_c, 1, 86, 89
2, 20956, Note_on_c, 1, 74, 73
2, 20956, Note_on_c, 1, 55, 54
2, 20976, Note_off_c, 1, 59, 64
2, 20976, Note_off_c, 1, 55, 64
2, 20984, Note_off_c, 1, 77, 64
2, 20988, Note_off_c, 1, 86, 64
2, 20996, Note_off_c, 1, 74, 64
2, 21132, Control_c, 1, 64, 0
2, 21216, Note_on_c, 1, 60, 60
2, 21220, Note_on_c, 1, 48, 55
2, 21220, Note_on_c, 1, 76, 89
2, 21220, Note_on_c, 1, 84, 83
2, 21220, Control_c, 1, 64, 127
2, 21224, Note_on_c, 1, 72, 63
2, 21232, Note_off_c, 1, 72, 64
2, 21236, Note_off_c, 1, 60, 64
2, 21236, Note_off_c, 1, 76, 64
2, 21236, Note_off_c, 1, 84, 64
2, 21244, Note_off_c, 1, 48, 64
2, 21384, Control_c, 1, 64, 0
2, 21472, Note_on_c, 1, 43, 89
2, 21476, Note_on_c, 1, 55, 96
2, 21564, Control_c, 1, 64, 127
2, 21572, Control_c, 1, 64, 0
2, 21612, Note_off_c, 1, 43, 64
2, 21612, Note_off_c, 1, 55, 64
2, 21740, Note_on_c, 1, 45, 92
2, 21740, Note_on_c, 1, 57, 92
2, 21748, Control_c, 1, 64, 127
2, 21880, Control_c, 1, 64, 0
2, 21888, Note_off_c, 1, 45, 64
2, 21892, Note_off_c, 1, 57, 64
2, 22016, Note_on_c, 1, 47, 89
2, 22020, Note_on_c, 1, 59, 86
2, 22020, Note_on_c, 1, 62, 67
2, 22152, Note_on_c, 1, 63, 71
2, 22160, Note_off_c, 1, 62, 64
2, 22216, Note_off_c, 1, 47, 64
2, 22260, Note_off_c, 1, 59, 64
2, 22280, Note_off_c, 1, 63, 64
2, 22280, Note_on_c, 1, 48, 56
2, 22284, Note_on_c, 1, 64, 62
2, 22336, Note_off_c, 1, 48, 64
2, 22408, Note_on_c, 1, 72, 30
2, 22420, Note_off_c, 1, 64, 64
2, 22532, Note_on_c, 1, 60, 51
2, 22536, Note_on_c, 1, 52, 41
2, 22548, Note_off_c, 1, 60, 64
2, 22552, Note_off_c, 1, 52, 64
2, 22656, Note_off_c, 1, 72, 64
2, 22660, Note_on_c, 1, 64, 47
2, 22796, Note_on_c, 1, 43, 56
2, 22796, Note_on_c, 1, 55, 42
2, 22796, Note_on_c, 1, 72, 55
2, 22804, Note_off_c, 1, 64, 64
2, 22816, Note_off_c, 1, 43, 64
2, 22816, Note_off_c, 1, 55, 64
2, 23060, Note_on_c, 1, 58, 41
2, 23060, Note_on_c, 1, 55, 43
2, 23064, Note_off_c, 1, 72, 64
2, 23064, Note_on_c, 1, 64, 49
2, 23076, Note_off_c, 1, 58, 64
2, 23076, Note_off_c, 1, 55, 64
2, 23188, Note_on_c, 1, 72, 57
2, 23208, Note_off_c, 1, 64, 64
2, 23324, Note_on_c, 1, 41, 56
2, 23324, Note_on_c, 1, 53, 54
2, 23340, Note_off_c, 1, 41, 64
2, 23344, Note_off_c, 1, 53, 64
2, 23596, Note_on_c, 1, 57, 58
2, 23596, Note_on_c, 1, 60, 33
2, 23612, Note_off_c, 1, 57, 64
2, 23612, Note_off_c, 1, 60, 64
2, 23860, Note_on_c, 1, 40, 41
2, 23860, Note_on_c, 1, 52, 31
2, 23868, Control_c, 1, 64, 127
2, 23876, Note_off_c, 1, 72, 64
2, 23876, Note_off_c, 1, 40, 64
2, 23884, Note_off_c, 1, 52, 64
2, 23884, Control_c, 1, 64, 0
2, 23988, Note_on_c, 1, 72, 56
2, 23988, Note_on_c, 1, 76, 58
2, 23988, Control_c, 1, 64, 127
2, 23992, Note_on_c, 1, 84, 26
2, 24000, Note_off_c, 1, 76, 64
2, 24008, Note_off_c, 1, 72, 64
2, 24008, Note_off_c, 1, 84, 64
2, 24112, Note_on_c, 1, 55, 55
2, 24112, Note_on_c, 1, 52, 49
2, 24112, Note_on_c, 1, 86, 67
2, 24112, Note_on_c, 1, 77, 60
2, 24116, Note_on_c, 1, 60, 45
2, 24116, Note_on_c, 1, 74, 63
2, 24124, Control_c, 1, 64, 0
2, 24128, Note_off_c, 1, 55, 64
2, 24128, Note_off_c, 1, 52, 64
2, 24128, Note_off_c, 1, 77, 64
2, 24128, Note_off_c, 1, 60, 64
2, 24136, Note_off_c, 1, 74, 64
2, 24140, Note_off_c, 1, 86, 64
2, 24240, Note_on_c, 1, 87, 52
2, 24240, Note_on_c, 1, 75, 50
2, 24240, Note_on_c, 1, 78, 56
2, 24252, Note_off_c, 1, 78, 64
2, 24256, Note_off_c, 1, 75, 64
2, 24264, Note_off_c, 1, 87, 64
2, 24376, Note_on_c, 1, 43, 63
2, 24376, Control_c, 1, 64, 127
2, 24380, Note_on_c, 1, 55, 41
2, 24384, Note_on_c, 1, 88, 62
2, 24384, Note_on_c, 1, 79, 64
2, 24384, Note_on_c, 1, 76, 57
2, 24400, Note_off_c, 1, 43, 64
2, 24400, Note_off_c, 1, 55, 64
2, 24400, Note_off_c, 1, 88, 64
2, 24400, Note_off_c, 1, 79, 64
2, 24400, Note_off_c, 1, 76, 64
2, 24516, Note_on_c, 1, 72, 55
2, 24516, Note_on_c, 1, 76, 57
2, 24520, Note_on_c, 1, 84, 53
2, 24532, Note_off_c, 1, 72, 64
2, 24532, Note_off_c, 1, 76, 64
2, 24536, Note_off_c, 1, 84, 64
2, 24540, Control_c, 1, 64, 0
2, 24644, Note_on_c, 1, 77, 58
2, 24644, Note_on_c, 1, 74, 57
2, 24648, Note_on_c, 1, 52, 56
2, 24652, Note_on_c, 1, 55, 61
2, 24652, Note_on_c, 1, 86, 43
2, 24656, Note_on_c, 1, 60, 30
2, 24664, Note_off_c, 1, 55, 64
2, 24664, Note_off_c, 1, 60, 64
2, 24668, Note_off_c, 1, 77, 64
2, 24668, Note_off_c, 1, 74, 64
2, 24668, Note_off_c, 1, 52, 64
2, 24668, Note_off_c, 1, 86, 64
2, 24776, Note_on_c, 1, 79, 58
2, 24776, Note_on_c, 1, 88, 56
2, 24784, Note_on_c, 1, 76, 51
2, 24896, Control_c, 1, 64, 127
2, 24908, Note_off_c, 1, 76, 64
2, 24908, Note_on_c, 1, 43, 52
2, 24912, Note_off_c, 1, 79, 64
2, 24912, Note_off_c, 1, 88, 64
2, 24912, Note_on_c, 1, 55, 51
2, 24928, Note_off_c, 1, 43, 64
2, 24940, Note_off_c, 1, 55, 64
2, 25044, Note_on_c, 1, 74, 56
2, 25044, Note_on_c, 1, 71, 45
2, 25044, Note_on_c, 1, 83, 31
2, 25056, Note_off_c, 1, 71, 64
2, 25060, Note_off_c, 1, 74, 64
2, 25064, Note_off_c, 1, 83, 64
2, 25172, Note_on_c, 1, 59, 29
2, 25172, Note_on_c, 1, 77, 51
2, 25172, Note_on_c, 1, 86, 54
2, 25180, Note_on_c, 1, 55, 24
2, 25180, Note_on_c, 1, 74, 33
2, 25180, Control_c, 1, 64, 0
2, 25220, Control_c, 1, 64, 127
2, 25236, Note_off_c, 1, 55, 64
2, 25244, Note_off_c, 1, 59, 64
2, 25248, Note_off_c, 1, 77, 64
2, 25248, Note_off_c, 1, 86, 64
2, 25248, Note_off_c, 1, 74, 64
2, 25424, Note_on_c, 1, 48, 30
2, 25428, Note_on_c, 1, 84, 55
2, 25432, Note_on_c, 1, 76, 56
2, 25440, Note_on_c, 1, 72, 30
2, 25440, Control_c, 1, 64, 0
2, 25492, Control_c, 1, 64, 127
2, 25520, Note_off_c, 1, 48, 64
2, 25572, Control_c, 1, 64, 0
2, 25700, Note_on_c, 1, 55, 46
2, 25700, Note_on_c, 1, 60, 42
2, 25716, Note_off_c, 1, 55, 64
2, 25724, Note_off_c, 1, 60, 64
2, 25856, Control_c, 1, 64, 127
2, 25912, Note_off_c, 1, 76, 64
2, 25920, Note_off_c, 1, 72, 64
2, 25924, Note_off_c, 1, 84, 64
2, 25960, Note_on_c, 1, 55, 31
2, 25960, Note_on_c, 1, 60, 29
2, 25964, Note_on_c, 1, 52, 29
2, 26008, Note_off_c, 1, 55, 64
2, 26012, Note_off_c, 1, 60, 64
2, 26016, Note_off_c, 1, 52, 64
2, 26208, Note_on_c, 1, 59, 29
2, 26208, Note_on_c, 1, 55, 29
2, 26208, Control_c, 1, 64, 0
2, 26224, Note_on_c, 1, 62, 60
2, 26352, Note_on_c, 1, 63, 65
2, 26364, Note_off_c, 1, 62, 64
2, 26460, Note_off_c, 1, 55, 64
2, 26460, Note_on_c, 1, 48, 23
2, 26468, Note_off_c, 1, 59, 64
2, 26496, Note_on_c, 1, 64, 60
2, 26500, Note_off_c, 1, 63, 64
2, 26536, Note_off_c, 1, 48, 64
2, 26608, Note_on_c, 1, 72, 62
2, 26644, Note_off_c, 1, 64, 64
2, 26748, Note_on_c, 1, 55, 57
2, 26752, Note_on_c, 1, 60, 48
2, 26752, Note_on_c, 1, 52, 52
2, 26764, Note_off_c, 1, 55, 64
2, 26768, Note_off_c, 1, 60, 64
2, 26768, Note_off_c, 1, 52, 64
2, 26876, Note_off_c, 1, 72, 64
2, 26884, Note_on_c, 1, 64, 55
2, 27016, Note_on_c, 1, 72, 69
2, 27016, Note_on_c, 1, 43, 61
2, 27020, Note_off_c, 1, 64, 64
2, 27020, Note_on_c, 1, 55, 55
2, 27040, Control_c, 1, 64, 127
2, 27072, Note_off_c, 1, 43, 64
2, 27088, Note_off_c, 1, 55, 64
2, 27264, Note_off_c, 1, 72, 64
2, 27272, Control_c, 1, 64, 0
2, 27276, Note_on_c, 1, 58, 52
2, 27276, Note_on_c, 1, 64, 61
2, 27276, Note_on_c, 1, 55, 61
2, 27280, Note_on_c, 1, 60, 55
2, 27300, Control_c, 1, 64, 127
2, 27324, Note_off_c, 1, 58, 64
2, 27328, Note_off_c, 1, 55, 64
2, 27328, Note_off_c, 1, 60, 64
2, 27412, Note_on_c, 1, 72, 69
2, 27436, Note_off_c, 1, 64, 64
2, 27536, Control_c, 1, 64, 0
2, 27540, Note_on_c, 1, 41, 67
2, 27544, Note_on_c, 1, 53, 69
2, 27556, Control_c, 1, 64, 127
2, 27608, Note_off_c, 1, 41, 64
2, 27624, Note_off_c, 1, 53, 64
2, 27808, Note_on_c, 1, 60, 67
2, 27812, Note_on_c, 1, 57, 69
2, 27844, Note_off_c, 1, 60, 64
2, 27852, Note_off_c, 1, 57, 64
2, 28068, Note_on_c, 1, 40, 77
2, 28072, Note_on_c, 1, 52, 86
2, 28072, Control_c, 1, 64, 0
2, 28108, Control_c, 1, 64, 127
2, 28152, Note_off_c, 1, 72, 64
2, 28208, Note_off_c, 1, 52, 64
2, 28240, Note_off_c, 1, 40, 64
2, 28332, Note_on_c, 1, 72, 69
2, 28336, Note_on_c, 1, 81, 75
2, 28336, Note_on_c, 1, 69, 63
2, 28336, Note_on_c, 1, 51, 77
2, 28336, Note_on_c, 1, 39, 71
2, 28336, Control_c, 1, 64, 0
2, 28352, Control_c, 1, 64, 127
2, 28380, Note_off_c, 1, 81, 64
2, 28388, Note_off_c, 1, 69, 64
2, 28400, Note_off_c, 1, 72, 64
2, 28460, Note_on_c, 1, 79, 69
2, 28468, Note_on_c, 1, 72, 64
2, 28468, Note_on_c, 1, 67, 60
2, 28472, Note_off_c, 1, 51, 64
2, 28472, Note_off_c, 1, 39, 64
2, 28484, Note_off_c, 1, 67, 64
2, 28488, Note_off_c, 1, 79, 64
2, 28488, Note_off_c, 1, 72, 64
2, 28576, Control_c, 1, 64, 0
2, 28588, Note_on_c, 1, 38, 55
2, 28588, Note_on_c, 1, 50, 54
2, 28596, Note_on_c, 1, 66, 60
2, 28600, Note_on_c, 1, 78, 62
2, 28608, Control_c, 1, 64, 127
2, 28620, Note_off_c, 1, 38, 64
2, 28628, Note_off_c, 1, 50, 64
2, 28628, Note_off_c, 1, 66, 64
2, 28632, Note_off_c, 1, 78, 64
2, 28720, Note_on_c, 1, 69, 60
2, 28724, Note_on_c, 1, 81, 43
2, 28744, Note_off_c, 1, 69, 64
2, 28744, Note_off_c, 1, 81, 64
2, 28848, Note_on_c, 1, 54, 24
2, 28848, Note_on_c, 1, 72, 58
2, 28848, Note_on_c, 1, 84, 59
2, 28852, Note_on_c, 1, 60, 30
2, 28868, Note_off_c, 1, 72, 64
2, 28872, Note_off_c, 1, 84, 64
2, 28880, Control_c, 1, 64, 0
2, 28888, Note_on_c, 1, 57, 23
2, 29012, Note_on_c, 1, 88, 73
2, 29012, Note_on_c, 1, 76, 64
2, 29016, Control_c, 1, 64, 127
2, 29044, Control_c, 1, 64, 0
2, 29096, Control_c, 1, 64, 127
2, 29124, Note_on_c, 1, 50, 59
2, 29136, Note_off_c, 1, 54, 64
2, 29136, Note_off_c, 1, 57, 64
2, 29136, Note_off_c, 1, 88, 64
2, 29140, Note_off_c, 1, 76, 64
2, 29144, Note_off_c, 1, 60, 64
2, 29256, Note_on_c, 1, 86, 67
2, 29264, Note_on_c, 1, 74, 60
2, 29280, Note_off_c, 1, 86, 64
2, 29280, Note_off_c, 1, 74, 64
2, 29392, Note_on_c, 1, 54, 47
2, 29396, Note_on_c, 1, 84, 71
2, 29396, Note_on_c, 1, 57, 47
2, 29396, Note_on_c, 1, 72, 59
2, 29400, Note_on_c, 1, 60, 41
2, 29412, Note_off_c, 1, 84, 64
2, 29412, Note_off_c, 1, 72, 64
2, 29432, Note_off_c, 1, 57, 64
2, 29440, Note_off_c, 1, 54, 64
2, 29444, Note_off_c, 1, 50, 64
2, 29448, Note_off_c, 1, 60, 64
2, 29516, Note_on_c, 1, 81, 55
2, 29516, Note_on_c, 1, 69, 62
2, 29532, Note_off_c, 1, 69, 64
2, 29536, Note_off_c, 1, 81, 64
2, 29584, Control_c, 1, 64, 0
2, 29652, Note_on_c, 1, 86, 58
2, 29656, Note_on_c, 1, 77, 58
2, 29656, Note_on_c, 1, 55, 35
2, 29660, Note_on_c, 1, 74, 55
2, 29664, Note_on_c, 1, 59, 29
2, 29664, Control_c, 1, 64, 127
2, 29676, Note_off_c, 1, 55, 64
2, 29676, Note_off_c, 1, 59, 64
2, 29784, Control_c, 1, 64, 0
2, 29920, Note_on_c, 1, 55, 62
2, 29920, Note_on_c, 1, 43, 58
2, 29928, Control_c, 1, 64, 127
2, 29960, Note_off_c, 1, 55, 64
2, 29964, Note_off_c, 1, 43, 64
2, 30060, Control_c, 1, 64, 0
2, 30184, Note_on_c, 1, 57, 64
2, 30184, Note_on_c, 1, 45, 73
2, 30196, Control_c, 1, 64, 127
2, 30244, Note_off_c, 1, 45, 64
2, 30252, Note_off_c, 1, 86, 64
2, 30256, Note_off_c, 1, 77, 64
2, 30256, Note_off_c, 1, 74, 64
2, 30260, Note_off_c, 1, 57, 64
2, 30336, Control_c, 1, 64, 0
2, 30448, Note_on_c, 1, 62, 60
2, 30448, Note_on_c, 1, 47, 73
2, 30456, Note_on_c, 1, 59, 61
2, 30580, Note_on_c, 1, 63, 59
2, 30584, Note_off_c, 1, 62, 64
2, 30604, Control_c, 1, 64, 127
2, 30624, Note_off_c, 1, 47, 64
2, 30692, Note_on_c, 1, 48, 43
2, 30692, Control_c, 1, 64, 0
2, 30704, Note_off_c, 1, 63, 64
2, 30708, Note_off_c, 1, 59, 64
2, 30708, Note_on_c, 1, 64, 57
2, 30716, Note_off_c, 1, 48, 64
2, 30832, Note_on_c, 1, 72, 53
2, 30856, Note_off_c, 1, 64, 64
2, 30964, Note_on_c, 1, 52, 51
2, 30968, Note_on_c, 1, 60, 49
2, 30980, Note_off_c, 1, 52, 64
2, 30980, Note_off_c, 1, 60, 64
2, 31096, Note_off_c, 1, 72, 64
2, 31096, Note_on_c, 1, 64, 52
2, 31228, Note_on_c, 1, 55, 63
2, 31228, Note_on_c, 1, 43, 63
2, 31232, Note_off_c, 1, 64, 64
2, 31232, Note_on_c, 1, 72, 63
2, 31248, Note_off_c, 1, 43, 64
2, 31252, Note_off_c, 1, 55, 64
2, 31496, Note_on_c, 1, 58, 47
2, 31496, Note_on_c, 1, 55, 56
2, 31496, Note_on_c, 1, 60, 52
2, 31496, Note_on_c, 1, 64, 55
2, 31508, Note_off_c, 1, 72, 64
2, 31508, Note_off_c, 1, 58, 64
2, 31508, Note_off_c, 1, 55, 64
2, 31508, Note_off_c, 1, 60, 64
2, 31620, Note_on_c, 1, 72, 69
2, 31624, Note_off_c, 1, 64, 64
2, 31756, Note_on_c, 1, 41, 69
2, 31756, Note_on_c, 1, 53, 67
2, 31772, Note_off_c, 1, 41, 64
2, 31772, Note_off_c, 1, 53, 64
2, 32028, Note_on_c, 1, 60, 54
2, 32028, Note_on_c, 1, 57, 56
2, 32048, Note_off_c, 1, 60, 64
2, 32048, Note_off_c, 1, 57, 64
2, 32276, Note_on_c, 1, 40, 63
2, 32276, Note_on_c, 1, 52, 64
2, 32292, Note_off_c, 1, 40, 64
2, 32296, Note_off_c, 1, 52, 64
2, 32360, Note_off_c, 1, 72, 64
2, 32412, Note_on_c, 1, 76, 75
2, 32412, Note_on_c, 1, 84, 75
2, 32416, Note_on_c, 1, 72, 61
2, 32424, Control_c, 1, 64, 127
2, 32432, Note_off_c, 1, 76, 64
2, 32432, Note_off_c, 1, 72, 64
2, 32440, Note_off_c, 1, 84, 64
2, 32540, Note_on_c, 1, 60, 55
2, 32544, Note_on_c, 1, 55, 62
2, 32544, Note_on_c, 1, 86, 75
2, 32548, Note_on_c, 1, 77, 65
2, 32552, Note_on_c, 1, 74, 59
2, 32556, Note_off_c, 1, 60, 64
2, 32556, Note_off_c, 1, 55, 64
2, 32556, Note_off_c, 1, 77, 64
2, 32564, Note_off_c, 1, 74, 64
2, 32568, Note_off_c, 1, 86, 64
2, 32672, Note_on_c, 1, 87, 73
2, 32672, Note_on_c, 1, 78, 75
2, 32672, Note_on_c, 1, 75, 62
2, 32684, Note_off_c, 1, 78, 64
2, 32688, Note_off_c, 1, 75, 64
2, 32704, Note_off_c, 1, 87, 64
2, 32780, Control_c, 1, 64, 0
2, 32800, Control_c, 1, 64, 127
2, 32804, Note_on_c, 1, 43, 73
2, 32808, Note_on_c, 1, 88, 63
2, 32808, Note_on_c, 1, 76, 62
2, 32808, Note_on_c, 1, 79, 61
2, 32824, Note_off_c, 1, 43, 64
2, 32824, Note_off_c, 1, 88, 64
2, 32828, Note_off_c, 1, 76, 64
2, 32828, Note_off_c, 1, 79, 64
2, 32940, Note_on_c, 1, 76, 64
2, 32940, Note_on_c, 1, 84, 65
2, 32940, Note_on_c, 1, 72, 60
2, 32956, Note_off_c, 1, 76, 64
2, 32956, Note_off_c, 1, 72, 64
2, 32964, Note_off_c, 1, 84, 64
2, 33072, Note_on_c, 1, 52, 57
2, 33072, Note_on_c, 1, 55, 57
2, 33072, Note_on_c, 1, 77, 59
2, 33072, Note_on_c, 1, 60, 56
2, 33072, Note_on_c, 1, 74, 61
2, 33072, Note_on_c, 1, 86, 57
2, 33088, Note_off_c, 1, 55, 64
2, 33088, Note_off_c, 1, 77, 64
2, 33088, Note_off_c, 1, 60, 64
2, 33088, Note_off_c, 1, 74, 64
2, 33092, Note_off_c, 1, 52, 64
2, 33096, Note_off_c, 1, 86, 64
2, 33196, Note_on_c, 1, 79, 64
2, 33200, Note_on_c, 1, 88, 65
2, 33204, Note_on_c, 1, 76, 60
2, 33300, Control_c, 1, 64, 0
2, 33324, Note_on_c, 1, 43, 61
2, 33328, Note_on_c, 1, 55, 60
2, 33332, Control_c, 1, 64, 127
2, 33344, Note_off_c, 1, 79, 64
2, 33344, Note_off_c, 1, 88, 64
2, 33348, Note_off_c, 1, 76, 64
2, 33356, Note_off_c, 1, 43, 64
2, 33356, Note_off_c, 1, 55, 64
2, 33460, Note_on_c, 1, 74, 60
2, 33460, Note_on_c, 1, 83, 58
2, 33460, Note_on_c, 1, 71, 53
2, 33480, Note_off_c, 1, 74, 64
2, 33480, Note_off_c, 1, 71, 64
2, 33488, Note_off_c, 1, 83, 64
2, 33608, Note_on_c, 1, 77, 59
2, 33608, Note_on_c, 1, 86, 58
2, 33608, Note_on_c, 1, 74, 56
2, 33612, Note_on_c, 1, 53, 53
2, 33612, Note_on_c, 1, 55, 49
2, 33612, Note_on_c, 1, 59, 45
2, 33632, Note_off_c, 1, 53, 64
2, 33632, Note_off_c, 1, 55, 64
2, 33640, Note_off_c, 1, 59, 64
2, 33700, Note_off_c, 1, 77, 64
2, 33700, Note_off_c, 1, 86, 64
2, 33708, Note_off_c, 1, 74, 64
2, 33868, Note_on_c, 1, 76, 54
2, 33868, Note_on_c, 1, 84, 53
2, 33872, Note_on_c, 1, 48, 27
2, 33876, Note_on_c, 1, 72, 39
2, 33880, Control_c, 1, 64, 0
2, 33904, Control_c, 1, 64, 127
2, 33944, Note_off_c, 1, 48, 64
2, 34000, Note_off_c, 1, 72, 64
2, 34004, Note_off_c, 1, 76, 64
2, 34004, Note_off_c, 1, 84, 64
2, 34132, Note_on_c, 1, 60, 29
2, 34136, Note_on_c, 1, 52, 29
2, 34140, Note_on_c, 1, 55, 23
2, 34160, Note_off_c, 1, 55, 64
2, 34172, Note_off_c, 1, 52, 64
2, 34176, Note_off_c, 1, 60, 64
2, 34412, Note_on_c, 1, 64, 40
2, 34412, Note_on_c, 1, 55, 28
2, 34448, Note_off_c, 1, 64, 64
2, 34452, Note_off_c, 1, 55, 64
2, 34664, Note_on_c, 1, 84, 65
2, 34668, Note_on_c, 1, 72, 64
2, 34704, Note_off_c, 1, 72, 64
2, 34732, Note_off_c, 1, 84, 64
2, 34800, Note_on_c, 1, 86, 75
2, 34804, Note_on_c, 1, 74, 77
2, 34828, Note_off_c, 1, 74, 64
2, 34836, Note_off_c, 1, 86, 64
2, 34912, Control_c, 1, 64, 0
2, 34928, Note_on_c, 1, 60, 60
2, 34928, Note_on_c, 1, 48, 67
2, 34940, Control_c, 1, 64, 127
2, 34944, Note_on_c, 1, 76, 77
2, 34948, Note_on_c, 1, 88, 73
2, 34956, Note_off_c, 1, 48, 64
2, 34964, Note_off_c, 1, 76, 64
2, 34964, Note_off_c, 1, 88, 64
2, 34968, Note_off_c, 1, 60, 64
2, 35068, Note_on_c, 1, 84, 69
2, 35068, Note_on_c, 1, 72, 60
2, 35084, Note_off_c, 1, 72, 64
2, 35096, Note_off_c, 1, 84, 64
2, 35184, Note_on_c, 1, 55, 45
2, 35188, Note_on_c, 1, 86, 71
2, 35192, Note_on_c, 1, 74, 65
2, 35196, Note_on_c, 1, 64, 24
2, 35208, Note_off_c, 1, 74, 64
2, 35208, Note_off_c, 1, 64, 64
2, 35212, Note_off_c, 1, 55, 64
2, 35220, Note_off_c, 1, 86, 64
2, 35260, Control_c, 1, 64, 0
2, 35312, Note_on_c, 1, 76, 80
2, 35312, Note_on_c, 1, 88, 83
2, 35448, Control_c, 1, 64, 127
2, 35452, Note_on_c, 1, 58, 77
2, 35452, Note_on_c, 1, 46, 83
2, 35456, Note_off_c, 1, 88, 64
2, 35456, Note_off_c, 1, 46, 64
2, 35464, Note_off_c, 1, 76, 64
2, 35464, Note_off_c, 1, 58, 64
2, 35580, Note_on_c, 1, 84, 75
2, 35584, Note_on_c, 1, 72, 67
2, 35608, Note_off_c, 1, 84, 64
2, 35608, Note_off_c, 1, 72, 64
2, 35708, Note_on_c, 1, 64, 56
2, 35708, Note_on_c, 1, 55, 57
2, 35708, Note_on_c, 1, 86, 71
2, 35712, Note_on_c, 1, 74, 75
2, 35724, Note_off_c, 1, 86, 64
2, 35728, Note_off_c, 1, 74, 64
2, 35732, Note_off_c, 1, 64, 64
2, 35736, Note_off_c, 1, 55, 64
2, 35836, Note_on_c, 1, 72, 75
2, 35836, Note_on_c, 1, 84, 75
2, 35852, Note_off_c, 1, 72, 64
2, 35856, Note_off_c, 1, 84, 64
2, 35952, Control_c, 1, 64, 0
2, 35964, Note_on_c, 1, 57, 83
2, 35964, Note_on_c, 1, 45, 83
2, 35972, Note_on_c, 1, 88, 75
2, 35972, Note_on_c, 1, 76, 69
2, 35976, Control_c, 1, 64, 127
2, 35992, Note_off_c, 1, 88, 64
2, 35992, Note_off_c, 1, 76, 64
2, 36044, Note_off_c, 1, 45, 64
2, 36056, Note_off_c, 1, 57, 64
2, 36108, Note_on_c, 1, 84, 80
2, 36108, Note_on_c, 1, 72, 62
2, 36128, Note_off_c, 1, 72, 64
2, 36132, Note_off_c, 1, 84, 64
2, 36228, Note_on_c, 1, 65, 63
2, 36228, Note_on_c, 1, 55, 65
2, 36228, Note_on_c, 1, 60, 63
2, 36232, Note_on_c, 1, 86, 73
2, 36232, Note_on_c, 1, 74, 77
2, 36244, Note_off_c, 1, 60, 64
2, 36248, Note_off_c, 1, 65, 64
2, 36248, Note_off_c, 1, 55, 64
2, 36256, Note_off_c, 1, 74, 64
2, 36264, Note_off_c, 1, 86, 64
2, 36360, Note_on_c, 1, 88, 83
2, 36360, Note_on_c, 1, 76, 75
2, 36480, Control_c, 1, 64, 0
2, 36496, Note_on_c, 1, 56, 73
2, 36496, Note_on_c, 1, 44, 83
2, 36508, Control_c, 1, 64, 127
2, 36536, Note_off_c, 1, 88, 64
2, 36544, Note_off_c, 1, 76, 64
2, 36560, Note_off_c, 1, 44, 64
2, 36568, Note_off_c, 1, 56, 64
2, 36628, Note_on_c, 1, 84, 77
2, 36628, Note_on_c, 1, 72, 71
2, 36648, Note_off_c, 1, 72, 64
2, 36652, Note_off_c, 1, 84, 64
2, 36760, Note_on_c, 1, 56, 58
2, 36760, Note_on_c, 1, 65, 63
2, 36760, Note_on_c, 1, 60, 62
2, 36764, Note_on_c, 1, 86, 77
2, 36764, Note_on_c, 1, 74, 69
2, 36772, Note_off_c, 1, 60, 64
2, 36776, Note_off_c, 1, 65, 64
2, 36780, Note_off_c, 1, 56, 64
2, 36788, Note_off_c, 1, 74, 64
2, 36792, Note_off_c, 1, 86, 64
2, 36884, Note_on_c, 1, 84, 77
2, 36884, Note_on_c, 1, 72, 67
2, 36904, Note_off_c, 1, 84, 64
2, 36904, Note_off_c, 1, 72, 64
2, 37016, Note_on_c, 1, 55, 92
2, 37016, Note_on_c, 1, 88, 89
2, 37016, Control_c, 1, 64, 0
2, 37020, Note_on_c, 1, 43, 92
2, 37020, Note_on_c, 1, 76, 83
2, 37020, Note_on_c, 1, 79, 86
2, 37040, Control_c, 1, 64, 127
2, 37060, Note_off_c, 1, 88, 64
2, 37060, Note_off_c, 1, 79, 64
2, 37064, Note_off_c, 1, 76, 64
2, 37076, Note_off_c, 1, 43, 64
2, 37088, Note_off_c, 1, 55, 64
2, 37156, Note_on_c, 1, 76, 77
2, 37156, Note_on_c, 1, 84, 83
2, 37160, Note_on_c, 1, 72, 65
2, 37172, Note_off_c, 1, 76, 64
2, 37172, Note_off_c, 1, 72, 64
2, 37180, Note_off_c, 1, 84, 64
2, 37284, Note_on_c, 1, 55, 75
2, 37288, Note_on_c, 1, 64, 69
2, 37288, Note_on_c, 1, 77, 86
2, 37288, Note_on_c, 1, 60, 73
2, 37288, Note_on_c, 1, 86, 83
2, 37288, Note_on_c, 1, 74, 73
2, 37300, Note_off_c, 1, 64, 64
2, 37300, Note_off_c, 1, 60, 64
2, 37304, Note_off_c, 1, 55, 64
2, 37304, Note_off_c, 1, 77, 64
2, 37304, Note_off_c, 1, 74, 64
2, 37312, Note_off_c, 1, 86, 64
2, 37416, Note_on_c, 1, 88, 95
2, 37416, Note_on_c, 1, 79, 93
2, 37420, Note_on_c, 1, 76, 89
2, 37452, Control_c, 1, 64, 0
2, 37544, Note_on_c, 1, 43, 83
2, 37544, Note_on_c, 1, 55, 83
2, 37544, Control_c, 1, 64, 127
2, 37552, Note_off_c, 1, 88, 64
2, 37552, Note_off_c, 1, 79, 64
2, 37556, Note_off_c, 1, 76, 64
2, 37608, Note_off_c, 1, 43, 64
2, 37628, Note_off_c, 1, 55, 64
2, 37672, Note_on_c, 1, 83, 96
2, 37672, Note_on_c, 1, 74, 89
2, 37672, Note_on_c, 1, 71, 75
2, 37684, Note_off_c, 1, 74, 64
2, 37684, Note_off_c, 1, 71, 64
2, 37688, Note_off_c, 1, 83, 64
2, 37808, Note_on_c, 1, 86, 97
2, 37812, Note_on_c, 1, 59, 77
2, 37812, Note_on_c, 1, 55, 83
2, 37812, Note_on_c, 1, 74, 96
2, 37812, Note_on_c, 1, 77, 99
2, 37880, Note_off_c, 1, 55, 64
2, 37884, Note_off_c, 1, 59, 64
2, 37916, Note_off_c, 1, 86, 64
2, 37916, Note_off_c, 1, 74, 64
2, 37916, Note_off_c, 1, 77, 64
2, 38064, Note_on_c, 1, 84, 92
2, 38068, Note_on_c, 1, 76, 107
2, 38068, Note_on_c, 1, 55, 106
2, 38068, Note_on_c, 1, 60, 92
2, 38068, Note_on_c, 1, 48, 99
2, 38068, Note_on_c, 1, 72, 105
2, 38068, Control_c, 1, 64, 0
2, 38112, Control_c, 1, 64, 127
2, 38136, Note_off_c, 1, 60, 64
2, 38148, Note_off_c, 1, 55, 64
2, 38152, Note_off_c, 1, 48, 64
2, 38324, Control_c, 1, 64, 0
2, 38332, Note_on_c, 1, 43, 105
2, 38332, Note_on_c, 1, 55, 105
2, 38364, Control_c, 1, 64, 127
2, 38400, Note_off_c, 1, 55, 64
2, 38412, Note_off_c, 1, 43, 64
2, 38468, Note_off_c, 1, 76, 64
2, 38468, Note_off_c, 1, 84, 64
2, 38476, Note_off_c, 1, 72, 64
2, 38600, Note_on_c, 1, 48, 105
2, 38600, Note_on_c, 1, 36, 105
2, 38612, Control_c, 1, 64, 0
2, 38732, Note_on_c, 1, 76, 105
2, 38732, Note_on_c, 1, 72, 92
2, 38732, Note_on_c, 1, 64, 92
2, 38740, Note_off_c, 1, 48, 64
2, 38744, Control_c, 1, 64, 127
2, 38748, Note_off_c, 1, 36, 64
2, 38780, Note_off_c, 1, 64, 64
2, 38784, Note_off_c, 1, 72, 64
2, 38788, Note_off_c, 1, 76, 64
2, 38864, Note_on_c, 1, 77, 105
2, 38864, Note_on_c, 1, 74, 110
2, 38864, Note_on_c, 1, 65, 92
2, 38868, Control_c, 1, 64, 0
2, 38876, Note_off_c, 1, 74, 64
2, 38876, Note_off_c, 1, 65, 64
2, 38888, Note_off_c, 1, 77, 64
2, 38900, Control_c, 1, 64, 127
2, 38928, Control_c, 1, 64, 0
2, 38988, Note_on_c, 1, 78, 100
2, 38992, Note_on_c, 1, 66, 77
2, 38996, Note_on_c, 1, 75, 62
2, 39000, Note_off_c, 1, 75, 64
2, 39004, Note_off_c, 1, 66, 64
2, 39008, Note_off_c, 1, 78, 64
2, 39124, Note_on_c, 1, 48, 117
2, 39128, Note_on_c, 1, 79, 116
2, 39128, Note_on_c, 1, 76, 117
2, 39128, Note_on_c, 1, 36, 110
2, 39128, Note_on_c, 1, 43, 124
2, 39128, Note_on_c, 1, 67, 105
2, 39136, Control_c, 1, 64, 127
2, 39140, Note_off_c, 1, 43, 64
2, 39144, Note_off_c, 1, 48, 64
2, 39144, Note_off_c, 1, 36, 64
2, 39192, Note_off_c, 1, 67, 64
2, 39200, Note_off_c, 1, 79, 64
2, 39200, Note_off_c, 1, 76, 64
2, 39384, Note_on_c, 1, 55, 89
2, 39388, Note_on_c, 1, 64, 83
2, 39388, Note_on_c, 1, 81, 110
2, 39388, Note_on_c, 1, 60, 77
2, 39388, Note_on_c, 1, 76, 105
2, 39388, Note_on_c, 1, 69, 100
2, 39400, Note_off_c, 1, 64, 64
2, 39400, Note_off_c, 1, 60, 64
2, 39404, Note_off_c, 1, 55, 64
2, 39408, Note_off_c, 1, 76, 64
2, 39408, Note_off_c, 1, 69, 64
2, 39412, Note_off_c, 1, 81, 64
2, 39520, Note_on_c, 1, 76, 105
2, 39524, Note_on_c, 1, 79, 105
2, 39528, Note_on_c, 1, 67, 92
2, 39532, Control_c, 1, 64, 0
2, 39656, Note_on_c, 1, 43, 110
2, 39656, Control_c, 1, 64, 127
2, 39664, Note_off_c, 1, 76, 64
2, 39664, Note_off_c, 1, 79, 64
2, 39668, Note_off_c, 1, 67, 64
2, 39672, Note_off_c, 1, 43, 64
2, 39796, Note_on_c, 1, 76, 89
2, 39796, Note_on_c, 1, 72, 96
2, 39796, Note_on_c, 1, 64, 89
2, 39808, Note_off_c, 1, 64, 64
2, 39812, Note_off_c, 1, 76, 64
2, 39812, Note_off_c, 1, 72, 64
2, 39912, Note_on_c, 1, 55, 75
2, 39912, Note_on_c, 1, 64, 69
2, 39916, Note_on_c, 1, 60, 69
2, 39920, Note_on_c, 1, 77, 105
2, 39920, Note_on_c, 1, 74, 92
2, 39920, Note_on_c, 1, 65, 86
2, 39928, Note_off_c, 1, 64, 64
2, 39928, Note_off_c, 1, 60, 64
2, 39932, Note_off_c, 1, 55, 64
2, 39932, Note_off_c, 1, 74, 64
2, 39936, Note_off_c, 1, 77, 64
2, 39936, Note_off_c, 1, 65, 64
2, 40040, Note_on_c, 1, 78, 83
2, 40044, Note_on_c, 1, 66, 77
2, 40044, Note_on_c, 1, 75, 65
2, 40052, Note_off_c, 1, 75, 64
2, 40056, Control_c, 1, 64, 0
2, 40060, Note_off_c, 1, 66, 64
2, 40068, Note_off_c, 1, 78, 64
2, 40168, Note_on_c, 1, 79, 115
2, 40172, Note_on_c, 1, 67, 110
2, 40176, Note_on_c, 1, 48, 105
2, 40176, Note_on_c, 1, 76, 127
2, 40176, Control_c, 1, 64, 127
2, 40188, Note_off_c, 1, 48, 64
2, 40272, Note_off_c, 1, 79, 64
2, 40276, Note_off_c, 1, 67, 64
2, 40288, Note_off_c, 1, 76, 64
2, 40432, Note_on_c, 1, 55, 75
2, 40436, Note_on_c, 1, 64, 71
2, 40440, Note_on_c, 1, 60, 65
2, 40440, Note_on_c, 1, 81, 100
2, 40440, Note_on_c, 1, 76, 96
2, 40440, Note_on_c, 1, 69, 92
2, 40448, Note_off_c, 1, 64, 64
2, 40452, Note_off_c, 1, 60, 64
2, 40456, Note_off_c, 1, 55, 64
2, 40456, Note_off_c, 1, 76, 64
2, 40460, Note_off_c, 1, 69, 64
2, 40464, Note_off_c, 1, 81, 64
2, 40572, Note_on_c, 1, 79, 99
2, 40572, Note_on_c, 1, 76, 89
2, 40572, Note_on_c, 1, 67, 90
2, 40692, Control_c, 1, 64, 0
2, 40708, Note_on_c, 1, 43, 109
2, 40716, Note_off_c, 1, 76, 64
2, 40720, Note_off_c, 1, 79, 64
2, 40724, Control_c, 1, 64, 127
2, 40736, Note_off_c, 1, 43, 64
2, 40792, Note_off_c, 1, 67, 64
2, 40840, Note_on_c, 1, 76, 96
2, 40972, Note_on_c, 1, 55, 77
2, 40976, Note_off_c, 1, 76, 64
2, 40980, Note_on_c, 1, 64, 69
2, 40980, Note_on_c, 1, 60, 73
2, 40980, Note_on_c, 1, 72, 96
2, 40988, Note_off_c, 1, 55, 64
2, 40988, Note_off_c, 1, 64, 64
2, 40988, Note_off_c, 1, 60, 64
2, 41092, Note_off_c, 1, 72, 64
2, 41096, Note_on_c, 1, 67, 98
2, 41220, Control_c, 1, 64, 0
2, 41224, Note_on_c, 1, 41, 92
2, 41248, Note_on_c, 1, 69, 98
2, 41256, Note_off_c, 1, 67, 64
2, 41260, Control_c, 1, 64, 127
2, 41284, Note_off_c, 1, 41, 64
2, 41368, Note_off_c, 1, 69, 64
2, 41372, Note_on_c, 1, 71, 89
2, 41488, Control_c, 1, 64, 0
2, 41496, Note_off_c, 1, 71, 64
2, 41496, Note_on_c, 1, 57, 75
2, 41496, Note_on_c, 1, 65, 71
2, 41496, Note_on_c, 1, 60, 65
2, 41500, Note_on_c, 1, 72, 89
2, 41512, Control_c, 1, 64, 127
2, 41588, Control_c, 1, 64, 0
2, 41620, Note_off_c, 1, 72, 64
2, 41624, Note_on_c, 1, 74, 98
2, 41624, Control_c, 1, 64, 127
2, 41692, Note_off_c, 1, 57, 64
2, 41740, Note_off_c, 1, 65, 64
2, 41740, Note_off_c, 1, 60, 64
2, 41756, Note_on_c, 1, 53, 89
2, 41760, Note_off_c, 1, 74, 64
2, 41760, Control_c, 1, 64, 0
2, 41768, Note_on_c, 1, 76, 96
2, 41888, Note_off_c, 1, 76, 64
2, 41888, Note_on_c, 1, 74, 92
2, 42016, Note_on_c, 1, 65, 67
2, 42016, Note_on_c, 1, 60, 62
2, 42020, Note_off_c, 1, 74, 64
2, 42020, Note_on_c, 1, 56, 54
2, 42020, Note_on_c, 1, 72, 86
2, 42148, Note_off_c, 1, 72, 64
2, 42156, Note_off_c, 1, 65, 64
2, 42156, Note_off_c, 1, 60, 64
2, 42156, Note_on_c, 1, 74, 98
2, 42156, Control_c, 1, 64, 127
2, 42164, Note_off_c, 1, 53, 64
2, 42164, Note_off_c, 1, 56, 64
2, 42180, Note_off_c, 1, 74, 64
2, 42296, Note_on_c, 1, 67, 100
2, 42296, Note_on_c, 1, 52, 77
2, 42304, Control_c, 1, 64, 0
2, 42420, Note_off_c, 1, 67, 64
2, 42420, Note_on_c, 1, 76, 92
2, 42444, Control_c, 1, 64, 127
2, 42536, Control_c, 1, 64, 0
2, 42540, Note_off_c, 1, 76, 64
2, 42544, Note_on_c, 1, 60, 64
2, 42544, Note_on_c, 1, 64, 65
2, 42552, Note_on_c, 1, 55, 63
2, 42552, Note_on_c, 1, 77, 103
2, 42576, Control_c, 1, 64, 127
2, 42604, Note_off_c, 1, 60, 64
2, 42604, Note_off_c, 1, 64, 64
2, 42612, Note_off_c, 1, 55, 64
2, 42620, Note_off_c, 1, 52, 64
2, 42672, Note_off_c, 1, 77, 64
2, 42680, Note_on_c, 1, 79, 96
2, 42724, Note_off_c, 1, 79, 64
2, 42792, Control_c, 1, 64, 0
2, 42808, Note_on_c, 1, 43, 105
2, 42812, Note_on_c, 1, 81, 105
2, 42820, Control_c, 1, 64, 127
2, 42844, Note_off_c, 1, 43, 64
2, 42944, Note_on_c, 1, 79, 100
2, 42952, Note_off_c, 1, 81, 64
2, 42972, Note_off_c, 1, 79, 64
2, 43068, Note_on_c, 1, 55, 83
2, 43068, Note_on_c, 1, 64, 73
2, 43072, Note_on_c, 1, 60, 71
2, 43076, Note_on_c, 1, 76, 108
2, 43080, Note_off_c, 1, 55, 64
2, 43080, Note_off_c, 1, 64, 64
2, 43084, Note_off_c, 1, 60, 64
2, 43120, Note_off_c, 1, 76, 64
2, 43208, Note_on_c, 1, 77, 92
2, 43228, Note_off_c, 1, 77, 64
2, 43336, Note_on_c, 1, 36, 122
2, 43336, Note_on_c, 1, 48, 120
2, 43336, Note_on_c, 1, 67, 105
2, 43340, Note_on_c, 1, 79, 122
2, 43340, Note_on_c, 1, 76, 115
2, 43340, Control_c, 1, 64, 0
2, 43372, Control_c, 1, 64, 127
2, 43388, Note_off_c, 1, 36, 64
2, 43392, Note_off_c, 1, 48, 64
2, 43416, Note_off_c, 1, 79, 64
2, 43420, Note_off_c, 1, 67, 64
2, 43420, Note_off_c, 1, 76, 64
2, 43600, Note_on_c, 1, 55, 75
2, 43604, Note_on_c, 1, 64, 62
2, 43608, Note_on_c, 1, 81, 110
2, 43608, Note_on_c, 1, 60, 64
2, 43608, Note_on_c, 1, 69, 100
2, 43608, Note_on_c, 1, 76, 110
2, 43620, Note_off_c, 1, 64, 64
2, 43620, Note_off_c, 1, 60, 64
2, 43624, Note_off_c, 1, 55, 64
2, 43660, Note_off_c, 1, 81, 64
2, 43660, Note_off_c, 1, 69, 64
2, 43660, Note_off_c, 1, 76, 64
2, 43736, Note_on_c, 1, 67, 92
2, 43736, Note_on_c, 1, 79, 105
2, 43736, Note_on_c, 1, 76, 110
2, 43804, Control_c, 1, 64, 0
2, 43872, Note_on_c, 1, 43, 122
2, 43876, Control_c, 1, 64, 127
2, 43888, Note_off_c, 1, 43, 64
2, 43900, Note_off_c, 1, 76, 64
2, 43904, Note_off_c, 1, 67, 64
2, 43904, Note_off_c, 1, 79, 64
2, 44000, Note_on_c, 1, 76, 105
2, 44000, Note_on_c, 1, 72, 105
2, 44004, Note_on_c, 1, 64, 92
2, 44016, Note_off_c, 1, 72, 64
2, 44016, Note_off_c, 1, 64, 64
2, 44024, Note_off_c, 1, 76, 64
2, 44120, Note_on_c, 1, 55, 71
2, 44124, Note_on_c, 1, 64, 75
2, 44124, Note_on_c, 1, 77, 100
2, 44124, Note_on_c, 1, 60, 77
2, 44128, Note_on_c, 1, 65, 96
2, 44128, Note_on_c, 1, 74, 110
2, 44136, Note_off_c, 1, 64, 64
2, 44136, Note_off_c, 1, 60, 64
2, 44140, Note_off_c, 1, 65, 64
2, 44140, Note_off_c, 1, 74, 64
2, 44144, Note_off_c, 1, 55, 64
2, 44144, Note_off_c, 1, 77, 64
2, 44252, Note_on_c, 1, 78, 92
2, 44252, Note_on_c, 1, 66, 83
2, 44252, Note_on_c, 1, 75, 83
2, 44268, Note_off_c, 1, 66, 64
2, 44268, Note_off_c, 1, 75, 64
2, 44276, Note_off_c, 1, 78, 64
2, 44360, Control_c, 1, 64, 0
2, 44380, Note_on_c, 1, 79, 105
2, 44380, Note_on_c, 1, 67, 105
2, 44384, Note_on_c, 1, 76, 110
2, 44384, Note_on_c, 1, 48, 105
2, 44396, Control_c, 1, 64, 127
2, 44412, Note_off_c, 1, 48, 64
2, 44496, Note_off_c, 1, 79, 64
2, 44496, Note_off_c, 1, 67, 64
2, 44500, Note_off_c, 1, 76, 64
2, 44632, Note_on_c, 1, 55, 83
2, 44636, Note_on_c, 1, 64, 71
2, 44640, Note_on_c, 1, 81, 96
2, 44640, Note_on_c, 1, 60, 65
2, 44644, Note_on_c, 1, 76, 89
2, 44644, Note_on_c, 1, 69, 86
2, 44648, Note_off_c, 1, 64, 64
2, 44652, Note_off_c, 1, 60, 64
2, 44656, Note_off_c, 1, 55, 64
2, 44664, Note_off_c, 1, 76, 64
2, 44672, Note_off_c, 1, 81, 64
2, 44672, Note_off_c, 1, 69, 64
2, 44764, Note_on_c, 1, 79, 89
2, 44768, Note_on_c, 1, 76, 89
2, 44772, Note_on_c, 1, 67, 83
2, 44816, Control_c, 1, 64, 0
2, 44904, Note_off_c, 1, 67, 64
2, 44904, Note_on_c, 1, 52, 127
2, 44908, Note_off_c, 1, 76, 64
2, 44916, Note_off_c, 1, 79, 64
2, 45056, Note_on_c, 1, 79, 110
2, 45056, Control_c, 1, 64, 127
2, 45092, Note_off_c, 1, 52, 64
2, 45136, Note_off_c, 1, 79, 64
2, 45188, Note_on_c, 1, 81, 105
2, 45188, Note_on_c, 1, 51, 89
2, 45188, Control_c, 1, 64, 0
2, 45216, Control_c, 1, 64, 127
2, 45260, Note_off_c, 1, 81, 64
2, 45312, Note_on_c, 1, 82, 100
2, 45316, Note_off_c, 1, 51, 64
2, 45336, Note_off_c, 1, 82, 64
2, 45432, Note_on_c, 1, 50, 83
2, 45432, Note_on_c, 1, 83, 100
2, 45432, Control_c, 1, 64, 0
2, 45440, Note_on_c, 1, 79, 100
2, 45440, Note_on_c, 1, 74, 83
2, 45484, Note_off_c, 1, 83, 64
2, 45484, Note_off_c, 1, 79, 64
2, 45500, Note_off_c, 1, 74, 64
2, 45560, Note_on_c, 1, 83, 92
2, 45564, Note_on_c, 1, 79, 92
2, 45564, Note_on_c, 1, 74, 100
2, 45692, Note_off_c, 1, 50, 64
2, 45692, Note_off_c, 1, 83, 64
2, 45692, Note_off_c, 1, 79, 64
2, 45692, Note_on_c, 1, 55, 69
2, 45696, Note_off_c, 1, 74, 64
2, 45696, Note_on_c, 1, 62, 75
2, 45700, Note_on_c, 1, 59, 80
2, 45776, Note_off_c, 1, 55, 64
2, 45776, Note_off_c, 1, 62, 64
2, 45776, Note_off_c, 1, 59, 64
2, 45828, Note_on_c, 1, 83, 96
2, 45828, Note_on_c, 1, 78, 100
2, 45828, Note_on_c, 1, 72, 105
2, 45964, Note_on_c, 1, 50, 105
2, 45984, Control_c, 1, 64, 127
2, 46068, Note_off_c, 1, 78, 64
2, 46096, Note_on_c, 1, 81, 89
2, 46104, Note_off_c, 1, 83, 64
2, 46116, Note_off_c, 1, 81, 64
2, 46140, Note_off_c, 1, 72, 64
2, 46224, Note_on_c, 1, 62, 67
2, 46224, Note_on_c, 1, 60, 67
2, 46224, Note_on_c, 1, 57, 63
2, 46224, Note_on_c, 1, 72, 96
2, 46224, Note_on_c, 1, 78, 122
2, 46224, Control_c, 1, 64, 0
2, 46276, Control_c, 1, 64, 127
2, 46320, Note_off_c, 1, 62, 64
2, 46328, Note_off_c, 1, 50, 64
2, 46332, Note_off_c, 1, 60, 64
2, 46340, Note_off_c, 1, 57, 64
2, 46352, Note_off_c, 1, 72, 64
2, 46364, Note_on_c, 1, 74, 92
2, 46372, Note_off_c, 1, 78, 64
2, 46384, Note_off_c, 1, 74, 64
2, 46480, Note_on_c, 1, 79, 105
2, 46484, Note_on_c, 1, 71, 92
2, 46484, Note_on_c, 1, 62, 73
2, 46484, Note_on_c, 1, 55, 83
2, 46484, Note_on_c, 1, 59, 80
2, 46484, Control_c, 1, 64, 0
2, 46516, Control_c, 1, 64, 127
2, 46536, Note_off_c, 1, 62, 64
2, 46540, Note_off_c, 1, 59, 64
2, 46552, Note_off_c, 1, 55, 64
2, 46620, Control_c, 1, 64, 0
2, 46740, Note_on_c, 1, 41, 110
2, 46744, Note_on_c, 1, 53, 122
2, 46872, Note_off_c, 1, 41, 64
2, 46872, Note_off_c, 1, 53, 64
2, 46876, Note_off_c, 1, 79, 64
2, 46876, Note_off_c, 1, 71, 64
2, 47020, Note_on_c, 1, 40, 110
2, 47020, Note_on_c, 1, 52, 110
2, 47148, Note_on_c, 1, 76, 100
2, 47148, Note_on_c, 1, 72, 100
2, 47148, Note_on_c, 1, 64, 92
2, 47152, Note_off_c, 1, 52, 64
2, 47156, Note_off_c, 1, 40, 64
2, 47164, Control_c, 1, 64, 127
2, 47208, Note_off_c, 1, 72, 64
2, 47212, Note_off_c, 1, 64, 64
2, 47216, Note_off_c, 1, 76, 64
2, 47268, Control_c, 1, 64, 0
2, 47280, Note_on_c, 1, 50, 110
2, 47280, Note_on_c, 1, 38, 115
2, 47284, Note_on_c, 1, 77, 105
2, 47284, Note_on_c, 1, 65, 92
2, 47284, Note_on_c, 1, 74, 110
2, 47304, Note_off_c, 1, 74, 64
2, 47316, Note_off_c, 1, 77, 64
2, 47316, Note_off_c, 1, 65, 64
2, 47416, Note_on_c, 1, 78, 92
2, 47416, Note_on_c, 1, 66, 92
2, 47416, Note_on_c, 1, 75, 83
2, 47420, Note_off_c, 1, 50, 64
2, 47420, Note_off_c, 1, 38, 64
2, 47432, Note_off_c, 1, 66, 64
2, 47432, Note_off_c, 1, 75, 64
2, 47440, Note_off_c, 1, 78, 64
2, 47536, Note_on_c, 1, 36, 105
2, 47536, Note_on_c, 1, 48, 110
2, 47536, Note_on_c, 1, 79, 110
2, 47536, Note_on_c, 1, 43, 122
2, 47536, Note_on_c, 1, 67, 105
2, 47536, Note_on_c, 1, 76, 115
2, 47552, Control_c, 1, 64, 127
2, 47576, Note_off_c, 1, 36, 64
2, 47584, Note_off_c, 1, 48, 64
2, 47584, Note_off_c, 1, 43, 64
2, 47644, Note_off_c, 1, 67, 64
2, 47652, Note_off_c, 1, 76, 64
2, 47660, Note_off_c, 1, 79, 64
2, 47796, Note_on_c, 1, 55, 73
2, 47800, Note_on_c, 1, 64, 67
2, 47804, Note_on_c, 1, 60, 67
2, 47804, Note_on_c, 1, 81, 105
2, 47804, Note_on_c, 1, 69, 100
2, 47804, Note_on_c, 1, 76, 110
2, 47816, Note_off_c, 1, 64, 64
2, 47820, Note_off_c, 1, 60, 64
2, 47832, Note_off_c, 1, 55, 64
2, 47836, Note_off_c, 1, 81, 64
2, 47836, Note_off_c, 1, 76, 64
2, 47844, Note_off_c, 1, 69, 64
2, 47932, Note_on_c, 1, 79, 110
2, 47936, Note_on_c, 1, 76, 110
2, 47936, Note_on_c, 1, 67, 96
2, 47992, Control_c, 1, 64, 0
2, 48076, Note_on_c, 1, 43, 110
2, 48084, Control_c, 1, 64, 127
2, 48088, Note_off_c, 1, 76, 64
2, 48092, Note_off_c, 1, 79, 64
2, 48096, Note_off_c, 1, 67, 64
2, 48104, Note_off_c, 1, 43, 64
2, 48204, Note_on_c, 1, 76, 92
2, 48204, Note_on_c, 1, 72, 92
2, 48208, Note_on_c, 1, 64, 89
2, 48220, Note_off_c, 1, 64, 64
2, 48224, Note_off_c, 1, 72, 64
2, 48228, Note_off_c, 1, 76, 64
2, 48324, Note_on_c, 1, 55, 75
2, 48324, Note_on_c, 1, 64, 75
2, 48328, Note_on_c, 1, 60, 75
2, 48328, Note_on_c, 1, 77, 100
2, 48332, Note_on_c, 1, 74, 110
2, 48332, Note_on_c, 1, 65, 92
2, 48336, Note_off_c, 1, 64, 64
2, 48340, Note_off_c, 1, 60, 64
2, 48344, Note_off_c, 1, 74, 64
2, 48344, Note_off_c, 1, 65, 64
2, 48348, Note_off_c, 1, 55, 64
2, 48352, Note_off_c, 1, 77, 64
2, 48460, Note_on_c, 1, 78, 96
2, 48460, Note_on_c, 1, 75, 83
2, 48460, Note_on_c, 1, 66, 86
2, 48472, Note_off_c, 1, 75, 64
2, 48472, Note_off_c, 1, 66, 64
2, 48480, Note_off_c, 1, 78, 64
2, 48528, Control_c, 1, 64, 0
2, 48584, Control_c, 1, 64, 127
2, 48592, Note_on_c, 1, 79, 105
2, 48592, Note_on_c, 1, 76, 122
2, 48592, Note_on_c, 1, 67, 110
2, 48592, Note_on_c, 1, 48, 105
2, 48612, Note_off_c, 1, 48, 64
2, 48700, Note_off_c, 1, 79, 64
2, 48700, Note_off_c, 1, 67, 64
2, 48704, Note_off_c, 1, 76, 64
2, 48844, Note_on_c, 1, 55, 75
2, 48844, Note_on_c, 1, 81, 92
2, 48848, Note_on_c, 1, 60, 67
2, 48852, Note_on_c, 1, 64, 65
2, 48852, Note_on_c, 1, 76, 105
2, 48852, Note_on_c, 1, 69, 92
2, 48860, Note_off_c, 1, 60, 64
2, 48860, Note_off_c, 1, 64, 64
2, 48864, Note_off_c, 1, 55, 64
2, 48864, Note_off_c, 1, 76, 64
2, 48868, Note_off_c, 1, 69, 64
2, 48872, Note_off_c, 1, 81, 64
2, 48984, Note_on_c, 1, 76, 110
2, 48988, Note_on_c, 1, 79, 110
2, 48992, Note_on_c, 1, 67, 92
2, 49040, Control_c, 1, 64, 0
2, 49120, Note_on_c, 1, 43, 105
2, 49128, Note_off_c, 1, 76, 64
2, 49128, Control_c, 1, 64, 127
2, 49132, Note_off_c, 1, 79, 64
2, 49140, Note_off_c, 1, 43, 64
2, 49156, Note_off_c, 1, 67, 64
2, 49252, Note_on_c, 1, 76, 89
2, 49384, Note_off_c, 1, 76, 64
2, 49388, Note_on_c, 1, 64, 73
2, 49388, Note_on_c, 1, 55, 73
2, 49388, Note_on_c, 1, 60, 69
2, 49388, Note_on_c, 1, 72, 100
2, 49400, Note_off_c, 1, 64, 64
2, 49400, Note_off_c, 1, 55, 64
2, 49400, Note_off_c, 1, 60, 64
2, 49500, Note_off_c, 1, 72, 64
2, 49508, Note_on_c, 1, 67, 100
2, 49620, Control_c, 1, 64, 0
2, 49624, Note_on_c, 1, 41, 92
2, 49656, Note_on_c, 1, 69, 110
2, 49668, Note_off_c, 1, 67, 64
2, 49668, Control_c, 1, 64, 127
2, 49720, Note_off_c, 1, 41, 64
2, 49776, Note_off_c, 1, 69, 64
2, 49784, Note_on_c, 1, 71, 92
2, 49904, Note_off_c, 1, 71, 64
2, 49904, Note_on_c, 1, 57, 69
2, 49904, Control_c, 1, 64, 0
2, 49908, Note_on_c, 1, 65, 69
2, 49908, Note_on_c, 1, 60, 73
2, 49908, Note_on_c, 1, 72, 92
2, 50024, Note_off_c, 1, 72, 64
2, 50032, Note_on_c, 1, 74, 96
2, 50048, Control_c, 1, 64, 127
2, 50056, Note_off_c, 1, 57, 64
2, 50072, Note_off_c, 1, 65, 64
2, 50072, Note_off_c, 1, 60, 64
2, 50164, Note_on_c, 1, 53, 83
2, 50172, Note_off_c, 1, 74, 64
2, 50172, Note_on_c, 1, 76, 96
2, 50180, Control_c, 1, 64, 0
2, 50300, Note_off_c, 1, 76, 64
2, 50300, Note_on_c, 1, 74, 96
2, 50428, Note_on_c, 1, 65, 59
2, 50432, Note_on_c, 1, 56, 46
2, 50432, Note_on_c, 1, 60, 50
2, 50432, Note_on_c, 1, 72, 75
2, 50440, Note_off_c, 1, 74, 64
2, 50460, Control_c, 1, 64, 127
2, 50540, Note_off_c, 1, 56, 64
2, 50544, Note_off_c, 1, 53, 64
2, 50544, Note_off_c, 1, 60, 64
2, 50548, Note_off_c, 1, 65, 64
2, 50560, Note_off_c, 1, 72, 64
2, 50564, Note_on_c, 1, 74, 86
2, 50688, Control_c, 1, 64, 0
2, 50692, Note_on_c, 1, 52, 47
2, 50692, Note_on_c, 1, 72, 77
2, 50700, Note_off_c, 1, 74, 64
2, 50952, Note_on_c, 1, 60, 59
2, 50952, Note_on_c, 1, 55, 63
2, 50952, Note_on_c, 1, 64, 62
2, 50968, Note_off_c, 1, 60, 64
2, 50976, Note_off_c, 1, 52, 64
2, 50976, Note_off_c, 1, 55, 64
2, 50976, Note_off_c, 1, 64, 64
2, 51212, Note_on_c, 1, 48, 92
2, 51220, Control_c, 1, 64, 127
2, 51232, Note_off_c, 1, 48, 64
2, 51304, Note_off_c, 1, 72, 64
2, 51352, Note_on_c, 1, 67, 92
2, 51472, Control_c, 1, 64, 0
2, 51480, Note_on_c, 1, 66, 89
2, 51484, Note_on_c, 1, 58, 59
2, 51488, Note_off_c, 1, 67, 64
2, 51488, Note_on_c, 1, 64, 62
2, 51488, Note_on_c, 1, 60, 49
2, 51504, Note_off_c, 1, 60, 64
2, 51508, Note_off_c, 1, 58, 64
2, 51512, Note_off_c, 1, 64, 64
2, 51616, Note_off_c, 1, 66, 64
2, 51616, Note_on_c, 1, 67, 75
2, 51748, Note_on_c, 1, 60, 53
2, 51748, Note_on_c, 1, 53, 42
2, 51748, Note_on_c, 1, 57, 45
2, 51748, Note_on_c, 1, 65, 40
2, 51752, Note_on_c, 1, 72, 75
2, 51764, Note_off_c, 1, 67, 64
2, 51776, Note_off_c, 1, 60, 64
2, 51776, Note_off_c, 1, 53, 64
2, 51776, Note_off_c, 1, 57, 64
2, 51788, Note_off_c, 1, 65, 64
2, 52004, Note_on_c, 1, 69, 77
2, 52008, Note_on_c, 1, 65, 50
2, 52012, Note_on_c, 1, 53, 47
2, 52012, Note_on_c, 1, 60, 45
2, 52016, Note_off_c, 1, 72, 64
2, 52016, Note_on_c, 1, 57, 31
2, 52028, Note_off_c, 1, 65, 64
2, 52028, Note_off_c, 1, 53, 64
2, 52028, Note_off_c, 1, 60, 64
2, 52028, Note_off_c, 1, 57, 64
2, 52040, Note_off_c, 1, 69, 64
2, 52140, Note_on_c, 1, 72, 96
2, 52268, Note_on_c, 1, 54, 51
2, 52268, Note_on_c, 1, 63, 48
2, 52268, Note_on_c, 1, 57, 69
2, 52268, Note_on_c, 1, 60, 64
2, 52284, Note_off_c, 1, 60, 64
2, 52288, Note_off_c, 1, 57, 64
2, 52296, Note_off_c, 1, 54, 64
2, 52296, Note_off_c, 1, 63, 64
2, 52404, Note_on_c, 1, 69, 73
2, 52416, Note_off_c, 1, 72, 64
2, 52428, Note_off_c, 1, 69, 64
2, 52536, Note_on_c, 1, 63, 49
2, 52540, Note_on_c, 1, 54, 53
2, 52544, Note_on_c, 1, 72, 83
2, 52544, Note_on_c, 1, 60, 61
2, 52544, Note_on_c, 1, 57, 67
2, 52552, Note_off_c, 1, 60, 64
2, 52556, Note_off_c, 1, 57, 64
2, 52560, Note_off_c, 1, 63, 64
2, 52560, Note_off_c, 1, 54, 64
2, 52672, Note_off_c, 1, 72, 64
2, 52672, Note_on_c, 1, 69, 83
2, 52788, Note_off_c, 1, 69, 64
2, 52792, Note_on_c, 1, 55, 61
2, 52796, Note_on_c, 1, 60, 53
2, 52796, Note_on_c, 1, 64, 49
2, 52796, Note_on_c, 1, 67, 73
2, 52812, Note_off_c, 1, 55, 64
2, 52812, Note_off_c, 1, 60, 64
2, 52816, Note_off_c, 1, 64, 64
2, 52916, Note_on_c, 1, 72, 71
2, 53048, Note_on_c, 1, 76, 73
2, 53052, Note_off_c, 1, 72, 64
2, 53056, Note_on_c, 1, 55, 58
2, 53060, Note_on_c, 1, 60, 49
2, 53064, Note_off_c, 1, 76, 64
2, 53076, Note_off_c, 1, 67, 64
2, 53076, Note_off_c, 1, 55, 64
2, 53076, Note_off_c, 1, 60, 64
2, 53184, Note_on_c, 1, 79, 92
2, 53188, Note_on_c, 1, 67, 86
2, 53320, Note_on_c, 1, 64, 65
2, 53320, Note_on_c, 1, 55, 63
2, 53324, Note_on_c, 1, 60, 57
2, 53352, Control_c, 1, 64, 127
2, 53444, Note_off_c, 1, 79, 64
2, 53444, Note_on_c, 1, 76, 92
2, 53468, Note_off_c, 1, 64, 64
2, 53468, Note_off_c, 1, 55, 64
2, 53468, Note_off_c, 1, 60, 64
2, 53568, Control_c, 1, 64, 0
2, 53576, Note_off_c, 1, 76, 64
2, 53576, Note_on_c, 1, 64, 59
2, 53576, Note_on_c, 1, 55, 41
2, 53576, Note_on_c, 1, 60, 59
2, 53576, Note_on_c, 1, 72, 86
2, 53576, Control_c, 1, 64, 127
2, 53600, Note_off_c, 1, 67, 64
2, 53628, Note_off_c, 1, 64, 64
2, 53628, Note_off_c, 1, 60, 64
2, 53644, Note_off_c, 1, 55, 64
2, 53692, Note_off_c, 1, 72, 64
2, 53696, Note_on_c, 1, 67, 83
2, 53720, Note_off_c, 1, 67, 64
2, 53836, Note_on_c, 1, 50, 56
2, 53840, Note_on_c, 1, 69, 73
2, 53840, Note_on_c, 1, 66, 58
2, 53840, Note_on_c, 1, 60, 39
2, 53840, Control_c, 1, 64, 0
2, 53884, Control_c, 1, 64, 127
2, 53944, Note_off_c, 1, 60, 64
2, 53948, Note_off_c, 1, 50, 64
2, 53960, Note_off_c, 1, 69, 64
2, 53960, Note_off_c, 1, 66, 64
2, 54108, Control_c, 1, 64, 0
2, 54112, Note_on_c, 1, 72, 75
2, 54112, Note_on_c, 1, 50, 39
2, 54112, Note_on_c, 1, 66, 55
2, 54112, Note_on_c, 1, 57, 40
2, 54148, Control_c, 1, 64, 127
2, 54204, Note_off_c, 1, 50, 64
2, 54220, Note_off_c, 1, 57, 64
2, 54232, Note_off_c, 1, 72, 64
2, 54236, Note_off_c, 1, 66, 64
2, 54356, Control_c, 1, 64, 0
2, 54364, Note_on_c, 1, 76, 73
2, 54372, Note_on_c, 1, 65, 54
2, 54372, Note_on_c, 1, 55, 46
2, 54376, Note_on_c, 1, 59, 33
2, 54388, Control_c, 1, 64, 127
2, 54424, Note_off_c, 1, 76, 64
2, 54432, Note_off_c, 1, 65, 64
2, 54500, Note_on_c, 1, 65, 54
2, 54500, Note_on_c, 1, 74, 63
2, 54504, Control_c, 1, 64, 0
2, 54512, Note_off_c, 1, 59, 64
2, 54516, Note_off_c, 1, 55, 64
2, 54532, Control_c, 1, 64, 127
2, 54628, Control_c, 1, 64, 0
2, 54640, Note_on_c, 1, 59, 47
2, 54640, Note_on_c, 1, 55, 40
2, 54648, Note_off_c, 1, 74, 64
2, 54656, Note_off_c, 1, 65, 64
2, 54660, Control_c, 1, 64, 127
2, 54700, Note_off_c, 1, 59, 64
2, 54704, Note_off_c, 1, 55, 64
2, 54768, Control_c, 1, 64, 0
2, 54772, Note_on_c, 1, 72, 58
2, 54772, Note_on_c, 1, 64, 51
2, 54900, Note_on_c, 1, 48, 86
2, 54900, Note_on_c, 1, 60, 83
2, 54912, Note_off_c, 1, 48, 64
2, 54912, Note_off_c, 1, 60, 64
2, 55156, Note_on_c, 1, 43, 105
2, 55156, Note_on_c, 1, 55, 110
2, 55184, Note_off_c, 1, 72, 64
2, 55196, Note_off_c, 1, 64, 64
2, 55240, Note_off_c, 1, 55, 64
2, 55252, Note_off_c, 1, 43, 64
2, 55412, Note_on_c, 1, 40, 115
2, 55416, Note_on_c, 1, 52, 100
2, 55556, Control_c, 1, 64, 127
2, 55564, Note_off_c, 1, 52, 64
2, 55568, Note_off_c, 1, 40, 64
2, 55568, Note_on_c, 1, 88, 75
2, 55568, Note_on_c, 1, 84, 75
2, 55568, Note_on_c, 1, 76, 69
2, 55584, Note_off_c, 1, 84, 64
2, 55584, Note_off_c, 1, 76, 64
2, 55588, Note_off_c, 1, 88, 64
2, 55672, Note_on_c, 1, 38, 100
2, 55672, Note_on_c, 1, 50, 115
2, 55696, Note_on_c, 1, 89, 86
2, 55696, Note_on_c, 1, 86, 89
2, 55700, Note_on_c, 1, 77, 86
2, 55712, Note_off_c, 1, 86, 64
2, 55716, Note_off_c, 1, 77, 64
2, 55720, Note_off_c, 1, 89, 64
2, 55780, Note_off_c, 1, 50, 64
2, 55784, Note_off_c, 1, 38, 64
2, 55820, Note_on_c, 1, 90, 100
2, 55820, Note_on_c, 1, 78, 100
2, 55824, Note_on_c, 1, 87, 105
2, 55832, Note_off_c, 1, 87, 64
2, 55836, Note_off_c, 1, 78, 64
2, 55848, Note_off_c, 1, 90, 64
2, 55872, Note_on_c, 1, 24, 83
2, 55904, Note_on_c, 1, 26, 58
2, 55904, Note_on_c, 1, 28, 77
2, 55912, Note_on_c, 1, 29, 67
2, 55924, Note_off_c, 1, 24, 64
2, 55928, Note_off_c, 1, 26, 64
2, 55928, Note_on_c, 1, 36, 100
2, 55936, Note_off_c, 1, 28, 64
2, 55948, Note_on_c, 1, 24, 127
2, 55952, Note_off_c, 1, 29, 64
2, 55952, Control_c, 1, 64, 0
2, 55956, Note_on_c, 1, 91, 115
2, 55960, Note_on_c, 1, 79, 122
2, 55960, Note_on_c, 1, 88, 122
2, 55996, Note_off_c, 1, 36, 64
2, 55996, Control_c, 1, 64, 127
2, 56040, Note_off_c, 1, 24, 64
2, 56108, Note_off_c, 1, 79, 64
2, 56112, Note_off_c, 1, 91, 64
2, 56112, Note_off_c, 1, 88, 64
2, 56216, Note_on_c, 1, 55, 80
2, 56220, Note_on_c, 1, 64, 65
2, 56220, Note_on_c, 1, 60, 65
2, 56224, Note_on_c, 1, 93, 100
2, 56224, Note_on_c, 1, 88, 100
2, 56224, Note_on_c, 1, 81, 89
2, 56228, Note_off_c, 1, 64, 64
2, 56228, Note_off_c, 1, 60, 64
2, 56232, Note_off_c, 1, 55, 64
2, 56240, Note_off_c, 1, 88, 64
2, 56240, Note_off_c, 1, 81, 64
2, 56244, Note_off_c, 1, 93, 64
2, 56348, Note_on_c, 1, 88, 100
2, 56348, Note_on_c, 1, 79, 89
2, 56348, Note_on_c, 1, 91, 92
2, 56456, Control_c, 1, 64, 0
2, 56472, Note_on_c, 1, 31, 89
2, 56476, Note_on_c, 1, 43, 110
2, 56484, Note_off_c, 1, 88, 64
2, 56488, Note_off_c, 1, 91, 64
2, 56492, Note_off_c, 1, 79, 64
2, 56492, Control_c, 1, 64, 127
2, 56504, Note_off_c, 1, 31, 64
2, 56508, Note_off_c, 1, 43, 64
2, 56612, Note_on_c, 1, 88, 89
2, 56612, Note_on_c, 1, 84, 105
2, 56616, Note_on_c, 1, 76, 92
2, 56628, Note_off_c, 1, 88, 64
2, 56628, Note_off_c, 1, 84, 64
2, 56628, Note_off_c, 1, 76, 64
2, 56744, Note_on_c, 1, 55, 86
2, 56744, Note_on_c, 1, 64, 75
2, 56744, Note_on_c, 1, 60, 73
2, 56744, Note_on_c, 1, 89, 92
2, 56748, Note_on_c, 1, 86, 96
2, 56752, Note_off_c, 1, 64, 64
2, 56752, Note_off_c, 1, 60, 64
2, 56752, Note_on_c, 1, 77, 96
2, 56760, Note_off_c, 1, 55, 64
2, 56760, Note_off_c, 1, 86, 64
2, 56764, Note_off_c, 1, 89, 64
2, 56764, Note_off_c, 1, 77, 64
2, 56868, Note_on_c, 1, 90, 100
2, 56872, Note_on_c, 1, 87, 105
2, 56872, Note_on_c, 1, 78, 92
2, 56880, Note_off_c, 1, 87, 64
2, 56880, Note_off_c, 1, 78, 64
2, 56888, Note_off_c, 1, 90, 64
2, 56904, Control_c, 1, 64, 0
2, 57000, Note_on_c, 1, 43, 100
2, 57004, Note_on_c, 1, 36, 89
2, 57004, Note_on_c, 1, 48, 115
2, 57004, Note_on_c, 1, 91, 122
2, 57004, Note_on_c, 1, 79, 115
2, 57004, Note_on_c, 1, 88, 122
2, 57012, Control_c, 1, 64, 127
2, 57020, Note_off_c, 1, 43, 64
2, 57020, Note_off_c, 1, 36, 64
2, 57024, Note_off_c, 1, 48, 64
2, 57116, Note_off_c, 1, 79, 64
2, 57124, Note_off_c, 1, 91, 64
2, 57128, Note_off_c, 1, 88, 64
2, 57264, Note_on_c, 1, 64, 69
2, 57264, Note_on_c, 1, 55, 77
2, 57264, Note_on_c, 1, 60, 65
2, 57268, Note_off_c, 1, 64, 64
2, 57268, Note_on_c, 1, 93, 92
2, 57268, Note_on_c, 1, 81, 100
2, 57268, Note_on_c, 1, 88, 96
2, 57268, Note_on_c, 1, 89, 96
2, 57276, Note_off_c, 1, 60, 64
2, 57280, Note_off_c, 1, 55, 64
2, 57280, Note_off_c, 1, 88, 64
2, 57280, Note_off_c, 1, 89, 64
2, 57284, Note_off_c, 1, 81, 64
2, 57292, Note_off_c, 1, 93, 64
2, 57400, Note_on_c, 1, 91, 105
2, 57404, Note_on_c, 1, 88, 110
2, 57408, Note_on_c, 1, 79, 92
2, 57520, Control_c, 1, 64, 0
2, 57532, Note_on_c, 1, 40, 86
2, 57532, Note_on_c, 1, 52, 96
2, 57552, Note_off_c, 1, 88, 0
2, 57556, Note_off_c, 1, 91, 0
2, 57556, Control_c, 1, 64, 127
2, 57584, Note_off_c, 1, 40, 64
2, 57592, Note_off_c, 1, 52, 64
2, 57620, Note_off_c, 1, 79, 0
2, 57660, Note_on_c, 1, 88, 89
2, 57792, Note_on_c, 1, 55, 69
2, 57792, Note_on_c, 1, 64, 75
2, 57792, Note_on_c, 1, 60, 62
2, 57796, Note_on_c, 1, 84, 105
2, 57808, Note_off_c, 1, 64, 64
2, 57808, Note_off_c, 1, 60, 64
2, 57812, Note_off_c, 1, 55, 64
2, 57920, Note_off_c, 1, 84, 64
2, 57928, Note_on_c, 1, 79, 110
2, 58044, Note_off_c, 1, 79, 64
2, 58052, Note_on_c, 1, 29, 75
2, 58056, Note_on_c, 1, 41, 83
2, 58056, Control_c, 1, 64, 0
2, 58060, Note_on_c, 1, 81, 105
2, 58092, Control_c, 1, 64, 127
2, 58112, Note_off_c, 1, 29, 64
2, 58120, Note_off_c, 1, 41, 64
2, 58164, Note_off_c, 1, 81, 64
2, 58188, Note_on_c, 1, 83, 100
2, 58296, Note_off_c, 1, 83, 64
2, 58308, Note_off_c, 1, 88, 64
2, 58312, Note_on_c, 1, 57, 69
2, 58316, Note_on_c, 1, 65, 67
2, 58320, Note_on_c, 1, 84, 105
2, 58320, Note_on_c, 1, 60, 63
2, 58368, Note_off_c, 1, 57, 64
2, 58376, Note_off_c, 1, 60, 64
2, 58376, Note_off_c, 1, 65, 64
2, 58420, Note_off_c, 1, 84, 64
2, 58444, Note_on_c, 1, 86, 92
2, 58556, Note_off_c, 1, 86, 0
2, 58568, Note_on_c, 1, 53, 92
2, 58580, Note_on_c, 1, 88, 110
2, 58592, Control_c, 1, 64, 0
2, 58692, Control_c, 1, 64, 127
2, 58700, Note_off_c, 1, 88, 64
2, 58708, Note_on_c, 1, 86, 92
2, 58828, Note_off_c, 1, 86, 64
2, 58828, Note_on_c, 1, 56, 59
2, 58828, Note_on_c, 1, 65, 61
2, 58832, Note_on_c, 1, 60, 69
2, 58836, Note_on_c, 1, 84, 92
2, 58908, Note_off_c, 1, 56, 64
2, 58908, Note_off_c, 1, 60, 64
2, 58924, Note_off_c, 1, 53, 64
2, 58924, Note_off_c, 1, 65, 64
2, 58952, Note_off_c, 1, 84, 64
2, 58964, Note_on_c, 1, 86, 89
2, 59100, Note_off_c, 1, 86, 64
2, 59108, Note_on_c, 1, 52, 92
2, 59108, Note_on_c, 1, 79, 105
2, 59124, Control_c, 1, 64, 0
2, 59224, Control_c, 1, 64, 127
2, 59228, Note_on_c, 1, 88, 96
2, 59344, Note_off_c, 1, 88, 64
2, 59364, Note_on_c, 1, 64, 64
2, 59368, Note_on_c, 1, 89, 110
2, 59368, Note_on_c, 1, 60, 60
2, 59372, Note_on_c, 1, 55, 62
2, 59384, Note_off_c, 1, 64, 64
2, 59384, Note_off_c, 1, 60, 64
2, 59392, Note_off_c, 1, 55, 64
2, 59404, Note_off_c, 1, 52, 64
2, 59472, Note_off_c, 1, 89, 64
2, 59492, Note_on_c, 1, 91, 105
2, 59520, Note_off_c, 1, 91, 64
2, 59612, Note_on_c, 1, 36, 92
2, 59612, Control_c, 1, 64, 0
2, 59620, Note_on_c, 1, 48, 89
2, 59620, Note_on_c, 1, 93, 110
2, 59640, Control_c, 1, 64, 127
2, 59656, Note_off_c, 1, 36, 64
2, 59664, Note_off_c, 1, 48, 64
2, 59720, Note_off_c, 1, 93, 64
2, 59744, Note_on_c, 1, 91, 83
2, 59772, Note_off_c, 1, 91, 64
2, 59880, Note_on_c, 1, 55, 89
2, 59884, Note_on_c, 1, 64, 77
2, 59884, Note_on_c, 1, 88, 100
2, 59884, Note_on_c, 1, 60, 77
2, 59892, Note_off_c, 1, 64, 64
2, 59892, Note_off_c, 1, 60, 64
2, 59900, Note_off_c, 1, 55, 64
2, 60008, Note_off_c, 1, 88, 64
2, 60020, Note_on_c, 1, 89, 80
2, 60032, Note_off_c, 1, 79, 0
2, 60044, Note_off_c, 1, 89, 64
2, 60144, Note_on_c, 1, 36, 122
2, 60144, Note_on_c, 1, 91, 115
2, 60152, Note_on_c, 1, 79, 105
2, 60152, Note_on_c, 1, 24, 92
2, 60152, Note_on_c, 1, 35, 127
2, 60152, Note_on_c, 1, 88, 122
2, 60152, Control_c, 1, 64, 0
2, 60168, Note_off_c, 1, 35, 64
2, 60180, Control_c, 1, 64, 127
2, 60216, Note_off_c, 1, 24, 64
2, 60220, Note_off_c, 1, 36, 64
2, 60260, Note_off_c, 1, 91, 64
2, 60260, Note_off_c, 1, 79, 64
2, 60272, Note_off_c, 1, 88, 64
2, 60412, Note_on_c, 1, 55, 75
2, 60416, Note_on_c, 1, 64, 69
2, 60416, Note_on_c, 1, 60, 65
2, 60416, Note_on_c, 1, 93, 92
2, 60416, Note_on_c, 1, 81, 100
2, 60416, Note_on_c, 1, 88, 92
2, 60420, Note_on_c, 1, 89, 92
2, 60424, Note_off_c, 1, 64, 64
2, 60432, Note_off_c, 1, 55, 64
2, 60432, Note_off_c, 1, 60, 64
2, 60432, Note_off_c, 1, 88, 64
2, 60432, Note_off_c, 1, 89, 64
2, 60436, Note_off_c, 1, 93, 64
2, 60436, Note_off_c, 1, 81, 64
2, 60544, Note_on_c, 1, 88, 105
2, 60544, Note_on_c, 1, 91, 100
2, 60548, Note_on_c, 1, 79, 92
2, 60652, Control_c, 1, 64, 0
2, 60668, Note_on_c, 1, 31, 89
2, 60672, Note_off_c, 1, 88, 64
2, 60672, Note_off_c, 1, 91, 64
2, 60672, Note_on_c, 1, 43, 105
2, 60676, Note_off_c, 1, 79, 64
2, 60684, Control_c, 1, 64, 127
2, 60700, Note_off_c, 1, 31, 64
2, 60712, Note_off_c, 1, 43, 64
2, 60804, Note_on_c, 1, 88, 92
2, 60804, Note_on_c, 1, 84, 92
2, 60804, Note_on_c, 1, 76, 83
2, 60816, Note_off_c, 1, 84, 64
2, 60824, Note_off_c, 1, 88, 64
2, 60824, Note_off_c, 1, 76, 64
2, 60928, Note_on_c, 1, 55, 83
2, 60928, Note_on_c, 1, 64, 75
2, 60932, Note_on_c, 1, 89, 89
2, 60936, Note_on_c, 1, 60, 77
2, 60936, Note_on_c, 1, 86, 100
2, 60936, Note_on_c, 1, 77, 92
2, 60948, Note_off_c, 1, 64, 64
2, 60948, Note_off_c, 1, 60, 64
2, 60948, Note_off_c, 1, 86, 64
2, 60952, Note_off_c, 1, 55, 64
2, 60952, Note_off_c, 1, 89, 64
2, 60952, Note_off_c, 1, 77, 64
2, 61052, Note_on_c, 1, 90, 89
2, 61052, Note_on_c, 1, 87, 92
2, 61052, Note_on_c, 1, 78, 86
2, 61068, Note_off_c, 1, 87, 64
2, 61068, Note_off_c, 1, 78, 64
2, 61076, Note_off_c, 1, 90, 64
2, 61188, Note_on_c, 1, 36, 86
2, 61188, Control_c, 1, 64, 0
2, 61192, Note_on_c, 1, 91, 105
2, 61192, Note_on_c, 1, 48, 105
2, 61192, Note_on_c, 1, 79, 105
2, 61192, Note_on_c, 1, 88, 115
2, 61220, Control_c, 1, 64, 127
2, 61236, Note_off_c, 1, 36, 64
2, 61248, Note_off_c, 1, 48, 64
2, 61260, Note_off_c, 1, 79, 64
2, 61264, Note_off_c, 1, 91, 64
2, 61280, Note_off_c, 1, 88, 64
2, 61452, Note_on_c, 1, 64, 75
2, 61452, Note_on_c, 1, 55, 80
2, 61452, Note_on_c, 1, 60, 69
2, 61452, Note_on_c, 1, 93, 86
2, 61452, Note_on_c, 1, 88, 92
2, 61452, Note_on_c, 1, 81, 86
2, 61460, Note_off_c, 1, 64, 64
2, 61468, Note_off_c, 1, 60, 64
2, 61468, Note_off_c, 1, 81, 64
2, 61472, Note_off_c, 1, 55, 64
2, 61472, Note_off_c, 1, 88, 64
2, 61476, Note_off_c, 1, 93, 64
2, 61572, Note_on_c, 1, 91, 92
2, 61572, Note_on_c, 1, 88, 80
2, 61580, Note_on_c, 1, 79, 89
2, 61708, Note_off_c, 1, 88, 64
2, 61708, Note_off_c, 1, 79, 64
2, 61708, Note_on_c, 1, 40, 100
2, 61708, Note_on_c, 1, 52, 105
2, 61716, Control_c, 1, 64, 0
2, 61720, Note_off_c, 1, 91, 64
2, 61836, Control_c, 1, 64, 127
2, 61840, Note_on_c, 1, 91, 115
2, 61856, Note_off_c, 1, 52, 64
2, 61864, Note_off_c, 1, 40, 64
2, 61932, Note_off_c, 1, 91, 64
2, 61976, Note_on_c, 1, 51, 100
2, 61980, Note_on_c, 1, 93, 110
2, 61980, Note_on_c, 1, 39, 100
2, 61980, Control_c, 1, 64, 0
2, 62052, Control_c, 1, 64, 127
2, 62072, Note_off_c, 1, 93, 64
2, 62116, Note_off_c, 1, 51, 64
2, 62116, Note_on_c, 1, 94, 105
2, 62120, Note_off_c, 1, 39, 64
2, 62136, Note_off_c, 1, 94, 64
2, 62236, Note_on_c, 1, 38, 105
2, 62240, Note_on_c, 1, 50, 92
2, 62240, Note_on_c, 1, 95, 105
2, 62240, Note_on_c, 1, 91, 105
2, 62240, Note_on_c, 1, 86, 100
2, 62240, Control_c, 1, 64, 0
2, 62280, Control_c, 1, 64, 127
2, 62296, Note_off_c, 1, 95, 64
2, 62296, Note_off_c, 1, 91, 64
2, 62296, Note_off_c, 1, 86, 64
2, 62304, Note_off_c, 1, 38, 64
2, 62316, Note_off_c, 1, 50, 64
2, 62368, Note_on_c, 1, 95, 83
2, 62368, Note_on_c, 1, 86, 86
2, 62372, Note_on_c, 1, 91, 89
2, 62480, Note_off_c, 1, 86, 0
2, 62492, Note_off_c, 1, 95, 0
2, 62492, Note_off_c, 1, 91, 0
2, 62500, Note_on_c, 1, 59, 83
2, 62500, Note_on_c, 1, 55, 75
2, 62500, Note_on_c, 1, 62, 71
2, 62516, Note_off_c, 1, 59, 64
2, 62516, Note_off_c, 1, 62, 64
2, 62524, Note_off_c, 1, 55, 64
2, 62624, Note_on_c, 1, 95, 92
2, 62628, Note_on_c, 1, 90, 100
2, 62632, Note_on_c, 1, 84, 92
2, 62680, Control_c, 1, 64, 0
2, 62748, Note_on_c, 1, 50, 110
2, 62764, Control_c, 1, 64, 127
2, 62852, Note_off_c, 1, 95, 64
2, 62852, Note_off_c, 1, 90, 64
2, 62860, Note_off_c, 1, 50, 64
2, 62876, Note_on_c, 1, 93, 92
2, 62900, Note_off_c, 1, 93, 64
2, 62916, Note_off_c, 1, 84, 64
2, 63016, Note_on_c, 1, 90, 115
2, 63016, Note_on_c, 1, 62, 67
2, 63016, Note_on_c, 1, 57, 67
2, 63016, Note_on_c, 1, 60, 64
2, 63020, Note_on_c, 1, 84, 89
2, 63036, Note_off_c, 1, 62, 64
2, 63036, Note_off_c, 1, 57, 64
2, 63036, Note_off_c, 1, 60, 64
2, 63100, Note_off_c, 1, 84, 64
2, 63148, Note_off_c, 1, 90, 64
2, 63152, Note_on_c, 1, 86, 89
2, 63172, Note_off_c, 1, 86, 64
2, 63288, Note_on_c, 1, 91, 100
2, 63288, Note_on_c, 1, 86, 105
2, 63288, Note_on_c, 1, 55, 92
2, 63292, Note_on_c, 1, 83, 122
2, 63292, Note_on_c, 1, 59, 89
2, 63292, Note_on_c, 1, 62, 86
2, 63300, Control_c, 1, 64, 0
2, 63336, Control_c, 1, 64, 127
2, 63356, Note_off_c, 1, 62, 64
2, 63364, Note_off_c, 1, 59, 64
2, 63380, Note_off_c, 1, 55, 64
2, 63480, Control_c, 1, 64, 0
2, 63552, Control_c, 1, 64, 127
2, 63556, Note_on_c, 1, 41, 122
2, 63556, Note_on_c, 1, 53, 127
2, 63556, Note_on_c, 1, 48, 127
2, 63656, Note_off_c, 1, 41, 64
2, 63656, Note_off_c, 1, 53, 64
2, 63684, Note_off_c, 1, 48, 64
2, 63804, Control_c, 1, 64, 0
2, 63828, Note_on_c, 1, 40, 110
2, 63828, Note_on_c, 1, 52, 122
2, 63840, Control_c, 1, 64, 127
2, 63852, Note_off_c, 1, 91, 0
2, 63852, Note_off_c, 1, 86, 0
2, 63852, Note_off_c, 1, 83, 0
2, 63956, Note_off_c, 1, 40, 64
2, 63964, Note_on_c, 1, 76, 92
2, 63964, Note_on_c, 1, 88, 110
2, 63968, Note_off_c, 1, 52, 64
2, 63968, Note_on_c, 1, 84, 105
2, 63976, Note_off_c, 1, 76, 64
2, 63976, Note_off_c, 1, 84, 64
2, 63984, Note_off_c, 1, 88, 64
2, 64084, Note_on_c, 1, 38, 110
2, 64088, Note_on_c, 1, 50, 122
2, 64092, Note_on_c, 1, 89, 110
2, 64092, Note_on_c, 1, 77, 92
2, 64092, Note_on_c, 1, 86, 110
2, 64104, Note_off_c, 1, 89, 64
2, 64104, Note_off_c, 1, 77, 64
2, 64104, Note_off_c, 1, 86, 64
2, 64212, Note_off_c, 1, 38, 64
2, 64212, Note_off_c, 1, 50, 64
2, 64220, Note_on_c, 1, 90, 92
2, 64220, Note_on_c, 1, 78, 89
2, 64220, Note_on_c, 1, 87, 96
2, 64228, Note_off_c, 1, 87, 64
2, 64236, Note_off_c, 1, 78, 64
2, 64240, Note_off_c, 1, 90, 64
2, 64344, Note_on_c, 1, 36, 115
2, 64352, Note_on_c, 1, 91, 105
2, 64356, Note_on_c, 1, 79, 110
2, 64356, Note_on_c, 1, 48, 127
2, 64356, Note_on_c, 1, 88, 122
2, 64356, Note_on_c, 1, 43, 127
2, 64356, Control_c, 1, 64, 0
2, 64396, Control_c, 1, 64, 127
2, 64404, Note_off_c, 1, 36, 64
2, 64404, Note_off_c, 1, 43, 64
2, 64412, Note_off_c, 1, 48, 0
2, 64424, Note_off_c, 1, 91, 0
2, 64432, Note_off_c, 1, 79, 0
2, 64440, Note_off_c, 1, 88, 0
2, 64608, Note_on_c, 1, 64, 89
2, 64608, Note_on_c, 1, 55, 86
2, 64608, Note_on_c, 1, 60, 77
2, 64612, Note_on_c, 1, 93, 92
2, 64612, Note_on_c, 1, 88, 110
2, 64616, Note_on_c, 1, 81, 92
2, 64620, Note_off_c, 1, 64, 64
2, 64628, Note_off_c, 1, 60, 64
2, 64632, Note_off_c, 1, 55, 64
2, 64632, Note_off_c, 1, 93, 64
2, 64632, Note_off_c, 1, 88, 64
2, 64632, Note_off_c, 1, 81, 64
2, 64740, Note_on_c, 1, 91, 92
2, 64740, Note_on_c, 1, 88, 105
2, 64744, Note_on_c, 1, 79, 100
2, 64852, Control_c, 1, 64, 0
2, 64868, Note_on_c, 1, 31, 105
2, 64872, Note_on_c, 1, 43, 122
2, 64880, Note_off_c, 1, 88, 64
2, 64884, Note_off_c, 1, 91, 64
2, 64888, Note_off_c, 1, 79, 64
2, 64888, Control_c, 1, 64, 127
2, 64932, Note_off_c, 1, 31, 64
2, 64944, Note_off_c, 1, 43, 64
2, 65008, Note_on_c, 1, 88, 105
2, 65008, Note_on_c, 1, 84, 105
2, 65008, Note_on_c, 1, 76, 92
2, 65020, Note_off_c, 1, 84, 64
2, 65020, Note_off_c, 1, 76, 64
2, 65032, Note_off_c, 1, 88, 64
2, 65136, Note_on_c, 1, 55, 92
2, 65136, Note_on_c, 1, 64, 83
2, 65136, Note_on_c, 1, 89, 96
2, 65136, Note_on_c, 1, 60, 80
2, 65140, Note_on_c, 1, 86, 89
2, 65140, Note_on_c, 1, 77, 96
2, 65148, Note_off_c, 1, 55, 64
2, 65148, Note_off_c, 1, 64, 64
2, 65148, Note_off_c, 1, 60, 64
2, 65148, Note_off_c, 1, 86, 64
2, 65152, Note_off_c, 1, 77, 64
2, 65160, Note_off_c, 1, 89, 64
2, 65264, Note_on_c, 1, 90, 89
2, 65264, Note_on_c, 1, 87, 80
2, 65268, Note_on_c, 1, 78, 89
2, 65276, Note_off_c, 1, 87, 64
2, 65280, Note_off_c, 1, 78, 64
2, 65292, Note_off_c, 1, 90, 64
2, 65400, Note_on_c, 1, 36, 96
2, 65400, Note_on_c, 1, 91, 110
2, 65400, Note_on_c, 1, 48, 122
2, 65400, Note_on_c, 1, 79, 115
2, 65400, Note_on_c, 1, 88, 110
2, 65400, Control_c, 1, 64, 0
2, 65404, Note_on_c, 1, 47, 89
2, 65416, Note_off_c, 1, 47, 64
2, 65428, Control_c, 1, 64, 127
2, 65460, Note_off_c, 1, 36, 64
2, 65480, Note_off_c, 1, 48, 64
2, 65500, Note_off_c, 1, 79, 64
2, 65504, Note_off_c, 1, 91, 64
2, 65508, Note_off_c, 1, 88, 64
2, 65660, Note_on_c, 1, 55, 80
2, 65660, Note_on_c, 1, 64, 77
2, 65664, Note_on_c, 1, 60, 69
2, 65664, Note_on_c, 1, 93, 92
2, 65668, Note_on_c, 1, 81, 105
2, 65668, Note_on_c, 1, 88, 110
2, 65672, Note_off_c, 1, 64, 64
2, 65672, Note_off_c, 1, 60, 64
2, 65680, Note_off_c, 1, 55, 64
2, 65684, Note_off_c, 1, 81, 64
2, 65688, Note_off_c, 1, 88, 64
2, 65696, Note_off_c, 1, 93, 64
2, 65800, Note_on_c, 1, 91, 96
2, 65800, Note_on_c, 1, 88, 113
2, 65800, Note_on_c, 1, 79, 105
2, 65924, Note_on_c, 1, 40, 96
2, 65924, Note_on_c, 1, 52, 110
2, 65924, Control_c, 1, 64, 0
2, 65932, Note_off_c, 1, 88, 64
2, 65936, Note_off_c, 1, 91, 64
2, 65956, Control_c, 1, 64, 127
2, 65972, Note_off_c, 1, 79, 64
2, 65980, Note_off_c, 1, 40, 64
2, 65996, Note_off_c, 1, 52, 64
2, 66052, Note_on_c, 1, 88, 96
2, 66180, Note_off_c, 1, 88, 64
2, 66184, Note_on_c, 1, 55, 83
2, 66184, Note_on_c, 1, 64, 80
2, 66184, Note_on_c, 1, 60, 75
2, 66184, Note_on_c, 1, 84, 105
2, 66196, Note_off_c, 1, 55, 64
2, 66196, Note_off_c, 1, 64, 64
2, 66196, Note_off_c, 1, 60, 64
2, 66296, Note_off_c, 1, 84, 64
2, 66308, Note_on_c, 1, 79, 110
2, 66424, Note_off_c, 1, 79, 0
2, 66432, Note_on_c, 1, 41, 115
2, 66436, Note_on_c, 1, 81, 127
2, 66436, Control_c, 1, 64, 0
2, 66468, Control_c, 1, 64, 127
2, 66512, Note_off_c, 1, 41, 64
2, 66572, Note_off_c, 1, 81, 64
2, 66572, Note_on_c, 1, 83, 105
2, 66704, Note_off_c, 1, 83, 64
2, 66704, Note_on_c, 1, 65, 63
2, 66708, Note_on_c, 1, 57, 67
2, 66712, Note_on_c, 1, 84, 100
2, 66712, Note_on_c, 1, 60, 63
2, 66748, Note_off_c, 1, 57, 64
2, 66752, Note_off_c, 1, 60, 64
2, 66756, Note_off_c, 1, 65, 64
2, 66828, Note_off_c, 1, 84, 64
2, 66836, Note_on_c, 1, 86, 92
2, 66964, Note_on_c, 1, 53, 92
2, 66980, Note_on_c, 1, 88, 83
2, 66988, Note_off_c, 1, 86, 64
2, 66992, Control_c, 1, 64, 0
2, 67092, Control_c, 1, 64, 127
2, 67100, Note_on_c, 1, 86, 89
2, 67104, Note_off_c, 1, 88, 64
2, 67228, Note_on_c, 1, 65, 61
2, 67232, Note_on_c, 1, 56, 53
2, 67232, Note_on_c, 1, 60, 65
2, 67236, Note_off_c, 1, 86, 64
2, 67236, Note_on_c, 1, 84, 89
2, 67296, Note_off_c, 1, 56, 64
2, 67296, Note_off_c, 1, 60, 64
2, 67308, Note_off_c, 1, 53, 64
2, 67308, Note_off_c, 1, 65, 64
2, 67352, Note_off_c, 1, 84, 0
2, 67356, Note_on_c, 1, 86, 80
2, 67496, Note_off_c, 1, 86, 64
2, 67496, Note_on_c, 1, 52, 69
2, 67500, Note_on_c, 1, 84, 77
2, 67504, Control_c, 1, 64, 0
2, 67580, Control_c, 1, 64, 127
2, 67752, Note_on_c, 1, 64, 63
2, 67752, Note_on_c, 1, 55, 61
2, 67756, Note_on_c, 1, 60, 59
2, 67764, Note_off_c, 1, 64, 64
2, 67764, Note_off_c, 1, 60, 64
2, 67772, Note_off_c, 1, 55, 64
2, 67776, Note_off_c, 1, 52, 64
2, 67824, Control_c, 1, 64, 0
2, 68012, Note_on_c, 1, 48, 83
2, 68012, Control_c, 1, 64, 127
2, 68028, Note_off_c, 1, 48, 64
2, 68140, Note_off_c, 1, 84, 64
2, 68144, Note_on_c, 1, 79, 86
2, 68272, Note_off_c, 1, 79, 64
2, 68272, Note_on_c, 1, 55, 75
2, 68276, Note_on_c, 1, 78, 83
2, 68280, Note_on_c, 1, 60, 60
2, 68280, Note_on_c, 1, 64, 56
2, 68292, Note_off_c, 1, 55, 64
2, 68292, Note_off_c, 1, 60, 64
2, 68296, Note_off_c, 1, 64, 64
2, 68396, Note_off_c, 1, 78, 0
2, 68400, Note_on_c, 1, 79, 89
2, 68440, Control_c, 1, 64, 0
2, 68536, Note_on_c, 1, 57, 69
2, 68540, Note_on_c, 1, 53, 55
2, 68540, Note_on_c, 1, 65, 56
2, 68540, Note_on_c, 1, 60, 59
2, 68544, Note_off_c, 1, 79, 64
2, 68544, Note_on_c, 1, 84, 83
2, 68552, Note_off_c, 1, 60, 64
2, 68556, Note_off_c, 1, 57, 64
2, 68556, Note_off_c, 1, 53, 64
2, 68556, Note_off_c, 1, 65, 64
2, 68796, Note_on_c, 1, 65, 59
2, 68800, Note_off_c, 1, 84, 64
2, 68800, Note_on_c, 1, 57, 59
2, 68800, Note_on_c, 1, 81, 89
2, 68800, Note_on_c, 1, 53, 53
2, 68800, Note_on_c, 1, 60, 46
2, 68812, Note_off_c, 1, 53, 64
2, 68812, Note_off_c, 1, 60, 64
2, 68816, Note_off_c, 1, 81, 64
2, 68820, Note_off_c, 1, 65, 64
2, 68820, Note_off_c, 1, 57, 64
2, 68920, Note_on_c, 1, 84, 112
2, 69052, Note_on_c, 1, 63, 67
2, 69052, Note_on_c, 1, 54, 92
2, 69056, Note_on_c, 1, 60, 80
2, 69060, Note_on_c, 1, 57, 92
2, 69064, Note_off_c, 1, 60, 64
2, 69068, Note_off_c, 1, 63, 64
2, 69068, Note_off_c, 1, 57, 64
2, 69072, Note_off_c, 1, 54, 64
2, 69184, Note_on_c, 1, 81, 92
2, 69192, Note_off_c, 1, 84, 64
2, 69220, Note_off_c, 1, 81, 64
2, 69312, Note_on_c, 1, 54, 60
2, 69312, Note_on_c, 1, 63, 53
2, 69316, Note_on_c, 1, 84, 89
2, 69332, Note_off_c, 1, 54, 0
2, 69344, Note_off_c, 1, 63, 0
2, 69448, Note_off_c, 1, 84, 64
2, 69448, Note_on_c, 1, 81, 92
2, 69568, Note_off_c, 1, 81, 64
2, 69572, Note_on_c, 1, 55, 71
2, 69576, Note_on_c, 1, 60, 67
2, 69580, Note_on_c, 1, 64, 59
2, 69580, Note_on_c, 1, 79, 83
2, 69592, Note_off_c, 1, 55, 64
2, 69592, Note_off_c, 1, 60, 64
2, 69596, Note_off_c, 1, 64, 64
2, 69708, Note_on_c, 1, 84, 71
2, 69840, Note_off_c, 1, 84, 64
2, 69840, Note_on_c, 1, 88, 73
2, 69844, Note_on_c, 1, 60, 63
2, 69844, Note_on_c, 1, 64, 67
2, 69844, Note_on_c, 1, 55, 49
2, 69856, Note_off_c, 1, 88, 64
2, 69856, Note_off_c, 1, 55, 64
2, 69860, Note_off_c, 1, 60, 64
2, 69860, Note_off_c, 1, 64, 64
2, 69964, Note_on_c, 1, 91, 105
2, 70096, Note_on_c, 1, 60, 61
2, 70096, Note_on_c, 1, 64, 64
2, 70100, Note_on_c, 1, 55, 58
2, 70120, Note_off_c, 1, 60, 64
2, 70120, Note_off_c, 1, 64, 64
2, 70132, Note_off_c, 1, 55, 64
2, 70228, Note_off_c, 1, 91, 64
2, 70228, Note_on_c, 1, 88, 83
2, 70360, Note_off_c, 1, 79, 0
2, 70360, Note_off_c, 1, 88, 0
2, 70360, Note_on_c, 1, 64, 59
2, 70360, Note_on_c, 1, 55, 56
2, 70360, Note_on_c, 1, 84, 86
2, 70368, Note_on_c, 1, 60, 50
2, 70384, Note_off_c, 1, 64, 64
2, 70384, Note_off_c, 1, 60, 64
2, 70404, Note_off_c, 1, 55, 64
2, 70480, Note_off_c, 1, 84, 64
2, 70484, Note_on_c, 1, 79, 63
2, 70492, Control_c, 1, 64, 127
2, 70528, Note_off_c, 1, 79, 64
2, 70616, Note_on_c, 1, 60, 51
2, 70616, Note_on_c, 1, 78, 61
2, 70616, Control_c, 1, 64, 0
2, 70620, Note_on_c, 1, 81, 86
2, 70632, Note_off_c, 1, 60, 64
2, 70640, Note_off_c, 1, 78, 64
2, 70640, Note_off_c, 1, 81, 64
2, 70884, Note_on_c, 1, 84, 75
2, 70888, Note_on_c, 1, 57, 58
2, 70888, Note_on_c, 1, 78, 54
2, 70888, Note_on_c, 1, 50, 52
2, 70912, Control_c, 1, 64, 127
2, 70928, Note_off_c, 1, 57, 64
2, 70932, Note_off_c, 1, 50, 64
2, 70988, Note_off_c, 1, 78, 64
2, 71024, Note_off_c, 1, 84, 64
2, 71132, Note_on_c, 1, 88, 69
2, 71136, Control_c, 1, 64, 0
2, 71140, Note_on_c, 1, 55, 33
2, 71140, Note_on_c, 1, 77, 62
2, 71140, Note_on_c, 1, 59, 43
2, 71152, Note_off_c, 1, 77, 64
2, 71156, Note_off_c, 1, 88, 64
2, 71156, Note_off_c, 1, 55, 64
2, 71156, Note_off_c, 1, 59, 64
2, 71256, Note_on_c, 1, 77, 63
2, 71260, Note_on_c, 1, 86, 67
2, 71264, Control_c, 1, 64, 127
2, 71384, Note_off_c, 1, 77, 0
2, 71388, Note_off_c, 1, 86, 0
2, 71392, Control_c, 1, 64, 0
2, 71396, Note_on_c, 1, 55, 77
2, 71396, Note_on_c, 1, 59, 75
2, 71516, Note_off_c, 1, 55, 64
2, 71516, Control_c, 1, 64, 127
2, 71524, Note_off_c, 1, 59, 64
2, 71528, Note_on_c, 1, 84, 64
2, 71528, Note_on_c, 1, 76, 63
2, 71656, Control_c, 1, 64, 0
2, 71660, Note_on_c, 1, 60, 60
2, 71664, Note_on_c, 1, 48, 42
2, 71676, Note_off_c, 1, 60, 64
2, 71684, Note_off_c, 1, 48, 64
2, 71928, Note_on_c, 1, 43, 60
2, 71928, Note_on_c, 1, 55, 56
2, 71948, Note_off_c, 1, 43, 64
2, 71948, Note_off_c, 1, 55, 64
2, 72180, Note_on_c, 1, 36, 32
2, 72188, Note_off_c, 1, 84, 64
2, 72188, Note_on_c, 1, 48, 29
2, 72188, Control_c, 1, 64, 127
2, 72196, Note_off_c, 1, 76, 64
2, 72220, Note_off_c, 1, 36, 64
2, 72220, Note_off_c, 1, 48, 64
2, 72408, Note_on_c, 1, 55, 30
2, 72424, Note_off_c, 1, 55, 64
2, 72424, Note_on_c, 1, 59, 61
2, 72428, Control_c, 1, 64, 0
2, 72440, Note_on_c, 1, 62, 92
2, 72576, Note_on_c, 1, 63, 64
2, 72588, Note_off_c, 1, 62, 64
2, 72684, Note_off_c, 1, 63, 64
2, 72692, Note_off_c, 1, 59, 64
2, 72692, Note_on_c, 1, 48, 23
2, 72696, Note_on_c, 1, 64, 61
2, 72732, Note_off_c, 1, 48, 64
2, 72836, Note_on_c, 1, 72, 57
2, 72848, Note_off_c, 1, 64, 64
2, 72968, Note_on_c, 1, 60, 52
2, 72968, Note_on_c, 1, 52, 55
2, 72972, Note_on_c, 1, 55, 54
2, 72980, Note_off_c, 1, 55, 64
2, 72984, Note_off_c, 1, 60, 64
2, 72984, Note_off_c, 1, 52, 64
2, 73092, Note_off_c, 1, 72, 64
2, 73100, Note_on_c, 1, 64, 50
2, 73228, Note_on_c, 1, 43, 50
2, 73232, Note_off_c, 1, 64, 64
2, 73236, Note_on_c, 1, 55, 34
2, 73236, Note_on_c, 1, 72, 65
2, 73248, Note_off_c, 1, 43, 0
2, 73252, Note_off_c, 1, 55, 0
2, 73492, Note_on_c, 1, 55, 34
2, 73492, Note_on_c, 1, 58, 37
2, 73492, Note_on_c, 1, 60, 38
2, 73496, Note_off_c, 1, 72, 0
2, 73500, Note_on_c, 1, 64, 45
2, 73508, Note_off_c, 1, 58, 64
2, 73512, Note_off_c, 1, 60, 64
2, 73516, Note_off_c, 1, 55, 64
2, 73624, Note_on_c, 1, 72, 64
2, 73640, Note_off_c, 1, 64, 64
2, 73744, Note_on_c, 1, 41, 58
2, 73748, Note_on_c, 1, 53, 55
2, 73768, Note_off_c, 1, 41, 64
2, 73772, Note_off_c, 1, 53, 64
2, 74012, Note_on_c, 1, 57, 63
2, 74020, Note_on_c, 1, 60, 51
2, 74032, Note_off_c, 1, 57, 64
2, 74032, Note_off_c, 1, 60, 64
2, 74268, Note_on_c, 1, 40, 58
2, 74268, Control_c, 1, 64, 127
2, 74272, Note_on_c, 1, 52, 34
2, 74296, Note_off_c, 1, 72, 0
2, 74296, Note_off_c, 1, 40, 64
2, 74304, Note_off_c, 1, 52, 64
2, 74404, Note_on_c, 1, 76, 80
2, 74404, Note_on_c, 1, 84, 75
2, 74404, Note_on_c, 1, 72, 67
2, 74416, Note_off_c, 1, 76, 64
2, 74416, Note_off_c, 1, 72, 64
2, 74424, Note_off_c, 1, 84, 64
2, 74532, Note_on_c, 1, 52, 52
2, 74536, Note_on_c, 1, 60, 49
2, 74536, Note_on_c, 1, 55, 55
2, 74536, Note_on_c, 1, 86, 83
2, 74536, Note_on_c, 1, 77, 83
2, 74536, Note_on_c, 1, 74, 75
2, 74548, Note_off_c, 1, 60, 64
2, 74548, Note_off_c, 1, 55, 64
2, 74548, Note_off_c, 1, 77, 64
2, 74548, Note_off_c, 1, 74, 64
2, 74552, Note_off_c, 1, 52, 64
2, 74552, Note_off_c, 1, 86, 64
2, 74656, Note_on_c, 1, 78, 92
2, 74656, Note_on_c, 1, 87, 80
2, 74660, Note_on_c, 1, 75, 71
2, 74672, Note_off_c, 1, 78, 64
2, 74672, Note_off_c, 1, 75, 64
2, 74680, Note_off_c, 1, 87, 64
2, 74772, Control_c, 1, 64, 0
2, 74788, Note_on_c, 1, 43, 83
2, 74788, Note_on_c, 1, 55, 71
2, 74792, Note_on_c, 1, 79, 110
2, 74792, Note_on_c, 1, 88, 110
2, 74792, Note_on_c, 1, 76, 92
2, 74804, Control_c, 1, 64, 127
2, 74816, Note_off_c, 1, 43, 64
2, 74816, Note_off_c, 1, 79, 64
2, 74820, Note_off_c, 1, 76, 64
2, 74824, Note_off_c, 1, 55, 64
2, 74828, Note_off_c, 1, 88, 64
2, 74924, Note_on_c, 1, 76, 86
2, 74924, Note_on_c, 1, 72, 67
2, 74924, Note_on_c, 1, 84, 77
2, 74936, Note_off_c, 1, 76, 64
2, 74936, Note_off_c, 1, 72, 64
2, 74940, Note_off_c, 1, 84, 64
2, 75056, Note_on_c, 1, 52, 56
2, 75056, Note_on_c, 1, 55, 55
2, 75056, Note_on_c, 1, 86, 86
2, 75060, Note_on_c, 1, 77, 86
2, 75060, Note_on_c, 1, 74, 83
2, 75060, Note_on_c, 1, 60, 55
2, 75068, Note_off_c, 1, 52, 64
2, 75068, Note_off_c, 1, 55, 64
2, 75072, Note_off_c, 1, 77, 64
2, 75072, Note_off_c, 1, 74, 64
2, 75072, Note_off_c, 1, 60, 64
2, 75080, Note_off_c, 1, 86, 64
2, 75096, Control_c, 1, 64, 0
2, 75188, Note_on_c, 1, 88, 100
2, 75192, Note_on_c, 1, 76, 89
2, 75192, Note_on_c, 1, 79, 96
2, 75192, Control_c, 1, 64, 127
2, 75300, Note_off_c, 1, 79, 0
2, 75300, Note_off_c, 1, 88, 0
2, 75304, Note_off_c, 1, 76, 0
2, 75328, Note_on_c, 1, 43, 75
2, 75328, Note_on_c, 1, 55, 64
2, 75344, Note_off_c, 1, 43, 64
2, 75348, Note_off_c, 1, 55, 64
2, 75452, Note_on_c, 1, 74, 83
2, 75452, Note_on_c, 1, 83, 83
2, 75456, Note_on_c, 1, 71, 69
2, 75464, Note_off_c, 1, 74, 64
2, 75464, Note_off_c, 1, 71, 64
2, 75476, Note_off_c, 1, 83, 64
2, 75576, Control_c, 1, 64, 0
2, 75580, Note_on_c, 1, 59, 57
2, 75584, Note_on_c, 1, 55, 56
2, 75584, Note_on_c, 1, 77, 86
2, 75584, Note_on_c, 1, 74, 80
2, 75584, Note_on_c, 1, 86, 100
2, 75608, Control_c, 1, 64, 127
2, 75652, Note_off_c, 1, 55, 64
2, 75660, Note_off_c, 1, 59, 64
2, 75680, Note_off_c, 1, 86, 64
2, 75684, Note_off_c, 1, 77, 64
2, 75688, Note_off_c, 1, 74, 64
2, 75836, Note_on_c, 1, 48, 60
2, 75836, Note_on_c, 1, 76, 89
2, 75840, Note_on_c, 1, 84, 80
2, 75840, Note_on_c, 1, 72, 75
2, 75844, Control_c, 1, 64, 0
2, 76072, Note_off_c, 1, 48, 64
2, 76104, Note_on_c, 1, 55, 60
2, 76104, Note_on_c, 1, 60, 56
2, 76104, Note_on_c, 1, 52, 62
2, 76116, Note_off_c, 1, 55, 64
2, 76120, Note_off_c, 1, 60, 64
2, 76120, Note_off_c, 1, 52, 64
2, 76352, Note_off_c, 1, 84, 0
2, 76352, Note_off_c, 1, 72, 0
2, 76356, Note_off_c, 1, 76, 0
2, 76368, Note_on_c, 1, 55, 50
2, 76372, Note_on_c, 1, 52, 43
2, 76372, Note_on_c, 1, 60, 40
2, 76380, Control_c, 1, 64, 127
2, 76408, Note_off_c, 1, 55, 64
2, 76412, Note_off_c, 1, 52, 64
2, 76416, Note_off_c, 1, 60, 64
2, 76580, Note_on_c, 1, 55, 23
2, 76600, Note_on_c, 1, 59, 49
2, 76612, Control_c, 1, 64, 0
2, 76620, Note_off_c, 1, 55, 64
2, 76636, Note_on_c, 1, 62, 69
2, 76748, Note_on_c, 1, 63, 73
2, 76772, Note_off_c, 1, 62, 64
2, 76860, Note_on_c, 1, 48, 55
2, 76872, Note_off_c, 1, 59, 64
2, 76880, Note_off_c, 1, 63, 64
2, 76884, Note_on_c, 1, 64, 63
2, 76892, Note_off_c, 1, 48, 64
2, 77004, Note_on_c, 1, 72, 29
2, 77016, Note_off_c, 1, 64, 64
2, 77140, Note_on_c, 1, 60, 51
2, 77140, Note_on_c, 1, 52, 51
2, 77140, Note_on_c, 1, 55, 55
2, 77152, Note_off_c, 1, 55, 64
2, 77156, Note_off_c, 1, 52, 64
2, 77160, Note_off_c, 1, 60, 64
2, 77268, Note_off_c, 1, 72, 0
2, 77280, Note_on_c, 1, 64, 46
2, 77404, Note_on_c, 1, 55, 47
2, 77408, Note_on_c, 1, 43, 29
2, 77424, Note_off_c, 1, 64, 64
2, 77424, Note_on_c, 1, 72, 67
2, 77424, Control_c, 1, 64, 127
2, 77436, Note_off_c, 1, 43, 64
2, 77440, Note_off_c, 1, 55, 64
2, 77664, Note_on_c, 1, 58, 42
2, 77664, Note_on_c, 1, 60, 40
2, 77664, Note_on_c, 1, 55, 36
2, 77668, Note_off_c, 1, 72, 64
2, 77672, Note_on_c, 1, 64, 59
2, 77672, Control_c, 1, 64, 0
2, 77680, Note_off_c, 1, 58, 64
2, 77680, Note_off_c, 1, 60, 64
2, 77688, Note_off_c, 1, 55, 64
2, 77800, Note_on_c, 1, 72, 67
2, 77816, Note_off_c, 1, 64, 64
2, 77928, Note_on_c, 1, 41, 67
2, 77932, Note_on_c, 1, 53, 58
2, 77932, Control_c, 1, 64, 127
2, 77952, Note_off_c, 1, 41, 64
2, 77956, Note_off_c, 1, 53, 64
2, 78200, Note_on_c, 1, 57, 73
2, 78200, Note_on_c, 1, 60, 64
2, 78212, Note_off_c, 1, 57, 64
2, 78212, Note_off_c, 1, 60, 64
2, 78448, Note_on_c, 1, 52, 86
2, 78448, Note_on_c, 1, 40, 86
2, 78452, Control_c, 1, 64, 0
2, 78468, Note_off_c, 1, 72, 0
2, 78484, Control_c, 1, 64, 127
2, 78576, Note_off_c, 1, 52, 64
2, 78600, Note_off_c, 1, 40, 64
2, 78684, Control_c, 1, 64, 0
2, 78704, Note_on_c, 1, 81, 96
2, 78708, Note_on_c, 1, 72, 89
2, 78712, Note_on_c, 1, 39, 75
2, 78712, Note_on_c, 1, 69, 73
2, 78712, Note_on_c, 1, 51, 83
2, 78724, Control_c, 1, 64, 127
2, 78756, Note_off_c, 1, 81, 64
2, 78760, Note_off_c, 1, 69, 64
2, 78764, Note_off_c, 1, 72, 64
2, 78808, Note_off_c, 1, 39, 64
2, 78808, Note_off_c, 1, 51, 64
2, 78828, Note_on_c, 1, 79, 83
2, 78832, Note_on_c, 1, 72, 75
2, 78836, Note_on_c, 1, 67, 75
2, 78848, Note_off_c, 1, 67, 64
2, 78860, Note_off_c, 1, 79, 64
2, 78872, Note_off_c, 1, 72, 64
2, 78948, Control_c, 1, 64, 0
2, 78964, Note_on_c, 1, 38, 92
2, 78968, Note_on_c, 1, 50, 80
2, 78968, Note_on_c, 1, 78, 80
2, 78968, Note_on_c, 1, 72, 89
2, 78968, Note_on_c, 1, 66, 86
2, 78976, Control_c, 1, 64, 127
2, 78984, Note_off_c, 1, 72, 64
2, 78992, Note_off_c, 1, 66, 64
2, 79000, Note_off_c, 1, 78, 64
2, 79004, Note_off_c, 1, 38, 64
2, 79012, Note_off_c, 1, 50, 64
2, 79096, Note_on_c, 1, 81, 90
2, 79100, Note_on_c, 1, 69, 80
2, 79116, Note_off_c, 1, 69, 64
2, 79128, Note_off_c, 1, 81, 0
2, 79228, Note_on_c, 1, 54, 48
2, 79232, Note_on_c, 1, 60, 60
2, 79232, Note_on_c, 1, 84, 97
2, 79232, Note_on_c, 1, 57, 61
2, 79232, Note_on_c, 1, 72, 80
2, 79244, Note_off_c, 1, 72, 64
2, 79252, Note_off_c, 1, 84, 64
2, 79268, Control_c, 1, 64, 0
2, 79368, Note_on_c, 1, 88, 100
2, 79368, Note_on_c, 1, 76, 89
2, 79368, Control_c, 1, 64, 127
2, 79492, Note_off_c, 1, 54, 64
2, 79492, Note_off_c, 1, 60, 64
2, 79492, Note_off_c, 1, 57, 64
2, 79492, Note_off_c, 1, 88, 64
2, 79492, Note_off_c, 1, 76, 64
2, 79492, Note_on_c, 1, 50, 86
2, 79620, Note_on_c, 1, 86, 71
2, 79620, Note_on_c, 1, 74, 92
2, 79632, Note_off_c, 1, 86, 64
2, 79636, Note_off_c, 1, 74, 64
2, 79744, Note_on_c, 1, 60, 56
2, 79748, Note_on_c, 1, 84, 77
2, 79748, Note_on_c, 1, 72, 83
2, 79748, Note_on_c, 1, 57, 51
2, 79752, Note_on_c, 1, 54, 45
2, 79768, Note_off_c, 1, 50, 64
2, 79768, Note_off_c, 1, 84, 64
2, 79768, Note_off_c, 1, 72, 64
2, 79768, Note_off_c, 1, 57, 64
2, 79772, Note_off_c, 1, 54, 64
2, 79788, Note_off_c, 1, 60, 64
2, 79872, Note_on_c, 1, 81, 80
2, 79872, Note_on_c, 1, 69, 73
2, 79892, Note_off_c, 1, 81, 64
2, 79892, Note_off_c, 1, 69, 64
2, 80008, Control_c, 1, 64, 0
2, 80016, Note_on_c, 1, 86, 80
2, 80020, Note_on_c, 1, 77, 77
2, 80024, Note_on_c, 1, 74, 62
2, 80024, Note_on_c, 1, 59, 60
2, 80024, Note_on_c, 1, 55, 58
2, 80048, Control_c, 1, 64, 127
2, 80080, Note_off_c, 1, 59, 64
2, 80092, Note_off_c, 1, 55, 64
2, 80240, Control_c, 1, 64, 0
2, 80264, Note_on_c, 1, 43, 80
2, 80268, Note_on_c, 1, 55, 80
2, 80420, Note_off_c, 1, 43, 64
2, 80420, Note_off_c, 1, 55, 64
2, 80532, Note_on_c, 1, 45, 86
2, 80532, Note_on_c, 1, 57, 89
2, 80576, Control_c, 1, 64, 127
2, 80612, Note_off_c, 1, 86, 0
2, 80628, Note_off_c, 1, 77, 0
2, 80636, Note_off_c, 1, 74, 0
2, 80664, Note_off_c, 1, 45, 64
2, 80672, Note_off_c, 1, 57, 64
2, 80672, Control_c, 1, 64, 0
2, 80796, Note_on_c, 1, 62, 71
2, 80800, Note_on_c, 1, 47, 67
2, 80804, Note_on_c, 1, 59, 63
2, 80936, Note_off_c, 1, 47, 64
2, 80936, Note_on_c, 1, 63, 65
2, 80944, Note_off_c, 1, 62, 64
2, 80968, Note_off_c, 1, 59, 64
2, 81056, Note_off_c, 1, 63, 64
2, 81056, Note_on_c, 1, 48, 65
2, 81060, Note_on_c, 1, 64, 58
2, 81184, Note_on_c, 1, 72, 58
2, 81204, Note_off_c, 1, 64, 0
2, 81236, Note_off_c, 1, 48, 0
2, 81320, Note_on_c, 1, 60, 59
2, 81320, Note_on_c, 1, 52, 33
2, 81320, Note_on_c, 1, 55, 56
2, 81436, Note_off_c, 1, 55, 64
2, 81436, Note_off_c, 1, 60, 64
2, 81444, Note_off_c, 1, 52, 64
2, 81452, Note_off_c, 1, 72, 64
2, 81456, Note_on_c, 1, 64, 56
2, 81572, Note_on_c, 1, 43, 86
2, 81572, Note_on_c, 1, 55, 80
2, 81584, Note_off_c, 1, 64, 64
2, 81584, Note_on_c, 1, 72, 63
2, 81588, Control_c, 1, 64, 127
2, 81640, Note_off_c, 1, 43, 64
2, 81648, Note_off_c, 1, 55, 64
2, 81840, Note_off_c, 1, 72, 64
2, 81840, Note_on_c, 1, 58, 52
2, 81840, Note_on_c, 1, 55, 55
2, 81840, Note_on_c, 1, 60, 56
2, 81840, Note_on_c, 1, 64, 55
2, 81852, Note_off_c, 1, 58, 64
2, 81852, Note_off_c, 1, 60, 64
2, 81856, Note_off_c, 1, 55, 64
2, 81968, Note_on_c, 1, 72, 59
2, 81972, Control_c, 1, 64, 0
2, 82092, Note_on_c, 1, 41, 83
2, 82096, Note_on_c, 1, 53, 86
2, 82104, Control_c, 1, 64, 127
2, 82156, Note_off_c, 1, 41, 64
2, 82168, Note_off_c, 1, 53, 64
2, 82368, Note_on_c, 1, 57, 67
2, 82368, Note_on_c, 1, 60, 59
2, 82384, Note_off_c, 1, 57, 64
2, 82384, Note_off_c, 1, 60, 64
2, 82452, Note_off_c, 1, 64, 0
2, 82580, Control_c, 1, 64, 0
2, 82620, Note_on_c, 1, 40, 80
2, 82620, Note_on_c, 1, 52, 77
2, 82620, Control_c, 1, 64, 127
2, 82648, Note_off_c, 1, 40, 64
2, 82664, Note_off_c, 1, 52, 64
2, 82668, Note_off_c, 1, 72, 0
2, 82740, Note_on_c, 1, 84, 89
2, 82740, Note_on_c, 1, 76, 86
2, 82740, Note_on_c, 1, 72, 69
2, 82756, Note_off_c, 1, 76, 64
2, 82756, Note_off_c, 1, 72, 64
2, 82764, Note_off_c, 1, 84, 64
2, 82876, Note_on_c, 1, 52, 67
2, 82876, Note_on_c, 1, 60, 64
2, 82876, Note_on_c, 1, 86, 89
2, 82880, Note_on_c, 1, 77, 89
2, 82880, Note_on_c, 1, 55, 77
2, 82880, Note_on_c, 1, 74, 77
2, 82896, Note_off_c, 1, 52, 64
2, 82896, Note_off_c, 1, 60, 64
2, 82896, Note_off_c, 1, 77, 64
2, 82896, Note_off_c, 1, 55, 64
2, 82900, Note_off_c, 1, 74, 64
2, 82904, Note_off_c, 1, 86, 64
2, 83008, Note_on_c, 1, 87, 83
2, 83008, Note_on_c, 1, 75, 77
2, 83012, Note_on_c, 1, 78, 92
2, 83020, Note_off_c, 1, 78, 64
2, 83024, Note_off_c, 1, 75, 64
2, 83032, Note_off_c, 1, 87, 64
2, 83128, Control_c, 1, 64, 0
2, 83152, Note_on_c, 1, 43, 89
2, 83152, Note_on_c, 1, 88, 92
2, 83152, Note_on_c, 1, 55, 92
2, 83152, Note_on_c, 1, 76, 80
2, 83152, Note_on_c, 1, 79, 92
2, 83164, Control_c, 1, 64, 127
2, 83168, Note_off_c, 1, 76, 64
2, 83168, Note_off_c, 1, 79, 64
2, 83172, Note_off_c, 1, 88, 64
2, 83188, Note_off_c, 1, 43, 64
2, 83204, Note_off_c, 1, 55, 64
2, 83272, Note_on_c, 1, 76, 92
2, 83276, Note_on_c, 1, 84, 89
2, 83276, Note_on_c, 1, 72, 77
2, 83288, Note_off_c, 1, 76, 64
2, 83292, Note_off_c, 1, 72, 64
2, 83300, Note_off_c, 1, 84, 64
2, 83404, Note_on_c, 1, 60, 63
2, 83404, Note_on_c, 1, 86, 96
2, 83404, Note_on_c, 1, 77, 89
2, 83404, Note_on_c, 1, 74, 86
2, 83404, Note_on_c, 1, 52, 64
2, 83404, Note_on_c, 1, 55, 65
2, 83420, Note_off_c, 1, 60, 64
2, 83420, Note_off_c, 1, 77, 64
2, 83420, Note_off_c, 1, 74, 64
2, 83420, Note_off_c, 1, 55, 64
2, 83424, Note_off_c, 1, 86, 64
2, 83428, Note_off_c, 1, 52, 64
2, 83536, Note_on_c, 1, 88, 105
2, 83536, Note_on_c, 1, 76, 89
2, 83536, Note_on_c, 1, 79, 105
2, 83548, Control_c, 1, 64, 0
2, 83660, Note_on_c, 1, 55, 89
2, 83664, Note_on_c, 1, 43, 86
2, 83664, Control_c, 1, 64, 127
2, 83668, Note_off_c, 1, 88, 64
2, 83668, Note_off_c, 1, 76, 64
2, 83668, Note_off_c, 1, 79, 64
2, 83684, Note_off_c, 1, 43, 64
2, 83692, Note_off_c, 1, 55, 64
2, 83788, Note_on_c, 1, 83, 96
2, 83788, Note_on_c, 1, 74, 89
2, 83792, Note_on_c, 1, 71, 69
2, 83800, Note_off_c, 1, 74, 64
2, 83800, Note_off_c, 1, 71, 64
2, 83808, Note_off_c, 1, 83, 64
2, 83928, Note_on_c, 1, 59, 71
2, 83928, Note_on_c, 1, 55, 75
2, 83928, Note_on_c, 1, 86, 100
2, 83928, Note_on_c, 1, 74, 92
2, 83932, Note_on_c, 1, 77, 96
2, 83956, Note_off_c, 1, 55, 64
2, 83988, Note_off_c, 1, 59, 64
2, 84016, Note_off_c, 1, 86, 64
2, 84020, Note_off_c, 1, 74, 64
2, 84020, Note_off_c, 1, 77, 64
2, 84188, Note_on_c, 1, 48, 92
2, 84192, Note_on_c, 1, 84, 89
2, 84192, Note_on_c, 1, 76, 92
2, 84192, Note_on_c, 1, 72, 77
2, 84192, Control_c, 1, 64, 0
2, 84404, Note_off_c, 1, 48, 64
2, 84456, Note_on_c, 1, 55, 89
2, 84456, Note_on_c, 1, 60, 83
2, 84460, Note_on_c, 1, 52, 83
2, 84532, Control_c, 1, 64, 127
2, 84552, Note_off_c, 1, 52, 64
2, 84556, Note_off_c, 1, 55, 64
2, 84564, Note_off_c, 1, 60, 64
2, 84600, Control_c, 1, 64, 0
2, 84720, Note_on_c, 1, 55, 92
2, 84724, Note_on_c, 1, 64, 96
2, 84724, Note_on_c, 1, 60, 92
2, 84776, Control_c, 1, 64, 127
2, 84792, Note_off_c, 1, 72, 64
2, 84792, Note_off_c, 1, 76, 64
2, 84792, Note_off_c, 1, 84, 64
2, 84916, Control_c, 1, 64, 0
2, 84964, Control_c, 1, 64, 127
2, 84968, Note_on_c, 1, 84, 83
2, 84968, Note_on_c, 1, 72, 92
2, 84976, Note_off_c, 1, 64, 64
2, 84984, Note_off_c, 1, 55, 64
2, 84984, Note_off_c, 1, 60, 64
2, 85000, Note_off_c, 1, 72, 64
2, 85016, Note_off_c, 1, 84, 0
2, 85092, Note_on_c, 1, 86, 92
2, 85092, Note_on_c, 1, 74, 92
2, 85108, Note_off_c, 1, 74, 64
2, 85116, Note_off_c, 1, 86, 64
2, 85128, Control_c, 1, 64, 0
2, 85220, Note_on_c, 1, 88, 86
2, 85224, Note_on_c, 1, 48, 89
2, 85224, Note_on_c, 1, 76, 92
2, 85224, Note_on_c, 1, 60, 83
2, 85224, Control_c, 1, 64, 127
2, 85236, Note_off_c, 1, 88, 64
2, 85240, Note_off_c, 1, 76, 64
2, 85248, Note_off_c, 1, 48, 64
2, 85260, Note_off_c, 1, 60, 64
2, 85344, Note_on_c, 1, 84, 71
2, 85348, Note_on_c, 1, 72, 73
2, 85368, Note_off_c, 1, 72, 64
2, 85376, Note_off_c, 1, 84, 64
2, 85472, Note_on_c, 1, 55, 67
2, 85472, Note_on_c, 1, 64, 65
2, 85476, Note_on_c, 1, 60, 60
2, 85480, Note_on_c, 1, 86, 75
2, 85480, Note_on_c, 1, 74, 75
2, 85488, Note_off_c, 1, 64, 64
2, 85488, Note_off_c, 1, 60, 64
2, 85492, Note_off_c, 1, 55, 64
2, 85496, Note_off_c, 1, 74, 64
2, 85496, Control_c, 1, 64, 0
2, 85500, Note_off_c, 1, 86, 64
2, 85608, Note_on_c, 1, 76, 96
2, 85608, Note_on_c, 1, 88, 97
2, 85740, Control_c, 1, 64, 127
2, 85744, Note_on_c, 1, 46, 100
2, 85744, Note_on_c, 1, 58, 86
2, 85756, Note_off_c, 1, 88, 64
2, 85760, Note_off_c, 1, 46, 64
2, 85764, Note_off_c, 1, 76, 64
2, 85764, Note_off_c, 1, 58, 64
2, 85884, Note_on_c, 1, 84, 77
2, 85884, Note_on_c, 1, 72, 86
2, 85900, Note_off_c, 1, 72, 64
2, 85904, Note_off_c, 1, 84, 64
2, 86008, Note_on_c, 1, 64, 73
2, 86012, Note_on_c, 1, 55, 80
2, 86016, Note_on_c, 1, 60, 65
2, 86016, Note_on_c, 1, 86, 86
2, 86020, Note_off_c, 1, 64, 64
2, 86020, Note_on_c, 1, 74, 83
2, 86032, Note_off_c, 1, 55, 64
2, 86032, Note_off_c, 1, 60, 64
2, 86036, Note_off_c, 1, 86, 64
2, 86036, Note_off_c, 1, 74, 64
2, 86140, Note_on_c, 1, 84, 83
2, 86140, Note_on_c, 1, 72, 80
2, 86152, Control_c, 1, 64, 0
2, 86164, Note_off_c, 1, 72, 64
2, 86168, Note_off_c, 1, 84, 64
2, 86268, Note_on_c, 1, 45, 92
2, 86268, Control_c, 1, 64, 127
2, 86272, Note_on_c, 1, 57, 86
2, 86272, Note_on_c, 1, 88, 83
2, 86280, Note_on_c, 1, 76, 89
2, 86288, Note_off_c, 1, 45, 64
2, 86292, Note_off_c, 1, 88, 64
2, 86292, Note_off_c, 1, 76, 64
2, 86300, Note_off_c, 1, 57, 64
2, 86400, Note_on_c, 1, 84, 75
2, 86400, Note_on_c, 1, 72, 73
2, 86420, Note_off_c, 1, 72, 64
2, 86428, Note_off_c, 1, 84, 64
2, 86532, Note_on_c, 1, 65, 60
2, 86532, Note_on_c, 1, 60, 65
2, 86532, Note_on_c, 1, 86, 75
2, 86532, Note_on_c, 1, 57, 55
2, 86532, Note_on_c, 1, 74, 89
2, 86544, Note_off_c, 1, 65, 64
2, 86544, Note_off_c, 1, 60, 64
2, 86544, Control_c, 1, 64, 0
2, 86548, Note_off_c, 1, 57, 64
2, 86548, Note_off_c, 1, 74, 64
2, 86552, Note_off_c, 1, 86, 64
2, 86664, Note_on_c, 1, 88, 92
2, 86664, Note_on_c, 1, 76, 100
2, 86792, Note_on_c, 1, 56, 92
2, 86792, Note_on_c, 1, 44, 77
2, 86796, Control_c, 1, 64, 127
2, 86804, Note_off_c, 1, 88, 64
2, 86808, Note_off_c, 1, 76, 64
2, 86812, Note_off_c, 1, 44, 64
2, 86824, Note_off_c, 1, 56, 64
2, 86924, Note_on_c, 1, 72, 86
2, 86924, Note_on_c, 1, 84, 89
2, 86940, Note_off_c, 1, 72, 64
2, 86944, Note_off_c, 1, 84, 64
2, 87044, Note_on_c, 1, 65, 67
2, 87044, Note_on_c, 1, 56, 64
2, 87048, Note_on_c, 1, 60, 60
2, 87052, Note_on_c, 1, 86, 89
2, 87056, Note_on_c, 1, 74, 89
2, 87060, Note_off_c, 1, 60, 64
2, 87064, Note_off_c, 1, 65, 64
2, 87064, Note_off_c, 1, 56, 64
2, 87072, Note_off_c, 1, 74, 64
2, 87076, Note_off_c, 1, 86, 64
2, 87172, Note_on_c, 1, 84, 86
2, 87180, Note_on_c, 1, 72, 89
2, 87192, Note_off_c, 1, 72, 64
2, 87196, Note_off_c, 1, 84, 64
2, 87260, Note_on_c, 1, 76, 69
2, 87284, Note_on_c, 1, 79, 89
2, 87292, Control_c, 1, 64, 0
2, 87308, Note_on_c, 1, 88, 91
2, 87308, Note_on_c, 1, 43, 96
2, 87312, Note_on_c, 1, 55, 100
2, 87332, Control_c, 1, 64, 127
2, 87356, Note_off_c, 1, 79, 64
2, 87356, Note_off_c, 1, 88, 64
2, 87364, Note_off_c, 1, 76, 64
2, 87364, Note_off_c, 1, 43, 64
2, 87376, Note_off_c, 1, 55, 64
2, 87448, Note_on_c, 1, 76, 88
2, 87456, Note_on_c, 1, 72, 77
2, 87456, Note_on_c, 1, 84, 89
2, 87464, Note_off_c, 1, 72, 64
2, 87468, Note_off_c, 1, 76, 64
2, 87468, Note_off_c, 1, 84, 64
2, 87576, Note_on_c, 1, 55, 80
2, 87576, Note_on_c, 1, 64, 75
2, 87580, Note_on_c, 1, 60, 69
2, 87580, Note_on_c, 1, 86, 92
2, 87580, Note_on_c, 1, 77, 96
2, 87584, Note_on_c, 1, 74, 86
2, 87588, Note_off_c, 1, 64, 64
2, 87588, Note_off_c, 1, 60, 64
2, 87596, Note_off_c, 1, 55, 64
2, 87596, Note_off_c, 1, 77, 64
2, 87596, Note_off_c, 1, 74, 64
2, 87604, Note_off_c, 1, 86, 64
2, 87704, Note_on_c, 1, 88, 101
2, 87708, Note_on_c, 1, 76, 104
2, 87708, Note_on_c, 1, 79, 106
2, 87716, Control_c, 1, 64, 0
2, 87832, Note_on_c, 1, 43, 75
2, 87832, Note_on_c, 1, 55, 96
2, 87840, Note_off_c, 1, 76, 64
2, 87840, Note_off_c, 1, 79, 64
2, 87844, Note_off_c, 1, 88, 64
2, 87844, Control_c, 1, 64, 127
2, 87856, Note_off_c, 1, 43, 64
2, 87856, Note_off_c, 1, 55, 64
2, 87960, Note_on_c, 1, 74, 105
2, 87964, Note_on_c, 1, 83, 96
2, 87964, Note_on_c, 1, 71, 86
2, 87976, Note_off_c, 1, 74, 64
2, 87976, Note_off_c, 1, 71, 64
2, 87984, Note_off_c, 1, 83, 64
2, 88096, Note_on_c, 1, 86, 105
2, 88096, Note_on_c, 1, 59, 89
2, 88096, Note_on_c, 1, 74, 105
2, 88096, Note_on_c, 1, 77, 105
2, 88096, Note_on_c, 1, 55, 89
2, 88156, Note_off_c, 1, 59, 64
2, 88168, Note_off_c, 1, 55, 64
2, 88176, Note_off_c, 1, 86, 64
2, 88176, Note_off_c, 1, 74, 64
2, 88176, Note_off_c, 1, 77, 64
2, 88324, Control_c, 1, 64, 0
2, 88348, Note_on_c, 1, 84, 105
2, 88348, Note_on_c, 1, 76, 110
2, 88348, Note_on_c, 1, 72, 96
2, 88348, Note_on_c, 1, 60, 86
2, 88348, Note_on_c, 1, 55, 105
2, 88352, Note_on_c, 1, 48, 86
2, 88368, Control_c, 1, 64, 127
2, 88412, Note_off_c, 1, 60, 64
2, 88420, Note_off_c, 1, 55, 64
2, 88428, Note_off_c, 1, 48, 64
2, 88508, Control_c, 1, 64, 0
2, 88612, Note_on_c, 1, 43, 105
2, 88612, Note_on_c, 1, 55, 100
2, 88612, Control_c, 1, 64, 127
2, 88640, Note_off_c, 1, 55, 64
2, 88648, Note_off_c, 1, 43, 64
2, 88720, Note_off_c, 1, 84, 64
2, 88724, Note_off_c, 1, 76, 64
2, 88732, Note_off_c, 1, 72, 64
2, 88816, Control_c, 1, 64, 0
2, 88880, Note_on_c, 1, 36, 100
2, 88884, Note_on_c, 1, 48, 105
2, 88884, Note_on_c, 1, 84, 105
2, 88884, Note_on_c, 1, 72, 110
2, 88884, Note_on_c, 1, 76, 122
2, 88892, Note_on_c, 1, 43, 60
2, 88892, Note_off_c, 1, 43, 64
2, 88892, Control_c, 1, 64, 127
2, 88928, Note_off_c, 1, 48, 64
2, 88932, Note_off_c, 1, 36, 64
2, 88944, Note_off_c, 1, 72, 0
2, 88944, Note_off_c, 1, 76, 0
2, 88952, Note_off_c, 1, 84, 0
2, 89144, Control_c, 1, 64, 0
2, 89412, Note_on_c, 1, 41, 73
2, 89412, Control_c, 1, 64, 127
2, 89416, Note_on_c, 1, 81, 80
2, 89416, Note_on_c, 1, 77, 61
2, 89428, Note_off_c, 1, 41, 64
2, 89540, Note_off_c, 1, 81, 64
2, 89544, Note_on_c, 1, 80, 69
2, 89544, Control_c, 1, 64, 0
2, 89668, Note_on_c, 1, 57, 64
2, 89668, Note_on_c, 1, 65, 64
2, 89676, Note_off_c, 1, 80, 64
2, 89676, Note_on_c, 1, 81, 80
2, 89684, Note_off_c, 1, 57, 64
2, 89688, Note_off_c, 1, 65, 64
2, 89924, Note_on_c, 1, 48, 63
2, 89936, Note_off_c, 1, 48, 64
2, 89936, Control_c, 1, 64, 127
2, 90032, Note_off_c, 1, 81, 0
2, 90040, Note_off_c, 1, 77, 0
2, 90168, Control_c, 1, 64, 0
2, 90180, Note_on_c, 1, 84, 69
2, 90184, Note_on_c, 1, 77, 61
2, 90188, Note_on_c, 1, 57, 62
2, 90188, Note_on_c, 1, 60, 51
2, 90188, Note_on_c, 1, 81, 64
2, 90196, Note_on_c, 1, 65, 33
2, 90204, Control_c, 1, 64, 127
2, 90212, Note_off_c, 1, 60, 64
2, 90216, Note_off_c, 1, 65, 64
2, 90228, Note_off_c, 1, 77, 64
2, 90232, Note_off_c, 1, 57, 64
2, 90232, Note_off_c, 1, 81, 64
2, 90240, Note_off_c, 1, 84, 64
2, 90392, Control_c, 1, 64, 0
2, 90448, Control_c, 1, 64, 127
2, 90452, Note_on_c, 1, 46, 61
2, 90452, Note_on_c, 1, 86, 69
2, 90456, Note_on_c, 1, 82, 61
2, 90456, Note_on_c, 1, 77, 60
2, 90472, Note_off_c, 1, 46, 64
2, 90492, Note_off_c, 1, 82, 64
2, 90496, Note_off_c, 1, 86, 64
2, 90496, Note_off_c, 1, 77, 64
2, 90712, Note_on_c, 1, 70, 65
2, 90712, Note_on_c, 1, 62, 29
2, 90712, Note_on_c, 1, 58, 28
2, 90836, Note_off_c, 1, 70, 64
2, 90840, Note_off_c, 1, 58, 64
2, 90844, Note_off_c, 1, 62, 64
2, 90844, Note_on_c, 1, 69, 65
2, 90972, Note_off_c, 1, 69, 0
2, 90972, Note_on_c, 1, 53, 30
2, 90976, Note_on_c, 1, 70, 65
2, 91092, Note_off_c, 1, 70, 64
2, 91100, Note_on_c, 1, 72, 65
2, 91228, Note_off_c, 1, 72, 64
2, 91228, Note_on_c, 1, 74, 77
2, 91228, Note_on_c, 1, 58, 30
2, 91232, Note_on_c, 1, 62, 28
2, 91248, Note_off_c, 1, 62, 64
2, 91252, Note_off_c, 1, 58, 64
2, 91260, Note_off_c, 1, 53, 64
2, 91268, Note_off_c, 1, 74, 64
2, 91360, Control_c, 1, 64, 0
2, 91488, Note_on_c, 1, 38, 83
2, 91488, Control_c, 1, 64, 127
2, 91500, Note_off_c, 1, 38, 64
2, 91500, Note_on_c, 1, 77, 80
2, 91500, Note_on_c, 1, 74, 67
2, 91620, Note_off_c, 1, 77, 64
2, 91624, Note_on_c, 1, 76, 69
2, 91748, Note_off_c, 1, 76, 64
2, 91748, Note_on_c, 1, 57, 57
2, 91748, Note_on_c, 1, 65, 55
2, 91752, Note_on_c, 1, 62, 53
2, 91752, Note_on_c, 1, 77, 75
2, 91764, Note_off_c, 1, 65, 64
2, 91768, Note_off_c, 1, 62, 64
2, 91776, Note_off_c, 1, 57, 64
2, 91820, Control_c, 1, 64, 0
2, 92008, Note_on_c, 1, 45, 69
2, 92012, Control_c, 1, 64, 127
2, 92020, Note_off_c, 1, 45, 64
2, 92096, Note_off_c, 1, 77, 0
2, 92104, Note_off_c, 1, 74, 0
2, 92264, Note_on_c, 1, 57, 63
2, 92264, Note_on_c, 1, 81, 80
2, 92272, Note_on_c, 1, 74, 65
2, 92272, Note_on_c, 1, 77, 63
2, 92272, Note_on_c, 1, 65, 28
2, 92280, Note_off_c, 1, 65, 64
2, 92292, Note_off_c, 1, 77, 64
2, 92296, Note_off_c, 1, 57, 64
2, 92300, Note_off_c, 1, 81, 64
2, 92300, Note_off_c, 1, 74, 64
2, 92468, Control_c, 1, 64, 0
2, 92520, Control_c, 1, 64, 127
2, 92524, Note_on_c, 1, 43, 60
2, 92528, Note_on_c, 1, 82, 69
2, 92528, Note_on_c, 1, 74, 67
2, 92536, Note_on_c, 1, 79, 64
2, 92544, Note_off_c, 1, 43, 64
2, 92548, Note_off_c, 1, 79, 64
2, 92552, Note_off_c, 1, 82, 64
2, 92556, Note_off_c, 1, 74, 64
2, 92796, Note_on_c, 1, 62, 36
2, 92800, Note_on_c, 1, 67, 64
2, 92804, Note_on_c, 1, 58, 21
2, 92924, Note_on_c, 1, 66, 69
2, 92932, Note_off_c, 1, 58, 0
2, 92936, Note_off_c, 1, 62, 0
2, 92936, Note_off_c, 1, 67, 0
2, 93044, Note_off_c, 1, 66, 64
2, 93048, Control_c, 1, 64, 0
2, 93052, Note_on_c, 1, 67, 61
2, 93060, Note_on_c, 1, 55, 27
2, 93080, Control_c, 1, 64, 127
2, 93176, Note_off_c, 1, 67, 64
2, 93176, Note_on_c, 1, 69, 65
2, 93296, Note_on_c, 1, 70, 55
2, 93304, Note_off_c, 1, 69, 64
2, 93308, Note_on_c, 1, 58, 28
2, 93312, Note_on_c, 1, 62, 29
2, 93316, Note_off_c, 1, 70, 64
2, 93336, Note_off_c, 1, 62, 64
2, 93340, Note_off_c, 1, 58, 64
2, 93348, Note_off_c, 1, 55, 64
2, 93424, Note_on_c, 1, 79, 63
2, 93540, Control_c, 1, 64, 0
2, 93560, Note_on_c, 1, 46, 54
2, 93560, Note_on_c, 1, 58, 43
2, 93560, Note_on_c, 1, 74, 75
2, 93564, Note_off_c, 1, 79, 64
2, 93576, Control_c, 1, 64, 127
2, 93620, Note_off_c, 1, 46, 64
2, 93632, Note_off_c, 1, 58, 64
2, 93812, Note_off_c, 1, 74, 64
2, 93824, Control_c, 1, 64, 0
2, 93828, Note_on_c, 1, 62, 54
2, 93836, Note_on_c, 1, 58, 29
2, 93840, Note_on_c, 1, 79, 64
2, 93844, Control_c, 1, 64, 127
2, 93876, Note_off_c, 1, 62, 0
2, 93876, Note_off_c, 1, 58, 64
2, 93968, Note_on_c, 1, 74, 73
2, 94064, Control_c, 1, 64, 0
2, 94092, Note_on_c, 1, 55, 71
2, 94092, Note_on_c, 1, 43, 67
2, 94096, Note_off_c, 1, 79, 64
2, 94112, Control_c, 1, 64, 127
2, 94144, Note_off_c, 1, 74, 64
2, 94216, Note_on_c, 1, 79, 75
2, 94236, Note_off_c, 1, 55, 64
2, 94240, Note_off_c, 1, 43, 64
2, 94348, Note_on_c, 1, 44, 58
2, 94348, Control_c, 1, 64, 0
2, 94352, Note_on_c, 1, 56, 50
2, 94352, Note_on_c, 1, 74, 75
2, 94356, Note_off_c, 1, 79, 64
2, 94408, Control_c, 1, 64, 127
2, 94440, Note_off_c, 1, 44, 64
2, 94452, Note_off_c, 1, 56, 64
2, 94584, Control_c, 1, 64, 0
2, 94592, Note_on_c, 1, 57, 42
2, 94592, Note_on_c, 1, 45, 58
2, 94600, Note_off_c, 1, 74, 64
2, 94600, Note_on_c, 1, 72, 59
2, 94644, Control_c, 1, 64, 127
2, 94652, Note_off_c, 1, 45, 64
2, 94668, Note_off_c, 1, 57, 64
2, 94760, Control_c, 1, 64, 0
2, 94884, Note_on_c, 1, 65, 46
2, 94888, Note_on_c, 1, 57, 37
2, 94912, Note_off_c, 1, 65, 64
2, 94928, Note_off_c, 1, 57, 64
2, 95136, Note_on_c, 1, 50, 50
2, 95148, Note_off_c, 1, 72, 0
2, 95148, Note_on_c, 1, 77, 67
2, 95156, Control_c, 1, 64, 127
2, 95180, Note_off_c, 1, 50, 64
2, 95392, Note_off_c, 1, 77, 64
2, 95392, Note_on_c, 1, 57, 50
2, 95400, Note_on_c, 1, 65, 30
2, 95404, Note_on_c, 1, 62, 24
2, 95428, Note_off_c, 1, 65, 64
2, 95428, Note_off_c, 1, 62, 64
2, 95440, Note_off_c, 1, 57, 64
2, 95616, Note_on_c, 1, 52, 53
2, 95636, Control_c, 1, 64, 0
2, 95648, Note_on_c, 1, 76, 71
2, 95776, Note_on_c, 1, 80, 67
2, 95800, Control_c, 1, 64, 127
2, 95892, Control_c, 1, 64, 0
2, 95904, Note_off_c, 1, 80, 0
2, 95904, Note_on_c, 1, 83, 71
2, 95904, Note_on_c, 1, 64, 49
2, 95904, Note_on_c, 1, 62, 44
2, 95904, Note_on_c, 1, 59, 30
2, 95928, Control_c, 1, 64, 127
2, 95932, Note_off_c, 1, 83, 64
2, 95940, Control_c, 1, 64, 0
2, 96036, Note_off_c, 1, 52, 0
2, 96036, Note_on_c, 1, 88, 75
2, 96052, Control_c, 1, 64, 127
2, 96136, Note_off_c, 1, 59, 64
2, 96144, Note_off_c, 1, 62, 64
2, 96148, Note_off_c, 1, 64, 64
2, 96156, Control_c, 1, 64, 0
2, 96172, Note_on_c, 1, 56, 34
2, 96288, Note_off_c, 1, 88, 64
2, 96288, Note_on_c, 1, 86, 69
2, 96420, Note_on_c, 1, 62, 29
2, 96420, Note_on_c, 1, 59, 29
2, 96424, Note_off_c, 1, 86, 64
2, 96424, Note_on_c, 1, 64, 33
2, 96432, Note_on_c, 1, 83, 69
2, 96456, Control_c, 1, 64, 127
2, 96488, Note_off_c, 1, 56, 64
2, 96500, Note_off_c, 1, 59, 64
2, 96516, Note_off_c, 1, 62, 64
2, 96524, Note_off_c, 1, 64, 64
2, 96556, Note_off_c, 1, 83, 64
2, 96556, Note_on_c, 1, 84, 67
2, 96580, Note_off_c, 1, 76, 0
2, 96692, Note_on_c, 1, 60, 31
2, 96696, Note_on_c, 1, 81, 71
2, 96696, Note_on_c, 1, 64, 30
2, 96696, Control_c, 1, 64, 0
2, 96700, Note_off_c, 1, 84, 64
2, 96700, Note_on_c, 1, 57, 23
2, 96732, Control_c, 1, 64, 127
2, 96820, Note_off_c, 1, 60, 0
2, 96828, Note_off_c, 1, 64, 0
2, 96832, Note_off_c, 1, 57, 0
2, 97024, Note_off_c, 1, 81, 0
2, 97176, Control_c, 1, 64, 0
2, 97192, Note_on_c, 1, 64, 33
2, 97196, Note_on_c, 1, 55, 40
2, 97196, Note_on_c, 1, 60, 32
2, 97196, Note_on_c, 1, 82, 60
2, 97204, Control_c, 1, 64, 127
2, 97228, Note_off_c, 1, 64, 64
2, 97228, Note_off_c, 1, 60, 64
2, 97244, Note_off_c, 1, 55, 64
2, 97468, Note_on_c, 1, 48, 25
2, 97476, Note_off_c, 1, 82, 64
2, 97496, Note_off_c, 1, 48, 64
2, 97700, Control_c, 1, 64, 0
2, 97720, Note_on_c, 1, 41, 36
2, 97728, Control_c, 1, 64, 127
2, 97748, Note_off_c, 1, 41, 0
2, 97752, Note_on_c, 1, 77, 58
2, 97752, Note_on_c, 1, 81, 49
2, 97864, Note_on_c, 1, 80, 67
2, 97868, Note_off_c, 1, 81, 64
2, 97984, Note_on_c, 1, 57, 37
2, 97984, Note_on_c, 1, 65, 49
2, 97988, Note_on_c, 1, 60, 29
2, 98008, Note_off_c, 1, 80, 64
2, 98008, Note_off_c, 1, 60, 64
2, 98012, Note_off_c, 1, 65, 64
2, 98016, Note_on_c, 1, 81, 73
2, 98024, Note_off_c, 1, 57, 64
2, 98212, Control_c, 1, 64, 0
2, 98240, Note_on_c, 1, 48, 60
2, 98248, Control_c, 1, 64, 127
2, 98272, Note_off_c, 1, 48, 64
2, 98332, Note_off_c, 1, 77, 64
2, 98332, Note_off_c, 1, 81, 64
2, 98500, Note_on_c, 1, 60, 38
2, 98504, Note_on_c, 1, 57, 55
2, 98504, Note_on_c, 1, 84, 77
2, 98504, Note_on_c, 1, 65, 39
2, 98508, Note_on_c, 1, 81, 69
2, 98508, Note_on_c, 1, 77, 65
2, 98528, Note_off_c, 1, 60, 64
2, 98528, Note_off_c, 1, 65, 64
2, 98544, Note_off_c, 1, 57, 64
2, 98560, Note_off_c, 1, 81, 64
2, 98564, Note_off_c, 1, 84, 64
2, 98564, Note_off_c, 1, 77, 64
2, 98748, Control_c, 1, 64, 0
2, 98772, Note_on_c, 1, 46, 64
2, 98776, Note_on_c, 1, 86, 67
2, 98776, Note_on_c, 1, 82, 60
2, 98776, Note_on_c, 1, 77, 58
2, 98784, Control_c, 1, 64, 127
2, 98820, Note_off_c, 1, 46, 64
2, 98836, Note_off_c, 1, 82, 64
2, 98840, Note_off_c, 1, 86, 64
2, 98844, Note_off_c, 1, 77, 64
2, 99040, Note_on_c, 1, 70, 62
2, 99044, Note_on_c, 1, 62, 30
2, 99048, Note_on_c, 1, 65, 37
2, 99052, Note_on_c, 1, 58, 33
2, 99164, Note_on_c, 1, 69, 69
2, 99180, Note_off_c, 1, 70, 64
2, 99280, Note_on_c, 1, 53, 26
2, 99292, Note_off_c, 1, 65, 64
2, 99292, Note_off_c, 1, 58, 64
2, 99292, Note_on_c, 1, 70, 61
2, 99296, Note_off_c, 1, 62, 64
2, 99300, Note_off_c, 1, 69, 64
2, 99300, Control_c, 1, 64, 0
2, 99424, Note_on_c, 1, 72, 48
2, 99432, Note_off_c, 1, 70, 64
2, 99548, Control_c, 1, 64, 127
2, 99552, Note_on_c, 1, 58, 29
2, 99552, Note_on_c, 1, 62, 29
2, 99552, Note_on_c, 1, 65, 29
2, 99556, Note_on_c, 1, 74, 58
2, 99560, Note_off_c, 1, 72, 64
2, 99588, Note_off_c, 1, 62, 64
2, 99588, Note_off_c, 1, 65, 64
2, 99588, Note_off_c, 1, 74, 64
2, 99604, Note_off_c, 1, 58, 64
2, 99608, Note_off_c, 1, 53, 64
2, 99784, Control_c, 1, 64, 0
2, 99792, Note_on_c, 1, 38, 58
2, 99808, Control_c, 1, 64, 127
2, 99816, Note_off_c, 1, 38, 64
2, 99816, Note_on_c, 1, 77, 59
2, 99820, Note_on_c, 1, 74, 58
2, 99940, Note_off_c, 1, 77, 64
2, 99940, Note_on_c, 1, 76, 60
2, 100068, Note_on_c, 1, 57, 55
2, 100068, Note_on_c, 1, 62, 31
2, 100072, Note_on_c, 1, 77, 67
2, 100072, Note_on_c, 1, 65, 31
2, 100084, Note_off_c, 1, 76, 64
2, 100088, Note_off_c, 1, 62, 64
2, 100088, Note_off_c, 1, 65, 64
2, 100096, Note_off_c, 1, 57, 64
2, 100304, Control_c, 1, 64, 0
2, 100320, Note_on_c, 1, 45, 60
2, 100332, Control_c, 1, 64, 127
2, 100356, Note_off_c, 1, 45, 64
2, 100440, Note_off_c, 1, 74, 64
2, 100444, Note_off_c, 1, 77, 64
2, 100576, Note_on_c, 1, 62, 30
2, 100580, Note_on_c, 1, 57, 30
2, 100584, Note_on_c, 1, 65, 30
2, 100584, Note_on_c, 1, 81, 62
2, 100584, Note_on_c, 1, 77, 58
2, 100588, Note_on_c, 1, 74, 56
2, 100608, Note_off_c, 1, 65, 64
2, 100616, Note_off_c, 1, 62, 64
2, 100632, Note_off_c, 1, 57, 64
2, 100640, Note_off_c, 1, 77, 64
2, 100644, Note_off_c, 1, 74, 64
2, 100656, Note_off_c, 1, 81, 64
2, 100840, Control_c, 1, 64, 0
2, 100856, Note_on_c, 1, 43, 60
2, 100860, Control_c, 1, 64, 127
2, 100864, Note_on_c, 1, 82, 46
2, 100868, Note_on_c, 1, 79, 55
2, 100868, Note_on_c, 1, 74, 55
2, 100880, Note_off_c, 1, 43, 64
2, 100884, Note_off_c, 1, 79, 64
2, 100896, Note_off_c, 1, 74, 64
2, 100900, Note_off_c, 1, 82, 64
2, 101120, Note_on_c, 1, 67, 60
2, 101120, Note_on_c, 1, 62, 42
2, 101124, Note_on_c, 1, 58, 26
2, 101240, Note_on_c, 1, 66, 62
2, 101244, Note_off_c, 1, 67, 64
2, 101328, Note_off_c, 1, 58, 64
2, 101340, Note_off_c, 1, 62, 64
2, 101364, Note_off_c, 1, 66, 64
2, 101364, Note_on_c, 1, 50, 48
2, 101364, Note_on_c, 1, 67, 58
2, 101372, Control_c, 1, 64, 0
2, 101400, Control_c, 1, 64, 127
2, 101444, Control_c, 1, 64, 0
2, 101480, Note_on_c, 1, 69, 64
2, 101488, Note_off_c, 1, 67, 64
2, 101608, Note_on_c, 1, 58, 41
2, 101612, Note_on_c, 1, 70, 64
2, 101612, Note_on_c, 1, 62, 41
2, 101616, Note_off_c, 1, 69, 64
2, 101624, Note_off_c, 1, 50, 64
2, 101628, Note_off_c, 1, 58, 64
2, 101632, Note_off_c, 1, 70, 64
2, 101632, Note_off_c, 1, 62, 64
2, 101732, Note_on_c, 1, 79, 63
2, 101872, Note_off_c, 1, 79, 64
2, 101872, Note_on_c, 1, 74, 73
2, 101880, Note_on_c, 1, 46, 60
2, 101880, Note_on_c, 1, 58, 27
2, 101884, Control_c, 1, 64, 127
2, 101908, Note_off_c, 1, 46, 64
2, 101912, Note_off_c, 1, 58, 64
2, 102108, Note_on_c, 1, 58, 28
2, 102108, Note_on_c, 1, 62, 52
2, 102108, Control_c, 1, 64, 0
2, 102112, Note_on_c, 1, 79, 64
2, 102124, Note_off_c, 1, 74, 0
2, 102124, Control_c, 1, 64, 127
2, 102152, Note_off_c, 1, 58, 64
2, 102152, Note_off_c, 1, 62, 64
2, 102248, Note_on_c, 1, 74, 69
2, 102256, Note_off_c, 1, 79, 64
2, 102372, Note_on_c, 1, 43, 51
2, 102376, Note_on_c, 1, 55, 54
2, 102384, Control_c, 1, 64, 0
2, 102400, Note_off_c, 1, 43, 64
2, 102400, Note_off_c, 1, 55, 64
2, 102504, Note_on_c, 1, 79, 60
2, 102520, Note_off_c, 1, 74, 64
2, 102640, Note_on_c, 1, 44, 46
2, 102640, Note_on_c, 1, 56, 43
2, 102644, Note_on_c, 1, 74, 63
2, 102648, Note_off_c, 1, 79, 64
2, 102652, Control_c, 1, 64, 127
2, 102688, Note_off_c, 1, 44, 64
2, 102688, Note_off_c, 1, 56, 64
2, 102876, Control_c, 1, 64, 0
2, 102884, Note_on_c, 1, 45, 57
2, 102888, Note_on_c, 1, 57, 41
2, 102892, Note_on_c, 1, 72, 58
2, 102896, Control_c, 1, 64, 127
2, 102900, Note_off_c, 1, 74, 64
2, 102912, Note_off_c, 1, 45, 64
2, 102912, Note_off_c, 1, 57, 64
2, 103020, Note_on_c, 1, 41, 71
2, 103024, Note_on_c, 1, 53, 67
2, 103024, Control_c, 1, 64, 0
2, 103040, Control_c, 1, 64, 127
2, 103072, Note_off_c, 1, 53, 64
2, 103084, Note_off_c, 1, 41, 0
2, 103144, Note_on_c, 1, 40, 77
2, 103144, Note_on_c, 1, 52, 69
2, 103148, Control_c, 1, 64, 0
2, 103164, Note_off_c, 1, 72, 0
2, 103176, Control_c, 1, 64, 127
2, 103216, Note_off_c, 1, 52, 64
2, 103220, Note_off_c, 1, 40, 64
2, 103268, Note_on_c, 1, 38, 77
2, 103272, Note_on_c, 1, 50, 77
2, 103272, Control_c, 1, 64, 0
2, 103292, Control_c, 1, 64, 127
2, 103308, Note_off_c, 1, 50, 64
2, 103316, Note_off_c, 1, 38, 64
2, 103440, Note_on_c, 1, 77, 83
2, 103440, Note_on_c, 1, 49, 59
2, 103440, Note_on_c, 1, 37, 60
2, 103440, Note_on_c, 1, 71, 77
2, 103448, Note_on_c, 1, 68, 60
2, 103448, Control_c, 1, 64, 0
2, 103476, Control_c, 1, 64, 127
2, 103588, Note_off_c, 1, 77, 64
2, 103688, Note_off_c, 1, 49, 64
2, 103688, Note_off_c, 1, 37, 64
2, 103796, Note_off_c, 1, 71, 64
2, 103796, Note_on_c, 1, 77, 69
2, 103808, Note_off_c, 1, 68, 64
2, 103808, Note_off_c, 1, 77, 64
2, 103912, Control_c, 1, 64, 0
2, 103932, Note_on_c, 1, 36, 54
2, 103932, Note_on_c, 1, 81, 62
2, 103936, Note_on_c, 1, 72, 60
2, 103936, Note_on_c, 1, 69, 58
2, 103936, Note_on_c, 1, 48, 30
2, 103940, Control_c, 1, 64, 127
2, 103952, Note_off_c, 1, 36, 64
2, 103952, Note_off_c, 1, 69, 64
2, 103956, Note_off_c, 1, 72, 64
2, 103960, Note_off_c, 1, 81, 64
2, 103960, Note_off_c, 1, 48, 64
2, 104072, Note_on_c, 1, 84, 64
2, 104072, Note_on_c, 1, 72, 56
2, 104176, Note_off_c, 1, 84, 64
2, 104184, Note_off_c, 1, 72, 64
2, 104200, Note_on_c, 1, 65, 56
2, 104204, Note_on_c, 1, 57, 56
2, 104204, Note_on_c, 1, 60, 31
2, 104216, Note_off_c, 1, 65, 64
2, 104220, Note_off_c, 1, 60, 64
2, 104224, Note_off_c, 1, 57, 64
2, 104328, Note_on_c, 1, 79, 73
2, 104336, Note_on_c, 1, 70, 56
2, 104420, Control_c, 1, 64, 0
2, 104456, Note_on_c, 1, 36, 62
2, 104456, Note_on_c, 1, 48, 55
2, 104468, Control_c, 1, 64, 127
2, 104484, Note_off_c, 1, 36, 64
2, 104492, Note_off_c, 1, 48, 64
2, 104588, Note_on_c, 1, 72, 73
2, 104604, Note_off_c, 1, 79, 64
2, 104620, Note_off_c, 1, 70, 64
2, 104620, Note_off_c, 1, 72, 64
2, 104720, Note_on_c, 1, 60, 39
2, 104728, Note_on_c, 1, 74, 77
2, 104728, Note_on_c, 1, 70, 55
2, 104728, Note_on_c, 1, 48, 45
2, 104728, Control_c, 1, 64, 0
2, 104828, Note_off_c, 1, 60, 64
2, 104836, Control_c, 1, 64, 127
2, 104848, Note_off_c, 1, 74, 64
2, 104848, Note_on_c, 1, 76, 73
2, 104852, Note_off_c, 1, 48, 64
2, 104932, Note_off_c, 1, 70, 64
2, 104976, Note_off_c, 1, 76, 64
2, 104988, Note_on_c, 1, 41, 45
2, 104992, Note_on_c, 1, 77, 63
2, 104992, Note_on_c, 1, 53, 53
2, 104992, Note_on_c, 1, 69, 47
2, 104996, Control_c, 1, 64, 0
2, 105028, Note_off_c, 1, 41, 64
2, 105028, Note_off_c, 1, 53, 64
2, 105108, Note_off_c, 1, 69, 0
2, 105120, Note_off_c, 1, 77, 0
2, 105240, Note_on_c, 1, 71, 55
2, 105336, Note_off_c, 1, 71, 64
2, 105368, Note_on_c, 1, 72, 61
2, 105420, Note_off_c, 1, 72, 64
2, 105504, Note_on_c, 1, 74, 65
2, 105568, Note_off_c, 1, 74, 64
2, 105636, Note_on_c, 1, 76, 70
2, 105700, Note_off_c, 1, 76, 64
2, 105768, Note_on_c, 1, 77, 69
2, 105824, Note_off_c, 1, 77, 64
2, 105896, Note_on_c, 1, 79, 68
2, 105940, Note_off_c, 1, 79, 64
2, 106076, Note_on_c, 1, 41, 28
2, 106088, Note_on_c, 1, 81, 65
2, 106092, Note_on_c, 1, 77, 55
2, 106108, Note_off_c, 1, 41, 64
2, 106220, Note_on_c, 1, 80, 67
2, 106228, Note_off_c, 1, 81, 64
2, 106336, Note_on_c, 1, 65, 47
2, 106340, Note_on_c, 1, 57, 40
2, 106344, Note_on_c, 1, 60, 23
2, 106352, Note_on_c, 1, 81, 65
2, 106364, Note_off_c, 1, 80, 64
2, 106364, Note_off_c, 1, 65, 64
2, 106364, Note_off_c, 1, 57, 64
2, 106364, Note_off_c, 1, 60, 64
2, 106612, Note_on_c, 1, 48, 31
2, 106640, Note_off_c, 1, 48, 64
2, 106728, Control_c, 1, 64, 127
2, 106752, Note_off_c, 1, 77, 64
2, 106752, Note_off_c, 1, 81, 64
2, 106796, Control_c, 1, 64, 0
2, 106868, Note_on_c, 1, 84, 64
2, 106868, Note_on_c, 1, 65, 31
2, 106868, Note_on_c, 1, 77, 60
2, 106868, Note_on_c, 1, 81, 69
2, 106868, Note_on_c, 1, 60, 27
2, 106880, Note_on_c, 1, 57, 23
2, 106880, Control_c, 1, 64, 127
2, 106892, Note_off_c, 1, 65, 0
2, 106892, Note_off_c, 1, 60, 0
2, 106896, Note_off_c, 1, 57, 0
2, 106920, Note_off_c, 1, 77, 0
2, 106924, Note_off_c, 1, 81, 0
2, 106928, Note_off_c, 1, 84, 0
2, 107096, Control_c, 1, 64, 0
2, 107120, Control_c, 1, 64, 127
2, 107128, Note_on_c, 1, 46, 47
2, 107132, Note_on_c, 1, 86, 62
2, 107136, Note_on_c, 1, 82, 61
2, 107140, Note_on_c, 1, 77, 57
2, 107148, Note_off_c, 1, 46, 64
2, 107156, Note_off_c, 1, 82, 64
2, 107160, Note_off_c, 1, 77, 64
2, 107172, Note_off_c, 1, 86, 64
2, 107396, Note_on_c, 1, 65, 32
2, 107396, Note_on_c, 1, 70, 64
2, 107400, Note_on_c, 1, 62, 25
2, 107400, Note_on_c, 1, 58, 22
2, 107436, Note_off_c, 1, 62, 64
2, 107436, Note_off_c, 1, 58, 64
2, 107444, Note_off_c, 1, 65, 64
2, 107452, Note_off_c, 1, 70, 64
2, 107520, Note_on_c, 1, 69, 62
2, 107580, Note_off_c, 1, 69, 64
2, 107640, Note_on_c, 1, 53, 23
2, 107644, Note_on_c, 1, 70, 60
2, 107716, Control_c, 1, 64, 0
2, 107764, Note_off_c, 1, 70, 64
2, 107776, Note_on_c, 1, 72, 53
2, 107900, Note_on_c, 1, 65, 30
2, 107904, Note_on_c, 1, 58, 24
2, 107904, Note_on_c, 1, 62, 26
2, 107908, Note_on_c, 1, 74, 60
2, 107916, Note_off_c, 1, 72, 0
2, 107920, Control_c, 1, 64, 127
2, 107944, Note_off_c, 1, 62, 64
2, 107944, Note_off_c, 1, 74, 64
2, 107948, Note_off_c, 1, 65, 64
2, 107960, Note_off_c, 1, 53, 0
2, 107964, Note_off_c, 1, 58, 64
2, 108124, Control_c, 1, 64, 0
2, 108168, Note_on_c, 1, 38, 49
2, 108172, Note_on_c, 1, 77, 67
2, 108176, Note_on_c, 1, 74, 61
2, 108180, Control_c, 1, 64, 127
2, 108192, Note_off_c, 1, 38, 64
2, 108300, Note_off_c, 1, 77, 64
2, 108300, Control_c, 1, 64, 0
2, 108304, Note_on_c, 1, 76, 60
2, 108432, Note_on_c, 1, 65, 45
2, 108432, Note_on_c, 1, 62, 34
2, 108432, Note_on_c, 1, 57, 53
2, 108432, Note_on_c, 1, 77, 65
2, 108440, Note_off_c, 1, 76, 64
2, 108448, Note_off_c, 1, 65, 64
2, 108448, Note_off_c, 1, 62, 64
2, 108448, Note_off_c, 1, 57, 64
2, 108684, Note_on_c, 1, 45, 58
2, 108688, Control_c, 1, 64, 127
2, 108708, Note_off_c, 1, 45, 64
2, 108764, Note_off_c, 1, 74, 64
2, 108768, Note_off_c, 1, 77, 64
2, 108936, Control_c, 1, 64, 0
2, 108944, Note_on_c, 1, 81, 71
2, 108948, Note_on_c, 1, 62, 40
2, 108948, Note_on_c, 1, 57, 35
2, 108948, Note_on_c, 1, 77, 65
2, 108948, Note_on_c, 1, 74, 60
2, 108948, Note_on_c, 1, 65, 32
2, 108960, Control_c, 1, 64, 127
2, 108972, Note_off_c, 1, 65, 64
2, 108976, Note_off_c, 1, 62, 64
2, 108976, Note_off_c, 1, 77, 64
2, 108980, Note_off_c, 1, 74, 64
2, 108984, Note_off_c, 1, 57, 64
2, 108996, Note_off_c, 1, 81, 64
2, 109184, Control_c, 1, 64, 0
2, 109208, Note_on_c, 1, 43, 56
2, 109212, Note_on_c, 1, 82, 63
2, 109216, Note_on_c, 1, 79, 65
2, 109216, Note_on_c, 1, 74, 59
2, 109220, Control_c, 1, 64, 127
2, 109232, Note_off_c, 1, 74, 64
2, 109236, Note_off_c, 1, 43, 64
2, 109240, Note_off_c, 1, 82, 64
2, 109240, Note_off_c, 1, 79, 64
2, 109468, Note_on_c, 1, 62, 30
2, 109468, Note_on_c, 1, 58, 25
2, 109476, Note_on_c, 1, 67, 60
2, 109588, Note_on_c, 1, 66, 64
2, 109592, Note_off_c, 1, 67, 64
2, 109704, Note_on_c, 1, 50, 30
2, 109708, Control_c, 1, 64, 0
2, 109716, Note_off_c, 1, 62, 64
2, 109716, Note_off_c, 1, 58, 64
2, 109716, Note_off_c, 1, 66, 64
2, 109720, Note_on_c, 1, 67, 63
2, 109844, Note_on_c, 1, 69, 57
2, 109852, Note_off_c, 1, 67, 0
2, 109980, Note_on_c, 1, 70, 59
2, 109984, Note_on_c, 1, 58, 29
2, 109984, Note_on_c, 1, 62, 29
2, 109996, Note_off_c, 1, 69, 64
2, 110000, Control_c, 1, 64, 127
2, 110012, Note_off_c, 1, 70, 64
2, 110076, Note_off_c, 1, 62, 64
2, 110088, Note_off_c, 1, 50, 0
2, 110092, Note_off_c, 1, 58, 64
2, 110116, Note_on_c, 1, 79, 71
2, 110116, Control_c, 1, 64, 0
2, 110256, Note_off_c, 1, 79, 64
2, 110260, Note_on_c, 1, 58, 51
2, 110260, Note_on_c, 1, 46, 52
2, 110260, Note_on_c, 1, 74, 81
2, 110276, Control_c, 1, 64, 127
2, 110288, Note_off_c, 1, 46, 64
2, 110292, Note_off_c, 1, 58, 64
2, 110424, Control_c, 1, 64, 0
2, 110504, Control_c, 1, 64, 127
2, 110508, Note_on_c, 1, 79, 67
2, 110512, Note_on_c, 1, 58, 28
2, 110512, Note_on_c, 1, 62, 27
2, 110524, Note_off_c, 1, 74, 64
2, 110532, Note_off_c, 1, 62, 64
2, 110536, Note_off_c, 1, 58, 64
2, 110560, Control_c, 1, 64, 0
2, 110632, Note_on_c, 1, 74, 80
2, 110704, Note_off_c, 1, 79, 64
2, 110768, Note_on_c, 1, 43, 60
2, 110768, Note_on_c, 1, 55, 61
2, 110788, Note_off_c, 1, 43, 64
2, 110796, Note_off_c, 1, 55, 64
2, 110900, Note_on_c, 1, 79, 67
2, 110912, Note_off_c, 1, 74, 0
2, 111028, Note_on_c, 1, 44, 33
2, 111028, Note_on_c, 1, 56, 48
2, 111036, Note_on_c, 1, 74, 73
2, 111044, Note_off_c, 1, 79, 64
2, 111044, Control_c, 1, 64, 127
2, 111068, Note_off_c, 1, 44, 64
2, 111068, Note_off_c, 1, 56, 64
2, 111256, Control_c, 1, 64, 0
2, 111276, Note_on_c, 1, 57, 43
2, 111276, Note_on_c, 1, 45, 35
2, 111304, Note_on_c, 1, 72, 63
2, 111312, Note_off_c, 1, 74, 64
2, 111312, Control_c, 1, 64, 127
2, 111340, Note_off_c, 1, 45, 64
2, 111352, Note_off_c, 1, 57, 64
2, 111560, Note_on_c, 1, 65, 29
2, 111560, Note_on_c, 1, 57, 25
2, 111572, Note_on_c, 1, 60, 23
2, 111576, Note_off_c, 1, 72, 64
2, 111588, Note_off_c, 1, 60, 64
2, 111592, Note_off_c, 1, 65, 64
2, 111604, Note_off_c, 1, 57, 64
2, 111788, Note_on_c, 1, 50, 30
2, 111788, Control_c, 1, 64, 0
2, 111820, Note_on_c, 1, 77, 80
2, 111820, Control_c, 1, 64, 127
2, 111840, Note_off_c, 1, 50, 64
2, 111984, Note_off_c, 1, 77, 64
2, 112084, Note_on_c, 1, 57, 30
2, 112084, Note_on_c, 1, 65, 44
2, 112092, Note_on_c, 1, 62, 24
2, 112128, Note_off_c, 1, 65, 64
2, 112128, Note_off_c, 1, 62, 64
2, 112144, Note_off_c, 1, 57, 64
2, 112316, Note_on_c, 1, 52, 57
2, 112328, Control_c, 1, 64, 0
2, 112332, Note_on_c, 1, 76, 64
2, 112392, Note_on_c, 1, 78, 54
2, 112396, Note_off_c, 1, 76, 64
2, 112428, Note_on_c, 1, 80, 66
2, 112432, Note_off_c, 1, 78, 64
2, 112444, Control_c, 1, 64, 127
2, 112464, Note_off_c, 1, 80, 64
2, 112468, Note_on_c, 1, 81, 63
2, 112504, Note_on_c, 1, 83, 69
2, 112512, Note_off_c, 1, 81, 64
2, 112532, Note_on_c, 1, 84, 55
2, 112540, Note_off_c, 1, 83, 64
2, 112556, Note_on_c, 1, 86, 59
2, 112568, Note_off_c, 1, 84, 64
2, 112592, Note_on_c, 1, 62, 58
2, 112592, Note_on_c, 1, 64, 56
2, 112592, Note_on_c, 1, 59, 46
2, 112592, Note_on_c, 1, 88, 71
2, 112592, Control_c, 1, 64, 0
2, 112600, Note_off_c, 1, 86, 64
2, 112640, Control_c, 1, 64, 127
2, 112684, Note_off_c, 1, 64, 64
2, 112688, Note_off_c, 1, 52, 64
2, 112688, Note_off_c, 1, 59, 64
2, 112696, Note_off_c, 1, 62, 64
2, 112848, Note_on_c, 1, 56, 62
2, 112856, Control_c, 1, 64, 0
2, 112984, Note_on_c, 1, 86, 73
2, 113004, Note_off_c, 1, 88, 0
2, 113112, Note_on_c, 1, 62, 56
2, 113116, Note_on_c, 1, 64, 55
2, 113116, Note_on_c, 1, 83, 80
2, 113120, Note_on_c, 1, 59, 49
2, 113128, Note_off_c, 1, 86, 64
2, 113156, Control_c, 1, 64, 127
2, 113188, Note_off_c, 1, 56, 64
2, 113192, Note_off_c, 1, 62, 64
2, 113196, Note_off_c, 1, 64, 64
2, 113208, Note_off_c, 1, 59, 64
2, 113244, Note_on_c, 1, 84, 75
2, 113252, Note_off_c, 1, 83, 64
2, 113384, Note_on_c, 1, 81, 80
2, 113392, Note_off_c, 1, 84, 64
2, 113392, Note_on_c, 1, 60, 41
2, 113392, Note_on_c, 1, 64, 55
2, 113392, Note_on_c, 1, 57, 41
2, 113396, Control_c, 1, 64, 0
2, 113500, Control_c, 1, 64, 127
2, 113576, Note_off_c, 1, 60, 64
2, 113580, Note_off_c, 1, 64, 64
2, 113604, Note_off_c, 1, 57, 64
2, 113768, Note_off_c, 1, 81, 0
2, 113868, Control_c, 1, 64, 0
2, 113884, Note_on_c, 1, 64, 54
2, 113888, Note_on_c, 1, 60, 55
2, 113888, Note_on_c, 1, 82, 86
2, 113896, Note_on_c, 1, 55, 43
2, 113896, Control_c, 1, 64, 127
2, 113912, Note_off_c, 1, 64, 64
2, 113912, Note_off_c, 1, 60, 64
2, 113912, Note_off_c, 1, 55, 64
2, 114000, Note_off_c, 1, 82, 64
2, 114000, Note_on_c, 1, 84, 32
2, 114040, Note_off_c, 1, 84, 64
2, 114040, Note_on_c, 1, 82, 55
2, 114088, Note_off_c, 1, 82, 64
2, 114096, Note_on_c, 1, 84, 51
2, 114140, Control_c, 1, 64, 0
2, 114148, Note_off_c, 1, 84, 64
2, 114148, Note_on_c, 1, 82, 54
2, 114156, Note_on_c, 1, 48, 31
2, 114172, Control_c, 1, 64, 127
2, 114224, Note_off_c, 1, 82, 64
2, 114244, Note_off_c, 1, 48, 64
2, 114392, Note_on_c, 1, 41, 47
2, 114400, Control_c, 1, 64, 0
2, 114432, Note_on_c, 1, 81, 67
2, 114440, Note_on_c, 1, 77, 57
2, 114452, Note_off_c, 1, 41, 64
2, 114552, Note_off_c, 1, 81, 64
2, 114552, Note_on_c, 1, 80, 62
2, 114676, Note_on_c, 1, 65, 47
2, 114676, Note_on_c, 1, 57, 56
2, 114676, Note_on_c, 1, 60, 29
2, 114688, Note_off_c, 1, 80, 64
2, 114688, Note_on_c, 1, 81, 65
2, 114700, Note_off_c, 1, 65, 64
2, 114700, Note_off_c, 1, 60, 64
2, 114704, Note_off_c, 1, 57, 64
2, 114932, Note_on_c, 1, 48, 58
2, 114952, Note_off_c, 1, 48, 64
2, 115020, Control_c, 1, 64, 127
2, 115044, Note_off_c, 1, 81, 0
2, 115056, Note_off_c, 1, 77, 0
2, 115180, Control_c, 1, 64, 0
2, 115196, Note_on_c, 1, 57, 47
2, 115196, Note_on_c, 1, 65, 31
2, 115200, Note_on_c, 1, 84, 71
2, 115200, Note_on_c, 1, 60, 28
2, 115200, Note_on_c, 1, 77, 69
2, 115204, Note_on_c, 1, 81, 65
2, 115212, Control_c, 1, 64, 127
2, 115220, Note_off_c, 1, 60, 64
2, 115224, Note_off_c, 1, 65, 64
2, 115228, Note_off_c, 1, 57, 64
2, 115272, Note_off_c, 1, 84, 64
2, 115272, Note_off_c, 1, 81, 64
2, 115276, Note_off_c, 1, 77, 64
2, 115396, Control_c, 1, 64, 0
2, 115444, Control_c, 1, 64, 127
2, 115464, Note_on_c, 1, 46, 63
2, 115472, Note_on_c, 1, 86, 69
2, 115472, Note_on_c, 1, 82, 55
2, 115480, Note_off_c, 1, 46, 64
2, 115480, Note_on_c, 1, 77, 58
2, 115488, Note_off_c, 1, 86, 64
2, 115488, Note_off_c, 1, 82, 64
2, 115492, Note_off_c, 1, 77, 64
2, 115724, Note_on_c, 1, 58, 45
2, 115728, Note_on_c, 1, 65, 47
2, 115732, Note_on_c, 1, 62, 33
2, 115732, Note_on_c, 1, 70, 63
2, 115764, Note_off_c, 1, 58, 64
2, 115768, Note_off_c, 1, 62, 64
2, 115776, Note_off_c, 1, 65, 64
2, 115776, Note_off_c, 1, 70, 64
2, 115856, Note_on_c, 1, 69, 67
2, 115892, Note_off_c, 1, 69, 64
2, 115972, Note_on_c, 1, 53, 31
2, 115972, Control_c, 1, 64, 0
2, 115988, Note_on_c, 1, 70, 65
2, 116008, Control_c, 1, 64, 127
2, 116064, Note_off_c, 1, 70, 64
2, 116108, Note_on_c, 1, 72, 67
2, 116224, Note_off_c, 1, 72, 64
2, 116224, Control_c, 1, 64, 0
2, 116240, Note_on_c, 1, 62, 58
2, 116244, Note_on_c, 1, 65, 50
2, 116248, Note_on_c, 1, 58, 45
2, 116252, Note_on_c, 1, 74, 69
2, 116252, Control_c, 1, 64, 127
2, 116292, Note_off_c, 1, 62, 64
2, 116296, Note_off_c, 1, 65, 64
2, 116316, Note_off_c, 1, 58, 64
2, 116320, Note_off_c, 1, 53, 64
2, 116376, Note_on_c, 1, 76, 69
2, 116380, Note_off_c, 1, 74, 64
2, 116484, Note_off_c, 1, 76, 64
2, 116488, Control_c, 1, 64, 0
2, 116504, Note_on_c, 1, 38, 83
2, 116516, Note_on_c, 1, 77, 69
2, 116520, Note_on_c, 1, 74, 64
2, 116520, Control_c, 1, 64, 127
2, 116528, Note_off_c, 1, 38, 64
2, 116632, Note_off_c, 1, 77, 64
2, 116640, Note_on_c, 1, 76, 64
2, 116768, Note_off_c, 1, 76, 0
2, 116768, Note_on_c, 1, 77, 83
2, 116772, Note_on_c, 1, 62, 52
2, 116772, Note_on_c, 1, 57, 29
2, 116780, Note_on_c, 1, 65, 30
2, 116784, Note_off_c, 1, 62, 64
2, 116784, Note_off_c, 1, 65, 64
2, 116796, Note_off_c, 1, 57, 64
2, 117004, Control_c, 1, 64, 0
2, 117020, Note_on_c, 1, 45, 73
2, 117036, Control_c, 1, 64, 127
2, 117040, Note_off_c, 1, 45, 64
2, 117124, Note_off_c, 1, 74, 0
2, 117124, Note_off_c, 1, 77, 64
2, 117280, Note_on_c, 1, 62, 52
2, 117280, Note_on_c, 1, 57, 45
2, 117280, Note_on_c, 1, 77, 77
2, 117284, Note_on_c, 1, 81, 86
2, 117284, Note_on_c, 1, 65, 56
2, 117284, Note_on_c, 1, 74, 69
2, 117312, Note_off_c, 1, 65, 64
2, 117316, Note_off_c, 1, 62, 64
2, 117320, Note_off_c, 1, 77, 64
2, 117328, Note_off_c, 1, 57, 64
2, 117328, Note_off_c, 1, 74, 64
2, 117336, Note_off_c, 1, 81, 64
2, 117520, Control_c, 1, 64, 0
2, 117540, Note_on_c, 1, 43, 63
2, 117552, Note_on_c, 1, 82, 65
2, 117552, Note_on_c, 1, 79, 75
2, 117552, Note_on_c, 1, 74, 69
2, 117556, Control_c, 1, 64, 127
2, 117572, Note_off_c, 1, 43, 64
2, 117588, Note_off_c, 1, 79, 64
2, 117600, Note_off_c, 1, 74, 64
2, 117604, Note_off_c, 1, 82, 64
2, 117816, Note_on_c, 1, 62, 44
2, 117816, Note_on_c, 1, 58, 30
2, 117816, Note_on_c, 1, 67, 62
2, 117924, Note_on_c, 1, 66, 63
2, 117932, Note_off_c, 1, 67, 64
2, 118064, Note_off_c, 1, 62, 64
2, 118064, Note_off_c, 1, 58, 64
2, 118064, Note_off_c, 1, 66, 64
2, 118064, Note_on_c, 1, 67, 60
2, 118068, Note_on_c, 1, 50, 35
2, 118068, Control_c, 1, 64, 0
2, 118084, Control_c, 1, 64, 127
2, 118176, Control_c, 1, 64, 0
2, 118188, Note_off_c, 1, 67, 64
2, 118192, Note_on_c, 1, 69, 57
2, 118320, Note_on_c, 1, 58, 45
2, 118320, Note_on_c, 1, 62, 47
2, 118320, Note_on_c, 1, 70, 57
2, 118332, Note_off_c, 1, 69, 64
2, 118332, Control_c, 1, 64, 127
2, 118340, Note_off_c, 1, 50, 64
2, 118340, Note_off_c, 1, 58, 64
2, 118344, Note_off_c, 1, 62, 64
2, 118348, Note_off_c, 1, 70, 64
2, 118444, Note_on_c, 1, 79, 80
2, 118452, Control_c, 1, 64, 0
2, 118584, Note_off_c, 1, 79, 64
2, 118584, Note_on_c, 1, 74, 67
2, 118584, Note_on_c, 1, 58, 45
2, 118584, Note_on_c, 1, 46, 54
2, 118680, Control_c, 1, 64, 127
2, 118708, Note_off_c, 1, 46, 0
2, 118716, Note_off_c, 1, 58, 0
2, 118840, Note_off_c, 1, 74, 0
2, 118844, Note_on_c, 1, 62, 35
2, 118844, Note_on_c, 1, 79, 71
2, 118844, Note_on_c, 1, 58, 39
2, 118876, Note_off_c, 1, 62, 64
2, 118876, Note_off_c, 1, 58, 64
2, 118972, Note_on_c, 1, 74, 80
2, 118972, Control_c, 1, 64, 0
2, 118984, Note_off_c, 1, 79, 64
2, 119108, Note_on_c, 1, 43, 52
2, 119108, Control_c, 1, 64, 127
2, 119112, Note_on_c, 1, 55, 60
2, 119140, Note_off_c, 1, 43, 64
2, 119140, Note_off_c, 1, 55, 64
2, 119232, Note_on_c, 1, 79, 73
2, 119256, Note_off_c, 1, 74, 64
2, 119356, Note_on_c, 1, 56, 48
2, 119356, Note_on_c, 1, 44, 43
2, 119372, Note_on_c, 1, 74, 80
2, 119372, Control_c, 1, 64, 0
2, 119384, Note_off_c, 1, 79, 64
2, 119416, Control_c, 1, 64, 127
2, 119476, Note_off_c, 1, 56, 64
2, 119476, Note_off_c, 1, 44, 64
2, 119600, Control_c, 1, 64, 0
2, 119616, Note_on_c, 1, 45, 55
2, 119616, Note_on_c, 1, 57, 50
2, 119620, Note_on_c, 1, 72, 69
2, 119624, Control_c, 1, 64, 127
2, 119628, Note_off_c, 1, 74, 64
2, 119652, Note_off_c, 1, 57, 0
2, 119664, Note_off_c, 1, 45, 0
2, 119736, Control_c, 1, 64, 0
2, 119744, Note_on_c, 1, 41, 60
2, 119748, Note_on_c, 1, 53, 59
2, 119756, Control_c, 1, 64, 127
2, 119788, Note_off_c, 1, 41, 64
2, 119792, Note_off_c, 1, 53, 64
2, 119876, Note_on_c, 1, 40, 67
2, 119876, Note_on_c, 1, 52, 65
2, 119936, Note_off_c, 1, 40, 64
2, 119936, Note_off_c, 1, 52, 64
2, 119984, Note_off_c, 1, 72, 0
2, 120000, Note_on_c, 1, 50, 77
2, 120000, Note_on_c, 1, 38, 80
2, 120044, Note_off_c, 1, 50, 64
2, 120060, Note_off_c, 1, 38, 64
2, 120160, Note_on_c, 1, 49, 95
2, 120160, Note_on_c, 1, 68, 65
2, 120160, Note_on_c, 1, 71, 89
2, 120160, Note_on_c, 1, 37, 90
2, 120160, Note_on_c, 1, 77, 89
2, 120172, Control_c, 1, 64, 0
2, 120280, Control_c, 1, 64, 127
2, 120396, Note_off_c, 1, 77, 64
2, 120412, Note_off_c, 1, 37, 64
2, 120416, Note_off_c, 1, 49, 64
2, 120512, Note_on_c, 1, 77, 80
2, 120524, Note_off_c, 1, 68, 64
2, 120524, Note_off_c, 1, 71, 64
2, 120540, Note_off_c, 1, 77, 64
2, 120640, Control_c, 1, 64, 0
2, 120644, Note_on_c, 1, 36, 59
2, 120652, Note_on_c, 1, 48, 55
2, 120660, Note_on_c, 1, 72, 69
2, 120664, Note_on_c, 1, 81, 71
2, 120664, Note_on_c, 1, 69, 62
2, 120664, Control_c, 1, 64, 127
2, 120672, Note_off_c, 1, 36, 64
2, 120676, Note_off_c, 1, 69, 64
2, 120680, Note_off_c, 1, 48, 64
2, 120680, Note_off_c, 1, 72, 64
2, 120684, Note_off_c, 1, 81, 64
2, 120788, Note_on_c, 1, 84, 75
2, 120792, Note_on_c, 1, 72, 59
2, 120908, Note_off_c, 1, 84, 64
2, 120920, Note_on_c, 1, 65, 61
2, 120924, Note_off_c, 1, 72, 64
2, 120924, Note_on_c, 1, 57, 62
2, 120924, Note_on_c, 1, 60, 55
2, 120940, Note_off_c, 1, 65, 64
2, 120940, Note_off_c, 1, 60, 64
2, 120948, Note_off_c, 1, 57, 64
2, 121048, Note_on_c, 1, 79, 73
2, 121052, Note_on_c, 1, 70, 58
2, 121184, Note_on_c, 1, 48, 51
2, 121184, Note_on_c, 1, 60, 45
2, 121184, Control_c, 1, 64, 0
2, 121240, Note_off_c, 1, 60, 64
2, 121268, Note_off_c, 1, 48, 64
2, 121320, Note_on_c, 1, 72, 65
2, 121332, Note_off_c, 1, 79, 64
2, 121388, Note_off_c, 1, 70, 64
2, 121404, Note_off_c, 1, 72, 64
2, 121444, Note_on_c, 1, 70, 43
2, 121448, Note_on_c, 1, 74, 63
2, 121456, Note_on_c, 1, 48, 41
2, 121456, Note_on_c, 1, 36, 30
2, 121492, Note_off_c, 1, 48, 64
2, 121492, Control_c, 1, 64, 127
2, 121500, Note_off_c, 1, 36, 64
2, 121584, Note_off_c, 1, 74, 64
2, 121588, Note_on_c, 1, 76, 60
2, 121612, Note_off_c, 1, 70, 0
2, 121612, Note_off_c, 1, 76, 0
2, 121716, Note_on_c, 1, 41, 29
2, 121716, Note_on_c, 1, 77, 63
2, 121720, Note_on_c, 1, 69, 34
2, 121720, Control_c, 1, 64, 0
2, 121752, Control_c, 1, 64, 127
2, 121796, Note_off_c, 1, 69, 64
2, 121812, Note_off_c, 1, 77, 64
2, 121852, Note_off_c, 1, 41, 64
2, 122220, Note_on_c, 1, 29, 33
2, 122228, Note_on_c, 1, 41, 32
2, 122228, Note_on_c, 1, 81, 38
2, 122228, Note_on_c, 1, 84, 44
2, 122228, Note_on_c, 1, 89, 48
2, 122228, Note_on_c, 1, 77, 50
2, 122260, Control_c, 1, 64, 0
2, 122324, Note_off_c, 1, 81, 64
2, 122328, Note_off_c, 1, 84, 64
2, 122332, Note_off_c, 1, 41, 64
2, 122332, Note_off_c, 1, 77, 64
2, 122336, Note_off_c, 1, 29, 64
2, 122340, Note_off_c, 1, 89, 64
2, 122752, Note_on_c, 1, 57, 55
2, 122752, Note_on_c, 1, 72, 64
2, 122752, Note_on_c, 1, 65, 54
2, 122752, Note_on_c, 1, 60, 35
2, 122756, Note_on_c, 1, 53, 30
2, 122772, Note_off_c, 1, 57, 64
2, 122772, Note_off_c, 1, 65, 64
2, 122772, Note_off_c, 1, 60, 64
2, 122772, Note_off_c, 1, 53, 64
2, 123012, Note_on_c, 1, 69, 69
2, 123012, Note_on_c, 1, 65, 56
2, 123016, Note_on_c, 1, 57, 58
2, 123016, Note_on_c, 1, 60, 55
2, 123020, Note_off_c, 1, 72, 64
2, 123032, Note_off_c, 1, 69, 64
2, 123036, Note_off_c, 1, 65, 64
2, 123036, Note_off_c, 1, 57, 64
2, 123036, Note_off_c, 1, 60, 64
2, 123148, Note_on_c, 1, 72, 71
2, 123272, Note_on_c, 1, 54, 59
2, 123276, Note_on_c, 1, 63, 47
2, 123276, Note_on_c, 1, 57, 64
2, 123276, Note_on_c, 1, 60, 56
2, 123288, Note_off_c, 1, 57, 64
2, 123288, Note_off_c, 1, 60, 64
2, 123292, Note_off_c, 1, 54, 64
2, 123292, Note_off_c, 1, 63, 64
2, 123400, Note_on_c, 1, 69, 67
2, 123408, Note_off_c, 1, 72, 64
2, 123532, Note_on_c, 1, 54, 37
2, 123536, Note_off_c, 1, 69, 0
2, 123540, Note_on_c, 1, 63, 46
2, 123540, Note_on_c, 1, 72, 65
2, 123544, Note_on_c, 1, 57, 45
2, 123544, Note_on_c, 1, 60, 46
2, 123556, Note_off_c, 1, 60, 64
2, 123560, Note_off_c, 1, 54, 64
2, 123560, Note_off_c, 1, 63, 64
2, 123564, Note_off_c, 1, 57, 64
2, 123664, Note_off_c, 1, 72, 64
2, 123668, Note_on_c, 1, 69, 67
2, 123792, Note_off_c, 1, 69, 64
2, 123792, Note_on_c, 1, 55, 61
2, 123796, Note_on_c, 1, 60, 56
2, 123796, Note_on_c, 1, 67, 67
2, 123796, Note_on_c, 1, 64, 49
2, 123812, Note_off_c, 1, 55, 64
2, 123816, Note_off_c, 1, 60, 64
2, 123816, Note_off_c, 1, 64, 64
2, 123928, Note_on_c, 1, 72, 62
2, 124052, Note_off_c, 1, 72, 64
2, 124056, Note_on_c, 1, 76, 67
2, 124060, Note_on_c, 1, 64, 42
2, 124060, Note_on_c, 1, 60, 50
2, 124060, Note_on_c, 1, 55, 44
2, 124080, Note_off_c, 1, 67, 64
2, 124080, Note_off_c, 1, 64, 64
2, 124080, Note_off_c, 1, 60, 64
2, 124080, Note_off_c, 1, 55, 64
2, 124124, Note_off_c, 1, 76, 64
2, 124180, Note_on_c, 1, 79, 77
2, 124316, Note_on_c, 1, 55, 45
2, 124316, Note_on_c, 1, 60, 50
2, 124320, Note_on_c, 1, 64, 42
2, 124340, Note_off_c, 1, 60, 64
2, 124340, Note_off_c, 1, 64, 64
2, 124348, Note_off_c, 1, 55, 64
2, 124448, Note_on_c, 1, 76, 73
2, 124456, Note_off_c, 1, 79, 64
2, 124580, Note_off_c, 1, 76, 0
2, 124584, Note_on_c, 1, 72, 65
2, 124584, Note_on_c, 1, 55, 49
2, 124584, Note_on_c, 1, 60, 41
2, 124584, Note_on_c, 1, 64, 48
2, 124596, Control_c, 1, 64, 127
2, 124632, Note_off_c, 1, 60, 64
2, 124632, Note_off_c, 1, 64, 64
2, 124644, Note_off_c, 1, 55, 64
2, 124700, Note_off_c, 1, 72, 64
2, 124708, Note_on_c, 1, 67, 67
2, 124744, Note_off_c, 1, 67, 64
2, 124836, Note_on_c, 1, 69, 73
2, 124836, Note_on_c, 1, 66, 51
2, 124840, Note_on_c, 1, 60, 47
2, 124840, Note_on_c, 1, 50, 42
2, 124844, Control_c, 1, 64, 0
2, 124876, Control_c, 1, 64, 127
2, 124956, Note_off_c, 1, 66, 64
2, 124956, Note_off_c, 1, 60, 64
2, 124956, Note_off_c, 1, 50, 64
2, 124960, Note_off_c, 1, 69, 64
2, 125092, Note_on_c, 1, 66, 47
2, 125092, Note_on_c, 1, 72, 67
2, 125096, Note_on_c, 1, 57, 37
2, 125100, Note_on_c, 1, 50, 32
2, 125108, Control_c, 1, 64, 0
2, 125140, Control_c, 1, 64, 127
2, 125184, Note_off_c, 1, 50, 64
2, 125204, Note_off_c, 1, 66, 64
2, 125208, Note_off_c, 1, 57, 64
2, 125224, Note_off_c, 1, 72, 64
2, 125348, Note_on_c, 1, 76, 60
2, 125348, Control_c, 1, 64, 0
2, 125352, Note_on_c, 1, 55, 30
2, 125352, Note_on_c, 1, 59, 30
2, 125360, Note_on_c, 1, 65, 56
2, 125388, Control_c, 1, 64, 127
2, 125420, Note_off_c, 1, 65, 64
2, 125436, Note_off_c, 1, 76, 64
2, 125468, Note_off_c, 1, 55, 0
2, 125468, Note_off_c, 1, 59, 0
2, 125476, Note_on_c, 1, 74, 63
2, 125476, Note_on_c, 1, 65, 35
2, 125484, Control_c, 1, 64, 0
2, 125620, Control_c, 1, 64, 127
2, 125628, Note_on_c, 1, 55, 30
2, 125628, Note_on_c, 1, 59, 32
2, 125648, Note_off_c, 1, 74, 64
2, 125648, Note_off_c, 1, 65, 64
2, 125656, Note_off_c, 1, 55, 64
2, 125656, Note_off_c, 1, 59, 64
2, 125760, Note_on_c, 1, 72, 55
2, 125760, Note_on_c, 1, 64, 53
2, 125884, Control_c, 1, 64, 0
2, 125892, Note_on_c, 1, 60, 30
2, 125892, Note_on_c, 1, 55, 30
2, 125892, Note_on_c, 1, 48, 28
2, 125984, Control_c, 1, 64, 127
2, 126020, Note_off_c, 1, 64, 64
2, 126024, Note_off_c, 1, 60, 64
2, 126036, Note_off_c, 1, 72, 64
2, 126040, Note_off_c, 1, 55, 64
2, 126060, Note_off_c, 1, 48, 64
2, 126404, Note_on_c, 1, 76, 56
2, 126404, Note_on_c, 1, 72, 50
2, 126408, Note_on_c, 1, 79, 56
2, 126408, Note_on_c, 1, 84, 33
2, 126408, Note_on_c, 1, 43, 28
2, 126408, Control_c, 1, 64, 0
2, 126420, Note_on_c, 1, 48, 24
2, 126420, Note_on_c, 1, 36, 23
2, 126608, Note_off_c, 1, 36, 0
2, 126616, Note_off_c, 1, 84, 0
2, 126616, Note_off_c, 1, 43, 0
2, 126620, Note_off_c, 1, 79, 0
2, 126624, Note_off_c, 1, 76, 0
2, 126624, Note_off_c, 1, 72, 0
2, 126624, Note_off_c, 1, 48, 0
2, 126916, Note_on_c, 1, 41, 60
2, 126924, Note_on_c, 1, 65, 67
2, 126924, Note_on_c, 1, 62, 64
2, 126932, Note_off_c, 1, 41, 64
2, 127136, Note_off_c, 1, 62, 64
2, 127148, Note_off_c, 1, 65, 64
2, 127176, Note_on_c, 1, 57, 59
2, 127176, Note_on_c, 1, 53, 42
2, 127188, Note_on_c, 1, 64, 62
2, 127188, Note_on_c, 1, 61, 57
2, 127192, Note_off_c, 1, 53, 64
2, 127200, Note_off_c, 1, 57, 64
2, 127268, Note_off_c, 1, 64, 64
2, 127268, Note_off_c, 1, 61, 64
2, 127316, Note_on_c, 1, 65, 69
2, 127316, Note_on_c, 1, 62, 67
2, 127440, Note_on_c, 1, 45, 51
2, 127468, Note_off_c, 1, 45, 64
2, 127564, Note_on_c, 1, 64, 63
2, 127564, Note_on_c, 1, 61, 33
2, 127568, Note_off_c, 1, 62, 0
2, 127576, Note_off_c, 1, 65, 0
2, 127600, Note_off_c, 1, 64, 64
2, 127600, Note_off_c, 1, 61, 64
2, 127696, Note_on_c, 1, 65, 64
2, 127696, Note_on_c, 1, 62, 65
2, 127696, Note_on_c, 1, 57, 51
2, 127696, Note_on_c, 1, 53, 55
2, 127712, Note_off_c, 1, 57, 64
2, 127712, Note_off_c, 1, 53, 64
2, 127956, Note_on_c, 1, 41, 57
2, 127956, Control_c, 1, 64, 127
2, 127964, Note_off_c, 1, 62, 64
2, 127980, Note_off_c, 1, 65, 64
2, 127996, Note_off_c, 1, 41, 64
2, 128080, Note_on_c, 1, 69, 69
2, 128156, Note_off_c, 1, 69, 64
2, 128212, Note_on_c, 1, 53, 62
2, 128216, Note_on_c, 1, 57, 59
2, 128220, Note_on_c, 1, 74, 80
2, 128224, Note_on_c, 1, 65, 75
2, 128236, Control_c, 1, 64, 0
2, 128344, Note_on_c, 1, 69, 77
2, 128356, Note_off_c, 1, 74, 64
2, 128360, Control_c, 1, 64, 127
2, 128468, Note_on_c, 1, 45, 60
2, 128476, Note_off_c, 1, 69, 0
2, 128484, Control_c, 1, 64, 0
2, 128492, Note_on_c, 1, 72, 71
2, 128524, Note_off_c, 1, 53, 0
2, 128532, Control_c, 1, 64, 127
2, 128544, Note_off_c, 1, 57, 0
2, 128604, Note_off_c, 1, 72, 64
2, 128608, Note_on_c, 1, 74, 75
2, 128608, Control_c, 1, 64, 0
2, 128740, Note_on_c, 1, 57, 54
2, 128740, Note_on_c, 1, 53, 46
2, 128744, Note_off_c, 1, 74, 64
2, 128744, Note_on_c, 1, 72, 63
2, 128864, Note_off_c, 1, 53, 64
2, 128864, Control_c, 1, 64, 127
2, 128868, Note_off_c, 1, 65, 0
2, 128872, Note_off_c, 1, 45, 64
2, 128872, Note_off_c, 1, 72, 64
2, 128872, Note_on_c, 1, 69, 57
2, 128880, Note_off_c, 1, 57, 64
2, 128900, Note_off_c, 1, 69, 64
2, 128992, Note_on_c, 1, 48, 58
2, 128996, Note_on_c, 1, 67, 62
2, 129008, Note_on_c, 1, 64, 58
2, 129012, Control_c, 1, 64, 0
2, 129256, Note_on_c, 1, 60, 33
2, 129256, Note_on_c, 1, 63, 53
2, 129256, Note_on_c, 1, 55, 47
2, 129256, Note_on_c, 1, 66, 55
2, 129260, Note_off_c, 1, 48, 64
2, 129260, Note_on_c, 1, 52, 33
2, 129264, Control_c, 1, 64, 127
2, 129268, Note_off_c, 1, 64, 64
2, 129284, Note_off_c, 1, 67, 64
2, 129284, Note_off_c, 1, 55, 64
2, 129288, Note_off_c, 1, 66, 64
2, 129292, Note_off_c, 1, 63, 64
2, 129296, Note_off_c, 1, 60, 64
2, 129296, Note_off_c, 1, 52, 64
2, 129376, Control_c, 1, 64, 0
2, 129396, Note_on_c, 1, 67, 73
2, 129396, Note_on_c, 1, 64, 71
2, 129520, Note_on_c, 1, 43, 56
2, 129532, Control_c, 1, 64, 127
2, 129556, Note_off_c, 1, 43, 64
2, 129648, Note_on_c, 1, 66, 53
2, 129648, Note_on_c, 1, 63, 47
2, 129660, Note_off_c, 1, 64, 64
2, 129664, Note_off_c, 1, 67, 64
2, 129684, Note_off_c, 1, 66, 64
2, 129688, Note_off_c, 1, 63, 64
2, 129776, Control_c, 1, 64, 0
2, 129780, Note_on_c, 1, 60, 45
2, 129780, Note_on_c, 1, 55, 34
2, 129780, Note_on_c, 1, 52, 30
2, 129784, Note_on_c, 1, 67, 69
2, 129784, Note_on_c, 1, 64, 63
2, 129848, Control_c, 1, 64, 127
2, 129892, Note_off_c, 1, 64, 64
2, 129908, Note_off_c, 1, 55, 64
2, 129912, Note_off_c, 1, 67, 64
2, 129916, Note_off_c, 1, 52, 64
2, 129920, Note_off_c, 1, 60, 64
2, 130036, Note_on_c, 1, 48, 63
2, 130048, Control_c, 1, 64, 0
2, 130076, Note_off_c, 1, 48, 64
2, 130164, Note_on_c, 1, 72, 75
2, 130168, Control_c, 1, 64, 127
2, 130252, Note_off_c, 1, 72, 64
2, 130304, Control_c, 1, 64, 0
2, 130308, Note_on_c, 1, 55, 55
2, 130308, Note_on_c, 1, 52, 46
2, 130308, Note_on_c, 1, 60, 41
2, 130312, Note_on_c, 1, 76, 75
2, 130316, Note_on_c, 1, 67, 73
2, 130328, Note_off_c, 1, 55, 64
2, 130328, Note_off_c, 1, 60, 64
2, 130340, Note_off_c, 1, 52, 64
2, 130428, Note_off_c, 1, 76, 0
2, 130436, Note_on_c, 1, 72, 67
2, 130564, Note_off_c, 1, 72, 64
2, 130564, Note_on_c, 1, 43, 58
2, 130572, Note_on_c, 1, 74, 75
2, 130596, Note_off_c, 1, 43, 64
2, 130604, Control_c, 1, 64, 127
2, 130628, Control_c, 1, 64, 0
2, 130692, Note_off_c, 1, 74, 64
2, 130696, Note_on_c, 1, 76, 65
2, 130824, Note_on_c, 1, 52, 45
2, 130824, Note_on_c, 1, 60, 44
2, 130824, Note_on_c, 1, 55, 52
2, 130832, Note_on_c, 1, 74, 69
2, 130836, Note_off_c, 1, 67, 0
2, 130844, Note_off_c, 1, 60, 64
2, 130844, Note_off_c, 1, 55, 64
2, 130848, Note_off_c, 1, 76, 64
2, 130848, Note_off_c, 1, 52, 64
2, 130940, Control_c, 1, 64, 127
2, 130956, Note_off_c, 1, 74, 64
2, 130956, Note_on_c, 1, 72, 62
2, 130980, Note_off_c, 1, 72, 64
2, 131068, Note_on_c, 1, 43, 46
2, 131076, Control_c, 1, 64, 0
2, 131096, Note_on_c, 1, 74, 83
2, 131096, Note_on_c, 1, 71, 73
2, 131128, Control_c, 1, 64, 127
2, 131148, Note_off_c, 1, 43, 64
2, 131336, Note_on_c, 1, 73, 63
2, 131336, Control_c, 1, 64, 0
2, 131340, Note_on_c, 1, 70, 63
2, 131340, Note_on_c, 1, 53, 56
2, 131340, Note_on_c, 1, 59, 55
2, 131340, Note_on_c, 1, 55, 52
2, 131360, Note_off_c, 1, 71, 0
2, 131360, Note_off_c, 1, 55, 64
2, 131364, Note_off_c, 1, 53, 64
2, 131364, Note_off_c, 1, 59, 64
2, 131376, Note_off_c, 1, 74, 0
2, 131400, Note_off_c, 1, 73, 0
2, 131404, Note_off_c, 1, 70, 0
2, 131476, Note_on_c, 1, 74, 75
2, 131476, Note_on_c, 1, 71, 65
2, 131604, Note_on_c, 1, 47, 67
2, 131620, Control_c, 1, 64, 127
2, 131632, Note_off_c, 1, 47, 64
2, 131736, Note_on_c, 1, 73, 63
2, 131736, Note_on_c, 1, 70, 54
2, 131748, Note_off_c, 1, 74, 64
2, 131748, Note_off_c, 1, 71, 64
2, 131752, Control_c, 1, 64, 0
2, 131864, Note_off_c, 1, 73, 64
2, 131864, Note_off_c, 1, 70, 64
2, 131868, Note_on_c, 1, 74, 65
2, 131872, Note_on_c, 1, 53, 55
2, 131872, Note_on_c, 1, 55, 59
2, 131872, Note_on_c, 1, 71, 59
2, 131872, Note_on_c, 1, 59, 37
2, 131896, Note_off_c, 1, 55, 64
2, 131896, Note_off_c, 1, 59, 64
2, 131904, Note_off_c, 1, 53, 64
2, 132124, Note_on_c, 1, 43, 59
2, 132136, Control_c, 1, 64, 127
2, 132148, Note_off_c, 1, 71, 64
2, 132148, Note_off_c, 1, 43, 64
2, 132156, Note_off_c, 1, 74, 64
2, 132252, Note_on_c, 1, 77, 73
2, 132304, Note_off_c, 1, 77, 64
2, 132376, Note_on_c, 1, 81, 86
2, 132376, Control_c, 1, 64, 0
2, 132384, Note_on_c, 1, 71, 75
2, 132384, Note_on_c, 1, 59, 56
2, 132384, Note_on_c, 1, 53, 55
2, 132384, Note_on_c, 1, 55, 58
2, 132408, Control_c, 1, 64, 127
2, 132508, Note_off_c, 1, 81, 64
2, 132508, Note_on_c, 1, 77, 77
2, 132540, Note_off_c, 1, 55, 64
2, 132548, Note_off_c, 1, 59, 64
2, 132556, Note_off_c, 1, 53, 64
2, 132600, Note_off_c, 1, 77, 64
2, 132656, Note_on_c, 1, 79, 77
2, 132656, Note_on_c, 1, 50, 64
2, 132656, Control_c, 1, 64, 0
2, 132676, Note_off_c, 1, 71, 64
2, 132784, Note_on_c, 1, 81, 86
2, 132796, Note_off_c, 1, 79, 64
2, 132912, Note_off_c, 1, 81, 64
2, 132912, Note_on_c, 1, 79, 86
2, 132912, Note_on_c, 1, 59, 63
2, 132912, Note_on_c, 1, 53, 60
2, 132912, Note_on_c, 1, 55, 61
2, 133032, Control_c, 1, 64, 127
2, 133036, Note_off_c, 1, 79, 64
2, 133036, Note_on_c, 1, 77, 89
2, 133044, Note_off_c, 1, 53, 64
2, 133048, Note_off_c, 1, 59, 64
2, 133048, Note_off_c, 1, 55, 64
2, 133064, Note_off_c, 1, 50, 64
2, 133068, Note_off_c, 1, 77, 64
2, 133168, Note_on_c, 1, 51, 52
2, 133168, Control_c, 1, 64, 0
2, 133176, Note_on_c, 1, 84, 71
2, 133176, Note_on_c, 1, 72, 58
2, 133176, Note_on_c, 1, 60, 37
2, 133176, Note_on_c, 1, 54, 33
2, 133192, Note_off_c, 1, 72, 64
2, 133200, Note_off_c, 1, 51, 64
2, 133200, Note_off_c, 1, 84, 64
2, 133200, Note_off_c, 1, 60, 64
2, 133200, Note_off_c, 1, 54, 64
2, 133292, Note_on_c, 1, 84, 75
2, 133292, Note_on_c, 1, 72, 67
2, 133300, Note_on_c, 1, 51, 57
2, 133300, Note_on_c, 1, 54, 60
2, 133300, Note_on_c, 1, 60, 56
2, 133312, Note_off_c, 1, 72, 0
2, 133312, Note_off_c, 1, 54, 0
2, 133316, Note_off_c, 1, 84, 0
2, 133316, Note_off_c, 1, 51, 0
2, 133320, Note_off_c, 1, 60, 0
2, 133436, Note_on_c, 1, 72, 86
2, 133436, Note_on_c, 1, 84, 89
2, 133436, Note_on_c, 1, 54, 63
2, 133436, Note_on_c, 1, 60, 67
2, 133440, Note_on_c, 1, 51, 59
2, 133532, Control_c, 1, 64, 127
2, 133744, Note_off_c, 1, 84, 64
2, 133768, Note_off_c, 1, 51, 64
2, 133768, Note_off_c, 1, 60, 64
2, 133776, Note_off_c, 1, 54, 64
2, 133776, Note_off_c, 1, 72, 64
2, 133948, Control_c, 1, 64, 0
2, 133960, Note_on_c, 1, 60, 40
2, 133960, Note_on_c, 1, 51, 39
2, 133960, Note_on_c, 1, 72, 67
2, 133960, Note_on_c, 1, 81, 80
2, 133964, Note_on_c, 1, 54, 49
2, 133992, Control_c, 1, 64, 127
2, 134064, Note_off_c, 1, 51, 64
2, 134064, Note_off_c, 1, 54, 64
2, 134080, Note_off_c, 1, 60, 64
2, 134108, Note_off_c, 1, 72, 64
2, 134116, Note_off_c, 1, 81, 64
2, 134216, Control_c, 1, 64, 0
2, 134228, Note_on_c, 1, 60, 32
2, 134228, Note_on_c, 1, 79, 64
2, 134228, Note_on_c, 1, 72, 55
2, 134228, Note_on_c, 1, 52, 29
2, 134232, Note_on_c, 1, 55, 29
2, 134248, Control_c, 1, 64, 127
2, 134272, Note_off_c, 1, 79, 64
2, 134280, Note_off_c, 1, 72, 64
2, 134292, Note_off_c, 1, 52, 64
2, 134292, Note_off_c, 1, 55, 64
2, 134296, Note_off_c, 1, 60, 0
2, 134476, Control_c, 1, 64, 0
2, 134480, Note_on_c, 1, 67, 53
2, 134484, Note_on_c, 1, 64, 64
2, 134508, Note_off_c, 1, 64, 64
2, 134520, Note_off_c, 1, 67, 64
2, 134612, Note_on_c, 1, 67, 60
2, 134620, Note_on_c, 1, 64, 56
2, 134632, Note_off_c, 1, 64, 64
2, 134640, Note_off_c, 1, 67, 64
2, 134748, Note_on_c, 1, 67, 67
2, 134748, Note_on_c, 1, 64, 65
2, 134812, Note_off_c, 1, 64, 64
2, 134816, Note_off_c, 1, 67, 64
2, 135028, Note_on_c, 1, 67, 57
2, 135028, Note_on_c, 1, 64, 56
2, 135044, Control_c, 1, 64, 127
2, 135088, Note_off_c, 1, 67, 64
2, 135088, Control_c, 1, 64, 0
2, 135096, Note_off_c, 1, 64, 64
2, 135268, Note_on_c, 1, 41, 57
2, 135276, Note_on_c, 1, 65, 57
2, 135276, Note_on_c, 1, 62, 38
2, 135288, Note_off_c, 1, 41, 0
2, 135512, Note_on_c, 1, 53, 55
2, 135512, Note_on_c, 1, 57, 56
2, 135516, Note_off_c, 1, 62, 0
2, 135524, Note_off_c, 1, 65, 0
2, 135536, Note_off_c, 1, 53, 64
2, 135536, Note_off_c, 1, 57, 64
2, 135652, Note_on_c, 1, 65, 64
2, 135652, Note_on_c, 1, 62, 51
2, 135796, Note_on_c, 1, 45, 48
2, 135916, Note_on_c, 1, 61, 47
2, 135916, Note_on_c, 1, 64, 63
2, 135932, Note_off_c, 1, 62, 64
2, 135936, Note_off_c, 1, 65, 64
2, 135936, Note_off_c, 1, 61, 64
2, 135936, Note_off_c, 1, 64, 64
2, 136040, Note_off_c, 1, 45, 64
2, 136056, Note_on_c, 1, 57, 49
2, 136056, Note_on_c, 1, 65, 63
2, 136056, Note_on_c, 1, 62, 61
2, 136068, Note_on_c, 1, 53, 52
2, 136100, Note_off_c, 1, 57, 64
2, 136104, Note_off_c, 1, 53, 64
2, 136292, Note_off_c, 1, 62, 0
2, 136292, Control_c, 1, 64, 127
2, 136304, Note_off_c, 1, 65, 0
2, 136304, Note_on_c, 1, 41, 63
2, 136324, Note_off_c, 1, 41, 64
2, 136436, Note_on_c, 1, 69, 75
2, 136496, Note_off_c, 1, 69, 64
2, 136568, Note_on_c, 1, 57, 62
2, 136568, Note_on_c, 1, 53, 58
2, 136568, Control_c, 1, 64, 0
2, 136572, Note_on_c, 1, 74, 86
2, 136576, Note_on_c, 1, 65, 75
2, 136696, Note_on_c, 1, 69, 77
2, 136708, Note_off_c, 1, 74, 64
2, 136708, Control_c, 1, 64, 127
2, 136800, Note_off_c, 1, 69, 64
2, 136828, Note_on_c, 1, 45, 71
2, 136828, Control_c, 1, 64, 0
2, 136836, Note_off_c, 1, 57, 64
2, 136840, Note_off_c, 1, 53, 64
2, 136840, Note_on_c, 1, 72, 64
2, 136960, Note_off_c, 1, 72, 64
2, 136960, Note_on_c, 1, 74, 80
2, 136976, Control_c, 1, 64, 127
2, 137080, Note_off_c, 1, 74, 64
2, 137080, Control_c, 1, 64, 0
2, 137088, Note_on_c, 1, 57, 65
2, 137088, Note_on_c, 1, 53, 83
2, 137092, Note_on_c, 1, 72, 67
2, 137120, Control_c, 1, 64, 127
2, 137208, Note_off_c, 1, 45, 64
2, 137224, Note_off_c, 1, 72, 64
2, 137224, Note_on_c, 1, 69, 69
2, 137228, Note_off_c, 1, 53, 64
2, 137240, Note_off_c, 1, 65, 64
2, 137240, Note_off_c, 1, 69, 64
2, 137344, Note_off_c, 1, 57, 0
2, 137344, Note_on_c, 1, 48, 67
2, 137352, Note_on_c, 1, 67, 65
2, 137356, Note_on_c, 1, 64, 59
2, 137356, Control_c, 1, 64, 0
2, 137504, Control_c, 1, 64, 127
2, 137600, Control_c, 1, 64, 0
2, 137604, Note_off_c, 1, 48, 64
2, 137608, Note_on_c, 1, 63, 49
2, 137608, Note_on_c, 1, 66, 50
2, 137612, Note_on_c, 1, 52, 41
2, 137616, Note_on_c, 1, 55, 30
2, 137616, Note_on_c, 1, 60, 29
2, 137624, Note_off_c, 1, 67, 64
2, 137624, Note_off_c, 1, 64, 64
2, 137632, Note_off_c, 1, 63, 64
2, 137632, Note_off_c, 1, 66, 64
2, 137704, Note_off_c, 1, 55, 64
2, 137704, Note_off_c, 1, 60, 64
2, 137712, Note_off_c, 1, 52, 64
2, 137740, Note_on_c, 1, 67, 75
2, 137740, Note_on_c, 1, 64, 67
2, 137868, Note_on_c, 1, 43, 57
2, 137876, Control_c, 1, 64, 127
2, 137896, Note_off_c, 1, 43, 64
2, 137992, Note_on_c, 1, 66, 53
2, 137992, Note_on_c, 1, 63, 46
2, 138004, Note_off_c, 1, 64, 64
2, 138008, Note_off_c, 1, 66, 64
2, 138008, Note_off_c, 1, 63, 64
2, 138012, Note_off_c, 1, 67, 64
2, 138108, Control_c, 1, 64, 0
2, 138124, Note_on_c, 1, 55, 53
2, 138128, Note_on_c, 1, 52, 51
2, 138132, Note_on_c, 1, 60, 40
2, 138132, Note_on_c, 1, 67, 77
2, 138132, Note_on_c, 1, 64, 65
2, 138148, Control_c, 1, 64, 127
2, 138208, Note_off_c, 1, 55, 64
2, 138216, Note_off_c, 1, 52, 64
2, 138232, Note_off_c, 1, 60, 0
2, 138244, Note_off_c, 1, 64, 0
2, 138256, Note_off_c, 1, 67, 0
2, 138388, Note_on_c, 1, 48, 64
2, 138396, Control_c, 1, 64, 0
2, 138500, Control_c, 1, 64, 127
2, 138520, Note_on_c, 1, 72, 65
2, 138544, Note_off_c, 1, 72, 64
2, 138644, Control_c, 1, 64, 0
2, 138656, Note_on_c, 1, 52, 45
2, 138656, Note_on_c, 1, 55, 51
2, 138656, Note_on_c, 1, 60, 35
2, 138656, Note_on_c, 1, 76, 77
2, 138656, Note_on_c, 1, 67, 77
2, 138676, Control_c, 1, 64, 127
2, 138712, Note_off_c, 1, 55, 64
2, 138712, Note_off_c, 1, 60, 64
2, 138728, Note_off_c, 1, 52, 64
2, 138732, Note_off_c, 1, 48, 64
2, 138780, Note_on_c, 1, 72, 73
2, 138784, Note_off_c, 1, 76, 64
2, 138896, Control_c, 1, 64, 0
2, 138908, Note_on_c, 1, 43, 75
2, 138916, Note_off_c, 1, 72, 64
2, 138920, Note_on_c, 1, 74, 80
2, 138932, Control_c, 1, 64, 127
2, 138956, Note_off_c, 1, 43, 64
2, 139028, Note_on_c, 1, 76, 80
2, 139032, Note_off_c, 1, 74, 64
2, 139160, Note_off_c, 1, 76, 64
2, 139160, Note_on_c, 1, 74, 86
2, 139164, Note_on_c, 1, 60, 63
2, 139164, Note_on_c, 1, 52, 55
2, 139164, Note_on_c, 1, 55, 64
2, 139176, Note_off_c, 1, 60, 64
2, 139184, Note_off_c, 1, 52, 64
2, 139184, Note_off_c, 1, 55, 64
2, 139304, Note_on_c, 1, 72, 83
2, 139316, Note_off_c, 1, 74, 0
2, 139320, Note_off_c, 1, 67, 0
2, 139436, Note_off_c, 1, 72, 64
2, 139436, Note_on_c, 1, 41, 75
2, 139436, Note_on_c, 1, 69, 83
2, 139436, Control_c, 1, 64, 0
2, 139440, Note_on_c, 1, 53, 80
2, 139492, Control_c, 1, 64, 127
2, 139536, Note_off_c, 1, 53, 64
2, 139552, Note_off_c, 1, 41, 64
2, 139564, Note_on_c, 1, 68, 75
2, 139576, Note_off_c, 1, 69, 64
2, 139624, Note_off_c, 1, 68, 64
2, 139684, Control_c, 1, 64, 0
2, 139688, Note_on_c, 1, 38, 75
2, 139688, Note_on_c, 1, 69, 92
2, 139692, Note_on_c, 1, 50, 83
2, 139752, Note_off_c, 1, 69, 64
2, 139752, Control_c, 1, 64, 127
2, 139756, Control_c, 1, 64, 0
2, 139812, Control_c, 1, 64, 127
2, 139824, Note_on_c, 1, 79, 86
2, 139828, Note_on_c, 1, 69, 86
2, 139840, Note_off_c, 1, 38, 64
2, 139848, Note_off_c, 1, 50, 64
2, 139956, Note_on_c, 1, 40, 86
2, 139956, Note_on_c, 1, 52, 77
2, 139960, Control_c, 1, 64, 0
2, 140004, Note_off_c, 1, 79, 64
2, 140012, Note_off_c, 1, 69, 64
2, 140080, Control_c, 1, 64, 127
2, 140088, Note_on_c, 1, 77, 77
2, 140088, Note_on_c, 1, 69, 77
2, 140128, Note_off_c, 1, 52, 64
2, 140136, Note_off_c, 1, 40, 64
2, 140216, Note_on_c, 1, 41, 86
2, 140216, Note_on_c, 1, 53, 83
2, 140216, Control_c, 1, 64, 0
2, 140232, Note_off_c, 1, 77, 0
2, 140240, Note_off_c, 1, 69, 0
2, 140320, Control_c, 1, 64, 127
2, 140340, Note_on_c, 1, 72, 75
2, 140340, Note_on_c, 1, 69, 77
2, 140348, Note_off_c, 1, 41, 64
2, 140352, Note_off_c, 1, 53, 64
2, 140364, Note_off_c, 1, 72, 64
2, 140364, Note_off_c, 1, 69, 64
2, 140460, Control_c, 1, 64, 0
2, 140472, Note_on_c, 1, 55, 73
2, 140472, Note_on_c, 1, 43, 80
2, 140472, Note_on_c, 1, 76, 80
2, 140476, Note_on_c, 1, 67, 77
2, 140496, Control_c, 1, 64, 127
2, 140508, Note_off_c, 1, 43, 64
2, 140512, Note_off_c, 1, 55, 64
2, 140604, Note_off_c, 1, 76, 64
2, 140604, Note_on_c, 1, 75, 73
2, 140712, Control_c, 1, 64, 0
2, 140736, Note_on_c, 1, 55, 64
2, 140736, Note_on_c, 1, 76, 86
2, 140736, Note_on_c, 1, 64, 59
2, 140736, Note_on_c, 1, 60, 65
2, 140736, Control_c, 1, 64, 127
2, 140740, Note_off_c, 1, 67, 64
2, 140740, Note_off_c, 1, 75, 64
2, 140752, Note_off_c, 1, 76, 64
2, 140780, Control_c, 1, 64, 0
2, 140848, Note_off_c, 1, 64, 64
2, 140848, Note_off_c, 1, 60, 64
2, 140852, Control_c, 1, 64, 127
2, 140856, Note_off_c, 1, 55, 64
2, 140868, Note_on_c, 1, 81, 96
2, 141000, Note_on_c, 1, 63, 60
2, 141000, Note_on_c, 1, 54, 69
2, 141000, Note_on_c, 1, 60, 73
2, 141004, Control_c, 1, 64, 0
2, 141124, Control_c, 1, 64, 127
2, 141128, Note_on_c, 1, 84, 86
2, 141136, Note_off_c, 1, 81, 64
2, 141144, Note_off_c, 1, 54, 64
2, 141148, Note_off_c, 1, 63, 64
2, 141148, Note_off_c, 1, 60, 64
2, 141248, Control_c, 1, 64, 0
2, 141256, Note_on_c, 1, 79, 80
2, 141260, Note_off_c, 1, 84, 0
2, 141260, Note_on_c, 1, 55, 54
2, 141260, Note_on_c, 1, 60, 57
2, 141260, Note_on_c, 1, 64, 58
2, 141280, Control_c, 1, 64, 127
2, 141300, Note_off_c, 1, 64, 64
2, 141304, Note_off_c, 1, 60, 64
2, 141324, Note_off_c, 1, 55, 64
2, 141388, Note_off_c, 1, 79, 64
2, 141388, Note_on_c, 1, 76, 77
2, 141404, Note_off_c, 1, 76, 64
2, 141500, Control_c, 1, 64, 0
2, 141512, Note_on_c, 1, 45, 56
2, 141516, Note_on_c, 1, 57, 58
2, 141516, Note_on_c, 1, 72, 65
2, 141516, Note_on_c, 1, 66, 60
2, 141544, Control_c, 1, 64, 127
2, 141556, Note_off_c, 1, 57, 64
2, 141592, Note_off_c, 1, 45, 64
2, 141652, Note_off_c, 1, 72, 64
2, 141652, Note_off_c, 1, 66, 64
2, 141668, Control_c, 1, 64, 0
2, 141796, Note_on_c, 1, 38, 50
2, 141796, Note_on_c, 1, 66, 52
2, 141796, Control_c, 1, 64, 127
2, 141800, Note_on_c, 1, 50, 54
2, 141800, Note_on_c, 1, 72, 63
2, 141824, Note_off_c, 1, 38, 64
2, 141824, Note_off_c, 1, 66, 64
2, 141832, Note_off_c, 1, 50, 64
2, 141840, Note_off_c, 1, 72, 64
2, 142004, Control_c, 1, 64, 0
2, 142048, Note_on_c, 1, 43, 47
2, 142052, Note_on_c, 1, 55, 30
2, 142056, Note_on_c, 1, 76, 64
2, 142056, Note_on_c, 1, 71, 63
2, 142056, Note_on_c, 1, 65, 59
2, 142060, Control_c, 1, 64, 127
2, 142084, Note_off_c, 1, 71, 64
2, 142084, Note_off_c, 1, 65, 64
2, 142092, Note_off_c, 1, 43, 64
2, 142092, Note_off_c, 1, 76, 64
2, 142096, Note_off_c, 1, 55, 64
2, 142176, Control_c, 1, 64, 0
2, 142184, Note_on_c, 1, 65, 51
2, 142184, Note_on_c, 1, 74, 61
2, 142188, Note_on_c, 1, 71, 55
2, 142304, Note_off_c, 1, 74, 64
2, 142304, Control_c, 1, 64, 127
2, 142308, Note_off_c, 1, 71, 64
2, 142312, Note_off_c, 1, 65, 64
2, 142312, Note_on_c, 1, 47, 47
2, 142312, Note_on_c, 1, 59, 54
2, 142340, Control_c, 1, 64, 0
2, 142432, Note_off_c, 1, 47, 64
2, 142436, Note_off_c, 1, 59, 64
2, 142440, Note_on_c, 1, 67, 59
2, 142444, Note_on_c, 1, 72, 64
2, 142444, Note_on_c, 1, 64, 56
2, 142568, Note_on_c, 1, 48, 41
2, 142572, Note_off_c, 1, 64, 64
2, 142572, Note_on_c, 1, 60, 45
2, 142576, Note_off_c, 1, 67, 64
2, 142576, Note_off_c, 1, 72, 64
2, 142820, Note_on_c, 1, 67, 42
2, 142820, Note_on_c, 1, 64, 50
2, 142828, Note_off_c, 1, 48, 64
2, 142832, Note_off_c, 1, 60, 64
2, 142844, Note_off_c, 1, 67, 64
2, 142844, Note_off_c, 1, 64, 64
2, 142940, Note_on_c, 1, 67, 53
2, 142940, Note_on_c, 1, 64, 53
2, 142968, Note_off_c, 1, 67, 64
2, 142980, Note_off_c, 1, 64, 64
2, 143088, Note_on_c, 1, 67, 51
2, 143088, Note_on_c, 1, 64, 53
2, 143108, Note_off_c, 1, 67, 64
2, 143112, Note_off_c, 1, 64, 64
2, 143360, Note_on_c, 1, 67, 42
2, 143368, Note_on_c, 1, 64, 31
2, 143392, Note_off_c, 1, 67, 64
2, 143400, Note_off_c, 1, 64, 64
2, 143604, Note_on_c, 1, 41, 48
2, 143612, Note_on_c, 1, 65, 53
2, 143612, Note_on_c, 1, 62, 51
2, 143620, Note_off_c, 1, 41, 64
2, 143828, Note_off_c, 1, 62, 64
2, 143832, Note_off_c, 1, 65, 64
2, 143864, Note_on_c, 1, 57, 47
2, 143868, Note_on_c, 1, 53, 33
2, 143876, Note_on_c, 1, 64, 49
2, 143876, Note_on_c, 1, 61, 45
2, 143884, Note_off_c, 1, 53, 64
2, 143892, Note_off_c, 1, 57, 64
2, 143956, Note_off_c, 1, 61, 64
2, 143960, Note_off_c, 1, 64, 64
2, 144004, Note_on_c, 1, 65, 55
2, 144004, Note_on_c, 1, 62, 53
2, 144132, Note_on_c, 1, 45, 40
2, 144156, Note_off_c, 1, 45, 64
2, 144252, Note_on_c, 1, 64, 50
2, 144252, Note_on_c, 1, 61, 26
2, 144260, Note_off_c, 1, 62, 0
2, 144268, Note_off_c, 1, 65, 0
2, 144288, Note_off_c, 1, 64, 64
2, 144288, Note_off_c, 1, 61, 64
2, 144384, Note_on_c, 1, 65, 51
2, 144384, Note_on_c, 1, 62, 52
2, 144384, Note_on_c, 1, 57, 40
2, 144384, Note_on_c, 1, 53, 44
2, 144404, Note_off_c, 1, 57, 64
2, 144404, Note_off_c, 1, 53, 64
2, 144644, Note_on_c, 1, 41, 45
2, 144644, Control_c, 1, 64, 127
2, 144652, Note_off_c, 1, 62, 64
2, 144672, Note_off_c, 1, 65, 64
2, 144684, Note_off_c, 1, 41, 64
2, 144772, Note_on_c, 1, 69, 55
2, 144844, Note_off_c, 1, 69, 64
2, 144900, Note_on_c, 1, 53, 49
2, 144900, Note_on_c, 1, 57, 47
2, 144912, Note_on_c, 1, 74, 64
2, 144912, Note_on_c, 1, 65, 60
2, 144924, Control_c, 1, 64, 0
2, 145032, Note_on_c, 1, 69, 61
2, 145044, Note_off_c, 1, 74, 64
2, 145048, Control_c, 1, 64, 127
2, 145156, Note_on_c, 1, 45, 48
2, 145164, Note_off_c, 1, 69, 0
2, 145172, Control_c, 1, 64, 0
2, 145180, Note_on_c, 1, 72, 56
2, 145216, Note_off_c, 1, 53, 0
2, 145220, Control_c, 1, 64, 127
2, 145232, Note_off_c, 1, 57, 0
2, 145296, Note_off_c, 1, 72, 64
2, 145296, Note_on_c, 1, 74, 60
2, 145300, Control_c, 1, 64, 0
2, 145428, Note_on_c, 1, 57, 43
2, 145432, Note_off_c, 1, 74, 64
2, 145432, Note_on_c, 1, 53, 36
2, 145432, Note_on_c, 1, 72, 50
2, 145552, Note_off_c, 1, 53, 64
2, 145552, Control_c, 1, 64, 127
2, 145556, Note_off_c, 1, 65, 0
2, 145560, Note_off_c, 1, 45, 64
2, 145560, Note_off_c, 1, 72, 64
2, 145560, Note_on_c, 1, 69, 45
2, 145568, Note_off_c, 1, 57, 64
2, 145588, Note_off_c, 1, 69, 64
2, 145684, Note_on_c, 1, 48, 46
2, 145692, Note_on_c, 1, 67, 49
2, 145696, Note_on_c, 1, 64, 46
2, 145700, Control_c, 1, 64, 0
2, 145944, Note_on_c, 1, 60, 26
2, 145948, Note_off_c, 1, 48, 64
2, 145948, Note_on_c, 1, 63, 42
2, 145948, Note_on_c, 1, 55, 37
2, 145948, Note_on_c, 1, 66, 44
2, 145952, Note_on_c, 1, 52, 26
2, 145956, Note_off_c, 1, 64, 64
2, 145956, Control_c, 1, 64, 127
2, 145976, Note_off_c, 1, 67, 64
2, 145976, Note_off_c, 1, 55, 64
2, 145976, Note_off_c, 1, 66, 64
2, 145980, Note_off_c, 1, 63, 64
2, 145984, Note_off_c, 1, 60, 64
2, 145984, Note_off_c, 1, 52, 64
2, 146068, Control_c, 1, 64, 0
2, 146084, Note_on_c, 1, 67, 58
2, 146084, Note_on_c, 1, 64, 56
2, 146212, Note_on_c, 1, 43, 44
2, 146224, Control_c, 1, 64, 127
2, 146244, Note_off_c, 1, 43, 64
2, 146336, Note_on_c, 1, 66, 42
2, 146336, Note_on_c, 1, 63, 37
2, 146356, Note_off_c, 1, 67, 64
2, 146356, Note_off_c, 1, 64, 64
2, 146372, Note_off_c, 1, 66, 64
2, 146376, Note_off_c, 1, 63, 64
2, 146464, Control_c, 1, 64, 0
2, 146468, Note_on_c, 1, 60, 36
2, 146472, Note_on_c, 1, 55, 27
2, 146472, Note_on_c, 1, 52, 24
2, 146476, Note_on_c, 1, 67, 55
2, 146476, Note_on_c, 1, 64, 50
2, 146540, Control_c, 1, 64, 127
2, 146580, Note_off_c, 1, 64, 64
2, 146596, Note_off_c, 1, 55, 64
2, 146600, Note_off_c, 1, 67, 64
2, 146604, Note_off_c, 1, 52, 64
2, 146608, Note_off_c, 1, 60, 64
2, 146724, Note_on_c, 1, 48, 50
2, 146736, Control_c, 1, 64, 0
2, 146768, Note_off_c, 1, 48, 64
2, 146856, Note_on_c, 1, 72, 60
2, 146860, Control_c, 1, 64, 127
2, 146944, Note_off_c, 1, 72, 64
2, 146992, Control_c, 1, 64, 0
2, 146996, Note_on_c, 1, 55, 44
2, 146996, Note_on_c, 1, 52, 36
2, 147000, Note_on_c, 1, 60, 32
2, 147004, Note_on_c, 1, 76, 60
2, 147004, Note_on_c, 1, 67, 58
2, 147016, Note_off_c, 1, 55, 64
2, 147016, Note_off_c, 1, 60, 64
2, 147028, Note_off_c, 1, 52, 64
2, 147120, Note_off_c, 1, 76, 0
2, 147128, Note_on_c, 1, 72, 53
2, 147256, Note_off_c, 1, 72, 64
2, 147256, Note_on_c, 1, 43, 46
2, 147264, Note_on_c, 1, 74, 60
2, 147284, Note_off_c, 1, 43, 64
2, 147296, Control_c, 1, 64, 127
2, 147316, Control_c, 1, 64, 0
2, 147388, Note_off_c, 1, 74, 64
2, 147388, Note_on_c, 1, 76, 52
2, 147516, Note_on_c, 1, 52, 36
2, 147516, Note_on_c, 1, 60, 35
2, 147516, Note_on_c, 1, 55, 41
2, 147524, Note_on_c, 1, 74, 55
2, 147528, Note_off_c, 1, 67, 0
2, 147532, Note_off_c, 1, 60, 64
2, 147536, Note_off_c, 1, 55, 64
2, 147540, Note_off_c, 1, 76, 64
2, 147540, Note_off_c, 1, 52, 64
2, 147632, Control_c, 1, 64, 127
2, 147644, Note_on_c, 1, 72, 49
2, 147648, Note_off_c, 1, 74, 64
2, 147672, Note_off_c, 1, 72, 64
2, 147756, Note_on_c, 1, 43, 36
2, 147764, Control_c, 1, 64, 0
2, 147784, Note_on_c, 1, 74, 66
2, 147788, Note_on_c, 1, 71, 58
2, 147816, Control_c, 1, 64, 127
2, 147840, Note_off_c, 1, 43, 64
2, 148028, Note_on_c, 1, 73, 50
2, 148028, Note_on_c, 1, 70, 50
2, 148028, Control_c, 1, 64, 0
2, 148032, Note_on_c, 1, 53, 44
2, 148032, Note_on_c, 1, 59, 44
2, 148036, Note_on_c, 1, 55, 41
2, 148052, Note_off_c, 1, 71, 0
2, 148052, Note_off_c, 1, 55, 64
2, 148056, Note_off_c, 1, 53, 64
2, 148056, Note_off_c, 1, 59, 64
2, 148068, Note_off_c, 1, 74, 0
2, 148088, Note_off_c, 1, 73, 0
2, 148092, Note_off_c, 1, 70, 0
2, 148168, Note_on_c, 1, 74, 60
2, 148168, Note_on_c, 1, 71, 52
2, 148292, Note_on_c, 1, 47, 53
2, 148308, Control_c, 1, 64, 127
2, 148324, Note_off_c, 1, 47, 64
2, 148428, Note_on_c, 1, 73, 50
2, 148428, Note_on_c, 1, 70, 43
2, 148436, Note_off_c, 1, 74, 64
2, 148436, Note_off_c, 1, 71, 64
2, 148440, Control_c, 1, 64, 0
2, 148552, Note_off_c, 1, 73, 64
2, 148552, Note_off_c, 1, 70, 64
2, 148560, Note_on_c, 1, 74, 52
2, 148560, Note_on_c, 1, 53, 44
2, 148560, Note_on_c, 1, 55, 47
2, 148560, Note_on_c, 1, 71, 47
2, 148564, Note_on_c, 1, 59, 29
2, 148584, Note_off_c, 1, 55, 64
2, 148584, Note_off_c, 1, 59, 64
2, 148596, Note_off_c, 1, 53, 64
2, 148816, Note_on_c, 1, 43, 47
2, 148824, Control_c, 1, 64, 127
2, 148836, Note_off_c, 1, 43, 64
2, 148840, Note_off_c, 1, 71, 64
2, 148844, Note_off_c, 1, 74, 64
2, 148940, Note_on_c, 1, 77, 58
2, 148992, Note_off_c, 1, 77, 64
2, 149068, Note_on_c, 1, 81, 68
2, 149068, Control_c, 1, 64, 0
2, 149072, Note_on_c, 1, 71, 60
2, 149072, Note_on_c, 1, 59, 44
2, 149072, Note_on_c, 1, 53, 44
2, 149072, Note_on_c, 1, 55, 46
2, 149100, Control_c, 1, 64, 127
2, 149196, Note_off_c, 1, 81, 64
2, 149196, Note_on_c, 1, 77, 61
2, 149232, Note_off_c, 1, 55, 64
2, 149240, Note_off_c, 1, 59, 64
2, 149244, Note_off_c, 1, 53, 64
2, 149292, Note_off_c, 1, 77, 64
2, 149344, Note_on_c, 1, 79, 61
2, 149344, Note_on_c, 1, 50, 51
2, 149348, Control_c, 1, 64, 0
2, 149364, Note_off_c, 1, 71, 64
2, 149472, Note_on_c, 1, 81, 68
2, 149484, Note_off_c, 1, 79, 64
2, 149600, Note_on_c, 1, 79, 68
2, 149604, Note_off_c, 1, 81, 64
2, 149604, Note_on_c, 1, 59, 50
2, 149604, Note_on_c, 1, 53, 48
2, 149604, Note_on_c, 1, 55, 48
2, 149720, Control_c, 1, 64, 127
2, 149724, Note_off_c, 1, 79, 64
2, 149724, Control_c, 1, 64, 127
2, 149732, Note_off_c, 1, 53, 64
2, 149732, Note_on_c, 1, 77, 71
2, 149736, Note_off_c, 1, 59, 64
2, 149736, Note_off_c, 1, 55, 64
2, 149752, Note_off_c, 1, 50, 64
2, 149752, Note_off_c, 1, 77, 64
2, 149856, Note_on_c, 1, 51, 63
2, 149856, Note_on_c, 1, 60, 60
2, 149856, Control_c, 1, 64, 0
2, 149860, Note_on_c, 1, 84, 77
2, 149860, Note_on_c, 1, 54, 65
2, 149860, Note_on_c, 1, 72, 65
2, 149876, Note_off_c, 1, 54, 64
2, 149880, Note_off_c, 1, 72, 64
2, 149884, Note_off_c, 1, 51, 64
2, 149884, Note_off_c, 1, 84, 64
2, 149888, Note_off_c, 1, 60, 64
2, 149988, Note_on_c, 1, 84, 69
2, 149992, Note_on_c, 1, 51, 63
2, 149992, Note_on_c, 1, 54, 62
2, 149992, Note_on_c, 1, 60, 62
2, 149996, Note_on_c, 1, 72, 60
2, 150008, Note_off_c, 1, 54, 64
2, 150016, Note_off_c, 1, 84, 64
2, 150016, Note_off_c, 1, 51, 64
2, 150016, Note_off_c, 1, 60, 64
2, 150016, Note_off_c, 1, 72, 64
2, 150136, Note_on_c, 1, 51, 67
2, 150136, Note_on_c, 1, 60, 67
2, 150140, Note_on_c, 1, 84, 86
2, 150144, Note_on_c, 1, 54, 58
2, 150144, Note_on_c, 1, 72, 75
2, 150144, Control_c, 1, 64, 127
2, 150156, Note_off_c, 1, 54, 64
2, 150164, Note_off_c, 1, 51, 64
2, 150164, Note_off_c, 1, 60, 64
2, 150220, Note_off_c, 1, 84, 64
2, 150332, Note_off_c, 1, 72, 64
2, 150420, Note_on_c, 1, 81, 65
2, 150496, Note_on_c, 1, 78, 56
2, 150516, Control_c, 1, 64, 0
2, 150524, Note_off_c, 1, 81, 64
2, 150560, Note_on_c, 1, 75, 64
2, 150572, Note_off_c, 1, 78, 64
2, 150624, Note_off_c, 1, 75, 64
2, 150624, Note_on_c, 1, 72, 63
2, 150684, Note_on_c, 1, 69, 67
2, 150744, Note_on_c, 1, 66, 64
2, 150760, Note_off_c, 1, 69, 64
2, 150784, Note_off_c, 1, 72, 64
2, 150800, Note_off_c, 1, 66, 64
2, 150804, Note_on_c, 1, 63, 54
2, 150848, Note_off_c, 1, 63, 64
2, 150916, Note_on_c, 1, 64, 66
2, 150928, Note_on_c, 1, 67, 57
2, 150932, Note_on_c, 1, 72, 65
2, 150932, Control_c, 1, 64, 127
2, 150944, Note_off_c, 1, 67, 64
2, 150952, Note_on_c, 1, 79, 73
2, 150956, Note_off_c, 1, 64, 64
2, 150972, Note_off_c, 1, 72, 64
2, 150988, Note_off_c, 1, 79, 64
2, 151176, Note_on_c, 1, 67, 73
2, 151176, Note_on_c, 1, 64, 62
2, 151192, Control_c, 1, 64, 0
2, 151212, Note_off_c, 1, 67, 64
2, 151216, Note_off_c, 1, 64, 64
2, 151300, Note_on_c, 1, 67, 75
2, 151300, Note_on_c, 1, 64, 64
2, 151340, Note_off_c, 1, 67, 64
2, 151340, Note_off_c, 1, 64, 64
2, 151444, Note_on_c, 1, 67, 69
2, 151460, Note_on_c, 1, 64, 61
2, 151484, Note_off_c, 1, 67, 64
2, 151492, Note_off_c, 1, 64, 64
2, 151764, Note_on_c, 1, 67, 66
2, 151764, Note_on_c, 1, 64, 54
2, 151796, Note_off_c, 1, 67, 64
2, 151800, Note_off_c, 1, 64, 64
2, 152060, Note_on_c, 1, 41, 58
2, 152060, Control_c, 1, 64, 127
2, 152072, Note_on_c, 1, 65, 46
2, 152080, Note_off_c, 1, 41, 64
2, 152080, Note_on_c, 1, 62, 28
2, 152308, Control_c, 1, 64, 0
2, 152316, Note_off_c, 1, 62, 64
2, 152320, Note_on_c, 1, 61, 34
2, 152320, Note_on_c, 1, 53, 44
2, 152324, Note_off_c, 1, 65, 64
2, 152324, Note_on_c, 1, 57, 35
2, 152344, Note_off_c, 1, 53, 64
2, 152348, Note_off_c, 1, 61, 64
2, 152348, Note_off_c, 1, 57, 64
2, 152456, Note_on_c, 1, 65, 50
2, 152460, Note_on_c, 1, 62, 33
2, 152580, Note_on_c, 1, 45, 48
2, 152580, Control_c, 1, 64, 127
2, 152592, Note_off_c, 1, 45, 64
2, 152640, Note_off_c, 1, 65, 64
2, 152652, Note_off_c, 1, 62, 64
2, 152708, Note_on_c, 1, 61, 39
2, 152708, Note_on_c, 1, 64, 50
2, 152728, Note_off_c, 1, 61, 64
2, 152732, Note_off_c, 1, 64, 64
2, 152800, Control_c, 1, 64, 0
2, 152836, Note_on_c, 1, 53, 41
2, 152836, Note_on_c, 1, 65, 49
2, 152836, Control_c, 1, 64, 127
2, 152840, Note_on_c, 1, 62, 35
2, 152840, Note_on_c, 1, 57, 34
2, 152856, Note_off_c, 1, 53, 64
2, 152856, Note_off_c, 1, 57, 64
2, 152880, Note_off_c, 1, 62, 64
2, 152900, Note_off_c, 1, 65, 64
2, 153064, Control_c, 1, 64, 0
2, 153088, Note_on_c, 1, 41, 62
2, 153104, Note_off_c, 1, 41, 64
2, 153344, Note_on_c, 1, 98, 49
2, 153352, Note_on_c, 1, 57, 44
2, 153352, Note_on_c, 1, 53, 41
2, 153440, Note_off_c, 1, 98, 64
2, 153440, Note_on_c, 1, 93, 51
2, 153520, Note_off_c, 1, 93, 64
2, 153520, Note_on_c, 1, 89, 57
2, 153588, Note_off_c, 1, 57, 64
2, 153592, Note_off_c, 1, 53, 64
2, 153592, Note_off_c, 1, 89, 64
2, 153592, Note_on_c, 1, 45, 53
2, 153596, Note_on_c, 1, 86, 59
2, 153656, Note_off_c, 1, 86, 64
2, 153700, Note_on_c, 1, 81, 64
2, 153752, Note_off_c, 1, 81, 64
2, 153792, Note_on_c, 1, 77, 71
2, 153868, Note_off_c, 1, 77, 64
2, 153872, Note_on_c, 1, 57, 50
2, 153872, Note_on_c, 1, 74, 72
2, 153872, Note_on_c, 1, 53, 48
2, 153880, Note_off_c, 1, 45, 0
2, 153928, Note_off_c, 1, 74, 64
2, 153940, Note_off_c, 1, 53, 64
2, 153960, Note_on_c, 1, 69, 76
2, 153992, Note_off_c, 1, 57, 64
2, 154040, Note_off_c, 1, 69, 64
2, 154048, Note_on_c, 1, 68, 68
2, 154140, Note_off_c, 1, 68, 64
2, 154160, Note_on_c, 1, 48, 69
2, 154164, Note_on_c, 1, 67, 84
2, 154164, Note_on_c, 1, 64, 52
2, 154168, Control_c, 1, 64, 0
2, 154404, Note_on_c, 1, 66, 49
2, 154404, Note_on_c, 1, 63, 44
2, 154408, Note_off_c, 1, 64, 64
2, 154412, Note_off_c, 1, 67, 64
2, 154416, Note_on_c, 1, 60, 48
2, 154416, Note_on_c, 1, 52, 44
2, 154416, Note_on_c, 1, 55, 47
2, 154424, Control_c, 1, 64, 127
2, 154432, Note_off_c, 1, 66, 64
2, 154432, Note_off_c, 1, 63, 64
2, 154444, Note_off_c, 1, 48, 64
2, 154444, Note_off_c, 1, 60, 64
2, 154448, Note_off_c, 1, 55, 64
2, 154484, Note_off_c, 1, 52, 64
2, 154532, Note_on_c, 1, 67, 53
2, 154536, Note_on_c, 1, 64, 53
2, 154580, Control_c, 1, 64, 0
2, 154668, Note_on_c, 1, 43, 56
2, 154672, Control_c, 1, 64, 127
2, 154680, Note_off_c, 1, 43, 64
2, 154796, Note_on_c, 1, 66, 49
2, 154800, Note_off_c, 1, 67, 0
2, 154800, Note_off_c, 1, 64, 0
2, 154800, Note_on_c, 1, 63, 40
2, 154812, Control_c, 1, 64, 0
2, 154836, Note_off_c, 1, 66, 64
2, 154836, Note_off_c, 1, 63, 64
2, 154924, Note_on_c, 1, 52, 45
2, 154928, Note_on_c, 1, 55, 46
2, 154928, Note_on_c, 1, 60, 36
2, 154928, Note_on_c, 1, 67, 51
2, 154932, Note_on_c, 1, 64, 50
2, 154948, Note_off_c, 1, 55, 64
2, 154948, Note_off_c, 1, 60, 64
2, 154952, Note_off_c, 1, 52, 64
2, 155080, Note_off_c, 1, 64, 64
2, 155100, Note_off_c, 1, 67, 64
2, 155184, Note_on_c, 1, 48, 61
2, 155192, Control_c, 1, 64, 0
2, 155312, Note_on_c, 1, 72, 50
2, 155316, Control_c, 1, 64, 127
2, 155332, Note_off_c, 1, 72, 64
2, 155336, Note_off_c, 1, 48, 64
2, 155448, Note_on_c, 1, 52, 41
2, 155448, Note_on_c, 1, 76, 61
2, 155448, Note_on_c, 1, 60, 44
2, 155448, Note_on_c, 1, 67, 61
2, 155456, Note_off_c, 1, 60, 64
2, 155460, Note_off_c, 1, 52, 64
2, 155564, Note_off_c, 1, 76, 64
2, 155584, Note_on_c, 1, 72, 61
2, 155704, Note_off_c, 1, 72, 64
2, 155704, Control_c, 1, 64, 0
2, 155708, Note_on_c, 1, 43, 58
2, 155712, Note_on_c, 1, 74, 73
2, 155740, Control_c, 1, 64, 127
2, 155764, Note_off_c, 1, 43, 0
2, 155840, Note_off_c, 1, 74, 0
2, 155840, Note_on_c, 1, 76, 71
2, 155968, Note_on_c, 1, 55, 49
2, 155968, Note_on_c, 1, 52, 47
2, 155972, Note_on_c, 1, 60, 46
2, 155972, Note_on_c, 1, 74, 80
2, 155976, Note_off_c, 1, 76, 64
2, 155980, Note_off_c, 1, 55, 64
2, 155984, Note_off_c, 1, 60, 64
2, 155988, Note_off_c, 1, 52, 64
2, 156104, Note_off_c, 1, 74, 64
2, 156108, Note_off_c, 1, 67, 0
2, 156108, Note_on_c, 1, 72, 66
2, 156216, Control_c, 1, 64, 0
2, 156220, Note_off_c, 1, 72, 64
2, 156224, Note_on_c, 1, 69, 64
2, 156224, Note_on_c, 1, 41, 55
2, 156232, Note_on_c, 1, 53, 73
2, 156256, Control_c, 1, 64, 127
2, 156312, Note_off_c, 1, 69, 64
2, 156316, Note_off_c, 1, 53, 64
2, 156348, Note_off_c, 1, 41, 64
2, 156360, Note_on_c, 1, 68, 60
2, 156408, Note_off_c, 1, 68, 64
2, 156484, Note_on_c, 1, 38, 66
2, 156484, Note_on_c, 1, 50, 58
2, 156488, Note_on_c, 1, 69, 66
2, 156488, Control_c, 1, 64, 0
2, 156544, Note_off_c, 1, 69, 64
2, 156628, Note_on_c, 1, 79, 76
2, 156628, Note_on_c, 1, 69, 73
2, 156632, Control_c, 1, 64, 127
2, 156640, Note_off_c, 1, 38, 64
2, 156640, Note_off_c, 1, 50, 64
2, 156752, Note_on_c, 1, 40, 60
2, 156760, Note_on_c, 1, 52, 56
2, 156760, Control_c, 1, 64, 0
2, 156816, Note_off_c, 1, 69, 0
2, 156824, Note_off_c, 1, 79, 0
2, 156884, Control_c, 1, 64, 127
2, 156888, Note_on_c, 1, 77, 64
2, 156892, Note_on_c, 1, 69, 64
2, 156908, Note_off_c, 1, 40, 64
2, 156908, Note_off_c, 1, 52, 64
2, 157016, Note_on_c, 1, 41, 61
2, 157016, Note_on_c, 1, 53, 68
2, 157020, Note_off_c, 1, 77, 64
2, 157020, Control_c, 1, 64, 0
2, 157024, Note_off_c, 1, 69, 64
2, 157136, Control_c, 1, 64, 127
2, 157148, Note_off_c, 1, 41, 64
2, 157148, Note_on_c, 1, 72, 66
2, 157148, Note_on_c, 1, 69, 68
2, 157160, Note_off_c, 1, 53, 64
2, 157172, Note_off_c, 1, 72, 64
2, 157176, Note_off_c, 1, 69, 64
2, 157268, Control_c, 1, 64, 0
2, 157276, Note_on_c, 1, 43, 73
2, 157276, Note_on_c, 1, 55, 64
2, 157280, Note_on_c, 1, 76, 68
2, 157280, Note_on_c, 1, 67, 60
2, 157304, Control_c, 1, 64, 127
2, 157328, Note_off_c, 1, 43, 64
2, 157336, Note_off_c, 1, 55, 64
2, 157392, Note_off_c, 1, 67, 64
2, 157400, Note_off_c, 1, 76, 64
2, 157400, Note_on_c, 1, 75, 80
2, 157528, Note_off_c, 1, 75, 64
2, 157528, Note_on_c, 1, 64, 55
2, 157528, Note_on_c, 1, 76, 52
2, 157532, Note_on_c, 1, 60, 48
2, 157532, Note_on_c, 1, 55, 56
2, 157576, Note_off_c, 1, 55, 64
2, 157584, Note_off_c, 1, 64, 64
2, 157584, Note_off_c, 1, 60, 64
2, 157664, Note_on_c, 1, 81, 73
2, 157796, Note_on_c, 1, 54, 58
2, 157796, Note_on_c, 1, 60, 64
2, 157796, Note_on_c, 1, 63, 53
2, 157796, Control_c, 1, 64, 0
2, 157924, Note_off_c, 1, 81, 0
2, 157924, Note_on_c, 1, 84, 71
2, 157928, Control_c, 1, 64, 127
2, 157944, Note_off_c, 1, 54, 64
2, 157952, Note_off_c, 1, 63, 64
2, 157960, Note_off_c, 1, 60, 64
2, 158048, Note_off_c, 1, 76, 0
2, 158056, Note_on_c, 1, 79, 73
2, 158060, Note_on_c, 1, 64, 53
2, 158060, Note_on_c, 1, 55, 53
2, 158060, Note_on_c, 1, 60, 51
2, 158064, Control_c, 1, 64, 0
2, 158116, Control_c, 1, 64, 127
2, 158152, Note_off_c, 1, 64, 64
2, 158164, Note_off_c, 1, 60, 64
2, 158176, Note_off_c, 1, 55, 64
2, 158192, Note_off_c, 1, 79, 64
2, 158196, Note_on_c, 1, 76, 64
2, 158208, Note_off_c, 1, 84, 64
2, 158208, Note_off_c, 1, 76, 64
2, 158320, Control_c, 1, 64, 0
2, 158328, Note_on_c, 1, 72, 60
2, 158328, Note_on_c, 1, 66, 44
2, 158328, Note_on_c, 1, 45, 47
2, 158328, Note_on_c, 1, 57, 25
2, 158364, Control_c, 1, 64, 127
2, 158368, Note_off_c, 1, 57, 64
2, 158380, Note_off_c, 1, 45, 64
2, 158392, Note_off_c, 1, 66, 64
2, 158396, Note_off_c, 1, 72, 64
2, 158396, Control_c, 1, 64, 0
2, 158572, Note_on_c, 1, 38, 46
2, 158572, Control_c, 1, 64, 127
2, 158580, Note_on_c, 1, 50, 44
2, 158580, Note_on_c, 1, 72, 56
2, 158580, Note_on_c, 1, 66, 46
2, 158596, Note_off_c, 1, 38, 64
2, 158596, Note_off_c, 1, 50, 64
2, 158628, Note_off_c, 1, 72, 64
2, 158632, Note_off_c, 1, 66, 64
2, 158800, Control_c, 1, 64, 0
2, 158832, Note_on_c, 1, 43, 48
2, 158832, Note_on_c, 1, 55, 44
2, 158836, Note_on_c, 1, 76, 58
2, 158840, Note_on_c, 1, 65, 55
2, 158844, Note_on_c, 1, 71, 48
2, 158856, Control_c, 1, 64, 127
2, 158864, Note_off_c, 1, 43, 64
2, 158868, Note_off_c, 1, 55, 64
2, 158884, Note_off_c, 1, 76, 64
2, 158884, Note_off_c, 1, 65, 64
2, 158884, Note_off_c, 1, 71, 64
2, 158968, Control_c, 1, 64, 0
2, 158972, Note_on_c, 1, 74, 55
2, 158976, Note_on_c, 1, 65, 51
2, 158976, Note_on_c, 1, 71, 48
2, 159092, Control_c, 1, 64, 127
2, 159096, Note_off_c, 1, 74, 64
2, 159096, Note_off_c, 1, 65, 64
2, 159096, Note_off_c, 1, 71, 64
2, 159096, Note_on_c, 1, 47, 52
2, 159096, Note_on_c, 1, 59, 51
2, 159120, Note_off_c, 1, 47, 64
2, 159124, Note_off_c, 1, 59, 64
2, 159232, Control_c, 1, 64, 0
2, 159236, Note_on_c, 1, 67, 51
2, 159240, Note_on_c, 1, 72, 55
2, 159240, Note_on_c, 1, 64, 52
2, 159364, Note_on_c, 1, 60, 50
2, 159364, Note_on_c, 1, 48, 52
2, 159384, Note_off_c, 1, 60, 64
2, 159384, Note_off_c, 1, 48, 64
2, 159640, Note_off_c, 1, 67, 64
2, 159640, Note_off_c, 1, 64, 64
2, 159648, Note_on_c, 1, 55, 56
2, 159648, Note_on_c, 1, 43, 55
2, 159652, Note_off_c, 1, 72, 64
2, 159668, Note_off_c, 1, 55, 64
2, 159672, Note_off_c, 1, 43, 64
2, 159984, Note_on_c, 1, 84, 84
2, 159988, Note_on_c, 1, 76, 101
2, 159988, Note_on_c, 1, 79, 101
2, 159988, Note_on_c, 1, 72, 97
2, 159988, Note_on_c, 1, 43, 88
2, 159992, Note_on_c, 1, 36, 68
2, 159992, Note_on_c, 1, 48, 80
2, 159992, Control_c, 1, 64, 127
2, 160048, Note_off_c, 1, 76, 64
2, 160048, Note_off_c, 1, 79, 64
2, 160048, Note_off_c, 1, 72, 64
2, 160052, Note_off_c, 1, 43, 64
2, 160052, Note_off_c, 1, 48, 64
2, 160060, Note_off_c, 1, 36, 64
2, 160064, Note_off_c, 1, 84, 64
2, 160176, Control_c, 1, 64, 0
2, 160176, End_track
3, 0, Start_track
3, 0, Title_t, "Alessandro Simonetto, piano"
3, 0, Key_signature, 0, "major"
3, 0, End_track
4, 0, Start_track
4, 0, Title_t, "Info: www.kunstderfuge.com/ragtime.htm!"
4, 0, Key_signature, 0, "major"
4, 0, End_track
5, 0, Start_track
5, 0, Title_t, "All rights reserved,  2003"
5, 0, Key_signature, 0, "major"
5, 0, End_track
6, 0, Start_track
6, 0, Key_signature, 0, "major"
6, 0, End_track
7, 0, Start_track
7, 0, Key_signature, 0, "major"
7, 0, End_track
8, 0, Start_track
8, 0, Key_signature, 0, "major"
8, 0, End_track
9, 0, Start_track
9, 0, Key_signature, 0, "major"
9, 0, End_track
10, 0, Start_track
10, 0, Key_signature, 0, "major"
10, 0, End_track
11, 0, Start_track
11, 0, Key_signature, 0, "major"
11, 0, End_track
12, 0, Start_track
12, 0, Key_signature, 0, "major"
12, 0, End_track
13, 0, Start_track
13, 0, Key_signature, 0, "major"
13, 0, End_track
14, 0, Start_track
14, 1, Copyright_t, "___________________________________________________\012\012KUNSTDERFUGE.COM LARGE CLASSICAL MIDI COLLECTION\012ONCLASSICAL BY ALESSANDRO SIMONETTO, PROPRIETOR\012___________________________________________________\012\012! Attention: this file is under copyright !\012\012(c)onclassical, (c)simonetto, 2010\012___________________________________________________\012\012NO ONE MAY REPUBLISH THIS FILE WITHOUT PERMISSION\012COMMERCIAL USES OF THIS FILE IS STRICTLY PROHIBITED\012___________________________________________________\012\012Files & contributor's list: http://kunstderfuge.com/\012Terms and conditions: http://kunstderfuge.com/notes.htm"
14, 1, End_track
0, 0, End_of_file
