0, 0, Header, 1, 3, 192
1, 0, Start_track
1, 0, Title_t, "QRS roll #9857 Joplin Ragtime Medley, c/b Scott Joplin, a and p/b J. Lawrence Cook "
1, 0, Title_t, "Scanned by Terry Smythe, Winnipeg, Canada "
1, 0, Time_signature, 4, 2, 24, 8
1, 0, Key_signature, 0, "major"
1, 0, Tempo, 500000
1, 0, Marker_t, "Standard MIDI:LPI 280:Tempo  90: 04-06-2003"
1, 0, End_track
2, 0, Start_track
2, 0, Title_t, ""
2, 768, Control_c, 0, 64, 127
2, 816, Note_on_c, 0, 74, 46
2, 817, Note_on_c, 0, 86, 45
2, 819, Note_on_c, 0, 98, 45
2, 883, Note_on_c, 0, 74, 0
2, 885, Note_on_c, 0, 86, 0
2, 887, Note_on_c, 0, 98, 0
2, 888, Note_on_c, 0, 76, 41
2, 890, Note_on_c, 0, 88, 47
2, 892, Note_on_c, 0, 100, 47
2, 925, Note_on_c, 0, 76, 0
2, 927, Note_on_c, 0, 88, 0
2, 929, Note_on_c, 0, 100, 0
2, 932, Note_on_c, 0, 72, 47
2, 934, Note_on_c, 0, 84, 47
2, 936, Note_on_c, 0, 96, 43
2, 971, Note_on_c, 0, 84, 0
2, 973, Note_on_c, 0, 96, 0
2, 981, Note_on_c, 0, 72, 0
2, 1024, Note_on_c, 0, 69, 48
2, 1026, Note_on_c, 0, 81, 43
2, 1027, Note_on_c, 0, 93, 45
2, 1146, Note_on_c, 0, 69, 0
2, 1148, Note_on_c, 0, 81, 0
2, 1150, Control_c, 0, 64, 0
2, 1152, Note_on_c, 0, 93, 0
2, 1154, Note_on_c, 0, 71, 44
2, 1156, Note_on_c, 0, 83, 43
2, 1157, Note_on_c, 0, 95, 45
2, 1192, Note_on_c, 0, 71, 0
2, 1194, Note_on_c, 0, 83, 0
2, 1200, Note_on_c, 0, 95, 0
2, 1200, Note_on_c, 0, 67, 47
2, 1202, Note_on_c, 0, 79, 47
2, 1204, Note_on_c, 0, 91, 45
2, 1251, Note_on_c, 0, 67, 0
2, 1253, Note_on_c, 0, 79, 0
2, 1259, Note_on_c, 0, 91, 0
2, 1344, Note_on_c, 0, 62, 46
2, 1344, Note_on_c, 0, 74, 48
2, 1346, Note_on_c, 0, 86, 42
2, 1423, Note_on_c, 0, 62, 0
2, 1424, Note_on_c, 0, 74, 0
2, 1426, Note_on_c, 0, 86, 0
2, 1433, Note_on_c, 0, 64, 46
2, 1435, Note_on_c, 0, 76, 41
2, 1437, Note_on_c, 0, 88, 45
2, 1472, Note_on_c, 0, 64, 0
2, 1473, Note_on_c, 0, 76, 0
2, 1479, Note_on_c, 0, 88, 0
2, 1481, Note_on_c, 0, 60, 43
2, 1483, Note_on_c, 0, 72, 41
2, 1485, Note_on_c, 0, 84, 43
2, 1519, Note_on_c, 0, 60, 0
2, 1521, Note_on_c, 0, 72, 0
2, 1523, Note_on_c, 0, 84, 0
2, 1574, Note_on_c, 0, 57, 48
2, 1576, Note_on_c, 0, 69, 44
2, 1578, Note_on_c, 0, 81, 43
2, 1698, Note_on_c, 0, 57, 0
2, 1700, Note_on_c, 0, 69, 0
2, 1701, Note_on_c, 0, 81, 0
2, 1707, Note_on_c, 0, 59, 44
2, 1708, Note_on_c, 0, 71, 44
2, 1710, Note_on_c, 0, 83, 46
2, 1742, Note_on_c, 0, 59, 0
2, 1744, Note_on_c, 0, 71, 0
2, 1746, Note_on_c, 0, 83, 0
2, 1751, Note_on_c, 0, 55, 42
2, 1752, Note_on_c, 0, 67, 45
2, 1754, Note_on_c, 0, 79, 41
2, 1798, Note_on_c, 0, 55, 0
2, 1800, Note_on_c, 0, 67, 0
2, 1801, Note_on_c, 0, 79, 0
2, 1887, Note_on_c, 0, 50, 47
2, 1889, Note_on_c, 0, 62, 44
2, 1890, Note_on_c, 0, 74, 43
2, 1964, Note_on_c, 0, 50, 0
2, 1966, Note_on_c, 0, 62, 0
2, 1967, Note_on_c, 0, 74, 0
2, 1971, Note_on_c, 0, 52, 44
2, 1973, Note_on_c, 0, 64, 41
2, 1975, Note_on_c, 0, 76, 45
2, 2009, Note_on_c, 0, 52, 0
2, 2011, Note_on_c, 0, 64, 0
2, 2012, Note_on_c, 0, 76, 0
2, 2019, Note_on_c, 0, 48, 41
2, 2021, Note_on_c, 0, 60, 45
2, 2023, Note_on_c, 0, 72, 48
2, 2059, Note_on_c, 0, 48, 0
2, 2061, Note_on_c, 0, 60, 0
2, 2062, Note_on_c, 0, 72, 0
2, 2077, Control_c, 0, 64, 127
2, 2115, Note_on_c, 0, 45, 45
2, 2117, Note_on_c, 0, 57, 44
2, 2119, Note_on_c, 0, 69, 43
2, 2160, Control_c, 0, 64, 0
2, 2243, Note_on_c, 0, 45, 0
2, 2245, Note_on_c, 0, 57, 0
2, 2247, Note_on_c, 0, 69, 0
2, 2253, Note_on_c, 0, 47, 42
2, 2255, Note_on_c, 0, 59, 48
2, 2256, Note_on_c, 0, 71, 41
2, 2291, Note_on_c, 0, 47, 0
2, 2293, Note_on_c, 0, 59, 0
2, 2295, Note_on_c, 0, 71, 0
2, 2301, Note_on_c, 0, 45, 42
2, 2303, Note_on_c, 0, 57, 44
2, 2304, Note_on_c, 0, 69, 43
2, 2373, Note_on_c, 0, 45, 0
2, 2385, Note_on_c, 0, 57, 0
2, 2387, Note_on_c, 0, 69, 0
2, 2392, Note_on_c, 0, 44, 48
2, 2394, Note_on_c, 0, 56, 46
2, 2396, Note_on_c, 0, 68, 45
2, 2431, Note_on_c, 0, 44, 0
2, 2433, Note_on_c, 0, 56, 0
2, 2435, Note_on_c, 0, 68, 0
2, 2441, Note_on_c, 0, 43, 44
2, 2443, Note_on_c, 0, 55, 47
2, 2445, Note_on_c, 0, 67, 45
2, 2492, Note_on_c, 0, 43, 0
2, 2493, Note_on_c, 0, 55, 0
2, 2495, Note_on_c, 0, 67, 0
2, 2578, Note_on_c, 0, 38, 41
2, 2670, Note_on_c, 0, 74, 41
2, 2685, Note_on_c, 0, 74, 0
2, 2693, Note_on_c, 0, 76, 42
2, 2703, Note_on_c, 0, 38, 0
2, 2704, Note_on_c, 0, 77, 45
2, 2707, Note_on_c, 0, 76, 0
2, 2711, Note_on_c, 0, 31, 45
2, 2712, Note_on_c, 0, 43, 47
2, 2713, Note_on_c, 0, 67, 41
2, 2714, Note_on_c, 0, 71, 42
2, 2714, Note_on_c, 0, 74, 46
2, 2714, Note_on_c, 0, 79, 44
2, 2717, Note_on_c, 0, 77, 0
2, 2746, Note_on_c, 0, 31, 0
2, 2756, Note_on_c, 0, 43, 0
2, 2758, Note_on_c, 0, 67, 0
2, 2759, Note_on_c, 0, 74, 0
2, 2760, Note_on_c, 0, 79, 0
2, 2772, Note_on_c, 0, 71, 0
2, 2839, Note_on_c, 0, 62, 44
2, 2840, Note_on_c, 0, 74, 44
2, 2904, Note_on_c, 0, 74, 0
2, 2904, Note_on_c, 0, 62, 0
2, 2922, Note_on_c, 0, 63, 43
2, 2923, Note_on_c, 0, 75, 41
2, 2955, Note_on_c, 0, 63, 0
2, 2957, Note_on_c, 0, 75, 0
2, 2957, Note_on_c, 0, 36, 42
2, 2959, Note_on_c, 0, 48, 41
2, 2961, Note_on_c, 0, 64, 44
2, 2961, Note_on_c, 0, 67, 43
2, 2962, Note_on_c, 0, 72, 47
2, 2962, Note_on_c, 0, 76, 47
2, 2999, Note_on_c, 0, 67, 0
2, 2999, Note_on_c, 0, 64, 0
2, 3000, Note_on_c, 0, 76, 0
2, 3006, Note_on_c, 0, 36, 0
2, 3008, Note_on_c, 0, 48, 0
2, 3011, Note_on_c, 0, 72, 0
2, 3053, Note_on_c, 0, 72, 47
2, 3067, Note_on_c, 0, 84, 43
2, 3106, Note_on_c, 0, 52, 42
2, 3106, Note_on_c, 0, 55, 44
2, 3107, Note_on_c, 0, 60, 43
2, 3129, Note_on_c, 0, 52, 0
2, 3130, Note_on_c, 0, 55, 0
2, 3131, Note_on_c, 0, 60, 0
2, 3176, Note_on_c, 0, 84, 0
2, 3180, Note_on_c, 0, 64, 47
2, 3186, Note_on_c, 0, 72, 0
2, 3193, Note_on_c, 0, 76, 47
2, 3217, Note_on_c, 0, 64, 0
2, 3219, Note_on_c, 0, 76, 0
2, 3225, Note_on_c, 0, 55, 45
2, 3227, Note_on_c, 0, 72, 41
2, 3235, Note_on_c, 0, 43, 46
2, 3240, Note_on_c, 0, 84, 44
2, 3272, Note_on_c, 0, 43, 0
2, 3274, Note_on_c, 0, 55, 0
2, 3312, Note_on_c, 0, 84, 0
2, 3323, Note_on_c, 0, 72, 0
2, 3361, Note_on_c, 0, 52, 43
2, 3361, Note_on_c, 0, 55, 42
2, 3361, Note_on_c, 0, 58, 44
2, 3362, Note_on_c, 0, 60, 42
2, 3362, Note_on_c, 0, 64, 48
2, 3364, Note_on_c, 0, 76, 42
2, 3378, Control_c, 0, 64, 127
2, 3385, Note_on_c, 0, 52, 0
2, 3386, Note_on_c, 0, 60, 0
2, 3386, Note_on_c, 0, 55, 0
2, 3386, Note_on_c, 0, 58, 0
2, 3398, Note_on_c, 0, 64, 0
2, 3400, Note_on_c, 0, 76, 0
2, 3453, Note_on_c, 0, 72, 47
2, 3455, Note_on_c, 0, 84, 47
2, 3495, Note_on_c, 0, 41, 46
2, 3497, Note_on_c, 0, 53, 46
2, 3543, Note_on_c, 0, 41, 0
2, 3545, Note_on_c, 0, 53, 0
2, 3563, Control_c, 0, 64, 0
2, 3589, Note_on_c, 0, 62, 44
2, 3624, Note_on_c, 0, 69, 44
2, 3625, Note_on_c, 0, 62, 0
2, 3633, Note_on_c, 0, 60, 42
2, 3634, Note_on_c, 0, 65, 44
2, 3661, Note_on_c, 0, 65, 0
2, 3661, Note_on_c, 0, 69, 0
2, 3716, Note_on_c, 0, 60, 0
2, 3723, Note_on_c, 0, 57, 44
2, 3758, Note_on_c, 0, 57, 0
2, 3765, Note_on_c, 0, 40, 42
2, 3767, Note_on_c, 0, 52, 45
2, 3768, Note_on_c, 0, 60, 44
2, 3805, Note_on_c, 0, 84, 0
2, 3811, Note_on_c, 0, 40, 0
2, 3812, Note_on_c, 0, 52, 0
2, 3815, Note_on_c, 0, 72, 0
2, 3847, Note_on_c, 0, 60, 0
2, 3857, Note_on_c, 0, 72, 42
2, 3858, Note_on_c, 0, 76, 45
2, 3860, Note_on_c, 0, 84, 42
2, 3883, Note_on_c, 0, 76, 0
2, 3883, Note_on_c, 0, 72, 0
2, 3884, Note_on_c, 0, 84, 0
2, 3889, Note_on_c, 0, 52, 44
2, 3890, Note_on_c, 0, 55, 42
2, 3891, Note_on_c, 0, 60, 46
2, 3892, Note_on_c, 0, 74, 46
2, 3893, Note_on_c, 0, 77, 45
2, 3894, Note_on_c, 0, 86, 47
2, 3914, Note_on_c, 0, 52, 0
2, 3915, Note_on_c, 0, 55, 0
2, 3916, Note_on_c, 0, 60, 0
2, 3970, Note_on_c, 0, 74, 0
2, 3971, Note_on_c, 0, 77, 0
2, 3972, Note_on_c, 0, 86, 0
2, 3979, Note_on_c, 0, 75, 47
2, 3979, Note_on_c, 0, 78, 44
2, 3981, Note_on_c, 0, 87, 44
2, 4014, Note_on_c, 0, 78, 0
2, 4014, Note_on_c, 0, 75, 0
2, 4016, Note_on_c, 0, 87, 0
2, 4018, Note_on_c, 0, 43, 41
2, 4020, Note_on_c, 0, 55, 46
2, 4022, Note_on_c, 0, 76, 45
2, 4023, Note_on_c, 0, 79, 45
2, 4025, Note_on_c, 0, 88, 42
2, 4057, Note_on_c, 0, 76, 0
2, 4065, Note_on_c, 0, 43, 0
2, 4066, Note_on_c, 0, 55, 0
2, 4092, Note_on_c, 0, 79, 0
2, 4098, Note_on_c, 0, 88, 0
2, 4111, Note_on_c, 0, 72, 46
2, 4112, Note_on_c, 0, 76, 41
2, 4113, Note_on_c, 0, 84, 46
2, 4149, Note_on_c, 0, 76, 0
2, 4149, Note_on_c, 0, 72, 0
2, 4151, Note_on_c, 0, 84, 0
2, 4156, Note_on_c, 0, 52, 44
2, 4156, Note_on_c, 0, 55, 43
2, 4158, Note_on_c, 0, 60, 48
2, 4160, Note_on_c, 0, 74, 47
2, 4161, Note_on_c, 0, 77, 46
2, 4162, Note_on_c, 0, 86, 44
2, 4180, Note_on_c, 0, 52, 0
2, 4181, Note_on_c, 0, 55, 0
2, 4182, Note_on_c, 0, 60, 0
2, 4196, Note_on_c, 0, 74, 0
2, 4196, Note_on_c, 0, 77, 0
2, 4198, Note_on_c, 0, 86, 0
2, 4250, Note_on_c, 0, 76, 46
2, 4251, Note_on_c, 0, 79, 43
2, 4253, Note_on_c, 0, 88, 41
2, 4290, Note_on_c, 0, 31, 42
2, 4291, Note_on_c, 0, 43, 41
2, 4335, Note_on_c, 0, 31, 0
2, 4337, Note_on_c, 0, 43, 0
2, 4362, Note_on_c, 0, 76, 0
2, 4363, Note_on_c, 0, 79, 0
2, 4380, Note_on_c, 0, 88, 0
2, 4382, Note_on_c, 0, 71, 42
2, 4382, Note_on_c, 0, 74, 44
2, 4384, Note_on_c, 0, 83, 44
2, 4397, Note_on_c, 0, 74, 0
2, 4418, Note_on_c, 0, 71, 0
2, 4420, Note_on_c, 0, 83, 0
2, 4425, Note_on_c, 0, 53, 45
2, 4426, Note_on_c, 0, 55, 48
2, 4427, Note_on_c, 0, 59, 45
2, 4429, Note_on_c, 0, 74, 48
2, 4430, Note_on_c, 0, 77, 46
2, 4431, Note_on_c, 0, 86, 44
2, 4453, Note_on_c, 0, 55, 0
2, 4453, Note_on_c, 0, 53, 0
2, 4454, Note_on_c, 0, 59, 0
2, 4549, Note_on_c, 0, 86, 0
2, 4559, Note_on_c, 0, 74, 0
2, 4560, Note_on_c, 0, 77, 0
2, 4561, Note_on_c, 0, 36, 42
2, 4563, Note_on_c, 0, 48, 43
2, 4566, Note_on_c, 0, 72, 47
2, 4567, Note_on_c, 0, 76, 41
2, 4567, Note_on_c, 0, 84, 45
2, 4699, Note_on_c, 0, 55, 47
2, 4700, Note_on_c, 0, 60, 47
2, 4701, Note_on_c, 0, 64, 43
2, 4724, Note_on_c, 0, 55, 0
2, 4725, Note_on_c, 0, 60, 0
2, 4726, Note_on_c, 0, 64, 0
2, 4832, Note_on_c, 0, 55, 48
2, 4832, Note_on_c, 0, 60, 48
2, 4833, Note_on_c, 0, 64, 44
2, 4855, Note_on_c, 0, 55, 0
2, 4856, Note_on_c, 0, 64, 0
2, 4856, Note_on_c, 0, 60, 0
2, 4907, Note_on_c, 0, 36, 0
2, 4909, Note_on_c, 0, 48, 0
2, 4911, Note_on_c, 0, 72, 0
2, 4912, Note_on_c, 0, 76, 0
2, 4913, Note_on_c, 0, 84, 0
2, 4957, Note_on_c, 0, 31, 45
2, 4959, Note_on_c, 0, 43, 44
2, 4961, Note_on_c, 0, 62, 41
2, 4963, Note_on_c, 0, 74, 43
2, 5040, Note_on_c, 0, 31, 0
2, 5041, Note_on_c, 0, 43, 0
2, 5044, Note_on_c, 0, 62, 0
2, 5046, Note_on_c, 0, 74, 0
2, 5052, Note_on_c, 0, 63, 48
2, 5054, Note_on_c, 0, 75, 43
2, 5090, Note_on_c, 0, 75, 0
2, 5092, Note_on_c, 0, 36, 47
2, 5094, Note_on_c, 0, 48, 42
2, 5096, Note_on_c, 0, 64, 44
2, 5096, Note_on_c, 0, 67, 42
2, 5097, Note_on_c, 0, 72, 48
2, 5097, Note_on_c, 0, 76, 45
2, 5099, Note_on_c, 0, 63, 0
2, 5131, Note_on_c, 0, 64, 0
2, 5132, Note_on_c, 0, 67, 0
2, 5133, Note_on_c, 0, 72, 0
2, 5133, Note_on_c, 0, 76, 0
2, 5138, Note_on_c, 0, 36, 0
2, 5140, Note_on_c, 0, 48, 0
2, 5183, Note_on_c, 0, 72, 47
2, 5184, Note_on_c, 0, 84, 43
2, 5224, Note_on_c, 0, 52, 43
2, 5224, Note_on_c, 0, 55, 42
2, 5225, Note_on_c, 0, 60, 43
2, 5249, Note_on_c, 0, 52, 0
2, 5250, Note_on_c, 0, 55, 0
2, 5250, Note_on_c, 0, 60, 0
2, 5297, Note_on_c, 0, 72, 0
2, 5299, Note_on_c, 0, 84, 0
2, 5307, Control_c, 0, 64, 127
2, 5313, Note_on_c, 0, 64, 44
2, 5315, Note_on_c, 0, 76, 47
2, 5350, Note_on_c, 0, 64, 0
2, 5352, Note_on_c, 0, 76, 0
2, 5353, Note_on_c, 0, 43, 41
2, 5355, Note_on_c, 0, 55, 44
2, 5357, Note_on_c, 0, 72, 43
2, 5359, Note_on_c, 0, 84, 46
2, 5400, Note_on_c, 0, 43, 0
2, 5401, Note_on_c, 0, 55, 0
2, 5403, Note_on_c, 0, 72, 0
2, 5405, Note_on_c, 0, 84, 0
2, 5418, Control_c, 0, 64, 0
2, 5485, Note_on_c, 0, 52, 48
2, 5486, Note_on_c, 0, 55, 42
2, 5487, Note_on_c, 0, 58, 48
2, 5487, Note_on_c, 0, 60, 41
2, 5487, Note_on_c, 0, 64, 48
2, 5489, Note_on_c, 0, 76, 46
2, 5510, Note_on_c, 0, 52, 0
2, 5511, Note_on_c, 0, 55, 0
2, 5512, Note_on_c, 0, 60, 0
2, 5512, Note_on_c, 0, 58, 0
2, 5522, Note_on_c, 0, 64, 0
2, 5524, Note_on_c, 0, 76, 0
2, 5577, Note_on_c, 0, 72, 44
2, 5579, Note_on_c, 0, 84, 47
2, 5621, Note_on_c, 0, 41, 42
2, 5623, Note_on_c, 0, 53, 44
2, 5714, Note_on_c, 0, 62, 44
2, 5747, Note_on_c, 0, 41, 0
2, 5749, Note_on_c, 0, 53, 0
2, 5751, Note_on_c, 0, 62, 0
2, 5758, Note_on_c, 0, 60, 42
2, 5759, Note_on_c, 0, 65, 41
2, 5760, Note_on_c, 0, 69, 48
2, 5784, Note_on_c, 0, 69, 0
2, 5784, Note_on_c, 0, 65, 0
2, 5840, Note_on_c, 0, 60, 0
2, 5848, Note_on_c, 0, 57, 42
2, 5886, Note_on_c, 0, 57, 0
2, 5892, Note_on_c, 0, 40, 47
2, 5894, Note_on_c, 0, 52, 44
2, 5896, Note_on_c, 0, 60, 44
2, 5975, Note_on_c, 0, 40, 0
2, 5976, Note_on_c, 0, 52, 0
2, 5977, Note_on_c, 0, 60, 0
2, 5979, Note_on_c, 0, 84, 0
2, 5989, Note_on_c, 0, 72, 0
2, 6029, Note_on_c, 0, 39, 44
2, 6031, Note_on_c, 0, 51, 42
2, 6032, Note_on_c, 0, 72, 45
2, 6034, Note_on_c, 0, 69, 41
2, 6036, Note_on_c, 0, 81, 42
2, 6070, Note_on_c, 0, 72, 0
2, 6112, Note_on_c, 0, 69, 0
2, 6114, Note_on_c, 0, 81, 0
2, 6120, Note_on_c, 0, 67, 48
2, 6120, Note_on_c, 0, 72, 44
2, 6122, Note_on_c, 0, 79, 41
2, 6136, Note_on_c, 0, 72, 0
2, 6152, Note_on_c, 0, 39, 0
2, 6154, Note_on_c, 0, 51, 0
2, 6156, Note_on_c, 0, 67, 0
2, 6158, Note_on_c, 0, 79, 0
2, 6160, Note_on_c, 0, 38, 42
2, 6162, Note_on_c, 0, 50, 41
2, 6165, Note_on_c, 0, 66, 41
2, 6165, Note_on_c, 0, 72, 42
2, 6167, Note_on_c, 0, 78, 44
2, 6210, Note_on_c, 0, 38, 0
2, 6212, Note_on_c, 0, 50, 0
2, 6237, Note_on_c, 0, 72, 0
2, 6237, Note_on_c, 0, 66, 0
2, 6239, Note_on_c, 0, 78, 0
2, 6257, Note_on_c, 0, 69, 42
2, 6259, Note_on_c, 0, 81, 43
2, 6292, Note_on_c, 0, 69, 0
2, 6294, Note_on_c, 0, 81, 0
2, 6298, Note_on_c, 0, 50, 47
2, 6299, Note_on_c, 0, 57, 47
2, 6300, Note_on_c, 0, 60, 43
2, 6300, Note_on_c, 0, 72, 44
2, 6303, Note_on_c, 0, 84, 45
2, 6323, Note_on_c, 0, 50, 0
2, 6324, Note_on_c, 0, 57, 0
2, 6324, Note_on_c, 0, 60, 0
2, 6336, Note_on_c, 0, 72, 0
2, 6338, Note_on_c, 0, 84, 0
2, 6349, Control_c, 0, 64, 127
2, 6389, Note_on_c, 0, 76, 45
2, 6391, Note_on_c, 0, 78, 43
2, 6391, Note_on_c, 0, 81, 45
2, 6392, Note_on_c, 0, 84, 44
2, 6393, Note_on_c, 0, 88, 45
2, 6431, Note_on_c, 0, 42, 41
2, 6444, Note_on_c, 0, 54, 45
2, 6465, Control_c, 0, 64, 0
2, 6480, Note_on_c, 0, 42, 0
2, 6481, Note_on_c, 0, 54, 0
2, 6506, Note_on_c, 0, 76, 0
2, 6507, Note_on_c, 0, 78, 0
2, 6507, Note_on_c, 0, 81, 0
2, 6508, Note_on_c, 0, 84, 0
2, 6508, Note_on_c, 0, 88, 0
2, 6527, Note_on_c, 0, 74, 48
2, 6528, Note_on_c, 0, 86, 43
2, 6562, Note_on_c, 0, 74, 0
2, 6568, Note_on_c, 0, 50, 46
2, 6569, Note_on_c, 0, 86, 0
2, 6569, Note_on_c, 0, 54, 41
2, 6569, Note_on_c, 0, 57, 43
2, 6570, Note_on_c, 0, 60, 41
2, 6572, Note_on_c, 0, 72, 41
2, 6574, Note_on_c, 0, 84, 43
2, 6595, Note_on_c, 0, 50, 0
2, 6596, Note_on_c, 0, 54, 0
2, 6596, Note_on_c, 0, 57, 0
2, 6597, Note_on_c, 0, 60, 0
2, 6644, Note_on_c, 0, 72, 0
2, 6656, Note_on_c, 0, 84, 0
2, 6664, Note_on_c, 0, 69, 44
2, 6666, Note_on_c, 0, 81, 44
2, 6700, Note_on_c, 0, 69, 0
2, 6702, Note_on_c, 0, 81, 0
2, 6704, Note_on_c, 0, 43, 46
2, 6706, Note_on_c, 0, 55, 46
2, 6708, Note_on_c, 0, 74, 44
2, 6709, Note_on_c, 0, 77, 48
2, 6711, Note_on_c, 0, 86, 46
2, 6754, Note_on_c, 0, 55, 0
2, 6756, Note_on_c, 0, 43, 0
2, 6801, Note_on_c, 0, 69, 45
2, 6840, Note_on_c, 0, 69, 0
2, 6841, Note_on_c, 0, 31, 44
2, 6843, Note_on_c, 0, 43, 48
2, 6845, Note_on_c, 0, 57, 43
2, 6846, Note_on_c, 0, 60, 46
2, 6846, Note_on_c, 0, 62, 48
2, 6882, Note_on_c, 0, 57, 0
2, 6883, Note_on_c, 0, 62, 0
2, 6883, Note_on_c, 0, 60, 0
2, 6942, Note_on_c, 0, 53, 43
2, 6943, Note_on_c, 0, 59, 48
2, 6944, Note_on_c, 0, 67, 47
2, 6954, Note_on_c, 0, 31, 0
2, 6955, Note_on_c, 0, 43, 0
2, 6984, Note_on_c, 0, 33, 43
2, 6986, Note_on_c, 0, 45, 45
2, 7057, Note_on_c, 0, 53, 0
2, 7058, Note_on_c, 0, 59, 0
2, 7060, Note_on_c, 0, 67, 0
2, 7060, Note_on_c, 0, 74, 0
2, 7062, Note_on_c, 0, 77, 0
2, 7063, Note_on_c, 0, 86, 0
2, 7088, Note_on_c, 0, 33, 0
2, 7113, Note_on_c, 0, 45, 0
2, 7119, Note_on_c, 0, 35, 44
2, 7121, Note_on_c, 0, 47, 44
2, 7123, Note_on_c, 0, 62, 48
2, 7125, Note_on_c, 0, 74, 48
2, 7191, Note_on_c, 0, 62, 0
2, 7202, Note_on_c, 0, 74, 0
2, 7209, Note_on_c, 0, 63, 45
2, 7211, Note_on_c, 0, 75, 41
2, 7240, Note_on_c, 0, 35, 0
2, 7242, Note_on_c, 0, 47, 0
2, 7244, Note_on_c, 0, 63, 0
2, 7246, Note_on_c, 0, 75, 0
2, 7248, Note_on_c, 0, 36, 44
2, 7249, Note_on_c, 0, 48, 45
2, 7251, Note_on_c, 0, 64, 45
2, 7251, Note_on_c, 0, 67, 47
2, 7252, Note_on_c, 0, 72, 41
2, 7253, Note_on_c, 0, 76, 44
2, 7287, Note_on_c, 0, 67, 0
2, 7287, Note_on_c, 0, 64, 0
2, 7288, Note_on_c, 0, 72, 0
2, 7289, Note_on_c, 0, 76, 0
2, 7295, Note_on_c, 0, 36, 0
2, 7296, Note_on_c, 0, 48, 0
2, 7342, Note_on_c, 0, 72, 48
2, 7355, Note_on_c, 0, 84, 47
2, 7384, Note_on_c, 0, 52, 45
2, 7384, Note_on_c, 0, 55, 44
2, 7385, Note_on_c, 0, 60, 46
2, 7409, Note_on_c, 0, 52, 0
2, 7410, Note_on_c, 0, 55, 0
2, 7411, Note_on_c, 0, 60, 0
2, 7435, Control_c, 0, 64, 127
2, 7457, Note_on_c, 0, 84, 0
2, 7464, Note_on_c, 0, 64, 48
2, 7465, Note_on_c, 0, 72, 0
2, 7473, Note_on_c, 0, 76, 46
2, 7506, Note_on_c, 0, 64, 0
2, 7508, Note_on_c, 0, 76, 0
2, 7510, Note_on_c, 0, 43, 47
2, 7512, Note_on_c, 0, 55, 44
2, 7513, Note_on_c, 0, 72, 42
2, 7515, Note_on_c, 0, 84, 45
2, 7556, Note_on_c, 0, 43, 0
2, 7558, Note_on_c, 0, 55, 0
2, 7571, Note_on_c, 0, 72, 0
2, 7573, Note_on_c, 0, 84, 0
2, 7575, Control_c, 0, 64, 0
2, 7644, Note_on_c, 0, 52, 46
2, 7645, Note_on_c, 0, 55, 48
2, 7645, Note_on_c, 0, 58, 41
2, 7645, Note_on_c, 0, 60, 48
2, 7646, Note_on_c, 0, 64, 41
2, 7648, Note_on_c, 0, 76, 43
2, 7669, Note_on_c, 0, 55, 0
2, 7669, Note_on_c, 0, 52, 0
2, 7670, Note_on_c, 0, 58, 0
2, 7671, Note_on_c, 0, 60, 0
2, 7681, Note_on_c, 0, 64, 0
2, 7683, Note_on_c, 0, 76, 0
2, 7735, Note_on_c, 0, 72, 44
2, 7736, Note_on_c, 0, 84, 45
2, 7776, Note_on_c, 0, 41, 46
2, 7777, Note_on_c, 0, 53, 44
2, 7823, Note_on_c, 0, 41, 0
2, 7824, Note_on_c, 0, 53, 0
2, 7868, Note_on_c, 0, 62, 44
2, 7904, Note_on_c, 0, 62, 0
2, 7913, Note_on_c, 0, 60, 47
2, 7914, Note_on_c, 0, 65, 45
2, 7914, Note_on_c, 0, 69, 46
2, 7939, Note_on_c, 0, 69, 0
2, 7939, Note_on_c, 0, 65, 0
2, 7995, Note_on_c, 0, 60, 0
2, 8004, Note_on_c, 0, 57, 46
2, 8040, Note_on_c, 0, 57, 0
2, 8046, Note_on_c, 0, 40, 46
2, 8048, Note_on_c, 0, 52, 42
2, 8050, Note_on_c, 0, 60, 47
2, 8088, Note_on_c, 0, 84, 0
2, 8092, Note_on_c, 0, 40, 0
2, 8094, Note_on_c, 0, 52, 0
2, 8096, Note_on_c, 0, 72, 0
2, 8127, Note_on_c, 0, 60, 0
2, 8136, Note_on_c, 0, 72, 42
2, 8137, Note_on_c, 0, 76, 42
2, 8138, Note_on_c, 0, 84, 48
2, 8173, Note_on_c, 0, 72, 0
2, 8174, Note_on_c, 0, 76, 0
2, 8175, Note_on_c, 0, 84, 0
2, 8179, Note_on_c, 0, 52, 46
2, 8179, Note_on_c, 0, 55, 47
2, 8181, Note_on_c, 0, 60, 47
2, 8182, Note_on_c, 0, 74, 43
2, 8183, Note_on_c, 0, 77, 47
2, 8184, Note_on_c, 0, 86, 46
2, 8206, Note_on_c, 0, 52, 0
2, 8207, Note_on_c, 0, 55, 0
2, 8207, Note_on_c, 0, 60, 0
2, 8263, Note_on_c, 0, 74, 0
2, 8264, Note_on_c, 0, 77, 0
2, 8271, Note_on_c, 0, 75, 42
2, 8272, Note_on_c, 0, 78, 45
2, 8273, Note_on_c, 0, 87, 46
2, 8281, Note_on_c, 0, 86, 0
2, 8306, Note_on_c, 0, 75, 0
2, 8307, Note_on_c, 0, 78, 0
2, 8309, Note_on_c, 0, 87, 0
2, 8311, Note_on_c, 0, 43, 46
2, 8313, Note_on_c, 0, 55, 44
2, 8315, Note_on_c, 0, 76, 42
2, 8316, Note_on_c, 0, 79, 44
2, 8318, Note_on_c, 0, 88, 48
2, 8351, Note_on_c, 0, 76, 0
2, 8357, Note_on_c, 0, 43, 0
2, 8359, Note_on_c, 0, 55, 0
2, 8384, Note_on_c, 0, 79, 0
2, 8401, Note_on_c, 0, 88, 0
2, 8402, Note_on_c, 0, 72, 41
2, 8403, Note_on_c, 0, 76, 46
2, 8404, Note_on_c, 0, 84, 48
2, 8440, Note_on_c, 0, 76, 0
2, 8440, Note_on_c, 0, 72, 0
2, 8442, Note_on_c, 0, 84, 0
2, 8447, Note_on_c, 0, 52, 47
2, 8447, Note_on_c, 0, 55, 43
2, 8448, Note_on_c, 0, 60, 44
2, 8449, Note_on_c, 0, 74, 46
2, 8450, Note_on_c, 0, 77, 44
2, 8451, Note_on_c, 0, 86, 46
2, 8472, Note_on_c, 0, 52, 0
2, 8473, Note_on_c, 0, 55, 0
2, 8473, Note_on_c, 0, 60, 0
2, 8487, Note_on_c, 0, 74, 0
2, 8487, Note_on_c, 0, 77, 0
2, 8499, Control_c, 0, 64, 127
2, 8505, Note_on_c, 0, 86, 0
2, 8543, Note_on_c, 0, 76, 45
2, 8544, Note_on_c, 0, 79, 43
2, 8545, Note_on_c, 0, 88, 47
2, 8583, Note_on_c, 0, 31, 43
2, 8585, Note_on_c, 0, 43, 47
2, 8630, Note_on_c, 0, 31, 0
2, 8632, Note_on_c, 0, 43, 0
2, 8668, Note_on_c, 0, 76, 0
2, 8669, Note_on_c, 0, 79, 0
2, 8674, Note_on_c, 0, 88, 0
2, 8676, Note_on_c, 0, 71, 45
2, 8676, Note_on_c, 0, 74, 41
2, 8678, Note_on_c, 0, 83, 43
2, 8682, Control_c, 0, 64, 0
2, 8690, Note_on_c, 0, 74, 0
2, 8712, Note_on_c, 0, 71, 0
2, 8714, Note_on_c, 0, 83, 0
2, 8720, Note_on_c, 0, 55, 46
2, 8721, Note_on_c, 0, 59, 48
2, 8721, Note_on_c, 0, 62, 47
2, 8722, Note_on_c, 0, 65, 45
2, 8723, Note_on_c, 0, 74, 45
2, 8724, Note_on_c, 0, 77, 42
2, 8726, Note_on_c, 0, 86, 48
2, 8747, Note_on_c, 0, 55, 0
2, 8748, Note_on_c, 0, 59, 0
2, 8748, Note_on_c, 0, 62, 0
2, 8749, Note_on_c, 0, 65, 0
2, 8856, Note_on_c, 0, 74, 0
2, 8856, Note_on_c, 0, 77, 0
2, 8860, Note_on_c, 0, 48, 47
2, 8862, Note_on_c, 0, 60, 43
2, 8863, Note_on_c, 0, 72, 45
2, 8864, Note_on_c, 0, 76, 45
2, 8865, Note_on_c, 0, 79, 45
2, 8865, Note_on_c, 0, 84, 43
2, 8875, Note_on_c, 0, 86, 0
2, 8943, Note_on_c, 0, 60, 0
2, 8949, Note_on_c, 0, 45, 48
2, 8951, Note_on_c, 0, 57, 45
2, 8953, Note_on_c, 0, 48, 0
2, 8987, Note_on_c, 0, 45, 0
2, 8989, Note_on_c, 0, 57, 0
2, 8998, Note_on_c, 0, 43, 44
2, 9000, Note_on_c, 0, 55, 42
2, 9033, Note_on_c, 0, 43, 0
2, 9035, Note_on_c, 0, 55, 0
2, 9087, Note_on_c, 0, 36, 42
2, 9089, Note_on_c, 0, 48, 44
2, 9212, Note_on_c, 0, 36, 0
2, 9214, Note_on_c, 0, 48, 0
2, 9216, Note_on_c, 0, 72, 0
2, 9217, Note_on_c, 0, 76, 0
2, 9217, Note_on_c, 0, 79, 0
2, 9218, Note_on_c, 0, 84, 0
2, 9223, Note_on_c, 0, 43, 46
2, 9225, Note_on_c, 0, 55, 42
2, 9258, Note_on_c, 0, 55, 0
2, 9258, Note_on_c, 0, 43, 0
2, 9265, Note_on_c, 0, 45, 41
2, 9268, Note_on_c, 0, 72, 44
2, 9270, Note_on_c, 0, 84, 46
2, 9276, Note_on_c, 0, 57, 47
2, 9331, Note_on_c, 0, 45, 0
2, 9333, Note_on_c, 0, 57, 0
2, 9335, Note_on_c, 0, 72, 0
2, 9348, Note_on_c, 0, 84, 0
2, 9353, Note_on_c, 0, 47, 47
2, 9355, Note_on_c, 0, 59, 44
2, 9357, Note_on_c, 0, 86, 44
2, 9358, Note_on_c, 0, 74, 43
2, 9388, Note_on_c, 0, 47, 0
2, 9390, Note_on_c, 0, 59, 0
2, 9392, Note_on_c, 0, 74, 0
2, 9394, Note_on_c, 0, 86, 0
2, 9399, Note_on_c, 0, 48, 46
2, 9401, Note_on_c, 0, 60, 41
2, 9403, Note_on_c, 0, 76, 46
2, 9404, Note_on_c, 0, 79, 43
2, 9405, Note_on_c, 0, 84, 41
2, 9405, Note_on_c, 0, 88, 43
2, 9437, Note_on_c, 0, 79, 0
2, 9437, Note_on_c, 0, 76, 0
2, 9439, Note_on_c, 0, 88, 0
2, 9440, Note_on_c, 0, 84, 0
2, 9445, Note_on_c, 0, 48, 0
2, 9447, Note_on_c, 0, 60, 0
2, 9488, Note_on_c, 0, 72, 42
2, 9491, Note_on_c, 0, 84, 42
2, 9523, Note_on_c, 0, 72, 0
2, 9525, Note_on_c, 0, 84, 0
2, 9530, Note_on_c, 0, 55, 42
2, 9531, Note_on_c, 0, 60, 46
2, 9532, Note_on_c, 0, 64, 45
2, 9533, Note_on_c, 0, 74, 45
2, 9535, Note_on_c, 0, 86, 41
2, 9545, Control_c, 0, 64, 127
2, 9552, Note_on_c, 0, 55, 0
2, 9553, Note_on_c, 0, 60, 0
2, 9554, Note_on_c, 0, 64, 0
2, 9565, Note_on_c, 0, 74, 0
2, 9578, Note_on_c, 0, 86, 0
2, 9621, Note_on_c, 0, 76, 43
2, 9623, Note_on_c, 0, 88, 47
2, 9663, Note_on_c, 0, 58, 48
2, 9671, Note_on_c, 0, 46, 45
2, 9692, Control_c, 0, 64, 0
2, 9708, Note_on_c, 0, 46, 0
2, 9710, Note_on_c, 0, 58, 0
2, 9744, Note_on_c, 0, 76, 0
2, 9746, Note_on_c, 0, 88, 0
2, 9755, Note_on_c, 0, 72, 46
2, 9757, Note_on_c, 0, 84, 48
2, 9792, Note_on_c, 0, 72, 0
2, 9793, Note_on_c, 0, 84, 0
2, 9797, Note_on_c, 0, 55, 48
2, 9798, Note_on_c, 0, 58, 42
2, 9798, Note_on_c, 0, 60, 45
2, 9799, Note_on_c, 0, 64, 45
2, 9799, Note_on_c, 0, 74, 45
2, 9800, Note_on_c, 0, 86, 46
2, 9822, Note_on_c, 0, 58, 0
2, 9822, Note_on_c, 0, 55, 0
2, 9823, Note_on_c, 0, 64, 0
2, 9823, Note_on_c, 0, 60, 0
2, 9878, Note_on_c, 0, 74, 0
2, 9886, Note_on_c, 0, 72, 46
2, 9887, Note_on_c, 0, 84, 44
2, 9890, Note_on_c, 0, 86, 0
2, 9901, Note_on_c, 0, 84, 0
2, 9922, Note_on_c, 0, 72, 0
2, 9928, Note_on_c, 0, 45, 42
2, 9929, Note_on_c, 0, 57, 46
2, 9931, Note_on_c, 0, 76, 48
2, 9932, Note_on_c, 0, 81, 42
2, 9932, Note_on_c, 0, 84, 48
2, 9933, Note_on_c, 0, 88, 48
2, 9968, Note_on_c, 0, 76, 0
2, 9969, Note_on_c, 0, 81, 0
2, 9970, Note_on_c, 0, 84, 0
2, 9970, Note_on_c, 0, 88, 0
2, 9976, Note_on_c, 0, 45, 0
2, 9978, Note_on_c, 0, 57, 0
2, 10023, Note_on_c, 0, 84, 45
2, 10032, Note_on_c, 0, 72, 47
2, 10061, Note_on_c, 0, 84, 0
2, 10065, Note_on_c, 0, 57, 41
2, 10066, Note_on_c, 0, 60, 45
2, 10066, Note_on_c, 0, 65, 41
2, 10067, Note_on_c, 0, 74, 43
2, 10069, Note_on_c, 0, 86, 44
2, 10071, Note_on_c, 0, 72, 0
2, 10090, Note_on_c, 0, 57, 0
2, 10091, Note_on_c, 0, 60, 0
2, 10092, Note_on_c, 0, 65, 0
2, 10103, Note_on_c, 0, 74, 0
2, 10127, Note_on_c, 0, 86, 0
2, 10148, Control_c, 0, 64, 127
2, 10153, Note_on_c, 0, 76, 41
2, 10155, Note_on_c, 0, 84, 46
2, 10157, Note_on_c, 0, 88, 43
2, 10167, Note_on_c, 0, 80, 48
2, 10194, Note_on_c, 0, 44, 43
2, 10196, Note_on_c, 0, 56, 43
2, 10240, Note_on_c, 0, 44, 0
2, 10242, Note_on_c, 0, 56, 0
2, 10246, Note_on_c, 0, 84, 0
2, 10257, Control_c, 0, 64, 0
2, 10277, Note_on_c, 0, 76, 0
2, 10277, Note_on_c, 0, 80, 0
2, 10279, Note_on_c, 0, 88, 0
2, 10285, Note_on_c, 0, 72, 45
2, 10287, Note_on_c, 0, 84, 45
2, 10322, Note_on_c, 0, 72, 0
2, 10329, Note_on_c, 0, 56, 48
2, 10329, Note_on_c, 0, 60, 42
2, 10330, Note_on_c, 0, 62, 47
2, 10330, Note_on_c, 0, 65, 47
2, 10331, Note_on_c, 0, 74, 44
2, 10336, Note_on_c, 0, 84, 0
2, 10344, Note_on_c, 0, 86, 44
2, 10354, Note_on_c, 0, 56, 0
2, 10355, Note_on_c, 0, 62, 0
2, 10355, Note_on_c, 0, 60, 0
2, 10377, Note_on_c, 0, 65, 0
2, 10411, Note_on_c, 0, 74, 0
2, 10418, Note_on_c, 0, 72, 46
2, 10424, Note_on_c, 0, 86, 0
2, 10454, Note_on_c, 0, 72, 0
2, 10458, Note_on_c, 0, 43, 46
2, 10460, Note_on_c, 0, 55, 47
2, 10463, Note_on_c, 0, 76, 44
2, 10464, Note_on_c, 0, 79, 41
2, 10464, Note_on_c, 0, 84, 44
2, 10464, Note_on_c, 0, 88, 45
2, 10496, Note_on_c, 0, 76, 0
2, 10498, Note_on_c, 0, 84, 0
2, 10500, Note_on_c, 0, 79, 0
2, 10503, Note_on_c, 0, 43, 0
2, 10503, Note_on_c, 0, 88, 0
2, 10505, Note_on_c, 0, 55, 0
2, 10550, Note_on_c, 0, 72, 45
2, 10551, Note_on_c, 0, 76, 43
2, 10553, Note_on_c, 0, 84, 44
2, 10588, Note_on_c, 0, 72, 0
2, 10589, Note_on_c, 0, 76, 0
2, 10591, Note_on_c, 0, 84, 0
2, 10595, Note_on_c, 0, 52, 44
2, 10595, Note_on_c, 0, 55, 48
2, 10596, Note_on_c, 0, 60, 43
2, 10597, Note_on_c, 0, 74, 42
2, 10599, Note_on_c, 0, 77, 45
2, 10600, Note_on_c, 0, 86, 43
2, 10621, Note_on_c, 0, 52, 0
2, 10622, Note_on_c, 0, 55, 0
2, 10623, Note_on_c, 0, 60, 0
2, 10634, Note_on_c, 0, 74, 0
2, 10635, Note_on_c, 0, 77, 0
2, 10646, Control_c, 0, 64, 127
2, 10648, Note_on_c, 0, 86, 0
2, 10683, Note_on_c, 0, 76, 45
2, 10685, Note_on_c, 0, 79, 48
2, 10686, Note_on_c, 0, 88, 44
2, 10726, Note_on_c, 0, 31, 45
2, 10728, Note_on_c, 0, 43, 44
2, 10774, Note_on_c, 0, 31, 0
2, 10776, Note_on_c, 0, 43, 0
2, 10794, Control_c, 0, 64, 0
2, 10801, Note_on_c, 0, 76, 0
2, 10802, Note_on_c, 0, 79, 0
2, 10804, Note_on_c, 0, 88, 0
2, 10822, Note_on_c, 0, 71, 43
2, 10822, Note_on_c, 0, 74, 42
2, 10824, Note_on_c, 0, 83, 41
2, 10837, Note_on_c, 0, 74, 0
2, 10861, Note_on_c, 0, 71, 0
2, 10863, Note_on_c, 0, 83, 0
2, 10868, Note_on_c, 0, 55, 47
2, 10869, Note_on_c, 0, 59, 48
2, 10869, Note_on_c, 0, 62, 45
2, 10869, Note_on_c, 0, 74, 41
2, 10870, Note_on_c, 0, 65, 46
2, 10872, Note_on_c, 0, 77, 43
2, 10872, Note_on_c, 0, 86, 43
2, 10895, Note_on_c, 0, 55, 0
2, 10896, Note_on_c, 0, 65, 0
2, 10896, Note_on_c, 0, 59, 0
2, 10896, Note_on_c, 0, 62, 0
2, 11001, Note_on_c, 0, 74, 0
2, 11003, Note_on_c, 0, 77, 0
2, 11004, Note_on_c, 0, 86, 0
2, 11007, Note_on_c, 0, 48, 45
2, 11009, Note_on_c, 0, 60, 45
2, 11011, Note_on_c, 0, 72, 46
2, 11011, Note_on_c, 0, 76, 41
2, 11012, Note_on_c, 0, 84, 43
2, 11013, Note_on_c, 0, 79, 41
2, 11088, Note_on_c, 0, 48, 0
2, 11090, Note_on_c, 0, 60, 0
2, 11095, Note_on_c, 0, 42, 43
2, 11097, Note_on_c, 0, 54, 42
2, 11133, Note_on_c, 0, 42, 0
2, 11135, Note_on_c, 0, 54, 0
2, 11142, Note_on_c, 0, 43, 44
2, 11144, Note_on_c, 0, 55, 43
2, 11181, Note_on_c, 0, 43, 0
2, 11182, Note_on_c, 0, 55, 0
2, 11233, Note_on_c, 0, 36, 45
2, 11235, Note_on_c, 0, 48, 45
2, 11285, Note_on_c, 0, 84, 0
2, 11305, Note_on_c, 0, 76, 0
2, 11356, Note_on_c, 0, 36, 0
2, 11358, Note_on_c, 0, 48, 0
2, 11361, Note_on_c, 0, 72, 0
2, 11362, Note_on_c, 0, 79, 0
2, 11370, Note_on_c, 0, 76, 48
2, 11372, Note_on_c, 0, 84, 44
2, 11372, Note_on_c, 0, 88, 46
2, 11407, Note_on_c, 0, 76, 0
2, 11408, Note_on_c, 0, 84, 0
2, 11409, Note_on_c, 0, 88, 0
2, 11417, Note_on_c, 0, 77, 45
2, 11419, Note_on_c, 0, 86, 44
2, 11419, Note_on_c, 0, 89, 46
2, 11488, Note_on_c, 0, 89, 0
2, 11497, Note_on_c, 0, 77, 0
2, 11506, Note_on_c, 0, 78, 42
2, 11507, Note_on_c, 0, 87, 41
2, 11507, Note_on_c, 0, 90, 41
2, 11510, Note_on_c, 0, 86, 0
2, 11531, Note_on_c, 0, 78, 0
2, 11532, Note_on_c, 0, 87, 0
2, 11534, Note_on_c, 0, 90, 0
2, 11544, Note_on_c, 0, 36, 48
2, 11546, Note_on_c, 0, 48, 44
2, 11549, Note_on_c, 0, 79, 42
2, 11549, Note_on_c, 0, 88, 47
2, 11551, Note_on_c, 0, 91, 41
2, 11616, Note_on_c, 0, 79, 0
2, 11618, Note_on_c, 0, 88, 0
2, 11621, Note_on_c, 0, 91, 0
2, 11622, Note_on_c, 0, 36, 0
2, 11624, Note_on_c, 0, 48, 0
2, 11669, Note_on_c, 0, 81, 42
2, 11670, Note_on_c, 0, 88, 46
2, 11671, Note_on_c, 0, 93, 46
2, 11677, Note_on_c, 0, 55, 48
2, 11677, Note_on_c, 0, 60, 44
2, 11678, Note_on_c, 0, 64, 41
2, 11701, Note_on_c, 0, 55, 0
2, 11702, Note_on_c, 0, 60, 0
2, 11702, Note_on_c, 0, 64, 0
2, 11705, Note_on_c, 0, 81, 0
2, 11706, Note_on_c, 0, 93, 0
2, 11706, Note_on_c, 0, 88, 0
2, 11760, Note_on_c, 0, 88, 48
2, 11761, Note_on_c, 0, 91, 45
2, 11769, Note_on_c, 0, 79, 48
2, 11810, Note_on_c, 0, 43, 47
2, 11812, Note_on_c, 0, 55, 44
2, 11851, Note_on_c, 0, 88, 0
2, 11856, Note_on_c, 0, 43, 0
2, 11857, Note_on_c, 0, 55, 0
2, 11894, Note_on_c, 0, 79, 0
2, 11899, Note_on_c, 0, 91, 0
2, 11901, Note_on_c, 0, 76, 43
2, 11903, Note_on_c, 0, 84, 44
2, 11904, Note_on_c, 0, 88, 43
2, 11938, Note_on_c, 0, 76, 0
2, 11940, Note_on_c, 0, 88, 0
2, 11940, Note_on_c, 0, 84, 0
2, 11945, Note_on_c, 0, 55, 42
2, 11946, Note_on_c, 0, 60, 48
2, 11947, Note_on_c, 0, 64, 43
2, 11948, Note_on_c, 0, 77, 41
2, 11950, Note_on_c, 0, 86, 47
2, 11951, Note_on_c, 0, 89, 46
2, 11973, Note_on_c, 0, 55, 0
2, 11974, Note_on_c, 0, 60, 0
2, 11974, Note_on_c, 0, 64, 0
2, 12033, Note_on_c, 0, 77, 0
2, 12034, Note_on_c, 0, 86, 0
2, 12035, Note_on_c, 0, 89, 0
2, 12042, Note_on_c, 0, 78, 48
2, 12043, Note_on_c, 0, 87, 48
2, 12043, Note_on_c, 0, 90, 45
2, 12080, Note_on_c, 0, 78, 0
2, 12081, Note_on_c, 0, 90, 0
2, 12081, Note_on_c, 0, 87, 0
2, 12083, Note_on_c, 0, 36, 47
2, 12085, Note_on_c, 0, 48, 46
2, 12088, Note_on_c, 0, 79, 48
2, 12089, Note_on_c, 0, 88, 42
2, 12089, Note_on_c, 0, 91, 47
2, 12130, Note_on_c, 0, 36, 0
2, 12131, Note_on_c, 0, 48, 0
2, 12134, Note_on_c, 0, 79, 0
2, 12136, Note_on_c, 0, 88, 0
2, 12136, Note_on_c, 0, 91, 0
2, 12217, Note_on_c, 0, 55, 44
2, 12218, Note_on_c, 0, 60, 46
2, 12218, Note_on_c, 0, 64, 45
2, 12220, Note_on_c, 0, 81, 42
2, 12221, Note_on_c, 0, 88, 43
2, 12222, Note_on_c, 0, 93, 44
2, 12241, Note_on_c, 0, 55, 0
2, 12242, Note_on_c, 0, 60, 0
2, 12242, Note_on_c, 0, 64, 0
2, 12256, Note_on_c, 0, 81, 0
2, 12258, Note_on_c, 0, 93, 0
2, 12260, Note_on_c, 0, 88, 0
2, 12278, Control_c, 0, 64, 127
2, 12307, Note_on_c, 0, 79, 44
2, 12309, Note_on_c, 0, 91, 47
2, 12310, Note_on_c, 0, 88, 43
2, 12346, Note_on_c, 0, 31, 41
2, 12348, Note_on_c, 0, 43, 48
2, 12392, Note_on_c, 0, 88, 0
2, 12393, Note_on_c, 0, 31, 0
2, 12395, Note_on_c, 0, 43, 0
2, 12432, Note_on_c, 0, 79, 0
2, 12437, Note_on_c, 0, 91, 0
2, 12439, Note_on_c, 0, 76, 41
2, 12441, Note_on_c, 0, 88, 47
2, 12444, Control_c, 0, 64, 0
2, 12473, Note_on_c, 0, 76, 0
2, 12475, Note_on_c, 0, 88, 0
2, 12478, Note_on_c, 0, 55, 41
2, 12479, Note_on_c, 0, 60, 48
2, 12479, Note_on_c, 0, 64, 48
2, 12480, Note_on_c, 0, 72, 43
2, 12481, Note_on_c, 0, 84, 45
2, 12502, Note_on_c, 0, 55, 0
2, 12503, Note_on_c, 0, 60, 0
2, 12504, Note_on_c, 0, 64, 0
2, 12548, Note_on_c, 0, 72, 0
2, 12560, Note_on_c, 0, 84, 0
2, 12566, Note_on_c, 0, 67, 45
2, 12568, Note_on_c, 0, 79, 47
2, 12602, Note_on_c, 0, 67, 0
2, 12604, Note_on_c, 0, 79, 0
2, 12606, Note_on_c, 0, 41, 46
2, 12610, Note_on_c, 0, 69, 44
2, 12610, Note_on_c, 0, 72, 43
2, 12612, Note_on_c, 0, 77, 47
2, 12613, Note_on_c, 0, 81, 43
2, 12617, Note_on_c, 0, 29, 48
2, 12651, Note_on_c, 0, 29, 0
2, 12653, Note_on_c, 0, 41, 0
2, 12691, Note_on_c, 0, 69, 0
2, 12692, Note_on_c, 0, 72, 0
2, 12693, Note_on_c, 0, 77, 0
2, 12693, Note_on_c, 0, 81, 0
2, 12699, Note_on_c, 0, 71, 46
2, 12701, Note_on_c, 0, 83, 45
2, 12735, Note_on_c, 0, 71, 0
2, 12737, Note_on_c, 0, 83, 0
2, 12743, Note_on_c, 0, 57, 41
2, 12744, Note_on_c, 0, 60, 42
2, 12744, Note_on_c, 0, 65, 43
2, 12744, Note_on_c, 0, 72, 44
2, 12745, Note_on_c, 0, 77, 44
2, 12746, Note_on_c, 0, 81, 47
2, 12746, Note_on_c, 0, 84, 41
2, 12767, Note_on_c, 0, 60, 0
2, 12768, Note_on_c, 0, 57, 0
2, 12768, Note_on_c, 0, 65, 0
2, 12821, Note_on_c, 0, 72, 0
2, 12822, Note_on_c, 0, 77, 0
2, 12823, Note_on_c, 0, 81, 0
2, 12823, Note_on_c, 0, 84, 0
2, 12830, Note_on_c, 0, 74, 43
2, 12832, Note_on_c, 0, 86, 47
2, 12866, Note_on_c, 0, 74, 0
2, 12872, Note_on_c, 0, 41, 42
2, 12873, Note_on_c, 0, 53, 45
2, 12876, Note_on_c, 0, 76, 45
2, 12877, Note_on_c, 0, 81, 45
2, 12877, Note_on_c, 0, 84, 41
2, 12877, Note_on_c, 0, 88, 48
2, 12885, Note_on_c, 0, 86, 0
2, 12921, Note_on_c, 0, 41, 0
2, 12923, Note_on_c, 0, 53, 0
2, 12960, Note_on_c, 0, 81, 0
2, 12960, Note_on_c, 0, 76, 0
2, 12961, Note_on_c, 0, 84, 0
2, 12962, Note_on_c, 0, 88, 0
2, 12969, Note_on_c, 0, 74, 43
2, 12971, Note_on_c, 0, 86, 45
2, 13006, Note_on_c, 0, 74, 0
2, 13008, Note_on_c, 0, 86, 0
2, 13013, Note_on_c, 0, 56, 44
2, 13013, Note_on_c, 0, 60, 45
2, 13013, Note_on_c, 0, 62, 44
2, 13014, Note_on_c, 0, 65, 42
2, 13014, Note_on_c, 0, 77, 46
2, 13015, Note_on_c, 0, 72, 42
2, 13015, Note_on_c, 0, 80, 42
2, 13016, Note_on_c, 0, 84, 43
2, 13038, Note_on_c, 0, 65, 0
2, 13038, Note_on_c, 0, 62, 0
2, 13038, Note_on_c, 0, 56, 0
2, 13044, Note_on_c, 0, 60, 0
2, 13082, Note_on_c, 0, 72, 0
2, 13083, Note_on_c, 0, 80, 0
2, 13083, Note_on_c, 0, 77, 0
2, 13084, Note_on_c, 0, 84, 0
2, 13103, Note_on_c, 0, 86, 41
2, 13104, Note_on_c, 0, 74, 45
2, 13143, Note_on_c, 0, 74, 0
2, 13149, Note_on_c, 0, 52, 46
2, 13151, Note_on_c, 0, 67, 43
2, 13152, Note_on_c, 0, 72, 46
2, 13152, Note_on_c, 0, 76, 42
2, 13152, Note_on_c, 0, 79, 48
2, 13157, Note_on_c, 0, 86, 0
2, 13159, Note_on_c, 0, 40, 47
2, 13189, Note_on_c, 0, 76, 0
2, 13197, Note_on_c, 0, 40, 0
2, 13198, Note_on_c, 0, 52, 0
2, 13233, Note_on_c, 0, 67, 0
2, 13234, Note_on_c, 0, 72, 0
2, 13235, Note_on_c, 0, 79, 0
2, 13244, Note_on_c, 0, 76, 44
2, 13246, Note_on_c, 0, 88, 45
2, 13278, Note_on_c, 0, 77, 41
2, 13281, Note_on_c, 0, 76, 0
2, 13283, Note_on_c, 0, 88, 0
2, 13288, Note_on_c, 0, 55, 41
2, 13289, Note_on_c, 0, 60, 47
2, 13289, Note_on_c, 0, 64, 41
2, 13292, Note_on_c, 0, 89, 48
2, 13313, Note_on_c, 0, 55, 0
2, 13315, Note_on_c, 0, 64, 0
2, 13315, Note_on_c, 0, 60, 0
2, 13340, Control_c, 0, 64, 127
2, 13361, Note_on_c, 0, 77, 0
2, 13379, Note_on_c, 0, 89, 0
2, 13379, Note_on_c, 0, 79, 42
2, 13381, Note_on_c, 0, 91, 46
2, 13417, Note_on_c, 0, 79, 0
2, 13419, Note_on_c, 0, 91, 0
2, 13420, Note_on_c, 0, 31, 42
2, 13421, Note_on_c, 0, 43, 43
2, 13427, Note_on_c, 0, 81, 41
2, 13429, Note_on_c, 0, 93, 43
2, 13467, Note_on_c, 0, 31, 0
2, 13469, Note_on_c, 0, 43, 0
2, 13508, Note_on_c, 0, 81, 0
2, 13509, Note_on_c, 0, 93, 0
2, 13515, Note_on_c, 0, 79, 41
2, 13517, Note_on_c, 0, 91, 47
2, 13522, Control_c, 0, 64, 0
2, 13552, Note_on_c, 0, 79, 0
2, 13554, Note_on_c, 0, 91, 0
2, 13558, Note_on_c, 0, 55, 41
2, 13560, Note_on_c, 0, 60, 45
2, 13560, Note_on_c, 0, 64, 41
2, 13561, Note_on_c, 0, 76, 45
2, 13563, Note_on_c, 0, 88, 44
2, 13584, Note_on_c, 0, 55, 0
2, 13585, Note_on_c, 0, 60, 0
2, 13586, Note_on_c, 0, 64, 0
2, 13640, Note_on_c, 0, 76, 0
2, 13642, Note_on_c, 0, 88, 0
2, 13648, Note_on_c, 0, 77, 43
2, 13650, Note_on_c, 0, 89, 41
2, 13684, Note_on_c, 0, 77, 0
2, 13686, Note_on_c, 0, 36, 48
2, 13688, Note_on_c, 0, 48, 46
2, 13690, Note_on_c, 0, 89, 0
2, 13692, Note_on_c, 0, 79, 44
2, 13693, Note_on_c, 0, 88, 44
2, 13693, Note_on_c, 0, 91, 47
2, 13732, Note_on_c, 0, 36, 0
2, 13734, Note_on_c, 0, 48, 0
2, 13739, Note_on_c, 0, 79, 0
2, 13740, Note_on_c, 0, 88, 0
2, 13740, Note_on_c, 0, 91, 0
2, 13824, Note_on_c, 0, 55, 42
2, 13824, Note_on_c, 0, 60, 41
2, 13825, Note_on_c, 0, 64, 47
2, 13827, Note_on_c, 0, 81, 47
2, 13828, Note_on_c, 0, 88, 43
2, 13829, Note_on_c, 0, 93, 44
2, 13848, Note_on_c, 0, 55, 0
2, 13849, Note_on_c, 0, 64, 0
2, 13862, Note_on_c, 0, 60, 0
2, 13863, Note_on_c, 0, 81, 0
2, 13869, Note_on_c, 0, 93, 0
2, 13869, Note_on_c, 0, 88, 0
2, 13917, Note_on_c, 0, 79, 48
2, 13918, Note_on_c, 0, 88, 45
2, 13918, Note_on_c, 0, 91, 47
2, 13956, Note_on_c, 0, 43, 45
2, 13958, Note_on_c, 0, 55, 43
2, 13997, Note_on_c, 0, 88, 0
2, 14003, Note_on_c, 0, 43, 0
2, 14004, Note_on_c, 0, 55, 0
2, 14040, Note_on_c, 0, 79, 0
2, 14045, Note_on_c, 0, 91, 0
2, 14047, Note_on_c, 0, 76, 48
2, 14048, Note_on_c, 0, 84, 41
2, 14049, Note_on_c, 0, 88, 48
2, 14085, Note_on_c, 0, 76, 0
2, 14087, Note_on_c, 0, 88, 0
2, 14087, Note_on_c, 0, 84, 0
2, 14091, Note_on_c, 0, 55, 43
2, 14092, Note_on_c, 0, 60, 45
2, 14092, Note_on_c, 0, 64, 47
2, 14094, Note_on_c, 0, 77, 42
2, 14096, Note_on_c, 0, 86, 47
2, 14097, Note_on_c, 0, 89, 44
2, 14118, Note_on_c, 0, 55, 0
2, 14120, Note_on_c, 0, 60, 0
2, 14120, Note_on_c, 0, 64, 0
2, 14179, Note_on_c, 0, 77, 0
2, 14180, Note_on_c, 0, 89, 0
2, 14186, Note_on_c, 0, 86, 0
2, 14186, Note_on_c, 0, 78, 41
2, 14187, Note_on_c, 0, 87, 48
2, 14187, Note_on_c, 0, 90, 41
2, 14222, Note_on_c, 0, 78, 0
2, 14223, Note_on_c, 0, 90, 0
2, 14223, Note_on_c, 0, 87, 0
2, 14225, Note_on_c, 0, 36, 42
2, 14227, Note_on_c, 0, 48, 47
2, 14230, Note_on_c, 0, 79, 46
2, 14232, Note_on_c, 0, 88, 42
2, 14232, Note_on_c, 0, 91, 41
2, 14272, Note_on_c, 0, 36, 0
2, 14274, Note_on_c, 0, 48, 0
2, 14277, Note_on_c, 0, 79, 0
2, 14278, Note_on_c, 0, 88, 0
2, 14278, Note_on_c, 0, 91, 0
2, 14360, Note_on_c, 0, 55, 48
2, 14361, Note_on_c, 0, 60, 42
2, 14361, Note_on_c, 0, 64, 48
2, 14364, Note_on_c, 0, 81, 44
2, 14364, Note_on_c, 0, 88, 42
2, 14364, Note_on_c, 0, 93, 43
2, 14374, Note_on_c, 0, 55, 0
2, 14376, Note_on_c, 0, 60, 0
2, 14376, Note_on_c, 0, 64, 0
2, 14389, Note_on_c, 0, 81, 0
2, 14390, Note_on_c, 0, 88, 0
2, 14390, Note_on_c, 0, 93, 0
2, 14398, Control_c, 0, 64, 127
2, 14436, Note_on_c, 0, 79, 44
2, 14438, Note_on_c, 0, 88, 45
2, 14438, Note_on_c, 0, 91, 42
2, 14474, Note_on_c, 0, 40, 48
2, 14475, Note_on_c, 0, 52, 43
2, 14505, Control_c, 0, 64, 0
2, 14513, Note_on_c, 0, 79, 0
2, 14514, Note_on_c, 0, 91, 0
2, 14560, Note_on_c, 0, 88, 0
2, 14562, Note_on_c, 0, 79, 44
2, 14564, Note_on_c, 0, 91, 46
2, 14593, Note_on_c, 0, 40, 0
2, 14594, Note_on_c, 0, 52, 0
2, 14598, Note_on_c, 0, 79, 0
2, 14599, Note_on_c, 0, 91, 0
2, 14601, Note_on_c, 0, 39, 42
2, 14603, Note_on_c, 0, 51, 42
2, 14606, Note_on_c, 0, 81, 48
2, 14608, Note_on_c, 0, 93, 42
2, 14681, Note_on_c, 0, 39, 0
2, 14683, Note_on_c, 0, 51, 0
2, 14686, Note_on_c, 0, 81, 0
2, 14688, Note_on_c, 0, 93, 0
2, 14694, Note_on_c, 0, 82, 47
2, 14695, Note_on_c, 0, 94, 47
2, 14730, Note_on_c, 0, 82, 0
2, 14733, Note_on_c, 0, 38, 42
2, 14735, Note_on_c, 0, 94, 0
2, 14735, Note_on_c, 0, 59, 45
2, 14737, Note_on_c, 0, 83, 43
2, 14737, Note_on_c, 0, 86, 47
2, 14737, Note_on_c, 0, 91, 46
2, 14738, Note_on_c, 0, 95, 44
2, 14744, Note_on_c, 0, 50, 45
2, 14771, Note_on_c, 0, 86, 0
2, 14771, Note_on_c, 0, 83, 0
2, 14772, Note_on_c, 0, 91, 0
2, 14772, Note_on_c, 0, 95, 0
2, 14777, Note_on_c, 0, 38, 0
2, 14778, Note_on_c, 0, 50, 0
2, 14821, Note_on_c, 0, 83, 41
2, 14822, Note_on_c, 0, 86, 46
2, 14822, Note_on_c, 0, 91, 43
2, 14824, Note_on_c, 0, 95, 48
2, 14862, Note_on_c, 0, 62, 41
2, 14862, Note_on_c, 0, 67, 45
2, 14863, Note_on_c, 0, 71, 44
2, 14886, Note_on_c, 0, 67, 0
2, 14886, Note_on_c, 0, 62, 0
2, 14887, Note_on_c, 0, 71, 0
2, 14890, Note_on_c, 0, 95, 0
2, 14900, Note_on_c, 0, 83, 0
2, 14901, Note_on_c, 0, 91, 0
2, 14917, Note_on_c, 0, 86, 0
2, 14944, Note_on_c, 0, 59, 0
2, 14953, Note_on_c, 0, 62, 44
2, 14955, Note_on_c, 0, 83, 48
2, 14956, Note_on_c, 0, 86, 42
2, 14956, Note_on_c, 0, 90, 46
2, 14957, Note_on_c, 0, 95, 46
2, 14994, Note_on_c, 0, 38, 46
2, 14996, Note_on_c, 0, 50, 44
2, 15041, Note_on_c, 0, 38, 0
2, 15043, Note_on_c, 0, 50, 0
2, 15078, Note_on_c, 0, 83, 0
2, 15085, Note_on_c, 0, 81, 46
2, 15086, Note_on_c, 0, 93, 43
2, 15088, Note_on_c, 0, 62, 0
2, 15090, Note_on_c, 0, 90, 0
2, 15090, Note_on_c, 0, 86, 0
2, 15095, Note_on_c, 0, 95, 0
2, 15123, Note_on_c, 0, 81, 0
2, 15129, Note_on_c, 0, 93, 0
2, 15130, Note_on_c, 0, 60, 46
2, 15130, Note_on_c, 0, 62, 43
2, 15130, Note_on_c, 0, 66, 41
2, 15132, Note_on_c, 0, 78, 46
2, 15132, Note_on_c, 0, 84, 45
2, 15133, Note_on_c, 0, 90, 45
2, 15156, Note_on_c, 0, 66, 0
2, 15156, Note_on_c, 0, 62, 0
2, 15213, Note_on_c, 0, 78, 0
2, 15213, Note_on_c, 0, 84, 0
2, 15214, Note_on_c, 0, 90, 0
2, 15220, Note_on_c, 0, 86, 47
2, 15221, Note_on_c, 0, 74, 43
2, 15249, Note_on_c, 0, 86, 0
2, 15258, Note_on_c, 0, 60, 0
2, 15259, Note_on_c, 0, 74, 0
2, 15265, Note_on_c, 0, 43, 45
2, 15266, Note_on_c, 0, 53, 43
2, 15267, Note_on_c, 0, 59, 45
2, 15269, Note_on_c, 0, 79, 44
2, 15270, Note_on_c, 0, 83, 45
2, 15270, Note_on_c, 0, 86, 47
2, 15271, Note_on_c, 0, 91, 43
2, 15390, Note_on_c, 0, 43, 0
2, 15392, Note_on_c, 0, 53, 0
2, 15393, Note_on_c, 0, 59, 0
2, 15398, Note_on_c, 0, 41, 42
2, 15400, Note_on_c, 0, 57, 42
2, 15406, Note_on_c, 0, 83, 0
2, 15406, Note_on_c, 0, 79, 0
2, 15407, Note_on_c, 0, 86, 0
2, 15409, Note_on_c, 0, 91, 0
2, 15525, Note_on_c, 0, 41, 0
2, 15527, Note_on_c, 0, 57, 0
2, 15532, Note_on_c, 0, 40, 46
2, 15534, Note_on_c, 0, 55, 42
2, 15629, Note_on_c, 0, 76, 46
2, 15630, Note_on_c, 0, 84, 43
2, 15631, Note_on_c, 0, 88, 41
2, 15651, Note_on_c, 0, 40, 0
2, 15665, Note_on_c, 0, 55, 0
2, 15667, Note_on_c, 0, 76, 0
2, 15668, Note_on_c, 0, 84, 0
2, 15669, Note_on_c, 0, 88, 0
2, 15671, Note_on_c, 0, 38, 43
2, 15672, Note_on_c, 0, 53, 44
2, 15676, Note_on_c, 0, 77, 46
2, 15677, Note_on_c, 0, 86, 43
2, 15678, Note_on_c, 0, 89, 47
2, 15756, Note_on_c, 0, 77, 0
2, 15757, Note_on_c, 0, 86, 0
2, 15758, Note_on_c, 0, 89, 0
2, 15765, Note_on_c, 0, 78, 42
2, 15766, Note_on_c, 0, 87, 42
2, 15766, Note_on_c, 0, 90, 48
2, 15796, Note_on_c, 0, 38, 0
2, 15798, Note_on_c, 0, 53, 0
2, 15801, Note_on_c, 0, 78, 0
2, 15802, Note_on_c, 0, 87, 0
2, 15802, Note_on_c, 0, 90, 0
2, 15804, Note_on_c, 0, 36, 42
2, 15805, Note_on_c, 0, 43, 43
2, 15806, Note_on_c, 0, 52, 44
2, 15810, Note_on_c, 0, 79, 48
2, 15812, Note_on_c, 0, 88, 41
2, 15812, Note_on_c, 0, 91, 47
2, 15854, Note_on_c, 0, 36, 0
2, 15855, Note_on_c, 0, 43, 0
2, 15856, Note_on_c, 0, 52, 0
2, 15860, Note_on_c, 0, 79, 0
2, 15861, Note_on_c, 0, 88, 0
2, 15861, Note_on_c, 0, 91, 0
2, 15944, Note_on_c, 0, 55, 42
2, 15944, Note_on_c, 0, 57, 48
2, 15945, Note_on_c, 0, 60, 43
2, 15945, Note_on_c, 0, 64, 41
2, 15947, Note_on_c, 0, 81, 43
2, 15948, Note_on_c, 0, 88, 46
2, 15948, Note_on_c, 0, 93, 42
2, 15968, Note_on_c, 0, 55, 0
2, 15969, Note_on_c, 0, 57, 0
2, 15969, Note_on_c, 0, 60, 0
2, 15970, Note_on_c, 0, 64, 0
2, 15982, Note_on_c, 0, 81, 0
2, 15983, Note_on_c, 0, 88, 0
2, 15986, Note_on_c, 0, 93, 0
2, 16033, Note_on_c, 0, 79, 47
2, 16034, Note_on_c, 0, 88, 46
2, 16034, Note_on_c, 0, 91, 42
2, 16075, Note_on_c, 0, 43, 42
2, 16076, Note_on_c, 0, 55, 46
2, 16116, Note_on_c, 0, 88, 0
2, 16124, Note_on_c, 0, 43, 0
2, 16161, Note_on_c, 0, 79, 0
2, 16167, Note_on_c, 0, 91, 0
2, 16169, Note_on_c, 0, 76, 43
2, 16170, Note_on_c, 0, 84, 47
2, 16171, Note_on_c, 0, 88, 42
2, 16204, Note_on_c, 0, 55, 0
2, 16206, Note_on_c, 0, 76, 0
2, 16207, Note_on_c, 0, 84, 0
2, 16208, Note_on_c, 0, 88, 0
2, 16211, Note_on_c, 0, 43, 47
2, 16212, Note_on_c, 0, 53, 46
2, 16214, Note_on_c, 0, 77, 41
2, 16215, Note_on_c, 0, 86, 44
2, 16215, Note_on_c, 0, 89, 41
2, 16258, Note_on_c, 0, 43, 0
2, 16295, Note_on_c, 0, 77, 0
2, 16296, Note_on_c, 0, 89, 0
2, 16302, Note_on_c, 0, 78, 41
2, 16303, Note_on_c, 0, 87, 45
2, 16303, Note_on_c, 0, 90, 45
2, 16306, Note_on_c, 0, 86, 0
2, 16325, Note_on_c, 0, 53, 0
2, 16343, Note_on_c, 0, 36, 43
2, 16343, Note_on_c, 0, 43, 45
2, 16349, Note_on_c, 0, 78, 0
2, 16350, Note_on_c, 0, 90, 0
2, 16350, Note_on_c, 0, 87, 0
2, 16354, Note_on_c, 0, 52, 46
2, 16356, Note_on_c, 0, 79, 42
2, 16357, Note_on_c, 0, 91, 46
2, 16358, Note_on_c, 0, 88, 48
2, 16392, Note_on_c, 0, 52, 0
2, 16393, Note_on_c, 0, 43, 0
2, 16394, Note_on_c, 0, 79, 0
2, 16395, Note_on_c, 0, 88, 0
2, 16396, Note_on_c, 0, 91, 0
2, 16402, Note_on_c, 0, 36, 0
2, 16481, Note_on_c, 0, 57, 48
2, 16483, Note_on_c, 0, 55, 48
2, 16483, Note_on_c, 0, 60, 47
2, 16484, Note_on_c, 0, 64, 48
2, 16486, Note_on_c, 0, 81, 42
2, 16486, Note_on_c, 0, 88, 48
2, 16487, Note_on_c, 0, 93, 41
2, 16508, Note_on_c, 0, 55, 0
2, 16508, Note_on_c, 0, 57, 0
2, 16509, Note_on_c, 0, 64, 0
2, 16509, Note_on_c, 0, 60, 0
2, 16520, Note_on_c, 0, 88, 0
2, 16520, Note_on_c, 0, 81, 0
2, 16522, Note_on_c, 0, 93, 0
2, 16571, Note_on_c, 0, 79, 44
2, 16572, Note_on_c, 0, 88, 45
2, 16573, Note_on_c, 0, 91, 41
2, 16611, Note_on_c, 0, 48, 43
2, 16612, Note_on_c, 0, 60, 46
2, 16651, Note_on_c, 0, 88, 0
2, 16658, Note_on_c, 0, 48, 0
2, 16684, Note_on_c, 0, 79, 0
2, 16690, Note_on_c, 0, 91, 0
2, 16704, Note_on_c, 0, 76, 42
2, 16706, Note_on_c, 0, 88, 47
2, 16739, Note_on_c, 0, 60, 0
2, 16741, Note_on_c, 0, 76, 0
2, 16743, Note_on_c, 0, 88, 0
2, 16747, Note_on_c, 0, 48, 46
2, 16748, Note_on_c, 0, 58, 43
2, 16750, Note_on_c, 0, 72, 41
2, 16752, Note_on_c, 0, 84, 43
2, 16793, Note_on_c, 0, 48, 0
2, 16834, Note_on_c, 0, 67, 44
2, 16836, Note_on_c, 0, 79, 43
2, 16839, Note_on_c, 0, 84, 0
2, 16848, Note_on_c, 0, 72, 0
2, 16868, Note_on_c, 0, 58, 0
2, 16869, Note_on_c, 0, 67, 0
2, 16870, Note_on_c, 0, 79, 0
2, 16873, Note_on_c, 0, 41, 45
2, 16874, Note_on_c, 0, 48, 46
2, 16875, Note_on_c, 0, 57, 48
2, 16877, Note_on_c, 0, 69, 41
2, 16877, Note_on_c, 0, 72, 45
2, 16878, Note_on_c, 0, 77, 41
2, 16878, Note_on_c, 0, 81, 45
2, 16919, Note_on_c, 0, 41, 0
2, 16920, Note_on_c, 0, 48, 0
2, 16920, Note_on_c, 0, 57, 0
2, 16921, Note_on_c, 0, 69, 0
2, 16922, Note_on_c, 0, 72, 0
2, 16923, Note_on_c, 0, 77, 0
2, 16923, Note_on_c, 0, 81, 0
2, 16963, Note_on_c, 0, 71, 48
2, 16964, Note_on_c, 0, 83, 47
2, 16998, Note_on_c, 0, 71, 0
2, 16999, Note_on_c, 0, 83, 0
2, 17005, Note_on_c, 0, 57, 45
2, 17006, Note_on_c, 0, 60, 42
2, 17006, Note_on_c, 0, 65, 48
2, 17006, Note_on_c, 0, 72, 44
2, 17008, Note_on_c, 0, 84, 48
2, 17030, Note_on_c, 0, 60, 0
2, 17030, Note_on_c, 0, 57, 0
2, 17031, Note_on_c, 0, 65, 0
2, 17087, Note_on_c, 0, 72, 0
2, 17088, Note_on_c, 0, 84, 0
2, 17094, Note_on_c, 0, 74, 44
2, 17096, Note_on_c, 0, 86, 46
2, 17129, Note_on_c, 0, 74, 0
2, 17131, Note_on_c, 0, 86, 0
2, 17134, Note_on_c, 0, 41, 42
2, 17135, Note_on_c, 0, 48, 46
2, 17136, Note_on_c, 0, 56, 41
2, 17137, Note_on_c, 0, 76, 48
2, 17137, Note_on_c, 0, 80, 41
2, 17137, Note_on_c, 0, 84, 44
2, 17138, Note_on_c, 0, 88, 44
2, 17179, Note_on_c, 0, 41, 0
2, 17180, Note_on_c, 0, 48, 0
2, 17181, Note_on_c, 0, 56, 0
2, 17214, Note_on_c, 0, 76, 0
2, 17215, Note_on_c, 0, 80, 0
2, 17216, Note_on_c, 0, 84, 0
2, 17216, Note_on_c, 0, 88, 0
2, 17223, Note_on_c, 0, 74, 41
2, 17225, Note_on_c, 0, 86, 45
2, 17267, Note_on_c, 0, 56, 46
2, 17267, Note_on_c, 0, 60, 44
2, 17268, Note_on_c, 0, 62, 45
2, 17268, Note_on_c, 0, 65, 42
2, 17268, Note_on_c, 0, 72, 46
2, 17269, Note_on_c, 0, 77, 42
2, 17269, Note_on_c, 0, 80, 45
2, 17270, Note_on_c, 0, 84, 47
2, 17272, Note_on_c, 0, 74, 0
2, 17274, Note_on_c, 0, 86, 0
2, 17292, Note_on_c, 0, 56, 0
2, 17293, Note_on_c, 0, 60, 0
2, 17293, Note_on_c, 0, 62, 0
2, 17293, Note_on_c, 0, 65, 0
2, 17348, Note_on_c, 0, 72, 0
2, 17349, Note_on_c, 0, 77, 0
2, 17349, Note_on_c, 0, 80, 0
2, 17350, Note_on_c, 0, 84, 0
2, 17356, Note_on_c, 0, 74, 43
2, 17357, Note_on_c, 0, 86, 44
2, 17392, Note_on_c, 0, 74, 0
2, 17398, Note_on_c, 0, 43, 41
2, 17400, Note_on_c, 0, 55, 41
2, 17401, Note_on_c, 0, 76, 48
2, 17402, Note_on_c, 0, 79, 43
2, 17402, Note_on_c, 0, 84, 48
2, 17406, Note_on_c, 0, 86, 0
2, 17412, Note_on_c, 0, 72, 42
2, 17445, Note_on_c, 0, 43, 0
2, 17447, Note_on_c, 0, 55, 0
2, 17481, Note_on_c, 0, 76, 0
2, 17481, Note_on_c, 0, 72, 0
2, 17482, Note_on_c, 0, 79, 0
2, 17483, Note_on_c, 0, 84, 0
2, 17491, Note_on_c, 0, 75, 45
2, 17529, Note_on_c, 0, 75, 0
2, 17535, Note_on_c, 0, 55, 48
2, 17535, Note_on_c, 0, 57, 46
2, 17536, Note_on_c, 0, 60, 41
2, 17536, Note_on_c, 0, 64, 43
2, 17538, Note_on_c, 0, 76, 44
2, 17561, Note_on_c, 0, 57, 0
2, 17561, Note_on_c, 0, 55, 0
2, 17562, Note_on_c, 0, 64, 0
2, 17562, Note_on_c, 0, 60, 0
2, 17575, Note_on_c, 0, 76, 0
2, 17590, Control_c, 0, 64, 127
2, 17631, Note_on_c, 0, 76, 48
2, 17632, Note_on_c, 0, 84, 46
2, 17674, Note_on_c, 0, 48, 48
2, 17688, Note_on_c, 0, 70, 44
2, 17695, Note_on_c, 0, 36, 43
2, 17719, Note_on_c, 0, 36, 0
2, 17721, Note_on_c, 0, 48, 0
2, 17738, Control_c, 0, 64, 0
2, 17745, Note_on_c, 0, 70, 0
2, 17745, Note_on_c, 0, 76, 0
2, 17747, Note_on_c, 0, 84, 0
2, 17764, Note_on_c, 0, 67, 43
2, 17765, Note_on_c, 0, 79, 47
2, 17802, Note_on_c, 0, 67, 0
2, 17804, Note_on_c, 0, 79, 0
2, 17809, Note_on_c, 0, 58, 43
2, 17810, Note_on_c, 0, 60, 44
2, 17811, Note_on_c, 0, 64, 48
2, 17811, Note_on_c, 0, 66, 46
2, 17813, Note_on_c, 0, 78, 47
2, 17836, Note_on_c, 0, 64, 0
2, 17836, Note_on_c, 0, 58, 0
2, 17837, Note_on_c, 0, 60, 0
2, 17896, Note_on_c, 0, 66, 0
2, 17897, Note_on_c, 0, 78, 0
2, 17904, Note_on_c, 0, 67, 45
2, 17904, Note_on_c, 0, 79, 41
2, 17940, Note_on_c, 0, 67, 0
2, 17942, Note_on_c, 0, 79, 0
2, 17946, Note_on_c, 0, 41, 45
2, 17947, Note_on_c, 0, 48, 42
2, 17948, Note_on_c, 0, 57, 42
2, 17950, Note_on_c, 0, 72, 45
2, 17951, Note_on_c, 0, 77, 41
2, 17952, Note_on_c, 0, 81, 48
2, 17952, Note_on_c, 0, 84, 48
2, 17993, Note_on_c, 0, 41, 0
2, 17994, Note_on_c, 0, 48, 0
2, 17995, Note_on_c, 0, 57, 0
2, 17997, Note_on_c, 0, 72, 0
2, 17998, Note_on_c, 0, 77, 0
2, 17998, Note_on_c, 0, 81, 0
2, 17999, Note_on_c, 0, 84, 0
2, 18084, Note_on_c, 0, 57, 47
2, 18085, Note_on_c, 0, 60, 47
2, 18085, Note_on_c, 0, 65, 46
2, 18086, Note_on_c, 0, 69, 44
2, 18087, Note_on_c, 0, 81, 42
2, 18110, Note_on_c, 0, 57, 0
2, 18111, Note_on_c, 0, 60, 0
2, 18111, Note_on_c, 0, 65, 0
2, 18122, Note_on_c, 0, 69, 0
2, 18123, Note_on_c, 0, 81, 0
2, 18176, Note_on_c, 0, 72, 43
2, 18177, Note_on_c, 0, 75, 46
2, 18177, Note_on_c, 0, 78, 45
2, 18178, Note_on_c, 0, 84, 43
2, 18220, Note_on_c, 0, 42, 42
2, 18221, Note_on_c, 0, 51, 44
2, 18222, Note_on_c, 0, 57, 44
2, 18293, Note_on_c, 0, 84, 0
2, 18302, Note_on_c, 0, 57, 0
2, 18303, Note_on_c, 0, 72, 0
2, 18304, Note_on_c, 0, 75, 0
2, 18304, Note_on_c, 0, 78, 0
2, 18310, Note_on_c, 0, 69, 43
2, 18311, Note_on_c, 0, 81, 43
2, 18345, Note_on_c, 0, 69, 0
2, 18347, Note_on_c, 0, 81, 0
2, 18353, Note_on_c, 0, 57, 45
2, 18354, Note_on_c, 0, 60, 48
2, 18354, Note_on_c, 0, 63, 44
2, 18354, Note_on_c, 0, 66, 45
2, 18354, Note_on_c, 0, 72, 43
2, 18356, Note_on_c, 0, 84, 42
2, 18378, Note_on_c, 0, 57, 0
2, 18379, Note_on_c, 0, 63, 0
2, 18379, Note_on_c, 0, 60, 0
2, 18379, Note_on_c, 0, 66, 0
2, 18435, Note_on_c, 0, 72, 0
2, 18437, Note_on_c, 0, 84, 0
2, 18445, Note_on_c, 0, 69, 48
2, 18446, Note_on_c, 0, 81, 45
2, 18480, Note_on_c, 0, 42, 0
2, 18482, Note_on_c, 0, 69, 0
2, 18484, Note_on_c, 0, 81, 0
2, 18488, Note_on_c, 0, 43, 47
2, 18489, Note_on_c, 0, 51, 0
2, 18490, Note_on_c, 0, 52, 48
2, 18491, Note_on_c, 0, 67, 42
2, 18492, Note_on_c, 0, 72, 41
2, 18492, Note_on_c, 0, 76, 44
2, 18493, Note_on_c, 0, 79, 41
2, 18528, Note_on_c, 0, 72, 0
2, 18537, Note_on_c, 0, 43, 0
2, 18572, Note_on_c, 0, 67, 0
2, 18574, Note_on_c, 0, 79, 0
2, 18574, Note_on_c, 0, 76, 0
2, 18580, Note_on_c, 0, 72, 41
2, 18582, Note_on_c, 0, 84, 42
2, 18617, Note_on_c, 0, 72, 0
2, 18619, Note_on_c, 0, 84, 0
2, 18624, Note_on_c, 0, 55, 47
2, 18624, Note_on_c, 0, 60, 42
2, 18625, Note_on_c, 0, 64, 45
2, 18626, Note_on_c, 0, 76, 46
2, 18628, Note_on_c, 0, 88, 48
2, 18649, Note_on_c, 0, 55, 0
2, 18650, Note_on_c, 0, 64, 0
2, 18650, Note_on_c, 0, 60, 0
2, 18663, Note_on_c, 0, 76, 0
2, 18667, Note_on_c, 0, 88, 0
2, 18677, Control_c, 0, 64, 127
2, 18718, Note_on_c, 0, 79, 48
2, 18720, Note_on_c, 0, 91, 45
2, 18759, Note_on_c, 0, 31, 48
2, 18807, Note_on_c, 0, 31, 0
2, 18846, Note_on_c, 0, 79, 0
2, 18847, Note_on_c, 0, 91, 0
2, 18854, Note_on_c, 0, 76, 44
2, 18856, Note_on_c, 0, 88, 48
2, 18862, Control_c, 0, 64, 0
2, 18890, Note_on_c, 0, 76, 0
2, 18891, Note_on_c, 0, 88, 0
2, 18897, Note_on_c, 0, 55, 45
2, 18897, Note_on_c, 0, 84, 44
2, 18898, Note_on_c, 0, 60, 44
2, 18898, Note_on_c, 0, 64, 46
2, 18899, Note_on_c, 0, 72, 46
2, 18922, Note_on_c, 0, 60, 0
2, 18922, Note_on_c, 0, 55, 0
2, 18923, Note_on_c, 0, 64, 0
2, 18978, Note_on_c, 0, 72, 0
2, 18979, Note_on_c, 0, 84, 0
2, 18985, Note_on_c, 0, 67, 44
2, 18986, Note_on_c, 0, 79, 48
2, 19021, Note_on_c, 0, 52, 0
2, 19022, Note_on_c, 0, 67, 0
2, 19024, Note_on_c, 0, 79, 0
2, 19032, Note_on_c, 0, 50, 45
2, 19032, Note_on_c, 0, 60, 42
2, 19032, Note_on_c, 0, 66, 45
2, 19033, Note_on_c, 0, 69, 46
2, 19033, Note_on_c, 0, 72, 41
2, 19034, Note_on_c, 0, 78, 45
2, 19034, Note_on_c, 0, 81, 44
2, 19078, Note_on_c, 0, 50, 0
2, 19079, Note_on_c, 0, 72, 0
2, 19079, Note_on_c, 0, 60, 0
2, 19079, Note_on_c, 0, 69, 0
2, 19079, Note_on_c, 0, 66, 0
2, 19080, Note_on_c, 0, 81, 0
2, 19080, Note_on_c, 0, 78, 0
2, 19164, Note_on_c, 0, 50, 43
2, 19165, Note_on_c, 0, 60, 41
2, 19166, Note_on_c, 0, 66, 47
2, 19166, Note_on_c, 0, 72, 43
2, 19167, Note_on_c, 0, 78, 45
2, 19167, Note_on_c, 0, 81, 43
2, 19167, Note_on_c, 0, 84, 44
2, 19281, Note_on_c, 0, 50, 0
2, 19282, Note_on_c, 0, 60, 0
2, 19282, Note_on_c, 0, 66, 0
2, 19283, Note_on_c, 0, 72, 0
2, 19284, Note_on_c, 0, 84, 0
2, 19284, Note_on_c, 0, 81, 0
2, 19284, Note_on_c, 0, 78, 0
2, 19290, Note_on_c, 0, 55, 48
2, 19291, Note_on_c, 0, 65, 42
2, 19291, Note_on_c, 0, 71, 42
2, 19292, Note_on_c, 0, 76, 45
2, 19292, Note_on_c, 0, 79, 42
2, 19293, Note_on_c, 0, 83, 46
2, 19293, Note_on_c, 0, 88, 45
2, 19323, Note_on_c, 0, 55, 0
2, 19324, Note_on_c, 0, 65, 0
2, 19325, Note_on_c, 0, 76, 0
2, 19325, Note_on_c, 0, 71, 0
2, 19326, Note_on_c, 0, 88, 0
2, 19326, Note_on_c, 0, 79, 0
2, 19326, Note_on_c, 0, 83, 0
2, 19374, Note_on_c, 0, 55, 42
2, 19375, Note_on_c, 0, 65, 44
2, 19376, Note_on_c, 0, 71, 46
2, 19376, Note_on_c, 0, 74, 46
2, 19376, Note_on_c, 0, 77, 44
2, 19377, Note_on_c, 0, 83, 43
2, 19377, Note_on_c, 0, 86, 46
2, 19449, Note_on_c, 0, 55, 0
2, 19450, Note_on_c, 0, 65, 0
2, 19451, Note_on_c, 0, 74, 0
2, 19451, Note_on_c, 0, 71, 0
2, 19452, Note_on_c, 0, 83, 0
2, 19452, Note_on_c, 0, 77, 0
2, 19453, Note_on_c, 0, 86, 0
2, 19498, Note_on_c, 0, 48, 42
2, 19499, Note_on_c, 0, 55, 47
2, 19500, Note_on_c, 0, 64, 44
2, 19501, Note_on_c, 0, 76, 41
2, 19502, Note_on_c, 0, 79, 46
2, 19503, Note_on_c, 0, 84, 47
2, 19511, Note_on_c, 0, 72, 43
2, 19617, Note_on_c, 0, 48, 0
2, 19618, Note_on_c, 0, 55, 0
2, 19619, Note_on_c, 0, 64, 0
2, 19626, Note_on_c, 0, 42, 48
2, 19628, Note_on_c, 0, 54, 47
2, 19662, Note_on_c, 0, 42, 0
2, 19664, Note_on_c, 0, 54, 0
2, 19670, Note_on_c, 0, 43, 47
2, 19672, Note_on_c, 0, 55, 42
2, 19749, Note_on_c, 0, 43, 0
2, 19750, Note_on_c, 0, 55, 0
2, 19756, Note_on_c, 0, 52, 42
2, 19757, Note_on_c, 0, 40, 42
2, 19793, Note_on_c, 0, 40, 0
2, 19794, Note_on_c, 0, 52, 0
2, 19800, Note_on_c, 0, 36, 44
2, 19802, Note_on_c, 0, 48, 43
2, 19883, Note_on_c, 0, 36, 0
2, 19884, Note_on_c, 0, 48, 0
2, 19886, Note_on_c, 0, 79, 0
2, 19886, Note_on_c, 0, 76, 0
2, 19886, Note_on_c, 0, 72, 0
2, 19887, Note_on_c, 0, 84, 0
2, 19943, Note_on_c, 0, 74, 48
2, 20028, Note_on_c, 0, 74, 0
2, 20036, Note_on_c, 0, 75, 42
2, 20073, Note_on_c, 0, 75, 0
2, 20080, Note_on_c, 0, 48, 43
2, 20081, Note_on_c, 0, 60, 44
2, 20083, Note_on_c, 0, 76, 48
2, 20117, Note_on_c, 0, 76, 0
2, 20161, Note_on_c, 0, 48, 0
2, 20163, Note_on_c, 0, 60, 0
2, 20172, Note_on_c, 0, 72, 42
2, 20174, Note_on_c, 0, 79, 47
2, 20174, Note_on_c, 0, 84, 41
2, 20217, Note_on_c, 0, 47, 42
2, 20218, Note_on_c, 0, 59, 41
2, 20222, Note_on_c, 0, 72, 0
2, 20223, Note_on_c, 0, 79, 0
2, 20224, Note_on_c, 0, 84, 0
2, 20310, Note_on_c, 0, 76, 45
2, 20342, Note_on_c, 0, 47, 0
2, 20343, Note_on_c, 0, 59, 0
2, 20345, Note_on_c, 0, 76, 0
2, 20350, Note_on_c, 0, 46, 46
2, 20352, Note_on_c, 0, 58, 48
2, 20352, Note_on_c, 0, 72, 43
2, 20353, Note_on_c, 0, 79, 43
2, 20354, Note_on_c, 0, 84, 45
2, 20398, Note_on_c, 0, 46, 0
2, 20399, Note_on_c, 0, 58, 0
2, 20400, Note_on_c, 0, 72, 0
2, 20401, Note_on_c, 0, 79, 0
2, 20401, Note_on_c, 0, 84, 0
2, 20483, Note_on_c, 0, 55, 45
2, 20484, Note_on_c, 0, 58, 41
2, 20484, Note_on_c, 0, 60, 43
2, 20484, Note_on_c, 0, 64, 43
2, 20486, Note_on_c, 0, 76, 48
2, 20508, Note_on_c, 0, 55, 0
2, 20509, Note_on_c, 0, 58, 0
2, 20509, Note_on_c, 0, 60, 0
2, 20510, Note_on_c, 0, 64, 0
2, 20521, Note_on_c, 0, 76, 0
2, 20569, Control_c, 0, 64, 127
2, 20575, Note_on_c, 0, 74, 48
2, 20575, Note_on_c, 0, 75, 46
2, 20576, Note_on_c, 0, 84, 44
2, 20616, Note_on_c, 0, 45, 43
2, 20616, Note_on_c, 0, 57, 42
2, 20690, Note_on_c, 0, 45, 0
2, 20692, Note_on_c, 0, 57, 0
2, 20694, Note_on_c, 0, 74, 0
2, 20694, Note_on_c, 0, 75, 0
2, 20695, Note_on_c, 0, 84, 0
2, 20701, Note_on_c, 0, 72, 43
2, 20710, Control_c, 0, 64, 0
2, 20738, Note_on_c, 0, 72, 0
2, 20745, Note_on_c, 0, 57, 43
2, 20745, Note_on_c, 0, 60, 48
2, 20746, Note_on_c, 0, 62, 46
2, 20746, Note_on_c, 0, 65, 46
2, 20747, Note_on_c, 0, 74, 47
2, 20770, Note_on_c, 0, 60, 0
2, 20770, Note_on_c, 0, 57, 0
2, 20771, Note_on_c, 0, 65, 0
2, 20771, Note_on_c, 0, 62, 0
2, 20784, Note_on_c, 0, 74, 0
2, 20836, Note_on_c, 0, 72, 47
2, 20878, Note_on_c, 0, 44, 46
2, 20880, Note_on_c, 0, 56, 45
2, 20915, Note_on_c, 0, 72, 0
2, 20945, Note_on_c, 0, 44, 0
2, 20947, Note_on_c, 0, 56, 0
2, 20968, Note_on_c, 0, 72, 42
2, 20970, Note_on_c, 0, 84, 47
2, 21005, Note_on_c, 0, 72, 0
2, 21006, Note_on_c, 0, 84, 0
2, 21012, Note_on_c, 0, 56, 41
2, 21013, Note_on_c, 0, 60, 46
2, 21013, Note_on_c, 0, 62, 44
2, 21013, Note_on_c, 0, 65, 46
2, 21014, Note_on_c, 0, 74, 44
2, 21016, Note_on_c, 0, 86, 44
2, 21039, Note_on_c, 0, 56, 0
2, 21040, Note_on_c, 0, 65, 0
2, 21040, Note_on_c, 0, 60, 0
2, 21041, Note_on_c, 0, 62, 0
2, 21097, Note_on_c, 0, 74, 0
2, 21106, Note_on_c, 0, 75, 45
2, 21108, Note_on_c, 0, 87, 44
2, 21111, Note_on_c, 0, 86, 0
2, 21144, Note_on_c, 0, 75, 0
2, 21150, Note_on_c, 0, 87, 0
2, 21150, Note_on_c, 0, 43, 45
2, 21152, Note_on_c, 0, 55, 46
2, 21154, Note_on_c, 0, 76, 41
2, 21154, Note_on_c, 0, 79, 43
2, 21154, Note_on_c, 0, 88, 46
2, 21199, Note_on_c, 0, 43, 0
2, 21201, Note_on_c, 0, 55, 0
2, 21203, Note_on_c, 0, 79, 0
2, 21203, Note_on_c, 0, 76, 0
2, 21215, Note_on_c, 0, 88, 0
2, 21242, Note_on_c, 0, 72, 48
2, 21244, Note_on_c, 0, 84, 48
2, 21278, Note_on_c, 0, 72, 0
2, 21279, Note_on_c, 0, 84, 0
2, 21283, Note_on_c, 0, 86, 47
2, 21285, Note_on_c, 0, 55, 42
2, 21286, Note_on_c, 0, 60, 45
2, 21286, Note_on_c, 0, 64, 44
2, 21287, Note_on_c, 0, 74, 45
2, 21303, Control_c, 0, 64, 127
2, 21310, Note_on_c, 0, 64, 0
2, 21310, Note_on_c, 0, 60, 0
2, 21310, Note_on_c, 0, 55, 0
2, 21321, Note_on_c, 0, 74, 0
2, 21332, Note_on_c, 0, 86, 0
2, 21378, Note_on_c, 0, 76, 43
2, 21378, Note_on_c, 0, 79, 41
2, 21379, Note_on_c, 0, 88, 46
2, 21418, Note_on_c, 0, 31, 46
2, 21419, Note_on_c, 0, 43, 47
2, 21464, Note_on_c, 0, 31, 0
2, 21465, Note_on_c, 0, 43, 0
2, 21488, Note_on_c, 0, 76, 0
2, 21489, Note_on_c, 0, 79, 0
2, 21504, Note_on_c, 0, 88, 0
2, 21506, Note_on_c, 0, 71, 45
2, 21507, Note_on_c, 0, 83, 47
2, 21514, Control_c, 0, 64, 0
2, 21540, Note_on_c, 0, 71, 0
2, 21542, Note_on_c, 0, 83, 0
2, 21548, Note_on_c, 0, 55, 43
2, 21548, Note_on_c, 0, 59, 42
2, 21549, Note_on_c, 0, 62, 41
2, 21549, Note_on_c, 0, 65, 46
2, 21550, Note_on_c, 0, 74, 42
2, 21551, Note_on_c, 0, 77, 42
2, 21552, Note_on_c, 0, 86, 41
2, 21571, Note_on_c, 0, 55, 0
2, 21572, Note_on_c, 0, 65, 0
2, 21572, Note_on_c, 0, 59, 0
2, 21572, Note_on_c, 0, 62, 0
2, 21630, Note_on_c, 0, 48, 45
2, 21632, Note_on_c, 0, 60, 48
2, 21668, Note_on_c, 0, 77, 0
2, 21668, Note_on_c, 0, 74, 0
2, 21669, Note_on_c, 0, 86, 0
2, 21675, Note_on_c, 0, 72, 45
2, 21675, Note_on_c, 0, 76, 45
2, 21676, Note_on_c, 0, 48, 0
2, 21676, Note_on_c, 0, 79, 47
2, 21676, Note_on_c, 0, 84, 43
2, 21677, Note_on_c, 0, 60, 0
2, 21759, Note_on_c, 0, 48, 41
2, 21761, Note_on_c, 0, 60, 42
2, 21792, Note_on_c, 0, 48, 0
2, 21793, Note_on_c, 0, 60, 0
2, 21800, Note_on_c, 0, 47, 47
2, 21801, Note_on_c, 0, 59, 44
2, 21805, Note_on_c, 0, 76, 0
2, 21805, Note_on_c, 0, 72, 0
2, 21806, Note_on_c, 0, 84, 0
2, 21806, Note_on_c, 0, 79, 0
2, 21920, Note_on_c, 0, 47, 0
2, 21921, Note_on_c, 0, 59, 0
2, 21929, Note_on_c, 0, 45, 47
2, 21930, Note_on_c, 0, 57, 41
2, 22057, Note_on_c, 0, 45, 0
2, 22058, Note_on_c, 0, 57, 0
2, 22065, Note_on_c, 0, 43, 42
2, 22067, Note_on_c, 0, 55, 44
2, 22069, Note_on_c, 0, 74, 47
2, 22146, Note_on_c, 0, 43, 0
2, 22147, Note_on_c, 0, 55, 0
2, 22148, Note_on_c, 0, 74, 0
2, 22157, Note_on_c, 0, 75, 43
2, 22195, Note_on_c, 0, 75, 0
2, 22201, Note_on_c, 0, 48, 47
2, 22202, Note_on_c, 0, 60, 47
2, 22203, Note_on_c, 0, 76, 42
2, 22240, Note_on_c, 0, 76, 0
2, 22249, Note_on_c, 0, 48, 0
2, 22251, Note_on_c, 0, 60, 0
2, 22293, Note_on_c, 0, 72, 46
2, 22295, Note_on_c, 0, 79, 41
2, 22296, Note_on_c, 0, 84, 47
2, 22340, Note_on_c, 0, 47, 45
2, 22341, Note_on_c, 0, 59, 47
2, 22344, Note_on_c, 0, 72, 0
2, 22345, Note_on_c, 0, 79, 0
2, 22345, Note_on_c, 0, 84, 0
2, 22431, Note_on_c, 0, 76, 42
2, 22466, Note_on_c, 0, 47, 0
2, 22467, Note_on_c, 0, 59, 0
2, 22469, Note_on_c, 0, 76, 0
2, 22474, Note_on_c, 0, 46, 46
2, 22475, Note_on_c, 0, 58, 41
2, 22477, Note_on_c, 0, 72, 43
2, 22477, Note_on_c, 0, 79, 42
2, 22478, Note_on_c, 0, 84, 41
2, 22557, Note_on_c, 0, 46, 0
2, 22558, Note_on_c, 0, 58, 0
2, 22559, Note_on_c, 0, 72, 0
2, 22560, Note_on_c, 0, 79, 0
2, 22560, Note_on_c, 0, 84, 0
2, 22612, Note_on_c, 0, 58, 48
2, 22613, Note_on_c, 0, 55, 46
2, 22613, Note_on_c, 0, 60, 47
2, 22614, Note_on_c, 0, 64, 42
2, 22615, Note_on_c, 0, 76, 46
2, 22638, Note_on_c, 0, 60, 0
2, 22638, Note_on_c, 0, 58, 0
2, 22638, Note_on_c, 0, 55, 0
2, 22639, Note_on_c, 0, 64, 0
2, 22651, Note_on_c, 0, 76, 0
2, 22701, Note_on_c, 0, 74, 48
2, 22702, Note_on_c, 0, 75, 47
2, 22702, Note_on_c, 0, 84, 46
2, 22742, Note_on_c, 0, 41, 45
2, 22744, Note_on_c, 0, 57, 41
2, 22748, Note_on_c, 0, 74, 0
2, 22789, Note_on_c, 0, 41, 0
2, 22825, Note_on_c, 0, 75, 0
2, 22833, Note_on_c, 0, 72, 42
2, 22870, Note_on_c, 0, 72, 0
2, 22876, Note_on_c, 0, 60, 46
2, 22877, Note_on_c, 0, 65, 48
2, 22877, Note_on_c, 0, 69, 44
2, 22877, Note_on_c, 0, 74, 41
2, 22901, Note_on_c, 0, 60, 0
2, 22902, Note_on_c, 0, 69, 0
2, 22902, Note_on_c, 0, 65, 0
2, 22914, Note_on_c, 0, 74, 0
2, 22967, Note_on_c, 0, 72, 43
2, 23001, Note_on_c, 0, 57, 0
2, 23009, Note_on_c, 0, 55, 46
2, 23018, Note_on_c, 0, 40, 47
2, 23046, Note_on_c, 0, 84, 0
2, 23057, Note_on_c, 0, 72, 0
2, 23089, Note_on_c, 0, 55, 0
2, 23136, Note_on_c, 0, 40, 0
2, 23144, Note_on_c, 0, 39, 47
2, 23145, Note_on_c, 0, 55, 46
2, 23147, Note_on_c, 0, 69, 42
2, 23147, Note_on_c, 0, 72, 42
2, 23149, Note_on_c, 0, 75, 47
2, 23150, Note_on_c, 0, 81, 46
2, 23230, Note_on_c, 0, 75, 0
2, 23230, Note_on_c, 0, 72, 0
2, 23230, Note_on_c, 0, 69, 0
2, 23231, Note_on_c, 0, 81, 0
2, 23237, Note_on_c, 0, 67, 43
2, 23239, Note_on_c, 0, 79, 43
2, 23271, Note_on_c, 0, 39, 0
2, 23272, Note_on_c, 0, 55, 0
2, 23273, Note_on_c, 0, 67, 0
2, 23275, Note_on_c, 0, 79, 0
2, 23280, Note_on_c, 0, 38, 41
2, 23281, Note_on_c, 0, 54, 43
2, 23282, Note_on_c, 0, 66, 42
2, 23283, Note_on_c, 0, 72, 46
2, 23283, Note_on_c, 0, 74, 44
2, 23284, Note_on_c, 0, 78, 42
2, 23365, Note_on_c, 0, 74, 0
2, 23365, Note_on_c, 0, 72, 0
2, 23365, Note_on_c, 0, 66, 0
2, 23366, Note_on_c, 0, 78, 0
2, 23374, Note_on_c, 0, 69, 48
2, 23376, Note_on_c, 0, 81, 42
2, 23411, Note_on_c, 0, 69, 0
2, 23413, Note_on_c, 0, 81, 0
2, 23420, Note_on_c, 0, 60, 42
2, 23420, Note_on_c, 0, 62, 47
2, 23420, Note_on_c, 0, 66, 48
2, 23421, Note_on_c, 0, 72, 41
2, 23423, Note_on_c, 0, 84, 44
2, 23458, Note_on_c, 0, 66, 0
2, 23458, Note_on_c, 0, 62, 0
2, 23458, Note_on_c, 0, 60, 0
2, 23459, Note_on_c, 0, 72, 0
2, 23466, Note_on_c, 0, 84, 0
2, 23523, Note_on_c, 0, 60, 46
2, 23524, Note_on_c, 0, 64, 48
2, 23525, Note_on_c, 0, 66, 45
2, 23525, Note_on_c, 0, 71, 47
2, 23526, Note_on_c, 0, 76, 43
2, 23527, Note_on_c, 0, 88, 42
2, 23602, Note_on_c, 0, 60, 0
2, 23603, Note_on_c, 0, 66, 0
2, 23603, Note_on_c, 0, 64, 0
2, 23604, Note_on_c, 0, 71, 0
2, 23636, Note_on_c, 0, 76, 0
2, 23638, Note_on_c, 0, 88, 0
2, 23653, Note_on_c, 0, 60, 43
2, 23653, Note_on_c, 0, 64, 41
2, 23655, Note_on_c, 0, 71, 46
2, 23655, Note_on_c, 0, 74, 48
2, 23657, Note_on_c, 0, 86, 48
2, 23667, Note_on_c, 0, 60, 0
2, 23689, Note_on_c, 0, 71, 0
2, 23689, Note_on_c, 0, 74, 0
2, 23691, Note_on_c, 0, 86, 0
2, 23696, Note_on_c, 0, 60, 46
2, 23696, Note_on_c, 0, 62, 47
2, 23696, Note_on_c, 0, 84, 48
2, 23697, Note_on_c, 0, 66, 46
2, 23697, Note_on_c, 0, 69, 48
2, 23697, Note_on_c, 0, 72, 46
2, 23699, Note_on_c, 0, 64, 0
2, 23733, Note_on_c, 0, 69, 0
2, 23774, Note_on_c, 0, 60, 0
2, 23775, Note_on_c, 0, 62, 0
2, 23775, Note_on_c, 0, 66, 0
2, 23777, Note_on_c, 0, 84, 0
2, 23784, Note_on_c, 0, 69, 42
2, 23785, Note_on_c, 0, 81, 47
2, 23787, Note_on_c, 0, 72, 0
2, 23816, Note_on_c, 0, 38, 0
2, 23818, Note_on_c, 0, 54, 0
2, 23819, Note_on_c, 0, 69, 0
2, 23821, Note_on_c, 0, 81, 0
2, 23824, Note_on_c, 0, 43, 44
2, 23825, Note_on_c, 0, 53, 43
2, 23826, Note_on_c, 0, 59, 41
2, 23828, Note_on_c, 0, 74, 43
2, 23828, Note_on_c, 0, 77, 45
2, 23830, Note_on_c, 0, 86, 47
2, 23900, Note_on_c, 0, 43, 0
2, 23901, Note_on_c, 0, 53, 0
2, 23902, Note_on_c, 0, 59, 0
2, 23909, Note_on_c, 0, 62, 48
2, 23945, Note_on_c, 0, 62, 0
2, 23950, Note_on_c, 0, 38, 47
2, 23952, Note_on_c, 0, 50, 47
2, 23952, Note_on_c, 0, 60, 45
2, 23953, Note_on_c, 0, 65, 44
2, 23953, Note_on_c, 0, 69, 47
2, 23986, Note_on_c, 0, 38, 0
2, 23987, Note_on_c, 0, 50, 0
2, 23988, Note_on_c, 0, 60, 0
2, 23988, Note_on_c, 0, 65, 0
2, 23989, Note_on_c, 0, 69, 0
2, 24036, Note_on_c, 0, 31, 47
2, 24036, Note_on_c, 0, 43, 46
2, 24038, Note_on_c, 0, 59, 42
2, 24038, Note_on_c, 0, 62, 44
2, 24038, Note_on_c, 0, 67, 44
2, 24115, Note_on_c, 0, 43, 0
2, 24156, Note_on_c, 0, 31, 0
2, 24158, Note_on_c, 0, 59, 0
2, 24159, Note_on_c, 0, 67, 0
2, 24159, Note_on_c, 0, 62, 0
2, 24160, Note_on_c, 0, 74, 0
2, 24161, Note_on_c, 0, 77, 0
2, 24161, Note_on_c, 0, 86, 0
2, 24166, Note_on_c, 0, 43, 47
2, 24166, Note_on_c, 0, 55, 47
2, 24200, Note_on_c, 0, 43, 0
2, 24202, Note_on_c, 0, 55, 0
2, 24209, Note_on_c, 0, 45, 43
2, 24210, Note_on_c, 0, 57, 48
2, 24212, Note_on_c, 0, 74, 46
2, 24291, Note_on_c, 0, 45, 0
2, 24292, Note_on_c, 0, 57, 0
2, 24300, Note_on_c, 0, 47, 47
2, 24302, Note_on_c, 0, 59, 41
2, 24303, Note_on_c, 0, 75, 44
2, 24308, Note_on_c, 0, 74, 0
2, 24338, Note_on_c, 0, 47, 0
2, 24339, Note_on_c, 0, 59, 0
2, 24341, Note_on_c, 0, 75, 0
2, 24348, Note_on_c, 0, 48, 41
2, 24350, Note_on_c, 0, 60, 41
2, 24352, Note_on_c, 0, 76, 44
2, 24388, Note_on_c, 0, 76, 0
2, 24398, Note_on_c, 0, 48, 0
2, 24399, Note_on_c, 0, 60, 0
2, 24442, Note_on_c, 0, 72, 42
2, 24443, Note_on_c, 0, 79, 43
2, 24443, Note_on_c, 0, 84, 44
2, 24484, Note_on_c, 0, 47, 48
2, 24485, Note_on_c, 0, 59, 45
2, 24490, Note_on_c, 0, 79, 0
2, 24491, Note_on_c, 0, 72, 0
2, 24491, Note_on_c, 0, 84, 0
2, 24576, Note_on_c, 0, 76, 43
2, 24612, Note_on_c, 0, 47, 0
2, 24613, Note_on_c, 0, 59, 0
2, 24615, Note_on_c, 0, 76, 0
2, 24620, Note_on_c, 0, 46, 41
2, 24622, Note_on_c, 0, 58, 44
2, 24624, Note_on_c, 0, 72, 47
2, 24624, Note_on_c, 0, 79, 45
2, 24625, Note_on_c, 0, 84, 41
2, 24701, Note_on_c, 0, 46, 0
2, 24702, Note_on_c, 0, 58, 0
2, 24703, Note_on_c, 0, 72, 0
2, 24705, Note_on_c, 0, 79, 0
2, 24705, Note_on_c, 0, 84, 0
2, 24756, Note_on_c, 0, 55, 46
2, 24756, Note_on_c, 0, 58, 46
2, 24757, Note_on_c, 0, 60, 41
2, 24757, Note_on_c, 0, 64, 42
2, 24758, Note_on_c, 0, 76, 48
2, 24780, Note_on_c, 0, 55, 0
2, 24781, Note_on_c, 0, 64, 0
2, 24781, Note_on_c, 0, 58, 0
2, 24781, Note_on_c, 0, 60, 0
2, 24793, Note_on_c, 0, 76, 0
2, 24836, Note_on_c, 0, 84, 48
2, 24845, Note_on_c, 0, 74, 42
2, 24846, Note_on_c, 0, 75, 46
2, 24888, Note_on_c, 0, 45, 44
2, 24888, Note_on_c, 0, 57, 41
2, 24894, Note_on_c, 0, 75, 0
2, 24894, Note_on_c, 0, 74, 0
2, 24896, Note_on_c, 0, 84, 0
2, 24984, Note_on_c, 0, 74, 46
2, 24985, Note_on_c, 0, 75, 46
2, 24986, Note_on_c, 0, 84, 46
2, 25008, Note_on_c, 0, 57, 0
2, 25019, Note_on_c, 0, 45, 0
2, 25026, Note_on_c, 0, 41, 43
2, 25028, Note_on_c, 0, 53, 47
2, 25032, Note_on_c, 0, 75, 0
2, 25032, Note_on_c, 0, 74, 0
2, 25033, Note_on_c, 0, 84, 0
2, 25114, Note_on_c, 0, 74, 41
2, 25140, Note_on_c, 0, 41, 0
2, 25142, Note_on_c, 0, 53, 0
2, 25154, Note_on_c, 0, 74, 0
2, 25162, Note_on_c, 0, 40, 43
2, 25163, Note_on_c, 0, 52, 42
2, 25165, Note_on_c, 0, 72, 48
2, 25199, Note_on_c, 0, 40, 0
2, 25200, Note_on_c, 0, 52, 0
2, 25201, Note_on_c, 0, 72, 0
2, 25255, Note_on_c, 0, 40, 41
2, 25256, Note_on_c, 0, 52, 47
2, 25258, Note_on_c, 0, 72, 46
2, 25259, Note_on_c, 0, 84, 41
2, 25294, Note_on_c, 0, 52, 0
2, 25294, Note_on_c, 0, 40, 0
2, 25301, Note_on_c, 0, 41, 44
2, 25301, Note_on_c, 0, 53, 46
2, 25303, Note_on_c, 0, 74, 46
2, 25305, Note_on_c, 0, 86, 42
2, 25307, Note_on_c, 0, 72, 0
2, 25309, Note_on_c, 0, 84, 0
2, 25371, Note_on_c, 0, 41, 0
2, 25373, Note_on_c, 0, 74, 0
2, 25383, Note_on_c, 0, 53, 0
2, 25390, Note_on_c, 0, 42, 43
2, 25391, Note_on_c, 0, 54, 42
2, 25392, Note_on_c, 0, 75, 43
2, 25393, Note_on_c, 0, 87, 48
2, 25397, Note_on_c, 0, 86, 0
2, 25425, Note_on_c, 0, 42, 0
2, 25426, Note_on_c, 0, 54, 0
2, 25428, Note_on_c, 0, 75, 0
2, 25429, Note_on_c, 0, 87, 0
2, 25435, Note_on_c, 0, 43, 47
2, 25437, Note_on_c, 0, 55, 43
2, 25439, Note_on_c, 0, 76, 43
2, 25440, Note_on_c, 0, 79, 44
2, 25440, Note_on_c, 0, 88, 45
2, 25471, Note_on_c, 0, 43, 0
2, 25472, Note_on_c, 0, 55, 0
2, 25474, Note_on_c, 0, 76, 0
2, 25475, Note_on_c, 0, 79, 0
2, 25476, Note_on_c, 0, 88, 0
2, 25531, Note_on_c, 0, 72, 43
2, 25532, Note_on_c, 0, 76, 47
2, 25534, Note_on_c, 0, 84, 45
2, 25569, Note_on_c, 0, 76, 0
2, 25569, Note_on_c, 0, 72, 0
2, 25571, Note_on_c, 0, 84, 0
2, 25578, Note_on_c, 0, 55, 46
2, 25579, Note_on_c, 0, 60, 46
2, 25579, Note_on_c, 0, 64, 43
2, 25580, Note_on_c, 0, 74, 44
2, 25581, Note_on_c, 0, 77, 48
2, 25583, Note_on_c, 0, 86, 45
2, 25602, Note_on_c, 0, 55, 0
2, 25603, Note_on_c, 0, 60, 0
2, 25603, Note_on_c, 0, 64, 0
2, 25615, Note_on_c, 0, 74, 0
2, 25616, Note_on_c, 0, 77, 0
2, 25617, Note_on_c, 0, 86, 0
2, 25619, Control_c, 0, 64, 127
2, 25668, Note_on_c, 0, 76, 46
2, 25668, Note_on_c, 0, 79, 46
2, 25669, Note_on_c, 0, 88, 48
2, 25709, Note_on_c, 0, 31, 44
2, 25709, Note_on_c, 0, 43, 45
2, 25756, Note_on_c, 0, 31, 0
2, 25757, Note_on_c, 0, 43, 0
2, 25784, Note_on_c, 0, 76, 0
2, 25785, Note_on_c, 0, 79, 0
2, 25786, Note_on_c, 0, 88, 0
2, 25800, Control_c, 0, 64, 0
2, 25803, Note_on_c, 0, 71, 41
2, 25803, Note_on_c, 0, 74, 45
2, 25805, Note_on_c, 0, 83, 42
2, 25819, Note_on_c, 0, 74, 0
2, 25841, Note_on_c, 0, 71, 0
2, 25843, Note_on_c, 0, 83, 0
2, 25848, Note_on_c, 0, 53, 47
2, 25849, Note_on_c, 0, 55, 44
2, 25850, Note_on_c, 0, 59, 42
2, 25850, Note_on_c, 0, 62, 43
2, 25851, Note_on_c, 0, 74, 41
2, 25853, Note_on_c, 0, 77, 41
2, 25854, Note_on_c, 0, 86, 41
2, 25873, Note_on_c, 0, 55, 0
2, 25873, Note_on_c, 0, 53, 0
2, 25874, Note_on_c, 0, 59, 0
2, 25875, Note_on_c, 0, 62, 0
2, 25978, Note_on_c, 0, 74, 0
2, 25978, Note_on_c, 0, 77, 0
2, 25981, Note_on_c, 0, 36, 44
2, 25982, Note_on_c, 0, 43, 46
2, 25983, Note_on_c, 0, 52, 42
2, 25985, Note_on_c, 0, 72, 48
2, 25986, Note_on_c, 0, 76, 44
2, 25986, Note_on_c, 0, 79, 42
2, 25986, Note_on_c, 0, 84, 41
2, 25991, Note_on_c, 0, 86, 0
2, 26027, Note_on_c, 0, 36, 0
2, 26028, Note_on_c, 0, 43, 0
2, 26029, Note_on_c, 0, 52, 0
2, 26063, Note_on_c, 0, 72, 0
2, 26063, Note_on_c, 0, 76, 0
2, 26064, Note_on_c, 0, 84, 0
2, 26064, Note_on_c, 0, 79, 0
2, 26071, Note_on_c, 0, 74, 41
2, 26097, Note_on_c, 0, 74, 0
2, 26115, Note_on_c, 0, 55, 47
2, 26115, Note_on_c, 0, 60, 43
2, 26115, Note_on_c, 0, 64, 46
2, 26116, Note_on_c, 0, 75, 42
2, 26140, Note_on_c, 0, 64, 0
2, 26140, Note_on_c, 0, 55, 0
2, 26140, Note_on_c, 0, 60, 0
2, 26154, Note_on_c, 0, 75, 0
2, 26158, Control_c, 0, 64, 127
2, 26203, Note_on_c, 0, 69, 47
2, 26204, Note_on_c, 0, 76, 45
2, 26205, Note_on_c, 0, 84, 46
2, 26242, Note_on_c, 0, 31, 48
2, 26287, Note_on_c, 0, 31, 0
2, 26324, Note_on_c, 0, 69, 0
2, 26324, Note_on_c, 0, 76, 0
2, 26325, Note_on_c, 0, 84, 0
2, 26330, Control_c, 0, 64, 0
2, 26376, Note_on_c, 0, 55, 42
2, 26376, Note_on_c, 0, 57, 46
2, 26376, Note_on_c, 0, 60, 46
2, 26376, Note_on_c, 0, 64, 45
2, 26377, Note_on_c, 0, 72, 41
2, 26379, Note_on_c, 0, 84, 48
2, 26401, Note_on_c, 0, 60, 0
2, 26401, Note_on_c, 0, 55, 0
2, 26401, Note_on_c, 0, 57, 0
2, 26402, Note_on_c, 0, 64, 0
2, 26466, Note_on_c, 0, 74, 44
2, 26468, Note_on_c, 0, 86, 48
2, 26470, Note_on_c, 0, 72, 0
2, 26472, Note_on_c, 0, 84, 0
2, 26496, Note_on_c, 0, 60, 41
2, 26502, Note_on_c, 0, 74, 0
2, 26509, Note_on_c, 0, 48, 44
2, 26511, Note_on_c, 0, 76, 45
2, 26512, Note_on_c, 0, 79, 48
2, 26512, Note_on_c, 0, 84, 48
2, 26513, Note_on_c, 0, 88, 48
2, 26516, Note_on_c, 0, 86, 0
2, 26545, Note_on_c, 0, 76, 0
2, 26546, Note_on_c, 0, 79, 0
2, 26547, Note_on_c, 0, 84, 0
2, 26547, Note_on_c, 0, 88, 0
2, 26595, Note_on_c, 0, 72, 45
2, 26597, Note_on_c, 0, 84, 46
2, 26630, Note_on_c, 0, 48, 0
2, 26631, Note_on_c, 0, 60, 0
2, 26633, Note_on_c, 0, 72, 0
2, 26635, Note_on_c, 0, 84, 0
2, 26638, Note_on_c, 0, 47, 43
2, 26639, Note_on_c, 0, 59, 46
2, 26640, Note_on_c, 0, 74, 46
2, 26642, Note_on_c, 0, 86, 44
2, 26679, Note_on_c, 0, 74, 0
2, 26681, Note_on_c, 0, 86, 0
2, 26734, Note_on_c, 0, 76, 47
2, 26735, Note_on_c, 0, 79, 48
2, 26736, Note_on_c, 0, 82, 45
2, 26736, Note_on_c, 0, 88, 42
2, 26769, Note_on_c, 0, 47, 0
2, 26771, Note_on_c, 0, 59, 0
2, 26778, Note_on_c, 0, 46, 46
2, 26779, Note_on_c, 0, 58, 43
2, 26856, Note_on_c, 0, 46, 0
2, 26857, Note_on_c, 0, 58, 0
2, 26859, Note_on_c, 0, 76, 0
2, 26860, Note_on_c, 0, 79, 0
2, 26860, Note_on_c, 0, 82, 0
2, 26861, Note_on_c, 0, 88, 0
2, 26868, Note_on_c, 0, 72, 47
2, 26870, Note_on_c, 0, 84, 41
2, 26906, Note_on_c, 0, 72, 0
2, 26908, Note_on_c, 0, 84, 0
2, 26913, Note_on_c, 0, 55, 41
2, 26913, Note_on_c, 0, 58, 47
2, 26914, Note_on_c, 0, 60, 42
2, 26914, Note_on_c, 0, 64, 48
2, 26914, Note_on_c, 0, 74, 43
2, 26916, Note_on_c, 0, 86, 43
2, 26940, Note_on_c, 0, 64, 0
2, 26940, Note_on_c, 0, 60, 0
2, 26940, Note_on_c, 0, 55, 0
2, 26940, Note_on_c, 0, 58, 0
2, 26998, Note_on_c, 0, 74, 0
2, 27000, Note_on_c, 0, 86, 0
2, 27006, Note_on_c, 0, 72, 44
2, 27008, Note_on_c, 0, 84, 44
2, 27024, Note_on_c, 0, 84, 0
2, 27045, Note_on_c, 0, 72, 0
2, 27051, Note_on_c, 0, 45, 42
2, 27052, Note_on_c, 0, 57, 41
2, 27054, Note_on_c, 0, 76, 42
2, 27055, Note_on_c, 0, 81, 44
2, 27055, Note_on_c, 0, 84, 42
2, 27056, Note_on_c, 0, 88, 47
2, 27092, Note_on_c, 0, 84, 0
2, 27122, Note_on_c, 0, 57, 0
2, 27133, Note_on_c, 0, 45, 0
2, 27135, Note_on_c, 0, 76, 0
2, 27136, Note_on_c, 0, 81, 0
2, 27143, Note_on_c, 0, 72, 46
2, 27144, Note_on_c, 0, 84, 47
2, 27152, Note_on_c, 0, 88, 0
2, 27178, Note_on_c, 0, 72, 0
2, 27180, Note_on_c, 0, 84, 0
2, 27185, Note_on_c, 0, 57, 44
2, 27186, Note_on_c, 0, 60, 48
2, 27186, Note_on_c, 0, 62, 44
2, 27186, Note_on_c, 0, 65, 41
2, 27187, Note_on_c, 0, 74, 48
2, 27189, Note_on_c, 0, 86, 44
2, 27212, Note_on_c, 0, 60, 0
2, 27212, Note_on_c, 0, 57, 0
2, 27213, Note_on_c, 0, 65, 0
2, 27213, Note_on_c, 0, 62, 0
2, 27224, Note_on_c, 0, 74, 0
2, 27228, Note_on_c, 0, 86, 0
2, 27278, Note_on_c, 0, 84, 47
2, 27279, Note_on_c, 0, 76, 45
2, 27281, Note_on_c, 0, 80, 46
2, 27282, Note_on_c, 0, 88, 45
2, 27323, Note_on_c, 0, 44, 46
2, 27324, Note_on_c, 0, 56, 44
2, 27353, Note_on_c, 0, 84, 0
2, 27403, Note_on_c, 0, 44, 0
2, 27405, Note_on_c, 0, 56, 0
2, 27407, Note_on_c, 0, 80, 0
2, 27407, Note_on_c, 0, 76, 0
2, 27413, Note_on_c, 0, 72, 47
2, 27414, Note_on_c, 0, 84, 41
2, 27416, Note_on_c, 0, 88, 0
2, 27448, Note_on_c, 0, 72, 0
2, 27450, Note_on_c, 0, 84, 0
2, 27456, Note_on_c, 0, 56, 45
2, 27456, Note_on_c, 0, 60, 44
2, 27456, Note_on_c, 0, 62, 44
2, 27456, Note_on_c, 0, 65, 41
2, 27457, Note_on_c, 0, 74, 43
2, 27459, Note_on_c, 0, 86, 43
2, 27481, Note_on_c, 0, 60, 0
2, 27481, Note_on_c, 0, 56, 0
2, 27482, Note_on_c, 0, 65, 0
2, 27482, Note_on_c, 0, 62, 0
2, 27528, Note_on_c, 0, 74, 0
2, 27530, Note_on_c, 0, 86, 0
2, 27551, Note_on_c, 0, 72, 46
2, 27588, Note_on_c, 0, 72, 0
2, 27593, Note_on_c, 0, 43, 45
2, 27594, Note_on_c, 0, 55, 43
2, 27596, Note_on_c, 0, 76, 44
2, 27597, Note_on_c, 0, 79, 48
2, 27598, Note_on_c, 0, 84, 48
2, 27599, Note_on_c, 0, 88, 45
2, 27630, Note_on_c, 0, 43, 0
2, 27631, Note_on_c, 0, 55, 0
2, 27633, Note_on_c, 0, 76, 0
2, 27634, Note_on_c, 0, 79, 0
2, 27635, Note_on_c, 0, 88, 0
2, 27646, Note_on_c, 0, 84, 0
2, 27687, Note_on_c, 0, 72, 43
2, 27688, Note_on_c, 0, 76, 44
2, 27689, Note_on_c, 0, 84, 45
2, 27724, Note_on_c, 0, 76, 0
2, 27724, Note_on_c, 0, 72, 0
2, 27725, Note_on_c, 0, 84, 0
2, 27731, Note_on_c, 0, 55, 41
2, 27731, Note_on_c, 0, 60, 44
2, 27732, Note_on_c, 0, 64, 47
2, 27733, Note_on_c, 0, 74, 48
2, 27734, Note_on_c, 0, 77, 42
2, 27735, Note_on_c, 0, 86, 48
2, 27757, Note_on_c, 0, 55, 0
2, 27758, Note_on_c, 0, 60, 0
2, 27758, Note_on_c, 0, 64, 0
2, 27770, Note_on_c, 0, 74, 0
2, 27770, Note_on_c, 0, 77, 0
2, 27782, Note_on_c, 0, 86, 0
2, 27805, Control_c, 0, 64, 127
2, 27823, Note_on_c, 0, 76, 45
2, 27823, Note_on_c, 0, 79, 43
2, 27825, Note_on_c, 0, 88, 41
2, 27866, Note_on_c, 0, 31, 46
2, 27867, Note_on_c, 0, 43, 43
2, 27917, Note_on_c, 0, 31, 0
2, 27918, Note_on_c, 0, 43, 0
2, 27945, Note_on_c, 0, 76, 0
2, 27946, Note_on_c, 0, 79, 0
2, 27947, Note_on_c, 0, 88, 0
2, 27962, Note_on_c, 0, 74, 47
2, 27964, Control_c, 0, 64, 0
2, 27964, Note_on_c, 0, 71, 48
2, 27966, Note_on_c, 0, 83, 44
2, 27981, Note_on_c, 0, 74, 0
2, 28004, Note_on_c, 0, 71, 0
2, 28005, Note_on_c, 0, 83, 0
2, 28010, Note_on_c, 0, 55, 45
2, 28011, Note_on_c, 0, 59, 45
2, 28011, Note_on_c, 0, 62, 44
2, 28012, Note_on_c, 0, 65, 43
2, 28012, Note_on_c, 0, 74, 43
2, 28013, Note_on_c, 0, 77, 45
2, 28013, Note_on_c, 0, 86, 47
2, 28036, Note_on_c, 0, 59, 0
2, 28036, Note_on_c, 0, 55, 0
2, 28037, Note_on_c, 0, 65, 0
2, 28037, Note_on_c, 0, 62, 0
2, 28141, Note_on_c, 0, 74, 0
2, 28142, Note_on_c, 0, 77, 0
2, 28143, Note_on_c, 0, 86, 0
2, 28147, Note_on_c, 0, 48, 48
2, 28148, Note_on_c, 0, 55, 48
2, 28149, Note_on_c, 0, 64, 48
2, 28149, Note_on_c, 0, 72, 46
2, 28150, Note_on_c, 0, 76, 41
2, 28150, Note_on_c, 0, 79, 46
2, 28151, Note_on_c, 0, 84, 43
2, 28228, Note_on_c, 0, 48, 0
2, 28229, Note_on_c, 0, 55, 0
2, 28230, Note_on_c, 0, 64, 0
2, 28231, Note_on_c, 0, 76, 0
2, 28231, Note_on_c, 0, 72, 0
2, 28232, Note_on_c, 0, 79, 0
2, 28232, Note_on_c, 0, 84, 0
2, 28239, Note_on_c, 0, 74, 44
2, 28281, Note_on_c, 0, 43, 45
2, 28282, Note_on_c, 0, 55, 42
2, 28284, Note_on_c, 0, 75, 48
2, 28285, Note_on_c, 0, 81, 43
2, 28288, Note_on_c, 0, 74, 0
2, 28320, Note_on_c, 0, 75, 0
2, 28321, Note_on_c, 0, 81, 0
2, 28371, Note_on_c, 0, 69, 41
2, 28372, Note_on_c, 0, 76, 43
2, 28373, Note_on_c, 0, 79, 44
2, 28373, Note_on_c, 0, 84, 48
2, 28393, Note_on_c, 0, 43, 0
2, 28404, Note_on_c, 0, 55, 0
2, 28410, Note_on_c, 0, 36, 44
2, 28412, Note_on_c, 0, 48, 44
2, 28488, Note_on_c, 0, 36, 0
2, 28489, Note_on_c, 0, 48, 0
2, 28491, Note_on_c, 0, 69, 0
2, 28492, Note_on_c, 0, 76, 0
2, 28493, Note_on_c, 0, 79, 0
2, 28493, Note_on_c, 0, 84, 0
2, 28497, Note_on_c, 0, 38, 42
2, 28498, Note_on_c, 0, 50, 43
2, 28541, Note_on_c, 0, 39, 44
2, 28542, Note_on_c, 0, 51, 48
2, 28544, Note_on_c, 0, 38, 0
2, 28545, Note_on_c, 0, 50, 0
2, 28618, Note_on_c, 0, 39, 0
2, 28620, Note_on_c, 0, 51, 0
2, 28626, Note_on_c, 0, 40, 47
2, 28628, Note_on_c, 0, 52, 43
2, 28662, Note_on_c, 0, 52, 0
2, 28669, Note_on_c, 0, 41, 48
2, 28671, Note_on_c, 0, 53, 43
2, 28672, Note_on_c, 0, 40, 0
2, 28674, Note_on_c, 0, 77, 44
2, 28674, Note_on_c, 0, 81, 46
2, 28716, Note_on_c, 0, 41, 0
2, 28717, Note_on_c, 0, 53, 0
2, 28753, Note_on_c, 0, 77, 0
2, 28753, Note_on_c, 0, 81, 0
2, 28760, Note_on_c, 0, 76, 41
2, 28760, Note_on_c, 0, 80, 42
2, 28798, Note_on_c, 0, 76, 0
2, 28799, Note_on_c, 0, 80, 0
2, 28803, Note_on_c, 0, 57, 48
2, 28803, Note_on_c, 0, 60, 46
2, 28804, Note_on_c, 0, 65, 48
2, 28806, Note_on_c, 0, 77, 42
2, 28807, Note_on_c, 0, 81, 42
2, 28829, Note_on_c, 0, 60, 0
2, 28829, Note_on_c, 0, 57, 0
2, 28830, Note_on_c, 0, 65, 0
2, 28846, Control_c, 0, 64, 127
2, 28936, Note_on_c, 0, 36, 42
2, 28937, Note_on_c, 0, 48, 48
2, 28982, Note_on_c, 0, 36, 0
2, 28984, Note_on_c, 0, 48, 0
2, 29019, Note_on_c, 0, 77, 0
2, 29021, Note_on_c, 0, 81, 0
2, 29025, Control_c, 0, 64, 0
2, 29072, Note_on_c, 0, 57, 44
2, 29073, Note_on_c, 0, 60, 48
2, 29073, Note_on_c, 0, 65, 46
2, 29074, Note_on_c, 0, 77, 47
2, 29075, Note_on_c, 0, 81, 42
2, 29075, Note_on_c, 0, 84, 48
2, 29099, Note_on_c, 0, 57, 0
2, 29100, Note_on_c, 0, 60, 0
2, 29100, Note_on_c, 0, 65, 0
2, 29159, Note_on_c, 0, 77, 0
2, 29160, Note_on_c, 0, 81, 0
2, 29160, Note_on_c, 0, 84, 0
2, 29207, Note_on_c, 0, 34, 41
2, 29208, Note_on_c, 0, 46, 43
2, 29221, Note_on_c, 0, 77, 45
2, 29222, Note_on_c, 0, 82, 46
2, 29222, Note_on_c, 0, 86, 43
2, 29254, Note_on_c, 0, 34, 0
2, 29255, Note_on_c, 0, 46, 0
2, 29342, Note_on_c, 0, 58, 47
2, 29342, Note_on_c, 0, 62, 48
2, 29343, Note_on_c, 0, 65, 47
2, 29344, Note_on_c, 0, 70, 46
2, 29368, Note_on_c, 0, 65, 0
2, 29368, Note_on_c, 0, 62, 0
2, 29423, Note_on_c, 0, 58, 0
2, 29424, Note_on_c, 0, 70, 0
2, 29430, Note_on_c, 0, 57, 42
2, 29431, Note_on_c, 0, 69, 42
2, 29467, Note_on_c, 0, 57, 0
2, 29469, Note_on_c, 0, 69, 0
2, 29473, Note_on_c, 0, 41, 48
2, 29475, Note_on_c, 0, 53, 41
2, 29475, Note_on_c, 0, 58, 46
2, 29477, Note_on_c, 0, 70, 42
2, 29520, Note_on_c, 0, 53, 0
2, 29520, Note_on_c, 0, 41, 0
2, 29554, Note_on_c, 0, 58, 0
2, 29555, Note_on_c, 0, 70, 0
2, 29562, Note_on_c, 0, 60, 48
2, 29563, Note_on_c, 0, 72, 41
2, 29597, Note_on_c, 0, 60, 0
2, 29605, Note_on_c, 0, 62, 41
2, 29605, Note_on_c, 0, 65, 44
2, 29606, Note_on_c, 0, 70, 48
2, 29606, Note_on_c, 0, 74, 43
2, 29610, Note_on_c, 0, 72, 0
2, 29630, Note_on_c, 0, 65, 0
2, 29631, Note_on_c, 0, 70, 0
2, 29689, Note_on_c, 0, 77, 0
2, 29690, Note_on_c, 0, 74, 0
2, 29692, Note_on_c, 0, 82, 0
2, 29699, Note_on_c, 0, 62, 0
2, 29713, Note_on_c, 0, 86, 0
2, 29741, Note_on_c, 0, 50, 42
2, 29751, Note_on_c, 0, 38, 43
2, 29754, Note_on_c, 0, 74, 45
2, 29755, Note_on_c, 0, 77, 41
2, 29797, Note_on_c, 0, 38, 0
2, 29799, Note_on_c, 0, 50, 0
2, 29824, Note_on_c, 0, 77, 0
2, 29832, Note_on_c, 0, 73, 48
2, 29832, Note_on_c, 0, 76, 43
2, 29833, Note_on_c, 0, 74, 0
2, 29867, Note_on_c, 0, 73, 0
2, 29874, Note_on_c, 0, 57, 42
2, 29875, Note_on_c, 0, 62, 43
2, 29875, Note_on_c, 0, 65, 47
2, 29875, Note_on_c, 0, 77, 47
2, 29876, Note_on_c, 0, 74, 48
2, 29880, Note_on_c, 0, 76, 0
2, 29901, Note_on_c, 0, 57, 0
2, 29902, Note_on_c, 0, 65, 0
2, 29902, Note_on_c, 0, 62, 0
2, 29917, Control_c, 0, 64, 127
2, 30010, Note_on_c, 0, 33, 44
2, 30011, Note_on_c, 0, 45, 42
2, 30059, Note_on_c, 0, 33, 0
2, 30060, Note_on_c, 0, 45, 0
2, 30097, Note_on_c, 0, 74, 0
2, 30098, Note_on_c, 0, 77, 0
2, 30104, Control_c, 0, 64, 0
2, 30149, Note_on_c, 0, 57, 42
2, 30150, Note_on_c, 0, 62, 42
2, 30150, Note_on_c, 0, 65, 48
2, 30152, Note_on_c, 0, 74, 48
2, 30152, Note_on_c, 0, 77, 41
2, 30153, Note_on_c, 0, 81, 43
2, 30174, Note_on_c, 0, 57, 0
2, 30175, Note_on_c, 0, 62, 0
2, 30176, Note_on_c, 0, 65, 0
2, 30244, Note_on_c, 0, 74, 0
2, 30269, Note_on_c, 0, 77, 0
2, 30270, Note_on_c, 0, 81, 0
2, 30284, Note_on_c, 0, 31, 41
2, 30285, Note_on_c, 0, 43, 44
2, 30288, Note_on_c, 0, 82, 42
2, 30289, Note_on_c, 0, 74, 48
2, 30290, Note_on_c, 0, 79, 48
2, 30334, Note_on_c, 0, 43, 0
2, 30345, Note_on_c, 0, 31, 0
2, 30420, Note_on_c, 0, 55, 43
2, 30420, Note_on_c, 0, 58, 41
2, 30421, Note_on_c, 0, 62, 45
2, 30421, Note_on_c, 0, 67, 48
2, 30455, Note_on_c, 0, 58, 0
2, 30456, Note_on_c, 0, 62, 0
2, 30498, Note_on_c, 0, 55, 0
2, 30500, Note_on_c, 0, 67, 0
2, 30506, Note_on_c, 0, 54, 44
2, 30507, Note_on_c, 0, 66, 44
2, 30542, Note_on_c, 0, 54, 0
2, 30544, Note_on_c, 0, 66, 0
2, 30548, Note_on_c, 0, 38, 46
2, 30550, Note_on_c, 0, 50, 47
2, 30550, Note_on_c, 0, 55, 46
2, 30551, Note_on_c, 0, 67, 42
2, 30594, Note_on_c, 0, 38, 0
2, 30596, Note_on_c, 0, 50, 0
2, 30620, Note_on_c, 0, 67, 0
2, 30630, Note_on_c, 0, 55, 0
2, 30637, Note_on_c, 0, 57, 41
2, 30639, Note_on_c, 0, 69, 44
2, 30673, Note_on_c, 0, 57, 0
2, 30675, Note_on_c, 0, 69, 0
2, 30681, Note_on_c, 0, 58, 43
2, 30682, Note_on_c, 0, 62, 47
2, 30682, Note_on_c, 0, 67, 44
2, 30683, Note_on_c, 0, 70, 46
2, 30706, Note_on_c, 0, 62, 0
2, 30707, Note_on_c, 0, 67, 0
2, 30719, Note_on_c, 0, 79, 0
2, 30758, Note_on_c, 0, 58, 0
2, 30760, Note_on_c, 0, 74, 0
2, 30760, Note_on_c, 0, 70, 0
2, 30761, Note_on_c, 0, 82, 0
2, 30772, Note_on_c, 0, 79, 43
2, 30774, Note_on_c, 0, 91, 42
2, 30806, Note_on_c, 0, 79, 0
2, 30812, Note_on_c, 0, 91, 0
2, 30814, Note_on_c, 0, 46, 47
2, 30816, Note_on_c, 0, 58, 41
2, 30817, Note_on_c, 0, 74, 46
2, 30818, Note_on_c, 0, 77, 41
2, 30818, Note_on_c, 0, 82, 42
2, 30819, Note_on_c, 0, 86, 42
2, 30861, Note_on_c, 0, 46, 0
2, 30862, Note_on_c, 0, 58, 0
2, 30863, Note_on_c, 0, 74, 0
2, 30864, Note_on_c, 0, 77, 0
2, 30864, Note_on_c, 0, 82, 0
2, 30865, Note_on_c, 0, 86, 0
2, 30951, Note_on_c, 0, 53, 48
2, 30951, Note_on_c, 0, 58, 45
2, 30952, Note_on_c, 0, 62, 48
2, 30954, Note_on_c, 0, 79, 45
2, 30955, Note_on_c, 0, 91, 45
2, 30958, Control_c, 0, 64, 127
2, 30975, Note_on_c, 0, 53, 0
2, 30976, Note_on_c, 0, 58, 0
2, 30976, Note_on_c, 0, 62, 0
2, 30987, Note_on_c, 0, 79, 0
2, 30988, Note_on_c, 0, 91, 0
2, 31035, Note_on_c, 0, 74, 42
2, 31037, Note_on_c, 0, 77, 44
2, 31038, Note_on_c, 0, 82, 45
2, 31039, Note_on_c, 0, 86, 43
2, 31080, Note_on_c, 0, 43, 48
2, 31080, Note_on_c, 0, 55, 42
2, 31134, Control_c, 0, 64, 0
2, 31152, Note_on_c, 0, 82, 0
2, 31152, Note_on_c, 0, 74, 0
2, 31152, Note_on_c, 0, 77, 0
2, 31153, Note_on_c, 0, 86, 0
2, 31172, Note_on_c, 0, 79, 42
2, 31174, Note_on_c, 0, 91, 41
2, 31194, Note_on_c, 0, 43, 0
2, 31206, Note_on_c, 0, 55, 0
2, 31208, Note_on_c, 0, 79, 0
2, 31210, Note_on_c, 0, 91, 0
2, 31214, Note_on_c, 0, 44, 41
2, 31216, Note_on_c, 0, 56, 45
2, 31218, Note_on_c, 0, 77, 46
2, 31219, Note_on_c, 0, 74, 43
2, 31220, Note_on_c, 0, 80, 42
2, 31220, Note_on_c, 0, 83, 48
2, 31221, Note_on_c, 0, 86, 44
2, 31297, Note_on_c, 0, 77, 0
2, 31331, Note_on_c, 0, 72, 43
2, 31335, Note_on_c, 0, 44, 0
2, 31337, Note_on_c, 0, 56, 0
2, 31339, Note_on_c, 0, 74, 0
2, 31340, Note_on_c, 0, 80, 0
2, 31341, Note_on_c, 0, 83, 0
2, 31343, Note_on_c, 0, 45, 48
2, 31344, Note_on_c, 0, 57, 45
2, 31345, Note_on_c, 0, 81, 46
2, 31346, Note_on_c, 0, 77, 46
2, 31346, Note_on_c, 0, 84, 47
2, 31353, Note_on_c, 0, 86, 0
2, 31387, Note_on_c, 0, 45, 0
2, 31389, Note_on_c, 0, 57, 0
2, 31474, Note_on_c, 0, 57, 47
2, 31474, Note_on_c, 0, 60, 46
2, 31475, Note_on_c, 0, 65, 48
2, 31480, Note_on_c, 0, 77, 0
2, 31481, Note_on_c, 0, 84, 0
2, 31481, Note_on_c, 0, 81, 0
2, 31500, Note_on_c, 0, 57, 0
2, 31501, Note_on_c, 0, 60, 0
2, 31502, Note_on_c, 0, 72, 0
2, 31502, Note_on_c, 0, 65, 0
2, 31565, Note_on_c, 0, 77, 46
2, 31566, Note_on_c, 0, 81, 45
2, 31566, Note_on_c, 0, 86, 41
2, 31567, Note_on_c, 0, 89, 46
2, 31605, Note_on_c, 0, 38, 42
2, 31607, Note_on_c, 0, 50, 41
2, 31650, Note_on_c, 0, 38, 0
2, 31652, Note_on_c, 0, 50, 0
2, 31739, Note_on_c, 0, 57, 41
2, 31740, Note_on_c, 0, 62, 46
2, 31741, Note_on_c, 0, 65, 44
2, 31766, Note_on_c, 0, 65, 0
2, 31766, Note_on_c, 0, 62, 0
2, 31774, Note_on_c, 0, 57, 0
2, 31824, Note_on_c, 0, 81, 0
2, 31824, Note_on_c, 0, 77, 0
2, 31825, Note_on_c, 0, 89, 0
2, 31837, Note_on_c, 0, 86, 0
2, 31875, Note_on_c, 0, 50, 47
2, 31876, Note_on_c, 0, 56, 46
2, 31878, Note_on_c, 0, 76, 46
2, 31878, Note_on_c, 0, 80, 42
2, 31879, Note_on_c, 0, 83, 42
2, 31879, Note_on_c, 0, 88, 41
2, 31897, Note_on_c, 0, 40, 47
2, 31915, Note_on_c, 0, 80, 0
2, 31959, Note_on_c, 0, 76, 0
2, 31960, Note_on_c, 0, 83, 0
2, 31961, Note_on_c, 0, 88, 0
2, 31967, Note_on_c, 0, 80, 42
2, 31968, Note_on_c, 0, 92, 42
2, 32000, Note_on_c, 0, 40, 0
2, 32001, Note_on_c, 0, 50, 0
2, 32002, Note_on_c, 0, 56, 0
2, 32011, Note_on_c, 0, 42, 45
2, 32012, Note_on_c, 0, 51, 42
2, 32013, Note_on_c, 0, 57, 41
2, 32016, Note_on_c, 0, 80, 0
2, 32016, Note_on_c, 0, 83, 41
2, 32016, Note_on_c, 0, 95, 46
2, 32017, Note_on_c, 0, 92, 0
2, 32065, Note_on_c, 0, 83, 0
2, 32067, Note_on_c, 0, 95, 0
2, 32111, Note_on_c, 0, 88, 44
2, 32112, Note_on_c, 0, 92, 46
2, 32112, Note_on_c, 0, 95, 48
2, 32112, Note_on_c, 0, 100, 44
2, 32142, Note_on_c, 0, 42, 0
2, 32144, Note_on_c, 0, 51, 0
2, 32144, Note_on_c, 0, 57, 0
2, 32151, Note_on_c, 0, 44, 42
2, 32151, Note_on_c, 0, 52, 45
2, 32153, Note_on_c, 0, 59, 47
2, 32236, Note_on_c, 0, 88, 0
2, 32237, Note_on_c, 0, 92, 0
2, 32237, Note_on_c, 0, 95, 0
2, 32244, Note_on_c, 0, 86, 46
2, 32246, Note_on_c, 0, 98, 45
2, 32249, Note_on_c, 0, 100, 0
2, 32264, Note_on_c, 0, 44, 0
2, 32276, Note_on_c, 0, 52, 0
2, 32277, Note_on_c, 0, 59, 0
2, 32280, Note_on_c, 0, 86, 0
2, 32283, Note_on_c, 0, 47, 43
2, 32284, Note_on_c, 0, 98, 0
2, 32284, Note_on_c, 0, 56, 48
2, 32285, Note_on_c, 0, 62, 47
2, 32287, Note_on_c, 0, 83, 47
2, 32289, Note_on_c, 0, 95, 46
2, 32369, Note_on_c, 0, 83, 0
2, 32371, Note_on_c, 0, 95, 0
2, 32376, Note_on_c, 0, 84, 46
2, 32377, Note_on_c, 0, 96, 41
2, 32391, Note_on_c, 0, 84, 0
2, 32409, Note_on_c, 0, 47, 0
2, 32410, Note_on_c, 0, 56, 0
2, 32411, Note_on_c, 0, 62, 0
2, 32417, Note_on_c, 0, 45, 41
2, 32419, Note_on_c, 0, 52, 41
2, 32420, Note_on_c, 0, 60, 44
2, 32423, Note_on_c, 0, 81, 46
2, 32423, Note_on_c, 0, 84, 43
2, 32423, Note_on_c, 0, 88, 46
2, 32424, Note_on_c, 0, 93, 46
2, 32432, Note_on_c, 0, 96, 0
2, 32496, Note_on_c, 0, 45, 0
2, 32508, Note_on_c, 0, 52, 0
2, 32509, Note_on_c, 0, 60, 0
2, 32511, Note_on_c, 0, 81, 0
2, 32512, Note_on_c, 0, 84, 0
2, 32512, Note_on_c, 0, 88, 0
2, 32513, Note_on_c, 0, 93, 0
2, 32520, Note_on_c, 0, 80, 42
2, 32520, Note_on_c, 0, 92, 44
2, 32548, Note_on_c, 0, 51, 42
2, 32555, Note_on_c, 0, 80, 0
2, 32557, Note_on_c, 0, 42, 42
2, 32558, Note_on_c, 0, 92, 0
2, 32559, Note_on_c, 0, 57, 43
2, 32561, Note_on_c, 0, 81, 45
2, 32563, Note_on_c, 0, 84, 47
2, 32564, Note_on_c, 0, 87, 47
2, 32564, Note_on_c, 0, 93, 45
2, 32589, Note_on_c, 0, 87, 0
2, 32589, Note_on_c, 0, 81, 0
2, 32589, Note_on_c, 0, 84, 0
2, 32591, Note_on_c, 0, 93, 0
2, 32643, Note_on_c, 0, 84, 43
2, 32644, Note_on_c, 0, 88, 42
2, 32644, Note_on_c, 0, 91, 44
2, 32645, Note_on_c, 0, 96, 42
2, 32675, Note_on_c, 0, 42, 0
2, 32677, Note_on_c, 0, 51, 0
2, 32678, Note_on_c, 0, 57, 0
2, 32685, Note_on_c, 0, 43, 46
2, 32687, Note_on_c, 0, 52, 48
2, 32688, Note_on_c, 0, 58, 48
2, 32765, Note_on_c, 0, 52, 0
2, 32766, Note_on_c, 0, 58, 0
2, 32769, Note_on_c, 0, 84, 0
2, 32770, Note_on_c, 0, 88, 0
2, 32770, Note_on_c, 0, 91, 0
2, 32771, Note_on_c, 0, 96, 0
2, 32775, Note_on_c, 0, 64, 41
2, 32776, Note_on_c, 0, 72, 45
2, 32797, Note_on_c, 0, 43, 0
2, 32810, Note_on_c, 0, 64, 0
2, 32812, Note_on_c, 0, 72, 0
2, 32816, Note_on_c, 0, 42, 43
2, 32818, Note_on_c, 0, 52, 46
2, 32819, Note_on_c, 0, 58, 47
2, 32819, Note_on_c, 0, 60, 45
2, 32820, Note_on_c, 0, 68, 46
2, 32901, Note_on_c, 0, 60, 0
2, 32902, Note_on_c, 0, 68, 0
2, 32945, Note_on_c, 0, 42, 0
2, 32946, Note_on_c, 0, 52, 0
2, 32947, Note_on_c, 0, 58, 0
2, 32952, Note_on_c, 0, 41, 44
2, 32954, Note_on_c, 0, 48, 43
2, 32955, Note_on_c, 0, 57, 43
2, 32957, Note_on_c, 0, 77, 43
2, 32958, Note_on_c, 0, 81, 48
2, 33001, Note_on_c, 0, 41, 0
2, 33002, Note_on_c, 0, 48, 0
2, 33004, Note_on_c, 0, 57, 0
2, 33029, Note_on_c, 0, 77, 0
2, 33030, Note_on_c, 0, 81, 0
2, 33048, Note_on_c, 0, 76, 48
2, 33049, Note_on_c, 0, 80, 41
2, 33090, Note_on_c, 0, 57, 41
2, 33091, Note_on_c, 0, 60, 42
2, 33092, Note_on_c, 0, 65, 48
2, 33094, Note_on_c, 0, 77, 42
2, 33095, Note_on_c, 0, 81, 42
2, 33096, Note_on_c, 0, 80, 0
2, 33096, Note_on_c, 0, 76, 0
2, 33126, Note_on_c, 0, 60, 0
2, 33126, Note_on_c, 0, 57, 0
2, 33127, Note_on_c, 0, 65, 0
2, 33165, Control_c, 0, 64, 127
2, 33225, Note_on_c, 0, 36, 45
2, 33227, Note_on_c, 0, 48, 42
2, 33273, Note_on_c, 0, 36, 0
2, 33275, Note_on_c, 0, 48, 0
2, 33313, Note_on_c, 0, 77, 0
2, 33314, Note_on_c, 0, 81, 0
2, 33316, Control_c, 0, 64, 0
2, 33361, Note_on_c, 0, 57, 48
2, 33361, Note_on_c, 0, 60, 45
2, 33362, Note_on_c, 0, 65, 47
2, 33364, Note_on_c, 0, 77, 45
2, 33364, Note_on_c, 0, 84, 44
2, 33365, Note_on_c, 0, 81, 45
2, 33385, Note_on_c, 0, 57, 0
2, 33386, Note_on_c, 0, 60, 0
2, 33387, Note_on_c, 0, 65, 0
2, 33444, Note_on_c, 0, 77, 0
2, 33444, Note_on_c, 0, 81, 0
2, 33445, Note_on_c, 0, 84, 0
2, 33491, Note_on_c, 0, 34, 45
2, 33493, Note_on_c, 0, 46, 43
2, 33497, Note_on_c, 0, 77, 42
2, 33497, Note_on_c, 0, 82, 45
2, 33498, Note_on_c, 0, 86, 48
2, 33538, Note_on_c, 0, 34, 0
2, 33539, Note_on_c, 0, 46, 0
2, 33628, Note_on_c, 0, 58, 44
2, 33629, Note_on_c, 0, 62, 43
2, 33629, Note_on_c, 0, 65, 45
2, 33630, Note_on_c, 0, 70, 44
2, 33655, Note_on_c, 0, 65, 0
2, 33655, Note_on_c, 0, 62, 0
2, 33708, Note_on_c, 0, 58, 0
2, 33710, Note_on_c, 0, 70, 0
2, 33716, Note_on_c, 0, 57, 44
2, 33718, Note_on_c, 0, 69, 45
2, 33752, Note_on_c, 0, 57, 0
2, 33759, Note_on_c, 0, 53, 45
2, 33759, Note_on_c, 0, 58, 48
2, 33761, Note_on_c, 0, 70, 47
2, 33764, Note_on_c, 0, 69, 0
2, 33768, Note_on_c, 0, 41, 41
2, 33795, Note_on_c, 0, 53, 0
2, 33805, Note_on_c, 0, 41, 0
2, 33842, Note_on_c, 0, 58, 0
2, 33844, Note_on_c, 0, 70, 0
2, 33851, Note_on_c, 0, 60, 46
2, 33853, Note_on_c, 0, 72, 42
2, 33888, Note_on_c, 0, 60, 0
2, 33897, Note_on_c, 0, 62, 45
2, 33897, Note_on_c, 0, 65, 43
2, 33898, Note_on_c, 0, 70, 45
2, 33898, Note_on_c, 0, 74, 45
2, 33901, Note_on_c, 0, 72, 0
2, 33921, Note_on_c, 0, 65, 0
2, 33922, Note_on_c, 0, 70, 0
2, 33977, Note_on_c, 0, 62, 0
2, 33978, Note_on_c, 0, 77, 0
2, 33979, Note_on_c, 0, 86, 0
2, 33979, Note_on_c, 0, 82, 0
2, 33984, Note_on_c, 0, 74, 0
2, 34027, Note_on_c, 0, 38, 45
2, 34029, Note_on_c, 0, 50, 47
2, 34032, Note_on_c, 0, 74, 45
2, 34032, Note_on_c, 0, 77, 44
2, 34075, Note_on_c, 0, 38, 0
2, 34077, Note_on_c, 0, 50, 0
2, 34102, Note_on_c, 0, 74, 0
2, 34103, Note_on_c, 0, 77, 0
2, 34122, Note_on_c, 0, 73, 44
2, 34122, Note_on_c, 0, 76, 41
2, 34159, Note_on_c, 0, 73, 0
2, 34160, Note_on_c, 0, 76, 0
2, 34167, Note_on_c, 0, 57, 44
2, 34168, Note_on_c, 0, 62, 48
2, 34168, Note_on_c, 0, 65, 44
2, 34168, Note_on_c, 0, 77, 44
2, 34170, Note_on_c, 0, 74, 41
2, 34174, Control_c, 0, 64, 127
2, 34194, Note_on_c, 0, 57, 0
2, 34195, Note_on_c, 0, 62, 0
2, 34195, Note_on_c, 0, 65, 0
2, 34299, Note_on_c, 0, 33, 47
2, 34301, Note_on_c, 0, 45, 41
2, 34346, Note_on_c, 0, 33, 0
2, 34348, Note_on_c, 0, 45, 0
2, 34355, Control_c, 0, 64, 0
2, 34387, Note_on_c, 0, 74, 0
2, 34388, Note_on_c, 0, 77, 0
2, 34440, Note_on_c, 0, 57, 41
2, 34441, Note_on_c, 0, 62, 45
2, 34442, Note_on_c, 0, 65, 42
2, 34443, Note_on_c, 0, 74, 48
2, 34444, Note_on_c, 0, 77, 48
2, 34444, Note_on_c, 0, 81, 46
2, 34467, Note_on_c, 0, 57, 0
2, 34469, Note_on_c, 0, 62, 0
2, 34469, Note_on_c, 0, 65, 0
2, 34528, Note_on_c, 0, 74, 0
2, 34573, Note_on_c, 0, 77, 0
2, 34574, Note_on_c, 0, 81, 0
2, 34576, Note_on_c, 0, 31, 42
2, 34577, Note_on_c, 0, 43, 47
2, 34581, Note_on_c, 0, 74, 45
2, 34582, Note_on_c, 0, 79, 41
2, 34582, Note_on_c, 0, 82, 44
2, 34625, Note_on_c, 0, 43, 0
2, 34625, Note_on_c, 0, 31, 0
2, 34716, Note_on_c, 0, 55, 48
2, 34717, Note_on_c, 0, 58, 45
2, 34718, Note_on_c, 0, 62, 43
2, 34718, Note_on_c, 0, 67, 48
2, 34743, Note_on_c, 0, 58, 0
2, 34744, Note_on_c, 0, 62, 0
2, 34790, Note_on_c, 0, 67, 0
2, 34800, Note_on_c, 0, 55, 0
2, 34809, Note_on_c, 0, 54, 41
2, 34810, Note_on_c, 0, 66, 43
2, 34847, Note_on_c, 0, 54, 0
2, 34848, Note_on_c, 0, 66, 0
2, 34853, Note_on_c, 0, 38, 48
2, 34855, Note_on_c, 0, 50, 46
2, 34855, Note_on_c, 0, 55, 43
2, 34857, Note_on_c, 0, 67, 48
2, 34900, Note_on_c, 0, 38, 0
2, 34901, Note_on_c, 0, 50, 0
2, 34922, Note_on_c, 0, 67, 0
2, 34932, Note_on_c, 0, 55, 0
2, 34941, Note_on_c, 0, 57, 44
2, 34942, Note_on_c, 0, 69, 43
2, 34977, Note_on_c, 0, 57, 0
2, 34979, Note_on_c, 0, 69, 0
2, 34987, Note_on_c, 0, 58, 44
2, 34987, Note_on_c, 0, 62, 46
2, 34988, Note_on_c, 0, 67, 44
2, 34988, Note_on_c, 0, 70, 46
2, 34992, Note_on_c, 0, 79, 0
2, 35014, Note_on_c, 0, 62, 0
2, 35014, Note_on_c, 0, 67, 0
2, 35062, Note_on_c, 0, 70, 0
2, 35072, Note_on_c, 0, 58, 0
2, 35083, Note_on_c, 0, 79, 41
2, 35084, Note_on_c, 0, 91, 44
2, 35086, Note_on_c, 0, 74, 0
2, 35088, Note_on_c, 0, 82, 0
2, 35119, Note_on_c, 0, 79, 0
2, 35123, Note_on_c, 0, 46, 44
2, 35125, Note_on_c, 0, 91, 0
2, 35125, Note_on_c, 0, 58, 41
2, 35127, Note_on_c, 0, 74, 42
2, 35127, Note_on_c, 0, 77, 41
2, 35127, Note_on_c, 0, 82, 47
2, 35128, Note_on_c, 0, 86, 43
2, 35167, Note_on_c, 0, 46, 0
2, 35169, Note_on_c, 0, 58, 0
2, 35171, Note_on_c, 0, 77, 0
2, 35171, Note_on_c, 0, 74, 0
2, 35172, Note_on_c, 0, 82, 0
2, 35173, Note_on_c, 0, 86, 0
2, 35255, Note_on_c, 0, 53, 43
2, 35256, Note_on_c, 0, 58, 45
2, 35256, Note_on_c, 0, 62, 44
2, 35258, Note_on_c, 0, 79, 45
2, 35259, Note_on_c, 0, 91, 46
2, 35280, Note_on_c, 0, 53, 0
2, 35281, Note_on_c, 0, 58, 0
2, 35281, Note_on_c, 0, 62, 0
2, 35295, Note_on_c, 0, 79, 0
2, 35301, Note_on_c, 0, 91, 0
2, 35329, Control_c, 0, 64, 127
2, 35347, Note_on_c, 0, 74, 43
2, 35348, Note_on_c, 0, 77, 45
2, 35349, Note_on_c, 0, 82, 46
2, 35350, Note_on_c, 0, 86, 46
2, 35389, Note_on_c, 0, 43, 44
2, 35391, Note_on_c, 0, 55, 47
2, 35461, Note_on_c, 0, 74, 0
2, 35462, Note_on_c, 0, 77, 0
2, 35463, Note_on_c, 0, 86, 0
2, 35463, Note_on_c, 0, 82, 0
2, 35477, Control_c, 0, 64, 0
2, 35481, Note_on_c, 0, 79, 46
2, 35483, Note_on_c, 0, 91, 43
2, 35513, Note_on_c, 0, 43, 0
2, 35514, Note_on_c, 0, 55, 0
2, 35516, Note_on_c, 0, 79, 0
2, 35517, Note_on_c, 0, 91, 0
2, 35520, Note_on_c, 0, 44, 44
2, 35522, Note_on_c, 0, 56, 44
2, 35523, Note_on_c, 0, 77, 44
2, 35524, Note_on_c, 0, 74, 48
2, 35525, Note_on_c, 0, 80, 42
2, 35525, Note_on_c, 0, 83, 46
2, 35526, Note_on_c, 0, 86, 43
2, 35607, Note_on_c, 0, 77, 0
2, 35651, Note_on_c, 0, 44, 0
2, 35652, Note_on_c, 0, 56, 0
2, 35659, Note_on_c, 0, 45, 42
2, 35660, Note_on_c, 0, 57, 41
2, 35662, Note_on_c, 0, 72, 48
2, 35663, Note_on_c, 0, 77, 41
2, 35664, Note_on_c, 0, 81, 48
2, 35664, Note_on_c, 0, 84, 47
2, 35665, Note_on_c, 0, 80, 0
2, 35665, Note_on_c, 0, 74, 0
2, 35666, Note_on_c, 0, 83, 0
2, 35666, Note_on_c, 0, 86, 0
2, 35740, Note_on_c, 0, 45, 0
2, 35741, Note_on_c, 0, 57, 0
2, 35748, Note_on_c, 0, 41, 45
2, 35749, Note_on_c, 0, 53, 47
2, 35784, Note_on_c, 0, 41, 0
2, 35785, Note_on_c, 0, 53, 0
2, 35792, Note_on_c, 0, 52, 46
2, 35803, Note_on_c, 0, 40, 42
2, 35871, Note_on_c, 0, 40, 0
2, 35872, Note_on_c, 0, 52, 0
2, 35874, Note_on_c, 0, 72, 0
2, 35875, Note_on_c, 0, 77, 0
2, 35875, Note_on_c, 0, 81, 0
2, 35876, Note_on_c, 0, 84, 0
2, 35880, Note_on_c, 0, 38, 41
2, 35880, Note_on_c, 0, 50, 42
2, 35914, Note_on_c, 0, 38, 0
2, 35916, Note_on_c, 0, 50, 0
2, 35923, Note_on_c, 0, 37, 48
2, 35925, Note_on_c, 0, 49, 45
2, 35927, Note_on_c, 0, 77, 47
2, 35928, Note_on_c, 0, 80, 44
2, 35928, Note_on_c, 0, 83, 46
2, 35928, Note_on_c, 0, 89, 44
2, 36056, Note_on_c, 0, 53, 42
2, 36057, Note_on_c, 0, 56, 42
2, 36058, Note_on_c, 0, 59, 47
2, 36058, Note_on_c, 0, 61, 43
2, 36079, Note_on_c, 0, 53, 0
2, 36080, Note_on_c, 0, 59, 0
2, 36080, Note_on_c, 0, 56, 0
2, 36081, Note_on_c, 0, 61, 0
2, 36093, Note_on_c, 0, 77, 0
2, 36099, Note_on_c, 0, 89, 0
2, 36136, Note_on_c, 0, 80, 0
2, 36137, Note_on_c, 0, 83, 0
2, 36143, Note_on_c, 0, 77, 48
2, 36144, Note_on_c, 0, 89, 44
2, 36174, Note_on_c, 0, 37, 0
2, 36175, Note_on_c, 0, 49, 0
2, 36179, Note_on_c, 0, 77, 0
2, 36181, Note_on_c, 0, 89, 0
2, 36183, Note_on_c, 0, 36, 43
2, 36185, Note_on_c, 0, 48, 41
2, 36190, Note_on_c, 0, 81, 47
2, 36190, Note_on_c, 0, 84, 44
2, 36192, Note_on_c, 0, 93, 48
2, 36225, Note_on_c, 0, 81, 0
2, 36226, Note_on_c, 0, 84, 0
2, 36227, Note_on_c, 0, 93, 0
2, 36232, Note_on_c, 0, 36, 0
2, 36234, Note_on_c, 0, 48, 0
2, 36281, Note_on_c, 0, 84, 44
2, 36283, Note_on_c, 0, 96, 46
2, 36321, Note_on_c, 0, 57, 45
2, 36322, Note_on_c, 0, 60, 48
2, 36322, Note_on_c, 0, 65, 43
2, 36345, Note_on_c, 0, 57, 0
2, 36346, Note_on_c, 0, 60, 0
2, 36347, Note_on_c, 0, 65, 0
2, 36412, Note_on_c, 0, 79, 43
2, 36412, Note_on_c, 0, 82, 41
2, 36413, Note_on_c, 0, 88, 41
2, 36416, Note_on_c, 0, 84, 0
2, 36422, Note_on_c, 0, 96, 0
2, 36424, Note_on_c, 0, 91, 41
2, 36454, Note_on_c, 0, 48, 45
2, 36455, Note_on_c, 0, 60, 43
2, 36527, Note_on_c, 0, 60, 0
2, 36529, Note_on_c, 0, 79, 0
2, 36529, Note_on_c, 0, 82, 0
2, 36530, Note_on_c, 0, 88, 0
2, 36530, Note_on_c, 0, 91, 0
2, 36537, Note_on_c, 0, 48, 0
2, 36549, Note_on_c, 0, 72, 45
2, 36551, Note_on_c, 0, 84, 46
2, 36594, Note_on_c, 0, 36, 42
2, 36596, Note_on_c, 0, 48, 48
2, 36597, Note_on_c, 0, 74, 46
2, 36599, Note_on_c, 0, 79, 43
2, 36599, Note_on_c, 0, 82, 46
2, 36599, Note_on_c, 0, 86, 43
2, 36600, Note_on_c, 0, 72, 0
2, 36602, Note_on_c, 0, 84, 0
2, 36681, Note_on_c, 0, 74, 0
2, 36682, Note_on_c, 0, 79, 0
2, 36683, Note_on_c, 0, 82, 0
2, 36683, Note_on_c, 0, 86, 0
2, 36690, Note_on_c, 0, 76, 41
2, 36691, Note_on_c, 0, 88, 47
2, 36722, Note_on_c, 0, 36, 0
2, 36724, Note_on_c, 0, 48, 0
2, 36726, Note_on_c, 0, 76, 0
2, 36727, Note_on_c, 0, 88, 0
2, 36730, Note_on_c, 0, 41, 48
2, 36731, Note_on_c, 0, 53, 48
2, 36733, Note_on_c, 0, 77, 42
2, 36733, Note_on_c, 0, 84, 41
2, 36735, Note_on_c, 0, 81, 45
2, 36736, Note_on_c, 0, 89, 41
2, 36779, Note_on_c, 0, 41, 0
2, 36780, Note_on_c, 0, 53, 0
2, 36782, Note_on_c, 0, 77, 0
2, 36783, Note_on_c, 0, 84, 0
2, 36783, Note_on_c, 0, 81, 0
2, 36784, Note_on_c, 0, 89, 0
2, 36866, Note_on_c, 0, 36, 43
2, 36867, Note_on_c, 0, 48, 48
2, 36968, Note_on_c, 0, 96, 42
2, 36991, Note_on_c, 0, 98, 47
2, 36994, Note_on_c, 0, 96, 0
2, 36999, Note_on_c, 0, 36, 0
2, 37000, Note_on_c, 0, 48, 0
2, 37002, Note_on_c, 0, 100, 46
2, 37006, Note_on_c, 0, 29, 43
2, 37008, Note_on_c, 0, 41, 44
2, 37012, Note_on_c, 0, 89, 42
2, 37013, Note_on_c, 0, 93, 48
2, 37013, Note_on_c, 0, 96, 41
2, 37014, Note_on_c, 0, 101, 45
2, 37022, Note_on_c, 0, 98, 0
2, 37029, Note_on_c, 0, 100, 0
2, 37055, Note_on_c, 0, 29, 0
2, 37056, Note_on_c, 0, 41, 0
2, 37073, Note_on_c, 0, 89, 0
2, 37073, Note_on_c, 0, 93, 0
2, 37074, Note_on_c, 0, 96, 0
2, 37092, Note_on_c, 0, 101, 0
2, 37285, Note_on_c, 0, 40, 44
2, 37286, Note_on_c, 0, 52, 44
2, 37288, Note_on_c, 0, 60, 44
2, 37289, Note_on_c, 0, 72, 43
2, 37363, Note_on_c, 0, 40, 0
2, 37365, Note_on_c, 0, 52, 0
2, 37366, Note_on_c, 0, 60, 0
2, 37367, Note_on_c, 0, 72, 0
2, 37372, Note_on_c, 0, 41, 44
2, 37373, Note_on_c, 0, 53, 48
2, 37375, Note_on_c, 0, 62, 46
2, 37376, Note_on_c, 0, 74, 41
2, 37418, Note_on_c, 0, 43, 41
2, 37420, Note_on_c, 0, 55, 45
2, 37421, Note_on_c, 0, 64, 43
2, 37422, Note_on_c, 0, 41, 0
2, 37423, Note_on_c, 0, 76, 47
2, 37424, Note_on_c, 0, 53, 0
2, 37425, Note_on_c, 0, 62, 0
2, 37426, Note_on_c, 0, 74, 0
2, 37428, Control_c, 0, 64, 127
2, 37467, Note_on_c, 0, 43, 0
2, 37469, Note_on_c, 0, 55, 0
2, 37470, Note_on_c, 0, 64, 0
2, 37472, Note_on_c, 0, 76, 0
2, 37511, Note_on_c, 0, 45, 46
2, 37512, Control_c, 0, 64, 0
2, 37512, Note_on_c, 0, 57, 46
2, 37513, Note_on_c, 0, 65, 44
2, 37515, Note_on_c, 0, 77, 44
2, 37638, Note_on_c, 0, 45, 0
2, 37639, Note_on_c, 0, 57, 0
2, 37641, Note_on_c, 0, 65, 0
2, 37642, Note_on_c, 0, 77, 0
2, 37648, Note_on_c, 0, 47, 45
2, 37650, Note_on_c, 0, 59, 43
2, 37650, Note_on_c, 0, 67, 42
2, 37652, Note_on_c, 0, 79, 44
2, 37687, Note_on_c, 0, 47, 0
2, 37688, Note_on_c, 0, 59, 0
2, 37689, Note_on_c, 0, 67, 0
2, 37691, Note_on_c, 0, 79, 0
2, 37695, Note_on_c, 0, 48, 41
2, 37697, Note_on_c, 0, 60, 47
2, 37698, Note_on_c, 0, 69, 44
2, 37700, Note_on_c, 0, 81, 42
2, 37779, Note_on_c, 0, 48, 0
2, 37780, Note_on_c, 0, 60, 0
2, 37782, Note_on_c, 0, 69, 0
2, 37789, Note_on_c, 0, 50, 42
2, 37790, Note_on_c, 0, 62, 42
2, 37792, Note_on_c, 0, 71, 44
2, 37793, Note_on_c, 0, 83, 45
2, 37796, Note_on_c, 0, 81, 0
2, 37827, Note_on_c, 0, 50, 0
2, 37829, Note_on_c, 0, 71, 0
2, 37830, Note_on_c, 0, 83, 0
2, 37836, Note_on_c, 0, 52, 47
2, 37837, Note_on_c, 0, 64, 41
2, 37838, Note_on_c, 0, 72, 45
2, 37840, Note_on_c, 0, 84, 48
2, 37842, Note_on_c, 0, 62, 0
2, 37918, Note_on_c, 0, 52, 0
2, 37920, Note_on_c, 0, 72, 0
2, 37920, Note_on_c, 0, 64, 0
2, 37921, Note_on_c, 0, 84, 0
2, 37926, Note_on_c, 0, 50, 43
2, 37928, Note_on_c, 0, 62, 46
2, 37929, Note_on_c, 0, 71, 45
2, 37930, Note_on_c, 0, 83, 47
2, 37963, Note_on_c, 0, 50, 0
2, 37965, Note_on_c, 0, 62, 0
2, 37965, Note_on_c, 0, 71, 0
2, 37967, Note_on_c, 0, 83, 0
2, 37972, Note_on_c, 0, 48, 45
2, 37973, Note_on_c, 0, 60, 44
2, 37975, Note_on_c, 0, 69, 44
2, 37976, Note_on_c, 0, 81, 46
2, 38009, Note_on_c, 0, 48, 0
2, 38011, Note_on_c, 0, 60, 0
2, 38012, Note_on_c, 0, 69, 0
2, 38013, Note_on_c, 0, 81, 0
2, 38066, Note_on_c, 0, 47, 48
2, 38067, Note_on_c, 0, 59, 48
2, 38068, Note_on_c, 0, 67, 45
2, 38070, Note_on_c, 0, 79, 45
2, 38190, Note_on_c, 0, 47, 0
2, 38192, Note_on_c, 0, 59, 0
2, 38193, Note_on_c, 0, 67, 0
2, 38194, Note_on_c, 0, 79, 0
2, 38199, Note_on_c, 0, 45, 45
2, 38201, Note_on_c, 0, 57, 42
2, 38202, Note_on_c, 0, 65, 45
2, 38204, Note_on_c, 0, 77, 48
2, 38234, Note_on_c, 0, 45, 0
2, 38235, Note_on_c, 0, 57, 0
2, 38236, Note_on_c, 0, 65, 0
2, 38238, Note_on_c, 0, 77, 0
2, 38243, Note_on_c, 0, 43, 42
2, 38244, Note_on_c, 0, 55, 45
2, 38245, Note_on_c, 0, 64, 44
2, 38247, Note_on_c, 0, 76, 45
2, 38289, Note_on_c, 0, 43, 0
2, 38291, Note_on_c, 0, 55, 0
2, 38292, Note_on_c, 0, 64, 0
2, 38293, Note_on_c, 0, 76, 0
2, 38351, Control_c, 0, 64, 127
2, 38377, Note_on_c, 0, 50, 45
2, 38378, Note_on_c, 0, 59, 47
2, 38379, Note_on_c, 0, 65, 45
2, 38380, Note_on_c, 0, 71, 48
2, 38381, Note_on_c, 0, 77, 46
2, 38381, Note_on_c, 0, 79, 42
2, 38425, Note_on_c, 0, 50, 0
2, 38432, Control_c, 0, 64, 0
2, 38437, Note_on_c, 0, 59, 0
2, 38438, Note_on_c, 0, 65, 0
2, 38439, Note_on_c, 0, 71, 0
2, 38440, Note_on_c, 0, 77, 0
2, 38471, Note_on_c, 0, 81, 45
2, 38472, Note_on_c, 0, 79, 0
2, 38510, Note_on_c, 0, 50, 43
2, 38511, Note_on_c, 0, 59, 44
2, 38511, Note_on_c, 0, 65, 42
2, 38513, Note_on_c, 0, 71, 41
2, 38513, Note_on_c, 0, 77, 44
2, 38514, Note_on_c, 0, 79, 44
2, 38517, Note_on_c, 0, 81, 0
2, 38588, Note_on_c, 0, 78, 41
2, 38591, Note_on_c, 0, 77, 0
2, 38592, Note_on_c, 0, 79, 0
2, 38634, Note_on_c, 0, 50, 0
2, 38635, Note_on_c, 0, 59, 0
2, 38636, Note_on_c, 0, 65, 0
2, 38637, Note_on_c, 0, 71, 0
2, 38638, Note_on_c, 0, 78, 0
2, 38643, Note_on_c, 0, 49, 43
2, 38644, Note_on_c, 0, 58, 45
2, 38645, Note_on_c, 0, 64, 46
2, 38645, Note_on_c, 0, 70, 48
2, 38646, Note_on_c, 0, 76, 46
2, 38646, Note_on_c, 0, 79, 47
2, 38692, Note_on_c, 0, 49, 0
2, 38693, Note_on_c, 0, 58, 0
2, 38693, Note_on_c, 0, 64, 0
2, 38694, Note_on_c, 0, 70, 0
2, 38695, Note_on_c, 0, 76, 0
2, 38717, Note_on_c, 0, 79, 0
2, 38737, Note_on_c, 0, 81, 42
2, 38774, Note_on_c, 0, 81, 0
2, 38779, Note_on_c, 0, 49, 44
2, 38780, Note_on_c, 0, 58, 47
2, 38780, Note_on_c, 0, 64, 42
2, 38781, Note_on_c, 0, 70, 44
2, 38782, Note_on_c, 0, 76, 43
2, 38782, Note_on_c, 0, 79, 44
2, 38862, Note_on_c, 0, 79, 0
2, 38870, Note_on_c, 0, 78, 44
2, 38904, Note_on_c, 0, 58, 0
2, 38904, Note_on_c, 0, 49, 0
2, 38904, Note_on_c, 0, 64, 0
2, 38906, Note_on_c, 0, 70, 0
2, 38906, Note_on_c, 0, 76, 0
2, 38907, Note_on_c, 0, 78, 0
2, 38912, Note_on_c, 0, 50, 44
2, 38913, Note_on_c, 0, 59, 42
2, 38914, Note_on_c, 0, 65, 47
2, 38915, Note_on_c, 0, 71, 47
2, 38916, Note_on_c, 0, 77, 48
2, 38916, Note_on_c, 0, 79, 45
2, 38950, Note_on_c, 0, 50, 0
2, 38951, Note_on_c, 0, 59, 0
2, 38951, Note_on_c, 0, 65, 0
2, 38952, Note_on_c, 0, 71, 0
2, 38952, Note_on_c, 0, 77, 0
2, 38953, Note_on_c, 0, 79, 0
2, 39009, Note_on_c, 0, 52, 43
2, 39057, Note_on_c, 0, 64, 47
2, 39057, Note_on_c, 0, 67, 47
2, 39058, Note_on_c, 0, 79, 42
2, 39059, Note_on_c, 0, 71, 41
2, 39059, Note_on_c, 0, 76, 46
2, 39137, Note_on_c, 0, 52, 0
2, 39144, Note_on_c, 0, 51, 47
2, 39182, Note_on_c, 0, 64, 0
2, 39183, Note_on_c, 0, 67, 0
2, 39184, Note_on_c, 0, 71, 0
2, 39184, Note_on_c, 0, 76, 0
2, 39185, Note_on_c, 0, 79, 0
2, 39192, Note_on_c, 0, 63, 42
2, 39192, Note_on_c, 0, 66, 43
2, 39193, Note_on_c, 0, 69, 42
2, 39193, Note_on_c, 0, 72, 43
2, 39193, Note_on_c, 0, 75, 47
2, 39194, Note_on_c, 0, 78, 48
2, 39276, Note_on_c, 0, 51, 0
2, 39284, Note_on_c, 0, 50, 48
2, 39323, Note_on_c, 0, 63, 0
2, 39324, Note_on_c, 0, 69, 0
2, 39324, Note_on_c, 0, 66, 0
2, 39325, Note_on_c, 0, 75, 0
2, 39331, Note_on_c, 0, 62, 48
2, 39332, Note_on_c, 0, 65, 43
2, 39332, Note_on_c, 0, 67, 42
2, 39332, Note_on_c, 0, 71, 43
2, 39333, Note_on_c, 0, 74, 41
2, 39333, Note_on_c, 0, 77, 43
2, 39336, Note_on_c, 0, 72, 0
2, 39337, Note_on_c, 0, 78, 0
2, 39413, Note_on_c, 0, 50, 0
2, 39415, Note_on_c, 0, 67, 0
2, 39422, Note_on_c, 0, 48, 48
2, 39460, Note_on_c, 0, 62, 0
2, 39460, Note_on_c, 0, 65, 0
2, 39461, Note_on_c, 0, 74, 0
2, 39461, Note_on_c, 0, 71, 0
2, 39462, Note_on_c, 0, 77, 0
2, 39469, Note_on_c, 0, 60, 46
2, 39470, Note_on_c, 0, 64, 44
2, 39470, Note_on_c, 0, 67, 46
2, 39471, Note_on_c, 0, 72, 47
2, 39472, Note_on_c, 0, 76, 47
2, 39517, Note_on_c, 0, 48, 0
2, 39519, Note_on_c, 0, 67, 0
2, 39519, Note_on_c, 0, 60, 0
2, 39519, Note_on_c, 0, 64, 0
2, 39520, Note_on_c, 0, 72, 0
2, 39521, Note_on_c, 0, 76, 0
2, 39610, Note_on_c, 0, 55, 44
2, 39611, Note_on_c, 0, 60, 44
2, 39611, Note_on_c, 0, 64, 43
2, 39637, Note_on_c, 0, 60, 0
2, 39637, Note_on_c, 0, 55, 0
2, 39638, Note_on_c, 0, 64, 0
2, 39703, Note_on_c, 0, 76, 41
2, 39739, Note_on_c, 0, 76, 0
2, 39742, Note_on_c, 0, 43, 48
2, 39744, Note_on_c, 0, 55, 44
2, 39745, Note_on_c, 0, 72, 44
2, 39746, Note_on_c, 0, 75, 41
2, 39789, Note_on_c, 0, 43, 0
2, 39790, Note_on_c, 0, 55, 0
2, 39831, Note_on_c, 0, 76, 48
2, 39835, Note_on_c, 0, 75, 0
2, 39845, Note_on_c, 0, 72, 0
2, 39872, Note_on_c, 0, 76, 0
2, 39878, Note_on_c, 0, 55, 48
2, 39879, Note_on_c, 0, 60, 48
2, 39879, Note_on_c, 0, 64, 48
2, 39881, Note_on_c, 0, 79, 48
2, 39903, Note_on_c, 0, 60, 0
2, 39903, Note_on_c, 0, 55, 0
2, 39904, Note_on_c, 0, 64, 0
2, 39915, Note_on_c, 0, 79, 0
2, 39966, Note_on_c, 0, 72, 45
2, 39967, Note_on_c, 0, 76, 48
2, 39967, Note_on_c, 0, 79, 47
2, 39968, Note_on_c, 0, 84, 41
2, 39982, Control_c, 0, 64, 127
2, 40005, Note_on_c, 0, 36, 48
2, 40007, Note_on_c, 0, 48, 48
2, 40052, Note_on_c, 0, 36, 0
2, 40053, Note_on_c, 0, 48, 0
2, 40088, Note_on_c, 0, 76, 0
2, 40089, Note_on_c, 0, 79, 0
2, 40090, Note_on_c, 0, 84, 0
2, 40092, Control_c, 0, 64, 0
2, 40098, Note_on_c, 0, 83, 45
2, 40100, Note_on_c, 0, 72, 0
2, 40135, Note_on_c, 0, 83, 0
2, 40139, Note_on_c, 0, 55, 44
2, 40140, Note_on_c, 0, 60, 45
2, 40140, Note_on_c, 0, 64, 42
2, 40142, Note_on_c, 0, 76, 47
2, 40143, Note_on_c, 0, 81, 45
2, 40165, Note_on_c, 0, 55, 0
2, 40166, Note_on_c, 0, 60, 0
2, 40167, Note_on_c, 0, 64, 0
2, 40226, Note_on_c, 0, 76, 0
2, 40227, Note_on_c, 0, 81, 0
2, 40277, Note_on_c, 0, 36, 47
2, 40278, Note_on_c, 0, 48, 45
2, 40281, Note_on_c, 0, 75, 46
2, 40282, Note_on_c, 0, 81, 43
2, 40317, Note_on_c, 0, 75, 0
2, 40318, Note_on_c, 0, 81, 0
2, 40324, Note_on_c, 0, 36, 0
2, 40325, Note_on_c, 0, 48, 0
2, 40370, Note_on_c, 0, 76, 47
2, 40371, Note_on_c, 0, 79, 44
2, 40414, Note_on_c, 0, 55, 47
2, 40415, Note_on_c, 0, 60, 41
2, 40415, Note_on_c, 0, 64, 43
2, 40450, Note_on_c, 0, 60, 0
2, 40450, Note_on_c, 0, 55, 0
2, 40451, Note_on_c, 0, 64, 0
2, 40498, Note_on_c, 0, 76, 0
2, 40499, Note_on_c, 0, 79, 0
2, 40548, Note_on_c, 0, 36, 48
2, 40550, Note_on_c, 0, 48, 48
2, 40551, Note_on_c, 0, 67, 43
2, 40552, Note_on_c, 0, 72, 43
2, 40553, Note_on_c, 0, 76, 43
2, 40594, Note_on_c, 0, 36, 0
2, 40596, Note_on_c, 0, 48, 0
2, 40597, Note_on_c, 0, 67, 0
2, 40608, Note_on_c, 0, 72, 0
2, 40609, Note_on_c, 0, 76, 0
2, 40681, Note_on_c, 0, 55, 46
2, 40681, Note_on_c, 0, 60, 44
2, 40682, Note_on_c, 0, 64, 44
2, 40704, Note_on_c, 0, 64, 0
2, 40704, Note_on_c, 0, 60, 0
2, 40704, Note_on_c, 0, 55, 0
2, 40765, Note_on_c, 0, 72, 43
2, 40766, Note_on_c, 0, 76, 44
2, 40806, Note_on_c, 0, 37, 43
2, 40807, Note_on_c, 0, 49, 44
2, 40809, Note_on_c, 0, 70, 48
2, 40810, Note_on_c, 0, 75, 45
2, 40812, Note_on_c, 0, 72, 0
2, 40813, Note_on_c, 0, 76, 0
2, 40879, Note_on_c, 0, 70, 0
2, 40891, Note_on_c, 0, 75, 0
2, 40897, Note_on_c, 0, 76, 42
2, 40933, Note_on_c, 0, 76, 0
2, 40937, Note_on_c, 0, 55, 44
2, 40938, Note_on_c, 0, 58, 42
2, 40938, Note_on_c, 0, 61, 48
2, 40939, Note_on_c, 0, 64, 42
2, 40939, Note_on_c, 0, 79, 46
2, 40940, Note_on_c, 0, 70, 47
2, 40961, Note_on_c, 0, 55, 0
2, 40962, Note_on_c, 0, 58, 0
2, 40963, Note_on_c, 0, 61, 0
2, 40963, Note_on_c, 0, 64, 0
2, 41019, Note_on_c, 0, 79, 0
2, 41026, Note_on_c, 0, 76, 45
2, 41058, Note_on_c, 0, 37, 0
2, 41060, Note_on_c, 0, 49, 0
2, 41062, Note_on_c, 0, 70, 0
2, 41063, Note_on_c, 0, 76, 0
2, 41067, Note_on_c, 0, 38, 41
2, 41069, Note_on_c, 0, 50, 42
2, 41072, Note_on_c, 0, 71, 46
2, 41073, Note_on_c, 0, 77, 45
2, 41113, Note_on_c, 0, 38, 0
2, 41115, Note_on_c, 0, 50, 0
2, 41130, Note_on_c, 0, 71, 0
2, 41130, Note_on_c, 0, 77, 0
2, 41205, Note_on_c, 0, 53, 45
2, 41205, Note_on_c, 0, 55, 46
2, 41206, Note_on_c, 0, 59, 48
2, 41206, Note_on_c, 0, 62, 42
2, 41208, Note_on_c, 0, 71, 44
2, 41208, Note_on_c, 0, 77, 43
2, 41230, Note_on_c, 0, 53, 0
2, 41231, Note_on_c, 0, 55, 0
2, 41232, Note_on_c, 0, 62, 0
2, 41232, Note_on_c, 0, 59, 0
2, 41287, Note_on_c, 0, 71, 0
2, 41288, Note_on_c, 0, 77, 0
2, 41298, Note_on_c, 0, 76, 45
2, 41338, Note_on_c, 0, 31, 46
2, 41339, Note_on_c, 0, 43, 44
2, 41341, Note_on_c, 0, 74, 46
2, 41345, Note_on_c, 0, 76, 0
2, 41352, Note_on_c, 0, 71, 45
2, 41388, Note_on_c, 0, 31, 0
2, 41390, Note_on_c, 0, 43, 0
2, 41428, Note_on_c, 0, 71, 0
2, 41450, Note_on_c, 0, 86, 42
2, 41453, Note_on_c, 0, 74, 0
2, 41482, Note_on_c, 0, 53, 41
2, 41482, Note_on_c, 0, 55, 41
2, 41483, Note_on_c, 0, 59, 43
2, 41483, Note_on_c, 0, 62, 46
2, 41484, Note_on_c, 0, 74, 45
2, 41489, Note_on_c, 0, 86, 0
2, 41508, Note_on_c, 0, 53, 0
2, 41508, Note_on_c, 0, 55, 0
2, 41509, Note_on_c, 0, 59, 0
2, 41509, Note_on_c, 0, 62, 0
2, 41574, Note_on_c, 0, 75, 46
2, 41577, Note_on_c, 0, 74, 0
2, 41613, Note_on_c, 0, 75, 0
2, 41616, Note_on_c, 0, 36, 43
2, 41618, Note_on_c, 0, 48, 46
2, 41621, Note_on_c, 0, 76, 41
2, 41632, Note_on_c, 0, 72, 47
2, 41666, Note_on_c, 0, 36, 0
2, 41667, Note_on_c, 0, 48, 0
2, 41670, Note_on_c, 0, 72, 0
2, 41673, Note_on_c, 0, 76, 0
2, 41758, Note_on_c, 0, 55, 45
2, 41758, Note_on_c, 0, 60, 48
2, 41759, Note_on_c, 0, 64, 48
2, 41782, Note_on_c, 0, 55, 0
2, 41783, Note_on_c, 0, 60, 0
2, 41784, Note_on_c, 0, 64, 0
2, 41849, Note_on_c, 0, 76, 45
2, 41889, Note_on_c, 0, 31, 41
2, 41890, Note_on_c, 0, 43, 41
2, 41893, Note_on_c, 0, 72, 47
2, 41893, Note_on_c, 0, 75, 47
2, 41897, Note_on_c, 0, 76, 0
2, 41935, Note_on_c, 0, 31, 0
2, 41936, Note_on_c, 0, 43, 0
2, 41974, Note_on_c, 0, 75, 0
2, 41982, Note_on_c, 0, 76, 41
2, 41985, Note_on_c, 0, 72, 0
2, 42026, Note_on_c, 0, 55, 48
2, 42027, Note_on_c, 0, 60, 42
2, 42027, Note_on_c, 0, 64, 45
2, 42030, Note_on_c, 0, 79, 48
2, 42033, Note_on_c, 0, 76, 0
2, 42052, Note_on_c, 0, 55, 0
2, 42053, Note_on_c, 0, 64, 0
2, 42053, Note_on_c, 0, 60, 0
2, 42067, Note_on_c, 0, 79, 0
2, 42101, Control_c, 0, 64, 127
2, 42118, Note_on_c, 0, 72, 47
2, 42119, Note_on_c, 0, 76, 44
2, 42119, Note_on_c, 0, 79, 46
2, 42120, Note_on_c, 0, 84, 42
2, 42156, Note_on_c, 0, 36, 41
2, 42158, Note_on_c, 0, 48, 45
2, 42204, Note_on_c, 0, 36, 0
2, 42206, Note_on_c, 0, 48, 0
2, 42214, Control_c, 0, 64, 0
2, 42231, Note_on_c, 0, 76, 0
2, 42232, Note_on_c, 0, 84, 0
2, 42232, Note_on_c, 0, 79, 0
2, 42253, Note_on_c, 0, 83, 43
2, 42255, Note_on_c, 0, 72, 0
2, 42295, Note_on_c, 0, 55, 43
2, 42296, Note_on_c, 0, 60, 44
2, 42296, Note_on_c, 0, 64, 43
2, 42297, Note_on_c, 0, 76, 44
2, 42298, Note_on_c, 0, 81, 47
2, 42303, Note_on_c, 0, 83, 0
2, 42322, Note_on_c, 0, 55, 0
2, 42323, Note_on_c, 0, 64, 0
2, 42323, Note_on_c, 0, 60, 0
2, 42382, Note_on_c, 0, 76, 0
2, 42383, Note_on_c, 0, 81, 0
2, 42443, Control_c, 0, 64, 127
2, 42446, Note_on_c, 0, 31, 44
2, 42447, Note_on_c, 0, 43, 42
2, 42450, Note_on_c, 0, 75, 48
2, 42450, Note_on_c, 0, 81, 46
2, 42475, Note_on_c, 0, 81, 0
2, 42475, Note_on_c, 0, 75, 0
2, 42481, Note_on_c, 0, 31, 0
2, 42482, Note_on_c, 0, 43, 0
2, 42525, Control_c, 0, 64, 0
2, 42528, Note_on_c, 0, 76, 46
2, 42528, Note_on_c, 0, 79, 48
2, 42571, Note_on_c, 0, 55, 45
2, 42572, Note_on_c, 0, 60, 43
2, 42573, Note_on_c, 0, 64, 44
2, 42598, Note_on_c, 0, 55, 0
2, 42599, Note_on_c, 0, 60, 0
2, 42599, Note_on_c, 0, 64, 0
2, 42647, Note_on_c, 0, 79, 0
2, 42647, Note_on_c, 0, 76, 0
2, 42707, Note_on_c, 0, 42, 46
2, 42708, Note_on_c, 0, 51, 42
2, 42709, Note_on_c, 0, 57, 46
2, 42711, Note_on_c, 0, 75, 44
2, 42712, Note_on_c, 0, 81, 46
2, 42712, Note_on_c, 0, 84, 41
2, 42752, Note_on_c, 0, 42, 0
2, 42754, Note_on_c, 0, 51, 0
2, 42754, Note_on_c, 0, 57, 0
2, 42786, Note_on_c, 0, 75, 0
2, 42787, Note_on_c, 0, 81, 0
2, 42787, Note_on_c, 0, 84, 0
2, 42796, Note_on_c, 0, 78, 46
2, 42834, Note_on_c, 0, 78, 0
2, 42840, Note_on_c, 0, 57, 47
2, 42841, Note_on_c, 0, 59, 41
2, 42841, Note_on_c, 0, 63, 41
2, 42842, Note_on_c, 0, 66, 46
2, 42844, Note_on_c, 0, 81, 41
2, 42866, Note_on_c, 0, 59, 0
2, 42866, Note_on_c, 0, 57, 0
2, 42867, Note_on_c, 0, 66, 0
2, 42867, Note_on_c, 0, 63, 0
2, 42880, Note_on_c, 0, 81, 0
2, 42932, Note_on_c, 0, 71, 44
2, 42933, Note_on_c, 0, 75, 43
2, 42933, Note_on_c, 0, 78, 42
2, 42934, Note_on_c, 0, 83, 44
2, 42972, Note_on_c, 0, 35, 48
2, 42973, Note_on_c, 0, 47, 41
2, 43018, Note_on_c, 0, 35, 0
2, 43019, Note_on_c, 0, 47, 0
2, 43053, Note_on_c, 0, 71, 0
2, 43054, Note_on_c, 0, 75, 0
2, 43054, Note_on_c, 0, 78, 0
2, 43055, Note_on_c, 0, 83, 0
2, 43061, Note_on_c, 0, 72, 41
2, 43062, Note_on_c, 0, 84, 46
2, 43097, Note_on_c, 0, 72, 0
2, 43103, Note_on_c, 0, 57, 47
2, 43104, Note_on_c, 0, 59, 47
2, 43104, Note_on_c, 0, 63, 46
2, 43104, Note_on_c, 0, 66, 46
2, 43105, Note_on_c, 0, 71, 43
2, 43105, Note_on_c, 0, 75, 47
2, 43106, Note_on_c, 0, 78, 45
2, 43106, Note_on_c, 0, 83, 48
2, 43109, Note_on_c, 0, 84, 0
2, 43128, Note_on_c, 0, 66, 0
2, 43128, Note_on_c, 0, 57, 0
2, 43128, Note_on_c, 0, 63, 0
2, 43128, Note_on_c, 0, 59, 0
2, 43184, Note_on_c, 0, 83, 0
2, 43228, Note_on_c, 0, 75, 0
2, 43228, Note_on_c, 0, 71, 0
2, 43228, Note_on_c, 0, 78, 0
2, 43233, Note_on_c, 0, 40, 42
2, 43234, Note_on_c, 0, 47, 42
2, 43235, Note_on_c, 0, 55, 43
2, 43237, Note_on_c, 0, 76, 48
2, 43238, Note_on_c, 0, 79, 45
2, 43239, Note_on_c, 0, 83, 46
2, 43239, Note_on_c, 0, 88, 47
2, 43271, Note_on_c, 0, 40, 0
2, 43272, Note_on_c, 0, 47, 0
2, 43272, Note_on_c, 0, 55, 0
2, 43274, Note_on_c, 0, 79, 0
2, 43274, Note_on_c, 0, 76, 0
2, 43275, Note_on_c, 0, 83, 0
2, 43275, Note_on_c, 0, 88, 0
2, 43322, Note_on_c, 0, 52, 47
2, 43368, Note_on_c, 0, 64, 42
2, 43368, Note_on_c, 0, 67, 42
2, 43368, Note_on_c, 0, 71, 48
2, 43368, Note_on_c, 0, 76, 46
2, 43369, Note_on_c, 0, 79, 43
2, 43374, Control_c, 0, 64, 127
2, 43420, Control_c, 0, 64, 0
2, 43447, Note_on_c, 0, 52, 0
2, 43455, Note_on_c, 0, 51, 42
2, 43491, Note_on_c, 0, 64, 0
2, 43491, Note_on_c, 0, 67, 0
2, 43492, Note_on_c, 0, 71, 0
2, 43493, Note_on_c, 0, 79, 0
2, 43493, Note_on_c, 0, 76, 0
2, 43500, Note_on_c, 0, 63, 47
2, 43500, Note_on_c, 0, 66, 45
2, 43501, Note_on_c, 0, 69, 47
2, 43501, Note_on_c, 0, 72, 41
2, 43502, Note_on_c, 0, 75, 41
2, 43502, Note_on_c, 0, 78, 42
2, 43581, Note_on_c, 0, 51, 0
2, 43587, Note_on_c, 0, 50, 46
2, 43619, Note_on_c, 0, 65, 47
2, 43624, Note_on_c, 0, 63, 0
2, 43624, Note_on_c, 0, 66, 0
2, 43625, Note_on_c, 0, 69, 0
2, 43625, Note_on_c, 0, 72, 0
2, 43625, Note_on_c, 0, 75, 0
2, 43626, Note_on_c, 0, 78, 0
2, 43631, Note_on_c, 0, 62, 42
2, 43632, Note_on_c, 0, 67, 48
2, 43632, Note_on_c, 0, 71, 48
2, 43632, Note_on_c, 0, 74, 45
2, 43632, Note_on_c, 0, 77, 41
2, 43708, Note_on_c, 0, 50, 0
2, 43710, Note_on_c, 0, 67, 0
2, 43716, Note_on_c, 0, 48, 45
2, 43755, Note_on_c, 0, 65, 0
2, 43755, Note_on_c, 0, 62, 0
2, 43756, Note_on_c, 0, 71, 0
2, 43756, Note_on_c, 0, 74, 0
2, 43757, Note_on_c, 0, 77, 0
2, 43764, Note_on_c, 0, 60, 42
2, 43764, Note_on_c, 0, 64, 41
2, 43765, Note_on_c, 0, 67, 44
2, 43765, Note_on_c, 0, 72, 47
2, 43766, Note_on_c, 0, 76, 47
2, 43815, Note_on_c, 0, 60, 0
2, 43816, Note_on_c, 0, 67, 0
2, 43816, Note_on_c, 0, 64, 0
2, 43817, Note_on_c, 0, 72, 0
2, 43818, Note_on_c, 0, 76, 0
2, 43826, Note_on_c, 0, 48, 0
2, 43907, Note_on_c, 0, 55, 43
2, 43907, Note_on_c, 0, 60, 44
2, 43908, Note_on_c, 0, 64, 41
2, 43932, Note_on_c, 0, 55, 0
2, 43933, Note_on_c, 0, 60, 0
2, 43934, Note_on_c, 0, 64, 0
2, 44004, Note_on_c, 0, 76, 44
2, 44043, Note_on_c, 0, 76, 0
2, 44047, Note_on_c, 0, 31, 41
2, 44048, Note_on_c, 0, 43, 48
2, 44052, Note_on_c, 0, 72, 46
2, 44052, Note_on_c, 0, 75, 47
2, 44098, Note_on_c, 0, 31, 0
2, 44099, Note_on_c, 0, 43, 0
2, 44136, Note_on_c, 0, 72, 0
2, 44137, Note_on_c, 0, 75, 0
2, 44146, Note_on_c, 0, 76, 48
2, 44185, Note_on_c, 0, 76, 0
2, 44192, Note_on_c, 0, 55, 43
2, 44193, Note_on_c, 0, 60, 45
2, 44193, Note_on_c, 0, 64, 46
2, 44195, Note_on_c, 0, 79, 45
2, 44219, Note_on_c, 0, 64, 0
2, 44219, Note_on_c, 0, 55, 0
2, 44219, Note_on_c, 0, 60, 0
2, 44232, Note_on_c, 0, 79, 0
2, 44283, Note_on_c, 0, 72, 41
2, 44283, Note_on_c, 0, 76, 43
2, 44284, Note_on_c, 0, 79, 47
2, 44284, Note_on_c, 0, 84, 41
2, 44324, Note_on_c, 0, 36, 43
2, 44326, Note_on_c, 0, 48, 42
2, 44372, Note_on_c, 0, 36, 0
2, 44373, Note_on_c, 0, 48, 0
2, 44409, Note_on_c, 0, 72, 0
2, 44410, Note_on_c, 0, 76, 0
2, 44410, Note_on_c, 0, 79, 0
2, 44411, Note_on_c, 0, 84, 0
2, 44419, Note_on_c, 0, 83, 41
2, 44456, Note_on_c, 0, 83, 0
2, 44461, Note_on_c, 0, 55, 45
2, 44462, Note_on_c, 0, 60, 48
2, 44462, Note_on_c, 0, 64, 42
2, 44463, Note_on_c, 0, 72, 42
2, 44463, Note_on_c, 0, 76, 48
2, 44465, Note_on_c, 0, 81, 46
2, 44487, Note_on_c, 0, 55, 0
2, 44488, Note_on_c, 0, 60, 0
2, 44488, Note_on_c, 0, 64, 0
2, 44542, Note_on_c, 0, 72, 0
2, 44542, Note_on_c, 0, 76, 0
2, 44543, Note_on_c, 0, 81, 0
2, 44590, Note_on_c, 0, 36, 46
2, 44592, Note_on_c, 0, 48, 42
2, 44593, Note_on_c, 0, 75, 42
2, 44595, Note_on_c, 0, 81, 46
2, 44631, Note_on_c, 0, 75, 0
2, 44632, Note_on_c, 0, 81, 0
2, 44639, Note_on_c, 0, 36, 0
2, 44640, Note_on_c, 0, 48, 0
2, 44687, Note_on_c, 0, 76, 48
2, 44688, Note_on_c, 0, 79, 46
2, 44730, Note_on_c, 0, 55, 45
2, 44731, Note_on_c, 0, 60, 42
2, 44731, Note_on_c, 0, 64, 47
2, 44757, Note_on_c, 0, 60, 0
2, 44757, Note_on_c, 0, 55, 0
2, 44758, Note_on_c, 0, 64, 0
2, 44805, Note_on_c, 0, 76, 0
2, 44806, Note_on_c, 0, 79, 0
2, 44823, Note_on_c, 0, 47, 43
2, 44869, Note_on_c, 0, 59, 48
2, 44871, Note_on_c, 0, 74, 47
2, 44872, Note_on_c, 0, 80, 44
2, 44872, Note_on_c, 0, 83, 46
2, 44873, Note_on_c, 0, 86, 48
2, 44917, Note_on_c, 0, 47, 0
2, 44918, Note_on_c, 0, 59, 0
2, 44920, Note_on_c, 0, 74, 0
2, 44921, Note_on_c, 0, 80, 0
2, 44921, Note_on_c, 0, 83, 0
2, 44922, Note_on_c, 0, 86, 0
2, 44961, Note_on_c, 0, 40, 45
2, 45011, Note_on_c, 0, 52, 48
2, 45013, Note_on_c, 0, 76, 43
2, 45014, Note_on_c, 0, 80, 48
2, 45014, Note_on_c, 0, 83, 44
2, 45015, Note_on_c, 0, 40, 0
2, 45015, Note_on_c, 0, 88, 42
2, 45051, Note_on_c, 0, 80, 0
2, 45051, Note_on_c, 0, 76, 0
2, 45052, Note_on_c, 0, 88, 0
2, 45052, Note_on_c, 0, 83, 0
2, 45103, Note_on_c, 0, 42, 46
2, 45106, Note_on_c, 0, 74, 48
2, 45106, Note_on_c, 0, 80, 44
2, 45107, Note_on_c, 0, 83, 44
2, 45107, Note_on_c, 0, 86, 42
2, 45139, Note_on_c, 0, 52, 0
2, 45146, Note_on_c, 0, 54, 45
2, 45148, Note_on_c, 0, 42, 0
2, 45228, Note_on_c, 0, 74, 0
2, 45229, Note_on_c, 0, 83, 0
2, 45229, Note_on_c, 0, 86, 0
2, 45233, Note_on_c, 0, 44, 44
2, 45240, Note_on_c, 0, 80, 0
2, 45272, Note_on_c, 0, 54, 0
2, 45280, Note_on_c, 0, 56, 47
2, 45282, Note_on_c, 0, 76, 46
2, 45283, Note_on_c, 0, 44, 0
2, 45283, Note_on_c, 0, 80, 45
2, 45283, Note_on_c, 0, 83, 41
2, 45284, Note_on_c, 0, 88, 41
2, 45360, Note_on_c, 0, 80, 0
2, 45360, Note_on_c, 0, 76, 0
2, 45361, Note_on_c, 0, 88, 0
2, 45361, Note_on_c, 0, 83, 0
2, 45365, Note_on_c, 0, 45, 44
2, 45368, Note_on_c, 0, 74, 43
2, 45369, Note_on_c, 0, 86, 47
2, 45391, Note_on_c, 0, 56, 0
2, 45404, Note_on_c, 0, 74, 0
2, 45406, Note_on_c, 0, 86, 0
2, 45409, Note_on_c, 0, 57, 43
2, 45411, Note_on_c, 0, 72, 42
2, 45412, Note_on_c, 0, 76, 47
2, 45413, Note_on_c, 0, 81, 48
2, 45413, Note_on_c, 0, 84, 47
2, 45453, Note_on_c, 0, 45, 0
2, 45455, Note_on_c, 0, 57, 0
2, 45456, Note_on_c, 0, 76, 0
2, 45456, Note_on_c, 0, 72, 0
2, 45457, Note_on_c, 0, 84, 0
2, 45457, Note_on_c, 0, 81, 0
2, 45496, Note_on_c, 0, 88, 45
2, 45530, Note_on_c, 0, 88, 0
2, 45538, Note_on_c, 0, 84, 45
2, 45617, Note_on_c, 0, 84, 0
2, 45624, Note_on_c, 0, 81, 47
2, 45661, Note_on_c, 0, 81, 0
2, 45667, Note_on_c, 0, 76, 47
2, 45745, Note_on_c, 0, 76, 0
2, 45753, Note_on_c, 0, 72, 42
2, 45784, Note_on_c, 0, 69, 47
2, 45792, Note_on_c, 0, 72, 0
2, 45889, Note_on_c, 0, 64, 45
2, 45893, Note_on_c, 0, 69, 0
2, 45929, Note_on_c, 0, 64, 0
2, 45936, Note_on_c, 0, 38, 45
2, 45937, Note_on_c, 0, 50, 46
2, 45939, Note_on_c, 0, 65, 45
2, 45940, Note_on_c, 0, 69, 44
2, 45940, Note_on_c, 0, 74, 45
2, 45941, Note_on_c, 0, 77, 41
2, 45986, Note_on_c, 0, 38, 0
2, 45987, Note_on_c, 0, 50, 0
2, 46023, Note_on_c, 0, 74, 0
2, 46023, Note_on_c, 0, 69, 0
2, 46023, Note_on_c, 0, 65, 0
2, 46024, Note_on_c, 0, 77, 0
2, 46076, Note_on_c, 0, 53, 48
2, 46076, Note_on_c, 0, 57, 45
2, 46078, Note_on_c, 0, 62, 46
2, 46078, Note_on_c, 0, 67, 47
2, 46079, Note_on_c, 0, 79, 45
2, 46101, Note_on_c, 0, 53, 0
2, 46102, Note_on_c, 0, 57, 0
2, 46103, Note_on_c, 0, 62, 0
2, 46114, Note_on_c, 0, 67, 0
2, 46115, Note_on_c, 0, 79, 0
2, 46169, Note_on_c, 0, 74, 48
2, 46170, Note_on_c, 0, 69, 46
2, 46171, Note_on_c, 0, 77, 47
2, 46171, Note_on_c, 0, 81, 46
2, 46212, Note_on_c, 0, 41, 41
2, 46214, Note_on_c, 0, 53, 42
2, 46261, Note_on_c, 0, 41, 0
2, 46262, Note_on_c, 0, 53, 0
2, 46297, Note_on_c, 0, 74, 0
2, 46297, Note_on_c, 0, 69, 0
2, 46298, Note_on_c, 0, 77, 0
2, 46298, Note_on_c, 0, 81, 0
2, 46306, Note_on_c, 0, 71, 47
2, 46308, Note_on_c, 0, 83, 42
2, 46342, Note_on_c, 0, 71, 0
2, 46343, Note_on_c, 0, 83, 0
2, 46348, Note_on_c, 0, 53, 45
2, 46349, Note_on_c, 0, 57, 42
2, 46350, Note_on_c, 0, 62, 45
2, 46351, Note_on_c, 0, 72, 47
2, 46352, Note_on_c, 0, 77, 47
2, 46353, Note_on_c, 0, 81, 41
2, 46353, Note_on_c, 0, 84, 46
2, 46373, Note_on_c, 0, 53, 0
2, 46374, Note_on_c, 0, 57, 0
2, 46375, Note_on_c, 0, 62, 0
2, 46431, Note_on_c, 0, 77, 0
2, 46432, Note_on_c, 0, 84, 0
2, 46432, Note_on_c, 0, 81, 0
2, 46442, Note_on_c, 0, 72, 0
2, 46480, Note_on_c, 0, 42, 45
2, 46482, Note_on_c, 0, 54, 45
2, 46484, Note_on_c, 0, 69, 46
2, 46484, Note_on_c, 0, 72, 47
2, 46485, Note_on_c, 0, 75, 42
2, 46485, Note_on_c, 0, 78, 44
2, 46486, Note_on_c, 0, 81, 46
2, 46613, Note_on_c, 0, 57, 43
2, 46613, Note_on_c, 0, 60, 46
2, 46614, Note_on_c, 0, 63, 48
2, 46614, Note_on_c, 0, 66, 41
2, 46637, Note_on_c, 0, 60, 0
2, 46637, Note_on_c, 0, 57, 0
2, 46638, Note_on_c, 0, 63, 0
2, 46638, Note_on_c, 0, 66, 0
2, 46692, Note_on_c, 0, 69, 0
2, 46693, Note_on_c, 0, 75, 0
2, 46694, Note_on_c, 0, 78, 0
2, 46694, Note_on_c, 0, 81, 0
2, 46699, Note_on_c, 0, 67, 46
2, 46701, Note_on_c, 0, 76, 44
2, 46701, Note_on_c, 0, 79, 42
2, 46733, Note_on_c, 0, 42, 0
2, 46735, Note_on_c, 0, 54, 0
2, 46742, Note_on_c, 0, 43, 41
2, 46744, Note_on_c, 0, 55, 44
2, 46828, Note_on_c, 0, 43, 0
2, 46829, Note_on_c, 0, 55, 0
2, 46837, Note_on_c, 0, 47, 44
2, 46838, Note_on_c, 0, 59, 44
2, 46875, Note_on_c, 0, 47, 0
2, 46877, Note_on_c, 0, 59, 0
2, 46883, Note_on_c, 0, 45, 43
2, 46885, Note_on_c, 0, 57, 45
2, 46966, Note_on_c, 0, 45, 0
2, 46967, Note_on_c, 0, 57, 0
2, 46968, Note_on_c, 0, 72, 0
2, 46968, Note_on_c, 0, 67, 0
2, 46969, Note_on_c, 0, 79, 0
2, 46969, Note_on_c, 0, 76, 0
2, 46976, Note_on_c, 0, 44, 48
2, 46977, Note_on_c, 0, 56, 44
2, 47012, Note_on_c, 0, 44, 0
2, 47014, Note_on_c, 0, 56, 0
2, 47022, Note_on_c, 0, 43, 48
2, 47024, Note_on_c, 0, 55, 42
2, 47026, Note_on_c, 0, 71, 46
2, 47027, Note_on_c, 0, 77, 41
2, 47027, Note_on_c, 0, 81, 45
2, 47062, Note_on_c, 0, 71, 0
2, 47063, Note_on_c, 0, 77, 0
2, 47064, Note_on_c, 0, 81, 0
2, 47115, Note_on_c, 0, 71, 42
2, 47115, Note_on_c, 0, 77, 47
2, 47115, Note_on_c, 0, 79, 43
2, 47138, Note_on_c, 0, 43, 0
2, 47140, Note_on_c, 0, 55, 0
2, 47158, Note_on_c, 0, 45, 46
2, 47160, Note_on_c, 0, 57, 45
2, 47187, Note_on_c, 0, 71, 0
2, 47188, Note_on_c, 0, 77, 0
2, 47189, Note_on_c, 0, 79, 0
2, 47252, Note_on_c, 0, 71, 41
2, 47252, Note_on_c, 0, 77, 45
2, 47253, Note_on_c, 0, 79, 42
2, 47274, Note_on_c, 0, 45, 0
2, 47276, Note_on_c, 0, 57, 0
2, 47293, Note_on_c, 0, 47, 41
2, 47295, Note_on_c, 0, 59, 46
2, 47367, Note_on_c, 0, 71, 0
2, 47368, Note_on_c, 0, 79, 0
2, 47368, Note_on_c, 0, 77, 0
2, 47388, Note_on_c, 0, 81, 42
2, 47422, Note_on_c, 0, 47, 0
2, 47423, Note_on_c, 0, 59, 0
2, 47425, Note_on_c, 0, 81, 0
2, 47429, Note_on_c, 0, 43, 45
2, 47430, Note_on_c, 0, 55, 47
2, 47433, Note_on_c, 0, 71, 47
2, 47434, Note_on_c, 0, 77, 41
2, 47434, Note_on_c, 0, 79, 48
2, 47512, Note_on_c, 0, 71, 0
2, 47513, Note_on_c, 0, 77, 0
2, 47513, Note_on_c, 0, 79, 0
2, 47541, Note_on_c, 0, 43, 0
2, 47542, Note_on_c, 0, 55, 0
2, 47561, Note_on_c, 0, 48, 46
2, 47562, Note_on_c, 0, 60, 48
2, 47564, Note_on_c, 0, 72, 48
2, 47566, Note_on_c, 0, 76, 41
2, 47566, Note_on_c, 0, 79, 42
2, 47566, Note_on_c, 0, 84, 48
2, 47608, Note_on_c, 0, 48, 0
2, 47609, Note_on_c, 0, 60, 0
2, 47611, Note_on_c, 0, 72, 0
2, 47612, Note_on_c, 0, 76, 0
2, 47612, Note_on_c, 0, 79, 0
2, 47613, Note_on_c, 0, 84, 0
2, 47695, Note_on_c, 0, 64, 44
2, 47697, Note_on_c, 0, 76, 42
2, 47699, Note_on_c, 0, 88, 45
2, 47733, Note_on_c, 0, 64, 0
2, 47735, Note_on_c, 0, 76, 0
2, 47736, Note_on_c, 0, 88, 0
2, 47738, Control_c, 0, 64, 127
2, 47787, Note_on_c, 0, 65, 41
2, 47789, Note_on_c, 0, 77, 43
2, 47791, Note_on_c, 0, 89, 46
2, 47854, Control_c, 0, 64, 0
2, 47902, Note_on_c, 0, 65, 0
2, 47903, Note_on_c, 0, 77, 0
2, 47914, Note_on_c, 0, 89, 0
2, 47919, Note_on_c, 0, 63, 44
2, 47921, Note_on_c, 0, 75, 45
2, 47923, Note_on_c, 0, 87, 43
2, 47955, Note_on_c, 0, 63, 0
2, 47956, Note_on_c, 0, 75, 0
2, 47958, Note_on_c, 0, 87, 0
2, 47964, Note_on_c, 0, 64, 44
2, 47965, Note_on_c, 0, 76, 43
2, 47968, Note_on_c, 0, 88, 46
2, 48044, Note_on_c, 0, 64, 0
2, 48046, Note_on_c, 0, 76, 0
2, 48048, Note_on_c, 0, 88, 0
2, 48094, Note_on_c, 0, 52, 45
2, 48096, Note_on_c, 0, 64, 44
2, 48096, Note_on_c, 0, 68, 43
2, 48097, Note_on_c, 0, 71, 44
2, 48097, Note_on_c, 0, 76, 46
2, 48175, Note_on_c, 0, 71, 0
2, 48175, Note_on_c, 0, 68, 0
2, 48176, Note_on_c, 0, 76, 0
2, 48182, Note_on_c, 0, 66, 47
2, 48184, Note_on_c, 0, 78, 42
2, 48216, Note_on_c, 0, 52, 0
2, 48218, Note_on_c, 0, 64, 0
2, 48218, Note_on_c, 0, 66, 0
2, 48220, Note_on_c, 0, 78, 0
2, 48224, Note_on_c, 0, 50, 47
2, 48226, Note_on_c, 0, 62, 44
2, 48226, Note_on_c, 0, 68, 44
2, 48228, Note_on_c, 0, 80, 46
2, 48298, Note_on_c, 0, 80, 0
2, 48307, Note_on_c, 0, 68, 0
2, 48316, Note_on_c, 0, 69, 43
2, 48318, Note_on_c, 0, 81, 44
2, 48352, Note_on_c, 0, 50, 0
2, 48355, Note_on_c, 0, 62, 0
2, 48355, Note_on_c, 0, 69, 0
2, 48358, Note_on_c, 0, 81, 0
2, 48361, Note_on_c, 0, 48, 46
2, 48363, Note_on_c, 0, 60, 45
2, 48365, Note_on_c, 0, 71, 41
2, 48366, Note_on_c, 0, 83, 41
2, 48449, Note_on_c, 0, 71, 0
2, 48451, Note_on_c, 0, 83, 0
2, 48456, Note_on_c, 0, 72, 47
2, 48458, Note_on_c, 0, 84, 44
2, 48481, Note_on_c, 0, 47, 41
2, 48490, Note_on_c, 0, 48, 0
2, 48492, Note_on_c, 0, 60, 0
2, 48494, Note_on_c, 0, 72, 0
2, 48500, Note_on_c, 0, 59, 48
2, 48502, Note_on_c, 0, 74, 44
2, 48504, Note_on_c, 0, 86, 44
2, 48506, Note_on_c, 0, 84, 0
2, 48585, Note_on_c, 0, 74, 0
2, 48593, Note_on_c, 0, 76, 41
2, 48594, Note_on_c, 0, 88, 46
2, 48598, Note_on_c, 0, 86, 0
2, 48607, Note_on_c, 0, 76, 0
2, 48628, Note_on_c, 0, 47, 0
2, 48629, Note_on_c, 0, 59, 0
2, 48632, Note_on_c, 0, 88, 0
2, 48637, Note_on_c, 0, 45, 43
2, 48639, Note_on_c, 0, 57, 41
2, 48641, Note_on_c, 0, 76, 42
2, 48642, Note_on_c, 0, 81, 48
2, 48643, Note_on_c, 0, 86, 42
2, 48688, Note_on_c, 0, 45, 0
2, 48690, Note_on_c, 0, 57, 0
2, 48726, Note_on_c, 0, 76, 0
2, 48727, Note_on_c, 0, 81, 0
2, 48727, Note_on_c, 0, 86, 0
2, 48736, Note_on_c, 0, 84, 43
2, 48774, Note_on_c, 0, 84, 0
2, 48779, Note_on_c, 0, 52, 43
2, 48779, Note_on_c, 0, 57, 45
2, 48780, Note_on_c, 0, 60, 42
2, 48783, Note_on_c, 0, 83, 44
2, 48806, Note_on_c, 0, 57, 0
2, 48806, Note_on_c, 0, 52, 0
2, 48807, Note_on_c, 0, 60, 0
2, 48821, Note_on_c, 0, 83, 0
2, 48873, Note_on_c, 0, 76, 48
2, 48874, Note_on_c, 0, 81, 48
2, 48874, Note_on_c, 0, 84, 46
2, 48913, Note_on_c, 0, 40, 44
2, 48915, Note_on_c, 0, 52, 48
2, 48962, Note_on_c, 0, 40, 0
2, 48963, Note_on_c, 0, 52, 0
2, 49002, Note_on_c, 0, 76, 0
2, 49003, Note_on_c, 0, 84, 0
2, 49003, Note_on_c, 0, 81, 0
2, 49010, Note_on_c, 0, 74, 47
2, 49011, Note_on_c, 0, 83, 43
2, 49048, Note_on_c, 0, 74, 0
2, 49049, Note_on_c, 0, 83, 0
2, 49052, Note_on_c, 0, 52, 45
2, 49053, Note_on_c, 0, 57, 48
2, 49053, Note_on_c, 0, 60, 46
2, 49056, Note_on_c, 0, 76, 48
2, 49056, Note_on_c, 0, 81, 44
2, 49066, Note_on_c, 0, 72, 42
2, 49078, Note_on_c, 0, 52, 0
2, 49079, Note_on_c, 0, 57, 0
2, 49079, Note_on_c, 0, 60, 0
2, 49132, Note_on_c, 0, 76, 0
2, 49132, Note_on_c, 0, 72, 0
2, 49133, Note_on_c, 0, 81, 0
2, 49182, Note_on_c, 0, 35, 46
2, 49183, Note_on_c, 0, 47, 41
2, 49186, Note_on_c, 0, 74, 42
2, 49187, Note_on_c, 0, 80, 44
2, 49188, Note_on_c, 0, 84, 47
2, 49231, Note_on_c, 0, 35, 0
2, 49232, Note_on_c, 0, 47, 0
2, 49278, Note_on_c, 0, 83, 48
2, 49281, Note_on_c, 0, 74, 0
2, 49282, Note_on_c, 0, 80, 0
2, 49283, Note_on_c, 0, 84, 0
2, 49317, Note_on_c, 0, 83, 0
2, 49321, Note_on_c, 0, 52, 41
2, 49322, Note_on_c, 0, 56, 48
2, 49322, Note_on_c, 0, 62, 41
2, 49325, Note_on_c, 0, 82, 42
2, 49347, Note_on_c, 0, 56, 0
2, 49347, Note_on_c, 0, 52, 0
2, 49348, Note_on_c, 0, 62, 0
2, 49362, Note_on_c, 0, 82, 0
2, 49416, Note_on_c, 0, 74, 42
2, 49417, Note_on_c, 0, 80, 44
2, 49418, Note_on_c, 0, 83, 46
2, 49434, Control_c, 0, 64, 127
2, 49457, Note_on_c, 0, 28, 48
2, 49459, Note_on_c, 0, 40, 48
2, 49506, Note_on_c, 0, 28, 0
2, 49508, Note_on_c, 0, 40, 0
2, 49546, Note_on_c, 0, 74, 0
2, 49548, Note_on_c, 0, 83, 0
2, 49548, Note_on_c, 0, 80, 0
2, 49553, Control_c, 0, 64, 0
2, 49556, Note_on_c, 0, 72, 42
2, 49557, Note_on_c, 0, 81, 44
2, 49595, Note_on_c, 0, 72, 0
2, 49596, Note_on_c, 0, 81, 0
2, 49602, Note_on_c, 0, 52, 44
2, 49603, Note_on_c, 0, 56, 44
2, 49603, Note_on_c, 0, 62, 44
2, 49605, Note_on_c, 0, 71, 47
2, 49606, Note_on_c, 0, 80, 45
2, 49629, Note_on_c, 0, 52, 0
2, 49630, Note_on_c, 0, 56, 0
2, 49631, Note_on_c, 0, 62, 0
2, 49687, Note_on_c, 0, 71, 0
2, 49688, Note_on_c, 0, 80, 0
2, 49737, Note_on_c, 0, 33, 41
2, 49739, Note_on_c, 0, 45, 41
2, 49742, Note_on_c, 0, 76, 46
2, 49742, Note_on_c, 0, 83, 45
2, 49752, Note_on_c, 0, 72, 44
2, 49786, Note_on_c, 0, 33, 0
2, 49787, Note_on_c, 0, 45, 0
2, 49824, Note_on_c, 0, 83, 0
2, 49824, Note_on_c, 0, 76, 0
2, 49824, Note_on_c, 0, 72, 0
2, 49833, Note_on_c, 0, 81, 41
2, 49875, Note_on_c, 0, 52, 47
2, 49876, Note_on_c, 0, 57, 46
2, 49877, Note_on_c, 0, 60, 45
2, 49879, Note_on_c, 0, 80, 45
2, 49883, Note_on_c, 0, 81, 0
2, 49901, Note_on_c, 0, 52, 0
2, 49902, Note_on_c, 0, 60, 0
2, 49902, Note_on_c, 0, 57, 0
2, 49926, Note_on_c, 0, 80, 0
2, 49968, Note_on_c, 0, 76, 42
2, 49968, Note_on_c, 0, 72, 42
2, 49969, Note_on_c, 0, 81, 48
2, 50008, Note_on_c, 0, 36, 48
2, 50010, Note_on_c, 0, 48, 43
2, 50053, Note_on_c, 0, 36, 0
2, 50064, Note_on_c, 0, 48, 0
2, 50088, Note_on_c, 0, 76, 0
2, 50089, Note_on_c, 0, 81, 0
2, 50096, Note_on_c, 0, 75, 46
2, 50099, Note_on_c, 0, 72, 0
2, 50133, Note_on_c, 0, 75, 0
2, 50138, Note_on_c, 0, 52, 48
2, 50138, Note_on_c, 0, 57, 41
2, 50139, Note_on_c, 0, 60, 44
2, 50141, Note_on_c, 0, 76, 45
2, 50163, Note_on_c, 0, 52, 0
2, 50164, Note_on_c, 0, 57, 0
2, 50165, Note_on_c, 0, 60, 0
2, 50211, Note_on_c, 0, 76, 0
2, 50271, Note_on_c, 0, 52, 46
2, 50272, Note_on_c, 0, 64, 44
2, 50274, Note_on_c, 0, 68, 47
2, 50274, Note_on_c, 0, 71, 41
2, 50275, Note_on_c, 0, 76, 41
2, 50351, Note_on_c, 0, 71, 0
2, 50351, Note_on_c, 0, 68, 0
2, 50352, Note_on_c, 0, 76, 0
2, 50359, Note_on_c, 0, 66, 41
2, 50360, Note_on_c, 0, 78, 48
2, 50394, Note_on_c, 0, 52, 0
2, 50396, Note_on_c, 0, 64, 0
2, 50397, Note_on_c, 0, 66, 0
2, 50398, Note_on_c, 0, 78, 0
2, 50403, Note_on_c, 0, 50, 42
2, 50404, Note_on_c, 0, 62, 44
2, 50404, Note_on_c, 0, 80, 48
2, 50405, Note_on_c, 0, 68, 42
2, 50486, Note_on_c, 0, 68, 0
2, 50494, Note_on_c, 0, 69, 47
2, 50496, Note_on_c, 0, 81, 43
2, 50498, Note_on_c, 0, 80, 0
2, 50528, Note_on_c, 0, 50, 0
2, 50529, Note_on_c, 0, 62, 0
2, 50530, Note_on_c, 0, 69, 0
2, 50536, Note_on_c, 0, 48, 41
2, 50538, Note_on_c, 0, 60, 44
2, 50539, Note_on_c, 0, 71, 43
2, 50539, Note_on_c, 0, 83, 45
2, 50543, Note_on_c, 0, 81, 0
2, 50617, Note_on_c, 0, 71, 0
2, 50619, Note_on_c, 0, 83, 0
2, 50625, Note_on_c, 0, 72, 48
2, 50626, Note_on_c, 0, 84, 48
2, 50658, Note_on_c, 0, 48, 0
2, 50659, Note_on_c, 0, 60, 0
2, 50661, Note_on_c, 0, 72, 0
2, 50662, Note_on_c, 0, 84, 0
2, 50665, Note_on_c, 0, 47, 47
2, 50666, Note_on_c, 0, 59, 48
2, 50668, Note_on_c, 0, 74, 48
2, 50670, Note_on_c, 0, 86, 41
2, 50739, Note_on_c, 0, 86, 0
2, 50748, Note_on_c, 0, 74, 0
2, 50757, Note_on_c, 0, 76, 43
2, 50759, Note_on_c, 0, 88, 48
2, 50771, Note_on_c, 0, 76, 0
2, 50790, Note_on_c, 0, 47, 0
2, 50792, Note_on_c, 0, 59, 0
2, 50795, Note_on_c, 0, 88, 0
2, 50799, Note_on_c, 0, 45, 46
2, 50800, Note_on_c, 0, 57, 47
2, 50803, Note_on_c, 0, 76, 43
2, 50804, Note_on_c, 0, 81, 43
2, 50805, Note_on_c, 0, 86, 41
2, 50845, Note_on_c, 0, 45, 0
2, 50847, Note_on_c, 0, 57, 0
2, 50872, Note_on_c, 0, 86, 0
2, 50880, Note_on_c, 0, 76, 0
2, 50881, Note_on_c, 0, 81, 0
2, 50890, Note_on_c, 0, 84, 44
2, 50915, Note_on_c, 0, 84, 0
2, 50930, Note_on_c, 0, 52, 48
2, 50930, Note_on_c, 0, 57, 48
2, 50931, Note_on_c, 0, 60, 41
2, 50934, Note_on_c, 0, 83, 42
2, 50955, Note_on_c, 0, 52, 0
2, 50956, Note_on_c, 0, 57, 0
2, 50957, Note_on_c, 0, 60, 0
2, 50970, Note_on_c, 0, 83, 0
2, 51023, Note_on_c, 0, 76, 47
2, 51023, Note_on_c, 0, 81, 46
2, 51024, Note_on_c, 0, 84, 47
2, 51061, Note_on_c, 0, 28, 46
2, 51063, Note_on_c, 0, 40, 46
2, 51109, Note_on_c, 0, 28, 0
2, 51111, Note_on_c, 0, 40, 0
2, 51149, Note_on_c, 0, 76, 0
2, 51150, Note_on_c, 0, 84, 0
2, 51150, Note_on_c, 0, 81, 0
2, 51158, Note_on_c, 0, 74, 45
2, 51160, Note_on_c, 0, 83, 43
2, 51195, Note_on_c, 0, 74, 0
2, 51196, Note_on_c, 0, 83, 0
2, 51200, Note_on_c, 0, 52, 45
2, 51202, Note_on_c, 0, 57, 44
2, 51202, Note_on_c, 0, 60, 45
2, 51204, Note_on_c, 0, 72, 42
2, 51204, Note_on_c, 0, 76, 43
2, 51205, Note_on_c, 0, 81, 44
2, 51226, Note_on_c, 0, 52, 0
2, 51227, Note_on_c, 0, 57, 0
2, 51227, Note_on_c, 0, 60, 0
2, 51271, Note_on_c, 0, 76, 0
2, 51282, Note_on_c, 0, 72, 0
2, 51284, Note_on_c, 0, 81, 0
2, 51334, Note_on_c, 0, 69, 45
2, 51336, Note_on_c, 0, 57, 41
2, 51339, Note_on_c, 0, 75, 41
2, 51339, Note_on_c, 0, 78, 47
2, 51340, Note_on_c, 0, 81, 47
2, 51346, Note_on_c, 0, 42, 46
2, 51384, Note_on_c, 0, 42, 0
2, 51409, Note_on_c, 0, 69, 0
2, 51410, Note_on_c, 0, 75, 0
2, 51411, Note_on_c, 0, 81, 0
2, 51411, Note_on_c, 0, 78, 0
2, 51430, Note_on_c, 0, 72, 43
2, 51431, Note_on_c, 0, 84, 44
2, 51464, Note_on_c, 0, 57, 0
2, 51466, Note_on_c, 0, 72, 0
2, 51468, Note_on_c, 0, 84, 0
2, 51471, Note_on_c, 0, 40, 46
2, 51473, Note_on_c, 0, 55, 45
2, 51475, Note_on_c, 0, 71, 47
2, 51477, Note_on_c, 0, 83, 46
2, 51511, Note_on_c, 0, 71, 0
2, 51513, Note_on_c, 0, 83, 0
2, 51520, Note_on_c, 0, 40, 0
2, 51564, Note_on_c, 0, 69, 46
2, 51565, Note_on_c, 0, 75, 45
2, 51566, Note_on_c, 0, 78, 47
2, 51566, Note_on_c, 0, 81, 41
2, 51600, Note_on_c, 0, 55, 0
2, 51606, Note_on_c, 0, 39, 45
2, 51608, Note_on_c, 0, 54, 43
2, 51653, Note_on_c, 0, 39, 0
2, 51655, Note_on_c, 0, 54, 0
2, 51692, Note_on_c, 0, 69, 0
2, 51693, Note_on_c, 0, 78, 0
2, 51693, Note_on_c, 0, 75, 0
2, 51694, Note_on_c, 0, 81, 0
2, 51702, Note_on_c, 0, 71, 47
2, 51703, Note_on_c, 0, 83, 41
2, 51739, Note_on_c, 0, 71, 0
2, 51741, Note_on_c, 0, 83, 0
2, 51746, Note_on_c, 0, 54, 45
2, 51746, Note_on_c, 0, 57, 48
2, 51747, Note_on_c, 0, 59, 46
2, 51748, Note_on_c, 0, 63, 46
2, 51748, Note_on_c, 0, 69, 48
2, 51749, Note_on_c, 0, 75, 44
2, 51750, Note_on_c, 0, 78, 43
2, 51750, Note_on_c, 0, 81, 45
2, 51771, Note_on_c, 0, 59, 0
2, 51771, Note_on_c, 0, 54, 0
2, 51771, Note_on_c, 0, 57, 0
2, 51772, Note_on_c, 0, 63, 0
2, 51861, Note_on_c, 0, 75, 0
2, 51862, Note_on_c, 0, 78, 0
2, 51870, Note_on_c, 0, 69, 0
2, 51872, Note_on_c, 0, 81, 0
2, 51877, Note_on_c, 0, 47, 48
2, 51878, Note_on_c, 0, 56, 44
2, 51880, Note_on_c, 0, 71, 46
2, 51881, Note_on_c, 0, 76, 43
2, 51882, Note_on_c, 0, 80, 41
2, 51882, Note_on_c, 0, 83, 46
2, 51899, Note_on_c, 0, 40, 47
2, 51946, Note_on_c, 0, 40, 0
2, 51947, Note_on_c, 0, 56, 0
2, 51958, Note_on_c, 0, 47, 0
2, 51960, Note_on_c, 0, 71, 0
2, 51961, Note_on_c, 0, 76, 0
2, 51962, Note_on_c, 0, 83, 0
2, 51974, Note_on_c, 0, 80, 0
2, 52014, Note_on_c, 0, 52, 41
2, 52016, Note_on_c, 0, 64, 44
2, 52017, Note_on_c, 0, 76, 48
2, 52051, Note_on_c, 0, 52, 0
2, 52053, Note_on_c, 0, 64, 0
2, 52055, Note_on_c, 0, 76, 0
2, 52104, Note_on_c, 0, 53, 47
2, 52106, Note_on_c, 0, 65, 47
2, 52108, Note_on_c, 0, 77, 42
2, 52220, Note_on_c, 0, 53, 0
2, 52223, Note_on_c, 0, 77, 0
2, 52232, Note_on_c, 0, 65, 0
2, 52240, Note_on_c, 0, 51, 45
2, 52242, Note_on_c, 0, 63, 47
2, 52244, Note_on_c, 0, 75, 46
2, 52277, Note_on_c, 0, 51, 0
2, 52278, Note_on_c, 0, 63, 0
2, 52280, Note_on_c, 0, 75, 0
2, 52288, Note_on_c, 0, 52, 41
2, 52289, Note_on_c, 0, 64, 41
2, 52291, Note_on_c, 0, 76, 47
2, 52329, Control_c, 0, 64, 127
2, 52336, Note_on_c, 0, 52, 0
2, 52337, Note_on_c, 0, 64, 0
2, 52339, Note_on_c, 0, 76, 0
2, 52378, Control_c, 0, 64, 0
2, 52422, Note_on_c, 0, 52, 44
2, 52423, Note_on_c, 0, 64, 43
2, 52424, Note_on_c, 0, 68, 48
2, 52424, Note_on_c, 0, 71, 45
2, 52425, Note_on_c, 0, 76, 41
2, 52499, Note_on_c, 0, 76, 0
2, 52499, Note_on_c, 0, 68, 0
2, 52499, Note_on_c, 0, 71, 0
2, 52507, Note_on_c, 0, 66, 42
2, 52507, Note_on_c, 0, 78, 44
2, 52540, Note_on_c, 0, 52, 0
2, 52541, Note_on_c, 0, 64, 0
2, 52542, Note_on_c, 0, 66, 0
2, 52543, Note_on_c, 0, 78, 0
2, 52548, Note_on_c, 0, 50, 44
2, 52550, Note_on_c, 0, 62, 46
2, 52551, Note_on_c, 0, 68, 42
2, 52552, Note_on_c, 0, 80, 42
2, 52619, Note_on_c, 0, 68, 0
2, 52632, Note_on_c, 0, 80, 0
2, 52637, Note_on_c, 0, 69, 41
2, 52638, Note_on_c, 0, 81, 42
2, 52670, Note_on_c, 0, 50, 0
2, 52672, Note_on_c, 0, 62, 0
2, 52673, Note_on_c, 0, 69, 0
2, 52675, Note_on_c, 0, 81, 0
2, 52679, Note_on_c, 0, 48, 44
2, 52680, Note_on_c, 0, 60, 41
2, 52681, Note_on_c, 0, 71, 46
2, 52683, Note_on_c, 0, 83, 42
2, 52760, Note_on_c, 0, 71, 0
2, 52762, Note_on_c, 0, 83, 0
2, 52769, Note_on_c, 0, 72, 48
2, 52770, Note_on_c, 0, 84, 47
2, 52801, Note_on_c, 0, 48, 0
2, 52803, Note_on_c, 0, 60, 0
2, 52805, Note_on_c, 0, 72, 0
2, 52806, Note_on_c, 0, 84, 0
2, 52809, Note_on_c, 0, 47, 43
2, 52811, Note_on_c, 0, 59, 45
2, 52813, Note_on_c, 0, 74, 45
2, 52815, Note_on_c, 0, 86, 45
2, 52880, Note_on_c, 0, 74, 0
2, 52882, Note_on_c, 0, 86, 0
2, 52900, Note_on_c, 0, 76, 46
2, 52902, Note_on_c, 0, 88, 45
2, 52916, Note_on_c, 0, 76, 0
2, 52936, Note_on_c, 0, 47, 0
2, 52937, Note_on_c, 0, 59, 0
2, 52941, Note_on_c, 0, 88, 0
2, 52943, Note_on_c, 0, 45, 41
2, 52944, Note_on_c, 0, 57, 43
2, 52947, Note_on_c, 0, 76, 42
2, 52948, Note_on_c, 0, 81, 41
2, 52949, Note_on_c, 0, 86, 41
2, 52991, Note_on_c, 0, 45, 0
2, 52992, Note_on_c, 0, 57, 0
2, 53026, Note_on_c, 0, 76, 0
2, 53027, Note_on_c, 0, 81, 0
2, 53035, Note_on_c, 0, 84, 43
2, 53038, Note_on_c, 0, 86, 0
2, 53070, Note_on_c, 0, 84, 0
2, 53075, Note_on_c, 0, 52, 46
2, 53076, Note_on_c, 0, 57, 47
2, 53076, Note_on_c, 0, 60, 46
2, 53079, Note_on_c, 0, 83, 46
2, 53101, Note_on_c, 0, 52, 0
2, 53102, Note_on_c, 0, 57, 0
2, 53102, Note_on_c, 0, 60, 0
2, 53116, Note_on_c, 0, 83, 0
2, 53171, Note_on_c, 0, 76, 44
2, 53172, Note_on_c, 0, 81, 44
2, 53172, Note_on_c, 0, 84, 43
2, 53188, Control_c, 0, 64, 127
2, 53213, Note_on_c, 0, 52, 44
2, 53235, Note_on_c, 0, 40, 47
2, 53259, Note_on_c, 0, 40, 0
2, 53272, Note_on_c, 0, 52, 0
2, 53301, Control_c, 0, 64, 0
2, 53304, Note_on_c, 0, 74, 41
2, 53305, Note_on_c, 0, 83, 41
2, 53308, Note_on_c, 0, 76, 0
2, 53309, Note_on_c, 0, 81, 0
2, 53309, Note_on_c, 0, 84, 0
2, 53340, Note_on_c, 0, 74, 0
2, 53342, Note_on_c, 0, 83, 0
2, 53345, Note_on_c, 0, 52, 48
2, 53347, Note_on_c, 0, 57, 44
2, 53348, Note_on_c, 0, 60, 41
2, 53349, Note_on_c, 0, 72, 46
2, 53350, Note_on_c, 0, 81, 46
2, 53372, Note_on_c, 0, 52, 0
2, 53373, Note_on_c, 0, 57, 0
2, 53373, Note_on_c, 0, 60, 0
2, 53417, Note_on_c, 0, 72, 0
2, 53418, Note_on_c, 0, 81, 0
2, 53476, Note_on_c, 0, 35, 44
2, 53478, Note_on_c, 0, 47, 47
2, 53481, Note_on_c, 0, 74, 41
2, 53483, Note_on_c, 0, 80, 47
2, 53483, Note_on_c, 0, 84, 45
2, 53526, Note_on_c, 0, 35, 0
2, 53528, Note_on_c, 0, 47, 0
2, 53553, Note_on_c, 0, 74, 0
2, 53554, Note_on_c, 0, 80, 0
2, 53555, Note_on_c, 0, 84, 0
2, 53575, Note_on_c, 0, 83, 48
2, 53612, Note_on_c, 0, 83, 0
2, 53615, Note_on_c, 0, 52, 42
2, 53615, Note_on_c, 0, 62, 44
2, 53616, Note_on_c, 0, 56, 45
2, 53618, Note_on_c, 0, 82, 42
2, 53640, Note_on_c, 0, 56, 0
2, 53640, Note_on_c, 0, 52, 0
2, 53640, Note_on_c, 0, 62, 0
2, 53654, Note_on_c, 0, 82, 0
2, 53707, Note_on_c, 0, 74, 42
2, 53708, Note_on_c, 0, 80, 41
2, 53709, Note_on_c, 0, 83, 41
2, 53748, Note_on_c, 0, 28, 47
2, 53761, Note_on_c, 0, 40, 47
2, 53793, Control_c, 0, 64, 127
2, 53799, Note_on_c, 0, 28, 0
2, 53801, Note_on_c, 0, 40, 0
2, 53828, Note_on_c, 0, 74, 0
2, 53830, Note_on_c, 0, 83, 0
2, 53845, Control_c, 0, 64, 0
2, 53848, Note_on_c, 0, 72, 45
2, 53849, Note_on_c, 0, 81, 46
2, 53853, Note_on_c, 0, 80, 0
2, 53886, Note_on_c, 0, 72, 0
2, 53893, Note_on_c, 0, 52, 46
2, 53894, Note_on_c, 0, 56, 45
2, 53895, Note_on_c, 0, 62, 41
2, 53896, Note_on_c, 0, 71, 41
2, 53897, Note_on_c, 0, 80, 46
2, 53900, Note_on_c, 0, 81, 0
2, 53919, Note_on_c, 0, 52, 0
2, 53919, Note_on_c, 0, 56, 0
2, 53921, Note_on_c, 0, 62, 0
2, 53991, Note_on_c, 0, 71, 0
2, 53992, Note_on_c, 0, 80, 0
2, 54031, Note_on_c, 0, 33, 46
2, 54032, Note_on_c, 0, 45, 48
2, 54035, Note_on_c, 0, 72, 42
2, 54036, Note_on_c, 0, 76, 44
2, 54037, Note_on_c, 0, 83, 41
2, 54081, Note_on_c, 0, 33, 0
2, 54082, Note_on_c, 0, 45, 0
2, 54121, Note_on_c, 0, 72, 0
2, 54122, Note_on_c, 0, 76, 0
2, 54123, Note_on_c, 0, 83, 0
2, 54132, Note_on_c, 0, 81, 45
2, 54171, Note_on_c, 0, 81, 0
2, 54178, Note_on_c, 0, 52, 41
2, 54178, Note_on_c, 0, 57, 47
2, 54179, Note_on_c, 0, 60, 43
2, 54182, Note_on_c, 0, 80, 42
2, 54204, Note_on_c, 0, 52, 0
2, 54205, Note_on_c, 0, 57, 0
2, 54205, Note_on_c, 0, 60, 0
2, 54218, Note_on_c, 0, 80, 0
2, 54269, Note_on_c, 0, 72, 44
2, 54269, Note_on_c, 0, 76, 46
2, 54270, Note_on_c, 0, 81, 44
2, 54311, Note_on_c, 0, 48, 42
2, 54312, Note_on_c, 0, 60, 43
2, 54352, Note_on_c, 0, 81, 0
2, 54394, Note_on_c, 0, 60, 0
2, 54396, Note_on_c, 0, 76, 0
2, 54404, Note_on_c, 0, 48, 0
2, 54404, Note_on_c, 0, 81, 42
2, 54407, Note_on_c, 0, 72, 0
2, 54418, Note_on_c, 0, 81, 0
2, 54446, Note_on_c, 0, 52, 48
2, 54448, Note_on_c, 0, 64, 43
2, 54449, Note_on_c, 0, 72, 44
2, 54450, Note_on_c, 0, 76, 47
2, 54451, Note_on_c, 0, 81, 42
2, 54528, Note_on_c, 0, 52, 0
2, 54529, Note_on_c, 0, 64, 0
2, 54531, Note_on_c, 0, 76, 0
2, 54532, Note_on_c, 0, 81, 0
2, 54543, Note_on_c, 0, 72, 0
2, 54583, Note_on_c, 0, 50, 43
2, 54585, Note_on_c, 0, 62, 44
2, 54587, Note_on_c, 0, 81, 42
2, 54588, Note_on_c, 0, 86, 47
2, 54588, Note_on_c, 0, 89, 44
2, 54589, Note_on_c, 0, 93, 41
2, 54624, Note_on_c, 0, 89, 0
2, 54630, Note_on_c, 0, 50, 0
2, 54631, Note_on_c, 0, 62, 0
2, 54667, Note_on_c, 0, 81, 0
2, 54672, Note_on_c, 0, 93, 0
2, 54673, Note_on_c, 0, 77, 45
2, 54676, Note_on_c, 0, 89, 43
2, 54679, Note_on_c, 0, 86, 0
2, 54714, Note_on_c, 0, 77, 0
2, 54716, Note_on_c, 0, 89, 0
2, 54720, Note_on_c, 0, 57, 46
2, 54721, Note_on_c, 0, 62, 43
2, 54721, Note_on_c, 0, 65, 41
2, 54722, Note_on_c, 0, 74, 42
2, 54724, Note_on_c, 0, 86, 43
2, 54748, Note_on_c, 0, 57, 0
2, 54749, Note_on_c, 0, 62, 0
2, 54750, Note_on_c, 0, 65, 0
2, 54762, Note_on_c, 0, 74, 0
2, 54764, Note_on_c, 0, 86, 0
2, 54802, Control_c, 0, 64, 127
2, 54818, Note_on_c, 0, 69, 47
2, 54819, Note_on_c, 0, 81, 48
2, 54861, Note_on_c, 0, 52, 48
2, 54862, Note_on_c, 0, 64, 43
2, 54943, Note_on_c, 0, 69, 0
2, 54944, Note_on_c, 0, 81, 0
2, 54951, Note_on_c, 0, 74, 42
2, 54953, Note_on_c, 0, 86, 42
2, 54955, Note_on_c, 0, 52, 0
2, 54956, Note_on_c, 0, 64, 0
2, 54984, Control_c, 0, 64, 0
2, 54989, Note_on_c, 0, 74, 0
2, 54997, Note_on_c, 0, 50, 44
2, 54997, Note_on_c, 0, 62, 46
2, 54999, Note_on_c, 0, 77, 42
2, 55000, Note_on_c, 0, 89, 44
2, 55003, Note_on_c, 0, 86, 0
2, 55080, Note_on_c, 0, 77, 0
2, 55085, Note_on_c, 0, 89, 0
2, 55121, Note_on_c, 0, 50, 0
2, 55123, Note_on_c, 0, 62, 0
2, 55129, Note_on_c, 0, 52, 46
2, 55131, Note_on_c, 0, 64, 44
2, 55132, Note_on_c, 0, 76, 43
2, 55133, Note_on_c, 0, 81, 42
2, 55133, Note_on_c, 0, 84, 44
2, 55134, Note_on_c, 0, 88, 46
2, 55168, Note_on_c, 0, 84, 0
2, 55176, Note_on_c, 0, 64, 0
2, 55176, Note_on_c, 0, 52, 0
2, 55210, Note_on_c, 0, 76, 0
2, 55211, Note_on_c, 0, 81, 0
2, 55211, Note_on_c, 0, 88, 0
2, 55215, Note_on_c, 0, 72, 42
2, 55218, Note_on_c, 0, 84, 42
2, 55252, Note_on_c, 0, 72, 0
2, 55254, Note_on_c, 0, 84, 0
2, 55258, Note_on_c, 0, 52, 41
2, 55259, Note_on_c, 0, 57, 42
2, 55259, Note_on_c, 0, 60, 42
2, 55261, Note_on_c, 0, 69, 41
2, 55262, Note_on_c, 0, 81, 44
2, 55266, Control_c, 0, 64, 127
2, 55294, Note_on_c, 0, 52, 0
2, 55295, Note_on_c, 0, 57, 0
2, 55295, Note_on_c, 0, 60, 0
2, 55296, Note_on_c, 0, 69, 0
2, 55298, Note_on_c, 0, 81, 0
2, 55349, Note_on_c, 0, 64, 46
2, 55351, Note_on_c, 0, 76, 46
2, 55380, Control_c, 0, 64, 0
2, 55393, Note_on_c, 0, 50, 46
2, 55394, Note_on_c, 0, 62, 46
2, 55462, Note_on_c, 0, 76, 0
2, 55473, Note_on_c, 0, 64, 0
2, 55481, Note_on_c, 0, 65, 42
2, 55483, Note_on_c, 0, 77, 44
2, 55514, Note_on_c, 0, 50, 0
2, 55516, Note_on_c, 0, 62, 0
2, 55516, Note_on_c, 0, 65, 0
2, 55518, Note_on_c, 0, 77, 0
2, 55523, Note_on_c, 0, 48, 46
2, 55525, Note_on_c, 0, 60, 43
2, 55526, Note_on_c, 0, 64, 42
2, 55527, Note_on_c, 0, 76, 47
2, 55608, Note_on_c, 0, 64, 0
2, 55609, Note_on_c, 0, 76, 0
2, 55655, Note_on_c, 0, 60, 0
2, 55662, Note_on_c, 0, 47, 41
2, 55663, Note_on_c, 0, 59, 42
2, 55664, Note_on_c, 0, 74, 41
2, 55664, Note_on_c, 0, 76, 47
2, 55665, Note_on_c, 0, 80, 46
2, 55665, Note_on_c, 0, 86, 41
2, 55666, Note_on_c, 0, 48, 0
2, 55711, Note_on_c, 0, 47, 0
2, 55712, Note_on_c, 0, 59, 0
2, 55736, Note_on_c, 0, 86, 0
2, 55747, Note_on_c, 0, 74, 0
2, 55747, Note_on_c, 0, 76, 0
2, 55748, Note_on_c, 0, 80, 0
2, 55755, Note_on_c, 0, 72, 46
2, 55756, Note_on_c, 0, 84, 46
2, 55791, Note_on_c, 0, 72, 0
2, 55793, Note_on_c, 0, 84, 0
2, 55797, Note_on_c, 0, 52, 41
2, 55798, Note_on_c, 0, 56, 43
2, 55799, Note_on_c, 0, 62, 41
2, 55800, Note_on_c, 0, 71, 46
2, 55800, Note_on_c, 0, 83, 44
2, 55823, Note_on_c, 0, 52, 0
2, 55824, Note_on_c, 0, 56, 0
2, 55824, Note_on_c, 0, 62, 0
2, 55835, Note_on_c, 0, 71, 0
2, 55837, Note_on_c, 0, 83, 0
2, 55889, Note_on_c, 0, 76, 43
2, 55890, Note_on_c, 0, 80, 48
2, 55890, Note_on_c, 0, 83, 41
2, 55891, Note_on_c, 0, 88, 41
2, 55931, Note_on_c, 0, 40, 45
2, 55932, Note_on_c, 0, 52, 42
2, 55978, Note_on_c, 0, 40, 0
2, 55979, Note_on_c, 0, 52, 0
2, 56015, Note_on_c, 0, 76, 0
2, 56016, Note_on_c, 0, 80, 0
2, 56016, Note_on_c, 0, 83, 0
2, 56016, Note_on_c, 0, 88, 0
2, 56022, Note_on_c, 0, 74, 48
2, 56024, Note_on_c, 0, 86, 42
2, 56059, Note_on_c, 0, 74, 0
2, 56062, Note_on_c, 0, 86, 0
2, 56064, Note_on_c, 0, 52, 45
2, 56065, Note_on_c, 0, 56, 47
2, 56065, Note_on_c, 0, 62, 44
2, 56067, Note_on_c, 0, 72, 45
2, 56069, Note_on_c, 0, 84, 48
2, 56089, Note_on_c, 0, 52, 0
2, 56090, Note_on_c, 0, 56, 0
2, 56091, Note_on_c, 0, 62, 0
2, 56149, Note_on_c, 0, 84, 0
2, 56157, Note_on_c, 0, 71, 48
2, 56159, Note_on_c, 0, 83, 47
2, 56160, Note_on_c, 0, 72, 0
2, 56195, Note_on_c, 0, 71, 0
2, 56197, Note_on_c, 0, 83, 0
2, 56200, Note_on_c, 0, 45, 44
2, 56202, Note_on_c, 0, 57, 42
2, 56204, Note_on_c, 0, 69, 44
2, 56205, Note_on_c, 0, 72, 41
2, 56206, Note_on_c, 0, 76, 42
2, 56207, Note_on_c, 0, 81, 42
2, 56274, Note_on_c, 0, 45, 0
2, 56275, Note_on_c, 0, 57, 0
2, 56342, Note_on_c, 0, 52, 45
2, 56342, Note_on_c, 0, 57, 41
2, 56343, Note_on_c, 0, 60, 48
2, 56347, Note_on_c, 0, 69, 0
2, 56348, Note_on_c, 0, 76, 0
2, 56349, Note_on_c, 0, 81, 0
2, 56358, Note_on_c, 0, 72, 0
2, 56368, Note_on_c, 0, 52, 0
2, 56369, Note_on_c, 0, 57, 0
2, 56369, Note_on_c, 0, 60, 0
2, 56431, Note_on_c, 0, 69, 45
2, 56433, Note_on_c, 0, 81, 46
2, 56473, Note_on_c, 0, 69, 0
2, 56475, Note_on_c, 0, 81, 0
2, 56480, Note_on_c, 0, 43, 44
2, 56482, Note_on_c, 0, 55, 41
2, 56483, Note_on_c, 0, 74, 46
2, 56484, Note_on_c, 0, 71, 46
2, 56484, Note_on_c, 0, 77, 44
2, 56485, Note_on_c, 0, 83, 43
2, 56530, Note_on_c, 0, 43, 0
2, 56531, Note_on_c, 0, 55, 0
2, 56557, Note_on_c, 0, 74, 0
2, 56558, Note_on_c, 0, 71, 0
2, 56558, Note_on_c, 0, 77, 0
2, 56571, Note_on_c, 0, 83, 0
2, 56580, Note_on_c, 0, 84, 42
2, 56592, Note_on_c, 0, 72, 42
2, 56618, Note_on_c, 0, 72, 0
2, 56620, Note_on_c, 0, 84, 0
2, 56626, Note_on_c, 0, 55, 47
2, 56626, Note_on_c, 0, 59, 47
2, 56626, Note_on_c, 0, 62, 48
2, 56627, Note_on_c, 0, 65, 43
2, 56627, Note_on_c, 0, 74, 47
2, 56628, Note_on_c, 0, 77, 48
2, 56629, Note_on_c, 0, 83, 48
2, 56629, Note_on_c, 0, 86, 44
2, 56653, Note_on_c, 0, 55, 0
2, 56654, Note_on_c, 0, 65, 0
2, 56654, Note_on_c, 0, 59, 0
2, 56654, Note_on_c, 0, 62, 0
2, 56711, Note_on_c, 0, 74, 0
2, 56712, Note_on_c, 0, 86, 0
2, 56712, Note_on_c, 0, 77, 0
2, 56712, Note_on_c, 0, 83, 0
2, 56720, Note_on_c, 0, 75, 43
2, 56721, Note_on_c, 0, 87, 47
2, 56759, Note_on_c, 0, 75, 0
2, 56760, Note_on_c, 0, 87, 0
2, 56762, Note_on_c, 0, 36, 44
2, 56763, Note_on_c, 0, 48, 41
2, 56766, Note_on_c, 0, 76, 46
2, 56766, Note_on_c, 0, 79, 48
2, 56767, Note_on_c, 0, 84, 42
2, 56767, Note_on_c, 0, 88, 45
2, 56810, Note_on_c, 0, 36, 0
2, 56812, Note_on_c, 0, 48, 0
2, 56900, Note_on_c, 0, 52, 44
2, 56900, Note_on_c, 0, 55, 44
2, 56901, Note_on_c, 0, 60, 46
2, 56905, Note_on_c, 0, 79, 0
2, 56905, Note_on_c, 0, 76, 0
2, 56906, Note_on_c, 0, 84, 0
2, 56906, Note_on_c, 0, 88, 0
2, 56926, Note_on_c, 0, 52, 0
2, 56926, Note_on_c, 0, 55, 0
2, 56927, Note_on_c, 0, 60, 0
2, 56994, Note_on_c, 0, 76, 47
2, 56995, Note_on_c, 0, 88, 46
2, 57029, Note_on_c, 0, 76, 0
2, 57032, Note_on_c, 0, 43, 42
2, 57034, Note_on_c, 0, 55, 48
2, 57036, Note_on_c, 0, 88, 0
2, 57037, Note_on_c, 0, 75, 46
2, 57037, Note_on_c, 0, 79, 42
2, 57038, Note_on_c, 0, 84, 43
2, 57039, Note_on_c, 0, 87, 45
2, 57079, Note_on_c, 0, 43, 0
2, 57080, Note_on_c, 0, 55, 0
2, 57116, Note_on_c, 0, 75, 0
2, 57117, Note_on_c, 0, 79, 0
2, 57117, Note_on_c, 0, 84, 0
2, 57118, Note_on_c, 0, 87, 0
2, 57125, Note_on_c, 0, 76, 41
2, 57127, Note_on_c, 0, 88, 42
2, 57165, Note_on_c, 0, 76, 0
2, 57169, Note_on_c, 0, 88, 0
2, 57170, Note_on_c, 0, 52, 45
2, 57170, Note_on_c, 0, 55, 46
2, 57172, Note_on_c, 0, 60, 47
2, 57174, Note_on_c, 0, 79, 47
2, 57175, Note_on_c, 0, 91, 47
2, 57197, Note_on_c, 0, 55, 0
2, 57197, Note_on_c, 0, 52, 0
2, 57198, Note_on_c, 0, 60, 0
2, 57212, Note_on_c, 0, 79, 0
2, 57217, Note_on_c, 0, 91, 0
2, 57266, Note_on_c, 0, 84, 41
2, 57267, Note_on_c, 0, 88, 44
2, 57267, Note_on_c, 0, 91, 43
2, 57268, Note_on_c, 0, 96, 45
2, 57306, Note_on_c, 0, 36, 44
2, 57308, Note_on_c, 0, 48, 45
2, 57355, Note_on_c, 0, 36, 0
2, 57356, Note_on_c, 0, 48, 0
2, 57392, Note_on_c, 0, 84, 0
2, 57393, Note_on_c, 0, 88, 0
2, 57393, Note_on_c, 0, 91, 0
2, 57401, Note_on_c, 0, 83, 44
2, 57402, Note_on_c, 0, 95, 48
2, 57410, Note_on_c, 0, 96, 0
2, 57439, Note_on_c, 0, 83, 0
2, 57440, Note_on_c, 0, 95, 0
2, 57446, Note_on_c, 0, 52, 48
2, 57447, Note_on_c, 0, 55, 41
2, 57447, Note_on_c, 0, 60, 47
2, 57449, Note_on_c, 0, 81, 42
2, 57449, Note_on_c, 0, 84, 48
2, 57450, Note_on_c, 0, 88, 43
2, 57450, Note_on_c, 0, 93, 47
2, 57473, Note_on_c, 0, 52, 0
2, 57474, Note_on_c, 0, 55, 0
2, 57474, Note_on_c, 0, 60, 0
2, 57535, Note_on_c, 0, 84, 0
2, 57535, Note_on_c, 0, 81, 0
2, 57535, Note_on_c, 0, 88, 0
2, 57536, Note_on_c, 0, 93, 0
2, 57588, Note_on_c, 0, 31, 48
2, 57588, Note_on_c, 0, 43, 44
2, 57591, Note_on_c, 0, 83, 47
2, 57592, Note_on_c, 0, 87, 41
2, 57593, Note_on_c, 0, 93, 41
2, 57602, Note_on_c, 0, 81, 45
2, 57626, Note_on_c, 0, 81, 0
2, 57626, Note_on_c, 0, 83, 0
2, 57626, Note_on_c, 0, 87, 0
2, 57627, Note_on_c, 0, 93, 0
2, 57634, Note_on_c, 0, 43, 0
2, 57634, Note_on_c, 0, 31, 0
2, 57679, Note_on_c, 0, 79, 42
2, 57679, Note_on_c, 0, 88, 47
2, 57680, Note_on_c, 0, 84, 41
2, 57680, Note_on_c, 0, 91, 42
2, 57720, Note_on_c, 0, 52, 42
2, 57720, Note_on_c, 0, 55, 43
2, 57721, Note_on_c, 0, 60, 47
2, 57757, Note_on_c, 0, 52, 0
2, 57758, Note_on_c, 0, 55, 0
2, 57758, Note_on_c, 0, 60, 0
2, 57804, Note_on_c, 0, 79, 0
2, 57805, Note_on_c, 0, 88, 0
2, 57805, Note_on_c, 0, 84, 0
2, 57806, Note_on_c, 0, 91, 0
2, 57854, Note_on_c, 0, 36, 41
2, 57856, Note_on_c, 0, 48, 41
2, 57859, Note_on_c, 0, 76, 44
2, 57859, Note_on_c, 0, 79, 46
2, 57860, Note_on_c, 0, 84, 45
2, 57860, Note_on_c, 0, 88, 42
2, 57899, Note_on_c, 0, 36, 0
2, 57901, Note_on_c, 0, 48, 0
2, 57986, Note_on_c, 0, 52, 43
2, 57987, Note_on_c, 0, 55, 41
2, 57987, Note_on_c, 0, 60, 43
2, 57991, Note_on_c, 0, 76, 0
2, 57992, Note_on_c, 0, 79, 0
2, 57992, Note_on_c, 0, 84, 0
2, 57993, Note_on_c, 0, 88, 0
2, 58011, Note_on_c, 0, 52, 0
2, 58012, Note_on_c, 0, 55, 0
2, 58012, Note_on_c, 0, 60, 0
2, 58080, Note_on_c, 0, 76, 44
2, 58081, Note_on_c, 0, 88, 48
2, 58118, Note_on_c, 0, 76, 0
2, 58124, Note_on_c, 0, 37, 42
2, 58125, Note_on_c, 0, 49, 41
2, 58126, Note_on_c, 0, 88, 0
2, 58128, Note_on_c, 0, 75, 46
2, 58128, Note_on_c, 0, 78, 42
2, 58129, Note_on_c, 0, 82, 43
2, 58129, Note_on_c, 0, 87, 41
2, 58210, Note_on_c, 0, 75, 0
2, 58211, Note_on_c, 0, 82, 0
2, 58211, Note_on_c, 0, 78, 0
2, 58212, Note_on_c, 0, 87, 0
2, 58219, Note_on_c, 0, 76, 44
2, 58220, Note_on_c, 0, 88, 48
2, 58255, Note_on_c, 0, 76, 0
2, 58257, Note_on_c, 0, 88, 0
2, 58261, Note_on_c, 0, 55, 44
2, 58261, Note_on_c, 0, 58, 42
2, 58262, Note_on_c, 0, 61, 44
2, 58262, Note_on_c, 0, 64, 41
2, 58262, Note_on_c, 0, 91, 41
2, 58264, Note_on_c, 0, 79, 44
2, 58286, Note_on_c, 0, 61, 0
2, 58286, Note_on_c, 0, 58, 0
2, 58286, Note_on_c, 0, 55, 0
2, 58287, Note_on_c, 0, 64, 0
2, 58332, Note_on_c, 0, 79, 0
2, 58344, Note_on_c, 0, 91, 0
2, 58351, Note_on_c, 0, 76, 46
2, 58351, Note_on_c, 0, 88, 42
2, 58387, Note_on_c, 0, 37, 0
2, 58388, Note_on_c, 0, 49, 0
2, 58390, Note_on_c, 0, 76, 0
2, 58391, Note_on_c, 0, 88, 0
2, 58394, Note_on_c, 0, 38, 44
2, 58395, Note_on_c, 0, 50, 41
2, 58398, Note_on_c, 0, 77, 42
2, 58398, Note_on_c, 0, 81, 43
2, 58399, Note_on_c, 0, 83, 48
2, 58399, Note_on_c, 0, 89, 44
2, 58432, Note_on_c, 0, 38, 0
2, 58445, Note_on_c, 0, 50, 0
2, 58447, Note_on_c, 0, 77, 0
2, 58448, Note_on_c, 0, 81, 0
2, 58448, Note_on_c, 0, 83, 0
2, 58449, Note_on_c, 0, 89, 0
2, 58536, Note_on_c, 0, 55, 44
2, 58537, Note_on_c, 0, 59, 45
2, 58537, Note_on_c, 0, 62, 45
2, 58537, Note_on_c, 0, 65, 45
2, 58539, Note_on_c, 0, 77, 48
2, 58540, Note_on_c, 0, 81, 42
2, 58540, Note_on_c, 0, 83, 46
2, 58541, Note_on_c, 0, 89, 41
2, 58563, Note_on_c, 0, 62, 0
2, 58563, Note_on_c, 0, 55, 0
2, 58563, Note_on_c, 0, 59, 0
2, 58564, Note_on_c, 0, 65, 0
2, 58612, Control_c, 0, 64, 127
2, 58621, Note_on_c, 0, 77, 0
2, 58621, Note_on_c, 0, 81, 0
2, 58621, Note_on_c, 0, 83, 0
2, 58622, Note_on_c, 0, 89, 0
2, 58629, Note_on_c, 0, 76, 41
2, 58629, Note_on_c, 0, 79, 45
2, 58629, Note_on_c, 0, 88, 43
2, 58666, Note_on_c, 0, 76, 0
2, 58667, Note_on_c, 0, 79, 0
2, 58668, Note_on_c, 0, 88, 0
2, 58671, Note_on_c, 0, 31, 41
2, 58673, Note_on_c, 0, 43, 47
2, 58676, Note_on_c, 0, 74, 45
2, 58676, Note_on_c, 0, 77, 47
2, 58677, Note_on_c, 0, 86, 42
2, 58721, Note_on_c, 0, 31, 0
2, 58722, Note_on_c, 0, 43, 0
2, 58749, Note_on_c, 0, 74, 0
2, 58750, Note_on_c, 0, 77, 0
2, 58751, Note_on_c, 0, 86, 0
2, 58769, Control_c, 0, 64, 0
2, 58776, Note_on_c, 0, 98, 46
2, 58818, Note_on_c, 0, 55, 42
2, 58819, Note_on_c, 0, 59, 41
2, 58819, Note_on_c, 0, 62, 47
2, 58819, Note_on_c, 0, 65, 41
2, 58822, Note_on_c, 0, 86, 42
2, 58831, Note_on_c, 0, 98, 0
2, 58844, Note_on_c, 0, 62, 0
2, 58844, Note_on_c, 0, 55, 0
2, 58844, Note_on_c, 0, 59, 0
2, 58845, Note_on_c, 0, 65, 0
2, 58894, Note_on_c, 0, 86, 0
2, 58911, Note_on_c, 0, 87, 46
2, 58950, Note_on_c, 0, 87, 0
2, 58953, Note_on_c, 0, 36, 41
2, 58955, Note_on_c, 0, 48, 48
2, 58958, Note_on_c, 0, 76, 42
2, 58958, Note_on_c, 0, 88, 45
2, 58959, Note_on_c, 0, 79, 45
2, 58959, Note_on_c, 0, 84, 48
2, 59004, Note_on_c, 0, 36, 0
2, 59017, Note_on_c, 0, 48, 0
2, 59097, Note_on_c, 0, 52, 47
2, 59097, Note_on_c, 0, 55, 47
2, 59098, Note_on_c, 0, 60, 43
2, 59103, Note_on_c, 0, 76, 0
2, 59104, Note_on_c, 0, 79, 0
2, 59105, Note_on_c, 0, 88, 0
2, 59105, Note_on_c, 0, 84, 0
2, 59124, Note_on_c, 0, 55, 0
2, 59124, Note_on_c, 0, 52, 0
2, 59125, Note_on_c, 0, 60, 0
2, 59196, Note_on_c, 0, 76, 43
2, 59197, Note_on_c, 0, 88, 41
2, 59232, Note_on_c, 0, 76, 0
2, 59234, Note_on_c, 0, 88, 0
2, 59238, Note_on_c, 0, 43, 41
2, 59239, Note_on_c, 0, 55, 48
2, 59241, Note_on_c, 0, 75, 46
2, 59242, Note_on_c, 0, 79, 46
2, 59242, Note_on_c, 0, 84, 43
2, 59242, Note_on_c, 0, 87, 44
2, 59286, Note_on_c, 0, 43, 0
2, 59287, Note_on_c, 0, 55, 0
2, 59323, Note_on_c, 0, 84, 0
2, 59323, Note_on_c, 0, 79, 0
2, 59323, Note_on_c, 0, 75, 0
2, 59324, Note_on_c, 0, 87, 0
2, 59332, Note_on_c, 0, 76, 42
2, 59333, Note_on_c, 0, 88, 44
2, 59371, Note_on_c, 0, 76, 0
2, 59373, Note_on_c, 0, 88, 0
2, 59378, Note_on_c, 0, 52, 44
2, 59378, Note_on_c, 0, 55, 41
2, 59378, Note_on_c, 0, 60, 42
2, 59381, Note_on_c, 0, 79, 42
2, 59382, Note_on_c, 0, 91, 47
2, 59404, Note_on_c, 0, 60, 0
2, 59404, Note_on_c, 0, 55, 0
2, 59405, Note_on_c, 0, 52, 0
2, 59418, Note_on_c, 0, 79, 0
2, 59421, Control_c, 0, 64, 127
2, 59424, Note_on_c, 0, 91, 0
2, 59473, Note_on_c, 0, 84, 42
2, 59473, Note_on_c, 0, 88, 43
2, 59473, Note_on_c, 0, 91, 42
2, 59474, Note_on_c, 0, 96, 45
2, 59510, Note_on_c, 0, 36, 42
2, 59511, Note_on_c, 0, 48, 43
2, 59556, Note_on_c, 0, 36, 0
2, 59558, Note_on_c, 0, 48, 0
2, 59596, Note_on_c, 0, 84, 0
2, 59597, Note_on_c, 0, 91, 0
2, 59600, Control_c, 0, 64, 0
2, 59604, Note_on_c, 0, 83, 45
2, 59608, Note_on_c, 0, 88, 0
2, 59613, Note_on_c, 0, 96, 0
2, 59617, Note_on_c, 0, 95, 47
2, 59642, Note_on_c, 0, 83, 0
2, 59647, Note_on_c, 0, 52, 41
2, 59648, Note_on_c, 0, 55, 46
2, 59649, Note_on_c, 0, 60, 41
2, 59651, Note_on_c, 0, 81, 48
2, 59652, Note_on_c, 0, 84, 44
2, 59652, Note_on_c, 0, 88, 42
2, 59653, Note_on_c, 0, 93, 41
2, 59663, Note_on_c, 0, 95, 0
2, 59674, Note_on_c, 0, 52, 0
2, 59675, Note_on_c, 0, 60, 0
2, 59675, Note_on_c, 0, 55, 0
2, 59736, Note_on_c, 0, 81, 0
2, 59736, Note_on_c, 0, 88, 0
2, 59736, Note_on_c, 0, 84, 0
2, 59737, Note_on_c, 0, 93, 0
2, 59789, Note_on_c, 0, 31, 44
2, 59790, Note_on_c, 0, 43, 45
2, 59794, Note_on_c, 0, 81, 44
2, 59794, Note_on_c, 0, 83, 47
2, 59795, Note_on_c, 0, 87, 42
2, 59796, Note_on_c, 0, 93, 46
2, 59831, Note_on_c, 0, 87, 0
2, 59831, Note_on_c, 0, 83, 0
2, 59831, Note_on_c, 0, 81, 0
2, 59832, Note_on_c, 0, 93, 0
2, 59838, Note_on_c, 0, 31, 0
2, 59838, Note_on_c, 0, 43, 0
2, 59883, Note_on_c, 0, 79, 46
2, 59884, Note_on_c, 0, 84, 42
2, 59885, Note_on_c, 0, 88, 44
2, 59885, Note_on_c, 0, 91, 45
2, 59927, Note_on_c, 0, 52, 48
2, 59927, Note_on_c, 0, 55, 48
2, 59927, Note_on_c, 0, 60, 47
2, 59953, Note_on_c, 0, 55, 0
2, 59953, Note_on_c, 0, 52, 0
2, 59954, Note_on_c, 0, 60, 0
2, 60016, Note_on_c, 0, 88, 0
2, 60016, Note_on_c, 0, 79, 0
2, 60016, Note_on_c, 0, 84, 0
2, 60016, Note_on_c, 0, 91, 0
2, 60071, Note_on_c, 0, 54, 43
2, 60072, Note_on_c, 0, 63, 44
2, 60072, Note_on_c, 0, 69, 43
2, 60073, Note_on_c, 0, 84, 46
2, 60073, Note_on_c, 0, 87, 44
2, 60073, Note_on_c, 0, 90, 44
2, 60074, Note_on_c, 0, 96, 42
2, 60109, Note_on_c, 0, 90, 0
2, 60152, Note_on_c, 0, 84, 0
2, 60152, Note_on_c, 0, 87, 0
2, 60156, Note_on_c, 0, 96, 0
2, 60159, Note_on_c, 0, 78, 48
2, 60160, Note_on_c, 0, 90, 48
2, 60193, Note_on_c, 0, 54, 0
2, 60194, Note_on_c, 0, 63, 0
2, 60194, Note_on_c, 0, 69, 0
2, 60195, Note_on_c, 0, 78, 0
2, 60196, Note_on_c, 0, 90, 0
2, 60203, Note_on_c, 0, 52, 45
2, 60205, Note_on_c, 0, 61, 44
2, 60205, Note_on_c, 0, 67, 44
2, 60206, Note_on_c, 0, 79, 41
2, 60208, Note_on_c, 0, 91, 45
2, 60243, Note_on_c, 0, 91, 0
2, 60243, Note_on_c, 0, 79, 0
2, 60296, Note_on_c, 0, 83, 46
2, 60297, Note_on_c, 0, 87, 48
2, 60297, Note_on_c, 0, 90, 41
2, 60297, Note_on_c, 0, 95, 47
2, 60330, Note_on_c, 0, 52, 0
2, 60331, Note_on_c, 0, 61, 0
2, 60331, Note_on_c, 0, 67, 0
2, 60336, Note_on_c, 0, 51, 43
2, 60337, Note_on_c, 0, 59, 43
2, 60338, Note_on_c, 0, 66, 41
2, 60418, Note_on_c, 0, 51, 0
2, 60419, Note_on_c, 0, 59, 0
2, 60420, Note_on_c, 0, 66, 0
2, 60422, Note_on_c, 0, 83, 0
2, 60422, Note_on_c, 0, 87, 0
2, 60423, Note_on_c, 0, 90, 0
2, 60423, Note_on_c, 0, 95, 0
2, 60431, Note_on_c, 0, 84, 43
2, 60432, Note_on_c, 0, 96, 45
2, 60468, Note_on_c, 0, 84, 0
2, 60473, Note_on_c, 0, 59, 47
2, 60473, Note_on_c, 0, 63, 45
2, 60473, Note_on_c, 0, 66, 46
2, 60474, Note_on_c, 0, 69, 47
2, 60475, Note_on_c, 0, 83, 47
2, 60476, Note_on_c, 0, 87, 48
2, 60476, Note_on_c, 0, 90, 41
2, 60477, Note_on_c, 0, 95, 41
2, 60480, Note_on_c, 0, 96, 0
2, 60497, Note_on_c, 0, 59, 0
2, 60498, Note_on_c, 0, 66, 0
2, 60498, Note_on_c, 0, 63, 0
2, 60499, Note_on_c, 0, 69, 0
2, 60557, Note_on_c, 0, 95, 0
2, 60602, Note_on_c, 0, 83, 0
2, 60602, Note_on_c, 0, 87, 0
2, 60602, Note_on_c, 0, 90, 0
2, 60607, Note_on_c, 0, 52, 43
2, 60607, Note_on_c, 0, 59, 43
2, 60609, Note_on_c, 0, 67, 46
2, 60611, Note_on_c, 0, 88, 47
2, 60612, Note_on_c, 0, 91, 43
2, 60612, Note_on_c, 0, 95, 43
2, 60613, Note_on_c, 0, 100, 46
2, 60694, Note_on_c, 0, 91, 0
2, 60694, Note_on_c, 0, 88, 0
2, 60695, Note_on_c, 0, 95, 0
2, 60699, Note_on_c, 0, 82, 45
2, 60700, Note_on_c, 0, 94, 45
2, 60705, Note_on_c, 0, 100, 0
2, 60734, Note_on_c, 0, 52, 0
2, 60735, Note_on_c, 0, 59, 0
2, 60736, Note_on_c, 0, 67, 0
2, 60737, Note_on_c, 0, 82, 0
2, 60738, Note_on_c, 0, 94, 0
2, 60742, Note_on_c, 0, 83, 46
2, 60744, Note_on_c, 0, 51, 48
2, 60744, Note_on_c, 0, 60, 46
2, 60744, Note_on_c, 0, 66, 45
2, 60747, Note_on_c, 0, 95, 44
2, 60783, Note_on_c, 0, 83, 0
2, 60784, Note_on_c, 0, 95, 0
2, 60837, Note_on_c, 0, 81, 47
2, 60837, Note_on_c, 0, 83, 46
2, 60838, Note_on_c, 0, 86, 42
2, 60838, Note_on_c, 0, 89, 47
2, 60838, Note_on_c, 0, 93, 45
2, 60863, Note_on_c, 0, 51, 0
2, 60863, Note_on_c, 0, 60, 0
2, 60864, Note_on_c, 0, 66, 0
2, 60870, Note_on_c, 0, 50, 41
2, 60883, Note_on_c, 0, 59, 48
2, 60883, Note_on_c, 0, 65, 48
2, 60968, Note_on_c, 0, 50, 0
2, 60969, Note_on_c, 0, 65, 0
2, 60969, Note_on_c, 0, 59, 0
2, 60971, Note_on_c, 0, 81, 0
2, 60971, Note_on_c, 0, 83, 0
2, 60971, Note_on_c, 0, 89, 0
2, 60971, Note_on_c, 0, 86, 0
2, 60971, Note_on_c, 0, 93, 0
2, 60980, Note_on_c, 0, 79, 47
2, 60981, Note_on_c, 0, 91, 48
2, 61019, Note_on_c, 0, 79, 0
2, 61020, Note_on_c, 0, 91, 0
2, 61025, Note_on_c, 0, 43, 45
2, 61026, Note_on_c, 0, 55, 44
2, 61028, Note_on_c, 0, 74, 46
2, 61029, Note_on_c, 0, 86, 46
2, 61099, Note_on_c, 0, 74, 0
2, 61101, Note_on_c, 0, 86, 0
2, 61119, Note_on_c, 0, 75, 47
2, 61120, Note_on_c, 0, 87, 48
2, 61153, Note_on_c, 0, 43, 0
2, 61154, Note_on_c, 0, 55, 0
2, 61157, Note_on_c, 0, 75, 0
2, 61158, Note_on_c, 0, 87, 0
2, 61162, Note_on_c, 0, 36, 45
2, 61164, Note_on_c, 0, 48, 44
2, 61167, Note_on_c, 0, 76, 47
2, 61167, Note_on_c, 0, 79, 42
2, 61168, Note_on_c, 0, 84, 46
2, 61168, Note_on_c, 0, 88, 41
2, 61213, Note_on_c, 0, 36, 0
2, 61214, Note_on_c, 0, 48, 0
2, 61297, Note_on_c, 0, 76, 0
2, 61298, Note_on_c, 0, 79, 0
2, 61298, Note_on_c, 0, 88, 0
2, 61303, Note_on_c, 0, 52, 44
2, 61304, Note_on_c, 0, 55, 41
2, 61305, Note_on_c, 0, 60, 48
2, 61314, Note_on_c, 0, 84, 0
2, 61328, Note_on_c, 0, 52, 0
2, 61329, Note_on_c, 0, 55, 0
2, 61330, Note_on_c, 0, 60, 0
2, 61398, Note_on_c, 0, 76, 43
2, 61399, Note_on_c, 0, 88, 43
2, 61433, Note_on_c, 0, 76, 0
2, 61434, Note_on_c, 0, 88, 0
2, 61440, Note_on_c, 0, 43, 45
2, 61441, Note_on_c, 0, 55, 42
2, 61444, Note_on_c, 0, 75, 44
2, 61444, Note_on_c, 0, 79, 42
2, 61444, Note_on_c, 0, 84, 43
2, 61445, Note_on_c, 0, 87, 42
2, 61490, Note_on_c, 0, 43, 0
2, 61491, Note_on_c, 0, 55, 0
2, 61528, Note_on_c, 0, 75, 0
2, 61529, Note_on_c, 0, 79, 0
2, 61529, Note_on_c, 0, 84, 0
2, 61530, Note_on_c, 0, 87, 0
2, 61538, Note_on_c, 0, 76, 47
2, 61539, Note_on_c, 0, 88, 43
2, 61578, Note_on_c, 0, 76, 0
2, 61579, Note_on_c, 0, 88, 0
2, 61584, Note_on_c, 0, 52, 45
2, 61584, Note_on_c, 0, 55, 41
2, 61585, Note_on_c, 0, 60, 42
2, 61587, Note_on_c, 0, 79, 47
2, 61588, Note_on_c, 0, 91, 47
2, 61611, Note_on_c, 0, 52, 0
2, 61612, Note_on_c, 0, 55, 0
2, 61613, Note_on_c, 0, 60, 0
2, 61627, Note_on_c, 0, 79, 0
2, 61628, Note_on_c, 0, 91, 0
2, 61631, Control_c, 0, 64, 127
2, 61682, Note_on_c, 0, 84, 42
2, 61683, Note_on_c, 0, 88, 48
2, 61683, Note_on_c, 0, 91, 48
2, 61684, Note_on_c, 0, 96, 48
2, 61723, Note_on_c, 0, 36, 44
2, 61725, Note_on_c, 0, 48, 46
2, 61772, Note_on_c, 0, 36, 0
2, 61773, Note_on_c, 0, 48, 0
2, 61781, Control_c, 0, 64, 0
2, 61799, Note_on_c, 0, 84, 0
2, 61813, Note_on_c, 0, 88, 0
2, 61814, Note_on_c, 0, 91, 0
2, 61814, Note_on_c, 0, 96, 0
2, 61818, Note_on_c, 0, 83, 44
2, 61819, Note_on_c, 0, 95, 41
2, 61857, Note_on_c, 0, 83, 0
2, 61862, Note_on_c, 0, 95, 0
2, 61862, Note_on_c, 0, 52, 44
2, 61863, Note_on_c, 0, 55, 41
2, 61863, Note_on_c, 0, 60, 46
2, 61865, Note_on_c, 0, 81, 48
2, 61866, Note_on_c, 0, 84, 47
2, 61866, Note_on_c, 0, 88, 47
2, 61866, Note_on_c, 0, 93, 43
2, 61888, Note_on_c, 0, 52, 0
2, 61889, Note_on_c, 0, 55, 0
2, 61889, Note_on_c, 0, 60, 0
2, 61947, Note_on_c, 0, 84, 0
2, 61947, Note_on_c, 0, 81, 0
2, 61947, Note_on_c, 0, 88, 0
2, 61947, Note_on_c, 0, 93, 0
2, 61995, Note_on_c, 0, 43, 46
2, 61997, Note_on_c, 0, 31, 45
2, 62002, Note_on_c, 0, 81, 46
2, 62002, Note_on_c, 0, 83, 45
2, 62002, Note_on_c, 0, 87, 44
2, 62003, Note_on_c, 0, 93, 46
2, 62039, Note_on_c, 0, 87, 0
2, 62039, Note_on_c, 0, 83, 0
2, 62039, Note_on_c, 0, 81, 0
2, 62040, Note_on_c, 0, 93, 0
2, 62047, Note_on_c, 0, 43, 0
2, 62047, Note_on_c, 0, 31, 0
2, 62093, Note_on_c, 0, 79, 42
2, 62093, Note_on_c, 0, 88, 43
2, 62094, Note_on_c, 0, 84, 43
2, 62095, Note_on_c, 0, 91, 41
2, 62136, Note_on_c, 0, 52, 45
2, 62136, Note_on_c, 0, 55, 43
2, 62137, Note_on_c, 0, 60, 44
2, 62162, Note_on_c, 0, 55, 0
2, 62162, Note_on_c, 0, 52, 0
2, 62163, Note_on_c, 0, 60, 0
2, 62223, Note_on_c, 0, 79, 0
2, 62224, Note_on_c, 0, 88, 0
2, 62224, Note_on_c, 0, 84, 0
2, 62224, Note_on_c, 0, 91, 0
2, 62278, Note_on_c, 0, 47, 41
2, 62279, Note_on_c, 0, 56, 43
2, 62280, Note_on_c, 0, 62, 42
2, 62282, Note_on_c, 0, 88, 42
2, 62283, Note_on_c, 0, 92, 41
2, 62283, Note_on_c, 0, 95, 41
2, 62284, Note_on_c, 0, 100, 41
2, 62356, Note_on_c, 0, 56, 0
2, 62356, Note_on_c, 0, 47, 0
2, 62357, Note_on_c, 0, 62, 0
2, 62360, Note_on_c, 0, 92, 0
2, 62360, Note_on_c, 0, 88, 0
2, 62360, Note_on_c, 0, 95, 0
2, 62361, Note_on_c, 0, 100, 0
2, 62409, Note_on_c, 0, 40, 48
2, 62409, Note_on_c, 0, 47, 46
2, 62410, Note_on_c, 0, 56, 46
2, 62413, Note_on_c, 0, 88, 43
2, 62414, Note_on_c, 0, 92, 48
2, 62414, Note_on_c, 0, 95, 44
2, 62415, Note_on_c, 0, 100, 48
2, 62450, Note_on_c, 0, 88, 0
2, 62451, Note_on_c, 0, 95, 0
2, 62451, Note_on_c, 0, 92, 0
2, 62451, Note_on_c, 0, 100, 0
2, 62508, Note_on_c, 0, 86, 43
2, 62509, Note_on_c, 0, 93, 48
2, 62520, Note_on_c, 0, 40, 0
2, 62520, Note_on_c, 0, 90, 46
2, 62520, Note_on_c, 0, 98, 48
2, 62531, Note_on_c, 0, 47, 0
2, 62532, Note_on_c, 0, 56, 0
2, 62540, Note_on_c, 0, 50, 44
2, 62550, Note_on_c, 0, 42, 45
2, 62551, Note_on_c, 0, 57, 45
2, 62635, Note_on_c, 0, 93, 0
2, 62635, Note_on_c, 0, 90, 0
2, 62635, Note_on_c, 0, 86, 0
2, 62637, Note_on_c, 0, 98, 0
2, 62642, Note_on_c, 0, 88, 42
2, 62643, Note_on_c, 0, 100, 47
2, 62676, Note_on_c, 0, 42, 0
2, 62676, Note_on_c, 0, 50, 0
2, 62677, Note_on_c, 0, 57, 0
2, 62680, Note_on_c, 0, 88, 0
2, 62681, Note_on_c, 0, 100, 0
2, 62685, Note_on_c, 0, 44, 47
2, 62686, Note_on_c, 0, 52, 41
2, 62686, Note_on_c, 0, 59, 44
2, 62688, Note_on_c, 0, 86, 45
2, 62688, Note_on_c, 0, 92, 44
2, 62689, Note_on_c, 0, 95, 46
2, 62689, Note_on_c, 0, 98, 45
2, 62763, Note_on_c, 0, 52, 0
2, 62807, Note_on_c, 0, 44, 0
2, 62808, Note_on_c, 0, 59, 0
2, 62810, Note_on_c, 0, 92, 0
2, 62810, Note_on_c, 0, 95, 0
2, 62811, Note_on_c, 0, 98, 0
2, 62814, Note_on_c, 0, 45, 48
2, 62815, Note_on_c, 0, 52, 45
2, 62816, Note_on_c, 0, 60, 47
2, 62818, Note_on_c, 0, 84, 43
2, 62818, Note_on_c, 0, 88, 48
2, 62818, Note_on_c, 0, 93, 46
2, 62820, Note_on_c, 0, 96, 43
2, 62823, Note_on_c, 0, 86, 0
2, 62852, Note_on_c, 0, 45, 0
2, 62852, Note_on_c, 0, 52, 0
2, 62853, Note_on_c, 0, 60, 0
2, 62856, Note_on_c, 0, 84, 0
2, 62856, Note_on_c, 0, 96, 0
2, 62856, Note_on_c, 0, 93, 0
2, 62856, Note_on_c, 0, 88, 0
2, 62907, Note_on_c, 0, 76, 47
2, 62910, Note_on_c, 0, 100, 48
2, 62941, Note_on_c, 0, 76, 0
2, 62944, Note_on_c, 0, 100, 0
2, 62949, Note_on_c, 0, 72, 47
2, 62952, Note_on_c, 0, 96, 43
2, 63026, Note_on_c, 0, 72, 0
2, 63033, Note_on_c, 0, 96, 0
2, 63035, Note_on_c, 0, 69, 47
2, 63038, Note_on_c, 0, 93, 44
2, 63068, Note_on_c, 0, 64, 45
2, 63071, Note_on_c, 0, 69, 0
2, 63077, Note_on_c, 0, 93, 0
2, 63082, Note_on_c, 0, 88, 48
2, 63159, Note_on_c, 0, 64, 0
2, 63162, Note_on_c, 0, 88, 0
2, 63169, Note_on_c, 0, 60, 47
2, 63172, Note_on_c, 0, 84, 47
2, 63204, Note_on_c, 0, 60, 0
2, 63207, Note_on_c, 0, 84, 0
2, 63213, Note_on_c, 0, 57, 41
2, 63216, Note_on_c, 0, 81, 42
2, 63287, Control_c, 0, 64, 127
2, 63293, Note_on_c, 0, 57, 0
2, 63296, Note_on_c, 0, 81, 0
2, 63301, Note_on_c, 0, 52, 43
2, 63304, Note_on_c, 0, 76, 42
2, 63340, Note_on_c, 0, 52, 0
2, 63343, Note_on_c, 0, 76, 0
2, 63347, Note_on_c, 0, 38, 45
2, 63348, Note_on_c, 0, 50, 44
2, 63351, Note_on_c, 0, 77, 46
2, 63351, Note_on_c, 0, 81, 47
2, 63352, Note_on_c, 0, 86, 48
2, 63352, Note_on_c, 0, 89, 41
2, 63399, Note_on_c, 0, 38, 0
2, 63400, Note_on_c, 0, 50, 0
2, 63426, Control_c, 0, 64, 0
2, 63439, Note_on_c, 0, 81, 0
2, 63439, Note_on_c, 0, 77, 0
2, 63440, Note_on_c, 0, 89, 0
2, 63453, Note_on_c, 0, 86, 0
2, 63494, Note_on_c, 0, 57, 42
2, 63496, Note_on_c, 0, 53, 44
2, 63498, Note_on_c, 0, 62, 45
2, 63499, Note_on_c, 0, 79, 42
2, 63500, Note_on_c, 0, 91, 45
2, 63523, Note_on_c, 0, 53, 0
2, 63523, Note_on_c, 0, 57, 0
2, 63524, Note_on_c, 0, 62, 0
2, 63538, Note_on_c, 0, 79, 0
2, 63544, Note_on_c, 0, 91, 0
2, 63594, Note_on_c, 0, 81, 48
2, 63594, Note_on_c, 0, 86, 42
2, 63595, Note_on_c, 0, 89, 48
2, 63596, Note_on_c, 0, 93, 43
2, 63637, Note_on_c, 0, 41, 44
2, 63638, Note_on_c, 0, 53, 41
2, 63686, Note_on_c, 0, 41, 0
2, 63687, Note_on_c, 0, 53, 0
2, 63714, Note_on_c, 0, 81, 0
2, 63726, Note_on_c, 0, 93, 0
2, 63726, Note_on_c, 0, 89, 0
2, 63734, Note_on_c, 0, 83, 46
2, 63736, Note_on_c, 0, 95, 43
2, 63739, Note_on_c, 0, 86, 0
2, 63772, Note_on_c, 0, 83, 0
2, 63776, Note_on_c, 0, 53, 48
2, 63777, Note_on_c, 0, 57, 43
2, 63777, Note_on_c, 0, 62, 47
2, 63780, Note_on_c, 0, 84, 41
2, 63782, Note_on_c, 0, 96, 42
2, 63785, Note_on_c, 0, 95, 0
2, 63802, Note_on_c, 0, 53, 0
2, 63803, Note_on_c, 0, 57, 0
2, 63804, Note_on_c, 0, 62, 0
2, 63818, Control_c, 0, 64, 127
2, 63862, Note_on_c, 0, 84, 0
2, 63876, Note_on_c, 0, 96, 0
2, 63910, Note_on_c, 0, 42, 43
2, 63911, Note_on_c, 0, 54, 44
2, 63913, Note_on_c, 0, 81, 42
2, 63913, Note_on_c, 0, 87, 43
2, 63914, Note_on_c, 0, 90, 44
2, 63914, Note_on_c, 0, 93, 44
2, 63956, Note_on_c, 0, 42, 0
2, 63958, Note_on_c, 0, 54, 0
2, 63964, Control_c, 0, 64, 0
2, 64047, Note_on_c, 0, 57, 45
2, 64047, Note_on_c, 0, 60, 42
2, 64048, Note_on_c, 0, 63, 47
2, 64048, Note_on_c, 0, 66, 45
2, 64072, Note_on_c, 0, 57, 0
2, 64073, Note_on_c, 0, 66, 0
2, 64073, Note_on_c, 0, 60, 0
2, 64073, Note_on_c, 0, 63, 0
2, 64086, Note_on_c, 0, 81, 0
2, 64087, Note_on_c, 0, 87, 0
2, 64087, Note_on_c, 0, 90, 0
2, 64087, Note_on_c, 0, 93, 0
2, 64140, Note_on_c, 0, 79, 46
2, 64140, Note_on_c, 0, 84, 44
2, 64141, Note_on_c, 0, 88, 41
2, 64141, Note_on_c, 0, 91, 41
2, 64180, Note_on_c, 0, 43, 44
2, 64181, Note_on_c, 0, 55, 48
2, 64228, Note_on_c, 0, 43, 0
2, 64229, Note_on_c, 0, 55, 0
2, 64319, Note_on_c, 0, 55, 46
2, 64319, Note_on_c, 0, 60, 47
2, 64319, Note_on_c, 0, 64, 46
2, 64344, Note_on_c, 0, 55, 0
2, 64345, Note_on_c, 0, 60, 0
2, 64345, Note_on_c, 0, 64, 0
2, 64405, Note_on_c, 0, 79, 0
2, 64406, Note_on_c, 0, 84, 0
2, 64406, Note_on_c, 0, 88, 0
2, 64406, Note_on_c, 0, 91, 0
2, 64460, Note_on_c, 0, 43, 43
2, 64461, Note_on_c, 0, 55, 44
2, 64464, Note_on_c, 0, 81, 46
2, 64464, Note_on_c, 0, 83, 41
2, 64464, Note_on_c, 0, 86, 45
2, 64464, Note_on_c, 0, 89, 46
2, 64464, Note_on_c, 0, 93, 48
2, 64501, Note_on_c, 0, 86, 0
2, 64501, Note_on_c, 0, 83, 0
2, 64501, Note_on_c, 0, 81, 0
2, 64502, Note_on_c, 0, 89, 0
2, 64502, Note_on_c, 0, 93, 0
2, 64553, Note_on_c, 0, 79, 42
2, 64554, Note_on_c, 0, 83, 47
2, 64554, Note_on_c, 0, 86, 46
2, 64555, Note_on_c, 0, 91, 47
2, 64576, Note_on_c, 0, 43, 0
2, 64577, Note_on_c, 0, 55, 0
2, 64597, Note_on_c, 0, 45, 45
2, 64598, Note_on_c, 0, 57, 46
2, 64639, Note_on_c, 0, 86, 0
2, 64639, Note_on_c, 0, 83, 0
2, 64639, Note_on_c, 0, 79, 0
2, 64640, Note_on_c, 0, 91, 0
2, 64696, Note_on_c, 0, 79, 46
2, 64696, Note_on_c, 0, 83, 45
2, 64697, Note_on_c, 0, 86, 46
2, 64697, Note_on_c, 0, 89, 41
2, 64697, Note_on_c, 0, 91, 47
2, 64731, Note_on_c, 0, 57, 0
2, 64734, Note_on_c, 0, 45, 0
2, 64737, Note_on_c, 0, 47, 48
2, 64739, Note_on_c, 0, 59, 43
2, 64823, Note_on_c, 0, 83, 0
2, 64823, Note_on_c, 0, 79, 0
2, 64824, Note_on_c, 0, 89, 0
2, 64824, Note_on_c, 0, 86, 0
2, 64824, Note_on_c, 0, 91, 0
2, 64829, Note_on_c, 0, 81, 44
2, 64830, Note_on_c, 0, 93, 41
2, 64852, Note_on_c, 0, 47, 0
2, 64854, Note_on_c, 0, 59, 0
2, 64868, Note_on_c, 0, 81, 0
2, 64870, Note_on_c, 0, 93, 0
2, 64872, Note_on_c, 0, 43, 42
2, 64874, Note_on_c, 0, 55, 44
2, 64877, Note_on_c, 0, 79, 48
2, 64877, Note_on_c, 0, 83, 46
2, 64878, Note_on_c, 0, 86, 47
2, 64878, Note_on_c, 0, 89, 48
2, 64878, Note_on_c, 0, 91, 42
2, 64955, Note_on_c, 0, 43, 0
2, 64957, Note_on_c, 0, 55, 0
2, 64960, Note_on_c, 0, 79, 0
2, 64961, Note_on_c, 0, 83, 0
2, 64962, Note_on_c, 0, 91, 0
2, 64962, Note_on_c, 0, 89, 0
2, 64977, Note_on_c, 0, 86, 0
2, 65015, Note_on_c, 0, 48, 44
2, 65016, Note_on_c, 0, 60, 47
2, 65018, Note_on_c, 0, 84, 41
2, 65019, Note_on_c, 0, 88, 42
2, 65019, Note_on_c, 0, 91, 44
2, 65020, Note_on_c, 0, 96, 46
2, 65064, Note_on_c, 0, 60, 0
2, 65064, Note_on_c, 0, 48, 0
2, 65066, Note_on_c, 0, 84, 0
2, 65067, Note_on_c, 0, 88, 0
2, 65067, Note_on_c, 0, 91, 0
2, 65067, Note_on_c, 0, 96, 0
2, 65153, Note_on_c, 0, 55, 42
2, 65155, Note_on_c, 0, 67, 41
2, 65155, Note_on_c, 0, 79, 44
2, 65187, Note_on_c, 0, 55, 0
2, 65188, Note_on_c, 0, 67, 0
2, 65189, Note_on_c, 0, 79, 0
2, 65287, Note_on_c, 0, 55, 48
2, 65288, Note_on_c, 0, 67, 44
2, 65288, Note_on_c, 0, 79, 45
2, 65333, Note_on_c, 0, 55, 0
2, 65334, Note_on_c, 0, 67, 0
2, 65336, Note_on_c, 0, 79, 0
2, 65421, Note_on_c, 0, 67, 48
2, 65421, Note_on_c, 0, 70, 41
2, 65422, Note_on_c, 0, 73, 43
2, 65422, Note_on_c, 0, 76, 47
2, 65423, Note_on_c, 0, 79, 42
2, 65429, Note_on_c, 0, 46, 45
2, 65431, Note_on_c, 0, 58, 46
2, 65467, Note_on_c, 0, 70, 0
2, 65468, Note_on_c, 0, 76, 0
2, 65468, Note_on_c, 0, 73, 0
2, 65469, Note_on_c, 0, 79, 0
2, 65477, Note_on_c, 0, 67, 0
2, 65543, Note_on_c, 0, 46, 0
2, 65544, Note_on_c, 0, 58, 0
2, 65551, Note_on_c, 0, 47, 43
2, 65553, Note_on_c, 0, 59, 47
2, 65554, Note_on_c, 0, 67, 42
2, 65554, Note_on_c, 0, 71, 45
2, 65554, Note_on_c, 0, 74, 48
2, 65555, Note_on_c, 0, 79, 47
2, 65556, Note_on_c, 0, 77, 43
2, 65589, Note_on_c, 0, 47, 0
2, 65590, Note_on_c, 0, 59, 0
2, 65591, Note_on_c, 0, 67, 0
2, 65592, Note_on_c, 0, 74, 0
2, 65592, Note_on_c, 0, 71, 0
2, 65592, Note_on_c, 0, 79, 0
2, 65592, Note_on_c, 0, 77, 0
2, 65630, Control_c, 0, 64, 127
2, 65650, Note_on_c, 0, 77, 46
2, 65672, Note_on_c, 0, 74, 41
2, 65675, Note_on_c, 0, 77, 0
2, 65684, Note_on_c, 0, 71, 46
2, 65692, Note_on_c, 0, 55, 44
2, 65693, Note_on_c, 0, 59, 47
2, 65694, Note_on_c, 0, 62, 48
2, 65694, Note_on_c, 0, 65, 43
2, 65694, Note_on_c, 0, 67, 41
2, 65698, Note_on_c, 0, 74, 0
2, 65718, Note_on_c, 0, 55, 0
2, 65719, Note_on_c, 0, 59, 0
2, 65720, Note_on_c, 0, 62, 0
2, 65720, Note_on_c, 0, 65, 0
2, 65732, Note_on_c, 0, 67, 0
2, 65733, Note_on_c, 0, 71, 0
2, 65748, Control_c, 0, 64, 0
2, 65785, Note_on_c, 0, 67, 45
2, 65786, Note_on_c, 0, 71, 43
2, 65786, Note_on_c, 0, 74, 41
2, 65831, Note_on_c, 0, 43, 48
2, 65832, Note_on_c, 0, 55, 45
2, 65908, Note_on_c, 0, 67, 0
2, 65922, Note_on_c, 0, 71, 0
2, 65922, Note_on_c, 0, 74, 0
2, 65930, Note_on_c, 0, 79, 41
2, 65966, Note_on_c, 0, 43, 0
2, 65968, Note_on_c, 0, 55, 0
2, 65971, Note_on_c, 0, 79, 0
2, 65976, Note_on_c, 0, 41, 48
2, 65977, Note_on_c, 0, 53, 43
2, 65977, Note_on_c, 0, 67, 41
2, 65978, Note_on_c, 0, 71, 42
2, 65979, Note_on_c, 0, 74, 45
2, 66028, Note_on_c, 0, 67, 0
2, 66029, Note_on_c, 0, 71, 0
2, 66029, Note_on_c, 0, 74, 0
2, 66110, Note_on_c, 0, 53, 0
2, 66119, Note_on_c, 0, 52, 45
2, 66120, Note_on_c, 0, 67, 46
2, 66121, Note_on_c, 0, 41, 0
2, 66121, Note_on_c, 0, 76, 42
2, 66122, Note_on_c, 0, 79, 41
2, 66133, Note_on_c, 0, 72, 47
2, 66157, Note_on_c, 0, 52, 0
2, 66159, Note_on_c, 0, 72, 0
2, 66160, Note_on_c, 0, 76, 0
2, 66161, Note_on_c, 0, 79, 0
2, 66169, Note_on_c, 0, 67, 0
2, 66214, Note_on_c, 0, 79, 47
2, 66238, Note_on_c, 0, 76, 41
2, 66258, Note_on_c, 0, 55, 45
2, 66258, Note_on_c, 0, 60, 43
2, 66258, Note_on_c, 0, 64, 47
2, 66259, Note_on_c, 0, 67, 44
2, 66260, Note_on_c, 0, 72, 46
2, 66285, Note_on_c, 0, 55, 0
2, 66286, Note_on_c, 0, 64, 0
2, 66286, Note_on_c, 0, 60, 0
2, 66297, Note_on_c, 0, 67, 0
2, 66298, Note_on_c, 0, 76, 0
2, 66299, Note_on_c, 0, 79, 0
2, 66310, Note_on_c, 0, 72, 0
2, 66350, Note_on_c, 0, 67, 43
2, 66351, Note_on_c, 0, 72, 46
2, 66352, Note_on_c, 0, 76, 44
2, 66352, Note_on_c, 0, 79, 47
2, 66393, Note_on_c, 0, 52, 46
2, 66395, Note_on_c, 0, 64, 45
2, 66432, Note_on_c, 0, 67, 0
2, 66433, Note_on_c, 0, 79, 0
2, 66469, Note_on_c, 0, 76, 0
2, 66480, Note_on_c, 0, 72, 0
2, 66488, Note_on_c, 0, 67, 44
2, 66490, Note_on_c, 0, 79, 42
2, 66522, Note_on_c, 0, 50, 43
2, 66525, Note_on_c, 0, 52, 0
2, 66526, Note_on_c, 0, 64, 0
2, 66526, Note_on_c, 0, 67, 0
2, 66528, Note_on_c, 0, 79, 0
2, 66535, Note_on_c, 0, 62, 43
2, 66536, Note_on_c, 0, 68, 48
2, 66536, Note_on_c, 0, 74, 42
2, 66536, Note_on_c, 0, 76, 41
2, 66537, Note_on_c, 0, 80, 45
2, 66619, Note_on_c, 0, 76, 0
2, 66661, Note_on_c, 0, 50, 0
2, 66663, Note_on_c, 0, 62, 0
2, 66663, Note_on_c, 0, 68, 0
2, 66664, Note_on_c, 0, 74, 0
2, 66665, Note_on_c, 0, 80, 0
2, 66670, Note_on_c, 0, 49, 46
2, 66672, Note_on_c, 0, 61, 46
2, 66672, Note_on_c, 0, 69, 45
2, 66673, Note_on_c, 0, 73, 48
2, 66673, Note_on_c, 0, 76, 46
2, 66674, Note_on_c, 0, 81, 45
2, 66707, Note_on_c, 0, 49, 0
2, 66708, Note_on_c, 0, 61, 0
2, 66709, Note_on_c, 0, 76, 0
2, 66709, Note_on_c, 0, 73, 0
2, 66709, Note_on_c, 0, 69, 0
2, 66710, Note_on_c, 0, 81, 0
2, 66765, Note_on_c, 0, 79, 48
2, 66788, Note_on_c, 0, 76, 42
2, 66798, Note_on_c, 0, 73, 43
2, 66808, Note_on_c, 0, 52, 41
2, 66808, Note_on_c, 0, 55, 44
2, 66809, Note_on_c, 0, 57, 41
2, 66809, Note_on_c, 0, 61, 46
2, 66810, Note_on_c, 0, 69, 42
2, 66834, Note_on_c, 0, 52, 0
2, 66835, Note_on_c, 0, 55, 0
2, 66835, Note_on_c, 0, 57, 0
2, 66836, Note_on_c, 0, 61, 0
2, 66849, Note_on_c, 0, 73, 0
2, 66849, Note_on_c, 0, 69, 0
2, 66849, Note_on_c, 0, 76, 0
2, 66850, Note_on_c, 0, 79, 0
2, 66906, Note_on_c, 0, 69, 41
2, 66906, Note_on_c, 0, 73, 45
2, 66907, Note_on_c, 0, 76, 41
2, 66950, Note_on_c, 0, 45, 42
2, 66951, Note_on_c, 0, 57, 47
2, 67021, Note_on_c, 0, 76, 0
2, 67021, Note_on_c, 0, 69, 0
2, 67021, Note_on_c, 0, 73, 0
2, 67041, Note_on_c, 0, 81, 43
2, 67074, Note_on_c, 0, 45, 0
2, 67076, Note_on_c, 0, 57, 0
2, 67079, Note_on_c, 0, 81, 0
2, 67083, Note_on_c, 0, 43, 43
2, 67084, Note_on_c, 0, 55, 47
2, 67086, Note_on_c, 0, 69, 46
2, 67086, Note_on_c, 0, 73, 45
2, 67087, Note_on_c, 0, 76, 43
2, 67135, Note_on_c, 0, 69, 0
2, 67136, Note_on_c, 0, 73, 0
2, 67136, Note_on_c, 0, 76, 0
2, 67215, Note_on_c, 0, 43, 0
2, 67217, Note_on_c, 0, 55, 0
2, 67222, Note_on_c, 0, 41, 41
2, 67224, Note_on_c, 0, 53, 47
2, 67225, Note_on_c, 0, 69, 42
2, 67226, Note_on_c, 0, 74, 44
2, 67227, Note_on_c, 0, 77, 47
2, 67227, Note_on_c, 0, 81, 47
2, 67260, Note_on_c, 0, 41, 0
2, 67261, Note_on_c, 0, 53, 0
2, 67264, Note_on_c, 0, 74, 0
2, 67264, Note_on_c, 0, 69, 0
2, 67265, Note_on_c, 0, 81, 0
2, 67265, Note_on_c, 0, 77, 0
2, 67320, Note_on_c, 0, 81, 45
2, 67342, Note_on_c, 0, 77, 43
2, 67352, Note_on_c, 0, 74, 41
2, 67361, Note_on_c, 0, 53, 42
2, 67362, Note_on_c, 0, 57, 44
2, 67363, Note_on_c, 0, 62, 45
2, 67363, Note_on_c, 0, 69, 41
2, 67387, Note_on_c, 0, 53, 0
2, 67388, Note_on_c, 0, 57, 0
2, 67389, Note_on_c, 0, 62, 0
2, 67400, Note_on_c, 0, 74, 0
2, 67400, Note_on_c, 0, 69, 0
2, 67401, Note_on_c, 0, 77, 0
2, 67401, Note_on_c, 0, 81, 0
2, 67451, Note_on_c, 0, 74, 44
2, 67454, Note_on_c, 0, 69, 41
2, 67455, Note_on_c, 0, 77, 47
2, 67456, Note_on_c, 0, 81, 48
2, 67500, Note_on_c, 0, 50, 47
2, 67500, Note_on_c, 0, 62, 47
2, 67540, Note_on_c, 0, 69, 0
2, 67541, Note_on_c, 0, 81, 0
2, 67583, Note_on_c, 0, 50, 0
2, 67584, Note_on_c, 0, 74, 0
2, 67584, Note_on_c, 0, 62, 0
2, 67585, Note_on_c, 0, 77, 0
2, 67594, Note_on_c, 0, 69, 42
2, 67632, Note_on_c, 0, 69, 0
2, 67638, Note_on_c, 0, 49, 47
2, 67639, Note_on_c, 0, 61, 45
2, 67640, Note_on_c, 0, 70, 44
2, 67640, Note_on_c, 0, 73, 48
2, 67641, Note_on_c, 0, 76, 44
2, 67641, Note_on_c, 0, 81, 47
2, 67721, Note_on_c, 0, 81, 0
2, 67763, Note_on_c, 0, 61, 0
2, 67764, Note_on_c, 0, 73, 0
2, 67764, Note_on_c, 0, 76, 0
2, 67764, Note_on_c, 0, 70, 0
2, 67769, Note_on_c, 0, 50, 44
2, 67770, Note_on_c, 0, 62, 44
2, 67771, Note_on_c, 0, 69, 43
2, 67771, Note_on_c, 0, 71, 44
2, 67771, Note_on_c, 0, 74, 47
2, 67772, Note_on_c, 0, 77, 43
2, 67773, Note_on_c, 0, 81, 44
2, 67774, Note_on_c, 0, 49, 0
2, 67816, Note_on_c, 0, 50, 0
2, 67818, Note_on_c, 0, 62, 0
2, 67819, Note_on_c, 0, 69, 0
2, 67820, Note_on_c, 0, 71, 0
2, 67820, Note_on_c, 0, 74, 0
2, 67820, Note_on_c, 0, 77, 0
2, 67821, Note_on_c, 0, 81, 0
2, 67904, Note_on_c, 0, 55, 45
2, 67905, Note_on_c, 0, 59, 41
2, 67905, Note_on_c, 0, 62, 43
2, 67905, Note_on_c, 0, 65, 44
2, 67928, Note_on_c, 0, 55, 0
2, 67929, Note_on_c, 0, 59, 0
2, 67930, Note_on_c, 0, 62, 0
2, 67930, Note_on_c, 0, 65, 0
2, 67992, Note_on_c, 0, 70, 41
2, 68029, Note_on_c, 0, 70, 0
2, 68033, Note_on_c, 0, 43, 47
2, 68036, Note_on_c, 0, 55, 48
2, 68039, Note_on_c, 0, 71, 45
2, 68075, Note_on_c, 0, 71, 0
2, 68084, Note_on_c, 0, 43, 0
2, 68086, Note_on_c, 0, 55, 0
2, 68135, Note_on_c, 0, 71, 44
2, 68135, Note_on_c, 0, 77, 46
2, 68136, Note_on_c, 0, 79, 48
2, 68177, Note_on_c, 0, 55, 44
2, 68178, Note_on_c, 0, 59, 44
2, 68178, Note_on_c, 0, 62, 47
2, 68178, Note_on_c, 0, 65, 43
2, 68203, Note_on_c, 0, 55, 0
2, 68204, Note_on_c, 0, 59, 0
2, 68204, Note_on_c, 0, 62, 0
2, 68205, Note_on_c, 0, 65, 0
2, 68216, Note_on_c, 0, 71, 0
2, 68250, Note_on_c, 0, 77, 0
2, 68251, Note_on_c, 0, 79, 0
2, 68270, Note_on_c, 0, 71, 42
2, 68308, Note_on_c, 0, 71, 0
2, 68315, Note_on_c, 0, 50, 44
2, 68317, Note_on_c, 0, 62, 48
2, 68319, Note_on_c, 0, 77, 45
2, 68320, Note_on_c, 0, 81, 44
2, 68365, Note_on_c, 0, 50, 0
2, 68367, Note_on_c, 0, 62, 0
2, 68404, Note_on_c, 0, 77, 0
2, 68405, Note_on_c, 0, 81, 0
2, 68415, Note_on_c, 0, 70, 41
2, 68453, Note_on_c, 0, 70, 0
2, 68462, Note_on_c, 0, 55, 47
2, 68462, Note_on_c, 0, 59, 44
2, 68462, Note_on_c, 0, 65, 46
2, 68463, Note_on_c, 0, 62, 48
2, 68463, Note_on_c, 0, 71, 47
2, 68487, Note_on_c, 0, 55, 0
2, 68488, Note_on_c, 0, 62, 0
2, 68488, Note_on_c, 0, 59, 0
2, 68488, Note_on_c, 0, 65, 0
2, 68500, Note_on_c, 0, 71, 0
2, 68559, Note_on_c, 0, 71, 43
2, 68560, Note_on_c, 0, 77, 45
2, 68560, Note_on_c, 0, 79, 43
2, 68599, Note_on_c, 0, 43, 43
2, 68600, Note_on_c, 0, 55, 48
2, 68647, Note_on_c, 0, 43, 0
2, 68648, Note_on_c, 0, 55, 0
2, 68685, Note_on_c, 0, 71, 0
2, 68686, Note_on_c, 0, 79, 0
2, 68686, Note_on_c, 0, 77, 0
2, 68694, Note_on_c, 0, 67, 46
2, 68733, Note_on_c, 0, 67, 0
2, 68740, Note_on_c, 0, 47, 44
2, 68741, Note_on_c, 0, 59, 43
2, 68743, Note_on_c, 0, 74, 46
2, 68744, Note_on_c, 0, 77, 41
2, 68744, Note_on_c, 0, 79, 48
2, 68791, Note_on_c, 0, 74, 0
2, 68792, Note_on_c, 0, 77, 0
2, 68792, Note_on_c, 0, 79, 0
2, 68867, Note_on_c, 0, 47, 0
2, 68868, Note_on_c, 0, 59, 0
2, 68877, Note_on_c, 0, 60, 45
2, 68878, Note_on_c, 0, 69, 47
2, 68878, Note_on_c, 0, 72, 45
2, 68879, Note_on_c, 0, 76, 46
2, 68880, Note_on_c, 0, 81, 41
2, 68886, Note_on_c, 0, 48, 41
2, 68923, Note_on_c, 0, 48, 0
2, 68924, Note_on_c, 0, 60, 0
2, 68926, Note_on_c, 0, 76, 0
2, 68926, Note_on_c, 0, 69, 0
2, 68926, Note_on_c, 0, 72, 0
2, 68927, Note_on_c, 0, 81, 0
2, 69013, Note_on_c, 0, 55, 48
2, 69014, Note_on_c, 0, 60, 47
2, 69014, Note_on_c, 0, 64, 47
2, 69039, Note_on_c, 0, 55, 0
2, 69040, Note_on_c, 0, 60, 0
2, 69041, Note_on_c, 0, 64, 0
2, 69110, Note_on_c, 0, 71, 46
2, 69148, Note_on_c, 0, 71, 0
2, 69155, Note_on_c, 0, 52, 43
2, 69157, Note_on_c, 0, 72, 47
2, 69166, Note_on_c, 0, 40, 46
2, 69193, Note_on_c, 0, 72, 0
2, 69202, Note_on_c, 0, 40, 0
2, 69207, Note_on_c, 0, 52, 0
2, 69246, Note_on_c, 0, 76, 45
2, 69247, Note_on_c, 0, 79, 41
2, 69290, Note_on_c, 0, 55, 48
2, 69291, Note_on_c, 0, 60, 44
2, 69291, Note_on_c, 0, 64, 42
2, 69317, Note_on_c, 0, 64, 0
2, 69317, Note_on_c, 0, 55, 0
2, 69317, Note_on_c, 0, 60, 0
2, 69365, Note_on_c, 0, 76, 0
2, 69366, Note_on_c, 0, 79, 0
2, 69385, Note_on_c, 0, 72, 43
2, 69400, Note_on_c, 0, 72, 0
2, 69428, Note_on_c, 0, 43, 47
2, 69430, Note_on_c, 0, 55, 45
2, 69432, Note_on_c, 0, 76, 41
2, 69433, Note_on_c, 0, 81, 42
2, 69442, Note_on_c, 0, 72, 41
2, 69476, Note_on_c, 0, 43, 0
2, 69477, Note_on_c, 0, 55, 0
2, 69513, Note_on_c, 0, 72, 0
2, 69513, Note_on_c, 0, 76, 0
2, 69514, Note_on_c, 0, 81, 0
2, 69522, Note_on_c, 0, 71, 44
2, 69560, Note_on_c, 0, 71, 0
2, 69567, Note_on_c, 0, 52, 47
2, 69567, Note_on_c, 0, 55, 41
2, 69568, Note_on_c, 0, 60, 48
2, 69569, Note_on_c, 0, 72, 42
2, 69593, Note_on_c, 0, 52, 0
2, 69594, Note_on_c, 0, 55, 0
2, 69595, Note_on_c, 0, 60, 0
2, 69606, Note_on_c, 0, 72, 0
2, 69660, Note_on_c, 0, 72, 44
2, 69661, Note_on_c, 0, 76, 42
2, 69661, Note_on_c, 0, 79, 42
2, 69704, Note_on_c, 0, 48, 45
2, 69706, Note_on_c, 0, 60, 41
2, 69753, Note_on_c, 0, 48, 0
2, 69755, Note_on_c, 0, 60, 0
2, 69792, Note_on_c, 0, 79, 0
2, 69792, Note_on_c, 0, 76, 0
2, 69802, Note_on_c, 0, 72, 0
2, 69840, Note_on_c, 0, 46, 43
2, 69842, Note_on_c, 0, 58, 44
2, 69843, Note_on_c, 0, 67, 42
2, 69844, Note_on_c, 0, 73, 47
2, 69844, Note_on_c, 0, 76, 46
2, 69844, Note_on_c, 0, 79, 47
2, 69923, Note_on_c, 0, 67, 0
2, 69925, Note_on_c, 0, 79, 0
2, 69959, Note_on_c, 0, 73, 0
2, 69959, Note_on_c, 0, 76, 0
2, 69967, Note_on_c, 0, 46, 0
2, 69968, Note_on_c, 0, 58, 0
2, 69976, Note_on_c, 0, 47, 44
2, 69977, Note_on_c, 0, 59, 43
2, 69978, Note_on_c, 0, 67, 47
2, 69979, Note_on_c, 0, 71, 43
2, 69979, Note_on_c, 0, 77, 48
2, 69980, Note_on_c, 0, 79, 44
2, 70014, Note_on_c, 0, 47, 0
2, 70015, Note_on_c, 0, 59, 0
2, 70016, Note_on_c, 0, 71, 0
2, 70016, Note_on_c, 0, 67, 0
2, 70017, Note_on_c, 0, 77, 0
2, 70018, Note_on_c, 0, 79, 0
2, 70072, Note_on_c, 0, 79, 46
2, 70095, Note_on_c, 0, 77, 48
2, 70105, Note_on_c, 0, 71, 48
2, 70114, Note_on_c, 0, 50, 41
2, 70115, Note_on_c, 0, 53, 43
2, 70115, Note_on_c, 0, 55, 41
2, 70116, Note_on_c, 0, 59, 47
2, 70116, Note_on_c, 0, 67, 47
2, 70139, Note_on_c, 0, 53, 0
2, 70139, Note_on_c, 0, 50, 0
2, 70140, Note_on_c, 0, 55, 0
2, 70140, Note_on_c, 0, 59, 0
2, 70152, Note_on_c, 0, 71, 0
2, 70152, Note_on_c, 0, 67, 0
2, 70152, Note_on_c, 0, 77, 0
2, 70153, Note_on_c, 0, 79, 0
2, 70189, Control_c, 0, 64, 127
2, 70204, Note_on_c, 0, 67, 43
2, 70204, Note_on_c, 0, 71, 41
2, 70204, Note_on_c, 0, 79, 45
2, 70205, Note_on_c, 0, 77, 48
2, 70245, Note_on_c, 0, 43, 43
2, 70247, Note_on_c, 0, 55, 43
2, 70285, Note_on_c, 0, 79, 0
2, 70292, Note_on_c, 0, 43, 0
2, 70294, Note_on_c, 0, 55, 0
2, 70301, Control_c, 0, 64, 0
2, 70318, Note_on_c, 0, 67, 0
2, 70330, Note_on_c, 0, 71, 0
2, 70331, Note_on_c, 0, 77, 0
2, 70340, Note_on_c, 0, 79, 44
2, 70377, Note_on_c, 0, 79, 0
2, 70380, Note_on_c, 0, 53, 48
2, 70382, Note_on_c, 0, 67, 41
2, 70383, Note_on_c, 0, 71, 41
2, 70383, Note_on_c, 0, 74, 47
2, 70392, Note_on_c, 0, 41, 48
2, 70430, Note_on_c, 0, 67, 0
2, 70431, Note_on_c, 0, 71, 0
2, 70432, Note_on_c, 0, 74, 0
2, 70494, Note_on_c, 0, 41, 0
2, 70496, Note_on_c, 0, 53, 0
2, 70516, Note_on_c, 0, 52, 48
2, 70518, Note_on_c, 0, 67, 48
2, 70518, Note_on_c, 0, 72, 41
2, 70527, Note_on_c, 0, 40, 43
2, 70556, Note_on_c, 0, 67, 0
2, 70564, Note_on_c, 0, 40, 0
2, 70565, Note_on_c, 0, 52, 0
2, 70568, Note_on_c, 0, 72, 0
2, 70613, Note_on_c, 0, 79, 42
2, 70657, Note_on_c, 0, 55, 41
2, 70658, Note_on_c, 0, 60, 47
2, 70658, Note_on_c, 0, 64, 48
2, 70685, Note_on_c, 0, 60, 0
2, 70685, Note_on_c, 0, 55, 0
2, 70686, Note_on_c, 0, 64, 0
2, 70701, Note_on_c, 0, 79, 0
2, 70757, Note_on_c, 0, 67, 42
2, 70758, Note_on_c, 0, 72, 42
2, 70758, Note_on_c, 0, 76, 45
2, 70759, Note_on_c, 0, 79, 47
2, 70801, Note_on_c, 0, 52, 44
2, 70802, Note_on_c, 0, 64, 44
2, 70839, Note_on_c, 0, 67, 0
2, 70841, Note_on_c, 0, 79, 0
2, 70886, Note_on_c, 0, 76, 0
2, 70894, Note_on_c, 0, 67, 41
2, 70896, Note_on_c, 0, 79, 46
2, 70897, Note_on_c, 0, 72, 0
2, 70932, Note_on_c, 0, 52, 0
2, 70934, Note_on_c, 0, 64, 0
2, 70934, Note_on_c, 0, 67, 0
2, 70935, Note_on_c, 0, 79, 0
2, 70944, Note_on_c, 0, 62, 47
2, 70944, Note_on_c, 0, 68, 42
2, 70944, Note_on_c, 0, 74, 43
2, 70944, Note_on_c, 0, 76, 42
2, 70945, Note_on_c, 0, 80, 41
2, 70954, Note_on_c, 0, 50, 44
2, 71031, Note_on_c, 0, 76, 0
2, 71073, Note_on_c, 0, 50, 0
2, 71074, Note_on_c, 0, 62, 0
2, 71075, Note_on_c, 0, 68, 0
2, 71075, Note_on_c, 0, 74, 0
2, 71076, Note_on_c, 0, 80, 0
2, 71081, Note_on_c, 0, 49, 42
2, 71082, Note_on_c, 0, 61, 45
2, 71083, Note_on_c, 0, 69, 43
2, 71084, Note_on_c, 0, 73, 44
2, 71085, Note_on_c, 0, 76, 46
2, 71085, Note_on_c, 0, 81, 47
2, 71130, Note_on_c, 0, 49, 0
2, 71131, Note_on_c, 0, 61, 0
2, 71132, Note_on_c, 0, 69, 0
2, 71133, Note_on_c, 0, 73, 0
2, 71133, Note_on_c, 0, 76, 0
2, 71178, Note_on_c, 0, 79, 42
2, 71200, Note_on_c, 0, 76, 44
2, 71210, Note_on_c, 0, 73, 47
2, 71219, Note_on_c, 0, 55, 43
2, 71220, Note_on_c, 0, 57, 45
2, 71220, Note_on_c, 0, 61, 41
2, 71220, Note_on_c, 0, 64, 48
2, 71221, Note_on_c, 0, 69, 45
2, 71226, Control_c, 0, 64, 127
2, 71244, Note_on_c, 0, 55, 0
2, 71245, Note_on_c, 0, 57, 0
2, 71246, Note_on_c, 0, 64, 0
2, 71246, Note_on_c, 0, 61, 0
2, 71258, Note_on_c, 0, 69, 0
2, 71258, Note_on_c, 0, 73, 0
2, 71259, Note_on_c, 0, 81, 0
2, 71259, Note_on_c, 0, 76, 0
2, 71259, Note_on_c, 0, 79, 0
2, 71313, Note_on_c, 0, 69, 42
2, 71357, Note_on_c, 0, 45, 43
2, 71358, Note_on_c, 0, 57, 47
2, 71379, Control_c, 0, 64, 0
2, 71443, Note_on_c, 0, 69, 0
2, 71451, Note_on_c, 0, 73, 45
2, 71452, Note_on_c, 0, 76, 48
2, 71452, Note_on_c, 0, 81, 43
2, 71474, Note_on_c, 0, 45, 0
2, 71475, Note_on_c, 0, 57, 0
2, 71489, Note_on_c, 0, 76, 0
2, 71489, Note_on_c, 0, 73, 0
2, 71490, Note_on_c, 0, 81, 0
2, 71494, Note_on_c, 0, 43, 41
2, 71496, Note_on_c, 0, 55, 42
2, 71498, Note_on_c, 0, 69, 45
2, 71549, Note_on_c, 0, 69, 0
2, 71621, Note_on_c, 0, 43, 0
2, 71630, Note_on_c, 0, 41, 41
2, 71636, Note_on_c, 0, 55, 0
2, 71643, Note_on_c, 0, 53, 47
2, 71646, Note_on_c, 0, 69, 47
2, 71646, Note_on_c, 0, 74, 48
2, 71684, Note_on_c, 0, 74, 0
2, 71684, Note_on_c, 0, 69, 0
2, 71692, Note_on_c, 0, 41, 0
2, 71693, Note_on_c, 0, 53, 0
2, 71741, Note_on_c, 0, 81, 44
2, 71784, Note_on_c, 0, 53, 46
2, 71785, Note_on_c, 0, 57, 41
2, 71786, Note_on_c, 0, 62, 45
2, 71811, Note_on_c, 0, 53, 0
2, 71812, Note_on_c, 0, 57, 0
2, 71813, Note_on_c, 0, 62, 0
2, 71828, Note_on_c, 0, 81, 0
2, 71874, Note_on_c, 0, 69, 44
2, 71882, Note_on_c, 0, 77, 41
2, 71883, Note_on_c, 0, 81, 43
2, 71925, Note_on_c, 0, 38, 41
2, 71926, Note_on_c, 0, 50, 43
2, 71968, Note_on_c, 0, 77, 0
2, 72008, Note_on_c, 0, 38, 0
2, 72009, Note_on_c, 0, 50, 0
2, 72012, Note_on_c, 0, 69, 0
2, 72014, Note_on_c, 0, 81, 0
2, 72022, Note_on_c, 0, 77, 48
2, 72059, Note_on_c, 0, 77, 0
2, 72062, Note_on_c, 0, 41, 41
2, 72063, Note_on_c, 0, 53, 46
2, 72065, Note_on_c, 0, 81, 44
2, 72066, Note_on_c, 0, 69, 48
2, 72067, Note_on_c, 0, 74, 46
2, 72113, Note_on_c, 0, 74, 0
2, 72113, Note_on_c, 0, 69, 0
2, 72114, Note_on_c, 0, 81, 0
2, 72192, Note_on_c, 0, 41, 0
2, 72193, Note_on_c, 0, 53, 0
2, 72200, Note_on_c, 0, 42, 41
2, 72202, Note_on_c, 0, 54, 41
2, 72203, Note_on_c, 0, 69, 48
2, 72204, Note_on_c, 0, 72, 46
2, 72205, Note_on_c, 0, 75, 46
2, 72205, Note_on_c, 0, 78, 47
2, 72206, Note_on_c, 0, 81, 41
2, 72250, Note_on_c, 0, 42, 0
2, 72252, Note_on_c, 0, 54, 0
2, 72254, Note_on_c, 0, 72, 0
2, 72254, Note_on_c, 0, 69, 0
2, 72255, Note_on_c, 0, 75, 0
2, 72256, Note_on_c, 0, 78, 0
2, 72256, Note_on_c, 0, 81, 0
2, 72338, Note_on_c, 0, 43, 43
2, 72340, Note_on_c, 0, 55, 48
2, 72432, Note_on_c, 0, 66, 45
2, 72432, Note_on_c, 0, 78, 42
2, 72466, Note_on_c, 0, 43, 0
2, 72467, Note_on_c, 0, 55, 0
2, 72469, Note_on_c, 0, 66, 0
2, 72470, Note_on_c, 0, 78, 0
2, 72474, Note_on_c, 0, 45, 47
2, 72476, Note_on_c, 0, 57, 41
2, 72477, Note_on_c, 0, 63, 44
2, 72478, Note_on_c, 0, 75, 43
2, 72559, Note_on_c, 0, 63, 0
2, 72561, Note_on_c, 0, 75, 0
2, 72569, Note_on_c, 0, 78, 47
2, 72570, Note_on_c, 0, 66, 47
2, 72585, Note_on_c, 0, 78, 0
2, 72596, Note_on_c, 0, 57, 0
2, 72605, Note_on_c, 0, 45, 0
2, 72607, Note_on_c, 0, 81, 48
2, 72608, Note_on_c, 0, 66, 0
2, 72614, Note_on_c, 0, 42, 44
2, 72616, Note_on_c, 0, 54, 47
2, 72617, Note_on_c, 0, 69, 41
2, 72618, Note_on_c, 0, 72, 45
2, 72619, Note_on_c, 0, 75, 45
2, 72619, Note_on_c, 0, 78, 42
2, 72696, Note_on_c, 0, 72, 0
2, 72735, Note_on_c, 0, 42, 0
2, 72737, Note_on_c, 0, 54, 0
2, 72739, Note_on_c, 0, 69, 0
2, 72740, Note_on_c, 0, 75, 0
2, 72741, Note_on_c, 0, 81, 0
2, 72741, Note_on_c, 0, 78, 0
2, 72744, Note_on_c, 0, 43, 44
2, 72746, Note_on_c, 0, 55, 45
2, 72748, Note_on_c, 0, 67, 42
2, 72748, Note_on_c, 0, 72, 47
2, 72749, Note_on_c, 0, 76, 48
2, 72749, Note_on_c, 0, 79, 47
2, 72792, Note_on_c, 0, 43, 0
2, 72794, Note_on_c, 0, 55, 0
2, 72795, Note_on_c, 0, 67, 0
2, 72796, Note_on_c, 0, 72, 0
2, 72797, Note_on_c, 0, 76, 0
2, 72797, Note_on_c, 0, 79, 0
2, 72883, Note_on_c, 0, 55, 43
2, 72884, Note_on_c, 0, 60, 45
2, 72884, Note_on_c, 0, 64, 45
2, 72885, Note_on_c, 0, 69, 47
2, 72885, Note_on_c, 0, 72, 41
2, 72886, Note_on_c, 0, 76, 43
2, 72887, Note_on_c, 0, 81, 45
2, 72908, Note_on_c, 0, 55, 0
2, 72909, Note_on_c, 0, 60, 0
2, 72909, Note_on_c, 0, 64, 0
2, 72922, Note_on_c, 0, 72, 0
2, 72922, Note_on_c, 0, 69, 0
2, 72923, Note_on_c, 0, 76, 0
2, 72923, Control_c, 0, 64, 127
2, 72924, Note_on_c, 0, 81, 0
2, 72976, Note_on_c, 0, 67, 41
2, 72977, Note_on_c, 0, 72, 41
2, 72978, Note_on_c, 0, 76, 43
2, 72979, Note_on_c, 0, 79, 45
2, 73019, Note_on_c, 0, 52, 48
2, 73040, Note_on_c, 0, 40, 43
2, 73057, Note_on_c, 0, 67, 0
2, 73073, Control_c, 0, 64, 0
2, 73100, Note_on_c, 0, 40, 0
2, 73101, Note_on_c, 0, 52, 0
2, 73104, Note_on_c, 0, 79, 0
2, 73104, Note_on_c, 0, 76, 0
2, 73111, Note_on_c, 0, 67, 47
2, 73115, Note_on_c, 0, 72, 0
2, 73155, Note_on_c, 0, 37, 41
2, 73158, Note_on_c, 0, 49, 47
2, 73161, Note_on_c, 0, 70, 41
2, 73162, Note_on_c, 0, 76, 43
2, 73162, Note_on_c, 0, 79, 41
2, 73247, Note_on_c, 0, 67, 0
2, 73248, Note_on_c, 0, 70, 0
2, 73248, Note_on_c, 0, 79, 0
2, 73251, Note_on_c, 0, 76, 0
2, 73290, Note_on_c, 0, 37, 0
2, 73291, Note_on_c, 0, 49, 0
2, 73297, Note_on_c, 0, 38, 44
2, 73299, Note_on_c, 0, 50, 47
2, 73301, Note_on_c, 0, 65, 46
2, 73301, Note_on_c, 0, 69, 42
2, 73302, Note_on_c, 0, 74, 48
2, 73302, Note_on_c, 0, 77, 48
2, 73346, Note_on_c, 0, 38, 0
2, 73348, Note_on_c, 0, 50, 0
2, 73350, Note_on_c, 0, 69, 0
2, 73350, Note_on_c, 0, 65, 0
2, 73351, Note_on_c, 0, 77, 0
2, 73351, Note_on_c, 0, 74, 0
2, 73428, Note_on_c, 0, 53, 41
2, 73440, Note_on_c, 0, 57, 48
2, 73443, Note_on_c, 0, 62, 42
2, 73444, Note_on_c, 0, 74, 43
2, 73469, Note_on_c, 0, 53, 0
2, 73470, Note_on_c, 0, 57, 0
2, 73471, Note_on_c, 0, 62, 0
2, 73531, Note_on_c, 0, 74, 0
2, 73538, Note_on_c, 0, 72, 42
2, 73578, Note_on_c, 0, 72, 0
2, 73583, Note_on_c, 0, 43, 44
2, 73584, Note_on_c, 0, 55, 43
2, 73586, Note_on_c, 0, 71, 47
2, 73632, Note_on_c, 0, 43, 0
2, 73633, Note_on_c, 0, 55, 0
2, 73669, Note_on_c, 0, 71, 0
2, 73677, Note_on_c, 0, 74, 43
2, 73715, Note_on_c, 0, 74, 0
2, 73720, Note_on_c, 0, 50, 43
2, 73720, Note_on_c, 0, 55, 46
2, 73721, Note_on_c, 0, 59, 48
2, 73723, Note_on_c, 0, 69, 41
2, 73746, Note_on_c, 0, 55, 0
2, 73746, Note_on_c, 0, 50, 0
2, 73747, Note_on_c, 0, 59, 0
2, 73797, Note_on_c, 0, 69, 0
2, 73817, Note_on_c, 0, 71, 48
2, 73857, Note_on_c, 0, 71, 0
2, 73864, Note_on_c, 0, 48, 47
2, 73864, Note_on_c, 0, 55, 42
2, 73865, Note_on_c, 0, 60, 42
2, 73866, Note_on_c, 0, 64, 43
2, 73876, Note_on_c, 0, 72, 42
2, 73904, Control_c, 0, 64, 127
2, 73911, Note_on_c, 0, 48, 0
2, 73912, Note_on_c, 0, 55, 0
2, 73912, Note_on_c, 0, 60, 0
2, 73913, Note_on_c, 0, 64, 0
2, 73914, Note_on_c, 0, 72, 0
2, 73989, Control_c, 0, 64, 0
2, 74002, Note_on_c, 0, 48, 43
2, 74004, Note_on_c, 0, 60, 42
2, 74005, Note_on_c, 0, 72, 47
2, 74006, Note_on_c, 0, 76, 41
2, 74006, Note_on_c, 0, 79, 47
2, 74007, Note_on_c, 0, 84, 43
2, 74035, Control_c, 0, 64, 127
2, 74087, Control_c, 0, 64, 0
2, 74232, Note_on_c, 0, 48, 0
2, 74233, Note_on_c, 0, 60, 0
2, 74235, Note_on_c, 0, 76, 0
2, 74235, Note_on_c, 0, 72, 0
2, 74236, Note_on_c, 0, 84, 0
2, 74236, Note_on_c, 0, 79, 0
2, 74288, Note_on_c, 0, 45, 48
2, 74289, Note_on_c, 0, 57, 46
2, 74292, Note_on_c, 0, 72, 48
2, 74292, Note_on_c, 0, 76, 41
2, 74293, Note_on_c, 0, 78, 48
2, 74293, Note_on_c, 0, 84, 42
2, 74380, Note_on_c, 0, 78, 0
2, 74415, Note_on_c, 0, 45, 0
2, 74416, Note_on_c, 0, 57, 0
2, 74418, Note_on_c, 0, 76, 0
2, 74421, Note_on_c, 0, 84, 0
2, 74424, Note_on_c, 0, 47, 45
2, 74424, Note_on_c, 0, 51, 41
2, 74425, Note_on_c, 0, 54, 45
2, 74426, Note_on_c, 0, 59, 44
2, 74427, Note_on_c, 0, 71, 43
2, 74428, Note_on_c, 0, 75, 42
2, 74429, Note_on_c, 0, 78, 43
2, 74429, Note_on_c, 0, 83, 47
2, 74431, Note_on_c, 0, 72, 0
2, 74510, Note_on_c, 0, 47, 0
2, 74511, Note_on_c, 0, 54, 0
2, 74511, Note_on_c, 0, 59, 0
2, 74511, Note_on_c, 0, 51, 0
2, 74513, Note_on_c, 0, 75, 0
2, 74513, Note_on_c, 0, 71, 0
2, 74514, Note_on_c, 0, 83, 0
2, 74514, Note_on_c, 0, 78, 0
2, 74567, Note_on_c, 0, 54, 48
2, 74569, Note_on_c, 0, 78, 41
2, 74604, Note_on_c, 0, 54, 0
2, 74607, Note_on_c, 0, 78, 0
2, 74660, Note_on_c, 0, 59, 42
2, 74663, Note_on_c, 0, 83, 43
2, 74790, Note_on_c, 0, 59, 0
2, 74793, Note_on_c, 0, 83, 0
2, 74800, Note_on_c, 0, 66, 42
2, 74803, Note_on_c, 0, 90, 41
2, 74838, Note_on_c, 0, 66, 0
2, 74845, Note_on_c, 0, 90, 0
2, 74848, Note_on_c, 0, 71, 43
2, 74851, Note_on_c, 0, 95, 42
2, 74897, Note_on_c, 0, 71, 0
2, 74904, Note_on_c, 0, 95, 0
2, 74978, Note_on_c, 0, 48, 46
2, 74981, Note_on_c, 0, 60, 42
2, 74981, Note_on_c, 0, 72, 43
2, 74982, Note_on_c, 0, 69, 44
2, 74983, Note_on_c, 0, 76, 44
2, 74984, Note_on_c, 0, 78, 41
2, 74984, Note_on_c, 0, 81, 46
2, 75030, Note_on_c, 0, 60, 0
2, 75031, Note_on_c, 0, 69, 0
2, 75032, Note_on_c, 0, 72, 0
2, 75032, Note_on_c, 0, 76, 0
2, 75032, Note_on_c, 0, 78, 0
2, 75032, Note_on_c, 0, 81, 0
2, 75042, Note_on_c, 0, 48, 0
2, 75120, Note_on_c, 0, 45, 47
2, 75120, Note_on_c, 0, 57, 45
2, 75122, Note_on_c, 0, 72, 45
2, 75122, Note_on_c, 0, 76, 45
2, 75123, Note_on_c, 0, 78, 42
2, 75123, Note_on_c, 0, 81, 48
2, 75123, Note_on_c, 0, 84, 45
2, 75295, Note_on_c, 0, 45, 0
2, 75297, Note_on_c, 0, 57, 0
2, 75298, Note_on_c, 0, 72, 0
2, 75299, Note_on_c, 0, 76, 0
2, 75300, Note_on_c, 0, 84, 0
2, 75300, Note_on_c, 0, 81, 0
2, 75300, Note_on_c, 0, 78, 0
2, 75384, Note_on_c, 0, 45, 44
2, 75386, Note_on_c, 0, 57, 48
2, 75388, Note_on_c, 0, 72, 44
2, 75388, Note_on_c, 0, 76, 42
2, 75389, Note_on_c, 0, 78, 48
2, 75389, Note_on_c, 0, 81, 48
2, 75389, Note_on_c, 0, 84, 43
2, 75474, Note_on_c, 0, 78, 0
2, 75514, Note_on_c, 0, 45, 0
2, 75516, Note_on_c, 0, 57, 0
2, 75517, Note_on_c, 0, 72, 0
2, 75518, Note_on_c, 0, 76, 0
2, 75519, Note_on_c, 0, 84, 0
2, 75519, Note_on_c, 0, 81, 0
2, 75522, Note_on_c, 0, 59, 44
2, 75523, Note_on_c, 0, 47, 43
2, 75524, Note_on_c, 0, 51, 48
2, 75524, Note_on_c, 0, 54, 48
2, 75525, Note_on_c, 0, 83, 43
2, 75526, Note_on_c, 0, 71, 45
2, 75527, Note_on_c, 0, 75, 44
2, 75527, Note_on_c, 0, 78, 44
2, 75606, Note_on_c, 0, 54, 0
2, 75606, Note_on_c, 0, 51, 0
2, 75606, Note_on_c, 0, 47, 0
2, 75607, Note_on_c, 0, 59, 0
2, 75608, Note_on_c, 0, 71, 0
2, 75609, Note_on_c, 0, 78, 0
2, 75609, Note_on_c, 0, 75, 0
2, 75610, Note_on_c, 0, 83, 0
2, 75667, Note_on_c, 0, 59, 42
2, 75669, Note_on_c, 0, 83, 48
2, 75755, Note_on_c, 0, 59, 0
2, 75758, Note_on_c, 0, 83, 0
2, 75764, Note_on_c, 0, 58, 46
2, 75767, Note_on_c, 0, 82, 48
2, 75802, Note_on_c, 0, 58, 0
2, 75805, Note_on_c, 0, 82, 0
2, 75812, Note_on_c, 0, 59, 47
2, 75815, Note_on_c, 0, 83, 48
2, 75861, Note_on_c, 0, 59, 0
2, 75864, Note_on_c, 0, 83, 0
2, 75952, Note_on_c, 0, 76, 44
2, 75953, Note_on_c, 0, 88, 44
2, 76035, Note_on_c, 0, 76, 0
2, 76037, Note_on_c, 0, 88, 0
2, 76044, Note_on_c, 0, 78, 43
2, 76047, Note_on_c, 0, 90, 43
2, 76084, Note_on_c, 0, 78, 0
2, 76085, Note_on_c, 0, 90, 0
2, 76089, Note_on_c, 0, 52, 46
2, 76090, Note_on_c, 0, 55, 45
2, 76091, Note_on_c, 0, 59, 48
2, 76094, Note_on_c, 0, 79, 42
2, 76095, Note_on_c, 0, 91, 45
2, 76139, Note_on_c, 0, 55, 0
2, 76139, Note_on_c, 0, 52, 0
2, 76140, Note_on_c, 0, 59, 0
2, 76176, Note_on_c, 0, 79, 0
2, 76181, Note_on_c, 0, 91, 0
2, 76184, Note_on_c, 0, 78, 46
2, 76185, Note_on_c, 0, 90, 45
2, 76221, Note_on_c, 0, 78, 0
2, 76225, Note_on_c, 0, 90, 0
2, 76225, Note_on_c, 0, 52, 48
2, 76225, Note_on_c, 0, 55, 46
2, 76226, Note_on_c, 0, 59, 46
2, 76228, Note_on_c, 0, 77, 48
2, 76230, Note_on_c, 0, 89, 43
2, 76266, Note_on_c, 0, 77, 0
2, 76268, Note_on_c, 0, 89, 0
2, 76275, Note_on_c, 0, 52, 0
2, 76275, Note_on_c, 0, 55, 0
2, 76275, Note_on_c, 0, 59, 0
2, 76322, Note_on_c, 0, 76, 43
2, 76324, Note_on_c, 0, 88, 48
2, 76340, Control_c, 0, 64, 127
2, 76368, Note_on_c, 0, 52, 45
2, 76368, Note_on_c, 0, 55, 48
2, 76368, Note_on_c, 0, 58, 41
2, 76369, Note_on_c, 0, 61, 48
2, 76456, Note_on_c, 0, 76, 0
2, 76461, Control_c, 0, 64, 0
2, 76462, Note_on_c, 0, 88, 0
2, 76464, Note_on_c, 0, 73, 46
2, 76465, Note_on_c, 0, 85, 47
2, 76503, Note_on_c, 0, 73, 0
2, 76505, Note_on_c, 0, 85, 0
2, 76512, Note_on_c, 0, 71, 45
2, 76512, Note_on_c, 0, 83, 48
2, 76596, Note_on_c, 0, 55, 0
2, 76596, Note_on_c, 0, 52, 0
2, 76598, Note_on_c, 0, 71, 0
2, 76600, Note_on_c, 0, 83, 0
2, 76607, Note_on_c, 0, 70, 42
2, 76607, Note_on_c, 0, 82, 48
2, 76645, Note_on_c, 0, 61, 0
2, 76645, Note_on_c, 0, 58, 0
2, 76646, Note_on_c, 0, 70, 0
2, 76648, Note_on_c, 0, 82, 0
2, 76654, Note_on_c, 0, 52, 44
2, 76655, Note_on_c, 0, 55, 42
2, 76655, Note_on_c, 0, 57, 46
2, 76655, Note_on_c, 0, 60, 48
2, 76656, Note_on_c, 0, 69, 47
2, 76658, Note_on_c, 0, 81, 48
2, 76732, Note_on_c, 0, 69, 0
2, 76733, Note_on_c, 0, 81, 0
2, 76753, Note_on_c, 0, 71, 45
2, 76755, Note_on_c, 0, 83, 44
2, 76792, Note_on_c, 0, 71, 0
2, 76793, Note_on_c, 0, 83, 0
2, 76797, Note_on_c, 0, 84, 41
2, 76799, Note_on_c, 0, 72, 41
2, 76879, Note_on_c, 0, 57, 0
2, 76880, Note_on_c, 0, 60, 0
2, 76883, Note_on_c, 0, 84, 0
2, 76891, Note_on_c, 0, 69, 44
2, 76892, Note_on_c, 0, 81, 47
2, 76894, Note_on_c, 0, 72, 0
2, 76926, Note_on_c, 0, 52, 0
2, 76927, Note_on_c, 0, 55, 0
2, 76929, Note_on_c, 0, 69, 0
2, 76930, Note_on_c, 0, 81, 0
2, 76936, Note_on_c, 0, 51, 41
2, 76937, Note_on_c, 0, 54, 45
2, 76937, Note_on_c, 0, 57, 45
2, 76937, Note_on_c, 0, 60, 45
2, 76939, Note_on_c, 0, 72, 41
2, 76940, Note_on_c, 0, 84, 43
2, 77025, Note_on_c, 0, 84, 0
2, 77032, Note_on_c, 0, 75, 45
2, 77034, Note_on_c, 0, 87, 45
2, 77036, Note_on_c, 0, 72, 0
2, 77070, Note_on_c, 0, 75, 0
2, 77072, Note_on_c, 0, 87, 0
2, 77079, Note_on_c, 0, 78, 41
2, 77080, Note_on_c, 0, 90, 43
2, 77160, Note_on_c, 0, 57, 0
2, 77160, Note_on_c, 0, 60, 0
2, 77160, Note_on_c, 0, 51, 0
2, 77160, Note_on_c, 0, 54, 0
2, 77163, Note_on_c, 0, 78, 0
2, 77164, Note_on_c, 0, 90, 0
2, 77213, Note_on_c, 0, 52, 47
2, 77214, Note_on_c, 0, 55, 44
2, 77215, Note_on_c, 0, 59, 41
2, 77218, Note_on_c, 0, 79, 46
2, 77219, Note_on_c, 0, 91, 43
2, 77264, Note_on_c, 0, 52, 0
2, 77265, Note_on_c, 0, 55, 0
2, 77265, Note_on_c, 0, 59, 0
2, 77304, Note_on_c, 0, 79, 0
2, 77308, Note_on_c, 0, 91, 0
2, 77312, Note_on_c, 0, 78, 45
2, 77313, Note_on_c, 0, 90, 46
2, 77348, Note_on_c, 0, 55, 48
2, 77352, Note_on_c, 0, 90, 0
2, 77352, Note_on_c, 0, 78, 0
2, 77355, Note_on_c, 0, 52, 43
2, 77358, Note_on_c, 0, 59, 42
2, 77360, Note_on_c, 0, 77, 44
2, 77361, Note_on_c, 0, 89, 42
2, 77390, Control_c, 0, 64, 127
2, 77400, Note_on_c, 0, 89, 0
2, 77410, Note_on_c, 0, 77, 0
2, 77419, Note_on_c, 0, 55, 0
2, 77419, Note_on_c, 0, 52, 0
2, 77420, Note_on_c, 0, 59, 0
2, 77452, Note_on_c, 0, 76, 44
2, 77453, Note_on_c, 0, 88, 46
2, 77496, Note_on_c, 0, 52, 43
2, 77496, Note_on_c, 0, 55, 46
2, 77496, Note_on_c, 0, 58, 43
2, 77497, Note_on_c, 0, 61, 46
2, 77573, Control_c, 0, 64, 0
2, 77580, Note_on_c, 0, 76, 0
2, 77581, Note_on_c, 0, 88, 0
2, 77588, Note_on_c, 0, 73, 44
2, 77590, Note_on_c, 0, 85, 47
2, 77624, Note_on_c, 0, 73, 0
2, 77627, Note_on_c, 0, 85, 0
2, 77633, Note_on_c, 0, 71, 46
2, 77635, Note_on_c, 0, 83, 44
2, 77713, Note_on_c, 0, 52, 0
2, 77716, Note_on_c, 0, 71, 0
2, 77717, Note_on_c, 0, 83, 0
2, 77724, Note_on_c, 0, 70, 43
2, 77726, Note_on_c, 0, 82, 41
2, 77759, Note_on_c, 0, 55, 0
2, 77760, Note_on_c, 0, 70, 0
2, 77760, Note_on_c, 0, 61, 0
2, 77760, Note_on_c, 0, 58, 0
2, 77762, Note_on_c, 0, 82, 0
2, 77767, Note_on_c, 0, 52, 41
2, 77767, Note_on_c, 0, 57, 44
2, 77767, Note_on_c, 0, 60, 41
2, 77769, Note_on_c, 0, 69, 47
2, 77771, Note_on_c, 0, 81, 42
2, 77836, Note_on_c, 0, 69, 0
2, 77838, Note_on_c, 0, 81, 0
2, 77856, Note_on_c, 0, 71, 45
2, 77857, Note_on_c, 0, 83, 43
2, 77893, Note_on_c, 0, 71, 0
2, 77895, Note_on_c, 0, 83, 0
2, 77902, Note_on_c, 0, 72, 42
2, 77904, Note_on_c, 0, 84, 44
2, 77985, Note_on_c, 0, 60, 0
2, 77985, Note_on_c, 0, 57, 0
2, 77986, Note_on_c, 0, 72, 0
2, 77988, Note_on_c, 0, 84, 0
2, 77995, Note_on_c, 0, 69, 41
2, 77996, Note_on_c, 0, 81, 45
2, 78031, Note_on_c, 0, 52, 0
2, 78033, Note_on_c, 0, 69, 0
2, 78034, Note_on_c, 0, 81, 0
2, 78037, Note_on_c, 0, 66, 44
2, 78041, Note_on_c, 0, 51, 42
2, 78041, Note_on_c, 0, 57, 46
2, 78041, Note_on_c, 0, 60, 48
2, 78043, Note_on_c, 0, 78, 42
2, 78099, Note_on_c, 0, 57, 0
2, 78099, Note_on_c, 0, 51, 0
2, 78100, Note_on_c, 0, 66, 0
2, 78100, Note_on_c, 0, 60, 0
2, 78102, Note_on_c, 0, 78, 0
2, 78151, Control_c, 0, 64, 127
2, 78180, Note_on_c, 0, 66, 42
2, 78182, Note_on_c, 0, 81, 41
2, 78200, Control_c, 0, 64, 0
2, 78254, Control_c, 0, 64, 127
2, 78263, Note_on_c, 0, 66, 0
2, 78264, Note_on_c, 0, 81, 0
2, 78272, Note_on_c, 0, 67, 45
2, 78274, Note_on_c, 0, 83, 44
2, 78310, Note_on_c, 0, 67, 0
2, 78312, Note_on_c, 0, 83, 0
2, 78318, Note_on_c, 0, 69, 42
2, 78320, Note_on_c, 0, 84, 45
2, 78328, Control_c, 0, 64, 0
2, 78366, Note_on_c, 0, 69, 0
2, 78368, Note_on_c, 0, 84, 0
2, 78452, Note_on_c, 0, 63, 47
2, 78454, Note_on_c, 0, 78, 45
2, 78536, Note_on_c, 0, 63, 0
2, 78537, Note_on_c, 0, 78, 0
2, 78545, Note_on_c, 0, 64, 46
2, 78547, Note_on_c, 0, 79, 48
2, 78583, Note_on_c, 0, 64, 0
2, 78586, Note_on_c, 0, 79, 0
2, 78593, Note_on_c, 0, 66, 44
2, 78596, Note_on_c, 0, 81, 46
2, 78643, Note_on_c, 0, 66, 0
2, 78645, Note_on_c, 0, 81, 0
2, 78733, Note_on_c, 0, 60, 42
2, 78736, Note_on_c, 0, 75, 45
2, 78820, Note_on_c, 0, 60, 0
2, 78822, Note_on_c, 0, 75, 0
2, 78829, Note_on_c, 0, 61, 46
2, 78830, Note_on_c, 0, 76, 42
2, 78868, Note_on_c, 0, 61, 0
2, 78870, Note_on_c, 0, 76, 0
2, 78878, Note_on_c, 0, 63, 47
2, 78880, Note_on_c, 0, 78, 43
2, 78932, Note_on_c, 0, 63, 0
2, 78933, Note_on_c, 0, 78, 0
2, 79024, Note_on_c, 0, 57, 48
2, 79026, Note_on_c, 0, 72, 46
2, 79106, Note_on_c, 0, 57, 0
2, 79108, Note_on_c, 0, 72, 0
2, 79116, Note_on_c, 0, 59, 42
2, 79118, Note_on_c, 0, 74, 45
2, 79154, Note_on_c, 0, 59, 0
2, 79156, Note_on_c, 0, 74, 0
2, 79163, Note_on_c, 0, 60, 41
2, 79166, Note_on_c, 0, 75, 42
2, 79214, Note_on_c, 0, 60, 0
2, 79217, Note_on_c, 0, 75, 0
2, 79307, Note_on_c, 0, 69, 41
2, 79317, Note_on_c, 0, 54, 42
2, 79388, Note_on_c, 0, 69, 0
2, 79394, Note_on_c, 0, 55, 46
2, 79396, Note_on_c, 0, 71, 45
2, 79398, Note_on_c, 0, 54, 0
2, 79432, Note_on_c, 0, 55, 0
2, 79434, Note_on_c, 0, 71, 0
2, 79438, Note_on_c, 0, 57, 42
2, 79440, Note_on_c, 0, 72, 48
2, 79479, Note_on_c, 0, 57, 0
2, 79492, Note_on_c, 0, 72, 0
2, 79585, Note_on_c, 0, 54, 48
2, 79587, Note_on_c, 0, 69, 41
2, 79671, Note_on_c, 0, 54, 0
2, 79673, Note_on_c, 0, 69, 0
2, 79681, Note_on_c, 0, 55, 44
2, 79683, Note_on_c, 0, 71, 47
2, 79716, Note_on_c, 0, 55, 0
2, 79719, Note_on_c, 0, 71, 0
2, 79728, Note_on_c, 0, 57, 44
2, 79729, Note_on_c, 0, 72, 48
2, 79764, Note_on_c, 0, 57, 0
2, 79766, Note_on_c, 0, 72, 0
2, 79867, Note_on_c, 0, 45, 41
2, 79869, Note_on_c, 0, 57, 45
2, 79871, Note_on_c, 0, 72, 45
2, 79871, Note_on_c, 0, 76, 41
2, 79872, Note_on_c, 0, 78, 43
2, 79872, Note_on_c, 0, 84, 43
2, 79952, Note_on_c, 0, 78, 0
2, 79992, Note_on_c, 0, 45, 0
2, 79993, Note_on_c, 0, 57, 0
2, 79995, Note_on_c, 0, 76, 0
2, 79995, Note_on_c, 0, 72, 0
2, 79997, Note_on_c, 0, 84, 0
2, 80001, Note_on_c, 0, 47, 46
2, 80002, Note_on_c, 0, 51, 45
2, 80002, Note_on_c, 0, 54, 46
2, 80003, Note_on_c, 0, 59, 45
2, 80004, Note_on_c, 0, 71, 41
2, 80005, Note_on_c, 0, 75, 46
2, 80006, Note_on_c, 0, 78, 41
2, 80006, Note_on_c, 0, 83, 46
2, 80048, Note_on_c, 0, 54, 0
2, 80048, Note_on_c, 0, 47, 0
2, 80048, Note_on_c, 0, 51, 0
2, 80049, Note_on_c, 0, 59, 0
2, 80051, Note_on_c, 0, 71, 0
2, 80051, Note_on_c, 0, 75, 0
2, 80052, Note_on_c, 0, 78, 0
2, 80053, Note_on_c, 0, 83, 0
2, 80138, Note_on_c, 0, 59, 48
2, 80140, Note_on_c, 0, 71, 45
2, 80223, Note_on_c, 0, 59, 0
2, 80225, Note_on_c, 0, 71, 0
2, 80232, Note_on_c, 0, 58, 48
2, 80234, Note_on_c, 0, 70, 45
2, 80270, Note_on_c, 0, 58, 0
2, 80272, Note_on_c, 0, 70, 0
2, 80280, Note_on_c, 0, 59, 44
2, 80280, Note_on_c, 0, 71, 42
2, 80327, Note_on_c, 0, 59, 0
2, 80328, Note_on_c, 0, 71, 0
2, 80417, Note_on_c, 0, 76, 43
2, 80418, Note_on_c, 0, 88, 41
2, 80487, Note_on_c, 0, 76, 0
2, 80503, Note_on_c, 0, 88, 0
2, 80511, Note_on_c, 0, 78, 46
2, 80511, Note_on_c, 0, 90, 45
2, 80548, Note_on_c, 0, 90, 0
2, 80548, Note_on_c, 0, 78, 0
2, 80555, Note_on_c, 0, 52, 44
2, 80555, Note_on_c, 0, 55, 47
2, 80556, Note_on_c, 0, 59, 41
2, 80558, Note_on_c, 0, 79, 41
2, 80570, Note_on_c, 0, 91, 45
2, 80604, Note_on_c, 0, 55, 0
2, 80604, Note_on_c, 0, 52, 0
2, 80605, Note_on_c, 0, 59, 0
2, 80641, Note_on_c, 0, 79, 0
2, 80647, Note_on_c, 0, 91, 0
2, 80650, Note_on_c, 0, 78, 45
2, 80651, Note_on_c, 0, 90, 48
2, 80686, Note_on_c, 0, 78, 0
2, 80688, Note_on_c, 0, 90, 0
2, 80689, Note_on_c, 0, 52, 47
2, 80690, Note_on_c, 0, 55, 43
2, 80691, Note_on_c, 0, 59, 44
2, 80693, Note_on_c, 0, 77, 43
2, 80695, Note_on_c, 0, 89, 41
2, 80728, Note_on_c, 0, 77, 0
2, 80728, Control_c, 0, 64, 127
2, 80731, Note_on_c, 0, 89, 0
2, 80736, Note_on_c, 0, 52, 0
2, 80736, Note_on_c, 0, 55, 0
2, 80736, Note_on_c, 0, 59, 0
2, 80784, Note_on_c, 0, 76, 48
2, 80785, Note_on_c, 0, 88, 42
2, 80827, Note_on_c, 0, 52, 42
2, 80827, Note_on_c, 0, 55, 46
2, 80828, Note_on_c, 0, 58, 45
2, 80828, Note_on_c, 0, 61, 43
2, 80881, Control_c, 0, 64, 0
2, 80912, Note_on_c, 0, 76, 0
2, 80914, Note_on_c, 0, 88, 0
2, 80918, Note_on_c, 0, 73, 44
2, 80920, Note_on_c, 0, 85, 41
2, 80956, Note_on_c, 0, 73, 0
2, 80957, Note_on_c, 0, 85, 0
2, 80963, Note_on_c, 0, 71, 46
2, 80965, Note_on_c, 0, 83, 43
2, 81045, Note_on_c, 0, 52, 0
2, 81046, Note_on_c, 0, 55, 0
2, 81048, Note_on_c, 0, 71, 0
2, 81049, Note_on_c, 0, 83, 0
2, 81055, Note_on_c, 0, 70, 46
2, 81057, Note_on_c, 0, 82, 44
2, 81094, Note_on_c, 0, 61, 0
2, 81094, Note_on_c, 0, 58, 0
2, 81095, Note_on_c, 0, 70, 0
2, 81096, Note_on_c, 0, 82, 0
2, 81101, Note_on_c, 0, 52, 47
2, 81101, Note_on_c, 0, 55, 44
2, 81101, Note_on_c, 0, 57, 48
2, 81102, Note_on_c, 0, 60, 42
2, 81103, Note_on_c, 0, 69, 46
2, 81105, Note_on_c, 0, 81, 43
2, 81191, Note_on_c, 0, 69, 0
2, 81192, Note_on_c, 0, 81, 0
2, 81201, Note_on_c, 0, 71, 45
2, 81203, Note_on_c, 0, 83, 47
2, 81241, Note_on_c, 0, 71, 0
2, 81242, Note_on_c, 0, 83, 0
2, 81250, Note_on_c, 0, 72, 42
2, 81251, Note_on_c, 0, 84, 41
2, 81331, Note_on_c, 0, 60, 0
2, 81331, Note_on_c, 0, 57, 0
2, 81333, Note_on_c, 0, 72, 0
2, 81335, Note_on_c, 0, 84, 0
2, 81339, Note_on_c, 0, 69, 47
2, 81340, Note_on_c, 0, 81, 41
2, 81377, Note_on_c, 0, 52, 0
2, 81377, Note_on_c, 0, 55, 0
2, 81379, Note_on_c, 0, 69, 0
2, 81380, Note_on_c, 0, 81, 0
2, 81385, Note_on_c, 0, 51, 42
2, 81385, Note_on_c, 0, 54, 43
2, 81385, Note_on_c, 0, 57, 47
2, 81386, Note_on_c, 0, 60, 42
2, 81387, Note_on_c, 0, 72, 42
2, 81389, Note_on_c, 0, 84, 41
2, 81473, Note_on_c, 0, 72, 0
2, 81475, Note_on_c, 0, 84, 0
2, 81484, Note_on_c, 0, 75, 45
2, 81485, Note_on_c, 0, 87, 46
2, 81523, Note_on_c, 0, 75, 0
2, 81529, Note_on_c, 0, 87, 0
2, 81531, Note_on_c, 0, 78, 46
2, 81533, Note_on_c, 0, 90, 41
2, 81616, Note_on_c, 0, 57, 0
2, 81616, Note_on_c, 0, 51, 0
2, 81617, Note_on_c, 0, 60, 0
2, 81620, Note_on_c, 0, 78, 0
2, 81622, Note_on_c, 0, 90, 0
2, 81629, Note_on_c, 0, 54, 0
2, 81672, Note_on_c, 0, 52, 45
2, 81673, Note_on_c, 0, 55, 42
2, 81674, Note_on_c, 0, 59, 48
2, 81677, Note_on_c, 0, 79, 42
2, 81678, Note_on_c, 0, 91, 42
2, 81722, Note_on_c, 0, 52, 0
2, 81723, Note_on_c, 0, 55, 0
2, 81724, Note_on_c, 0, 59, 0
2, 81761, Note_on_c, 0, 79, 0
2, 81766, Note_on_c, 0, 91, 0
2, 81768, Note_on_c, 0, 78, 41
2, 81770, Note_on_c, 0, 90, 43
2, 81810, Note_on_c, 0, 78, 0
2, 81815, Note_on_c, 0, 52, 48
2, 81816, Note_on_c, 0, 90, 0
2, 81816, Note_on_c, 0, 55, 46
2, 81816, Note_on_c, 0, 59, 42
2, 81819, Note_on_c, 0, 77, 47
2, 81820, Note_on_c, 0, 89, 48
2, 81858, Note_on_c, 0, 77, 0
2, 81860, Note_on_c, 0, 89, 0
2, 81868, Note_on_c, 0, 52, 0
2, 81869, Note_on_c, 0, 59, 0
2, 81869, Note_on_c, 0, 55, 0
2, 81915, Note_on_c, 0, 76, 41
2, 81917, Note_on_c, 0, 88, 47
2, 81934, Control_c, 0, 64, 127
2, 81957, Note_on_c, 0, 55, 41
2, 81959, Note_on_c, 0, 52, 48
2, 81960, Note_on_c, 0, 58, 41
2, 81960, Note_on_c, 0, 61, 47
2, 82045, Note_on_c, 0, 76, 0
2, 82046, Note_on_c, 0, 88, 0
2, 82050, Control_c, 0, 64, 0
2, 82053, Note_on_c, 0, 73, 43
2, 82055, Note_on_c, 0, 85, 47
2, 82092, Note_on_c, 0, 73, 0
2, 82093, Note_on_c, 0, 85, 0
2, 82102, Note_on_c, 0, 71, 47
2, 82103, Note_on_c, 0, 83, 46
2, 82182, Note_on_c, 0, 52, 0
2, 82184, Note_on_c, 0, 71, 0
2, 82186, Note_on_c, 0, 83, 0
2, 82193, Note_on_c, 0, 70, 43
2, 82195, Note_on_c, 0, 82, 41
2, 82229, Note_on_c, 0, 55, 0
2, 82229, Note_on_c, 0, 58, 0
2, 82230, Note_on_c, 0, 61, 0
2, 82231, Note_on_c, 0, 70, 0
2, 82234, Note_on_c, 0, 82, 0
2, 82238, Note_on_c, 0, 52, 45
2, 82238, Note_on_c, 0, 57, 42
2, 82239, Note_on_c, 0, 60, 47
2, 82241, Note_on_c, 0, 69, 41
2, 82242, Note_on_c, 0, 81, 46
2, 82322, Note_on_c, 0, 69, 0
2, 82323, Note_on_c, 0, 81, 0
2, 82330, Note_on_c, 0, 71, 44
2, 82331, Note_on_c, 0, 83, 48
2, 82355, Note_on_c, 0, 71, 0
2, 82368, Note_on_c, 0, 83, 0
2, 82374, Note_on_c, 0, 72, 47
2, 82376, Note_on_c, 0, 84, 47
2, 82460, Note_on_c, 0, 60, 0
2, 82460, Note_on_c, 0, 57, 0
2, 82463, Note_on_c, 0, 84, 0
2, 82467, Note_on_c, 0, 69, 46
2, 82469, Note_on_c, 0, 81, 43
2, 82472, Note_on_c, 0, 72, 0
2, 82503, Note_on_c, 0, 52, 0
2, 82506, Note_on_c, 0, 69, 0
2, 82507, Note_on_c, 0, 81, 0
2, 82507, Note_on_c, 0, 60, 47
2, 82514, Note_on_c, 0, 51, 42
2, 82514, Note_on_c, 0, 57, 43
2, 82515, Note_on_c, 0, 66, 48
2, 82517, Note_on_c, 0, 78, 41
2, 82563, Note_on_c, 0, 51, 0
2, 82564, Note_on_c, 0, 60, 0
2, 82564, Note_on_c, 0, 57, 0
2, 82565, Note_on_c, 0, 66, 0
2, 82567, Note_on_c, 0, 78, 0
2, 82757, Note_on_c, 0, 69, 48
2, 82757, Note_on_c, 0, 72, 45
2, 82758, Note_on_c, 0, 78, 41
2, 82780, Note_on_c, 0, 64, 41
2, 82781, Note_on_c, 0, 70, 47
2, 82782, Note_on_c, 0, 73, 48
2, 82783, Note_on_c, 0, 79, 43
2, 82786, Note_on_c, 0, 72, 0
2, 82786, Note_on_c, 0, 69, 0
2, 82787, Note_on_c, 0, 78, 0
2, 82793, Note_on_c, 0, 65, 45
2, 82793, Note_on_c, 0, 71, 43
2, 82794, Note_on_c, 0, 74, 41
2, 82795, Note_on_c, 0, 80, 43
2, 82804, Note_on_c, 0, 66, 41
2, 82805, Note_on_c, 0, 72, 44
2, 82805, Note_on_c, 0, 75, 43
2, 82806, Note_on_c, 0, 81, 48
2, 82808, Note_on_c, 0, 64, 0
2, 82809, Note_on_c, 0, 70, 0
2, 82809, Note_on_c, 0, 73, 0
2, 82810, Note_on_c, 0, 79, 0
2, 82820, Note_on_c, 0, 65, 0
2, 82821, Note_on_c, 0, 71, 0
2, 82822, Note_on_c, 0, 80, 0
2, 82822, Note_on_c, 0, 74, 0
2, 82890, Note_on_c, 0, 66, 0
2, 82891, Note_on_c, 0, 72, 0
2, 82891, Note_on_c, 0, 75, 0
2, 82892, Note_on_c, 0, 81, 0
2, 82898, Note_on_c, 0, 65, 48
2, 82899, Note_on_c, 0, 71, 46
2, 82899, Note_on_c, 0, 74, 46
2, 82900, Note_on_c, 0, 80, 43
2, 82936, Note_on_c, 0, 74, 0
2, 82936, Note_on_c, 0, 65, 0
2, 82936, Note_on_c, 0, 71, 0
2, 82938, Note_on_c, 0, 80, 0
2, 82943, Note_on_c, 0, 64, 44
2, 82944, Note_on_c, 0, 70, 44
2, 82944, Note_on_c, 0, 73, 42
2, 82944, Note_on_c, 0, 79, 42
2, 82979, Note_on_c, 0, 64, 0
2, 82980, Note_on_c, 0, 70, 0
2, 82980, Note_on_c, 0, 73, 0
2, 82982, Note_on_c, 0, 79, 0
2, 83033, Note_on_c, 0, 63, 43
2, 83034, Note_on_c, 0, 69, 48
2, 83034, Note_on_c, 0, 72, 42
2, 83036, Note_on_c, 0, 78, 41
2, 83162, Note_on_c, 0, 69, 0
2, 83162, Note_on_c, 0, 63, 0
2, 83163, Note_on_c, 0, 72, 0
2, 83164, Note_on_c, 0, 78, 0
2, 83169, Note_on_c, 0, 62, 44
2, 83170, Note_on_c, 0, 68, 45
2, 83171, Note_on_c, 0, 71, 42
2, 83172, Note_on_c, 0, 77, 46
2, 83207, Note_on_c, 0, 62, 0
2, 83208, Note_on_c, 0, 68, 0
2, 83208, Note_on_c, 0, 71, 0
2, 83208, Note_on_c, 0, 77, 0
2, 83213, Note_on_c, 0, 61, 41
2, 83214, Note_on_c, 0, 67, 47
2, 83215, Note_on_c, 0, 70, 45
2, 83216, Note_on_c, 0, 76, 45
2, 83296, Note_on_c, 0, 67, 0
2, 83296, Note_on_c, 0, 61, 0
2, 83297, Note_on_c, 0, 70, 0
2, 83298, Note_on_c, 0, 76, 0
2, 83303, Note_on_c, 0, 60, 44
2, 83304, Note_on_c, 0, 66, 45
2, 83304, Note_on_c, 0, 69, 45
2, 83304, Note_on_c, 0, 75, 42
2, 83341, Note_on_c, 0, 60, 0
2, 83342, Note_on_c, 0, 66, 0
2, 83342, Note_on_c, 0, 69, 0
2, 83343, Note_on_c, 0, 75, 0
2, 83348, Note_on_c, 0, 59, 43
2, 83349, Note_on_c, 0, 65, 48
2, 83350, Note_on_c, 0, 68, 43
2, 83350, Note_on_c, 0, 74, 47
2, 83433, Note_on_c, 0, 59, 0
2, 83434, Note_on_c, 0, 65, 0
2, 83434, Note_on_c, 0, 68, 0
2, 83435, Note_on_c, 0, 74, 0
2, 83443, Note_on_c, 0, 58, 44
2, 83443, Note_on_c, 0, 64, 48
2, 83444, Note_on_c, 0, 67, 41
2, 83445, Note_on_c, 0, 73, 43
2, 83482, Note_on_c, 0, 64, 0
2, 83482, Note_on_c, 0, 58, 0
2, 83483, Note_on_c, 0, 67, 0
2, 83484, Note_on_c, 0, 73, 0
2, 83491, Note_on_c, 0, 57, 42
2, 83492, Note_on_c, 0, 63, 43
2, 83492, Note_on_c, 0, 66, 45
2, 83493, Note_on_c, 0, 72, 46
2, 83530, Note_on_c, 0, 66, 0
2, 83530, Note_on_c, 0, 57, 0
2, 83530, Note_on_c, 0, 63, 0
2, 83531, Note_on_c, 0, 72, 0
2, 83585, Note_on_c, 0, 56, 48
2, 83585, Note_on_c, 0, 62, 44
2, 83586, Note_on_c, 0, 65, 48
2, 83586, Note_on_c, 0, 71, 45
2, 83718, Note_on_c, 0, 56, 0
2, 83719, Note_on_c, 0, 62, 0
2, 83719, Note_on_c, 0, 65, 0
2, 83720, Note_on_c, 0, 71, 0
2, 83728, Note_on_c, 0, 55, 44
2, 83729, Note_on_c, 0, 61, 43
2, 83729, Note_on_c, 0, 64, 45
2, 83731, Note_on_c, 0, 70, 46
2, 83767, Note_on_c, 0, 55, 0
2, 83768, Note_on_c, 0, 64, 0
2, 83769, Note_on_c, 0, 61, 0
2, 83770, Note_on_c, 0, 70, 0
2, 83776, Note_on_c, 0, 54, 46
2, 83777, Note_on_c, 0, 60, 46
2, 83777, Note_on_c, 0, 63, 43
2, 83778, Note_on_c, 0, 69, 48
2, 83862, Note_on_c, 0, 69, 0
2, 83871, Note_on_c, 0, 68, 42
2, 83908, Note_on_c, 0, 54, 0
2, 83908, Note_on_c, 0, 60, 0
2, 83909, Note_on_c, 0, 63, 0
2, 83910, Note_on_c, 0, 68, 0
2, 83915, Note_on_c, 0, 43, 46
2, 83916, Note_on_c, 0, 55, 41
2, 83917, Note_on_c, 0, 59, 42
2, 83918, Note_on_c, 0, 62, 43
2, 83918, Note_on_c, 0, 65, 43
2, 83918, Note_on_c, 0, 67, 42
2, 83963, Note_on_c, 0, 43, 0
2, 83966, Note_on_c, 0, 55, 0
2, 83967, Note_on_c, 0, 59, 0
2, 83968, Note_on_c, 0, 62, 0
2, 83968, Note_on_c, 0, 65, 0
2, 83968, Note_on_c, 0, 67, 0
2, 84064, Note_on_c, 0, 67, 45
2, 84067, Note_on_c, 0, 79, 45
2, 84080, Note_on_c, 0, 91, 45
2, 84143, Note_on_c, 0, 67, 0
2, 84157, Note_on_c, 0, 79, 0
2, 84161, Note_on_c, 0, 91, 0
2, 84165, Note_on_c, 0, 66, 46
2, 84167, Note_on_c, 0, 78, 46
2, 84168, Note_on_c, 0, 90, 43
2, 84203, Note_on_c, 0, 66, 0
2, 84205, Note_on_c, 0, 78, 0
2, 84206, Note_on_c, 0, 90, 0
2, 84212, Note_on_c, 0, 67, 48
2, 84214, Note_on_c, 0, 79, 47
2, 84215, Note_on_c, 0, 91, 42
2, 84261, Note_on_c, 0, 67, 0
2, 84263, Note_on_c, 0, 79, 0
2, 84264, Note_on_c, 0, 91, 0
2, 84356, Note_on_c, 0, 55, 48
2, 84357, Note_on_c, 0, 67, 45
2, 84359, Note_on_c, 0, 79, 46
2, 84431, Note_on_c, 0, 67, 0
2, 84432, Note_on_c, 0, 79, 0
2, 84442, Note_on_c, 0, 55, 0
2, 84450, Note_on_c, 0, 54, 44
2, 84452, Note_on_c, 0, 66, 44
2, 84454, Note_on_c, 0, 78, 41
2, 84488, Note_on_c, 0, 54, 0
2, 84489, Note_on_c, 0, 66, 0
2, 84490, Note_on_c, 0, 78, 0
2, 84498, Note_on_c, 0, 55, 46
2, 84499, Note_on_c, 0, 67, 45
2, 84501, Note_on_c, 0, 79, 45
2, 84545, Note_on_c, 0, 55, 0
2, 84547, Note_on_c, 0, 67, 0
2, 84548, Note_on_c, 0, 79, 0
2, 84633, Note_on_c, 0, 40, 47
2, 84634, Note_on_c, 0, 52, 43
2, 84638, Note_on_c, 0, 79, 42
2, 84638, Note_on_c, 0, 83, 42
2, 84639, Note_on_c, 0, 88, 48
2, 84639, Note_on_c, 0, 91, 46
2, 84764, Note_on_c, 0, 40, 0
2, 84765, Note_on_c, 0, 52, 0
2, 84768, Note_on_c, 0, 79, 0
2, 84769, Note_on_c, 0, 83, 0
2, 84770, Note_on_c, 0, 88, 0
2, 84770, Note_on_c, 0, 91, 0
2, 84772, Note_on_c, 0, 39, 47
2, 84776, Note_on_c, 0, 51, 47
2, 84779, Note_on_c, 0, 78, 47
2, 84780, Note_on_c, 0, 81, 44
2, 84780, Note_on_c, 0, 84, 45
2, 84780, Note_on_c, 0, 87, 41
2, 84781, Note_on_c, 0, 90, 46
2, 84902, Note_on_c, 0, 39, 0
2, 84903, Note_on_c, 0, 51, 0
2, 84907, Note_on_c, 0, 78, 0
2, 84907, Note_on_c, 0, 84, 0
2, 84907, Note_on_c, 0, 81, 0
2, 84907, Note_on_c, 0, 87, 0
2, 84908, Note_on_c, 0, 90, 0
2, 84912, Note_on_c, 0, 38, 45
2, 84914, Note_on_c, 0, 50, 45
2, 84917, Note_on_c, 0, 77, 46
2, 84917, Note_on_c, 0, 79, 47
2, 84918, Note_on_c, 0, 83, 43
2, 84919, Note_on_c, 0, 89, 48
2, 84940, Note_on_c, 0, 86, 46
2, 85004, Note_on_c, 0, 79, 0
2, 85048, Note_on_c, 0, 38, 0
2, 85049, Note_on_c, 0, 50, 0
2, 85053, Note_on_c, 0, 77, 0
2, 85054, Note_on_c, 0, 86, 0
2, 85054, Note_on_c, 0, 83, 0
2, 85054, Note_on_c, 0, 89, 0
2, 85059, Note_on_c, 0, 36, 47
2, 85060, Note_on_c, 0, 48, 43
2, 85064, Note_on_c, 0, 76, 42
2, 85064, Note_on_c, 0, 79, 46
2, 85064, Note_on_c, 0, 84, 48
2, 85065, Note_on_c, 0, 88, 43
2, 85108, Note_on_c, 0, 36, 0
2, 85110, Note_on_c, 0, 48, 0
2, 85201, Note_on_c, 0, 52, 42
2, 85202, Note_on_c, 0, 55, 44
2, 85203, Note_on_c, 0, 60, 48
2, 85207, Note_on_c, 0, 76, 0
2, 85208, Note_on_c, 0, 79, 0
2, 85208, Note_on_c, 0, 84, 0
2, 85212, Note_on_c, 0, 88, 0
2, 85229, Note_on_c, 0, 52, 0
2, 85229, Note_on_c, 0, 55, 0
2, 85230, Note_on_c, 0, 60, 0
2, 85300, Note_on_c, 0, 76, 44
2, 85301, Note_on_c, 0, 88, 48
2, 85337, Note_on_c, 0, 76, 0
2, 85339, Note_on_c, 0, 88, 0
2, 85344, Note_on_c, 0, 43, 43
2, 85345, Note_on_c, 0, 55, 41
2, 85348, Note_on_c, 0, 75, 43
2, 85348, Note_on_c, 0, 79, 43
2, 85349, Note_on_c, 0, 84, 45
2, 85349, Note_on_c, 0, 87, 47
2, 85391, Note_on_c, 0, 43, 0
2, 85392, Note_on_c, 0, 55, 0
2, 85430, Note_on_c, 0, 75, 0
2, 85431, Note_on_c, 0, 79, 0
2, 85431, Note_on_c, 0, 84, 0
2, 85431, Note_on_c, 0, 87, 0
2, 85440, Note_on_c, 0, 76, 43
2, 85441, Note_on_c, 0, 88, 45
2, 85476, Note_on_c, 0, 76, 0
2, 85477, Note_on_c, 0, 88, 0
2, 85481, Note_on_c, 0, 52, 41
2, 85482, Note_on_c, 0, 55, 45
2, 85483, Note_on_c, 0, 60, 45
2, 85485, Note_on_c, 0, 79, 41
2, 85486, Note_on_c, 0, 91, 45
2, 85507, Note_on_c, 0, 55, 0
2, 85507, Note_on_c, 0, 52, 0
2, 85508, Note_on_c, 0, 60, 0
2, 85521, Note_on_c, 0, 79, 0
2, 85523, Note_on_c, 0, 91, 0
2, 85575, Note_on_c, 0, 84, 48
2, 85576, Note_on_c, 0, 88, 47
2, 85576, Note_on_c, 0, 91, 44
2, 85577, Note_on_c, 0, 96, 41
2, 85615, Note_on_c, 0, 36, 42
2, 85617, Note_on_c, 0, 48, 45
2, 85664, Note_on_c, 0, 36, 0
2, 85665, Note_on_c, 0, 48, 0
2, 85704, Note_on_c, 0, 84, 0
2, 85704, Note_on_c, 0, 91, 0
2, 85704, Note_on_c, 0, 88, 0
2, 85709, Note_on_c, 0, 83, 48
2, 85713, Note_on_c, 0, 95, 46
2, 85720, Note_on_c, 0, 96, 0
2, 85752, Note_on_c, 0, 83, 0
2, 85757, Note_on_c, 0, 95, 0
2, 85758, Note_on_c, 0, 52, 48
2, 85758, Note_on_c, 0, 55, 41
2, 85759, Note_on_c, 0, 60, 45
2, 85761, Note_on_c, 0, 81, 41
2, 85762, Note_on_c, 0, 84, 48
2, 85762, Note_on_c, 0, 88, 42
2, 85762, Note_on_c, 0, 93, 46
2, 85784, Note_on_c, 0, 52, 0
2, 85785, Note_on_c, 0, 55, 0
2, 85785, Note_on_c, 0, 60, 0
2, 85844, Note_on_c, 0, 84, 0
2, 85844, Note_on_c, 0, 81, 0
2, 85844, Note_on_c, 0, 88, 0
2, 85845, Note_on_c, 0, 93, 0
2, 85893, Note_on_c, 0, 31, 42
2, 85894, Note_on_c, 0, 43, 42
2, 85897, Note_on_c, 0, 81, 42
2, 85897, Note_on_c, 0, 83, 48
2, 85898, Note_on_c, 0, 87, 46
2, 85898, Note_on_c, 0, 93, 44
2, 85934, Note_on_c, 0, 87, 0
2, 85934, Note_on_c, 0, 83, 0
2, 85934, Note_on_c, 0, 81, 0
2, 85935, Note_on_c, 0, 93, 0
2, 85940, Note_on_c, 0, 31, 0
2, 85941, Note_on_c, 0, 43, 0
2, 85986, Note_on_c, 0, 88, 41
2, 85988, Note_on_c, 0, 79, 46
2, 85989, Note_on_c, 0, 84, 46
2, 85990, Note_on_c, 0, 91, 47
2, 86030, Note_on_c, 0, 52, 47
2, 86031, Note_on_c, 0, 55, 46
2, 86032, Note_on_c, 0, 60, 48
2, 86056, Note_on_c, 0, 55, 0
2, 86056, Note_on_c, 0, 52, 0
2, 86057, Note_on_c, 0, 60, 0
2, 86114, Note_on_c, 0, 84, 0
2, 86114, Note_on_c, 0, 79, 0
2, 86115, Note_on_c, 0, 88, 0
2, 86115, Note_on_c, 0, 91, 0
2, 86163, Note_on_c, 0, 36, 46
2, 86166, Note_on_c, 0, 48, 42
2, 86169, Note_on_c, 0, 76, 48
2, 86169, Note_on_c, 0, 84, 41
2, 86170, Note_on_c, 0, 79, 48
2, 86171, Note_on_c, 0, 88, 45
2, 86214, Note_on_c, 0, 36, 0
2, 86215, Note_on_c, 0, 48, 0
2, 86306, Note_on_c, 0, 52, 46
2, 86307, Note_on_c, 0, 55, 43
2, 86308, Note_on_c, 0, 60, 44
2, 86313, Note_on_c, 0, 76, 0
2, 86314, Note_on_c, 0, 84, 0
2, 86314, Note_on_c, 0, 79, 0
2, 86315, Note_on_c, 0, 88, 0
2, 86334, Note_on_c, 0, 52, 0
2, 86335, Note_on_c, 0, 55, 0
2, 86335, Note_on_c, 0, 60, 0
2, 86408, Note_on_c, 0, 76, 48
2, 86410, Note_on_c, 0, 88, 45
2, 86448, Note_on_c, 0, 76, 0
2, 86450, Note_on_c, 0, 88, 0
2, 86453, Note_on_c, 0, 37, 46
2, 86454, Note_on_c, 0, 49, 42
2, 86457, Note_on_c, 0, 75, 45
2, 86457, Note_on_c, 0, 78, 43
2, 86458, Note_on_c, 0, 82, 43
2, 86459, Note_on_c, 0, 87, 47
2, 86543, Note_on_c, 0, 75, 0
2, 86544, Note_on_c, 0, 82, 0
2, 86544, Note_on_c, 0, 78, 0
2, 86544, Note_on_c, 0, 87, 0
2, 86552, Note_on_c, 0, 76, 44
2, 86553, Note_on_c, 0, 88, 42
2, 86592, Note_on_c, 0, 76, 0
2, 86594, Note_on_c, 0, 88, 0
2, 86600, Note_on_c, 0, 55, 41
2, 86600, Note_on_c, 0, 58, 41
2, 86601, Note_on_c, 0, 61, 46
2, 86601, Note_on_c, 0, 64, 42
2, 86603, Note_on_c, 0, 79, 45
2, 86604, Note_on_c, 0, 91, 42
2, 86628, Note_on_c, 0, 58, 0
2, 86628, Note_on_c, 0, 55, 0
2, 86629, Note_on_c, 0, 61, 0
2, 86629, Note_on_c, 0, 64, 0
2, 86681, Note_on_c, 0, 79, 0
2, 86700, Note_on_c, 0, 91, 0
2, 86701, Note_on_c, 0, 76, 48
2, 86703, Note_on_c, 0, 88, 44
2, 86736, Note_on_c, 0, 37, 0
2, 86737, Note_on_c, 0, 49, 0
2, 86740, Note_on_c, 0, 76, 0
2, 86742, Note_on_c, 0, 88, 0
2, 86744, Note_on_c, 0, 38, 42
2, 86746, Note_on_c, 0, 50, 42
2, 86750, Note_on_c, 0, 77, 48
2, 86750, Note_on_c, 0, 83, 45
2, 86751, Note_on_c, 0, 81, 42
2, 86751, Note_on_c, 0, 89, 43
2, 86795, Note_on_c, 0, 38, 0
2, 86797, Note_on_c, 0, 50, 0
2, 86800, Note_on_c, 0, 77, 0
2, 86801, Note_on_c, 0, 83, 0
2, 86801, Note_on_c, 0, 81, 0
2, 86802, Note_on_c, 0, 89, 0
2, 86888, Note_on_c, 0, 55, 41
2, 86889, Note_on_c, 0, 59, 45
2, 86889, Note_on_c, 0, 62, 45
2, 86889, Note_on_c, 0, 65, 46
2, 86891, Note_on_c, 0, 77, 42
2, 86892, Note_on_c, 0, 81, 43
2, 86892, Note_on_c, 0, 83, 45
2, 86893, Note_on_c, 0, 89, 48
2, 86915, Note_on_c, 0, 55, 0
2, 86916, Note_on_c, 0, 59, 0
2, 86917, Note_on_c, 0, 65, 0
2, 86917, Note_on_c, 0, 62, 0
2, 86967, Control_c, 0, 64, 127
2, 86977, Note_on_c, 0, 77, 0
2, 86978, Note_on_c, 0, 83, 0
2, 86978, Note_on_c, 0, 81, 0
2, 86979, Note_on_c, 0, 89, 0
2, 86986, Note_on_c, 0, 76, 42
2, 86987, Note_on_c, 0, 79, 47
2, 86988, Note_on_c, 0, 88, 47
2, 87019, Control_c, 0, 64, 0
2, 87026, Note_on_c, 0, 76, 0
2, 87027, Note_on_c, 0, 79, 0
2, 87028, Note_on_c, 0, 88, 0
2, 87030, Note_on_c, 0, 31, 48
2, 87032, Note_on_c, 0, 43, 43
2, 87036, Note_on_c, 0, 74, 48
2, 87037, Note_on_c, 0, 77, 44
2, 87038, Note_on_c, 0, 86, 47
2, 87076, Control_c, 0, 64, 127
2, 87081, Note_on_c, 0, 31, 0
2, 87082, Note_on_c, 0, 43, 0
2, 87108, Note_on_c, 0, 77, 0
2, 87108, Note_on_c, 0, 74, 0
2, 87110, Note_on_c, 0, 86, 0
2, 87125, Control_c, 0, 64, 0
2, 87131, Note_on_c, 0, 98, 44
2, 87172, Note_on_c, 0, 55, 43
2, 87172, Note_on_c, 0, 59, 41
2, 87173, Note_on_c, 0, 62, 48
2, 87173, Note_on_c, 0, 65, 46
2, 87176, Note_on_c, 0, 86, 44
2, 87187, Note_on_c, 0, 98, 0
2, 87200, Note_on_c, 0, 55, 0
2, 87201, Note_on_c, 0, 65, 0
2, 87201, Note_on_c, 0, 62, 0
2, 87201, Note_on_c, 0, 59, 0
2, 87259, Note_on_c, 0, 86, 0
2, 87275, Note_on_c, 0, 87, 46
2, 87315, Note_on_c, 0, 87, 0
2, 87319, Note_on_c, 0, 36, 46
2, 87321, Note_on_c, 0, 48, 48
2, 87324, Note_on_c, 0, 76, 48
2, 87324, Note_on_c, 0, 79, 43
2, 87325, Note_on_c, 0, 84, 44
2, 87326, Note_on_c, 0, 88, 44
2, 87371, Note_on_c, 0, 36, 0
2, 87384, Note_on_c, 0, 48, 0
2, 87462, Note_on_c, 0, 52, 44
2, 87463, Note_on_c, 0, 55, 47
2, 87464, Note_on_c, 0, 60, 46
2, 87468, Note_on_c, 0, 79, 0
2, 87468, Note_on_c, 0, 76, 0
2, 87469, Note_on_c, 0, 84, 0
2, 87473, Note_on_c, 0, 88, 0
2, 87488, Note_on_c, 0, 52, 0
2, 87489, Note_on_c, 0, 60, 0
2, 87489, Note_on_c, 0, 55, 0
2, 87557, Note_on_c, 0, 76, 42
2, 87559, Note_on_c, 0, 88, 48
2, 87597, Note_on_c, 0, 76, 0
2, 87600, Note_on_c, 0, 43, 46
2, 87601, Note_on_c, 0, 55, 41
2, 87603, Note_on_c, 0, 88, 0
2, 87605, Note_on_c, 0, 75, 44
2, 87605, Note_on_c, 0, 79, 48
2, 87606, Note_on_c, 0, 84, 42
2, 87607, Note_on_c, 0, 87, 47
2, 87652, Note_on_c, 0, 43, 0
2, 87654, Note_on_c, 0, 55, 0
2, 87693, Note_on_c, 0, 79, 0
2, 87693, Note_on_c, 0, 75, 0
2, 87694, Note_on_c, 0, 84, 0
2, 87695, Note_on_c, 0, 87, 0
2, 87700, Note_on_c, 0, 76, 47
2, 87702, Note_on_c, 0, 88, 41
2, 87741, Note_on_c, 0, 76, 0
2, 87744, Note_on_c, 0, 52, 42
2, 87745, Note_on_c, 0, 55, 45
2, 87746, Note_on_c, 0, 60, 47
2, 87748, Note_on_c, 0, 88, 0
2, 87749, Note_on_c, 0, 79, 43
2, 87750, Note_on_c, 0, 91, 45
2, 87772, Note_on_c, 0, 52, 0
2, 87773, Note_on_c, 0, 55, 0
2, 87774, Note_on_c, 0, 60, 0
2, 87788, Note_on_c, 0, 79, 0
2, 87790, Note_on_c, 0, 91, 0
2, 87790, Control_c, 0, 64, 127
2, 87843, Note_on_c, 0, 84, 43
2, 87844, Note_on_c, 0, 88, 41
2, 87844, Note_on_c, 0, 91, 45
2, 87845, Note_on_c, 0, 96, 42
2, 87887, Note_on_c, 0, 36, 41
2, 87888, Note_on_c, 0, 48, 47
2, 87938, Note_on_c, 0, 36, 0
2, 87939, Note_on_c, 0, 48, 0
2, 87979, Note_on_c, 0, 84, 0
2, 87980, Note_on_c, 0, 88, 0
2, 87980, Note_on_c, 0, 91, 0
2, 87980, Note_on_c, 0, 96, 0
2, 87984, Control_c, 0, 64, 0
2, 87987, Note_on_c, 0, 83, 45
2, 87988, Note_on_c, 0, 95, 48
2, 88026, Note_on_c, 0, 83, 0
2, 88028, Note_on_c, 0, 95, 0
2, 88032, Note_on_c, 0, 52, 45
2, 88032, Note_on_c, 0, 55, 47
2, 88033, Note_on_c, 0, 60, 47
2, 88035, Note_on_c, 0, 81, 46
2, 88035, Note_on_c, 0, 84, 44
2, 88035, Note_on_c, 0, 88, 45
2, 88036, Note_on_c, 0, 93, 48
2, 88059, Note_on_c, 0, 52, 0
2, 88060, Note_on_c, 0, 55, 0
2, 88060, Note_on_c, 0, 60, 0
2, 88120, Note_on_c, 0, 84, 0
2, 88120, Note_on_c, 0, 81, 0
2, 88121, Note_on_c, 0, 88, 0
2, 88121, Note_on_c, 0, 93, 0
2, 88168, Note_on_c, 0, 31, 43
2, 88168, Note_on_c, 0, 43, 41
2, 88172, Note_on_c, 0, 81, 45
2, 88172, Note_on_c, 0, 83, 48
2, 88173, Note_on_c, 0, 87, 46
2, 88173, Note_on_c, 0, 93, 44
2, 88208, Note_on_c, 0, 81, 0
2, 88209, Note_on_c, 0, 83, 0
2, 88210, Note_on_c, 0, 93, 0
2, 88212, Note_on_c, 0, 87, 0
2, 88215, Note_on_c, 0, 31, 0
2, 88216, Note_on_c, 0, 43, 0
2, 88263, Note_on_c, 0, 79, 44
2, 88264, Note_on_c, 0, 84, 43
2, 88265, Note_on_c, 0, 88, 46
2, 88265, Note_on_c, 0, 91, 41
2, 88305, Note_on_c, 0, 52, 47
2, 88306, Note_on_c, 0, 55, 42
2, 88307, Note_on_c, 0, 60, 43
2, 88331, Note_on_c, 0, 52, 0
2, 88332, Note_on_c, 0, 55, 0
2, 88332, Note_on_c, 0, 60, 0
2, 88390, Note_on_c, 0, 79, 0
2, 88391, Note_on_c, 0, 84, 0
2, 88392, Note_on_c, 0, 88, 0
2, 88392, Note_on_c, 0, 91, 0
2, 88439, Note_on_c, 0, 54, 48
2, 88441, Note_on_c, 0, 69, 45
2, 88442, Note_on_c, 0, 84, 43
2, 88443, Note_on_c, 0, 87, 47
2, 88443, Note_on_c, 0, 90, 41
2, 88444, Note_on_c, 0, 96, 46
2, 88479, Note_on_c, 0, 90, 0
2, 88524, Note_on_c, 0, 87, 0
2, 88524, Note_on_c, 0, 84, 0
2, 88526, Note_on_c, 0, 96, 0
2, 88530, Note_on_c, 0, 63, 46
2, 88532, Note_on_c, 0, 78, 43
2, 88533, Note_on_c, 0, 90, 43
2, 88567, Note_on_c, 0, 54, 0
2, 88568, Note_on_c, 0, 63, 0
2, 88569, Note_on_c, 0, 69, 0
2, 88570, Note_on_c, 0, 78, 0
2, 88571, Note_on_c, 0, 90, 0
2, 88574, Note_on_c, 0, 52, 46
2, 88576, Note_on_c, 0, 61, 47
2, 88576, Note_on_c, 0, 67, 42
2, 88578, Note_on_c, 0, 79, 41
2, 88579, Note_on_c, 0, 91, 48
2, 88618, Note_on_c, 0, 79, 0
2, 88620, Note_on_c, 0, 91, 0
2, 88677, Note_on_c, 0, 83, 43
2, 88677, Note_on_c, 0, 87, 47
2, 88678, Note_on_c, 0, 90, 43
2, 88678, Note_on_c, 0, 95, 45
2, 88711, Note_on_c, 0, 52, 0
2, 88713, Note_on_c, 0, 61, 0
2, 88713, Note_on_c, 0, 67, 0
2, 88721, Note_on_c, 0, 51, 45
2, 88721, Note_on_c, 0, 59, 48
2, 88722, Note_on_c, 0, 66, 46
2, 88803, Note_on_c, 0, 59, 0
2, 88803, Note_on_c, 0, 51, 0
2, 88804, Note_on_c, 0, 66, 0
2, 88807, Note_on_c, 0, 83, 0
2, 88807, Note_on_c, 0, 87, 0
2, 88808, Note_on_c, 0, 95, 0
2, 88814, Note_on_c, 0, 84, 42
2, 88815, Note_on_c, 0, 96, 46
2, 88824, Note_on_c, 0, 90, 0
2, 88855, Note_on_c, 0, 84, 0
2, 88862, Note_on_c, 0, 96, 0
2, 88862, Note_on_c, 0, 59, 45
2, 88863, Note_on_c, 0, 63, 42
2, 88863, Note_on_c, 0, 66, 48
2, 88863, Note_on_c, 0, 69, 43
2, 88865, Note_on_c, 0, 83, 46
2, 88865, Note_on_c, 0, 87, 43
2, 88865, Note_on_c, 0, 90, 45
2, 88866, Note_on_c, 0, 95, 47
2, 88890, Note_on_c, 0, 63, 0
2, 88890, Note_on_c, 0, 59, 0
2, 88891, Note_on_c, 0, 69, 0
2, 88891, Note_on_c, 0, 66, 0
2, 88961, Note_on_c, 0, 95, 0
2, 89000, Note_on_c, 0, 83, 0
2, 89000, Note_on_c, 0, 87, 0
2, 89001, Note_on_c, 0, 90, 0
2, 89005, Note_on_c, 0, 52, 47
2, 89006, Note_on_c, 0, 59, 46
2, 89007, Note_on_c, 0, 67, 42
2, 89011, Note_on_c, 0, 88, 43
2, 89011, Note_on_c, 0, 91, 46
2, 89012, Note_on_c, 0, 95, 41
2, 89013, Note_on_c, 0, 100, 44
2, 89093, Note_on_c, 0, 88, 0
2, 89094, Note_on_c, 0, 91, 0
2, 89094, Note_on_c, 0, 95, 0
2, 89095, Note_on_c, 0, 100, 0
2, 89100, Note_on_c, 0, 82, 41
2, 89102, Note_on_c, 0, 94, 48
2, 89134, Note_on_c, 0, 52, 0
2, 89135, Note_on_c, 0, 59, 0
2, 89136, Note_on_c, 0, 67, 0
2, 89138, Note_on_c, 0, 82, 0
2, 89140, Note_on_c, 0, 94, 0
2, 89144, Note_on_c, 0, 51, 42
2, 89144, Note_on_c, 0, 60, 46
2, 89145, Note_on_c, 0, 66, 46
2, 89148, Note_on_c, 0, 83, 45
2, 89151, Note_on_c, 0, 95, 42
2, 89187, Note_on_c, 0, 83, 0
2, 89189, Note_on_c, 0, 95, 0
2, 89243, Note_on_c, 0, 81, 48
2, 89244, Note_on_c, 0, 83, 48
2, 89244, Note_on_c, 0, 86, 45
2, 89244, Note_on_c, 0, 89, 43
2, 89245, Note_on_c, 0, 93, 45
2, 89267, Note_on_c, 0, 51, 0
2, 89269, Note_on_c, 0, 60, 0
2, 89269, Note_on_c, 0, 66, 0
2, 89276, Note_on_c, 0, 50, 41
2, 89288, Note_on_c, 0, 59, 46
2, 89288, Note_on_c, 0, 65, 42
2, 89370, Note_on_c, 0, 50, 0
2, 89372, Note_on_c, 0, 59, 0
2, 89373, Note_on_c, 0, 65, 0
2, 89375, Note_on_c, 0, 81, 0
2, 89376, Note_on_c, 0, 83, 0
2, 89376, Note_on_c, 0, 86, 0
2, 89376, Note_on_c, 0, 89, 0
2, 89376, Note_on_c, 0, 93, 0
2, 89382, Note_on_c, 0, 79, 45
2, 89384, Note_on_c, 0, 91, 47
2, 89421, Note_on_c, 0, 79, 0
2, 89424, Note_on_c, 0, 43, 47
2, 89425, Note_on_c, 0, 91, 0
2, 89425, Note_on_c, 0, 55, 45
2, 89427, Note_on_c, 0, 74, 48
2, 89429, Note_on_c, 0, 86, 42
2, 89501, Note_on_c, 0, 74, 0
2, 89502, Note_on_c, 0, 86, 0
2, 89521, Note_on_c, 0, 75, 44
2, 89522, Note_on_c, 0, 87, 45
2, 89556, Note_on_c, 0, 43, 0
2, 89558, Note_on_c, 0, 55, 0
2, 89561, Note_on_c, 0, 75, 0
2, 89562, Note_on_c, 0, 87, 0
2, 89566, Note_on_c, 0, 36, 43
2, 89567, Note_on_c, 0, 48, 41
2, 89569, Note_on_c, 0, 76, 42
2, 89570, Note_on_c, 0, 79, 41
2, 89570, Note_on_c, 0, 84, 46
2, 89571, Note_on_c, 0, 88, 42
2, 89615, Note_on_c, 0, 36, 0
2, 89616, Note_on_c, 0, 48, 0
2, 89698, Note_on_c, 0, 76, 0
2, 89699, Note_on_c, 0, 79, 0
2, 89700, Note_on_c, 0, 84, 0
2, 89701, Note_on_c, 0, 88, 0
2, 89705, Note_on_c, 0, 52, 41
2, 89706, Note_on_c, 0, 55, 47
2, 89706, Note_on_c, 0, 60, 42
2, 89731, Note_on_c, 0, 52, 0
2, 89732, Note_on_c, 0, 60, 0
2, 89732, Note_on_c, 0, 55, 0
2, 89800, Note_on_c, 0, 76, 44
2, 89802, Note_on_c, 0, 88, 41
2, 89837, Note_on_c, 0, 76, 0
2, 89840, Note_on_c, 0, 88, 0
2, 89842, Note_on_c, 0, 43, 48
2, 89844, Note_on_c, 0, 55, 48
2, 89847, Note_on_c, 0, 75, 45
2, 89848, Note_on_c, 0, 79, 41
2, 89848, Note_on_c, 0, 84, 47
2, 89849, Note_on_c, 0, 87, 41
2, 89892, Note_on_c, 0, 43, 0
2, 89894, Note_on_c, 0, 55, 0
2, 89933, Note_on_c, 0, 75, 0
2, 89934, Note_on_c, 0, 79, 0
2, 89934, Note_on_c, 0, 84, 0
2, 89935, Note_on_c, 0, 87, 0
2, 89942, Note_on_c, 0, 76, 47
2, 89945, Note_on_c, 0, 88, 48
2, 89982, Note_on_c, 0, 76, 0
2, 89988, Note_on_c, 0, 52, 42
2, 89989, Note_on_c, 0, 88, 0
2, 89989, Note_on_c, 0, 55, 42
2, 89990, Note_on_c, 0, 60, 42
2, 89992, Note_on_c, 0, 79, 44
2, 89995, Note_on_c, 0, 91, 46
2, 90014, Note_on_c, 0, 52, 0
2, 90015, Note_on_c, 0, 55, 0
2, 90015, Note_on_c, 0, 60, 0
2, 90028, Control_c, 0, 64, 127
2, 90040, Note_on_c, 0, 79, 0
2, 90046, Note_on_c, 0, 91, 0
2, 90084, Note_on_c, 0, 84, 43
2, 90085, Note_on_c, 0, 88, 42
2, 90085, Note_on_c, 0, 91, 46
2, 90086, Note_on_c, 0, 96, 41
2, 90124, Note_on_c, 0, 36, 48
2, 90127, Note_on_c, 0, 48, 47
2, 90174, Control_c, 0, 64, 0
2, 90177, Note_on_c, 0, 36, 0
2, 90179, Note_on_c, 0, 48, 0
2, 90209, Note_on_c, 0, 84, 0
2, 90220, Note_on_c, 0, 88, 0
2, 90221, Note_on_c, 0, 91, 0
2, 90221, Note_on_c, 0, 96, 0
2, 90229, Note_on_c, 0, 83, 46
2, 90231, Note_on_c, 0, 95, 48
2, 90269, Note_on_c, 0, 83, 0
2, 90274, Note_on_c, 0, 52, 41
2, 90274, Note_on_c, 0, 55, 48
2, 90275, Note_on_c, 0, 95, 0
2, 90275, Note_on_c, 0, 60, 45
2, 90278, Note_on_c, 0, 81, 48
2, 90278, Note_on_c, 0, 84, 42
2, 90279, Note_on_c, 0, 88, 48
2, 90279, Note_on_c, 0, 93, 48
2, 90302, Note_on_c, 0, 55, 0
2, 90302, Note_on_c, 0, 52, 0
2, 90303, Note_on_c, 0, 60, 0
2, 90364, Note_on_c, 0, 84, 0
2, 90364, Note_on_c, 0, 81, 0
2, 90365, Note_on_c, 0, 88, 0
2, 90366, Note_on_c, 0, 93, 0
2, 90414, Note_on_c, 0, 31, 48
2, 90415, Note_on_c, 0, 43, 43
2, 90419, Note_on_c, 0, 81, 48
2, 90420, Note_on_c, 0, 83, 47
2, 90420, Note_on_c, 0, 87, 48
2, 90421, Note_on_c, 0, 93, 45
2, 90455, Note_on_c, 0, 83, 0
2, 90455, Note_on_c, 0, 81, 0
2, 90456, Note_on_c, 0, 87, 0
2, 90456, Note_on_c, 0, 93, 0
2, 90460, Note_on_c, 0, 31, 0
2, 90461, Note_on_c, 0, 43, 0
2, 90508, Note_on_c, 0, 79, 43
2, 90508, Note_on_c, 0, 84, 44
2, 90509, Note_on_c, 0, 88, 44
2, 90509, Note_on_c, 0, 91, 45
2, 90550, Note_on_c, 0, 52, 42
2, 90550, Note_on_c, 0, 55, 47
2, 90551, Note_on_c, 0, 60, 46
2, 90576, Note_on_c, 0, 60, 0
2, 90576, Note_on_c, 0, 52, 0
2, 90576, Note_on_c, 0, 55, 0
2, 90635, Note_on_c, 0, 79, 0
2, 90636, Note_on_c, 0, 84, 0
2, 90636, Note_on_c, 0, 91, 0
2, 90637, Note_on_c, 0, 88, 0
2, 90684, Note_on_c, 0, 47, 43
2, 90685, Note_on_c, 0, 56, 48
2, 90686, Note_on_c, 0, 62, 46
2, 90690, Note_on_c, 0, 88, 42
2, 90691, Note_on_c, 0, 92, 41
2, 90691, Note_on_c, 0, 95, 44
2, 90692, Note_on_c, 0, 100, 42
2, 90764, Note_on_c, 0, 47, 0
2, 90765, Note_on_c, 0, 56, 0
2, 90766, Note_on_c, 0, 62, 0
2, 90769, Note_on_c, 0, 92, 0
2, 90769, Note_on_c, 0, 88, 0
2, 90770, Note_on_c, 0, 95, 0
2, 90770, Note_on_c, 0, 100, 0
2, 90819, Note_on_c, 0, 47, 47
2, 90821, Note_on_c, 0, 56, 43
2, 90825, Note_on_c, 0, 88, 44
2, 90825, Note_on_c, 0, 92, 42
2, 90826, Note_on_c, 0, 95, 43
2, 90827, Note_on_c, 0, 100, 47
2, 90831, Note_on_c, 0, 40, 42
2, 90862, Note_on_c, 0, 88, 0
2, 90863, Note_on_c, 0, 95, 0
2, 90863, Note_on_c, 0, 92, 0
2, 90864, Note_on_c, 0, 100, 0
2, 90916, Note_on_c, 0, 86, 43
2, 90917, Note_on_c, 0, 90, 43
2, 90917, Note_on_c, 0, 93, 46
2, 90918, Note_on_c, 0, 98, 44
2, 90938, Note_on_c, 0, 47, 0
2, 90938, Note_on_c, 0, 40, 0
2, 90939, Note_on_c, 0, 56, 0
2, 90948, Note_on_c, 0, 50, 43
2, 90959, Note_on_c, 0, 42, 41
2, 90960, Note_on_c, 0, 57, 44
2, 91044, Note_on_c, 0, 86, 0
2, 91045, Note_on_c, 0, 90, 0
2, 91045, Note_on_c, 0, 93, 0
2, 91046, Note_on_c, 0, 98, 0
2, 91052, Note_on_c, 0, 88, 42
2, 91053, Note_on_c, 0, 100, 42
2, 91083, Note_on_c, 0, 42, 0
2, 91084, Note_on_c, 0, 50, 0
2, 91084, Note_on_c, 0, 57, 0
2, 91088, Note_on_c, 0, 88, 0
2, 91090, Note_on_c, 0, 100, 0
2, 91092, Note_on_c, 0, 44, 41
2, 91094, Note_on_c, 0, 52, 44
2, 91095, Note_on_c, 0, 59, 47
2, 91099, Note_on_c, 0, 86, 45
2, 91100, Note_on_c, 0, 92, 41
2, 91100, Note_on_c, 0, 95, 43
2, 91101, Note_on_c, 0, 98, 47
2, 91176, Note_on_c, 0, 52, 0
2, 91223, Note_on_c, 0, 44, 0
2, 91224, Note_on_c, 0, 59, 0
2, 91228, Note_on_c, 0, 86, 0
2, 91229, Note_on_c, 0, 92, 0
2, 91230, Note_on_c, 0, 95, 0
2, 91230, Note_on_c, 0, 98, 0
2, 91231, Note_on_c, 0, 45, 48
2, 91232, Note_on_c, 0, 52, 48
2, 91234, Note_on_c, 0, 60, 42
2, 91238, Note_on_c, 0, 84, 44
2, 91238, Note_on_c, 0, 88, 42
2, 91239, Note_on_c, 0, 93, 47
2, 91240, Note_on_c, 0, 96, 45
2, 91269, Note_on_c, 0, 45, 0
2, 91270, Note_on_c, 0, 52, 0
2, 91271, Note_on_c, 0, 60, 0
2, 91274, Note_on_c, 0, 84, 0
2, 91275, Note_on_c, 0, 88, 0
2, 91276, Note_on_c, 0, 93, 0
2, 91276, Note_on_c, 0, 96, 0
2, 91330, Note_on_c, 0, 76, 47
2, 91334, Note_on_c, 0, 100, 42
2, 91368, Note_on_c, 0, 76, 0
2, 91371, Note_on_c, 0, 100, 0
2, 91376, Note_on_c, 0, 72, 42
2, 91380, Note_on_c, 0, 96, 42
2, 91460, Note_on_c, 0, 72, 0
2, 91464, Note_on_c, 0, 96, 0
2, 91467, Note_on_c, 0, 69, 47
2, 91471, Note_on_c, 0, 93, 47
2, 91507, Note_on_c, 0, 69, 0
2, 91515, Note_on_c, 0, 93, 0
2, 91516, Note_on_c, 0, 64, 43
2, 91519, Note_on_c, 0, 88, 43
2, 91607, Note_on_c, 0, 64, 0
2, 91609, Note_on_c, 0, 88, 0
2, 91613, Note_on_c, 0, 60, 43
2, 91617, Note_on_c, 0, 84, 43
2, 91652, Note_on_c, 0, 60, 0
2, 91655, Note_on_c, 0, 84, 0
2, 91662, Note_on_c, 0, 57, 46
2, 91665, Note_on_c, 0, 81, 43
2, 91740, Control_c, 0, 64, 127
2, 91748, Note_on_c, 0, 57, 0
2, 91752, Note_on_c, 0, 81, 0
2, 91756, Note_on_c, 0, 52, 45
2, 91759, Note_on_c, 0, 76, 45
2, 91796, Note_on_c, 0, 52, 0
2, 91800, Note_on_c, 0, 76, 0
2, 91803, Note_on_c, 0, 38, 47
2, 91806, Note_on_c, 0, 50, 44
2, 91810, Note_on_c, 0, 77, 45
2, 91811, Note_on_c, 0, 81, 46
2, 91811, Note_on_c, 0, 86, 46
2, 91812, Note_on_c, 0, 89, 47
2, 91854, Note_on_c, 0, 38, 0
2, 91856, Note_on_c, 0, 50, 0
2, 91863, Control_c, 0, 64, 0
2, 91895, Note_on_c, 0, 77, 0
2, 91896, Note_on_c, 0, 81, 0
2, 91896, Note_on_c, 0, 86, 0
2, 91896, Note_on_c, 0, 89, 0
2, 91946, Note_on_c, 0, 53, 41
2, 91946, Note_on_c, 0, 57, 41
2, 91947, Note_on_c, 0, 62, 46
2, 91950, Note_on_c, 0, 79, 48
2, 91952, Note_on_c, 0, 91, 44
2, 91972, Note_on_c, 0, 53, 0
2, 91973, Note_on_c, 0, 57, 0
2, 91974, Note_on_c, 0, 62, 0
2, 91988, Note_on_c, 0, 79, 0
2, 91993, Note_on_c, 0, 91, 0
2, 92041, Note_on_c, 0, 81, 47
2, 92042, Note_on_c, 0, 86, 42
2, 92042, Note_on_c, 0, 89, 43
2, 92043, Note_on_c, 0, 93, 47
2, 92081, Note_on_c, 0, 41, 43
2, 92083, Note_on_c, 0, 53, 43
2, 92130, Note_on_c, 0, 41, 0
2, 92131, Note_on_c, 0, 53, 0
2, 92160, Note_on_c, 0, 81, 0
2, 92160, Note_on_c, 0, 86, 0
2, 92161, Note_on_c, 0, 93, 0
2, 92176, Note_on_c, 0, 89, 0
2, 92180, Note_on_c, 0, 83, 46
2, 92181, Note_on_c, 0, 95, 42
2, 92219, Note_on_c, 0, 83, 0
2, 92221, Note_on_c, 0, 95, 0
2, 92224, Note_on_c, 0, 53, 48
2, 92224, Note_on_c, 0, 57, 47
2, 92225, Note_on_c, 0, 62, 44
2, 92229, Note_on_c, 0, 84, 43
2, 92231, Note_on_c, 0, 96, 42
2, 92252, Note_on_c, 0, 53, 0
2, 92253, Note_on_c, 0, 57, 0
2, 92254, Note_on_c, 0, 62, 0
2, 92267, Control_c, 0, 64, 127
2, 92313, Note_on_c, 0, 84, 0
2, 92315, Note_on_c, 0, 96, 0
2, 92363, Note_on_c, 0, 42, 43
2, 92368, Note_on_c, 0, 81, 43
2, 92369, Note_on_c, 0, 87, 42
2, 92370, Note_on_c, 0, 90, 43
2, 92370, Note_on_c, 0, 93, 43
2, 92377, Note_on_c, 0, 54, 42
2, 92415, Note_on_c, 0, 42, 0
2, 92417, Note_on_c, 0, 54, 0
2, 92424, Control_c, 0, 64, 0
2, 92510, Note_on_c, 0, 57, 41
2, 92511, Note_on_c, 0, 60, 42
2, 92511, Note_on_c, 0, 63, 47
2, 92512, Note_on_c, 0, 66, 41
2, 92538, Note_on_c, 0, 60, 0
2, 92538, Note_on_c, 0, 57, 0
2, 92539, Note_on_c, 0, 66, 0
2, 92539, Note_on_c, 0, 63, 0
2, 92553, Note_on_c, 0, 81, 0
2, 92553, Note_on_c, 0, 87, 0
2, 92554, Note_on_c, 0, 90, 0
2, 92555, Note_on_c, 0, 93, 0
2, 92610, Note_on_c, 0, 79, 45
2, 92612, Note_on_c, 0, 84, 48
2, 92612, Note_on_c, 0, 88, 47
2, 92613, Note_on_c, 0, 91, 42
2, 92652, Note_on_c, 0, 43, 44
2, 92654, Note_on_c, 0, 55, 42
2, 92698, Note_on_c, 0, 43, 0
2, 92700, Note_on_c, 0, 55, 0
2, 92791, Note_on_c, 0, 55, 47
2, 92792, Note_on_c, 0, 60, 47
2, 92792, Note_on_c, 0, 64, 43
2, 92818, Note_on_c, 0, 55, 0
2, 92819, Note_on_c, 0, 60, 0
2, 92820, Note_on_c, 0, 64, 0
2, 92884, Note_on_c, 0, 79, 0
2, 92885, Note_on_c, 0, 84, 0
2, 92886, Note_on_c, 0, 88, 0
2, 92886, Note_on_c, 0, 91, 0
2, 92935, Note_on_c, 0, 43, 45
2, 92936, Note_on_c, 0, 55, 46
2, 92940, Note_on_c, 0, 81, 47
2, 92940, Note_on_c, 0, 83, 48
2, 92941, Note_on_c, 0, 86, 47
2, 92941, Note_on_c, 0, 89, 46
2, 92942, Note_on_c, 0, 93, 44
2, 92976, Note_on_c, 0, 81, 0
2, 92977, Note_on_c, 0, 86, 0
2, 92977, Note_on_c, 0, 83, 0
2, 92978, Note_on_c, 0, 89, 0
2, 92978, Note_on_c, 0, 93, 0
2, 93031, Note_on_c, 0, 79, 42
2, 93032, Note_on_c, 0, 83, 45
2, 93032, Note_on_c, 0, 86, 44
2, 93044, Note_on_c, 0, 91, 41
2, 93053, Note_on_c, 0, 43, 0
2, 93055, Note_on_c, 0, 55, 0
2, 93073, Note_on_c, 0, 45, 47
2, 93074, Note_on_c, 0, 57, 47
2, 93115, Note_on_c, 0, 79, 0
2, 93116, Note_on_c, 0, 83, 0
2, 93116, Note_on_c, 0, 86, 0
2, 93120, Note_on_c, 0, 91, 0
2, 93169, Note_on_c, 0, 79, 44
2, 93170, Note_on_c, 0, 83, 42
2, 93170, Note_on_c, 0, 86, 48
2, 93171, Note_on_c, 0, 89, 44
2, 93171, Note_on_c, 0, 91, 45
2, 93204, Note_on_c, 0, 45, 0
2, 93206, Note_on_c, 0, 57, 0
2, 93213, Note_on_c, 0, 47, 44
2, 93214, Note_on_c, 0, 59, 46
2, 93297, Note_on_c, 0, 83, 0
2, 93297, Note_on_c, 0, 79, 0
2, 93298, Note_on_c, 0, 91, 0
2, 93298, Note_on_c, 0, 86, 0
2, 93299, Note_on_c, 0, 89, 0
2, 93304, Note_on_c, 0, 81, 46
2, 93306, Note_on_c, 0, 93, 46
2, 93325, Note_on_c, 0, 47, 0
2, 93326, Note_on_c, 0, 59, 0
2, 93338, Note_on_c, 0, 81, 0
2, 93340, Note_on_c, 0, 93, 0
2, 93341, Note_on_c, 0, 43, 48
2, 93343, Note_on_c, 0, 55, 45
2, 93346, Note_on_c, 0, 79, 44
2, 93347, Note_on_c, 0, 83, 41
2, 93347, Note_on_c, 0, 86, 46
2, 93348, Note_on_c, 0, 89, 48
2, 93348, Note_on_c, 0, 91, 46
2, 93421, Note_on_c, 0, 43, 0
2, 93423, Note_on_c, 0, 55, 0
2, 93427, Note_on_c, 0, 83, 0
2, 93427, Note_on_c, 0, 79, 0
2, 93428, Note_on_c, 0, 91, 0
2, 93428, Note_on_c, 0, 86, 0
2, 93428, Note_on_c, 0, 89, 0
2, 93477, Note_on_c, 0, 48, 44
2, 93478, Note_on_c, 0, 55, 42
2, 93480, Note_on_c, 0, 64, 42
2, 93480, Note_on_c, 0, 72, 46
2, 93481, Note_on_c, 0, 76, 42
2, 93481, Note_on_c, 0, 79, 41
2, 93481, Note_on_c, 0, 84, 45
2, 93484, Note_on_c, 0, 96, 45
2, 93557, Note_on_c, 0, 55, 0
2, 93557, Note_on_c, 0, 48, 0
2, 93559, Note_on_c, 0, 64, 0
2, 93560, Note_on_c, 0, 72, 0
2, 93561, Note_on_c, 0, 76, 0
2, 93562, Note_on_c, 0, 79, 0
2, 93562, Note_on_c, 0, 84, 0
2, 93564, Note_on_c, 0, 96, 0
2, 93567, Note_on_c, 0, 59, 43
2, 93569, Note_on_c, 0, 71, 41
2, 93571, Note_on_c, 0, 83, 48
2, 93604, Note_on_c, 0, 59, 0
2, 93606, Note_on_c, 0, 71, 0
2, 93608, Note_on_c, 0, 83, 0
2, 93614, Note_on_c, 0, 58, 41
2, 93616, Note_on_c, 0, 70, 43
2, 93618, Note_on_c, 0, 82, 47
2, 93651, Note_on_c, 0, 58, 0
2, 93652, Note_on_c, 0, 70, 0
2, 93654, Note_on_c, 0, 82, 0
2, 93709, Note_on_c, 0, 57, 43
2, 93712, Note_on_c, 0, 69, 46
2, 93713, Note_on_c, 0, 81, 41
2, 93848, Note_on_c, 0, 57, 0
2, 93849, Note_on_c, 0, 69, 0
2, 93851, Note_on_c, 0, 81, 0
2, 93857, Note_on_c, 0, 56, 46
2, 93859, Note_on_c, 0, 68, 41
2, 93860, Note_on_c, 0, 80, 47
2, 93897, Note_on_c, 0, 56, 0
2, 93898, Note_on_c, 0, 68, 0
2, 93899, Note_on_c, 0, 80, 0
2, 93905, Note_on_c, 0, 55, 41
2, 93907, Note_on_c, 0, 67, 44
2, 93909, Note_on_c, 0, 79, 44
2, 93978, Note_on_c, 0, 55, 0
2, 93979, Note_on_c, 0, 67, 0
2, 93991, Note_on_c, 0, 79, 0
2, 93998, Note_on_c, 0, 54, 42
2, 93999, Note_on_c, 0, 66, 47
2, 94001, Note_on_c, 0, 78, 46
2, 94036, Note_on_c, 0, 54, 0
2, 94037, Note_on_c, 0, 66, 0
2, 94039, Note_on_c, 0, 78, 0
2, 94046, Note_on_c, 0, 53, 45
2, 94047, Note_on_c, 0, 65, 45
2, 94049, Note_on_c, 0, 77, 46
2, 94130, Note_on_c, 0, 53, 0
2, 94132, Note_on_c, 0, 65, 0
2, 94134, Note_on_c, 0, 77, 0
2, 94139, Note_on_c, 0, 52, 41
2, 94141, Note_on_c, 0, 64, 41
2, 94143, Note_on_c, 0, 76, 42
2, 94177, Note_on_c, 0, 52, 0
2, 94179, Note_on_c, 0, 64, 0
2, 94181, Note_on_c, 0, 76, 0
2, 94186, Note_on_c, 0, 51, 45
2, 94190, Note_on_c, 0, 75, 44
2, 94225, Note_on_c, 0, 51, 0
2, 94229, Note_on_c, 0, 75, 0
2, 94282, Note_on_c, 0, 50, 46
2, 94284, Note_on_c, 0, 62, 47
2, 94285, Note_on_c, 0, 74, 48
2, 94415, Note_on_c, 0, 50, 0
2, 94417, Note_on_c, 0, 74, 0
2, 94417, Note_on_c, 0, 62, 0
2, 94425, Note_on_c, 0, 52, 48
2, 94427, Note_on_c, 0, 64, 47
2, 94428, Note_on_c, 0, 76, 41
2, 94466, Note_on_c, 0, 52, 0
2, 94467, Note_on_c, 0, 64, 0
2, 94469, Note_on_c, 0, 76, 0
2, 94475, Note_on_c, 0, 53, 44
2, 94477, Note_on_c, 0, 65, 44
2, 94479, Note_on_c, 0, 77, 43
2, 94520, Control_c, 0, 64, 127
2, 94527, Note_on_c, 0, 53, 0
2, 94528, Note_on_c, 0, 65, 0
2, 94529, Note_on_c, 0, 77, 0
2, 94600, Note_on_c, 0, 50, 42
2, 94612, Note_on_c, 0, 38, 42
2, 94615, Note_on_c, 0, 69, 43
2, 94615, Note_on_c, 0, 74, 42
2, 94616, Note_on_c, 0, 77, 46
2, 94616, Note_on_c, 0, 81, 48
2, 94635, Control_c, 0, 64, 0
2, 94660, Note_on_c, 0, 38, 0
2, 94661, Note_on_c, 0, 50, 0
2, 94663, Note_on_c, 0, 69, 0
2, 94664, Note_on_c, 0, 74, 0
2, 94664, Note_on_c, 0, 77, 0
2, 94665, Note_on_c, 0, 81, 0
2, 94752, Note_on_c, 0, 40, 45
2, 94753, Note_on_c, 0, 52, 45
2, 94792, Note_on_c, 0, 40, 0
2, 94793, Note_on_c, 0, 52, 0
2, 94797, Control_c, 0, 64, 127
2, 94848, Note_on_c, 0, 41, 47
2, 94848, Note_on_c, 0, 53, 47
2, 94882, Control_c, 0, 64, 0
2, 94967, Note_on_c, 0, 41, 0
2, 94968, Note_on_c, 0, 53, 0
2, 94987, Note_on_c, 0, 38, 47
2, 94989, Note_on_c, 0, 50, 41
2, 95026, Note_on_c, 0, 38, 0
2, 95027, Note_on_c, 0, 50, 0
2, 95037, Note_on_c, 0, 43, 47
2, 95038, Note_on_c, 0, 55, 43
2, 95040, Note_on_c, 0, 71, 42
2, 95040, Note_on_c, 0, 74, 43
2, 95040, Note_on_c, 0, 77, 48
2, 95041, Note_on_c, 0, 83, 45
2, 95175, Note_on_c, 0, 43, 0
2, 95176, Note_on_c, 0, 55, 0
2, 95178, Note_on_c, 0, 74, 0
2, 95178, Note_on_c, 0, 71, 0
2, 95179, Note_on_c, 0, 83, 0
2, 95179, Note_on_c, 0, 77, 0
2, 95184, Note_on_c, 0, 48, 45
2, 95185, Note_on_c, 0, 60, 41
2, 95186, Note_on_c, 0, 72, 43
2, 95187, Note_on_c, 0, 76, 43
2, 95187, Note_on_c, 0, 79, 45
2, 95188, Note_on_c, 0, 84, 47
2, 95234, Note_on_c, 0, 60, 0
2, 95236, Note_on_c, 0, 76, 0
2, 95236, Note_on_c, 0, 72, 0
2, 95237, Note_on_c, 0, 84, 0
2, 95237, Note_on_c, 0, 79, 0
2, 95246, Note_on_c, 0, 48, 0
2, 95327, Note_on_c, 0, 43, 48
2, 95328, Note_on_c, 0, 55, 46
2, 95424, Note_on_c, 0, 91, 41
2, 95440, Note_on_c, 0, 91, 0
2, 95448, Note_on_c, 0, 93, 42
2, 95459, Note_on_c, 0, 43, 0
2, 95460, Note_on_c, 0, 55, 0
2, 95461, Note_on_c, 0, 95, 46
2, 95468, Note_on_c, 0, 36, 46
2, 95469, Note_on_c, 0, 48, 46
2, 95472, Note_on_c, 0, 84, 41
2, 95472, Note_on_c, 0, 88, 43
2, 95473, Note_on_c, 0, 91, 44
2, 95474, Note_on_c, 0, 96, 46
2, 95477, Note_on_c, 0, 93, 0
2, 95489, Note_on_c, 0, 95, 0
2, 95517, Note_on_c, 0, 36, 0
2, 95518, Note_on_c, 0, 48, 0
2, 95521, Note_on_c, 0, 84, 0
2, 95522, Note_on_c, 0, 96, 0
2, 95522, Note_on_c, 0, 91, 0
2, 95522, Note_on_c, 0, 88, 0
2, 95522, End_track
3, 0, Start_track
3, 1, Copyright_t, "___________________________________________________\012\012KUNSTDERFUGE.COM LARGE CLASSICAL MIDI COLLECTION\012ONCLASSICAL BY ALESSANDRO SIMONETTO, PROPRIETOR\012___________________________________________________\012\012! Attention: this file is under copyright !\012\012(c)onclassical, (nc)smythe, 2010\012___________________________________________________\012\012NO ONE MAY REPUBLISH THIS FILE WITHOUT PERMISSION\012COMMERCIAL USES OF THIS FILE IS STRICTLY PROHIBITED\012___________________________________________________\012\012Files & contributor's list: http://kunstderfuge.com/\012Terms and conditions: http://kunstderfuge.com/notes.htm"
3, 1, End_track
0, 0, End_of_file
