0, 0, Header, 1, 8, 192
1, 0, Start_track
1, 0, Title_t, "The Entertainer"
1, 0, Copyright_t, "May NOT be used for commercial purposes."
1, 0, Text_t, "Roll expression/accent tracks, where present, converted to MIDI velocties.\012"
1, 0, Text_t, "/music_category: Piano_Roll\012"
1, 0, Text_t, "/title: The Entertainer\012"
1, 0, Text_t, "/subtitle: \012"
1, 0, Text_t, "/roll_type: 88n\012"
1, 0, Text_t, "/roll_manufacturer: Aeolian\012"
1, 0, Text_t, "/roll_number: 518\012"
1, 0, Text_t, "/performer: Oakes & Williams\012"
1, 0, Text_t, "/composer: Joplin, Scott\012"
1, 0, Text_t, "/lyricist: \012"
1, 0, Text_t, "/roll_copyright: 1902\012"
1, 0, Text_t, "/roll_date: \012"
1, 0, Text_t, "/scanned_by: Terry Smythe\012"
1, 0, Text_t, "/scan_system: Stibbons Mk3a\012"
1, 0, Text_t, "/date_scanned: 5 Dec 04\012"
1, 0, Text_t, "/owner: Terry Smythe\012"
1, 0, Time_signature, 4, 2, 24, 8
1, 0, Key_signature, 0, "major"
1, 0, Tempo, 500000
1, 0, Marker_t, "Standard MIDI:Standard 88:LPI 120:Tempo  75: 12-05-2004"
1, 0, End_track
2, 0, Start_track
2, 0, Title_t, "The Entertainer"
2, 0, Program_c, 0, 0
2, 14, Control_c, 0, 64, 127
2, 84, Control_c, 0, 64, 0
2, 244, Note_on_c, 0, 74, 60
2, 257, Note_on_c, 0, 86, 60
2, 312, Note_on_c, 0, 88, 60
2, 314, Note_on_c, 0, 76, 60
2, 317, Note_on_c, 0, 86, 0
2, 317, Note_on_c, 0, 74, 0
2, 396, Note_on_c, 0, 84, 60
2, 398, Note_on_c, 0, 72, 60
2, 400, Note_on_c, 0, 88, 0
2, 403, Note_on_c, 0, 76, 0
2, 480, Note_on_c, 0, 81, 60
2, 481, Note_on_c, 0, 69, 60
2, 483, Note_on_c, 0, 84, 0
2, 485, Note_on_c, 0, 72, 0
2, 669, Note_on_c, 0, 83, 60
2, 669, Note_on_c, 0, 71, 60
2, 672, Note_on_c, 0, 81, 0
2, 673, Note_on_c, 0, 69, 0
2, 778, Note_on_c, 0, 79, 60
2, 780, Note_on_c, 0, 67, 60
2, 782, Note_on_c, 0, 83, 0
2, 782, Note_on_c, 0, 71, 0
2, 934, Note_on_c, 0, 79, 0
2, 934, Note_on_c, 0, 67, 0
2, 1066, Note_on_c, 0, 74, 60
2, 1068, Note_on_c, 0, 62, 60
2, 1162, Note_on_c, 0, 76, 60
2, 1162, Note_on_c, 0, 64, 60
2, 1164, Note_on_c, 0, 74, 0
2, 1166, Note_on_c, 0, 62, 0
2, 1239, Note_on_c, 0, 72, 60
2, 1241, Note_on_c, 0, 60, 60
2, 1243, Note_on_c, 0, 76, 0
2, 1243, Note_on_c, 0, 64, 0
2, 1320, Note_on_c, 0, 69, 60
2, 1320, Note_on_c, 0, 57, 60
2, 1324, Note_on_c, 0, 72, 0
2, 1324, Note_on_c, 0, 60, 0
2, 1490, Note_on_c, 0, 71, 60
2, 1490, Note_on_c, 0, 59, 60
2, 1492, Note_on_c, 0, 69, 0
2, 1494, Note_on_c, 0, 57, 0
2, 1599, Note_on_c, 0, 67, 60
2, 1599, Note_on_c, 0, 55, 60
2, 1601, Note_on_c, 0, 71, 0
2, 1601, Note_on_c, 0, 59, 0
2, 1763, Note_on_c, 0, 67, 0
2, 1766, Note_on_c, 0, 55, 0
2, 1894, Note_on_c, 0, 62, 60
2, 1896, Note_on_c, 0, 50, 60
2, 1968, Note_on_c, 0, 50, 0
2, 1974, Note_on_c, 0, 64, 60
2, 1974, Note_on_c, 0, 52, 60
2, 1977, Note_on_c, 0, 62, 0
2, 2058, Note_on_c, 0, 60, 60
2, 2058, Note_on_c, 0, 48, 60
2, 2060, Note_on_c, 0, 64, 0
2, 2062, Note_on_c, 0, 52, 0
2, 2131, Note_on_c, 0, 48, 0
2, 2138, Note_on_c, 0, 57, 60
2, 2138, Note_on_c, 0, 45, 60
2, 2141, Note_on_c, 0, 60, 0
2, 2295, Note_on_c, 0, 45, 0
2, 2304, Note_on_c, 0, 59, 60
2, 2304, Note_on_c, 0, 47, 60
2, 2305, Note_on_c, 0, 57, 0
2, 2376, Note_on_c, 0, 47, 0
2, 2384, Note_on_c, 0, 57, 60
2, 2384, Note_on_c, 0, 45, 60
2, 2386, Note_on_c, 0, 59, 0
2, 2454, Note_on_c, 0, 45, 0
2, 2472, Note_on_c, 0, 56, 60
2, 2473, Note_on_c, 0, 44, 60
2, 2476, Note_on_c, 0, 57, 0
2, 2555, Note_on_c, 0, 44, 0
2, 2574, Note_on_c, 0, 55, 60
2, 2576, Note_on_c, 0, 43, 60
2, 2578, Note_on_c, 0, 56, 0
2, 2726, Note_on_c, 0, 43, 0
2, 2832, Note_on_c, 0, 55, 0
2, 2995, Note_on_c, 0, 79, 60
2, 2995, Note_on_c, 0, 74, 60
2, 2997, Note_on_c, 0, 71, 60
2, 2997, Note_on_c, 0, 67, 60
2, 2999, Note_on_c, 0, 55, 60
2, 2999, Note_on_c, 0, 43, 60
2, 3137, Note_on_c, 0, 74, 0
2, 3137, Note_on_c, 0, 79, 0
2, 3140, Note_on_c, 0, 55, 0
2, 3140, Note_on_c, 0, 67, 0
2, 3140, Note_on_c, 0, 71, 0
2, 3142, Note_on_c, 0, 43, 0
2, 3658, Note_on_c, 0, 62, 60
2, 3728, Note_on_c, 0, 63, 60
2, 3730, Note_on_c, 0, 62, 0
2, 3796, Note_on_c, 0, 64, 60
2, 3798, Note_on_c, 0, 48, 60
2, 3801, Note_on_c, 0, 63, 0
2, 3835, Control_c, 0, 64, 127
2, 3850, Note_on_c, 0, 48, 0
2, 3866, Note_on_c, 0, 72, 60
2, 3869, Note_on_c, 0, 64, 0
2, 3886, Control_c, 0, 64, 0
2, 3894, Note_on_c, 0, 72, 0
2, 3937, Note_on_c, 0, 60, 60
2, 3937, Note_on_c, 0, 55, 60
2, 3962, Note_on_c, 0, 55, 0
2, 3962, Note_on_c, 0, 60, 0
2, 4006, Note_on_c, 0, 64, 60
2, 4076, Note_on_c, 0, 72, 60
2, 4080, Note_on_c, 0, 64, 0
2, 4080, Note_on_c, 0, 43, 60
2, 4080, Control_c, 0, 64, 127
2, 4119, Note_on_c, 0, 72, 0
2, 4131, Note_on_c, 0, 43, 0
2, 4170, Control_c, 0, 64, 0
2, 4221, Note_on_c, 0, 58, 60
2, 4221, Note_on_c, 0, 64, 60
2, 4221, Note_on_c, 0, 55, 60
2, 4247, Note_on_c, 0, 55, 0
2, 4247, Note_on_c, 0, 58, 0
2, 4289, Note_on_c, 0, 72, 60
2, 4294, Note_on_c, 0, 64, 0
2, 4362, Note_on_c, 0, 41, 60
2, 4398, Control_c, 0, 64, 127
2, 4411, Note_on_c, 0, 41, 0
2, 4481, Control_c, 0, 64, 0
2, 4512, Note_on_c, 0, 60, 60
2, 4512, Note_on_c, 0, 57, 60
2, 4550, Note_on_c, 0, 57, 0
2, 4550, Note_on_c, 0, 60, 0
2, 4673, Note_on_c, 0, 40, 60
2, 4686, Note_on_c, 0, 72, 0
2, 4709, Control_c, 0, 64, 127
2, 4723, Note_on_c, 0, 40, 0
2, 4728, Note_on_c, 0, 76, 60
2, 4728, Note_on_c, 0, 84, 60
2, 4728, Note_on_c, 0, 72, 60
2, 4786, Note_on_c, 0, 77, 60
2, 4786, Note_on_c, 0, 86, 60
2, 4786, Note_on_c, 0, 74, 60
2, 4788, Note_on_c, 0, 72, 0
2, 4788, Note_on_c, 0, 76, 0
2, 4788, Note_on_c, 0, 84, 0
2, 4788, Note_on_c, 0, 60, 60
2, 4788, Note_on_c, 0, 55, 60
2, 4793, Control_c, 0, 64, 0
2, 4824, Note_on_c, 0, 55, 0
2, 4824, Note_on_c, 0, 60, 0
2, 4842, Note_on_c, 0, 78, 60
2, 4842, Note_on_c, 0, 87, 60
2, 4842, Note_on_c, 0, 75, 60
2, 4846, Note_on_c, 0, 74, 0
2, 4846, Note_on_c, 0, 77, 0
2, 4846, Note_on_c, 0, 86, 0
2, 4897, Note_on_c, 0, 79, 60
2, 4897, Note_on_c, 0, 88, 60
2, 4897, Note_on_c, 0, 76, 60
2, 4901, Note_on_c, 0, 78, 0
2, 4901, Note_on_c, 0, 75, 0
2, 4901, Note_on_c, 0, 87, 0
2, 4901, Note_on_c, 0, 43, 60
2, 4915, Control_c, 0, 64, 127
2, 4922, Note_on_c, 0, 76, 0
2, 4948, Note_on_c, 0, 43, 0
2, 4953, Note_on_c, 0, 76, 60
2, 4953, Note_on_c, 0, 84, 60
2, 4953, Note_on_c, 0, 72, 60
2, 4955, Note_on_c, 0, 88, 0
2, 4957, Note_on_c, 0, 79, 0
2, 4995, Control_c, 0, 64, 0
2, 5008, Note_on_c, 0, 86, 60
2, 5008, Note_on_c, 0, 74, 60
2, 5011, Note_on_c, 0, 77, 60
2, 5013, Note_on_c, 0, 84, 0
2, 5013, Note_on_c, 0, 60, 60
2, 5013, Note_on_c, 0, 52, 60
2, 5015, Note_on_c, 0, 72, 0
2, 5015, Note_on_c, 0, 76, 0
2, 5036, Note_on_c, 0, 60, 0
2, 5038, Note_on_c, 0, 52, 0
2, 5065, Note_on_c, 0, 79, 60
2, 5065, Note_on_c, 0, 88, 60
2, 5065, Note_on_c, 0, 76, 60
2, 5070, Note_on_c, 0, 86, 0
2, 5070, Note_on_c, 0, 77, 0
2, 5070, Note_on_c, 0, 74, 0
2, 5130, Note_on_c, 0, 43, 60
2, 5156, Control_c, 0, 64, 127
2, 5179, Note_on_c, 0, 43, 0
2, 5184, Note_on_c, 0, 83, 60
2, 5185, Note_on_c, 0, 74, 60
2, 5185, Note_on_c, 0, 71, 60
2, 5187, Note_on_c, 0, 79, 0
2, 5187, Note_on_c, 0, 88, 0
2, 5189, Note_on_c, 0, 76, 0
2, 5205, Control_c, 0, 64, 0
2, 5210, Note_on_c, 0, 74, 0
2, 5241, Note_on_c, 0, 86, 60
2, 5241, Note_on_c, 0, 74, 60
2, 5243, Note_on_c, 0, 77, 60
2, 5243, Note_on_c, 0, 59, 60
2, 5245, Note_on_c, 0, 83, 0
2, 5245, Note_on_c, 0, 55, 60
2, 5247, Note_on_c, 0, 71, 0
2, 5283, Note_on_c, 0, 59, 0
2, 5283, Note_on_c, 0, 55, 0
2, 5304, Note_on_c, 0, 74, 0
2, 5304, Note_on_c, 0, 77, 0
2, 5304, Note_on_c, 0, 86, 0
2, 5362, Note_on_c, 0, 76, 60
2, 5362, Note_on_c, 0, 84, 60
2, 5362, Note_on_c, 0, 72, 60
2, 5367, Note_on_c, 0, 36, 60
2, 5392, Control_c, 0, 64, 127
2, 5418, Note_on_c, 0, 36, 0
2, 5454, Control_c, 0, 64, 0
2, 5495, Note_on_c, 0, 55, 60
2, 5495, Note_on_c, 0, 60, 60
2, 5495, Note_on_c, 0, 52, 60
2, 5531, Note_on_c, 0, 52, 0
2, 5531, Note_on_c, 0, 55, 0
2, 5531, Note_on_c, 0, 60, 0
2, 5646, Note_on_c, 0, 60, 60
2, 5646, Note_on_c, 0, 55, 60
2, 5648, Note_on_c, 0, 52, 60
2, 5685, Note_on_c, 0, 60, 0
2, 5687, Note_on_c, 0, 55, 0
2, 5687, Note_on_c, 0, 52, 0
2, 5810, Note_on_c, 0, 84, 0
2, 5810, Note_on_c, 0, 55, 60
2, 5810, Note_on_c, 0, 59, 60
2, 5810, Note_on_c, 0, 62, 60
2, 5812, Note_on_c, 0, 72, 0
2, 5812, Note_on_c, 0, 76, 0
2, 5849, Note_on_c, 0, 59, 0
2, 5849, Note_on_c, 0, 55, 0
2, 5882, Note_on_c, 0, 63, 60
2, 5885, Note_on_c, 0, 62, 0
2, 5953, Note_on_c, 0, 64, 60
2, 5955, Note_on_c, 0, 48, 60
2, 5957, Note_on_c, 0, 63, 0
2, 5968, Control_c, 0, 64, 127
2, 6009, Note_on_c, 0, 48, 0
2, 6025, Note_on_c, 0, 72, 60
2, 6030, Note_on_c, 0, 64, 0
2, 6055, Control_c, 0, 64, 0
2, 6064, Note_on_c, 0, 72, 0
2, 6094, Note_on_c, 0, 60, 60
2, 6094, Note_on_c, 0, 55, 60
2, 6121, Note_on_c, 0, 55, 0
2, 6121, Note_on_c, 0, 60, 0
2, 6165, Note_on_c, 0, 64, 60
2, 6237, Note_on_c, 0, 72, 60
2, 6240, Note_on_c, 0, 43, 60
2, 6241, Note_on_c, 0, 64, 0
2, 6263, Note_on_c, 0, 72, 0
2, 6288, Control_c, 0, 64, 127
2, 6290, Note_on_c, 0, 43, 0
2, 6374, Control_c, 0, 64, 0
2, 6378, Note_on_c, 0, 58, 60
2, 6378, Note_on_c, 0, 64, 60
2, 6378, Note_on_c, 0, 55, 60
2, 6404, Note_on_c, 0, 55, 0
2, 6404, Note_on_c, 0, 58, 0
2, 6446, Note_on_c, 0, 72, 60
2, 6451, Note_on_c, 0, 64, 0
2, 6529, Note_on_c, 0, 41, 60
2, 6568, Control_c, 0, 64, 127
2, 6601, Note_on_c, 0, 41, 0
2, 6638, Control_c, 0, 64, 0
2, 6645, Note_on_c, 0, 60, 60
2, 6645, Note_on_c, 0, 57, 60
2, 6670, Note_on_c, 0, 57, 0
2, 6670, Note_on_c, 0, 60, 0
2, 6758, Note_on_c, 0, 52, 60
2, 6760, Note_on_c, 0, 40, 60
2, 6796, Control_c, 0, 64, 127
2, 6798, Note_on_c, 0, 40, 0
2, 6798, Note_on_c, 0, 52, 0
2, 6832, Note_on_c, 0, 72, 0
2, 6875, Note_on_c, 0, 72, 60
2, 6875, Note_on_c, 0, 81, 60
2, 6875, Note_on_c, 0, 69, 60
2, 6877, Note_on_c, 0, 51, 60
2, 6877, Note_on_c, 0, 39, 60
2, 6881, Control_c, 0, 64, 0
2, 6931, Note_on_c, 0, 79, 60
2, 6935, Note_on_c, 0, 69, 0
2, 6935, Note_on_c, 0, 72, 0
2, 6935, Note_on_c, 0, 81, 0
2, 6936, Note_on_c, 0, 51, 0
2, 6936, Note_on_c, 0, 39, 0
2, 6988, Note_on_c, 0, 72, 60
2, 6988, Note_on_c, 0, 78, 60
2, 6988, Note_on_c, 0, 66, 60
2, 6990, Note_on_c, 0, 50, 60
2, 6990, Note_on_c, 0, 38, 60
2, 6992, Note_on_c, 0, 79, 0
2, 7003, Control_c, 0, 64, 127
2, 7043, Note_on_c, 0, 81, 60
2, 7046, Note_on_c, 0, 69, 60
2, 7048, Note_on_c, 0, 66, 0
2, 7048, Note_on_c, 0, 78, 0
2, 7050, Note_on_c, 0, 38, 0
2, 7050, Note_on_c, 0, 50, 0
2, 7050, Note_on_c, 0, 72, 0
2, 7101, Note_on_c, 0, 76, 60
2, 7101, Note_on_c, 0, 84, 60
2, 7101, Note_on_c, 0, 72, 60
2, 7104, Note_on_c, 0, 60, 60
2, 7104, Note_on_c, 0, 57, 60
2, 7105, Note_on_c, 0, 69, 0
2, 7105, Note_on_c, 0, 81, 0
2, 7120, Control_c, 0, 64, 0
2, 7127, Note_on_c, 0, 76, 0
2, 7137, Note_on_c, 0, 54, 60
2, 7156, Note_on_c, 0, 88, 60
2, 7158, Note_on_c, 0, 78, 60
2, 7158, Note_on_c, 0, 76, 60
2, 7163, Note_on_c, 0, 72, 0
2, 7163, Note_on_c, 0, 84, 0
2, 7165, Note_on_c, 0, 57, 0
2, 7165, Note_on_c, 0, 54, 0
2, 7165, Note_on_c, 0, 60, 0
2, 7219, Note_on_c, 0, 50, 60
2, 7231, Note_on_c, 0, 78, 0
2, 7246, Control_c, 0, 64, 127
2, 7276, Note_on_c, 0, 78, 60
2, 7276, Note_on_c, 0, 86, 60
2, 7276, Note_on_c, 0, 74, 60
2, 7278, Note_on_c, 0, 88, 0
2, 7280, Note_on_c, 0, 76, 0
2, 7282, Note_on_c, 0, 50, 0
2, 7291, Note_on_c, 0, 78, 0
2, 7296, Control_c, 0, 64, 0
2, 7334, Note_on_c, 0, 78, 60
2, 7334, Note_on_c, 0, 84, 60
2, 7334, Note_on_c, 0, 72, 60
2, 7336, Note_on_c, 0, 86, 0
2, 7336, Note_on_c, 0, 60, 60
2, 7336, Note_on_c, 0, 62, 60
2, 7336, Note_on_c, 0, 66, 60
2, 7336, Note_on_c, 0, 57, 60
2, 7338, Note_on_c, 0, 74, 0
2, 7348, Note_on_c, 0, 78, 0
2, 7389, Note_on_c, 0, 81, 60
2, 7389, Note_on_c, 0, 78, 60
2, 7392, Note_on_c, 0, 69, 60
2, 7393, Note_on_c, 0, 66, 0
2, 7393, Note_on_c, 0, 60, 0
2, 7393, Note_on_c, 0, 84, 0
2, 7393, Note_on_c, 0, 62, 0
2, 7395, Note_on_c, 0, 57, 0
2, 7395, Note_on_c, 0, 72, 0
2, 7446, Note_on_c, 0, 77, 60
2, 7446, Note_on_c, 0, 86, 60
2, 7446, Note_on_c, 0, 74, 60
2, 7449, Note_on_c, 0, 59, 60
2, 7449, Note_on_c, 0, 62, 60
2, 7449, Note_on_c, 0, 65, 60
2, 7449, Note_on_c, 0, 55, 60
2, 7451, Note_on_c, 0, 78, 0
2, 7451, Note_on_c, 0, 81, 0
2, 7451, Note_on_c, 0, 69, 0
2, 7521, Note_on_c, 0, 65, 0
2, 7521, Note_on_c, 0, 62, 0
2, 7521, Note_on_c, 0, 55, 0
2, 7521, Note_on_c, 0, 59, 0
2, 7589, Note_on_c, 0, 55, 60
2, 7589, Note_on_c, 0, 43, 60
2, 7591, Control_c, 0, 64, 127
2, 7660, Note_on_c, 0, 43, 0
2, 7673, Note_on_c, 0, 55, 0
2, 7728, Note_on_c, 0, 57, 60
2, 7728, Note_on_c, 0, 45, 60
2, 7839, Control_c, 0, 64, 0
2, 7869, Note_on_c, 0, 59, 60
2, 7869, Note_on_c, 0, 62, 60
2, 7869, Note_on_c, 0, 47, 60
2, 7872, Note_on_c, 0, 74, 0
2, 7872, Note_on_c, 0, 77, 0
2, 7872, Note_on_c, 0, 86, 0
2, 7873, Note_on_c, 0, 57, 0
2, 7873, Note_on_c, 0, 45, 0
2, 7935, Note_on_c, 0, 47, 0
2, 7935, Note_on_c, 0, 62, 0
2, 7935, Note_on_c, 0, 59, 0
2, 7942, Note_on_c, 0, 63, 60
2, 8014, Note_on_c, 0, 64, 60
2, 8016, Note_on_c, 0, 48, 60
2, 8018, Note_on_c, 0, 63, 0
2, 8041, Control_c, 0, 64, 127
2, 8067, Note_on_c, 0, 48, 0
2, 8087, Note_on_c, 0, 72, 60
2, 8090, Note_on_c, 0, 64, 0
2, 8114, Note_on_c, 0, 72, 0
2, 8157, Note_on_c, 0, 60, 60
2, 8160, Note_on_c, 0, 55, 60
2, 8198, Note_on_c, 0, 55, 0
2, 8198, Note_on_c, 0, 60, 0
2, 8200, Control_c, 0, 64, 0
2, 8230, Note_on_c, 0, 64, 60
2, 8300, Note_on_c, 0, 72, 60
2, 8302, Note_on_c, 0, 43, 60
2, 8304, Note_on_c, 0, 64, 0
2, 8328, Note_on_c, 0, 72, 0
2, 8328, Control_c, 0, 64, 127
2, 8353, Note_on_c, 0, 43, 0
2, 8415, Control_c, 0, 64, 0
2, 8443, Note_on_c, 0, 58, 60
2, 8443, Note_on_c, 0, 64, 60
2, 8443, Note_on_c, 0, 55, 60
2, 8471, Note_on_c, 0, 55, 0
2, 8471, Note_on_c, 0, 58, 0
2, 8513, Note_on_c, 0, 72, 60
2, 8518, Note_on_c, 0, 64, 0
2, 8596, Note_on_c, 0, 41, 60
2, 8641, Control_c, 0, 64, 127
2, 8645, Note_on_c, 0, 41, 0
2, 8682, Control_c, 0, 64, 0
2, 8712, Note_on_c, 0, 60, 60
2, 8712, Note_on_c, 0, 57, 60
2, 8760, Note_on_c, 0, 60, 0
2, 8762, Note_on_c, 0, 57, 0
2, 8818, Control_c, 0, 64, 127
2, 8829, Note_on_c, 0, 40, 60
2, 8842, Note_on_c, 0, 72, 0
2, 8884, Note_on_c, 0, 76, 60
2, 8884, Note_on_c, 0, 84, 60
2, 8884, Note_on_c, 0, 72, 60
2, 8889, Note_on_c, 0, 40, 0
2, 8938, Note_on_c, 0, 86, 60
2, 8938, Note_on_c, 0, 74, 60
2, 8940, Note_on_c, 0, 77, 60
2, 8940, Note_on_c, 0, 60, 60
2, 8942, Note_on_c, 0, 76, 0
2, 8942, Note_on_c, 0, 84, 0
2, 8942, Note_on_c, 0, 55, 60
2, 8944, Note_on_c, 0, 72, 0
2, 8970, Control_c, 0, 64, 0
2, 8978, Note_on_c, 0, 60, 0
2, 8980, Note_on_c, 0, 55, 0
2, 8996, Note_on_c, 0, 87, 60
2, 8998, Note_on_c, 0, 78, 60
2, 8998, Note_on_c, 0, 75, 60
2, 9000, Note_on_c, 0, 86, 0
2, 9000, Note_on_c, 0, 77, 0
2, 9000, Note_on_c, 0, 74, 0
2, 9053, Note_on_c, 0, 88, 60
2, 9055, Note_on_c, 0, 79, 60
2, 9055, Note_on_c, 0, 76, 60
2, 9057, Note_on_c, 0, 43, 60
2, 9059, Note_on_c, 0, 87, 0
2, 9059, Note_on_c, 0, 75, 0
2, 9059, Note_on_c, 0, 78, 0
2, 9070, Note_on_c, 0, 76, 0
2, 9106, Note_on_c, 0, 43, 0
2, 9113, Note_on_c, 0, 76, 60
2, 9113, Note_on_c, 0, 84, 60
2, 9113, Note_on_c, 0, 72, 60
2, 9115, Note_on_c, 0, 88, 0
2, 9117, Note_on_c, 0, 79, 0
2, 9170, Note_on_c, 0, 77, 60
2, 9170, Note_on_c, 0, 86, 60
2, 9170, Note_on_c, 0, 74, 60
2, 9172, Note_on_c, 0, 60, 60
2, 9172, Note_on_c, 0, 52, 60
2, 9174, Note_on_c, 0, 84, 0
2, 9174, Note_on_c, 0, 72, 0
2, 9174, Note_on_c, 0, 76, 0
2, 9198, Note_on_c, 0, 52, 0
2, 9198, Note_on_c, 0, 60, 0
2, 9228, Note_on_c, 0, 79, 60
2, 9228, Note_on_c, 0, 88, 60
2, 9228, Note_on_c, 0, 76, 60
2, 9232, Note_on_c, 0, 77, 0
2, 9232, Note_on_c, 0, 86, 0
2, 9235, Note_on_c, 0, 74, 0
2, 9288, Note_on_c, 0, 43, 60
2, 9300, Control_c, 0, 64, 127
2, 9345, Note_on_c, 0, 83, 60
2, 9347, Note_on_c, 0, 74, 60
2, 9347, Note_on_c, 0, 71, 60
2, 9350, Note_on_c, 0, 79, 0
2, 9350, Note_on_c, 0, 88, 0
2, 9352, Note_on_c, 0, 43, 0
2, 9352, Note_on_c, 0, 76, 0
2, 9354, Control_c, 0, 64, 0
2, 9373, Note_on_c, 0, 74, 0
2, 9403, Note_on_c, 0, 86, 60
2, 9403, Note_on_c, 0, 74, 60
2, 9405, Note_on_c, 0, 59, 60
2, 9405, Note_on_c, 0, 77, 60
2, 9405, Note_on_c, 0, 55, 60
2, 9408, Note_on_c, 0, 83, 0
2, 9409, Note_on_c, 0, 71, 0
2, 9443, Note_on_c, 0, 59, 0
2, 9443, Note_on_c, 0, 55, 0
2, 9454, Note_on_c, 0, 86, 0
2, 9454, Note_on_c, 0, 77, 0
2, 9456, Note_on_c, 0, 74, 0
2, 9518, Note_on_c, 0, 76, 60
2, 9518, Note_on_c, 0, 84, 60
2, 9518, Note_on_c, 0, 72, 60
2, 9520, Note_on_c, 0, 36, 60
2, 9580, Control_c, 0, 64, 127
2, 9616, Note_on_c, 0, 36, 0
2, 9670, Note_on_c, 0, 55, 60
2, 9670, Note_on_c, 0, 60, 60
2, 9670, Note_on_c, 0, 52, 60
2, 9761, Note_on_c, 0, 60, 0
2, 9764, Note_on_c, 0, 55, 0
2, 9764, Note_on_c, 0, 52, 0
2, 9766, Control_c, 0, 64, 0
2, 9830, Note_on_c, 0, 60, 60
2, 9830, Note_on_c, 0, 64, 60
2, 9830, Note_on_c, 0, 55, 60
2, 9936, Note_on_c, 0, 72, 0
2, 9936, Note_on_c, 0, 84, 0
2, 9936, Note_on_c, 0, 76, 0
2, 9972, Note_on_c, 0, 60, 0
2, 9972, Note_on_c, 0, 64, 0
2, 9972, Note_on_c, 0, 55, 0
2, 9989, Note_on_c, 0, 84, 60
2, 9991, Note_on_c, 0, 76, 60
2, 9991, Note_on_c, 0, 72, 60
2, 10049, Note_on_c, 0, 77, 60
2, 10049, Note_on_c, 0, 86, 60
2, 10049, Note_on_c, 0, 74, 60
2, 10054, Note_on_c, 0, 72, 0
2, 10054, Note_on_c, 0, 84, 0
2, 10054, Note_on_c, 0, 76, 0
2, 10106, Note_on_c, 0, 79, 60
2, 10106, Note_on_c, 0, 88, 60
2, 10106, Note_on_c, 0, 76, 60
2, 10109, Note_on_c, 0, 48, 60
2, 10111, Note_on_c, 0, 77, 0
2, 10111, Note_on_c, 0, 86, 0
2, 10111, Note_on_c, 0, 36, 60
2, 10113, Note_on_c, 0, 74, 0
2, 10122, Note_on_c, 0, 76, 0
2, 10130, Control_c, 0, 64, 127
2, 10162, Note_on_c, 0, 76, 60
2, 10162, Note_on_c, 0, 84, 60
2, 10162, Note_on_c, 0, 72, 60
2, 10164, Note_on_c, 0, 88, 0
2, 10164, Note_on_c, 0, 79, 0
2, 10218, Control_c, 0, 64, 0
2, 10222, Note_on_c, 0, 64, 60
2, 10222, Note_on_c, 0, 74, 60
2, 10222, Note_on_c, 0, 77, 60
2, 10222, Note_on_c, 0, 86, 60
2, 10222, Note_on_c, 0, 60, 60
2, 10224, Note_on_c, 0, 84, 0
2, 10224, Note_on_c, 0, 55, 60
2, 10226, Note_on_c, 0, 72, 0
2, 10226, Note_on_c, 0, 76, 0
2, 10258, Note_on_c, 0, 64, 0
2, 10260, Note_on_c, 0, 60, 0
2, 10260, Note_on_c, 0, 55, 0
2, 10277, Note_on_c, 0, 88, 60
2, 10279, Note_on_c, 0, 79, 60
2, 10279, Note_on_c, 0, 76, 60
2, 10282, Note_on_c, 0, 74, 0
2, 10282, Note_on_c, 0, 86, 0
2, 10282, Note_on_c, 0, 77, 0
2, 10284, Note_on_c, 0, 36, 0
2, 10284, Note_on_c, 0, 48, 0
2, 10342, Note_on_c, 0, 46, 60
2, 10344, Control_c, 0, 64, 127
2, 10354, Note_on_c, 0, 79, 0
2, 10375, Note_on_c, 0, 34, 60
2, 10397, Note_on_c, 0, 79, 60
2, 10397, Note_on_c, 0, 84, 60
2, 10397, Note_on_c, 0, 72, 60
2, 10401, Note_on_c, 0, 88, 0
2, 10401, Note_on_c, 0, 76, 0
2, 10412, Note_on_c, 0, 79, 0
2, 10457, Note_on_c, 0, 74, 60
2, 10457, Note_on_c, 0, 79, 60
2, 10457, Note_on_c, 0, 86, 60
2, 10457, Note_on_c, 0, 64, 60
2, 10459, Note_on_c, 0, 60, 60
2, 10459, Note_on_c, 0, 55, 60
2, 10461, Note_on_c, 0, 84, 0
2, 10464, Note_on_c, 0, 72, 0
2, 10464, Control_c, 0, 64, 0
2, 10471, Note_on_c, 0, 79, 0
2, 10485, Note_on_c, 0, 60, 0
2, 10485, Note_on_c, 0, 64, 0
2, 10485, Note_on_c, 0, 55, 0
2, 10514, Note_on_c, 0, 79, 60
2, 10514, Note_on_c, 0, 84, 60
2, 10514, Note_on_c, 0, 72, 60
2, 10518, Note_on_c, 0, 86, 0
2, 10518, Note_on_c, 0, 74, 0
2, 10570, Note_on_c, 0, 34, 0
2, 10570, Note_on_c, 0, 46, 0
2, 10574, Note_on_c, 0, 88, 60
2, 10576, Note_on_c, 0, 76, 60
2, 10576, Note_on_c, 0, 81, 60
2, 10576, Note_on_c, 0, 45, 60
2, 10579, Note_on_c, 0, 79, 0
2, 10579, Note_on_c, 0, 84, 0
2, 10579, Note_on_c, 0, 33, 60
2, 10583, Note_on_c, 0, 72, 0
2, 10591, Control_c, 0, 64, 127
2, 10633, Note_on_c, 0, 84, 60
2, 10636, Note_on_c, 0, 72, 60
2, 10638, Note_on_c, 0, 88, 0
2, 10638, Note_on_c, 0, 76, 0
2, 10638, Note_on_c, 0, 81, 0
2, 10677, Control_c, 0, 64, 0
2, 10691, Note_on_c, 0, 86, 60
2, 10691, Note_on_c, 0, 74, 60
2, 10694, Note_on_c, 0, 60, 60
2, 10694, Note_on_c, 0, 65, 60
2, 10694, Note_on_c, 0, 81, 60
2, 10694, Note_on_c, 0, 57, 60
2, 10696, Note_on_c, 0, 84, 0
2, 10698, Note_on_c, 0, 72, 0
2, 10729, Note_on_c, 0, 65, 0
2, 10729, Note_on_c, 0, 60, 0
2, 10732, Note_on_c, 0, 57, 0
2, 10736, Note_on_c, 0, 88, 60
2, 10736, Note_on_c, 0, 80, 60
2, 10738, Note_on_c, 0, 76, 60
2, 10740, Note_on_c, 0, 81, 0
2, 10743, Note_on_c, 0, 33, 0
2, 10743, Note_on_c, 0, 45, 0
2, 10752, Note_on_c, 0, 86, 0
2, 10753, Note_on_c, 0, 74, 0
2, 10796, Note_on_c, 0, 44, 60
2, 10809, Note_on_c, 0, 32, 60
2, 10811, Note_on_c, 0, 80, 0
2, 10822, Control_c, 0, 64, 127
2, 10853, Note_on_c, 0, 80, 60
2, 10853, Note_on_c, 0, 84, 60
2, 10853, Note_on_c, 0, 72, 60
2, 10858, Note_on_c, 0, 76, 0
2, 10858, Note_on_c, 0, 88, 0
2, 10869, Note_on_c, 0, 80, 0
2, 10909, Control_c, 0, 64, 0
2, 10913, Note_on_c, 0, 80, 60
2, 10913, Note_on_c, 0, 86, 60
2, 10913, Note_on_c, 0, 74, 60
2, 10916, Note_on_c, 0, 60, 60
2, 10916, Note_on_c, 0, 65, 60
2, 10916, Note_on_c, 0, 56, 60
2, 10918, Note_on_c, 0, 84, 0
2, 10920, Note_on_c, 0, 72, 0
2, 10930, Note_on_c, 0, 80, 0
2, 10941, Note_on_c, 0, 65, 0
2, 10944, Note_on_c, 0, 60, 0
2, 10944, Note_on_c, 0, 56, 0
2, 10973, Note_on_c, 0, 84, 60
2, 10975, Note_on_c, 0, 80, 60
2, 10975, Note_on_c, 0, 72, 60
2, 10977, Note_on_c, 0, 86, 0
2, 10977, Note_on_c, 0, 74, 0
2, 11001, Note_on_c, 0, 32, 0
2, 11001, Note_on_c, 0, 44, 0
2, 11033, Note_on_c, 0, 79, 60
2, 11033, Note_on_c, 0, 88, 60
2, 11033, Note_on_c, 0, 76, 60
2, 11035, Note_on_c, 0, 43, 60
2, 11035, Note_on_c, 0, 31, 60
2, 11037, Note_on_c, 0, 80, 0
2, 11037, Note_on_c, 0, 84, 0
2, 11037, Note_on_c, 0, 72, 0
2, 11061, Note_on_c, 0, 76, 0
2, 11071, Control_c, 0, 64, 127
2, 11103, Note_on_c, 0, 84, 60
2, 11105, Note_on_c, 0, 76, 60
2, 11105, Note_on_c, 0, 72, 60
2, 11108, Note_on_c, 0, 88, 0
2, 11108, Note_on_c, 0, 79, 0
2, 11159, Control_c, 0, 64, 0
2, 11176, Note_on_c, 0, 77, 60
2, 11176, Note_on_c, 0, 86, 60
2, 11176, Note_on_c, 0, 55, 60
2, 11176, Note_on_c, 0, 60, 60
2, 11176, Note_on_c, 0, 64, 60
2, 11176, Note_on_c, 0, 74, 60
2, 11178, Note_on_c, 0, 84, 0
2, 11178, Note_on_c, 0, 76, 0
2, 11180, Note_on_c, 0, 72, 0
2, 11201, Note_on_c, 0, 60, 0
2, 11201, Note_on_c, 0, 55, 0
2, 11201, Note_on_c, 0, 64, 0
2, 11244, Note_on_c, 0, 79, 60
2, 11244, Note_on_c, 0, 88, 60
2, 11244, Note_on_c, 0, 76, 60
2, 11248, Note_on_c, 0, 77, 0
2, 11248, Note_on_c, 0, 86, 0
2, 11248, Note_on_c, 0, 74, 0
2, 11282, Note_on_c, 0, 43, 0
2, 11284, Note_on_c, 0, 31, 0
2, 11316, Note_on_c, 0, 31, 60
2, 11316, Note_on_c, 0, 43, 60
2, 11316, Control_c, 0, 64, 127
2, 11393, Note_on_c, 0, 83, 60
2, 11393, Note_on_c, 0, 74, 60
2, 11396, Note_on_c, 0, 71, 60
2, 11398, Note_on_c, 0, 79, 0
2, 11398, Note_on_c, 0, 88, 0
2, 11400, Note_on_c, 0, 76, 0
2, 11445, Note_on_c, 0, 74, 0
2, 11472, Control_c, 0, 64, 0
2, 11489, Note_on_c, 0, 74, 60
2, 11489, Note_on_c, 0, 77, 60
2, 11489, Note_on_c, 0, 86, 60
2, 11489, Note_on_c, 0, 59, 60
2, 11492, Note_on_c, 0, 55, 60
2, 11492, Note_on_c, 0, 53, 60
2, 11494, Note_on_c, 0, 71, 0
2, 11494, Note_on_c, 0, 83, 0
2, 11517, Note_on_c, 0, 43, 0
2, 11517, Note_on_c, 0, 31, 0
2, 11549, Note_on_c, 0, 86, 0
2, 11549, Note_on_c, 0, 77, 0
2, 11549, Note_on_c, 0, 53, 0
2, 11549, Note_on_c, 0, 55, 0
2, 11549, Note_on_c, 0, 74, 0
2, 11549, Note_on_c, 0, 59, 0
2, 11664, Note_on_c, 0, 76, 60
2, 11664, Note_on_c, 0, 84, 60
2, 11664, Note_on_c, 0, 72, 60
2, 11666, Note_on_c, 0, 48, 60
2, 11666, Note_on_c, 0, 36, 60
2, 11703, Control_c, 0, 64, 127
2, 11886, Note_on_c, 0, 48, 0
2, 11888, Note_on_c, 0, 36, 0
2, 11897, Note_on_c, 0, 55, 60
2, 11897, Note_on_c, 0, 43, 60
2, 11925, Control_c, 0, 64, 0
2, 12131, Note_on_c, 0, 48, 60
2, 12131, Note_on_c, 0, 36, 60
2, 12134, Note_on_c, 0, 55, 0
2, 12136, Note_on_c, 0, 43, 0
2, 12227, Control_c, 0, 64, 127
2, 12932, Control_c, 0, 64, 0
2, 12970, Note_on_c, 0, 74, 60
2, 12972, Note_on_c, 0, 62, 60
2, 12974, Note_on_c, 0, 84, 0
2, 12976, Note_on_c, 0, 72, 0
2, 12976, Note_on_c, 0, 76, 0
2, 12976, Note_on_c, 0, 48, 0
2, 12976, Note_on_c, 0, 36, 0
2, 13032, Note_on_c, 0, 75, 60
2, 13033, Note_on_c, 0, 63, 60
2, 13036, Note_on_c, 0, 62, 0
2, 13036, Note_on_c, 0, 74, 0
2, 13094, Note_on_c, 0, 76, 60
2, 13094, Note_on_c, 0, 64, 60
2, 13096, Note_on_c, 0, 75, 0
2, 13096, Note_on_c, 0, 48, 60
2, 13098, Note_on_c, 0, 63, 0
2, 13134, Control_c, 0, 64, 127
2, 13153, Note_on_c, 0, 84, 60
2, 13155, Note_on_c, 0, 72, 60
2, 13157, Note_on_c, 0, 64, 0
2, 13157, Note_on_c, 0, 76, 0
2, 13181, Note_on_c, 0, 72, 0
2, 13181, Note_on_c, 0, 84, 0
2, 13185, Control_c, 0, 64, 0
2, 13215, Note_on_c, 0, 60, 60
2, 13215, Note_on_c, 0, 64, 60
2, 13215, Note_on_c, 0, 55, 60
2, 13241, Note_on_c, 0, 64, 0
2, 13253, Note_on_c, 0, 55, 0
2, 13253, Note_on_c, 0, 60, 0
2, 13271, Note_on_c, 0, 76, 60
2, 13272, Note_on_c, 0, 64, 60
2, 13324, Note_on_c, 0, 48, 0
2, 13330, Note_on_c, 0, 84, 60
2, 13330, Note_on_c, 0, 72, 60
2, 13332, Note_on_c, 0, 43, 60
2, 13335, Note_on_c, 0, 64, 0
2, 13335, Note_on_c, 0, 76, 0
2, 13347, Control_c, 0, 64, 127
2, 13360, Note_on_c, 0, 72, 0
2, 13360, Note_on_c, 0, 84, 0
2, 13440, Control_c, 0, 64, 0
2, 13456, Note_on_c, 0, 76, 60
2, 13459, Note_on_c, 0, 58, 60
2, 13459, Note_on_c, 0, 64, 60
2, 13459, Note_on_c, 0, 55, 60
2, 13484, Note_on_c, 0, 55, 0
2, 13484, Note_on_c, 0, 58, 0
2, 13513, Note_on_c, 0, 84, 60
2, 13513, Note_on_c, 0, 72, 60
2, 13518, Note_on_c, 0, 64, 0
2, 13518, Note_on_c, 0, 76, 0
2, 13565, Note_on_c, 0, 43, 0
2, 13574, Note_on_c, 0, 41, 60
2, 13597, Control_c, 0, 64, 127
2, 13680, Control_c, 0, 64, 0
2, 13689, Note_on_c, 0, 57, 60
2, 13689, Note_on_c, 0, 60, 60
2, 13689, Note_on_c, 0, 53, 60
2, 13725, Note_on_c, 0, 53, 0
2, 13725, Note_on_c, 0, 57, 0
2, 13725, Note_on_c, 0, 60, 0
2, 13793, Note_on_c, 0, 84, 0
2, 13793, Note_on_c, 0, 72, 0
2, 13796, Note_on_c, 0, 41, 0
2, 13804, Note_on_c, 0, 40, 60
2, 13806, Control_c, 0, 64, 127
2, 13859, Note_on_c, 0, 76, 60
2, 13859, Note_on_c, 0, 84, 60
2, 13859, Note_on_c, 0, 88, 60
2, 13859, Note_on_c, 0, 96, 60
2, 13859, Note_on_c, 0, 72, 60
2, 13887, Control_c, 0, 64, 0
2, 13913, Note_on_c, 0, 98, 60
2, 13913, Note_on_c, 0, 89, 60
2, 13915, Note_on_c, 0, 77, 60
2, 13915, Note_on_c, 0, 86, 60
2, 13915, Note_on_c, 0, 74, 60
2, 13917, Note_on_c, 0, 96, 0
2, 13917, Note_on_c, 0, 88, 0
2, 13917, Note_on_c, 0, 60, 60
2, 13917, Note_on_c, 0, 55, 60
2, 13920, Note_on_c, 0, 84, 0
2, 13920, Note_on_c, 0, 72, 0
2, 13920, Note_on_c, 0, 76, 0
2, 13943, Note_on_c, 0, 55, 0
2, 13943, Note_on_c, 0, 60, 0
2, 13968, Note_on_c, 0, 90, 60
2, 13968, Note_on_c, 0, 99, 60
2, 13968, Note_on_c, 0, 87, 60
2, 13970, Note_on_c, 0, 78, 60
2, 13970, Note_on_c, 0, 75, 60
2, 13972, Note_on_c, 0, 98, 0
2, 13972, Note_on_c, 0, 77, 0
2, 13972, Note_on_c, 0, 89, 0
2, 13972, Note_on_c, 0, 74, 0
2, 13972, Note_on_c, 0, 86, 0
2, 14023, Note_on_c, 0, 40, 0
2, 14026, Note_on_c, 0, 100, 60
2, 14028, Note_on_c, 0, 79, 60
2, 14028, Note_on_c, 0, 88, 60
2, 14028, Note_on_c, 0, 91, 60
2, 14028, Note_on_c, 0, 76, 60
2, 14032, Note_on_c, 0, 90, 0
2, 14032, Note_on_c, 0, 78, 0
2, 14032, Note_on_c, 0, 75, 0
2, 14032, Note_on_c, 0, 87, 0
2, 14032, Note_on_c, 0, 43, 60
2, 14040, Note_on_c, 0, 99, 0
2, 14042, Control_c, 0, 64, 127
2, 14054, Note_on_c, 0, 88, 0
2, 14056, Note_on_c, 0, 76, 0
2, 14086, Note_on_c, 0, 76, 60
2, 14086, Note_on_c, 0, 84, 60
2, 14086, Note_on_c, 0, 88, 60
2, 14086, Note_on_c, 0, 96, 60
2, 14086, Note_on_c, 0, 72, 60
2, 14088, Note_on_c, 0, 100, 0
2, 14089, Note_on_c, 0, 91, 0
2, 14089, Note_on_c, 0, 79, 0
2, 14128, Control_c, 0, 64, 0
2, 14141, Note_on_c, 0, 98, 60
2, 14143, Note_on_c, 0, 77, 60
2, 14143, Note_on_c, 0, 86, 60
2, 14143, Note_on_c, 0, 89, 60
2, 14143, Note_on_c, 0, 74, 60
2, 14145, Note_on_c, 0, 96, 0
2, 14145, Note_on_c, 0, 88, 0
2, 14145, Note_on_c, 0, 55, 60
2, 14145, Note_on_c, 0, 60, 60
2, 14145, Note_on_c, 0, 52, 60
2, 14147, Note_on_c, 0, 84, 0
2, 14147, Note_on_c, 0, 72, 0
2, 14147, Note_on_c, 0, 76, 0
2, 14169, Note_on_c, 0, 60, 0
2, 14171, Note_on_c, 0, 55, 0
2, 14171, Note_on_c, 0, 52, 0
2, 14196, Note_on_c, 0, 100, 60
2, 14199, Note_on_c, 0, 88, 60
2, 14199, Note_on_c, 0, 91, 60
2, 14199, Note_on_c, 0, 79, 60
2, 14201, Note_on_c, 0, 98, 0
2, 14201, Note_on_c, 0, 76, 60
2, 14203, Note_on_c, 0, 86, 0
2, 14203, Note_on_c, 0, 89, 0
2, 14203, Note_on_c, 0, 74, 0
2, 14203, Note_on_c, 0, 77, 0
2, 14231, Note_on_c, 0, 43, 0
2, 14260, Note_on_c, 0, 43, 60
2, 14284, Control_c, 0, 64, 127
2, 14316, Note_on_c, 0, 86, 60
2, 14316, Note_on_c, 0, 95, 60
2, 14316, Note_on_c, 0, 83, 60
2, 14318, Note_on_c, 0, 74, 60
2, 14318, Note_on_c, 0, 71, 60
2, 14320, Note_on_c, 0, 91, 0
2, 14320, Note_on_c, 0, 100, 0
2, 14320, Note_on_c, 0, 79, 0
2, 14320, Note_on_c, 0, 88, 0
2, 14323, Note_on_c, 0, 76, 0
2, 14344, Note_on_c, 0, 74, 0
2, 14344, Note_on_c, 0, 86, 0
2, 14372, Control_c, 0, 64, 0
2, 14376, Note_on_c, 0, 89, 60
2, 14376, Note_on_c, 0, 98, 60
2, 14376, Note_on_c, 0, 86, 60
2, 14377, Note_on_c, 0, 59, 60
2, 14377, Note_on_c, 0, 74, 60
2, 14377, Note_on_c, 0, 77, 60
2, 14377, Note_on_c, 0, 53, 60
2, 14380, Note_on_c, 0, 83, 0
2, 14380, Note_on_c, 0, 95, 0
2, 14380, Note_on_c, 0, 55, 60
2, 14382, Note_on_c, 0, 71, 0
2, 14405, Note_on_c, 0, 59, 0
2, 14407, Note_on_c, 0, 53, 0
2, 14407, Note_on_c, 0, 55, 0
2, 14489, Note_on_c, 0, 43, 0
2, 14493, Note_on_c, 0, 96, 60
2, 14493, Note_on_c, 0, 88, 60
2, 14496, Note_on_c, 0, 76, 60
2, 14496, Note_on_c, 0, 84, 60
2, 14496, Note_on_c, 0, 72, 60
2, 14497, Note_on_c, 0, 98, 0
2, 14497, Note_on_c, 0, 89, 0
2, 14497, Note_on_c, 0, 86, 0
2, 14497, Note_on_c, 0, 36, 60
2, 14499, Note_on_c, 0, 77, 0
2, 14499, Note_on_c, 0, 74, 0
2, 14534, Control_c, 0, 64, 127
2, 14569, Note_on_c, 0, 76, 0
2, 14613, Note_on_c, 0, 76, 60
2, 14615, Note_on_c, 0, 55, 60
2, 14615, Note_on_c, 0, 60, 60
2, 14615, Note_on_c, 0, 52, 60
2, 14616, Note_on_c, 0, 96, 0
2, 14616, Note_on_c, 0, 88, 0
2, 14616, Note_on_c, 0, 84, 0
2, 14618, Note_on_c, 0, 72, 0
2, 14621, Control_c, 0, 64, 0
2, 14642, Note_on_c, 0, 52, 0
2, 14642, Note_on_c, 0, 60, 0
2, 14642, Note_on_c, 0, 55, 0
2, 14672, Note_on_c, 0, 79, 60
2, 14676, Note_on_c, 0, 76, 0
2, 14734, Note_on_c, 0, 84, 60
2, 14734, Note_on_c, 0, 76, 60
2, 14736, Note_on_c, 0, 55, 60
2, 14736, Note_on_c, 0, 60, 60
2, 14736, Note_on_c, 0, 52, 60
2, 14738, Note_on_c, 0, 79, 0
2, 14761, Note_on_c, 0, 60, 0
2, 14761, Note_on_c, 0, 55, 0
2, 14761, Note_on_c, 0, 52, 0
2, 14764, Note_on_c, 0, 36, 0
2, 14784, Note_on_c, 0, 84, 0
2, 14784, Note_on_c, 0, 76, 0
2, 14852, Note_on_c, 0, 74, 60
2, 14852, Note_on_c, 0, 65, 60
2, 14854, Note_on_c, 0, 59, 60
2, 14854, Note_on_c, 0, 62, 60
2, 14854, Note_on_c, 0, 55, 60
2, 14906, Note_on_c, 0, 75, 60
2, 14909, Note_on_c, 0, 74, 0
2, 14909, Note_on_c, 0, 63, 60
2, 14911, Note_on_c, 0, 62, 0
2, 14958, Control_c, 0, 64, 127
2, 14964, Note_on_c, 0, 76, 60
2, 14964, Note_on_c, 0, 64, 60
2, 14967, Note_on_c, 0, 75, 0
2, 14967, Note_on_c, 0, 48, 60
2, 14969, Note_on_c, 0, 59, 0
2, 14969, Note_on_c, 0, 65, 0
2, 14969, Note_on_c, 0, 55, 0
2, 14969, Note_on_c, 0, 63, 0
2, 15020, Note_on_c, 0, 84, 60
2, 15022, Note_on_c, 0, 72, 60
2, 15024, Note_on_c, 0, 76, 0
2, 15026, Note_on_c, 0, 64, 0
2, 15041, Control_c, 0, 64, 0
2, 15058, Note_on_c, 0, 84, 0
2, 15060, Note_on_c, 0, 72, 0
2, 15079, Note_on_c, 0, 60, 60
2, 15079, Note_on_c, 0, 64, 60
2, 15079, Note_on_c, 0, 55, 60
2, 15105, Note_on_c, 0, 64, 0
2, 15118, Note_on_c, 0, 55, 0
2, 15118, Note_on_c, 0, 60, 0
2, 15137, Note_on_c, 0, 76, 60
2, 15137, Note_on_c, 0, 64, 60
2, 15191, Note_on_c, 0, 48, 0
2, 15194, Note_on_c, 0, 84, 60
2, 15194, Note_on_c, 0, 72, 60
2, 15197, Note_on_c, 0, 43, 60
2, 15199, Note_on_c, 0, 64, 0
2, 15199, Note_on_c, 0, 76, 0
2, 15233, Note_on_c, 0, 72, 0
2, 15233, Note_on_c, 0, 84, 0
2, 15236, Control_c, 0, 64, 127
2, 15287, Control_c, 0, 64, 0
2, 15312, Note_on_c, 0, 76, 60
2, 15314, Note_on_c, 0, 58, 60
2, 15314, Note_on_c, 0, 60, 60
2, 15314, Note_on_c, 0, 64, 60
2, 15314, Note_on_c, 0, 55, 60
2, 15340, Note_on_c, 0, 55, 0
2, 15340, Note_on_c, 0, 58, 0
2, 15340, Note_on_c, 0, 60, 0
2, 15370, Note_on_c, 0, 84, 60
2, 15372, Note_on_c, 0, 72, 60
2, 15376, Note_on_c, 0, 76, 0
2, 15376, Note_on_c, 0, 64, 0
2, 15423, Note_on_c, 0, 43, 0
2, 15432, Note_on_c, 0, 41, 60
2, 15447, Control_c, 0, 64, 127
2, 15534, Control_c, 0, 64, 0
2, 15552, Note_on_c, 0, 57, 60
2, 15552, Note_on_c, 0, 60, 60
2, 15552, Note_on_c, 0, 53, 60
2, 15590, Note_on_c, 0, 53, 0
2, 15590, Note_on_c, 0, 57, 0
2, 15590, Note_on_c, 0, 60, 0
2, 15662, Note_on_c, 0, 41, 0
2, 15669, Note_on_c, 0, 52, 60
2, 15669, Note_on_c, 0, 40, 60
2, 15696, Control_c, 0, 64, 127
2, 15728, Note_on_c, 0, 84, 0
2, 15730, Note_on_c, 0, 72, 0
2, 15745, Control_c, 0, 64, 0
2, 15784, Note_on_c, 0, 81, 60
2, 15786, Note_on_c, 0, 60, 60
2, 15786, Note_on_c, 0, 72, 60
2, 15786, Note_on_c, 0, 57, 60
2, 15788, Note_on_c, 0, 53, 60
2, 15788, Note_on_c, 0, 51, 60
2, 15790, Note_on_c, 0, 39, 60
2, 15792, Note_on_c, 0, 52, 0
2, 15792, Note_on_c, 0, 40, 0
2, 15824, Note_on_c, 0, 51, 0
2, 15824, Note_on_c, 0, 57, 0
2, 15824, Note_on_c, 0, 60, 0
2, 15824, Note_on_c, 0, 53, 0
2, 15826, Note_on_c, 0, 39, 0
2, 15843, Note_on_c, 0, 79, 60
2, 15845, Note_on_c, 0, 81, 0
2, 15847, Note_on_c, 0, 72, 0
2, 15905, Note_on_c, 0, 78, 60
2, 15905, Note_on_c, 0, 72, 60
2, 15908, Note_on_c, 0, 79, 0
2, 15908, Note_on_c, 0, 50, 60
2, 15908, Note_on_c, 0, 38, 60
2, 15946, Control_c, 0, 64, 127
2, 15962, Note_on_c, 0, 81, 60
2, 15967, Note_on_c, 0, 78, 0
2, 15969, Note_on_c, 0, 72, 0
2, 15997, Control_c, 0, 64, 0
2, 16020, Note_on_c, 0, 84, 60
2, 16023, Note_on_c, 0, 76, 60
2, 16025, Note_on_c, 0, 57, 60
2, 16025, Note_on_c, 0, 60, 60
2, 16025, Note_on_c, 0, 54, 60
2, 16027, Note_on_c, 0, 81, 0
2, 16063, Note_on_c, 0, 54, 0
2, 16063, Note_on_c, 0, 57, 0
2, 16063, Note_on_c, 0, 60, 0
2, 16078, Note_on_c, 0, 88, 60
2, 16080, Note_on_c, 0, 78, 60
2, 16082, Note_on_c, 0, 84, 0
2, 16082, Note_on_c, 0, 76, 0
2, 16110, Note_on_c, 0, 38, 0
2, 16138, Note_on_c, 0, 38, 60
2, 16152, Control_c, 0, 64, 127
2, 16163, Note_on_c, 0, 78, 0
2, 16196, Note_on_c, 0, 86, 60
2, 16196, Note_on_c, 0, 78, 60
2, 16200, Note_on_c, 0, 88, 0
2, 16210, Note_on_c, 0, 78, 0
2, 16238, Control_c, 0, 64, 0
2, 16255, Note_on_c, 0, 66, 60
2, 16255, Note_on_c, 0, 78, 60
2, 16255, Note_on_c, 0, 84, 60
2, 16255, Note_on_c, 0, 62, 60
2, 16257, Note_on_c, 0, 86, 0
2, 16257, Note_on_c, 0, 60, 60
2, 16257, Note_on_c, 0, 57, 60
2, 16281, Note_on_c, 0, 78, 0
2, 16292, Note_on_c, 0, 66, 0
2, 16292, Note_on_c, 0, 62, 0
2, 16292, Note_on_c, 0, 60, 0
2, 16294, Note_on_c, 0, 57, 0
2, 16311, Note_on_c, 0, 81, 60
2, 16313, Note_on_c, 0, 78, 60
2, 16315, Note_on_c, 0, 84, 0
2, 16362, Note_on_c, 0, 38, 0
2, 16362, Note_on_c, 0, 50, 0
2, 16368, Note_on_c, 0, 62, 60
2, 16368, Note_on_c, 0, 65, 60
2, 16368, Note_on_c, 0, 77, 60
2, 16368, Note_on_c, 0, 86, 60
2, 16368, Note_on_c, 0, 59, 60
2, 16370, Note_on_c, 0, 81, 0
2, 16370, Note_on_c, 0, 55, 60
2, 16370, Note_on_c, 0, 43, 60
2, 16372, Note_on_c, 0, 78, 0
2, 16407, Note_on_c, 0, 65, 0
2, 16407, Note_on_c, 0, 59, 0
2, 16407, Note_on_c, 0, 43, 0
2, 16407, Note_on_c, 0, 62, 0
2, 16407, Note_on_c, 0, 55, 0
2, 16488, Note_on_c, 0, 43, 60
2, 16488, Note_on_c, 0, 31, 60
2, 16536, Control_c, 0, 64, 127
2, 16603, Note_on_c, 0, 45, 60
2, 16605, Note_on_c, 0, 33, 60
2, 16608, Note_on_c, 0, 31, 0
2, 16608, Note_on_c, 0, 43, 0
2, 16716, Note_on_c, 0, 74, 60
2, 16716, Note_on_c, 0, 62, 60
2, 16718, Note_on_c, 0, 86, 0
2, 16718, Note_on_c, 0, 47, 60
2, 16720, Note_on_c, 0, 77, 0
2, 16720, Note_on_c, 0, 45, 0
2, 16723, Note_on_c, 0, 33, 0
2, 16723, Control_c, 0, 64, 0
2, 16730, Note_on_c, 0, 35, 60
2, 16774, Note_on_c, 0, 75, 60
2, 16776, Note_on_c, 0, 63, 60
2, 16777, Note_on_c, 0, 62, 0
2, 16777, Note_on_c, 0, 74, 0
2, 16833, Note_on_c, 0, 76, 60
2, 16833, Note_on_c, 0, 64, 60
2, 16835, Note_on_c, 0, 48, 60
2, 16838, Note_on_c, 0, 75, 0
2, 16838, Note_on_c, 0, 63, 0
2, 16840, Note_on_c, 0, 47, 0
2, 16840, Note_on_c, 0, 35, 0
2, 16882, Control_c, 0, 64, 127
2, 16889, Note_on_c, 0, 84, 60
2, 16891, Note_on_c, 0, 72, 60
2, 16896, Note_on_c, 0, 76, 0
2, 16896, Note_on_c, 0, 64, 0
2, 16917, Note_on_c, 0, 84, 0
2, 16919, Note_on_c, 0, 72, 0
2, 16950, Note_on_c, 0, 64, 60
2, 16950, Note_on_c, 0, 60, 60
2, 16953, Note_on_c, 0, 55, 60
2, 16969, Control_c, 0, 64, 0
2, 16978, Note_on_c, 0, 64, 0
2, 16989, Note_on_c, 0, 60, 0
2, 16992, Note_on_c, 0, 55, 0
2, 17008, Note_on_c, 0, 76, 60
2, 17011, Note_on_c, 0, 64, 60
2, 17060, Note_on_c, 0, 48, 0
2, 17064, Note_on_c, 0, 84, 60
2, 17065, Note_on_c, 0, 72, 60
2, 17068, Note_on_c, 0, 43, 60
2, 17070, Note_on_c, 0, 64, 0
2, 17070, Note_on_c, 0, 76, 0
2, 17091, Note_on_c, 0, 84, 0
2, 17093, Note_on_c, 0, 72, 0
2, 17093, Control_c, 0, 64, 127
2, 17184, Control_c, 0, 64, 0
2, 17187, Note_on_c, 0, 58, 60
2, 17187, Note_on_c, 0, 64, 60
2, 17187, Note_on_c, 0, 76, 60
2, 17187, Note_on_c, 0, 55, 60
2, 17217, Note_on_c, 0, 55, 0
2, 17217, Note_on_c, 0, 58, 0
2, 17245, Note_on_c, 0, 84, 60
2, 17245, Note_on_c, 0, 72, 60
2, 17249, Note_on_c, 0, 76, 0
2, 17249, Note_on_c, 0, 64, 0
2, 17299, Note_on_c, 0, 43, 0
2, 17304, Note_on_c, 0, 41, 60
2, 17341, Control_c, 0, 64, 127
2, 17388, Control_c, 0, 64, 0
2, 17418, Note_on_c, 0, 57, 60
2, 17418, Note_on_c, 0, 60, 60
2, 17418, Note_on_c, 0, 53, 60
2, 17454, Note_on_c, 0, 53, 0
2, 17454, Note_on_c, 0, 57, 0
2, 17454, Note_on_c, 0, 60, 0
2, 17518, Note_on_c, 0, 84, 0
2, 17520, Note_on_c, 0, 72, 0
2, 17522, Note_on_c, 0, 41, 0
2, 17531, Note_on_c, 0, 40, 60
2, 17580, Control_c, 0, 64, 127
2, 17584, Note_on_c, 0, 96, 60
2, 17587, Note_on_c, 0, 76, 60
2, 17587, Note_on_c, 0, 84, 60
2, 17587, Note_on_c, 0, 88, 60
2, 17587, Note_on_c, 0, 72, 60
2, 17627, Control_c, 0, 64, 0
2, 17638, Note_on_c, 0, 98, 60
2, 17640, Note_on_c, 0, 77, 60
2, 17640, Note_on_c, 0, 86, 60
2, 17640, Note_on_c, 0, 89, 60
2, 17640, Note_on_c, 0, 74, 60
2, 17641, Note_on_c, 0, 96, 0
2, 17641, Note_on_c, 0, 60, 60
2, 17641, Note_on_c, 0, 55, 60
2, 17644, Note_on_c, 0, 88, 0
2, 17644, Note_on_c, 0, 84, 0
2, 17644, Note_on_c, 0, 72, 0
2, 17644, Note_on_c, 0, 76, 0
2, 17665, Note_on_c, 0, 60, 0
2, 17667, Note_on_c, 0, 55, 0
2, 17690, Note_on_c, 0, 99, 60
2, 17693, Note_on_c, 0, 78, 60
2, 17693, Note_on_c, 0, 87, 60
2, 17693, Note_on_c, 0, 90, 60
2, 17693, Note_on_c, 0, 75, 60
2, 17695, Note_on_c, 0, 98, 0
2, 17695, Note_on_c, 0, 86, 0
2, 17695, Note_on_c, 0, 89, 0
2, 17697, Note_on_c, 0, 77, 0
2, 17697, Note_on_c, 0, 74, 0
2, 17746, Note_on_c, 0, 40, 0
2, 17748, Note_on_c, 0, 100, 60
2, 17751, Note_on_c, 0, 88, 60
2, 17751, Note_on_c, 0, 91, 60
2, 17751, Note_on_c, 0, 79, 60
2, 17753, Note_on_c, 0, 99, 0
2, 17753, Note_on_c, 0, 76, 60
2, 17755, Note_on_c, 0, 78, 0
2, 17755, Note_on_c, 0, 87, 0
2, 17755, Note_on_c, 0, 75, 0
2, 17755, Note_on_c, 0, 90, 0
2, 17755, Note_on_c, 0, 43, 60
2, 17779, Note_on_c, 0, 88, 0
2, 17781, Note_on_c, 0, 76, 0
2, 17781, Control_c, 0, 64, 127
2, 17808, Note_on_c, 0, 88, 60
2, 17808, Note_on_c, 0, 96, 60
2, 17808, Note_on_c, 0, 84, 60
2, 17810, Note_on_c, 0, 100, 0
2, 17810, Note_on_c, 0, 76, 60
2, 17810, Note_on_c, 0, 72, 60
2, 17812, Note_on_c, 0, 91, 0
2, 17812, Note_on_c, 0, 79, 0
2, 17863, Note_on_c, 0, 98, 60
2, 17863, Control_c, 0, 64, 0
2, 17866, Note_on_c, 0, 77, 60
2, 17866, Note_on_c, 0, 86, 60
2, 17866, Note_on_c, 0, 89, 60
2, 17866, Note_on_c, 0, 74, 60
2, 17868, Note_on_c, 0, 96, 0
2, 17868, Note_on_c, 0, 55, 60
2, 17868, Note_on_c, 0, 60, 60
2, 17868, Note_on_c, 0, 52, 60
2, 17870, Note_on_c, 0, 84, 0
2, 17870, Note_on_c, 0, 88, 0
2, 17870, Note_on_c, 0, 76, 0
2, 17872, Note_on_c, 0, 72, 0
2, 17894, Note_on_c, 0, 55, 0
2, 17894, Note_on_c, 0, 60, 0
2, 17896, Note_on_c, 0, 52, 0
2, 17919, Note_on_c, 0, 91, 60
2, 17919, Note_on_c, 0, 100, 60
2, 17919, Note_on_c, 0, 88, 60
2, 17921, Note_on_c, 0, 79, 60
2, 17921, Note_on_c, 0, 76, 60
2, 17926, Note_on_c, 0, 86, 0
2, 17926, Note_on_c, 0, 89, 0
2, 17926, Note_on_c, 0, 98, 0
2, 17928, Note_on_c, 0, 77, 0
2, 17929, Note_on_c, 0, 74, 0
2, 17952, Note_on_c, 0, 43, 0
2, 17983, Note_on_c, 0, 43, 60
2, 17985, Control_c, 0, 64, 127
2, 18039, Note_on_c, 0, 95, 60
2, 18041, Note_on_c, 0, 74, 60
2, 18041, Note_on_c, 0, 83, 60
2, 18041, Note_on_c, 0, 86, 60
2, 18041, Note_on_c, 0, 71, 60
2, 18043, Note_on_c, 0, 100, 0
2, 18043, Note_on_c, 0, 91, 0
2, 18048, Note_on_c, 0, 79, 0
2, 18048, Note_on_c, 0, 76, 0
2, 18048, Note_on_c, 0, 88, 0
2, 18069, Note_on_c, 0, 86, 0
2, 18072, Note_on_c, 0, 74, 0
2, 18074, Control_c, 0, 64, 0
2, 18102, Note_on_c, 0, 98, 60
2, 18105, Note_on_c, 0, 77, 60
2, 18105, Note_on_c, 0, 86, 60
2, 18105, Note_on_c, 0, 89, 60
2, 18105, Note_on_c, 0, 74, 60
2, 18107, Note_on_c, 0, 83, 0
2, 18107, Note_on_c, 0, 95, 0
2, 18107, Note_on_c, 0, 55, 60
2, 18107, Note_on_c, 0, 59, 60
2, 18107, Note_on_c, 0, 53, 60
2, 18109, Note_on_c, 0, 71, 0
2, 18132, Note_on_c, 0, 53, 0
2, 18132, Note_on_c, 0, 55, 0
2, 18132, Note_on_c, 0, 59, 0
2, 18216, Note_on_c, 0, 43, 0
2, 18220, Note_on_c, 0, 88, 60
2, 18220, Note_on_c, 0, 96, 60
2, 18220, Note_on_c, 0, 84, 60
2, 18222, Note_on_c, 0, 76, 60
2, 18222, Note_on_c, 0, 72, 60
2, 18224, Note_on_c, 0, 89, 0
2, 18224, Note_on_c, 0, 98, 0
2, 18224, Note_on_c, 0, 86, 0
2, 18224, Note_on_c, 0, 36, 60
2, 18226, Note_on_c, 0, 74, 0
2, 18226, Note_on_c, 0, 77, 0
2, 18237, Control_c, 0, 64, 127
2, 18299, Note_on_c, 0, 76, 0
2, 18341, Note_on_c, 0, 76, 60
2, 18343, Note_on_c, 0, 96, 0
2, 18343, Note_on_c, 0, 88, 0
2, 18343, Note_on_c, 0, 55, 60
2, 18343, Note_on_c, 0, 60, 60
2, 18343, Note_on_c, 0, 52, 60
2, 18346, Note_on_c, 0, 84, 0
2, 18346, Note_on_c, 0, 72, 0
2, 18371, Note_on_c, 0, 60, 0
2, 18371, Note_on_c, 0, 55, 0
2, 18371, Note_on_c, 0, 52, 0
2, 18404, Note_on_c, 0, 79, 60
2, 18408, Note_on_c, 0, 76, 0
2, 18435, Control_c, 0, 64, 0
2, 18465, Note_on_c, 0, 84, 60
2, 18465, Note_on_c, 0, 76, 60
2, 18467, Note_on_c, 0, 79, 0
2, 18467, Note_on_c, 0, 55, 60
2, 18467, Note_on_c, 0, 60, 60
2, 18467, Note_on_c, 0, 52, 60
2, 18493, Note_on_c, 0, 52, 0
2, 18493, Note_on_c, 0, 55, 0
2, 18493, Note_on_c, 0, 60, 0
2, 18495, Note_on_c, 0, 36, 0
2, 18514, Note_on_c, 0, 84, 0
2, 18514, Note_on_c, 0, 76, 0
2, 18585, Note_on_c, 0, 96, 60
2, 18587, Note_on_c, 0, 76, 60
2, 18587, Note_on_c, 0, 84, 60
2, 18587, Note_on_c, 0, 88, 60
2, 18587, Note_on_c, 0, 72, 60
2, 18645, Note_on_c, 0, 77, 60
2, 18645, Note_on_c, 0, 86, 60
2, 18645, Note_on_c, 0, 89, 60
2, 18645, Note_on_c, 0, 98, 60
2, 18645, Note_on_c, 0, 74, 60
2, 18648, Note_on_c, 0, 88, 0
2, 18648, Note_on_c, 0, 84, 0
2, 18648, Note_on_c, 0, 96, 0
2, 18648, Note_on_c, 0, 76, 0
2, 18650, Note_on_c, 0, 72, 0
2, 18702, Note_on_c, 0, 88, 60
2, 18702, Note_on_c, 0, 91, 60
2, 18702, Note_on_c, 0, 100, 60
2, 18702, Note_on_c, 0, 79, 60
2, 18704, Note_on_c, 0, 76, 60
2, 18706, Note_on_c, 0, 86, 0
2, 18706, Note_on_c, 0, 74, 0
2, 18706, Note_on_c, 0, 98, 0
2, 18706, Note_on_c, 0, 89, 0
2, 18706, Note_on_c, 0, 48, 60
2, 18706, Note_on_c, 0, 36, 60
2, 18708, Note_on_c, 0, 77, 0
2, 18727, Note_on_c, 0, 76, 0
2, 18727, Note_on_c, 0, 88, 0
2, 18739, Control_c, 0, 64, 127
2, 18755, Note_on_c, 0, 96, 60
2, 18758, Note_on_c, 0, 84, 60
2, 18758, Note_on_c, 0, 88, 60
2, 18758, Note_on_c, 0, 76, 60
2, 18760, Note_on_c, 0, 100, 0
2, 18760, Note_on_c, 0, 91, 0
2, 18760, Note_on_c, 0, 72, 60
2, 18762, Note_on_c, 0, 79, 0
2, 18788, Control_c, 0, 64, 0
2, 18811, Note_on_c, 0, 98, 60
2, 18813, Note_on_c, 0, 77, 60
2, 18813, Note_on_c, 0, 86, 60
2, 18813, Note_on_c, 0, 89, 60
2, 18813, Note_on_c, 0, 74, 60
2, 18816, Note_on_c, 0, 96, 0
2, 18816, Note_on_c, 0, 60, 60
2, 18816, Note_on_c, 0, 64, 60
2, 18816, Note_on_c, 0, 55, 60
2, 18817, Note_on_c, 0, 72, 0
2, 18817, Note_on_c, 0, 88, 0
2, 18817, Note_on_c, 0, 76, 0
2, 18817, Note_on_c, 0, 84, 0
2, 18840, Note_on_c, 0, 55, 0
2, 18840, Note_on_c, 0, 64, 0
2, 18840, Note_on_c, 0, 60, 0
2, 18866, Note_on_c, 0, 100, 60
2, 18868, Note_on_c, 0, 88, 60
2, 18868, Note_on_c, 0, 91, 60
2, 18868, Note_on_c, 0, 79, 60
2, 18870, Note_on_c, 0, 98, 0
2, 18870, Note_on_c, 0, 76, 60
2, 18873, Note_on_c, 0, 86, 0
2, 18873, Note_on_c, 0, 89, 0
2, 18873, Note_on_c, 0, 77, 0
2, 18873, Note_on_c, 0, 74, 0
2, 18875, Note_on_c, 0, 36, 0
2, 18875, Note_on_c, 0, 48, 0
2, 18926, Note_on_c, 0, 46, 60
2, 18926, Note_on_c, 0, 34, 60
2, 18936, Note_on_c, 0, 91, 0
2, 18938, Control_c, 0, 64, 127
2, 18950, Note_on_c, 0, 79, 0
2, 18980, Note_on_c, 0, 79, 60
2, 18980, Note_on_c, 0, 84, 60
2, 18980, Note_on_c, 0, 91, 60
2, 18980, Note_on_c, 0, 96, 60
2, 18980, Note_on_c, 0, 72, 60
2, 18982, Note_on_c, 0, 100, 0
2, 18984, Note_on_c, 0, 88, 0
2, 18984, Note_on_c, 0, 76, 0
2, 18996, Note_on_c, 0, 79, 0
2, 19024, Control_c, 0, 64, 0
2, 19037, Note_on_c, 0, 98, 60
2, 19037, Note_on_c, 0, 74, 60
2, 19039, Note_on_c, 0, 86, 60
2, 19039, Note_on_c, 0, 79, 60
2, 19041, Note_on_c, 0, 91, 0
2, 19041, Note_on_c, 0, 96, 0
2, 19041, Note_on_c, 0, 60, 60
2, 19041, Note_on_c, 0, 64, 60
2, 19041, Note_on_c, 0, 55, 60
2, 19043, Note_on_c, 0, 72, 0
2, 19043, Note_on_c, 0, 84, 0
2, 19054, Note_on_c, 0, 79, 0
2, 19067, Note_on_c, 0, 60, 0
2, 19067, Note_on_c, 0, 55, 0
2, 19067, Note_on_c, 0, 64, 0
2, 19095, Note_on_c, 0, 96, 60
2, 19095, Note_on_c, 0, 91, 60
2, 19097, Note_on_c, 0, 79, 60
2, 19097, Note_on_c, 0, 84, 60
2, 19097, Note_on_c, 0, 72, 60
2, 19099, Note_on_c, 0, 86, 0
2, 19099, Note_on_c, 0, 98, 0
2, 19101, Note_on_c, 0, 74, 0
2, 19150, Note_on_c, 0, 46, 0
2, 19150, Note_on_c, 0, 34, 0
2, 19152, Note_on_c, 0, 100, 60
2, 19152, Note_on_c, 0, 93, 60
2, 19154, Note_on_c, 0, 81, 60
2, 19154, Note_on_c, 0, 88, 60
2, 19154, Note_on_c, 0, 76, 60
2, 19156, Note_on_c, 0, 91, 0
2, 19156, Note_on_c, 0, 84, 0
2, 19156, Note_on_c, 0, 79, 0
2, 19156, Note_on_c, 0, 96, 0
2, 19156, Note_on_c, 0, 45, 60
2, 19156, Note_on_c, 0, 33, 60
2, 19161, Note_on_c, 0, 72, 0
2, 19180, Control_c, 0, 64, 127
2, 19212, Note_on_c, 0, 96, 60
2, 19212, Note_on_c, 0, 84, 60
2, 19214, Note_on_c, 0, 93, 0
2, 19214, Note_on_c, 0, 88, 0
2, 19214, Note_on_c, 0, 100, 0
2, 19214, Note_on_c, 0, 72, 60
2, 19216, Note_on_c, 0, 81, 0
2, 19219, Note_on_c, 0, 76, 0
2, 19268, Control_c, 0, 64, 0
2, 19272, Note_on_c, 0, 81, 60
2, 19272, Note_on_c, 0, 93, 60
2, 19272, Note_on_c, 0, 98, 60
2, 19272, Note_on_c, 0, 74, 60
2, 19273, Note_on_c, 0, 60, 60
2, 19273, Note_on_c, 0, 65, 60
2, 19273, Note_on_c, 0, 57, 60
2, 19276, Note_on_c, 0, 84, 0
2, 19276, Note_on_c, 0, 96, 0
2, 19276, Note_on_c, 0, 72, 0
2, 19284, Note_on_c, 0, 86, 60
2, 19303, Note_on_c, 0, 65, 0
2, 19303, Note_on_c, 0, 60, 0
2, 19303, Note_on_c, 0, 57, 0
2, 19331, Note_on_c, 0, 92, 60
2, 19331, Note_on_c, 0, 100, 60
2, 19331, Note_on_c, 0, 88, 60
2, 19334, Note_on_c, 0, 80, 60
2, 19334, Note_on_c, 0, 76, 60
2, 19336, Note_on_c, 0, 74, 0
2, 19336, Note_on_c, 0, 98, 0
2, 19336, Note_on_c, 0, 86, 0
2, 19336, Note_on_c, 0, 81, 0
2, 19336, Note_on_c, 0, 93, 0
2, 19338, Note_on_c, 0, 45, 0
2, 19340, Note_on_c, 0, 33, 0
2, 19393, Note_on_c, 0, 44, 60
2, 19393, Note_on_c, 0, 32, 60
2, 19404, Note_on_c, 0, 92, 0
2, 19406, Note_on_c, 0, 80, 0
2, 19432, Control_c, 0, 64, 127
2, 19449, Note_on_c, 0, 96, 60
2, 19449, Note_on_c, 0, 92, 60
2, 19451, Note_on_c, 0, 100, 0
2, 19451, Note_on_c, 0, 80, 60
2, 19451, Note_on_c, 0, 84, 60
2, 19451, Note_on_c, 0, 72, 60
2, 19453, Note_on_c, 0, 88, 0
2, 19455, Note_on_c, 0, 76, 0
2, 19476, Note_on_c, 0, 80, 0
2, 19476, Note_on_c, 0, 92, 0
2, 19481, Control_c, 0, 64, 0
2, 19507, Note_on_c, 0, 86, 60
2, 19507, Note_on_c, 0, 92, 60
2, 19507, Note_on_c, 0, 98, 60
2, 19507, Note_on_c, 0, 74, 60
2, 19509, Note_on_c, 0, 65, 60
2, 19509, Note_on_c, 0, 80, 60
2, 19509, Note_on_c, 0, 60, 60
2, 19511, Note_on_c, 0, 84, 0
2, 19511, Note_on_c, 0, 72, 0
2, 19511, Note_on_c, 0, 96, 0
2, 19511, Note_on_c, 0, 56, 60
2, 19534, Note_on_c, 0, 80, 0
2, 19534, Note_on_c, 0, 65, 0
2, 19534, Note_on_c, 0, 92, 0
2, 19536, Note_on_c, 0, 56, 0
2, 19536, Note_on_c, 0, 60, 0
2, 19564, Note_on_c, 0, 84, 60
2, 19564, Note_on_c, 0, 92, 60
2, 19564, Note_on_c, 0, 96, 60
2, 19564, Note_on_c, 0, 80, 60
2, 19566, Note_on_c, 0, 98, 0
2, 19566, Note_on_c, 0, 72, 60
2, 19568, Note_on_c, 0, 74, 0
2, 19568, Note_on_c, 0, 86, 0
2, 19619, Note_on_c, 0, 44, 0
2, 19622, Note_on_c, 0, 32, 0
2, 19624, Note_on_c, 0, 91, 60
2, 19624, Note_on_c, 0, 100, 60
2, 19624, Note_on_c, 0, 88, 60
2, 19626, Note_on_c, 0, 79, 60
2, 19626, Note_on_c, 0, 76, 60
2, 19628, Note_on_c, 0, 92, 0
2, 19628, Note_on_c, 0, 96, 0
2, 19628, Note_on_c, 0, 84, 0
2, 19628, Note_on_c, 0, 43, 60
2, 19628, Note_on_c, 0, 31, 60
2, 19630, Note_on_c, 0, 72, 0
2, 19630, Note_on_c, 0, 80, 0
2, 19641, Control_c, 0, 64, 127
2, 19652, Note_on_c, 0, 88, 0
2, 19654, Note_on_c, 0, 76, 0
2, 19683, Note_on_c, 0, 84, 60
2, 19683, Note_on_c, 0, 88, 60
2, 19683, Note_on_c, 0, 96, 60
2, 19683, Note_on_c, 0, 76, 60
2, 19685, Note_on_c, 0, 100, 0
2, 19685, Note_on_c, 0, 72, 60
2, 19687, Note_on_c, 0, 79, 0
2, 19687, Note_on_c, 0, 91, 0
2, 19726, Control_c, 0, 64, 0
2, 19739, Note_on_c, 0, 86, 60
2, 19739, Note_on_c, 0, 89, 60
2, 19739, Note_on_c, 0, 98, 60
2, 19739, Note_on_c, 0, 74, 60
2, 19741, Note_on_c, 0, 60, 60
2, 19741, Note_on_c, 0, 64, 60
2, 19741, Note_on_c, 0, 77, 60
2, 19741, Note_on_c, 0, 55, 60
2, 19743, Note_on_c, 0, 96, 0
2, 19743, Note_on_c, 0, 84, 0
2, 19743, Note_on_c, 0, 88, 0
2, 19745, Note_on_c, 0, 72, 0
2, 19745, Note_on_c, 0, 76, 0
2, 19767, Note_on_c, 0, 64, 0
2, 19767, Note_on_c, 0, 60, 0
2, 19767, Note_on_c, 0, 55, 0
2, 19792, Note_on_c, 0, 91, 60
2, 19792, Note_on_c, 0, 100, 60
2, 19792, Note_on_c, 0, 88, 60
2, 19797, Note_on_c, 0, 79, 60
2, 19797, Note_on_c, 0, 76, 60
2, 19799, Note_on_c, 0, 89, 0
2, 19799, Note_on_c, 0, 86, 0
2, 19799, Note_on_c, 0, 98, 0
2, 19800, Note_on_c, 0, 74, 0
2, 19800, Note_on_c, 0, 77, 0
2, 19824, Note_on_c, 0, 31, 0
2, 19824, Note_on_c, 0, 43, 0
2, 19854, Note_on_c, 0, 43, 60
2, 19856, Note_on_c, 0, 31, 60
2, 19882, Control_c, 0, 64, 127
2, 19907, Note_on_c, 0, 86, 60
2, 19907, Note_on_c, 0, 95, 60
2, 19907, Note_on_c, 0, 83, 60
2, 19910, Note_on_c, 0, 100, 0
2, 19910, Note_on_c, 0, 74, 60
2, 19910, Note_on_c, 0, 71, 60
2, 19912, Note_on_c, 0, 91, 0
2, 19912, Note_on_c, 0, 88, 0
2, 19912, Note_on_c, 0, 79, 0
2, 19914, Note_on_c, 0, 76, 0
2, 19933, Note_on_c, 0, 86, 0
2, 19937, Note_on_c, 0, 74, 0
2, 19963, Note_on_c, 0, 98, 60
2, 19963, Control_c, 0, 64, 0
2, 19965, Note_on_c, 0, 77, 60
2, 19965, Note_on_c, 0, 86, 60
2, 19965, Note_on_c, 0, 89, 60
2, 19965, Note_on_c, 0, 74, 60
2, 19968, Note_on_c, 0, 95, 0
2, 19968, Note_on_c, 0, 55, 60
2, 19968, Note_on_c, 0, 59, 60
2, 19968, Note_on_c, 0, 53, 60
2, 19969, Note_on_c, 0, 71, 0
2, 19969, Note_on_c, 0, 83, 0
2, 19992, Note_on_c, 0, 59, 0
2, 19992, Note_on_c, 0, 55, 0
2, 19992, Note_on_c, 0, 53, 0
2, 20074, Note_on_c, 0, 43, 0
2, 20074, Note_on_c, 0, 31, 0
2, 20078, Note_on_c, 0, 84, 60
2, 20080, Note_on_c, 0, 98, 0
2, 20080, Note_on_c, 0, 76, 60
2, 20080, Note_on_c, 0, 72, 60
2, 20083, Note_on_c, 0, 77, 0
2, 20083, Note_on_c, 0, 74, 0
2, 20083, Note_on_c, 0, 86, 0
2, 20083, Note_on_c, 0, 89, 0
2, 20083, Note_on_c, 0, 48, 60
2, 20083, Note_on_c, 0, 36, 60
2, 20116, Control_c, 0, 64, 127
2, 20195, Note_on_c, 0, 55, 60
2, 20198, Note_on_c, 0, 43, 60
2, 20200, Note_on_c, 0, 36, 0
2, 20200, Note_on_c, 0, 48, 0
2, 20238, Control_c, 0, 64, 0
2, 20317, Note_on_c, 0, 48, 60
2, 20319, Note_on_c, 0, 36, 60
2, 20321, Note_on_c, 0, 55, 0
2, 20321, Note_on_c, 0, 43, 0
2, 20332, Note_on_c, 0, 76, 0
2, 20334, Note_on_c, 0, 72, 0
2, 20366, Note_on_c, 0, 84, 0
2, 20376, Note_on_c, 0, 72, 60
2, 20376, Note_on_c, 0, 76, 60
2, 20376, Note_on_c, 0, 64, 60
2, 20383, Note_on_c, 0, 36, 0
2, 20383, Note_on_c, 0, 48, 0
2, 20432, Note_on_c, 0, 77, 60
2, 20432, Note_on_c, 0, 74, 60
2, 20434, Note_on_c, 0, 65, 60
2, 20436, Note_on_c, 0, 76, 0
2, 20436, Note_on_c, 0, 64, 0
2, 20439, Note_on_c, 0, 72, 0
2, 20494, Note_on_c, 0, 75, 60
2, 20494, Note_on_c, 0, 78, 60
2, 20494, Note_on_c, 0, 66, 60
2, 20496, Note_on_c, 0, 77, 0
2, 20496, Note_on_c, 0, 74, 0
2, 20496, Note_on_c, 0, 48, 60
2, 20498, Note_on_c, 0, 65, 0
2, 20524, Note_on_c, 0, 48, 0
2, 20554, Note_on_c, 0, 79, 60
2, 20554, Note_on_c, 0, 88, 60
2, 20554, Note_on_c, 0, 91, 60
2, 20554, Note_on_c, 0, 76, 60
2, 20556, Note_on_c, 0, 67, 60
2, 20556, Note_on_c, 0, 48, 60
2, 20558, Note_on_c, 0, 75, 0
2, 20558, Note_on_c, 0, 78, 0
2, 20558, Note_on_c, 0, 43, 60
2, 20558, Note_on_c, 0, 36, 60
2, 20560, Note_on_c, 0, 66, 0
2, 20582, Note_on_c, 0, 79, 0
2, 20582, Note_on_c, 0, 88, 0
2, 20582, Control_c, 0, 64, 127
2, 20592, Note_on_c, 0, 91, 0
2, 20594, Note_on_c, 0, 67, 0
2, 20631, Note_on_c, 0, 76, 0
2, 20671, Control_c, 0, 64, 0
2, 20673, Note_on_c, 0, 76, 60
2, 20675, Note_on_c, 0, 81, 60
2, 20675, Note_on_c, 0, 69, 60
2, 20678, Note_on_c, 0, 60, 60
2, 20678, Note_on_c, 0, 64, 60
2, 20678, Note_on_c, 0, 55, 60
2, 20682, Note_on_c, 0, 43, 0
2, 20682, Note_on_c, 0, 48, 0
2, 20682, Note_on_c, 0, 36, 0
2, 20703, Note_on_c, 0, 76, 0
2, 20713, Note_on_c, 0, 64, 0
2, 20716, Note_on_c, 0, 60, 0
2, 20716, Note_on_c, 0, 55, 0
2, 20736, Note_on_c, 0, 79, 60
2, 20736, Note_on_c, 0, 76, 60
2, 20737, Note_on_c, 0, 67, 60
2, 20739, Note_on_c, 0, 81, 0
2, 20741, Note_on_c, 0, 69, 0
2, 20797, Note_on_c, 0, 43, 60
2, 20797, Note_on_c, 0, 31, 60
2, 20820, Note_on_c, 0, 76, 0
2, 20835, Control_c, 0, 64, 127
2, 20855, Note_on_c, 0, 72, 60
2, 20855, Note_on_c, 0, 76, 60
2, 20855, Note_on_c, 0, 64, 60
2, 20856, Note_on_c, 0, 79, 0
2, 20858, Note_on_c, 0, 67, 0
2, 20914, Note_on_c, 0, 77, 60
2, 20914, Note_on_c, 0, 74, 60
2, 20916, Note_on_c, 0, 60, 60
2, 20916, Note_on_c, 0, 65, 60
2, 20916, Note_on_c, 0, 55, 60
2, 20919, Note_on_c, 0, 72, 0
2, 20919, Note_on_c, 0, 76, 0
2, 20923, Control_c, 0, 64, 0
2, 20940, Note_on_c, 0, 64, 0
2, 20942, Note_on_c, 0, 60, 0
2, 20942, Note_on_c, 0, 55, 0
2, 20966, Note_on_c, 0, 43, 0
2, 20966, Note_on_c, 0, 31, 0
2, 20972, Note_on_c, 0, 75, 60
2, 20972, Note_on_c, 0, 78, 60
2, 20972, Note_on_c, 0, 66, 60
2, 20974, Note_on_c, 0, 74, 0
2, 20974, Note_on_c, 0, 48, 60
2, 20976, Note_on_c, 0, 77, 0
2, 20976, Note_on_c, 0, 65, 0
2, 21000, Note_on_c, 0, 48, 0
2, 21027, Note_on_c, 0, 91, 60
2, 21029, Note_on_c, 0, 76, 60
2, 21029, Note_on_c, 0, 79, 60
2, 21029, Note_on_c, 0, 88, 60
2, 21029, Note_on_c, 0, 67, 60
2, 21031, Note_on_c, 0, 43, 60
2, 21031, Note_on_c, 0, 48, 60
2, 21031, Note_on_c, 0, 36, 60
2, 21034, Note_on_c, 0, 75, 0
2, 21034, Note_on_c, 0, 66, 0
2, 21034, Note_on_c, 0, 78, 0
2, 21045, Control_c, 0, 64, 127
2, 21066, Note_on_c, 0, 91, 0
2, 21066, Note_on_c, 0, 88, 0
2, 21068, Note_on_c, 0, 76, 0
2, 21068, Note_on_c, 0, 79, 0
2, 21089, Note_on_c, 0, 67, 0
2, 21092, Control_c, 0, 64, 0
2, 21144, Note_on_c, 0, 81, 60
2, 21146, Note_on_c, 0, 60, 60
2, 21146, Note_on_c, 0, 64, 60
2, 21146, Note_on_c, 0, 69, 60
2, 21146, Note_on_c, 0, 76, 60
2, 21146, Note_on_c, 0, 55, 60
2, 21172, Note_on_c, 0, 76, 0
2, 21172, Note_on_c, 0, 64, 0
2, 21172, Note_on_c, 0, 60, 0
2, 21174, Note_on_c, 0, 55, 0
2, 21204, Note_on_c, 0, 76, 60
2, 21204, Note_on_c, 0, 79, 60
2, 21204, Note_on_c, 0, 67, 60
2, 21207, Note_on_c, 0, 81, 0
2, 21209, Note_on_c, 0, 69, 0
2, 21219, Note_on_c, 0, 43, 0
2, 21262, Note_on_c, 0, 43, 60
2, 21262, Note_on_c, 0, 31, 60
2, 21264, Note_on_c, 0, 48, 0
2, 21266, Note_on_c, 0, 36, 0
2, 21275, Note_on_c, 0, 76, 0
2, 21288, Control_c, 0, 64, 127
2, 21317, Note_on_c, 0, 88, 60
2, 21317, Note_on_c, 0, 76, 60
2, 21322, Note_on_c, 0, 67, 0
2, 21322, Note_on_c, 0, 79, 0
2, 21371, Control_c, 0, 64, 0
2, 21375, Note_on_c, 0, 84, 60
2, 21375, Note_on_c, 0, 72, 60
2, 21377, Note_on_c, 0, 60, 60
2, 21377, Note_on_c, 0, 52, 60
2, 21380, Note_on_c, 0, 88, 0
2, 21380, Note_on_c, 0, 76, 0
2, 21403, Note_on_c, 0, 52, 0
2, 21403, Note_on_c, 0, 60, 0
2, 21431, Note_on_c, 0, 79, 60
2, 21432, Note_on_c, 0, 67, 60
2, 21434, Note_on_c, 0, 84, 0
2, 21437, Note_on_c, 0, 72, 0
2, 21488, Note_on_c, 0, 81, 60
2, 21488, Note_on_c, 0, 69, 60
2, 21490, Note_on_c, 0, 57, 60
2, 21490, Note_on_c, 0, 41, 60
2, 21492, Note_on_c, 0, 79, 0
2, 21492, Note_on_c, 0, 67, 0
2, 21495, Note_on_c, 0, 43, 0
2, 21495, Note_on_c, 0, 31, 0
2, 21528, Control_c, 0, 64, 127
2, 21546, Note_on_c, 0, 83, 60
2, 21550, Note_on_c, 0, 81, 0
2, 21580, Control_c, 0, 64, 0
2, 21607, Note_on_c, 0, 84, 60
2, 21610, Note_on_c, 0, 60, 60
2, 21612, Note_on_c, 0, 83, 0
2, 21612, Note_on_c, 0, 53, 60
2, 21665, Note_on_c, 0, 86, 60
2, 21670, Note_on_c, 0, 84, 0
2, 21725, Note_on_c, 0, 88, 60
2, 21727, Note_on_c, 0, 68, 60
2, 21727, Note_on_c, 0, 56, 60
2, 21729, Note_on_c, 0, 60, 0
2, 21729, Note_on_c, 0, 69, 0
2, 21729, Note_on_c, 0, 86, 0
2, 21731, Note_on_c, 0, 57, 0
2, 21731, Note_on_c, 0, 53, 0
2, 21778, Control_c, 0, 64, 127
2, 21785, Note_on_c, 0, 86, 60
2, 21789, Note_on_c, 0, 88, 0
2, 21830, Control_c, 0, 64, 0
2, 21844, Note_on_c, 0, 84, 60
2, 21846, Note_on_c, 0, 60, 60
2, 21846, Note_on_c, 0, 53, 60
2, 21849, Note_on_c, 0, 86, 0
2, 21874, Note_on_c, 0, 60, 0
2, 21874, Note_on_c, 0, 56, 0
2, 21874, Note_on_c, 0, 53, 0
2, 21902, Note_on_c, 0, 86, 60
2, 21907, Note_on_c, 0, 84, 0
2, 21964, Note_on_c, 0, 79, 60
2, 21964, Note_on_c, 0, 67, 60
2, 21966, Note_on_c, 0, 68, 0
2, 21966, Note_on_c, 0, 86, 0
2, 21966, Note_on_c, 0, 55, 60
2, 21966, Note_on_c, 0, 40, 60
2, 21968, Note_on_c, 0, 41, 0
2, 21989, Control_c, 0, 64, 127
2, 22017, Note_on_c, 0, 88, 60
2, 22024, Note_on_c, 0, 79, 0
2, 22038, Control_c, 0, 64, 0
2, 22077, Note_on_c, 0, 89, 60
2, 22080, Note_on_c, 0, 88, 0
2, 22080, Note_on_c, 0, 60, 60
2, 22080, Note_on_c, 0, 52, 60
2, 22104, Note_on_c, 0, 60, 0
2, 22106, Note_on_c, 0, 55, 0
2, 22106, Note_on_c, 0, 52, 0
2, 22132, Note_on_c, 0, 91, 60
2, 22137, Note_on_c, 0, 89, 0
2, 22195, Note_on_c, 0, 93, 60
2, 22197, Note_on_c, 0, 43, 60
2, 22199, Note_on_c, 0, 91, 0
2, 22200, Note_on_c, 0, 40, 0
2, 22233, Control_c, 0, 64, 127
2, 22249, Note_on_c, 0, 91, 60
2, 22254, Note_on_c, 0, 93, 0
2, 22282, Control_c, 0, 64, 0
2, 22307, Note_on_c, 0, 76, 60
2, 22307, Note_on_c, 0, 72, 60
2, 22310, Note_on_c, 0, 91, 0
2, 22310, Note_on_c, 0, 60, 60
2, 22310, Note_on_c, 0, 64, 60
2, 22310, Note_on_c, 0, 55, 60
2, 22312, Note_on_c, 0, 67, 0
2, 22333, Note_on_c, 0, 60, 0
2, 22333, Note_on_c, 0, 55, 0
2, 22359, Note_on_c, 0, 43, 0
2, 22363, Note_on_c, 0, 77, 60
2, 22363, Note_on_c, 0, 74, 60
2, 22365, Note_on_c, 0, 65, 60
2, 22365, Note_on_c, 0, 48, 60
2, 22368, Note_on_c, 0, 76, 0
2, 22368, Note_on_c, 0, 64, 0
2, 22368, Note_on_c, 0, 72, 0
2, 22418, Note_on_c, 0, 88, 60
2, 22418, Note_on_c, 0, 91, 60
2, 22418, Note_on_c, 0, 79, 60
2, 22420, Note_on_c, 0, 76, 60
2, 22420, Note_on_c, 0, 67, 60
2, 22422, Note_on_c, 0, 43, 60
2, 22422, Note_on_c, 0, 36, 60
2, 22425, Note_on_c, 0, 77, 0
2, 22425, Note_on_c, 0, 65, 0
2, 22427, Note_on_c, 0, 74, 0
2, 22436, Control_c, 0, 64, 127
2, 22455, Note_on_c, 0, 88, 0
2, 22455, Note_on_c, 0, 91, 0
2, 22457, Note_on_c, 0, 76, 0
2, 22457, Note_on_c, 0, 67, 0
2, 22457, Note_on_c, 0, 79, 0
2, 22487, Control_c, 0, 64, 0
2, 22532, Note_on_c, 0, 69, 60
2, 22532, Note_on_c, 0, 76, 60
2, 22532, Note_on_c, 0, 81, 60
2, 22532, Note_on_c, 0, 64, 60
2, 22534, Note_on_c, 0, 60, 60
2, 22534, Note_on_c, 0, 55, 60
2, 22560, Note_on_c, 0, 60, 0
2, 22560, Note_on_c, 0, 64, 0
2, 22560, Note_on_c, 0, 76, 0
2, 22561, Note_on_c, 0, 55, 0
2, 22583, Note_on_c, 0, 48, 0
2, 22583, Note_on_c, 0, 36, 0
2, 22583, Note_on_c, 0, 43, 0
2, 22586, Note_on_c, 0, 79, 60
2, 22586, Note_on_c, 0, 76, 60
2, 22589, Note_on_c, 0, 67, 60
2, 22591, Note_on_c, 0, 69, 0
2, 22591, Note_on_c, 0, 81, 0
2, 22647, Note_on_c, 0, 43, 60
2, 22647, Note_on_c, 0, 31, 60
2, 22661, Note_on_c, 0, 76, 0
2, 22672, Control_c, 0, 64, 127
2, 22704, Note_on_c, 0, 76, 60
2, 22706, Note_on_c, 0, 79, 0
2, 22706, Note_on_c, 0, 72, 60
2, 22706, Note_on_c, 0, 64, 60
2, 22719, Note_on_c, 0, 67, 0
2, 22759, Control_c, 0, 64, 0
2, 22764, Note_on_c, 0, 65, 60
2, 22764, Note_on_c, 0, 74, 60
2, 22764, Note_on_c, 0, 77, 60
2, 22764, Note_on_c, 0, 60, 60
2, 22766, Note_on_c, 0, 55, 60
2, 22768, Note_on_c, 0, 72, 0
2, 22768, Note_on_c, 0, 76, 0
2, 22824, Note_on_c, 0, 75, 60
2, 22825, Note_on_c, 0, 66, 60
2, 22825, Note_on_c, 0, 78, 60
2, 22825, Note_on_c, 0, 48, 60
2, 22828, Note_on_c, 0, 77, 0
2, 22830, Note_on_c, 0, 60, 0
2, 22830, Note_on_c, 0, 55, 0
2, 22830, Note_on_c, 0, 74, 0
2, 22830, Note_on_c, 0, 64, 0
2, 22830, Note_on_c, 0, 65, 0
2, 22841, Note_on_c, 0, 31, 0
2, 22841, Note_on_c, 0, 43, 0
2, 22851, Note_on_c, 0, 48, 0
2, 22881, Note_on_c, 0, 91, 60
2, 22881, Note_on_c, 0, 88, 60
2, 22883, Note_on_c, 0, 76, 60
2, 22883, Note_on_c, 0, 79, 60
2, 22883, Note_on_c, 0, 67, 60
2, 22886, Note_on_c, 0, 43, 60
2, 22886, Note_on_c, 0, 48, 60
2, 22886, Note_on_c, 0, 36, 60
2, 22888, Note_on_c, 0, 75, 0
2, 22888, Note_on_c, 0, 66, 0
2, 22888, Note_on_c, 0, 78, 0
2, 22920, Note_on_c, 0, 91, 0
2, 22920, Note_on_c, 0, 88, 0
2, 22920, Control_c, 0, 64, 127
2, 22921, Note_on_c, 0, 79, 0
2, 22958, Note_on_c, 0, 67, 0
2, 22958, Note_on_c, 0, 76, 0
2, 22970, Control_c, 0, 64, 0
2, 23003, Note_on_c, 0, 60, 60
2, 23003, Note_on_c, 0, 64, 60
2, 23003, Note_on_c, 0, 69, 60
2, 23003, Note_on_c, 0, 76, 60
2, 23003, Note_on_c, 0, 81, 60
2, 23003, Note_on_c, 0, 55, 60
2, 23028, Note_on_c, 0, 76, 0
2, 23040, Note_on_c, 0, 60, 0
2, 23040, Note_on_c, 0, 64, 0
2, 23041, Note_on_c, 0, 55, 0
2, 23061, Note_on_c, 0, 79, 60
2, 23061, Note_on_c, 0, 76, 60
2, 23063, Note_on_c, 0, 67, 60
2, 23064, Note_on_c, 0, 81, 0
2, 23064, Note_on_c, 0, 69, 0
2, 23120, Note_on_c, 0, 64, 60
2, 23120, Note_on_c, 0, 52, 60
2, 23136, Control_c, 0, 64, 127
2, 23146, Note_on_c, 0, 76, 0
2, 23146, Note_on_c, 0, 67, 0
2, 23146, Note_on_c, 0, 79, 0
2, 23178, Note_on_c, 0, 79, 60
2, 23180, Note_on_c, 0, 76, 60
2, 23180, Note_on_c, 0, 67, 60
2, 23184, Note_on_c, 0, 52, 0
2, 23184, Note_on_c, 0, 64, 0
2, 23186, Control_c, 0, 64, 0
2, 23235, Note_on_c, 0, 81, 60
2, 23237, Note_on_c, 0, 69, 60
2, 23237, Note_on_c, 0, 75, 60
2, 23237, Note_on_c, 0, 63, 60
2, 23239, Note_on_c, 0, 76, 0
2, 23239, Note_on_c, 0, 79, 0
2, 23239, Note_on_c, 0, 51, 60
2, 23242, Note_on_c, 0, 67, 0
2, 23242, Note_on_c, 0, 43, 0
2, 23242, Note_on_c, 0, 48, 0
2, 23244, Note_on_c, 0, 36, 0
2, 23295, Note_on_c, 0, 82, 60
2, 23297, Note_on_c, 0, 75, 0
2, 23297, Note_on_c, 0, 81, 0
2, 23300, Note_on_c, 0, 69, 0
2, 23305, Note_on_c, 0, 70, 60
2, 23352, Note_on_c, 0, 74, 60
2, 23354, Note_on_c, 0, 83, 60
2, 23354, Note_on_c, 0, 71, 60
2, 23359, Note_on_c, 0, 70, 0
2, 23359, Note_on_c, 0, 82, 0
2, 23361, Note_on_c, 0, 51, 0
2, 23361, Note_on_c, 0, 63, 0
2, 23370, Note_on_c, 0, 50, 60
2, 23382, Note_on_c, 0, 71, 0
2, 23382, Note_on_c, 0, 83, 0
2, 23382, Note_on_c, 0, 74, 0
2, 23382, Control_c, 0, 64, 127
2, 23417, Note_on_c, 0, 74, 60
2, 23417, Note_on_c, 0, 83, 60
2, 23417, Note_on_c, 0, 71, 60
2, 23470, Control_c, 0, 64, 0
2, 23476, Note_on_c, 0, 59, 60
2, 23476, Note_on_c, 0, 62, 60
2, 23476, Note_on_c, 0, 55, 60
2, 23502, Note_on_c, 0, 71, 0
2, 23502, Note_on_c, 0, 83, 0
2, 23502, Note_on_c, 0, 74, 0
2, 23527, Note_on_c, 0, 50, 0
2, 23532, Note_on_c, 0, 83, 60
2, 23532, Note_on_c, 0, 74, 60
2, 23534, Note_on_c, 0, 72, 60
2, 23539, Note_on_c, 0, 55, 0
2, 23539, Note_on_c, 0, 59, 0
2, 23539, Note_on_c, 0, 62, 0
2, 23592, Note_on_c, 0, 54, 60
2, 23593, Note_on_c, 0, 50, 60
2, 23628, Control_c, 0, 64, 127
2, 23649, Note_on_c, 0, 81, 60
2, 23651, Note_on_c, 0, 69, 60
2, 23654, Note_on_c, 0, 83, 0
2, 23654, Note_on_c, 0, 72, 0
2, 23654, Note_on_c, 0, 74, 0
2, 23707, Note_on_c, 0, 78, 60
2, 23707, Note_on_c, 0, 72, 60
2, 23709, Note_on_c, 0, 81, 0
2, 23712, Note_on_c, 0, 69, 0
2, 23713, Control_c, 0, 64, 0
2, 23717, Note_on_c, 0, 62, 60
2, 23717, Note_on_c, 0, 60, 60
2, 23719, Note_on_c, 0, 57, 60
2, 23722, Note_on_c, 0, 54, 0
2, 23722, Note_on_c, 0, 50, 0
2, 23762, Note_on_c, 0, 74, 60
2, 23769, Note_on_c, 0, 78, 0
2, 23769, Note_on_c, 0, 72, 0
2, 23780, Note_on_c, 0, 62, 0
2, 23822, Note_on_c, 0, 59, 60
2, 23822, Note_on_c, 0, 62, 60
2, 23822, Note_on_c, 0, 67, 60
2, 23822, Note_on_c, 0, 71, 60
2, 23822, Note_on_c, 0, 79, 60
2, 23822, Note_on_c, 0, 55, 60
2, 23824, Note_on_c, 0, 74, 0
2, 23827, Note_on_c, 0, 57, 0
2, 23827, Note_on_c, 0, 60, 0
2, 23858, Note_on_c, 0, 59, 0
2, 23858, Note_on_c, 0, 55, 0
2, 23858, Note_on_c, 0, 62, 0
2, 23935, Note_on_c, 0, 53, 60
2, 23935, Note_on_c, 0, 41, 60
2, 23972, Control_c, 0, 64, 127
2, 24052, Note_on_c, 0, 52, 60
2, 24052, Note_on_c, 0, 40, 60
2, 24054, Note_on_c, 0, 41, 0
2, 24054, Note_on_c, 0, 53, 0
2, 24108, Note_on_c, 0, 72, 60
2, 24108, Note_on_c, 0, 76, 60
2, 24108, Note_on_c, 0, 64, 60
2, 24110, Note_on_c, 0, 79, 0
2, 24112, Note_on_c, 0, 67, 0
2, 24120, Note_on_c, 0, 71, 0
2, 24161, Control_c, 0, 64, 0
2, 24164, Note_on_c, 0, 74, 60
2, 24166, Note_on_c, 0, 77, 60
2, 24166, Note_on_c, 0, 65, 60
2, 24168, Note_on_c, 0, 76, 0
2, 24168, Note_on_c, 0, 50, 60
2, 24168, Note_on_c, 0, 38, 60
2, 24169, Note_on_c, 0, 52, 0
2, 24169, Note_on_c, 0, 64, 0
2, 24169, Note_on_c, 0, 40, 0
2, 24169, Note_on_c, 0, 72, 0
2, 24221, Note_on_c, 0, 75, 60
2, 24221, Note_on_c, 0, 78, 60
2, 24221, Note_on_c, 0, 66, 60
2, 24223, Note_on_c, 0, 48, 60
2, 24225, Note_on_c, 0, 74, 0
2, 24225, Note_on_c, 0, 65, 0
2, 24225, Note_on_c, 0, 50, 0
2, 24225, Note_on_c, 0, 77, 0
2, 24227, Note_on_c, 0, 38, 0
2, 24279, Note_on_c, 0, 91, 60
2, 24279, Note_on_c, 0, 88, 60
2, 24281, Note_on_c, 0, 76, 60
2, 24281, Note_on_c, 0, 79, 60
2, 24281, Note_on_c, 0, 67, 60
2, 24283, Note_on_c, 0, 75, 0
2, 24283, Note_on_c, 0, 43, 60
2, 24283, Note_on_c, 0, 36, 60
2, 24285, Note_on_c, 0, 78, 0
2, 24285, Note_on_c, 0, 66, 0
2, 24319, Note_on_c, 0, 91, 0
2, 24321, Note_on_c, 0, 67, 0
2, 24321, Note_on_c, 0, 88, 0
2, 24321, Note_on_c, 0, 79, 0
2, 24321, Note_on_c, 0, 76, 0
2, 24321, Control_c, 0, 64, 127
2, 24372, Control_c, 0, 64, 0
2, 24400, Note_on_c, 0, 69, 60
2, 24400, Note_on_c, 0, 76, 60
2, 24400, Note_on_c, 0, 81, 60
2, 24400, Note_on_c, 0, 64, 60
2, 24403, Note_on_c, 0, 60, 60
2, 24403, Note_on_c, 0, 55, 60
2, 24407, Note_on_c, 0, 43, 0
2, 24407, Note_on_c, 0, 48, 0
2, 24407, Note_on_c, 0, 36, 0
2, 24428, Note_on_c, 0, 60, 0
2, 24428, Note_on_c, 0, 55, 0
2, 24428, Note_on_c, 0, 76, 0
2, 24428, Note_on_c, 0, 64, 0
2, 24460, Note_on_c, 0, 76, 60
2, 24460, Note_on_c, 0, 79, 60
2, 24460, Note_on_c, 0, 67, 60
2, 24462, Note_on_c, 0, 81, 0
2, 24464, Note_on_c, 0, 69, 0
2, 24520, Note_on_c, 0, 43, 60
2, 24520, Note_on_c, 0, 31, 60
2, 24532, Note_on_c, 0, 76, 0
2, 24569, Control_c, 0, 64, 127
2, 24577, Note_on_c, 0, 72, 60
2, 24577, Note_on_c, 0, 76, 60
2, 24577, Note_on_c, 0, 64, 60
2, 24581, Note_on_c, 0, 67, 0
2, 24581, Note_on_c, 0, 79, 0
2, 24605, Note_on_c, 0, 64, 0
2, 24618, Control_c, 0, 64, 0
2, 24635, Note_on_c, 0, 65, 60
2, 24635, Note_on_c, 0, 74, 60
2, 24635, Note_on_c, 0, 77, 60
2, 24635, Note_on_c, 0, 64, 60
2, 24637, Note_on_c, 0, 60, 60
2, 24637, Note_on_c, 0, 55, 60
2, 24639, Note_on_c, 0, 31, 0
2, 24639, Note_on_c, 0, 72, 0
2, 24639, Note_on_c, 0, 43, 0
2, 24639, Note_on_c, 0, 76, 0
2, 24663, Note_on_c, 0, 64, 0
2, 24663, Note_on_c, 0, 55, 0
2, 24665, Note_on_c, 0, 60, 0
2, 24695, Note_on_c, 0, 75, 60
2, 24695, Note_on_c, 0, 78, 60
2, 24695, Note_on_c, 0, 66, 60
2, 24696, Note_on_c, 0, 48, 60
2, 24698, Note_on_c, 0, 74, 0
2, 24698, Note_on_c, 0, 77, 0
2, 24698, Note_on_c, 0, 65, 0
2, 24752, Note_on_c, 0, 88, 60
2, 24752, Note_on_c, 0, 91, 60
2, 24752, Note_on_c, 0, 79, 60
2, 24754, Note_on_c, 0, 67, 60
2, 24754, Note_on_c, 0, 76, 60
2, 24754, Note_on_c, 0, 43, 60
2, 24756, Note_on_c, 0, 78, 0
2, 24756, Note_on_c, 0, 75, 0
2, 24756, Note_on_c, 0, 66, 0
2, 24756, Note_on_c, 0, 36, 60
2, 24778, Control_c, 0, 64, 127
2, 24789, Note_on_c, 0, 88, 0
2, 24789, Note_on_c, 0, 91, 0
2, 24791, Note_on_c, 0, 79, 0
2, 24791, Note_on_c, 0, 76, 0
2, 24791, Note_on_c, 0, 67, 0
2, 24864, Control_c, 0, 64, 0
2, 24867, Note_on_c, 0, 64, 60
2, 24867, Note_on_c, 0, 69, 60
2, 24867, Note_on_c, 0, 76, 60
2, 24867, Note_on_c, 0, 81, 60
2, 24867, Note_on_c, 0, 60, 60
2, 24869, Note_on_c, 0, 55, 60
2, 24871, Note_on_c, 0, 36, 0
2, 24871, Note_on_c, 0, 48, 0
2, 24871, Note_on_c, 0, 43, 0
2, 24893, Note_on_c, 0, 60, 0
2, 24893, Note_on_c, 0, 76, 0
2, 24893, Note_on_c, 0, 55, 0
2, 24893, Note_on_c, 0, 64, 0
2, 24921, Note_on_c, 0, 79, 60
2, 24923, Note_on_c, 0, 76, 60
2, 24923, Note_on_c, 0, 67, 60
2, 24925, Note_on_c, 0, 81, 0
2, 24927, Note_on_c, 0, 69, 0
2, 24983, Note_on_c, 0, 43, 60
2, 24983, Note_on_c, 0, 31, 60
2, 24984, Control_c, 0, 64, 127
2, 25006, Note_on_c, 0, 76, 0
2, 25036, Note_on_c, 0, 88, 60
2, 25040, Note_on_c, 0, 67, 0
2, 25040, Note_on_c, 0, 79, 0
2, 25042, Note_on_c, 0, 43, 0
2, 25044, Note_on_c, 0, 31, 0
2, 25094, Note_on_c, 0, 84, 60
2, 25096, Note_on_c, 0, 88, 0
2, 25096, Note_on_c, 0, 60, 60
2, 25096, Note_on_c, 0, 52, 60
2, 25102, Control_c, 0, 64, 0
2, 25121, Note_on_c, 0, 60, 0
2, 25124, Note_on_c, 0, 52, 0
2, 25152, Note_on_c, 0, 79, 60
2, 25155, Note_on_c, 0, 84, 0
2, 25213, Note_on_c, 0, 57, 60
2, 25213, Note_on_c, 0, 69, 60
2, 25213, Note_on_c, 0, 41, 60
2, 25215, Note_on_c, 0, 79, 0
2, 25225, Control_c, 0, 64, 127
2, 25271, Note_on_c, 0, 83, 60
2, 25318, Control_c, 0, 64, 0
2, 25332, Note_on_c, 0, 84, 60
2, 25335, Note_on_c, 0, 60, 60
2, 25335, Note_on_c, 0, 53, 60
2, 25337, Note_on_c, 0, 83, 0
2, 25339, Note_on_c, 0, 41, 0
2, 25375, Note_on_c, 0, 60, 0
2, 25375, Note_on_c, 0, 57, 0
2, 25375, Note_on_c, 0, 53, 0
2, 25392, Note_on_c, 0, 86, 60
2, 25396, Note_on_c, 0, 84, 0
2, 25435, Note_on_c, 0, 69, 0
2, 25452, Note_on_c, 0, 88, 60
2, 25454, Note_on_c, 0, 68, 60
2, 25454, Note_on_c, 0, 56, 60
2, 25456, Note_on_c, 0, 86, 0
2, 25456, Note_on_c, 0, 41, 60
2, 25480, Control_c, 0, 64, 127
2, 25512, Note_on_c, 0, 86, 60
2, 25516, Note_on_c, 0, 88, 0
2, 25533, Control_c, 0, 64, 0
2, 25574, Note_on_c, 0, 84, 60
2, 25576, Note_on_c, 0, 60, 60
2, 25576, Note_on_c, 0, 53, 60
2, 25578, Note_on_c, 0, 86, 0
2, 25580, Note_on_c, 0, 41, 0
2, 25590, Note_on_c, 0, 56, 0
2, 25604, Note_on_c, 0, 60, 0
2, 25604, Note_on_c, 0, 53, 0
2, 25632, Note_on_c, 0, 86, 60
2, 25635, Note_on_c, 0, 84, 0
2, 25648, Note_on_c, 0, 68, 0
2, 25691, Note_on_c, 0, 84, 60
2, 25691, Note_on_c, 0, 67, 60
2, 25693, Note_on_c, 0, 86, 0
2, 25693, Note_on_c, 0, 55, 60
2, 25704, Note_on_c, 0, 40, 60
2, 25731, Note_on_c, 0, 40, 0
2, 25731, Note_on_c, 0, 84, 0
2, 25752, Note_on_c, 0, 86, 60
2, 25766, Note_on_c, 0, 40, 60
2, 25766, Control_c, 0, 64, 127
2, 25782, Control_c, 0, 64, 0
2, 25810, Note_on_c, 0, 88, 60
2, 25812, Note_on_c, 0, 60, 60
2, 25812, Note_on_c, 0, 52, 60
2, 25815, Note_on_c, 0, 86, 0
2, 25815, Note_on_c, 0, 67, 0
2, 25868, Note_on_c, 0, 91, 60
2, 25872, Note_on_c, 0, 88, 0
2, 25885, Note_on_c, 0, 60, 0
2, 25887, Note_on_c, 0, 55, 0
2, 25887, Note_on_c, 0, 52, 0
2, 25920, Note_on_c, 0, 40, 0
2, 25923, Note_on_c, 0, 96, 60
2, 25927, Note_on_c, 0, 36, 60
2, 25930, Note_on_c, 0, 91, 0
2, 25943, Control_c, 0, 64, 127
2, 25964, Note_on_c, 0, 96, 0
2, 25985, Note_on_c, 0, 91, 60
2, 25985, Note_on_c, 0, 79, 60
2, 26026, Control_c, 0, 64, 0
2, 26040, Note_on_c, 0, 90, 60
2, 26042, Note_on_c, 0, 55, 60
2, 26042, Note_on_c, 0, 58, 60
2, 26042, Note_on_c, 0, 78, 60
2, 26042, Note_on_c, 0, 52, 60
2, 26045, Note_on_c, 0, 79, 0
2, 26045, Note_on_c, 0, 91, 0
2, 26081, Note_on_c, 0, 52, 0
2, 26081, Note_on_c, 0, 55, 0
2, 26081, Note_on_c, 0, 58, 0
2, 26096, Note_on_c, 0, 91, 60
2, 26098, Note_on_c, 0, 79, 60
2, 26103, Note_on_c, 0, 78, 0
2, 26103, Note_on_c, 0, 90, 0
2, 26150, Note_on_c, 0, 36, 0
2, 26156, Note_on_c, 0, 96, 60
2, 26156, Note_on_c, 0, 84, 60
2, 26158, Note_on_c, 0, 91, 0
2, 26158, Note_on_c, 0, 57, 60
2, 26158, Note_on_c, 0, 60, 60
2, 26158, Note_on_c, 0, 53, 60
2, 26160, Note_on_c, 0, 79, 0
2, 26194, Note_on_c, 0, 60, 0
2, 26194, Note_on_c, 0, 84, 0
2, 26194, Note_on_c, 0, 96, 0
2, 26196, Note_on_c, 0, 57, 0
2, 26196, Note_on_c, 0, 53, 0
2, 26286, Note_on_c, 0, 93, 60
2, 26286, Note_on_c, 0, 81, 60
2, 26288, Note_on_c, 0, 57, 60
2, 26288, Note_on_c, 0, 60, 60
2, 26288, Note_on_c, 0, 53, 60
2, 26337, Note_on_c, 0, 53, 0
2, 26337, Note_on_c, 0, 57, 0
2, 26337, Note_on_c, 0, 60, 0
2, 26354, Note_on_c, 0, 96, 60
2, 26356, Note_on_c, 0, 84, 60
2, 26358, Note_on_c, 0, 81, 0
2, 26358, Note_on_c, 0, 93, 0
2, 26414, Note_on_c, 0, 57, 60
2, 26414, Note_on_c, 0, 60, 60
2, 26414, Note_on_c, 0, 54, 60
2, 26452, Note_on_c, 0, 54, 0
2, 26452, Note_on_c, 0, 57, 0
2, 26452, Note_on_c, 0, 60, 0
2, 26482, Note_on_c, 0, 93, 60
2, 26482, Note_on_c, 0, 81, 60
2, 26487, Note_on_c, 0, 96, 0
2, 26487, Note_on_c, 0, 84, 0
2, 26544, Note_on_c, 0, 96, 60
2, 26544, Note_on_c, 0, 84, 60
2, 26546, Note_on_c, 0, 93, 0
2, 26546, Note_on_c, 0, 57, 60
2, 26546, Note_on_c, 0, 60, 60
2, 26546, Note_on_c, 0, 54, 60
2, 26548, Note_on_c, 0, 81, 0
2, 26595, Note_on_c, 0, 60, 0
2, 26597, Note_on_c, 0, 57, 0
2, 26597, Note_on_c, 0, 54, 0
2, 26615, Note_on_c, 0, 93, 60
2, 26615, Note_on_c, 0, 81, 60
2, 26618, Note_on_c, 0, 84, 0
2, 26618, Note_on_c, 0, 96, 0
2, 26672, Note_on_c, 0, 91, 60
2, 26672, Note_on_c, 0, 79, 60
2, 26674, Note_on_c, 0, 55, 60
2, 26674, Note_on_c, 0, 60, 60
2, 26674, Note_on_c, 0, 52, 60
2, 26676, Note_on_c, 0, 93, 0
2, 26679, Note_on_c, 0, 81, 0
2, 26711, Note_on_c, 0, 60, 0
2, 26712, Note_on_c, 0, 55, 0
2, 26712, Note_on_c, 0, 52, 0
2, 26740, Note_on_c, 0, 96, 60
2, 26742, Note_on_c, 0, 84, 60
2, 26745, Note_on_c, 0, 91, 0
2, 26747, Note_on_c, 0, 79, 0
2, 26815, Note_on_c, 0, 100, 60
2, 26815, Note_on_c, 0, 88, 60
2, 26817, Note_on_c, 0, 55, 60
2, 26817, Note_on_c, 0, 60, 60
2, 26817, Note_on_c, 0, 52, 60
2, 26819, Note_on_c, 0, 96, 0
2, 26819, Note_on_c, 0, 84, 0
2, 26854, Note_on_c, 0, 60, 0
2, 26854, Note_on_c, 0, 55, 0
2, 26854, Note_on_c, 0, 52, 0
2, 26881, Note_on_c, 0, 103, 60
2, 26883, Note_on_c, 0, 91, 60
2, 26885, Note_on_c, 0, 100, 0
2, 26887, Note_on_c, 0, 88, 0
2, 26953, Note_on_c, 0, 60, 60
2, 26956, Note_on_c, 0, 55, 60
2, 26956, Note_on_c, 0, 52, 60
2, 26992, Note_on_c, 0, 55, 0
2, 26992, Note_on_c, 0, 60, 0
2, 26995, Note_on_c, 0, 52, 0
2, 27022, Note_on_c, 0, 100, 60
2, 27022, Note_on_c, 0, 88, 60
2, 27026, Note_on_c, 0, 91, 0
2, 27037, Note_on_c, 0, 103, 0
2, 27093, Note_on_c, 0, 84, 60
2, 27093, Note_on_c, 0, 96, 60
2, 27093, Note_on_c, 0, 60, 60
2, 27095, Note_on_c, 0, 55, 60
2, 27095, Note_on_c, 0, 52, 60
2, 27096, Note_on_c, 0, 100, 0
2, 27096, Note_on_c, 0, 88, 0
2, 27144, Note_on_c, 0, 55, 0
2, 27144, Note_on_c, 0, 60, 0
2, 27144, Note_on_c, 0, 52, 0
2, 27161, Note_on_c, 0, 91, 60
2, 27161, Note_on_c, 0, 79, 60
2, 27165, Note_on_c, 0, 96, 0
2, 27165, Note_on_c, 0, 84, 0
2, 27231, Note_on_c, 0, 93, 60
2, 27231, Note_on_c, 0, 81, 60
2, 27233, Note_on_c, 0, 54, 60
2, 27233, Note_on_c, 0, 60, 60
2, 27233, Note_on_c, 0, 50, 60
2, 27236, Note_on_c, 0, 91, 0
2, 27236, Note_on_c, 0, 79, 0
2, 27280, Note_on_c, 0, 81, 0
2, 27280, Note_on_c, 0, 93, 0
2, 27283, Note_on_c, 0, 50, 0
2, 27283, Note_on_c, 0, 54, 0
2, 27283, Note_on_c, 0, 60, 0
2, 27381, Note_on_c, 0, 96, 60
2, 27381, Note_on_c, 0, 84, 60
2, 27383, Note_on_c, 0, 54, 60
2, 27383, Note_on_c, 0, 57, 60
2, 27383, Note_on_c, 0, 60, 60
2, 27383, Note_on_c, 0, 50, 60
2, 27419, Note_on_c, 0, 84, 0
2, 27419, Note_on_c, 0, 96, 0
2, 27421, Note_on_c, 0, 60, 0
2, 27421, Note_on_c, 0, 57, 0
2, 27421, Note_on_c, 0, 50, 0
2, 27421, Note_on_c, 0, 54, 0
2, 27529, Note_on_c, 0, 100, 60
2, 27532, Note_on_c, 0, 88, 60
2, 27534, Note_on_c, 0, 59, 60
2, 27534, Note_on_c, 0, 53, 60
2, 27571, Note_on_c, 0, 59, 0
2, 27573, Note_on_c, 0, 53, 0
2, 27613, Note_on_c, 0, 98, 60
2, 27613, Note_on_c, 0, 86, 60
2, 27615, Note_on_c, 0, 88, 0
2, 27615, Note_on_c, 0, 100, 0
2, 27683, Note_on_c, 0, 59, 60
2, 27683, Note_on_c, 0, 55, 60
2, 27707, Note_on_c, 0, 98, 0
2, 27707, Note_on_c, 0, 86, 0
2, 27720, Note_on_c, 0, 55, 0
2, 27732, Note_on_c, 0, 59, 0
2, 27737, Note_on_c, 0, 88, 60
2, 27737, Note_on_c, 0, 96, 60
2, 27737, Note_on_c, 0, 84, 60
2, 27835, Note_on_c, 0, 55, 60
2, 27835, Note_on_c, 0, 60, 60
2, 27835, Note_on_c, 0, 52, 60
2, 27863, Control_c, 0, 64, 127
2, 27957, Note_on_c, 0, 55, 0
2, 27997, Note_on_c, 0, 55, 60
2, 27997, Note_on_c, 0, 43, 60
2, 28001, Note_on_c, 0, 60, 0
2, 28001, Note_on_c, 0, 52, 0
2, 28051, Control_c, 0, 64, 0
2, 28166, Note_on_c, 0, 48, 60
2, 28168, Note_on_c, 0, 36, 60
2, 28170, Note_on_c, 0, 55, 0
2, 28170, Note_on_c, 0, 43, 0
2, 28178, Control_c, 0, 64, 127
2, 28317, Note_on_c, 0, 88, 0
2, 28317, Note_on_c, 0, 96, 0
2, 28320, Note_on_c, 0, 84, 0
2, 28320, Note_on_c, 0, 36, 0
2, 28320, Note_on_c, 0, 48, 0
2, 28439, Control_c, 0, 64, 0
2, 28494, Note_on_c, 0, 74, 60
2, 28494, Note_on_c, 0, 62, 60
2, 28552, Note_on_c, 0, 75, 60
2, 28554, Note_on_c, 0, 74, 0
2, 28556, Note_on_c, 0, 62, 0
2, 28564, Note_on_c, 0, 63, 60
2, 28609, Note_on_c, 0, 76, 60
2, 28609, Note_on_c, 0, 64, 60
2, 28611, Note_on_c, 0, 48, 60
2, 28613, Note_on_c, 0, 63, 0
2, 28613, Note_on_c, 0, 75, 0
2, 28634, Control_c, 0, 64, 127
2, 28667, Note_on_c, 0, 84, 60
2, 28667, Note_on_c, 0, 72, 60
2, 28671, Note_on_c, 0, 64, 0
2, 28671, Note_on_c, 0, 76, 0
2, 28690, Note_on_c, 0, 72, 0
2, 28690, Note_on_c, 0, 84, 0
2, 28716, Control_c, 0, 64, 0
2, 28723, Note_on_c, 0, 60, 60
2, 28723, Note_on_c, 0, 64, 60
2, 28723, Note_on_c, 0, 55, 60
2, 28750, Note_on_c, 0, 64, 0
2, 28763, Note_on_c, 0, 55, 0
2, 28763, Note_on_c, 0, 60, 0
2, 28782, Note_on_c, 0, 76, 60
2, 28782, Note_on_c, 0, 64, 60
2, 28833, Note_on_c, 0, 48, 0
2, 28840, Note_on_c, 0, 84, 60
2, 28842, Note_on_c, 0, 72, 60
2, 28842, Note_on_c, 0, 43, 60
2, 28844, Note_on_c, 0, 64, 0
2, 28844, Note_on_c, 0, 76, 0
2, 28868, Note_on_c, 0, 72, 0
2, 28868, Note_on_c, 0, 84, 0
2, 28878, Control_c, 0, 64, 127
2, 28929, Control_c, 0, 64, 0
2, 28957, Note_on_c, 0, 76, 60
2, 28957, Note_on_c, 0, 64, 60
2, 28959, Note_on_c, 0, 58, 60
2, 28959, Note_on_c, 0, 55, 60
2, 28985, Note_on_c, 0, 55, 0
2, 28985, Note_on_c, 0, 58, 0
2, 29015, Note_on_c, 0, 84, 60
2, 29015, Note_on_c, 0, 72, 60
2, 29018, Note_on_c, 0, 64, 0
2, 29018, Note_on_c, 0, 76, 0
2, 29064, Note_on_c, 0, 43, 0
2, 29072, Note_on_c, 0, 41, 60
2, 29085, Control_c, 0, 64, 127
2, 29172, Control_c, 0, 64, 0
2, 29189, Note_on_c, 0, 57, 60
2, 29189, Note_on_c, 0, 60, 60
2, 29189, Note_on_c, 0, 53, 60
2, 29226, Note_on_c, 0, 53, 0
2, 29226, Note_on_c, 0, 57, 0
2, 29226, Note_on_c, 0, 60, 0
2, 29294, Note_on_c, 0, 84, 0
2, 29294, Note_on_c, 0, 41, 0
2, 29294, Note_on_c, 0, 72, 0
2, 29304, Note_on_c, 0, 40, 60
2, 29328, Control_c, 0, 64, 127
2, 29362, Note_on_c, 0, 88, 60
2, 29362, Note_on_c, 0, 96, 60
2, 29362, Note_on_c, 0, 84, 60
2, 29364, Note_on_c, 0, 76, 60
2, 29364, Note_on_c, 0, 72, 60
2, 29381, Control_c, 0, 64, 0
2, 29420, Note_on_c, 0, 86, 60
2, 29420, Note_on_c, 0, 89, 60
2, 29420, Note_on_c, 0, 98, 60
2, 29420, Note_on_c, 0, 74, 60
2, 29422, Note_on_c, 0, 60, 60
2, 29422, Note_on_c, 0, 77, 60
2, 29422, Note_on_c, 0, 55, 60
2, 29424, Note_on_c, 0, 72, 0
2, 29424, Note_on_c, 0, 84, 0
2, 29424, Note_on_c, 0, 96, 0
2, 29424, Note_on_c, 0, 76, 0
2, 29424, Note_on_c, 0, 88, 0
2, 29448, Note_on_c, 0, 55, 0
2, 29448, Note_on_c, 0, 60, 0
2, 29475, Note_on_c, 0, 78, 60
2, 29475, Note_on_c, 0, 87, 60
2, 29475, Note_on_c, 0, 90, 60
2, 29475, Note_on_c, 0, 99, 60
2, 29475, Note_on_c, 0, 75, 60
2, 29477, Note_on_c, 0, 98, 0
2, 29477, Note_on_c, 0, 89, 0
2, 29477, Note_on_c, 0, 86, 0
2, 29479, Note_on_c, 0, 74, 0
2, 29479, Note_on_c, 0, 77, 0
2, 29526, Note_on_c, 0, 40, 0
2, 29531, Note_on_c, 0, 91, 60
2, 29531, Note_on_c, 0, 100, 60
2, 29531, Note_on_c, 0, 88, 60
2, 29533, Note_on_c, 0, 79, 60
2, 29533, Note_on_c, 0, 76, 60
2, 29535, Note_on_c, 0, 78, 0
2, 29535, Note_on_c, 0, 90, 0
2, 29535, Note_on_c, 0, 75, 0
2, 29535, Note_on_c, 0, 87, 0
2, 29535, Note_on_c, 0, 43, 60
2, 29545, Note_on_c, 0, 99, 0
2, 29559, Note_on_c, 0, 88, 0
2, 29559, Note_on_c, 0, 76, 0
2, 29568, Control_c, 0, 64, 127
2, 29589, Note_on_c, 0, 96, 60
2, 29589, Note_on_c, 0, 88, 60
2, 29591, Note_on_c, 0, 76, 60
2, 29591, Note_on_c, 0, 84, 60
2, 29591, Note_on_c, 0, 72, 60
2, 29592, Note_on_c, 0, 91, 0
2, 29592, Note_on_c, 0, 100, 0
2, 29592, Note_on_c, 0, 79, 0
2, 29618, Control_c, 0, 64, 0
2, 29644, Note_on_c, 0, 98, 60
2, 29644, Note_on_c, 0, 89, 60
2, 29646, Note_on_c, 0, 60, 60
2, 29646, Note_on_c, 0, 74, 60
2, 29646, Note_on_c, 0, 77, 60
2, 29646, Note_on_c, 0, 86, 60
2, 29646, Note_on_c, 0, 55, 60
2, 29648, Note_on_c, 0, 96, 0
2, 29648, Note_on_c, 0, 88, 0
2, 29648, Note_on_c, 0, 52, 60
2, 29650, Note_on_c, 0, 76, 0
2, 29650, Note_on_c, 0, 72, 0
2, 29650, Note_on_c, 0, 84, 0
2, 29671, Note_on_c, 0, 60, 0
2, 29671, Note_on_c, 0, 52, 0
2, 29671, Note_on_c, 0, 55, 0
2, 29702, Note_on_c, 0, 91, 60
2, 29702, Note_on_c, 0, 100, 60
2, 29702, Note_on_c, 0, 88, 60
2, 29704, Note_on_c, 0, 79, 60
2, 29704, Note_on_c, 0, 76, 60
2, 29706, Note_on_c, 0, 98, 0
2, 29706, Note_on_c, 0, 74, 0
2, 29706, Note_on_c, 0, 77, 0
2, 29706, Note_on_c, 0, 86, 0
2, 29706, Note_on_c, 0, 89, 0
2, 29732, Note_on_c, 0, 43, 0
2, 29763, Note_on_c, 0, 43, 60
2, 29776, Control_c, 0, 64, 127
2, 29814, Note_on_c, 0, 83, 60
2, 29814, Note_on_c, 0, 86, 60
2, 29814, Note_on_c, 0, 95, 60
2, 29814, Note_on_c, 0, 74, 60
2, 29817, Note_on_c, 0, 71, 60
2, 29821, Note_on_c, 0, 88, 0
2, 29821, Note_on_c, 0, 100, 0
2, 29821, Note_on_c, 0, 79, 0
2, 29821, Note_on_c, 0, 91, 0
2, 29823, Note_on_c, 0, 76, 0
2, 29844, Note_on_c, 0, 86, 0
2, 29844, Note_on_c, 0, 74, 0
2, 29857, Control_c, 0, 64, 0
2, 29872, Note_on_c, 0, 86, 60
2, 29872, Note_on_c, 0, 89, 60
2, 29872, Note_on_c, 0, 98, 60
2, 29872, Note_on_c, 0, 74, 60
2, 29875, Note_on_c, 0, 95, 0
2, 29875, Note_on_c, 0, 55, 60
2, 29875, Note_on_c, 0, 59, 60
2, 29875, Note_on_c, 0, 77, 60
2, 29875, Note_on_c, 0, 53, 60
2, 29877, Note_on_c, 0, 71, 0
2, 29877, Note_on_c, 0, 83, 0
2, 29902, Note_on_c, 0, 53, 0
2, 29902, Note_on_c, 0, 55, 0
2, 29902, Note_on_c, 0, 59, 0
2, 29983, Note_on_c, 0, 43, 0
2, 29990, Note_on_c, 0, 88, 60
2, 29990, Note_on_c, 0, 96, 60
2, 29990, Note_on_c, 0, 84, 60
2, 29994, Note_on_c, 0, 72, 60
2, 29994, Note_on_c, 0, 76, 60
2, 29994, Note_on_c, 0, 36, 60
2, 29996, Note_on_c, 0, 89, 0
2, 29996, Note_on_c, 0, 98, 0
2, 29996, Note_on_c, 0, 74, 0
2, 29996, Note_on_c, 0, 86, 0
2, 29996, Note_on_c, 0, 77, 0
2, 30017, Control_c, 0, 64, 127
2, 30064, Note_on_c, 0, 76, 0
2, 30100, Control_c, 0, 64, 0
2, 30105, Note_on_c, 0, 76, 60
2, 30107, Note_on_c, 0, 55, 60
2, 30107, Note_on_c, 0, 60, 60
2, 30107, Note_on_c, 0, 52, 60
2, 30109, Note_on_c, 0, 96, 0
2, 30109, Note_on_c, 0, 84, 0
2, 30109, Note_on_c, 0, 72, 0
2, 30109, Note_on_c, 0, 88, 0
2, 30135, Note_on_c, 0, 52, 0
2, 30135, Note_on_c, 0, 60, 0
2, 30135, Note_on_c, 0, 55, 0
2, 30163, Note_on_c, 0, 79, 60
2, 30167, Note_on_c, 0, 76, 0
2, 30190, Control_c, 0, 64, 127
2, 30222, Note_on_c, 0, 76, 60
2, 30222, Note_on_c, 0, 84, 60
2, 30222, Note_on_c, 0, 60, 60
2, 30224, Note_on_c, 0, 55, 60
2, 30224, Note_on_c, 0, 52, 60
2, 30226, Note_on_c, 0, 79, 0
2, 30240, Control_c, 0, 64, 0
2, 30247, Note_on_c, 0, 60, 0
2, 30247, Note_on_c, 0, 55, 0
2, 30252, Note_on_c, 0, 36, 0
2, 30252, Note_on_c, 0, 52, 0
2, 30273, Note_on_c, 0, 76, 0
2, 30273, Note_on_c, 0, 84, 0
2, 30341, Note_on_c, 0, 65, 60
2, 30341, Note_on_c, 0, 74, 60
2, 30341, Note_on_c, 0, 62, 60
2, 30346, Note_on_c, 0, 59, 60
2, 30346, Note_on_c, 0, 55, 60
2, 30404, Note_on_c, 0, 75, 60
2, 30406, Note_on_c, 0, 63, 60
2, 30408, Note_on_c, 0, 62, 0
2, 30408, Note_on_c, 0, 74, 0
2, 30461, Note_on_c, 0, 76, 60
2, 30461, Note_on_c, 0, 64, 60
2, 30463, Note_on_c, 0, 65, 0
2, 30463, Note_on_c, 0, 75, 0
2, 30463, Note_on_c, 0, 48, 60
2, 30467, Note_on_c, 0, 63, 0
2, 30467, Note_on_c, 0, 59, 0
2, 30467, Note_on_c, 0, 55, 0
2, 30476, Control_c, 0, 64, 127
2, 30519, Note_on_c, 0, 84, 60
2, 30519, Note_on_c, 0, 72, 60
2, 30523, Note_on_c, 0, 76, 0
2, 30523, Note_on_c, 0, 64, 0
2, 30559, Note_on_c, 0, 72, 0
2, 30559, Note_on_c, 0, 84, 0
2, 30563, Control_c, 0, 64, 0
2, 30580, Note_on_c, 0, 60, 60
2, 30580, Note_on_c, 0, 64, 60
2, 30580, Note_on_c, 0, 55, 60
2, 30608, Note_on_c, 0, 64, 0
2, 30619, Note_on_c, 0, 60, 0
2, 30621, Note_on_c, 0, 55, 0
2, 30643, Note_on_c, 0, 76, 60
2, 30643, Note_on_c, 0, 64, 60
2, 30694, Note_on_c, 0, 48, 0
2, 30700, Note_on_c, 0, 84, 60
2, 30700, Note_on_c, 0, 72, 60
2, 30702, Note_on_c, 0, 43, 60
2, 30704, Note_on_c, 0, 64, 0
2, 30704, Note_on_c, 0, 76, 0
2, 30725, Control_c, 0, 64, 127
2, 30739, Note_on_c, 0, 72, 0
2, 30739, Note_on_c, 0, 84, 0
2, 30811, Control_c, 0, 64, 0
2, 30816, Note_on_c, 0, 76, 60
2, 30817, Note_on_c, 0, 58, 60
2, 30817, Note_on_c, 0, 60, 60
2, 30817, Note_on_c, 0, 64, 60
2, 30817, Note_on_c, 0, 55, 60
2, 30842, Note_on_c, 0, 55, 0
2, 30842, Note_on_c, 0, 58, 0
2, 30842, Note_on_c, 0, 60, 0
2, 30873, Note_on_c, 0, 84, 60
2, 30875, Note_on_c, 0, 72, 60
2, 30877, Note_on_c, 0, 76, 0
2, 30879, Note_on_c, 0, 64, 0
2, 30926, Note_on_c, 0, 43, 0
2, 30935, Note_on_c, 0, 41, 60
2, 30971, Control_c, 0, 64, 127
2, 31024, Control_c, 0, 64, 0
2, 31052, Note_on_c, 0, 57, 60
2, 31052, Note_on_c, 0, 60, 60
2, 31052, Note_on_c, 0, 53, 60
2, 31090, Note_on_c, 0, 53, 0
2, 31090, Note_on_c, 0, 57, 0
2, 31090, Note_on_c, 0, 60, 0
2, 31158, Note_on_c, 0, 41, 0
2, 31167, Note_on_c, 0, 52, 60
2, 31169, Note_on_c, 0, 40, 60
2, 31182, Control_c, 0, 64, 127
2, 31229, Note_on_c, 0, 72, 0
2, 31229, Note_on_c, 0, 84, 0
2, 31231, Control_c, 0, 64, 0
2, 31278, Note_on_c, 0, 52, 0
2, 31282, Note_on_c, 0, 81, 60
2, 31284, Note_on_c, 0, 53, 60
2, 31284, Note_on_c, 0, 57, 60
2, 31284, Note_on_c, 0, 60, 60
2, 31284, Note_on_c, 0, 72, 60
2, 31284, Note_on_c, 0, 51, 60
2, 31287, Note_on_c, 0, 39, 60
2, 31291, Note_on_c, 0, 40, 0
2, 31322, Note_on_c, 0, 60, 0
2, 31322, Note_on_c, 0, 53, 0
2, 31322, Note_on_c, 0, 57, 0
2, 31322, Note_on_c, 0, 51, 0
2, 31325, Note_on_c, 0, 39, 0
2, 31340, Note_on_c, 0, 79, 60
2, 31344, Note_on_c, 0, 81, 0
2, 31346, Note_on_c, 0, 72, 0
2, 31402, Note_on_c, 0, 78, 60
2, 31402, Note_on_c, 0, 72, 60
2, 31404, Note_on_c, 0, 79, 0
2, 31404, Note_on_c, 0, 50, 60
2, 31404, Note_on_c, 0, 38, 60
2, 31427, Control_c, 0, 64, 127
2, 31460, Note_on_c, 0, 81, 60
2, 31462, Note_on_c, 0, 78, 0
2, 31464, Note_on_c, 0, 72, 0
2, 31512, Control_c, 0, 64, 0
2, 31517, Note_on_c, 0, 84, 60
2, 31517, Note_on_c, 0, 76, 60
2, 31519, Note_on_c, 0, 57, 60
2, 31519, Note_on_c, 0, 60, 60
2, 31519, Note_on_c, 0, 54, 60
2, 31521, Note_on_c, 0, 81, 0
2, 31558, Note_on_c, 0, 54, 0
2, 31558, Note_on_c, 0, 57, 0
2, 31558, Note_on_c, 0, 60, 0
2, 31577, Note_on_c, 0, 88, 60
2, 31577, Note_on_c, 0, 78, 60
2, 31579, Note_on_c, 0, 84, 0
2, 31581, Note_on_c, 0, 76, 0
2, 31607, Note_on_c, 0, 38, 0
2, 31638, Note_on_c, 0, 38, 60
2, 31664, Note_on_c, 0, 78, 0
2, 31677, Control_c, 0, 64, 127
2, 31696, Note_on_c, 0, 86, 60
2, 31696, Note_on_c, 0, 78, 60
2, 31699, Note_on_c, 0, 88, 0
2, 31711, Note_on_c, 0, 78, 0
2, 31726, Control_c, 0, 64, 0
2, 31753, Note_on_c, 0, 84, 60
2, 31756, Note_on_c, 0, 60, 60
2, 31756, Note_on_c, 0, 62, 60
2, 31756, Note_on_c, 0, 66, 60
2, 31756, Note_on_c, 0, 78, 60
2, 31756, Note_on_c, 0, 57, 60
2, 31758, Note_on_c, 0, 86, 0
2, 31781, Note_on_c, 0, 78, 0
2, 31792, Note_on_c, 0, 60, 0
2, 31792, Note_on_c, 0, 62, 0
2, 31792, Note_on_c, 0, 57, 0
2, 31792, Note_on_c, 0, 66, 0
2, 31811, Note_on_c, 0, 81, 60
2, 31814, Note_on_c, 0, 78, 60
2, 31816, Note_on_c, 0, 84, 0
2, 31865, Note_on_c, 0, 50, 0
2, 31867, Note_on_c, 0, 38, 0
2, 31872, Note_on_c, 0, 86, 60
2, 31872, Note_on_c, 0, 77, 60
2, 31873, Note_on_c, 0, 55, 60
2, 31873, Note_on_c, 0, 59, 60
2, 31873, Note_on_c, 0, 62, 60
2, 31873, Note_on_c, 0, 65, 60
2, 31873, Note_on_c, 0, 43, 60
2, 31875, Note_on_c, 0, 78, 0
2, 31875, Note_on_c, 0, 81, 0
2, 31910, Note_on_c, 0, 65, 0
2, 31910, Note_on_c, 0, 59, 0
2, 31910, Note_on_c, 0, 62, 0
2, 31912, Note_on_c, 0, 55, 0
2, 31912, Note_on_c, 0, 43, 0
2, 31991, Note_on_c, 0, 31, 60
2, 31991, Note_on_c, 0, 43, 60
2, 31991, Control_c, 0, 64, 127
2, 32104, Note_on_c, 0, 45, 60
2, 32106, Note_on_c, 0, 33, 60
2, 32108, Note_on_c, 0, 43, 0
2, 32108, Note_on_c, 0, 31, 0
2, 32214, Control_c, 0, 64, 0
2, 32219, Note_on_c, 0, 74, 60
2, 32221, Note_on_c, 0, 77, 0
2, 32221, Note_on_c, 0, 86, 0
2, 32221, Note_on_c, 0, 47, 60
2, 32221, Note_on_c, 0, 62, 60
2, 32221, Note_on_c, 0, 35, 60
2, 32223, Note_on_c, 0, 45, 0
2, 32225, Note_on_c, 0, 33, 0
2, 32279, Note_on_c, 0, 75, 60
2, 32279, Note_on_c, 0, 63, 60
2, 32280, Note_on_c, 0, 74, 0
2, 32282, Note_on_c, 0, 62, 0
2, 32334, Note_on_c, 0, 76, 60
2, 32334, Note_on_c, 0, 64, 60
2, 32336, Note_on_c, 0, 48, 60
2, 32338, Note_on_c, 0, 75, 0
2, 32338, Note_on_c, 0, 63, 0
2, 32340, Note_on_c, 0, 35, 0
2, 32340, Note_on_c, 0, 47, 0
2, 32373, Control_c, 0, 64, 127
2, 32390, Note_on_c, 0, 84, 60
2, 32392, Note_on_c, 0, 72, 60
2, 32396, Note_on_c, 0, 76, 0
2, 32396, Note_on_c, 0, 64, 0
2, 32417, Note_on_c, 0, 72, 0
2, 32417, Note_on_c, 0, 84, 0
2, 32422, Control_c, 0, 64, 0
2, 32449, Note_on_c, 0, 60, 60
2, 32449, Note_on_c, 0, 64, 60
2, 32449, Note_on_c, 0, 55, 60
2, 32474, Note_on_c, 0, 64, 0
2, 32488, Note_on_c, 0, 60, 0
2, 32490, Note_on_c, 0, 55, 0
2, 32507, Note_on_c, 0, 76, 60
2, 32509, Note_on_c, 0, 64, 60
2, 32558, Note_on_c, 0, 48, 0
2, 32565, Note_on_c, 0, 84, 60
2, 32565, Note_on_c, 0, 72, 60
2, 32567, Note_on_c, 0, 43, 60
2, 32568, Note_on_c, 0, 64, 0
2, 32568, Note_on_c, 0, 76, 0
2, 32579, Control_c, 0, 64, 127
2, 32592, Note_on_c, 0, 84, 0
2, 32594, Note_on_c, 0, 72, 0
2, 32666, Control_c, 0, 64, 0
2, 32682, Note_on_c, 0, 76, 60
2, 32684, Note_on_c, 0, 58, 60
2, 32684, Note_on_c, 0, 64, 60
2, 32684, Note_on_c, 0, 55, 60
2, 32712, Note_on_c, 0, 55, 0
2, 32712, Note_on_c, 0, 58, 0
2, 32739, Note_on_c, 0, 84, 60
2, 32741, Note_on_c, 0, 72, 60
2, 32743, Note_on_c, 0, 76, 0
2, 32746, Note_on_c, 0, 64, 0
2, 32793, Note_on_c, 0, 43, 0
2, 32801, Note_on_c, 0, 41, 60
2, 32827, Control_c, 0, 64, 127
2, 32914, Control_c, 0, 64, 0
2, 32919, Note_on_c, 0, 57, 60
2, 32919, Note_on_c, 0, 60, 60
2, 32919, Note_on_c, 0, 53, 60
2, 32957, Note_on_c, 0, 60, 0
2, 32959, Note_on_c, 0, 57, 0
2, 32959, Note_on_c, 0, 53, 0
2, 33027, Note_on_c, 0, 84, 0
2, 33029, Note_on_c, 0, 41, 0
2, 33029, Note_on_c, 0, 72, 0
2, 33038, Note_on_c, 0, 40, 60
2, 33089, Control_c, 0, 64, 127
2, 33094, Note_on_c, 0, 96, 60
2, 33094, Note_on_c, 0, 88, 60
2, 33096, Note_on_c, 0, 76, 60
2, 33096, Note_on_c, 0, 84, 60
2, 33096, Note_on_c, 0, 72, 60
2, 33149, Note_on_c, 0, 98, 60
2, 33151, Note_on_c, 0, 77, 60
2, 33151, Note_on_c, 0, 86, 60
2, 33151, Note_on_c, 0, 89, 60
2, 33151, Note_on_c, 0, 74, 60
2, 33153, Note_on_c, 0, 88, 0
2, 33153, Note_on_c, 0, 96, 0
2, 33153, Note_on_c, 0, 60, 60
2, 33153, Note_on_c, 0, 55, 60
2, 33155, Note_on_c, 0, 84, 0
2, 33155, Note_on_c, 0, 76, 0
2, 33155, Note_on_c, 0, 72, 0
2, 33160, Control_c, 0, 64, 0
2, 33183, Note_on_c, 0, 60, 0
2, 33183, Note_on_c, 0, 55, 0
2, 33209, Note_on_c, 0, 90, 60
2, 33209, Note_on_c, 0, 99, 60
2, 33209, Note_on_c, 0, 87, 60
2, 33211, Note_on_c, 0, 78, 60
2, 33211, Note_on_c, 0, 75, 60
2, 33213, Note_on_c, 0, 98, 0
2, 33213, Note_on_c, 0, 86, 0
2, 33213, Note_on_c, 0, 77, 0
2, 33213, Note_on_c, 0, 89, 0
2, 33213, Note_on_c, 0, 74, 0
2, 33262, Note_on_c, 0, 40, 0
2, 33266, Note_on_c, 0, 88, 60
2, 33266, Note_on_c, 0, 91, 60
2, 33266, Note_on_c, 0, 100, 60
2, 33266, Note_on_c, 0, 79, 60
2, 33268, Note_on_c, 0, 76, 60
2, 33270, Note_on_c, 0, 90, 0
2, 33270, Note_on_c, 0, 78, 0
2, 33270, Note_on_c, 0, 75, 0
2, 33270, Note_on_c, 0, 87, 0
2, 33270, Note_on_c, 0, 43, 60
2, 33284, Note_on_c, 0, 99, 0
2, 33284, Control_c, 0, 64, 127
2, 33294, Note_on_c, 0, 76, 0
2, 33294, Note_on_c, 0, 88, 0
2, 33322, Note_on_c, 0, 96, 60
2, 33322, Note_on_c, 0, 88, 60
2, 33324, Note_on_c, 0, 76, 60
2, 33324, Note_on_c, 0, 84, 60
2, 33324, Note_on_c, 0, 72, 60
2, 33326, Note_on_c, 0, 91, 0
2, 33326, Note_on_c, 0, 100, 0
2, 33328, Note_on_c, 0, 79, 0
2, 33366, Control_c, 0, 64, 0
2, 33380, Note_on_c, 0, 86, 60
2, 33380, Note_on_c, 0, 89, 60
2, 33380, Note_on_c, 0, 98, 60
2, 33380, Note_on_c, 0, 74, 60
2, 33382, Note_on_c, 0, 77, 60
2, 33382, Note_on_c, 0, 60, 60
2, 33384, Note_on_c, 0, 84, 0
2, 33384, Note_on_c, 0, 96, 0
2, 33384, Note_on_c, 0, 88, 0
2, 33384, Note_on_c, 0, 55, 60
2, 33384, Note_on_c, 0, 52, 60
2, 33385, Note_on_c, 0, 76, 0
2, 33388, Note_on_c, 0, 72, 0
2, 33408, Note_on_c, 0, 60, 0
2, 33409, Note_on_c, 0, 55, 0
2, 33409, Note_on_c, 0, 52, 0
2, 33437, Note_on_c, 0, 91, 60
2, 33437, Note_on_c, 0, 100, 60
2, 33437, Note_on_c, 0, 88, 60
2, 33439, Note_on_c, 0, 79, 60
2, 33439, Note_on_c, 0, 76, 60
2, 33441, Note_on_c, 0, 98, 0
2, 33443, Note_on_c, 0, 86, 0
2, 33443, Note_on_c, 0, 89, 0
2, 33443, Note_on_c, 0, 77, 0
2, 33446, Note_on_c, 0, 74, 0
2, 33469, Note_on_c, 0, 43, 0
2, 33499, Note_on_c, 0, 43, 60
2, 33528, Control_c, 0, 64, 127
2, 33556, Note_on_c, 0, 83, 60
2, 33556, Note_on_c, 0, 86, 60
2, 33556, Note_on_c, 0, 95, 60
2, 33556, Note_on_c, 0, 74, 60
2, 33558, Note_on_c, 0, 71, 60
2, 33561, Note_on_c, 0, 88, 0
2, 33561, Note_on_c, 0, 100, 0
2, 33561, Note_on_c, 0, 79, 0
2, 33561, Note_on_c, 0, 91, 0
2, 33563, Note_on_c, 0, 76, 0
2, 33584, Note_on_c, 0, 86, 0
2, 33586, Note_on_c, 0, 74, 0
2, 33614, Control_c, 0, 64, 0
2, 33616, Note_on_c, 0, 98, 60
2, 33619, Note_on_c, 0, 74, 60
2, 33619, Note_on_c, 0, 77, 60
2, 33619, Note_on_c, 0, 86, 60
2, 33619, Note_on_c, 0, 89, 60
2, 33619, Note_on_c, 0, 59, 60
2, 33621, Note_on_c, 0, 83, 0
2, 33621, Note_on_c, 0, 95, 0
2, 33621, Note_on_c, 0, 55, 60
2, 33621, Note_on_c, 0, 53, 60
2, 33623, Note_on_c, 0, 71, 0
2, 33646, Note_on_c, 0, 53, 0
2, 33646, Note_on_c, 0, 59, 0
2, 33646, Note_on_c, 0, 55, 0
2, 33729, Note_on_c, 0, 43, 0
2, 33734, Note_on_c, 0, 96, 60
2, 33736, Note_on_c, 0, 76, 60
2, 33736, Note_on_c, 0, 84, 60
2, 33736, Note_on_c, 0, 88, 60
2, 33736, Note_on_c, 0, 72, 60
2, 33738, Note_on_c, 0, 89, 0
2, 33738, Note_on_c, 0, 98, 0
2, 33738, Note_on_c, 0, 36, 60
2, 33740, Note_on_c, 0, 74, 0
2, 33740, Note_on_c, 0, 86, 0
2, 33740, Note_on_c, 0, 77, 0
2, 33774, Control_c, 0, 64, 127
2, 33811, Note_on_c, 0, 76, 0
2, 33855, Note_on_c, 0, 76, 60
2, 33857, Note_on_c, 0, 84, 0
2, 33857, Note_on_c, 0, 88, 0
2, 33857, Note_on_c, 0, 96, 0
2, 33857, Note_on_c, 0, 55, 60
2, 33857, Note_on_c, 0, 60, 60
2, 33857, Note_on_c, 0, 52, 60
2, 33860, Note_on_c, 0, 72, 0
2, 33883, Note_on_c, 0, 60, 0
2, 33883, Note_on_c, 0, 55, 0
2, 33883, Note_on_c, 0, 52, 0
2, 33911, Note_on_c, 0, 79, 60
2, 33914, Note_on_c, 0, 76, 0
2, 33932, Control_c, 0, 64, 0
2, 33970, Note_on_c, 0, 84, 60
2, 33972, Note_on_c, 0, 76, 60
2, 33972, Note_on_c, 0, 60, 60
2, 33975, Note_on_c, 0, 79, 0
2, 33975, Note_on_c, 0, 55, 60
2, 33975, Note_on_c, 0, 52, 60
2, 33998, Note_on_c, 0, 60, 0
2, 34000, Note_on_c, 0, 55, 0
2, 34000, Note_on_c, 0, 36, 0
2, 34000, Note_on_c, 0, 52, 0
2, 34022, Note_on_c, 0, 76, 0
2, 34022, Note_on_c, 0, 84, 0
2, 34090, Note_on_c, 0, 96, 60
2, 34090, Note_on_c, 0, 88, 60
2, 34092, Note_on_c, 0, 76, 60
2, 34092, Note_on_c, 0, 84, 60
2, 34092, Note_on_c, 0, 72, 60
2, 34148, Note_on_c, 0, 98, 60
2, 34148, Note_on_c, 0, 89, 60
2, 34150, Note_on_c, 0, 77, 60
2, 34150, Note_on_c, 0, 86, 60
2, 34150, Note_on_c, 0, 74, 60
2, 34152, Note_on_c, 0, 88, 0
2, 34152, Note_on_c, 0, 96, 0
2, 34153, Note_on_c, 0, 84, 0
2, 34153, Note_on_c, 0, 72, 0
2, 34153, Note_on_c, 0, 76, 0
2, 34202, Note_on_c, 0, 100, 60
2, 34205, Note_on_c, 0, 79, 60
2, 34205, Note_on_c, 0, 88, 60
2, 34205, Note_on_c, 0, 91, 60
2, 34205, Note_on_c, 0, 76, 60
2, 34207, Note_on_c, 0, 98, 0
2, 34207, Note_on_c, 0, 48, 60
2, 34209, Note_on_c, 0, 77, 0
2, 34209, Note_on_c, 0, 86, 0
2, 34209, Note_on_c, 0, 89, 0
2, 34209, Note_on_c, 0, 36, 60
2, 34211, Note_on_c, 0, 74, 0
2, 34230, Note_on_c, 0, 88, 0
2, 34230, Note_on_c, 0, 76, 0
2, 34258, Note_on_c, 0, 96, 60
2, 34260, Note_on_c, 0, 76, 60
2, 34260, Note_on_c, 0, 84, 60
2, 34260, Note_on_c, 0, 88, 60
2, 34260, Note_on_c, 0, 72, 60
2, 34263, Note_on_c, 0, 100, 0
2, 34263, Note_on_c, 0, 91, 0
2, 34265, Note_on_c, 0, 79, 0
2, 34265, Control_c, 0, 64, 127
2, 34312, Control_c, 0, 64, 0
2, 34314, Note_on_c, 0, 89, 60
2, 34314, Note_on_c, 0, 98, 60
2, 34314, Note_on_c, 0, 74, 60
2, 34316, Note_on_c, 0, 64, 60
2, 34316, Note_on_c, 0, 77, 60
2, 34316, Note_on_c, 0, 86, 60
2, 34316, Note_on_c, 0, 60, 60
2, 34318, Note_on_c, 0, 84, 0
2, 34318, Note_on_c, 0, 88, 0
2, 34318, Note_on_c, 0, 96, 0
2, 34318, Note_on_c, 0, 55, 60
2, 34320, Note_on_c, 0, 76, 0
2, 34322, Note_on_c, 0, 72, 0
2, 34342, Note_on_c, 0, 60, 0
2, 34342, Note_on_c, 0, 64, 0
2, 34342, Note_on_c, 0, 55, 0
2, 34368, Note_on_c, 0, 100, 60
2, 34369, Note_on_c, 0, 88, 60
2, 34369, Note_on_c, 0, 91, 60
2, 34369, Note_on_c, 0, 79, 60
2, 34371, Note_on_c, 0, 76, 60
2, 34373, Note_on_c, 0, 98, 0
2, 34373, Note_on_c, 0, 89, 0
2, 34373, Note_on_c, 0, 86, 0
2, 34373, Note_on_c, 0, 77, 0
2, 34375, Note_on_c, 0, 36, 0
2, 34375, Note_on_c, 0, 48, 0
2, 34378, Note_on_c, 0, 74, 0
2, 34429, Note_on_c, 0, 46, 60
2, 34431, Control_c, 0, 64, 127
2, 34441, Note_on_c, 0, 91, 0
2, 34441, Note_on_c, 0, 34, 60
2, 34455, Note_on_c, 0, 79, 0
2, 34483, Note_on_c, 0, 91, 60
2, 34483, Note_on_c, 0, 96, 60
2, 34483, Note_on_c, 0, 84, 60
2, 34485, Note_on_c, 0, 79, 60
2, 34485, Note_on_c, 0, 72, 60
2, 34487, Note_on_c, 0, 100, 0
2, 34487, Note_on_c, 0, 88, 0
2, 34490, Note_on_c, 0, 76, 0
2, 34499, Note_on_c, 0, 79, 0
2, 34516, Control_c, 0, 64, 0
2, 34540, Note_on_c, 0, 98, 60
2, 34542, Note_on_c, 0, 74, 60
2, 34542, Note_on_c, 0, 79, 60
2, 34542, Note_on_c, 0, 86, 60
2, 34542, Note_on_c, 0, 64, 60
2, 34544, Note_on_c, 0, 91, 0
2, 34544, Note_on_c, 0, 84, 0
2, 34544, Note_on_c, 0, 96, 0
2, 34544, Note_on_c, 0, 60, 60
2, 34544, Note_on_c, 0, 55, 60
2, 34551, Note_on_c, 0, 72, 0
2, 34557, Note_on_c, 0, 79, 0
2, 34570, Note_on_c, 0, 64, 0
2, 34570, Note_on_c, 0, 60, 0
2, 34570, Note_on_c, 0, 55, 0
2, 34598, Note_on_c, 0, 84, 60
2, 34598, Note_on_c, 0, 91, 60
2, 34598, Note_on_c, 0, 96, 60
2, 34598, Note_on_c, 0, 79, 60
2, 34602, Note_on_c, 0, 98, 0
2, 34602, Note_on_c, 0, 72, 60
2, 34604, Note_on_c, 0, 86, 0
2, 34608, Note_on_c, 0, 74, 0
2, 34653, Note_on_c, 0, 46, 0
2, 34653, Note_on_c, 0, 34, 0
2, 34656, Note_on_c, 0, 100, 60
2, 34656, Note_on_c, 0, 93, 60
2, 34657, Note_on_c, 0, 81, 60
2, 34657, Note_on_c, 0, 88, 60
2, 34657, Note_on_c, 0, 76, 60
2, 34659, Note_on_c, 0, 84, 0
2, 34659, Note_on_c, 0, 96, 0
2, 34659, Note_on_c, 0, 79, 0
2, 34659, Note_on_c, 0, 91, 0
2, 34659, Note_on_c, 0, 45, 60
2, 34661, Note_on_c, 0, 33, 60
2, 34663, Note_on_c, 0, 72, 0
2, 34672, Control_c, 0, 64, 127
2, 34715, Note_on_c, 0, 96, 60
2, 34715, Note_on_c, 0, 84, 60
2, 34717, Note_on_c, 0, 93, 0
2, 34717, Note_on_c, 0, 100, 0
2, 34717, Note_on_c, 0, 72, 60
2, 34719, Note_on_c, 0, 76, 0
2, 34719, Note_on_c, 0, 88, 0
2, 34719, Note_on_c, 0, 81, 0
2, 34762, Control_c, 0, 64, 0
2, 34775, Note_on_c, 0, 98, 60
2, 34775, Note_on_c, 0, 93, 60
2, 34776, Note_on_c, 0, 74, 60
2, 34776, Note_on_c, 0, 81, 60
2, 34776, Note_on_c, 0, 86, 60
2, 34776, Note_on_c, 0, 65, 60
2, 34778, Note_on_c, 0, 84, 0
2, 34778, Note_on_c, 0, 96, 0
2, 34778, Note_on_c, 0, 60, 60
2, 34778, Note_on_c, 0, 57, 60
2, 34781, Note_on_c, 0, 72, 0
2, 34804, Note_on_c, 0, 60, 0
2, 34804, Note_on_c, 0, 65, 0
2, 34806, Note_on_c, 0, 57, 0
2, 34834, Note_on_c, 0, 92, 60
2, 34834, Note_on_c, 0, 100, 60
2, 34834, Note_on_c, 0, 88, 60
2, 34836, Note_on_c, 0, 80, 60
2, 34836, Note_on_c, 0, 76, 60
2, 34839, Note_on_c, 0, 86, 0
2, 34839, Note_on_c, 0, 98, 0
2, 34839, Note_on_c, 0, 93, 0
2, 34841, Note_on_c, 0, 81, 0
2, 34843, Note_on_c, 0, 74, 0
2, 34843, Note_on_c, 0, 33, 0
2, 34843, Note_on_c, 0, 45, 0
2, 34896, Note_on_c, 0, 44, 60
2, 34896, Note_on_c, 0, 32, 60
2, 34907, Note_on_c, 0, 92, 0
2, 34907, Note_on_c, 0, 80, 0
2, 34920, Control_c, 0, 64, 127
2, 34949, Note_on_c, 0, 84, 60
2, 34949, Note_on_c, 0, 92, 60
2, 34949, Note_on_c, 0, 96, 60
2, 34949, Note_on_c, 0, 80, 60
2, 34951, Note_on_c, 0, 100, 0
2, 34951, Note_on_c, 0, 72, 60
2, 34954, Note_on_c, 0, 88, 0
2, 34954, Note_on_c, 0, 76, 0
2, 34977, Note_on_c, 0, 92, 0
2, 34979, Note_on_c, 0, 80, 0
2, 35007, Note_on_c, 0, 92, 60
2, 35007, Note_on_c, 0, 98, 60
2, 35007, Control_c, 0, 64, 0
2, 35009, Note_on_c, 0, 80, 60
2, 35009, Note_on_c, 0, 86, 60
2, 35009, Note_on_c, 0, 74, 60
2, 35012, Note_on_c, 0, 96, 0
2, 35012, Note_on_c, 0, 84, 0
2, 35012, Note_on_c, 0, 60, 60
2, 35012, Note_on_c, 0, 65, 60
2, 35012, Note_on_c, 0, 56, 60
2, 35014, Note_on_c, 0, 72, 0
2, 35035, Note_on_c, 0, 92, 0
2, 35037, Note_on_c, 0, 56, 0
2, 35037, Note_on_c, 0, 80, 0
2, 35037, Note_on_c, 0, 60, 0
2, 35040, Note_on_c, 0, 65, 0
2, 35069, Note_on_c, 0, 80, 60
2, 35069, Note_on_c, 0, 84, 60
2, 35069, Note_on_c, 0, 92, 60
2, 35069, Note_on_c, 0, 96, 60
2, 35069, Note_on_c, 0, 72, 60
2, 35071, Note_on_c, 0, 98, 0
2, 35073, Note_on_c, 0, 86, 0
2, 35075, Note_on_c, 0, 74, 0
2, 35122, Note_on_c, 0, 32, 0
2, 35122, Note_on_c, 0, 44, 0
2, 35124, Note_on_c, 0, 100, 60
2, 35127, Note_on_c, 0, 79, 60
2, 35127, Note_on_c, 0, 88, 60
2, 35127, Note_on_c, 0, 91, 60
2, 35127, Note_on_c, 0, 76, 60
2, 35129, Note_on_c, 0, 92, 0
2, 35129, Note_on_c, 0, 96, 0
2, 35129, Note_on_c, 0, 43, 60
2, 35131, Note_on_c, 0, 80, 0
2, 35131, Note_on_c, 0, 72, 0
2, 35131, Note_on_c, 0, 84, 0
2, 35131, Note_on_c, 0, 31, 60
2, 35152, Note_on_c, 0, 76, 0
2, 35152, Note_on_c, 0, 88, 0
2, 35165, Control_c, 0, 64, 127
2, 35182, Note_on_c, 0, 96, 60
2, 35182, Note_on_c, 0, 88, 60
2, 35184, Note_on_c, 0, 76, 60
2, 35184, Note_on_c, 0, 84, 60
2, 35184, Note_on_c, 0, 72, 60
2, 35186, Note_on_c, 0, 79, 0
2, 35186, Note_on_c, 0, 91, 0
2, 35186, Note_on_c, 0, 100, 0
2, 35216, Control_c, 0, 64, 0
2, 35237, Note_on_c, 0, 86, 60
2, 35237, Note_on_c, 0, 89, 60
2, 35237, Note_on_c, 0, 98, 60
2, 35237, Note_on_c, 0, 74, 60
2, 35239, Note_on_c, 0, 60, 60
2, 35239, Note_on_c, 0, 64, 60
2, 35239, Note_on_c, 0, 77, 60
2, 35239, Note_on_c, 0, 55, 60
2, 35242, Note_on_c, 0, 84, 0
2, 35242, Note_on_c, 0, 76, 0
2, 35242, Note_on_c, 0, 96, 0
2, 35242, Note_on_c, 0, 88, 0
2, 35244, Note_on_c, 0, 72, 0
2, 35265, Note_on_c, 0, 55, 0
2, 35265, Note_on_c, 0, 60, 0
2, 35265, Note_on_c, 0, 64, 0
2, 35295, Note_on_c, 0, 88, 60
2, 35295, Note_on_c, 0, 91, 60
2, 35295, Note_on_c, 0, 100, 60
2, 35295, Note_on_c, 0, 79, 60
2, 35297, Note_on_c, 0, 76, 60
2, 35300, Note_on_c, 0, 74, 0
2, 35300, Note_on_c, 0, 89, 0
2, 35300, Note_on_c, 0, 98, 0
2, 35300, Note_on_c, 0, 86, 0
2, 35300, Note_on_c, 0, 77, 0
2, 35323, Note_on_c, 0, 31, 0
2, 35323, Note_on_c, 0, 43, 0
2, 35354, Note_on_c, 0, 43, 60
2, 35354, Note_on_c, 0, 31, 60
2, 35370, Control_c, 0, 64, 127
2, 35410, Note_on_c, 0, 83, 60
2, 35410, Note_on_c, 0, 86, 60
2, 35410, Note_on_c, 0, 95, 60
2, 35410, Note_on_c, 0, 74, 60
2, 35412, Note_on_c, 0, 71, 60
2, 35415, Note_on_c, 0, 88, 0
2, 35415, Note_on_c, 0, 100, 0
2, 35415, Note_on_c, 0, 91, 0
2, 35417, Note_on_c, 0, 79, 0
2, 35417, Note_on_c, 0, 76, 0
2, 35438, Note_on_c, 0, 86, 0
2, 35440, Note_on_c, 0, 74, 0
2, 35455, Control_c, 0, 64, 0
2, 35468, Note_on_c, 0, 98, 60
2, 35468, Note_on_c, 0, 89, 60
2, 35470, Note_on_c, 0, 77, 60
2, 35470, Note_on_c, 0, 86, 60
2, 35470, Note_on_c, 0, 74, 60
2, 35474, Note_on_c, 0, 95, 0
2, 35474, Note_on_c, 0, 55, 60
2, 35474, Note_on_c, 0, 59, 60
2, 35474, Note_on_c, 0, 53, 60
2, 35476, Note_on_c, 0, 83, 0
2, 35476, Note_on_c, 0, 71, 0
2, 35500, Note_on_c, 0, 59, 0
2, 35500, Note_on_c, 0, 55, 0
2, 35500, Note_on_c, 0, 53, 0
2, 35583, Note_on_c, 0, 43, 0
2, 35585, Note_on_c, 0, 31, 0
2, 35588, Note_on_c, 0, 96, 60
2, 35588, Note_on_c, 0, 88, 60
2, 35590, Note_on_c, 0, 76, 60
2, 35590, Note_on_c, 0, 84, 60
2, 35590, Note_on_c, 0, 72, 60
2, 35592, Note_on_c, 0, 98, 0
2, 35592, Note_on_c, 0, 89, 0
2, 35592, Note_on_c, 0, 74, 0
2, 35592, Note_on_c, 0, 86, 0
2, 35592, Note_on_c, 0, 48, 60
2, 35592, Note_on_c, 0, 36, 60
2, 35593, Note_on_c, 0, 77, 0
2, 35619, Control_c, 0, 64, 127
2, 35712, Note_on_c, 0, 55, 60
2, 35715, Note_on_c, 0, 43, 60
2, 35717, Note_on_c, 0, 36, 0
2, 35717, Note_on_c, 0, 48, 0
2, 35743, Control_c, 0, 64, 0
2, 35832, Note_on_c, 0, 48, 60
2, 35832, Note_on_c, 0, 36, 60
2, 35834, Note_on_c, 0, 43, 0
2, 35837, Note_on_c, 0, 55, 0
2, 35869, Control_c, 0, 64, 127
2, 35948, Note_on_c, 0, 88, 0
2, 35948, Note_on_c, 0, 76, 0
2, 35948, Note_on_c, 0, 96, 0
2, 35948, Note_on_c, 0, 84, 0
2, 35950, Note_on_c, 0, 72, 0
2, 35952, Note_on_c, 0, 48, 0
2, 35952, Note_on_c, 0, 36, 0
2, 35988, Control_c, 0, 64, 0
2, 36070, Note_on_c, 0, 77, 60
2, 36070, Note_on_c, 0, 74, 60
2, 36072, Note_on_c, 0, 57, 60
2, 36072, Note_on_c, 0, 65, 60
2, 36072, Note_on_c, 0, 41, 60
2, 36097, Note_on_c, 0, 74, 0
2, 36099, Note_on_c, 0, 65, 0
2, 36122, Control_c, 0, 64, 127
2, 36134, Note_on_c, 0, 77, 0
2, 36192, Note_on_c, 0, 73, 60
2, 36192, Note_on_c, 0, 76, 60
2, 36192, Note_on_c, 0, 64, 60
2, 36193, Note_on_c, 0, 53, 60
2, 36197, Note_on_c, 0, 41, 0
2, 36218, Note_on_c, 0, 53, 0
2, 36244, Note_on_c, 0, 74, 60
2, 36244, Note_on_c, 0, 77, 60
2, 36244, Note_on_c, 0, 65, 60
2, 36249, Note_on_c, 0, 76, 0
2, 36249, Note_on_c, 0, 64, 0
2, 36249, Note_on_c, 0, 73, 0
2, 36274, Control_c, 0, 64, 0
2, 36307, Note_on_c, 0, 45, 60
2, 36361, Note_on_c, 0, 73, 60
2, 36361, Note_on_c, 0, 76, 60
2, 36361, Note_on_c, 0, 64, 60
2, 36366, Note_on_c, 0, 74, 0
2, 36366, Note_on_c, 0, 65, 0
2, 36366, Note_on_c, 0, 77, 0
2, 36368, Note_on_c, 0, 45, 0
2, 36419, Note_on_c, 0, 74, 60
2, 36419, Note_on_c, 0, 77, 60
2, 36419, Note_on_c, 0, 65, 60
2, 36422, Note_on_c, 0, 73, 0
2, 36422, Note_on_c, 0, 76, 0
2, 36422, Note_on_c, 0, 60, 60
2, 36422, Note_on_c, 0, 53, 60
2, 36424, Note_on_c, 0, 64, 0
2, 36456, Note_on_c, 0, 74, 0
2, 36456, Note_on_c, 0, 77, 0
2, 36457, Note_on_c, 0, 65, 0
2, 36457, Note_on_c, 0, 53, 0
2, 36457, Note_on_c, 0, 60, 0
2, 36539, Note_on_c, 0, 41, 60
2, 36595, Note_on_c, 0, 93, 60
2, 36652, Note_on_c, 0, 98, 60
2, 36656, Note_on_c, 0, 93, 0
2, 36656, Note_on_c, 0, 60, 60
2, 36658, Note_on_c, 0, 53, 60
2, 36660, Note_on_c, 0, 41, 0
2, 36684, Note_on_c, 0, 60, 0
2, 36684, Note_on_c, 0, 53, 0
2, 36712, Note_on_c, 0, 93, 60
2, 36716, Note_on_c, 0, 98, 0
2, 36769, Note_on_c, 0, 96, 60
2, 36773, Note_on_c, 0, 93, 0
2, 36775, Note_on_c, 0, 45, 60
2, 36827, Note_on_c, 0, 98, 60
2, 36831, Note_on_c, 0, 96, 0
2, 36885, Note_on_c, 0, 96, 60
2, 36888, Note_on_c, 0, 98, 0
2, 36888, Note_on_c, 0, 60, 60
2, 36888, Note_on_c, 0, 53, 60
2, 36893, Note_on_c, 0, 45, 0
2, 36914, Note_on_c, 0, 60, 0
2, 36914, Note_on_c, 0, 53, 0
2, 36942, Note_on_c, 0, 93, 60
2, 36946, Note_on_c, 0, 96, 0
2, 37002, Note_on_c, 0, 76, 60
2, 37002, Note_on_c, 0, 79, 60
2, 37002, Note_on_c, 0, 67, 60
2, 37004, Note_on_c, 0, 93, 0
2, 37004, Note_on_c, 0, 55, 60
2, 37004, Note_on_c, 0, 48, 60
2, 37006, Note_on_c, 0, 57, 0
2, 37028, Control_c, 0, 64, 127
2, 37038, Note_on_c, 0, 79, 0
2, 37040, Note_on_c, 0, 67, 0
2, 37040, Note_on_c, 0, 76, 0
2, 37119, Note_on_c, 0, 75, 60
2, 37119, Note_on_c, 0, 78, 60
2, 37119, Note_on_c, 0, 66, 60
2, 37121, Note_on_c, 0, 60, 60
2, 37121, Note_on_c, 0, 52, 60
2, 37126, Note_on_c, 0, 48, 0
2, 37145, Note_on_c, 0, 60, 0
2, 37147, Note_on_c, 0, 52, 0
2, 37175, Note_on_c, 0, 76, 60
2, 37175, Note_on_c, 0, 79, 60
2, 37175, Note_on_c, 0, 67, 60
2, 37176, Note_on_c, 0, 78, 0
2, 37176, Note_on_c, 0, 75, 0
2, 37181, Note_on_c, 0, 66, 0
2, 37217, Control_c, 0, 64, 0
2, 37236, Note_on_c, 0, 43, 60
2, 37294, Note_on_c, 0, 78, 60
2, 37294, Note_on_c, 0, 75, 60
2, 37296, Note_on_c, 0, 66, 60
2, 37298, Note_on_c, 0, 76, 0
2, 37298, Note_on_c, 0, 79, 0
2, 37298, Note_on_c, 0, 67, 0
2, 37351, Note_on_c, 0, 79, 60
2, 37351, Note_on_c, 0, 76, 60
2, 37354, Note_on_c, 0, 60, 60
2, 37354, Note_on_c, 0, 67, 60
2, 37354, Note_on_c, 0, 52, 60
2, 37358, Note_on_c, 0, 78, 0
2, 37358, Note_on_c, 0, 75, 0
2, 37360, Note_on_c, 0, 66, 0
2, 37360, Note_on_c, 0, 43, 0
2, 37382, Note_on_c, 0, 60, 0
2, 37382, Note_on_c, 0, 52, 0
2, 37392, Note_on_c, 0, 67, 0
2, 37392, Note_on_c, 0, 76, 0
2, 37392, Note_on_c, 0, 79, 0
2, 37473, Note_on_c, 0, 48, 60
2, 37524, Note_on_c, 0, 96, 60
2, 37582, Note_on_c, 0, 100, 60
2, 37586, Note_on_c, 0, 96, 0
2, 37586, Note_on_c, 0, 60, 60
2, 37588, Note_on_c, 0, 52, 60
2, 37601, Note_on_c, 0, 48, 0
2, 37612, Note_on_c, 0, 60, 0
2, 37614, Note_on_c, 0, 52, 0
2, 37639, Note_on_c, 0, 96, 60
2, 37646, Note_on_c, 0, 100, 0
2, 37700, Note_on_c, 0, 98, 60
2, 37704, Note_on_c, 0, 96, 0
2, 37704, Note_on_c, 0, 43, 60
2, 37754, Note_on_c, 0, 100, 60
2, 37761, Note_on_c, 0, 98, 0
2, 37812, Note_on_c, 0, 98, 60
2, 37815, Note_on_c, 0, 60, 60
2, 37817, Note_on_c, 0, 100, 0
2, 37817, Note_on_c, 0, 52, 60
2, 37819, Note_on_c, 0, 43, 0
2, 37845, Note_on_c, 0, 60, 0
2, 37845, Note_on_c, 0, 52, 0
2, 37874, Note_on_c, 0, 96, 60
2, 37876, Note_on_c, 0, 98, 0
2, 37934, Note_on_c, 0, 83, 60
2, 37934, Note_on_c, 0, 86, 60
2, 37934, Note_on_c, 0, 74, 60
2, 37936, Note_on_c, 0, 96, 0
2, 37936, Note_on_c, 0, 53, 60
2, 37936, Note_on_c, 0, 43, 60
2, 37939, Note_on_c, 0, 55, 0
2, 37962, Note_on_c, 0, 74, 0
2, 37962, Note_on_c, 0, 86, 0
2, 37962, Note_on_c, 0, 83, 0
2, 37972, Control_c, 0, 64, 127
2, 38049, Note_on_c, 0, 82, 60
2, 38049, Note_on_c, 0, 85, 60
2, 38049, Note_on_c, 0, 73, 60
2, 38051, Note_on_c, 0, 59, 60
2, 38051, Note_on_c, 0, 55, 60
2, 38056, Note_on_c, 0, 43, 0
2, 38077, Note_on_c, 0, 59, 0
2, 38077, Note_on_c, 0, 55, 0
2, 38105, Note_on_c, 0, 83, 60
2, 38105, Note_on_c, 0, 86, 60
2, 38105, Note_on_c, 0, 74, 60
2, 38109, Note_on_c, 0, 85, 0
2, 38109, Note_on_c, 0, 73, 0
2, 38109, Note_on_c, 0, 82, 0
2, 38160, Control_c, 0, 64, 0
2, 38166, Note_on_c, 0, 47, 60
2, 38224, Note_on_c, 0, 82, 60
2, 38224, Note_on_c, 0, 85, 60
2, 38224, Note_on_c, 0, 73, 60
2, 38227, Note_on_c, 0, 83, 0
2, 38227, Note_on_c, 0, 86, 0
2, 38229, Note_on_c, 0, 74, 0
2, 38281, Note_on_c, 0, 83, 60
2, 38281, Note_on_c, 0, 86, 60
2, 38281, Note_on_c, 0, 74, 60
2, 38284, Note_on_c, 0, 59, 60
2, 38284, Note_on_c, 0, 55, 60
2, 38286, Note_on_c, 0, 85, 0
2, 38286, Note_on_c, 0, 73, 0
2, 38286, Note_on_c, 0, 82, 0
2, 38288, Note_on_c, 0, 47, 0
2, 38309, Note_on_c, 0, 86, 0
2, 38309, Note_on_c, 0, 83, 0
2, 38311, Note_on_c, 0, 55, 0
2, 38311, Note_on_c, 0, 59, 0
2, 38311, Note_on_c, 0, 74, 0
2, 38403, Note_on_c, 0, 43, 60
2, 38459, Note_on_c, 0, 89, 60
2, 38517, Note_on_c, 0, 93, 60
2, 38522, Note_on_c, 0, 89, 0
2, 38522, Note_on_c, 0, 59, 60
2, 38522, Note_on_c, 0, 55, 60
2, 38525, Note_on_c, 0, 43, 0
2, 38548, Note_on_c, 0, 59, 0
2, 38548, Note_on_c, 0, 55, 0
2, 38578, Note_on_c, 0, 89, 60
2, 38583, Note_on_c, 0, 93, 0
2, 38638, Note_on_c, 0, 91, 60
2, 38640, Note_on_c, 0, 50, 60
2, 38642, Note_on_c, 0, 89, 0
2, 38695, Note_on_c, 0, 93, 60
2, 38700, Note_on_c, 0, 91, 0
2, 38756, Note_on_c, 0, 91, 60
2, 38758, Note_on_c, 0, 59, 60
2, 38758, Note_on_c, 0, 55, 60
2, 38760, Note_on_c, 0, 93, 0
2, 38761, Note_on_c, 0, 50, 0
2, 38785, Note_on_c, 0, 59, 0
2, 38785, Note_on_c, 0, 55, 0
2, 38810, Note_on_c, 0, 89, 60
2, 38815, Note_on_c, 0, 91, 0
2, 38864, Note_on_c, 0, 53, 0
2, 38871, Note_on_c, 0, 78, 60
2, 38871, Note_on_c, 0, 84, 60
2, 38871, Note_on_c, 0, 87, 60
2, 38871, Note_on_c, 0, 90, 60
2, 38871, Note_on_c, 0, 96, 60
2, 38871, Note_on_c, 0, 75, 60
2, 38873, Note_on_c, 0, 54, 60
2, 38873, Note_on_c, 0, 57, 60
2, 38873, Note_on_c, 0, 60, 60
2, 38873, Note_on_c, 0, 51, 60
2, 38875, Note_on_c, 0, 89, 0
2, 38896, Note_on_c, 0, 90, 0
2, 38896, Note_on_c, 0, 96, 0
2, 38899, Note_on_c, 0, 87, 0
2, 38899, Note_on_c, 0, 84, 0
2, 38926, Note_on_c, 0, 96, 60
2, 38926, Note_on_c, 0, 90, 60
2, 38928, Note_on_c, 0, 87, 60
2, 38928, Note_on_c, 0, 84, 60
2, 38930, Note_on_c, 0, 75, 0
2, 38932, Note_on_c, 0, 78, 0
2, 38953, Note_on_c, 0, 87, 0
2, 38953, Note_on_c, 0, 90, 0
2, 38953, Note_on_c, 0, 84, 0
2, 38953, Note_on_c, 0, 96, 0
2, 38956, Note_on_c, 0, 57, 0
2, 38956, Note_on_c, 0, 51, 0
2, 38956, Note_on_c, 0, 60, 0
2, 38956, Note_on_c, 0, 54, 0
2, 38983, Note_on_c, 0, 87, 60
2, 38983, Note_on_c, 0, 90, 60
2, 38983, Note_on_c, 0, 96, 60
2, 38983, Note_on_c, 0, 84, 60
2, 38986, Note_on_c, 0, 57, 60
2, 38986, Note_on_c, 0, 60, 60
2, 38986, Note_on_c, 0, 75, 60
2, 38986, Note_on_c, 0, 78, 60
2, 38986, Note_on_c, 0, 54, 60
2, 38988, Note_on_c, 0, 51, 60
2, 39030, Note_on_c, 0, 84, 0
2, 39030, Note_on_c, 0, 96, 0
2, 39030, Note_on_c, 0, 87, 0
2, 39030, Note_on_c, 0, 90, 0
2, 39033, Note_on_c, 0, 75, 0
2, 39033, Note_on_c, 0, 54, 0
2, 39033, Note_on_c, 0, 51, 0
2, 39033, Note_on_c, 0, 78, 0
2, 39033, Note_on_c, 0, 60, 0
2, 39035, Note_on_c, 0, 57, 0
2, 39218, Note_on_c, 0, 93, 60
2, 39218, Note_on_c, 0, 90, 60
2, 39222, Note_on_c, 0, 78, 60
2, 39222, Note_on_c, 0, 81, 60
2, 39222, Note_on_c, 0, 84, 60
2, 39222, Note_on_c, 0, 87, 60
2, 39222, Note_on_c, 0, 75, 60
2, 39225, Note_on_c, 0, 54, 60
2, 39225, Note_on_c, 0, 57, 60
2, 39225, Note_on_c, 0, 60, 60
2, 39225, Note_on_c, 0, 51, 60
2, 39269, Note_on_c, 0, 90, 0
2, 39269, Note_on_c, 0, 93, 0
2, 39271, Note_on_c, 0, 81, 0
2, 39271, Note_on_c, 0, 84, 0
2, 39271, Note_on_c, 0, 75, 0
2, 39271, Note_on_c, 0, 87, 0
2, 39271, Note_on_c, 0, 78, 0
2, 39295, Note_on_c, 0, 60, 0
2, 39295, Note_on_c, 0, 54, 0
2, 39295, Note_on_c, 0, 51, 0
2, 39297, Note_on_c, 0, 57, 0
2, 39332, Note_on_c, 0, 91, 60
2, 39332, Note_on_c, 0, 84, 60
2, 39334, Note_on_c, 0, 60, 60
2, 39334, Note_on_c, 0, 72, 60
2, 39334, Note_on_c, 0, 76, 60
2, 39334, Note_on_c, 0, 79, 60
2, 39334, Note_on_c, 0, 55, 60
2, 39336, Note_on_c, 0, 52, 60
2, 39372, Note_on_c, 0, 52, 0
2, 39372, Note_on_c, 0, 55, 0
2, 39372, Note_on_c, 0, 60, 0
2, 39381, Note_on_c, 0, 91, 0
2, 39383, Note_on_c, 0, 72, 0
2, 39383, Note_on_c, 0, 76, 0
2, 39383, Note_on_c, 0, 79, 0
2, 39383, Note_on_c, 0, 84, 0
2, 39449, Note_on_c, 0, 67, 60
2, 39449, Note_on_c, 0, 64, 60
2, 39477, Note_on_c, 0, 64, 0
2, 39479, Note_on_c, 0, 67, 0
2, 39508, Note_on_c, 0, 67, 60
2, 39508, Note_on_c, 0, 64, 60
2, 39534, Note_on_c, 0, 64, 0
2, 39534, Note_on_c, 0, 67, 0
2, 39564, Note_on_c, 0, 67, 60
2, 39564, Note_on_c, 0, 64, 60
2, 39594, Note_on_c, 0, 64, 0
2, 39594, Note_on_c, 0, 67, 0
2, 39686, Note_on_c, 0, 67, 60
2, 39686, Note_on_c, 0, 64, 60
2, 39713, Note_on_c, 0, 64, 0
2, 39713, Note_on_c, 0, 67, 0
2, 39803, Note_on_c, 0, 74, 60
2, 39803, Note_on_c, 0, 77, 60
2, 39803, Note_on_c, 0, 65, 60
2, 39805, Note_on_c, 0, 57, 60
2, 39805, Note_on_c, 0, 41, 60
2, 39831, Note_on_c, 0, 65, 0
2, 39831, Note_on_c, 0, 74, 0
2, 39831, Note_on_c, 0, 77, 0
2, 39831, Control_c, 0, 64, 127
2, 39920, Note_on_c, 0, 76, 60
2, 39920, Note_on_c, 0, 73, 60
2, 39922, Note_on_c, 0, 60, 60
2, 39922, Note_on_c, 0, 64, 60
2, 39922, Note_on_c, 0, 53, 60
2, 39927, Note_on_c, 0, 41, 0
2, 39948, Note_on_c, 0, 53, 0
2, 39959, Note_on_c, 0, 60, 0
2, 39976, Note_on_c, 0, 77, 60
2, 39976, Note_on_c, 0, 74, 60
2, 39978, Note_on_c, 0, 65, 60
2, 39980, Note_on_c, 0, 73, 0
2, 39980, Note_on_c, 0, 76, 0
2, 39980, Note_on_c, 0, 64, 0
2, 40020, Control_c, 0, 64, 0
2, 40037, Note_on_c, 0, 45, 60
2, 40091, Note_on_c, 0, 73, 60
2, 40091, Note_on_c, 0, 76, 60
2, 40091, Note_on_c, 0, 64, 60
2, 40095, Note_on_c, 0, 77, 0
2, 40095, Note_on_c, 0, 65, 0
2, 40095, Note_on_c, 0, 74, 0
2, 40144, Note_on_c, 0, 74, 60
2, 40147, Note_on_c, 0, 65, 60
2, 40147, Note_on_c, 0, 77, 60
2, 40147, Note_on_c, 0, 60, 60
2, 40149, Note_on_c, 0, 53, 60
2, 40151, Note_on_c, 0, 73, 0
2, 40151, Note_on_c, 0, 64, 0
2, 40151, Note_on_c, 0, 76, 0
2, 40152, Note_on_c, 0, 45, 0
2, 40172, Note_on_c, 0, 65, 0
2, 40172, Note_on_c, 0, 77, 0
2, 40172, Note_on_c, 0, 53, 0
2, 40172, Note_on_c, 0, 74, 0
2, 40174, Note_on_c, 0, 60, 0
2, 40264, Note_on_c, 0, 41, 60
2, 40320, Note_on_c, 0, 93, 60
2, 40374, Note_on_c, 0, 98, 60
2, 40379, Note_on_c, 0, 93, 0
2, 40379, Note_on_c, 0, 60, 60
2, 40379, Note_on_c, 0, 53, 60
2, 40381, Note_on_c, 0, 41, 0
2, 40404, Note_on_c, 0, 60, 0
2, 40404, Note_on_c, 0, 53, 0
2, 40435, Note_on_c, 0, 93, 60
2, 40437, Note_on_c, 0, 98, 0
2, 40492, Note_on_c, 0, 96, 60
2, 40494, Note_on_c, 0, 45, 60
2, 40496, Note_on_c, 0, 93, 0
2, 40550, Note_on_c, 0, 98, 60
2, 40554, Note_on_c, 0, 96, 0
2, 40608, Note_on_c, 0, 96, 60
2, 40609, Note_on_c, 0, 60, 60
2, 40611, Note_on_c, 0, 98, 0
2, 40611, Note_on_c, 0, 53, 60
2, 40613, Note_on_c, 0, 45, 0
2, 40637, Note_on_c, 0, 60, 0
2, 40637, Note_on_c, 0, 53, 0
2, 40665, Note_on_c, 0, 93, 60
2, 40669, Note_on_c, 0, 96, 0
2, 40718, Note_on_c, 0, 57, 0
2, 40725, Note_on_c, 0, 67, 60
2, 40725, Note_on_c, 0, 76, 60
2, 40725, Note_on_c, 0, 79, 60
2, 40725, Note_on_c, 0, 55, 60
2, 40727, Note_on_c, 0, 93, 0
2, 40727, Note_on_c, 0, 48, 60
2, 40752, Note_on_c, 0, 79, 0
2, 40752, Note_on_c, 0, 67, 0
2, 40752, Note_on_c, 0, 76, 0
2, 40765, Control_c, 0, 64, 127
2, 40844, Note_on_c, 0, 78, 60
2, 40844, Note_on_c, 0, 75, 60
2, 40846, Note_on_c, 0, 60, 60
2, 40846, Note_on_c, 0, 66, 60
2, 40846, Note_on_c, 0, 52, 60
2, 40850, Note_on_c, 0, 48, 0
2, 40873, Note_on_c, 0, 60, 0
2, 40876, Note_on_c, 0, 52, 0
2, 40901, Note_on_c, 0, 79, 60
2, 40903, Note_on_c, 0, 76, 60
2, 40903, Note_on_c, 0, 67, 60
2, 40906, Note_on_c, 0, 75, 0
2, 40908, Note_on_c, 0, 66, 0
2, 40908, Note_on_c, 0, 78, 0
2, 40955, Control_c, 0, 64, 0
2, 40964, Note_on_c, 0, 43, 60
2, 41016, Note_on_c, 0, 75, 60
2, 41016, Note_on_c, 0, 78, 60
2, 41016, Note_on_c, 0, 66, 60
2, 41018, Note_on_c, 0, 79, 0
2, 41021, Note_on_c, 0, 67, 0
2, 41021, Note_on_c, 0, 76, 0
2, 41076, Note_on_c, 0, 67, 60
2, 41076, Note_on_c, 0, 76, 60
2, 41076, Note_on_c, 0, 79, 60
2, 41076, Note_on_c, 0, 60, 60
2, 41079, Note_on_c, 0, 52, 60
2, 41081, Note_on_c, 0, 75, 0
2, 41081, Note_on_c, 0, 66, 0
2, 41081, Note_on_c, 0, 43, 0
2, 41081, Note_on_c, 0, 78, 0
2, 41104, Note_on_c, 0, 76, 0
2, 41104, Note_on_c, 0, 79, 0
2, 41104, Note_on_c, 0, 52, 0
2, 41104, Note_on_c, 0, 60, 0
2, 41104, Note_on_c, 0, 67, 0
2, 41198, Note_on_c, 0, 48, 60
2, 41256, Note_on_c, 0, 96, 60
2, 41315, Note_on_c, 0, 100, 60
2, 41318, Note_on_c, 0, 60, 60
2, 41320, Note_on_c, 0, 96, 0
2, 41320, Note_on_c, 0, 52, 60
2, 41324, Note_on_c, 0, 48, 0
2, 41348, Note_on_c, 0, 60, 0
2, 41348, Note_on_c, 0, 52, 0
2, 41376, Note_on_c, 0, 96, 60
2, 41377, Note_on_c, 0, 100, 0
2, 41430, Note_on_c, 0, 98, 60
2, 41435, Note_on_c, 0, 96, 0
2, 41435, Note_on_c, 0, 43, 60
2, 41488, Note_on_c, 0, 100, 60
2, 41493, Note_on_c, 0, 98, 0
2, 41545, Note_on_c, 0, 98, 60
2, 41550, Note_on_c, 0, 100, 0
2, 41550, Note_on_c, 0, 60, 60
2, 41550, Note_on_c, 0, 52, 60
2, 41554, Note_on_c, 0, 43, 0
2, 41575, Note_on_c, 0, 60, 0
2, 41575, Note_on_c, 0, 52, 0
2, 41603, Note_on_c, 0, 96, 60
2, 41608, Note_on_c, 0, 98, 0
2, 41664, Note_on_c, 0, 77, 60
2, 41664, Note_on_c, 0, 81, 60
2, 41664, Note_on_c, 0, 72, 60
2, 41665, Note_on_c, 0, 69, 60
2, 41665, Note_on_c, 0, 41, 60
2, 41667, Note_on_c, 0, 96, 0
2, 41669, Note_on_c, 0, 55, 0
2, 41678, Control_c, 0, 64, 127
2, 41721, Note_on_c, 0, 80, 60
2, 41721, Note_on_c, 0, 68, 60
2, 41725, Note_on_c, 0, 77, 0
2, 41725, Note_on_c, 0, 81, 0
2, 41725, Note_on_c, 0, 69, 0
2, 41727, Note_on_c, 0, 72, 0
2, 41763, Control_c, 0, 64, 0
2, 41779, Note_on_c, 0, 72, 60
2, 41779, Note_on_c, 0, 77, 60
2, 41779, Note_on_c, 0, 81, 60
2, 41779, Note_on_c, 0, 69, 60
2, 41781, Note_on_c, 0, 53, 60
2, 41781, Note_on_c, 0, 57, 60
2, 41781, Note_on_c, 0, 50, 60
2, 41783, Note_on_c, 0, 68, 0
2, 41783, Note_on_c, 0, 80, 0
2, 41784, Note_on_c, 0, 41, 0
2, 41806, Note_on_c, 0, 81, 0
2, 41808, Note_on_c, 0, 53, 0
2, 41808, Note_on_c, 0, 57, 0
2, 41808, Note_on_c, 0, 50, 0
2, 41836, Note_on_c, 0, 81, 60
2, 41836, Note_on_c, 0, 84, 60
2, 41836, Note_on_c, 0, 91, 60
2, 41836, Note_on_c, 0, 79, 60
2, 41840, Note_on_c, 0, 69, 0
2, 41840, Note_on_c, 0, 77, 0
2, 41840, Note_on_c, 0, 72, 0
2, 41896, Note_on_c, 0, 41, 60
2, 41919, Control_c, 0, 64, 127
2, 41921, Note_on_c, 0, 81, 0
2, 41953, Note_on_c, 0, 81, 60
2, 41953, Note_on_c, 0, 89, 60
2, 41953, Note_on_c, 0, 77, 60
2, 41955, Note_on_c, 0, 91, 0
2, 41957, Note_on_c, 0, 84, 0
2, 41957, Note_on_c, 0, 79, 0
2, 42006, Control_c, 0, 64, 0
2, 42013, Note_on_c, 0, 57, 60
2, 42013, Note_on_c, 0, 60, 60
2, 42013, Note_on_c, 0, 53, 60
2, 42017, Note_on_c, 0, 41, 0
2, 42025, Note_on_c, 0, 81, 0
2, 42039, Note_on_c, 0, 60, 0
2, 42039, Note_on_c, 0, 57, 0
2, 42039, Note_on_c, 0, 53, 0
2, 42049, Note_on_c, 0, 77, 0
2, 42049, Note_on_c, 0, 89, 0
2, 42069, Note_on_c, 0, 81, 60
2, 42069, Note_on_c, 0, 84, 60
2, 42069, Note_on_c, 0, 72, 60
2, 42098, Note_on_c, 0, 84, 0
2, 42128, Note_on_c, 0, 88, 60
2, 42130, Note_on_c, 0, 79, 60
2, 42130, Note_on_c, 0, 84, 60
2, 42130, Note_on_c, 0, 76, 60
2, 42132, Note_on_c, 0, 81, 0
2, 42132, Note_on_c, 0, 43, 60
2, 42135, Note_on_c, 0, 72, 0
2, 42168, Control_c, 0, 64, 127
2, 42188, Note_on_c, 0, 87, 60
2, 42190, Note_on_c, 0, 75, 60
2, 42192, Note_on_c, 0, 88, 0
2, 42192, Note_on_c, 0, 79, 0
2, 42192, Note_on_c, 0, 84, 0
2, 42192, Note_on_c, 0, 76, 0
2, 42220, Control_c, 0, 64, 0
2, 42247, Note_on_c, 0, 76, 60
2, 42247, Note_on_c, 0, 79, 60
2, 42247, Note_on_c, 0, 84, 60
2, 42247, Note_on_c, 0, 88, 60
2, 42247, Note_on_c, 0, 55, 60
2, 42250, Note_on_c, 0, 64, 60
2, 42250, Note_on_c, 0, 60, 60
2, 42252, Note_on_c, 0, 87, 0
2, 42252, Note_on_c, 0, 75, 0
2, 42254, Note_on_c, 0, 43, 0
2, 42275, Note_on_c, 0, 55, 0
2, 42275, Note_on_c, 0, 60, 0
2, 42290, Note_on_c, 0, 64, 0
2, 42310, Note_on_c, 0, 87, 60
2, 42310, Note_on_c, 0, 90, 60
2, 42310, Note_on_c, 0, 93, 60
2, 42310, Note_on_c, 0, 81, 60
2, 42313, Note_on_c, 0, 76, 0
2, 42313, Note_on_c, 0, 84, 0
2, 42313, Note_on_c, 0, 88, 0
2, 42313, Note_on_c, 0, 79, 0
2, 42369, Note_on_c, 0, 60, 60
2, 42369, Note_on_c, 0, 63, 60
2, 42369, Note_on_c, 0, 54, 60
2, 42371, Note_on_c, 0, 81, 0
2, 42371, Note_on_c, 0, 90, 0
2, 42371, Note_on_c, 0, 43, 60
2, 42374, Note_on_c, 0, 87, 0
2, 42384, Control_c, 0, 64, 127
2, 42427, Note_on_c, 0, 84, 60
2, 42429, Note_on_c, 0, 72, 60
2, 42432, Note_on_c, 0, 93, 0
2, 42444, Note_on_c, 0, 60, 0
2, 42467, Control_c, 0, 64, 0
2, 42478, Note_on_c, 0, 63, 0
2, 42478, Note_on_c, 0, 54, 0
2, 42484, Note_on_c, 0, 60, 60
2, 42484, Note_on_c, 0, 64, 60
2, 42484, Note_on_c, 0, 67, 60
2, 42484, Note_on_c, 0, 79, 60
2, 42484, Note_on_c, 0, 55, 60
2, 42486, Note_on_c, 0, 72, 0
2, 42486, Note_on_c, 0, 84, 0
2, 42512, Note_on_c, 0, 64, 0
2, 42542, Note_on_c, 0, 76, 60
2, 42544, Note_on_c, 0, 64, 60
2, 42547, Note_on_c, 0, 67, 0
2, 42547, Note_on_c, 0, 79, 0
2, 42598, Note_on_c, 0, 72, 60
2, 42600, Note_on_c, 0, 57, 60
2, 42600, Note_on_c, 0, 66, 60
2, 42600, Note_on_c, 0, 45, 60
2, 42601, Note_on_c, 0, 76, 0
2, 42601, Note_on_c, 0, 60, 0
2, 42601, Note_on_c, 0, 64, 0
2, 42604, Note_on_c, 0, 43, 0
2, 42604, Note_on_c, 0, 55, 0
2, 42624, Note_on_c, 0, 66, 0
2, 42624, Note_on_c, 0, 72, 0
2, 42624, Control_c, 0, 64, 127
2, 42672, Control_c, 0, 64, 0
2, 42721, Note_on_c, 0, 72, 60
2, 42723, Note_on_c, 0, 50, 60
2, 42723, Note_on_c, 0, 66, 60
2, 42723, Note_on_c, 0, 38, 60
2, 42730, Note_on_c, 0, 45, 0
2, 42730, Note_on_c, 0, 57, 0
2, 42749, Note_on_c, 0, 66, 0
2, 42749, Note_on_c, 0, 72, 0
2, 42760, Control_c, 0, 64, 127
2, 42845, Control_c, 0, 64, 0
2, 42862, Note_on_c, 0, 55, 60
2, 42862, Note_on_c, 0, 65, 60
2, 42862, Note_on_c, 0, 76, 60
2, 42862, Note_on_c, 0, 43, 60
2, 42864, Note_on_c, 0, 50, 0
2, 42866, Note_on_c, 0, 38, 0
2, 42896, Control_c, 0, 64, 127
2, 42898, Note_on_c, 0, 65, 0
2, 42928, Note_on_c, 0, 74, 60
2, 42931, Note_on_c, 0, 65, 60
2, 42933, Note_on_c, 0, 76, 0
2, 42980, Control_c, 0, 64, 0
2, 43011, Note_on_c, 0, 59, 60
2, 43011, Note_on_c, 0, 47, 60
2, 43013, Note_on_c, 0, 55, 0
2, 43013, Note_on_c, 0, 43, 0
2, 43092, Note_on_c, 0, 72, 60
2, 43092, Note_on_c, 0, 64, 60
2, 43095, Note_on_c, 0, 74, 0
2, 43097, Note_on_c, 0, 65, 0
2, 43174, Note_on_c, 0, 60, 60
2, 43174, Note_on_c, 0, 48, 60
2, 43176, Note_on_c, 0, 59, 0
2, 43180, Note_on_c, 0, 47, 0
2, 43210, Control_c, 0, 64, 127
2, 43344, Note_on_c, 0, 55, 60
2, 43344, Note_on_c, 0, 43, 60
2, 43346, Note_on_c, 0, 60, 0
2, 43346, Note_on_c, 0, 48, 0
2, 43372, Control_c, 0, 64, 0
2, 43468, Note_on_c, 0, 64, 0
2, 43470, Note_on_c, 0, 72, 0
2, 43509, Note_on_c, 0, 79, 60
2, 43509, Note_on_c, 0, 84, 60
2, 43509, Note_on_c, 0, 76, 60
2, 43511, Note_on_c, 0, 48, 60
2, 43511, Note_on_c, 0, 36, 60
2, 43512, Note_on_c, 0, 43, 0
2, 43512, Note_on_c, 0, 55, 0
2, 43536, Control_c, 0, 64, 127
2, 43677, Note_on_c, 0, 84, 0
2, 43677, Note_on_c, 0, 76, 0
2, 43677, Note_on_c, 0, 79, 0
2, 43680, Note_on_c, 0, 36, 0
2, 43680, Note_on_c, 0, 48, 0
2, 43802, Control_c, 0, 64, 0
2, 43841, Note_on_c, 0, 62, 60
2, 43912, Note_on_c, 0, 63, 60
2, 43914, Note_on_c, 0, 62, 0
2, 43984, Note_on_c, 0, 64, 60
2, 43984, Note_on_c, 0, 48, 60
2, 43987, Note_on_c, 0, 63, 0
2, 43994, Control_c, 0, 64, 127
2, 44036, Note_on_c, 0, 48, 0
2, 44055, Note_on_c, 0, 72, 60
2, 44059, Note_on_c, 0, 64, 0
2, 44083, Note_on_c, 0, 72, 0
2, 44085, Control_c, 0, 64, 0
2, 44123, Note_on_c, 0, 60, 60
2, 44123, Note_on_c, 0, 55, 60
2, 44148, Note_on_c, 0, 55, 0
2, 44148, Note_on_c, 0, 60, 0
2, 44189, Note_on_c, 0, 64, 60
2, 44259, Note_on_c, 0, 72, 60
2, 44259, Note_on_c, 0, 43, 60
2, 44263, Note_on_c, 0, 64, 0
2, 44272, Control_c, 0, 64, 127
2, 44310, Note_on_c, 0, 43, 0
2, 44310, Note_on_c, 0, 72, 0
2, 44394, Control_c, 0, 64, 0
2, 44398, Note_on_c, 0, 64, 60
2, 44400, Note_on_c, 0, 58, 60
2, 44400, Note_on_c, 0, 55, 60
2, 44425, Note_on_c, 0, 55, 0
2, 44425, Note_on_c, 0, 58, 0
2, 44467, Note_on_c, 0, 72, 60
2, 44471, Note_on_c, 0, 64, 0
2, 44539, Note_on_c, 0, 41, 60
2, 44551, Control_c, 0, 64, 127
2, 44588, Note_on_c, 0, 41, 0
2, 44675, Control_c, 0, 64, 0
2, 44692, Note_on_c, 0, 60, 60
2, 44692, Note_on_c, 0, 57, 60
2, 44731, Note_on_c, 0, 57, 0
2, 44731, Note_on_c, 0, 60, 0
2, 44855, Note_on_c, 0, 40, 60
2, 44867, Control_c, 0, 64, 127
2, 44870, Note_on_c, 0, 72, 0
2, 44893, Note_on_c, 0, 40, 0
2, 44912, Note_on_c, 0, 76, 60
2, 44912, Note_on_c, 0, 84, 60
2, 44912, Note_on_c, 0, 72, 60
2, 44952, Control_c, 0, 64, 0
2, 44970, Note_on_c, 0, 77, 60
2, 44970, Note_on_c, 0, 86, 60
2, 44970, Note_on_c, 0, 74, 60
2, 44972, Note_on_c, 0, 60, 60
2, 44972, Note_on_c, 0, 55, 60
2, 44974, Note_on_c, 0, 84, 0
2, 44974, Note_on_c, 0, 76, 0
2, 44976, Note_on_c, 0, 72, 0
2, 45008, Note_on_c, 0, 55, 0
2, 45008, Note_on_c, 0, 60, 0
2, 45027, Note_on_c, 0, 78, 60
2, 45027, Note_on_c, 0, 87, 60
2, 45027, Note_on_c, 0, 75, 60
2, 45029, Note_on_c, 0, 74, 0
2, 45029, Note_on_c, 0, 86, 0
2, 45031, Note_on_c, 0, 77, 0
2, 45085, Note_on_c, 0, 76, 60
2, 45085, Note_on_c, 0, 79, 60
2, 45085, Note_on_c, 0, 88, 60
2, 45085, Note_on_c, 0, 43, 60
2, 45087, Note_on_c, 0, 78, 0
2, 45087, Note_on_c, 0, 87, 0
2, 45087, Note_on_c, 0, 75, 0
2, 45108, Control_c, 0, 64, 127
2, 45111, Note_on_c, 0, 76, 0
2, 45134, Note_on_c, 0, 43, 0
2, 45141, Note_on_c, 0, 76, 60
2, 45141, Note_on_c, 0, 84, 60
2, 45141, Note_on_c, 0, 72, 60
2, 45143, Note_on_c, 0, 88, 0
2, 45143, Note_on_c, 0, 79, 0
2, 45188, Control_c, 0, 64, 0
2, 45193, Note_on_c, 0, 60, 60
2, 45193, Note_on_c, 0, 74, 60
2, 45193, Note_on_c, 0, 77, 60
2, 45193, Note_on_c, 0, 86, 60
2, 45193, Note_on_c, 0, 52, 60
2, 45198, Note_on_c, 0, 84, 0
2, 45198, Note_on_c, 0, 72, 0
2, 45198, Note_on_c, 0, 76, 0
2, 45219, Note_on_c, 0, 60, 0
2, 45219, Note_on_c, 0, 52, 0
2, 45251, Note_on_c, 0, 88, 60
2, 45251, Note_on_c, 0, 79, 60
2, 45254, Note_on_c, 0, 76, 60
2, 45256, Note_on_c, 0, 77, 0
2, 45256, Note_on_c, 0, 74, 0
2, 45256, Note_on_c, 0, 86, 0
2, 45312, Note_on_c, 0, 43, 60
2, 45345, Control_c, 0, 64, 127
2, 45358, Note_on_c, 0, 43, 0
2, 45364, Note_on_c, 0, 83, 60
2, 45364, Note_on_c, 0, 74, 60
2, 45366, Note_on_c, 0, 71, 60
2, 45369, Note_on_c, 0, 76, 0
2, 45369, Note_on_c, 0, 88, 0
2, 45369, Note_on_c, 0, 79, 0
2, 45390, Note_on_c, 0, 74, 0
2, 45392, Control_c, 0, 64, 0
2, 45422, Note_on_c, 0, 74, 60
2, 45422, Note_on_c, 0, 77, 60
2, 45422, Note_on_c, 0, 86, 60
2, 45422, Note_on_c, 0, 59, 60
2, 45424, Note_on_c, 0, 55, 60
2, 45427, Note_on_c, 0, 71, 0
2, 45427, Note_on_c, 0, 83, 0
2, 45460, Note_on_c, 0, 59, 0
2, 45460, Note_on_c, 0, 55, 0
2, 45484, Note_on_c, 0, 77, 0
2, 45484, Note_on_c, 0, 86, 0
2, 45484, Note_on_c, 0, 74, 0
2, 45535, Note_on_c, 0, 72, 60
2, 45537, Note_on_c, 0, 76, 60
2, 45537, Note_on_c, 0, 84, 60
2, 45537, Note_on_c, 0, 36, 60
2, 45588, Control_c, 0, 64, 127
2, 45591, Note_on_c, 0, 36, 0
2, 45670, Note_on_c, 0, 55, 60
2, 45670, Note_on_c, 0, 60, 60
2, 45670, Note_on_c, 0, 52, 60
2, 45710, Note_on_c, 0, 52, 0
2, 45710, Note_on_c, 0, 55, 0
2, 45710, Note_on_c, 0, 60, 0
2, 45815, Control_c, 0, 64, 0
2, 45823, Note_on_c, 0, 55, 60
2, 45823, Note_on_c, 0, 60, 60
2, 45823, Note_on_c, 0, 52, 60
2, 45864, Note_on_c, 0, 52, 0
2, 45864, Note_on_c, 0, 55, 0
2, 45864, Note_on_c, 0, 60, 0
2, 45991, Note_on_c, 0, 59, 60
2, 45991, Note_on_c, 0, 62, 60
2, 45991, Note_on_c, 0, 55, 60
2, 45994, Note_on_c, 0, 84, 0
2, 45994, Note_on_c, 0, 76, 0
2, 45996, Note_on_c, 0, 72, 0
2, 46032, Note_on_c, 0, 59, 0
2, 46032, Note_on_c, 0, 55, 0
2, 46064, Note_on_c, 0, 63, 60
2, 46068, Note_on_c, 0, 62, 0
2, 46137, Note_on_c, 0, 64, 60
2, 46137, Note_on_c, 0, 48, 60
2, 46141, Note_on_c, 0, 63, 0
2, 46160, Control_c, 0, 64, 127
2, 46188, Note_on_c, 0, 48, 0
2, 46207, Note_on_c, 0, 72, 60
2, 46211, Note_on_c, 0, 64, 0
2, 46248, Note_on_c, 0, 72, 0
2, 46248, Control_c, 0, 64, 0
2, 46279, Note_on_c, 0, 60, 60
2, 46279, Note_on_c, 0, 55, 60
2, 46307, Note_on_c, 0, 55, 0
2, 46307, Note_on_c, 0, 60, 0
2, 46352, Note_on_c, 0, 64, 60
2, 46422, Note_on_c, 0, 72, 60
2, 46422, Note_on_c, 0, 43, 60
2, 46425, Note_on_c, 0, 64, 0
2, 46446, Control_c, 0, 64, 127
2, 46450, Note_on_c, 0, 72, 0
2, 46471, Note_on_c, 0, 43, 0
2, 46529, Control_c, 0, 64, 0
2, 46561, Note_on_c, 0, 58, 60
2, 46561, Note_on_c, 0, 64, 60
2, 46561, Note_on_c, 0, 55, 60
2, 46584, Note_on_c, 0, 55, 0
2, 46584, Note_on_c, 0, 58, 0
2, 46628, Note_on_c, 0, 72, 60
2, 46632, Note_on_c, 0, 64, 0
2, 46706, Note_on_c, 0, 41, 60
2, 46717, Control_c, 0, 64, 127
2, 46764, Note_on_c, 0, 41, 0
2, 46820, Note_on_c, 0, 60, 60
2, 46820, Note_on_c, 0, 57, 60
2, 46824, Control_c, 0, 64, 0
2, 46845, Note_on_c, 0, 60, 0
2, 46848, Note_on_c, 0, 57, 0
2, 46937, Note_on_c, 0, 40, 60
2, 46939, Note_on_c, 0, 52, 60
2, 46975, Note_on_c, 0, 52, 0
2, 46975, Note_on_c, 0, 40, 0
2, 46984, Control_c, 0, 64, 127
2, 47009, Note_on_c, 0, 72, 0
2, 47035, Control_c, 0, 64, 0
2, 47052, Note_on_c, 0, 72, 60
2, 47054, Note_on_c, 0, 51, 60
2, 47054, Note_on_c, 0, 69, 60
2, 47054, Note_on_c, 0, 81, 60
2, 47054, Note_on_c, 0, 39, 60
2, 47112, Note_on_c, 0, 79, 60
2, 47116, Note_on_c, 0, 81, 0
2, 47116, Note_on_c, 0, 69, 0
2, 47116, Note_on_c, 0, 72, 0
2, 47116, Note_on_c, 0, 51, 0
2, 47118, Note_on_c, 0, 39, 0
2, 47174, Note_on_c, 0, 72, 60
2, 47174, Note_on_c, 0, 78, 60
2, 47174, Note_on_c, 0, 66, 60
2, 47176, Note_on_c, 0, 50, 60
2, 47176, Note_on_c, 0, 38, 60
2, 47178, Note_on_c, 0, 79, 0
2, 47199, Control_c, 0, 64, 127
2, 47232, Note_on_c, 0, 81, 60
2, 47232, Note_on_c, 0, 69, 60
2, 47235, Note_on_c, 0, 78, 0
2, 47235, Note_on_c, 0, 50, 0
2, 47235, Note_on_c, 0, 72, 0
2, 47235, Note_on_c, 0, 66, 0
2, 47235, Note_on_c, 0, 38, 0
2, 47248, Control_c, 0, 64, 0
2, 47289, Note_on_c, 0, 57, 60
2, 47289, Note_on_c, 0, 60, 60
2, 47289, Note_on_c, 0, 72, 60
2, 47289, Note_on_c, 0, 76, 60
2, 47289, Note_on_c, 0, 84, 60
2, 47289, Note_on_c, 0, 54, 60
2, 47293, Note_on_c, 0, 69, 0
2, 47293, Note_on_c, 0, 81, 0
2, 47314, Note_on_c, 0, 76, 0
2, 47347, Note_on_c, 0, 78, 60
2, 47347, Note_on_c, 0, 88, 60
2, 47347, Note_on_c, 0, 76, 60
2, 47349, Note_on_c, 0, 60, 0
2, 47349, Note_on_c, 0, 54, 0
2, 47349, Note_on_c, 0, 72, 0
2, 47349, Note_on_c, 0, 84, 0
2, 47351, Note_on_c, 0, 57, 0
2, 47406, Note_on_c, 0, 50, 60
2, 47408, Control_c, 0, 64, 127
2, 47421, Note_on_c, 0, 78, 0
2, 47464, Note_on_c, 0, 78, 60
2, 47464, Note_on_c, 0, 86, 60
2, 47464, Note_on_c, 0, 74, 60
2, 47468, Note_on_c, 0, 76, 0
2, 47468, Note_on_c, 0, 50, 0
2, 47468, Note_on_c, 0, 88, 0
2, 47478, Note_on_c, 0, 78, 0
2, 47517, Note_on_c, 0, 72, 60
2, 47521, Note_on_c, 0, 60, 60
2, 47521, Note_on_c, 0, 62, 60
2, 47521, Note_on_c, 0, 66, 60
2, 47521, Note_on_c, 0, 78, 60
2, 47521, Note_on_c, 0, 84, 60
2, 47521, Note_on_c, 0, 57, 60
2, 47523, Note_on_c, 0, 86, 0
2, 47523, Note_on_c, 0, 74, 0
2, 47536, Note_on_c, 0, 78, 0
2, 47579, Note_on_c, 0, 78, 60
2, 47579, Note_on_c, 0, 81, 60
2, 47579, Note_on_c, 0, 69, 60
2, 47583, Note_on_c, 0, 66, 0
2, 47583, Note_on_c, 0, 84, 0
2, 47583, Note_on_c, 0, 57, 0
2, 47583, Note_on_c, 0, 62, 0
2, 47583, Note_on_c, 0, 72, 0
2, 47583, Note_on_c, 0, 60, 0
2, 47596, Control_c, 0, 64, 0
2, 47635, Note_on_c, 0, 77, 60
2, 47635, Note_on_c, 0, 86, 60
2, 47635, Note_on_c, 0, 74, 60
2, 47637, Note_on_c, 0, 59, 60
2, 47637, Note_on_c, 0, 62, 60
2, 47637, Note_on_c, 0, 65, 60
2, 47637, Note_on_c, 0, 55, 60
2, 47639, Note_on_c, 0, 69, 0
2, 47639, Note_on_c, 0, 78, 0
2, 47639, Note_on_c, 0, 81, 0
2, 47707, Note_on_c, 0, 65, 0
2, 47707, Note_on_c, 0, 62, 0
2, 47707, Note_on_c, 0, 55, 0
2, 47707, Note_on_c, 0, 59, 0
2, 47771, Note_on_c, 0, 55, 60
2, 47771, Note_on_c, 0, 43, 60
2, 47782, Control_c, 0, 64, 127
2, 47843, Note_on_c, 0, 43, 0
2, 47854, Note_on_c, 0, 55, 0
2, 47867, Control_c, 0, 64, 0
2, 47907, Note_on_c, 0, 57, 60
2, 47907, Note_on_c, 0, 45, 60
2, 47967, Control_c, 0, 64, 127
2, 48026, Control_c, 0, 64, 0
2, 48044, Note_on_c, 0, 62, 60
2, 48044, Note_on_c, 0, 59, 60
2, 48046, Note_on_c, 0, 86, 0
2, 48046, Note_on_c, 0, 47, 60
2, 48048, Note_on_c, 0, 45, 0
2, 48048, Note_on_c, 0, 77, 0
2, 48048, Note_on_c, 0, 57, 0
2, 48048, Note_on_c, 0, 74, 0
2, 48108, Note_on_c, 0, 59, 0
2, 48108, Note_on_c, 0, 47, 0
2, 48108, Note_on_c, 0, 62, 0
2, 48119, Note_on_c, 0, 63, 60
2, 48193, Note_on_c, 0, 64, 60
2, 48195, Note_on_c, 0, 48, 60
2, 48197, Note_on_c, 0, 63, 0
2, 48232, Control_c, 0, 64, 127
2, 48246, Note_on_c, 0, 48, 0
2, 48265, Note_on_c, 0, 72, 60
2, 48270, Note_on_c, 0, 64, 0
2, 48293, Note_on_c, 0, 72, 0
2, 48317, Control_c, 0, 64, 0
2, 48336, Note_on_c, 0, 60, 60
2, 48336, Note_on_c, 0, 55, 60
2, 48375, Note_on_c, 0, 55, 0
2, 48377, Note_on_c, 0, 60, 0
2, 48410, Note_on_c, 0, 64, 60
2, 48481, Note_on_c, 0, 72, 60
2, 48485, Note_on_c, 0, 43, 60
2, 48485, Control_c, 0, 64, 127
2, 48487, Note_on_c, 0, 64, 0
2, 48511, Note_on_c, 0, 72, 0
2, 48534, Note_on_c, 0, 43, 0
2, 48609, Control_c, 0, 64, 0
2, 48626, Note_on_c, 0, 58, 60
2, 48626, Note_on_c, 0, 64, 60
2, 48626, Note_on_c, 0, 55, 60
2, 48652, Note_on_c, 0, 55, 0
2, 48654, Note_on_c, 0, 58, 0
2, 48696, Note_on_c, 0, 72, 60
2, 48701, Note_on_c, 0, 64, 0
2, 48780, Note_on_c, 0, 41, 60
2, 48803, Control_c, 0, 64, 127
2, 48818, Control_c, 0, 64, 0
2, 48829, Note_on_c, 0, 41, 0
2, 48861, Control_c, 0, 64, 127
2, 48878, Control_c, 0, 64, 0
2, 48897, Note_on_c, 0, 60, 60
2, 48897, Note_on_c, 0, 57, 60
2, 48944, Note_on_c, 0, 57, 0
2, 48944, Note_on_c, 0, 60, 0
2, 49010, Note_on_c, 0, 40, 60
2, 49010, Control_c, 0, 64, 127
2, 49025, Note_on_c, 0, 72, 0
2, 49063, Note_on_c, 0, 84, 60
2, 49063, Note_on_c, 0, 76, 60
2, 49066, Note_on_c, 0, 72, 60
2, 49070, Note_on_c, 0, 40, 0
2, 49094, Control_c, 0, 64, 0
2, 49121, Note_on_c, 0, 86, 60
2, 49121, Note_on_c, 0, 74, 60
2, 49124, Note_on_c, 0, 60, 60
2, 49124, Note_on_c, 0, 77, 60
2, 49124, Note_on_c, 0, 55, 60
2, 49126, Note_on_c, 0, 84, 0
2, 49126, Note_on_c, 0, 72, 0
2, 49126, Note_on_c, 0, 76, 0
2, 49159, Note_on_c, 0, 55, 0
2, 49159, Note_on_c, 0, 60, 0
2, 49178, Note_on_c, 0, 78, 60
2, 49178, Note_on_c, 0, 87, 60
2, 49178, Note_on_c, 0, 75, 60
2, 49183, Note_on_c, 0, 86, 0
2, 49183, Note_on_c, 0, 77, 0
2, 49183, Note_on_c, 0, 74, 0
2, 49234, Note_on_c, 0, 88, 60
2, 49236, Note_on_c, 0, 76, 60
2, 49236, Note_on_c, 0, 79, 60
2, 49236, Note_on_c, 0, 43, 60
2, 49239, Note_on_c, 0, 78, 0
2, 49239, Note_on_c, 0, 75, 0
2, 49239, Note_on_c, 0, 87, 0
2, 49249, Note_on_c, 0, 76, 0
2, 49251, Control_c, 0, 64, 127
2, 49288, Note_on_c, 0, 43, 0
2, 49292, Note_on_c, 0, 84, 60
2, 49292, Note_on_c, 0, 76, 60
2, 49294, Note_on_c, 0, 72, 60
2, 49296, Note_on_c, 0, 79, 0
2, 49296, Note_on_c, 0, 88, 0
2, 49335, Control_c, 0, 64, 0
2, 49347, Note_on_c, 0, 86, 60
2, 49347, Note_on_c, 0, 74, 60
2, 49349, Note_on_c, 0, 60, 60
2, 49349, Note_on_c, 0, 77, 60
2, 49349, Note_on_c, 0, 52, 60
2, 49351, Note_on_c, 0, 76, 0
2, 49351, Note_on_c, 0, 72, 0
2, 49351, Note_on_c, 0, 84, 0
2, 49377, Note_on_c, 0, 60, 0
2, 49379, Note_on_c, 0, 52, 0
2, 49407, Note_on_c, 0, 88, 60
2, 49409, Note_on_c, 0, 79, 60
2, 49409, Note_on_c, 0, 76, 60
2, 49412, Note_on_c, 0, 86, 0
2, 49412, Note_on_c, 0, 74, 0
2, 49412, Note_on_c, 0, 77, 0
2, 49463, Control_c, 0, 64, 127
2, 49473, Note_on_c, 0, 43, 60
2, 49529, Note_on_c, 0, 74, 60
2, 49529, Note_on_c, 0, 83, 60
2, 49529, Note_on_c, 0, 71, 60
2, 49531, Note_on_c, 0, 88, 0
2, 49533, Note_on_c, 0, 76, 0
2, 49533, Note_on_c, 0, 79, 0
2, 49536, Note_on_c, 0, 43, 0
2, 49555, Note_on_c, 0, 74, 0
2, 49580, Control_c, 0, 64, 0
2, 49584, Note_on_c, 0, 77, 60
2, 49584, Note_on_c, 0, 86, 60
2, 49584, Note_on_c, 0, 74, 60
2, 49586, Note_on_c, 0, 59, 60
2, 49586, Note_on_c, 0, 55, 60
2, 49588, Note_on_c, 0, 83, 0
2, 49588, Note_on_c, 0, 71, 0
2, 49625, Note_on_c, 0, 59, 0
2, 49625, Note_on_c, 0, 55, 0
2, 49633, Note_on_c, 0, 86, 0
2, 49633, Note_on_c, 0, 77, 0
2, 49637, Note_on_c, 0, 74, 0
2, 49700, Note_on_c, 0, 76, 60
2, 49700, Note_on_c, 0, 84, 60
2, 49700, Note_on_c, 0, 72, 60
2, 49704, Note_on_c, 0, 36, 60
2, 49742, Control_c, 0, 64, 127
2, 49801, Note_on_c, 0, 36, 0
2, 49825, Control_c, 0, 64, 0
2, 49853, Note_on_c, 0, 55, 60
2, 49853, Note_on_c, 0, 60, 60
2, 49853, Note_on_c, 0, 52, 60
2, 49949, Note_on_c, 0, 52, 0
2, 49949, Note_on_c, 0, 55, 0
2, 49949, Note_on_c, 0, 60, 0
2, 49949, Control_c, 0, 64, 127
2, 50013, Note_on_c, 0, 64, 60
2, 50016, Note_on_c, 0, 60, 60
2, 50016, Note_on_c, 0, 55, 60
2, 50119, Note_on_c, 0, 84, 0
2, 50119, Note_on_c, 0, 76, 0
2, 50122, Note_on_c, 0, 72, 0
2, 50136, Control_c, 0, 64, 0
2, 50158, Note_on_c, 0, 64, 0
2, 50158, Note_on_c, 0, 55, 0
2, 50158, Note_on_c, 0, 60, 0
2, 50173, Note_on_c, 0, 84, 60
2, 50175, Note_on_c, 0, 76, 60
2, 50175, Note_on_c, 0, 72, 60
2, 50232, Note_on_c, 0, 77, 60
2, 50232, Note_on_c, 0, 86, 60
2, 50232, Note_on_c, 0, 74, 60
2, 50237, Note_on_c, 0, 72, 0
2, 50237, Note_on_c, 0, 84, 0
2, 50237, Note_on_c, 0, 76, 0
2, 50288, Note_on_c, 0, 88, 60
2, 50290, Note_on_c, 0, 79, 60
2, 50290, Note_on_c, 0, 76, 60
2, 50292, Note_on_c, 0, 74, 0
2, 50292, Note_on_c, 0, 86, 0
2, 50292, Note_on_c, 0, 48, 60
2, 50295, Note_on_c, 0, 77, 0
2, 50295, Note_on_c, 0, 36, 60
2, 50305, Note_on_c, 0, 76, 0
2, 50330, Control_c, 0, 64, 127
2, 50346, Note_on_c, 0, 76, 60
2, 50346, Note_on_c, 0, 84, 60
2, 50346, Note_on_c, 0, 72, 60
2, 50348, Note_on_c, 0, 88, 0
2, 50350, Note_on_c, 0, 79, 0
2, 50377, Control_c, 0, 64, 0
2, 50401, Note_on_c, 0, 77, 60
2, 50401, Note_on_c, 0, 86, 60
2, 50401, Note_on_c, 0, 74, 60
2, 50403, Note_on_c, 0, 60, 60
2, 50403, Note_on_c, 0, 64, 60
2, 50403, Note_on_c, 0, 55, 60
2, 50405, Note_on_c, 0, 76, 0
2, 50405, Note_on_c, 0, 84, 0
2, 50410, Note_on_c, 0, 72, 0
2, 50440, Note_on_c, 0, 60, 0
2, 50440, Note_on_c, 0, 55, 0
2, 50440, Note_on_c, 0, 64, 0
2, 50457, Note_on_c, 0, 88, 60
2, 50459, Note_on_c, 0, 79, 60
2, 50459, Note_on_c, 0, 76, 60
2, 50461, Note_on_c, 0, 74, 0
2, 50461, Note_on_c, 0, 86, 0
2, 50463, Note_on_c, 0, 77, 0
2, 50465, Note_on_c, 0, 36, 0
2, 50465, Note_on_c, 0, 48, 0
2, 50520, Note_on_c, 0, 46, 60
2, 50520, Note_on_c, 0, 34, 60
2, 50534, Note_on_c, 0, 79, 0
2, 50536, Control_c, 0, 64, 127
2, 50574, Note_on_c, 0, 79, 60
2, 50574, Note_on_c, 0, 84, 60
2, 50574, Note_on_c, 0, 72, 60
2, 50576, Note_on_c, 0, 88, 0
2, 50578, Note_on_c, 0, 76, 0
2, 50589, Note_on_c, 0, 79, 0
2, 50616, Control_c, 0, 64, 0
2, 50632, Note_on_c, 0, 79, 60
2, 50632, Note_on_c, 0, 86, 60
2, 50632, Note_on_c, 0, 74, 60
2, 50634, Note_on_c, 0, 84, 0
2, 50634, Note_on_c, 0, 60, 60
2, 50634, Note_on_c, 0, 64, 60
2, 50634, Note_on_c, 0, 55, 60
2, 50636, Note_on_c, 0, 72, 0
2, 50646, Note_on_c, 0, 79, 0
2, 50660, Note_on_c, 0, 64, 0
2, 50660, Note_on_c, 0, 55, 0
2, 50660, Note_on_c, 0, 60, 0
2, 50689, Note_on_c, 0, 84, 60
2, 50691, Note_on_c, 0, 79, 60
2, 50691, Note_on_c, 0, 72, 60
2, 50693, Note_on_c, 0, 86, 0
2, 50693, Note_on_c, 0, 74, 0
2, 50747, Note_on_c, 0, 46, 0
2, 50747, Note_on_c, 0, 34, 0
2, 50749, Note_on_c, 0, 81, 60
2, 50749, Note_on_c, 0, 88, 60
2, 50749, Note_on_c, 0, 76, 60
2, 50753, Note_on_c, 0, 79, 0
2, 50753, Note_on_c, 0, 84, 0
2, 50753, Note_on_c, 0, 45, 60
2, 50756, Note_on_c, 0, 72, 0
2, 50756, Note_on_c, 0, 33, 60
2, 50781, Control_c, 0, 64, 127
2, 50807, Note_on_c, 0, 84, 60
2, 50810, Note_on_c, 0, 72, 60
2, 50813, Note_on_c, 0, 88, 0
2, 50813, Note_on_c, 0, 81, 0
2, 50815, Note_on_c, 0, 76, 0
2, 50866, Note_on_c, 0, 74, 60
2, 50866, Note_on_c, 0, 81, 60
2, 50866, Note_on_c, 0, 86, 60
2, 50866, Control_c, 0, 64, 0
2, 50868, Note_on_c, 0, 60, 60
2, 50868, Note_on_c, 0, 65, 60
2, 50868, Note_on_c, 0, 57, 60
2, 50871, Note_on_c, 0, 72, 0
2, 50871, Note_on_c, 0, 84, 0
2, 50906, Note_on_c, 0, 57, 0
2, 50906, Note_on_c, 0, 60, 0
2, 50906, Note_on_c, 0, 65, 0
2, 50924, Note_on_c, 0, 88, 60
2, 50926, Note_on_c, 0, 80, 60
2, 50926, Note_on_c, 0, 76, 60
2, 50928, Note_on_c, 0, 81, 0
2, 50932, Note_on_c, 0, 45, 0
2, 50934, Note_on_c, 0, 33, 0
2, 50941, Note_on_c, 0, 86, 0
2, 50941, Note_on_c, 0, 74, 0
2, 50990, Note_on_c, 0, 44, 60
2, 50990, Note_on_c, 0, 32, 60
2, 51002, Note_on_c, 0, 80, 0
2, 51028, Control_c, 0, 64, 127
2, 51044, Note_on_c, 0, 84, 60
2, 51044, Note_on_c, 0, 80, 60
2, 51048, Note_on_c, 0, 72, 60
2, 51049, Note_on_c, 0, 88, 0
2, 51049, Note_on_c, 0, 76, 0
2, 51060, Note_on_c, 0, 80, 0
2, 51079, Control_c, 0, 64, 0
2, 51103, Note_on_c, 0, 80, 60
2, 51103, Note_on_c, 0, 86, 60
2, 51103, Note_on_c, 0, 74, 60
2, 51105, Note_on_c, 0, 65, 60
2, 51105, Note_on_c, 0, 60, 60
2, 51107, Note_on_c, 0, 84, 0
2, 51107, Note_on_c, 0, 56, 60
2, 51112, Note_on_c, 0, 72, 0
2, 51120, Note_on_c, 0, 80, 0
2, 51133, Note_on_c, 0, 65, 0
2, 51135, Note_on_c, 0, 56, 0
2, 51135, Note_on_c, 0, 60, 0
2, 51163, Note_on_c, 0, 80, 60
2, 51163, Note_on_c, 0, 84, 60
2, 51163, Note_on_c, 0, 72, 60
2, 51165, Note_on_c, 0, 86, 0
2, 51168, Note_on_c, 0, 74, 0
2, 51194, Note_on_c, 0, 44, 0
2, 51194, Note_on_c, 0, 32, 0
2, 51220, Note_on_c, 0, 88, 60
2, 51220, Note_on_c, 0, 79, 60
2, 51222, Note_on_c, 0, 76, 60
2, 51225, Note_on_c, 0, 84, 0
2, 51225, Note_on_c, 0, 80, 0
2, 51225, Note_on_c, 0, 43, 60
2, 51227, Note_on_c, 0, 72, 0
2, 51227, Note_on_c, 0, 31, 60
2, 51240, Control_c, 0, 64, 127
2, 51248, Note_on_c, 0, 76, 0
2, 51290, Note_on_c, 0, 84, 60
2, 51290, Note_on_c, 0, 76, 60
2, 51293, Note_on_c, 0, 72, 60
2, 51295, Note_on_c, 0, 79, 0
2, 51295, Note_on_c, 0, 88, 0
2, 51357, Control_c, 0, 64, 0
2, 51360, Note_on_c, 0, 77, 60
2, 51360, Note_on_c, 0, 86, 60
2, 51360, Note_on_c, 0, 74, 60
2, 51361, Note_on_c, 0, 84, 0
2, 51361, Note_on_c, 0, 60, 60
2, 51361, Note_on_c, 0, 64, 60
2, 51361, Note_on_c, 0, 55, 60
2, 51363, Note_on_c, 0, 76, 0
2, 51365, Note_on_c, 0, 72, 0
2, 51389, Note_on_c, 0, 64, 0
2, 51389, Note_on_c, 0, 60, 0
2, 51389, Note_on_c, 0, 55, 0
2, 51428, Note_on_c, 0, 88, 60
2, 51430, Note_on_c, 0, 79, 60
2, 51430, Note_on_c, 0, 76, 60
2, 51432, Note_on_c, 0, 86, 0
2, 51432, Note_on_c, 0, 74, 0
2, 51432, Note_on_c, 0, 77, 0
2, 51470, Note_on_c, 0, 43, 0
2, 51472, Note_on_c, 0, 31, 0
2, 51502, Note_on_c, 0, 43, 60
2, 51504, Note_on_c, 0, 31, 60
2, 51517, Control_c, 0, 64, 127
2, 51576, Note_on_c, 0, 83, 60
2, 51578, Note_on_c, 0, 74, 60
2, 51578, Note_on_c, 0, 71, 60
2, 51581, Note_on_c, 0, 88, 0
2, 51583, Note_on_c, 0, 76, 0
2, 51583, Note_on_c, 0, 79, 0
2, 51628, Note_on_c, 0, 74, 0
2, 51636, Control_c, 0, 64, 0
2, 51671, Note_on_c, 0, 86, 60
2, 51672, Note_on_c, 0, 77, 60
2, 51672, Note_on_c, 0, 74, 60
2, 51674, Note_on_c, 0, 83, 0
2, 51674, Note_on_c, 0, 55, 60
2, 51674, Note_on_c, 0, 59, 60
2, 51674, Note_on_c, 0, 53, 60
2, 51677, Note_on_c, 0, 71, 0
2, 51700, Note_on_c, 0, 43, 0
2, 51702, Note_on_c, 0, 31, 0
2, 51732, Note_on_c, 0, 86, 0
2, 51735, Note_on_c, 0, 74, 0
2, 51735, Note_on_c, 0, 77, 0
2, 51737, Note_on_c, 0, 55, 0
2, 51737, Note_on_c, 0, 53, 0
2, 51737, Note_on_c, 0, 59, 0
2, 51847, Note_on_c, 0, 84, 60
2, 51850, Note_on_c, 0, 76, 60
2, 51850, Note_on_c, 0, 72, 60
2, 51852, Note_on_c, 0, 48, 60
2, 51854, Note_on_c, 0, 36, 60
2, 51866, Control_c, 0, 64, 127
2, 52078, Note_on_c, 0, 36, 0
2, 52078, Note_on_c, 0, 48, 0
2, 52084, Note_on_c, 0, 55, 60
2, 52086, Note_on_c, 0, 43, 60
2, 52161, Control_c, 0, 64, 0
2, 52320, Note_on_c, 0, 55, 0
2, 52321, Note_on_c, 0, 43, 0
2, 52430, Control_c, 0, 64, 127
2, 52437, Note_on_c, 0, 48, 60
2, 52439, Note_on_c, 0, 36, 60
2, 53164, Note_on_c, 0, 76, 0
2, 53164, Note_on_c, 0, 84, 0
2, 53166, Note_on_c, 0, 72, 0
2, 53168, Note_on_c, 0, 48, 0
2, 53170, Note_on_c, 0, 36, 0
2, 53283, Control_c, 0, 64, 0
2, 53283, End_track
3, 0, Start_track
3, 0, Title_t, ""
3, 0, End_track
4, 0, Start_track
4, 0, Title_t, ""
4, 0, End_track
5, 0, Start_track
5, 0, Title_t, ""
5, 0, End_track
6, 0, Start_track
6, 0, Title_t, "Scan of a player piano roll"
6, 0, End_track
7, 0, Start_track
7, 0, Title_t, "by Terry Smythe, Winnipeg, Canada"
7, 0, End_track
8, 0, Start_track
8, 1, Copyright_t, "___________________________________________________\012\012KUNSTDERFUGE.COM LARGE CLASSICAL MIDI COLLECTION\012ONCLASSICAL BY ALESSANDRO SIMONETTO, PROPRIETOR\012___________________________________________________\012\012! Attention: this file is under copyright !\012\012(c)onclassical, (nc)smythe, 2010\012___________________________________________________\012\012NO ONE MAY REPUBLISH THIS FILE WITHOUT PERMISSION\012COMMERCIAL USES OF THIS FILE IS STRICTLY PROHIBITED\012___________________________________________________\012\012Files & contributor's list: http://kunstderfuge.com/\012Terms and conditions: http://kunstderfuge.com/notes.htm"
8, 1, End_track
0, 0, End_of_file
