0, 0, Header, 1, 8, 192
1, 0, Start_track
1, 0, Title_t, "EUPHONS"
1, 0, Copyright_t, "May NOT be used for commercial purposes."
1, 0, Text_t, "Roll expression/accent tracks, where present, converted to MIDI velocties.\012"
1, 0, Time_signature, 4, 2, 24, 8
1, 0, Key_signature, 0, "major"
1, 0, Tempo, 500000
1, 0, Marker_t, "Standard MIDI:LPI 124:Tempo  70: 05-11-2004"
1, 0, End_track
2, 0, Start_track
2, 0, Title_t, "Euphonic Sounds (1909)"
2, 269, Note_on_c, 0, 65, 80
2, 271, Note_on_c, 0, 53, 80
2, 499, Note_on_c, 0, 53, 0
2, 499, Note_on_c, 0, 65, 0
2, 528, Note_on_c, 0, 74, 80
2, 534, Note_on_c, 0, 62, 80
2, 631, Note_on_c, 0, 62, 0
2, 631, Note_on_c, 0, 74, 0
2, 655, Note_on_c, 0, 53, 80
2, 655, Note_on_c, 0, 65, 80
2, 728, Note_on_c, 0, 53, 0
2, 728, Note_on_c, 0, 54, 80
2, 728, Note_on_c, 0, 66, 80
2, 730, Note_on_c, 0, 65, 0
2, 794, Note_on_c, 0, 67, 80
2, 796, Note_on_c, 0, 66, 0
2, 796, Note_on_c, 0, 54, 0
2, 801, Note_on_c, 0, 55, 80
2, 1032, Note_on_c, 0, 55, 0
2, 1032, Note_on_c, 0, 67, 0
2, 1062, Note_on_c, 0, 58, 80
2, 1064, Note_on_c, 0, 70, 80
2, 1164, Note_on_c, 0, 58, 0
2, 1173, Note_on_c, 0, 70, 0
2, 1195, Note_on_c, 0, 57, 80
2, 1203, Note_on_c, 0, 69, 80
2, 1268, Note_on_c, 0, 55, 80
2, 1268, Note_on_c, 0, 67, 80
2, 1270, Note_on_c, 0, 57, 0
2, 1274, Note_on_c, 0, 69, 0
2, 1325, Note_on_c, 0, 51, 80
2, 1327, Note_on_c, 0, 63, 80
2, 1334, Note_on_c, 0, 55, 0
2, 1336, Note_on_c, 0, 67, 0
2, 1395, Note_on_c, 0, 53, 80
2, 1395, Note_on_c, 0, 65, 80
2, 1397, Note_on_c, 0, 51, 0
2, 1399, Note_on_c, 0, 63, 0
2, 1459, Note_on_c, 0, 55, 80
2, 1459, Note_on_c, 0, 67, 80
2, 1464, Note_on_c, 0, 53, 0
2, 1464, Note_on_c, 0, 65, 0
2, 1563, Note_on_c, 0, 67, 0
2, 1565, Note_on_c, 0, 55, 0
2, 1589, Note_on_c, 0, 60, 80
2, 1594, Note_on_c, 0, 48, 80
2, 1654, Note_on_c, 0, 50, 80
2, 1658, Note_on_c, 0, 48, 0
2, 1663, Note_on_c, 0, 60, 0
2, 1663, Note_on_c, 0, 62, 80
2, 1723, Note_on_c, 0, 50, 0
2, 1723, Note_on_c, 0, 51, 80
2, 1725, Note_on_c, 0, 63, 80
2, 1727, Note_on_c, 0, 62, 0
2, 1789, Note_on_c, 0, 52, 80
2, 1791, Note_on_c, 0, 64, 80
2, 1793, Note_on_c, 0, 63, 0
2, 1793, Note_on_c, 0, 51, 0
2, 1855, Note_on_c, 0, 52, 0
2, 1855, Note_on_c, 0, 53, 80
2, 1855, Note_on_c, 0, 65, 80
2, 1862, Note_on_c, 0, 64, 0
2, 1957, Note_on_c, 0, 65, 0
2, 1962, Note_on_c, 0, 53, 0
2, 2123, Note_on_c, 0, 77, 80
2, 2125, Note_on_c, 0, 81, 80
2, 2125, Note_on_c, 0, 84, 80
2, 2125, Note_on_c, 0, 89, 80
2, 2184, Note_on_c, 0, 41, 80
2, 2218, Note_on_c, 0, 41, 0
2, 2223, Note_on_c, 0, 84, 0
2, 2223, Note_on_c, 0, 77, 0
2, 2228, Note_on_c, 0, 81, 0
2, 2230, Note_on_c, 0, 89, 0
2, 2247, Note_on_c, 0, 43, 80
2, 2289, Note_on_c, 0, 43, 0
2, 2318, Note_on_c, 0, 45, 80
2, 2353, Note_on_c, 0, 45, 0
2, 2380, Note_on_c, 0, 46, 80
2, 2447, Note_on_c, 0, 74, 80
2, 2447, Note_on_c, 0, 77, 80
2, 2447, Note_on_c, 0, 86, 80
2, 2451, Note_on_c, 0, 82, 80
2, 2509, Note_on_c, 0, 58, 80
2, 2511, Note_on_c, 0, 65, 80
2, 2516, Note_on_c, 0, 62, 80
2, 2543, Note_on_c, 0, 77, 0
2, 2547, Note_on_c, 0, 82, 0
2, 2547, Note_on_c, 0, 86, 0
2, 2547, Note_on_c, 0, 74, 0
2, 2576, Note_on_c, 0, 70, 80
2, 2576, Note_on_c, 0, 74, 80
2, 2576, Note_on_c, 0, 82, 80
2, 2610, Note_on_c, 0, 46, 0
2, 2610, Note_on_c, 0, 58, 0
2, 2612, Note_on_c, 0, 62, 0
2, 2612, Note_on_c, 0, 65, 0
2, 2640, Note_on_c, 0, 49, 80
2, 2683, Note_on_c, 0, 70, 0
2, 2683, Note_on_c, 0, 74, 0
2, 2710, Note_on_c, 0, 67, 80
2, 2710, Note_on_c, 0, 79, 80
2, 2714, Note_on_c, 0, 82, 0
2, 2777, Note_on_c, 0, 67, 0
2, 2777, Note_on_c, 0, 50, 80
2, 2777, Note_on_c, 0, 65, 80
2, 2777, Note_on_c, 0, 77, 80
2, 2782, Note_on_c, 0, 49, 0
2, 2786, Note_on_c, 0, 79, 0
2, 2842, Note_on_c, 0, 53, 80
2, 2842, Note_on_c, 0, 74, 80
2, 2847, Note_on_c, 0, 65, 0
2, 2847, Note_on_c, 0, 77, 0
2, 2847, Note_on_c, 0, 50, 0
2, 2847, Note_on_c, 0, 62, 80
2, 2903, Note_on_c, 0, 51, 80
2, 2904, Note_on_c, 0, 60, 80
2, 2906, Note_on_c, 0, 65, 80
2, 2906, Note_on_c, 0, 69, 80
2, 2908, Note_on_c, 0, 72, 80
2, 2913, Note_on_c, 0, 62, 0
2, 2915, Note_on_c, 0, 74, 0
2, 2915, Note_on_c, 0, 53, 0
2, 2971, Note_on_c, 0, 50, 80
2, 2977, Note_on_c, 0, 51, 0
2, 3037, Note_on_c, 0, 48, 80
2, 3042, Note_on_c, 0, 50, 0
2, 3097, Note_on_c, 0, 46, 80
2, 3102, Note_on_c, 0, 48, 0
2, 3136, Note_on_c, 0, 72, 0
2, 3136, Note_on_c, 0, 65, 0
2, 3158, Note_on_c, 0, 65, 80
2, 3160, Note_on_c, 0, 45, 80
2, 3162, Note_on_c, 0, 46, 0
2, 3162, Note_on_c, 0, 72, 80
2, 3162, Note_on_c, 0, 75, 80
2, 3162, Note_on_c, 0, 77, 80
2, 3167, Note_on_c, 0, 60, 0
2, 3168, Note_on_c, 0, 69, 0
2, 3221, Note_on_c, 0, 41, 80
2, 3226, Note_on_c, 0, 45, 0
2, 3286, Note_on_c, 0, 43, 80
2, 3290, Note_on_c, 0, 41, 0
2, 3357, Note_on_c, 0, 45, 80
2, 3361, Note_on_c, 0, 43, 0
2, 3395, Note_on_c, 0, 77, 0
2, 3395, Note_on_c, 0, 72, 0
2, 3395, Note_on_c, 0, 75, 0
2, 3397, Note_on_c, 0, 65, 0
2, 3424, Note_on_c, 0, 46, 80
2, 3426, Note_on_c, 0, 45, 0
2, 3492, Note_on_c, 0, 74, 80
2, 3497, Note_on_c, 0, 77, 80
2, 3497, Note_on_c, 0, 82, 80
2, 3502, Note_on_c, 0, 86, 80
2, 3557, Note_on_c, 0, 65, 80
2, 3562, Note_on_c, 0, 58, 80
2, 3567, Note_on_c, 0, 62, 80
2, 3596, Note_on_c, 0, 77, 0
2, 3600, Note_on_c, 0, 86, 0
2, 3600, Note_on_c, 0, 82, 0
2, 3605, Note_on_c, 0, 74, 0
2, 3629, Note_on_c, 0, 70, 80
2, 3629, Note_on_c, 0, 74, 80
2, 3629, Note_on_c, 0, 82, 80
2, 3663, Note_on_c, 0, 58, 0
2, 3663, Note_on_c, 0, 46, 0
2, 3668, Note_on_c, 0, 62, 0
2, 3668, Note_on_c, 0, 65, 0
2, 3696, Note_on_c, 0, 49, 80
2, 3741, Note_on_c, 0, 74, 0
2, 3741, Note_on_c, 0, 70, 0
2, 3768, Note_on_c, 0, 67, 80
2, 3772, Note_on_c, 0, 82, 0
2, 3772, Note_on_c, 0, 79, 80
2, 3835, Note_on_c, 0, 50, 80
2, 3835, Note_on_c, 0, 65, 80
2, 3840, Note_on_c, 0, 67, 0
2, 3840, Note_on_c, 0, 49, 0
2, 3840, Note_on_c, 0, 77, 80
2, 3844, Note_on_c, 0, 79, 0
2, 3902, Note_on_c, 0, 53, 80
2, 3902, Note_on_c, 0, 74, 80
2, 3904, Note_on_c, 0, 65, 0
2, 3904, Note_on_c, 0, 77, 0
2, 3906, Note_on_c, 0, 62, 80
2, 3908, Note_on_c, 0, 50, 0
2, 3967, Note_on_c, 0, 51, 80
2, 3967, Note_on_c, 0, 65, 80
2, 3972, Note_on_c, 0, 60, 80
2, 3972, Note_on_c, 0, 69, 80
2, 3972, Note_on_c, 0, 72, 80
2, 3977, Note_on_c, 0, 62, 0
2, 3979, Note_on_c, 0, 53, 0
2, 3984, Note_on_c, 0, 74, 0
2, 4039, Note_on_c, 0, 50, 80
2, 4044, Note_on_c, 0, 51, 0
2, 4106, Note_on_c, 0, 48, 80
2, 4111, Note_on_c, 0, 50, 0
2, 4174, Note_on_c, 0, 46, 80
2, 4176, Note_on_c, 0, 48, 0
2, 4209, Note_on_c, 0, 65, 0
2, 4214, Note_on_c, 0, 72, 0
2, 4236, Note_on_c, 0, 45, 80
2, 4236, Note_on_c, 0, 65, 80
2, 4238, Note_on_c, 0, 46, 0
2, 4240, Note_on_c, 0, 72, 80
2, 4240, Note_on_c, 0, 77, 80
2, 4242, Note_on_c, 0, 75, 80
2, 4244, Note_on_c, 0, 60, 0
2, 4244, Note_on_c, 0, 69, 0
2, 4301, Note_on_c, 0, 45, 0
2, 4301, Note_on_c, 0, 43, 80
2, 4364, Note_on_c, 0, 41, 80
2, 4372, Note_on_c, 0, 43, 0
2, 4467, Note_on_c, 0, 65, 0
2, 4467, Note_on_c, 0, 41, 0
2, 4472, Note_on_c, 0, 75, 0
2, 4472, Note_on_c, 0, 77, 0
2, 4477, Note_on_c, 0, 72, 0
2, 4634, Note_on_c, 0, 66, 80
2, 4634, Note_on_c, 0, 72, 80
2, 4634, Note_on_c, 0, 75, 80
2, 4634, Note_on_c, 0, 81, 80
2, 4668, Note_on_c, 0, 75, 0
2, 4668, Note_on_c, 0, 66, 0
2, 4673, Note_on_c, 0, 72, 0
2, 4678, Note_on_c, 0, 81, 0
2, 4700, Note_on_c, 0, 66, 80
2, 4700, Note_on_c, 0, 72, 80
2, 4700, Note_on_c, 0, 75, 80
2, 4700, Note_on_c, 0, 81, 80
2, 4837, Note_on_c, 0, 78, 80
2, 4866, Note_on_c, 0, 66, 0
2, 4868, Note_on_c, 0, 81, 0
2, 4868, Note_on_c, 0, 75, 0
2, 4870, Note_on_c, 0, 72, 0
2, 4896, Note_on_c, 0, 66, 80
2, 4896, Note_on_c, 0, 72, 80
2, 4896, Note_on_c, 0, 75, 80
2, 4896, Note_on_c, 0, 79, 80
2, 4905, Note_on_c, 0, 78, 0
2, 4963, Note_on_c, 0, 81, 80
2, 4968, Note_on_c, 0, 79, 0
2, 5001, Note_on_c, 0, 75, 0
2, 5001, Note_on_c, 0, 66, 0
2, 5001, Note_on_c, 0, 72, 0
2, 5006, Note_on_c, 0, 81, 0
2, 5030, Note_on_c, 0, 70, 80
2, 5030, Note_on_c, 0, 74, 80
2, 5032, Note_on_c, 0, 67, 80
2, 5034, Note_on_c, 0, 82, 80
2, 5069, Note_on_c, 0, 82, 0
2, 5100, Note_on_c, 0, 82, 80
2, 5200, Note_on_c, 0, 67, 0
2, 5202, Note_on_c, 0, 82, 0
2, 5202, Note_on_c, 0, 70, 0
2, 5204, Note_on_c, 0, 74, 0
2, 5228, Note_on_c, 0, 67, 80
2, 5228, Note_on_c, 0, 74, 80
2, 5230, Note_on_c, 0, 70, 80
2, 5230, Note_on_c, 0, 82, 80
2, 5362, Note_on_c, 0, 81, 80
2, 5364, Note_on_c, 0, 82, 0
2, 5398, Note_on_c, 0, 67, 0
2, 5402, Note_on_c, 0, 74, 0
2, 5402, Note_on_c, 0, 70, 0
2, 5426, Note_on_c, 0, 74, 80
2, 5428, Note_on_c, 0, 70, 80
2, 5430, Note_on_c, 0, 67, 80
2, 5432, Note_on_c, 0, 81, 0
2, 5432, Note_on_c, 0, 82, 80
2, 5496, Note_on_c, 0, 82, 0
2, 5496, Note_on_c, 0, 83, 80
2, 5525, Note_on_c, 0, 67, 0
2, 5530, Note_on_c, 0, 74, 0
2, 5530, Note_on_c, 0, 70, 0
2, 5535, Note_on_c, 0, 83, 0
2, 5557, Note_on_c, 0, 67, 80
2, 5557, Note_on_c, 0, 69, 80
2, 5557, Note_on_c, 0, 75, 80
2, 5557, Note_on_c, 0, 84, 80
2, 5588, Note_on_c, 0, 84, 0
2, 5621, Note_on_c, 0, 84, 80
2, 5716, Note_on_c, 0, 84, 0
2, 5716, Note_on_c, 0, 67, 0
2, 5721, Note_on_c, 0, 75, 0
2, 5721, Note_on_c, 0, 69, 0
2, 5748, Note_on_c, 0, 69, 80
2, 5748, Note_on_c, 0, 75, 80
2, 5748, Note_on_c, 0, 84, 80
2, 5750, Note_on_c, 0, 67, 80
2, 5845, Note_on_c, 0, 84, 0
2, 5879, Note_on_c, 0, 83, 80
2, 5909, Note_on_c, 0, 69, 0
2, 5909, Note_on_c, 0, 67, 0
2, 5909, Note_on_c, 0, 75, 0
2, 5914, Note_on_c, 0, 83, 0
2, 5941, Note_on_c, 0, 67, 80
2, 5941, Note_on_c, 0, 69, 80
2, 5941, Note_on_c, 0, 75, 80
2, 5946, Note_on_c, 0, 84, 80
2, 5976, Note_on_c, 0, 84, 0
2, 6014, Note_on_c, 0, 85, 80
2, 6048, Note_on_c, 0, 75, 0
2, 6048, Note_on_c, 0, 67, 0
2, 6049, Note_on_c, 0, 85, 0
2, 6051, Note_on_c, 0, 69, 0
2, 6075, Note_on_c, 0, 74, 80
2, 6077, Note_on_c, 0, 66, 80
2, 6079, Note_on_c, 0, 69, 80
2, 6079, Note_on_c, 0, 86, 80
2, 6186, Note_on_c, 0, 86, 0
2, 6186, Note_on_c, 0, 69, 0
2, 6186, Note_on_c, 0, 66, 0
2, 6191, Note_on_c, 0, 74, 0
2, 6213, Note_on_c, 0, 38, 80
2, 6217, Note_on_c, 0, 50, 80
2, 6384, Note_on_c, 0, 38, 0
2, 6388, Note_on_c, 0, 50, 0
2, 6419, Note_on_c, 0, 41, 80
2, 6455, Note_on_c, 0, 41, 0
2, 6488, Note_on_c, 0, 43, 80
2, 6528, Note_on_c, 0, 43, 0
2, 6554, Note_on_c, 0, 45, 80
2, 6590, Note_on_c, 0, 45, 0
2, 6619, Note_on_c, 0, 46, 80
2, 6687, Note_on_c, 0, 74, 80
2, 6687, Note_on_c, 0, 77, 80
2, 6687, Note_on_c, 0, 82, 80
2, 6687, Note_on_c, 0, 86, 80
2, 6749, Note_on_c, 0, 58, 80
2, 6749, Note_on_c, 0, 65, 80
2, 6761, Note_on_c, 0, 62, 80
2, 6785, Note_on_c, 0, 86, 0
2, 6785, Note_on_c, 0, 82, 0
2, 6785, Note_on_c, 0, 77, 0
2, 6790, Note_on_c, 0, 74, 0
2, 6814, Note_on_c, 0, 74, 80
2, 6818, Note_on_c, 0, 70, 80
2, 6820, Note_on_c, 0, 82, 80
2, 6849, Note_on_c, 0, 65, 0
2, 6849, Note_on_c, 0, 62, 0
2, 6849, Note_on_c, 0, 58, 0
2, 6851, Note_on_c, 0, 46, 0
2, 6878, Note_on_c, 0, 49, 80
2, 6920, Note_on_c, 0, 70, 0
2, 6922, Note_on_c, 0, 74, 0
2, 6949, Note_on_c, 0, 67, 80
2, 6949, Note_on_c, 0, 79, 80
2, 6954, Note_on_c, 0, 82, 0
2, 7013, Note_on_c, 0, 50, 80
2, 7013, Note_on_c, 0, 65, 80
2, 7013, Note_on_c, 0, 77, 80
2, 7015, Note_on_c, 0, 67, 0
2, 7017, Note_on_c, 0, 79, 0
2, 7017, Note_on_c, 0, 49, 0
2, 7080, Note_on_c, 0, 53, 80
2, 7080, Note_on_c, 0, 74, 80
2, 7084, Note_on_c, 0, 50, 0
2, 7084, Note_on_c, 0, 77, 0
2, 7084, Note_on_c, 0, 65, 0
2, 7084, Note_on_c, 0, 62, 80
2, 7142, Note_on_c, 0, 51, 80
2, 7147, Note_on_c, 0, 60, 80
2, 7147, Note_on_c, 0, 65, 80
2, 7147, Note_on_c, 0, 69, 80
2, 7147, Note_on_c, 0, 72, 80
2, 7149, Note_on_c, 0, 62, 0
2, 7151, Note_on_c, 0, 53, 0
2, 7155, Note_on_c, 0, 74, 0
2, 7211, Note_on_c, 0, 50, 80
2, 7218, Note_on_c, 0, 51, 0
2, 7275, Note_on_c, 0, 48, 80
2, 7280, Note_on_c, 0, 50, 0
2, 7340, Note_on_c, 0, 48, 0
2, 7340, Note_on_c, 0, 46, 80
2, 7379, Note_on_c, 0, 65, 0
2, 7381, Note_on_c, 0, 72, 0
2, 7405, Note_on_c, 0, 45, 80
2, 7407, Note_on_c, 0, 46, 0
2, 7407, Note_on_c, 0, 65, 80
2, 7409, Note_on_c, 0, 72, 80
2, 7409, Note_on_c, 0, 75, 80
2, 7411, Note_on_c, 0, 77, 80
2, 7413, Note_on_c, 0, 69, 0
2, 7413, Note_on_c, 0, 60, 0
2, 7470, Note_on_c, 0, 45, 0
2, 7470, Note_on_c, 0, 41, 80
2, 7536, Note_on_c, 0, 43, 80
2, 7541, Note_on_c, 0, 41, 0
2, 7601, Note_on_c, 0, 45, 80
2, 7603, Note_on_c, 0, 43, 0
2, 7636, Note_on_c, 0, 75, 0
2, 7636, Note_on_c, 0, 77, 0
2, 7641, Note_on_c, 0, 65, 0
2, 7641, Note_on_c, 0, 72, 0
2, 7668, Note_on_c, 0, 46, 80
2, 7673, Note_on_c, 0, 45, 0
2, 7737, Note_on_c, 0, 74, 80
2, 7739, Note_on_c, 0, 77, 80
2, 7739, Note_on_c, 0, 82, 80
2, 7741, Note_on_c, 0, 86, 80
2, 7800, Note_on_c, 0, 58, 80
2, 7805, Note_on_c, 0, 65, 80
2, 7810, Note_on_c, 0, 62, 80
2, 7839, Note_on_c, 0, 82, 0
2, 7839, Note_on_c, 0, 77, 0
2, 7844, Note_on_c, 0, 86, 0
2, 7848, Note_on_c, 0, 74, 0
2, 7871, Note_on_c, 0, 74, 80
2, 7872, Note_on_c, 0, 70, 80
2, 7872, Note_on_c, 0, 82, 80
2, 7906, Note_on_c, 0, 46, 0
2, 7906, Note_on_c, 0, 58, 0
2, 7908, Note_on_c, 0, 62, 0
2, 7908, Note_on_c, 0, 65, 0
2, 7939, Note_on_c, 0, 49, 80
2, 7972, Note_on_c, 0, 70, 0
2, 7974, Note_on_c, 0, 74, 0
2, 8003, Note_on_c, 0, 67, 80
2, 8003, Note_on_c, 0, 79, 80
2, 8008, Note_on_c, 0, 82, 0
2, 8067, Note_on_c, 0, 65, 80
2, 8069, Note_on_c, 0, 50, 80
2, 8071, Note_on_c, 0, 49, 0
2, 8071, Note_on_c, 0, 77, 80
2, 8073, Note_on_c, 0, 67, 0
2, 8078, Note_on_c, 0, 79, 0
2, 8134, Note_on_c, 0, 53, 80
2, 8134, Note_on_c, 0, 74, 80
2, 8136, Note_on_c, 0, 77, 0
2, 8136, Note_on_c, 0, 62, 80
2, 8140, Note_on_c, 0, 65, 0
2, 8142, Note_on_c, 0, 50, 0
2, 8198, Note_on_c, 0, 51, 80
2, 8198, Note_on_c, 0, 60, 80
2, 8198, Note_on_c, 0, 65, 80
2, 8203, Note_on_c, 0, 62, 0
2, 8203, Note_on_c, 0, 69, 80
2, 8203, Note_on_c, 0, 72, 80
2, 8208, Note_on_c, 0, 53, 0
2, 8208, Note_on_c, 0, 74, 0
2, 8263, Note_on_c, 0, 50, 80
2, 8270, Note_on_c, 0, 51, 0
2, 8332, Note_on_c, 0, 48, 80
2, 8334, Note_on_c, 0, 50, 0
2, 8392, Note_on_c, 0, 48, 0
2, 8392, Note_on_c, 0, 46, 80
2, 8427, Note_on_c, 0, 65, 0
2, 8429, Note_on_c, 0, 69, 0
2, 8456, Note_on_c, 0, 46, 0
2, 8456, Note_on_c, 0, 45, 80
2, 8456, Note_on_c, 0, 65, 80
2, 8461, Note_on_c, 0, 69, 80
2, 8461, Note_on_c, 0, 75, 80
2, 8461, Note_on_c, 0, 77, 80
2, 8466, Note_on_c, 0, 60, 0
2, 8466, Note_on_c, 0, 72, 0
2, 8523, Note_on_c, 0, 43, 80
2, 8525, Note_on_c, 0, 45, 0
2, 8588, Note_on_c, 0, 41, 80
2, 8590, Note_on_c, 0, 43, 0
2, 8687, Note_on_c, 0, 41, 0
2, 8693, Note_on_c, 0, 69, 0
2, 8693, Note_on_c, 0, 65, 0
2, 8693, Note_on_c, 0, 75, 0
2, 8693, Note_on_c, 0, 77, 0
2, 8720, Note_on_c, 0, 39, 80
2, 8720, Note_on_c, 0, 66, 80
2, 8720, Note_on_c, 0, 70, 80
2, 8720, Note_on_c, 0, 75, 80
2, 8720, Note_on_c, 0, 78, 80
2, 8788, Note_on_c, 0, 39, 0
2, 8788, Note_on_c, 0, 42, 80
2, 8855, Note_on_c, 0, 46, 80
2, 8856, Note_on_c, 0, 42, 0
2, 8921, Note_on_c, 0, 46, 0
2, 8921, Note_on_c, 0, 51, 80
2, 8956, Note_on_c, 0, 75, 0
2, 8958, Note_on_c, 0, 66, 0
2, 8960, Note_on_c, 0, 78, 0
2, 8960, Note_on_c, 0, 70, 0
2, 8989, Note_on_c, 0, 50, 80
2, 8989, Note_on_c, 0, 65, 80
2, 8989, Note_on_c, 0, 74, 80
2, 8989, Note_on_c, 0, 77, 80
2, 8991, Note_on_c, 0, 70, 80
2, 8998, Note_on_c, 0, 51, 0
2, 9055, Note_on_c, 0, 53, 80
2, 9064, Note_on_c, 0, 50, 0
2, 9093, Note_on_c, 0, 77, 0
2, 9093, Note_on_c, 0, 65, 0
2, 9097, Note_on_c, 0, 74, 0
2, 9097, Note_on_c, 0, 70, 0
2, 9124, Note_on_c, 0, 58, 80
2, 9126, Note_on_c, 0, 77, 80
2, 9126, Note_on_c, 0, 82, 80
2, 9126, Note_on_c, 0, 86, 80
2, 9126, Note_on_c, 0, 89, 80
2, 9133, Note_on_c, 0, 53, 0
2, 9192, Note_on_c, 0, 58, 0
2, 9194, Note_on_c, 0, 62, 80
2, 9228, Note_on_c, 0, 86, 0
2, 9228, Note_on_c, 0, 82, 0
2, 9228, Note_on_c, 0, 77, 0
2, 9233, Note_on_c, 0, 89, 0
2, 9260, Note_on_c, 0, 63, 80
2, 9260, Note_on_c, 0, 78, 80
2, 9260, Note_on_c, 0, 82, 80
2, 9260, Note_on_c, 0, 87, 80
2, 9264, Note_on_c, 0, 62, 0
2, 9264, Note_on_c, 0, 90, 80
2, 9324, Note_on_c, 0, 66, 80
2, 9333, Note_on_c, 0, 63, 0
2, 9392, Note_on_c, 0, 70, 80
2, 9394, Note_on_c, 0, 66, 0
2, 9460, Note_on_c, 0, 75, 80
2, 9465, Note_on_c, 0, 70, 0
2, 9494, Note_on_c, 0, 90, 0
2, 9494, Note_on_c, 0, 87, 0
2, 9494, Note_on_c, 0, 82, 0
2, 9499, Note_on_c, 0, 78, 0
2, 9523, Note_on_c, 0, 74, 80
2, 9528, Note_on_c, 0, 77, 80
2, 9528, Note_on_c, 0, 82, 80
2, 9528, Note_on_c, 0, 86, 80
2, 9528, Note_on_c, 0, 89, 80
2, 9532, Note_on_c, 0, 75, 0
2, 9623, Note_on_c, 0, 77, 0
2, 9627, Note_on_c, 0, 82, 0
2, 9627, Note_on_c, 0, 86, 0
2, 9629, Note_on_c, 0, 74, 0
2, 9631, Note_on_c, 0, 89, 0
2, 9791, Note_on_c, 0, 48, 80
2, 9791, Note_on_c, 0, 64, 80
2, 9791, Note_on_c, 0, 70, 80
2, 9857, Note_on_c, 0, 48, 0
2, 9857, Note_on_c, 0, 52, 80
2, 9921, Note_on_c, 0, 52, 0
2, 9926, Note_on_c, 0, 55, 80
2, 9957, Note_on_c, 0, 70, 0
2, 9961, Note_on_c, 0, 64, 0
2, 9985, Note_on_c, 0, 53, 80
2, 9985, Note_on_c, 0, 63, 80
2, 9987, Note_on_c, 0, 55, 0
2, 9987, Note_on_c, 0, 69, 80
2, 9987, Note_on_c, 0, 72, 80
2, 10113, Note_on_c, 0, 74, 80
2, 10122, Note_on_c, 0, 72, 0
2, 10152, Note_on_c, 0, 69, 0
2, 10154, Note_on_c, 0, 53, 0
2, 10154, Note_on_c, 0, 63, 0
2, 10181, Note_on_c, 0, 41, 80
2, 10183, Note_on_c, 0, 53, 80
2, 10183, Note_on_c, 0, 63, 80
2, 10183, Note_on_c, 0, 72, 80
2, 10185, Note_on_c, 0, 69, 80
2, 10187, Note_on_c, 0, 74, 0
2, 10280, Note_on_c, 0, 41, 0
2, 10285, Note_on_c, 0, 63, 0
2, 10290, Note_on_c, 0, 53, 0
2, 10290, Note_on_c, 0, 69, 0
2, 10290, Note_on_c, 0, 72, 0
2, 10317, Note_on_c, 0, 46, 80
2, 10317, Note_on_c, 0, 53, 80
2, 10321, Note_on_c, 0, 62, 80
2, 10321, Note_on_c, 0, 70, 80
2, 10421, Note_on_c, 0, 70, 0
2, 10452, Note_on_c, 0, 82, 80
2, 10488, Note_on_c, 0, 82, 0
2, 10521, Note_on_c, 0, 86, 80
2, 10550, Note_on_c, 0, 62, 0
2, 10550, Note_on_c, 0, 46, 0
2, 10555, Note_on_c, 0, 53, 0
2, 10555, Note_on_c, 0, 86, 0
2, 10584, Note_on_c, 0, 77, 80
2, 10588, Note_on_c, 0, 89, 80
2, 10648, Note_on_c, 0, 41, 80
2, 10679, Note_on_c, 0, 41, 0
2, 10683, Note_on_c, 0, 77, 0
2, 10692, Note_on_c, 0, 89, 0
2, 10714, Note_on_c, 0, 43, 80
2, 10750, Note_on_c, 0, 43, 0
2, 10780, Note_on_c, 0, 45, 80
2, 10814, Note_on_c, 0, 45, 0
2, 10848, Note_on_c, 0, 46, 80
2, 10912, Note_on_c, 0, 74, 80
2, 10912, Note_on_c, 0, 77, 80
2, 10917, Note_on_c, 0, 82, 80
2, 10917, Note_on_c, 0, 86, 80
2, 10974, Note_on_c, 0, 65, 80
2, 10976, Note_on_c, 0, 58, 80
2, 10983, Note_on_c, 0, 62, 80
2, 11007, Note_on_c, 0, 86, 0
2, 11007, Note_on_c, 0, 82, 0
2, 11007, Note_on_c, 0, 77, 0
2, 11012, Note_on_c, 0, 74, 0
2, 11036, Note_on_c, 0, 74, 80
2, 11038, Note_on_c, 0, 82, 80
2, 11040, Note_on_c, 0, 70, 80
2, 11070, Note_on_c, 0, 58, 0
2, 11070, Note_on_c, 0, 46, 0
2, 11075, Note_on_c, 0, 62, 0
2, 11075, Note_on_c, 0, 65, 0
2, 11099, Note_on_c, 0, 49, 80
2, 11141, Note_on_c, 0, 70, 0
2, 11141, Note_on_c, 0, 74, 0
2, 11165, Note_on_c, 0, 67, 80
2, 11165, Note_on_c, 0, 79, 80
2, 11170, Note_on_c, 0, 82, 0
2, 11230, Note_on_c, 0, 65, 80
2, 11230, Note_on_c, 0, 77, 80
2, 11232, Note_on_c, 0, 67, 0
2, 11232, Note_on_c, 0, 50, 80
2, 11233, Note_on_c, 0, 79, 0
2, 11233, Note_on_c, 0, 49, 0
2, 11293, Note_on_c, 0, 53, 80
2, 11293, Note_on_c, 0, 74, 80
2, 11298, Note_on_c, 0, 65, 0
2, 11298, Note_on_c, 0, 50, 0
2, 11298, Note_on_c, 0, 77, 0
2, 11298, Note_on_c, 0, 62, 80
2, 11353, Note_on_c, 0, 51, 80
2, 11358, Note_on_c, 0, 60, 80
2, 11358, Note_on_c, 0, 65, 80
2, 11358, Note_on_c, 0, 69, 80
2, 11358, Note_on_c, 0, 72, 80
2, 11363, Note_on_c, 0, 62, 0
2, 11363, Note_on_c, 0, 53, 0
2, 11368, Note_on_c, 0, 74, 0
2, 11425, Note_on_c, 0, 50, 80
2, 11430, Note_on_c, 0, 51, 0
2, 11495, Note_on_c, 0, 48, 80
2, 11501, Note_on_c, 0, 50, 0
2, 11561, Note_on_c, 0, 48, 0
2, 11561, Note_on_c, 0, 46, 80
2, 11596, Note_on_c, 0, 65, 0
2, 11601, Note_on_c, 0, 72, 0
2, 11630, Note_on_c, 0, 46, 0
2, 11630, Note_on_c, 0, 45, 80
2, 11630, Note_on_c, 0, 65, 80
2, 11635, Note_on_c, 0, 72, 80
2, 11635, Note_on_c, 0, 75, 80
2, 11635, Note_on_c, 0, 77, 80
2, 11637, Note_on_c, 0, 60, 0
2, 11639, Note_on_c, 0, 69, 0
2, 11696, Note_on_c, 0, 41, 80
2, 11698, Note_on_c, 0, 45, 0
2, 11760, Note_on_c, 0, 41, 0
2, 11762, Note_on_c, 0, 43, 80
2, 11829, Note_on_c, 0, 45, 80
2, 11837, Note_on_c, 0, 43, 0
2, 11871, Note_on_c, 0, 77, 0
2, 11871, Note_on_c, 0, 65, 0
2, 11871, Note_on_c, 0, 75, 0
2, 11876, Note_on_c, 0, 72, 0
2, 11898, Note_on_c, 0, 46, 80
2, 11903, Note_on_c, 0, 45, 0
2, 11962, Note_on_c, 0, 74, 80
2, 11967, Note_on_c, 0, 77, 80
2, 11967, Note_on_c, 0, 82, 80
2, 11967, Note_on_c, 0, 86, 80
2, 12026, Note_on_c, 0, 58, 80
2, 12026, Note_on_c, 0, 65, 80
2, 12033, Note_on_c, 0, 62, 80
2, 12064, Note_on_c, 0, 77, 0
2, 12069, Note_on_c, 0, 86, 0
2, 12069, Note_on_c, 0, 82, 0
2, 12069, Note_on_c, 0, 74, 0
2, 12093, Note_on_c, 0, 82, 80
2, 12095, Note_on_c, 0, 70, 80
2, 12095, Note_on_c, 0, 74, 80
2, 12128, Note_on_c, 0, 46, 0
2, 12128, Note_on_c, 0, 58, 0
2, 12133, Note_on_c, 0, 62, 0
2, 12133, Note_on_c, 0, 65, 0
2, 12164, Note_on_c, 0, 49, 80
2, 12203, Note_on_c, 0, 70, 0
2, 12203, Note_on_c, 0, 74, 0
2, 12230, Note_on_c, 0, 67, 80
2, 12235, Note_on_c, 0, 82, 0
2, 12235, Note_on_c, 0, 79, 80
2, 12297, Note_on_c, 0, 50, 80
2, 12297, Note_on_c, 0, 65, 80
2, 12302, Note_on_c, 0, 67, 0
2, 12302, Note_on_c, 0, 49, 0
2, 12302, Note_on_c, 0, 77, 80
2, 12307, Note_on_c, 0, 79, 0
2, 12366, Note_on_c, 0, 53, 80
2, 12366, Note_on_c, 0, 74, 80
2, 12368, Note_on_c, 0, 65, 0
2, 12368, Note_on_c, 0, 77, 0
2, 12368, Note_on_c, 0, 62, 80
2, 12370, Note_on_c, 0, 50, 0
2, 12428, Note_on_c, 0, 51, 80
2, 12428, Note_on_c, 0, 60, 80
2, 12432, Note_on_c, 0, 62, 0
2, 12432, Note_on_c, 0, 65, 80
2, 12432, Note_on_c, 0, 69, 80
2, 12432, Note_on_c, 0, 72, 80
2, 12437, Note_on_c, 0, 74, 0
2, 12439, Note_on_c, 0, 53, 0
2, 12499, Note_on_c, 0, 50, 80
2, 12504, Note_on_c, 0, 51, 0
2, 12566, Note_on_c, 0, 48, 80
2, 12571, Note_on_c, 0, 50, 0
2, 12628, Note_on_c, 0, 48, 0
2, 12630, Note_on_c, 0, 46, 80
2, 12666, Note_on_c, 0, 65, 0
2, 12666, Note_on_c, 0, 72, 0
2, 12696, Note_on_c, 0, 46, 0
2, 12696, Note_on_c, 0, 45, 80
2, 12696, Note_on_c, 0, 65, 80
2, 12698, Note_on_c, 0, 60, 0
2, 12700, Note_on_c, 0, 72, 80
2, 12700, Note_on_c, 0, 75, 80
2, 12700, Note_on_c, 0, 77, 80
2, 12705, Note_on_c, 0, 69, 0
2, 12763, Note_on_c, 0, 43, 80
2, 12765, Note_on_c, 0, 45, 0
2, 12827, Note_on_c, 0, 41, 80
2, 12836, Note_on_c, 0, 43, 0
2, 12931, Note_on_c, 0, 65, 0
2, 12931, Note_on_c, 0, 41, 0
2, 12933, Note_on_c, 0, 77, 0
2, 12933, Note_on_c, 0, 75, 0
2, 12937, Note_on_c, 0, 72, 0
2, 13097, Note_on_c, 0, 66, 80
2, 13097, Note_on_c, 0, 72, 80
2, 13097, Note_on_c, 0, 75, 80
2, 13097, Note_on_c, 0, 81, 80
2, 13128, Note_on_c, 0, 66, 0
2, 13132, Note_on_c, 0, 75, 0
2, 13137, Note_on_c, 0, 72, 0
2, 13137, Note_on_c, 0, 81, 0
2, 13161, Note_on_c, 0, 66, 80
2, 13161, Note_on_c, 0, 72, 80
2, 13161, Note_on_c, 0, 75, 80
2, 13161, Note_on_c, 0, 81, 80
2, 13265, Note_on_c, 0, 81, 0
2, 13296, Note_on_c, 0, 78, 80
2, 13326, Note_on_c, 0, 66, 0
2, 13326, Note_on_c, 0, 75, 0
2, 13326, Note_on_c, 0, 72, 0
2, 13331, Note_on_c, 0, 78, 0
2, 13355, Note_on_c, 0, 66, 80
2, 13355, Note_on_c, 0, 72, 80
2, 13355, Note_on_c, 0, 75, 80
2, 13360, Note_on_c, 0, 79, 80
2, 13393, Note_on_c, 0, 79, 0
2, 13422, Note_on_c, 0, 81, 80
2, 13453, Note_on_c, 0, 66, 0
2, 13458, Note_on_c, 0, 75, 0
2, 13463, Note_on_c, 0, 72, 0
2, 13464, Note_on_c, 0, 81, 0
2, 13487, Note_on_c, 0, 74, 80
2, 13488, Note_on_c, 0, 82, 80
2, 13490, Note_on_c, 0, 67, 80
2, 13490, Note_on_c, 0, 70, 80
2, 13526, Note_on_c, 0, 82, 0
2, 13555, Note_on_c, 0, 82, 80
2, 13652, Note_on_c, 0, 67, 0
2, 13656, Note_on_c, 0, 70, 0
2, 13656, Note_on_c, 0, 82, 0
2, 13661, Note_on_c, 0, 74, 0
2, 13683, Note_on_c, 0, 74, 80
2, 13685, Note_on_c, 0, 67, 80
2, 13685, Note_on_c, 0, 70, 80
2, 13685, Note_on_c, 0, 82, 80
2, 13816, Note_on_c, 0, 82, 0
2, 13816, Note_on_c, 0, 81, 80
2, 13849, Note_on_c, 0, 67, 0
2, 13854, Note_on_c, 0, 70, 0
2, 13856, Note_on_c, 0, 74, 0
2, 13878, Note_on_c, 0, 70, 80
2, 13878, Note_on_c, 0, 74, 80
2, 13880, Note_on_c, 0, 67, 80
2, 13882, Note_on_c, 0, 82, 80
2, 13887, Note_on_c, 0, 81, 0
2, 13946, Note_on_c, 0, 82, 0
2, 13948, Note_on_c, 0, 83, 80
2, 13979, Note_on_c, 0, 67, 0
2, 13981, Note_on_c, 0, 70, 0
2, 13981, Note_on_c, 0, 74, 0
2, 13986, Note_on_c, 0, 83, 0
2, 14006, Note_on_c, 0, 67, 80
2, 14006, Note_on_c, 0, 69, 80
2, 14006, Note_on_c, 0, 75, 80
2, 14006, Note_on_c, 0, 84, 80
2, 14041, Note_on_c, 0, 84, 0
2, 14070, Note_on_c, 0, 84, 80
2, 14172, Note_on_c, 0, 84, 0
2, 14174, Note_on_c, 0, 75, 0
2, 14174, Note_on_c, 0, 69, 0
2, 14174, Note_on_c, 0, 67, 0
2, 14203, Note_on_c, 0, 69, 80
2, 14203, Note_on_c, 0, 75, 80
2, 14205, Note_on_c, 0, 67, 80
2, 14209, Note_on_c, 0, 84, 80
2, 14306, Note_on_c, 0, 84, 0
2, 14344, Note_on_c, 0, 83, 80
2, 14373, Note_on_c, 0, 67, 0
2, 14373, Note_on_c, 0, 75, 0
2, 14375, Note_on_c, 0, 83, 0
2, 14376, Note_on_c, 0, 69, 0
2, 14403, Note_on_c, 0, 67, 80
2, 14405, Note_on_c, 0, 75, 80
2, 14405, Note_on_c, 0, 84, 80
2, 14407, Note_on_c, 0, 69, 80
2, 14443, Note_on_c, 0, 84, 0
2, 14476, Note_on_c, 0, 85, 80
2, 14507, Note_on_c, 0, 67, 0
2, 14509, Note_on_c, 0, 69, 0
2, 14509, Note_on_c, 0, 75, 0
2, 14514, Note_on_c, 0, 85, 0
2, 14541, Note_on_c, 0, 69, 80
2, 14541, Note_on_c, 0, 74, 80
2, 14541, Note_on_c, 0, 86, 80
2, 14545, Note_on_c, 0, 66, 80
2, 14642, Note_on_c, 0, 66, 0
2, 14642, Note_on_c, 0, 86, 0
2, 14649, Note_on_c, 0, 74, 0
2, 14649, Note_on_c, 0, 69, 0
2, 14673, Note_on_c, 0, 38, 80
2, 14673, Note_on_c, 0, 50, 80
2, 14843, Note_on_c, 0, 38, 0
2, 14848, Note_on_c, 0, 50, 0
2, 14872, Note_on_c, 0, 41, 80
2, 14911, Note_on_c, 0, 41, 0
2, 14945, Note_on_c, 0, 43, 80
2, 14982, Note_on_c, 0, 43, 0
2, 15011, Note_on_c, 0, 45, 80
2, 15045, Note_on_c, 0, 45, 0
2, 15075, Note_on_c, 0, 46, 80
2, 15144, Note_on_c, 0, 74, 80
2, 15144, Note_on_c, 0, 77, 80
2, 15144, Note_on_c, 0, 82, 80
2, 15144, Note_on_c, 0, 86, 80
2, 15210, Note_on_c, 0, 58, 80
2, 15210, Note_on_c, 0, 65, 80
2, 15216, Note_on_c, 0, 62, 80
2, 15245, Note_on_c, 0, 86, 0
2, 15245, Note_on_c, 0, 82, 0
2, 15245, Note_on_c, 0, 77, 0
2, 15250, Note_on_c, 0, 74, 0
2, 15274, Note_on_c, 0, 70, 80
2, 15274, Note_on_c, 0, 74, 80
2, 15274, Note_on_c, 0, 82, 80
2, 15305, Note_on_c, 0, 46, 0
2, 15305, Note_on_c, 0, 62, 0
2, 15305, Note_on_c, 0, 58, 0
2, 15310, Note_on_c, 0, 65, 0
2, 15340, Note_on_c, 0, 49, 80
2, 15376, Note_on_c, 0, 70, 0
2, 15376, Note_on_c, 0, 74, 0
2, 15405, Note_on_c, 0, 67, 80
2, 15407, Note_on_c, 0, 82, 0
2, 15407, Note_on_c, 0, 79, 80
2, 15469, Note_on_c, 0, 50, 80
2, 15469, Note_on_c, 0, 65, 80
2, 15474, Note_on_c, 0, 67, 0
2, 15474, Note_on_c, 0, 49, 0
2, 15474, Note_on_c, 0, 77, 80
2, 15476, Note_on_c, 0, 79, 0
2, 15535, Note_on_c, 0, 53, 80
2, 15535, Note_on_c, 0, 74, 80
2, 15537, Note_on_c, 0, 65, 0
2, 15537, Note_on_c, 0, 77, 0
2, 15537, Note_on_c, 0, 62, 80
2, 15542, Note_on_c, 0, 50, 0
2, 15598, Note_on_c, 0, 51, 80
2, 15600, Note_on_c, 0, 60, 80
2, 15600, Note_on_c, 0, 65, 80
2, 15604, Note_on_c, 0, 69, 80
2, 15604, Note_on_c, 0, 72, 80
2, 15609, Note_on_c, 0, 62, 0
2, 15611, Note_on_c, 0, 53, 0
2, 15613, Note_on_c, 0, 74, 0
2, 15666, Note_on_c, 0, 50, 80
2, 15672, Note_on_c, 0, 51, 0
2, 15728, Note_on_c, 0, 48, 80
2, 15737, Note_on_c, 0, 50, 0
2, 15792, Note_on_c, 0, 46, 80
2, 15797, Note_on_c, 0, 48, 0
2, 15828, Note_on_c, 0, 65, 0
2, 15837, Note_on_c, 0, 72, 0
2, 15861, Note_on_c, 0, 46, 0
2, 15861, Note_on_c, 0, 45, 80
2, 15861, Note_on_c, 0, 65, 80
2, 15861, Note_on_c, 0, 72, 80
2, 15861, Note_on_c, 0, 75, 80
2, 15861, Note_on_c, 0, 77, 80
2, 15863, Note_on_c, 0, 60, 0
2, 15864, Note_on_c, 0, 69, 0
2, 15927, Note_on_c, 0, 41, 80
2, 15929, Note_on_c, 0, 45, 0
2, 15993, Note_on_c, 0, 41, 0
2, 15993, Note_on_c, 0, 43, 80
2, 16057, Note_on_c, 0, 45, 80
2, 16062, Note_on_c, 0, 43, 0
2, 16093, Note_on_c, 0, 77, 0
2, 16093, Note_on_c, 0, 65, 0
2, 16093, Note_on_c, 0, 75, 0
2, 16100, Note_on_c, 0, 72, 0
2, 16124, Note_on_c, 0, 45, 0
2, 16124, Note_on_c, 0, 46, 80
2, 16192, Note_on_c, 0, 74, 80
2, 16192, Note_on_c, 0, 77, 80
2, 16192, Note_on_c, 0, 82, 80
2, 16192, Note_on_c, 0, 86, 80
2, 16256, Note_on_c, 0, 58, 80
2, 16256, Note_on_c, 0, 65, 80
2, 16263, Note_on_c, 0, 62, 80
2, 16294, Note_on_c, 0, 86, 0
2, 16294, Note_on_c, 0, 82, 0
2, 16294, Note_on_c, 0, 77, 0
2, 16294, Note_on_c, 0, 74, 0
2, 16320, Note_on_c, 0, 70, 80
2, 16320, Note_on_c, 0, 74, 80
2, 16320, Note_on_c, 0, 82, 80
2, 16354, Note_on_c, 0, 46, 0
2, 16354, Note_on_c, 0, 58, 0
2, 16356, Note_on_c, 0, 62, 0
2, 16356, Note_on_c, 0, 65, 0
2, 16383, Note_on_c, 0, 49, 80
2, 16420, Note_on_c, 0, 70, 0
2, 16425, Note_on_c, 0, 74, 0
2, 16449, Note_on_c, 0, 67, 80
2, 16451, Note_on_c, 0, 82, 0
2, 16451, Note_on_c, 0, 79, 80
2, 16513, Note_on_c, 0, 50, 80
2, 16513, Note_on_c, 0, 65, 80
2, 16513, Note_on_c, 0, 77, 80
2, 16518, Note_on_c, 0, 67, 0
2, 16518, Note_on_c, 0, 49, 0
2, 16523, Note_on_c, 0, 79, 0
2, 16583, Note_on_c, 0, 77, 0
2, 16583, Note_on_c, 0, 65, 0
2, 16583, Note_on_c, 0, 74, 80
2, 16584, Note_on_c, 0, 53, 80
2, 16586, Note_on_c, 0, 50, 0
2, 16586, Note_on_c, 0, 62, 80
2, 16644, Note_on_c, 0, 51, 80
2, 16646, Note_on_c, 0, 60, 80
2, 16646, Note_on_c, 0, 65, 80
2, 16648, Note_on_c, 0, 69, 80
2, 16648, Note_on_c, 0, 72, 80
2, 16653, Note_on_c, 0, 62, 0
2, 16653, Note_on_c, 0, 74, 0
2, 16653, Note_on_c, 0, 53, 0
2, 16708, Note_on_c, 0, 50, 80
2, 16715, Note_on_c, 0, 51, 0
2, 16775, Note_on_c, 0, 48, 80
2, 16779, Note_on_c, 0, 50, 0
2, 16839, Note_on_c, 0, 48, 0
2, 16841, Note_on_c, 0, 46, 80
2, 16878, Note_on_c, 0, 65, 0
2, 16878, Note_on_c, 0, 69, 0
2, 16883, Note_on_c, 0, 72, 0
2, 16883, Note_on_c, 0, 60, 0
2, 16910, Note_on_c, 0, 46, 0
2, 16910, Note_on_c, 0, 45, 80
2, 16910, Note_on_c, 0, 65, 80
2, 16912, Note_on_c, 0, 75, 80
2, 16912, Note_on_c, 0, 77, 80
2, 16914, Note_on_c, 0, 69, 80
2, 16973, Note_on_c, 0, 45, 0
2, 16973, Note_on_c, 0, 43, 80
2, 17038, Note_on_c, 0, 41, 80
2, 17049, Note_on_c, 0, 43, 0
2, 17142, Note_on_c, 0, 41, 0
2, 17147, Note_on_c, 0, 69, 0
2, 17147, Note_on_c, 0, 65, 0
2, 17147, Note_on_c, 0, 75, 0
2, 17147, Note_on_c, 0, 77, 0
2, 17169, Note_on_c, 0, 75, 80
2, 17171, Note_on_c, 0, 66, 80
2, 17173, Note_on_c, 0, 39, 80
2, 17173, Note_on_c, 0, 78, 80
2, 17175, Note_on_c, 0, 70, 80
2, 17239, Note_on_c, 0, 42, 80
2, 17244, Note_on_c, 0, 39, 0
2, 17308, Note_on_c, 0, 46, 80
2, 17313, Note_on_c, 0, 42, 0
2, 17371, Note_on_c, 0, 51, 80
2, 17376, Note_on_c, 0, 46, 0
2, 17413, Note_on_c, 0, 75, 0
2, 17413, Note_on_c, 0, 66, 0
2, 17418, Note_on_c, 0, 78, 0
2, 17418, Note_on_c, 0, 70, 0
2, 17442, Note_on_c, 0, 50, 80
2, 17442, Note_on_c, 0, 65, 80
2, 17442, Note_on_c, 0, 70, 80
2, 17442, Note_on_c, 0, 74, 80
2, 17442, Note_on_c, 0, 77, 80
2, 17448, Note_on_c, 0, 51, 0
2, 17508, Note_on_c, 0, 53, 80
2, 17513, Note_on_c, 0, 50, 0
2, 17546, Note_on_c, 0, 65, 0
2, 17546, Note_on_c, 0, 77, 0
2, 17551, Note_on_c, 0, 70, 0
2, 17551, Note_on_c, 0, 74, 0
2, 17580, Note_on_c, 0, 58, 80
2, 17582, Note_on_c, 0, 77, 80
2, 17582, Note_on_c, 0, 82, 80
2, 17582, Note_on_c, 0, 86, 80
2, 17582, Note_on_c, 0, 89, 80
2, 17587, Note_on_c, 0, 53, 0
2, 17649, Note_on_c, 0, 58, 0
2, 17656, Note_on_c, 0, 62, 80
2, 17683, Note_on_c, 0, 77, 0
2, 17688, Note_on_c, 0, 82, 0
2, 17688, Note_on_c, 0, 86, 0
2, 17689, Note_on_c, 0, 89, 0
2, 17716, Note_on_c, 0, 63, 80
2, 17716, Note_on_c, 0, 78, 80
2, 17716, Note_on_c, 0, 82, 80
2, 17718, Note_on_c, 0, 62, 0
2, 17718, Note_on_c, 0, 87, 80
2, 17718, Note_on_c, 0, 90, 80
2, 17783, Note_on_c, 0, 66, 80
2, 17787, Note_on_c, 0, 63, 0
2, 17850, Note_on_c, 0, 70, 80
2, 17855, Note_on_c, 0, 66, 0
2, 17914, Note_on_c, 0, 72, 80
2, 17919, Note_on_c, 0, 70, 0
2, 17950, Note_on_c, 0, 87, 0
2, 17952, Note_on_c, 0, 82, 0
2, 17953, Note_on_c, 0, 90, 0
2, 17955, Note_on_c, 0, 78, 0
2, 17979, Note_on_c, 0, 74, 80
2, 17979, Note_on_c, 0, 89, 80
2, 17981, Note_on_c, 0, 77, 80
2, 17981, Note_on_c, 0, 82, 80
2, 17981, Note_on_c, 0, 86, 80
2, 17986, Note_on_c, 0, 72, 0
2, 18079, Note_on_c, 0, 77, 0
2, 18084, Note_on_c, 0, 82, 0
2, 18084, Note_on_c, 0, 74, 0
2, 18084, Note_on_c, 0, 86, 0
2, 18089, Note_on_c, 0, 89, 0
2, 18241, Note_on_c, 0, 48, 80
2, 18241, Note_on_c, 0, 64, 80
2, 18241, Note_on_c, 0, 70, 80
2, 18308, Note_on_c, 0, 48, 0
2, 18308, Note_on_c, 0, 52, 80
2, 18372, Note_on_c, 0, 52, 0
2, 18377, Note_on_c, 0, 55, 80
2, 18410, Note_on_c, 0, 64, 0
2, 18415, Note_on_c, 0, 70, 0
2, 18437, Note_on_c, 0, 53, 80
2, 18437, Note_on_c, 0, 63, 80
2, 18437, Note_on_c, 0, 69, 80
2, 18442, Note_on_c, 0, 72, 80
2, 18447, Note_on_c, 0, 55, 0
2, 18571, Note_on_c, 0, 74, 80
2, 18577, Note_on_c, 0, 72, 0
2, 18611, Note_on_c, 0, 69, 0
2, 18611, Note_on_c, 0, 53, 0
2, 18611, Note_on_c, 0, 63, 0
2, 18638, Note_on_c, 0, 41, 80
2, 18638, Note_on_c, 0, 53, 80
2, 18638, Note_on_c, 0, 63, 80
2, 18638, Note_on_c, 0, 69, 80
2, 18640, Note_on_c, 0, 72, 80
2, 18647, Note_on_c, 0, 74, 0
2, 18733, Note_on_c, 0, 41, 0
2, 18742, Note_on_c, 0, 72, 0
2, 18744, Note_on_c, 0, 63, 0
2, 18744, Note_on_c, 0, 69, 0
2, 18744, Note_on_c, 0, 53, 0
2, 18772, Note_on_c, 0, 46, 80
2, 18772, Note_on_c, 0, 53, 80
2, 18772, Note_on_c, 0, 70, 80
2, 18774, Note_on_c, 0, 62, 80
2, 18867, Note_on_c, 0, 62, 0
2, 18869, Note_on_c, 0, 46, 0
2, 18871, Note_on_c, 0, 70, 0
2, 18873, Note_on_c, 0, 53, 0
2, 18902, Note_on_c, 0, 53, 80
2, 18902, Note_on_c, 0, 65, 80
2, 18939, Note_on_c, 0, 65, 0
2, 18939, Note_on_c, 0, 53, 0
2, 18968, Note_on_c, 0, 55, 80
2, 18968, Note_on_c, 0, 63, 80
2, 19010, Note_on_c, 0, 63, 0
2, 19010, Note_on_c, 0, 55, 0
2, 19034, Note_on_c, 0, 53, 80
2, 19036, Note_on_c, 0, 62, 80
2, 19138, Note_on_c, 0, 62, 0
2, 19138, Note_on_c, 0, 53, 0
2, 19167, Note_on_c, 0, 51, 80
2, 19169, Note_on_c, 0, 60, 80
2, 19266, Note_on_c, 0, 60, 0
2, 19266, Note_on_c, 0, 51, 0
2, 19293, Note_on_c, 0, 50, 80
2, 19293, Note_on_c, 0, 58, 80
2, 19330, Note_on_c, 0, 58, 0
2, 19330, Note_on_c, 0, 50, 0
2, 19354, Note_on_c, 0, 51, 80
2, 19359, Note_on_c, 0, 60, 80
2, 19396, Note_on_c, 0, 60, 0
2, 19398, Note_on_c, 0, 51, 0
2, 19422, Note_on_c, 0, 53, 80
2, 19429, Note_on_c, 0, 62, 80
2, 19519, Note_on_c, 0, 62, 0
2, 19526, Note_on_c, 0, 53, 0
2, 19548, Note_on_c, 0, 53, 80
2, 19553, Note_on_c, 0, 65, 80
2, 19655, Note_on_c, 0, 65, 0
2, 19659, Note_on_c, 0, 53, 0
2, 19688, Note_on_c, 0, 54, 80
2, 19688, Note_on_c, 0, 66, 80
2, 19790, Note_on_c, 0, 66, 0
2, 19790, Note_on_c, 0, 54, 0
2, 19819, Note_on_c, 0, 54, 80
2, 19819, Note_on_c, 0, 66, 80
2, 19856, Note_on_c, 0, 66, 0
2, 19856, Note_on_c, 0, 54, 0
2, 19885, Note_on_c, 0, 56, 80
2, 19890, Note_on_c, 0, 68, 80
2, 19927, Note_on_c, 0, 56, 0
2, 19929, Note_on_c, 0, 68, 0
2, 19951, Note_on_c, 0, 58, 80
2, 19956, Note_on_c, 0, 70, 80
2, 19990, Note_on_c, 0, 58, 0
2, 19994, Note_on_c, 0, 70, 0
2, 20021, Note_on_c, 0, 59, 80
2, 20023, Note_on_c, 0, 71, 80
2, 20063, Note_on_c, 0, 59, 0
2, 20064, Note_on_c, 0, 71, 0
2, 20088, Note_on_c, 0, 61, 80
2, 20088, Note_on_c, 0, 73, 80
2, 20190, Note_on_c, 0, 61, 0
2, 20195, Note_on_c, 0, 73, 0
2, 20226, Note_on_c, 0, 74, 80
2, 20228, Note_on_c, 0, 62, 80
2, 20334, Note_on_c, 0, 62, 0
2, 20336, Note_on_c, 0, 74, 0
2, 20353, Note_on_c, 0, 71, 80
2, 20355, Note_on_c, 0, 62, 80
2, 20457, Note_on_c, 0, 62, 0
2, 20457, Note_on_c, 0, 71, 0
2, 20488, Note_on_c, 0, 66, 80
2, 20488, Note_on_c, 0, 74, 80
2, 20521, Note_on_c, 0, 66, 0
2, 20530, Note_on_c, 0, 74, 0
2, 20554, Note_on_c, 0, 67, 80
2, 20554, Note_on_c, 0, 76, 80
2, 20592, Note_on_c, 0, 76, 0
2, 20592, Note_on_c, 0, 67, 0
2, 20620, Note_on_c, 0, 74, 80
2, 20625, Note_on_c, 0, 66, 80
2, 20691, Note_on_c, 0, 66, 0
2, 20691, Note_on_c, 0, 62, 80
2, 20691, Note_on_c, 0, 78, 80
2, 20696, Note_on_c, 0, 74, 0
2, 20754, Note_on_c, 0, 59, 80
2, 20756, Note_on_c, 0, 62, 0
2, 20760, Note_on_c, 0, 83, 80
2, 20762, Note_on_c, 0, 78, 0
2, 20815, Note_on_c, 0, 54, 80
2, 20820, Note_on_c, 0, 86, 80
2, 20825, Note_on_c, 0, 83, 0
2, 20825, Note_on_c, 0, 59, 0
2, 20887, Note_on_c, 0, 62, 80
2, 20887, Note_on_c, 0, 71, 80
2, 20892, Note_on_c, 0, 54, 0
2, 20892, Note_on_c, 0, 86, 0
2, 20987, Note_on_c, 0, 62, 0
2, 20987, Note_on_c, 0, 71, 0
2, 21021, Note_on_c, 0, 66, 80
2, 21021, Note_on_c, 0, 74, 80
2, 21056, Note_on_c, 0, 66, 0
2, 21061, Note_on_c, 0, 74, 0
2, 21083, Note_on_c, 0, 76, 80
2, 21085, Note_on_c, 0, 67, 80
2, 21122, Note_on_c, 0, 67, 0
2, 21122, Note_on_c, 0, 76, 0
2, 21151, Note_on_c, 0, 74, 80
2, 21156, Note_on_c, 0, 66, 80
2, 21218, Note_on_c, 0, 78, 80
2, 21220, Note_on_c, 0, 66, 0
2, 21222, Note_on_c, 0, 62, 80
2, 21224, Note_on_c, 0, 74, 0
2, 21282, Note_on_c, 0, 59, 80
2, 21284, Note_on_c, 0, 62, 0
2, 21288, Note_on_c, 0, 78, 0
2, 21288, Note_on_c, 0, 83, 80
2, 21346, Note_on_c, 0, 54, 80
2, 21355, Note_on_c, 0, 59, 0
2, 21355, Note_on_c, 0, 86, 80
2, 21357, Note_on_c, 0, 83, 0
2, 21377, Note_on_c, 0, 86, 0
2, 21412, Note_on_c, 0, 53, 80
2, 21412, Note_on_c, 0, 74, 80
2, 21412, Note_on_c, 0, 80, 80
2, 21414, Note_on_c, 0, 83, 80
2, 21416, Note_on_c, 0, 54, 0
2, 21416, Note_on_c, 0, 86, 80
2, 21452, Note_on_c, 0, 53, 0
2, 21476, Note_on_c, 0, 55, 80
2, 21511, Note_on_c, 0, 83, 0
2, 21511, Note_on_c, 0, 80, 0
2, 21513, Note_on_c, 0, 86, 0
2, 21515, Note_on_c, 0, 74, 0
2, 21515, Note_on_c, 0, 55, 0
2, 21539, Note_on_c, 0, 56, 80
2, 21539, Note_on_c, 0, 77, 80
2, 21539, Note_on_c, 0, 83, 80
2, 21539, Note_on_c, 0, 86, 80
2, 21544, Note_on_c, 0, 89, 80
2, 21644, Note_on_c, 0, 77, 0
2, 21646, Note_on_c, 0, 56, 0
2, 21646, Note_on_c, 0, 89, 0
2, 21646, Note_on_c, 0, 83, 0
2, 21648, Note_on_c, 0, 86, 0
2, 21672, Note_on_c, 0, 86, 80
2, 21673, Note_on_c, 0, 80, 80
2, 21673, Note_on_c, 0, 92, 80
2, 21675, Note_on_c, 0, 47, 80
2, 21675, Note_on_c, 0, 89, 80
2, 21706, Note_on_c, 0, 47, 0
2, 21740, Note_on_c, 0, 48, 80
2, 21770, Note_on_c, 0, 48, 0
2, 21770, Note_on_c, 0, 86, 0
2, 21775, Note_on_c, 0, 80, 0
2, 21775, Note_on_c, 0, 92, 0
2, 21775, Note_on_c, 0, 89, 0
2, 21804, Note_on_c, 0, 50, 80
2, 21804, Note_on_c, 0, 71, 80
2, 21804, Note_on_c, 0, 80, 80
2, 21806, Note_on_c, 0, 77, 80
2, 21806, Note_on_c, 0, 83, 80
2, 21901, Note_on_c, 0, 77, 0
2, 21906, Note_on_c, 0, 80, 0
2, 21906, Note_on_c, 0, 50, 0
2, 21911, Note_on_c, 0, 71, 0
2, 21911, Note_on_c, 0, 83, 0
2, 21928, Note_on_c, 0, 51, 80
2, 21935, Note_on_c, 0, 72, 80
2, 21935, Note_on_c, 0, 75, 80
2, 21935, Note_on_c, 0, 79, 80
2, 21935, Note_on_c, 0, 84, 80
2, 21968, Note_on_c, 0, 84, 0
2, 21968, Note_on_c, 0, 75, 0
2, 21968, Note_on_c, 0, 79, 0
2, 21975, Note_on_c, 0, 72, 0
2, 21999, Note_on_c, 0, 74, 80
2, 21999, Note_on_c, 0, 77, 80
2, 22004, Note_on_c, 0, 86, 80
2, 22034, Note_on_c, 0, 86, 0
2, 22034, Note_on_c, 0, 77, 0
2, 22034, Note_on_c, 0, 51, 0
2, 22039, Note_on_c, 0, 74, 0
2, 22063, Note_on_c, 0, 48, 80
2, 22065, Note_on_c, 0, 75, 80
2, 22065, Note_on_c, 0, 79, 80
2, 22065, Note_on_c, 0, 87, 80
2, 22101, Note_on_c, 0, 87, 0
2, 22103, Note_on_c, 0, 79, 0
2, 22103, Note_on_c, 0, 75, 0
2, 22125, Note_on_c, 0, 72, 80
2, 22125, Note_on_c, 0, 75, 80
2, 22129, Note_on_c, 0, 84, 80
2, 22158, Note_on_c, 0, 48, 0
2, 22185, Note_on_c, 0, 51, 80
2, 22287, Note_on_c, 0, 51, 0
2, 22292, Note_on_c, 0, 84, 0
2, 22292, Note_on_c, 0, 75, 0
2, 22292, Note_on_c, 0, 72, 0
2, 22320, Note_on_c, 0, 52, 80
2, 22322, Note_on_c, 0, 73, 80
2, 22322, Note_on_c, 0, 79, 80
2, 22322, Note_on_c, 0, 82, 80
2, 22322, Note_on_c, 0, 85, 80
2, 22422, Note_on_c, 0, 52, 0
2, 22424, Note_on_c, 0, 82, 0
2, 22424, Note_on_c, 0, 73, 0
2, 22429, Note_on_c, 0, 79, 0
2, 22429, Note_on_c, 0, 85, 0
2, 22446, Note_on_c, 0, 74, 80
2, 22448, Note_on_c, 0, 53, 80
2, 22448, Note_on_c, 0, 80, 80
2, 22448, Note_on_c, 0, 83, 80
2, 22448, Note_on_c, 0, 86, 80
2, 22488, Note_on_c, 0, 53, 0
2, 22514, Note_on_c, 0, 55, 80
2, 22550, Note_on_c, 0, 80, 0
2, 22555, Note_on_c, 0, 55, 0
2, 22557, Note_on_c, 0, 74, 0
2, 22557, Note_on_c, 0, 83, 0
2, 22557, Note_on_c, 0, 86, 0
2, 22581, Note_on_c, 0, 56, 80
2, 22581, Note_on_c, 0, 77, 80
2, 22581, Note_on_c, 0, 83, 80
2, 22581, Note_on_c, 0, 86, 80
2, 22581, Note_on_c, 0, 89, 80
2, 22687, Note_on_c, 0, 86, 0
2, 22687, Note_on_c, 0, 77, 0
2, 22692, Note_on_c, 0, 56, 0
2, 22692, Note_on_c, 0, 83, 0
2, 22692, Note_on_c, 0, 89, 0
2, 22716, Note_on_c, 0, 89, 80
2, 22718, Note_on_c, 0, 47, 80
2, 22718, Note_on_c, 0, 86, 80
2, 22720, Note_on_c, 0, 92, 80
2, 22722, Note_on_c, 0, 80, 80
2, 22755, Note_on_c, 0, 47, 0
2, 22786, Note_on_c, 0, 48, 80
2, 22817, Note_on_c, 0, 48, 0
2, 22824, Note_on_c, 0, 80, 0
2, 22824, Note_on_c, 0, 92, 0
2, 22825, Note_on_c, 0, 86, 0
2, 22827, Note_on_c, 0, 89, 0
2, 22849, Note_on_c, 0, 50, 80
2, 22849, Note_on_c, 0, 80, 80
2, 22851, Note_on_c, 0, 83, 80
2, 22853, Note_on_c, 0, 71, 80
2, 22853, Note_on_c, 0, 77, 80
2, 22953, Note_on_c, 0, 77, 0
2, 22958, Note_on_c, 0, 83, 0
2, 22958, Note_on_c, 0, 50, 0
2, 22958, Note_on_c, 0, 80, 0
2, 22958, Note_on_c, 0, 71, 0
2, 22978, Note_on_c, 0, 51, 80
2, 22980, Note_on_c, 0, 84, 80
2, 22985, Note_on_c, 0, 79, 80
2, 22987, Note_on_c, 0, 72, 80
2, 22987, Note_on_c, 0, 75, 80
2, 23024, Note_on_c, 0, 75, 0
2, 23024, Note_on_c, 0, 79, 0
2, 23024, Note_on_c, 0, 72, 0
2, 23048, Note_on_c, 0, 77, 80
2, 23048, Note_on_c, 0, 86, 80
2, 23050, Note_on_c, 0, 74, 80
2, 23055, Note_on_c, 0, 84, 0
2, 23088, Note_on_c, 0, 77, 0
2, 23093, Note_on_c, 0, 74, 0
2, 23093, Note_on_c, 0, 51, 0
2, 23117, Note_on_c, 0, 48, 80
2, 23117, Note_on_c, 0, 75, 80
2, 23119, Note_on_c, 0, 87, 80
2, 23121, Note_on_c, 0, 86, 0
2, 23121, Note_on_c, 0, 79, 80
2, 23155, Note_on_c, 0, 79, 0
2, 23155, Note_on_c, 0, 75, 0
2, 23182, Note_on_c, 0, 72, 80
2, 23182, Note_on_c, 0, 75, 80
2, 23182, Note_on_c, 0, 84, 80
2, 23190, Note_on_c, 0, 87, 0
2, 23221, Note_on_c, 0, 48, 0
2, 23248, Note_on_c, 0, 51, 80
2, 23356, Note_on_c, 0, 51, 0
2, 23356, Note_on_c, 0, 84, 0
2, 23356, Note_on_c, 0, 72, 0
2, 23356, Note_on_c, 0, 75, 0
2, 23383, Note_on_c, 0, 51, 80
2, 23388, Note_on_c, 0, 73, 80
2, 23388, Note_on_c, 0, 79, 80
2, 23388, Note_on_c, 0, 81, 80
2, 23388, Note_on_c, 0, 85, 80
2, 23485, Note_on_c, 0, 73, 0
2, 23492, Note_on_c, 0, 81, 0
2, 23492, Note_on_c, 0, 51, 0
2, 23492, Note_on_c, 0, 79, 0
2, 23492, Note_on_c, 0, 85, 0
2, 23514, Note_on_c, 0, 50, 80
2, 23514, Note_on_c, 0, 74, 80
2, 23516, Note_on_c, 0, 78, 80
2, 23516, Note_on_c, 0, 86, 80
2, 23518, Note_on_c, 0, 81, 80
2, 23557, Note_on_c, 0, 81, 0
2, 23557, Note_on_c, 0, 78, 0
2, 23557, Note_on_c, 0, 86, 0
2, 23557, Note_on_c, 0, 74, 0
2, 23581, Note_on_c, 0, 75, 80
2, 23581, Note_on_c, 0, 78, 80
2, 23581, Note_on_c, 0, 81, 80
2, 23581, Note_on_c, 0, 87, 80
2, 23618, Note_on_c, 0, 50, 0
2, 23645, Note_on_c, 0, 48, 80
2, 23683, Note_on_c, 0, 87, 0
2, 23685, Note_on_c, 0, 75, 0
2, 23685, Note_on_c, 0, 78, 0
2, 23687, Note_on_c, 0, 81, 0
2, 23709, Note_on_c, 0, 78, 80
2, 23709, Note_on_c, 0, 86, 80
2, 23711, Note_on_c, 0, 74, 80
2, 23711, Note_on_c, 0, 81, 80
2, 23744, Note_on_c, 0, 48, 0
2, 23778, Note_on_c, 0, 46, 80
2, 23813, Note_on_c, 0, 86, 0
2, 23818, Note_on_c, 0, 81, 0
2, 23818, Note_on_c, 0, 78, 0
2, 23820, Note_on_c, 0, 74, 0
2, 23847, Note_on_c, 0, 88, 80
2, 23849, Note_on_c, 0, 76, 80
2, 23876, Note_on_c, 0, 46, 0
2, 23880, Note_on_c, 0, 76, 0
2, 23882, Note_on_c, 0, 88, 0
2, 23911, Note_on_c, 0, 45, 80
2, 23913, Note_on_c, 0, 78, 80
2, 23913, Note_on_c, 0, 84, 80
2, 23913, Note_on_c, 0, 86, 80
2, 23913, Note_on_c, 0, 90, 80
2, 24010, Note_on_c, 0, 45, 0
2, 24012, Note_on_c, 0, 86, 0
2, 24012, Note_on_c, 0, 78, 0
2, 24012, Note_on_c, 0, 84, 0
2, 24012, Note_on_c, 0, 90, 0
2, 24039, Note_on_c, 0, 43, 80
2, 24044, Note_on_c, 0, 78, 80
2, 24046, Note_on_c, 0, 86, 80
2, 24046, Note_on_c, 0, 90, 80
2, 24048, Note_on_c, 0, 82, 80
2, 24081, Note_on_c, 0, 82, 0
2, 24081, Note_on_c, 0, 86, 0
2, 24086, Note_on_c, 0, 90, 0
2, 24086, Note_on_c, 0, 78, 0
2, 24110, Note_on_c, 0, 79, 80
2, 24110, Note_on_c, 0, 82, 80
2, 24110, Note_on_c, 0, 86, 80
2, 24115, Note_on_c, 0, 91, 80
2, 24148, Note_on_c, 0, 43, 0
2, 24175, Note_on_c, 0, 58, 80
2, 24175, Note_on_c, 0, 67, 80
2, 24184, Note_on_c, 0, 62, 80
2, 24213, Note_on_c, 0, 91, 0
2, 24213, Note_on_c, 0, 82, 0
2, 24215, Note_on_c, 0, 86, 0
2, 24215, Note_on_c, 0, 79, 0
2, 24241, Note_on_c, 0, 82, 80
2, 24241, Note_on_c, 0, 91, 80
2, 24243, Note_on_c, 0, 79, 80
2, 24243, Note_on_c, 0, 86, 80
2, 24272, Note_on_c, 0, 58, 0
2, 24274, Note_on_c, 0, 62, 0
2, 24276, Note_on_c, 0, 67, 0
2, 24303, Note_on_c, 0, 50, 80
2, 24345, Note_on_c, 0, 82, 0
2, 24345, Note_on_c, 0, 86, 0
2, 24350, Note_on_c, 0, 79, 0
2, 24350, Note_on_c, 0, 91, 0
2, 24374, Note_on_c, 0, 81, 80
2, 24376, Note_on_c, 0, 93, 80
2, 24411, Note_on_c, 0, 93, 0
2, 24413, Note_on_c, 0, 50, 0
2, 24418, Note_on_c, 0, 81, 0
2, 24438, Note_on_c, 0, 58, 80
2, 24440, Note_on_c, 0, 67, 80
2, 24440, Note_on_c, 0, 82, 80
2, 24440, Note_on_c, 0, 86, 80
2, 24442, Note_on_c, 0, 91, 80
2, 24442, Note_on_c, 0, 94, 80
2, 24444, Note_on_c, 0, 62, 80
2, 24534, Note_on_c, 0, 58, 0
2, 24536, Note_on_c, 0, 82, 0
2, 24536, Note_on_c, 0, 86, 0
2, 24536, Note_on_c, 0, 62, 0
2, 24538, Note_on_c, 0, 67, 0
2, 24540, Note_on_c, 0, 91, 0
2, 24540, Note_on_c, 0, 94, 0
2, 24564, Note_on_c, 0, 62, 80
2, 24564, Note_on_c, 0, 94, 80
2, 24566, Note_on_c, 0, 82, 80
2, 24566, Note_on_c, 0, 86, 80
2, 24566, Note_on_c, 0, 90, 80
2, 24600, Note_on_c, 0, 94, 0
2, 24601, Note_on_c, 0, 86, 0
2, 24601, Note_on_c, 0, 62, 0
2, 24601, Note_on_c, 0, 82, 0
2, 24601, Note_on_c, 0, 90, 0
2, 24630, Note_on_c, 0, 60, 80
2, 24630, Note_on_c, 0, 81, 80
2, 24630, Note_on_c, 0, 86, 80
2, 24630, Note_on_c, 0, 90, 80
2, 24632, Note_on_c, 0, 93, 80
2, 24725, Note_on_c, 0, 93, 0
2, 24727, Note_on_c, 0, 81, 0
2, 24727, Note_on_c, 0, 60, 0
2, 24727, Note_on_c, 0, 90, 0
2, 24729, Note_on_c, 0, 86, 0
2, 24753, Note_on_c, 0, 58, 80
2, 24755, Note_on_c, 0, 79, 80
2, 24755, Note_on_c, 0, 86, 80
2, 24755, Note_on_c, 0, 91, 80
2, 24852, Note_on_c, 0, 58, 0
2, 24857, Note_on_c, 0, 86, 0
2, 24859, Note_on_c, 0, 91, 0
2, 24861, Note_on_c, 0, 79, 0
2, 24881, Note_on_c, 0, 91, 80
2, 24883, Note_on_c, 0, 79, 80
2, 24885, Note_on_c, 0, 67, 80
2, 24913, Note_on_c, 0, 67, 0
2, 24920, Note_on_c, 0, 79, 0
2, 24920, Note_on_c, 0, 91, 0
2, 24947, Note_on_c, 0, 66, 80
2, 24947, Note_on_c, 0, 78, 80
2, 24949, Note_on_c, 0, 90, 80
2, 25049, Note_on_c, 0, 66, 0
2, 25051, Note_on_c, 0, 90, 0
2, 25051, Note_on_c, 0, 78, 0
2, 25081, Note_on_c, 0, 78, 80
2, 25081, Note_on_c, 0, 90, 80
2, 25121, Note_on_c, 0, 90, 0
2, 25121, Note_on_c, 0, 78, 0
2, 25150, Note_on_c, 0, 77, 80
2, 25150, Note_on_c, 0, 89, 80
2, 25183, Note_on_c, 0, 77, 0
2, 25192, Note_on_c, 0, 89, 0
2, 25219, Note_on_c, 0, 78, 80
2, 25219, Note_on_c, 0, 90, 80
2, 25254, Note_on_c, 0, 90, 0
2, 25254, Note_on_c, 0, 78, 0
2, 25283, Note_on_c, 0, 77, 80
2, 25283, Note_on_c, 0, 89, 80
2, 25322, Note_on_c, 0, 89, 0
2, 25322, Note_on_c, 0, 77, 0
2, 25351, Note_on_c, 0, 90, 80
2, 25353, Note_on_c, 0, 78, 80
2, 25392, Note_on_c, 0, 78, 0
2, 25392, Note_on_c, 0, 90, 0
2, 25419, Note_on_c, 0, 77, 80
2, 25424, Note_on_c, 0, 89, 80
2, 25458, Note_on_c, 0, 77, 0
2, 25463, Note_on_c, 0, 89, 0
2, 25491, Note_on_c, 0, 78, 80
2, 25491, Note_on_c, 0, 90, 80
2, 25527, Note_on_c, 0, 90, 0
2, 25527, Note_on_c, 0, 78, 0
2, 25556, Note_on_c, 0, 77, 80
2, 25560, Note_on_c, 0, 89, 80
2, 25594, Note_on_c, 0, 77, 0
2, 25599, Note_on_c, 0, 89, 0
2, 25621, Note_on_c, 0, 51, 80
2, 25623, Note_on_c, 0, 78, 80
2, 25623, Note_on_c, 0, 90, 80
2, 25689, Note_on_c, 0, 77, 80
2, 25689, Note_on_c, 0, 89, 80
2, 25694, Note_on_c, 0, 90, 0
2, 25694, Note_on_c, 0, 78, 0
2, 25753, Note_on_c, 0, 75, 80
2, 25755, Note_on_c, 0, 77, 0
2, 25755, Note_on_c, 0, 54, 80
2, 25755, Note_on_c, 0, 56, 80
2, 25755, Note_on_c, 0, 60, 80
2, 25755, Note_on_c, 0, 87, 80
2, 25762, Note_on_c, 0, 89, 0
2, 25820, Note_on_c, 0, 68, 80
2, 25824, Note_on_c, 0, 75, 0
2, 25824, Note_on_c, 0, 72, 80
2, 25824, Note_on_c, 0, 80, 80
2, 25829, Note_on_c, 0, 87, 0
2, 25858, Note_on_c, 0, 60, 0
2, 25860, Note_on_c, 0, 54, 0
2, 25860, Note_on_c, 0, 51, 0
2, 25862, Note_on_c, 0, 56, 0
2, 25886, Note_on_c, 0, 44, 80
2, 25923, Note_on_c, 0, 80, 0
2, 25930, Note_on_c, 0, 72, 0
2, 25930, Note_on_c, 0, 68, 0
2, 25957, Note_on_c, 0, 67, 80
2, 25957, Note_on_c, 0, 72, 80
2, 25957, Note_on_c, 0, 79, 80
2, 25992, Note_on_c, 0, 79, 0
2, 25992, Note_on_c, 0, 72, 0
2, 25992, Note_on_c, 0, 67, 0
2, 26016, Note_on_c, 0, 56, 80
2, 26018, Note_on_c, 0, 54, 80
2, 26018, Note_on_c, 0, 60, 80
2, 26023, Note_on_c, 0, 66, 80
2, 26023, Note_on_c, 0, 72, 80
2, 26023, Note_on_c, 0, 78, 80
2, 26118, Note_on_c, 0, 66, 0
2, 26118, Note_on_c, 0, 54, 0
2, 26118, Note_on_c, 0, 44, 0
2, 26120, Note_on_c, 0, 60, 0
2, 26120, Note_on_c, 0, 56, 0
2, 26125, Note_on_c, 0, 78, 0
2, 26127, Note_on_c, 0, 72, 0
2, 26151, Note_on_c, 0, 49, 80
2, 26151, Note_on_c, 0, 66, 80
2, 26151, Note_on_c, 0, 78, 80
2, 26156, Note_on_c, 0, 73, 80
2, 26184, Note_on_c, 0, 73, 0
2, 26186, Note_on_c, 0, 66, 0
2, 26191, Note_on_c, 0, 78, 0
2, 26215, Note_on_c, 0, 65, 80
2, 26215, Note_on_c, 0, 68, 80
2, 26215, Note_on_c, 0, 73, 80
2, 26215, Note_on_c, 0, 77, 80
2, 26280, Note_on_c, 0, 53, 80
2, 26280, Note_on_c, 0, 56, 80
2, 26280, Note_on_c, 0, 61, 80
2, 26315, Note_on_c, 0, 77, 0
2, 26315, Note_on_c, 0, 73, 0
2, 26315, Note_on_c, 0, 65, 0
2, 26322, Note_on_c, 0, 68, 0
2, 26344, Note_on_c, 0, 65, 80
2, 26344, Note_on_c, 0, 77, 80
2, 26346, Note_on_c, 0, 70, 80
2, 26346, Note_on_c, 0, 73, 80
2, 26379, Note_on_c, 0, 49, 0
2, 26379, Note_on_c, 0, 61, 0
2, 26384, Note_on_c, 0, 56, 0
2, 26384, Note_on_c, 0, 53, 0
2, 26411, Note_on_c, 0, 46, 80
2, 26473, Note_on_c, 0, 49, 80
2, 26516, Note_on_c, 0, 49, 0
2, 26540, Note_on_c, 0, 51, 80
2, 26579, Note_on_c, 0, 51, 0
2, 26606, Note_on_c, 0, 53, 80
2, 26641, Note_on_c, 0, 46, 0
2, 26641, Note_on_c, 0, 65, 0
2, 26641, Note_on_c, 0, 77, 0
2, 26646, Note_on_c, 0, 73, 0
2, 26646, Note_on_c, 0, 70, 0
2, 26646, Note_on_c, 0, 53, 0
2, 26668, Note_on_c, 0, 54, 80
2, 26668, Note_on_c, 0, 63, 80
2, 26673, Note_on_c, 0, 42, 80
2, 26673, Note_on_c, 0, 70, 80
2, 26673, Note_on_c, 0, 75, 80
2, 26775, Note_on_c, 0, 75, 0
2, 26775, Note_on_c, 0, 42, 0
2, 26775, Note_on_c, 0, 70, 0
2, 26775, Note_on_c, 0, 54, 0
2, 26777, Note_on_c, 0, 63, 0
2, 26799, Note_on_c, 0, 41, 80
2, 26801, Note_on_c, 0, 53, 80
2, 26803, Note_on_c, 0, 70, 80
2, 26805, Note_on_c, 0, 74, 80
2, 26807, Note_on_c, 0, 62, 80
2, 26904, Note_on_c, 0, 41, 0
2, 26908, Note_on_c, 0, 53, 0
2, 26908, Note_on_c, 0, 62, 0
2, 26908, Note_on_c, 0, 70, 0
2, 26913, Note_on_c, 0, 74, 0
2, 26935, Note_on_c, 0, 41, 80
2, 26940, Note_on_c, 0, 53, 80
2, 26940, Note_on_c, 0, 63, 80
2, 26940, Note_on_c, 0, 69, 80
2, 26940, Note_on_c, 0, 72, 80
2, 27035, Note_on_c, 0, 41, 0
2, 27040, Note_on_c, 0, 53, 0
2, 27040, Note_on_c, 0, 72, 0
2, 27040, Note_on_c, 0, 63, 0
2, 27047, Note_on_c, 0, 69, 0
2, 27064, Note_on_c, 0, 41, 80
2, 27069, Note_on_c, 0, 53, 80
2, 27069, Note_on_c, 0, 68, 80
2, 27069, Note_on_c, 0, 71, 80
2, 27073, Note_on_c, 0, 62, 80
2, 27167, Note_on_c, 0, 41, 0
2, 27168, Note_on_c, 0, 62, 0
2, 27173, Note_on_c, 0, 71, 0
2, 27175, Note_on_c, 0, 68, 0
2, 27175, Note_on_c, 0, 53, 0
2, 27199, Note_on_c, 0, 41, 80
2, 27199, Note_on_c, 0, 53, 80
2, 27199, Note_on_c, 0, 63, 80
2, 27204, Note_on_c, 0, 69, 80
2, 27204, Note_on_c, 0, 72, 80
2, 27294, Note_on_c, 0, 41, 0
2, 27303, Note_on_c, 0, 69, 0
2, 27303, Note_on_c, 0, 53, 0
2, 27303, Note_on_c, 0, 63, 0
2, 27303, Note_on_c, 0, 72, 0
2, 27325, Note_on_c, 0, 53, 80
2, 27327, Note_on_c, 0, 65, 80
2, 27364, Note_on_c, 0, 65, 0
2, 27366, Note_on_c, 0, 53, 0
2, 27393, Note_on_c, 0, 55, 80
2, 27395, Note_on_c, 0, 63, 80
2, 27431, Note_on_c, 0, 63, 0
2, 27431, Note_on_c, 0, 55, 0
2, 27455, Note_on_c, 0, 53, 80
2, 27463, Note_on_c, 0, 62, 80
2, 27558, Note_on_c, 0, 62, 0
2, 27558, Note_on_c, 0, 53, 0
2, 27587, Note_on_c, 0, 51, 80
2, 27589, Note_on_c, 0, 60, 80
2, 27691, Note_on_c, 0, 51, 0
2, 27693, Note_on_c, 0, 60, 0
2, 27717, Note_on_c, 0, 58, 80
2, 27721, Note_on_c, 0, 50, 80
2, 27757, Note_on_c, 0, 58, 0
2, 27762, Note_on_c, 0, 50, 0
2, 27782, Note_on_c, 0, 51, 80
2, 27784, Note_on_c, 0, 60, 80
2, 27821, Note_on_c, 0, 51, 0
2, 27826, Note_on_c, 0, 60, 0
2, 27853, Note_on_c, 0, 53, 80
2, 27855, Note_on_c, 0, 62, 80
2, 27959, Note_on_c, 0, 62, 0
2, 27959, Note_on_c, 0, 53, 0
2, 27989, Note_on_c, 0, 53, 80
2, 27989, Note_on_c, 0, 65, 80
2, 28093, Note_on_c, 0, 65, 0
2, 28093, Note_on_c, 0, 53, 0
2, 28122, Note_on_c, 0, 54, 80
2, 28124, Note_on_c, 0, 66, 80
2, 28227, Note_on_c, 0, 66, 0
2, 28227, Note_on_c, 0, 54, 0
2, 28258, Note_on_c, 0, 54, 80
2, 28260, Note_on_c, 0, 66, 80
2, 28294, Note_on_c, 0, 66, 0
2, 28294, Note_on_c, 0, 54, 0
2, 28324, Note_on_c, 0, 56, 80
2, 28326, Note_on_c, 0, 68, 80
2, 28364, Note_on_c, 0, 68, 0
2, 28366, Note_on_c, 0, 56, 0
2, 28392, Note_on_c, 0, 58, 80
2, 28392, Note_on_c, 0, 70, 80
2, 28426, Note_on_c, 0, 58, 0
2, 28438, Note_on_c, 0, 70, 0
2, 28460, Note_on_c, 0, 71, 80
2, 28462, Note_on_c, 0, 59, 80
2, 28506, Note_on_c, 0, 59, 0
2, 28506, Note_on_c, 0, 71, 0
2, 28530, Note_on_c, 0, 61, 80
2, 28535, Note_on_c, 0, 73, 80
2, 28630, Note_on_c, 0, 61, 0
2, 28634, Note_on_c, 0, 73, 0
2, 28661, Note_on_c, 0, 74, 80
2, 28666, Note_on_c, 0, 62, 80
2, 28763, Note_on_c, 0, 62, 0
2, 28768, Note_on_c, 0, 74, 0
2, 28790, Note_on_c, 0, 62, 80
2, 28790, Note_on_c, 0, 71, 80
2, 28894, Note_on_c, 0, 62, 0
2, 28898, Note_on_c, 0, 71, 0
2, 28925, Note_on_c, 0, 66, 80
2, 28925, Note_on_c, 0, 74, 80
2, 28961, Note_on_c, 0, 66, 0
2, 28966, Note_on_c, 0, 74, 0
2, 28992, Note_on_c, 0, 67, 80
2, 28992, Note_on_c, 0, 76, 80
2, 29026, Note_on_c, 0, 76, 0
2, 29026, Note_on_c, 0, 67, 0
2, 29055, Note_on_c, 0, 74, 80
2, 29060, Note_on_c, 0, 66, 80
2, 29122, Note_on_c, 0, 78, 80
2, 29124, Note_on_c, 0, 66, 0
2, 29126, Note_on_c, 0, 62, 80
2, 29131, Note_on_c, 0, 74, 0
2, 29186, Note_on_c, 0, 59, 80
2, 29193, Note_on_c, 0, 62, 0
2, 29193, Note_on_c, 0, 78, 0
2, 29193, Note_on_c, 0, 83, 80
2, 29253, Note_on_c, 0, 54, 80
2, 29255, Note_on_c, 0, 86, 80
2, 29259, Note_on_c, 0, 59, 0
2, 29264, Note_on_c, 0, 83, 0
2, 29322, Note_on_c, 0, 71, 80
2, 29324, Note_on_c, 0, 54, 0
2, 29324, Note_on_c, 0, 86, 0
2, 29324, Note_on_c, 0, 62, 80
2, 29421, Note_on_c, 0, 62, 0
2, 29421, Note_on_c, 0, 71, 0
2, 29449, Note_on_c, 0, 66, 80
2, 29451, Note_on_c, 0, 74, 80
2, 29485, Note_on_c, 0, 66, 0
2, 29490, Note_on_c, 0, 74, 0
2, 29519, Note_on_c, 0, 67, 80
2, 29520, Note_on_c, 0, 76, 80
2, 29554, Note_on_c, 0, 76, 0
2, 29554, Note_on_c, 0, 67, 0
2, 29583, Note_on_c, 0, 66, 80
2, 29583, Note_on_c, 0, 74, 80
2, 29656, Note_on_c, 0, 66, 0
2, 29656, Note_on_c, 0, 62, 80
2, 29656, Note_on_c, 0, 78, 80
2, 29658, Note_on_c, 0, 74, 0
2, 29717, Note_on_c, 0, 59, 80
2, 29719, Note_on_c, 0, 62, 0
2, 29719, Note_on_c, 0, 83, 80
2, 29721, Note_on_c, 0, 78, 0
2, 29781, Note_on_c, 0, 54, 80
2, 29783, Note_on_c, 0, 86, 80
2, 29787, Note_on_c, 0, 59, 0
2, 29789, Note_on_c, 0, 83, 0
2, 29820, Note_on_c, 0, 86, 0
2, 29844, Note_on_c, 0, 80, 80
2, 29844, Note_on_c, 0, 83, 80
2, 29844, Note_on_c, 0, 86, 80
2, 29846, Note_on_c, 0, 53, 80
2, 29846, Note_on_c, 0, 74, 80
2, 29848, Note_on_c, 0, 54, 0
2, 29885, Note_on_c, 0, 53, 0
2, 29907, Note_on_c, 0, 55, 80
2, 29943, Note_on_c, 0, 80, 0
2, 29945, Note_on_c, 0, 86, 0
2, 29945, Note_on_c, 0, 74, 0
2, 29950, Note_on_c, 0, 83, 0
2, 29950, Note_on_c, 0, 55, 0
2, 29970, Note_on_c, 0, 56, 80
2, 29972, Note_on_c, 0, 77, 80
2, 29972, Note_on_c, 0, 83, 80
2, 29972, Note_on_c, 0, 86, 80
2, 29972, Note_on_c, 0, 89, 80
2, 30069, Note_on_c, 0, 77, 0
2, 30069, Note_on_c, 0, 56, 0
2, 30071, Note_on_c, 0, 86, 0
2, 30072, Note_on_c, 0, 83, 0
2, 30072, Note_on_c, 0, 89, 0
2, 30099, Note_on_c, 0, 47, 80
2, 30101, Note_on_c, 0, 80, 80
2, 30101, Note_on_c, 0, 86, 80
2, 30101, Note_on_c, 0, 89, 80
2, 30101, Note_on_c, 0, 92, 80
2, 30135, Note_on_c, 0, 47, 0
2, 30166, Note_on_c, 0, 48, 80
2, 30196, Note_on_c, 0, 48, 0
2, 30201, Note_on_c, 0, 92, 0
2, 30201, Note_on_c, 0, 80, 0
2, 30201, Note_on_c, 0, 86, 0
2, 30201, Note_on_c, 0, 89, 0
2, 30228, Note_on_c, 0, 50, 80
2, 30230, Note_on_c, 0, 71, 80
2, 30230, Note_on_c, 0, 77, 80
2, 30230, Note_on_c, 0, 80, 80
2, 30230, Note_on_c, 0, 83, 80
2, 30325, Note_on_c, 0, 77, 0
2, 30327, Note_on_c, 0, 80, 0
2, 30329, Note_on_c, 0, 50, 0
2, 30329, Note_on_c, 0, 71, 0
2, 30331, Note_on_c, 0, 83, 0
2, 30355, Note_on_c, 0, 51, 80
2, 30357, Note_on_c, 0, 72, 80
2, 30357, Note_on_c, 0, 75, 80
2, 30357, Note_on_c, 0, 84, 80
2, 30361, Note_on_c, 0, 79, 80
2, 30392, Note_on_c, 0, 75, 0
2, 30397, Note_on_c, 0, 79, 0
2, 30397, Note_on_c, 0, 72, 0
2, 30419, Note_on_c, 0, 77, 80
2, 30421, Note_on_c, 0, 74, 80
2, 30423, Note_on_c, 0, 84, 0
2, 30423, Note_on_c, 0, 86, 80
2, 30456, Note_on_c, 0, 51, 0
2, 30456, Note_on_c, 0, 77, 0
2, 30461, Note_on_c, 0, 74, 0
2, 30485, Note_on_c, 0, 48, 80
2, 30487, Note_on_c, 0, 87, 80
2, 30489, Note_on_c, 0, 86, 0
2, 30489, Note_on_c, 0, 75, 80
2, 30489, Note_on_c, 0, 79, 80
2, 30525, Note_on_c, 0, 79, 0
2, 30527, Note_on_c, 0, 75, 0
2, 30555, Note_on_c, 0, 72, 80
2, 30555, Note_on_c, 0, 75, 80
2, 30555, Note_on_c, 0, 84, 80
2, 30560, Note_on_c, 0, 87, 0
2, 30591, Note_on_c, 0, 48, 0
2, 30620, Note_on_c, 0, 51, 80
2, 30728, Note_on_c, 0, 51, 0
2, 30728, Note_on_c, 0, 84, 0
2, 30728, Note_on_c, 0, 72, 0
2, 30728, Note_on_c, 0, 75, 0
2, 30752, Note_on_c, 0, 52, 80
2, 30757, Note_on_c, 0, 73, 80
2, 30757, Note_on_c, 0, 79, 80
2, 30757, Note_on_c, 0, 82, 80
2, 30759, Note_on_c, 0, 85, 80
2, 30856, Note_on_c, 0, 52, 0
2, 30861, Note_on_c, 0, 82, 0
2, 30861, Note_on_c, 0, 73, 0
2, 30865, Note_on_c, 0, 85, 0
2, 30867, Note_on_c, 0, 79, 0
2, 30888, Note_on_c, 0, 74, 80
2, 30889, Note_on_c, 0, 80, 80
2, 30889, Note_on_c, 0, 86, 80
2, 30891, Note_on_c, 0, 53, 80
2, 30891, Note_on_c, 0, 83, 80
2, 30929, Note_on_c, 0, 53, 0
2, 30958, Note_on_c, 0, 55, 80
2, 30991, Note_on_c, 0, 80, 0
2, 30996, Note_on_c, 0, 55, 0
2, 30996, Note_on_c, 0, 86, 0
2, 30998, Note_on_c, 0, 74, 0
2, 31000, Note_on_c, 0, 83, 0
2, 31020, Note_on_c, 0, 56, 80
2, 31025, Note_on_c, 0, 83, 80
2, 31025, Note_on_c, 0, 89, 80
2, 31027, Note_on_c, 0, 77, 80
2, 31027, Note_on_c, 0, 86, 80
2, 31124, Note_on_c, 0, 77, 0
2, 31126, Note_on_c, 0, 83, 0
2, 31126, Note_on_c, 0, 56, 0
2, 31126, Note_on_c, 0, 86, 0
2, 31130, Note_on_c, 0, 89, 0
2, 31154, Note_on_c, 0, 47, 80
2, 31154, Note_on_c, 0, 80, 80
2, 31154, Note_on_c, 0, 86, 80
2, 31154, Note_on_c, 0, 89, 80
2, 31154, Note_on_c, 0, 92, 80
2, 31188, Note_on_c, 0, 47, 0
2, 31225, Note_on_c, 0, 48, 80
2, 31254, Note_on_c, 0, 48, 0
2, 31256, Note_on_c, 0, 80, 0
2, 31258, Note_on_c, 0, 86, 0
2, 31260, Note_on_c, 0, 89, 0
2, 31260, Note_on_c, 0, 92, 0
2, 31287, Note_on_c, 0, 50, 80
2, 31287, Note_on_c, 0, 71, 80
2, 31287, Note_on_c, 0, 77, 80
2, 31289, Note_on_c, 0, 80, 80
2, 31291, Note_on_c, 0, 83, 80
2, 31388, Note_on_c, 0, 80, 0
2, 31388, Note_on_c, 0, 77, 0
2, 31388, Note_on_c, 0, 50, 0
2, 31392, Note_on_c, 0, 71, 0
2, 31392, Note_on_c, 0, 83, 0
2, 31415, Note_on_c, 0, 51, 80
2, 31421, Note_on_c, 0, 72, 80
2, 31421, Note_on_c, 0, 75, 80
2, 31421, Note_on_c, 0, 79, 80
2, 31421, Note_on_c, 0, 84, 80
2, 31459, Note_on_c, 0, 79, 0
2, 31459, Note_on_c, 0, 75, 0
2, 31459, Note_on_c, 0, 72, 0
2, 31486, Note_on_c, 0, 74, 80
2, 31488, Note_on_c, 0, 84, 0
2, 31488, Note_on_c, 0, 77, 80
2, 31488, Note_on_c, 0, 86, 80
2, 31518, Note_on_c, 0, 77, 0
2, 31518, Note_on_c, 0, 51, 0
2, 31525, Note_on_c, 0, 74, 0
2, 31552, Note_on_c, 0, 87, 80
2, 31554, Note_on_c, 0, 86, 0
2, 31554, Note_on_c, 0, 48, 80
2, 31554, Note_on_c, 0, 79, 80
2, 31556, Note_on_c, 0, 75, 80
2, 31589, Note_on_c, 0, 75, 0
2, 31589, Note_on_c, 0, 79, 0
2, 31618, Note_on_c, 0, 72, 80
2, 31618, Note_on_c, 0, 75, 80
2, 31620, Note_on_c, 0, 84, 80
2, 31622, Note_on_c, 0, 87, 0
2, 31651, Note_on_c, 0, 48, 0
2, 31681, Note_on_c, 0, 51, 80
2, 31785, Note_on_c, 0, 51, 0
2, 31785, Note_on_c, 0, 84, 0
2, 31785, Note_on_c, 0, 75, 0
2, 31790, Note_on_c, 0, 72, 0
2, 31807, Note_on_c, 0, 51, 80
2, 31816, Note_on_c, 0, 73, 80
2, 31816, Note_on_c, 0, 81, 80
2, 31821, Note_on_c, 0, 79, 80
2, 31821, Note_on_c, 0, 85, 80
2, 31916, Note_on_c, 0, 73, 0
2, 31916, Note_on_c, 0, 51, 0
2, 31918, Note_on_c, 0, 79, 0
2, 31920, Note_on_c, 0, 81, 0
2, 31921, Note_on_c, 0, 85, 0
2, 31942, Note_on_c, 0, 74, 80
2, 31944, Note_on_c, 0, 50, 80
2, 31945, Note_on_c, 0, 78, 80
2, 31945, Note_on_c, 0, 81, 80
2, 31945, Note_on_c, 0, 86, 80
2, 31979, Note_on_c, 0, 81, 0
2, 31981, Note_on_c, 0, 78, 0
2, 31981, Note_on_c, 0, 86, 0
2, 31986, Note_on_c, 0, 74, 0
2, 32008, Note_on_c, 0, 87, 80
2, 32010, Note_on_c, 0, 75, 80
2, 32010, Note_on_c, 0, 78, 80
2, 32010, Note_on_c, 0, 81, 80
2, 32047, Note_on_c, 0, 50, 0
2, 32076, Note_on_c, 0, 48, 80
2, 32107, Note_on_c, 0, 87, 0
2, 32109, Note_on_c, 0, 75, 0
2, 32111, Note_on_c, 0, 78, 0
2, 32111, Note_on_c, 0, 81, 0
2, 32137, Note_on_c, 0, 74, 80
2, 32139, Note_on_c, 0, 78, 80
2, 32139, Note_on_c, 0, 81, 80
2, 32139, Note_on_c, 0, 86, 80
2, 32173, Note_on_c, 0, 48, 0
2, 32204, Note_on_c, 0, 46, 80
2, 32243, Note_on_c, 0, 78, 0
2, 32245, Note_on_c, 0, 86, 0
2, 32245, Note_on_c, 0, 74, 0
2, 32247, Note_on_c, 0, 81, 0
2, 32274, Note_on_c, 0, 76, 80
2, 32274, Note_on_c, 0, 88, 80
2, 32309, Note_on_c, 0, 88, 0
2, 32311, Note_on_c, 0, 76, 0
2, 32311, Note_on_c, 0, 46, 0
2, 32340, Note_on_c, 0, 45, 80
2, 32340, Note_on_c, 0, 84, 80
2, 32342, Note_on_c, 0, 78, 80
2, 32342, Note_on_c, 0, 86, 80
2, 32342, Note_on_c, 0, 90, 80
2, 32437, Note_on_c, 0, 45, 0
2, 32439, Note_on_c, 0, 86, 0
2, 32439, Note_on_c, 0, 84, 0
2, 32444, Note_on_c, 0, 78, 0
2, 32444, Note_on_c, 0, 90, 0
2, 32471, Note_on_c, 0, 43, 80
2, 32475, Note_on_c, 0, 78, 80
2, 32475, Note_on_c, 0, 82, 80
2, 32475, Note_on_c, 0, 86, 80
2, 32475, Note_on_c, 0, 90, 80
2, 32511, Note_on_c, 0, 86, 0
2, 32511, Note_on_c, 0, 82, 0
2, 32516, Note_on_c, 0, 90, 0
2, 32516, Note_on_c, 0, 78, 0
2, 32540, Note_on_c, 0, 91, 80
2, 32542, Note_on_c, 0, 82, 80
2, 32542, Note_on_c, 0, 86, 80
2, 32544, Note_on_c, 0, 79, 80
2, 32577, Note_on_c, 0, 43, 0
2, 32608, Note_on_c, 0, 58, 80
2, 32610, Note_on_c, 0, 67, 80
2, 32615, Note_on_c, 0, 62, 80
2, 32645, Note_on_c, 0, 86, 0
2, 32645, Note_on_c, 0, 82, 0
2, 32647, Note_on_c, 0, 91, 0
2, 32649, Note_on_c, 0, 79, 0
2, 32671, Note_on_c, 0, 82, 80
2, 32671, Note_on_c, 0, 86, 80
2, 32673, Note_on_c, 0, 79, 80
2, 32673, Note_on_c, 0, 91, 80
2, 32702, Note_on_c, 0, 58, 0
2, 32704, Note_on_c, 0, 67, 0
2, 32711, Note_on_c, 0, 62, 0
2, 32735, Note_on_c, 0, 50, 80
2, 32770, Note_on_c, 0, 86, 0
2, 32770, Note_on_c, 0, 82, 0
2, 32775, Note_on_c, 0, 79, 0
2, 32775, Note_on_c, 0, 91, 0
2, 32802, Note_on_c, 0, 81, 80
2, 32802, Note_on_c, 0, 93, 80
2, 32835, Note_on_c, 0, 50, 0
2, 32837, Note_on_c, 0, 93, 0
2, 32842, Note_on_c, 0, 81, 0
2, 32866, Note_on_c, 0, 58, 80
2, 32866, Note_on_c, 0, 62, 80
2, 32866, Note_on_c, 0, 86, 80
2, 32866, Note_on_c, 0, 91, 80
2, 32866, Note_on_c, 0, 94, 80
2, 32868, Note_on_c, 0, 67, 80
2, 32868, Note_on_c, 0, 82, 80
2, 32961, Note_on_c, 0, 82, 0
2, 32961, Note_on_c, 0, 58, 0
2, 32963, Note_on_c, 0, 67, 0
2, 32965, Note_on_c, 0, 86, 0
2, 32967, Note_on_c, 0, 91, 0
2, 32984, Note_on_c, 0, 82, 80
2, 32989, Note_on_c, 0, 86, 80
2, 32989, Note_on_c, 0, 90, 80
2, 33023, Note_on_c, 0, 82, 0
2, 33027, Note_on_c, 0, 86, 0
2, 33027, Note_on_c, 0, 90, 0
2, 33027, Note_on_c, 0, 62, 0
2, 33029, Note_on_c, 0, 94, 0
2, 33049, Note_on_c, 0, 60, 80
2, 33051, Note_on_c, 0, 93, 80
2, 33053, Note_on_c, 0, 81, 80
2, 33053, Note_on_c, 0, 86, 80
2, 33053, Note_on_c, 0, 90, 80
2, 33148, Note_on_c, 0, 90, 0
2, 33150, Note_on_c, 0, 60, 0
2, 33150, Note_on_c, 0, 93, 0
2, 33152, Note_on_c, 0, 81, 0
2, 33152, Note_on_c, 0, 86, 0
2, 33176, Note_on_c, 0, 58, 80
2, 33178, Note_on_c, 0, 91, 80
2, 33180, Note_on_c, 0, 79, 80
2, 33180, Note_on_c, 0, 86, 80
2, 33277, Note_on_c, 0, 58, 0
2, 33282, Note_on_c, 0, 91, 0
2, 33282, Note_on_c, 0, 79, 0
2, 33282, Note_on_c, 0, 86, 0
2, 33311, Note_on_c, 0, 91, 80
2, 33315, Note_on_c, 0, 67, 80
2, 33315, Note_on_c, 0, 79, 80
2, 33346, Note_on_c, 0, 67, 0
2, 33351, Note_on_c, 0, 79, 0
2, 33353, Note_on_c, 0, 91, 0
2, 33382, Note_on_c, 0, 66, 80
2, 33382, Note_on_c, 0, 78, 80
2, 33382, Note_on_c, 0, 90, 80
2, 33481, Note_on_c, 0, 66, 0
2, 33488, Note_on_c, 0, 90, 0
2, 33488, Note_on_c, 0, 78, 0
2, 33512, Note_on_c, 0, 78, 80
2, 33519, Note_on_c, 0, 90, 80
2, 33558, Note_on_c, 0, 90, 0
2, 33558, Note_on_c, 0, 78, 0
2, 33582, Note_on_c, 0, 77, 80
2, 33584, Note_on_c, 0, 89, 80
2, 33620, Note_on_c, 0, 77, 0
2, 33624, Note_on_c, 0, 89, 0
2, 33648, Note_on_c, 0, 78, 80
2, 33653, Note_on_c, 0, 90, 80
2, 33691, Note_on_c, 0, 90, 0
2, 33691, Note_on_c, 0, 78, 0
2, 33715, Note_on_c, 0, 77, 80
2, 33720, Note_on_c, 0, 89, 80
2, 33753, Note_on_c, 0, 77, 0
2, 33760, Note_on_c, 0, 89, 0
2, 33784, Note_on_c, 0, 78, 80
2, 33786, Note_on_c, 0, 90, 80
2, 33823, Note_on_c, 0, 90, 0
2, 33825, Note_on_c, 0, 78, 0
2, 33847, Note_on_c, 0, 77, 80
2, 33852, Note_on_c, 0, 89, 80
2, 33881, Note_on_c, 0, 77, 0
2, 33889, Note_on_c, 0, 89, 0
2, 33916, Note_on_c, 0, 78, 80
2, 33921, Note_on_c, 0, 90, 80
2, 33957, Note_on_c, 0, 90, 0
2, 33957, Note_on_c, 0, 78, 0
2, 33981, Note_on_c, 0, 77, 80
2, 33985, Note_on_c, 0, 89, 80
2, 34014, Note_on_c, 0, 77, 0
2, 34023, Note_on_c, 0, 89, 0
2, 34038, Note_on_c, 0, 51, 80
2, 34047, Note_on_c, 0, 78, 80
2, 34047, Note_on_c, 0, 90, 80
2, 34111, Note_on_c, 0, 77, 80
2, 34111, Note_on_c, 0, 89, 80
2, 34116, Note_on_c, 0, 90, 0
2, 34116, Note_on_c, 0, 78, 0
2, 34174, Note_on_c, 0, 77, 0
2, 34174, Note_on_c, 0, 54, 80
2, 34174, Note_on_c, 0, 56, 80
2, 34174, Note_on_c, 0, 60, 80
2, 34176, Note_on_c, 0, 75, 80
2, 34177, Note_on_c, 0, 87, 80
2, 34182, Note_on_c, 0, 89, 0
2, 34242, Note_on_c, 0, 68, 80
2, 34242, Note_on_c, 0, 72, 80
2, 34244, Note_on_c, 0, 75, 0
2, 34244, Note_on_c, 0, 87, 0
2, 34244, Note_on_c, 0, 80, 80
2, 34277, Note_on_c, 0, 60, 0
2, 34277, Note_on_c, 0, 51, 0
2, 34277, Note_on_c, 0, 56, 0
2, 34277, Note_on_c, 0, 54, 0
2, 34306, Note_on_c, 0, 44, 80
2, 34342, Note_on_c, 0, 80, 0
2, 34344, Note_on_c, 0, 68, 0
2, 34348, Note_on_c, 0, 72, 0
2, 34372, Note_on_c, 0, 67, 80
2, 34372, Note_on_c, 0, 72, 80
2, 34372, Note_on_c, 0, 79, 80
2, 34412, Note_on_c, 0, 67, 0
2, 34414, Note_on_c, 0, 79, 0
2, 34414, Note_on_c, 0, 72, 0
2, 34436, Note_on_c, 0, 54, 80
2, 34436, Note_on_c, 0, 56, 80
2, 34436, Note_on_c, 0, 60, 80
2, 34436, Note_on_c, 0, 66, 80
2, 34440, Note_on_c, 0, 72, 80
2, 34440, Note_on_c, 0, 78, 80
2, 34537, Note_on_c, 0, 66, 0
2, 34537, Note_on_c, 0, 54, 0
2, 34537, Note_on_c, 0, 44, 0
2, 34539, Note_on_c, 0, 60, 0
2, 34541, Note_on_c, 0, 56, 0
2, 34541, Note_on_c, 0, 78, 0
2, 34541, Note_on_c, 0, 72, 0
2, 34565, Note_on_c, 0, 49, 80
2, 34570, Note_on_c, 0, 73, 80
2, 34570, Note_on_c, 0, 78, 80
2, 34572, Note_on_c, 0, 66, 80
2, 34603, Note_on_c, 0, 66, 0
2, 34608, Note_on_c, 0, 73, 0
2, 34612, Note_on_c, 0, 78, 0
2, 34639, Note_on_c, 0, 65, 80
2, 34639, Note_on_c, 0, 73, 80
2, 34639, Note_on_c, 0, 77, 80
2, 34644, Note_on_c, 0, 68, 80
2, 34706, Note_on_c, 0, 53, 80
2, 34706, Note_on_c, 0, 56, 80
2, 34706, Note_on_c, 0, 61, 80
2, 34740, Note_on_c, 0, 77, 0
2, 34740, Note_on_c, 0, 73, 0
2, 34740, Note_on_c, 0, 65, 0
2, 34742, Note_on_c, 0, 68, 0
2, 34769, Note_on_c, 0, 77, 80
2, 34771, Note_on_c, 0, 65, 80
2, 34773, Note_on_c, 0, 70, 80
2, 34773, Note_on_c, 0, 73, 80
2, 34803, Note_on_c, 0, 56, 0
2, 34805, Note_on_c, 0, 53, 0
2, 34805, Note_on_c, 0, 61, 0
2, 34805, Note_on_c, 0, 49, 0
2, 34834, Note_on_c, 0, 46, 80
2, 34900, Note_on_c, 0, 49, 80
2, 34940, Note_on_c, 0, 49, 0
2, 34967, Note_on_c, 0, 51, 80
2, 35006, Note_on_c, 0, 51, 0
2, 35040, Note_on_c, 0, 53, 80
2, 35070, Note_on_c, 0, 65, 0
2, 35075, Note_on_c, 0, 77, 0
2, 35075, Note_on_c, 0, 70, 0
2, 35075, Note_on_c, 0, 73, 0
2, 35075, Note_on_c, 0, 53, 0
2, 35075, Note_on_c, 0, 46, 0
2, 35102, Note_on_c, 0, 42, 80
2, 35102, Note_on_c, 0, 54, 80
2, 35107, Note_on_c, 0, 63, 80
2, 35107, Note_on_c, 0, 70, 80
2, 35107, Note_on_c, 0, 75, 80
2, 35142, Note_on_c, 0, 70, 0
2, 35144, Note_on_c, 0, 63, 0
2, 35168, Note_on_c, 0, 74, 80
2, 35173, Note_on_c, 0, 75, 0
2, 35182, Note_on_c, 0, 62, 80
2, 35208, Note_on_c, 0, 62, 0
2, 35235, Note_on_c, 0, 75, 80
2, 35237, Note_on_c, 0, 63, 80
2, 35242, Note_on_c, 0, 74, 0
2, 35302, Note_on_c, 0, 64, 80
2, 35302, Note_on_c, 0, 70, 80
2, 35302, Note_on_c, 0, 72, 80
2, 35302, Note_on_c, 0, 76, 80
2, 35304, Note_on_c, 0, 75, 0
2, 35305, Note_on_c, 0, 63, 0
2, 35336, Note_on_c, 0, 42, 0
2, 35336, Note_on_c, 0, 54, 0
2, 35360, Note_on_c, 0, 42, 80
2, 35365, Note_on_c, 0, 54, 80
2, 35427, Note_on_c, 0, 75, 80
2, 35429, Note_on_c, 0, 63, 80
2, 35431, Note_on_c, 0, 64, 0
2, 35431, Note_on_c, 0, 76, 0
2, 35431, Note_on_c, 0, 70, 0
2, 35436, Note_on_c, 0, 72, 0
2, 35463, Note_on_c, 0, 42, 0
2, 35463, Note_on_c, 0, 54, 0
2, 35490, Note_on_c, 0, 42, 80
2, 35492, Note_on_c, 0, 54, 80
2, 35494, Note_on_c, 0, 64, 80
2, 35494, Note_on_c, 0, 70, 80
2, 35494, Note_on_c, 0, 72, 80
2, 35494, Note_on_c, 0, 76, 80
2, 35496, Note_on_c, 0, 63, 0
2, 35496, Note_on_c, 0, 75, 0
2, 35591, Note_on_c, 0, 54, 0
2, 35591, Note_on_c, 0, 42, 0
2, 35592, Note_on_c, 0, 76, 0
2, 35594, Note_on_c, 0, 72, 0
2, 35594, Note_on_c, 0, 70, 0
2, 35594, Note_on_c, 0, 64, 0
2, 35618, Note_on_c, 0, 41, 80
2, 35618, Note_on_c, 0, 53, 80
2, 35618, Note_on_c, 0, 65, 80
2, 35618, Note_on_c, 0, 77, 80
2, 35623, Note_on_c, 0, 69, 80
2, 35623, Note_on_c, 0, 72, 80
2, 35713, Note_on_c, 0, 41, 0
2, 35718, Note_on_c, 0, 77, 0
2, 35718, Note_on_c, 0, 53, 0
2, 35718, Note_on_c, 0, 65, 0
2, 35723, Note_on_c, 0, 72, 0
2, 35723, Note_on_c, 0, 69, 0
2, 35887, Note_on_c, 0, 77, 80
2, 35887, Note_on_c, 0, 81, 80
2, 35892, Note_on_c, 0, 84, 80
2, 35892, Note_on_c, 0, 89, 80
2, 35950, Note_on_c, 0, 41, 80
2, 35985, Note_on_c, 0, 41, 0
2, 35990, Note_on_c, 0, 84, 0
2, 35990, Note_on_c, 0, 77, 0
2, 35992, Note_on_c, 0, 81, 0
2, 35992, Note_on_c, 0, 89, 0
2, 36021, Note_on_c, 0, 43, 80
2, 36056, Note_on_c, 0, 43, 0
2, 36087, Note_on_c, 0, 45, 80
2, 36120, Note_on_c, 0, 45, 0
2, 36149, Note_on_c, 0, 46, 80
2, 36214, Note_on_c, 0, 74, 80
2, 36216, Note_on_c, 0, 86, 80
2, 36217, Note_on_c, 0, 77, 80
2, 36217, Note_on_c, 0, 82, 80
2, 36275, Note_on_c, 0, 58, 80
2, 36280, Note_on_c, 0, 65, 80
2, 36288, Note_on_c, 0, 62, 80
2, 36315, Note_on_c, 0, 82, 0
2, 36315, Note_on_c, 0, 77, 0
2, 36315, Note_on_c, 0, 86, 0
2, 36322, Note_on_c, 0, 74, 0
2, 36344, Note_on_c, 0, 82, 80
2, 36346, Note_on_c, 0, 74, 80
2, 36348, Note_on_c, 0, 70, 80
2, 36377, Note_on_c, 0, 58, 0
2, 36382, Note_on_c, 0, 65, 0
2, 36382, Note_on_c, 0, 62, 0
2, 36382, Note_on_c, 0, 46, 0
2, 36410, Note_on_c, 0, 49, 80
2, 36448, Note_on_c, 0, 70, 0
2, 36453, Note_on_c, 0, 74, 0
2, 36480, Note_on_c, 0, 67, 80
2, 36481, Note_on_c, 0, 82, 0
2, 36481, Note_on_c, 0, 79, 80
2, 36544, Note_on_c, 0, 50, 80
2, 36546, Note_on_c, 0, 65, 80
2, 36548, Note_on_c, 0, 79, 0
2, 36548, Note_on_c, 0, 49, 0
2, 36548, Note_on_c, 0, 67, 0
2, 36548, Note_on_c, 0, 77, 80
2, 36610, Note_on_c, 0, 53, 80
2, 36615, Note_on_c, 0, 65, 0
2, 36615, Note_on_c, 0, 62, 80
2, 36615, Note_on_c, 0, 74, 80
2, 36620, Note_on_c, 0, 50, 0
2, 36620, Note_on_c, 0, 77, 0
2, 36677, Note_on_c, 0, 51, 80
2, 36682, Note_on_c, 0, 60, 80
2, 36682, Note_on_c, 0, 65, 80
2, 36682, Note_on_c, 0, 69, 80
2, 36682, Note_on_c, 0, 72, 80
2, 36684, Note_on_c, 0, 62, 0
2, 36686, Note_on_c, 0, 53, 0
2, 36691, Note_on_c, 0, 74, 0
2, 36748, Note_on_c, 0, 50, 80
2, 36753, Note_on_c, 0, 51, 0
2, 36819, Note_on_c, 0, 48, 80
2, 36824, Note_on_c, 0, 50, 0
2, 36880, Note_on_c, 0, 46, 80
2, 36885, Note_on_c, 0, 48, 0
2, 36918, Note_on_c, 0, 65, 0
2, 36920, Note_on_c, 0, 60, 0
2, 36922, Note_on_c, 0, 72, 0
2, 36922, Note_on_c, 0, 69, 0
2, 36946, Note_on_c, 0, 65, 80
2, 36948, Note_on_c, 0, 45, 80
2, 36950, Note_on_c, 0, 46, 0
2, 36950, Note_on_c, 0, 72, 80
2, 36950, Note_on_c, 0, 75, 80
2, 36950, Note_on_c, 0, 77, 80
2, 37009, Note_on_c, 0, 41, 80
2, 37011, Note_on_c, 0, 45, 0
2, 37078, Note_on_c, 0, 41, 0
2, 37078, Note_on_c, 0, 43, 80
2, 37146, Note_on_c, 0, 43, 0
2, 37146, Note_on_c, 0, 45, 80
2, 37183, Note_on_c, 0, 77, 0
2, 37183, Note_on_c, 0, 75, 0
2, 37183, Note_on_c, 0, 65, 0
2, 37188, Note_on_c, 0, 72, 0
2, 37212, Note_on_c, 0, 45, 0
2, 37212, Note_on_c, 0, 46, 80
2, 37270, Note_on_c, 0, 74, 80
2, 37274, Note_on_c, 0, 77, 80
2, 37274, Note_on_c, 0, 82, 80
2, 37274, Note_on_c, 0, 86, 80
2, 37337, Note_on_c, 0, 65, 80
2, 37339, Note_on_c, 0, 58, 80
2, 37344, Note_on_c, 0, 62, 80
2, 37370, Note_on_c, 0, 77, 0
2, 37375, Note_on_c, 0, 86, 0
2, 37375, Note_on_c, 0, 82, 0
2, 37375, Note_on_c, 0, 74, 0
2, 37402, Note_on_c, 0, 74, 80
2, 37404, Note_on_c, 0, 70, 80
2, 37404, Note_on_c, 0, 82, 80
2, 37441, Note_on_c, 0, 58, 0
2, 37441, Note_on_c, 0, 65, 0
2, 37443, Note_on_c, 0, 46, 0
2, 37443, Note_on_c, 0, 62, 0
2, 37474, Note_on_c, 0, 49, 80
2, 37508, Note_on_c, 0, 70, 0
2, 37512, Note_on_c, 0, 74, 0
2, 37539, Note_on_c, 0, 67, 80
2, 37541, Note_on_c, 0, 82, 0
2, 37541, Note_on_c, 0, 79, 80
2, 37604, Note_on_c, 0, 65, 80
2, 37606, Note_on_c, 0, 79, 0
2, 37606, Note_on_c, 0, 67, 0
2, 37606, Note_on_c, 0, 77, 80
2, 37608, Note_on_c, 0, 50, 80
2, 37609, Note_on_c, 0, 49, 0
2, 37669, Note_on_c, 0, 74, 80
2, 37674, Note_on_c, 0, 65, 0
2, 37674, Note_on_c, 0, 77, 0
2, 37674, Note_on_c, 0, 53, 80
2, 37674, Note_on_c, 0, 62, 80
2, 37676, Note_on_c, 0, 50, 0
2, 37733, Note_on_c, 0, 51, 80
2, 37733, Note_on_c, 0, 60, 80
2, 37735, Note_on_c, 0, 65, 80
2, 37735, Note_on_c, 0, 69, 80
2, 37740, Note_on_c, 0, 62, 0
2, 37740, Note_on_c, 0, 72, 80
2, 37745, Note_on_c, 0, 74, 0
2, 37750, Note_on_c, 0, 53, 0
2, 37802, Note_on_c, 0, 50, 80
2, 37807, Note_on_c, 0, 51, 0
2, 37872, Note_on_c, 0, 48, 80
2, 37876, Note_on_c, 0, 50, 0
2, 37934, Note_on_c, 0, 46, 80
2, 37936, Note_on_c, 0, 48, 0
2, 37969, Note_on_c, 0, 69, 0
2, 37969, Note_on_c, 0, 60, 0
2, 37969, Note_on_c, 0, 65, 0
2, 37974, Note_on_c, 0, 72, 0
2, 37994, Note_on_c, 0, 65, 80
2, 37996, Note_on_c, 0, 77, 80
2, 37998, Note_on_c, 0, 45, 80
2, 37998, Note_on_c, 0, 72, 80
2, 37998, Note_on_c, 0, 75, 80
2, 38003, Note_on_c, 0, 46, 0
2, 38067, Note_on_c, 0, 45, 0
2, 38067, Note_on_c, 0, 43, 80
2, 38127, Note_on_c, 0, 41, 80
2, 38134, Note_on_c, 0, 43, 0
2, 38229, Note_on_c, 0, 75, 0
2, 38229, Note_on_c, 0, 65, 0
2, 38229, Note_on_c, 0, 77, 0
2, 38229, Note_on_c, 0, 41, 0
2, 38233, Note_on_c, 0, 72, 0
2, 38391, Note_on_c, 0, 66, 80
2, 38393, Note_on_c, 0, 72, 80
2, 38393, Note_on_c, 0, 75, 80
2, 38393, Note_on_c, 0, 81, 80
2, 38426, Note_on_c, 0, 75, 0
2, 38426, Note_on_c, 0, 66, 0
2, 38428, Note_on_c, 0, 72, 0
2, 38428, Note_on_c, 0, 81, 0
2, 38457, Note_on_c, 0, 81, 80
2, 38459, Note_on_c, 0, 66, 80
2, 38459, Note_on_c, 0, 72, 80
2, 38459, Note_on_c, 0, 75, 80
2, 38592, Note_on_c, 0, 78, 80
2, 38593, Note_on_c, 0, 81, 0
2, 38620, Note_on_c, 0, 66, 0
2, 38625, Note_on_c, 0, 75, 0
2, 38625, Note_on_c, 0, 72, 0
2, 38654, Note_on_c, 0, 66, 80
2, 38654, Note_on_c, 0, 72, 80
2, 38654, Note_on_c, 0, 75, 80
2, 38654, Note_on_c, 0, 79, 80
2, 38656, Note_on_c, 0, 78, 0
2, 38722, Note_on_c, 0, 79, 0
2, 38722, Note_on_c, 0, 81, 80
2, 38749, Note_on_c, 0, 66, 0
2, 38754, Note_on_c, 0, 75, 0
2, 38759, Note_on_c, 0, 72, 0
2, 38783, Note_on_c, 0, 74, 80
2, 38784, Note_on_c, 0, 70, 80
2, 38784, Note_on_c, 0, 82, 80
2, 38786, Note_on_c, 0, 67, 80
2, 38793, Note_on_c, 0, 81, 0
2, 38820, Note_on_c, 0, 82, 0
2, 38854, Note_on_c, 0, 82, 80
2, 38955, Note_on_c, 0, 82, 0
2, 38955, Note_on_c, 0, 67, 0
2, 38960, Note_on_c, 0, 70, 0
2, 38960, Note_on_c, 0, 74, 0
2, 38984, Note_on_c, 0, 67, 80
2, 38984, Note_on_c, 0, 70, 80
2, 38984, Note_on_c, 0, 74, 80
2, 38989, Note_on_c, 0, 82, 80
2, 39121, Note_on_c, 0, 81, 80
2, 39126, Note_on_c, 0, 82, 0
2, 39157, Note_on_c, 0, 67, 0
2, 39162, Note_on_c, 0, 70, 0
2, 39167, Note_on_c, 0, 74, 0
2, 39191, Note_on_c, 0, 67, 80
2, 39191, Note_on_c, 0, 70, 80
2, 39191, Note_on_c, 0, 82, 80
2, 39192, Note_on_c, 0, 74, 80
2, 39199, Note_on_c, 0, 81, 0
2, 39262, Note_on_c, 0, 82, 0
2, 39264, Note_on_c, 0, 83, 80
2, 39294, Note_on_c, 0, 67, 0
2, 39296, Note_on_c, 0, 74, 0
2, 39296, Note_on_c, 0, 70, 0
2, 39320, Note_on_c, 0, 67, 80
2, 39320, Note_on_c, 0, 69, 80
2, 39320, Note_on_c, 0, 75, 80
2, 39320, Note_on_c, 0, 84, 80
2, 39329, Note_on_c, 0, 83, 0
2, 39356, Note_on_c, 0, 84, 0
2, 39384, Note_on_c, 0, 84, 80
2, 39484, Note_on_c, 0, 67, 0
2, 39489, Note_on_c, 0, 75, 0
2, 39489, Note_on_c, 0, 69, 0
2, 39489, Note_on_c, 0, 84, 0
2, 39520, Note_on_c, 0, 69, 80
2, 39520, Note_on_c, 0, 75, 80
2, 39520, Note_on_c, 0, 84, 80
2, 39522, Note_on_c, 0, 67, 80
2, 39657, Note_on_c, 0, 84, 0
2, 39657, Note_on_c, 0, 83, 80
2, 39686, Note_on_c, 0, 67, 0
2, 39691, Note_on_c, 0, 69, 0
2, 39691, Note_on_c, 0, 75, 0
2, 39718, Note_on_c, 0, 75, 80
2, 39720, Note_on_c, 0, 67, 80
2, 39720, Note_on_c, 0, 69, 80
2, 39721, Note_on_c, 0, 84, 80
2, 39728, Note_on_c, 0, 83, 0
2, 39788, Note_on_c, 0, 84, 0
2, 39788, Note_on_c, 0, 85, 80
2, 39821, Note_on_c, 0, 75, 0
2, 39823, Note_on_c, 0, 67, 0
2, 39828, Note_on_c, 0, 69, 0
2, 39852, Note_on_c, 0, 66, 80
2, 39852, Note_on_c, 0, 69, 80
2, 39852, Note_on_c, 0, 74, 80
2, 39857, Note_on_c, 0, 86, 80
2, 39862, Note_on_c, 0, 85, 0
2, 39955, Note_on_c, 0, 66, 0
2, 39960, Note_on_c, 0, 74, 0
2, 39960, Note_on_c, 0, 69, 0
2, 39960, Note_on_c, 0, 86, 0
2, 39986, Note_on_c, 0, 38, 80
2, 39986, Note_on_c, 0, 50, 80
2, 40152, Note_on_c, 0, 38, 0
2, 40157, Note_on_c, 0, 50, 0
2, 40188, Note_on_c, 0, 41, 80
2, 40222, Note_on_c, 0, 41, 0
2, 40255, Note_on_c, 0, 43, 80
2, 40291, Note_on_c, 0, 43, 0
2, 40318, Note_on_c, 0, 45, 80
2, 40353, Note_on_c, 0, 45, 0
2, 40382, Note_on_c, 0, 46, 80
2, 40446, Note_on_c, 0, 74, 80
2, 40451, Note_on_c, 0, 77, 80
2, 40451, Note_on_c, 0, 82, 80
2, 40451, Note_on_c, 0, 86, 80
2, 40515, Note_on_c, 0, 58, 80
2, 40515, Note_on_c, 0, 65, 80
2, 40520, Note_on_c, 0, 62, 80
2, 40547, Note_on_c, 0, 77, 0
2, 40552, Note_on_c, 0, 86, 0
2, 40552, Note_on_c, 0, 82, 0
2, 40557, Note_on_c, 0, 74, 0
2, 40581, Note_on_c, 0, 70, 80
2, 40581, Note_on_c, 0, 82, 80
2, 40583, Note_on_c, 0, 74, 80
2, 40611, Note_on_c, 0, 65, 0
2, 40611, Note_on_c, 0, 58, 0
2, 40616, Note_on_c, 0, 46, 0
2, 40616, Note_on_c, 0, 62, 0
2, 40643, Note_on_c, 0, 49, 80
2, 40680, Note_on_c, 0, 70, 0
2, 40685, Note_on_c, 0, 74, 0
2, 40709, Note_on_c, 0, 67, 80
2, 40711, Note_on_c, 0, 82, 0
2, 40713, Note_on_c, 0, 79, 80
2, 40773, Note_on_c, 0, 50, 80
2, 40773, Note_on_c, 0, 65, 80
2, 40775, Note_on_c, 0, 49, 0
2, 40776, Note_on_c, 0, 67, 0
2, 40776, Note_on_c, 0, 77, 80
2, 40781, Note_on_c, 0, 79, 0
2, 40839, Note_on_c, 0, 53, 80
2, 40844, Note_on_c, 0, 65, 0
2, 40844, Note_on_c, 0, 77, 0
2, 40844, Note_on_c, 0, 74, 80
2, 40846, Note_on_c, 0, 50, 0
2, 40848, Note_on_c, 0, 62, 80
2, 40905, Note_on_c, 0, 51, 80
2, 40905, Note_on_c, 0, 65, 80
2, 40907, Note_on_c, 0, 60, 80
2, 40909, Note_on_c, 0, 62, 0
2, 40909, Note_on_c, 0, 69, 80
2, 40909, Note_on_c, 0, 72, 80
2, 40914, Note_on_c, 0, 53, 0
2, 40914, Note_on_c, 0, 74, 0
2, 40969, Note_on_c, 0, 50, 80
2, 40978, Note_on_c, 0, 51, 0
2, 41042, Note_on_c, 0, 50, 0
2, 41042, Note_on_c, 0, 48, 80
2, 41100, Note_on_c, 0, 48, 0
2, 41100, Note_on_c, 0, 46, 80
2, 41136, Note_on_c, 0, 65, 0
2, 41136, Note_on_c, 0, 69, 0
2, 41140, Note_on_c, 0, 60, 0
2, 41140, Note_on_c, 0, 72, 0
2, 41164, Note_on_c, 0, 45, 80
2, 41164, Note_on_c, 0, 65, 80
2, 41164, Note_on_c, 0, 72, 80
2, 41166, Note_on_c, 0, 46, 0
2, 41168, Note_on_c, 0, 77, 80
2, 41170, Note_on_c, 0, 75, 80
2, 41228, Note_on_c, 0, 41, 80
2, 41232, Note_on_c, 0, 45, 0
2, 41292, Note_on_c, 0, 41, 0
2, 41294, Note_on_c, 0, 43, 80
2, 41358, Note_on_c, 0, 45, 80
2, 41363, Note_on_c, 0, 43, 0
2, 41394, Note_on_c, 0, 65, 0
2, 41400, Note_on_c, 0, 75, 0
2, 41400, Note_on_c, 0, 72, 0
2, 41400, Note_on_c, 0, 77, 0
2, 41423, Note_on_c, 0, 45, 0
2, 41423, Note_on_c, 0, 46, 80
2, 41491, Note_on_c, 0, 74, 80
2, 41493, Note_on_c, 0, 77, 80
2, 41493, Note_on_c, 0, 82, 80
2, 41493, Note_on_c, 0, 86, 80
2, 41555, Note_on_c, 0, 58, 80
2, 41555, Note_on_c, 0, 65, 80
2, 41564, Note_on_c, 0, 62, 80
2, 41592, Note_on_c, 0, 77, 0
2, 41597, Note_on_c, 0, 86, 0
2, 41597, Note_on_c, 0, 82, 0
2, 41597, Note_on_c, 0, 74, 0
2, 41624, Note_on_c, 0, 74, 80
2, 41629, Note_on_c, 0, 70, 80
2, 41629, Note_on_c, 0, 82, 80
2, 41660, Note_on_c, 0, 46, 0
2, 41660, Note_on_c, 0, 65, 0
2, 41660, Note_on_c, 0, 62, 0
2, 41660, Note_on_c, 0, 58, 0
2, 41693, Note_on_c, 0, 49, 80
2, 41733, Note_on_c, 0, 70, 0
2, 41739, Note_on_c, 0, 74, 0
2, 41763, Note_on_c, 0, 67, 80
2, 41763, Note_on_c, 0, 79, 80
2, 41768, Note_on_c, 0, 82, 0
2, 41831, Note_on_c, 0, 67, 0
2, 41831, Note_on_c, 0, 50, 80
2, 41831, Note_on_c, 0, 65, 80
2, 41831, Note_on_c, 0, 77, 80
2, 41835, Note_on_c, 0, 49, 0
2, 41835, Note_on_c, 0, 79, 0
2, 41895, Note_on_c, 0, 53, 80
2, 41895, Note_on_c, 0, 74, 80
2, 41902, Note_on_c, 0, 65, 0
2, 41902, Note_on_c, 0, 77, 0
2, 41902, Note_on_c, 0, 62, 80
2, 41906, Note_on_c, 0, 50, 0
2, 41962, Note_on_c, 0, 51, 80
2, 41962, Note_on_c, 0, 60, 80
2, 41964, Note_on_c, 0, 65, 80
2, 41969, Note_on_c, 0, 69, 80
2, 41969, Note_on_c, 0, 72, 80
2, 41971, Note_on_c, 0, 62, 0
2, 41973, Note_on_c, 0, 74, 0
2, 41973, Note_on_c, 0, 53, 0
2, 42028, Note_on_c, 0, 50, 80
2, 42037, Note_on_c, 0, 51, 0
2, 42099, Note_on_c, 0, 48, 80
2, 42104, Note_on_c, 0, 50, 0
2, 42162, Note_on_c, 0, 46, 80
2, 42167, Note_on_c, 0, 48, 0
2, 42200, Note_on_c, 0, 65, 0
2, 42202, Note_on_c, 0, 60, 0
2, 42202, Note_on_c, 0, 72, 0
2, 42204, Note_on_c, 0, 69, 0
2, 42228, Note_on_c, 0, 65, 80
2, 42230, Note_on_c, 0, 45, 80
2, 42230, Note_on_c, 0, 75, 80
2, 42230, Note_on_c, 0, 77, 80
2, 42232, Note_on_c, 0, 46, 0
2, 42232, Note_on_c, 0, 69, 80
2, 42296, Note_on_c, 0, 45, 0
2, 42296, Note_on_c, 0, 43, 80
2, 42359, Note_on_c, 0, 41, 80
2, 42363, Note_on_c, 0, 43, 0
2, 42460, Note_on_c, 0, 65, 0
2, 42460, Note_on_c, 0, 41, 0
2, 42465, Note_on_c, 0, 77, 0
2, 42465, Note_on_c, 0, 69, 0
2, 42470, Note_on_c, 0, 75, 0
2, 42490, Note_on_c, 0, 70, 80
2, 42490, Note_on_c, 0, 78, 80
2, 42492, Note_on_c, 0, 39, 80
2, 42492, Note_on_c, 0, 66, 80
2, 42492, Note_on_c, 0, 75, 80
2, 42558, Note_on_c, 0, 39, 0
2, 42558, Note_on_c, 0, 42, 80
2, 42624, Note_on_c, 0, 46, 80
2, 42626, Note_on_c, 0, 42, 0
2, 42682, Note_on_c, 0, 51, 80
2, 42689, Note_on_c, 0, 46, 0
2, 42724, Note_on_c, 0, 66, 0
2, 42724, Note_on_c, 0, 75, 0
2, 42729, Note_on_c, 0, 70, 0
2, 42729, Note_on_c, 0, 78, 0
2, 42753, Note_on_c, 0, 50, 80
2, 42753, Note_on_c, 0, 65, 80
2, 42753, Note_on_c, 0, 74, 80
2, 42753, Note_on_c, 0, 77, 80
2, 42758, Note_on_c, 0, 70, 80
2, 42763, Note_on_c, 0, 51, 0
2, 42818, Note_on_c, 0, 53, 80
2, 42823, Note_on_c, 0, 50, 0
2, 42857, Note_on_c, 0, 77, 0
2, 42857, Note_on_c, 0, 65, 0
2, 42859, Note_on_c, 0, 74, 0
2, 42859, Note_on_c, 0, 70, 0
2, 42883, Note_on_c, 0, 77, 80
2, 42885, Note_on_c, 0, 58, 80
2, 42887, Note_on_c, 0, 82, 80
2, 42887, Note_on_c, 0, 86, 80
2, 42887, Note_on_c, 0, 89, 80
2, 42893, Note_on_c, 0, 53, 0
2, 42953, Note_on_c, 0, 58, 0
2, 42958, Note_on_c, 0, 62, 80
2, 42984, Note_on_c, 0, 77, 0
2, 42989, Note_on_c, 0, 86, 0
2, 42989, Note_on_c, 0, 82, 0
2, 42994, Note_on_c, 0, 89, 0
2, 43018, Note_on_c, 0, 87, 80
2, 43020, Note_on_c, 0, 63, 80
2, 43020, Note_on_c, 0, 78, 80
2, 43020, Note_on_c, 0, 82, 80
2, 43022, Note_on_c, 0, 62, 0
2, 43022, Note_on_c, 0, 90, 80
2, 43086, Note_on_c, 0, 66, 80
2, 43088, Note_on_c, 0, 63, 0
2, 43148, Note_on_c, 0, 66, 0
2, 43148, Note_on_c, 0, 70, 80
2, 43210, Note_on_c, 0, 75, 80
2, 43217, Note_on_c, 0, 70, 0
2, 43246, Note_on_c, 0, 87, 0
2, 43248, Note_on_c, 0, 82, 0
2, 43252, Note_on_c, 0, 78, 0
2, 43252, Note_on_c, 0, 90, 0
2, 43281, Note_on_c, 0, 74, 80
2, 43283, Note_on_c, 0, 77, 80
2, 43283, Note_on_c, 0, 82, 80
2, 43283, Note_on_c, 0, 86, 80
2, 43283, Note_on_c, 0, 89, 80
2, 43285, Note_on_c, 0, 75, 0
2, 43387, Note_on_c, 0, 86, 0
2, 43387, Note_on_c, 0, 82, 0
2, 43387, Note_on_c, 0, 74, 0
2, 43387, Note_on_c, 0, 77, 0
2, 43392, Note_on_c, 0, 89, 0
2, 43551, Note_on_c, 0, 48, 80
2, 43551, Note_on_c, 0, 64, 80
2, 43551, Note_on_c, 0, 70, 80
2, 43615, Note_on_c, 0, 52, 80
2, 43617, Note_on_c, 0, 48, 0
2, 43683, Note_on_c, 0, 52, 0
2, 43683, Note_on_c, 0, 55, 80
2, 43719, Note_on_c, 0, 70, 0
2, 43719, Note_on_c, 0, 64, 0
2, 43748, Note_on_c, 0, 53, 80
2, 43748, Note_on_c, 0, 63, 80
2, 43748, Note_on_c, 0, 69, 80
2, 43752, Note_on_c, 0, 55, 0
2, 43752, Note_on_c, 0, 72, 80
2, 43874, Note_on_c, 0, 74, 80
2, 43883, Note_on_c, 0, 72, 0
2, 43912, Note_on_c, 0, 53, 0
2, 43917, Note_on_c, 0, 69, 0
2, 43917, Note_on_c, 0, 63, 0
2, 43939, Note_on_c, 0, 41, 80
2, 43941, Note_on_c, 0, 53, 80
2, 43941, Note_on_c, 0, 63, 80
2, 43943, Note_on_c, 0, 72, 80
2, 43944, Note_on_c, 0, 69, 80
2, 43949, Note_on_c, 0, 74, 0
2, 44036, Note_on_c, 0, 41, 0
2, 44044, Note_on_c, 0, 72, 0
2, 44044, Note_on_c, 0, 63, 0
2, 44044, Note_on_c, 0, 69, 0
2, 44044, Note_on_c, 0, 53, 0
2, 44066, Note_on_c, 0, 46, 80
2, 44068, Note_on_c, 0, 53, 80
2, 44070, Note_on_c, 0, 70, 80
2, 44075, Note_on_c, 0, 62, 80
2, 44168, Note_on_c, 0, 46, 0
2, 44173, Note_on_c, 0, 53, 0
2, 44173, Note_on_c, 0, 62, 0
2, 44178, Note_on_c, 0, 70, 0
2, 44200, Note_on_c, 0, 53, 80
2, 44202, Note_on_c, 0, 65, 80
2, 44237, Note_on_c, 0, 65, 0
2, 44242, Note_on_c, 0, 53, 0
2, 44269, Note_on_c, 0, 55, 80
2, 44271, Note_on_c, 0, 67, 80
2, 44308, Note_on_c, 0, 67, 0
2, 44310, Note_on_c, 0, 55, 0
2, 44334, Note_on_c, 0, 57, 80
2, 44339, Note_on_c, 0, 69, 80
2, 44443, Note_on_c, 0, 69, 0
2, 44443, Note_on_c, 0, 57, 0
2, 44467, Note_on_c, 0, 57, 80
2, 44472, Note_on_c, 0, 69, 80
2, 44575, Note_on_c, 0, 69, 0
2, 44595, Note_on_c, 0, 53, 80
2, 44597, Note_on_c, 0, 50, 80
2, 44664, Note_on_c, 0, 69, 80
2, 44701, Note_on_c, 0, 69, 0
2, 44701, Note_on_c, 0, 57, 0
2, 44701, Note_on_c, 0, 53, 0
2, 44701, Note_on_c, 0, 50, 0
2, 44725, Note_on_c, 0, 57, 80
2, 44727, Note_on_c, 0, 50, 80
2, 44727, Note_on_c, 0, 53, 80
2, 44729, Note_on_c, 0, 74, 80
2, 44729, Note_on_c, 0, 77, 80
2, 44764, Note_on_c, 0, 77, 0
2, 44769, Note_on_c, 0, 74, 0
2, 44793, Note_on_c, 0, 69, 80
2, 44831, Note_on_c, 0, 57, 0
2, 44831, Note_on_c, 0, 50, 0
2, 44832, Note_on_c, 0, 53, 0
2, 44832, Note_on_c, 0, 69, 0
2, 44855, Note_on_c, 0, 50, 80
2, 44855, Note_on_c, 0, 57, 80
2, 44856, Note_on_c, 0, 53, 80
2, 44861, Note_on_c, 0, 74, 80
2, 44901, Note_on_c, 0, 74, 0
2, 44923, Note_on_c, 0, 77, 80
2, 44928, Note_on_c, 0, 81, 80
2, 44961, Note_on_c, 0, 50, 0
2, 44961, Note_on_c, 0, 53, 0
2, 44961, Note_on_c, 0, 57, 0
2, 44988, Note_on_c, 0, 53, 80
2, 44988, Note_on_c, 0, 57, 80
2, 44993, Note_on_c, 0, 50, 80
2, 45028, Note_on_c, 0, 77, 0
2, 45033, Note_on_c, 0, 81, 0
2, 45060, Note_on_c, 0, 74, 80
2, 45099, Note_on_c, 0, 50, 0
2, 45099, Note_on_c, 0, 53, 0
2, 45101, Note_on_c, 0, 57, 0
2, 45101, Note_on_c, 0, 74, 0
2, 45128, Note_on_c, 0, 55, 80
2, 45128, Note_on_c, 0, 58, 80
2, 45130, Note_on_c, 0, 50, 80
2, 45132, Note_on_c, 0, 81, 80
2, 45132, Note_on_c, 0, 84, 80
2, 45196, Note_on_c, 0, 79, 80
2, 45196, Note_on_c, 0, 82, 80
2, 45201, Note_on_c, 0, 84, 0
2, 45201, Note_on_c, 0, 81, 0
2, 45228, Note_on_c, 0, 58, 0
2, 45233, Note_on_c, 0, 55, 0
2, 45233, Note_on_c, 0, 50, 0
2, 45257, Note_on_c, 0, 50, 80
2, 45257, Note_on_c, 0, 55, 80
2, 45259, Note_on_c, 0, 58, 80
2, 45259, Note_on_c, 0, 74, 80
2, 45265, Note_on_c, 0, 79, 0
2, 45265, Note_on_c, 0, 82, 0
2, 45328, Note_on_c, 0, 79, 80
2, 45328, Note_on_c, 0, 82, 80
2, 45336, Note_on_c, 0, 74, 0
2, 45360, Note_on_c, 0, 58, 0
2, 45365, Note_on_c, 0, 55, 0
2, 45365, Note_on_c, 0, 50, 0
2, 45389, Note_on_c, 0, 55, 80
2, 45391, Note_on_c, 0, 50, 80
2, 45391, Note_on_c, 0, 58, 80
2, 45459, Note_on_c, 0, 74, 80
2, 45461, Note_on_c, 0, 82, 0
2, 45468, Note_on_c, 0, 79, 0
2, 45490, Note_on_c, 0, 58, 0
2, 45495, Note_on_c, 0, 50, 0
2, 45495, Note_on_c, 0, 55, 0
2, 45524, Note_on_c, 0, 55, 80
2, 45524, Note_on_c, 0, 58, 80
2, 45526, Note_on_c, 0, 50, 80
2, 45528, Note_on_c, 0, 67, 80
2, 45532, Note_on_c, 0, 74, 0
2, 45623, Note_on_c, 0, 58, 0
2, 45624, Note_on_c, 0, 67, 0
2, 45626, Note_on_c, 0, 50, 0
2, 45626, Note_on_c, 0, 55, 0
2, 45648, Note_on_c, 0, 57, 80
2, 45653, Note_on_c, 0, 50, 80
2, 45653, Note_on_c, 0, 53, 80
2, 45720, Note_on_c, 0, 69, 80
2, 45757, Note_on_c, 0, 69, 0
2, 45757, Note_on_c, 0, 57, 0
2, 45757, Note_on_c, 0, 50, 0
2, 45757, Note_on_c, 0, 53, 0
2, 45781, Note_on_c, 0, 50, 80
2, 45781, Note_on_c, 0, 53, 80
2, 45781, Note_on_c, 0, 57, 80
2, 45786, Note_on_c, 0, 74, 80
2, 45788, Note_on_c, 0, 77, 80
2, 45821, Note_on_c, 0, 77, 0
2, 45826, Note_on_c, 0, 74, 0
2, 45855, Note_on_c, 0, 69, 80
2, 45890, Note_on_c, 0, 69, 0
2, 45890, Note_on_c, 0, 57, 0
2, 45890, Note_on_c, 0, 53, 0
2, 45890, Note_on_c, 0, 50, 0
2, 45914, Note_on_c, 0, 50, 80
2, 45914, Note_on_c, 0, 53, 80
2, 45914, Note_on_c, 0, 57, 80
2, 45919, Note_on_c, 0, 74, 80
2, 45955, Note_on_c, 0, 74, 0
2, 45982, Note_on_c, 0, 81, 80
2, 45984, Note_on_c, 0, 77, 80
2, 46021, Note_on_c, 0, 50, 0
2, 46021, Note_on_c, 0, 57, 0
2, 46021, Note_on_c, 0, 53, 0
2, 46048, Note_on_c, 0, 50, 80
2, 46048, Note_on_c, 0, 53, 80
2, 46048, Note_on_c, 0, 57, 80
2, 46087, Note_on_c, 0, 77, 0
2, 46089, Note_on_c, 0, 81, 0
2, 46116, Note_on_c, 0, 74, 80
2, 46152, Note_on_c, 0, 57, 0
2, 46152, Note_on_c, 0, 50, 0
2, 46156, Note_on_c, 0, 53, 0
2, 46158, Note_on_c, 0, 74, 0
2, 46178, Note_on_c, 0, 55, 80
2, 46180, Note_on_c, 0, 50, 80
2, 46180, Note_on_c, 0, 58, 80
2, 46182, Note_on_c, 0, 81, 80
2, 46182, Note_on_c, 0, 84, 80
2, 46250, Note_on_c, 0, 84, 0
2, 46250, Note_on_c, 0, 79, 80
2, 46250, Note_on_c, 0, 82, 80
2, 46255, Note_on_c, 0, 81, 0
2, 46277, Note_on_c, 0, 58, 0
2, 46284, Note_on_c, 0, 55, 0
2, 46284, Note_on_c, 0, 50, 0
2, 46311, Note_on_c, 0, 55, 80
2, 46313, Note_on_c, 0, 50, 80
2, 46313, Note_on_c, 0, 58, 80
2, 46315, Note_on_c, 0, 74, 80
2, 46317, Note_on_c, 0, 82, 0
2, 46321, Note_on_c, 0, 79, 0
2, 46384, Note_on_c, 0, 79, 80
2, 46384, Note_on_c, 0, 82, 80
2, 46386, Note_on_c, 0, 74, 0
2, 46416, Note_on_c, 0, 55, 0
2, 46416, Note_on_c, 0, 50, 0
2, 46416, Note_on_c, 0, 58, 0
2, 46445, Note_on_c, 0, 50, 80
2, 46445, Note_on_c, 0, 55, 80
2, 46445, Note_on_c, 0, 58, 80
2, 46513, Note_on_c, 0, 82, 0
2, 46513, Note_on_c, 0, 73, 80
2, 46518, Note_on_c, 0, 79, 0
2, 46547, Note_on_c, 0, 58, 0
2, 46552, Note_on_c, 0, 55, 0
2, 46552, Note_on_c, 0, 50, 0
2, 46576, Note_on_c, 0, 50, 80
2, 46576, Note_on_c, 0, 55, 80
2, 46576, Note_on_c, 0, 58, 80
2, 46581, Note_on_c, 0, 73, 0
2, 46581, Note_on_c, 0, 74, 80
2, 46645, Note_on_c, 0, 75, 80
2, 46652, Note_on_c, 0, 74, 0
2, 46679, Note_on_c, 0, 58, 0
2, 46683, Note_on_c, 0, 50, 0
2, 46683, Note_on_c, 0, 55, 0
2, 46705, Note_on_c, 0, 48, 80
2, 46705, Note_on_c, 0, 55, 80
2, 46705, Note_on_c, 0, 58, 80
2, 46710, Note_on_c, 0, 76, 80
2, 46715, Note_on_c, 0, 75, 0
2, 46771, Note_on_c, 0, 75, 80
2, 46773, Note_on_c, 0, 76, 0
2, 46803, Note_on_c, 0, 48, 0
2, 46808, Note_on_c, 0, 58, 0
2, 46808, Note_on_c, 0, 55, 0
2, 46835, Note_on_c, 0, 48, 80
2, 46835, Note_on_c, 0, 55, 80
2, 46835, Note_on_c, 0, 58, 80
2, 46835, Note_on_c, 0, 76, 80
2, 46840, Note_on_c, 0, 75, 0
2, 46902, Note_on_c, 0, 72, 80
2, 46904, Note_on_c, 0, 76, 0
2, 46931, Note_on_c, 0, 48, 0
2, 46933, Note_on_c, 0, 58, 0
2, 46938, Note_on_c, 0, 55, 0
2, 46965, Note_on_c, 0, 48, 80
2, 46965, Note_on_c, 0, 53, 80
2, 46965, Note_on_c, 0, 57, 80
2, 46967, Note_on_c, 0, 77, 80
2, 46971, Note_on_c, 0, 72, 0
2, 47031, Note_on_c, 0, 77, 0
2, 47031, Note_on_c, 0, 79, 80
2, 47064, Note_on_c, 0, 48, 0
2, 47069, Note_on_c, 0, 57, 0
2, 47069, Note_on_c, 0, 53, 0
2, 47103, Note_on_c, 0, 79, 0
2, 47103, Note_on_c, 0, 81, 80
2, 47165, Note_on_c, 0, 84, 80
2, 47174, Note_on_c, 0, 81, 0
2, 47227, Note_on_c, 0, 88, 80
2, 47229, Note_on_c, 0, 60, 80
2, 47229, Note_on_c, 0, 70, 80
2, 47231, Note_on_c, 0, 67, 80
2, 47232, Note_on_c, 0, 84, 0
2, 47299, Note_on_c, 0, 88, 0
2, 47299, Note_on_c, 0, 87, 80
2, 47328, Note_on_c, 0, 67, 0
2, 47329, Note_on_c, 0, 60, 0
2, 47336, Note_on_c, 0, 70, 0
2, 47360, Note_on_c, 0, 60, 80
2, 47362, Note_on_c, 0, 67, 80
2, 47362, Note_on_c, 0, 70, 80
2, 47364, Note_on_c, 0, 87, 0
2, 47364, Note_on_c, 0, 88, 80
2, 47430, Note_on_c, 0, 84, 80
2, 47432, Note_on_c, 0, 88, 0
2, 47463, Note_on_c, 0, 67, 0
2, 47465, Note_on_c, 0, 70, 0
2, 47465, Note_on_c, 0, 60, 0
2, 47496, Note_on_c, 0, 60, 80
2, 47497, Note_on_c, 0, 65, 80
2, 47497, Note_on_c, 0, 69, 80
2, 47502, Note_on_c, 0, 84, 0
2, 47502, Note_on_c, 0, 89, 80
2, 47567, Note_on_c, 0, 91, 80
2, 47573, Note_on_c, 0, 89, 0
2, 47602, Note_on_c, 0, 60, 0
2, 47602, Note_on_c, 0, 69, 0
2, 47602, Note_on_c, 0, 65, 0
2, 47633, Note_on_c, 0, 93, 80
2, 47638, Note_on_c, 0, 91, 0
2, 47700, Note_on_c, 0, 96, 80
2, 47702, Note_on_c, 0, 93, 0
2, 47764, Note_on_c, 0, 77, 80
2, 47764, Note_on_c, 0, 80, 80
2, 47764, Note_on_c, 0, 97, 80
2, 47771, Note_on_c, 0, 96, 0
2, 47833, Note_on_c, 0, 101, 80
2, 47835, Note_on_c, 0, 97, 0
2, 47866, Note_on_c, 0, 77, 0
2, 47868, Note_on_c, 0, 80, 0
2, 47899, Note_on_c, 0, 92, 80
2, 47904, Note_on_c, 0, 101, 0
2, 47970, Note_on_c, 0, 92, 0
2, 47972, Note_on_c, 0, 89, 80
2, 48029, Note_on_c, 0, 80, 80
2, 48034, Note_on_c, 0, 77, 80
2, 48102, Note_on_c, 0, 85, 80
2, 48107, Note_on_c, 0, 89, 0
2, 48136, Note_on_c, 0, 77, 0
2, 48141, Note_on_c, 0, 80, 0
2, 48165, Note_on_c, 0, 80, 80
2, 48171, Note_on_c, 0, 85, 0
2, 48234, Note_on_c, 0, 77, 80
2, 48239, Note_on_c, 0, 80, 0
2, 48301, Note_on_c, 0, 65, 80
2, 48301, Note_on_c, 0, 68, 80
2, 48301, Note_on_c, 0, 73, 80
2, 48303, Note_on_c, 0, 77, 0
2, 48367, Note_on_c, 0, 77, 80
2, 48369, Note_on_c, 0, 73, 0
2, 48398, Note_on_c, 0, 65, 0
2, 48403, Note_on_c, 0, 68, 0
2, 48432, Note_on_c, 0, 68, 80
2, 48436, Note_on_c, 0, 77, 0
2, 48496, Note_on_c, 0, 65, 80
2, 48503, Note_on_c, 0, 68, 0
2, 48562, Note_on_c, 0, 56, 80
2, 48564, Note_on_c, 0, 53, 80
2, 48630, Note_on_c, 0, 61, 80
2, 48632, Note_on_c, 0, 65, 0
2, 48668, Note_on_c, 0, 56, 0
2, 48668, Note_on_c, 0, 53, 0
2, 48692, Note_on_c, 0, 56, 80
2, 48696, Note_on_c, 0, 61, 0
2, 48756, Note_on_c, 0, 53, 80
2, 48765, Note_on_c, 0, 56, 0
2, 48822, Note_on_c, 0, 49, 80
2, 48829, Note_on_c, 0, 53, 0
2, 48838, Note_on_c, 0, 37, 80
2, 48922, Note_on_c, 0, 37, 0
2, 48922, Note_on_c, 0, 49, 0
2, 48951, Note_on_c, 0, 44, 80
2, 48951, Note_on_c, 0, 56, 80
2, 49188, Note_on_c, 0, 44, 0
2, 49190, Note_on_c, 0, 56, 0
2, 49219, Note_on_c, 0, 49, 80
2, 49219, Note_on_c, 0, 61, 80
2, 49316, Note_on_c, 0, 61, 0
2, 49320, Note_on_c, 0, 49, 0
2, 49344, Note_on_c, 0, 53, 80
2, 49349, Note_on_c, 0, 65, 80
2, 49446, Note_on_c, 0, 65, 0
2, 49451, Note_on_c, 0, 53, 0
2, 49480, Note_on_c, 0, 56, 80
2, 49480, Note_on_c, 0, 68, 80
2, 49705, Note_on_c, 0, 56, 0
2, 49707, Note_on_c, 0, 68, 0
2, 49731, Note_on_c, 0, 49, 80
2, 49731, Note_on_c, 0, 53, 80
2, 49731, Note_on_c, 0, 56, 80
2, 49731, Note_on_c, 0, 65, 80
2, 49733, Note_on_c, 0, 61, 80
2, 49735, Note_on_c, 0, 68, 80
2, 49828, Note_on_c, 0, 61, 0
2, 49828, Note_on_c, 0, 65, 0
2, 49833, Note_on_c, 0, 56, 0
2, 49833, Note_on_c, 0, 49, 0
2, 49833, Note_on_c, 0, 53, 0
2, 49835, Note_on_c, 0, 68, 0
2, 49857, Note_on_c, 0, 53, 80
2, 49857, Note_on_c, 0, 57, 80
2, 49857, Note_on_c, 0, 65, 80
2, 49862, Note_on_c, 0, 48, 80
2, 49862, Note_on_c, 0, 60, 80
2, 49864, Note_on_c, 0, 69, 80
2, 49959, Note_on_c, 0, 48, 0
2, 49966, Note_on_c, 0, 60, 0
2, 49966, Note_on_c, 0, 65, 0
2, 49966, Note_on_c, 0, 53, 0
2, 49966, Note_on_c, 0, 57, 0
2, 49970, Note_on_c, 0, 69, 0
2, 49991, Note_on_c, 0, 57, 80
2, 49995, Note_on_c, 0, 48, 80
2, 49995, Note_on_c, 0, 53, 80
2, 49995, Note_on_c, 0, 60, 80
2, 49995, Note_on_c, 0, 65, 80
2, 49995, Note_on_c, 0, 69, 80
2, 50035, Note_on_c, 0, 65, 0
2, 50040, Note_on_c, 0, 69, 0
2, 50064, Note_on_c, 0, 64, 80
2, 50068, Note_on_c, 0, 72, 80
2, 50099, Note_on_c, 0, 48, 0
2, 50104, Note_on_c, 0, 60, 0
2, 50104, Note_on_c, 0, 57, 0
2, 50104, Note_on_c, 0, 53, 0
2, 50131, Note_on_c, 0, 48, 80
2, 50131, Note_on_c, 0, 58, 80
2, 50136, Note_on_c, 0, 55, 80
2, 50202, Note_on_c, 0, 74, 80
2, 50207, Note_on_c, 0, 72, 0
2, 50237, Note_on_c, 0, 58, 0
2, 50237, Note_on_c, 0, 48, 0
2, 50239, Note_on_c, 0, 64, 0
2, 50239, Note_on_c, 0, 55, 0
2, 50263, Note_on_c, 0, 48, 80
2, 50263, Note_on_c, 0, 55, 80
2, 50263, Note_on_c, 0, 58, 80
2, 50268, Note_on_c, 0, 64, 80
2, 50270, Note_on_c, 0, 67, 80
2, 50272, Note_on_c, 0, 74, 0
2, 50369, Note_on_c, 0, 58, 0
2, 50369, Note_on_c, 0, 48, 0
2, 50369, Note_on_c, 0, 67, 0
2, 50374, Note_on_c, 0, 55, 0
2, 50374, Note_on_c, 0, 64, 0
2, 50402, Note_on_c, 0, 53, 80
2, 50402, Note_on_c, 0, 57, 80
2, 50402, Note_on_c, 0, 65, 80
2, 50506, Note_on_c, 0, 65, 0
2, 50508, Note_on_c, 0, 53, 0
2, 50510, Note_on_c, 0, 57, 0
2, 50537, Note_on_c, 0, 65, 80
2, 50539, Note_on_c, 0, 53, 80
2, 50576, Note_on_c, 0, 65, 0
2, 50581, Note_on_c, 0, 53, 0
2, 50605, Note_on_c, 0, 55, 80
2, 50612, Note_on_c, 0, 67, 80
2, 50645, Note_on_c, 0, 67, 0
2, 50650, Note_on_c, 0, 55, 0
2, 50672, Note_on_c, 0, 56, 80
2, 50679, Note_on_c, 0, 68, 80
2, 50785, Note_on_c, 0, 56, 0
2, 50787, Note_on_c, 0, 68, 0
2, 50811, Note_on_c, 0, 44, 80
2, 50811, Note_on_c, 0, 56, 80
2, 50915, Note_on_c, 0, 44, 0
2, 50920, Note_on_c, 0, 56, 0
2, 50947, Note_on_c, 0, 49, 80
2, 50955, Note_on_c, 0, 37, 80
2, 51046, Note_on_c, 0, 49, 0
2, 51050, Note_on_c, 0, 37, 0
2, 51072, Note_on_c, 0, 44, 80
2, 51072, Note_on_c, 0, 56, 80
2, 51303, Note_on_c, 0, 44, 0
2, 51308, Note_on_c, 0, 56, 0
2, 51332, Note_on_c, 0, 49, 80
2, 51336, Note_on_c, 0, 61, 80
2, 51433, Note_on_c, 0, 61, 0
2, 51438, Note_on_c, 0, 49, 0
2, 51460, Note_on_c, 0, 53, 80
2, 51465, Note_on_c, 0, 65, 80
2, 51567, Note_on_c, 0, 65, 0
2, 51567, Note_on_c, 0, 53, 0
2, 51594, Note_on_c, 0, 56, 80
2, 51596, Note_on_c, 0, 68, 80
2, 51835, Note_on_c, 0, 68, 0
2, 51835, Note_on_c, 0, 56, 0
2, 51859, Note_on_c, 0, 49, 80
2, 51859, Note_on_c, 0, 53, 80
2, 51859, Note_on_c, 0, 56, 80
2, 51861, Note_on_c, 0, 65, 80
2, 51861, Note_on_c, 0, 68, 80
2, 51863, Note_on_c, 0, 61, 80
2, 51958, Note_on_c, 0, 61, 0
2, 51958, Note_on_c, 0, 65, 0
2, 51962, Note_on_c, 0, 56, 0
2, 51962, Note_on_c, 0, 49, 0
2, 51962, Note_on_c, 0, 53, 0
2, 51962, Note_on_c, 0, 68, 0
2, 51984, Note_on_c, 0, 53, 80
2, 51984, Note_on_c, 0, 57, 80
2, 51989, Note_on_c, 0, 48, 80
2, 51989, Note_on_c, 0, 60, 80
2, 51989, Note_on_c, 0, 65, 80
2, 51991, Note_on_c, 0, 69, 80
2, 52081, Note_on_c, 0, 48, 0
2, 52086, Note_on_c, 0, 65, 0
2, 52086, Note_on_c, 0, 60, 0
2, 52086, Note_on_c, 0, 53, 0
2, 52086, Note_on_c, 0, 57, 0
2, 52088, Note_on_c, 0, 69, 0
2, 52112, Note_on_c, 0, 60, 80
2, 52114, Note_on_c, 0, 48, 80
2, 52114, Note_on_c, 0, 57, 80
2, 52114, Note_on_c, 0, 65, 80
2, 52116, Note_on_c, 0, 53, 80
2, 52116, Note_on_c, 0, 69, 80
2, 52152, Note_on_c, 0, 65, 0
2, 52153, Note_on_c, 0, 69, 0
2, 52177, Note_on_c, 0, 64, 80
2, 52179, Note_on_c, 0, 72, 80
2, 52213, Note_on_c, 0, 48, 0
2, 52215, Note_on_c, 0, 57, 0
2, 52217, Note_on_c, 0, 53, 0
2, 52217, Note_on_c, 0, 60, 0
2, 52239, Note_on_c, 0, 48, 80
2, 52239, Note_on_c, 0, 58, 80
2, 52244, Note_on_c, 0, 55, 80
2, 52306, Note_on_c, 0, 74, 80
2, 52311, Note_on_c, 0, 72, 0
2, 52340, Note_on_c, 0, 58, 0
2, 52340, Note_on_c, 0, 48, 0
2, 52344, Note_on_c, 0, 64, 0
2, 52344, Note_on_c, 0, 55, 0
2, 52368, Note_on_c, 0, 48, 80
2, 52368, Note_on_c, 0, 55, 80
2, 52368, Note_on_c, 0, 58, 80
2, 52375, Note_on_c, 0, 64, 80
2, 52375, Note_on_c, 0, 67, 80
2, 52384, Note_on_c, 0, 74, 0
2, 52470, Note_on_c, 0, 58, 0
2, 52470, Note_on_c, 0, 48, 0
2, 52472, Note_on_c, 0, 55, 0
2, 52474, Note_on_c, 0, 67, 0
2, 52474, Note_on_c, 0, 64, 0
2, 52503, Note_on_c, 0, 53, 80
2, 52503, Note_on_c, 0, 57, 80
2, 52503, Note_on_c, 0, 65, 80
2, 52603, Note_on_c, 0, 65, 0
2, 52608, Note_on_c, 0, 57, 0
2, 52608, Note_on_c, 0, 53, 0
2, 52634, Note_on_c, 0, 53, 80
2, 52634, Note_on_c, 0, 65, 80
2, 52670, Note_on_c, 0, 65, 0
2, 52677, Note_on_c, 0, 53, 0
2, 52707, Note_on_c, 0, 55, 80
2, 52707, Note_on_c, 0, 67, 80
2, 52741, Note_on_c, 0, 67, 0
2, 52746, Note_on_c, 0, 55, 0
2, 52773, Note_on_c, 0, 57, 80
2, 52775, Note_on_c, 0, 69, 80
2, 52878, Note_on_c, 0, 69, 0
2, 52909, Note_on_c, 0, 69, 80
2, 53013, Note_on_c, 0, 69, 0
2, 53035, Note_on_c, 0, 53, 80
2, 53037, Note_on_c, 0, 50, 80
2, 53110, Note_on_c, 0, 69, 80
2, 53145, Note_on_c, 0, 69, 0
2, 53145, Note_on_c, 0, 50, 0
2, 53145, Note_on_c, 0, 57, 0
2, 53147, Note_on_c, 0, 53, 0
2, 53169, Note_on_c, 0, 50, 80
2, 53169, Note_on_c, 0, 53, 80
2, 53169, Note_on_c, 0, 57, 80
2, 53174, Note_on_c, 0, 74, 80
2, 53174, Note_on_c, 0, 77, 80
2, 53208, Note_on_c, 0, 77, 0
2, 53212, Note_on_c, 0, 74, 0
2, 53241, Note_on_c, 0, 69, 80
2, 53279, Note_on_c, 0, 50, 0
2, 53279, Note_on_c, 0, 57, 0
2, 53279, Note_on_c, 0, 53, 0
2, 53280, Note_on_c, 0, 69, 0
2, 53304, Note_on_c, 0, 50, 80
2, 53304, Note_on_c, 0, 53, 80
2, 53304, Note_on_c, 0, 57, 80
2, 53309, Note_on_c, 0, 74, 80
2, 53349, Note_on_c, 0, 74, 0
2, 53373, Note_on_c, 0, 77, 80
2, 53379, Note_on_c, 0, 81, 80
2, 53413, Note_on_c, 0, 50, 0
2, 53413, Note_on_c, 0, 57, 0
2, 53413, Note_on_c, 0, 53, 0
2, 53437, Note_on_c, 0, 53, 80
2, 53437, Note_on_c, 0, 57, 80
2, 53439, Note_on_c, 0, 50, 80
2, 53476, Note_on_c, 0, 77, 0
2, 53481, Note_on_c, 0, 81, 0
2, 53505, Note_on_c, 0, 74, 80
2, 53543, Note_on_c, 0, 57, 0
2, 53543, Note_on_c, 0, 50, 0
2, 53544, Note_on_c, 0, 53, 0
2, 53546, Note_on_c, 0, 74, 0
2, 53570, Note_on_c, 0, 50, 80
2, 53570, Note_on_c, 0, 55, 80
2, 53570, Note_on_c, 0, 58, 80
2, 53575, Note_on_c, 0, 81, 80
2, 53575, Note_on_c, 0, 84, 80
2, 53640, Note_on_c, 0, 84, 0
2, 53640, Note_on_c, 0, 79, 80
2, 53640, Note_on_c, 0, 82, 80
2, 53641, Note_on_c, 0, 81, 0
2, 53670, Note_on_c, 0, 58, 0
2, 53670, Note_on_c, 0, 50, 0
2, 53677, Note_on_c, 0, 55, 0
2, 53699, Note_on_c, 0, 55, 80
2, 53699, Note_on_c, 0, 58, 80
2, 53701, Note_on_c, 0, 50, 80
2, 53706, Note_on_c, 0, 74, 80
2, 53708, Note_on_c, 0, 79, 0
2, 53708, Note_on_c, 0, 82, 0
2, 53767, Note_on_c, 0, 79, 80
2, 53767, Note_on_c, 0, 82, 80
2, 53774, Note_on_c, 0, 74, 0
2, 53801, Note_on_c, 0, 58, 0
2, 53801, Note_on_c, 0, 50, 0
2, 53803, Note_on_c, 0, 55, 0
2, 53827, Note_on_c, 0, 50, 80
2, 53827, Note_on_c, 0, 55, 80
2, 53827, Note_on_c, 0, 58, 80
2, 53895, Note_on_c, 0, 74, 80
2, 53900, Note_on_c, 0, 82, 0
2, 53902, Note_on_c, 0, 79, 0
2, 53926, Note_on_c, 0, 58, 0
2, 53930, Note_on_c, 0, 55, 0
2, 53930, Note_on_c, 0, 50, 0
2, 53957, Note_on_c, 0, 50, 80
2, 53957, Note_on_c, 0, 55, 80
2, 53957, Note_on_c, 0, 58, 80
2, 53964, Note_on_c, 0, 67, 80
2, 53971, Note_on_c, 0, 74, 0
2, 54059, Note_on_c, 0, 58, 0
2, 54061, Note_on_c, 0, 50, 0
2, 54063, Note_on_c, 0, 67, 0
2, 54065, Note_on_c, 0, 55, 0
2, 54092, Note_on_c, 0, 50, 80
2, 54092, Note_on_c, 0, 53, 80
2, 54092, Note_on_c, 0, 57, 80
2, 54158, Note_on_c, 0, 69, 80
2, 54193, Note_on_c, 0, 69, 0
2, 54193, Note_on_c, 0, 50, 0
2, 54193, Note_on_c, 0, 53, 0
2, 54193, Note_on_c, 0, 57, 0
2, 54217, Note_on_c, 0, 53, 80
2, 54217, Note_on_c, 0, 57, 80
2, 54224, Note_on_c, 0, 50, 80
2, 54224, Note_on_c, 0, 74, 80
2, 54226, Note_on_c, 0, 77, 80
2, 54257, Note_on_c, 0, 77, 0
2, 54262, Note_on_c, 0, 74, 0
2, 54288, Note_on_c, 0, 69, 80
2, 54324, Note_on_c, 0, 50, 0
2, 54329, Note_on_c, 0, 53, 0
2, 54329, Note_on_c, 0, 57, 0
2, 54329, Note_on_c, 0, 69, 0
2, 54351, Note_on_c, 0, 57, 80
2, 54353, Note_on_c, 0, 50, 80
2, 54353, Note_on_c, 0, 53, 80
2, 54353, Note_on_c, 0, 74, 80
2, 54397, Note_on_c, 0, 74, 0
2, 54419, Note_on_c, 0, 81, 80
2, 54421, Note_on_c, 0, 77, 80
2, 54458, Note_on_c, 0, 57, 0
2, 54458, Note_on_c, 0, 53, 0
2, 54458, Note_on_c, 0, 50, 0
2, 54482, Note_on_c, 0, 50, 80
2, 54482, Note_on_c, 0, 53, 80
2, 54482, Note_on_c, 0, 57, 80
2, 54525, Note_on_c, 0, 77, 0
2, 54529, Note_on_c, 0, 81, 0
2, 54553, Note_on_c, 0, 74, 80
2, 54589, Note_on_c, 0, 53, 0
2, 54589, Note_on_c, 0, 57, 0
2, 54589, Note_on_c, 0, 50, 0
2, 54596, Note_on_c, 0, 74, 0
2, 54616, Note_on_c, 0, 50, 80
2, 54621, Note_on_c, 0, 55, 80
2, 54621, Note_on_c, 0, 58, 80
2, 54623, Note_on_c, 0, 81, 80
2, 54623, Note_on_c, 0, 84, 80
2, 54687, Note_on_c, 0, 84, 0
2, 54687, Note_on_c, 0, 82, 80
2, 54689, Note_on_c, 0, 79, 80
2, 54691, Note_on_c, 0, 81, 0
2, 54715, Note_on_c, 0, 58, 0
2, 54720, Note_on_c, 0, 50, 0
2, 54720, Note_on_c, 0, 55, 0
2, 54748, Note_on_c, 0, 50, 80
2, 54748, Note_on_c, 0, 55, 80
2, 54748, Note_on_c, 0, 58, 80
2, 54750, Note_on_c, 0, 74, 80
2, 54752, Note_on_c, 0, 82, 0
2, 54759, Note_on_c, 0, 79, 0
2, 54818, Note_on_c, 0, 79, 80
2, 54820, Note_on_c, 0, 74, 0
2, 54820, Note_on_c, 0, 82, 80
2, 54849, Note_on_c, 0, 58, 0
2, 54851, Note_on_c, 0, 55, 0
2, 54853, Note_on_c, 0, 50, 0
2, 54875, Note_on_c, 0, 58, 80
2, 54877, Note_on_c, 0, 50, 80
2, 54877, Note_on_c, 0, 55, 80
2, 54950, Note_on_c, 0, 79, 0
2, 54950, Note_on_c, 0, 82, 0
2, 54950, Note_on_c, 0, 73, 80
2, 54977, Note_on_c, 0, 58, 0
2, 54982, Note_on_c, 0, 55, 0
2, 54982, Note_on_c, 0, 50, 0
2, 55006, Note_on_c, 0, 50, 80
2, 55008, Note_on_c, 0, 55, 80
2, 55009, Note_on_c, 0, 58, 80
2, 55011, Note_on_c, 0, 74, 80
2, 55013, Note_on_c, 0, 73, 0
2, 55076, Note_on_c, 0, 75, 80
2, 55080, Note_on_c, 0, 74, 0
2, 55104, Note_on_c, 0, 58, 0
2, 55106, Note_on_c, 0, 50, 0
2, 55111, Note_on_c, 0, 55, 0
2, 55133, Note_on_c, 0, 55, 80
2, 55133, Note_on_c, 0, 58, 80
2, 55138, Note_on_c, 0, 76, 80
2, 55140, Note_on_c, 0, 75, 0
2, 55140, Note_on_c, 0, 48, 80
2, 55200, Note_on_c, 0, 75, 80
2, 55201, Note_on_c, 0, 76, 0
2, 55232, Note_on_c, 0, 48, 0
2, 55232, Note_on_c, 0, 58, 0
2, 55234, Note_on_c, 0, 55, 0
2, 55261, Note_on_c, 0, 48, 80
2, 55261, Note_on_c, 0, 55, 80
2, 55261, Note_on_c, 0, 58, 80
2, 55263, Note_on_c, 0, 76, 80
2, 55265, Note_on_c, 0, 75, 0
2, 55327, Note_on_c, 0, 72, 80
2, 55332, Note_on_c, 0, 76, 0
2, 55361, Note_on_c, 0, 58, 0
2, 55361, Note_on_c, 0, 48, 0
2, 55366, Note_on_c, 0, 55, 0
2, 55390, Note_on_c, 0, 48, 80
2, 55390, Note_on_c, 0, 57, 80
2, 55394, Note_on_c, 0, 53, 80
2, 55394, Note_on_c, 0, 77, 80
2, 55399, Note_on_c, 0, 72, 0
2, 55462, Note_on_c, 0, 77, 0
2, 55468, Note_on_c, 0, 79, 80
2, 55495, Note_on_c, 0, 48, 0
2, 55500, Note_on_c, 0, 53, 0
2, 55505, Note_on_c, 0, 57, 0
2, 55536, Note_on_c, 0, 81, 80
2, 55537, Note_on_c, 0, 79, 0
2, 55604, Note_on_c, 0, 84, 80
2, 55606, Note_on_c, 0, 81, 0
2, 55665, Note_on_c, 0, 60, 80
2, 55667, Note_on_c, 0, 67, 80
2, 55667, Note_on_c, 0, 88, 80
2, 55669, Note_on_c, 0, 84, 0
2, 55669, Note_on_c, 0, 70, 80
2, 55735, Note_on_c, 0, 88, 0
2, 55735, Note_on_c, 0, 87, 80
2, 55771, Note_on_c, 0, 67, 0
2, 55773, Note_on_c, 0, 60, 0
2, 55775, Note_on_c, 0, 70, 0
2, 55797, Note_on_c, 0, 60, 80
2, 55799, Note_on_c, 0, 67, 80
2, 55800, Note_on_c, 0, 87, 0
2, 55800, Note_on_c, 0, 70, 80
2, 55800, Note_on_c, 0, 88, 80
2, 55869, Note_on_c, 0, 84, 80
2, 55871, Note_on_c, 0, 88, 0
2, 55901, Note_on_c, 0, 67, 0
2, 55903, Note_on_c, 0, 60, 0
2, 55903, Note_on_c, 0, 70, 0
2, 55930, Note_on_c, 0, 60, 80
2, 55935, Note_on_c, 0, 65, 80
2, 55935, Note_on_c, 0, 69, 80
2, 55937, Note_on_c, 0, 89, 80
2, 55939, Note_on_c, 0, 84, 0
2, 56003, Note_on_c, 0, 91, 80
2, 56010, Note_on_c, 0, 89, 0
2, 56034, Note_on_c, 0, 65, 0
2, 56036, Note_on_c, 0, 60, 0
2, 56038, Note_on_c, 0, 69, 0
2, 56064, Note_on_c, 0, 93, 80
2, 56071, Note_on_c, 0, 91, 0
2, 56134, Note_on_c, 0, 93, 0
2, 56136, Note_on_c, 0, 96, 80
2, 56198, Note_on_c, 0, 77, 80
2, 56198, Note_on_c, 0, 80, 80
2, 56198, Note_on_c, 0, 97, 80
2, 56205, Note_on_c, 0, 96, 0
2, 56264, Note_on_c, 0, 97, 0
2, 56264, Note_on_c, 0, 101, 80
2, 56298, Note_on_c, 0, 77, 0
2, 56303, Note_on_c, 0, 101, 0
2, 56303, Note_on_c, 0, 80, 0
2, 56329, Note_on_c, 0, 92, 80
2, 56374, Note_on_c, 0, 92, 0
2, 56398, Note_on_c, 0, 89, 80
2, 56462, Note_on_c, 0, 80, 80
2, 56464, Note_on_c, 0, 77, 80
2, 56499, Note_on_c, 0, 89, 0
2, 56528, Note_on_c, 0, 85, 80
2, 56566, Note_on_c, 0, 77, 0
2, 56566, Note_on_c, 0, 80, 0
2, 56570, Note_on_c, 0, 85, 0
2, 56597, Note_on_c, 0, 80, 80
2, 56633, Note_on_c, 0, 80, 0
2, 56666, Note_on_c, 0, 77, 80
2, 56697, Note_on_c, 0, 77, 0
2, 56726, Note_on_c, 0, 65, 80
2, 56728, Note_on_c, 0, 73, 80
2, 56730, Note_on_c, 0, 68, 80
2, 56760, Note_on_c, 0, 73, 0
2, 56794, Note_on_c, 0, 77, 80
2, 56828, Note_on_c, 0, 77, 0
2, 56828, Note_on_c, 0, 65, 0
2, 56832, Note_on_c, 0, 68, 0
2, 56861, Note_on_c, 0, 68, 80
2, 56904, Note_on_c, 0, 68, 0
2, 56928, Note_on_c, 0, 65, 80
2, 56992, Note_on_c, 0, 53, 80
2, 56992, Note_on_c, 0, 56, 80
2, 57031, Note_on_c, 0, 65, 0
2, 57060, Note_on_c, 0, 61, 80
2, 57094, Note_on_c, 0, 56, 0
2, 57096, Note_on_c, 0, 61, 0
2, 57096, Note_on_c, 0, 53, 0
2, 57124, Note_on_c, 0, 56, 80
2, 57167, Note_on_c, 0, 56, 0
2, 57193, Note_on_c, 0, 53, 80
2, 57236, Note_on_c, 0, 53, 0
2, 57260, Note_on_c, 0, 49, 80
2, 57266, Note_on_c, 0, 37, 80
2, 57360, Note_on_c, 0, 37, 0
2, 57361, Note_on_c, 0, 49, 0
2, 57390, Note_on_c, 0, 44, 80
2, 57390, Note_on_c, 0, 56, 80
2, 57618, Note_on_c, 0, 44, 0
2, 57623, Note_on_c, 0, 56, 0
2, 57651, Note_on_c, 0, 49, 80
2, 57651, Note_on_c, 0, 61, 80
2, 57748, Note_on_c, 0, 61, 0
2, 57748, Note_on_c, 0, 49, 0
2, 57777, Note_on_c, 0, 53, 80
2, 57777, Note_on_c, 0, 65, 80
2, 57877, Note_on_c, 0, 65, 0
2, 57882, Note_on_c, 0, 53, 0
2, 57904, Note_on_c, 0, 56, 80
2, 57909, Note_on_c, 0, 68, 80
2, 58139, Note_on_c, 0, 68, 0
2, 58139, Note_on_c, 0, 56, 0
2, 58166, Note_on_c, 0, 49, 80
2, 58166, Note_on_c, 0, 53, 80
2, 58166, Note_on_c, 0, 56, 80
2, 58166, Note_on_c, 0, 61, 80
2, 58166, Note_on_c, 0, 65, 80
2, 58166, Note_on_c, 0, 68, 80
2, 58263, Note_on_c, 0, 61, 0
2, 58265, Note_on_c, 0, 56, 0
2, 58267, Note_on_c, 0, 65, 0
2, 58267, Note_on_c, 0, 49, 0
2, 58267, Note_on_c, 0, 53, 0
2, 58273, Note_on_c, 0, 68, 0
2, 58291, Note_on_c, 0, 60, 80
2, 58293, Note_on_c, 0, 53, 80
2, 58293, Note_on_c, 0, 57, 80
2, 58293, Note_on_c, 0, 65, 80
2, 58295, Note_on_c, 0, 69, 80
2, 58296, Note_on_c, 0, 48, 80
2, 58396, Note_on_c, 0, 48, 0
2, 58396, Note_on_c, 0, 65, 0
2, 58398, Note_on_c, 0, 60, 0
2, 58400, Note_on_c, 0, 53, 0
2, 58400, Note_on_c, 0, 57, 0
2, 58400, Note_on_c, 0, 69, 0
2, 58424, Note_on_c, 0, 48, 80
2, 58424, Note_on_c, 0, 53, 80
2, 58424, Note_on_c, 0, 57, 80
2, 58424, Note_on_c, 0, 60, 80
2, 58424, Note_on_c, 0, 65, 80
2, 58424, Note_on_c, 0, 69, 80
2, 58460, Note_on_c, 0, 65, 0
2, 58464, Note_on_c, 0, 69, 0
2, 58495, Note_on_c, 0, 64, 80
2, 58495, Note_on_c, 0, 72, 80
2, 58529, Note_on_c, 0, 48, 0
2, 58531, Note_on_c, 0, 60, 0
2, 58531, Note_on_c, 0, 57, 0
2, 58533, Note_on_c, 0, 53, 0
2, 58560, Note_on_c, 0, 48, 80
2, 58564, Note_on_c, 0, 55, 80
2, 58564, Note_on_c, 0, 58, 80
2, 58632, Note_on_c, 0, 74, 80
2, 58634, Note_on_c, 0, 72, 0
2, 58663, Note_on_c, 0, 58, 0
2, 58663, Note_on_c, 0, 48, 0
2, 58670, Note_on_c, 0, 64, 0
2, 58699, Note_on_c, 0, 48, 80
2, 58699, Note_on_c, 0, 58, 80
2, 58699, Note_on_c, 0, 64, 80
2, 58699, Note_on_c, 0, 67, 80
2, 58707, Note_on_c, 0, 74, 0
2, 58800, Note_on_c, 0, 58, 0
2, 58800, Note_on_c, 0, 55, 0
2, 58800, Note_on_c, 0, 48, 0
2, 58802, Note_on_c, 0, 67, 0
2, 58807, Note_on_c, 0, 64, 0
2, 58829, Note_on_c, 0, 53, 80
2, 58829, Note_on_c, 0, 57, 80
2, 58834, Note_on_c, 0, 65, 80
2, 58934, Note_on_c, 0, 65, 0
2, 58939, Note_on_c, 0, 57, 0
2, 58939, Note_on_c, 0, 53, 0
2, 58966, Note_on_c, 0, 53, 80
2, 58970, Note_on_c, 0, 65, 80
2, 59001, Note_on_c, 0, 65, 0
2, 59006, Note_on_c, 0, 53, 0
2, 59040, Note_on_c, 0, 55, 80
2, 59040, Note_on_c, 0, 67, 80
2, 59075, Note_on_c, 0, 55, 0
2, 59077, Note_on_c, 0, 67, 0
2, 59104, Note_on_c, 0, 56, 80
2, 59104, Note_on_c, 0, 68, 80
2, 59208, Note_on_c, 0, 56, 0
2, 59209, Note_on_c, 0, 68, 0
2, 59232, Note_on_c, 0, 56, 80
2, 59233, Note_on_c, 0, 44, 80
2, 59335, Note_on_c, 0, 44, 0
2, 59340, Note_on_c, 0, 56, 0
2, 59364, Note_on_c, 0, 49, 80
2, 59369, Note_on_c, 0, 37, 80
2, 59464, Note_on_c, 0, 37, 0
2, 59469, Note_on_c, 0, 49, 0
2, 59497, Note_on_c, 0, 44, 80
2, 59497, Note_on_c, 0, 56, 80
2, 59728, Note_on_c, 0, 44, 0
2, 59736, Note_on_c, 0, 56, 0
2, 59760, Note_on_c, 0, 49, 80
2, 59760, Note_on_c, 0, 61, 80
2, 59862, Note_on_c, 0, 61, 0
2, 59862, Note_on_c, 0, 49, 0
2, 59898, Note_on_c, 0, 53, 80
2, 59898, Note_on_c, 0, 65, 80
2, 59998, Note_on_c, 0, 65, 0
2, 60002, Note_on_c, 0, 53, 0
2, 60031, Note_on_c, 0, 56, 80
2, 60033, Note_on_c, 0, 68, 80
2, 60265, Note_on_c, 0, 68, 0
2, 60265, Note_on_c, 0, 56, 0
2, 60289, Note_on_c, 0, 49, 80
2, 60289, Note_on_c, 0, 53, 80
2, 60289, Note_on_c, 0, 56, 80
2, 60291, Note_on_c, 0, 61, 80
2, 60291, Note_on_c, 0, 65, 80
2, 60291, Note_on_c, 0, 68, 80
2, 60388, Note_on_c, 0, 65, 0
2, 60388, Note_on_c, 0, 61, 0
2, 60388, Note_on_c, 0, 49, 0
2, 60390, Note_on_c, 0, 56, 0
2, 60392, Note_on_c, 0, 68, 0
2, 60409, Note_on_c, 0, 48, 80
2, 60409, Note_on_c, 0, 57, 80
2, 60409, Note_on_c, 0, 60, 80
2, 60411, Note_on_c, 0, 65, 80
2, 60416, Note_on_c, 0, 69, 80
2, 60509, Note_on_c, 0, 65, 0
2, 60509, Note_on_c, 0, 48, 0
2, 60514, Note_on_c, 0, 60, 0
2, 60514, Note_on_c, 0, 53, 0
2, 60514, Note_on_c, 0, 69, 0
2, 60514, Note_on_c, 0, 57, 0
2, 60534, Note_on_c, 0, 48, 80
2, 60536, Note_on_c, 0, 60, 80
2, 60538, Note_on_c, 0, 53, 80
2, 60538, Note_on_c, 0, 57, 80
2, 60538, Note_on_c, 0, 65, 80
2, 60540, Note_on_c, 0, 69, 80
2, 60571, Note_on_c, 0, 65, 0
2, 60577, Note_on_c, 0, 69, 0
2, 60601, Note_on_c, 0, 64, 80
2, 60606, Note_on_c, 0, 72, 80
2, 60633, Note_on_c, 0, 48, 0
2, 60638, Note_on_c, 0, 60, 0
2, 60640, Note_on_c, 0, 57, 0
2, 60640, Note_on_c, 0, 53, 0
2, 60669, Note_on_c, 0, 48, 80
2, 60669, Note_on_c, 0, 58, 80
2, 60673, Note_on_c, 0, 55, 80
2, 60736, Note_on_c, 0, 74, 80
2, 60744, Note_on_c, 0, 72, 0
2, 60767, Note_on_c, 0, 48, 0
2, 60771, Note_on_c, 0, 58, 0
2, 60771, Note_on_c, 0, 55, 0
2, 60776, Note_on_c, 0, 64, 0
2, 60798, Note_on_c, 0, 55, 80
2, 60798, Note_on_c, 0, 58, 80
2, 60800, Note_on_c, 0, 48, 80
2, 60800, Note_on_c, 0, 64, 80
2, 60805, Note_on_c, 0, 67, 80
2, 60812, Note_on_c, 0, 74, 0
2, 60900, Note_on_c, 0, 58, 0
2, 60900, Note_on_c, 0, 48, 0
2, 60900, Note_on_c, 0, 67, 0
2, 60905, Note_on_c, 0, 55, 0
2, 60905, Note_on_c, 0, 64, 0
2, 60929, Note_on_c, 0, 53, 80
2, 60929, Note_on_c, 0, 57, 80
2, 60929, Note_on_c, 0, 65, 80
2, 61032, Note_on_c, 0, 65, 0
2, 61032, Note_on_c, 0, 57, 0
2, 61032, Note_on_c, 0, 53, 0
2, 61070, Note_on_c, 0, 81, 80
2, 61109, Note_on_c, 0, 81, 0
2, 61136, Note_on_c, 0, 84, 80
2, 61176, Note_on_c, 0, 84, 0
2, 61204, Note_on_c, 0, 77, 80
2, 61204, Note_on_c, 0, 89, 80
2, 61267, Note_on_c, 0, 41, 80
2, 61304, Note_on_c, 0, 41, 0
2, 61304, Note_on_c, 0, 77, 0
2, 61316, Note_on_c, 0, 89, 0
2, 61333, Note_on_c, 0, 43, 80
2, 61372, Note_on_c, 0, 43, 0
2, 61406, Note_on_c, 0, 45, 80
2, 61441, Note_on_c, 0, 45, 0
2, 61475, Note_on_c, 0, 46, 80
2, 61543, Note_on_c, 0, 74, 80
2, 61543, Note_on_c, 0, 77, 80
2, 61543, Note_on_c, 0, 82, 80
2, 61543, Note_on_c, 0, 86, 80
2, 61606, Note_on_c, 0, 58, 80
2, 61606, Note_on_c, 0, 65, 80
2, 61614, Note_on_c, 0, 62, 80
2, 61638, Note_on_c, 0, 82, 0
2, 61638, Note_on_c, 0, 77, 0
2, 61643, Note_on_c, 0, 86, 0
2, 61643, Note_on_c, 0, 74, 0
2, 61667, Note_on_c, 0, 74, 80
2, 61669, Note_on_c, 0, 82, 80
2, 61671, Note_on_c, 0, 70, 80
2, 61702, Note_on_c, 0, 46, 0
2, 61702, Note_on_c, 0, 58, 0
2, 61704, Note_on_c, 0, 62, 0
2, 61705, Note_on_c, 0, 65, 0
2, 61734, Note_on_c, 0, 49, 80
2, 61772, Note_on_c, 0, 70, 0
2, 61776, Note_on_c, 0, 74, 0
2, 61800, Note_on_c, 0, 67, 80
2, 61800, Note_on_c, 0, 79, 80
2, 61805, Note_on_c, 0, 82, 0
2, 61868, Note_on_c, 0, 67, 0
2, 61868, Note_on_c, 0, 65, 80
2, 61870, Note_on_c, 0, 50, 80
2, 61872, Note_on_c, 0, 49, 0
2, 61872, Note_on_c, 0, 79, 0
2, 61872, Note_on_c, 0, 77, 80
2, 61934, Note_on_c, 0, 53, 80
2, 61934, Note_on_c, 0, 74, 80
2, 61939, Note_on_c, 0, 65, 0
2, 61939, Note_on_c, 0, 50, 0
2, 61939, Note_on_c, 0, 62, 80
2, 61941, Note_on_c, 0, 77, 0
2, 61996, Note_on_c, 0, 51, 80
2, 61998, Note_on_c, 0, 60, 80
2, 61998, Note_on_c, 0, 65, 80
2, 62003, Note_on_c, 0, 69, 80
2, 62003, Note_on_c, 0, 72, 80
2, 62005, Note_on_c, 0, 53, 0
2, 62007, Note_on_c, 0, 62, 0
2, 62007, Note_on_c, 0, 74, 0
2, 62066, Note_on_c, 0, 50, 80
2, 62073, Note_on_c, 0, 51, 0
2, 62131, Note_on_c, 0, 48, 80
2, 62137, Note_on_c, 0, 50, 0
2, 62195, Note_on_c, 0, 46, 80
2, 62200, Note_on_c, 0, 48, 0
2, 62233, Note_on_c, 0, 65, 0
2, 62238, Note_on_c, 0, 60, 0
2, 62238, Note_on_c, 0, 72, 0
2, 62238, Note_on_c, 0, 69, 0
2, 62262, Note_on_c, 0, 45, 80
2, 62262, Note_on_c, 0, 65, 80
2, 62267, Note_on_c, 0, 46, 0
2, 62267, Note_on_c, 0, 72, 80
2, 62267, Note_on_c, 0, 75, 80
2, 62267, Note_on_c, 0, 77, 80
2, 62329, Note_on_c, 0, 41, 80
2, 62334, Note_on_c, 0, 45, 0
2, 62394, Note_on_c, 0, 41, 0
2, 62394, Note_on_c, 0, 43, 80
2, 62465, Note_on_c, 0, 43, 0
2, 62465, Note_on_c, 0, 45, 80
2, 62496, Note_on_c, 0, 65, 0
2, 62502, Note_on_c, 0, 77, 0
2, 62502, Note_on_c, 0, 75, 0
2, 62509, Note_on_c, 0, 72, 0
2, 62529, Note_on_c, 0, 46, 80
2, 62531, Note_on_c, 0, 45, 0
2, 62595, Note_on_c, 0, 74, 80
2, 62600, Note_on_c, 0, 77, 80
2, 62600, Note_on_c, 0, 82, 80
2, 62600, Note_on_c, 0, 86, 80
2, 62660, Note_on_c, 0, 58, 80
2, 62660, Note_on_c, 0, 65, 80
2, 62664, Note_on_c, 0, 62, 80
2, 62695, Note_on_c, 0, 86, 0
2, 62695, Note_on_c, 0, 82, 0
2, 62695, Note_on_c, 0, 77, 0
2, 62700, Note_on_c, 0, 74, 0
2, 62722, Note_on_c, 0, 74, 80
2, 62727, Note_on_c, 0, 70, 80
2, 62727, Note_on_c, 0, 82, 80
2, 62760, Note_on_c, 0, 46, 0
2, 62760, Note_on_c, 0, 65, 0
2, 62760, Note_on_c, 0, 62, 0
2, 62760, Note_on_c, 0, 58, 0
2, 62789, Note_on_c, 0, 49, 80
2, 62832, Note_on_c, 0, 70, 0
2, 62838, Note_on_c, 0, 74, 0
2, 62865, Note_on_c, 0, 67, 80
2, 62865, Note_on_c, 0, 79, 80
2, 62870, Note_on_c, 0, 82, 0
2, 62929, Note_on_c, 0, 50, 80
2, 62929, Note_on_c, 0, 65, 80
2, 62929, Note_on_c, 0, 77, 80
2, 62934, Note_on_c, 0, 49, 0
2, 62934, Note_on_c, 0, 79, 0
2, 62934, Note_on_c, 0, 67, 0
2, 62994, Note_on_c, 0, 53, 80
2, 62994, Note_on_c, 0, 74, 80
2, 62999, Note_on_c, 0, 50, 0
2, 62999, Note_on_c, 0, 77, 0
2, 62999, Note_on_c, 0, 65, 0
2, 62999, Note_on_c, 0, 62, 80
2, 63054, Note_on_c, 0, 51, 80
2, 63056, Note_on_c, 0, 60, 80
2, 63058, Note_on_c, 0, 65, 80
2, 63063, Note_on_c, 0, 62, 0
2, 63063, Note_on_c, 0, 53, 0
2, 63063, Note_on_c, 0, 69, 80
2, 63063, Note_on_c, 0, 72, 80
2, 63068, Note_on_c, 0, 74, 0
2, 63123, Note_on_c, 0, 50, 80
2, 63128, Note_on_c, 0, 51, 0
2, 63191, Note_on_c, 0, 48, 80
2, 63197, Note_on_c, 0, 50, 0
2, 63257, Note_on_c, 0, 48, 0
2, 63257, Note_on_c, 0, 46, 80
2, 63292, Note_on_c, 0, 69, 0
2, 63292, Note_on_c, 0, 65, 0
2, 63292, Note_on_c, 0, 60, 0
2, 63292, Note_on_c, 0, 72, 0
2, 63321, Note_on_c, 0, 45, 80
2, 63321, Note_on_c, 0, 65, 80
2, 63321, Note_on_c, 0, 72, 80
2, 63323, Note_on_c, 0, 46, 0
2, 63325, Note_on_c, 0, 75, 80
2, 63325, Note_on_c, 0, 77, 80
2, 63384, Note_on_c, 0, 45, 0
2, 63384, Note_on_c, 0, 43, 80
2, 63449, Note_on_c, 0, 41, 80
2, 63454, Note_on_c, 0, 43, 0
2, 63544, Note_on_c, 0, 41, 0
2, 63549, Note_on_c, 0, 77, 0
2, 63549, Note_on_c, 0, 65, 0
2, 63553, Note_on_c, 0, 72, 0
2, 63553, Note_on_c, 0, 75, 0
2, 63711, Note_on_c, 0, 66, 80
2, 63716, Note_on_c, 0, 72, 80
2, 63716, Note_on_c, 0, 75, 80
2, 63716, Note_on_c, 0, 81, 80
2, 63746, Note_on_c, 0, 75, 0
2, 63746, Note_on_c, 0, 66, 0
2, 63751, Note_on_c, 0, 72, 0
2, 63751, Note_on_c, 0, 81, 0
2, 63773, Note_on_c, 0, 72, 80
2, 63773, Note_on_c, 0, 75, 80
2, 63780, Note_on_c, 0, 66, 80
2, 63780, Note_on_c, 0, 81, 80
2, 63912, Note_on_c, 0, 78, 80
2, 63919, Note_on_c, 0, 81, 0
2, 63943, Note_on_c, 0, 66, 0
2, 63945, Note_on_c, 0, 72, 0
2, 63945, Note_on_c, 0, 75, 0
2, 63976, Note_on_c, 0, 66, 80
2, 63976, Note_on_c, 0, 72, 80
2, 63976, Note_on_c, 0, 75, 80
2, 63978, Note_on_c, 0, 79, 80
2, 63984, Note_on_c, 0, 78, 0
2, 64047, Note_on_c, 0, 81, 80
2, 64049, Note_on_c, 0, 79, 0
2, 64076, Note_on_c, 0, 66, 0
2, 64080, Note_on_c, 0, 75, 0
2, 64085, Note_on_c, 0, 72, 0
2, 64109, Note_on_c, 0, 67, 80
2, 64109, Note_on_c, 0, 70, 80
2, 64111, Note_on_c, 0, 74, 80
2, 64111, Note_on_c, 0, 82, 80
2, 64120, Note_on_c, 0, 81, 0
2, 64147, Note_on_c, 0, 82, 0
2, 64180, Note_on_c, 0, 82, 80
2, 64280, Note_on_c, 0, 67, 0
2, 64282, Note_on_c, 0, 82, 0
2, 64282, Note_on_c, 0, 70, 0
2, 64284, Note_on_c, 0, 74, 0
2, 64308, Note_on_c, 0, 74, 80
2, 64313, Note_on_c, 0, 67, 80
2, 64313, Note_on_c, 0, 70, 80
2, 64313, Note_on_c, 0, 82, 80
2, 64416, Note_on_c, 0, 82, 0
2, 64445, Note_on_c, 0, 81, 80
2, 64479, Note_on_c, 0, 67, 0
2, 64481, Note_on_c, 0, 74, 0
2, 64481, Note_on_c, 0, 70, 0
2, 64486, Note_on_c, 0, 81, 0
2, 64508, Note_on_c, 0, 74, 80
2, 64510, Note_on_c, 0, 70, 80
2, 64512, Note_on_c, 0, 67, 80
2, 64513, Note_on_c, 0, 82, 80
2, 64547, Note_on_c, 0, 82, 0
2, 64584, Note_on_c, 0, 83, 80
2, 64611, Note_on_c, 0, 67, 0
2, 64616, Note_on_c, 0, 70, 0
2, 64618, Note_on_c, 0, 83, 0
2, 64620, Note_on_c, 0, 74, 0
2, 64640, Note_on_c, 0, 69, 80
2, 64642, Note_on_c, 0, 75, 80
2, 64642, Note_on_c, 0, 84, 80
2, 64644, Note_on_c, 0, 67, 80
2, 64678, Note_on_c, 0, 84, 0
2, 64708, Note_on_c, 0, 84, 80
2, 64808, Note_on_c, 0, 84, 0
2, 64808, Note_on_c, 0, 67, 0
2, 64813, Note_on_c, 0, 75, 0
2, 64813, Note_on_c, 0, 69, 0
2, 64844, Note_on_c, 0, 69, 80
2, 64844, Note_on_c, 0, 75, 80
2, 64846, Note_on_c, 0, 67, 80
2, 64848, Note_on_c, 0, 84, 80
2, 64978, Note_on_c, 0, 84, 0
2, 64978, Note_on_c, 0, 83, 80
2, 65009, Note_on_c, 0, 75, 0
2, 65011, Note_on_c, 0, 69, 0
2, 65011, Note_on_c, 0, 67, 0
2, 65038, Note_on_c, 0, 67, 80
2, 65038, Note_on_c, 0, 75, 80
2, 65040, Note_on_c, 0, 69, 80
2, 65044, Note_on_c, 0, 84, 80
2, 65046, Note_on_c, 0, 83, 0
2, 65109, Note_on_c, 0, 84, 0
2, 65113, Note_on_c, 0, 85, 80
2, 65140, Note_on_c, 0, 75, 0
2, 65142, Note_on_c, 0, 67, 0
2, 65147, Note_on_c, 0, 69, 0
2, 65169, Note_on_c, 0, 66, 80
2, 65169, Note_on_c, 0, 74, 80
2, 65174, Note_on_c, 0, 69, 80
2, 65174, Note_on_c, 0, 86, 80
2, 65179, Note_on_c, 0, 85, 0
2, 65274, Note_on_c, 0, 66, 0
2, 65279, Note_on_c, 0, 69, 0
2, 65279, Note_on_c, 0, 74, 0
2, 65279, Note_on_c, 0, 86, 0
2, 65303, Note_on_c, 0, 38, 80
2, 65303, Note_on_c, 0, 50, 80
2, 65475, Note_on_c, 0, 50, 0
2, 65475, Note_on_c, 0, 38, 0
2, 65504, Note_on_c, 0, 41, 80
2, 65538, Note_on_c, 0, 41, 0
2, 65571, Note_on_c, 0, 43, 80
2, 65609, Note_on_c, 0, 43, 0
2, 65640, Note_on_c, 0, 45, 80
2, 65677, Note_on_c, 0, 45, 0
2, 65706, Note_on_c, 0, 46, 80
2, 65770, Note_on_c, 0, 74, 80
2, 65770, Note_on_c, 0, 77, 80
2, 65770, Note_on_c, 0, 82, 80
2, 65775, Note_on_c, 0, 86, 80
2, 65834, Note_on_c, 0, 58, 80
2, 65834, Note_on_c, 0, 65, 80
2, 65839, Note_on_c, 0, 62, 80
2, 65868, Note_on_c, 0, 86, 0
2, 65868, Note_on_c, 0, 82, 0
2, 65868, Note_on_c, 0, 77, 0
2, 65873, Note_on_c, 0, 74, 0
2, 65900, Note_on_c, 0, 70, 80
2, 65900, Note_on_c, 0, 74, 80
2, 65902, Note_on_c, 0, 82, 80
2, 65930, Note_on_c, 0, 46, 0
2, 65930, Note_on_c, 0, 58, 0
2, 65935, Note_on_c, 0, 62, 0
2, 65935, Note_on_c, 0, 65, 0
2, 65962, Note_on_c, 0, 49, 80
2, 65998, Note_on_c, 0, 70, 0
2, 66002, Note_on_c, 0, 74, 0
2, 66031, Note_on_c, 0, 67, 80
2, 66033, Note_on_c, 0, 82, 0
2, 66035, Note_on_c, 0, 79, 80
2, 66095, Note_on_c, 0, 67, 0
2, 66095, Note_on_c, 0, 50, 80
2, 66095, Note_on_c, 0, 65, 80
2, 66096, Note_on_c, 0, 77, 80
2, 66098, Note_on_c, 0, 79, 0
2, 66098, Note_on_c, 0, 49, 0
2, 66158, Note_on_c, 0, 53, 80
2, 66158, Note_on_c, 0, 74, 80
2, 66163, Note_on_c, 0, 65, 0
2, 66163, Note_on_c, 0, 77, 0
2, 66168, Note_on_c, 0, 50, 0
2, 66168, Note_on_c, 0, 62, 80
2, 66218, Note_on_c, 0, 51, 80
2, 66225, Note_on_c, 0, 60, 80
2, 66225, Note_on_c, 0, 65, 80
2, 66225, Note_on_c, 0, 72, 80
2, 66227, Note_on_c, 0, 69, 80
2, 66232, Note_on_c, 0, 62, 0
2, 66232, Note_on_c, 0, 53, 0
2, 66237, Note_on_c, 0, 74, 0
2, 66289, Note_on_c, 0, 50, 80
2, 66294, Note_on_c, 0, 51, 0
2, 66354, Note_on_c, 0, 48, 80
2, 66360, Note_on_c, 0, 50, 0
2, 66420, Note_on_c, 0, 48, 0
2, 66420, Note_on_c, 0, 46, 80
2, 66454, Note_on_c, 0, 65, 0
2, 66456, Note_on_c, 0, 69, 0
2, 66456, Note_on_c, 0, 72, 0
2, 66456, Note_on_c, 0, 60, 0
2, 66484, Note_on_c, 0, 46, 0
2, 66484, Note_on_c, 0, 65, 80
2, 66484, Note_on_c, 0, 72, 80
2, 66486, Note_on_c, 0, 45, 80
2, 66488, Note_on_c, 0, 75, 80
2, 66488, Note_on_c, 0, 77, 80
2, 66548, Note_on_c, 0, 45, 0
2, 66548, Note_on_c, 0, 41, 80
2, 66614, Note_on_c, 0, 41, 0
2, 66614, Note_on_c, 0, 43, 80
2, 66678, Note_on_c, 0, 45, 80
2, 66680, Note_on_c, 0, 43, 0
2, 66716, Note_on_c, 0, 77, 0
2, 66716, Note_on_c, 0, 75, 0
2, 66716, Note_on_c, 0, 65, 0
2, 66720, Note_on_c, 0, 72, 0
2, 66747, Note_on_c, 0, 45, 0
2, 66747, Note_on_c, 0, 46, 80
2, 66814, Note_on_c, 0, 74, 80
2, 66814, Note_on_c, 0, 77, 80
2, 66818, Note_on_c, 0, 82, 80
2, 66818, Note_on_c, 0, 86, 80
2, 66883, Note_on_c, 0, 58, 80
2, 66883, Note_on_c, 0, 65, 80
2, 66885, Note_on_c, 0, 62, 80
2, 66918, Note_on_c, 0, 86, 0
2, 66918, Note_on_c, 0, 82, 0
2, 66918, Note_on_c, 0, 77, 0
2, 66923, Note_on_c, 0, 74, 0
2, 66945, Note_on_c, 0, 74, 80
2, 66950, Note_on_c, 0, 70, 80
2, 66950, Note_on_c, 0, 82, 80
2, 66981, Note_on_c, 0, 46, 0
2, 66981, Note_on_c, 0, 58, 0
2, 66983, Note_on_c, 0, 62, 0
2, 66983, Note_on_c, 0, 65, 0
2, 67013, Note_on_c, 0, 49, 80
2, 67051, Note_on_c, 0, 70, 0
2, 67056, Note_on_c, 0, 74, 0
2, 67082, Note_on_c, 0, 67, 80
2, 67082, Note_on_c, 0, 79, 80
2, 67084, Note_on_c, 0, 82, 0
2, 67144, Note_on_c, 0, 50, 80
2, 67144, Note_on_c, 0, 65, 80
2, 67151, Note_on_c, 0, 49, 0
2, 67151, Note_on_c, 0, 67, 0
2, 67151, Note_on_c, 0, 77, 80
2, 67155, Note_on_c, 0, 79, 0
2, 67213, Note_on_c, 0, 53, 80
2, 67215, Note_on_c, 0, 74, 80
2, 67217, Note_on_c, 0, 77, 0
2, 67217, Note_on_c, 0, 65, 0
2, 67219, Note_on_c, 0, 50, 0
2, 67219, Note_on_c, 0, 62, 80
2, 67276, Note_on_c, 0, 51, 80
2, 67281, Note_on_c, 0, 62, 0
2, 67281, Note_on_c, 0, 60, 80
2, 67281, Note_on_c, 0, 65, 80
2, 67281, Note_on_c, 0, 69, 80
2, 67281, Note_on_c, 0, 72, 80
2, 67286, Note_on_c, 0, 53, 0
2, 67291, Note_on_c, 0, 74, 0
2, 67348, Note_on_c, 0, 50, 80
2, 67353, Note_on_c, 0, 51, 0
2, 67411, Note_on_c, 0, 48, 80
2, 67419, Note_on_c, 0, 50, 0
2, 67482, Note_on_c, 0, 48, 0
2, 67482, Note_on_c, 0, 46, 80
2, 67517, Note_on_c, 0, 65, 0
2, 67522, Note_on_c, 0, 72, 0
2, 67522, Note_on_c, 0, 60, 0
2, 67522, Note_on_c, 0, 69, 0
2, 67549, Note_on_c, 0, 46, 0
2, 67549, Note_on_c, 0, 45, 80
2, 67549, Note_on_c, 0, 65, 80
2, 67551, Note_on_c, 0, 77, 80
2, 67553, Note_on_c, 0, 69, 80
2, 67553, Note_on_c, 0, 75, 80
2, 67612, Note_on_c, 0, 45, 0
2, 67612, Note_on_c, 0, 43, 80
2, 67679, Note_on_c, 0, 41, 80
2, 67680, Note_on_c, 0, 43, 0
2, 67782, Note_on_c, 0, 65, 0
2, 67782, Note_on_c, 0, 41, 0
2, 67784, Note_on_c, 0, 77, 0
2, 67784, Note_on_c, 0, 75, 0
2, 67786, Note_on_c, 0, 69, 0
2, 67808, Note_on_c, 0, 70, 80
2, 67810, Note_on_c, 0, 39, 80
2, 67810, Note_on_c, 0, 66, 80
2, 67810, Note_on_c, 0, 75, 80
2, 67812, Note_on_c, 0, 78, 80
2, 67874, Note_on_c, 0, 42, 80
2, 67879, Note_on_c, 0, 39, 0
2, 67945, Note_on_c, 0, 42, 0
2, 67945, Note_on_c, 0, 46, 80
2, 68003, Note_on_c, 0, 51, 80
2, 68010, Note_on_c, 0, 46, 0
2, 68043, Note_on_c, 0, 66, 0
2, 68045, Note_on_c, 0, 78, 0
2, 68047, Note_on_c, 0, 70, 0
2, 68047, Note_on_c, 0, 75, 0
2, 68074, Note_on_c, 0, 70, 80
2, 68074, Note_on_c, 0, 74, 80
2, 68074, Note_on_c, 0, 77, 80
2, 68076, Note_on_c, 0, 50, 80
2, 68076, Note_on_c, 0, 65, 80
2, 68078, Note_on_c, 0, 51, 0
2, 68144, Note_on_c, 0, 53, 80
2, 68146, Note_on_c, 0, 50, 0
2, 68177, Note_on_c, 0, 77, 0
2, 68179, Note_on_c, 0, 65, 0
2, 68181, Note_on_c, 0, 70, 0
2, 68181, Note_on_c, 0, 74, 0
2, 68208, Note_on_c, 0, 58, 80
2, 68209, Note_on_c, 0, 89, 80
2, 68211, Note_on_c, 0, 53, 0
2, 68211, Note_on_c, 0, 77, 80
2, 68211, Note_on_c, 0, 82, 80
2, 68211, Note_on_c, 0, 86, 80
2, 68271, Note_on_c, 0, 58, 0
2, 68280, Note_on_c, 0, 62, 80
2, 68306, Note_on_c, 0, 82, 0
2, 68306, Note_on_c, 0, 86, 0
2, 68306, Note_on_c, 0, 77, 0
2, 68308, Note_on_c, 0, 89, 0
2, 68337, Note_on_c, 0, 87, 80
2, 68339, Note_on_c, 0, 62, 0
2, 68339, Note_on_c, 0, 63, 80
2, 68339, Note_on_c, 0, 78, 80
2, 68339, Note_on_c, 0, 82, 80
2, 68339, Note_on_c, 0, 90, 80
2, 68405, Note_on_c, 0, 66, 80
2, 68410, Note_on_c, 0, 63, 0
2, 68468, Note_on_c, 0, 66, 0
2, 68468, Note_on_c, 0, 70, 80
2, 68536, Note_on_c, 0, 75, 80
2, 68541, Note_on_c, 0, 70, 0
2, 68571, Note_on_c, 0, 87, 0
2, 68573, Note_on_c, 0, 82, 0
2, 68573, Note_on_c, 0, 78, 0
2, 68575, Note_on_c, 0, 90, 0
2, 68602, Note_on_c, 0, 74, 80
2, 68602, Note_on_c, 0, 77, 80
2, 68602, Note_on_c, 0, 82, 80
2, 68607, Note_on_c, 0, 75, 0
2, 68607, Note_on_c, 0, 86, 80
2, 68607, Note_on_c, 0, 89, 80
2, 68702, Note_on_c, 0, 77, 0
2, 68709, Note_on_c, 0, 86, 0
2, 68709, Note_on_c, 0, 82, 0
2, 68711, Note_on_c, 0, 89, 0
2, 68712, Note_on_c, 0, 74, 0
2, 68863, Note_on_c, 0, 70, 80
2, 68865, Note_on_c, 0, 48, 80
2, 68865, Note_on_c, 0, 64, 80
2, 68929, Note_on_c, 0, 48, 0
2, 68929, Note_on_c, 0, 52, 80
2, 68994, Note_on_c, 0, 52, 0
2, 68994, Note_on_c, 0, 55, 80
2, 69031, Note_on_c, 0, 64, 0
2, 69031, Note_on_c, 0, 70, 0
2, 69058, Note_on_c, 0, 53, 80
2, 69058, Note_on_c, 0, 63, 80
2, 69058, Note_on_c, 0, 69, 80
2, 69058, Note_on_c, 0, 72, 80
2, 69063, Note_on_c, 0, 55, 0
2, 69185, Note_on_c, 0, 74, 80
2, 69193, Note_on_c, 0, 72, 0
2, 69222, Note_on_c, 0, 69, 0
2, 69222, Note_on_c, 0, 53, 0
2, 69222, Note_on_c, 0, 63, 0
2, 69251, Note_on_c, 0, 41, 80
2, 69251, Note_on_c, 0, 53, 80
2, 69251, Note_on_c, 0, 63, 80
2, 69251, Note_on_c, 0, 69, 80
2, 69251, Note_on_c, 0, 72, 80
2, 69260, Note_on_c, 0, 74, 0
2, 69346, Note_on_c, 0, 41, 0
2, 69353, Note_on_c, 0, 72, 0
2, 69355, Note_on_c, 0, 63, 0
2, 69355, Note_on_c, 0, 69, 0
2, 69355, Note_on_c, 0, 53, 0
2, 69377, Note_on_c, 0, 46, 80
2, 69377, Note_on_c, 0, 53, 80
2, 69384, Note_on_c, 0, 70, 80
2, 69388, Note_on_c, 0, 62, 80
2, 69481, Note_on_c, 0, 46, 0
2, 69483, Note_on_c, 0, 53, 0
2, 69483, Note_on_c, 0, 70, 0
2, 69483, Note_on_c, 0, 62, 0
2, 69512, Note_on_c, 0, 60, 80
2, 69514, Note_on_c, 0, 72, 80
2, 69552, Note_on_c, 0, 60, 0
2, 69556, Note_on_c, 0, 72, 0
2, 69578, Note_on_c, 0, 74, 80
2, 69585, Note_on_c, 0, 62, 80
2, 69616, Note_on_c, 0, 62, 0
2, 69623, Note_on_c, 0, 74, 0
2, 69647, Note_on_c, 0, 63, 80
2, 69647, Note_on_c, 0, 75, 80
2, 69748, Note_on_c, 0, 75, 0
2, 69753, Note_on_c, 0, 63, 0
2, 69782, Note_on_c, 0, 74, 80
2, 69787, Note_on_c, 0, 62, 80
2, 69817, Note_on_c, 0, 62, 0
2, 69822, Note_on_c, 0, 74, 0
2, 69851, Note_on_c, 0, 63, 80
2, 69851, Note_on_c, 0, 75, 80
2, 69888, Note_on_c, 0, 75, 0
2, 69890, Note_on_c, 0, 63, 0
2, 69914, Note_on_c, 0, 65, 80
2, 69914, Note_on_c, 0, 77, 80
2, 70011, Note_on_c, 0, 77, 0
2, 70011, Note_on_c, 0, 65, 0
2, 70042, Note_on_c, 0, 63, 80
2, 70044, Note_on_c, 0, 75, 80
2, 70078, Note_on_c, 0, 75, 0
2, 70082, Note_on_c, 0, 63, 0
2, 70109, Note_on_c, 0, 77, 80
2, 70111, Note_on_c, 0, 65, 80
2, 70145, Note_on_c, 0, 65, 0
2, 70150, Note_on_c, 0, 77, 0
2, 70176, Note_on_c, 0, 79, 80
2, 70178, Note_on_c, 0, 67, 80
2, 70278, Note_on_c, 0, 67, 0
2, 70283, Note_on_c, 0, 79, 0
2, 70319, Note_on_c, 0, 70, 80
2, 70319, Note_on_c, 0, 82, 80
2, 70356, Note_on_c, 0, 82, 0
2, 70356, Note_on_c, 0, 70, 0
2, 70383, Note_on_c, 0, 79, 80
2, 70385, Note_on_c, 0, 67, 80
2, 70416, Note_on_c, 0, 67, 0
2, 70416, Note_on_c, 0, 79, 0
2, 70444, Note_on_c, 0, 65, 80
2, 70449, Note_on_c, 0, 77, 80
2, 70546, Note_on_c, 0, 77, 0
2, 70546, Note_on_c, 0, 65, 0
2, 70580, Note_on_c, 0, 79, 80
2, 70582, Note_on_c, 0, 67, 80
2, 70617, Note_on_c, 0, 67, 0
2, 70617, Note_on_c, 0, 79, 0
2, 70648, Note_on_c, 0, 65, 80
2, 70650, Note_on_c, 0, 77, 80
2, 70683, Note_on_c, 0, 77, 0
2, 70683, Note_on_c, 0, 65, 0
2, 70714, Note_on_c, 0, 74, 80
2, 70716, Note_on_c, 0, 62, 80
2, 70811, Note_on_c, 0, 62, 0
2, 70813, Note_on_c, 0, 74, 0
2, 70842, Note_on_c, 0, 55, 80
2, 70842, Note_on_c, 0, 67, 80
2, 70944, Note_on_c, 0, 67, 0
2, 70948, Note_on_c, 0, 55, 0
2, 70972, Note_on_c, 0, 48, 80
2, 70972, Note_on_c, 0, 64, 80
2, 70977, Note_on_c, 0, 70, 80
2, 71040, Note_on_c, 0, 48, 0
2, 71040, Note_on_c, 0, 52, 80
2, 71108, Note_on_c, 0, 52, 0
2, 71108, Note_on_c, 0, 55, 80
2, 71145, Note_on_c, 0, 70, 0
2, 71150, Note_on_c, 0, 64, 0
2, 71174, Note_on_c, 0, 53, 80
2, 71174, Note_on_c, 0, 63, 80
2, 71179, Note_on_c, 0, 69, 80
2, 71179, Note_on_c, 0, 72, 80
2, 71181, Note_on_c, 0, 55, 0
2, 71304, Note_on_c, 0, 74, 80
2, 71309, Note_on_c, 0, 72, 0
2, 71340, Note_on_c, 0, 69, 0
2, 71340, Note_on_c, 0, 53, 0
2, 71340, Note_on_c, 0, 63, 0
2, 71367, Note_on_c, 0, 72, 80
2, 71369, Note_on_c, 0, 41, 80
2, 71369, Note_on_c, 0, 53, 80
2, 71369, Note_on_c, 0, 63, 80
2, 71369, Note_on_c, 0, 69, 80
2, 71377, Note_on_c, 0, 74, 0
2, 71466, Note_on_c, 0, 41, 0
2, 71471, Note_on_c, 0, 72, 0
2, 71471, Note_on_c, 0, 63, 0
2, 71471, Note_on_c, 0, 69, 0
2, 71499, Note_on_c, 0, 46, 80
2, 71499, Note_on_c, 0, 70, 80
2, 71501, Note_on_c, 0, 62, 80
2, 71596, Note_on_c, 0, 46, 0
2, 71601, Note_on_c, 0, 53, 0
2, 71601, Note_on_c, 0, 70, 0
2, 71601, Note_on_c, 0, 62, 0
2, 71762, Note_on_c, 0, 34, 80
2, 71762, Note_on_c, 0, 46, 80
2, 71764, Note_on_c, 0, 70, 80
2, 71764, Note_on_c, 0, 77, 80
2, 71764, Note_on_c, 0, 82, 80
2, 71766, Note_on_c, 0, 74, 80
2, 71861, Note_on_c, 0, 46, 0
2, 71861, Note_on_c, 0, 34, 0
2, 71866, Note_on_c, 0, 82, 0
2, 71866, Note_on_c, 0, 77, 0
2, 71866, Note_on_c, 0, 70, 0
2, 71871, Note_on_c, 0, 74, 0
2, 71871, End_track
3, 0, Start_track
3, 0, Title_t, "c/b Scott Joplin"
3, 0, End_track
4, 0, Start_track
4, 0, Title_t, "p/b Scott Joplin"
4, 0, End_track
5, 0, Start_track
5, 0, Title_t, "Jazz Classics"
5, 0, End_track
6, 0, Start_track
6, 0, Title_t, "Scan of a player piano roll"
6, 0, End_track
7, 0, Start_track
7, 0, Title_t, "by Terry Smythe, Winnipeg, Canada"
7, 0, End_track
8, 0, Start_track
8, 1, Copyright_t, "___________________________________________________\012\012KUNSTDERFUGE.COM LARGE CLASSICAL MIDI COLLECTION\012ONCLASSICAL BY ALESSANDRO SIMONETTO, PROPRIETOR\012___________________________________________________\012\012! Attention: this file is under copyright !\012\012(c)onclassical, (nc)smythe, 2010\012___________________________________________________\012\012NO ONE MAY REPUBLISH THIS FILE WITHOUT PERMISSION\012COMMERCIAL USES OF THIS FILE IS STRICTLY PROHIBITED\012___________________________________________________\012\012Files & contributor's list: http://kunstderfuge.com/\012Terms and conditions: http://kunstderfuge.com/notes.htm"
8, 1, End_track
0, 0, End_of_file
