0, 0, Header, 1, 18, 384
1, 0, Start_track
1, 0, Time_signature, 4, 2, 96, 8
1, 0, Sequencer_specific, 3, 0, 0, 65
1, 0, Tempo, 500000
1, 0, End_track
2, 0, Start_track
2, 0, Title_t, "Scott Joplin's Rag-Time performance"
2, 0, Key_signature, 0, "major"
2, 1948, Note_on_c, 1, 67, 70
2, 1948, Note_on_c, 1, 55, 52
2, 2072, Note_on_c, 1, 66, 72
2, 2072, Note_on_c, 1, 54, 58
2, 2076, Note_off_c, 1, 67, 64
2, 2080, Note_off_c, 1, 55, 64
2, 2204, Note_on_c, 1, 65, 67
2, 2204, Note_on_c, 1, 53, 57
2, 2208, Note_off_c, 1, 66, 64
2, 2216, Note_off_c, 1, 54, 64
2, 2228, Note_off_c, 1, 53, 64
2, 2240, Note_off_c, 1, 65, 64
2, 2328, Note_on_c, 1, 70, 75
2, 2332, Note_on_c, 1, 58, 61
2, 2604, Note_on_c, 1, 69, 70
2, 2616, Note_off_c, 1, 70, 64
2, 2616, Note_off_c, 1, 58, 64
2, 2616, Note_on_c, 1, 57, 49
2, 2724, Note_on_c, 1, 58, 48
2, 2728, Note_on_c, 1, 70, 66
2, 2732, Note_off_c, 1, 57, 64
2, 2748, Note_off_c, 1, 69, 64
2, 2828, Note_off_c, 1, 70, 64
2, 2840, Note_off_c, 1, 58, 64
2, 3004, Note_on_c, 1, 60, 64
2, 3004, Note_on_c, 1, 72, 80
2, 3124, Note_off_c, 1, 72, 64
2, 3124, Note_on_c, 1, 71, 86
2, 3132, Note_on_c, 1, 59, 66
2, 3140, Note_off_c, 1, 60, 64
2, 3252, Note_on_c, 1, 58, 47
2, 3256, Note_off_c, 1, 59, 64
2, 3256, Note_on_c, 1, 70, 81
2, 3264, Note_off_c, 1, 71, 64
2, 3292, Note_off_c, 1, 58, 64
2, 3300, Note_off_c, 1, 70, 64
2, 3392, Note_on_c, 1, 74, 86
2, 3392, Note_on_c, 1, 62, 64
2, 3660, Note_on_c, 1, 61, 45
2, 3660, Note_on_c, 1, 73, 70
2, 3664, Note_off_c, 1, 74, 64
2, 3668, Note_off_c, 1, 62, 64
2, 3800, Note_off_c, 1, 73, 64
2, 3804, Note_on_c, 1, 74, 64
2, 3804, Note_on_c, 1, 62, 43
2, 3816, Note_off_c, 1, 61, 64
2, 3928, Note_off_c, 1, 74, 64
2, 3928, Note_off_c, 1, 62, 64
2, 4044, Note_on_c, 1, 65, 43
2, 4060, Note_on_c, 1, 77, 75
2, 4180, Note_off_c, 1, 65, 64
2, 4192, Note_off_c, 1, 77, 64
2, 4192, Note_on_c, 1, 73, 73
2, 4192, Note_on_c, 1, 61, 42
2, 4316, Note_on_c, 1, 62, 66
2, 4320, Note_off_c, 1, 73, 64
2, 4320, Note_on_c, 1, 74, 78
2, 4332, Note_off_c, 1, 61, 64
2, 4444, Note_on_c, 1, 57, 64
2, 4444, Note_on_c, 1, 69, 84
2, 4452, Note_off_c, 1, 62, 64
2, 4452, Note_off_c, 1, 74, 64
2, 4572, Note_on_c, 1, 58, 60
2, 4576, Note_off_c, 1, 57, 64
2, 4604, Note_on_c, 1, 70, 80
2, 4608, Note_off_c, 1, 69, 64
2, 4724, Note_off_c, 1, 70, 64
2, 4724, Note_on_c, 1, 67, 80
2, 4736, Note_off_c, 1, 58, 64
2, 4736, Note_on_c, 1, 55, 63
2, 4980, Note_on_c, 1, 54, 61
2, 4980, Note_on_c, 1, 66, 80
2, 4988, Note_off_c, 1, 67, 64
2, 4996, Note_off_c, 1, 55, 64
2, 5048, Control_c, 1, 64, 127
2, 5120, Note_off_c, 1, 66, 64
2, 5120, Note_on_c, 1, 53, 55
2, 5120, Note_on_c, 1, 65, 80
2, 5128, Note_off_c, 1, 54, 64
2, 5252, Control_c, 1, 64, 0
2, 5372, Control_c, 1, 64, 127
2, 5388, Note_off_c, 1, 53, 64
2, 5388, Note_off_c, 1, 65, 64
2, 5484, Control_c, 1, 64, 0
2, 5652, Note_on_c, 1, 72, 65
2, 5652, Note_on_c, 1, 69, 67
2, 5656, Note_on_c, 1, 77, 64
2, 5656, Note_on_c, 1, 65, 62
2, 5656, Note_on_c, 1, 41, 45
2, 5656, Control_c, 1, 64, 127
2, 5664, Note_on_c, 1, 29, 40
2, 5744, Note_off_c, 1, 65, 64
2, 5744, Note_off_c, 1, 29, 64
2, 5748, Note_off_c, 1, 77, 64
2, 5752, Note_off_c, 1, 72, 64
2, 5752, Note_off_c, 1, 41, 64
2, 5764, Note_off_c, 1, 69, 64
2, 6040, Control_c, 1, 64, 0
2, 6160, Note_on_c, 1, 46, 69
2, 6168, Note_on_c, 1, 65, 71
2, 6176, Note_off_c, 1, 46, 64
2, 6296, Note_on_c, 1, 70, 60
2, 6432, Note_on_c, 1, 74, 68
2, 6432, Note_on_c, 1, 53, 64
2, 6436, Note_on_c, 1, 58, 52
2, 6436, Note_on_c, 1, 62, 49
2, 6444, Note_off_c, 1, 58, 64
2, 6448, Note_off_c, 1, 53, 64
2, 6452, Note_off_c, 1, 62, 64
2, 6460, Note_off_c, 1, 70, 64
2, 6460, Note_off_c, 1, 74, 64
2, 6572, Note_on_c, 1, 77, 84
2, 6696, Note_on_c, 1, 50, 64
2, 6716, Note_off_c, 1, 77, 64
2, 6816, Note_on_c, 1, 70, 70
2, 6952, Note_off_c, 1, 70, 64
2, 6964, Note_on_c, 1, 72, 68
2, 6964, Note_on_c, 1, 53, 65
2, 6964, Note_on_c, 1, 58, 48
2, 6964, Note_on_c, 1, 62, 44
2, 6976, Note_off_c, 1, 50, 64
2, 7028, Note_off_c, 1, 53, 64
2, 7040, Note_off_c, 1, 58, 64
2, 7096, Note_off_c, 1, 72, 64
2, 7096, Note_off_c, 1, 62, 64
2, 7096, Note_on_c, 1, 74, 78
2, 7108, Control_c, 1, 64, 127
2, 7216, Note_off_c, 1, 74, 64
2, 7224, Note_on_c, 1, 69, 73
2, 7224, Note_on_c, 1, 51, 57
2, 7224, Control_c, 1, 64, 0
2, 7316, Note_off_c, 1, 65, 64
2, 7360, Note_on_c, 1, 70, 66
2, 7372, Note_off_c, 1, 69, 64
2, 7492, Note_off_c, 1, 51, 64
2, 7496, Note_off_c, 1, 70, 64
2, 7496, Note_on_c, 1, 58, 44
2, 7496, Note_on_c, 1, 55, 48
2, 7496, Note_on_c, 1, 67, 73
2, 7496, Note_on_c, 1, 63, 48
2, 7528, Note_off_c, 1, 58, 64
2, 7528, Note_off_c, 1, 63, 64
2, 7532, Note_off_c, 1, 55, 64
2, 7616, Note_off_c, 1, 67, 64
2, 7624, Note_on_c, 1, 65, 67
2, 7744, Note_on_c, 1, 50, 64
2, 7752, Note_on_c, 1, 62, 44
2, 7756, Note_off_c, 1, 50, 64
2, 7756, Note_off_c, 1, 62, 64
2, 7876, Note_off_c, 1, 65, 64
2, 7876, Note_on_c, 1, 66, 73
2, 7996, Note_off_c, 1, 66, 64
2, 7996, Note_on_c, 1, 61, 60
2, 8004, Note_on_c, 1, 49, 64
2, 8004, Note_on_c, 1, 67, 70
2, 8012, Note_off_c, 1, 49, 64
2, 8016, Note_off_c, 1, 61, 64
2, 8136, Note_on_c, 1, 68, 76
2, 8148, Note_off_c, 1, 67, 64
2, 8264, Note_off_c, 1, 68, 64
2, 8264, Note_on_c, 1, 48, 45
2, 8276, Note_on_c, 1, 69, 81
2, 8276, Note_on_c, 1, 60, 44
2, 8284, Note_off_c, 1, 48, 64
2, 8296, Note_off_c, 1, 60, 64
2, 8412, Note_on_c, 1, 72, 70
2, 8536, Note_on_c, 1, 75, 70
2, 8540, Note_off_c, 1, 72, 64
2, 8548, Note_on_c, 1, 63, 56
2, 8552, Note_on_c, 1, 53, 43
2, 8560, Note_off_c, 1, 69, 64
2, 8560, Note_off_c, 1, 75, 64
2, 8564, Note_off_c, 1, 63, 64
2, 8564, Note_off_c, 1, 53, 64
2, 8672, Note_on_c, 1, 79, 88
2, 8676, Note_on_c, 1, 75, 81
2, 8680, Note_on_c, 1, 69, 81
2, 8808, Note_on_c, 1, 41, 65
2, 8808, Note_on_c, 1, 53, 64
2, 8812, Control_c, 1, 64, 127
2, 8832, Note_off_c, 1, 41, 64
2, 8832, Note_off_c, 1, 53, 64
2, 8944, Note_off_c, 1, 75, 64
2, 8944, Note_on_c, 1, 78, 78
2, 8952, Note_off_c, 1, 79, 64
2, 9068, Note_off_c, 1, 78, 64
2, 9072, Note_on_c, 1, 53, 72
2, 9072, Note_on_c, 1, 63, 44
2, 9076, Note_on_c, 1, 57, 67
2, 9076, Note_on_c, 1, 77, 75
2, 9080, Control_c, 1, 64, 0
2, 9084, Note_off_c, 1, 53, 64
2, 9084, Note_off_c, 1, 57, 64
2, 9088, Note_off_c, 1, 63, 64
2, 9196, Note_off_c, 1, 69, 64
2, 9216, Note_off_c, 1, 77, 64
2, 9328, Note_on_c, 1, 46, 67
2, 9336, Note_on_c, 1, 58, 54
2, 9340, Note_on_c, 1, 70, 73
2, 9340, Control_c, 1, 64, 127
2, 9344, Note_off_c, 1, 46, 64
2, 9348, Note_off_c, 1, 58, 64
2, 9448, Control_c, 1, 64, 0
2, 9464, Note_on_c, 1, 74, 81
2, 9596, Note_on_c, 1, 53, 54
2, 9600, Note_on_c, 1, 62, 51
2, 9600, Note_on_c, 1, 77, 80
2, 9608, Note_off_c, 1, 74, 64
2, 9608, Note_on_c, 1, 58, 50
2, 9616, Note_off_c, 1, 62, 64
2, 9620, Note_off_c, 1, 58, 64
2, 9624, Note_off_c, 1, 70, 64
2, 9624, Note_off_c, 1, 77, 64
2, 9628, Note_off_c, 1, 53, 64
2, 9732, Note_on_c, 1, 79, 91
2, 9736, Note_on_c, 1, 74, 83
2, 9736, Note_on_c, 1, 70, 58
2, 9868, Note_on_c, 1, 41, 64
2, 9872, Note_on_c, 1, 53, 68
2, 9888, Control_c, 1, 64, 127
2, 9892, Note_off_c, 1, 41, 64
2, 9892, Note_off_c, 1, 53, 64
2, 9984, Control_c, 1, 64, 0
2, 9996, Note_off_c, 1, 79, 64
2, 10004, Note_on_c, 1, 78, 68
2, 10116, Note_off_c, 1, 78, 64
2, 10128, Note_on_c, 1, 53, 56
2, 10136, Note_on_c, 1, 62, 56
2, 10136, Note_on_c, 1, 58, 50
2, 10136, Note_on_c, 1, 77, 69
2, 10152, Note_off_c, 1, 53, 64
2, 10156, Note_off_c, 1, 62, 64
2, 10156, Note_off_c, 1, 58, 64
2, 10160, Note_off_c, 1, 74, 64
2, 10168, Note_off_c, 1, 70, 64
2, 10304, Note_off_c, 1, 77, 64
2, 10368, Note_on_c, 1, 46, 41
2, 10388, Note_on_c, 1, 65, 75
2, 10400, Control_c, 1, 64, 127
2, 10412, Note_off_c, 1, 46, 64
2, 10520, Control_c, 1, 64, 0
2, 10524, Note_on_c, 1, 70, 75
2, 10648, Note_on_c, 1, 74, 73
2, 10648, Note_on_c, 1, 53, 57
2, 10652, Note_off_c, 1, 70, 64
2, 10656, Note_on_c, 1, 58, 43
2, 10656, Note_on_c, 1, 62, 44
2, 10660, Note_off_c, 1, 74, 64
2, 10672, Note_off_c, 1, 53, 64
2, 10672, Note_off_c, 1, 58, 64
2, 10676, Note_off_c, 1, 62, 64
2, 10688, Note_off_c, 1, 65, 64
2, 10788, Note_on_c, 1, 77, 86
2, 10912, Note_on_c, 1, 50, 78
2, 11048, Note_on_c, 1, 70, 75
2, 11068, Note_off_c, 1, 77, 64
2, 11184, Note_off_c, 1, 70, 64
2, 11192, Note_on_c, 1, 58, 60
2, 11192, Note_on_c, 1, 72, 80
2, 11192, Note_on_c, 1, 62, 64
2, 11192, Note_on_c, 1, 53, 65
2, 11308, Control_c, 1, 64, 127
2, 11320, Note_off_c, 1, 72, 64
2, 11320, Note_off_c, 1, 53, 64
2, 11320, Note_on_c, 1, 74, 88
2, 11324, Note_off_c, 1, 50, 64
2, 11336, Note_off_c, 1, 58, 64
2, 11336, Note_off_c, 1, 62, 64
2, 11440, Note_on_c, 1, 51, 75
2, 11448, Note_on_c, 1, 69, 80
2, 11456, Control_c, 1, 64, 0
2, 11460, Note_off_c, 1, 74, 64
2, 11584, Note_off_c, 1, 69, 64
2, 11584, Note_on_c, 1, 70, 68
2, 11712, Note_off_c, 1, 70, 64
2, 11712, Note_on_c, 1, 67, 75
2, 11712, Note_on_c, 1, 63, 55
2, 11716, Note_on_c, 1, 58, 51
2, 11720, Note_on_c, 1, 55, 43
2, 11840, Note_off_c, 1, 51, 64
2, 11840, Note_off_c, 1, 67, 64
2, 11840, Note_off_c, 1, 63, 64
2, 11848, Note_off_c, 1, 58, 64
2, 11848, Note_off_c, 1, 55, 64
2, 11848, Note_on_c, 1, 65, 72
2, 11848, Control_c, 1, 64, 127
2, 11972, Control_c, 1, 64, 0
2, 11976, Note_on_c, 1, 50, 75
2, 11980, Note_on_c, 1, 62, 71
2, 12096, Note_off_c, 1, 62, 64
2, 12108, Note_on_c, 1, 67, 81
2, 12108, Control_c, 1, 64, 127
2, 12112, Note_off_c, 1, 50, 64
2, 12140, Note_off_c, 1, 67, 64
2, 12156, Note_off_c, 1, 65, 64
2, 12236, Note_on_c, 1, 68, 78
2, 12244, Note_on_c, 1, 47, 70
2, 12244, Note_on_c, 1, 65, 75
2, 12248, Note_on_c, 1, 59, 64
2, 12248, Control_c, 1, 64, 0
2, 12356, Note_off_c, 1, 47, 64
2, 12368, Note_off_c, 1, 59, 64
2, 12372, Note_on_c, 1, 74, 85
2, 12372, Control_c, 1, 64, 127
2, 12376, Note_off_c, 1, 68, 64
2, 12396, Note_off_c, 1, 65, 64
2, 12396, Note_off_c, 1, 74, 64
2, 12492, Note_on_c, 1, 48, 64
2, 12496, Note_on_c, 1, 60, 44
2, 12496, Note_on_c, 1, 69, 89
2, 12500, Note_on_c, 1, 65, 77
2, 12504, Control_c, 1, 64, 0
2, 12520, Note_off_c, 1, 48, 64
2, 12532, Note_off_c, 1, 60, 64
2, 12628, Note_on_c, 1, 72, 76
2, 12640, Note_off_c, 1, 69, 64
2, 12748, Note_off_c, 1, 72, 64
2, 12760, Note_on_c, 1, 77, 63
2, 12760, Note_on_c, 1, 57, 65
2, 12764, Note_on_c, 1, 60, 63
2, 12768, Note_off_c, 1, 77, 64
2, 12776, Note_off_c, 1, 65, 64
2, 12776, Note_off_c, 1, 57, 64
2, 12776, Note_off_c, 1, 60, 64
2, 12888, Note_on_c, 1, 74, 93
2, 12888, Note_on_c, 1, 70, 80
2, 13020, Note_on_c, 1, 48, 80
2, 13028, Control_c, 1, 64, 127
2, 13036, Note_off_c, 1, 48, 64
2, 13152, Note_off_c, 1, 74, 64
2, 13152, Note_on_c, 1, 79, 78
2, 13184, Note_off_c, 1, 79, 64
2, 13276, Control_c, 1, 64, 0
2, 13288, Note_on_c, 1, 72, 70
2, 13288, Note_on_c, 1, 58, 59
2, 13288, Note_on_c, 1, 60, 61
2, 13292, Note_on_c, 1, 64, 64
2, 13300, Control_c, 1, 64, 127
2, 13304, Note_off_c, 1, 72, 64
2, 13312, Note_off_c, 1, 58, 64
2, 13316, Note_off_c, 1, 60, 64
2, 13316, Note_off_c, 1, 64, 64
2, 13408, Note_off_c, 1, 70, 64
2, 13412, Note_on_c, 1, 81, 64
2, 13436, Note_off_c, 1, 81, 64
2, 13564, Note_on_c, 1, 77, 75
2, 13564, Control_c, 1, 64, 0
2, 13572, Note_on_c, 1, 57, 43
2, 13572, Note_on_c, 1, 60, 43
2, 13572, Note_on_c, 1, 65, 52
2, 13576, Note_on_c, 1, 53, 42
2, 13576, Note_on_c, 1, 69, 54
2, 13636, Control_c, 1, 64, 127
2, 13648, Note_off_c, 1, 77, 64
2, 13668, Note_off_c, 1, 60, 64
2, 13672, Note_off_c, 1, 65, 64
2, 13676, Note_off_c, 1, 57, 64
2, 13680, Note_off_c, 1, 69, 64
2, 13684, Control_c, 1, 64, 0
2, 13688, Note_off_c, 1, 53, 64
2, 13804, Note_on_c, 1, 75, 84
2, 13924, Note_off_c, 1, 75, 64
2, 13936, Note_on_c, 1, 72, 78
2, 13968, Note_on_c, 1, 53, 70
2, 13996, Note_on_c, 1, 57, 70
2, 14016, Note_on_c, 1, 60, 73
2, 14040, Note_on_c, 1, 63, 72
2, 14044, Note_off_c, 1, 60, 64
2, 14060, Note_off_c, 1, 72, 64
2, 14064, Note_on_c, 1, 69, 81
2, 14188, Note_on_c, 1, 68, 86
2, 14208, Note_off_c, 1, 69, 64
2, 14332, Note_off_c, 1, 63, 64
2, 14332, Note_off_c, 1, 68, 64
2, 14336, Note_on_c, 1, 67, 84
2, 14340, Note_off_c, 1, 57, 64
2, 14348, Note_off_c, 1, 53, 64
2, 14488, Note_on_c, 1, 66, 77
2, 14500, Note_off_c, 1, 67, 64
2, 14612, Note_on_c, 1, 46, 56
2, 14616, Note_off_c, 1, 66, 64
2, 14616, Note_on_c, 1, 65, 69
2, 14624, Note_off_c, 1, 46, 64
2, 14748, Note_on_c, 1, 70, 68
2, 14880, Note_on_c, 1, 74, 71
2, 14880, Note_on_c, 1, 53, 60
2, 14880, Note_on_c, 1, 58, 56
2, 14880, Note_on_c, 1, 62, 47
2, 14884, Note_off_c, 1, 70, 64
2, 14888, Note_off_c, 1, 74, 64
2, 14892, Note_off_c, 1, 58, 64
2, 14896, Note_off_c, 1, 65, 64
2, 14904, Note_off_c, 1, 53, 64
2, 14908, Note_off_c, 1, 62, 64
2, 15008, Note_on_c, 1, 77, 86
2, 15008, Note_on_c, 1, 65, 72
2, 15132, Note_on_c, 1, 50, 73
2, 15156, Note_off_c, 1, 50, 64
2, 15160, Control_c, 1, 64, 127
2, 15268, Note_off_c, 1, 77, 64
2, 15268, Note_on_c, 1, 70, 69
2, 15272, Control_c, 1, 64, 0
2, 15288, Control_c, 1, 64, 127
2, 15364, Control_c, 1, 64, 0
2, 15400, Note_off_c, 1, 70, 64
2, 15400, Note_on_c, 1, 72, 72
2, 15404, Note_on_c, 1, 53, 68
2, 15408, Note_on_c, 1, 58, 60
2, 15408, Note_on_c, 1, 62, 57
2, 15428, Note_off_c, 1, 53, 64
2, 15428, Note_off_c, 1, 58, 64
2, 15432, Note_off_c, 1, 62, 64
2, 15528, Note_off_c, 1, 72, 64
2, 15532, Note_on_c, 1, 74, 73
2, 15656, Note_on_c, 1, 51, 56
2, 15664, Note_off_c, 1, 74, 64
2, 15664, Note_on_c, 1, 69, 73
2, 15684, Note_off_c, 1, 65, 64
2, 15792, Note_on_c, 1, 70, 67
2, 15804, Note_off_c, 1, 69, 64
2, 15924, Note_on_c, 1, 58, 47
2, 15928, Note_off_c, 1, 51, 64
2, 15928, Note_on_c, 1, 63, 45
2, 15940, Note_off_c, 1, 70, 64
2, 15940, Note_on_c, 1, 67, 71
2, 15940, Note_on_c, 1, 55, 38
2, 15948, Note_off_c, 1, 58, 64
2, 15952, Note_off_c, 1, 63, 64
2, 15968, Note_off_c, 1, 55, 64
2, 16064, Note_off_c, 1, 67, 64
2, 16068, Note_on_c, 1, 65, 64
2, 16196, Note_on_c, 1, 50, 68
2, 16196, Note_on_c, 1, 62, 64
2, 16208, Note_off_c, 1, 50, 64
2, 16208, Note_off_c, 1, 62, 64
2, 16336, Note_on_c, 1, 66, 71
2, 16344, Control_c, 1, 64, 127
2, 16460, Note_off_c, 1, 65, 64
2, 16460, Note_off_c, 1, 66, 64
2, 16464, Note_on_c, 1, 61, 66
2, 16464, Note_on_c, 1, 49, 64
2, 16464, Control_c, 1, 64, 0
2, 16472, Note_on_c, 1, 67, 44
2, 16492, Note_off_c, 1, 61, 64
2, 16564, Note_off_c, 1, 49, 64
2, 16588, Note_on_c, 1, 68, 70
2, 16592, Control_c, 1, 64, 127
2, 16600, Note_off_c, 1, 67, 64
2, 16616, Note_off_c, 1, 68, 64
2, 16680, Note_on_c, 1, 48, 46
2, 16696, Control_c, 1, 64, 0
2, 16708, Note_off_c, 1, 48, 64
2, 16712, Note_on_c, 1, 60, 64
2, 16712, Note_on_c, 1, 48, 49
2, 16720, Note_on_c, 1, 69, 73
2, 16732, Note_off_c, 1, 48, 64
2, 16744, Note_off_c, 1, 60, 64
2, 16744, Control_c, 1, 64, 127
2, 16812, Control_c, 1, 64, 0
2, 16848, Note_on_c, 1, 72, 66
2, 16976, Note_on_c, 1, 75, 59
2, 16984, Note_off_c, 1, 72, 64
2, 16984, Note_on_c, 1, 53, 65
2, 16984, Note_on_c, 1, 57, 55
2, 16984, Note_on_c, 1, 63, 43
2, 17000, Note_off_c, 1, 69, 64
2, 17000, Note_off_c, 1, 75, 64
2, 17000, Note_off_c, 1, 53, 64
2, 17000, Note_off_c, 1, 57, 64
2, 17000, Note_off_c, 1, 63, 64
2, 17120, Note_on_c, 1, 79, 80
2, 17120, Note_on_c, 1, 69, 76
2, 17124, Note_on_c, 1, 75, 60
2, 17252, Note_on_c, 1, 41, 68
2, 17256, Control_c, 1, 64, 127
2, 17268, Note_off_c, 1, 41, 64
2, 17380, Note_off_c, 1, 79, 64
2, 17392, Note_on_c, 1, 78, 73
2, 17396, Note_off_c, 1, 75, 64
2, 17500, Control_c, 1, 64, 0
2, 17512, Note_on_c, 1, 77, 75
2, 17516, Note_off_c, 1, 78, 64
2, 17516, Note_on_c, 1, 53, 70
2, 17520, Note_on_c, 1, 63, 54
2, 17520, Note_on_c, 1, 57, 57
2, 17528, Note_off_c, 1, 57, 64
2, 17532, Note_off_c, 1, 53, 64
2, 17532, Note_off_c, 1, 63, 64
2, 17644, Note_off_c, 1, 69, 64
2, 17732, Note_off_c, 1, 77, 64
2, 17740, Note_on_c, 1, 58, 54
2, 17744, Note_on_c, 1, 46, 41
2, 17760, Control_c, 1, 64, 127
2, 17772, Note_on_c, 1, 70, 76
2, 17780, Note_off_c, 1, 46, 64
2, 17792, Note_off_c, 1, 58, 64
2, 17904, Note_on_c, 1, 74, 88
2, 17912, Control_c, 1, 64, 0
2, 18040, Note_on_c, 1, 77, 84
2, 18040, Note_on_c, 1, 58, 54
2, 18044, Note_off_c, 1, 74, 64
2, 18052, Note_on_c, 1, 62, 47
2, 18060, Note_off_c, 1, 70, 64
2, 18060, Note_off_c, 1, 77, 64
2, 18060, Note_off_c, 1, 58, 64
2, 18060, Note_off_c, 1, 62, 64
2, 18160, Note_on_c, 1, 79, 85
2, 18160, Note_on_c, 1, 74, 80
2, 18164, Note_on_c, 1, 70, 57
2, 18300, Note_on_c, 1, 46, 75
2, 18300, Note_on_c, 1, 58, 70
2, 18400, Note_off_c, 1, 70, 64
2, 18408, Control_c, 1, 64, 127
2, 18424, Note_on_c, 1, 78, 81
2, 18428, Note_off_c, 1, 79, 64
2, 18432, Note_off_c, 1, 74, 64
2, 18440, Note_off_c, 1, 46, 64
2, 18440, Note_off_c, 1, 58, 64
2, 18452, Note_off_c, 1, 78, 64
2, 18560, Note_on_c, 1, 77, 80
2, 18568, Note_on_c, 1, 59, 56
2, 18568, Note_on_c, 1, 68, 51
2, 18568, Note_on_c, 1, 47, 54
2, 18572, Note_on_c, 1, 74, 72
2, 18572, Control_c, 1, 64, 0
2, 18600, Control_c, 1, 64, 127
2, 18620, Note_off_c, 1, 74, 64
2, 18636, Note_off_c, 1, 47, 64
2, 18644, Note_off_c, 1, 59, 64
2, 18652, Note_off_c, 1, 68, 64
2, 18660, Note_off_c, 1, 77, 64
2, 18792, Control_c, 1, 64, 0
2, 18796, Note_on_c, 1, 60, 49
2, 18800, Note_on_c, 1, 48, 48
2, 18824, Note_off_c, 1, 48, 64
2, 18828, Note_on_c, 1, 77, 81
2, 18828, Note_on_c, 1, 67, 69
2, 18832, Note_on_c, 1, 72, 72
2, 18840, Note_off_c, 1, 60, 64
2, 18948, Note_off_c, 1, 72, 64
2, 18952, Note_on_c, 1, 75, 72
2, 18968, Note_off_c, 1, 77, 64
2, 18976, Note_off_c, 1, 67, 64
2, 18984, Note_off_c, 1, 75, 64
2, 19076, Note_on_c, 1, 55, 76
2, 19076, Note_on_c, 1, 63, 56
2, 19076, Note_on_c, 1, 60, 66
2, 19092, Note_off_c, 1, 55, 64
2, 19096, Note_off_c, 1, 63, 64
2, 19096, Note_off_c, 1, 60, 64
2, 19212, Note_on_c, 1, 84, 93
2, 19212, Note_on_c, 1, 75, 80
2, 19212, Note_on_c, 1, 79, 88
2, 19212, Note_on_c, 1, 72, 75
2, 19340, Note_on_c, 1, 39, 91
2, 19344, Note_on_c, 1, 51, 93
2, 19344, Control_c, 1, 64, 127
2, 19356, Note_off_c, 1, 72, 64
2, 19364, Note_off_c, 1, 84, 64
2, 19368, Note_off_c, 1, 75, 64
2, 19372, Note_off_c, 1, 79, 64
2, 19428, Note_off_c, 1, 39, 64
2, 19432, Note_off_c, 1, 51, 64
2, 19600, Control_c, 1, 64, 0
2, 19612, Note_on_c, 1, 87, 86
2, 19612, Note_on_c, 1, 42, 71
2, 19612, Note_on_c, 1, 82, 86
2, 19612, Note_on_c, 1, 54, 78
2, 19612, Note_on_c, 1, 75, 86
2, 19636, Control_c, 1, 64, 127
2, 19680, Note_off_c, 1, 42, 64
2, 19688, Note_off_c, 1, 54, 64
2, 19696, Note_off_c, 1, 82, 64
2, 19700, Note_off_c, 1, 87, 64
2, 19704, Note_off_c, 1, 75, 64
2, 19868, Control_c, 1, 64, 0
2, 19876, Note_on_c, 1, 82, 80
2, 19880, Note_on_c, 1, 53, 71
2, 19880, Note_on_c, 1, 41, 71
2, 19880, Note_on_c, 1, 74, 76
2, 19880, Note_on_c, 1, 86, 81
2, 19888, Note_off_c, 1, 82, 64
2, 19900, Note_off_c, 1, 41, 64
2, 19900, Note_off_c, 1, 74, 64
2, 19900, Note_off_c, 1, 86, 64
2, 19904, Note_off_c, 1, 53, 0
2, 20024, Note_on_c, 1, 74, 91
2, 20024, Note_on_c, 1, 82, 84
2, 20028, Note_on_c, 1, 70, 67
2, 20072, Control_c, 1, 64, 0
2, 20148, Note_off_c, 1, 74, 64
2, 20148, Control_c, 1, 64, 127
2, 20160, Note_off_c, 1, 82, 64
2, 20160, Note_off_c, 1, 70, 64
2, 20164, Note_on_c, 1, 53, 73
2, 20164, Note_on_c, 1, 58, 65
2, 20164, Note_on_c, 1, 62, 61
2, 20180, Note_off_c, 1, 53, 64
2, 20180, Note_off_c, 1, 58, 64
2, 20184, Note_off_c, 1, 62, 64
2, 20248, Control_c, 1, 64, 0
2, 20284, Note_on_c, 1, 71, 80
2, 20284, Note_on_c, 1, 79, 91
2, 20292, Note_on_c, 1, 67, 75
2, 20420, Note_on_c, 1, 43, 70
2, 20420, Note_on_c, 1, 55, 73
2, 20424, Control_c, 1, 64, 127
2, 20432, Note_off_c, 1, 43, 64
2, 20444, Note_off_c, 1, 55, 64
2, 20460, Note_off_c, 1, 79, 64
2, 20544, Note_on_c, 1, 77, 84
2, 20544, Control_c, 1, 64, 0
2, 20568, Control_c, 1, 64, 127
2, 20580, Note_off_c, 1, 67, 64
2, 20596, Note_off_c, 1, 77, 64
2, 20608, Note_off_c, 1, 71, 64
2, 20644, Control_c, 1, 64, 0
2, 20676, Note_on_c, 1, 74, 78
2, 20680, Note_on_c, 1, 71, 72
2, 20680, Note_on_c, 1, 65, 68
2, 20688, Note_on_c, 1, 55, 61
2, 20688, Note_on_c, 1, 59, 66
2, 20696, Control_c, 1, 64, 127
2, 20724, Note_off_c, 1, 55, 64
2, 20728, Note_off_c, 1, 59, 64
2, 20740, Note_off_c, 1, 74, 64
2, 20748, Note_off_c, 1, 71, 64
2, 20748, Note_off_c, 1, 65, 64
2, 20852, Control_c, 1, 64, 0
2, 20932, Note_on_c, 1, 48, 51
2, 20948, Note_on_c, 1, 74, 81
2, 20948, Note_on_c, 1, 70, 68
2, 20948, Note_on_c, 1, 64, 67
2, 21068, Note_off_c, 1, 74, 64
2, 21072, Note_on_c, 1, 72, 73
2, 21112, Note_off_c, 1, 70, 0
2, 21184, Note_off_c, 1, 64, 0
2, 21188, Note_off_c, 1, 72, 64
2, 21200, Note_on_c, 1, 58, 57
2, 21204, Note_on_c, 1, 55, 44
2, 21204, Note_on_c, 1, 60, 60
2, 21220, Note_off_c, 1, 58, 64
2, 21220, Note_off_c, 1, 60, 64
2, 21224, Note_off_c, 1, 48, 0
2, 21232, Note_off_c, 1, 55, 64
2, 21324, Note_on_c, 1, 77, 81
2, 21324, Note_on_c, 1, 69, 75
2, 21328, Note_on_c, 1, 65, 68
2, 21456, Note_on_c, 1, 41, 70
2, 21476, Control_c, 1, 64, 127
2, 21480, Note_off_c, 1, 41, 64
2, 21564, Control_c, 1, 64, 0
2, 21576, Note_off_c, 1, 77, 64
2, 21584, Note_on_c, 1, 74, 76
2, 21596, Note_off_c, 1, 69, 64
2, 21600, Note_off_c, 1, 65, 64
2, 21612, Note_off_c, 1, 74, 64
2, 21732, Note_on_c, 1, 53, 64
2, 21732, Note_on_c, 1, 72, 69
2, 21732, Note_on_c, 1, 69, 72
2, 21732, Note_on_c, 1, 57, 66
2, 21732, Note_on_c, 1, 63, 56
2, 21736, Control_c, 1, 64, 127
2, 21768, Note_off_c, 1, 57, 64
2, 21776, Note_off_c, 1, 53, 64
2, 21796, Note_off_c, 1, 72, 64
2, 21808, Note_off_c, 1, 63, 64
2, 21812, Note_off_c, 1, 69, 64
2, 21988, Control_c, 1, 64, 0
2, 21992, Note_on_c, 1, 46, 63
2, 21992, Note_on_c, 1, 58, 46
2, 22016, Note_on_c, 1, 70, 68
2, 22016, Note_on_c, 1, 62, 64
2, 22128, Note_off_c, 1, 46, 64
2, 22128, Note_on_c, 1, 50, 84
2, 22144, Note_off_c, 1, 58, 64
2, 22260, Note_off_c, 1, 50, 0
2, 22264, Note_on_c, 1, 51, 76
2, 22380, Note_off_c, 1, 51, 64
2, 22384, Note_on_c, 1, 52, 78
2, 22388, Note_off_c, 1, 70, 0
2, 22432, Note_off_c, 1, 62, 0
2, 22508, Note_off_c, 1, 52, 64
2, 22516, Note_on_c, 1, 53, 80
2, 22516, Note_on_c, 1, 63, 67
2, 22516, Note_on_c, 1, 65, 76
2, 22640, Note_on_c, 1, 54, 71
2, 22780, Note_on_c, 1, 55, 69
2, 22896, Note_off_c, 1, 63, 64
2, 22904, Note_off_c, 1, 65, 64
2, 22904, Control_c, 1, 64, 127
2, 22908, Note_on_c, 1, 57, 65
2, 22916, Note_off_c, 1, 53, 64
2, 22916, Note_off_c, 1, 55, 64
2, 22924, Note_off_c, 1, 54, 64
2, 22928, Note_off_c, 1, 57, 64
2, 23040, Note_on_c, 1, 46, 67
2, 23048, Note_on_c, 1, 58, 60
2, 23048, Control_c, 1, 64, 0
2, 23052, Note_on_c, 1, 65, 67
2, 23064, Note_off_c, 1, 46, 64
2, 23076, Note_off_c, 1, 58, 64
2, 23176, Note_on_c, 1, 70, 64
2, 23300, Note_on_c, 1, 74, 75
2, 23300, Note_on_c, 1, 58, 56
2, 23300, Note_on_c, 1, 53, 61
2, 23304, Note_on_c, 1, 62, 54
2, 23308, Note_off_c, 1, 70, 64
2, 23324, Note_off_c, 1, 74, 64
2, 23324, Note_off_c, 1, 58, 64
2, 23324, Note_off_c, 1, 53, 64
2, 23324, Note_off_c, 1, 62, 64
2, 23432, Note_on_c, 1, 77, 75
2, 23484, Note_off_c, 1, 65, 0
2, 23564, Note_on_c, 1, 50, 56
2, 23700, Note_on_c, 1, 70, 66
2, 23704, Note_off_c, 1, 77, 64
2, 23732, Note_off_c, 1, 50, 64
2, 23832, Note_off_c, 1, 70, 64
2, 23840, Note_on_c, 1, 53, 44
2, 23840, Note_on_c, 1, 72, 68
2, 23840, Note_on_c, 1, 62, 56
2, 23844, Note_on_c, 1, 58, 54
2, 23856, Note_off_c, 1, 58, 64
2, 23868, Note_off_c, 1, 53, 64
2, 23868, Note_off_c, 1, 62, 64
2, 23968, Note_off_c, 1, 72, 64
2, 23968, Note_on_c, 1, 74, 73
2, 24088, Note_on_c, 1, 51, 60
2, 24096, Note_off_c, 1, 74, 64
2, 24096, Note_on_c, 1, 69, 69
2, 24112, Note_off_c, 1, 51, 64
2, 24228, Note_off_c, 1, 69, 64
2, 24232, Note_on_c, 1, 70, 66
2, 24356, Note_on_c, 1, 58, 56
2, 24356, Note_on_c, 1, 55, 61
2, 24356, Note_on_c, 1, 67, 70
2, 24360, Note_off_c, 1, 70, 64
2, 24360, Note_on_c, 1, 63, 52
2, 24368, Note_off_c, 1, 58, 64
2, 24380, Note_off_c, 1, 55, 64
2, 24380, Note_off_c, 1, 63, 64
2, 24480, Note_off_c, 1, 67, 64
2, 24492, Note_on_c, 1, 65, 67
2, 24628, Note_on_c, 1, 50, 57
2, 24632, Note_on_c, 1, 62, 64
2, 24644, Note_off_c, 1, 50, 64
2, 24644, Note_off_c, 1, 62, 64
2, 24764, Note_on_c, 1, 66, 68
2, 24772, Note_off_c, 1, 65, 0
2, 24892, Note_off_c, 1, 66, 64
2, 24892, Note_on_c, 1, 61, 56
2, 24900, Note_on_c, 1, 49, 59
2, 24900, Note_on_c, 1, 67, 66
2, 24912, Note_off_c, 1, 61, 64
2, 24916, Note_off_c, 1, 49, 64
2, 25020, Note_on_c, 1, 68, 64
2, 25032, Note_off_c, 1, 67, 64
2, 25144, Note_off_c, 1, 68, 64
2, 25144, Note_on_c, 1, 60, 55
2, 25148, Note_on_c, 1, 48, 46
2, 25152, Note_on_c, 1, 69, 67
2, 25168, Note_off_c, 1, 60, 64
2, 25184, Note_off_c, 1, 48, 64
2, 25288, Note_on_c, 1, 72, 68
2, 25408, Note_on_c, 1, 75, 68
2, 25412, Note_off_c, 1, 72, 64
2, 25412, Note_on_c, 1, 53, 70
2, 25412, Note_on_c, 1, 57, 67
2, 25416, Note_off_c, 1, 75, 64
2, 25416, Note_on_c, 1, 63, 59
2, 25420, Note_off_c, 1, 57, 64
2, 25424, Note_off_c, 1, 53, 64
2, 25424, Note_off_c, 1, 63, 64
2, 25428, Note_off_c, 1, 69, 64
2, 25540, Note_on_c, 1, 79, 84
2, 25544, Note_on_c, 1, 75, 70
2, 25548, Note_on_c, 1, 69, 75
2, 25680, Note_on_c, 1, 41, 67
2, 25680, Note_on_c, 1, 53, 66
2, 25692, Note_off_c, 1, 41, 64
2, 25696, Note_off_c, 1, 53, 64
2, 25800, Note_off_c, 1, 75, 0
2, 25804, Note_on_c, 1, 78, 71
2, 25808, Note_off_c, 1, 79, 0
2, 25936, Note_off_c, 1, 69, 0
2, 25936, Note_off_c, 1, 78, 64
2, 25936, Note_on_c, 1, 63, 59
2, 25940, Note_on_c, 1, 53, 73
2, 25940, Note_on_c, 1, 57, 75
2, 25940, Note_on_c, 1, 77, 80
2, 25952, Note_off_c, 1, 63, 64
2, 25952, Note_off_c, 1, 53, 64
2, 25952, Note_off_c, 1, 57, 64
2, 26140, Note_off_c, 1, 77, 64
2, 26204, Note_on_c, 1, 46, 71
2, 26208, Note_on_c, 1, 58, 60
2, 26208, Note_on_c, 1, 70, 66
2, 26224, Note_off_c, 1, 46, 64
2, 26224, Note_off_c, 1, 58, 64
2, 26328, Note_on_c, 1, 74, 71
2, 26460, Note_on_c, 1, 53, 65
2, 26460, Note_on_c, 1, 62, 52
2, 26468, Note_on_c, 1, 77, 80
2, 26468, Note_on_c, 1, 58, 44
2, 26476, Note_off_c, 1, 74, 64
2, 26480, Note_off_c, 1, 53, 64
2, 26480, Note_off_c, 1, 62, 64
2, 26480, Note_off_c, 1, 77, 64
2, 26484, Note_off_c, 1, 70, 64
2, 26484, Note_off_c, 1, 58, 64
2, 26600, Note_on_c, 1, 79, 84
2, 26600, Note_on_c, 1, 74, 76
2, 26604, Note_on_c, 1, 70, 56
2, 26728, Note_on_c, 1, 41, 72
2, 26732, Note_on_c, 1, 53, 68
2, 26740, Note_off_c, 1, 41, 64
2, 26748, Note_off_c, 1, 53, 64
2, 26864, Note_off_c, 1, 79, 64
2, 26864, Note_off_c, 1, 74, 64
2, 26868, Note_on_c, 1, 78, 69
2, 26900, Note_off_c, 1, 70, 0
2, 26988, Note_on_c, 1, 58, 60
2, 26992, Note_on_c, 1, 53, 67
2, 26996, Note_off_c, 1, 78, 0
2, 26996, Note_on_c, 1, 62, 56
2, 26996, Note_on_c, 1, 77, 72
2, 27012, Note_off_c, 1, 58, 64
2, 27012, Note_off_c, 1, 53, 64
2, 27012, Note_off_c, 1, 62, 64
2, 27124, Note_off_c, 1, 77, 64
2, 27228, Note_on_c, 1, 46, 63
2, 27244, Note_off_c, 1, 46, 64
2, 27264, Note_on_c, 1, 65, 73
2, 27380, Note_off_c, 1, 65, 64
2, 27384, Note_on_c, 1, 70, 70
2, 27500, Note_on_c, 1, 53, 64
2, 27504, Note_on_c, 1, 58, 54
2, 27508, Note_on_c, 1, 74, 76
2, 27508, Note_on_c, 1, 62, 45
2, 27516, Note_off_c, 1, 70, 64
2, 27528, Note_off_c, 1, 53, 64
2, 27528, Note_off_c, 1, 58, 64
2, 27532, Note_off_c, 1, 74, 64
2, 27536, Note_off_c, 1, 62, 64
2, 27648, Note_on_c, 1, 77, 80
2, 27772, Note_on_c, 1, 50, 73
2, 27912, Note_on_c, 1, 70, 75
2, 27924, Note_off_c, 1, 77, 64
2, 28032, Note_on_c, 1, 58, 53
2, 28040, Note_on_c, 1, 53, 61
2, 28040, Note_on_c, 1, 62, 49
2, 28044, Note_off_c, 1, 70, 0
2, 28052, Note_on_c, 1, 72, 75
2, 28168, Control_c, 1, 64, 127
2, 28172, Note_on_c, 1, 74, 80
2, 28176, Note_off_c, 1, 72, 64
2, 28196, Note_off_c, 1, 50, 64
2, 28200, Note_off_c, 1, 53, 64
2, 28260, Note_off_c, 1, 58, 64
2, 28292, Note_on_c, 1, 51, 49
2, 28300, Note_off_c, 1, 62, 64
2, 28304, Control_c, 1, 64, 0
2, 28320, Note_off_c, 1, 74, 64
2, 28320, Note_on_c, 1, 69, 73
2, 28444, Note_off_c, 1, 69, 64
2, 28444, Note_on_c, 1, 70, 68
2, 28572, Note_off_c, 1, 70, 64
2, 28572, Note_on_c, 1, 63, 56
2, 28572, Note_on_c, 1, 67, 73
2, 28576, Note_on_c, 1, 55, 40
2, 28576, Note_on_c, 1, 58, 40
2, 28592, Note_off_c, 1, 58, 64
2, 28596, Note_off_c, 1, 63, 64
2, 28600, Note_off_c, 1, 51, 64
2, 28600, Note_off_c, 1, 55, 64
2, 28600, Control_c, 1, 64, 127
2, 28664, Control_c, 1, 64, 0
2, 28696, Note_off_c, 1, 67, 64
2, 28708, Note_on_c, 1, 65, 68
2, 28832, Note_on_c, 1, 50, 72
2, 28832, Note_on_c, 1, 62, 64
2, 28844, Note_off_c, 1, 50, 64
2, 28844, Note_off_c, 1, 62, 64
2, 28964, Note_on_c, 1, 67, 80
2, 28968, Control_c, 1, 64, 127
2, 28980, Note_off_c, 1, 65, 64
2, 28980, Note_off_c, 1, 67, 64
2, 29076, Control_c, 1, 64, 0
2, 29088, Note_on_c, 1, 47, 43
2, 29088, Note_on_c, 1, 68, 80
2, 29092, Note_on_c, 1, 65, 78
2, 29100, Note_on_c, 1, 59, 43
2, 29108, Note_off_c, 1, 47, 64
2, 29116, Note_off_c, 1, 59, 64
2, 29228, Note_on_c, 1, 74, 81
2, 29232, Note_off_c, 1, 68, 0
2, 29288, Note_off_c, 1, 65, 0
2, 29304, Note_off_c, 1, 74, 64
2, 29348, Note_on_c, 1, 48, 61
2, 29348, Note_on_c, 1, 60, 63
2, 29352, Note_on_c, 1, 69, 88
2, 29352, Note_on_c, 1, 65, 76
2, 29364, Note_off_c, 1, 48, 64
2, 29372, Note_off_c, 1, 60, 64
2, 29476, Note_off_c, 1, 69, 64
2, 29480, Note_on_c, 1, 72, 71
2, 29596, Note_off_c, 1, 72, 64
2, 29596, Note_on_c, 1, 77, 75
2, 29600, Note_on_c, 1, 57, 65
2, 29604, Note_on_c, 1, 60, 44
2, 29616, Note_off_c, 1, 77, 64
2, 29620, Note_off_c, 1, 65, 64
2, 29620, Note_off_c, 1, 57, 64
2, 29624, Note_off_c, 1, 60, 64
2, 29724, Note_on_c, 1, 74, 93
2, 29724, Note_on_c, 1, 70, 80
2, 29868, Note_on_c, 1, 48, 75
2, 29872, Control_c, 1, 64, 127
2, 29880, Note_off_c, 1, 48, 64
2, 29992, Note_off_c, 1, 74, 64
2, 29996, Note_on_c, 1, 79, 78
2, 30032, Note_off_c, 1, 79, 64
2, 30116, Control_c, 1, 64, 0
2, 30132, Note_on_c, 1, 64, 70
2, 30132, Note_on_c, 1, 72, 81
2, 30132, Note_on_c, 1, 58, 60
2, 30132, Control_c, 1, 64, 127
2, 30136, Note_on_c, 1, 60, 68
2, 30148, Note_off_c, 1, 70, 64
2, 30148, Note_off_c, 1, 64, 64
2, 30148, Note_off_c, 1, 72, 64
2, 30152, Note_off_c, 1, 58, 64
2, 30152, Note_off_c, 1, 60, 64
2, 30252, Note_on_c, 1, 81, 81
2, 30268, Note_off_c, 1, 81, 64
2, 30404, Note_on_c, 1, 77, 86
2, 30404, Note_on_c, 1, 60, 66
2, 30404, Note_on_c, 1, 57, 68
2, 30404, Note_on_c, 1, 65, 64
2, 30404, Note_on_c, 1, 53, 67
2, 30408, Note_on_c, 1, 69, 70
2, 30408, Control_c, 1, 64, 0
2, 30444, Control_c, 1, 64, 127
2, 30480, Note_off_c, 1, 77, 64
2, 30504, Note_off_c, 1, 69, 64
2, 30528, Note_off_c, 1, 60, 64
2, 30532, Note_off_c, 1, 65, 64
2, 30532, Note_off_c, 1, 53, 64
2, 30536, Note_off_c, 1, 57, 64
2, 30656, Control_c, 1, 64, 0
2, 30660, Note_on_c, 1, 75, 72
2, 30772, Note_off_c, 1, 75, 64
2, 30780, Note_on_c, 1, 72, 70
2, 30812, Note_on_c, 1, 53, 56
2, 30844, Note_on_c, 1, 57, 45
2, 30868, Note_on_c, 1, 60, 40
2, 30888, Note_off_c, 1, 60, 64
2, 30900, Note_on_c, 1, 63, 44
2, 30916, Note_off_c, 1, 72, 64
2, 30924, Note_on_c, 1, 69, 67
2, 31052, Note_on_c, 1, 68, 68
2, 31072, Note_off_c, 1, 69, 64
2, 31192, Note_off_c, 1, 63, 64
2, 31192, Note_off_c, 1, 68, 64
2, 31196, Note_on_c, 1, 67, 67
2, 31200, Note_off_c, 1, 57, 64
2, 31204, Note_off_c, 1, 53, 64
2, 31328, Note_on_c, 1, 66, 68
2, 31340, Note_off_c, 1, 67, 64
2, 31452, Note_on_c, 1, 46, 57
2, 31460, Note_off_c, 1, 66, 64
2, 31464, Note_off_c, 1, 46, 64
2, 31464, Note_on_c, 1, 65, 68
2, 31592, Note_on_c, 1, 70, 65
2, 31716, Note_on_c, 1, 58, 52
2, 31720, Note_off_c, 1, 70, 64
2, 31720, Note_on_c, 1, 62, 44
2, 31724, Note_on_c, 1, 53, 56
2, 31724, Note_on_c, 1, 74, 64
2, 31736, Note_off_c, 1, 58, 64
2, 31740, Note_off_c, 1, 62, 64
2, 31744, Note_off_c, 1, 53, 64
2, 31752, Note_off_c, 1, 65, 0
2, 31848, Note_on_c, 1, 77, 69
2, 31864, Note_off_c, 1, 74, 64
2, 31980, Note_on_c, 1, 50, 64
2, 32108, Note_on_c, 1, 70, 69
2, 32112, Note_off_c, 1, 77, 64
2, 32240, Note_off_c, 1, 70, 64
2, 32248, Note_on_c, 1, 58, 56
2, 32248, Note_on_c, 1, 72, 70
2, 32248, Note_on_c, 1, 62, 56
2, 32252, Note_on_c, 1, 53, 44
2, 32316, Note_off_c, 1, 50, 64
2, 32376, Note_off_c, 1, 72, 64
2, 32376, Note_on_c, 1, 74, 80
2, 32472, Note_on_c, 1, 51, 55
2, 32476, Note_off_c, 1, 53, 64
2, 32476, Note_off_c, 1, 58, 64
2, 32500, Note_off_c, 1, 62, 64
2, 32508, Note_on_c, 1, 69, 72
2, 32512, Note_off_c, 1, 74, 64
2, 32632, Note_off_c, 1, 69, 64
2, 32632, Note_on_c, 1, 70, 68
2, 32764, Note_off_c, 1, 70, 64
2, 32764, Note_on_c, 1, 55, 61
2, 32768, Note_on_c, 1, 58, 55
2, 32768, Note_on_c, 1, 63, 44
2, 32768, Note_on_c, 1, 67, 75
2, 32792, Note_off_c, 1, 58, 64
2, 32792, Note_off_c, 1, 63, 64
2, 32804, Note_off_c, 1, 51, 64
2, 32812, Note_off_c, 1, 55, 64
2, 32892, Note_off_c, 1, 67, 64
2, 32900, Note_on_c, 1, 65, 67
2, 33028, Note_on_c, 1, 50, 73
2, 33028, Note_on_c, 1, 62, 66
2, 33044, Note_off_c, 1, 50, 64
2, 33044, Note_off_c, 1, 62, 64
2, 33160, Note_on_c, 1, 66, 71
2, 33168, Note_off_c, 1, 65, 64
2, 33288, Note_off_c, 1, 66, 64
2, 33292, Note_on_c, 1, 61, 46
2, 33296, Note_on_c, 1, 67, 67
2, 33300, Note_on_c, 1, 49, 52
2, 33320, Note_off_c, 1, 61, 64
2, 33320, Note_off_c, 1, 49, 64
2, 33428, Note_on_c, 1, 68, 68
2, 33440, Note_off_c, 1, 67, 64
2, 33540, Note_off_c, 1, 68, 64
2, 33552, Note_on_c, 1, 69, 69
2, 33560, Note_on_c, 1, 60, 43
2, 33560, Note_on_c, 1, 48, 43
2, 33568, Note_off_c, 1, 48, 64
2, 33584, Note_off_c, 1, 60, 64
2, 33680, Note_on_c, 1, 72, 69
2, 33808, Note_on_c, 1, 75, 57
2, 33812, Note_off_c, 1, 72, 64
2, 33812, Note_on_c, 1, 53, 67
2, 33812, Note_on_c, 1, 57, 66
2, 33812, Note_on_c, 1, 63, 54
2, 33824, Note_off_c, 1, 75, 64
2, 33828, Note_off_c, 1, 69, 0
2, 33832, Note_off_c, 1, 53, 0
2, 33832, Note_off_c, 1, 57, 0
2, 33836, Note_off_c, 1, 63, 0
2, 33948, Note_on_c, 1, 79, 84
2, 33952, Note_on_c, 1, 75, 78
2, 33952, Note_on_c, 1, 69, 76
2, 34084, Note_on_c, 1, 41, 71
2, 34088, Note_off_c, 1, 41, 64
2, 34088, Control_c, 1, 64, 127
2, 34200, Note_off_c, 1, 75, 64
2, 34208, Note_on_c, 1, 78, 76
2, 34220, Note_off_c, 1, 79, 64
2, 34340, Note_off_c, 1, 78, 64
2, 34340, Note_on_c, 1, 77, 75
2, 34340, Note_on_c, 1, 63, 56
2, 34344, Note_on_c, 1, 57, 66
2, 34344, Note_on_c, 1, 53, 65
2, 34344, Control_c, 1, 64, 0
2, 34352, Note_off_c, 1, 57, 64
2, 34356, Note_off_c, 1, 63, 64
2, 34360, Control_c, 1, 64, 127
2, 34368, Note_off_c, 1, 53, 64
2, 34456, Note_off_c, 1, 69, 64
2, 34456, Note_off_c, 1, 77, 64
2, 34552, Control_c, 1, 64, 0
2, 34596, Note_on_c, 1, 58, 57
2, 34596, Note_on_c, 1, 70, 70
2, 34596, Note_on_c, 1, 46, 59
2, 34596, Control_c, 1, 64, 127
2, 34624, Note_off_c, 1, 46, 64
2, 34628, Note_off_c, 1, 58, 64
2, 34728, Note_on_c, 1, 74, 68
2, 34740, Note_off_c, 1, 70, 64
2, 34860, Control_c, 1, 64, 0
2, 34864, Note_on_c, 1, 58, 42
2, 34868, Note_on_c, 1, 77, 78
2, 34868, Note_on_c, 1, 53, 40
2, 34868, Note_on_c, 1, 62, 42
2, 34880, Note_off_c, 1, 74, 64
2, 34884, Control_c, 1, 64, 127
2, 34888, Note_off_c, 1, 58, 64
2, 34888, Note_off_c, 1, 62, 64
2, 34896, Note_off_c, 1, 53, 64
2, 34952, Note_on_c, 1, 70, 55
2, 34960, Note_off_c, 1, 77, 64
2, 34976, Note_on_c, 1, 74, 66
2, 34996, Note_on_c, 1, 79, 73
2, 35016, Control_c, 1, 64, 0
2, 35128, Note_on_c, 1, 46, 67
2, 35128, Note_on_c, 1, 58, 64
2, 35136, Control_c, 1, 64, 127
2, 35252, Note_off_c, 1, 46, 64
2, 35252, Note_on_c, 1, 78, 71
2, 35256, Note_off_c, 1, 58, 64
2, 35272, Note_off_c, 1, 74, 0
2, 35276, Note_off_c, 1, 79, 64
2, 35304, Note_off_c, 1, 70, 0
2, 35304, Note_off_c, 1, 78, 64
2, 35388, Note_on_c, 1, 59, 45
2, 35396, Note_on_c, 1, 47, 43
2, 35404, Note_on_c, 1, 77, 73
2, 35404, Note_on_c, 1, 74, 65
2, 35404, Note_on_c, 1, 68, 46
2, 35424, Control_c, 1, 64, 0
2, 35456, Control_c, 1, 64, 127
2, 35464, Note_off_c, 1, 47, 64
2, 35488, Note_off_c, 1, 59, 64
2, 35488, Note_off_c, 1, 74, 64
2, 35504, Note_off_c, 1, 68, 64
2, 35524, Note_off_c, 1, 77, 64
2, 35624, Note_on_c, 1, 48, 47
2, 35624, Note_on_c, 1, 60, 43
2, 35636, Control_c, 1, 64, 0
2, 35660, Note_on_c, 1, 77, 76
2, 35668, Note_on_c, 1, 72, 70
2, 35668, Note_on_c, 1, 67, 67
2, 35672, Control_c, 1, 64, 127
2, 35688, Note_off_c, 1, 48, 64
2, 35704, Note_off_c, 1, 60, 64
2, 35788, Note_off_c, 1, 72, 64
2, 35788, Note_on_c, 1, 75, 67
2, 35800, Note_off_c, 1, 77, 64
2, 35808, Note_off_c, 1, 67, 64
2, 35812, Note_off_c, 1, 75, 64
2, 35912, Note_on_c, 1, 55, 72
2, 35912, Note_on_c, 1, 63, 57
2, 35932, Note_off_c, 1, 63, 64
2, 35940, Note_off_c, 1, 55, 64
2, 36036, Note_on_c, 1, 72, 76
2, 36040, Note_on_c, 1, 75, 73
2, 36040, Note_on_c, 1, 79, 80
2, 36040, Note_on_c, 1, 84, 75
2, 36044, Control_c, 1, 64, 0
2, 36168, Note_on_c, 1, 39, 73
2, 36172, Note_on_c, 1, 51, 75
2, 36172, Control_c, 1, 64, 127
2, 36200, Note_off_c, 1, 72, 0
2, 36212, Note_off_c, 1, 75, 0
2, 36216, Note_off_c, 1, 79, 0
2, 36216, Note_off_c, 1, 84, 0
2, 36276, Note_off_c, 1, 39, 64
2, 36280, Note_off_c, 1, 51, 64
2, 36388, Control_c, 1, 64, 0
2, 36448, Note_on_c, 1, 87, 80
2, 36456, Note_on_c, 1, 82, 77
2, 36456, Note_on_c, 1, 54, 71
2, 36456, Note_on_c, 1, 75, 68
2, 36456, Note_on_c, 1, 42, 64
2, 36460, Control_c, 1, 64, 127
2, 36500, Note_off_c, 1, 42, 64
2, 36508, Note_off_c, 1, 87, 64
2, 36508, Note_off_c, 1, 54, 64
2, 36508, Note_off_c, 1, 75, 64
2, 36516, Note_off_c, 1, 82, 64
2, 36684, Control_c, 1, 64, 0
2, 36712, Note_on_c, 1, 82, 60
2, 36716, Note_on_c, 1, 86, 67
2, 36716, Note_on_c, 1, 53, 65
2, 36720, Note_on_c, 1, 74, 68
2, 36720, Note_on_c, 1, 41, 49
2, 36728, Note_off_c, 1, 82, 64
2, 36732, Note_off_c, 1, 86, 64
2, 36732, Note_off_c, 1, 74, 64
2, 36736, Note_off_c, 1, 41, 64
2, 36740, Note_off_c, 1, 53, 64
2, 36848, Note_on_c, 1, 82, 69
2, 36852, Note_on_c, 1, 74, 72
2, 36852, Note_on_c, 1, 70, 60
2, 36968, Note_off_c, 1, 74, 64
2, 36972, Note_off_c, 1, 82, 64
2, 36976, Note_off_c, 1, 70, 64
2, 36980, Note_on_c, 1, 53, 52
2, 36980, Note_on_c, 1, 62, 44
2, 36988, Note_off_c, 1, 62, 64
2, 36992, Note_off_c, 1, 53, 64
2, 37084, Note_on_c, 1, 71, 72
2, 37084, Note_on_c, 1, 79, 83
2, 37092, Note_on_c, 1, 67, 75
2, 37092, Control_c, 1, 64, 0
2, 37216, Note_on_c, 1, 55, 63
2, 37216, Note_on_c, 1, 43, 43
2, 37220, Control_c, 1, 64, 127
2, 37232, Note_off_c, 1, 43, 64
2, 37240, Note_off_c, 1, 55, 64
2, 37260, Note_off_c, 1, 79, 0
2, 37336, Note_on_c, 1, 77, 68
2, 37352, Note_off_c, 1, 67, 64
2, 37360, Note_off_c, 1, 71, 64
2, 37372, Note_off_c, 1, 77, 64
2, 37468, Note_on_c, 1, 74, 72
2, 37468, Note_on_c, 1, 71, 69
2, 37468, Note_on_c, 1, 65, 64
2, 37468, Note_on_c, 1, 55, 48
2, 37476, Note_on_c, 1, 59, 52
2, 37476, Control_c, 1, 64, 0
2, 37504, Control_c, 1, 64, 127
2, 37528, Note_off_c, 1, 55, 64
2, 37536, Note_off_c, 1, 59, 64
2, 37588, Note_off_c, 1, 74, 64
2, 37592, Note_off_c, 1, 71, 64
2, 37592, Note_off_c, 1, 65, 64
2, 37664, Control_c, 1, 64, 0
2, 37712, Note_on_c, 1, 48, 42
2, 37740, Note_on_c, 1, 70, 66
2, 37740, Note_on_c, 1, 74, 76
2, 37744, Note_on_c, 1, 64, 67
2, 37856, Note_off_c, 1, 74, 64
2, 37864, Note_on_c, 1, 72, 73
2, 37988, Note_off_c, 1, 70, 64
2, 37988, Control_c, 1, 64, 127
2, 38000, Note_off_c, 1, 64, 64
2, 38004, Note_off_c, 1, 72, 64
2, 38004, Note_on_c, 1, 58, 55
2, 38004, Note_on_c, 1, 55, 44
2, 38004, Note_on_c, 1, 60, 44
2, 38028, Note_off_c, 1, 58, 64
2, 38032, Note_off_c, 1, 60, 64
2, 38036, Note_off_c, 1, 55, 64
2, 38040, Control_c, 1, 64, 0
2, 38060, Note_off_c, 1, 48, 64
2, 38120, Note_on_c, 1, 69, 73
2, 38124, Note_on_c, 1, 77, 75
2, 38124, Note_on_c, 1, 65, 68
2, 38256, Note_on_c, 1, 41, 68
2, 38256, Control_c, 1, 64, 127
2, 38272, Note_off_c, 1, 41, 64
2, 38376, Note_off_c, 1, 77, 0
2, 38384, Note_on_c, 1, 74, 75
2, 38396, Note_off_c, 1, 69, 0
2, 38396, Note_off_c, 1, 65, 0
2, 38408, Note_off_c, 1, 74, 64
2, 38504, Note_on_c, 1, 72, 70
2, 38512, Note_on_c, 1, 53, 61
2, 38516, Note_on_c, 1, 57, 52
2, 38520, Note_on_c, 1, 69, 64
2, 38520, Note_on_c, 1, 63, 47
2, 38520, Control_c, 1, 64, 0
2, 38548, Control_c, 1, 64, 127
2, 38588, Note_off_c, 1, 57, 64
2, 38604, Note_off_c, 1, 53, 64
2, 38628, Note_off_c, 1, 72, 64
2, 38644, Note_off_c, 1, 63, 64
2, 38652, Note_off_c, 1, 69, 64
2, 38772, Note_on_c, 1, 70, 56
2, 38772, Note_on_c, 1, 58, 50
2, 38776, Note_on_c, 1, 46, 43
2, 38784, Note_on_c, 1, 62, 48
2, 38784, Control_c, 1, 64, 0
2, 38796, Note_off_c, 1, 46, 64
2, 38800, Note_off_c, 1, 58, 64
2, 39032, Note_on_c, 1, 53, 44
2, 39056, Note_off_c, 1, 53, 64
2, 39288, Note_on_c, 1, 46, 37
2, 39304, Control_c, 1, 64, 127
2, 39380, Note_off_c, 1, 62, 64
2, 39404, Note_off_c, 1, 70, 64
2, 39500, Note_off_c, 1, 46, 0
2, 39504, Control_c, 1, 64, 0
2, 39552, Control_c, 1, 64, 127
2, 39556, Note_on_c, 1, 77, 91
2, 39556, Note_on_c, 1, 65, 84
2, 39564, Note_off_c, 1, 77, 64
2, 39572, Note_off_c, 1, 65, 64
2, 39772, Control_c, 1, 64, 0
2, 39804, Note_on_c, 1, 81, 96
2, 39808, Note_on_c, 1, 77, 88
2, 39808, Note_on_c, 1, 60, 68
2, 39816, Note_on_c, 1, 48, 64
2, 39816, Control_c, 1, 64, 127
2, 39820, Note_off_c, 1, 60, 64
2, 39820, Note_off_c, 1, 48, 64
2, 39896, Note_off_c, 1, 77, 64
2, 39912, Note_off_c, 1, 81, 64
2, 39936, Note_on_c, 1, 82, 75
2, 39936, Note_on_c, 1, 79, 81
2, 39944, Control_c, 1, 64, 0
2, 39948, Note_off_c, 1, 82, 64
2, 39948, Note_off_c, 1, 79, 64
2, 40056, Note_on_c, 1, 63, 56
2, 40064, Note_on_c, 1, 84, 78
2, 40064, Note_on_c, 1, 57, 69
2, 40064, Note_on_c, 1, 81, 73
2, 40072, Note_off_c, 1, 63, 64
2, 40072, Note_off_c, 1, 84, 64
2, 40072, Note_off_c, 1, 57, 64
2, 40076, Note_off_c, 1, 81, 64
2, 40184, Note_on_c, 1, 81, 81
2, 40188, Note_on_c, 1, 77, 56
2, 40192, Note_off_c, 1, 81, 64
2, 40196, Note_off_c, 1, 77, 64
2, 40304, Note_on_c, 1, 41, 65
2, 40308, Note_on_c, 1, 75, 72
2, 40308, Note_on_c, 1, 72, 67
2, 40308, Control_c, 1, 64, 127
2, 40316, Note_off_c, 1, 41, 64
2, 40328, Note_off_c, 1, 75, 64
2, 40328, Note_off_c, 1, 72, 64
2, 40348, Control_c, 1, 64, 0
2, 40440, Note_on_c, 1, 79, 84
2, 40440, Note_on_c, 1, 75, 91
2, 40544, Control_c, 1, 64, 127
2, 40564, Note_on_c, 1, 63, 56
2, 40564, Note_on_c, 1, 53, 59
2, 40572, Note_on_c, 1, 57, 64
2, 40576, Note_off_c, 1, 63, 64
2, 40576, Note_off_c, 1, 53, 64
2, 40580, Note_off_c, 1, 57, 64
2, 40592, Note_off_c, 1, 79, 64
2, 40592, Note_off_c, 1, 75, 64
2, 40592, Control_c, 1, 64, 0
2, 40696, Note_on_c, 1, 74, 88
2, 40700, Note_on_c, 1, 77, 84
2, 40824, Note_on_c, 1, 46, 72
2, 40824, Control_c, 1, 64, 127
2, 40832, Note_off_c, 1, 46, 64
2, 40952, Note_off_c, 1, 77, 64
2, 40956, Note_off_c, 1, 74, 64
2, 40956, Note_on_c, 1, 73, 71
2, 40956, Note_on_c, 1, 76, 76
2, 40980, Note_off_c, 1, 73, 64
2, 41004, Note_off_c, 1, 76, 64
2, 41084, Note_on_c, 1, 77, 76
2, 41088, Note_on_c, 1, 58, 55
2, 41088, Note_on_c, 1, 74, 76
2, 41088, Note_on_c, 1, 62, 48
2, 41092, Note_on_c, 1, 53, 43
2, 41096, Note_off_c, 1, 58, 64
2, 41096, Note_off_c, 1, 74, 64
2, 41096, Note_off_c, 1, 62, 64
2, 41100, Note_off_c, 1, 77, 64
2, 41100, Note_off_c, 1, 53, 64
2, 41164, Control_c, 1, 64, 0
2, 41208, Note_on_c, 1, 70, 70
2, 41216, Note_on_c, 1, 74, 80
2, 41340, Note_on_c, 1, 41, 68
2, 41356, Note_off_c, 1, 41, 64
2, 41636, Note_on_c, 1, 58, 48
2, 41636, Note_on_c, 1, 62, 51
2, 41636, Note_on_c, 1, 53, 52
2, 41636, Note_on_c, 1, 65, 60
2, 41636, Control_c, 1, 64, 127
2, 41652, Note_off_c, 1, 58, 64
2, 41652, Note_off_c, 1, 53, 64
2, 41660, Note_off_c, 1, 62, 64
2, 41696, Note_off_c, 1, 65, 64
2, 41728, Note_off_c, 1, 70, 64
2, 41728, Note_off_c, 1, 74, 64
2, 41844, Note_on_c, 1, 41, 65
2, 41844, Control_c, 1, 64, 0
2, 41856, Control_c, 1, 64, 127
2, 41872, Note_off_c, 1, 41, 64
2, 41880, Note_on_c, 1, 72, 75
2, 41884, Note_on_c, 1, 69, 72
2, 41952, Note_off_c, 1, 72, 64
2, 41952, Note_off_c, 1, 69, 64
2, 41996, Note_on_c, 1, 70, 68
2, 41996, Note_on_c, 1, 74, 80
2, 42024, Note_off_c, 1, 70, 64
2, 42024, Note_off_c, 1, 74, 64
2, 42116, Control_c, 1, 64, 0
2, 42120, Note_on_c, 1, 72, 73
2, 42120, Note_on_c, 1, 75, 69
2, 42124, Note_on_c, 1, 53, 68
2, 42124, Note_on_c, 1, 63, 56
2, 42124, Note_on_c, 1, 57, 71
2, 42128, Control_c, 1, 64, 127
2, 42144, Note_off_c, 1, 72, 64
2, 42144, Note_off_c, 1, 75, 64
2, 42148, Note_off_c, 1, 63, 64
2, 42148, Note_off_c, 1, 57, 64
2, 42160, Note_off_c, 1, 53, 64
2, 42244, Note_on_c, 1, 72, 73
2, 42244, Note_on_c, 1, 69, 72
2, 42264, Note_off_c, 1, 72, 64
2, 42264, Note_off_c, 1, 69, 64
2, 42360, Note_on_c, 1, 41, 70
2, 42360, Control_c, 1, 64, 0
2, 42372, Note_on_c, 1, 67, 80
2, 42372, Note_on_c, 1, 63, 70
2, 42392, Control_c, 1, 64, 127
2, 42408, Note_off_c, 1, 41, 64
2, 42500, Note_on_c, 1, 69, 86
2, 42544, Note_off_c, 1, 67, 64
2, 42620, Note_on_c, 1, 53, 81
2, 42628, Note_off_c, 1, 69, 64
2, 42628, Note_on_c, 1, 57, 80
2, 42628, Control_c, 1, 64, 0
2, 42632, Note_off_c, 1, 63, 64
2, 42644, Control_c, 1, 64, 127
2, 42760, Note_on_c, 1, 67, 84
2, 42760, Note_on_c, 1, 61, 80
2, 42760, Control_c, 1, 64, 0
2, 42848, Note_off_c, 1, 53, 64
2, 42892, Note_on_c, 1, 46, 73
2, 42904, Note_off_c, 1, 57, 64
2, 43024, Note_on_c, 1, 49, 58
2, 43152, Note_off_c, 1, 46, 0
2, 43156, Note_on_c, 1, 52, 63
2, 43172, Note_off_c, 1, 49, 64
2, 43284, Note_off_c, 1, 52, 64
2, 43284, Note_on_c, 1, 55, 64
2, 43296, Control_c, 1, 64, 127
2, 43300, Note_off_c, 1, 67, 0
2, 43328, Note_off_c, 1, 61, 0
2, 43424, Note_off_c, 1, 55, 64
2, 43424, Note_on_c, 1, 65, 65
2, 43424, Note_on_c, 1, 58, 40
2, 43428, Note_on_c, 1, 62, 56
2, 43428, Control_c, 1, 64, 0
2, 43448, Control_c, 1, 64, 127
2, 43464, Note_off_c, 1, 62, 64
2, 43476, Note_off_c, 1, 65, 64
2, 43512, Note_off_c, 1, 58, 64
2, 43608, Control_c, 1, 64, 0
2, 43652, Control_c, 1, 64, 127
2, 43672, Note_on_c, 1, 77, 91
2, 43676, Note_on_c, 1, 65, 80
2, 43688, Note_off_c, 1, 77, 64
2, 43688, Note_off_c, 1, 65, 64
2, 43876, Control_c, 1, 64, 0
2, 43924, Note_on_c, 1, 48, 68
2, 43932, Note_on_c, 1, 81, 98
2, 43936, Note_on_c, 1, 77, 80
2, 43940, Control_c, 1, 64, 127
2, 43944, Note_off_c, 1, 48, 64
2, 44020, Note_off_c, 1, 81, 64
2, 44020, Note_off_c, 1, 77, 64
2, 44056, Note_on_c, 1, 82, 76
2, 44060, Note_on_c, 1, 79, 88
2, 44068, Control_c, 1, 64, 0
2, 44084, Note_off_c, 1, 79, 64
2, 44088, Note_off_c, 1, 82, 64
2, 44096, Control_c, 1, 64, 127
2, 44184, Note_on_c, 1, 57, 72
2, 44188, Note_on_c, 1, 53, 68
2, 44188, Note_on_c, 1, 63, 58
2, 44192, Note_on_c, 1, 84, 81
2, 44192, Note_on_c, 1, 81, 73
2, 44200, Note_off_c, 1, 81, 64
2, 44204, Note_off_c, 1, 57, 64
2, 44204, Note_off_c, 1, 53, 64
2, 44204, Note_off_c, 1, 63, 64
2, 44204, Control_c, 1, 64, 0
2, 44208, Note_off_c, 1, 84, 64
2, 44308, Note_on_c, 1, 81, 80
2, 44312, Note_on_c, 1, 77, 75
2, 44328, Note_off_c, 1, 81, 64
2, 44332, Note_off_c, 1, 77, 64
2, 44436, Note_on_c, 1, 41, 68
2, 44444, Note_on_c, 1, 75, 80
2, 44444, Note_on_c, 1, 72, 78
2, 44444, Control_c, 1, 64, 127
2, 44456, Note_off_c, 1, 41, 64
2, 44476, Note_off_c, 1, 75, 64
2, 44480, Note_off_c, 1, 72, 64
2, 44580, Note_on_c, 1, 79, 84
2, 44580, Control_c, 1, 64, 0
2, 44584, Note_on_c, 1, 75, 69
2, 44716, Note_on_c, 1, 53, 78
2, 44716, Note_on_c, 1, 63, 58
2, 44720, Note_on_c, 1, 57, 76
2, 44724, Note_off_c, 1, 79, 64
2, 44728, Note_off_c, 1, 57, 64
2, 44732, Note_off_c, 1, 75, 64
2, 44732, Note_off_c, 1, 53, 64
2, 44736, Note_off_c, 1, 63, 64
2, 44848, Note_on_c, 1, 74, 88
2, 44852, Note_on_c, 1, 77, 88
2, 44968, Note_on_c, 1, 46, 80
2, 44972, Control_c, 1, 64, 127
2, 44976, Note_off_c, 1, 46, 64
2, 45040, Note_off_c, 1, 77, 64
2, 45056, Note_off_c, 1, 74, 64
2, 45100, Note_on_c, 1, 73, 81
2, 45100, Note_on_c, 1, 76, 86
2, 45128, Note_off_c, 1, 73, 64
2, 45140, Note_off_c, 1, 76, 64
2, 45208, Control_c, 1, 64, 0
2, 45220, Note_on_c, 1, 77, 84
2, 45220, Note_on_c, 1, 53, 69
2, 45220, Note_on_c, 1, 74, 88
2, 45224, Note_on_c, 1, 58, 60
2, 45224, Note_on_c, 1, 62, 62
2, 45224, Control_c, 1, 64, 127
2, 45240, Note_off_c, 1, 53, 64
2, 45240, Note_off_c, 1, 74, 64
2, 45248, Note_off_c, 1, 77, 64
2, 45248, Note_off_c, 1, 58, 64
2, 45252, Note_off_c, 1, 62, 64
2, 45344, Note_on_c, 1, 74, 86
2, 45344, Note_on_c, 1, 70, 76
2, 45404, Note_off_c, 1, 70, 64
2, 45424, Note_off_c, 1, 74, 64
2, 45476, Note_on_c, 1, 65, 91
2, 45480, Control_c, 1, 64, 0
2, 45608, Note_on_c, 1, 82, 86
2, 45612, Control_c, 1, 64, 127
2, 45636, Note_off_c, 1, 82, 64
2, 45728, Note_off_c, 1, 65, 64
2, 45728, Note_on_c, 1, 63, 67
2, 45728, Note_on_c, 1, 84, 84
2, 45728, Control_c, 1, 64, 0
2, 45752, Control_c, 1, 64, 127
2, 45784, Note_off_c, 1, 84, 64
2, 45836, Control_c, 1, 64, 0
2, 45856, Note_off_c, 1, 63, 64
2, 45856, Note_on_c, 1, 85, 76
2, 45856, Control_c, 1, 64, 127
2, 45876, Note_off_c, 1, 85, 64
2, 45944, Note_on_c, 1, 62, 67
2, 45964, Note_on_c, 1, 66, 49
2, 45968, Note_on_c, 1, 69, 70
2, 45976, Control_c, 1, 64, 0
2, 45980, Note_on_c, 1, 72, 76
2, 45992, Note_on_c, 1, 86, 88
2, 46116, Note_off_c, 1, 86, 64
2, 46116, Note_on_c, 1, 88, 78
2, 46116, Control_c, 1, 64, 127
2, 46184, Control_c, 1, 64, 0
2, 46236, Note_on_c, 1, 90, 75
2, 46236, Control_c, 1, 64, 127
2, 46244, Note_off_c, 1, 88, 64
2, 46248, Note_off_c, 1, 62, 64
2, 46248, Note_off_c, 1, 90, 64
2, 46252, Note_off_c, 1, 66, 64
2, 46260, Note_off_c, 1, 69, 64
2, 46268, Note_off_c, 1, 72, 64
2, 46360, Note_on_c, 1, 98, 80
2, 46448, Note_on_c, 1, 69, 68
2, 46456, Note_off_c, 1, 98, 0
2, 46464, Note_on_c, 1, 72, 53
2, 46472, Control_c, 1, 64, 0
2, 46480, Note_on_c, 1, 74, 68
2, 46488, Note_on_c, 1, 78, 78
2, 46492, Note_on_c, 1, 96, 83
2, 46508, Control_c, 1, 64, 127
2, 46520, Note_off_c, 1, 69, 64
2, 46520, Note_off_c, 1, 74, 64
2, 46524, Note_off_c, 1, 72, 64
2, 46532, Note_off_c, 1, 78, 64
2, 46616, Note_off_c, 1, 96, 64
2, 46616, Note_on_c, 1, 94, 78
2, 46660, Note_off_c, 1, 94, 64
2, 46700, Note_on_c, 1, 74, 52
2, 46704, Note_on_c, 1, 72, 46
2, 46724, Note_on_c, 1, 78, 56
2, 46736, Note_on_c, 1, 81, 80
2, 46744, Control_c, 1, 64, 0
2, 46748, Note_on_c, 1, 93, 87
2, 46792, Control_c, 1, 64, 127
2, 46804, Note_off_c, 1, 78, 64
2, 46808, Note_off_c, 1, 81, 64
2, 46816, Note_off_c, 1, 74, 64
2, 46816, Note_off_c, 1, 72, 64
2, 46880, Note_off_c, 1, 93, 64
2, 46880, Note_on_c, 1, 98, 72
2, 46904, Note_off_c, 1, 98, 64
2, 46996, Control_c, 1, 64, 0
2, 47016, Control_c, 1, 64, 127
2, 47028, Note_on_c, 1, 70, 59
2, 47028, Note_on_c, 1, 79, 64
2, 47028, Note_on_c, 1, 91, 75
2, 47028, Note_on_c, 1, 74, 54
2, 47040, Note_off_c, 1, 70, 64
2, 47040, Note_off_c, 1, 79, 64
2, 47048, Note_off_c, 1, 91, 64
2, 47048, Note_off_c, 1, 74, 64
2, 47180, Control_c, 1, 64, 0
2, 47296, Note_on_c, 1, 43, 73
2, 47300, Note_on_c, 1, 79, 91
2, 47300, Note_on_c, 1, 67, 93
2, 47300, Control_c, 1, 64, 127
2, 47304, Note_on_c, 1, 55, 73
2, 47308, Note_off_c, 1, 43, 64
2, 47312, Note_off_c, 1, 79, 64
2, 47312, Note_off_c, 1, 67, 64
2, 47320, Note_off_c, 1, 55, 64
2, 47412, Control_c, 1, 64, 0
2, 47424, Note_on_c, 1, 78, 96
2, 47424, Note_on_c, 1, 42, 71
2, 47424, Note_on_c, 1, 54, 72
2, 47424, Note_on_c, 1, 66, 81
2, 47428, Control_c, 1, 64, 127
2, 47432, Note_off_c, 1, 66, 64
2, 47440, Note_off_c, 1, 78, 64
2, 47440, Note_off_c, 1, 42, 64
2, 47440, Note_off_c, 1, 54, 64
2, 47480, Control_c, 1, 64, 0
2, 47552, Note_on_c, 1, 77, 104
2, 47552, Note_on_c, 1, 41, 78
2, 47552, Note_on_c, 1, 65, 100
2, 47556, Note_on_c, 1, 53, 78
2, 47556, Control_c, 1, 64, 127
2, 47604, Note_off_c, 1, 65, 0
2, 47628, Note_off_c, 1, 77, 0
2, 47712, Note_off_c, 1, 53, 0
2, 47724, Note_off_c, 1, 41, 0
2, 47812, Note_on_c, 1, 77, 93
2, 47816, Control_c, 1, 64, 0
2, 47916, Control_c, 1, 64, 127
2, 47960, Note_off_c, 1, 77, 64
2, 48040, Control_c, 1, 64, 0
2, 48064, Note_on_c, 1, 48, 68
2, 48068, Note_on_c, 1, 81, 100
2, 48068, Note_on_c, 1, 77, 75
2, 48068, Control_c, 1, 64, 127
2, 48080, Note_off_c, 1, 48, 64
2, 48144, Note_off_c, 1, 81, 64
2, 48144, Note_off_c, 1, 77, 64
2, 48188, Note_on_c, 1, 82, 75
2, 48188, Note_on_c, 1, 79, 84
2, 48208, Note_off_c, 1, 82, 64
2, 48212, Note_off_c, 1, 79, 64
2, 48312, Note_on_c, 1, 84, 84
2, 48312, Note_on_c, 1, 53, 64
2, 48320, Note_on_c, 1, 63, 60
2, 48324, Note_on_c, 1, 81, 73
2, 48324, Note_on_c, 1, 57, 72
2, 48328, Control_c, 1, 64, 0
2, 48332, Note_off_c, 1, 63, 64
2, 48332, Note_off_c, 1, 81, 64
2, 48332, Note_off_c, 1, 57, 64
2, 48336, Note_off_c, 1, 84, 64
2, 48340, Note_off_c, 1, 53, 64
2, 48432, Control_c, 1, 64, 127
2, 48448, Note_on_c, 1, 81, 81
2, 48448, Note_on_c, 1, 77, 73
2, 48456, Note_off_c, 1, 81, 64
2, 48456, Note_off_c, 1, 77, 64
2, 48480, Control_c, 1, 64, 0
2, 48576, Note_on_c, 1, 41, 63
2, 48576, Note_on_c, 1, 75, 75
2, 48580, Note_on_c, 1, 72, 71
2, 48580, Control_c, 1, 64, 127
2, 48592, Note_off_c, 1, 41, 64
2, 48592, Note_off_c, 1, 75, 64
2, 48592, Note_off_c, 1, 72, 64
2, 48604, Control_c, 1, 64, 0
2, 48704, Note_on_c, 1, 79, 91
2, 48712, Note_on_c, 1, 75, 81
2, 48844, Note_on_c, 1, 63, 57
2, 48848, Note_on_c, 1, 53, 72
2, 48848, Note_on_c, 1, 57, 70
2, 48856, Note_off_c, 1, 53, 64
2, 48856, Note_off_c, 1, 57, 64
2, 48868, Note_off_c, 1, 63, 64
2, 48956, Note_off_c, 1, 75, 0
2, 48972, Note_off_c, 1, 79, 0
2, 48976, Note_on_c, 1, 74, 78
2, 48976, Note_on_c, 1, 77, 81
2, 49096, Note_on_c, 1, 46, 76
2, 49100, Control_c, 1, 64, 127
2, 49112, Note_off_c, 1, 46, 64
2, 49152, Note_off_c, 1, 74, 64
2, 49160, Note_off_c, 1, 77, 64
2, 49232, Note_on_c, 1, 76, 80
2, 49232, Note_on_c, 1, 73, 78
2, 49248, Note_off_c, 1, 73, 64
2, 49256, Note_off_c, 1, 76, 64
2, 49352, Note_on_c, 1, 77, 80
2, 49356, Note_on_c, 1, 74, 80
2, 49356, Note_on_c, 1, 53, 64
2, 49356, Note_on_c, 1, 62, 64
2, 49360, Note_off_c, 1, 74, 64
2, 49364, Note_off_c, 1, 77, 64
2, 49368, Note_off_c, 1, 53, 64
2, 49368, Note_off_c, 1, 62, 64
2, 49468, Control_c, 1, 64, 0
2, 49480, Note_on_c, 1, 74, 91
2, 49480, Note_on_c, 1, 70, 80
2, 49608, Note_on_c, 1, 41, 71
2, 49612, Control_c, 1, 64, 127
2, 49620, Note_off_c, 1, 41, 64
2, 49868, Control_c, 1, 64, 0
2, 49872, Note_on_c, 1, 58, 67
2, 49876, Note_on_c, 1, 62, 66
2, 49876, Note_on_c, 1, 53, 63
2, 49876, Note_on_c, 1, 65, 70
2, 49892, Note_off_c, 1, 58, 64
2, 49892, Note_off_c, 1, 62, 64
2, 49896, Note_off_c, 1, 53, 64
2, 49996, Control_c, 1, 64, 127
2, 50016, Note_off_c, 1, 65, 0
2, 50044, Note_off_c, 1, 74, 64
2, 50052, Note_off_c, 1, 70, 64
2, 50088, Control_c, 1, 64, 0
2, 50144, Note_on_c, 1, 69, 66
2, 50144, Note_on_c, 1, 57, 67
2, 50144, Note_on_c, 1, 72, 64
2, 50144, Note_on_c, 1, 53, 66
2, 50156, Control_c, 1, 64, 127
2, 50180, Note_off_c, 1, 69, 64
2, 50200, Note_off_c, 1, 72, 64
2, 50248, Control_c, 1, 64, 0
2, 50268, Note_on_c, 1, 74, 75
2, 50268, Note_on_c, 1, 70, 63
2, 50280, Control_c, 1, 64, 127
2, 50300, Note_off_c, 1, 70, 64
2, 50304, Note_off_c, 1, 74, 64
2, 50388, Control_c, 1, 64, 0
2, 50392, Note_on_c, 1, 75, 64
2, 50400, Note_on_c, 1, 72, 64
2, 50408, Control_c, 1, 64, 127
2, 50420, Note_off_c, 1, 75, 64
2, 50420, Note_off_c, 1, 72, 64
2, 50488, Control_c, 1, 64, 0
2, 50508, Note_on_c, 1, 72, 69
2, 50508, Note_on_c, 1, 69, 66
2, 50512, Control_c, 1, 64, 127
2, 50532, Note_off_c, 1, 72, 64
2, 50532, Note_off_c, 1, 69, 64
2, 50560, Note_off_c, 1, 53, 64
2, 50564, Note_off_c, 1, 57, 64
2, 50636, Note_on_c, 1, 51, 48
2, 50636, Note_on_c, 1, 67, 67
2, 50636, Note_on_c, 1, 60, 65
2, 50640, Control_c, 1, 64, 0
2, 50648, Note_on_c, 1, 55, 38
2, 50664, Note_off_c, 1, 67, 64
2, 50664, Note_off_c, 1, 60, 64
2, 50776, Note_on_c, 1, 69, 84
2, 50780, Note_on_c, 1, 61, 68
2, 51044, Note_on_c, 1, 67, 73
2, 51044, Control_c, 1, 64, 127
2, 51060, Note_off_c, 1, 69, 64
2, 51064, Note_off_c, 1, 55, 64
2, 51072, Note_off_c, 1, 51, 0
2, 51080, Note_off_c, 1, 61, 0
2, 51088, Note_off_c, 1, 67, 0
2, 51180, Note_on_c, 1, 66, 69
2, 51180, Note_on_c, 1, 50, 64
2, 51180, Note_on_c, 1, 57, 61
2, 51184, Note_on_c, 1, 62, 56
2, 51184, Control_c, 1, 64, 0
2, 51196, Note_off_c, 1, 50, 64
2, 51196, Note_off_c, 1, 57, 64
2, 51408, Note_on_c, 1, 44, 68
2, 51428, Note_off_c, 1, 44, 64
2, 51428, Note_on_c, 1, 45, 84
2, 51468, Note_off_c, 1, 45, 64
2, 51700, Note_on_c, 1, 38, 76
2, 51712, Control_c, 1, 64, 127
2, 51720, Note_off_c, 1, 38, 64
2, 51788, Note_off_c, 1, 62, 64
2, 51816, Note_off_c, 1, 66, 64
2, 51944, Control_c, 1, 64, 0
2, 51952, Note_on_c, 1, 50, 68
2, 51960, Note_on_c, 1, 62, 86
2, 51972, Control_c, 1, 64, 127
2, 52024, Note_off_c, 1, 62, 64
2, 52196, Note_off_c, 1, 50, 64
2, 52196, Note_on_c, 1, 48, 55
2, 52196, Control_c, 1, 64, 0
2, 52200, Note_on_c, 1, 63, 78
2, 52324, Note_off_c, 1, 63, 0
2, 52328, Note_on_c, 1, 65, 78
2, 52328, Note_on_c, 1, 50, 64
2, 52332, Note_off_c, 1, 48, 0
2, 52452, Note_on_c, 1, 51, 62
2, 52456, Note_on_c, 1, 67, 65
2, 52464, Note_off_c, 1, 50, 64
2, 52468, Note_off_c, 1, 65, 64
2, 52476, Note_off_c, 1, 51, 64
2, 52476, Note_off_c, 1, 67, 64
2, 52592, Note_on_c, 1, 55, 67
2, 52592, Note_on_c, 1, 70, 91
2, 52608, Control_c, 1, 64, 127
2, 52848, Note_off_c, 1, 55, 64
2, 52848, Control_c, 1, 64, 0
2, 52860, Note_off_c, 1, 70, 64
2, 52860, Note_on_c, 1, 72, 75
2, 52860, Note_on_c, 1, 54, 42
2, 52992, Note_on_c, 1, 53, 43
2, 52992, Note_on_c, 1, 74, 69
2, 52996, Note_off_c, 1, 72, 64
2, 53004, Note_off_c, 1, 54, 64
2, 53048, Note_off_c, 1, 53, 64
2, 53064, Note_off_c, 1, 74, 64
2, 53240, Note_on_c, 1, 60, 43
2, 53240, Note_on_c, 1, 75, 64
2, 53376, Note_on_c, 1, 77, 71
2, 53376, Note_on_c, 1, 62, 40
2, 53380, Note_off_c, 1, 75, 64
2, 53384, Note_off_c, 1, 60, 64
2, 53500, Note_on_c, 1, 79, 73
2, 53508, Note_on_c, 1, 63, 37
2, 53512, Note_off_c, 1, 77, 0
2, 53512, Note_off_c, 1, 62, 0
2, 53516, Note_off_c, 1, 79, 64
2, 53516, Note_off_c, 1, 63, 64
2, 53632, Note_on_c, 1, 67, 44
2, 53636, Note_on_c, 1, 82, 60
2, 53644, Control_c, 1, 64, 127
2, 53752, Note_off_c, 1, 82, 64
2, 53812, Note_off_c, 1, 67, 64
2, 53880, Note_on_c, 1, 84, 73
2, 53892, Note_on_c, 1, 66, 39
2, 54016, Control_c, 1, 64, 0
2, 54020, Note_off_c, 1, 66, 64
2, 54028, Note_off_c, 1, 84, 64
2, 54028, Note_on_c, 1, 86, 67
2, 54032, Note_on_c, 1, 65, 38
2, 54048, Control_c, 1, 64, 127
2, 54052, Note_off_c, 1, 86, 64
2, 54080, Note_off_c, 1, 65, 64
2, 54116, Control_c, 1, 64, 0
2, 54284, Note_on_c, 1, 41, 71
2, 54284, Note_on_c, 1, 74, 93
2, 54284, Note_on_c, 1, 65, 81
2, 54284, Control_c, 1, 64, 127
2, 54288, Note_off_c, 1, 41, 64
2, 54296, Note_off_c, 1, 74, 64
2, 54296, Note_off_c, 1, 65, 64
2, 54404, Control_c, 1, 64, 0
2, 54412, Note_on_c, 1, 70, 75
2, 54412, Note_on_c, 1, 62, 73
2, 54528, Note_on_c, 1, 58, 67
2, 54532, Note_off_c, 1, 70, 64
2, 54532, Note_on_c, 1, 53, 80
2, 54536, Note_off_c, 1, 62, 64
2, 54544, Note_off_c, 1, 58, 0
2, 54544, Note_off_c, 1, 53, 64
2, 54656, Note_on_c, 1, 72, 78
2, 54660, Note_on_c, 1, 69, 86
2, 54660, Note_on_c, 1, 63, 66
2, 54784, Control_c, 1, 64, 127
2, 54788, Note_on_c, 1, 41, 76
2, 54800, Note_off_c, 1, 41, 64
2, 54812, Note_off_c, 1, 72, 64
2, 54820, Note_off_c, 1, 69, 64
2, 54908, Note_on_c, 1, 74, 75
2, 54928, Note_off_c, 1, 63, 64
2, 54936, Note_off_c, 1, 74, 64
2, 55032, Note_on_c, 1, 72, 72
2, 55040, Note_on_c, 1, 63, 64
2, 55044, Note_on_c, 1, 53, 68
2, 55044, Note_on_c, 1, 57, 67
2, 55048, Note_on_c, 1, 69, 65
2, 55048, Control_c, 1, 64, 0
2, 55076, Control_c, 1, 64, 127
2, 55112, Note_off_c, 1, 57, 64
2, 55120, Note_off_c, 1, 53, 64
2, 55128, Note_off_c, 1, 63, 64
2, 55128, Note_off_c, 1, 69, 64
2, 55136, Note_off_c, 1, 72, 64
2, 55300, Note_on_c, 1, 70, 64
2, 55300, Control_c, 1, 64, 0
2, 55304, Note_on_c, 1, 53, 66
2, 55304, Note_on_c, 1, 46, 60
2, 55312, Note_on_c, 1, 65, 68
2, 55312, Note_on_c, 1, 62, 61
2, 55316, Note_on_c, 1, 58, 43
2, 55328, Control_c, 1, 64, 127
2, 55356, Note_off_c, 1, 62, 64
2, 55360, Note_off_c, 1, 65, 64
2, 55376, Note_off_c, 1, 70, 64
2, 55436, Note_off_c, 1, 46, 64
2, 55444, Note_off_c, 1, 53, 64
2, 55444, Note_off_c, 1, 58, 64
2, 55556, Control_c, 1, 64, 0
2, 55576, Note_on_c, 1, 77, 86
2, 55632, Note_off_c, 1, 77, 64
2, 55696, Note_on_c, 1, 77, 91
2, 55696, Control_c, 1, 64, 127
2, 55756, Note_off_c, 1, 77, 64
2, 55808, Control_c, 1, 64, 0
2, 55824, Note_on_c, 1, 46, 73
2, 55828, Note_on_c, 1, 79, 96
2, 55832, Note_on_c, 1, 77, 82
2, 55832, Note_on_c, 1, 58, 66
2, 55844, Control_c, 1, 64, 127
2, 55920, Note_off_c, 1, 79, 64
2, 55924, Note_off_c, 1, 77, 64
2, 55940, Note_off_c, 1, 46, 64
2, 55940, Note_off_c, 1, 58, 64
2, 55956, Control_c, 1, 64, 0
2, 56088, Control_c, 1, 64, 127
2, 56096, Note_on_c, 1, 80, 88
2, 56096, Note_on_c, 1, 77, 84
2, 56096, Note_on_c, 1, 47, 80
2, 56096, Note_on_c, 1, 59, 71
2, 56144, Note_off_c, 1, 77, 64
2, 56144, Note_off_c, 1, 47, 64
2, 56144, Note_off_c, 1, 59, 64
2, 56152, Note_off_c, 1, 80, 64
2, 56284, Control_c, 1, 64, 0
2, 56332, Note_on_c, 1, 81, 93
2, 56340, Note_on_c, 1, 48, 76
2, 56340, Note_on_c, 1, 77, 73
2, 56344, Note_on_c, 1, 60, 72
2, 56348, Control_c, 1, 64, 127
2, 56352, Note_off_c, 1, 48, 64
2, 56368, Note_off_c, 1, 60, 64
2, 56408, Note_off_c, 1, 77, 64
2, 56412, Note_off_c, 1, 81, 64
2, 56464, Note_on_c, 1, 82, 76
2, 56468, Note_on_c, 1, 79, 80
2, 56480, Note_off_c, 1, 79, 64
2, 56484, Note_off_c, 1, 82, 64
2, 56588, Note_on_c, 1, 53, 64
2, 56592, Note_on_c, 1, 63, 56
2, 56592, Note_on_c, 1, 84, 81
2, 56592, Note_on_c, 1, 57, 75
2, 56596, Note_on_c, 1, 81, 72
2, 56596, Control_c, 1, 64, 0
2, 56604, Note_off_c, 1, 53, 64
2, 56604, Note_off_c, 1, 63, 64
2, 56604, Note_off_c, 1, 57, 64
2, 56604, Note_off_c, 1, 81, 64
2, 56612, Note_off_c, 1, 84, 64
2, 56712, Note_on_c, 1, 81, 80
2, 56716, Note_on_c, 1, 77, 71
2, 56724, Note_off_c, 1, 81, 64
2, 56732, Note_off_c, 1, 77, 64
2, 56836, Note_on_c, 1, 41, 69
2, 56840, Note_on_c, 1, 75, 76
2, 56840, Control_c, 1, 64, 127
2, 56844, Note_on_c, 1, 72, 75
2, 56848, Note_off_c, 1, 41, 64
2, 56864, Note_off_c, 1, 75, 64
2, 56864, Note_off_c, 1, 72, 64
2, 56984, Note_on_c, 1, 79, 88
2, 56984, Note_on_c, 1, 75, 80
2, 57060, Control_c, 1, 64, 0
2, 57116, Note_on_c, 1, 63, 60
2, 57116, Note_on_c, 1, 57, 78
2, 57120, Note_on_c, 1, 53, 68
2, 57128, Control_c, 1, 64, 127
2, 57132, Note_off_c, 1, 63, 64
2, 57136, Note_off_c, 1, 57, 64
2, 57136, Note_off_c, 1, 53, 64
2, 57144, Note_off_c, 1, 79, 64
2, 57164, Note_off_c, 1, 75, 64
2, 57236, Control_c, 1, 64, 0
2, 57252, Note_on_c, 1, 74, 86
2, 57252, Note_on_c, 1, 77, 86
2, 57380, Note_on_c, 1, 46, 86
2, 57384, Control_c, 1, 64, 127
2, 57400, Note_off_c, 1, 46, 64
2, 57472, Note_off_c, 1, 74, 64
2, 57476, Note_off_c, 1, 77, 64
2, 57508, Note_on_c, 1, 73, 70
2, 57508, Note_on_c, 1, 76, 75
2, 57520, Note_off_c, 1, 73, 64
2, 57544, Note_off_c, 1, 76, 64
2, 57628, Note_on_c, 1, 53, 64
2, 57632, Note_on_c, 1, 77, 76
2, 57632, Note_on_c, 1, 74, 78
2, 57640, Note_on_c, 1, 62, 57
2, 57640, Note_on_c, 1, 58, 52
2, 57648, Note_off_c, 1, 53, 64
2, 57652, Note_off_c, 1, 77, 64
2, 57652, Note_off_c, 1, 74, 64
2, 57652, Note_off_c, 1, 62, 64
2, 57652, Note_off_c, 1, 58, 64
2, 57748, Control_c, 1, 64, 0
2, 57756, Note_on_c, 1, 74, 81
2, 57756, Note_on_c, 1, 70, 78
2, 57892, Note_on_c, 1, 41, 80
2, 57892, Control_c, 1, 64, 127
2, 57896, Note_off_c, 1, 41, 64
2, 58036, Control_c, 1, 64, 0
2, 58160, Note_on_c, 1, 58, 58
2, 58164, Note_on_c, 1, 53, 64
2, 58164, Note_on_c, 1, 65, 75
2, 58164, Note_on_c, 1, 62, 60
2, 58172, Note_off_c, 1, 58, 64
2, 58176, Note_off_c, 1, 62, 64
2, 58184, Note_off_c, 1, 53, 64
2, 58284, Note_off_c, 1, 65, 64
2, 58296, Note_off_c, 1, 74, 0
2, 58312, Note_off_c, 1, 70, 0
2, 58404, Note_on_c, 1, 41, 68
2, 58404, Control_c, 1, 64, 127
2, 58408, Note_on_c, 1, 72, 76
2, 58408, Note_on_c, 1, 69, 78
2, 58412, Note_off_c, 1, 41, 64
2, 58448, Note_off_c, 1, 72, 64
2, 58452, Note_off_c, 1, 69, 64
2, 58532, Note_on_c, 1, 70, 67
2, 58532, Note_on_c, 1, 74, 84
2, 58552, Note_off_c, 1, 70, 64
2, 58560, Note_off_c, 1, 74, 64
2, 58648, Control_c, 1, 64, 0
2, 58652, Note_on_c, 1, 75, 76
2, 58656, Note_on_c, 1, 72, 75
2, 58656, Note_on_c, 1, 53, 71
2, 58660, Note_on_c, 1, 57, 67
2, 58660, Note_on_c, 1, 63, 48
2, 58664, Control_c, 1, 64, 127
2, 58680, Note_off_c, 1, 75, 64
2, 58684, Note_off_c, 1, 72, 64
2, 58704, Note_off_c, 1, 57, 64
2, 58704, Note_off_c, 1, 63, 64
2, 58720, Note_off_c, 1, 53, 64
2, 58780, Note_on_c, 1, 72, 76
2, 58784, Note_on_c, 1, 69, 71
2, 58796, Note_off_c, 1, 72, 64
2, 58800, Note_off_c, 1, 69, 64
2, 58904, Control_c, 1, 64, 0
2, 58912, Note_on_c, 1, 41, 64
2, 58920, Note_on_c, 1, 67, 81
2, 58924, Note_on_c, 1, 63, 68
2, 59024, Note_off_c, 1, 41, 64
2, 59048, Note_on_c, 1, 69, 88
2, 59048, Control_c, 1, 64, 127
2, 59116, Control_c, 1, 64, 0
2, 59188, Note_on_c, 1, 53, 73
2, 59188, Note_on_c, 1, 57, 71
2, 59196, Note_off_c, 1, 69, 0
2, 59200, Note_off_c, 1, 67, 0
2, 59208, Note_off_c, 1, 63, 0
2, 59224, Control_c, 1, 64, 127
2, 59296, Control_c, 1, 64, 0
2, 59312, Note_on_c, 1, 61, 75
2, 59316, Note_on_c, 1, 67, 81
2, 59436, Note_on_c, 1, 46, 80
2, 59444, Note_off_c, 1, 53, 64
2, 59448, Note_off_c, 1, 57, 64
2, 59580, Note_on_c, 1, 49, 41
2, 59704, Note_on_c, 1, 52, 64
2, 59800, Control_c, 1, 64, 127
2, 59828, Note_on_c, 1, 55, 52
2, 59832, Note_off_c, 1, 67, 64
2, 59852, Note_off_c, 1, 61, 64
2, 59964, Note_on_c, 1, 65, 63
2, 59964, Note_on_c, 1, 58, 36
2, 59972, Note_on_c, 1, 62, 56
2, 59972, Control_c, 1, 64, 0
2, 60004, Control_c, 1, 64, 127
2, 60024, Note_off_c, 1, 62, 64
2, 60040, Note_off_c, 1, 65, 64
2, 60072, Note_off_c, 1, 46, 64
2, 60072, Note_off_c, 1, 58, 64
2, 60076, Note_off_c, 1, 52, 64
2, 60076, Note_off_c, 1, 55, 64
2, 60080, Note_off_c, 1, 49, 64
2, 60096, Control_c, 1, 64, 0
2, 60212, Control_c, 1, 64, 127
2, 60220, Note_on_c, 1, 77, 91
2, 60220, Note_on_c, 1, 65, 84
2, 60228, Note_off_c, 1, 77, 64
2, 60228, Note_off_c, 1, 65, 64
2, 60424, Control_c, 1, 64, 0
2, 60460, Note_on_c, 1, 48, 67
2, 60472, Control_c, 1, 64, 127
2, 60476, Note_off_c, 1, 48, 64
2, 60476, Note_on_c, 1, 81, 91
2, 60476, Note_on_c, 1, 77, 80
2, 60532, Note_off_c, 1, 81, 64
2, 60536, Note_off_c, 1, 77, 64
2, 60608, Note_on_c, 1, 82, 84
2, 60608, Note_on_c, 1, 79, 81
2, 60624, Note_off_c, 1, 79, 64
2, 60640, Note_off_c, 1, 82, 64
2, 60732, Note_on_c, 1, 53, 66
2, 60732, Note_on_c, 1, 57, 78
2, 60736, Note_on_c, 1, 84, 86
2, 60740, Note_on_c, 1, 63, 57
2, 60740, Note_on_c, 1, 81, 80
2, 60740, Control_c, 1, 64, 0
2, 60748, Note_off_c, 1, 53, 64
2, 60748, Note_off_c, 1, 57, 64
2, 60748, Note_off_c, 1, 63, 64
2, 60752, Note_off_c, 1, 84, 64
2, 60752, Note_off_c, 1, 81, 64
2, 60864, Note_on_c, 1, 81, 84
2, 60864, Note_on_c, 1, 77, 75
2, 60880, Note_off_c, 1, 81, 64
2, 60884, Note_off_c, 1, 77, 64
2, 60988, Note_on_c, 1, 41, 66
2, 60992, Note_on_c, 1, 75, 68
2, 60992, Note_on_c, 1, 72, 76
2, 61004, Note_off_c, 1, 41, 64
2, 61008, Note_off_c, 1, 75, 64
2, 61012, Note_off_c, 1, 72, 64
2, 61120, Note_on_c, 1, 79, 94
2, 61120, Note_on_c, 1, 75, 86
2, 61256, Note_on_c, 1, 63, 59
2, 61256, Note_on_c, 1, 57, 80
2, 61256, Note_on_c, 1, 53, 71
2, 61264, Note_off_c, 1, 63, 64
2, 61264, Note_off_c, 1, 57, 64
2, 61264, Note_off_c, 1, 53, 64
2, 61340, Note_off_c, 1, 75, 64
2, 61368, Note_off_c, 1, 79, 64
2, 61380, Note_on_c, 1, 74, 86
2, 61380, Note_on_c, 1, 77, 88
2, 61508, Note_on_c, 1, 46, 86
2, 61516, Control_c, 1, 64, 127
2, 61524, Note_off_c, 1, 46, 64
2, 61624, Note_off_c, 1, 74, 0
2, 61624, Note_off_c, 1, 77, 0
2, 61644, Note_on_c, 1, 76, 78
2, 61648, Note_on_c, 1, 73, 70
2, 61660, Note_off_c, 1, 73, 64
2, 61676, Note_off_c, 1, 76, 64
2, 61772, Note_on_c, 1, 58, 58
2, 61772, Note_on_c, 1, 53, 67
2, 61772, Note_on_c, 1, 74, 78
2, 61772, Note_on_c, 1, 62, 64
2, 61772, Note_on_c, 1, 77, 70
2, 61780, Note_off_c, 1, 53, 64
2, 61788, Note_off_c, 1, 58, 64
2, 61788, Note_off_c, 1, 74, 64
2, 61788, Note_off_c, 1, 62, 64
2, 61792, Note_off_c, 1, 77, 64
2, 61900, Note_on_c, 1, 74, 80
2, 61900, Note_on_c, 1, 70, 70
2, 61972, Note_off_c, 1, 70, 64
2, 61992, Note_off_c, 1, 74, 64
2, 62036, Note_on_c, 1, 65, 86
2, 62044, Control_c, 1, 64, 0
2, 62156, Note_on_c, 1, 82, 72
2, 62156, Control_c, 1, 64, 127
2, 62184, Note_off_c, 1, 82, 64
2, 62260, Note_on_c, 1, 63, 52
2, 62276, Note_off_c, 1, 65, 64
2, 62280, Control_c, 1, 64, 0
2, 62284, Note_on_c, 1, 84, 80
2, 62304, Control_c, 1, 64, 127
2, 62324, Note_off_c, 1, 84, 64
2, 62400, Note_off_c, 1, 63, 64
2, 62412, Note_on_c, 1, 85, 66
2, 62424, Note_off_c, 1, 85, 64
2, 62500, Note_on_c, 1, 62, 58
2, 62520, Note_on_c, 1, 66, 36
2, 62524, Note_on_c, 1, 69, 64
2, 62544, Control_c, 1, 64, 0
2, 62548, Note_on_c, 1, 72, 68
2, 62552, Note_on_c, 1, 86, 72
2, 62652, Note_off_c, 1, 86, 64
2, 62672, Note_on_c, 1, 88, 66
2, 62696, Control_c, 1, 64, 127
2, 62728, Note_off_c, 1, 88, 64
2, 62760, Note_off_c, 1, 62, 0
2, 62764, Note_off_c, 1, 66, 0
2, 62768, Note_off_c, 1, 69, 0
2, 62780, Note_off_c, 1, 72, 0
2, 62796, Note_on_c, 1, 90, 69
2, 62808, Note_off_c, 1, 90, 64
2, 62924, Note_on_c, 1, 98, 84
2, 62976, Note_on_c, 1, 69, 68
2, 62992, Note_off_c, 1, 98, 64
2, 63004, Note_on_c, 1, 72, 43
2, 63016, Note_on_c, 1, 74, 60
2, 63020, Control_c, 1, 64, 0
2, 63032, Note_on_c, 1, 78, 80
2, 63044, Note_on_c, 1, 96, 84
2, 63052, Control_c, 1, 64, 127
2, 63076, Note_off_c, 1, 69, 64
2, 63076, Note_off_c, 1, 74, 64
2, 63080, Note_off_c, 1, 72, 64
2, 63096, Note_off_c, 1, 78, 64
2, 63172, Note_on_c, 1, 94, 73
2, 63180, Note_off_c, 1, 96, 64
2, 63196, Note_off_c, 1, 94, 64
2, 63304, Control_c, 1, 64, 0
2, 63308, Note_on_c, 1, 78, 73
2, 63308, Note_on_c, 1, 93, 85
2, 63308, Note_on_c, 1, 72, 70
2, 63308, Note_on_c, 1, 74, 74
2, 63308, Note_on_c, 1, 81, 76
2, 63320, Note_off_c, 1, 78, 64
2, 63320, Control_c, 1, 64, 127
2, 63324, Note_off_c, 1, 81, 64
2, 63332, Note_off_c, 1, 72, 64
2, 63332, Note_off_c, 1, 74, 64
2, 63372, Control_c, 1, 64, 0
2, 63452, Note_off_c, 1, 93, 64
2, 63456, Note_on_c, 1, 98, 78
2, 63584, Control_c, 1, 64, 127
2, 63588, Note_off_c, 1, 98, 64
2, 63588, Note_on_c, 1, 91, 80
2, 63592, Note_on_c, 1, 70, 69
2, 63592, Note_on_c, 1, 79, 76
2, 63592, Note_on_c, 1, 74, 75
2, 63604, Note_off_c, 1, 91, 64
2, 63604, Note_off_c, 1, 70, 64
2, 63604, Note_off_c, 1, 79, 64
2, 63608, Note_off_c, 1, 74, 64
2, 63768, Control_c, 1, 64, 0
2, 63832, Note_on_c, 1, 79, 96
2, 63836, Note_on_c, 1, 43, 81
2, 63836, Note_on_c, 1, 67, 91
2, 63836, Note_on_c, 1, 55, 75
2, 63844, Control_c, 1, 64, 127
2, 63848, Note_off_c, 1, 67, 64
2, 63856, Note_off_c, 1, 79, 64
2, 63856, Note_off_c, 1, 43, 64
2, 63856, Note_off_c, 1, 55, 64
2, 63948, Control_c, 1, 64, 0
2, 63952, Note_on_c, 1, 78, 99
2, 63956, Note_on_c, 1, 66, 91
2, 63956, Note_on_c, 1, 42, 81
2, 63956, Note_on_c, 1, 54, 81
2, 63968, Control_c, 1, 64, 127
2, 63972, Note_off_c, 1, 66, 64
2, 63980, Note_off_c, 1, 78, 64
2, 63980, Note_off_c, 1, 42, 64
2, 63980, Note_off_c, 1, 54, 64
2, 64044, Control_c, 1, 64, 0
2, 64092, Note_on_c, 1, 77, 107
2, 64092, Note_on_c, 1, 65, 93
2, 64092, Note_on_c, 1, 41, 86
2, 64092, Note_on_c, 1, 53, 93
2, 64108, Control_c, 1, 64, 127
2, 64164, Note_off_c, 1, 65, 64
2, 64196, Note_off_c, 1, 77, 64
2, 64308, Control_c, 1, 64, 0
2, 64364, Note_off_c, 1, 53, 64
2, 64364, Note_on_c, 1, 77, 107
2, 64372, Note_off_c, 1, 41, 64
2, 64468, Control_c, 1, 64, 127
2, 64504, Note_off_c, 1, 77, 64
2, 64608, Control_c, 1, 64, 0
2, 64620, Note_on_c, 1, 81, 93
2, 64620, Note_on_c, 1, 48, 91
2, 64620, Note_on_c, 1, 77, 80
2, 64636, Note_off_c, 1, 48, 64
2, 64636, Control_c, 1, 64, 127
2, 64692, Note_off_c, 1, 81, 64
2, 64692, Note_off_c, 1, 77, 64
2, 64740, Note_on_c, 1, 82, 80
2, 64744, Note_on_c, 1, 79, 88
2, 64760, Note_off_c, 1, 82, 64
2, 64764, Note_off_c, 1, 79, 64
2, 64868, Note_on_c, 1, 53, 70
2, 64868, Note_on_c, 1, 63, 56
2, 64868, Note_on_c, 1, 84, 86
2, 64876, Note_on_c, 1, 57, 80
2, 64876, Note_on_c, 1, 81, 80
2, 64876, Control_c, 1, 64, 0
2, 64880, Note_off_c, 1, 63, 64
2, 64880, Note_off_c, 1, 57, 64
2, 64884, Note_off_c, 1, 81, 64
2, 64888, Note_off_c, 1, 53, 64
2, 64888, Note_off_c, 1, 84, 64
2, 64996, Note_on_c, 1, 81, 88
2, 64996, Note_on_c, 1, 77, 75
2, 65008, Note_off_c, 1, 81, 64
2, 65008, Note_off_c, 1, 77, 64
2, 65124, Note_on_c, 1, 75, 76
2, 65124, Note_on_c, 1, 41, 75
2, 65124, Note_on_c, 1, 72, 73
2, 65124, Control_c, 1, 64, 127
2, 65132, Note_off_c, 1, 41, 64
2, 65156, Note_off_c, 1, 75, 64
2, 65164, Note_off_c, 1, 72, 64
2, 65248, Control_c, 1, 64, 0
2, 65256, Note_on_c, 1, 79, 91
2, 65256, Note_on_c, 1, 75, 88
2, 65392, Note_on_c, 1, 53, 81
2, 65392, Note_on_c, 1, 63, 68
2, 65392, Note_on_c, 1, 57, 84
2, 65400, Note_off_c, 1, 57, 64
2, 65404, Note_off_c, 1, 53, 64
2, 65408, Note_off_c, 1, 63, 64
2, 65428, Note_off_c, 1, 79, 64
2, 65436, Note_off_c, 1, 75, 64
2, 65524, Note_on_c, 1, 77, 84
2, 65524, Note_on_c, 1, 74, 86
2, 65648, Note_on_c, 1, 46, 93
2, 65652, Control_c, 1, 64, 127
2, 65664, Note_off_c, 1, 46, 64
2, 65736, Note_off_c, 1, 77, 64
2, 65740, Note_off_c, 1, 74, 64
2, 65788, Note_on_c, 1, 73, 80
2, 65788, Note_on_c, 1, 76, 81
2, 65800, Note_off_c, 1, 73, 64
2, 65812, Note_off_c, 1, 76, 64
2, 65908, Note_on_c, 1, 58, 61
2, 65908, Note_on_c, 1, 77, 75
2, 65908, Note_on_c, 1, 53, 69
2, 65912, Note_on_c, 1, 74, 88
2, 65916, Note_off_c, 1, 58, 64
2, 65920, Note_off_c, 1, 77, 64
2, 65920, Note_off_c, 1, 53, 64
2, 65920, Note_off_c, 1, 74, 64
2, 66028, Note_on_c, 1, 70, 80
2, 66028, Note_on_c, 1, 74, 88
2, 66044, Control_c, 1, 64, 0
2, 66168, Note_on_c, 1, 41, 76
2, 66176, Control_c, 1, 64, 127
2, 66180, Note_off_c, 1, 41, 64
2, 66412, Note_off_c, 1, 70, 0
2, 66428, Control_c, 1, 64, 0
2, 66436, Note_on_c, 1, 62, 66
2, 66436, Note_on_c, 1, 58, 65
2, 66436, Note_on_c, 1, 65, 81
2, 66436, Note_on_c, 1, 53, 68
2, 66452, Control_c, 1, 64, 127
2, 66456, Note_off_c, 1, 62, 64
2, 66460, Note_off_c, 1, 58, 64
2, 66480, Note_off_c, 1, 53, 64
2, 66492, Note_off_c, 1, 65, 64
2, 66500, Note_off_c, 1, 74, 0
2, 66648, Control_c, 1, 64, 0
2, 66680, Note_on_c, 1, 57, 66
2, 66684, Note_on_c, 1, 53, 69
2, 66684, Note_on_c, 1, 72, 76
2, 66684, Note_on_c, 1, 69, 70
2, 66696, Control_c, 1, 64, 127
2, 66752, Note_off_c, 1, 72, 64
2, 66752, Note_off_c, 1, 69, 64
2, 66796, Control_c, 1, 64, 0
2, 66812, Note_on_c, 1, 74, 78
2, 66812, Note_on_c, 1, 70, 68
2, 66824, Control_c, 1, 64, 127
2, 66852, Note_off_c, 1, 70, 64
2, 66856, Note_off_c, 1, 74, 64
2, 66936, Note_on_c, 1, 75, 67
2, 66936, Control_c, 1, 64, 0
2, 66944, Note_on_c, 1, 72, 71
2, 66956, Control_c, 1, 64, 127
2, 66964, Note_off_c, 1, 75, 64
2, 66968, Note_off_c, 1, 72, 64
2, 67044, Control_c, 1, 64, 0
2, 67060, Note_on_c, 1, 69, 69
2, 67060, Note_on_c, 1, 72, 73
2, 67068, Control_c, 1, 64, 127
2, 67076, Note_off_c, 1, 69, 64
2, 67076, Note_off_c, 1, 72, 64
2, 67116, Note_off_c, 1, 57, 64
2, 67124, Note_off_c, 1, 53, 64
2, 67192, Note_on_c, 1, 67, 71
2, 67192, Note_on_c, 1, 51, 60
2, 67192, Note_on_c, 1, 60, 68
2, 67192, Note_on_c, 1, 57, 56
2, 67192, Control_c, 1, 64, 0
2, 67220, Note_off_c, 1, 67, 64
2, 67224, Control_c, 1, 64, 127
2, 67228, Note_off_c, 1, 60, 64
2, 67236, Control_c, 1, 64, 0
2, 67332, Note_on_c, 1, 61, 70
2, 67332, Note_on_c, 1, 69, 91
2, 67584, Note_on_c, 1, 67, 78
2, 67592, Note_off_c, 1, 69, 64
2, 67592, Control_c, 1, 64, 127
2, 67600, Note_off_c, 1, 51, 0
2, 67600, Note_off_c, 1, 57, 0
2, 67644, Note_off_c, 1, 61, 64
2, 67676, Note_on_c, 1, 50, 66
2, 67688, Note_off_c, 1, 67, 64
2, 67704, Control_c, 1, 64, 0
2, 67708, Note_on_c, 1, 57, 71
2, 67720, Note_on_c, 1, 66, 68
2, 67720, Note_on_c, 1, 62, 75
2, 67732, Note_off_c, 1, 57, 64
2, 67736, Note_off_c, 1, 50, 64
2, 67736, Control_c, 1, 64, 127
2, 67752, Control_c, 1, 64, 0
2, 67960, Note_on_c, 1, 44, 68
2, 67980, Note_on_c, 1, 45, 81
2, 68044, Note_off_c, 1, 44, 64
2, 68044, Note_off_c, 1, 45, 64
2, 68244, Note_on_c, 1, 38, 72
2, 68244, Control_c, 1, 64, 127
2, 68252, Note_off_c, 1, 38, 64
2, 68328, Note_off_c, 1, 66, 64
2, 68348, Note_off_c, 1, 62, 64
2, 68496, Note_on_c, 1, 50, 65
2, 68496, Note_on_c, 1, 62, 67
2, 68500, Control_c, 1, 64, 0
2, 68528, Control_c, 1, 64, 127
2, 68576, Note_off_c, 1, 62, 64
2, 68752, Note_on_c, 1, 48, 68
2, 68756, Control_c, 1, 64, 0
2, 68760, Note_off_c, 1, 50, 64
2, 68760, Note_on_c, 1, 63, 67
2, 68876, Note_off_c, 1, 63, 64
2, 68884, Note_on_c, 1, 50, 76
2, 68884, Note_on_c, 1, 65, 71
2, 68904, Note_off_c, 1, 48, 64
2, 69000, Note_on_c, 1, 51, 73
2, 69008, Note_off_c, 1, 50, 64
2, 69008, Note_on_c, 1, 67, 68
2, 69020, Note_off_c, 1, 65, 64
2, 69096, Note_off_c, 1, 67, 64
2, 69128, Note_on_c, 1, 55, 80
2, 69132, Note_off_c, 1, 51, 64
2, 69132, Note_on_c, 1, 70, 72
2, 69392, Note_on_c, 1, 54, 68
2, 69392, Note_on_c, 1, 72, 72
2, 69404, Note_off_c, 1, 55, 64
2, 69404, Note_off_c, 1, 70, 64
2, 69524, Note_off_c, 1, 54, 64
2, 69524, Note_on_c, 1, 53, 64
2, 69528, Note_on_c, 1, 74, 59
2, 69536, Note_off_c, 1, 72, 64
2, 69572, Control_c, 1, 64, 127
2, 69588, Note_off_c, 1, 53, 64
2, 69596, Note_off_c, 1, 74, 64
2, 69776, Note_on_c, 1, 60, 67
2, 69784, Control_c, 1, 64, 0
2, 69808, Note_on_c, 1, 75, 72
2, 69916, Note_off_c, 1, 75, 64
2, 69916, Note_on_c, 1, 77, 78
2, 69916, Note_on_c, 1, 62, 68
2, 69928, Note_off_c, 1, 60, 64
2, 70032, Note_on_c, 1, 79, 76
2, 70040, Note_off_c, 1, 62, 64
2, 70040, Note_on_c, 1, 63, 66
2, 70044, Note_off_c, 1, 77, 64
2, 70104, Note_off_c, 1, 79, 64
2, 70164, Note_off_c, 1, 63, 64
2, 70172, Note_on_c, 1, 67, 80
2, 70180, Note_on_c, 1, 82, 71
2, 70420, Note_off_c, 1, 82, 64
2, 70420, Note_on_c, 1, 84, 64
2, 70420, Note_on_c, 1, 66, 64
2, 70428, Note_off_c, 1, 67, 64
2, 70556, Note_on_c, 1, 65, 53
2, 70568, Note_off_c, 1, 66, 64
2, 70568, Note_on_c, 1, 86, 60
2, 70572, Note_off_c, 1, 84, 64
2, 70608, Note_off_c, 1, 86, 64
2, 70612, Note_off_c, 1, 65, 64
2, 70800, Control_c, 1, 64, 127
2, 70808, Note_on_c, 1, 41, 69
2, 70812, Note_on_c, 1, 74, 91
2, 70816, Note_off_c, 1, 41, 64
2, 70816, Note_on_c, 1, 65, 76
2, 70828, Note_off_c, 1, 74, 64
2, 70828, Note_off_c, 1, 65, 64
2, 70944, Note_on_c, 1, 70, 69
2, 70948, Note_on_c, 1, 62, 75
2, 70960, Control_c, 1, 64, 0
2, 71056, Note_off_c, 1, 62, 64
2, 71064, Note_off_c, 1, 70, 64
2, 71068, Note_on_c, 1, 58, 68
2, 71068, Note_on_c, 1, 53, 80
2, 71084, Note_off_c, 1, 58, 64
2, 71084, Note_off_c, 1, 53, 64
2, 71208, Note_on_c, 1, 72, 76
2, 71208, Note_on_c, 1, 69, 72
2, 71208, Note_on_c, 1, 63, 58
2, 71320, Note_on_c, 1, 41, 59
2, 71324, Control_c, 1, 64, 127
2, 71336, Note_off_c, 1, 69, 64
2, 71340, Note_off_c, 1, 72, 64
2, 71340, Note_off_c, 1, 41, 64
2, 71380, Note_off_c, 1, 63, 64
2, 71444, Note_on_c, 1, 74, 73
2, 71476, Note_off_c, 1, 74, 64
2, 71576, Note_on_c, 1, 72, 64
2, 71576, Note_on_c, 1, 63, 58
2, 71584, Note_on_c, 1, 69, 69
2, 71584, Note_on_c, 1, 53, 60
2, 71584, Note_on_c, 1, 57, 46
2, 71592, Control_c, 1, 64, 0
2, 71612, Control_c, 1, 64, 127
2, 71644, Note_off_c, 1, 57, 64
2, 71656, Note_off_c, 1, 63, 64
2, 71656, Note_off_c, 1, 53, 64
2, 71688, Note_off_c, 1, 72, 64
2, 71696, Note_off_c, 1, 69, 64
2, 71844, Note_on_c, 1, 46, 61
2, 71844, Note_on_c, 1, 70, 53
2, 71848, Note_on_c, 1, 58, 43
2, 71852, Note_on_c, 1, 62, 43
2, 71860, Control_c, 1, 64, 0
2, 71960, Note_on_c, 1, 50, 75
2, 71968, Note_off_c, 1, 46, 0
2, 71980, Note_off_c, 1, 58, 0
2, 72096, Note_off_c, 1, 50, 64
2, 72096, Note_on_c, 1, 51, 78
2, 72116, Control_c, 1, 64, 127
2, 72168, Note_off_c, 1, 70, 0
2, 72200, Control_c, 1, 64, 0
2, 72228, Control_c, 1, 64, 127
2, 72232, Note_on_c, 1, 52, 67
2, 72240, Note_off_c, 1, 51, 64
2, 72248, Note_off_c, 1, 52, 64
2, 72264, Note_off_c, 1, 62, 0
2, 72368, Note_on_c, 1, 63, 68
2, 72368, Note_on_c, 1, 53, 96
2, 72368, Note_on_c, 1, 65, 78
2, 72368, Control_c, 1, 64, 0
2, 72500, Note_on_c, 1, 54, 63
2, 72512, Control_c, 1, 64, 127
2, 72520, Note_off_c, 1, 63, 64
2, 72532, Note_off_c, 1, 65, 64
2, 72624, Note_on_c, 1, 55, 57
2, 72628, Note_off_c, 1, 54, 64
2, 72752, Note_on_c, 1, 57, 67
2, 72760, Note_off_c, 1, 55, 64
2, 72768, Note_off_c, 1, 57, 64
2, 72784, Note_off_c, 1, 53, 64
2, 72888, Control_c, 1, 64, 0
2, 72896, Note_on_c, 1, 46, 58
2, 72904, Note_on_c, 1, 58, 59
2, 72908, Note_on_c, 1, 65, 84
2, 72912, Note_off_c, 1, 46, 64
2, 72924, Note_off_c, 1, 58, 64
2, 73028, Note_off_c, 1, 65, 64
2, 73028, Note_on_c, 1, 70, 75
2, 73148, Note_on_c, 1, 53, 64
2, 73148, Note_on_c, 1, 62, 65
2, 73148, Note_on_c, 1, 74, 80
2, 73152, Note_on_c, 1, 58, 64
2, 73156, Note_off_c, 1, 70, 64
2, 73156, Note_off_c, 1, 58, 64
2, 73160, Note_off_c, 1, 62, 64
2, 73168, Note_off_c, 1, 53, 64
2, 73168, Note_off_c, 1, 74, 64
2, 73280, Note_on_c, 1, 77, 86
2, 73408, Note_on_c, 1, 50, 68
2, 73532, Note_on_c, 1, 70, 76
2, 73544, Note_off_c, 1, 77, 64
2, 73664, Note_off_c, 1, 70, 64
2, 73664, Note_on_c, 1, 58, 60
2, 73668, Note_on_c, 1, 62, 61
2, 73672, Note_on_c, 1, 72, 80
2, 73676, Note_on_c, 1, 53, 54
2, 73712, Note_off_c, 1, 58, 64
2, 73716, Note_off_c, 1, 50, 64
2, 73720, Note_off_c, 1, 62, 64
2, 73720, Note_off_c, 1, 53, 64
2, 73804, Note_on_c, 1, 74, 80
2, 73808, Note_off_c, 1, 72, 0
2, 73936, Note_on_c, 1, 51, 56
2, 73936, Note_on_c, 1, 69, 72
2, 73944, Note_off_c, 1, 74, 64
2, 74064, Note_on_c, 1, 70, 66
2, 74068, Note_off_c, 1, 69, 64
2, 74188, Note_on_c, 1, 67, 80
2, 74196, Note_off_c, 1, 70, 64
2, 74196, Note_on_c, 1, 58, 56
2, 74200, Note_on_c, 1, 63, 45
2, 74204, Note_off_c, 1, 67, 64
2, 74208, Note_off_c, 1, 58, 64
2, 74212, Note_off_c, 1, 63, 64
2, 74220, Note_off_c, 1, 51, 64
2, 74324, Note_on_c, 1, 65, 84
2, 74448, Note_on_c, 1, 50, 60
2, 74452, Note_on_c, 1, 62, 66
2, 74456, Control_c, 1, 64, 127
2, 74508, Note_off_c, 1, 62, 64
2, 74512, Note_off_c, 1, 50, 64
2, 74552, Control_c, 1, 64, 0
2, 74568, Note_off_c, 1, 65, 64
2, 74568, Note_on_c, 1, 66, 78
2, 74692, Note_off_c, 1, 66, 64
2, 74696, Note_on_c, 1, 49, 54
2, 74696, Note_on_c, 1, 61, 57
2, 74700, Note_on_c, 1, 67, 71
2, 74712, Note_off_c, 1, 49, 64
2, 74712, Note_off_c, 1, 61, 64
2, 74824, Note_on_c, 1, 68, 68
2, 74836, Note_off_c, 1, 67, 64
2, 74952, Note_off_c, 1, 68, 0
2, 74960, Note_on_c, 1, 69, 91
2, 74960, Note_on_c, 1, 48, 44
2, 74964, Note_on_c, 1, 60, 44
2, 74972, Note_off_c, 1, 48, 64
2, 74984, Note_off_c, 1, 60, 64
2, 75088, Note_on_c, 1, 72, 67
2, 75212, Note_on_c, 1, 75, 59
2, 75216, Note_off_c, 1, 72, 64
2, 75216, Note_on_c, 1, 53, 52
2, 75216, Note_on_c, 1, 63, 51
2, 75228, Note_off_c, 1, 69, 64
2, 75232, Note_off_c, 1, 75, 64
2, 75240, Note_off_c, 1, 53, 64
2, 75240, Note_off_c, 1, 63, 64
2, 75336, Note_on_c, 1, 79, 91
2, 75336, Note_on_c, 1, 69, 86
2, 75340, Note_on_c, 1, 75, 67
2, 75472, Note_on_c, 1, 41, 69
2, 75476, Note_on_c, 1, 53, 70
2, 75480, Control_c, 1, 64, 127
2, 75488, Note_off_c, 1, 41, 64
2, 75492, Note_off_c, 1, 53, 64
2, 75600, Note_off_c, 1, 79, 64
2, 75604, Note_on_c, 1, 78, 84
2, 75720, Note_off_c, 1, 78, 64
2, 75724, Note_on_c, 1, 53, 71
2, 75728, Note_off_c, 1, 75, 64
2, 75728, Note_on_c, 1, 63, 60
2, 75728, Note_on_c, 1, 77, 88
2, 75732, Note_on_c, 1, 57, 72
2, 75732, Control_c, 1, 64, 0
2, 75744, Note_off_c, 1, 53, 64
2, 75748, Note_off_c, 1, 63, 64
2, 75748, Note_off_c, 1, 57, 64
2, 75884, Control_c, 1, 64, 127
2, 75904, Note_off_c, 1, 69, 64
2, 75944, Note_off_c, 1, 77, 64
2, 75952, Control_c, 1, 64, 0
2, 75984, Note_on_c, 1, 46, 84
2, 75984, Note_on_c, 1, 70, 80
2, 75988, Note_on_c, 1, 58, 75
2, 75988, Control_c, 1, 64, 127
2, 75996, Note_off_c, 1, 46, 64
2, 75996, Note_off_c, 1, 58, 64
2, 76116, Note_on_c, 1, 74, 88
2, 76240, Note_on_c, 1, 53, 72
2, 76240, Note_on_c, 1, 77, 84
2, 76244, Note_on_c, 1, 62, 64
2, 76244, Note_on_c, 1, 58, 60
2, 76244, Control_c, 1, 64, 0
2, 76248, Note_off_c, 1, 74, 64
2, 76256, Note_off_c, 1, 70, 0
2, 76260, Note_off_c, 1, 53, 64
2, 76260, Note_off_c, 1, 77, 64
2, 76260, Note_off_c, 1, 62, 64
2, 76260, Note_off_c, 1, 58, 64
2, 76380, Note_on_c, 1, 79, 88
2, 76384, Note_on_c, 1, 70, 76
2, 76384, Note_on_c, 1, 74, 88
2, 76508, Control_c, 1, 64, 127
2, 76512, Note_on_c, 1, 53, 75
2, 76512, Note_on_c, 1, 41, 66
2, 76528, Note_off_c, 1, 41, 64
2, 76532, Note_off_c, 1, 53, 64
2, 76636, Note_off_c, 1, 79, 64
2, 76636, Note_on_c, 1, 78, 76
2, 76768, Note_off_c, 1, 78, 64
2, 76768, Note_on_c, 1, 62, 64
2, 76768, Note_on_c, 1, 77, 76
2, 76772, Note_on_c, 1, 53, 66
2, 76772, Note_on_c, 1, 58, 54
2, 76772, Control_c, 1, 64, 0
2, 76776, Note_off_c, 1, 70, 64
2, 76776, Note_off_c, 1, 58, 64
2, 76784, Note_off_c, 1, 74, 64
2, 76784, Note_off_c, 1, 62, 64
2, 76784, Note_off_c, 1, 53, 64
2, 76908, Note_off_c, 1, 77, 64
2, 77016, Note_on_c, 1, 46, 65
2, 77016, Control_c, 1, 64, 127
2, 77020, Note_on_c, 1, 65, 72
2, 77028, Note_off_c, 1, 46, 64
2, 77148, Control_c, 1, 64, 0
2, 77152, Note_on_c, 1, 70, 72
2, 77276, Note_on_c, 1, 74, 80
2, 77284, Note_on_c, 1, 58, 59
2, 77284, Note_on_c, 1, 53, 65
2, 77284, Note_on_c, 1, 62, 52
2, 77288, Note_off_c, 1, 70, 64
2, 77296, Note_off_c, 1, 65, 64
2, 77296, Note_off_c, 1, 74, 64
2, 77300, Note_off_c, 1, 58, 64
2, 77300, Note_off_c, 1, 62, 64
2, 77304, Note_off_c, 1, 53, 64
2, 77416, Note_on_c, 1, 77, 84
2, 77544, Note_on_c, 1, 50, 67
2, 77676, Note_on_c, 1, 70, 75
2, 77684, Note_off_c, 1, 77, 64
2, 77808, Note_off_c, 1, 70, 64
2, 77808, Note_on_c, 1, 58, 53
2, 77812, Note_on_c, 1, 62, 56
2, 77812, Note_on_c, 1, 53, 57
2, 77812, Note_on_c, 1, 72, 73
2, 77904, Note_off_c, 1, 50, 64
2, 77904, Note_off_c, 1, 53, 64
2, 77936, Note_off_c, 1, 58, 64
2, 77936, Note_off_c, 1, 72, 64
2, 77936, Note_on_c, 1, 74, 80
2, 78060, Note_off_c, 1, 62, 64
2, 78060, Note_on_c, 1, 51, 45
2, 78060, Note_on_c, 1, 69, 78
2, 78076, Note_off_c, 1, 74, 64
2, 78184, Note_on_c, 1, 70, 69
2, 78200, Note_off_c, 1, 69, 64
2, 78320, Note_on_c, 1, 63, 50
2, 78320, Note_on_c, 1, 58, 43
2, 78320, Note_on_c, 1, 67, 72
2, 78332, Note_off_c, 1, 70, 64
2, 78344, Note_off_c, 1, 58, 64
2, 78344, Note_off_c, 1, 63, 64
2, 78344, Note_off_c, 1, 67, 64
2, 78352, Note_off_c, 1, 51, 64
2, 78452, Note_on_c, 1, 65, 70
2, 78588, Note_on_c, 1, 50, 67
2, 78588, Note_on_c, 1, 62, 48
2, 78600, Note_off_c, 1, 50, 64
2, 78600, Note_off_c, 1, 62, 64
2, 78716, Note_on_c, 1, 67, 80
2, 78724, Control_c, 1, 64, 127
2, 78784, Control_c, 1, 64, 0
2, 78832, Note_off_c, 1, 65, 64
2, 78836, Note_off_c, 1, 67, 64
2, 78860, Note_on_c, 1, 47, 67
2, 78860, Note_on_c, 1, 68, 72
2, 78860, Note_on_c, 1, 65, 67
2, 78860, Note_on_c, 1, 59, 61
2, 78896, Control_c, 1, 64, 127
2, 78956, Note_off_c, 1, 47, 64
2, 78960, Note_off_c, 1, 59, 64
2, 78968, Note_on_c, 1, 74, 80
2, 78972, Note_off_c, 1, 68, 64
2, 78988, Note_off_c, 1, 65, 64
2, 78992, Note_off_c, 1, 74, 64
2, 79088, Note_on_c, 1, 48, 47
2, 79088, Control_c, 1, 64, 0
2, 79092, Note_on_c, 1, 60, 47
2, 79104, Note_on_c, 1, 69, 80
2, 79104, Note_on_c, 1, 65, 73
2, 79120, Note_off_c, 1, 48, 64
2, 79132, Note_off_c, 1, 60, 64
2, 79224, Note_off_c, 1, 69, 64
2, 79224, Note_on_c, 1, 72, 76
2, 79344, Note_on_c, 1, 77, 84
2, 79348, Note_off_c, 1, 72, 64
2, 79352, Note_on_c, 1, 60, 64
2, 79352, Note_on_c, 1, 57, 66
2, 79364, Note_off_c, 1, 65, 64
2, 79364, Note_off_c, 1, 60, 64
2, 79372, Note_off_c, 1, 77, 64
2, 79372, Note_off_c, 1, 57, 64
2, 79472, Note_on_c, 1, 74, 84
2, 79476, Note_on_c, 1, 70, 67
2, 79616, Note_on_c, 1, 48, 75
2, 79616, Control_c, 1, 64, 127
2, 79624, Note_off_c, 1, 48, 64
2, 79728, Note_off_c, 1, 74, 0
2, 79740, Note_on_c, 1, 79, 75
2, 79756, Note_off_c, 1, 79, 64
2, 79868, Note_on_c, 1, 72, 75
2, 79876, Note_on_c, 1, 60, 63
2, 79876, Note_on_c, 1, 64, 64
2, 79880, Note_off_c, 1, 72, 64
2, 79880, Note_on_c, 1, 58, 43
2, 79888, Note_off_c, 1, 70, 0
2, 79888, Note_off_c, 1, 60, 64
2, 79892, Note_off_c, 1, 58, 64
2, 79896, Note_off_c, 1, 64, 64
2, 79996, Note_on_c, 1, 81, 80
2, 80020, Note_off_c, 1, 81, 64
2, 80144, Note_on_c, 1, 77, 84
2, 80148, Note_on_c, 1, 69, 71
2, 80148, Note_on_c, 1, 53, 64
2, 80148, Note_on_c, 1, 57, 63
2, 80148, Note_on_c, 1, 65, 56
2, 80148, Note_on_c, 1, 60, 44
2, 80148, Control_c, 1, 64, 0
2, 80228, Control_c, 1, 64, 127
2, 80240, Note_off_c, 1, 77, 64
2, 80284, Note_off_c, 1, 65, 64
2, 80292, Note_off_c, 1, 60, 64
2, 80296, Note_off_c, 1, 69, 64
2, 80296, Note_off_c, 1, 53, 64
2, 80296, Note_off_c, 1, 57, 64
2, 80304, Control_c, 1, 64, 0
2, 80392, Note_on_c, 1, 75, 81
2, 80460, Note_off_c, 1, 75, 64
2, 80464, Note_on_c, 1, 74, 66
2, 80512, Note_off_c, 1, 74, 64
2, 80524, Note_on_c, 1, 73, 64
2, 80572, Note_off_c, 1, 73, 64
2, 80576, Note_on_c, 1, 72, 68
2, 80612, Note_on_c, 1, 53, 66
2, 80632, Note_on_c, 1, 57, 61
2, 80636, Note_on_c, 1, 71, 76
2, 80648, Note_off_c, 1, 72, 64
2, 80648, Note_on_c, 1, 60, 64
2, 80652, Note_on_c, 1, 63, 65
2, 80708, Note_off_c, 1, 71, 0
2, 80712, Note_on_c, 1, 70, 65
2, 80772, Note_off_c, 1, 70, 64
2, 80772, Note_on_c, 1, 69, 70
2, 80832, Note_on_c, 1, 68, 71
2, 80836, Note_off_c, 1, 69, 64
2, 80904, Note_off_c, 1, 68, 64
2, 80904, Note_on_c, 1, 67, 76
2, 81000, Control_c, 1, 64, 127
2, 81020, Note_on_c, 1, 66, 81
2, 81028, Note_off_c, 1, 67, 64
2, 81040, Note_off_c, 1, 53, 64
2, 81040, Note_off_c, 1, 63, 0
2, 81048, Note_off_c, 1, 57, 64
2, 81052, Note_off_c, 1, 60, 0
2, 81172, Note_off_c, 1, 66, 64
2, 81172, Note_on_c, 1, 46, 71
2, 81172, Control_c, 1, 64, 0
2, 81176, Note_on_c, 1, 65, 78
2, 81204, Note_off_c, 1, 46, 64
2, 81312, Note_on_c, 1, 70, 75
2, 81436, Note_on_c, 1, 53, 70
2, 81436, Note_on_c, 1, 74, 81
2, 81440, Note_off_c, 1, 70, 64
2, 81440, Note_on_c, 1, 58, 62
2, 81444, Note_on_c, 1, 62, 64
2, 81448, Note_off_c, 1, 58, 64
2, 81452, Note_off_c, 1, 53, 64
2, 81452, Note_off_c, 1, 74, 64
2, 81460, Note_off_c, 1, 62, 64
2, 81532, Note_off_c, 1, 65, 64
2, 81564, Note_on_c, 1, 77, 88
2, 81688, Note_on_c, 1, 50, 81
2, 81832, Note_on_c, 1, 70, 75
2, 81856, Note_off_c, 1, 77, 64
2, 81948, Note_off_c, 1, 70, 64
2, 81956, Note_on_c, 1, 58, 56
2, 81956, Note_on_c, 1, 72, 73
2, 81960, Note_on_c, 1, 62, 44
2, 81960, Note_on_c, 1, 53, 43
2, 82072, Note_off_c, 1, 72, 64
2, 82072, Note_on_c, 1, 74, 80
2, 82100, Note_off_c, 1, 53, 64
2, 82104, Note_off_c, 1, 50, 64
2, 82132, Control_c, 1, 64, 127
2, 82188, Control_c, 1, 64, 0
2, 82200, Note_off_c, 1, 58, 64
2, 82200, Note_on_c, 1, 51, 60
2, 82204, Note_on_c, 1, 69, 72
2, 82208, Note_off_c, 1, 74, 64
2, 82224, Note_off_c, 1, 62, 64
2, 82332, Note_off_c, 1, 69, 64
2, 82332, Note_on_c, 1, 70, 68
2, 82452, Note_on_c, 1, 63, 56
2, 82452, Note_on_c, 1, 58, 60
2, 82464, Note_on_c, 1, 67, 72
2, 82472, Note_off_c, 1, 70, 64
2, 82480, Note_off_c, 1, 63, 64
2, 82480, Note_off_c, 1, 58, 64
2, 82488, Note_off_c, 1, 51, 64
2, 82492, Note_off_c, 1, 67, 64
2, 82600, Note_on_c, 1, 65, 71
2, 82720, Note_on_c, 1, 50, 66
2, 82732, Note_on_c, 1, 62, 64
2, 82740, Note_off_c, 1, 50, 64
2, 82744, Note_off_c, 1, 62, 64
2, 82856, Note_on_c, 1, 66, 76
2, 82976, Note_on_c, 1, 67, 80
2, 82980, Note_on_c, 1, 61, 63
2, 82984, Note_off_c, 1, 66, 64
2, 82984, Note_on_c, 1, 49, 62
2, 82992, Note_off_c, 1, 61, 64
2, 82996, Note_off_c, 1, 49, 64
2, 83108, Note_on_c, 1, 68, 76
2, 83112, Note_off_c, 1, 67, 0
2, 83112, Control_c, 1, 64, 127
2, 83140, Note_off_c, 1, 68, 64
2, 83156, Note_off_c, 1, 65, 64
2, 83228, Control_c, 1, 64, 0
2, 83232, Note_on_c, 1, 69, 80
2, 83240, Note_on_c, 1, 48, 64
2, 83240, Note_on_c, 1, 60, 64
2, 83264, Note_off_c, 1, 48, 64
2, 83280, Note_off_c, 1, 60, 64
2, 83376, Note_on_c, 1, 72, 73
2, 83480, Note_off_c, 1, 72, 64
2, 83500, Note_on_c, 1, 75, 68
2, 83504, Note_on_c, 1, 53, 63
2, 83504, Note_on_c, 1, 57, 67
2, 83504, Note_on_c, 1, 63, 55
2, 83512, Note_off_c, 1, 57, 64
2, 83520, Note_off_c, 1, 75, 64
2, 83520, Note_off_c, 1, 53, 64
2, 83520, Note_off_c, 1, 63, 64
2, 83528, Note_off_c, 1, 69, 64
2, 83624, Note_on_c, 1, 75, 81
2, 83624, Note_on_c, 1, 79, 88
2, 83628, Note_on_c, 1, 69, 75
2, 83752, Note_on_c, 1, 41, 72
2, 83768, Note_off_c, 1, 41, 64
2, 83768, Control_c, 1, 64, 127
2, 83868, Control_c, 1, 64, 0
2, 83888, Note_off_c, 1, 79, 64
2, 83888, Note_on_c, 1, 78, 79
2, 83896, Note_off_c, 1, 75, 64
2, 83912, Control_c, 1, 64, 127
2, 84008, Control_c, 1, 64, 0
2, 84012, Note_off_c, 1, 78, 64
2, 84012, Note_on_c, 1, 63, 62
2, 84020, Note_on_c, 1, 77, 75
2, 84020, Note_on_c, 1, 57, 55
2, 84028, Note_off_c, 1, 57, 64
2, 84032, Note_off_c, 1, 63, 64
2, 84140, Note_off_c, 1, 69, 64
2, 84164, Note_off_c, 1, 77, 64
2, 84276, Note_on_c, 1, 46, 60
2, 84276, Note_on_c, 1, 58, 55
2, 84276, Note_on_c, 1, 70, 66
2, 84288, Note_off_c, 1, 46, 64
2, 84288, Note_off_c, 1, 58, 64
2, 84396, Note_on_c, 1, 74, 75
2, 84520, Note_on_c, 1, 77, 73
2, 84524, Note_on_c, 1, 62, 44
2, 84524, Note_on_c, 1, 58, 51
2, 84532, Note_off_c, 1, 74, 64
2, 84532, Note_on_c, 1, 53, 43
2, 84536, Note_off_c, 1, 77, 64
2, 84540, Note_off_c, 1, 70, 64
2, 84548, Note_off_c, 1, 62, 64
2, 84548, Note_off_c, 1, 58, 64
2, 84560, Note_off_c, 1, 53, 64
2, 84656, Note_on_c, 1, 79, 81
2, 84656, Note_on_c, 1, 74, 80
2, 84656, Note_on_c, 1, 70, 64
2, 84800, Note_on_c, 1, 46, 71
2, 84804, Note_on_c, 1, 58, 78
2, 84940, Note_off_c, 1, 79, 64
2, 84940, Note_on_c, 1, 78, 80
2, 84940, Control_c, 1, 64, 127
2, 84944, Note_off_c, 1, 46, 64
2, 84948, Note_off_c, 1, 58, 64
2, 84956, Note_off_c, 1, 74, 64
2, 84956, Note_off_c, 1, 70, 64
2, 84960, Note_off_c, 1, 78, 64
2, 85064, Note_on_c, 1, 47, 73
2, 85064, Note_on_c, 1, 59, 83
2, 85068, Note_on_c, 1, 68, 73
2, 85068, Note_on_c, 1, 74, 87
2, 85068, Note_on_c, 1, 77, 91
2, 85072, Control_c, 1, 64, 0
2, 85152, Control_c, 1, 64, 127
2, 85164, Note_off_c, 1, 74, 64
2, 85188, Note_off_c, 1, 68, 64
2, 85196, Note_off_c, 1, 47, 64
2, 85200, Note_off_c, 1, 59, 64
2, 85200, Note_off_c, 1, 77, 64
2, 85316, Note_on_c, 1, 48, 86
2, 85316, Note_on_c, 1, 60, 86
2, 85316, Note_on_c, 1, 77, 91
2, 85320, Note_on_c, 1, 72, 80
2, 85320, Note_on_c, 1, 67, 81
2, 85324, Control_c, 1, 64, 0
2, 85404, Note_off_c, 1, 48, 0
2, 85416, Note_off_c, 1, 60, 0
2, 85448, Note_on_c, 1, 75, 81
2, 85456, Control_c, 1, 64, 127
2, 85460, Note_off_c, 1, 77, 0
2, 85468, Note_off_c, 1, 72, 0
2, 85484, Note_off_c, 1, 67, 0
2, 85492, Note_off_c, 1, 75, 64
2, 85568, Note_on_c, 1, 55, 88
2, 85568, Note_on_c, 1, 60, 81
2, 85568, Note_on_c, 1, 63, 73
2, 85580, Control_c, 1, 64, 0
2, 85588, Note_off_c, 1, 63, 64
2, 85596, Note_off_c, 1, 55, 64
2, 85596, Note_off_c, 1, 60, 64
2, 85700, Note_on_c, 1, 72, 93
2, 85700, Note_on_c, 1, 79, 108
2, 85700, Note_on_c, 1, 75, 96
2, 85704, Note_on_c, 1, 84, 104
2, 85836, Note_on_c, 1, 39, 93
2, 85836, Note_on_c, 1, 51, 100
2, 85840, Control_c, 1, 64, 127
2, 85852, Note_off_c, 1, 72, 64
2, 85852, Note_off_c, 1, 75, 64
2, 85864, Note_off_c, 1, 79, 64
2, 85864, Note_off_c, 1, 84, 64
2, 85940, Note_off_c, 1, 39, 64
2, 85940, Note_off_c, 1, 51, 64
2, 86100, Note_on_c, 1, 82, 96
2, 86100, Note_on_c, 1, 87, 99
2, 86100, Note_on_c, 1, 75, 91
2, 86104, Control_c, 1, 64, 0
2, 86108, Note_on_c, 1, 42, 95
2, 86108, Note_on_c, 1, 54, 93
2, 86140, Control_c, 1, 64, 127
2, 86188, Note_off_c, 1, 42, 64
2, 86204, Note_off_c, 1, 82, 64
2, 86204, Note_off_c, 1, 87, 64
2, 86204, Note_off_c, 1, 75, 64
2, 86204, Note_off_c, 1, 54, 64
2, 86324, Control_c, 1, 64, 0
2, 86356, Note_on_c, 1, 86, 100
2, 86356, Note_on_c, 1, 82, 100
2, 86356, Note_on_c, 1, 74, 93
2, 86356, Note_on_c, 1, 41, 88
2, 86356, Control_c, 1, 64, 127
2, 86364, Note_on_c, 1, 53, 86
2, 86368, Note_off_c, 1, 86, 64
2, 86368, Note_off_c, 1, 82, 64
2, 86368, Note_off_c, 1, 74, 64
2, 86400, Note_off_c, 1, 41, 64
2, 86408, Note_off_c, 1, 53, 64
2, 86496, Note_on_c, 1, 82, 93
2, 86496, Note_on_c, 1, 74, 96
2, 86500, Note_on_c, 1, 70, 68
2, 86612, Note_off_c, 1, 74, 0
2, 86616, Note_off_c, 1, 82, 0
2, 86616, Note_off_c, 1, 70, 0
2, 86624, Note_on_c, 1, 58, 76
2, 86628, Note_on_c, 1, 62, 76
2, 86628, Note_on_c, 1, 53, 84
2, 86656, Note_off_c, 1, 58, 64
2, 86656, Note_off_c, 1, 62, 64
2, 86676, Note_off_c, 1, 53, 64
2, 86740, Note_on_c, 1, 79, 96
2, 86744, Note_on_c, 1, 71, 93
2, 86744, Control_c, 1, 64, 0
2, 86748, Note_on_c, 1, 67, 88
2, 86868, Note_on_c, 1, 55, 88
2, 86872, Note_on_c, 1, 43, 84
2, 86872, Control_c, 1, 64, 127
2, 86884, Note_off_c, 1, 43, 64
2, 86892, Note_off_c, 1, 55, 64
2, 86932, Note_off_c, 1, 79, 64
2, 86992, Note_on_c, 1, 77, 88
2, 87012, Note_off_c, 1, 71, 64
2, 87012, Note_off_c, 1, 67, 64
2, 87028, Note_off_c, 1, 77, 64
2, 87124, Note_on_c, 1, 74, 96
2, 87128, Note_on_c, 1, 71, 88
2, 87128, Note_on_c, 1, 65, 88
2, 87128, Note_on_c, 1, 55, 80
2, 87128, Note_on_c, 1, 59, 80
2, 87132, Control_c, 1, 64, 0
2, 87184, Control_c, 1, 64, 127
2, 87220, Note_off_c, 1, 55, 64
2, 87220, Note_off_c, 1, 59, 64
2, 87232, Note_off_c, 1, 65, 64
2, 87244, Note_off_c, 1, 74, 64
2, 87244, Note_off_c, 1, 71, 64
2, 87368, Note_on_c, 1, 48, 70
2, 87380, Control_c, 1, 64, 0
2, 87384, Note_on_c, 1, 70, 88
2, 87392, Note_on_c, 1, 74, 97
2, 87392, Note_on_c, 1, 64, 81
2, 87512, Note_off_c, 1, 74, 64
2, 87512, Note_on_c, 1, 72, 80
2, 87524, Control_c, 1, 64, 127
2, 87564, Note_off_c, 1, 70, 64
2, 87628, Note_off_c, 1, 64, 64
2, 87636, Note_off_c, 1, 72, 64
2, 87640, Note_on_c, 1, 58, 68
2, 87640, Note_on_c, 1, 60, 68
2, 87640, Note_on_c, 1, 55, 61
2, 87648, Control_c, 1, 64, 0
2, 87656, Note_off_c, 1, 58, 64
2, 87656, Note_off_c, 1, 60, 64
2, 87656, Note_off_c, 1, 55, 64
2, 87668, Note_off_c, 1, 48, 64
2, 87776, Note_on_c, 1, 77, 96
2, 87780, Note_on_c, 1, 69, 94
2, 87780, Note_on_c, 1, 65, 86
2, 87900, Note_on_c, 1, 41, 78
2, 87908, Control_c, 1, 64, 127
2, 87916, Note_off_c, 1, 41, 64
2, 87996, Note_off_c, 1, 77, 64
2, 88032, Note_on_c, 1, 74, 86
2, 88036, Note_off_c, 1, 69, 64
2, 88040, Note_off_c, 1, 65, 64
2, 88052, Note_off_c, 1, 74, 64
2, 88164, Note_on_c, 1, 63, 73
2, 88168, Note_on_c, 1, 72, 81
2, 88168, Note_on_c, 1, 69, 93
2, 88168, Note_on_c, 1, 57, 72
2, 88168, Note_on_c, 1, 53, 72
2, 88172, Control_c, 1, 64, 0
2, 88212, Control_c, 1, 64, 127
2, 88252, Note_off_c, 1, 69, 64
2, 88252, Note_off_c, 1, 57, 64
2, 88256, Note_off_c, 1, 72, 64
2, 88260, Note_off_c, 1, 63, 64
2, 88264, Note_off_c, 1, 53, 64
2, 88428, Note_on_c, 1, 65, 84
2, 88428, Note_on_c, 1, 70, 76
2, 88428, Note_on_c, 1, 62, 78
2, 88432, Note_on_c, 1, 58, 76
2, 88432, Note_on_c, 1, 46, 73
2, 88432, Control_c, 1, 64, 0
2, 88516, Note_off_c, 1, 58, 64
2, 88520, Note_off_c, 1, 46, 64
2, 88680, Note_off_c, 1, 65, 64
2, 88680, Note_off_c, 1, 62, 64
2, 88688, Note_on_c, 1, 53, 84
2, 88708, Note_off_c, 1, 70, 64
2, 88748, Note_off_c, 1, 53, 64
2, 88940, Note_on_c, 1, 74, 108
2, 88940, Note_on_c, 1, 82, 100
2, 88944, Note_on_c, 1, 70, 100
2, 88944, Note_on_c, 1, 77, 105
2, 88944, Note_on_c, 1, 46, 113
2, 89060, Note_off_c, 1, 74, 64
2, 89064, Note_off_c, 1, 82, 64
2, 89064, Note_off_c, 1, 70, 64
2, 89064, Note_off_c, 1, 77, 64
2, 89064, Note_off_c, 1, 46, 64
2, 89652, Note_on_c, 1, 67, 66
2, 89652, Note_on_c, 1, 62, 56
2, 89652, Note_on_c, 1, 74, 52
2, 89652, Note_on_c, 1, 39, 38
2, 89652, Note_on_c, 1, 51, 44
2, 89664, Control_c, 1, 64, 127
2, 89668, Note_on_c, 1, 46, 38
2, 89680, Note_off_c, 1, 67, 64
2, 89680, Note_off_c, 1, 62, 64
2, 89680, Note_off_c, 1, 74, 64
2, 89792, Note_on_c, 1, 75, 58
2, 89796, Note_on_c, 1, 67, 66
2, 89800, Note_on_c, 1, 63, 43
2, 89816, Note_off_c, 1, 75, 64
2, 89816, Note_off_c, 1, 67, 64
2, 89816, Note_off_c, 1, 63, 64
2, 89820, Note_off_c, 1, 51, 64
2, 89828, Note_off_c, 1, 39, 64
2, 89828, Note_off_c, 1, 46, 64
2, 89920, Note_on_c, 1, 72, 65
2, 89920, Note_on_c, 1, 67, 44
2, 89924, Note_on_c, 1, 63, 56
2, 89924, Note_on_c, 1, 60, 47
2, 89928, Note_on_c, 1, 43, 43
2, 89964, Note_off_c, 1, 72, 64
2, 89964, Note_off_c, 1, 63, 64
2, 89972, Note_off_c, 1, 67, 64
2, 89976, Note_off_c, 1, 60, 64
2, 90056, Note_on_c, 1, 67, 43
2, 90056, Note_on_c, 1, 70, 53
2, 90064, Note_off_c, 1, 43, 64
2, 90064, Note_on_c, 1, 58, 49
2, 90068, Note_on_c, 1, 63, 39
2, 90164, Control_c, 1, 64, 0
2, 90188, Note_off_c, 1, 58, 64
2, 90188, Note_off_c, 1, 63, 64
2, 90188, Note_on_c, 1, 46, 56
2, 90188, Control_c, 1, 64, 127
2, 90192, Note_off_c, 1, 67, 64
2, 90196, Note_off_c, 1, 70, 64
2, 90316, Note_on_c, 1, 69, 72
2, 90316, Note_on_c, 1, 78, 64
2, 90320, Note_on_c, 1, 66, 58
2, 90332, Note_off_c, 1, 69, 64
2, 90336, Note_off_c, 1, 66, 64
2, 90340, Note_off_c, 1, 46, 0
2, 90348, Note_off_c, 1, 78, 64
2, 90452, Note_on_c, 1, 70, 72
2, 90456, Note_on_c, 1, 79, 81
2, 90456, Note_on_c, 1, 67, 70
2, 90456, Note_on_c, 1, 51, 56
2, 90468, Note_off_c, 1, 70, 64
2, 90468, Note_off_c, 1, 67, 64
2, 90472, Note_off_c, 1, 79, 64
2, 90472, Note_off_c, 1, 51, 64
2, 90580, Note_on_c, 1, 82, 80
2, 90584, Note_on_c, 1, 70, 78
2, 90600, Note_off_c, 1, 82, 64
2, 90600, Note_off_c, 1, 70, 64
2, 90708, Control_c, 1, 64, 0
2, 90720, Note_on_c, 1, 86, 88
2, 90720, Note_on_c, 1, 74, 81
2, 90720, Note_on_c, 1, 39, 75
2, 90720, Note_on_c, 1, 79, 84
2, 90724, Note_on_c, 1, 51, 81
2, 90724, Control_c, 1, 64, 127
2, 90732, Note_off_c, 1, 74, 64
2, 90732, Note_off_c, 1, 79, 64
2, 90740, Note_off_c, 1, 86, 64
2, 90744, Note_off_c, 1, 39, 64
2, 90756, Note_off_c, 1, 51, 64
2, 90860, Note_on_c, 1, 82, 78
2, 90860, Note_on_c, 1, 87, 67
2, 90860, Note_on_c, 1, 79, 88
2, 90864, Note_on_c, 1, 75, 65
2, 90876, Note_off_c, 1, 82, 64
2, 90876, Note_off_c, 1, 87, 64
2, 90876, Note_off_c, 1, 79, 64
2, 90876, Note_off_c, 1, 75, 64
2, 90996, Note_on_c, 1, 75, 81
2, 90996, Note_on_c, 1, 79, 80
2, 90996, Note_on_c, 1, 84, 81
2, 90996, Note_on_c, 1, 72, 70
2, 90996, Note_on_c, 1, 55, 66
2, 91024, Note_off_c, 1, 72, 64
2, 91028, Note_off_c, 1, 75, 64
2, 91028, Note_off_c, 1, 84, 64
2, 91032, Note_off_c, 1, 79, 64
2, 91116, Control_c, 1, 64, 0
2, 91124, Note_on_c, 1, 82, 73
2, 91124, Note_on_c, 1, 79, 88
2, 91124, Note_on_c, 1, 70, 68
2, 91128, Note_on_c, 1, 75, 66
2, 91128, Control_c, 1, 64, 127
2, 91184, Note_off_c, 1, 55, 64
2, 91188, Note_off_c, 1, 70, 64
2, 91220, Note_off_c, 1, 79, 64
2, 91220, Note_off_c, 1, 75, 64
2, 91236, Note_off_c, 1, 82, 64
2, 91260, Note_on_c, 1, 58, 68
2, 91392, Note_on_c, 1, 90, 76
2, 91392, Note_on_c, 1, 81, 96
2, 91392, Note_on_c, 1, 78, 67
2, 91404, Note_off_c, 1, 81, 64
2, 91404, Note_off_c, 1, 78, 64
2, 91420, Note_off_c, 1, 90, 64
2, 91532, Note_on_c, 1, 82, 73
2, 91540, Note_on_c, 1, 63, 43
2, 91540, Note_on_c, 1, 91, 76
2, 91540, Note_on_c, 1, 79, 71
2, 91544, Note_off_c, 1, 58, 64
2, 91548, Note_off_c, 1, 82, 64
2, 91548, Note_off_c, 1, 63, 64
2, 91548, Note_off_c, 1, 91, 64
2, 91552, Note_off_c, 1, 79, 64
2, 91552, Control_c, 1, 64, 0
2, 91676, Note_on_c, 1, 80, 91
2, 91676, Note_on_c, 1, 89, 96
2, 91680, Note_on_c, 1, 77, 93
2, 91816, Note_on_c, 1, 56, 71
2, 91816, Control_c, 1, 64, 127
2, 91820, Note_on_c, 1, 44, 68
2, 91824, Note_off_c, 1, 56, 64
2, 91824, Note_off_c, 1, 44, 64
2, 91828, Note_off_c, 1, 80, 64
2, 91828, Note_off_c, 1, 77, 64
2, 91832, Note_off_c, 1, 89, 64
2, 91936, Note_on_c, 1, 87, 73
2, 91940, Note_on_c, 1, 75, 80
2, 91956, Note_off_c, 1, 87, 64
2, 91956, Note_off_c, 1, 75, 64
2, 92084, Note_on_c, 1, 63, 56
2, 92084, Note_on_c, 1, 84, 73
2, 92088, Note_on_c, 1, 56, 41
2, 92088, Note_on_c, 1, 65, 56
2, 92088, Note_on_c, 1, 72, 73
2, 92092, Note_off_c, 1, 63, 64
2, 92096, Note_off_c, 1, 84, 64
2, 92096, Note_off_c, 1, 56, 64
2, 92096, Note_off_c, 1, 65, 64
2, 92096, Note_off_c, 1, 72, 64
2, 92108, Control_c, 1, 64, 0
2, 92216, Note_on_c, 1, 87, 80
2, 92220, Note_on_c, 1, 75, 96
2, 92360, Note_off_c, 1, 87, 0
2, 92360, Note_off_c, 1, 75, 0
2, 92360, Note_on_c, 1, 56, 65
2, 92360, Note_on_c, 1, 44, 67
2, 92360, Control_c, 1, 64, 127
2, 92484, Note_on_c, 1, 77, 88
2, 92492, Note_off_c, 1, 56, 64
2, 92492, Note_off_c, 1, 44, 64
2, 92492, Note_on_c, 1, 65, 86
2, 92496, Note_off_c, 1, 65, 64
2, 92508, Note_off_c, 1, 77, 64
2, 92612, Note_on_c, 1, 57, 67
2, 92612, Note_on_c, 1, 45, 64
2, 92620, Control_c, 1, 64, 0
2, 92632, Note_on_c, 1, 78, 81
2, 92632, Note_on_c, 1, 66, 78
2, 92648, Control_c, 1, 64, 127
2, 92688, Note_off_c, 1, 66, 64
2, 92696, Note_off_c, 1, 57, 64
2, 92704, Note_off_c, 1, 45, 64
2, 92712, Note_off_c, 1, 78, 64
2, 92756, Note_on_c, 1, 79, 78
2, 92760, Note_on_c, 1, 67, 81
2, 92888, Note_on_c, 1, 58, 56
2, 92888, Note_on_c, 1, 46, 68
2, 92888, Control_c, 1, 64, 0
2, 93012, Note_on_c, 1, 75, 75
2, 93012, Note_on_c, 1, 70, 67
2, 93024, Control_c, 1, 64, 127
2, 93028, Note_off_c, 1, 79, 64
2, 93028, Note_off_c, 1, 70, 64
2, 93036, Note_off_c, 1, 67, 64
2, 93036, Note_off_c, 1, 58, 64
2, 93036, Note_off_c, 1, 46, 64
2, 93040, Note_off_c, 1, 75, 64
2, 93156, Note_on_c, 1, 78, 88
2, 93160, Note_on_c, 1, 75, 81
2, 93160, Note_on_c, 1, 66, 78
2, 93160, Note_on_c, 1, 72, 93
2, 93160, Note_on_c, 1, 45, 78
2, 93160, Note_on_c, 1, 57, 75
2, 93172, Control_c, 1, 64, 0
2, 93180, Note_off_c, 1, 57, 64
2, 93184, Note_off_c, 1, 45, 64
2, 93196, Note_off_c, 1, 75, 64
2, 93196, Note_off_c, 1, 72, 64
2, 93204, Note_off_c, 1, 66, 64
2, 93208, Note_off_c, 1, 78, 64
2, 93444, Note_on_c, 1, 70, 62
2, 93444, Note_on_c, 1, 56, 56
2, 93444, Note_on_c, 1, 44, 43
2, 93448, Note_on_c, 1, 74, 72
2, 93448, Note_on_c, 1, 77, 73
2, 93448, Note_on_c, 1, 65, 59
2, 93448, Control_c, 1, 64, 127
2, 93460, Note_off_c, 1, 56, 64
2, 93464, Note_off_c, 1, 44, 64
2, 93548, Note_off_c, 1, 74, 64
2, 93560, Note_off_c, 1, 70, 64
2, 93704, Note_on_c, 1, 34, 68
2, 93704, Control_c, 1, 64, 0
2, 93712, Note_on_c, 1, 68, 80
2, 93712, Note_on_c, 1, 46, 68
2, 93732, Control_c, 1, 64, 127
2, 93752, Note_off_c, 1, 34, 64
2, 93756, Note_off_c, 1, 46, 64
2, 93768, Note_off_c, 1, 77, 64
2, 93780, Note_off_c, 1, 65, 64
2, 93780, Note_off_c, 1, 68, 64
2, 93980, Control_c, 1, 64, 0
2, 93984, Note_on_c, 1, 51, 61
2, 93984, Note_on_c, 1, 39, 59
2, 94000, Note_on_c, 1, 67, 72
2, 94004, Note_on_c, 1, 74, 78
2, 94004, Note_on_c, 1, 62, 61
2, 94008, Control_c, 1, 64, 127
2, 94032, Note_off_c, 1, 39, 64
2, 94032, Note_off_c, 1, 74, 64
2, 94032, Note_off_c, 1, 62, 64
2, 94036, Note_off_c, 1, 51, 64
2, 94040, Note_off_c, 1, 67, 64
2, 94124, Note_on_c, 1, 63, 64
2, 94124, Note_on_c, 1, 75, 68
2, 94128, Note_on_c, 1, 67, 78
2, 94148, Note_off_c, 1, 75, 64
2, 94148, Note_off_c, 1, 67, 64
2, 94156, Note_off_c, 1, 63, 64
2, 94252, Note_on_c, 1, 43, 58
2, 94256, Note_on_c, 1, 72, 72
2, 94256, Note_on_c, 1, 63, 68
2, 94256, Control_c, 1, 64, 0
2, 94276, Control_c, 1, 64, 127
2, 94292, Note_off_c, 1, 72, 64
2, 94292, Note_off_c, 1, 63, 64
2, 94384, Note_off_c, 1, 43, 0
2, 94388, Note_on_c, 1, 70, 60
2, 94388, Note_on_c, 1, 67, 68
2, 94388, Note_on_c, 1, 58, 56
2, 94388, Note_on_c, 1, 63, 56
2, 94424, Control_c, 1, 64, 0
2, 94516, Note_off_c, 1, 58, 64
2, 94516, Note_off_c, 1, 63, 64
2, 94520, Note_off_c, 1, 67, 64
2, 94520, Note_on_c, 1, 46, 69
2, 94520, Control_c, 1, 64, 127
2, 94528, Note_off_c, 1, 70, 64
2, 94548, Note_off_c, 1, 46, 64
2, 94660, Note_on_c, 1, 69, 78
2, 94660, Note_on_c, 1, 78, 71
2, 94664, Note_on_c, 1, 66, 57
2, 94680, Note_off_c, 1, 69, 64
2, 94680, Note_off_c, 1, 66, 64
2, 94696, Note_off_c, 1, 78, 64
2, 94788, Note_on_c, 1, 51, 56
2, 94796, Note_on_c, 1, 79, 88
2, 94800, Note_on_c, 1, 70, 75
2, 94800, Note_on_c, 1, 67, 64
2, 94812, Note_off_c, 1, 79, 64
2, 94812, Note_off_c, 1, 70, 64
2, 94812, Note_off_c, 1, 67, 64
2, 94820, Note_off_c, 1, 51, 64
2, 94936, Note_on_c, 1, 82, 78
2, 94936, Note_on_c, 1, 70, 78
2, 94944, Note_off_c, 1, 70, 64
2, 94952, Note_off_c, 1, 82, 64
2, 95064, Note_on_c, 1, 39, 98
2, 95068, Note_on_c, 1, 86, 81
2, 95068, Note_on_c, 1, 74, 86
2, 95068, Control_c, 1, 64, 0
2, 95072, Note_on_c, 1, 79, 84
2, 95084, Control_c, 1, 64, 127
2, 95092, Note_off_c, 1, 39, 64
2, 95096, Note_off_c, 1, 74, 64
2, 95100, Note_off_c, 1, 86, 64
2, 95100, Note_off_c, 1, 79, 64
2, 95232, Note_on_c, 1, 82, 76
2, 95232, Note_on_c, 1, 87, 70
2, 95232, Note_on_c, 1, 79, 88
2, 95236, Note_on_c, 1, 75, 72
2, 95244, Note_off_c, 1, 79, 64
2, 95248, Note_off_c, 1, 82, 64
2, 95248, Note_off_c, 1, 87, 64
2, 95248, Note_off_c, 1, 75, 64
2, 95356, Note_on_c, 1, 55, 86
2, 95356, Note_on_c, 1, 84, 88
2, 95356, Note_on_c, 1, 75, 66
2, 95356, Note_on_c, 1, 79, 84
2, 95360, Note_on_c, 1, 72, 78
2, 95372, Note_off_c, 1, 75, 64
2, 95384, Note_off_c, 1, 84, 0
2, 95384, Note_off_c, 1, 79, 0
2, 95388, Note_off_c, 1, 72, 0
2, 95480, Note_on_c, 1, 82, 76
2, 95480, Note_on_c, 1, 79, 88
2, 95484, Note_on_c, 1, 70, 73
2, 95484, Note_on_c, 1, 75, 68
2, 95496, Note_off_c, 1, 55, 0
2, 95608, Note_on_c, 1, 58, 80
2, 95628, Note_off_c, 1, 70, 64
2, 95628, Note_off_c, 1, 58, 64
2, 95636, Note_off_c, 1, 75, 64
2, 95644, Note_off_c, 1, 79, 64
2, 95660, Note_off_c, 1, 82, 64
2, 95876, Note_on_c, 1, 82, 84
2, 95876, Note_on_c, 1, 84, 86
2, 95876, Note_on_c, 1, 79, 93
2, 95876, Note_on_c, 1, 72, 93
2, 95876, Note_on_c, 1, 63, 84
2, 95880, Note_on_c, 1, 51, 84
2, 95884, Control_c, 1, 64, 0
2, 95908, Control_c, 1, 64, 127
2, 95940, Note_off_c, 1, 72, 64
2, 95944, Note_off_c, 1, 51, 64
2, 95948, Note_off_c, 1, 84, 64
2, 95948, Note_off_c, 1, 79, 64
2, 95956, Note_off_c, 1, 82, 64
2, 95956, Note_off_c, 1, 63, 64
2, 96140, Control_c, 1, 64, 0
2, 96148, Note_on_c, 1, 62, 80
2, 96148, Note_on_c, 1, 50, 86
2, 96156, Note_on_c, 1, 86, 86
2, 96160, Note_on_c, 1, 79, 91
2, 96160, Note_on_c, 1, 82, 80
2, 96160, Note_on_c, 1, 74, 91
2, 96168, Control_c, 1, 64, 127
2, 96176, Note_off_c, 1, 74, 64
2, 96180, Note_off_c, 1, 50, 64
2, 96180, Note_off_c, 1, 79, 64
2, 96184, Note_off_c, 1, 86, 64
2, 96188, Note_off_c, 1, 82, 64
2, 96192, Note_off_c, 1, 62, 64
2, 96280, Note_on_c, 1, 91, 88
2, 96284, Note_on_c, 1, 79, 84
2, 96300, Note_off_c, 1, 91, 64
2, 96300, Note_off_c, 1, 79, 64
2, 96420, Note_on_c, 1, 67, 71
2, 96420, Note_on_c, 1, 58, 71
2, 96420, Note_on_c, 1, 94, 96
2, 96420, Note_on_c, 1, 62, 70
2, 96424, Note_on_c, 1, 82, 86
2, 96428, Note_off_c, 1, 67, 64
2, 96428, Note_off_c, 1, 62, 64
2, 96432, Note_off_c, 1, 58, 64
2, 96432, Note_off_c, 1, 94, 64
2, 96432, Note_off_c, 1, 82, 64
2, 96556, Note_on_c, 1, 98, 93
2, 96556, Note_on_c, 1, 86, 81
2, 96572, Note_off_c, 1, 86, 64
2, 96576, Note_off_c, 1, 98, 64
2, 96692, Control_c, 1, 64, 0
2, 96696, Note_on_c, 1, 99, 96
2, 96700, Note_on_c, 1, 42, 88
2, 96704, Note_on_c, 1, 54, 93
2, 96704, Note_on_c, 1, 87, 93
2, 96704, Control_c, 1, 64, 127
2, 96724, Note_off_c, 1, 99, 64
2, 96724, Note_off_c, 1, 42, 64
2, 96728, Note_off_c, 1, 54, 64
2, 96728, Note_off_c, 1, 87, 64
2, 96840, Note_on_c, 1, 80, 91
2, 96840, Note_on_c, 1, 92, 81
2, 96852, Note_off_c, 1, 80, 64
2, 96856, Note_off_c, 1, 92, 64
2, 96980, Note_on_c, 1, 93, 86
2, 96988, Note_on_c, 1, 81, 84
2, 96988, Note_on_c, 1, 57, 71
2, 96988, Note_on_c, 1, 62, 66
2, 96992, Note_on_c, 1, 60, 69
2, 96996, Note_off_c, 1, 81, 64
2, 97000, Note_off_c, 1, 93, 64
2, 97004, Note_off_c, 1, 57, 64
2, 97004, Note_off_c, 1, 62, 64
2, 97004, Note_off_c, 1, 60, 64
2, 97112, Note_on_c, 1, 98, 86
2, 97116, Note_on_c, 1, 86, 75
2, 97124, Note_off_c, 1, 98, 64
2, 97128, Note_off_c, 1, 86, 64
2, 97240, Control_c, 1, 64, 0
2, 97244, Note_on_c, 1, 91, 86
2, 97248, Note_on_c, 1, 79, 88
2, 97252, Note_on_c, 1, 43, 80
2, 97252, Note_on_c, 1, 55, 68
2, 97264, Control_c, 1, 64, 127
2, 97272, Note_off_c, 1, 43, 64
2, 97280, Note_off_c, 1, 55, 64
2, 97380, Note_off_c, 1, 79, 64
2, 97384, Note_on_c, 1, 86, 91
2, 97524, Note_on_c, 1, 82, 96
2, 97524, Note_on_c, 1, 67, 72
2, 97524, Note_on_c, 1, 62, 73
2, 97524, Note_on_c, 1, 58, 66
2, 97644, Note_off_c, 1, 91, 64
2, 97652, Note_off_c, 1, 82, 64
2, 97652, Note_on_c, 1, 79, 75
2, 97656, Note_off_c, 1, 86, 64
2, 97668, Note_off_c, 1, 79, 64
2, 97788, Note_on_c, 1, 74, 72
2, 97804, Control_c, 1, 64, 0
2, 97808, Control_c, 1, 64, 127
2, 97820, Note_off_c, 1, 67, 64
2, 97824, Note_off_c, 1, 62, 64
2, 97840, Note_off_c, 1, 58, 64
2, 97848, Control_c, 1, 64, 0
2, 97928, Note_off_c, 1, 74, 64
2, 98068, Note_on_c, 1, 46, 56
2, 98076, Note_on_c, 1, 68, 57
2, 98076, Note_on_c, 1, 74, 64
2, 98076, Note_on_c, 1, 58, 54
2, 98080, Note_on_c, 1, 62, 56
2, 98080, Control_c, 1, 64, 127
2, 98092, Note_off_c, 1, 58, 64
2, 98100, Note_off_c, 1, 46, 64
2, 98128, Note_off_c, 1, 68, 64
2, 98136, Note_off_c, 1, 74, 64
2, 98144, Note_off_c, 1, 62, 64
2, 98328, Note_on_c, 1, 67, 64
2, 98328, Note_on_c, 1, 39, 39
2, 98328, Note_on_c, 1, 74, 64
2, 98328, Note_on_c, 1, 62, 62
2, 98328, Note_on_c, 1, 51, 44
2, 98332, Control_c, 1, 64, 0
2, 98340, Control_c, 1, 64, 127
2, 98364, Note_off_c, 1, 74, 64
2, 98368, Note_off_c, 1, 67, 64
2, 98368, Note_off_c, 1, 62, 64
2, 98456, Note_on_c, 1, 67, 73
2, 98460, Note_on_c, 1, 75, 59
2, 98468, Note_on_c, 1, 63, 58
2, 98484, Note_off_c, 1, 67, 64
2, 98488, Note_off_c, 1, 75, 64
2, 98488, Note_off_c, 1, 63, 64
2, 98600, Note_on_c, 1, 43, 66
2, 98600, Note_on_c, 1, 67, 64
2, 98600, Note_on_c, 1, 72, 68
2, 98604, Note_off_c, 1, 39, 0
2, 98604, Note_off_c, 1, 51, 0
2, 98604, Note_on_c, 1, 60, 56
2, 98604, Note_on_c, 1, 63, 60
2, 98608, Control_c, 1, 64, 0
2, 98624, Control_c, 1, 64, 127
2, 98640, Note_off_c, 1, 72, 64
2, 98644, Note_off_c, 1, 67, 64
2, 98644, Note_off_c, 1, 60, 64
2, 98644, Note_off_c, 1, 63, 64
2, 98732, Control_c, 1, 64, 0
2, 98736, Note_on_c, 1, 67, 68
2, 98736, Note_on_c, 1, 70, 62
2, 98744, Note_on_c, 1, 58, 58
2, 98756, Control_c, 1, 64, 127
2, 98776, Note_off_c, 1, 43, 64
2, 98864, Note_on_c, 1, 63, 36
2, 98868, Control_c, 1, 64, 0
2, 98872, Note_off_c, 1, 58, 64
2, 98876, Note_off_c, 1, 63, 64
2, 98880, Note_off_c, 1, 67, 64
2, 98880, Note_on_c, 1, 46, 76
2, 98884, Note_off_c, 1, 70, 64
2, 98884, Control_c, 1, 64, 127
2, 99008, Note_on_c, 1, 78, 75
2, 99016, Note_on_c, 1, 69, 84
2, 99016, Note_on_c, 1, 66, 64
2, 99024, Note_off_c, 1, 69, 64
2, 99024, Note_off_c, 1, 66, 64
2, 99032, Note_off_c, 1, 46, 64
2, 99032, Note_off_c, 1, 78, 64
2, 99144, Note_on_c, 1, 51, 60
2, 99144, Note_on_c, 1, 70, 73
2, 99148, Note_on_c, 1, 79, 88
2, 99148, Note_on_c, 1, 67, 71
2, 99156, Note_off_c, 1, 70, 64
2, 99160, Note_off_c, 1, 79, 64
2, 99160, Note_off_c, 1, 67, 64
2, 99168, Note_off_c, 1, 51, 64
2, 99272, Note_on_c, 1, 82, 84
2, 99272, Note_on_c, 1, 70, 76
2, 99288, Note_off_c, 1, 82, 64
2, 99288, Note_off_c, 1, 70, 64
2, 99408, Note_on_c, 1, 39, 84
2, 99408, Note_on_c, 1, 86, 91
2, 99408, Control_c, 1, 64, 0
2, 99412, Note_on_c, 1, 74, 91
2, 99412, Note_on_c, 1, 51, 104
2, 99412, Note_on_c, 1, 79, 84
2, 99424, Note_off_c, 1, 74, 0
2, 99424, Control_c, 1, 64, 127
2, 99428, Note_off_c, 1, 79, 0
2, 99440, Note_off_c, 1, 86, 0
2, 99452, Note_off_c, 1, 39, 0
2, 99456, Note_off_c, 1, 51, 0
2, 99544, Note_on_c, 1, 87, 75
2, 99544, Note_on_c, 1, 79, 93
2, 99548, Note_on_c, 1, 75, 72
2, 99552, Note_off_c, 1, 87, 64
2, 99560, Note_off_c, 1, 79, 64
2, 99560, Note_off_c, 1, 75, 64
2, 99668, Note_on_c, 1, 84, 93
2, 99672, Note_on_c, 1, 75, 81
2, 99672, Note_on_c, 1, 79, 88
2, 99672, Note_on_c, 1, 72, 80
2, 99672, Note_on_c, 1, 55, 80
2, 99692, Note_off_c, 1, 84, 64
2, 99692, Note_off_c, 1, 75, 64
2, 99692, Note_off_c, 1, 79, 64
2, 99692, Note_off_c, 1, 72, 64
2, 99800, Note_on_c, 1, 79, 93
2, 99804, Note_off_c, 1, 55, 64
2, 99804, Note_on_c, 1, 82, 81
2, 99804, Note_on_c, 1, 70, 72
2, 99884, Note_on_c, 1, 75, 36
2, 99940, Note_off_c, 1, 70, 64
2, 99944, Note_on_c, 1, 58, 76
2, 99952, Note_off_c, 1, 79, 64
2, 99952, Note_off_c, 1, 75, 64
2, 99956, Note_off_c, 1, 82, 64
2, 100076, Note_on_c, 1, 90, 80
2, 100076, Note_on_c, 1, 81, 81
2, 100080, Note_on_c, 1, 78, 69
2, 100088, Note_off_c, 1, 58, 64
2, 100092, Note_off_c, 1, 78, 64
2, 100096, Note_off_c, 1, 81, 64
2, 100108, Note_off_c, 1, 90, 64
2, 100212, Note_on_c, 1, 82, 91
2, 100212, Note_on_c, 1, 79, 75
2, 100212, Note_on_c, 1, 91, 93
2, 100212, Note_on_c, 1, 63, 66
2, 100224, Note_off_c, 1, 82, 64
2, 100228, Note_off_c, 1, 79, 64
2, 100228, Note_off_c, 1, 91, 64
2, 100228, Note_off_c, 1, 63, 64
2, 100272, Control_c, 1, 64, 0
2, 100352, Note_on_c, 1, 94, 100
2, 100352, Note_on_c, 1, 82, 112
2, 100484, Note_on_c, 1, 40, 93
2, 100484, Note_on_c, 1, 52, 91
2, 100484, Control_c, 1, 64, 127
2, 100500, Note_off_c, 1, 94, 0
2, 100500, Note_off_c, 1, 82, 0
2, 100500, Note_off_c, 1, 40, 64
2, 100504, Note_off_c, 1, 52, 64
2, 100608, Note_on_c, 1, 91, 86
2, 100612, Note_on_c, 1, 79, 91
2, 100628, Note_off_c, 1, 91, 64
2, 100628, Note_off_c, 1, 79, 64
2, 100752, Note_on_c, 1, 88, 86
2, 100752, Note_on_c, 1, 58, 66
2, 100752, Note_on_c, 1, 64, 71
2, 100752, Note_on_c, 1, 76, 86
2, 100756, Note_on_c, 1, 60, 65
2, 100760, Note_off_c, 1, 60, 64
2, 100764, Note_off_c, 1, 88, 64
2, 100772, Note_off_c, 1, 58, 64
2, 100772, Note_off_c, 1, 64, 64
2, 100772, Note_off_c, 1, 76, 64
2, 100884, Note_on_c, 1, 85, 91
2, 100892, Note_on_c, 1, 73, 86
2, 100960, Control_c, 1, 64, 0
2, 101016, Note_on_c, 1, 36, 81
2, 101016, Note_on_c, 1, 48, 84
2, 101020, Control_c, 1, 64, 127
2, 101028, Note_off_c, 1, 36, 64
2, 101028, Note_off_c, 1, 48, 64
2, 101092, Note_off_c, 1, 73, 64
2, 101104, Note_off_c, 1, 85, 64
2, 101152, Note_on_c, 1, 84, 88
2, 101152, Note_on_c, 1, 72, 72
2, 101232, Note_off_c, 1, 84, 64
2, 101232, Note_off_c, 1, 72, 64
2, 101300, Note_on_c, 1, 64, 67
2, 101300, Note_on_c, 1, 58, 54
2, 101304, Note_on_c, 1, 60, 62
2, 101304, Note_on_c, 1, 83, 86
2, 101304, Note_on_c, 1, 71, 78
2, 101308, Note_off_c, 1, 64, 64
2, 101316, Note_off_c, 1, 58, 64
2, 101316, Note_off_c, 1, 60, 64
2, 101336, Note_off_c, 1, 71, 64
2, 101348, Note_off_c, 1, 83, 64
2, 101436, Note_on_c, 1, 84, 93
2, 101440, Note_on_c, 1, 72, 75
2, 101540, Control_c, 1, 64, 0
2, 101568, Note_on_c, 1, 41, 73
2, 101568, Note_on_c, 1, 53, 73
2, 101576, Note_off_c, 1, 72, 0
2, 101576, Control_c, 1, 64, 127
2, 101580, Note_off_c, 1, 84, 0
2, 101588, Note_off_c, 1, 41, 64
2, 101592, Note_off_c, 1, 53, 64
2, 101712, Note_on_c, 1, 85, 68
2, 101712, Note_on_c, 1, 73, 73
2, 101732, Note_off_c, 1, 73, 64
2, 101744, Note_off_c, 1, 85, 64
2, 101840, Note_on_c, 1, 84, 72
2, 101844, Note_on_c, 1, 56, 55
2, 101848, Note_on_c, 1, 65, 51
2, 101848, Note_on_c, 1, 72, 62
2, 101860, Note_off_c, 1, 56, 64
2, 101864, Note_off_c, 1, 65, 64
2, 101868, Note_off_c, 1, 84, 64
2, 101868, Note_off_c, 1, 72, 64
2, 101972, Note_on_c, 1, 83, 72
2, 101972, Note_on_c, 1, 71, 61
2, 102000, Note_off_c, 1, 71, 64
2, 102024, Note_off_c, 1, 83, 64
2, 102108, Note_on_c, 1, 44, 48
2, 102108, Note_on_c, 1, 56, 44
2, 102112, Control_c, 1, 64, 0
2, 102132, Note_on_c, 1, 84, 67
2, 102132, Note_on_c, 1, 72, 66
2, 102136, Control_c, 1, 64, 127
2, 102156, Note_off_c, 1, 44, 64
2, 102168, Note_off_c, 1, 56, 64
2, 102396, Note_on_c, 1, 65, 44
2, 102396, Note_on_c, 1, 56, 47
2, 102396, Note_on_c, 1, 60, 44
2, 102412, Note_off_c, 1, 56, 64
2, 102412, Note_off_c, 1, 60, 64
2, 102416, Note_off_c, 1, 65, 64
2, 102436, Note_off_c, 1, 72, 64
2, 102452, Note_off_c, 1, 84, 64
2, 102524, Control_c, 1, 64, 0
2, 102660, Note_on_c, 1, 90, 100
2, 102664, Note_on_c, 1, 69, 86
2, 102664, Note_on_c, 1, 78, 80
2, 102664, Note_on_c, 1, 75, 88
2, 102664, Note_on_c, 1, 72, 86
2, 102716, Note_off_c, 1, 75, 64
2, 102724, Note_off_c, 1, 78, 64
2, 102724, Note_off_c, 1, 72, 64
2, 102728, Note_off_c, 1, 69, 64
2, 102800, Note_off_c, 1, 90, 64
2, 102800, Note_on_c, 1, 86, 81
2, 102932, Note_on_c, 1, 87, 70
2, 102936, Note_off_c, 1, 86, 64
2, 103068, Note_on_c, 1, 84, 73
2, 103072, Note_off_c, 1, 87, 64
2, 103072, Control_c, 1, 64, 127
2, 103076, Note_off_c, 1, 84, 64
2, 103196, Note_on_c, 1, 66, 86
2, 103196, Note_on_c, 1, 81, 78
2, 103196, Note_on_c, 1, 72, 71
2, 103200, Control_c, 1, 64, 0
2, 103204, Note_on_c, 1, 75, 61
2, 103208, Note_on_c, 1, 78, 56
2, 103332, Note_off_c, 1, 66, 64
2, 103340, Note_on_c, 1, 62, 72
2, 103436, Note_off_c, 1, 81, 64
2, 103436, Note_off_c, 1, 72, 64
2, 103444, Note_off_c, 1, 75, 64
2, 103444, Note_off_c, 1, 62, 64
2, 103448, Note_off_c, 1, 78, 64
2, 103468, Note_on_c, 1, 63, 65
2, 103556, Note_off_c, 1, 63, 0
2, 103588, Note_on_c, 1, 60, 56
2, 103604, Control_c, 1, 64, 127
2, 103620, Note_off_c, 1, 60, 64
2, 103732, Note_on_c, 1, 78, 86
2, 103736, Note_on_c, 1, 60, 69
2, 103740, Note_on_c, 1, 66, 64
2, 103740, Note_on_c, 1, 63, 60
2, 103740, Note_on_c, 1, 57, 57
2, 103740, Control_c, 1, 64, 0
2, 103868, Note_off_c, 1, 78, 64
2, 103868, Note_on_c, 1, 74, 81
2, 103988, Note_off_c, 1, 66, 64
2, 103988, Note_off_c, 1, 63, 64
2, 103992, Note_off_c, 1, 60, 64
2, 104004, Note_off_c, 1, 57, 64
2, 104004, Note_on_c, 1, 75, 68
2, 104012, Note_off_c, 1, 74, 64
2, 104136, Note_on_c, 1, 72, 68
2, 104136, Control_c, 1, 64, 127
2, 104140, Note_off_c, 1, 75, 64
2, 104148, Note_off_c, 1, 72, 64
2, 104260, Note_on_c, 1, 69, 73
2, 104308, Note_on_c, 1, 63, 56
2, 104320, Note_on_c, 1, 60, 54
2, 104328, Note_off_c, 1, 69, 64
2, 104336, Note_off_c, 1, 63, 64
2, 104340, Note_on_c, 1, 54, 58
2, 104340, Control_c, 1, 64, 0
2, 104356, Note_off_c, 1, 60, 64
2, 104360, Note_off_c, 1, 54, 64
2, 104836, Note_on_c, 1, 55, 61
2, 104836, Note_on_c, 1, 58, 61
2, 104840, Note_on_c, 1, 70, 43
2, 104856, Note_off_c, 1, 58, 64
2, 104856, Note_off_c, 1, 70, 64
2, 104976, Note_on_c, 1, 72, 66
2, 104980, Note_on_c, 1, 63, 44
2, 104980, Note_on_c, 1, 60, 42
2, 105096, Note_off_c, 1, 60, 64
2, 105100, Note_off_c, 1, 72, 64
2, 105100, Note_off_c, 1, 63, 64
2, 105188, Note_off_c, 1, 55, 64
2, 105228, Note_on_c, 1, 64, 57
2, 105228, Note_on_c, 1, 70, 54
2, 105236, Note_on_c, 1, 60, 43
2, 105360, Note_on_c, 1, 48, 55
2, 105372, Note_off_c, 1, 70, 64
2, 105492, Note_on_c, 1, 68, 44
2, 105500, Control_c, 1, 64, 127
2, 105516, Note_off_c, 1, 60, 64
2, 105520, Note_off_c, 1, 64, 64
2, 105520, Note_off_c, 1, 68, 0
2, 105644, Note_on_c, 1, 67, 43
2, 105648, Note_on_c, 1, 58, 37
2, 105652, Note_on_c, 1, 64, 41
2, 105652, Control_c, 1, 64, 0
2, 105772, Note_off_c, 1, 67, 64
2, 105772, Note_off_c, 1, 58, 64
2, 105772, Note_off_c, 1, 64, 64
2, 105784, Note_off_c, 1, 48, 64
2, 105916, Note_on_c, 1, 67, 65
2, 105916, Note_on_c, 1, 57, 57
2, 105916, Note_on_c, 1, 63, 54
2, 105916, Note_on_c, 1, 48, 44
2, 105916, Note_on_c, 1, 36, 44
2, 105920, Control_c, 1, 64, 127
2, 105944, Note_off_c, 1, 48, 64
2, 105944, Note_off_c, 1, 36, 64
2, 105960, Note_off_c, 1, 63, 64
2, 106036, Note_on_c, 1, 63, 66
2, 106040, Note_off_c, 1, 67, 64
2, 106052, Note_off_c, 1, 57, 64
2, 106056, Note_off_c, 1, 63, 64
2, 106156, Control_c, 1, 64, 0
2, 106168, Note_on_c, 1, 65, 66
2, 106172, Note_on_c, 1, 62, 66
2, 106172, Note_on_c, 1, 56, 44
2, 106172, Note_on_c, 1, 34, 46
2, 106176, Note_on_c, 1, 46, 43
2, 106204, Note_off_c, 1, 34, 64
2, 106208, Note_off_c, 1, 46, 64
2, 106232, Note_off_c, 1, 62, 64
2, 106244, Note_off_c, 1, 65, 64
2, 106256, Note_off_c, 1, 56, 64
2, 106472, Note_on_c, 1, 63, 44
2, 106472, Note_on_c, 1, 58, 43
2, 106480, Note_on_c, 1, 55, 43
2, 106528, Note_off_c, 1, 63, 0
2, 106532, Note_off_c, 1, 58, 0
2, 106532, Note_off_c, 1, 55, 0
2, 106752, Note_on_c, 1, 70, 112
2, 106760, Control_c, 1, 64, 127
2, 106780, Note_off_c, 1, 70, 64
2, 106948, Control_c, 1, 64, 0
2, 107032, Note_on_c, 1, 74, 108
2, 107036, Note_on_c, 1, 67, 93
2, 107036, Note_on_c, 1, 62, 93
2, 107036, Note_on_c, 1, 39, 93
2, 107040, Control_c, 1, 64, 127
2, 107048, Note_off_c, 1, 62, 64
2, 107052, Note_off_c, 1, 74, 64
2, 107064, Note_off_c, 1, 67, 0
2, 107160, Control_c, 1, 64, 0
2, 107164, Note_on_c, 1, 67, 93
2, 107168, Note_on_c, 1, 75, 84
2, 107168, Note_on_c, 1, 63, 81
2, 107184, Control_c, 1, 64, 127
2, 107188, Note_off_c, 1, 67, 64
2, 107192, Note_off_c, 1, 75, 64
2, 107196, Note_off_c, 1, 63, 64
2, 107232, Note_off_c, 1, 39, 0
2, 107292, Note_on_c, 1, 67, 88
2, 107296, Note_on_c, 1, 63, 86
2, 107296, Note_on_c, 1, 60, 91
2, 107304, Note_on_c, 1, 72, 100
2, 107304, Note_on_c, 1, 43, 84
2, 107308, Control_c, 1, 64, 0
2, 107340, Control_c, 1, 64, 127
2, 107344, Note_off_c, 1, 72, 64
2, 107352, Note_off_c, 1, 67, 64
2, 107352, Note_off_c, 1, 63, 64
2, 107352, Note_off_c, 1, 60, 64
2, 107428, Note_on_c, 1, 67, 91
2, 107428, Control_c, 1, 64, 0
2, 107432, Note_on_c, 1, 70, 75
2, 107436, Note_on_c, 1, 58, 88
2, 107436, Note_on_c, 1, 63, 73
2, 107448, Control_c, 1, 64, 127
2, 107464, Note_off_c, 1, 43, 64
2, 107564, Note_off_c, 1, 58, 64
2, 107564, Note_on_c, 1, 46, 96
2, 107564, Control_c, 1, 64, 0
2, 107568, Note_off_c, 1, 63, 64
2, 107576, Note_off_c, 1, 67, 64
2, 107580, Note_off_c, 1, 70, 64
2, 107704, Note_on_c, 1, 78, 81
2, 107704, Note_on_c, 1, 69, 104
2, 107704, Note_on_c, 1, 66, 78
2, 107704, Control_c, 1, 64, 127
2, 107720, Note_off_c, 1, 69, 64
2, 107728, Note_off_c, 1, 66, 64
2, 107732, Note_off_c, 1, 78, 64
2, 107828, Control_c, 1, 64, 0
2, 107836, Note_on_c, 1, 70, 96
2, 107840, Note_on_c, 1, 79, 104
2, 107840, Note_on_c, 1, 67, 93
2, 107848, Note_on_c, 1, 51, 71
2, 107848, Control_c, 1, 64, 127
2, 107852, Note_off_c, 1, 46, 64
2, 107856, Note_off_c, 1, 70, 64
2, 107856, Note_off_c, 1, 79, 64
2, 107856, Note_off_c, 1, 67, 64
2, 107904, Note_off_c, 1, 51, 64
2, 107968, Note_on_c, 1, 82, 86
2, 107968, Note_on_c, 1, 70, 93
2, 107984, Note_off_c, 1, 70, 64
2, 107988, Note_off_c, 1, 82, 64
2, 108108, Note_on_c, 1, 86, 104
2, 108108, Note_on_c, 1, 27, 96
2, 108108, Note_on_c, 1, 39, 117
2, 108108, Note_on_c, 1, 74, 104
2, 108108, Note_on_c, 1, 79, 104
2, 108108, Control_c, 1, 64, 0
2, 108128, Control_c, 1, 64, 127
2, 108140, Note_off_c, 1, 86, 0
2, 108140, Note_off_c, 1, 27, 0
2, 108140, Note_off_c, 1, 74, 64
2, 108144, Note_off_c, 1, 79, 64
2, 108152, Note_off_c, 1, 39, 64
2, 108252, Note_on_c, 1, 87, 80
2, 108252, Note_on_c, 1, 82, 91
2, 108256, Note_on_c, 1, 79, 104
2, 108256, Note_on_c, 1, 75, 88
2, 108264, Note_off_c, 1, 82, 64
2, 108264, Note_off_c, 1, 79, 64
2, 108272, Note_off_c, 1, 75, 64
2, 108276, Note_off_c, 1, 87, 64
2, 108392, Note_on_c, 1, 84, 93
2, 108392, Note_on_c, 1, 75, 91
2, 108392, Control_c, 1, 64, 0
2, 108396, Note_on_c, 1, 72, 91
2, 108396, Note_on_c, 1, 79, 96
2, 108396, Note_on_c, 1, 55, 96
2, 108404, Control_c, 1, 64, 127
2, 108424, Note_off_c, 1, 84, 64
2, 108424, Note_off_c, 1, 72, 64
2, 108432, Note_off_c, 1, 75, 64
2, 108432, Note_off_c, 1, 79, 64
2, 108528, Note_on_c, 1, 79, 93
2, 108532, Note_on_c, 1, 82, 93
2, 108532, Note_on_c, 1, 70, 88
2, 108532, Note_on_c, 1, 75, 86
2, 108536, Note_off_c, 1, 55, 64
2, 108588, Note_off_c, 1, 70, 64
2, 108608, Note_off_c, 1, 79, 64
2, 108608, Note_off_c, 1, 75, 64
2, 108620, Note_off_c, 1, 82, 64
2, 108672, Note_on_c, 1, 58, 93
2, 108800, Note_on_c, 1, 90, 81
2, 108804, Note_on_c, 1, 81, 112
2, 108804, Note_on_c, 1, 78, 84
2, 108820, Note_off_c, 1, 81, 64
2, 108828, Note_off_c, 1, 78, 64
2, 108832, Note_off_c, 1, 90, 64
2, 108920, Control_c, 1, 64, 0
2, 108936, Note_on_c, 1, 63, 78
2, 108936, Note_on_c, 1, 82, 96
2, 108936, Note_on_c, 1, 91, 100
2, 108940, Note_on_c, 1, 79, 93
2, 108948, Note_off_c, 1, 58, 64
2, 108952, Note_off_c, 1, 63, 64
2, 108952, Note_off_c, 1, 82, 64
2, 108952, Note_off_c, 1, 91, 64
2, 108952, Note_off_c, 1, 79, 64
2, 109072, Note_on_c, 1, 89, 121
2, 109072, Note_on_c, 1, 80, 112
2, 109072, Note_on_c, 1, 77, 104
2, 109196, Note_on_c, 1, 44, 108
2, 109196, Note_on_c, 1, 56, 93
2, 109200, Control_c, 1, 64, 127
2, 109212, Note_off_c, 1, 89, 0
2, 109212, Note_off_c, 1, 77, 0
2, 109212, Note_off_c, 1, 44, 64
2, 109216, Note_off_c, 1, 80, 0
2, 109216, Note_off_c, 1, 56, 64
2, 109340, Note_on_c, 1, 87, 91
2, 109344, Note_on_c, 1, 75, 84
2, 109348, Note_off_c, 1, 87, 64
2, 109352, Note_off_c, 1, 75, 64
2, 109464, Note_on_c, 1, 84, 86
2, 109468, Note_on_c, 1, 56, 63
2, 109468, Note_on_c, 1, 72, 84
2, 109468, Note_on_c, 1, 60, 65
2, 109472, Note_on_c, 1, 63, 63
2, 109472, Note_on_c, 1, 65, 69
2, 109476, Note_off_c, 1, 72, 64
2, 109476, Note_off_c, 1, 63, 64
2, 109476, Note_off_c, 1, 65, 64
2, 109484, Note_off_c, 1, 84, 64
2, 109484, Note_off_c, 1, 56, 64
2, 109488, Note_off_c, 1, 60, 64
2, 109500, Control_c, 1, 64, 0
2, 109592, Note_on_c, 1, 87, 108
2, 109596, Note_on_c, 1, 75, 100
2, 109740, Control_c, 1, 64, 127
2, 109748, Note_off_c, 1, 87, 64
2, 109748, Note_off_c, 1, 75, 64
2, 109748, Note_on_c, 1, 32, 92
2, 109756, Note_on_c, 1, 44, 100
2, 109888, Note_on_c, 1, 77, 104
2, 109888, Note_on_c, 1, 65, 100
2, 109920, Note_off_c, 1, 65, 64
2, 109928, Note_off_c, 1, 44, 64
2, 109936, Note_off_c, 1, 32, 64
2, 109944, Note_off_c, 1, 77, 64
2, 110016, Note_on_c, 1, 45, 102
2, 110020, Note_on_c, 1, 33, 100
2, 110020, Note_on_c, 1, 78, 107
2, 110020, Note_on_c, 1, 66, 88
2, 110028, Control_c, 1, 64, 0
2, 110060, Control_c, 1, 64, 127
2, 110072, Note_off_c, 1, 66, 64
2, 110080, Note_off_c, 1, 78, 64
2, 110160, Note_off_c, 1, 45, 64
2, 110160, Note_on_c, 1, 67, 86
2, 110160, Note_on_c, 1, 79, 112
2, 110164, Note_off_c, 1, 33, 64
2, 110288, Note_on_c, 1, 34, 103
2, 110288, Note_on_c, 1, 46, 115
2, 110288, Control_c, 1, 64, 0
2, 110424, Note_on_c, 1, 75, 93
2, 110424, Note_on_c, 1, 70, 81
2, 110424, Control_c, 1, 64, 127
2, 110432, Note_off_c, 1, 67, 64
2, 110432, Note_off_c, 1, 79, 64
2, 110436, Note_off_c, 1, 34, 64
2, 110436, Note_off_c, 1, 70, 64
2, 110444, Note_off_c, 1, 46, 64
2, 110444, Note_off_c, 1, 75, 64
2, 110560, Note_on_c, 1, 75, 112
2, 110564, Note_on_c, 1, 72, 108
2, 110564, Note_on_c, 1, 66, 108
2, 110564, Note_on_c, 1, 33, 104
2, 110564, Note_on_c, 1, 45, 104
2, 110564, Note_on_c, 1, 78, 104
2, 110580, Control_c, 1, 64, 0
2, 110644, Note_off_c, 1, 45, 64
2, 110656, Note_off_c, 1, 72, 64
2, 110656, Note_off_c, 1, 75, 64
2, 110668, Note_off_c, 1, 33, 64
2, 110672, Note_off_c, 1, 78, 64
2, 110676, Note_off_c, 1, 66, 64
2, 110832, Note_on_c, 1, 74, 108
2, 110832, Note_on_c, 1, 77, 108
2, 110836, Note_on_c, 1, 70, 100
2, 110836, Note_on_c, 1, 65, 104
2, 110836, Note_on_c, 1, 32, 91
2, 110836, Note_on_c, 1, 44, 88
2, 110848, Control_c, 1, 64, 127
2, 110908, Note_off_c, 1, 44, 64
2, 110924, Note_off_c, 1, 32, 64
2, 110948, Note_off_c, 1, 74, 64
2, 110956, Note_off_c, 1, 70, 64
2, 111124, Note_on_c, 1, 46, 112
2, 111124, Note_on_c, 1, 68, 108
2, 111124, Note_on_c, 1, 34, 81
2, 111140, Control_c, 1, 64, 0
2, 111176, Control_c, 1, 64, 127
2, 111240, Note_off_c, 1, 77, 64
2, 111240, Note_off_c, 1, 68, 0
2, 111252, Note_off_c, 1, 65, 64
2, 111272, Note_off_c, 1, 34, 0
2, 111284, Note_off_c, 1, 46, 0
2, 111404, Note_on_c, 1, 67, 100
2, 111404, Note_on_c, 1, 70, 84
2, 111404, Note_on_c, 1, 74, 100
2, 111404, Note_on_c, 1, 39, 96
2, 111408, Note_on_c, 1, 51, 100
2, 111408, Note_on_c, 1, 62, 93
2, 111408, Control_c, 1, 64, 0
2, 111436, Control_c, 1, 64, 127
2, 111440, Note_off_c, 1, 74, 64
2, 111444, Note_off_c, 1, 62, 64
2, 111452, Note_off_c, 1, 67, 64
2, 111456, Note_off_c, 1, 70, 64
2, 111544, Note_off_c, 1, 39, 64
2, 111548, Note_off_c, 1, 51, 64
2, 111548, Note_on_c, 1, 75, 80
2, 111548, Note_on_c, 1, 67, 86
2, 111548, Note_on_c, 1, 63, 80
2, 111548, Note_on_c, 1, 70, 76
2, 111564, Note_off_c, 1, 70, 64
2, 111572, Note_off_c, 1, 67, 64
2, 111576, Note_off_c, 1, 75, 64
2, 111576, Note_off_c, 1, 63, 64
2, 111680, Note_on_c, 1, 72, 93
2, 111684, Note_on_c, 1, 67, 91
2, 111684, Note_on_c, 1, 63, 81
2, 111684, Note_on_c, 1, 43, 104
2, 111684, Note_on_c, 1, 60, 80
2, 111692, Control_c, 1, 64, 0
2, 111712, Control_c, 1, 64, 127
2, 111724, Note_off_c, 1, 72, 64
2, 111728, Note_off_c, 1, 63, 64
2, 111732, Note_off_c, 1, 60, 64
2, 111736, Note_off_c, 1, 67, 64
2, 111824, Note_off_c, 1, 43, 64
2, 111824, Note_on_c, 1, 67, 92
2, 111824, Note_on_c, 1, 70, 87
2, 111824, Note_on_c, 1, 58, 87
2, 111828, Note_on_c, 1, 63, 78
2, 111948, Control_c, 1, 64, 0
2, 111952, Note_on_c, 1, 46, 96
2, 111964, Note_off_c, 1, 58, 64
2, 111964, Note_off_c, 1, 63, 64
2, 111968, Control_c, 1, 64, 127
2, 111972, Note_off_c, 1, 67, 64
2, 111972, Note_off_c, 1, 70, 64
2, 112088, Note_on_c, 1, 78, 82
2, 112088, Note_on_c, 1, 69, 104
2, 112088, Note_on_c, 1, 66, 86
2, 112108, Note_off_c, 1, 46, 64
2, 112108, Note_off_c, 1, 69, 64
2, 112108, Note_off_c, 1, 66, 64
2, 112120, Note_off_c, 1, 78, 64
2, 112224, Note_on_c, 1, 70, 81
2, 112224, Note_on_c, 1, 79, 93
2, 112228, Note_on_c, 1, 67, 91
2, 112228, Note_on_c, 1, 51, 76
2, 112236, Note_off_c, 1, 70, 64
2, 112236, Note_off_c, 1, 79, 64
2, 112240, Note_off_c, 1, 67, 64
2, 112240, Note_off_c, 1, 51, 64
2, 112352, Note_on_c, 1, 82, 93
2, 112360, Note_on_c, 1, 70, 91
2, 112372, Note_off_c, 1, 82, 64
2, 112372, Note_off_c, 1, 70, 64
2, 112492, Note_on_c, 1, 27, 99
2, 112496, Note_on_c, 1, 39, 112
2, 112496, Note_on_c, 1, 74, 93
2, 112496, Note_on_c, 1, 86, 96
2, 112496, Note_on_c, 1, 79, 100
2, 112500, Note_on_c, 1, 82, 84
2, 112500, Control_c, 1, 64, 0
2, 112528, Control_c, 1, 64, 127
2, 112532, Note_off_c, 1, 27, 64
2, 112540, Note_off_c, 1, 74, 64
2, 112540, Note_off_c, 1, 86, 64
2, 112540, Note_off_c, 1, 79, 64
2, 112540, Note_off_c, 1, 82, 64
2, 112544, Note_off_c, 1, 39, 64
2, 112640, Note_on_c, 1, 87, 80
2, 112644, Note_on_c, 1, 75, 100
2, 112644, Note_on_c, 1, 79, 108
2, 112644, Note_on_c, 1, 82, 84
2, 112652, Note_off_c, 1, 75, 64
2, 112652, Note_off_c, 1, 79, 64
2, 112652, Note_off_c, 1, 82, 64
2, 112664, Note_off_c, 1, 87, 64
2, 112768, Note_on_c, 1, 84, 96
2, 112768, Note_on_c, 1, 75, 108
2, 112768, Note_on_c, 1, 79, 104
2, 112772, Note_on_c, 1, 55, 96
2, 112772, Note_on_c, 1, 72, 108
2, 112796, Note_off_c, 1, 84, 64
2, 112800, Note_off_c, 1, 75, 64
2, 112800, Note_off_c, 1, 79, 64
2, 112800, Note_off_c, 1, 72, 64
2, 112896, Note_on_c, 1, 79, 104
2, 112904, Note_on_c, 1, 82, 91
2, 112904, Note_on_c, 1, 70, 84
2, 112904, Note_on_c, 1, 75, 81
2, 112912, Note_off_c, 1, 55, 64
2, 113032, Note_on_c, 1, 58, 96
2, 113032, Control_c, 1, 64, 0
2, 113044, Control_c, 1, 64, 127
2, 113092, Note_off_c, 1, 58, 64
2, 113328, Note_on_c, 1, 82, 96
2, 113328, Note_on_c, 1, 84, 104
2, 113328, Note_on_c, 1, 79, 104
2, 113328, Note_on_c, 1, 72, 100
2, 113332, Note_on_c, 1, 51, 96
2, 113332, Note_on_c, 1, 63, 91
2, 113340, Note_off_c, 1, 70, 64
2, 113340, Note_off_c, 1, 75, 64
2, 113340, Control_c, 1, 64, 0
2, 113344, Note_off_c, 1, 79, 64
2, 113360, Note_off_c, 1, 82, 64
2, 113380, Note_off_c, 1, 72, 64
2, 113388, Note_off_c, 1, 79, 64
2, 113388, Note_off_c, 1, 51, 64
2, 113392, Note_off_c, 1, 82, 64
2, 113392, Note_off_c, 1, 84, 64
2, 113392, Note_off_c, 1, 63, 64
2, 113584, Control_c, 1, 64, 127
2, 113588, Note_on_c, 1, 86, 91
2, 113588, Note_on_c, 1, 62, 88
2, 113588, Note_on_c, 1, 50, 100
2, 113592, Note_on_c, 1, 82, 93
2, 113592, Note_on_c, 1, 79, 104
2, 113592, Note_on_c, 1, 74, 93
2, 113604, Note_off_c, 1, 74, 64
2, 113608, Note_off_c, 1, 62, 64
2, 113612, Note_off_c, 1, 50, 64
2, 113612, Note_off_c, 1, 79, 64
2, 113616, Note_off_c, 1, 86, 64
2, 113616, Note_off_c, 1, 82, 64
2, 113712, Note_on_c, 1, 91, 86
2, 113720, Note_on_c, 1, 79, 91
2, 113724, Note_off_c, 1, 79, 64
2, 113732, Note_off_c, 1, 91, 64
2, 113844, Note_on_c, 1, 67, 78
2, 113844, Note_on_c, 1, 82, 108
2, 113844, Note_on_c, 1, 94, 104
2, 113848, Note_on_c, 1, 62, 81
2, 113848, Note_on_c, 1, 58, 73
2, 113856, Note_off_c, 1, 67, 64
2, 113856, Note_off_c, 1, 82, 64
2, 113856, Note_off_c, 1, 94, 64
2, 113856, Note_off_c, 1, 62, 64
2, 113860, Note_off_c, 1, 58, 64
2, 113984, Note_on_c, 1, 98, 88
2, 113992, Note_on_c, 1, 86, 84
2, 113996, Note_off_c, 1, 86, 64
2, 114000, Note_off_c, 1, 98, 64
2, 114100, Control_c, 1, 64, 0
2, 114120, Control_c, 1, 64, 127
2, 114128, Note_on_c, 1, 99, 104
2, 114128, Note_on_c, 1, 54, 96
2, 114128, Note_on_c, 1, 87, 104
2, 114128, Note_on_c, 1, 42, 96
2, 114136, Note_off_c, 1, 99, 64
2, 114144, Note_off_c, 1, 87, 64
2, 114144, Note_off_c, 1, 42, 64
2, 114148, Note_off_c, 1, 54, 64
2, 114268, Note_on_c, 1, 92, 93
2, 114272, Note_on_c, 1, 80, 81
2, 114280, Note_off_c, 1, 92, 64
2, 114284, Note_off_c, 1, 80, 64
2, 114388, Note_on_c, 1, 93, 100
2, 114392, Note_on_c, 1, 81, 91
2, 114396, Note_on_c, 1, 57, 80
2, 114396, Note_on_c, 1, 60, 76
2, 114396, Note_on_c, 1, 62, 72
2, 114404, Note_off_c, 1, 93, 64
2, 114404, Note_off_c, 1, 81, 64
2, 114408, Note_off_c, 1, 57, 64
2, 114408, Note_off_c, 1, 60, 64
2, 114416, Note_off_c, 1, 62, 64
2, 114520, Note_on_c, 1, 98, 81
2, 114520, Note_on_c, 1, 86, 86
2, 114528, Note_off_c, 1, 98, 64
2, 114536, Note_off_c, 1, 86, 64
2, 114648, Note_on_c, 1, 91, 96
2, 114652, Note_on_c, 1, 79, 104
2, 114652, Note_on_c, 1, 55, 70
2, 114652, Note_on_c, 1, 43, 71
2, 114652, Control_c, 1, 64, 0
2, 114672, Control_c, 1, 64, 127
2, 114680, Note_off_c, 1, 43, 64
2, 114692, Note_off_c, 1, 55, 64
2, 114792, Note_on_c, 1, 86, 96
2, 114800, Note_off_c, 1, 79, 64
2, 114924, Note_on_c, 1, 82, 108
2, 114924, Note_on_c, 1, 67, 75
2, 114924, Note_on_c, 1, 62, 78
2, 114932, Note_on_c, 1, 58, 71
2, 114936, Control_c, 1, 64, 0
2, 114940, Control_c, 1, 64, 127
2, 115064, Note_off_c, 1, 86, 64
2, 115064, Note_off_c, 1, 82, 64
2, 115064, Note_on_c, 1, 79, 86
2, 115072, Note_off_c, 1, 91, 64
2, 115096, Note_off_c, 1, 79, 64
2, 115204, Note_on_c, 1, 74, 100
2, 115208, Control_c, 1, 64, 0
2, 115232, Control_c, 1, 64, 127
2, 115252, Note_off_c, 1, 62, 64
2, 115252, Note_off_c, 1, 67, 64
2, 115256, Note_off_c, 1, 74, 64
2, 115272, Note_off_c, 1, 58, 64
2, 115348, Control_c, 1, 64, 0
2, 115432, Control_c, 1, 64, 126
2, 115436, Note_on_c, 1, 46, 58
2, 115444, Note_on_c, 1, 62, 59
2, 115448, Note_off_c, 1, 46, 64
2, 115448, Note_on_c, 1, 58, 60
2, 115456, Note_on_c, 1, 68, 58
2, 115460, Note_off_c, 1, 58, 64
2, 115480, Note_on_c, 1, 74, 77
2, 115536, Note_off_c, 1, 62, 64
2, 115540, Note_off_c, 1, 68, 64
2, 115584, Note_off_c, 1, 74, 64
2, 115708, Control_c, 1, 64, 0
2, 115768, Note_on_c, 1, 39, 57
2, 115768, Note_on_c, 1, 67, 72
2, 115768, Note_on_c, 1, 51, 46
2, 115768, Note_on_c, 1, 74, 70
2, 115772, Note_on_c, 1, 62, 64
2, 115780, Control_c, 1, 64, 127
2, 115796, Note_off_c, 1, 67, 64
2, 115796, Note_off_c, 1, 74, 64
2, 115800, Note_off_c, 1, 62, 64
2, 115884, Control_c, 1, 64, 0
2, 115892, Note_on_c, 1, 67, 75
2, 115900, Note_on_c, 1, 75, 67
2, 115900, Note_on_c, 1, 63, 63
2, 115908, Control_c, 1, 64, 127
2, 115916, Note_off_c, 1, 67, 64
2, 115916, Note_off_c, 1, 75, 64
2, 115916, Note_off_c, 1, 63, 64
2, 116028, Note_off_c, 1, 39, 64
2, 116028, Note_off_c, 1, 51, 64
2, 116036, Note_on_c, 1, 43, 44
2, 116036, Note_on_c, 1, 63, 70
2, 116036, Note_on_c, 1, 67, 73
2, 116040, Note_on_c, 1, 72, 70
2, 116040, Note_on_c, 1, 60, 63
2, 116040, Control_c, 1, 64, 0
2, 116056, Control_c, 1, 64, 127
2, 116072, Note_off_c, 1, 63, 64
2, 116080, Note_off_c, 1, 67, 64
2, 116080, Note_off_c, 1, 72, 64
2, 116080, Note_off_c, 1, 60, 64
2, 116164, Control_c, 1, 64, 0
2, 116176, Note_on_c, 1, 67, 68
2, 116176, Note_on_c, 1, 58, 62
2, 116176, Note_on_c, 1, 70, 57
2, 116184, Control_c, 1, 64, 127
2, 116192, Note_off_c, 1, 43, 64
2, 116208, Note_on_c, 1, 63, 36
2, 116280, Note_off_c, 1, 58, 64
2, 116296, Note_off_c, 1, 63, 64
2, 116300, Note_off_c, 1, 67, 64
2, 116300, Note_on_c, 1, 46, 70
2, 116304, Note_off_c, 1, 70, 64
2, 116304, Control_c, 1, 64, 0
2, 116316, Control_c, 1, 64, 127
2, 116436, Note_on_c, 1, 78, 70
2, 116444, Note_on_c, 1, 69, 80
2, 116444, Note_on_c, 1, 66, 64
2, 116452, Note_off_c, 1, 69, 64
2, 116456, Note_off_c, 1, 66, 64
2, 116460, Note_off_c, 1, 78, 64
2, 116576, Note_on_c, 1, 51, 65
2, 116580, Note_on_c, 1, 70, 76
2, 116584, Note_on_c, 1, 79, 88
2, 116584, Note_on_c, 1, 67, 71
2, 116596, Note_off_c, 1, 70, 64
2, 116596, Note_off_c, 1, 67, 64
2, 116600, Note_off_c, 1, 79, 64
2, 116612, Note_off_c, 1, 46, 0
2, 116708, Note_off_c, 1, 51, 64
2, 116708, Note_on_c, 1, 82, 78
2, 116708, Note_on_c, 1, 70, 73
2, 116724, Note_off_c, 1, 82, 64
2, 116728, Note_off_c, 1, 70, 64
2, 116836, Control_c, 1, 64, 0
2, 116840, Note_on_c, 1, 39, 88
2, 116844, Note_on_c, 1, 86, 84
2, 116844, Note_on_c, 1, 79, 93
2, 116844, Note_on_c, 1, 74, 86
2, 116860, Control_c, 1, 64, 127
2, 116868, Note_off_c, 1, 74, 64
2, 116872, Note_off_c, 1, 86, 64
2, 116876, Note_off_c, 1, 79, 64
2, 116880, Note_off_c, 1, 39, 64
2, 116980, Note_on_c, 1, 87, 75
2, 116980, Note_on_c, 1, 82, 80
2, 116988, Note_on_c, 1, 79, 88
2, 116988, Note_on_c, 1, 75, 66
2, 116996, Note_off_c, 1, 79, 64
2, 117000, Note_off_c, 1, 75, 64
2, 117004, Note_off_c, 1, 87, 64
2, 117004, Note_off_c, 1, 82, 64
2, 117112, Note_on_c, 1, 84, 88
2, 117116, Note_on_c, 1, 75, 76
2, 117116, Note_on_c, 1, 72, 72
2, 117116, Note_on_c, 1, 79, 84
2, 117120, Note_on_c, 1, 55, 86
2, 117144, Note_off_c, 1, 84, 64
2, 117144, Note_off_c, 1, 75, 64
2, 117144, Note_off_c, 1, 72, 64
2, 117144, Note_off_c, 1, 79, 64
2, 117244, Note_on_c, 1, 82, 80
2, 117244, Note_on_c, 1, 79, 86
2, 117244, Note_on_c, 1, 70, 76
2, 117248, Note_on_c, 1, 75, 78
2, 117260, Note_off_c, 1, 55, 64
2, 117388, Note_on_c, 1, 58, 81
2, 117400, Note_off_c, 1, 70, 64
2, 117400, Note_off_c, 1, 75, 64
2, 117412, Note_off_c, 1, 79, 64
2, 117416, Note_off_c, 1, 82, 64
2, 117524, Note_on_c, 1, 90, 84
2, 117532, Note_on_c, 1, 81, 86
2, 117532, Note_on_c, 1, 78, 73
2, 117544, Note_off_c, 1, 81, 64
2, 117544, Note_off_c, 1, 78, 64
2, 117552, Note_off_c, 1, 58, 0
2, 117556, Note_off_c, 1, 90, 64
2, 117660, Note_on_c, 1, 82, 84
2, 117664, Note_on_c, 1, 91, 88
2, 117664, Note_on_c, 1, 79, 75
2, 117664, Note_on_c, 1, 63, 55
2, 117668, Note_off_c, 1, 91, 64
2, 117672, Note_off_c, 1, 82, 64
2, 117672, Note_off_c, 1, 79, 64
2, 117684, Note_off_c, 1, 63, 64
2, 117792, Control_c, 1, 64, 0
2, 117808, Note_on_c, 1, 82, 100
2, 117808, Note_on_c, 1, 94, 104
2, 117920, Note_on_c, 1, 48, 104
2, 117928, Note_on_c, 1, 36, 104
2, 117928, Control_c, 1, 64, 127
2, 117936, Note_off_c, 1, 82, 64
2, 117936, Note_off_c, 1, 36, 64
2, 117940, Note_off_c, 1, 94, 64
2, 117940, Note_off_c, 1, 48, 64
2, 118060, Note_on_c, 1, 91, 96
2, 118060, Note_on_c, 1, 79, 80
2, 118108, Note_off_c, 1, 91, 64
2, 118112, Note_off_c, 1, 79, 64
2, 118192, Note_on_c, 1, 88, 93
2, 118192, Note_on_c, 1, 58, 69
2, 118192, Note_on_c, 1, 76, 91
2, 118192, Note_on_c, 1, 61, 66
2, 118200, Note_on_c, 1, 64, 70
2, 118208, Note_off_c, 1, 88, 64
2, 118208, Note_off_c, 1, 58, 64
2, 118208, Note_off_c, 1, 76, 64
2, 118212, Note_off_c, 1, 61, 64
2, 118212, Note_off_c, 1, 64, 64
2, 118324, Note_on_c, 1, 85, 93
2, 118324, Note_on_c, 1, 73, 104
2, 118440, Control_c, 1, 64, 0
2, 118452, Note_on_c, 1, 36, 104
2, 118452, Note_on_c, 1, 48, 88
2, 118456, Control_c, 1, 64, 127
2, 118464, Note_off_c, 1, 36, 64
2, 118472, Note_off_c, 1, 48, 64
2, 118532, Note_off_c, 1, 73, 0
2, 118536, Note_off_c, 1, 85, 0
2, 118592, Note_on_c, 1, 72, 84
2, 118596, Note_on_c, 1, 84, 91
2, 118656, Note_off_c, 1, 84, 64
2, 118660, Note_off_c, 1, 72, 64
2, 118728, Note_on_c, 1, 58, 64
2, 118728, Note_on_c, 1, 61, 60
2, 118728, Note_on_c, 1, 64, 68
2, 118732, Note_on_c, 1, 83, 88
2, 118732, Note_on_c, 1, 71, 88
2, 118744, Note_off_c, 1, 58, 64
2, 118744, Note_off_c, 1, 61, 64
2, 118744, Note_off_c, 1, 64, 64
2, 118748, Note_off_c, 1, 71, 64
2, 118756, Note_off_c, 1, 83, 64
2, 118864, Note_on_c, 1, 72, 88
2, 118868, Note_on_c, 1, 84, 84
2, 118972, Control_c, 1, 64, 0
2, 118988, Note_on_c, 1, 53, 86
2, 118988, Note_on_c, 1, 41, 86
2, 119000, Control_c, 1, 64, 127
2, 119004, Note_off_c, 1, 41, 64
2, 119008, Note_off_c, 1, 53, 64
2, 119016, Note_off_c, 1, 72, 64
2, 119020, Note_off_c, 1, 84, 64
2, 119116, Note_on_c, 1, 85, 80
2, 119116, Note_on_c, 1, 73, 80
2, 119144, Note_off_c, 1, 85, 64
2, 119148, Note_off_c, 1, 73, 64
2, 119244, Note_on_c, 1, 65, 70
2, 119248, Note_on_c, 1, 56, 58
2, 119248, Note_on_c, 1, 60, 64
2, 119252, Note_on_c, 1, 84, 88
2, 119252, Note_on_c, 1, 72, 80
2, 119260, Note_off_c, 1, 65, 64
2, 119264, Note_off_c, 1, 56, 64
2, 119264, Note_off_c, 1, 60, 64
2, 119288, Note_off_c, 1, 84, 64
2, 119288, Note_off_c, 1, 72, 64
2, 119392, Note_on_c, 1, 83, 78
2, 119396, Note_on_c, 1, 71, 84
2, 119440, Note_off_c, 1, 71, 64
2, 119464, Note_off_c, 1, 83, 64
2, 119516, Note_on_c, 1, 72, 96
2, 119516, Control_c, 1, 64, 0
2, 119524, Note_on_c, 1, 44, 81
2, 119536, Control_c, 1, 64, 127
2, 119580, Note_off_c, 1, 44, 64
2, 119608, Note_on_c, 1, 84, 52
2, 119620, Note_off_c, 1, 72, 64
2, 119652, Note_on_c, 1, 72, 65
2, 119664, Note_off_c, 1, 84, 64
2, 119696, Note_on_c, 1, 84, 69
2, 119700, Note_off_c, 1, 72, 64
2, 119728, Note_off_c, 1, 84, 64
2, 119728, Note_on_c, 1, 72, 66
2, 119772, Note_on_c, 1, 84, 76
2, 119776, Note_off_c, 1, 72, 64
2, 119804, Note_off_c, 1, 84, 64
2, 119804, Note_on_c, 1, 56, 61
2, 119808, Note_on_c, 1, 65, 68
2, 119808, Note_on_c, 1, 60, 67
2, 119808, Note_on_c, 1, 72, 86
2, 119848, Note_off_c, 1, 56, 64
2, 119864, Note_off_c, 1, 65, 64
2, 119864, Note_off_c, 1, 60, 64
2, 119884, Note_off_c, 1, 72, 64
2, 119984, Control_c, 1, 64, 0
2, 120060, Note_on_c, 1, 90, 112
2, 120064, Note_on_c, 1, 69, 93
2, 120064, Note_on_c, 1, 78, 80
2, 120064, Note_on_c, 1, 72, 86
2, 120068, Note_on_c, 1, 75, 76
2, 120068, Control_c, 1, 64, 127
2, 120080, Note_off_c, 1, 75, 64
2, 120096, Note_off_c, 1, 69, 64
2, 120096, Note_off_c, 1, 78, 64
2, 120100, Note_off_c, 1, 72, 64
2, 120184, Control_c, 1, 64, 0
2, 120188, Note_off_c, 1, 90, 64
2, 120200, Note_on_c, 1, 86, 84
2, 120336, Note_off_c, 1, 86, 64
2, 120336, Note_on_c, 1, 87, 75
2, 120448, Control_c, 1, 64, 127
2, 120456, Note_off_c, 1, 87, 64
2, 120456, Note_on_c, 1, 84, 75
2, 120472, Note_off_c, 1, 84, 64
2, 120536, Note_on_c, 1, 81, 68
2, 120548, Note_on_c, 1, 78, 73
2, 120564, Note_on_c, 1, 75, 81
2, 120572, Note_on_c, 1, 72, 88
2, 120572, Note_on_c, 1, 66, 104
2, 120576, Control_c, 1, 64, 0
2, 120712, Note_off_c, 1, 66, 64
2, 120720, Note_on_c, 1, 62, 93
2, 120808, Note_off_c, 1, 78, 64
2, 120820, Note_off_c, 1, 72, 64
2, 120824, Note_off_c, 1, 81, 64
2, 120824, Note_off_c, 1, 62, 64
2, 120836, Note_off_c, 1, 75, 64
2, 120856, Note_on_c, 1, 63, 81
2, 120928, Note_off_c, 1, 63, 64
2, 120992, Note_on_c, 1, 60, 72
2, 120996, Control_c, 1, 64, 127
2, 121008, Note_off_c, 1, 60, 64
2, 121128, Note_on_c, 1, 78, 104
2, 121128, Note_on_c, 1, 66, 69
2, 121128, Note_on_c, 1, 57, 71
2, 121128, Note_on_c, 1, 60, 75
2, 121136, Note_on_c, 1, 63, 68
2, 121136, Control_c, 1, 64, 0
2, 121140, Note_off_c, 1, 63, 64
2, 121200, Note_off_c, 1, 66, 64
2, 121204, Note_off_c, 1, 60, 64
2, 121256, Note_off_c, 1, 78, 64
2, 121256, Note_off_c, 1, 57, 64
2, 121260, Note_on_c, 1, 74, 88
2, 121384, Control_c, 1, 64, 127
2, 121392, Note_on_c, 1, 75, 73
2, 121396, Note_off_c, 1, 74, 64
2, 121508, Note_on_c, 1, 72, 70
2, 121512, Note_off_c, 1, 75, 64
2, 121544, Note_off_c, 1, 72, 0
2, 121544, Note_on_c, 1, 69, 70
2, 121588, Note_off_c, 1, 69, 64
2, 121588, Note_on_c, 1, 63, 78
2, 121600, Control_c, 1, 64, 0
2, 121620, Note_on_c, 1, 60, 78
2, 121624, Note_off_c, 1, 63, 64
2, 121648, Note_off_c, 1, 60, 64
2, 121656, Note_on_c, 1, 54, 80
2, 121700, Note_off_c, 1, 54, 64
2, 122200, Note_on_c, 1, 70, 66
2, 122200, Note_on_c, 1, 55, 42
2, 122204, Note_on_c, 1, 58, 43
2, 122204, Control_c, 1, 64, 127
2, 122224, Note_off_c, 1, 58, 64
2, 122232, Note_off_c, 1, 70, 64
2, 122336, Note_on_c, 1, 72, 68
2, 122336, Note_on_c, 1, 63, 55
2, 122344, Note_on_c, 1, 60, 54
2, 122356, Control_c, 1, 64, 0
2, 122436, Control_c, 1, 64, 127
2, 122456, Note_off_c, 1, 63, 64
2, 122460, Note_off_c, 1, 72, 64
2, 122460, Note_off_c, 1, 60, 64
2, 122496, Control_c, 1, 64, 0
2, 122596, Note_on_c, 1, 70, 63
2, 122596, Note_on_c, 1, 64, 64
2, 122596, Note_on_c, 1, 60, 52
2, 122604, Control_c, 1, 64, 127
2, 122608, Note_off_c, 1, 55, 64
2, 122720, Control_c, 1, 64, 0
2, 122724, Note_on_c, 1, 48, 43
2, 122740, Note_off_c, 1, 70, 64
2, 122756, Control_c, 1, 64, 127
2, 122844, Note_on_c, 1, 68, 60
2, 122868, Note_off_c, 1, 64, 64
2, 122868, Note_off_c, 1, 60, 64
2, 122884, Note_off_c, 1, 68, 64
2, 123000, Note_on_c, 1, 67, 58
2, 123000, Note_on_c, 1, 64, 58
2, 123000, Note_on_c, 1, 58, 52
2, 123004, Control_c, 1, 64, 0
2, 123044, Control_c, 1, 64, 127
2, 123088, Note_off_c, 1, 48, 64
2, 123120, Note_off_c, 1, 64, 64
2, 123124, Note_off_c, 1, 58, 64
2, 123132, Note_off_c, 1, 67, 64
2, 123260, Control_c, 1, 64, 0
2, 123268, Note_on_c, 1, 48, 45
2, 123272, Note_on_c, 1, 36, 48
2, 123272, Note_on_c, 1, 67, 61
2, 123272, Note_on_c, 1, 57, 53
2, 123272, Note_on_c, 1, 63, 54
2, 123288, Control_c, 1, 64, 127
2, 123304, Note_off_c, 1, 63, 64
2, 123308, Note_off_c, 1, 48, 64
2, 123320, Note_off_c, 1, 36, 64
2, 123396, Note_on_c, 1, 63, 60
2, 123412, Note_off_c, 1, 67, 64
2, 123416, Note_off_c, 1, 57, 64
2, 123428, Note_off_c, 1, 63, 64
2, 123528, Note_on_c, 1, 65, 46
2, 123528, Control_c, 1, 64, 0
2, 123536, Note_on_c, 1, 62, 43
2, 123536, Note_on_c, 1, 56, 43
2, 123536, Note_on_c, 1, 34, 43
2, 123540, Note_on_c, 1, 46, 42
2, 123560, Note_off_c, 1, 46, 64
2, 123568, Note_off_c, 1, 34, 64
2, 123568, Control_c, 1, 64, 127
2, 123576, Control_c, 1, 64, 0
2, 123580, Note_off_c, 1, 62, 0
2, 123592, Note_off_c, 1, 65, 0
2, 123596, Note_off_c, 1, 56, 0
2, 123784, Note_on_c, 1, 63, 41
2, 123792, Note_on_c, 1, 51, 52
2, 123792, Note_on_c, 1, 39, 40
2, 123792, Note_on_c, 1, 55, 44
2, 123800, Note_on_c, 1, 46, 42
2, 123820, Note_off_c, 1, 51, 64
2, 123820, Note_off_c, 1, 46, 64
2, 123832, Note_off_c, 1, 39, 64
2, 123836, Note_off_c, 1, 63, 64
2, 123840, Note_off_c, 1, 55, 64
2, 124072, Note_on_c, 1, 34, 108
2, 124076, Note_on_c, 1, 46, 117
2, 124084, Note_off_c, 1, 34, 64
2, 124084, Note_off_c, 1, 46, 64
2, 124252, Note_on_c, 1, 72, 69
2, 124288, Note_off_c, 1, 72, 64
2, 124292, Note_on_c, 1, 73, 75
2, 124344, Note_off_c, 1, 73, 64
2, 124352, Note_on_c, 1, 53, 93
2, 124352, Note_on_c, 1, 41, 91
2, 124352, Note_on_c, 1, 74, 108
2, 124356, Control_c, 1, 64, 127
2, 124364, Note_off_c, 1, 53, 64
2, 124364, Note_off_c, 1, 41, 64
2, 124424, Note_off_c, 1, 74, 64
2, 124600, Note_on_c, 1, 82, 84
2, 124600, Note_on_c, 1, 74, 93
2, 124604, Note_on_c, 1, 70, 71
2, 124604, Note_on_c, 1, 56, 64
2, 124604, Note_on_c, 1, 77, 81
2, 124608, Note_on_c, 1, 62, 70
2, 124608, Note_on_c, 1, 58, 64
2, 124620, Note_off_c, 1, 58, 64
2, 124624, Note_off_c, 1, 56, 64
2, 124624, Note_off_c, 1, 62, 64
2, 124656, Note_off_c, 1, 82, 64
2, 124664, Note_off_c, 1, 70, 64
2, 124728, Note_on_c, 1, 81, 86
2, 124740, Note_on_c, 1, 69, 75
2, 124756, Note_off_c, 1, 69, 64
2, 124768, Note_off_c, 1, 74, 64
2, 124768, Note_off_c, 1, 81, 64
2, 124772, Note_off_c, 1, 77, 64
2, 124864, Note_on_c, 1, 82, 81
2, 124864, Note_on_c, 1, 70, 81
2, 124864, Control_c, 1, 64, 0
2, 124868, Note_on_c, 1, 74, 100
2, 124868, Note_on_c, 1, 77, 91
2, 124868, Note_on_c, 1, 46, 88
2, 124868, Note_on_c, 1, 34, 81
2, 124880, Control_c, 1, 64, 127
2, 124908, Note_off_c, 1, 34, 64
2, 124912, Note_off_c, 1, 46, 64
2, 124932, Note_off_c, 1, 82, 64
2, 124936, Note_off_c, 1, 70, 64
2, 125008, Note_on_c, 1, 81, 86
2, 125008, Note_on_c, 1, 69, 80
2, 125020, Note_off_c, 1, 69, 64
2, 125024, Note_off_c, 1, 74, 64
2, 125028, Note_off_c, 1, 77, 64
2, 125028, Note_off_c, 1, 81, 64
2, 125136, Control_c, 1, 64, 0
2, 125140, Note_on_c, 1, 82, 86
2, 125144, Note_on_c, 1, 74, 104
2, 125144, Note_on_c, 1, 77, 93
2, 125144, Note_on_c, 1, 70, 86
2, 125144, Note_on_c, 1, 56, 71
2, 125148, Note_on_c, 1, 62, 80
2, 125152, Note_on_c, 1, 58, 73
2, 125152, Control_c, 1, 64, 127
2, 125164, Note_off_c, 1, 56, 64
2, 125164, Note_off_c, 1, 62, 64
2, 125164, Note_off_c, 1, 58, 64
2, 125208, Note_off_c, 1, 82, 64
2, 125212, Note_off_c, 1, 70, 64
2, 125268, Note_on_c, 1, 81, 86
2, 125272, Note_on_c, 1, 69, 80
2, 125300, Note_off_c, 1, 81, 64
2, 125304, Note_off_c, 1, 69, 64
2, 125312, Note_off_c, 1, 74, 64
2, 125316, Note_off_c, 1, 77, 64
2, 125412, Note_on_c, 1, 82, 86
2, 125416, Note_on_c, 1, 70, 91
2, 125416, Note_on_c, 1, 77, 100
2, 125416, Note_on_c, 1, 74, 104
2, 125416, Note_on_c, 1, 41, 86
2, 125416, Note_on_c, 1, 53, 91
2, 125416, Control_c, 1, 64, 0
2, 125444, Control_c, 1, 64, 127
2, 125448, Note_off_c, 1, 70, 64
2, 125452, Note_off_c, 1, 77, 64
2, 125452, Note_off_c, 1, 74, 64
2, 125452, Note_off_c, 1, 41, 64
2, 125456, Note_off_c, 1, 53, 64
2, 125464, Note_off_c, 1, 82, 64
2, 125548, Note_on_c, 1, 84, 91
2, 125548, Note_on_c, 1, 72, 76
2, 125628, Note_off_c, 1, 84, 64
2, 125644, Note_off_c, 1, 72, 64
2, 125668, Note_on_c, 1, 56, 71
2, 125668, Note_on_c, 1, 62, 84
2, 125676, Note_on_c, 1, 58, 56
2, 125684, Note_off_c, 1, 62, 64
2, 125684, Note_off_c, 1, 58, 64
2, 125688, Note_off_c, 1, 56, 64
2, 125808, Note_on_c, 1, 70, 88
2, 125808, Note_on_c, 1, 82, 96
2, 125808, Note_on_c, 1, 77, 104
2, 125808, Note_on_c, 1, 74, 100
2, 125940, Note_on_c, 1, 53, 81
2, 125940, Note_on_c, 1, 41, 72
2, 125940, Control_c, 1, 64, 0
2, 125968, Note_off_c, 1, 41, 64
2, 125968, Note_off_c, 1, 53, 64
2, 125968, Control_c, 1, 64, 127
2, 126052, Control_c, 1, 64, 0
2, 126072, Note_on_c, 1, 58, 76
2, 126076, Note_on_c, 1, 46, 88
2, 126080, Control_c, 1, 64, 127
2, 126136, Note_off_c, 1, 58, 64
2, 126140, Note_off_c, 1, 46, 0
2, 126196, Note_on_c, 1, 57, 80
2, 126196, Note_on_c, 1, 45, 91
2, 126196, Control_c, 1, 64, 0
2, 126220, Control_c, 1, 64, 127
2, 126240, Note_off_c, 1, 57, 64
2, 126264, Note_off_c, 1, 45, 64
2, 126304, Note_off_c, 1, 70, 64
2, 126320, Note_on_c, 1, 44, 78
2, 126320, Note_on_c, 1, 56, 96
2, 126324, Control_c, 1, 64, 0
2, 126328, Note_off_c, 1, 77, 64
2, 126352, Note_off_c, 1, 74, 64
2, 126356, Control_c, 1, 64, 127
2, 126372, Note_off_c, 1, 44, 64
2, 126372, Note_off_c, 1, 56, 64
2, 126372, Note_on_c, 1, 72, 91
2, 126412, Note_off_c, 1, 82, 64
2, 126412, Note_on_c, 1, 74, 91
2, 126416, Note_off_c, 1, 72, 64
2, 126452, Note_on_c, 1, 75, 93
2, 126460, Note_on_c, 1, 55, 104
2, 126460, Note_on_c, 1, 43, 104
2, 126460, Control_c, 1, 64, 0
2, 126468, Note_off_c, 1, 74, 64
2, 126480, Note_off_c, 1, 43, 64
2, 126480, Control_c, 1, 64, 127
2, 126496, Note_off_c, 1, 55, 64
2, 126504, Note_off_c, 1, 75, 64
2, 126716, Note_on_c, 1, 55, 81
2, 126720, Note_on_c, 1, 63, 68
2, 126720, Note_on_c, 1, 79, 108
2, 126724, Note_on_c, 1, 82, 91
2, 126728, Note_on_c, 1, 58, 73
2, 126728, Note_on_c, 1, 70, 93
2, 126728, Note_on_c, 1, 75, 86
2, 126736, Note_off_c, 1, 55, 64
2, 126736, Note_off_c, 1, 63, 64
2, 126740, Note_off_c, 1, 58, 64
2, 126772, Note_off_c, 1, 82, 64
2, 126780, Note_off_c, 1, 70, 64
2, 126860, Note_off_c, 1, 79, 64
2, 126860, Note_on_c, 1, 81, 88
2, 126860, Note_on_c, 1, 69, 73
2, 126864, Note_off_c, 1, 75, 64
2, 126872, Note_off_c, 1, 69, 64
2, 126888, Note_off_c, 1, 81, 64
2, 126988, Note_on_c, 1, 82, 96
2, 126992, Note_on_c, 1, 39, 84
2, 126992, Note_on_c, 1, 79, 100
2, 126992, Note_on_c, 1, 51, 108
2, 126992, Note_on_c, 1, 75, 96
2, 126992, Note_on_c, 1, 70, 104
2, 126992, Control_c, 1, 64, 0
2, 127016, Control_c, 1, 64, 127
2, 127028, Note_off_c, 1, 39, 64
2, 127040, Note_off_c, 1, 51, 64
2, 127048, Note_off_c, 1, 82, 64
2, 127060, Note_off_c, 1, 70, 64
2, 127112, Note_off_c, 1, 79, 64
2, 127120, Note_on_c, 1, 81, 86
2, 127128, Note_on_c, 1, 69, 71
2, 127140, Note_off_c, 1, 75, 64
2, 127140, Note_off_c, 1, 69, 64
2, 127152, Note_off_c, 1, 81, 64
2, 127256, Note_on_c, 1, 55, 78
2, 127260, Note_on_c, 1, 82, 100
2, 127260, Note_on_c, 1, 75, 91
2, 127260, Note_on_c, 1, 70, 96
2, 127260, Note_on_c, 1, 58, 80
2, 127260, Note_on_c, 1, 79, 93
2, 127264, Note_on_c, 1, 63, 72
2, 127268, Note_off_c, 1, 55, 64
2, 127272, Note_off_c, 1, 58, 64
2, 127272, Note_off_c, 1, 63, 64
2, 127324, Note_off_c, 1, 82, 64
2, 127340, Note_off_c, 1, 70, 64
2, 127388, Note_off_c, 1, 79, 64
2, 127392, Note_on_c, 1, 81, 86
2, 127392, Note_on_c, 1, 69, 78
2, 127412, Note_off_c, 1, 75, 64
2, 127412, Note_off_c, 1, 81, 64
2, 127412, Note_off_c, 1, 69, 64
2, 127512, Note_on_c, 1, 75, 91
2, 127512, Control_c, 1, 64, 0
2, 127520, Note_on_c, 1, 79, 104
2, 127520, Note_on_c, 1, 55, 91
2, 127520, Note_on_c, 1, 70, 100
2, 127524, Note_on_c, 1, 82, 100
2, 127524, Note_on_c, 1, 43, 93
2, 127528, Control_c, 1, 64, 127
2, 127540, Note_off_c, 1, 43, 64
2, 127552, Note_off_c, 1, 55, 64
2, 127552, Note_off_c, 1, 70, 64
2, 127556, Note_off_c, 1, 82, 64
2, 127564, Note_off_c, 1, 79, 64
2, 127572, Note_off_c, 1, 75, 64
2, 127652, Note_on_c, 1, 84, 91
2, 127652, Note_on_c, 1, 72, 81
2, 127664, Note_off_c, 1, 84, 64
2, 127664, Note_off_c, 1, 72, 64
2, 127776, Note_on_c, 1, 55, 88
2, 127780, Note_on_c, 1, 63, 69
2, 127780, Note_on_c, 1, 58, 78
2, 127792, Note_off_c, 1, 63, 64
2, 127796, Note_off_c, 1, 55, 64
2, 127796, Note_off_c, 1, 58, 64
2, 127920, Note_on_c, 1, 82, 88
2, 127920, Note_on_c, 1, 79, 92
2, 127924, Note_on_c, 1, 70, 88
2, 127924, Note_on_c, 1, 75, 81
2, 128056, Control_c, 1, 64, 0
2, 128068, Note_on_c, 1, 51, 68
2, 128068, Note_on_c, 1, 39, 68
2, 128088, Control_c, 1, 64, 127
2, 128096, Note_off_c, 1, 39, 64
2, 128108, Note_off_c, 1, 51, 64
2, 128192, Control_c, 1, 64, 0
2, 128196, Note_on_c, 1, 50, 80
2, 128196, Note_on_c, 1, 38, 80
2, 128216, Control_c, 1, 64, 127
2, 128228, Note_off_c, 1, 50, 64
2, 128240, Note_off_c, 1, 38, 64
2, 128316, Note_on_c, 1, 51, 80
2, 128320, Note_on_c, 1, 39, 80
2, 128320, Control_c, 1, 64, 0
2, 128332, Control_c, 1, 64, 127
2, 128348, Note_off_c, 1, 39, 64
2, 128352, Note_off_c, 1, 51, 64
2, 128360, Note_off_c, 1, 70, 64
2, 128372, Note_off_c, 1, 79, 64
2, 128376, Note_off_c, 1, 75, 64
2, 128416, Note_off_c, 1, 82, 64
2, 128444, Note_on_c, 1, 53, 81
2, 128448, Note_on_c, 1, 41, 88
2, 128448, Control_c, 1, 64, 0
2, 128472, Control_c, 1, 64, 127
2, 128492, Note_off_c, 1, 53, 64
2, 128500, Note_off_c, 1, 41, 64
2, 128504, Note_on_c, 1, 80, 70
2, 128532, Note_off_c, 1, 80, 64
2, 128544, Note_on_c, 1, 81, 76
2, 128588, Note_on_c, 1, 54, 96
2, 128588, Control_c, 1, 64, 0
2, 128592, Note_on_c, 1, 42, 104
2, 128596, Note_on_c, 1, 82, 109
2, 128600, Note_off_c, 1, 81, 64
2, 128612, Control_c, 1, 64, 127
2, 128624, Note_off_c, 1, 42, 64
2, 128632, Note_off_c, 1, 54, 64
2, 128644, Note_off_c, 1, 82, 64
2, 128864, Note_on_c, 1, 82, 93
2, 128864, Note_on_c, 1, 73, 88
2, 128864, Note_on_c, 1, 61, 68
2, 128864, Note_on_c, 1, 70, 84
2, 128868, Note_on_c, 1, 54, 78
2, 128868, Note_on_c, 1, 58, 73
2, 128884, Note_off_c, 1, 61, 64
2, 128884, Note_off_c, 1, 58, 64
2, 128888, Note_off_c, 1, 54, 64
2, 128904, Note_off_c, 1, 70, 64
2, 128912, Note_off_c, 1, 82, 64
2, 128980, Note_on_c, 1, 81, 91
2, 128984, Note_on_c, 1, 69, 84
2, 128992, Note_off_c, 1, 73, 64
2, 128996, Note_off_c, 1, 69, 64
2, 129008, Note_off_c, 1, 81, 64
2, 129112, Note_on_c, 1, 82, 93
2, 129116, Note_on_c, 1, 70, 100
2, 129116, Note_on_c, 1, 43, 91
2, 129116, Note_on_c, 1, 73, 81
2, 129116, Note_on_c, 1, 55, 88
2, 129116, Control_c, 1, 64, 0
2, 129128, Note_off_c, 1, 73, 64
2, 129128, Control_c, 1, 64, 127
2, 129132, Note_off_c, 1, 70, 64
2, 129140, Note_off_c, 1, 43, 64
2, 129144, Note_off_c, 1, 82, 64
2, 129144, Note_off_c, 1, 55, 64
2, 129248, Note_on_c, 1, 85, 84
2, 129248, Note_on_c, 1, 76, 104
2, 129252, Note_on_c, 1, 73, 81
2, 129276, Note_off_c, 1, 76, 64
2, 129280, Note_off_c, 1, 73, 64
2, 129284, Note_off_c, 1, 85, 64
2, 129396, Note_on_c, 1, 83, 91
2, 129396, Note_on_c, 1, 75, 81
2, 129396, Note_on_c, 1, 61, 68
2, 129396, Note_on_c, 1, 71, 88
2, 129396, Note_on_c, 1, 55, 80
2, 129396, Note_on_c, 1, 58, 73
2, 129400, Note_off_c, 1, 83, 64
2, 129400, Note_off_c, 1, 75, 64
2, 129404, Note_off_c, 1, 61, 64
2, 129404, Note_off_c, 1, 71, 64
2, 129412, Note_off_c, 1, 58, 64
2, 129416, Note_off_c, 1, 55, 64
2, 129524, Note_on_c, 1, 82, 91
2, 129524, Note_on_c, 1, 70, 78
2, 129524, Note_on_c, 1, 73, 76
2, 129536, Note_off_c, 1, 82, 64
2, 129536, Note_off_c, 1, 73, 64
2, 129540, Note_off_c, 1, 70, 64
2, 129652, Control_c, 1, 64, 0
2, 129656, Note_on_c, 1, 56, 76
2, 129656, Note_on_c, 1, 44, 86
2, 129656, Note_on_c, 1, 82, 91
2, 129656, Note_on_c, 1, 70, 91
2, 129656, Note_on_c, 1, 73, 68
2, 129672, Note_off_c, 1, 73, 64
2, 129676, Control_c, 1, 64, 127
2, 129684, Note_off_c, 1, 82, 64
2, 129688, Note_off_c, 1, 70, 64
2, 129716, Note_off_c, 1, 44, 64
2, 129720, Note_off_c, 1, 56, 64
2, 129792, Note_on_c, 1, 80, 78
2, 129792, Note_on_c, 1, 71, 91
2, 129792, Note_on_c, 1, 68, 72
2, 129928, Note_on_c, 1, 59, 75
2, 129928, Note_on_c, 1, 56, 66
2, 129928, Note_on_c, 1, 51, 67
2, 129936, Note_off_c, 1, 80, 64
2, 129936, Note_off_c, 1, 71, 64
2, 129936, Note_off_c, 1, 68, 64
2, 129936, Note_off_c, 1, 59, 64
2, 129936, Note_off_c, 1, 56, 64
2, 129936, Note_off_c, 1, 51, 64
2, 130048, Note_on_c, 1, 80, 86
2, 130048, Note_on_c, 1, 71, 96
2, 130048, Note_on_c, 1, 75, 75
2, 130048, Note_on_c, 1, 68, 80
2, 130076, Control_c, 1, 64, 0
2, 130188, Note_on_c, 1, 35, 68
2, 130188, Note_on_c, 1, 47, 64
2, 130188, Control_c, 1, 64, 127
2, 130228, Note_off_c, 1, 35, 0
2, 130228, Note_off_c, 1, 47, 0
2, 130312, Note_on_c, 1, 48, 75
2, 130312, Control_c, 1, 64, 0
2, 130316, Note_on_c, 1, 36, 75
2, 130336, Control_c, 1, 64, 127
2, 130352, Note_off_c, 1, 48, 64
2, 130372, Note_off_c, 1, 36, 64
2, 130432, Control_c, 1, 64, 0
2, 130440, Note_on_c, 1, 49, 88
2, 130440, Note_on_c, 1, 37, 93
2, 130464, Control_c, 1, 64, 127
2, 130476, Note_off_c, 1, 71, 64
2, 130476, Note_off_c, 1, 75, 64
2, 130480, Note_off_c, 1, 80, 64
2, 130480, Note_off_c, 1, 68, 64
2, 130492, Note_off_c, 1, 37, 64
2, 130496, Note_off_c, 1, 49, 64
2, 130568, Note_on_c, 1, 50, 91
2, 130572, Note_on_c, 1, 38, 91
2, 130572, Control_c, 1, 64, 0
2, 130600, Control_c, 1, 64, 127
2, 130620, Note_off_c, 1, 50, 64
2, 130620, Note_on_c, 1, 63, 81
2, 130628, Note_off_c, 1, 38, 64
2, 130656, Note_off_c, 1, 63, 64
2, 130660, Note_on_c, 1, 65, 80
2, 130708, Note_on_c, 1, 66, 81
2, 130716, Note_off_c, 1, 65, 64
2, 130716, Note_on_c, 1, 39, 117
2, 130716, Note_on_c, 1, 51, 100
2, 130716, Control_c, 1, 64, 0
2, 130732, Control_c, 1, 64, 127
2, 130760, Note_off_c, 1, 39, 64
2, 130764, Note_off_c, 1, 66, 64
2, 130768, Note_off_c, 1, 51, 64
2, 130972, Note_on_c, 1, 75, 72
2, 130976, Note_on_c, 1, 78, 88
2, 130976, Note_on_c, 1, 63, 68
2, 130976, Note_on_c, 1, 66, 81
2, 130976, Note_on_c, 1, 54, 76
2, 130980, Note_on_c, 1, 58, 72
2, 130988, Note_off_c, 1, 75, 64
2, 130988, Note_off_c, 1, 66, 64
2, 131000, Note_off_c, 1, 78, 64
2, 131032, Note_off_c, 1, 63, 64
2, 131048, Note_off_c, 1, 54, 64
2, 131048, Note_off_c, 1, 58, 64
2, 131108, Note_on_c, 1, 80, 92
2, 131108, Note_on_c, 1, 68, 80
2, 131128, Note_off_c, 1, 68, 64
2, 131136, Note_off_c, 1, 80, 64
2, 131244, Note_on_c, 1, 81, 100
2, 131248, Note_on_c, 1, 47, 86
2, 131248, Note_on_c, 1, 78, 86
2, 131252, Note_on_c, 1, 35, 81
2, 131252, Note_on_c, 1, 69, 91
2, 131252, Control_c, 1, 64, 0
2, 131276, Control_c, 1, 64, 127
2, 131296, Note_off_c, 1, 69, 64
2, 131304, Note_off_c, 1, 81, 64
2, 131376, Note_off_c, 1, 78, 64
2, 131380, Note_on_c, 1, 68, 75
2, 131380, Note_on_c, 1, 80, 75
2, 131416, Note_off_c, 1, 68, 64
2, 131416, Note_off_c, 1, 80, 64
2, 131516, Note_on_c, 1, 81, 96
2, 131516, Note_on_c, 1, 75, 81
2, 131516, Note_on_c, 1, 78, 100
2, 131516, Note_on_c, 1, 69, 93
2, 131520, Control_c, 1, 64, 0
2, 131556, Control_c, 1, 64, 127
2, 131616, Note_off_c, 1, 75, 64
2, 131620, Note_off_c, 1, 81, 64
2, 131620, Note_off_c, 1, 78, 64
2, 131628, Note_off_c, 1, 69, 64
2, 131644, Note_off_c, 1, 47, 64
2, 131648, Note_off_c, 1, 35, 64
2, 131776, Note_on_c, 1, 82, 80
2, 131776, Note_on_c, 1, 77, 96
2, 131776, Note_on_c, 1, 74, 108
2, 131780, Note_on_c, 1, 70, 80
2, 131780, Note_on_c, 1, 46, 84
2, 131780, Note_on_c, 1, 34, 88
2, 131792, Control_c, 1, 64, 0
2, 131840, Control_c, 1, 64, 127
2, 131888, Note_off_c, 1, 77, 64
2, 131888, Note_off_c, 1, 74, 64
2, 131892, Note_off_c, 1, 70, 64
2, 131896, Note_off_c, 1, 82, 64
2, 132044, Note_on_c, 1, 82, 96
2, 132044, Note_on_c, 1, 70, 81
2, 132076, Note_off_c, 1, 82, 64
2, 132076, Note_off_c, 1, 70, 64
2, 132168, Note_on_c, 1, 82, 108
2, 132168, Note_on_c, 1, 70, 91
2, 132184, Note_off_c, 1, 46, 64
2, 132188, Note_off_c, 1, 34, 64
2, 132200, Note_off_c, 1, 82, 64
2, 132204, Note_off_c, 1, 70, 64
2, 132308, Note_on_c, 1, 70, 100
2, 132308, Note_on_c, 1, 82, 121
2, 132312, Control_c, 1, 64, 0
2, 132340, Note_off_c, 1, 70, 64
2, 132340, Note_off_c, 1, 82, 64
2, 132568, Note_on_c, 1, 34, 100
2, 132576, Note_on_c, 1, 46, 108
2, 132620, Note_off_c, 1, 34, 64
2, 132620, Note_off_c, 1, 46, 64
2, 132764, Note_on_c, 1, 72, 81
2, 132788, Note_off_c, 1, 72, 64
2, 132788, Note_on_c, 1, 73, 65
2, 132824, Note_off_c, 1, 73, 64
2, 132828, Note_on_c, 1, 74, 104
2, 132828, Note_on_c, 1, 41, 93
2, 132828, Note_on_c, 1, 53, 100
2, 132860, Control_c, 1, 64, 127
2, 132884, Note_off_c, 1, 41, 64
2, 132892, Note_off_c, 1, 53, 64
2, 132980, Note_off_c, 1, 74, 64
2, 133096, Note_on_c, 1, 82, 91
2, 133096, Note_on_c, 1, 70, 88
2, 133100, Note_on_c, 1, 74, 108
2, 133104, Note_on_c, 1, 77, 93
2, 133104, Note_on_c, 1, 65, 78
2, 133108, Note_on_c, 1, 58, 68
2, 133108, Note_on_c, 1, 62, 75
2, 133136, Note_off_c, 1, 58, 64
2, 133136, Note_off_c, 1, 62, 64
2, 133144, Note_off_c, 1, 70, 64
2, 133144, Note_off_c, 1, 65, 64
2, 133152, Note_off_c, 1, 82, 64
2, 133232, Note_on_c, 1, 81, 87
2, 133232, Note_on_c, 1, 69, 80
2, 133248, Note_off_c, 1, 74, 0
2, 133248, Note_off_c, 1, 77, 0
2, 133248, Note_off_c, 1, 81, 64
2, 133252, Note_off_c, 1, 69, 64
2, 133356, Note_on_c, 1, 82, 92
2, 133356, Note_on_c, 1, 70, 88
2, 133356, Note_on_c, 1, 74, 107
2, 133356, Note_on_c, 1, 46, 112
2, 133356, Note_on_c, 1, 34, 108
2, 133364, Note_on_c, 1, 77, 104
2, 133364, Control_c, 1, 64, 0
2, 133384, Control_c, 1, 64, 127
2, 133400, Note_off_c, 1, 34, 64
2, 133404, Note_off_c, 1, 46, 64
2, 133412, Note_off_c, 1, 70, 64
2, 133416, Note_off_c, 1, 82, 64
2, 133500, Note_on_c, 1, 81, 88
2, 133504, Note_on_c, 1, 69, 73
2, 133524, Note_off_c, 1, 74, 64
2, 133524, Note_off_c, 1, 69, 64
2, 133528, Note_off_c, 1, 77, 64
2, 133528, Note_off_c, 1, 81, 64
2, 133624, Note_on_c, 1, 82, 96
2, 133624, Note_on_c, 1, 70, 100
2, 133624, Note_on_c, 1, 74, 117
2, 133624, Note_on_c, 1, 77, 100
2, 133628, Note_on_c, 1, 58, 73
2, 133628, Note_on_c, 1, 62, 84
2, 133628, Note_on_c, 1, 56, 76
2, 133640, Note_off_c, 1, 58, 64
2, 133644, Note_off_c, 1, 62, 64
2, 133644, Note_off_c, 1, 56, 64
2, 133696, Note_off_c, 1, 82, 64
2, 133700, Note_off_c, 1, 70, 64
2, 133756, Note_on_c, 1, 81, 86
2, 133756, Note_on_c, 1, 69, 78
2, 133776, Note_off_c, 1, 77, 64
2, 133780, Note_off_c, 1, 74, 64
2, 133780, Note_off_c, 1, 81, 64
2, 133780, Note_off_c, 1, 69, 64
2, 133884, Note_on_c, 1, 41, 96
2, 133888, Note_on_c, 1, 82, 91
2, 133888, Note_on_c, 1, 53, 108
2, 133888, Note_on_c, 1, 70, 93
2, 133892, Note_on_c, 1, 74, 104
2, 133892, Note_on_c, 1, 77, 97
2, 133892, Control_c, 1, 64, 0
2, 133908, Control_c, 1, 64, 127
2, 133912, Note_off_c, 1, 70, 64
2, 133916, Note_off_c, 1, 74, 64
2, 133916, Note_off_c, 1, 77, 64
2, 133920, Note_off_c, 1, 82, 64
2, 133940, Note_off_c, 1, 41, 64
2, 133952, Note_off_c, 1, 53, 64
2, 134020, Note_on_c, 1, 84, 104
2, 134020, Note_on_c, 1, 72, 81
2, 134036, Note_off_c, 1, 84, 64
2, 134036, Note_off_c, 1, 72, 64
2, 134152, Note_on_c, 1, 56, 88
2, 134156, Note_on_c, 1, 58, 84
2, 134156, Note_on_c, 1, 62, 88
2, 134168, Note_off_c, 1, 56, 64
2, 134168, Note_off_c, 1, 58, 64
2, 134172, Note_off_c, 1, 62, 64
2, 134288, Note_on_c, 1, 82, 81
2, 134288, Note_on_c, 1, 70, 99
2, 134288, Note_on_c, 1, 74, 111
2, 134288, Note_on_c, 1, 77, 100
2, 134424, Note_on_c, 1, 41, 72
2, 134424, Control_c, 1, 64, 0
2, 134428, Note_on_c, 1, 53, 72
2, 134440, Control_c, 1, 64, 127
2, 134444, Note_off_c, 1, 53, 64
2, 134452, Note_off_c, 1, 41, 64
2, 134476, Control_c, 1, 64, 0
2, 134556, Note_on_c, 1, 46, 81
2, 134556, Control_c, 1, 64, 127
2, 134560, Note_on_c, 1, 58, 86
2, 134616, Note_off_c, 1, 46, 64
2, 134616, Note_off_c, 1, 58, 64
2, 134688, Note_on_c, 1, 57, 91
2, 134696, Note_on_c, 1, 45, 96
2, 134696, Control_c, 1, 64, 0
2, 134728, Control_c, 1, 64, 127
2, 134744, Note_off_c, 1, 57, 64
2, 134756, Note_off_c, 1, 45, 64
2, 134816, Note_off_c, 1, 70, 64
2, 134824, Note_on_c, 1, 56, 91
2, 134824, Note_on_c, 1, 44, 84
2, 134824, Control_c, 1, 64, 0
2, 134836, Note_off_c, 1, 77, 64
2, 134844, Control_c, 1, 64, 127
2, 134864, Note_off_c, 1, 74, 64
2, 134876, Note_off_c, 1, 56, 64
2, 134876, Note_off_c, 1, 44, 64
2, 134908, Note_on_c, 1, 72, 71
2, 134940, Note_off_c, 1, 82, 64
2, 134940, Note_on_c, 1, 74, 76
2, 134944, Note_off_c, 1, 72, 64
2, 134960, Note_on_c, 1, 75, 112
2, 134960, Note_on_c, 1, 55, 104
2, 134960, Note_on_c, 1, 43, 108
2, 134960, Control_c, 1, 64, 0
2, 134972, Note_off_c, 1, 74, 64
2, 134984, Control_c, 1, 64, 127
2, 135000, Note_off_c, 1, 43, 64
2, 135004, Note_off_c, 1, 55, 64
2, 135020, Note_off_c, 1, 75, 64
2, 135228, Note_on_c, 1, 55, 93
2, 135228, Note_on_c, 1, 58, 73
2, 135228, Note_on_c, 1, 63, 72
2, 135228, Note_on_c, 1, 82, 86
2, 135228, Note_on_c, 1, 70, 100
2, 135232, Note_on_c, 1, 79, 104
2, 135232, Note_on_c, 1, 75, 93
2, 135240, Note_off_c, 1, 55, 64
2, 135244, Note_off_c, 1, 58, 64
2, 135244, Note_off_c, 1, 63, 64
2, 135272, Note_off_c, 1, 82, 0
2, 135280, Note_off_c, 1, 70, 0
2, 135360, Note_on_c, 1, 81, 91
2, 135364, Note_on_c, 1, 69, 81
2, 135368, Note_off_c, 1, 79, 0
2, 135372, Note_off_c, 1, 75, 0
2, 135376, Note_off_c, 1, 69, 64
2, 135384, Note_off_c, 1, 81, 64
2, 135484, Note_on_c, 1, 39, 84
2, 135484, Note_on_c, 1, 82, 86
2, 135484, Control_c, 1, 64, 0
2, 135488, Note_on_c, 1, 51, 112
2, 135492, Note_on_c, 1, 79, 93
2, 135492, Note_on_c, 1, 75, 88
2, 135492, Note_on_c, 1, 70, 100
2, 135504, Control_c, 1, 64, 127
2, 135520, Note_off_c, 1, 39, 64
2, 135532, Note_off_c, 1, 51, 64
2, 135540, Note_off_c, 1, 82, 64
2, 135544, Note_off_c, 1, 70, 64
2, 135616, Note_off_c, 1, 79, 64
2, 135624, Note_on_c, 1, 81, 86
2, 135632, Note_on_c, 1, 69, 88
2, 135640, Note_off_c, 1, 75, 64
2, 135644, Note_off_c, 1, 69, 64
2, 135652, Note_off_c, 1, 81, 64
2, 135764, Note_on_c, 1, 82, 100
2, 135764, Note_on_c, 1, 63, 73
2, 135764, Note_on_c, 1, 55, 88
2, 135764, Note_on_c, 1, 79, 96
2, 135764, Note_on_c, 1, 70, 100
2, 135764, Note_on_c, 1, 75, 93
2, 135768, Note_on_c, 1, 58, 76
2, 135772, Note_off_c, 1, 58, 64
2, 135784, Note_off_c, 1, 63, 64
2, 135784, Note_off_c, 1, 55, 64
2, 135836, Note_off_c, 1, 82, 64
2, 135848, Note_off_c, 1, 70, 64
2, 135880, Note_off_c, 1, 79, 64
2, 135896, Note_on_c, 1, 81, 81
2, 135896, Note_on_c, 1, 69, 80
2, 135908, Note_off_c, 1, 75, 64
2, 135912, Note_off_c, 1, 69, 64
2, 135916, Note_off_c, 1, 81, 64
2, 136012, Control_c, 1, 64, 0
2, 136016, Note_on_c, 1, 82, 93
2, 136016, Note_on_c, 1, 79, 104
2, 136016, Note_on_c, 1, 70, 96
2, 136016, Note_on_c, 1, 75, 84
2, 136020, Note_on_c, 1, 51, 91
2, 136020, Note_on_c, 1, 39, 102
2, 136028, Control_c, 1, 64, 127
2, 136044, Note_off_c, 1, 70, 64
2, 136056, Note_off_c, 1, 82, 64
2, 136056, Note_off_c, 1, 79, 64
2, 136060, Note_off_c, 1, 39, 64
2, 136064, Note_off_c, 1, 75, 64
2, 136072, Note_off_c, 1, 51, 64
2, 136156, Note_on_c, 1, 84, 88
2, 136156, Note_on_c, 1, 72, 84
2, 136168, Note_off_c, 1, 84, 64
2, 136168, Note_off_c, 1, 72, 64
2, 136280, Note_on_c, 1, 63, 68
2, 136280, Note_on_c, 1, 55, 86
2, 136280, Note_on_c, 1, 58, 78
2, 136404, Note_on_c, 1, 82, 81
2, 136404, Note_on_c, 1, 79, 100
2, 136408, Note_on_c, 1, 70, 87
2, 136408, Note_on_c, 1, 75, 92
2, 136420, Note_off_c, 1, 63, 64
2, 136420, Note_off_c, 1, 55, 64
2, 136420, Note_off_c, 1, 58, 64
2, 136544, Note_on_c, 1, 63, 76
2, 136544, Note_on_c, 1, 55, 93
2, 136548, Note_on_c, 1, 58, 84
2, 136560, Note_off_c, 1, 63, 64
2, 136560, Note_off_c, 1, 58, 64
2, 136572, Note_off_c, 1, 55, 64
2, 136588, Note_off_c, 1, 79, 64
2, 136592, Note_off_c, 1, 82, 64
2, 136592, Note_off_c, 1, 70, 64
2, 136592, Note_off_c, 1, 75, 64
2, 136768, Control_c, 1, 64, 0
2, 136820, Note_on_c, 1, 68, 78
2, 136824, Note_on_c, 1, 58, 86
2, 136828, Note_on_c, 1, 62, 96
2, 136828, Note_on_c, 1, 34, 93
2, 136832, Note_on_c, 1, 46, 104
2, 136832, Control_c, 1, 64, 127
2, 136856, Note_off_c, 1, 34, 64
2, 136856, Note_off_c, 1, 46, 64
2, 136884, Note_off_c, 1, 62, 64
2, 136916, Note_off_c, 1, 58, 64
2, 136924, Note_off_c, 1, 68, 64
2, 137084, Note_on_c, 1, 67, 73
2, 137084, Note_on_c, 1, 58, 64
2, 137084, Note_on_c, 1, 63, 71
2, 137088, Note_on_c, 1, 39, 58
2, 137088, Note_on_c, 1, 51, 60
2, 137088, Control_c, 1, 64, 0
2, 137092, Note_off_c, 1, 63, 64
2, 137096, Note_off_c, 1, 58, 64
2, 137100, Note_off_c, 1, 67, 64
2, 137100, Note_off_c, 1, 39, 64
2, 137100, Note_off_c, 1, 51, 64
2, 137212, Note_on_c, 1, 63, 67
2, 137212, Note_on_c, 1, 51, 58
2, 137216, Note_on_c, 1, 39, 58
2, 137216, Note_on_c, 1, 58, 59
2, 137216, Note_on_c, 1, 67, 69
2, 137220, Control_c, 1, 64, 127
2, 137260, Note_off_c, 1, 39, 64
2, 137268, Note_off_c, 1, 51, 64
2, 137300, Note_off_c, 1, 58, 0
2, 137332, Note_off_c, 1, 67, 0
2, 137336, Note_off_c, 1, 63, 0
2, 137344, Control_c, 1, 64, 0
2, 137472, Note_on_c, 1, 65, 104
2, 137472, Note_on_c, 1, 67, 104
2, 137472, Note_on_c, 1, 59, 93
2, 137480, Note_on_c, 1, 50, 91
2, 137484, Note_on_c, 1, 38, 91
2, 137492, Control_c, 1, 64, 127
2, 137740, Note_off_c, 1, 65, 64
2, 137740, Note_off_c, 1, 67, 64
2, 137744, Note_off_c, 1, 50, 64
2, 137752, Note_off_c, 1, 59, 64
2, 137756, Note_off_c, 1, 38, 64
2, 137800, Control_c, 1, 64, 0
2, 137884, Note_on_c, 1, 67, 84
2, 137888, Note_on_c, 1, 65, 81
2, 137888, Note_on_c, 1, 58, 71
2, 137888, Note_on_c, 1, 49, 70
2, 137888, Note_on_c, 1, 37, 68
2, 137888, Control_c, 1, 64, 127
2, 137940, Note_off_c, 1, 37, 64
2, 137964, Note_off_c, 1, 49, 64
2, 137972, Note_off_c, 1, 58, 64
2, 137980, Note_off_c, 1, 65, 64
2, 138004, Note_off_c, 1, 67, 64
2, 138060, Control_c, 1, 64, 0
2, 138144, Note_on_c, 1, 36, 70
2, 138144, Note_on_c, 1, 67, 84
2, 138144, Note_on_c, 1, 58, 73
2, 138144, Note_on_c, 1, 48, 68
2, 138148, Note_on_c, 1, 64, 84
2, 138180, Note_off_c, 1, 58, 64
2, 138184, Note_off_c, 1, 36, 64
2, 138184, Note_off_c, 1, 48, 64
2, 138188, Note_off_c, 1, 67, 64
2, 138188, Note_off_c, 1, 64, 64
2, 138396, Note_on_c, 1, 67, 81
2, 138400, Note_on_c, 1, 58, 70
2, 138404, Note_on_c, 1, 64, 88
2, 138404, Note_on_c, 1, 36, 64
2, 138404, Note_on_c, 1, 48, 65
2, 138408, Control_c, 1, 64, 127
2, 138424, Note_off_c, 1, 64, 64
2, 138428, Note_off_c, 1, 36, 64
2, 138432, Note_off_c, 1, 48, 64
2, 138448, Note_off_c, 1, 58, 64
2, 138460, Note_off_c, 1, 67, 64
2, 138524, Control_c, 1, 64, 0
2, 138676, Note_on_c, 1, 67, 81
2, 138676, Note_on_c, 1, 63, 71
2, 138676, Note_on_c, 1, 36, 48
2, 138676, Note_on_c, 1, 57, 73
2, 138676, Note_on_c, 1, 48, 50
2, 138696, Note_off_c, 1, 67, 64
2, 138804, Note_on_c, 1, 65, 78
2, 138860, Control_c, 1, 64, 127
2, 138952, Note_off_c, 1, 48, 64
2, 138972, Note_off_c, 1, 36, 64
2, 139044, Note_off_c, 1, 63, 64
2, 139044, Note_off_c, 1, 57, 64
2, 139060, Note_off_c, 1, 65, 64
2, 139084, Control_c, 1, 64, 0
2, 139192, Note_on_c, 1, 63, 65
2, 139196, Note_on_c, 1, 56, 68
2, 139196, Note_on_c, 1, 65, 75
2, 139196, Note_on_c, 1, 35, 62
2, 139204, Note_on_c, 1, 47, 61
2, 139212, Note_off_c, 1, 63, 64
2, 139212, Note_off_c, 1, 56, 64
2, 139220, Note_off_c, 1, 65, 64
2, 139220, Note_off_c, 1, 35, 64
2, 139220, Note_off_c, 1, 47, 64
2, 139316, Note_on_c, 1, 63, 63
2, 139316, Note_on_c, 1, 56, 61
2, 139324, Note_on_c, 1, 65, 67
2, 139328, Note_on_c, 1, 35, 44
2, 139328, Note_on_c, 1, 47, 57
2, 139452, Note_off_c, 1, 63, 64
2, 139452, Note_off_c, 1, 56, 64
2, 139452, Note_off_c, 1, 65, 64
2, 139452, Note_off_c, 1, 35, 64
2, 139452, Note_off_c, 1, 47, 64
2, 139588, Note_on_c, 1, 56, 80
2, 139588, Note_on_c, 1, 65, 86
2, 139596, Note_on_c, 1, 62, 80
2, 139600, Note_on_c, 1, 34, 81
2, 139600, Note_on_c, 1, 46, 76
2, 139604, Control_c, 1, 64, 127
2, 139700, Note_off_c, 1, 56, 64
2, 139724, Note_off_c, 1, 62, 64
2, 139732, Note_off_c, 1, 65, 64
2, 139936, Note_off_c, 1, 34, 64
2, 139952, Note_off_c, 1, 46, 64
2, 139984, Note_on_c, 1, 70, 75
2, 139996, Note_off_c, 1, 70, 64
2, 140248, Note_on_c, 1, 63, 59
2, 140248, Control_c, 1, 64, 0
2, 140252, Note_on_c, 1, 58, 68
2, 140252, Note_on_c, 1, 55, 64
2, 140252, Note_on_c, 1, 39, 52
2, 140256, Note_on_c, 1, 51, 44
2, 140276, Control_c, 1, 64, 127
2, 140308, Note_off_c, 1, 55, 64
2, 140312, Note_off_c, 1, 58, 64
2, 140312, Note_off_c, 1, 39, 64
2, 140312, Note_off_c, 1, 51, 64
2, 140328, Note_off_c, 1, 63, 0
2, 140516, Note_on_c, 1, 70, 86
2, 140516, Control_c, 1, 64, 0
2, 140544, Note_off_c, 1, 70, 64
2, 140640, Note_on_c, 1, 70, 93
2, 140680, Note_off_c, 1, 70, 64
2, 140780, Note_on_c, 1, 70, 100
2, 140840, Note_off_c, 1, 70, 64
2, 141060, Note_on_c, 1, 34, 112
2, 141060, Note_on_c, 1, 46, 121
2, 141112, Note_off_c, 1, 34, 64
2, 141120, Note_off_c, 1, 46, 64
2, 141264, Note_on_c, 1, 72, 76
2, 141304, Note_on_c, 1, 73, 73
2, 141308, Note_off_c, 1, 72, 64
2, 141352, Note_off_c, 1, 73, 64
2, 141352, Note_on_c, 1, 41, 108
2, 141352, Note_on_c, 1, 53, 112
2, 141356, Note_on_c, 1, 74, 104
2, 141364, Control_c, 1, 64, 127
2, 141392, Note_off_c, 1, 41, 0
2, 141396, Note_off_c, 1, 53, 0
2, 141456, Note_off_c, 1, 74, 0
2, 141648, Note_on_c, 1, 82, 88
2, 141648, Note_on_c, 1, 70, 81
2, 141656, Note_on_c, 1, 56, 69
2, 141656, Note_on_c, 1, 77, 100
2, 141656, Note_on_c, 1, 74, 108
2, 141656, Note_on_c, 1, 62, 76
2, 141656, Note_on_c, 1, 58, 70
2, 141668, Note_off_c, 1, 56, 64
2, 141668, Note_off_c, 1, 62, 64
2, 141668, Note_off_c, 1, 58, 64
2, 141700, Note_off_c, 1, 82, 64
2, 141708, Note_off_c, 1, 70, 64
2, 141788, Note_on_c, 1, 81, 84
2, 141788, Note_on_c, 1, 69, 80
2, 141812, Note_off_c, 1, 77, 64
2, 141812, Note_off_c, 1, 74, 64
2, 141812, Note_off_c, 1, 81, 64
2, 141812, Note_off_c, 1, 69, 64
2, 141920, Note_on_c, 1, 82, 86
2, 141920, Note_on_c, 1, 77, 104
2, 141920, Note_on_c, 1, 34, 117
2, 141928, Note_on_c, 1, 74, 108
2, 141928, Note_on_c, 1, 70, 81
2, 141928, Note_on_c, 1, 46, 117
2, 141928, Control_c, 1, 64, 0
2, 141944, Control_c, 1, 64, 127
2, 141964, Note_off_c, 1, 34, 64
2, 141964, Note_off_c, 1, 46, 64
2, 141976, Note_off_c, 1, 82, 64
2, 141980, Note_off_c, 1, 70, 64
2, 142068, Note_on_c, 1, 81, 91
2, 142068, Note_on_c, 1, 69, 81
2, 142088, Note_off_c, 1, 74, 64
2, 142092, Note_off_c, 1, 77, 64
2, 142092, Note_off_c, 1, 69, 64
2, 142096, Note_off_c, 1, 81, 64
2, 142200, Note_on_c, 1, 82, 91
2, 142200, Note_on_c, 1, 74, 117
2, 142200, Note_on_c, 1, 77, 96
2, 142204, Note_on_c, 1, 70, 104
2, 142204, Note_on_c, 1, 56, 71
2, 142204, Note_on_c, 1, 62, 81
2, 142208, Note_on_c, 1, 58, 78
2, 142212, Note_off_c, 1, 56, 64
2, 142216, Note_off_c, 1, 62, 64
2, 142216, Note_off_c, 1, 58, 64
2, 142268, Note_off_c, 1, 70, 64
2, 142272, Note_off_c, 1, 82, 64
2, 142328, Note_on_c, 1, 81, 81
2, 142332, Note_on_c, 1, 69, 80
2, 142344, Note_off_c, 1, 74, 64
2, 142352, Note_off_c, 1, 77, 64
2, 142352, Note_off_c, 1, 69, 64
2, 142356, Note_off_c, 1, 81, 64
2, 142452, Note_on_c, 1, 82, 88
2, 142456, Note_on_c, 1, 70, 91
2, 142456, Note_on_c, 1, 74, 112
2, 142456, Note_on_c, 1, 77, 104
2, 142456, Note_on_c, 1, 41, 100
2, 142456, Note_on_c, 1, 53, 104
2, 142456, Control_c, 1, 64, 0
2, 142460, Control_c, 1, 64, 127
2, 142488, Note_off_c, 1, 70, 64
2, 142492, Note_off_c, 1, 82, 64
2, 142492, Note_off_c, 1, 74, 64
2, 142492, Note_off_c, 1, 77, 64
2, 142508, Note_off_c, 1, 41, 64
2, 142512, Note_off_c, 1, 53, 64
2, 142580, Note_on_c, 1, 72, 86
2, 142580, Note_on_c, 1, 84, 104
2, 142600, Note_off_c, 1, 72, 64
2, 142600, Note_off_c, 1, 84, 64
2, 142720, Note_on_c, 1, 58, 93
2, 142720, Note_on_c, 1, 56, 96
2, 142720, Note_on_c, 1, 62, 91
2, 142760, Note_off_c, 1, 58, 64
2, 142764, Note_off_c, 1, 56, 64
2, 142764, Note_off_c, 1, 62, 64
2, 142848, Note_on_c, 1, 82, 96
2, 142852, Note_on_c, 1, 77, 104
2, 142856, Note_on_c, 1, 70, 104
2, 142856, Note_on_c, 1, 74, 108
2, 142976, Control_c, 1, 64, 0
2, 142980, Note_on_c, 1, 53, 104
2, 142980, Note_on_c, 1, 41, 93
2, 143004, Control_c, 1, 64, 127
2, 143024, Note_off_c, 1, 53, 64
2, 143024, Note_off_c, 1, 41, 64
2, 143116, Note_on_c, 1, 58, 91
2, 143116, Note_on_c, 1, 46, 112
2, 143116, Control_c, 1, 64, 0
2, 143144, Control_c, 1, 64, 127
2, 143180, Note_off_c, 1, 58, 64
2, 143180, Note_off_c, 1, 46, 64
2, 143244, Note_on_c, 1, 57, 93
2, 143248, Note_on_c, 1, 45, 104
2, 143248, Control_c, 1, 64, 0
2, 143276, Control_c, 1, 64, 127
2, 143304, Note_off_c, 1, 57, 64
2, 143312, Note_off_c, 1, 70, 64
2, 143320, Note_off_c, 1, 45, 64
2, 143372, Note_off_c, 1, 77, 64
2, 143384, Note_on_c, 1, 44, 93
2, 143384, Note_on_c, 1, 56, 91
2, 143396, Control_c, 1, 64, 0
2, 143416, Note_off_c, 1, 74, 64
2, 143424, Note_off_c, 1, 44, 64
2, 143432, Note_off_c, 1, 56, 64
2, 143452, Note_off_c, 1, 82, 64
2, 143456, Note_on_c, 1, 72, 73
2, 143488, Note_off_c, 1, 72, 0
2, 143492, Note_on_c, 1, 74, 86
2, 143524, Note_on_c, 1, 43, 108
2, 143532, Note_on_c, 1, 55, 108
2, 143532, Note_on_c, 1, 75, 116
2, 143532, Control_c, 1, 64, 127
2, 143540, Note_off_c, 1, 74, 64
2, 143548, Note_off_c, 1, 43, 64
2, 143556, Note_off_c, 1, 55, 64
2, 143564, Note_off_c, 1, 75, 64
2, 143788, Note_on_c, 1, 63, 67
2, 143792, Note_on_c, 1, 55, 88
2, 143792, Note_on_c, 1, 82, 104
2, 143792, Note_on_c, 1, 79, 108
2, 143792, Note_on_c, 1, 75, 100
2, 143792, Note_on_c, 1, 70, 88
2, 143792, Note_on_c, 1, 58, 78
2, 143804, Note_off_c, 1, 63, 64
2, 143804, Note_off_c, 1, 55, 64
2, 143804, Note_off_c, 1, 58, 64
2, 143844, Note_off_c, 1, 82, 64
2, 143848, Note_off_c, 1, 70, 64
2, 143904, Note_off_c, 1, 79, 64
2, 143912, Note_on_c, 1, 81, 94
2, 143916, Note_on_c, 1, 69, 86
2, 143928, Note_off_c, 1, 75, 64
2, 143936, Note_off_c, 1, 69, 64
2, 143940, Note_off_c, 1, 81, 64
2, 144048, Note_on_c, 1, 82, 100
2, 144048, Note_on_c, 1, 79, 93
2, 144048, Note_on_c, 1, 70, 93
2, 144052, Note_on_c, 1, 75, 88
2, 144052, Note_on_c, 1, 51, 104
2, 144052, Note_on_c, 1, 39, 112
2, 144056, Control_c, 1, 64, 0
2, 144068, Control_c, 1, 64, 127
2, 144092, Note_off_c, 1, 39, 64
2, 144096, Note_off_c, 1, 51, 64
2, 144108, Note_off_c, 1, 82, 64
2, 144112, Note_off_c, 1, 70, 64
2, 144168, Note_off_c, 1, 79, 64
2, 144184, Note_on_c, 1, 81, 88
2, 144188, Note_on_c, 1, 69, 84
2, 144200, Note_off_c, 1, 75, 64
2, 144204, Note_off_c, 1, 69, 64
2, 144208, Note_off_c, 1, 81, 64
2, 144320, Note_on_c, 1, 82, 104
2, 144324, Note_on_c, 1, 79, 108
2, 144324, Note_on_c, 1, 55, 104
2, 144324, Note_on_c, 1, 75, 100
2, 144328, Note_on_c, 1, 70, 117
2, 144328, Note_on_c, 1, 63, 80
2, 144328, Note_on_c, 1, 58, 84
2, 144340, Note_off_c, 1, 63, 64
2, 144340, Note_off_c, 1, 58, 64
2, 144348, Note_off_c, 1, 55, 64
2, 144372, Note_off_c, 1, 82, 64
2, 144380, Note_off_c, 1, 70, 64
2, 144448, Note_off_c, 1, 79, 64
2, 144456, Note_on_c, 1, 69, 80
2, 144456, Note_on_c, 1, 81, 80
2, 144472, Note_off_c, 1, 75, 0
2, 144472, Note_off_c, 1, 69, 0
2, 144476, Note_off_c, 1, 81, 0
2, 144576, Note_on_c, 1, 82, 93
2, 144580, Note_on_c, 1, 79, 100
2, 144588, Note_on_c, 1, 70, 96
2, 144588, Note_on_c, 1, 75, 88
2, 144588, Note_on_c, 1, 55, 104
2, 144588, Note_on_c, 1, 43, 108
2, 144588, Control_c, 1, 64, 0
2, 144604, Control_c, 1, 64, 127
2, 144608, Note_off_c, 1, 70, 64
2, 144612, Note_off_c, 1, 79, 64
2, 144620, Note_off_c, 1, 82, 64
2, 144628, Note_off_c, 1, 75, 64
2, 144628, Note_off_c, 1, 43, 64
2, 144636, Note_off_c, 1, 55, 64
2, 144716, Note_on_c, 1, 84, 91
2, 144720, Note_on_c, 1, 72, 84
2, 144732, Note_off_c, 1, 84, 64
2, 144736, Note_off_c, 1, 72, 64
2, 144844, Note_on_c, 1, 55, 96
2, 144844, Note_on_c, 1, 63, 84
2, 144848, Note_on_c, 1, 58, 86
2, 144864, Note_off_c, 1, 63, 64
2, 144864, Note_off_c, 1, 58, 64
2, 144868, Note_off_c, 1, 55, 64
2, 144972, Note_on_c, 1, 82, 100
2, 144984, Note_on_c, 1, 79, 104
2, 144984, Note_on_c, 1, 70, 91
2, 144984, Note_on_c, 1, 75, 80
2, 145116, Note_on_c, 1, 51, 76
2, 145116, Note_on_c, 1, 39, 80
2, 145116, Control_c, 1, 64, 0
2, 145136, Control_c, 1, 64, 127
2, 145160, Note_off_c, 1, 51, 64
2, 145168, Note_off_c, 1, 39, 64
2, 145244, Note_on_c, 1, 50, 88
2, 145244, Control_c, 1, 64, 0
2, 145248, Note_on_c, 1, 38, 88
2, 145260, Control_c, 1, 64, 127
2, 145288, Note_off_c, 1, 50, 64
2, 145300, Note_off_c, 1, 38, 64
2, 145372, Note_on_c, 1, 39, 100
2, 145372, Control_c, 1, 64, 0
2, 145380, Note_on_c, 1, 51, 104
2, 145388, Control_c, 1, 64, 127
2, 145412, Note_off_c, 1, 39, 64
2, 145424, Note_off_c, 1, 70, 64
2, 145424, Note_off_c, 1, 51, 64
2, 145448, Note_off_c, 1, 79, 64
2, 145448, Note_off_c, 1, 75, 64
2, 145480, Note_off_c, 1, 82, 64
2, 145508, Note_on_c, 1, 41, 80
2, 145508, Note_on_c, 1, 53, 104
2, 145508, Control_c, 1, 64, 0
2, 145532, Control_c, 1, 64, 127
2, 145548, Note_off_c, 1, 53, 64
2, 145560, Note_off_c, 1, 41, 64
2, 145560, Note_on_c, 1, 80, 78
2, 145580, Note_off_c, 1, 80, 64
2, 145600, Note_on_c, 1, 81, 81
2, 145632, Note_off_c, 1, 81, 64
2, 145636, Control_c, 1, 64, 0
2, 145640, Note_on_c, 1, 82, 117
2, 145640, Note_on_c, 1, 42, 112
2, 145644, Note_on_c, 1, 54, 108
2, 145664, Control_c, 1, 64, 127
2, 145680, Note_off_c, 1, 82, 64
2, 145684, Note_off_c, 1, 42, 64
2, 145684, Note_off_c, 1, 54, 64
2, 145916, Note_on_c, 1, 82, 88
2, 145916, Note_on_c, 1, 73, 93
2, 145916, Note_on_c, 1, 70, 86
2, 145916, Note_on_c, 1, 61, 70
2, 145916, Note_on_c, 1, 54, 78
2, 145924, Note_on_c, 1, 58, 71
2, 145940, Note_off_c, 1, 61, 64
2, 145940, Note_off_c, 1, 58, 64
2, 145944, Note_off_c, 1, 54, 64
2, 145952, Note_off_c, 1, 70, 64
2, 145956, Note_off_c, 1, 82, 64
2, 146036, Note_on_c, 1, 81, 91
2, 146036, Note_on_c, 1, 69, 73
2, 146048, Note_off_c, 1, 73, 64
2, 146060, Note_off_c, 1, 69, 64
2, 146064, Note_off_c, 1, 81, 64
2, 146156, Control_c, 1, 64, 0
2, 146168, Note_on_c, 1, 43, 93
2, 146168, Note_on_c, 1, 82, 104
2, 146168, Note_on_c, 1, 55, 108
2, 146168, Note_on_c, 1, 73, 93
2, 146168, Note_on_c, 1, 70, 96
2, 146172, Control_c, 1, 64, 127
2, 146188, Note_off_c, 1, 43, 64
2, 146196, Note_off_c, 1, 73, 64
2, 146196, Note_off_c, 1, 70, 64
2, 146204, Note_off_c, 1, 82, 64
2, 146204, Note_off_c, 1, 55, 64
2, 146300, Note_on_c, 1, 85, 76
2, 146300, Note_on_c, 1, 73, 91
2, 146300, Note_on_c, 1, 76, 104
2, 146320, Note_off_c, 1, 76, 64
2, 146328, Note_off_c, 1, 73, 64
2, 146332, Note_off_c, 1, 85, 64
2, 146436, Note_on_c, 1, 75, 91
2, 146440, Note_on_c, 1, 83, 104
2, 146440, Note_on_c, 1, 71, 88
2, 146440, Note_on_c, 1, 55, 78
2, 146440, Note_on_c, 1, 64, 80
2, 146440, Note_on_c, 1, 61, 69
2, 146440, Note_on_c, 1, 58, 70
2, 146448, Note_off_c, 1, 75, 64
2, 146448, Note_off_c, 1, 71, 64
2, 146452, Note_off_c, 1, 83, 64
2, 146488, Note_off_c, 1, 55, 64
2, 146488, Note_off_c, 1, 64, 64
2, 146488, Note_off_c, 1, 61, 64
2, 146488, Note_off_c, 1, 58, 64
2, 146564, Note_on_c, 1, 82, 104
2, 146564, Note_on_c, 1, 73, 78
2, 146564, Note_on_c, 1, 70, 73
2, 146572, Note_off_c, 1, 73, 64
2, 146580, Note_off_c, 1, 70, 64
2, 146588, Note_off_c, 1, 82, 64
2, 146684, Control_c, 1, 64, 0
2, 146688, Note_on_c, 1, 82, 93
2, 146688, Note_on_c, 1, 56, 81
2, 146688, Note_on_c, 1, 44, 96
2, 146692, Note_on_c, 1, 73, 81
2, 146692, Note_on_c, 1, 70, 91
2, 146712, Control_c, 1, 64, 127
2, 146728, Note_off_c, 1, 82, 64
2, 146732, Note_off_c, 1, 73, 64
2, 146740, Note_off_c, 1, 70, 64
2, 146752, Note_off_c, 1, 44, 64
2, 146756, Note_off_c, 1, 56, 64
2, 146824, Note_on_c, 1, 80, 91
2, 146832, Note_on_c, 1, 68, 86
2, 146832, Note_on_c, 1, 71, 104
2, 146964, Note_on_c, 1, 59, 88
2, 146964, Note_on_c, 1, 51, 78
2, 146968, Note_on_c, 1, 56, 75
2, 146972, Note_off_c, 1, 68, 64
2, 146972, Note_off_c, 1, 71, 64
2, 146976, Note_off_c, 1, 80, 64
2, 146984, Note_off_c, 1, 59, 64
2, 146984, Note_off_c, 1, 51, 64
2, 146984, Note_off_c, 1, 56, 64
2, 147108, Note_on_c, 1, 75, 86
2, 147108, Note_on_c, 1, 71, 104
2, 147108, Note_on_c, 1, 80, 84
2, 147112, Note_on_c, 1, 68, 88
2, 147236, Note_on_c, 1, 35, 84
2, 147240, Note_on_c, 1, 47, 104
2, 147240, Control_c, 1, 64, 0
2, 147272, Control_c, 1, 64, 127
2, 147308, Note_off_c, 1, 35, 64
2, 147320, Note_off_c, 1, 47, 64
2, 147376, Note_on_c, 1, 48, 80
2, 147380, Note_on_c, 1, 36, 81
2, 147380, Control_c, 1, 64, 0
2, 147396, Control_c, 1, 64, 127
2, 147416, Note_off_c, 1, 48, 64
2, 147444, Note_off_c, 1, 36, 64
2, 147500, Control_c, 1, 64, 0
2, 147504, Note_on_c, 1, 49, 84
2, 147504, Note_on_c, 1, 37, 86
2, 147516, Control_c, 1, 64, 127
2, 147532, Note_off_c, 1, 37, 0
2, 147544, Note_off_c, 1, 49, 0
2, 147564, Note_off_c, 1, 71, 64
2, 147564, Note_off_c, 1, 75, 64
2, 147564, Note_off_c, 1, 80, 64
2, 147576, Note_off_c, 1, 68, 64
2, 147632, Note_on_c, 1, 38, 84
2, 147632, Note_on_c, 1, 50, 76
2, 147636, Control_c, 1, 64, 0
2, 147648, Control_c, 1, 64, 127
2, 147668, Note_off_c, 1, 50, 64
2, 147672, Note_off_c, 1, 38, 64
2, 147688, Note_on_c, 1, 63, 67
2, 147732, Note_off_c, 1, 63, 64
2, 147732, Note_on_c, 1, 65, 74
2, 147768, Control_c, 1, 64, 0
2, 147776, Note_off_c, 1, 65, 64
2, 147776, Note_on_c, 1, 66, 88
2, 147776, Note_on_c, 1, 39, 108
2, 147780, Note_on_c, 1, 51, 91
2, 147784, Control_c, 1, 64, 127
2, 147816, Note_off_c, 1, 66, 64
2, 147816, Note_off_c, 1, 39, 64
2, 147820, Note_off_c, 1, 51, 64
2, 148044, Note_on_c, 1, 75, 78
2, 148048, Note_on_c, 1, 78, 101
2, 148048, Note_on_c, 1, 63, 84
2, 148048, Note_on_c, 1, 66, 91
2, 148052, Note_on_c, 1, 54, 78
2, 148052, Note_on_c, 1, 58, 71
2, 148064, Note_off_c, 1, 75, 64
2, 148064, Note_off_c, 1, 66, 64
2, 148072, Note_off_c, 1, 63, 64
2, 148076, Note_off_c, 1, 78, 64
2, 148084, Note_off_c, 1, 58, 64
2, 148088, Note_off_c, 1, 54, 64
2, 148168, Note_on_c, 1, 80, 99
2, 148168, Note_on_c, 1, 68, 76
2, 148184, Note_off_c, 1, 68, 64
2, 148196, Note_off_c, 1, 80, 64
2, 148296, Note_on_c, 1, 78, 104
2, 148296, Note_on_c, 1, 81, 108
2, 148296, Control_c, 1, 64, 0
2, 148300, Note_on_c, 1, 47, 104
2, 148300, Note_on_c, 1, 35, 86
2, 148300, Note_on_c, 1, 69, 88
2, 148320, Control_c, 1, 64, 127
2, 148332, Note_off_c, 1, 69, 64
2, 148336, Note_off_c, 1, 78, 64
2, 148344, Note_off_c, 1, 81, 64
2, 148344, Note_off_c, 1, 35, 64
2, 148348, Note_off_c, 1, 47, 64
2, 148440, Note_on_c, 1, 80, 67
2, 148440, Note_on_c, 1, 68, 78
2, 148456, Note_off_c, 1, 80, 64
2, 148456, Note_off_c, 1, 68, 64
2, 148568, Note_on_c, 1, 75, 81
2, 148568, Note_on_c, 1, 81, 96
2, 148568, Note_on_c, 1, 78, 91
2, 148568, Note_on_c, 1, 69, 96
2, 148696, Note_off_c, 1, 75, 64
2, 148696, Note_off_c, 1, 81, 64
2, 148696, Note_off_c, 1, 78, 64
2, 148700, Note_off_c, 1, 69, 64
2, 148828, Note_on_c, 1, 82, 92
2, 148832, Note_on_c, 1, 70, 80
2, 148832, Note_on_c, 1, 77, 104
2, 148832, Note_on_c, 1, 46, 100
2, 148832, Note_on_c, 1, 74, 108
2, 148832, Note_on_c, 1, 34, 73
2, 148836, Control_c, 1, 64, 0
2, 148848, Control_c, 1, 64, 127
2, 148876, Note_off_c, 1, 46, 64
2, 148888, Note_off_c, 1, 34, 64
2, 148964, Note_off_c, 1, 70, 64
2, 148964, Note_off_c, 1, 77, 64
2, 148964, Note_off_c, 1, 74, 64
2, 148972, Note_off_c, 1, 82, 64
2, 149088, Control_c, 1, 64, 0
2, 149104, Note_on_c, 1, 82, 88
2, 149108, Note_on_c, 1, 70, 80
2, 149108, Control_c, 1, 64, 127
2, 149152, Note_off_c, 1, 70, 64
2, 149160, Note_off_c, 1, 82, 64
2, 149224, Note_on_c, 1, 82, 88
2, 149228, Note_on_c, 1, 70, 78
2, 149244, Note_off_c, 1, 82, 64
2, 149244, Note_off_c, 1, 70, 64
2, 149352, Note_on_c, 1, 82, 117
2, 149352, Note_on_c, 1, 70, 100
2, 149364, Note_off_c, 1, 70, 64
2, 149372, Note_off_c, 1, 82, 64
2, 149388, Control_c, 1, 64, 0
2, 149624, Note_on_c, 1, 34, 108
2, 149624, Note_on_c, 1, 46, 121
2, 149628, Control_c, 1, 64, 127
2, 149632, Note_off_c, 1, 34, 64
2, 149636, Note_off_c, 1, 46, 64
2, 149688, Control_c, 1, 64, 0
2, 149820, Note_on_c, 1, 72, 70
2, 149856, Note_off_c, 1, 72, 64
2, 149856, Note_on_c, 1, 73, 72
2, 149896, Note_off_c, 1, 73, 64
2, 149896, Note_on_c, 1, 41, 96
2, 149896, Note_on_c, 1, 53, 108
2, 149900, Note_on_c, 1, 74, 117
2, 149904, Control_c, 1, 64, 127
2, 149920, Note_off_c, 1, 41, 64
2, 149920, Note_off_c, 1, 53, 64
2, 149956, Note_off_c, 1, 74, 64
2, 150152, Note_on_c, 1, 82, 93
2, 150160, Note_on_c, 1, 70, 84
2, 150160, Note_on_c, 1, 74, 108
2, 150160, Note_on_c, 1, 77, 104
2, 150160, Note_on_c, 1, 62, 84
2, 150160, Note_on_c, 1, 58, 78
2, 150164, Note_on_c, 1, 56, 80
2, 150168, Note_off_c, 1, 62, 64
2, 150168, Note_off_c, 1, 58, 64
2, 150172, Note_off_c, 1, 56, 64
2, 150220, Note_off_c, 1, 82, 64
2, 150220, Note_off_c, 1, 70, 64
2, 150280, Note_on_c, 1, 69, 80
2, 150284, Note_on_c, 1, 81, 100
2, 150300, Note_off_c, 1, 77, 64
2, 150300, Note_off_c, 1, 69, 64
2, 150304, Note_off_c, 1, 74, 64
2, 150304, Note_off_c, 1, 81, 64
2, 150404, Note_on_c, 1, 82, 96
2, 150408, Note_on_c, 1, 46, 104
2, 150412, Note_on_c, 1, 74, 112
2, 150412, Note_on_c, 1, 34, 91
2, 150412, Note_on_c, 1, 70, 88
2, 150412, Note_on_c, 1, 77, 88
2, 150412, Control_c, 1, 64, 0
2, 150424, Control_c, 1, 64, 127
2, 150448, Note_off_c, 1, 34, 64
2, 150456, Note_off_c, 1, 46, 64
2, 150476, Note_off_c, 1, 82, 64
2, 150492, Note_off_c, 1, 70, 64
2, 150552, Note_on_c, 1, 81, 93
2, 150560, Note_on_c, 1, 69, 78
2, 150572, Note_off_c, 1, 69, 0
2, 150576, Note_off_c, 1, 74, 0
2, 150576, Note_off_c, 1, 77, 0
2, 150584, Note_off_c, 1, 81, 0
2, 150684, Note_on_c, 1, 82, 93
2, 150684, Note_on_c, 1, 70, 104
2, 150684, Note_on_c, 1, 74, 108
2, 150688, Note_on_c, 1, 77, 93
2, 150688, Note_on_c, 1, 62, 91
2, 150688, Note_on_c, 1, 56, 78
2, 150692, Note_on_c, 1, 58, 80
2, 150704, Note_off_c, 1, 62, 64
2, 150704, Note_off_c, 1, 56, 64
2, 150704, Note_off_c, 1, 58, 64
2, 150756, Note_off_c, 1, 70, 64
2, 150764, Note_off_c, 1, 82, 64
2, 150816, Note_on_c, 1, 81, 93
2, 150820, Note_on_c, 1, 69, 81
2, 150840, Note_off_c, 1, 74, 64
2, 150844, Note_off_c, 1, 77, 64
2, 150844, Note_off_c, 1, 69, 64
2, 150848, Note_off_c, 1, 81, 64
2, 150948, Control_c, 1, 64, 0
2, 150952, Note_on_c, 1, 82, 93
2, 150956, Note_on_c, 1, 74, 112
2, 150956, Note_on_c, 1, 70, 104
2, 150956, Note_on_c, 1, 41, 108
2, 150956, Note_on_c, 1, 53, 108
2, 150956, Note_on_c, 1, 77, 96
2, 150968, Control_c, 1, 64, 127
2, 150992, Note_off_c, 1, 74, 64
2, 150992, Note_off_c, 1, 70, 64
2, 150996, Note_off_c, 1, 77, 64
2, 151000, Note_off_c, 1, 82, 64
2, 151008, Note_off_c, 1, 41, 64
2, 151012, Note_off_c, 1, 53, 64
2, 151088, Note_on_c, 1, 72, 88
2, 151092, Note_on_c, 1, 84, 104
2, 151104, Note_off_c, 1, 72, 64
2, 151104, Note_off_c, 1, 84, 64
2, 151224, Note_on_c, 1, 56, 108
2, 151224, Note_on_c, 1, 58, 100
2, 151228, Note_on_c, 1, 62, 93
2, 151236, Note_off_c, 1, 56, 64
2, 151236, Note_off_c, 1, 58, 64
2, 151240, Note_off_c, 1, 62, 64
2, 151356, Note_on_c, 1, 82, 108
2, 151360, Note_on_c, 1, 74, 108
2, 151360, Note_on_c, 1, 70, 100
2, 151360, Note_on_c, 1, 77, 104
2, 151484, Note_on_c, 1, 53, 93
2, 151484, Control_c, 1, 64, 0
2, 151492, Note_on_c, 1, 41, 104
2, 151492, Note_on_c, 1, 42, 76
2, 151496, Note_off_c, 1, 42, 64
2, 151508, Note_off_c, 1, 41, 64
2, 151508, Control_c, 1, 64, 127
2, 151524, Note_off_c, 1, 53, 64
2, 151616, Note_on_c, 1, 46, 108
2, 151620, Note_on_c, 1, 58, 104
2, 151620, Control_c, 1, 64, 0
2, 151628, Control_c, 1, 64, 127
2, 151680, Note_off_c, 1, 46, 64
2, 151684, Note_off_c, 1, 58, 64
2, 151740, Note_on_c, 1, 57, 108
2, 151744, Note_on_c, 1, 45, 108
2, 151748, Control_c, 1, 64, 0
2, 151768, Control_c, 1, 64, 127
2, 151800, Note_off_c, 1, 57, 64
2, 151812, Note_off_c, 1, 45, 64
2, 151872, Control_c, 1, 64, 0
2, 151876, Note_off_c, 1, 70, 64
2, 151884, Note_off_c, 1, 74, 64
2, 151884, Note_off_c, 1, 77, 64
2, 151884, Note_on_c, 1, 56, 93
2, 151884, Note_on_c, 1, 44, 91
2, 151888, Control_c, 1, 64, 127
2, 151900, Note_off_c, 1, 82, 64
2, 151920, Note_off_c, 1, 56, 64
2, 151924, Note_off_c, 1, 44, 64
2, 151936, Note_on_c, 1, 72, 71
2, 151936, Control_c, 1, 64, 0
2, 151976, Note_off_c, 1, 72, 64
2, 151980, Note_on_c, 1, 74, 86
2, 152020, Note_off_c, 1, 74, 64
2, 152024, Note_on_c, 1, 75, 104
2, 152028, Note_on_c, 1, 43, 100
2, 152028, Note_on_c, 1, 55, 108
2, 152028, Control_c, 1, 64, 127
2, 152040, Note_off_c, 1, 43, 64
2, 152048, Note_off_c, 1, 55, 64
2, 152072, Note_off_c, 1, 75, 64
2, 152288, Note_on_c, 1, 55, 78
2, 152292, Note_on_c, 1, 58, 68
2, 152292, Note_on_c, 1, 63, 66
2, 152292, Note_on_c, 1, 82, 100
2, 152292, Note_on_c, 1, 75, 91
2, 152292, Note_on_c, 1, 79, 97
2, 152292, Note_on_c, 1, 70, 81
2, 152308, Note_off_c, 1, 55, 64
2, 152308, Note_off_c, 1, 58, 64
2, 152308, Note_off_c, 1, 63, 64
2, 152348, Note_off_c, 1, 82, 64
2, 152356, Note_off_c, 1, 70, 64
2, 152420, Note_off_c, 1, 79, 64
2, 152420, Note_on_c, 1, 81, 92
2, 152424, Note_on_c, 1, 69, 89
2, 152432, Note_off_c, 1, 75, 64
2, 152440, Note_off_c, 1, 81, 64
2, 152440, Note_off_c, 1, 69, 64
2, 152544, Note_on_c, 1, 79, 100
2, 152544, Note_on_c, 1, 75, 95
2, 152544, Note_on_c, 1, 82, 92
2, 152544, Control_c, 1, 64, 0
2, 152552, Note_on_c, 1, 70, 100
2, 152556, Note_on_c, 1, 51, 99
2, 152556, Note_on_c, 1, 39, 100
2, 152556, Control_c, 1, 64, 127
2, 152584, Note_off_c, 1, 39, 64
2, 152588, Note_off_c, 1, 51, 64
2, 152596, Note_off_c, 1, 82, 64
2, 152600, Note_off_c, 1, 70, 64
2, 152680, Note_off_c, 1, 79, 64
2, 152684, Note_on_c, 1, 81, 96
2, 152688, Note_on_c, 1, 69, 87
2, 152692, Note_off_c, 1, 75, 64
2, 152704, Note_off_c, 1, 69, 64
2, 152708, Note_off_c, 1, 81, 64
2, 152824, Note_on_c, 1, 75, 95
2, 152824, Note_on_c, 1, 79, 103
2, 152824, Note_on_c, 1, 82, 98
2, 152824, Note_on_c, 1, 70, 104
2, 152832, Note_on_c, 1, 55, 86
2, 152832, Note_on_c, 1, 58, 69
2, 152832, Note_on_c, 1, 63, 70
2, 152888, Note_off_c, 1, 82, 64
2, 152888, Note_off_c, 1, 70, 64
2, 152956, Note_off_c, 1, 63, 64
2, 152960, Note_off_c, 1, 58, 64
2, 152960, Note_on_c, 1, 81, 95
2, 152960, Note_on_c, 1, 69, 80
2, 152968, Note_off_c, 1, 79, 64
2, 152968, Note_off_c, 1, 55, 64
2, 152976, Note_off_c, 1, 75, 64
2, 152980, Note_off_c, 1, 69, 64
2, 152984, Note_off_c, 1, 81, 64
2, 153080, Note_on_c, 1, 82, 98
2, 153080, Note_on_c, 1, 70, 108
2, 153084, Note_on_c, 1, 79, 100
2, 153084, Note_on_c, 1, 75, 87
2, 153084, Note_on_c, 1, 51, 112
2, 153084, Note_on_c, 1, 39, 90
2, 153100, Note_off_c, 1, 51, 0
2, 153100, Note_off_c, 1, 39, 0
2, 153112, Note_off_c, 1, 70, 0
2, 153116, Note_off_c, 1, 82, 0
2, 153196, Note_off_c, 1, 79, 0
2, 153208, Note_on_c, 1, 84, 97
2, 153216, Note_off_c, 1, 75, 0
2, 153216, Note_on_c, 1, 72, 78
2, 153232, Note_off_c, 1, 84, 64
2, 153232, Note_off_c, 1, 72, 64
2, 153344, Note_on_c, 1, 63, 81
2, 153348, Note_on_c, 1, 55, 79
2, 153348, Note_on_c, 1, 58, 76
2, 153472, Note_on_c, 1, 79, 100
2, 153472, Note_on_c, 1, 82, 95
2, 153480, Note_on_c, 1, 70, 87
2, 153480, Note_on_c, 1, 75, 84
2, 153488, Note_off_c, 1, 55, 64
2, 153492, Note_off_c, 1, 58, 64
2, 153496, Note_off_c, 1, 63, 64
2, 153604, Note_on_c, 1, 63, 80
2, 153604, Note_on_c, 1, 55, 95
2, 153612, Note_on_c, 1, 58, 85
2, 153616, Note_off_c, 1, 79, 64
2, 153624, Note_off_c, 1, 70, 64
2, 153624, Note_off_c, 1, 75, 64
2, 153624, Note_off_c, 1, 82, 64
2, 153624, Note_off_c, 1, 63, 64
2, 153624, Note_off_c, 1, 55, 64
2, 153624, Note_off_c, 1, 58, 64
2, 153872, Note_on_c, 1, 68, 84
2, 153872, Note_on_c, 1, 58, 84
2, 153876, Note_on_c, 1, 62, 96
2, 153884, Note_on_c, 1, 46, 103
2, 153884, Note_on_c, 1, 34, 102
2, 153884, Control_c, 1, 64, 0
2, 153936, Control_c, 1, 64, 127
2, 153976, Note_off_c, 1, 62, 64
2, 153976, Note_off_c, 1, 34, 64
2, 153980, Note_off_c, 1, 46, 64
2, 153992, Note_off_c, 1, 58, 64
2, 153996, Note_off_c, 1, 68, 64
2, 154160, Note_on_c, 1, 39, 75
2, 154164, Note_on_c, 1, 67, 78
2, 154164, Note_on_c, 1, 51, 76
2, 154164, Note_on_c, 1, 63, 72
2, 154164, Note_on_c, 1, 58, 64
2, 154164, Control_c, 1, 64, 0
2, 154176, Note_off_c, 1, 63, 64
2, 154184, Note_off_c, 1, 58, 64
2, 154188, Note_off_c, 1, 67, 64
2, 154288, Note_on_c, 1, 58, 61
2, 154292, Note_on_c, 1, 63, 66
2, 154292, Note_on_c, 1, 67, 73
2, 154312, Control_c, 1, 64, 127
2, 154408, Note_off_c, 1, 58, 64
2, 154412, Note_off_c, 1, 63, 64
2, 154412, Note_off_c, 1, 67, 64
2, 154416, Note_off_c, 1, 39, 64
2, 154420, Note_off_c, 1, 51, 64
2, 154548, Note_on_c, 1, 67, 68
2, 154552, Note_on_c, 1, 38, 48
2, 154552, Note_on_c, 1, 65, 50
2, 154552, Note_on_c, 1, 59, 64
2, 154552, Control_c, 1, 64, 0
2, 154556, Note_on_c, 1, 50, 59
2, 154676, Control_c, 1, 64, 127
2, 154760, Note_off_c, 1, 65, 64
2, 154760, Note_off_c, 1, 59, 64
2, 154768, Note_off_c, 1, 67, 64
2, 154768, Note_off_c, 1, 50, 64
2, 154780, Note_off_c, 1, 38, 64
2, 154964, Note_on_c, 1, 37, 44
2, 154964, Note_on_c, 1, 67, 60
2, 154972, Note_on_c, 1, 58, 48
2, 154972, Note_on_c, 1, 49, 48
2, 154976, Note_on_c, 1, 65, 57
2, 154984, Control_c, 1, 64, 0
2, 154996, Control_c, 1, 64, 127
2, 155040, Note_off_c, 1, 49, 64
2, 155044, Note_off_c, 1, 37, 64
2, 155056, Note_off_c, 1, 65, 64
2, 155068, Note_off_c, 1, 58, 64
2, 155072, Note_off_c, 1, 67, 64
2, 155224, Note_on_c, 1, 67, 68
2, 155228, Note_on_c, 1, 58, 56
2, 155228, Note_on_c, 1, 64, 51
2, 155232, Note_on_c, 1, 36, 42
2, 155232, Note_on_c, 1, 48, 44
2, 155248, Control_c, 1, 64, 0
2, 155280, Control_c, 1, 64, 127
2, 155336, Note_off_c, 1, 58, 64
2, 155340, Note_off_c, 1, 64, 64
2, 155344, Note_off_c, 1, 67, 64
2, 155504, Note_on_c, 1, 67, 60
2, 155508, Note_on_c, 1, 58, 59
2, 155508, Note_on_c, 1, 64, 68
2, 155516, Control_c, 1, 64, 0
2, 155528, Control_c, 1, 64, 127
2, 155628, Note_off_c, 1, 64, 64
2, 155632, Note_off_c, 1, 67, 64
2, 155632, Note_off_c, 1, 58, 64
2, 155772, Note_on_c, 1, 67, 70
2, 155780, Note_on_c, 1, 63, 44
2, 155780, Note_on_c, 1, 57, 48
2, 155780, Control_c, 1, 64, 0
2, 155892, Note_off_c, 1, 67, 64
2, 155900, Note_on_c, 1, 65, 61
2, 156040, Note_off_c, 1, 36, 64
2, 156052, Note_off_c, 1, 48, 64
2, 156104, Note_on_c, 1, 41, 75
2, 156104, Control_c, 1, 64, 127
2, 156124, Note_off_c, 1, 41, 64
2, 156216, Note_off_c, 1, 63, 64
2, 156216, Note_on_c, 1, 42, 70
2, 156220, Note_off_c, 1, 65, 64
2, 156228, Note_off_c, 1, 57, 64
2, 156236, Note_off_c, 1, 42, 0
2, 156236, Note_on_c, 1, 44, 76
2, 156268, Note_on_c, 1, 46, 73
2, 156280, Note_off_c, 1, 44, 64
2, 156304, Note_off_c, 1, 46, 64
2, 156312, Note_on_c, 1, 47, 78
2, 156324, Control_c, 1, 64, 0
2, 156336, Note_on_c, 1, 65, 72
2, 156336, Note_on_c, 1, 56, 66
2, 156336, Note_on_c, 1, 63, 44
2, 156380, Control_c, 1, 64, 127
2, 156408, Note_off_c, 1, 63, 64
2, 156424, Note_off_c, 1, 65, 64
2, 156424, Note_off_c, 1, 56, 64
2, 156504, Note_on_c, 1, 56, 62
2, 156504, Note_on_c, 1, 65, 68
2, 156580, Control_c, 1, 64, 127
2, 156636, Note_off_c, 1, 56, 64
2, 156640, Note_off_c, 1, 65, 64
2, 156644, Note_off_c, 1, 47, 64
2, 156768, Note_on_c, 1, 62, 46
2, 156772, Note_on_c, 1, 46, 47
2, 156772, Note_on_c, 1, 56, 49
2, 156776, Note_on_c, 1, 65, 64
2, 156776, Control_c, 1, 64, 0
2, 156808, Control_c, 1, 64, 127
2, 156896, Note_off_c, 1, 56, 64
2, 156908, Note_off_c, 1, 62, 64
2, 156920, Note_off_c, 1, 65, 64
2, 157072, Control_c, 1, 64, 0
2, 157184, Note_on_c, 1, 70, 68
2, 157188, Control_c, 1, 64, 127
2, 157204, Note_off_c, 1, 70, 64
2, 157332, Note_off_c, 1, 46, 64
2, 157476, Note_on_c, 1, 51, 44
2, 157484, Note_on_c, 1, 63, 49
2, 157484, Note_on_c, 1, 58, 57
2, 157488, Note_on_c, 1, 55, 60
2, 157500, Note_off_c, 1, 51, 64
2, 157500, Control_c, 1, 64, 0
2, 157536, Note_off_c, 1, 58, 64
2, 157536, Note_off_c, 1, 55, 64
2, 157544, Note_off_c, 1, 63, 64
2, 157796, Note_on_c, 1, 46, 64
2, 157832, Note_off_c, 1, 46, 64
2, 158120, Note_on_c, 1, 27, 121
2, 158124, Note_on_c, 1, 70, 121
2, 158128, Note_on_c, 1, 34, 121
2, 158128, Note_on_c, 1, 67, 121
2, 158128, Note_on_c, 1, 63, 116
2, 158128, Note_on_c, 1, 75, 121
2, 158132, Note_on_c, 1, 39, 121
2, 158132, Control_c, 1, 64, 127
2, 158168, Note_off_c, 1, 70, 64
2, 158168, Note_off_c, 1, 34, 64
2, 158172, Note_off_c, 1, 27, 64
2, 158172, Note_off_c, 1, 67, 64
2, 158172, Note_off_c, 1, 63, 64
2, 158172, Note_off_c, 1, 39, 64
2, 158180, Note_off_c, 1, 75, 64
2, 158224, Control_c, 1, 64, 0
2, 158224, End_track
3, 0, Start_track
3, 0, Title_t, "Alessandro Simonetto, piano"
3, 0, Key_signature, 0, "major"
3, 0, End_track
4, 0, Start_track
4, 0, Title_t, "Info: www.kunstderfuge.com/ragtime.htm!"
4, 0, Key_signature, 0, "major"
4, 0, End_track
5, 0, Start_track
5, 0, Title_t, "All rights reserved,  2003-04"
5, 0, Key_signature, 0, "major"
5, 0, End_track
6, 0, Start_track
6, 0, Key_signature, 0, "major"
6, 0, End_track
7, 0, Start_track
7, 0, Key_signature, 0, "major"
7, 0, End_track
8, 0, Start_track
8, 0, Key_signature, 0, "major"
8, 0, End_track
9, 0, Start_track
9, 0, Key_signature, 0, "major"
9, 0, End_track
10, 0, Start_track
10, 0, Key_signature, 0, "major"
10, 0, End_track
11, 0, Start_track
11, 0, Key_signature, 0, "major"
11, 0, End_track
12, 0, Start_track
12, 0, Key_signature, 0, "major"
12, 0, End_track
13, 0, Start_track
13, 0, Key_signature, 0, "major"
13, 0, End_track
14, 0, Start_track
14, 0, Key_signature, 0, "major"
14, 0, End_track
15, 0, Start_track
15, 0, Key_signature, 0, "major"
15, 0, End_track
16, 0, Start_track
16, 0, Key_signature, 0, "major"
16, 0, End_track
17, 0, Start_track
17, 0, Key_signature, 0, "major"
17, 0, End_track
18, 0, Start_track
18, 1, Copyright_t, "___________________________________________________\012\012KUNSTDERFUGE.COM LARGE CLASSICAL MIDI COLLECTION\012ONCLASSICAL BY ALESSANDRO SIMONETTO, PROPRIETOR\012___________________________________________________\012\012! Attention: this file is under copyright !\012\012(c)onclassical, (c)simonetto, 2010\012___________________________________________________\012\012NO ONE MAY REPUBLISH THIS FILE WITHOUT PERMISSION\012COMMERCIAL USES OF THIS FILE IS STRICTLY PROHIBITED\012___________________________________________________\012\012Files & contributor's list: http://kunstderfuge.com/\012Terms and conditions: http://kunstderfuge.com/notes.htm"
18, 1, End_track
0, 0, End_of_file
