0, 0, Header, 1, 8, 192
1, 0, Start_track
1, 0, Title_t, "9497S"
1, 0, Copyright_t, "May NOT be used for commercial purposes."
1, 0, Text_t, "Roll expression/accent tracks, where present, converted to MIDI velocties.\012"
1, 0, Time_signature, 4, 2, 24, 8
1, 0, Key_signature, 0, "major"
1, 0, Tempo, 500000
1, 0, Marker_t, "Standard MIDI:LPI 117:Tempo  70: 12-05-2003"
1, 0, End_track
2, 0, Start_track
2, 0, Title_t, "Scott Joplin Rags (Fig Leaf, Sensation)"
2, 1, Control_c, 0, 64, 127
2, 74, Control_c, 0, 64, 0
2, 161, Note_on_c, 0, 54, 80
2, 161, Note_on_c, 0, 66, 80
2, 161, Note_on_c, 0, 78, 80
2, 163, Note_on_c, 0, 42, 80
2, 228, Note_on_c, 0, 78, 0
2, 230, Note_on_c, 0, 54, 0
2, 230, Note_on_c, 0, 66, 0
2, 240, Note_on_c, 0, 65, 80
2, 240, Note_on_c, 0, 77, 80
2, 241, Note_on_c, 0, 41, 80
2, 241, Note_on_c, 0, 53, 80
2, 243, Note_on_c, 0, 42, 0
2, 279, Note_on_c, 0, 66, 80
2, 279, Note_on_c, 0, 78, 80
2, 281, Note_on_c, 0, 65, 0
2, 281, Note_on_c, 0, 77, 0
2, 281, Note_on_c, 0, 42, 80
2, 281, Note_on_c, 0, 54, 80
2, 283, Note_on_c, 0, 53, 0
2, 283, Note_on_c, 0, 41, 0
2, 306, Note_on_c, 0, 78, 0
2, 306, Note_on_c, 0, 66, 0
2, 306, Note_on_c, 0, 54, 0
2, 322, Note_on_c, 0, 42, 0
2, 358, Note_on_c, 0, 45, 80
2, 358, Note_on_c, 0, 57, 80
2, 358, Note_on_c, 0, 69, 80
2, 358, Note_on_c, 0, 81, 80
2, 463, Note_on_c, 0, 81, 0
2, 465, Note_on_c, 0, 45, 0
2, 465, Note_on_c, 0, 57, 0
2, 465, Note_on_c, 0, 69, 0
2, 472, Note_on_c, 0, 80, 80
2, 474, Note_on_c, 0, 56, 80
2, 474, Note_on_c, 0, 68, 80
2, 476, Note_on_c, 0, 44, 80
2, 511, Note_on_c, 0, 81, 80
2, 513, Note_on_c, 0, 45, 80
2, 513, Note_on_c, 0, 57, 80
2, 513, Note_on_c, 0, 69, 80
2, 515, Note_on_c, 0, 68, 0
2, 515, Note_on_c, 0, 80, 0
2, 515, Note_on_c, 0, 56, 0
2, 517, Note_on_c, 0, 44, 0
2, 580, Note_on_c, 0, 81, 0
2, 580, Note_on_c, 0, 69, 0
2, 582, Note_on_c, 0, 57, 0
2, 582, Note_on_c, 0, 45, 0
2, 629, Note_on_c, 0, 71, 80
2, 629, Note_on_c, 0, 83, 80
2, 631, Note_on_c, 0, 47, 80
2, 631, Note_on_c, 0, 59, 80
2, 699, Note_on_c, 0, 83, 0
2, 699, Note_on_c, 0, 71, 0
2, 701, Note_on_c, 0, 59, 0
2, 711, Note_on_c, 0, 46, 80
2, 711, Note_on_c, 0, 58, 80
2, 711, Note_on_c, 0, 70, 80
2, 711, Note_on_c, 0, 82, 80
2, 713, Note_on_c, 0, 47, 0
2, 745, Note_on_c, 0, 83, 80
2, 747, Note_on_c, 0, 71, 80
2, 749, Note_on_c, 0, 70, 0
2, 749, Note_on_c, 0, 47, 80
2, 749, Note_on_c, 0, 59, 80
2, 751, Note_on_c, 0, 82, 0
2, 751, Note_on_c, 0, 46, 0
2, 751, Note_on_c, 0, 58, 0
2, 772, Note_on_c, 0, 83, 0
2, 772, Note_on_c, 0, 71, 0
2, 774, Note_on_c, 0, 47, 0
2, 774, Note_on_c, 0, 59, 0
2, 821, Note_on_c, 0, 73, 80
2, 821, Note_on_c, 0, 85, 80
2, 823, Note_on_c, 0, 49, 80
2, 823, Note_on_c, 0, 61, 80
2, 929, Note_on_c, 0, 61, 0
2, 929, Note_on_c, 0, 73, 0
2, 929, Note_on_c, 0, 85, 0
2, 931, Note_on_c, 0, 49, 0
2, 940, Note_on_c, 0, 48, 80
2, 940, Note_on_c, 0, 60, 80
2, 940, Note_on_c, 0, 72, 80
2, 940, Note_on_c, 0, 84, 80
2, 981, Note_on_c, 0, 61, 80
2, 981, Note_on_c, 0, 73, 80
2, 981, Note_on_c, 0, 85, 80
2, 983, Note_on_c, 0, 84, 0
2, 983, Note_on_c, 0, 72, 0
2, 983, Note_on_c, 0, 60, 0
2, 983, Note_on_c, 0, 49, 80
2, 984, Note_on_c, 0, 48, 0
2, 1048, Note_on_c, 0, 61, 0
2, 1048, Note_on_c, 0, 85, 0
2, 1048, Note_on_c, 0, 73, 0
2, 1050, Note_on_c, 0, 49, 0
2, 1094, Note_on_c, 0, 88, 80
2, 1096, Note_on_c, 0, 64, 80
2, 1096, Note_on_c, 0, 76, 80
2, 1098, Note_on_c, 0, 52, 80
2, 1163, Note_on_c, 0, 76, 0
2, 1163, Note_on_c, 0, 88, 0
2, 1165, Note_on_c, 0, 64, 0
2, 1165, Note_on_c, 0, 52, 0
2, 1172, Note_on_c, 0, 72, 80
2, 1172, Note_on_c, 0, 84, 80
2, 1174, Note_on_c, 0, 48, 80
2, 1174, Note_on_c, 0, 60, 80
2, 1211, Note_on_c, 0, 73, 80
2, 1211, Note_on_c, 0, 85, 80
2, 1213, Note_on_c, 0, 84, 0
2, 1213, Note_on_c, 0, 49, 80
2, 1213, Note_on_c, 0, 61, 80
2, 1215, Note_on_c, 0, 60, 0
2, 1215, Note_on_c, 0, 72, 0
2, 1215, Note_on_c, 0, 48, 0
2, 1278, Note_on_c, 0, 73, 0
2, 1278, Note_on_c, 0, 85, 0
2, 1280, Note_on_c, 0, 61, 0
2, 1282, Note_on_c, 0, 49, 0
2, 1284, Note_on_c, 0, 68, 80
2, 1284, Note_on_c, 0, 80, 80
2, 1286, Note_on_c, 0, 44, 80
2, 1286, Note_on_c, 0, 56, 80
2, 1326, Note_on_c, 0, 81, 80
2, 1326, Note_on_c, 0, 57, 80
2, 1326, Note_on_c, 0, 69, 80
2, 1328, Note_on_c, 0, 80, 0
2, 1328, Note_on_c, 0, 68, 0
2, 1328, Note_on_c, 0, 45, 80
2, 1330, Note_on_c, 0, 56, 0
2, 1330, Note_on_c, 0, 44, 0
2, 1353, Note_on_c, 0, 81, 0
2, 1353, Note_on_c, 0, 69, 0
2, 1353, Note_on_c, 0, 57, 0
2, 1355, Note_on_c, 0, 45, 0
2, 1399, Note_on_c, 0, 66, 80
2, 1399, Note_on_c, 0, 78, 80
2, 1401, Note_on_c, 0, 42, 80
2, 1401, Note_on_c, 0, 54, 80
2, 1516, Note_on_c, 0, 77, 80
2, 1518, Note_on_c, 0, 78, 0
2, 1518, Note_on_c, 0, 41, 80
2, 1518, Note_on_c, 0, 53, 80
2, 1518, Note_on_c, 0, 65, 80
2, 1520, Note_on_c, 0, 54, 0
2, 1520, Note_on_c, 0, 66, 0
2, 1520, Note_on_c, 0, 42, 0
2, 1556, Note_on_c, 0, 76, 80
2, 1558, Note_on_c, 0, 77, 0
2, 1558, Note_on_c, 0, 40, 80
2, 1558, Note_on_c, 0, 52, 80
2, 1558, Note_on_c, 0, 64, 80
2, 1560, Note_on_c, 0, 41, 0
2, 1560, Note_on_c, 0, 65, 0
2, 1560, Note_on_c, 0, 53, 0
2, 1600, Note_on_c, 0, 64, 0
2, 1600, Note_on_c, 0, 76, 0
2, 1600, Note_on_c, 0, 52, 0
2, 1602, Note_on_c, 0, 40, 0
2, 1750, Note_on_c, 0, 83, 80
2, 1752, Note_on_c, 0, 40, 80
2, 1766, Note_on_c, 0, 83, 0
2, 1766, Note_on_c, 0, 85, 80
2, 1773, Control_c, 0, 64, 127
2, 1779, Note_on_c, 0, 86, 80
2, 1781, Note_on_c, 0, 85, 0
2, 1791, Note_on_c, 0, 76, 80
2, 1791, Note_on_c, 0, 80, 80
2, 1791, Note_on_c, 0, 83, 80
2, 1791, Note_on_c, 0, 88, 80
2, 1793, Note_on_c, 0, 86, 0
2, 1793, Note_on_c, 0, 50, 80
2, 1793, Note_on_c, 0, 56, 80
2, 1833, Note_on_c, 0, 76, 0
2, 1833, Note_on_c, 0, 83, 0
2, 1833, Note_on_c, 0, 80, 0
2, 1833, Note_on_c, 0, 88, 0
2, 1835, Note_on_c, 0, 40, 0
2, 1835, Note_on_c, 0, 56, 0
2, 1835, Note_on_c, 0, 50, 0
2, 1875, Control_c, 0, 64, 0
2, 1911, Note_on_c, 0, 40, 80
2, 1913, Note_on_c, 0, 28, 80
2, 1978, Note_on_c, 0, 40, 0
2, 1980, Note_on_c, 0, 28, 0
2, 2024, Note_on_c, 0, 45, 80
2, 2024, Note_on_c, 0, 64, 80
2, 2024, Note_on_c, 0, 69, 80
2, 2024, Note_on_c, 0, 73, 80
2, 2024, Note_on_c, 0, 76, 80
2, 2026, Note_on_c, 0, 33, 80
2, 2057, Note_on_c, 0, 69, 0
2, 2071, Note_on_c, 0, 45, 0
2, 2071, Note_on_c, 0, 33, 0
2, 2094, Note_on_c, 0, 64, 0
2, 2094, Note_on_c, 0, 73, 0
2, 2094, Note_on_c, 0, 76, 0
2, 2104, Note_on_c, 0, 69, 80
2, 2104, Note_on_c, 0, 81, 80
2, 2141, Note_on_c, 0, 85, 80
2, 2143, Note_on_c, 0, 52, 80
2, 2143, Note_on_c, 0, 57, 80
2, 2143, Note_on_c, 0, 61, 80
2, 2143, Note_on_c, 0, 73, 80
2, 2145, Note_on_c, 0, 81, 0
2, 2145, Note_on_c, 0, 69, 0
2, 2166, Note_on_c, 0, 85, 0
2, 2166, Note_on_c, 0, 73, 0
2, 2168, Note_on_c, 0, 61, 0
2, 2168, Note_on_c, 0, 57, 0
2, 2170, Note_on_c, 0, 52, 0
2, 2217, Note_on_c, 0, 88, 80
2, 2217, Note_on_c, 0, 76, 80
2, 2259, Note_on_c, 0, 37, 80
2, 2259, Note_on_c, 0, 49, 80
2, 2300, Note_on_c, 0, 49, 0
2, 2300, Note_on_c, 0, 37, 0
2, 2321, Note_on_c, 0, 88, 0
2, 2323, Note_on_c, 0, 76, 0
2, 2332, Note_on_c, 0, 69, 80
2, 2332, Note_on_c, 0, 81, 80
2, 2373, Note_on_c, 0, 52, 80
2, 2373, Note_on_c, 0, 57, 80
2, 2373, Note_on_c, 0, 61, 80
2, 2373, Note_on_c, 0, 71, 80
2, 2373, Note_on_c, 0, 83, 80
2, 2375, Note_on_c, 0, 81, 0
2, 2375, Note_on_c, 0, 69, 0
2, 2398, Note_on_c, 0, 57, 0
2, 2398, Note_on_c, 0, 61, 0
2, 2398, Note_on_c, 0, 52, 0
2, 2435, Note_on_c, 0, 83, 0
2, 2435, Note_on_c, 0, 71, 0
2, 2445, Note_on_c, 0, 73, 80
2, 2445, Note_on_c, 0, 85, 80
2, 2482, Note_on_c, 0, 68, 80
2, 2482, Note_on_c, 0, 80, 80
2, 2484, Note_on_c, 0, 85, 0
2, 2484, Note_on_c, 0, 73, 0
2, 2484, Note_on_c, 0, 38, 80
2, 2484, Note_on_c, 0, 50, 80
2, 2526, Note_on_c, 0, 50, 0
2, 2526, Note_on_c, 0, 38, 0
2, 2549, Note_on_c, 0, 68, 0
2, 2549, Note_on_c, 0, 80, 0
2, 2559, Note_on_c, 0, 69, 80
2, 2559, Note_on_c, 0, 81, 80
2, 2599, Note_on_c, 0, 57, 80
2, 2599, Note_on_c, 0, 62, 80
2, 2599, Note_on_c, 0, 66, 80
2, 2599, Note_on_c, 0, 78, 80
2, 2601, Note_on_c, 0, 54, 80
2, 2603, Note_on_c, 0, 81, 0
2, 2603, Note_on_c, 0, 69, 0
2, 2629, Note_on_c, 0, 57, 0
2, 2629, Note_on_c, 0, 66, 0
2, 2629, Note_on_c, 0, 62, 0
2, 2629, Note_on_c, 0, 54, 0
2, 2629, Note_on_c, 0, 78, 0
2, 2673, Note_on_c, 0, 69, 80
2, 2673, Note_on_c, 0, 73, 80
2, 2673, Note_on_c, 0, 76, 80
2, 2675, Note_on_c, 0, 64, 80
2, 2717, Note_on_c, 0, 37, 80
2, 2717, Note_on_c, 0, 49, 80
2, 2783, Note_on_c, 0, 64, 0
2, 2783, Note_on_c, 0, 76, 0
2, 2783, Note_on_c, 0, 69, 0
2, 2783, Note_on_c, 0, 73, 0
2, 2784, Note_on_c, 0, 49, 0
2, 2784, Note_on_c, 0, 37, 0
2, 2789, Note_on_c, 0, 77, 80
2, 2791, Note_on_c, 0, 65, 80
2, 2832, Note_on_c, 0, 66, 80
2, 2832, Note_on_c, 0, 78, 80
2, 2833, Note_on_c, 0, 65, 0
2, 2833, Note_on_c, 0, 77, 0
2, 2833, Note_on_c, 0, 36, 80
2, 2833, Note_on_c, 0, 48, 80
2, 2902, Note_on_c, 0, 66, 0
2, 2902, Note_on_c, 0, 78, 0
2, 2908, Note_on_c, 0, 79, 80
2, 2910, Note_on_c, 0, 67, 80
2, 2951, Note_on_c, 0, 68, 80
2, 2951, Note_on_c, 0, 74, 80
2, 2951, Note_on_c, 0, 76, 80
2, 2951, Note_on_c, 0, 80, 80
2, 2952, Note_on_c, 0, 79, 0
2, 2952, Note_on_c, 0, 47, 80
2, 2954, Note_on_c, 0, 67, 0
2, 2954, Note_on_c, 0, 35, 80
2, 2956, Note_on_c, 0, 48, 0
2, 2956, Note_on_c, 0, 36, 0
2, 2997, Note_on_c, 0, 47, 0
2, 2999, Note_on_c, 0, 35, 0
2, 3020, Note_on_c, 0, 68, 0
2, 3020, Note_on_c, 0, 76, 0
2, 3020, Note_on_c, 0, 80, 0
2, 3020, Note_on_c, 0, 74, 0
2, 3029, Note_on_c, 0, 71, 80
2, 3029, Note_on_c, 0, 83, 80
2, 3067, Note_on_c, 0, 56, 80
2, 3067, Note_on_c, 0, 59, 80
2, 3067, Note_on_c, 0, 62, 80
2, 3067, Note_on_c, 0, 74, 80
2, 3067, Note_on_c, 0, 86, 80
2, 3069, Note_on_c, 0, 83, 0
2, 3069, Note_on_c, 0, 71, 0
2, 3069, Note_on_c, 0, 52, 80
2, 3095, Note_on_c, 0, 86, 0
2, 3096, Note_on_c, 0, 56, 0
2, 3096, Note_on_c, 0, 62, 0
2, 3096, Note_on_c, 0, 59, 0
2, 3096, Note_on_c, 0, 52, 0
2, 3096, Note_on_c, 0, 74, 0
2, 3141, Note_on_c, 0, 83, 80
2, 3152, Note_on_c, 0, 86, 80
2, 3152, Note_on_c, 0, 90, 80
2, 3154, Note_on_c, 0, 78, 80
2, 3154, Note_on_c, 0, 80, 80
2, 3187, Control_c, 0, 64, 127
2, 3198, Note_on_c, 0, 28, 80
2, 3198, Note_on_c, 0, 40, 80
2, 3239, Note_on_c, 0, 40, 0
2, 3239, Note_on_c, 0, 28, 0
2, 3239, Control_c, 0, 64, 0
2, 3260, Note_on_c, 0, 90, 0
2, 3262, Note_on_c, 0, 78, 0
2, 3271, Note_on_c, 0, 89, 80
2, 3273, Note_on_c, 0, 77, 80
2, 3313, Note_on_c, 0, 76, 80
2, 3313, Note_on_c, 0, 88, 80
2, 3315, Note_on_c, 0, 89, 0
2, 3315, Note_on_c, 0, 52, 80
2, 3315, Note_on_c, 0, 56, 80
2, 3315, Note_on_c, 0, 59, 80
2, 3315, Note_on_c, 0, 62, 80
2, 3317, Note_on_c, 0, 77, 0
2, 3340, Note_on_c, 0, 62, 0
2, 3340, Note_on_c, 0, 56, 0
2, 3340, Note_on_c, 0, 59, 0
2, 3340, Note_on_c, 0, 52, 0
2, 3381, Note_on_c, 0, 86, 0
2, 3381, Note_on_c, 0, 88, 0
2, 3395, Note_on_c, 0, 80, 0
2, 3395, Note_on_c, 0, 76, 0
2, 3395, Note_on_c, 0, 83, 0
2, 3447, Note_on_c, 0, 33, 80
2, 3447, Note_on_c, 0, 45, 80
2, 3447, Note_on_c, 0, 69, 80
2, 3447, Note_on_c, 0, 73, 80
2, 3447, Note_on_c, 0, 76, 80
2, 3447, Note_on_c, 0, 81, 80
2, 3473, Note_on_c, 0, 73, 0
2, 3489, Note_on_c, 0, 45, 0
2, 3501, Note_on_c, 0, 33, 0
2, 3512, Note_on_c, 0, 69, 0
2, 3512, Note_on_c, 0, 81, 0
2, 3512, Note_on_c, 0, 76, 0
2, 3522, Note_on_c, 0, 73, 80
2, 3522, Note_on_c, 0, 85, 80
2, 3559, Note_on_c, 0, 76, 80
2, 3559, Note_on_c, 0, 88, 80
2, 3561, Note_on_c, 0, 57, 80
2, 3561, Note_on_c, 0, 61, 80
2, 3563, Note_on_c, 0, 85, 0
2, 3563, Note_on_c, 0, 73, 0
2, 3573, Note_on_c, 0, 52, 80
2, 3589, Note_on_c, 0, 88, 0
2, 3591, Note_on_c, 0, 76, 0
2, 3602, Note_on_c, 0, 61, 0
2, 3604, Note_on_c, 0, 52, 0
2, 3604, Note_on_c, 0, 57, 0
2, 3637, Note_on_c, 0, 78, 80
2, 3637, Note_on_c, 0, 85, 80
2, 3637, Note_on_c, 0, 90, 80
2, 3651, Note_on_c, 0, 81, 80
2, 3694, Note_on_c, 0, 28, 80
2, 3694, Note_on_c, 0, 40, 80
2, 3738, Note_on_c, 0, 40, 0
2, 3738, Note_on_c, 0, 28, 0
2, 3757, Note_on_c, 0, 90, 0
2, 3757, Note_on_c, 0, 85, 0
2, 3759, Note_on_c, 0, 78, 0
2, 3759, Note_on_c, 0, 81, 0
2, 3768, Note_on_c, 0, 77, 80
2, 3768, Note_on_c, 0, 89, 80
2, 3806, Note_on_c, 0, 88, 80
2, 3806, Note_on_c, 0, 76, 80
2, 3806, Note_on_c, 0, 81, 80
2, 3806, Note_on_c, 0, 85, 80
2, 3808, Note_on_c, 0, 89, 0
2, 3808, Note_on_c, 0, 52, 80
2, 3808, Note_on_c, 0, 57, 80
2, 3808, Note_on_c, 0, 61, 80
2, 3810, Note_on_c, 0, 77, 0
2, 3836, Note_on_c, 0, 61, 0
2, 3838, Note_on_c, 0, 52, 0
2, 3838, Note_on_c, 0, 57, 0
2, 3873, Note_on_c, 0, 81, 0
2, 3873, Note_on_c, 0, 88, 0
2, 3873, Note_on_c, 0, 85, 0
2, 3873, Note_on_c, 0, 76, 0
2, 3925, Note_on_c, 0, 73, 80
2, 3925, Note_on_c, 0, 76, 80
2, 3927, Note_on_c, 0, 33, 80
2, 3927, Note_on_c, 0, 45, 80
2, 3927, Note_on_c, 0, 64, 80
2, 3927, Note_on_c, 0, 69, 80
2, 3955, Note_on_c, 0, 69, 0
2, 3969, Note_on_c, 0, 33, 0
2, 3969, Note_on_c, 0, 45, 0
2, 3995, Note_on_c, 0, 73, 0
2, 3995, Note_on_c, 0, 76, 0
2, 3997, Note_on_c, 0, 64, 0
2, 4004, Note_on_c, 0, 69, 80
2, 4004, Note_on_c, 0, 81, 80
2, 4041, Note_on_c, 0, 61, 80
2, 4041, Note_on_c, 0, 73, 80
2, 4041, Note_on_c, 0, 85, 80
2, 4043, Note_on_c, 0, 81, 0
2, 4043, Note_on_c, 0, 52, 80
2, 4043, Note_on_c, 0, 57, 80
2, 4045, Note_on_c, 0, 69, 0
2, 4071, Note_on_c, 0, 85, 0
2, 4071, Note_on_c, 0, 73, 0
2, 4073, Note_on_c, 0, 61, 0
2, 4073, Note_on_c, 0, 57, 0
2, 4073, Note_on_c, 0, 52, 0
2, 4120, Note_on_c, 0, 76, 80
2, 4120, Note_on_c, 0, 81, 80
2, 4120, Note_on_c, 0, 85, 80
2, 4120, Note_on_c, 0, 88, 80
2, 4152, Control_c, 0, 64, 127
2, 4162, Note_on_c, 0, 37, 80
2, 4162, Note_on_c, 0, 49, 80
2, 4188, Note_on_c, 0, 81, 0
2, 4202, Note_on_c, 0, 49, 0
2, 4204, Note_on_c, 0, 37, 0
2, 4206, Control_c, 0, 64, 0
2, 4227, Note_on_c, 0, 76, 0
2, 4227, Note_on_c, 0, 85, 0
2, 4227, Note_on_c, 0, 88, 0
2, 4237, Note_on_c, 0, 69, 80
2, 4237, Note_on_c, 0, 81, 80
2, 4274, Note_on_c, 0, 71, 80
2, 4274, Note_on_c, 0, 83, 80
2, 4276, Note_on_c, 0, 81, 0
2, 4276, Note_on_c, 0, 52, 80
2, 4276, Note_on_c, 0, 57, 80
2, 4276, Note_on_c, 0, 61, 80
2, 4278, Note_on_c, 0, 69, 0
2, 4304, Note_on_c, 0, 57, 0
2, 4304, Note_on_c, 0, 52, 0
2, 4304, Note_on_c, 0, 61, 0
2, 4342, Note_on_c, 0, 83, 0
2, 4342, Note_on_c, 0, 71, 0
2, 4351, Note_on_c, 0, 73, 80
2, 4351, Note_on_c, 0, 85, 80
2, 4393, Note_on_c, 0, 50, 80
2, 4393, Note_on_c, 0, 68, 80
2, 4393, Note_on_c, 0, 80, 80
2, 4395, Note_on_c, 0, 85, 0
2, 4395, Note_on_c, 0, 73, 0
2, 4395, Note_on_c, 0, 38, 80
2, 4436, Note_on_c, 0, 38, 0
2, 4436, Note_on_c, 0, 50, 0
2, 4462, Note_on_c, 0, 80, 0
2, 4464, Note_on_c, 0, 68, 0
2, 4473, Note_on_c, 0, 69, 80
2, 4473, Note_on_c, 0, 81, 80
2, 4511, Note_on_c, 0, 78, 80
2, 4512, Note_on_c, 0, 54, 80
2, 4512, Note_on_c, 0, 57, 80
2, 4512, Note_on_c, 0, 62, 80
2, 4512, Note_on_c, 0, 66, 80
2, 4514, Note_on_c, 0, 81, 0
2, 4514, Note_on_c, 0, 69, 0
2, 4540, Note_on_c, 0, 78, 0
2, 4540, Note_on_c, 0, 66, 0
2, 4542, Note_on_c, 0, 54, 0
2, 4542, Note_on_c, 0, 57, 0
2, 4542, Note_on_c, 0, 62, 0
2, 4589, Note_on_c, 0, 64, 80
2, 4589, Note_on_c, 0, 69, 80
2, 4589, Note_on_c, 0, 73, 80
2, 4589, Note_on_c, 0, 76, 80
2, 4633, Note_on_c, 0, 37, 80
2, 4633, Note_on_c, 0, 49, 80
2, 4671, Note_on_c, 0, 49, 0
2, 4671, Note_on_c, 0, 37, 0
2, 4694, Note_on_c, 0, 73, 0
2, 4696, Note_on_c, 0, 64, 0
2, 4696, Note_on_c, 0, 69, 0
2, 4696, Note_on_c, 0, 76, 0
2, 4705, Note_on_c, 0, 66, 80
2, 4743, Note_on_c, 0, 46, 80
2, 4743, Note_on_c, 0, 58, 80
2, 4743, Note_on_c, 0, 64, 80
2, 4743, Note_on_c, 0, 67, 80
2, 4745, Note_on_c, 0, 66, 0
2, 4808, Note_on_c, 0, 64, 0
2, 4815, Note_on_c, 0, 73, 80
2, 4855, Note_on_c, 0, 68, 80
2, 4857, Note_on_c, 0, 47, 80
2, 4857, Note_on_c, 0, 59, 80
2, 4857, Note_on_c, 0, 64, 80
2, 4859, Note_on_c, 0, 73, 0
2, 4859, Note_on_c, 0, 67, 0
2, 4859, Note_on_c, 0, 58, 0
2, 4861, Note_on_c, 0, 46, 0
2, 4896, Note_on_c, 0, 47, 0
2, 4896, Note_on_c, 0, 59, 0
2, 4920, Note_on_c, 0, 64, 0
2, 4920, Note_on_c, 0, 68, 0
2, 4929, Note_on_c, 0, 71, 80
2, 4971, Note_on_c, 0, 56, 80
2, 4971, Note_on_c, 0, 59, 80
2, 4971, Note_on_c, 0, 64, 80
2, 4971, Note_on_c, 0, 76, 80
2, 4973, Note_on_c, 0, 71, 0
2, 4990, Note_on_c, 0, 64, 0
2, 4999, Note_on_c, 0, 59, 0
2, 5001, Note_on_c, 0, 56, 0
2, 5001, Note_on_c, 0, 76, 0
2, 5048, Note_on_c, 0, 69, 80
2, 5048, Note_on_c, 0, 73, 80
2, 5076, Control_c, 0, 64, 127
2, 5088, Note_on_c, 0, 35, 80
2, 5088, Note_on_c, 0, 47, 80
2, 5128, Note_on_c, 0, 47, 0
2, 5128, Note_on_c, 0, 35, 0
2, 5149, Note_on_c, 0, 73, 0
2, 5160, Note_on_c, 0, 78, 80
2, 5167, Control_c, 0, 64, 0
2, 5200, Note_on_c, 0, 57, 80
2, 5200, Note_on_c, 0, 59, 80
2, 5200, Note_on_c, 0, 63, 80
2, 5200, Note_on_c, 0, 71, 80
2, 5202, Note_on_c, 0, 78, 0
2, 5202, Note_on_c, 0, 69, 0
2, 5228, Note_on_c, 0, 63, 0
2, 5228, Note_on_c, 0, 59, 0
2, 5230, Note_on_c, 0, 57, 0
2, 5265, Note_on_c, 0, 71, 0
2, 5277, Note_on_c, 0, 80, 80
2, 5317, Note_on_c, 0, 76, 80
2, 5319, Note_on_c, 0, 50, 80
2, 5319, Note_on_c, 0, 56, 80
2, 5319, Note_on_c, 0, 68, 80
2, 5321, Note_on_c, 0, 80, 0
2, 5321, Note_on_c, 0, 40, 80
2, 5358, Note_on_c, 0, 76, 0
2, 5358, Note_on_c, 0, 68, 0
2, 5360, Note_on_c, 0, 56, 0
2, 5360, Note_on_c, 0, 50, 0
2, 5360, Note_on_c, 0, 40, 0
2, 5433, Note_on_c, 0, 74, 80
2, 5433, Note_on_c, 0, 86, 80
2, 5435, Note_on_c, 0, 40, 80
2, 5437, Note_on_c, 0, 28, 80
2, 5497, Note_on_c, 0, 86, 0
2, 5499, Note_on_c, 0, 74, 0
2, 5509, Note_on_c, 0, 71, 80
2, 5509, Note_on_c, 0, 83, 80
2, 5549, Note_on_c, 0, 68, 80
2, 5549, Note_on_c, 0, 80, 80
2, 5551, Note_on_c, 0, 83, 0
2, 5551, Note_on_c, 0, 71, 0
2, 5553, Note_on_c, 0, 30, 80
2, 5553, Note_on_c, 0, 42, 80
2, 5555, Note_on_c, 0, 28, 0
2, 5555, Note_on_c, 0, 40, 0
2, 5616, Note_on_c, 0, 68, 0
2, 5616, Note_on_c, 0, 80, 0
2, 5627, Note_on_c, 0, 67, 80
2, 5627, Note_on_c, 0, 79, 80
2, 5667, Note_on_c, 0, 66, 80
2, 5667, Note_on_c, 0, 78, 80
2, 5669, Note_on_c, 0, 79, 0
2, 5669, Note_on_c, 0, 32, 80
2, 5669, Note_on_c, 0, 44, 80
2, 5671, Note_on_c, 0, 67, 0
2, 5671, Note_on_c, 0, 42, 0
2, 5673, Note_on_c, 0, 30, 0
2, 5732, Note_on_c, 0, 66, 0
2, 5732, Note_on_c, 0, 78, 0
2, 5743, Note_on_c, 0, 65, 80
2, 5743, Note_on_c, 0, 77, 80
2, 5784, Note_on_c, 0, 69, 80
2, 5784, Note_on_c, 0, 73, 80
2, 5784, Note_on_c, 0, 76, 80
2, 5785, Note_on_c, 0, 77, 0
2, 5785, Note_on_c, 0, 33, 80
2, 5785, Note_on_c, 0, 45, 80
2, 5785, Note_on_c, 0, 64, 80
2, 5787, Note_on_c, 0, 65, 0
2, 5787, Note_on_c, 0, 44, 0
2, 5789, Note_on_c, 0, 32, 0
2, 5812, Note_on_c, 0, 69, 0
2, 5827, Note_on_c, 0, 45, 0
2, 5829, Note_on_c, 0, 33, 0
2, 5852, Note_on_c, 0, 64, 0
2, 5852, Note_on_c, 0, 76, 0
2, 5852, Note_on_c, 0, 73, 0
2, 5861, Note_on_c, 0, 69, 80
2, 5861, Note_on_c, 0, 81, 80
2, 5902, Note_on_c, 0, 52, 80
2, 5902, Note_on_c, 0, 57, 80
2, 5902, Note_on_c, 0, 61, 80
2, 5902, Note_on_c, 0, 73, 80
2, 5902, Note_on_c, 0, 85, 80
2, 5904, Note_on_c, 0, 81, 0
2, 5904, Note_on_c, 0, 69, 0
2, 5929, Note_on_c, 0, 73, 0
2, 5929, Note_on_c, 0, 85, 0
2, 5931, Note_on_c, 0, 57, 0
2, 5931, Note_on_c, 0, 61, 0
2, 5931, Note_on_c, 0, 52, 0
2, 5980, Note_on_c, 0, 81, 80
2, 5980, Note_on_c, 0, 85, 80
2, 5980, Note_on_c, 0, 88, 80
2, 5982, Note_on_c, 0, 76, 80
2, 6023, Note_on_c, 0, 49, 80
2, 6024, Note_on_c, 0, 37, 80
2, 6050, Note_on_c, 0, 81, 0
2, 6067, Note_on_c, 0, 49, 0
2, 6067, Note_on_c, 0, 37, 0
2, 6088, Note_on_c, 0, 85, 0
2, 6088, Note_on_c, 0, 76, 0
2, 6088, Note_on_c, 0, 88, 0
2, 6099, Note_on_c, 0, 69, 80
2, 6099, Note_on_c, 0, 81, 80
2, 6142, Note_on_c, 0, 81, 0
2, 6142, Note_on_c, 0, 69, 0
2, 6142, Note_on_c, 0, 52, 80
2, 6142, Note_on_c, 0, 57, 80
2, 6142, Note_on_c, 0, 61, 80
2, 6142, Note_on_c, 0, 71, 80
2, 6142, Note_on_c, 0, 83, 80
2, 6169, Note_on_c, 0, 61, 0
2, 6171, Note_on_c, 0, 52, 0
2, 6171, Note_on_c, 0, 57, 0
2, 6209, Note_on_c, 0, 71, 0
2, 6209, Note_on_c, 0, 83, 0
2, 6218, Note_on_c, 0, 73, 80
2, 6218, Note_on_c, 0, 85, 80
2, 6261, Note_on_c, 0, 80, 80
2, 6263, Note_on_c, 0, 85, 0
2, 6263, Note_on_c, 0, 73, 0
2, 6263, Note_on_c, 0, 38, 80
2, 6263, Note_on_c, 0, 50, 80
2, 6263, Note_on_c, 0, 68, 80
2, 6305, Note_on_c, 0, 50, 0
2, 6305, Note_on_c, 0, 38, 0
2, 6326, Note_on_c, 0, 80, 0
2, 6328, Note_on_c, 0, 68, 0
2, 6339, Note_on_c, 0, 69, 80
2, 6339, Note_on_c, 0, 81, 80
2, 6377, Note_on_c, 0, 78, 80
2, 6379, Note_on_c, 0, 81, 0
2, 6379, Note_on_c, 0, 54, 80
2, 6379, Note_on_c, 0, 57, 80
2, 6379, Note_on_c, 0, 62, 80
2, 6379, Note_on_c, 0, 66, 80
2, 6381, Note_on_c, 0, 69, 0
2, 6407, Note_on_c, 0, 78, 0
2, 6408, Note_on_c, 0, 62, 0
2, 6408, Note_on_c, 0, 57, 0
2, 6408, Note_on_c, 0, 66, 0
2, 6408, Note_on_c, 0, 54, 0
2, 6457, Note_on_c, 0, 69, 80
2, 6457, Note_on_c, 0, 73, 80
2, 6457, Note_on_c, 0, 76, 80
2, 6457, Note_on_c, 0, 64, 80
2, 6488, Control_c, 0, 64, 127
2, 6500, Note_on_c, 0, 37, 80
2, 6500, Note_on_c, 0, 49, 80
2, 6540, Control_c, 0, 64, 0
2, 6559, Note_on_c, 0, 76, 0
2, 6559, Note_on_c, 0, 69, 0
2, 6559, Note_on_c, 0, 73, 0
2, 6561, Note_on_c, 0, 64, 0
2, 6561, Note_on_c, 0, 49, 0
2, 6563, Note_on_c, 0, 37, 0
2, 6570, Note_on_c, 0, 65, 80
2, 6570, Note_on_c, 0, 77, 80
2, 6607, Note_on_c, 0, 66, 80
2, 6607, Note_on_c, 0, 78, 80
2, 6609, Note_on_c, 0, 77, 0
2, 6609, Note_on_c, 0, 65, 0
2, 6609, Note_on_c, 0, 48, 80
2, 6611, Note_on_c, 0, 36, 80
2, 6676, Note_on_c, 0, 66, 0
2, 6676, Note_on_c, 0, 78, 0
2, 6686, Note_on_c, 0, 67, 80
2, 6686, Note_on_c, 0, 79, 80
2, 6726, Note_on_c, 0, 68, 80
2, 6726, Note_on_c, 0, 74, 80
2, 6726, Note_on_c, 0, 76, 80
2, 6726, Note_on_c, 0, 80, 80
2, 6728, Note_on_c, 0, 79, 0
2, 6728, Note_on_c, 0, 67, 0
2, 6728, Note_on_c, 0, 47, 80
2, 6730, Note_on_c, 0, 48, 0
2, 6730, Note_on_c, 0, 35, 80
2, 6732, Note_on_c, 0, 36, 0
2, 6768, Note_on_c, 0, 47, 0
2, 6769, Note_on_c, 0, 35, 0
2, 6791, Note_on_c, 0, 68, 0
2, 6791, Note_on_c, 0, 80, 0
2, 6792, Note_on_c, 0, 74, 0
2, 6794, Note_on_c, 0, 76, 0
2, 6799, Note_on_c, 0, 71, 80
2, 6799, Note_on_c, 0, 83, 80
2, 6837, Note_on_c, 0, 74, 80
2, 6837, Note_on_c, 0, 86, 80
2, 6839, Note_on_c, 0, 83, 0
2, 6839, Note_on_c, 0, 59, 80
2, 6839, Note_on_c, 0, 62, 80
2, 6840, Note_on_c, 0, 71, 0
2, 6840, Note_on_c, 0, 52, 80
2, 6840, Note_on_c, 0, 56, 80
2, 6866, Note_on_c, 0, 86, 0
2, 6866, Note_on_c, 0, 62, 0
2, 6866, Note_on_c, 0, 74, 0
2, 6868, Note_on_c, 0, 59, 0
2, 6868, Note_on_c, 0, 56, 0
2, 6870, Note_on_c, 0, 52, 0
2, 6911, Note_on_c, 0, 78, 80
2, 6911, Note_on_c, 0, 80, 80
2, 6911, Note_on_c, 0, 83, 80
2, 6911, Note_on_c, 0, 86, 80
2, 6911, Note_on_c, 0, 90, 80
2, 6943, Control_c, 0, 64, 127
2, 6955, Note_on_c, 0, 28, 80
2, 6955, Note_on_c, 0, 40, 80
2, 6995, Note_on_c, 0, 40, 0
2, 6997, Note_on_c, 0, 28, 0
2, 7016, Note_on_c, 0, 90, 0
2, 7018, Note_on_c, 0, 78, 0
2, 7028, Note_on_c, 0, 77, 80
2, 7028, Note_on_c, 0, 89, 80
2, 7034, Control_c, 0, 64, 0
2, 7065, Note_on_c, 0, 76, 80
2, 7065, Note_on_c, 0, 88, 80
2, 7067, Note_on_c, 0, 52, 80
2, 7067, Note_on_c, 0, 56, 80
2, 7067, Note_on_c, 0, 59, 80
2, 7067, Note_on_c, 0, 62, 80
2, 7069, Note_on_c, 0, 89, 0
2, 7069, Note_on_c, 0, 77, 0
2, 7095, Note_on_c, 0, 59, 0
2, 7095, Note_on_c, 0, 56, 0
2, 7095, Note_on_c, 0, 52, 0
2, 7095, Note_on_c, 0, 62, 0
2, 7130, Note_on_c, 0, 83, 0
2, 7130, Note_on_c, 0, 86, 0
2, 7130, Note_on_c, 0, 80, 0
2, 7130, Note_on_c, 0, 88, 0
2, 7132, Note_on_c, 0, 76, 0
2, 7181, Note_on_c, 0, 69, 80
2, 7181, Note_on_c, 0, 73, 80
2, 7181, Note_on_c, 0, 76, 80
2, 7181, Note_on_c, 0, 81, 80
2, 7183, Note_on_c, 0, 33, 80
2, 7183, Note_on_c, 0, 45, 80
2, 7209, Note_on_c, 0, 73, 0
2, 7224, Note_on_c, 0, 45, 0
2, 7225, Note_on_c, 0, 33, 0
2, 7247, Note_on_c, 0, 81, 0
2, 7248, Note_on_c, 0, 76, 0
2, 7248, Note_on_c, 0, 69, 0
2, 7258, Note_on_c, 0, 73, 80
2, 7258, Note_on_c, 0, 85, 80
2, 7296, Note_on_c, 0, 76, 80
2, 7296, Note_on_c, 0, 88, 80
2, 7297, Note_on_c, 0, 52, 80
2, 7297, Note_on_c, 0, 57, 80
2, 7297, Note_on_c, 0, 61, 80
2, 7299, Note_on_c, 0, 85, 0
2, 7299, Note_on_c, 0, 73, 0
2, 7322, Note_on_c, 0, 88, 0
2, 7324, Note_on_c, 0, 76, 0
2, 7324, Note_on_c, 0, 57, 0
2, 7324, Note_on_c, 0, 61, 0
2, 7326, Note_on_c, 0, 52, 0
2, 7373, Note_on_c, 0, 78, 80
2, 7373, Note_on_c, 0, 81, 80
2, 7373, Note_on_c, 0, 85, 80
2, 7373, Note_on_c, 0, 90, 80
2, 7416, Note_on_c, 0, 57, 80
2, 7417, Note_on_c, 0, 45, 80
2, 7483, Note_on_c, 0, 90, 0
2, 7483, Note_on_c, 0, 85, 0
2, 7483, Note_on_c, 0, 78, 0
2, 7483, Note_on_c, 0, 81, 0
2, 7485, Note_on_c, 0, 45, 0
2, 7485, Note_on_c, 0, 57, 0
2, 7491, Note_on_c, 0, 77, 80
2, 7491, Note_on_c, 0, 89, 80
2, 7529, Note_on_c, 0, 76, 80
2, 7529, Note_on_c, 0, 79, 80
2, 7529, Note_on_c, 0, 85, 80
2, 7529, Note_on_c, 0, 88, 80
2, 7531, Note_on_c, 0, 89, 0
2, 7531, Note_on_c, 0, 77, 0
2, 7531, Note_on_c, 0, 46, 80
2, 7531, Note_on_c, 0, 58, 80
2, 7596, Note_on_c, 0, 85, 0
2, 7596, Note_on_c, 0, 76, 0
2, 7596, Note_on_c, 0, 79, 0
2, 7596, Note_on_c, 0, 88, 0
2, 7645, Note_on_c, 0, 66, 80
2, 7645, Note_on_c, 0, 71, 80
2, 7645, Note_on_c, 0, 76, 80
2, 7647, Note_on_c, 0, 59, 80
2, 7649, Note_on_c, 0, 58, 0
2, 7649, Note_on_c, 0, 47, 80
2, 7651, Note_on_c, 0, 46, 0
2, 7686, Note_on_c, 0, 59, 0
2, 7688, Note_on_c, 0, 76, 0
2, 7688, Note_on_c, 0, 47, 0
2, 7721, Note_on_c, 0, 74, 80
2, 7761, Note_on_c, 0, 54, 80
2, 7761, Note_on_c, 0, 59, 80
2, 7761, Note_on_c, 0, 62, 80
2, 7789, Note_on_c, 0, 62, 0
2, 7789, Note_on_c, 0, 59, 0
2, 7791, Note_on_c, 0, 54, 0
2, 7800, Note_on_c, 0, 66, 0
2, 7800, Note_on_c, 0, 71, 0
2, 7800, Note_on_c, 0, 74, 0
2, 7836, Note_on_c, 0, 78, 80
2, 7836, Note_on_c, 0, 83, 80
2, 7838, Note_on_c, 0, 71, 80
2, 7838, Note_on_c, 0, 74, 80
2, 7878, Note_on_c, 0, 50, 80
2, 7880, Note_on_c, 0, 38, 80
2, 7941, Note_on_c, 0, 74, 0
2, 7945, Note_on_c, 0, 50, 0
2, 7945, Note_on_c, 0, 38, 0
2, 7967, Note_on_c, 0, 78, 0
2, 7967, Note_on_c, 0, 83, 0
2, 7968, Note_on_c, 0, 71, 0
2, 7992, Note_on_c, 0, 74, 80
2, 7992, Note_on_c, 0, 81, 80
2, 7992, Note_on_c, 0, 86, 80
2, 7996, Note_on_c, 0, 41, 80
2, 7996, Note_on_c, 0, 53, 80
2, 8060, Note_on_c, 0, 81, 0
2, 8107, Note_on_c, 0, 86, 0
2, 8107, Note_on_c, 0, 73, 80
2, 8107, Note_on_c, 0, 81, 80
2, 8107, Note_on_c, 0, 85, 80
2, 8109, Note_on_c, 0, 74, 0
2, 8109, Note_on_c, 0, 40, 80
2, 8109, Note_on_c, 0, 52, 80
2, 8111, Note_on_c, 0, 41, 0
2, 8111, Note_on_c, 0, 53, 0
2, 8136, Note_on_c, 0, 85, 0
2, 8136, Note_on_c, 0, 81, 0
2, 8136, Note_on_c, 0, 73, 0
2, 8151, Note_on_c, 0, 52, 0
2, 8153, Note_on_c, 0, 40, 0
2, 8184, Note_on_c, 0, 81, 80
2, 8185, Note_on_c, 0, 69, 80
2, 8185, Note_on_c, 0, 73, 80
2, 8223, Note_on_c, 0, 57, 80
2, 8223, Note_on_c, 0, 61, 80
2, 8225, Note_on_c, 0, 52, 80
2, 8253, Note_on_c, 0, 61, 0
2, 8253, Note_on_c, 0, 57, 0
2, 8255, Note_on_c, 0, 52, 0
2, 8290, Note_on_c, 0, 81, 0
2, 8290, Note_on_c, 0, 73, 0
2, 8290, Note_on_c, 0, 69, 0
2, 8297, Note_on_c, 0, 78, 80
2, 8299, Note_on_c, 0, 66, 80
2, 8299, Note_on_c, 0, 70, 80
2, 8339, Note_on_c, 0, 42, 80
2, 8339, Note_on_c, 0, 54, 80
2, 8383, Note_on_c, 0, 54, 0
2, 8383, Note_on_c, 0, 42, 0
2, 8406, Note_on_c, 0, 78, 0
2, 8408, Note_on_c, 0, 70, 0
2, 8408, Note_on_c, 0, 66, 0
2, 8415, Note_on_c, 0, 76, 80
2, 8455, Note_on_c, 0, 70, 80
2, 8455, Note_on_c, 0, 73, 80
2, 8457, Note_on_c, 0, 76, 0
2, 8457, Note_on_c, 0, 52, 80
2, 8457, Note_on_c, 0, 54, 80
2, 8457, Note_on_c, 0, 58, 80
2, 8457, Note_on_c, 0, 61, 80
2, 8457, Note_on_c, 0, 64, 80
2, 8485, Note_on_c, 0, 61, 0
2, 8485, Note_on_c, 0, 54, 0
2, 8485, Note_on_c, 0, 52, 0
2, 8485, Note_on_c, 0, 58, 0
2, 8522, Note_on_c, 0, 73, 0
2, 8524, Note_on_c, 0, 64, 0
2, 8524, Note_on_c, 0, 70, 0
2, 8573, Note_on_c, 0, 73, 80
2, 8575, Note_on_c, 0, 47, 80
2, 8575, Note_on_c, 0, 63, 80
2, 8575, Note_on_c, 0, 69, 80
2, 8577, Note_on_c, 0, 35, 80
2, 8615, Note_on_c, 0, 73, 0
2, 8616, Note_on_c, 0, 47, 0
2, 8618, Note_on_c, 0, 35, 0
2, 8651, Note_on_c, 0, 71, 80
2, 8693, Note_on_c, 0, 51, 80
2, 8693, Note_on_c, 0, 54, 80
2, 8693, Note_on_c, 0, 57, 80
2, 8693, Note_on_c, 0, 59, 80
2, 8719, Note_on_c, 0, 71, 0
2, 8721, Note_on_c, 0, 57, 0
2, 8721, Note_on_c, 0, 54, 0
2, 8721, Note_on_c, 0, 59, 0
2, 8723, Note_on_c, 0, 51, 0
2, 8760, Note_on_c, 0, 69, 0
2, 8762, Note_on_c, 0, 63, 0
2, 8769, Note_on_c, 0, 68, 80
2, 8769, Note_on_c, 0, 71, 80
2, 8769, Note_on_c, 0, 76, 80
2, 8771, Note_on_c, 0, 64, 80
2, 8807, Control_c, 0, 64, 127
2, 8816, Note_on_c, 0, 28, 80
2, 8858, Note_on_c, 0, 28, 0
2, 8858, Control_c, 0, 64, 0
2, 8881, Note_on_c, 0, 76, 0
2, 8881, Note_on_c, 0, 68, 0
2, 8881, Note_on_c, 0, 71, 0
2, 8881, Note_on_c, 0, 64, 0
2, 8891, Note_on_c, 0, 73, 80
2, 8928, Note_on_c, 0, 68, 80
2, 8928, Note_on_c, 0, 71, 80
2, 8930, Note_on_c, 0, 40, 80
2, 8930, Note_on_c, 0, 50, 80
2, 8930, Note_on_c, 0, 56, 80
2, 8930, Note_on_c, 0, 62, 80
2, 8932, Note_on_c, 0, 73, 0
2, 9048, Note_on_c, 0, 69, 80
2, 9049, Note_on_c, 0, 68, 0
2, 9049, Note_on_c, 0, 71, 0
2, 9049, Note_on_c, 0, 52, 80
2, 9049, Note_on_c, 0, 61, 80
2, 9049, Note_on_c, 0, 64, 80
2, 9051, Note_on_c, 0, 62, 0
2, 9051, Note_on_c, 0, 56, 0
2, 9051, Note_on_c, 0, 45, 80
2, 9053, Note_on_c, 0, 40, 0
2, 9053, Note_on_c, 0, 50, 0
2, 9091, Note_on_c, 0, 45, 0
2, 9126, Note_on_c, 0, 39, 80
2, 9168, Note_on_c, 0, 40, 80
2, 9170, Note_on_c, 0, 39, 0
2, 9234, Note_on_c, 0, 40, 0
2, 9243, Note_on_c, 0, 37, 80
2, 9281, Note_on_c, 0, 33, 80
2, 9283, Note_on_c, 0, 37, 0
2, 9341, Note_on_c, 0, 52, 0
2, 9346, Note_on_c, 0, 69, 0
2, 9346, Note_on_c, 0, 33, 0
2, 9348, Note_on_c, 0, 61, 0
2, 9348, Note_on_c, 0, 64, 0
2, 9390, Note_on_c, 0, 76, 80
2, 9395, Note_on_c, 0, 64, 80
2, 9458, Note_on_c, 0, 64, 0
2, 9458, Note_on_c, 0, 76, 0
2, 9501, Control_c, 0, 64, 127
2, 9505, Note_on_c, 0, 80, 80
2, 9507, Note_on_c, 0, 47, 80
2, 9507, Note_on_c, 0, 59, 80
2, 9507, Note_on_c, 0, 76, 80
2, 9550, Note_on_c, 0, 59, 0
2, 9550, Note_on_c, 0, 47, 0
2, 9552, Control_c, 0, 64, 0
2, 9582, Note_on_c, 0, 78, 80
2, 9582, Note_on_c, 0, 81, 80
2, 9584, Note_on_c, 0, 80, 0
2, 9586, Note_on_c, 0, 76, 0
2, 9617, Note_on_c, 0, 80, 80
2, 9617, Note_on_c, 0, 83, 80
2, 9619, Note_on_c, 0, 52, 80
2, 9619, Note_on_c, 0, 56, 80
2, 9619, Note_on_c, 0, 59, 80
2, 9619, Note_on_c, 0, 62, 80
2, 9621, Note_on_c, 0, 78, 0
2, 9621, Note_on_c, 0, 81, 0
2, 9647, Note_on_c, 0, 56, 0
2, 9647, Note_on_c, 0, 80, 0
2, 9647, Note_on_c, 0, 52, 0
2, 9647, Note_on_c, 0, 62, 0
2, 9647, Note_on_c, 0, 59, 0
2, 9696, Note_on_c, 0, 76, 80
2, 9696, Note_on_c, 0, 80, 80
2, 9697, Note_on_c, 0, 83, 0
2, 9735, Note_on_c, 0, 71, 80
2, 9735, Note_on_c, 0, 74, 80
2, 9737, Note_on_c, 0, 80, 0
2, 9737, Note_on_c, 0, 76, 0
2, 9737, Note_on_c, 0, 40, 80
2, 9737, Note_on_c, 0, 52, 80
2, 9763, Note_on_c, 0, 71, 0
2, 9763, Note_on_c, 0, 74, 0
2, 9777, Note_on_c, 0, 52, 0
2, 9779, Note_on_c, 0, 40, 0
2, 9812, Note_on_c, 0, 74, 80
2, 9812, Note_on_c, 0, 78, 80
2, 9849, Note_on_c, 0, 52, 80
2, 9849, Note_on_c, 0, 62, 80
2, 9851, Note_on_c, 0, 56, 80
2, 9851, Note_on_c, 0, 59, 80
2, 9879, Note_on_c, 0, 59, 0
2, 9879, Note_on_c, 0, 52, 0
2, 9879, Note_on_c, 0, 56, 0
2, 9881, Note_on_c, 0, 62, 0
2, 9916, Note_on_c, 0, 78, 0
2, 9916, Note_on_c, 0, 74, 0
2, 9928, Note_on_c, 0, 73, 80
2, 9928, Note_on_c, 0, 76, 80
2, 9970, Note_on_c, 0, 57, 80
2, 9972, Note_on_c, 0, 45, 80
2, 10012, Note_on_c, 0, 45, 0
2, 10012, Note_on_c, 0, 57, 0
2, 10040, Note_on_c, 0, 76, 0
2, 10040, Note_on_c, 0, 73, 0
2, 10050, Note_on_c, 0, 72, 80
2, 10050, Note_on_c, 0, 75, 80
2, 10092, Note_on_c, 0, 52, 80
2, 10092, Note_on_c, 0, 57, 80
2, 10092, Note_on_c, 0, 61, 80
2, 10092, Note_on_c, 0, 73, 80
2, 10092, Note_on_c, 0, 76, 80
2, 10094, Note_on_c, 0, 75, 0
2, 10094, Note_on_c, 0, 72, 0
2, 10120, Note_on_c, 0, 73, 0
2, 10122, Note_on_c, 0, 61, 0
2, 10122, Note_on_c, 0, 57, 0
2, 10122, Note_on_c, 0, 52, 0
2, 10122, Note_on_c, 0, 76, 0
2, 10164, Control_c, 0, 64, 127
2, 10174, Note_on_c, 0, 69, 80
2, 10174, Note_on_c, 0, 73, 80
2, 10216, Note_on_c, 0, 40, 80
2, 10216, Note_on_c, 0, 52, 80
2, 10256, Note_on_c, 0, 52, 0
2, 10258, Note_on_c, 0, 40, 0
2, 10258, Control_c, 0, 64, 0
2, 10328, Note_on_c, 0, 61, 80
2, 10328, Note_on_c, 0, 64, 80
2, 10330, Note_on_c, 0, 73, 0
2, 10330, Note_on_c, 0, 52, 80
2, 10330, Note_on_c, 0, 57, 80
2, 10332, Note_on_c, 0, 69, 0
2, 10358, Note_on_c, 0, 52, 0
2, 10358, Note_on_c, 0, 57, 0
2, 10358, Note_on_c, 0, 61, 0
2, 10447, Note_on_c, 0, 68, 80
2, 10447, Note_on_c, 0, 71, 80
2, 10449, Note_on_c, 0, 64, 0
2, 10449, Note_on_c, 0, 40, 80
2, 10451, Note_on_c, 0, 28, 80
2, 10491, Note_on_c, 0, 28, 0
2, 10491, Note_on_c, 0, 40, 0
2, 10512, Note_on_c, 0, 71, 0
2, 10512, Note_on_c, 0, 68, 0
2, 10522, Note_on_c, 0, 69, 80
2, 10522, Note_on_c, 0, 73, 80
2, 10558, Note_on_c, 0, 52, 80
2, 10558, Note_on_c, 0, 56, 80
2, 10558, Note_on_c, 0, 59, 80
2, 10558, Note_on_c, 0, 62, 80
2, 10558, Note_on_c, 0, 71, 80
2, 10558, Note_on_c, 0, 74, 80
2, 10560, Note_on_c, 0, 73, 0
2, 10560, Note_on_c, 0, 69, 0
2, 10585, Note_on_c, 0, 62, 0
2, 10585, Note_on_c, 0, 52, 0
2, 10585, Note_on_c, 0, 59, 0
2, 10585, Note_on_c, 0, 56, 0
2, 10585, Note_on_c, 0, 71, 0
2, 10623, Note_on_c, 0, 74, 0
2, 10632, Note_on_c, 0, 68, 80
2, 10632, Note_on_c, 0, 71, 80
2, 10670, Note_on_c, 0, 66, 80
2, 10672, Note_on_c, 0, 71, 0
2, 10672, Note_on_c, 0, 52, 80
2, 10672, Note_on_c, 0, 62, 80
2, 10674, Note_on_c, 0, 68, 0
2, 10674, Note_on_c, 0, 40, 80
2, 10697, Note_on_c, 0, 66, 0
2, 10711, Note_on_c, 0, 40, 0
2, 10711, Note_on_c, 0, 52, 0
2, 10744, Note_on_c, 0, 68, 80
2, 10784, Note_on_c, 0, 50, 80
2, 10784, Note_on_c, 0, 52, 80
2, 10784, Note_on_c, 0, 56, 80
2, 10784, Note_on_c, 0, 59, 80
2, 10812, Note_on_c, 0, 59, 0
2, 10812, Note_on_c, 0, 52, 0
2, 10812, Note_on_c, 0, 50, 0
2, 10812, Note_on_c, 0, 56, 0
2, 10849, Note_on_c, 0, 68, 0
2, 10851, Note_on_c, 0, 62, 0
2, 10858, Note_on_c, 0, 66, 80
2, 10860, Note_on_c, 0, 60, 80
2, 10900, Note_on_c, 0, 45, 80
2, 10900, Note_on_c, 0, 51, 80
2, 10970, Note_on_c, 0, 51, 0
2, 10980, Note_on_c, 0, 48, 80
2, 10985, Note_on_c, 0, 45, 0
2, 11022, Note_on_c, 0, 51, 80
2, 11039, Note_on_c, 0, 48, 0
2, 11102, Note_on_c, 0, 54, 80
2, 11121, Note_on_c, 0, 51, 0
2, 11142, Note_on_c, 0, 57, 80
2, 11142, Note_on_c, 0, 61, 80
2, 11142, Note_on_c, 0, 64, 80
2, 11144, Note_on_c, 0, 66, 0
2, 11144, Note_on_c, 0, 54, 0
2, 11144, Note_on_c, 0, 60, 0
2, 11209, Note_on_c, 0, 64, 0
2, 11211, Note_on_c, 0, 61, 0
2, 11211, Note_on_c, 0, 57, 0
2, 11260, Note_on_c, 0, 76, 80
2, 11262, Note_on_c, 0, 46, 80
2, 11262, Note_on_c, 0, 64, 80
2, 11264, Note_on_c, 0, 34, 80
2, 11332, Note_on_c, 0, 64, 0
2, 11332, Note_on_c, 0, 76, 0
2, 11384, Note_on_c, 0, 76, 80
2, 11384, Note_on_c, 0, 80, 80
2, 11386, Note_on_c, 0, 47, 80
2, 11388, Note_on_c, 0, 46, 0
2, 11388, Note_on_c, 0, 35, 80
2, 11390, Note_on_c, 0, 34, 0
2, 11430, Note_on_c, 0, 47, 0
2, 11432, Note_on_c, 0, 35, 0
2, 11451, Note_on_c, 0, 76, 0
2, 11451, Note_on_c, 0, 80, 0
2, 11463, Note_on_c, 0, 78, 80
2, 11463, Note_on_c, 0, 81, 80
2, 11503, Note_on_c, 0, 80, 80
2, 11503, Note_on_c, 0, 83, 80
2, 11505, Note_on_c, 0, 52, 80
2, 11505, Note_on_c, 0, 56, 80
2, 11505, Note_on_c, 0, 59, 80
2, 11505, Note_on_c, 0, 62, 80
2, 11507, Note_on_c, 0, 81, 0
2, 11507, Note_on_c, 0, 78, 0
2, 11530, Note_on_c, 0, 80, 0
2, 11532, Note_on_c, 0, 62, 0
2, 11532, Note_on_c, 0, 59, 0
2, 11534, Note_on_c, 0, 56, 0
2, 11534, Note_on_c, 0, 52, 0
2, 11569, Note_on_c, 0, 83, 0
2, 11581, Note_on_c, 0, 76, 80
2, 11581, Note_on_c, 0, 80, 80
2, 11621, Note_on_c, 0, 71, 80
2, 11621, Note_on_c, 0, 74, 80
2, 11623, Note_on_c, 0, 80, 0
2, 11623, Note_on_c, 0, 40, 80
2, 11623, Note_on_c, 0, 52, 80
2, 11625, Note_on_c, 0, 76, 0
2, 11648, Note_on_c, 0, 74, 0
2, 11648, Note_on_c, 0, 71, 0
2, 11663, Note_on_c, 0, 52, 0
2, 11664, Note_on_c, 0, 40, 0
2, 11697, Note_on_c, 0, 74, 80
2, 11697, Note_on_c, 0, 78, 80
2, 11735, Note_on_c, 0, 56, 80
2, 11735, Note_on_c, 0, 59, 80
2, 11735, Note_on_c, 0, 62, 80
2, 11736, Note_on_c, 0, 52, 80
2, 11762, Note_on_c, 0, 62, 0
2, 11762, Note_on_c, 0, 59, 0
2, 11762, Note_on_c, 0, 56, 0
2, 11767, Note_on_c, 0, 52, 0
2, 11803, Note_on_c, 0, 74, 0
2, 11803, Note_on_c, 0, 78, 0
2, 11809, Note_on_c, 0, 73, 80
2, 11811, Note_on_c, 0, 76, 80
2, 11844, Control_c, 0, 64, 127
2, 11851, Note_on_c, 0, 45, 80
2, 11853, Note_on_c, 0, 33, 80
2, 11893, Note_on_c, 0, 33, 0
2, 11893, Note_on_c, 0, 45, 0
2, 11916, Note_on_c, 0, 73, 0
2, 11918, Note_on_c, 0, 76, 0
2, 11928, Note_on_c, 0, 72, 80
2, 11928, Note_on_c, 0, 75, 80
2, 11934, Control_c, 0, 64, 0
2, 11962, Note_on_c, 0, 73, 80
2, 11962, Note_on_c, 0, 76, 80
2, 11964, Note_on_c, 0, 52, 80
2, 11964, Note_on_c, 0, 57, 80
2, 11964, Note_on_c, 0, 61, 80
2, 11966, Note_on_c, 0, 75, 0
2, 11966, Note_on_c, 0, 72, 0
2, 11989, Note_on_c, 0, 73, 0
2, 11991, Note_on_c, 0, 61, 0
2, 11991, Note_on_c, 0, 76, 0
2, 11991, Note_on_c, 0, 57, 0
2, 11993, Note_on_c, 0, 52, 0
2, 12037, Note_on_c, 0, 73, 80
2, 12039, Note_on_c, 0, 61, 80
2, 12039, Note_on_c, 0, 69, 80
2, 12050, Note_on_c, 0, 62, 80
2, 12052, Note_on_c, 0, 61, 0
2, 12067, Note_on_c, 0, 62, 0
2, 12067, Note_on_c, 0, 63, 80
2, 12078, Note_on_c, 0, 64, 80
2, 12080, Note_on_c, 0, 63, 0
2, 12103, Note_on_c, 0, 69, 0
2, 12144, Note_on_c, 0, 73, 0
2, 12153, Note_on_c, 0, 69, 80
2, 12153, Note_on_c, 0, 81, 80
2, 12191, Note_on_c, 0, 62, 80
2, 12191, Note_on_c, 0, 71, 80
2, 12191, Note_on_c, 0, 83, 80
2, 12192, Note_on_c, 0, 81, 0
2, 12192, Note_on_c, 0, 64, 0
2, 12192, Note_on_c, 0, 69, 0
2, 12258, Note_on_c, 0, 83, 0
2, 12258, Note_on_c, 0, 71, 0
2, 12267, Note_on_c, 0, 72, 80
2, 12267, Note_on_c, 0, 84, 80
2, 12308, Note_on_c, 0, 85, 80
2, 12310, Note_on_c, 0, 84, 0
2, 12310, Note_on_c, 0, 61, 80
2, 12310, Note_on_c, 0, 65, 80
2, 12310, Note_on_c, 0, 68, 80
2, 12310, Note_on_c, 0, 71, 80
2, 12310, Note_on_c, 0, 73, 80
2, 12312, Note_on_c, 0, 62, 0
2, 12312, Note_on_c, 0, 72, 0
2, 12372, Note_on_c, 0, 73, 0
2, 12372, Note_on_c, 0, 85, 0
2, 12384, Note_on_c, 0, 75, 80
2, 12384, Note_on_c, 0, 87, 80
2, 12421, Note_on_c, 0, 77, 80
2, 12421, Note_on_c, 0, 89, 80
2, 12423, Note_on_c, 0, 87, 0
2, 12425, Note_on_c, 0, 75, 0
2, 12490, Note_on_c, 0, 77, 0
2, 12490, Note_on_c, 0, 61, 0
2, 12490, Note_on_c, 0, 68, 0
2, 12490, Note_on_c, 0, 65, 0
2, 12490, Note_on_c, 0, 71, 0
2, 12490, Note_on_c, 0, 89, 0
2, 12500, Note_on_c, 0, 97, 80
2, 12502, Note_on_c, 0, 85, 80
2, 12542, Note_on_c, 0, 83, 80
2, 12542, Note_on_c, 0, 95, 80
2, 12544, Note_on_c, 0, 85, 0
2, 12544, Note_on_c, 0, 97, 0
2, 12546, Note_on_c, 0, 37, 80
2, 12546, Note_on_c, 0, 49, 80
2, 12586, Note_on_c, 0, 49, 0
2, 12588, Note_on_c, 0, 37, 0
2, 12609, Note_on_c, 0, 95, 0
2, 12611, Note_on_c, 0, 83, 0
2, 12618, Note_on_c, 0, 93, 80
2, 12620, Note_on_c, 0, 81, 80
2, 12660, Note_on_c, 0, 80, 80
2, 12660, Note_on_c, 0, 92, 80
2, 12662, Note_on_c, 0, 93, 0
2, 12662, Note_on_c, 0, 53, 80
2, 12662, Note_on_c, 0, 59, 80
2, 12662, Note_on_c, 0, 61, 80
2, 12664, Note_on_c, 0, 81, 0
2, 12690, Note_on_c, 0, 59, 0
2, 12690, Note_on_c, 0, 61, 0
2, 12692, Note_on_c, 0, 53, 0
2, 12727, Note_on_c, 0, 92, 0
2, 12729, Note_on_c, 0, 80, 0
2, 12736, Note_on_c, 0, 85, 80
2, 12736, Note_on_c, 0, 97, 80
2, 12776, Note_on_c, 0, 90, 80
2, 12778, Note_on_c, 0, 97, 0
2, 12778, Note_on_c, 0, 85, 0
2, 12778, Note_on_c, 0, 57, 80
2, 12778, Note_on_c, 0, 78, 80
2, 12780, Note_on_c, 0, 42, 80
2, 12780, Note_on_c, 0, 49, 80
2, 12843, Note_on_c, 0, 90, 0
2, 12845, Note_on_c, 0, 78, 0
2, 12847, Note_on_c, 0, 57, 0
2, 12847, Note_on_c, 0, 42, 0
2, 12847, Note_on_c, 0, 49, 0
2, 12891, Note_on_c, 0, 66, 80
2, 12891, Note_on_c, 0, 78, 80
2, 12893, Note_on_c, 0, 54, 80
2, 12895, Note_on_c, 0, 42, 80
2, 12970, Note_on_c, 0, 65, 80
2, 12970, Note_on_c, 0, 77, 80
2, 12972, Note_on_c, 0, 78, 0
2, 12972, Note_on_c, 0, 66, 0
2, 12972, Note_on_c, 0, 41, 80
2, 12972, Note_on_c, 0, 53, 80
2, 12974, Note_on_c, 0, 54, 0
2, 12976, Note_on_c, 0, 42, 0
2, 13007, Note_on_c, 0, 64, 80
2, 13007, Note_on_c, 0, 76, 80
2, 13008, Note_on_c, 0, 77, 0
2, 13008, Note_on_c, 0, 40, 80
2, 13008, Note_on_c, 0, 52, 80
2, 13010, Note_on_c, 0, 65, 0
2, 13012, Note_on_c, 0, 41, 0
2, 13012, Note_on_c, 0, 53, 0
2, 13048, Note_on_c, 0, 64, 0
2, 13048, Note_on_c, 0, 76, 0
2, 13050, Note_on_c, 0, 52, 0
2, 13050, Note_on_c, 0, 40, 0
2, 13120, Note_on_c, 0, 73, 80
2, 13120, Note_on_c, 0, 76, 80
2, 13125, Note_on_c, 0, 34, 80
2, 13125, Note_on_c, 0, 46, 80
2, 13188, Note_on_c, 0, 76, 0
2, 13240, Note_on_c, 0, 47, 80
2, 13240, Note_on_c, 0, 76, 80
2, 13240, Note_on_c, 0, 80, 80
2, 13242, Note_on_c, 0, 73, 0
2, 13242, Note_on_c, 0, 46, 0
2, 13242, Note_on_c, 0, 35, 80
2, 13244, Note_on_c, 0, 34, 0
2, 13281, Note_on_c, 0, 47, 0
2, 13281, Note_on_c, 0, 35, 0
2, 13317, Note_on_c, 0, 76, 0
2, 13317, Note_on_c, 0, 80, 0
2, 13326, Note_on_c, 0, 78, 80
2, 13326, Note_on_c, 0, 81, 80
2, 13364, Note_on_c, 0, 80, 80
2, 13364, Note_on_c, 0, 83, 80
2, 13366, Note_on_c, 0, 52, 80
2, 13366, Note_on_c, 0, 56, 80
2, 13366, Note_on_c, 0, 59, 80
2, 13366, Note_on_c, 0, 62, 80
2, 13368, Note_on_c, 0, 81, 0
2, 13368, Note_on_c, 0, 78, 0
2, 13391, Note_on_c, 0, 80, 0
2, 13392, Note_on_c, 0, 56, 0
2, 13392, Note_on_c, 0, 52, 0
2, 13392, Note_on_c, 0, 62, 0
2, 13392, Note_on_c, 0, 59, 0
2, 13414, Note_on_c, 0, 83, 0
2, 13437, Note_on_c, 0, 76, 80
2, 13437, Note_on_c, 0, 80, 80
2, 13479, Note_on_c, 0, 28, 80
2, 13490, Note_on_c, 0, 71, 80
2, 13490, Note_on_c, 0, 74, 80
2, 13492, Note_on_c, 0, 80, 0
2, 13492, Note_on_c, 0, 76, 0
2, 13492, Note_on_c, 0, 40, 80
2, 13520, Note_on_c, 0, 71, 0
2, 13520, Note_on_c, 0, 74, 0
2, 13535, Note_on_c, 0, 40, 0
2, 13536, Note_on_c, 0, 28, 0
2, 13567, Note_on_c, 0, 74, 80
2, 13567, Note_on_c, 0, 78, 80
2, 13609, Note_on_c, 0, 52, 80
2, 13609, Note_on_c, 0, 56, 80
2, 13609, Note_on_c, 0, 59, 80
2, 13609, Note_on_c, 0, 62, 80
2, 13637, Note_on_c, 0, 62, 0
2, 13637, Note_on_c, 0, 56, 0
2, 13637, Note_on_c, 0, 52, 0
2, 13637, Note_on_c, 0, 59, 0
2, 13678, Note_on_c, 0, 74, 0
2, 13678, Note_on_c, 0, 78, 0
2, 13687, Note_on_c, 0, 73, 80
2, 13687, Note_on_c, 0, 76, 80
2, 13720, Control_c, 0, 64, 127
2, 13729, Note_on_c, 0, 45, 80
2, 13731, Note_on_c, 0, 33, 80
2, 13774, Note_on_c, 0, 33, 0
2, 13774, Note_on_c, 0, 45, 0
2, 13774, Control_c, 0, 64, 0
2, 13785, Note_on_c, 0, 73, 0
2, 13797, Note_on_c, 0, 76, 0
2, 13806, Note_on_c, 0, 72, 80
2, 13806, Note_on_c, 0, 75, 80
2, 13847, Note_on_c, 0, 73, 80
2, 13847, Note_on_c, 0, 76, 80
2, 13848, Note_on_c, 0, 57, 80
2, 13848, Note_on_c, 0, 61, 80
2, 13850, Note_on_c, 0, 75, 0
2, 13850, Note_on_c, 0, 72, 0
2, 13850, Note_on_c, 0, 52, 80
2, 13876, Note_on_c, 0, 73, 0
2, 13878, Note_on_c, 0, 61, 0
2, 13878, Note_on_c, 0, 76, 0
2, 13878, Note_on_c, 0, 57, 0
2, 13878, Note_on_c, 0, 52, 0
2, 13927, Note_on_c, 0, 69, 80
2, 13927, Note_on_c, 0, 73, 80
2, 13971, Note_on_c, 0, 28, 80
2, 13971, Note_on_c, 0, 40, 80
2, 14014, Note_on_c, 0, 40, 0
2, 14016, Note_on_c, 0, 28, 0
2, 14039, Note_on_c, 0, 69, 0
2, 14048, Note_on_c, 0, 68, 80
2, 14086, Note_on_c, 0, 61, 80
2, 14086, Note_on_c, 0, 66, 80
2, 14088, Note_on_c, 0, 52, 80
2, 14088, Note_on_c, 0, 57, 80
2, 14089, Note_on_c, 0, 68, 0
2, 14115, Note_on_c, 0, 61, 0
2, 14115, Note_on_c, 0, 57, 0
2, 14117, Note_on_c, 0, 52, 0
2, 14153, Note_on_c, 0, 66, 0
2, 14153, Note_on_c, 0, 73, 0
2, 14164, Note_on_c, 0, 64, 80
2, 14207, Note_on_c, 0, 52, 80
2, 14207, Note_on_c, 0, 56, 80
2, 14207, Note_on_c, 0, 62, 80
2, 14207, Note_on_c, 0, 68, 80
2, 14207, Note_on_c, 0, 71, 80
2, 14208, Note_on_c, 0, 64, 0
2, 14272, Note_on_c, 0, 68, 0
2, 14272, Note_on_c, 0, 71, 0
2, 14277, Note_on_c, 0, 62, 0
2, 14281, Note_on_c, 0, 73, 80
2, 14283, Note_on_c, 0, 61, 80
2, 14283, Note_on_c, 0, 69, 80
2, 14321, Note_on_c, 0, 71, 80
2, 14321, Note_on_c, 0, 74, 80
2, 14323, Note_on_c, 0, 59, 80
2, 14325, Note_on_c, 0, 69, 0
2, 14325, Note_on_c, 0, 61, 0
2, 14325, Note_on_c, 0, 73, 0
2, 14351, Note_on_c, 0, 71, 0
2, 14391, Note_on_c, 0, 74, 0
2, 14391, Note_on_c, 0, 59, 0
2, 14391, Note_on_c, 0, 56, 0
2, 14396, Note_on_c, 0, 52, 0
2, 14400, Note_on_c, 0, 68, 80
2, 14400, Note_on_c, 0, 71, 80
2, 14441, Note_on_c, 0, 56, 80
2, 14441, Note_on_c, 0, 59, 80
2, 14441, Note_on_c, 0, 66, 80
2, 14443, Note_on_c, 0, 71, 0
2, 14443, Note_on_c, 0, 50, 80
2, 14445, Note_on_c, 0, 68, 0
2, 14480, Note_on_c, 0, 66, 0
2, 14482, Note_on_c, 0, 59, 0
2, 14518, Note_on_c, 0, 60, 80
2, 14518, Note_on_c, 0, 68, 80
2, 14620, Note_on_c, 0, 68, 0
2, 14622, Note_on_c, 0, 56, 0
2, 14634, Note_on_c, 0, 66, 80
2, 14671, Note_on_c, 0, 65, 80
2, 14673, Note_on_c, 0, 66, 0
2, 14673, Note_on_c, 0, 50, 0
2, 14673, Note_on_c, 0, 60, 0
2, 14673, Note_on_c, 0, 49, 80
2, 14673, Note_on_c, 0, 56, 80
2, 14673, Note_on_c, 0, 61, 80
2, 14751, Note_on_c, 0, 43, 80
2, 14756, Note_on_c, 0, 49, 0
2, 14791, Note_on_c, 0, 44, 80
2, 14793, Note_on_c, 0, 43, 0
2, 14871, Note_on_c, 0, 41, 80
2, 14873, Note_on_c, 0, 44, 0
2, 14908, Note_on_c, 0, 37, 80
2, 14910, Note_on_c, 0, 41, 0
2, 14974, Note_on_c, 0, 61, 0
2, 14974, Note_on_c, 0, 65, 0
2, 14974, Note_on_c, 0, 56, 0
2, 14976, Note_on_c, 0, 37, 0
2, 15024, Note_on_c, 0, 61, 80
2, 15024, Note_on_c, 0, 73, 80
2, 15026, Note_on_c, 0, 37, 80
2, 15026, Note_on_c, 0, 49, 80
2, 15092, Note_on_c, 0, 49, 0
2, 15092, Note_on_c, 0, 61, 0
2, 15092, Note_on_c, 0, 73, 0
2, 15094, Note_on_c, 0, 37, 0
2, 15141, Note_on_c, 0, 47, 80
2, 15141, Note_on_c, 0, 62, 80
2, 15141, Note_on_c, 0, 74, 80
2, 15143, Note_on_c, 0, 35, 80
2, 15216, Note_on_c, 0, 64, 80
2, 15216, Note_on_c, 0, 76, 80
2, 15217, Note_on_c, 0, 74, 0
2, 15217, Note_on_c, 0, 62, 0
2, 15217, Note_on_c, 0, 37, 80
2, 15217, Note_on_c, 0, 49, 80
2, 15219, Note_on_c, 0, 35, 0
2, 15219, Note_on_c, 0, 47, 0
2, 15257, Note_on_c, 0, 38, 80
2, 15257, Note_on_c, 0, 50, 80
2, 15257, Note_on_c, 0, 66, 80
2, 15257, Note_on_c, 0, 78, 80
2, 15259, Note_on_c, 0, 37, 0
2, 15259, Note_on_c, 0, 76, 0
2, 15259, Note_on_c, 0, 64, 0
2, 15259, Note_on_c, 0, 49, 0
2, 15280, Note_on_c, 0, 66, 0
2, 15280, Note_on_c, 0, 78, 0
2, 15285, Note_on_c, 0, 50, 0
2, 15285, Note_on_c, 0, 38, 0
2, 15332, Note_on_c, 0, 69, 80
2, 15332, Note_on_c, 0, 81, 80
2, 15334, Note_on_c, 0, 42, 80
2, 15334, Note_on_c, 0, 54, 80
2, 15449, Note_on_c, 0, 71, 80
2, 15449, Note_on_c, 0, 83, 80
2, 15451, Note_on_c, 0, 41, 80
2, 15451, Note_on_c, 0, 53, 80
2, 15453, Note_on_c, 0, 54, 0
2, 15453, Note_on_c, 0, 42, 0
2, 15453, Note_on_c, 0, 69, 0
2, 15453, Note_on_c, 0, 81, 0
2, 15485, Note_on_c, 0, 52, 80
2, 15485, Note_on_c, 0, 73, 80
2, 15485, Note_on_c, 0, 85, 80
2, 15487, Note_on_c, 0, 71, 0
2, 15487, Note_on_c, 0, 83, 0
2, 15489, Note_on_c, 0, 40, 80
2, 15491, Note_on_c, 0, 41, 0
2, 15491, Note_on_c, 0, 53, 0
2, 15524, Note_on_c, 0, 73, 0
2, 15524, Note_on_c, 0, 85, 0
2, 15526, Note_on_c, 0, 52, 0
2, 15528, Note_on_c, 0, 40, 0
2, 15602, Note_on_c, 0, 74, 80
2, 15602, Note_on_c, 0, 86, 80
2, 15604, Note_on_c, 0, 47, 80
2, 15604, Note_on_c, 0, 59, 80
2, 15677, Note_on_c, 0, 49, 80
2, 15677, Note_on_c, 0, 61, 80
2, 15677, Note_on_c, 0, 76, 80
2, 15677, Note_on_c, 0, 88, 80
2, 15679, Note_on_c, 0, 59, 0
2, 15679, Note_on_c, 0, 47, 0
2, 15679, Note_on_c, 0, 74, 0
2, 15679, Note_on_c, 0, 86, 0
2, 15712, Note_on_c, 0, 78, 80
2, 15712, Note_on_c, 0, 90, 80
2, 15714, Note_on_c, 0, 62, 80
2, 15716, Note_on_c, 0, 88, 0
2, 15716, Note_on_c, 0, 50, 80
2, 15718, Note_on_c, 0, 49, 0
2, 15718, Note_on_c, 0, 76, 0
2, 15718, Note_on_c, 0, 61, 0
2, 15741, Note_on_c, 0, 78, 0
2, 15741, Note_on_c, 0, 90, 0
2, 15743, Note_on_c, 0, 62, 0
2, 15744, Note_on_c, 0, 50, 0
2, 15789, Note_on_c, 0, 81, 80
2, 15789, Note_on_c, 0, 93, 80
2, 15791, Note_on_c, 0, 54, 80
2, 15791, Note_on_c, 0, 66, 80
2, 15903, Note_on_c, 0, 95, 80
2, 15905, Note_on_c, 0, 93, 0
2, 15905, Note_on_c, 0, 83, 80
2, 15907, Note_on_c, 0, 66, 0
2, 15907, Note_on_c, 0, 81, 0
2, 15907, Note_on_c, 0, 53, 80
2, 15907, Note_on_c, 0, 65, 80
2, 15909, Note_on_c, 0, 54, 0
2, 15944, Note_on_c, 0, 85, 80
2, 15944, Note_on_c, 0, 97, 80
2, 15946, Note_on_c, 0, 83, 0
2, 15946, Note_on_c, 0, 95, 0
2, 15946, Note_on_c, 0, 52, 80
2, 15946, Note_on_c, 0, 64, 80
2, 15948, Note_on_c, 0, 65, 0
2, 15948, Note_on_c, 0, 53, 0
2, 15984, Note_on_c, 0, 97, 0
2, 15984, Note_on_c, 0, 85, 0
2, 15984, Note_on_c, 0, 64, 0
2, 15985, Note_on_c, 0, 52, 0
2, 16060, Note_on_c, 0, 73, 80
2, 16060, Note_on_c, 0, 76, 80
2, 16060, Note_on_c, 0, 81, 80
2, 16060, Note_on_c, 0, 85, 80
2, 16062, Note_on_c, 0, 40, 80
2, 16062, Note_on_c, 0, 52, 80
2, 16088, Note_on_c, 0, 85, 0
2, 16088, Note_on_c, 0, 81, 0
2, 16088, Note_on_c, 0, 73, 0
2, 16090, Note_on_c, 0, 76, 0
2, 16104, Note_on_c, 0, 52, 0
2, 16106, Note_on_c, 0, 40, 0
2, 16137, Note_on_c, 0, 69, 80
2, 16137, Note_on_c, 0, 73, 80
2, 16137, Note_on_c, 0, 76, 80
2, 16137, Note_on_c, 0, 81, 80
2, 16175, Note_on_c, 0, 61, 80
2, 16176, Note_on_c, 0, 52, 80
2, 16176, Note_on_c, 0, 57, 80
2, 16202, Note_on_c, 0, 61, 0
2, 16204, Note_on_c, 0, 52, 0
2, 16204, Note_on_c, 0, 57, 0
2, 16240, Note_on_c, 0, 76, 0
2, 16240, Note_on_c, 0, 69, 0
2, 16240, Note_on_c, 0, 73, 0
2, 16240, Note_on_c, 0, 81, 0
2, 16249, Note_on_c, 0, 71, 80
2, 16249, Note_on_c, 0, 74, 80
2, 16249, Note_on_c, 0, 80, 80
2, 16249, Note_on_c, 0, 83, 80
2, 16285, Control_c, 0, 64, 127
2, 16295, Note_on_c, 0, 28, 80
2, 16295, Note_on_c, 0, 40, 80
2, 16337, Note_on_c, 0, 40, 0
2, 16337, Note_on_c, 0, 28, 0
2, 16337, Control_c, 0, 64, 0
2, 16358, Note_on_c, 0, 80, 0
2, 16358, Note_on_c, 0, 83, 0
2, 16360, Note_on_c, 0, 74, 0
2, 16360, Note_on_c, 0, 71, 0
2, 16367, Note_on_c, 0, 73, 80
2, 16367, Note_on_c, 0, 85, 80
2, 16368, Note_on_c, 0, 76, 80
2, 16406, Note_on_c, 0, 71, 80
2, 16406, Note_on_c, 0, 74, 80
2, 16406, Note_on_c, 0, 80, 80
2, 16406, Note_on_c, 0, 83, 80
2, 16408, Note_on_c, 0, 76, 0
2, 16408, Note_on_c, 0, 73, 0
2, 16408, Note_on_c, 0, 85, 0
2, 16408, Note_on_c, 0, 52, 80
2, 16408, Note_on_c, 0, 56, 80
2, 16408, Note_on_c, 0, 59, 80
2, 16408, Note_on_c, 0, 62, 80
2, 16434, Note_on_c, 0, 59, 0
2, 16436, Note_on_c, 0, 62, 0
2, 16436, Note_on_c, 0, 52, 0
2, 16436, Note_on_c, 0, 56, 0
2, 16525, Note_on_c, 0, 73, 80
2, 16525, Note_on_c, 0, 76, 80
2, 16525, Note_on_c, 0, 81, 80
2, 16527, Note_on_c, 0, 45, 80
2, 16527, Note_on_c, 0, 52, 80
2, 16527, Note_on_c, 0, 61, 80
2, 16527, Note_on_c, 0, 69, 80
2, 16529, Note_on_c, 0, 83, 0
2, 16529, Note_on_c, 0, 71, 0
2, 16529, Note_on_c, 0, 74, 0
2, 16529, Note_on_c, 0, 80, 0
2, 16592, Note_on_c, 0, 45, 0
2, 16604, Note_on_c, 0, 49, 80
2, 16641, Note_on_c, 0, 50, 80
2, 16643, Note_on_c, 0, 61, 0
2, 16645, Note_on_c, 0, 52, 0
2, 16645, Note_on_c, 0, 49, 0
2, 16710, Note_on_c, 0, 76, 0
2, 16710, Note_on_c, 0, 69, 0
2, 16710, Note_on_c, 0, 81, 0
2, 16710, Note_on_c, 0, 73, 0
2, 16712, Note_on_c, 0, 50, 0
2, 16722, Note_on_c, 0, 51, 80
2, 16759, Note_on_c, 0, 68, 80
2, 16759, Note_on_c, 0, 71, 80
2, 16759, Note_on_c, 0, 74, 80
2, 16759, Note_on_c, 0, 76, 80
2, 16761, Note_on_c, 0, 64, 80
2, 16763, Note_on_c, 0, 52, 80
2, 16765, Note_on_c, 0, 51, 0
2, 16828, Note_on_c, 0, 52, 0
2, 16838, Note_on_c, 0, 38, 80
2, 16838, Note_on_c, 0, 50, 80
2, 16880, Note_on_c, 0, 50, 0
2, 16880, Note_on_c, 0, 37, 80
2, 16880, Note_on_c, 0, 49, 80
2, 16882, Note_on_c, 0, 38, 0
2, 16943, Note_on_c, 0, 68, 0
2, 16943, Note_on_c, 0, 74, 0
2, 16943, Note_on_c, 0, 71, 0
2, 16943, Note_on_c, 0, 76, 0
2, 16944, Note_on_c, 0, 49, 0
2, 16944, Note_on_c, 0, 64, 0
2, 16946, Note_on_c, 0, 37, 0
2, 16956, Note_on_c, 0, 35, 80
2, 16956, Note_on_c, 0, 47, 80
2, 16993, Note_on_c, 0, 64, 80
2, 16993, Note_on_c, 0, 69, 80
2, 16993, Note_on_c, 0, 73, 80
2, 16993, Note_on_c, 0, 76, 80
2, 16995, Note_on_c, 0, 45, 80
2, 16997, Note_on_c, 0, 33, 80
2, 16999, Note_on_c, 0, 47, 0
2, 16999, Note_on_c, 0, 35, 0
2, 17022, Note_on_c, 0, 69, 0
2, 17024, Control_c, 0, 64, 127
2, 17040, Note_on_c, 0, 33, 0
2, 17040, Note_on_c, 0, 45, 0
2, 17062, Note_on_c, 0, 76, 0
2, 17062, Note_on_c, 0, 73, 0
2, 17062, Note_on_c, 0, 64, 0
2, 17071, Note_on_c, 0, 81, 80
2, 17073, Note_on_c, 0, 69, 80
2, 17080, Control_c, 0, 64, 0
2, 17111, Note_on_c, 0, 57, 80
2, 17111, Note_on_c, 0, 61, 80
2, 17111, Note_on_c, 0, 73, 80
2, 17111, Note_on_c, 0, 85, 80
2, 17112, Note_on_c, 0, 81, 0
2, 17112, Note_on_c, 0, 52, 80
2, 17114, Note_on_c, 0, 69, 0
2, 17140, Note_on_c, 0, 57, 0
2, 17140, Note_on_c, 0, 73, 0
2, 17140, Note_on_c, 0, 61, 0
2, 17140, Note_on_c, 0, 85, 0
2, 17142, Note_on_c, 0, 52, 0
2, 17186, Note_on_c, 0, 88, 80
2, 17188, Note_on_c, 0, 76, 80
2, 17231, Note_on_c, 0, 37, 80
2, 17231, Note_on_c, 0, 49, 80
2, 17273, Note_on_c, 0, 49, 0
2, 17273, Note_on_c, 0, 37, 0
2, 17294, Note_on_c, 0, 88, 0
2, 17296, Note_on_c, 0, 76, 0
2, 17305, Note_on_c, 0, 69, 80
2, 17305, Note_on_c, 0, 81, 80
2, 17346, Note_on_c, 0, 71, 80
2, 17346, Note_on_c, 0, 83, 80
2, 17346, Note_on_c, 0, 52, 80
2, 17346, Note_on_c, 0, 57, 80
2, 17346, Note_on_c, 0, 61, 80
2, 17348, Note_on_c, 0, 81, 0
2, 17348, Note_on_c, 0, 69, 0
2, 17374, Note_on_c, 0, 57, 0
2, 17374, Note_on_c, 0, 61, 0
2, 17376, Note_on_c, 0, 52, 0
2, 17413, Note_on_c, 0, 71, 0
2, 17413, Note_on_c, 0, 83, 0
2, 17420, Note_on_c, 0, 85, 80
2, 17422, Note_on_c, 0, 73, 80
2, 17459, Note_on_c, 0, 80, 80
2, 17461, Note_on_c, 0, 50, 80
2, 17461, Note_on_c, 0, 68, 80
2, 17463, Note_on_c, 0, 73, 0
2, 17463, Note_on_c, 0, 85, 0
2, 17463, Note_on_c, 0, 38, 80
2, 17494, Control_c, 0, 64, 127
2, 17503, Note_on_c, 0, 50, 0
2, 17505, Note_on_c, 0, 38, 0
2, 17528, Note_on_c, 0, 80, 0
2, 17528, Note_on_c, 0, 68, 0
2, 17538, Note_on_c, 0, 69, 80
2, 17538, Note_on_c, 0, 81, 80
2, 17544, Control_c, 0, 64, 0
2, 17575, Note_on_c, 0, 78, 80
2, 17577, Note_on_c, 0, 54, 80
2, 17577, Note_on_c, 0, 57, 80
2, 17577, Note_on_c, 0, 62, 80
2, 17577, Note_on_c, 0, 66, 80
2, 17579, Note_on_c, 0, 81, 0
2, 17579, Note_on_c, 0, 69, 0
2, 17602, Note_on_c, 0, 78, 0
2, 17602, Note_on_c, 0, 62, 0
2, 17602, Note_on_c, 0, 66, 0
2, 17604, Note_on_c, 0, 54, 0
2, 17604, Note_on_c, 0, 57, 0
2, 17651, Note_on_c, 0, 69, 80
2, 17651, Note_on_c, 0, 73, 80
2, 17651, Note_on_c, 0, 76, 80
2, 17653, Note_on_c, 0, 64, 80
2, 17693, Note_on_c, 0, 37, 80
2, 17693, Note_on_c, 0, 49, 80
2, 17759, Note_on_c, 0, 49, 0
2, 17759, Note_on_c, 0, 73, 0
2, 17759, Note_on_c, 0, 76, 0
2, 17759, Note_on_c, 0, 69, 0
2, 17759, Note_on_c, 0, 64, 0
2, 17760, Note_on_c, 0, 37, 0
2, 17767, Note_on_c, 0, 65, 80
2, 17767, Note_on_c, 0, 77, 80
2, 17805, Note_on_c, 0, 78, 80
2, 17807, Note_on_c, 0, 48, 80
2, 17807, Note_on_c, 0, 66, 80
2, 17808, Note_on_c, 0, 77, 0
2, 17808, Note_on_c, 0, 65, 0
2, 17808, Note_on_c, 0, 36, 80
2, 17872, Note_on_c, 0, 66, 0
2, 17872, Note_on_c, 0, 78, 0
2, 17881, Note_on_c, 0, 79, 80
2, 17883, Note_on_c, 0, 67, 80
2, 17921, Note_on_c, 0, 68, 80
2, 17921, Note_on_c, 0, 74, 80
2, 17921, Note_on_c, 0, 76, 80
2, 17921, Note_on_c, 0, 80, 80
2, 17926, Note_on_c, 0, 79, 0
2, 17926, Note_on_c, 0, 35, 80
2, 17926, Note_on_c, 0, 47, 80
2, 17928, Note_on_c, 0, 67, 0
2, 17928, Note_on_c, 0, 36, 0
2, 17928, Note_on_c, 0, 48, 0
2, 17963, Note_on_c, 0, 35, 0
2, 17963, Note_on_c, 0, 47, 0
2, 17986, Note_on_c, 0, 74, 0
2, 17986, Note_on_c, 0, 80, 0
2, 17988, Note_on_c, 0, 76, 0
2, 17988, Note_on_c, 0, 68, 0
2, 17995, Note_on_c, 0, 71, 80
2, 17995, Note_on_c, 0, 83, 80
2, 18035, Note_on_c, 0, 62, 80
2, 18035, Note_on_c, 0, 74, 80
2, 18035, Note_on_c, 0, 86, 80
2, 18037, Note_on_c, 0, 83, 0
2, 18037, Note_on_c, 0, 52, 80
2, 18037, Note_on_c, 0, 56, 80
2, 18037, Note_on_c, 0, 59, 80
2, 18039, Note_on_c, 0, 71, 0
2, 18062, Note_on_c, 0, 86, 0
2, 18064, Note_on_c, 0, 62, 0
2, 18064, Note_on_c, 0, 56, 0
2, 18064, Note_on_c, 0, 74, 0
2, 18064, Note_on_c, 0, 59, 0
2, 18069, Note_on_c, 0, 52, 0
2, 18106, Control_c, 0, 64, 127
2, 18113, Note_on_c, 0, 78, 80
2, 18113, Note_on_c, 0, 80, 80
2, 18113, Note_on_c, 0, 83, 80
2, 18113, Note_on_c, 0, 86, 80
2, 18113, Note_on_c, 0, 90, 80
2, 18169, Note_on_c, 0, 40, 80
2, 18171, Note_on_c, 0, 28, 80
2, 18212, Note_on_c, 0, 40, 0
2, 18214, Note_on_c, 0, 28, 0
2, 18214, Control_c, 0, 64, 0
2, 18233, Note_on_c, 0, 78, 0
2, 18233, Note_on_c, 0, 90, 0
2, 18242, Note_on_c, 0, 77, 80
2, 18242, Note_on_c, 0, 89, 80
2, 18280, Note_on_c, 0, 88, 80
2, 18282, Note_on_c, 0, 52, 80
2, 18282, Note_on_c, 0, 56, 80
2, 18282, Note_on_c, 0, 59, 80
2, 18282, Note_on_c, 0, 62, 80
2, 18282, Note_on_c, 0, 76, 80
2, 18284, Note_on_c, 0, 89, 0
2, 18284, Note_on_c, 0, 77, 0
2, 18310, Note_on_c, 0, 59, 0
2, 18310, Note_on_c, 0, 56, 0
2, 18310, Note_on_c, 0, 62, 0
2, 18312, Note_on_c, 0, 52, 0
2, 18347, Note_on_c, 0, 88, 0
2, 18349, Note_on_c, 0, 76, 0
2, 18349, Note_on_c, 0, 80, 0
2, 18349, Note_on_c, 0, 86, 0
2, 18349, Note_on_c, 0, 83, 0
2, 18401, Note_on_c, 0, 69, 80
2, 18401, Note_on_c, 0, 73, 80
2, 18401, Note_on_c, 0, 76, 80
2, 18401, Note_on_c, 0, 81, 80
2, 18403, Note_on_c, 0, 45, 80
2, 18405, Note_on_c, 0, 33, 80
2, 18428, Note_on_c, 0, 73, 0
2, 18442, Note_on_c, 0, 45, 0
2, 18444, Note_on_c, 0, 33, 0
2, 18465, Note_on_c, 0, 76, 0
2, 18465, Note_on_c, 0, 81, 0
2, 18467, Note_on_c, 0, 69, 0
2, 18474, Note_on_c, 0, 73, 80
2, 18474, Note_on_c, 0, 85, 80
2, 18514, Note_on_c, 0, 76, 80
2, 18514, Note_on_c, 0, 88, 80
2, 18516, Note_on_c, 0, 85, 0
2, 18516, Note_on_c, 0, 61, 80
2, 18518, Note_on_c, 0, 73, 0
2, 18518, Note_on_c, 0, 52, 80
2, 18518, Note_on_c, 0, 57, 80
2, 18541, Note_on_c, 0, 88, 0
2, 18543, Note_on_c, 0, 61, 0
2, 18543, Note_on_c, 0, 76, 0
2, 18545, Note_on_c, 0, 52, 0
2, 18545, Note_on_c, 0, 57, 0
2, 18589, Note_on_c, 0, 90, 80
2, 18589, Note_on_c, 0, 85, 80
2, 18591, Note_on_c, 0, 78, 80
2, 18591, Note_on_c, 0, 81, 80
2, 18624, Control_c, 0, 64, 127
2, 18630, Note_on_c, 0, 40, 80
2, 18632, Note_on_c, 0, 28, 80
2, 18672, Note_on_c, 0, 28, 0
2, 18672, Note_on_c, 0, 40, 0
2, 18674, Control_c, 0, 64, 0
2, 18694, Note_on_c, 0, 78, 0
2, 18694, Note_on_c, 0, 90, 0
2, 18694, Note_on_c, 0, 85, 0
2, 18694, Note_on_c, 0, 81, 0
2, 18700, Note_on_c, 0, 89, 80
2, 18702, Note_on_c, 0, 77, 80
2, 18740, Note_on_c, 0, 88, 80
2, 18742, Note_on_c, 0, 76, 80
2, 18742, Note_on_c, 0, 81, 80
2, 18742, Note_on_c, 0, 85, 80
2, 18744, Note_on_c, 0, 77, 0
2, 18744, Note_on_c, 0, 89, 0
2, 18744, Note_on_c, 0, 52, 80
2, 18744, Note_on_c, 0, 57, 80
2, 18744, Note_on_c, 0, 61, 80
2, 18771, Note_on_c, 0, 61, 0
2, 18773, Note_on_c, 0, 52, 0
2, 18773, Note_on_c, 0, 57, 0
2, 18809, Note_on_c, 0, 88, 0
2, 18809, Note_on_c, 0, 76, 0
2, 18809, Note_on_c, 0, 85, 0
2, 18809, Note_on_c, 0, 81, 0
2, 18856, Note_on_c, 0, 64, 80
2, 18856, Note_on_c, 0, 69, 80
2, 18856, Note_on_c, 0, 73, 80
2, 18856, Note_on_c, 0, 76, 80
2, 18858, Note_on_c, 0, 45, 80
2, 18860, Note_on_c, 0, 33, 80
2, 18883, Note_on_c, 0, 69, 0
2, 18899, Note_on_c, 0, 45, 0
2, 18899, Note_on_c, 0, 33, 0
2, 18920, Note_on_c, 0, 73, 0
2, 18920, Note_on_c, 0, 76, 0
2, 18922, Note_on_c, 0, 64, 0
2, 18929, Note_on_c, 0, 81, 80
2, 18931, Note_on_c, 0, 69, 80
2, 18971, Note_on_c, 0, 52, 80
2, 18971, Note_on_c, 0, 57, 80
2, 18971, Note_on_c, 0, 61, 80
2, 18971, Note_on_c, 0, 73, 80
2, 18971, Note_on_c, 0, 85, 80
2, 18973, Note_on_c, 0, 81, 0
2, 18975, Note_on_c, 0, 69, 0
2, 18998, Note_on_c, 0, 73, 0
2, 18998, Note_on_c, 0, 85, 0
2, 19000, Note_on_c, 0, 57, 0
2, 19000, Note_on_c, 0, 61, 0
2, 19000, Note_on_c, 0, 52, 0
2, 19044, Note_on_c, 0, 76, 80
2, 19044, Note_on_c, 0, 81, 80
2, 19044, Note_on_c, 0, 85, 80
2, 19044, Note_on_c, 0, 88, 80
2, 19088, Note_on_c, 0, 37, 80
2, 19088, Note_on_c, 0, 49, 80
2, 19114, Note_on_c, 0, 81, 0
2, 19128, Note_on_c, 0, 49, 0
2, 19130, Note_on_c, 0, 37, 0
2, 19153, Note_on_c, 0, 76, 0
2, 19153, Note_on_c, 0, 85, 0
2, 19153, Note_on_c, 0, 88, 0
2, 19163, Note_on_c, 0, 81, 80
2, 19165, Note_on_c, 0, 69, 80
2, 19202, Note_on_c, 0, 71, 80
2, 19202, Note_on_c, 0, 83, 80
2, 19204, Note_on_c, 0, 81, 0
2, 19204, Note_on_c, 0, 52, 80
2, 19204, Note_on_c, 0, 57, 80
2, 19204, Note_on_c, 0, 61, 80
2, 19206, Note_on_c, 0, 69, 0
2, 19234, Note_on_c, 0, 57, 0
2, 19234, Note_on_c, 0, 52, 0
2, 19234, Note_on_c, 0, 61, 0
2, 19272, Note_on_c, 0, 83, 0
2, 19273, Note_on_c, 0, 71, 0
2, 19283, Note_on_c, 0, 73, 80
2, 19283, Note_on_c, 0, 85, 80
2, 19325, Note_on_c, 0, 68, 80
2, 19325, Note_on_c, 0, 80, 80
2, 19327, Note_on_c, 0, 85, 0
2, 19327, Note_on_c, 0, 73, 0
2, 19329, Note_on_c, 0, 38, 80
2, 19329, Note_on_c, 0, 50, 80
2, 19371, Note_on_c, 0, 50, 0
2, 19371, Note_on_c, 0, 38, 0
2, 19397, Note_on_c, 0, 68, 0
2, 19397, Note_on_c, 0, 80, 0
2, 19407, Note_on_c, 0, 69, 80
2, 19407, Note_on_c, 0, 81, 80
2, 19447, Note_on_c, 0, 66, 80
2, 19447, Note_on_c, 0, 78, 80
2, 19449, Note_on_c, 0, 81, 0
2, 19449, Note_on_c, 0, 54, 80
2, 19449, Note_on_c, 0, 57, 80
2, 19449, Note_on_c, 0, 62, 80
2, 19451, Note_on_c, 0, 69, 0
2, 19477, Note_on_c, 0, 78, 0
2, 19477, Note_on_c, 0, 66, 0
2, 19479, Note_on_c, 0, 54, 0
2, 19479, Note_on_c, 0, 57, 0
2, 19479, Note_on_c, 0, 62, 0
2, 19526, Note_on_c, 0, 73, 80
2, 19526, Note_on_c, 0, 76, 80
2, 19528, Note_on_c, 0, 69, 80
2, 19530, Note_on_c, 0, 64, 80
2, 19572, Note_on_c, 0, 37, 80
2, 19572, Note_on_c, 0, 49, 80
2, 19614, Note_on_c, 0, 49, 0
2, 19616, Note_on_c, 0, 37, 0
2, 19637, Note_on_c, 0, 73, 0
2, 19637, Note_on_c, 0, 76, 0
2, 19639, Note_on_c, 0, 69, 0
2, 19639, Note_on_c, 0, 64, 0
2, 19646, Note_on_c, 0, 66, 80
2, 19688, Note_on_c, 0, 46, 80
2, 19688, Note_on_c, 0, 58, 80
2, 19688, Note_on_c, 0, 64, 80
2, 19688, Note_on_c, 0, 67, 80
2, 19690, Note_on_c, 0, 66, 0
2, 19755, Note_on_c, 0, 64, 0
2, 19765, Note_on_c, 0, 73, 80
2, 19805, Note_on_c, 0, 47, 80
2, 19805, Note_on_c, 0, 59, 80
2, 19805, Note_on_c, 0, 64, 80
2, 19805, Note_on_c, 0, 68, 80
2, 19807, Note_on_c, 0, 73, 0
2, 19807, Note_on_c, 0, 67, 0
2, 19807, Note_on_c, 0, 58, 0
2, 19809, Note_on_c, 0, 46, 0
2, 19847, Note_on_c, 0, 59, 0
2, 19848, Note_on_c, 0, 47, 0
2, 19872, Note_on_c, 0, 64, 0
2, 19872, Note_on_c, 0, 68, 0
2, 19881, Note_on_c, 0, 71, 80
2, 19921, Note_on_c, 0, 56, 80
2, 19921, Note_on_c, 0, 59, 80
2, 19921, Note_on_c, 0, 64, 80
2, 19921, Note_on_c, 0, 76, 80
2, 19926, Note_on_c, 0, 71, 0
2, 19949, Note_on_c, 0, 64, 0
2, 19949, Note_on_c, 0, 56, 0
2, 19949, Note_on_c, 0, 59, 0
2, 19951, Note_on_c, 0, 76, 0
2, 20000, Note_on_c, 0, 69, 80
2, 20000, Note_on_c, 0, 73, 80
2, 20042, Note_on_c, 0, 35, 80
2, 20042, Note_on_c, 0, 47, 80
2, 20083, Note_on_c, 0, 47, 0
2, 20083, Note_on_c, 0, 35, 0
2, 20109, Note_on_c, 0, 73, 0
2, 20118, Note_on_c, 0, 78, 80
2, 20159, Note_on_c, 0, 59, 80
2, 20159, Note_on_c, 0, 63, 80
2, 20159, Note_on_c, 0, 71, 80
2, 20160, Note_on_c, 0, 78, 0
2, 20160, Note_on_c, 0, 69, 0
2, 20160, Note_on_c, 0, 57, 80
2, 20188, Note_on_c, 0, 57, 0
2, 20188, Note_on_c, 0, 63, 0
2, 20188, Note_on_c, 0, 59, 0
2, 20226, Note_on_c, 0, 71, 0
2, 20235, Note_on_c, 0, 80, 80
2, 20276, Note_on_c, 0, 76, 80
2, 20278, Note_on_c, 0, 50, 80
2, 20278, Note_on_c, 0, 56, 80
2, 20278, Note_on_c, 0, 68, 80
2, 20280, Note_on_c, 0, 80, 0
2, 20280, Note_on_c, 0, 40, 80
2, 20317, Note_on_c, 0, 68, 0
2, 20319, Note_on_c, 0, 56, 0
2, 20319, Note_on_c, 0, 76, 0
2, 20319, Note_on_c, 0, 50, 0
2, 20319, Note_on_c, 0, 40, 0
2, 20389, Note_on_c, 0, 86, 80
2, 20391, Note_on_c, 0, 74, 80
2, 20393, Note_on_c, 0, 40, 80
2, 20395, Note_on_c, 0, 28, 80
2, 20458, Note_on_c, 0, 74, 0
2, 20458, Note_on_c, 0, 86, 0
2, 20470, Note_on_c, 0, 71, 80
2, 20470, Note_on_c, 0, 83, 80
2, 20507, Note_on_c, 0, 80, 80
2, 20509, Note_on_c, 0, 68, 80
2, 20511, Note_on_c, 0, 83, 0
2, 20511, Note_on_c, 0, 71, 0
2, 20511, Note_on_c, 0, 30, 80
2, 20511, Note_on_c, 0, 42, 80
2, 20513, Note_on_c, 0, 40, 0
2, 20515, Note_on_c, 0, 28, 0
2, 20575, Note_on_c, 0, 68, 0
2, 20575, Note_on_c, 0, 80, 0
2, 20585, Note_on_c, 0, 79, 80
2, 20587, Note_on_c, 0, 67, 80
2, 20624, Note_on_c, 0, 66, 80
2, 20624, Note_on_c, 0, 78, 80
2, 20626, Note_on_c, 0, 67, 0
2, 20626, Note_on_c, 0, 79, 0
2, 20626, Note_on_c, 0, 44, 80
2, 20628, Note_on_c, 0, 32, 80
2, 20630, Note_on_c, 0, 30, 0
2, 20630, Note_on_c, 0, 42, 0
2, 20687, Note_on_c, 0, 66, 0
2, 20688, Note_on_c, 0, 78, 0
2, 20700, Note_on_c, 0, 65, 80
2, 20700, Note_on_c, 0, 77, 80
2, 20736, Note_on_c, 0, 73, 80
2, 20736, Note_on_c, 0, 76, 80
2, 20737, Note_on_c, 0, 64, 80
2, 20737, Note_on_c, 0, 69, 80
2, 20739, Note_on_c, 0, 77, 0
2, 20739, Note_on_c, 0, 65, 0
2, 20739, Note_on_c, 0, 33, 80
2, 20739, Note_on_c, 0, 45, 80
2, 20741, Note_on_c, 0, 44, 0
2, 20741, Note_on_c, 0, 32, 0
2, 20767, Note_on_c, 0, 69, 0
2, 20782, Note_on_c, 0, 45, 0
2, 20782, Note_on_c, 0, 33, 0
2, 20805, Note_on_c, 0, 64, 0
2, 20805, Note_on_c, 0, 73, 0
2, 20805, Note_on_c, 0, 76, 0
2, 20814, Note_on_c, 0, 69, 80
2, 20814, Note_on_c, 0, 81, 80
2, 20852, Note_on_c, 0, 73, 80
2, 20852, Note_on_c, 0, 85, 80
2, 20854, Note_on_c, 0, 52, 80
2, 20854, Note_on_c, 0, 57, 80
2, 20854, Note_on_c, 0, 61, 80
2, 20856, Note_on_c, 0, 81, 0
2, 20857, Note_on_c, 0, 69, 0
2, 20880, Note_on_c, 0, 73, 0
2, 20880, Note_on_c, 0, 85, 0
2, 20880, Note_on_c, 0, 61, 0
2, 20882, Note_on_c, 0, 57, 0
2, 20882, Note_on_c, 0, 52, 0
2, 20929, Note_on_c, 0, 81, 80
2, 20929, Note_on_c, 0, 85, 80
2, 20929, Note_on_c, 0, 88, 80
2, 20931, Note_on_c, 0, 76, 80
2, 20964, Control_c, 0, 64, 127
2, 20974, Note_on_c, 0, 37, 80
2, 20974, Note_on_c, 0, 49, 80
2, 20997, Note_on_c, 0, 81, 0
2, 21013, Note_on_c, 0, 37, 0
2, 21013, Note_on_c, 0, 49, 0
2, 21036, Note_on_c, 0, 85, 0
2, 21036, Note_on_c, 0, 76, 0
2, 21036, Note_on_c, 0, 88, 0
2, 21046, Note_on_c, 0, 69, 80
2, 21046, Note_on_c, 0, 81, 80
2, 21052, Control_c, 0, 64, 0
2, 21083, Note_on_c, 0, 52, 80
2, 21083, Note_on_c, 0, 57, 80
2, 21083, Note_on_c, 0, 61, 80
2, 21083, Note_on_c, 0, 71, 80
2, 21083, Note_on_c, 0, 83, 80
2, 21085, Note_on_c, 0, 81, 0
2, 21085, Note_on_c, 0, 69, 0
2, 21113, Note_on_c, 0, 57, 0
2, 21113, Note_on_c, 0, 61, 0
2, 21113, Note_on_c, 0, 52, 0
2, 21150, Note_on_c, 0, 83, 0
2, 21152, Note_on_c, 0, 71, 0
2, 21159, Note_on_c, 0, 85, 80
2, 21159, Note_on_c, 0, 73, 80
2, 21199, Note_on_c, 0, 85, 0
2, 21199, Note_on_c, 0, 68, 80
2, 21199, Note_on_c, 0, 80, 80
2, 21201, Note_on_c, 0, 73, 0
2, 21201, Note_on_c, 0, 38, 80
2, 21201, Note_on_c, 0, 50, 80
2, 21243, Note_on_c, 0, 50, 0
2, 21243, Note_on_c, 0, 38, 0
2, 21266, Note_on_c, 0, 80, 0
2, 21266, Note_on_c, 0, 68, 0
2, 21276, Note_on_c, 0, 69, 80
2, 21276, Note_on_c, 0, 81, 80
2, 21316, Note_on_c, 0, 57, 80
2, 21316, Note_on_c, 0, 62, 80
2, 21316, Note_on_c, 0, 66, 80
2, 21316, Note_on_c, 0, 78, 80
2, 21318, Note_on_c, 0, 81, 0
2, 21318, Note_on_c, 0, 69, 0
2, 21318, Note_on_c, 0, 54, 80
2, 21341, Note_on_c, 0, 66, 0
2, 21341, Note_on_c, 0, 78, 0
2, 21343, Note_on_c, 0, 62, 0
2, 21343, Note_on_c, 0, 57, 0
2, 21343, Note_on_c, 0, 54, 0
2, 21390, Note_on_c, 0, 64, 80
2, 21390, Note_on_c, 0, 69, 80
2, 21390, Note_on_c, 0, 73, 80
2, 21390, Note_on_c, 0, 76, 80
2, 21428, Note_on_c, 0, 37, 80
2, 21430, Note_on_c, 0, 49, 80
2, 21490, Note_on_c, 0, 76, 0
2, 21490, Note_on_c, 0, 73, 0
2, 21490, Note_on_c, 0, 64, 0
2, 21490, Note_on_c, 0, 69, 0
2, 21492, Note_on_c, 0, 49, 0
2, 21494, Note_on_c, 0, 37, 0
2, 21496, Note_on_c, 0, 65, 80
2, 21496, Note_on_c, 0, 77, 80
2, 21538, Note_on_c, 0, 66, 80
2, 21538, Note_on_c, 0, 78, 80
2, 21540, Note_on_c, 0, 77, 0
2, 21540, Note_on_c, 0, 65, 0
2, 21540, Note_on_c, 0, 36, 80
2, 21540, Note_on_c, 0, 48, 80
2, 21608, Note_on_c, 0, 66, 0
2, 21608, Note_on_c, 0, 78, 0
2, 21615, Note_on_c, 0, 79, 80
2, 21617, Note_on_c, 0, 67, 80
2, 21654, Note_on_c, 0, 68, 80
2, 21654, Note_on_c, 0, 74, 80
2, 21654, Note_on_c, 0, 76, 80
2, 21654, Note_on_c, 0, 80, 80
2, 21656, Note_on_c, 0, 79, 0
2, 21656, Note_on_c, 0, 47, 80
2, 21658, Note_on_c, 0, 67, 0
2, 21658, Note_on_c, 0, 35, 80
2, 21660, Note_on_c, 0, 48, 0
2, 21660, Note_on_c, 0, 36, 0
2, 21697, Note_on_c, 0, 47, 0
2, 21699, Note_on_c, 0, 35, 0
2, 21719, Note_on_c, 0, 80, 0
2, 21720, Note_on_c, 0, 76, 0
2, 21720, Note_on_c, 0, 68, 0
2, 21720, Note_on_c, 0, 74, 0
2, 21727, Note_on_c, 0, 83, 80
2, 21729, Note_on_c, 0, 71, 80
2, 21765, Note_on_c, 0, 86, 80
2, 21767, Note_on_c, 0, 52, 80
2, 21767, Note_on_c, 0, 56, 80
2, 21767, Note_on_c, 0, 59, 80
2, 21767, Note_on_c, 0, 62, 80
2, 21767, Note_on_c, 0, 74, 80
2, 21768, Note_on_c, 0, 71, 0
2, 21768, Note_on_c, 0, 83, 0
2, 21792, Note_on_c, 0, 86, 0
2, 21793, Note_on_c, 0, 74, 0
2, 21795, Note_on_c, 0, 56, 0
2, 21795, Note_on_c, 0, 52, 0
2, 21795, Note_on_c, 0, 62, 0
2, 21795, Note_on_c, 0, 59, 0
2, 21840, Note_on_c, 0, 90, 80
2, 21841, Note_on_c, 0, 80, 80
2, 21841, Note_on_c, 0, 83, 80
2, 21841, Note_on_c, 0, 86, 80
2, 21843, Note_on_c, 0, 78, 80
2, 21876, Control_c, 0, 64, 127
2, 21886, Note_on_c, 0, 28, 80
2, 21886, Note_on_c, 0, 40, 80
2, 21928, Note_on_c, 0, 40, 0
2, 21928, Note_on_c, 0, 28, 0
2, 21949, Note_on_c, 0, 90, 0
2, 21949, Note_on_c, 0, 78, 0
2, 21959, Note_on_c, 0, 77, 80
2, 21959, Note_on_c, 0, 89, 80
2, 21970, Control_c, 0, 64, 0
2, 21996, Note_on_c, 0, 88, 80
2, 21998, Note_on_c, 0, 76, 80
2, 22000, Note_on_c, 0, 89, 0
2, 22000, Note_on_c, 0, 52, 80
2, 22000, Note_on_c, 0, 56, 80
2, 22000, Note_on_c, 0, 59, 80
2, 22000, Note_on_c, 0, 62, 80
2, 22002, Note_on_c, 0, 77, 0
2, 22025, Note_on_c, 0, 62, 0
2, 22025, Note_on_c, 0, 56, 0
2, 22025, Note_on_c, 0, 59, 0
2, 22027, Note_on_c, 0, 52, 0
2, 22059, Note_on_c, 0, 86, 0
2, 22059, Note_on_c, 0, 88, 0
2, 22061, Note_on_c, 0, 80, 0
2, 22061, Note_on_c, 0, 76, 0
2, 22061, Note_on_c, 0, 83, 0
2, 22110, Note_on_c, 0, 76, 80
2, 22110, Note_on_c, 0, 81, 80
2, 22112, Note_on_c, 0, 73, 80
2, 22114, Note_on_c, 0, 45, 80
2, 22114, Note_on_c, 0, 69, 80
2, 22116, Note_on_c, 0, 33, 80
2, 22142, Note_on_c, 0, 73, 0
2, 22158, Note_on_c, 0, 45, 0
2, 22160, Note_on_c, 0, 33, 0
2, 22181, Note_on_c, 0, 76, 0
2, 22181, Note_on_c, 0, 69, 0
2, 22181, Note_on_c, 0, 81, 0
2, 22191, Note_on_c, 0, 73, 80
2, 22191, Note_on_c, 0, 85, 80
2, 22231, Note_on_c, 0, 88, 80
2, 22233, Note_on_c, 0, 61, 80
2, 22233, Note_on_c, 0, 76, 80
2, 22235, Note_on_c, 0, 85, 0
2, 22235, Note_on_c, 0, 73, 0
2, 22235, Note_on_c, 0, 52, 80
2, 22235, Note_on_c, 0, 57, 80
2, 22261, Note_on_c, 0, 76, 0
2, 22261, Note_on_c, 0, 88, 0
2, 22263, Note_on_c, 0, 57, 0
2, 22263, Note_on_c, 0, 61, 0
2, 22265, Note_on_c, 0, 52, 0
2, 22312, Note_on_c, 0, 81, 80
2, 22312, Note_on_c, 0, 85, 80
2, 22312, Note_on_c, 0, 90, 80
2, 22314, Note_on_c, 0, 78, 80
2, 22354, Note_on_c, 0, 45, 80
2, 22354, Note_on_c, 0, 57, 80
2, 22415, Note_on_c, 0, 90, 0
2, 22415, Note_on_c, 0, 85, 0
2, 22416, Note_on_c, 0, 78, 0
2, 22416, Note_on_c, 0, 81, 0
2, 22418, Note_on_c, 0, 57, 0
2, 22418, Note_on_c, 0, 45, 0
2, 22423, Note_on_c, 0, 89, 80
2, 22425, Note_on_c, 0, 77, 80
2, 22465, Note_on_c, 0, 76, 80
2, 22465, Note_on_c, 0, 79, 80
2, 22465, Note_on_c, 0, 85, 80
2, 22465, Note_on_c, 0, 88, 80
2, 22467, Note_on_c, 0, 89, 0
2, 22467, Note_on_c, 0, 58, 80
2, 22469, Note_on_c, 0, 77, 0
2, 22469, Note_on_c, 0, 46, 80
2, 22533, Note_on_c, 0, 88, 0
2, 22535, Note_on_c, 0, 76, 0
2, 22535, Note_on_c, 0, 85, 0
2, 22535, Note_on_c, 0, 79, 0
2, 22584, Note_on_c, 0, 59, 80
2, 22584, Note_on_c, 0, 66, 80
2, 22584, Note_on_c, 0, 71, 80
2, 22584, Note_on_c, 0, 76, 80
2, 22585, Note_on_c, 0, 47, 80
2, 22587, Note_on_c, 0, 46, 0
2, 22587, Note_on_c, 0, 58, 0
2, 22628, Note_on_c, 0, 59, 0
2, 22628, Note_on_c, 0, 76, 0
2, 22628, Note_on_c, 0, 47, 0
2, 22663, Note_on_c, 0, 74, 80
2, 22705, Note_on_c, 0, 54, 80
2, 22705, Note_on_c, 0, 59, 80
2, 22705, Note_on_c, 0, 62, 80
2, 22731, Note_on_c, 0, 62, 0
2, 22731, Note_on_c, 0, 54, 0
2, 22731, Note_on_c, 0, 74, 0
2, 22731, Note_on_c, 0, 59, 0
2, 22746, Note_on_c, 0, 71, 0
2, 22746, Note_on_c, 0, 66, 0
2, 22783, Note_on_c, 0, 78, 80
2, 22783, Note_on_c, 0, 83, 80
2, 22785, Note_on_c, 0, 71, 80
2, 22785, Note_on_c, 0, 74, 80
2, 22825, Note_on_c, 0, 38, 80
2, 22825, Note_on_c, 0, 50, 80
2, 22856, Control_c, 0, 64, 127
2, 22871, Control_c, 0, 64, 0
2, 22892, Note_on_c, 0, 74, 0
2, 22894, Note_on_c, 0, 38, 0
2, 22894, Note_on_c, 0, 50, 0
2, 22917, Note_on_c, 0, 78, 0
2, 22917, Note_on_c, 0, 71, 0
2, 22917, Note_on_c, 0, 83, 0
2, 22940, Note_on_c, 0, 86, 80
2, 22942, Note_on_c, 0, 74, 80
2, 22942, Note_on_c, 0, 81, 80
2, 22944, Note_on_c, 0, 41, 80
2, 22944, Note_on_c, 0, 53, 80
2, 23012, Note_on_c, 0, 81, 0
2, 23059, Note_on_c, 0, 85, 80
2, 23061, Note_on_c, 0, 52, 80
2, 23061, Note_on_c, 0, 73, 80
2, 23061, Note_on_c, 0, 81, 80
2, 23063, Note_on_c, 0, 86, 0
2, 23063, Note_on_c, 0, 74, 0
2, 23063, Note_on_c, 0, 40, 80
2, 23064, Note_on_c, 0, 53, 0
2, 23066, Note_on_c, 0, 41, 0
2, 23086, Note_on_c, 0, 85, 0
2, 23088, Note_on_c, 0, 73, 0
2, 23088, Note_on_c, 0, 81, 0
2, 23102, Note_on_c, 0, 52, 0
2, 23104, Note_on_c, 0, 40, 0
2, 23136, Note_on_c, 0, 69, 80
2, 23136, Note_on_c, 0, 73, 80
2, 23136, Note_on_c, 0, 81, 80
2, 23179, Note_on_c, 0, 52, 80
2, 23179, Note_on_c, 0, 57, 80
2, 23179, Note_on_c, 0, 61, 80
2, 23207, Note_on_c, 0, 61, 0
2, 23207, Note_on_c, 0, 57, 0
2, 23211, Note_on_c, 0, 52, 0
2, 23247, Note_on_c, 0, 69, 0
2, 23247, Note_on_c, 0, 73, 0
2, 23247, Note_on_c, 0, 81, 0
2, 23258, Note_on_c, 0, 78, 80
2, 23260, Note_on_c, 0, 66, 80
2, 23260, Note_on_c, 0, 70, 80
2, 23301, Note_on_c, 0, 54, 80
2, 23303, Note_on_c, 0, 42, 80
2, 23330, Control_c, 0, 64, 127
2, 23342, Note_on_c, 0, 54, 0
2, 23347, Note_on_c, 0, 42, 0
2, 23366, Note_on_c, 0, 78, 0
2, 23366, Note_on_c, 0, 66, 0
2, 23368, Note_on_c, 0, 70, 0
2, 23377, Note_on_c, 0, 76, 80
2, 23382, Control_c, 0, 64, 0
2, 23418, Note_on_c, 0, 52, 80
2, 23418, Note_on_c, 0, 54, 80
2, 23418, Note_on_c, 0, 58, 80
2, 23418, Note_on_c, 0, 61, 80
2, 23418, Note_on_c, 0, 64, 80
2, 23418, Note_on_c, 0, 70, 80
2, 23418, Note_on_c, 0, 73, 80
2, 23420, Note_on_c, 0, 76, 0
2, 23446, Note_on_c, 0, 61, 0
2, 23446, Note_on_c, 0, 52, 0
2, 23446, Note_on_c, 0, 58, 0
2, 23446, Note_on_c, 0, 54, 0
2, 23486, Note_on_c, 0, 73, 0
2, 23486, Note_on_c, 0, 70, 0
2, 23486, Note_on_c, 0, 64, 0
2, 23530, Note_on_c, 0, 69, 80
2, 23530, Note_on_c, 0, 73, 80
2, 23532, Note_on_c, 0, 63, 80
2, 23534, Note_on_c, 0, 35, 80
2, 23534, Note_on_c, 0, 47, 80
2, 23574, Note_on_c, 0, 73, 0
2, 23576, Note_on_c, 0, 47, 0
2, 23581, Note_on_c, 0, 35, 0
2, 23609, Note_on_c, 0, 71, 80
2, 23649, Note_on_c, 0, 54, 80
2, 23649, Note_on_c, 0, 57, 80
2, 23649, Note_on_c, 0, 59, 80
2, 23651, Note_on_c, 0, 51, 80
2, 23672, Note_on_c, 0, 71, 0
2, 23674, Note_on_c, 0, 59, 0
2, 23674, Note_on_c, 0, 57, 0
2, 23674, Note_on_c, 0, 54, 0
2, 23674, Note_on_c, 0, 51, 0
2, 23712, Note_on_c, 0, 69, 0
2, 23712, Note_on_c, 0, 63, 0
2, 23723, Note_on_c, 0, 64, 80
2, 23723, Note_on_c, 0, 68, 80
2, 23723, Note_on_c, 0, 71, 80
2, 23723, Note_on_c, 0, 76, 80
2, 23754, Control_c, 0, 64, 127
2, 23765, Note_on_c, 0, 28, 80
2, 23806, Note_on_c, 0, 28, 0
2, 23806, Control_c, 0, 64, 0
2, 23829, Note_on_c, 0, 71, 0
2, 23829, Note_on_c, 0, 64, 0
2, 23829, Note_on_c, 0, 68, 0
2, 23829, Note_on_c, 0, 76, 0
2, 23838, Note_on_c, 0, 73, 80
2, 23876, Note_on_c, 0, 71, 80
2, 23878, Note_on_c, 0, 62, 80
2, 23878, Note_on_c, 0, 68, 80
2, 23880, Note_on_c, 0, 73, 0
2, 23880, Note_on_c, 0, 40, 80
2, 23880, Note_on_c, 0, 50, 80
2, 23880, Note_on_c, 0, 56, 80
2, 23997, Note_on_c, 0, 45, 80
2, 23997, Note_on_c, 0, 52, 80
2, 23997, Note_on_c, 0, 61, 80
2, 23997, Note_on_c, 0, 64, 80
2, 23997, Note_on_c, 0, 69, 80
2, 23999, Note_on_c, 0, 56, 0
2, 23999, Note_on_c, 0, 68, 0
2, 23999, Note_on_c, 0, 71, 0
2, 23999, Note_on_c, 0, 62, 0
2, 24000, Note_on_c, 0, 40, 0
2, 24000, Note_on_c, 0, 50, 0
2, 24026, Note_on_c, 0, 45, 0
2, 24064, Note_on_c, 0, 52, 0
2, 24071, Note_on_c, 0, 57, 80
2, 24072, Note_on_c, 0, 45, 80
2, 24100, Note_on_c, 0, 57, 0
2, 24105, Note_on_c, 0, 45, 0
2, 24112, Note_on_c, 0, 55, 80
2, 24112, Note_on_c, 0, 43, 80
2, 24152, Note_on_c, 0, 55, 0
2, 24154, Note_on_c, 0, 43, 0
2, 24177, Note_on_c, 0, 61, 0
2, 24177, Note_on_c, 0, 64, 0
2, 24177, Note_on_c, 0, 69, 0
2, 24221, Note_on_c, 0, 73, 80
2, 24221, Note_on_c, 0, 81, 80
2, 24223, Note_on_c, 0, 54, 80
2, 24223, Note_on_c, 0, 69, 80
2, 24225, Note_on_c, 0, 42, 80
2, 24340, Note_on_c, 0, 52, 80
2, 24342, Note_on_c, 0, 54, 0
2, 24342, Note_on_c, 0, 40, 80
2, 24344, Note_on_c, 0, 42, 0
2, 24405, Note_on_c, 0, 73, 0
2, 24405, Note_on_c, 0, 69, 0
2, 24405, Note_on_c, 0, 81, 0
2, 24454, Note_on_c, 0, 73, 80
2, 24456, Note_on_c, 0, 50, 80
2, 24456, Note_on_c, 0, 61, 80
2, 24456, Note_on_c, 0, 66, 80
2, 24457, Note_on_c, 0, 52, 0
2, 24457, Note_on_c, 0, 38, 80
2, 24459, Note_on_c, 0, 40, 0
2, 24497, Note_on_c, 0, 50, 0
2, 24497, Note_on_c, 0, 38, 0
2, 24518, Note_on_c, 0, 73, 0
2, 24518, Note_on_c, 0, 61, 0
2, 24518, Note_on_c, 0, 66, 0
2, 24525, Note_on_c, 0, 74, 80
2, 24527, Note_on_c, 0, 62, 80
2, 24554, Note_on_c, 0, 74, 0
2, 24556, Note_on_c, 0, 62, 0
2, 24563, Note_on_c, 0, 71, 80
2, 24565, Note_on_c, 0, 50, 80
2, 24565, Note_on_c, 0, 54, 80
2, 24565, Note_on_c, 0, 57, 80
2, 24565, Note_on_c, 0, 59, 80
2, 24593, Note_on_c, 0, 57, 0
2, 24593, Note_on_c, 0, 54, 0
2, 24593, Note_on_c, 0, 50, 0
2, 24633, Note_on_c, 0, 71, 0
2, 24635, Note_on_c, 0, 59, 0
2, 24645, Note_on_c, 0, 57, 80
2, 24645, Note_on_c, 0, 62, 80
2, 24645, Note_on_c, 0, 66, 80
2, 24645, Note_on_c, 0, 69, 80
2, 24687, Note_on_c, 0, 45, 80
2, 24689, Note_on_c, 0, 33, 80
2, 24726, Note_on_c, 0, 45, 0
2, 24728, Note_on_c, 0, 33, 0
2, 24749, Note_on_c, 0, 66, 0
2, 24749, Note_on_c, 0, 69, 0
2, 24749, Note_on_c, 0, 62, 0
2, 24751, Note_on_c, 0, 57, 0
2, 24758, Note_on_c, 0, 65, 80
2, 24758, Note_on_c, 0, 77, 80
2, 24789, Note_on_c, 0, 77, 0
2, 24791, Note_on_c, 0, 65, 0
2, 24797, Note_on_c, 0, 78, 80
2, 24799, Note_on_c, 0, 54, 80
2, 24799, Note_on_c, 0, 57, 80
2, 24799, Note_on_c, 0, 62, 80
2, 24799, Note_on_c, 0, 66, 80
2, 24830, Note_on_c, 0, 62, 0
2, 24830, Note_on_c, 0, 57, 0
2, 24830, Note_on_c, 0, 54, 0
2, 24865, Note_on_c, 0, 78, 0
2, 24867, Note_on_c, 0, 66, 0
2, 24879, Note_on_c, 0, 69, 80
2, 24879, Note_on_c, 0, 81, 80
2, 24907, Note_on_c, 0, 81, 0
2, 24909, Note_on_c, 0, 69, 0
2, 24915, Note_on_c, 0, 85, 80
2, 24917, Note_on_c, 0, 73, 80
2, 24917, Note_on_c, 0, 78, 80
2, 24919, Note_on_c, 0, 38, 80
2, 24921, Note_on_c, 0, 26, 80
2, 24963, Note_on_c, 0, 26, 0
2, 24963, Note_on_c, 0, 38, 0
2, 24984, Note_on_c, 0, 85, 0
2, 24984, Note_on_c, 0, 73, 0
2, 24984, Note_on_c, 0, 78, 0
2, 24994, Note_on_c, 0, 74, 80
2, 24994, Note_on_c, 0, 86, 80
2, 25013, Note_on_c, 0, 74, 0
2, 25025, Note_on_c, 0, 86, 0
2, 25036, Note_on_c, 0, 71, 80
2, 25036, Note_on_c, 0, 74, 80
2, 25036, Note_on_c, 0, 78, 80
2, 25036, Note_on_c, 0, 83, 80
2, 25038, Note_on_c, 0, 54, 80
2, 25038, Note_on_c, 0, 57, 80
2, 25038, Note_on_c, 0, 62, 80
2, 25066, Note_on_c, 0, 62, 0
2, 25066, Note_on_c, 0, 54, 0
2, 25066, Note_on_c, 0, 57, 0
2, 25078, Note_on_c, 0, 78, 0
2, 25078, Note_on_c, 0, 74, 0
2, 25105, Note_on_c, 0, 71, 0
2, 25105, Note_on_c, 0, 83, 0
2, 25115, Note_on_c, 0, 69, 80
2, 25115, Note_on_c, 0, 74, 80
2, 25115, Note_on_c, 0, 78, 80
2, 25115, Note_on_c, 0, 81, 80
2, 25157, Note_on_c, 0, 45, 80
2, 25159, Note_on_c, 0, 33, 80
2, 25223, Note_on_c, 0, 81, 0
2, 25223, Note_on_c, 0, 78, 0
2, 25223, Note_on_c, 0, 69, 0
2, 25223, Note_on_c, 0, 74, 0
2, 25229, Note_on_c, 0, 89, 80
2, 25231, Note_on_c, 0, 77, 80
2, 25259, Note_on_c, 0, 89, 0
2, 25261, Note_on_c, 0, 77, 0
2, 25263, Note_on_c, 0, 33, 0
2, 25263, Note_on_c, 0, 45, 0
2, 25268, Note_on_c, 0, 90, 80
2, 25270, Note_on_c, 0, 50, 80
2, 25270, Note_on_c, 0, 78, 80
2, 25272, Note_on_c, 0, 38, 80
2, 25335, Note_on_c, 0, 90, 0
2, 25337, Note_on_c, 0, 78, 0
2, 25348, Note_on_c, 0, 76, 80
2, 25348, Note_on_c, 0, 79, 80
2, 25348, Note_on_c, 0, 83, 80
2, 25348, Note_on_c, 0, 88, 80
2, 25379, Note_on_c, 0, 50, 0
2, 25381, Note_on_c, 0, 38, 0
2, 25391, Note_on_c, 0, 43, 80
2, 25391, Note_on_c, 0, 55, 80
2, 25431, Note_on_c, 0, 55, 0
2, 25433, Note_on_c, 0, 43, 0
2, 25454, Note_on_c, 0, 88, 0
2, 25456, Note_on_c, 0, 79, 0
2, 25456, Note_on_c, 0, 83, 0
2, 25456, Note_on_c, 0, 76, 0
2, 25465, Note_on_c, 0, 74, 80
2, 25465, Note_on_c, 0, 86, 80
2, 25493, Note_on_c, 0, 86, 0
2, 25493, Note_on_c, 0, 74, 0
2, 25503, Note_on_c, 0, 71, 80
2, 25503, Note_on_c, 0, 83, 80
2, 25505, Note_on_c, 0, 55, 80
2, 25505, Note_on_c, 0, 59, 80
2, 25505, Note_on_c, 0, 62, 80
2, 25505, Note_on_c, 0, 64, 80
2, 25536, Note_on_c, 0, 64, 0
2, 25536, Note_on_c, 0, 59, 0
2, 25536, Note_on_c, 0, 55, 0
2, 25536, Note_on_c, 0, 62, 0
2, 25573, Note_on_c, 0, 71, 0
2, 25583, Note_on_c, 0, 74, 80
2, 25583, Note_on_c, 0, 79, 80
2, 25583, Note_on_c, 0, 86, 80
2, 25623, Note_on_c, 0, 43, 80
2, 25623, Note_on_c, 0, 55, 80
2, 25688, Note_on_c, 0, 86, 0
2, 25688, Note_on_c, 0, 79, 0
2, 25688, Note_on_c, 0, 83, 0
2, 25690, Note_on_c, 0, 74, 0
2, 25700, Note_on_c, 0, 64, 80
2, 25700, Note_on_c, 0, 76, 80
2, 25728, Note_on_c, 0, 76, 0
2, 25728, Note_on_c, 0, 64, 0
2, 25728, Note_on_c, 0, 55, 0
2, 25729, Note_on_c, 0, 43, 0
2, 25736, Note_on_c, 0, 65, 80
2, 25736, Note_on_c, 0, 77, 80
2, 25738, Note_on_c, 0, 56, 80
2, 25740, Note_on_c, 0, 44, 80
2, 25808, Note_on_c, 0, 77, 0
2, 25810, Note_on_c, 0, 65, 0
2, 25817, Note_on_c, 0, 66, 80
2, 25817, Note_on_c, 0, 74, 80
2, 25817, Note_on_c, 0, 78, 80
2, 25819, Note_on_c, 0, 69, 80
2, 25849, Note_on_c, 0, 56, 0
2, 25849, Note_on_c, 0, 44, 0
2, 25859, Note_on_c, 0, 74, 0
2, 25859, Note_on_c, 0, 69, 0
2, 25859, Note_on_c, 0, 57, 80
2, 25859, Note_on_c, 0, 45, 80
2, 25934, Note_on_c, 0, 74, 80
2, 25936, Note_on_c, 0, 69, 80
2, 25947, Note_on_c, 0, 74, 0
2, 25962, Note_on_c, 0, 66, 0
2, 25962, Note_on_c, 0, 78, 0
2, 25962, Note_on_c, 0, 57, 0
2, 25962, Note_on_c, 0, 69, 0
2, 25964, Note_on_c, 0, 45, 0
2, 25970, Note_on_c, 0, 56, 80
2, 25970, Note_on_c, 0, 65, 80
2, 25970, Note_on_c, 0, 71, 80
2, 25970, Note_on_c, 0, 74, 80
2, 25970, Note_on_c, 0, 77, 80
2, 25972, Note_on_c, 0, 44, 80
2, 26038, Note_on_c, 0, 77, 0
2, 26038, Note_on_c, 0, 74, 0
2, 26038, Note_on_c, 0, 71, 0
2, 26038, Note_on_c, 0, 65, 0
2, 26044, Note_on_c, 0, 73, 80
2, 26044, Note_on_c, 0, 76, 80
2, 26046, Note_on_c, 0, 64, 80
2, 26046, Note_on_c, 0, 69, 80
2, 26077, Note_on_c, 0, 56, 0
2, 26079, Note_on_c, 0, 44, 0
2, 26088, Note_on_c, 0, 43, 80
2, 26088, Note_on_c, 0, 55, 80
2, 26154, Note_on_c, 0, 73, 0
2, 26154, Note_on_c, 0, 69, 0
2, 26156, Note_on_c, 0, 43, 0
2, 26156, Note_on_c, 0, 55, 0
2, 26162, Note_on_c, 0, 71, 80
2, 26164, Note_on_c, 0, 52, 80
2, 26166, Note_on_c, 0, 40, 80
2, 26192, Note_on_c, 0, 52, 0
2, 26192, Note_on_c, 0, 71, 0
2, 26194, Note_on_c, 0, 40, 0
2, 26201, Note_on_c, 0, 69, 80
2, 26203, Note_on_c, 0, 37, 80
2, 26217, Note_on_c, 0, 49, 80
2, 26271, Note_on_c, 0, 49, 0
2, 26271, Note_on_c, 0, 69, 0
2, 26271, Note_on_c, 0, 37, 0
2, 26280, Note_on_c, 0, 67, 80
2, 26285, Note_on_c, 0, 33, 80
2, 26285, Note_on_c, 0, 45, 80
2, 26308, Note_on_c, 0, 67, 0
2, 26308, Note_on_c, 0, 64, 0
2, 26308, Note_on_c, 0, 76, 0
2, 26310, Note_on_c, 0, 33, 0
2, 26310, Note_on_c, 0, 45, 0
2, 26317, Note_on_c, 0, 61, 80
2, 26317, Note_on_c, 0, 66, 80
2, 26317, Note_on_c, 0, 69, 80
2, 26317, Note_on_c, 0, 73, 80
2, 26319, Note_on_c, 0, 38, 80
2, 26319, Note_on_c, 0, 50, 80
2, 26361, Note_on_c, 0, 50, 0
2, 26361, Note_on_c, 0, 38, 0
2, 26384, Note_on_c, 0, 69, 0
2, 26384, Note_on_c, 0, 61, 0
2, 26384, Note_on_c, 0, 66, 0
2, 26384, Note_on_c, 0, 73, 0
2, 26394, Note_on_c, 0, 62, 80
2, 26394, Note_on_c, 0, 74, 80
2, 26431, Note_on_c, 0, 71, 80
2, 26433, Note_on_c, 0, 50, 80
2, 26433, Note_on_c, 0, 54, 80
2, 26433, Note_on_c, 0, 57, 80
2, 26433, Note_on_c, 0, 59, 80
2, 26435, Note_on_c, 0, 74, 0
2, 26437, Note_on_c, 0, 62, 0
2, 26460, Note_on_c, 0, 71, 0
2, 26462, Note_on_c, 0, 54, 0
2, 26462, Note_on_c, 0, 50, 0
2, 26462, Note_on_c, 0, 57, 0
2, 26462, Note_on_c, 0, 59, 0
2, 26511, Note_on_c, 0, 62, 80
2, 26511, Note_on_c, 0, 66, 80
2, 26511, Note_on_c, 0, 69, 80
2, 26513, Note_on_c, 0, 57, 80
2, 26541, Control_c, 0, 64, 127
2, 26550, Note_on_c, 0, 33, 80
2, 26550, Note_on_c, 0, 45, 80
2, 26592, Note_on_c, 0, 45, 0
2, 26592, Note_on_c, 0, 33, 0
2, 26614, Note_on_c, 0, 69, 0
2, 26614, Note_on_c, 0, 62, 0
2, 26614, Note_on_c, 0, 66, 0
2, 26614, Note_on_c, 0, 57, 0
2, 26623, Note_on_c, 0, 65, 80
2, 26623, Note_on_c, 0, 77, 80
2, 26630, Control_c, 0, 64, 0
2, 26663, Note_on_c, 0, 54, 80
2, 26663, Note_on_c, 0, 57, 80
2, 26663, Note_on_c, 0, 62, 80
2, 26663, Note_on_c, 0, 66, 80
2, 26663, Note_on_c, 0, 78, 80
2, 26664, Note_on_c, 0, 77, 0
2, 26664, Note_on_c, 0, 65, 0
2, 26690, Note_on_c, 0, 57, 0
2, 26690, Note_on_c, 0, 62, 0
2, 26690, Note_on_c, 0, 54, 0
2, 26728, Note_on_c, 0, 78, 0
2, 26730, Note_on_c, 0, 66, 0
2, 26741, Note_on_c, 0, 69, 80
2, 26741, Note_on_c, 0, 81, 80
2, 26777, Note_on_c, 0, 73, 80
2, 26777, Note_on_c, 0, 78, 80
2, 26777, Note_on_c, 0, 85, 80
2, 26779, Note_on_c, 0, 38, 80
2, 26781, Note_on_c, 0, 81, 0
2, 26781, Note_on_c, 0, 26, 80
2, 26783, Note_on_c, 0, 69, 0
2, 26820, Note_on_c, 0, 38, 0
2, 26822, Note_on_c, 0, 26, 0
2, 26845, Note_on_c, 0, 78, 0
2, 26845, Note_on_c, 0, 85, 0
2, 26845, Note_on_c, 0, 73, 0
2, 26855, Note_on_c, 0, 74, 80
2, 26855, Note_on_c, 0, 86, 80
2, 26869, Note_on_c, 0, 74, 0
2, 26883, Note_on_c, 0, 86, 0
2, 26893, Note_on_c, 0, 54, 80
2, 26893, Note_on_c, 0, 57, 80
2, 26893, Note_on_c, 0, 62, 80
2, 26893, Note_on_c, 0, 71, 80
2, 26893, Note_on_c, 0, 74, 80
2, 26893, Note_on_c, 0, 78, 80
2, 26893, Note_on_c, 0, 83, 80
2, 26924, Note_on_c, 0, 83, 0
2, 26924, Note_on_c, 0, 74, 0
2, 26924, Note_on_c, 0, 57, 0
2, 26924, Note_on_c, 0, 62, 0
2, 26924, Note_on_c, 0, 54, 0
2, 26924, Note_on_c, 0, 78, 0
2, 26924, Note_on_c, 0, 71, 0
2, 26973, Note_on_c, 0, 69, 80
2, 26973, Note_on_c, 0, 74, 80
2, 26973, Note_on_c, 0, 78, 80
2, 26973, Note_on_c, 0, 81, 80
2, 27013, Note_on_c, 0, 33, 80
2, 27013, Note_on_c, 0, 45, 80
2, 27055, Note_on_c, 0, 45, 0
2, 27055, Note_on_c, 0, 33, 0
2, 27078, Note_on_c, 0, 78, 0
2, 27078, Note_on_c, 0, 69, 0
2, 27078, Note_on_c, 0, 74, 0
2, 27078, Note_on_c, 0, 81, 0
2, 27125, Note_on_c, 0, 54, 80
2, 27125, Note_on_c, 0, 57, 80
2, 27125, Note_on_c, 0, 59, 80
2, 27125, Note_on_c, 0, 62, 80
2, 27125, Note_on_c, 0, 71, 80
2, 27125, Note_on_c, 0, 74, 80
2, 27125, Note_on_c, 0, 78, 80
2, 27125, Note_on_c, 0, 83, 80
2, 27153, Note_on_c, 0, 62, 0
2, 27153, Note_on_c, 0, 59, 0
2, 27153, Note_on_c, 0, 54, 0
2, 27153, Note_on_c, 0, 57, 0
2, 27191, Note_on_c, 0, 71, 0
2, 27191, Note_on_c, 0, 83, 0
2, 27191, Note_on_c, 0, 74, 0
2, 27191, Note_on_c, 0, 78, 0
2, 27240, Note_on_c, 0, 73, 80
2, 27240, Note_on_c, 0, 78, 80
2, 27240, Note_on_c, 0, 81, 80
2, 27240, Note_on_c, 0, 85, 80
2, 27241, Note_on_c, 0, 37, 80
2, 27241, Note_on_c, 0, 49, 80
2, 27267, Note_on_c, 0, 78, 0
2, 27284, Note_on_c, 0, 37, 0
2, 27284, Note_on_c, 0, 49, 0
2, 27310, Note_on_c, 0, 73, 0
2, 27310, Note_on_c, 0, 85, 0
2, 27310, Note_on_c, 0, 81, 0
2, 27319, Note_on_c, 0, 78, 80
2, 27319, Note_on_c, 0, 90, 80
2, 27360, Note_on_c, 0, 54, 80
2, 27360, Note_on_c, 0, 57, 80
2, 27360, Note_on_c, 0, 61, 80
2, 27360, Note_on_c, 0, 81, 80
2, 27360, Note_on_c, 0, 93, 80
2, 27361, Note_on_c, 0, 90, 0
2, 27361, Note_on_c, 0, 78, 0
2, 27389, Note_on_c, 0, 57, 0
2, 27389, Note_on_c, 0, 61, 0
2, 27389, Note_on_c, 0, 54, 0
2, 27427, Note_on_c, 0, 93, 0
2, 27429, Note_on_c, 0, 81, 0
2, 27435, Note_on_c, 0, 85, 80
2, 27435, Note_on_c, 0, 97, 80
2, 27476, Note_on_c, 0, 86, 80
2, 27476, Note_on_c, 0, 98, 80
2, 27478, Note_on_c, 0, 97, 0
2, 27478, Note_on_c, 0, 85, 0
2, 27480, Note_on_c, 0, 41, 80
2, 27480, Note_on_c, 0, 53, 80
2, 27522, Note_on_c, 0, 53, 0
2, 27522, Note_on_c, 0, 41, 0
2, 27541, Note_on_c, 0, 98, 0
2, 27543, Note_on_c, 0, 86, 0
2, 27552, Note_on_c, 0, 91, 80
2, 27554, Note_on_c, 0, 79, 80
2, 27592, Note_on_c, 0, 65, 80
2, 27592, Note_on_c, 0, 80, 80
2, 27592, Note_on_c, 0, 92, 80
2, 27594, Note_on_c, 0, 91, 0
2, 27594, Note_on_c, 0, 56, 80
2, 27594, Note_on_c, 0, 59, 80
2, 27594, Note_on_c, 0, 61, 80
2, 27596, Note_on_c, 0, 79, 0
2, 27622, Note_on_c, 0, 65, 0
2, 27622, Note_on_c, 0, 61, 0
2, 27624, Note_on_c, 0, 56, 0
2, 27624, Note_on_c, 0, 59, 0
2, 27661, Note_on_c, 0, 80, 0
2, 27661, Note_on_c, 0, 92, 0
2, 27671, Note_on_c, 0, 85, 80
2, 27671, Note_on_c, 0, 97, 80
2, 27708, Note_on_c, 0, 90, 80
2, 27710, Note_on_c, 0, 78, 80
2, 27712, Note_on_c, 0, 97, 0
2, 27712, Note_on_c, 0, 42, 80
2, 27712, Note_on_c, 0, 54, 80
2, 27714, Note_on_c, 0, 85, 0
2, 27740, Control_c, 0, 64, 127
2, 27787, Note_on_c, 0, 85, 80
2, 27789, Note_on_c, 0, 78, 0
2, 27789, Note_on_c, 0, 90, 0
2, 27826, Note_on_c, 0, 57, 80
2, 27826, Note_on_c, 0, 61, 80
2, 27826, Note_on_c, 0, 66, 80
2, 27826, Note_on_c, 0, 81, 80
2, 27828, Note_on_c, 0, 85, 0
2, 27903, Note_on_c, 0, 78, 80
2, 27905, Note_on_c, 0, 81, 0
2, 27907, Control_c, 0, 64, 0
2, 27942, Note_on_c, 0, 73, 80
2, 27944, Note_on_c, 0, 78, 0
2, 28008, Note_on_c, 0, 66, 0
2, 28008, Note_on_c, 0, 54, 0
2, 28008, Note_on_c, 0, 57, 0
2, 28008, Note_on_c, 0, 61, 0
2, 28008, Note_on_c, 0, 73, 0
2, 28009, Note_on_c, 0, 42, 0
2, 28058, Note_on_c, 0, 57, 80
2, 28058, Note_on_c, 0, 61, 80
2, 28058, Note_on_c, 0, 67, 80
2, 28058, Note_on_c, 0, 73, 80
2, 28060, Note_on_c, 0, 45, 80
2, 28128, Note_on_c, 0, 45, 0
2, 28128, Note_on_c, 0, 67, 0
2, 28128, Note_on_c, 0, 57, 0
2, 28128, Note_on_c, 0, 61, 0
2, 28128, Note_on_c, 0, 73, 0
2, 28176, Note_on_c, 0, 61, 80
2, 28176, Note_on_c, 0, 66, 80
2, 28176, Note_on_c, 0, 69, 80
2, 28176, Note_on_c, 0, 73, 80
2, 28177, Note_on_c, 0, 38, 80
2, 28177, Note_on_c, 0, 50, 80
2, 28218, Note_on_c, 0, 50, 0
2, 28220, Note_on_c, 0, 38, 0
2, 28243, Note_on_c, 0, 66, 0
2, 28243, Note_on_c, 0, 73, 0
2, 28245, Note_on_c, 0, 69, 0
2, 28245, Note_on_c, 0, 61, 0
2, 28251, Note_on_c, 0, 62, 80
2, 28251, Note_on_c, 0, 74, 80
2, 28289, Note_on_c, 0, 71, 80
2, 28291, Note_on_c, 0, 50, 80
2, 28291, Note_on_c, 0, 54, 80
2, 28291, Note_on_c, 0, 57, 80
2, 28291, Note_on_c, 0, 59, 80
2, 28293, Note_on_c, 0, 74, 0
2, 28293, Note_on_c, 0, 62, 0
2, 28320, Note_on_c, 0, 71, 0
2, 28320, Note_on_c, 0, 54, 0
2, 28320, Note_on_c, 0, 50, 0
2, 28320, Note_on_c, 0, 59, 0
2, 28320, Note_on_c, 0, 57, 0
2, 28369, Note_on_c, 0, 66, 80
2, 28369, Note_on_c, 0, 69, 80
2, 28371, Note_on_c, 0, 57, 80
2, 28371, Note_on_c, 0, 62, 80
2, 28399, Control_c, 0, 64, 127
2, 28411, Note_on_c, 0, 33, 80
2, 28411, Note_on_c, 0, 45, 80
2, 28453, Note_on_c, 0, 45, 0
2, 28453, Note_on_c, 0, 33, 0
2, 28453, Control_c, 0, 64, 0
2, 28479, Note_on_c, 0, 57, 0
2, 28479, Note_on_c, 0, 66, 0
2, 28479, Note_on_c, 0, 69, 0
2, 28479, Note_on_c, 0, 62, 0
2, 28486, Note_on_c, 0, 65, 80
2, 28486, Note_on_c, 0, 77, 80
2, 28528, Note_on_c, 0, 54, 80
2, 28528, Note_on_c, 0, 57, 80
2, 28528, Note_on_c, 0, 62, 80
2, 28528, Note_on_c, 0, 66, 80
2, 28528, Note_on_c, 0, 78, 80
2, 28530, Note_on_c, 0, 77, 0
2, 28530, Note_on_c, 0, 65, 0
2, 28556, Note_on_c, 0, 57, 0
2, 28556, Note_on_c, 0, 62, 0
2, 28556, Note_on_c, 0, 54, 0
2, 28598, Note_on_c, 0, 78, 0
2, 28598, Note_on_c, 0, 66, 0
2, 28605, Note_on_c, 0, 69, 80
2, 28605, Note_on_c, 0, 81, 80
2, 28647, Note_on_c, 0, 73, 80
2, 28647, Note_on_c, 0, 78, 80
2, 28647, Note_on_c, 0, 85, 80
2, 28649, Note_on_c, 0, 81, 0
2, 28649, Note_on_c, 0, 69, 0
2, 28649, Note_on_c, 0, 26, 80
2, 28649, Note_on_c, 0, 38, 80
2, 28691, Note_on_c, 0, 38, 0
2, 28691, Note_on_c, 0, 26, 0
2, 28710, Note_on_c, 0, 85, 0
2, 28710, Note_on_c, 0, 73, 0
2, 28710, Note_on_c, 0, 78, 0
2, 28720, Note_on_c, 0, 86, 80
2, 28722, Note_on_c, 0, 74, 80
2, 28762, Note_on_c, 0, 54, 80
2, 28762, Note_on_c, 0, 57, 80
2, 28762, Note_on_c, 0, 59, 80
2, 28762, Note_on_c, 0, 62, 80
2, 28762, Note_on_c, 0, 71, 80
2, 28762, Note_on_c, 0, 78, 80
2, 28762, Note_on_c, 0, 83, 80
2, 28764, Note_on_c, 0, 74, 0
2, 28764, Note_on_c, 0, 86, 0
2, 28792, Note_on_c, 0, 78, 0
2, 28792, Note_on_c, 0, 62, 0
2, 28792, Note_on_c, 0, 83, 0
2, 28792, Note_on_c, 0, 71, 0
2, 28794, Note_on_c, 0, 57, 0
2, 28794, Note_on_c, 0, 59, 0
2, 28794, Note_on_c, 0, 54, 0
2, 28841, Note_on_c, 0, 74, 80
2, 28841, Note_on_c, 0, 78, 80
2, 28841, Note_on_c, 0, 81, 80
2, 28843, Note_on_c, 0, 69, 80
2, 28883, Note_on_c, 0, 45, 80
2, 28885, Note_on_c, 0, 33, 80
2, 28925, Note_on_c, 0, 33, 0
2, 28925, Note_on_c, 0, 45, 0
2, 28946, Note_on_c, 0, 81, 0
2, 28946, Note_on_c, 0, 74, 0
2, 28946, Note_on_c, 0, 78, 0
2, 28946, Note_on_c, 0, 69, 0
2, 28956, Note_on_c, 0, 77, 80
2, 28956, Note_on_c, 0, 89, 80
2, 28993, Note_on_c, 0, 90, 80
2, 28995, Note_on_c, 0, 78, 80
2, 28997, Note_on_c, 0, 89, 0
2, 28997, Note_on_c, 0, 38, 80
2, 28997, Note_on_c, 0, 50, 80
2, 28999, Note_on_c, 0, 77, 0
2, 29020, Note_on_c, 0, 90, 0
2, 29022, Note_on_c, 0, 78, 0
2, 29069, Note_on_c, 0, 93, 80
2, 29071, Note_on_c, 0, 83, 80
2, 29071, Note_on_c, 0, 90, 80
2, 29073, Note_on_c, 0, 81, 80
2, 29111, Note_on_c, 0, 39, 80
2, 29111, Note_on_c, 0, 51, 80
2, 29112, Note_on_c, 0, 50, 0
2, 29112, Note_on_c, 0, 38, 0
2, 29138, Note_on_c, 0, 90, 0
2, 29150, Note_on_c, 0, 51, 0
2, 29152, Note_on_c, 0, 39, 0
2, 29173, Note_on_c, 0, 93, 0
2, 29175, Note_on_c, 0, 83, 0
2, 29175, Note_on_c, 0, 81, 0
2, 29182, Note_on_c, 0, 90, 80
2, 29184, Note_on_c, 0, 78, 80
2, 29224, Note_on_c, 0, 57, 80
2, 29224, Note_on_c, 0, 59, 80
2, 29224, Note_on_c, 0, 63, 80
2, 29224, Note_on_c, 0, 75, 80
2, 29224, Note_on_c, 0, 87, 80
2, 29226, Note_on_c, 0, 78, 0
2, 29226, Note_on_c, 0, 90, 0
2, 29252, Note_on_c, 0, 75, 0
2, 29252, Note_on_c, 0, 87, 0
2, 29254, Note_on_c, 0, 59, 0
2, 29254, Note_on_c, 0, 63, 0
2, 29254, Note_on_c, 0, 57, 0
2, 29301, Note_on_c, 0, 84, 80
2, 29303, Note_on_c, 0, 72, 80
2, 29303, Note_on_c, 0, 75, 80
2, 29303, Note_on_c, 0, 78, 80
2, 29303, Note_on_c, 0, 81, 80
2, 29333, Control_c, 0, 64, 127
2, 29343, Note_on_c, 0, 47, 80
2, 29345, Note_on_c, 0, 35, 80
2, 29380, Note_on_c, 0, 47, 0
2, 29380, Control_c, 0, 64, 0
2, 29382, Note_on_c, 0, 35, 0
2, 29405, Note_on_c, 0, 72, 0
2, 29405, Note_on_c, 0, 75, 0
2, 29405, Note_on_c, 0, 84, 0
2, 29405, Note_on_c, 0, 81, 0
2, 29405, Note_on_c, 0, 78, 0
2, 29415, Note_on_c, 0, 71, 80
2, 29415, Note_on_c, 0, 83, 80
2, 29452, Note_on_c, 0, 70, 80
2, 29452, Note_on_c, 0, 82, 80
2, 29454, Note_on_c, 0, 83, 0
2, 29454, Note_on_c, 0, 39, 80
2, 29456, Note_on_c, 0, 71, 0
2, 29456, Note_on_c, 0, 51, 80
2, 29482, Note_on_c, 0, 82, 0
2, 29482, Note_on_c, 0, 70, 0
2, 29531, Note_on_c, 0, 71, 80
2, 29531, Note_on_c, 0, 76, 80
2, 29531, Note_on_c, 0, 79, 80
2, 29531, Note_on_c, 0, 83, 80
2, 29573, Note_on_c, 0, 52, 80
2, 29575, Note_on_c, 0, 40, 80
2, 29577, Note_on_c, 0, 39, 0
2, 29577, Note_on_c, 0, 51, 0
2, 29617, Note_on_c, 0, 40, 0
2, 29617, Note_on_c, 0, 52, 0
2, 29639, Note_on_c, 0, 83, 0
2, 29640, Note_on_c, 0, 79, 0
2, 29640, Note_on_c, 0, 71, 0
2, 29642, Note_on_c, 0, 76, 0
2, 29647, Note_on_c, 0, 84, 80
2, 29649, Note_on_c, 0, 72, 80
2, 29689, Note_on_c, 0, 83, 80
2, 29691, Note_on_c, 0, 55, 80
2, 29691, Note_on_c, 0, 59, 80
2, 29691, Note_on_c, 0, 64, 80
2, 29691, Note_on_c, 0, 71, 80
2, 29693, Note_on_c, 0, 72, 0
2, 29693, Note_on_c, 0, 84, 0
2, 29719, Note_on_c, 0, 55, 0
2, 29719, Note_on_c, 0, 59, 0
2, 29719, Note_on_c, 0, 64, 0
2, 29760, Note_on_c, 0, 71, 0
2, 29760, Note_on_c, 0, 83, 0
2, 29769, Note_on_c, 0, 70, 80
2, 29769, Note_on_c, 0, 82, 80
2, 29809, Note_on_c, 0, 71, 80
2, 29809, Note_on_c, 0, 76, 80
2, 29809, Note_on_c, 0, 79, 80
2, 29809, Note_on_c, 0, 83, 80
2, 29809, Note_on_c, 0, 43, 80
2, 29809, Note_on_c, 0, 55, 80
2, 29811, Note_on_c, 0, 82, 0
2, 29811, Note_on_c, 0, 70, 0
2, 29852, Note_on_c, 0, 55, 0
2, 29852, Note_on_c, 0, 43, 0
2, 29927, Note_on_c, 0, 55, 80
2, 29927, Note_on_c, 0, 59, 80
2, 29927, Note_on_c, 0, 64, 80
2, 29954, Note_on_c, 0, 64, 0
2, 29954, Note_on_c, 0, 55, 0
2, 29954, Note_on_c, 0, 59, 0
2, 29992, Note_on_c, 0, 83, 0
2, 29992, Note_on_c, 0, 76, 0
2, 29992, Note_on_c, 0, 71, 0
2, 29992, Note_on_c, 0, 79, 0
2, 30041, Note_on_c, 0, 74, 80
2, 30041, Note_on_c, 0, 77, 80
2, 30041, Note_on_c, 0, 89, 80
2, 30043, Note_on_c, 0, 68, 80
2, 30043, Note_on_c, 0, 71, 80
2, 30106, Note_on_c, 0, 71, 0
2, 30106, Note_on_c, 0, 74, 0
2, 30106, Note_on_c, 0, 89, 0
2, 30106, Note_on_c, 0, 77, 0
2, 30108, Note_on_c, 0, 68, 0
2, 30115, Note_on_c, 0, 85, 80
2, 30155, Note_on_c, 0, 86, 80
2, 30157, Note_on_c, 0, 85, 0
2, 30235, Note_on_c, 0, 83, 80
2, 30237, Note_on_c, 0, 86, 0
2, 30272, Note_on_c, 0, 80, 80
2, 30274, Note_on_c, 0, 65, 80
2, 30274, Note_on_c, 0, 71, 80
2, 30274, Note_on_c, 0, 74, 80
2, 30274, Note_on_c, 0, 77, 80
2, 30276, Note_on_c, 0, 83, 0
2, 30339, Note_on_c, 0, 65, 0
2, 30339, Note_on_c, 0, 71, 0
2, 30339, Note_on_c, 0, 80, 0
2, 30339, Note_on_c, 0, 77, 0
2, 30339, Note_on_c, 0, 74, 0
2, 30349, Note_on_c, 0, 61, 80
2, 30389, Note_on_c, 0, 62, 80
2, 30391, Note_on_c, 0, 61, 0
2, 30459, Note_on_c, 0, 62, 0
2, 30469, Note_on_c, 0, 59, 80
2, 30506, Note_on_c, 0, 62, 80
2, 30506, Note_on_c, 0, 65, 80
2, 30506, Note_on_c, 0, 77, 80
2, 30508, Note_on_c, 0, 56, 80
2, 30510, Note_on_c, 0, 59, 0
2, 30569, Note_on_c, 0, 77, 0
2, 30571, Note_on_c, 0, 62, 0
2, 30571, Note_on_c, 0, 65, 0
2, 30571, Note_on_c, 0, 56, 0
2, 30580, Note_on_c, 0, 73, 80
2, 30621, Note_on_c, 0, 74, 80
2, 30625, Note_on_c, 0, 73, 0
2, 30705, Note_on_c, 0, 71, 80
2, 30707, Note_on_c, 0, 74, 0
2, 30744, Note_on_c, 0, 59, 80
2, 30744, Note_on_c, 0, 62, 80
2, 30744, Note_on_c, 0, 68, 80
2, 30746, Note_on_c, 0, 71, 0
2, 30746, Note_on_c, 0, 53, 80
2, 30774, Control_c, 0, 64, 127
2, 30870, Control_c, 0, 64, 0
2, 30983, Note_on_c, 0, 74, 80
2, 30983, Note_on_c, 0, 78, 80
2, 30984, Note_on_c, 0, 42, 80
2, 30984, Note_on_c, 0, 54, 80
2, 30984, Note_on_c, 0, 69, 80
2, 30984, Note_on_c, 0, 81, 80
2, 30986, Note_on_c, 0, 59, 0
2, 30986, Note_on_c, 0, 68, 0
2, 30986, Note_on_c, 0, 62, 0
2, 30988, Note_on_c, 0, 53, 0
2, 31011, Note_on_c, 0, 74, 0
2, 31011, Note_on_c, 0, 81, 0
2, 31011, Note_on_c, 0, 78, 0
2, 31013, Note_on_c, 0, 69, 0
2, 31025, Note_on_c, 0, 54, 0
2, 31027, Note_on_c, 0, 42, 0
2, 31059, Note_on_c, 0, 71, 80
2, 31059, Note_on_c, 0, 74, 80
2, 31059, Note_on_c, 0, 78, 80
2, 31059, Note_on_c, 0, 83, 80
2, 31100, Note_on_c, 0, 57, 80
2, 31100, Note_on_c, 0, 59, 80
2, 31100, Note_on_c, 0, 62, 80
2, 31100, Note_on_c, 0, 66, 80
2, 31128, Note_on_c, 0, 66, 0
2, 31128, Note_on_c, 0, 71, 0
2, 31128, Note_on_c, 0, 57, 0
2, 31128, Note_on_c, 0, 74, 0
2, 31128, Note_on_c, 0, 78, 0
2, 31128, Note_on_c, 0, 83, 0
2, 31128, Note_on_c, 0, 59, 0
2, 31128, Note_on_c, 0, 62, 0
2, 31179, Note_on_c, 0, 69, 80
2, 31179, Note_on_c, 0, 71, 80
2, 31179, Note_on_c, 0, 75, 80
2, 31179, Note_on_c, 0, 78, 80
2, 31179, Note_on_c, 0, 81, 80
2, 31217, Note_on_c, 0, 35, 80
2, 31217, Note_on_c, 0, 47, 80
2, 31259, Note_on_c, 0, 47, 0
2, 31259, Note_on_c, 0, 35, 0
2, 31285, Note_on_c, 0, 71, 0
2, 31285, Note_on_c, 0, 75, 0
2, 31285, Note_on_c, 0, 69, 0
2, 31285, Note_on_c, 0, 81, 0
2, 31285, Note_on_c, 0, 78, 0
2, 31295, Note_on_c, 0, 67, 80
2, 31295, Note_on_c, 0, 79, 80
2, 31335, Note_on_c, 0, 54, 80
2, 31335, Note_on_c, 0, 57, 80
2, 31335, Note_on_c, 0, 59, 80
2, 31335, Note_on_c, 0, 63, 80
2, 31335, Note_on_c, 0, 66, 80
2, 31335, Note_on_c, 0, 69, 80
2, 31335, Note_on_c, 0, 75, 80
2, 31335, Note_on_c, 0, 78, 80
2, 31337, Note_on_c, 0, 79, 0
2, 31337, Note_on_c, 0, 67, 0
2, 31363, Note_on_c, 0, 59, 0
2, 31363, Note_on_c, 0, 63, 0
2, 31365, Note_on_c, 0, 54, 0
2, 31397, Note_on_c, 0, 69, 0
2, 31397, Note_on_c, 0, 78, 0
2, 31397, Note_on_c, 0, 75, 0
2, 31397, Note_on_c, 0, 66, 0
2, 31446, Note_on_c, 0, 40, 80
2, 31446, Note_on_c, 0, 50, 80
2, 31446, Note_on_c, 0, 56, 80
2, 31446, Note_on_c, 0, 66, 80
2, 31446, Note_on_c, 0, 68, 80
2, 31446, Note_on_c, 0, 71, 80
2, 31446, Note_on_c, 0, 74, 80
2, 31446, Note_on_c, 0, 78, 80
2, 31451, Note_on_c, 0, 57, 0
2, 31477, Note_on_c, 0, 74, 0
2, 31512, Note_on_c, 0, 66, 0
2, 31512, Note_on_c, 0, 68, 0
2, 31512, Note_on_c, 0, 78, 0
2, 31512, Note_on_c, 0, 71, 0
2, 31524, Note_on_c, 0, 62, 80
2, 31524, Note_on_c, 0, 74, 80
2, 31561, Note_on_c, 0, 55, 80
2, 31561, Note_on_c, 0, 61, 80
2, 31561, Note_on_c, 0, 64, 80
2, 31561, Note_on_c, 0, 67, 80
2, 31561, Note_on_c, 0, 73, 80
2, 31561, Note_on_c, 0, 76, 80
2, 31563, Note_on_c, 0, 74, 0
2, 31563, Note_on_c, 0, 62, 0
2, 31563, Note_on_c, 0, 45, 80
2, 31565, Note_on_c, 0, 50, 0
2, 31565, Note_on_c, 0, 40, 0
2, 31565, Note_on_c, 0, 56, 0
2, 31631, Note_on_c, 0, 45, 0
2, 31678, Note_on_c, 0, 74, 80
2, 31680, Note_on_c, 0, 38, 80
2, 31680, Note_on_c, 0, 45, 80
2, 31680, Note_on_c, 0, 54, 80
2, 31680, Note_on_c, 0, 62, 80
2, 31680, Note_on_c, 0, 66, 80
2, 31680, Note_on_c, 0, 69, 80
2, 31681, Note_on_c, 0, 61, 0
2, 31681, Note_on_c, 0, 64, 0
2, 31681, Note_on_c, 0, 76, 0
2, 31681, Note_on_c, 0, 73, 0
2, 31681, Note_on_c, 0, 67, 0
2, 31681, Note_on_c, 0, 55, 0
2, 31719, Note_on_c, 0, 62, 0
2, 31719, Note_on_c, 0, 74, 0
2, 31719, Note_on_c, 0, 69, 0
2, 31719, Note_on_c, 0, 66, 0
2, 31719, Note_on_c, 0, 54, 0
2, 31721, Note_on_c, 0, 38, 0
2, 31721, Note_on_c, 0, 45, 0
2, 31799, Note_on_c, 0, 38, 80
2, 31799, Note_on_c, 0, 50, 80
2, 31867, Note_on_c, 0, 38, 0
2, 31878, Note_on_c, 0, 39, 80
2, 31878, Note_on_c, 0, 51, 80
2, 31878, Note_on_c, 0, 69, 80
2, 31880, Note_on_c, 0, 50, 0
2, 31890, Note_on_c, 0, 71, 80
2, 31892, Note_on_c, 0, 69, 0
2, 31901, Note_on_c, 0, 72, 80
2, 31906, Note_on_c, 0, 71, 0
2, 31916, Note_on_c, 0, 52, 80
2, 31916, Note_on_c, 0, 73, 80
2, 31918, Note_on_c, 0, 72, 0
2, 31918, Note_on_c, 0, 40, 80
2, 31920, Note_on_c, 0, 39, 0
2, 31920, Note_on_c, 0, 51, 0
2, 31960, Note_on_c, 0, 40, 0
2, 31960, Note_on_c, 0, 52, 0
2, 31986, Note_on_c, 0, 73, 0
2, 32033, Note_on_c, 0, 73, 80
2, 32033, Note_on_c, 0, 76, 80
2, 32033, Note_on_c, 0, 81, 80
2, 32035, Note_on_c, 0, 55, 80
2, 32035, Note_on_c, 0, 57, 80
2, 32035, Note_on_c, 0, 61, 80
2, 32035, Note_on_c, 0, 64, 80
2, 32035, Note_on_c, 0, 69, 80
2, 32065, Note_on_c, 0, 64, 0
2, 32065, Note_on_c, 0, 55, 0
2, 32065, Note_on_c, 0, 57, 0
2, 32065, Note_on_c, 0, 61, 0
2, 32103, Note_on_c, 0, 81, 0
2, 32103, Note_on_c, 0, 73, 0
2, 32105, Note_on_c, 0, 69, 0
2, 32105, Note_on_c, 0, 76, 0
2, 32112, Note_on_c, 0, 80, 80
2, 32113, Note_on_c, 0, 68, 80
2, 32151, Note_on_c, 0, 73, 80
2, 32151, Note_on_c, 0, 76, 80
2, 32151, Note_on_c, 0, 81, 80
2, 32153, Note_on_c, 0, 45, 80
2, 32153, Note_on_c, 0, 69, 80
2, 32155, Note_on_c, 0, 68, 0
2, 32155, Note_on_c, 0, 80, 0
2, 32155, Note_on_c, 0, 33, 80
2, 32197, Note_on_c, 0, 33, 0
2, 32197, Note_on_c, 0, 45, 0
2, 32218, Note_on_c, 0, 81, 0
2, 32218, Note_on_c, 0, 76, 0
2, 32218, Note_on_c, 0, 73, 0
2, 32218, Note_on_c, 0, 69, 0
2, 32225, Note_on_c, 0, 80, 80
2, 32227, Note_on_c, 0, 68, 80
2, 32264, Note_on_c, 0, 81, 80
2, 32266, Note_on_c, 0, 57, 80
2, 32266, Note_on_c, 0, 61, 80
2, 32266, Note_on_c, 0, 64, 80
2, 32266, Note_on_c, 0, 69, 80
2, 32266, Note_on_c, 0, 73, 80
2, 32266, Note_on_c, 0, 76, 80
2, 32268, Note_on_c, 0, 80, 0
2, 32268, Note_on_c, 0, 55, 80
2, 32270, Note_on_c, 0, 68, 0
2, 32291, Note_on_c, 0, 61, 0
2, 32291, Note_on_c, 0, 64, 0
2, 32293, Note_on_c, 0, 57, 0
2, 32293, Note_on_c, 0, 55, 0
2, 32330, Note_on_c, 0, 81, 0
2, 32330, Note_on_c, 0, 73, 0
2, 32332, Note_on_c, 0, 69, 0
2, 32332, Note_on_c, 0, 76, 0
2, 32339, Note_on_c, 0, 80, 80
2, 32341, Note_on_c, 0, 68, 80
2, 32376, Note_on_c, 0, 81, 80
2, 32378, Note_on_c, 0, 69, 80
2, 32378, Note_on_c, 0, 73, 80
2, 32378, Note_on_c, 0, 76, 80
2, 32380, Note_on_c, 0, 80, 0
2, 32380, Note_on_c, 0, 40, 80
2, 32380, Note_on_c, 0, 52, 80
2, 32382, Note_on_c, 0, 68, 0
2, 32408, Note_on_c, 0, 81, 0
2, 32408, Note_on_c, 0, 69, 0
2, 32408, Note_on_c, 0, 73, 0
2, 32408, Note_on_c, 0, 76, 0
2, 32423, Note_on_c, 0, 52, 0
2, 32424, Note_on_c, 0, 40, 0
2, 32455, Note_on_c, 0, 71, 80
2, 32455, Note_on_c, 0, 83, 80
2, 32497, Note_on_c, 0, 61, 80
2, 32497, Note_on_c, 0, 64, 80
2, 32497, Note_on_c, 0, 55, 80
2, 32497, Note_on_c, 0, 57, 80
2, 32525, Note_on_c, 0, 57, 0
2, 32525, Note_on_c, 0, 64, 0
2, 32525, Note_on_c, 0, 61, 0
2, 32525, Note_on_c, 0, 55, 0
2, 32563, Note_on_c, 0, 71, 0
2, 32563, Note_on_c, 0, 83, 0
2, 32572, Note_on_c, 0, 69, 80
2, 32572, Note_on_c, 0, 73, 80
2, 32572, Note_on_c, 0, 76, 80
2, 32572, Note_on_c, 0, 81, 80
2, 32615, Note_on_c, 0, 33, 80
2, 32615, Note_on_c, 0, 45, 80
2, 32642, Note_on_c, 0, 45, 0
2, 32654, Note_on_c, 0, 33, 0
2, 32689, Note_on_c, 0, 45, 80
2, 32689, Note_on_c, 0, 57, 80
2, 32730, Note_on_c, 0, 44, 80
2, 32730, Note_on_c, 0, 56, 80
2, 32732, Note_on_c, 0, 57, 0
2, 32732, Note_on_c, 0, 45, 0
2, 32792, Note_on_c, 0, 73, 0
2, 32792, Note_on_c, 0, 81, 0
2, 32794, Note_on_c, 0, 44, 0
2, 32794, Note_on_c, 0, 56, 0
2, 32794, Note_on_c, 0, 69, 0
2, 32794, Note_on_c, 0, 76, 0
2, 32804, Note_on_c, 0, 55, 80
2, 32804, Note_on_c, 0, 71, 80
2, 32806, Note_on_c, 0, 43, 80
2, 32815, Note_on_c, 0, 72, 80
2, 32817, Note_on_c, 0, 71, 0
2, 32829, Note_on_c, 0, 73, 80
2, 32833, Note_on_c, 0, 72, 0
2, 32840, Note_on_c, 0, 74, 80
2, 32842, Note_on_c, 0, 42, 80
2, 32842, Note_on_c, 0, 54, 80
2, 32844, Note_on_c, 0, 55, 0
2, 32844, Note_on_c, 0, 73, 0
2, 32844, Note_on_c, 0, 43, 0
2, 32884, Note_on_c, 0, 54, 0
2, 32884, Note_on_c, 0, 42, 0
2, 32905, Note_on_c, 0, 74, 0
2, 32954, Note_on_c, 0, 54, 80
2, 32954, Note_on_c, 0, 57, 80
2, 32954, Note_on_c, 0, 62, 80
2, 32954, Note_on_c, 0, 69, 80
2, 32954, Note_on_c, 0, 74, 80
2, 32954, Note_on_c, 0, 78, 80
2, 32954, Note_on_c, 0, 81, 80
2, 32985, Note_on_c, 0, 62, 0
2, 32985, Note_on_c, 0, 54, 0
2, 32985, Note_on_c, 0, 57, 0
2, 33023, Note_on_c, 0, 74, 0
2, 33023, Note_on_c, 0, 69, 0
2, 33023, Note_on_c, 0, 78, 0
2, 33023, Note_on_c, 0, 81, 0
2, 33029, Note_on_c, 0, 80, 80
2, 33031, Note_on_c, 0, 68, 80
2, 33072, Note_on_c, 0, 74, 80
2, 33072, Note_on_c, 0, 78, 80
2, 33072, Note_on_c, 0, 81, 80
2, 33073, Note_on_c, 0, 80, 0
2, 33073, Note_on_c, 0, 38, 80
2, 33073, Note_on_c, 0, 50, 80
2, 33073, Note_on_c, 0, 69, 80
2, 33075, Note_on_c, 0, 68, 0
2, 33118, Note_on_c, 0, 38, 0
2, 33118, Note_on_c, 0, 50, 0
2, 33139, Note_on_c, 0, 81, 0
2, 33139, Note_on_c, 0, 78, 0
2, 33139, Note_on_c, 0, 74, 0
2, 33141, Note_on_c, 0, 69, 0
2, 33147, Note_on_c, 0, 80, 80
2, 33149, Note_on_c, 0, 68, 80
2, 33190, Note_on_c, 0, 62, 80
2, 33190, Note_on_c, 0, 69, 80
2, 33190, Note_on_c, 0, 74, 80
2, 33190, Note_on_c, 0, 78, 80
2, 33190, Note_on_c, 0, 81, 80
2, 33192, Note_on_c, 0, 80, 0
2, 33192, Note_on_c, 0, 54, 80
2, 33192, Note_on_c, 0, 57, 80
2, 33193, Note_on_c, 0, 68, 0
2, 33216, Note_on_c, 0, 62, 0
2, 33218, Note_on_c, 0, 57, 0
2, 33218, Note_on_c, 0, 54, 0
2, 33256, Note_on_c, 0, 74, 0
2, 33256, Note_on_c, 0, 81, 0
2, 33256, Note_on_c, 0, 78, 0
2, 33256, Note_on_c, 0, 69, 0
2, 33265, Note_on_c, 0, 68, 80
2, 33265, Note_on_c, 0, 80, 80
2, 33306, Note_on_c, 0, 54, 80
2, 33306, Note_on_c, 0, 69, 80
2, 33306, Note_on_c, 0, 74, 80
2, 33306, Note_on_c, 0, 78, 80
2, 33306, Note_on_c, 0, 81, 80
2, 33308, Note_on_c, 0, 80, 0
2, 33308, Note_on_c, 0, 68, 0
2, 33308, Note_on_c, 0, 42, 80
2, 33334, Note_on_c, 0, 78, 0
2, 33334, Note_on_c, 0, 69, 0
2, 33334, Note_on_c, 0, 74, 0
2, 33334, Note_on_c, 0, 81, 0
2, 33348, Note_on_c, 0, 54, 0
2, 33350, Note_on_c, 0, 42, 0
2, 33381, Note_on_c, 0, 83, 80
2, 33383, Note_on_c, 0, 71, 80
2, 33423, Note_on_c, 0, 54, 80
2, 33423, Note_on_c, 0, 57, 80
2, 33423, Note_on_c, 0, 62, 80
2, 33451, Note_on_c, 0, 62, 0
2, 33453, Note_on_c, 0, 54, 0
2, 33453, Note_on_c, 0, 57, 0
2, 33490, Note_on_c, 0, 71, 0
2, 33490, Note_on_c, 0, 83, 0
2, 33500, Note_on_c, 0, 69, 80
2, 33500, Note_on_c, 0, 74, 80
2, 33500, Note_on_c, 0, 78, 80
2, 33500, Note_on_c, 0, 81, 80
2, 33542, Note_on_c, 0, 38, 80
2, 33542, Note_on_c, 0, 50, 80
2, 33605, Note_on_c, 0, 50, 0
2, 33607, Note_on_c, 0, 38, 0
2, 33619, Note_on_c, 0, 37, 80
2, 33619, Note_on_c, 0, 49, 80
2, 33656, Note_on_c, 0, 38, 80
2, 33656, Note_on_c, 0, 50, 80
2, 33658, Note_on_c, 0, 49, 0
2, 33658, Note_on_c, 0, 37, 0
2, 33721, Note_on_c, 0, 50, 0
2, 33721, Note_on_c, 0, 74, 0
2, 33721, Note_on_c, 0, 81, 0
2, 33721, Note_on_c, 0, 69, 0
2, 33723, Note_on_c, 0, 38, 0
2, 33733, Note_on_c, 0, 39, 80
2, 33733, Note_on_c, 0, 51, 80
2, 33744, Note_on_c, 0, 79, 80
2, 33746, Note_on_c, 0, 78, 0
2, 33756, Note_on_c, 0, 80, 80
2, 33761, Note_on_c, 0, 79, 0
2, 33772, Note_on_c, 0, 41, 80
2, 33772, Note_on_c, 0, 53, 80
2, 33772, Note_on_c, 0, 81, 80
2, 33774, Note_on_c, 0, 80, 0
2, 33776, Note_on_c, 0, 39, 0
2, 33776, Note_on_c, 0, 51, 0
2, 33812, Note_on_c, 0, 81, 0
2, 33814, Note_on_c, 0, 53, 0
2, 33814, Note_on_c, 0, 41, 0
2, 33891, Note_on_c, 0, 53, 80
2, 33891, Note_on_c, 0, 57, 80
2, 33891, Note_on_c, 0, 60, 80
2, 33891, Note_on_c, 0, 69, 80
2, 33891, Note_on_c, 0, 72, 80
2, 33891, Note_on_c, 0, 81, 80
2, 33924, Note_on_c, 0, 60, 0
2, 33924, Note_on_c, 0, 53, 0
2, 33924, Note_on_c, 0, 57, 0
2, 33960, Note_on_c, 0, 81, 0
2, 33960, Note_on_c, 0, 72, 0
2, 33961, Note_on_c, 0, 69, 0
2, 33968, Note_on_c, 0, 68, 80
2, 33968, Note_on_c, 0, 80, 80
2, 34010, Note_on_c, 0, 72, 80
2, 34010, Note_on_c, 0, 81, 80
2, 34012, Note_on_c, 0, 42, 80
2, 34012, Note_on_c, 0, 54, 80
2, 34012, Note_on_c, 0, 69, 80
2, 34014, Note_on_c, 0, 80, 0
2, 34014, Note_on_c, 0, 68, 0
2, 34040, Note_on_c, 0, 72, 0
2, 34055, Note_on_c, 0, 42, 0
2, 34055, Note_on_c, 0, 54, 0
2, 34066, Note_on_c, 0, 81, 0
2, 34066, Note_on_c, 0, 69, 0
2, 34087, Note_on_c, 0, 84, 80
2, 34089, Note_on_c, 0, 72, 80
2, 34089, Note_on_c, 0, 75, 80
2, 34127, Note_on_c, 0, 70, 80
2, 34127, Note_on_c, 0, 74, 80
2, 34127, Note_on_c, 0, 82, 80
2, 34128, Note_on_c, 0, 50, 80
2, 34128, Note_on_c, 0, 54, 80
2, 34128, Note_on_c, 0, 57, 80
2, 34128, Note_on_c, 0, 60, 80
2, 34130, Note_on_c, 0, 75, 0
2, 34130, Note_on_c, 0, 84, 0
2, 34130, Note_on_c, 0, 72, 0
2, 34158, Note_on_c, 0, 57, 0
2, 34158, Note_on_c, 0, 54, 0
2, 34158, Note_on_c, 0, 60, 0
2, 34158, Note_on_c, 0, 50, 0
2, 34199, Note_on_c, 0, 70, 0
2, 34199, Note_on_c, 0, 74, 0
2, 34199, Note_on_c, 0, 82, 0
2, 34250, Note_on_c, 0, 43, 80
2, 34250, Note_on_c, 0, 55, 80
2, 34250, Note_on_c, 0, 69, 80
2, 34250, Note_on_c, 0, 72, 80
2, 34250, Note_on_c, 0, 81, 80
2, 34278, Note_on_c, 0, 81, 0
2, 34278, Note_on_c, 0, 69, 0
2, 34278, Note_on_c, 0, 72, 0
2, 34293, Note_on_c, 0, 55, 0
2, 34295, Note_on_c, 0, 43, 0
2, 34325, Note_on_c, 0, 67, 80
2, 34325, Note_on_c, 0, 70, 80
2, 34325, Note_on_c, 0, 79, 80
2, 34368, Note_on_c, 0, 50, 80
2, 34368, Note_on_c, 0, 55, 80
2, 34368, Note_on_c, 0, 58, 80
2, 34393, Note_on_c, 0, 79, 0
2, 34395, Note_on_c, 0, 70, 0
2, 34395, Note_on_c, 0, 50, 0
2, 34395, Note_on_c, 0, 67, 0
2, 34395, Note_on_c, 0, 58, 0
2, 34395, Note_on_c, 0, 55, 0
2, 34433, Control_c, 0, 64, 127
2, 34442, Note_on_c, 0, 74, 80
2, 34444, Note_on_c, 0, 67, 80
2, 34444, Note_on_c, 0, 70, 80
2, 34444, Note_on_c, 0, 79, 80
2, 34485, Note_on_c, 0, 34, 80
2, 34485, Note_on_c, 0, 46, 80
2, 34527, Control_c, 0, 64, 0
2, 34548, Note_on_c, 0, 46, 0
2, 34550, Note_on_c, 0, 34, 0
2, 34560, Note_on_c, 0, 35, 80
2, 34560, Note_on_c, 0, 47, 80
2, 34595, Note_on_c, 0, 36, 80
2, 34595, Note_on_c, 0, 48, 80
2, 34600, Note_on_c, 0, 47, 0
2, 34600, Note_on_c, 0, 35, 0
2, 34660, Note_on_c, 0, 48, 0
2, 34660, Note_on_c, 0, 67, 0
2, 34660, Note_on_c, 0, 79, 0
2, 34660, Note_on_c, 0, 70, 0
2, 34660, Note_on_c, 0, 74, 0
2, 34662, Note_on_c, 0, 36, 0
2, 34669, Note_on_c, 0, 61, 80
2, 34671, Note_on_c, 0, 37, 80
2, 34671, Note_on_c, 0, 49, 80
2, 34685, Note_on_c, 0, 61, 0
2, 34685, Note_on_c, 0, 63, 80
2, 34695, Note_on_c, 0, 64, 80
2, 34697, Note_on_c, 0, 63, 0
2, 34706, Note_on_c, 0, 50, 80
2, 34706, Note_on_c, 0, 65, 80
2, 34708, Note_on_c, 0, 64, 0
2, 34708, Note_on_c, 0, 38, 80
2, 34710, Note_on_c, 0, 37, 0
2, 34710, Note_on_c, 0, 49, 0
2, 34748, Note_on_c, 0, 65, 0
2, 34750, Note_on_c, 0, 38, 0
2, 34750, Note_on_c, 0, 50, 0
2, 34823, Note_on_c, 0, 65, 80
2, 34823, Note_on_c, 0, 74, 80
2, 34823, Note_on_c, 0, 77, 80
2, 34824, Note_on_c, 0, 53, 80
2, 34824, Note_on_c, 0, 57, 80
2, 34824, Note_on_c, 0, 62, 80
2, 34850, Note_on_c, 0, 62, 0
2, 34852, Note_on_c, 0, 53, 0
2, 34852, Note_on_c, 0, 57, 0
2, 34890, Note_on_c, 0, 65, 0
2, 34890, Note_on_c, 0, 77, 0
2, 34890, Note_on_c, 0, 74, 0
2, 34899, Note_on_c, 0, 67, 80
2, 34899, Note_on_c, 0, 79, 80
2, 34937, Note_on_c, 0, 68, 80
2, 34937, Note_on_c, 0, 74, 80
2, 34937, Note_on_c, 0, 77, 80
2, 34937, Note_on_c, 0, 80, 80
2, 34942, Note_on_c, 0, 79, 0
2, 34942, Note_on_c, 0, 34, 80
2, 34942, Note_on_c, 0, 46, 80
2, 34944, Note_on_c, 0, 67, 0
2, 35007, Note_on_c, 0, 68, 0
2, 35007, Note_on_c, 0, 74, 0
2, 35007, Note_on_c, 0, 77, 0
2, 35007, Note_on_c, 0, 80, 0
2, 35016, Note_on_c, 0, 67, 80
2, 35016, Note_on_c, 0, 79, 80
2, 35057, Note_on_c, 0, 53, 80
2, 35057, Note_on_c, 0, 56, 80
2, 35057, Note_on_c, 0, 58, 80
2, 35057, Note_on_c, 0, 62, 80
2, 35057, Note_on_c, 0, 68, 80
2, 35057, Note_on_c, 0, 74, 80
2, 35057, Note_on_c, 0, 77, 80
2, 35057, Note_on_c, 0, 80, 80
2, 35059, Note_on_c, 0, 79, 0
2, 35059, Note_on_c, 0, 67, 0
2, 35082, Note_on_c, 0, 62, 0
2, 35082, Note_on_c, 0, 58, 0
2, 35082, Note_on_c, 0, 56, 0
2, 35084, Note_on_c, 0, 53, 0
2, 35170, Note_on_c, 0, 73, 80
2, 35170, Note_on_c, 0, 76, 80
2, 35170, Note_on_c, 0, 81, 80
2, 35172, Note_on_c, 0, 69, 80
2, 35174, Note_on_c, 0, 74, 0
2, 35174, Note_on_c, 0, 68, 0
2, 35174, Note_on_c, 0, 77, 0
2, 35174, Note_on_c, 0, 80, 0
2, 35174, Note_on_c, 0, 33, 80
2, 35174, Note_on_c, 0, 45, 80
2, 35176, Note_on_c, 0, 34, 0
2, 35176, Note_on_c, 0, 46, 0
2, 35239, Note_on_c, 0, 45, 0
2, 35239, Note_on_c, 0, 76, 0
2, 35239, Note_on_c, 0, 69, 0
2, 35239, Note_on_c, 0, 73, 0
2, 35239, Note_on_c, 0, 81, 0
2, 35241, Note_on_c, 0, 33, 0
2, 35290, Note_on_c, 0, 69, 80
2, 35290, Note_on_c, 0, 81, 80
2, 35292, Note_on_c, 0, 57, 80
2, 35323, Note_on_c, 0, 81, 0
2, 35325, Note_on_c, 0, 57, 0
2, 35325, Note_on_c, 0, 69, 0
2, 35357, Note_on_c, 0, 81, 80
2, 35359, Note_on_c, 0, 57, 80
2, 35359, Note_on_c, 0, 69, 80
2, 35376, Note_on_c, 0, 69, 0
2, 35376, Note_on_c, 0, 57, 0
2, 35376, Note_on_c, 0, 81, 0
2, 35406, Control_c, 0, 64, 127
2, 35413, Note_on_c, 0, 81, 80
2, 35415, Note_on_c, 0, 69, 80
2, 35417, Note_on_c, 0, 57, 80
2, 35469, Note_on_c, 0, 57, 0
2, 35469, Note_on_c, 0, 69, 0
2, 35469, Note_on_c, 0, 81, 0
2, 35496, Control_c, 0, 64, 0
2, 35529, Note_on_c, 0, 51, 80
2, 35531, Note_on_c, 0, 39, 80
2, 35606, Note_on_c, 0, 81, 80
2, 35608, Note_on_c, 0, 69, 80
2, 35617, Note_on_c, 0, 71, 80
2, 35617, Note_on_c, 0, 83, 80
2, 35619, Note_on_c, 0, 69, 0
2, 35619, Note_on_c, 0, 81, 0
2, 35629, Note_on_c, 0, 72, 80
2, 35629, Note_on_c, 0, 84, 80
2, 35631, Note_on_c, 0, 83, 0
2, 35633, Note_on_c, 0, 71, 0
2, 35642, Note_on_c, 0, 73, 80
2, 35642, Note_on_c, 0, 85, 80
2, 35644, Note_on_c, 0, 84, 0
2, 35644, Note_on_c, 0, 40, 80
2, 35644, Note_on_c, 0, 52, 80
2, 35646, Note_on_c, 0, 51, 0
2, 35646, Note_on_c, 0, 72, 0
2, 35648, Note_on_c, 0, 39, 0
2, 35681, Note_on_c, 0, 73, 0
2, 35681, Note_on_c, 0, 85, 0
2, 35683, Note_on_c, 0, 52, 0
2, 35683, Note_on_c, 0, 40, 0
2, 35748, Note_on_c, 0, 88, 80
2, 35748, Note_on_c, 0, 93, 80
2, 35750, Note_on_c, 0, 64, 80
2, 35750, Note_on_c, 0, 81, 80
2, 35750, Note_on_c, 0, 85, 80
2, 35752, Note_on_c, 0, 55, 80
2, 35752, Note_on_c, 0, 57, 80
2, 35752, Note_on_c, 0, 61, 80
2, 35780, Note_on_c, 0, 61, 0
2, 35780, Note_on_c, 0, 57, 0
2, 35780, Note_on_c, 0, 64, 0
2, 35780, Note_on_c, 0, 55, 0
2, 35812, Note_on_c, 0, 88, 0
2, 35812, Note_on_c, 0, 93, 0
2, 35814, Note_on_c, 0, 81, 0
2, 35814, Note_on_c, 0, 85, 0
2, 35821, Note_on_c, 0, 92, 80
2, 35823, Note_on_c, 0, 80, 80
2, 35860, Note_on_c, 0, 93, 80
2, 35862, Note_on_c, 0, 81, 80
2, 35862, Note_on_c, 0, 85, 80
2, 35862, Note_on_c, 0, 88, 80
2, 35864, Note_on_c, 0, 80, 0
2, 35864, Note_on_c, 0, 92, 0
2, 35864, Note_on_c, 0, 33, 80
2, 35864, Note_on_c, 0, 45, 80
2, 35904, Note_on_c, 0, 45, 0
2, 35904, Note_on_c, 0, 33, 0
2, 35926, Note_on_c, 0, 93, 0
2, 35926, Note_on_c, 0, 88, 0
2, 35928, Note_on_c, 0, 81, 0
2, 35928, Note_on_c, 0, 85, 0
2, 35934, Note_on_c, 0, 80, 80
2, 35934, Note_on_c, 0, 92, 80
2, 35975, Note_on_c, 0, 85, 80
2, 35975, Note_on_c, 0, 88, 80
2, 35975, Note_on_c, 0, 93, 80
2, 35976, Note_on_c, 0, 92, 0
2, 35976, Note_on_c, 0, 81, 80
2, 35978, Note_on_c, 0, 80, 0
2, 35978, Note_on_c, 0, 55, 80
2, 35978, Note_on_c, 0, 57, 80
2, 35978, Note_on_c, 0, 61, 80
2, 35978, Note_on_c, 0, 64, 80
2, 36006, Note_on_c, 0, 64, 0
2, 36006, Note_on_c, 0, 61, 0
2, 36006, Note_on_c, 0, 55, 0
2, 36006, Note_on_c, 0, 57, 0
2, 36042, Note_on_c, 0, 93, 0
2, 36044, Note_on_c, 0, 88, 0
2, 36044, Note_on_c, 0, 85, 0
2, 36046, Note_on_c, 0, 81, 0
2, 36052, Note_on_c, 0, 92, 80
2, 36054, Note_on_c, 0, 80, 80
2, 36095, Note_on_c, 0, 85, 80
2, 36095, Note_on_c, 0, 88, 80
2, 36095, Note_on_c, 0, 93, 80
2, 36096, Note_on_c, 0, 92, 0
2, 36096, Note_on_c, 0, 52, 80
2, 36096, Note_on_c, 0, 81, 80
2, 36098, Note_on_c, 0, 80, 0
2, 36098, Note_on_c, 0, 40, 80
2, 36121, Note_on_c, 0, 93, 0
2, 36121, Note_on_c, 0, 88, 0
2, 36123, Note_on_c, 0, 85, 0
2, 36123, Note_on_c, 0, 81, 0
2, 36138, Note_on_c, 0, 52, 0
2, 36140, Note_on_c, 0, 40, 0
2, 36170, Note_on_c, 0, 95, 80
2, 36172, Note_on_c, 0, 83, 80
2, 36213, Note_on_c, 0, 61, 80
2, 36213, Note_on_c, 0, 64, 80
2, 36215, Note_on_c, 0, 55, 80
2, 36215, Note_on_c, 0, 57, 80
2, 36245, Note_on_c, 0, 64, 0
2, 36245, Note_on_c, 0, 61, 0
2, 36247, Note_on_c, 0, 55, 0
2, 36247, Note_on_c, 0, 57, 0
2, 36283, Note_on_c, 0, 95, 0
2, 36283, Note_on_c, 0, 83, 0
2, 36292, Note_on_c, 0, 85, 80
2, 36292, Note_on_c, 0, 88, 80
2, 36292, Note_on_c, 0, 93, 80
2, 36294, Note_on_c, 0, 81, 80
2, 36338, Note_on_c, 0, 33, 80
2, 36338, Note_on_c, 0, 45, 80
2, 36366, Note_on_c, 0, 45, 0
2, 36381, Note_on_c, 0, 33, 0
2, 36416, Note_on_c, 0, 45, 80
2, 36416, Note_on_c, 0, 57, 80
2, 36458, Note_on_c, 0, 44, 80
2, 36458, Note_on_c, 0, 56, 80
2, 36460, Note_on_c, 0, 57, 0
2, 36460, Note_on_c, 0, 45, 0
2, 36521, Note_on_c, 0, 93, 0
2, 36523, Note_on_c, 0, 85, 0
2, 36523, Note_on_c, 0, 81, 0
2, 36523, Note_on_c, 0, 88, 0
2, 36525, Note_on_c, 0, 56, 0
2, 36527, Note_on_c, 0, 44, 0
2, 36531, Note_on_c, 0, 83, 80
2, 36533, Note_on_c, 0, 71, 80
2, 36535, Note_on_c, 0, 43, 80
2, 36535, Note_on_c, 0, 55, 80
2, 36545, Note_on_c, 0, 84, 80
2, 36547, Note_on_c, 0, 83, 0
2, 36547, Note_on_c, 0, 72, 80
2, 36549, Note_on_c, 0, 71, 0
2, 36558, Note_on_c, 0, 73, 80
2, 36558, Note_on_c, 0, 85, 80
2, 36560, Note_on_c, 0, 84, 0
2, 36562, Note_on_c, 0, 72, 0
2, 36572, Note_on_c, 0, 74, 80
2, 36572, Note_on_c, 0, 86, 80
2, 36574, Note_on_c, 0, 73, 0
2, 36574, Note_on_c, 0, 85, 0
2, 36574, Note_on_c, 0, 54, 80
2, 36576, Note_on_c, 0, 55, 0
2, 36576, Note_on_c, 0, 42, 80
2, 36577, Note_on_c, 0, 43, 0
2, 36610, Note_on_c, 0, 86, 0
2, 36612, Note_on_c, 0, 74, 0
2, 36614, Note_on_c, 0, 42, 0
2, 36614, Note_on_c, 0, 54, 0
2, 36687, Note_on_c, 0, 81, 80
2, 36687, Note_on_c, 0, 86, 80
2, 36687, Note_on_c, 0, 90, 80
2, 36687, Note_on_c, 0, 93, 80
2, 36689, Note_on_c, 0, 54, 80
2, 36689, Note_on_c, 0, 57, 80
2, 36689, Note_on_c, 0, 62, 80
2, 36721, Note_on_c, 0, 62, 0
2, 36721, Note_on_c, 0, 54, 0
2, 36721, Note_on_c, 0, 57, 0
2, 36757, Note_on_c, 0, 90, 0
2, 36757, Note_on_c, 0, 81, 0
2, 36757, Note_on_c, 0, 86, 0
2, 36757, Note_on_c, 0, 93, 0
2, 36767, Note_on_c, 0, 80, 80
2, 36767, Note_on_c, 0, 92, 80
2, 36802, Note_on_c, 0, 93, 80
2, 36804, Note_on_c, 0, 86, 80
2, 36804, Note_on_c, 0, 90, 80
2, 36806, Note_on_c, 0, 92, 0
2, 36806, Note_on_c, 0, 50, 80
2, 36806, Note_on_c, 0, 81, 80
2, 36808, Note_on_c, 0, 80, 0
2, 36808, Note_on_c, 0, 38, 80
2, 36848, Note_on_c, 0, 38, 0
2, 36848, Note_on_c, 0, 50, 0
2, 36869, Note_on_c, 0, 90, 0
2, 36869, Note_on_c, 0, 93, 0
2, 36871, Note_on_c, 0, 86, 0
2, 36871, Note_on_c, 0, 81, 0
2, 36878, Note_on_c, 0, 92, 80
2, 36880, Note_on_c, 0, 80, 80
2, 36917, Note_on_c, 0, 81, 80
2, 36917, Note_on_c, 0, 86, 80
2, 36917, Note_on_c, 0, 90, 80
2, 36917, Note_on_c, 0, 93, 80
2, 36919, Note_on_c, 0, 92, 0
2, 36919, Note_on_c, 0, 57, 80
2, 36919, Note_on_c, 0, 62, 80
2, 36921, Note_on_c, 0, 80, 0
2, 36921, Note_on_c, 0, 54, 80
2, 36949, Note_on_c, 0, 54, 0
2, 36949, Note_on_c, 0, 62, 0
2, 36949, Note_on_c, 0, 57, 0
2, 36984, Note_on_c, 0, 90, 0
2, 36984, Note_on_c, 0, 93, 0
2, 36986, Note_on_c, 0, 86, 0
2, 36986, Note_on_c, 0, 81, 0
2, 36996, Note_on_c, 0, 92, 80
2, 36998, Note_on_c, 0, 80, 80
2, 37035, Note_on_c, 0, 81, 80
2, 37035, Note_on_c, 0, 86, 80
2, 37035, Note_on_c, 0, 90, 80
2, 37035, Note_on_c, 0, 93, 80
2, 37037, Note_on_c, 0, 80, 0
2, 37037, Note_on_c, 0, 92, 0
2, 37039, Note_on_c, 0, 38, 80
2, 37039, Note_on_c, 0, 50, 80
2, 37062, Note_on_c, 0, 90, 0
2, 37062, Note_on_c, 0, 86, 0
2, 37062, Note_on_c, 0, 93, 0
2, 37064, Note_on_c, 0, 81, 0
2, 37104, Note_on_c, 0, 38, 0
2, 37104, Note_on_c, 0, 50, 0
2, 37109, Note_on_c, 0, 95, 80
2, 37111, Note_on_c, 0, 83, 80
2, 37149, Note_on_c, 0, 62, 80
2, 37151, Note_on_c, 0, 54, 80
2, 37151, Note_on_c, 0, 57, 80
2, 37178, Note_on_c, 0, 57, 0
2, 37178, Note_on_c, 0, 62, 0
2, 37178, Note_on_c, 0, 54, 0
2, 37216, Note_on_c, 0, 95, 0
2, 37218, Note_on_c, 0, 83, 0
2, 37227, Note_on_c, 0, 86, 80
2, 37227, Note_on_c, 0, 90, 80
2, 37227, Note_on_c, 0, 93, 80
2, 37229, Note_on_c, 0, 81, 80
2, 37267, Note_on_c, 0, 62, 80
2, 37269, Note_on_c, 0, 54, 80
2, 37269, Note_on_c, 0, 57, 80
2, 37299, Note_on_c, 0, 57, 0
2, 37299, Note_on_c, 0, 62, 0
2, 37299, Note_on_c, 0, 54, 0
2, 37332, Note_on_c, 0, 86, 0
2, 37332, Note_on_c, 0, 93, 0
2, 37332, Note_on_c, 0, 90, 0
2, 37334, Note_on_c, 0, 81, 0
2, 37378, Control_c, 0, 64, 127
2, 37385, Note_on_c, 0, 67, 80
2, 37385, Note_on_c, 0, 73, 80
2, 37385, Note_on_c, 0, 76, 80
2, 37385, Note_on_c, 0, 79, 80
2, 37387, Note_on_c, 0, 45, 80
2, 37389, Note_on_c, 0, 33, 80
2, 37468, Control_c, 0, 64, 0
2, 37499, Note_on_c, 0, 66, 80
2, 37499, Note_on_c, 0, 69, 80
2, 37499, Note_on_c, 0, 74, 80
2, 37499, Note_on_c, 0, 78, 80
2, 37501, Note_on_c, 0, 79, 0
2, 37503, Note_on_c, 0, 76, 0
2, 37503, Note_on_c, 0, 67, 0
2, 37503, Note_on_c, 0, 73, 0
2, 37503, Note_on_c, 0, 38, 80
2, 37503, Note_on_c, 0, 50, 80
2, 37505, Note_on_c, 0, 45, 0
2, 37505, Note_on_c, 0, 33, 0
2, 37524, Note_on_c, 0, 66, 0
2, 37524, Note_on_c, 0, 78, 0
2, 37524, Note_on_c, 0, 74, 0
2, 37524, Note_on_c, 0, 69, 0
2, 37526, Note_on_c, 0, 38, 0
2, 37526, Note_on_c, 0, 50, 0
2, 37575, Note_on_c, 0, 74, 80
2, 37575, Note_on_c, 0, 78, 80
2, 37577, Note_on_c, 0, 50, 80
2, 37577, Note_on_c, 0, 66, 80
2, 37577, Note_on_c, 0, 69, 80
2, 37579, Note_on_c, 0, 38, 80
2, 37642, Note_on_c, 0, 66, 0
2, 37642, Note_on_c, 0, 78, 0
2, 37682, Note_on_c, 0, 69, 0
2, 37682, Note_on_c, 0, 74, 0
2, 37684, Note_on_c, 0, 38, 0
2, 37684, Note_on_c, 0, 50, 0
2, 37694, Note_on_c, 0, 49, 80
2, 37694, Note_on_c, 0, 66, 80
2, 37694, Note_on_c, 0, 70, 80
2, 37694, Note_on_c, 0, 76, 80
2, 37694, Note_on_c, 0, 78, 80
2, 37696, Note_on_c, 0, 37, 80
2, 37799, Note_on_c, 0, 78, 0
2, 37799, Note_on_c, 0, 76, 0
2, 37799, Note_on_c, 0, 66, 0
2, 37800, Note_on_c, 0, 70, 0
2, 37848, Note_on_c, 0, 66, 80
2, 37848, Note_on_c, 0, 69, 80
2, 37848, Note_on_c, 0, 76, 80
2, 37848, Note_on_c, 0, 78, 80
2, 37849, Note_on_c, 0, 36, 80
2, 37849, Note_on_c, 0, 48, 80
2, 37851, Note_on_c, 0, 49, 0
2, 37851, Note_on_c, 0, 37, 0
2, 37912, Note_on_c, 0, 78, 0
2, 37914, Note_on_c, 0, 69, 0
2, 37914, Note_on_c, 0, 66, 0
2, 37963, Note_on_c, 0, 78, 80
2, 37965, Note_on_c, 0, 47, 80
2, 37965, Note_on_c, 0, 66, 80
2, 37965, Note_on_c, 0, 69, 80
2, 37965, Note_on_c, 0, 75, 80
2, 37967, Note_on_c, 0, 76, 0
2, 37967, Note_on_c, 0, 35, 80
2, 37968, Note_on_c, 0, 48, 0
2, 37968, Note_on_c, 0, 36, 0
2, 38001, Note_on_c, 0, 78, 0
2, 38003, Note_on_c, 0, 69, 0
2, 38003, Note_on_c, 0, 47, 0
2, 38003, Note_on_c, 0, 75, 0
2, 38003, Note_on_c, 0, 66, 0
2, 38005, Note_on_c, 0, 35, 0
2, 38078, Note_on_c, 0, 66, 80
2, 38078, Note_on_c, 0, 69, 80
2, 38078, Note_on_c, 0, 75, 80
2, 38078, Note_on_c, 0, 78, 80
2, 38080, Note_on_c, 0, 54, 80
2, 38080, Note_on_c, 0, 57, 80
2, 38080, Note_on_c, 0, 59, 80
2, 38080, Note_on_c, 0, 63, 80
2, 38108, Note_on_c, 0, 63, 0
2, 38108, Note_on_c, 0, 59, 0
2, 38108, Note_on_c, 0, 54, 0
2, 38108, Note_on_c, 0, 57, 0
2, 38145, Note_on_c, 0, 75, 0
2, 38145, Note_on_c, 0, 78, 0
2, 38145, Note_on_c, 0, 66, 0
2, 38147, Note_on_c, 0, 69, 0
2, 38191, Note_on_c, 0, 74, 80
2, 38191, Note_on_c, 0, 78, 80
2, 38193, Note_on_c, 0, 52, 80
2, 38193, Note_on_c, 0, 66, 80
2, 38193, Note_on_c, 0, 68, 80
2, 38193, Note_on_c, 0, 71, 80
2, 38195, Note_on_c, 0, 40, 80
2, 38221, Note_on_c, 0, 71, 0
2, 38221, Note_on_c, 0, 66, 0
2, 38221, Note_on_c, 0, 74, 0
2, 38221, Note_on_c, 0, 78, 0
2, 38221, Note_on_c, 0, 68, 0
2, 38270, Note_on_c, 0, 68, 80
2, 38270, Note_on_c, 0, 71, 80
2, 38270, Note_on_c, 0, 74, 80
2, 38270, Note_on_c, 0, 76, 80
2, 38272, Note_on_c, 0, 64, 80
2, 38298, Note_on_c, 0, 35, 80
2, 38298, Note_on_c, 0, 47, 80
2, 38300, Note_on_c, 0, 40, 0
2, 38300, Note_on_c, 0, 52, 0
2, 38363, Note_on_c, 0, 71, 0
2, 38363, Note_on_c, 0, 76, 0
2, 38363, Note_on_c, 0, 68, 0
2, 38363, Note_on_c, 0, 74, 0
2, 38363, Note_on_c, 0, 64, 0
2, 38410, Note_on_c, 0, 74, 80
2, 38410, Note_on_c, 0, 76, 80
2, 38412, Note_on_c, 0, 64, 80
2, 38412, Note_on_c, 0, 67, 80
2, 38414, Note_on_c, 0, 34, 80
2, 38414, Note_on_c, 0, 46, 80
2, 38416, Note_on_c, 0, 47, 0
2, 38418, Note_on_c, 0, 35, 0
2, 38439, Note_on_c, 0, 76, 0
2, 38439, Note_on_c, 0, 74, 0
2, 38439, Note_on_c, 0, 64, 0
2, 38439, Note_on_c, 0, 67, 0
2, 38441, Note_on_c, 0, 46, 0
2, 38441, Note_on_c, 0, 34, 0
2, 38483, Note_on_c, 0, 74, 80
2, 38483, Note_on_c, 0, 76, 80
2, 38485, Note_on_c, 0, 64, 80
2, 38485, Note_on_c, 0, 67, 80
2, 38487, Note_on_c, 0, 34, 80
2, 38487, Note_on_c, 0, 46, 80
2, 38550, Note_on_c, 0, 67, 0
2, 38550, Note_on_c, 0, 64, 0
2, 38550, Note_on_c, 0, 76, 0
2, 38586, Note_on_c, 0, 74, 0
2, 38588, Note_on_c, 0, 34, 0
2, 38588, Note_on_c, 0, 46, 0
2, 38592, Note_on_c, 0, 73, 80
2, 38594, Note_on_c, 0, 64, 80
2, 38594, Note_on_c, 0, 67, 80
2, 38594, Note_on_c, 0, 76, 80
2, 38596, Note_on_c, 0, 33, 80
2, 38596, Note_on_c, 0, 45, 80
2, 38697, Note_on_c, 0, 73, 0
2, 38699, Note_on_c, 0, 64, 0
2, 38699, Note_on_c, 0, 67, 0
2, 38701, Note_on_c, 0, 76, 0
2, 38706, Note_on_c, 0, 78, 80
2, 38720, Note_on_c, 0, 79, 80
2, 38722, Note_on_c, 0, 78, 0
2, 38732, Note_on_c, 0, 80, 80
2, 38736, Note_on_c, 0, 79, 0
2, 38746, Note_on_c, 0, 69, 80
2, 38746, Note_on_c, 0, 73, 80
2, 38746, Note_on_c, 0, 76, 80
2, 38746, Note_on_c, 0, 81, 80
2, 38748, Note_on_c, 0, 80, 0
2, 38748, Note_on_c, 0, 55, 80
2, 38748, Note_on_c, 0, 57, 80
2, 38748, Note_on_c, 0, 61, 80
2, 38748, Note_on_c, 0, 64, 80
2, 38774, Note_on_c, 0, 64, 0
2, 38774, Note_on_c, 0, 61, 0
2, 38776, Note_on_c, 0, 57, 0
2, 38816, Note_on_c, 0, 69, 0
2, 38818, Note_on_c, 0, 45, 0
2, 38865, Note_on_c, 0, 45, 80
2, 38865, Note_on_c, 0, 54, 80
2, 38865, Note_on_c, 0, 62, 80
2, 38865, Note_on_c, 0, 66, 80
2, 38865, Note_on_c, 0, 69, 80
2, 38865, Note_on_c, 0, 74, 80
2, 38867, Note_on_c, 0, 76, 0
2, 38867, Note_on_c, 0, 81, 0
2, 38867, Note_on_c, 0, 73, 0
2, 38867, Note_on_c, 0, 55, 0
2, 38867, Note_on_c, 0, 38, 80
2, 38872, Note_on_c, 0, 33, 0
2, 38942, Note_on_c, 0, 61, 80
2, 38944, Note_on_c, 0, 62, 0
2, 38976, Note_on_c, 0, 60, 80
2, 38978, Note_on_c, 0, 61, 0
2, 39021, Note_on_c, 0, 60, 0
2, 39021, Note_on_c, 0, 69, 0
2, 39021, Note_on_c, 0, 74, 0
2, 39021, Note_on_c, 0, 66, 0
2, 39023, Note_on_c, 0, 38, 0
2, 39023, Note_on_c, 0, 54, 0
2, 39023, Note_on_c, 0, 45, 0
2, 39048, Control_c, 0, 64, 127
2, 39058, Note_on_c, 0, 59, 80
2, 39058, Note_on_c, 0, 65, 80
2, 39058, Note_on_c, 0, 73, 80
2, 39060, Note_on_c, 0, 37, 80
2, 39060, Note_on_c, 0, 44, 80
2, 39060, Note_on_c, 0, 53, 80
2, 39130, Note_on_c, 0, 37, 0
2, 39144, Control_c, 0, 64, 0
2, 39170, Note_on_c, 0, 44, 0
2, 39170, Note_on_c, 0, 53, 0
2, 39180, Note_on_c, 0, 37, 80
2, 39180, Note_on_c, 0, 49, 80
2, 39222, Note_on_c, 0, 39, 80
2, 39222, Note_on_c, 0, 51, 80
2, 39227, Note_on_c, 0, 49, 0
2, 39227, Note_on_c, 0, 37, 0
2, 39290, Note_on_c, 0, 65, 0
2, 39290, Note_on_c, 0, 59, 0
2, 39290, Note_on_c, 0, 73, 0
2, 39292, Note_on_c, 0, 51, 0
2, 39292, Note_on_c, 0, 39, 0
2, 39302, Note_on_c, 0, 41, 80
2, 39302, Note_on_c, 0, 53, 80
2, 39342, Note_on_c, 0, 42, 80
2, 39342, Note_on_c, 0, 54, 80
2, 39347, Note_on_c, 0, 53, 0
2, 39349, Note_on_c, 0, 41, 0
2, 39386, Note_on_c, 0, 54, 0
2, 39388, Note_on_c, 0, 42, 0
2, 39421, Note_on_c, 0, 73, 80
2, 39461, Note_on_c, 0, 66, 80
2, 39461, Note_on_c, 0, 70, 80
2, 39461, Note_on_c, 0, 78, 80
2, 39463, Note_on_c, 0, 73, 0
2, 39463, Note_on_c, 0, 54, 80
2, 39463, Note_on_c, 0, 58, 80
2, 39465, Note_on_c, 0, 49, 80
2, 39493, Note_on_c, 0, 58, 0
2, 39493, Note_on_c, 0, 54, 0
2, 39495, Note_on_c, 0, 49, 0
2, 39532, Note_on_c, 0, 78, 0
2, 39532, Note_on_c, 0, 66, 0
2, 39532, Note_on_c, 0, 70, 0
2, 39539, Note_on_c, 0, 73, 80
2, 39583, Note_on_c, 0, 75, 80
2, 39585, Note_on_c, 0, 73, 0
2, 39585, Note_on_c, 0, 35, 80
2, 39585, Note_on_c, 0, 47, 80
2, 39611, Note_on_c, 0, 75, 0
2, 39627, Note_on_c, 0, 47, 0
2, 39629, Note_on_c, 0, 35, 0
2, 39657, Note_on_c, 0, 66, 80
2, 39657, Note_on_c, 0, 71, 80
2, 39657, Note_on_c, 0, 78, 80
2, 39697, Note_on_c, 0, 51, 80
2, 39697, Note_on_c, 0, 54, 80
2, 39697, Note_on_c, 0, 59, 80
2, 39725, Note_on_c, 0, 59, 0
2, 39725, Note_on_c, 0, 51, 0
2, 39725, Note_on_c, 0, 54, 0
2, 39763, Note_on_c, 0, 66, 0
2, 39763, Note_on_c, 0, 78, 0
2, 39763, Note_on_c, 0, 71, 0
2, 39772, Note_on_c, 0, 75, 80
2, 39805, Control_c, 0, 64, 127
2, 39812, Note_on_c, 0, 66, 80
2, 39812, Note_on_c, 0, 70, 80
2, 39812, Note_on_c, 0, 78, 80
2, 39814, Note_on_c, 0, 75, 0
2, 39814, Note_on_c, 0, 42, 80
2, 39816, Note_on_c, 0, 30, 80
2, 39856, Note_on_c, 0, 30, 0
2, 39856, Note_on_c, 0, 42, 0
2, 39856, Control_c, 0, 64, 0
2, 39875, Note_on_c, 0, 78, 0
2, 39877, Note_on_c, 0, 70, 0
2, 39877, Note_on_c, 0, 66, 0
2, 39884, Note_on_c, 0, 73, 80
2, 39924, Note_on_c, 0, 75, 80
2, 39926, Note_on_c, 0, 73, 0
2, 39926, Note_on_c, 0, 49, 80
2, 39926, Note_on_c, 0, 54, 80
2, 39926, Note_on_c, 0, 58, 80
2, 39954, Note_on_c, 0, 58, 0
2, 39954, Note_on_c, 0, 54, 0
2, 39954, Note_on_c, 0, 75, 0
2, 39956, Note_on_c, 0, 49, 0
2, 40000, Note_on_c, 0, 66, 80
2, 40000, Note_on_c, 0, 78, 80
2, 40037, Note_on_c, 0, 46, 80
2, 40037, Note_on_c, 0, 58, 80
2, 40105, Note_on_c, 0, 78, 0
2, 40105, Note_on_c, 0, 66, 0
2, 40115, Note_on_c, 0, 73, 80
2, 40152, Note_on_c, 0, 66, 80
2, 40152, Note_on_c, 0, 78, 80
2, 40154, Note_on_c, 0, 73, 0
2, 40154, Note_on_c, 0, 57, 80
2, 40156, Note_on_c, 0, 58, 0
2, 40156, Note_on_c, 0, 45, 80
2, 40158, Note_on_c, 0, 46, 0
2, 40219, Note_on_c, 0, 78, 0
2, 40221, Note_on_c, 0, 66, 0
2, 40270, Note_on_c, 0, 44, 80
2, 40270, Note_on_c, 0, 56, 80
2, 40272, Note_on_c, 0, 45, 0
2, 40272, Note_on_c, 0, 57, 0
2, 40312, Note_on_c, 0, 44, 0
2, 40312, Note_on_c, 0, 56, 0
2, 40347, Note_on_c, 0, 71, 80
2, 40383, Note_on_c, 0, 75, 80
2, 40385, Note_on_c, 0, 71, 0
2, 40385, Note_on_c, 0, 51, 80
2, 40385, Note_on_c, 0, 56, 80
2, 40385, Note_on_c, 0, 59, 80
2, 40385, Note_on_c, 0, 63, 80
2, 40416, Note_on_c, 0, 59, 0
2, 40416, Note_on_c, 0, 56, 0
2, 40416, Note_on_c, 0, 51, 0
2, 40456, Note_on_c, 0, 75, 0
2, 40456, Note_on_c, 0, 63, 0
2, 40467, Note_on_c, 0, 68, 80
2, 40508, Note_on_c, 0, 68, 0
2, 40508, Note_on_c, 0, 70, 80
2, 40508, Note_on_c, 0, 46, 80
2, 40510, Note_on_c, 0, 34, 80
2, 40536, Note_on_c, 0, 70, 0
2, 40583, Note_on_c, 0, 75, 80
2, 40584, Note_on_c, 0, 63, 80
2, 40584, Note_on_c, 0, 67, 80
2, 40625, Note_on_c, 0, 51, 80
2, 40625, Note_on_c, 0, 55, 80
2, 40625, Note_on_c, 0, 58, 80
2, 40625, Note_on_c, 0, 61, 80
2, 40630, Note_on_c, 0, 46, 0
2, 40632, Note_on_c, 0, 34, 0
2, 40653, Note_on_c, 0, 61, 0
2, 40655, Note_on_c, 0, 51, 0
2, 40655, Note_on_c, 0, 58, 0
2, 40655, Note_on_c, 0, 55, 0
2, 40692, Note_on_c, 0, 63, 0
2, 40692, Note_on_c, 0, 67, 0
2, 40692, Note_on_c, 0, 75, 0
2, 40694, Control_c, 0, 64, 127
2, 40701, Note_on_c, 0, 70, 80
2, 40738, Note_on_c, 0, 75, 80
2, 40740, Note_on_c, 0, 63, 80
2, 40742, Note_on_c, 0, 70, 0
2, 40742, Note_on_c, 0, 35, 80
2, 40742, Note_on_c, 0, 47, 80
2, 40786, Control_c, 0, 64, 0
2, 40805, Note_on_c, 0, 63, 0
2, 40805, Note_on_c, 0, 75, 0
2, 40817, Note_on_c, 0, 68, 80
2, 40854, Note_on_c, 0, 71, 80
2, 40856, Note_on_c, 0, 68, 0
2, 40856, Note_on_c, 0, 51, 80
2, 40856, Note_on_c, 0, 56, 80
2, 40856, Note_on_c, 0, 59, 80
2, 40858, Note_on_c, 0, 47, 0
2, 40860, Note_on_c, 0, 35, 0
2, 40881, Note_on_c, 0, 71, 0
2, 40881, Note_on_c, 0, 59, 0
2, 40883, Note_on_c, 0, 51, 0
2, 40883, Note_on_c, 0, 56, 0
2, 40930, Note_on_c, 0, 75, 80
2, 40932, Note_on_c, 0, 63, 80
2, 40969, Note_on_c, 0, 56, 80
2, 40971, Note_on_c, 0, 44, 80
2, 41035, Note_on_c, 0, 56, 0
2, 41035, Note_on_c, 0, 75, 0
2, 41035, Note_on_c, 0, 63, 0
2, 41037, Note_on_c, 0, 44, 0
2, 41043, Note_on_c, 0, 68, 80
2, 41084, Note_on_c, 0, 57, 80
2, 41084, Note_on_c, 0, 60, 80
2, 41084, Note_on_c, 0, 66, 80
2, 41084, Note_on_c, 0, 74, 80
2, 41086, Note_on_c, 0, 68, 0
2, 41086, Note_on_c, 0, 45, 80
2, 41196, Note_on_c, 0, 58, 80
2, 41196, Note_on_c, 0, 61, 80
2, 41196, Note_on_c, 0, 73, 80
2, 41198, Note_on_c, 0, 66, 0
2, 41198, Note_on_c, 0, 74, 0
2, 41198, Note_on_c, 0, 60, 0
2, 41198, Note_on_c, 0, 46, 80
2, 41200, Note_on_c, 0, 57, 0
2, 41200, Note_on_c, 0, 45, 0
2, 41235, Note_on_c, 0, 58, 0
2, 41235, Note_on_c, 0, 46, 0
2, 41258, Note_on_c, 0, 73, 0
2, 41258, Note_on_c, 0, 61, 0
2, 41268, Note_on_c, 0, 66, 80
2, 41308, Note_on_c, 0, 54, 80
2, 41308, Note_on_c, 0, 58, 80
2, 41308, Note_on_c, 0, 70, 80
2, 41310, Note_on_c, 0, 66, 0
2, 41310, Note_on_c, 0, 49, 80
2, 41336, Note_on_c, 0, 54, 0
2, 41336, Note_on_c, 0, 70, 0
2, 41336, Note_on_c, 0, 58, 0
2, 41338, Note_on_c, 0, 49, 0
2, 41387, Note_on_c, 0, 63, 80
2, 41387, Note_on_c, 0, 67, 80
2, 41387, Note_on_c, 0, 75, 80
2, 41427, Note_on_c, 0, 39, 80
2, 41427, Note_on_c, 0, 51, 80
2, 41470, Note_on_c, 0, 51, 0
2, 41470, Note_on_c, 0, 39, 0
2, 41493, Note_on_c, 0, 75, 0
2, 41493, Note_on_c, 0, 67, 0
2, 41495, Note_on_c, 0, 63, 0
2, 41501, Note_on_c, 0, 70, 80
2, 41542, Note_on_c, 0, 51, 80
2, 41542, Note_on_c, 0, 55, 80
2, 41542, Note_on_c, 0, 58, 80
2, 41542, Note_on_c, 0, 61, 80
2, 41542, Note_on_c, 0, 67, 80
2, 41544, Note_on_c, 0, 70, 0
2, 41571, Note_on_c, 0, 61, 0
2, 41573, Note_on_c, 0, 58, 0
2, 41573, Note_on_c, 0, 51, 0
2, 41573, Note_on_c, 0, 55, 0
2, 41614, Note_on_c, 0, 67, 0
2, 41623, Note_on_c, 0, 63, 80
2, 41656, Control_c, 0, 64, 127
2, 41663, Note_on_c, 0, 60, 80
2, 41664, Note_on_c, 0, 63, 0
2, 41664, Note_on_c, 0, 44, 80
2, 41666, Note_on_c, 0, 32, 80
2, 41709, Note_on_c, 0, 44, 0
2, 41711, Note_on_c, 0, 32, 0
2, 41712, Control_c, 0, 64, 0
2, 41743, Note_on_c, 0, 66, 80
2, 41784, Note_on_c, 0, 56, 80
2, 41784, Note_on_c, 0, 68, 80
2, 41785, Note_on_c, 0, 66, 0
2, 41785, Note_on_c, 0, 51, 80
2, 41785, Note_on_c, 0, 54, 80
2, 41813, Note_on_c, 0, 54, 0
2, 41813, Note_on_c, 0, 60, 0
2, 41813, Note_on_c, 0, 68, 0
2, 41813, Note_on_c, 0, 56, 0
2, 41813, Note_on_c, 0, 51, 0
2, 41862, Note_on_c, 0, 70, 80
2, 41864, Note_on_c, 0, 60, 80
2, 41864, Note_on_c, 0, 66, 80
2, 41906, Note_on_c, 0, 44, 80
2, 41908, Note_on_c, 0, 32, 80
2, 41949, Note_on_c, 0, 32, 0
2, 41949, Note_on_c, 0, 44, 0
2, 41972, Note_on_c, 0, 70, 0
2, 41972, Note_on_c, 0, 60, 0
2, 41972, Note_on_c, 0, 66, 0
2, 41981, Note_on_c, 0, 69, 80
2, 42022, Note_on_c, 0, 66, 80
2, 42022, Note_on_c, 0, 70, 80
2, 42024, Note_on_c, 0, 51, 80
2, 42024, Note_on_c, 0, 54, 80
2, 42024, Note_on_c, 0, 56, 80
2, 42024, Note_on_c, 0, 60, 80
2, 42025, Note_on_c, 0, 69, 0
2, 42051, Note_on_c, 0, 54, 0
2, 42051, Note_on_c, 0, 51, 0
2, 42051, Note_on_c, 0, 56, 0
2, 42100, Note_on_c, 0, 66, 0
2, 42100, Note_on_c, 0, 70, 0
2, 42102, Note_on_c, 0, 60, 0
2, 42143, Note_on_c, 0, 37, 80
2, 42143, Note_on_c, 0, 49, 80
2, 42222, Note_on_c, 0, 59, 80
2, 42222, Note_on_c, 0, 65, 80
2, 42263, Note_on_c, 0, 50, 80
2, 42264, Note_on_c, 0, 38, 80
2, 42266, Note_on_c, 0, 49, 0
2, 42266, Note_on_c, 0, 37, 0
2, 42330, Note_on_c, 0, 65, 0
2, 42330, Note_on_c, 0, 59, 0
2, 42339, Note_on_c, 0, 71, 80
2, 42372, Note_on_c, 0, 71, 0
2, 42384, Note_on_c, 0, 49, 80
2, 42385, Note_on_c, 0, 37, 80
2, 42387, Note_on_c, 0, 38, 0
2, 42387, Note_on_c, 0, 50, 0
2, 42457, Note_on_c, 0, 59, 80
2, 42457, Note_on_c, 0, 65, 80
2, 42498, Note_on_c, 0, 50, 80
2, 42500, Note_on_c, 0, 38, 80
2, 42502, Note_on_c, 0, 49, 0
2, 42504, Note_on_c, 0, 37, 0
2, 42562, Note_on_c, 0, 65, 0
2, 42562, Note_on_c, 0, 59, 0
2, 42572, Note_on_c, 0, 71, 80
2, 42602, Note_on_c, 0, 71, 0
2, 42614, Note_on_c, 0, 37, 80
2, 42614, Note_on_c, 0, 49, 80
2, 42616, Note_on_c, 0, 38, 0
2, 42616, Note_on_c, 0, 50, 0
2, 42684, Note_on_c, 0, 37, 0
2, 42684, Note_on_c, 0, 49, 0
2, 42689, Note_on_c, 0, 61, 80
2, 42689, Note_on_c, 0, 73, 80
2, 42720, Note_on_c, 0, 73, 0
2, 42720, Note_on_c, 0, 61, 0
2, 42731, Note_on_c, 0, 38, 80
2, 42731, Note_on_c, 0, 50, 80
2, 42799, Note_on_c, 0, 38, 0
2, 42806, Note_on_c, 0, 74, 80
2, 42808, Note_on_c, 0, 62, 80
2, 42813, Note_on_c, 0, 50, 0
2, 42834, Note_on_c, 0, 74, 0
2, 42836, Note_on_c, 0, 62, 0
2, 42845, Note_on_c, 0, 51, 80
2, 42847, Note_on_c, 0, 39, 80
2, 42915, Note_on_c, 0, 39, 0
2, 42915, Note_on_c, 0, 51, 0
2, 42922, Note_on_c, 0, 75, 80
2, 42924, Note_on_c, 0, 63, 80
2, 42955, Note_on_c, 0, 63, 0
2, 42955, Note_on_c, 0, 75, 0
2, 42966, Note_on_c, 0, 41, 80
2, 42966, Note_on_c, 0, 53, 80
2, 43034, Note_on_c, 0, 53, 0
2, 43036, Note_on_c, 0, 41, 0
2, 43041, Note_on_c, 0, 65, 80
2, 43041, Note_on_c, 0, 77, 80
2, 43072, Note_on_c, 0, 77, 0
2, 43072, Note_on_c, 0, 65, 0
2, 43083, Note_on_c, 0, 42, 80
2, 43083, Note_on_c, 0, 54, 80
2, 43124, Note_on_c, 0, 54, 0
2, 43126, Note_on_c, 0, 42, 0
2, 43158, Note_on_c, 0, 85, 80
2, 43194, Note_on_c, 0, 90, 80
2, 43196, Note_on_c, 0, 78, 80
2, 43196, Note_on_c, 0, 82, 80
2, 43198, Note_on_c, 0, 49, 80
2, 43198, Note_on_c, 0, 54, 80
2, 43198, Note_on_c, 0, 58, 80
2, 43200, Note_on_c, 0, 85, 0
2, 43225, Note_on_c, 0, 54, 0
2, 43225, Note_on_c, 0, 58, 0
2, 43227, Note_on_c, 0, 49, 0
2, 43265, Note_on_c, 0, 90, 0
2, 43265, Note_on_c, 0, 78, 0
2, 43265, Note_on_c, 0, 82, 0
2, 43276, Note_on_c, 0, 85, 80
2, 43314, Note_on_c, 0, 87, 80
2, 43319, Note_on_c, 0, 85, 0
2, 43319, Note_on_c, 0, 47, 80
2, 43320, Note_on_c, 0, 35, 80
2, 43344, Note_on_c, 0, 87, 0
2, 43350, Control_c, 0, 64, 127
2, 43362, Note_on_c, 0, 35, 0
2, 43362, Note_on_c, 0, 47, 0
2, 43390, Note_on_c, 0, 90, 80
2, 43392, Note_on_c, 0, 78, 80
2, 43392, Note_on_c, 0, 83, 80
2, 43401, Control_c, 0, 64, 0
2, 43434, Note_on_c, 0, 51, 80
2, 43434, Note_on_c, 0, 54, 80
2, 43434, Note_on_c, 0, 59, 80
2, 43460, Note_on_c, 0, 59, 0
2, 43460, Note_on_c, 0, 51, 0
2, 43460, Note_on_c, 0, 54, 0
2, 43495, Note_on_c, 0, 90, 0
2, 43497, Note_on_c, 0, 83, 0
2, 43497, Note_on_c, 0, 78, 0
2, 43509, Note_on_c, 0, 87, 80
2, 43544, Note_on_c, 0, 90, 80
2, 43546, Note_on_c, 0, 78, 80
2, 43546, Note_on_c, 0, 82, 80
2, 43548, Note_on_c, 0, 87, 0
2, 43548, Note_on_c, 0, 42, 80
2, 43548, Note_on_c, 0, 54, 80
2, 43590, Note_on_c, 0, 54, 0
2, 43592, Note_on_c, 0, 42, 0
2, 43613, Note_on_c, 0, 90, 0
2, 43615, Note_on_c, 0, 78, 0
2, 43615, Note_on_c, 0, 82, 0
2, 43625, Note_on_c, 0, 85, 80
2, 43662, Note_on_c, 0, 87, 80
2, 43664, Note_on_c, 0, 85, 0
2, 43664, Note_on_c, 0, 58, 80
2, 43666, Note_on_c, 0, 49, 80
2, 43666, Note_on_c, 0, 54, 80
2, 43692, Note_on_c, 0, 87, 0
2, 43694, Note_on_c, 0, 58, 0
2, 43694, Note_on_c, 0, 49, 0
2, 43694, Note_on_c, 0, 54, 0
2, 43738, Note_on_c, 0, 90, 80
2, 43740, Note_on_c, 0, 78, 80
2, 43740, Note_on_c, 0, 82, 80
2, 43740, Note_on_c, 0, 85, 80
2, 43780, Note_on_c, 0, 58, 80
2, 43782, Note_on_c, 0, 46, 80
2, 43805, Note_on_c, 0, 85, 0
2, 43843, Note_on_c, 0, 90, 0
2, 43845, Note_on_c, 0, 58, 0
2, 43845, Note_on_c, 0, 78, 0
2, 43845, Note_on_c, 0, 82, 0
2, 43847, Note_on_c, 0, 46, 0
2, 43851, Note_on_c, 0, 85, 80
2, 43887, Note_on_c, 0, 90, 80
2, 43889, Note_on_c, 0, 78, 80
2, 43891, Note_on_c, 0, 85, 0
2, 43891, Note_on_c, 0, 45, 80
2, 43891, Note_on_c, 0, 57, 80
2, 43943, Note_on_c, 0, 78, 0
2, 43954, Note_on_c, 0, 90, 0
2, 44006, Note_on_c, 0, 44, 80
2, 44006, Note_on_c, 0, 56, 80
2, 44008, Note_on_c, 0, 57, 0
2, 44010, Note_on_c, 0, 45, 0
2, 44047, Note_on_c, 0, 56, 0
2, 44049, Note_on_c, 0, 44, 0
2, 44080, Note_on_c, 0, 83, 80
2, 44117, Note_on_c, 0, 80, 80
2, 44117, Note_on_c, 0, 87, 80
2, 44119, Note_on_c, 0, 71, 80
2, 44121, Note_on_c, 0, 83, 0
2, 44121, Note_on_c, 0, 51, 80
2, 44121, Note_on_c, 0, 56, 80
2, 44121, Note_on_c, 0, 59, 80
2, 44147, Note_on_c, 0, 59, 0
2, 44147, Note_on_c, 0, 80, 0
2, 44149, Note_on_c, 0, 51, 0
2, 44149, Note_on_c, 0, 56, 0
2, 44170, Note_on_c, 0, 87, 0
2, 44186, Note_on_c, 0, 71, 0
2, 44193, Note_on_c, 0, 80, 80
2, 44233, Note_on_c, 0, 80, 0
2, 44233, Note_on_c, 0, 82, 80
2, 44235, Note_on_c, 0, 34, 80
2, 44235, Note_on_c, 0, 46, 80
2, 44261, Note_on_c, 0, 82, 0
2, 44304, Note_on_c, 0, 87, 80
2, 44308, Note_on_c, 0, 73, 80
2, 44308, Note_on_c, 0, 79, 80
2, 44349, Note_on_c, 0, 58, 80
2, 44349, Note_on_c, 0, 61, 80
2, 44351, Note_on_c, 0, 46, 0
2, 44351, Note_on_c, 0, 51, 80
2, 44351, Note_on_c, 0, 55, 80
2, 44352, Note_on_c, 0, 34, 0
2, 44376, Note_on_c, 0, 55, 0
2, 44376, Note_on_c, 0, 58, 0
2, 44376, Note_on_c, 0, 61, 0
2, 44377, Note_on_c, 0, 51, 0
2, 44400, Note_on_c, 0, 87, 0
2, 44415, Note_on_c, 0, 73, 0
2, 44415, Note_on_c, 0, 79, 0
2, 44426, Note_on_c, 0, 82, 80
2, 44467, Note_on_c, 0, 71, 80
2, 44467, Note_on_c, 0, 80, 80
2, 44467, Note_on_c, 0, 87, 80
2, 44472, Note_on_c, 0, 82, 0
2, 44472, Note_on_c, 0, 35, 80
2, 44472, Note_on_c, 0, 47, 80
2, 44495, Note_on_c, 0, 80, 0
2, 44522, Note_on_c, 0, 87, 0
2, 44539, Note_on_c, 0, 71, 0
2, 44545, Note_on_c, 0, 80, 80
2, 44583, Note_on_c, 0, 83, 80
2, 44585, Note_on_c, 0, 56, 80
2, 44585, Note_on_c, 0, 59, 80
2, 44587, Note_on_c, 0, 80, 0
2, 44587, Note_on_c, 0, 51, 80
2, 44593, Note_on_c, 0, 47, 0
2, 44593, Note_on_c, 0, 35, 0
2, 44615, Note_on_c, 0, 83, 0
2, 44616, Note_on_c, 0, 59, 0
2, 44616, Note_on_c, 0, 51, 0
2, 44616, Note_on_c, 0, 56, 0
2, 44661, Note_on_c, 0, 87, 80
2, 44663, Note_on_c, 0, 80, 80
2, 44664, Note_on_c, 0, 71, 80
2, 44697, Control_c, 0, 64, 127
2, 44707, Note_on_c, 0, 44, 80
2, 44707, Note_on_c, 0, 56, 80
2, 44733, Note_on_c, 0, 80, 0
2, 44773, Note_on_c, 0, 87, 0
2, 44775, Note_on_c, 0, 56, 0
2, 44775, Note_on_c, 0, 71, 0
2, 44777, Note_on_c, 0, 44, 0
2, 44784, Note_on_c, 0, 80, 80
2, 44793, Control_c, 0, 64, 0
2, 44821, Note_on_c, 0, 86, 80
2, 44823, Note_on_c, 0, 72, 80
2, 44823, Note_on_c, 0, 78, 80
2, 44825, Note_on_c, 0, 80, 0
2, 44825, Note_on_c, 0, 57, 80
2, 44827, Note_on_c, 0, 45, 80
2, 44939, Note_on_c, 0, 73, 80
2, 44939, Note_on_c, 0, 85, 80
2, 44941, Note_on_c, 0, 86, 0
2, 44941, Note_on_c, 0, 78, 0
2, 44941, Note_on_c, 0, 72, 0
2, 44941, Note_on_c, 0, 46, 80
2, 44941, Note_on_c, 0, 58, 80
2, 44943, Note_on_c, 0, 57, 0
2, 44945, Note_on_c, 0, 45, 0
2, 44982, Note_on_c, 0, 46, 0
2, 44982, Note_on_c, 0, 58, 0
2, 45005, Note_on_c, 0, 85, 0
2, 45005, Note_on_c, 0, 73, 0
2, 45015, Note_on_c, 0, 78, 80
2, 45055, Note_on_c, 0, 82, 80
2, 45057, Note_on_c, 0, 78, 0
2, 45057, Note_on_c, 0, 49, 80
2, 45057, Note_on_c, 0, 54, 80
2, 45057, Note_on_c, 0, 58, 80
2, 45085, Note_on_c, 0, 82, 0
2, 45087, Note_on_c, 0, 58, 0
2, 45087, Note_on_c, 0, 54, 0
2, 45089, Note_on_c, 0, 49, 0
2, 45129, Control_c, 0, 64, 127
2, 45134, Note_on_c, 0, 79, 80
2, 45134, Note_on_c, 0, 87, 80
2, 45136, Note_on_c, 0, 73, 80
2, 45176, Note_on_c, 0, 39, 80
2, 45176, Note_on_c, 0, 51, 80
2, 45218, Note_on_c, 0, 51, 0
2, 45220, Note_on_c, 0, 39, 0
2, 45220, Control_c, 0, 64, 0
2, 45227, Note_on_c, 0, 87, 0
2, 45239, Note_on_c, 0, 73, 0
2, 45239, Note_on_c, 0, 79, 0
2, 45250, Note_on_c, 0, 82, 80
2, 45290, Note_on_c, 0, 51, 80
2, 45290, Note_on_c, 0, 55, 80
2, 45290, Note_on_c, 0, 58, 80
2, 45290, Note_on_c, 0, 61, 80
2, 45290, Note_on_c, 0, 79, 80
2, 45292, Note_on_c, 0, 82, 0
2, 45318, Note_on_c, 0, 61, 0
2, 45318, Note_on_c, 0, 58, 0
2, 45318, Note_on_c, 0, 55, 0
2, 45320, Note_on_c, 0, 51, 0
2, 45356, Note_on_c, 0, 79, 0
2, 45365, Note_on_c, 0, 75, 80
2, 45401, Control_c, 0, 64, 127
2, 45406, Note_on_c, 0, 72, 80
2, 45408, Note_on_c, 0, 32, 80
2, 45408, Note_on_c, 0, 44, 80
2, 45409, Note_on_c, 0, 75, 0
2, 45450, Note_on_c, 0, 44, 0
2, 45452, Note_on_c, 0, 32, 0
2, 45482, Note_on_c, 0, 78, 80
2, 45489, Control_c, 0, 64, 0
2, 45522, Note_on_c, 0, 60, 80
2, 45522, Note_on_c, 0, 80, 80
2, 45524, Note_on_c, 0, 78, 0
2, 45524, Note_on_c, 0, 54, 80
2, 45524, Note_on_c, 0, 56, 80
2, 45526, Note_on_c, 0, 51, 80
2, 45552, Note_on_c, 0, 56, 0
2, 45552, Note_on_c, 0, 54, 0
2, 45552, Note_on_c, 0, 72, 0
2, 45552, Note_on_c, 0, 80, 0
2, 45552, Note_on_c, 0, 60, 0
2, 45553, Note_on_c, 0, 51, 0
2, 45600, Note_on_c, 0, 72, 80
2, 45600, Note_on_c, 0, 78, 80
2, 45600, Note_on_c, 0, 82, 80
2, 45602, Note_on_c, 0, 51, 80
2, 45604, Note_on_c, 0, 39, 80
2, 45668, Note_on_c, 0, 78, 0
2, 45705, Note_on_c, 0, 72, 0
2, 45705, Note_on_c, 0, 82, 0
2, 45707, Note_on_c, 0, 51, 0
2, 45707, Note_on_c, 0, 39, 0
2, 45714, Note_on_c, 0, 78, 80
2, 45716, Note_on_c, 0, 50, 80
2, 45718, Note_on_c, 0, 38, 80
2, 45750, Note_on_c, 0, 71, 80
2, 45750, Note_on_c, 0, 77, 80
2, 45750, Note_on_c, 0, 80, 80
2, 45755, Note_on_c, 0, 78, 0
2, 45755, Note_on_c, 0, 37, 80
2, 45755, Note_on_c, 0, 49, 80
2, 45757, Note_on_c, 0, 50, 0
2, 45759, Note_on_c, 0, 38, 0
2, 45824, Note_on_c, 0, 37, 0
2, 45824, Note_on_c, 0, 49, 0
2, 45868, Note_on_c, 0, 70, 80
2, 45868, Note_on_c, 0, 73, 80
2, 45868, Note_on_c, 0, 78, 80
2, 45870, Note_on_c, 0, 80, 0
2, 45870, Note_on_c, 0, 58, 80
2, 45872, Note_on_c, 0, 71, 0
2, 45872, Note_on_c, 0, 77, 0
2, 45872, Note_on_c, 0, 42, 80
2, 45872, Note_on_c, 0, 49, 80
2, 45936, Note_on_c, 0, 73, 0
2, 45936, Note_on_c, 0, 78, 0
2, 45937, Note_on_c, 0, 58, 0
2, 45937, Note_on_c, 0, 70, 0
2, 45937, Note_on_c, 0, 49, 0
2, 45939, Note_on_c, 0, 42, 0
2, 45984, Note_on_c, 0, 73, 80
2, 45985, Note_on_c, 0, 61, 80
2, 45987, Note_on_c, 0, 49, 80
2, 46010, Note_on_c, 0, 73, 0
2, 46012, Note_on_c, 0, 49, 0
2, 46012, Note_on_c, 0, 61, 0
2, 46064, Note_on_c, 0, 63, 80
2, 46064, Note_on_c, 0, 75, 80
2, 46066, Note_on_c, 0, 51, 80
2, 46172, Note_on_c, 0, 75, 0
2, 46174, Note_on_c, 0, 51, 0
2, 46174, Note_on_c, 0, 63, 0
2, 46183, Note_on_c, 0, 49, 80
2, 46183, Note_on_c, 0, 61, 80
2, 46183, Note_on_c, 0, 73, 80
2, 46219, Note_on_c, 0, 77, 80
2, 46221, Note_on_c, 0, 59, 80
2, 46221, Note_on_c, 0, 65, 80
2, 46221, Note_on_c, 0, 71, 80
2, 46223, Note_on_c, 0, 37, 80
2, 46223, Note_on_c, 0, 53, 80
2, 46224, Note_on_c, 0, 61, 0
2, 46226, Note_on_c, 0, 49, 0
2, 46287, Note_on_c, 0, 73, 0
2, 46334, Note_on_c, 0, 66, 80
2, 46334, Note_on_c, 0, 70, 80
2, 46334, Note_on_c, 0, 73, 80
2, 46334, Note_on_c, 0, 78, 80
2, 46336, Note_on_c, 0, 77, 0
2, 46336, Note_on_c, 0, 71, 0
2, 46336, Note_on_c, 0, 58, 80
2, 46338, Note_on_c, 0, 59, 0
2, 46338, Note_on_c, 0, 65, 0
2, 46338, Note_on_c, 0, 42, 80
2, 46338, Note_on_c, 0, 49, 80
2, 46340, Note_on_c, 0, 53, 0
2, 46340, Note_on_c, 0, 37, 0
2, 46372, Note_on_c, 0, 78, 0
2, 46374, Note_on_c, 0, 73, 0
2, 46374, Note_on_c, 0, 70, 0
2, 46374, Note_on_c, 0, 66, 0
2, 46376, Note_on_c, 0, 49, 0
2, 46376, Note_on_c, 0, 42, 0
2, 46376, Note_on_c, 0, 58, 0
2, 46526, Note_on_c, 0, 85, 80
2, 46537, Note_on_c, 0, 87, 80
2, 46549, Note_on_c, 0, 89, 80
2, 46554, Note_on_c, 0, 87, 0
2, 46563, Note_on_c, 0, 78, 80
2, 46563, Note_on_c, 0, 90, 80
2, 46565, Note_on_c, 0, 89, 0
2, 46565, Note_on_c, 0, 82, 80
2, 46567, Note_on_c, 0, 30, 80
2, 46567, Note_on_c, 0, 42, 80
2, 46605, Note_on_c, 0, 85, 0
2, 46605, Note_on_c, 0, 90, 0
2, 46605, Note_on_c, 0, 78, 0
2, 46607, Note_on_c, 0, 82, 0
2, 46608, Note_on_c, 0, 30, 0
2, 46608, Note_on_c, 0, 42, 0
2, 46799, Note_on_c, 0, 56, 80
2, 46799, Note_on_c, 0, 71, 80
2, 46799, Note_on_c, 0, 83, 80
2, 46800, Note_on_c, 0, 44, 80
2, 46826, Note_on_c, 0, 83, 0
2, 46828, Note_on_c, 0, 71, 0
2, 46843, Note_on_c, 0, 56, 0
2, 46843, Note_on_c, 0, 44, 0
2, 46871, Note_on_c, 0, 89, 80
2, 46872, Note_on_c, 0, 77, 80
2, 46872, Note_on_c, 0, 85, 80
2, 46913, Note_on_c, 0, 49, 80
2, 46913, Note_on_c, 0, 53, 80
2, 46913, Note_on_c, 0, 59, 80
2, 46941, Note_on_c, 0, 59, 0
2, 46943, Note_on_c, 0, 49, 0
2, 46943, Note_on_c, 0, 53, 0
2, 46964, Note_on_c, 0, 85, 0
2, 46978, Note_on_c, 0, 77, 0
2, 46978, Note_on_c, 0, 89, 0
2, 46988, Note_on_c, 0, 80, 80
2, 46990, Note_on_c, 0, 68, 80
2, 47025, Note_on_c, 0, 75, 80
2, 47025, Note_on_c, 0, 83, 80
2, 47025, Note_on_c, 0, 87, 80
2, 47027, Note_on_c, 0, 80, 0
2, 47029, Note_on_c, 0, 68, 0
2, 47029, Note_on_c, 0, 37, 80
2, 47029, Note_on_c, 0, 49, 80
2, 47069, Note_on_c, 0, 49, 0
2, 47071, Note_on_c, 0, 37, 0
2, 47088, Note_on_c, 0, 87, 0
2, 47088, Note_on_c, 0, 83, 0
2, 47089, Note_on_c, 0, 75, 0
2, 47134, Note_on_c, 0, 77, 80
2, 47136, Note_on_c, 0, 65, 80
2, 47137, Note_on_c, 0, 49, 80
2, 47137, Note_on_c, 0, 53, 80
2, 47137, Note_on_c, 0, 59, 80
2, 47163, Note_on_c, 0, 77, 0
2, 47165, Note_on_c, 0, 53, 0
2, 47165, Note_on_c, 0, 65, 0
2, 47165, Note_on_c, 0, 59, 0
2, 47167, Note_on_c, 0, 49, 0
2, 47211, Note_on_c, 0, 80, 80
2, 47213, Note_on_c, 0, 71, 80
2, 47213, Note_on_c, 0, 83, 80
2, 47246, Control_c, 0, 64, 127
2, 47256, Note_on_c, 0, 32, 80
2, 47256, Note_on_c, 0, 44, 80
2, 47298, Note_on_c, 0, 44, 0
2, 47300, Note_on_c, 0, 32, 0
2, 47319, Note_on_c, 0, 83, 0
2, 47319, Note_on_c, 0, 80, 0
2, 47321, Note_on_c, 0, 71, 0
2, 47330, Note_on_c, 0, 75, 80
2, 47337, Control_c, 0, 64, 0
2, 47370, Note_on_c, 0, 59, 80
2, 47372, Note_on_c, 0, 49, 80
2, 47372, Note_on_c, 0, 53, 80
2, 47398, Note_on_c, 0, 59, 0
2, 47400, Note_on_c, 0, 53, 0
2, 47400, Note_on_c, 0, 49, 0
2, 47447, Note_on_c, 0, 77, 80
2, 47447, Note_on_c, 0, 80, 80
2, 47451, Note_on_c, 0, 75, 0
2, 47489, Note_on_c, 0, 37, 80
2, 47489, Note_on_c, 0, 49, 80
2, 47557, Note_on_c, 0, 49, 0
2, 47557, Note_on_c, 0, 77, 0
2, 47557, Note_on_c, 0, 80, 0
2, 47559, Note_on_c, 0, 37, 0
2, 47566, Note_on_c, 0, 73, 80
2, 47606, Note_on_c, 0, 75, 80
2, 47608, Note_on_c, 0, 47, 80
2, 47610, Note_on_c, 0, 73, 0
2, 47610, Note_on_c, 0, 35, 80
2, 47678, Note_on_c, 0, 75, 0
2, 47680, Note_on_c, 0, 47, 0
2, 47682, Note_on_c, 0, 35, 0
2, 47687, Note_on_c, 0, 77, 80
2, 47729, Note_on_c, 0, 46, 80
2, 47729, Note_on_c, 0, 70, 80
2, 47729, Note_on_c, 0, 73, 80
2, 47729, Note_on_c, 0, 78, 80
2, 47731, Note_on_c, 0, 77, 0
2, 47731, Note_on_c, 0, 34, 80
2, 47773, Note_on_c, 0, 34, 0
2, 47773, Note_on_c, 0, 46, 0
2, 47794, Note_on_c, 0, 73, 0
2, 47794, Note_on_c, 0, 70, 0
2, 47794, Note_on_c, 0, 78, 0
2, 47846, Note_on_c, 0, 80, 80
2, 47848, Note_on_c, 0, 54, 80
2, 47848, Note_on_c, 0, 58, 80
2, 47850, Note_on_c, 0, 49, 80
2, 47876, Note_on_c, 0, 80, 0
2, 47878, Note_on_c, 0, 54, 0
2, 47878, Note_on_c, 0, 58, 0
2, 47880, Note_on_c, 0, 49, 0
2, 47927, Note_on_c, 0, 73, 80
2, 47927, Note_on_c, 0, 82, 80
2, 47959, Control_c, 0, 64, 127
2, 47966, Note_on_c, 0, 37, 80
2, 47968, Note_on_c, 0, 25, 80
2, 48012, Note_on_c, 0, 25, 0
2, 48012, Note_on_c, 0, 37, 0
2, 48031, Note_on_c, 0, 73, 0
2, 48033, Note_on_c, 0, 82, 0
2, 48040, Note_on_c, 0, 78, 80
2, 48047, Control_c, 0, 64, 0
2, 48082, Note_on_c, 0, 73, 80
2, 48082, Note_on_c, 0, 82, 80
2, 48084, Note_on_c, 0, 78, 0
2, 48084, Note_on_c, 0, 49, 80
2, 48084, Note_on_c, 0, 54, 80
2, 48084, Note_on_c, 0, 58, 80
2, 48110, Note_on_c, 0, 58, 0
2, 48110, Note_on_c, 0, 54, 0
2, 48112, Note_on_c, 0, 49, 0
2, 48196, Note_on_c, 0, 42, 80
2, 48198, Note_on_c, 0, 30, 80
2, 48236, Note_on_c, 0, 73, 0
2, 48238, Note_on_c, 0, 82, 0
2, 48238, Note_on_c, 0, 42, 0
2, 48240, Note_on_c, 0, 30, 0
2, 48267, Note_on_c, 0, 85, 80
2, 48269, Note_on_c, 0, 78, 80
2, 48310, Note_on_c, 0, 49, 80
2, 48310, Note_on_c, 0, 54, 80
2, 48310, Note_on_c, 0, 58, 80
2, 48336, Note_on_c, 0, 58, 0
2, 48336, Note_on_c, 0, 49, 0
2, 48336, Note_on_c, 0, 54, 0
2, 48359, Note_on_c, 0, 78, 0
2, 48359, Note_on_c, 0, 85, 0
2, 48384, Note_on_c, 0, 82, 80
2, 48425, Note_on_c, 0, 42, 80
2, 48425, Note_on_c, 0, 54, 80
2, 48425, Note_on_c, 0, 77, 80
2, 48425, Note_on_c, 0, 85, 80
2, 48427, Note_on_c, 0, 82, 0
2, 48490, Note_on_c, 0, 85, 0
2, 48492, Note_on_c, 0, 77, 0
2, 48492, Note_on_c, 0, 54, 0
2, 48494, Note_on_c, 0, 42, 0
2, 48536, Note_on_c, 0, 85, 80
2, 48538, Note_on_c, 0, 43, 80
2, 48538, Note_on_c, 0, 55, 80
2, 48538, Note_on_c, 0, 75, 80
2, 48538, Note_on_c, 0, 82, 80
2, 48608, Note_on_c, 0, 82, 0
2, 48608, Note_on_c, 0, 85, 0
2, 48608, Note_on_c, 0, 75, 0
2, 48660, Note_on_c, 0, 56, 80
2, 48660, Note_on_c, 0, 71, 80
2, 48660, Note_on_c, 0, 83, 80
2, 48662, Note_on_c, 0, 44, 80
2, 48664, Note_on_c, 0, 55, 0
2, 48664, Note_on_c, 0, 43, 0
2, 48687, Note_on_c, 0, 83, 0
2, 48689, Note_on_c, 0, 71, 0
2, 48705, Note_on_c, 0, 44, 0
2, 48705, Note_on_c, 0, 56, 0
2, 48736, Note_on_c, 0, 77, 80
2, 48736, Note_on_c, 0, 85, 80
2, 48736, Note_on_c, 0, 89, 80
2, 48778, Note_on_c, 0, 59, 80
2, 48780, Note_on_c, 0, 49, 80
2, 48780, Note_on_c, 0, 53, 80
2, 48803, Note_on_c, 0, 53, 0
2, 48803, Note_on_c, 0, 59, 0
2, 48805, Note_on_c, 0, 49, 0
2, 48840, Note_on_c, 0, 89, 0
2, 48840, Note_on_c, 0, 85, 0
2, 48842, Note_on_c, 0, 77, 0
2, 48849, Note_on_c, 0, 80, 80
2, 48851, Note_on_c, 0, 68, 80
2, 48888, Note_on_c, 0, 75, 80
2, 48888, Note_on_c, 0, 83, 80
2, 48888, Note_on_c, 0, 87, 80
2, 48890, Note_on_c, 0, 80, 0
2, 48892, Note_on_c, 0, 68, 0
2, 48892, Note_on_c, 0, 37, 80
2, 48892, Note_on_c, 0, 49, 80
2, 48933, Note_on_c, 0, 49, 0
2, 48933, Note_on_c, 0, 37, 0
2, 48956, Note_on_c, 0, 87, 0
2, 48956, Note_on_c, 0, 75, 0
2, 48956, Note_on_c, 0, 83, 0
2, 49005, Note_on_c, 0, 77, 80
2, 49007, Note_on_c, 0, 65, 80
2, 49008, Note_on_c, 0, 49, 80
2, 49008, Note_on_c, 0, 53, 80
2, 49008, Note_on_c, 0, 59, 80
2, 49034, Note_on_c, 0, 59, 0
2, 49034, Note_on_c, 0, 77, 0
2, 49034, Note_on_c, 0, 65, 0
2, 49036, Note_on_c, 0, 53, 0
2, 49038, Note_on_c, 0, 49, 0
2, 49085, Note_on_c, 0, 71, 80
2, 49085, Note_on_c, 0, 80, 80
2, 49085, Note_on_c, 0, 83, 80
2, 49118, Control_c, 0, 64, 127
2, 49129, Note_on_c, 0, 32, 80
2, 49129, Note_on_c, 0, 44, 80
2, 49167, Note_on_c, 0, 44, 0
2, 49167, Note_on_c, 0, 32, 0
2, 49169, Control_c, 0, 64, 0
2, 49188, Note_on_c, 0, 83, 0
2, 49188, Note_on_c, 0, 80, 0
2, 49190, Note_on_c, 0, 71, 0
2, 49197, Note_on_c, 0, 75, 80
2, 49239, Note_on_c, 0, 77, 80
2, 49239, Note_on_c, 0, 80, 80
2, 49241, Note_on_c, 0, 75, 0
2, 49299, Note_on_c, 0, 37, 80
2, 49299, Note_on_c, 0, 49, 80
2, 49342, Note_on_c, 0, 49, 0
2, 49342, Note_on_c, 0, 37, 0
2, 49365, Note_on_c, 0, 80, 0
2, 49365, Note_on_c, 0, 77, 0
2, 49374, Note_on_c, 0, 73, 80
2, 49412, Note_on_c, 0, 75, 80
2, 49414, Note_on_c, 0, 73, 0
2, 49414, Note_on_c, 0, 49, 80
2, 49414, Note_on_c, 0, 53, 80
2, 49414, Note_on_c, 0, 59, 80
2, 49441, Note_on_c, 0, 59, 0
2, 49441, Note_on_c, 0, 53, 0
2, 49441, Note_on_c, 0, 49, 0
2, 49477, Note_on_c, 0, 75, 0
2, 49488, Note_on_c, 0, 77, 80
2, 49526, Note_on_c, 0, 42, 80
2, 49526, Note_on_c, 0, 54, 80
2, 49526, Note_on_c, 0, 70, 80
2, 49526, Note_on_c, 0, 78, 80
2, 49528, Note_on_c, 0, 77, 0
2, 49568, Note_on_c, 0, 42, 0
2, 49568, Note_on_c, 0, 54, 0
2, 49589, Note_on_c, 0, 70, 0
2, 49589, Note_on_c, 0, 78, 0
2, 49599, Note_on_c, 0, 71, 80
2, 49599, Note_on_c, 0, 80, 80
2, 49639, Note_on_c, 0, 73, 80
2, 49639, Note_on_c, 0, 82, 80
2, 49641, Note_on_c, 0, 80, 0
2, 49641, Note_on_c, 0, 71, 0
2, 49641, Note_on_c, 0, 49, 80
2, 49641, Note_on_c, 0, 54, 80
2, 49641, Note_on_c, 0, 58, 80
2, 49672, Note_on_c, 0, 58, 0
2, 49672, Note_on_c, 0, 49, 0
2, 49672, Note_on_c, 0, 54, 0
2, 49709, Note_on_c, 0, 73, 0
2, 49709, Note_on_c, 0, 82, 0
2, 49719, Note_on_c, 0, 70, 80
2, 49719, Note_on_c, 0, 78, 80
2, 49759, Note_on_c, 0, 80, 80
2, 49761, Note_on_c, 0, 71, 80
2, 49763, Note_on_c, 0, 78, 0
2, 49763, Note_on_c, 0, 70, 0
2, 49763, Note_on_c, 0, 37, 80
2, 49763, Note_on_c, 0, 49, 80
2, 49789, Note_on_c, 0, 80, 0
2, 49789, Note_on_c, 0, 71, 0
2, 49803, Note_on_c, 0, 37, 0
2, 49803, Note_on_c, 0, 49, 0
2, 49836, Note_on_c, 0, 73, 80
2, 49836, Note_on_c, 0, 85, 80
2, 49838, Note_on_c, 0, 77, 80
2, 49875, Note_on_c, 0, 59, 80
2, 49877, Note_on_c, 0, 49, 80
2, 49877, Note_on_c, 0, 53, 80
2, 49905, Note_on_c, 0, 59, 0
2, 49907, Note_on_c, 0, 49, 0
2, 49907, Note_on_c, 0, 53, 0
2, 49940, Note_on_c, 0, 73, 0
2, 49940, Note_on_c, 0, 77, 0
2, 49940, Note_on_c, 0, 85, 0
2, 49951, Note_on_c, 0, 80, 80
2, 49992, Note_on_c, 0, 73, 80
2, 49992, Note_on_c, 0, 78, 80
2, 49992, Note_on_c, 0, 82, 80
2, 49992, Note_on_c, 0, 85, 80
2, 49993, Note_on_c, 0, 80, 0
2, 49995, Note_on_c, 0, 30, 80
2, 49995, Note_on_c, 0, 42, 80
2, 50018, Note_on_c, 0, 78, 0
2, 50035, Note_on_c, 0, 42, 0
2, 50037, Note_on_c, 0, 30, 0
2, 50060, Note_on_c, 0, 73, 0
2, 50060, Note_on_c, 0, 82, 0
2, 50060, Note_on_c, 0, 85, 0
2, 50069, Note_on_c, 0, 78, 80
2, 50110, Note_on_c, 0, 82, 80
2, 50112, Note_on_c, 0, 78, 0
2, 50112, Note_on_c, 0, 54, 80
2, 50112, Note_on_c, 0, 58, 80
2, 50113, Note_on_c, 0, 49, 80
2, 50139, Note_on_c, 0, 58, 0
2, 50139, Note_on_c, 0, 82, 0
2, 50139, Note_on_c, 0, 54, 0
2, 50141, Note_on_c, 0, 49, 0
2, 50190, Note_on_c, 0, 75, 80
2, 50190, Note_on_c, 0, 78, 80
2, 50190, Note_on_c, 0, 82, 80
2, 50190, Note_on_c, 0, 87, 80
2, 50228, Note_on_c, 0, 46, 80
2, 50228, Note_on_c, 0, 58, 80
2, 50254, Note_on_c, 0, 78, 0
2, 50296, Note_on_c, 0, 82, 0
2, 50296, Note_on_c, 0, 87, 0
2, 50296, Note_on_c, 0, 75, 0
2, 50296, Note_on_c, 0, 58, 0
2, 50296, Note_on_c, 0, 46, 0
2, 50305, Note_on_c, 0, 78, 80
2, 50343, Note_on_c, 0, 76, 80
2, 50343, Note_on_c, 0, 82, 80
2, 50343, Note_on_c, 0, 88, 80
2, 50345, Note_on_c, 0, 43, 80
2, 50345, Note_on_c, 0, 55, 80
2, 50347, Note_on_c, 0, 78, 0
2, 50412, Note_on_c, 0, 88, 0
2, 50412, Note_on_c, 0, 76, 0
2, 50412, Note_on_c, 0, 82, 0
2, 50461, Note_on_c, 0, 44, 80
2, 50461, Note_on_c, 0, 56, 80
2, 50461, Note_on_c, 0, 71, 80
2, 50461, Note_on_c, 0, 83, 80
2, 50466, Note_on_c, 0, 55, 0
2, 50466, Note_on_c, 0, 43, 0
2, 50489, Note_on_c, 0, 71, 0
2, 50489, Note_on_c, 0, 83, 0
2, 50503, Note_on_c, 0, 56, 0
2, 50503, Note_on_c, 0, 44, 0
2, 50539, Note_on_c, 0, 77, 80
2, 50539, Note_on_c, 0, 85, 80
2, 50539, Note_on_c, 0, 89, 80
2, 50581, Note_on_c, 0, 49, 80
2, 50581, Note_on_c, 0, 53, 80
2, 50581, Note_on_c, 0, 59, 80
2, 50607, Note_on_c, 0, 59, 0
2, 50609, Note_on_c, 0, 49, 0
2, 50609, Note_on_c, 0, 53, 0
2, 50635, Note_on_c, 0, 85, 0
2, 50635, Note_on_c, 0, 89, 0
2, 50649, Note_on_c, 0, 77, 0
2, 50659, Note_on_c, 0, 68, 80
2, 50659, Note_on_c, 0, 80, 80
2, 50699, Note_on_c, 0, 75, 80
2, 50699, Note_on_c, 0, 83, 80
2, 50699, Note_on_c, 0, 87, 80
2, 50701, Note_on_c, 0, 80, 0
2, 50701, Note_on_c, 0, 68, 0
2, 50701, Note_on_c, 0, 37, 80
2, 50701, Note_on_c, 0, 49, 80
2, 50729, Control_c, 0, 64, 127
2, 50745, Note_on_c, 0, 49, 0
2, 50745, Note_on_c, 0, 37, 0
2, 50768, Note_on_c, 0, 87, 0
2, 50768, Note_on_c, 0, 75, 0
2, 50768, Note_on_c, 0, 83, 0
2, 50784, Control_c, 0, 64, 0
2, 50817, Note_on_c, 0, 65, 80
2, 50817, Note_on_c, 0, 77, 80
2, 50819, Note_on_c, 0, 59, 80
2, 50821, Note_on_c, 0, 49, 80
2, 50821, Note_on_c, 0, 53, 80
2, 50847, Note_on_c, 0, 77, 0
2, 50849, Note_on_c, 0, 49, 0
2, 50849, Note_on_c, 0, 65, 0
2, 50849, Note_on_c, 0, 59, 0
2, 50849, Note_on_c, 0, 53, 0
2, 50898, Note_on_c, 0, 71, 80
2, 50898, Note_on_c, 0, 80, 80
2, 50898, Note_on_c, 0, 83, 80
2, 50938, Note_on_c, 0, 44, 80
2, 50940, Note_on_c, 0, 32, 80
2, 50980, Note_on_c, 0, 32, 0
2, 50980, Note_on_c, 0, 44, 0
2, 51003, Note_on_c, 0, 71, 0
2, 51003, Note_on_c, 0, 80, 0
2, 51003, Note_on_c, 0, 83, 0
2, 51013, Note_on_c, 0, 75, 80
2, 51053, Note_on_c, 0, 59, 80
2, 51055, Note_on_c, 0, 49, 80
2, 51055, Note_on_c, 0, 53, 80
2, 51083, Note_on_c, 0, 53, 0
2, 51083, Note_on_c, 0, 49, 0
2, 51083, Note_on_c, 0, 59, 0
2, 51123, Note_on_c, 0, 75, 0
2, 51133, Note_on_c, 0, 77, 80
2, 51133, Note_on_c, 0, 80, 80
2, 51161, Control_c, 0, 64, 127
2, 51172, Note_on_c, 0, 37, 80
2, 51172, Note_on_c, 0, 49, 80
2, 51215, Note_on_c, 0, 49, 0
2, 51215, Note_on_c, 0, 37, 0
2, 51215, Control_c, 0, 64, 0
2, 51238, Note_on_c, 0, 80, 0
2, 51238, Note_on_c, 0, 77, 0
2, 51249, Note_on_c, 0, 73, 80
2, 51287, Note_on_c, 0, 75, 80
2, 51288, Note_on_c, 0, 49, 80
2, 51288, Note_on_c, 0, 53, 80
2, 51288, Note_on_c, 0, 59, 80
2, 51290, Note_on_c, 0, 73, 0
2, 51313, Note_on_c, 0, 59, 0
2, 51315, Note_on_c, 0, 53, 0
2, 51315, Note_on_c, 0, 49, 0
2, 51353, Note_on_c, 0, 75, 0
2, 51362, Note_on_c, 0, 77, 80
2, 51403, Note_on_c, 0, 70, 80
2, 51403, Note_on_c, 0, 78, 80
2, 51405, Note_on_c, 0, 30, 80
2, 51405, Note_on_c, 0, 42, 80
2, 51407, Note_on_c, 0, 77, 0
2, 51447, Note_on_c, 0, 42, 0
2, 51449, Note_on_c, 0, 30, 0
2, 51472, Note_on_c, 0, 78, 0
2, 51472, Note_on_c, 0, 70, 0
2, 51519, Note_on_c, 0, 80, 80
2, 51521, Note_on_c, 0, 58, 80
2, 51523, Note_on_c, 0, 49, 80
2, 51523, Note_on_c, 0, 54, 80
2, 51549, Note_on_c, 0, 80, 0
2, 51551, Note_on_c, 0, 58, 0
2, 51551, Note_on_c, 0, 49, 0
2, 51551, Note_on_c, 0, 54, 0
2, 51591, Control_c, 0, 64, 127
2, 51598, Note_on_c, 0, 73, 80
2, 51598, Note_on_c, 0, 82, 80
2, 51640, Note_on_c, 0, 37, 80
2, 51640, Note_on_c, 0, 49, 80
2, 51680, Note_on_c, 0, 49, 0
2, 51680, Note_on_c, 0, 37, 0
2, 51680, Control_c, 0, 64, 0
2, 51703, Note_on_c, 0, 82, 0
2, 51703, Note_on_c, 0, 73, 0
2, 51715, Note_on_c, 0, 78, 80
2, 51752, Note_on_c, 0, 73, 80
2, 51752, Note_on_c, 0, 82, 80
2, 51754, Note_on_c, 0, 49, 80
2, 51754, Note_on_c, 0, 54, 80
2, 51754, Note_on_c, 0, 58, 80
2, 51756, Note_on_c, 0, 78, 0
2, 51784, Note_on_c, 0, 54, 0
2, 51784, Note_on_c, 0, 49, 0
2, 51784, Note_on_c, 0, 58, 0
2, 51870, Note_on_c, 0, 42, 80
2, 51870, Note_on_c, 0, 54, 80
2, 51911, Note_on_c, 0, 54, 0
2, 51911, Note_on_c, 0, 82, 0
2, 51911, Note_on_c, 0, 73, 0
2, 51912, Note_on_c, 0, 42, 0
2, 51945, Note_on_c, 0, 78, 80
2, 51945, Note_on_c, 0, 85, 80
2, 51985, Note_on_c, 0, 43, 80
2, 51985, Note_on_c, 0, 55, 80
2, 52049, Note_on_c, 0, 85, 0
2, 52049, Note_on_c, 0, 78, 0
2, 52063, Note_on_c, 0, 82, 80
2, 52101, Note_on_c, 0, 77, 80
2, 52101, Note_on_c, 0, 85, 80
2, 52103, Note_on_c, 0, 82, 0
2, 52103, Note_on_c, 0, 44, 80
2, 52103, Note_on_c, 0, 56, 80
2, 52104, Note_on_c, 0, 55, 0
2, 52104, Note_on_c, 0, 43, 0
2, 52137, Note_on_c, 0, 85, 0
2, 52139, Note_on_c, 0, 77, 0
2, 52212, Note_on_c, 0, 46, 80
2, 52212, Note_on_c, 0, 58, 80
2, 52212, Note_on_c, 0, 76, 80
2, 52212, Note_on_c, 0, 82, 80
2, 52212, Note_on_c, 0, 85, 80
2, 52214, Note_on_c, 0, 56, 0
2, 52214, Note_on_c, 0, 44, 0
2, 52274, Note_on_c, 0, 82, 0
2, 52274, Note_on_c, 0, 76, 0
2, 52274, Note_on_c, 0, 85, 0
2, 52326, Note_on_c, 0, 47, 80
2, 52326, Note_on_c, 0, 59, 80
2, 52328, Note_on_c, 0, 58, 0
2, 52328, Note_on_c, 0, 46, 0
2, 52392, Note_on_c, 0, 47, 0
2, 52392, Note_on_c, 0, 59, 0
2, 52398, Note_on_c, 0, 83, 80
2, 52398, Note_on_c, 0, 87, 80
2, 52400, Note_on_c, 0, 75, 80
2, 52400, Note_on_c, 0, 78, 80
2, 52440, Note_on_c, 0, 54, 80
2, 52440, Note_on_c, 0, 59, 80
2, 52440, Note_on_c, 0, 63, 80
2, 52466, Note_on_c, 0, 63, 0
2, 52466, Note_on_c, 0, 54, 0
2, 52466, Note_on_c, 0, 83, 0
2, 52466, Note_on_c, 0, 59, 0
2, 52494, Note_on_c, 0, 87, 0
2, 52509, Note_on_c, 0, 75, 0
2, 52509, Note_on_c, 0, 78, 0
2, 52518, Note_on_c, 0, 71, 80
2, 52518, Note_on_c, 0, 83, 80
2, 52546, Note_on_c, 0, 83, 0
2, 52546, Note_on_c, 0, 71, 0
2, 52558, Note_on_c, 0, 47, 80
2, 52558, Note_on_c, 0, 75, 80
2, 52558, Note_on_c, 0, 78, 80
2, 52558, Note_on_c, 0, 87, 80
2, 52560, Note_on_c, 0, 35, 80
2, 52597, Note_on_c, 0, 78, 0
2, 52599, Note_on_c, 0, 87, 0
2, 52599, Note_on_c, 0, 47, 0
2, 52599, Note_on_c, 0, 75, 0
2, 52599, Note_on_c, 0, 35, 0
2, 52674, Note_on_c, 0, 86, 80
2, 52676, Note_on_c, 0, 36, 80
2, 52676, Note_on_c, 0, 48, 80
2, 52676, Note_on_c, 0, 74, 80
2, 52676, Note_on_c, 0, 78, 80
2, 52676, Note_on_c, 0, 81, 80
2, 52793, Note_on_c, 0, 81, 0
2, 52793, Note_on_c, 0, 74, 0
2, 52793, Note_on_c, 0, 86, 0
2, 52793, Note_on_c, 0, 78, 0
2, 52795, Note_on_c, 0, 37, 80
2, 52795, Note_on_c, 0, 49, 80
2, 52797, Note_on_c, 0, 36, 0
2, 52797, Note_on_c, 0, 48, 0
2, 52832, Note_on_c, 0, 37, 0
2, 52832, Note_on_c, 0, 49, 0
2, 52868, Note_on_c, 0, 73, 80
2, 52868, Note_on_c, 0, 78, 80
2, 52868, Note_on_c, 0, 85, 80
2, 52870, Note_on_c, 0, 82, 80
2, 52912, Note_on_c, 0, 49, 80
2, 52912, Note_on_c, 0, 54, 80
2, 52912, Note_on_c, 0, 58, 80
2, 52938, Note_on_c, 0, 58, 0
2, 52938, Note_on_c, 0, 49, 0
2, 52938, Note_on_c, 0, 82, 0
2, 52938, Note_on_c, 0, 54, 0
2, 52975, Note_on_c, 0, 73, 0
2, 52975, Note_on_c, 0, 85, 0
2, 52975, Note_on_c, 0, 78, 0
2, 52985, Note_on_c, 0, 70, 80
2, 52985, Note_on_c, 0, 82, 80
2, 53027, Note_on_c, 0, 39, 80
2, 53027, Note_on_c, 0, 51, 80
2, 53027, Note_on_c, 0, 73, 80
2, 53027, Note_on_c, 0, 79, 80
2, 53027, Note_on_c, 0, 87, 80
2, 53029, Note_on_c, 0, 82, 0
2, 53029, Note_on_c, 0, 70, 0
2, 53089, Note_on_c, 0, 87, 0
2, 53091, Note_on_c, 0, 39, 0
2, 53091, Note_on_c, 0, 51, 0
2, 53098, Note_on_c, 0, 85, 80
2, 53105, Note_on_c, 0, 79, 0
2, 53140, Note_on_c, 0, 55, 80
2, 53140, Note_on_c, 0, 58, 80
2, 53140, Note_on_c, 0, 61, 80
2, 53140, Note_on_c, 0, 63, 80
2, 53140, Note_on_c, 0, 82, 80
2, 53142, Note_on_c, 0, 85, 0
2, 53168, Note_on_c, 0, 61, 0
2, 53168, Note_on_c, 0, 55, 0
2, 53168, Note_on_c, 0, 58, 0
2, 53168, Note_on_c, 0, 63, 0
2, 53208, Note_on_c, 0, 82, 0
2, 53220, Note_on_c, 0, 79, 80
2, 53260, Note_on_c, 0, 44, 80
2, 53260, Note_on_c, 0, 72, 80
2, 53262, Note_on_c, 0, 79, 0
2, 53262, Note_on_c, 0, 73, 0
2, 53262, Note_on_c, 0, 32, 80
2, 53285, Control_c, 0, 64, 127
2, 53300, Note_on_c, 0, 44, 0
2, 53302, Note_on_c, 0, 32, 0
2, 53337, Note_on_c, 0, 78, 80
2, 53342, Control_c, 0, 64, 0
2, 53377, Note_on_c, 0, 51, 80
2, 53377, Note_on_c, 0, 54, 80
2, 53377, Note_on_c, 0, 56, 80
2, 53377, Note_on_c, 0, 60, 80
2, 53377, Note_on_c, 0, 80, 80
2, 53379, Note_on_c, 0, 78, 0
2, 53402, Note_on_c, 0, 60, 0
2, 53402, Note_on_c, 0, 56, 0
2, 53402, Note_on_c, 0, 54, 0
2, 53402, Note_on_c, 0, 72, 0
2, 53402, Note_on_c, 0, 80, 0
2, 53404, Note_on_c, 0, 51, 0
2, 53453, Note_on_c, 0, 71, 80
2, 53453, Note_on_c, 0, 77, 80
2, 53455, Note_on_c, 0, 82, 80
2, 53493, Note_on_c, 0, 37, 80
2, 53495, Note_on_c, 0, 49, 80
2, 53520, Note_on_c, 0, 77, 0
2, 53540, Note_on_c, 0, 37, 0
2, 53540, Note_on_c, 0, 49, 0
2, 53563, Note_on_c, 0, 71, 0
2, 53565, Note_on_c, 0, 82, 0
2, 53574, Note_on_c, 0, 77, 80
2, 53612, Note_on_c, 0, 71, 80
2, 53612, Note_on_c, 0, 80, 80
2, 53614, Note_on_c, 0, 49, 80
2, 53614, Note_on_c, 0, 53, 80
2, 53614, Note_on_c, 0, 59, 80
2, 53616, Note_on_c, 0, 77, 0
2, 53643, Note_on_c, 0, 59, 0
2, 53645, Note_on_c, 0, 49, 0
2, 53645, Note_on_c, 0, 53, 0
2, 53732, Note_on_c, 0, 42, 80
2, 53732, Note_on_c, 0, 70, 80
2, 53732, Note_on_c, 0, 73, 80
2, 53732, Note_on_c, 0, 78, 80
2, 53734, Note_on_c, 0, 80, 0
2, 53734, Note_on_c, 0, 71, 0
2, 53734, Note_on_c, 0, 49, 80
2, 53734, Note_on_c, 0, 58, 80
2, 53799, Note_on_c, 0, 58, 0
2, 53799, Note_on_c, 0, 78, 0
2, 53799, Note_on_c, 0, 42, 0
2, 53799, Note_on_c, 0, 70, 0
2, 53799, Note_on_c, 0, 73, 0
2, 53801, Note_on_c, 0, 49, 0
2, 53850, Note_on_c, 0, 37, 80
2, 53929, Note_on_c, 0, 85, 80
2, 53941, Note_on_c, 0, 87, 80
2, 53943, Note_on_c, 0, 85, 0
2, 53950, Note_on_c, 0, 89, 80
2, 53954, Note_on_c, 0, 87, 0
2, 53954, Control_c, 0, 64, 127
2, 53961, Note_on_c, 0, 90, 80
2, 53963, Note_on_c, 0, 78, 80
2, 53963, Note_on_c, 0, 82, 80
2, 53965, Note_on_c, 0, 89, 0
2, 53965, Note_on_c, 0, 30, 80
2, 53965, Note_on_c, 0, 42, 80
2, 53967, Note_on_c, 0, 37, 0
2, 54004, Note_on_c, 0, 78, 0
2, 54004, Note_on_c, 0, 90, 0
2, 54006, Note_on_c, 0, 82, 0
2, 54006, Note_on_c, 0, 42, 0
2, 54008, Note_on_c, 0, 30, 0
2, 54046, Control_c, 0, 64, 0
2, 54198, Note_on_c, 0, 42, 80
2, 54198, Note_on_c, 0, 54, 80
2, 54226, Control_c, 0, 64, 127
2, 54240, Note_on_c, 0, 54, 0
2, 54240, Note_on_c, 0, 42, 0
2, 54278, Note_on_c, 0, 73, 80
2, 54283, Control_c, 0, 64, 0
2, 54313, Note_on_c, 0, 54, 80
2, 54313, Note_on_c, 0, 58, 80
2, 54313, Note_on_c, 0, 66, 80
2, 54313, Note_on_c, 0, 70, 80
2, 54313, Note_on_c, 0, 78, 80
2, 54315, Note_on_c, 0, 73, 0
2, 54315, Note_on_c, 0, 49, 80
2, 54343, Note_on_c, 0, 49, 0
2, 54343, Note_on_c, 0, 58, 0
2, 54343, Note_on_c, 0, 54, 0
2, 54384, Note_on_c, 0, 66, 0
2, 54384, Note_on_c, 0, 70, 0
2, 54384, Note_on_c, 0, 78, 0
2, 54393, Note_on_c, 0, 73, 80
2, 54431, Note_on_c, 0, 75, 80
2, 54432, Note_on_c, 0, 73, 0
2, 54432, Note_on_c, 0, 35, 80
2, 54432, Note_on_c, 0, 47, 80
2, 54458, Note_on_c, 0, 75, 0
2, 54475, Note_on_c, 0, 47, 0
2, 54475, Note_on_c, 0, 35, 0
2, 54505, Note_on_c, 0, 71, 80
2, 54505, Note_on_c, 0, 78, 80
2, 54507, Note_on_c, 0, 66, 80
2, 54545, Note_on_c, 0, 59, 80
2, 54547, Note_on_c, 0, 51, 80
2, 54547, Note_on_c, 0, 54, 80
2, 54575, Note_on_c, 0, 54, 0
2, 54575, Note_on_c, 0, 59, 0
2, 54575, Note_on_c, 0, 51, 0
2, 54612, Note_on_c, 0, 71, 0
2, 54612, Note_on_c, 0, 66, 0
2, 54612, Note_on_c, 0, 78, 0
2, 54624, Note_on_c, 0, 75, 80
2, 54664, Note_on_c, 0, 66, 80
2, 54664, Note_on_c, 0, 70, 80
2, 54664, Note_on_c, 0, 78, 80
2, 54666, Note_on_c, 0, 30, 80
2, 54666, Note_on_c, 0, 42, 80
2, 54668, Note_on_c, 0, 75, 0
2, 54708, Note_on_c, 0, 42, 0
2, 54710, Note_on_c, 0, 30, 0
2, 54733, Note_on_c, 0, 66, 0
2, 54733, Note_on_c, 0, 70, 0
2, 54733, Note_on_c, 0, 78, 0
2, 54743, Note_on_c, 0, 73, 80
2, 54783, Note_on_c, 0, 49, 80
2, 54783, Note_on_c, 0, 54, 80
2, 54783, Note_on_c, 0, 58, 80
2, 54783, Note_on_c, 0, 75, 80
2, 54785, Note_on_c, 0, 73, 0
2, 54811, Note_on_c, 0, 58, 0
2, 54811, Note_on_c, 0, 49, 0
2, 54811, Note_on_c, 0, 54, 0
2, 54811, Note_on_c, 0, 75, 0
2, 54853, Control_c, 0, 64, 127
2, 54860, Note_on_c, 0, 66, 80
2, 54860, Note_on_c, 0, 78, 80
2, 54900, Note_on_c, 0, 46, 80
2, 54900, Note_on_c, 0, 58, 80
2, 54963, Note_on_c, 0, 78, 0
2, 54963, Note_on_c, 0, 66, 0
2, 54975, Note_on_c, 0, 73, 80
2, 54980, Control_c, 0, 64, 0
2, 55012, Note_on_c, 0, 45, 80
2, 55012, Note_on_c, 0, 57, 80
2, 55012, Note_on_c, 0, 66, 80
2, 55012, Note_on_c, 0, 78, 80
2, 55014, Note_on_c, 0, 73, 0
2, 55016, Note_on_c, 0, 58, 0
2, 55016, Note_on_c, 0, 46, 0
2, 55080, Note_on_c, 0, 78, 0
2, 55080, Note_on_c, 0, 66, 0
2, 55128, Note_on_c, 0, 56, 80
2, 55130, Note_on_c, 0, 44, 80
2, 55132, Note_on_c, 0, 45, 0
2, 55132, Note_on_c, 0, 57, 0
2, 55170, Note_on_c, 0, 56, 0
2, 55170, Note_on_c, 0, 44, 0
2, 55202, Note_on_c, 0, 71, 80
2, 55240, Note_on_c, 0, 56, 80
2, 55240, Note_on_c, 0, 59, 80
2, 55240, Note_on_c, 0, 63, 80
2, 55240, Note_on_c, 0, 75, 80
2, 55242, Note_on_c, 0, 51, 80
2, 55244, Note_on_c, 0, 71, 0
2, 55267, Note_on_c, 0, 59, 0
2, 55267, Note_on_c, 0, 56, 0
2, 55267, Note_on_c, 0, 51, 0
2, 55307, Note_on_c, 0, 63, 0
2, 55307, Note_on_c, 0, 75, 0
2, 55317, Note_on_c, 0, 68, 80
2, 55357, Note_on_c, 0, 34, 80
2, 55357, Note_on_c, 0, 46, 80
2, 55357, Note_on_c, 0, 70, 80
2, 55359, Note_on_c, 0, 68, 0
2, 55387, Note_on_c, 0, 70, 0
2, 55434, Note_on_c, 0, 75, 80
2, 55436, Note_on_c, 0, 63, 80
2, 55436, Note_on_c, 0, 67, 80
2, 55476, Note_on_c, 0, 55, 80
2, 55476, Note_on_c, 0, 58, 80
2, 55476, Note_on_c, 0, 61, 80
2, 55478, Note_on_c, 0, 51, 80
2, 55480, Note_on_c, 0, 46, 0
2, 55480, Note_on_c, 0, 34, 0
2, 55501, Note_on_c, 0, 61, 0
2, 55503, Note_on_c, 0, 55, 0
2, 55503, Note_on_c, 0, 51, 0
2, 55503, Note_on_c, 0, 58, 0
2, 55543, Note_on_c, 0, 63, 0
2, 55543, Note_on_c, 0, 67, 0
2, 55543, Note_on_c, 0, 75, 0
2, 55553, Note_on_c, 0, 70, 80
2, 55593, Note_on_c, 0, 75, 80
2, 55595, Note_on_c, 0, 47, 80
2, 55595, Note_on_c, 0, 63, 80
2, 55597, Note_on_c, 0, 70, 0
2, 55597, Note_on_c, 0, 35, 80
2, 55660, Note_on_c, 0, 75, 0
2, 55660, Note_on_c, 0, 63, 0
2, 55670, Note_on_c, 0, 68, 80
2, 55710, Note_on_c, 0, 71, 80
2, 55712, Note_on_c, 0, 51, 80
2, 55712, Note_on_c, 0, 56, 80
2, 55712, Note_on_c, 0, 59, 80
2, 55714, Note_on_c, 0, 68, 0
2, 55716, Note_on_c, 0, 47, 0
2, 55718, Note_on_c, 0, 35, 0
2, 55737, Note_on_c, 0, 71, 0
2, 55739, Note_on_c, 0, 56, 0
2, 55739, Note_on_c, 0, 59, 0
2, 55739, Note_on_c, 0, 51, 0
2, 55791, Note_on_c, 0, 63, 80
2, 55791, Note_on_c, 0, 75, 80
2, 55831, Note_on_c, 0, 56, 80
2, 55833, Note_on_c, 0, 44, 80
2, 55901, Note_on_c, 0, 44, 0
2, 55901, Note_on_c, 0, 63, 0
2, 55901, Note_on_c, 0, 75, 0
2, 55901, Note_on_c, 0, 56, 0
2, 55908, Note_on_c, 0, 68, 80
2, 55945, Note_on_c, 0, 66, 80
2, 55945, Note_on_c, 0, 74, 80
2, 55947, Note_on_c, 0, 68, 0
2, 55947, Note_on_c, 0, 45, 80
2, 55947, Note_on_c, 0, 57, 80
2, 55947, Note_on_c, 0, 60, 80
2, 56063, Note_on_c, 0, 46, 80
2, 56063, Note_on_c, 0, 58, 80
2, 56063, Note_on_c, 0, 61, 80
2, 56063, Note_on_c, 0, 73, 80
2, 56064, Note_on_c, 0, 60, 0
2, 56064, Note_on_c, 0, 57, 0
2, 56064, Note_on_c, 0, 66, 0
2, 56064, Note_on_c, 0, 45, 0
2, 56064, Note_on_c, 0, 74, 0
2, 56105, Note_on_c, 0, 58, 0
2, 56105, Note_on_c, 0, 46, 0
2, 56131, Note_on_c, 0, 73, 0
2, 56131, Note_on_c, 0, 61, 0
2, 56137, Note_on_c, 0, 66, 80
2, 56178, Note_on_c, 0, 54, 80
2, 56178, Note_on_c, 0, 58, 80
2, 56178, Note_on_c, 0, 70, 80
2, 56180, Note_on_c, 0, 66, 0
2, 56180, Note_on_c, 0, 49, 80
2, 56208, Note_on_c, 0, 49, 0
2, 56208, Note_on_c, 0, 70, 0
2, 56208, Note_on_c, 0, 58, 0
2, 56208, Note_on_c, 0, 54, 0
2, 56255, Note_on_c, 0, 63, 80
2, 56255, Note_on_c, 0, 67, 80
2, 56255, Note_on_c, 0, 75, 80
2, 56297, Note_on_c, 0, 39, 80
2, 56297, Note_on_c, 0, 51, 80
2, 56337, Note_on_c, 0, 51, 0
2, 56337, Note_on_c, 0, 39, 0
2, 56363, Note_on_c, 0, 63, 0
2, 56363, Note_on_c, 0, 67, 0
2, 56363, Note_on_c, 0, 75, 0
2, 56373, Note_on_c, 0, 70, 80
2, 56413, Note_on_c, 0, 51, 80
2, 56413, Note_on_c, 0, 55, 80
2, 56413, Note_on_c, 0, 58, 80
2, 56413, Note_on_c, 0, 61, 80
2, 56413, Note_on_c, 0, 67, 80
2, 56415, Note_on_c, 0, 70, 0
2, 56443, Note_on_c, 0, 61, 0
2, 56443, Note_on_c, 0, 58, 0
2, 56443, Note_on_c, 0, 51, 0
2, 56443, Note_on_c, 0, 55, 0
2, 56483, Note_on_c, 0, 67, 0
2, 56495, Note_on_c, 0, 63, 80
2, 56535, Note_on_c, 0, 60, 80
2, 56537, Note_on_c, 0, 32, 80
2, 56537, Note_on_c, 0, 44, 80
2, 56539, Note_on_c, 0, 63, 0
2, 56579, Note_on_c, 0, 44, 0
2, 56579, Note_on_c, 0, 32, 0
2, 56616, Note_on_c, 0, 66, 80
2, 56657, Note_on_c, 0, 51, 80
2, 56657, Note_on_c, 0, 54, 80
2, 56657, Note_on_c, 0, 56, 80
2, 56657, Note_on_c, 0, 68, 80
2, 56659, Note_on_c, 0, 66, 0
2, 56687, Note_on_c, 0, 56, 0
2, 56687, Note_on_c, 0, 54, 0
2, 56687, Note_on_c, 0, 60, 0
2, 56687, Note_on_c, 0, 68, 0
2, 56688, Note_on_c, 0, 51, 0
2, 56736, Note_on_c, 0, 60, 80
2, 56736, Note_on_c, 0, 66, 80
2, 56736, Note_on_c, 0, 70, 80
2, 56776, Note_on_c, 0, 32, 80
2, 56776, Note_on_c, 0, 44, 80
2, 56818, Note_on_c, 0, 44, 0
2, 56818, Note_on_c, 0, 32, 0
2, 56841, Note_on_c, 0, 60, 0
2, 56841, Note_on_c, 0, 66, 0
2, 56841, Note_on_c, 0, 70, 0
2, 56853, Note_on_c, 0, 69, 80
2, 56893, Note_on_c, 0, 51, 80
2, 56893, Note_on_c, 0, 54, 80
2, 56893, Note_on_c, 0, 56, 80
2, 56893, Note_on_c, 0, 60, 80
2, 56893, Note_on_c, 0, 66, 80
2, 56893, Note_on_c, 0, 70, 80
2, 56898, Note_on_c, 0, 69, 0
2, 56924, Note_on_c, 0, 56, 0
2, 56924, Note_on_c, 0, 51, 0
2, 56924, Note_on_c, 0, 54, 0
2, 56976, Note_on_c, 0, 70, 0
2, 56976, Note_on_c, 0, 60, 0
2, 56976, Note_on_c, 0, 66, 0
2, 57013, Note_on_c, 0, 37, 80
2, 57013, Note_on_c, 0, 49, 80
2, 57088, Note_on_c, 0, 59, 80
2, 57088, Note_on_c, 0, 65, 80
2, 57128, Note_on_c, 0, 38, 80
2, 57128, Note_on_c, 0, 50, 80
2, 57133, Note_on_c, 0, 49, 0
2, 57133, Note_on_c, 0, 37, 0
2, 57193, Note_on_c, 0, 65, 0
2, 57193, Note_on_c, 0, 59, 0
2, 57203, Note_on_c, 0, 71, 80
2, 57231, Note_on_c, 0, 71, 0
2, 57242, Note_on_c, 0, 37, 80
2, 57242, Note_on_c, 0, 49, 80
2, 57244, Note_on_c, 0, 50, 0
2, 57246, Note_on_c, 0, 38, 0
2, 57316, Note_on_c, 0, 59, 80
2, 57316, Note_on_c, 0, 65, 80
2, 57357, Note_on_c, 0, 38, 80
2, 57357, Note_on_c, 0, 50, 80
2, 57359, Note_on_c, 0, 37, 0
2, 57359, Note_on_c, 0, 49, 0
2, 57419, Note_on_c, 0, 65, 0
2, 57419, Note_on_c, 0, 59, 0
2, 57429, Note_on_c, 0, 71, 80
2, 57459, Note_on_c, 0, 71, 0
2, 57471, Note_on_c, 0, 37, 80
2, 57471, Note_on_c, 0, 49, 80
2, 57473, Note_on_c, 0, 50, 0
2, 57473, Note_on_c, 0, 38, 0
2, 57541, Note_on_c, 0, 37, 0
2, 57541, Note_on_c, 0, 49, 0
2, 57548, Note_on_c, 0, 61, 80
2, 57548, Note_on_c, 0, 73, 80
2, 57578, Note_on_c, 0, 73, 0
2, 57578, Note_on_c, 0, 61, 0
2, 57588, Note_on_c, 0, 38, 80
2, 57588, Note_on_c, 0, 50, 80
2, 57661, Note_on_c, 0, 50, 0
2, 57661, Note_on_c, 0, 38, 0
2, 57671, Note_on_c, 0, 62, 80
2, 57671, Note_on_c, 0, 74, 80
2, 57698, Note_on_c, 0, 74, 0
2, 57698, Note_on_c, 0, 62, 0
2, 57713, Note_on_c, 0, 39, 80
2, 57713, Note_on_c, 0, 51, 80
2, 57781, Note_on_c, 0, 51, 0
2, 57781, Note_on_c, 0, 39, 0
2, 57788, Note_on_c, 0, 75, 80
2, 57790, Note_on_c, 0, 63, 80
2, 57817, Note_on_c, 0, 63, 0
2, 57817, Note_on_c, 0, 75, 0
2, 57829, Note_on_c, 0, 41, 80
2, 57829, Note_on_c, 0, 53, 80
2, 57897, Note_on_c, 0, 53, 0
2, 57897, Note_on_c, 0, 41, 0
2, 57904, Note_on_c, 0, 65, 80
2, 57904, Note_on_c, 0, 77, 80
2, 57935, Note_on_c, 0, 77, 0
2, 57935, Note_on_c, 0, 65, 0
2, 57944, Note_on_c, 0, 42, 80
2, 57944, Note_on_c, 0, 54, 80
2, 57986, Note_on_c, 0, 54, 0
2, 57986, Note_on_c, 0, 42, 0
2, 58019, Note_on_c, 0, 85, 80
2, 58059, Note_on_c, 0, 78, 80
2, 58059, Note_on_c, 0, 90, 80
2, 58061, Note_on_c, 0, 49, 80
2, 58061, Note_on_c, 0, 54, 80
2, 58061, Note_on_c, 0, 58, 80
2, 58061, Note_on_c, 0, 82, 80
2, 58063, Note_on_c, 0, 85, 0
2, 58091, Note_on_c, 0, 54, 0
2, 58091, Note_on_c, 0, 49, 0
2, 58091, Note_on_c, 0, 58, 0
2, 58122, Note_on_c, 0, 78, 0
2, 58122, Note_on_c, 0, 90, 0
2, 58124, Note_on_c, 0, 82, 0
2, 58133, Note_on_c, 0, 85, 80
2, 58171, Note_on_c, 0, 87, 80
2, 58173, Note_on_c, 0, 35, 80
2, 58173, Note_on_c, 0, 47, 80
2, 58175, Note_on_c, 0, 85, 0
2, 58200, Note_on_c, 0, 87, 0
2, 58217, Note_on_c, 0, 35, 0
2, 58217, Note_on_c, 0, 47, 0
2, 58249, Note_on_c, 0, 78, 80
2, 58249, Note_on_c, 0, 83, 80
2, 58249, Note_on_c, 0, 90, 80
2, 58290, Note_on_c, 0, 51, 80
2, 58290, Note_on_c, 0, 54, 80
2, 58290, Note_on_c, 0, 59, 80
2, 58318, Note_on_c, 0, 59, 0
2, 58318, Note_on_c, 0, 54, 0
2, 58320, Note_on_c, 0, 51, 0
2, 58355, Note_on_c, 0, 78, 0
2, 58355, Note_on_c, 0, 83, 0
2, 58355, Note_on_c, 0, 90, 0
2, 58365, Note_on_c, 0, 87, 80
2, 58397, Control_c, 0, 64, 127
2, 58404, Note_on_c, 0, 78, 80
2, 58404, Note_on_c, 0, 82, 80
2, 58404, Note_on_c, 0, 90, 80
2, 58406, Note_on_c, 0, 87, 0
2, 58406, Note_on_c, 0, 42, 80
2, 58406, Note_on_c, 0, 54, 80
2, 58448, Note_on_c, 0, 54, 0
2, 58448, Note_on_c, 0, 42, 0
2, 58471, Note_on_c, 0, 90, 0
2, 58471, Note_on_c, 0, 82, 0
2, 58471, Note_on_c, 0, 78, 0
2, 58481, Note_on_c, 0, 85, 80
2, 58490, Control_c, 0, 64, 0
2, 58518, Note_on_c, 0, 54, 80
2, 58518, Note_on_c, 0, 58, 80
2, 58518, Note_on_c, 0, 87, 80
2, 58520, Note_on_c, 0, 85, 0
2, 58520, Note_on_c, 0, 49, 80
2, 58548, Note_on_c, 0, 87, 0
2, 58550, Note_on_c, 0, 54, 0
2, 58550, Note_on_c, 0, 58, 0
2, 58550, Note_on_c, 0, 49, 0
2, 58594, Note_on_c, 0, 90, 80
2, 58596, Note_on_c, 0, 78, 80
2, 58596, Note_on_c, 0, 82, 80
2, 58596, Note_on_c, 0, 85, 80
2, 58638, Note_on_c, 0, 46, 80
2, 58638, Note_on_c, 0, 58, 80
2, 58664, Note_on_c, 0, 85, 0
2, 58704, Note_on_c, 0, 78, 0
2, 58704, Note_on_c, 0, 90, 0
2, 58706, Note_on_c, 0, 82, 0
2, 58706, Note_on_c, 0, 58, 0
2, 58706, Note_on_c, 0, 46, 0
2, 58713, Note_on_c, 0, 85, 80
2, 58753, Note_on_c, 0, 78, 80
2, 58753, Note_on_c, 0, 90, 80
2, 58755, Note_on_c, 0, 45, 80
2, 58755, Note_on_c, 0, 57, 80
2, 58757, Note_on_c, 0, 85, 0
2, 58809, Note_on_c, 0, 78, 0
2, 58821, Note_on_c, 0, 90, 0
2, 58872, Note_on_c, 0, 44, 80
2, 58872, Note_on_c, 0, 56, 80
2, 58874, Note_on_c, 0, 45, 0
2, 58874, Note_on_c, 0, 57, 0
2, 58915, Note_on_c, 0, 44, 0
2, 58915, Note_on_c, 0, 56, 0
2, 58947, Note_on_c, 0, 83, 80
2, 58988, Note_on_c, 0, 51, 80
2, 58988, Note_on_c, 0, 56, 80
2, 58988, Note_on_c, 0, 59, 80
2, 58988, Note_on_c, 0, 71, 80
2, 58988, Note_on_c, 0, 80, 80
2, 58988, Note_on_c, 0, 87, 80
2, 58990, Note_on_c, 0, 83, 0
2, 59016, Note_on_c, 0, 80, 0
2, 59017, Note_on_c, 0, 59, 0
2, 59017, Note_on_c, 0, 51, 0
2, 59017, Note_on_c, 0, 56, 0
2, 59040, Note_on_c, 0, 87, 0
2, 59057, Note_on_c, 0, 71, 0
2, 59066, Note_on_c, 0, 80, 80
2, 59104, Note_on_c, 0, 82, 80
2, 59106, Note_on_c, 0, 80, 0
2, 59106, Note_on_c, 0, 34, 80
2, 59106, Note_on_c, 0, 46, 80
2, 59132, Note_on_c, 0, 82, 0
2, 59181, Note_on_c, 0, 73, 80
2, 59181, Note_on_c, 0, 79, 80
2, 59181, Note_on_c, 0, 87, 80
2, 59221, Note_on_c, 0, 51, 80
2, 59221, Note_on_c, 0, 55, 80
2, 59221, Note_on_c, 0, 58, 80
2, 59221, Note_on_c, 0, 61, 80
2, 59226, Note_on_c, 0, 46, 0
2, 59228, Note_on_c, 0, 34, 0
2, 59251, Note_on_c, 0, 58, 0
2, 59251, Note_on_c, 0, 51, 0
2, 59251, Note_on_c, 0, 61, 0
2, 59251, Note_on_c, 0, 55, 0
2, 59274, Note_on_c, 0, 87, 0
2, 59288, Note_on_c, 0, 79, 0
2, 59290, Note_on_c, 0, 73, 0
2, 59300, Note_on_c, 0, 82, 80
2, 59340, Note_on_c, 0, 87, 80
2, 59342, Note_on_c, 0, 35, 80
2, 59342, Note_on_c, 0, 47, 80
2, 59342, Note_on_c, 0, 71, 80
2, 59342, Note_on_c, 0, 80, 80
2, 59344, Note_on_c, 0, 82, 0
2, 59367, Note_on_c, 0, 80, 0
2, 59395, Note_on_c, 0, 87, 0
2, 59409, Note_on_c, 0, 71, 0
2, 59419, Note_on_c, 0, 80, 80
2, 59459, Note_on_c, 0, 56, 80
2, 59459, Note_on_c, 0, 59, 80
2, 59459, Note_on_c, 0, 83, 80
2, 59461, Note_on_c, 0, 80, 0
2, 59461, Note_on_c, 0, 51, 80
2, 59463, Note_on_c, 0, 47, 0
2, 59465, Note_on_c, 0, 35, 0
2, 59488, Note_on_c, 0, 83, 0
2, 59490, Note_on_c, 0, 56, 0
2, 59490, Note_on_c, 0, 59, 0
2, 59492, Note_on_c, 0, 51, 0
2, 59536, Note_on_c, 0, 87, 80
2, 59538, Note_on_c, 0, 71, 80
2, 59538, Note_on_c, 0, 80, 80
2, 59578, Note_on_c, 0, 44, 80
2, 59578, Note_on_c, 0, 56, 80
2, 59604, Note_on_c, 0, 80, 0
2, 59644, Note_on_c, 0, 87, 0
2, 59644, Note_on_c, 0, 71, 0
2, 59646, Note_on_c, 0, 44, 0
2, 59646, Note_on_c, 0, 56, 0
2, 59653, Note_on_c, 0, 80, 80
2, 59690, Note_on_c, 0, 72, 80
2, 59690, Note_on_c, 0, 78, 80
2, 59690, Note_on_c, 0, 86, 80
2, 59692, Note_on_c, 0, 45, 80
2, 59692, Note_on_c, 0, 57, 80
2, 59694, Note_on_c, 0, 80, 0
2, 59807, Note_on_c, 0, 73, 80
2, 59807, Note_on_c, 0, 85, 80
2, 59808, Note_on_c, 0, 86, 0
2, 59808, Note_on_c, 0, 78, 0
2, 59808, Note_on_c, 0, 46, 80
2, 59808, Note_on_c, 0, 58, 80
2, 59810, Note_on_c, 0, 57, 0
2, 59810, Note_on_c, 0, 72, 0
2, 59810, Note_on_c, 0, 45, 0
2, 59848, Note_on_c, 0, 58, 0
2, 59850, Note_on_c, 0, 46, 0
2, 59871, Note_on_c, 0, 85, 0
2, 59873, Note_on_c, 0, 73, 0
2, 59882, Note_on_c, 0, 78, 80
2, 59923, Note_on_c, 0, 54, 80
2, 59923, Note_on_c, 0, 58, 80
2, 59923, Note_on_c, 0, 82, 80
2, 59925, Note_on_c, 0, 78, 0
2, 59925, Note_on_c, 0, 49, 80
2, 59951, Note_on_c, 0, 49, 0
2, 59951, Note_on_c, 0, 82, 0
2, 59951, Note_on_c, 0, 58, 0
2, 59951, Note_on_c, 0, 54, 0
2, 59998, Note_on_c, 0, 87, 80
2, 60000, Note_on_c, 0, 73, 80
2, 60000, Note_on_c, 0, 79, 80
2, 60037, Note_on_c, 0, 51, 80
2, 60039, Note_on_c, 0, 39, 80
2, 60079, Note_on_c, 0, 51, 0
2, 60081, Note_on_c, 0, 39, 0
2, 60091, Note_on_c, 0, 87, 0
2, 60105, Note_on_c, 0, 79, 0
2, 60105, Note_on_c, 0, 73, 0
2, 60115, Note_on_c, 0, 82, 80
2, 60155, Note_on_c, 0, 55, 80
2, 60155, Note_on_c, 0, 58, 80
2, 60155, Note_on_c, 0, 61, 80
2, 60155, Note_on_c, 0, 79, 80
2, 60157, Note_on_c, 0, 82, 0
2, 60157, Note_on_c, 0, 51, 80
2, 60185, Note_on_c, 0, 51, 0
2, 60185, Note_on_c, 0, 55, 0
2, 60185, Note_on_c, 0, 61, 0
2, 60185, Note_on_c, 0, 58, 0
2, 60222, Note_on_c, 0, 79, 0
2, 60232, Note_on_c, 0, 75, 80
2, 60274, Note_on_c, 0, 44, 80
2, 60274, Note_on_c, 0, 72, 80
2, 60276, Note_on_c, 0, 75, 0
2, 60276, Note_on_c, 0, 32, 80
2, 60316, Note_on_c, 0, 44, 0
2, 60318, Note_on_c, 0, 32, 0
2, 60349, Note_on_c, 0, 78, 80
2, 60389, Note_on_c, 0, 60, 80
2, 60389, Note_on_c, 0, 80, 80
2, 60391, Note_on_c, 0, 78, 0
2, 60391, Note_on_c, 0, 51, 80
2, 60391, Note_on_c, 0, 54, 80
2, 60391, Note_on_c, 0, 56, 80
2, 60419, Note_on_c, 0, 80, 0
2, 60421, Note_on_c, 0, 72, 0
2, 60421, Note_on_c, 0, 60, 0
2, 60423, Note_on_c, 0, 51, 0
2, 60423, Note_on_c, 0, 54, 0
2, 60423, Note_on_c, 0, 56, 0
2, 60470, Note_on_c, 0, 72, 80
2, 60470, Note_on_c, 0, 78, 80
2, 60470, Note_on_c, 0, 82, 80
2, 60472, Note_on_c, 0, 51, 80
2, 60474, Note_on_c, 0, 39, 80
2, 60537, Note_on_c, 0, 78, 0
2, 60577, Note_on_c, 0, 72, 0
2, 60577, Note_on_c, 0, 82, 0
2, 60579, Note_on_c, 0, 51, 0
2, 60581, Note_on_c, 0, 39, 0
2, 60586, Note_on_c, 0, 78, 80
2, 60588, Note_on_c, 0, 38, 80
2, 60588, Note_on_c, 0, 50, 80
2, 60625, Note_on_c, 0, 71, 80
2, 60625, Note_on_c, 0, 77, 80
2, 60625, Note_on_c, 0, 80, 80
2, 60630, Note_on_c, 0, 50, 0
2, 60630, Note_on_c, 0, 78, 0
2, 60630, Note_on_c, 0, 37, 80
2, 60630, Note_on_c, 0, 49, 80
2, 60632, Note_on_c, 0, 38, 0
2, 60696, Note_on_c, 0, 37, 0
2, 60696, Note_on_c, 0, 49, 0
2, 60743, Note_on_c, 0, 70, 80
2, 60743, Note_on_c, 0, 73, 80
2, 60743, Note_on_c, 0, 78, 80
2, 60744, Note_on_c, 0, 80, 0
2, 60744, Note_on_c, 0, 58, 80
2, 60746, Note_on_c, 0, 71, 0
2, 60746, Note_on_c, 0, 77, 0
2, 60746, Note_on_c, 0, 42, 80
2, 60746, Note_on_c, 0, 49, 80
2, 60810, Note_on_c, 0, 73, 0
2, 60810, Note_on_c, 0, 78, 0
2, 60810, Note_on_c, 0, 70, 0
2, 60812, Note_on_c, 0, 58, 0
2, 60812, Note_on_c, 0, 49, 0
2, 60812, Note_on_c, 0, 42, 0
2, 60859, Note_on_c, 0, 61, 80
2, 60859, Note_on_c, 0, 73, 80
2, 60861, Note_on_c, 0, 49, 80
2, 60887, Note_on_c, 0, 73, 0
2, 60888, Note_on_c, 0, 49, 0
2, 60888, Note_on_c, 0, 61, 0
2, 60936, Note_on_c, 0, 75, 80
2, 60937, Note_on_c, 0, 51, 80
2, 60937, Note_on_c, 0, 63, 80
2, 61040, Note_on_c, 0, 63, 0
2, 61040, Note_on_c, 0, 75, 0
2, 61042, Note_on_c, 0, 51, 0
2, 61052, Note_on_c, 0, 61, 80
2, 61052, Note_on_c, 0, 73, 80
2, 61056, Note_on_c, 0, 49, 80
2, 61089, Note_on_c, 0, 71, 80
2, 61089, Note_on_c, 0, 77, 80
2, 61091, Note_on_c, 0, 53, 80
2, 61091, Note_on_c, 0, 59, 80
2, 61091, Note_on_c, 0, 65, 80
2, 61093, Note_on_c, 0, 61, 0
2, 61093, Note_on_c, 0, 37, 80
2, 61095, Note_on_c, 0, 49, 0
2, 61153, Note_on_c, 0, 73, 0
2, 61205, Note_on_c, 0, 58, 80
2, 61205, Note_on_c, 0, 66, 80
2, 61205, Note_on_c, 0, 70, 80
2, 61205, Note_on_c, 0, 73, 80
2, 61205, Note_on_c, 0, 78, 80
2, 61207, Note_on_c, 0, 59, 0
2, 61207, Note_on_c, 0, 65, 0
2, 61207, Note_on_c, 0, 77, 0
2, 61207, Note_on_c, 0, 71, 0
2, 61207, Note_on_c, 0, 42, 80
2, 61207, Note_on_c, 0, 49, 80
2, 61209, Note_on_c, 0, 37, 0
2, 61209, Note_on_c, 0, 53, 0
2, 61245, Note_on_c, 0, 66, 0
2, 61245, Note_on_c, 0, 73, 0
2, 61245, Note_on_c, 0, 78, 0
2, 61245, Note_on_c, 0, 70, 0
2, 61247, Note_on_c, 0, 42, 0
2, 61247, Note_on_c, 0, 58, 0
2, 61247, Note_on_c, 0, 49, 0
2, 61396, Note_on_c, 0, 85, 80
2, 61408, Note_on_c, 0, 87, 80
2, 61419, Note_on_c, 0, 89, 80
2, 61424, Note_on_c, 0, 87, 0
2, 61434, Note_on_c, 0, 78, 80
2, 61434, Note_on_c, 0, 82, 80
2, 61434, Note_on_c, 0, 90, 80
2, 61436, Note_on_c, 0, 89, 0
2, 61438, Note_on_c, 0, 30, 80
2, 61438, Note_on_c, 0, 42, 80
2, 61473, Note_on_c, 0, 85, 0
2, 61473, Note_on_c, 0, 90, 0
2, 61475, Note_on_c, 0, 82, 0
2, 61475, Note_on_c, 0, 78, 0
2, 61477, Note_on_c, 0, 42, 0
2, 61479, Note_on_c, 0, 30, 0
2, 61632, Note_on_c, 0, 54, 80
2, 61648, Note_on_c, 0, 54, 0
2, 61648, Note_on_c, 0, 53, 80
2, 61659, Note_on_c, 0, 52, 80
2, 61661, Note_on_c, 0, 53, 0
2, 61671, Note_on_c, 0, 51, 80
2, 61676, Note_on_c, 0, 52, 0
2, 61676, Note_on_c, 0, 35, 80
2, 61676, Note_on_c, 0, 42, 80
2, 61716, Note_on_c, 0, 42, 0
2, 61716, Note_on_c, 0, 35, 0
2, 61716, Note_on_c, 0, 51, 0
2, 61744, Note_on_c, 0, 71, 80
2, 61744, Note_on_c, 0, 75, 80
2, 61786, Note_on_c, 0, 59, 80
2, 61786, Note_on_c, 0, 63, 80
2, 61786, Note_on_c, 0, 66, 80
2, 61786, Note_on_c, 0, 78, 80
2, 61788, Note_on_c, 0, 75, 0
2, 61788, Note_on_c, 0, 71, 0
2, 61788, Note_on_c, 0, 54, 80
2, 61811, Note_on_c, 0, 78, 0
2, 61813, Note_on_c, 0, 59, 0
2, 61813, Note_on_c, 0, 63, 0
2, 61813, Note_on_c, 0, 66, 0
2, 61813, Note_on_c, 0, 54, 0
2, 61862, Note_on_c, 0, 71, 80
2, 61862, Note_on_c, 0, 75, 80
2, 61906, Note_on_c, 0, 30, 80
2, 61906, Note_on_c, 0, 42, 80
2, 61932, Note_on_c, 0, 75, 0
2, 61932, Note_on_c, 0, 71, 0
2, 61948, Note_on_c, 0, 30, 0
2, 61948, Note_on_c, 0, 42, 0
2, 61979, Note_on_c, 0, 75, 80
2, 61979, Note_on_c, 0, 78, 80
2, 61979, Note_on_c, 0, 83, 80
2, 61995, Note_on_c, 0, 71, 80
2, 62021, Note_on_c, 0, 63, 80
2, 62023, Note_on_c, 0, 54, 80
2, 62023, Note_on_c, 0, 59, 80
2, 62049, Note_on_c, 0, 63, 0
2, 62051, Note_on_c, 0, 54, 0
2, 62051, Note_on_c, 0, 59, 0
2, 62088, Note_on_c, 0, 83, 0
2, 62088, Note_on_c, 0, 75, 0
2, 62088, Note_on_c, 0, 78, 0
2, 62088, Note_on_c, 0, 71, 0
2, 62098, Note_on_c, 0, 70, 80
2, 62103, Note_on_c, 0, 35, 80
2, 62138, Note_on_c, 0, 75, 80
2, 62138, Note_on_c, 0, 78, 80
2, 62138, Note_on_c, 0, 82, 80
2, 62143, Note_on_c, 0, 42, 80
2, 62143, Note_on_c, 0, 51, 80
2, 62145, Note_on_c, 0, 70, 0
2, 62150, Note_on_c, 0, 35, 0
2, 62183, Note_on_c, 0, 78, 0
2, 62183, Note_on_c, 0, 82, 0
2, 62184, Note_on_c, 0, 75, 0
2, 62186, Note_on_c, 0, 51, 0
2, 62186, Note_on_c, 0, 42, 0
2, 62261, Note_on_c, 0, 59, 80
2, 62261, Note_on_c, 0, 63, 80
2, 62261, Note_on_c, 0, 68, 80
2, 62263, Note_on_c, 0, 54, 80
2, 62263, Note_on_c, 0, 56, 80
2, 62291, Note_on_c, 0, 63, 0
2, 62291, Note_on_c, 0, 59, 0
2, 62293, Note_on_c, 0, 54, 0
2, 62293, Note_on_c, 0, 56, 0
2, 62342, Note_on_c, 0, 75, 80
2, 62342, Note_on_c, 0, 78, 80
2, 62342, Note_on_c, 0, 80, 80
2, 62386, Note_on_c, 0, 42, 80
2, 62388, Note_on_c, 0, 30, 80
2, 62409, Note_on_c, 0, 78, 0
2, 62425, Note_on_c, 0, 42, 0
2, 62427, Note_on_c, 0, 30, 0
2, 62447, Note_on_c, 0, 68, 0
2, 62447, Note_on_c, 0, 80, 0
2, 62447, Note_on_c, 0, 75, 0
2, 62456, Note_on_c, 0, 78, 80
2, 62458, Note_on_c, 0, 66, 80
2, 62496, Note_on_c, 0, 70, 80
2, 62496, Note_on_c, 0, 73, 80
2, 62496, Note_on_c, 0, 76, 80
2, 62496, Note_on_c, 0, 82, 80
2, 62497, Note_on_c, 0, 78, 0
2, 62497, Note_on_c, 0, 54, 80
2, 62497, Note_on_c, 0, 58, 80
2, 62497, Note_on_c, 0, 61, 80
2, 62497, Note_on_c, 0, 64, 80
2, 62499, Note_on_c, 0, 66, 0
2, 62525, Note_on_c, 0, 64, 0
2, 62525, Note_on_c, 0, 61, 0
2, 62527, Note_on_c, 0, 54, 0
2, 62527, Note_on_c, 0, 58, 0
2, 62563, Note_on_c, 0, 73, 0
2, 62563, Note_on_c, 0, 70, 0
2, 62563, Note_on_c, 0, 82, 0
2, 62568, Note_on_c, 0, 76, 0
2, 62579, Note_on_c, 0, 35, 80
2, 62605, Control_c, 0, 64, 127
2, 62612, Note_on_c, 0, 51, 80
2, 62614, Note_on_c, 0, 42, 80
2, 62618, Note_on_c, 0, 35, 0
2, 62659, Note_on_c, 0, 42, 0
2, 62659, Note_on_c, 0, 51, 0
2, 62661, Control_c, 0, 64, 0
2, 62691, Note_on_c, 0, 66, 80
2, 62691, Note_on_c, 0, 71, 80
2, 62691, Note_on_c, 0, 75, 80
2, 62691, Note_on_c, 0, 78, 80
2, 62732, Note_on_c, 0, 54, 80
2, 62732, Note_on_c, 0, 56, 80
2, 62732, Note_on_c, 0, 59, 80
2, 62732, Note_on_c, 0, 63, 80
2, 62758, Note_on_c, 0, 63, 0
2, 62758, Note_on_c, 0, 59, 0
2, 62758, Note_on_c, 0, 54, 0
2, 62758, Note_on_c, 0, 71, 0
2, 62758, Note_on_c, 0, 75, 0
2, 62758, Note_on_c, 0, 56, 0
2, 62795, Note_on_c, 0, 66, 0
2, 62795, Note_on_c, 0, 78, 0
2, 62805, Note_on_c, 0, 75, 80
2, 62845, Note_on_c, 0, 66, 80
2, 62845, Note_on_c, 0, 71, 80
2, 62845, Note_on_c, 0, 78, 80
2, 62847, Note_on_c, 0, 47, 80
2, 62849, Note_on_c, 0, 35, 80
2, 62884, Note_on_c, 0, 78, 0
2, 62886, Note_on_c, 0, 47, 0
2, 62886, Note_on_c, 0, 71, 0
2, 62886, Note_on_c, 0, 75, 0
2, 62886, Note_on_c, 0, 66, 0
2, 62888, Note_on_c, 0, 35, 0
2, 62914, Control_c, 0, 64, 127
2, 62958, Note_on_c, 0, 69, 80
2, 62958, Note_on_c, 0, 75, 80
2, 62958, Note_on_c, 0, 80, 80
2, 62963, Note_on_c, 0, 36, 80
2, 62963, Note_on_c, 0, 48, 80
2, 63045, Control_c, 0, 64, 0
2, 63072, Note_on_c, 0, 70, 80
2, 63072, Note_on_c, 0, 76, 80
2, 63072, Note_on_c, 0, 78, 80
2, 63072, Note_on_c, 0, 82, 80
2, 63074, Note_on_c, 0, 80, 0
2, 63074, Note_on_c, 0, 75, 0
2, 63074, Note_on_c, 0, 49, 80
2, 63076, Note_on_c, 0, 69, 0
2, 63076, Note_on_c, 0, 37, 80
2, 63078, Note_on_c, 0, 48, 0
2, 63080, Note_on_c, 0, 36, 0
2, 63113, Note_on_c, 0, 76, 0
2, 63113, Note_on_c, 0, 70, 0
2, 63113, Note_on_c, 0, 78, 0
2, 63113, Note_on_c, 0, 82, 0
2, 63118, Note_on_c, 0, 37, 0
2, 63118, Note_on_c, 0, 49, 0
2, 63186, Note_on_c, 0, 73, 80
2, 63186, Note_on_c, 0, 76, 80
2, 63188, Note_on_c, 0, 58, 80
2, 63188, Note_on_c, 0, 61, 80
2, 63190, Note_on_c, 0, 52, 80
2, 63190, Note_on_c, 0, 54, 80
2, 63216, Note_on_c, 0, 76, 0
2, 63216, Note_on_c, 0, 73, 0
2, 63217, Note_on_c, 0, 61, 0
2, 63217, Note_on_c, 0, 58, 0
2, 63219, Note_on_c, 0, 54, 0
2, 63219, Note_on_c, 0, 52, 0
2, 63262, Control_c, 0, 64, 127
2, 63268, Note_on_c, 0, 70, 80
2, 63268, Note_on_c, 0, 82, 80
2, 63312, Note_on_c, 0, 30, 80
2, 63312, Note_on_c, 0, 42, 80
2, 63314, Control_c, 0, 64, 0
2, 63352, Note_on_c, 0, 42, 0
2, 63354, Note_on_c, 0, 30, 0
2, 63375, Note_on_c, 0, 82, 0
2, 63375, Note_on_c, 0, 70, 0
2, 63384, Note_on_c, 0, 73, 80
2, 63384, Note_on_c, 0, 76, 80
2, 63422, Note_on_c, 0, 82, 80
2, 63424, Note_on_c, 0, 52, 80
2, 63424, Note_on_c, 0, 54, 80
2, 63424, Note_on_c, 0, 58, 80
2, 63424, Note_on_c, 0, 61, 80
2, 63424, Note_on_c, 0, 70, 80
2, 63426, Note_on_c, 0, 76, 0
2, 63426, Note_on_c, 0, 73, 0
2, 63452, Note_on_c, 0, 61, 0
2, 63454, Note_on_c, 0, 52, 0
2, 63454, Note_on_c, 0, 54, 0
2, 63454, Note_on_c, 0, 58, 0
2, 63491, Note_on_c, 0, 70, 0
2, 63491, Note_on_c, 0, 82, 0
2, 63533, Control_c, 0, 64, 127
2, 63543, Note_on_c, 0, 54, 80
2, 63545, Note_on_c, 0, 42, 80
2, 63615, Note_on_c, 0, 73, 80
2, 63617, Note_on_c, 0, 70, 80
2, 63626, Control_c, 0, 64, 0
2, 63654, Note_on_c, 0, 76, 80
2, 63656, Note_on_c, 0, 73, 0
2, 63656, Note_on_c, 0, 64, 80
2, 63658, Note_on_c, 0, 70, 0
2, 63721, Note_on_c, 0, 76, 0
2, 63721, Note_on_c, 0, 64, 0
2, 63731, Note_on_c, 0, 73, 80
2, 63733, Note_on_c, 0, 70, 80
2, 63773, Note_on_c, 0, 70, 0
2, 63773, Note_on_c, 0, 73, 0
2, 63773, Note_on_c, 0, 43, 80
2, 63773, Note_on_c, 0, 55, 80
2, 63775, Note_on_c, 0, 54, 0
2, 63777, Note_on_c, 0, 42, 0
2, 63847, Note_on_c, 0, 69, 80
2, 63847, Note_on_c, 0, 73, 80
2, 63888, Note_on_c, 0, 64, 80
2, 63888, Note_on_c, 0, 76, 80
2, 63889, Note_on_c, 0, 73, 0
2, 63889, Note_on_c, 0, 69, 0
2, 63953, Note_on_c, 0, 76, 0
2, 63955, Note_on_c, 0, 64, 0
2, 63964, Note_on_c, 0, 69, 80
2, 63964, Note_on_c, 0, 73, 80
2, 64005, Note_on_c, 0, 73, 0
2, 64005, Note_on_c, 0, 69, 0
2, 64005, Note_on_c, 0, 44, 80
2, 64005, Note_on_c, 0, 56, 80
2, 64007, Note_on_c, 0, 43, 0
2, 64007, Note_on_c, 0, 55, 0
2, 64080, Note_on_c, 0, 68, 80
2, 64080, Note_on_c, 0, 73, 80
2, 64120, Note_on_c, 0, 64, 80
2, 64120, Note_on_c, 0, 76, 80
2, 64122, Note_on_c, 0, 73, 0
2, 64122, Note_on_c, 0, 68, 0
2, 64185, Note_on_c, 0, 76, 0
2, 64187, Note_on_c, 0, 64, 0
2, 64194, Note_on_c, 0, 73, 80
2, 64196, Note_on_c, 0, 68, 80
2, 64236, Note_on_c, 0, 68, 0
2, 64236, Note_on_c, 0, 73, 0
2, 64236, Note_on_c, 0, 45, 80
2, 64236, Note_on_c, 0, 57, 80
2, 64238, Note_on_c, 0, 56, 0
2, 64240, Note_on_c, 0, 44, 0
2, 64305, Note_on_c, 0, 67, 80
2, 64305, Note_on_c, 0, 73, 80
2, 64343, Note_on_c, 0, 76, 80
2, 64344, Note_on_c, 0, 64, 80
2, 64346, Note_on_c, 0, 73, 0
2, 64346, Note_on_c, 0, 67, 0
2, 64412, Note_on_c, 0, 76, 0
2, 64412, Note_on_c, 0, 64, 0
2, 64421, Note_on_c, 0, 67, 80
2, 64421, Note_on_c, 0, 73, 80
2, 64459, Note_on_c, 0, 76, 80
2, 64461, Note_on_c, 0, 73, 0
2, 64461, Note_on_c, 0, 46, 80
2, 64461, Note_on_c, 0, 58, 80
2, 64461, Note_on_c, 0, 64, 80
2, 64463, Note_on_c, 0, 67, 0
2, 64463, Note_on_c, 0, 57, 0
2, 64467, Note_on_c, 0, 45, 0
2, 64503, Note_on_c, 0, 46, 0
2, 64503, Note_on_c, 0, 58, 0
2, 64524, Note_on_c, 0, 76, 0
2, 64529, Note_on_c, 0, 64, 0
2, 64573, Note_on_c, 0, 78, 80
2, 64575, Note_on_c, 0, 52, 80
2, 64575, Note_on_c, 0, 54, 80
2, 64575, Note_on_c, 0, 58, 80
2, 64575, Note_on_c, 0, 61, 80
2, 64575, Note_on_c, 0, 66, 80
2, 64603, Note_on_c, 0, 78, 0
2, 64605, Note_on_c, 0, 54, 0
2, 64605, Note_on_c, 0, 58, 0
2, 64605, Note_on_c, 0, 52, 0
2, 64605, Note_on_c, 0, 66, 0
2, 64605, Note_on_c, 0, 61, 0
2, 64652, Note_on_c, 0, 80, 80
2, 64654, Note_on_c, 0, 70, 80
2, 64654, Note_on_c, 0, 73, 80
2, 64654, Note_on_c, 0, 76, 80
2, 64656, Note_on_c, 0, 68, 80
2, 64698, Note_on_c, 0, 42, 80
2, 64700, Note_on_c, 0, 30, 80
2, 64726, Note_on_c, 0, 76, 0
2, 64730, Control_c, 0, 64, 127
2, 64740, Note_on_c, 0, 42, 0
2, 64742, Note_on_c, 0, 30, 0
2, 64761, Note_on_c, 0, 80, 0
2, 64763, Note_on_c, 0, 70, 0
2, 64763, Note_on_c, 0, 73, 0
2, 64765, Note_on_c, 0, 68, 0
2, 64772, Note_on_c, 0, 76, 80
2, 64783, Control_c, 0, 64, 0
2, 64811, Note_on_c, 0, 70, 80
2, 64811, Note_on_c, 0, 73, 80
2, 64811, Note_on_c, 0, 82, 80
2, 64813, Note_on_c, 0, 52, 80
2, 64813, Note_on_c, 0, 54, 80
2, 64813, Note_on_c, 0, 58, 80
2, 64813, Note_on_c, 0, 61, 80
2, 64815, Note_on_c, 0, 76, 0
2, 64841, Note_on_c, 0, 61, 0
2, 64841, Note_on_c, 0, 54, 0
2, 64841, Note_on_c, 0, 58, 0
2, 64843, Note_on_c, 0, 52, 0
2, 64880, Note_on_c, 0, 70, 0
2, 64880, Note_on_c, 0, 73, 0
2, 64880, Note_on_c, 0, 82, 0
2, 64890, Note_on_c, 0, 76, 80
2, 64932, Note_on_c, 0, 71, 80
2, 64932, Note_on_c, 0, 75, 80
2, 64932, Note_on_c, 0, 80, 80
2, 64934, Note_on_c, 0, 76, 0
2, 64934, Note_on_c, 0, 59, 80
2, 64934, Note_on_c, 0, 68, 80
2, 64936, Note_on_c, 0, 47, 80
2, 65016, Note_on_c, 0, 68, 0
2, 65016, Note_on_c, 0, 71, 0
2, 65016, Note_on_c, 0, 80, 0
2, 65016, Note_on_c, 0, 75, 0
2, 65017, Note_on_c, 0, 59, 0
2, 65019, Note_on_c, 0, 47, 0
2, 65052, Note_on_c, 0, 79, 80
2, 65054, Note_on_c, 0, 67, 80
2, 65056, Note_on_c, 0, 46, 80
2, 65056, Note_on_c, 0, 58, 80
2, 65084, Note_on_c, 0, 79, 0
2, 65086, Note_on_c, 0, 67, 0
2, 65135, Note_on_c, 0, 66, 80
2, 65135, Note_on_c, 0, 71, 80
2, 65135, Note_on_c, 0, 75, 80
2, 65135, Note_on_c, 0, 78, 80
2, 65177, Note_on_c, 0, 44, 80
2, 65177, Note_on_c, 0, 56, 80
2, 65179, Note_on_c, 0, 58, 0
2, 65181, Note_on_c, 0, 46, 0
2, 65202, Note_on_c, 0, 75, 0
2, 65242, Note_on_c, 0, 66, 0
2, 65242, Note_on_c, 0, 71, 0
2, 65242, Note_on_c, 0, 78, 0
2, 65252, Note_on_c, 0, 75, 80
2, 65289, Note_on_c, 0, 71, 80
2, 65289, Note_on_c, 0, 78, 80
2, 65291, Note_on_c, 0, 54, 80
2, 65291, Note_on_c, 0, 66, 80
2, 65293, Note_on_c, 0, 75, 0
2, 65293, Note_on_c, 0, 56, 0
2, 65293, Note_on_c, 0, 42, 80
2, 65295, Note_on_c, 0, 44, 0
2, 65358, Note_on_c, 0, 71, 0
2, 65358, Note_on_c, 0, 78, 0
2, 65358, Note_on_c, 0, 66, 0
2, 65360, Note_on_c, 0, 54, 0
2, 65360, Note_on_c, 0, 42, 0
2, 65372, Note_on_c, 0, 35, 80
2, 65409, Note_on_c, 0, 42, 80
2, 65409, Note_on_c, 0, 51, 80
2, 65414, Note_on_c, 0, 35, 0
2, 65449, Note_on_c, 0, 51, 0
2, 65449, Note_on_c, 0, 42, 0
2, 65482, Note_on_c, 0, 71, 80
2, 65482, Note_on_c, 0, 75, 80
2, 65522, Note_on_c, 0, 63, 80
2, 65522, Note_on_c, 0, 66, 80
2, 65522, Note_on_c, 0, 78, 80
2, 65524, Note_on_c, 0, 75, 0
2, 65524, Note_on_c, 0, 71, 0
2, 65524, Note_on_c, 0, 54, 80
2, 65524, Note_on_c, 0, 59, 80
2, 65550, Note_on_c, 0, 66, 0
2, 65550, Note_on_c, 0, 78, 0
2, 65552, Note_on_c, 0, 54, 0
2, 65552, Note_on_c, 0, 63, 0
2, 65552, Note_on_c, 0, 59, 0
2, 65596, Note_on_c, 0, 71, 80
2, 65596, Note_on_c, 0, 75, 80
2, 65629, Control_c, 0, 64, 127
2, 65640, Note_on_c, 0, 30, 80
2, 65640, Note_on_c, 0, 42, 80
2, 65666, Note_on_c, 0, 75, 0
2, 65666, Note_on_c, 0, 71, 0
2, 65681, Note_on_c, 0, 42, 0
2, 65683, Note_on_c, 0, 30, 0
2, 65683, Control_c, 0, 64, 0
2, 65711, Note_on_c, 0, 83, 80
2, 65712, Note_on_c, 0, 71, 80
2, 65712, Note_on_c, 0, 75, 80
2, 65712, Note_on_c, 0, 78, 80
2, 65753, Note_on_c, 0, 54, 80
2, 65753, Note_on_c, 0, 56, 80
2, 65753, Note_on_c, 0, 59, 80
2, 65753, Note_on_c, 0, 63, 80
2, 65781, Note_on_c, 0, 63, 0
2, 65781, Note_on_c, 0, 59, 0
2, 65781, Note_on_c, 0, 56, 0
2, 65783, Note_on_c, 0, 54, 0
2, 65804, Note_on_c, 0, 83, 0
2, 65806, Note_on_c, 0, 78, 0
2, 65806, Note_on_c, 0, 75, 0
2, 65820, Note_on_c, 0, 71, 0
2, 65830, Note_on_c, 0, 70, 80
2, 65870, Note_on_c, 0, 75, 80
2, 65870, Note_on_c, 0, 78, 80
2, 65870, Note_on_c, 0, 82, 80
2, 65872, Note_on_c, 0, 70, 0
2, 65874, Note_on_c, 0, 35, 80
2, 65874, Note_on_c, 0, 47, 80
2, 65909, Note_on_c, 0, 78, 0
2, 65911, Note_on_c, 0, 82, 0
2, 65911, Note_on_c, 0, 75, 0
2, 65913, Note_on_c, 0, 47, 0
2, 65915, Note_on_c, 0, 35, 0
2, 65985, Note_on_c, 0, 54, 80
2, 65985, Note_on_c, 0, 56, 80
2, 65985, Note_on_c, 0, 59, 80
2, 65985, Note_on_c, 0, 63, 80
2, 65985, Note_on_c, 0, 68, 80
2, 66016, Note_on_c, 0, 63, 0
2, 66016, Note_on_c, 0, 59, 0
2, 66016, Note_on_c, 0, 54, 0
2, 66016, Note_on_c, 0, 56, 0
2, 66063, Note_on_c, 0, 71, 80
2, 66063, Note_on_c, 0, 75, 80
2, 66063, Note_on_c, 0, 78, 80
2, 66063, Note_on_c, 0, 80, 80
2, 66105, Note_on_c, 0, 42, 80
2, 66107, Note_on_c, 0, 30, 80
2, 66149, Note_on_c, 0, 30, 0
2, 66149, Note_on_c, 0, 42, 0
2, 66170, Note_on_c, 0, 71, 0
2, 66170, Note_on_c, 0, 75, 0
2, 66170, Note_on_c, 0, 68, 0
2, 66170, Note_on_c, 0, 80, 0
2, 66170, Note_on_c, 0, 78, 0
2, 66180, Note_on_c, 0, 66, 80
2, 66217, Note_on_c, 0, 78, 80
2, 66219, Note_on_c, 0, 54, 80
2, 66219, Note_on_c, 0, 56, 80
2, 66219, Note_on_c, 0, 59, 80
2, 66219, Note_on_c, 0, 63, 80
2, 66219, Note_on_c, 0, 71, 80
2, 66219, Note_on_c, 0, 75, 80
2, 66247, Note_on_c, 0, 63, 0
2, 66249, Note_on_c, 0, 56, 0
2, 66249, Note_on_c, 0, 54, 0
2, 66249, Note_on_c, 0, 59, 0
2, 66285, Note_on_c, 0, 78, 0
2, 66287, Note_on_c, 0, 75, 0
2, 66287, Note_on_c, 0, 66, 0
2, 66287, Note_on_c, 0, 71, 0
2, 66327, Control_c, 0, 64, 127
2, 66336, Note_on_c, 0, 47, 80
2, 66338, Note_on_c, 0, 35, 80
2, 66381, Control_c, 0, 64, 0
2, 66411, Note_on_c, 0, 66, 80
2, 66411, Note_on_c, 0, 71, 80
2, 66411, Note_on_c, 0, 75, 80
2, 66411, Note_on_c, 0, 78, 80
2, 66449, Note_on_c, 0, 63, 80
2, 66451, Note_on_c, 0, 54, 80
2, 66451, Note_on_c, 0, 59, 80
2, 66477, Note_on_c, 0, 75, 0
2, 66479, Note_on_c, 0, 59, 0
2, 66479, Note_on_c, 0, 54, 0
2, 66479, Note_on_c, 0, 63, 0
2, 66514, Note_on_c, 0, 78, 0
2, 66516, Note_on_c, 0, 66, 0
2, 66516, Note_on_c, 0, 71, 0
2, 66526, Note_on_c, 0, 75, 80
2, 66566, Note_on_c, 0, 78, 80
2, 66568, Note_on_c, 0, 49, 80
2, 66568, Note_on_c, 0, 66, 80
2, 66568, Note_on_c, 0, 71, 80
2, 66570, Note_on_c, 0, 37, 80
2, 66572, Note_on_c, 0, 47, 0
2, 66574, Note_on_c, 0, 35, 0
2, 66606, Note_on_c, 0, 78, 0
2, 66606, Note_on_c, 0, 75, 0
2, 66608, Note_on_c, 0, 71, 0
2, 66608, Note_on_c, 0, 66, 0
2, 66610, Note_on_c, 0, 37, 0
2, 66610, Note_on_c, 0, 49, 0
2, 66678, Note_on_c, 0, 72, 80
2, 66678, Note_on_c, 0, 79, 80
2, 66680, Note_on_c, 0, 67, 80
2, 66680, Note_on_c, 0, 75, 80
2, 66682, Note_on_c, 0, 39, 80
2, 66682, Note_on_c, 0, 51, 80
2, 66792, Note_on_c, 0, 80, 80
2, 66797, Note_on_c, 0, 73, 80
2, 66797, Note_on_c, 0, 76, 80
2, 66799, Note_on_c, 0, 75, 0
2, 66799, Note_on_c, 0, 79, 0
2, 66799, Note_on_c, 0, 72, 0
2, 66799, Note_on_c, 0, 40, 80
2, 66799, Note_on_c, 0, 52, 80
2, 66799, Note_on_c, 0, 68, 80
2, 66801, Note_on_c, 0, 51, 0
2, 66801, Note_on_c, 0, 67, 0
2, 66803, Note_on_c, 0, 39, 0
2, 66839, Note_on_c, 0, 52, 0
2, 66840, Note_on_c, 0, 40, 0
2, 66862, Note_on_c, 0, 68, 0
2, 66862, Note_on_c, 0, 73, 0
2, 66862, Note_on_c, 0, 80, 0
2, 66864, Note_on_c, 0, 76, 0
2, 66911, Note_on_c, 0, 56, 80
2, 66911, Note_on_c, 0, 61, 80
2, 66911, Note_on_c, 0, 64, 80
2, 66911, Note_on_c, 0, 73, 80
2, 66911, Note_on_c, 0, 76, 80
2, 66941, Note_on_c, 0, 73, 0
2, 66943, Note_on_c, 0, 64, 0
2, 66943, Note_on_c, 0, 56, 0
2, 66943, Note_on_c, 0, 61, 0
2, 66943, Note_on_c, 0, 76, 0
2, 66985, Control_c, 0, 64, 127
2, 66990, Note_on_c, 0, 80, 80
2, 66992, Note_on_c, 0, 68, 80
2, 67032, Note_on_c, 0, 37, 80
2, 67032, Note_on_c, 0, 49, 80
2, 67034, Control_c, 0, 64, 0
2, 67075, Note_on_c, 0, 49, 0
2, 67075, Note_on_c, 0, 37, 0
2, 67096, Note_on_c, 0, 80, 0
2, 67098, Note_on_c, 0, 68, 0
2, 67103, Note_on_c, 0, 73, 80
2, 67103, Note_on_c, 0, 76, 80
2, 67143, Note_on_c, 0, 68, 80
2, 67143, Note_on_c, 0, 80, 80
2, 67145, Note_on_c, 0, 73, 0
2, 67145, Note_on_c, 0, 52, 80
2, 67145, Note_on_c, 0, 56, 80
2, 67145, Note_on_c, 0, 61, 80
2, 67147, Note_on_c, 0, 76, 0
2, 67170, Note_on_c, 0, 56, 0
2, 67170, Note_on_c, 0, 61, 0
2, 67175, Note_on_c, 0, 52, 0
2, 67207, Note_on_c, 0, 80, 0
2, 67212, Note_on_c, 0, 68, 0
2, 67254, Control_c, 0, 64, 127
2, 67264, Note_on_c, 0, 40, 80
2, 67264, Note_on_c, 0, 52, 80
2, 67311, Control_c, 0, 64, 0
2, 67332, Note_on_c, 0, 52, 0
2, 67334, Note_on_c, 0, 40, 0
2, 67339, Note_on_c, 0, 68, 80
2, 67339, Note_on_c, 0, 73, 80
2, 67339, Note_on_c, 0, 76, 80
2, 67339, Note_on_c, 0, 80, 80
2, 67381, Note_on_c, 0, 52, 80
2, 67381, Note_on_c, 0, 56, 80
2, 67381, Note_on_c, 0, 61, 80
2, 67409, Note_on_c, 0, 61, 0
2, 67409, Note_on_c, 0, 76, 0
2, 67411, Note_on_c, 0, 52, 0
2, 67411, Note_on_c, 0, 56, 0
2, 67432, Note_on_c, 0, 73, 0
2, 67446, Note_on_c, 0, 80, 0
2, 67446, Note_on_c, 0, 68, 0
2, 67456, Note_on_c, 0, 76, 80
2, 67493, Note_on_c, 0, 80, 80
2, 67498, Note_on_c, 0, 68, 80
2, 67498, Note_on_c, 0, 73, 80
2, 67500, Note_on_c, 0, 40, 80
2, 67500, Note_on_c, 0, 52, 80
2, 67615, Note_on_c, 0, 73, 0
2, 67615, Note_on_c, 0, 68, 0
2, 67615, Note_on_c, 0, 76, 0
2, 67615, Note_on_c, 0, 80, 0
2, 67615, Note_on_c, 0, 53, 80
2, 67617, Note_on_c, 0, 41, 80
2, 67619, Note_on_c, 0, 52, 0
2, 67619, Note_on_c, 0, 40, 0
2, 67692, Note_on_c, 0, 79, 80
2, 67694, Note_on_c, 0, 67, 80
2, 67694, Note_on_c, 0, 71, 80
2, 67694, Note_on_c, 0, 75, 80
2, 67725, Note_on_c, 0, 53, 0
2, 67725, Note_on_c, 0, 41, 0
2, 67734, Note_on_c, 0, 42, 80
2, 67734, Note_on_c, 0, 54, 80
2, 67762, Note_on_c, 0, 71, 0
2, 67762, Note_on_c, 0, 79, 0
2, 67762, Note_on_c, 0, 75, 0
2, 67764, Note_on_c, 0, 67, 0
2, 67778, Note_on_c, 0, 54, 0
2, 67780, Note_on_c, 0, 42, 0
2, 67811, Note_on_c, 0, 66, 80
2, 67811, Note_on_c, 0, 71, 80
2, 67811, Note_on_c, 0, 75, 80
2, 67811, Note_on_c, 0, 78, 80
2, 67853, Note_on_c, 0, 59, 80
2, 67853, Note_on_c, 0, 63, 80
2, 67855, Note_on_c, 0, 54, 80
2, 67881, Note_on_c, 0, 75, 0
2, 67883, Note_on_c, 0, 63, 0
2, 67883, Note_on_c, 0, 59, 0
2, 67883, Note_on_c, 0, 54, 0
2, 67919, Note_on_c, 0, 66, 0
2, 67919, Note_on_c, 0, 78, 0
2, 67919, Note_on_c, 0, 71, 0
2, 67928, Note_on_c, 0, 75, 80
2, 67964, Control_c, 0, 64, 127
2, 67968, Note_on_c, 0, 80, 80
2, 67970, Note_on_c, 0, 66, 80
2, 67970, Note_on_c, 0, 72, 80
2, 67975, Note_on_c, 0, 75, 0
2, 67975, Note_on_c, 0, 44, 80
2, 67977, Note_on_c, 0, 32, 80
2, 68017, Note_on_c, 0, 44, 0
2, 68019, Note_on_c, 0, 32, 0
2, 68019, Control_c, 0, 64, 0
2, 68040, Note_on_c, 0, 72, 0
2, 68040, Note_on_c, 0, 66, 0
2, 68040, Note_on_c, 0, 80, 0
2, 68089, Note_on_c, 0, 72, 80
2, 68089, Note_on_c, 0, 75, 80
2, 68091, Note_on_c, 0, 60, 80
2, 68091, Note_on_c, 0, 63, 80
2, 68093, Note_on_c, 0, 54, 80
2, 68119, Note_on_c, 0, 75, 0
2, 68119, Note_on_c, 0, 72, 0
2, 68121, Note_on_c, 0, 63, 0
2, 68121, Note_on_c, 0, 54, 0
2, 68136, Note_on_c, 0, 60, 0
2, 68166, Note_on_c, 0, 80, 80
2, 68168, Note_on_c, 0, 68, 80
2, 68168, Note_on_c, 0, 71, 80
2, 68168, Note_on_c, 0, 77, 80
2, 68208, Note_on_c, 0, 37, 80
2, 68208, Note_on_c, 0, 49, 80
2, 68232, Note_on_c, 0, 80, 0
2, 68233, Note_on_c, 0, 77, 0
2, 68233, Note_on_c, 0, 68, 0
2, 68233, Note_on_c, 0, 71, 0
2, 68250, Note_on_c, 0, 49, 0
2, 68250, Note_on_c, 0, 37, 0
2, 68280, Note_on_c, 0, 65, 80
2, 68280, Note_on_c, 0, 71, 80
2, 68280, Note_on_c, 0, 75, 80
2, 68321, Note_on_c, 0, 49, 80
2, 68321, Note_on_c, 0, 53, 80
2, 68321, Note_on_c, 0, 59, 80
2, 68352, Note_on_c, 0, 59, 0
2, 68352, Note_on_c, 0, 71, 0
2, 68353, Note_on_c, 0, 49, 0
2, 68353, Note_on_c, 0, 53, 0
2, 68391, Note_on_c, 0, 75, 0
2, 68391, Note_on_c, 0, 65, 0
2, 68400, Note_on_c, 0, 71, 80
2, 68441, Note_on_c, 0, 66, 80
2, 68441, Note_on_c, 0, 75, 80
2, 68443, Note_on_c, 0, 71, 0
2, 68445, Note_on_c, 0, 30, 80
2, 68445, Note_on_c, 0, 42, 80
2, 68487, Note_on_c, 0, 42, 0
2, 68487, Note_on_c, 0, 30, 0
2, 68508, Note_on_c, 0, 75, 0
2, 68508, Note_on_c, 0, 66, 0
2, 68518, Note_on_c, 0, 70, 80
2, 68558, Note_on_c, 0, 52, 80
2, 68558, Note_on_c, 0, 54, 80
2, 68558, Note_on_c, 0, 58, 80
2, 68558, Note_on_c, 0, 61, 80
2, 68558, Note_on_c, 0, 64, 80
2, 68558, Note_on_c, 0, 73, 80
2, 68560, Note_on_c, 0, 70, 0
2, 68583, Note_on_c, 0, 73, 0
2, 68585, Note_on_c, 0, 54, 0
2, 68585, Note_on_c, 0, 58, 0
2, 68585, Note_on_c, 0, 61, 0
2, 68585, Note_on_c, 0, 64, 0
2, 68587, Note_on_c, 0, 52, 0
2, 68631, Note_on_c, 0, 63, 80
2, 68631, Note_on_c, 0, 66, 80
2, 68631, Note_on_c, 0, 71, 80
2, 68675, Note_on_c, 0, 47, 80
2, 68675, Note_on_c, 0, 59, 80
2, 68743, Control_c, 0, 64, 127
2, 68753, Note_on_c, 0, 59, 0
2, 68755, Note_on_c, 0, 47, 0
2, 68790, Note_on_c, 0, 54, 80
2, 68792, Note_on_c, 0, 42, 80
2, 68834, Control_c, 0, 64, 0
2, 68865, Note_on_c, 0, 78, 80
2, 68870, Note_on_c, 0, 63, 0
2, 68870, Note_on_c, 0, 71, 0
2, 68870, Note_on_c, 0, 66, 0
2, 68880, Note_on_c, 0, 80, 80
2, 68891, Note_on_c, 0, 82, 80
2, 68896, Note_on_c, 0, 80, 0
2, 68903, Note_on_c, 0, 83, 80
2, 68904, Note_on_c, 0, 71, 80
2, 68904, Note_on_c, 0, 75, 80
2, 68906, Note_on_c, 0, 82, 0
2, 68906, Note_on_c, 0, 35, 80
2, 68906, Note_on_c, 0, 47, 80
2, 68908, Note_on_c, 0, 54, 0
2, 68908, Note_on_c, 0, 42, 0
2, 68944, Note_on_c, 0, 75, 0
2, 68944, Note_on_c, 0, 78, 0
2, 68944, Note_on_c, 0, 83, 0
2, 68944, Note_on_c, 0, 71, 0
2, 68946, Note_on_c, 0, 47, 0
2, 68948, Note_on_c, 0, 35, 0
2, 69140, Note_on_c, 0, 63, 80
2, 69140, Note_on_c, 0, 75, 80
2, 69140, Note_on_c, 0, 87, 80
2, 69142, Note_on_c, 0, 51, 80
2, 69212, Note_on_c, 0, 51, 0
2, 69212, Note_on_c, 0, 63, 0
2, 69212, Note_on_c, 0, 75, 0
2, 69212, Note_on_c, 0, 87, 0
2, 69218, Note_on_c, 0, 79, 80
2, 69218, Note_on_c, 0, 91, 80
2, 69259, Note_on_c, 0, 82, 80
2, 69259, Note_on_c, 0, 94, 80
2, 69261, Note_on_c, 0, 91, 0
2, 69261, Note_on_c, 0, 79, 0
2, 69261, Note_on_c, 0, 55, 80
2, 69261, Note_on_c, 0, 67, 80
2, 69287, Note_on_c, 0, 94, 0
2, 69288, Note_on_c, 0, 82, 0
2, 69336, Note_on_c, 0, 85, 80
2, 69336, Note_on_c, 0, 91, 80
2, 69336, Note_on_c, 0, 99, 80
2, 69340, Note_on_c, 0, 55, 0
2, 69340, Note_on_c, 0, 67, 0
2, 69378, Note_on_c, 0, 58, 80
2, 69378, Note_on_c, 0, 70, 80
2, 69453, Note_on_c, 0, 94, 80
2, 69457, Note_on_c, 0, 91, 0
2, 69457, Note_on_c, 0, 99, 0
2, 69457, Note_on_c, 0, 85, 0
2, 69459, Note_on_c, 0, 58, 0
2, 69459, Note_on_c, 0, 70, 0
2, 69495, Note_on_c, 0, 61, 80
2, 69495, Note_on_c, 0, 73, 80
2, 69495, Note_on_c, 0, 91, 80
2, 69497, Note_on_c, 0, 94, 0
2, 69565, Note_on_c, 0, 91, 0
2, 69567, Note_on_c, 0, 73, 0
2, 69567, Note_on_c, 0, 61, 0
2, 69576, Note_on_c, 0, 87, 80
2, 69617, Note_on_c, 0, 58, 80
2, 69617, Note_on_c, 0, 70, 80
2, 69685, Note_on_c, 0, 70, 0
2, 69685, Note_on_c, 0, 58, 0
2, 69685, Note_on_c, 0, 87, 0
2, 69687, Note_on_c, 0, 91, 80
2, 69692, Note_on_c, 0, 79, 80
2, 69727, Note_on_c, 0, 82, 80
2, 69727, Note_on_c, 0, 94, 80
2, 69729, Note_on_c, 0, 79, 0
2, 69729, Note_on_c, 0, 91, 0
2, 69729, Note_on_c, 0, 55, 80
2, 69729, Note_on_c, 0, 67, 80
2, 69755, Note_on_c, 0, 94, 0
2, 69757, Note_on_c, 0, 82, 0
2, 69806, Note_on_c, 0, 85, 80
2, 69806, Note_on_c, 0, 91, 80
2, 69806, Note_on_c, 0, 99, 80
2, 69846, Note_on_c, 0, 51, 80
2, 69846, Note_on_c, 0, 63, 80
2, 69848, Note_on_c, 0, 55, 0
2, 69848, Note_on_c, 0, 67, 0
2, 69905, Note_on_c, 0, 99, 0
2, 69907, Note_on_c, 0, 85, 0
2, 69907, Note_on_c, 0, 91, 0
2, 69907, Note_on_c, 0, 63, 0
2, 69909, Note_on_c, 0, 51, 0
2, 69913, Note_on_c, 0, 97, 80
2, 69949, Note_on_c, 0, 91, 80
2, 69949, Note_on_c, 0, 95, 80
2, 69951, Note_on_c, 0, 55, 80
2, 69953, Note_on_c, 0, 97, 0
2, 69953, Note_on_c, 0, 43, 80
2, 70013, Note_on_c, 0, 95, 0
2, 70015, Note_on_c, 0, 91, 0
2, 70025, Note_on_c, 0, 94, 80
2, 70062, Note_on_c, 0, 83, 80
2, 70062, Note_on_c, 0, 87, 80
2, 70062, Note_on_c, 0, 92, 80
2, 70062, Note_on_c, 0, 95, 80
2, 70064, Note_on_c, 0, 94, 0
2, 70064, Note_on_c, 0, 56, 80
2, 70066, Note_on_c, 0, 44, 80
2, 70068, Note_on_c, 0, 43, 0
2, 70068, Note_on_c, 0, 55, 0
2, 70105, Note_on_c, 0, 44, 0
2, 70105, Note_on_c, 0, 56, 0
2, 70127, Note_on_c, 0, 95, 0
2, 70127, Note_on_c, 0, 92, 0
2, 70128, Note_on_c, 0, 83, 0
2, 70128, Note_on_c, 0, 87, 0
2, 70177, Note_on_c, 0, 85, 80
2, 70177, Note_on_c, 0, 97, 80
2, 70179, Note_on_c, 0, 63, 80
2, 70181, Note_on_c, 0, 56, 80
2, 70181, Note_on_c, 0, 59, 80
2, 70204, Note_on_c, 0, 97, 0
2, 70206, Note_on_c, 0, 85, 0
2, 70206, Note_on_c, 0, 59, 0
2, 70206, Note_on_c, 0, 63, 0
2, 70208, Note_on_c, 0, 56, 0
2, 70257, Note_on_c, 0, 80, 80
2, 70257, Note_on_c, 0, 83, 80
2, 70257, Note_on_c, 0, 87, 80
2, 70257, Note_on_c, 0, 92, 80
2, 70301, Note_on_c, 0, 39, 80
2, 70301, Note_on_c, 0, 51, 80
2, 70344, Note_on_c, 0, 51, 0
2, 70344, Note_on_c, 0, 39, 0
2, 70365, Note_on_c, 0, 87, 0
2, 70365, Note_on_c, 0, 80, 0
2, 70365, Note_on_c, 0, 83, 0
2, 70365, Note_on_c, 0, 92, 0
2, 70374, Note_on_c, 0, 79, 80
2, 70374, Note_on_c, 0, 91, 80
2, 70416, Note_on_c, 0, 80, 80
2, 70416, Note_on_c, 0, 83, 80
2, 70416, Note_on_c, 0, 87, 80
2, 70416, Note_on_c, 0, 92, 80
2, 70418, Note_on_c, 0, 91, 0
2, 70418, Note_on_c, 0, 56, 80
2, 70418, Note_on_c, 0, 59, 80
2, 70418, Note_on_c, 0, 63, 80
2, 70420, Note_on_c, 0, 79, 0
2, 70448, Note_on_c, 0, 63, 0
2, 70448, Note_on_c, 0, 56, 0
2, 70448, Note_on_c, 0, 59, 0
2, 70484, Note_on_c, 0, 92, 0
2, 70486, Note_on_c, 0, 80, 0
2, 70486, Note_on_c, 0, 87, 0
2, 70486, Note_on_c, 0, 83, 0
2, 70495, Note_on_c, 0, 94, 80
2, 70497, Note_on_c, 0, 82, 80
2, 70535, Note_on_c, 0, 83, 80
2, 70535, Note_on_c, 0, 87, 80
2, 70535, Note_on_c, 0, 92, 80
2, 70535, Note_on_c, 0, 95, 80
2, 70536, Note_on_c, 0, 94, 0
2, 70536, Note_on_c, 0, 32, 80
2, 70536, Note_on_c, 0, 44, 80
2, 70538, Note_on_c, 0, 82, 0
2, 70604, Note_on_c, 0, 83, 0
2, 70604, Note_on_c, 0, 87, 0
2, 70604, Note_on_c, 0, 92, 0
2, 70604, Note_on_c, 0, 95, 0
2, 70606, Note_on_c, 0, 44, 0
2, 70606, Note_on_c, 0, 32, 0
2, 70653, Note_on_c, 0, 46, 80
2, 70653, Note_on_c, 0, 82, 80
2, 70653, Note_on_c, 0, 85, 80
2, 70653, Note_on_c, 0, 87, 80
2, 70653, Note_on_c, 0, 91, 80
2, 70653, Note_on_c, 0, 94, 80
2, 70655, Note_on_c, 0, 34, 80
2, 70680, Note_on_c, 0, 94, 0
2, 70680, Note_on_c, 0, 87, 0
2, 70680, Note_on_c, 0, 85, 0
2, 70680, Note_on_c, 0, 91, 0
2, 70682, Note_on_c, 0, 82, 0
2, 70734, Note_on_c, 0, 80, 80
2, 70734, Note_on_c, 0, 83, 80
2, 70734, Note_on_c, 0, 87, 80
2, 70734, Note_on_c, 0, 92, 80
2, 70772, Note_on_c, 0, 35, 80
2, 70772, Note_on_c, 0, 47, 80
2, 70774, Note_on_c, 0, 34, 0
2, 70774, Note_on_c, 0, 46, 0
2, 70800, Note_on_c, 0, 83, 0
2, 70837, Note_on_c, 0, 80, 0
2, 70837, Note_on_c, 0, 87, 0
2, 70837, Note_on_c, 0, 92, 0
2, 70847, Note_on_c, 0, 83, 80
2, 70882, Note_on_c, 0, 44, 80
2, 70884, Note_on_c, 0, 32, 80
2, 70884, Note_on_c, 0, 87, 80
2, 70886, Note_on_c, 0, 47, 0
2, 70886, Note_on_c, 0, 35, 0
2, 70888, Note_on_c, 0, 83, 0
2, 70953, Note_on_c, 0, 44, 0
2, 70953, Note_on_c, 0, 32, 0
2, 70953, Note_on_c, 0, 87, 0
2, 70965, Note_on_c, 0, 92, 80
2, 70992, Note_on_c, 0, 92, 0
2, 71002, Note_on_c, 0, 37, 80
2, 71004, Note_on_c, 0, 49, 80
2, 71069, Note_on_c, 0, 37, 0
2, 71071, Note_on_c, 0, 49, 0
2, 71078, Note_on_c, 0, 73, 80
2, 71078, Note_on_c, 0, 85, 80
2, 71118, Note_on_c, 0, 41, 80
2, 71118, Note_on_c, 0, 77, 80
2, 71118, Note_on_c, 0, 89, 80
2, 71120, Note_on_c, 0, 53, 80
2, 71122, Note_on_c, 0, 85, 0
2, 71122, Note_on_c, 0, 73, 0
2, 71183, Note_on_c, 0, 89, 0
2, 71183, Note_on_c, 0, 77, 0
2, 71183, Note_on_c, 0, 53, 0
2, 71183, Note_on_c, 0, 41, 0
2, 71192, Note_on_c, 0, 80, 80
2, 71192, Note_on_c, 0, 92, 80
2, 71232, Note_on_c, 0, 89, 80
2, 71234, Note_on_c, 0, 44, 80
2, 71234, Note_on_c, 0, 56, 80
2, 71234, Note_on_c, 0, 83, 80
2, 71234, Note_on_c, 0, 97, 80
2, 71236, Note_on_c, 0, 92, 0
2, 71236, Note_on_c, 0, 80, 0
2, 71290, Note_on_c, 0, 56, 0
2, 71302, Note_on_c, 0, 83, 0
2, 71302, Note_on_c, 0, 44, 0
2, 71302, Note_on_c, 0, 97, 0
2, 71302, Note_on_c, 0, 89, 0
2, 71308, Note_on_c, 0, 92, 80
2, 71349, Note_on_c, 0, 59, 80
2, 71349, Note_on_c, 0, 89, 80
2, 71351, Note_on_c, 0, 92, 0
2, 71351, Note_on_c, 0, 47, 80
2, 71419, Note_on_c, 0, 89, 0
2, 71421, Note_on_c, 0, 47, 0
2, 71421, Note_on_c, 0, 59, 0
2, 71427, Note_on_c, 0, 85, 80
2, 71468, Note_on_c, 0, 44, 80
2, 71468, Note_on_c, 0, 56, 80
2, 71536, Note_on_c, 0, 56, 0
2, 71536, Note_on_c, 0, 44, 0
2, 71536, Note_on_c, 0, 85, 0
2, 71545, Note_on_c, 0, 77, 80
2, 71545, Note_on_c, 0, 89, 80
2, 71583, Note_on_c, 0, 92, 80
2, 71585, Note_on_c, 0, 41, 80
2, 71585, Note_on_c, 0, 53, 80
2, 71585, Note_on_c, 0, 80, 80
2, 71587, Note_on_c, 0, 89, 0
2, 71587, Note_on_c, 0, 77, 0
2, 71613, Note_on_c, 0, 92, 0
2, 71613, Note_on_c, 0, 80, 0
2, 71662, Note_on_c, 0, 83, 80
2, 71662, Note_on_c, 0, 89, 80
2, 71662, Note_on_c, 0, 97, 80
2, 71699, Note_on_c, 0, 37, 80
2, 71699, Note_on_c, 0, 49, 80
2, 71704, Note_on_c, 0, 41, 0
2, 71704, Note_on_c, 0, 53, 0
2, 71762, Control_c, 0, 64, 127
2, 71764, Note_on_c, 0, 37, 0
2, 71764, Note_on_c, 0, 97, 0
2, 71764, Note_on_c, 0, 49, 0
2, 71774, Note_on_c, 0, 95, 80
2, 71811, Note_on_c, 0, 41, 80
2, 71811, Note_on_c, 0, 53, 80
2, 71811, Note_on_c, 0, 94, 80
2, 71813, Note_on_c, 0, 95, 0
2, 71881, Note_on_c, 0, 89, 0
2, 71881, Note_on_c, 0, 83, 0
2, 71881, Note_on_c, 0, 94, 0
2, 71893, Note_on_c, 0, 92, 80
2, 71895, Control_c, 0, 64, 0
2, 71932, Note_on_c, 0, 42, 80
2, 71932, Note_on_c, 0, 54, 80
2, 71932, Note_on_c, 0, 85, 80
2, 71932, Note_on_c, 0, 90, 80
2, 71932, Note_on_c, 0, 94, 80
2, 71934, Note_on_c, 0, 92, 0
2, 71934, Note_on_c, 0, 41, 0
2, 71934, Note_on_c, 0, 82, 80
2, 71936, Note_on_c, 0, 53, 0
2, 71997, Note_on_c, 0, 90, 0
2, 71997, Note_on_c, 0, 94, 0
2, 71997, Note_on_c, 0, 85, 0
2, 71999, Note_on_c, 0, 82, 0
2, 71999, Note_on_c, 0, 54, 0
2, 71999, Note_on_c, 0, 42, 0
2, 72048, Note_on_c, 0, 56, 80
2, 72048, Note_on_c, 0, 80, 80
2, 72048, Note_on_c, 0, 83, 80
2, 72048, Note_on_c, 0, 85, 80
2, 72048, Note_on_c, 0, 89, 80
2, 72048, Note_on_c, 0, 92, 80
2, 72049, Note_on_c, 0, 44, 80
2, 72077, Note_on_c, 0, 92, 0
2, 72077, Note_on_c, 0, 85, 0
2, 72077, Note_on_c, 0, 80, 0
2, 72077, Note_on_c, 0, 83, 0
2, 72077, Note_on_c, 0, 89, 0
2, 72131, Note_on_c, 0, 78, 80
2, 72131, Note_on_c, 0, 82, 80
2, 72131, Note_on_c, 0, 85, 80
2, 72131, Note_on_c, 0, 90, 80
2, 72168, Note_on_c, 0, 46, 80
2, 72168, Note_on_c, 0, 58, 80
2, 72173, Note_on_c, 0, 56, 0
2, 72173, Note_on_c, 0, 44, 0
2, 72234, Note_on_c, 0, 85, 0
2, 72234, Note_on_c, 0, 78, 0
2, 72234, Note_on_c, 0, 90, 0
2, 72236, Note_on_c, 0, 82, 0
2, 72245, Note_on_c, 0, 65, 80
2, 72245, Note_on_c, 0, 77, 80
2, 72283, Note_on_c, 0, 44, 80
2, 72283, Note_on_c, 0, 56, 80
2, 72283, Note_on_c, 0, 66, 80
2, 72285, Note_on_c, 0, 78, 80
2, 72287, Note_on_c, 0, 77, 0
2, 72287, Note_on_c, 0, 65, 0
2, 72287, Note_on_c, 0, 46, 0
2, 72287, Note_on_c, 0, 58, 0
2, 72350, Note_on_c, 0, 66, 0
2, 72350, Note_on_c, 0, 78, 0
2, 72360, Note_on_c, 0, 68, 80
2, 72360, Note_on_c, 0, 80, 80
2, 72397, Note_on_c, 0, 73, 80
2, 72399, Note_on_c, 0, 42, 80
2, 72399, Note_on_c, 0, 54, 80
2, 72399, Note_on_c, 0, 70, 80
2, 72399, Note_on_c, 0, 76, 80
2, 72399, Note_on_c, 0, 82, 80
2, 72401, Note_on_c, 0, 80, 0
2, 72401, Note_on_c, 0, 68, 0
2, 72401, Note_on_c, 0, 44, 0
2, 72401, Note_on_c, 0, 56, 0
2, 72464, Note_on_c, 0, 54, 0
2, 72464, Note_on_c, 0, 42, 0
2, 72464, Note_on_c, 0, 82, 0
2, 72464, Note_on_c, 0, 73, 0
2, 72464, Note_on_c, 0, 70, 0
2, 72464, Note_on_c, 0, 76, 0
2, 72511, Note_on_c, 0, 30, 80
2, 72511, Note_on_c, 0, 42, 80
2, 72511, Note_on_c, 0, 68, 80
2, 72511, Note_on_c, 0, 71, 80
2, 72511, Note_on_c, 0, 76, 80
2, 72511, Note_on_c, 0, 80, 80
2, 72539, Note_on_c, 0, 80, 0
2, 72539, Note_on_c, 0, 71, 0
2, 72539, Note_on_c, 0, 68, 0
2, 72539, Note_on_c, 0, 76, 0
2, 72583, Note_on_c, 0, 66, 80
2, 72585, Note_on_c, 0, 70, 80
2, 72585, Note_on_c, 0, 73, 80
2, 72585, Note_on_c, 0, 76, 80
2, 72585, Note_on_c, 0, 78, 80
2, 72618, Note_on_c, 0, 32, 80
2, 72620, Note_on_c, 0, 44, 80
2, 72622, Note_on_c, 0, 30, 0
2, 72622, Note_on_c, 0, 42, 0
2, 72649, Note_on_c, 0, 66, 0
2, 72685, Note_on_c, 0, 78, 0
2, 72685, Note_on_c, 0, 70, 0
2, 72685, Note_on_c, 0, 73, 0
2, 72685, Note_on_c, 0, 76, 0
2, 72695, Note_on_c, 0, 66, 80
2, 72735, Note_on_c, 0, 34, 80
2, 72735, Note_on_c, 0, 46, 80
2, 72735, Note_on_c, 0, 70, 80
2, 72737, Note_on_c, 0, 66, 0
2, 72737, Note_on_c, 0, 32, 0
2, 72737, Note_on_c, 0, 44, 0
2, 72802, Note_on_c, 0, 70, 0
2, 72812, Note_on_c, 0, 78, 80
2, 72852, Note_on_c, 0, 35, 80
2, 72852, Note_on_c, 0, 47, 80
2, 72852, Note_on_c, 0, 71, 80
2, 72852, Note_on_c, 0, 75, 80
2, 72852, Note_on_c, 0, 83, 80
2, 72854, Note_on_c, 0, 46, 0
2, 72854, Note_on_c, 0, 34, 0
2, 72894, Note_on_c, 0, 35, 0
2, 72894, Note_on_c, 0, 47, 0
2, 72920, Note_on_c, 0, 71, 0
2, 72920, Note_on_c, 0, 83, 0
2, 72920, Note_on_c, 0, 75, 0
2, 72920, Note_on_c, 0, 78, 0
2, 72932, Note_on_c, 0, 70, 80
2, 72932, Note_on_c, 0, 82, 80
2, 72969, Note_on_c, 0, 54, 80
2, 72969, Note_on_c, 0, 59, 80
2, 72969, Note_on_c, 0, 63, 80
2, 72969, Note_on_c, 0, 71, 80
2, 72969, Note_on_c, 0, 75, 80
2, 72969, Note_on_c, 0, 78, 80
2, 72969, Note_on_c, 0, 83, 80
2, 72971, Note_on_c, 0, 70, 0
2, 72973, Note_on_c, 0, 82, 0
2, 73001, Note_on_c, 0, 59, 0
2, 73001, Note_on_c, 0, 71, 0
2, 73001, Note_on_c, 0, 54, 0
2, 73001, Note_on_c, 0, 63, 0
2, 73001, Note_on_c, 0, 83, 0
2, 73001, Note_on_c, 0, 75, 0
2, 73001, Note_on_c, 0, 78, 0
2, 73053, Note_on_c, 0, 80, 80
2, 73055, Note_on_c, 0, 68, 80
2, 73055, Note_on_c, 0, 71, 80
2, 73055, Note_on_c, 0, 75, 80
2, 73097, Note_on_c, 0, 30, 80
2, 73097, Note_on_c, 0, 42, 80
2, 73125, Control_c, 0, 64, 127
2, 73136, Note_on_c, 0, 42, 0
2, 73136, Note_on_c, 0, 30, 0
2, 73162, Note_on_c, 0, 71, 0
2, 73162, Note_on_c, 0, 80, 0
2, 73162, Note_on_c, 0, 68, 0
2, 73162, Note_on_c, 0, 75, 0
2, 73172, Note_on_c, 0, 74, 80
2, 73172, Note_on_c, 0, 79, 80
2, 73176, Control_c, 0, 64, 0
2, 73209, Note_on_c, 0, 54, 80
2, 73209, Note_on_c, 0, 56, 80
2, 73209, Note_on_c, 0, 59, 80
2, 73209, Note_on_c, 0, 63, 80
2, 73209, Note_on_c, 0, 80, 80
2, 73211, Note_on_c, 0, 79, 0
2, 73211, Note_on_c, 0, 74, 0
2, 73211, Note_on_c, 0, 75, 80
2, 73239, Note_on_c, 0, 75, 0
2, 73239, Note_on_c, 0, 80, 0
2, 73239, Note_on_c, 0, 59, 0
2, 73239, Note_on_c, 0, 56, 0
2, 73239, Note_on_c, 0, 54, 0
2, 73239, Note_on_c, 0, 63, 0
2, 73286, Note_on_c, 0, 75, 80
2, 73286, Note_on_c, 0, 78, 80
2, 73317, Control_c, 0, 64, 127
2, 73328, Note_on_c, 0, 35, 80
2, 73328, Note_on_c, 0, 47, 80
2, 73368, Note_on_c, 0, 47, 0
2, 73368, Note_on_c, 0, 35, 0
2, 73368, Control_c, 0, 64, 0
2, 73392, Note_on_c, 0, 78, 0
2, 73393, Note_on_c, 0, 75, 0
2, 73398, Note_on_c, 0, 74, 80
2, 73400, Note_on_c, 0, 77, 80
2, 73440, Note_on_c, 0, 54, 80
2, 73440, Note_on_c, 0, 59, 80
2, 73440, Note_on_c, 0, 63, 80
2, 73440, Note_on_c, 0, 75, 80
2, 73440, Note_on_c, 0, 78, 80
2, 73442, Note_on_c, 0, 74, 0
2, 73444, Note_on_c, 0, 77, 0
2, 73467, Note_on_c, 0, 54, 0
2, 73467, Note_on_c, 0, 63, 0
2, 73467, Note_on_c, 0, 59, 0
2, 73467, Note_on_c, 0, 78, 0
2, 73469, Note_on_c, 0, 75, 0
2, 73518, Note_on_c, 0, 66, 80
2, 73520, Note_on_c, 0, 75, 80
2, 73546, Control_c, 0, 64, 127
2, 73558, Note_on_c, 0, 30, 80
2, 73560, Note_on_c, 0, 42, 80
2, 73600, Control_c, 0, 64, 0
2, 73602, Note_on_c, 0, 42, 0
2, 73602, Note_on_c, 0, 30, 0
2, 73628, Note_on_c, 0, 66, 0
2, 73630, Note_on_c, 0, 75, 0
2, 73636, Note_on_c, 0, 74, 80
2, 73638, Note_on_c, 0, 65, 80
2, 73676, Note_on_c, 0, 54, 80
2, 73676, Note_on_c, 0, 59, 80
2, 73676, Note_on_c, 0, 63, 80
2, 73676, Note_on_c, 0, 66, 80
2, 73676, Note_on_c, 0, 75, 80
2, 73678, Note_on_c, 0, 65, 0
2, 73678, Note_on_c, 0, 74, 0
2, 73705, Note_on_c, 0, 59, 0
2, 73705, Note_on_c, 0, 63, 0
2, 73705, Note_on_c, 0, 54, 0
2, 73746, Note_on_c, 0, 75, 0
2, 73746, Note_on_c, 0, 66, 0
2, 73798, Note_on_c, 0, 42, 80
2, 73800, Note_on_c, 0, 54, 80
2, 73800, Note_on_c, 0, 70, 80
2, 73800, Note_on_c, 0, 73, 80
2, 73800, Note_on_c, 0, 78, 80
2, 73800, Note_on_c, 0, 82, 80
2, 73842, Note_on_c, 0, 54, 0
2, 73844, Note_on_c, 0, 42, 0
2, 73870, Note_on_c, 0, 78, 0
2, 73870, Note_on_c, 0, 73, 0
2, 73870, Note_on_c, 0, 82, 0
2, 73870, Note_on_c, 0, 70, 0
2, 73879, Note_on_c, 0, 69, 80
2, 73879, Note_on_c, 0, 72, 80
2, 73879, Note_on_c, 0, 81, 80
2, 73917, Note_on_c, 0, 54, 80
2, 73917, Note_on_c, 0, 58, 80
2, 73917, Note_on_c, 0, 70, 80
2, 73917, Note_on_c, 0, 73, 80
2, 73917, Note_on_c, 0, 82, 80
2, 73919, Note_on_c, 0, 49, 80
2, 73920, Note_on_c, 0, 81, 0
2, 73920, Note_on_c, 0, 69, 0
2, 73920, Note_on_c, 0, 72, 0
2, 73946, Note_on_c, 0, 73, 0
2, 73946, Note_on_c, 0, 70, 0
2, 73946, Note_on_c, 0, 58, 0
2, 73946, Note_on_c, 0, 49, 0
2, 73946, Note_on_c, 0, 54, 0
2, 73946, Note_on_c, 0, 82, 0
2, 73995, Note_on_c, 0, 66, 80
2, 73995, Note_on_c, 0, 70, 80
2, 73995, Note_on_c, 0, 73, 80
2, 73995, Note_on_c, 0, 78, 80
2, 74021, Control_c, 0, 64, 127
2, 74033, Note_on_c, 0, 37, 80
2, 74035, Note_on_c, 0, 49, 80
2, 74072, Note_on_c, 0, 49, 0
2, 74072, Note_on_c, 0, 37, 0
2, 74072, Control_c, 0, 64, 0
2, 74098, Note_on_c, 0, 73, 0
2, 74098, Note_on_c, 0, 66, 0
2, 74098, Note_on_c, 0, 70, 0
2, 74098, Note_on_c, 0, 78, 0
2, 74110, Note_on_c, 0, 69, 80
2, 74110, Note_on_c, 0, 77, 80
2, 74147, Note_on_c, 0, 49, 80
2, 74147, Note_on_c, 0, 54, 80
2, 74147, Note_on_c, 0, 58, 80
2, 74147, Note_on_c, 0, 70, 80
2, 74147, Note_on_c, 0, 78, 80
2, 74149, Note_on_c, 0, 77, 0
2, 74149, Note_on_c, 0, 69, 0
2, 74175, Note_on_c, 0, 58, 0
2, 74177, Note_on_c, 0, 70, 0
2, 74177, Note_on_c, 0, 54, 0
2, 74177, Note_on_c, 0, 78, 0
2, 74177, Note_on_c, 0, 49, 0
2, 74224, Note_on_c, 0, 73, 80
2, 74226, Note_on_c, 0, 70, 80
2, 74263, Note_on_c, 0, 42, 80
2, 74265, Note_on_c, 0, 30, 80
2, 74305, Note_on_c, 0, 30, 0
2, 74305, Note_on_c, 0, 42, 0
2, 74328, Note_on_c, 0, 70, 0
2, 74328, Note_on_c, 0, 73, 0
2, 74338, Note_on_c, 0, 69, 80
2, 74338, Note_on_c, 0, 72, 80
2, 74380, Note_on_c, 0, 49, 80
2, 74380, Note_on_c, 0, 54, 80
2, 74380, Note_on_c, 0, 58, 80
2, 74380, Note_on_c, 0, 70, 80
2, 74380, Note_on_c, 0, 73, 80
2, 74382, Note_on_c, 0, 69, 0
2, 74384, Note_on_c, 0, 72, 0
2, 74407, Note_on_c, 0, 70, 0
2, 74407, Note_on_c, 0, 58, 0
2, 74407, Note_on_c, 0, 54, 0
2, 74407, Note_on_c, 0, 73, 0
2, 74409, Note_on_c, 0, 49, 0
2, 74456, Note_on_c, 0, 66, 80
2, 74456, Note_on_c, 0, 70, 80
2, 74498, Note_on_c, 0, 25, 80
2, 74498, Note_on_c, 0, 37, 80
2, 74539, Note_on_c, 0, 37, 0
2, 74541, Note_on_c, 0, 25, 0
2, 74576, Note_on_c, 0, 70, 0
2, 74576, Note_on_c, 0, 66, 0
2, 74616, Note_on_c, 0, 49, 80
2, 74616, Note_on_c, 0, 54, 80
2, 74616, Note_on_c, 0, 58, 80
2, 74616, Note_on_c, 0, 78, 80
2, 74644, Note_on_c, 0, 58, 0
2, 74646, Note_on_c, 0, 49, 0
2, 74646, Note_on_c, 0, 54, 0
2, 74656, Note_on_c, 0, 80, 80
2, 74661, Note_on_c, 0, 78, 0
2, 74696, Note_on_c, 0, 82, 80
2, 74703, Note_on_c, 0, 80, 0
2, 74736, Note_on_c, 0, 71, 80
2, 74736, Note_on_c, 0, 78, 80
2, 74736, Note_on_c, 0, 83, 80
2, 74737, Note_on_c, 0, 35, 80
2, 74737, Note_on_c, 0, 47, 80
2, 74737, Note_on_c, 0, 75, 80
2, 74739, Note_on_c, 0, 82, 0
2, 74803, Note_on_c, 0, 78, 0
2, 74803, Note_on_c, 0, 83, 0
2, 74803, Note_on_c, 0, 71, 0
2, 74803, Note_on_c, 0, 75, 0
2, 74805, Note_on_c, 0, 47, 0
2, 74805, Note_on_c, 0, 35, 0
2, 74811, Note_on_c, 0, 70, 80
2, 74811, Note_on_c, 0, 82, 80
2, 74849, Note_on_c, 0, 71, 80
2, 74849, Note_on_c, 0, 75, 80
2, 74849, Note_on_c, 0, 78, 80
2, 74851, Note_on_c, 0, 51, 80
2, 74851, Note_on_c, 0, 54, 80
2, 74851, Note_on_c, 0, 59, 80
2, 74851, Note_on_c, 0, 83, 80
2, 74853, Note_on_c, 0, 70, 0
2, 74855, Note_on_c, 0, 82, 0
2, 74878, Note_on_c, 0, 75, 0
2, 74878, Note_on_c, 0, 71, 0
2, 74878, Note_on_c, 0, 59, 0
2, 74878, Note_on_c, 0, 78, 0
2, 74878, Note_on_c, 0, 83, 0
2, 74878, Note_on_c, 0, 54, 0
2, 74880, Note_on_c, 0, 51, 0
2, 74928, Note_on_c, 0, 68, 80
2, 74928, Note_on_c, 0, 71, 80
2, 74928, Note_on_c, 0, 75, 80
2, 74928, Note_on_c, 0, 80, 80
2, 74969, Note_on_c, 0, 51, 80
2, 74969, Note_on_c, 0, 56, 80
2, 74969, Note_on_c, 0, 59, 80
2, 75034, Note_on_c, 0, 59, 0
2, 75034, Note_on_c, 0, 51, 0
2, 75034, Note_on_c, 0, 56, 0
2, 75081, Note_on_c, 0, 32, 80
2, 75081, Note_on_c, 0, 44, 80
2, 75193, Note_on_c, 0, 35, 80
2, 75193, Note_on_c, 0, 47, 80
2, 75195, Note_on_c, 0, 44, 0
2, 75195, Note_on_c, 0, 32, 0
2, 75233, Note_on_c, 0, 47, 0
2, 75233, Note_on_c, 0, 35, 0
2, 75259, Note_on_c, 0, 80, 0
2, 75259, Note_on_c, 0, 75, 0
2, 75259, Note_on_c, 0, 71, 0
2, 75259, Note_on_c, 0, 68, 0
2, 75311, Note_on_c, 0, 54, 80
2, 75311, Note_on_c, 0, 59, 80
2, 75311, Note_on_c, 0, 63, 80
2, 75311, Note_on_c, 0, 66, 80
2, 75311, Note_on_c, 0, 71, 80
2, 75311, Note_on_c, 0, 75, 80
2, 75311, Note_on_c, 0, 78, 80
2, 75338, Note_on_c, 0, 78, 0
2, 75338, Note_on_c, 0, 71, 0
2, 75338, Note_on_c, 0, 59, 0
2, 75338, Note_on_c, 0, 63, 0
2, 75338, Note_on_c, 0, 54, 0
2, 75338, Note_on_c, 0, 75, 0
2, 75338, Note_on_c, 0, 66, 0
2, 75376, Control_c, 0, 64, 127
2, 75387, Note_on_c, 0, 68, 80
2, 75387, Note_on_c, 0, 71, 80
2, 75387, Note_on_c, 0, 75, 80
2, 75387, Note_on_c, 0, 80, 80
2, 75428, Note_on_c, 0, 30, 80
2, 75428, Note_on_c, 0, 42, 80
2, 75456, Note_on_c, 0, 71, 0
2, 75467, Note_on_c, 0, 30, 0
2, 75467, Note_on_c, 0, 42, 0
2, 75467, Control_c, 0, 64, 0
2, 75493, Note_on_c, 0, 68, 0
2, 75493, Note_on_c, 0, 80, 0
2, 75493, Note_on_c, 0, 75, 0
2, 75503, Note_on_c, 0, 71, 80
2, 75543, Note_on_c, 0, 54, 80
2, 75543, Note_on_c, 0, 59, 80
2, 75543, Note_on_c, 0, 63, 80
2, 75543, Note_on_c, 0, 75, 80
2, 75545, Note_on_c, 0, 71, 0
2, 75571, Note_on_c, 0, 63, 0
2, 75571, Note_on_c, 0, 54, 0
2, 75571, Note_on_c, 0, 59, 0
2, 75611, Note_on_c, 0, 75, 0
2, 75621, Note_on_c, 0, 78, 80
2, 75661, Note_on_c, 0, 71, 80
2, 75661, Note_on_c, 0, 77, 80
2, 75661, Note_on_c, 0, 83, 80
2, 75663, Note_on_c, 0, 78, 0
2, 75663, Note_on_c, 0, 37, 80
2, 75663, Note_on_c, 0, 49, 80
2, 75689, Note_on_c, 0, 77, 0
2, 75705, Note_on_c, 0, 37, 0
2, 75705, Note_on_c, 0, 49, 0
2, 75728, Note_on_c, 0, 71, 0
2, 75728, Note_on_c, 0, 83, 0
2, 75738, Note_on_c, 0, 77, 80
2, 75775, Note_on_c, 0, 80, 80
2, 75777, Note_on_c, 0, 49, 80
2, 75777, Note_on_c, 0, 53, 80
2, 75777, Note_on_c, 0, 59, 80
2, 75779, Note_on_c, 0, 77, 0
2, 75802, Note_on_c, 0, 80, 0
2, 75802, Note_on_c, 0, 59, 0
2, 75804, Note_on_c, 0, 49, 0
2, 75804, Note_on_c, 0, 53, 0
2, 75841, Control_c, 0, 64, 127
2, 75851, Note_on_c, 0, 71, 80
2, 75851, Note_on_c, 0, 76, 80
2, 75851, Note_on_c, 0, 83, 80
2, 75893, Note_on_c, 0, 30, 80
2, 75893, Note_on_c, 0, 42, 80
2, 75931, Note_on_c, 0, 42, 0
2, 75931, Note_on_c, 0, 30, 0
2, 75931, Control_c, 0, 64, 0
2, 75957, Note_on_c, 0, 71, 0
2, 75957, Note_on_c, 0, 76, 0
2, 75957, Note_on_c, 0, 83, 0
2, 75963, Note_on_c, 0, 80, 80
2, 76004, Note_on_c, 0, 73, 80
2, 76004, Note_on_c, 0, 76, 80
2, 76004, Note_on_c, 0, 82, 80
2, 76004, Note_on_c, 0, 85, 80
2, 76008, Note_on_c, 0, 52, 80
2, 76008, Note_on_c, 0, 54, 80
2, 76008, Note_on_c, 0, 58, 80
2, 76008, Note_on_c, 0, 61, 80
2, 76010, Note_on_c, 0, 80, 0
2, 76033, Note_on_c, 0, 85, 0
2, 76033, Note_on_c, 0, 61, 0
2, 76033, Note_on_c, 0, 52, 0
2, 76033, Note_on_c, 0, 76, 0
2, 76033, Note_on_c, 0, 73, 0
2, 76033, Note_on_c, 0, 58, 0
2, 76033, Note_on_c, 0, 54, 0
2, 76035, Note_on_c, 0, 82, 0
2, 76087, Note_on_c, 0, 71, 80
2, 76087, Note_on_c, 0, 75, 80
2, 76087, Note_on_c, 0, 78, 80
2, 76087, Note_on_c, 0, 83, 80
2, 76128, Note_on_c, 0, 47, 80
2, 76128, Note_on_c, 0, 59, 80
2, 76193, Note_on_c, 0, 83, 0
2, 76195, Note_on_c, 0, 75, 0
2, 76195, Note_on_c, 0, 78, 0
2, 76195, Note_on_c, 0, 71, 0
2, 76195, Note_on_c, 0, 59, 0
2, 76195, Note_on_c, 0, 47, 0
2, 76239, Note_on_c, 0, 78, 80
2, 76239, Note_on_c, 0, 85, 80
2, 76239, Note_on_c, 0, 88, 80
2, 76239, Note_on_c, 0, 90, 80
2, 76241, Note_on_c, 0, 42, 80
2, 76241, Note_on_c, 0, 54, 80
2, 76241, Note_on_c, 0, 82, 80
2, 76309, Note_on_c, 0, 90, 0
2, 76311, Note_on_c, 0, 42, 0
2, 76311, Note_on_c, 0, 54, 0
2, 76322, Note_on_c, 0, 92, 80
2, 76332, Note_on_c, 0, 93, 80
2, 76337, Note_on_c, 0, 92, 0
2, 76346, Note_on_c, 0, 94, 80
2, 76348, Note_on_c, 0, 93, 0
2, 76358, Note_on_c, 0, 83, 80
2, 76358, Note_on_c, 0, 87, 80
2, 76358, Note_on_c, 0, 90, 80
2, 76358, Note_on_c, 0, 95, 80
2, 76363, Note_on_c, 0, 88, 0
2, 76363, Note_on_c, 0, 94, 0
2, 76363, Note_on_c, 0, 35, 80
2, 76363, Note_on_c, 0, 47, 80
2, 76365, Note_on_c, 0, 78, 0
2, 76365, Note_on_c, 0, 82, 0
2, 76376, Note_on_c, 0, 85, 0
2, 76399, Note_on_c, 0, 95, 0
2, 76404, Note_on_c, 0, 83, 0
2, 76404, Note_on_c, 0, 90, 0
2, 76404, Note_on_c, 0, 87, 0
2, 76406, Note_on_c, 0, 47, 0
2, 76406, Note_on_c, 0, 35, 0
2, 76606, Note_on_c, 0, 101, 80
2, 76608, Note_on_c, 0, 92, 80
2, 76609, Note_on_c, 0, 26, 80
2, 76609, Note_on_c, 0, 38, 80
2, 76635, Note_on_c, 0, 92, 0
2, 76635, Note_on_c, 0, 101, 0
2, 76637, Note_on_c, 0, 26, 0
2, 76649, Note_on_c, 0, 38, 0
2, 76681, Note_on_c, 0, 89, 80
2, 76681, Note_on_c, 0, 98, 80
2, 76683, Note_on_c, 0, 29, 80
2, 76683, Note_on_c, 0, 41, 80
2, 76789, Note_on_c, 0, 98, 0
2, 76789, Note_on_c, 0, 89, 0
2, 76791, Note_on_c, 0, 29, 0
2, 76791, Note_on_c, 0, 41, 0
2, 76798, Note_on_c, 0, 86, 80
2, 76798, Note_on_c, 0, 95, 80
2, 76800, Note_on_c, 0, 32, 80
2, 76800, Note_on_c, 0, 44, 80
2, 76900, Note_on_c, 0, 95, 0
2, 76900, Note_on_c, 0, 86, 0
2, 76902, Note_on_c, 0, 32, 0
2, 76902, Note_on_c, 0, 44, 0
2, 76909, Note_on_c, 0, 83, 80
2, 76909, Note_on_c, 0, 92, 80
2, 76911, Note_on_c, 0, 35, 80
2, 76911, Note_on_c, 0, 47, 80
2, 76944, Note_on_c, 0, 80, 80
2, 76944, Note_on_c, 0, 89, 80
2, 76945, Note_on_c, 0, 38, 80
2, 76945, Note_on_c, 0, 50, 80
2, 76947, Note_on_c, 0, 92, 0
2, 76947, Note_on_c, 0, 83, 0
2, 76949, Note_on_c, 0, 47, 0
2, 76949, Note_on_c, 0, 35, 0
2, 77013, Note_on_c, 0, 80, 0
2, 77013, Note_on_c, 0, 50, 0
2, 77013, Note_on_c, 0, 89, 0
2, 77013, Note_on_c, 0, 38, 0
2, 77060, Note_on_c, 0, 77, 80
2, 77060, Note_on_c, 0, 86, 80
2, 77062, Note_on_c, 0, 41, 80
2, 77062, Note_on_c, 0, 53, 80
2, 77089, Note_on_c, 0, 86, 0
2, 77089, Note_on_c, 0, 77, 0
2, 77091, Note_on_c, 0, 41, 0
2, 77091, Note_on_c, 0, 53, 0
2, 77138, Note_on_c, 0, 44, 80
2, 77138, Note_on_c, 0, 56, 80
2, 77138, Note_on_c, 0, 74, 80
2, 77138, Note_on_c, 0, 83, 80
2, 77249, Note_on_c, 0, 83, 0
2, 77249, Note_on_c, 0, 74, 0
2, 77251, Note_on_c, 0, 56, 0
2, 77251, Note_on_c, 0, 44, 0
2, 77257, Note_on_c, 0, 80, 80
2, 77259, Note_on_c, 0, 47, 80
2, 77259, Note_on_c, 0, 59, 80
2, 77259, Note_on_c, 0, 71, 80
2, 77365, Note_on_c, 0, 80, 0
2, 77367, Note_on_c, 0, 47, 0
2, 77367, Note_on_c, 0, 59, 0
2, 77367, Note_on_c, 0, 71, 0
2, 77374, Note_on_c, 0, 68, 80
2, 77374, Note_on_c, 0, 77, 80
2, 77376, Note_on_c, 0, 50, 80
2, 77376, Note_on_c, 0, 62, 80
2, 77411, Note_on_c, 0, 65, 80
2, 77411, Note_on_c, 0, 74, 80
2, 77413, Note_on_c, 0, 53, 80
2, 77415, Note_on_c, 0, 62, 0
2, 77415, Note_on_c, 0, 50, 0
2, 77415, Note_on_c, 0, 68, 0
2, 77415, Note_on_c, 0, 77, 0
2, 77532, Note_on_c, 0, 54, 80
2, 77532, Note_on_c, 0, 66, 80
2, 77532, Note_on_c, 0, 71, 80
2, 77532, Note_on_c, 0, 75, 80
2, 77534, Note_on_c, 0, 74, 0
2, 77534, Note_on_c, 0, 65, 0
2, 77534, Note_on_c, 0, 42, 80
2, 77536, Note_on_c, 0, 53, 0
2, 77573, Note_on_c, 0, 54, 0
2, 77573, Note_on_c, 0, 42, 0
2, 77596, Note_on_c, 0, 71, 0
2, 77596, Note_on_c, 0, 66, 0
2, 77598, Note_on_c, 0, 75, 0
2, 77608, Note_on_c, 0, 78, 80
2, 77645, Note_on_c, 0, 56, 80
2, 77645, Note_on_c, 0, 59, 80
2, 77645, Note_on_c, 0, 63, 80
2, 77645, Note_on_c, 0, 71, 80
2, 77645, Note_on_c, 0, 75, 80
2, 77645, Note_on_c, 0, 80, 80
2, 77647, Note_on_c, 0, 54, 80
2, 77649, Note_on_c, 0, 78, 0
2, 77672, Note_on_c, 0, 56, 0
2, 77672, Note_on_c, 0, 54, 0
2, 77672, Note_on_c, 0, 63, 0
2, 77672, Note_on_c, 0, 59, 0
2, 77712, Note_on_c, 0, 80, 0
2, 77712, Note_on_c, 0, 71, 0
2, 77712, Note_on_c, 0, 75, 0
2, 77719, Note_on_c, 0, 83, 80
2, 77750, Control_c, 0, 64, 127
2, 77760, Note_on_c, 0, 74, 80
2, 77760, Note_on_c, 0, 80, 80
2, 77760, Note_on_c, 0, 86, 80
2, 77761, Note_on_c, 0, 32, 80
2, 77761, Note_on_c, 0, 44, 80
2, 77763, Note_on_c, 0, 83, 0
2, 77801, Note_on_c, 0, 44, 0
2, 77803, Note_on_c, 0, 32, 0
2, 77803, Control_c, 0, 64, 0
2, 77824, Note_on_c, 0, 74, 0
2, 77824, Note_on_c, 0, 80, 0
2, 77824, Note_on_c, 0, 86, 0
2, 77833, Note_on_c, 0, 83, 80
2, 77876, Note_on_c, 0, 56, 80
2, 77876, Note_on_c, 0, 59, 80
2, 77876, Note_on_c, 0, 73, 80
2, 77876, Note_on_c, 0, 80, 80
2, 77876, Note_on_c, 0, 85, 80
2, 77878, Note_on_c, 0, 83, 0
2, 77878, Note_on_c, 0, 51, 80
2, 77905, Note_on_c, 0, 51, 0
2, 77905, Note_on_c, 0, 59, 0
2, 77905, Note_on_c, 0, 56, 0
2, 77943, Note_on_c, 0, 73, 0
2, 77943, Note_on_c, 0, 80, 0
2, 77943, Note_on_c, 0, 85, 0
2, 77952, Note_on_c, 0, 83, 80
2, 77993, Note_on_c, 0, 74, 80
2, 77993, Note_on_c, 0, 80, 80
2, 77993, Note_on_c, 0, 86, 80
2, 77995, Note_on_c, 0, 83, 0
2, 77995, Note_on_c, 0, 49, 80
2, 77995, Note_on_c, 0, 59, 80
2, 77995, Note_on_c, 0, 65, 80
2, 78058, Note_on_c, 0, 74, 0
2, 78058, Note_on_c, 0, 86, 0
2, 78058, Note_on_c, 0, 80, 0
2, 78068, Note_on_c, 0, 83, 80
2, 78070, Note_on_c, 0, 65, 0
2, 78072, Note_on_c, 0, 59, 0
2, 78073, Note_on_c, 0, 49, 0
2, 78106, Note_on_c, 0, 85, 80
2, 78108, Note_on_c, 0, 42, 80
2, 78108, Note_on_c, 0, 52, 80
2, 78108, Note_on_c, 0, 58, 80
2, 78108, Note_on_c, 0, 73, 80
2, 78108, Note_on_c, 0, 76, 80
2, 78108, Note_on_c, 0, 82, 80
2, 78110, Note_on_c, 0, 83, 0
2, 78133, Note_on_c, 0, 82, 0
2, 78133, Note_on_c, 0, 73, 0
2, 78133, Note_on_c, 0, 85, 0
2, 78133, Note_on_c, 0, 76, 0
2, 78135, Note_on_c, 0, 52, 0
2, 78135, Note_on_c, 0, 58, 0
2, 78135, Note_on_c, 0, 42, 0
2, 78182, Note_on_c, 0, 71, 80
2, 78182, Note_on_c, 0, 75, 80
2, 78182, Note_on_c, 0, 78, 80
2, 78182, Note_on_c, 0, 80, 80
2, 78182, Note_on_c, 0, 83, 80
2, 78184, Note_on_c, 0, 47, 80
2, 78184, Note_on_c, 0, 54, 80
2, 78184, Note_on_c, 0, 63, 80
2, 78287, Control_c, 0, 64, 127
2, 78298, Note_on_c, 0, 35, 80
2, 78744, Note_on_c, 0, 63, 0
2, 78744, Note_on_c, 0, 54, 0
2, 78744, Note_on_c, 0, 80, 0
2, 78744, Note_on_c, 0, 75, 0
2, 78744, Note_on_c, 0, 71, 0
2, 78744, Note_on_c, 0, 78, 0
2, 78744, Note_on_c, 0, 83, 0
2, 78745, Note_on_c, 0, 47, 0
2, 78747, Note_on_c, 0, 35, 0
2, 78762, Control_c, 0, 64, 0
2, 78762, End_track
3, 0, Start_track
3, 0, Title_t, "c/b Scott Joplin"
3, 0, End_track
4, 0, Start_track
4, 0, Title_t, "p/b J. Lawrence Cook"
4, 0, End_track
5, 0, Start_track
5, 0, Title_t, "QRS # 9497"
5, 0, End_track
6, 0, Start_track
6, 0, Title_t, "Scan of a player piano roll"
6, 0, End_track
7, 0, Start_track
7, 0, Title_t, "by Terry Smythe, Winnipeg, Canada"
7, 0, End_track
8, 0, Start_track
8, 1, Copyright_t, "___________________________________________________\012\012KUNSTDERFUGE.COM LARGE CLASSICAL MIDI COLLECTION\012ONCLASSICAL BY ALESSANDRO SIMONETTO, PROPRIETOR\012___________________________________________________\012\012! Attention: this file is under copyright !\012\012(c)onclassical, (nc)smythe, 2010\012___________________________________________________\012\012NO ONE MAY REPUBLISH THIS FILE WITHOUT PERMISSION\012COMMERCIAL USES OF THIS FILE IS STRICTLY PROHIBITED\012___________________________________________________\012\012Files & contributor's list: http://kunstderfuge.com/\012Terms and conditions: http://kunstderfuge.com/notes.htm"
8, 1, End_track
0, 0, End_of_file
