0, 0, Header, 1, 8, 192
1, 0, Start_track
1, 0, Title_t, "9762S"
1, 0, Copyright_t, "May NOT be used for commercial purposes."
1, 0, Text_t, "Roll expression/accent tracks, where present, converted to MIDI velocties.\012"
1, 0, Text_t, "/roll_number: 9762\012"
1, 0, Text_t, "/title: Frog Legs Rag\012"
1, 0, Text_t, "/composer: James Scott \012"
1, 0, Text_t, "/pianist: J. Lawrence Cook\012"
1, 0, Text_t, "/copyright_year: 1907\012"
1, 0, Text_t, "/roll_type: 88n\012"
1, 0, Text_t, " \012"
1, 0, Time_signature, 4, 2, 24, 8
1, 0, Key_signature, 0, "major"
1, 0, Tempo, 500000
1, 0, Marker_t, "Standard MIDI:LPI 123:Tempo  90: 07-07-2004"
1, 0, End_track
2, 0, Start_track
2, 0, Title_t, "Frog Legs Rag (1907)"
2, 6, Control_c, 0, 64, 127
2, 107, Control_c, 0, 64, 0
2, 192, Note_on_c, 0, 56, 80
2, 194, Note_on_c, 0, 44, 80
2, 300, Note_on_c, 0, 44, 0
2, 300, Note_on_c, 0, 56, 0
2, 307, Note_on_c, 0, 49, 80
2, 307, Note_on_c, 0, 61, 80
2, 348, Note_on_c, 0, 61, 0
2, 348, Note_on_c, 0, 49, 0
2, 423, Note_on_c, 0, 61, 80
2, 423, Note_on_c, 0, 65, 80
2, 423, Note_on_c, 0, 73, 80
2, 423, Note_on_c, 0, 77, 80
2, 423, Note_on_c, 0, 80, 80
2, 423, Note_on_c, 0, 85, 80
2, 425, Note_on_c, 0, 56, 80
2, 446, Note_on_c, 0, 56, 0
2, 446, Note_on_c, 0, 61, 0
2, 446, Note_on_c, 0, 65, 0
2, 455, Note_on_c, 0, 80, 0
2, 455, Note_on_c, 0, 77, 0
2, 455, Note_on_c, 0, 73, 0
2, 455, Note_on_c, 0, 85, 0
2, 500, Note_on_c, 0, 70, 80
2, 500, Note_on_c, 0, 73, 80
2, 500, Note_on_c, 0, 77, 80
2, 500, Note_on_c, 0, 82, 80
2, 540, Note_on_c, 0, 53, 80
2, 540, Note_on_c, 0, 65, 80
2, 607, Note_on_c, 0, 82, 0
2, 607, Note_on_c, 0, 77, 0
2, 607, Note_on_c, 0, 70, 0
2, 607, Note_on_c, 0, 73, 0
2, 612, Note_on_c, 0, 72, 80
2, 612, Note_on_c, 0, 84, 80
2, 644, Note_on_c, 0, 84, 0
2, 644, Note_on_c, 0, 72, 0
2, 644, Note_on_c, 0, 65, 0
2, 646, Note_on_c, 0, 53, 0
2, 650, Note_on_c, 0, 52, 80
2, 650, Note_on_c, 0, 64, 80
2, 650, Note_on_c, 0, 70, 80
2, 650, Note_on_c, 0, 82, 80
2, 720, Note_on_c, 0, 82, 0
2, 720, Note_on_c, 0, 70, 0
2, 726, Note_on_c, 0, 68, 80
2, 726, Note_on_c, 0, 80, 80
2, 756, Note_on_c, 0, 80, 0
2, 758, Note_on_c, 0, 52, 0
2, 758, Note_on_c, 0, 64, 0
2, 758, Note_on_c, 0, 68, 0
2, 763, Note_on_c, 0, 51, 80
2, 763, Note_on_c, 0, 63, 80
2, 763, Note_on_c, 0, 72, 80
2, 801, Note_on_c, 0, 63, 0
2, 801, Note_on_c, 0, 51, 0
2, 831, Note_on_c, 0, 72, 0
2, 836, Note_on_c, 0, 73, 80
2, 868, Note_on_c, 0, 73, 0
2, 875, Note_on_c, 0, 56, 80
2, 875, Note_on_c, 0, 60, 80
2, 875, Note_on_c, 0, 66, 80
2, 875, Note_on_c, 0, 74, 80
2, 896, Note_on_c, 0, 66, 0
2, 896, Note_on_c, 0, 56, 0
2, 896, Note_on_c, 0, 60, 0
2, 907, Note_on_c, 0, 74, 0
2, 952, Note_on_c, 0, 75, 80
2, 988, Note_on_c, 0, 44, 80
2, 988, Note_on_c, 0, 56, 80
2, 1030, Note_on_c, 0, 56, 0
2, 1030, Note_on_c, 0, 44, 0
2, 1056, Note_on_c, 0, 75, 0
2, 1062, Note_on_c, 0, 80, 80
2, 1095, Note_on_c, 0, 80, 0
2, 1100, Note_on_c, 0, 66, 80
2, 1100, Note_on_c, 0, 68, 80
2, 1102, Note_on_c, 0, 56, 80
2, 1102, Note_on_c, 0, 60, 80
2, 1123, Note_on_c, 0, 60, 0
2, 1123, Note_on_c, 0, 56, 0
2, 1123, Note_on_c, 0, 66, 0
2, 1172, Note_on_c, 0, 68, 0
2, 1208, Control_c, 0, 64, 127
2, 1215, Note_on_c, 0, 61, 80
2, 1217, Note_on_c, 0, 49, 80
2, 1255, Note_on_c, 0, 61, 0
2, 1257, Note_on_c, 0, 49, 0
2, 1274, Control_c, 0, 64, 0
2, 1328, Note_on_c, 0, 73, 80
2, 1328, Note_on_c, 0, 77, 80
2, 1328, Note_on_c, 0, 80, 80
2, 1328, Note_on_c, 0, 85, 80
2, 1330, Note_on_c, 0, 56, 80
2, 1330, Note_on_c, 0, 61, 80
2, 1330, Note_on_c, 0, 65, 80
2, 1349, Note_on_c, 0, 65, 0
2, 1349, Note_on_c, 0, 56, 0
2, 1349, Note_on_c, 0, 61, 0
2, 1360, Note_on_c, 0, 80, 0
2, 1360, Note_on_c, 0, 73, 0
2, 1360, Note_on_c, 0, 77, 0
2, 1360, Note_on_c, 0, 85, 0
2, 1403, Note_on_c, 0, 77, 80
2, 1405, Note_on_c, 0, 70, 80
2, 1405, Note_on_c, 0, 73, 80
2, 1405, Note_on_c, 0, 82, 80
2, 1445, Note_on_c, 0, 65, 80
2, 1447, Note_on_c, 0, 53, 80
2, 1512, Note_on_c, 0, 82, 0
2, 1512, Note_on_c, 0, 73, 0
2, 1512, Note_on_c, 0, 77, 0
2, 1512, Note_on_c, 0, 70, 0
2, 1516, Note_on_c, 0, 72, 80
2, 1516, Note_on_c, 0, 84, 80
2, 1547, Note_on_c, 0, 84, 0
2, 1547, Note_on_c, 0, 72, 0
2, 1547, Note_on_c, 0, 65, 0
2, 1549, Note_on_c, 0, 53, 0
2, 1554, Note_on_c, 0, 52, 80
2, 1554, Note_on_c, 0, 64, 80
2, 1554, Note_on_c, 0, 70, 80
2, 1554, Note_on_c, 0, 82, 80
2, 1621, Note_on_c, 0, 82, 0
2, 1621, Note_on_c, 0, 70, 0
2, 1626, Note_on_c, 0, 80, 80
2, 1628, Note_on_c, 0, 68, 80
2, 1656, Note_on_c, 0, 80, 0
2, 1657, Note_on_c, 0, 52, 0
2, 1657, Note_on_c, 0, 64, 0
2, 1657, Note_on_c, 0, 68, 0
2, 1662, Note_on_c, 0, 72, 80
2, 1664, Note_on_c, 0, 51, 80
2, 1664, Note_on_c, 0, 63, 80
2, 1664, Note_on_c, 0, 66, 80
2, 1731, Note_on_c, 0, 66, 0
2, 1731, Note_on_c, 0, 72, 0
2, 1731, Note_on_c, 0, 51, 0
2, 1731, Note_on_c, 0, 63, 0
2, 1736, Note_on_c, 0, 73, 80
2, 1767, Note_on_c, 0, 73, 0
2, 1772, Note_on_c, 0, 56, 80
2, 1772, Note_on_c, 0, 60, 80
2, 1772, Note_on_c, 0, 66, 80
2, 1772, Note_on_c, 0, 74, 80
2, 1793, Note_on_c, 0, 66, 0
2, 1793, Note_on_c, 0, 56, 0
2, 1793, Note_on_c, 0, 60, 0
2, 1801, Note_on_c, 0, 74, 0
2, 1848, Note_on_c, 0, 66, 80
2, 1848, Note_on_c, 0, 75, 80
2, 1888, Note_on_c, 0, 44, 80
2, 1888, Note_on_c, 0, 56, 80
2, 1929, Note_on_c, 0, 56, 0
2, 1929, Note_on_c, 0, 44, 0
2, 1953, Note_on_c, 0, 75, 0
2, 1953, Note_on_c, 0, 66, 0
2, 1960, Note_on_c, 0, 80, 80
2, 1991, Note_on_c, 0, 80, 0
2, 1999, Note_on_c, 0, 56, 80
2, 1999, Note_on_c, 0, 60, 80
2, 1999, Note_on_c, 0, 66, 80
2, 1999, Note_on_c, 0, 68, 80
2, 2021, Note_on_c, 0, 66, 0
2, 2021, Note_on_c, 0, 56, 0
2, 2021, Note_on_c, 0, 60, 0
2, 2071, Note_on_c, 0, 68, 0
2, 2110, Control_c, 0, 64, 127
2, 2116, Note_on_c, 0, 49, 80
2, 2116, Note_on_c, 0, 61, 80
2, 2158, Note_on_c, 0, 61, 0
2, 2158, Note_on_c, 0, 49, 0
2, 2177, Control_c, 0, 64, 0
2, 2232, Note_on_c, 0, 56, 80
2, 2232, Note_on_c, 0, 61, 80
2, 2232, Note_on_c, 0, 65, 80
2, 2232, Note_on_c, 0, 73, 80
2, 2232, Note_on_c, 0, 77, 80
2, 2232, Note_on_c, 0, 80, 80
2, 2232, Note_on_c, 0, 85, 80
2, 2255, Note_on_c, 0, 65, 0
2, 2255, Note_on_c, 0, 56, 0
2, 2255, Note_on_c, 0, 61, 0
2, 2265, Note_on_c, 0, 77, 0
2, 2265, Note_on_c, 0, 73, 0
2, 2265, Note_on_c, 0, 80, 0
2, 2265, Note_on_c, 0, 85, 0
2, 2306, Note_on_c, 0, 77, 80
2, 2308, Note_on_c, 0, 70, 80
2, 2308, Note_on_c, 0, 73, 80
2, 2308, Note_on_c, 0, 82, 80
2, 2339, Control_c, 0, 64, 127
2, 2346, Note_on_c, 0, 44, 80
2, 2346, Note_on_c, 0, 56, 80
2, 2408, Control_c, 0, 64, 0
2, 2415, Note_on_c, 0, 82, 0
2, 2415, Note_on_c, 0, 73, 0
2, 2415, Note_on_c, 0, 77, 0
2, 2415, Note_on_c, 0, 70, 0
2, 2420, Note_on_c, 0, 84, 80
2, 2422, Note_on_c, 0, 72, 80
2, 2452, Note_on_c, 0, 72, 0
2, 2452, Note_on_c, 0, 84, 0
2, 2452, Note_on_c, 0, 56, 0
2, 2454, Note_on_c, 0, 44, 0
2, 2458, Note_on_c, 0, 46, 80
2, 2458, Note_on_c, 0, 58, 80
2, 2458, Note_on_c, 0, 70, 80
2, 2458, Note_on_c, 0, 82, 80
2, 2525, Note_on_c, 0, 82, 0
2, 2525, Note_on_c, 0, 70, 0
2, 2532, Note_on_c, 0, 68, 80
2, 2532, Note_on_c, 0, 80, 80
2, 2563, Note_on_c, 0, 80, 0
2, 2563, Note_on_c, 0, 46, 0
2, 2563, Note_on_c, 0, 58, 0
2, 2563, Note_on_c, 0, 68, 0
2, 2568, Note_on_c, 0, 60, 80
2, 2568, Note_on_c, 0, 72, 80
2, 2569, Note_on_c, 0, 48, 80
2, 2611, Note_on_c, 0, 48, 0
2, 2611, Note_on_c, 0, 60, 0
2, 2639, Note_on_c, 0, 72, 0
2, 2645, Note_on_c, 0, 77, 80
2, 2675, Note_on_c, 0, 77, 0
2, 2684, Note_on_c, 0, 56, 80
2, 2684, Note_on_c, 0, 60, 80
2, 2684, Note_on_c, 0, 65, 80
2, 2684, Note_on_c, 0, 80, 80
2, 2705, Note_on_c, 0, 65, 0
2, 2705, Note_on_c, 0, 56, 0
2, 2705, Note_on_c, 0, 60, 0
2, 2752, Note_on_c, 0, 80, 0
2, 2759, Note_on_c, 0, 82, 80
2, 2789, Note_on_c, 0, 82, 0
2, 2794, Note_on_c, 0, 84, 80
2, 2796, Note_on_c, 0, 44, 80
2, 2796, Note_on_c, 0, 56, 80
2, 2863, Note_on_c, 0, 56, 0
2, 2863, Note_on_c, 0, 44, 0
2, 2863, Note_on_c, 0, 84, 0
2, 2868, Note_on_c, 0, 89, 80
2, 2883, Control_c, 0, 64, 127
2, 2885, Note_on_c, 0, 41, 80
2, 2885, Note_on_c, 0, 53, 80
2, 2885, Note_on_c, 0, 92, 90
2, 2887, Note_on_c, 0, 89, 0
2, 2941, Note_on_c, 0, 92, 0
2, 2948, Note_on_c, 0, 94, 80
2, 2961, Control_c, 0, 64, 0
2, 2978, Note_on_c, 0, 94, 0
2, 2980, Note_on_c, 0, 53, 0
2, 2980, Note_on_c, 0, 41, 0
2, 2985, Note_on_c, 0, 96, 80
2, 2987, Note_on_c, 0, 43, 80
2, 2998, Note_on_c, 0, 55, 80
2, 3027, Note_on_c, 0, 55, 0
2, 3027, Note_on_c, 0, 43, 0
2, 3057, Note_on_c, 0, 96, 0
2, 3064, Note_on_c, 0, 94, 80
2, 3096, Note_on_c, 0, 94, 0
2, 3103, Note_on_c, 0, 58, 80
2, 3103, Note_on_c, 0, 60, 80
2, 3103, Note_on_c, 0, 64, 80
2, 3103, Note_on_c, 0, 91, 80
2, 3127, Note_on_c, 0, 64, 0
2, 3127, Note_on_c, 0, 58, 0
2, 3127, Note_on_c, 0, 60, 0
2, 3174, Note_on_c, 0, 91, 0
2, 3179, Note_on_c, 0, 88, 80
2, 3214, Note_on_c, 0, 88, 0
2, 3220, Note_on_c, 0, 36, 80
2, 3220, Note_on_c, 0, 48, 80
2, 3220, Note_on_c, 0, 84, 80
2, 3260, Note_on_c, 0, 48, 0
2, 3260, Note_on_c, 0, 36, 0
2, 3288, Note_on_c, 0, 84, 0
2, 3292, Note_on_c, 0, 82, 80
2, 3323, Note_on_c, 0, 82, 0
2, 3330, Note_on_c, 0, 58, 80
2, 3330, Note_on_c, 0, 60, 80
2, 3330, Note_on_c, 0, 79, 80
2, 3332, Note_on_c, 0, 64, 80
2, 3354, Note_on_c, 0, 64, 0
2, 3354, Note_on_c, 0, 58, 0
2, 3354, Note_on_c, 0, 60, 0
2, 3399, Note_on_c, 0, 79, 0
2, 3406, Note_on_c, 0, 76, 80
2, 3436, Note_on_c, 0, 76, 0
2, 3441, Note_on_c, 0, 77, 80
2, 3443, Note_on_c, 0, 41, 80
2, 3443, Note_on_c, 0, 53, 80
2, 3510, Note_on_c, 0, 77, 0
2, 3515, Note_on_c, 0, 78, 80
2, 3546, Note_on_c, 0, 78, 0
2, 3552, Note_on_c, 0, 56, 80
2, 3552, Note_on_c, 0, 60, 80
2, 3552, Note_on_c, 0, 65, 80
2, 3552, Note_on_c, 0, 79, 80
2, 3574, Note_on_c, 0, 65, 0
2, 3574, Note_on_c, 0, 60, 0
2, 3574, Note_on_c, 0, 56, 0
2, 3591, Note_on_c, 0, 79, 0
2, 3622, Note_on_c, 0, 80, 80
2, 3624, Note_on_c, 0, 66, 80
2, 3624, Note_on_c, 0, 72, 80
2, 3654, Note_on_c, 0, 41, 0
2, 3656, Note_on_c, 0, 53, 0
2, 3661, Note_on_c, 0, 39, 80
2, 3661, Note_on_c, 0, 51, 80
2, 3697, Note_on_c, 0, 51, 0
2, 3699, Note_on_c, 0, 39, 0
2, 3725, Note_on_c, 0, 72, 0
2, 3725, Note_on_c, 0, 80, 0
2, 3725, Note_on_c, 0, 66, 0
2, 3730, Note_on_c, 0, 75, 80
2, 3763, Note_on_c, 0, 75, 0
2, 3768, Note_on_c, 0, 56, 80
2, 3768, Note_on_c, 0, 60, 80
2, 3768, Note_on_c, 0, 66, 80
2, 3768, Note_on_c, 0, 68, 80
2, 3790, Note_on_c, 0, 66, 0
2, 3790, Note_on_c, 0, 56, 0
2, 3790, Note_on_c, 0, 60, 0
2, 3837, Note_on_c, 0, 68, 0
2, 3845, Control_c, 0, 64, 127
2, 3885, Note_on_c, 0, 49, 80
2, 3885, Note_on_c, 0, 61, 80
2, 3926, Note_on_c, 0, 61, 0
2, 3926, Note_on_c, 0, 49, 0
2, 3945, Control_c, 0, 64, 0
2, 3999, Note_on_c, 0, 56, 80
2, 3999, Note_on_c, 0, 61, 80
2, 3999, Note_on_c, 0, 65, 80
2, 3999, Note_on_c, 0, 73, 80
2, 3999, Note_on_c, 0, 77, 80
2, 3999, Note_on_c, 0, 80, 80
2, 3999, Note_on_c, 0, 85, 80
2, 4021, Note_on_c, 0, 65, 0
2, 4021, Note_on_c, 0, 56, 0
2, 4021, Note_on_c, 0, 61, 0
2, 4030, Note_on_c, 0, 77, 0
2, 4030, Note_on_c, 0, 73, 0
2, 4030, Note_on_c, 0, 80, 0
2, 4030, Note_on_c, 0, 85, 0
2, 4077, Note_on_c, 0, 70, 80
2, 4077, Note_on_c, 0, 73, 80
2, 4077, Note_on_c, 0, 77, 80
2, 4077, Note_on_c, 0, 82, 80
2, 4106, Control_c, 0, 64, 127
2, 4113, Note_on_c, 0, 65, 80
2, 4115, Note_on_c, 0, 53, 80
2, 4174, Control_c, 0, 64, 0
2, 4182, Note_on_c, 0, 82, 0
2, 4182, Note_on_c, 0, 77, 0
2, 4182, Note_on_c, 0, 70, 0
2, 4182, Note_on_c, 0, 73, 0
2, 4189, Note_on_c, 0, 72, 80
2, 4189, Note_on_c, 0, 84, 80
2, 4211, Note_on_c, 0, 65, 0
2, 4220, Note_on_c, 0, 84, 0
2, 4220, Note_on_c, 0, 72, 0
2, 4222, Note_on_c, 0, 53, 0
2, 4226, Note_on_c, 0, 52, 80
2, 4226, Note_on_c, 0, 64, 80
2, 4226, Note_on_c, 0, 70, 80
2, 4226, Note_on_c, 0, 82, 80
2, 4296, Note_on_c, 0, 82, 0
2, 4296, Note_on_c, 0, 70, 0
2, 4302, Note_on_c, 0, 68, 80
2, 4302, Note_on_c, 0, 80, 80
2, 4332, Note_on_c, 0, 80, 0
2, 4334, Note_on_c, 0, 52, 0
2, 4334, Note_on_c, 0, 64, 0
2, 4334, Note_on_c, 0, 68, 0
2, 4341, Note_on_c, 0, 51, 80
2, 4341, Note_on_c, 0, 63, 80
2, 4341, Note_on_c, 0, 72, 80
2, 4380, Note_on_c, 0, 63, 0
2, 4380, Note_on_c, 0, 51, 0
2, 4408, Note_on_c, 0, 72, 0
2, 4415, Note_on_c, 0, 73, 80
2, 4447, Note_on_c, 0, 73, 0
2, 4454, Note_on_c, 0, 56, 80
2, 4454, Note_on_c, 0, 60, 80
2, 4454, Note_on_c, 0, 66, 80
2, 4454, Note_on_c, 0, 74, 80
2, 4475, Note_on_c, 0, 66, 0
2, 4477, Note_on_c, 0, 56, 0
2, 4477, Note_on_c, 0, 60, 0
2, 4486, Note_on_c, 0, 74, 0
2, 4529, Note_on_c, 0, 75, 80
2, 4568, Note_on_c, 0, 44, 80
2, 4568, Note_on_c, 0, 56, 80
2, 4609, Note_on_c, 0, 56, 0
2, 4609, Note_on_c, 0, 44, 0
2, 4637, Note_on_c, 0, 75, 0
2, 4644, Note_on_c, 0, 80, 80
2, 4675, Note_on_c, 0, 80, 0
2, 4681, Note_on_c, 0, 56, 80
2, 4681, Note_on_c, 0, 60, 80
2, 4681, Note_on_c, 0, 66, 80
2, 4681, Note_on_c, 0, 68, 80
2, 4704, Note_on_c, 0, 66, 0
2, 4704, Note_on_c, 0, 56, 0
2, 4704, Note_on_c, 0, 60, 0
2, 4751, Note_on_c, 0, 68, 0
2, 4785, Control_c, 0, 64, 127
2, 4794, Note_on_c, 0, 49, 80
2, 4794, Note_on_c, 0, 61, 80
2, 4833, Note_on_c, 0, 61, 0
2, 4833, Note_on_c, 0, 49, 0
2, 4852, Control_c, 0, 64, 0
2, 4904, Note_on_c, 0, 73, 80
2, 4904, Note_on_c, 0, 77, 80
2, 4904, Note_on_c, 0, 80, 80
2, 4904, Note_on_c, 0, 85, 80
2, 4906, Note_on_c, 0, 56, 80
2, 4906, Note_on_c, 0, 61, 80
2, 4908, Note_on_c, 0, 65, 80
2, 4929, Note_on_c, 0, 65, 0
2, 4929, Note_on_c, 0, 56, 0
2, 4929, Note_on_c, 0, 61, 0
2, 4938, Note_on_c, 0, 80, 0
2, 4938, Note_on_c, 0, 73, 0
2, 4938, Note_on_c, 0, 77, 0
2, 4938, Note_on_c, 0, 85, 0
2, 4979, Note_on_c, 0, 70, 80
2, 4979, Note_on_c, 0, 73, 80
2, 4979, Note_on_c, 0, 77, 80
2, 4981, Note_on_c, 0, 82, 80
2, 5016, Note_on_c, 0, 65, 80
2, 5019, Note_on_c, 0, 53, 80
2, 5066, Note_on_c, 0, 77, 0
2, 5066, Note_on_c, 0, 70, 0
2, 5066, Note_on_c, 0, 66, 80
2, 5068, Note_on_c, 0, 73, 0
2, 5068, Note_on_c, 0, 65, 0
2, 5068, Note_on_c, 0, 53, 0
2, 5070, Note_on_c, 0, 82, 0
2, 5074, Note_on_c, 0, 56, 80
2, 5074, Note_on_c, 0, 60, 80
2, 5074, Note_on_c, 0, 74, 80
2, 5096, Note_on_c, 0, 60, 0
2, 5096, Note_on_c, 0, 66, 0
2, 5096, Note_on_c, 0, 56, 0
2, 5115, Note_on_c, 0, 74, 0
2, 5152, Control_c, 0, 64, 127
2, 5152, Note_on_c, 0, 66, 80
2, 5152, Note_on_c, 0, 75, 80
2, 5188, Note_on_c, 0, 44, 80
2, 5188, Note_on_c, 0, 56, 80
2, 5219, Control_c, 0, 64, 0
2, 5228, Note_on_c, 0, 56, 0
2, 5228, Note_on_c, 0, 44, 0
2, 5257, Note_on_c, 0, 75, 0
2, 5257, Note_on_c, 0, 66, 0
2, 5262, Note_on_c, 0, 80, 80
2, 5295, Note_on_c, 0, 80, 0
2, 5302, Note_on_c, 0, 56, 80
2, 5302, Note_on_c, 0, 60, 80
2, 5302, Note_on_c, 0, 66, 80
2, 5302, Note_on_c, 0, 68, 80
2, 5323, Note_on_c, 0, 66, 0
2, 5323, Note_on_c, 0, 56, 0
2, 5323, Note_on_c, 0, 60, 0
2, 5370, Note_on_c, 0, 68, 0
2, 5413, Note_on_c, 0, 49, 80
2, 5413, Note_on_c, 0, 61, 80
2, 5451, Note_on_c, 0, 61, 0
2, 5451, Note_on_c, 0, 49, 0
2, 5524, Note_on_c, 0, 73, 80
2, 5524, Note_on_c, 0, 77, 80
2, 5524, Note_on_c, 0, 80, 80
2, 5524, Note_on_c, 0, 85, 80
2, 5526, Note_on_c, 0, 56, 80
2, 5526, Note_on_c, 0, 61, 80
2, 5526, Note_on_c, 0, 65, 80
2, 5547, Note_on_c, 0, 65, 0
2, 5547, Note_on_c, 0, 56, 0
2, 5547, Note_on_c, 0, 61, 0
2, 5556, Note_on_c, 0, 80, 0
2, 5556, Note_on_c, 0, 73, 0
2, 5556, Note_on_c, 0, 77, 0
2, 5556, Note_on_c, 0, 85, 0
2, 5603, Note_on_c, 0, 70, 80
2, 5603, Note_on_c, 0, 73, 80
2, 5603, Note_on_c, 0, 77, 80
2, 5603, Note_on_c, 0, 82, 80
2, 5605, Control_c, 0, 64, 127
2, 5643, Note_on_c, 0, 41, 80
2, 5645, Note_on_c, 0, 53, 80
2, 5675, Control_c, 0, 64, 0
2, 5684, Note_on_c, 0, 41, 0
2, 5686, Note_on_c, 0, 53, 0
2, 5710, Note_on_c, 0, 77, 0
2, 5710, Note_on_c, 0, 70, 0
2, 5710, Note_on_c, 0, 73, 0
2, 5710, Note_on_c, 0, 82, 0
2, 5716, Note_on_c, 0, 72, 80
2, 5716, Note_on_c, 0, 84, 80
2, 5749, Note_on_c, 0, 84, 0
2, 5749, Note_on_c, 0, 72, 0
2, 5754, Note_on_c, 0, 70, 80
2, 5754, Note_on_c, 0, 82, 80
2, 5756, Note_on_c, 0, 59, 80
2, 5756, Note_on_c, 0, 61, 80
2, 5756, Note_on_c, 0, 65, 80
2, 5777, Note_on_c, 0, 65, 0
2, 5777, Note_on_c, 0, 59, 0
2, 5777, Note_on_c, 0, 61, 0
2, 5825, Note_on_c, 0, 82, 0
2, 5827, Note_on_c, 0, 70, 0
2, 5832, Note_on_c, 0, 77, 80
2, 5866, Note_on_c, 0, 77, 0
2, 5871, Note_on_c, 0, 54, 80
2, 5871, Note_on_c, 0, 70, 80
2, 5871, Note_on_c, 0, 73, 80
2, 5871, Note_on_c, 0, 78, 80
2, 5873, Note_on_c, 0, 42, 80
2, 5938, Note_on_c, 0, 78, 0
2, 5938, Note_on_c, 0, 73, 0
2, 5938, Note_on_c, 0, 70, 0
2, 5940, Note_on_c, 0, 54, 0
2, 5940, Note_on_c, 0, 42, 0
2, 5945, Note_on_c, 0, 77, 80
2, 5979, Note_on_c, 0, 77, 0
2, 5986, Note_on_c, 0, 61, 80
2, 5986, Note_on_c, 0, 66, 80
2, 5986, Note_on_c, 0, 78, 80
2, 5988, Note_on_c, 0, 58, 80
2, 6009, Note_on_c, 0, 58, 0
2, 6009, Note_on_c, 0, 61, 0
2, 6009, Note_on_c, 0, 66, 0
2, 6020, Note_on_c, 0, 78, 0
2, 6063, Note_on_c, 0, 76, 80
2, 6063, Note_on_c, 0, 79, 80
2, 6063, Note_on_c, 0, 87, 80
2, 6102, Note_on_c, 0, 55, 80
2, 6104, Note_on_c, 0, 43, 80
2, 6171, Note_on_c, 0, 87, 0
2, 6171, Note_on_c, 0, 76, 0
2, 6171, Note_on_c, 0, 79, 0
2, 6173, Note_on_c, 0, 43, 0
2, 6177, Note_on_c, 0, 85, 80
2, 6179, Note_on_c, 0, 73, 80
2, 6183, Note_on_c, 0, 55, 0
2, 6211, Note_on_c, 0, 73, 0
2, 6211, Note_on_c, 0, 85, 0
2, 6216, Note_on_c, 0, 82, 80
2, 6217, Note_on_c, 0, 55, 80
2, 6217, Note_on_c, 0, 61, 80
2, 6217, Note_on_c, 0, 64, 80
2, 6217, Note_on_c, 0, 70, 80
2, 6237, Note_on_c, 0, 64, 0
2, 6237, Note_on_c, 0, 61, 0
2, 6247, Note_on_c, 0, 55, 0
2, 6286, Note_on_c, 0, 82, 0
2, 6286, Note_on_c, 0, 70, 0
2, 6331, Note_on_c, 0, 56, 80
2, 6331, Note_on_c, 0, 80, 80
2, 6333, Note_on_c, 0, 44, 80
2, 6371, Note_on_c, 0, 44, 0
2, 6371, Note_on_c, 0, 56, 0
2, 6399, Note_on_c, 0, 80, 0
2, 6404, Note_on_c, 0, 68, 80
2, 6404, Note_on_c, 0, 73, 80
2, 6404, Note_on_c, 0, 77, 80
2, 6433, Note_on_c, 0, 68, 0
2, 6435, Note_on_c, 0, 77, 0
2, 6435, Note_on_c, 0, 73, 0
2, 6440, Note_on_c, 0, 56, 80
2, 6440, Note_on_c, 0, 61, 80
2, 6440, Note_on_c, 0, 65, 80
2, 6440, Note_on_c, 0, 80, 80
2, 6461, Note_on_c, 0, 65, 0
2, 6461, Note_on_c, 0, 56, 0
2, 6461, Note_on_c, 0, 61, 0
2, 6472, Note_on_c, 0, 80, 0
2, 6517, Note_on_c, 0, 67, 80
2, 6517, Note_on_c, 0, 73, 80
2, 6517, Note_on_c, 0, 77, 80
2, 6556, Note_on_c, 0, 46, 80
2, 6556, Note_on_c, 0, 58, 80
2, 6576, Control_c, 0, 64, 127
2, 6624, Note_on_c, 0, 58, 0
2, 6624, Note_on_c, 0, 77, 0
2, 6624, Note_on_c, 0, 67, 0
2, 6624, Note_on_c, 0, 73, 0
2, 6624, Note_on_c, 0, 46, 0
2, 6645, Control_c, 0, 64, 0
2, 6669, Note_on_c, 0, 44, 80
2, 6669, Note_on_c, 0, 56, 80
2, 6669, Note_on_c, 0, 66, 80
2, 6669, Note_on_c, 0, 72, 80
2, 6669, Note_on_c, 0, 75, 80
2, 6738, Note_on_c, 0, 56, 0
2, 6772, Note_on_c, 0, 72, 0
2, 6772, Note_on_c, 0, 75, 0
2, 6774, Note_on_c, 0, 66, 0
2, 6774, Note_on_c, 0, 44, 0
2, 6781, Note_on_c, 0, 49, 80
2, 6781, Note_on_c, 0, 56, 80
2, 6781, Note_on_c, 0, 61, 80
2, 6781, Note_on_c, 0, 65, 80
2, 6781, Note_on_c, 0, 68, 80
2, 6781, Note_on_c, 0, 73, 80
2, 6848, Note_on_c, 0, 73, 0
2, 6848, Note_on_c, 0, 56, 0
2, 6848, Note_on_c, 0, 61, 0
2, 6848, Note_on_c, 0, 65, 0
2, 6848, Note_on_c, 0, 68, 0
2, 6850, Note_on_c, 0, 49, 0
2, 6885, Note_on_c, 0, 79, 80
2, 6893, Note_on_c, 0, 80, 80
2, 6897, Note_on_c, 0, 79, 0
2, 6936, Note_on_c, 0, 80, 0
2, 7001, Note_on_c, 0, 79, 80
2, 7009, Note_on_c, 0, 80, 80
2, 7013, Note_on_c, 0, 79, 0
2, 7052, Note_on_c, 0, 80, 0
2, 7123, Note_on_c, 0, 72, 80
2, 7123, Note_on_c, 0, 80, 80
2, 7125, Note_on_c, 0, 44, 80
2, 7125, Note_on_c, 0, 56, 80
2, 7125, Note_on_c, 0, 68, 80
2, 7190, Note_on_c, 0, 68, 0
2, 7190, Note_on_c, 0, 72, 0
2, 7190, Note_on_c, 0, 80, 0
2, 7192, Note_on_c, 0, 44, 0
2, 7192, Note_on_c, 0, 56, 0
2, 7233, Note_on_c, 0, 49, 80
2, 7233, Note_on_c, 0, 61, 80
2, 7274, Note_on_c, 0, 61, 0
2, 7274, Note_on_c, 0, 49, 0
2, 7344, Note_on_c, 0, 73, 80
2, 7344, Note_on_c, 0, 77, 80
2, 7344, Note_on_c, 0, 80, 80
2, 7345, Note_on_c, 0, 61, 80
2, 7345, Note_on_c, 0, 65, 80
2, 7345, Note_on_c, 0, 85, 80
2, 7347, Note_on_c, 0, 56, 80
2, 7368, Note_on_c, 0, 56, 0
2, 7368, Note_on_c, 0, 61, 0
2, 7368, Note_on_c, 0, 65, 0
2, 7377, Note_on_c, 0, 80, 0
2, 7377, Note_on_c, 0, 73, 0
2, 7377, Note_on_c, 0, 77, 0
2, 7377, Note_on_c, 0, 85, 0
2, 7418, Note_on_c, 0, 82, 80
2, 7420, Note_on_c, 0, 70, 80
2, 7420, Note_on_c, 0, 73, 80
2, 7420, Note_on_c, 0, 77, 80
2, 7457, Note_on_c, 0, 53, 80
2, 7457, Note_on_c, 0, 65, 80
2, 7522, Note_on_c, 0, 77, 0
2, 7522, Note_on_c, 0, 73, 0
2, 7522, Note_on_c, 0, 82, 0
2, 7522, Note_on_c, 0, 70, 0
2, 7529, Note_on_c, 0, 72, 80
2, 7529, Note_on_c, 0, 84, 80
2, 7559, Note_on_c, 0, 84, 0
2, 7559, Note_on_c, 0, 72, 0
2, 7559, Note_on_c, 0, 65, 0
2, 7562, Note_on_c, 0, 53, 0
2, 7566, Note_on_c, 0, 82, 80
2, 7568, Note_on_c, 0, 52, 80
2, 7568, Note_on_c, 0, 64, 80
2, 7568, Note_on_c, 0, 70, 80
2, 7637, Note_on_c, 0, 70, 0
2, 7637, Note_on_c, 0, 82, 0
2, 7642, Note_on_c, 0, 80, 80
2, 7644, Note_on_c, 0, 68, 80
2, 7675, Note_on_c, 0, 80, 0
2, 7677, Note_on_c, 0, 52, 0
2, 7677, Note_on_c, 0, 64, 0
2, 7677, Note_on_c, 0, 68, 0
2, 7681, Note_on_c, 0, 51, 80
2, 7681, Note_on_c, 0, 63, 80
2, 7681, Note_on_c, 0, 72, 80
2, 7721, Note_on_c, 0, 63, 0
2, 7723, Note_on_c, 0, 51, 0
2, 7751, Note_on_c, 0, 72, 0
2, 7757, Note_on_c, 0, 73, 80
2, 7790, Note_on_c, 0, 73, 0
2, 7797, Note_on_c, 0, 56, 80
2, 7797, Note_on_c, 0, 60, 80
2, 7797, Note_on_c, 0, 66, 80
2, 7797, Note_on_c, 0, 74, 80
2, 7819, Note_on_c, 0, 66, 0
2, 7819, Note_on_c, 0, 56, 0
2, 7819, Note_on_c, 0, 60, 0
2, 7827, Note_on_c, 0, 74, 0
2, 7873, Note_on_c, 0, 75, 80
2, 7912, Note_on_c, 0, 44, 80
2, 7912, Note_on_c, 0, 56, 80
2, 7953, Note_on_c, 0, 56, 0
2, 7953, Note_on_c, 0, 44, 0
2, 7981, Note_on_c, 0, 75, 0
2, 7988, Note_on_c, 0, 80, 80
2, 8018, Note_on_c, 0, 80, 0
2, 8027, Note_on_c, 0, 56, 80
2, 8027, Note_on_c, 0, 60, 80
2, 8027, Note_on_c, 0, 66, 80
2, 8027, Note_on_c, 0, 68, 80
2, 8046, Note_on_c, 0, 66, 0
2, 8046, Note_on_c, 0, 60, 0
2, 8048, Note_on_c, 0, 56, 0
2, 8094, Note_on_c, 0, 68, 0
2, 8103, Control_c, 0, 64, 127
2, 8139, Note_on_c, 0, 49, 80
2, 8139, Note_on_c, 0, 61, 80
2, 8181, Note_on_c, 0, 61, 0
2, 8181, Note_on_c, 0, 49, 0
2, 8200, Control_c, 0, 64, 0
2, 8252, Note_on_c, 0, 56, 80
2, 8252, Note_on_c, 0, 61, 80
2, 8252, Note_on_c, 0, 65, 80
2, 8252, Note_on_c, 0, 73, 80
2, 8252, Note_on_c, 0, 77, 80
2, 8252, Note_on_c, 0, 80, 80
2, 8252, Note_on_c, 0, 85, 80
2, 8273, Note_on_c, 0, 65, 0
2, 8273, Note_on_c, 0, 56, 0
2, 8273, Note_on_c, 0, 61, 0
2, 8281, Note_on_c, 0, 77, 0
2, 8281, Note_on_c, 0, 85, 0
2, 8281, Note_on_c, 0, 80, 0
2, 8283, Note_on_c, 0, 73, 0
2, 8325, Note_on_c, 0, 73, 80
2, 8325, Note_on_c, 0, 77, 80
2, 8325, Note_on_c, 0, 82, 80
2, 8327, Control_c, 0, 64, 127
2, 8327, Note_on_c, 0, 70, 80
2, 8364, Note_on_c, 0, 53, 80
2, 8364, Note_on_c, 0, 65, 80
2, 8423, Control_c, 0, 64, 0
2, 8431, Note_on_c, 0, 70, 0
2, 8431, Note_on_c, 0, 82, 0
2, 8431, Note_on_c, 0, 73, 0
2, 8431, Note_on_c, 0, 77, 0
2, 8438, Note_on_c, 0, 72, 80
2, 8438, Note_on_c, 0, 84, 80
2, 8469, Note_on_c, 0, 84, 0
2, 8469, Note_on_c, 0, 72, 0
2, 8471, Note_on_c, 0, 65, 0
2, 8471, Note_on_c, 0, 53, 0
2, 8477, Note_on_c, 0, 52, 80
2, 8477, Note_on_c, 0, 64, 80
2, 8477, Note_on_c, 0, 70, 80
2, 8477, Note_on_c, 0, 82, 80
2, 8548, Note_on_c, 0, 82, 0
2, 8548, Note_on_c, 0, 70, 0
2, 8555, Note_on_c, 0, 68, 80
2, 8555, Note_on_c, 0, 80, 80
2, 8588, Note_on_c, 0, 80, 0
2, 8588, Note_on_c, 0, 52, 0
2, 8588, Note_on_c, 0, 64, 0
2, 8588, Note_on_c, 0, 68, 0
2, 8594, Note_on_c, 0, 51, 80
2, 8594, Note_on_c, 0, 63, 80
2, 8594, Note_on_c, 0, 66, 80
2, 8594, Note_on_c, 0, 72, 80
2, 8664, Note_on_c, 0, 72, 0
2, 8664, Note_on_c, 0, 51, 0
2, 8664, Note_on_c, 0, 63, 0
2, 8664, Note_on_c, 0, 66, 0
2, 8670, Note_on_c, 0, 73, 80
2, 8703, Note_on_c, 0, 73, 0
2, 8708, Note_on_c, 0, 60, 80
2, 8708, Note_on_c, 0, 66, 80
2, 8708, Note_on_c, 0, 74, 80
2, 8710, Note_on_c, 0, 56, 80
2, 8729, Note_on_c, 0, 56, 0
2, 8729, Note_on_c, 0, 60, 0
2, 8729, Note_on_c, 0, 66, 0
2, 8737, Note_on_c, 0, 74, 0
2, 8784, Note_on_c, 0, 66, 80
2, 8784, Note_on_c, 0, 75, 80
2, 8820, Note_on_c, 0, 44, 80
2, 8820, Note_on_c, 0, 56, 80
2, 8859, Note_on_c, 0, 56, 0
2, 8859, Note_on_c, 0, 44, 0
2, 8889, Note_on_c, 0, 75, 0
2, 8889, Note_on_c, 0, 66, 0
2, 8896, Note_on_c, 0, 80, 80
2, 8927, Note_on_c, 0, 80, 0
2, 8931, Note_on_c, 0, 56, 80
2, 8931, Note_on_c, 0, 60, 80
2, 8931, Note_on_c, 0, 66, 80
2, 8931, Note_on_c, 0, 68, 80
2, 8953, Note_on_c, 0, 66, 0
2, 8953, Note_on_c, 0, 56, 0
2, 8953, Note_on_c, 0, 60, 0
2, 8999, Note_on_c, 0, 68, 0
2, 9045, Note_on_c, 0, 49, 80
2, 9045, Note_on_c, 0, 61, 80
2, 9084, Note_on_c, 0, 61, 0
2, 9084, Note_on_c, 0, 49, 0
2, 9155, Note_on_c, 0, 61, 80
2, 9155, Note_on_c, 0, 73, 80
2, 9155, Note_on_c, 0, 77, 80
2, 9155, Note_on_c, 0, 80, 80
2, 9155, Note_on_c, 0, 85, 80
2, 9157, Note_on_c, 0, 56, 80
2, 9157, Note_on_c, 0, 65, 80
2, 9176, Note_on_c, 0, 65, 0
2, 9176, Note_on_c, 0, 61, 0
2, 9176, Note_on_c, 0, 56, 0
2, 9183, Note_on_c, 0, 80, 0
2, 9183, Note_on_c, 0, 85, 0
2, 9185, Note_on_c, 0, 77, 0
2, 9185, Note_on_c, 0, 73, 0
2, 9202, Control_c, 0, 64, 127
2, 9230, Note_on_c, 0, 70, 80
2, 9230, Note_on_c, 0, 73, 80
2, 9230, Note_on_c, 0, 77, 80
2, 9230, Note_on_c, 0, 82, 80
2, 9264, Note_on_c, 0, 44, 80
2, 9264, Note_on_c, 0, 56, 80
2, 9268, Control_c, 0, 64, 0
2, 9331, Note_on_c, 0, 82, 0
2, 9331, Note_on_c, 0, 70, 0
2, 9333, Note_on_c, 0, 73, 0
2, 9333, Note_on_c, 0, 77, 0
2, 9337, Note_on_c, 0, 72, 80
2, 9337, Note_on_c, 0, 84, 80
2, 9368, Note_on_c, 0, 84, 0
2, 9368, Note_on_c, 0, 72, 0
2, 9370, Note_on_c, 0, 56, 0
2, 9370, Note_on_c, 0, 44, 0
2, 9375, Note_on_c, 0, 70, 80
2, 9375, Note_on_c, 0, 82, 80
2, 9377, Note_on_c, 0, 46, 80
2, 9377, Note_on_c, 0, 58, 80
2, 9444, Note_on_c, 0, 82, 0
2, 9444, Note_on_c, 0, 70, 0
2, 9451, Note_on_c, 0, 68, 80
2, 9451, Note_on_c, 0, 80, 80
2, 9480, Note_on_c, 0, 80, 0
2, 9480, Note_on_c, 0, 68, 0
2, 9480, Note_on_c, 0, 58, 0
2, 9481, Note_on_c, 0, 46, 0
2, 9486, Note_on_c, 0, 48, 80
2, 9486, Note_on_c, 0, 60, 80
2, 9486, Note_on_c, 0, 72, 80
2, 9528, Note_on_c, 0, 60, 0
2, 9528, Note_on_c, 0, 48, 0
2, 9556, Note_on_c, 0, 72, 0
2, 9563, Note_on_c, 0, 77, 80
2, 9598, Note_on_c, 0, 77, 0
2, 9602, Note_on_c, 0, 56, 80
2, 9602, Note_on_c, 0, 60, 80
2, 9602, Note_on_c, 0, 65, 80
2, 9602, Note_on_c, 0, 80, 80
2, 9624, Note_on_c, 0, 65, 0
2, 9624, Note_on_c, 0, 56, 0
2, 9624, Note_on_c, 0, 60, 0
2, 9672, Note_on_c, 0, 80, 0
2, 9679, Note_on_c, 0, 82, 80
2, 9710, Note_on_c, 0, 82, 0
2, 9717, Note_on_c, 0, 84, 80
2, 9719, Note_on_c, 0, 44, 80
2, 9719, Note_on_c, 0, 56, 80
2, 9788, Note_on_c, 0, 56, 0
2, 9788, Note_on_c, 0, 44, 0
2, 9788, Note_on_c, 0, 84, 0
2, 9792, Note_on_c, 0, 89, 80
2, 9796, Control_c, 0, 64, 127
2, 9824, Note_on_c, 0, 89, 0
2, 9831, Note_on_c, 0, 92, 80
2, 9833, Note_on_c, 0, 41, 80
2, 9833, Note_on_c, 0, 53, 80
2, 9865, Control_c, 0, 64, 0
2, 9902, Note_on_c, 0, 92, 0
2, 9906, Note_on_c, 0, 94, 80
2, 9936, Note_on_c, 0, 94, 0
2, 9940, Note_on_c, 0, 53, 0
2, 9940, Note_on_c, 0, 41, 0
2, 9944, Note_on_c, 0, 96, 80
2, 9946, Note_on_c, 0, 43, 80
2, 9946, Note_on_c, 0, 55, 80
2, 9987, Note_on_c, 0, 55, 0
2, 9987, Note_on_c, 0, 43, 0
2, 10013, Note_on_c, 0, 96, 0
2, 10020, Note_on_c, 0, 94, 80
2, 10053, Note_on_c, 0, 94, 0
2, 10059, Note_on_c, 0, 91, 80
2, 10061, Note_on_c, 0, 58, 80
2, 10061, Note_on_c, 0, 60, 80
2, 10061, Note_on_c, 0, 64, 80
2, 10080, Note_on_c, 0, 64, 0
2, 10080, Note_on_c, 0, 60, 0
2, 10082, Note_on_c, 0, 58, 0
2, 10128, Note_on_c, 0, 91, 0
2, 10135, Note_on_c, 0, 88, 80
2, 10168, Note_on_c, 0, 88, 0
2, 10173, Note_on_c, 0, 36, 80
2, 10173, Note_on_c, 0, 48, 80
2, 10173, Note_on_c, 0, 84, 80
2, 10214, Note_on_c, 0, 48, 0
2, 10214, Note_on_c, 0, 36, 0
2, 10242, Note_on_c, 0, 84, 0
2, 10250, Note_on_c, 0, 82, 80
2, 10279, Note_on_c, 0, 82, 0
2, 10284, Note_on_c, 0, 79, 80
2, 10286, Note_on_c, 0, 58, 80
2, 10286, Note_on_c, 0, 60, 80
2, 10286, Note_on_c, 0, 64, 80
2, 10308, Note_on_c, 0, 64, 0
2, 10308, Note_on_c, 0, 60, 0
2, 10308, Note_on_c, 0, 58, 0
2, 10356, Note_on_c, 0, 79, 0
2, 10361, Note_on_c, 0, 76, 80
2, 10392, Note_on_c, 0, 76, 0
2, 10400, Note_on_c, 0, 41, 80
2, 10400, Note_on_c, 0, 53, 80
2, 10400, Note_on_c, 0, 77, 80
2, 10467, Note_on_c, 0, 77, 0
2, 10472, Note_on_c, 0, 78, 80
2, 10501, Note_on_c, 0, 78, 0
2, 10508, Note_on_c, 0, 79, 80
2, 10510, Note_on_c, 0, 56, 80
2, 10510, Note_on_c, 0, 60, 80
2, 10510, Note_on_c, 0, 65, 80
2, 10532, Note_on_c, 0, 65, 0
2, 10532, Note_on_c, 0, 56, 0
2, 10532, Note_on_c, 0, 60, 0
2, 10551, Note_on_c, 0, 79, 0
2, 10585, Note_on_c, 0, 66, 80
2, 10585, Note_on_c, 0, 72, 80
2, 10585, Note_on_c, 0, 80, 80
2, 10618, Note_on_c, 0, 41, 0
2, 10620, Note_on_c, 0, 53, 0
2, 10624, Note_on_c, 0, 39, 80
2, 10624, Note_on_c, 0, 51, 80
2, 10665, Note_on_c, 0, 51, 0
2, 10665, Note_on_c, 0, 39, 0
2, 10691, Note_on_c, 0, 80, 0
2, 10691, Note_on_c, 0, 66, 0
2, 10691, Note_on_c, 0, 72, 0
2, 10698, Note_on_c, 0, 75, 80
2, 10730, Note_on_c, 0, 75, 0
2, 10737, Note_on_c, 0, 56, 80
2, 10737, Note_on_c, 0, 60, 80
2, 10737, Note_on_c, 0, 66, 80
2, 10737, Note_on_c, 0, 68, 80
2, 10759, Note_on_c, 0, 66, 0
2, 10759, Note_on_c, 0, 56, 0
2, 10759, Note_on_c, 0, 60, 0
2, 10804, Note_on_c, 0, 68, 0
2, 10811, Control_c, 0, 64, 127
2, 10848, Note_on_c, 0, 49, 80
2, 10848, Note_on_c, 0, 61, 80
2, 10889, Note_on_c, 0, 61, 0
2, 10889, Note_on_c, 0, 49, 0
2, 10909, Control_c, 0, 64, 0
2, 10961, Note_on_c, 0, 56, 80
2, 10961, Note_on_c, 0, 61, 80
2, 10961, Note_on_c, 0, 65, 80
2, 10961, Note_on_c, 0, 73, 80
2, 10961, Note_on_c, 0, 77, 80
2, 10961, Note_on_c, 0, 80, 80
2, 10961, Note_on_c, 0, 85, 80
2, 10983, Note_on_c, 0, 65, 0
2, 10983, Note_on_c, 0, 56, 0
2, 10983, Note_on_c, 0, 61, 0
2, 10990, Note_on_c, 0, 80, 0
2, 10992, Note_on_c, 0, 73, 0
2, 10992, Note_on_c, 0, 77, 0
2, 10992, Note_on_c, 0, 85, 0
2, 11035, Control_c, 0, 64, 127
2, 11035, Note_on_c, 0, 70, 80
2, 11035, Note_on_c, 0, 73, 80
2, 11035, Note_on_c, 0, 77, 80
2, 11035, Note_on_c, 0, 82, 80
2, 11072, Note_on_c, 0, 65, 80
2, 11074, Note_on_c, 0, 53, 80
2, 11103, Control_c, 0, 64, 0
2, 11139, Note_on_c, 0, 82, 0
2, 11139, Note_on_c, 0, 77, 0
2, 11139, Note_on_c, 0, 70, 0
2, 11139, Note_on_c, 0, 73, 0
2, 11144, Note_on_c, 0, 72, 80
2, 11144, Note_on_c, 0, 84, 80
2, 11166, Note_on_c, 0, 65, 0
2, 11175, Note_on_c, 0, 84, 0
2, 11175, Note_on_c, 0, 72, 0
2, 11177, Note_on_c, 0, 53, 0
2, 11181, Note_on_c, 0, 70, 80
2, 11181, Note_on_c, 0, 82, 80
2, 11183, Note_on_c, 0, 52, 80
2, 11183, Note_on_c, 0, 64, 80
2, 11252, Note_on_c, 0, 82, 0
2, 11252, Note_on_c, 0, 70, 0
2, 11258, Note_on_c, 0, 68, 80
2, 11258, Note_on_c, 0, 80, 80
2, 11289, Note_on_c, 0, 80, 0
2, 11289, Note_on_c, 0, 64, 0
2, 11289, Note_on_c, 0, 52, 0
2, 11289, Note_on_c, 0, 68, 0
2, 11294, Note_on_c, 0, 51, 80
2, 11294, Note_on_c, 0, 63, 80
2, 11294, Note_on_c, 0, 72, 80
2, 11333, Note_on_c, 0, 63, 0
2, 11333, Note_on_c, 0, 51, 0
2, 11361, Note_on_c, 0, 72, 0
2, 11366, Note_on_c, 0, 73, 80
2, 11399, Note_on_c, 0, 73, 0
2, 11403, Note_on_c, 0, 60, 80
2, 11403, Note_on_c, 0, 66, 80
2, 11405, Note_on_c, 0, 56, 80
2, 11405, Note_on_c, 0, 74, 80
2, 11425, Note_on_c, 0, 56, 0
2, 11425, Note_on_c, 0, 60, 0
2, 11425, Note_on_c, 0, 66, 0
2, 11436, Note_on_c, 0, 74, 0
2, 11479, Note_on_c, 0, 75, 80
2, 11517, Note_on_c, 0, 44, 80
2, 11517, Note_on_c, 0, 56, 80
2, 11556, Note_on_c, 0, 56, 0
2, 11556, Note_on_c, 0, 44, 0
2, 11584, Note_on_c, 0, 75, 0
2, 11591, Note_on_c, 0, 80, 80
2, 11623, Note_on_c, 0, 80, 0
2, 11630, Note_on_c, 0, 56, 80
2, 11630, Note_on_c, 0, 60, 80
2, 11630, Note_on_c, 0, 66, 80
2, 11630, Note_on_c, 0, 68, 80
2, 11650, Note_on_c, 0, 66, 0
2, 11650, Note_on_c, 0, 56, 0
2, 11650, Note_on_c, 0, 60, 0
2, 11698, Note_on_c, 0, 68, 0
2, 11736, Control_c, 0, 64, 127
2, 11744, Note_on_c, 0, 49, 80
2, 11744, Note_on_c, 0, 61, 80
2, 11784, Note_on_c, 0, 61, 0
2, 11785, Note_on_c, 0, 49, 0
2, 11801, Control_c, 0, 64, 0
2, 11854, Note_on_c, 0, 73, 80
2, 11856, Note_on_c, 0, 56, 80
2, 11856, Note_on_c, 0, 61, 80
2, 11856, Note_on_c, 0, 65, 80
2, 11856, Note_on_c, 0, 77, 80
2, 11856, Note_on_c, 0, 80, 80
2, 11856, Note_on_c, 0, 85, 80
2, 11878, Note_on_c, 0, 65, 0
2, 11878, Note_on_c, 0, 61, 0
2, 11878, Note_on_c, 0, 56, 0
2, 11884, Note_on_c, 0, 77, 0
2, 11884, Note_on_c, 0, 73, 0
2, 11884, Note_on_c, 0, 80, 0
2, 11884, Note_on_c, 0, 85, 0
2, 11930, Note_on_c, 0, 70, 80
2, 11930, Note_on_c, 0, 73, 80
2, 11930, Note_on_c, 0, 77, 80
2, 11930, Note_on_c, 0, 82, 80
2, 11967, Note_on_c, 0, 53, 80
2, 11967, Note_on_c, 0, 65, 80
2, 12032, Note_on_c, 0, 82, 0
2, 12032, Note_on_c, 0, 77, 0
2, 12032, Note_on_c, 0, 70, 0
2, 12032, Note_on_c, 0, 73, 0
2, 12039, Note_on_c, 0, 72, 80
2, 12039, Note_on_c, 0, 84, 80
2, 12070, Note_on_c, 0, 84, 0
2, 12070, Note_on_c, 0, 72, 0
2, 12070, Note_on_c, 0, 65, 0
2, 12072, Note_on_c, 0, 53, 0
2, 12076, Note_on_c, 0, 52, 80
2, 12076, Note_on_c, 0, 64, 80
2, 12076, Note_on_c, 0, 70, 80
2, 12076, Note_on_c, 0, 82, 80
2, 12144, Note_on_c, 0, 82, 0
2, 12144, Note_on_c, 0, 70, 0
2, 12150, Note_on_c, 0, 68, 80
2, 12150, Note_on_c, 0, 80, 80
2, 12183, Note_on_c, 0, 80, 0
2, 12183, Note_on_c, 0, 52, 0
2, 12183, Note_on_c, 0, 64, 0
2, 12183, Note_on_c, 0, 68, 0
2, 12188, Note_on_c, 0, 63, 80
2, 12188, Note_on_c, 0, 66, 80
2, 12188, Note_on_c, 0, 72, 80
2, 12190, Note_on_c, 0, 51, 80
2, 12231, Note_on_c, 0, 51, 0
2, 12231, Note_on_c, 0, 63, 0
2, 12259, Note_on_c, 0, 72, 0
2, 12259, Note_on_c, 0, 66, 0
2, 12264, Note_on_c, 0, 73, 80
2, 12296, Note_on_c, 0, 73, 0
2, 12301, Note_on_c, 0, 56, 80
2, 12301, Note_on_c, 0, 60, 80
2, 12301, Note_on_c, 0, 66, 80
2, 12301, Note_on_c, 0, 74, 80
2, 12323, Note_on_c, 0, 66, 0
2, 12323, Note_on_c, 0, 56, 0
2, 12323, Note_on_c, 0, 60, 0
2, 12343, Note_on_c, 0, 74, 0
2, 12378, Note_on_c, 0, 66, 80
2, 12378, Note_on_c, 0, 75, 80
2, 12408, Control_c, 0, 64, 127
2, 12417, Note_on_c, 0, 44, 80
2, 12417, Note_on_c, 0, 56, 80
2, 12456, Note_on_c, 0, 56, 0
2, 12456, Note_on_c, 0, 44, 0
2, 12474, Control_c, 0, 64, 0
2, 12482, Note_on_c, 0, 75, 0
2, 12482, Note_on_c, 0, 66, 0
2, 12489, Note_on_c, 0, 80, 80
2, 12520, Note_on_c, 0, 80, 0
2, 12525, Note_on_c, 0, 68, 80
2, 12527, Note_on_c, 0, 56, 80
2, 12527, Note_on_c, 0, 60, 80
2, 12527, Note_on_c, 0, 66, 80
2, 12549, Note_on_c, 0, 66, 0
2, 12549, Note_on_c, 0, 60, 0
2, 12549, Note_on_c, 0, 56, 0
2, 12597, Note_on_c, 0, 68, 0
2, 12642, Note_on_c, 0, 49, 80
2, 12642, Note_on_c, 0, 61, 80
2, 12681, Note_on_c, 0, 61, 0
2, 12681, Note_on_c, 0, 49, 0
2, 12753, Note_on_c, 0, 56, 80
2, 12753, Note_on_c, 0, 61, 80
2, 12753, Note_on_c, 0, 65, 80
2, 12753, Note_on_c, 0, 73, 80
2, 12753, Note_on_c, 0, 77, 80
2, 12753, Note_on_c, 0, 80, 80
2, 12753, Note_on_c, 0, 85, 80
2, 12775, Note_on_c, 0, 65, 0
2, 12775, Note_on_c, 0, 56, 0
2, 12775, Note_on_c, 0, 61, 0
2, 12782, Note_on_c, 0, 77, 0
2, 12782, Note_on_c, 0, 73, 0
2, 12782, Note_on_c, 0, 80, 0
2, 12782, Note_on_c, 0, 85, 0
2, 12799, Control_c, 0, 64, 127
2, 12825, Note_on_c, 0, 70, 80
2, 12825, Note_on_c, 0, 73, 80
2, 12825, Note_on_c, 0, 77, 80
2, 12825, Note_on_c, 0, 82, 80
2, 12863, Note_on_c, 0, 41, 80
2, 12864, Note_on_c, 0, 53, 80
2, 12893, Control_c, 0, 64, 0
2, 12902, Note_on_c, 0, 41, 0
2, 12904, Note_on_c, 0, 53, 0
2, 12930, Note_on_c, 0, 77, 0
2, 12930, Note_on_c, 0, 70, 0
2, 12930, Note_on_c, 0, 73, 0
2, 12930, Note_on_c, 0, 82, 0
2, 12936, Note_on_c, 0, 72, 80
2, 12936, Note_on_c, 0, 84, 80
2, 12967, Note_on_c, 0, 84, 0
2, 12967, Note_on_c, 0, 72, 0
2, 12974, Note_on_c, 0, 59, 80
2, 12974, Note_on_c, 0, 61, 80
2, 12974, Note_on_c, 0, 65, 80
2, 12974, Note_on_c, 0, 70, 80
2, 12974, Note_on_c, 0, 82, 80
2, 12996, Note_on_c, 0, 65, 0
2, 12996, Note_on_c, 0, 59, 0
2, 12996, Note_on_c, 0, 61, 0
2, 13042, Note_on_c, 0, 70, 0
2, 13042, Note_on_c, 0, 82, 0
2, 13049, Note_on_c, 0, 77, 80
2, 13080, Note_on_c, 0, 77, 0
2, 13086, Note_on_c, 0, 42, 80
2, 13086, Note_on_c, 0, 54, 80
2, 13086, Note_on_c, 0, 70, 80
2, 13086, Note_on_c, 0, 73, 80
2, 13086, Note_on_c, 0, 78, 80
2, 13155, Note_on_c, 0, 78, 0
2, 13155, Note_on_c, 0, 70, 0
2, 13155, Note_on_c, 0, 42, 0
2, 13155, Note_on_c, 0, 54, 0
2, 13155, Note_on_c, 0, 73, 0
2, 13162, Note_on_c, 0, 77, 80
2, 13193, Note_on_c, 0, 77, 0
2, 13200, Note_on_c, 0, 58, 80
2, 13200, Note_on_c, 0, 61, 80
2, 13200, Note_on_c, 0, 66, 80
2, 13200, Note_on_c, 0, 78, 80
2, 13220, Note_on_c, 0, 66, 0
2, 13222, Note_on_c, 0, 58, 0
2, 13222, Note_on_c, 0, 61, 0
2, 13230, Note_on_c, 0, 78, 0
2, 13270, Note_on_c, 0, 79, 80
2, 13270, Note_on_c, 0, 87, 80
2, 13272, Note_on_c, 0, 76, 80
2, 13308, Note_on_c, 0, 43, 80
2, 13308, Note_on_c, 0, 55, 80
2, 13373, Note_on_c, 0, 55, 0
2, 13373, Note_on_c, 0, 76, 0
2, 13373, Note_on_c, 0, 79, 0
2, 13373, Note_on_c, 0, 87, 0
2, 13373, Note_on_c, 0, 43, 0
2, 13378, Note_on_c, 0, 85, 80
2, 13380, Note_on_c, 0, 73, 80
2, 13411, Note_on_c, 0, 73, 0
2, 13411, Note_on_c, 0, 85, 0
2, 13417, Note_on_c, 0, 55, 80
2, 13417, Note_on_c, 0, 61, 80
2, 13417, Note_on_c, 0, 64, 80
2, 13417, Note_on_c, 0, 70, 80
2, 13417, Note_on_c, 0, 82, 80
2, 13440, Note_on_c, 0, 64, 0
2, 13440, Note_on_c, 0, 61, 0
2, 13448, Note_on_c, 0, 55, 0
2, 13486, Note_on_c, 0, 82, 0
2, 13486, Note_on_c, 0, 70, 0
2, 13529, Note_on_c, 0, 80, 80
2, 13531, Note_on_c, 0, 44, 80
2, 13531, Note_on_c, 0, 56, 80
2, 13570, Note_on_c, 0, 56, 0
2, 13570, Note_on_c, 0, 44, 0
2, 13598, Note_on_c, 0, 80, 0
2, 13605, Note_on_c, 0, 68, 80
2, 13605, Note_on_c, 0, 73, 80
2, 13605, Note_on_c, 0, 77, 80
2, 13637, Note_on_c, 0, 77, 0
2, 13637, Note_on_c, 0, 73, 0
2, 13637, Note_on_c, 0, 68, 0
2, 13644, Note_on_c, 0, 56, 80
2, 13644, Note_on_c, 0, 61, 80
2, 13644, Note_on_c, 0, 65, 80
2, 13644, Note_on_c, 0, 80, 80
2, 13664, Note_on_c, 0, 65, 0
2, 13666, Note_on_c, 0, 56, 0
2, 13666, Note_on_c, 0, 61, 0
2, 13675, Note_on_c, 0, 80, 0
2, 13718, Note_on_c, 0, 67, 80
2, 13718, Note_on_c, 0, 73, 80
2, 13718, Note_on_c, 0, 77, 80
2, 13755, Note_on_c, 0, 46, 80
2, 13755, Note_on_c, 0, 58, 80
2, 13823, Note_on_c, 0, 58, 0
2, 13823, Note_on_c, 0, 77, 0
2, 13823, Note_on_c, 0, 67, 0
2, 13823, Note_on_c, 0, 73, 0
2, 13823, Note_on_c, 0, 46, 0
2, 13867, Note_on_c, 0, 44, 80
2, 13867, Note_on_c, 0, 56, 80
2, 13867, Note_on_c, 0, 66, 80
2, 13867, Note_on_c, 0, 72, 80
2, 13867, Note_on_c, 0, 75, 80
2, 13939, Note_on_c, 0, 56, 0
2, 13975, Note_on_c, 0, 72, 0
2, 13975, Note_on_c, 0, 75, 0
2, 13975, Note_on_c, 0, 66, 0
2, 13977, Note_on_c, 0, 44, 0
2, 13981, Note_on_c, 0, 68, 80
2, 13981, Note_on_c, 0, 73, 80
2, 13983, Note_on_c, 0, 49, 80
2, 13983, Note_on_c, 0, 56, 80
2, 13983, Note_on_c, 0, 61, 80
2, 13983, Note_on_c, 0, 65, 80
2, 14022, Note_on_c, 0, 65, 0
2, 14022, Note_on_c, 0, 73, 0
2, 14022, Note_on_c, 0, 49, 0
2, 14022, Note_on_c, 0, 68, 0
2, 14022, Note_on_c, 0, 61, 0
2, 14022, Note_on_c, 0, 56, 0
2, 14096, Note_on_c, 0, 80, 80
2, 14096, Note_on_c, 0, 92, 80
2, 14205, Note_on_c, 0, 92, 0
2, 14205, Note_on_c, 0, 80, 0
2, 14211, Note_on_c, 0, 79, 80
2, 14211, Note_on_c, 0, 91, 80
2, 14320, Note_on_c, 0, 91, 0
2, 14327, Note_on_c, 0, 78, 80
2, 14327, Note_on_c, 0, 90, 80
2, 14330, Note_on_c, 0, 79, 0
2, 14435, Note_on_c, 0, 90, 0
2, 14435, Note_on_c, 0, 78, 0
2, 14442, Note_on_c, 0, 48, 80
2, 14442, Note_on_c, 0, 60, 80
2, 14442, Note_on_c, 0, 77, 80
2, 14442, Note_on_c, 0, 89, 80
2, 14479, Note_on_c, 0, 60, 0
2, 14481, Note_on_c, 0, 48, 0
2, 14509, Note_on_c, 0, 77, 0
2, 14509, Note_on_c, 0, 89, 0
2, 14514, Note_on_c, 0, 80, 80
2, 14543, Note_on_c, 0, 80, 0
2, 14549, Note_on_c, 0, 84, 80
2, 14551, Note_on_c, 0, 56, 80
2, 14551, Note_on_c, 0, 60, 80
2, 14551, Note_on_c, 0, 66, 80
2, 14573, Note_on_c, 0, 66, 0
2, 14573, Note_on_c, 0, 60, 0
2, 14573, Note_on_c, 0, 56, 0
2, 14580, Note_on_c, 0, 84, 0
2, 14626, Note_on_c, 0, 75, 80
2, 14626, Note_on_c, 0, 87, 80
2, 14664, Note_on_c, 0, 44, 80
2, 14664, Note_on_c, 0, 56, 80
2, 14703, Note_on_c, 0, 56, 0
2, 14703, Note_on_c, 0, 44, 0
2, 14729, Note_on_c, 0, 87, 0
2, 14729, Note_on_c, 0, 75, 0
2, 14736, Note_on_c, 0, 84, 80
2, 14766, Note_on_c, 0, 84, 0
2, 14773, Note_on_c, 0, 56, 80
2, 14773, Note_on_c, 0, 66, 80
2, 14773, Note_on_c, 0, 78, 80
2, 14773, Note_on_c, 0, 90, 80
2, 14775, Note_on_c, 0, 60, 80
2, 14795, Note_on_c, 0, 60, 0
2, 14795, Note_on_c, 0, 56, 0
2, 14795, Note_on_c, 0, 66, 0
2, 14841, Note_on_c, 0, 78, 0
2, 14841, Note_on_c, 0, 90, 0
2, 14884, Note_on_c, 0, 89, 80
2, 14886, Note_on_c, 0, 51, 80
2, 14886, Note_on_c, 0, 63, 80
2, 14886, Note_on_c, 0, 77, 80
2, 14926, Note_on_c, 0, 63, 0
2, 14926, Note_on_c, 0, 51, 0
2, 14953, Note_on_c, 0, 89, 0
2, 14953, Note_on_c, 0, 77, 0
2, 14960, Note_on_c, 0, 80, 80
2, 14993, Note_on_c, 0, 80, 0
2, 14998, Note_on_c, 0, 84, 80
2, 15000, Note_on_c, 0, 56, 80
2, 15000, Note_on_c, 0, 60, 80
2, 15000, Note_on_c, 0, 66, 80
2, 15019, Note_on_c, 0, 66, 0
2, 15019, Note_on_c, 0, 60, 0
2, 15019, Note_on_c, 0, 56, 0
2, 15027, Note_on_c, 0, 84, 0
2, 15072, Note_on_c, 0, 75, 80
2, 15072, Note_on_c, 0, 87, 80
2, 15111, Note_on_c, 0, 56, 80
2, 15113, Note_on_c, 0, 44, 80
2, 15181, Note_on_c, 0, 87, 0
2, 15181, Note_on_c, 0, 75, 0
2, 15186, Note_on_c, 0, 84, 80
2, 15216, Note_on_c, 0, 56, 0
2, 15216, Note_on_c, 0, 44, 0
2, 15223, Note_on_c, 0, 54, 80
2, 15223, Note_on_c, 0, 77, 80
2, 15223, Note_on_c, 0, 89, 80
2, 15225, Note_on_c, 0, 84, 0
2, 15225, Note_on_c, 0, 42, 80
2, 15290, Note_on_c, 0, 89, 0
2, 15290, Note_on_c, 0, 77, 0
2, 15297, Note_on_c, 0, 84, 80
2, 15330, Note_on_c, 0, 84, 0
2, 15330, Note_on_c, 0, 54, 0
2, 15330, Note_on_c, 0, 42, 0
2, 15334, Note_on_c, 0, 75, 80
2, 15334, Note_on_c, 0, 87, 80
2, 15336, Note_on_c, 0, 41, 80
2, 15336, Note_on_c, 0, 53, 80
2, 15375, Note_on_c, 0, 41, 0
2, 15377, Note_on_c, 0, 53, 0
2, 15401, Note_on_c, 0, 87, 0
2, 15401, Note_on_c, 0, 75, 0
2, 15408, Note_on_c, 0, 77, 80
2, 15438, Note_on_c, 0, 77, 0
2, 15445, Note_on_c, 0, 80, 80
2, 15447, Note_on_c, 0, 56, 80
2, 15447, Note_on_c, 0, 61, 80
2, 15447, Note_on_c, 0, 65, 80
2, 15467, Note_on_c, 0, 65, 0
2, 15467, Note_on_c, 0, 61, 0
2, 15467, Note_on_c, 0, 56, 0
2, 15476, Note_on_c, 0, 80, 0
2, 15519, Note_on_c, 0, 73, 80
2, 15519, Note_on_c, 0, 85, 80
2, 15548, Control_c, 0, 64, 127
2, 15554, Note_on_c, 0, 56, 80
2, 15556, Note_on_c, 0, 44, 80
2, 15594, Note_on_c, 0, 44, 0
2, 15594, Note_on_c, 0, 56, 0
2, 15614, Control_c, 0, 64, 0
2, 15623, Note_on_c, 0, 85, 0
2, 15623, Note_on_c, 0, 73, 0
2, 15629, Note_on_c, 0, 77, 80
2, 15629, Note_on_c, 0, 80, 80
2, 15660, Note_on_c, 0, 80, 0
2, 15660, Note_on_c, 0, 77, 0
2, 15665, Note_on_c, 0, 56, 80
2, 15665, Note_on_c, 0, 70, 80
2, 15665, Note_on_c, 0, 82, 80
2, 15667, Note_on_c, 0, 61, 80
2, 15667, Note_on_c, 0, 65, 80
2, 15687, Note_on_c, 0, 65, 0
2, 15687, Note_on_c, 0, 56, 0
2, 15687, Note_on_c, 0, 61, 0
2, 15733, Note_on_c, 0, 82, 0
2, 15733, Note_on_c, 0, 70, 0
2, 15777, Note_on_c, 0, 49, 80
2, 15777, Note_on_c, 0, 61, 80
2, 15777, Note_on_c, 0, 68, 80
2, 15777, Note_on_c, 0, 77, 80
2, 15777, Note_on_c, 0, 80, 80
2, 15816, Note_on_c, 0, 61, 0
2, 15818, Note_on_c, 0, 49, 0
2, 15888, Note_on_c, 0, 65, 80
2, 15890, Note_on_c, 0, 56, 80
2, 15890, Note_on_c, 0, 61, 80
2, 15911, Note_on_c, 0, 61, 0
2, 15911, Note_on_c, 0, 65, 0
2, 15911, Note_on_c, 0, 56, 0
2, 16002, Note_on_c, 0, 65, 80
2, 16006, Note_on_c, 0, 53, 80
2, 16033, Note_on_c, 0, 80, 0
2, 16033, Note_on_c, 0, 68, 0
2, 16033, Note_on_c, 0, 77, 0
2, 16080, Note_on_c, 0, 70, 80
2, 16080, Note_on_c, 0, 73, 80
2, 16080, Note_on_c, 0, 76, 80
2, 16080, Note_on_c, 0, 79, 80
2, 16080, Note_on_c, 0, 82, 80
2, 16112, Note_on_c, 0, 65, 0
2, 16112, Note_on_c, 0, 53, 0
2, 16117, Note_on_c, 0, 64, 80
2, 16119, Note_on_c, 0, 52, 80
2, 16148, Note_on_c, 0, 73, 0
2, 16185, Note_on_c, 0, 70, 0
2, 16185, Note_on_c, 0, 79, 0
2, 16185, Note_on_c, 0, 76, 0
2, 16185, Note_on_c, 0, 82, 0
2, 16190, Note_on_c, 0, 85, 80
2, 16192, Note_on_c, 0, 73, 80
2, 16221, Note_on_c, 0, 73, 0
2, 16221, Note_on_c, 0, 64, 0
2, 16221, Note_on_c, 0, 52, 0
2, 16221, Note_on_c, 0, 85, 0
2, 16225, Note_on_c, 0, 84, 80
2, 16227, Note_on_c, 0, 51, 80
2, 16227, Note_on_c, 0, 63, 80
2, 16227, Note_on_c, 0, 72, 80
2, 16227, Note_on_c, 0, 75, 80
2, 16227, Note_on_c, 0, 78, 80
2, 16227, Note_on_c, 0, 80, 80
2, 16258, Note_on_c, 0, 75, 0
2, 16269, Note_on_c, 0, 63, 0
2, 16269, Note_on_c, 0, 51, 0
2, 16296, Note_on_c, 0, 72, 0
2, 16296, Note_on_c, 0, 84, 0
2, 16296, Note_on_c, 0, 78, 0
2, 16296, Note_on_c, 0, 80, 0
2, 16301, Note_on_c, 0, 75, 80
2, 16336, Note_on_c, 0, 75, 0
2, 16341, Note_on_c, 0, 56, 80
2, 16341, Note_on_c, 0, 60, 80
2, 16341, Note_on_c, 0, 66, 80
2, 16341, Note_on_c, 0, 78, 80
2, 16363, Note_on_c, 0, 66, 0
2, 16363, Note_on_c, 0, 56, 0
2, 16363, Note_on_c, 0, 60, 0
2, 16371, Note_on_c, 0, 78, 0
2, 16417, Note_on_c, 0, 72, 80
2, 16417, Note_on_c, 0, 84, 80
2, 16419, Control_c, 0, 64, 127
2, 16455, Note_on_c, 0, 44, 80
2, 16455, Note_on_c, 0, 56, 80
2, 16488, Control_c, 0, 64, 0
2, 16494, Note_on_c, 0, 56, 0
2, 16494, Note_on_c, 0, 44, 0
2, 16520, Note_on_c, 0, 84, 0
2, 16520, Note_on_c, 0, 72, 0
2, 16527, Note_on_c, 0, 78, 80
2, 16558, Note_on_c, 0, 78, 0
2, 16564, Note_on_c, 0, 56, 80
2, 16564, Note_on_c, 0, 60, 80
2, 16564, Note_on_c, 0, 70, 80
2, 16566, Note_on_c, 0, 66, 80
2, 16566, Note_on_c, 0, 82, 80
2, 16586, Note_on_c, 0, 66, 0
2, 16586, Note_on_c, 0, 60, 0
2, 16586, Note_on_c, 0, 56, 0
2, 16670, Note_on_c, 0, 70, 0
2, 16670, Note_on_c, 0, 82, 0
2, 16675, Note_on_c, 0, 48, 80
2, 16675, Note_on_c, 0, 60, 80
2, 16675, Note_on_c, 0, 68, 80
2, 16675, Note_on_c, 0, 72, 80
2, 16675, Note_on_c, 0, 80, 80
2, 16716, Note_on_c, 0, 60, 0
2, 16716, Note_on_c, 0, 48, 0
2, 16788, Note_on_c, 0, 56, 80
2, 16788, Note_on_c, 0, 60, 80
2, 16788, Note_on_c, 0, 66, 80
2, 16810, Note_on_c, 0, 66, 0
2, 16810, Note_on_c, 0, 56, 0
2, 16810, Note_on_c, 0, 60, 0
2, 16900, Note_on_c, 0, 44, 80
2, 16900, Note_on_c, 0, 56, 80
2, 16931, Note_on_c, 0, 80, 0
2, 16931, Note_on_c, 0, 68, 0
2, 16931, Note_on_c, 0, 72, 0
2, 16977, Note_on_c, 0, 70, 80
2, 16977, Note_on_c, 0, 82, 80
2, 17010, Note_on_c, 0, 44, 0
2, 17010, Note_on_c, 0, 56, 0
2, 17015, Note_on_c, 0, 54, 80
2, 17016, Note_on_c, 0, 42, 80
2, 17082, Note_on_c, 0, 70, 0
2, 17082, Note_on_c, 0, 82, 0
2, 17087, Note_on_c, 0, 72, 80
2, 17087, Note_on_c, 0, 84, 80
2, 17119, Note_on_c, 0, 84, 0
2, 17119, Note_on_c, 0, 72, 0
2, 17121, Note_on_c, 0, 54, 0
2, 17121, Note_on_c, 0, 42, 0
2, 17125, Note_on_c, 0, 85, 80
2, 17127, Note_on_c, 0, 41, 80
2, 17127, Note_on_c, 0, 73, 80
2, 17129, Note_on_c, 0, 53, 80
2, 17170, Note_on_c, 0, 53, 0
2, 17170, Note_on_c, 0, 41, 0
2, 17190, Note_on_c, 0, 73, 0
2, 17190, Note_on_c, 0, 85, 0
2, 17195, Note_on_c, 0, 77, 80
2, 17230, Note_on_c, 0, 77, 0
2, 17233, Note_on_c, 0, 56, 80
2, 17233, Note_on_c, 0, 80, 80
2, 17235, Note_on_c, 0, 61, 80
2, 17235, Note_on_c, 0, 65, 80
2, 17257, Note_on_c, 0, 65, 0
2, 17257, Note_on_c, 0, 61, 0
2, 17257, Note_on_c, 0, 56, 0
2, 17266, Note_on_c, 0, 80, 0
2, 17310, Note_on_c, 0, 72, 80
2, 17310, Note_on_c, 0, 84, 80
2, 17341, Control_c, 0, 64, 127
2, 17346, Note_on_c, 0, 56, 80
2, 17348, Note_on_c, 0, 44, 80
2, 17378, Control_c, 0, 64, 0
2, 17387, Note_on_c, 0, 44, 0
2, 17387, Note_on_c, 0, 56, 0
2, 17413, Note_on_c, 0, 84, 0
2, 17413, Note_on_c, 0, 72, 0
2, 17420, Note_on_c, 0, 77, 80
2, 17420, Note_on_c, 0, 80, 80
2, 17452, Note_on_c, 0, 80, 0
2, 17452, Note_on_c, 0, 77, 0
2, 17459, Note_on_c, 0, 56, 80
2, 17459, Note_on_c, 0, 61, 80
2, 17459, Note_on_c, 0, 65, 80
2, 17459, Note_on_c, 0, 70, 80
2, 17459, Note_on_c, 0, 82, 80
2, 17479, Note_on_c, 0, 65, 0
2, 17479, Note_on_c, 0, 56, 0
2, 17479, Note_on_c, 0, 61, 0
2, 17558, Note_on_c, 0, 70, 0
2, 17558, Note_on_c, 0, 82, 0
2, 17565, Note_on_c, 0, 49, 80
2, 17565, Note_on_c, 0, 61, 80
2, 17565, Note_on_c, 0, 68, 80
2, 17565, Note_on_c, 0, 80, 80
2, 17606, Note_on_c, 0, 80, 0
2, 17606, Note_on_c, 0, 49, 0
2, 17606, Note_on_c, 0, 61, 0
2, 17606, Note_on_c, 0, 68, 0
2, 17678, Note_on_c, 0, 80, 80
2, 17678, Note_on_c, 0, 92, 80
2, 17785, Note_on_c, 0, 92, 0
2, 17787, Note_on_c, 0, 80, 0
2, 17792, Note_on_c, 0, 79, 80
2, 17792, Note_on_c, 0, 91, 80
2, 17900, Note_on_c, 0, 91, 0
2, 17906, Note_on_c, 0, 46, 80
2, 17906, Note_on_c, 0, 58, 80
2, 17906, Note_on_c, 0, 78, 80
2, 17906, Note_on_c, 0, 90, 80
2, 17908, Note_on_c, 0, 79, 0
2, 18013, Note_on_c, 0, 78, 0
2, 18013, Note_on_c, 0, 90, 0
2, 18013, Note_on_c, 0, 58, 0
2, 18015, Note_on_c, 0, 46, 0
2, 18019, Note_on_c, 0, 77, 80
2, 18019, Note_on_c, 0, 89, 80
2, 18021, Note_on_c, 0, 48, 80
2, 18021, Note_on_c, 0, 60, 80
2, 18060, Note_on_c, 0, 60, 0
2, 18060, Note_on_c, 0, 48, 0
2, 18088, Note_on_c, 0, 89, 0
2, 18090, Note_on_c, 0, 77, 0
2, 18096, Note_on_c, 0, 80, 80
2, 18127, Note_on_c, 0, 80, 0
2, 18134, Note_on_c, 0, 56, 80
2, 18134, Note_on_c, 0, 60, 80
2, 18134, Note_on_c, 0, 66, 80
2, 18134, Note_on_c, 0, 84, 80
2, 18156, Note_on_c, 0, 66, 0
2, 18156, Note_on_c, 0, 56, 0
2, 18156, Note_on_c, 0, 60, 0
2, 18167, Note_on_c, 0, 84, 0
2, 18211, Note_on_c, 0, 75, 80
2, 18211, Note_on_c, 0, 87, 80
2, 18213, Control_c, 0, 64, 127
2, 18250, Note_on_c, 0, 44, 80
2, 18250, Note_on_c, 0, 56, 80
2, 18281, Control_c, 0, 64, 0
2, 18288, Note_on_c, 0, 56, 0
2, 18289, Note_on_c, 0, 44, 0
2, 18318, Note_on_c, 0, 87, 0
2, 18318, Note_on_c, 0, 75, 0
2, 18323, Note_on_c, 0, 84, 80
2, 18354, Note_on_c, 0, 84, 0
2, 18360, Note_on_c, 0, 56, 80
2, 18360, Note_on_c, 0, 66, 80
2, 18360, Note_on_c, 0, 90, 80
2, 18362, Note_on_c, 0, 60, 80
2, 18362, Note_on_c, 0, 78, 80
2, 18383, Note_on_c, 0, 60, 0
2, 18383, Note_on_c, 0, 66, 0
2, 18383, Note_on_c, 0, 56, 0
2, 18431, Note_on_c, 0, 90, 0
2, 18431, Note_on_c, 0, 78, 0
2, 18475, Note_on_c, 0, 51, 80
2, 18475, Note_on_c, 0, 63, 80
2, 18475, Note_on_c, 0, 77, 80
2, 18475, Note_on_c, 0, 89, 80
2, 18512, Note_on_c, 0, 63, 0
2, 18514, Note_on_c, 0, 51, 0
2, 18541, Note_on_c, 0, 77, 0
2, 18541, Note_on_c, 0, 89, 0
2, 18546, Note_on_c, 0, 80, 80
2, 18576, Note_on_c, 0, 80, 0
2, 18583, Note_on_c, 0, 60, 80
2, 18583, Note_on_c, 0, 66, 80
2, 18583, Note_on_c, 0, 84, 80
2, 18585, Note_on_c, 0, 56, 80
2, 18605, Note_on_c, 0, 56, 0
2, 18605, Note_on_c, 0, 60, 0
2, 18605, Note_on_c, 0, 66, 0
2, 18614, Note_on_c, 0, 84, 0
2, 18658, Note_on_c, 0, 75, 80
2, 18658, Note_on_c, 0, 87, 80
2, 18696, Note_on_c, 0, 56, 80
2, 18697, Note_on_c, 0, 44, 80
2, 18761, Note_on_c, 0, 87, 0
2, 18761, Note_on_c, 0, 75, 0
2, 18768, Note_on_c, 0, 84, 80
2, 18798, Note_on_c, 0, 84, 0
2, 18800, Note_on_c, 0, 56, 0
2, 18800, Note_on_c, 0, 44, 0
2, 18805, Note_on_c, 0, 54, 80
2, 18805, Note_on_c, 0, 77, 80
2, 18805, Note_on_c, 0, 89, 80
2, 18807, Note_on_c, 0, 42, 80
2, 18872, Note_on_c, 0, 89, 0
2, 18874, Note_on_c, 0, 77, 0
2, 18881, Note_on_c, 0, 84, 80
2, 18912, Note_on_c, 0, 84, 0
2, 18913, Note_on_c, 0, 54, 0
2, 18913, Note_on_c, 0, 42, 0
2, 18917, Note_on_c, 0, 75, 80
2, 18917, Note_on_c, 0, 87, 80
2, 18919, Note_on_c, 0, 41, 80
2, 18921, Note_on_c, 0, 53, 80
2, 18960, Note_on_c, 0, 41, 0
2, 18962, Note_on_c, 0, 53, 0
2, 18988, Note_on_c, 0, 87, 0
2, 18988, Note_on_c, 0, 75, 0
2, 18997, Note_on_c, 0, 77, 80
2, 19028, Note_on_c, 0, 77, 0
2, 19032, Note_on_c, 0, 56, 80
2, 19032, Note_on_c, 0, 61, 80
2, 19032, Note_on_c, 0, 65, 80
2, 19032, Note_on_c, 0, 80, 80
2, 19053, Note_on_c, 0, 65, 0
2, 19053, Note_on_c, 0, 61, 0
2, 19055, Note_on_c, 0, 56, 0
2, 19063, Note_on_c, 0, 80, 0
2, 19105, Note_on_c, 0, 73, 80
2, 19105, Note_on_c, 0, 85, 80
2, 19145, Note_on_c, 0, 44, 80
2, 19145, Note_on_c, 0, 56, 80
2, 19182, Note_on_c, 0, 56, 0
2, 19184, Note_on_c, 0, 44, 0
2, 19201, Note_on_c, 0, 85, 0
2, 19201, Note_on_c, 0, 73, 0
2, 19217, Note_on_c, 0, 77, 80
2, 19219, Note_on_c, 0, 80, 80
2, 19249, Note_on_c, 0, 80, 0
2, 19249, Note_on_c, 0, 77, 0
2, 19254, Note_on_c, 0, 70, 80
2, 19254, Note_on_c, 0, 82, 80
2, 19256, Note_on_c, 0, 56, 80
2, 19256, Note_on_c, 0, 61, 80
2, 19256, Note_on_c, 0, 65, 80
2, 19276, Note_on_c, 0, 65, 0
2, 19276, Note_on_c, 0, 56, 0
2, 19276, Note_on_c, 0, 61, 0
2, 19360, Note_on_c, 0, 82, 0
2, 19360, Note_on_c, 0, 70, 0
2, 19365, Note_on_c, 0, 68, 80
2, 19365, Note_on_c, 0, 77, 80
2, 19367, Note_on_c, 0, 49, 80
2, 19367, Note_on_c, 0, 61, 80
2, 19367, Note_on_c, 0, 80, 80
2, 19404, Note_on_c, 0, 61, 0
2, 19404, Note_on_c, 0, 49, 0
2, 19474, Note_on_c, 0, 56, 80
2, 19474, Note_on_c, 0, 61, 80
2, 19474, Note_on_c, 0, 65, 80
2, 19496, Note_on_c, 0, 65, 0
2, 19496, Note_on_c, 0, 56, 0
2, 19496, Note_on_c, 0, 61, 0
2, 19575, Control_c, 0, 64, 127
2, 19584, Note_on_c, 0, 41, 80
2, 19584, Note_on_c, 0, 53, 80
2, 19623, Note_on_c, 0, 41, 0
2, 19625, Note_on_c, 0, 53, 0
2, 19644, Control_c, 0, 64, 0
2, 19651, Note_on_c, 0, 77, 0
2, 19651, Note_on_c, 0, 68, 0
2, 19651, Note_on_c, 0, 80, 0
2, 19695, Note_on_c, 0, 71, 80
2, 19695, Note_on_c, 0, 83, 80
2, 19697, Note_on_c, 0, 53, 80
2, 19697, Note_on_c, 0, 56, 80
2, 19697, Note_on_c, 0, 61, 80
2, 19717, Note_on_c, 0, 61, 0
2, 19717, Note_on_c, 0, 56, 0
2, 19719, Note_on_c, 0, 53, 0
2, 19802, Note_on_c, 0, 83, 0
2, 19802, Note_on_c, 0, 71, 0
2, 19807, Note_on_c, 0, 70, 80
2, 19807, Note_on_c, 0, 82, 80
2, 19809, Note_on_c, 0, 42, 80
2, 19809, Note_on_c, 0, 54, 80
2, 19848, Note_on_c, 0, 54, 0
2, 19848, Note_on_c, 0, 42, 0
2, 19875, Note_on_c, 0, 82, 0
2, 19875, Note_on_c, 0, 70, 0
2, 19882, Note_on_c, 0, 73, 80
2, 19915, Note_on_c, 0, 73, 0
2, 19921, Note_on_c, 0, 54, 80
2, 19921, Note_on_c, 0, 58, 80
2, 19921, Note_on_c, 0, 61, 80
2, 19921, Note_on_c, 0, 78, 80
2, 19944, Note_on_c, 0, 61, 0
2, 19944, Note_on_c, 0, 54, 0
2, 19944, Note_on_c, 0, 58, 0
2, 19952, Note_on_c, 0, 78, 0
2, 19998, Note_on_c, 0, 87, 80
2, 20000, Note_on_c, 0, 76, 80
2, 20000, Note_on_c, 0, 79, 80
2, 20036, Note_on_c, 0, 55, 80
2, 20038, Note_on_c, 0, 43, 80
2, 20077, Note_on_c, 0, 43, 0
2, 20086, Note_on_c, 0, 55, 0
2, 20106, Note_on_c, 0, 87, 0
2, 20106, Note_on_c, 0, 76, 0
2, 20106, Note_on_c, 0, 79, 0
2, 20111, Note_on_c, 0, 73, 80
2, 20111, Note_on_c, 0, 85, 80
2, 20145, Note_on_c, 0, 85, 0
2, 20145, Note_on_c, 0, 73, 0
2, 20150, Note_on_c, 0, 61, 80
2, 20150, Note_on_c, 0, 64, 80
2, 20150, Note_on_c, 0, 70, 80
2, 20150, Note_on_c, 0, 82, 80
2, 20152, Note_on_c, 0, 55, 80
2, 20172, Note_on_c, 0, 64, 0
2, 20172, Note_on_c, 0, 61, 0
2, 20183, Note_on_c, 0, 55, 0
2, 20256, Note_on_c, 0, 70, 0
2, 20256, Note_on_c, 0, 82, 0
2, 20262, Note_on_c, 0, 56, 80
2, 20262, Note_on_c, 0, 80, 80
2, 20264, Note_on_c, 0, 44, 80
2, 20304, Note_on_c, 0, 44, 0
2, 20304, Note_on_c, 0, 56, 0
2, 20330, Note_on_c, 0, 80, 0
2, 20337, Note_on_c, 0, 68, 80
2, 20337, Note_on_c, 0, 73, 80
2, 20337, Note_on_c, 0, 77, 80
2, 20368, Note_on_c, 0, 77, 0
2, 20368, Note_on_c, 0, 73, 0
2, 20368, Note_on_c, 0, 68, 0
2, 20375, Note_on_c, 0, 56, 80
2, 20375, Note_on_c, 0, 61, 80
2, 20375, Note_on_c, 0, 65, 80
2, 20375, Note_on_c, 0, 80, 80
2, 20395, Note_on_c, 0, 65, 0
2, 20395, Note_on_c, 0, 56, 0
2, 20395, Note_on_c, 0, 61, 0
2, 20403, Note_on_c, 0, 80, 0
2, 20446, Note_on_c, 0, 77, 80
2, 20448, Control_c, 0, 64, 127
2, 20448, Note_on_c, 0, 67, 80
2, 20448, Note_on_c, 0, 73, 80
2, 20483, Note_on_c, 0, 46, 80
2, 20483, Note_on_c, 0, 58, 80
2, 20540, Control_c, 0, 64, 0
2, 20548, Note_on_c, 0, 58, 0
2, 20548, Note_on_c, 0, 73, 0
2, 20548, Note_on_c, 0, 77, 0
2, 20548, Note_on_c, 0, 67, 0
2, 20548, Note_on_c, 0, 46, 0
2, 20591, Note_on_c, 0, 44, 80
2, 20591, Note_on_c, 0, 56, 80
2, 20591, Note_on_c, 0, 66, 80
2, 20591, Note_on_c, 0, 72, 80
2, 20591, Note_on_c, 0, 75, 80
2, 20694, Note_on_c, 0, 75, 0
2, 20694, Note_on_c, 0, 66, 0
2, 20694, Note_on_c, 0, 72, 0
2, 20694, Note_on_c, 0, 56, 0
2, 20696, Note_on_c, 0, 44, 0
2, 20700, Note_on_c, 0, 68, 80
2, 20700, Note_on_c, 0, 73, 80
2, 20702, Note_on_c, 0, 49, 80
2, 20702, Note_on_c, 0, 61, 80
2, 20702, Note_on_c, 0, 65, 80
2, 20768, Note_on_c, 0, 61, 0
2, 20768, Note_on_c, 0, 49, 0
2, 20810, Note_on_c, 0, 44, 80
2, 20810, Note_on_c, 0, 56, 80
2, 20843, Note_on_c, 0, 56, 0
2, 20843, Note_on_c, 0, 44, 0
2, 20885, Note_on_c, 0, 46, 80
2, 20885, Note_on_c, 0, 58, 80
2, 20991, Note_on_c, 0, 46, 0
2, 20993, Note_on_c, 0, 58, 0
2, 20998, Note_on_c, 0, 44, 80
2, 20998, Note_on_c, 0, 56, 80
2, 21030, Note_on_c, 0, 56, 0
2, 21030, Note_on_c, 0, 44, 0
2, 21035, Note_on_c, 0, 41, 80
2, 21035, Note_on_c, 0, 53, 80
2, 21103, Note_on_c, 0, 53, 0
2, 21103, Note_on_c, 0, 41, 0
2, 21108, Note_on_c, 0, 51, 80
2, 21110, Note_on_c, 0, 39, 80
2, 21141, Note_on_c, 0, 39, 0
2, 21141, Note_on_c, 0, 51, 0
2, 21145, Note_on_c, 0, 37, 80
2, 21145, Note_on_c, 0, 49, 80
2, 21198, Note_on_c, 0, 49, 0
2, 21198, Note_on_c, 0, 65, 0
2, 21198, Note_on_c, 0, 68, 0
2, 21198, Note_on_c, 0, 73, 0
2, 21198, Note_on_c, 0, 37, 0
2, 21251, Control_c, 0, 64, 127
2, 21260, Note_on_c, 0, 80, 80
2, 21260, Note_on_c, 0, 92, 80
2, 21347, Control_c, 0, 64, 0
2, 21364, Note_on_c, 0, 92, 0
2, 21364, Note_on_c, 0, 80, 0
2, 21369, Note_on_c, 0, 79, 80
2, 21369, Note_on_c, 0, 91, 80
2, 21472, Note_on_c, 0, 91, 0
2, 21472, Note_on_c, 0, 79, 0
2, 21479, Note_on_c, 0, 78, 80
2, 21479, Note_on_c, 0, 90, 80
2, 21579, Note_on_c, 0, 90, 0
2, 21581, Note_on_c, 0, 78, 0
2, 21586, Note_on_c, 0, 48, 80
2, 21586, Note_on_c, 0, 60, 80
2, 21586, Note_on_c, 0, 77, 80
2, 21586, Note_on_c, 0, 89, 80
2, 21627, Note_on_c, 0, 60, 0
2, 21627, Note_on_c, 0, 48, 0
2, 21654, Note_on_c, 0, 77, 0
2, 21654, Note_on_c, 0, 89, 0
2, 21661, Note_on_c, 0, 80, 80
2, 21694, Note_on_c, 0, 80, 0
2, 21698, Note_on_c, 0, 60, 80
2, 21698, Note_on_c, 0, 66, 80
2, 21698, Note_on_c, 0, 84, 80
2, 21700, Note_on_c, 0, 56, 80
2, 21720, Note_on_c, 0, 56, 0
2, 21720, Note_on_c, 0, 60, 0
2, 21720, Note_on_c, 0, 66, 0
2, 21729, Note_on_c, 0, 84, 0
2, 21775, Note_on_c, 0, 87, 80
2, 21777, Note_on_c, 0, 75, 80
2, 21804, Control_c, 0, 64, 127
2, 21815, Note_on_c, 0, 44, 80
2, 21815, Note_on_c, 0, 56, 80
2, 21847, Control_c, 0, 64, 0
2, 21856, Note_on_c, 0, 56, 0
2, 21856, Note_on_c, 0, 44, 0
2, 21883, Note_on_c, 0, 75, 0
2, 21883, Note_on_c, 0, 87, 0
2, 21889, Note_on_c, 0, 84, 80
2, 21922, Note_on_c, 0, 84, 0
2, 21929, Note_on_c, 0, 60, 80
2, 21929, Note_on_c, 0, 66, 80
2, 21929, Note_on_c, 0, 78, 80
2, 21929, Note_on_c, 0, 90, 80
2, 21929, Note_on_c, 0, 56, 80
2, 21951, Note_on_c, 0, 56, 0
2, 21951, Note_on_c, 0, 60, 0
2, 21951, Note_on_c, 0, 66, 0
2, 21999, Note_on_c, 0, 78, 0
2, 21999, Note_on_c, 0, 90, 0
2, 22043, Note_on_c, 0, 89, 80
2, 22045, Note_on_c, 0, 51, 80
2, 22045, Note_on_c, 0, 63, 80
2, 22045, Note_on_c, 0, 77, 80
2, 22084, Note_on_c, 0, 63, 0
2, 22084, Note_on_c, 0, 51, 0
2, 22111, Note_on_c, 0, 89, 0
2, 22111, Note_on_c, 0, 77, 0
2, 22118, Note_on_c, 0, 80, 80
2, 22152, Note_on_c, 0, 80, 0
2, 22159, Note_on_c, 0, 56, 80
2, 22159, Note_on_c, 0, 60, 80
2, 22159, Note_on_c, 0, 66, 80
2, 22159, Note_on_c, 0, 84, 80
2, 22181, Note_on_c, 0, 66, 0
2, 22181, Note_on_c, 0, 56, 0
2, 22181, Note_on_c, 0, 60, 0
2, 22190, Note_on_c, 0, 84, 0
2, 22234, Note_on_c, 0, 75, 80
2, 22234, Note_on_c, 0, 87, 80
2, 22272, Note_on_c, 0, 56, 80
2, 22273, Note_on_c, 0, 44, 80
2, 22338, Note_on_c, 0, 87, 0
2, 22338, Note_on_c, 0, 75, 0
2, 22344, Note_on_c, 0, 84, 80
2, 22375, Note_on_c, 0, 56, 0
2, 22375, Note_on_c, 0, 44, 0
2, 22380, Note_on_c, 0, 77, 80
2, 22380, Note_on_c, 0, 89, 80
2, 22380, Note_on_c, 0, 42, 80
2, 22380, Note_on_c, 0, 54, 80
2, 22382, Note_on_c, 0, 84, 0
2, 22445, Note_on_c, 0, 77, 0
2, 22445, Note_on_c, 0, 89, 0
2, 22450, Note_on_c, 0, 84, 80
2, 22483, Note_on_c, 0, 84, 0
2, 22483, Note_on_c, 0, 42, 0
2, 22483, Note_on_c, 0, 54, 0
2, 22488, Note_on_c, 0, 41, 80
2, 22488, Note_on_c, 0, 75, 80
2, 22488, Note_on_c, 0, 87, 80
2, 22489, Note_on_c, 0, 53, 80
2, 22531, Note_on_c, 0, 53, 0
2, 22531, Note_on_c, 0, 41, 0
2, 22558, Note_on_c, 0, 87, 0
2, 22558, Note_on_c, 0, 75, 0
2, 22562, Note_on_c, 0, 77, 80
2, 22593, Note_on_c, 0, 77, 0
2, 22598, Note_on_c, 0, 56, 80
2, 22598, Note_on_c, 0, 61, 80
2, 22598, Note_on_c, 0, 65, 80
2, 22598, Note_on_c, 0, 80, 80
2, 22622, Note_on_c, 0, 65, 0
2, 22622, Note_on_c, 0, 56, 0
2, 22622, Note_on_c, 0, 61, 0
2, 22629, Note_on_c, 0, 80, 0
2, 22675, Note_on_c, 0, 73, 80
2, 22675, Note_on_c, 0, 85, 80
2, 22705, Control_c, 0, 64, 127
2, 22714, Note_on_c, 0, 44, 80
2, 22714, Note_on_c, 0, 56, 80
2, 22755, Note_on_c, 0, 56, 0
2, 22755, Note_on_c, 0, 44, 0
2, 22775, Control_c, 0, 64, 0
2, 22783, Note_on_c, 0, 85, 0
2, 22783, Note_on_c, 0, 73, 0
2, 22790, Note_on_c, 0, 77, 80
2, 22790, Note_on_c, 0, 80, 80
2, 22821, Note_on_c, 0, 80, 0
2, 22821, Note_on_c, 0, 77, 0
2, 22827, Note_on_c, 0, 56, 80
2, 22827, Note_on_c, 0, 61, 80
2, 22827, Note_on_c, 0, 65, 80
2, 22827, Note_on_c, 0, 70, 80
2, 22827, Note_on_c, 0, 82, 80
2, 22849, Note_on_c, 0, 65, 0
2, 22849, Note_on_c, 0, 56, 0
2, 22849, Note_on_c, 0, 61, 0
2, 22894, Note_on_c, 0, 70, 0
2, 22894, Note_on_c, 0, 82, 0
2, 22936, Note_on_c, 0, 68, 80
2, 22936, Note_on_c, 0, 80, 80
2, 22938, Note_on_c, 0, 49, 80
2, 22938, Note_on_c, 0, 61, 80
2, 22938, Note_on_c, 0, 77, 80
2, 22979, Note_on_c, 0, 61, 0
2, 22981, Note_on_c, 0, 49, 0
2, 23051, Note_on_c, 0, 56, 80
2, 23051, Note_on_c, 0, 61, 80
2, 23051, Note_on_c, 0, 65, 80
2, 23073, Note_on_c, 0, 65, 0
2, 23073, Note_on_c, 0, 56, 0
2, 23073, Note_on_c, 0, 61, 0
2, 23161, Note_on_c, 0, 65, 80
2, 23165, Note_on_c, 0, 53, 80
2, 23194, Note_on_c, 0, 77, 0
2, 23194, Note_on_c, 0, 80, 0
2, 23194, Note_on_c, 0, 68, 0
2, 23236, Note_on_c, 0, 70, 80
2, 23236, Note_on_c, 0, 73, 80
2, 23236, Note_on_c, 0, 76, 80
2, 23236, Note_on_c, 0, 79, 80
2, 23236, Note_on_c, 0, 82, 80
2, 23267, Note_on_c, 0, 65, 0
2, 23269, Note_on_c, 0, 53, 0
2, 23276, Note_on_c, 0, 52, 80
2, 23276, Note_on_c, 0, 64, 80
2, 23304, Note_on_c, 0, 73, 0
2, 23340, Note_on_c, 0, 70, 0
2, 23342, Note_on_c, 0, 79, 0
2, 23342, Note_on_c, 0, 76, 0
2, 23342, Note_on_c, 0, 82, 0
2, 23346, Note_on_c, 0, 73, 80
2, 23346, Note_on_c, 0, 85, 80
2, 23378, Note_on_c, 0, 85, 0
2, 23378, Note_on_c, 0, 52, 0
2, 23378, Note_on_c, 0, 64, 0
2, 23378, Note_on_c, 0, 73, 0
2, 23383, Note_on_c, 0, 72, 80
2, 23383, Note_on_c, 0, 75, 80
2, 23383, Note_on_c, 0, 78, 80
2, 23383, Note_on_c, 0, 80, 80
2, 23383, Note_on_c, 0, 84, 80
2, 23383, Note_on_c, 0, 51, 80
2, 23383, Note_on_c, 0, 63, 80
2, 23414, Note_on_c, 0, 75, 0
2, 23423, Note_on_c, 0, 51, 0
2, 23423, Note_on_c, 0, 63, 0
2, 23448, Note_on_c, 0, 84, 0
2, 23448, Note_on_c, 0, 78, 0
2, 23450, Note_on_c, 0, 72, 0
2, 23450, Note_on_c, 0, 80, 0
2, 23457, Note_on_c, 0, 75, 80
2, 23490, Note_on_c, 0, 75, 0
2, 23495, Note_on_c, 0, 56, 80
2, 23495, Note_on_c, 0, 60, 80
2, 23495, Note_on_c, 0, 66, 80
2, 23495, Note_on_c, 0, 78, 80
2, 23517, Note_on_c, 0, 66, 0
2, 23517, Note_on_c, 0, 56, 0
2, 23517, Note_on_c, 0, 60, 0
2, 23527, Note_on_c, 0, 78, 0
2, 23569, Note_on_c, 0, 72, 80
2, 23569, Note_on_c, 0, 84, 80
2, 23596, Control_c, 0, 64, 127
2, 23607, Note_on_c, 0, 44, 80
2, 23607, Note_on_c, 0, 56, 80
2, 23646, Note_on_c, 0, 56, 0
2, 23646, Note_on_c, 0, 44, 0
2, 23666, Control_c, 0, 64, 0
2, 23675, Note_on_c, 0, 84, 0
2, 23675, Note_on_c, 0, 72, 0
2, 23682, Note_on_c, 0, 78, 80
2, 23712, Note_on_c, 0, 78, 0
2, 23717, Note_on_c, 0, 66, 80
2, 23717, Note_on_c, 0, 70, 80
2, 23717, Note_on_c, 0, 82, 80
2, 23719, Note_on_c, 0, 56, 80
2, 23719, Note_on_c, 0, 60, 80
2, 23741, Note_on_c, 0, 60, 0
2, 23741, Note_on_c, 0, 66, 0
2, 23741, Note_on_c, 0, 56, 0
2, 23827, Note_on_c, 0, 82, 0
2, 23827, Note_on_c, 0, 70, 0
2, 23833, Note_on_c, 0, 68, 80
2, 23833, Note_on_c, 0, 72, 80
2, 23833, Note_on_c, 0, 80, 80
2, 23835, Note_on_c, 0, 48, 80
2, 23835, Note_on_c, 0, 60, 80
2, 23875, Note_on_c, 0, 60, 0
2, 23877, Note_on_c, 0, 48, 0
2, 23947, Note_on_c, 0, 56, 80
2, 23947, Note_on_c, 0, 60, 80
2, 23947, Note_on_c, 0, 66, 80
2, 23969, Note_on_c, 0, 66, 0
2, 23969, Note_on_c, 0, 56, 0
2, 23969, Note_on_c, 0, 60, 0
2, 24025, Control_c, 0, 64, 127
2, 24061, Note_on_c, 0, 44, 80
2, 24061, Note_on_c, 0, 56, 80
2, 24090, Note_on_c, 0, 80, 0
2, 24090, Note_on_c, 0, 72, 0
2, 24090, Note_on_c, 0, 68, 0
2, 24092, Control_c, 0, 64, 0
2, 24134, Note_on_c, 0, 70, 80
2, 24134, Note_on_c, 0, 82, 80
2, 24165, Note_on_c, 0, 44, 0
2, 24165, Note_on_c, 0, 56, 0
2, 24173, Note_on_c, 0, 42, 80
2, 24173, Note_on_c, 0, 54, 80
2, 24240, Note_on_c, 0, 70, 0
2, 24240, Note_on_c, 0, 82, 0
2, 24244, Note_on_c, 0, 72, 80
2, 24244, Note_on_c, 0, 84, 80
2, 24275, Note_on_c, 0, 84, 0
2, 24275, Note_on_c, 0, 54, 0
2, 24275, Note_on_c, 0, 42, 0
2, 24275, Note_on_c, 0, 72, 0
2, 24282, Note_on_c, 0, 73, 80
2, 24282, Note_on_c, 0, 85, 80
2, 24284, Note_on_c, 0, 41, 80
2, 24284, Note_on_c, 0, 53, 80
2, 24323, Note_on_c, 0, 41, 0
2, 24325, Note_on_c, 0, 53, 0
2, 24351, Note_on_c, 0, 85, 0
2, 24351, Note_on_c, 0, 73, 0
2, 24358, Note_on_c, 0, 77, 80
2, 24390, Note_on_c, 0, 77, 0
2, 24395, Note_on_c, 0, 56, 80
2, 24395, Note_on_c, 0, 61, 80
2, 24395, Note_on_c, 0, 65, 80
2, 24395, Note_on_c, 0, 80, 80
2, 24417, Note_on_c, 0, 65, 0
2, 24417, Note_on_c, 0, 56, 0
2, 24417, Note_on_c, 0, 61, 0
2, 24426, Note_on_c, 0, 80, 0
2, 24470, Note_on_c, 0, 72, 80
2, 24470, Note_on_c, 0, 84, 80
2, 24509, Note_on_c, 0, 44, 80
2, 24509, Note_on_c, 0, 56, 80
2, 24549, Note_on_c, 0, 56, 0
2, 24549, Note_on_c, 0, 44, 0
2, 24576, Note_on_c, 0, 84, 0
2, 24576, Note_on_c, 0, 72, 0
2, 24582, Note_on_c, 0, 77, 80
2, 24582, Note_on_c, 0, 80, 80
2, 24611, Note_on_c, 0, 80, 0
2, 24611, Note_on_c, 0, 77, 0
2, 24620, Note_on_c, 0, 56, 80
2, 24620, Note_on_c, 0, 61, 80
2, 24620, Note_on_c, 0, 65, 80
2, 24620, Note_on_c, 0, 70, 80
2, 24620, Note_on_c, 0, 82, 80
2, 24640, Note_on_c, 0, 65, 0
2, 24640, Note_on_c, 0, 56, 0
2, 24640, Note_on_c, 0, 61, 0
2, 24725, Note_on_c, 0, 70, 0
2, 24725, Note_on_c, 0, 82, 0
2, 24730, Note_on_c, 0, 80, 80
2, 24732, Note_on_c, 0, 49, 80
2, 24732, Note_on_c, 0, 61, 80
2, 24732, Note_on_c, 0, 68, 80
2, 24771, Note_on_c, 0, 68, 0
2, 24771, Note_on_c, 0, 80, 0
2, 24771, Note_on_c, 0, 49, 0
2, 24771, Note_on_c, 0, 61, 0
2, 24841, Note_on_c, 0, 92, 80
2, 24841, Note_on_c, 0, 80, 80
2, 24943, Note_on_c, 0, 92, 0
2, 24945, Note_on_c, 0, 80, 0
2, 24952, Note_on_c, 0, 91, 80
2, 24954, Note_on_c, 0, 79, 80
2, 25061, Note_on_c, 0, 91, 0
2, 25068, Note_on_c, 0, 46, 80
2, 25068, Note_on_c, 0, 58, 80
2, 25068, Note_on_c, 0, 78, 80
2, 25068, Note_on_c, 0, 90, 80
2, 25072, Note_on_c, 0, 79, 0
2, 25174, Note_on_c, 0, 78, 0
2, 25174, Note_on_c, 0, 46, 0
2, 25174, Note_on_c, 0, 58, 0
2, 25174, Note_on_c, 0, 90, 0
2, 25180, Note_on_c, 0, 48, 80
2, 25180, Note_on_c, 0, 60, 80
2, 25180, Note_on_c, 0, 77, 80
2, 25180, Note_on_c, 0, 89, 80
2, 25220, Note_on_c, 0, 60, 0
2, 25220, Note_on_c, 0, 48, 0
2, 25247, Note_on_c, 0, 77, 0
2, 25247, Note_on_c, 0, 89, 0
2, 25251, Note_on_c, 0, 80, 80
2, 25284, Note_on_c, 0, 80, 0
2, 25289, Note_on_c, 0, 60, 80
2, 25291, Note_on_c, 0, 56, 80
2, 25291, Note_on_c, 0, 66, 80
2, 25291, Note_on_c, 0, 84, 80
2, 25311, Note_on_c, 0, 66, 0
2, 25311, Note_on_c, 0, 60, 0
2, 25311, Note_on_c, 0, 56, 0
2, 25320, Note_on_c, 0, 84, 0
2, 25364, Note_on_c, 0, 75, 80
2, 25364, Note_on_c, 0, 87, 80
2, 25399, Note_on_c, 0, 44, 80
2, 25399, Note_on_c, 0, 56, 80
2, 25439, Note_on_c, 0, 56, 0
2, 25439, Note_on_c, 0, 44, 0
2, 25464, Note_on_c, 0, 87, 0
2, 25466, Note_on_c, 0, 75, 0
2, 25471, Note_on_c, 0, 84, 80
2, 25502, Note_on_c, 0, 84, 0
2, 25509, Note_on_c, 0, 78, 80
2, 25509, Note_on_c, 0, 90, 80
2, 25511, Note_on_c, 0, 56, 80
2, 25511, Note_on_c, 0, 60, 80
2, 25511, Note_on_c, 0, 66, 80
2, 25529, Note_on_c, 0, 66, 0
2, 25529, Note_on_c, 0, 60, 0
2, 25531, Note_on_c, 0, 56, 0
2, 25573, Note_on_c, 0, 90, 0
2, 25573, Note_on_c, 0, 78, 0
2, 25615, Note_on_c, 0, 51, 80
2, 25615, Note_on_c, 0, 77, 80
2, 25615, Note_on_c, 0, 89, 80
2, 25617, Note_on_c, 0, 63, 80
2, 25653, Note_on_c, 0, 63, 0
2, 25653, Note_on_c, 0, 51, 0
2, 25681, Note_on_c, 0, 89, 0
2, 25681, Note_on_c, 0, 77, 0
2, 25686, Note_on_c, 0, 80, 80
2, 25717, Note_on_c, 0, 80, 0
2, 25724, Note_on_c, 0, 56, 80
2, 25724, Note_on_c, 0, 60, 80
2, 25724, Note_on_c, 0, 66, 80
2, 25724, Note_on_c, 0, 84, 80
2, 25746, Note_on_c, 0, 66, 0
2, 25746, Note_on_c, 0, 56, 0
2, 25746, Note_on_c, 0, 60, 0
2, 25752, Note_on_c, 0, 84, 0
2, 25799, Note_on_c, 0, 75, 80
2, 25799, Note_on_c, 0, 87, 80
2, 25800, Control_c, 0, 64, 127
2, 25836, Note_on_c, 0, 56, 80
2, 25838, Note_on_c, 0, 44, 80
2, 25869, Control_c, 0, 64, 0
2, 25904, Note_on_c, 0, 87, 0
2, 25904, Note_on_c, 0, 75, 0
2, 25911, Note_on_c, 0, 84, 80
2, 25942, Note_on_c, 0, 84, 0
2, 25944, Note_on_c, 0, 56, 0
2, 25944, Note_on_c, 0, 44, 0
2, 25950, Note_on_c, 0, 42, 80
2, 25950, Note_on_c, 0, 54, 80
2, 25950, Note_on_c, 0, 77, 80
2, 25950, Note_on_c, 0, 89, 80
2, 26020, Note_on_c, 0, 89, 0
2, 26020, Note_on_c, 0, 77, 0
2, 26027, Note_on_c, 0, 84, 80
2, 26058, Note_on_c, 0, 84, 0
2, 26058, Note_on_c, 0, 54, 0
2, 26058, Note_on_c, 0, 42, 0
2, 26064, Note_on_c, 0, 41, 80
2, 26064, Note_on_c, 0, 53, 80
2, 26064, Note_on_c, 0, 75, 80
2, 26064, Note_on_c, 0, 87, 80
2, 26105, Note_on_c, 0, 53, 0
2, 26105, Note_on_c, 0, 41, 0
2, 26134, Note_on_c, 0, 75, 0
2, 26134, Note_on_c, 0, 87, 0
2, 26138, Note_on_c, 0, 77, 80
2, 26169, Note_on_c, 0, 77, 0
2, 26176, Note_on_c, 0, 61, 80
2, 26176, Note_on_c, 0, 65, 80
2, 26176, Note_on_c, 0, 80, 80
2, 26178, Note_on_c, 0, 56, 80
2, 26200, Note_on_c, 0, 56, 0
2, 26200, Note_on_c, 0, 61, 0
2, 26200, Note_on_c, 0, 65, 0
2, 26207, Note_on_c, 0, 80, 0
2, 26253, Note_on_c, 0, 73, 80
2, 26253, Note_on_c, 0, 85, 80
2, 26290, Note_on_c, 0, 44, 80
2, 26290, Note_on_c, 0, 56, 80
2, 26329, Note_on_c, 0, 56, 0
2, 26329, Note_on_c, 0, 44, 0
2, 26347, Note_on_c, 0, 85, 0
2, 26349, Note_on_c, 0, 73, 0
2, 26364, Note_on_c, 0, 77, 80
2, 26364, Note_on_c, 0, 80, 80
2, 26395, Note_on_c, 0, 80, 0
2, 26395, Note_on_c, 0, 77, 0
2, 26400, Note_on_c, 0, 61, 80
2, 26400, Note_on_c, 0, 70, 80
2, 26400, Note_on_c, 0, 82, 80
2, 26401, Note_on_c, 0, 56, 80
2, 26401, Note_on_c, 0, 65, 80
2, 26420, Note_on_c, 0, 65, 0
2, 26420, Note_on_c, 0, 61, 0
2, 26420, Note_on_c, 0, 56, 0
2, 26504, Note_on_c, 0, 82, 0
2, 26504, Note_on_c, 0, 70, 0
2, 26509, Note_on_c, 0, 77, 80
2, 26511, Note_on_c, 0, 61, 80
2, 26511, Note_on_c, 0, 68, 80
2, 26511, Note_on_c, 0, 80, 80
2, 26513, Note_on_c, 0, 49, 80
2, 26552, Note_on_c, 0, 49, 0
2, 26552, Note_on_c, 0, 61, 0
2, 26623, Note_on_c, 0, 56, 80
2, 26623, Note_on_c, 0, 61, 80
2, 26623, Note_on_c, 0, 65, 80
2, 26643, Note_on_c, 0, 65, 0
2, 26643, Note_on_c, 0, 56, 0
2, 26643, Note_on_c, 0, 61, 0
2, 26734, Note_on_c, 0, 41, 80
2, 26734, Note_on_c, 0, 53, 80
2, 26752, Control_c, 0, 64, 127
2, 26774, Note_on_c, 0, 53, 0
2, 26774, Note_on_c, 0, 41, 0
2, 26792, Control_c, 0, 64, 0
2, 26801, Note_on_c, 0, 68, 0
2, 26801, Note_on_c, 0, 77, 0
2, 26801, Note_on_c, 0, 80, 0
2, 26845, Note_on_c, 0, 56, 80
2, 26845, Note_on_c, 0, 61, 80
2, 26845, Note_on_c, 0, 71, 80
2, 26847, Note_on_c, 0, 53, 80
2, 26847, Note_on_c, 0, 83, 80
2, 26865, Note_on_c, 0, 61, 0
2, 26865, Note_on_c, 0, 56, 0
2, 26867, Note_on_c, 0, 53, 0
2, 26947, Note_on_c, 0, 71, 0
2, 26947, Note_on_c, 0, 83, 0
2, 26953, Note_on_c, 0, 54, 80
2, 26953, Note_on_c, 0, 70, 80
2, 26953, Note_on_c, 0, 82, 80
2, 26955, Note_on_c, 0, 42, 80
2, 26995, Note_on_c, 0, 42, 0
2, 26995, Note_on_c, 0, 54, 0
2, 27022, Note_on_c, 0, 82, 0
2, 27022, Note_on_c, 0, 70, 0
2, 27028, Note_on_c, 0, 73, 80
2, 27059, Note_on_c, 0, 73, 0
2, 27066, Note_on_c, 0, 54, 80
2, 27066, Note_on_c, 0, 58, 80
2, 27066, Note_on_c, 0, 61, 80
2, 27066, Note_on_c, 0, 78, 80
2, 27088, Note_on_c, 0, 61, 0
2, 27088, Note_on_c, 0, 54, 0
2, 27088, Note_on_c, 0, 58, 0
2, 27096, Note_on_c, 0, 78, 0
2, 27141, Note_on_c, 0, 76, 80
2, 27141, Note_on_c, 0, 79, 80
2, 27141, Note_on_c, 0, 87, 80
2, 27171, Control_c, 0, 64, 127
2, 27178, Note_on_c, 0, 43, 80
2, 27178, Note_on_c, 0, 55, 80
2, 27217, Note_on_c, 0, 43, 0
2, 27226, Note_on_c, 0, 55, 0
2, 27235, Control_c, 0, 64, 0
2, 27243, Note_on_c, 0, 76, 0
2, 27243, Note_on_c, 0, 79, 0
2, 27243, Note_on_c, 0, 87, 0
2, 27250, Note_on_c, 0, 73, 80
2, 27250, Note_on_c, 0, 85, 80
2, 27281, Note_on_c, 0, 85, 0
2, 27281, Note_on_c, 0, 73, 0
2, 27286, Note_on_c, 0, 70, 80
2, 27288, Note_on_c, 0, 55, 80
2, 27288, Note_on_c, 0, 61, 80
2, 27288, Note_on_c, 0, 64, 80
2, 27288, Note_on_c, 0, 82, 80
2, 27308, Note_on_c, 0, 64, 0
2, 27308, Note_on_c, 0, 61, 0
2, 27318, Note_on_c, 0, 55, 0
2, 27349, Note_on_c, 0, 70, 0
2, 27349, Note_on_c, 0, 82, 0
2, 27353, Note_on_c, 0, 44, 80
2, 27353, Note_on_c, 0, 80, 80
2, 27355, Note_on_c, 0, 56, 80
2, 27394, Note_on_c, 0, 56, 0
2, 27396, Note_on_c, 0, 44, 0
2, 27423, Note_on_c, 0, 80, 0
2, 27427, Note_on_c, 0, 77, 80
2, 27429, Note_on_c, 0, 68, 80
2, 27429, Note_on_c, 0, 73, 80
2, 27459, Note_on_c, 0, 68, 0
2, 27461, Note_on_c, 0, 73, 0
2, 27461, Note_on_c, 0, 77, 0
2, 27504, Note_on_c, 0, 77, 80
2, 27505, Note_on_c, 0, 67, 80
2, 27505, Note_on_c, 0, 73, 80
2, 27541, Note_on_c, 0, 46, 80
2, 27541, Note_on_c, 0, 58, 80
2, 27607, Note_on_c, 0, 58, 0
2, 27607, Note_on_c, 0, 73, 0
2, 27607, Note_on_c, 0, 77, 0
2, 27607, Note_on_c, 0, 67, 0
2, 27607, Note_on_c, 0, 46, 0
2, 27653, Note_on_c, 0, 44, 80
2, 27653, Note_on_c, 0, 56, 80
2, 27653, Note_on_c, 0, 66, 80
2, 27653, Note_on_c, 0, 72, 80
2, 27653, Note_on_c, 0, 75, 80
2, 27759, Note_on_c, 0, 75, 0
2, 27759, Note_on_c, 0, 66, 0
2, 27759, Note_on_c, 0, 44, 0
2, 27759, Note_on_c, 0, 56, 0
2, 27759, Note_on_c, 0, 72, 0
2, 27766, Note_on_c, 0, 61, 80
2, 27766, Note_on_c, 0, 65, 80
2, 27766, Note_on_c, 0, 68, 80
2, 27766, Note_on_c, 0, 73, 80
2, 27768, Note_on_c, 0, 49, 80
2, 27834, Note_on_c, 0, 49, 0
2, 27834, Note_on_c, 0, 61, 0
2, 27880, Note_on_c, 0, 44, 80
2, 27880, Note_on_c, 0, 56, 80
2, 27911, Note_on_c, 0, 56, 0
2, 27912, Note_on_c, 0, 44, 0
2, 27930, Control_c, 0, 64, 127
2, 27959, Note_on_c, 0, 46, 80
2, 27959, Note_on_c, 0, 58, 80
2, 28025, Control_c, 0, 64, 0
2, 28060, Note_on_c, 0, 58, 0
2, 28060, Note_on_c, 0, 46, 0
2, 28067, Note_on_c, 0, 44, 80
2, 28067, Note_on_c, 0, 56, 80
2, 28100, Note_on_c, 0, 56, 0
2, 28100, Note_on_c, 0, 44, 0
2, 28106, Note_on_c, 0, 41, 80
2, 28108, Note_on_c, 0, 53, 80
2, 28175, Note_on_c, 0, 41, 0
2, 28176, Note_on_c, 0, 53, 0
2, 28180, Note_on_c, 0, 51, 80
2, 28182, Note_on_c, 0, 39, 80
2, 28211, Note_on_c, 0, 39, 0
2, 28211, Note_on_c, 0, 51, 0
2, 28220, Note_on_c, 0, 37, 80
2, 28220, Note_on_c, 0, 49, 80
2, 28267, Note_on_c, 0, 73, 0
2, 28267, Note_on_c, 0, 65, 0
2, 28267, Note_on_c, 0, 68, 0
2, 28269, Note_on_c, 0, 37, 0
2, 28269, Note_on_c, 0, 49, 0
2, 28445, Note_on_c, 0, 73, 80
2, 28445, Note_on_c, 0, 77, 80
2, 28447, Note_on_c, 0, 80, 80
2, 28447, Note_on_c, 0, 85, 80
2, 28487, Note_on_c, 0, 85, 0
2, 28487, Note_on_c, 0, 73, 0
2, 28487, Note_on_c, 0, 77, 0
2, 28487, Note_on_c, 0, 80, 0
2, 28556, Note_on_c, 0, 56, 80
2, 28558, Note_on_c, 0, 44, 80
2, 28661, Note_on_c, 0, 56, 0
2, 28663, Note_on_c, 0, 44, 0
2, 28667, Note_on_c, 0, 49, 80
2, 28667, Note_on_c, 0, 61, 80
2, 28707, Note_on_c, 0, 61, 0
2, 28707, Note_on_c, 0, 49, 0
2, 28780, Note_on_c, 0, 85, 80
2, 28780, Note_on_c, 0, 89, 80
2, 28780, Note_on_c, 0, 92, 80
2, 28780, Note_on_c, 0, 97, 80
2, 28782, Note_on_c, 0, 56, 80
2, 28782, Note_on_c, 0, 61, 80
2, 28782, Note_on_c, 0, 65, 80
2, 28800, Note_on_c, 0, 65, 0
2, 28800, Note_on_c, 0, 56, 0
2, 28800, Note_on_c, 0, 61, 0
2, 28809, Note_on_c, 0, 85, 0
2, 28809, Note_on_c, 0, 92, 0
2, 28809, Note_on_c, 0, 89, 0
2, 28818, Note_on_c, 0, 97, 0
2, 28851, Note_on_c, 0, 82, 80
2, 28851, Note_on_c, 0, 85, 80
2, 28851, Note_on_c, 0, 89, 80
2, 28851, Note_on_c, 0, 94, 80
2, 28885, Note_on_c, 0, 65, 80
2, 28889, Note_on_c, 0, 53, 80
2, 28953, Note_on_c, 0, 94, 0
2, 28953, Note_on_c, 0, 89, 0
2, 28953, Note_on_c, 0, 82, 0
2, 28955, Note_on_c, 0, 85, 0
2, 28959, Note_on_c, 0, 84, 80
2, 28959, Note_on_c, 0, 96, 80
2, 28990, Note_on_c, 0, 96, 0
2, 28990, Note_on_c, 0, 84, 0
2, 28990, Note_on_c, 0, 65, 0
2, 28992, Note_on_c, 0, 53, 0
2, 28995, Note_on_c, 0, 94, 80
2, 28997, Note_on_c, 0, 52, 80
2, 28997, Note_on_c, 0, 64, 80
2, 28997, Note_on_c, 0, 82, 80
2, 29064, Note_on_c, 0, 82, 0
2, 29064, Note_on_c, 0, 94, 0
2, 29070, Note_on_c, 0, 80, 80
2, 29070, Note_on_c, 0, 92, 80
2, 29101, Note_on_c, 0, 92, 0
2, 29101, Note_on_c, 0, 52, 0
2, 29101, Note_on_c, 0, 64, 0
2, 29101, Note_on_c, 0, 80, 0
2, 29108, Note_on_c, 0, 51, 80
2, 29108, Note_on_c, 0, 63, 80
2, 29108, Note_on_c, 0, 72, 80
2, 29108, Note_on_c, 0, 78, 80
2, 29108, Note_on_c, 0, 84, 80
2, 29147, Note_on_c, 0, 63, 0
2, 29149, Note_on_c, 0, 51, 0
2, 29174, Note_on_c, 0, 78, 0
2, 29174, Note_on_c, 0, 72, 0
2, 29176, Note_on_c, 0, 84, 0
2, 29181, Note_on_c, 0, 73, 80
2, 29181, Note_on_c, 0, 85, 80
2, 29209, Note_on_c, 0, 85, 0
2, 29209, Note_on_c, 0, 73, 0
2, 29218, Note_on_c, 0, 56, 80
2, 29218, Note_on_c, 0, 60, 80
2, 29218, Note_on_c, 0, 66, 80
2, 29218, Note_on_c, 0, 74, 80
2, 29218, Note_on_c, 0, 86, 80
2, 29240, Note_on_c, 0, 66, 0
2, 29240, Note_on_c, 0, 56, 0
2, 29240, Note_on_c, 0, 60, 0
2, 29249, Note_on_c, 0, 74, 0
2, 29249, Note_on_c, 0, 86, 0
2, 29293, Note_on_c, 0, 75, 80
2, 29293, Note_on_c, 0, 78, 80
2, 29293, Note_on_c, 0, 87, 80
2, 29328, Note_on_c, 0, 56, 80
2, 29330, Note_on_c, 0, 44, 80
2, 29368, Note_on_c, 0, 44, 0
2, 29368, Note_on_c, 0, 56, 0
2, 29392, Note_on_c, 0, 91, 80
2, 29396, Note_on_c, 0, 75, 0
2, 29396, Note_on_c, 0, 87, 0
2, 29396, Note_on_c, 0, 78, 0
2, 29400, Note_on_c, 0, 92, 80
2, 29404, Note_on_c, 0, 91, 0
2, 29431, Note_on_c, 0, 92, 0
2, 29438, Note_on_c, 0, 56, 80
2, 29438, Note_on_c, 0, 60, 80
2, 29438, Note_on_c, 0, 66, 80
2, 29438, Note_on_c, 0, 80, 80
2, 29458, Note_on_c, 0, 66, 0
2, 29458, Note_on_c, 0, 56, 0
2, 29458, Note_on_c, 0, 60, 0
2, 29504, Note_on_c, 0, 80, 0
2, 29548, Note_on_c, 0, 49, 80
2, 29548, Note_on_c, 0, 61, 80
2, 29589, Note_on_c, 0, 61, 0
2, 29589, Note_on_c, 0, 49, 0
2, 29657, Note_on_c, 0, 89, 80
2, 29657, Note_on_c, 0, 92, 80
2, 29657, Note_on_c, 0, 97, 80
2, 29659, Note_on_c, 0, 56, 80
2, 29659, Note_on_c, 0, 61, 80
2, 29659, Note_on_c, 0, 65, 80
2, 29659, Note_on_c, 0, 85, 80
2, 29679, Note_on_c, 0, 65, 0
2, 29679, Note_on_c, 0, 56, 0
2, 29679, Note_on_c, 0, 61, 0
2, 29686, Note_on_c, 0, 97, 0
2, 29686, Note_on_c, 0, 89, 0
2, 29686, Note_on_c, 0, 92, 0
2, 29688, Note_on_c, 0, 85, 0
2, 29730, Note_on_c, 0, 82, 80
2, 29730, Note_on_c, 0, 85, 80
2, 29730, Note_on_c, 0, 89, 80
2, 29730, Note_on_c, 0, 94, 80
2, 29769, Note_on_c, 0, 65, 80
2, 29771, Note_on_c, 0, 53, 80
2, 29837, Note_on_c, 0, 94, 0
2, 29837, Note_on_c, 0, 89, 0
2, 29837, Note_on_c, 0, 82, 0
2, 29837, Note_on_c, 0, 85, 0
2, 29842, Note_on_c, 0, 96, 80
2, 29844, Note_on_c, 0, 84, 80
2, 29873, Note_on_c, 0, 84, 0
2, 29873, Note_on_c, 0, 96, 0
2, 29873, Note_on_c, 0, 65, 0
2, 29877, Note_on_c, 0, 53, 0
2, 29880, Note_on_c, 0, 64, 80
2, 29880, Note_on_c, 0, 82, 80
2, 29880, Note_on_c, 0, 94, 80
2, 29882, Note_on_c, 0, 52, 80
2, 29952, Note_on_c, 0, 94, 0
2, 29952, Note_on_c, 0, 82, 0
2, 29956, Note_on_c, 0, 80, 80
2, 29956, Note_on_c, 0, 92, 80
2, 29989, Note_on_c, 0, 92, 0
2, 29989, Note_on_c, 0, 80, 0
2, 29991, Note_on_c, 0, 64, 0
2, 29991, Note_on_c, 0, 52, 0
2, 29996, Note_on_c, 0, 51, 80
2, 29996, Note_on_c, 0, 63, 80
2, 29996, Note_on_c, 0, 72, 80
2, 29996, Note_on_c, 0, 78, 80
2, 29996, Note_on_c, 0, 84, 80
2, 30038, Note_on_c, 0, 63, 0
2, 30038, Note_on_c, 0, 51, 0
2, 30063, Note_on_c, 0, 78, 0
2, 30063, Note_on_c, 0, 72, 0
2, 30063, Note_on_c, 0, 84, 0
2, 30070, Note_on_c, 0, 73, 80
2, 30070, Note_on_c, 0, 85, 80
2, 30100, Note_on_c, 0, 85, 0
2, 30102, Note_on_c, 0, 73, 0
2, 30106, Note_on_c, 0, 86, 80
2, 30108, Note_on_c, 0, 56, 80
2, 30108, Note_on_c, 0, 60, 80
2, 30108, Note_on_c, 0, 66, 80
2, 30108, Note_on_c, 0, 74, 80
2, 30130, Note_on_c, 0, 66, 0
2, 30130, Note_on_c, 0, 60, 0
2, 30130, Note_on_c, 0, 56, 0
2, 30139, Note_on_c, 0, 86, 0
2, 30139, Note_on_c, 0, 74, 0
2, 30183, Note_on_c, 0, 75, 80
2, 30183, Note_on_c, 0, 78, 80
2, 30183, Note_on_c, 0, 87, 80
2, 30222, Note_on_c, 0, 44, 80
2, 30222, Note_on_c, 0, 56, 80
2, 30262, Note_on_c, 0, 56, 0
2, 30262, Note_on_c, 0, 44, 0
2, 30286, Note_on_c, 0, 91, 80
2, 30290, Note_on_c, 0, 75, 0
2, 30290, Note_on_c, 0, 87, 0
2, 30290, Note_on_c, 0, 78, 0
2, 30295, Note_on_c, 0, 92, 80
2, 30299, Note_on_c, 0, 91, 0
2, 30326, Note_on_c, 0, 92, 0
2, 30331, Note_on_c, 0, 80, 80
2, 30333, Note_on_c, 0, 60, 80
2, 30333, Note_on_c, 0, 66, 80
2, 30335, Note_on_c, 0, 56, 80
2, 30353, Note_on_c, 0, 56, 0
2, 30353, Note_on_c, 0, 66, 0
2, 30353, Note_on_c, 0, 60, 0
2, 30399, Note_on_c, 0, 80, 0
2, 30443, Note_on_c, 0, 61, 80
2, 30445, Note_on_c, 0, 49, 80
2, 30482, Note_on_c, 0, 61, 0
2, 30484, Note_on_c, 0, 49, 0
2, 30553, Note_on_c, 0, 61, 80
2, 30553, Note_on_c, 0, 65, 80
2, 30553, Note_on_c, 0, 73, 80
2, 30553, Note_on_c, 0, 77, 80
2, 30553, Note_on_c, 0, 80, 80
2, 30553, Note_on_c, 0, 85, 80
2, 30555, Note_on_c, 0, 56, 80
2, 30577, Note_on_c, 0, 56, 0
2, 30577, Note_on_c, 0, 61, 0
2, 30577, Note_on_c, 0, 65, 0
2, 30584, Note_on_c, 0, 80, 0
2, 30584, Note_on_c, 0, 77, 0
2, 30584, Note_on_c, 0, 73, 0
2, 30584, Note_on_c, 0, 85, 0
2, 30628, Note_on_c, 0, 70, 80
2, 30628, Note_on_c, 0, 73, 80
2, 30628, Note_on_c, 0, 77, 80
2, 30628, Note_on_c, 0, 82, 80
2, 30630, Control_c, 0, 64, 127
2, 30666, Note_on_c, 0, 44, 80
2, 30666, Note_on_c, 0, 56, 80
2, 30723, Control_c, 0, 64, 0
2, 30730, Note_on_c, 0, 82, 0
2, 30730, Note_on_c, 0, 73, 0
2, 30730, Note_on_c, 0, 70, 0
2, 30732, Note_on_c, 0, 77, 0
2, 30736, Note_on_c, 0, 72, 80
2, 30738, Note_on_c, 0, 84, 80
2, 30768, Note_on_c, 0, 84, 0
2, 30768, Note_on_c, 0, 72, 0
2, 30770, Note_on_c, 0, 56, 0
2, 30770, Note_on_c, 0, 44, 0
2, 30775, Note_on_c, 0, 46, 80
2, 30775, Note_on_c, 0, 58, 80
2, 30775, Note_on_c, 0, 70, 80
2, 30775, Note_on_c, 0, 82, 80
2, 30843, Note_on_c, 0, 82, 0
2, 30843, Note_on_c, 0, 70, 0
2, 30850, Note_on_c, 0, 68, 80
2, 30850, Note_on_c, 0, 80, 80
2, 30879, Note_on_c, 0, 80, 0
2, 30879, Note_on_c, 0, 46, 0
2, 30879, Note_on_c, 0, 58, 0
2, 30879, Note_on_c, 0, 68, 0
2, 30886, Note_on_c, 0, 48, 80
2, 30886, Note_on_c, 0, 60, 80
2, 30886, Note_on_c, 0, 72, 80
2, 30926, Note_on_c, 0, 60, 0
2, 30926, Note_on_c, 0, 48, 0
2, 30953, Note_on_c, 0, 72, 0
2, 30960, Note_on_c, 0, 77, 80
2, 30990, Note_on_c, 0, 77, 0
2, 30997, Note_on_c, 0, 56, 80
2, 30997, Note_on_c, 0, 60, 80
2, 30997, Note_on_c, 0, 65, 80
2, 30997, Note_on_c, 0, 80, 80
2, 31019, Note_on_c, 0, 65, 0
2, 31019, Note_on_c, 0, 56, 0
2, 31019, Note_on_c, 0, 60, 0
2, 31063, Note_on_c, 0, 80, 0
2, 31070, Note_on_c, 0, 82, 80
2, 31103, Note_on_c, 0, 82, 0
2, 31106, Note_on_c, 0, 84, 80
2, 31108, Note_on_c, 0, 56, 80
2, 31110, Note_on_c, 0, 44, 80
2, 31175, Note_on_c, 0, 84, 0
2, 31176, Note_on_c, 0, 44, 0
2, 31176, Note_on_c, 0, 56, 0
2, 31181, Note_on_c, 0, 89, 80
2, 31212, Note_on_c, 0, 89, 0
2, 31217, Note_on_c, 0, 92, 80
2, 31221, Note_on_c, 0, 41, 80
2, 31221, Note_on_c, 0, 53, 80
2, 31285, Note_on_c, 0, 92, 0
2, 31290, Note_on_c, 0, 94, 80
2, 31319, Note_on_c, 0, 94, 0
2, 31320, Note_on_c, 0, 53, 0
2, 31320, Note_on_c, 0, 41, 0
2, 31322, Note_on_c, 0, 96, 80
2, 31326, Note_on_c, 0, 43, 80
2, 31326, Note_on_c, 0, 55, 80
2, 31364, Note_on_c, 0, 55, 0
2, 31364, Note_on_c, 0, 43, 0
2, 31391, Note_on_c, 0, 96, 0
2, 31397, Note_on_c, 0, 94, 80
2, 31428, Note_on_c, 0, 94, 0
2, 31435, Note_on_c, 0, 58, 80
2, 31435, Note_on_c, 0, 60, 80
2, 31435, Note_on_c, 0, 64, 80
2, 31435, Note_on_c, 0, 91, 80
2, 31457, Note_on_c, 0, 64, 0
2, 31457, Note_on_c, 0, 58, 0
2, 31457, Note_on_c, 0, 60, 0
2, 31503, Note_on_c, 0, 91, 0
2, 31510, Note_on_c, 0, 88, 80
2, 31540, Note_on_c, 0, 88, 0
2, 31549, Note_on_c, 0, 48, 80
2, 31549, Note_on_c, 0, 84, 80
2, 31551, Note_on_c, 0, 36, 80
2, 31590, Note_on_c, 0, 36, 0
2, 31590, Note_on_c, 0, 48, 0
2, 31619, Note_on_c, 0, 84, 0
2, 31624, Note_on_c, 0, 82, 80
2, 31656, Note_on_c, 0, 82, 0
2, 31660, Note_on_c, 0, 60, 80
2, 31660, Note_on_c, 0, 64, 80
2, 31662, Note_on_c, 0, 58, 80
2, 31662, Note_on_c, 0, 79, 80
2, 31682, Note_on_c, 0, 58, 0
2, 31682, Note_on_c, 0, 60, 0
2, 31682, Note_on_c, 0, 64, 0
2, 31728, Note_on_c, 0, 79, 0
2, 31735, Note_on_c, 0, 76, 80
2, 31766, Note_on_c, 0, 76, 0
2, 31771, Note_on_c, 0, 77, 80
2, 31773, Note_on_c, 0, 41, 80
2, 31775, Note_on_c, 0, 53, 80
2, 31841, Note_on_c, 0, 77, 0
2, 31846, Note_on_c, 0, 78, 80
2, 31876, Note_on_c, 0, 78, 0
2, 31885, Note_on_c, 0, 56, 80
2, 31885, Note_on_c, 0, 60, 80
2, 31885, Note_on_c, 0, 65, 80
2, 31885, Note_on_c, 0, 79, 80
2, 31905, Note_on_c, 0, 65, 0
2, 31905, Note_on_c, 0, 60, 0
2, 31907, Note_on_c, 0, 56, 0
2, 31924, Note_on_c, 0, 79, 0
2, 31960, Note_on_c, 0, 66, 80
2, 31960, Note_on_c, 0, 72, 80
2, 31960, Note_on_c, 0, 80, 80
2, 31992, Note_on_c, 0, 41, 0
2, 31992, Note_on_c, 0, 53, 0
2, 31996, Note_on_c, 0, 39, 80
2, 31996, Note_on_c, 0, 51, 80
2, 32037, Note_on_c, 0, 51, 0
2, 32037, Note_on_c, 0, 39, 0
2, 32061, Note_on_c, 0, 80, 0
2, 32061, Note_on_c, 0, 66, 0
2, 32061, Note_on_c, 0, 72, 0
2, 32067, Note_on_c, 0, 75, 80
2, 32099, Note_on_c, 0, 75, 0
2, 32106, Note_on_c, 0, 66, 80
2, 32106, Note_on_c, 0, 68, 80
2, 32108, Note_on_c, 0, 56, 80
2, 32108, Note_on_c, 0, 60, 80
2, 32126, Note_on_c, 0, 60, 0
2, 32126, Note_on_c, 0, 56, 0
2, 32126, Note_on_c, 0, 66, 0
2, 32173, Note_on_c, 0, 68, 0
2, 32217, Note_on_c, 0, 49, 80
2, 32217, Note_on_c, 0, 61, 80
2, 32257, Note_on_c, 0, 61, 0
2, 32259, Note_on_c, 0, 49, 0
2, 32332, Note_on_c, 0, 56, 80
2, 32332, Note_on_c, 0, 61, 80
2, 32332, Note_on_c, 0, 65, 80
2, 32332, Note_on_c, 0, 85, 80
2, 32332, Note_on_c, 0, 89, 80
2, 32332, Note_on_c, 0, 92, 80
2, 32332, Note_on_c, 0, 97, 80
2, 32354, Note_on_c, 0, 65, 0
2, 32354, Note_on_c, 0, 56, 0
2, 32354, Note_on_c, 0, 61, 0
2, 32361, Note_on_c, 0, 89, 0
2, 32361, Note_on_c, 0, 85, 0
2, 32361, Note_on_c, 0, 92, 0
2, 32372, Note_on_c, 0, 97, 0
2, 32405, Note_on_c, 0, 82, 80
2, 32405, Note_on_c, 0, 85, 80
2, 32405, Note_on_c, 0, 89, 80
2, 32405, Note_on_c, 0, 94, 80
2, 32446, Note_on_c, 0, 53, 80
2, 32446, Note_on_c, 0, 65, 80
2, 32510, Note_on_c, 0, 94, 0
2, 32510, Note_on_c, 0, 89, 0
2, 32510, Note_on_c, 0, 82, 0
2, 32510, Note_on_c, 0, 85, 0
2, 32515, Note_on_c, 0, 84, 80
2, 32515, Note_on_c, 0, 96, 80
2, 32545, Note_on_c, 0, 96, 0
2, 32545, Note_on_c, 0, 84, 0
2, 32547, Note_on_c, 0, 65, 0
2, 32547, Note_on_c, 0, 53, 0
2, 32552, Note_on_c, 0, 64, 80
2, 32552, Note_on_c, 0, 82, 80
2, 32552, Note_on_c, 0, 94, 80
2, 32554, Note_on_c, 0, 52, 80
2, 32621, Note_on_c, 0, 94, 0
2, 32621, Note_on_c, 0, 82, 0
2, 32626, Note_on_c, 0, 92, 80
2, 32628, Note_on_c, 0, 80, 80
2, 32657, Note_on_c, 0, 92, 0
2, 32659, Note_on_c, 0, 52, 0
2, 32659, Note_on_c, 0, 64, 0
2, 32659, Note_on_c, 0, 80, 0
2, 32664, Note_on_c, 0, 51, 80
2, 32664, Note_on_c, 0, 63, 80
2, 32664, Note_on_c, 0, 72, 80
2, 32664, Note_on_c, 0, 78, 80
2, 32664, Note_on_c, 0, 84, 80
2, 32703, Note_on_c, 0, 63, 0
2, 32703, Note_on_c, 0, 51, 0
2, 32732, Note_on_c, 0, 78, 0
2, 32732, Note_on_c, 0, 72, 0
2, 32732, Note_on_c, 0, 84, 0
2, 32738, Note_on_c, 0, 73, 80
2, 32738, Note_on_c, 0, 85, 80
2, 32769, Note_on_c, 0, 85, 0
2, 32769, Note_on_c, 0, 73, 0
2, 32776, Note_on_c, 0, 66, 80
2, 32776, Note_on_c, 0, 74, 80
2, 32776, Note_on_c, 0, 86, 80
2, 32778, Note_on_c, 0, 56, 80
2, 32778, Note_on_c, 0, 60, 80
2, 32798, Note_on_c, 0, 60, 0
2, 32798, Note_on_c, 0, 66, 0
2, 32798, Note_on_c, 0, 56, 0
2, 32807, Note_on_c, 0, 86, 0
2, 32807, Note_on_c, 0, 74, 0
2, 32851, Note_on_c, 0, 87, 80
2, 32853, Note_on_c, 0, 75, 80
2, 32853, Note_on_c, 0, 78, 80
2, 32880, Control_c, 0, 64, 127
2, 32888, Note_on_c, 0, 56, 80
2, 32890, Note_on_c, 0, 44, 80
2, 32926, Note_on_c, 0, 56, 0
2, 32928, Note_on_c, 0, 44, 0
2, 32946, Control_c, 0, 64, 0
2, 32950, Note_on_c, 0, 91, 80
2, 32953, Note_on_c, 0, 87, 0
2, 32953, Note_on_c, 0, 78, 0
2, 32953, Note_on_c, 0, 75, 0
2, 32960, Note_on_c, 0, 92, 80
2, 32962, Note_on_c, 0, 91, 0
2, 32989, Note_on_c, 0, 92, 0
2, 32996, Note_on_c, 0, 56, 80
2, 32996, Note_on_c, 0, 60, 80
2, 32996, Note_on_c, 0, 66, 80
2, 32996, Note_on_c, 0, 80, 80
2, 33018, Note_on_c, 0, 66, 0
2, 33018, Note_on_c, 0, 56, 0
2, 33018, Note_on_c, 0, 60, 0
2, 33064, Note_on_c, 0, 80, 0
2, 33101, Control_c, 0, 64, 127
2, 33108, Note_on_c, 0, 61, 80
2, 33110, Note_on_c, 0, 49, 80
2, 33142, Control_c, 0, 64, 0
2, 33148, Note_on_c, 0, 49, 0
2, 33148, Note_on_c, 0, 61, 0
2, 33221, Note_on_c, 0, 65, 80
2, 33221, Note_on_c, 0, 85, 80
2, 33221, Note_on_c, 0, 89, 80
2, 33221, Note_on_c, 0, 92, 80
2, 33221, Note_on_c, 0, 97, 80
2, 33223, Note_on_c, 0, 56, 80
2, 33223, Note_on_c, 0, 61, 80
2, 33241, Note_on_c, 0, 61, 0
2, 33241, Note_on_c, 0, 65, 0
2, 33241, Note_on_c, 0, 56, 0
2, 33250, Note_on_c, 0, 92, 0
2, 33250, Note_on_c, 0, 89, 0
2, 33252, Note_on_c, 0, 85, 0
2, 33261, Note_on_c, 0, 97, 0
2, 33298, Note_on_c, 0, 82, 80
2, 33298, Note_on_c, 0, 85, 80
2, 33298, Note_on_c, 0, 89, 80
2, 33298, Note_on_c, 0, 94, 80
2, 33334, Note_on_c, 0, 65, 80
2, 33336, Note_on_c, 0, 53, 80
2, 33400, Note_on_c, 0, 94, 0
2, 33400, Note_on_c, 0, 89, 0
2, 33400, Note_on_c, 0, 82, 0
2, 33400, Note_on_c, 0, 85, 0
2, 33405, Note_on_c, 0, 84, 80
2, 33405, Note_on_c, 0, 96, 80
2, 33436, Note_on_c, 0, 96, 0
2, 33436, Note_on_c, 0, 84, 0
2, 33436, Note_on_c, 0, 65, 0
2, 33438, Note_on_c, 0, 53, 0
2, 33442, Note_on_c, 0, 94, 80
2, 33442, Note_on_c, 0, 52, 80
2, 33442, Note_on_c, 0, 64, 80
2, 33442, Note_on_c, 0, 82, 80
2, 33508, Note_on_c, 0, 82, 0
2, 33508, Note_on_c, 0, 94, 0
2, 33515, Note_on_c, 0, 80, 80
2, 33515, Note_on_c, 0, 92, 80
2, 33544, Note_on_c, 0, 92, 0
2, 33544, Note_on_c, 0, 80, 0
2, 33544, Note_on_c, 0, 64, 0
2, 33546, Note_on_c, 0, 52, 0
2, 33551, Note_on_c, 0, 78, 80
2, 33551, Note_on_c, 0, 84, 80
2, 33552, Note_on_c, 0, 51, 80
2, 33552, Note_on_c, 0, 63, 80
2, 33552, Note_on_c, 0, 72, 80
2, 33591, Note_on_c, 0, 63, 0
2, 33593, Note_on_c, 0, 51, 0
2, 33620, Note_on_c, 0, 78, 0
2, 33620, Note_on_c, 0, 84, 0
2, 33620, Note_on_c, 0, 72, 0
2, 33624, Note_on_c, 0, 73, 80
2, 33624, Note_on_c, 0, 85, 80
2, 33656, Note_on_c, 0, 85, 0
2, 33656, Note_on_c, 0, 73, 0
2, 33661, Note_on_c, 0, 56, 80
2, 33661, Note_on_c, 0, 60, 80
2, 33661, Note_on_c, 0, 66, 80
2, 33661, Note_on_c, 0, 74, 80
2, 33661, Note_on_c, 0, 86, 80
2, 33681, Note_on_c, 0, 66, 0
2, 33681, Note_on_c, 0, 56, 0
2, 33681, Note_on_c, 0, 60, 0
2, 33690, Note_on_c, 0, 86, 0
2, 33692, Note_on_c, 0, 74, 0
2, 33730, Note_on_c, 0, 75, 80
2, 33730, Note_on_c, 0, 78, 80
2, 33730, Note_on_c, 0, 87, 80
2, 33761, Control_c, 0, 64, 127
2, 33769, Note_on_c, 0, 56, 80
2, 33771, Note_on_c, 0, 44, 80
2, 33810, Note_on_c, 0, 44, 0
2, 33810, Note_on_c, 0, 56, 0
2, 33827, Control_c, 0, 64, 0
2, 33831, Note_on_c, 0, 91, 80
2, 33836, Note_on_c, 0, 75, 0
2, 33836, Note_on_c, 0, 87, 0
2, 33836, Note_on_c, 0, 78, 0
2, 33840, Note_on_c, 0, 92, 80
2, 33844, Note_on_c, 0, 91, 0
2, 33869, Note_on_c, 0, 92, 0
2, 33876, Note_on_c, 0, 66, 80
2, 33878, Note_on_c, 0, 56, 80
2, 33878, Note_on_c, 0, 60, 80
2, 33878, Note_on_c, 0, 80, 80
2, 33898, Note_on_c, 0, 60, 0
2, 33898, Note_on_c, 0, 66, 0
2, 33898, Note_on_c, 0, 56, 0
2, 33944, Note_on_c, 0, 80, 0
2, 33988, Note_on_c, 0, 49, 80
2, 33988, Note_on_c, 0, 61, 80
2, 34027, Note_on_c, 0, 61, 0
2, 34027, Note_on_c, 0, 49, 0
2, 34103, Note_on_c, 0, 85, 80
2, 34104, Note_on_c, 0, 56, 80
2, 34104, Note_on_c, 0, 65, 80
2, 34104, Note_on_c, 0, 73, 80
2, 34104, Note_on_c, 0, 77, 80
2, 34104, Note_on_c, 0, 80, 80
2, 34106, Note_on_c, 0, 61, 80
2, 34127, Note_on_c, 0, 61, 0
2, 34127, Note_on_c, 0, 56, 0
2, 34127, Note_on_c, 0, 65, 0
2, 34133, Note_on_c, 0, 73, 0
2, 34133, Note_on_c, 0, 85, 0
2, 34133, Note_on_c, 0, 80, 0
2, 34133, Note_on_c, 0, 77, 0
2, 34177, Note_on_c, 0, 70, 80
2, 34177, Note_on_c, 0, 73, 80
2, 34177, Note_on_c, 0, 77, 80
2, 34177, Note_on_c, 0, 82, 80
2, 34206, Control_c, 0, 64, 127
2, 34215, Note_on_c, 0, 41, 80
2, 34215, Note_on_c, 0, 53, 80
2, 34255, Note_on_c, 0, 41, 0
2, 34257, Note_on_c, 0, 53, 0
2, 34275, Control_c, 0, 64, 0
2, 34282, Note_on_c, 0, 77, 0
2, 34282, Note_on_c, 0, 70, 0
2, 34282, Note_on_c, 0, 73, 0
2, 34282, Note_on_c, 0, 82, 0
2, 34287, Note_on_c, 0, 84, 80
2, 34289, Note_on_c, 0, 72, 80
2, 34320, Note_on_c, 0, 72, 0
2, 34320, Note_on_c, 0, 84, 0
2, 34325, Note_on_c, 0, 70, 80
2, 34325, Note_on_c, 0, 82, 80
2, 34327, Note_on_c, 0, 59, 80
2, 34327, Note_on_c, 0, 61, 80
2, 34327, Note_on_c, 0, 65, 80
2, 34347, Note_on_c, 0, 65, 0
2, 34347, Note_on_c, 0, 59, 0
2, 34347, Note_on_c, 0, 61, 0
2, 34392, Note_on_c, 0, 82, 0
2, 34392, Note_on_c, 0, 70, 0
2, 34399, Note_on_c, 0, 77, 80
2, 34430, Note_on_c, 0, 77, 0
2, 34437, Note_on_c, 0, 42, 80
2, 34437, Note_on_c, 0, 70, 80
2, 34437, Note_on_c, 0, 73, 80
2, 34437, Note_on_c, 0, 78, 80
2, 34439, Note_on_c, 0, 54, 80
2, 34505, Note_on_c, 0, 54, 0
2, 34505, Note_on_c, 0, 73, 0
2, 34505, Note_on_c, 0, 42, 0
2, 34505, Note_on_c, 0, 70, 0
2, 34505, Note_on_c, 0, 78, 0
2, 34510, Note_on_c, 0, 77, 80
2, 34540, Note_on_c, 0, 77, 0
2, 34545, Note_on_c, 0, 58, 80
2, 34545, Note_on_c, 0, 61, 80
2, 34545, Note_on_c, 0, 66, 80
2, 34545, Note_on_c, 0, 78, 80
2, 34569, Note_on_c, 0, 66, 0
2, 34569, Note_on_c, 0, 58, 0
2, 34569, Note_on_c, 0, 61, 0
2, 34578, Note_on_c, 0, 78, 0
2, 34620, Note_on_c, 0, 76, 80
2, 34620, Note_on_c, 0, 79, 80
2, 34620, Note_on_c, 0, 87, 80
2, 34657, Note_on_c, 0, 43, 80
2, 34657, Note_on_c, 0, 55, 80
2, 34724, Note_on_c, 0, 55, 0
2, 34724, Note_on_c, 0, 87, 0
2, 34724, Note_on_c, 0, 76, 0
2, 34724, Note_on_c, 0, 79, 0
2, 34724, Note_on_c, 0, 43, 0
2, 34730, Note_on_c, 0, 73, 80
2, 34730, Note_on_c, 0, 85, 80
2, 34762, Note_on_c, 0, 85, 0
2, 34762, Note_on_c, 0, 73, 0
2, 34767, Note_on_c, 0, 55, 80
2, 34767, Note_on_c, 0, 61, 80
2, 34767, Note_on_c, 0, 64, 80
2, 34767, Note_on_c, 0, 70, 80
2, 34767, Note_on_c, 0, 82, 80
2, 34789, Note_on_c, 0, 64, 0
2, 34789, Note_on_c, 0, 61, 0
2, 34800, Note_on_c, 0, 55, 0
2, 34835, Note_on_c, 0, 82, 0
2, 34835, Note_on_c, 0, 70, 0
2, 34879, Note_on_c, 0, 56, 80
2, 34879, Note_on_c, 0, 80, 80
2, 34881, Note_on_c, 0, 44, 80
2, 34920, Note_on_c, 0, 44, 0
2, 34920, Note_on_c, 0, 56, 0
2, 34946, Note_on_c, 0, 80, 0
2, 34951, Note_on_c, 0, 68, 80
2, 34951, Note_on_c, 0, 73, 80
2, 34951, Note_on_c, 0, 77, 80
2, 34983, Note_on_c, 0, 77, 0
2, 34983, Note_on_c, 0, 73, 0
2, 34983, Note_on_c, 0, 68, 0
2, 34988, Note_on_c, 0, 61, 80
2, 34988, Note_on_c, 0, 80, 80
2, 34988, Note_on_c, 0, 56, 80
2, 34988, Note_on_c, 0, 65, 80
2, 35008, Note_on_c, 0, 65, 0
2, 35008, Note_on_c, 0, 61, 0
2, 35010, Note_on_c, 0, 56, 0
2, 35018, Note_on_c, 0, 80, 0
2, 35061, Note_on_c, 0, 67, 80
2, 35061, Note_on_c, 0, 73, 80
2, 35061, Note_on_c, 0, 77, 80
2, 35098, Note_on_c, 0, 46, 80
2, 35098, Note_on_c, 0, 58, 80
2, 35164, Note_on_c, 0, 58, 0
2, 35164, Note_on_c, 0, 67, 0
2, 35164, Note_on_c, 0, 77, 0
2, 35164, Note_on_c, 0, 73, 0
2, 35166, Note_on_c, 0, 46, 0
2, 35208, Note_on_c, 0, 56, 80
2, 35208, Note_on_c, 0, 66, 80
2, 35208, Note_on_c, 0, 72, 80
2, 35208, Note_on_c, 0, 75, 80
2, 35210, Note_on_c, 0, 44, 80
2, 35278, Note_on_c, 0, 56, 0
2, 35313, Note_on_c, 0, 75, 0
2, 35313, Note_on_c, 0, 66, 0
2, 35313, Note_on_c, 0, 72, 0
2, 35313, Note_on_c, 0, 44, 0
2, 35318, Note_on_c, 0, 56, 80
2, 35318, Note_on_c, 0, 61, 80
2, 35318, Note_on_c, 0, 65, 80
2, 35318, Note_on_c, 0, 68, 80
2, 35318, Note_on_c, 0, 73, 80
2, 35320, Note_on_c, 0, 49, 80
2, 35357, Note_on_c, 0, 49, 0
2, 35357, Note_on_c, 0, 61, 0
2, 35357, Note_on_c, 0, 65, 0
2, 35357, Note_on_c, 0, 56, 0
2, 35357, Note_on_c, 0, 73, 0
2, 35357, Note_on_c, 0, 68, 0
2, 35538, Note_on_c, 0, 73, 80
2, 35540, Note_on_c, 0, 37, 80
2, 35540, Note_on_c, 0, 49, 80
2, 35540, Note_on_c, 0, 77, 80
2, 35540, Note_on_c, 0, 80, 80
2, 35540, Note_on_c, 0, 85, 80
2, 35578, Note_on_c, 0, 85, 0
2, 35578, Note_on_c, 0, 37, 0
2, 35578, Note_on_c, 0, 49, 0
2, 35578, Note_on_c, 0, 73, 0
2, 35578, Note_on_c, 0, 80, 0
2, 35578, Note_on_c, 0, 77, 0
2, 35755, Note_on_c, 0, 51, 80
2, 35755, Note_on_c, 0, 63, 80
2, 35755, Note_on_c, 0, 67, 80
2, 35755, Note_on_c, 0, 73, 80
2, 35755, Note_on_c, 0, 75, 80
2, 35793, Note_on_c, 0, 75, 0
2, 35793, Note_on_c, 0, 67, 0
2, 35793, Note_on_c, 0, 51, 0
2, 35793, Note_on_c, 0, 63, 0
2, 35793, Note_on_c, 0, 73, 0
2, 35829, Control_c, 0, 64, 127
2, 35866, Note_on_c, 0, 51, 80
2, 35866, Note_on_c, 0, 63, 80
2, 35866, Note_on_c, 0, 67, 80
2, 35866, Note_on_c, 0, 73, 80
2, 35866, Note_on_c, 0, 75, 80
2, 36004, Control_c, 0, 64, 0
2, 36040, Note_on_c, 0, 75, 0
2, 36040, Note_on_c, 0, 67, 0
2, 36040, Note_on_c, 0, 51, 0
2, 36040, Note_on_c, 0, 63, 0
2, 36040, Note_on_c, 0, 73, 0
2, 36085, Note_on_c, 0, 49, 80
2, 36085, Note_on_c, 0, 61, 80
2, 36085, Note_on_c, 0, 67, 80
2, 36085, Note_on_c, 0, 73, 80
2, 36085, Note_on_c, 0, 77, 80
2, 36152, Note_on_c, 0, 73, 0
2, 36152, Note_on_c, 0, 67, 0
2, 36188, Note_on_c, 0, 61, 0
2, 36190, Note_on_c, 0, 49, 0
2, 36190, Note_on_c, 0, 77, 0
2, 36194, Note_on_c, 0, 46, 80
2, 36194, Note_on_c, 0, 58, 80
2, 36194, Note_on_c, 0, 67, 80
2, 36194, Note_on_c, 0, 73, 80
2, 36194, Note_on_c, 0, 79, 80
2, 36235, Note_on_c, 0, 79, 0
2, 36235, Note_on_c, 0, 67, 0
2, 36235, Note_on_c, 0, 46, 0
2, 36235, Note_on_c, 0, 58, 0
2, 36235, Note_on_c, 0, 73, 0
2, 36270, Control_c, 0, 64, 127
2, 36308, Note_on_c, 0, 46, 80
2, 36308, Note_on_c, 0, 58, 80
2, 36308, Note_on_c, 0, 67, 80
2, 36308, Note_on_c, 0, 73, 80
2, 36308, Note_on_c, 0, 79, 80
2, 36426, Control_c, 0, 64, 0
2, 36491, Note_on_c, 0, 79, 0
2, 36491, Note_on_c, 0, 67, 0
2, 36491, Note_on_c, 0, 46, 0
2, 36491, Note_on_c, 0, 58, 0
2, 36491, Note_on_c, 0, 73, 0
2, 36535, Note_on_c, 0, 43, 80
2, 36535, Note_on_c, 0, 55, 80
2, 36535, Note_on_c, 0, 70, 80
2, 36535, Note_on_c, 0, 73, 80
2, 36535, Note_on_c, 0, 79, 80
2, 36535, Note_on_c, 0, 82, 80
2, 36604, Note_on_c, 0, 82, 0
2, 36604, Note_on_c, 0, 79, 0
2, 36642, Note_on_c, 0, 70, 0
2, 36642, Note_on_c, 0, 73, 0
2, 36642, Note_on_c, 0, 43, 0
2, 36647, Note_on_c, 0, 87, 80
2, 36648, Note_on_c, 0, 39, 80
2, 36648, Note_on_c, 0, 51, 80
2, 36648, Note_on_c, 0, 75, 80
2, 36648, Note_on_c, 0, 79, 80
2, 36648, Note_on_c, 0, 82, 80
2, 36650, Note_on_c, 0, 55, 0
2, 36686, Note_on_c, 0, 79, 0
2, 36686, Note_on_c, 0, 75, 0
2, 36686, Note_on_c, 0, 51, 0
2, 36686, Note_on_c, 0, 87, 0
2, 36686, Note_on_c, 0, 82, 0
2, 36688, Note_on_c, 0, 39, 0
2, 36759, Note_on_c, 0, 52, 80
2, 36759, Note_on_c, 0, 64, 80
2, 36759, Note_on_c, 0, 76, 80
2, 36790, Note_on_c, 0, 76, 0
2, 36790, Note_on_c, 0, 64, 0
2, 36790, Note_on_c, 0, 52, 0
2, 36832, Note_on_c, 0, 65, 80
2, 36832, Note_on_c, 0, 77, 80
2, 36834, Control_c, 0, 64, 127
2, 36834, Note_on_c, 0, 53, 80
2, 36898, Control_c, 0, 64, 0
2, 36936, Note_on_c, 0, 77, 0
2, 36936, Note_on_c, 0, 65, 0
2, 36937, Note_on_c, 0, 53, 0
2, 36941, Note_on_c, 0, 54, 80
2, 36941, Note_on_c, 0, 66, 80
2, 36943, Note_on_c, 0, 78, 80
2, 36972, Note_on_c, 0, 78, 0
2, 36972, Note_on_c, 0, 66, 0
2, 36972, Note_on_c, 0, 54, 0
2, 36977, Note_on_c, 0, 55, 80
2, 36977, Note_on_c, 0, 67, 80
2, 36977, Note_on_c, 0, 79, 80
2, 37044, Note_on_c, 0, 67, 0
2, 37049, Note_on_c, 0, 58, 80
2, 37049, Note_on_c, 0, 70, 80
2, 37049, Note_on_c, 0, 82, 80
2, 37053, Note_on_c, 0, 79, 0
2, 37053, Note_on_c, 0, 55, 0
2, 37080, Note_on_c, 0, 70, 0
2, 37080, Note_on_c, 0, 58, 0
2, 37080, Note_on_c, 0, 82, 0
2, 37086, Note_on_c, 0, 63, 80
2, 37086, Note_on_c, 0, 87, 80
2, 37088, Note_on_c, 0, 75, 80
2, 37088, Note_on_c, 0, 79, 80
2, 37127, Note_on_c, 0, 79, 0
2, 37127, Note_on_c, 0, 63, 0
2, 37127, Note_on_c, 0, 87, 0
2, 37127, Note_on_c, 0, 75, 0
2, 37199, Note_on_c, 0, 39, 80
2, 37199, Note_on_c, 0, 51, 80
2, 37303, Note_on_c, 0, 51, 0
2, 37303, Note_on_c, 0, 39, 0
2, 37310, Note_on_c, 0, 41, 80
2, 37312, Note_on_c, 0, 53, 80
2, 37383, Note_on_c, 0, 63, 80
2, 37383, Note_on_c, 0, 75, 80
2, 37414, Note_on_c, 0, 75, 0
2, 37414, Note_on_c, 0, 41, 0
2, 37414, Note_on_c, 0, 53, 0
2, 37414, Note_on_c, 0, 63, 0
2, 37420, Note_on_c, 0, 43, 80
2, 37420, Note_on_c, 0, 55, 80
2, 37420, Note_on_c, 0, 65, 80
2, 37420, Note_on_c, 0, 77, 80
2, 37488, Note_on_c, 0, 77, 0
2, 37488, Note_on_c, 0, 65, 0
2, 37492, Note_on_c, 0, 67, 80
2, 37494, Note_on_c, 0, 79, 80
2, 37521, Note_on_c, 0, 67, 0
2, 37521, Note_on_c, 0, 43, 0
2, 37528, Note_on_c, 0, 44, 80
2, 37528, Note_on_c, 0, 56, 80
2, 37528, Note_on_c, 0, 68, 80
2, 37528, Note_on_c, 0, 72, 80
2, 37528, Note_on_c, 0, 75, 80
2, 37528, Note_on_c, 0, 80, 80
2, 37530, Note_on_c, 0, 79, 0
2, 37532, Note_on_c, 0, 55, 0
2, 37567, Note_on_c, 0, 56, 0
2, 37567, Note_on_c, 0, 44, 0
2, 37594, Note_on_c, 0, 68, 0
2, 37594, Note_on_c, 0, 75, 0
2, 37594, Note_on_c, 0, 72, 0
2, 37596, Note_on_c, 0, 80, 0
2, 37601, Note_on_c, 0, 70, 80
2, 37601, Note_on_c, 0, 82, 80
2, 37630, Note_on_c, 0, 82, 0
2, 37630, Note_on_c, 0, 70, 0
2, 37634, Note_on_c, 0, 84, 80
2, 37636, Note_on_c, 0, 51, 80
2, 37636, Note_on_c, 0, 56, 80
2, 37636, Note_on_c, 0, 60, 80
2, 37636, Note_on_c, 0, 72, 80
2, 37656, Note_on_c, 0, 60, 0
2, 37656, Note_on_c, 0, 56, 0
2, 37656, Note_on_c, 0, 51, 0
2, 37665, Note_on_c, 0, 84, 0
2, 37665, Note_on_c, 0, 72, 0
2, 37707, Note_on_c, 0, 77, 80
2, 37707, Note_on_c, 0, 84, 80
2, 37707, Note_on_c, 0, 89, 80
2, 37736, Control_c, 0, 64, 127
2, 37745, Note_on_c, 0, 48, 80
2, 37745, Note_on_c, 0, 60, 80
2, 37783, Note_on_c, 0, 60, 0
2, 37783, Note_on_c, 0, 48, 0
2, 37800, Control_c, 0, 64, 0
2, 37811, Note_on_c, 0, 77, 0
2, 37811, Note_on_c, 0, 84, 0
2, 37811, Note_on_c, 0, 89, 0
2, 37816, Note_on_c, 0, 75, 80
2, 37816, Note_on_c, 0, 87, 80
2, 37847, Note_on_c, 0, 87, 0
2, 37847, Note_on_c, 0, 75, 0
2, 37853, Note_on_c, 0, 51, 80
2, 37853, Note_on_c, 0, 56, 80
2, 37853, Note_on_c, 0, 60, 80
2, 37853, Note_on_c, 0, 72, 80
2, 37853, Note_on_c, 0, 84, 80
2, 37875, Note_on_c, 0, 60, 0
2, 37875, Note_on_c, 0, 56, 0
2, 37877, Note_on_c, 0, 51, 0
2, 37922, Note_on_c, 0, 84, 0
2, 37922, Note_on_c, 0, 72, 0
2, 37929, Note_on_c, 0, 68, 80
2, 37929, Note_on_c, 0, 80, 80
2, 37960, Note_on_c, 0, 80, 0
2, 37960, Note_on_c, 0, 68, 0
2, 37965, Note_on_c, 0, 58, 80
2, 37965, Note_on_c, 0, 67, 80
2, 37965, Note_on_c, 0, 73, 80
2, 37965, Note_on_c, 0, 75, 80
2, 37965, Note_on_c, 0, 79, 80
2, 37967, Note_on_c, 0, 46, 80
2, 38007, Note_on_c, 0, 46, 0
2, 38007, Note_on_c, 0, 58, 0
2, 38034, Note_on_c, 0, 75, 0
2, 38034, Note_on_c, 0, 67, 0
2, 38034, Note_on_c, 0, 73, 0
2, 38034, Note_on_c, 0, 79, 0
2, 38079, Note_on_c, 0, 77, 80
2, 38081, Note_on_c, 0, 51, 80
2, 38081, Note_on_c, 0, 55, 80
2, 38081, Note_on_c, 0, 61, 80
2, 38101, Note_on_c, 0, 61, 0
2, 38101, Note_on_c, 0, 55, 0
2, 38103, Note_on_c, 0, 51, 0
2, 38112, Note_on_c, 0, 77, 0
2, 38157, Note_on_c, 0, 67, 80
2, 38157, Note_on_c, 0, 73, 80
2, 38157, Note_on_c, 0, 75, 80
2, 38195, Note_on_c, 0, 39, 80
2, 38195, Note_on_c, 0, 51, 80
2, 38226, Note_on_c, 0, 75, 0
2, 38234, Note_on_c, 0, 39, 0
2, 38234, Note_on_c, 0, 51, 0
2, 38263, Note_on_c, 0, 73, 0
2, 38263, Note_on_c, 0, 67, 0
2, 38268, Note_on_c, 0, 63, 80
2, 38268, Note_on_c, 0, 75, 80
2, 38300, Note_on_c, 0, 75, 0
2, 38300, Note_on_c, 0, 63, 0
2, 38304, Note_on_c, 0, 51, 80
2, 38304, Note_on_c, 0, 55, 80
2, 38304, Note_on_c, 0, 61, 80
2, 38304, Note_on_c, 0, 65, 80
2, 38304, Note_on_c, 0, 77, 80
2, 38327, Note_on_c, 0, 61, 0
2, 38327, Note_on_c, 0, 51, 0
2, 38335, Note_on_c, 0, 55, 0
2, 38373, Note_on_c, 0, 77, 0
2, 38373, Note_on_c, 0, 65, 0
2, 38379, Note_on_c, 0, 67, 80
2, 38381, Note_on_c, 0, 79, 80
2, 38412, Note_on_c, 0, 79, 0
2, 38412, Note_on_c, 0, 67, 0
2, 38419, Note_on_c, 0, 44, 80
2, 38419, Note_on_c, 0, 56, 80
2, 38419, Note_on_c, 0, 68, 80
2, 38419, Note_on_c, 0, 80, 80
2, 38459, Note_on_c, 0, 56, 0
2, 38459, Note_on_c, 0, 44, 0
2, 38486, Note_on_c, 0, 68, 0
2, 38486, Note_on_c, 0, 80, 0
2, 38491, Note_on_c, 0, 70, 80
2, 38491, Note_on_c, 0, 82, 80
2, 38521, Note_on_c, 0, 82, 0
2, 38521, Note_on_c, 0, 70, 0
2, 38528, Note_on_c, 0, 51, 80
2, 38528, Note_on_c, 0, 56, 80
2, 38528, Note_on_c, 0, 60, 80
2, 38528, Note_on_c, 0, 72, 80
2, 38528, Note_on_c, 0, 84, 80
2, 38548, Note_on_c, 0, 60, 0
2, 38548, Note_on_c, 0, 51, 0
2, 38548, Note_on_c, 0, 56, 0
2, 38559, Note_on_c, 0, 72, 0
2, 38559, Note_on_c, 0, 84, 0
2, 38603, Control_c, 0, 64, 127
2, 38603, Note_on_c, 0, 77, 80
2, 38603, Note_on_c, 0, 84, 80
2, 38603, Note_on_c, 0, 89, 80
2, 38639, Note_on_c, 0, 48, 80
2, 38639, Note_on_c, 0, 60, 80
2, 38677, Note_on_c, 0, 60, 0
2, 38677, Note_on_c, 0, 48, 0
2, 38695, Control_c, 0, 64, 0
2, 38704, Note_on_c, 0, 77, 0
2, 38704, Note_on_c, 0, 84, 0
2, 38704, Note_on_c, 0, 89, 0
2, 38709, Note_on_c, 0, 75, 80
2, 38709, Note_on_c, 0, 87, 80
2, 38739, Note_on_c, 0, 87, 0
2, 38739, Note_on_c, 0, 75, 0
2, 38746, Note_on_c, 0, 72, 80
2, 38746, Note_on_c, 0, 84, 80
2, 38748, Note_on_c, 0, 51, 80
2, 38748, Note_on_c, 0, 56, 80
2, 38748, Note_on_c, 0, 60, 80
2, 38766, Note_on_c, 0, 60, 0
2, 38766, Note_on_c, 0, 51, 0
2, 38766, Note_on_c, 0, 56, 0
2, 38811, Note_on_c, 0, 84, 0
2, 38811, Note_on_c, 0, 72, 0
2, 38820, Note_on_c, 0, 68, 80
2, 38820, Note_on_c, 0, 80, 80
2, 38851, Note_on_c, 0, 80, 0
2, 38851, Note_on_c, 0, 68, 0
2, 38857, Note_on_c, 0, 46, 80
2, 38857, Note_on_c, 0, 58, 80
2, 38857, Note_on_c, 0, 67, 80
2, 38857, Note_on_c, 0, 73, 80
2, 38857, Note_on_c, 0, 75, 80
2, 38857, Note_on_c, 0, 79, 80
2, 38896, Note_on_c, 0, 58, 0
2, 38896, Note_on_c, 0, 46, 0
2, 38925, Note_on_c, 0, 75, 0
2, 38925, Note_on_c, 0, 73, 0
2, 38925, Note_on_c, 0, 79, 0
2, 38925, Note_on_c, 0, 67, 0
2, 38967, Note_on_c, 0, 77, 80
2, 38969, Note_on_c, 0, 51, 80
2, 38969, Note_on_c, 0, 55, 80
2, 38969, Note_on_c, 0, 61, 80
2, 38989, Note_on_c, 0, 61, 0
2, 38991, Note_on_c, 0, 55, 0
2, 38991, Note_on_c, 0, 51, 0
2, 38998, Note_on_c, 0, 77, 0
2, 39040, Note_on_c, 0, 67, 80
2, 39040, Note_on_c, 0, 73, 80
2, 39040, Note_on_c, 0, 75, 80
2, 39078, Note_on_c, 0, 39, 80
2, 39078, Note_on_c, 0, 51, 80
2, 39107, Note_on_c, 0, 75, 0
2, 39118, Note_on_c, 0, 39, 0
2, 39118, Note_on_c, 0, 51, 0
2, 39135, Note_on_c, 0, 73, 0
2, 39135, Note_on_c, 0, 67, 0
2, 39150, Note_on_c, 0, 75, 80
2, 39152, Note_on_c, 0, 63, 80
2, 39181, Note_on_c, 0, 63, 0
2, 39181, Note_on_c, 0, 75, 0
2, 39188, Note_on_c, 0, 61, 80
2, 39188, Note_on_c, 0, 77, 80
2, 39190, Note_on_c, 0, 51, 80
2, 39190, Note_on_c, 0, 55, 80
2, 39190, Note_on_c, 0, 65, 80
2, 39210, Note_on_c, 0, 55, 0
2, 39210, Note_on_c, 0, 51, 0
2, 39210, Note_on_c, 0, 61, 0
2, 39257, Note_on_c, 0, 77, 0
2, 39257, Note_on_c, 0, 65, 0
2, 39262, Note_on_c, 0, 67, 80
2, 39262, Note_on_c, 0, 79, 80
2, 39293, Note_on_c, 0, 79, 0
2, 39293, Note_on_c, 0, 67, 0
2, 39298, Note_on_c, 0, 44, 80
2, 39298, Note_on_c, 0, 56, 80
2, 39298, Note_on_c, 0, 68, 80
2, 39298, Note_on_c, 0, 72, 80
2, 39298, Note_on_c, 0, 75, 80
2, 39298, Note_on_c, 0, 80, 80
2, 39336, Note_on_c, 0, 56, 0
2, 39336, Note_on_c, 0, 44, 0
2, 39363, Note_on_c, 0, 75, 0
2, 39363, Note_on_c, 0, 68, 0
2, 39363, Note_on_c, 0, 80, 0
2, 39365, Note_on_c, 0, 72, 0
2, 39370, Note_on_c, 0, 70, 80
2, 39370, Note_on_c, 0, 82, 80
2, 39401, Note_on_c, 0, 82, 0
2, 39401, Note_on_c, 0, 70, 0
2, 39408, Note_on_c, 0, 51, 80
2, 39408, Note_on_c, 0, 56, 80
2, 39408, Note_on_c, 0, 60, 80
2, 39408, Note_on_c, 0, 72, 80
2, 39408, Note_on_c, 0, 84, 80
2, 39430, Note_on_c, 0, 60, 0
2, 39430, Note_on_c, 0, 51, 0
2, 39430, Note_on_c, 0, 56, 0
2, 39438, Note_on_c, 0, 72, 0
2, 39438, Note_on_c, 0, 84, 0
2, 39454, Control_c, 0, 64, 127
2, 39482, Note_on_c, 0, 77, 80
2, 39482, Note_on_c, 0, 84, 80
2, 39482, Note_on_c, 0, 89, 80
2, 39518, Note_on_c, 0, 45, 80
2, 39518, Note_on_c, 0, 57, 80
2, 39576, Control_c, 0, 64, 0
2, 39584, Note_on_c, 0, 89, 0
2, 39584, Note_on_c, 0, 84, 0
2, 39586, Note_on_c, 0, 77, 0
2, 39586, Note_on_c, 0, 45, 0
2, 39586, Note_on_c, 0, 57, 0
2, 39591, Note_on_c, 0, 75, 80
2, 39591, Note_on_c, 0, 87, 80
2, 39622, Note_on_c, 0, 87, 0
2, 39622, Note_on_c, 0, 75, 0
2, 39628, Note_on_c, 0, 54, 80
2, 39628, Note_on_c, 0, 57, 80
2, 39628, Note_on_c, 0, 63, 80
2, 39628, Note_on_c, 0, 72, 80
2, 39628, Note_on_c, 0, 84, 80
2, 39650, Note_on_c, 0, 63, 0
2, 39650, Note_on_c, 0, 54, 0
2, 39650, Note_on_c, 0, 57, 0
2, 39693, Note_on_c, 0, 84, 0
2, 39695, Note_on_c, 0, 72, 0
2, 39699, Note_on_c, 0, 66, 80
2, 39699, Note_on_c, 0, 78, 80
2, 39731, Note_on_c, 0, 78, 0
2, 39731, Note_on_c, 0, 66, 0
2, 39738, Note_on_c, 0, 46, 80
2, 39738, Note_on_c, 0, 58, 80
2, 39738, Note_on_c, 0, 67, 80
2, 39738, Note_on_c, 0, 79, 80
2, 39776, Note_on_c, 0, 58, 0
2, 39776, Note_on_c, 0, 46, 0
2, 39801, Note_on_c, 0, 67, 0
2, 39808, Note_on_c, 0, 70, 80
2, 39808, Note_on_c, 0, 82, 80
2, 39812, Note_on_c, 0, 79, 0
2, 39837, Note_on_c, 0, 82, 0
2, 39839, Note_on_c, 0, 70, 0
2, 39843, Note_on_c, 0, 55, 80
2, 39843, Note_on_c, 0, 58, 80
2, 39843, Note_on_c, 0, 63, 80
2, 39843, Note_on_c, 0, 72, 80
2, 39843, Note_on_c, 0, 84, 80
2, 39865, Note_on_c, 0, 63, 0
2, 39865, Note_on_c, 0, 58, 0
2, 39874, Note_on_c, 0, 72, 0
2, 39876, Note_on_c, 0, 84, 0
2, 39876, Note_on_c, 0, 55, 0
2, 39920, Note_on_c, 0, 75, 80
2, 39920, Note_on_c, 0, 82, 80
2, 39920, Note_on_c, 0, 87, 80
2, 39922, Note_on_c, 0, 79, 80
2, 39958, Note_on_c, 0, 55, 80
2, 39960, Note_on_c, 0, 43, 80
2, 40024, Note_on_c, 0, 79, 0
2, 40024, Note_on_c, 0, 87, 0
2, 40024, Note_on_c, 0, 75, 0
2, 40024, Note_on_c, 0, 82, 0
2, 40029, Note_on_c, 0, 86, 80
2, 40032, Note_on_c, 0, 74, 80
2, 40061, Note_on_c, 0, 86, 0
2, 40063, Note_on_c, 0, 74, 0
2, 40063, Note_on_c, 0, 43, 0
2, 40068, Note_on_c, 0, 42, 80
2, 40068, Note_on_c, 0, 54, 80
2, 40068, Note_on_c, 0, 72, 80
2, 40068, Note_on_c, 0, 75, 80
2, 40068, Note_on_c, 0, 81, 80
2, 40068, Note_on_c, 0, 84, 80
2, 40072, Note_on_c, 0, 55, 0
2, 40137, Note_on_c, 0, 81, 0
2, 40137, Note_on_c, 0, 75, 0
2, 40137, Note_on_c, 0, 72, 0
2, 40137, Note_on_c, 0, 84, 0
2, 40142, Note_on_c, 0, 71, 80
2, 40144, Note_on_c, 0, 83, 80
2, 40175, Note_on_c, 0, 83, 0
2, 40175, Note_on_c, 0, 54, 0
2, 40175, Note_on_c, 0, 42, 0
2, 40175, Note_on_c, 0, 71, 0
2, 40181, Note_on_c, 0, 41, 80
2, 40181, Note_on_c, 0, 53, 80
2, 40181, Note_on_c, 0, 70, 80
2, 40181, Note_on_c, 0, 74, 80
2, 40181, Note_on_c, 0, 80, 80
2, 40181, Note_on_c, 0, 82, 80
2, 40222, Note_on_c, 0, 53, 0
2, 40222, Note_on_c, 0, 41, 0
2, 40250, Note_on_c, 0, 80, 0
2, 40250, Note_on_c, 0, 74, 0
2, 40250, Note_on_c, 0, 82, 0
2, 40250, Note_on_c, 0, 70, 0
2, 40255, Note_on_c, 0, 69, 80
2, 40255, Note_on_c, 0, 81, 80
2, 40287, Note_on_c, 0, 81, 0
2, 40287, Note_on_c, 0, 69, 0
2, 40292, Note_on_c, 0, 58, 80
2, 40292, Note_on_c, 0, 62, 80
2, 40292, Note_on_c, 0, 68, 80
2, 40292, Note_on_c, 0, 80, 80
2, 40294, Note_on_c, 0, 53, 80
2, 40312, Note_on_c, 0, 62, 0
2, 40314, Note_on_c, 0, 58, 0
2, 40314, Note_on_c, 0, 53, 0
2, 40351, Note_on_c, 0, 80, 0
2, 40360, Note_on_c, 0, 68, 0
2, 40367, Note_on_c, 0, 77, 80
2, 40398, Note_on_c, 0, 77, 0
2, 40405, Note_on_c, 0, 46, 80
2, 40405, Note_on_c, 0, 58, 80
2, 40405, Note_on_c, 0, 74, 80
2, 40449, Note_on_c, 0, 58, 0
2, 40449, Note_on_c, 0, 46, 0
2, 40474, Note_on_c, 0, 74, 0
2, 40483, Note_on_c, 0, 70, 80
2, 40513, Note_on_c, 0, 70, 0
2, 40520, Note_on_c, 0, 56, 80
2, 40520, Note_on_c, 0, 58, 80
2, 40520, Note_on_c, 0, 62, 80
2, 40520, Note_on_c, 0, 72, 80
2, 40540, Note_on_c, 0, 62, 0
2, 40540, Note_on_c, 0, 56, 0
2, 40540, Note_on_c, 0, 58, 0
2, 40587, Note_on_c, 0, 72, 0
2, 40594, Note_on_c, 0, 74, 80
2, 40623, Control_c, 0, 64, 127
2, 40625, Note_on_c, 0, 74, 0
2, 40632, Note_on_c, 0, 39, 80
2, 40632, Note_on_c, 0, 51, 80
2, 40632, Note_on_c, 0, 77, 80
2, 40687, Control_c, 0, 64, 0
2, 40696, Note_on_c, 0, 77, 0
2, 40696, Note_on_c, 0, 51, 0
2, 40696, Note_on_c, 0, 39, 0
2, 40701, Note_on_c, 0, 75, 80
2, 40732, Note_on_c, 0, 75, 0
2, 40737, Note_on_c, 0, 55, 80
2, 40737, Note_on_c, 0, 61, 80
2, 40737, Note_on_c, 0, 63, 80
2, 40737, Note_on_c, 0, 73, 80
2, 40759, Note_on_c, 0, 63, 0
2, 40759, Note_on_c, 0, 55, 0
2, 40759, Note_on_c, 0, 61, 0
2, 40803, Note_on_c, 0, 73, 0
2, 40810, Note_on_c, 0, 70, 80
2, 40840, Note_on_c, 0, 70, 0
2, 40847, Note_on_c, 0, 55, 80
2, 40847, Note_on_c, 0, 61, 80
2, 40847, Note_on_c, 0, 63, 80
2, 40847, Note_on_c, 0, 67, 80
2, 40867, Note_on_c, 0, 63, 0
2, 40867, Note_on_c, 0, 55, 0
2, 40867, Note_on_c, 0, 61, 0
2, 40914, Note_on_c, 0, 67, 0
2, 40919, Note_on_c, 0, 63, 80
2, 40919, Note_on_c, 0, 75, 80
2, 40950, Note_on_c, 0, 75, 0
2, 40952, Note_on_c, 0, 63, 0
2, 40957, Note_on_c, 0, 39, 80
2, 40957, Note_on_c, 0, 51, 80
2, 40957, Note_on_c, 0, 65, 80
2, 40957, Note_on_c, 0, 77, 80
2, 41022, Note_on_c, 0, 77, 0
2, 41022, Note_on_c, 0, 65, 0
2, 41029, Note_on_c, 0, 67, 80
2, 41029, Note_on_c, 0, 79, 80
2, 41058, Note_on_c, 0, 67, 0
2, 41058, Note_on_c, 0, 39, 0
2, 41058, Note_on_c, 0, 51, 0
2, 41064, Note_on_c, 0, 44, 80
2, 41064, Note_on_c, 0, 56, 80
2, 41064, Note_on_c, 0, 68, 80
2, 41064, Note_on_c, 0, 72, 80
2, 41064, Note_on_c, 0, 75, 80
2, 41064, Note_on_c, 0, 80, 80
2, 41067, Note_on_c, 0, 79, 0
2, 41103, Note_on_c, 0, 44, 0
2, 41103, Note_on_c, 0, 56, 0
2, 41130, Note_on_c, 0, 72, 0
2, 41130, Note_on_c, 0, 68, 0
2, 41130, Note_on_c, 0, 75, 0
2, 41130, Note_on_c, 0, 80, 0
2, 41136, Note_on_c, 0, 70, 80
2, 41136, Note_on_c, 0, 82, 80
2, 41166, Note_on_c, 0, 82, 0
2, 41166, Note_on_c, 0, 70, 0
2, 41173, Note_on_c, 0, 51, 80
2, 41173, Note_on_c, 0, 56, 80
2, 41173, Note_on_c, 0, 60, 80
2, 41173, Note_on_c, 0, 72, 80
2, 41173, Note_on_c, 0, 84, 80
2, 41196, Note_on_c, 0, 60, 0
2, 41196, Note_on_c, 0, 51, 0
2, 41196, Note_on_c, 0, 56, 0
2, 41205, Note_on_c, 0, 84, 0
2, 41207, Note_on_c, 0, 72, 0
2, 41254, Note_on_c, 0, 77, 80
2, 41254, Note_on_c, 0, 84, 80
2, 41254, Note_on_c, 0, 89, 80
2, 41290, Note_on_c, 0, 60, 80
2, 41292, Note_on_c, 0, 48, 80
2, 41328, Note_on_c, 0, 48, 0
2, 41328, Note_on_c, 0, 60, 0
2, 41357, Note_on_c, 0, 77, 0
2, 41357, Note_on_c, 0, 84, 0
2, 41357, Note_on_c, 0, 89, 0
2, 41364, Note_on_c, 0, 75, 80
2, 41364, Note_on_c, 0, 87, 80
2, 41394, Note_on_c, 0, 87, 0
2, 41394, Note_on_c, 0, 75, 0
2, 41400, Note_on_c, 0, 51, 80
2, 41400, Note_on_c, 0, 56, 80
2, 41400, Note_on_c, 0, 60, 80
2, 41400, Note_on_c, 0, 72, 80
2, 41400, Note_on_c, 0, 84, 80
2, 41423, Note_on_c, 0, 60, 0
2, 41423, Note_on_c, 0, 51, 0
2, 41423, Note_on_c, 0, 56, 0
2, 41468, Note_on_c, 0, 72, 0
2, 41468, Note_on_c, 0, 84, 0
2, 41474, Note_on_c, 0, 68, 80
2, 41474, Note_on_c, 0, 80, 80
2, 41503, Note_on_c, 0, 68, 0
2, 41505, Note_on_c, 0, 80, 0
2, 41512, Note_on_c, 0, 46, 80
2, 41512, Note_on_c, 0, 58, 80
2, 41512, Note_on_c, 0, 67, 80
2, 41512, Note_on_c, 0, 73, 80
2, 41512, Note_on_c, 0, 75, 80
2, 41512, Note_on_c, 0, 79, 80
2, 41548, Note_on_c, 0, 58, 0
2, 41548, Note_on_c, 0, 46, 0
2, 41577, Note_on_c, 0, 75, 0
2, 41577, Note_on_c, 0, 73, 0
2, 41577, Note_on_c, 0, 79, 0
2, 41577, Note_on_c, 0, 67, 0
2, 41617, Note_on_c, 0, 51, 80
2, 41617, Note_on_c, 0, 55, 80
2, 41617, Note_on_c, 0, 61, 80
2, 41619, Note_on_c, 0, 77, 80
2, 41640, Note_on_c, 0, 61, 0
2, 41640, Note_on_c, 0, 51, 0
2, 41640, Note_on_c, 0, 55, 0
2, 41648, Note_on_c, 0, 77, 0
2, 41691, Note_on_c, 0, 67, 80
2, 41691, Note_on_c, 0, 73, 80
2, 41691, Note_on_c, 0, 75, 80
2, 41727, Note_on_c, 0, 39, 80
2, 41727, Note_on_c, 0, 51, 80
2, 41757, Note_on_c, 0, 75, 0
2, 41765, Note_on_c, 0, 39, 0
2, 41765, Note_on_c, 0, 51, 0
2, 41790, Note_on_c, 0, 73, 0
2, 41790, Note_on_c, 0, 67, 0
2, 41797, Note_on_c, 0, 63, 80
2, 41797, Note_on_c, 0, 75, 80
2, 41826, Note_on_c, 0, 75, 0
2, 41826, Note_on_c, 0, 63, 0
2, 41832, Note_on_c, 0, 51, 80
2, 41832, Note_on_c, 0, 55, 80
2, 41832, Note_on_c, 0, 61, 80
2, 41832, Note_on_c, 0, 65, 80
2, 41832, Note_on_c, 0, 77, 80
2, 41855, Note_on_c, 0, 61, 0
2, 41855, Note_on_c, 0, 51, 0
2, 41855, Note_on_c, 0, 55, 0
2, 41898, Note_on_c, 0, 77, 0
2, 41900, Note_on_c, 0, 65, 0
2, 41904, Note_on_c, 0, 67, 80
2, 41904, Note_on_c, 0, 79, 80
2, 41934, Note_on_c, 0, 79, 0
2, 41934, Note_on_c, 0, 67, 0
2, 41939, Note_on_c, 0, 56, 80
2, 41939, Note_on_c, 0, 68, 80
2, 41939, Note_on_c, 0, 80, 80
2, 41941, Note_on_c, 0, 44, 80
2, 41959, Control_c, 0, 64, 127
2, 41979, Note_on_c, 0, 44, 0
2, 41979, Note_on_c, 0, 56, 0
2, 42008, Note_on_c, 0, 80, 0
2, 42008, Note_on_c, 0, 68, 0
2, 42015, Note_on_c, 0, 70, 80
2, 42015, Note_on_c, 0, 82, 80
2, 42028, Control_c, 0, 64, 0
2, 42045, Note_on_c, 0, 82, 0
2, 42047, Note_on_c, 0, 70, 0
2, 42051, Note_on_c, 0, 84, 80
2, 42053, Note_on_c, 0, 56, 80
2, 42053, Note_on_c, 0, 60, 80
2, 42053, Note_on_c, 0, 66, 80
2, 42053, Note_on_c, 0, 72, 80
2, 42073, Note_on_c, 0, 66, 0
2, 42073, Note_on_c, 0, 60, 0
2, 42073, Note_on_c, 0, 56, 0
2, 42083, Note_on_c, 0, 84, 0
2, 42083, Note_on_c, 0, 72, 0
2, 42125, Note_on_c, 0, 77, 80
2, 42125, Note_on_c, 0, 84, 80
2, 42125, Note_on_c, 0, 89, 80
2, 42164, Note_on_c, 0, 46, 80
2, 42164, Note_on_c, 0, 58, 80
2, 42233, Note_on_c, 0, 89, 0
2, 42233, Note_on_c, 0, 77, 0
2, 42233, Note_on_c, 0, 84, 0
2, 42240, Note_on_c, 0, 75, 80
2, 42240, Note_on_c, 0, 87, 80
2, 42269, Note_on_c, 0, 87, 0
2, 42271, Note_on_c, 0, 58, 0
2, 42271, Note_on_c, 0, 46, 0
2, 42271, Note_on_c, 0, 75, 0
2, 42276, Note_on_c, 0, 48, 80
2, 42276, Note_on_c, 0, 60, 80
2, 42276, Note_on_c, 0, 78, 80
2, 42276, Note_on_c, 0, 82, 80
2, 42343, Note_on_c, 0, 82, 0
2, 42345, Note_on_c, 0, 78, 0
2, 42352, Note_on_c, 0, 84, 80
2, 42381, Note_on_c, 0, 84, 0
2, 42381, Note_on_c, 0, 60, 0
2, 42383, Note_on_c, 0, 48, 0
2, 42387, Note_on_c, 0, 61, 80
2, 42387, Note_on_c, 0, 77, 80
2, 42389, Note_on_c, 0, 49, 80
2, 42389, Note_on_c, 0, 82, 80
2, 42458, Note_on_c, 0, 82, 0
2, 42458, Note_on_c, 0, 61, 0
2, 42458, Note_on_c, 0, 77, 0
2, 42458, Note_on_c, 0, 49, 0
2, 42502, Note_on_c, 0, 56, 80
2, 42502, Note_on_c, 0, 61, 80
2, 42502, Note_on_c, 0, 65, 80
2, 42502, Note_on_c, 0, 73, 80
2, 42502, Note_on_c, 0, 77, 80
2, 42524, Note_on_c, 0, 65, 0
2, 42524, Note_on_c, 0, 56, 0
2, 42524, Note_on_c, 0, 61, 0
2, 42532, Note_on_c, 0, 73, 0
2, 42532, Note_on_c, 0, 77, 0
2, 42576, Note_on_c, 0, 77, 80
2, 42576, Note_on_c, 0, 80, 80
2, 42611, Note_on_c, 0, 56, 80
2, 42611, Note_on_c, 0, 61, 80
2, 42613, Note_on_c, 0, 65, 80
2, 42633, Note_on_c, 0, 65, 0
2, 42633, Note_on_c, 0, 56, 0
2, 42633, Note_on_c, 0, 61, 0
2, 42678, Note_on_c, 0, 80, 0
2, 42678, Note_on_c, 0, 77, 0
2, 42721, Note_on_c, 0, 65, 80
2, 42721, Note_on_c, 0, 77, 80
2, 42787, Note_on_c, 0, 77, 0
2, 42787, Note_on_c, 0, 65, 0
2, 42793, Note_on_c, 0, 67, 80
2, 42793, Note_on_c, 0, 79, 80
2, 42822, Note_on_c, 0, 79, 0
2, 42822, Note_on_c, 0, 67, 0
2, 42827, Note_on_c, 0, 80, 80
2, 42829, Note_on_c, 0, 41, 80
2, 42829, Note_on_c, 0, 68, 80
2, 42831, Note_on_c, 0, 53, 80
2, 42867, Note_on_c, 0, 41, 0
2, 42869, Note_on_c, 0, 53, 0
2, 42894, Note_on_c, 0, 68, 0
2, 42894, Note_on_c, 0, 80, 0
2, 42899, Note_on_c, 0, 71, 80
2, 42931, Note_on_c, 0, 71, 0
2, 42936, Note_on_c, 0, 56, 80
2, 42936, Note_on_c, 0, 59, 80
2, 42936, Note_on_c, 0, 62, 80
2, 42936, Note_on_c, 0, 74, 80
2, 42958, Note_on_c, 0, 62, 0
2, 42960, Note_on_c, 0, 56, 0
2, 42960, Note_on_c, 0, 59, 0
2, 42966, Note_on_c, 0, 74, 0
2, 43011, Note_on_c, 0, 65, 80
2, 43011, Note_on_c, 0, 71, 80
2, 43011, Note_on_c, 0, 77, 80
2, 43040, Control_c, 0, 64, 127
2, 43050, Note_on_c, 0, 38, 80
2, 43050, Note_on_c, 0, 50, 80
2, 43105, Control_c, 0, 64, 0
2, 43114, Note_on_c, 0, 77, 0
2, 43114, Note_on_c, 0, 65, 0
2, 43114, Note_on_c, 0, 71, 0
2, 43119, Note_on_c, 0, 68, 80
2, 43119, Note_on_c, 0, 80, 80
2, 43149, Note_on_c, 0, 80, 0
2, 43149, Note_on_c, 0, 68, 0
2, 43155, Note_on_c, 0, 56, 80
2, 43155, Note_on_c, 0, 59, 80
2, 43155, Note_on_c, 0, 62, 80
2, 43155, Note_on_c, 0, 67, 80
2, 43155, Note_on_c, 0, 79, 80
2, 43178, Note_on_c, 0, 62, 0
2, 43178, Note_on_c, 0, 59, 0
2, 43178, Note_on_c, 0, 56, 0
2, 43222, Note_on_c, 0, 67, 0
2, 43222, Note_on_c, 0, 79, 0
2, 43228, Note_on_c, 0, 77, 80
2, 43230, Note_on_c, 0, 65, 80
2, 43242, Note_on_c, 0, 65, 0
2, 43242, Note_on_c, 0, 77, 0
2, 43262, Note_on_c, 0, 50, 0
2, 43262, Note_on_c, 0, 38, 0
2, 43264, Note_on_c, 0, 77, 80
2, 43266, Note_on_c, 0, 39, 80
2, 43266, Note_on_c, 0, 65, 80
2, 43266, Note_on_c, 0, 72, 80
2, 43268, Note_on_c, 0, 51, 80
2, 43306, Note_on_c, 0, 72, 0
2, 43308, Note_on_c, 0, 65, 0
2, 43308, Note_on_c, 0, 77, 0
2, 43308, Note_on_c, 0, 39, 0
2, 43308, Note_on_c, 0, 51, 0
2, 43378, Note_on_c, 0, 56, 80
2, 43378, Note_on_c, 0, 60, 80
2, 43378, Note_on_c, 0, 63, 80
2, 43378, Note_on_c, 0, 68, 80
2, 43378, Note_on_c, 0, 72, 80
2, 43400, Note_on_c, 0, 63, 0
2, 43400, Note_on_c, 0, 56, 0
2, 43400, Note_on_c, 0, 60, 0
2, 43409, Note_on_c, 0, 68, 0
2, 43409, Note_on_c, 0, 72, 0
2, 43452, Note_on_c, 0, 72, 80
2, 43452, Note_on_c, 0, 75, 80
2, 43488, Note_on_c, 0, 29, 80
2, 43488, Note_on_c, 0, 41, 80
2, 43525, Note_on_c, 0, 41, 0
2, 43525, Note_on_c, 0, 29, 0
2, 43552, Note_on_c, 0, 75, 0
2, 43552, Note_on_c, 0, 72, 0
2, 43557, Note_on_c, 0, 77, 80
2, 43585, Note_on_c, 0, 77, 0
2, 43590, Note_on_c, 0, 57, 80
2, 43590, Note_on_c, 0, 63, 80
2, 43590, Note_on_c, 0, 75, 80
2, 43592, Note_on_c, 0, 53, 80
2, 43612, Note_on_c, 0, 63, 0
2, 43612, Note_on_c, 0, 57, 0
2, 43614, Note_on_c, 0, 53, 0
2, 43656, Note_on_c, 0, 75, 0
2, 43663, Note_on_c, 0, 72, 80
2, 43693, Note_on_c, 0, 72, 0
2, 43698, Note_on_c, 0, 73, 80
2, 43700, Note_on_c, 0, 34, 80
2, 43700, Note_on_c, 0, 46, 80
2, 43700, Note_on_c, 0, 70, 80
2, 43738, Note_on_c, 0, 46, 0
2, 43738, Note_on_c, 0, 34, 0
2, 43765, Note_on_c, 0, 73, 0
2, 43765, Note_on_c, 0, 70, 0
2, 43770, Note_on_c, 0, 75, 80
2, 43800, Note_on_c, 0, 75, 0
2, 43806, Note_on_c, 0, 58, 80
2, 43806, Note_on_c, 0, 61, 80
2, 43806, Note_on_c, 0, 77, 80
2, 43808, Note_on_c, 0, 53, 80
2, 43826, Note_on_c, 0, 61, 0
2, 43826, Note_on_c, 0, 58, 0
2, 43829, Note_on_c, 0, 53, 0
2, 43834, Note_on_c, 0, 77, 0
2, 43877, Note_on_c, 0, 65, 80
2, 43913, Note_on_c, 0, 39, 80
2, 43913, Note_on_c, 0, 51, 80
2, 43951, Note_on_c, 0, 51, 0
2, 43953, Note_on_c, 0, 39, 0
2, 43982, Note_on_c, 0, 65, 0
2, 43987, Note_on_c, 0, 72, 80
2, 44018, Note_on_c, 0, 72, 0
2, 44025, Note_on_c, 0, 39, 80
2, 44025, Note_on_c, 0, 51, 80
2, 44025, Note_on_c, 0, 61, 80
2, 44025, Note_on_c, 0, 67, 80
2, 44025, Note_on_c, 0, 70, 80
2, 44092, Note_on_c, 0, 51, 0
2, 44126, Note_on_c, 0, 67, 0
2, 44126, Note_on_c, 0, 70, 0
2, 44128, Note_on_c, 0, 61, 0
2, 44128, Note_on_c, 0, 39, 0
2, 44133, Note_on_c, 0, 60, 80
2, 44133, Note_on_c, 0, 63, 80
2, 44133, Note_on_c, 0, 68, 80
2, 44135, Note_on_c, 0, 44, 80
2, 44135, Note_on_c, 0, 51, 80
2, 44173, Note_on_c, 0, 51, 0
2, 44173, Note_on_c, 0, 68, 0
2, 44173, Note_on_c, 0, 60, 0
2, 44173, Note_on_c, 0, 63, 0
2, 44173, Note_on_c, 0, 44, 0
2, 44238, Note_on_c, 0, 74, 80
2, 44248, Note_on_c, 0, 75, 80
2, 44251, Note_on_c, 0, 74, 0
2, 44287, Note_on_c, 0, 75, 0
2, 44350, Note_on_c, 0, 74, 80
2, 44361, Note_on_c, 0, 75, 80
2, 44363, Note_on_c, 0, 74, 0
2, 44392, Note_on_c, 0, 75, 0
2, 44434, Note_on_c, 0, 75, 80
2, 44436, Note_on_c, 0, 63, 80
2, 44466, Note_on_c, 0, 63, 0
2, 44466, Note_on_c, 0, 75, 0
2, 44472, Note_on_c, 0, 51, 80
2, 44472, Note_on_c, 0, 55, 80
2, 44472, Note_on_c, 0, 61, 80
2, 44472, Note_on_c, 0, 65, 80
2, 44472, Note_on_c, 0, 77, 80
2, 44495, Note_on_c, 0, 61, 0
2, 44495, Note_on_c, 0, 51, 0
2, 44495, Note_on_c, 0, 55, 0
2, 44531, Note_on_c, 0, 65, 0
2, 44531, Note_on_c, 0, 77, 0
2, 44546, Note_on_c, 0, 67, 80
2, 44546, Note_on_c, 0, 79, 80
2, 44578, Note_on_c, 0, 67, 0
2, 44583, Note_on_c, 0, 56, 80
2, 44583, Note_on_c, 0, 72, 80
2, 44583, Note_on_c, 0, 75, 80
2, 44583, Note_on_c, 0, 80, 80
2, 44585, Note_on_c, 0, 44, 80
2, 44585, Note_on_c, 0, 68, 80
2, 44587, Note_on_c, 0, 79, 0
2, 44622, Note_on_c, 0, 56, 0
2, 44622, Note_on_c, 0, 44, 0
2, 44647, Note_on_c, 0, 80, 0
2, 44647, Note_on_c, 0, 75, 0
2, 44647, Note_on_c, 0, 72, 0
2, 44647, Note_on_c, 0, 68, 0
2, 44652, Note_on_c, 0, 82, 80
2, 44654, Note_on_c, 0, 70, 80
2, 44683, Note_on_c, 0, 70, 0
2, 44683, Note_on_c, 0, 82, 0
2, 44688, Note_on_c, 0, 72, 80
2, 44688, Note_on_c, 0, 84, 80
2, 44689, Note_on_c, 0, 51, 80
2, 44689, Note_on_c, 0, 56, 80
2, 44689, Note_on_c, 0, 60, 80
2, 44710, Note_on_c, 0, 60, 0
2, 44712, Note_on_c, 0, 51, 0
2, 44712, Note_on_c, 0, 56, 0
2, 44720, Note_on_c, 0, 84, 0
2, 44720, Note_on_c, 0, 72, 0
2, 44762, Note_on_c, 0, 84, 80
2, 44762, Note_on_c, 0, 89, 80
2, 44764, Note_on_c, 0, 77, 80
2, 44794, Control_c, 0, 64, 127
2, 44799, Note_on_c, 0, 60, 80
2, 44801, Note_on_c, 0, 48, 80
2, 44839, Note_on_c, 0, 60, 0
2, 44841, Note_on_c, 0, 48, 0
2, 44859, Control_c, 0, 64, 0
2, 44864, Note_on_c, 0, 84, 0
2, 44864, Note_on_c, 0, 89, 0
2, 44866, Note_on_c, 0, 77, 0
2, 44871, Note_on_c, 0, 75, 80
2, 44871, Note_on_c, 0, 87, 80
2, 44903, Note_on_c, 0, 87, 0
2, 44903, Note_on_c, 0, 75, 0
2, 44907, Note_on_c, 0, 72, 80
2, 44907, Note_on_c, 0, 84, 80
2, 44909, Note_on_c, 0, 51, 80
2, 44909, Note_on_c, 0, 56, 80
2, 44909, Note_on_c, 0, 60, 80
2, 44929, Note_on_c, 0, 60, 0
2, 44929, Note_on_c, 0, 51, 0
2, 44929, Note_on_c, 0, 56, 0
2, 44976, Note_on_c, 0, 84, 0
2, 44976, Note_on_c, 0, 72, 0
2, 44983, Note_on_c, 0, 68, 80
2, 44983, Note_on_c, 0, 80, 80
2, 45013, Note_on_c, 0, 80, 0
2, 45015, Note_on_c, 0, 68, 0
2, 45020, Note_on_c, 0, 75, 80
2, 45020, Note_on_c, 0, 79, 80
2, 45022, Note_on_c, 0, 46, 80
2, 45022, Note_on_c, 0, 58, 80
2, 45022, Note_on_c, 0, 67, 80
2, 45022, Note_on_c, 0, 73, 80
2, 45060, Note_on_c, 0, 58, 0
2, 45062, Note_on_c, 0, 46, 0
2, 45085, Note_on_c, 0, 67, 0
2, 45085, Note_on_c, 0, 75, 0
2, 45085, Note_on_c, 0, 73, 0
2, 45085, Note_on_c, 0, 79, 0
2, 45128, Note_on_c, 0, 55, 80
2, 45128, Note_on_c, 0, 61, 80
2, 45128, Note_on_c, 0, 77, 80
2, 45130, Note_on_c, 0, 51, 80
2, 45150, Note_on_c, 0, 51, 0
2, 45150, Note_on_c, 0, 55, 0
2, 45150, Note_on_c, 0, 61, 0
2, 45159, Note_on_c, 0, 77, 0
2, 45202, Note_on_c, 0, 67, 80
2, 45202, Note_on_c, 0, 73, 80
2, 45202, Note_on_c, 0, 75, 80
2, 45234, Control_c, 0, 64, 127
2, 45240, Note_on_c, 0, 39, 80
2, 45240, Note_on_c, 0, 51, 80
2, 45270, Note_on_c, 0, 75, 0
2, 45279, Note_on_c, 0, 39, 0
2, 45279, Note_on_c, 0, 51, 0
2, 45299, Control_c, 0, 64, 0
2, 45306, Note_on_c, 0, 73, 0
2, 45306, Note_on_c, 0, 67, 0
2, 45312, Note_on_c, 0, 63, 80
2, 45312, Note_on_c, 0, 75, 80
2, 45342, Note_on_c, 0, 75, 0
2, 45344, Note_on_c, 0, 63, 0
2, 45351, Note_on_c, 0, 51, 80
2, 45351, Note_on_c, 0, 55, 80
2, 45351, Note_on_c, 0, 61, 80
2, 45351, Note_on_c, 0, 65, 80
2, 45351, Note_on_c, 0, 77, 80
2, 45371, Note_on_c, 0, 61, 0
2, 45371, Note_on_c, 0, 51, 0
2, 45381, Note_on_c, 0, 55, 0
2, 45414, Note_on_c, 0, 77, 0
2, 45416, Note_on_c, 0, 65, 0
2, 45421, Note_on_c, 0, 79, 80
2, 45423, Note_on_c, 0, 67, 80
2, 45452, Note_on_c, 0, 67, 0
2, 45452, Note_on_c, 0, 79, 0
2, 45456, Note_on_c, 0, 80, 80
2, 45458, Note_on_c, 0, 56, 80
2, 45458, Note_on_c, 0, 68, 80
2, 45460, Note_on_c, 0, 44, 80
2, 45499, Note_on_c, 0, 44, 0
2, 45499, Note_on_c, 0, 56, 0
2, 45526, Note_on_c, 0, 80, 0
2, 45528, Note_on_c, 0, 68, 0
2, 45530, Note_on_c, 0, 70, 80
2, 45530, Note_on_c, 0, 82, 80
2, 45562, Note_on_c, 0, 82, 0
2, 45562, Note_on_c, 0, 70, 0
2, 45567, Note_on_c, 0, 72, 80
2, 45567, Note_on_c, 0, 84, 80
2, 45569, Note_on_c, 0, 51, 80
2, 45569, Note_on_c, 0, 56, 80
2, 45569, Note_on_c, 0, 60, 80
2, 45587, Note_on_c, 0, 60, 0
2, 45587, Note_on_c, 0, 56, 0
2, 45589, Note_on_c, 0, 51, 0
2, 45596, Note_on_c, 0, 84, 0
2, 45598, Note_on_c, 0, 72, 0
2, 45638, Note_on_c, 0, 84, 80
2, 45638, Note_on_c, 0, 89, 80
2, 45640, Note_on_c, 0, 77, 80
2, 45670, Control_c, 0, 64, 127
2, 45676, Note_on_c, 0, 48, 80
2, 45676, Note_on_c, 0, 60, 80
2, 45713, Note_on_c, 0, 60, 0
2, 45715, Note_on_c, 0, 48, 0
2, 45733, Control_c, 0, 64, 0
2, 45738, Note_on_c, 0, 84, 0
2, 45738, Note_on_c, 0, 89, 0
2, 45738, Note_on_c, 0, 77, 0
2, 45743, Note_on_c, 0, 87, 80
2, 45744, Note_on_c, 0, 75, 80
2, 45773, Note_on_c, 0, 87, 0
2, 45775, Note_on_c, 0, 75, 0
2, 45780, Note_on_c, 0, 72, 80
2, 45780, Note_on_c, 0, 84, 80
2, 45782, Note_on_c, 0, 51, 80
2, 45782, Note_on_c, 0, 56, 80
2, 45782, Note_on_c, 0, 60, 80
2, 45802, Note_on_c, 0, 60, 0
2, 45802, Note_on_c, 0, 56, 0
2, 45804, Note_on_c, 0, 51, 0
2, 45847, Note_on_c, 0, 84, 0
2, 45847, Note_on_c, 0, 72, 0
2, 45852, Note_on_c, 0, 80, 80
2, 45854, Note_on_c, 0, 68, 80
2, 45883, Note_on_c, 0, 68, 0
2, 45883, Note_on_c, 0, 80, 0
2, 45889, Note_on_c, 0, 46, 80
2, 45889, Note_on_c, 0, 58, 80
2, 45889, Note_on_c, 0, 67, 80
2, 45889, Note_on_c, 0, 73, 80
2, 45889, Note_on_c, 0, 75, 80
2, 45889, Note_on_c, 0, 79, 80
2, 45928, Note_on_c, 0, 58, 0
2, 45928, Note_on_c, 0, 46, 0
2, 45953, Note_on_c, 0, 75, 0
2, 45953, Note_on_c, 0, 73, 0
2, 45953, Note_on_c, 0, 79, 0
2, 45953, Note_on_c, 0, 67, 0
2, 45998, Note_on_c, 0, 51, 80
2, 45998, Note_on_c, 0, 55, 80
2, 45998, Note_on_c, 0, 61, 80
2, 45998, Note_on_c, 0, 77, 80
2, 46018, Note_on_c, 0, 61, 0
2, 46018, Note_on_c, 0, 51, 0
2, 46018, Note_on_c, 0, 55, 0
2, 46027, Note_on_c, 0, 77, 0
2, 46074, Note_on_c, 0, 67, 80
2, 46074, Note_on_c, 0, 73, 80
2, 46074, Note_on_c, 0, 75, 80
2, 46110, Note_on_c, 0, 51, 80
2, 46112, Note_on_c, 0, 39, 80
2, 46139, Note_on_c, 0, 75, 0
2, 46152, Note_on_c, 0, 51, 0
2, 46152, Note_on_c, 0, 39, 0
2, 46169, Note_on_c, 0, 73, 0
2, 46169, Note_on_c, 0, 67, 0
2, 46185, Note_on_c, 0, 63, 80
2, 46185, Note_on_c, 0, 75, 80
2, 46215, Note_on_c, 0, 75, 0
2, 46217, Note_on_c, 0, 63, 0
2, 46220, Note_on_c, 0, 77, 80
2, 46222, Note_on_c, 0, 55, 80
2, 46222, Note_on_c, 0, 61, 80
2, 46222, Note_on_c, 0, 65, 80
2, 46224, Note_on_c, 0, 51, 80
2, 46244, Note_on_c, 0, 51, 0
2, 46244, Note_on_c, 0, 61, 0
2, 46252, Note_on_c, 0, 55, 0
2, 46289, Note_on_c, 0, 77, 0
2, 46291, Note_on_c, 0, 65, 0
2, 46296, Note_on_c, 0, 67, 80
2, 46296, Note_on_c, 0, 79, 80
2, 46327, Note_on_c, 0, 79, 0
2, 46327, Note_on_c, 0, 67, 0
2, 46334, Note_on_c, 0, 56, 80
2, 46334, Note_on_c, 0, 68, 80
2, 46334, Note_on_c, 0, 72, 80
2, 46334, Note_on_c, 0, 75, 80
2, 46334, Note_on_c, 0, 80, 80
2, 46336, Note_on_c, 0, 44, 80
2, 46372, Note_on_c, 0, 44, 0
2, 46372, Note_on_c, 0, 56, 0
2, 46399, Note_on_c, 0, 75, 0
2, 46399, Note_on_c, 0, 68, 0
2, 46399, Note_on_c, 0, 72, 0
2, 46399, Note_on_c, 0, 80, 0
2, 46404, Note_on_c, 0, 70, 80
2, 46404, Note_on_c, 0, 82, 80
2, 46434, Note_on_c, 0, 82, 0
2, 46436, Note_on_c, 0, 70, 0
2, 46442, Note_on_c, 0, 60, 80
2, 46442, Note_on_c, 0, 72, 80
2, 46442, Note_on_c, 0, 84, 80
2, 46444, Note_on_c, 0, 51, 80
2, 46444, Note_on_c, 0, 56, 80
2, 46464, Note_on_c, 0, 60, 0
2, 46466, Note_on_c, 0, 51, 0
2, 46466, Note_on_c, 0, 56, 0
2, 46475, Note_on_c, 0, 84, 0
2, 46475, Note_on_c, 0, 72, 0
2, 46517, Note_on_c, 0, 89, 80
2, 46519, Note_on_c, 0, 77, 80
2, 46519, Note_on_c, 0, 84, 80
2, 46558, Note_on_c, 0, 45, 80
2, 46558, Note_on_c, 0, 57, 80
2, 46576, Control_c, 0, 64, 127
2, 46614, Control_c, 0, 64, 0
2, 46621, Note_on_c, 0, 57, 0
2, 46621, Note_on_c, 0, 89, 0
2, 46621, Note_on_c, 0, 84, 0
2, 46621, Note_on_c, 0, 77, 0
2, 46623, Note_on_c, 0, 45, 0
2, 46626, Note_on_c, 0, 87, 80
2, 46628, Note_on_c, 0, 75, 80
2, 46657, Note_on_c, 0, 75, 0
2, 46657, Note_on_c, 0, 87, 0
2, 46664, Note_on_c, 0, 57, 80
2, 46664, Note_on_c, 0, 63, 80
2, 46664, Note_on_c, 0, 72, 80
2, 46664, Note_on_c, 0, 84, 80
2, 46666, Note_on_c, 0, 54, 80
2, 46684, Note_on_c, 0, 54, 0
2, 46684, Note_on_c, 0, 57, 0
2, 46684, Note_on_c, 0, 63, 0
2, 46728, Note_on_c, 0, 72, 0
2, 46728, Note_on_c, 0, 84, 0
2, 46734, Note_on_c, 0, 78, 80
2, 46736, Note_on_c, 0, 66, 80
2, 46763, Note_on_c, 0, 66, 0
2, 46763, Note_on_c, 0, 78, 0
2, 46770, Note_on_c, 0, 67, 80
2, 46770, Note_on_c, 0, 79, 80
2, 46772, Note_on_c, 0, 46, 80
2, 46772, Note_on_c, 0, 58, 80
2, 46812, Note_on_c, 0, 58, 0
2, 46814, Note_on_c, 0, 46, 0
2, 46843, Note_on_c, 0, 67, 0
2, 46846, Note_on_c, 0, 82, 80
2, 46848, Note_on_c, 0, 70, 80
2, 46849, Note_on_c, 0, 79, 0
2, 46876, Note_on_c, 0, 82, 0
2, 46878, Note_on_c, 0, 70, 0
2, 46883, Note_on_c, 0, 58, 80
2, 46883, Note_on_c, 0, 63, 80
2, 46883, Note_on_c, 0, 72, 80
2, 46883, Note_on_c, 0, 84, 80
2, 46885, Note_on_c, 0, 55, 80
2, 46905, Note_on_c, 0, 63, 0
2, 46905, Note_on_c, 0, 58, 0
2, 46914, Note_on_c, 0, 84, 0
2, 46914, Note_on_c, 0, 72, 0
2, 46916, Note_on_c, 0, 55, 0
2, 46954, Note_on_c, 0, 87, 80
2, 46956, Note_on_c, 0, 75, 80
2, 46956, Note_on_c, 0, 79, 80
2, 46956, Note_on_c, 0, 82, 80
2, 46988, Control_c, 0, 64, 127
2, 46996, Note_on_c, 0, 43, 80
2, 46996, Note_on_c, 0, 55, 80
2, 47055, Control_c, 0, 64, 0
2, 47060, Note_on_c, 0, 82, 0
2, 47060, Note_on_c, 0, 79, 0
2, 47060, Note_on_c, 0, 87, 0
2, 47060, Note_on_c, 0, 75, 0
2, 47066, Note_on_c, 0, 86, 80
2, 47066, Note_on_c, 0, 74, 80
2, 47095, Note_on_c, 0, 74, 0
2, 47095, Note_on_c, 0, 86, 0
2, 47097, Note_on_c, 0, 43, 0
2, 47102, Note_on_c, 0, 72, 80
2, 47102, Note_on_c, 0, 75, 80
2, 47102, Note_on_c, 0, 81, 80
2, 47102, Note_on_c, 0, 84, 80
2, 47104, Note_on_c, 0, 54, 80
2, 47106, Note_on_c, 0, 42, 80
2, 47108, Note_on_c, 0, 55, 0
2, 47169, Note_on_c, 0, 84, 0
2, 47169, Note_on_c, 0, 72, 0
2, 47169, Note_on_c, 0, 81, 0
2, 47169, Note_on_c, 0, 75, 0
2, 47174, Note_on_c, 0, 83, 80
2, 47176, Note_on_c, 0, 71, 80
2, 47205, Note_on_c, 0, 71, 0
2, 47205, Note_on_c, 0, 83, 0
2, 47207, Note_on_c, 0, 42, 0
2, 47207, Note_on_c, 0, 54, 0
2, 47209, Note_on_c, 0, 80, 80
2, 47209, Note_on_c, 0, 82, 80
2, 47211, Note_on_c, 0, 41, 80
2, 47211, Note_on_c, 0, 53, 80
2, 47211, Note_on_c, 0, 70, 80
2, 47211, Note_on_c, 0, 74, 80
2, 47252, Note_on_c, 0, 53, 0
2, 47252, Note_on_c, 0, 41, 0
2, 47277, Note_on_c, 0, 70, 0
2, 47277, Note_on_c, 0, 80, 0
2, 47277, Note_on_c, 0, 74, 0
2, 47277, Note_on_c, 0, 82, 0
2, 47283, Note_on_c, 0, 69, 80
2, 47283, Note_on_c, 0, 81, 80
2, 47313, Note_on_c, 0, 81, 0
2, 47313, Note_on_c, 0, 69, 0
2, 47318, Note_on_c, 0, 80, 80
2, 47320, Note_on_c, 0, 53, 80
2, 47320, Note_on_c, 0, 58, 80
2, 47320, Note_on_c, 0, 62, 80
2, 47320, Note_on_c, 0, 68, 80
2, 47340, Note_on_c, 0, 62, 0
2, 47340, Note_on_c, 0, 58, 0
2, 47342, Note_on_c, 0, 53, 0
2, 47377, Note_on_c, 0, 80, 0
2, 47387, Note_on_c, 0, 68, 0
2, 47392, Note_on_c, 0, 77, 80
2, 47421, Note_on_c, 0, 77, 0
2, 47427, Note_on_c, 0, 74, 80
2, 47429, Note_on_c, 0, 46, 80
2, 47429, Note_on_c, 0, 58, 80
2, 47470, Note_on_c, 0, 58, 0
2, 47470, Note_on_c, 0, 46, 0
2, 47495, Note_on_c, 0, 74, 0
2, 47501, Note_on_c, 0, 70, 80
2, 47531, Note_on_c, 0, 70, 0
2, 47536, Note_on_c, 0, 72, 80
2, 47538, Note_on_c, 0, 56, 80
2, 47538, Note_on_c, 0, 58, 80
2, 47538, Note_on_c, 0, 62, 80
2, 47560, Note_on_c, 0, 62, 0
2, 47560, Note_on_c, 0, 58, 0
2, 47560, Note_on_c, 0, 56, 0
2, 47603, Note_on_c, 0, 72, 0
2, 47612, Note_on_c, 0, 74, 80
2, 47641, Note_on_c, 0, 74, 0
2, 47648, Note_on_c, 0, 77, 80
2, 47650, Note_on_c, 0, 39, 80
2, 47650, Note_on_c, 0, 51, 80
2, 47666, Control_c, 0, 64, 127
2, 47707, Control_c, 0, 64, 0
2, 47712, Note_on_c, 0, 77, 0
2, 47713, Note_on_c, 0, 51, 0
2, 47713, Note_on_c, 0, 39, 0
2, 47716, Note_on_c, 0, 75, 80
2, 47748, Note_on_c, 0, 75, 0
2, 47755, Note_on_c, 0, 55, 80
2, 47755, Note_on_c, 0, 61, 80
2, 47755, Note_on_c, 0, 63, 80
2, 47755, Note_on_c, 0, 73, 80
2, 47777, Note_on_c, 0, 63, 0
2, 47777, Note_on_c, 0, 55, 0
2, 47777, Note_on_c, 0, 61, 0
2, 47820, Note_on_c, 0, 73, 0
2, 47827, Note_on_c, 0, 70, 80
2, 47856, Note_on_c, 0, 70, 0
2, 47863, Note_on_c, 0, 61, 80
2, 47863, Note_on_c, 0, 63, 80
2, 47863, Note_on_c, 0, 67, 80
2, 47865, Note_on_c, 0, 55, 80
2, 47885, Note_on_c, 0, 63, 0
2, 47885, Note_on_c, 0, 61, 0
2, 47887, Note_on_c, 0, 55, 0
2, 47930, Note_on_c, 0, 67, 0
2, 47935, Note_on_c, 0, 75, 80
2, 47937, Note_on_c, 0, 63, 80
2, 47966, Note_on_c, 0, 63, 0
2, 47966, Note_on_c, 0, 75, 0
2, 47973, Note_on_c, 0, 39, 80
2, 47973, Note_on_c, 0, 51, 80
2, 47973, Note_on_c, 0, 65, 80
2, 47973, Note_on_c, 0, 77, 80
2, 48038, Note_on_c, 0, 77, 0
2, 48040, Note_on_c, 0, 65, 0
2, 48045, Note_on_c, 0, 67, 80
2, 48045, Note_on_c, 0, 79, 80
2, 48074, Note_on_c, 0, 67, 0
2, 48074, Note_on_c, 0, 39, 0
2, 48074, Note_on_c, 0, 51, 0
2, 48081, Note_on_c, 0, 44, 80
2, 48081, Note_on_c, 0, 56, 80
2, 48081, Note_on_c, 0, 68, 80
2, 48081, Note_on_c, 0, 72, 80
2, 48081, Note_on_c, 0, 75, 80
2, 48081, Note_on_c, 0, 80, 80
2, 48083, Note_on_c, 0, 79, 0
2, 48120, Note_on_c, 0, 56, 0
2, 48121, Note_on_c, 0, 44, 0
2, 48148, Note_on_c, 0, 72, 0
2, 48148, Note_on_c, 0, 68, 0
2, 48148, Note_on_c, 0, 80, 0
2, 48148, Note_on_c, 0, 75, 0
2, 48155, Note_on_c, 0, 70, 80
2, 48155, Note_on_c, 0, 82, 80
2, 48187, Note_on_c, 0, 82, 0
2, 48187, Note_on_c, 0, 70, 0
2, 48192, Note_on_c, 0, 84, 80
2, 48193, Note_on_c, 0, 51, 80
2, 48193, Note_on_c, 0, 56, 80
2, 48193, Note_on_c, 0, 60, 80
2, 48193, Note_on_c, 0, 72, 80
2, 48214, Note_on_c, 0, 60, 0
2, 48214, Note_on_c, 0, 56, 0
2, 48214, Note_on_c, 0, 51, 0
2, 48222, Note_on_c, 0, 84, 0
2, 48222, Note_on_c, 0, 72, 0
2, 48265, Note_on_c, 0, 84, 80
2, 48265, Note_on_c, 0, 89, 80
2, 48267, Note_on_c, 0, 77, 80
2, 48297, Control_c, 0, 64, 127
2, 48304, Note_on_c, 0, 60, 80
2, 48306, Note_on_c, 0, 48, 80
2, 48337, Control_c, 0, 64, 0
2, 48344, Note_on_c, 0, 60, 0
2, 48346, Note_on_c, 0, 48, 0
2, 48371, Note_on_c, 0, 84, 0
2, 48371, Note_on_c, 0, 89, 0
2, 48371, Note_on_c, 0, 77, 0
2, 48376, Note_on_c, 0, 87, 80
2, 48378, Note_on_c, 0, 75, 80
2, 48407, Note_on_c, 0, 75, 0
2, 48407, Note_on_c, 0, 87, 0
2, 48413, Note_on_c, 0, 51, 80
2, 48413, Note_on_c, 0, 56, 80
2, 48413, Note_on_c, 0, 60, 80
2, 48413, Note_on_c, 0, 72, 80
2, 48413, Note_on_c, 0, 84, 80
2, 48435, Note_on_c, 0, 60, 0
2, 48437, Note_on_c, 0, 51, 0
2, 48437, Note_on_c, 0, 56, 0
2, 48482, Note_on_c, 0, 72, 0
2, 48482, Note_on_c, 0, 84, 0
2, 48489, Note_on_c, 0, 68, 80
2, 48489, Note_on_c, 0, 80, 80
2, 48518, Note_on_c, 0, 80, 0
2, 48518, Note_on_c, 0, 68, 0
2, 48523, Note_on_c, 0, 73, 80
2, 48523, Note_on_c, 0, 75, 80
2, 48525, Note_on_c, 0, 67, 80
2, 48525, Note_on_c, 0, 79, 80
2, 48527, Note_on_c, 0, 46, 80
2, 48527, Note_on_c, 0, 58, 80
2, 48565, Note_on_c, 0, 58, 0
2, 48565, Note_on_c, 0, 46, 0
2, 48590, Note_on_c, 0, 67, 0
2, 48590, Note_on_c, 0, 73, 0
2, 48590, Note_on_c, 0, 75, 0
2, 48590, Note_on_c, 0, 79, 0
2, 48635, Note_on_c, 0, 61, 80
2, 48635, Note_on_c, 0, 77, 80
2, 48637, Note_on_c, 0, 51, 80
2, 48637, Note_on_c, 0, 55, 80
2, 48659, Note_on_c, 0, 55, 0
2, 48659, Note_on_c, 0, 51, 0
2, 48659, Note_on_c, 0, 61, 0
2, 48666, Note_on_c, 0, 77, 0
2, 48711, Note_on_c, 0, 67, 80
2, 48711, Note_on_c, 0, 73, 80
2, 48711, Note_on_c, 0, 75, 80
2, 48749, Note_on_c, 0, 39, 80
2, 48749, Note_on_c, 0, 51, 80
2, 48776, Note_on_c, 0, 75, 0
2, 48786, Note_on_c, 0, 51, 0
2, 48788, Note_on_c, 0, 39, 0
2, 48815, Note_on_c, 0, 73, 0
2, 48815, Note_on_c, 0, 67, 0
2, 48821, Note_on_c, 0, 63, 80
2, 48821, Note_on_c, 0, 75, 80
2, 48851, Note_on_c, 0, 75, 0
2, 48853, Note_on_c, 0, 63, 0
2, 48858, Note_on_c, 0, 55, 80
2, 48858, Note_on_c, 0, 61, 80
2, 48858, Note_on_c, 0, 65, 80
2, 48858, Note_on_c, 0, 77, 80
2, 48860, Note_on_c, 0, 51, 80
2, 48880, Note_on_c, 0, 55, 0
2, 48882, Note_on_c, 0, 61, 0
2, 48882, Note_on_c, 0, 51, 0
2, 48925, Note_on_c, 0, 65, 0
2, 48925, Note_on_c, 0, 77, 0
2, 48932, Note_on_c, 0, 67, 80
2, 48932, Note_on_c, 0, 79, 80
2, 48960, Note_on_c, 0, 79, 0
2, 48962, Note_on_c, 0, 67, 0
2, 48967, Note_on_c, 0, 80, 80
2, 48969, Note_on_c, 0, 44, 80
2, 48969, Note_on_c, 0, 56, 80
2, 48969, Note_on_c, 0, 68, 80
2, 49008, Note_on_c, 0, 56, 0
2, 49008, Note_on_c, 0, 44, 0
2, 49034, Note_on_c, 0, 80, 0
2, 49034, Note_on_c, 0, 68, 0
2, 49041, Note_on_c, 0, 70, 80
2, 49041, Note_on_c, 0, 82, 80
2, 49070, Note_on_c, 0, 82, 0
2, 49070, Note_on_c, 0, 70, 0
2, 49075, Note_on_c, 0, 84, 80
2, 49078, Note_on_c, 0, 56, 80
2, 49078, Note_on_c, 0, 60, 80
2, 49078, Note_on_c, 0, 66, 80
2, 49078, Note_on_c, 0, 72, 80
2, 49098, Note_on_c, 0, 66, 0
2, 49098, Note_on_c, 0, 60, 0
2, 49100, Note_on_c, 0, 56, 0
2, 49106, Note_on_c, 0, 84, 0
2, 49106, Note_on_c, 0, 72, 0
2, 49152, Note_on_c, 0, 77, 80
2, 49152, Note_on_c, 0, 84, 80
2, 49152, Note_on_c, 0, 89, 80
2, 49181, Control_c, 0, 64, 127
2, 49188, Note_on_c, 0, 46, 80
2, 49188, Note_on_c, 0, 58, 80
2, 49245, Control_c, 0, 64, 0
2, 49249, Note_on_c, 0, 89, 0
2, 49249, Note_on_c, 0, 77, 0
2, 49249, Note_on_c, 0, 84, 0
2, 49256, Note_on_c, 0, 75, 80
2, 49256, Note_on_c, 0, 87, 80
2, 49288, Note_on_c, 0, 87, 0
2, 49288, Note_on_c, 0, 75, 0
2, 49288, Note_on_c, 0, 58, 0
2, 49290, Note_on_c, 0, 46, 0
2, 49295, Note_on_c, 0, 60, 80
2, 49295, Note_on_c, 0, 78, 80
2, 49295, Note_on_c, 0, 82, 80
2, 49296, Note_on_c, 0, 48, 80
2, 49360, Note_on_c, 0, 82, 0
2, 49360, Note_on_c, 0, 78, 0
2, 49367, Note_on_c, 0, 84, 80
2, 49396, Note_on_c, 0, 84, 0
2, 49398, Note_on_c, 0, 60, 0
2, 49398, Note_on_c, 0, 48, 0
2, 49405, Note_on_c, 0, 61, 80
2, 49405, Note_on_c, 0, 77, 80
2, 49405, Note_on_c, 0, 82, 80
2, 49407, Note_on_c, 0, 49, 80
2, 49472, Note_on_c, 0, 49, 0
2, 49472, Note_on_c, 0, 61, 0
2, 49472, Note_on_c, 0, 77, 0
2, 49472, Note_on_c, 0, 82, 0
2, 49513, Note_on_c, 0, 73, 80
2, 49515, Note_on_c, 0, 56, 80
2, 49515, Note_on_c, 0, 61, 80
2, 49515, Note_on_c, 0, 65, 80
2, 49515, Note_on_c, 0, 77, 80
2, 49534, Note_on_c, 0, 65, 0
2, 49534, Note_on_c, 0, 61, 0
2, 49534, Note_on_c, 0, 56, 0
2, 49543, Note_on_c, 0, 73, 0
2, 49543, Note_on_c, 0, 77, 0
2, 49586, Note_on_c, 0, 77, 80
2, 49586, Note_on_c, 0, 80, 80
2, 49623, Note_on_c, 0, 56, 80
2, 49623, Note_on_c, 0, 61, 80
2, 49623, Note_on_c, 0, 65, 80
2, 49643, Note_on_c, 0, 65, 0
2, 49643, Note_on_c, 0, 61, 0
2, 49645, Note_on_c, 0, 56, 0
2, 49686, Note_on_c, 0, 80, 0
2, 49686, Note_on_c, 0, 77, 0
2, 49728, Note_on_c, 0, 77, 80
2, 49729, Note_on_c, 0, 65, 80
2, 49795, Note_on_c, 0, 65, 0
2, 49795, Note_on_c, 0, 77, 0
2, 49800, Note_on_c, 0, 67, 80
2, 49800, Note_on_c, 0, 79, 80
2, 49831, Note_on_c, 0, 79, 0
2, 49831, Note_on_c, 0, 67, 0
2, 49836, Note_on_c, 0, 68, 80
2, 49838, Note_on_c, 0, 41, 80
2, 49838, Note_on_c, 0, 53, 80
2, 49838, Note_on_c, 0, 80, 80
2, 49876, Note_on_c, 0, 41, 0
2, 49878, Note_on_c, 0, 53, 0
2, 49901, Note_on_c, 0, 68, 0
2, 49901, Note_on_c, 0, 80, 0
2, 49908, Note_on_c, 0, 71, 80
2, 49938, Note_on_c, 0, 71, 0
2, 49944, Note_on_c, 0, 56, 80
2, 49944, Note_on_c, 0, 59, 80
2, 49944, Note_on_c, 0, 62, 80
2, 49944, Note_on_c, 0, 74, 80
2, 49965, Note_on_c, 0, 62, 0
2, 49967, Note_on_c, 0, 56, 0
2, 49967, Note_on_c, 0, 59, 0
2, 49975, Note_on_c, 0, 74, 0
2, 50016, Note_on_c, 0, 71, 80
2, 50016, Note_on_c, 0, 77, 80
2, 50017, Note_on_c, 0, 65, 80
2, 50054, Note_on_c, 0, 38, 80
2, 50054, Note_on_c, 0, 50, 80
2, 50119, Note_on_c, 0, 71, 0
2, 50121, Note_on_c, 0, 77, 0
2, 50121, Note_on_c, 0, 65, 0
2, 50128, Note_on_c, 0, 68, 80
2, 50128, Note_on_c, 0, 80, 80
2, 50157, Note_on_c, 0, 80, 0
2, 50159, Note_on_c, 0, 68, 0
2, 50163, Note_on_c, 0, 56, 80
2, 50163, Note_on_c, 0, 59, 80
2, 50163, Note_on_c, 0, 62, 80
2, 50163, Note_on_c, 0, 67, 80
2, 50163, Note_on_c, 0, 79, 80
2, 50185, Note_on_c, 0, 62, 0
2, 50185, Note_on_c, 0, 59, 0
2, 50185, Note_on_c, 0, 56, 0
2, 50229, Note_on_c, 0, 79, 0
2, 50231, Note_on_c, 0, 67, 0
2, 50235, Note_on_c, 0, 65, 80
2, 50235, Note_on_c, 0, 77, 80
2, 50249, Note_on_c, 0, 77, 0
2, 50249, Note_on_c, 0, 65, 0
2, 50269, Note_on_c, 0, 38, 0
2, 50269, Note_on_c, 0, 50, 0
2, 50276, Note_on_c, 0, 39, 80
2, 50276, Note_on_c, 0, 51, 80
2, 50276, Note_on_c, 0, 65, 80
2, 50276, Note_on_c, 0, 72, 80
2, 50276, Note_on_c, 0, 77, 80
2, 50316, Note_on_c, 0, 77, 0
2, 50316, Note_on_c, 0, 65, 0
2, 50316, Note_on_c, 0, 72, 0
2, 50318, Note_on_c, 0, 51, 0
2, 50318, Note_on_c, 0, 39, 0
2, 50386, Note_on_c, 0, 72, 80
2, 50388, Note_on_c, 0, 56, 80
2, 50388, Note_on_c, 0, 60, 80
2, 50388, Note_on_c, 0, 63, 80
2, 50388, Note_on_c, 0, 68, 80
2, 50410, Note_on_c, 0, 63, 0
2, 50410, Note_on_c, 0, 60, 0
2, 50410, Note_on_c, 0, 56, 0
2, 50417, Note_on_c, 0, 72, 0
2, 50417, Note_on_c, 0, 68, 0
2, 50462, Note_on_c, 0, 72, 80
2, 50462, Note_on_c, 0, 75, 80
2, 50492, Control_c, 0, 64, 127
2, 50500, Note_on_c, 0, 29, 80
2, 50500, Note_on_c, 0, 41, 80
2, 50537, Note_on_c, 0, 41, 0
2, 50537, Note_on_c, 0, 29, 0
2, 50555, Control_c, 0, 64, 0
2, 50564, Note_on_c, 0, 75, 0
2, 50564, Note_on_c, 0, 72, 0
2, 50568, Note_on_c, 0, 77, 80
2, 50598, Note_on_c, 0, 77, 0
2, 50605, Note_on_c, 0, 57, 80
2, 50605, Note_on_c, 0, 63, 80
2, 50605, Note_on_c, 0, 75, 80
2, 50607, Note_on_c, 0, 53, 80
2, 50627, Note_on_c, 0, 63, 0
2, 50627, Note_on_c, 0, 57, 0
2, 50629, Note_on_c, 0, 53, 0
2, 50674, Note_on_c, 0, 75, 0
2, 50679, Note_on_c, 0, 72, 80
2, 50709, Note_on_c, 0, 72, 0
2, 50713, Note_on_c, 0, 46, 80
2, 50713, Note_on_c, 0, 73, 80
2, 50715, Note_on_c, 0, 34, 80
2, 50715, Note_on_c, 0, 70, 80
2, 50754, Note_on_c, 0, 46, 0
2, 50756, Note_on_c, 0, 34, 0
2, 50783, Note_on_c, 0, 73, 0
2, 50783, Note_on_c, 0, 70, 0
2, 50787, Note_on_c, 0, 75, 80
2, 50819, Note_on_c, 0, 75, 0
2, 50824, Note_on_c, 0, 58, 80
2, 50824, Note_on_c, 0, 61, 80
2, 50824, Note_on_c, 0, 77, 80
2, 50826, Note_on_c, 0, 53, 80
2, 50846, Note_on_c, 0, 61, 0
2, 50846, Note_on_c, 0, 58, 0
2, 50848, Note_on_c, 0, 53, 0
2, 50855, Note_on_c, 0, 77, 0
2, 50900, Note_on_c, 0, 65, 80
2, 50936, Note_on_c, 0, 51, 80
2, 50938, Note_on_c, 0, 39, 80
2, 50976, Note_on_c, 0, 51, 0
2, 50978, Note_on_c, 0, 39, 0
2, 51005, Note_on_c, 0, 65, 0
2, 51010, Note_on_c, 0, 72, 80
2, 51039, Note_on_c, 0, 72, 0
2, 51048, Note_on_c, 0, 61, 80
2, 51048, Note_on_c, 0, 67, 80
2, 51048, Note_on_c, 0, 70, 80
2, 51049, Note_on_c, 0, 39, 80
2, 51049, Note_on_c, 0, 51, 80
2, 51115, Note_on_c, 0, 51, 0
2, 51151, Note_on_c, 0, 61, 0
2, 51151, Note_on_c, 0, 70, 0
2, 51151, Note_on_c, 0, 67, 0
2, 51153, Note_on_c, 0, 39, 0
2, 51158, Note_on_c, 0, 44, 80
2, 51158, Note_on_c, 0, 51, 80
2, 51158, Note_on_c, 0, 60, 80
2, 51158, Note_on_c, 0, 63, 80
2, 51158, Note_on_c, 0, 68, 80
2, 51194, Note_on_c, 0, 68, 0
2, 51194, Note_on_c, 0, 60, 0
2, 51194, Note_on_c, 0, 44, 0
2, 51194, Note_on_c, 0, 51, 0
2, 51194, Note_on_c, 0, 63, 0
2, 51258, Control_c, 0, 64, 127
2, 51266, Note_on_c, 0, 39, 80
2, 51266, Note_on_c, 0, 51, 80
2, 51321, Control_c, 0, 64, 0
2, 51364, Note_on_c, 0, 51, 0
2, 51364, Note_on_c, 0, 39, 0
2, 51371, Note_on_c, 0, 32, 80
2, 51371, Note_on_c, 0, 44, 80
2, 51412, Note_on_c, 0, 44, 0
2, 51422, Note_on_c, 0, 32, 0
2, 51445, Note_on_c, 0, 75, 80
2, 51477, Note_on_c, 0, 75, 0
2, 51481, Note_on_c, 0, 45, 80
2, 51481, Note_on_c, 0, 57, 80
2, 51481, Note_on_c, 0, 77, 80
2, 51547, Note_on_c, 0, 77, 0
2, 51553, Note_on_c, 0, 78, 80
2, 51583, Note_on_c, 0, 78, 0
2, 51583, Note_on_c, 0, 57, 0
2, 51583, Note_on_c, 0, 45, 0
2, 51590, Note_on_c, 0, 46, 80
2, 51590, Note_on_c, 0, 58, 80
2, 51590, Note_on_c, 0, 75, 80
2, 51590, Note_on_c, 0, 79, 80
2, 51630, Note_on_c, 0, 58, 0
2, 51630, Note_on_c, 0, 46, 0
2, 51655, Note_on_c, 0, 75, 0
2, 51655, Note_on_c, 0, 79, 0
2, 51696, Note_on_c, 0, 51, 80
2, 51696, Note_on_c, 0, 82, 80
2, 51698, Note_on_c, 0, 55, 80
2, 51698, Note_on_c, 0, 61, 80
2, 51719, Note_on_c, 0, 61, 0
2, 51719, Note_on_c, 0, 55, 0
2, 51719, Note_on_c, 0, 51, 0
2, 51727, Note_on_c, 0, 82, 0
2, 51770, Note_on_c, 0, 73, 80
2, 51770, Note_on_c, 0, 77, 80
2, 51798, Control_c, 0, 64, 127
2, 51807, Note_on_c, 0, 39, 80
2, 51807, Note_on_c, 0, 51, 80
2, 51843, Note_on_c, 0, 51, 0
2, 51843, Note_on_c, 0, 39, 0
2, 51860, Note_on_c, 0, 77, 0
2, 51860, Note_on_c, 0, 73, 0
2, 51862, Control_c, 0, 64, 0
2, 51877, Note_on_c, 0, 75, 80
2, 51877, Note_on_c, 0, 87, 80
2, 51909, Note_on_c, 0, 87, 0
2, 51909, Note_on_c, 0, 75, 0
2, 51915, Note_on_c, 0, 51, 80
2, 51915, Note_on_c, 0, 55, 80
2, 51915, Note_on_c, 0, 61, 80
2, 51915, Note_on_c, 0, 77, 80
2, 51915, Note_on_c, 0, 89, 80
2, 51937, Note_on_c, 0, 61, 0
2, 51937, Note_on_c, 0, 51, 0
2, 51937, Note_on_c, 0, 55, 0
2, 51979, Note_on_c, 0, 89, 0
2, 51981, Note_on_c, 0, 77, 0
2, 51985, Note_on_c, 0, 78, 80
2, 51985, Note_on_c, 0, 90, 80
2, 52015, Note_on_c, 0, 90, 0
2, 52015, Note_on_c, 0, 78, 0
2, 52020, Note_on_c, 0, 46, 80
2, 52022, Note_on_c, 0, 58, 80
2, 52022, Note_on_c, 0, 79, 80
2, 52022, Note_on_c, 0, 87, 80
2, 52022, Note_on_c, 0, 91, 80
2, 52058, Note_on_c, 0, 58, 0
2, 52060, Note_on_c, 0, 46, 0
2, 52087, Note_on_c, 0, 87, 0
2, 52087, Note_on_c, 0, 79, 0
2, 52087, Note_on_c, 0, 91, 0
2, 52128, Note_on_c, 0, 51, 80
2, 52130, Note_on_c, 0, 61, 80
2, 52130, Note_on_c, 0, 82, 80
2, 52130, Note_on_c, 0, 94, 80
2, 52139, Note_on_c, 0, 55, 80
2, 52151, Note_on_c, 0, 61, 0
2, 52152, Note_on_c, 0, 51, 0
2, 52152, Note_on_c, 0, 55, 0
2, 52161, Note_on_c, 0, 82, 0
2, 52161, Note_on_c, 0, 94, 0
2, 52204, Note_on_c, 0, 77, 80
2, 52204, Note_on_c, 0, 85, 80
2, 52204, Note_on_c, 0, 89, 80
2, 52232, Control_c, 0, 64, 127
2, 52241, Note_on_c, 0, 39, 80
2, 52243, Note_on_c, 0, 51, 80
2, 52297, Control_c, 0, 64, 0
2, 52306, Note_on_c, 0, 89, 0
2, 52306, Note_on_c, 0, 77, 0
2, 52306, Note_on_c, 0, 85, 0
2, 52311, Note_on_c, 0, 72, 80
2, 52341, Note_on_c, 0, 72, 0
2, 52341, Note_on_c, 0, 39, 0
2, 52341, Note_on_c, 0, 51, 0
2, 52347, Note_on_c, 0, 37, 80
2, 52347, Note_on_c, 0, 49, 80
2, 52347, Note_on_c, 0, 73, 80
2, 52414, Note_on_c, 0, 73, 0
2, 52418, Note_on_c, 0, 74, 80
2, 52450, Note_on_c, 0, 74, 0
2, 52450, Note_on_c, 0, 49, 0
2, 52450, Note_on_c, 0, 37, 0
2, 52455, Note_on_c, 0, 36, 80
2, 52455, Note_on_c, 0, 48, 80
2, 52455, Note_on_c, 0, 72, 80
2, 52455, Note_on_c, 0, 75, 80
2, 52493, Note_on_c, 0, 72, 0
2, 52495, Note_on_c, 0, 36, 0
2, 52495, Note_on_c, 0, 48, 0
2, 52495, Note_on_c, 0, 75, 0
2, 52565, Note_on_c, 0, 51, 80
2, 52565, Note_on_c, 0, 56, 80
2, 52565, Note_on_c, 0, 60, 80
2, 52567, Note_on_c, 0, 79, 80
2, 52587, Note_on_c, 0, 60, 0
2, 52587, Note_on_c, 0, 51, 0
2, 52587, Note_on_c, 0, 56, 0
2, 52606, Note_on_c, 0, 79, 0
2, 52639, Note_on_c, 0, 72, 80
2, 52639, Note_on_c, 0, 77, 80
2, 52678, Note_on_c, 0, 27, 80
2, 52678, Note_on_c, 0, 39, 80
2, 52705, Note_on_c, 0, 72, 0
2, 52715, Note_on_c, 0, 39, 0
2, 52715, Note_on_c, 0, 27, 0
2, 52743, Note_on_c, 0, 77, 0
2, 52748, Note_on_c, 0, 72, 80
2, 52750, Note_on_c, 0, 84, 80
2, 52779, Note_on_c, 0, 84, 0
2, 52779, Note_on_c, 0, 72, 0
2, 52784, Note_on_c, 0, 51, 80
2, 52784, Note_on_c, 0, 56, 80
2, 52786, Note_on_c, 0, 60, 80
2, 52786, Note_on_c, 0, 73, 80
2, 52786, Note_on_c, 0, 85, 80
2, 52806, Note_on_c, 0, 60, 0
2, 52806, Note_on_c, 0, 51, 0
2, 52806, Note_on_c, 0, 56, 0
2, 52843, Note_on_c, 0, 85, 0
2, 52851, Note_on_c, 0, 73, 0
2, 52856, Note_on_c, 0, 74, 80
2, 52856, Note_on_c, 0, 86, 80
2, 52890, Note_on_c, 0, 86, 0
2, 52890, Note_on_c, 0, 74, 0
2, 52895, Note_on_c, 0, 32, 80
2, 52895, Note_on_c, 0, 44, 80
2, 52895, Note_on_c, 0, 75, 80
2, 52895, Note_on_c, 0, 84, 80
2, 52896, Note_on_c, 0, 87, 80
2, 52935, Note_on_c, 0, 87, 0
2, 52935, Note_on_c, 0, 75, 0
2, 52935, Note_on_c, 0, 84, 0
2, 52935, Note_on_c, 0, 44, 0
2, 52944, Note_on_c, 0, 32, 0
2, 53004, Note_on_c, 0, 51, 80
2, 53004, Note_on_c, 0, 56, 80
2, 53004, Note_on_c, 0, 60, 80
2, 53004, Note_on_c, 0, 79, 80
2, 53004, Note_on_c, 0, 91, 80
2, 53024, Note_on_c, 0, 60, 0
2, 53024, Note_on_c, 0, 51, 0
2, 53024, Note_on_c, 0, 56, 0
2, 53034, Note_on_c, 0, 91, 0
2, 53042, Note_on_c, 0, 79, 0
2, 53079, Control_c, 0, 64, 127
2, 53079, Note_on_c, 0, 77, 80
2, 53079, Note_on_c, 0, 84, 80
2, 53079, Note_on_c, 0, 89, 80
2, 53113, Note_on_c, 0, 36, 80
2, 53113, Note_on_c, 0, 48, 80
2, 53141, Control_c, 0, 64, 0
2, 53150, Note_on_c, 0, 48, 0
2, 53152, Note_on_c, 0, 36, 0
2, 53179, Note_on_c, 0, 77, 0
2, 53179, Note_on_c, 0, 84, 0
2, 53179, Note_on_c, 0, 89, 0
2, 53185, Note_on_c, 0, 72, 80
2, 53215, Note_on_c, 0, 72, 0
2, 53222, Note_on_c, 0, 51, 80
2, 53222, Note_on_c, 0, 56, 80
2, 53222, Note_on_c, 0, 60, 80
2, 53222, Note_on_c, 0, 70, 80
2, 53242, Note_on_c, 0, 60, 0
2, 53242, Note_on_c, 0, 51, 0
2, 53242, Note_on_c, 0, 56, 0
2, 53279, Note_on_c, 0, 70, 0
2, 53292, Note_on_c, 0, 68, 80
2, 53322, Note_on_c, 0, 68, 0
2, 53327, Note_on_c, 0, 34, 80
2, 53328, Note_on_c, 0, 46, 80
2, 53328, Note_on_c, 0, 67, 80
2, 53367, Note_on_c, 0, 46, 0
2, 53367, Note_on_c, 0, 34, 0
2, 53395, Note_on_c, 0, 67, 0
2, 53401, Note_on_c, 0, 70, 80
2, 53429, Note_on_c, 0, 70, 0
2, 53434, Note_on_c, 0, 51, 80
2, 53436, Note_on_c, 0, 55, 80
2, 53436, Note_on_c, 0, 61, 80
2, 53436, Note_on_c, 0, 73, 80
2, 53458, Note_on_c, 0, 61, 0
2, 53458, Note_on_c, 0, 51, 0
2, 53458, Note_on_c, 0, 55, 0
2, 53503, Note_on_c, 0, 73, 0
2, 53508, Note_on_c, 0, 79, 80
2, 53540, Note_on_c, 0, 79, 0
2, 53544, Note_on_c, 0, 27, 80
2, 53544, Note_on_c, 0, 39, 80
2, 53544, Note_on_c, 0, 77, 80
2, 53585, Note_on_c, 0, 39, 0
2, 53585, Note_on_c, 0, 27, 0
2, 53612, Note_on_c, 0, 77, 0
2, 53616, Note_on_c, 0, 75, 80
2, 53648, Note_on_c, 0, 75, 0
2, 53655, Note_on_c, 0, 51, 80
2, 53655, Note_on_c, 0, 55, 80
2, 53655, Note_on_c, 0, 61, 80
2, 53655, Note_on_c, 0, 70, 80
2, 53677, Note_on_c, 0, 61, 0
2, 53677, Note_on_c, 0, 51, 0
2, 53677, Note_on_c, 0, 55, 0
2, 53722, Note_on_c, 0, 70, 0
2, 53727, Note_on_c, 0, 72, 80
2, 53759, Note_on_c, 0, 72, 0
2, 53763, Note_on_c, 0, 46, 80
2, 53763, Note_on_c, 0, 73, 80
2, 53765, Note_on_c, 0, 34, 80
2, 53804, Note_on_c, 0, 34, 0
2, 53804, Note_on_c, 0, 73, 0
2, 53804, Note_on_c, 0, 46, 0
2, 53870, Note_on_c, 0, 51, 80
2, 53870, Note_on_c, 0, 55, 80
2, 53872, Note_on_c, 0, 61, 80
2, 53872, Note_on_c, 0, 79, 80
2, 53892, Note_on_c, 0, 61, 0
2, 53892, Note_on_c, 0, 51, 0
2, 53892, Note_on_c, 0, 55, 0
2, 53902, Note_on_c, 0, 79, 0
2, 53943, Note_on_c, 0, 67, 80
2, 53943, Note_on_c, 0, 73, 80
2, 53943, Note_on_c, 0, 77, 80
2, 53977, Note_on_c, 0, 39, 80
2, 53977, Note_on_c, 0, 51, 80
2, 54014, Note_on_c, 0, 51, 0
2, 54014, Note_on_c, 0, 39, 0
2, 54041, Note_on_c, 0, 67, 0
2, 54041, Note_on_c, 0, 73, 0
2, 54043, Note_on_c, 0, 77, 0
2, 54048, Note_on_c, 0, 75, 80
2, 54077, Note_on_c, 0, 75, 0
2, 54082, Note_on_c, 0, 51, 80
2, 54082, Note_on_c, 0, 55, 80
2, 54084, Note_on_c, 0, 61, 80
2, 54084, Note_on_c, 0, 74, 80
2, 54104, Note_on_c, 0, 61, 0
2, 54104, Note_on_c, 0, 51, 0
2, 54104, Note_on_c, 0, 55, 0
2, 54149, Note_on_c, 0, 74, 0
2, 54156, Note_on_c, 0, 73, 80
2, 54186, Note_on_c, 0, 73, 0
2, 54192, Note_on_c, 0, 44, 80
2, 54192, Note_on_c, 0, 56, 80
2, 54192, Note_on_c, 0, 72, 80
2, 54233, Note_on_c, 0, 56, 0
2, 54233, Note_on_c, 0, 44, 0
2, 54261, Note_on_c, 0, 72, 0
2, 54265, Note_on_c, 0, 71, 80
2, 54297, Note_on_c, 0, 71, 0
2, 54304, Note_on_c, 0, 51, 80
2, 54304, Note_on_c, 0, 56, 80
2, 54304, Note_on_c, 0, 60, 80
2, 54304, Note_on_c, 0, 72, 80
2, 54324, Note_on_c, 0, 60, 0
2, 54324, Note_on_c, 0, 51, 0
2, 54324, Note_on_c, 0, 56, 0
2, 54372, Note_on_c, 0, 72, 0
2, 54377, Note_on_c, 0, 79, 80
2, 54408, Note_on_c, 0, 79, 0
2, 54411, Note_on_c, 0, 39, 80
2, 54411, Note_on_c, 0, 51, 80
2, 54411, Note_on_c, 0, 77, 80
2, 54453, Note_on_c, 0, 51, 0
2, 54453, Note_on_c, 0, 39, 0
2, 54480, Note_on_c, 0, 77, 0
2, 54485, Note_on_c, 0, 75, 80
2, 54519, Note_on_c, 0, 75, 0
2, 54526, Note_on_c, 0, 51, 80
2, 54526, Note_on_c, 0, 56, 80
2, 54526, Note_on_c, 0, 60, 80
2, 54526, Note_on_c, 0, 68, 80
2, 54546, Note_on_c, 0, 60, 0
2, 54546, Note_on_c, 0, 51, 0
2, 54546, Note_on_c, 0, 56, 0
2, 54592, Note_on_c, 0, 68, 0
2, 54597, Note_on_c, 0, 70, 80
2, 54626, Note_on_c, 0, 70, 0
2, 54633, Note_on_c, 0, 44, 80
2, 54633, Note_on_c, 0, 56, 80
2, 54633, Note_on_c, 0, 72, 80
2, 54673, Note_on_c, 0, 72, 0
2, 54673, Note_on_c, 0, 56, 0
2, 54673, Note_on_c, 0, 44, 0
2, 54744, Note_on_c, 0, 51, 80
2, 54744, Note_on_c, 0, 56, 80
2, 54744, Note_on_c, 0, 60, 80
2, 54744, Note_on_c, 0, 79, 80
2, 54767, Note_on_c, 0, 60, 0
2, 54767, Note_on_c, 0, 51, 0
2, 54767, Note_on_c, 0, 56, 0
2, 54785, Note_on_c, 0, 79, 0
2, 54818, Note_on_c, 0, 68, 80
2, 54818, Note_on_c, 0, 72, 80
2, 54818, Note_on_c, 0, 77, 80
2, 54855, Note_on_c, 0, 48, 80
2, 54855, Note_on_c, 0, 60, 80
2, 54920, Note_on_c, 0, 77, 0
2, 54920, Note_on_c, 0, 68, 0
2, 54920, Note_on_c, 0, 72, 0
2, 54929, Note_on_c, 0, 75, 80
2, 54959, Note_on_c, 0, 75, 0
2, 54959, Note_on_c, 0, 48, 0
2, 54959, Note_on_c, 0, 60, 0
2, 54965, Note_on_c, 0, 47, 80
2, 54965, Note_on_c, 0, 59, 80
2, 54967, Note_on_c, 0, 77, 80
2, 55035, Note_on_c, 0, 77, 0
2, 55042, Note_on_c, 0, 78, 80
2, 55070, Note_on_c, 0, 59, 0
2, 55070, Note_on_c, 0, 47, 0
2, 55072, Note_on_c, 0, 78, 0
2, 55077, Note_on_c, 0, 46, 80
2, 55077, Note_on_c, 0, 58, 80
2, 55077, Note_on_c, 0, 75, 80
2, 55077, Note_on_c, 0, 79, 80
2, 55113, Note_on_c, 0, 79, 0
2, 55113, Note_on_c, 0, 46, 0
2, 55113, Note_on_c, 0, 58, 0
2, 55113, Note_on_c, 0, 75, 0
2, 55183, Note_on_c, 0, 51, 80
2, 55183, Note_on_c, 0, 61, 80
2, 55185, Note_on_c, 0, 55, 80
2, 55185, Note_on_c, 0, 82, 80
2, 55205, Note_on_c, 0, 55, 0
2, 55205, Note_on_c, 0, 51, 0
2, 55205, Note_on_c, 0, 61, 0
2, 55215, Note_on_c, 0, 82, 0
2, 55256, Note_on_c, 0, 73, 80
2, 55256, Note_on_c, 0, 77, 80
2, 55291, Note_on_c, 0, 39, 80
2, 55291, Note_on_c, 0, 51, 80
2, 55327, Note_on_c, 0, 51, 0
2, 55327, Note_on_c, 0, 39, 0
2, 55345, Note_on_c, 0, 73, 0
2, 55347, Note_on_c, 0, 77, 0
2, 55363, Note_on_c, 0, 75, 80
2, 55365, Note_on_c, 0, 87, 80
2, 55392, Note_on_c, 0, 87, 0
2, 55392, Note_on_c, 0, 75, 0
2, 55395, Note_on_c, 0, 51, 80
2, 55395, Note_on_c, 0, 55, 80
2, 55395, Note_on_c, 0, 61, 80
2, 55397, Note_on_c, 0, 77, 80
2, 55397, Note_on_c, 0, 89, 80
2, 55417, Note_on_c, 0, 61, 0
2, 55417, Note_on_c, 0, 51, 0
2, 55417, Note_on_c, 0, 55, 0
2, 55464, Note_on_c, 0, 77, 0
2, 55464, Note_on_c, 0, 89, 0
2, 55470, Note_on_c, 0, 78, 80
2, 55470, Note_on_c, 0, 90, 80
2, 55500, Note_on_c, 0, 90, 0
2, 55500, Note_on_c, 0, 78, 0
2, 55507, Note_on_c, 0, 46, 80
2, 55507, Note_on_c, 0, 58, 80
2, 55509, Note_on_c, 0, 79, 80
2, 55509, Note_on_c, 0, 87, 80
2, 55509, Note_on_c, 0, 91, 80
2, 55545, Note_on_c, 0, 46, 0
2, 55547, Note_on_c, 0, 87, 0
2, 55547, Note_on_c, 0, 58, 0
2, 55547, Note_on_c, 0, 79, 0
2, 55547, Note_on_c, 0, 91, 0
2, 55615, Note_on_c, 0, 51, 80
2, 55615, Note_on_c, 0, 55, 80
2, 55617, Note_on_c, 0, 61, 80
2, 55617, Note_on_c, 0, 82, 80
2, 55617, Note_on_c, 0, 94, 80
2, 55637, Note_on_c, 0, 61, 0
2, 55637, Note_on_c, 0, 51, 0
2, 55637, Note_on_c, 0, 55, 0
2, 55646, Note_on_c, 0, 82, 0
2, 55646, Note_on_c, 0, 94, 0
2, 55691, Note_on_c, 0, 77, 80
2, 55691, Note_on_c, 0, 85, 80
2, 55691, Note_on_c, 0, 89, 80
2, 55719, Control_c, 0, 64, 127
2, 55728, Note_on_c, 0, 39, 80
2, 55729, Note_on_c, 0, 51, 80
2, 55784, Control_c, 0, 64, 0
2, 55794, Note_on_c, 0, 89, 0
2, 55794, Note_on_c, 0, 77, 0
2, 55794, Note_on_c, 0, 85, 0
2, 55800, Note_on_c, 0, 72, 80
2, 55830, Note_on_c, 0, 72, 0
2, 55830, Note_on_c, 0, 39, 0
2, 55830, Note_on_c, 0, 51, 0
2, 55835, Note_on_c, 0, 37, 80
2, 55835, Note_on_c, 0, 49, 80
2, 55835, Note_on_c, 0, 73, 80
2, 55901, Note_on_c, 0, 73, 0
2, 55906, Note_on_c, 0, 74, 80
2, 55934, Note_on_c, 0, 74, 0
2, 55934, Note_on_c, 0, 49, 0
2, 55934, Note_on_c, 0, 37, 0
2, 55939, Note_on_c, 0, 72, 80
2, 55939, Note_on_c, 0, 75, 80
2, 55942, Note_on_c, 0, 36, 80
2, 55942, Note_on_c, 0, 48, 80
2, 55978, Note_on_c, 0, 48, 0
2, 55978, Note_on_c, 0, 36, 0
2, 55978, Note_on_c, 0, 72, 0
2, 55980, Note_on_c, 0, 75, 0
2, 56048, Note_on_c, 0, 51, 80
2, 56048, Note_on_c, 0, 56, 80
2, 56048, Note_on_c, 0, 60, 80
2, 56048, Note_on_c, 0, 79, 80
2, 56068, Note_on_c, 0, 60, 0
2, 56068, Note_on_c, 0, 51, 0
2, 56068, Note_on_c, 0, 56, 0
2, 56087, Note_on_c, 0, 79, 0
2, 56116, Note_on_c, 0, 77, 80
2, 56119, Note_on_c, 0, 72, 80
2, 56154, Note_on_c, 0, 27, 80
2, 56154, Note_on_c, 0, 39, 80
2, 56182, Note_on_c, 0, 72, 0
2, 56191, Note_on_c, 0, 39, 0
2, 56191, Note_on_c, 0, 27, 0
2, 56208, Note_on_c, 0, 77, 0
2, 56223, Note_on_c, 0, 72, 80
2, 56223, Note_on_c, 0, 84, 80
2, 56253, Note_on_c, 0, 84, 0
2, 56253, Note_on_c, 0, 72, 0
2, 56259, Note_on_c, 0, 51, 80
2, 56259, Note_on_c, 0, 56, 80
2, 56259, Note_on_c, 0, 60, 80
2, 56259, Note_on_c, 0, 73, 80
2, 56259, Note_on_c, 0, 85, 80
2, 56280, Note_on_c, 0, 60, 0
2, 56280, Note_on_c, 0, 51, 0
2, 56280, Note_on_c, 0, 56, 0
2, 56318, Note_on_c, 0, 73, 0
2, 56318, Note_on_c, 0, 85, 0
2, 56333, Note_on_c, 0, 74, 80
2, 56333, Note_on_c, 0, 86, 80
2, 56363, Note_on_c, 0, 86, 0
2, 56363, Note_on_c, 0, 74, 0
2, 56370, Note_on_c, 0, 32, 80
2, 56370, Note_on_c, 0, 44, 80
2, 56370, Note_on_c, 0, 75, 80
2, 56370, Note_on_c, 0, 84, 80
2, 56370, Note_on_c, 0, 87, 80
2, 56408, Note_on_c, 0, 87, 0
2, 56408, Note_on_c, 0, 75, 0
2, 56408, Note_on_c, 0, 84, 0
2, 56408, Note_on_c, 0, 44, 0
2, 56417, Note_on_c, 0, 32, 0
2, 56478, Note_on_c, 0, 51, 80
2, 56480, Note_on_c, 0, 56, 80
2, 56480, Note_on_c, 0, 60, 80
2, 56480, Note_on_c, 0, 79, 80
2, 56480, Note_on_c, 0, 91, 80
2, 56501, Note_on_c, 0, 60, 0
2, 56501, Note_on_c, 0, 51, 0
2, 56501, Note_on_c, 0, 56, 0
2, 56511, Note_on_c, 0, 91, 0
2, 56520, Note_on_c, 0, 79, 0
2, 56553, Note_on_c, 0, 77, 80
2, 56553, Note_on_c, 0, 84, 80
2, 56553, Note_on_c, 0, 89, 80
2, 56583, Control_c, 0, 64, 127
2, 56592, Note_on_c, 0, 48, 80
2, 56593, Note_on_c, 0, 36, 80
2, 56648, Control_c, 0, 64, 0
2, 56658, Note_on_c, 0, 36, 0
2, 56658, Note_on_c, 0, 89, 0
2, 56658, Note_on_c, 0, 77, 0
2, 56658, Note_on_c, 0, 84, 0
2, 56658, Note_on_c, 0, 48, 0
2, 56663, Note_on_c, 0, 75, 80
2, 56696, Note_on_c, 0, 75, 0
2, 56701, Note_on_c, 0, 54, 80
2, 56701, Note_on_c, 0, 56, 80
2, 56701, Note_on_c, 0, 60, 80
2, 56701, Note_on_c, 0, 72, 80
2, 56722, Note_on_c, 0, 60, 0
2, 56722, Note_on_c, 0, 54, 0
2, 56722, Note_on_c, 0, 56, 0
2, 56767, Note_on_c, 0, 72, 0
2, 56774, Note_on_c, 0, 70, 80
2, 56806, Note_on_c, 0, 70, 0
2, 56810, Note_on_c, 0, 37, 80
2, 56810, Note_on_c, 0, 68, 80
2, 56812, Note_on_c, 0, 49, 80
2, 56851, Note_on_c, 0, 49, 0
2, 56851, Note_on_c, 0, 37, 0
2, 56878, Note_on_c, 0, 68, 0
2, 56884, Note_on_c, 0, 65, 80
2, 56914, Note_on_c, 0, 65, 0
2, 56921, Note_on_c, 0, 53, 80
2, 56921, Note_on_c, 0, 56, 80
2, 56921, Note_on_c, 0, 61, 80
2, 56921, Note_on_c, 0, 68, 80
2, 56941, Note_on_c, 0, 56, 0
2, 56943, Note_on_c, 0, 53, 0
2, 56943, Note_on_c, 0, 61, 0
2, 56988, Note_on_c, 0, 68, 0
2, 56995, Note_on_c, 0, 73, 80
2, 57023, Note_on_c, 0, 73, 0
2, 57029, Note_on_c, 0, 38, 80
2, 57029, Note_on_c, 0, 50, 80
2, 57029, Note_on_c, 0, 71, 80
2, 57029, Note_on_c, 0, 77, 80
2, 57068, Note_on_c, 0, 50, 0
2, 57068, Note_on_c, 0, 38, 0
2, 57096, Note_on_c, 0, 71, 0
2, 57096, Note_on_c, 0, 77, 0
2, 57100, Note_on_c, 0, 80, 80
2, 57130, Note_on_c, 0, 80, 0
2, 57137, Note_on_c, 0, 50, 80
2, 57137, Note_on_c, 0, 56, 80
2, 57137, Note_on_c, 0, 59, 80
2, 57137, Note_on_c, 0, 71, 80
2, 57137, Note_on_c, 0, 79, 80
2, 57157, Note_on_c, 0, 59, 0
2, 57157, Note_on_c, 0, 50, 0
2, 57157, Note_on_c, 0, 56, 0
2, 57200, Note_on_c, 0, 79, 0
2, 57207, Note_on_c, 0, 77, 80
2, 57234, Note_on_c, 0, 77, 0
2, 57234, Note_on_c, 0, 71, 0
2, 57240, Note_on_c, 0, 39, 80
2, 57242, Note_on_c, 0, 51, 80
2, 57242, Note_on_c, 0, 72, 80
2, 57242, Note_on_c, 0, 75, 80
2, 57307, Note_on_c, 0, 75, 0
2, 57307, Note_on_c, 0, 39, 0
2, 57307, Note_on_c, 0, 51, 0
2, 57307, Note_on_c, 0, 72, 0
2, 57352, Note_on_c, 0, 51, 80
2, 57352, Note_on_c, 0, 56, 80
2, 57352, Note_on_c, 0, 60, 80
2, 57352, Note_on_c, 0, 77, 80
2, 57372, Note_on_c, 0, 60, 0
2, 57372, Note_on_c, 0, 51, 0
2, 57372, Note_on_c, 0, 56, 0
2, 57382, Note_on_c, 0, 77, 0
2, 57421, Control_c, 0, 64, 127
2, 57423, Note_on_c, 0, 69, 80
2, 57423, Note_on_c, 0, 72, 80
2, 57461, Note_on_c, 0, 41, 80
2, 57463, Note_on_c, 0, 53, 80
2, 57490, Control_c, 0, 64, 0
2, 57500, Note_on_c, 0, 53, 0
2, 57500, Note_on_c, 0, 41, 0
2, 57527, Note_on_c, 0, 72, 0
2, 57527, Note_on_c, 0, 69, 0
2, 57533, Note_on_c, 0, 77, 80
2, 57565, Note_on_c, 0, 77, 0
2, 57572, Note_on_c, 0, 57, 80
2, 57572, Note_on_c, 0, 63, 80
2, 57572, Note_on_c, 0, 75, 80
2, 57574, Note_on_c, 0, 53, 80
2, 57594, Note_on_c, 0, 63, 0
2, 57594, Note_on_c, 0, 57, 0
2, 57596, Note_on_c, 0, 53, 0
2, 57641, Note_on_c, 0, 75, 0
2, 57648, Note_on_c, 0, 72, 80
2, 57677, Note_on_c, 0, 72, 0
2, 57682, Note_on_c, 0, 34, 80
2, 57682, Note_on_c, 0, 46, 80
2, 57682, Note_on_c, 0, 70, 80
2, 57682, Note_on_c, 0, 73, 80
2, 57720, Note_on_c, 0, 73, 0
2, 57720, Note_on_c, 0, 34, 0
2, 57720, Note_on_c, 0, 46, 0
2, 57720, Note_on_c, 0, 70, 0
2, 57795, Note_on_c, 0, 77, 80
2, 57797, Note_on_c, 0, 53, 80
2, 57797, Note_on_c, 0, 58, 80
2, 57797, Note_on_c, 0, 61, 80
2, 57817, Note_on_c, 0, 61, 0
2, 57817, Note_on_c, 0, 58, 0
2, 57817, Note_on_c, 0, 53, 0
2, 57827, Note_on_c, 0, 77, 0
2, 57866, Note_on_c, 0, 65, 80
2, 57901, Note_on_c, 0, 39, 80
2, 57901, Note_on_c, 0, 51, 80
2, 57919, Control_c, 0, 64, 127
2, 57939, Note_on_c, 0, 51, 0
2, 57939, Note_on_c, 0, 39, 0
2, 57956, Control_c, 0, 64, 0
2, 57965, Note_on_c, 0, 65, 0
2, 57970, Note_on_c, 0, 72, 80
2, 58000, Note_on_c, 0, 72, 0
2, 58005, Note_on_c, 0, 39, 80
2, 58005, Note_on_c, 0, 51, 80
2, 58005, Note_on_c, 0, 61, 80
2, 58005, Note_on_c, 0, 67, 80
2, 58005, Note_on_c, 0, 70, 80
2, 58069, Note_on_c, 0, 51, 0
2, 58104, Note_on_c, 0, 67, 0
2, 58104, Note_on_c, 0, 39, 0
2, 58104, Note_on_c, 0, 61, 0
2, 58104, Note_on_c, 0, 70, 0
2, 58112, Note_on_c, 0, 44, 80
2, 58112, Note_on_c, 0, 51, 80
2, 58112, Note_on_c, 0, 60, 80
2, 58112, Note_on_c, 0, 63, 80
2, 58112, Note_on_c, 0, 68, 80
2, 58149, Note_on_c, 0, 68, 0
2, 58149, Note_on_c, 0, 60, 0
2, 58149, Note_on_c, 0, 44, 0
2, 58149, Note_on_c, 0, 51, 0
2, 58149, Note_on_c, 0, 63, 0
2, 58220, Note_on_c, 0, 39, 80
2, 58220, Note_on_c, 0, 51, 80
2, 58324, Note_on_c, 0, 51, 0
2, 58324, Note_on_c, 0, 39, 0
2, 58331, Note_on_c, 0, 36, 80
2, 58331, Note_on_c, 0, 48, 80
2, 58402, Note_on_c, 0, 75, 80
2, 58402, Note_on_c, 0, 87, 80
2, 58434, Note_on_c, 0, 87, 0
2, 58434, Note_on_c, 0, 75, 0
2, 58436, Note_on_c, 0, 48, 0
2, 58436, Note_on_c, 0, 36, 0
2, 58439, Note_on_c, 0, 77, 80
2, 58439, Note_on_c, 0, 89, 80
2, 58440, Note_on_c, 0, 35, 80
2, 58440, Note_on_c, 0, 47, 80
2, 58505, Note_on_c, 0, 89, 0
2, 58505, Note_on_c, 0, 77, 0
2, 58510, Note_on_c, 0, 90, 80
2, 58512, Note_on_c, 0, 78, 80
2, 58541, Note_on_c, 0, 78, 0
2, 58541, Note_on_c, 0, 90, 0
2, 58543, Note_on_c, 0, 35, 0
2, 58543, Note_on_c, 0, 47, 0
2, 58546, Note_on_c, 0, 87, 80
2, 58546, Note_on_c, 0, 91, 80
2, 58548, Note_on_c, 0, 34, 80
2, 58548, Note_on_c, 0, 46, 80
2, 58548, Note_on_c, 0, 79, 80
2, 58587, Note_on_c, 0, 91, 0
2, 58587, Note_on_c, 0, 87, 0
2, 58589, Note_on_c, 0, 46, 0
2, 58589, Note_on_c, 0, 34, 0
2, 58589, Note_on_c, 0, 79, 0
2, 58658, Note_on_c, 0, 94, 80
2, 58660, Note_on_c, 0, 51, 80
2, 58660, Note_on_c, 0, 61, 80
2, 58660, Note_on_c, 0, 82, 80
2, 58669, Note_on_c, 0, 55, 80
2, 58680, Note_on_c, 0, 55, 0
2, 58680, Note_on_c, 0, 61, 0
2, 58680, Note_on_c, 0, 51, 0
2, 58689, Note_on_c, 0, 94, 0
2, 58689, Note_on_c, 0, 82, 0
2, 58730, Note_on_c, 0, 77, 80
2, 58730, Note_on_c, 0, 85, 80
2, 58730, Note_on_c, 0, 89, 80
2, 58764, Control_c, 0, 64, 127
2, 58773, Note_on_c, 0, 27, 80
2, 58773, Note_on_c, 0, 39, 80
2, 58802, Control_c, 0, 64, 0
2, 58811, Note_on_c, 0, 39, 0
2, 58813, Note_on_c, 0, 27, 0
2, 58838, Note_on_c, 0, 77, 0
2, 58838, Note_on_c, 0, 85, 0
2, 58838, Note_on_c, 0, 89, 0
2, 58845, Note_on_c, 0, 75, 80
2, 58876, Note_on_c, 0, 75, 0
2, 58883, Note_on_c, 0, 51, 80
2, 58883, Note_on_c, 0, 55, 80
2, 58883, Note_on_c, 0, 61, 80
2, 58883, Note_on_c, 0, 77, 80
2, 58904, Note_on_c, 0, 55, 0
2, 58906, Note_on_c, 0, 51, 0
2, 58906, Note_on_c, 0, 61, 0
2, 58951, Note_on_c, 0, 77, 0
2, 58956, Note_on_c, 0, 78, 80
2, 58986, Note_on_c, 0, 78, 0
2, 58992, Note_on_c, 0, 75, 80
2, 58992, Note_on_c, 0, 79, 80
2, 58994, Note_on_c, 0, 34, 80
2, 58994, Note_on_c, 0, 46, 80
2, 59029, Note_on_c, 0, 79, 0
2, 59031, Note_on_c, 0, 75, 0
2, 59033, Note_on_c, 0, 34, 0
2, 59033, Note_on_c, 0, 46, 0
2, 59102, Note_on_c, 0, 61, 80
2, 59102, Note_on_c, 0, 82, 80
2, 59104, Note_on_c, 0, 51, 80
2, 59104, Note_on_c, 0, 55, 80
2, 59124, Note_on_c, 0, 55, 0
2, 59124, Note_on_c, 0, 51, 0
2, 59124, Note_on_c, 0, 61, 0
2, 59133, Note_on_c, 0, 82, 0
2, 59174, Note_on_c, 0, 73, 80
2, 59174, Note_on_c, 0, 77, 80
2, 59208, Note_on_c, 0, 51, 80
2, 59210, Note_on_c, 0, 39, 80
2, 59268, Note_on_c, 0, 84, 80
2, 59273, Note_on_c, 0, 77, 0
2, 59273, Note_on_c, 0, 73, 0
2, 59280, Note_on_c, 0, 72, 80
2, 59307, Note_on_c, 0, 72, 0
2, 59307, Note_on_c, 0, 84, 0
2, 59309, Note_on_c, 0, 51, 0
2, 59311, Note_on_c, 0, 39, 0
2, 59314, Note_on_c, 0, 49, 80
2, 59314, Note_on_c, 0, 73, 80
2, 59314, Note_on_c, 0, 85, 80
2, 59316, Note_on_c, 0, 37, 80
2, 59380, Note_on_c, 0, 85, 0
2, 59380, Note_on_c, 0, 73, 0
2, 59385, Note_on_c, 0, 74, 80
2, 59385, Note_on_c, 0, 86, 80
2, 59415, Note_on_c, 0, 86, 0
2, 59417, Note_on_c, 0, 74, 0
2, 59417, Note_on_c, 0, 49, 0
2, 59419, Note_on_c, 0, 37, 0
2, 59422, Note_on_c, 0, 75, 80
2, 59422, Note_on_c, 0, 84, 80
2, 59422, Note_on_c, 0, 87, 80
2, 59424, Note_on_c, 0, 36, 80
2, 59424, Note_on_c, 0, 48, 80
2, 59460, Note_on_c, 0, 87, 0
2, 59460, Note_on_c, 0, 84, 0
2, 59462, Note_on_c, 0, 48, 0
2, 59462, Note_on_c, 0, 75, 0
2, 59464, Note_on_c, 0, 36, 0
2, 59528, Note_on_c, 0, 91, 80
2, 59530, Note_on_c, 0, 79, 80
2, 59532, Note_on_c, 0, 51, 80
2, 59532, Note_on_c, 0, 56, 80
2, 59532, Note_on_c, 0, 60, 80
2, 59552, Note_on_c, 0, 60, 0
2, 59552, Note_on_c, 0, 51, 0
2, 59552, Note_on_c, 0, 56, 0
2, 59559, Note_on_c, 0, 91, 0
2, 59568, Note_on_c, 0, 79, 0
2, 59601, Note_on_c, 0, 77, 80
2, 59601, Note_on_c, 0, 89, 80
2, 59603, Note_on_c, 0, 84, 80
2, 59642, Note_on_c, 0, 39, 80
2, 59644, Note_on_c, 0, 27, 80
2, 59681, Note_on_c, 0, 39, 0
2, 59683, Note_on_c, 0, 27, 0
2, 59706, Note_on_c, 0, 77, 0
2, 59706, Note_on_c, 0, 89, 0
2, 59706, Note_on_c, 0, 84, 0
2, 59712, Note_on_c, 0, 72, 80
2, 59744, Note_on_c, 0, 72, 0
2, 59749, Note_on_c, 0, 73, 80
2, 59751, Note_on_c, 0, 56, 80
2, 59751, Note_on_c, 0, 60, 80
2, 59753, Note_on_c, 0, 51, 80
2, 59773, Note_on_c, 0, 51, 0
2, 59773, Note_on_c, 0, 60, 0
2, 59773, Note_on_c, 0, 56, 0
2, 59818, Note_on_c, 0, 73, 0
2, 59823, Note_on_c, 0, 74, 80
2, 59853, Note_on_c, 0, 74, 0
2, 59861, Note_on_c, 0, 72, 80
2, 59861, Note_on_c, 0, 75, 80
2, 59863, Note_on_c, 0, 32, 80
2, 59863, Note_on_c, 0, 44, 80
2, 59902, Note_on_c, 0, 75, 0
2, 59902, Note_on_c, 0, 72, 0
2, 59904, Note_on_c, 0, 44, 0
2, 59912, Note_on_c, 0, 32, 0
2, 59969, Note_on_c, 0, 79, 80
2, 59971, Note_on_c, 0, 51, 80
2, 59971, Note_on_c, 0, 56, 80
2, 59971, Note_on_c, 0, 60, 80
2, 59991, Note_on_c, 0, 60, 0
2, 59991, Note_on_c, 0, 56, 0
2, 59991, Note_on_c, 0, 51, 0
2, 60000, Note_on_c, 0, 79, 0
2, 60041, Note_on_c, 0, 72, 80
2, 60041, Note_on_c, 0, 77, 80
2, 60079, Note_on_c, 0, 48, 80
2, 60081, Note_on_c, 0, 36, 80
2, 60116, Note_on_c, 0, 72, 0
2, 60118, Note_on_c, 0, 36, 0
2, 60118, Note_on_c, 0, 48, 0
2, 60141, Note_on_c, 0, 77, 0
2, 60145, Note_on_c, 0, 72, 80
2, 60145, Note_on_c, 0, 84, 80
2, 60173, Note_on_c, 0, 84, 0
2, 60173, Note_on_c, 0, 72, 0
2, 60182, Note_on_c, 0, 60, 80
2, 60182, Note_on_c, 0, 70, 80
2, 60182, Note_on_c, 0, 82, 80
2, 60184, Note_on_c, 0, 56, 80
2, 60186, Note_on_c, 0, 51, 80
2, 60204, Note_on_c, 0, 51, 0
2, 60204, Note_on_c, 0, 60, 0
2, 60204, Note_on_c, 0, 56, 0
2, 60245, Note_on_c, 0, 82, 0
2, 60245, Note_on_c, 0, 70, 0
2, 60254, Note_on_c, 0, 68, 80
2, 60254, Note_on_c, 0, 80, 80
2, 60282, Note_on_c, 0, 80, 0
2, 60282, Note_on_c, 0, 68, 0
2, 60287, Note_on_c, 0, 67, 80
2, 60287, Note_on_c, 0, 73, 80
2, 60287, Note_on_c, 0, 79, 80
2, 60289, Note_on_c, 0, 34, 80
2, 60289, Note_on_c, 0, 46, 80
2, 60328, Note_on_c, 0, 46, 0
2, 60330, Note_on_c, 0, 34, 0
2, 60353, Note_on_c, 0, 67, 0
2, 60353, Note_on_c, 0, 73, 0
2, 60360, Note_on_c, 0, 70, 80
2, 60360, Note_on_c, 0, 82, 80
2, 60361, Note_on_c, 0, 79, 0
2, 60389, Note_on_c, 0, 82, 0
2, 60389, Note_on_c, 0, 70, 0
2, 60394, Note_on_c, 0, 73, 80
2, 60394, Note_on_c, 0, 85, 80
2, 60396, Note_on_c, 0, 51, 80
2, 60396, Note_on_c, 0, 55, 80
2, 60396, Note_on_c, 0, 61, 80
2, 60416, Note_on_c, 0, 61, 0
2, 60418, Note_on_c, 0, 51, 0
2, 60418, Note_on_c, 0, 55, 0
2, 60461, Note_on_c, 0, 85, 0
2, 60463, Note_on_c, 0, 73, 0
2, 60468, Note_on_c, 0, 79, 80
2, 60468, Note_on_c, 0, 91, 80
2, 60496, Note_on_c, 0, 91, 0
2, 60503, Note_on_c, 0, 89, 80
2, 60505, Note_on_c, 0, 77, 80
2, 60507, Note_on_c, 0, 79, 0
2, 60507, Note_on_c, 0, 39, 80
2, 60509, Note_on_c, 0, 27, 80
2, 60548, Note_on_c, 0, 27, 0
2, 60548, Note_on_c, 0, 39, 0
2, 60571, Note_on_c, 0, 77, 0
2, 60571, Note_on_c, 0, 89, 0
2, 60576, Note_on_c, 0, 87, 80
2, 60577, Note_on_c, 0, 75, 80
2, 60609, Note_on_c, 0, 75, 0
2, 60609, Note_on_c, 0, 87, 0
2, 60614, Note_on_c, 0, 70, 80
2, 60614, Note_on_c, 0, 82, 80
2, 60616, Note_on_c, 0, 51, 80
2, 60616, Note_on_c, 0, 61, 80
2, 60618, Note_on_c, 0, 55, 80
2, 60638, Note_on_c, 0, 55, 0
2, 60638, Note_on_c, 0, 51, 0
2, 60638, Note_on_c, 0, 61, 0
2, 60683, Note_on_c, 0, 82, 0
2, 60685, Note_on_c, 0, 70, 0
2, 60690, Note_on_c, 0, 84, 80
2, 60692, Note_on_c, 0, 72, 80
2, 60721, Note_on_c, 0, 72, 0
2, 60721, Note_on_c, 0, 84, 0
2, 60728, Note_on_c, 0, 73, 80
2, 60728, Note_on_c, 0, 79, 80
2, 60728, Note_on_c, 0, 82, 80
2, 60728, Note_on_c, 0, 85, 80
2, 60731, Note_on_c, 0, 34, 80
2, 60731, Note_on_c, 0, 46, 80
2, 60766, Note_on_c, 0, 85, 0
2, 60766, Note_on_c, 0, 82, 0
2, 60766, Note_on_c, 0, 79, 0
2, 60768, Note_on_c, 0, 73, 0
2, 60769, Note_on_c, 0, 46, 0
2, 60771, Note_on_c, 0, 34, 0
2, 60834, Note_on_c, 0, 91, 80
2, 60837, Note_on_c, 0, 61, 80
2, 60837, Note_on_c, 0, 79, 80
2, 60839, Note_on_c, 0, 51, 80
2, 60848, Note_on_c, 0, 55, 80
2, 60860, Note_on_c, 0, 55, 0
2, 60860, Note_on_c, 0, 61, 0
2, 60860, Note_on_c, 0, 51, 0
2, 60864, Note_on_c, 0, 91, 0
2, 60876, Note_on_c, 0, 79, 0
2, 60909, Note_on_c, 0, 85, 80
2, 60909, Note_on_c, 0, 89, 80
2, 60912, Note_on_c, 0, 77, 80
2, 60948, Note_on_c, 0, 51, 80
2, 60950, Note_on_c, 0, 39, 80
2, 60986, Note_on_c, 0, 51, 0
2, 60988, Note_on_c, 0, 39, 0
2, 61011, Note_on_c, 0, 85, 0
2, 61011, Note_on_c, 0, 89, 0
2, 61013, Note_on_c, 0, 77, 0
2, 61016, Note_on_c, 0, 87, 80
2, 61018, Note_on_c, 0, 75, 80
2, 61046, Note_on_c, 0, 75, 0
2, 61046, Note_on_c, 0, 87, 0
2, 61053, Note_on_c, 0, 86, 80
2, 61055, Note_on_c, 0, 61, 80
2, 61055, Note_on_c, 0, 74, 80
2, 61056, Note_on_c, 0, 51, 80
2, 61056, Note_on_c, 0, 55, 80
2, 61077, Note_on_c, 0, 55, 0
2, 61077, Note_on_c, 0, 61, 0
2, 61079, Note_on_c, 0, 51, 0
2, 61118, Note_on_c, 0, 86, 0
2, 61120, Note_on_c, 0, 74, 0
2, 61125, Note_on_c, 0, 85, 80
2, 61127, Note_on_c, 0, 73, 80
2, 61154, Note_on_c, 0, 85, 0
2, 61156, Note_on_c, 0, 73, 0
2, 61161, Note_on_c, 0, 84, 80
2, 61163, Note_on_c, 0, 72, 80
2, 61165, Note_on_c, 0, 44, 80
2, 61165, Note_on_c, 0, 56, 80
2, 61203, Note_on_c, 0, 56, 0
2, 61203, Note_on_c, 0, 44, 0
2, 61228, Note_on_c, 0, 72, 0
2, 61228, Note_on_c, 0, 84, 0
2, 61235, Note_on_c, 0, 71, 80
2, 61235, Note_on_c, 0, 83, 80
2, 61265, Note_on_c, 0, 83, 0
2, 61265, Note_on_c, 0, 71, 0
2, 61270, Note_on_c, 0, 72, 80
2, 61270, Note_on_c, 0, 84, 80
2, 61272, Note_on_c, 0, 51, 80
2, 61272, Note_on_c, 0, 56, 80
2, 61272, Note_on_c, 0, 60, 80
2, 61292, Note_on_c, 0, 60, 0
2, 61292, Note_on_c, 0, 56, 0
2, 61294, Note_on_c, 0, 51, 0
2, 61335, Note_on_c, 0, 84, 0
2, 61337, Note_on_c, 0, 72, 0
2, 61342, Note_on_c, 0, 91, 80
2, 61344, Note_on_c, 0, 79, 80
2, 61371, Note_on_c, 0, 79, 0
2, 61371, Note_on_c, 0, 91, 0
2, 61378, Note_on_c, 0, 89, 80
2, 61380, Note_on_c, 0, 77, 80
2, 61382, Note_on_c, 0, 51, 80
2, 61384, Note_on_c, 0, 39, 80
2, 61422, Note_on_c, 0, 51, 0
2, 61424, Note_on_c, 0, 39, 0
2, 61444, Note_on_c, 0, 89, 0
2, 61446, Note_on_c, 0, 77, 0
2, 61451, Note_on_c, 0, 87, 80
2, 61453, Note_on_c, 0, 75, 80
2, 61481, Note_on_c, 0, 75, 0
2, 61481, Note_on_c, 0, 87, 0
2, 61488, Note_on_c, 0, 80, 80
2, 61489, Note_on_c, 0, 68, 80
2, 61491, Note_on_c, 0, 51, 80
2, 61491, Note_on_c, 0, 56, 80
2, 61491, Note_on_c, 0, 60, 80
2, 61512, Note_on_c, 0, 60, 0
2, 61512, Note_on_c, 0, 56, 0
2, 61513, Note_on_c, 0, 51, 0
2, 61557, Note_on_c, 0, 68, 0
2, 61557, Note_on_c, 0, 80, 0
2, 61561, Note_on_c, 0, 82, 80
2, 61563, Note_on_c, 0, 70, 80
2, 61593, Note_on_c, 0, 70, 0
2, 61593, Note_on_c, 0, 82, 0
2, 61598, Note_on_c, 0, 84, 80
2, 61600, Note_on_c, 0, 72, 80
2, 61600, Note_on_c, 0, 75, 80
2, 61600, Note_on_c, 0, 80, 80
2, 61602, Note_on_c, 0, 44, 80
2, 61602, Note_on_c, 0, 56, 80
2, 61636, Note_on_c, 0, 80, 0
2, 61636, Note_on_c, 0, 84, 0
2, 61638, Note_on_c, 0, 75, 0
2, 61638, Note_on_c, 0, 72, 0
2, 61638, Note_on_c, 0, 56, 0
2, 61641, Note_on_c, 0, 44, 0
2, 61709, Note_on_c, 0, 91, 80
2, 61711, Note_on_c, 0, 79, 80
2, 61713, Note_on_c, 0, 51, 80
2, 61713, Note_on_c, 0, 56, 80
2, 61713, Note_on_c, 0, 60, 80
2, 61731, Note_on_c, 0, 60, 0
2, 61731, Note_on_c, 0, 56, 0
2, 61733, Note_on_c, 0, 51, 0
2, 61738, Note_on_c, 0, 91, 0
2, 61740, Note_on_c, 0, 79, 0
2, 61781, Note_on_c, 0, 77, 80
2, 61781, Note_on_c, 0, 84, 80
2, 61781, Note_on_c, 0, 89, 80
2, 61788, Control_c, 0, 64, 127
2, 61820, Note_on_c, 0, 60, 80
2, 61822, Note_on_c, 0, 48, 80
2, 61853, Control_c, 0, 64, 0
2, 61885, Note_on_c, 0, 89, 0
2, 61885, Note_on_c, 0, 84, 0
2, 61887, Note_on_c, 0, 77, 0
2, 61890, Note_on_c, 0, 87, 80
2, 61892, Note_on_c, 0, 75, 80
2, 61919, Note_on_c, 0, 87, 0
2, 61920, Note_on_c, 0, 75, 0
2, 61922, Note_on_c, 0, 48, 0
2, 61922, Note_on_c, 0, 60, 0
2, 61924, Note_on_c, 0, 89, 80
2, 61926, Note_on_c, 0, 77, 80
2, 61928, Note_on_c, 0, 59, 80
2, 61930, Note_on_c, 0, 47, 80
2, 61990, Note_on_c, 0, 89, 0
2, 61992, Note_on_c, 0, 77, 0
2, 61996, Note_on_c, 0, 90, 80
2, 61998, Note_on_c, 0, 78, 80
2, 62026, Note_on_c, 0, 78, 0
2, 62026, Note_on_c, 0, 90, 0
2, 62028, Note_on_c, 0, 59, 0
2, 62030, Note_on_c, 0, 47, 0
2, 62032, Note_on_c, 0, 87, 80
2, 62032, Note_on_c, 0, 91, 80
2, 62034, Note_on_c, 0, 58, 80
2, 62034, Note_on_c, 0, 79, 80
2, 62037, Note_on_c, 0, 46, 80
2, 62069, Note_on_c, 0, 79, 0
2, 62069, Note_on_c, 0, 91, 0
2, 62069, Note_on_c, 0, 87, 0
2, 62071, Note_on_c, 0, 58, 0
2, 62073, Note_on_c, 0, 46, 0
2, 62139, Note_on_c, 0, 94, 80
2, 62141, Note_on_c, 0, 82, 80
2, 62143, Note_on_c, 0, 51, 80
2, 62143, Note_on_c, 0, 55, 80
2, 62143, Note_on_c, 0, 61, 80
2, 62164, Note_on_c, 0, 61, 0
2, 62164, Note_on_c, 0, 51, 0
2, 62164, Note_on_c, 0, 55, 0
2, 62169, Note_on_c, 0, 82, 0
2, 62169, Note_on_c, 0, 94, 0
2, 62212, Note_on_c, 0, 85, 80
2, 62212, Note_on_c, 0, 89, 80
2, 62214, Note_on_c, 0, 77, 80
2, 62246, Control_c, 0, 64, 127
2, 62253, Note_on_c, 0, 51, 80
2, 62255, Note_on_c, 0, 39, 80
2, 62282, Control_c, 0, 64, 0
2, 62289, Note_on_c, 0, 39, 0
2, 62289, Note_on_c, 0, 51, 0
2, 62312, Note_on_c, 0, 89, 0
2, 62314, Note_on_c, 0, 77, 0
2, 62314, Note_on_c, 0, 85, 0
2, 62321, Note_on_c, 0, 75, 80
2, 62349, Note_on_c, 0, 75, 0
2, 62355, Note_on_c, 0, 55, 80
2, 62355, Note_on_c, 0, 61, 80
2, 62355, Note_on_c, 0, 77, 80
2, 62358, Note_on_c, 0, 51, 80
2, 62376, Note_on_c, 0, 61, 0
2, 62378, Note_on_c, 0, 55, 0
2, 62378, Note_on_c, 0, 51, 0
2, 62422, Note_on_c, 0, 77, 0
2, 62426, Note_on_c, 0, 78, 80
2, 62458, Note_on_c, 0, 78, 0
2, 62467, Note_on_c, 0, 58, 80
2, 62467, Note_on_c, 0, 75, 80
2, 62467, Note_on_c, 0, 79, 80
2, 62469, Note_on_c, 0, 46, 80
2, 62505, Note_on_c, 0, 79, 0
2, 62505, Note_on_c, 0, 75, 0
2, 62507, Note_on_c, 0, 58, 0
2, 62509, Note_on_c, 0, 46, 0
2, 62575, Note_on_c, 0, 82, 80
2, 62578, Note_on_c, 0, 51, 80
2, 62578, Note_on_c, 0, 55, 80
2, 62578, Note_on_c, 0, 61, 80
2, 62598, Note_on_c, 0, 61, 0
2, 62598, Note_on_c, 0, 55, 0
2, 62598, Note_on_c, 0, 51, 0
2, 62607, Note_on_c, 0, 82, 0
2, 62650, Note_on_c, 0, 73, 80
2, 62650, Note_on_c, 0, 77, 80
2, 62689, Note_on_c, 0, 51, 80
2, 62691, Note_on_c, 0, 39, 80
2, 62753, Note_on_c, 0, 77, 0
2, 62753, Note_on_c, 0, 73, 0
2, 62758, Note_on_c, 0, 84, 80
2, 62760, Note_on_c, 0, 72, 80
2, 62787, Note_on_c, 0, 72, 0
2, 62787, Note_on_c, 0, 84, 0
2, 62790, Note_on_c, 0, 51, 0
2, 62790, Note_on_c, 0, 39, 0
2, 62793, Note_on_c, 0, 73, 80
2, 62793, Note_on_c, 0, 85, 80
2, 62796, Note_on_c, 0, 37, 80
2, 62796, Note_on_c, 0, 49, 80
2, 62860, Note_on_c, 0, 85, 0
2, 62860, Note_on_c, 0, 73, 0
2, 62867, Note_on_c, 0, 74, 80
2, 62867, Note_on_c, 0, 86, 80
2, 62897, Note_on_c, 0, 86, 0
2, 62897, Note_on_c, 0, 74, 0
2, 62900, Note_on_c, 0, 49, 0
2, 62902, Note_on_c, 0, 37, 0
2, 62902, Note_on_c, 0, 75, 80
2, 62902, Note_on_c, 0, 84, 80
2, 62902, Note_on_c, 0, 87, 80
2, 62904, Note_on_c, 0, 48, 80
2, 62906, Note_on_c, 0, 36, 80
2, 62941, Note_on_c, 0, 87, 0
2, 62941, Note_on_c, 0, 84, 0
2, 62943, Note_on_c, 0, 75, 0
2, 62945, Note_on_c, 0, 36, 0
2, 62945, Note_on_c, 0, 48, 0
2, 63013, Note_on_c, 0, 91, 80
2, 63015, Note_on_c, 0, 60, 80
2, 63015, Note_on_c, 0, 79, 80
2, 63017, Note_on_c, 0, 51, 80
2, 63017, Note_on_c, 0, 56, 80
2, 63037, Note_on_c, 0, 60, 0
2, 63039, Note_on_c, 0, 51, 0
2, 63039, Note_on_c, 0, 56, 0
2, 63044, Note_on_c, 0, 91, 0
2, 63053, Note_on_c, 0, 79, 0
2, 63086, Note_on_c, 0, 84, 80
2, 63086, Note_on_c, 0, 89, 80
2, 63088, Note_on_c, 0, 77, 80
2, 63127, Note_on_c, 0, 27, 80
2, 63127, Note_on_c, 0, 39, 80
2, 63145, Control_c, 0, 64, 127
2, 63164, Note_on_c, 0, 39, 0
2, 63166, Note_on_c, 0, 27, 0
2, 63184, Control_c, 0, 64, 0
2, 63187, Note_on_c, 0, 84, 0
2, 63187, Note_on_c, 0, 89, 0
2, 63189, Note_on_c, 0, 77, 0
2, 63193, Note_on_c, 0, 72, 80
2, 63225, Note_on_c, 0, 72, 0
2, 63232, Note_on_c, 0, 73, 80
2, 63234, Note_on_c, 0, 51, 80
2, 63234, Note_on_c, 0, 56, 80
2, 63234, Note_on_c, 0, 60, 80
2, 63254, Note_on_c, 0, 60, 0
2, 63254, Note_on_c, 0, 56, 0
2, 63254, Note_on_c, 0, 51, 0
2, 63297, Note_on_c, 0, 73, 0
2, 63304, Note_on_c, 0, 74, 80
2, 63334, Note_on_c, 0, 74, 0
2, 63340, Note_on_c, 0, 72, 80
2, 63340, Note_on_c, 0, 75, 80
2, 63343, Note_on_c, 0, 44, 80
2, 63345, Note_on_c, 0, 32, 80
2, 63378, Note_on_c, 0, 75, 0
2, 63378, Note_on_c, 0, 72, 0
2, 63380, Note_on_c, 0, 44, 0
2, 63391, Note_on_c, 0, 32, 0
2, 63446, Note_on_c, 0, 51, 80
2, 63446, Note_on_c, 0, 56, 80
2, 63446, Note_on_c, 0, 60, 80
2, 63446, Note_on_c, 0, 79, 80
2, 63467, Note_on_c, 0, 60, 0
2, 63467, Note_on_c, 0, 56, 0
2, 63469, Note_on_c, 0, 51, 0
2, 63476, Note_on_c, 0, 79, 0
2, 63519, Note_on_c, 0, 72, 80
2, 63519, Note_on_c, 0, 77, 80
2, 63557, Note_on_c, 0, 36, 80
2, 63557, Note_on_c, 0, 48, 80
2, 63620, Note_on_c, 0, 77, 0
2, 63620, Note_on_c, 0, 72, 0
2, 63622, Note_on_c, 0, 36, 0
2, 63622, Note_on_c, 0, 48, 0
2, 63624, Note_on_c, 0, 87, 80
2, 63626, Note_on_c, 0, 75, 80
2, 63656, Note_on_c, 0, 87, 0
2, 63658, Note_on_c, 0, 75, 0
2, 63663, Note_on_c, 0, 72, 80
2, 63663, Note_on_c, 0, 84, 80
2, 63665, Note_on_c, 0, 54, 80
2, 63665, Note_on_c, 0, 56, 80
2, 63665, Note_on_c, 0, 60, 80
2, 63685, Note_on_c, 0, 60, 0
2, 63687, Note_on_c, 0, 54, 0
2, 63687, Note_on_c, 0, 56, 0
2, 63730, Note_on_c, 0, 84, 0
2, 63730, Note_on_c, 0, 72, 0
2, 63735, Note_on_c, 0, 70, 80
2, 63735, Note_on_c, 0, 82, 80
2, 63767, Note_on_c, 0, 82, 0
2, 63767, Note_on_c, 0, 70, 0
2, 63773, Note_on_c, 0, 68, 80
2, 63773, Note_on_c, 0, 80, 80
2, 63776, Note_on_c, 0, 37, 80
2, 63776, Note_on_c, 0, 49, 80
2, 63796, Control_c, 0, 64, 127
2, 63840, Note_on_c, 0, 80, 0
2, 63840, Note_on_c, 0, 68, 0
2, 63846, Note_on_c, 0, 65, 80
2, 63846, Note_on_c, 0, 77, 80
2, 63861, Control_c, 0, 64, 0
2, 63875, Note_on_c, 0, 77, 0
2, 63877, Note_on_c, 0, 65, 0
2, 63880, Note_on_c, 0, 80, 80
2, 63882, Note_on_c, 0, 56, 80
2, 63882, Note_on_c, 0, 61, 80
2, 63882, Note_on_c, 0, 68, 80
2, 63884, Note_on_c, 0, 53, 80
2, 63904, Note_on_c, 0, 53, 0
2, 63904, Note_on_c, 0, 56, 0
2, 63904, Note_on_c, 0, 61, 0
2, 63945, Note_on_c, 0, 80, 0
2, 63947, Note_on_c, 0, 68, 0
2, 63950, Note_on_c, 0, 85, 80
2, 63952, Note_on_c, 0, 73, 80
2, 63982, Note_on_c, 0, 85, 0
2, 63984, Note_on_c, 0, 73, 0
2, 63985, Note_on_c, 0, 37, 0
2, 63985, Note_on_c, 0, 49, 0
2, 63988, Note_on_c, 0, 77, 80
2, 63988, Note_on_c, 0, 89, 80
2, 63990, Note_on_c, 0, 50, 80
2, 63990, Note_on_c, 0, 83, 80
2, 63992, Note_on_c, 0, 38, 80
2, 64050, Note_on_c, 0, 83, 0
2, 64050, Note_on_c, 0, 89, 0
2, 64052, Note_on_c, 0, 77, 0
2, 64055, Note_on_c, 0, 92, 80
2, 64056, Note_on_c, 0, 80, 80
2, 64082, Note_on_c, 0, 92, 0
2, 64084, Note_on_c, 0, 80, 0
2, 64089, Note_on_c, 0, 91, 80
2, 64091, Note_on_c, 0, 79, 80
2, 64091, Note_on_c, 0, 83, 80
2, 64093, Note_on_c, 0, 56, 80
2, 64093, Note_on_c, 0, 59, 80
2, 64093, Note_on_c, 0, 62, 80
2, 64114, Note_on_c, 0, 62, 0
2, 64114, Note_on_c, 0, 59, 0
2, 64114, Note_on_c, 0, 56, 0
2, 64155, Note_on_c, 0, 91, 0
2, 64157, Note_on_c, 0, 83, 0
2, 64162, Note_on_c, 0, 89, 80
2, 64164, Note_on_c, 0, 77, 80
2, 64167, Note_on_c, 0, 79, 0
2, 64193, Note_on_c, 0, 89, 0
2, 64193, Note_on_c, 0, 77, 0
2, 64195, Note_on_c, 0, 50, 0
2, 64195, Note_on_c, 0, 38, 0
2, 64198, Note_on_c, 0, 75, 80
2, 64198, Note_on_c, 0, 84, 80
2, 64198, Note_on_c, 0, 87, 80
2, 64200, Note_on_c, 0, 51, 80
2, 64201, Note_on_c, 0, 39, 80
2, 64240, Note_on_c, 0, 39, 0
2, 64240, Note_on_c, 0, 51, 0
2, 64265, Note_on_c, 0, 75, 0
2, 64265, Note_on_c, 0, 84, 0
2, 64265, Note_on_c, 0, 87, 0
2, 64308, Note_on_c, 0, 77, 80
2, 64308, Note_on_c, 0, 89, 80
2, 64310, Note_on_c, 0, 51, 80
2, 64310, Note_on_c, 0, 56, 80
2, 64310, Note_on_c, 0, 60, 80
2, 64331, Note_on_c, 0, 60, 0
2, 64331, Note_on_c, 0, 51, 0
2, 64331, Note_on_c, 0, 56, 0
2, 64340, Note_on_c, 0, 89, 0
2, 64340, Note_on_c, 0, 77, 0
2, 64379, Note_on_c, 0, 72, 80
2, 64379, Note_on_c, 0, 75, 80
2, 64379, Note_on_c, 0, 81, 80
2, 64379, Note_on_c, 0, 84, 80
2, 64418, Note_on_c, 0, 41, 80
2, 64418, Note_on_c, 0, 53, 80
2, 64457, Note_on_c, 0, 53, 0
2, 64457, Note_on_c, 0, 41, 0
2, 64480, Note_on_c, 0, 84, 0
2, 64482, Note_on_c, 0, 72, 0
2, 64482, Note_on_c, 0, 75, 0
2, 64482, Note_on_c, 0, 81, 0
2, 64487, Note_on_c, 0, 89, 80
2, 64488, Note_on_c, 0, 77, 80
2, 64520, Note_on_c, 0, 77, 0
2, 64520, Note_on_c, 0, 89, 0
2, 64525, Note_on_c, 0, 81, 80
2, 64525, Note_on_c, 0, 87, 80
2, 64527, Note_on_c, 0, 63, 80
2, 64527, Note_on_c, 0, 75, 80
2, 64529, Note_on_c, 0, 53, 80
2, 64529, Note_on_c, 0, 57, 80
2, 64549, Note_on_c, 0, 57, 0
2, 64549, Note_on_c, 0, 63, 0
2, 64551, Note_on_c, 0, 53, 0
2, 64594, Note_on_c, 0, 81, 0
2, 64594, Note_on_c, 0, 87, 0
2, 64594, Note_on_c, 0, 75, 0
2, 64599, Note_on_c, 0, 84, 80
2, 64601, Note_on_c, 0, 72, 80
2, 64631, Note_on_c, 0, 72, 0
2, 64631, Note_on_c, 0, 84, 0
2, 64637, Note_on_c, 0, 73, 80
2, 64637, Note_on_c, 0, 77, 80
2, 64637, Note_on_c, 0, 82, 80
2, 64637, Note_on_c, 0, 85, 80
2, 64639, Note_on_c, 0, 46, 80
2, 64641, Note_on_c, 0, 34, 80
2, 64678, Note_on_c, 0, 85, 0
2, 64678, Note_on_c, 0, 82, 0
2, 64680, Note_on_c, 0, 73, 0
2, 64680, Note_on_c, 0, 77, 0
2, 64681, Note_on_c, 0, 34, 0
2, 64681, Note_on_c, 0, 46, 0
2, 64751, Note_on_c, 0, 77, 80
2, 64751, Note_on_c, 0, 89, 80
2, 64752, Note_on_c, 0, 58, 80
2, 64752, Note_on_c, 0, 61, 80
2, 64754, Note_on_c, 0, 53, 80
2, 64773, Note_on_c, 0, 61, 0
2, 64773, Note_on_c, 0, 58, 0
2, 64775, Note_on_c, 0, 53, 0
2, 64781, Note_on_c, 0, 89, 0
2, 64783, Note_on_c, 0, 77, 0
2, 64824, Note_on_c, 0, 77, 80
2, 64826, Note_on_c, 0, 65, 80
2, 64854, Control_c, 0, 64, 127
2, 64863, Note_on_c, 0, 39, 80
2, 64863, Note_on_c, 0, 51, 80
2, 64893, Control_c, 0, 64, 0
2, 64901, Note_on_c, 0, 51, 0
2, 64901, Note_on_c, 0, 39, 0
2, 64927, Note_on_c, 0, 65, 0
2, 64927, Note_on_c, 0, 77, 0
2, 64932, Note_on_c, 0, 72, 80
2, 64932, Note_on_c, 0, 84, 80
2, 64964, Note_on_c, 0, 84, 0
2, 64964, Note_on_c, 0, 72, 0
2, 64968, Note_on_c, 0, 82, 80
2, 64970, Note_on_c, 0, 39, 80
2, 64970, Note_on_c, 0, 55, 80
2, 64970, Note_on_c, 0, 61, 80
2, 64970, Note_on_c, 0, 70, 80
2, 64970, Note_on_c, 0, 73, 80
2, 64970, Note_on_c, 0, 79, 80
2, 65067, Note_on_c, 0, 79, 0
2, 65067, Note_on_c, 0, 82, 0
2, 65069, Note_on_c, 0, 55, 0
2, 65069, Note_on_c, 0, 61, 0
2, 65069, Note_on_c, 0, 39, 0
2, 65069, Note_on_c, 0, 73, 0
2, 65069, Note_on_c, 0, 70, 0
2, 65074, Note_on_c, 0, 68, 80
2, 65074, Note_on_c, 0, 72, 80
2, 65074, Note_on_c, 0, 75, 80
2, 65074, Note_on_c, 0, 80, 80
2, 65076, Note_on_c, 0, 44, 80
2, 65076, Note_on_c, 0, 51, 80
2, 65076, Note_on_c, 0, 60, 80
2, 65140, Note_on_c, 0, 60, 0
2, 65140, Note_on_c, 0, 44, 0
2, 65140, Note_on_c, 0, 72, 0
2, 65140, Note_on_c, 0, 75, 0
2, 65140, Note_on_c, 0, 68, 0
2, 65140, Note_on_c, 0, 51, 0
2, 65140, Note_on_c, 0, 80, 0
2, 65182, Note_on_c, 0, 39, 80
2, 65182, Note_on_c, 0, 51, 80
2, 65182, Note_on_c, 0, 75, 80
2, 65182, Note_on_c, 0, 79, 80
2, 65182, Note_on_c, 0, 82, 80
2, 65182, Note_on_c, 0, 85, 80
2, 65182, Note_on_c, 0, 87, 80
2, 65219, Note_on_c, 0, 87, 0
2, 65219, Note_on_c, 0, 82, 0
2, 65219, Note_on_c, 0, 51, 0
2, 65219, Note_on_c, 0, 39, 0
2, 65219, Note_on_c, 0, 75, 0
2, 65219, Note_on_c, 0, 85, 0
2, 65229, Note_on_c, 0, 79, 0
2, 65288, Note_on_c, 0, 80, 80
2, 65288, Note_on_c, 0, 84, 80
2, 65288, Note_on_c, 0, 87, 80
2, 65288, Note_on_c, 0, 92, 80
2, 65290, Note_on_c, 0, 32, 80
2, 65290, Note_on_c, 0, 44, 80
2, 65328, Note_on_c, 0, 92, 0
2, 65328, Note_on_c, 0, 87, 0
2, 65328, Note_on_c, 0, 80, 0
2, 65328, Note_on_c, 0, 84, 0
2, 65329, Note_on_c, 0, 44, 0
2, 65339, Note_on_c, 0, 32, 0
2, 65339, End_track
3, 0, Start_track
3, 0, Title_t, "c/b James Scott "
3, 0, End_track
4, 0, Start_track
4, 0, Title_t, "p/b J. Lawrence Cook"
4, 0, End_track
5, 0, Start_track
5, 0, Title_t, "QRS # 9762"
5, 0, End_track
6, 0, Start_track
6, 0, Title_t, "Scan of a player piano roll"
6, 0, End_track
7, 0, Start_track
7, 0, Title_t, "by Terry Smythe, Winnipeg, Canada"
7, 0, End_track
8, 0, Start_track
8, 1, Copyright_t, "___________________________________________________\012\012KUNSTDERFUGE.COM LARGE CLASSICAL MIDI COLLECTION\012ONCLASSICAL BY ALESSANDRO SIMONETTO, PROPRIETOR\012___________________________________________________\012\012! Attention: this file is under copyright !\012\012(c)onclassical, (nc)smythe, 2010\012___________________________________________________\012\012NO ONE MAY REPUBLISH THIS FILE WITHOUT PERMISSION\012COMMERCIAL USES OF THIS FILE IS STRICTLY PROHIBITED\012___________________________________________________\012\012Files & contributor's list: http://kunstderfuge.com/\012Terms and conditions: http://kunstderfuge.com/notes.htm"
8, 1, End_track
0, 0, End_of_file
