0, 0, Header, 1, 8, 192
1, 0, Start_track
1, 0, Title_t, "12623S"
1, 0, Copyright_t, "May NOT be used for commercial purposes."
1, 0, Text_t, "Roll expression/accent tracks, where present, converted to MIDI velocties.\012"
1, 0, Time_signature, 4, 2, 24, 8
1, 0, Key_signature, 0, "major"
1, 0, Tempo, 500000
1, 0, Marker_t, "Standard MIDI:LPI 115:Tempo  65: 11-04-2003"
1, 0, End_track
2, 0, Start_track
2, 0, Title_t, "Gladiolus Rag (1911)"
2, 76, Note_on_c, 0, 40, 80
2, 76, Note_on_c, 0, 52, 80
2, 197, Note_on_c, 0, 52, 0
2, 197, Note_on_c, 0, 57, 80
2, 200, Note_on_c, 0, 40, 0
2, 200, Note_on_c, 0, 45, 80
2, 234, Control_c, 0, 64, 127
2, 257, Note_on_c, 0, 85, 80
2, 257, Note_on_c, 0, 97, 80
2, 260, Note_on_c, 0, 76, 80
2, 295, Note_on_c, 0, 97, 0
2, 295, Note_on_c, 0, 85, 0
2, 298, Note_on_c, 0, 76, 0
2, 316, Note_on_c, 0, 81, 80
2, 316, Note_on_c, 0, 93, 80
2, 319, Note_on_c, 0, 57, 0
2, 319, Note_on_c, 0, 61, 80
2, 319, Note_on_c, 0, 64, 80
2, 319, Note_on_c, 0, 69, 80
2, 319, Note_on_c, 0, 73, 80
2, 322, Note_on_c, 0, 45, 0
2, 342, Control_c, 0, 64, 0
2, 345, Note_on_c, 0, 73, 0
2, 353, Note_on_c, 0, 93, 0
2, 356, Note_on_c, 0, 81, 0
2, 376, Note_on_c, 0, 90, 80
2, 379, Note_on_c, 0, 73, 80
2, 379, Note_on_c, 0, 78, 80
2, 389, Note_on_c, 0, 61, 0
2, 389, Note_on_c, 0, 69, 0
2, 389, Note_on_c, 0, 64, 0
2, 415, Note_on_c, 0, 90, 0
2, 415, Note_on_c, 0, 78, 0
2, 438, Note_on_c, 0, 75, 80
2, 438, Note_on_c, 0, 87, 80
2, 441, Note_on_c, 0, 52, 80
2, 441, Note_on_c, 0, 40, 80
2, 475, Note_on_c, 0, 87, 0
2, 475, Control_c, 0, 64, 127
2, 478, Note_on_c, 0, 75, 0
2, 496, Note_on_c, 0, 76, 80
2, 496, Note_on_c, 0, 88, 80
2, 534, Note_on_c, 0, 88, 0
2, 537, Note_on_c, 0, 76, 0
2, 552, Note_on_c, 0, 73, 0
2, 552, Note_on_c, 0, 81, 80
2, 555, Note_on_c, 0, 52, 0
2, 555, Note_on_c, 0, 57, 80
2, 555, Note_on_c, 0, 61, 80
2, 555, Note_on_c, 0, 64, 80
2, 555, Note_on_c, 0, 69, 80
2, 558, Note_on_c, 0, 40, 0
2, 578, Control_c, 0, 64, 0
2, 594, Note_on_c, 0, 81, 0
2, 594, Note_on_c, 0, 69, 0
2, 612, Note_on_c, 0, 71, 80
2, 612, Note_on_c, 0, 83, 80
2, 623, Note_on_c, 0, 61, 0
2, 623, Note_on_c, 0, 64, 0
2, 625, Note_on_c, 0, 57, 0
2, 651, Note_on_c, 0, 83, 0
2, 654, Note_on_c, 0, 71, 0
2, 674, Note_on_c, 0, 72, 80
2, 674, Note_on_c, 0, 84, 80
2, 677, Note_on_c, 0, 42, 80
2, 677, Note_on_c, 0, 54, 80
2, 677, Note_on_c, 0, 57, 80
2, 677, Note_on_c, 0, 61, 80
2, 677, Note_on_c, 0, 63, 80
2, 713, Note_on_c, 0, 72, 0
2, 733, Note_on_c, 0, 68, 80
2, 733, Note_on_c, 0, 80, 80
2, 771, Note_on_c, 0, 80, 0
2, 774, Note_on_c, 0, 68, 0
2, 792, Note_on_c, 0, 81, 80
2, 795, Note_on_c, 0, 53, 80
2, 795, Note_on_c, 0, 69, 80
2, 798, Note_on_c, 0, 41, 80
2, 803, Note_on_c, 0, 42, 0
2, 803, Note_on_c, 0, 54, 0
2, 821, Note_on_c, 0, 63, 0
2, 821, Note_on_c, 0, 61, 0
2, 824, Note_on_c, 0, 57, 0
2, 832, Note_on_c, 0, 69, 0
2, 832, Note_on_c, 0, 81, 0
2, 850, Note_on_c, 0, 83, 80
2, 855, Note_on_c, 0, 56, 80
2, 855, Note_on_c, 0, 59, 80
2, 855, Note_on_c, 0, 62, 80
2, 855, Note_on_c, 0, 68, 80
2, 855, Note_on_c, 0, 71, 80
2, 860, Note_on_c, 0, 84, 0
2, 916, Note_on_c, 0, 52, 80
2, 919, Note_on_c, 0, 40, 80
2, 927, Note_on_c, 0, 53, 0
2, 927, Note_on_c, 0, 41, 0
2, 973, Note_on_c, 0, 83, 0
2, 976, Note_on_c, 0, 71, 0
2, 976, Note_on_c, 0, 64, 80
2, 976, Note_on_c, 0, 76, 80
2, 996, Note_on_c, 0, 62, 0
2, 996, Note_on_c, 0, 68, 0
2, 996, Note_on_c, 0, 56, 0
2, 996, Note_on_c, 0, 59, 0
2, 1004, Note_on_c, 0, 76, 0
2, 1007, Note_on_c, 0, 64, 0
2, 1007, Note_on_c, 0, 52, 0
2, 1009, Note_on_c, 0, 40, 0
2, 1032, Note_on_c, 0, 88, 80
2, 1035, Note_on_c, 0, 68, 80
2, 1035, Note_on_c, 0, 76, 80
2, 1038, Note_on_c, 0, 52, 80
2, 1038, Note_on_c, 0, 56, 80
2, 1038, Note_on_c, 0, 59, 80
2, 1038, Note_on_c, 0, 62, 80
2, 1038, Note_on_c, 0, 64, 80
2, 1041, Note_on_c, 0, 40, 80
2, 1075, Note_on_c, 0, 88, 0
2, 1095, Note_on_c, 0, 86, 80
2, 1098, Note_on_c, 0, 74, 80
2, 1136, Note_on_c, 0, 86, 0
2, 1139, Note_on_c, 0, 74, 0
2, 1157, Note_on_c, 0, 76, 0
2, 1160, Note_on_c, 0, 68, 0
2, 1160, Note_on_c, 0, 62, 0
2, 1160, Note_on_c, 0, 56, 0
2, 1160, Note_on_c, 0, 52, 0
2, 1160, Note_on_c, 0, 64, 0
2, 1160, Note_on_c, 0, 59, 0
2, 1160, Note_on_c, 0, 57, 80
2, 1163, Note_on_c, 0, 40, 0
2, 1163, Note_on_c, 0, 45, 80
2, 1199, Control_c, 0, 64, 127
2, 1217, Note_on_c, 0, 85, 80
2, 1217, Note_on_c, 0, 97, 80
2, 1222, Note_on_c, 0, 76, 80
2, 1257, Note_on_c, 0, 97, 0
2, 1257, Note_on_c, 0, 85, 0
2, 1260, Note_on_c, 0, 76, 0
2, 1280, Note_on_c, 0, 73, 80
2, 1280, Note_on_c, 0, 81, 80
2, 1280, Note_on_c, 0, 93, 80
2, 1283, Note_on_c, 0, 45, 0
2, 1283, Note_on_c, 0, 57, 0
2, 1283, Note_on_c, 0, 61, 80
2, 1283, Note_on_c, 0, 64, 80
2, 1283, Note_on_c, 0, 69, 80
2, 1309, Control_c, 0, 64, 0
2, 1314, Note_on_c, 0, 73, 0
2, 1319, Note_on_c, 0, 93, 0
2, 1321, Note_on_c, 0, 81, 0
2, 1342, Note_on_c, 0, 90, 80
2, 1344, Note_on_c, 0, 73, 80
2, 1344, Note_on_c, 0, 78, 80
2, 1352, Note_on_c, 0, 69, 0
2, 1352, Note_on_c, 0, 64, 0
2, 1355, Note_on_c, 0, 61, 0
2, 1383, Note_on_c, 0, 90, 0
2, 1386, Note_on_c, 0, 78, 0
2, 1406, Note_on_c, 0, 87, 80
2, 1411, Note_on_c, 0, 52, 80
2, 1411, Note_on_c, 0, 75, 80
2, 1414, Note_on_c, 0, 40, 80
2, 1447, Note_on_c, 0, 87, 0
2, 1447, Control_c, 0, 64, 127
2, 1450, Note_on_c, 0, 75, 0
2, 1470, Note_on_c, 0, 76, 80
2, 1470, Note_on_c, 0, 88, 80
2, 1509, Note_on_c, 0, 88, 0
2, 1509, Note_on_c, 0, 73, 0
2, 1509, Note_on_c, 0, 76, 0
2, 1529, Note_on_c, 0, 81, 80
2, 1532, Note_on_c, 0, 52, 0
2, 1532, Note_on_c, 0, 57, 80
2, 1532, Note_on_c, 0, 61, 80
2, 1532, Note_on_c, 0, 64, 80
2, 1532, Note_on_c, 0, 69, 80
2, 1535, Note_on_c, 0, 40, 0
2, 1553, Control_c, 0, 64, 0
2, 1568, Note_on_c, 0, 81, 0
2, 1571, Note_on_c, 0, 69, 0
2, 1589, Note_on_c, 0, 71, 80
2, 1589, Note_on_c, 0, 83, 80
2, 1600, Note_on_c, 0, 61, 0
2, 1600, Note_on_c, 0, 64, 0
2, 1603, Note_on_c, 0, 57, 0
2, 1629, Note_on_c, 0, 83, 0
2, 1629, Note_on_c, 0, 71, 0
2, 1649, Note_on_c, 0, 72, 80
2, 1649, Note_on_c, 0, 84, 80
2, 1652, Note_on_c, 0, 54, 80
2, 1652, Note_on_c, 0, 57, 80
2, 1652, Note_on_c, 0, 60, 80
2, 1652, Note_on_c, 0, 63, 80
2, 1655, Note_on_c, 0, 42, 80
2, 1711, Note_on_c, 0, 72, 0
2, 1711, Note_on_c, 0, 68, 80
2, 1711, Note_on_c, 0, 80, 80
2, 1768, Note_on_c, 0, 80, 0
2, 1768, Note_on_c, 0, 68, 0
2, 1768, Note_on_c, 0, 81, 80
2, 1771, Note_on_c, 0, 41, 80
2, 1771, Note_on_c, 0, 53, 80
2, 1771, Note_on_c, 0, 69, 80
2, 1781, Note_on_c, 0, 42, 0
2, 1781, Note_on_c, 0, 54, 0
2, 1800, Note_on_c, 0, 84, 0
2, 1827, Note_on_c, 0, 81, 0
2, 1830, Note_on_c, 0, 60, 0
2, 1830, Note_on_c, 0, 57, 0
2, 1830, Note_on_c, 0, 69, 0
2, 1830, Note_on_c, 0, 63, 0
2, 1830, Note_on_c, 0, 56, 80
2, 1830, Note_on_c, 0, 59, 80
2, 1830, Note_on_c, 0, 62, 80
2, 1830, Note_on_c, 0, 68, 80
2, 1830, Note_on_c, 0, 71, 80
2, 1830, Note_on_c, 0, 83, 80
2, 1890, Note_on_c, 0, 40, 80
2, 1890, Note_on_c, 0, 52, 80
2, 1900, Note_on_c, 0, 53, 0
2, 1900, Note_on_c, 0, 41, 0
2, 1952, Note_on_c, 0, 83, 0
2, 1955, Note_on_c, 0, 59, 0
2, 1955, Note_on_c, 0, 68, 0
2, 1955, Note_on_c, 0, 56, 0
2, 1955, Note_on_c, 0, 62, 0
2, 1955, Note_on_c, 0, 71, 0
2, 1958, Note_on_c, 0, 40, 0
2, 1958, Note_on_c, 0, 52, 0
2, 2010, Note_on_c, 0, 47, 80
2, 2010, Note_on_c, 0, 59, 80
2, 2048, Note_on_c, 0, 59, 0
2, 2048, Note_on_c, 0, 47, 0
2, 2071, Note_on_c, 0, 61, 80
2, 2074, Note_on_c, 0, 49, 80
2, 2110, Note_on_c, 0, 49, 0
2, 2110, Note_on_c, 0, 61, 0
2, 2133, Note_on_c, 0, 54, 80
2, 2136, Note_on_c, 0, 42, 80
2, 2166, Control_c, 0, 64, 127
2, 2251, Note_on_c, 0, 66, 80
2, 2251, Note_on_c, 0, 68, 80
2, 2251, Note_on_c, 0, 71, 80
2, 2251, Note_on_c, 0, 74, 80
2, 2251, Note_on_c, 0, 78, 80
2, 2251, Note_on_c, 0, 80, 80
2, 2251, Note_on_c, 0, 86, 80
2, 2304, Control_c, 0, 64, 0
2, 2328, Note_on_c, 0, 80, 0
2, 2328, Note_on_c, 0, 71, 0
2, 2328, Note_on_c, 0, 68, 0
2, 2369, Note_on_c, 0, 85, 80
2, 2372, Note_on_c, 0, 77, 80
2, 2372, Note_on_c, 0, 80, 80
2, 2375, Note_on_c, 0, 65, 80
2, 2375, Note_on_c, 0, 68, 80
2, 2375, Note_on_c, 0, 71, 80
2, 2375, Note_on_c, 0, 73, 80
2, 2379, Note_on_c, 0, 86, 0
2, 2382, Note_on_c, 0, 74, 0
2, 2382, Note_on_c, 0, 66, 0
2, 2382, Note_on_c, 0, 78, 0
2, 2442, Note_on_c, 0, 80, 0
2, 2442, Note_on_c, 0, 77, 0
2, 2442, Note_on_c, 0, 71, 0
2, 2442, Note_on_c, 0, 85, 0
2, 2442, Note_on_c, 0, 73, 0
2, 2442, Note_on_c, 0, 68, 0
2, 2445, Note_on_c, 0, 65, 0
2, 2445, Note_on_c, 0, 42, 0
2, 2445, Note_on_c, 0, 54, 0
2, 2496, Note_on_c, 0, 47, 80
2, 2496, Note_on_c, 0, 59, 80
2, 2535, Note_on_c, 0, 59, 0
2, 2535, Note_on_c, 0, 47, 0
2, 2558, Note_on_c, 0, 49, 80
2, 2558, Note_on_c, 0, 61, 80
2, 2596, Note_on_c, 0, 61, 0
2, 2599, Note_on_c, 0, 49, 0
2, 2619, Note_on_c, 0, 54, 80
2, 2622, Note_on_c, 0, 42, 80
2, 2656, Control_c, 0, 64, 127
2, 2743, Note_on_c, 0, 83, 80
2, 2743, Note_on_c, 0, 90, 80
2, 2746, Note_on_c, 0, 62, 80
2, 2746, Note_on_c, 0, 66, 80
2, 2746, Note_on_c, 0, 68, 80
2, 2746, Note_on_c, 0, 71, 80
2, 2746, Note_on_c, 0, 78, 80
2, 2746, Note_on_c, 0, 80, 80
2, 2769, Control_c, 0, 64, 0
2, 2826, Note_on_c, 0, 80, 0
2, 2826, Note_on_c, 0, 71, 0
2, 2826, Note_on_c, 0, 68, 0
2, 2826, Note_on_c, 0, 83, 0
2, 2867, Note_on_c, 0, 77, 80
2, 2867, Note_on_c, 0, 83, 80
2, 2867, Note_on_c, 0, 89, 80
2, 2870, Note_on_c, 0, 61, 80
2, 2870, Note_on_c, 0, 65, 80
2, 2870, Note_on_c, 0, 68, 80
2, 2870, Note_on_c, 0, 71, 80
2, 2870, Note_on_c, 0, 80, 80
2, 2875, Note_on_c, 0, 90, 0
2, 2878, Note_on_c, 0, 78, 0
2, 2878, Note_on_c, 0, 62, 0
2, 2878, Note_on_c, 0, 66, 0
2, 2931, Note_on_c, 0, 89, 0
2, 2931, Note_on_c, 0, 83, 0
2, 2931, Note_on_c, 0, 77, 0
2, 2934, Note_on_c, 0, 54, 0
2, 2934, Note_on_c, 0, 42, 0
2, 2934, Note_on_c, 0, 71, 0
2, 2934, Note_on_c, 0, 80, 0
2, 2934, Note_on_c, 0, 65, 0
2, 2934, Note_on_c, 0, 68, 0
2, 2934, Note_on_c, 0, 61, 0
2, 3109, Note_on_c, 0, 54, 80
2, 3112, Note_on_c, 0, 30, 80
2, 3112, Note_on_c, 0, 42, 80
2, 3168, Note_on_c, 0, 56, 80
2, 3171, Note_on_c, 0, 32, 80
2, 3171, Note_on_c, 0, 44, 80
2, 3182, Note_on_c, 0, 30, 0
2, 3228, Note_on_c, 0, 57, 80
2, 3231, Note_on_c, 0, 33, 80
2, 3231, Note_on_c, 0, 45, 80
2, 3239, Note_on_c, 0, 56, 0
2, 3239, Note_on_c, 0, 44, 0
2, 3241, Note_on_c, 0, 32, 0
2, 3288, Note_on_c, 0, 49, 80
2, 3288, Note_on_c, 0, 61, 80
2, 3290, Note_on_c, 0, 37, 80
2, 3298, Note_on_c, 0, 33, 0
2, 3306, Note_on_c, 0, 54, 0
2, 3306, Note_on_c, 0, 42, 0
2, 3341, Note_on_c, 0, 45, 0
2, 3341, Note_on_c, 0, 42, 80
2, 3341, Note_on_c, 0, 54, 80
2, 3341, Note_on_c, 0, 66, 80
2, 3344, Note_on_c, 0, 37, 0
2, 3401, Note_on_c, 0, 44, 80
2, 3401, Note_on_c, 0, 56, 80
2, 3401, Note_on_c, 0, 68, 80
2, 3408, Note_on_c, 0, 57, 0
2, 3411, Note_on_c, 0, 42, 0
2, 3457, Note_on_c, 0, 45, 80
2, 3457, Note_on_c, 0, 57, 80
2, 3457, Note_on_c, 0, 69, 80
2, 3465, Note_on_c, 0, 68, 0
2, 3468, Note_on_c, 0, 56, 0
2, 3468, Note_on_c, 0, 44, 0
2, 3476, Note_on_c, 0, 61, 0
2, 3479, Note_on_c, 0, 49, 0
2, 3514, Note_on_c, 0, 73, 80
2, 3517, Note_on_c, 0, 49, 80
2, 3517, Note_on_c, 0, 61, 80
2, 3528, Note_on_c, 0, 45, 0
2, 3538, Note_on_c, 0, 54, 0
2, 3549, Note_on_c, 0, 66, 0
2, 3576, Note_on_c, 0, 61, 0
2, 3576, Note_on_c, 0, 69, 0
2, 3576, Note_on_c, 0, 73, 0
2, 3576, Note_on_c, 0, 66, 80
2, 3579, Note_on_c, 0, 49, 0
2, 3579, Note_on_c, 0, 54, 80
2, 3582, Note_on_c, 0, 42, 80
2, 3590, Note_on_c, 0, 57, 0
2, 3642, Note_on_c, 0, 56, 80
2, 3642, Note_on_c, 0, 68, 80
2, 3645, Note_on_c, 0, 44, 80
2, 3655, Note_on_c, 0, 42, 0
2, 3701, Note_on_c, 0, 69, 80
2, 3704, Note_on_c, 0, 45, 80
2, 3704, Note_on_c, 0, 57, 80
2, 3712, Note_on_c, 0, 68, 0
2, 3712, Note_on_c, 0, 56, 0
2, 3715, Note_on_c, 0, 44, 0
2, 3764, Note_on_c, 0, 73, 80
2, 3767, Note_on_c, 0, 61, 80
2, 3769, Note_on_c, 0, 49, 80
2, 3788, Note_on_c, 0, 45, 0
2, 3795, Note_on_c, 0, 66, 0
2, 3798, Note_on_c, 0, 54, 0
2, 3829, Note_on_c, 0, 66, 80
2, 3829, Note_on_c, 0, 78, 80
2, 3832, Note_on_c, 0, 54, 80
2, 3842, Note_on_c, 0, 49, 0
2, 3861, Note_on_c, 0, 69, 0
2, 3891, Note_on_c, 0, 56, 80
2, 3891, Note_on_c, 0, 68, 80
2, 3891, Note_on_c, 0, 80, 80
2, 3912, Note_on_c, 0, 57, 0
2, 3953, Note_on_c, 0, 69, 80
2, 3953, Note_on_c, 0, 81, 80
2, 3956, Note_on_c, 0, 57, 80
2, 3963, Note_on_c, 0, 80, 0
2, 3963, Note_on_c, 0, 68, 0
2, 3974, Note_on_c, 0, 61, 0
2, 3974, Note_on_c, 0, 56, 0
2, 3984, Note_on_c, 0, 73, 0
2, 4015, Note_on_c, 0, 61, 80
2, 4015, Note_on_c, 0, 73, 80
2, 4015, Note_on_c, 0, 85, 80
2, 4035, Note_on_c, 0, 69, 0
2, 4043, Note_on_c, 0, 78, 0
2, 4046, Note_on_c, 0, 66, 0
2, 4074, Note_on_c, 0, 85, 0
2, 4074, Note_on_c, 0, 81, 0
2, 4074, Note_on_c, 0, 90, 80
2, 4077, Note_on_c, 0, 57, 0
2, 4077, Note_on_c, 0, 73, 0
2, 4077, Note_on_c, 0, 61, 0
2, 4077, Note_on_c, 0, 54, 0
2, 4077, Note_on_c, 0, 63, 80
2, 4077, Note_on_c, 0, 66, 80
2, 4077, Note_on_c, 0, 69, 80
2, 4077, Note_on_c, 0, 72, 80
2, 4077, Note_on_c, 0, 78, 80
2, 4112, Control_c, 0, 64, 127
2, 4148, Note_on_c, 0, 72, 0
2, 4148, Note_on_c, 0, 69, 0
2, 4148, Note_on_c, 0, 66, 0
2, 4148, Note_on_c, 0, 63, 0
2, 4200, Note_on_c, 0, 90, 0
2, 4200, Note_on_c, 0, 78, 0
2, 4200, Note_on_c, 0, 80, 80
2, 4200, Note_on_c, 0, 92, 80
2, 4202, Note_on_c, 0, 63, 80
2, 4202, Note_on_c, 0, 66, 80
2, 4202, Note_on_c, 0, 69, 80
2, 4202, Note_on_c, 0, 72, 80
2, 4225, Control_c, 0, 64, 0
2, 4261, Note_on_c, 0, 92, 0
2, 4264, Note_on_c, 0, 80, 0
2, 4264, Note_on_c, 0, 78, 80
2, 4264, Note_on_c, 0, 90, 80
2, 4274, Note_on_c, 0, 69, 0
2, 4274, Note_on_c, 0, 63, 0
2, 4274, Note_on_c, 0, 66, 0
2, 4274, Note_on_c, 0, 72, 0
2, 4323, Note_on_c, 0, 72, 80
2, 4326, Note_on_c, 0, 63, 80
2, 4326, Note_on_c, 0, 66, 80
2, 4326, Note_on_c, 0, 69, 80
2, 4362, Control_c, 0, 64, 127
2, 4385, Note_on_c, 0, 90, 0
2, 4385, Note_on_c, 0, 78, 0
2, 4385, Note_on_c, 0, 80, 80
2, 4385, Note_on_c, 0, 92, 80
2, 4397, Note_on_c, 0, 66, 0
2, 4397, Note_on_c, 0, 72, 0
2, 4397, Note_on_c, 0, 63, 0
2, 4397, Note_on_c, 0, 69, 0
2, 4446, Note_on_c, 0, 92, 0
2, 4446, Note_on_c, 0, 80, 0
2, 4446, Note_on_c, 0, 90, 80
2, 4449, Note_on_c, 0, 63, 80
2, 4449, Note_on_c, 0, 66, 80
2, 4449, Note_on_c, 0, 69, 80
2, 4449, Note_on_c, 0, 72, 80
2, 4449, Note_on_c, 0, 78, 80
2, 4472, Control_c, 0, 64, 0
2, 4475, Note_on_c, 0, 78, 0
2, 4475, Note_on_c, 0, 90, 0
2, 4506, Note_on_c, 0, 78, 80
2, 4506, Note_on_c, 0, 90, 80
2, 4516, Note_on_c, 0, 69, 0
2, 4516, Note_on_c, 0, 72, 0
2, 4516, Note_on_c, 0, 66, 0
2, 4519, Note_on_c, 0, 63, 0
2, 4571, Note_on_c, 0, 64, 80
2, 4571, Note_on_c, 0, 69, 80
2, 4571, Note_on_c, 0, 73, 80
2, 4607, Control_c, 0, 64, 127
2, 4627, Note_on_c, 0, 90, 0
2, 4630, Note_on_c, 0, 78, 0
2, 4630, Note_on_c, 0, 88, 80
2, 4632, Note_on_c, 0, 76, 80
2, 4640, Note_on_c, 0, 69, 0
2, 4640, Note_on_c, 0, 73, 0
2, 4640, Note_on_c, 0, 64, 0
2, 4689, Note_on_c, 0, 88, 0
2, 4689, Note_on_c, 0, 76, 0
2, 4689, Note_on_c, 0, 85, 80
2, 4692, Note_on_c, 0, 64, 80
2, 4692, Note_on_c, 0, 69, 80
2, 4692, Note_on_c, 0, 73, 80
2, 4715, Control_c, 0, 64, 0
2, 4751, Note_on_c, 0, 73, 0
2, 4751, Note_on_c, 0, 85, 0
2, 4751, Note_on_c, 0, 83, 80
2, 4753, Note_on_c, 0, 71, 80
2, 4758, Note_on_c, 0, 69, 0
2, 4758, Note_on_c, 0, 64, 0
2, 4810, Note_on_c, 0, 83, 0
2, 4813, Note_on_c, 0, 71, 0
2, 4813, Note_on_c, 0, 67, 80
2, 4813, Note_on_c, 0, 69, 80
2, 4813, Note_on_c, 0, 73, 80
2, 4813, Note_on_c, 0, 81, 80
2, 4848, Control_c, 0, 64, 127
2, 4869, Note_on_c, 0, 81, 0
2, 4869, Note_on_c, 0, 69, 0
2, 4869, Note_on_c, 0, 88, 80
2, 4872, Note_on_c, 0, 76, 80
2, 4879, Note_on_c, 0, 73, 0
2, 4882, Note_on_c, 0, 67, 0
2, 4934, Note_on_c, 0, 67, 80
2, 4934, Note_on_c, 0, 69, 80
2, 4934, Note_on_c, 0, 73, 80
2, 4954, Control_c, 0, 64, 0
2, 4990, Note_on_c, 0, 88, 0
2, 4990, Note_on_c, 0, 76, 0
2, 4990, Note_on_c, 0, 86, 80
2, 4992, Note_on_c, 0, 74, 80
2, 5000, Note_on_c, 0, 69, 0
2, 5000, Note_on_c, 0, 73, 0
2, 5000, Note_on_c, 0, 67, 0
2, 5054, Note_on_c, 0, 66, 80
2, 5054, Note_on_c, 0, 69, 80
2, 5088, Control_c, 0, 64, 127
2, 5111, Note_on_c, 0, 74, 0
2, 5111, Note_on_c, 0, 71, 80
2, 5111, Note_on_c, 0, 83, 80
2, 5121, Note_on_c, 0, 69, 0
2, 5121, Note_on_c, 0, 66, 0
2, 5139, Note_on_c, 0, 83, 0
2, 5170, Note_on_c, 0, 71, 0
2, 5170, Note_on_c, 0, 86, 0
2, 5170, Note_on_c, 0, 69, 80
2, 5170, Note_on_c, 0, 74, 80
2, 5170, Note_on_c, 0, 83, 80
2, 5170, Note_on_c, 0, 95, 80
2, 5173, Note_on_c, 0, 65, 80
2, 5196, Control_c, 0, 64, 0
2, 5230, Note_on_c, 0, 95, 0
2, 5230, Note_on_c, 0, 83, 0
2, 5230, Note_on_c, 0, 81, 80
2, 5230, Note_on_c, 0, 93, 80
2, 5242, Note_on_c, 0, 65, 0
2, 5242, Note_on_c, 0, 69, 0
2, 5260, Note_on_c, 0, 81, 0
2, 5271, Note_on_c, 0, 93, 0
2, 5294, Note_on_c, 0, 74, 0
2, 5294, Note_on_c, 0, 64, 80
2, 5294, Note_on_c, 0, 69, 80
2, 5294, Note_on_c, 0, 73, 80
2, 5294, Note_on_c, 0, 81, 80
2, 5322, Note_on_c, 0, 73, 0
2, 5329, Control_c, 0, 64, 127
2, 5355, Note_on_c, 0, 81, 0
2, 5355, Note_on_c, 0, 69, 0
2, 5355, Note_on_c, 0, 73, 80
2, 5355, Note_on_c, 0, 85, 80
2, 5363, Note_on_c, 0, 64, 0
2, 5383, Note_on_c, 0, 73, 0
2, 5417, Note_on_c, 0, 64, 80
2, 5417, Note_on_c, 0, 69, 80
2, 5417, Note_on_c, 0, 73, 80
2, 5440, Control_c, 0, 64, 0
2, 5475, Note_on_c, 0, 73, 0
2, 5475, Note_on_c, 0, 85, 0
2, 5475, Note_on_c, 0, 78, 80
2, 5475, Note_on_c, 0, 90, 80
2, 5486, Note_on_c, 0, 69, 0
2, 5486, Note_on_c, 0, 64, 0
2, 5535, Note_on_c, 0, 90, 0
2, 5538, Note_on_c, 0, 78, 0
2, 5538, Note_on_c, 0, 64, 80
2, 5538, Note_on_c, 0, 68, 80
2, 5538, Note_on_c, 0, 74, 80
2, 5538, Note_on_c, 0, 76, 80
2, 5538, Note_on_c, 0, 88, 80
2, 5576, Control_c, 0, 64, 127
2, 5599, Note_on_c, 0, 88, 0
2, 5599, Note_on_c, 0, 76, 0
2, 5599, Note_on_c, 0, 83, 80
2, 5599, Note_on_c, 0, 95, 80
2, 5602, Note_on_c, 0, 71, 80
2, 5617, Note_on_c, 0, 64, 0
2, 5617, Note_on_c, 0, 74, 0
2, 5617, Note_on_c, 0, 68, 0
2, 5659, Note_on_c, 0, 83, 0
2, 5659, Note_on_c, 0, 95, 0
2, 5659, Note_on_c, 0, 84, 80
2, 5659, Note_on_c, 0, 96, 80
2, 5662, Note_on_c, 0, 71, 0
2, 5662, Note_on_c, 0, 64, 80
2, 5662, Note_on_c, 0, 68, 80
2, 5662, Note_on_c, 0, 72, 80
2, 5662, Note_on_c, 0, 74, 80
2, 5685, Control_c, 0, 64, 0
2, 5718, Note_on_c, 0, 96, 0
2, 5718, Note_on_c, 0, 84, 0
2, 5718, Note_on_c, 0, 97, 80
2, 5721, Note_on_c, 0, 72, 0
2, 5721, Note_on_c, 0, 73, 80
2, 5721, Note_on_c, 0, 85, 80
2, 5732, Note_on_c, 0, 64, 0
2, 5732, Note_on_c, 0, 68, 0
2, 5732, Note_on_c, 0, 74, 0
2, 5752, Note_on_c, 0, 73, 0
2, 5785, Note_on_c, 0, 64, 80
2, 5785, Note_on_c, 0, 69, 80
2, 5785, Note_on_c, 0, 73, 80
2, 5821, Control_c, 0, 64, 127
2, 5841, Note_on_c, 0, 73, 0
2, 5841, Note_on_c, 0, 97, 0
2, 5841, Note_on_c, 0, 85, 0
2, 5841, Note_on_c, 0, 87, 80
2, 5841, Note_on_c, 0, 75, 80
2, 5849, Note_on_c, 0, 64, 0
2, 5849, Note_on_c, 0, 69, 0
2, 5901, Note_on_c, 0, 87, 0
2, 5901, Note_on_c, 0, 75, 0
2, 5901, Note_on_c, 0, 88, 80
2, 5904, Note_on_c, 0, 64, 80
2, 5904, Note_on_c, 0, 69, 80
2, 5904, Note_on_c, 0, 73, 80
2, 5904, Note_on_c, 0, 76, 80
2, 5927, Control_c, 0, 64, 0
2, 5962, Note_on_c, 0, 76, 0
2, 5962, Note_on_c, 0, 88, 0
2, 5962, Note_on_c, 0, 78, 80
2, 5962, Note_on_c, 0, 90, 80
2, 5970, Note_on_c, 0, 73, 0
2, 5973, Note_on_c, 0, 64, 0
2, 5973, Note_on_c, 0, 69, 0
2, 6024, Note_on_c, 0, 66, 80
2, 6024, Note_on_c, 0, 72, 80
2, 6027, Note_on_c, 0, 39, 80
2, 6027, Note_on_c, 0, 51, 80
2, 6027, Note_on_c, 0, 60, 80
2, 6027, Note_on_c, 0, 69, 80
2, 6058, Control_c, 0, 64, 127
2, 6089, Note_on_c, 0, 69, 0
2, 6089, Note_on_c, 0, 60, 0
2, 6089, Note_on_c, 0, 66, 0
2, 6092, Note_on_c, 0, 39, 0
2, 6092, Note_on_c, 0, 51, 0
2, 6110, Note_on_c, 0, 72, 0
2, 6141, Note_on_c, 0, 78, 0
2, 6141, Note_on_c, 0, 60, 80
2, 6141, Note_on_c, 0, 66, 80
2, 6141, Note_on_c, 0, 69, 80
2, 6141, Note_on_c, 0, 72, 80
2, 6141, Note_on_c, 0, 80, 80
2, 6141, Note_on_c, 0, 92, 80
2, 6144, Note_on_c, 0, 39, 80
2, 6144, Note_on_c, 0, 51, 80
2, 6148, Note_on_c, 0, 90, 0
2, 6161, Control_c, 0, 64, 0
2, 6194, Note_on_c, 0, 92, 0
2, 6197, Note_on_c, 0, 80, 0
2, 6197, Note_on_c, 0, 78, 80
2, 6197, Note_on_c, 0, 90, 80
2, 6208, Note_on_c, 0, 60, 0
2, 6208, Note_on_c, 0, 51, 0
2, 6208, Note_on_c, 0, 69, 0
2, 6208, Note_on_c, 0, 66, 0
2, 6211, Note_on_c, 0, 39, 0
2, 6226, Note_on_c, 0, 72, 0
2, 6257, Note_on_c, 0, 51, 80
2, 6257, Note_on_c, 0, 60, 80
2, 6257, Note_on_c, 0, 66, 80
2, 6257, Note_on_c, 0, 69, 80
2, 6257, Note_on_c, 0, 72, 80
2, 6260, Note_on_c, 0, 39, 80
2, 6290, Control_c, 0, 64, 127
2, 6313, Note_on_c, 0, 78, 0
2, 6313, Note_on_c, 0, 90, 0
2, 6313, Note_on_c, 0, 80, 80
2, 6313, Note_on_c, 0, 92, 80
2, 6324, Note_on_c, 0, 60, 0
2, 6324, Note_on_c, 0, 66, 0
2, 6324, Note_on_c, 0, 69, 0
2, 6324, Note_on_c, 0, 51, 0
2, 6327, Note_on_c, 0, 39, 0
2, 6342, Note_on_c, 0, 72, 0
2, 6373, Note_on_c, 0, 80, 0
2, 6373, Note_on_c, 0, 92, 0
2, 6373, Note_on_c, 0, 72, 80
2, 6373, Note_on_c, 0, 78, 80
2, 6373, Note_on_c, 0, 90, 80
2, 6376, Note_on_c, 0, 51, 80
2, 6376, Note_on_c, 0, 60, 80
2, 6376, Note_on_c, 0, 66, 80
2, 6376, Note_on_c, 0, 69, 80
2, 6379, Note_on_c, 0, 39, 80
2, 6399, Control_c, 0, 64, 0
2, 6402, Note_on_c, 0, 90, 0
2, 6402, Note_on_c, 0, 78, 0
2, 6435, Note_on_c, 0, 78, 80
2, 6435, Note_on_c, 0, 90, 80
2, 6446, Note_on_c, 0, 66, 0
2, 6449, Note_on_c, 0, 60, 0
2, 6449, Note_on_c, 0, 51, 0
2, 6449, Note_on_c, 0, 69, 0
2, 6452, Note_on_c, 0, 39, 0
2, 6467, Note_on_c, 0, 72, 0
2, 6498, Note_on_c, 0, 73, 80
2, 6501, Note_on_c, 0, 61, 80
2, 6501, Note_on_c, 0, 64, 80
2, 6501, Note_on_c, 0, 69, 80
2, 6504, Note_on_c, 0, 40, 80
2, 6504, Note_on_c, 0, 52, 80
2, 6537, Control_c, 0, 64, 127
2, 6560, Note_on_c, 0, 78, 0
2, 6560, Note_on_c, 0, 90, 0
2, 6563, Note_on_c, 0, 76, 80
2, 6563, Note_on_c, 0, 88, 80
2, 6571, Note_on_c, 0, 61, 0
2, 6571, Note_on_c, 0, 64, 0
2, 6571, Note_on_c, 0, 69, 0
2, 6574, Note_on_c, 0, 52, 0
2, 6576, Note_on_c, 0, 40, 0
2, 6592, Note_on_c, 0, 73, 0
2, 6623, Note_on_c, 0, 88, 0
2, 6623, Note_on_c, 0, 76, 0
2, 6623, Note_on_c, 0, 64, 80
2, 6623, Note_on_c, 0, 69, 80
2, 6623, Note_on_c, 0, 73, 80
2, 6623, Note_on_c, 0, 85, 80
2, 6625, Note_on_c, 0, 52, 80
2, 6625, Note_on_c, 0, 61, 80
2, 6628, Note_on_c, 0, 40, 80
2, 6651, Control_c, 0, 64, 0
2, 6685, Note_on_c, 0, 85, 0
2, 6688, Note_on_c, 0, 71, 80
2, 6688, Note_on_c, 0, 83, 80
2, 6698, Note_on_c, 0, 52, 0
2, 6698, Note_on_c, 0, 64, 0
2, 6698, Note_on_c, 0, 69, 0
2, 6698, Note_on_c, 0, 61, 0
2, 6701, Note_on_c, 0, 40, 0
2, 6720, Note_on_c, 0, 73, 0
2, 6750, Note_on_c, 0, 71, 0
2, 6750, Note_on_c, 0, 83, 0
2, 6750, Note_on_c, 0, 64, 80
2, 6750, Note_on_c, 0, 81, 80
2, 6753, Note_on_c, 0, 55, 80
2, 6753, Note_on_c, 0, 61, 80
2, 6753, Note_on_c, 0, 69, 80
2, 6756, Note_on_c, 0, 43, 80
2, 6792, Control_c, 0, 64, 127
2, 6812, Note_on_c, 0, 81, 0
2, 6812, Note_on_c, 0, 88, 80
2, 6815, Note_on_c, 0, 69, 0
2, 6815, Note_on_c, 0, 76, 80
2, 6825, Note_on_c, 0, 64, 0
2, 6825, Note_on_c, 0, 61, 0
2, 6825, Note_on_c, 0, 55, 0
2, 6828, Note_on_c, 0, 43, 0
2, 6880, Note_on_c, 0, 61, 80
2, 6880, Note_on_c, 0, 64, 80
2, 6880, Note_on_c, 0, 69, 80
2, 6883, Note_on_c, 0, 43, 80
2, 6883, Note_on_c, 0, 55, 80
2, 6903, Control_c, 0, 64, 0
2, 6938, Note_on_c, 0, 88, 0
2, 6938, Note_on_c, 0, 86, 80
2, 6941, Note_on_c, 0, 76, 0
2, 6944, Note_on_c, 0, 74, 80
2, 6952, Note_on_c, 0, 64, 0
2, 6952, Note_on_c, 0, 69, 0
2, 6952, Note_on_c, 0, 61, 0
2, 6955, Note_on_c, 0, 55, 0
2, 6958, Note_on_c, 0, 43, 0
2, 7007, Note_on_c, 0, 54, 80
2, 7007, Note_on_c, 0, 57, 80
2, 7007, Note_on_c, 0, 69, 80
2, 7009, Note_on_c, 0, 42, 80
2, 7017, Note_on_c, 0, 62, 80
2, 7045, Control_c, 0, 64, 127
2, 7065, Note_on_c, 0, 74, 0
2, 7065, Note_on_c, 0, 83, 80
2, 7068, Note_on_c, 0, 59, 80
2, 7068, Note_on_c, 0, 71, 80
2, 7079, Note_on_c, 0, 42, 0
2, 7079, Note_on_c, 0, 69, 0
2, 7079, Note_on_c, 0, 57, 0
2, 7079, Note_on_c, 0, 62, 0
2, 7079, Note_on_c, 0, 54, 0
2, 7094, Note_on_c, 0, 83, 0
2, 7125, Note_on_c, 0, 86, 0
2, 7125, Note_on_c, 0, 95, 80
2, 7128, Note_on_c, 0, 71, 0
2, 7128, Note_on_c, 0, 62, 80
2, 7128, Note_on_c, 0, 69, 80
2, 7128, Note_on_c, 0, 74, 80
2, 7128, Note_on_c, 0, 83, 80
2, 7130, Note_on_c, 0, 53, 80
2, 7130, Note_on_c, 0, 57, 80
2, 7133, Note_on_c, 0, 41, 80
2, 7153, Control_c, 0, 64, 0
2, 7158, Note_on_c, 0, 69, 0
2, 7184, Note_on_c, 0, 95, 0
2, 7184, Note_on_c, 0, 83, 0
2, 7184, Note_on_c, 0, 93, 80
2, 7187, Note_on_c, 0, 69, 80
2, 7187, Note_on_c, 0, 81, 80
2, 7198, Note_on_c, 0, 59, 0
2, 7198, Note_on_c, 0, 62, 0
2, 7200, Note_on_c, 0, 53, 0
2, 7200, Note_on_c, 0, 41, 0
2, 7200, Note_on_c, 0, 57, 0
2, 7219, Note_on_c, 0, 69, 0
2, 7219, Note_on_c, 0, 81, 0
2, 7245, Note_on_c, 0, 93, 0
2, 7248, Note_on_c, 0, 74, 0
2, 7248, Note_on_c, 0, 73, 80
2, 7248, Note_on_c, 0, 81, 80
2, 7248, Note_on_c, 0, 85, 80
2, 7250, Note_on_c, 0, 61, 80
2, 7250, Note_on_c, 0, 64, 80
2, 7250, Note_on_c, 0, 69, 80
2, 7253, Note_on_c, 0, 40, 80
2, 7253, Note_on_c, 0, 52, 80
2, 7287, Control_c, 0, 64, 127
2, 7310, Note_on_c, 0, 85, 0
2, 7310, Note_on_c, 0, 73, 0
2, 7310, Note_on_c, 0, 81, 0
2, 7310, Note_on_c, 0, 78, 80
2, 7310, Note_on_c, 0, 90, 80
2, 7320, Note_on_c, 0, 61, 0
2, 7320, Note_on_c, 0, 52, 0
2, 7320, Note_on_c, 0, 64, 0
2, 7320, Note_on_c, 0, 69, 0
2, 7323, Note_on_c, 0, 40, 0
2, 7372, Note_on_c, 0, 52, 80
2, 7372, Note_on_c, 0, 61, 80
2, 7372, Note_on_c, 0, 64, 80
2, 7372, Note_on_c, 0, 69, 80
2, 7375, Note_on_c, 0, 40, 80
2, 7395, Control_c, 0, 64, 0
2, 7429, Note_on_c, 0, 90, 0
2, 7429, Note_on_c, 0, 88, 80
2, 7432, Note_on_c, 0, 78, 0
2, 7432, Note_on_c, 0, 76, 80
2, 7442, Note_on_c, 0, 61, 0
2, 7442, Note_on_c, 0, 64, 0
2, 7442, Note_on_c, 0, 52, 0
2, 7442, Note_on_c, 0, 69, 0
2, 7445, Note_on_c, 0, 40, 0
2, 7491, Note_on_c, 0, 88, 0
2, 7491, Note_on_c, 0, 76, 0
2, 7491, Note_on_c, 0, 81, 80
2, 7494, Note_on_c, 0, 69, 80
2, 7494, Note_on_c, 0, 75, 80
2, 7497, Note_on_c, 0, 42, 80
2, 7497, Note_on_c, 0, 54, 80
2, 7497, Note_on_c, 0, 59, 80
2, 7497, Note_on_c, 0, 63, 80
2, 7554, Note_on_c, 0, 83, 80
2, 7557, Note_on_c, 0, 71, 80
2, 7564, Note_on_c, 0, 63, 0
2, 7564, Note_on_c, 0, 42, 0
2, 7564, Note_on_c, 0, 59, 0
2, 7564, Note_on_c, 0, 54, 0
2, 7572, Note_on_c, 0, 81, 0
2, 7572, Note_on_c, 0, 69, 0
2, 7584, Note_on_c, 0, 71, 0
2, 7584, Note_on_c, 0, 83, 0
2, 7618, Note_on_c, 0, 75, 0
2, 7618, Note_on_c, 0, 83, 80
2, 7621, Note_on_c, 0, 52, 80
2, 7621, Note_on_c, 0, 59, 80
2, 7621, Note_on_c, 0, 62, 80
2, 7621, Note_on_c, 0, 68, 80
2, 7621, Note_on_c, 0, 71, 80
2, 7621, Note_on_c, 0, 74, 80
2, 7624, Note_on_c, 0, 40, 80
2, 7688, Note_on_c, 0, 68, 0
2, 7688, Note_on_c, 0, 62, 0
2, 7688, Note_on_c, 0, 59, 0
2, 7691, Note_on_c, 0, 40, 0
2, 7691, Note_on_c, 0, 52, 0
2, 7737, Note_on_c, 0, 83, 0
2, 7740, Note_on_c, 0, 71, 0
2, 7740, Note_on_c, 0, 74, 0
2, 7740, Note_on_c, 0, 61, 80
2, 7740, Note_on_c, 0, 64, 80
2, 7740, Note_on_c, 0, 69, 80
2, 7740, Note_on_c, 0, 73, 80
2, 7740, Note_on_c, 0, 81, 80
2, 7743, Note_on_c, 0, 45, 80
2, 7743, Note_on_c, 0, 57, 80
2, 7810, Note_on_c, 0, 81, 0
2, 7813, Note_on_c, 0, 64, 0
2, 7813, Note_on_c, 0, 73, 0
2, 7813, Note_on_c, 0, 69, 0
2, 7813, Note_on_c, 0, 61, 0
2, 7813, Note_on_c, 0, 57, 0
2, 7816, Note_on_c, 0, 45, 0
2, 7865, Note_on_c, 0, 52, 80
2, 7868, Note_on_c, 0, 40, 80
2, 7989, Note_on_c, 0, 52, 0
2, 7992, Note_on_c, 0, 40, 0
2, 7992, Note_on_c, 0, 45, 80
2, 7992, Note_on_c, 0, 57, 80
2, 8027, Control_c, 0, 64, 127
2, 8047, Note_on_c, 0, 85, 80
2, 8047, Note_on_c, 0, 97, 80
2, 8050, Note_on_c, 0, 76, 80
2, 8084, Note_on_c, 0, 76, 0
2, 8084, Note_on_c, 0, 85, 0
2, 8084, Note_on_c, 0, 97, 0
2, 8104, Note_on_c, 0, 93, 80
2, 8107, Note_on_c, 0, 57, 0
2, 8107, Note_on_c, 0, 61, 80
2, 8107, Note_on_c, 0, 64, 80
2, 8107, Note_on_c, 0, 69, 80
2, 8107, Note_on_c, 0, 73, 80
2, 8107, Note_on_c, 0, 81, 80
2, 8110, Note_on_c, 0, 45, 0
2, 8133, Control_c, 0, 64, 0
2, 8137, Note_on_c, 0, 73, 0
2, 8145, Note_on_c, 0, 93, 0
2, 8148, Note_on_c, 0, 81, 0
2, 8168, Note_on_c, 0, 73, 80
2, 8168, Note_on_c, 0, 78, 80
2, 8168, Note_on_c, 0, 90, 80
2, 8176, Note_on_c, 0, 64, 0
2, 8176, Note_on_c, 0, 61, 0
2, 8176, Note_on_c, 0, 69, 0
2, 8207, Note_on_c, 0, 90, 0
2, 8207, Note_on_c, 0, 78, 0
2, 8227, Note_on_c, 0, 87, 80
2, 8230, Note_on_c, 0, 52, 80
2, 8230, Note_on_c, 0, 75, 80
2, 8232, Note_on_c, 0, 40, 80
2, 8268, Note_on_c, 0, 75, 0
2, 8268, Note_on_c, 0, 87, 0
2, 8268, Control_c, 0, 64, 127
2, 8288, Note_on_c, 0, 76, 80
2, 8288, Note_on_c, 0, 88, 80
2, 8327, Note_on_c, 0, 88, 0
2, 8329, Note_on_c, 0, 76, 0
2, 8350, Note_on_c, 0, 40, 0
2, 8350, Note_on_c, 0, 52, 0
2, 8350, Note_on_c, 0, 73, 0
2, 8350, Note_on_c, 0, 64, 80
2, 8350, Note_on_c, 0, 69, 80
2, 8350, Note_on_c, 0, 81, 80
2, 8350, Note_on_c, 0, 57, 80
2, 8350, Note_on_c, 0, 61, 80
2, 8373, Control_c, 0, 64, 0
2, 8388, Note_on_c, 0, 81, 0
2, 8388, Note_on_c, 0, 69, 0
2, 8408, Note_on_c, 0, 83, 80
2, 8411, Note_on_c, 0, 71, 80
2, 8419, Note_on_c, 0, 64, 0
2, 8419, Note_on_c, 0, 61, 0
2, 8419, Note_on_c, 0, 57, 0
2, 8447, Note_on_c, 0, 83, 0
2, 8449, Note_on_c, 0, 71, 0
2, 8468, Note_on_c, 0, 84, 80
2, 8471, Note_on_c, 0, 72, 80
2, 8473, Note_on_c, 0, 42, 80
2, 8473, Note_on_c, 0, 54, 80
2, 8473, Note_on_c, 0, 57, 80
2, 8473, Note_on_c, 0, 61, 80
2, 8473, Note_on_c, 0, 63, 80
2, 8512, Note_on_c, 0, 72, 0
2, 8530, Note_on_c, 0, 68, 80
2, 8530, Note_on_c, 0, 80, 80
2, 8571, Note_on_c, 0, 80, 0
2, 8571, Note_on_c, 0, 68, 0
2, 8592, Note_on_c, 0, 69, 80
2, 8592, Note_on_c, 0, 81, 80
2, 8594, Note_on_c, 0, 54, 0
2, 8594, Note_on_c, 0, 41, 80
2, 8594, Note_on_c, 0, 53, 80
2, 8605, Note_on_c, 0, 42, 0
2, 8623, Note_on_c, 0, 57, 0
2, 8623, Note_on_c, 0, 61, 0
2, 8628, Note_on_c, 0, 81, 0
2, 8631, Note_on_c, 0, 63, 0
2, 8631, Note_on_c, 0, 69, 0
2, 8649, Note_on_c, 0, 84, 0
2, 8649, Note_on_c, 0, 83, 80
2, 8652, Note_on_c, 0, 59, 80
2, 8652, Note_on_c, 0, 62, 80
2, 8652, Note_on_c, 0, 68, 80
2, 8652, Note_on_c, 0, 71, 80
2, 8655, Note_on_c, 0, 56, 80
2, 8714, Note_on_c, 0, 52, 80
2, 8717, Note_on_c, 0, 40, 80
2, 8725, Note_on_c, 0, 41, 0
2, 8725, Note_on_c, 0, 53, 0
2, 8768, Note_on_c, 0, 71, 0
2, 8768, Note_on_c, 0, 83, 0
2, 8771, Note_on_c, 0, 64, 80
2, 8771, Note_on_c, 0, 76, 80
2, 8789, Note_on_c, 0, 56, 0
2, 8789, Note_on_c, 0, 59, 0
2, 8789, Note_on_c, 0, 62, 0
2, 8789, Note_on_c, 0, 68, 0
2, 8800, Note_on_c, 0, 52, 0
2, 8800, Note_on_c, 0, 76, 0
2, 8800, Note_on_c, 0, 64, 0
2, 8803, Note_on_c, 0, 40, 0
2, 8831, Note_on_c, 0, 64, 80
2, 8831, Note_on_c, 0, 68, 80
2, 8831, Note_on_c, 0, 76, 80
2, 8831, Note_on_c, 0, 88, 80
2, 8833, Note_on_c, 0, 52, 80
2, 8833, Note_on_c, 0, 56, 80
2, 8833, Note_on_c, 0, 59, 80
2, 8833, Note_on_c, 0, 62, 80
2, 8836, Note_on_c, 0, 40, 80
2, 8870, Note_on_c, 0, 88, 0
2, 8890, Note_on_c, 0, 74, 80
2, 8890, Note_on_c, 0, 86, 80
2, 8926, Note_on_c, 0, 86, 0
2, 8928, Note_on_c, 0, 74, 0
2, 8947, Note_on_c, 0, 64, 0
2, 8947, Note_on_c, 0, 76, 0
2, 8947, Note_on_c, 0, 68, 0
2, 8950, Note_on_c, 0, 56, 0
2, 8950, Note_on_c, 0, 40, 0
2, 8950, Note_on_c, 0, 52, 0
2, 8950, Note_on_c, 0, 59, 0
2, 8950, Note_on_c, 0, 62, 0
2, 8950, Note_on_c, 0, 45, 80
2, 8950, Note_on_c, 0, 57, 80
2, 8985, Control_c, 0, 64, 127
2, 9005, Note_on_c, 0, 97, 80
2, 9008, Note_on_c, 0, 76, 80
2, 9008, Note_on_c, 0, 85, 80
2, 9044, Note_on_c, 0, 85, 0
2, 9044, Note_on_c, 0, 97, 0
2, 9047, Note_on_c, 0, 76, 0
2, 9062, Note_on_c, 0, 93, 80
2, 9065, Note_on_c, 0, 81, 80
2, 9068, Note_on_c, 0, 57, 0
2, 9068, Note_on_c, 0, 45, 0
2, 9068, Note_on_c, 0, 61, 80
2, 9068, Note_on_c, 0, 64, 80
2, 9068, Note_on_c, 0, 69, 80
2, 9068, Note_on_c, 0, 73, 80
2, 9091, Control_c, 0, 64, 0
2, 9094, Note_on_c, 0, 73, 0
2, 9101, Note_on_c, 0, 93, 0
2, 9104, Note_on_c, 0, 81, 0
2, 9122, Note_on_c, 0, 73, 80
2, 9122, Note_on_c, 0, 90, 80
2, 9135, Note_on_c, 0, 64, 0
2, 9135, Note_on_c, 0, 69, 0
2, 9135, Note_on_c, 0, 61, 0
2, 9135, Note_on_c, 0, 78, 80
2, 9161, Note_on_c, 0, 78, 0
2, 9161, Note_on_c, 0, 90, 0
2, 9181, Note_on_c, 0, 87, 80
2, 9186, Note_on_c, 0, 75, 80
2, 9189, Note_on_c, 0, 40, 80
2, 9189, Note_on_c, 0, 52, 80
2, 9224, Note_on_c, 0, 75, 0
2, 9224, Note_on_c, 0, 87, 0
2, 9224, Control_c, 0, 64, 127
2, 9244, Note_on_c, 0, 88, 80
2, 9247, Note_on_c, 0, 76, 80
2, 9283, Note_on_c, 0, 88, 0
2, 9286, Note_on_c, 0, 73, 0
2, 9286, Note_on_c, 0, 76, 0
2, 9304, Control_c, 0, 64, 0
2, 9307, Note_on_c, 0, 81, 80
2, 9310, Note_on_c, 0, 52, 0
2, 9310, Note_on_c, 0, 57, 80
2, 9310, Note_on_c, 0, 61, 80
2, 9310, Note_on_c, 0, 64, 80
2, 9310, Note_on_c, 0, 69, 80
2, 9312, Note_on_c, 0, 40, 0
2, 9346, Note_on_c, 0, 81, 0
2, 9349, Note_on_c, 0, 69, 0
2, 9367, Note_on_c, 0, 71, 80
2, 9367, Note_on_c, 0, 83, 80
2, 9378, Note_on_c, 0, 64, 0
2, 9381, Note_on_c, 0, 61, 0
2, 9381, Note_on_c, 0, 57, 0
2, 9408, Note_on_c, 0, 83, 0
2, 9411, Note_on_c, 0, 71, 0
2, 9434, Note_on_c, 0, 60, 80
2, 9434, Note_on_c, 0, 63, 80
2, 9434, Note_on_c, 0, 72, 80
2, 9434, Note_on_c, 0, 84, 80
2, 9437, Note_on_c, 0, 54, 80
2, 9437, Note_on_c, 0, 57, 80
2, 9440, Note_on_c, 0, 42, 80
2, 9497, Note_on_c, 0, 72, 0
2, 9497, Note_on_c, 0, 68, 80
2, 9497, Note_on_c, 0, 80, 80
2, 9558, Note_on_c, 0, 80, 0
2, 9558, Note_on_c, 0, 81, 80
2, 9561, Note_on_c, 0, 68, 0
2, 9561, Note_on_c, 0, 53, 80
2, 9561, Note_on_c, 0, 69, 80
2, 9564, Note_on_c, 0, 41, 80
2, 9572, Note_on_c, 0, 54, 0
2, 9575, Note_on_c, 0, 42, 0
2, 9590, Note_on_c, 0, 84, 0
2, 9621, Note_on_c, 0, 81, 0
2, 9621, Note_on_c, 0, 83, 80
2, 9624, Note_on_c, 0, 60, 0
2, 9624, Note_on_c, 0, 69, 0
2, 9624, Note_on_c, 0, 57, 0
2, 9624, Note_on_c, 0, 63, 0
2, 9624, Note_on_c, 0, 56, 80
2, 9624, Note_on_c, 0, 59, 80
2, 9624, Note_on_c, 0, 62, 80
2, 9624, Note_on_c, 0, 68, 80
2, 9624, Note_on_c, 0, 71, 80
2, 9685, Note_on_c, 0, 52, 80
2, 9688, Note_on_c, 0, 40, 80
2, 9696, Note_on_c, 0, 53, 0
2, 9698, Note_on_c, 0, 41, 0
2, 9744, Note_on_c, 0, 62, 0
2, 9752, Note_on_c, 0, 83, 0
2, 9755, Note_on_c, 0, 71, 0
2, 9755, Note_on_c, 0, 56, 0
2, 9755, Note_on_c, 0, 59, 0
2, 9755, Note_on_c, 0, 68, 0
2, 9758, Note_on_c, 0, 52, 0
2, 9761, Note_on_c, 0, 40, 0
2, 9813, Note_on_c, 0, 47, 80
2, 9813, Note_on_c, 0, 59, 80
2, 9851, Note_on_c, 0, 59, 0
2, 9854, Note_on_c, 0, 47, 0
2, 9872, Note_on_c, 0, 61, 80
2, 9875, Note_on_c, 0, 49, 80
2, 9911, Note_on_c, 0, 61, 0
2, 9913, Note_on_c, 0, 49, 0
2, 9934, Note_on_c, 0, 54, 80
2, 9936, Note_on_c, 0, 42, 80
2, 9975, Control_c, 0, 64, 127
2, 10055, Note_on_c, 0, 86, 80
2, 10057, Note_on_c, 0, 66, 80
2, 10057, Note_on_c, 0, 68, 80
2, 10057, Note_on_c, 0, 71, 80
2, 10057, Note_on_c, 0, 74, 80
2, 10057, Note_on_c, 0, 78, 80
2, 10057, Note_on_c, 0, 80, 80
2, 10114, Control_c, 0, 64, 0
2, 10132, Note_on_c, 0, 80, 0
2, 10135, Note_on_c, 0, 71, 0
2, 10135, Note_on_c, 0, 68, 0
2, 10174, Note_on_c, 0, 73, 80
2, 10174, Note_on_c, 0, 77, 80
2, 10174, Note_on_c, 0, 85, 80
2, 10176, Note_on_c, 0, 65, 80
2, 10176, Note_on_c, 0, 68, 80
2, 10176, Note_on_c, 0, 71, 80
2, 10176, Note_on_c, 0, 80, 80
2, 10181, Note_on_c, 0, 86, 0
2, 10184, Note_on_c, 0, 78, 0
2, 10184, Note_on_c, 0, 66, 0
2, 10184, Note_on_c, 0, 74, 0
2, 10241, Note_on_c, 0, 85, 0
2, 10241, Note_on_c, 0, 77, 0
2, 10241, Note_on_c, 0, 71, 0
2, 10241, Note_on_c, 0, 73, 0
2, 10241, Note_on_c, 0, 80, 0
2, 10241, Note_on_c, 0, 68, 0
2, 10244, Note_on_c, 0, 65, 0
2, 10244, Note_on_c, 0, 54, 0
2, 10247, Note_on_c, 0, 42, 0
2, 10296, Note_on_c, 0, 59, 80
2, 10298, Note_on_c, 0, 47, 80
2, 10337, Note_on_c, 0, 59, 0
2, 10340, Note_on_c, 0, 47, 0
2, 10358, Note_on_c, 0, 61, 80
2, 10361, Note_on_c, 0, 49, 80
2, 10399, Note_on_c, 0, 61, 0
2, 10402, Note_on_c, 0, 49, 0
2, 10422, Note_on_c, 0, 54, 80
2, 10425, Note_on_c, 0, 42, 80
2, 10459, Control_c, 0, 64, 127
2, 10541, Note_on_c, 0, 66, 80
2, 10541, Note_on_c, 0, 68, 80
2, 10541, Note_on_c, 0, 71, 80
2, 10541, Note_on_c, 0, 78, 80
2, 10541, Note_on_c, 0, 80, 80
2, 10541, Note_on_c, 0, 83, 80
2, 10541, Note_on_c, 0, 90, 80
2, 10544, Note_on_c, 0, 62, 80
2, 10570, Control_c, 0, 64, 0
2, 10608, Note_on_c, 0, 83, 0
2, 10608, Note_on_c, 0, 80, 0
2, 10608, Note_on_c, 0, 68, 0
2, 10608, Note_on_c, 0, 71, 0
2, 10660, Note_on_c, 0, 77, 80
2, 10660, Note_on_c, 0, 80, 80
2, 10660, Note_on_c, 0, 83, 80
2, 10660, Note_on_c, 0, 89, 80
2, 10663, Note_on_c, 0, 61, 80
2, 10663, Note_on_c, 0, 65, 80
2, 10663, Note_on_c, 0, 68, 80
2, 10663, Note_on_c, 0, 71, 80
2, 10668, Note_on_c, 0, 90, 0
2, 10671, Note_on_c, 0, 66, 0
2, 10671, Note_on_c, 0, 62, 0
2, 10671, Note_on_c, 0, 78, 0
2, 10725, Note_on_c, 0, 42, 0
2, 10728, Note_on_c, 0, 83, 0
2, 10728, Note_on_c, 0, 89, 0
2, 10730, Note_on_c, 0, 80, 0
2, 10730, Note_on_c, 0, 68, 0
2, 10730, Note_on_c, 0, 77, 0
2, 10730, Note_on_c, 0, 71, 0
2, 10733, Note_on_c, 0, 54, 0
2, 10733, Note_on_c, 0, 61, 0
2, 10733, Note_on_c, 0, 65, 0
2, 10908, Note_on_c, 0, 42, 80
2, 10911, Note_on_c, 0, 30, 80
2, 10916, Note_on_c, 0, 54, 80
2, 10965, Note_on_c, 0, 56, 80
2, 10968, Note_on_c, 0, 44, 80
2, 10970, Note_on_c, 0, 32, 80
2, 11027, Note_on_c, 0, 57, 80
2, 11030, Note_on_c, 0, 32, 0
2, 11030, Note_on_c, 0, 33, 80
2, 11038, Note_on_c, 0, 56, 0
2, 11038, Note_on_c, 0, 44, 0
2, 11038, Note_on_c, 0, 45, 80
2, 11081, Note_on_c, 0, 37, 80
2, 11084, Note_on_c, 0, 61, 80
2, 11087, Note_on_c, 0, 49, 80
2, 11099, Note_on_c, 0, 33, 0
2, 11117, Note_on_c, 0, 54, 0
2, 11117, Note_on_c, 0, 42, 0
2, 11143, Note_on_c, 0, 66, 80
2, 11146, Note_on_c, 0, 54, 80
2, 11149, Note_on_c, 0, 42, 80
2, 11160, Note_on_c, 0, 37, 0
2, 11206, Note_on_c, 0, 56, 80
2, 11206, Note_on_c, 0, 68, 80
2, 11210, Note_on_c, 0, 44, 80
2, 11215, Note_on_c, 0, 54, 0
2, 11215, Note_on_c, 0, 57, 0
2, 11233, Note_on_c, 0, 45, 0
2, 11261, Note_on_c, 0, 69, 80
2, 11264, Note_on_c, 0, 45, 80
2, 11264, Note_on_c, 0, 57, 80
2, 11272, Note_on_c, 0, 56, 0
2, 11272, Note_on_c, 0, 68, 0
2, 11275, Note_on_c, 0, 44, 0
2, 11282, Note_on_c, 0, 61, 0
2, 11285, Note_on_c, 0, 49, 0
2, 11324, Note_on_c, 0, 73, 80
2, 11327, Note_on_c, 0, 49, 80
2, 11327, Note_on_c, 0, 61, 80
2, 11342, Note_on_c, 0, 66, 0
2, 11347, Note_on_c, 0, 42, 0
2, 11380, Note_on_c, 0, 69, 0
2, 11380, Note_on_c, 0, 73, 0
2, 11383, Note_on_c, 0, 49, 0
2, 11383, Note_on_c, 0, 61, 0
2, 11383, Note_on_c, 0, 57, 0
2, 11383, Note_on_c, 0, 66, 80
2, 11386, Note_on_c, 0, 30, 0
2, 11386, Note_on_c, 0, 45, 0
2, 11386, Note_on_c, 0, 42, 80
2, 11397, Note_on_c, 0, 54, 80
2, 11446, Note_on_c, 0, 68, 80
2, 11448, Note_on_c, 0, 56, 80
2, 11451, Note_on_c, 0, 44, 80
2, 11508, Note_on_c, 0, 69, 80
2, 11511, Note_on_c, 0, 57, 80
2, 11514, Note_on_c, 0, 45, 80
2, 11519, Note_on_c, 0, 68, 0
2, 11521, Note_on_c, 0, 56, 0
2, 11532, Note_on_c, 0, 44, 0
2, 11570, Note_on_c, 0, 61, 80
2, 11570, Note_on_c, 0, 73, 80
2, 11573, Note_on_c, 0, 49, 80
2, 11589, Note_on_c, 0, 66, 0
2, 11592, Note_on_c, 0, 45, 0
2, 11592, Note_on_c, 0, 54, 0
2, 11630, Note_on_c, 0, 66, 80
2, 11630, Note_on_c, 0, 78, 80
2, 11633, Note_on_c, 0, 54, 80
2, 11651, Note_on_c, 0, 69, 0
2, 11651, Note_on_c, 0, 49, 0
2, 11687, Note_on_c, 0, 80, 80
2, 11689, Note_on_c, 0, 68, 80
2, 11692, Note_on_c, 0, 56, 80
2, 11700, Note_on_c, 0, 57, 0
2, 11749, Note_on_c, 0, 81, 80
2, 11752, Note_on_c, 0, 57, 80
2, 11757, Note_on_c, 0, 80, 0
2, 11760, Note_on_c, 0, 68, 0
2, 11760, Note_on_c, 0, 56, 0
2, 11760, Note_on_c, 0, 69, 80
2, 11767, Note_on_c, 0, 73, 0
2, 11770, Note_on_c, 0, 61, 0
2, 11806, Note_on_c, 0, 73, 80
2, 11806, Note_on_c, 0, 85, 80
2, 11808, Note_on_c, 0, 61, 80
2, 11827, Note_on_c, 0, 69, 0
2, 11827, Note_on_c, 0, 66, 0
2, 11837, Note_on_c, 0, 78, 0
2, 11863, Note_on_c, 0, 85, 0
2, 11863, Note_on_c, 0, 90, 80
2, 11866, Note_on_c, 0, 73, 0
2, 11866, Note_on_c, 0, 81, 0
2, 11866, Note_on_c, 0, 66, 80
2, 11866, Note_on_c, 0, 72, 80
2, 11866, Note_on_c, 0, 78, 80
2, 11869, Note_on_c, 0, 57, 0
2, 11869, Note_on_c, 0, 54, 0
2, 11869, Note_on_c, 0, 61, 0
2, 11869, Note_on_c, 0, 63, 80
2, 11869, Note_on_c, 0, 69, 80
2, 11872, Note_on_c, 0, 42, 0
2, 11907, Control_c, 0, 64, 127
2, 11938, Note_on_c, 0, 63, 0
2, 11938, Note_on_c, 0, 72, 0
2, 11938, Note_on_c, 0, 66, 0
2, 11938, Note_on_c, 0, 69, 0
2, 11984, Note_on_c, 0, 90, 0
2, 11984, Note_on_c, 0, 92, 80
2, 11987, Note_on_c, 0, 78, 0
2, 11987, Note_on_c, 0, 72, 80
2, 11987, Note_on_c, 0, 80, 80
2, 11990, Note_on_c, 0, 63, 80
2, 11990, Note_on_c, 0, 66, 80
2, 11990, Note_on_c, 0, 69, 80
2, 12016, Control_c, 0, 64, 0
2, 12047, Note_on_c, 0, 92, 0
2, 12047, Note_on_c, 0, 90, 80
2, 12049, Note_on_c, 0, 80, 0
2, 12049, Note_on_c, 0, 78, 80
2, 12057, Note_on_c, 0, 72, 0
2, 12060, Note_on_c, 0, 63, 0
2, 12060, Note_on_c, 0, 66, 0
2, 12060, Note_on_c, 0, 69, 0
2, 12112, Note_on_c, 0, 63, 80
2, 12112, Note_on_c, 0, 66, 80
2, 12112, Note_on_c, 0, 69, 80
2, 12112, Note_on_c, 0, 72, 80
2, 12153, Control_c, 0, 64, 127
2, 12168, Note_on_c, 0, 90, 0
2, 12173, Note_on_c, 0, 78, 0
2, 12173, Note_on_c, 0, 80, 80
2, 12173, Note_on_c, 0, 92, 80
2, 12184, Note_on_c, 0, 69, 0
2, 12184, Note_on_c, 0, 66, 0
2, 12184, Note_on_c, 0, 72, 0
2, 12187, Note_on_c, 0, 63, 0
2, 12233, Note_on_c, 0, 92, 0
2, 12233, Note_on_c, 0, 90, 80
2, 12236, Note_on_c, 0, 80, 0
2, 12239, Note_on_c, 0, 63, 80
2, 12239, Note_on_c, 0, 66, 80
2, 12239, Note_on_c, 0, 69, 80
2, 12239, Note_on_c, 0, 72, 80
2, 12239, Note_on_c, 0, 78, 80
2, 12264, Note_on_c, 0, 78, 0
2, 12264, Note_on_c, 0, 90, 0
2, 12264, Control_c, 0, 64, 0
2, 12298, Note_on_c, 0, 78, 80
2, 12298, Note_on_c, 0, 90, 80
2, 12309, Note_on_c, 0, 72, 0
2, 12312, Note_on_c, 0, 69, 0
2, 12312, Note_on_c, 0, 63, 0
2, 12312, Note_on_c, 0, 66, 0
2, 12360, Note_on_c, 0, 64, 80
2, 12360, Note_on_c, 0, 69, 80
2, 12360, Note_on_c, 0, 73, 80
2, 12402, Control_c, 0, 64, 127
2, 12417, Note_on_c, 0, 90, 0
2, 12417, Note_on_c, 0, 88, 80
2, 12420, Note_on_c, 0, 78, 0
2, 12423, Note_on_c, 0, 76, 80
2, 12431, Note_on_c, 0, 73, 0
2, 12431, Note_on_c, 0, 69, 0
2, 12433, Note_on_c, 0, 64, 0
2, 12482, Note_on_c, 0, 88, 0
2, 12482, Note_on_c, 0, 85, 80
2, 12485, Note_on_c, 0, 76, 0
2, 12485, Note_on_c, 0, 73, 80
2, 12488, Note_on_c, 0, 64, 80
2, 12488, Note_on_c, 0, 69, 80
2, 12516, Control_c, 0, 64, 0
2, 12547, Note_on_c, 0, 85, 0
2, 12547, Note_on_c, 0, 83, 80
2, 12550, Note_on_c, 0, 73, 0
2, 12550, Note_on_c, 0, 71, 80
2, 12560, Note_on_c, 0, 69, 0
2, 12560, Note_on_c, 0, 64, 0
2, 12609, Note_on_c, 0, 83, 0
2, 12609, Note_on_c, 0, 71, 0
2, 12609, Note_on_c, 0, 81, 80
2, 12612, Note_on_c, 0, 67, 80
2, 12612, Note_on_c, 0, 69, 80
2, 12612, Note_on_c, 0, 73, 80
2, 12650, Control_c, 0, 64, 127
2, 12671, Note_on_c, 0, 81, 0
2, 12671, Note_on_c, 0, 88, 80
2, 12673, Note_on_c, 0, 69, 0
2, 12673, Note_on_c, 0, 76, 80
2, 12681, Note_on_c, 0, 73, 0
2, 12684, Note_on_c, 0, 67, 0
2, 12733, Note_on_c, 0, 67, 80
2, 12733, Note_on_c, 0, 73, 80
2, 12736, Note_on_c, 0, 69, 80
2, 12762, Control_c, 0, 64, 0
2, 12788, Note_on_c, 0, 86, 80
2, 12791, Note_on_c, 0, 88, 0
2, 12791, Note_on_c, 0, 76, 0
2, 12793, Note_on_c, 0, 74, 80
2, 12801, Note_on_c, 0, 69, 0
2, 12801, Note_on_c, 0, 73, 0
2, 12801, Note_on_c, 0, 67, 0
2, 12853, Note_on_c, 0, 66, 80
2, 12853, Note_on_c, 0, 69, 80
2, 12891, Control_c, 0, 64, 127
2, 12910, Note_on_c, 0, 83, 80
2, 12912, Note_on_c, 0, 74, 0
2, 12912, Note_on_c, 0, 71, 80
2, 12923, Note_on_c, 0, 69, 0
2, 12923, Note_on_c, 0, 66, 0
2, 12938, Note_on_c, 0, 83, 0
2, 12972, Note_on_c, 0, 86, 0
2, 12972, Note_on_c, 0, 83, 80
2, 12972, Note_on_c, 0, 95, 80
2, 12975, Note_on_c, 0, 71, 0
2, 12975, Note_on_c, 0, 69, 80
2, 12975, Note_on_c, 0, 74, 80
2, 12978, Note_on_c, 0, 65, 80
2, 12998, Control_c, 0, 64, 0
2, 13032, Note_on_c, 0, 95, 0
2, 13032, Note_on_c, 0, 83, 0
2, 13032, Note_on_c, 0, 93, 80
2, 13034, Note_on_c, 0, 81, 80
2, 13042, Note_on_c, 0, 65, 0
2, 13042, Note_on_c, 0, 69, 0
2, 13057, Note_on_c, 0, 93, 0
2, 13062, Note_on_c, 0, 81, 0
2, 13093, Note_on_c, 0, 74, 0
2, 13093, Note_on_c, 0, 73, 80
2, 13093, Note_on_c, 0, 81, 80
2, 13096, Note_on_c, 0, 64, 80
2, 13096, Note_on_c, 0, 69, 80
2, 13124, Note_on_c, 0, 73, 0
2, 13134, Control_c, 0, 64, 127
2, 13152, Note_on_c, 0, 81, 0
2, 13152, Note_on_c, 0, 85, 80
2, 13155, Note_on_c, 0, 69, 0
2, 13155, Note_on_c, 0, 73, 80
2, 13166, Note_on_c, 0, 64, 0
2, 13186, Note_on_c, 0, 73, 0
2, 13217, Note_on_c, 0, 64, 80
2, 13217, Note_on_c, 0, 69, 80
2, 13217, Note_on_c, 0, 73, 80
2, 13243, Control_c, 0, 64, 0
2, 13276, Note_on_c, 0, 85, 0
2, 13276, Note_on_c, 0, 90, 80
2, 13279, Note_on_c, 0, 73, 0
2, 13279, Note_on_c, 0, 78, 80
2, 13290, Note_on_c, 0, 64, 0
2, 13290, Note_on_c, 0, 69, 0
2, 13339, Note_on_c, 0, 90, 0
2, 13342, Note_on_c, 0, 78, 0
2, 13342, Note_on_c, 0, 88, 80
2, 13344, Note_on_c, 0, 64, 80
2, 13344, Note_on_c, 0, 68, 80
2, 13344, Note_on_c, 0, 74, 80
2, 13344, Note_on_c, 0, 76, 80
2, 13380, Control_c, 0, 64, 127
2, 13403, Note_on_c, 0, 76, 0
2, 13403, Note_on_c, 0, 88, 0
2, 13403, Note_on_c, 0, 95, 80
2, 13406, Note_on_c, 0, 71, 80
2, 13406, Note_on_c, 0, 83, 80
2, 13424, Note_on_c, 0, 64, 0
2, 13424, Note_on_c, 0, 74, 0
2, 13424, Note_on_c, 0, 68, 0
2, 13460, Note_on_c, 0, 95, 0
2, 13460, Note_on_c, 0, 83, 0
2, 13460, Note_on_c, 0, 96, 80
2, 13463, Note_on_c, 0, 71, 0
2, 13463, Note_on_c, 0, 64, 80
2, 13463, Note_on_c, 0, 68, 80
2, 13463, Note_on_c, 0, 72, 80
2, 13463, Note_on_c, 0, 74, 80
2, 13463, Note_on_c, 0, 84, 80
2, 13490, Control_c, 0, 64, 0
2, 13518, Note_on_c, 0, 96, 0
2, 13521, Note_on_c, 0, 72, 0
2, 13521, Note_on_c, 0, 84, 0
2, 13521, Note_on_c, 0, 85, 80
2, 13521, Note_on_c, 0, 97, 80
2, 13524, Note_on_c, 0, 73, 80
2, 13535, Note_on_c, 0, 64, 0
2, 13535, Note_on_c, 0, 68, 0
2, 13535, Note_on_c, 0, 74, 0
2, 13555, Note_on_c, 0, 73, 0
2, 13585, Note_on_c, 0, 73, 80
2, 13588, Note_on_c, 0, 64, 80
2, 13588, Note_on_c, 0, 69, 80
2, 13624, Control_c, 0, 64, 127
2, 13642, Note_on_c, 0, 97, 0
2, 13645, Note_on_c, 0, 85, 0
2, 13645, Note_on_c, 0, 73, 0
2, 13645, Note_on_c, 0, 87, 80
2, 13648, Note_on_c, 0, 75, 80
2, 13656, Note_on_c, 0, 64, 0
2, 13656, Note_on_c, 0, 69, 0
2, 13704, Note_on_c, 0, 87, 0
2, 13704, Note_on_c, 0, 75, 0
2, 13704, Note_on_c, 0, 88, 80
2, 13707, Note_on_c, 0, 64, 80
2, 13707, Note_on_c, 0, 69, 80
2, 13707, Note_on_c, 0, 73, 80
2, 13707, Note_on_c, 0, 76, 80
2, 13735, Control_c, 0, 64, 0
2, 13766, Note_on_c, 0, 76, 0
2, 13766, Note_on_c, 0, 88, 0
2, 13766, Note_on_c, 0, 78, 80
2, 13766, Note_on_c, 0, 90, 80
2, 13776, Note_on_c, 0, 73, 0
2, 13776, Note_on_c, 0, 69, 0
2, 13779, Note_on_c, 0, 64, 0
2, 13828, Note_on_c, 0, 72, 80
2, 13831, Note_on_c, 0, 51, 80
2, 13831, Note_on_c, 0, 60, 80
2, 13831, Note_on_c, 0, 66, 80
2, 13831, Note_on_c, 0, 69, 80
2, 13836, Note_on_c, 0, 39, 80
2, 13867, Control_c, 0, 64, 127
2, 13895, Note_on_c, 0, 69, 0
2, 13895, Note_on_c, 0, 66, 0
2, 13895, Note_on_c, 0, 60, 0
2, 13897, Note_on_c, 0, 51, 0
2, 13900, Note_on_c, 0, 39, 0
2, 13916, Note_on_c, 0, 72, 0
2, 13946, Note_on_c, 0, 78, 0
2, 13946, Note_on_c, 0, 72, 80
2, 13946, Note_on_c, 0, 80, 80
2, 13946, Note_on_c, 0, 92, 80
2, 13949, Note_on_c, 0, 51, 80
2, 13949, Note_on_c, 0, 60, 80
2, 13949, Note_on_c, 0, 66, 80
2, 13949, Note_on_c, 0, 69, 80
2, 13952, Note_on_c, 0, 39, 80
2, 13955, Note_on_c, 0, 90, 0
2, 13975, Control_c, 0, 64, 0
2, 14006, Note_on_c, 0, 92, 0
2, 14006, Note_on_c, 0, 80, 0
2, 14009, Note_on_c, 0, 78, 80
2, 14016, Note_on_c, 0, 90, 80
2, 14019, Note_on_c, 0, 66, 0
2, 14019, Note_on_c, 0, 69, 0
2, 14019, Note_on_c, 0, 51, 0
2, 14019, Note_on_c, 0, 60, 0
2, 14024, Note_on_c, 0, 39, 0
2, 14040, Note_on_c, 0, 72, 0
2, 14070, Note_on_c, 0, 66, 80
2, 14070, Note_on_c, 0, 69, 80
2, 14070, Note_on_c, 0, 72, 80
2, 14073, Note_on_c, 0, 51, 80
2, 14073, Note_on_c, 0, 60, 80
2, 14076, Note_on_c, 0, 39, 80
2, 14107, Control_c, 0, 64, 127
2, 14127, Note_on_c, 0, 90, 0
2, 14130, Note_on_c, 0, 78, 0
2, 14130, Note_on_c, 0, 60, 0
2, 14130, Note_on_c, 0, 80, 80
2, 14130, Note_on_c, 0, 92, 80
2, 14135, Note_on_c, 0, 39, 0
2, 14139, Note_on_c, 0, 69, 0
2, 14139, Note_on_c, 0, 66, 0
2, 14142, Note_on_c, 0, 51, 0
2, 14150, Note_on_c, 0, 72, 0
2, 14188, Note_on_c, 0, 80, 0
2, 14188, Note_on_c, 0, 92, 0
2, 14188, Note_on_c, 0, 90, 80
2, 14191, Note_on_c, 0, 60, 80
2, 14191, Note_on_c, 0, 66, 80
2, 14191, Note_on_c, 0, 69, 80
2, 14191, Note_on_c, 0, 72, 80
2, 14191, Note_on_c, 0, 78, 80
2, 14194, Note_on_c, 0, 51, 80
2, 14197, Note_on_c, 0, 39, 80
2, 14217, Control_c, 0, 64, 0
2, 14220, Note_on_c, 0, 78, 0
2, 14220, Note_on_c, 0, 90, 0
2, 14248, Note_on_c, 0, 90, 80
2, 14251, Note_on_c, 0, 78, 80
2, 14261, Note_on_c, 0, 51, 0
2, 14261, Note_on_c, 0, 69, 0
2, 14261, Note_on_c, 0, 60, 0
2, 14261, Note_on_c, 0, 66, 0
2, 14264, Note_on_c, 0, 39, 0
2, 14280, Note_on_c, 0, 72, 0
2, 14310, Note_on_c, 0, 73, 80
2, 14313, Note_on_c, 0, 52, 80
2, 14313, Note_on_c, 0, 61, 80
2, 14313, Note_on_c, 0, 64, 80
2, 14313, Note_on_c, 0, 69, 80
2, 14316, Note_on_c, 0, 40, 80
2, 14350, Control_c, 0, 64, 127
2, 14373, Note_on_c, 0, 90, 0
2, 14373, Note_on_c, 0, 78, 0
2, 14373, Note_on_c, 0, 76, 80
2, 14373, Note_on_c, 0, 88, 80
2, 14380, Note_on_c, 0, 69, 0
2, 14383, Note_on_c, 0, 52, 0
2, 14383, Note_on_c, 0, 40, 0
2, 14383, Note_on_c, 0, 61, 0
2, 14383, Note_on_c, 0, 64, 0
2, 14403, Note_on_c, 0, 73, 0
2, 14431, Note_on_c, 0, 88, 0
2, 14434, Note_on_c, 0, 76, 0
2, 14434, Note_on_c, 0, 64, 80
2, 14434, Note_on_c, 0, 69, 80
2, 14434, Note_on_c, 0, 73, 80
2, 14434, Note_on_c, 0, 85, 80
2, 14437, Note_on_c, 0, 52, 80
2, 14437, Note_on_c, 0, 61, 80
2, 14457, Note_on_c, 0, 40, 80
2, 14460, Control_c, 0, 64, 0
2, 14494, Note_on_c, 0, 85, 0
2, 14494, Note_on_c, 0, 71, 80
2, 14494, Note_on_c, 0, 83, 80
2, 14504, Note_on_c, 0, 69, 0
2, 14504, Note_on_c, 0, 64, 0
2, 14504, Note_on_c, 0, 61, 0
2, 14507, Note_on_c, 0, 40, 0
2, 14507, Note_on_c, 0, 52, 0
2, 14525, Note_on_c, 0, 73, 0
2, 14551, Note_on_c, 0, 83, 0
2, 14554, Note_on_c, 0, 71, 0
2, 14554, Note_on_c, 0, 61, 80
2, 14554, Note_on_c, 0, 64, 80
2, 14554, Note_on_c, 0, 69, 80
2, 14554, Note_on_c, 0, 81, 80
2, 14557, Note_on_c, 0, 43, 80
2, 14557, Note_on_c, 0, 55, 80
2, 14592, Control_c, 0, 64, 127
2, 14613, Note_on_c, 0, 81, 0
2, 14613, Note_on_c, 0, 69, 0
2, 14613, Note_on_c, 0, 76, 80
2, 14613, Note_on_c, 0, 88, 80
2, 14623, Note_on_c, 0, 64, 0
2, 14626, Note_on_c, 0, 55, 0
2, 14626, Note_on_c, 0, 61, 0
2, 14629, Note_on_c, 0, 43, 0
2, 14675, Note_on_c, 0, 55, 80
2, 14675, Note_on_c, 0, 61, 80
2, 14675, Note_on_c, 0, 64, 80
2, 14675, Note_on_c, 0, 69, 80
2, 14678, Note_on_c, 0, 43, 80
2, 14701, Control_c, 0, 64, 0
2, 14735, Note_on_c, 0, 88, 0
2, 14735, Note_on_c, 0, 76, 0
2, 14735, Note_on_c, 0, 74, 80
2, 14735, Note_on_c, 0, 86, 80
2, 14745, Note_on_c, 0, 64, 0
2, 14745, Note_on_c, 0, 69, 0
2, 14748, Note_on_c, 0, 55, 0
2, 14748, Note_on_c, 0, 43, 0
2, 14748, Note_on_c, 0, 61, 0
2, 14797, Note_on_c, 0, 57, 80
2, 14797, Note_on_c, 0, 62, 80
2, 14797, Note_on_c, 0, 69, 80
2, 14800, Note_on_c, 0, 42, 80
2, 14800, Note_on_c, 0, 54, 80
2, 14835, Control_c, 0, 64, 127
2, 14856, Note_on_c, 0, 74, 0
2, 14856, Note_on_c, 0, 83, 80
2, 14858, Note_on_c, 0, 59, 80
2, 14858, Note_on_c, 0, 71, 80
2, 14866, Note_on_c, 0, 69, 0
2, 14866, Note_on_c, 0, 62, 0
2, 14869, Note_on_c, 0, 57, 0
2, 14869, Note_on_c, 0, 54, 0
2, 14872, Note_on_c, 0, 42, 0
2, 14884, Note_on_c, 0, 83, 0
2, 14912, Note_on_c, 0, 86, 0
2, 14912, Note_on_c, 0, 83, 80
2, 14912, Note_on_c, 0, 95, 80
2, 14915, Note_on_c, 0, 71, 0
2, 14915, Note_on_c, 0, 74, 80
2, 14918, Note_on_c, 0, 59, 0
2, 14918, Note_on_c, 0, 41, 80
2, 14918, Note_on_c, 0, 53, 80
2, 14918, Note_on_c, 0, 57, 80
2, 14918, Note_on_c, 0, 62, 80
2, 14918, Note_on_c, 0, 69, 80
2, 14941, Control_c, 0, 64, 0
2, 14946, Note_on_c, 0, 69, 0
2, 14972, Note_on_c, 0, 95, 0
2, 14975, Note_on_c, 0, 83, 0
2, 14975, Note_on_c, 0, 81, 80
2, 14975, Note_on_c, 0, 93, 80
2, 14977, Note_on_c, 0, 69, 80
2, 14985, Note_on_c, 0, 62, 0
2, 14988, Note_on_c, 0, 53, 0
2, 14988, Note_on_c, 0, 57, 0
2, 14991, Note_on_c, 0, 41, 0
2, 15003, Note_on_c, 0, 81, 0
2, 15006, Note_on_c, 0, 69, 0
2, 15034, Note_on_c, 0, 93, 0
2, 15037, Note_on_c, 0, 74, 0
2, 15037, Note_on_c, 0, 81, 80
2, 15037, Note_on_c, 0, 85, 80
2, 15040, Note_on_c, 0, 52, 80
2, 15040, Note_on_c, 0, 61, 80
2, 15040, Note_on_c, 0, 64, 80
2, 15040, Note_on_c, 0, 69, 80
2, 15040, Note_on_c, 0, 73, 80
2, 15045, Note_on_c, 0, 40, 80
2, 15094, Note_on_c, 0, 90, 80
2, 15096, Note_on_c, 0, 73, 0
2, 15096, Note_on_c, 0, 81, 0
2, 15096, Note_on_c, 0, 85, 0
2, 15099, Note_on_c, 0, 78, 80
2, 15107, Note_on_c, 0, 69, 0
2, 15110, Note_on_c, 0, 61, 0
2, 15110, Note_on_c, 0, 64, 0
2, 15110, Note_on_c, 0, 52, 0
2, 15113, Note_on_c, 0, 40, 0
2, 15162, Note_on_c, 0, 69, 80
2, 15165, Note_on_c, 0, 52, 80
2, 15165, Note_on_c, 0, 61, 80
2, 15165, Note_on_c, 0, 64, 80
2, 15168, Note_on_c, 0, 40, 80
2, 15224, Note_on_c, 0, 78, 0
2, 15224, Note_on_c, 0, 90, 0
2, 15224, Note_on_c, 0, 88, 80
2, 15227, Note_on_c, 0, 76, 80
2, 15238, Note_on_c, 0, 69, 0
2, 15238, Note_on_c, 0, 52, 0
2, 15238, Note_on_c, 0, 61, 0
2, 15238, Note_on_c, 0, 64, 0
2, 15240, Note_on_c, 0, 40, 0
2, 15284, Note_on_c, 0, 88, 0
2, 15287, Note_on_c, 0, 76, 0
2, 15287, Note_on_c, 0, 69, 80
2, 15287, Note_on_c, 0, 75, 80
2, 15287, Note_on_c, 0, 81, 80
2, 15289, Note_on_c, 0, 54, 80
2, 15289, Note_on_c, 0, 59, 80
2, 15289, Note_on_c, 0, 63, 80
2, 15292, Note_on_c, 0, 42, 80
2, 15346, Note_on_c, 0, 71, 80
2, 15346, Note_on_c, 0, 83, 80
2, 15359, Note_on_c, 0, 63, 0
2, 15359, Note_on_c, 0, 54, 0
2, 15359, Note_on_c, 0, 59, 0
2, 15361, Note_on_c, 0, 42, 0
2, 15366, Note_on_c, 0, 81, 0
2, 15369, Note_on_c, 0, 69, 0
2, 15374, Note_on_c, 0, 83, 0
2, 15377, Note_on_c, 0, 71, 0
2, 15410, Note_on_c, 0, 75, 0
2, 15410, Note_on_c, 0, 68, 80
2, 15410, Note_on_c, 0, 71, 80
2, 15410, Note_on_c, 0, 74, 80
2, 15410, Note_on_c, 0, 83, 80
2, 15413, Note_on_c, 0, 59, 80
2, 15413, Note_on_c, 0, 62, 80
2, 15416, Note_on_c, 0, 40, 80
2, 15416, Note_on_c, 0, 52, 80
2, 15483, Note_on_c, 0, 62, 0
2, 15483, Note_on_c, 0, 68, 0
2, 15483, Note_on_c, 0, 59, 0
2, 15486, Note_on_c, 0, 52, 0
2, 15486, Note_on_c, 0, 40, 0
2, 15532, Note_on_c, 0, 83, 0
2, 15535, Note_on_c, 0, 74, 0
2, 15535, Note_on_c, 0, 71, 0
2, 15535, Note_on_c, 0, 61, 80
2, 15535, Note_on_c, 0, 64, 80
2, 15535, Note_on_c, 0, 69, 80
2, 15535, Note_on_c, 0, 73, 80
2, 15535, Note_on_c, 0, 81, 80
2, 15538, Note_on_c, 0, 57, 80
2, 15541, Note_on_c, 0, 45, 80
2, 15605, Note_on_c, 0, 81, 0
2, 15605, Note_on_c, 0, 73, 0
2, 15605, Note_on_c, 0, 69, 0
2, 15605, Note_on_c, 0, 64, 0
2, 15608, Note_on_c, 0, 61, 0
2, 15608, Note_on_c, 0, 45, 0
2, 15608, Note_on_c, 0, 57, 0
2, 15657, Note_on_c, 0, 64, 80
2, 15657, Note_on_c, 0, 76, 80
2, 15660, Note_on_c, 0, 58, 80
2, 15663, Note_on_c, 0, 46, 80
2, 15778, Note_on_c, 0, 76, 0
2, 15781, Note_on_c, 0, 64, 0
2, 15781, Note_on_c, 0, 58, 0
2, 15781, Note_on_c, 0, 46, 0
2, 15781, Note_on_c, 0, 59, 80
2, 15784, Note_on_c, 0, 47, 80
2, 15819, Control_c, 0, 64, 127
2, 15842, Note_on_c, 0, 62, 80
2, 15842, Note_on_c, 0, 64, 80
2, 15842, Note_on_c, 0, 68, 80
2, 15842, Note_on_c, 0, 80, 80
2, 15899, Note_on_c, 0, 80, 0
2, 15899, Note_on_c, 0, 83, 80
2, 15902, Note_on_c, 0, 59, 0
2, 15902, Note_on_c, 0, 47, 0
2, 15902, Note_on_c, 0, 71, 80
2, 15922, Note_on_c, 0, 68, 0
2, 15922, Note_on_c, 0, 62, 0
2, 15922, Note_on_c, 0, 64, 0
2, 15927, Control_c, 0, 64, 0
2, 15960, Note_on_c, 0, 83, 0
2, 15960, Note_on_c, 0, 86, 80
2, 15963, Note_on_c, 0, 71, 0
2, 15963, Note_on_c, 0, 59, 80
2, 15963, Note_on_c, 0, 62, 80
2, 15963, Note_on_c, 0, 64, 80
2, 15963, Note_on_c, 0, 68, 80
2, 15963, Note_on_c, 0, 74, 80
2, 16023, Note_on_c, 0, 74, 0
2, 16023, Note_on_c, 0, 86, 0
2, 16023, Note_on_c, 0, 62, 0
2, 16023, Note_on_c, 0, 64, 0
2, 16023, Note_on_c, 0, 68, 0
2, 16023, Note_on_c, 0, 90, 80
2, 16026, Note_on_c, 0, 59, 0
2, 16026, Note_on_c, 0, 78, 80
2, 16029, Note_on_c, 0, 52, 80
2, 16032, Note_on_c, 0, 40, 80
2, 16062, Control_c, 0, 64, 127
2, 16082, Note_on_c, 0, 90, 0
2, 16085, Note_on_c, 0, 78, 0
2, 16085, Note_on_c, 0, 76, 80
2, 16085, Note_on_c, 0, 88, 80
2, 16147, Note_on_c, 0, 59, 80
2, 16147, Note_on_c, 0, 62, 80
2, 16147, Note_on_c, 0, 64, 80
2, 16147, Note_on_c, 0, 68, 80
2, 16170, Note_on_c, 0, 52, 0
2, 16170, Note_on_c, 0, 40, 0
2, 16173, Control_c, 0, 64, 0
2, 16206, Note_on_c, 0, 88, 0
2, 16206, Note_on_c, 0, 76, 0
2, 16206, Note_on_c, 0, 86, 80
2, 16209, Note_on_c, 0, 74, 80
2, 16220, Note_on_c, 0, 59, 0
2, 16220, Note_on_c, 0, 64, 0
2, 16220, Note_on_c, 0, 68, 0
2, 16220, Note_on_c, 0, 62, 0
2, 16272, Note_on_c, 0, 74, 0
2, 16272, Note_on_c, 0, 86, 0
2, 16274, Note_on_c, 0, 64, 80
2, 16274, Note_on_c, 0, 76, 80
2, 16274, Note_on_c, 0, 44, 80
2, 16274, Note_on_c, 0, 56, 80
2, 16302, Note_on_c, 0, 64, 0
2, 16313, Control_c, 0, 64, 127
2, 16333, Note_on_c, 0, 76, 0
2, 16333, Note_on_c, 0, 68, 80
2, 16333, Note_on_c, 0, 80, 80
2, 16336, Note_on_c, 0, 59, 80
2, 16336, Note_on_c, 0, 62, 80
2, 16336, Note_on_c, 0, 64, 80
2, 16392, Note_on_c, 0, 80, 0
2, 16392, Note_on_c, 0, 83, 80
2, 16395, Note_on_c, 0, 56, 0
2, 16395, Note_on_c, 0, 71, 80
2, 16398, Note_on_c, 0, 44, 0
2, 16414, Note_on_c, 0, 62, 0
2, 16414, Note_on_c, 0, 68, 0
2, 16414, Note_on_c, 0, 64, 0
2, 16416, Note_on_c, 0, 59, 0
2, 16421, Control_c, 0, 64, 0
2, 16452, Note_on_c, 0, 83, 0
2, 16452, Note_on_c, 0, 88, 80
2, 16455, Note_on_c, 0, 71, 0
2, 16455, Note_on_c, 0, 64, 80
2, 16455, Note_on_c, 0, 68, 80
2, 16455, Note_on_c, 0, 76, 80
2, 16458, Note_on_c, 0, 59, 80
2, 16458, Note_on_c, 0, 62, 80
2, 16514, Note_on_c, 0, 62, 0
2, 16514, Note_on_c, 0, 64, 0
2, 16514, Note_on_c, 0, 68, 0
2, 16514, Note_on_c, 0, 59, 0
2, 16519, Note_on_c, 0, 40, 80
2, 16519, Note_on_c, 0, 52, 80
2, 16555, Control_c, 0, 64, 127
2, 16575, Note_on_c, 0, 88, 0
2, 16575, Note_on_c, 0, 76, 0
2, 16575, Note_on_c, 0, 68, 80
2, 16575, Note_on_c, 0, 80, 80
2, 16575, Note_on_c, 0, 92, 80
2, 16578, Note_on_c, 0, 74, 80
2, 16606, Note_on_c, 0, 74, 0
2, 16606, Note_on_c, 0, 68, 0
2, 16633, Note_on_c, 0, 92, 0
2, 16633, Note_on_c, 0, 93, 80
2, 16636, Note_on_c, 0, 80, 0
2, 16636, Note_on_c, 0, 52, 0
2, 16636, Note_on_c, 0, 59, 80
2, 16636, Note_on_c, 0, 62, 80
2, 16636, Note_on_c, 0, 64, 80
2, 16636, Note_on_c, 0, 68, 80
2, 16636, Note_on_c, 0, 74, 80
2, 16636, Note_on_c, 0, 81, 80
2, 16639, Note_on_c, 0, 40, 0
2, 16659, Control_c, 0, 64, 0
2, 16664, Note_on_c, 0, 74, 0
2, 16692, Note_on_c, 0, 81, 0
2, 16692, Note_on_c, 0, 93, 0
2, 16692, Note_on_c, 0, 83, 80
2, 16692, Note_on_c, 0, 95, 80
2, 16697, Note_on_c, 0, 74, 80
2, 16704, Note_on_c, 0, 64, 0
2, 16704, Note_on_c, 0, 59, 0
2, 16704, Note_on_c, 0, 68, 0
2, 16704, Note_on_c, 0, 62, 0
2, 16723, Note_on_c, 0, 74, 0
2, 16751, Note_on_c, 0, 83, 0
2, 16751, Note_on_c, 0, 95, 0
2, 16751, Note_on_c, 0, 96, 80
2, 16753, Note_on_c, 0, 75, 80
2, 16753, Note_on_c, 0, 84, 80
2, 16756, Note_on_c, 0, 45, 80
2, 16756, Note_on_c, 0, 57, 80
2, 16792, Control_c, 0, 64, 127
2, 16812, Note_on_c, 0, 84, 0
2, 16812, Note_on_c, 0, 96, 0
2, 16812, Note_on_c, 0, 97, 80
2, 16815, Note_on_c, 0, 75, 0
2, 16815, Note_on_c, 0, 64, 80
2, 16815, Note_on_c, 0, 69, 80
2, 16815, Note_on_c, 0, 76, 80
2, 16815, Note_on_c, 0, 85, 80
2, 16815, Note_on_c, 0, 61, 80
2, 16874, Note_on_c, 0, 45, 0
2, 16874, Note_on_c, 0, 57, 0
2, 16893, Note_on_c, 0, 61, 0
2, 16893, Note_on_c, 0, 69, 0
2, 16893, Note_on_c, 0, 64, 0
2, 16897, Control_c, 0, 64, 0
2, 16931, Note_on_c, 0, 85, 0
2, 16931, Note_on_c, 0, 97, 0
2, 16931, Note_on_c, 0, 96, 80
2, 16934, Note_on_c, 0, 76, 0
2, 16934, Note_on_c, 0, 84, 80
2, 16937, Note_on_c, 0, 61, 80
2, 16937, Note_on_c, 0, 64, 80
2, 16937, Note_on_c, 0, 69, 80
2, 16937, Note_on_c, 0, 75, 80
2, 16993, Note_on_c, 0, 96, 0
2, 16996, Note_on_c, 0, 69, 0
2, 16996, Note_on_c, 0, 64, 0
2, 16996, Note_on_c, 0, 84, 0
2, 16996, Note_on_c, 0, 75, 0
2, 16996, Note_on_c, 0, 85, 80
2, 16996, Note_on_c, 0, 97, 80
2, 16999, Note_on_c, 0, 61, 0
2, 16999, Note_on_c, 0, 76, 80
2, 16999, Note_on_c, 0, 40, 80
2, 16999, Note_on_c, 0, 52, 80
2, 17035, Control_c, 0, 64, 127
2, 17114, Note_on_c, 0, 97, 0
2, 17117, Note_on_c, 0, 85, 0
2, 17117, Note_on_c, 0, 52, 0
2, 17117, Note_on_c, 0, 76, 0
2, 17117, Note_on_c, 0, 64, 80
2, 17117, Note_on_c, 0, 69, 80
2, 17117, Note_on_c, 0, 75, 80
2, 17117, Note_on_c, 0, 84, 80
2, 17117, Note_on_c, 0, 96, 80
2, 17120, Note_on_c, 0, 40, 0
2, 17120, Note_on_c, 0, 61, 80
2, 17140, Control_c, 0, 64, 0
2, 17176, Note_on_c, 0, 84, 0
2, 17176, Note_on_c, 0, 75, 0
2, 17176, Note_on_c, 0, 96, 0
2, 17176, Note_on_c, 0, 85, 80
2, 17176, Note_on_c, 0, 97, 80
2, 17179, Note_on_c, 0, 76, 80
2, 17189, Note_on_c, 0, 64, 0
2, 17189, Note_on_c, 0, 61, 0
2, 17189, Note_on_c, 0, 69, 0
2, 17241, Note_on_c, 0, 69, 80
2, 17241, Note_on_c, 0, 73, 80
2, 17241, Note_on_c, 0, 81, 80
2, 17244, Note_on_c, 0, 45, 80
2, 17244, Note_on_c, 0, 57, 80
2, 17304, Note_on_c, 0, 57, 0
2, 17306, Note_on_c, 0, 45, 0
2, 17306, Note_on_c, 0, 44, 80
2, 17306, Note_on_c, 0, 56, 80
2, 17332, Note_on_c, 0, 69, 0
2, 17366, Note_on_c, 0, 56, 0
2, 17366, Note_on_c, 0, 44, 0
2, 17366, Note_on_c, 0, 45, 80
2, 17366, Note_on_c, 0, 57, 80
2, 17366, Note_on_c, 0, 61, 80
2, 17366, Note_on_c, 0, 64, 80
2, 17366, Note_on_c, 0, 69, 80
2, 17392, Note_on_c, 0, 69, 0
2, 17395, Note_on_c, 0, 64, 0
2, 17395, Note_on_c, 0, 61, 0
2, 17425, Note_on_c, 0, 57, 0
2, 17425, Note_on_c, 0, 45, 0
2, 17425, Note_on_c, 0, 61, 80
2, 17425, Note_on_c, 0, 64, 80
2, 17425, Note_on_c, 0, 69, 80
2, 17428, Note_on_c, 0, 49, 80
2, 17451, Note_on_c, 0, 64, 0
2, 17454, Note_on_c, 0, 69, 0
2, 17454, Note_on_c, 0, 61, 0
2, 17485, Note_on_c, 0, 49, 0
2, 17485, Note_on_c, 0, 52, 80
2, 17485, Note_on_c, 0, 61, 80
2, 17485, Note_on_c, 0, 64, 80
2, 17485, Note_on_c, 0, 69, 80
2, 17488, Note_on_c, 0, 40, 80
2, 17549, Note_on_c, 0, 81, 0
2, 17549, Note_on_c, 0, 85, 0
2, 17549, Note_on_c, 0, 97, 0
2, 17552, Note_on_c, 0, 69, 0
2, 17552, Note_on_c, 0, 61, 0
2, 17552, Note_on_c, 0, 76, 0
2, 17552, Note_on_c, 0, 73, 0
2, 17552, Note_on_c, 0, 64, 0
2, 17606, Note_on_c, 0, 52, 0
2, 17606, Note_on_c, 0, 58, 80
2, 17606, Note_on_c, 0, 61, 80
2, 17606, Note_on_c, 0, 64, 80
2, 17606, Note_on_c, 0, 67, 80
2, 17606, Note_on_c, 0, 73, 80
2, 17606, Note_on_c, 0, 76, 80
2, 17606, Note_on_c, 0, 85, 80
2, 17606, Note_on_c, 0, 88, 80
2, 17609, Note_on_c, 0, 40, 0
2, 17609, Note_on_c, 0, 46, 80
2, 17722, Note_on_c, 0, 88, 0
2, 17722, Note_on_c, 0, 85, 0
2, 17722, Note_on_c, 0, 76, 0
2, 17722, Note_on_c, 0, 73, 0
2, 17722, Note_on_c, 0, 77, 80
2, 17722, Note_on_c, 0, 89, 80
2, 17725, Note_on_c, 0, 61, 0
2, 17725, Note_on_c, 0, 67, 0
2, 17725, Note_on_c, 0, 46, 0
2, 17725, Note_on_c, 0, 64, 0
2, 17725, Note_on_c, 0, 58, 0
2, 17725, Note_on_c, 0, 47, 80
2, 17725, Note_on_c, 0, 59, 80
2, 17725, Note_on_c, 0, 74, 80
2, 17753, Note_on_c, 0, 74, 0
2, 17784, Note_on_c, 0, 89, 0
2, 17784, Note_on_c, 0, 90, 80
2, 17786, Note_on_c, 0, 74, 80
2, 17786, Note_on_c, 0, 78, 80
2, 17794, Note_on_c, 0, 77, 0
2, 17812, Note_on_c, 0, 59, 0
2, 17846, Note_on_c, 0, 47, 0
2, 17846, Note_on_c, 0, 59, 80
2, 17846, Note_on_c, 0, 64, 80
2, 17846, Note_on_c, 0, 68, 80
2, 17874, Note_on_c, 0, 74, 0
2, 17897, Note_on_c, 0, 80, 80
2, 17902, Note_on_c, 0, 90, 0
2, 17902, Note_on_c, 0, 78, 0
2, 17902, Note_on_c, 0, 71, 80
2, 17902, Note_on_c, 0, 74, 80
2, 17902, Note_on_c, 0, 86, 80
2, 17912, Note_on_c, 0, 64, 0
2, 17912, Note_on_c, 0, 68, 0
2, 17915, Note_on_c, 0, 59, 0
2, 17967, Note_on_c, 0, 59, 80
2, 17967, Note_on_c, 0, 64, 80
2, 17967, Note_on_c, 0, 68, 80
2, 17970, Note_on_c, 0, 40, 80
2, 17970, Note_on_c, 0, 52, 80
2, 18026, Note_on_c, 0, 52, 0
2, 18026, Note_on_c, 0, 53, 80
2, 18029, Note_on_c, 0, 40, 0
2, 18029, Note_on_c, 0, 41, 80
2, 18089, Note_on_c, 0, 41, 0
2, 18089, Note_on_c, 0, 53, 0
2, 18089, Note_on_c, 0, 54, 80
2, 18092, Note_on_c, 0, 42, 80
2, 18148, Note_on_c, 0, 42, 0
2, 18148, Note_on_c, 0, 54, 0
2, 18148, Note_on_c, 0, 43, 80
2, 18148, Note_on_c, 0, 55, 80
2, 18156, Note_on_c, 0, 68, 0
2, 18156, Note_on_c, 0, 71, 0
2, 18156, Note_on_c, 0, 74, 0
2, 18156, Note_on_c, 0, 86, 0
2, 18156, Note_on_c, 0, 80, 0
2, 18156, Note_on_c, 0, 59, 0
2, 18167, Note_on_c, 0, 64, 0
2, 18208, Note_on_c, 0, 77, 80
2, 18208, Note_on_c, 0, 89, 80
2, 18211, Note_on_c, 0, 55, 0
2, 18211, Note_on_c, 0, 74, 80
2, 18214, Note_on_c, 0, 43, 0
2, 18214, Note_on_c, 0, 44, 80
2, 18214, Note_on_c, 0, 56, 80
2, 18240, Note_on_c, 0, 74, 0
2, 18270, Note_on_c, 0, 89, 0
2, 18270, Note_on_c, 0, 77, 0
2, 18270, Note_on_c, 0, 90, 80
2, 18273, Note_on_c, 0, 74, 80
2, 18273, Note_on_c, 0, 78, 80
2, 18335, Note_on_c, 0, 44, 0
2, 18335, Note_on_c, 0, 56, 0
2, 18335, Note_on_c, 0, 59, 80
2, 18335, Note_on_c, 0, 64, 80
2, 18335, Note_on_c, 0, 68, 80
2, 18362, Note_on_c, 0, 74, 0
2, 18390, Note_on_c, 0, 78, 0
2, 18390, Note_on_c, 0, 90, 0
2, 18390, Note_on_c, 0, 86, 80
2, 18393, Note_on_c, 0, 71, 80
2, 18393, Note_on_c, 0, 74, 80
2, 18393, Note_on_c, 0, 80, 80
2, 18404, Note_on_c, 0, 59, 0
2, 18404, Note_on_c, 0, 68, 0
2, 18404, Note_on_c, 0, 64, 0
2, 18457, Note_on_c, 0, 68, 80
2, 18460, Note_on_c, 0, 52, 80
2, 18460, Note_on_c, 0, 59, 80
2, 18460, Note_on_c, 0, 64, 80
2, 18463, Note_on_c, 0, 40, 80
2, 18520, Note_on_c, 0, 52, 0
2, 18523, Note_on_c, 0, 40, 0
2, 18523, Note_on_c, 0, 41, 80
2, 18523, Note_on_c, 0, 53, 80
2, 18579, Note_on_c, 0, 53, 0
2, 18582, Note_on_c, 0, 41, 0
2, 18582, Note_on_c, 0, 42, 80
2, 18582, Note_on_c, 0, 54, 80
2, 18639, Note_on_c, 0, 54, 0
2, 18639, Note_on_c, 0, 56, 80
2, 18642, Note_on_c, 0, 42, 0
2, 18642, Note_on_c, 0, 44, 80
2, 18647, Note_on_c, 0, 86, 0
2, 18647, Note_on_c, 0, 80, 0
2, 18649, Note_on_c, 0, 64, 0
2, 18649, Note_on_c, 0, 59, 0
2, 18649, Note_on_c, 0, 68, 0
2, 18649, Note_on_c, 0, 74, 0
2, 18660, Note_on_c, 0, 71, 0
2, 18701, Note_on_c, 0, 56, 0
2, 18701, Note_on_c, 0, 44, 0
2, 18701, Note_on_c, 0, 73, 80
2, 18701, Note_on_c, 0, 77, 80
2, 18701, Note_on_c, 0, 89, 80
2, 18704, Note_on_c, 0, 45, 80
2, 18704, Note_on_c, 0, 57, 80
2, 18732, Note_on_c, 0, 73, 0
2, 18740, Control_c, 0, 64, 127
2, 18760, Note_on_c, 0, 77, 0
2, 18760, Note_on_c, 0, 89, 0
2, 18763, Note_on_c, 0, 90, 80
2, 18766, Note_on_c, 0, 73, 80
2, 18766, Note_on_c, 0, 78, 80
2, 18830, Note_on_c, 0, 57, 0
2, 18833, Note_on_c, 0, 45, 0
2, 18833, Note_on_c, 0, 61, 80
2, 18833, Note_on_c, 0, 64, 80
2, 18833, Note_on_c, 0, 69, 80
2, 18853, Control_c, 0, 64, 0
2, 18858, Note_on_c, 0, 73, 0
2, 18888, Note_on_c, 0, 90, 0
2, 18891, Note_on_c, 0, 78, 0
2, 18891, Note_on_c, 0, 73, 80
2, 18891, Note_on_c, 0, 80, 80
2, 18891, Note_on_c, 0, 92, 80
2, 18902, Note_on_c, 0, 61, 0
2, 18902, Note_on_c, 0, 64, 0
2, 18902, Note_on_c, 0, 69, 0
2, 18951, Note_on_c, 0, 92, 0
2, 18954, Note_on_c, 0, 80, 0
2, 18954, Note_on_c, 0, 90, 80
2, 18957, Note_on_c, 0, 52, 80
2, 18957, Note_on_c, 0, 69, 80
2, 18957, Note_on_c, 0, 78, 80
2, 18960, Note_on_c, 0, 40, 80
2, 18985, Note_on_c, 0, 69, 0
2, 18985, Note_on_c, 0, 73, 0
2, 18993, Control_c, 0, 64, 127
2, 19013, Note_on_c, 0, 90, 0
2, 19016, Note_on_c, 0, 78, 0
2, 19016, Note_on_c, 0, 69, 80
2, 19016, Note_on_c, 0, 73, 80
2, 19016, Note_on_c, 0, 85, 80
2, 19042, Note_on_c, 0, 85, 0
2, 19045, Note_on_c, 0, 69, 0
2, 19045, Note_on_c, 0, 73, 0
2, 19079, Note_on_c, 0, 52, 0
2, 19079, Note_on_c, 0, 61, 80
2, 19079, Note_on_c, 0, 64, 80
2, 19079, Note_on_c, 0, 69, 80
2, 19079, Note_on_c, 0, 73, 80
2, 19079, Note_on_c, 0, 76, 80
2, 19079, Note_on_c, 0, 88, 80
2, 19081, Note_on_c, 0, 40, 0
2, 19081, Note_on_c, 0, 57, 80
2, 19102, Control_c, 0, 64, 0
2, 19106, Note_on_c, 0, 76, 0
2, 19137, Note_on_c, 0, 73, 0
2, 19137, Note_on_c, 0, 88, 0
2, 19137, Note_on_c, 0, 81, 80
2, 19137, Note_on_c, 0, 93, 80
2, 19140, Note_on_c, 0, 76, 80
2, 19148, Note_on_c, 0, 64, 0
2, 19151, Note_on_c, 0, 57, 0
2, 19151, Note_on_c, 0, 61, 0
2, 19151, Note_on_c, 0, 69, 0
2, 19166, Note_on_c, 0, 93, 0
2, 19169, Note_on_c, 0, 81, 0
2, 19200, Note_on_c, 0, 93, 80
2, 19200, Note_on_c, 0, 97, 80
2, 19202, Note_on_c, 0, 76, 0
2, 19202, Note_on_c, 0, 73, 80
2, 19202, Note_on_c, 0, 81, 80
2, 19202, Note_on_c, 0, 85, 80
2, 19205, Note_on_c, 0, 45, 80
2, 19205, Note_on_c, 0, 57, 80
2, 19205, Note_on_c, 0, 61, 80
2, 19205, Note_on_c, 0, 69, 80
2, 19228, Note_on_c, 0, 97, 0
2, 19228, Note_on_c, 0, 93, 0
2, 19231, Note_on_c, 0, 73, 0
2, 19259, Note_on_c, 0, 81, 0
2, 19259, Note_on_c, 0, 97, 80
2, 19259, Note_on_c, 0, 100, 80
2, 19262, Note_on_c, 0, 57, 0
2, 19262, Note_on_c, 0, 45, 0
2, 19262, Note_on_c, 0, 52, 80
2, 19262, Note_on_c, 0, 73, 80
2, 19262, Note_on_c, 0, 76, 80
2, 19262, Note_on_c, 0, 88, 80
2, 19265, Note_on_c, 0, 40, 80
2, 19324, Note_on_c, 0, 40, 0
2, 19324, Note_on_c, 0, 52, 0
2, 19324, Note_on_c, 0, 41, 80
2, 19324, Note_on_c, 0, 53, 80
2, 19340, Note_on_c, 0, 69, 0
2, 19347, Note_on_c, 0, 97, 0
2, 19350, Note_on_c, 0, 73, 0
2, 19378, Note_on_c, 0, 100, 0
2, 19378, Note_on_c, 0, 88, 0
2, 19378, Note_on_c, 0, 93, 80
2, 19381, Note_on_c, 0, 53, 0
2, 19381, Note_on_c, 0, 41, 0
2, 19381, Note_on_c, 0, 76, 0
2, 19381, Note_on_c, 0, 54, 80
2, 19381, Note_on_c, 0, 69, 80
2, 19381, Note_on_c, 0, 73, 80
2, 19381, Note_on_c, 0, 81, 80
2, 19381, Note_on_c, 0, 97, 80
2, 19384, Note_on_c, 0, 42, 80
2, 19410, Note_on_c, 0, 81, 0
2, 19410, Note_on_c, 0, 73, 0
2, 19410, Note_on_c, 0, 93, 0
2, 19438, Note_on_c, 0, 97, 0
2, 19440, Note_on_c, 0, 73, 80
2, 19440, Note_on_c, 0, 76, 80
2, 19440, Note_on_c, 0, 81, 80
2, 19440, Note_on_c, 0, 88, 80
2, 19440, Note_on_c, 0, 93, 80
2, 19443, Note_on_c, 0, 42, 0
2, 19443, Note_on_c, 0, 54, 0
2, 19443, Note_on_c, 0, 55, 80
2, 19446, Note_on_c, 0, 43, 80
2, 19503, Note_on_c, 0, 43, 0
2, 19503, Note_on_c, 0, 55, 0
2, 19503, Note_on_c, 0, 56, 80
2, 19506, Note_on_c, 0, 44, 80
2, 19521, Note_on_c, 0, 69, 0
2, 19529, Note_on_c, 0, 88, 0
2, 19529, Note_on_c, 0, 81, 0
2, 19529, Note_on_c, 0, 76, 0
2, 19560, Note_on_c, 0, 56, 0
2, 19560, Note_on_c, 0, 93, 0
2, 19560, Note_on_c, 0, 73, 0
2, 19560, Note_on_c, 0, 69, 80
2, 19560, Note_on_c, 0, 76, 80
2, 19560, Note_on_c, 0, 81, 80
2, 19560, Note_on_c, 0, 88, 80
2, 19562, Note_on_c, 0, 44, 0
2, 19562, Note_on_c, 0, 45, 80
2, 19562, Note_on_c, 0, 57, 80
2, 19622, Note_on_c, 0, 57, 0
2, 19622, Note_on_c, 0, 45, 0
2, 19622, Note_on_c, 0, 46, 80
2, 19622, Note_on_c, 0, 58, 80
2, 19679, Note_on_c, 0, 58, 0
2, 19679, Note_on_c, 0, 76, 0
2, 19679, Note_on_c, 0, 81, 0
2, 19679, Note_on_c, 0, 61, 0
2, 19679, Note_on_c, 0, 69, 0
2, 19679, Note_on_c, 0, 85, 0
2, 19679, Note_on_c, 0, 88, 0
2, 19679, Note_on_c, 0, 46, 0
2, 19679, Note_on_c, 0, 47, 80
2, 19679, Note_on_c, 0, 59, 80
2, 19717, Control_c, 0, 64, 127
2, 19743, Note_on_c, 0, 62, 80
2, 19743, Note_on_c, 0, 64, 80
2, 19743, Note_on_c, 0, 68, 80
2, 19743, Note_on_c, 0, 80, 80
2, 19763, Note_on_c, 0, 59, 0
2, 19804, Note_on_c, 0, 47, 0
2, 19804, Note_on_c, 0, 80, 0
2, 19804, Note_on_c, 0, 71, 80
2, 19804, Note_on_c, 0, 83, 80
2, 19823, Note_on_c, 0, 64, 0
2, 19823, Note_on_c, 0, 62, 0
2, 19823, Note_on_c, 0, 68, 0
2, 19827, Control_c, 0, 64, 0
2, 19866, Note_on_c, 0, 83, 0
2, 19866, Note_on_c, 0, 86, 80
2, 19869, Note_on_c, 0, 71, 0
2, 19869, Note_on_c, 0, 59, 80
2, 19869, Note_on_c, 0, 62, 80
2, 19869, Note_on_c, 0, 64, 80
2, 19869, Note_on_c, 0, 68, 80
2, 19869, Note_on_c, 0, 74, 80
2, 19928, Note_on_c, 0, 74, 0
2, 19928, Note_on_c, 0, 59, 0
2, 19928, Note_on_c, 0, 62, 0
2, 19928, Note_on_c, 0, 86, 0
2, 19928, Note_on_c, 0, 68, 0
2, 19928, Note_on_c, 0, 64, 0
2, 19928, Note_on_c, 0, 78, 80
2, 19928, Note_on_c, 0, 90, 80
2, 19931, Note_on_c, 0, 40, 80
2, 19931, Note_on_c, 0, 52, 80
2, 19965, Control_c, 0, 64, 127
2, 19988, Note_on_c, 0, 90, 0
2, 19988, Note_on_c, 0, 78, 0
2, 19991, Note_on_c, 0, 76, 80
2, 19991, Note_on_c, 0, 88, 80
2, 20050, Note_on_c, 0, 52, 0
2, 20050, Note_on_c, 0, 59, 80
2, 20050, Note_on_c, 0, 62, 80
2, 20050, Note_on_c, 0, 64, 80
2, 20050, Note_on_c, 0, 68, 80
2, 20053, Note_on_c, 0, 40, 0
2, 20073, Control_c, 0, 64, 0
2, 20107, Note_on_c, 0, 88, 0
2, 20107, Note_on_c, 0, 86, 80
2, 20110, Note_on_c, 0, 76, 0
2, 20110, Note_on_c, 0, 74, 80
2, 20120, Note_on_c, 0, 68, 0
2, 20120, Note_on_c, 0, 59, 0
2, 20120, Note_on_c, 0, 62, 0
2, 20120, Note_on_c, 0, 64, 0
2, 20169, Note_on_c, 0, 86, 0
2, 20172, Note_on_c, 0, 74, 0
2, 20172, Note_on_c, 0, 64, 80
2, 20172, Note_on_c, 0, 88, 80
2, 20175, Note_on_c, 0, 56, 80
2, 20175, Note_on_c, 0, 76, 80
2, 20175, Note_on_c, 0, 44, 80
2, 20201, Note_on_c, 0, 64, 0
2, 20208, Control_c, 0, 64, 127
2, 20232, Note_on_c, 0, 88, 0
2, 20232, Note_on_c, 0, 92, 80
2, 20234, Note_on_c, 0, 76, 0
2, 20234, Note_on_c, 0, 62, 80
2, 20234, Note_on_c, 0, 64, 80
2, 20234, Note_on_c, 0, 68, 80
2, 20234, Note_on_c, 0, 80, 80
2, 20237, Note_on_c, 0, 59, 80
2, 20291, Note_on_c, 0, 80, 0
2, 20291, Note_on_c, 0, 92, 0
2, 20291, Note_on_c, 0, 83, 80
2, 20291, Note_on_c, 0, 95, 80
2, 20294, Note_on_c, 0, 44, 0
2, 20294, Note_on_c, 0, 56, 0
2, 20294, Note_on_c, 0, 71, 80
2, 20312, Note_on_c, 0, 62, 0
2, 20312, Note_on_c, 0, 59, 0
2, 20312, Note_on_c, 0, 64, 0
2, 20312, Note_on_c, 0, 68, 0
2, 20317, Control_c, 0, 64, 0
2, 20351, Note_on_c, 0, 83, 0
2, 20351, Note_on_c, 0, 95, 0
2, 20351, Note_on_c, 0, 88, 80
2, 20351, Note_on_c, 0, 100, 80
2, 20353, Note_on_c, 0, 71, 0
2, 20353, Note_on_c, 0, 59, 80
2, 20353, Note_on_c, 0, 62, 80
2, 20353, Note_on_c, 0, 64, 80
2, 20353, Note_on_c, 0, 68, 80
2, 20353, Note_on_c, 0, 76, 80
2, 20410, Note_on_c, 0, 68, 0
2, 20410, Note_on_c, 0, 62, 0
2, 20410, Note_on_c, 0, 59, 0
2, 20410, Note_on_c, 0, 64, 0
2, 20415, Note_on_c, 0, 40, 80
2, 20415, Note_on_c, 0, 52, 80
2, 20448, Control_c, 0, 64, 127
2, 20469, Note_on_c, 0, 100, 0
2, 20472, Note_on_c, 0, 88, 0
2, 20472, Note_on_c, 0, 76, 0
2, 20472, Note_on_c, 0, 74, 80
2, 20472, Note_on_c, 0, 80, 80
2, 20472, Note_on_c, 0, 92, 80
2, 20502, Note_on_c, 0, 74, 0
2, 20530, Note_on_c, 0, 80, 0
2, 20530, Note_on_c, 0, 92, 0
2, 20530, Note_on_c, 0, 68, 80
2, 20530, Note_on_c, 0, 81, 80
2, 20530, Note_on_c, 0, 93, 80
2, 20533, Note_on_c, 0, 40, 0
2, 20533, Note_on_c, 0, 52, 0
2, 20533, Note_on_c, 0, 59, 80
2, 20533, Note_on_c, 0, 62, 80
2, 20533, Note_on_c, 0, 64, 80
2, 20533, Note_on_c, 0, 74, 80
2, 20553, Control_c, 0, 64, 0
2, 20561, Note_on_c, 0, 74, 0
2, 20592, Note_on_c, 0, 93, 0
2, 20592, Note_on_c, 0, 81, 0
2, 20592, Note_on_c, 0, 83, 80
2, 20592, Note_on_c, 0, 95, 80
2, 20594, Note_on_c, 0, 74, 80
2, 20599, Note_on_c, 0, 62, 0
2, 20599, Note_on_c, 0, 64, 0
2, 20599, Note_on_c, 0, 68, 0
2, 20602, Note_on_c, 0, 59, 0
2, 20622, Note_on_c, 0, 74, 0
2, 20653, Note_on_c, 0, 95, 0
2, 20656, Note_on_c, 0, 83, 0
2, 20656, Note_on_c, 0, 84, 80
2, 20656, Note_on_c, 0, 96, 80
2, 20659, Note_on_c, 0, 75, 80
2, 20662, Note_on_c, 0, 45, 80
2, 20662, Note_on_c, 0, 57, 80
2, 20692, Control_c, 0, 64, 127
2, 20715, Note_on_c, 0, 75, 0
2, 20715, Note_on_c, 0, 84, 0
2, 20715, Note_on_c, 0, 96, 0
2, 20715, Note_on_c, 0, 85, 80
2, 20715, Note_on_c, 0, 97, 80
2, 20718, Note_on_c, 0, 61, 80
2, 20718, Note_on_c, 0, 64, 80
2, 20718, Note_on_c, 0, 69, 80
2, 20718, Note_on_c, 0, 76, 80
2, 20775, Note_on_c, 0, 45, 0
2, 20775, Note_on_c, 0, 57, 0
2, 20795, Note_on_c, 0, 64, 0
2, 20795, Note_on_c, 0, 61, 0
2, 20795, Note_on_c, 0, 69, 0
2, 20798, Control_c, 0, 64, 0
2, 20803, Note_on_c, 0, 97, 0
2, 20803, Note_on_c, 0, 85, 0
2, 20833, Note_on_c, 0, 97, 80
2, 20836, Note_on_c, 0, 76, 0
2, 20836, Note_on_c, 0, 77, 80
2, 20836, Note_on_c, 0, 85, 80
2, 20839, Note_on_c, 0, 61, 80
2, 20839, Note_on_c, 0, 64, 80
2, 20839, Note_on_c, 0, 69, 80
2, 20893, Note_on_c, 0, 69, 0
2, 20893, Note_on_c, 0, 61, 0
2, 20893, Note_on_c, 0, 64, 0
2, 20896, Note_on_c, 0, 44, 80
2, 20896, Note_on_c, 0, 56, 80
2, 20924, Note_on_c, 0, 77, 0
2, 20928, Control_c, 0, 64, 127
2, 20952, Note_on_c, 0, 97, 0
2, 20954, Note_on_c, 0, 85, 0
2, 20954, Note_on_c, 0, 77, 80
2, 20954, Note_on_c, 0, 80, 80
2, 20954, Note_on_c, 0, 92, 80
2, 20982, Note_on_c, 0, 77, 0
2, 21013, Note_on_c, 0, 97, 80
2, 21016, Note_on_c, 0, 80, 0
2, 21016, Note_on_c, 0, 92, 0
2, 21016, Note_on_c, 0, 56, 0
2, 21016, Note_on_c, 0, 71, 80
2, 21016, Note_on_c, 0, 77, 80
2, 21016, Note_on_c, 0, 85, 80
2, 21019, Note_on_c, 0, 44, 0
2, 21019, Note_on_c, 0, 61, 80
2, 21019, Note_on_c, 0, 65, 80
2, 21039, Control_c, 0, 64, 0
2, 21085, Note_on_c, 0, 65, 0
2, 21085, Note_on_c, 0, 71, 0
2, 21085, Note_on_c, 0, 61, 0
2, 21103, Note_on_c, 0, 97, 0
2, 21103, Note_on_c, 0, 85, 0
2, 21137, Note_on_c, 0, 77, 0
2, 21137, Note_on_c, 0, 78, 80
2, 21137, Note_on_c, 0, 85, 80
2, 21137, Note_on_c, 0, 97, 80
2, 21140, Note_on_c, 0, 42, 80
2, 21140, Note_on_c, 0, 54, 80
2, 21227, Note_on_c, 0, 97, 0
2, 21230, Note_on_c, 0, 78, 0
2, 21230, Note_on_c, 0, 85, 0
2, 21261, Note_on_c, 0, 97, 80
2, 21264, Note_on_c, 0, 57, 80
2, 21264, Note_on_c, 0, 61, 80
2, 21264, Note_on_c, 0, 66, 80
2, 21264, Note_on_c, 0, 69, 80
2, 21264, Note_on_c, 0, 78, 80
2, 21264, Note_on_c, 0, 85, 80
2, 21291, Note_on_c, 0, 78, 0
2, 21294, Note_on_c, 0, 69, 0
2, 21294, Note_on_c, 0, 57, 0
2, 21294, Note_on_c, 0, 61, 0
2, 21294, Note_on_c, 0, 66, 0
2, 21322, Note_on_c, 0, 97, 0
2, 21325, Note_on_c, 0, 85, 0
2, 21325, Note_on_c, 0, 61, 80
2, 21325, Note_on_c, 0, 66, 80
2, 21325, Note_on_c, 0, 69, 80
2, 21325, Note_on_c, 0, 78, 80
2, 21325, Note_on_c, 0, 90, 80
2, 21325, Note_on_c, 0, 57, 80
2, 21353, Note_on_c, 0, 69, 0
2, 21353, Note_on_c, 0, 66, 0
2, 21353, Note_on_c, 0, 61, 0
2, 21356, Note_on_c, 0, 57, 0
2, 21356, Note_on_c, 0, 54, 0
2, 21366, Note_on_c, 0, 42, 0
2, 21384, Note_on_c, 0, 90, 0
2, 21384, Note_on_c, 0, 81, 80
2, 21384, Note_on_c, 0, 93, 80
2, 21387, Note_on_c, 0, 54, 80
2, 21387, Note_on_c, 0, 57, 80
2, 21387, Note_on_c, 0, 61, 80
2, 21387, Note_on_c, 0, 66, 80
2, 21387, Note_on_c, 0, 69, 80
2, 21390, Note_on_c, 0, 42, 80
2, 21416, Note_on_c, 0, 66, 0
2, 21419, Note_on_c, 0, 69, 0
2, 21419, Note_on_c, 0, 61, 0
2, 21419, Note_on_c, 0, 57, 0
2, 21447, Note_on_c, 0, 93, 0
2, 21450, Note_on_c, 0, 81, 0
2, 21450, Note_on_c, 0, 66, 80
2, 21450, Note_on_c, 0, 69, 80
2, 21450, Note_on_c, 0, 85, 80
2, 21450, Note_on_c, 0, 97, 80
2, 21453, Note_on_c, 0, 57, 80
2, 21453, Note_on_c, 0, 61, 80
2, 21506, Note_on_c, 0, 78, 0
2, 21511, Note_on_c, 0, 40, 80
2, 21511, Note_on_c, 0, 52, 80
2, 21527, Note_on_c, 0, 69, 0
2, 21527, Note_on_c, 0, 66, 0
2, 21529, Note_on_c, 0, 61, 0
2, 21529, Note_on_c, 0, 54, 0
2, 21529, Note_on_c, 0, 57, 0
2, 21534, Note_on_c, 0, 97, 0
2, 21537, Note_on_c, 0, 85, 0
2, 21540, Note_on_c, 0, 42, 0
2, 21568, Note_on_c, 0, 85, 80
2, 21568, Note_on_c, 0, 97, 80
2, 21571, Note_on_c, 0, 62, 80
2, 21571, Note_on_c, 0, 66, 80
2, 21571, Note_on_c, 0, 73, 80
2, 21632, Note_on_c, 0, 40, 0
2, 21632, Note_on_c, 0, 52, 0
2, 21632, Note_on_c, 0, 50, 80
2, 21635, Note_on_c, 0, 38, 80
2, 21669, Control_c, 0, 64, 127
2, 21722, Note_on_c, 0, 62, 0
2, 21722, Note_on_c, 0, 66, 0
2, 21753, Note_on_c, 0, 50, 0
2, 21753, Note_on_c, 0, 62, 80
2, 21753, Note_on_c, 0, 66, 80
2, 21756, Note_on_c, 0, 38, 0
2, 21756, Note_on_c, 0, 57, 80
2, 21776, Control_c, 0, 64, 0
2, 21812, Note_on_c, 0, 85, 0
2, 21812, Note_on_c, 0, 97, 0
2, 21812, Note_on_c, 0, 73, 0
2, 21812, Note_on_c, 0, 90, 80
2, 21812, Note_on_c, 0, 95, 80
2, 21815, Note_on_c, 0, 78, 80
2, 21815, Note_on_c, 0, 83, 80
2, 21822, Note_on_c, 0, 62, 0
2, 21825, Note_on_c, 0, 66, 0
2, 21825, Note_on_c, 0, 57, 0
2, 21874, Note_on_c, 0, 95, 0
2, 21874, Note_on_c, 0, 90, 0
2, 21874, Note_on_c, 0, 78, 0
2, 21874, Note_on_c, 0, 83, 0
2, 21874, Note_on_c, 0, 81, 80
2, 21874, Note_on_c, 0, 86, 80
2, 21874, Note_on_c, 0, 93, 80
2, 21877, Note_on_c, 0, 54, 80
2, 21877, Note_on_c, 0, 74, 80
2, 21880, Note_on_c, 0, 42, 80
2, 21936, Note_on_c, 0, 74, 0
2, 21936, Note_on_c, 0, 93, 0
2, 21936, Note_on_c, 0, 81, 0
2, 21936, Note_on_c, 0, 86, 0
2, 21936, Note_on_c, 0, 90, 80
2, 21936, Note_on_c, 0, 78, 80
2, 21998, Note_on_c, 0, 78, 0
2, 21998, Note_on_c, 0, 90, 0
2, 21998, Note_on_c, 0, 62, 80
2, 21998, Note_on_c, 0, 69, 80
2, 21998, Note_on_c, 0, 74, 80
2, 21998, Note_on_c, 0, 86, 80
2, 22001, Note_on_c, 0, 41, 80
2, 22001, Note_on_c, 0, 53, 80
2, 22001, Note_on_c, 0, 59, 80
2, 22008, Note_on_c, 0, 54, 0
2, 22011, Note_on_c, 0, 42, 0
2, 22068, Note_on_c, 0, 62, 0
2, 22071, Note_on_c, 0, 69, 0
2, 22071, Note_on_c, 0, 59, 0
2, 22117, Note_on_c, 0, 86, 0
2, 22117, Note_on_c, 0, 97, 80
2, 22120, Note_on_c, 0, 41, 0
2, 22120, Note_on_c, 0, 53, 0
2, 22120, Note_on_c, 0, 74, 0
2, 22120, Note_on_c, 0, 40, 80
2, 22120, Note_on_c, 0, 52, 80
2, 22120, Note_on_c, 0, 76, 80
2, 22120, Note_on_c, 0, 85, 80
2, 22120, Note_on_c, 0, 88, 80
2, 22153, Control_c, 0, 64, 127
2, 22238, Note_on_c, 0, 52, 0
2, 22238, Note_on_c, 0, 40, 0
2, 22238, Note_on_c, 0, 61, 80
2, 22238, Note_on_c, 0, 64, 80
2, 22238, Note_on_c, 0, 69, 80
2, 22238, Note_on_c, 0, 73, 80
2, 22261, Control_c, 0, 64, 0
2, 22269, Note_on_c, 0, 76, 0
2, 22269, Note_on_c, 0, 88, 0
2, 22296, Note_on_c, 0, 85, 0
2, 22296, Note_on_c, 0, 97, 0
2, 22296, Note_on_c, 0, 83, 80
2, 22296, Note_on_c, 0, 88, 80
2, 22296, Note_on_c, 0, 95, 80
2, 22299, Note_on_c, 0, 76, 80
2, 22307, Note_on_c, 0, 61, 0
2, 22307, Note_on_c, 0, 64, 0
2, 22307, Note_on_c, 0, 69, 0
2, 22307, Note_on_c, 0, 73, 0
2, 22356, Note_on_c, 0, 83, 0
2, 22356, Note_on_c, 0, 95, 0
2, 22359, Note_on_c, 0, 88, 0
2, 22359, Note_on_c, 0, 49, 80
2, 22359, Note_on_c, 0, 61, 80
2, 22359, Note_on_c, 0, 81, 80
2, 22359, Note_on_c, 0, 93, 80
2, 22387, Note_on_c, 0, 76, 0
2, 22417, Note_on_c, 0, 81, 0
2, 22417, Note_on_c, 0, 93, 0
2, 22420, Note_on_c, 0, 88, 80
2, 22423, Note_on_c, 0, 76, 80
2, 22449, Note_on_c, 0, 61, 0
2, 22483, Note_on_c, 0, 49, 0
2, 22483, Note_on_c, 0, 88, 0
2, 22483, Note_on_c, 0, 76, 0
2, 22483, Note_on_c, 0, 58, 80
2, 22483, Note_on_c, 0, 61, 80
2, 22483, Note_on_c, 0, 64, 80
2, 22483, Note_on_c, 0, 67, 80
2, 22483, Note_on_c, 0, 73, 80
2, 22483, Note_on_c, 0, 85, 80
2, 22483, Note_on_c, 0, 46, 80
2, 22550, Note_on_c, 0, 67, 0
2, 22550, Note_on_c, 0, 64, 0
2, 22550, Note_on_c, 0, 61, 0
2, 22602, Note_on_c, 0, 73, 0
2, 22602, Note_on_c, 0, 58, 0
2, 22602, Note_on_c, 0, 85, 0
2, 22602, Note_on_c, 0, 46, 0
2, 22602, Note_on_c, 0, 47, 80
2, 22602, Note_on_c, 0, 59, 80
2, 22602, Note_on_c, 0, 62, 80
2, 22602, Note_on_c, 0, 64, 80
2, 22602, Note_on_c, 0, 68, 80
2, 22602, Note_on_c, 0, 74, 80
2, 22602, Note_on_c, 0, 77, 80
2, 22602, Note_on_c, 0, 89, 80
2, 22632, Note_on_c, 0, 74, 0
2, 22637, Control_c, 0, 64, 127
2, 22660, Note_on_c, 0, 89, 0
2, 22660, Note_on_c, 0, 77, 0
2, 22660, Note_on_c, 0, 90, 80
2, 22663, Note_on_c, 0, 74, 80
2, 22663, Note_on_c, 0, 78, 80
2, 22674, Note_on_c, 0, 64, 0
2, 22674, Note_on_c, 0, 62, 0
2, 22674, Note_on_c, 0, 68, 0
2, 22723, Note_on_c, 0, 47, 0
2, 22723, Note_on_c, 0, 62, 80
2, 22723, Note_on_c, 0, 64, 80
2, 22723, Note_on_c, 0, 68, 80
2, 22743, Note_on_c, 0, 59, 0
2, 22746, Control_c, 0, 64, 0
2, 22753, Note_on_c, 0, 74, 0
2, 22781, Note_on_c, 0, 78, 0
2, 22781, Note_on_c, 0, 90, 0
2, 22784, Note_on_c, 0, 74, 80
2, 22784, Note_on_c, 0, 80, 80
2, 22784, Note_on_c, 0, 92, 80
2, 22792, Note_on_c, 0, 64, 0
2, 22792, Note_on_c, 0, 62, 0
2, 22792, Note_on_c, 0, 68, 0
2, 22844, Note_on_c, 0, 90, 80
2, 22847, Note_on_c, 0, 92, 0
2, 22847, Note_on_c, 0, 80, 0
2, 22847, Note_on_c, 0, 78, 80
2, 22849, Note_on_c, 0, 40, 80
2, 22849, Note_on_c, 0, 52, 80
2, 22880, Control_c, 0, 64, 127
2, 22906, Note_on_c, 0, 78, 0
2, 22906, Note_on_c, 0, 90, 0
2, 22909, Note_on_c, 0, 74, 0
2, 22909, Note_on_c, 0, 68, 80
2, 22909, Note_on_c, 0, 80, 80
2, 22935, Note_on_c, 0, 68, 0
2, 22966, Note_on_c, 0, 83, 80
2, 22968, Note_on_c, 0, 40, 0
2, 22968, Note_on_c, 0, 80, 0
2, 22968, Note_on_c, 0, 52, 0
2, 22968, Note_on_c, 0, 62, 80
2, 22968, Note_on_c, 0, 64, 80
2, 22968, Note_on_c, 0, 68, 80
2, 22968, Note_on_c, 0, 71, 80
2, 22992, Control_c, 0, 64, 0
2, 23025, Note_on_c, 0, 83, 0
2, 23028, Note_on_c, 0, 71, 0
2, 23028, Note_on_c, 0, 76, 80
2, 23028, Note_on_c, 0, 88, 80
2, 23039, Note_on_c, 0, 62, 0
2, 23039, Note_on_c, 0, 68, 0
2, 23039, Note_on_c, 0, 64, 0
2, 23088, Note_on_c, 0, 76, 0
2, 23088, Note_on_c, 0, 88, 0
2, 23090, Note_on_c, 0, 45, 80
2, 23090, Note_on_c, 0, 57, 80
2, 23090, Note_on_c, 0, 61, 80
2, 23090, Note_on_c, 0, 64, 80
2, 23090, Note_on_c, 0, 69, 80
2, 23090, Note_on_c, 0, 73, 80
2, 23090, Note_on_c, 0, 81, 80
2, 23160, Note_on_c, 0, 81, 0
2, 23160, Note_on_c, 0, 64, 0
2, 23160, Note_on_c, 0, 73, 0
2, 23211, Note_on_c, 0, 57, 0
2, 23211, Note_on_c, 0, 45, 0
2, 23211, Note_on_c, 0, 40, 80
2, 23211, Note_on_c, 0, 52, 80
2, 23211, Note_on_c, 0, 64, 80
2, 23211, Note_on_c, 0, 76, 80
2, 23239, Note_on_c, 0, 76, 0
2, 23239, Note_on_c, 0, 64, 0
2, 23270, Note_on_c, 0, 64, 80
2, 23270, Note_on_c, 0, 76, 80
2, 23298, Note_on_c, 0, 76, 0
2, 23298, Note_on_c, 0, 64, 0
2, 23328, Note_on_c, 0, 52, 0
2, 23328, Note_on_c, 0, 40, 0
2, 23328, Note_on_c, 0, 45, 80
2, 23328, Note_on_c, 0, 64, 80
2, 23328, Note_on_c, 0, 76, 80
2, 23331, Note_on_c, 0, 57, 80
2, 23399, Note_on_c, 0, 76, 0
2, 23399, Note_on_c, 0, 64, 0
2, 23399, Note_on_c, 0, 61, 0
2, 23399, Note_on_c, 0, 69, 0
2, 23450, Note_on_c, 0, 57, 0
2, 23450, Note_on_c, 0, 45, 0
2, 23450, Note_on_c, 0, 46, 80
2, 23450, Note_on_c, 0, 58, 80
2, 23450, Note_on_c, 0, 64, 80
2, 23450, Note_on_c, 0, 76, 80
2, 23568, Note_on_c, 0, 76, 0
2, 23568, Note_on_c, 0, 46, 0
2, 23568, Note_on_c, 0, 58, 0
2, 23568, Note_on_c, 0, 64, 0
2, 23568, Note_on_c, 0, 47, 80
2, 23568, Note_on_c, 0, 59, 80
2, 23604, Control_c, 0, 64, 127
2, 23630, Note_on_c, 0, 62, 80
2, 23630, Note_on_c, 0, 64, 80
2, 23630, Note_on_c, 0, 68, 80
2, 23630, Note_on_c, 0, 80, 80
2, 23687, Note_on_c, 0, 59, 0
2, 23687, Note_on_c, 0, 47, 0
2, 23687, Note_on_c, 0, 83, 80
2, 23689, Note_on_c, 0, 71, 80
2, 23697, Note_on_c, 0, 80, 0
2, 23708, Note_on_c, 0, 62, 0
2, 23708, Note_on_c, 0, 64, 0
2, 23708, Note_on_c, 0, 68, 0
2, 23708, Control_c, 0, 64, 0
2, 23749, Note_on_c, 0, 71, 0
2, 23749, Note_on_c, 0, 83, 0
2, 23749, Note_on_c, 0, 59, 80
2, 23749, Note_on_c, 0, 62, 80
2, 23749, Note_on_c, 0, 64, 80
2, 23749, Note_on_c, 0, 68, 80
2, 23749, Note_on_c, 0, 86, 80
2, 23752, Note_on_c, 0, 74, 80
2, 23808, Note_on_c, 0, 74, 0
2, 23808, Note_on_c, 0, 62, 0
2, 23808, Note_on_c, 0, 64, 0
2, 23808, Note_on_c, 0, 59, 0
2, 23808, Note_on_c, 0, 86, 0
2, 23808, Note_on_c, 0, 68, 0
2, 23808, Note_on_c, 0, 40, 80
2, 23808, Note_on_c, 0, 52, 80
2, 23808, Note_on_c, 0, 78, 80
2, 23808, Note_on_c, 0, 90, 80
2, 23842, Control_c, 0, 64, 127
2, 23868, Note_on_c, 0, 90, 0
2, 23868, Note_on_c, 0, 78, 0
2, 23868, Note_on_c, 0, 88, 80
2, 23871, Note_on_c, 0, 76, 80
2, 23928, Note_on_c, 0, 59, 80
2, 23928, Note_on_c, 0, 62, 80
2, 23928, Note_on_c, 0, 64, 80
2, 23928, Note_on_c, 0, 68, 80
2, 23948, Note_on_c, 0, 52, 0
2, 23948, Note_on_c, 0, 40, 0
2, 23948, Control_c, 0, 64, 0
2, 23986, Note_on_c, 0, 76, 0
2, 23986, Note_on_c, 0, 88, 0
2, 23986, Note_on_c, 0, 74, 80
2, 23986, Note_on_c, 0, 86, 80
2, 23997, Note_on_c, 0, 59, 0
2, 23997, Note_on_c, 0, 64, 0
2, 23997, Note_on_c, 0, 68, 0
2, 23997, Note_on_c, 0, 62, 0
2, 24048, Note_on_c, 0, 86, 0
2, 24048, Note_on_c, 0, 74, 0
2, 24051, Note_on_c, 0, 56, 80
2, 24051, Note_on_c, 0, 64, 80
2, 24051, Note_on_c, 0, 76, 80
2, 24054, Note_on_c, 0, 44, 80
2, 24080, Note_on_c, 0, 64, 0
2, 24085, Control_c, 0, 64, 127
2, 24111, Note_on_c, 0, 76, 0
2, 24114, Note_on_c, 0, 59, 80
2, 24114, Note_on_c, 0, 64, 80
2, 24114, Note_on_c, 0, 68, 80
2, 24114, Note_on_c, 0, 80, 80
2, 24124, Note_on_c, 0, 62, 80
2, 24168, Note_on_c, 0, 83, 80
2, 24170, Note_on_c, 0, 80, 0
2, 24170, Note_on_c, 0, 44, 0
2, 24170, Note_on_c, 0, 56, 0
2, 24170, Note_on_c, 0, 71, 80
2, 24191, Note_on_c, 0, 64, 0
2, 24191, Note_on_c, 0, 68, 0
2, 24191, Note_on_c, 0, 59, 0
2, 24193, Control_c, 0, 64, 0
2, 24201, Note_on_c, 0, 62, 0
2, 24229, Note_on_c, 0, 83, 0
2, 24232, Note_on_c, 0, 71, 0
2, 24232, Note_on_c, 0, 59, 80
2, 24232, Note_on_c, 0, 62, 80
2, 24232, Note_on_c, 0, 64, 80
2, 24232, Note_on_c, 0, 68, 80
2, 24232, Note_on_c, 0, 76, 80
2, 24232, Note_on_c, 0, 88, 80
2, 24293, Note_on_c, 0, 68, 0
2, 24293, Note_on_c, 0, 64, 0
2, 24293, Note_on_c, 0, 59, 0
2, 24293, Note_on_c, 0, 62, 0
2, 24296, Note_on_c, 0, 40, 80
2, 24296, Note_on_c, 0, 52, 80
2, 24356, Note_on_c, 0, 88, 0
2, 24356, Note_on_c, 0, 76, 0
2, 24359, Control_c, 0, 64, 127
2, 24359, Note_on_c, 0, 68, 80
2, 24359, Note_on_c, 0, 74, 80
2, 24359, Note_on_c, 0, 80, 80
2, 24359, Note_on_c, 0, 92, 80
2, 24386, Note_on_c, 0, 74, 0
2, 24386, Note_on_c, 0, 68, 0
2, 24417, Note_on_c, 0, 80, 0
2, 24417, Note_on_c, 0, 52, 0
2, 24417, Note_on_c, 0, 92, 0
2, 24417, Note_on_c, 0, 40, 0
2, 24417, Note_on_c, 0, 59, 80
2, 24417, Note_on_c, 0, 62, 80
2, 24417, Note_on_c, 0, 64, 80
2, 24417, Note_on_c, 0, 68, 80
2, 24417, Note_on_c, 0, 74, 80
2, 24417, Note_on_c, 0, 81, 80
2, 24417, Note_on_c, 0, 93, 80
2, 24437, Control_c, 0, 64, 0
2, 24448, Note_on_c, 0, 74, 0
2, 24476, Note_on_c, 0, 81, 0
2, 24476, Note_on_c, 0, 93, 0
2, 24476, Note_on_c, 0, 74, 80
2, 24476, Note_on_c, 0, 83, 80
2, 24476, Note_on_c, 0, 95, 80
2, 24486, Note_on_c, 0, 64, 0
2, 24486, Note_on_c, 0, 68, 0
2, 24486, Note_on_c, 0, 59, 0
2, 24486, Note_on_c, 0, 62, 0
2, 24506, Note_on_c, 0, 74, 0
2, 24537, Note_on_c, 0, 83, 0
2, 24540, Note_on_c, 0, 95, 0
2, 24540, Note_on_c, 0, 45, 80
2, 24540, Note_on_c, 0, 57, 80
2, 24540, Note_on_c, 0, 75, 80
2, 24540, Note_on_c, 0, 84, 80
2, 24540, Note_on_c, 0, 96, 80
2, 24571, Control_c, 0, 64, 127
2, 24601, Note_on_c, 0, 96, 0
2, 24601, Note_on_c, 0, 75, 0
2, 24601, Note_on_c, 0, 84, 0
2, 24601, Note_on_c, 0, 61, 80
2, 24601, Note_on_c, 0, 64, 80
2, 24601, Note_on_c, 0, 69, 80
2, 24601, Note_on_c, 0, 76, 80
2, 24601, Note_on_c, 0, 85, 80
2, 24601, Note_on_c, 0, 97, 80
2, 24661, Note_on_c, 0, 57, 0
2, 24661, Note_on_c, 0, 45, 0
2, 24681, Note_on_c, 0, 64, 0
2, 24681, Note_on_c, 0, 69, 0
2, 24681, Note_on_c, 0, 61, 0
2, 24681, Control_c, 0, 64, 0
2, 24724, Note_on_c, 0, 97, 0
2, 24724, Note_on_c, 0, 85, 0
2, 24724, Note_on_c, 0, 76, 0
2, 24724, Note_on_c, 0, 61, 80
2, 24724, Note_on_c, 0, 64, 80
2, 24724, Note_on_c, 0, 69, 80
2, 24724, Note_on_c, 0, 75, 80
2, 24724, Note_on_c, 0, 84, 80
2, 24724, Note_on_c, 0, 96, 80
2, 24784, Note_on_c, 0, 96, 0
2, 24784, Note_on_c, 0, 64, 0
2, 24784, Note_on_c, 0, 61, 0
2, 24784, Note_on_c, 0, 84, 0
2, 24787, Note_on_c, 0, 75, 0
2, 24787, Note_on_c, 0, 69, 0
2, 24787, Note_on_c, 0, 40, 80
2, 24787, Note_on_c, 0, 52, 80
2, 24787, Note_on_c, 0, 76, 80
2, 24787, Note_on_c, 0, 85, 80
2, 24787, Note_on_c, 0, 97, 80
2, 24817, Control_c, 0, 64, 127
2, 24908, Note_on_c, 0, 97, 0
2, 24908, Note_on_c, 0, 76, 0
2, 24908, Note_on_c, 0, 40, 0
2, 24908, Note_on_c, 0, 52, 0
2, 24908, Note_on_c, 0, 85, 0
2, 24908, Note_on_c, 0, 61, 80
2, 24911, Note_on_c, 0, 64, 80
2, 24911, Note_on_c, 0, 69, 80
2, 24911, Note_on_c, 0, 75, 80
2, 24911, Note_on_c, 0, 84, 80
2, 24911, Note_on_c, 0, 96, 80
2, 24926, Control_c, 0, 64, 0
2, 24969, Note_on_c, 0, 96, 0
2, 24969, Note_on_c, 0, 75, 0
2, 24969, Note_on_c, 0, 84, 0
2, 24969, Note_on_c, 0, 85, 80
2, 24972, Note_on_c, 0, 76, 80
2, 24972, Note_on_c, 0, 97, 80
2, 24977, Note_on_c, 0, 61, 0
2, 24977, Note_on_c, 0, 64, 0
2, 24977, Note_on_c, 0, 69, 0
2, 25031, Note_on_c, 0, 45, 80
2, 25031, Note_on_c, 0, 57, 80
2, 25031, Note_on_c, 0, 69, 80
2, 25031, Note_on_c, 0, 73, 80
2, 25031, Note_on_c, 0, 81, 80
2, 25090, Note_on_c, 0, 57, 0
2, 25090, Note_on_c, 0, 45, 0
2, 25090, Note_on_c, 0, 44, 80
2, 25090, Note_on_c, 0, 56, 80
2, 25118, Note_on_c, 0, 69, 0
2, 25149, Note_on_c, 0, 56, 0
2, 25152, Note_on_c, 0, 44, 0
2, 25152, Note_on_c, 0, 45, 80
2, 25152, Note_on_c, 0, 57, 80
2, 25152, Note_on_c, 0, 61, 80
2, 25152, Note_on_c, 0, 64, 80
2, 25152, Note_on_c, 0, 69, 80
2, 25179, Note_on_c, 0, 69, 0
2, 25179, Note_on_c, 0, 64, 0
2, 25179, Note_on_c, 0, 61, 0
2, 25210, Note_on_c, 0, 57, 0
2, 25210, Note_on_c, 0, 45, 0
2, 25210, Note_on_c, 0, 49, 80
2, 25210, Note_on_c, 0, 61, 80
2, 25210, Note_on_c, 0, 64, 80
2, 25210, Note_on_c, 0, 69, 80
2, 25238, Note_on_c, 0, 69, 0
2, 25238, Note_on_c, 0, 64, 0
2, 25238, Note_on_c, 0, 61, 0
2, 25269, Note_on_c, 0, 49, 0
2, 25269, Note_on_c, 0, 40, 80
2, 25269, Note_on_c, 0, 52, 80
2, 25269, Note_on_c, 0, 61, 80
2, 25269, Note_on_c, 0, 64, 80
2, 25269, Note_on_c, 0, 69, 80
2, 25338, Note_on_c, 0, 69, 0
2, 25338, Note_on_c, 0, 85, 0
2, 25338, Note_on_c, 0, 81, 0
2, 25338, Note_on_c, 0, 97, 0
2, 25338, Note_on_c, 0, 64, 0
2, 25338, Note_on_c, 0, 76, 0
2, 25338, Note_on_c, 0, 61, 0
2, 25338, Note_on_c, 0, 73, 0
2, 25390, Note_on_c, 0, 52, 0
2, 25390, Note_on_c, 0, 40, 0
2, 25390, Note_on_c, 0, 64, 80
2, 25390, Note_on_c, 0, 67, 80
2, 25390, Note_on_c, 0, 73, 80
2, 25390, Note_on_c, 0, 85, 80
2, 25392, Note_on_c, 0, 46, 80
2, 25392, Note_on_c, 0, 58, 80
2, 25392, Note_on_c, 0, 61, 80
2, 25392, Note_on_c, 0, 76, 80
2, 25392, Note_on_c, 0, 88, 80
2, 25506, Note_on_c, 0, 76, 0
2, 25506, Note_on_c, 0, 61, 0
2, 25506, Note_on_c, 0, 73, 0
2, 25506, Note_on_c, 0, 67, 0
2, 25506, Note_on_c, 0, 64, 0
2, 25506, Note_on_c, 0, 85, 0
2, 25509, Note_on_c, 0, 88, 0
2, 25509, Note_on_c, 0, 46, 0
2, 25509, Note_on_c, 0, 58, 0
2, 25509, Note_on_c, 0, 47, 80
2, 25509, Note_on_c, 0, 59, 80
2, 25509, Note_on_c, 0, 74, 80
2, 25509, Note_on_c, 0, 77, 80
2, 25509, Note_on_c, 0, 89, 80
2, 25539, Note_on_c, 0, 74, 0
2, 25570, Note_on_c, 0, 89, 0
2, 25570, Note_on_c, 0, 74, 80
2, 25570, Note_on_c, 0, 78, 80
2, 25578, Note_on_c, 0, 77, 0
2, 25578, Note_on_c, 0, 90, 80
2, 25596, Note_on_c, 0, 59, 0
2, 25630, Note_on_c, 0, 47, 0
2, 25630, Note_on_c, 0, 59, 80
2, 25630, Note_on_c, 0, 64, 80
2, 25630, Note_on_c, 0, 68, 80
2, 25657, Note_on_c, 0, 74, 0
2, 25688, Note_on_c, 0, 78, 0
2, 25688, Note_on_c, 0, 86, 80
2, 25691, Note_on_c, 0, 71, 80
2, 25691, Note_on_c, 0, 74, 80
2, 25691, Note_on_c, 0, 80, 80
2, 25699, Note_on_c, 0, 59, 0
2, 25699, Note_on_c, 0, 68, 0
2, 25702, Note_on_c, 0, 64, 0
2, 25702, Note_on_c, 0, 90, 0
2, 25751, Note_on_c, 0, 40, 80
2, 25751, Note_on_c, 0, 52, 80
2, 25751, Note_on_c, 0, 59, 80
2, 25751, Note_on_c, 0, 64, 80
2, 25751, Note_on_c, 0, 68, 80
2, 25810, Note_on_c, 0, 52, 0
2, 25810, Note_on_c, 0, 40, 0
2, 25810, Note_on_c, 0, 41, 80
2, 25810, Note_on_c, 0, 53, 80
2, 25870, Note_on_c, 0, 53, 0
2, 25870, Note_on_c, 0, 41, 0
2, 25870, Note_on_c, 0, 42, 80
2, 25870, Note_on_c, 0, 54, 80
2, 25929, Note_on_c, 0, 54, 0
2, 25929, Note_on_c, 0, 68, 0
2, 25929, Note_on_c, 0, 42, 0
2, 25929, Note_on_c, 0, 86, 0
2, 25929, Note_on_c, 0, 43, 80
2, 25929, Note_on_c, 0, 55, 80
2, 25940, Note_on_c, 0, 80, 0
2, 25940, Note_on_c, 0, 59, 0
2, 25940, Note_on_c, 0, 74, 0
2, 25940, Note_on_c, 0, 71, 0
2, 25940, Note_on_c, 0, 64, 0
2, 25992, Note_on_c, 0, 43, 0
2, 25992, Note_on_c, 0, 44, 80
2, 25992, Note_on_c, 0, 56, 80
2, 25992, Note_on_c, 0, 74, 80
2, 25992, Note_on_c, 0, 77, 80
2, 25992, Note_on_c, 0, 89, 80
2, 26002, Note_on_c, 0, 55, 0
2, 26022, Note_on_c, 0, 74, 0
2, 26053, Note_on_c, 0, 77, 0
2, 26056, Note_on_c, 0, 89, 0
2, 26056, Note_on_c, 0, 74, 80
2, 26056, Note_on_c, 0, 78, 80
2, 26056, Note_on_c, 0, 90, 80
2, 26115, Note_on_c, 0, 44, 0
2, 26115, Note_on_c, 0, 56, 0
2, 26118, Note_on_c, 0, 59, 80
2, 26118, Note_on_c, 0, 64, 80
2, 26118, Note_on_c, 0, 68, 80
2, 26146, Note_on_c, 0, 74, 0
2, 26177, Note_on_c, 0, 90, 0
2, 26177, Note_on_c, 0, 78, 0
2, 26177, Note_on_c, 0, 71, 80
2, 26177, Note_on_c, 0, 86, 80
2, 26180, Note_on_c, 0, 74, 80
2, 26180, Note_on_c, 0, 80, 80
2, 26187, Note_on_c, 0, 59, 0
2, 26187, Note_on_c, 0, 68, 0
2, 26187, Note_on_c, 0, 64, 0
2, 26239, Note_on_c, 0, 40, 80
2, 26239, Note_on_c, 0, 52, 80
2, 26239, Note_on_c, 0, 59, 80
2, 26239, Note_on_c, 0, 64, 80
2, 26239, Note_on_c, 0, 68, 80
2, 26299, Note_on_c, 0, 52, 0
2, 26299, Note_on_c, 0, 40, 0
2, 26302, Note_on_c, 0, 41, 80
2, 26302, Note_on_c, 0, 53, 80
2, 26361, Note_on_c, 0, 53, 0
2, 26361, Note_on_c, 0, 41, 0
2, 26361, Note_on_c, 0, 42, 80
2, 26361, Note_on_c, 0, 54, 80
2, 26410, Note_on_c, 0, 80, 0
2, 26421, Note_on_c, 0, 54, 0
2, 26421, Note_on_c, 0, 42, 0
2, 26428, Note_on_c, 0, 59, 0
2, 26428, Note_on_c, 0, 74, 0
2, 26428, Note_on_c, 0, 86, 0
2, 26428, Note_on_c, 0, 68, 0
2, 26428, Note_on_c, 0, 64, 0
2, 26428, Note_on_c, 0, 71, 0
2, 26431, Note_on_c, 0, 44, 80
2, 26431, Note_on_c, 0, 56, 80
2, 26483, Note_on_c, 0, 44, 0
2, 26483, Note_on_c, 0, 45, 80
2, 26483, Note_on_c, 0, 57, 80
2, 26483, Note_on_c, 0, 73, 80
2, 26483, Note_on_c, 0, 77, 80
2, 26483, Note_on_c, 0, 89, 80
2, 26494, Note_on_c, 0, 56, 0
2, 26514, Note_on_c, 0, 73, 0
2, 26517, Control_c, 0, 64, 127
2, 26543, Note_on_c, 0, 77, 0
2, 26543, Note_on_c, 0, 89, 0
2, 26543, Note_on_c, 0, 73, 80
2, 26543, Note_on_c, 0, 90, 80
2, 26545, Note_on_c, 0, 78, 80
2, 26605, Note_on_c, 0, 45, 0
2, 26605, Note_on_c, 0, 57, 0
2, 26605, Note_on_c, 0, 61, 80
2, 26605, Note_on_c, 0, 64, 80
2, 26605, Note_on_c, 0, 69, 80
2, 26625, Control_c, 0, 64, 0
2, 26633, Note_on_c, 0, 73, 0
2, 26656, Note_on_c, 0, 90, 0
2, 26659, Note_on_c, 0, 78, 0
2, 26659, Note_on_c, 0, 80, 80
2, 26659, Note_on_c, 0, 92, 80
2, 26666, Note_on_c, 0, 61, 0
2, 26666, Note_on_c, 0, 69, 0
2, 26666, Note_on_c, 0, 64, 0
2, 26669, Note_on_c, 0, 73, 80
2, 26718, Note_on_c, 0, 80, 0
2, 26718, Note_on_c, 0, 92, 0
2, 26718, Note_on_c, 0, 40, 80
2, 26718, Note_on_c, 0, 52, 80
2, 26718, Note_on_c, 0, 69, 80
2, 26718, Note_on_c, 0, 78, 80
2, 26718, Note_on_c, 0, 90, 80
2, 26746, Note_on_c, 0, 73, 0
2, 26749, Note_on_c, 0, 69, 0
2, 26752, Control_c, 0, 64, 127
2, 26780, Note_on_c, 0, 78, 0
2, 26780, Note_on_c, 0, 90, 0
2, 26780, Note_on_c, 0, 69, 80
2, 26780, Note_on_c, 0, 73, 80
2, 26780, Note_on_c, 0, 85, 80
2, 26808, Note_on_c, 0, 85, 0
2, 26808, Note_on_c, 0, 69, 0
2, 26808, Note_on_c, 0, 73, 0
2, 26838, Note_on_c, 0, 52, 0
2, 26841, Note_on_c, 0, 40, 0
2, 26841, Note_on_c, 0, 57, 80
2, 26841, Note_on_c, 0, 61, 80
2, 26841, Note_on_c, 0, 64, 80
2, 26841, Note_on_c, 0, 69, 80
2, 26841, Note_on_c, 0, 73, 80
2, 26841, Note_on_c, 0, 76, 80
2, 26841, Note_on_c, 0, 88, 80
2, 26861, Control_c, 0, 64, 0
2, 26872, Note_on_c, 0, 76, 0
2, 26900, Note_on_c, 0, 88, 0
2, 26900, Note_on_c, 0, 81, 80
2, 26900, Note_on_c, 0, 93, 80
2, 26903, Note_on_c, 0, 76, 80
2, 26910, Note_on_c, 0, 61, 0
2, 26910, Note_on_c, 0, 69, 0
2, 26910, Note_on_c, 0, 57, 0
2, 26910, Note_on_c, 0, 64, 0
2, 26910, Note_on_c, 0, 73, 0
2, 26928, Note_on_c, 0, 93, 0
2, 26931, Note_on_c, 0, 81, 0
2, 26962, Note_on_c, 0, 76, 0
2, 26965, Note_on_c, 0, 45, 80
2, 26965, Note_on_c, 0, 57, 80
2, 26965, Note_on_c, 0, 61, 80
2, 26965, Note_on_c, 0, 69, 80
2, 26965, Note_on_c, 0, 73, 80
2, 26965, Note_on_c, 0, 85, 80
2, 26965, Note_on_c, 0, 93, 80
2, 26965, Note_on_c, 0, 97, 80
2, 26973, Note_on_c, 0, 81, 80
2, 26991, Note_on_c, 0, 97, 0
2, 26991, Note_on_c, 0, 93, 0
2, 26994, Note_on_c, 0, 73, 0
2, 27024, Note_on_c, 0, 57, 0
2, 27024, Note_on_c, 0, 45, 0
2, 27024, Note_on_c, 0, 52, 80
2, 27024, Note_on_c, 0, 88, 80
2, 27024, Note_on_c, 0, 97, 80
2, 27024, Note_on_c, 0, 100, 80
2, 27027, Note_on_c, 0, 40, 80
2, 27027, Note_on_c, 0, 76, 80
2, 27035, Note_on_c, 0, 81, 0
2, 27035, Note_on_c, 0, 73, 80
2, 27084, Note_on_c, 0, 40, 0
2, 27084, Note_on_c, 0, 52, 0
2, 27084, Note_on_c, 0, 41, 80
2, 27095, Note_on_c, 0, 53, 80
2, 27105, Note_on_c, 0, 69, 0
2, 27116, Note_on_c, 0, 73, 0
2, 27116, Note_on_c, 0, 97, 0
2, 27144, Note_on_c, 0, 100, 0
2, 27144, Note_on_c, 0, 76, 0
2, 27144, Note_on_c, 0, 88, 0
2, 27144, Note_on_c, 0, 81, 80
2, 27144, Note_on_c, 0, 93, 80
2, 27144, Note_on_c, 0, 97, 80
2, 27146, Note_on_c, 0, 53, 0
2, 27146, Note_on_c, 0, 41, 0
2, 27146, Note_on_c, 0, 42, 80
2, 27146, Note_on_c, 0, 54, 80
2, 27146, Note_on_c, 0, 69, 80
2, 27146, Note_on_c, 0, 73, 80
2, 27174, Note_on_c, 0, 93, 0
2, 27177, Note_on_c, 0, 73, 0
2, 27177, Note_on_c, 0, 81, 0
2, 27205, Note_on_c, 0, 97, 0
2, 27205, Note_on_c, 0, 93, 80
2, 27208, Note_on_c, 0, 42, 0
2, 27208, Note_on_c, 0, 54, 0
2, 27208, Note_on_c, 0, 43, 80
2, 27208, Note_on_c, 0, 55, 80
2, 27208, Note_on_c, 0, 73, 80
2, 27208, Note_on_c, 0, 76, 80
2, 27208, Note_on_c, 0, 81, 80
2, 27208, Note_on_c, 0, 88, 80
2, 27264, Note_on_c, 0, 55, 0
2, 27267, Note_on_c, 0, 43, 0
2, 27267, Note_on_c, 0, 44, 80
2, 27267, Note_on_c, 0, 56, 80
2, 27286, Note_on_c, 0, 69, 0
2, 27298, Note_on_c, 0, 76, 0
2, 27298, Note_on_c, 0, 81, 0
2, 27298, Note_on_c, 0, 88, 0
2, 27326, Note_on_c, 0, 56, 0
2, 27326, Note_on_c, 0, 93, 0
2, 27329, Note_on_c, 0, 44, 0
2, 27329, Note_on_c, 0, 73, 0
2, 27329, Note_on_c, 0, 45, 80
2, 27329, Note_on_c, 0, 57, 80
2, 27329, Note_on_c, 0, 69, 80
2, 27329, Note_on_c, 0, 76, 80
2, 27329, Note_on_c, 0, 81, 80
2, 27329, Note_on_c, 0, 88, 80
2, 27388, Note_on_c, 0, 57, 0
2, 27388, Note_on_c, 0, 45, 0
2, 27391, Note_on_c, 0, 46, 80
2, 27391, Note_on_c, 0, 58, 80
2, 27440, Note_on_c, 0, 61, 0
2, 27451, Note_on_c, 0, 88, 0
2, 27451, Note_on_c, 0, 81, 0
2, 27451, Note_on_c, 0, 76, 0
2, 27451, Note_on_c, 0, 69, 0
2, 27451, Note_on_c, 0, 85, 0
2, 27451, Note_on_c, 0, 46, 0
2, 27451, Note_on_c, 0, 58, 0
2, 27451, Note_on_c, 0, 47, 80
2, 27451, Note_on_c, 0, 59, 80
2, 27484, Control_c, 0, 64, 127
2, 27515, Note_on_c, 0, 62, 80
2, 27515, Note_on_c, 0, 64, 80
2, 27515, Note_on_c, 0, 68, 80
2, 27515, Note_on_c, 0, 80, 80
2, 27533, Note_on_c, 0, 59, 0
2, 27575, Note_on_c, 0, 47, 0
2, 27577, Note_on_c, 0, 80, 0
2, 27577, Note_on_c, 0, 71, 80
2, 27577, Note_on_c, 0, 83, 80
2, 27598, Note_on_c, 0, 64, 0
2, 27598, Note_on_c, 0, 62, 0
2, 27598, Note_on_c, 0, 68, 0
2, 27598, Control_c, 0, 64, 0
2, 27636, Note_on_c, 0, 71, 0
2, 27636, Note_on_c, 0, 83, 0
2, 27636, Note_on_c, 0, 59, 80
2, 27636, Note_on_c, 0, 62, 80
2, 27636, Note_on_c, 0, 64, 80
2, 27636, Note_on_c, 0, 68, 80
2, 27636, Note_on_c, 0, 74, 80
2, 27636, Note_on_c, 0, 86, 80
2, 27697, Note_on_c, 0, 86, 0
2, 27697, Note_on_c, 0, 62, 0
2, 27697, Note_on_c, 0, 64, 0
2, 27697, Note_on_c, 0, 59, 0
2, 27697, Note_on_c, 0, 74, 0
2, 27697, Note_on_c, 0, 68, 0
2, 27697, Note_on_c, 0, 52, 80
2, 27697, Note_on_c, 0, 78, 80
2, 27700, Note_on_c, 0, 40, 80
2, 27700, Note_on_c, 0, 90, 80
2, 27728, Control_c, 0, 64, 127
2, 27762, Note_on_c, 0, 90, 0
2, 27762, Note_on_c, 0, 78, 0
2, 27762, Note_on_c, 0, 76, 80
2, 27762, Note_on_c, 0, 88, 80
2, 27821, Note_on_c, 0, 40, 0
2, 27821, Note_on_c, 0, 52, 0
2, 27821, Note_on_c, 0, 59, 80
2, 27821, Note_on_c, 0, 62, 80
2, 27821, Note_on_c, 0, 64, 80
2, 27821, Note_on_c, 0, 68, 80
2, 27840, Control_c, 0, 64, 0
2, 27883, Note_on_c, 0, 76, 0
2, 27883, Note_on_c, 0, 88, 0
2, 27886, Note_on_c, 0, 74, 80
2, 27886, Note_on_c, 0, 86, 80
2, 27893, Note_on_c, 0, 64, 0
2, 27893, Note_on_c, 0, 59, 0
2, 27893, Note_on_c, 0, 62, 0
2, 27893, Note_on_c, 0, 68, 0
2, 27942, Note_on_c, 0, 86, 0
2, 27942, Note_on_c, 0, 74, 0
2, 27942, Note_on_c, 0, 44, 80
2, 27942, Note_on_c, 0, 56, 80
2, 27942, Note_on_c, 0, 64, 80
2, 27945, Note_on_c, 0, 76, 80
2, 27945, Note_on_c, 0, 88, 80
2, 27973, Note_on_c, 0, 64, 0
2, 27976, Control_c, 0, 64, 127
2, 28004, Note_on_c, 0, 76, 0
2, 28004, Note_on_c, 0, 88, 0
2, 28004, Note_on_c, 0, 59, 80
2, 28004, Note_on_c, 0, 62, 80
2, 28004, Note_on_c, 0, 64, 80
2, 28004, Note_on_c, 0, 68, 80
2, 28004, Note_on_c, 0, 80, 80
2, 28004, Note_on_c, 0, 92, 80
2, 28060, Note_on_c, 0, 56, 0
2, 28060, Note_on_c, 0, 44, 0
2, 28063, Note_on_c, 0, 92, 0
2, 28063, Note_on_c, 0, 80, 0
2, 28063, Note_on_c, 0, 71, 80
2, 28063, Note_on_c, 0, 83, 80
2, 28063, Note_on_c, 0, 95, 80
2, 28081, Note_on_c, 0, 64, 0
2, 28081, Note_on_c, 0, 59, 0
2, 28081, Note_on_c, 0, 62, 0
2, 28081, Control_c, 0, 64, 0
2, 28084, Note_on_c, 0, 68, 0
2, 28123, Note_on_c, 0, 95, 0
2, 28123, Note_on_c, 0, 71, 0
2, 28123, Note_on_c, 0, 83, 0
2, 28123, Note_on_c, 0, 59, 80
2, 28123, Note_on_c, 0, 62, 80
2, 28126, Note_on_c, 0, 68, 80
2, 28126, Note_on_c, 0, 76, 80
2, 28126, Note_on_c, 0, 88, 80
2, 28126, Note_on_c, 0, 100, 80
2, 28133, Note_on_c, 0, 64, 80
2, 28179, Note_on_c, 0, 64, 0
2, 28179, Note_on_c, 0, 62, 0
2, 28179, Note_on_c, 0, 59, 0
2, 28179, Note_on_c, 0, 68, 0
2, 28179, Note_on_c, 0, 40, 80
2, 28179, Note_on_c, 0, 52, 80
2, 28213, Control_c, 0, 64, 127
2, 28241, Note_on_c, 0, 76, 0
2, 28241, Note_on_c, 0, 100, 0
2, 28241, Note_on_c, 0, 88, 0
2, 28241, Note_on_c, 0, 74, 80
2, 28241, Note_on_c, 0, 80, 80
2, 28241, Note_on_c, 0, 92, 80
2, 28269, Note_on_c, 0, 74, 0
2, 28299, Note_on_c, 0, 80, 0
2, 28299, Note_on_c, 0, 52, 0
2, 28299, Note_on_c, 0, 40, 0
2, 28299, Note_on_c, 0, 92, 0
2, 28299, Note_on_c, 0, 59, 80
2, 28299, Note_on_c, 0, 62, 80
2, 28299, Note_on_c, 0, 64, 80
2, 28299, Note_on_c, 0, 68, 80
2, 28299, Note_on_c, 0, 74, 80
2, 28299, Note_on_c, 0, 81, 80
2, 28299, Note_on_c, 0, 93, 80
2, 28318, Control_c, 0, 64, 0
2, 28328, Note_on_c, 0, 74, 0
2, 28359, Note_on_c, 0, 81, 0
2, 28359, Note_on_c, 0, 93, 0
2, 28359, Note_on_c, 0, 74, 80
2, 28359, Note_on_c, 0, 83, 80
2, 28359, Note_on_c, 0, 95, 80
2, 28367, Note_on_c, 0, 64, 0
2, 28367, Note_on_c, 0, 68, 0
2, 28367, Note_on_c, 0, 59, 0
2, 28367, Note_on_c, 0, 62, 0
2, 28390, Note_on_c, 0, 74, 0
2, 28417, Note_on_c, 0, 83, 0
2, 28417, Note_on_c, 0, 95, 0
2, 28417, Note_on_c, 0, 45, 80
2, 28417, Note_on_c, 0, 57, 80
2, 28417, Note_on_c, 0, 75, 80
2, 28417, Note_on_c, 0, 84, 80
2, 28417, Note_on_c, 0, 96, 80
2, 28448, Control_c, 0, 64, 127
2, 28479, Note_on_c, 0, 96, 0
2, 28479, Note_on_c, 0, 75, 0
2, 28479, Note_on_c, 0, 84, 0
2, 28479, Note_on_c, 0, 76, 80
2, 28479, Note_on_c, 0, 85, 80
2, 28479, Note_on_c, 0, 97, 80
2, 28484, Note_on_c, 0, 61, 80
2, 28484, Note_on_c, 0, 64, 80
2, 28484, Note_on_c, 0, 69, 80
2, 28533, Note_on_c, 0, 57, 0
2, 28533, Note_on_c, 0, 45, 0
2, 28553, Note_on_c, 0, 61, 0
2, 28553, Note_on_c, 0, 69, 0
2, 28553, Note_on_c, 0, 64, 0
2, 28553, Control_c, 0, 64, 0
2, 28565, Note_on_c, 0, 85, 0
2, 28565, Note_on_c, 0, 97, 0
2, 28593, Note_on_c, 0, 76, 0
2, 28593, Note_on_c, 0, 61, 80
2, 28593, Note_on_c, 0, 64, 80
2, 28593, Note_on_c, 0, 69, 80
2, 28593, Note_on_c, 0, 77, 80
2, 28596, Note_on_c, 0, 85, 80
2, 28596, Note_on_c, 0, 97, 80
2, 28657, Note_on_c, 0, 44, 80
2, 28657, Note_on_c, 0, 56, 80
2, 28665, Note_on_c, 0, 64, 0
2, 28665, Note_on_c, 0, 61, 0
2, 28668, Note_on_c, 0, 69, 0
2, 28688, Note_on_c, 0, 77, 0
2, 28688, Control_c, 0, 64, 127
2, 28719, Note_on_c, 0, 77, 80
2, 28719, Note_on_c, 0, 80, 80
2, 28719, Note_on_c, 0, 92, 80
2, 28727, Note_on_c, 0, 85, 0
2, 28727, Note_on_c, 0, 97, 0
2, 28750, Note_on_c, 0, 77, 0
2, 28780, Note_on_c, 0, 92, 0
2, 28780, Note_on_c, 0, 61, 80
2, 28780, Note_on_c, 0, 65, 80
2, 28780, Note_on_c, 0, 71, 80
2, 28780, Note_on_c, 0, 77, 80
2, 28780, Note_on_c, 0, 85, 80
2, 28783, Note_on_c, 0, 97, 80
2, 28791, Note_on_c, 0, 56, 0
2, 28791, Note_on_c, 0, 80, 0
2, 28791, Note_on_c, 0, 44, 0
2, 28801, Control_c, 0, 64, 0
2, 28850, Note_on_c, 0, 61, 0
2, 28850, Note_on_c, 0, 65, 0
2, 28850, Note_on_c, 0, 71, 0
2, 28871, Note_on_c, 0, 97, 0
2, 28871, Note_on_c, 0, 85, 0
2, 28901, Note_on_c, 0, 77, 0
2, 28904, Note_on_c, 0, 42, 80
2, 28904, Note_on_c, 0, 54, 80
2, 28904, Note_on_c, 0, 78, 80
2, 28904, Note_on_c, 0, 85, 80
2, 28904, Note_on_c, 0, 97, 80
2, 28996, Note_on_c, 0, 97, 0
2, 28996, Note_on_c, 0, 78, 0
2, 28996, Note_on_c, 0, 85, 0
2, 29030, Note_on_c, 0, 57, 80
2, 29030, Note_on_c, 0, 61, 80
2, 29030, Note_on_c, 0, 66, 80
2, 29030, Note_on_c, 0, 69, 80
2, 29030, Note_on_c, 0, 78, 80
2, 29030, Note_on_c, 0, 85, 80
2, 29030, Note_on_c, 0, 97, 80
2, 29058, Note_on_c, 0, 66, 0
2, 29058, Note_on_c, 0, 61, 0
2, 29061, Note_on_c, 0, 57, 0
2, 29061, Note_on_c, 0, 69, 0
2, 29061, Note_on_c, 0, 78, 0
2, 29088, Note_on_c, 0, 85, 0
2, 29088, Note_on_c, 0, 97, 0
2, 29088, Note_on_c, 0, 66, 80
2, 29088, Note_on_c, 0, 78, 80
2, 29088, Note_on_c, 0, 90, 80
2, 29091, Note_on_c, 0, 57, 80
2, 29091, Note_on_c, 0, 61, 80
2, 29091, Note_on_c, 0, 69, 80
2, 29119, Note_on_c, 0, 61, 0
2, 29119, Note_on_c, 0, 57, 0
2, 29119, Note_on_c, 0, 66, 0
2, 29119, Note_on_c, 0, 54, 0
2, 29122, Note_on_c, 0, 69, 0
2, 29122, Note_on_c, 0, 42, 0
2, 29153, Note_on_c, 0, 90, 0
2, 29153, Note_on_c, 0, 66, 80
2, 29153, Note_on_c, 0, 93, 80
2, 29156, Note_on_c, 0, 42, 80
2, 29156, Note_on_c, 0, 54, 80
2, 29156, Note_on_c, 0, 57, 80
2, 29156, Note_on_c, 0, 61, 80
2, 29156, Note_on_c, 0, 69, 80
2, 29156, Note_on_c, 0, 81, 80
2, 29182, Note_on_c, 0, 69, 0
2, 29182, Note_on_c, 0, 61, 0
2, 29182, Note_on_c, 0, 57, 0
2, 29182, Note_on_c, 0, 66, 0
2, 29209, Note_on_c, 0, 93, 0
2, 29212, Note_on_c, 0, 66, 80
2, 29212, Note_on_c, 0, 69, 80
2, 29212, Note_on_c, 0, 85, 80
2, 29212, Note_on_c, 0, 97, 80
2, 29223, Note_on_c, 0, 81, 0
2, 29226, Note_on_c, 0, 57, 80
2, 29226, Note_on_c, 0, 61, 80
2, 29269, Note_on_c, 0, 78, 0
2, 29272, Note_on_c, 0, 40, 80
2, 29272, Note_on_c, 0, 52, 80
2, 29290, Note_on_c, 0, 61, 0
2, 29290, Note_on_c, 0, 66, 0
2, 29290, Note_on_c, 0, 69, 0
2, 29290, Note_on_c, 0, 42, 0
2, 29293, Note_on_c, 0, 57, 0
2, 29293, Note_on_c, 0, 54, 0
2, 29304, Note_on_c, 0, 97, 0
2, 29304, Note_on_c, 0, 85, 0
2, 29334, Note_on_c, 0, 62, 80
2, 29334, Note_on_c, 0, 66, 80
2, 29334, Note_on_c, 0, 73, 80
2, 29334, Note_on_c, 0, 85, 80
2, 29334, Note_on_c, 0, 97, 80
2, 29391, Note_on_c, 0, 52, 0
2, 29391, Note_on_c, 0, 40, 0
2, 29391, Note_on_c, 0, 38, 80
2, 29391, Note_on_c, 0, 50, 80
2, 29424, Control_c, 0, 64, 127
2, 29478, Note_on_c, 0, 66, 0
2, 29478, Note_on_c, 0, 62, 0
2, 29506, Note_on_c, 0, 38, 0
2, 29506, Note_on_c, 0, 50, 0
2, 29506, Note_on_c, 0, 62, 80
2, 29506, Note_on_c, 0, 66, 80
2, 29509, Note_on_c, 0, 57, 80
2, 29527, Control_c, 0, 64, 0
2, 29566, Note_on_c, 0, 97, 0
2, 29566, Note_on_c, 0, 73, 0
2, 29568, Note_on_c, 0, 85, 0
2, 29568, Note_on_c, 0, 78, 80
2, 29568, Note_on_c, 0, 83, 80
2, 29568, Note_on_c, 0, 90, 80
2, 29568, Note_on_c, 0, 95, 80
2, 29576, Note_on_c, 0, 62, 0
2, 29576, Note_on_c, 0, 66, 0
2, 29576, Note_on_c, 0, 57, 0
2, 29622, Note_on_c, 0, 83, 0
2, 29622, Note_on_c, 0, 78, 0
2, 29622, Note_on_c, 0, 95, 0
2, 29625, Note_on_c, 0, 90, 0
2, 29625, Note_on_c, 0, 54, 80
2, 29625, Note_on_c, 0, 74, 80
2, 29625, Note_on_c, 0, 81, 80
2, 29625, Note_on_c, 0, 86, 80
2, 29625, Note_on_c, 0, 93, 80
2, 29633, Note_on_c, 0, 42, 80
2, 29682, Note_on_c, 0, 93, 0
2, 29682, Note_on_c, 0, 81, 0
2, 29682, Note_on_c, 0, 90, 80
2, 29687, Note_on_c, 0, 86, 0
2, 29687, Note_on_c, 0, 74, 0
2, 29697, Note_on_c, 0, 78, 80
2, 29743, Note_on_c, 0, 54, 0
2, 29746, Note_on_c, 0, 90, 0
2, 29746, Note_on_c, 0, 41, 80
2, 29746, Note_on_c, 0, 53, 80
2, 29746, Note_on_c, 0, 59, 80
2, 29746, Note_on_c, 0, 62, 80
2, 29746, Note_on_c, 0, 69, 80
2, 29746, Note_on_c, 0, 74, 80
2, 29746, Note_on_c, 0, 86, 80
2, 29757, Note_on_c, 0, 42, 0
2, 29757, Note_on_c, 0, 78, 0
2, 29813, Note_on_c, 0, 59, 0
2, 29813, Note_on_c, 0, 62, 0
2, 29816, Note_on_c, 0, 69, 0
2, 29865, Note_on_c, 0, 53, 0
2, 29865, Note_on_c, 0, 86, 0
2, 29865, Note_on_c, 0, 41, 0
2, 29868, Note_on_c, 0, 74, 0
2, 29868, Note_on_c, 0, 40, 80
2, 29868, Note_on_c, 0, 52, 80
2, 29868, Note_on_c, 0, 76, 80
2, 29868, Note_on_c, 0, 85, 80
2, 29868, Note_on_c, 0, 88, 80
2, 29868, Note_on_c, 0, 97, 80
2, 29899, Control_c, 0, 64, 127
2, 29991, Note_on_c, 0, 52, 0
2, 29991, Note_on_c, 0, 40, 0
2, 29991, Note_on_c, 0, 61, 80
2, 29991, Note_on_c, 0, 64, 80
2, 29991, Note_on_c, 0, 69, 80
2, 29991, Note_on_c, 0, 73, 80
2, 30011, Control_c, 0, 64, 0
2, 30022, Note_on_c, 0, 88, 0
2, 30022, Note_on_c, 0, 76, 0
2, 30052, Note_on_c, 0, 85, 0
2, 30052, Note_on_c, 0, 76, 80
2, 30052, Note_on_c, 0, 83, 80
2, 30052, Note_on_c, 0, 88, 80
2, 30052, Note_on_c, 0, 95, 80
2, 30060, Note_on_c, 0, 61, 0
2, 30060, Note_on_c, 0, 64, 0
2, 30063, Note_on_c, 0, 97, 0
2, 30063, Note_on_c, 0, 73, 0
2, 30063, Note_on_c, 0, 69, 0
2, 30117, Note_on_c, 0, 83, 0
2, 30117, Note_on_c, 0, 88, 0
2, 30117, Note_on_c, 0, 95, 0
2, 30117, Note_on_c, 0, 49, 80
2, 30117, Note_on_c, 0, 61, 80
2, 30117, Note_on_c, 0, 81, 80
2, 30117, Note_on_c, 0, 93, 80
2, 30147, Note_on_c, 0, 76, 0
2, 30178, Note_on_c, 0, 93, 0
2, 30181, Note_on_c, 0, 81, 0
2, 30181, Note_on_c, 0, 76, 80
2, 30181, Note_on_c, 0, 88, 80
2, 30212, Note_on_c, 0, 61, 0
2, 30242, Note_on_c, 0, 49, 0
2, 30242, Note_on_c, 0, 76, 0
2, 30242, Note_on_c, 0, 88, 0
2, 30242, Note_on_c, 0, 46, 80
2, 30242, Note_on_c, 0, 58, 80
2, 30242, Note_on_c, 0, 61, 80
2, 30242, Note_on_c, 0, 64, 80
2, 30242, Note_on_c, 0, 67, 80
2, 30242, Note_on_c, 0, 73, 80
2, 30242, Note_on_c, 0, 85, 80
2, 30314, Note_on_c, 0, 67, 0
2, 30314, Note_on_c, 0, 64, 0
2, 30314, Note_on_c, 0, 61, 0
2, 30358, Note_on_c, 0, 73, 0
2, 30368, Note_on_c, 0, 46, 0
2, 30368, Note_on_c, 0, 85, 0
2, 30368, Note_on_c, 0, 58, 0
2, 30368, Note_on_c, 0, 47, 80
2, 30368, Note_on_c, 0, 59, 80
2, 30368, Note_on_c, 0, 64, 80
2, 30368, Note_on_c, 0, 68, 80
2, 30368, Note_on_c, 0, 74, 80
2, 30368, Note_on_c, 0, 77, 80
2, 30368, Note_on_c, 0, 89, 80
2, 30379, Note_on_c, 0, 62, 80
2, 30399, Note_on_c, 0, 74, 0
2, 30402, Control_c, 0, 64, 127
2, 30430, Note_on_c, 0, 89, 0
2, 30430, Note_on_c, 0, 77, 0
2, 30430, Note_on_c, 0, 74, 80
2, 30430, Note_on_c, 0, 78, 80
2, 30430, Note_on_c, 0, 90, 80
2, 30437, Note_on_c, 0, 62, 0
2, 30437, Note_on_c, 0, 68, 0
2, 30437, Note_on_c, 0, 64, 0
2, 30489, Note_on_c, 0, 59, 0
2, 30489, Note_on_c, 0, 47, 0
2, 30489, Note_on_c, 0, 64, 80
2, 30489, Note_on_c, 0, 68, 80
2, 30492, Note_on_c, 0, 62, 80
2, 30510, Control_c, 0, 64, 0
2, 30521, Note_on_c, 0, 74, 0
2, 30552, Note_on_c, 0, 78, 0
2, 30552, Note_on_c, 0, 90, 0
2, 30552, Note_on_c, 0, 92, 80
2, 30554, Note_on_c, 0, 74, 80
2, 30554, Note_on_c, 0, 80, 80
2, 30562, Note_on_c, 0, 64, 0
2, 30562, Note_on_c, 0, 62, 0
2, 30562, Note_on_c, 0, 68, 0
2, 30614, Note_on_c, 0, 92, 0
2, 30614, Note_on_c, 0, 80, 0
2, 30614, Note_on_c, 0, 40, 80
2, 30614, Note_on_c, 0, 52, 80
2, 30614, Note_on_c, 0, 78, 80
2, 30614, Note_on_c, 0, 90, 80
2, 30642, Control_c, 0, 64, 127
2, 30672, Note_on_c, 0, 90, 0
2, 30672, Note_on_c, 0, 74, 0
2, 30672, Note_on_c, 0, 78, 0
2, 30672, Note_on_c, 0, 68, 80
2, 30672, Note_on_c, 0, 80, 80
2, 30703, Note_on_c, 0, 68, 0
2, 30731, Note_on_c, 0, 40, 0
2, 30731, Note_on_c, 0, 52, 0
2, 30731, Note_on_c, 0, 80, 0
2, 30731, Note_on_c, 0, 62, 80
2, 30734, Note_on_c, 0, 64, 80
2, 30734, Note_on_c, 0, 68, 80
2, 30734, Note_on_c, 0, 71, 80
2, 30734, Note_on_c, 0, 83, 80
2, 30752, Control_c, 0, 64, 0
2, 30793, Note_on_c, 0, 83, 0
2, 30793, Note_on_c, 0, 76, 80
2, 30793, Note_on_c, 0, 88, 80
2, 30801, Note_on_c, 0, 62, 0
2, 30801, Note_on_c, 0, 68, 0
2, 30801, Note_on_c, 0, 64, 0
2, 30804, Note_on_c, 0, 71, 0
2, 30824, Note_on_c, 0, 76, 0
2, 30855, Note_on_c, 0, 88, 0
2, 30855, Note_on_c, 0, 45, 80
2, 30855, Note_on_c, 0, 57, 80
2, 30855, Note_on_c, 0, 61, 80
2, 30855, Note_on_c, 0, 64, 80
2, 30855, Note_on_c, 0, 69, 80
2, 30855, Note_on_c, 0, 73, 80
2, 30855, Note_on_c, 0, 76, 80
2, 30855, Note_on_c, 0, 81, 80
2, 30924, Note_on_c, 0, 81, 0
2, 30924, Note_on_c, 0, 45, 0
2, 30924, Note_on_c, 0, 69, 0
2, 30924, Note_on_c, 0, 57, 0
2, 30924, Note_on_c, 0, 61, 0
2, 30924, Note_on_c, 0, 64, 0
2, 30924, Note_on_c, 0, 73, 0
2, 30924, Note_on_c, 0, 76, 0
2, 30958, Note_on_c, 0, 75, 80
2, 30958, Note_on_c, 0, 87, 80
2, 30978, Note_on_c, 0, 76, 80
2, 30978, Note_on_c, 0, 88, 80
2, 30985, Note_on_c, 0, 87, 0
2, 30985, Note_on_c, 0, 75, 0
2, 31047, Note_on_c, 0, 76, 0
2, 31047, Note_on_c, 0, 88, 0
2, 31075, Note_on_c, 0, 51, 80
2, 31078, Note_on_c, 0, 39, 80
2, 31078, Note_on_c, 0, 63, 80
2, 31098, Note_on_c, 0, 40, 80
2, 31098, Note_on_c, 0, 52, 80
2, 31098, Note_on_c, 0, 64, 80
2, 31098, Note_on_c, 0, 76, 80
2, 31108, Note_on_c, 0, 63, 0
2, 31108, Note_on_c, 0, 51, 0
2, 31108, Note_on_c, 0, 39, 0
2, 31165, Note_on_c, 0, 52, 0
2, 31168, Note_on_c, 0, 40, 0
2, 31168, Note_on_c, 0, 64, 0
2, 31168, Note_on_c, 0, 76, 0
2, 31220, Note_on_c, 0, 40, 80
2, 31220, Note_on_c, 0, 52, 80
2, 31220, Note_on_c, 0, 64, 80
2, 31220, Note_on_c, 0, 76, 80
2, 31335, Note_on_c, 0, 64, 0
2, 31338, Note_on_c, 0, 40, 0
2, 31338, Note_on_c, 0, 52, 0
2, 31338, Note_on_c, 0, 76, 0
2, 31338, Note_on_c, 0, 45, 80
2, 31338, Note_on_c, 0, 57, 80
2, 31371, Control_c, 0, 64, 127
2, 31402, Note_on_c, 0, 76, 80
2, 31402, Note_on_c, 0, 85, 80
2, 31402, Note_on_c, 0, 97, 80
2, 31438, Note_on_c, 0, 97, 0
2, 31438, Note_on_c, 0, 76, 0
2, 31438, Note_on_c, 0, 85, 0
2, 31448, Note_on_c, 0, 57, 0
2, 31459, Note_on_c, 0, 45, 0
2, 31462, Note_on_c, 0, 61, 80
2, 31462, Note_on_c, 0, 64, 80
2, 31462, Note_on_c, 0, 69, 80
2, 31462, Note_on_c, 0, 73, 80
2, 31462, Note_on_c, 0, 81, 80
2, 31462, Note_on_c, 0, 93, 80
2, 31482, Control_c, 0, 64, 0
2, 31489, Note_on_c, 0, 73, 0
2, 31497, Note_on_c, 0, 81, 0
2, 31497, Note_on_c, 0, 93, 0
2, 31520, Note_on_c, 0, 73, 80
2, 31520, Note_on_c, 0, 78, 80
2, 31520, Note_on_c, 0, 90, 80
2, 31528, Note_on_c, 0, 61, 0
2, 31528, Note_on_c, 0, 64, 0
2, 31531, Note_on_c, 0, 69, 0
2, 31561, Note_on_c, 0, 78, 0
2, 31561, Note_on_c, 0, 90, 0
2, 31582, Note_on_c, 0, 40, 80
2, 31582, Note_on_c, 0, 52, 80
2, 31582, Note_on_c, 0, 75, 80
2, 31582, Note_on_c, 0, 87, 80
2, 31615, Control_c, 0, 64, 127
2, 31623, Note_on_c, 0, 87, 0
2, 31623, Note_on_c, 0, 75, 0
2, 31643, Note_on_c, 0, 76, 80
2, 31643, Note_on_c, 0, 88, 80
2, 31681, Note_on_c, 0, 88, 0
2, 31681, Note_on_c, 0, 76, 0
2, 31692, Note_on_c, 0, 73, 0
2, 31704, Note_on_c, 0, 52, 0
2, 31704, Note_on_c, 0, 40, 0
2, 31704, Note_on_c, 0, 57, 80
2, 31704, Note_on_c, 0, 61, 80
2, 31704, Note_on_c, 0, 64, 80
2, 31704, Note_on_c, 0, 69, 80
2, 31704, Note_on_c, 0, 81, 80
2, 31725, Control_c, 0, 64, 0
2, 31745, Note_on_c, 0, 81, 0
2, 31745, Note_on_c, 0, 69, 0
2, 31768, Note_on_c, 0, 83, 80
2, 31771, Note_on_c, 0, 71, 80
2, 31776, Note_on_c, 0, 57, 0
2, 31776, Note_on_c, 0, 64, 0
2, 31776, Note_on_c, 0, 61, 0
2, 31809, Note_on_c, 0, 83, 0
2, 31809, Note_on_c, 0, 71, 0
2, 31827, Note_on_c, 0, 84, 80
2, 31830, Note_on_c, 0, 42, 80
2, 31830, Note_on_c, 0, 54, 80
2, 31830, Note_on_c, 0, 57, 80
2, 31830, Note_on_c, 0, 61, 80
2, 31830, Note_on_c, 0, 63, 80
2, 31830, Note_on_c, 0, 72, 80
2, 31869, Note_on_c, 0, 72, 0
2, 31889, Note_on_c, 0, 68, 80
2, 31889, Note_on_c, 0, 80, 80
2, 31930, Note_on_c, 0, 80, 0
2, 31930, Note_on_c, 0, 68, 0
2, 31950, Note_on_c, 0, 54, 0
2, 31950, Note_on_c, 0, 81, 80
2, 31953, Note_on_c, 0, 41, 80
2, 31953, Note_on_c, 0, 53, 80
2, 31953, Note_on_c, 0, 69, 80
2, 31961, Note_on_c, 0, 42, 0
2, 31981, Note_on_c, 0, 61, 0
2, 31981, Note_on_c, 0, 57, 0
2, 31981, Note_on_c, 0, 63, 0
2, 31989, Note_on_c, 0, 69, 0
2, 31989, Note_on_c, 0, 81, 0
2, 32009, Note_on_c, 0, 84, 0
2, 32012, Note_on_c, 0, 56, 80
2, 32012, Note_on_c, 0, 59, 80
2, 32012, Note_on_c, 0, 68, 80
2, 32012, Note_on_c, 0, 71, 80
2, 32012, Note_on_c, 0, 83, 80
2, 32022, Note_on_c, 0, 62, 80
2, 32071, Note_on_c, 0, 52, 80
2, 32074, Note_on_c, 0, 40, 80
2, 32082, Note_on_c, 0, 41, 0
2, 32082, Note_on_c, 0, 53, 0
2, 32131, Note_on_c, 0, 83, 0
2, 32134, Note_on_c, 0, 71, 0
2, 32134, Note_on_c, 0, 64, 80
2, 32134, Note_on_c, 0, 76, 80
2, 32149, Note_on_c, 0, 62, 0
2, 32149, Note_on_c, 0, 59, 0
2, 32149, Note_on_c, 0, 68, 0
2, 32149, Note_on_c, 0, 56, 0
2, 32160, Note_on_c, 0, 52, 0
2, 32160, Note_on_c, 0, 76, 0
2, 32160, Note_on_c, 0, 40, 0
2, 32160, Note_on_c, 0, 64, 0
2, 32193, Note_on_c, 0, 40, 80
2, 32193, Note_on_c, 0, 52, 80
2, 32193, Note_on_c, 0, 56, 80
2, 32193, Note_on_c, 0, 59, 80
2, 32193, Note_on_c, 0, 62, 80
2, 32193, Note_on_c, 0, 64, 80
2, 32193, Note_on_c, 0, 68, 80
2, 32193, Note_on_c, 0, 76, 80
2, 32193, Note_on_c, 0, 88, 80
2, 32229, Note_on_c, 0, 88, 0
2, 32249, Note_on_c, 0, 86, 80
2, 32252, Note_on_c, 0, 74, 80
2, 32287, Note_on_c, 0, 74, 0
2, 32287, Note_on_c, 0, 86, 0
2, 32307, Note_on_c, 0, 68, 0
2, 32307, Note_on_c, 0, 56, 0
2, 32307, Note_on_c, 0, 62, 0
2, 32307, Note_on_c, 0, 52, 0
2, 32307, Note_on_c, 0, 59, 0
2, 32307, Note_on_c, 0, 76, 0
2, 32307, Note_on_c, 0, 64, 0
2, 32307, Note_on_c, 0, 45, 80
2, 32307, Note_on_c, 0, 57, 80
2, 32310, Note_on_c, 0, 40, 0
2, 32341, Control_c, 0, 64, 127
2, 32369, Note_on_c, 0, 76, 80
2, 32369, Note_on_c, 0, 85, 80
2, 32369, Note_on_c, 0, 97, 80
2, 32407, Note_on_c, 0, 97, 0
2, 32407, Note_on_c, 0, 76, 0
2, 32407, Note_on_c, 0, 85, 0
2, 32427, Note_on_c, 0, 57, 0
2, 32427, Note_on_c, 0, 45, 0
2, 32427, Note_on_c, 0, 61, 80
2, 32427, Note_on_c, 0, 64, 80
2, 32427, Note_on_c, 0, 69, 80
2, 32427, Note_on_c, 0, 73, 80
2, 32427, Note_on_c, 0, 81, 80
2, 32427, Note_on_c, 0, 93, 80
2, 32448, Control_c, 0, 64, 0
2, 32455, Note_on_c, 0, 73, 0
2, 32466, Note_on_c, 0, 81, 0
2, 32466, Note_on_c, 0, 93, 0
2, 32486, Note_on_c, 0, 90, 80
2, 32489, Note_on_c, 0, 73, 80
2, 32489, Note_on_c, 0, 78, 80
2, 32496, Note_on_c, 0, 61, 0
2, 32496, Note_on_c, 0, 64, 0
2, 32496, Note_on_c, 0, 69, 0
2, 32524, Note_on_c, 0, 90, 0
2, 32527, Note_on_c, 0, 78, 0
2, 32547, Note_on_c, 0, 75, 80
2, 32547, Note_on_c, 0, 87, 80
2, 32550, Note_on_c, 0, 40, 80
2, 32550, Note_on_c, 0, 52, 80
2, 32581, Control_c, 0, 64, 127
2, 32584, Note_on_c, 0, 87, 0
2, 32587, Note_on_c, 0, 75, 0
2, 32607, Note_on_c, 0, 76, 80
2, 32607, Note_on_c, 0, 88, 80
2, 32645, Note_on_c, 0, 88, 0
2, 32645, Note_on_c, 0, 73, 0
2, 32645, Note_on_c, 0, 76, 0
2, 32668, Note_on_c, 0, 52, 0
2, 32668, Note_on_c, 0, 40, 0
2, 32668, Note_on_c, 0, 57, 80
2, 32668, Note_on_c, 0, 61, 80
2, 32668, Note_on_c, 0, 64, 80
2, 32668, Note_on_c, 0, 69, 80
2, 32668, Note_on_c, 0, 81, 80
2, 32688, Control_c, 0, 64, 0
2, 32704, Note_on_c, 0, 81, 0
2, 32707, Note_on_c, 0, 69, 0
2, 32727, Note_on_c, 0, 71, 80
2, 32727, Note_on_c, 0, 83, 80
2, 32737, Note_on_c, 0, 57, 0
2, 32737, Note_on_c, 0, 64, 0
2, 32737, Note_on_c, 0, 61, 0
2, 32765, Note_on_c, 0, 83, 0
2, 32768, Note_on_c, 0, 71, 0
2, 32786, Note_on_c, 0, 60, 80
2, 32786, Note_on_c, 0, 63, 80
2, 32786, Note_on_c, 0, 72, 80
2, 32786, Note_on_c, 0, 84, 80
2, 32789, Note_on_c, 0, 42, 80
2, 32789, Note_on_c, 0, 54, 80
2, 32789, Note_on_c, 0, 57, 80
2, 32846, Note_on_c, 0, 72, 0
2, 32849, Note_on_c, 0, 68, 80
2, 32849, Note_on_c, 0, 80, 80
2, 32908, Note_on_c, 0, 80, 0
2, 32908, Note_on_c, 0, 68, 0
2, 32908, Note_on_c, 0, 69, 80
2, 32908, Note_on_c, 0, 81, 80
2, 32911, Note_on_c, 0, 54, 0
2, 32911, Note_on_c, 0, 42, 0
2, 32911, Note_on_c, 0, 41, 80
2, 32911, Note_on_c, 0, 53, 80
2, 32939, Note_on_c, 0, 84, 0
2, 32970, Note_on_c, 0, 69, 0
2, 32970, Note_on_c, 0, 81, 0
2, 32970, Note_on_c, 0, 63, 0
2, 32970, Note_on_c, 0, 60, 0
2, 32970, Note_on_c, 0, 68, 80
2, 32970, Note_on_c, 0, 71, 80
2, 32970, Note_on_c, 0, 83, 80
2, 32973, Note_on_c, 0, 57, 0
2, 32973, Note_on_c, 0, 56, 80
2, 32973, Note_on_c, 0, 59, 80
2, 32973, Note_on_c, 0, 62, 80
2, 33029, Note_on_c, 0, 53, 0
2, 33032, Note_on_c, 0, 41, 0
2, 33032, Note_on_c, 0, 40, 80
2, 33032, Note_on_c, 0, 52, 80
2, 33089, Note_on_c, 0, 83, 0
2, 33092, Note_on_c, 0, 56, 0
2, 33102, Note_on_c, 0, 52, 0
2, 33102, Note_on_c, 0, 68, 0
2, 33102, Note_on_c, 0, 71, 0
2, 33102, Note_on_c, 0, 59, 0
2, 33102, Note_on_c, 0, 62, 0
2, 33105, Note_on_c, 0, 40, 0
2, 33154, Note_on_c, 0, 47, 80
2, 33154, Note_on_c, 0, 59, 80
2, 33195, Note_on_c, 0, 59, 0
2, 33195, Note_on_c, 0, 47, 0
2, 33218, Note_on_c, 0, 49, 80
2, 33218, Note_on_c, 0, 61, 80
2, 33257, Note_on_c, 0, 61, 0
2, 33257, Note_on_c, 0, 49, 0
2, 33280, Note_on_c, 0, 42, 80
2, 33280, Note_on_c, 0, 54, 80
2, 33313, Control_c, 0, 64, 127
2, 33401, Note_on_c, 0, 66, 80
2, 33401, Note_on_c, 0, 68, 80
2, 33401, Note_on_c, 0, 71, 80
2, 33401, Note_on_c, 0, 74, 80
2, 33401, Note_on_c, 0, 78, 80
2, 33401, Note_on_c, 0, 80, 80
2, 33401, Note_on_c, 0, 86, 80
2, 33424, Control_c, 0, 64, 0
2, 33480, Note_on_c, 0, 80, 0
2, 33480, Note_on_c, 0, 71, 0
2, 33480, Note_on_c, 0, 68, 0
2, 33508, Note_on_c, 0, 74, 0
2, 33519, Note_on_c, 0, 78, 0
2, 33519, Note_on_c, 0, 77, 80
2, 33519, Note_on_c, 0, 85, 80
2, 33522, Note_on_c, 0, 65, 80
2, 33522, Note_on_c, 0, 68, 80
2, 33522, Note_on_c, 0, 71, 80
2, 33522, Note_on_c, 0, 73, 80
2, 33522, Note_on_c, 0, 80, 80
2, 33529, Note_on_c, 0, 66, 0
2, 33529, Note_on_c, 0, 86, 0
2, 33591, Note_on_c, 0, 77, 0
2, 33591, Note_on_c, 0, 68, 0
2, 33591, Note_on_c, 0, 42, 0
2, 33591, Note_on_c, 0, 85, 0
2, 33591, Note_on_c, 0, 54, 0
2, 33591, Note_on_c, 0, 80, 0
2, 33591, Note_on_c, 0, 71, 0
2, 33591, Note_on_c, 0, 65, 0
2, 33591, Note_on_c, 0, 73, 0
2, 33655, Note_on_c, 0, 47, 80
2, 33655, Note_on_c, 0, 59, 80
2, 33694, Note_on_c, 0, 59, 0
2, 33694, Note_on_c, 0, 47, 0
2, 33717, Note_on_c, 0, 61, 80
2, 33720, Note_on_c, 0, 49, 80
2, 33747, Note_on_c, 0, 61, 0
2, 33758, Note_on_c, 0, 49, 0
2, 33770, Note_on_c, 0, 42, 80
2, 33770, Note_on_c, 0, 54, 80
2, 33804, Control_c, 0, 64, 127
2, 33891, Note_on_c, 0, 62, 80
2, 33891, Note_on_c, 0, 66, 80
2, 33891, Note_on_c, 0, 68, 80
2, 33891, Note_on_c, 0, 71, 80
2, 33891, Note_on_c, 0, 78, 80
2, 33891, Note_on_c, 0, 80, 80
2, 33891, Note_on_c, 0, 83, 80
2, 33891, Note_on_c, 0, 90, 80
2, 33914, Control_c, 0, 64, 0
2, 33966, Note_on_c, 0, 83, 0
2, 33969, Note_on_c, 0, 80, 0
2, 33969, Note_on_c, 0, 71, 0
2, 33969, Note_on_c, 0, 68, 0
2, 34008, Note_on_c, 0, 78, 0
2, 34008, Note_on_c, 0, 83, 80
2, 34008, Note_on_c, 0, 89, 80
2, 34008, Note_on_c, 0, 61, 80
2, 34008, Note_on_c, 0, 65, 80
2, 34008, Note_on_c, 0, 68, 80
2, 34008, Note_on_c, 0, 71, 80
2, 34008, Note_on_c, 0, 77, 80
2, 34008, Note_on_c, 0, 80, 80
2, 34015, Note_on_c, 0, 66, 0
2, 34015, Note_on_c, 0, 62, 0
2, 34015, Note_on_c, 0, 90, 0
2, 34072, Note_on_c, 0, 89, 0
2, 34075, Note_on_c, 0, 68, 0
2, 34075, Note_on_c, 0, 61, 0
2, 34075, Note_on_c, 0, 54, 0
2, 34075, Note_on_c, 0, 83, 0
2, 34075, Note_on_c, 0, 80, 0
2, 34075, Note_on_c, 0, 77, 0
2, 34075, Note_on_c, 0, 65, 0
2, 34075, Note_on_c, 0, 71, 0
2, 34078, Note_on_c, 0, 42, 0
2, 34252, Note_on_c, 0, 54, 80
2, 34255, Note_on_c, 0, 42, 80
2, 34258, Note_on_c, 0, 30, 80
2, 34315, Note_on_c, 0, 56, 80
2, 34318, Note_on_c, 0, 32, 80
2, 34318, Note_on_c, 0, 44, 80
2, 34328, Note_on_c, 0, 30, 0
2, 34377, Note_on_c, 0, 33, 80
2, 34377, Note_on_c, 0, 45, 80
2, 34382, Note_on_c, 0, 56, 0
2, 34385, Note_on_c, 0, 44, 0
2, 34385, Note_on_c, 0, 57, 80
2, 34388, Note_on_c, 0, 32, 0
2, 34434, Note_on_c, 0, 61, 80
2, 34437, Note_on_c, 0, 37, 80
2, 34437, Note_on_c, 0, 49, 80
2, 34444, Note_on_c, 0, 33, 0
2, 34457, Note_on_c, 0, 42, 0
2, 34464, Note_on_c, 0, 54, 0
2, 34492, Note_on_c, 0, 37, 0
2, 34492, Note_on_c, 0, 66, 80
2, 34492, Note_on_c, 0, 42, 80
2, 34492, Note_on_c, 0, 54, 80
2, 34552, Note_on_c, 0, 56, 80
2, 34552, Note_on_c, 0, 68, 80
2, 34555, Note_on_c, 0, 44, 80
2, 34562, Note_on_c, 0, 57, 0
2, 34565, Note_on_c, 0, 42, 0
2, 34576, Note_on_c, 0, 45, 0
2, 34576, Note_on_c, 0, 54, 0
2, 34614, Note_on_c, 0, 44, 0
2, 34614, Note_on_c, 0, 45, 80
2, 34614, Note_on_c, 0, 57, 80
2, 34614, Note_on_c, 0, 69, 80
2, 34622, Note_on_c, 0, 56, 0
2, 34634, Note_on_c, 0, 68, 0
2, 34634, Note_on_c, 0, 49, 0
2, 34642, Note_on_c, 0, 61, 0
2, 34676, Note_on_c, 0, 73, 80
2, 34676, Note_on_c, 0, 49, 80
2, 34686, Note_on_c, 0, 61, 80
2, 34704, Note_on_c, 0, 66, 0
2, 34732, Note_on_c, 0, 73, 0
2, 34732, Note_on_c, 0, 66, 80
2, 34735, Note_on_c, 0, 54, 80
2, 34738, Note_on_c, 0, 42, 80
2, 34743, Note_on_c, 0, 69, 0
2, 34743, Note_on_c, 0, 61, 0
2, 34746, Note_on_c, 0, 57, 0
2, 34746, Note_on_c, 0, 45, 0
2, 34746, Note_on_c, 0, 49, 0
2, 34795, Note_on_c, 0, 68, 80
2, 34798, Note_on_c, 0, 44, 80
2, 34798, Note_on_c, 0, 56, 80
2, 34808, Note_on_c, 0, 42, 0
2, 34854, Note_on_c, 0, 69, 80
2, 34857, Note_on_c, 0, 57, 80
2, 34860, Note_on_c, 0, 45, 80
2, 34865, Note_on_c, 0, 68, 0
2, 34868, Note_on_c, 0, 44, 0
2, 34868, Note_on_c, 0, 56, 0
2, 34914, Note_on_c, 0, 73, 80
2, 34926, Note_on_c, 0, 61, 80
2, 34929, Note_on_c, 0, 49, 80
2, 34937, Note_on_c, 0, 54, 0
2, 34940, Note_on_c, 0, 45, 0
2, 34947, Note_on_c, 0, 66, 0
2, 34975, Note_on_c, 0, 66, 80
2, 34975, Note_on_c, 0, 78, 80
2, 34978, Note_on_c, 0, 54, 80
2, 34989, Note_on_c, 0, 49, 0
2, 35035, Note_on_c, 0, 68, 80
2, 35038, Note_on_c, 0, 56, 80
2, 35045, Note_on_c, 0, 57, 0
2, 35045, Note_on_c, 0, 80, 80
2, 35056, Note_on_c, 0, 69, 0
2, 35059, Note_on_c, 0, 54, 0
2, 35094, Note_on_c, 0, 81, 80
2, 35097, Note_on_c, 0, 57, 80
2, 35097, Note_on_c, 0, 69, 80
2, 35102, Note_on_c, 0, 68, 0
2, 35102, Note_on_c, 0, 56, 0
2, 35102, Note_on_c, 0, 80, 0
2, 35112, Note_on_c, 0, 61, 0
2, 35123, Note_on_c, 0, 73, 0
2, 35154, Note_on_c, 0, 73, 80
2, 35157, Note_on_c, 0, 61, 80
2, 35161, Note_on_c, 0, 85, 80
2, 35169, Note_on_c, 0, 78, 0
2, 35172, Note_on_c, 0, 69, 0
2, 35172, Note_on_c, 0, 57, 0
2, 35183, Note_on_c, 0, 66, 0
2, 35210, Note_on_c, 0, 81, 0
2, 35210, Note_on_c, 0, 73, 0
2, 35210, Note_on_c, 0, 90, 80
2, 35213, Note_on_c, 0, 61, 0
2, 35213, Note_on_c, 0, 63, 80
2, 35213, Note_on_c, 0, 66, 80
2, 35213, Note_on_c, 0, 69, 80
2, 35213, Note_on_c, 0, 72, 80
2, 35213, Note_on_c, 0, 78, 80
2, 35221, Note_on_c, 0, 85, 0
2, 35247, Control_c, 0, 64, 127
2, 35280, Note_on_c, 0, 69, 0
2, 35280, Note_on_c, 0, 63, 0
2, 35280, Note_on_c, 0, 66, 0
2, 35280, Note_on_c, 0, 72, 0
2, 35327, Note_on_c, 0, 90, 0
2, 35329, Note_on_c, 0, 78, 0
2, 35329, Note_on_c, 0, 66, 80
2, 35329, Note_on_c, 0, 72, 80
2, 35329, Note_on_c, 0, 80, 80
2, 35329, Note_on_c, 0, 92, 80
2, 35332, Note_on_c, 0, 63, 80
2, 35332, Note_on_c, 0, 69, 80
2, 35355, Control_c, 0, 64, 0
2, 35386, Note_on_c, 0, 92, 0
2, 35389, Note_on_c, 0, 80, 0
2, 35389, Note_on_c, 0, 78, 80
2, 35389, Note_on_c, 0, 90, 80
2, 35400, Note_on_c, 0, 72, 0
2, 35400, Note_on_c, 0, 66, 0
2, 35400, Note_on_c, 0, 69, 0
2, 35402, Note_on_c, 0, 63, 0
2, 35451, Note_on_c, 0, 72, 80
2, 35454, Note_on_c, 0, 63, 80
2, 35454, Note_on_c, 0, 66, 80
2, 35454, Note_on_c, 0, 69, 80
2, 35485, Control_c, 0, 64, 127
2, 35508, Note_on_c, 0, 78, 0
2, 35508, Note_on_c, 0, 90, 0
2, 35508, Note_on_c, 0, 80, 80
2, 35508, Note_on_c, 0, 92, 80
2, 35519, Note_on_c, 0, 66, 0
2, 35519, Note_on_c, 0, 72, 0
2, 35519, Note_on_c, 0, 69, 0
2, 35521, Note_on_c, 0, 63, 0
2, 35568, Note_on_c, 0, 92, 0
2, 35568, Note_on_c, 0, 90, 80
2, 35570, Note_on_c, 0, 80, 0
2, 35573, Note_on_c, 0, 63, 80
2, 35573, Note_on_c, 0, 66, 80
2, 35573, Note_on_c, 0, 69, 80
2, 35573, Note_on_c, 0, 72, 80
2, 35573, Note_on_c, 0, 78, 80
2, 35593, Control_c, 0, 64, 0
2, 35598, Note_on_c, 0, 90, 0
2, 35601, Note_on_c, 0, 78, 0
2, 35629, Note_on_c, 0, 90, 80
2, 35632, Note_on_c, 0, 63, 0
2, 35632, Note_on_c, 0, 78, 80
2, 35642, Note_on_c, 0, 72, 0
2, 35642, Note_on_c, 0, 69, 0
2, 35642, Note_on_c, 0, 66, 0
2, 35694, Note_on_c, 0, 64, 80
2, 35694, Note_on_c, 0, 69, 80
2, 35694, Note_on_c, 0, 73, 80
2, 35730, Control_c, 0, 64, 127
2, 35750, Note_on_c, 0, 90, 0
2, 35753, Note_on_c, 0, 78, 0
2, 35753, Note_on_c, 0, 76, 80
2, 35753, Note_on_c, 0, 88, 80
2, 35763, Note_on_c, 0, 69, 0
2, 35763, Note_on_c, 0, 73, 0
2, 35763, Note_on_c, 0, 64, 0
2, 35812, Note_on_c, 0, 88, 0
2, 35815, Note_on_c, 0, 76, 0
2, 35815, Note_on_c, 0, 64, 80
2, 35815, Note_on_c, 0, 69, 80
2, 35815, Note_on_c, 0, 73, 80
2, 35815, Note_on_c, 0, 85, 80
2, 35841, Control_c, 0, 64, 0
2, 35875, Note_on_c, 0, 85, 0
2, 35875, Note_on_c, 0, 83, 80
2, 35878, Note_on_c, 0, 73, 0
2, 35878, Note_on_c, 0, 71, 80
2, 35888, Note_on_c, 0, 64, 0
2, 35888, Note_on_c, 0, 69, 0
2, 35940, Note_on_c, 0, 83, 0
2, 35940, Note_on_c, 0, 71, 0
2, 35940, Note_on_c, 0, 73, 80
2, 35940, Note_on_c, 0, 81, 80
2, 35943, Note_on_c, 0, 69, 80
2, 35951, Note_on_c, 0, 67, 80
2, 35978, Control_c, 0, 64, 127
2, 35999, Note_on_c, 0, 81, 0
2, 36001, Note_on_c, 0, 69, 0
2, 36001, Note_on_c, 0, 76, 80
2, 36001, Note_on_c, 0, 88, 80
2, 36012, Note_on_c, 0, 73, 0
2, 36012, Note_on_c, 0, 67, 0
2, 36066, Note_on_c, 0, 67, 80
2, 36066, Note_on_c, 0, 69, 80
2, 36066, Note_on_c, 0, 73, 80
2, 36092, Control_c, 0, 64, 0
2, 36127, Note_on_c, 0, 76, 0
2, 36127, Note_on_c, 0, 88, 0
2, 36127, Note_on_c, 0, 74, 80
2, 36127, Note_on_c, 0, 86, 80
2, 36138, Note_on_c, 0, 69, 0
2, 36138, Note_on_c, 0, 73, 0
2, 36138, Note_on_c, 0, 67, 0
2, 36190, Note_on_c, 0, 66, 80
2, 36190, Note_on_c, 0, 69, 80
2, 36231, Control_c, 0, 64, 127
2, 36251, Note_on_c, 0, 74, 0
2, 36251, Note_on_c, 0, 71, 80
2, 36251, Note_on_c, 0, 83, 80
2, 36262, Note_on_c, 0, 69, 0
2, 36262, Note_on_c, 0, 66, 0
2, 36280, Note_on_c, 0, 83, 0
2, 36311, Note_on_c, 0, 95, 80
2, 36313, Note_on_c, 0, 71, 0
2, 36313, Note_on_c, 0, 83, 80
2, 36316, Note_on_c, 0, 69, 80
2, 36316, Note_on_c, 0, 74, 80
2, 36324, Note_on_c, 0, 86, 0
2, 36327, Note_on_c, 0, 65, 80
2, 36339, Control_c, 0, 64, 0
2, 36373, Note_on_c, 0, 95, 0
2, 36373, Note_on_c, 0, 83, 0
2, 36373, Note_on_c, 0, 93, 80
2, 36376, Note_on_c, 0, 81, 80
2, 36386, Note_on_c, 0, 69, 0
2, 36394, Note_on_c, 0, 65, 0
2, 36405, Note_on_c, 0, 81, 0
2, 36412, Note_on_c, 0, 93, 0
2, 36438, Note_on_c, 0, 69, 80
2, 36438, Note_on_c, 0, 73, 80
2, 36438, Note_on_c, 0, 81, 80
2, 36441, Note_on_c, 0, 64, 80
2, 36456, Note_on_c, 0, 74, 0
2, 36469, Note_on_c, 0, 73, 0
2, 36477, Control_c, 0, 64, 127
2, 36500, Note_on_c, 0, 69, 0
2, 36500, Note_on_c, 0, 81, 0
2, 36500, Note_on_c, 0, 73, 80
2, 36500, Note_on_c, 0, 85, 80
2, 36510, Note_on_c, 0, 64, 0
2, 36530, Note_on_c, 0, 73, 0
2, 36561, Note_on_c, 0, 64, 80
2, 36561, Note_on_c, 0, 69, 80
2, 36561, Note_on_c, 0, 73, 80
2, 36587, Control_c, 0, 64, 0
2, 36610, Note_on_c, 0, 85, 0
2, 36621, Note_on_c, 0, 73, 0
2, 36621, Note_on_c, 0, 78, 80
2, 36621, Note_on_c, 0, 90, 80
2, 36631, Note_on_c, 0, 69, 0
2, 36631, Note_on_c, 0, 64, 0
2, 36680, Note_on_c, 0, 90, 0
2, 36683, Note_on_c, 0, 78, 0
2, 36686, Note_on_c, 0, 64, 80
2, 36686, Note_on_c, 0, 68, 80
2, 36686, Note_on_c, 0, 74, 80
2, 36686, Note_on_c, 0, 76, 80
2, 36691, Note_on_c, 0, 88, 80
2, 36719, Control_c, 0, 64, 127
2, 36739, Note_on_c, 0, 76, 0
2, 36739, Note_on_c, 0, 83, 80
2, 36739, Note_on_c, 0, 95, 80
2, 36749, Note_on_c, 0, 88, 0
2, 36752, Note_on_c, 0, 64, 0
2, 36752, Note_on_c, 0, 71, 80
2, 36763, Note_on_c, 0, 68, 0
2, 36763, Note_on_c, 0, 74, 0
2, 36798, Note_on_c, 0, 95, 0
2, 36798, Note_on_c, 0, 83, 0
2, 36798, Note_on_c, 0, 96, 80
2, 36801, Note_on_c, 0, 71, 0
2, 36801, Note_on_c, 0, 64, 80
2, 36801, Note_on_c, 0, 68, 80
2, 36801, Note_on_c, 0, 72, 80
2, 36801, Note_on_c, 0, 74, 80
2, 36801, Note_on_c, 0, 84, 80
2, 36827, Control_c, 0, 64, 0
2, 36858, Note_on_c, 0, 84, 0
2, 36858, Note_on_c, 0, 96, 0
2, 36861, Note_on_c, 0, 72, 0
2, 36861, Note_on_c, 0, 73, 80
2, 36861, Note_on_c, 0, 85, 80
2, 36868, Note_on_c, 0, 97, 80
2, 36871, Note_on_c, 0, 64, 0
2, 36871, Note_on_c, 0, 74, 0
2, 36871, Note_on_c, 0, 68, 0
2, 36889, Note_on_c, 0, 73, 0
2, 36923, Note_on_c, 0, 64, 80
2, 36923, Note_on_c, 0, 69, 80
2, 36923, Note_on_c, 0, 73, 80
2, 36957, Control_c, 0, 64, 127
2, 36977, Note_on_c, 0, 73, 0
2, 36977, Note_on_c, 0, 97, 0
2, 36977, Note_on_c, 0, 64, 0
2, 36977, Note_on_c, 0, 85, 0
2, 36977, Note_on_c, 0, 87, 80
2, 36980, Note_on_c, 0, 69, 0
2, 36980, Note_on_c, 0, 75, 80
2, 37036, Note_on_c, 0, 87, 0
2, 37039, Note_on_c, 0, 75, 0
2, 37039, Note_on_c, 0, 64, 80
2, 37039, Note_on_c, 0, 69, 80
2, 37039, Note_on_c, 0, 73, 80
2, 37039, Note_on_c, 0, 76, 80
2, 37039, Note_on_c, 0, 88, 80
2, 37062, Control_c, 0, 64, 0
2, 37098, Note_on_c, 0, 90, 80
2, 37101, Note_on_c, 0, 88, 0
2, 37101, Note_on_c, 0, 76, 0
2, 37101, Note_on_c, 0, 78, 80
2, 37108, Note_on_c, 0, 73, 0
2, 37108, Note_on_c, 0, 64, 0
2, 37108, Note_on_c, 0, 69, 0
2, 37162, Note_on_c, 0, 51, 80
2, 37162, Note_on_c, 0, 60, 80
2, 37162, Note_on_c, 0, 66, 80
2, 37162, Note_on_c, 0, 69, 80
2, 37162, Note_on_c, 0, 72, 80
2, 37165, Note_on_c, 0, 39, 80
2, 37199, Control_c, 0, 64, 127
2, 37229, Note_on_c, 0, 69, 0
2, 37229, Note_on_c, 0, 60, 0
2, 37229, Note_on_c, 0, 66, 0
2, 37232, Note_on_c, 0, 39, 0
2, 37232, Note_on_c, 0, 51, 0
2, 37250, Note_on_c, 0, 72, 0
2, 37281, Note_on_c, 0, 72, 80
2, 37281, Note_on_c, 0, 80, 80
2, 37281, Note_on_c, 0, 92, 80
2, 37284, Note_on_c, 0, 51, 80
2, 37284, Note_on_c, 0, 60, 80
2, 37284, Note_on_c, 0, 66, 80
2, 37284, Note_on_c, 0, 69, 80
2, 37287, Note_on_c, 0, 39, 80
2, 37292, Note_on_c, 0, 78, 0
2, 37292, Note_on_c, 0, 90, 0
2, 37307, Control_c, 0, 64, 0
2, 37338, Note_on_c, 0, 92, 0
2, 37341, Note_on_c, 0, 80, 0
2, 37341, Note_on_c, 0, 78, 80
2, 37341, Note_on_c, 0, 90, 80
2, 37351, Note_on_c, 0, 66, 0
2, 37351, Note_on_c, 0, 69, 0
2, 37351, Note_on_c, 0, 60, 0
2, 37354, Note_on_c, 0, 51, 0
2, 37354, Note_on_c, 0, 39, 0
2, 37372, Note_on_c, 0, 72, 0
2, 37406, Note_on_c, 0, 66, 80
2, 37406, Note_on_c, 0, 72, 80
2, 37409, Note_on_c, 0, 39, 80
2, 37409, Note_on_c, 0, 51, 80
2, 37409, Note_on_c, 0, 60, 80
2, 37409, Note_on_c, 0, 69, 80
2, 37442, Control_c, 0, 64, 127
2, 37465, Note_on_c, 0, 90, 0
2, 37465, Note_on_c, 0, 78, 0
2, 37465, Note_on_c, 0, 80, 80
2, 37465, Note_on_c, 0, 92, 80
2, 37476, Note_on_c, 0, 69, 0
2, 37476, Note_on_c, 0, 66, 0
2, 37479, Note_on_c, 0, 60, 0
2, 37479, Note_on_c, 0, 39, 0
2, 37479, Note_on_c, 0, 51, 0
2, 37497, Note_on_c, 0, 72, 0
2, 37525, Note_on_c, 0, 92, 0
2, 37528, Note_on_c, 0, 80, 0
2, 37528, Note_on_c, 0, 66, 80
2, 37528, Note_on_c, 0, 72, 80
2, 37528, Note_on_c, 0, 78, 80
2, 37528, Note_on_c, 0, 90, 80
2, 37531, Note_on_c, 0, 51, 80
2, 37531, Note_on_c, 0, 60, 80
2, 37531, Note_on_c, 0, 69, 80
2, 37534, Note_on_c, 0, 39, 80
2, 37554, Control_c, 0, 64, 0
2, 37557, Note_on_c, 0, 90, 0
2, 37560, Note_on_c, 0, 78, 0
2, 37601, Note_on_c, 0, 60, 0
2, 37601, Note_on_c, 0, 66, 0
2, 37601, Note_on_c, 0, 51, 0
2, 37601, Note_on_c, 0, 69, 0
2, 37601, Note_on_c, 0, 90, 80
2, 37601, Note_on_c, 0, 78, 80
2, 37604, Note_on_c, 0, 39, 0
2, 37619, Note_on_c, 0, 72, 0
2, 37655, Note_on_c, 0, 52, 80
2, 37655, Note_on_c, 0, 61, 80
2, 37655, Note_on_c, 0, 64, 80
2, 37655, Note_on_c, 0, 69, 80
2, 37655, Note_on_c, 0, 73, 80
2, 37657, Note_on_c, 0, 40, 80
2, 37691, Control_c, 0, 64, 127
2, 37702, Note_on_c, 0, 90, 0
2, 37714, Note_on_c, 0, 78, 0
2, 37714, Note_on_c, 0, 76, 80
2, 37714, Note_on_c, 0, 88, 80
2, 37725, Note_on_c, 0, 61, 0
2, 37725, Note_on_c, 0, 64, 0
2, 37725, Note_on_c, 0, 69, 0
2, 37725, Note_on_c, 0, 52, 0
2, 37728, Note_on_c, 0, 40, 0
2, 37743, Note_on_c, 0, 73, 0
2, 37774, Note_on_c, 0, 76, 0
2, 37774, Note_on_c, 0, 88, 0
2, 37774, Note_on_c, 0, 61, 80
2, 37774, Note_on_c, 0, 64, 80
2, 37774, Note_on_c, 0, 69, 80
2, 37774, Note_on_c, 0, 73, 80
2, 37774, Note_on_c, 0, 85, 80
2, 37776, Note_on_c, 0, 40, 80
2, 37776, Note_on_c, 0, 52, 80
2, 37800, Control_c, 0, 64, 0
2, 37833, Note_on_c, 0, 85, 0
2, 37833, Note_on_c, 0, 83, 80
2, 37836, Note_on_c, 0, 71, 80
2, 37847, Note_on_c, 0, 64, 0
2, 37847, Note_on_c, 0, 69, 0
2, 37847, Note_on_c, 0, 61, 0
2, 37847, Note_on_c, 0, 52, 0
2, 37849, Note_on_c, 0, 40, 0
2, 37865, Note_on_c, 0, 73, 0
2, 37896, Note_on_c, 0, 71, 0
2, 37896, Note_on_c, 0, 83, 0
2, 37896, Note_on_c, 0, 81, 80
2, 37898, Note_on_c, 0, 55, 80
2, 37898, Note_on_c, 0, 61, 80
2, 37898, Note_on_c, 0, 64, 80
2, 37898, Note_on_c, 0, 69, 80
2, 37901, Note_on_c, 0, 43, 80
2, 37935, Control_c, 0, 64, 127
2, 37955, Note_on_c, 0, 69, 0
2, 37955, Note_on_c, 0, 81, 0
2, 37958, Note_on_c, 0, 76, 80
2, 37966, Note_on_c, 0, 88, 80
2, 37968, Note_on_c, 0, 64, 0
2, 37968, Note_on_c, 0, 61, 0
2, 37968, Note_on_c, 0, 55, 0
2, 37968, Note_on_c, 0, 43, 0
2, 38017, Note_on_c, 0, 64, 80
2, 38017, Note_on_c, 0, 69, 80
2, 38020, Note_on_c, 0, 55, 80
2, 38020, Note_on_c, 0, 61, 80
2, 38023, Note_on_c, 0, 43, 80
2, 38043, Control_c, 0, 64, 0
2, 38077, Note_on_c, 0, 88, 0
2, 38077, Note_on_c, 0, 76, 0
2, 38077, Note_on_c, 0, 74, 80
2, 38077, Note_on_c, 0, 86, 80
2, 38088, Note_on_c, 0, 64, 0
2, 38088, Note_on_c, 0, 69, 0
2, 38088, Note_on_c, 0, 55, 0
2, 38088, Note_on_c, 0, 61, 0
2, 38090, Note_on_c, 0, 43, 0
2, 38139, Note_on_c, 0, 42, 80
2, 38139, Note_on_c, 0, 54, 80
2, 38139, Note_on_c, 0, 57, 80
2, 38139, Note_on_c, 0, 62, 80
2, 38139, Note_on_c, 0, 69, 80
2, 38173, Control_c, 0, 64, 127
2, 38196, Note_on_c, 0, 74, 0
2, 38196, Note_on_c, 0, 59, 80
2, 38196, Note_on_c, 0, 71, 80
2, 38196, Note_on_c, 0, 83, 80
2, 38204, Note_on_c, 0, 62, 0
2, 38204, Note_on_c, 0, 57, 0
2, 38204, Note_on_c, 0, 54, 0
2, 38204, Note_on_c, 0, 69, 0
2, 38207, Note_on_c, 0, 42, 0
2, 38222, Note_on_c, 0, 83, 0
2, 38253, Note_on_c, 0, 83, 80
2, 38253, Note_on_c, 0, 95, 80
2, 38256, Note_on_c, 0, 71, 0
2, 38256, Note_on_c, 0, 59, 0
2, 38256, Note_on_c, 0, 62, 80
2, 38256, Note_on_c, 0, 69, 80
2, 38256, Note_on_c, 0, 74, 80
2, 38258, Note_on_c, 0, 41, 80
2, 38258, Note_on_c, 0, 53, 80
2, 38258, Note_on_c, 0, 57, 80
2, 38263, Note_on_c, 0, 86, 0
2, 38279, Control_c, 0, 64, 0
2, 38283, Note_on_c, 0, 69, 0
2, 38311, Note_on_c, 0, 83, 0
2, 38311, Note_on_c, 0, 95, 0
2, 38314, Note_on_c, 0, 81, 80
2, 38314, Note_on_c, 0, 93, 80
2, 38317, Note_on_c, 0, 69, 80
2, 38325, Note_on_c, 0, 57, 0
2, 38325, Note_on_c, 0, 62, 0
2, 38328, Note_on_c, 0, 53, 0
2, 38328, Note_on_c, 0, 41, 0
2, 38346, Note_on_c, 0, 69, 0
2, 38346, Note_on_c, 0, 81, 0
2, 38369, Note_on_c, 0, 93, 0
2, 38372, Note_on_c, 0, 85, 80
2, 38375, Note_on_c, 0, 74, 0
2, 38375, Note_on_c, 0, 52, 80
2, 38375, Note_on_c, 0, 61, 80
2, 38375, Note_on_c, 0, 64, 80
2, 38375, Note_on_c, 0, 69, 80
2, 38375, Note_on_c, 0, 73, 80
2, 38375, Note_on_c, 0, 81, 80
2, 38377, Note_on_c, 0, 40, 80
2, 38411, Control_c, 0, 64, 127
2, 38431, Note_on_c, 0, 81, 0
2, 38431, Note_on_c, 0, 85, 0
2, 38431, Note_on_c, 0, 90, 80
2, 38434, Note_on_c, 0, 73, 0
2, 38434, Note_on_c, 0, 78, 80
2, 38445, Note_on_c, 0, 69, 0
2, 38445, Note_on_c, 0, 52, 0
2, 38445, Note_on_c, 0, 64, 0
2, 38445, Note_on_c, 0, 61, 0
2, 38448, Note_on_c, 0, 40, 0
2, 38496, Note_on_c, 0, 52, 80
2, 38496, Note_on_c, 0, 61, 80
2, 38499, Note_on_c, 0, 40, 80
2, 38507, Note_on_c, 0, 64, 80
2, 38507, Note_on_c, 0, 69, 80
2, 38520, Control_c, 0, 64, 0
2, 38553, Note_on_c, 0, 78, 0
2, 38553, Note_on_c, 0, 90, 0
2, 38553, Note_on_c, 0, 88, 80
2, 38564, Note_on_c, 0, 64, 0
2, 38564, Note_on_c, 0, 69, 0
2, 38567, Note_on_c, 0, 40, 0
2, 38567, Note_on_c, 0, 61, 0
2, 38567, Note_on_c, 0, 52, 0
2, 38567, Note_on_c, 0, 76, 80
2, 38616, Note_on_c, 0, 76, 0
2, 38616, Note_on_c, 0, 88, 0
2, 38616, Note_on_c, 0, 69, 80
2, 38616, Note_on_c, 0, 75, 80
2, 38616, Note_on_c, 0, 81, 80
2, 38620, Note_on_c, 0, 42, 80
2, 38620, Note_on_c, 0, 54, 80
2, 38620, Note_on_c, 0, 59, 80
2, 38620, Note_on_c, 0, 63, 80
2, 38674, Note_on_c, 0, 83, 80
2, 38677, Note_on_c, 0, 71, 80
2, 38688, Note_on_c, 0, 63, 0
2, 38688, Note_on_c, 0, 59, 0
2, 38688, Note_on_c, 0, 54, 0
2, 38690, Note_on_c, 0, 42, 0
2, 38695, Note_on_c, 0, 81, 0
2, 38698, Note_on_c, 0, 69, 0
2, 38706, Note_on_c, 0, 71, 0
2, 38706, Note_on_c, 0, 83, 0
2, 38726, Note_on_c, 0, 75, 0
2, 38736, Note_on_c, 0, 68, 80
2, 38736, Note_on_c, 0, 71, 80
2, 38736, Note_on_c, 0, 83, 80
2, 38739, Note_on_c, 0, 52, 80
2, 38739, Note_on_c, 0, 59, 80
2, 38739, Note_on_c, 0, 62, 80
2, 38739, Note_on_c, 0, 74, 80
2, 38742, Note_on_c, 0, 40, 80
2, 38809, Note_on_c, 0, 68, 0
2, 38812, Note_on_c, 0, 59, 0
2, 38812, Note_on_c, 0, 52, 0
2, 38812, Note_on_c, 0, 62, 0
2, 38815, Note_on_c, 0, 40, 0
2, 38854, Note_on_c, 0, 74, 0
2, 38861, Note_on_c, 0, 83, 0
2, 38864, Note_on_c, 0, 71, 0
2, 38864, Note_on_c, 0, 57, 80
2, 38864, Note_on_c, 0, 61, 80
2, 38864, Note_on_c, 0, 64, 80
2, 38864, Note_on_c, 0, 69, 80
2, 38864, Note_on_c, 0, 73, 80
2, 38864, Note_on_c, 0, 81, 80
2, 38867, Note_on_c, 0, 45, 80
2, 38934, Note_on_c, 0, 81, 0
2, 38937, Note_on_c, 0, 69, 0
2, 38937, Note_on_c, 0, 61, 0
2, 38937, Note_on_c, 0, 64, 0
2, 38937, Note_on_c, 0, 57, 0
2, 38937, Note_on_c, 0, 73, 0
2, 38940, Note_on_c, 0, 45, 0
2, 38989, Note_on_c, 0, 93, 80
2, 38992, Note_on_c, 0, 69, 80
2, 38992, Note_on_c, 0, 81, 80
2, 39072, Note_on_c, 0, 93, 0
2, 39074, Note_on_c, 0, 81, 0
2, 39074, Note_on_c, 0, 69, 0
2, 39113, Note_on_c, 0, 93, 80
2, 39116, Note_on_c, 0, 69, 80
2, 39116, Note_on_c, 0, 81, 80
2, 39119, Note_on_c, 0, 50, 80
2, 39121, Note_on_c, 0, 38, 80
2, 39155, Control_c, 0, 64, 127
2, 39178, Note_on_c, 0, 81, 0
2, 39178, Note_on_c, 0, 93, 0
2, 39178, Note_on_c, 0, 69, 0
2, 39178, Note_on_c, 0, 86, 80
2, 39181, Note_on_c, 0, 62, 80
2, 39181, Note_on_c, 0, 74, 80
2, 39209, Note_on_c, 0, 62, 0
2, 39240, Note_on_c, 0, 86, 0
2, 39240, Note_on_c, 0, 74, 0
2, 39240, Note_on_c, 0, 90, 80
2, 39242, Note_on_c, 0, 50, 0
2, 39242, Note_on_c, 0, 38, 0
2, 39242, Note_on_c, 0, 57, 80
2, 39242, Note_on_c, 0, 62, 80
2, 39242, Note_on_c, 0, 66, 80
2, 39242, Note_on_c, 0, 78, 80
2, 39265, Control_c, 0, 64, 0
2, 39301, Note_on_c, 0, 78, 0
2, 39301, Note_on_c, 0, 90, 0
2, 39301, Note_on_c, 0, 71, 80
2, 39301, Note_on_c, 0, 83, 80
2, 39301, Note_on_c, 0, 95, 80
2, 39312, Note_on_c, 0, 57, 0
2, 39312, Note_on_c, 0, 66, 0
2, 39312, Note_on_c, 0, 62, 0
2, 39365, Note_on_c, 0, 55, 80
2, 39368, Note_on_c, 0, 43, 80
2, 39399, Control_c, 0, 64, 127
2, 39422, Note_on_c, 0, 95, 0
2, 39422, Note_on_c, 0, 83, 0
2, 39422, Note_on_c, 0, 85, 80
2, 39425, Note_on_c, 0, 71, 0
2, 39428, Note_on_c, 0, 73, 80
2, 39484, Note_on_c, 0, 85, 0
2, 39487, Note_on_c, 0, 55, 0
2, 39487, Note_on_c, 0, 73, 0
2, 39487, Note_on_c, 0, 59, 80
2, 39487, Note_on_c, 0, 62, 80
2, 39487, Note_on_c, 0, 67, 80
2, 39487, Note_on_c, 0, 74, 80
2, 39487, Note_on_c, 0, 86, 80
2, 39490, Note_on_c, 0, 43, 0
2, 39510, Control_c, 0, 64, 0
2, 39544, Note_on_c, 0, 86, 0
2, 39547, Note_on_c, 0, 74, 0
2, 39547, Note_on_c, 0, 76, 80
2, 39547, Note_on_c, 0, 88, 80
2, 39557, Note_on_c, 0, 67, 0
2, 39560, Note_on_c, 0, 59, 0
2, 39568, Note_on_c, 0, 62, 0
2, 39606, Note_on_c, 0, 88, 0
2, 39606, Note_on_c, 0, 90, 80
2, 39609, Note_on_c, 0, 76, 0
2, 39609, Note_on_c, 0, 50, 80
2, 39609, Note_on_c, 0, 78, 80
2, 39612, Note_on_c, 0, 38, 80
2, 39648, Control_c, 0, 64, 127
2, 39666, Note_on_c, 0, 90, 0
2, 39666, Note_on_c, 0, 93, 80
2, 39669, Note_on_c, 0, 78, 0
2, 39669, Note_on_c, 0, 81, 80
2, 39728, Note_on_c, 0, 81, 0
2, 39728, Note_on_c, 0, 93, 0
2, 39728, Note_on_c, 0, 90, 80
2, 39731, Note_on_c, 0, 62, 80
2, 39731, Note_on_c, 0, 66, 80
2, 39731, Note_on_c, 0, 78, 80
2, 39734, Note_on_c, 0, 50, 0
2, 39734, Note_on_c, 0, 38, 0
2, 39734, Note_on_c, 0, 57, 80
2, 39754, Control_c, 0, 64, 0
2, 39788, Note_on_c, 0, 90, 0
2, 39791, Note_on_c, 0, 78, 0
2, 39791, Note_on_c, 0, 76, 80
2, 39791, Note_on_c, 0, 88, 80
2, 39801, Note_on_c, 0, 62, 0
2, 39801, Note_on_c, 0, 57, 0
2, 39801, Note_on_c, 0, 66, 0
2, 39850, Note_on_c, 0, 88, 0
2, 39853, Note_on_c, 0, 76, 0
2, 39853, Note_on_c, 0, 74, 80
2, 39853, Note_on_c, 0, 86, 80
2, 39856, Note_on_c, 0, 42, 80
2, 39856, Note_on_c, 0, 54, 80
2, 39891, Control_c, 0, 64, 127
2, 39910, Note_on_c, 0, 86, 0
2, 39912, Note_on_c, 0, 74, 0
2, 39912, Note_on_c, 0, 71, 80
2, 39912, Note_on_c, 0, 83, 80
2, 39946, Note_on_c, 0, 54, 0
2, 39974, Note_on_c, 0, 42, 0
2, 39974, Note_on_c, 0, 71, 0
2, 39974, Note_on_c, 0, 83, 0
2, 39974, Note_on_c, 0, 81, 80
2, 39974, Note_on_c, 0, 54, 80
2, 39974, Note_on_c, 0, 57, 80
2, 39974, Note_on_c, 0, 62, 80
2, 39974, Note_on_c, 0, 66, 80
2, 39974, Note_on_c, 0, 69, 80
2, 39997, Control_c, 0, 64, 0
2, 40002, Note_on_c, 0, 66, 0
2, 40032, Note_on_c, 0, 81, 0
2, 40032, Note_on_c, 0, 69, 0
2, 40035, Note_on_c, 0, 66, 80
2, 40035, Note_on_c, 0, 78, 80
2, 40043, Note_on_c, 0, 54, 0
2, 40043, Note_on_c, 0, 57, 0
2, 40043, Note_on_c, 0, 62, 0
2, 40061, Note_on_c, 0, 78, 0
2, 40092, Note_on_c, 0, 85, 80
2, 40092, Note_on_c, 0, 90, 80
2, 40095, Note_on_c, 0, 66, 0
2, 40095, Note_on_c, 0, 73, 80
2, 40095, Note_on_c, 0, 78, 80
2, 40098, Note_on_c, 0, 33, 80
2, 40098, Note_on_c, 0, 45, 80
2, 40131, Control_c, 0, 64, 127
2, 40152, Note_on_c, 0, 90, 0
2, 40152, Note_on_c, 0, 85, 0
2, 40154, Note_on_c, 0, 78, 0
2, 40154, Note_on_c, 0, 73, 0
2, 40154, Note_on_c, 0, 81, 80
2, 40154, Note_on_c, 0, 88, 80
2, 40157, Note_on_c, 0, 69, 80
2, 40157, Note_on_c, 0, 76, 80
2, 40217, Note_on_c, 0, 45, 0
2, 40217, Note_on_c, 0, 33, 0
2, 40217, Note_on_c, 0, 55, 80
2, 40217, Note_on_c, 0, 57, 80
2, 40217, Note_on_c, 0, 61, 80
2, 40217, Note_on_c, 0, 67, 80
2, 40240, Control_c, 0, 64, 0
2, 40243, Note_on_c, 0, 67, 0
2, 40271, Note_on_c, 0, 88, 0
2, 40271, Note_on_c, 0, 81, 0
2, 40273, Note_on_c, 0, 76, 0
2, 40273, Note_on_c, 0, 69, 0
2, 40273, Note_on_c, 0, 67, 80
2, 40273, Note_on_c, 0, 73, 80
2, 40273, Note_on_c, 0, 79, 80
2, 40284, Note_on_c, 0, 57, 0
2, 40284, Note_on_c, 0, 55, 0
2, 40284, Note_on_c, 0, 61, 0
2, 40338, Note_on_c, 0, 37, 80
2, 40338, Note_on_c, 0, 49, 80
2, 40364, Note_on_c, 0, 73, 0
2, 40371, Control_c, 0, 64, 127
2, 40392, Note_on_c, 0, 79, 0
2, 40392, Note_on_c, 0, 90, 80
2, 40394, Note_on_c, 0, 67, 0
2, 40394, Note_on_c, 0, 73, 80
2, 40394, Note_on_c, 0, 78, 80
2, 40394, Note_on_c, 0, 85, 80
2, 40454, Note_on_c, 0, 49, 0
2, 40454, Note_on_c, 0, 55, 80
2, 40454, Note_on_c, 0, 57, 80
2, 40454, Note_on_c, 0, 61, 80
2, 40454, Note_on_c, 0, 67, 80
2, 40457, Note_on_c, 0, 37, 0
2, 40477, Control_c, 0, 64, 0
2, 40511, Note_on_c, 0, 90, 0
2, 40511, Note_on_c, 0, 85, 0
2, 40513, Note_on_c, 0, 73, 0
2, 40513, Note_on_c, 0, 78, 0
2, 40513, Note_on_c, 0, 76, 80
2, 40513, Note_on_c, 0, 88, 80
2, 40524, Note_on_c, 0, 57, 0
2, 40524, Note_on_c, 0, 55, 0
2, 40524, Note_on_c, 0, 67, 0
2, 40524, Note_on_c, 0, 61, 0
2, 40542, Note_on_c, 0, 88, 0
2, 40545, Note_on_c, 0, 76, 0
2, 40573, Note_on_c, 0, 76, 80
2, 40573, Note_on_c, 0, 88, 80
2, 40576, Note_on_c, 0, 50, 80
2, 40579, Note_on_c, 0, 38, 80
2, 40612, Control_c, 0, 64, 127
2, 40635, Note_on_c, 0, 88, 0
2, 40635, Note_on_c, 0, 76, 0
2, 40638, Note_on_c, 0, 66, 80
2, 40638, Note_on_c, 0, 74, 80
2, 40638, Note_on_c, 0, 78, 80
2, 40638, Note_on_c, 0, 86, 80
2, 40669, Note_on_c, 0, 66, 0
2, 40700, Note_on_c, 0, 50, 0
2, 40700, Note_on_c, 0, 54, 80
2, 40700, Note_on_c, 0, 62, 80
2, 40700, Note_on_c, 0, 66, 80
2, 40703, Note_on_c, 0, 38, 0
2, 40703, Note_on_c, 0, 57, 80
2, 40723, Control_c, 0, 64, 0
2, 40728, Note_on_c, 0, 78, 0
2, 40730, Note_on_c, 0, 74, 0
2, 40730, Note_on_c, 0, 66, 0
2, 40758, Note_on_c, 0, 86, 0
2, 40761, Note_on_c, 0, 66, 80
2, 40761, Note_on_c, 0, 74, 80
2, 40761, Note_on_c, 0, 78, 80
2, 40772, Note_on_c, 0, 57, 0
2, 40772, Note_on_c, 0, 54, 0
2, 40821, Note_on_c, 0, 38, 80
2, 40821, Note_on_c, 0, 50, 80
2, 40880, Note_on_c, 0, 74, 0
2, 40880, Note_on_c, 0, 66, 0
2, 40880, Note_on_c, 0, 78, 0
2, 40880, Note_on_c, 0, 71, 80
2, 40880, Note_on_c, 0, 76, 80
2, 40880, Note_on_c, 0, 83, 80
2, 40880, Note_on_c, 0, 88, 80
2, 40891, Note_on_c, 0, 62, 0
2, 40909, Note_on_c, 0, 83, 0
2, 40912, Note_on_c, 0, 71, 0
2, 40940, Note_on_c, 0, 86, 80
2, 40943, Note_on_c, 0, 50, 0
2, 40943, Note_on_c, 0, 47, 80
2, 40943, Note_on_c, 0, 54, 80
2, 40943, Note_on_c, 0, 59, 80
2, 40943, Note_on_c, 0, 62, 80
2, 40943, Note_on_c, 0, 66, 80
2, 40943, Note_on_c, 0, 71, 80
2, 40943, Note_on_c, 0, 74, 80
2, 40943, Note_on_c, 0, 83, 80
2, 40945, Note_on_c, 0, 38, 0
2, 40948, Note_on_c, 0, 35, 80
2, 40953, Note_on_c, 0, 76, 0
2, 40961, Note_on_c, 0, 88, 0
2, 41013, Note_on_c, 0, 62, 0
2, 41013, Note_on_c, 0, 66, 0
2, 41013, Note_on_c, 0, 59, 0
2, 41016, Note_on_c, 0, 54, 0
2, 41062, Note_on_c, 0, 71, 0
2, 41062, Note_on_c, 0, 86, 0
2, 41062, Note_on_c, 0, 74, 0
2, 41062, Note_on_c, 0, 83, 0
2, 41064, Note_on_c, 0, 47, 0
2, 41064, Note_on_c, 0, 73, 80
2, 41064, Note_on_c, 0, 85, 80
2, 41067, Note_on_c, 0, 35, 0
2, 41067, Note_on_c, 0, 37, 80
2, 41067, Note_on_c, 0, 49, 80
2, 41124, Note_on_c, 0, 85, 0
2, 41127, Note_on_c, 0, 73, 0
2, 41127, Note_on_c, 0, 81, 80
2, 41130, Note_on_c, 0, 69, 80
2, 41160, Note_on_c, 0, 69, 0
2, 41188, Note_on_c, 0, 81, 0
2, 41188, Note_on_c, 0, 85, 80
2, 41191, Note_on_c, 0, 49, 0
2, 41191, Note_on_c, 0, 61, 80
2, 41191, Note_on_c, 0, 66, 80
2, 41191, Note_on_c, 0, 69, 80
2, 41191, Note_on_c, 0, 73, 80
2, 41194, Note_on_c, 0, 37, 0
2, 41194, Note_on_c, 0, 57, 80
2, 41222, Note_on_c, 0, 61, 0
2, 41250, Note_on_c, 0, 69, 0
2, 41250, Note_on_c, 0, 66, 0
2, 41250, Note_on_c, 0, 85, 0
2, 41250, Note_on_c, 0, 73, 0
2, 41250, Note_on_c, 0, 83, 80
2, 41250, Note_on_c, 0, 86, 80
2, 41253, Note_on_c, 0, 57, 0
2, 41253, Note_on_c, 0, 59, 80
2, 41253, Note_on_c, 0, 61, 80
2, 41253, Note_on_c, 0, 65, 80
2, 41253, Note_on_c, 0, 71, 80
2, 41253, Note_on_c, 0, 74, 80
2, 41312, Note_on_c, 0, 44, 80
2, 41312, Note_on_c, 0, 56, 80
2, 41338, Note_on_c, 0, 65, 0
2, 41366, Note_on_c, 0, 86, 0
2, 41366, Note_on_c, 0, 83, 0
2, 41369, Note_on_c, 0, 71, 0
2, 41369, Note_on_c, 0, 59, 0
2, 41369, Note_on_c, 0, 61, 0
2, 41369, Note_on_c, 0, 74, 0
2, 41369, Note_on_c, 0, 65, 80
2, 41369, Note_on_c, 0, 77, 80
2, 41397, Note_on_c, 0, 77, 0
2, 41400, Note_on_c, 0, 65, 0
2, 41430, Note_on_c, 0, 44, 0
2, 41430, Note_on_c, 0, 56, 0
2, 41430, Note_on_c, 0, 61, 80
2, 41430, Note_on_c, 0, 65, 80
2, 41430, Note_on_c, 0, 71, 80
2, 41430, Note_on_c, 0, 73, 80
2, 41430, Note_on_c, 0, 77, 80
2, 41430, Note_on_c, 0, 85, 80
2, 41433, Note_on_c, 0, 37, 80
2, 41433, Note_on_c, 0, 49, 80
2, 41500, Note_on_c, 0, 71, 0
2, 41500, Note_on_c, 0, 61, 0
2, 41500, Note_on_c, 0, 65, 0
2, 41516, Note_on_c, 0, 77, 0
2, 41516, Note_on_c, 0, 85, 0
2, 41519, Note_on_c, 0, 73, 0
2, 41546, Note_on_c, 0, 85, 80
2, 41549, Note_on_c, 0, 49, 0
2, 41549, Note_on_c, 0, 54, 80
2, 41549, Note_on_c, 0, 57, 80
2, 41549, Note_on_c, 0, 61, 80
2, 41549, Note_on_c, 0, 66, 80
2, 41549, Note_on_c, 0, 69, 80
2, 41549, Note_on_c, 0, 73, 80
2, 41552, Note_on_c, 0, 37, 0
2, 41552, Note_on_c, 0, 42, 80
2, 41578, Note_on_c, 0, 69, 0
2, 41606, Note_on_c, 0, 73, 0
2, 41606, Note_on_c, 0, 85, 0
2, 41606, Note_on_c, 0, 81, 80
2, 41609, Note_on_c, 0, 69, 80
2, 41668, Note_on_c, 0, 81, 0
2, 41668, Note_on_c, 0, 73, 80
2, 41668, Note_on_c, 0, 85, 80
2, 41671, Note_on_c, 0, 54, 0
2, 41671, Note_on_c, 0, 66, 0
2, 41671, Note_on_c, 0, 42, 0
2, 41671, Note_on_c, 0, 57, 0
2, 41671, Note_on_c, 0, 61, 0
2, 41671, Note_on_c, 0, 69, 0
2, 41671, Note_on_c, 0, 52, 80
2, 41674, Note_on_c, 0, 40, 80
2, 41731, Note_on_c, 0, 85, 0
2, 41731, Note_on_c, 0, 73, 0
2, 41734, Note_on_c, 0, 54, 80
2, 41734, Note_on_c, 0, 57, 80
2, 41734, Note_on_c, 0, 60, 80
2, 41734, Note_on_c, 0, 66, 80
2, 41734, Note_on_c, 0, 69, 80
2, 41734, Note_on_c, 0, 72, 80
2, 41734, Note_on_c, 0, 78, 80
2, 41734, Note_on_c, 0, 84, 80
2, 41793, Note_on_c, 0, 52, 0
2, 41793, Note_on_c, 0, 40, 0
2, 41793, Note_on_c, 0, 51, 80
2, 41796, Note_on_c, 0, 39, 80
2, 41814, Note_on_c, 0, 69, 0
2, 41845, Note_on_c, 0, 69, 80
2, 41863, Note_on_c, 0, 60, 0
2, 41863, Note_on_c, 0, 66, 0
2, 41866, Note_on_c, 0, 57, 0
2, 41866, Note_on_c, 0, 54, 0
2, 41884, Note_on_c, 0, 69, 0
2, 41912, Note_on_c, 0, 83, 80
2, 41915, Note_on_c, 0, 78, 0
2, 41915, Note_on_c, 0, 72, 0
2, 41915, Note_on_c, 0, 84, 0
2, 41915, Note_on_c, 0, 59, 80
2, 41915, Note_on_c, 0, 65, 80
2, 41915, Note_on_c, 0, 69, 80
2, 41915, Note_on_c, 0, 71, 80
2, 41915, Note_on_c, 0, 77, 80
2, 41918, Note_on_c, 0, 39, 0
2, 41918, Note_on_c, 0, 51, 0
2, 41918, Note_on_c, 0, 38, 80
2, 41918, Note_on_c, 0, 50, 80
2, 41918, Note_on_c, 0, 57, 80
2, 41949, Note_on_c, 0, 69, 0
2, 41979, Note_on_c, 0, 69, 80
2, 42010, Note_on_c, 0, 69, 0
2, 42038, Note_on_c, 0, 77, 0
2, 42038, Note_on_c, 0, 83, 0
2, 42041, Note_on_c, 0, 50, 0
2, 42041, Note_on_c, 0, 59, 0
2, 42041, Note_on_c, 0, 65, 0
2, 42041, Note_on_c, 0, 57, 0
2, 42041, Note_on_c, 0, 71, 0
2, 42041, Note_on_c, 0, 61, 80
2, 42041, Note_on_c, 0, 64, 80
2, 42041, Note_on_c, 0, 69, 80
2, 42041, Note_on_c, 0, 81, 80
2, 42044, Note_on_c, 0, 38, 0
2, 42044, Note_on_c, 0, 37, 80
2, 42044, Note_on_c, 0, 49, 80
2, 42103, Note_on_c, 0, 88, 80
2, 42106, Note_on_c, 0, 76, 80
2, 42124, Note_on_c, 0, 81, 0
2, 42127, Note_on_c, 0, 69, 0
2, 42127, Note_on_c, 0, 61, 0
2, 42127, Note_on_c, 0, 64, 0
2, 42168, Note_on_c, 0, 77, 80
2, 42171, Note_on_c, 0, 37, 0
2, 42171, Note_on_c, 0, 49, 0
2, 42171, Note_on_c, 0, 48, 80
2, 42171, Note_on_c, 0, 60, 80
2, 42171, Note_on_c, 0, 65, 80
2, 42171, Note_on_c, 0, 69, 80
2, 42171, Note_on_c, 0, 81, 80
2, 42171, Note_on_c, 0, 89, 80
2, 42174, Note_on_c, 0, 36, 80
2, 42179, Note_on_c, 0, 76, 0
2, 42179, Note_on_c, 0, 88, 0
2, 42239, Note_on_c, 0, 60, 0
2, 42241, Note_on_c, 0, 69, 0
2, 42241, Note_on_c, 0, 65, 0
2, 42293, Note_on_c, 0, 48, 0
2, 42293, Note_on_c, 0, 62, 80
2, 42293, Note_on_c, 0, 65, 80
2, 42293, Note_on_c, 0, 68, 80
2, 42293, Note_on_c, 0, 80, 80
2, 42296, Note_on_c, 0, 36, 0
2, 42296, Note_on_c, 0, 47, 80
2, 42296, Note_on_c, 0, 56, 80
2, 42299, Note_on_c, 0, 35, 80
2, 42304, Note_on_c, 0, 81, 0
2, 42363, Note_on_c, 0, 56, 0
2, 42363, Note_on_c, 0, 62, 0
2, 42363, Note_on_c, 0, 68, 0
2, 42363, Note_on_c, 0, 65, 0
2, 42415, Note_on_c, 0, 89, 0
2, 42415, Note_on_c, 0, 35, 0
2, 42415, Note_on_c, 0, 77, 0
2, 42415, Note_on_c, 0, 80, 0
2, 42415, Note_on_c, 0, 47, 0
2, 42415, Note_on_c, 0, 62, 80
2, 42415, Note_on_c, 0, 64, 80
2, 42415, Note_on_c, 0, 67, 80
2, 42415, Note_on_c, 0, 76, 80
2, 42415, Note_on_c, 0, 79, 80
2, 42415, Note_on_c, 0, 88, 80
2, 42415, Note_on_c, 0, 46, 80
2, 42415, Note_on_c, 0, 55, 80
2, 42418, Note_on_c, 0, 34, 80
2, 42485, Note_on_c, 0, 55, 0
2, 42485, Note_on_c, 0, 67, 0
2, 42485, Note_on_c, 0, 62, 0
2, 42485, Note_on_c, 0, 64, 0
2, 42501, Note_on_c, 0, 79, 0
2, 42501, Note_on_c, 0, 88, 0
2, 42504, Note_on_c, 0, 76, 0
2, 42534, Note_on_c, 0, 46, 0
2, 42534, Note_on_c, 0, 45, 80
2, 42534, Note_on_c, 0, 61, 80
2, 42534, Note_on_c, 0, 64, 80
2, 42534, Note_on_c, 0, 67, 80
2, 42534, Note_on_c, 0, 73, 80
2, 42534, Note_on_c, 0, 76, 80
2, 42534, Note_on_c, 0, 88, 80
2, 42537, Note_on_c, 0, 34, 0
2, 42537, Note_on_c, 0, 33, 80
2, 42601, Note_on_c, 0, 67, 0
2, 42601, Note_on_c, 0, 64, 0
2, 42601, Note_on_c, 0, 61, 0
2, 42650, Note_on_c, 0, 73, 0
2, 42650, Note_on_c, 0, 88, 0
2, 42650, Note_on_c, 0, 76, 0
2, 42650, Note_on_c, 0, 93, 80
2, 42653, Note_on_c, 0, 33, 0
2, 42653, Note_on_c, 0, 45, 0
2, 42653, Note_on_c, 0, 43, 80
2, 42653, Note_on_c, 0, 55, 80
2, 42653, Note_on_c, 0, 61, 80
2, 42653, Note_on_c, 0, 64, 80
2, 42653, Note_on_c, 0, 69, 80
2, 42653, Note_on_c, 0, 81, 80
2, 42710, Note_on_c, 0, 93, 0
2, 42710, Note_on_c, 0, 85, 80
2, 42713, Note_on_c, 0, 81, 0
2, 42713, Note_on_c, 0, 73, 80
2, 42723, Note_on_c, 0, 64, 0
2, 42723, Note_on_c, 0, 61, 0
2, 42723, Note_on_c, 0, 69, 0
2, 42772, Note_on_c, 0, 85, 0
2, 42772, Note_on_c, 0, 73, 0
2, 42772, Note_on_c, 0, 55, 0
2, 42772, Note_on_c, 0, 64, 80
2, 42772, Note_on_c, 0, 88, 80
2, 42775, Note_on_c, 0, 43, 0
2, 42775, Note_on_c, 0, 42, 80
2, 42775, Note_on_c, 0, 54, 80
2, 42775, Note_on_c, 0, 76, 80
2, 42803, Note_on_c, 0, 64, 0
2, 42834, Note_on_c, 0, 88, 0
2, 42834, Note_on_c, 0, 93, 80
2, 42837, Note_on_c, 0, 76, 0
2, 42837, Note_on_c, 0, 61, 80
2, 42837, Note_on_c, 0, 64, 80
2, 42837, Note_on_c, 0, 69, 80
2, 42837, Note_on_c, 0, 81, 80
2, 42896, Note_on_c, 0, 54, 0
2, 42896, Note_on_c, 0, 42, 0
2, 42899, Note_on_c, 0, 52, 80
2, 42902, Note_on_c, 0, 40, 80
2, 42917, Note_on_c, 0, 64, 0
2, 42917, Note_on_c, 0, 61, 0
2, 42917, Note_on_c, 0, 69, 0
2, 42928, Note_on_c, 0, 93, 0
2, 42931, Note_on_c, 0, 81, 0
2, 42961, Note_on_c, 0, 81, 80
2, 42961, Note_on_c, 0, 93, 80
2, 42964, Note_on_c, 0, 61, 80
2, 42964, Note_on_c, 0, 64, 80
2, 42964, Note_on_c, 0, 69, 80
2, 43024, Note_on_c, 0, 69, 0
2, 43024, Note_on_c, 0, 61, 0
2, 43024, Note_on_c, 0, 52, 0
2, 43024, Note_on_c, 0, 64, 0
2, 43027, Note_on_c, 0, 40, 0
2, 43027, Note_on_c, 0, 38, 80
2, 43027, Note_on_c, 0, 50, 80
2, 43062, Control_c, 0, 64, 127
2, 43082, Note_on_c, 0, 93, 0
2, 43085, Note_on_c, 0, 81, 0
2, 43085, Note_on_c, 0, 62, 80
2, 43085, Note_on_c, 0, 74, 80
2, 43085, Note_on_c, 0, 86, 80
2, 43116, Note_on_c, 0, 62, 0
2, 43147, Note_on_c, 0, 86, 0
2, 43147, Note_on_c, 0, 90, 80
2, 43150, Note_on_c, 0, 74, 0
2, 43150, Note_on_c, 0, 50, 0
2, 43150, Note_on_c, 0, 62, 80
2, 43150, Note_on_c, 0, 66, 80
2, 43150, Note_on_c, 0, 78, 80
2, 43152, Note_on_c, 0, 38, 0
2, 43152, Note_on_c, 0, 54, 80
2, 43152, Note_on_c, 0, 57, 80
2, 43173, Control_c, 0, 64, 0
2, 43208, Note_on_c, 0, 90, 0
2, 43208, Note_on_c, 0, 78, 0
2, 43208, Note_on_c, 0, 83, 80
2, 43208, Note_on_c, 0, 95, 80
2, 43211, Note_on_c, 0, 71, 80
2, 43229, Note_on_c, 0, 66, 0
2, 43229, Note_on_c, 0, 62, 0
2, 43232, Note_on_c, 0, 54, 0
2, 43232, Note_on_c, 0, 57, 0
2, 43273, Note_on_c, 0, 43, 80
2, 43273, Note_on_c, 0, 55, 80
2, 43307, Control_c, 0, 64, 127
2, 43327, Note_on_c, 0, 83, 0
2, 43327, Note_on_c, 0, 95, 0
2, 43330, Note_on_c, 0, 71, 0
2, 43330, Note_on_c, 0, 73, 80
2, 43330, Note_on_c, 0, 85, 80
2, 43361, Note_on_c, 0, 55, 0
2, 43389, Note_on_c, 0, 85, 0
2, 43389, Note_on_c, 0, 73, 0
2, 43389, Note_on_c, 0, 86, 80
2, 43392, Note_on_c, 0, 43, 0
2, 43392, Note_on_c, 0, 55, 80
2, 43392, Note_on_c, 0, 59, 80
2, 43392, Note_on_c, 0, 62, 80
2, 43392, Note_on_c, 0, 67, 80
2, 43392, Note_on_c, 0, 74, 80
2, 43412, Control_c, 0, 64, 0
2, 43447, Note_on_c, 0, 86, 0
2, 43450, Note_on_c, 0, 74, 0
2, 43450, Note_on_c, 0, 76, 80
2, 43450, Note_on_c, 0, 88, 80
2, 43458, Note_on_c, 0, 62, 0
2, 43458, Note_on_c, 0, 67, 0
2, 43458, Note_on_c, 0, 55, 0
2, 43458, Note_on_c, 0, 59, 0
2, 43510, Note_on_c, 0, 88, 0
2, 43510, Note_on_c, 0, 76, 0
2, 43510, Note_on_c, 0, 78, 80
2, 43510, Note_on_c, 0, 90, 80
2, 43512, Note_on_c, 0, 38, 80
2, 43512, Note_on_c, 0, 50, 80
2, 43546, Control_c, 0, 64, 127
2, 43569, Note_on_c, 0, 90, 0
2, 43572, Note_on_c, 0, 78, 0
2, 43572, Note_on_c, 0, 81, 80
2, 43572, Note_on_c, 0, 93, 80
2, 43629, Note_on_c, 0, 93, 0
2, 43632, Note_on_c, 0, 81, 0
2, 43632, Note_on_c, 0, 50, 0
2, 43632, Note_on_c, 0, 62, 80
2, 43632, Note_on_c, 0, 66, 80
2, 43632, Note_on_c, 0, 78, 80
2, 43632, Note_on_c, 0, 90, 80
2, 43634, Note_on_c, 0, 38, 0
2, 43634, Note_on_c, 0, 54, 80
2, 43634, Note_on_c, 0, 57, 80
2, 43655, Control_c, 0, 64, 0
2, 43690, Note_on_c, 0, 78, 0
2, 43690, Note_on_c, 0, 90, 0
2, 43690, Note_on_c, 0, 76, 80
2, 43690, Note_on_c, 0, 88, 80
2, 43701, Note_on_c, 0, 62, 0
2, 43701, Note_on_c, 0, 66, 0
2, 43704, Note_on_c, 0, 54, 0
2, 43704, Note_on_c, 0, 57, 0
2, 43750, Note_on_c, 0, 88, 0
2, 43750, Note_on_c, 0, 76, 0
2, 43750, Note_on_c, 0, 86, 80
2, 43752, Note_on_c, 0, 42, 80
2, 43752, Note_on_c, 0, 54, 80
2, 43752, Note_on_c, 0, 74, 80
2, 43786, Control_c, 0, 64, 127
2, 43809, Note_on_c, 0, 86, 0
2, 43812, Note_on_c, 0, 74, 0
2, 43812, Note_on_c, 0, 71, 80
2, 43812, Note_on_c, 0, 83, 80
2, 43832, Note_on_c, 0, 54, 0
2, 43868, Note_on_c, 0, 83, 0
2, 43871, Note_on_c, 0, 71, 0
2, 43871, Note_on_c, 0, 42, 0
2, 43871, Note_on_c, 0, 54, 80
2, 43871, Note_on_c, 0, 57, 80
2, 43871, Note_on_c, 0, 62, 80
2, 43871, Note_on_c, 0, 66, 80
2, 43871, Note_on_c, 0, 69, 80
2, 43871, Note_on_c, 0, 81, 80
2, 43891, Control_c, 0, 64, 0
2, 43898, Note_on_c, 0, 66, 0
2, 43929, Note_on_c, 0, 81, 0
2, 43929, Note_on_c, 0, 79, 80
2, 43932, Note_on_c, 0, 69, 0
2, 43932, Note_on_c, 0, 67, 80
2, 43940, Note_on_c, 0, 62, 0
2, 43940, Note_on_c, 0, 57, 0
2, 43943, Note_on_c, 0, 54, 0
2, 43992, Note_on_c, 0, 67, 0
2, 43992, Note_on_c, 0, 79, 0
2, 43992, Note_on_c, 0, 66, 80
2, 43992, Note_on_c, 0, 78, 80
2, 43994, Note_on_c, 0, 42, 80
2, 43994, Note_on_c, 0, 54, 80
2, 44022, Note_on_c, 0, 78, 0
2, 44025, Control_c, 0, 64, 127
2, 44051, Note_on_c, 0, 66, 0
2, 44051, Note_on_c, 0, 78, 80
2, 44051, Note_on_c, 0, 82, 80
2, 44054, Note_on_c, 0, 70, 80
2, 44111, Note_on_c, 0, 54, 0
2, 44113, Note_on_c, 0, 42, 0
2, 44113, Note_on_c, 0, 58, 80
2, 44113, Note_on_c, 0, 61, 80
2, 44113, Note_on_c, 0, 64, 80
2, 44113, Note_on_c, 0, 66, 80
2, 44132, Control_c, 0, 64, 0
2, 44142, Note_on_c, 0, 78, 0
2, 44170, Note_on_c, 0, 82, 0
2, 44173, Note_on_c, 0, 70, 0
2, 44173, Note_on_c, 0, 73, 80
2, 44173, Note_on_c, 0, 78, 80
2, 44173, Note_on_c, 0, 85, 80
2, 44181, Note_on_c, 0, 61, 0
2, 44181, Note_on_c, 0, 66, 0
2, 44181, Note_on_c, 0, 58, 0
2, 44181, Note_on_c, 0, 64, 0
2, 44201, Note_on_c, 0, 85, 0
2, 44201, Note_on_c, 0, 78, 0
2, 44232, Note_on_c, 0, 73, 0
2, 44232, Note_on_c, 0, 76, 80
2, 44232, Note_on_c, 0, 78, 80
2, 44232, Note_on_c, 0, 85, 80
2, 44232, Note_on_c, 0, 90, 80
2, 44234, Note_on_c, 0, 42, 80
2, 44234, Note_on_c, 0, 54, 80
2, 44268, Control_c, 0, 64, 127
2, 44314, Note_on_c, 0, 90, 0
2, 44314, Note_on_c, 0, 85, 0
2, 44317, Note_on_c, 0, 76, 0
2, 44317, Note_on_c, 0, 78, 0
2, 44355, Note_on_c, 0, 54, 0
2, 44355, Note_on_c, 0, 42, 0
2, 44355, Note_on_c, 0, 58, 80
2, 44355, Note_on_c, 0, 61, 80
2, 44355, Note_on_c, 0, 64, 80
2, 44355, Note_on_c, 0, 66, 80
2, 44355, Note_on_c, 0, 76, 80
2, 44355, Note_on_c, 0, 78, 80
2, 44355, Note_on_c, 0, 85, 80
2, 44355, Note_on_c, 0, 90, 80
2, 44376, Control_c, 0, 64, 0
2, 44383, Note_on_c, 0, 90, 0
2, 44383, Note_on_c, 0, 85, 0
2, 44383, Note_on_c, 0, 76, 0
2, 44383, Note_on_c, 0, 78, 0
2, 44409, Note_on_c, 0, 76, 80
2, 44409, Note_on_c, 0, 78, 80
2, 44409, Note_on_c, 0, 85, 80
2, 44409, Note_on_c, 0, 90, 80
2, 44420, Note_on_c, 0, 64, 0
2, 44420, Note_on_c, 0, 58, 0
2, 44420, Note_on_c, 0, 66, 0
2, 44420, Note_on_c, 0, 61, 0
2, 44472, Note_on_c, 0, 47, 80
2, 44474, Note_on_c, 0, 35, 80
2, 44502, Control_c, 0, 64, 127
2, 44530, Note_on_c, 0, 76, 0
2, 44530, Note_on_c, 0, 85, 0
2, 44530, Note_on_c, 0, 90, 0
2, 44530, Note_on_c, 0, 78, 0
2, 44530, Note_on_c, 0, 70, 80
2, 44530, Note_on_c, 0, 82, 80
2, 44590, Note_on_c, 0, 82, 0
2, 44590, Note_on_c, 0, 83, 80
2, 44592, Note_on_c, 0, 70, 0
2, 44592, Note_on_c, 0, 35, 0
2, 44592, Note_on_c, 0, 59, 80
2, 44592, Note_on_c, 0, 62, 80
2, 44592, Note_on_c, 0, 66, 80
2, 44592, Note_on_c, 0, 71, 80
2, 44600, Note_on_c, 0, 47, 0
2, 44611, Control_c, 0, 64, 0
2, 44652, Note_on_c, 0, 83, 0
2, 44652, Note_on_c, 0, 71, 0
2, 44652, Note_on_c, 0, 73, 80
2, 44652, Note_on_c, 0, 85, 80
2, 44663, Note_on_c, 0, 62, 0
2, 44663, Note_on_c, 0, 59, 0
2, 44663, Note_on_c, 0, 66, 0
2, 44714, Note_on_c, 0, 73, 0
2, 44714, Note_on_c, 0, 85, 0
2, 44714, Note_on_c, 0, 47, 80
2, 44714, Note_on_c, 0, 59, 80
2, 44714, Note_on_c, 0, 74, 80
2, 44714, Note_on_c, 0, 86, 80
2, 44776, Note_on_c, 0, 86, 0
2, 44776, Note_on_c, 0, 74, 0
2, 44776, Note_on_c, 0, 88, 80
2, 44779, Note_on_c, 0, 76, 80
2, 44835, Note_on_c, 0, 76, 0
2, 44835, Note_on_c, 0, 47, 0
2, 44835, Note_on_c, 0, 59, 0
2, 44835, Note_on_c, 0, 88, 0
2, 44835, Note_on_c, 0, 60, 80
2, 44835, Note_on_c, 0, 66, 80
2, 44835, Note_on_c, 0, 72, 80
2, 44835, Note_on_c, 0, 78, 80
2, 44835, Note_on_c, 0, 84, 80
2, 44835, Note_on_c, 0, 90, 80
2, 44838, Note_on_c, 0, 45, 80
2, 44838, Note_on_c, 0, 57, 80
2, 44905, Note_on_c, 0, 66, 0
2, 44908, Note_on_c, 0, 60, 0
2, 44927, Note_on_c, 0, 78, 0
2, 44927, Note_on_c, 0, 72, 0
2, 44927, Note_on_c, 0, 84, 0
2, 44927, Note_on_c, 0, 90, 0
2, 44957, Note_on_c, 0, 57, 0
2, 44957, Note_on_c, 0, 45, 0
2, 44957, Note_on_c, 0, 83, 80
2, 44957, Note_on_c, 0, 90, 80
2, 44960, Note_on_c, 0, 43, 80
2, 44960, Note_on_c, 0, 55, 80
2, 44960, Note_on_c, 0, 71, 80
2, 44960, Note_on_c, 0, 78, 80
2, 45081, Note_on_c, 0, 55, 0
2, 45081, Note_on_c, 0, 43, 0
2, 45084, Note_on_c, 0, 59, 80
2, 45084, Note_on_c, 0, 62, 80
2, 45084, Note_on_c, 0, 67, 80
2, 45144, Note_on_c, 0, 71, 0
2, 45144, Note_on_c, 0, 90, 0
2, 45144, Note_on_c, 0, 83, 0
2, 45144, Note_on_c, 0, 78, 0
2, 45144, Note_on_c, 0, 76, 80
2, 45144, Note_on_c, 0, 88, 80
2, 45154, Note_on_c, 0, 67, 0
2, 45154, Note_on_c, 0, 62, 0
2, 45154, Note_on_c, 0, 59, 0
2, 45208, Note_on_c, 0, 76, 0
2, 45208, Note_on_c, 0, 88, 0
2, 45208, Note_on_c, 0, 47, 80
2, 45208, Note_on_c, 0, 59, 80
2, 45208, Note_on_c, 0, 74, 80
2, 45208, Note_on_c, 0, 86, 80
2, 45264, Note_on_c, 0, 86, 0
2, 45264, Note_on_c, 0, 74, 0
2, 45264, Note_on_c, 0, 71, 80
2, 45264, Note_on_c, 0, 83, 80
2, 45326, Note_on_c, 0, 83, 0
2, 45326, Note_on_c, 0, 47, 0
2, 45326, Note_on_c, 0, 59, 0
2, 45326, Note_on_c, 0, 71, 0
2, 45326, Note_on_c, 0, 58, 80
2, 45326, Note_on_c, 0, 62, 80
2, 45326, Note_on_c, 0, 64, 80
2, 45326, Note_on_c, 0, 67, 80
2, 45326, Note_on_c, 0, 79, 80
2, 45329, Note_on_c, 0, 46, 80
2, 45398, Note_on_c, 0, 64, 0
2, 45398, Note_on_c, 0, 62, 0
2, 45450, Note_on_c, 0, 79, 0
2, 45453, Note_on_c, 0, 58, 0
2, 45453, Note_on_c, 0, 46, 0
2, 45453, Note_on_c, 0, 67, 0
2, 45453, Note_on_c, 0, 45, 80
2, 45453, Note_on_c, 0, 57, 80
2, 45453, Note_on_c, 0, 69, 80
2, 45453, Note_on_c, 0, 74, 80
2, 45453, Note_on_c, 0, 78, 80
2, 45453, Note_on_c, 0, 81, 80
2, 45453, Note_on_c, 0, 86, 80
2, 45453, Note_on_c, 0, 90, 80
2, 45543, Note_on_c, 0, 69, 0
2, 45571, Note_on_c, 0, 45, 0
2, 45571, Note_on_c, 0, 57, 0
2, 45571, Note_on_c, 0, 62, 80
2, 45574, Note_on_c, 0, 66, 80
2, 45574, Note_on_c, 0, 69, 80
2, 45633, Note_on_c, 0, 81, 0
2, 45633, Note_on_c, 0, 74, 0
2, 45633, Note_on_c, 0, 90, 0
2, 45633, Note_on_c, 0, 78, 0
2, 45633, Note_on_c, 0, 86, 0
2, 45633, Note_on_c, 0, 76, 80
2, 45633, Note_on_c, 0, 88, 80
2, 45653, Note_on_c, 0, 69, 0
2, 45653, Note_on_c, 0, 62, 0
2, 45653, Note_on_c, 0, 66, 0
2, 45695, Note_on_c, 0, 76, 0
2, 45695, Note_on_c, 0, 88, 0
2, 45695, Note_on_c, 0, 74, 80
2, 45695, Note_on_c, 0, 86, 80
2, 45697, Note_on_c, 0, 42, 80
2, 45697, Note_on_c, 0, 54, 80
2, 45754, Note_on_c, 0, 86, 0
2, 45754, Note_on_c, 0, 74, 0
2, 45757, Note_on_c, 0, 69, 80
2, 45757, Note_on_c, 0, 81, 80
2, 45785, Note_on_c, 0, 69, 0
2, 45816, Note_on_c, 0, 54, 0
2, 45816, Note_on_c, 0, 42, 0
2, 45816, Note_on_c, 0, 81, 0
2, 45816, Note_on_c, 0, 45, 80
2, 45816, Note_on_c, 0, 57, 80
2, 45816, Note_on_c, 0, 62, 80
2, 45816, Note_on_c, 0, 66, 80
2, 45816, Note_on_c, 0, 69, 80
2, 45816, Note_on_c, 0, 78, 80
2, 45883, Note_on_c, 0, 69, 0
2, 45883, Note_on_c, 0, 62, 0
2, 45903, Note_on_c, 0, 45, 0
2, 45903, Note_on_c, 0, 78, 0
2, 45931, Note_on_c, 0, 66, 0
2, 45934, Note_on_c, 0, 57, 0
2, 45934, Note_on_c, 0, 33, 80
2, 45934, Note_on_c, 0, 45, 80
2, 45934, Note_on_c, 0, 69, 80
2, 45934, Note_on_c, 0, 78, 80
2, 45934, Note_on_c, 0, 81, 80
2, 45934, Note_on_c, 0, 90, 80
2, 45967, Control_c, 0, 64, 127
2, 45995, Note_on_c, 0, 90, 0
2, 45995, Note_on_c, 0, 78, 0
2, 45995, Note_on_c, 0, 81, 0
2, 45995, Note_on_c, 0, 73, 80
2, 45995, Note_on_c, 0, 76, 80
2, 45995, Note_on_c, 0, 85, 80
2, 45995, Note_on_c, 0, 88, 80
2, 46013, Note_on_c, 0, 69, 0
2, 46052, Note_on_c, 0, 33, 0
2, 46052, Note_on_c, 0, 45, 0
2, 46052, Note_on_c, 0, 57, 80
2, 46052, Note_on_c, 0, 61, 80
2, 46052, Note_on_c, 0, 64, 80
2, 46052, Note_on_c, 0, 67, 80
2, 46070, Control_c, 0, 64, 0
2, 46080, Note_on_c, 0, 67, 0
2, 46080, Note_on_c, 0, 64, 0
2, 46080, Note_on_c, 0, 57, 0
2, 46080, Note_on_c, 0, 73, 0
2, 46080, Note_on_c, 0, 61, 0
2, 46111, Note_on_c, 0, 88, 0
2, 46111, Note_on_c, 0, 76, 0
2, 46111, Note_on_c, 0, 85, 0
2, 46111, Note_on_c, 0, 57, 80
2, 46111, Note_on_c, 0, 61, 80
2, 46111, Note_on_c, 0, 67, 80
2, 46111, Note_on_c, 0, 73, 80
2, 46111, Note_on_c, 0, 79, 80
2, 46171, Note_on_c, 0, 33, 80
2, 46171, Note_on_c, 0, 45, 80
2, 46204, Control_c, 0, 64, 127
2, 46232, Note_on_c, 0, 79, 0
2, 46232, Note_on_c, 0, 73, 0
2, 46232, Note_on_c, 0, 57, 0
2, 46232, Note_on_c, 0, 67, 0
2, 46232, Note_on_c, 0, 61, 0
2, 46232, Note_on_c, 0, 78, 80
2, 46232, Note_on_c, 0, 90, 80
2, 46292, Note_on_c, 0, 90, 0
2, 46292, Note_on_c, 0, 33, 0
2, 46292, Note_on_c, 0, 45, 0
2, 46292, Note_on_c, 0, 78, 0
2, 46292, Note_on_c, 0, 67, 80
2, 46292, Note_on_c, 0, 79, 80
2, 46292, Note_on_c, 0, 88, 80
2, 46295, Note_on_c, 0, 57, 80
2, 46295, Note_on_c, 0, 61, 80
2, 46295, Note_on_c, 0, 76, 80
2, 46313, Control_c, 0, 64, 0
2, 46365, Note_on_c, 0, 61, 0
2, 46365, Note_on_c, 0, 67, 0
2, 46368, Note_on_c, 0, 57, 0
2, 46414, Note_on_c, 0, 79, 0
2, 46414, Note_on_c, 0, 88, 0
2, 46416, Note_on_c, 0, 76, 0
2, 46416, Note_on_c, 0, 38, 80
2, 46416, Note_on_c, 0, 50, 80
2, 46416, Note_on_c, 0, 57, 80
2, 46416, Note_on_c, 0, 62, 80
2, 46416, Note_on_c, 0, 66, 80
2, 46416, Note_on_c, 0, 69, 80
2, 46416, Note_on_c, 0, 74, 80
2, 46416, Note_on_c, 0, 78, 80
2, 46416, Note_on_c, 0, 86, 80
2, 46486, Note_on_c, 0, 57, 0
2, 46486, Note_on_c, 0, 38, 0
2, 46486, Note_on_c, 0, 50, 0
2, 46535, Note_on_c, 0, 45, 80
2, 46537, Note_on_c, 0, 57, 80
2, 46594, Note_on_c, 0, 47, 80
2, 46594, Note_on_c, 0, 59, 80
2, 46605, Note_on_c, 0, 57, 0
2, 46605, Note_on_c, 0, 45, 0
2, 46605, Note_on_c, 0, 78, 0
2, 46605, Note_on_c, 0, 86, 0
2, 46605, Note_on_c, 0, 62, 0
2, 46605, Note_on_c, 0, 69, 0
2, 46605, Note_on_c, 0, 66, 0
2, 46605, Note_on_c, 0, 74, 0
2, 46638, Note_on_c, 0, 64, 80
2, 46638, Note_on_c, 0, 76, 80
2, 46658, Note_on_c, 0, 73, 80
2, 46658, Note_on_c, 0, 81, 80
2, 46658, Note_on_c, 0, 93, 80
2, 46661, Note_on_c, 0, 61, 80
2, 46661, Note_on_c, 0, 69, 80
2, 46680, Note_on_c, 0, 76, 0
2, 46718, Note_on_c, 0, 47, 0
2, 46721, Note_on_c, 0, 59, 0
2, 46721, Note_on_c, 0, 45, 80
2, 46721, Note_on_c, 0, 57, 80
2, 46775, Note_on_c, 0, 45, 0
2, 46777, Note_on_c, 0, 57, 0
2, 46777, Note_on_c, 0, 43, 80
2, 46777, Note_on_c, 0, 55, 80
2, 46837, Note_on_c, 0, 55, 0
2, 46837, Note_on_c, 0, 43, 0
2, 46840, Note_on_c, 0, 40, 80
2, 46840, Note_on_c, 0, 52, 80
2, 46848, Note_on_c, 0, 81, 0
2, 46848, Note_on_c, 0, 61, 0
2, 46848, Note_on_c, 0, 69, 0
2, 46848, Note_on_c, 0, 64, 0
2, 46848, Note_on_c, 0, 73, 0
2, 46848, Note_on_c, 0, 93, 0
2, 46899, Note_on_c, 0, 52, 0
2, 46899, Note_on_c, 0, 40, 0
2, 46902, Note_on_c, 0, 38, 80
2, 46902, Note_on_c, 0, 50, 80
2, 46902, Note_on_c, 0, 69, 80
2, 46902, Note_on_c, 0, 81, 80
2, 46933, Control_c, 0, 64, 127
2, 46961, Note_on_c, 0, 69, 0
2, 46964, Note_on_c, 0, 81, 0
2, 46964, Note_on_c, 0, 62, 80
2, 46964, Note_on_c, 0, 74, 80
2, 46964, Note_on_c, 0, 86, 80
2, 46990, Note_on_c, 0, 62, 0
2, 47020, Note_on_c, 0, 74, 0
2, 47020, Note_on_c, 0, 38, 0
2, 47020, Note_on_c, 0, 50, 0
2, 47020, Note_on_c, 0, 57, 80
2, 47020, Note_on_c, 0, 62, 80
2, 47020, Note_on_c, 0, 66, 80
2, 47020, Note_on_c, 0, 78, 80
2, 47020, Note_on_c, 0, 90, 80
2, 47031, Note_on_c, 0, 86, 0
2, 47041, Control_c, 0, 64, 0
2, 47083, Note_on_c, 0, 78, 0
2, 47083, Note_on_c, 0, 66, 0
2, 47083, Note_on_c, 0, 57, 0
2, 47083, Note_on_c, 0, 90, 0
2, 47083, Note_on_c, 0, 71, 80
2, 47083, Note_on_c, 0, 83, 80
2, 47083, Note_on_c, 0, 95, 80
2, 47090, Note_on_c, 0, 62, 0
2, 47142, Note_on_c, 0, 43, 80
2, 47142, Note_on_c, 0, 55, 80
2, 47173, Control_c, 0, 64, 127
2, 47201, Note_on_c, 0, 71, 0
2, 47201, Note_on_c, 0, 95, 0
2, 47201, Note_on_c, 0, 83, 0
2, 47204, Note_on_c, 0, 73, 80
2, 47204, Note_on_c, 0, 85, 80
2, 47263, Note_on_c, 0, 85, 0
2, 47263, Note_on_c, 0, 55, 0
2, 47263, Note_on_c, 0, 43, 0
2, 47263, Note_on_c, 0, 73, 0
2, 47263, Note_on_c, 0, 59, 80
2, 47263, Note_on_c, 0, 62, 80
2, 47263, Note_on_c, 0, 67, 80
2, 47263, Note_on_c, 0, 74, 80
2, 47263, Note_on_c, 0, 86, 80
2, 47281, Control_c, 0, 64, 0
2, 47323, Note_on_c, 0, 86, 0
2, 47323, Note_on_c, 0, 74, 0
2, 47326, Note_on_c, 0, 76, 80
2, 47326, Note_on_c, 0, 88, 80
2, 47333, Note_on_c, 0, 59, 0
2, 47333, Note_on_c, 0, 67, 0
2, 47333, Note_on_c, 0, 62, 0
2, 47385, Note_on_c, 0, 38, 80
2, 47388, Note_on_c, 0, 76, 0
2, 47388, Note_on_c, 0, 88, 0
2, 47388, Note_on_c, 0, 50, 80
2, 47388, Note_on_c, 0, 78, 80
2, 47388, Note_on_c, 0, 90, 80
2, 47419, Control_c, 0, 64, 127
2, 47447, Note_on_c, 0, 90, 0
2, 47447, Note_on_c, 0, 78, 0
2, 47447, Note_on_c, 0, 81, 80
2, 47447, Note_on_c, 0, 93, 80
2, 47506, Note_on_c, 0, 93, 0
2, 47506, Note_on_c, 0, 38, 0
2, 47506, Note_on_c, 0, 50, 0
2, 47506, Note_on_c, 0, 81, 0
2, 47506, Note_on_c, 0, 57, 80
2, 47506, Note_on_c, 0, 62, 80
2, 47506, Note_on_c, 0, 66, 80
2, 47509, Note_on_c, 0, 78, 80
2, 47509, Note_on_c, 0, 90, 80
2, 47527, Control_c, 0, 64, 0
2, 47566, Note_on_c, 0, 90, 0
2, 47566, Note_on_c, 0, 78, 0
2, 47568, Note_on_c, 0, 76, 80
2, 47568, Note_on_c, 0, 88, 80
2, 47576, Note_on_c, 0, 57, 0
2, 47576, Note_on_c, 0, 66, 0
2, 47576, Note_on_c, 0, 62, 0
2, 47628, Note_on_c, 0, 76, 0
2, 47628, Note_on_c, 0, 42, 80
2, 47628, Note_on_c, 0, 54, 80
2, 47628, Note_on_c, 0, 74, 80
2, 47628, Note_on_c, 0, 86, 80
2, 47631, Note_on_c, 0, 88, 0
2, 47662, Control_c, 0, 64, 127
2, 47689, Note_on_c, 0, 74, 0
2, 47689, Note_on_c, 0, 86, 0
2, 47689, Note_on_c, 0, 71, 80
2, 47689, Note_on_c, 0, 83, 80
2, 47720, Note_on_c, 0, 54, 0
2, 47751, Note_on_c, 0, 42, 0
2, 47751, Note_on_c, 0, 71, 0
2, 47751, Note_on_c, 0, 83, 0
2, 47751, Note_on_c, 0, 54, 80
2, 47751, Note_on_c, 0, 57, 80
2, 47751, Note_on_c, 0, 62, 80
2, 47751, Note_on_c, 0, 66, 80
2, 47751, Note_on_c, 0, 69, 80
2, 47751, Note_on_c, 0, 81, 80
2, 47771, Control_c, 0, 64, 0
2, 47782, Note_on_c, 0, 66, 0
2, 47812, Note_on_c, 0, 69, 0
2, 47812, Note_on_c, 0, 81, 0
2, 47812, Note_on_c, 0, 66, 80
2, 47812, Note_on_c, 0, 78, 80
2, 47820, Note_on_c, 0, 54, 0
2, 47820, Note_on_c, 0, 62, 0
2, 47823, Note_on_c, 0, 57, 0
2, 47843, Note_on_c, 0, 78, 0
2, 47871, Note_on_c, 0, 66, 0
2, 47874, Note_on_c, 0, 33, 80
2, 47874, Note_on_c, 0, 45, 80
2, 47874, Note_on_c, 0, 73, 80
2, 47874, Note_on_c, 0, 78, 80
2, 47874, Note_on_c, 0, 85, 80
2, 47874, Note_on_c, 0, 90, 80
2, 47902, Control_c, 0, 64, 127
2, 47929, Note_on_c, 0, 90, 0
2, 47929, Note_on_c, 0, 78, 0
2, 47929, Note_on_c, 0, 73, 0
2, 47929, Note_on_c, 0, 85, 0
2, 47929, Note_on_c, 0, 81, 80
2, 47932, Note_on_c, 0, 69, 80
2, 47932, Note_on_c, 0, 76, 80
2, 47932, Note_on_c, 0, 88, 80
2, 47992, Note_on_c, 0, 33, 0
2, 47992, Note_on_c, 0, 45, 0
2, 47992, Note_on_c, 0, 55, 80
2, 47992, Note_on_c, 0, 57, 80
2, 47992, Note_on_c, 0, 61, 80
2, 47992, Note_on_c, 0, 67, 80
2, 48010, Control_c, 0, 64, 0
2, 48021, Note_on_c, 0, 67, 0
2, 48051, Note_on_c, 0, 69, 0
2, 48051, Note_on_c, 0, 81, 0
2, 48051, Note_on_c, 0, 67, 80
2, 48051, Note_on_c, 0, 73, 80
2, 48051, Note_on_c, 0, 79, 80
2, 48062, Note_on_c, 0, 57, 0
2, 48062, Note_on_c, 0, 55, 0
2, 48062, Note_on_c, 0, 76, 0
2, 48062, Note_on_c, 0, 61, 0
2, 48070, Note_on_c, 0, 88, 0
2, 48113, Note_on_c, 0, 37, 80
2, 48113, Note_on_c, 0, 49, 80
2, 48141, Note_on_c, 0, 73, 0
2, 48144, Control_c, 0, 64, 127
2, 48171, Note_on_c, 0, 79, 0
2, 48171, Note_on_c, 0, 67, 0
2, 48174, Note_on_c, 0, 73, 80
2, 48174, Note_on_c, 0, 78, 80
2, 48174, Note_on_c, 0, 85, 80
2, 48174, Note_on_c, 0, 90, 80
2, 48234, Note_on_c, 0, 37, 0
2, 48234, Note_on_c, 0, 49, 0
2, 48234, Note_on_c, 0, 55, 80
2, 48237, Note_on_c, 0, 57, 80
2, 48237, Note_on_c, 0, 61, 80
2, 48237, Note_on_c, 0, 67, 80
2, 48252, Control_c, 0, 64, 0
2, 48293, Note_on_c, 0, 85, 0
2, 48293, Note_on_c, 0, 73, 0
2, 48293, Note_on_c, 0, 78, 0
2, 48293, Note_on_c, 0, 90, 0
2, 48293, Note_on_c, 0, 76, 80
2, 48293, Note_on_c, 0, 88, 80
2, 48304, Note_on_c, 0, 55, 0
2, 48304, Note_on_c, 0, 61, 0
2, 48304, Note_on_c, 0, 67, 0
2, 48304, Note_on_c, 0, 57, 0
2, 48324, Note_on_c, 0, 88, 0
2, 48324, Note_on_c, 0, 76, 0
2, 48355, Note_on_c, 0, 38, 80
2, 48355, Note_on_c, 0, 50, 80
2, 48355, Note_on_c, 0, 76, 80
2, 48355, Note_on_c, 0, 88, 80
2, 48385, Control_c, 0, 64, 127
2, 48416, Note_on_c, 0, 76, 0
2, 48419, Note_on_c, 0, 88, 0
2, 48419, Note_on_c, 0, 66, 80
2, 48419, Note_on_c, 0, 74, 80
2, 48419, Note_on_c, 0, 86, 80
2, 48430, Note_on_c, 0, 78, 80
2, 48448, Note_on_c, 0, 66, 0
2, 48458, Note_on_c, 0, 50, 0
2, 48481, Note_on_c, 0, 38, 0
2, 48481, Note_on_c, 0, 54, 80
2, 48481, Note_on_c, 0, 57, 80
2, 48481, Note_on_c, 0, 62, 80
2, 48481, Note_on_c, 0, 66, 80
2, 48500, Note_on_c, 0, 74, 0
2, 48500, Note_on_c, 0, 78, 0
2, 48500, Control_c, 0, 64, 0
2, 48510, Note_on_c, 0, 66, 0
2, 48541, Note_on_c, 0, 86, 0
2, 48541, Note_on_c, 0, 66, 80
2, 48544, Note_on_c, 0, 74, 80
2, 48544, Note_on_c, 0, 78, 80
2, 48552, Note_on_c, 0, 54, 0
2, 48552, Note_on_c, 0, 57, 0
2, 48605, Note_on_c, 0, 50, 80
2, 48616, Note_on_c, 0, 38, 80
2, 48668, Note_on_c, 0, 74, 0
2, 48668, Note_on_c, 0, 66, 0
2, 48671, Note_on_c, 0, 71, 80
2, 48671, Note_on_c, 0, 76, 80
2, 48671, Note_on_c, 0, 83, 80
2, 48671, Note_on_c, 0, 88, 80
2, 48678, Note_on_c, 0, 62, 0
2, 48678, Note_on_c, 0, 78, 0
2, 48698, Note_on_c, 0, 71, 0
2, 48698, Note_on_c, 0, 83, 0
2, 48719, Note_on_c, 0, 50, 0
2, 48726, Note_on_c, 0, 38, 0
2, 48726, Note_on_c, 0, 47, 80
2, 48729, Note_on_c, 0, 35, 80
2, 48729, Note_on_c, 0, 54, 80
2, 48729, Note_on_c, 0, 59, 80
2, 48729, Note_on_c, 0, 62, 80
2, 48729, Note_on_c, 0, 66, 80
2, 48729, Note_on_c, 0, 71, 80
2, 48729, Note_on_c, 0, 74, 80
2, 48729, Note_on_c, 0, 83, 80
2, 48729, Note_on_c, 0, 86, 80
2, 48749, Note_on_c, 0, 76, 0
2, 48749, Note_on_c, 0, 88, 0
2, 48798, Note_on_c, 0, 66, 0
2, 48798, Note_on_c, 0, 54, 0
2, 48798, Note_on_c, 0, 62, 0
2, 48798, Note_on_c, 0, 59, 0
2, 48847, Note_on_c, 0, 47, 0
2, 48850, Note_on_c, 0, 35, 0
2, 48850, Note_on_c, 0, 83, 0
2, 48850, Note_on_c, 0, 86, 0
2, 48850, Note_on_c, 0, 71, 0
2, 48850, Note_on_c, 0, 74, 0
2, 48850, Note_on_c, 0, 37, 80
2, 48850, Note_on_c, 0, 49, 80
2, 48850, Note_on_c, 0, 73, 80
2, 48850, Note_on_c, 0, 85, 80
2, 48912, Note_on_c, 0, 73, 0
2, 48914, Note_on_c, 0, 85, 0
2, 48914, Note_on_c, 0, 69, 80
2, 48914, Note_on_c, 0, 81, 80
2, 48942, Note_on_c, 0, 69, 0
2, 48960, Note_on_c, 0, 49, 0
2, 48973, Note_on_c, 0, 37, 0
2, 48973, Note_on_c, 0, 81, 0
2, 48973, Note_on_c, 0, 57, 80
2, 48973, Note_on_c, 0, 61, 80
2, 48973, Note_on_c, 0, 66, 80
2, 48973, Note_on_c, 0, 73, 80
2, 48973, Note_on_c, 0, 85, 80
2, 48976, Note_on_c, 0, 69, 80
2, 49002, Note_on_c, 0, 61, 0
2, 49030, Note_on_c, 0, 73, 0
2, 49030, Note_on_c, 0, 57, 0
2, 49030, Note_on_c, 0, 66, 0
2, 49032, Note_on_c, 0, 69, 0
2, 49032, Note_on_c, 0, 85, 0
2, 49032, Note_on_c, 0, 59, 80
2, 49032, Note_on_c, 0, 61, 80
2, 49032, Note_on_c, 0, 65, 80
2, 49032, Note_on_c, 0, 71, 80
2, 49032, Note_on_c, 0, 74, 80
2, 49032, Note_on_c, 0, 83, 80
2, 49032, Note_on_c, 0, 86, 80
2, 49092, Note_on_c, 0, 44, 80
2, 49092, Note_on_c, 0, 56, 80
2, 49120, Note_on_c, 0, 65, 0
2, 49148, Note_on_c, 0, 59, 0
2, 49148, Note_on_c, 0, 61, 0
2, 49151, Note_on_c, 0, 74, 0
2, 49151, Note_on_c, 0, 86, 0
2, 49151, Note_on_c, 0, 65, 80
2, 49151, Note_on_c, 0, 77, 80
2, 49161, Note_on_c, 0, 71, 0
2, 49161, Note_on_c, 0, 83, 0
2, 49181, Note_on_c, 0, 65, 0
2, 49181, Note_on_c, 0, 77, 0
2, 49209, Note_on_c, 0, 44, 0
2, 49209, Note_on_c, 0, 56, 0
2, 49212, Note_on_c, 0, 37, 80
2, 49212, Note_on_c, 0, 49, 80
2, 49212, Note_on_c, 0, 61, 80
2, 49212, Note_on_c, 0, 65, 80
2, 49212, Note_on_c, 0, 71, 80
2, 49212, Note_on_c, 0, 73, 80
2, 49212, Note_on_c, 0, 77, 80
2, 49212, Note_on_c, 0, 85, 80
2, 49279, Note_on_c, 0, 61, 0
2, 49282, Note_on_c, 0, 71, 0
2, 49282, Note_on_c, 0, 65, 0
2, 49293, Note_on_c, 0, 85, 0
2, 49293, Note_on_c, 0, 77, 0
2, 49303, Note_on_c, 0, 73, 0
2, 49334, Note_on_c, 0, 37, 0
2, 49334, Note_on_c, 0, 49, 0
2, 49334, Note_on_c, 0, 42, 80
2, 49334, Note_on_c, 0, 54, 80
2, 49334, Note_on_c, 0, 57, 80
2, 49334, Note_on_c, 0, 61, 80
2, 49334, Note_on_c, 0, 66, 80
2, 49337, Note_on_c, 0, 69, 80
2, 49337, Note_on_c, 0, 73, 80
2, 49337, Note_on_c, 0, 85, 80
2, 49363, Note_on_c, 0, 69, 0
2, 49393, Note_on_c, 0, 85, 0
2, 49393, Note_on_c, 0, 73, 0
2, 49393, Note_on_c, 0, 69, 80
2, 49393, Note_on_c, 0, 81, 80
2, 49453, Note_on_c, 0, 81, 0
2, 49453, Note_on_c, 0, 54, 0
2, 49453, Note_on_c, 0, 66, 0
2, 49453, Note_on_c, 0, 57, 0
2, 49453, Note_on_c, 0, 61, 0
2, 49453, Note_on_c, 0, 69, 0
2, 49453, Note_on_c, 0, 42, 0
2, 49453, Note_on_c, 0, 40, 80
2, 49453, Note_on_c, 0, 52, 80
2, 49453, Note_on_c, 0, 73, 80
2, 49453, Note_on_c, 0, 85, 80
2, 49514, Note_on_c, 0, 85, 0
2, 49514, Note_on_c, 0, 73, 0
2, 49514, Note_on_c, 0, 54, 80
2, 49514, Note_on_c, 0, 57, 80
2, 49514, Note_on_c, 0, 69, 80
2, 49514, Note_on_c, 0, 72, 80
2, 49514, Note_on_c, 0, 78, 80
2, 49514, Note_on_c, 0, 84, 80
2, 49525, Note_on_c, 0, 60, 80
2, 49525, Note_on_c, 0, 66, 80
2, 49574, Note_on_c, 0, 52, 0
2, 49574, Note_on_c, 0, 40, 0
2, 49574, Note_on_c, 0, 51, 80
2, 49577, Note_on_c, 0, 39, 80
2, 49595, Note_on_c, 0, 69, 0
2, 49626, Note_on_c, 0, 69, 80
2, 49633, Note_on_c, 0, 57, 0
2, 49633, Note_on_c, 0, 60, 0
2, 49633, Note_on_c, 0, 66, 0
2, 49633, Note_on_c, 0, 54, 0
2, 49664, Note_on_c, 0, 69, 0
2, 49695, Note_on_c, 0, 72, 0
2, 49695, Note_on_c, 0, 51, 0
2, 49695, Note_on_c, 0, 39, 0
2, 49695, Note_on_c, 0, 84, 0
2, 49695, Note_on_c, 0, 78, 0
2, 49695, Note_on_c, 0, 38, 80
2, 49695, Note_on_c, 0, 50, 80
2, 49695, Note_on_c, 0, 57, 80
2, 49695, Note_on_c, 0, 59, 80
2, 49695, Note_on_c, 0, 65, 80
2, 49695, Note_on_c, 0, 69, 80
2, 49695, Note_on_c, 0, 71, 80
2, 49695, Note_on_c, 0, 77, 80
2, 49695, Note_on_c, 0, 83, 80
2, 49726, Note_on_c, 0, 69, 0
2, 49756, Note_on_c, 0, 69, 80
2, 49784, Note_on_c, 0, 69, 0
2, 49802, Note_on_c, 0, 83, 0
2, 49802, Note_on_c, 0, 57, 0
2, 49813, Note_on_c, 0, 77, 0
2, 49813, Note_on_c, 0, 65, 0
2, 49813, Note_on_c, 0, 38, 0
2, 49813, Note_on_c, 0, 50, 0
2, 49813, Note_on_c, 0, 37, 80
2, 49813, Note_on_c, 0, 49, 80
2, 49813, Note_on_c, 0, 61, 80
2, 49813, Note_on_c, 0, 64, 80
2, 49813, Note_on_c, 0, 69, 80
2, 49813, Note_on_c, 0, 81, 80
2, 49824, Note_on_c, 0, 71, 0
2, 49824, Note_on_c, 0, 59, 0
2, 49875, Note_on_c, 0, 76, 80
2, 49875, Note_on_c, 0, 88, 80
2, 49883, Note_on_c, 0, 64, 0
2, 49883, Note_on_c, 0, 81, 0
2, 49883, Note_on_c, 0, 61, 0
2, 49883, Note_on_c, 0, 69, 0
2, 49935, Note_on_c, 0, 49, 0
2, 49935, Note_on_c, 0, 37, 0
2, 49935, Note_on_c, 0, 36, 80
2, 49935, Note_on_c, 0, 48, 80
2, 49935, Note_on_c, 0, 60, 80
2, 49935, Note_on_c, 0, 65, 80
2, 49935, Note_on_c, 0, 69, 80
2, 49935, Note_on_c, 0, 77, 80
2, 49935, Note_on_c, 0, 81, 80
2, 49935, Note_on_c, 0, 89, 80
2, 49945, Note_on_c, 0, 76, 0
2, 49945, Note_on_c, 0, 88, 0
2, 50005, Note_on_c, 0, 60, 0
2, 50005, Note_on_c, 0, 65, 0
2, 50008, Note_on_c, 0, 69, 0
2, 50043, Note_on_c, 0, 36, 0
2, 50056, Note_on_c, 0, 48, 0
2, 50056, Note_on_c, 0, 35, 80
2, 50056, Note_on_c, 0, 47, 80
2, 50056, Note_on_c, 0, 56, 80
2, 50056, Note_on_c, 0, 62, 80
2, 50056, Note_on_c, 0, 65, 80
2, 50056, Note_on_c, 0, 68, 80
2, 50056, Note_on_c, 0, 80, 80
2, 50066, Note_on_c, 0, 81, 0
2, 50126, Note_on_c, 0, 68, 0
2, 50126, Note_on_c, 0, 65, 0
2, 50126, Note_on_c, 0, 62, 0
2, 50126, Note_on_c, 0, 56, 0
2, 50175, Note_on_c, 0, 47, 0
2, 50178, Note_on_c, 0, 35, 0
2, 50178, Note_on_c, 0, 89, 0
2, 50178, Note_on_c, 0, 34, 80
2, 50178, Note_on_c, 0, 46, 80
2, 50178, Note_on_c, 0, 55, 80
2, 50178, Note_on_c, 0, 62, 80
2, 50178, Note_on_c, 0, 64, 80
2, 50178, Note_on_c, 0, 67, 80
2, 50178, Note_on_c, 0, 76, 80
2, 50178, Note_on_c, 0, 79, 80
2, 50178, Note_on_c, 0, 88, 80
2, 50185, Note_on_c, 0, 77, 0
2, 50188, Note_on_c, 0, 80, 0
2, 50245, Note_on_c, 0, 67, 0
2, 50245, Note_on_c, 0, 55, 0
2, 50245, Note_on_c, 0, 64, 0
2, 50245, Note_on_c, 0, 62, 0
2, 50256, Note_on_c, 0, 76, 0
2, 50256, Note_on_c, 0, 79, 0
2, 50266, Note_on_c, 0, 88, 0
2, 50297, Note_on_c, 0, 46, 0
2, 50297, Note_on_c, 0, 34, 0
2, 50297, Note_on_c, 0, 33, 80
2, 50297, Note_on_c, 0, 45, 80
2, 50297, Note_on_c, 0, 61, 80
2, 50297, Note_on_c, 0, 64, 80
2, 50297, Note_on_c, 0, 67, 80
2, 50297, Note_on_c, 0, 73, 80
2, 50297, Note_on_c, 0, 76, 80
2, 50297, Note_on_c, 0, 88, 80
2, 50366, Note_on_c, 0, 64, 0
2, 50366, Note_on_c, 0, 61, 0
2, 50369, Note_on_c, 0, 67, 0
2, 50410, Note_on_c, 0, 73, 0
2, 50410, Note_on_c, 0, 88, 0
2, 50410, Note_on_c, 0, 76, 0
2, 50418, Note_on_c, 0, 45, 0
2, 50418, Note_on_c, 0, 33, 0
2, 50421, Note_on_c, 0, 43, 80
2, 50421, Note_on_c, 0, 55, 80
2, 50421, Note_on_c, 0, 61, 80
2, 50421, Note_on_c, 0, 64, 80
2, 50421, Note_on_c, 0, 69, 80
2, 50421, Note_on_c, 0, 81, 80
2, 50421, Note_on_c, 0, 93, 80
2, 50480, Note_on_c, 0, 93, 0
2, 50480, Note_on_c, 0, 81, 0
2, 50480, Note_on_c, 0, 85, 80
2, 50483, Note_on_c, 0, 73, 80
2, 50491, Note_on_c, 0, 64, 0
2, 50491, Note_on_c, 0, 61, 0
2, 50491, Note_on_c, 0, 69, 0
2, 50529, Note_on_c, 0, 55, 0
2, 50529, Note_on_c, 0, 43, 0
2, 50540, Note_on_c, 0, 85, 0
2, 50540, Note_on_c, 0, 73, 0
2, 50543, Note_on_c, 0, 42, 80
2, 50543, Note_on_c, 0, 54, 80
2, 50543, Note_on_c, 0, 64, 80
2, 50543, Note_on_c, 0, 76, 80
2, 50543, Note_on_c, 0, 88, 80
2, 50570, Note_on_c, 0, 64, 0
2, 50601, Note_on_c, 0, 76, 0
2, 50601, Note_on_c, 0, 61, 80
2, 50601, Note_on_c, 0, 64, 80
2, 50601, Note_on_c, 0, 93, 80
2, 50604, Note_on_c, 0, 88, 0
2, 50604, Note_on_c, 0, 69, 80
2, 50604, Note_on_c, 0, 81, 80
2, 50653, Note_on_c, 0, 42, 0
2, 50653, Note_on_c, 0, 54, 0
2, 50664, Note_on_c, 0, 40, 80
2, 50664, Note_on_c, 0, 52, 80
2, 50671, Note_on_c, 0, 61, 0
2, 50671, Note_on_c, 0, 64, 0
2, 50671, Note_on_c, 0, 69, 0
2, 50691, Note_on_c, 0, 81, 0
2, 50691, Note_on_c, 0, 93, 0
2, 50725, Note_on_c, 0, 61, 80
2, 50725, Note_on_c, 0, 64, 80
2, 50725, Note_on_c, 0, 69, 80
2, 50725, Note_on_c, 0, 81, 80
2, 50725, Note_on_c, 0, 93, 80
2, 50774, Note_on_c, 0, 52, 0
2, 50777, Note_on_c, 0, 40, 0
2, 50784, Note_on_c, 0, 64, 0
2, 50784, Note_on_c, 0, 69, 0
2, 50784, Note_on_c, 0, 61, 0
2, 50787, Note_on_c, 0, 38, 80
2, 50787, Note_on_c, 0, 50, 80
2, 50818, Control_c, 0, 64, 127
2, 50836, Note_on_c, 0, 81, 0
2, 50847, Note_on_c, 0, 62, 80
2, 50847, Note_on_c, 0, 74, 80
2, 50847, Note_on_c, 0, 86, 80
2, 50857, Note_on_c, 0, 93, 0
2, 50878, Note_on_c, 0, 62, 0
2, 50901, Note_on_c, 0, 50, 0
2, 50901, Note_on_c, 0, 38, 0
2, 50908, Note_on_c, 0, 86, 0
2, 50908, Note_on_c, 0, 74, 0
2, 50908, Note_on_c, 0, 62, 80
2, 50908, Note_on_c, 0, 66, 80
2, 50908, Note_on_c, 0, 78, 80
2, 50908, Note_on_c, 0, 90, 80
2, 50911, Note_on_c, 0, 54, 80
2, 50911, Note_on_c, 0, 57, 80
2, 50929, Control_c, 0, 64, 0
2, 50968, Note_on_c, 0, 90, 0
2, 50968, Note_on_c, 0, 78, 0
2, 50968, Note_on_c, 0, 83, 80
2, 50968, Note_on_c, 0, 95, 80
2, 50971, Note_on_c, 0, 71, 80
2, 50978, Note_on_c, 0, 66, 0
2, 50989, Note_on_c, 0, 57, 0
2, 50989, Note_on_c, 0, 62, 0
2, 50989, Note_on_c, 0, 54, 0
2, 51032, Note_on_c, 0, 43, 80
2, 51032, Note_on_c, 0, 55, 80
2, 51066, Control_c, 0, 64, 127
2, 51092, Note_on_c, 0, 71, 0
2, 51092, Note_on_c, 0, 95, 0
2, 51092, Note_on_c, 0, 83, 0
2, 51092, Note_on_c, 0, 73, 80
2, 51092, Note_on_c, 0, 85, 80
2, 51122, Note_on_c, 0, 55, 0
2, 51153, Note_on_c, 0, 85, 0
2, 51156, Note_on_c, 0, 73, 0
2, 51156, Note_on_c, 0, 43, 0
2, 51156, Note_on_c, 0, 55, 80
2, 51156, Note_on_c, 0, 59, 80
2, 51156, Note_on_c, 0, 62, 80
2, 51156, Note_on_c, 0, 67, 80
2, 51156, Note_on_c, 0, 74, 80
2, 51156, Note_on_c, 0, 86, 80
2, 51176, Control_c, 0, 64, 0
2, 51215, Note_on_c, 0, 86, 0
2, 51217, Note_on_c, 0, 74, 0
2, 51217, Note_on_c, 0, 76, 80
2, 51217, Note_on_c, 0, 88, 80
2, 51225, Note_on_c, 0, 62, 0
2, 51225, Note_on_c, 0, 67, 0
2, 51225, Note_on_c, 0, 55, 0
2, 51225, Note_on_c, 0, 59, 0
2, 51277, Note_on_c, 0, 88, 0
2, 51277, Note_on_c, 0, 76, 0
2, 51277, Note_on_c, 0, 78, 80
2, 51277, Note_on_c, 0, 90, 80
2, 51280, Note_on_c, 0, 38, 80
2, 51280, Note_on_c, 0, 50, 80
2, 51311, Control_c, 0, 64, 127
2, 51336, Note_on_c, 0, 90, 0
2, 51336, Note_on_c, 0, 78, 0
2, 51336, Note_on_c, 0, 93, 80
2, 51339, Note_on_c, 0, 81, 80
2, 51391, Note_on_c, 0, 38, 0
2, 51391, Note_on_c, 0, 50, 0
2, 51399, Note_on_c, 0, 81, 0
2, 51402, Note_on_c, 0, 54, 80
2, 51402, Note_on_c, 0, 57, 80
2, 51402, Note_on_c, 0, 62, 80
2, 51402, Note_on_c, 0, 66, 80
2, 51402, Note_on_c, 0, 78, 80
2, 51402, Note_on_c, 0, 90, 80
2, 51409, Note_on_c, 0, 93, 0
2, 51420, Control_c, 0, 64, 0
2, 51458, Note_on_c, 0, 90, 0
2, 51461, Note_on_c, 0, 78, 0
2, 51461, Note_on_c, 0, 76, 80
2, 51461, Note_on_c, 0, 88, 80
2, 51472, Note_on_c, 0, 54, 0
2, 51472, Note_on_c, 0, 66, 0
2, 51472, Note_on_c, 0, 57, 0
2, 51480, Note_on_c, 0, 62, 0
2, 51523, Note_on_c, 0, 76, 0
2, 51526, Note_on_c, 0, 42, 80
2, 51526, Note_on_c, 0, 54, 80
2, 51526, Note_on_c, 0, 74, 80
2, 51526, Note_on_c, 0, 86, 80
2, 51536, Note_on_c, 0, 88, 0
2, 51562, Control_c, 0, 64, 127
2, 51585, Note_on_c, 0, 86, 0
2, 51585, Note_on_c, 0, 83, 80
2, 51588, Note_on_c, 0, 74, 0
2, 51588, Note_on_c, 0, 71, 80
2, 51606, Note_on_c, 0, 54, 0
2, 51648, Note_on_c, 0, 83, 0
2, 51648, Note_on_c, 0, 71, 0
2, 51648, Note_on_c, 0, 81, 80
2, 51650, Note_on_c, 0, 42, 0
2, 51650, Note_on_c, 0, 54, 80
2, 51650, Note_on_c, 0, 57, 80
2, 51650, Note_on_c, 0, 62, 80
2, 51650, Note_on_c, 0, 66, 80
2, 51650, Note_on_c, 0, 69, 80
2, 51671, Control_c, 0, 64, 0
2, 51678, Note_on_c, 0, 66, 0
2, 51709, Note_on_c, 0, 81, 0
2, 51709, Note_on_c, 0, 69, 0
2, 51709, Note_on_c, 0, 67, 80
2, 51709, Note_on_c, 0, 79, 80
2, 51717, Note_on_c, 0, 54, 0
2, 51717, Note_on_c, 0, 57, 0
2, 51717, Note_on_c, 0, 62, 0
2, 51768, Note_on_c, 0, 67, 0
2, 51768, Note_on_c, 0, 79, 0
2, 51771, Note_on_c, 0, 42, 80
2, 51771, Note_on_c, 0, 54, 80
2, 51771, Note_on_c, 0, 66, 80
2, 51771, Note_on_c, 0, 78, 80
2, 51799, Note_on_c, 0, 78, 0
2, 51802, Control_c, 0, 64, 127
2, 51830, Note_on_c, 0, 66, 0
2, 51830, Note_on_c, 0, 70, 80
2, 51830, Note_on_c, 0, 78, 80
2, 51830, Note_on_c, 0, 82, 80
2, 51889, Note_on_c, 0, 54, 0
2, 51889, Note_on_c, 0, 61, 80
2, 51889, Note_on_c, 0, 64, 80
2, 51889, Note_on_c, 0, 66, 80
2, 51892, Note_on_c, 0, 42, 0
2, 51892, Note_on_c, 0, 58, 80
2, 51912, Control_c, 0, 64, 0
2, 51920, Note_on_c, 0, 78, 0
2, 51948, Note_on_c, 0, 82, 0
2, 51948, Note_on_c, 0, 85, 80
2, 51951, Note_on_c, 0, 70, 0
2, 51951, Note_on_c, 0, 73, 80
2, 51951, Note_on_c, 0, 78, 80
2, 51959, Note_on_c, 0, 66, 0
2, 51961, Note_on_c, 0, 58, 0
2, 51961, Note_on_c, 0, 61, 0
2, 51961, Note_on_c, 0, 64, 0
2, 51982, Note_on_c, 0, 85, 0
2, 51982, Note_on_c, 0, 78, 0
2, 52012, Note_on_c, 0, 73, 0
2, 52012, Note_on_c, 0, 54, 80
2, 52012, Note_on_c, 0, 76, 80
2, 52012, Note_on_c, 0, 78, 80
2, 52012, Note_on_c, 0, 85, 80
2, 52012, Note_on_c, 0, 90, 80
2, 52015, Note_on_c, 0, 42, 80
2, 52049, Control_c, 0, 64, 127
2, 52092, Note_on_c, 0, 90, 0
2, 52092, Note_on_c, 0, 85, 0
2, 52092, Note_on_c, 0, 78, 0
2, 52092, Note_on_c, 0, 76, 0
2, 52133, Note_on_c, 0, 54, 0
2, 52133, Note_on_c, 0, 42, 0
2, 52133, Note_on_c, 0, 58, 80
2, 52133, Note_on_c, 0, 61, 80
2, 52133, Note_on_c, 0, 64, 80
2, 52133, Note_on_c, 0, 66, 80
2, 52133, Note_on_c, 0, 76, 80
2, 52133, Note_on_c, 0, 78, 80
2, 52133, Note_on_c, 0, 85, 80
2, 52133, Note_on_c, 0, 90, 80
2, 52153, Control_c, 0, 64, 0
2, 52161, Note_on_c, 0, 90, 0
2, 52161, Note_on_c, 0, 85, 0
2, 52161, Note_on_c, 0, 76, 0
2, 52161, Note_on_c, 0, 78, 0
2, 52195, Note_on_c, 0, 76, 80
2, 52195, Note_on_c, 0, 78, 80
2, 52195, Note_on_c, 0, 85, 80
2, 52195, Note_on_c, 0, 90, 80
2, 52202, Note_on_c, 0, 64, 0
2, 52202, Note_on_c, 0, 66, 0
2, 52205, Note_on_c, 0, 58, 0
2, 52205, Note_on_c, 0, 61, 0
2, 52257, Note_on_c, 0, 47, 80
2, 52260, Note_on_c, 0, 35, 80
2, 52317, Note_on_c, 0, 76, 0
2, 52317, Note_on_c, 0, 85, 0
2, 52317, Note_on_c, 0, 90, 0
2, 52317, Note_on_c, 0, 78, 0
2, 52317, Note_on_c, 0, 70, 80
2, 52317, Note_on_c, 0, 82, 80
2, 52320, Control_c, 0, 64, 127
2, 52368, Note_on_c, 0, 70, 0
2, 52379, Note_on_c, 0, 47, 0
2, 52379, Note_on_c, 0, 35, 0
2, 52379, Note_on_c, 0, 82, 0
2, 52379, Note_on_c, 0, 62, 80
2, 52379, Note_on_c, 0, 66, 80
2, 52379, Note_on_c, 0, 71, 80
2, 52379, Note_on_c, 0, 83, 80
2, 52379, Note_on_c, 0, 59, 80
2, 52399, Control_c, 0, 64, 0
2, 52425, Note_on_c, 0, 83, 0
2, 52436, Note_on_c, 0, 71, 0
2, 52436, Note_on_c, 0, 73, 80
2, 52436, Note_on_c, 0, 85, 80
2, 52446, Note_on_c, 0, 62, 0
2, 52446, Note_on_c, 0, 59, 0
2, 52446, Note_on_c, 0, 66, 0
2, 52495, Note_on_c, 0, 73, 0
2, 52495, Note_on_c, 0, 85, 0
2, 52495, Note_on_c, 0, 47, 80
2, 52495, Note_on_c, 0, 86, 80
2, 52498, Note_on_c, 0, 59, 80
2, 52498, Note_on_c, 0, 74, 80
2, 52547, Note_on_c, 0, 74, 0
2, 52555, Note_on_c, 0, 86, 0
2, 52558, Note_on_c, 0, 76, 80
2, 52558, Note_on_c, 0, 88, 80
2, 52617, Note_on_c, 0, 88, 0
2, 52617, Note_on_c, 0, 47, 0
2, 52617, Note_on_c, 0, 59, 0
2, 52617, Note_on_c, 0, 76, 0
2, 52617, Note_on_c, 0, 45, 80
2, 52617, Note_on_c, 0, 57, 80
2, 52617, Note_on_c, 0, 60, 80
2, 52617, Note_on_c, 0, 66, 80
2, 52617, Note_on_c, 0, 72, 80
2, 52617, Note_on_c, 0, 78, 80
2, 52617, Note_on_c, 0, 84, 80
2, 52617, Note_on_c, 0, 90, 80
2, 52686, Note_on_c, 0, 66, 0
2, 52686, Note_on_c, 0, 60, 0
2, 52706, Note_on_c, 0, 78, 0
2, 52706, Note_on_c, 0, 90, 0
2, 52706, Note_on_c, 0, 72, 0
2, 52706, Note_on_c, 0, 84, 0
2, 52737, Note_on_c, 0, 45, 0
2, 52737, Note_on_c, 0, 57, 0
2, 52737, Note_on_c, 0, 55, 80
2, 52737, Note_on_c, 0, 71, 80
2, 52737, Note_on_c, 0, 78, 80
2, 52737, Note_on_c, 0, 83, 80
2, 52737, Note_on_c, 0, 90, 80
2, 52740, Note_on_c, 0, 43, 80
2, 52855, Note_on_c, 0, 43, 0
2, 52855, Note_on_c, 0, 55, 0
2, 52855, Note_on_c, 0, 59, 80
2, 52855, Note_on_c, 0, 62, 80
2, 52855, Note_on_c, 0, 67, 80
2, 52915, Note_on_c, 0, 83, 0
2, 52915, Note_on_c, 0, 90, 0
2, 52918, Note_on_c, 0, 71, 0
2, 52918, Note_on_c, 0, 78, 0
2, 52918, Note_on_c, 0, 76, 80
2, 52918, Note_on_c, 0, 88, 80
2, 52925, Note_on_c, 0, 67, 0
2, 52925, Note_on_c, 0, 62, 0
2, 52925, Note_on_c, 0, 59, 0
2, 52977, Note_on_c, 0, 76, 0
2, 52977, Note_on_c, 0, 88, 0
2, 52977, Note_on_c, 0, 86, 80
2, 52980, Note_on_c, 0, 47, 80
2, 52980, Note_on_c, 0, 59, 80
2, 52980, Note_on_c, 0, 74, 80
2, 53041, Note_on_c, 0, 74, 0
2, 53041, Note_on_c, 0, 86, 0
2, 53041, Note_on_c, 0, 71, 80
2, 53041, Note_on_c, 0, 83, 80
2, 53093, Note_on_c, 0, 59, 0
2, 53104, Note_on_c, 0, 47, 0
2, 53104, Note_on_c, 0, 71, 0
2, 53104, Note_on_c, 0, 83, 0
2, 53104, Note_on_c, 0, 62, 80
2, 53104, Note_on_c, 0, 64, 80
2, 53104, Note_on_c, 0, 67, 80
2, 53104, Note_on_c, 0, 79, 80
2, 53107, Note_on_c, 0, 46, 80
2, 53107, Note_on_c, 0, 58, 80
2, 53174, Note_on_c, 0, 64, 0
2, 53174, Note_on_c, 0, 62, 0
2, 53226, Note_on_c, 0, 67, 0
2, 53226, Note_on_c, 0, 79, 0
2, 53226, Note_on_c, 0, 58, 0
2, 53226, Note_on_c, 0, 74, 80
2, 53226, Note_on_c, 0, 78, 80
2, 53226, Note_on_c, 0, 81, 80
2, 53226, Note_on_c, 0, 86, 80
2, 53226, Note_on_c, 0, 90, 80
2, 53229, Note_on_c, 0, 46, 0
2, 53229, Note_on_c, 0, 45, 80
2, 53229, Note_on_c, 0, 57, 80
2, 53229, Note_on_c, 0, 69, 80
2, 53313, Note_on_c, 0, 69, 0
2, 53341, Note_on_c, 0, 45, 0
2, 53344, Note_on_c, 0, 57, 0
2, 53344, Note_on_c, 0, 62, 80
2, 53344, Note_on_c, 0, 66, 80
2, 53344, Note_on_c, 0, 69, 80
2, 53393, Note_on_c, 0, 86, 0
2, 53400, Note_on_c, 0, 90, 0
2, 53403, Note_on_c, 0, 74, 0
2, 53403, Note_on_c, 0, 78, 0
2, 53403, Note_on_c, 0, 81, 0
2, 53403, Note_on_c, 0, 76, 80
2, 53403, Note_on_c, 0, 88, 80
2, 53422, Note_on_c, 0, 66, 0
2, 53422, Note_on_c, 0, 62, 0
2, 53422, Note_on_c, 0, 69, 0
2, 53460, Note_on_c, 0, 76, 0
2, 53460, Note_on_c, 0, 88, 0
2, 53463, Note_on_c, 0, 42, 80
2, 53463, Note_on_c, 0, 54, 80
2, 53463, Note_on_c, 0, 74, 80
2, 53463, Note_on_c, 0, 86, 80
2, 53520, Note_on_c, 0, 86, 0
2, 53520, Note_on_c, 0, 74, 0
2, 53522, Note_on_c, 0, 69, 80
2, 53522, Note_on_c, 0, 81, 80
2, 53553, Note_on_c, 0, 69, 0
2, 53581, Note_on_c, 0, 42, 0
2, 53581, Note_on_c, 0, 54, 0
2, 53581, Note_on_c, 0, 81, 0
2, 53581, Note_on_c, 0, 62, 80
2, 53581, Note_on_c, 0, 66, 80
2, 53581, Note_on_c, 0, 69, 80
2, 53581, Note_on_c, 0, 78, 80
2, 53584, Note_on_c, 0, 45, 80
2, 53584, Note_on_c, 0, 57, 80
2, 53651, Note_on_c, 0, 69, 0
2, 53651, Note_on_c, 0, 62, 0
2, 53671, Note_on_c, 0, 78, 0
2, 53671, Note_on_c, 0, 45, 0
2, 53699, Note_on_c, 0, 66, 0
2, 53699, Note_on_c, 0, 90, 80
2, 53702, Note_on_c, 0, 57, 0
2, 53702, Note_on_c, 0, 33, 80
2, 53702, Note_on_c, 0, 45, 80
2, 53702, Note_on_c, 0, 69, 80
2, 53702, Note_on_c, 0, 78, 80
2, 53702, Note_on_c, 0, 81, 80
2, 53737, Control_c, 0, 64, 127
2, 53760, Note_on_c, 0, 81, 0
2, 53760, Note_on_c, 0, 69, 0
2, 53760, Note_on_c, 0, 90, 0
2, 53760, Note_on_c, 0, 78, 0
2, 53760, Note_on_c, 0, 73, 80
2, 53760, Note_on_c, 0, 76, 80
2, 53760, Note_on_c, 0, 85, 80
2, 53760, Note_on_c, 0, 88, 80
2, 53822, Note_on_c, 0, 33, 0
2, 53822, Note_on_c, 0, 45, 0
2, 53822, Note_on_c, 0, 57, 80
2, 53822, Note_on_c, 0, 61, 80
2, 53822, Note_on_c, 0, 64, 80
2, 53822, Note_on_c, 0, 67, 80
2, 53842, Control_c, 0, 64, 0
2, 53850, Note_on_c, 0, 67, 0
2, 53850, Note_on_c, 0, 64, 0
2, 53850, Note_on_c, 0, 57, 0
2, 53850, Note_on_c, 0, 73, 0
2, 53850, Note_on_c, 0, 61, 0
2, 53880, Note_on_c, 0, 85, 0
2, 53880, Note_on_c, 0, 76, 0
2, 53880, Note_on_c, 0, 67, 80
2, 53880, Note_on_c, 0, 73, 80
2, 53880, Note_on_c, 0, 79, 80
2, 53883, Note_on_c, 0, 57, 80
2, 53883, Note_on_c, 0, 61, 80
2, 53891, Note_on_c, 0, 88, 0
2, 53940, Note_on_c, 0, 45, 80
2, 53943, Note_on_c, 0, 33, 80
2, 53976, Control_c, 0, 64, 127
2, 54000, Note_on_c, 0, 73, 0
2, 54000, Note_on_c, 0, 57, 0
2, 54000, Note_on_c, 0, 67, 0
2, 54000, Note_on_c, 0, 79, 0
2, 54000, Note_on_c, 0, 61, 0
2, 54000, Note_on_c, 0, 78, 80
2, 54000, Note_on_c, 0, 90, 80
2, 54064, Note_on_c, 0, 90, 0
2, 54067, Note_on_c, 0, 78, 0
2, 54067, Note_on_c, 0, 45, 0
2, 54067, Note_on_c, 0, 67, 80
2, 54067, Note_on_c, 0, 79, 80
2, 54067, Note_on_c, 0, 88, 80
2, 54070, Note_on_c, 0, 33, 0
2, 54070, Note_on_c, 0, 57, 80
2, 54070, Note_on_c, 0, 61, 80
2, 54070, Note_on_c, 0, 76, 80
2, 54093, Control_c, 0, 64, 0
2, 54142, Note_on_c, 0, 61, 0
2, 54142, Note_on_c, 0, 57, 0
2, 54142, Note_on_c, 0, 67, 0
2, 54193, Note_on_c, 0, 88, 0
2, 54193, Note_on_c, 0, 76, 0
2, 54193, Note_on_c, 0, 79, 0
2, 54193, Note_on_c, 0, 62, 80
2, 54193, Note_on_c, 0, 66, 80
2, 54193, Note_on_c, 0, 69, 80
2, 54193, Note_on_c, 0, 74, 80
2, 54193, Note_on_c, 0, 86, 80
2, 54196, Note_on_c, 0, 38, 80
2, 54196, Note_on_c, 0, 50, 80
2, 54264, Note_on_c, 0, 86, 0
2, 54264, Note_on_c, 0, 62, 0
2, 54266, Note_on_c, 0, 74, 0
2, 54287, Note_on_c, 0, 50, 0
2, 54317, Note_on_c, 0, 62, 80
2, 54317, Note_on_c, 0, 74, 80
2, 54317, Note_on_c, 0, 86, 80
2, 54320, Note_on_c, 0, 38, 0
2, 54320, Note_on_c, 0, 50, 80
2, 54346, Note_on_c, 0, 86, 0
2, 54349, Note_on_c, 0, 74, 0
2, 54377, Note_on_c, 0, 74, 80
2, 54377, Note_on_c, 0, 86, 80
2, 54438, Note_on_c, 0, 62, 0
2, 54438, Note_on_c, 0, 50, 0
2, 54438, Note_on_c, 0, 61, 80
2, 54441, Note_on_c, 0, 49, 80
2, 54508, Note_on_c, 0, 69, 0
2, 54508, Note_on_c, 0, 66, 0
2, 54508, Note_on_c, 0, 86, 0
2, 54511, Note_on_c, 0, 74, 0
2, 54563, Note_on_c, 0, 61, 0
2, 54563, Note_on_c, 0, 49, 0
2, 54563, Note_on_c, 0, 60, 80
2, 54563, Note_on_c, 0, 62, 80
2, 54563, Note_on_c, 0, 66, 80
2, 54563, Note_on_c, 0, 69, 80
2, 54563, Note_on_c, 0, 86, 80
2, 54566, Note_on_c, 0, 48, 80
2, 54566, Note_on_c, 0, 74, 80
2, 54633, Note_on_c, 0, 74, 0
2, 54633, Note_on_c, 0, 86, 0
2, 54633, Note_on_c, 0, 62, 0
2, 54633, Note_on_c, 0, 66, 0
2, 54633, Note_on_c, 0, 60, 0
2, 54633, Note_on_c, 0, 48, 0
2, 54633, Note_on_c, 0, 69, 0
2, 54685, Note_on_c, 0, 98, 80
2, 54688, Note_on_c, 0, 47, 80
2, 54688, Note_on_c, 0, 59, 80
2, 54688, Note_on_c, 0, 79, 80
2, 54688, Note_on_c, 0, 86, 80
2, 54716, Note_on_c, 0, 79, 0
2, 54720, Control_c, 0, 64, 127
2, 54744, Note_on_c, 0, 98, 0
2, 54746, Note_on_c, 0, 86, 0
2, 54746, Note_on_c, 0, 83, 80
2, 54746, Note_on_c, 0, 95, 80
2, 54749, Note_on_c, 0, 79, 80
2, 54777, Note_on_c, 0, 59, 0
2, 54808, Note_on_c, 0, 47, 0
2, 54808, Note_on_c, 0, 62, 80
2, 54808, Note_on_c, 0, 67, 80
2, 54811, Note_on_c, 0, 59, 80
2, 54831, Control_c, 0, 64, 0
2, 54864, Note_on_c, 0, 95, 0
2, 54864, Note_on_c, 0, 83, 0
2, 54867, Note_on_c, 0, 79, 0
2, 54867, Note_on_c, 0, 74, 80
2, 54867, Note_on_c, 0, 86, 80
2, 54867, Note_on_c, 0, 98, 80
2, 54878, Note_on_c, 0, 62, 0
2, 54878, Note_on_c, 0, 67, 0
2, 54878, Note_on_c, 0, 59, 0
2, 54930, Note_on_c, 0, 74, 0
2, 54930, Note_on_c, 0, 86, 0
2, 54930, Note_on_c, 0, 98, 0
2, 54930, Note_on_c, 0, 76, 80
2, 54930, Note_on_c, 0, 79, 80
2, 54930, Note_on_c, 0, 88, 80
2, 54933, Note_on_c, 0, 55, 80
2, 54936, Note_on_c, 0, 43, 80
2, 55051, Note_on_c, 0, 88, 0
2, 55051, Note_on_c, 0, 76, 0
2, 55051, Note_on_c, 0, 79, 0
2, 55051, Note_on_c, 0, 86, 80
2, 55051, Note_on_c, 0, 98, 80
2, 55054, Note_on_c, 0, 55, 0
2, 55054, Note_on_c, 0, 43, 0
2, 55054, Note_on_c, 0, 46, 80
2, 55054, Note_on_c, 0, 58, 80
2, 55054, Note_on_c, 0, 62, 80
2, 55054, Note_on_c, 0, 67, 80
2, 55054, Note_on_c, 0, 74, 80
2, 55107, Note_on_c, 0, 86, 0
2, 55107, Note_on_c, 0, 98, 0
2, 55107, Note_on_c, 0, 90, 80
2, 55110, Note_on_c, 0, 74, 0
2, 55110, Note_on_c, 0, 78, 80
2, 55121, Note_on_c, 0, 67, 0
2, 55121, Note_on_c, 0, 62, 0
2, 55173, Note_on_c, 0, 58, 0
2, 55173, Note_on_c, 0, 47, 80
2, 55173, Note_on_c, 0, 59, 80
2, 55176, Note_on_c, 0, 46, 0
2, 55206, Control_c, 0, 64, 127
2, 55232, Note_on_c, 0, 79, 80
2, 55232, Note_on_c, 0, 91, 80
2, 55240, Note_on_c, 0, 90, 0
2, 55243, Note_on_c, 0, 78, 0
2, 55263, Note_on_c, 0, 79, 0
2, 55294, Note_on_c, 0, 83, 80
2, 55294, Note_on_c, 0, 100, 80
2, 55296, Note_on_c, 0, 47, 0
2, 55296, Note_on_c, 0, 59, 0
2, 55296, Note_on_c, 0, 62, 80
2, 55296, Note_on_c, 0, 67, 80
2, 55296, Note_on_c, 0, 71, 80
2, 55296, Note_on_c, 0, 79, 80
2, 55296, Note_on_c, 0, 88, 80
2, 55312, Note_on_c, 0, 91, 0
2, 55315, Control_c, 0, 64, 0
2, 55361, Note_on_c, 0, 67, 0
2, 55361, Note_on_c, 0, 62, 0
2, 55361, Note_on_c, 0, 71, 0
2, 55381, Note_on_c, 0, 83, 0
2, 55412, Note_on_c, 0, 79, 0
2, 55412, Note_on_c, 0, 100, 0
2, 55412, Note_on_c, 0, 88, 0
2, 55412, Note_on_c, 0, 59, 80
2, 55412, Note_on_c, 0, 62, 80
2, 55412, Note_on_c, 0, 67, 80
2, 55412, Note_on_c, 0, 71, 80
2, 55412, Note_on_c, 0, 83, 80
2, 55412, Note_on_c, 0, 86, 80
2, 55412, Note_on_c, 0, 98, 80
2, 55415, Note_on_c, 0, 47, 80
2, 55474, Note_on_c, 0, 98, 0
2, 55474, Note_on_c, 0, 83, 0
2, 55477, Note_on_c, 0, 86, 0
2, 55477, Note_on_c, 0, 71, 0
2, 55477, Note_on_c, 0, 67, 0
2, 55477, Note_on_c, 0, 62, 0
2, 55497, Note_on_c, 0, 59, 0
2, 55523, Note_on_c, 0, 47, 0
2, 55523, Note_on_c, 0, 55, 80
2, 55523, Note_on_c, 0, 59, 80
2, 55523, Note_on_c, 0, 62, 80
2, 55523, Note_on_c, 0, 67, 80
2, 55523, Note_on_c, 0, 79, 80
2, 55523, Note_on_c, 0, 83, 80
2, 55523, Note_on_c, 0, 95, 80
2, 55526, Note_on_c, 0, 43, 80
2, 55587, Note_on_c, 0, 95, 0
2, 55590, Note_on_c, 0, 67, 0
2, 55590, Note_on_c, 0, 79, 0
2, 55590, Note_on_c, 0, 59, 0
2, 55590, Note_on_c, 0, 62, 0
2, 55590, Note_on_c, 0, 83, 0
2, 55644, Note_on_c, 0, 93, 80
2, 55647, Note_on_c, 0, 43, 0
2, 55647, Note_on_c, 0, 55, 0
2, 55647, Note_on_c, 0, 42, 80
2, 55647, Note_on_c, 0, 54, 80
2, 55647, Note_on_c, 0, 78, 80
2, 55647, Note_on_c, 0, 81, 80
2, 55675, Note_on_c, 0, 78, 0
2, 55680, Control_c, 0, 64, 127
2, 55703, Note_on_c, 0, 93, 0
2, 55705, Note_on_c, 0, 81, 0
2, 55705, Note_on_c, 0, 74, 80
2, 55705, Note_on_c, 0, 78, 80
2, 55705, Note_on_c, 0, 90, 80
2, 55767, Note_on_c, 0, 54, 0
2, 55767, Note_on_c, 0, 42, 0
2, 55767, Note_on_c, 0, 57, 80
2, 55767, Note_on_c, 0, 62, 80
2, 55767, Note_on_c, 0, 66, 80
2, 55787, Control_c, 0, 64, 0
2, 55795, Note_on_c, 0, 78, 0
2, 55825, Note_on_c, 0, 90, 0
2, 55825, Note_on_c, 0, 93, 80
2, 55828, Note_on_c, 0, 74, 0
2, 55828, Note_on_c, 0, 78, 80
2, 55828, Note_on_c, 0, 81, 80
2, 55839, Note_on_c, 0, 66, 0
2, 55839, Note_on_c, 0, 57, 0
2, 55839, Note_on_c, 0, 62, 0
2, 55857, Note_on_c, 0, 78, 0
2, 55885, Note_on_c, 0, 93, 0
2, 55888, Note_on_c, 0, 81, 0
2, 55888, Note_on_c, 0, 83, 80
2, 55891, Note_on_c, 0, 45, 80
2, 55891, Note_on_c, 0, 57, 80
2, 55891, Note_on_c, 0, 62, 80
2, 55891, Note_on_c, 0, 66, 80
2, 55891, Note_on_c, 0, 69, 80
2, 55891, Note_on_c, 0, 71, 80
2, 55891, Note_on_c, 0, 78, 80
2, 55960, Note_on_c, 0, 66, 0
2, 55963, Note_on_c, 0, 62, 0
2, 55963, Note_on_c, 0, 69, 0
2, 55983, Note_on_c, 0, 45, 0
2, 56011, Note_on_c, 0, 83, 0
2, 56014, Note_on_c, 0, 57, 0
2, 56014, Note_on_c, 0, 71, 0
2, 56014, Note_on_c, 0, 78, 0
2, 56014, Note_on_c, 0, 62, 80
2, 56014, Note_on_c, 0, 66, 80
2, 56014, Note_on_c, 0, 74, 80
2, 56014, Note_on_c, 0, 81, 80
2, 56014, Note_on_c, 0, 93, 80
2, 56016, Note_on_c, 0, 33, 80
2, 56016, Note_on_c, 0, 45, 80
2, 56016, Note_on_c, 0, 69, 80
2, 56073, Note_on_c, 0, 93, 0
2, 56073, Note_on_c, 0, 81, 0
2, 56076, Note_on_c, 0, 74, 0
2, 56076, Note_on_c, 0, 73, 80
2, 56076, Note_on_c, 0, 78, 80
2, 56076, Note_on_c, 0, 85, 80
2, 56087, Note_on_c, 0, 69, 0
2, 56087, Note_on_c, 0, 62, 0
2, 56087, Note_on_c, 0, 66, 0
2, 56138, Note_on_c, 0, 45, 0
2, 56141, Note_on_c, 0, 33, 0
2, 56141, Note_on_c, 0, 50, 80
2, 56144, Note_on_c, 0, 38, 80
2, 56178, Control_c, 0, 64, 127
2, 56198, Note_on_c, 0, 86, 80
2, 56201, Note_on_c, 0, 74, 80
2, 56208, Note_on_c, 0, 85, 0
2, 56208, Note_on_c, 0, 73, 0
2, 56219, Note_on_c, 0, 78, 0
2, 56260, Note_on_c, 0, 86, 0
2, 56260, Note_on_c, 0, 74, 0
2, 56260, Note_on_c, 0, 66, 80
2, 56260, Note_on_c, 0, 78, 80
2, 56260, Note_on_c, 0, 83, 80
2, 56260, Note_on_c, 0, 95, 80
2, 56263, Note_on_c, 0, 50, 0
2, 56263, Note_on_c, 0, 38, 0
2, 56263, Note_on_c, 0, 57, 80
2, 56263, Note_on_c, 0, 62, 80
2, 56283, Control_c, 0, 64, 0
2, 56329, Note_on_c, 0, 62, 0
2, 56329, Note_on_c, 0, 66, 0
2, 56332, Note_on_c, 0, 57, 0
2, 56351, Note_on_c, 0, 78, 0
2, 56378, Note_on_c, 0, 95, 0
2, 56381, Note_on_c, 0, 83, 0
2, 56381, Note_on_c, 0, 62, 80
2, 56381, Note_on_c, 0, 69, 80
2, 56381, Note_on_c, 0, 78, 80
2, 56381, Note_on_c, 0, 81, 80
2, 56381, Note_on_c, 0, 93, 80
2, 56384, Note_on_c, 0, 42, 80
2, 56384, Note_on_c, 0, 54, 80
2, 56384, Note_on_c, 0, 57, 80
2, 56448, Note_on_c, 0, 93, 0
2, 56451, Note_on_c, 0, 62, 0
2, 56451, Note_on_c, 0, 57, 0
2, 56451, Note_on_c, 0, 81, 0
2, 56451, Note_on_c, 0, 78, 0
2, 56451, Note_on_c, 0, 69, 0
2, 56500, Note_on_c, 0, 92, 80
2, 56503, Note_on_c, 0, 54, 0
2, 56503, Note_on_c, 0, 42, 0
2, 56503, Note_on_c, 0, 41, 80
2, 56503, Note_on_c, 0, 53, 80
2, 56503, Note_on_c, 0, 59, 80
2, 56503, Note_on_c, 0, 62, 80
2, 56503, Note_on_c, 0, 68, 80
2, 56503, Note_on_c, 0, 74, 80
2, 56503, Note_on_c, 0, 80, 80
2, 56568, Note_on_c, 0, 80, 0
2, 56568, Note_on_c, 0, 74, 0
2, 56568, Note_on_c, 0, 62, 0
2, 56568, Note_on_c, 0, 59, 0
2, 56568, Note_on_c, 0, 92, 0
2, 56568, Note_on_c, 0, 68, 0
2, 56614, Note_on_c, 0, 91, 80
2, 56616, Note_on_c, 0, 76, 80
2, 56616, Note_on_c, 0, 79, 80
2, 56619, Note_on_c, 0, 41, 0
2, 56619, Note_on_c, 0, 53, 0
2, 56619, Note_on_c, 0, 40, 80
2, 56619, Note_on_c, 0, 52, 80
2, 56645, Note_on_c, 0, 76, 0
2, 56656, Control_c, 0, 64, 127
2, 56676, Note_on_c, 0, 79, 0
2, 56676, Note_on_c, 0, 91, 0
2, 56676, Note_on_c, 0, 81, 80
2, 56676, Note_on_c, 0, 88, 80
2, 56679, Note_on_c, 0, 69, 80
2, 56679, Note_on_c, 0, 73, 80
2, 56679, Note_on_c, 0, 76, 80
2, 56736, Note_on_c, 0, 52, 0
2, 56736, Note_on_c, 0, 61, 80
2, 56736, Note_on_c, 0, 67, 80
2, 56738, Note_on_c, 0, 40, 0
2, 56738, Note_on_c, 0, 57, 80
2, 56761, Control_c, 0, 64, 0
2, 56766, Note_on_c, 0, 88, 0
2, 56766, Note_on_c, 0, 76, 0
2, 56794, Note_on_c, 0, 73, 0
2, 56794, Note_on_c, 0, 69, 0
2, 56794, Note_on_c, 0, 81, 0
2, 56794, Note_on_c, 0, 79, 80
2, 56794, Note_on_c, 0, 88, 80
2, 56794, Note_on_c, 0, 91, 80
2, 56797, Note_on_c, 0, 76, 80
2, 56805, Note_on_c, 0, 67, 0
2, 56805, Note_on_c, 0, 61, 0
2, 56808, Note_on_c, 0, 57, 0
2, 56826, Note_on_c, 0, 88, 0
2, 56829, Note_on_c, 0, 76, 0
2, 56856, Note_on_c, 0, 79, 0
2, 56856, Note_on_c, 0, 91, 0
2, 56856, Note_on_c, 0, 73, 80
2, 56856, Note_on_c, 0, 81, 80
2, 56856, Note_on_c, 0, 88, 80
2, 56859, Note_on_c, 0, 69, 80
2, 56859, Note_on_c, 0, 76, 80
2, 56862, Note_on_c, 0, 33, 80
2, 56862, Note_on_c, 0, 45, 80
2, 56916, Note_on_c, 0, 76, 0
2, 56916, Note_on_c, 0, 88, 0
2, 56916, Note_on_c, 0, 81, 0
2, 56916, Note_on_c, 0, 79, 80
2, 56916, Note_on_c, 0, 91, 80
2, 56919, Note_on_c, 0, 69, 0
2, 56978, Note_on_c, 0, 73, 0
2, 56978, Note_on_c, 0, 64, 80
2, 56978, Note_on_c, 0, 67, 80
2, 56978, Note_on_c, 0, 76, 80
2, 56981, Note_on_c, 0, 45, 0
2, 56981, Note_on_c, 0, 51, 80
2, 56984, Note_on_c, 0, 33, 0
2, 56984, Note_on_c, 0, 39, 80
2, 57036, Note_on_c, 0, 91, 0
2, 57039, Note_on_c, 0, 79, 0
2, 57039, Note_on_c, 0, 76, 0
2, 57039, Note_on_c, 0, 83, 80
2, 57042, Note_on_c, 0, 71, 80
2, 57049, Note_on_c, 0, 64, 0
2, 57049, Note_on_c, 0, 67, 0
2, 57101, Note_on_c, 0, 51, 0
2, 57101, Note_on_c, 0, 52, 80
2, 57101, Note_on_c, 0, 61, 80
2, 57101, Note_on_c, 0, 76, 80
2, 57104, Note_on_c, 0, 39, 0
2, 57104, Note_on_c, 0, 40, 80
2, 57132, Note_on_c, 0, 61, 0
2, 57140, Control_c, 0, 64, 127
2, 57160, Note_on_c, 0, 73, 80
2, 57160, Note_on_c, 0, 85, 80
2, 57163, Note_on_c, 0, 61, 80
2, 57178, Note_on_c, 0, 83, 0
2, 57181, Note_on_c, 0, 71, 0
2, 57189, Note_on_c, 0, 73, 0
2, 57192, Note_on_c, 0, 61, 0
2, 57222, Note_on_c, 0, 73, 80
2, 57222, Note_on_c, 0, 81, 80
2, 57222, Note_on_c, 0, 93, 80
2, 57225, Note_on_c, 0, 76, 0
2, 57225, Note_on_c, 0, 61, 80
2, 57225, Note_on_c, 0, 64, 80
2, 57225, Note_on_c, 0, 67, 80
2, 57228, Note_on_c, 0, 40, 0
2, 57243, Note_on_c, 0, 85, 0
2, 57246, Note_on_c, 0, 52, 0
2, 57249, Control_c, 0, 64, 0
2, 57254, Note_on_c, 0, 64, 0
2, 57254, Note_on_c, 0, 61, 0
2, 57285, Note_on_c, 0, 61, 80
2, 57295, Note_on_c, 0, 67, 0
2, 57313, Note_on_c, 0, 73, 0
2, 57316, Note_on_c, 0, 61, 0
2, 57342, Note_on_c, 0, 93, 0
2, 57345, Note_on_c, 0, 81, 0
2, 57345, Note_on_c, 0, 61, 80
2, 57345, Note_on_c, 0, 64, 80
2, 57345, Note_on_c, 0, 67, 80
2, 57345, Note_on_c, 0, 73, 80
2, 57345, Note_on_c, 0, 79, 80
2, 57345, Note_on_c, 0, 91, 80
2, 57348, Note_on_c, 0, 45, 80
2, 57348, Note_on_c, 0, 57, 80
2, 57412, Note_on_c, 0, 91, 0
2, 57415, Note_on_c, 0, 73, 0
2, 57415, Note_on_c, 0, 61, 0
2, 57415, Note_on_c, 0, 64, 0
2, 57415, Note_on_c, 0, 67, 0
2, 57415, Note_on_c, 0, 79, 0
2, 57461, Note_on_c, 0, 100, 80
2, 57464, Note_on_c, 0, 88, 80
2, 57467, Note_on_c, 0, 57, 0
2, 57467, Note_on_c, 0, 45, 0
2, 57467, Note_on_c, 0, 43, 80
2, 57467, Note_on_c, 0, 55, 80
2, 57467, Note_on_c, 0, 61, 80
2, 57467, Note_on_c, 0, 64, 80
2, 57467, Note_on_c, 0, 69, 80
2, 57467, Note_on_c, 0, 73, 80
2, 57534, Note_on_c, 0, 100, 0
2, 57534, Note_on_c, 0, 88, 0
2, 57537, Note_on_c, 0, 64, 0
2, 57537, Note_on_c, 0, 73, 0
2, 57537, Note_on_c, 0, 61, 0
2, 57537, Note_on_c, 0, 69, 0
2, 57589, Note_on_c, 0, 88, 80
2, 57589, Note_on_c, 0, 100, 80
2, 57592, Note_on_c, 0, 55, 0
2, 57592, Note_on_c, 0, 43, 0
2, 57592, Note_on_c, 0, 76, 80
2, 57595, Note_on_c, 0, 42, 80
2, 57595, Note_on_c, 0, 54, 80
2, 57628, Control_c, 0, 64, 127
2, 57651, Note_on_c, 0, 76, 0
2, 57651, Note_on_c, 0, 100, 0
2, 57651, Note_on_c, 0, 88, 0
2, 57651, Note_on_c, 0, 86, 80
2, 57651, Note_on_c, 0, 98, 80
2, 57654, Note_on_c, 0, 74, 80
2, 57716, Note_on_c, 0, 54, 0
2, 57716, Note_on_c, 0, 62, 80
2, 57716, Note_on_c, 0, 66, 80
2, 57716, Note_on_c, 0, 69, 80
2, 57719, Note_on_c, 0, 42, 0
2, 57719, Note_on_c, 0, 57, 80
2, 57739, Control_c, 0, 64, 0
2, 57774, Note_on_c, 0, 74, 0
2, 57774, Note_on_c, 0, 98, 0
2, 57774, Note_on_c, 0, 86, 0
2, 57774, Note_on_c, 0, 77, 80
2, 57774, Note_on_c, 0, 85, 80
2, 57774, Note_on_c, 0, 97, 80
2, 57787, Note_on_c, 0, 62, 0
2, 57787, Note_on_c, 0, 69, 0
2, 57787, Note_on_c, 0, 66, 0
2, 57839, Note_on_c, 0, 50, 80
2, 57839, Note_on_c, 0, 56, 80
2, 57839, Note_on_c, 0, 62, 80
2, 57839, Note_on_c, 0, 65, 80
2, 57841, Note_on_c, 0, 38, 80
2, 57849, Note_on_c, 0, 57, 0
2, 57898, Note_on_c, 0, 59, 80
2, 57909, Note_on_c, 0, 65, 0
2, 57909, Note_on_c, 0, 62, 0
2, 57919, Note_on_c, 0, 56, 0
2, 57927, Note_on_c, 0, 77, 0
2, 57958, Note_on_c, 0, 97, 0
2, 57960, Note_on_c, 0, 50, 0
2, 57960, Note_on_c, 0, 85, 0
2, 57960, Note_on_c, 0, 62, 80
2, 57960, Note_on_c, 0, 77, 80
2, 57960, Note_on_c, 0, 83, 80
2, 57960, Note_on_c, 0, 95, 80
2, 57963, Note_on_c, 0, 38, 0
2, 57963, Note_on_c, 0, 53, 80
2, 57963, Note_on_c, 0, 56, 80
2, 57963, Note_on_c, 0, 65, 80
2, 57966, Note_on_c, 0, 41, 80
2, 57982, Note_on_c, 0, 59, 0
2, 57992, Note_on_c, 0, 65, 0
2, 58023, Note_on_c, 0, 65, 80
2, 58043, Note_on_c, 0, 62, 0
2, 58079, Note_on_c, 0, 95, 0
2, 58081, Note_on_c, 0, 77, 0
2, 58081, Note_on_c, 0, 83, 0
2, 58081, Note_on_c, 0, 78, 80
2, 58081, Note_on_c, 0, 81, 80
2, 58081, Note_on_c, 0, 93, 80
2, 58084, Note_on_c, 0, 53, 0
2, 58084, Note_on_c, 0, 65, 0
2, 58084, Note_on_c, 0, 41, 0
2, 58084, Note_on_c, 0, 42, 80
2, 58084, Note_on_c, 0, 54, 80
2, 58084, Note_on_c, 0, 57, 80
2, 58084, Note_on_c, 0, 66, 80
2, 58103, Note_on_c, 0, 56, 0
2, 58110, Note_on_c, 0, 78, 0
2, 58138, Note_on_c, 0, 93, 0
2, 58141, Note_on_c, 0, 81, 0
2, 58141, Note_on_c, 0, 78, 80
2, 58141, Note_on_c, 0, 90, 80
2, 58144, Note_on_c, 0, 74, 80
2, 58152, Note_on_c, 0, 57, 0
2, 58152, Note_on_c, 0, 66, 0
2, 58172, Note_on_c, 0, 78, 0
2, 58200, Note_on_c, 0, 90, 0
2, 58202, Note_on_c, 0, 42, 0
2, 58202, Note_on_c, 0, 74, 0
2, 58202, Note_on_c, 0, 54, 0
2, 58202, Note_on_c, 0, 50, 80
2, 58202, Note_on_c, 0, 62, 80
2, 58202, Note_on_c, 0, 66, 80
2, 58202, Note_on_c, 0, 69, 80
2, 58202, Note_on_c, 0, 78, 80
2, 58202, Note_on_c, 0, 81, 80
2, 58202, Note_on_c, 0, 93, 80
2, 58230, Note_on_c, 0, 78, 0
2, 58258, Note_on_c, 0, 81, 0
2, 58258, Note_on_c, 0, 93, 0
2, 58258, Note_on_c, 0, 78, 80
2, 58258, Note_on_c, 0, 90, 80
2, 58261, Note_on_c, 0, 74, 80
2, 58269, Note_on_c, 0, 66, 0
2, 58272, Note_on_c, 0, 69, 0
2, 58290, Note_on_c, 0, 78, 0
2, 58320, Note_on_c, 0, 90, 0
2, 58320, Note_on_c, 0, 62, 0
2, 58320, Note_on_c, 0, 74, 0
2, 58320, Note_on_c, 0, 93, 80
2, 58323, Note_on_c, 0, 50, 0
2, 58323, Note_on_c, 0, 49, 80
2, 58323, Note_on_c, 0, 61, 80
2, 58323, Note_on_c, 0, 66, 80
2, 58323, Note_on_c, 0, 69, 80
2, 58323, Note_on_c, 0, 78, 80
2, 58323, Note_on_c, 0, 81, 80
2, 58388, Note_on_c, 0, 66, 0
2, 58391, Note_on_c, 0, 69, 0
2, 58437, Note_on_c, 0, 93, 0
2, 58440, Note_on_c, 0, 78, 0
2, 58440, Note_on_c, 0, 49, 0
2, 58440, Note_on_c, 0, 81, 0
2, 58440, Note_on_c, 0, 61, 0
2, 58440, Note_on_c, 0, 60, 80
2, 58440, Note_on_c, 0, 62, 80
2, 58440, Note_on_c, 0, 66, 80
2, 58440, Note_on_c, 0, 69, 80
2, 58440, Note_on_c, 0, 74, 80
2, 58440, Note_on_c, 0, 86, 80
2, 58440, Note_on_c, 0, 98, 80
2, 58442, Note_on_c, 0, 48, 80
2, 58510, Note_on_c, 0, 69, 0
2, 58510, Note_on_c, 0, 66, 0
2, 58510, Note_on_c, 0, 62, 0
2, 58559, Note_on_c, 0, 60, 0
2, 58559, Note_on_c, 0, 74, 0
2, 58559, Note_on_c, 0, 79, 80
2, 58561, Note_on_c, 0, 48, 0
2, 58561, Note_on_c, 0, 47, 80
2, 58561, Note_on_c, 0, 59, 80
2, 58589, Note_on_c, 0, 79, 0
2, 58594, Control_c, 0, 64, 127
2, 58617, Note_on_c, 0, 86, 0
2, 58617, Note_on_c, 0, 98, 0
2, 58617, Note_on_c, 0, 83, 80
2, 58617, Note_on_c, 0, 95, 80
2, 58620, Note_on_c, 0, 79, 80
2, 58681, Note_on_c, 0, 47, 0
2, 58681, Note_on_c, 0, 59, 0
2, 58681, Note_on_c, 0, 62, 80
2, 58681, Note_on_c, 0, 67, 80
2, 58681, Note_on_c, 0, 71, 80
2, 58704, Control_c, 0, 64, 0
2, 58753, Note_on_c, 0, 95, 0
2, 58753, Note_on_c, 0, 79, 0
2, 58753, Note_on_c, 0, 83, 0
2, 58753, Note_on_c, 0, 98, 80
2, 58756, Note_on_c, 0, 62, 0
2, 58756, Note_on_c, 0, 71, 0
2, 58756, Note_on_c, 0, 67, 0
2, 58756, Note_on_c, 0, 74, 80
2, 58756, Note_on_c, 0, 86, 80
2, 58805, Note_on_c, 0, 86, 0
2, 58805, Note_on_c, 0, 74, 0
2, 58805, Note_on_c, 0, 98, 0
2, 58805, Note_on_c, 0, 79, 80
2, 58805, Note_on_c, 0, 88, 80
2, 58808, Note_on_c, 0, 55, 80
2, 58808, Note_on_c, 0, 76, 80
2, 58811, Note_on_c, 0, 43, 80
2, 58926, Note_on_c, 0, 98, 80
2, 58929, Note_on_c, 0, 43, 0
2, 58929, Note_on_c, 0, 76, 0
2, 58929, Note_on_c, 0, 55, 0
2, 58929, Note_on_c, 0, 79, 0
2, 58929, Note_on_c, 0, 88, 0
2, 58929, Note_on_c, 0, 58, 80
2, 58929, Note_on_c, 0, 62, 80
2, 58929, Note_on_c, 0, 67, 80
2, 58929, Note_on_c, 0, 74, 80
2, 58929, Note_on_c, 0, 86, 80
2, 58932, Note_on_c, 0, 46, 80
2, 58989, Note_on_c, 0, 98, 0
2, 58992, Note_on_c, 0, 74, 0
2, 58992, Note_on_c, 0, 86, 0
2, 58992, Note_on_c, 0, 78, 80
2, 58992, Note_on_c, 0, 90, 80
2, 59002, Note_on_c, 0, 67, 0
2, 59002, Note_on_c, 0, 62, 0
2, 59054, Note_on_c, 0, 46, 0
2, 59054, Note_on_c, 0, 58, 0
2, 59054, Note_on_c, 0, 47, 80
2, 59054, Note_on_c, 0, 59, 80
2, 59089, Control_c, 0, 64, 127
2, 59112, Note_on_c, 0, 91, 80
2, 59115, Note_on_c, 0, 79, 80
2, 59123, Note_on_c, 0, 90, 0
2, 59126, Note_on_c, 0, 78, 0
2, 59175, Note_on_c, 0, 59, 0
2, 59175, Note_on_c, 0, 83, 80
2, 59175, Note_on_c, 0, 88, 80
2, 59175, Note_on_c, 0, 100, 80
2, 59178, Note_on_c, 0, 47, 0
2, 59178, Note_on_c, 0, 62, 80
2, 59178, Note_on_c, 0, 67, 80
2, 59178, Note_on_c, 0, 71, 80
2, 59193, Note_on_c, 0, 91, 0
2, 59196, Note_on_c, 0, 79, 0
2, 59199, Control_c, 0, 64, 0
2, 59245, Note_on_c, 0, 67, 0
2, 59245, Note_on_c, 0, 71, 0
2, 59245, Note_on_c, 0, 62, 0
2, 59265, Note_on_c, 0, 83, 0
2, 59296, Note_on_c, 0, 100, 0
2, 59296, Note_on_c, 0, 59, 80
2, 59296, Note_on_c, 0, 62, 80
2, 59296, Note_on_c, 0, 67, 80
2, 59296, Note_on_c, 0, 71, 80
2, 59296, Note_on_c, 0, 83, 80
2, 59296, Note_on_c, 0, 86, 80
2, 59296, Note_on_c, 0, 98, 80
2, 59299, Note_on_c, 0, 47, 80
2, 59306, Note_on_c, 0, 88, 0
2, 59360, Note_on_c, 0, 98, 0
2, 59360, Note_on_c, 0, 83, 0
2, 59363, Note_on_c, 0, 71, 0
2, 59363, Note_on_c, 0, 67, 0
2, 59363, Note_on_c, 0, 62, 0
2, 59371, Note_on_c, 0, 86, 0
2, 59381, Note_on_c, 0, 59, 0
2, 59409, Note_on_c, 0, 83, 80
2, 59409, Note_on_c, 0, 95, 80
2, 59412, Note_on_c, 0, 47, 0
2, 59412, Note_on_c, 0, 59, 80
2, 59412, Note_on_c, 0, 62, 80
2, 59412, Note_on_c, 0, 79, 80
2, 59415, Note_on_c, 0, 43, 80
2, 59415, Note_on_c, 0, 55, 80
2, 59415, Note_on_c, 0, 67, 80
2, 59479, Note_on_c, 0, 67, 0
2, 59479, Note_on_c, 0, 83, 0
2, 59479, Note_on_c, 0, 79, 0
2, 59479, Note_on_c, 0, 62, 0
2, 59479, Note_on_c, 0, 59, 0
2, 59479, Note_on_c, 0, 95, 0
2, 59528, Note_on_c, 0, 93, 80
2, 59531, Note_on_c, 0, 55, 0
2, 59531, Note_on_c, 0, 43, 0
2, 59531, Note_on_c, 0, 78, 80
2, 59531, Note_on_c, 0, 81, 80
2, 59534, Note_on_c, 0, 42, 80
2, 59534, Note_on_c, 0, 54, 80
2, 59562, Note_on_c, 0, 78, 0
2, 59569, Control_c, 0, 64, 127
2, 59588, Note_on_c, 0, 93, 0
2, 59591, Note_on_c, 0, 81, 0
2, 59591, Note_on_c, 0, 90, 80
2, 59593, Note_on_c, 0, 57, 80
2, 59593, Note_on_c, 0, 62, 80
2, 59593, Note_on_c, 0, 66, 80
2, 59593, Note_on_c, 0, 74, 80
2, 59593, Note_on_c, 0, 78, 80
2, 59678, Note_on_c, 0, 78, 0
2, 59678, Note_on_c, 0, 66, 0
2, 59678, Note_on_c, 0, 90, 0
2, 59678, Note_on_c, 0, 62, 0
2, 59681, Note_on_c, 0, 57, 0
2, 59707, Note_on_c, 0, 90, 80
2, 59707, Note_on_c, 0, 93, 80
2, 59710, Note_on_c, 0, 74, 0
2, 59710, Note_on_c, 0, 62, 80
2, 59710, Note_on_c, 0, 66, 80
2, 59710, Note_on_c, 0, 78, 80
2, 59710, Note_on_c, 0, 81, 80
2, 59712, Note_on_c, 0, 57, 80
2, 59736, Note_on_c, 0, 66, 0
2, 59736, Note_on_c, 0, 62, 0
2, 59738, Note_on_c, 0, 57, 0
2, 59766, Note_on_c, 0, 78, 0
2, 59766, Note_on_c, 0, 81, 0
2, 59766, Note_on_c, 0, 93, 0
2, 59766, Note_on_c, 0, 90, 0
2, 59766, Note_on_c, 0, 83, 80
2, 59769, Note_on_c, 0, 42, 0
2, 59769, Note_on_c, 0, 57, 80
2, 59769, Note_on_c, 0, 62, 80
2, 59769, Note_on_c, 0, 66, 80
2, 59769, Note_on_c, 0, 71, 80
2, 59769, Note_on_c, 0, 74, 80
2, 59780, Note_on_c, 0, 54, 0
2, 59803, Control_c, 0, 64, 0
2, 59836, Note_on_c, 0, 66, 0
2, 59836, Note_on_c, 0, 62, 0
2, 59839, Note_on_c, 0, 57, 0
2, 59885, Note_on_c, 0, 93, 80
2, 59888, Note_on_c, 0, 83, 0
2, 59888, Note_on_c, 0, 71, 0
2, 59888, Note_on_c, 0, 78, 80
2, 59888, Note_on_c, 0, 81, 80
2, 59888, Note_on_c, 0, 90, 80
2, 59891, Note_on_c, 0, 74, 0
2, 59891, Note_on_c, 0, 45, 80
2, 59891, Note_on_c, 0, 57, 80
2, 59891, Note_on_c, 0, 62, 80
2, 59891, Note_on_c, 0, 66, 80
2, 59894, Note_on_c, 0, 33, 80
2, 59946, Note_on_c, 0, 93, 0
2, 59946, Note_on_c, 0, 90, 0
2, 59951, Note_on_c, 0, 81, 0
2, 59951, Note_on_c, 0, 78, 0
2, 59951, Note_on_c, 0, 73, 80
2, 59951, Note_on_c, 0, 85, 80
2, 59961, Note_on_c, 0, 66, 0
2, 59961, Note_on_c, 0, 62, 0
2, 59964, Note_on_c, 0, 57, 0
2, 60013, Note_on_c, 0, 45, 0
2, 60013, Note_on_c, 0, 50, 80
2, 60016, Note_on_c, 0, 33, 0
2, 60016, Note_on_c, 0, 38, 80
2, 60049, Control_c, 0, 64, 127
2, 60072, Note_on_c, 0, 74, 80
2, 60072, Note_on_c, 0, 86, 80
2, 60080, Note_on_c, 0, 73, 0
2, 60080, Note_on_c, 0, 85, 0
2, 60134, Note_on_c, 0, 83, 80
2, 60134, Note_on_c, 0, 90, 80
2, 60134, Note_on_c, 0, 95, 80
2, 60137, Note_on_c, 0, 38, 0
2, 60137, Note_on_c, 0, 50, 0
2, 60137, Note_on_c, 0, 57, 80
2, 60137, Note_on_c, 0, 62, 80
2, 60137, Note_on_c, 0, 66, 80
2, 60137, Note_on_c, 0, 78, 80
2, 60152, Note_on_c, 0, 86, 0
2, 60155, Note_on_c, 0, 74, 0
2, 60158, Control_c, 0, 64, 0
2, 60207, Note_on_c, 0, 66, 0
2, 60207, Note_on_c, 0, 57, 0
2, 60207, Note_on_c, 0, 62, 0
2, 60225, Note_on_c, 0, 90, 0
2, 60228, Note_on_c, 0, 78, 0
2, 60256, Note_on_c, 0, 95, 0
2, 60259, Note_on_c, 0, 83, 0
2, 60259, Note_on_c, 0, 78, 80
2, 60259, Note_on_c, 0, 81, 80
2, 60259, Note_on_c, 0, 90, 80
2, 60259, Note_on_c, 0, 93, 80
2, 60262, Note_on_c, 0, 62, 80
2, 60262, Note_on_c, 0, 66, 80
2, 60262, Note_on_c, 0, 69, 80
2, 60264, Note_on_c, 0, 42, 80
2, 60264, Note_on_c, 0, 54, 80
2, 60326, Note_on_c, 0, 93, 0
2, 60331, Note_on_c, 0, 62, 0
2, 60331, Note_on_c, 0, 90, 0
2, 60331, Note_on_c, 0, 66, 0
2, 60331, Note_on_c, 0, 78, 0
2, 60331, Note_on_c, 0, 69, 0
2, 60341, Note_on_c, 0, 81, 0
2, 60383, Note_on_c, 0, 54, 0
2, 60383, Note_on_c, 0, 62, 80
2, 60383, Note_on_c, 0, 66, 80
2, 60383, Note_on_c, 0, 69, 80
2, 60383, Note_on_c, 0, 74, 80
2, 60383, Note_on_c, 0, 78, 80
2, 60383, Note_on_c, 0, 90, 80
2, 60385, Note_on_c, 0, 42, 0
2, 60385, Note_on_c, 0, 45, 80
2, 60385, Note_on_c, 0, 57, 80
2, 60455, Note_on_c, 0, 78, 0
2, 60455, Note_on_c, 0, 74, 0
2, 60455, Note_on_c, 0, 62, 0
2, 60455, Note_on_c, 0, 66, 0
2, 60455, Note_on_c, 0, 69, 0
2, 60455, Note_on_c, 0, 90, 0
2, 60506, Note_on_c, 0, 57, 0
2, 60506, Note_on_c, 0, 45, 0
2, 60506, Note_on_c, 0, 46, 80
2, 60506, Note_on_c, 0, 58, 80
2, 60506, Note_on_c, 0, 74, 80
2, 60540, Note_on_c, 0, 74, 0
2, 60545, Control_c, 0, 64, 127
2, 60568, Note_on_c, 0, 86, 80
2, 60571, Note_on_c, 0, 74, 80
2, 60630, Note_on_c, 0, 86, 0
2, 60633, Note_on_c, 0, 74, 0
2, 60633, Note_on_c, 0, 62, 80
2, 60633, Note_on_c, 0, 65, 80
2, 60633, Note_on_c, 0, 77, 80
2, 60656, Control_c, 0, 64, 0
2, 60661, Note_on_c, 0, 77, 0
2, 60695, Note_on_c, 0, 70, 80
2, 60695, Note_on_c, 0, 77, 80
2, 60695, Note_on_c, 0, 82, 80
2, 60705, Note_on_c, 0, 62, 0
2, 60705, Note_on_c, 0, 65, 0
2, 60705, Note_on_c, 0, 58, 0
2, 60723, Note_on_c, 0, 77, 0
2, 60726, Note_on_c, 0, 46, 0
2, 60757, Note_on_c, 0, 70, 0
2, 60757, Note_on_c, 0, 82, 0
2, 60757, Note_on_c, 0, 77, 80
2, 60757, Note_on_c, 0, 89, 80
2, 60760, Note_on_c, 0, 57, 80
2, 60763, Note_on_c, 0, 45, 80
2, 60796, Control_c, 0, 64, 127
2, 60819, Note_on_c, 0, 89, 0
2, 60819, Note_on_c, 0, 60, 80
2, 60819, Note_on_c, 0, 65, 80
2, 60819, Note_on_c, 0, 69, 80
2, 60819, Note_on_c, 0, 72, 80
2, 60819, Note_on_c, 0, 84, 80
2, 60902, Control_c, 0, 64, 0
2, 60910, Note_on_c, 0, 72, 0
2, 60910, Note_on_c, 0, 60, 0
2, 60910, Note_on_c, 0, 65, 0
2, 60910, Note_on_c, 0, 69, 0
2, 60937, Note_on_c, 0, 77, 0
2, 60937, Note_on_c, 0, 84, 0
2, 60937, Note_on_c, 0, 72, 80
2, 60937, Note_on_c, 0, 86, 80
2, 60940, Note_on_c, 0, 60, 80
2, 60940, Note_on_c, 0, 65, 80
2, 60940, Note_on_c, 0, 69, 80
2, 60940, Note_on_c, 0, 74, 80
2, 60951, Note_on_c, 0, 45, 0
2, 60961, Note_on_c, 0, 57, 0
2, 60969, Note_on_c, 0, 74, 0
2, 60997, Note_on_c, 0, 72, 0
2, 61000, Note_on_c, 0, 60, 0
2, 61000, Note_on_c, 0, 69, 0
2, 61000, Note_on_c, 0, 65, 0
2, 61000, Note_on_c, 0, 58, 80
2, 61000, Note_on_c, 0, 74, 80
2, 61003, Note_on_c, 0, 46, 80
2, 61059, Note_on_c, 0, 74, 0
2, 61059, Note_on_c, 0, 86, 0
2, 61059, Note_on_c, 0, 77, 80
2, 61062, Note_on_c, 0, 65, 80
2, 61090, Note_on_c, 0, 65, 0
2, 61093, Note_on_c, 0, 58, 0
2, 61119, Note_on_c, 0, 77, 0
2, 61119, Note_on_c, 0, 82, 80
2, 61122, Note_on_c, 0, 62, 80
2, 61122, Note_on_c, 0, 65, 80
2, 61122, Note_on_c, 0, 70, 80
2, 61125, Note_on_c, 0, 58, 80
2, 61181, Note_on_c, 0, 70, 0
2, 61181, Note_on_c, 0, 82, 0
2, 61181, Note_on_c, 0, 77, 80
2, 61181, Note_on_c, 0, 89, 80
2, 61192, Note_on_c, 0, 65, 0
2, 61192, Note_on_c, 0, 62, 0
2, 61192, Note_on_c, 0, 58, 0
2, 61241, Note_on_c, 0, 89, 0
2, 61241, Note_on_c, 0, 77, 0
2, 61241, Note_on_c, 0, 66, 80
2, 61241, Note_on_c, 0, 69, 80
2, 61241, Note_on_c, 0, 78, 80
2, 61241, Note_on_c, 0, 81, 80
2, 61241, Note_on_c, 0, 90, 80
2, 61244, Note_on_c, 0, 46, 0
2, 61244, Note_on_c, 0, 33, 80
2, 61244, Note_on_c, 0, 45, 80
2, 61244, Note_on_c, 0, 57, 80
2, 61244, Note_on_c, 0, 62, 80
2, 61303, Note_on_c, 0, 50, 80
2, 61306, Note_on_c, 0, 38, 80
2, 61324, Note_on_c, 0, 45, 0
2, 61324, Note_on_c, 0, 33, 0
2, 61363, Note_on_c, 0, 54, 80
2, 61366, Note_on_c, 0, 42, 80
2, 61384, Note_on_c, 0, 38, 0
2, 61384, Note_on_c, 0, 50, 0
2, 61384, Note_on_c, 0, 57, 0
2, 61422, Note_on_c, 0, 45, 80
2, 61422, Note_on_c, 0, 57, 80
2, 61430, Note_on_c, 0, 81, 0
2, 61430, Note_on_c, 0, 62, 0
2, 61430, Note_on_c, 0, 66, 0
2, 61430, Note_on_c, 0, 78, 0
2, 61430, Note_on_c, 0, 69, 0
2, 61430, Note_on_c, 0, 90, 0
2, 61442, Note_on_c, 0, 42, 0
2, 61442, Note_on_c, 0, 54, 0
2, 61450, Note_on_c, 0, 45, 0
2, 61481, Note_on_c, 0, 57, 0
2, 61481, Note_on_c, 0, 45, 80
2, 61481, Note_on_c, 0, 78, 80
2, 61481, Note_on_c, 0, 90, 80
2, 61484, Note_on_c, 0, 33, 80
2, 61517, Control_c, 0, 64, 127
2, 61540, Note_on_c, 0, 90, 0
2, 61543, Note_on_c, 0, 78, 0
2, 61543, Note_on_c, 0, 79, 80
2, 61543, Note_on_c, 0, 88, 80
2, 61554, Note_on_c, 0, 76, 80
2, 61606, Note_on_c, 0, 45, 0
2, 61606, Note_on_c, 0, 61, 80
2, 61606, Note_on_c, 0, 67, 80
2, 61608, Note_on_c, 0, 33, 0
2, 61608, Note_on_c, 0, 55, 80
2, 61608, Note_on_c, 0, 57, 80
2, 61624, Note_on_c, 0, 79, 0
2, 61629, Control_c, 0, 64, 0
2, 61633, Note_on_c, 0, 67, 0
2, 61664, Note_on_c, 0, 76, 0
2, 61664, Note_on_c, 0, 88, 0
2, 61664, Note_on_c, 0, 79, 80
2, 61667, Note_on_c, 0, 67, 80
2, 61667, Note_on_c, 0, 73, 80
2, 61675, Note_on_c, 0, 61, 0
2, 61678, Note_on_c, 0, 55, 0
2, 61678, Note_on_c, 0, 57, 0
2, 61731, Note_on_c, 0, 45, 80
2, 61734, Note_on_c, 0, 33, 80
2, 61791, Note_on_c, 0, 79, 0
2, 61791, Note_on_c, 0, 73, 0
2, 61791, Note_on_c, 0, 67, 0
2, 61791, Note_on_c, 0, 78, 80
2, 61791, Note_on_c, 0, 90, 80
2, 61826, Note_on_c, 0, 45, 0
2, 61826, Note_on_c, 0, 33, 0
2, 61854, Note_on_c, 0, 78, 0
2, 61854, Note_on_c, 0, 90, 0
2, 61857, Note_on_c, 0, 45, 80
2, 61857, Note_on_c, 0, 55, 80
2, 61857, Note_on_c, 0, 57, 80
2, 61857, Note_on_c, 0, 61, 80
2, 61857, Note_on_c, 0, 67, 80
2, 61857, Note_on_c, 0, 76, 80
2, 61857, Note_on_c, 0, 79, 80
2, 61857, Note_on_c, 0, 88, 80
2, 61860, Note_on_c, 0, 33, 80
2, 61927, Note_on_c, 0, 67, 0
2, 61927, Note_on_c, 0, 61, 0
2, 61927, Note_on_c, 0, 57, 0
2, 61927, Note_on_c, 0, 55, 0
2, 61947, Note_on_c, 0, 33, 0
2, 61947, Note_on_c, 0, 45, 0
2, 61975, Note_on_c, 0, 88, 0
2, 61975, Note_on_c, 0, 79, 0
2, 61975, Note_on_c, 0, 76, 0
2, 61975, Note_on_c, 0, 62, 80
2, 61975, Note_on_c, 0, 66, 80
2, 61975, Note_on_c, 0, 74, 80
2, 61975, Note_on_c, 0, 78, 80
2, 61975, Note_on_c, 0, 86, 80
2, 61978, Note_on_c, 0, 50, 80
2, 61978, Note_on_c, 0, 57, 80
2, 61981, Note_on_c, 0, 38, 80
2, 62045, Note_on_c, 0, 86, 0
2, 62045, Note_on_c, 0, 78, 0
2, 62045, Note_on_c, 0, 62, 0
2, 62045, Note_on_c, 0, 74, 0
2, 62045, Note_on_c, 0, 66, 0
2, 62048, Note_on_c, 0, 57, 0
2, 62068, Note_on_c, 0, 50, 0
2, 62096, Note_on_c, 0, 86, 80
2, 62099, Note_on_c, 0, 62, 80
2, 62099, Note_on_c, 0, 66, 80
2, 62099, Note_on_c, 0, 69, 80
2, 62099, Note_on_c, 0, 74, 80
2, 62102, Note_on_c, 0, 38, 0
2, 62102, Note_on_c, 0, 50, 80
2, 62128, Note_on_c, 0, 86, 0
2, 62131, Note_on_c, 0, 74, 0
2, 62161, Note_on_c, 0, 74, 80
2, 62161, Note_on_c, 0, 86, 80
2, 62172, Note_on_c, 0, 69, 0
2, 62172, Note_on_c, 0, 66, 0
2, 62190, Note_on_c, 0, 62, 0
2, 62221, Note_on_c, 0, 50, 0
2, 62221, Note_on_c, 0, 61, 80
2, 62221, Note_on_c, 0, 66, 80
2, 62221, Note_on_c, 0, 69, 80
2, 62224, Note_on_c, 0, 49, 80
2, 62291, Note_on_c, 0, 69, 0
2, 62291, Note_on_c, 0, 66, 0
2, 62291, Note_on_c, 0, 86, 0
2, 62291, Note_on_c, 0, 74, 0
2, 62340, Note_on_c, 0, 49, 0
2, 62340, Note_on_c, 0, 61, 0
2, 62340, Note_on_c, 0, 48, 80
2, 62340, Note_on_c, 0, 60, 80
2, 62340, Note_on_c, 0, 62, 80
2, 62340, Note_on_c, 0, 66, 80
2, 62340, Note_on_c, 0, 69, 80
2, 62340, Note_on_c, 0, 74, 80
2, 62340, Note_on_c, 0, 86, 80
2, 62340, Note_on_c, 0, 98, 80
2, 62404, Note_on_c, 0, 98, 0
2, 62404, Note_on_c, 0, 86, 0
2, 62404, Note_on_c, 0, 62, 0
2, 62404, Note_on_c, 0, 66, 0
2, 62407, Note_on_c, 0, 69, 0
2, 62407, Note_on_c, 0, 74, 0
2, 62453, Note_on_c, 0, 86, 80
2, 62453, Note_on_c, 0, 98, 80
2, 62456, Note_on_c, 0, 60, 0
2, 62456, Note_on_c, 0, 48, 0
2, 62456, Note_on_c, 0, 79, 80
2, 62459, Note_on_c, 0, 59, 80
2, 62467, Note_on_c, 0, 47, 80
2, 62482, Note_on_c, 0, 79, 0
2, 62490, Control_c, 0, 64, 127
2, 62513, Note_on_c, 0, 98, 0
2, 62513, Note_on_c, 0, 86, 0
2, 62516, Note_on_c, 0, 79, 80
2, 62516, Note_on_c, 0, 83, 80
2, 62523, Note_on_c, 0, 95, 80
2, 62546, Note_on_c, 0, 59, 0
2, 62577, Note_on_c, 0, 47, 0
2, 62577, Note_on_c, 0, 67, 80
2, 62585, Note_on_c, 0, 59, 80
2, 62585, Note_on_c, 0, 62, 80
2, 62597, Control_c, 0, 64, 0
2, 62631, Note_on_c, 0, 83, 0
2, 62631, Note_on_c, 0, 98, 80
2, 62634, Note_on_c, 0, 79, 0
2, 62634, Note_on_c, 0, 74, 80
2, 62641, Note_on_c, 0, 95, 0
2, 62644, Note_on_c, 0, 67, 0
2, 62644, Note_on_c, 0, 86, 80
2, 62652, Note_on_c, 0, 59, 0
2, 62652, Note_on_c, 0, 62, 0
2, 62693, Note_on_c, 0, 98, 0
2, 62693, Note_on_c, 0, 79, 80
2, 62693, Note_on_c, 0, 88, 80
2, 62696, Note_on_c, 0, 74, 0
2, 62696, Note_on_c, 0, 43, 80
2, 62696, Note_on_c, 0, 55, 80
2, 62696, Note_on_c, 0, 76, 80
2, 62704, Note_on_c, 0, 86, 0
2, 62811, Note_on_c, 0, 79, 0
2, 62811, Note_on_c, 0, 88, 0
2, 62811, Note_on_c, 0, 76, 0
2, 62811, Note_on_c, 0, 86, 80
2, 62811, Note_on_c, 0, 98, 80
2, 62814, Note_on_c, 0, 43, 0
2, 62814, Note_on_c, 0, 55, 0
2, 62814, Note_on_c, 0, 46, 80
2, 62814, Note_on_c, 0, 58, 80
2, 62814, Note_on_c, 0, 62, 80
2, 62814, Note_on_c, 0, 67, 80
2, 62814, Note_on_c, 0, 74, 80
2, 62871, Note_on_c, 0, 86, 0
2, 62871, Note_on_c, 0, 98, 0
2, 62874, Note_on_c, 0, 74, 0
2, 62881, Note_on_c, 0, 90, 80
2, 62884, Note_on_c, 0, 62, 0
2, 62884, Note_on_c, 0, 67, 0
2, 62884, Note_on_c, 0, 78, 80
2, 62936, Note_on_c, 0, 58, 0
2, 62936, Note_on_c, 0, 46, 0
2, 62936, Note_on_c, 0, 47, 80
2, 62936, Note_on_c, 0, 59, 80
2, 62970, Control_c, 0, 64, 127
2, 62996, Note_on_c, 0, 79, 80
2, 62996, Note_on_c, 0, 91, 80
2, 63003, Note_on_c, 0, 90, 0
2, 63006, Note_on_c, 0, 78, 0
2, 63024, Note_on_c, 0, 79, 0
2, 63058, Note_on_c, 0, 59, 0
2, 63058, Note_on_c, 0, 47, 0
2, 63058, Note_on_c, 0, 62, 80
2, 63058, Note_on_c, 0, 67, 80
2, 63058, Note_on_c, 0, 71, 80
2, 63058, Note_on_c, 0, 79, 80
2, 63058, Note_on_c, 0, 88, 80
2, 63058, Note_on_c, 0, 100, 80
2, 63069, Note_on_c, 0, 83, 80
2, 63076, Note_on_c, 0, 91, 0
2, 63081, Control_c, 0, 64, 0
2, 63127, Note_on_c, 0, 71, 0
2, 63127, Note_on_c, 0, 62, 0
2, 63127, Note_on_c, 0, 67, 0
2, 63145, Note_on_c, 0, 83, 0
2, 63179, Note_on_c, 0, 100, 0
2, 63179, Note_on_c, 0, 88, 0
2, 63179, Note_on_c, 0, 79, 0
2, 63179, Note_on_c, 0, 71, 80
2, 63179, Note_on_c, 0, 83, 80
2, 63179, Note_on_c, 0, 86, 80
2, 63179, Note_on_c, 0, 98, 80
2, 63182, Note_on_c, 0, 47, 80
2, 63182, Note_on_c, 0, 59, 80
2, 63182, Note_on_c, 0, 62, 80
2, 63182, Note_on_c, 0, 67, 80
2, 63249, Note_on_c, 0, 98, 0
2, 63249, Note_on_c, 0, 86, 0
2, 63249, Note_on_c, 0, 83, 0
2, 63252, Note_on_c, 0, 71, 0
2, 63252, Note_on_c, 0, 67, 0
2, 63252, Note_on_c, 0, 62, 0
2, 63272, Note_on_c, 0, 59, 0
2, 63303, Note_on_c, 0, 47, 0
2, 63303, Note_on_c, 0, 59, 80
2, 63303, Note_on_c, 0, 62, 80
2, 63303, Note_on_c, 0, 67, 80
2, 63303, Note_on_c, 0, 79, 80
2, 63303, Note_on_c, 0, 83, 80
2, 63306, Note_on_c, 0, 43, 80
2, 63306, Note_on_c, 0, 55, 80
2, 63313, Note_on_c, 0, 95, 80
2, 63375, Note_on_c, 0, 95, 0
2, 63375, Note_on_c, 0, 59, 0
2, 63375, Note_on_c, 0, 83, 0
2, 63375, Note_on_c, 0, 79, 0
2, 63375, Note_on_c, 0, 67, 0
2, 63375, Note_on_c, 0, 62, 0
2, 63427, Note_on_c, 0, 55, 0
2, 63427, Note_on_c, 0, 78, 80
2, 63427, Note_on_c, 0, 81, 80
2, 63430, Note_on_c, 0, 43, 0
2, 63430, Note_on_c, 0, 42, 80
2, 63430, Note_on_c, 0, 54, 80
2, 63440, Note_on_c, 0, 93, 80
2, 63460, Note_on_c, 0, 78, 0
2, 63465, Control_c, 0, 64, 127
2, 63491, Note_on_c, 0, 81, 0
2, 63491, Note_on_c, 0, 74, 80
2, 63491, Note_on_c, 0, 78, 80
2, 63491, Note_on_c, 0, 90, 80
2, 63499, Note_on_c, 0, 93, 0
2, 63555, Note_on_c, 0, 54, 0
2, 63555, Note_on_c, 0, 42, 0
2, 63555, Note_on_c, 0, 62, 80
2, 63555, Note_on_c, 0, 66, 80
2, 63558, Note_on_c, 0, 57, 80
2, 63576, Control_c, 0, 64, 0
2, 63584, Note_on_c, 0, 78, 0
2, 63615, Note_on_c, 0, 74, 0
2, 63615, Note_on_c, 0, 90, 0
2, 63615, Note_on_c, 0, 78, 80
2, 63615, Note_on_c, 0, 81, 80
2, 63615, Note_on_c, 0, 93, 80
2, 63625, Note_on_c, 0, 62, 0
2, 63625, Note_on_c, 0, 57, 0
2, 63625, Note_on_c, 0, 66, 0
2, 63646, Note_on_c, 0, 78, 0
2, 63676, Note_on_c, 0, 81, 0
2, 63676, Note_on_c, 0, 93, 0
2, 63676, Note_on_c, 0, 83, 80
2, 63679, Note_on_c, 0, 45, 80
2, 63679, Note_on_c, 0, 57, 80
2, 63679, Note_on_c, 0, 62, 80
2, 63679, Note_on_c, 0, 66, 80
2, 63679, Note_on_c, 0, 69, 80
2, 63679, Note_on_c, 0, 71, 80
2, 63679, Note_on_c, 0, 78, 80
2, 63751, Note_on_c, 0, 69, 0
2, 63751, Note_on_c, 0, 62, 0
2, 63751, Note_on_c, 0, 66, 0
2, 63771, Note_on_c, 0, 45, 0
2, 63802, Note_on_c, 0, 83, 0
2, 63802, Note_on_c, 0, 78, 0
2, 63802, Note_on_c, 0, 71, 0
2, 63802, Note_on_c, 0, 57, 0
2, 63802, Note_on_c, 0, 33, 80
2, 63802, Note_on_c, 0, 45, 80
2, 63802, Note_on_c, 0, 62, 80
2, 63802, Note_on_c, 0, 66, 80
2, 63802, Note_on_c, 0, 74, 80
2, 63802, Note_on_c, 0, 81, 80
2, 63802, Note_on_c, 0, 93, 80
2, 63813, Note_on_c, 0, 69, 80
2, 63859, Note_on_c, 0, 93, 0
2, 63862, Note_on_c, 0, 85, 80
2, 63864, Note_on_c, 0, 78, 80
2, 63872, Note_on_c, 0, 69, 0
2, 63872, Note_on_c, 0, 66, 0
2, 63872, Note_on_c, 0, 62, 0
2, 63872, Note_on_c, 0, 74, 0
2, 63872, Note_on_c, 0, 81, 0
2, 63872, Note_on_c, 0, 73, 80
2, 63921, Note_on_c, 0, 33, 0
2, 63921, Note_on_c, 0, 45, 0
2, 63924, Note_on_c, 0, 38, 80
2, 63924, Note_on_c, 0, 50, 80
2, 63960, Control_c, 0, 64, 127
2, 63985, Note_on_c, 0, 74, 80
2, 63985, Note_on_c, 0, 86, 80
2, 63993, Note_on_c, 0, 73, 0
2, 63993, Note_on_c, 0, 85, 0
2, 64004, Note_on_c, 0, 78, 0
2, 64045, Note_on_c, 0, 50, 0
2, 64045, Note_on_c, 0, 38, 0
2, 64045, Note_on_c, 0, 86, 0
2, 64045, Note_on_c, 0, 74, 0
2, 64045, Note_on_c, 0, 57, 80
2, 64045, Note_on_c, 0, 62, 80
2, 64045, Note_on_c, 0, 66, 80
2, 64045, Note_on_c, 0, 78, 80
2, 64045, Note_on_c, 0, 83, 80
2, 64045, Note_on_c, 0, 95, 80
2, 64065, Control_c, 0, 64, 0
2, 64114, Note_on_c, 0, 66, 0
2, 64114, Note_on_c, 0, 57, 0
2, 64114, Note_on_c, 0, 62, 0
2, 64134, Note_on_c, 0, 78, 0
2, 64154, Note_on_c, 0, 83, 0
2, 64159, Note_on_c, 0, 95, 0
2, 64162, Note_on_c, 0, 42, 80
2, 64162, Note_on_c, 0, 54, 80
2, 64162, Note_on_c, 0, 57, 80
2, 64162, Note_on_c, 0, 62, 80
2, 64162, Note_on_c, 0, 69, 80
2, 64162, Note_on_c, 0, 78, 80
2, 64162, Note_on_c, 0, 81, 80
2, 64162, Note_on_c, 0, 93, 80
2, 64229, Note_on_c, 0, 93, 0
2, 64232, Note_on_c, 0, 81, 0
2, 64232, Note_on_c, 0, 69, 0
2, 64232, Note_on_c, 0, 62, 0
2, 64232, Note_on_c, 0, 57, 0
2, 64232, Note_on_c, 0, 78, 0
2, 64281, Note_on_c, 0, 42, 0
2, 64281, Note_on_c, 0, 54, 0
2, 64281, Note_on_c, 0, 92, 80
2, 64284, Note_on_c, 0, 41, 80
2, 64284, Note_on_c, 0, 53, 80
2, 64284, Note_on_c, 0, 59, 80
2, 64284, Note_on_c, 0, 62, 80
2, 64284, Note_on_c, 0, 68, 80
2, 64284, Note_on_c, 0, 74, 80
2, 64284, Note_on_c, 0, 80, 80
2, 64348, Note_on_c, 0, 68, 0
2, 64348, Note_on_c, 0, 62, 0
2, 64351, Note_on_c, 0, 80, 0
2, 64351, Note_on_c, 0, 59, 0
2, 64351, Note_on_c, 0, 92, 0
2, 64351, Note_on_c, 0, 74, 0
2, 64400, Note_on_c, 0, 41, 0
2, 64400, Note_on_c, 0, 53, 0
2, 64400, Note_on_c, 0, 52, 80
2, 64400, Note_on_c, 0, 76, 80
2, 64400, Note_on_c, 0, 79, 80
2, 64403, Note_on_c, 0, 40, 80
2, 64411, Note_on_c, 0, 91, 80
2, 64434, Note_on_c, 0, 76, 0
2, 64437, Control_c, 0, 64, 127
2, 64463, Note_on_c, 0, 91, 0
2, 64463, Note_on_c, 0, 79, 0
2, 64463, Note_on_c, 0, 69, 80
2, 64463, Note_on_c, 0, 73, 80
2, 64463, Note_on_c, 0, 88, 80
2, 64465, Note_on_c, 0, 76, 80
2, 64473, Note_on_c, 0, 81, 80
2, 64522, Note_on_c, 0, 52, 0
2, 64525, Note_on_c, 0, 40, 0
2, 64525, Note_on_c, 0, 57, 80
2, 64525, Note_on_c, 0, 61, 80
2, 64525, Note_on_c, 0, 67, 80
2, 64543, Control_c, 0, 64, 0
2, 64551, Note_on_c, 0, 76, 0
2, 64563, Note_on_c, 0, 81, 0
2, 64563, Note_on_c, 0, 88, 0
2, 64584, Note_on_c, 0, 79, 80
2, 64584, Note_on_c, 0, 91, 80
2, 64586, Note_on_c, 0, 73, 0
2, 64586, Note_on_c, 0, 69, 0
2, 64586, Note_on_c, 0, 76, 80
2, 64586, Note_on_c, 0, 88, 80
2, 64594, Note_on_c, 0, 57, 0
2, 64594, Note_on_c, 0, 61, 0
2, 64594, Note_on_c, 0, 67, 0
2, 64614, Note_on_c, 0, 76, 0
2, 64614, Note_on_c, 0, 88, 0
2, 64642, Note_on_c, 0, 79, 0
2, 64642, Note_on_c, 0, 91, 0
2, 64642, Note_on_c, 0, 45, 80
2, 64642, Note_on_c, 0, 88, 80
2, 64645, Note_on_c, 0, 33, 80
2, 64645, Note_on_c, 0, 69, 80
2, 64645, Note_on_c, 0, 73, 80
2, 64645, Note_on_c, 0, 76, 80
2, 64645, Note_on_c, 0, 81, 80
2, 64702, Note_on_c, 0, 79, 80
2, 64702, Note_on_c, 0, 91, 80
2, 64704, Note_on_c, 0, 81, 0
2, 64704, Note_on_c, 0, 88, 0
2, 64704, Note_on_c, 0, 76, 0
2, 64704, Note_on_c, 0, 69, 0
2, 64764, Note_on_c, 0, 45, 0
2, 64764, Note_on_c, 0, 73, 0
2, 64764, Note_on_c, 0, 33, 0
2, 64764, Note_on_c, 0, 51, 80
2, 64764, Note_on_c, 0, 67, 80
2, 64767, Note_on_c, 0, 39, 80
2, 64767, Note_on_c, 0, 64, 80
2, 64775, Note_on_c, 0, 76, 80
2, 64826, Note_on_c, 0, 76, 0
2, 64826, Note_on_c, 0, 79, 0
2, 64826, Note_on_c, 0, 91, 0
2, 64826, Note_on_c, 0, 71, 80
2, 64826, Note_on_c, 0, 83, 80
2, 64837, Note_on_c, 0, 64, 0
2, 64837, Note_on_c, 0, 67, 0
2, 64886, Note_on_c, 0, 51, 0
2, 64889, Note_on_c, 0, 39, 0
2, 64889, Note_on_c, 0, 52, 80
2, 64889, Note_on_c, 0, 61, 80
2, 64889, Note_on_c, 0, 76, 80
2, 64892, Note_on_c, 0, 40, 80
2, 64918, Note_on_c, 0, 61, 0
2, 64922, Control_c, 0, 64, 127
2, 64950, Note_on_c, 0, 61, 80
2, 64950, Note_on_c, 0, 73, 80
2, 64950, Note_on_c, 0, 85, 80
2, 64968, Note_on_c, 0, 83, 0
2, 64971, Note_on_c, 0, 71, 0
2, 64982, Note_on_c, 0, 61, 0
2, 64982, Note_on_c, 0, 73, 0
2, 65013, Note_on_c, 0, 76, 0
2, 65013, Note_on_c, 0, 52, 0
2, 65013, Note_on_c, 0, 40, 0
2, 65013, Note_on_c, 0, 61, 80
2, 65013, Note_on_c, 0, 64, 80
2, 65013, Note_on_c, 0, 67, 80
2, 65013, Note_on_c, 0, 73, 80
2, 65013, Note_on_c, 0, 93, 80
2, 65020, Note_on_c, 0, 81, 80
2, 65031, Note_on_c, 0, 85, 0
2, 65034, Control_c, 0, 64, 0
2, 65039, Note_on_c, 0, 61, 0
2, 65039, Note_on_c, 0, 64, 0
2, 65072, Note_on_c, 0, 61, 80
2, 65080, Note_on_c, 0, 67, 0
2, 65100, Note_on_c, 0, 73, 0
2, 65100, Note_on_c, 0, 61, 0
2, 65128, Note_on_c, 0, 93, 0
2, 65131, Note_on_c, 0, 81, 0
2, 65131, Note_on_c, 0, 45, 80
2, 65131, Note_on_c, 0, 57, 80
2, 65131, Note_on_c, 0, 61, 80
2, 65131, Note_on_c, 0, 64, 80
2, 65131, Note_on_c, 0, 67, 80
2, 65131, Note_on_c, 0, 73, 80
2, 65131, Note_on_c, 0, 79, 80
2, 65131, Note_on_c, 0, 91, 80
2, 65200, Note_on_c, 0, 91, 0
2, 65203, Note_on_c, 0, 79, 0
2, 65203, Note_on_c, 0, 67, 0
2, 65203, Note_on_c, 0, 64, 0
2, 65203, Note_on_c, 0, 61, 0
2, 65203, Note_on_c, 0, 73, 0
2, 65255, Note_on_c, 0, 45, 0
2, 65255, Note_on_c, 0, 57, 0
2, 65255, Note_on_c, 0, 43, 80
2, 65255, Note_on_c, 0, 55, 80
2, 65255, Note_on_c, 0, 61, 80
2, 65255, Note_on_c, 0, 64, 80
2, 65255, Note_on_c, 0, 69, 80
2, 65255, Note_on_c, 0, 73, 80
2, 65255, Note_on_c, 0, 88, 80
2, 65255, Note_on_c, 0, 100, 80
2, 65324, Note_on_c, 0, 100, 0
2, 65324, Note_on_c, 0, 73, 0
2, 65324, Note_on_c, 0, 64, 0
2, 65324, Note_on_c, 0, 61, 0
2, 65324, Note_on_c, 0, 69, 0
2, 65331, Note_on_c, 0, 88, 0
2, 65375, Note_on_c, 0, 55, 0
2, 65375, Note_on_c, 0, 43, 0
2, 65377, Note_on_c, 0, 42, 80
2, 65377, Note_on_c, 0, 54, 80
2, 65377, Note_on_c, 0, 76, 80
2, 65377, Note_on_c, 0, 88, 80
2, 65377, Note_on_c, 0, 100, 80
2, 65408, Control_c, 0, 64, 127
2, 65434, Note_on_c, 0, 100, 0
2, 65434, Note_on_c, 0, 76, 0
2, 65434, Note_on_c, 0, 88, 0
2, 65434, Note_on_c, 0, 74, 80
2, 65434, Note_on_c, 0, 86, 80
2, 65434, Note_on_c, 0, 98, 80
2, 65494, Note_on_c, 0, 54, 0
2, 65494, Note_on_c, 0, 42, 0
2, 65494, Note_on_c, 0, 62, 80
2, 65494, Note_on_c, 0, 66, 80
2, 65496, Note_on_c, 0, 57, 80
2, 65496, Note_on_c, 0, 69, 80
2, 65512, Control_c, 0, 64, 0
2, 65555, Note_on_c, 0, 86, 0
2, 65555, Note_on_c, 0, 74, 0
2, 65555, Note_on_c, 0, 77, 80
2, 65555, Note_on_c, 0, 85, 80
2, 65555, Note_on_c, 0, 97, 80
2, 65563, Note_on_c, 0, 66, 0
2, 65563, Note_on_c, 0, 98, 0
2, 65563, Note_on_c, 0, 62, 0
2, 65563, Note_on_c, 0, 69, 0
2, 65615, Note_on_c, 0, 38, 80
2, 65615, Note_on_c, 0, 50, 80
2, 65615, Note_on_c, 0, 56, 80
2, 65615, Note_on_c, 0, 62, 80
2, 65615, Note_on_c, 0, 65, 80
2, 65625, Note_on_c, 0, 57, 0
2, 65685, Note_on_c, 0, 65, 0
2, 65685, Note_on_c, 0, 62, 0
2, 65685, Note_on_c, 0, 59, 80
2, 65692, Note_on_c, 0, 56, 0
2, 65700, Note_on_c, 0, 77, 0
2, 65734, Note_on_c, 0, 38, 0
2, 65734, Note_on_c, 0, 85, 0
2, 65734, Note_on_c, 0, 50, 0
2, 65734, Note_on_c, 0, 41, 80
2, 65734, Note_on_c, 0, 53, 80
2, 65734, Note_on_c, 0, 56, 80
2, 65734, Note_on_c, 0, 62, 80
2, 65734, Note_on_c, 0, 65, 80
2, 65734, Note_on_c, 0, 77, 80
2, 65734, Note_on_c, 0, 83, 80
2, 65734, Note_on_c, 0, 95, 80
2, 65744, Note_on_c, 0, 97, 0
2, 65755, Note_on_c, 0, 59, 0
2, 65765, Note_on_c, 0, 65, 0
2, 65793, Note_on_c, 0, 65, 80
2, 65813, Note_on_c, 0, 62, 0
2, 65852, Note_on_c, 0, 53, 0
2, 65852, Note_on_c, 0, 77, 0
2, 65852, Note_on_c, 0, 65, 0
2, 65852, Note_on_c, 0, 95, 0
2, 65852, Note_on_c, 0, 83, 0
2, 65852, Note_on_c, 0, 41, 0
2, 65852, Note_on_c, 0, 42, 80
2, 65852, Note_on_c, 0, 54, 80
2, 65852, Note_on_c, 0, 57, 80
2, 65852, Note_on_c, 0, 66, 80
2, 65852, Note_on_c, 0, 78, 80
2, 65852, Note_on_c, 0, 81, 80
2, 65852, Note_on_c, 0, 93, 80
2, 65870, Note_on_c, 0, 56, 0
2, 65880, Note_on_c, 0, 78, 0
2, 65911, Note_on_c, 0, 93, 0
2, 65911, Note_on_c, 0, 81, 0
2, 65911, Note_on_c, 0, 78, 80
2, 65911, Note_on_c, 0, 90, 80
2, 65919, Note_on_c, 0, 66, 0
2, 65922, Note_on_c, 0, 57, 0
2, 65922, Note_on_c, 0, 74, 80
2, 65942, Note_on_c, 0, 78, 0
2, 65973, Note_on_c, 0, 90, 0
2, 65976, Note_on_c, 0, 42, 0
2, 65976, Note_on_c, 0, 54, 0
2, 65976, Note_on_c, 0, 74, 0
2, 65976, Note_on_c, 0, 50, 80
2, 65976, Note_on_c, 0, 62, 80
2, 65976, Note_on_c, 0, 66, 80
2, 65976, Note_on_c, 0, 78, 80
2, 65976, Note_on_c, 0, 93, 80
2, 65983, Note_on_c, 0, 69, 80
2, 65983, Note_on_c, 0, 81, 80
2, 66003, Note_on_c, 0, 78, 0
2, 66034, Note_on_c, 0, 93, 0
2, 66034, Note_on_c, 0, 81, 0
2, 66034, Note_on_c, 0, 90, 80
2, 66037, Note_on_c, 0, 74, 80
2, 66037, Note_on_c, 0, 78, 80
2, 66045, Note_on_c, 0, 66, 0
2, 66055, Note_on_c, 0, 69, 0
2, 66066, Note_on_c, 0, 78, 0
2, 66094, Note_on_c, 0, 62, 0
2, 66096, Note_on_c, 0, 50, 0
2, 66096, Note_on_c, 0, 74, 0
2, 66096, Note_on_c, 0, 90, 0
2, 66096, Note_on_c, 0, 49, 80
2, 66096, Note_on_c, 0, 61, 80
2, 66096, Note_on_c, 0, 66, 80
2, 66096, Note_on_c, 0, 69, 80
2, 66096, Note_on_c, 0, 78, 80
2, 66096, Note_on_c, 0, 81, 80
2, 66096, Note_on_c, 0, 93, 80
2, 66166, Note_on_c, 0, 69, 0
2, 66166, Note_on_c, 0, 66, 0
2, 66215, Note_on_c, 0, 81, 0
2, 66215, Note_on_c, 0, 93, 0
2, 66217, Note_on_c, 0, 49, 0
2, 66217, Note_on_c, 0, 78, 0
2, 66217, Note_on_c, 0, 61, 0
2, 66217, Note_on_c, 0, 48, 80
2, 66217, Note_on_c, 0, 60, 80
2, 66217, Note_on_c, 0, 62, 80
2, 66217, Note_on_c, 0, 66, 80
2, 66217, Note_on_c, 0, 69, 80
2, 66217, Note_on_c, 0, 74, 80
2, 66217, Note_on_c, 0, 86, 80
2, 66217, Note_on_c, 0, 98, 80
2, 66285, Note_on_c, 0, 69, 0
2, 66285, Note_on_c, 0, 66, 0
2, 66285, Note_on_c, 0, 62, 0
2, 66336, Note_on_c, 0, 60, 0
2, 66339, Note_on_c, 0, 48, 0
2, 66339, Note_on_c, 0, 74, 0
2, 66339, Note_on_c, 0, 47, 80
2, 66339, Note_on_c, 0, 59, 80
2, 66339, Note_on_c, 0, 79, 80
2, 66370, Note_on_c, 0, 79, 0
2, 66373, Control_c, 0, 64, 127
2, 66401, Note_on_c, 0, 98, 0
2, 66401, Note_on_c, 0, 86, 0
2, 66401, Note_on_c, 0, 83, 80
2, 66413, Note_on_c, 0, 79, 80
2, 66413, Note_on_c, 0, 95, 80
2, 66462, Note_on_c, 0, 47, 0
2, 66462, Note_on_c, 0, 59, 0
2, 66462, Note_on_c, 0, 62, 80
2, 66462, Note_on_c, 0, 67, 80
2, 66462, Note_on_c, 0, 71, 80
2, 66485, Control_c, 0, 64, 0
2, 66527, Note_on_c, 0, 83, 0
2, 66537, Note_on_c, 0, 79, 0
2, 66537, Note_on_c, 0, 62, 0
2, 66537, Note_on_c, 0, 95, 0
2, 66537, Note_on_c, 0, 71, 0
2, 66537, Note_on_c, 0, 67, 0
2, 66537, Note_on_c, 0, 74, 80
2, 66548, Note_on_c, 0, 86, 80
2, 66548, Note_on_c, 0, 98, 80
2, 66586, Note_on_c, 0, 98, 0
2, 66589, Note_on_c, 0, 86, 0
2, 66589, Note_on_c, 0, 74, 0
2, 66589, Note_on_c, 0, 43, 80
2, 66589, Note_on_c, 0, 55, 80
2, 66589, Note_on_c, 0, 76, 80
2, 66589, Note_on_c, 0, 79, 80
2, 66589, Note_on_c, 0, 88, 80
2, 66710, Note_on_c, 0, 88, 0
2, 66710, Note_on_c, 0, 76, 0
2, 66710, Note_on_c, 0, 43, 0
2, 66710, Note_on_c, 0, 55, 0
2, 66710, Note_on_c, 0, 79, 0
2, 66710, Note_on_c, 0, 46, 80
2, 66710, Note_on_c, 0, 58, 80
2, 66710, Note_on_c, 0, 62, 80
2, 66710, Note_on_c, 0, 67, 80
2, 66710, Note_on_c, 0, 74, 80
2, 66710, Note_on_c, 0, 86, 80
2, 66710, Note_on_c, 0, 98, 80
2, 66767, Note_on_c, 0, 98, 0
2, 66767, Note_on_c, 0, 86, 0
2, 66767, Note_on_c, 0, 90, 80
2, 66769, Note_on_c, 0, 74, 0
2, 66769, Note_on_c, 0, 78, 80
2, 66777, Note_on_c, 0, 67, 0
2, 66777, Note_on_c, 0, 62, 0
2, 66829, Note_on_c, 0, 46, 0
2, 66829, Note_on_c, 0, 58, 0
2, 66829, Note_on_c, 0, 47, 80
2, 66832, Note_on_c, 0, 59, 80
2, 66865, Control_c, 0, 64, 127
2, 66893, Note_on_c, 0, 90, 0
2, 66893, Note_on_c, 0, 79, 80
2, 66893, Note_on_c, 0, 91, 80
2, 66904, Note_on_c, 0, 78, 0
2, 66950, Note_on_c, 0, 47, 0
2, 66953, Note_on_c, 0, 59, 0
2, 66953, Note_on_c, 0, 62, 80
2, 66953, Note_on_c, 0, 83, 80
2, 66956, Note_on_c, 0, 67, 80
2, 66956, Note_on_c, 0, 71, 80
2, 66956, Note_on_c, 0, 88, 80
2, 66956, Note_on_c, 0, 100, 80
2, 66968, Note_on_c, 0, 79, 0
2, 66968, Control_c, 0, 64, 0
2, 66979, Note_on_c, 0, 91, 0
2, 67020, Note_on_c, 0, 67, 0
2, 67020, Note_on_c, 0, 62, 0
2, 67020, Note_on_c, 0, 71, 0
2, 67038, Note_on_c, 0, 83, 0
2, 67061, Note_on_c, 0, 100, 0
2, 67072, Note_on_c, 0, 88, 0
2, 67072, Note_on_c, 0, 47, 80
2, 67072, Note_on_c, 0, 59, 80
2, 67072, Note_on_c, 0, 62, 80
2, 67072, Note_on_c, 0, 67, 80
2, 67072, Note_on_c, 0, 71, 80
2, 67082, Note_on_c, 0, 83, 80
2, 67082, Note_on_c, 0, 86, 80
2, 67082, Note_on_c, 0, 98, 80
2, 67139, Note_on_c, 0, 62, 0
2, 67142, Note_on_c, 0, 98, 0
2, 67142, Note_on_c, 0, 83, 0
2, 67142, Note_on_c, 0, 71, 0
2, 67142, Note_on_c, 0, 67, 0
2, 67142, Note_on_c, 0, 86, 0
2, 67160, Note_on_c, 0, 59, 0
2, 67191, Note_on_c, 0, 47, 0
2, 67194, Note_on_c, 0, 43, 80
2, 67194, Note_on_c, 0, 55, 80
2, 67194, Note_on_c, 0, 59, 80
2, 67194, Note_on_c, 0, 62, 80
2, 67194, Note_on_c, 0, 67, 80
2, 67194, Note_on_c, 0, 79, 80
2, 67194, Note_on_c, 0, 83, 80
2, 67194, Note_on_c, 0, 95, 80
2, 67258, Note_on_c, 0, 62, 0
2, 67261, Note_on_c, 0, 95, 0
2, 67261, Note_on_c, 0, 79, 0
2, 67261, Note_on_c, 0, 67, 0
2, 67261, Note_on_c, 0, 59, 0
2, 67261, Note_on_c, 0, 83, 0
2, 67310, Note_on_c, 0, 43, 0
2, 67310, Note_on_c, 0, 55, 0
2, 67310, Note_on_c, 0, 42, 80
2, 67310, Note_on_c, 0, 54, 80
2, 67313, Note_on_c, 0, 78, 80
2, 67313, Note_on_c, 0, 93, 80
2, 67320, Note_on_c, 0, 81, 80
2, 67341, Note_on_c, 0, 78, 0
2, 67341, Control_c, 0, 64, 127
2, 67371, Note_on_c, 0, 93, 0
2, 67371, Note_on_c, 0, 81, 0
2, 67371, Note_on_c, 0, 62, 80
2, 67374, Note_on_c, 0, 57, 80
2, 67374, Note_on_c, 0, 66, 80
2, 67374, Note_on_c, 0, 74, 80
2, 67374, Note_on_c, 0, 78, 80
2, 67374, Note_on_c, 0, 90, 80
2, 67462, Note_on_c, 0, 62, 0
2, 67464, Note_on_c, 0, 90, 0
2, 67464, Note_on_c, 0, 66, 0
2, 67464, Note_on_c, 0, 57, 0
2, 67464, Note_on_c, 0, 78, 0
2, 67492, Note_on_c, 0, 74, 0
2, 67492, Note_on_c, 0, 57, 80
2, 67492, Note_on_c, 0, 62, 80
2, 67492, Note_on_c, 0, 66, 80
2, 67492, Note_on_c, 0, 78, 80
2, 67492, Note_on_c, 0, 81, 80
2, 67492, Note_on_c, 0, 90, 80
2, 67492, Note_on_c, 0, 93, 80
2, 67523, Note_on_c, 0, 66, 0
2, 67523, Note_on_c, 0, 62, 0
2, 67523, Note_on_c, 0, 57, 0
2, 67543, Note_on_c, 0, 42, 0
2, 67554, Note_on_c, 0, 78, 0
2, 67554, Note_on_c, 0, 90, 0
2, 67554, Note_on_c, 0, 93, 0
2, 67554, Note_on_c, 0, 81, 0
2, 67554, Note_on_c, 0, 54, 0
2, 67554, Note_on_c, 0, 57, 80
2, 67554, Note_on_c, 0, 62, 80
2, 67554, Note_on_c, 0, 66, 80
2, 67554, Note_on_c, 0, 71, 80
2, 67554, Note_on_c, 0, 83, 80
2, 67557, Note_on_c, 0, 74, 80
2, 67584, Control_c, 0, 64, 0
2, 67623, Note_on_c, 0, 66, 0
2, 67623, Note_on_c, 0, 57, 0
2, 67623, Note_on_c, 0, 62, 0
2, 67677, Note_on_c, 0, 71, 0
2, 67677, Note_on_c, 0, 83, 0
2, 67677, Note_on_c, 0, 74, 0
2, 67677, Note_on_c, 0, 33, 80
2, 67677, Note_on_c, 0, 45, 80
2, 67677, Note_on_c, 0, 57, 80
2, 67677, Note_on_c, 0, 62, 80
2, 67677, Note_on_c, 0, 66, 80
2, 67677, Note_on_c, 0, 78, 80
2, 67677, Note_on_c, 0, 81, 80
2, 67677, Note_on_c, 0, 90, 80
2, 67677, Note_on_c, 0, 93, 80
2, 67733, Note_on_c, 0, 93, 0
2, 67733, Note_on_c, 0, 90, 0
2, 67733, Note_on_c, 0, 81, 0
2, 67733, Note_on_c, 0, 78, 0
2, 67744, Note_on_c, 0, 62, 0
2, 67744, Note_on_c, 0, 57, 0
2, 67744, Note_on_c, 0, 66, 0
2, 67744, Note_on_c, 0, 85, 80
2, 67747, Note_on_c, 0, 73, 80
2, 67799, Note_on_c, 0, 33, 0
2, 67799, Note_on_c, 0, 45, 0
2, 67799, Note_on_c, 0, 38, 80
2, 67799, Note_on_c, 0, 50, 80
2, 67829, Control_c, 0, 64, 127
2, 67860, Note_on_c, 0, 86, 80
2, 67863, Note_on_c, 0, 74, 80
2, 67871, Note_on_c, 0, 85, 0
2, 67871, Note_on_c, 0, 73, 0
2, 67920, Note_on_c, 0, 50, 0
2, 67920, Note_on_c, 0, 38, 0
2, 67920, Note_on_c, 0, 57, 80
2, 67920, Note_on_c, 0, 62, 80
2, 67920, Note_on_c, 0, 66, 80
2, 67920, Note_on_c, 0, 78, 80
2, 67920, Note_on_c, 0, 83, 80
2, 67920, Note_on_c, 0, 90, 80
2, 67922, Note_on_c, 0, 95, 80
2, 67941, Note_on_c, 0, 74, 0
2, 67941, Note_on_c, 0, 86, 0
2, 67941, Control_c, 0, 64, 0
2, 67990, Note_on_c, 0, 62, 0
2, 67990, Note_on_c, 0, 66, 0
2, 67990, Note_on_c, 0, 57, 0
2, 68010, Note_on_c, 0, 90, 0
2, 68010, Note_on_c, 0, 78, 0
2, 68040, Note_on_c, 0, 83, 0
2, 68040, Note_on_c, 0, 95, 0
2, 68040, Note_on_c, 0, 42, 80
2, 68040, Note_on_c, 0, 54, 80
2, 68040, Note_on_c, 0, 62, 80
2, 68040, Note_on_c, 0, 66, 80
2, 68043, Note_on_c, 0, 69, 80
2, 68043, Note_on_c, 0, 78, 80
2, 68043, Note_on_c, 0, 81, 80
2, 68043, Note_on_c, 0, 90, 80
2, 68043, Note_on_c, 0, 93, 80
2, 68108, Note_on_c, 0, 93, 0
2, 68108, Note_on_c, 0, 66, 0
2, 68108, Note_on_c, 0, 90, 0
2, 68108, Note_on_c, 0, 69, 0
2, 68108, Note_on_c, 0, 81, 0
2, 68108, Note_on_c, 0, 62, 0
2, 68108, Note_on_c, 0, 78, 0
2, 68157, Note_on_c, 0, 42, 0
2, 68160, Note_on_c, 0, 54, 0
2, 68160, Note_on_c, 0, 45, 80
2, 68160, Note_on_c, 0, 57, 80
2, 68160, Note_on_c, 0, 62, 80
2, 68160, Note_on_c, 0, 66, 80
2, 68160, Note_on_c, 0, 69, 80
2, 68160, Note_on_c, 0, 74, 80
2, 68160, Note_on_c, 0, 78, 80
2, 68160, Note_on_c, 0, 90, 80
2, 68227, Note_on_c, 0, 78, 0
2, 68227, Note_on_c, 0, 66, 0
2, 68227, Note_on_c, 0, 62, 0
2, 68227, Note_on_c, 0, 69, 0
2, 68230, Note_on_c, 0, 74, 0
2, 68230, Note_on_c, 0, 90, 0
2, 68279, Note_on_c, 0, 45, 0
2, 68281, Note_on_c, 0, 57, 0
2, 68281, Note_on_c, 0, 46, 80
2, 68284, Note_on_c, 0, 58, 80
2, 68284, Note_on_c, 0, 74, 80
2, 68312, Note_on_c, 0, 74, 0
2, 68340, Note_on_c, 0, 86, 80
2, 68343, Note_on_c, 0, 74, 80
2, 68371, Note_on_c, 0, 58, 0
2, 68401, Note_on_c, 0, 58, 80
2, 68401, Note_on_c, 0, 62, 80
2, 68401, Note_on_c, 0, 65, 80
2, 68401, Note_on_c, 0, 77, 80
2, 68404, Note_on_c, 0, 74, 0
2, 68404, Note_on_c, 0, 86, 0
2, 68430, Note_on_c, 0, 77, 0
2, 68461, Note_on_c, 0, 70, 80
2, 68461, Note_on_c, 0, 77, 80
2, 68461, Note_on_c, 0, 82, 80
2, 68469, Note_on_c, 0, 58, 0
2, 68469, Note_on_c, 0, 62, 0
2, 68473, Note_on_c, 0, 65, 0
2, 68489, Note_on_c, 0, 46, 0
2, 68492, Note_on_c, 0, 77, 0
2, 68520, Note_on_c, 0, 82, 0
2, 68520, Note_on_c, 0, 70, 0
2, 68520, Note_on_c, 0, 45, 80
2, 68520, Note_on_c, 0, 57, 80
2, 68522, Note_on_c, 0, 77, 80
2, 68522, Note_on_c, 0, 89, 80
2, 68582, Note_on_c, 0, 89, 0
2, 68582, Note_on_c, 0, 69, 80
2, 68592, Note_on_c, 0, 60, 80
2, 68592, Note_on_c, 0, 65, 80
2, 68592, Note_on_c, 0, 72, 80
2, 68592, Note_on_c, 0, 84, 80
2, 68669, Note_on_c, 0, 60, 0
2, 68672, Note_on_c, 0, 69, 0
2, 68672, Note_on_c, 0, 65, 0
2, 68672, Note_on_c, 0, 72, 0
2, 68700, Note_on_c, 0, 77, 0
2, 68700, Note_on_c, 0, 60, 80
2, 68700, Note_on_c, 0, 65, 80
2, 68700, Note_on_c, 0, 69, 80
2, 68700, Note_on_c, 0, 72, 80
2, 68700, Note_on_c, 0, 74, 80
2, 68700, Note_on_c, 0, 86, 80
2, 68708, Note_on_c, 0, 45, 0
2, 68711, Note_on_c, 0, 57, 0
2, 68711, Note_on_c, 0, 84, 0
2, 68731, Note_on_c, 0, 74, 0
2, 68759, Note_on_c, 0, 60, 0
2, 68761, Note_on_c, 0, 65, 0
2, 68761, Note_on_c, 0, 72, 0
2, 68761, Note_on_c, 0, 69, 0
2, 68761, Note_on_c, 0, 46, 80
2, 68761, Note_on_c, 0, 58, 80
2, 68761, Note_on_c, 0, 74, 80
2, 68818, Note_on_c, 0, 74, 0
2, 68818, Note_on_c, 0, 86, 0
2, 68818, Note_on_c, 0, 65, 80
2, 68818, Note_on_c, 0, 77, 80
2, 68838, Note_on_c, 0, 58, 0
2, 68849, Note_on_c, 0, 65, 0
2, 68877, Note_on_c, 0, 77, 0
2, 68877, Note_on_c, 0, 58, 80
2, 68877, Note_on_c, 0, 62, 80
2, 68880, Note_on_c, 0, 65, 80
2, 68880, Note_on_c, 0, 70, 80
2, 68880, Note_on_c, 0, 82, 80
2, 68939, Note_on_c, 0, 82, 0
2, 68939, Note_on_c, 0, 70, 0
2, 68939, Note_on_c, 0, 77, 80
2, 68942, Note_on_c, 0, 89, 80
2, 68947, Note_on_c, 0, 62, 0
2, 68947, Note_on_c, 0, 65, 0
2, 68947, Note_on_c, 0, 58, 0
2, 68993, Note_on_c, 0, 46, 0
2, 68996, Note_on_c, 0, 77, 0
2, 68996, Note_on_c, 0, 45, 80
2, 68996, Note_on_c, 0, 57, 80
2, 68996, Note_on_c, 0, 62, 80
2, 68996, Note_on_c, 0, 66, 80
2, 68996, Note_on_c, 0, 69, 80
2, 68999, Note_on_c, 0, 89, 0
2, 68999, Note_on_c, 0, 78, 80
2, 68999, Note_on_c, 0, 81, 80
2, 68999, Note_on_c, 0, 90, 80
2, 69006, Note_on_c, 0, 33, 80
2, 69052, Note_on_c, 0, 38, 80
2, 69052, Note_on_c, 0, 50, 80
2, 69072, Note_on_c, 0, 33, 0
2, 69072, Note_on_c, 0, 45, 0
2, 69108, Note_on_c, 0, 42, 80
2, 69111, Note_on_c, 0, 54, 80
2, 69121, Note_on_c, 0, 38, 0
2, 69124, Note_on_c, 0, 50, 0
2, 69135, Note_on_c, 0, 57, 0
2, 69170, Note_on_c, 0, 45, 80
2, 69173, Note_on_c, 0, 57, 80
2, 69181, Note_on_c, 0, 42, 0
2, 69184, Note_on_c, 0, 62, 0
2, 69184, Note_on_c, 0, 69, 0
2, 69184, Note_on_c, 0, 54, 0
2, 69184, Note_on_c, 0, 81, 0
2, 69184, Note_on_c, 0, 78, 0
2, 69184, Note_on_c, 0, 66, 0
2, 69187, Note_on_c, 0, 90, 0
2, 69202, Note_on_c, 0, 45, 0
2, 69236, Note_on_c, 0, 57, 0
2, 69236, Note_on_c, 0, 45, 80
2, 69239, Note_on_c, 0, 78, 80
2, 69241, Note_on_c, 0, 90, 80
2, 69246, Note_on_c, 0, 33, 80
2, 69269, Control_c, 0, 64, 127
2, 69303, Note_on_c, 0, 90, 0
2, 69303, Note_on_c, 0, 78, 0
2, 69313, Note_on_c, 0, 76, 80
2, 69313, Note_on_c, 0, 79, 80
2, 69313, Note_on_c, 0, 88, 80
2, 69360, Note_on_c, 0, 45, 0
2, 69360, Note_on_c, 0, 33, 0
2, 69362, Note_on_c, 0, 55, 80
2, 69362, Note_on_c, 0, 57, 80
2, 69362, Note_on_c, 0, 61, 80
2, 69362, Note_on_c, 0, 67, 80
2, 69381, Control_c, 0, 64, 0
2, 69385, Note_on_c, 0, 79, 0
2, 69393, Note_on_c, 0, 67, 0
2, 69427, Note_on_c, 0, 88, 0
2, 69427, Note_on_c, 0, 76, 0
2, 69427, Note_on_c, 0, 67, 80
2, 69430, Note_on_c, 0, 73, 80
2, 69430, Note_on_c, 0, 79, 80
2, 69434, Note_on_c, 0, 55, 0
2, 69434, Note_on_c, 0, 61, 0
2, 69437, Note_on_c, 0, 57, 0
2, 69486, Note_on_c, 0, 33, 80
2, 69486, Note_on_c, 0, 45, 80
2, 69551, Note_on_c, 0, 67, 0
2, 69553, Note_on_c, 0, 79, 0
2, 69553, Note_on_c, 0, 73, 0
2, 69553, Note_on_c, 0, 78, 80
2, 69553, Note_on_c, 0, 90, 80
2, 69579, Note_on_c, 0, 33, 0
2, 69579, Note_on_c, 0, 45, 0
2, 69615, Note_on_c, 0, 33, 80
2, 69615, Note_on_c, 0, 45, 80
2, 69618, Note_on_c, 0, 78, 0
2, 69618, Note_on_c, 0, 90, 0
2, 69618, Note_on_c, 0, 55, 80
2, 69618, Note_on_c, 0, 57, 80
2, 69618, Note_on_c, 0, 61, 80
2, 69618, Note_on_c, 0, 67, 80
2, 69618, Note_on_c, 0, 79, 80
2, 69621, Note_on_c, 0, 76, 80
2, 69621, Note_on_c, 0, 88, 80
2, 69685, Note_on_c, 0, 67, 0
2, 69685, Note_on_c, 0, 57, 0
2, 69685, Note_on_c, 0, 55, 0
2, 69685, Note_on_c, 0, 61, 0
2, 69703, Note_on_c, 0, 33, 0
2, 69706, Note_on_c, 0, 45, 0
2, 69729, Note_on_c, 0, 76, 0
2, 69737, Note_on_c, 0, 38, 80
2, 69737, Note_on_c, 0, 50, 80
2, 69737, Note_on_c, 0, 62, 80
2, 69740, Note_on_c, 0, 79, 0
2, 69740, Note_on_c, 0, 88, 0
2, 69740, Note_on_c, 0, 57, 80
2, 69740, Note_on_c, 0, 66, 80
2, 69740, Note_on_c, 0, 69, 80
2, 69740, Note_on_c, 0, 74, 80
2, 69740, Note_on_c, 0, 81, 80
2, 69740, Note_on_c, 0, 86, 80
2, 69804, Note_on_c, 0, 57, 0
2, 69804, Note_on_c, 0, 50, 0
2, 69804, Note_on_c, 0, 62, 0
2, 69804, Note_on_c, 0, 38, 0
2, 69807, Note_on_c, 0, 69, 0
2, 69807, Note_on_c, 0, 66, 0
2, 69807, Note_on_c, 0, 81, 0
2, 69807, Note_on_c, 0, 74, 0
2, 69810, Note_on_c, 0, 86, 0
2, 69836, Note_on_c, 0, 44, 80
2, 69836, Note_on_c, 0, 56, 80
2, 69854, Note_on_c, 0, 45, 80
2, 69857, Note_on_c, 0, 57, 80
2, 69864, Note_on_c, 0, 56, 0
2, 69864, Note_on_c, 0, 44, 0
2, 69924, Note_on_c, 0, 45, 0
2, 69927, Note_on_c, 0, 57, 0
2, 69979, Note_on_c, 0, 38, 80
2, 69979, Note_on_c, 0, 50, 80
2, 69979, Note_on_c, 0, 57, 80
2, 69979, Note_on_c, 0, 62, 80
2, 69982, Note_on_c, 0, 66, 80
2, 69982, Note_on_c, 0, 69, 80
2, 69982, Note_on_c, 0, 74, 80
2, 69982, Note_on_c, 0, 78, 80
2, 69982, Note_on_c, 0, 81, 80
2, 69982, Note_on_c, 0, 86, 80
2, 69984, Note_on_c, 0, 98, 80
2, 70044, Note_on_c, 0, 50, 0
2, 70044, Note_on_c, 0, 38, 0
2, 70049, Note_on_c, 0, 62, 0
2, 70049, Note_on_c, 0, 66, 0
2, 70049, Note_on_c, 0, 69, 0
2, 70049, Note_on_c, 0, 57, 0
2, 70052, Note_on_c, 0, 78, 0
2, 70052, Note_on_c, 0, 86, 0
2, 70052, Note_on_c, 0, 98, 0
2, 70052, Note_on_c, 0, 74, 0
2, 70052, Note_on_c, 0, 81, 0
2, 70052, End_track
3, 0, Start_track
3, 0, Title_t, "c/b Scott Joplin"
3, 0, End_track
4, 0, Start_track
4, 0, Title_t, "p/b "
4, 0, End_track
5, 0, Start_track
5, 0, Title_t, "Cable # 12623"
5, 0, End_track
6, 0, Start_track
6, 0, Title_t, "Scan of a player piano roll"
6, 0, End_track
7, 0, Start_track
7, 0, Title_t, "by Terry Smythe, Winnipeg, Canada"
7, 0, End_track
8, 0, Start_track
8, 1, Copyright_t, "___________________________________________________\012\012KUNSTDERFUGE.COM LARGE CLASSICAL MIDI COLLECTION\012ONCLASSICAL BY ALESSANDRO SIMONETTO, PROPRIETOR\012___________________________________________________\012\012! Attention: this file is under copyright !\012\012(c)onclassical, (nc)smythe, 2010\012___________________________________________________\012\012NO ONE MAY REPUBLISH THIS FILE WITHOUT PERMISSION\012COMMERCIAL USES OF THIS FILE IS STRICTLY PROHIBITED\012___________________________________________________\012\012Files & contributor's list: http://kunstderfuge.com/\012Terms and conditions: http://kunstderfuge.com/notes.htm"
8, 1, End_track
0, 0, End_of_file
