0, 0, Header, 1, 8, 192
1, 0, Start_track
1, 0, Title_t, "64542S"
1, 0, Copyright_t, "May NOT be used for commercial purposes."
1, 0, Text_t, "Roll expression/accent tracks, where present, converted to MIDI velocties.\012"
1, 0, Time_signature, 4, 2, 24, 8
1, 0, Key_signature, 0, "major"
1, 0, Tempo, 500000
1, 0, Marker_t, "Standard MIDI:LPI 128:Tempo  65: 10-29-2003"
1, 0, End_track
2, 0, Start_track
2, 0, Title_t, "Hilarity Rag (1910)"
2, 216, Note_on_c, 0, 86, 80
2, 235, Note_on_c, 0, 74, 80
2, 330, Note_on_c, 0, 86, 0
2, 335, Note_on_c, 0, 74, 0
2, 336, Note_on_c, 0, 91, 80
2, 338, Note_on_c, 0, 43, 80
2, 340, Note_on_c, 0, 55, 80
2, 382, Note_on_c, 0, 55, 0
2, 384, Note_on_c, 0, 91, 0
2, 390, Note_on_c, 0, 79, 80
2, 390, Note_on_c, 0, 83, 80
2, 392, Note_on_c, 0, 86, 80
2, 432, Note_on_c, 0, 43, 0
2, 436, Note_on_c, 0, 50, 80
2, 436, Note_on_c, 0, 55, 80
2, 441, Note_on_c, 0, 59, 80
2, 487, Note_on_c, 0, 79, 0
2, 487, Note_on_c, 0, 86, 0
2, 487, Note_on_c, 0, 83, 0
2, 494, Note_on_c, 0, 88, 80
2, 535, Note_on_c, 0, 88, 0
2, 535, Note_on_c, 0, 59, 0
2, 535, Note_on_c, 0, 55, 0
2, 535, Note_on_c, 0, 50, 0
2, 542, Note_on_c, 0, 83, 80
2, 544, Note_on_c, 0, 45, 80
2, 544, Note_on_c, 0, 57, 80
2, 544, Note_on_c, 0, 79, 80
2, 546, Note_on_c, 0, 76, 80
2, 638, Note_on_c, 0, 57, 0
2, 643, Note_on_c, 0, 83, 0
2, 643, Note_on_c, 0, 76, 0
2, 643, Note_on_c, 0, 45, 0
2, 645, Note_on_c, 0, 79, 0
2, 645, Note_on_c, 0, 58, 80
2, 649, Note_on_c, 0, 46, 80
2, 649, Note_on_c, 0, 86, 80
2, 694, Note_on_c, 0, 86, 0
2, 698, Note_on_c, 0, 74, 80
2, 698, Note_on_c, 0, 79, 80
2, 698, Note_on_c, 0, 83, 80
2, 743, Note_on_c, 0, 58, 0
2, 747, Note_on_c, 0, 46, 0
2, 747, Note_on_c, 0, 83, 0
2, 752, Note_on_c, 0, 47, 80
2, 754, Note_on_c, 0, 59, 80
2, 791, Note_on_c, 0, 59, 0
2, 797, Note_on_c, 0, 79, 0
2, 797, Note_on_c, 0, 74, 0
2, 802, Note_on_c, 0, 83, 80
2, 848, Note_on_c, 0, 47, 0
2, 853, Note_on_c, 0, 83, 0
2, 855, Note_on_c, 0, 50, 80
2, 857, Note_on_c, 0, 55, 80
2, 857, Note_on_c, 0, 59, 80
2, 857, Note_on_c, 0, 71, 80
2, 857, Note_on_c, 0, 74, 80
2, 857, Note_on_c, 0, 79, 80
2, 901, Note_on_c, 0, 79, 0
2, 901, Note_on_c, 0, 71, 0
2, 906, Note_on_c, 0, 74, 0
2, 952, Note_on_c, 0, 59, 0
2, 952, Note_on_c, 0, 50, 0
2, 957, Note_on_c, 0, 55, 0
2, 959, Note_on_c, 0, 52, 80
2, 960, Note_on_c, 0, 67, 80
2, 960, Note_on_c, 0, 72, 80
2, 962, Note_on_c, 0, 76, 80
2, 962, Note_on_c, 0, 79, 80
2, 964, Note_on_c, 0, 40, 80
2, 1004, Note_on_c, 0, 72, 0
2, 1006, Note_on_c, 0, 76, 0
2, 1052, Note_on_c, 0, 52, 0
2, 1054, Note_on_c, 0, 67, 0
2, 1054, Note_on_c, 0, 40, 0
2, 1056, Note_on_c, 0, 79, 0
2, 1060, Note_on_c, 0, 64, 80
2, 1060, Note_on_c, 0, 69, 80
2, 1060, Note_on_c, 0, 72, 80
2, 1060, Note_on_c, 0, 76, 80
2, 1062, Note_on_c, 0, 48, 80
2, 1067, Note_on_c, 0, 36, 80
2, 1152, Note_on_c, 0, 69, 0
2, 1157, Note_on_c, 0, 72, 0
2, 1157, Note_on_c, 0, 76, 0
2, 1157, Note_on_c, 0, 64, 0
2, 1157, Note_on_c, 0, 36, 0
2, 1157, Note_on_c, 0, 48, 0
2, 1162, Note_on_c, 0, 47, 80
2, 1162, Note_on_c, 0, 74, 80
2, 1164, Note_on_c, 0, 35, 80
2, 1212, Note_on_c, 0, 74, 0
2, 1214, Note_on_c, 0, 71, 80
2, 1219, Note_on_c, 0, 62, 80
2, 1219, Note_on_c, 0, 67, 80
2, 1247, Note_on_c, 0, 35, 0
2, 1263, Note_on_c, 0, 47, 0
2, 1263, Note_on_c, 0, 50, 80
2, 1263, Note_on_c, 0, 55, 80
2, 1268, Note_on_c, 0, 59, 80
2, 1307, Note_on_c, 0, 71, 0
2, 1309, Note_on_c, 0, 62, 0
2, 1311, Note_on_c, 0, 55, 0
2, 1311, Note_on_c, 0, 50, 0
2, 1311, Note_on_c, 0, 59, 0
2, 1316, Note_on_c, 0, 67, 0
2, 1320, Note_on_c, 0, 76, 80
2, 1365, Note_on_c, 0, 50, 80
2, 1367, Note_on_c, 0, 59, 80
2, 1368, Note_on_c, 0, 55, 80
2, 1368, Note_on_c, 0, 64, 80
2, 1368, Note_on_c, 0, 71, 80
2, 1370, Note_on_c, 0, 67, 80
2, 1415, Note_on_c, 0, 55, 0
2, 1415, Note_on_c, 0, 59, 0
2, 1415, Note_on_c, 0, 50, 0
2, 1472, Note_on_c, 0, 50, 80
2, 1569, Note_on_c, 0, 50, 0
2, 1571, Note_on_c, 0, 76, 0
2, 1571, Note_on_c, 0, 67, 0
2, 1571, Note_on_c, 0, 71, 0
2, 1573, Note_on_c, 0, 43, 80
2, 1575, Note_on_c, 0, 64, 0
2, 1575, Note_on_c, 0, 55, 80
2, 1623, Note_on_c, 0, 55, 0
2, 1676, Note_on_c, 0, 43, 0
2, 1676, Note_on_c, 0, 50, 80
2, 1680, Note_on_c, 0, 55, 80
2, 1680, Note_on_c, 0, 59, 80
2, 1680, Note_on_c, 0, 62, 80
2, 1680, Note_on_c, 0, 74, 80
2, 1725, Note_on_c, 0, 59, 0
2, 1725, Note_on_c, 0, 55, 0
2, 1727, Note_on_c, 0, 50, 0
2, 1777, Note_on_c, 0, 74, 0
2, 1777, Note_on_c, 0, 62, 0
2, 1782, Note_on_c, 0, 47, 80
2, 1782, Note_on_c, 0, 59, 80
2, 1784, Note_on_c, 0, 64, 80
2, 1784, Note_on_c, 0, 76, 80
2, 1879, Note_on_c, 0, 76, 0
2, 1879, Note_on_c, 0, 47, 0
2, 1879, Note_on_c, 0, 59, 0
2, 1881, Note_on_c, 0, 65, 80
2, 1883, Note_on_c, 0, 64, 0
2, 1883, Note_on_c, 0, 44, 80
2, 1883, Note_on_c, 0, 56, 80
2, 1888, Note_on_c, 0, 77, 80
2, 1978, Note_on_c, 0, 56, 0
2, 1978, Note_on_c, 0, 44, 0
2, 1980, Note_on_c, 0, 77, 0
2, 1982, Note_on_c, 0, 65, 0
2, 1982, Note_on_c, 0, 57, 80
2, 1984, Note_on_c, 0, 78, 80
2, 1986, Note_on_c, 0, 45, 80
2, 2027, Note_on_c, 0, 78, 0
2, 2027, Note_on_c, 0, 57, 0
2, 2034, Note_on_c, 0, 66, 80
2, 2034, Note_on_c, 0, 72, 80
2, 2034, Note_on_c, 0, 76, 80
2, 2078, Note_on_c, 0, 45, 0
2, 2080, Note_on_c, 0, 50, 80
2, 2080, Note_on_c, 0, 60, 80
2, 2082, Note_on_c, 0, 54, 80
2, 2082, Note_on_c, 0, 57, 80
2, 2126, Note_on_c, 0, 57, 0
2, 2126, Note_on_c, 0, 60, 0
2, 2126, Note_on_c, 0, 72, 0
2, 2126, Note_on_c, 0, 66, 0
2, 2126, Note_on_c, 0, 76, 0
2, 2126, Note_on_c, 0, 54, 0
2, 2126, Note_on_c, 0, 50, 0
2, 2133, Note_on_c, 0, 78, 80
2, 2177, Note_on_c, 0, 78, 0
2, 2184, Note_on_c, 0, 50, 80
2, 2184, Note_on_c, 0, 57, 80
2, 2184, Note_on_c, 0, 66, 80
2, 2184, Note_on_c, 0, 72, 80
2, 2188, Note_on_c, 0, 54, 80
2, 2188, Note_on_c, 0, 60, 80
2, 2188, Note_on_c, 0, 74, 80
2, 2236, Note_on_c, 0, 50, 0
2, 2282, Note_on_c, 0, 54, 0
2, 2282, Note_on_c, 0, 66, 0
2, 2284, Note_on_c, 0, 72, 0
2, 2284, Note_on_c, 0, 57, 0
2, 2284, Note_on_c, 0, 60, 0
2, 2284, Note_on_c, 0, 74, 0
2, 2286, Note_on_c, 0, 50, 80
2, 2293, Note_on_c, 0, 38, 80
2, 2390, Note_on_c, 0, 38, 0
2, 2395, Note_on_c, 0, 50, 0
2, 2400, Note_on_c, 0, 45, 80
2, 2401, Note_on_c, 0, 57, 80
2, 2449, Note_on_c, 0, 57, 0
2, 2500, Note_on_c, 0, 45, 0
2, 2505, Note_on_c, 0, 50, 80
2, 2505, Note_on_c, 0, 54, 80
2, 2505, Note_on_c, 0, 62, 80
2, 2505, Note_on_c, 0, 74, 80
2, 2507, Note_on_c, 0, 57, 80
2, 2507, Note_on_c, 0, 60, 80
2, 2558, Note_on_c, 0, 57, 0
2, 2609, Note_on_c, 0, 54, 0
2, 2609, Note_on_c, 0, 62, 0
2, 2609, Note_on_c, 0, 50, 0
2, 2609, Note_on_c, 0, 60, 0
2, 2609, Note_on_c, 0, 74, 0
2, 2616, Note_on_c, 0, 45, 80
2, 2616, Note_on_c, 0, 57, 80
2, 2616, Note_on_c, 0, 64, 80
2, 2620, Note_on_c, 0, 76, 80
2, 2715, Note_on_c, 0, 57, 0
2, 2715, Note_on_c, 0, 45, 0
2, 2720, Note_on_c, 0, 64, 0
2, 2720, Note_on_c, 0, 76, 0
2, 2720, Note_on_c, 0, 46, 80
2, 2722, Note_on_c, 0, 58, 80
2, 2722, Note_on_c, 0, 66, 80
2, 2722, Note_on_c, 0, 78, 80
2, 2766, Note_on_c, 0, 78, 0
2, 2766, Note_on_c, 0, 66, 0
2, 2827, Note_on_c, 0, 58, 0
2, 2827, Note_on_c, 0, 46, 0
2, 2832, Note_on_c, 0, 47, 80
2, 2832, Note_on_c, 0, 59, 80
2, 2832, Note_on_c, 0, 78, 80
2, 2878, Note_on_c, 0, 78, 0
2, 2878, Note_on_c, 0, 59, 0
2, 2887, Note_on_c, 0, 67, 80
2, 2889, Note_on_c, 0, 71, 80
2, 2889, Note_on_c, 0, 76, 80
2, 2933, Note_on_c, 0, 47, 0
2, 2938, Note_on_c, 0, 59, 80
2, 2940, Note_on_c, 0, 50, 80
2, 2940, Note_on_c, 0, 55, 80
2, 2981, Note_on_c, 0, 55, 0
2, 2981, Note_on_c, 0, 71, 0
2, 2983, Note_on_c, 0, 59, 0
2, 2985, Note_on_c, 0, 76, 0
2, 2985, Note_on_c, 0, 67, 0
2, 2985, Note_on_c, 0, 50, 0
2, 2990, Note_on_c, 0, 78, 80
2, 3036, Note_on_c, 0, 78, 0
2, 3041, Note_on_c, 0, 50, 80
2, 3041, Note_on_c, 0, 55, 80
2, 3041, Note_on_c, 0, 59, 80
2, 3043, Note_on_c, 0, 71, 80
2, 3045, Note_on_c, 0, 67, 80
2, 3045, Note_on_c, 0, 74, 80
2, 3086, Note_on_c, 0, 50, 0
2, 3137, Note_on_c, 0, 71, 0
2, 3137, Note_on_c, 0, 55, 0
2, 3137, Note_on_c, 0, 59, 0
2, 3142, Note_on_c, 0, 74, 0
2, 3142, Note_on_c, 0, 67, 0
2, 3144, Note_on_c, 0, 50, 80
2, 3145, Note_on_c, 0, 38, 80
2, 3238, Note_on_c, 0, 38, 0
2, 3242, Note_on_c, 0, 50, 0
2, 3244, Note_on_c, 0, 57, 80
2, 3246, Note_on_c, 0, 45, 80
2, 3341, Note_on_c, 0, 45, 0
2, 3341, Note_on_c, 0, 57, 0
2, 3346, Note_on_c, 0, 38, 80
2, 3346, Note_on_c, 0, 50, 80
2, 3353, Note_on_c, 0, 74, 80
2, 3353, Note_on_c, 0, 86, 80
2, 3445, Note_on_c, 0, 38, 0
2, 3447, Note_on_c, 0, 50, 0
2, 3449, Note_on_c, 0, 74, 0
2, 3449, Note_on_c, 0, 86, 0
2, 3451, Note_on_c, 0, 37, 80
2, 3456, Note_on_c, 0, 76, 80
2, 3456, Note_on_c, 0, 88, 80
2, 3462, Note_on_c, 0, 49, 80
2, 3548, Note_on_c, 0, 49, 0
2, 3550, Note_on_c, 0, 37, 0
2, 3552, Note_on_c, 0, 88, 0
2, 3552, Note_on_c, 0, 76, 0
2, 3552, Note_on_c, 0, 48, 80
2, 3553, Note_on_c, 0, 36, 80
2, 3555, Note_on_c, 0, 78, 80
2, 3555, Note_on_c, 0, 90, 80
2, 3652, Note_on_c, 0, 36, 0
2, 3652, Note_on_c, 0, 48, 0
2, 3654, Note_on_c, 0, 78, 0
2, 3659, Note_on_c, 0, 90, 0
2, 3659, Note_on_c, 0, 35, 80
2, 3659, Note_on_c, 0, 47, 80
2, 3661, Note_on_c, 0, 91, 80
2, 3709, Note_on_c, 0, 91, 0
2, 3714, Note_on_c, 0, 83, 80
2, 3714, Note_on_c, 0, 86, 80
2, 3716, Note_on_c, 0, 79, 80
2, 3757, Note_on_c, 0, 47, 0
2, 3757, Note_on_c, 0, 35, 0
2, 3759, Note_on_c, 0, 50, 80
2, 3759, Note_on_c, 0, 55, 80
2, 3764, Note_on_c, 0, 59, 80
2, 3812, Note_on_c, 0, 86, 0
2, 3812, Note_on_c, 0, 79, 0
2, 3812, Note_on_c, 0, 83, 0
2, 3823, Note_on_c, 0, 88, 80
2, 3863, Note_on_c, 0, 88, 0
2, 3863, Note_on_c, 0, 59, 0
2, 3863, Note_on_c, 0, 55, 0
2, 3863, Note_on_c, 0, 50, 0
2, 3869, Note_on_c, 0, 45, 80
2, 3869, Note_on_c, 0, 57, 80
2, 3869, Note_on_c, 0, 83, 80
2, 3874, Note_on_c, 0, 76, 80
2, 3874, Note_on_c, 0, 79, 80
2, 3955, Note_on_c, 0, 86, 80
2, 3968, Note_on_c, 0, 76, 0
2, 3968, Note_on_c, 0, 57, 0
2, 3968, Note_on_c, 0, 45, 0
2, 3970, Note_on_c, 0, 83, 0
2, 3972, Note_on_c, 0, 79, 0
2, 3972, Note_on_c, 0, 46, 80
2, 3972, Note_on_c, 0, 58, 80
2, 3997, Note_on_c, 0, 86, 0
2, 4027, Note_on_c, 0, 83, 80
2, 4029, Note_on_c, 0, 74, 80
2, 4029, Note_on_c, 0, 79, 80
2, 4068, Note_on_c, 0, 58, 0
2, 4068, Note_on_c, 0, 46, 0
2, 4073, Note_on_c, 0, 83, 0
2, 4073, Note_on_c, 0, 47, 80
2, 4073, Note_on_c, 0, 59, 80
2, 4121, Note_on_c, 0, 59, 0
2, 4123, Note_on_c, 0, 79, 0
2, 4123, Note_on_c, 0, 74, 0
2, 4132, Note_on_c, 0, 83, 80
2, 4172, Note_on_c, 0, 47, 0
2, 4178, Note_on_c, 0, 83, 0
2, 4178, Note_on_c, 0, 50, 80
2, 4180, Note_on_c, 0, 55, 80
2, 4180, Note_on_c, 0, 59, 80
2, 4180, Note_on_c, 0, 71, 80
2, 4180, Note_on_c, 0, 74, 80
2, 4185, Note_on_c, 0, 79, 80
2, 4224, Note_on_c, 0, 79, 0
2, 4271, Note_on_c, 0, 50, 0
2, 4275, Note_on_c, 0, 71, 0
2, 4275, Note_on_c, 0, 55, 0
2, 4275, Note_on_c, 0, 59, 0
2, 4277, Note_on_c, 0, 74, 0
2, 4277, Note_on_c, 0, 52, 80
2, 4279, Note_on_c, 0, 40, 80
2, 4281, Note_on_c, 0, 67, 80
2, 4281, Note_on_c, 0, 72, 80
2, 4281, Note_on_c, 0, 76, 80
2, 4286, Note_on_c, 0, 79, 80
2, 4322, Note_on_c, 0, 72, 0
2, 4327, Note_on_c, 0, 76, 0
2, 4368, Note_on_c, 0, 52, 0
2, 4373, Note_on_c, 0, 40, 0
2, 4373, Note_on_c, 0, 67, 0
2, 4375, Note_on_c, 0, 79, 0
2, 4375, Note_on_c, 0, 36, 80
2, 4375, Note_on_c, 0, 48, 80
2, 4377, Note_on_c, 0, 64, 80
2, 4377, Note_on_c, 0, 72, 80
2, 4379, Note_on_c, 0, 76, 80
2, 4474, Note_on_c, 0, 76, 0
2, 4474, Note_on_c, 0, 64, 0
2, 4474, Note_on_c, 0, 36, 0
2, 4474, Note_on_c, 0, 48, 0
2, 4474, Note_on_c, 0, 72, 0
2, 4476, Note_on_c, 0, 47, 80
2, 4478, Note_on_c, 0, 35, 80
2, 4480, Note_on_c, 0, 74, 80
2, 4524, Note_on_c, 0, 74, 0
2, 4531, Note_on_c, 0, 62, 80
2, 4533, Note_on_c, 0, 67, 80
2, 4533, Note_on_c, 0, 71, 80
2, 4574, Note_on_c, 0, 35, 0
2, 4576, Note_on_c, 0, 47, 0
2, 4576, Note_on_c, 0, 50, 80
2, 4581, Note_on_c, 0, 55, 80
2, 4583, Note_on_c, 0, 59, 80
2, 4622, Note_on_c, 0, 59, 0
2, 4624, Note_on_c, 0, 62, 0
2, 4624, Note_on_c, 0, 71, 0
2, 4624, Note_on_c, 0, 50, 0
2, 4624, Note_on_c, 0, 55, 0
2, 4629, Note_on_c, 0, 67, 0
2, 4633, Note_on_c, 0, 76, 80
2, 4680, Note_on_c, 0, 50, 80
2, 4681, Note_on_c, 0, 55, 80
2, 4683, Note_on_c, 0, 59, 80
2, 4683, Note_on_c, 0, 64, 80
2, 4683, Note_on_c, 0, 67, 80
2, 4683, Note_on_c, 0, 71, 80
2, 4728, Note_on_c, 0, 50, 0
2, 4780, Note_on_c, 0, 59, 0
2, 4780, Note_on_c, 0, 55, 0
2, 4785, Note_on_c, 0, 50, 80
2, 4790, Note_on_c, 0, 38, 80
2, 4882, Note_on_c, 0, 38, 0
2, 4882, Note_on_c, 0, 71, 0
2, 4884, Note_on_c, 0, 64, 0
2, 4884, Note_on_c, 0, 76, 0
2, 4884, Note_on_c, 0, 67, 0
2, 4886, Note_on_c, 0, 50, 0
2, 4886, Note_on_c, 0, 43, 80
2, 4888, Note_on_c, 0, 55, 80
2, 4936, Note_on_c, 0, 55, 0
2, 4987, Note_on_c, 0, 43, 0
2, 4992, Note_on_c, 0, 50, 80
2, 4992, Note_on_c, 0, 55, 80
2, 4993, Note_on_c, 0, 62, 80
2, 4998, Note_on_c, 0, 59, 80
2, 4998, Note_on_c, 0, 74, 80
2, 5040, Note_on_c, 0, 59, 0
2, 5040, Note_on_c, 0, 55, 0
2, 5040, Note_on_c, 0, 50, 0
2, 5097, Note_on_c, 0, 62, 0
2, 5097, Note_on_c, 0, 74, 0
2, 5102, Note_on_c, 0, 47, 80
2, 5102, Note_on_c, 0, 59, 80
2, 5102, Note_on_c, 0, 64, 80
2, 5104, Note_on_c, 0, 76, 80
2, 5201, Note_on_c, 0, 64, 0
2, 5201, Note_on_c, 0, 59, 0
2, 5201, Note_on_c, 0, 43, 80
2, 5203, Note_on_c, 0, 47, 0
2, 5203, Note_on_c, 0, 76, 0
2, 5203, Note_on_c, 0, 55, 80
2, 5203, Note_on_c, 0, 65, 80
2, 5208, Note_on_c, 0, 77, 80
2, 5303, Note_on_c, 0, 43, 0
2, 5307, Note_on_c, 0, 55, 0
2, 5307, Note_on_c, 0, 65, 0
2, 5307, Note_on_c, 0, 77, 0
2, 5312, Note_on_c, 0, 42, 80
2, 5312, Note_on_c, 0, 54, 80
2, 5314, Note_on_c, 0, 78, 80
2, 5355, Note_on_c, 0, 54, 0
2, 5360, Note_on_c, 0, 78, 0
2, 5367, Note_on_c, 0, 66, 80
2, 5367, Note_on_c, 0, 71, 80
2, 5367, Note_on_c, 0, 74, 80
2, 5408, Note_on_c, 0, 42, 0
2, 5415, Note_on_c, 0, 54, 80
2, 5415, Note_on_c, 0, 59, 80
2, 5415, Note_on_c, 0, 62, 80
2, 5466, Note_on_c, 0, 66, 0
2, 5466, Note_on_c, 0, 74, 0
2, 5466, Note_on_c, 0, 71, 0
2, 5472, Note_on_c, 0, 83, 80
2, 5517, Note_on_c, 0, 54, 0
2, 5517, Note_on_c, 0, 59, 0
2, 5519, Note_on_c, 0, 52, 80
2, 5523, Note_on_c, 0, 62, 0
2, 5523, Note_on_c, 0, 64, 80
2, 5523, Note_on_c, 0, 71, 80
2, 5523, Note_on_c, 0, 78, 80
2, 5528, Note_on_c, 0, 74, 80
2, 5623, Note_on_c, 0, 64, 0
2, 5623, Note_on_c, 0, 52, 0
2, 5628, Note_on_c, 0, 50, 80
2, 5628, Note_on_c, 0, 62, 80
2, 5676, Note_on_c, 0, 71, 0
2, 5676, Note_on_c, 0, 78, 0
2, 5676, Note_on_c, 0, 83, 0
2, 5676, Note_on_c, 0, 74, 0
2, 5729, Note_on_c, 0, 62, 0
2, 5729, Note_on_c, 0, 50, 0
2, 5729, Note_on_c, 0, 49, 80
2, 5736, Note_on_c, 0, 61, 80
2, 5736, Note_on_c, 0, 71, 80
2, 5736, Note_on_c, 0, 76, 80
2, 5736, Note_on_c, 0, 83, 80
2, 5740, Note_on_c, 0, 79, 80
2, 5754, Note_on_c, 0, 83, 0
2, 5754, Note_on_c, 0, 76, 0
2, 5754, Note_on_c, 0, 71, 0
2, 5756, Note_on_c, 0, 79, 0
2, 5784, Note_on_c, 0, 71, 80
2, 5784, Note_on_c, 0, 83, 80
2, 5788, Note_on_c, 0, 76, 80
2, 5788, Note_on_c, 0, 79, 80
2, 5830, Note_on_c, 0, 49, 0
2, 5832, Note_on_c, 0, 61, 0
2, 5832, Note_on_c, 0, 71, 0
2, 5833, Note_on_c, 0, 83, 0
2, 5833, Note_on_c, 0, 76, 0
2, 5833, Note_on_c, 0, 79, 0
2, 5835, Note_on_c, 0, 55, 80
2, 5840, Note_on_c, 0, 59, 80
2, 5840, Note_on_c, 0, 64, 80
2, 5888, Note_on_c, 0, 71, 80
2, 5893, Note_on_c, 0, 76, 80
2, 5893, Note_on_c, 0, 79, 80
2, 5893, Note_on_c, 0, 83, 80
2, 5932, Note_on_c, 0, 59, 0
2, 5937, Note_on_c, 0, 55, 0
2, 5937, Note_on_c, 0, 64, 0
2, 5939, Note_on_c, 0, 42, 80
2, 5944, Note_on_c, 0, 54, 80
2, 5985, Note_on_c, 0, 54, 0
2, 5985, Note_on_c, 0, 79, 0
2, 5985, Note_on_c, 0, 76, 0
2, 6041, Note_on_c, 0, 42, 0
2, 6041, Note_on_c, 0, 83, 0
2, 6046, Note_on_c, 0, 54, 80
2, 6046, Note_on_c, 0, 64, 80
2, 6046, Note_on_c, 0, 58, 80
2, 6046, Note_on_c, 0, 70, 80
2, 6050, Note_on_c, 0, 71, 0
2, 6050, Note_on_c, 0, 76, 80
2, 6083, Note_on_c, 0, 82, 80
2, 6139, Note_on_c, 0, 58, 0
2, 6141, Note_on_c, 0, 54, 0
2, 6143, Note_on_c, 0, 76, 0
2, 6143, Note_on_c, 0, 70, 0
2, 6143, Note_on_c, 0, 82, 0
2, 6143, Note_on_c, 0, 64, 0
2, 6147, Note_on_c, 0, 47, 80
2, 6149, Note_on_c, 0, 59, 80
2, 6149, Note_on_c, 0, 71, 80
2, 6151, Note_on_c, 0, 74, 80
2, 6151, Note_on_c, 0, 83, 80
2, 6239, Note_on_c, 0, 59, 0
2, 6239, Note_on_c, 0, 47, 0
2, 6243, Note_on_c, 0, 74, 0
2, 6243, Note_on_c, 0, 71, 0
2, 6243, Note_on_c, 0, 49, 80
2, 6248, Note_on_c, 0, 83, 0
2, 6250, Note_on_c, 0, 61, 80
2, 6291, Note_on_c, 0, 61, 0
2, 6291, Note_on_c, 0, 49, 0
2, 6298, Note_on_c, 0, 50, 80
2, 6303, Note_on_c, 0, 62, 80
2, 6402, Note_on_c, 0, 62, 0
2, 6402, Note_on_c, 0, 50, 0
2, 6404, Note_on_c, 0, 49, 80
2, 6406, Note_on_c, 0, 61, 80
2, 6447, Note_on_c, 0, 49, 0
2, 6452, Note_on_c, 0, 61, 0
2, 6458, Note_on_c, 0, 50, 80
2, 6458, Note_on_c, 0, 62, 80
2, 6555, Note_on_c, 0, 50, 0
2, 6560, Note_on_c, 0, 62, 0
2, 6560, Note_on_c, 0, 47, 80
2, 6560, Note_on_c, 0, 59, 80
2, 6659, Note_on_c, 0, 59, 0
2, 6659, Note_on_c, 0, 47, 0
2, 6666, Note_on_c, 0, 45, 80
2, 6666, Note_on_c, 0, 57, 80
2, 6765, Note_on_c, 0, 57, 0
2, 6765, Note_on_c, 0, 45, 0
2, 6769, Note_on_c, 0, 42, 80
2, 6771, Note_on_c, 0, 54, 80
2, 6870, Note_on_c, 0, 42, 0
2, 6875, Note_on_c, 0, 54, 0
2, 6877, Note_on_c, 0, 50, 80
2, 6879, Note_on_c, 0, 38, 80
2, 6879, Note_on_c, 0, 74, 80
2, 6884, Note_on_c, 0, 86, 80
2, 6923, Note_on_c, 0, 74, 0
2, 6974, Note_on_c, 0, 50, 0
2, 6974, Note_on_c, 0, 38, 0
2, 6979, Note_on_c, 0, 86, 0
2, 6979, Note_on_c, 0, 43, 80
2, 6981, Note_on_c, 0, 55, 80
2, 6983, Note_on_c, 0, 91, 80
2, 7027, Note_on_c, 0, 55, 0
2, 7032, Note_on_c, 0, 91, 0
2, 7036, Note_on_c, 0, 79, 80
2, 7036, Note_on_c, 0, 83, 80
2, 7036, Note_on_c, 0, 86, 80
2, 7076, Note_on_c, 0, 43, 0
2, 7080, Note_on_c, 0, 50, 80
2, 7080, Note_on_c, 0, 55, 80
2, 7080, Note_on_c, 0, 59, 80
2, 7128, Note_on_c, 0, 79, 0
2, 7128, Note_on_c, 0, 86, 0
2, 7128, Note_on_c, 0, 83, 0
2, 7138, Note_on_c, 0, 88, 80
2, 7175, Note_on_c, 0, 88, 0
2, 7175, Note_on_c, 0, 59, 0
2, 7175, Note_on_c, 0, 50, 0
2, 7179, Note_on_c, 0, 55, 0
2, 7181, Note_on_c, 0, 57, 80
2, 7183, Note_on_c, 0, 45, 80
2, 7185, Note_on_c, 0, 76, 80
2, 7185, Note_on_c, 0, 83, 80
2, 7187, Note_on_c, 0, 79, 80
2, 7274, Note_on_c, 0, 76, 0
2, 7274, Note_on_c, 0, 57, 0
2, 7274, Note_on_c, 0, 45, 0
2, 7279, Note_on_c, 0, 83, 0
2, 7279, Note_on_c, 0, 79, 0
2, 7279, Note_on_c, 0, 46, 80
2, 7279, Note_on_c, 0, 58, 80
2, 7284, Note_on_c, 0, 86, 80
2, 7325, Note_on_c, 0, 86, 0
2, 7330, Note_on_c, 0, 74, 80
2, 7330, Note_on_c, 0, 79, 80
2, 7330, Note_on_c, 0, 83, 80
2, 7371, Note_on_c, 0, 58, 0
2, 7371, Note_on_c, 0, 46, 0
2, 7376, Note_on_c, 0, 47, 80
2, 7378, Note_on_c, 0, 83, 0
2, 7383, Note_on_c, 0, 59, 80
2, 7424, Note_on_c, 0, 59, 0
2, 7426, Note_on_c, 0, 79, 0
2, 7426, Note_on_c, 0, 74, 0
2, 7433, Note_on_c, 0, 83, 80
2, 7479, Note_on_c, 0, 47, 0
2, 7484, Note_on_c, 0, 83, 0
2, 7484, Note_on_c, 0, 50, 80
2, 7484, Note_on_c, 0, 55, 80
2, 7484, Note_on_c, 0, 59, 80
2, 7488, Note_on_c, 0, 71, 80
2, 7488, Note_on_c, 0, 74, 80
2, 7488, Note_on_c, 0, 79, 80
2, 7533, Note_on_c, 0, 79, 0
2, 7533, Note_on_c, 0, 71, 0
2, 7533, Note_on_c, 0, 74, 0
2, 7584, Note_on_c, 0, 50, 0
2, 7584, Note_on_c, 0, 59, 0
2, 7584, Note_on_c, 0, 55, 0
2, 7584, Note_on_c, 0, 52, 80
2, 7588, Note_on_c, 0, 40, 80
2, 7588, Note_on_c, 0, 72, 80
2, 7595, Note_on_c, 0, 67, 80
2, 7595, Note_on_c, 0, 76, 80
2, 7595, Note_on_c, 0, 79, 80
2, 7639, Note_on_c, 0, 76, 0
2, 7639, Note_on_c, 0, 72, 0
2, 7690, Note_on_c, 0, 52, 0
2, 7690, Note_on_c, 0, 40, 0
2, 7695, Note_on_c, 0, 67, 0
2, 7695, Note_on_c, 0, 64, 80
2, 7695, Note_on_c, 0, 72, 80
2, 7697, Note_on_c, 0, 79, 0
2, 7697, Note_on_c, 0, 36, 80
2, 7697, Note_on_c, 0, 48, 80
2, 7697, Note_on_c, 0, 69, 80
2, 7702, Note_on_c, 0, 76, 80
2, 7797, Note_on_c, 0, 69, 0
2, 7797, Note_on_c, 0, 48, 0
2, 7797, Note_on_c, 0, 72, 0
2, 7799, Note_on_c, 0, 36, 0
2, 7800, Note_on_c, 0, 64, 0
2, 7800, Note_on_c, 0, 76, 0
2, 7800, Note_on_c, 0, 74, 80
2, 7802, Note_on_c, 0, 35, 80
2, 7802, Note_on_c, 0, 47, 80
2, 7850, Note_on_c, 0, 74, 0
2, 7857, Note_on_c, 0, 62, 80
2, 7857, Note_on_c, 0, 67, 80
2, 7857, Note_on_c, 0, 71, 80
2, 7901, Note_on_c, 0, 47, 0
2, 7901, Note_on_c, 0, 35, 0
2, 7908, Note_on_c, 0, 50, 80
2, 7908, Note_on_c, 0, 55, 80
2, 7913, Note_on_c, 0, 59, 80
2, 7957, Note_on_c, 0, 59, 0
2, 7957, Note_on_c, 0, 62, 0
2, 7957, Note_on_c, 0, 71, 0
2, 7957, Note_on_c, 0, 55, 0
2, 7959, Note_on_c, 0, 50, 0
2, 7961, Note_on_c, 0, 67, 0
2, 7968, Note_on_c, 0, 76, 80
2, 8016, Note_on_c, 0, 50, 80
2, 8020, Note_on_c, 0, 55, 80
2, 8020, Note_on_c, 0, 59, 80
2, 8020, Note_on_c, 0, 64, 80
2, 8020, Note_on_c, 0, 67, 80
2, 8020, Note_on_c, 0, 71, 80
2, 8062, Note_on_c, 0, 59, 0
2, 8062, Note_on_c, 0, 55, 0
2, 8062, Note_on_c, 0, 50, 0
2, 8117, Note_on_c, 0, 50, 80
2, 8219, Note_on_c, 0, 67, 0
2, 8221, Note_on_c, 0, 71, 0
2, 8221, Note_on_c, 0, 50, 0
2, 8223, Note_on_c, 0, 64, 0
2, 8223, Note_on_c, 0, 43, 80
2, 8225, Note_on_c, 0, 76, 0
2, 8225, Note_on_c, 0, 55, 80
2, 8273, Note_on_c, 0, 55, 0
2, 8324, Note_on_c, 0, 43, 0
2, 8328, Note_on_c, 0, 50, 80
2, 8328, Note_on_c, 0, 55, 80
2, 8328, Note_on_c, 0, 59, 80
2, 8328, Note_on_c, 0, 62, 80
2, 8330, Note_on_c, 0, 74, 80
2, 8375, Note_on_c, 0, 59, 0
2, 8376, Note_on_c, 0, 50, 0
2, 8376, Note_on_c, 0, 55, 0
2, 8429, Note_on_c, 0, 62, 0
2, 8429, Note_on_c, 0, 74, 0
2, 8429, Note_on_c, 0, 47, 80
2, 8429, Note_on_c, 0, 59, 80
2, 8429, Note_on_c, 0, 64, 80
2, 8434, Note_on_c, 0, 76, 80
2, 8529, Note_on_c, 0, 59, 0
2, 8534, Note_on_c, 0, 47, 0
2, 8534, Note_on_c, 0, 64, 0
2, 8534, Note_on_c, 0, 76, 0
2, 8534, Note_on_c, 0, 44, 80
2, 8534, Note_on_c, 0, 56, 80
2, 8534, Note_on_c, 0, 65, 80
2, 8539, Note_on_c, 0, 77, 80
2, 8631, Note_on_c, 0, 44, 0
2, 8638, Note_on_c, 0, 56, 0
2, 8638, Note_on_c, 0, 65, 0
2, 8642, Note_on_c, 0, 77, 0
2, 8642, Note_on_c, 0, 45, 80
2, 8642, Note_on_c, 0, 57, 80
2, 8642, Note_on_c, 0, 78, 80
2, 8687, Note_on_c, 0, 78, 0
2, 8687, Note_on_c, 0, 57, 0
2, 8691, Note_on_c, 0, 66, 80
2, 8691, Note_on_c, 0, 72, 80
2, 8696, Note_on_c, 0, 76, 80
2, 8740, Note_on_c, 0, 45, 0
2, 8742, Note_on_c, 0, 50, 80
2, 8747, Note_on_c, 0, 54, 80
2, 8747, Note_on_c, 0, 57, 80
2, 8747, Note_on_c, 0, 60, 80
2, 8791, Note_on_c, 0, 66, 0
2, 8793, Note_on_c, 0, 57, 0
2, 8793, Note_on_c, 0, 72, 0
2, 8793, Note_on_c, 0, 50, 0
2, 8793, Note_on_c, 0, 54, 0
2, 8793, Note_on_c, 0, 60, 0
2, 8795, Note_on_c, 0, 76, 0
2, 8800, Note_on_c, 0, 78, 80
2, 8851, Note_on_c, 0, 78, 0
2, 8851, Note_on_c, 0, 50, 80
2, 8851, Note_on_c, 0, 57, 80
2, 8856, Note_on_c, 0, 54, 80
2, 8856, Note_on_c, 0, 60, 80
2, 8856, Note_on_c, 0, 66, 80
2, 8856, Note_on_c, 0, 72, 80
2, 8856, Note_on_c, 0, 74, 80
2, 8897, Note_on_c, 0, 50, 0
2, 8948, Note_on_c, 0, 66, 0
2, 8948, Note_on_c, 0, 54, 0
2, 8952, Note_on_c, 0, 60, 0
2, 8952, Note_on_c, 0, 57, 0
2, 8952, Note_on_c, 0, 72, 0
2, 8952, Note_on_c, 0, 74, 0
2, 8954, Note_on_c, 0, 50, 80
2, 8959, Note_on_c, 0, 38, 80
2, 9051, Note_on_c, 0, 38, 0
2, 9051, Note_on_c, 0, 50, 0
2, 9056, Note_on_c, 0, 57, 80
2, 9061, Note_on_c, 0, 45, 80
2, 9105, Note_on_c, 0, 57, 0
2, 9161, Note_on_c, 0, 45, 0
2, 9161, Note_on_c, 0, 50, 80
2, 9161, Note_on_c, 0, 57, 80
2, 9166, Note_on_c, 0, 54, 80
2, 9166, Note_on_c, 0, 60, 80
2, 9166, Note_on_c, 0, 62, 80
2, 9166, Note_on_c, 0, 74, 80
2, 9207, Note_on_c, 0, 57, 0
2, 9255, Note_on_c, 0, 54, 0
2, 9260, Note_on_c, 0, 60, 0
2, 9260, Note_on_c, 0, 50, 0
2, 9260, Note_on_c, 0, 74, 0
2, 9260, Note_on_c, 0, 62, 0
2, 9264, Note_on_c, 0, 45, 80
2, 9266, Note_on_c, 0, 57, 80
2, 9266, Note_on_c, 0, 64, 80
2, 9266, Note_on_c, 0, 76, 80
2, 9359, Note_on_c, 0, 64, 0
2, 9359, Note_on_c, 0, 45, 0
2, 9359, Note_on_c, 0, 57, 0
2, 9360, Note_on_c, 0, 76, 0
2, 9360, Note_on_c, 0, 58, 80
2, 9362, Note_on_c, 0, 46, 80
2, 9364, Note_on_c, 0, 66, 80
2, 9364, Note_on_c, 0, 78, 80
2, 9410, Note_on_c, 0, 78, 0
2, 9410, Note_on_c, 0, 66, 0
2, 9461, Note_on_c, 0, 46, 0
2, 9461, Note_on_c, 0, 58, 0
2, 9466, Note_on_c, 0, 47, 80
2, 9466, Note_on_c, 0, 59, 80
2, 9468, Note_on_c, 0, 78, 80
2, 9514, Note_on_c, 0, 78, 0
2, 9514, Note_on_c, 0, 59, 0
2, 9521, Note_on_c, 0, 67, 80
2, 9521, Note_on_c, 0, 71, 80
2, 9521, Note_on_c, 0, 76, 80
2, 9565, Note_on_c, 0, 47, 0
2, 9567, Note_on_c, 0, 50, 80
2, 9572, Note_on_c, 0, 55, 80
2, 9572, Note_on_c, 0, 59, 80
2, 9613, Note_on_c, 0, 55, 0
2, 9615, Note_on_c, 0, 50, 0
2, 9617, Note_on_c, 0, 67, 0
2, 9617, Note_on_c, 0, 76, 0
2, 9617, Note_on_c, 0, 59, 0
2, 9617, Note_on_c, 0, 71, 0
2, 9628, Note_on_c, 0, 78, 80
2, 9672, Note_on_c, 0, 78, 0
2, 9672, Note_on_c, 0, 50, 80
2, 9679, Note_on_c, 0, 55, 80
2, 9679, Note_on_c, 0, 59, 80
2, 9679, Note_on_c, 0, 67, 80
2, 9679, Note_on_c, 0, 71, 80
2, 9679, Note_on_c, 0, 74, 80
2, 9725, Note_on_c, 0, 50, 0
2, 9773, Note_on_c, 0, 59, 0
2, 9775, Note_on_c, 0, 55, 0
2, 9775, Note_on_c, 0, 71, 0
2, 9777, Note_on_c, 0, 74, 0
2, 9779, Note_on_c, 0, 67, 0
2, 9779, Note_on_c, 0, 38, 80
2, 9779, Note_on_c, 0, 50, 80
2, 9876, Note_on_c, 0, 38, 0
2, 9881, Note_on_c, 0, 50, 0
2, 9886, Note_on_c, 0, 45, 80
2, 9886, Note_on_c, 0, 57, 80
2, 9984, Note_on_c, 0, 57, 0
2, 9984, Note_on_c, 0, 45, 0
2, 9984, Note_on_c, 0, 50, 80
2, 9989, Note_on_c, 0, 74, 80
2, 9994, Note_on_c, 0, 38, 80
2, 9994, Note_on_c, 0, 86, 80
2, 10081, Note_on_c, 0, 38, 0
2, 10086, Note_on_c, 0, 50, 0
2, 10088, Note_on_c, 0, 74, 0
2, 10090, Note_on_c, 0, 86, 0
2, 10090, Note_on_c, 0, 37, 80
2, 10095, Note_on_c, 0, 76, 80
2, 10095, Note_on_c, 0, 88, 80
2, 10104, Note_on_c, 0, 49, 80
2, 10185, Note_on_c, 0, 49, 0
2, 10185, Note_on_c, 0, 37, 0
2, 10190, Note_on_c, 0, 76, 0
2, 10190, Note_on_c, 0, 36, 80
2, 10192, Note_on_c, 0, 88, 0
2, 10192, Note_on_c, 0, 48, 80
2, 10192, Note_on_c, 0, 78, 80
2, 10192, Note_on_c, 0, 90, 80
2, 10291, Note_on_c, 0, 48, 0
2, 10291, Note_on_c, 0, 36, 0
2, 10293, Note_on_c, 0, 78, 0
2, 10293, Note_on_c, 0, 90, 0
2, 10295, Note_on_c, 0, 35, 80
2, 10295, Note_on_c, 0, 47, 80
2, 10295, Note_on_c, 0, 91, 80
2, 10347, Note_on_c, 0, 91, 0
2, 10347, Note_on_c, 0, 79, 80
2, 10347, Note_on_c, 0, 83, 80
2, 10352, Note_on_c, 0, 86, 80
2, 10392, Note_on_c, 0, 47, 0
2, 10392, Note_on_c, 0, 35, 0
2, 10398, Note_on_c, 0, 50, 80
2, 10398, Note_on_c, 0, 59, 80
2, 10400, Note_on_c, 0, 55, 80
2, 10446, Note_on_c, 0, 79, 0
2, 10448, Note_on_c, 0, 86, 0
2, 10450, Note_on_c, 0, 83, 0
2, 10455, Note_on_c, 0, 88, 80
2, 10496, Note_on_c, 0, 59, 0
2, 10501, Note_on_c, 0, 88, 0
2, 10501, Note_on_c, 0, 55, 0
2, 10501, Note_on_c, 0, 57, 80
2, 10506, Note_on_c, 0, 45, 80
2, 10508, Note_on_c, 0, 76, 80
2, 10508, Note_on_c, 0, 79, 80
2, 10508, Note_on_c, 0, 83, 80
2, 10512, Note_on_c, 0, 50, 0
2, 10584, Note_on_c, 0, 86, 80
2, 10606, Note_on_c, 0, 45, 0
2, 10606, Note_on_c, 0, 79, 0
2, 10606, Note_on_c, 0, 76, 0
2, 10606, Note_on_c, 0, 57, 0
2, 10606, Note_on_c, 0, 83, 0
2, 10610, Note_on_c, 0, 46, 80
2, 10612, Note_on_c, 0, 58, 80
2, 10635, Note_on_c, 0, 86, 0
2, 10668, Note_on_c, 0, 74, 80
2, 10668, Note_on_c, 0, 79, 80
2, 10668, Note_on_c, 0, 83, 80
2, 10712, Note_on_c, 0, 83, 0
2, 10712, Note_on_c, 0, 58, 0
2, 10714, Note_on_c, 0, 46, 0
2, 10719, Note_on_c, 0, 47, 80
2, 10719, Note_on_c, 0, 59, 80
2, 10767, Note_on_c, 0, 59, 0
2, 10767, Note_on_c, 0, 79, 0
2, 10767, Note_on_c, 0, 74, 0
2, 10774, Note_on_c, 0, 83, 80
2, 10820, Note_on_c, 0, 47, 0
2, 10824, Note_on_c, 0, 83, 0
2, 10824, Note_on_c, 0, 50, 80
2, 10824, Note_on_c, 0, 55, 80
2, 10824, Note_on_c, 0, 59, 80
2, 10824, Note_on_c, 0, 71, 80
2, 10824, Note_on_c, 0, 74, 80
2, 10829, Note_on_c, 0, 79, 80
2, 10873, Note_on_c, 0, 79, 0
2, 10920, Note_on_c, 0, 55, 0
2, 10920, Note_on_c, 0, 59, 0
2, 10921, Note_on_c, 0, 50, 0
2, 10921, Note_on_c, 0, 71, 0
2, 10923, Note_on_c, 0, 52, 80
2, 10925, Note_on_c, 0, 74, 0
2, 10925, Note_on_c, 0, 40, 80
2, 10925, Note_on_c, 0, 72, 80
2, 10930, Note_on_c, 0, 67, 80
2, 10930, Note_on_c, 0, 76, 80
2, 10930, Note_on_c, 0, 79, 80
2, 10974, Note_on_c, 0, 72, 0
2, 10976, Note_on_c, 0, 76, 0
2, 11022, Note_on_c, 0, 52, 0
2, 11024, Note_on_c, 0, 40, 0
2, 11029, Note_on_c, 0, 67, 0
2, 11029, Note_on_c, 0, 36, 80
2, 11031, Note_on_c, 0, 79, 0
2, 11031, Note_on_c, 0, 48, 80
2, 11031, Note_on_c, 0, 72, 80
2, 11031, Note_on_c, 0, 76, 80
2, 11033, Note_on_c, 0, 64, 80
2, 11125, Note_on_c, 0, 64, 0
2, 11125, Note_on_c, 0, 36, 0
2, 11125, Note_on_c, 0, 72, 0
2, 11125, Note_on_c, 0, 48, 0
2, 11130, Note_on_c, 0, 35, 80
2, 11130, Note_on_c, 0, 47, 80
2, 11132, Note_on_c, 0, 74, 80
2, 11143, Note_on_c, 0, 76, 0
2, 11180, Note_on_c, 0, 74, 0
2, 11182, Note_on_c, 0, 62, 80
2, 11186, Note_on_c, 0, 67, 80
2, 11186, Note_on_c, 0, 71, 80
2, 11228, Note_on_c, 0, 47, 0
2, 11228, Note_on_c, 0, 35, 0
2, 11234, Note_on_c, 0, 50, 80
2, 11234, Note_on_c, 0, 55, 80
2, 11234, Note_on_c, 0, 59, 80
2, 11279, Note_on_c, 0, 55, 0
2, 11279, Note_on_c, 0, 50, 0
2, 11280, Note_on_c, 0, 67, 0
2, 11280, Note_on_c, 0, 71, 0
2, 11280, Note_on_c, 0, 59, 0
2, 11280, Note_on_c, 0, 62, 0
2, 11287, Note_on_c, 0, 76, 80
2, 11338, Note_on_c, 0, 50, 80
2, 11340, Note_on_c, 0, 55, 80
2, 11340, Note_on_c, 0, 59, 80
2, 11340, Note_on_c, 0, 64, 80
2, 11340, Note_on_c, 0, 71, 80
2, 11345, Note_on_c, 0, 67, 80
2, 11379, Note_on_c, 0, 50, 0
2, 11435, Note_on_c, 0, 59, 0
2, 11435, Note_on_c, 0, 55, 0
2, 11437, Note_on_c, 0, 50, 80
2, 11442, Note_on_c, 0, 38, 80
2, 11539, Note_on_c, 0, 38, 0
2, 11539, Note_on_c, 0, 71, 0
2, 11539, Note_on_c, 0, 50, 0
2, 11541, Note_on_c, 0, 64, 0
2, 11541, Note_on_c, 0, 43, 80
2, 11543, Note_on_c, 0, 55, 80
2, 11544, Note_on_c, 0, 67, 0
2, 11544, Note_on_c, 0, 76, 0
2, 11595, Note_on_c, 0, 55, 0
2, 11646, Note_on_c, 0, 43, 0
2, 11646, Note_on_c, 0, 50, 80
2, 11651, Note_on_c, 0, 55, 80
2, 11651, Note_on_c, 0, 59, 80
2, 11651, Note_on_c, 0, 62, 80
2, 11651, Note_on_c, 0, 74, 80
2, 11695, Note_on_c, 0, 59, 0
2, 11695, Note_on_c, 0, 50, 0
2, 11695, Note_on_c, 0, 55, 0
2, 11751, Note_on_c, 0, 62, 0
2, 11751, Note_on_c, 0, 74, 0
2, 11756, Note_on_c, 0, 47, 80
2, 11758, Note_on_c, 0, 59, 80
2, 11758, Note_on_c, 0, 64, 80
2, 11758, Note_on_c, 0, 76, 80
2, 11855, Note_on_c, 0, 64, 0
2, 11855, Note_on_c, 0, 47, 0
2, 11855, Note_on_c, 0, 59, 0
2, 11859, Note_on_c, 0, 76, 0
2, 11859, Note_on_c, 0, 43, 80
2, 11861, Note_on_c, 0, 55, 80
2, 11861, Note_on_c, 0, 65, 80
2, 11861, Note_on_c, 0, 77, 80
2, 11960, Note_on_c, 0, 55, 0
2, 11960, Note_on_c, 0, 43, 0
2, 11965, Note_on_c, 0, 65, 0
2, 11965, Note_on_c, 0, 77, 0
2, 11965, Note_on_c, 0, 42, 80
2, 11965, Note_on_c, 0, 54, 80
2, 11967, Note_on_c, 0, 78, 80
2, 12011, Note_on_c, 0, 78, 0
2, 12011, Note_on_c, 0, 54, 0
2, 12016, Note_on_c, 0, 66, 80
2, 12016, Note_on_c, 0, 74, 80
2, 12018, Note_on_c, 0, 71, 80
2, 12066, Note_on_c, 0, 42, 0
2, 12066, Note_on_c, 0, 59, 80
2, 12066, Note_on_c, 0, 62, 80
2, 12071, Note_on_c, 0, 54, 80
2, 12115, Note_on_c, 0, 66, 0
2, 12115, Note_on_c, 0, 71, 0
2, 12115, Note_on_c, 0, 74, 0
2, 12121, Note_on_c, 0, 83, 80
2, 12163, Note_on_c, 0, 54, 0
2, 12165, Note_on_c, 0, 59, 0
2, 12167, Note_on_c, 0, 62, 0
2, 12168, Note_on_c, 0, 52, 80
2, 12168, Note_on_c, 0, 64, 80
2, 12168, Note_on_c, 0, 78, 80
2, 12170, Note_on_c, 0, 74, 80
2, 12172, Note_on_c, 0, 71, 80
2, 12260, Note_on_c, 0, 52, 0
2, 12264, Note_on_c, 0, 64, 0
2, 12266, Note_on_c, 0, 50, 80
2, 12266, Note_on_c, 0, 62, 80
2, 12311, Note_on_c, 0, 78, 0
2, 12311, Note_on_c, 0, 71, 0
2, 12315, Note_on_c, 0, 74, 0
2, 12317, Note_on_c, 0, 83, 0
2, 12365, Note_on_c, 0, 62, 0
2, 12365, Note_on_c, 0, 50, 0
2, 12367, Note_on_c, 0, 79, 80
2, 12369, Note_on_c, 0, 61, 80
2, 12369, Note_on_c, 0, 76, 80
2, 12369, Note_on_c, 0, 83, 80
2, 12371, Note_on_c, 0, 71, 80
2, 12381, Note_on_c, 0, 49, 80
2, 12390, Note_on_c, 0, 71, 0
2, 12390, Note_on_c, 0, 83, 0
2, 12390, Note_on_c, 0, 79, 0
2, 12392, Note_on_c, 0, 76, 0
2, 12420, Note_on_c, 0, 71, 80
2, 12420, Note_on_c, 0, 83, 80
2, 12425, Note_on_c, 0, 76, 80
2, 12425, Note_on_c, 0, 79, 80
2, 12464, Note_on_c, 0, 49, 0
2, 12469, Note_on_c, 0, 61, 0
2, 12469, Note_on_c, 0, 71, 0
2, 12471, Note_on_c, 0, 83, 0
2, 12471, Note_on_c, 0, 76, 0
2, 12471, Note_on_c, 0, 79, 0
2, 12473, Note_on_c, 0, 64, 80
2, 12475, Note_on_c, 0, 55, 80
2, 12475, Note_on_c, 0, 59, 80
2, 12521, Note_on_c, 0, 71, 80
2, 12521, Note_on_c, 0, 83, 80
2, 12526, Note_on_c, 0, 76, 80
2, 12526, Note_on_c, 0, 79, 80
2, 12572, Note_on_c, 0, 59, 0
2, 12572, Note_on_c, 0, 64, 0
2, 12572, Note_on_c, 0, 55, 0
2, 12574, Note_on_c, 0, 42, 80
2, 12576, Note_on_c, 0, 54, 80
2, 12624, Note_on_c, 0, 54, 0
2, 12624, Note_on_c, 0, 76, 0
2, 12624, Note_on_c, 0, 79, 0
2, 12670, Note_on_c, 0, 71, 0
2, 12672, Note_on_c, 0, 42, 0
2, 12672, Note_on_c, 0, 83, 0
2, 12672, Note_on_c, 0, 58, 80
2, 12678, Note_on_c, 0, 54, 80
2, 12678, Note_on_c, 0, 64, 80
2, 12678, Note_on_c, 0, 70, 80
2, 12678, Note_on_c, 0, 76, 80
2, 12678, Note_on_c, 0, 82, 80
2, 12775, Note_on_c, 0, 82, 0
2, 12775, Note_on_c, 0, 54, 0
2, 12775, Note_on_c, 0, 70, 0
2, 12777, Note_on_c, 0, 58, 0
2, 12777, Note_on_c, 0, 76, 0
2, 12777, Note_on_c, 0, 64, 0
2, 12782, Note_on_c, 0, 47, 80
2, 12782, Note_on_c, 0, 59, 80
2, 12782, Note_on_c, 0, 71, 80
2, 12782, Note_on_c, 0, 74, 80
2, 12782, Note_on_c, 0, 83, 80
2, 12881, Note_on_c, 0, 83, 0
2, 12881, Note_on_c, 0, 47, 0
2, 12881, Note_on_c, 0, 71, 0
2, 12881, Note_on_c, 0, 59, 0
2, 12890, Note_on_c, 0, 61, 80
2, 12892, Note_on_c, 0, 74, 0
2, 12899, Note_on_c, 0, 49, 80
2, 12934, Note_on_c, 0, 49, 0
2, 12934, Note_on_c, 0, 61, 0
2, 12940, Note_on_c, 0, 50, 80
2, 12942, Note_on_c, 0, 62, 80
2, 13044, Note_on_c, 0, 62, 0
2, 13044, Note_on_c, 0, 50, 0
2, 13046, Note_on_c, 0, 49, 80
2, 13046, Note_on_c, 0, 61, 80
2, 13090, Note_on_c, 0, 49, 0
2, 13095, Note_on_c, 0, 61, 0
2, 13097, Note_on_c, 0, 50, 80
2, 13099, Note_on_c, 0, 62, 80
2, 13200, Note_on_c, 0, 62, 0
2, 13200, Note_on_c, 0, 50, 0
2, 13205, Note_on_c, 0, 47, 80
2, 13205, Note_on_c, 0, 59, 80
2, 13247, Note_on_c, 0, 59, 0
2, 13247, Note_on_c, 0, 47, 0
2, 13307, Note_on_c, 0, 47, 80
2, 13309, Note_on_c, 0, 59, 80
2, 13309, Note_on_c, 0, 62, 80
2, 13309, Note_on_c, 0, 71, 80
2, 13314, Note_on_c, 0, 67, 80
2, 13355, Note_on_c, 0, 62, 0
2, 13401, Note_on_c, 0, 59, 0
2, 13403, Note_on_c, 0, 47, 0
2, 13408, Note_on_c, 0, 67, 0
2, 13408, Note_on_c, 0, 71, 0
2, 13408, Note_on_c, 0, 45, 80
2, 13410, Note_on_c, 0, 57, 80
2, 13410, Note_on_c, 0, 62, 80
2, 13410, Note_on_c, 0, 66, 80
2, 13410, Note_on_c, 0, 72, 80
2, 13507, Note_on_c, 0, 72, 0
2, 13507, Note_on_c, 0, 45, 0
2, 13507, Note_on_c, 0, 66, 0
2, 13512, Note_on_c, 0, 57, 0
2, 13513, Note_on_c, 0, 43, 80
2, 13513, Note_on_c, 0, 64, 80
2, 13518, Note_on_c, 0, 67, 80
2, 13518, Note_on_c, 0, 73, 80
2, 13528, Note_on_c, 0, 55, 80
2, 13537, Note_on_c, 0, 62, 0
2, 13613, Note_on_c, 0, 73, 0
2, 13613, Note_on_c, 0, 43, 0
2, 13613, Note_on_c, 0, 55, 0
2, 13615, Note_on_c, 0, 64, 0
2, 13617, Note_on_c, 0, 67, 0
2, 13617, Note_on_c, 0, 42, 80
2, 13617, Note_on_c, 0, 54, 80
2, 13617, Note_on_c, 0, 62, 80
2, 13622, Note_on_c, 0, 69, 80
2, 13622, Note_on_c, 0, 74, 80
2, 13661, Note_on_c, 0, 69, 0
2, 13666, Note_on_c, 0, 54, 0
2, 13717, Note_on_c, 0, 42, 0
2, 13722, Note_on_c, 0, 62, 0
2, 13722, Note_on_c, 0, 74, 0
2, 13722, Note_on_c, 0, 54, 80
2, 13724, Note_on_c, 0, 50, 80
2, 13724, Note_on_c, 0, 60, 80
2, 13724, Note_on_c, 0, 63, 80
2, 13724, Note_on_c, 0, 69, 80
2, 13728, Note_on_c, 0, 75, 80
2, 13742, Note_on_c, 0, 69, 0
2, 13772, Note_on_c, 0, 50, 0
2, 13772, Note_on_c, 0, 60, 0
2, 13772, Note_on_c, 0, 54, 0
2, 13772, Note_on_c, 0, 75, 0
2, 13772, Note_on_c, 0, 63, 0
2, 13778, Note_on_c, 0, 64, 80
2, 13778, Note_on_c, 0, 69, 80
2, 13778, Note_on_c, 0, 76, 80
2, 13826, Note_on_c, 0, 76, 0
2, 13826, Note_on_c, 0, 38, 80
2, 13828, Note_on_c, 0, 50, 80
2, 13879, Note_on_c, 0, 50, 0
2, 13879, Note_on_c, 0, 69, 0
2, 13881, Note_on_c, 0, 64, 0
2, 13883, Note_on_c, 0, 72, 80
2, 13883, Note_on_c, 0, 76, 80
2, 13890, Note_on_c, 0, 84, 80
2, 13922, Note_on_c, 0, 38, 0
2, 13934, Note_on_c, 0, 50, 80
2, 13934, Note_on_c, 0, 54, 80
2, 13934, Note_on_c, 0, 60, 80
2, 13982, Note_on_c, 0, 60, 0
2, 13982, Note_on_c, 0, 76, 0
2, 13982, Note_on_c, 0, 72, 0
2, 13982, Note_on_c, 0, 50, 0
2, 13982, Note_on_c, 0, 54, 0
2, 13984, Note_on_c, 0, 84, 0
2, 13989, Note_on_c, 0, 78, 80
2, 14033, Note_on_c, 0, 78, 0
2, 14038, Note_on_c, 0, 50, 80
2, 14038, Note_on_c, 0, 62, 80
2, 14038, Note_on_c, 0, 71, 80
2, 14038, Note_on_c, 0, 74, 80
2, 14038, Note_on_c, 0, 83, 80
2, 14136, Note_on_c, 0, 71, 0
2, 14136, Note_on_c, 0, 50, 0
2, 14141, Note_on_c, 0, 62, 0
2, 14141, Note_on_c, 0, 74, 0
2, 14143, Note_on_c, 0, 83, 0
2, 14143, Note_on_c, 0, 61, 80
2, 14143, Note_on_c, 0, 70, 80
2, 14148, Note_on_c, 0, 82, 80
2, 14155, Note_on_c, 0, 49, 80
2, 14189, Note_on_c, 0, 82, 0
2, 14189, Note_on_c, 0, 70, 0
2, 14191, Note_on_c, 0, 69, 80
2, 14193, Note_on_c, 0, 72, 80
2, 14195, Note_on_c, 0, 81, 80
2, 14236, Note_on_c, 0, 49, 0
2, 14241, Note_on_c, 0, 61, 0
2, 14241, Note_on_c, 0, 48, 80
2, 14241, Note_on_c, 0, 60, 80
2, 14285, Note_on_c, 0, 69, 0
2, 14287, Note_on_c, 0, 81, 0
2, 14287, Note_on_c, 0, 72, 0
2, 14292, Note_on_c, 0, 76, 80
2, 14292, Note_on_c, 0, 79, 80
2, 14292, Note_on_c, 0, 88, 80
2, 14336, Note_on_c, 0, 48, 0
2, 14336, Note_on_c, 0, 60, 0
2, 14343, Note_on_c, 0, 46, 80
2, 14343, Note_on_c, 0, 58, 80
2, 14391, Note_on_c, 0, 79, 0
2, 14391, Note_on_c, 0, 88, 0
2, 14391, Note_on_c, 0, 76, 0
2, 14398, Note_on_c, 0, 85, 80
2, 14437, Note_on_c, 0, 46, 0
2, 14439, Note_on_c, 0, 58, 0
2, 14441, Note_on_c, 0, 47, 80
2, 14443, Note_on_c, 0, 85, 0
2, 14443, Note_on_c, 0, 59, 80
2, 14448, Note_on_c, 0, 76, 80
2, 14448, Note_on_c, 0, 79, 80
2, 14448, Note_on_c, 0, 88, 80
2, 14489, Note_on_c, 0, 59, 0
2, 14546, Note_on_c, 0, 79, 0
2, 14546, Note_on_c, 0, 47, 0
2, 14546, Note_on_c, 0, 76, 0
2, 14546, Note_on_c, 0, 88, 0
2, 14548, Note_on_c, 0, 50, 80
2, 14548, Note_on_c, 0, 55, 80
2, 14553, Note_on_c, 0, 59, 80
2, 14553, Note_on_c, 0, 75, 80
2, 14553, Note_on_c, 0, 87, 80
2, 14583, Note_on_c, 0, 75, 0
2, 14594, Note_on_c, 0, 59, 0
2, 14594, Note_on_c, 0, 50, 0
2, 14594, Note_on_c, 0, 55, 0
2, 14599, Note_on_c, 0, 87, 0
2, 14606, Note_on_c, 0, 74, 80
2, 14606, Note_on_c, 0, 79, 80
2, 14606, Note_on_c, 0, 86, 80
2, 14652, Note_on_c, 0, 86, 0
2, 14652, Note_on_c, 0, 50, 80
2, 14654, Note_on_c, 0, 38, 80
2, 14705, Note_on_c, 0, 79, 0
2, 14705, Note_on_c, 0, 74, 0
2, 14710, Note_on_c, 0, 83, 80
2, 14710, Note_on_c, 0, 86, 80
2, 14710, Note_on_c, 0, 95, 80
2, 14751, Note_on_c, 0, 38, 0
2, 14756, Note_on_c, 0, 50, 0
2, 14762, Note_on_c, 0, 36, 80
2, 14762, Note_on_c, 0, 48, 80
2, 14810, Note_on_c, 0, 86, 0
2, 14810, Note_on_c, 0, 95, 0
2, 14810, Note_on_c, 0, 83, 0
2, 14815, Note_on_c, 0, 90, 80
2, 14859, Note_on_c, 0, 36, 0
2, 14859, Note_on_c, 0, 48, 0
2, 14864, Note_on_c, 0, 90, 0
2, 14866, Note_on_c, 0, 35, 80
2, 14866, Note_on_c, 0, 47, 80
2, 14868, Note_on_c, 0, 81, 80
2, 14870, Note_on_c, 0, 84, 80
2, 14872, Note_on_c, 0, 93, 80
2, 14948, Note_on_c, 0, 35, 0
2, 14961, Note_on_c, 0, 47, 0
2, 14968, Note_on_c, 0, 84, 0
2, 14968, Note_on_c, 0, 81, 0
2, 14968, Note_on_c, 0, 93, 0
2, 14968, Note_on_c, 0, 50, 80
2, 14968, Note_on_c, 0, 55, 80
2, 14968, Note_on_c, 0, 59, 80
2, 14973, Note_on_c, 0, 80, 80
2, 14973, Note_on_c, 0, 92, 80
2, 15012, Note_on_c, 0, 55, 0
2, 15012, Note_on_c, 0, 50, 0
2, 15014, Note_on_c, 0, 80, 0
2, 15014, Note_on_c, 0, 59, 0
2, 15014, Note_on_c, 0, 92, 0
2, 15021, Note_on_c, 0, 83, 80
2, 15023, Note_on_c, 0, 79, 80
2, 15023, Note_on_c, 0, 91, 80
2, 15069, Note_on_c, 0, 47, 80
2, 15071, Note_on_c, 0, 59, 80
2, 15115, Note_on_c, 0, 79, 0
2, 15120, Note_on_c, 0, 83, 0
2, 15120, Note_on_c, 0, 91, 0
2, 15121, Note_on_c, 0, 76, 80
2, 15126, Note_on_c, 0, 88, 80
2, 15163, Note_on_c, 0, 47, 0
2, 15163, Note_on_c, 0, 59, 0
2, 15168, Note_on_c, 0, 44, 80
2, 15172, Note_on_c, 0, 56, 80
2, 15216, Note_on_c, 0, 76, 0
2, 15216, Note_on_c, 0, 88, 0
2, 15221, Note_on_c, 0, 77, 80
2, 15228, Note_on_c, 0, 89, 80
2, 15264, Note_on_c, 0, 44, 0
2, 15264, Note_on_c, 0, 56, 0
2, 15266, Note_on_c, 0, 77, 0
2, 15268, Note_on_c, 0, 45, 80
2, 15268, Note_on_c, 0, 57, 80
2, 15270, Note_on_c, 0, 89, 0
2, 15270, Note_on_c, 0, 90, 80
2, 15272, Note_on_c, 0, 78, 80
2, 15316, Note_on_c, 0, 78, 0
2, 15316, Note_on_c, 0, 57, 0
2, 15321, Note_on_c, 0, 90, 0
2, 15323, Note_on_c, 0, 83, 80
2, 15369, Note_on_c, 0, 45, 0
2, 15371, Note_on_c, 0, 83, 0
2, 15371, Note_on_c, 0, 50, 80
2, 15371, Note_on_c, 0, 54, 80
2, 15371, Note_on_c, 0, 57, 80
2, 15373, Note_on_c, 0, 60, 80
2, 15375, Note_on_c, 0, 84, 80
2, 15416, Note_on_c, 0, 60, 0
2, 15416, Note_on_c, 0, 54, 0
2, 15418, Note_on_c, 0, 50, 0
2, 15418, Note_on_c, 0, 57, 0
2, 15418, Note_on_c, 0, 84, 0
2, 15425, Note_on_c, 0, 78, 80
2, 15425, Note_on_c, 0, 90, 80
2, 15471, Note_on_c, 0, 78, 0
2, 15476, Note_on_c, 0, 90, 0
2, 15476, Note_on_c, 0, 38, 80
2, 15478, Note_on_c, 0, 50, 80
2, 15480, Note_on_c, 0, 83, 80
2, 15524, Note_on_c, 0, 83, 0
2, 15528, Note_on_c, 0, 84, 80
2, 15575, Note_on_c, 0, 50, 0
2, 15575, Note_on_c, 0, 38, 0
2, 15579, Note_on_c, 0, 60, 80
2, 15581, Note_on_c, 0, 84, 0
2, 15581, Note_on_c, 0, 54, 80
2, 15581, Note_on_c, 0, 78, 80
2, 15586, Note_on_c, 0, 62, 80
2, 15586, Note_on_c, 0, 90, 80
2, 15625, Note_on_c, 0, 78, 0
2, 15632, Note_on_c, 0, 90, 0
2, 15634, Note_on_c, 0, 83, 80
2, 15680, Note_on_c, 0, 54, 0
2, 15682, Note_on_c, 0, 62, 0
2, 15682, Note_on_c, 0, 60, 0
2, 15682, Note_on_c, 0, 83, 0
2, 15682, Note_on_c, 0, 57, 80
2, 15687, Note_on_c, 0, 45, 80
2, 15687, Note_on_c, 0, 81, 80
2, 15733, Note_on_c, 0, 81, 0
2, 15743, Note_on_c, 0, 78, 80
2, 15743, Note_on_c, 0, 90, 80
2, 15747, Note_on_c, 0, 84, 80
2, 15789, Note_on_c, 0, 45, 0
2, 15789, Note_on_c, 0, 57, 0
2, 15791, Note_on_c, 0, 84, 0
2, 15791, Note_on_c, 0, 50, 80
2, 15791, Note_on_c, 0, 54, 80
2, 15795, Note_on_c, 0, 60, 80
2, 15840, Note_on_c, 0, 78, 0
2, 15844, Note_on_c, 0, 90, 0
2, 15849, Note_on_c, 0, 76, 80
2, 15849, Note_on_c, 0, 84, 80
2, 15849, Note_on_c, 0, 88, 80
2, 15893, Note_on_c, 0, 54, 0
2, 15895, Note_on_c, 0, 60, 0
2, 15895, Note_on_c, 0, 50, 0
2, 15895, Note_on_c, 0, 57, 80
2, 15897, Note_on_c, 0, 45, 80
2, 15996, Note_on_c, 0, 45, 0
2, 15996, Note_on_c, 0, 57, 0
2, 15998, Note_on_c, 0, 58, 80
2, 16000, Note_on_c, 0, 88, 0
2, 16000, Note_on_c, 0, 76, 0
2, 16000, Note_on_c, 0, 84, 0
2, 16002, Note_on_c, 0, 46, 80
2, 16055, Note_on_c, 0, 88, 80
2, 16056, Note_on_c, 0, 76, 80
2, 16098, Note_on_c, 0, 58, 0
2, 16100, Note_on_c, 0, 46, 0
2, 16102, Note_on_c, 0, 47, 80
2, 16106, Note_on_c, 0, 59, 80
2, 16152, Note_on_c, 0, 59, 0
2, 16152, Note_on_c, 0, 76, 0
2, 16154, Note_on_c, 0, 88, 0
2, 16159, Note_on_c, 0, 82, 80
2, 16205, Note_on_c, 0, 82, 0
2, 16205, Note_on_c, 0, 47, 0
2, 16207, Note_on_c, 0, 50, 80
2, 16209, Note_on_c, 0, 59, 80
2, 16211, Note_on_c, 0, 55, 80
2, 16211, Note_on_c, 0, 83, 80
2, 16252, Note_on_c, 0, 55, 0
2, 16252, Note_on_c, 0, 50, 0
2, 16252, Note_on_c, 0, 59, 0
2, 16257, Note_on_c, 0, 83, 0
2, 16262, Note_on_c, 0, 76, 80
2, 16264, Note_on_c, 0, 88, 80
2, 16308, Note_on_c, 0, 88, 0
2, 16308, Note_on_c, 0, 76, 0
2, 16308, Note_on_c, 0, 50, 80
2, 16313, Note_on_c, 0, 38, 80
2, 16313, Note_on_c, 0, 82, 80
2, 16359, Note_on_c, 0, 82, 0
2, 16359, Note_on_c, 0, 50, 0
2, 16370, Note_on_c, 0, 83, 80
2, 16405, Note_on_c, 0, 38, 0
2, 16412, Note_on_c, 0, 50, 80
2, 16414, Note_on_c, 0, 83, 0
2, 16416, Note_on_c, 0, 55, 80
2, 16416, Note_on_c, 0, 59, 80
2, 16457, Note_on_c, 0, 59, 0
2, 16457, Note_on_c, 0, 55, 0
2, 16462, Note_on_c, 0, 50, 0
2, 16468, Note_on_c, 0, 74, 80
2, 16470, Note_on_c, 0, 83, 80
2, 16470, Note_on_c, 0, 86, 80
2, 16516, Note_on_c, 0, 47, 80
2, 16521, Note_on_c, 0, 59, 80
2, 16565, Note_on_c, 0, 59, 0
2, 16565, Note_on_c, 0, 47, 0
2, 16621, Note_on_c, 0, 74, 0
2, 16621, Note_on_c, 0, 83, 0
2, 16621, Note_on_c, 0, 86, 0
2, 16621, Note_on_c, 0, 47, 80
2, 16623, Note_on_c, 0, 62, 80
2, 16628, Note_on_c, 0, 59, 80
2, 16628, Note_on_c, 0, 67, 80
2, 16628, Note_on_c, 0, 71, 80
2, 16669, Note_on_c, 0, 71, 0
2, 16676, Note_on_c, 0, 62, 0
2, 16676, Note_on_c, 0, 67, 0
2, 16724, Note_on_c, 0, 59, 0
2, 16724, Note_on_c, 0, 47, 0
2, 16730, Note_on_c, 0, 45, 80
2, 16730, Note_on_c, 0, 57, 80
2, 16730, Note_on_c, 0, 62, 80
2, 16730, Note_on_c, 0, 66, 80
2, 16730, Note_on_c, 0, 72, 80
2, 16829, Note_on_c, 0, 66, 0
2, 16831, Note_on_c, 0, 62, 0
2, 16831, Note_on_c, 0, 45, 0
2, 16831, Note_on_c, 0, 57, 0
2, 16831, Note_on_c, 0, 72, 0
2, 16831, Note_on_c, 0, 43, 80
2, 16836, Note_on_c, 0, 55, 80
2, 16838, Note_on_c, 0, 64, 80
2, 16838, Note_on_c, 0, 67, 80
2, 16838, Note_on_c, 0, 73, 80
2, 16919, Note_on_c, 0, 64, 0
2, 16932, Note_on_c, 0, 67, 0
2, 16932, Note_on_c, 0, 43, 0
2, 16932, Note_on_c, 0, 55, 0
2, 16932, Note_on_c, 0, 73, 0
2, 16937, Note_on_c, 0, 42, 80
2, 16937, Note_on_c, 0, 54, 80
2, 16937, Note_on_c, 0, 62, 80
2, 16937, Note_on_c, 0, 69, 80
2, 16937, Note_on_c, 0, 74, 80
2, 16969, Note_on_c, 0, 69, 0
2, 16986, Note_on_c, 0, 54, 0
2, 17034, Note_on_c, 0, 42, 0
2, 17036, Note_on_c, 0, 74, 0
2, 17038, Note_on_c, 0, 62, 0
2, 17040, Note_on_c, 0, 50, 80
2, 17040, Note_on_c, 0, 54, 80
2, 17040, Note_on_c, 0, 60, 80
2, 17040, Note_on_c, 0, 63, 80
2, 17040, Note_on_c, 0, 69, 80
2, 17044, Note_on_c, 0, 75, 80
2, 17063, Note_on_c, 0, 69, 0
2, 17086, Note_on_c, 0, 54, 0
2, 17086, Note_on_c, 0, 60, 0
2, 17086, Note_on_c, 0, 50, 0
2, 17086, Note_on_c, 0, 75, 0
2, 17086, Note_on_c, 0, 63, 0
2, 17090, Note_on_c, 0, 69, 80
2, 17092, Note_on_c, 0, 64, 80
2, 17092, Note_on_c, 0, 76, 80
2, 17140, Note_on_c, 0, 76, 0
2, 17140, Note_on_c, 0, 50, 80
2, 17142, Note_on_c, 0, 38, 80
2, 17188, Note_on_c, 0, 50, 0
2, 17190, Note_on_c, 0, 64, 0
2, 17192, Note_on_c, 0, 72, 80
2, 17194, Note_on_c, 0, 76, 80
2, 17196, Note_on_c, 0, 84, 80
2, 17235, Note_on_c, 0, 38, 0
2, 17240, Note_on_c, 0, 50, 80
2, 17245, Note_on_c, 0, 54, 80
2, 17245, Note_on_c, 0, 60, 80
2, 17289, Note_on_c, 0, 54, 0
2, 17289, Note_on_c, 0, 69, 0
2, 17289, Note_on_c, 0, 72, 0
2, 17289, Note_on_c, 0, 50, 0
2, 17294, Note_on_c, 0, 76, 0
2, 17294, Note_on_c, 0, 84, 0
2, 17294, Note_on_c, 0, 60, 0
2, 17294, Note_on_c, 0, 78, 80
2, 17342, Note_on_c, 0, 78, 0
2, 17344, Note_on_c, 0, 50, 80
2, 17349, Note_on_c, 0, 62, 80
2, 17349, Note_on_c, 0, 71, 80
2, 17349, Note_on_c, 0, 74, 80
2, 17349, Note_on_c, 0, 83, 80
2, 17446, Note_on_c, 0, 83, 0
2, 17446, Note_on_c, 0, 71, 0
2, 17446, Note_on_c, 0, 50, 0
2, 17446, Note_on_c, 0, 62, 0
2, 17446, Note_on_c, 0, 74, 0
2, 17450, Note_on_c, 0, 61, 80
2, 17450, Note_on_c, 0, 70, 80
2, 17455, Note_on_c, 0, 82, 80
2, 17457, Note_on_c, 0, 49, 80
2, 17496, Note_on_c, 0, 70, 0
2, 17501, Note_on_c, 0, 82, 0
2, 17501, Note_on_c, 0, 69, 80
2, 17503, Note_on_c, 0, 72, 80
2, 17508, Note_on_c, 0, 81, 80
2, 17547, Note_on_c, 0, 49, 0
2, 17552, Note_on_c, 0, 61, 0
2, 17554, Note_on_c, 0, 48, 80
2, 17559, Note_on_c, 0, 60, 80
2, 17603, Note_on_c, 0, 72, 0
2, 17603, Note_on_c, 0, 69, 0
2, 17608, Note_on_c, 0, 81, 0
2, 17613, Note_on_c, 0, 76, 80
2, 17615, Note_on_c, 0, 79, 80
2, 17615, Note_on_c, 0, 88, 80
2, 17654, Note_on_c, 0, 48, 0
2, 17656, Note_on_c, 0, 60, 0
2, 17658, Note_on_c, 0, 58, 80
2, 17663, Note_on_c, 0, 46, 80
2, 17713, Note_on_c, 0, 79, 0
2, 17713, Note_on_c, 0, 88, 0
2, 17713, Note_on_c, 0, 76, 0
2, 17718, Note_on_c, 0, 85, 80
2, 17758, Note_on_c, 0, 46, 0
2, 17760, Note_on_c, 0, 58, 0
2, 17764, Note_on_c, 0, 85, 0
2, 17764, Note_on_c, 0, 47, 80
2, 17766, Note_on_c, 0, 88, 80
2, 17768, Note_on_c, 0, 59, 80
2, 17768, Note_on_c, 0, 76, 80
2, 17768, Note_on_c, 0, 79, 80
2, 17812, Note_on_c, 0, 59, 0
2, 17868, Note_on_c, 0, 76, 0
2, 17868, Note_on_c, 0, 47, 0
2, 17868, Note_on_c, 0, 88, 0
2, 17868, Note_on_c, 0, 79, 0
2, 17870, Note_on_c, 0, 50, 80
2, 17870, Note_on_c, 0, 55, 80
2, 17872, Note_on_c, 0, 59, 80
2, 17872, Note_on_c, 0, 75, 80
2, 17877, Note_on_c, 0, 87, 80
2, 17913, Note_on_c, 0, 59, 0
2, 17913, Note_on_c, 0, 50, 0
2, 17913, Note_on_c, 0, 55, 0
2, 17918, Note_on_c, 0, 75, 0
2, 17918, Note_on_c, 0, 87, 0
2, 17923, Note_on_c, 0, 74, 80
2, 17923, Note_on_c, 0, 86, 80
2, 17969, Note_on_c, 0, 86, 0
2, 17971, Note_on_c, 0, 50, 80
2, 17973, Note_on_c, 0, 38, 80
2, 18012, Note_on_c, 0, 95, 80
2, 18019, Note_on_c, 0, 74, 0
2, 18021, Note_on_c, 0, 83, 80
2, 18023, Note_on_c, 0, 86, 80
2, 18062, Note_on_c, 0, 50, 0
2, 18062, Note_on_c, 0, 38, 0
2, 18067, Note_on_c, 0, 48, 80
2, 18072, Note_on_c, 0, 36, 80
2, 18108, Note_on_c, 0, 95, 0
2, 18120, Note_on_c, 0, 83, 0
2, 18120, Note_on_c, 0, 86, 0
2, 18120, Note_on_c, 0, 90, 80
2, 18166, Note_on_c, 0, 48, 0
2, 18166, Note_on_c, 0, 36, 0
2, 18170, Note_on_c, 0, 47, 80
2, 18172, Note_on_c, 0, 35, 80
2, 18174, Note_on_c, 0, 90, 0
2, 18174, Note_on_c, 0, 81, 80
2, 18174, Note_on_c, 0, 84, 80
2, 18174, Note_on_c, 0, 93, 80
2, 18260, Note_on_c, 0, 93, 0
2, 18266, Note_on_c, 0, 35, 0
2, 18271, Note_on_c, 0, 47, 0
2, 18271, Note_on_c, 0, 81, 0
2, 18271, Note_on_c, 0, 84, 0
2, 18271, Note_on_c, 0, 50, 80
2, 18271, Note_on_c, 0, 55, 80
2, 18276, Note_on_c, 0, 59, 80
2, 18276, Note_on_c, 0, 80, 80
2, 18281, Note_on_c, 0, 92, 80
2, 18320, Note_on_c, 0, 59, 0
2, 18320, Note_on_c, 0, 50, 0
2, 18320, Note_on_c, 0, 55, 0
2, 18325, Note_on_c, 0, 80, 0
2, 18325, Note_on_c, 0, 92, 0
2, 18327, Note_on_c, 0, 83, 80
2, 18329, Note_on_c, 0, 91, 80
2, 18331, Note_on_c, 0, 79, 80
2, 18375, Note_on_c, 0, 79, 0
2, 18375, Note_on_c, 0, 83, 0
2, 18377, Note_on_c, 0, 43, 80
2, 18377, Note_on_c, 0, 55, 80
2, 18434, Note_on_c, 0, 91, 0
2, 18434, Note_on_c, 0, 74, 80
2, 18436, Note_on_c, 0, 79, 80
2, 18436, Note_on_c, 0, 83, 80
2, 18436, Note_on_c, 0, 86, 80
2, 18482, Note_on_c, 0, 55, 0
2, 18482, Note_on_c, 0, 43, 0
2, 18487, Note_on_c, 0, 83, 0
2, 18487, Note_on_c, 0, 79, 0
2, 18487, Note_on_c, 0, 41, 80
2, 18487, Note_on_c, 0, 53, 80
2, 18535, Note_on_c, 0, 86, 0
2, 18535, Note_on_c, 0, 74, 0
2, 18542, Note_on_c, 0, 73, 80
2, 18542, Note_on_c, 0, 79, 80
2, 18542, Note_on_c, 0, 85, 80
2, 18588, Note_on_c, 0, 53, 0
2, 18590, Note_on_c, 0, 41, 0
2, 18590, Note_on_c, 0, 52, 80
2, 18595, Note_on_c, 0, 40, 80
2, 18643, Note_on_c, 0, 79, 0
2, 18643, Note_on_c, 0, 73, 0
2, 18648, Note_on_c, 0, 85, 0
2, 18648, Note_on_c, 0, 91, 80
2, 18692, Note_on_c, 0, 52, 0
2, 18696, Note_on_c, 0, 40, 0
2, 18698, Note_on_c, 0, 43, 80
2, 18700, Note_on_c, 0, 91, 0
2, 18702, Note_on_c, 0, 55, 80
2, 18704, Note_on_c, 0, 79, 80
2, 18704, Note_on_c, 0, 85, 80
2, 18750, Note_on_c, 0, 79, 0
2, 18755, Note_on_c, 0, 85, 0
2, 18755, Note_on_c, 0, 90, 80
2, 18803, Note_on_c, 0, 55, 0
2, 18803, Note_on_c, 0, 43, 0
2, 18808, Note_on_c, 0, 90, 0
2, 18808, Note_on_c, 0, 78, 80
2, 18810, Note_on_c, 0, 58, 80
2, 18810, Note_on_c, 0, 46, 80
2, 18810, Note_on_c, 0, 82, 80
2, 18812, Note_on_c, 0, 85, 80
2, 18856, Note_on_c, 0, 82, 0
2, 18856, Note_on_c, 0, 78, 0
2, 18861, Note_on_c, 0, 85, 0
2, 18865, Note_on_c, 0, 88, 80
2, 18905, Note_on_c, 0, 46, 0
2, 18905, Note_on_c, 0, 58, 0
2, 18910, Note_on_c, 0, 88, 0
2, 18914, Note_on_c, 0, 85, 80
2, 18916, Note_on_c, 0, 61, 80
2, 18916, Note_on_c, 0, 76, 80
2, 18916, Note_on_c, 0, 82, 80
2, 18926, Note_on_c, 0, 49, 80
2, 18959, Note_on_c, 0, 82, 0
2, 18959, Note_on_c, 0, 76, 0
2, 18963, Note_on_c, 0, 85, 0
2, 18970, Note_on_c, 0, 86, 80
2, 19009, Note_on_c, 0, 49, 0
2, 19011, Note_on_c, 0, 61, 0
2, 19013, Note_on_c, 0, 50, 80
2, 19020, Note_on_c, 0, 62, 80
2, 19020, Note_on_c, 0, 74, 80
2, 19020, Note_on_c, 0, 83, 80
2, 19038, Note_on_c, 0, 83, 0
2, 19043, Note_on_c, 0, 74, 0
2, 19068, Note_on_c, 0, 86, 0
2, 19070, Note_on_c, 0, 71, 80
2, 19072, Note_on_c, 0, 74, 80
2, 19074, Note_on_c, 0, 79, 80
2, 19074, Note_on_c, 0, 83, 80
2, 19108, Note_on_c, 0, 50, 0
2, 19113, Note_on_c, 0, 74, 0
2, 19113, Note_on_c, 0, 62, 0
2, 19115, Note_on_c, 0, 43, 80
2, 19115, Note_on_c, 0, 55, 80
2, 19120, Note_on_c, 0, 31, 80
2, 19164, Note_on_c, 0, 71, 0
2, 19169, Note_on_c, 0, 79, 0
2, 19169, Note_on_c, 0, 83, 0
2, 19171, Note_on_c, 0, 69, 80
2, 19171, Note_on_c, 0, 78, 80
2, 19173, Note_on_c, 0, 74, 80
2, 19173, Note_on_c, 0, 81, 80
2, 19214, Note_on_c, 0, 43, 0
2, 19214, Note_on_c, 0, 55, 0
2, 19219, Note_on_c, 0, 33, 80
2, 19221, Note_on_c, 0, 45, 80
2, 19265, Note_on_c, 0, 31, 0
2, 19267, Note_on_c, 0, 78, 0
2, 19269, Note_on_c, 0, 74, 0
2, 19315, Note_on_c, 0, 33, 0
2, 19317, Note_on_c, 0, 69, 0
2, 19317, Note_on_c, 0, 81, 0
2, 19317, Note_on_c, 0, 45, 0
2, 19319, Note_on_c, 0, 47, 80
2, 19323, Note_on_c, 0, 35, 80
2, 19323, Note_on_c, 0, 67, 80
2, 19323, Note_on_c, 0, 74, 80
2, 19325, Note_on_c, 0, 79, 80
2, 19417, Note_on_c, 0, 35, 0
2, 19417, Note_on_c, 0, 47, 0
2, 19422, Note_on_c, 0, 74, 0
2, 19422, Note_on_c, 0, 67, 0
2, 19424, Note_on_c, 0, 79, 0
2, 19426, Note_on_c, 0, 36, 80
2, 19426, Note_on_c, 0, 48, 80
2, 19431, Note_on_c, 0, 76, 80
2, 19475, Note_on_c, 0, 48, 0
2, 19480, Note_on_c, 0, 76, 0
2, 19480, Note_on_c, 0, 69, 80
2, 19480, Note_on_c, 0, 72, 80
2, 19482, Note_on_c, 0, 64, 80
2, 19528, Note_on_c, 0, 36, 0
2, 19533, Note_on_c, 0, 48, 80
2, 19546, Note_on_c, 0, 60, 80
2, 19576, Note_on_c, 0, 69, 0
2, 19583, Note_on_c, 0, 64, 0
2, 19583, Note_on_c, 0, 72, 0
2, 19587, Note_on_c, 0, 62, 80
2, 19587, Note_on_c, 0, 67, 80
2, 19587, Note_on_c, 0, 71, 80
2, 19632, Note_on_c, 0, 60, 0
2, 19633, Note_on_c, 0, 48, 0
2, 19633, Note_on_c, 0, 50, 80
2, 19638, Note_on_c, 0, 38, 80
2, 19680, Note_on_c, 0, 50, 0
2, 19680, Note_on_c, 0, 71, 0
2, 19684, Note_on_c, 0, 67, 0
2, 19684, Note_on_c, 0, 62, 0
2, 19689, Note_on_c, 0, 74, 80
2, 19735, Note_on_c, 0, 38, 0
2, 19740, Note_on_c, 0, 74, 0
2, 19742, Note_on_c, 0, 50, 80
2, 19742, Note_on_c, 0, 60, 80
2, 19742, Note_on_c, 0, 66, 80
2, 19742, Note_on_c, 0, 69, 80
2, 19841, Note_on_c, 0, 69, 0
2, 19841, Note_on_c, 0, 66, 0
2, 19841, Note_on_c, 0, 60, 0
2, 19846, Note_on_c, 0, 43, 80
2, 19848, Note_on_c, 0, 59, 80
2, 19848, Note_on_c, 0, 62, 80
2, 19849, Note_on_c, 0, 67, 80
2, 19891, Note_on_c, 0, 59, 0
2, 19893, Note_on_c, 0, 62, 0
2, 19893, Note_on_c, 0, 67, 0
2, 19941, Note_on_c, 0, 43, 0
2, 19945, Note_on_c, 0, 47, 80
2, 19947, Note_on_c, 0, 59, 80
2, 19947, Note_on_c, 0, 62, 80
2, 19952, Note_on_c, 0, 67, 80
2, 19952, Note_on_c, 0, 71, 80
2, 19970, Note_on_c, 0, 50, 0
2, 19993, Note_on_c, 0, 67, 0
2, 19993, Note_on_c, 0, 62, 0
2, 20041, Note_on_c, 0, 47, 0
2, 20041, Note_on_c, 0, 71, 0
2, 20041, Note_on_c, 0, 59, 0
2, 20046, Note_on_c, 0, 45, 80
2, 20048, Note_on_c, 0, 57, 80
2, 20048, Note_on_c, 0, 62, 80
2, 20048, Note_on_c, 0, 66, 80
2, 20048, Note_on_c, 0, 72, 80
2, 20145, Note_on_c, 0, 66, 0
2, 20147, Note_on_c, 0, 57, 0
2, 20152, Note_on_c, 0, 62, 0
2, 20152, Note_on_c, 0, 43, 80
2, 20152, Note_on_c, 0, 55, 80
2, 20152, Note_on_c, 0, 64, 80
2, 20154, Note_on_c, 0, 67, 80
2, 20154, Note_on_c, 0, 73, 80
2, 20156, Note_on_c, 0, 45, 0
2, 20156, Note_on_c, 0, 72, 0
2, 20195, Note_on_c, 0, 43, 0
2, 20200, Note_on_c, 0, 67, 0
2, 20248, Note_on_c, 0, 55, 0
2, 20248, Note_on_c, 0, 64, 0
2, 20248, Note_on_c, 0, 73, 0
2, 20253, Note_on_c, 0, 42, 80
2, 20255, Note_on_c, 0, 62, 80
2, 20255, Note_on_c, 0, 69, 80
2, 20255, Note_on_c, 0, 74, 80
2, 20256, Note_on_c, 0, 54, 80
2, 20298, Note_on_c, 0, 54, 0
2, 20298, Note_on_c, 0, 69, 0
2, 20355, Note_on_c, 0, 42, 0
2, 20357, Note_on_c, 0, 62, 0
2, 20357, Note_on_c, 0, 74, 0
2, 20359, Note_on_c, 0, 50, 80
2, 20359, Note_on_c, 0, 63, 80
2, 20361, Note_on_c, 0, 60, 80
2, 20361, Note_on_c, 0, 69, 80
2, 20363, Note_on_c, 0, 54, 80
2, 20363, Note_on_c, 0, 75, 80
2, 20381, Note_on_c, 0, 69, 0
2, 20402, Note_on_c, 0, 54, 0
2, 20407, Note_on_c, 0, 60, 0
2, 20407, Note_on_c, 0, 50, 0
2, 20407, Note_on_c, 0, 75, 0
2, 20407, Note_on_c, 0, 63, 0
2, 20412, Note_on_c, 0, 64, 80
2, 20412, Note_on_c, 0, 69, 80
2, 20412, Note_on_c, 0, 76, 80
2, 20460, Note_on_c, 0, 76, 0
2, 20462, Note_on_c, 0, 38, 80
2, 20462, Note_on_c, 0, 50, 80
2, 20510, Note_on_c, 0, 69, 0
2, 20510, Note_on_c, 0, 64, 0
2, 20512, Note_on_c, 0, 50, 0
2, 20517, Note_on_c, 0, 72, 80
2, 20517, Note_on_c, 0, 84, 80
2, 20519, Note_on_c, 0, 76, 80
2, 20558, Note_on_c, 0, 38, 0
2, 20568, Note_on_c, 0, 50, 80
2, 20568, Note_on_c, 0, 54, 80
2, 20568, Note_on_c, 0, 60, 80
2, 20609, Note_on_c, 0, 54, 0
2, 20611, Note_on_c, 0, 72, 0
2, 20611, Note_on_c, 0, 76, 0
2, 20611, Note_on_c, 0, 60, 0
2, 20613, Note_on_c, 0, 50, 0
2, 20615, Note_on_c, 0, 84, 0
2, 20616, Note_on_c, 0, 78, 80
2, 20661, Note_on_c, 0, 78, 0
2, 20663, Note_on_c, 0, 50, 80
2, 20667, Note_on_c, 0, 62, 80
2, 20667, Note_on_c, 0, 71, 80
2, 20667, Note_on_c, 0, 74, 80
2, 20669, Note_on_c, 0, 83, 80
2, 20760, Note_on_c, 0, 71, 0
2, 20760, Note_on_c, 0, 50, 0
2, 20760, Note_on_c, 0, 62, 0
2, 20764, Note_on_c, 0, 74, 0
2, 20766, Note_on_c, 0, 83, 0
2, 20766, Note_on_c, 0, 61, 80
2, 20771, Note_on_c, 0, 70, 80
2, 20771, Note_on_c, 0, 82, 80
2, 20778, Note_on_c, 0, 49, 80
2, 20814, Note_on_c, 0, 82, 0
2, 20814, Note_on_c, 0, 70, 0
2, 20819, Note_on_c, 0, 69, 80
2, 20819, Note_on_c, 0, 72, 80
2, 20819, Note_on_c, 0, 81, 80
2, 20858, Note_on_c, 0, 49, 0
2, 20860, Note_on_c, 0, 61, 0
2, 20867, Note_on_c, 0, 48, 80
2, 20867, Note_on_c, 0, 60, 80
2, 20911, Note_on_c, 0, 69, 0
2, 20916, Note_on_c, 0, 81, 0
2, 20916, Note_on_c, 0, 72, 0
2, 20923, Note_on_c, 0, 76, 80
2, 20923, Note_on_c, 0, 79, 80
2, 20923, Note_on_c, 0, 88, 80
2, 20964, Note_on_c, 0, 48, 0
2, 20964, Note_on_c, 0, 60, 0
2, 20969, Note_on_c, 0, 46, 80
2, 20971, Note_on_c, 0, 58, 80
2, 21015, Note_on_c, 0, 76, 0
2, 21020, Note_on_c, 0, 88, 0
2, 21020, Note_on_c, 0, 79, 0
2, 21026, Note_on_c, 0, 85, 80
2, 21066, Note_on_c, 0, 46, 0
2, 21066, Note_on_c, 0, 58, 0
2, 21071, Note_on_c, 0, 47, 80
2, 21071, Note_on_c, 0, 59, 80
2, 21075, Note_on_c, 0, 85, 0
2, 21075, Note_on_c, 0, 76, 80
2, 21075, Note_on_c, 0, 79, 80
2, 21075, Note_on_c, 0, 88, 80
2, 21120, Note_on_c, 0, 59, 0
2, 21175, Note_on_c, 0, 47, 0
2, 21177, Note_on_c, 0, 50, 80
2, 21179, Note_on_c, 0, 79, 0
2, 21179, Note_on_c, 0, 88, 0
2, 21179, Note_on_c, 0, 76, 0
2, 21181, Note_on_c, 0, 55, 80
2, 21181, Note_on_c, 0, 59, 80
2, 21181, Note_on_c, 0, 75, 80
2, 21186, Note_on_c, 0, 87, 80
2, 21225, Note_on_c, 0, 59, 0
2, 21225, Note_on_c, 0, 50, 0
2, 21230, Note_on_c, 0, 55, 0
2, 21232, Note_on_c, 0, 87, 0
2, 21232, Note_on_c, 0, 75, 0
2, 21237, Note_on_c, 0, 74, 80
2, 21237, Note_on_c, 0, 79, 80
2, 21237, Note_on_c, 0, 86, 80
2, 21288, Note_on_c, 0, 50, 80
2, 21289, Note_on_c, 0, 86, 0
2, 21291, Note_on_c, 0, 38, 80
2, 21339, Note_on_c, 0, 74, 0
2, 21339, Note_on_c, 0, 79, 0
2, 21346, Note_on_c, 0, 83, 80
2, 21346, Note_on_c, 0, 95, 80
2, 21348, Note_on_c, 0, 86, 80
2, 21387, Note_on_c, 0, 38, 0
2, 21392, Note_on_c, 0, 50, 0
2, 21397, Note_on_c, 0, 48, 80
2, 21399, Note_on_c, 0, 36, 80
2, 21445, Note_on_c, 0, 86, 0
2, 21445, Note_on_c, 0, 83, 0
2, 21450, Note_on_c, 0, 95, 0
2, 21452, Note_on_c, 0, 90, 80
2, 21500, Note_on_c, 0, 36, 0
2, 21500, Note_on_c, 0, 48, 0
2, 21504, Note_on_c, 0, 90, 0
2, 21504, Note_on_c, 0, 35, 80
2, 21504, Note_on_c, 0, 47, 80
2, 21509, Note_on_c, 0, 84, 80
2, 21509, Note_on_c, 0, 93, 80
2, 21511, Note_on_c, 0, 81, 80
2, 21606, Note_on_c, 0, 47, 0
2, 21606, Note_on_c, 0, 35, 0
2, 21608, Note_on_c, 0, 81, 0
2, 21610, Note_on_c, 0, 84, 0
2, 21610, Note_on_c, 0, 93, 0
2, 21610, Note_on_c, 0, 50, 80
2, 21612, Note_on_c, 0, 55, 80
2, 21617, Note_on_c, 0, 59, 80
2, 21617, Note_on_c, 0, 80, 80
2, 21619, Note_on_c, 0, 92, 80
2, 21658, Note_on_c, 0, 80, 0
2, 21658, Note_on_c, 0, 59, 0
2, 21658, Note_on_c, 0, 50, 0
2, 21658, Note_on_c, 0, 55, 0
2, 21660, Note_on_c, 0, 92, 0
2, 21660, Note_on_c, 0, 91, 80
2, 21662, Note_on_c, 0, 83, 80
2, 21667, Note_on_c, 0, 79, 80
2, 21713, Note_on_c, 0, 47, 80
2, 21713, Note_on_c, 0, 59, 80
2, 21761, Note_on_c, 0, 79, 0
2, 21761, Note_on_c, 0, 83, 0
2, 21766, Note_on_c, 0, 91, 0
2, 21770, Note_on_c, 0, 88, 80
2, 21772, Note_on_c, 0, 76, 80
2, 21809, Note_on_c, 0, 47, 0
2, 21811, Note_on_c, 0, 59, 0
2, 21816, Note_on_c, 0, 44, 80
2, 21816, Note_on_c, 0, 56, 80
2, 21864, Note_on_c, 0, 88, 0
2, 21864, Note_on_c, 0, 76, 0
2, 21870, Note_on_c, 0, 77, 80
2, 21870, Note_on_c, 0, 89, 80
2, 21910, Note_on_c, 0, 44, 0
2, 21910, Note_on_c, 0, 56, 0
2, 21914, Note_on_c, 0, 77, 0
2, 21916, Note_on_c, 0, 45, 80
2, 21916, Note_on_c, 0, 57, 80
2, 21921, Note_on_c, 0, 89, 0
2, 21921, Note_on_c, 0, 90, 80
2, 21923, Note_on_c, 0, 78, 80
2, 21964, Note_on_c, 0, 78, 0
2, 21964, Note_on_c, 0, 57, 0
2, 21969, Note_on_c, 0, 90, 0
2, 21971, Note_on_c, 0, 83, 80
2, 22012, Note_on_c, 0, 45, 0
2, 22019, Note_on_c, 0, 83, 0
2, 22019, Note_on_c, 0, 50, 80
2, 22019, Note_on_c, 0, 54, 80
2, 22019, Note_on_c, 0, 57, 80
2, 22019, Note_on_c, 0, 60, 80
2, 22026, Note_on_c, 0, 84, 80
2, 22067, Note_on_c, 0, 84, 0
2, 22067, Note_on_c, 0, 57, 0
2, 22067, Note_on_c, 0, 50, 0
2, 22067, Note_on_c, 0, 54, 0
2, 22067, Note_on_c, 0, 60, 0
2, 22072, Note_on_c, 0, 78, 80
2, 22072, Note_on_c, 0, 90, 80
2, 22118, Note_on_c, 0, 78, 0
2, 22123, Note_on_c, 0, 90, 0
2, 22123, Note_on_c, 0, 38, 80
2, 22123, Note_on_c, 0, 50, 80
2, 22129, Note_on_c, 0, 83, 80
2, 22177, Note_on_c, 0, 83, 0
2, 22182, Note_on_c, 0, 84, 80
2, 22222, Note_on_c, 0, 38, 0
2, 22224, Note_on_c, 0, 50, 0
2, 22225, Note_on_c, 0, 84, 0
2, 22225, Note_on_c, 0, 54, 80
2, 22225, Note_on_c, 0, 62, 80
2, 22230, Note_on_c, 0, 60, 80
2, 22230, Note_on_c, 0, 78, 80
2, 22230, Note_on_c, 0, 90, 80
2, 22274, Note_on_c, 0, 78, 0
2, 22279, Note_on_c, 0, 90, 0
2, 22284, Note_on_c, 0, 83, 80
2, 22330, Note_on_c, 0, 83, 0
2, 22330, Note_on_c, 0, 60, 0
2, 22330, Note_on_c, 0, 62, 0
2, 22330, Note_on_c, 0, 54, 0
2, 22332, Note_on_c, 0, 57, 80
2, 22334, Note_on_c, 0, 45, 80
2, 22341, Note_on_c, 0, 81, 80
2, 22380, Note_on_c, 0, 81, 0
2, 22387, Note_on_c, 0, 78, 80
2, 22392, Note_on_c, 0, 90, 80
2, 22392, Note_on_c, 0, 84, 80
2, 22431, Note_on_c, 0, 57, 0
2, 22436, Note_on_c, 0, 45, 0
2, 22436, Note_on_c, 0, 84, 0
2, 22436, Note_on_c, 0, 50, 80
2, 22440, Note_on_c, 0, 54, 80
2, 22440, Note_on_c, 0, 60, 80
2, 22485, Note_on_c, 0, 78, 0
2, 22489, Note_on_c, 0, 90, 0
2, 22496, Note_on_c, 0, 84, 80
2, 22496, Note_on_c, 0, 88, 80
2, 22498, Note_on_c, 0, 76, 80
2, 22539, Note_on_c, 0, 54, 0
2, 22541, Note_on_c, 0, 60, 0
2, 22541, Note_on_c, 0, 50, 0
2, 22543, Note_on_c, 0, 45, 80
2, 22545, Note_on_c, 0, 57, 80
2, 22642, Note_on_c, 0, 57, 0
2, 22642, Note_on_c, 0, 76, 0
2, 22642, Note_on_c, 0, 45, 0
2, 22644, Note_on_c, 0, 88, 0
2, 22644, Note_on_c, 0, 84, 0
2, 22644, Note_on_c, 0, 46, 80
2, 22662, Note_on_c, 0, 58, 80
2, 22704, Note_on_c, 0, 76, 80
2, 22708, Note_on_c, 0, 88, 80
2, 22745, Note_on_c, 0, 58, 0
2, 22750, Note_on_c, 0, 46, 0
2, 22750, Note_on_c, 0, 47, 80
2, 22756, Note_on_c, 0, 59, 80
2, 22800, Note_on_c, 0, 59, 0
2, 22800, Note_on_c, 0, 76, 0
2, 22802, Note_on_c, 0, 88, 0
2, 22812, Note_on_c, 0, 82, 80
2, 22856, Note_on_c, 0, 47, 0
2, 22858, Note_on_c, 0, 82, 0
2, 22858, Note_on_c, 0, 50, 80
2, 22858, Note_on_c, 0, 55, 80
2, 22863, Note_on_c, 0, 59, 80
2, 22865, Note_on_c, 0, 83, 80
2, 22906, Note_on_c, 0, 59, 0
2, 22906, Note_on_c, 0, 50, 0
2, 22906, Note_on_c, 0, 55, 0
2, 22913, Note_on_c, 0, 83, 0
2, 22915, Note_on_c, 0, 76, 80
2, 22920, Note_on_c, 0, 88, 80
2, 22959, Note_on_c, 0, 88, 0
2, 22959, Note_on_c, 0, 76, 0
2, 22959, Note_on_c, 0, 50, 80
2, 22964, Note_on_c, 0, 38, 80
2, 22968, Note_on_c, 0, 82, 80
2, 23008, Note_on_c, 0, 82, 0
2, 23008, Note_on_c, 0, 50, 0
2, 23017, Note_on_c, 0, 83, 80
2, 23059, Note_on_c, 0, 38, 0
2, 23061, Note_on_c, 0, 83, 0
2, 23061, Note_on_c, 0, 50, 80
2, 23063, Note_on_c, 0, 55, 80
2, 23064, Note_on_c, 0, 59, 80
2, 23111, Note_on_c, 0, 59, 0
2, 23111, Note_on_c, 0, 55, 0
2, 23111, Note_on_c, 0, 50, 0
2, 23117, Note_on_c, 0, 74, 80
2, 23117, Note_on_c, 0, 83, 80
2, 23119, Note_on_c, 0, 86, 80
2, 23163, Note_on_c, 0, 47, 80
2, 23170, Note_on_c, 0, 59, 80
2, 23211, Note_on_c, 0, 59, 0
2, 23213, Note_on_c, 0, 47, 0
2, 23264, Note_on_c, 0, 74, 0
2, 23264, Note_on_c, 0, 83, 0
2, 23264, Note_on_c, 0, 86, 0
2, 23266, Note_on_c, 0, 47, 80
2, 23266, Note_on_c, 0, 59, 80
2, 23266, Note_on_c, 0, 62, 80
2, 23268, Note_on_c, 0, 67, 80
2, 23268, Note_on_c, 0, 71, 80
2, 23312, Note_on_c, 0, 71, 0
2, 23312, Note_on_c, 0, 62, 0
2, 23312, Note_on_c, 0, 67, 0
2, 23365, Note_on_c, 0, 59, 0
2, 23365, Note_on_c, 0, 47, 0
2, 23372, Note_on_c, 0, 45, 80
2, 23372, Note_on_c, 0, 57, 80
2, 23372, Note_on_c, 0, 62, 80
2, 23372, Note_on_c, 0, 66, 80
2, 23372, Note_on_c, 0, 72, 80
2, 23464, Note_on_c, 0, 72, 0
2, 23469, Note_on_c, 0, 62, 0
2, 23469, Note_on_c, 0, 45, 0
2, 23469, Note_on_c, 0, 57, 0
2, 23469, Note_on_c, 0, 66, 0
2, 23469, Note_on_c, 0, 43, 80
2, 23469, Note_on_c, 0, 55, 80
2, 23473, Note_on_c, 0, 64, 80
2, 23473, Note_on_c, 0, 67, 80
2, 23473, Note_on_c, 0, 73, 80
2, 23570, Note_on_c, 0, 73, 0
2, 23570, Note_on_c, 0, 55, 0
2, 23570, Note_on_c, 0, 43, 0
2, 23570, Note_on_c, 0, 67, 0
2, 23572, Note_on_c, 0, 64, 0
2, 23577, Note_on_c, 0, 42, 80
2, 23577, Note_on_c, 0, 69, 80
2, 23579, Note_on_c, 0, 54, 80
2, 23581, Note_on_c, 0, 74, 80
2, 23591, Note_on_c, 0, 62, 80
2, 23620, Note_on_c, 0, 69, 0
2, 23625, Note_on_c, 0, 54, 0
2, 23673, Note_on_c, 0, 62, 0
2, 23673, Note_on_c, 0, 74, 0
2, 23675, Note_on_c, 0, 42, 0
2, 23680, Note_on_c, 0, 50, 80
2, 23680, Note_on_c, 0, 60, 80
2, 23680, Note_on_c, 0, 63, 80
2, 23680, Note_on_c, 0, 69, 80
2, 23682, Note_on_c, 0, 54, 80
2, 23684, Note_on_c, 0, 75, 80
2, 23697, Note_on_c, 0, 69, 0
2, 23725, Note_on_c, 0, 60, 0
2, 23725, Note_on_c, 0, 63, 0
2, 23725, Note_on_c, 0, 50, 0
2, 23725, Note_on_c, 0, 75, 0
2, 23725, Note_on_c, 0, 54, 0
2, 23732, Note_on_c, 0, 64, 80
2, 23732, Note_on_c, 0, 69, 80
2, 23736, Note_on_c, 0, 76, 80
2, 23783, Note_on_c, 0, 76, 0
2, 23783, Note_on_c, 0, 38, 80
2, 23783, Note_on_c, 0, 50, 80
2, 23817, Note_on_c, 0, 64, 0
2, 23831, Note_on_c, 0, 50, 0
2, 23835, Note_on_c, 0, 72, 80
2, 23842, Note_on_c, 0, 76, 80
2, 23842, Note_on_c, 0, 84, 80
2, 23881, Note_on_c, 0, 38, 0
2, 23886, Note_on_c, 0, 50, 80
2, 23891, Note_on_c, 0, 60, 80
2, 23893, Note_on_c, 0, 54, 80
2, 23929, Note_on_c, 0, 69, 0
2, 23934, Note_on_c, 0, 60, 0
2, 23934, Note_on_c, 0, 72, 0
2, 23934, Note_on_c, 0, 50, 0
2, 23934, Note_on_c, 0, 54, 0
2, 23936, Note_on_c, 0, 76, 0
2, 23936, Note_on_c, 0, 84, 0
2, 23943, Note_on_c, 0, 78, 80
2, 23989, Note_on_c, 0, 78, 0
2, 23994, Note_on_c, 0, 50, 80
2, 23996, Note_on_c, 0, 62, 80
2, 23998, Note_on_c, 0, 71, 80
2, 23998, Note_on_c, 0, 74, 80
2, 23998, Note_on_c, 0, 83, 80
2, 24093, Note_on_c, 0, 71, 0
2, 24093, Note_on_c, 0, 50, 0
2, 24097, Note_on_c, 0, 62, 0
2, 24097, Note_on_c, 0, 74, 0
2, 24097, Note_on_c, 0, 83, 0
2, 24102, Note_on_c, 0, 61, 80
2, 24102, Note_on_c, 0, 70, 80
2, 24109, Note_on_c, 0, 49, 80
2, 24148, Note_on_c, 0, 70, 0
2, 24153, Note_on_c, 0, 69, 80
2, 24153, Note_on_c, 0, 72, 80
2, 24160, Note_on_c, 0, 81, 80
2, 24199, Note_on_c, 0, 49, 0
2, 24204, Note_on_c, 0, 61, 0
2, 24206, Note_on_c, 0, 48, 80
2, 24206, Note_on_c, 0, 60, 80
2, 24252, Note_on_c, 0, 72, 0
2, 24257, Note_on_c, 0, 81, 0
2, 24257, Note_on_c, 0, 69, 0
2, 24266, Note_on_c, 0, 76, 80
2, 24271, Note_on_c, 0, 79, 80
2, 24271, Note_on_c, 0, 88, 80
2, 24311, Note_on_c, 0, 48, 0
2, 24312, Note_on_c, 0, 60, 0
2, 24314, Note_on_c, 0, 46, 80
2, 24314, Note_on_c, 0, 58, 80
2, 24360, Note_on_c, 0, 79, 0
2, 24360, Note_on_c, 0, 88, 0
2, 24360, Note_on_c, 0, 76, 0
2, 24365, Note_on_c, 0, 85, 80
2, 24409, Note_on_c, 0, 58, 0
2, 24411, Note_on_c, 0, 46, 0
2, 24413, Note_on_c, 0, 85, 0
2, 24415, Note_on_c, 0, 47, 80
2, 24415, Note_on_c, 0, 59, 80
2, 24422, Note_on_c, 0, 76, 80
2, 24422, Note_on_c, 0, 88, 80
2, 24427, Note_on_c, 0, 79, 80
2, 24463, Note_on_c, 0, 59, 0
2, 24514, Note_on_c, 0, 88, 0
2, 24514, Note_on_c, 0, 47, 0
2, 24514, Note_on_c, 0, 76, 0
2, 24514, Note_on_c, 0, 79, 0
2, 24521, Note_on_c, 0, 50, 80
2, 24521, Note_on_c, 0, 55, 80
2, 24521, Note_on_c, 0, 59, 80
2, 24523, Note_on_c, 0, 75, 80
2, 24529, Note_on_c, 0, 87, 80
2, 24566, Note_on_c, 0, 75, 0
2, 24566, Note_on_c, 0, 59, 0
2, 24566, Note_on_c, 0, 50, 0
2, 24566, Note_on_c, 0, 55, 0
2, 24568, Note_on_c, 0, 87, 0
2, 24573, Note_on_c, 0, 74, 80
2, 24573, Note_on_c, 0, 86, 80
2, 24617, Note_on_c, 0, 86, 0
2, 24622, Note_on_c, 0, 38, 80
2, 24624, Note_on_c, 0, 50, 80
2, 24670, Note_on_c, 0, 74, 0
2, 24676, Note_on_c, 0, 83, 80
2, 24676, Note_on_c, 0, 86, 80
2, 24676, Note_on_c, 0, 95, 80
2, 24716, Note_on_c, 0, 50, 0
2, 24716, Note_on_c, 0, 38, 0
2, 24722, Note_on_c, 0, 36, 80
2, 24722, Note_on_c, 0, 48, 80
2, 24768, Note_on_c, 0, 86, 0
2, 24768, Note_on_c, 0, 83, 0
2, 24770, Note_on_c, 0, 95, 0
2, 24775, Note_on_c, 0, 90, 80
2, 24816, Note_on_c, 0, 36, 0
2, 24821, Note_on_c, 0, 90, 0
2, 24821, Note_on_c, 0, 48, 0
2, 24821, Note_on_c, 0, 35, 80
2, 24821, Note_on_c, 0, 47, 80
2, 24828, Note_on_c, 0, 81, 80
2, 24828, Note_on_c, 0, 84, 80
2, 24828, Note_on_c, 0, 93, 80
2, 24920, Note_on_c, 0, 47, 0
2, 24920, Note_on_c, 0, 35, 0
2, 24922, Note_on_c, 0, 81, 0
2, 24927, Note_on_c, 0, 84, 0
2, 24927, Note_on_c, 0, 93, 0
2, 24927, Note_on_c, 0, 50, 80
2, 24927, Note_on_c, 0, 55, 80
2, 24932, Note_on_c, 0, 59, 80
2, 24932, Note_on_c, 0, 80, 80
2, 24936, Note_on_c, 0, 92, 80
2, 24973, Note_on_c, 0, 59, 0
2, 24975, Note_on_c, 0, 80, 0
2, 24975, Note_on_c, 0, 50, 0
2, 24975, Note_on_c, 0, 55, 0
2, 24975, Note_on_c, 0, 92, 0
2, 24982, Note_on_c, 0, 83, 80
2, 24982, Note_on_c, 0, 91, 80
2, 24986, Note_on_c, 0, 79, 80
2, 25026, Note_on_c, 0, 79, 0
2, 25031, Note_on_c, 0, 83, 0
2, 25031, Note_on_c, 0, 43, 80
2, 25031, Note_on_c, 0, 55, 80
2, 25086, Note_on_c, 0, 91, 0
2, 25086, Note_on_c, 0, 74, 80
2, 25086, Note_on_c, 0, 83, 80
2, 25091, Note_on_c, 0, 79, 80
2, 25091, Note_on_c, 0, 86, 80
2, 25130, Note_on_c, 0, 55, 0
2, 25130, Note_on_c, 0, 43, 0
2, 25135, Note_on_c, 0, 79, 0
2, 25135, Note_on_c, 0, 83, 0
2, 25140, Note_on_c, 0, 41, 80
2, 25142, Note_on_c, 0, 53, 80
2, 25186, Note_on_c, 0, 86, 0
2, 25186, Note_on_c, 0, 74, 0
2, 25193, Note_on_c, 0, 73, 80
2, 25198, Note_on_c, 0, 79, 80
2, 25198, Note_on_c, 0, 85, 80
2, 25242, Note_on_c, 0, 41, 0
2, 25242, Note_on_c, 0, 53, 0
2, 25244, Note_on_c, 0, 52, 80
2, 25246, Note_on_c, 0, 40, 80
2, 25292, Note_on_c, 0, 73, 0
2, 25294, Note_on_c, 0, 79, 0
2, 25298, Note_on_c, 0, 85, 0
2, 25298, Note_on_c, 0, 91, 80
2, 25343, Note_on_c, 0, 52, 0
2, 25344, Note_on_c, 0, 40, 0
2, 25346, Note_on_c, 0, 91, 0
2, 25346, Note_on_c, 0, 43, 80
2, 25348, Note_on_c, 0, 55, 80
2, 25350, Note_on_c, 0, 79, 80
2, 25350, Note_on_c, 0, 85, 80
2, 25396, Note_on_c, 0, 79, 0
2, 25401, Note_on_c, 0, 85, 0
2, 25401, Note_on_c, 0, 90, 80
2, 25452, Note_on_c, 0, 90, 0
2, 25452, Note_on_c, 0, 55, 0
2, 25452, Note_on_c, 0, 43, 0
2, 25452, Note_on_c, 0, 58, 80
2, 25454, Note_on_c, 0, 46, 80
2, 25456, Note_on_c, 0, 82, 80
2, 25458, Note_on_c, 0, 78, 80
2, 25458, Note_on_c, 0, 85, 80
2, 25502, Note_on_c, 0, 78, 0
2, 25502, Note_on_c, 0, 82, 0
2, 25507, Note_on_c, 0, 85, 0
2, 25512, Note_on_c, 0, 88, 80
2, 25551, Note_on_c, 0, 58, 0
2, 25558, Note_on_c, 0, 88, 0
2, 25558, Note_on_c, 0, 46, 0
2, 25562, Note_on_c, 0, 61, 80
2, 25562, Note_on_c, 0, 76, 80
2, 25564, Note_on_c, 0, 85, 80
2, 25566, Note_on_c, 0, 82, 80
2, 25573, Note_on_c, 0, 49, 80
2, 25606, Note_on_c, 0, 82, 0
2, 25610, Note_on_c, 0, 85, 0
2, 25610, Note_on_c, 0, 76, 0
2, 25615, Note_on_c, 0, 86, 80
2, 25659, Note_on_c, 0, 49, 0
2, 25661, Note_on_c, 0, 61, 0
2, 25663, Note_on_c, 0, 74, 80
2, 25663, Note_on_c, 0, 83, 80
2, 25665, Note_on_c, 0, 50, 80
2, 25665, Note_on_c, 0, 62, 80
2, 25686, Note_on_c, 0, 83, 0
2, 25686, Note_on_c, 0, 74, 0
2, 25711, Note_on_c, 0, 86, 0
2, 25711, Note_on_c, 0, 71, 80
2, 25711, Note_on_c, 0, 83, 80
2, 25716, Note_on_c, 0, 74, 80
2, 25716, Note_on_c, 0, 79, 80
2, 25760, Note_on_c, 0, 62, 0
2, 25760, Note_on_c, 0, 43, 80
2, 25762, Note_on_c, 0, 74, 0
2, 25762, Note_on_c, 0, 50, 0
2, 25764, Note_on_c, 0, 31, 80
2, 25764, Note_on_c, 0, 55, 80
2, 25808, Note_on_c, 0, 71, 0
2, 25810, Note_on_c, 0, 79, 0
2, 25812, Note_on_c, 0, 83, 0
2, 25814, Note_on_c, 0, 69, 80
2, 25814, Note_on_c, 0, 74, 80
2, 25814, Note_on_c, 0, 78, 80
2, 25819, Note_on_c, 0, 81, 80
2, 25858, Note_on_c, 0, 43, 0
2, 25858, Note_on_c, 0, 31, 0
2, 25858, Note_on_c, 0, 55, 0
2, 25863, Note_on_c, 0, 33, 80
2, 25863, Note_on_c, 0, 45, 80
2, 25909, Note_on_c, 0, 78, 0
2, 25911, Note_on_c, 0, 74, 0
2, 25962, Note_on_c, 0, 33, 0
2, 25962, Note_on_c, 0, 69, 0
2, 25962, Note_on_c, 0, 45, 0
2, 25962, Note_on_c, 0, 81, 0
2, 25967, Note_on_c, 0, 35, 80
2, 25967, Note_on_c, 0, 74, 80
2, 25968, Note_on_c, 0, 47, 80
2, 25968, Note_on_c, 0, 67, 80
2, 25968, Note_on_c, 0, 79, 80
2, 26064, Note_on_c, 0, 79, 0
2, 26064, Note_on_c, 0, 47, 0
2, 26064, Note_on_c, 0, 35, 0
2, 26064, Note_on_c, 0, 74, 0
2, 26064, Note_on_c, 0, 67, 0
2, 26070, Note_on_c, 0, 36, 80
2, 26070, Note_on_c, 0, 48, 80
2, 26075, Note_on_c, 0, 76, 80
2, 26110, Note_on_c, 0, 48, 0
2, 26114, Note_on_c, 0, 64, 80
2, 26114, Note_on_c, 0, 72, 80
2, 26121, Note_on_c, 0, 76, 0
2, 26128, Note_on_c, 0, 69, 80
2, 26172, Note_on_c, 0, 36, 0
2, 26177, Note_on_c, 0, 48, 80
2, 26179, Note_on_c, 0, 60, 80
2, 26223, Note_on_c, 0, 69, 0
2, 26225, Note_on_c, 0, 72, 0
2, 26225, Note_on_c, 0, 64, 0
2, 26232, Note_on_c, 0, 62, 80
2, 26232, Note_on_c, 0, 67, 80
2, 26232, Note_on_c, 0, 71, 80
2, 26278, Note_on_c, 0, 60, 0
2, 26280, Note_on_c, 0, 48, 0
2, 26281, Note_on_c, 0, 50, 80
2, 26283, Note_on_c, 0, 38, 80
2, 26329, Note_on_c, 0, 50, 0
2, 26329, Note_on_c, 0, 67, 0
2, 26329, Note_on_c, 0, 71, 0
2, 26329, Note_on_c, 0, 62, 0
2, 26334, Note_on_c, 0, 74, 80
2, 26380, Note_on_c, 0, 74, 0
2, 26380, Note_on_c, 0, 38, 0
2, 26385, Note_on_c, 0, 50, 80
2, 26385, Note_on_c, 0, 66, 80
2, 26385, Note_on_c, 0, 69, 80
2, 26390, Note_on_c, 0, 60, 80
2, 26485, Note_on_c, 0, 60, 0
2, 26485, Note_on_c, 0, 69, 0
2, 26485, Note_on_c, 0, 66, 0
2, 26492, Note_on_c, 0, 43, 80
2, 26492, Note_on_c, 0, 59, 80
2, 26492, Note_on_c, 0, 62, 80
2, 26496, Note_on_c, 0, 67, 80
2, 26533, Note_on_c, 0, 59, 0
2, 26540, Note_on_c, 0, 62, 0
2, 26540, Note_on_c, 0, 50, 0
2, 26540, Note_on_c, 0, 43, 0
2, 26592, Note_on_c, 0, 67, 0
2, 26594, Note_on_c, 0, 50, 80
2, 26594, Note_on_c, 0, 62, 80
2, 26599, Note_on_c, 0, 38, 80
2, 26694, Note_on_c, 0, 38, 0
2, 26694, Note_on_c, 0, 50, 0
2, 26699, Note_on_c, 0, 62, 0
2, 26701, Note_on_c, 0, 43, 80
2, 26703, Note_on_c, 0, 55, 80
2, 26756, Note_on_c, 0, 76, 80
2, 26802, Note_on_c, 0, 55, 0
2, 26802, Note_on_c, 0, 43, 0
2, 26811, Note_on_c, 0, 77, 80
2, 26830, Note_on_c, 0, 76, 0
2, 26862, Note_on_c, 0, 78, 80
2, 26885, Note_on_c, 0, 77, 0
2, 26910, Note_on_c, 0, 78, 0
2, 26915, Note_on_c, 0, 48, 80
2, 26917, Note_on_c, 0, 60, 80
2, 26919, Note_on_c, 0, 79, 80
2, 26965, Note_on_c, 0, 60, 0
2, 26972, Note_on_c, 0, 76, 80
2, 26990, Note_on_c, 0, 79, 0
2, 27015, Note_on_c, 0, 76, 0
2, 27015, Note_on_c, 0, 48, 0
2, 27020, Note_on_c, 0, 60, 80
2, 27020, Note_on_c, 0, 64, 80
2, 27022, Note_on_c, 0, 55, 80
2, 27022, Note_on_c, 0, 72, 80
2, 27022, Note_on_c, 0, 84, 80
2, 27074, Note_on_c, 0, 76, 80
2, 27091, Note_on_c, 0, 72, 0
2, 27093, Note_on_c, 0, 84, 0
2, 27116, Note_on_c, 0, 55, 0
2, 27116, Note_on_c, 0, 60, 0
2, 27116, Note_on_c, 0, 64, 0
2, 27120, Note_on_c, 0, 76, 0
2, 27122, Note_on_c, 0, 50, 80
2, 27122, Note_on_c, 0, 62, 80
2, 27122, Note_on_c, 0, 71, 80
2, 27122, Note_on_c, 0, 83, 80
2, 27175, Note_on_c, 0, 76, 80
2, 27189, Note_on_c, 0, 71, 0
2, 27193, Note_on_c, 0, 83, 0
2, 27218, Note_on_c, 0, 50, 0
2, 27218, Note_on_c, 0, 62, 0
2, 27223, Note_on_c, 0, 51, 80
2, 27223, Note_on_c, 0, 63, 80
2, 27223, Note_on_c, 0, 69, 80
2, 27223, Note_on_c, 0, 81, 80
2, 27248, Note_on_c, 0, 76, 0
2, 27276, Note_on_c, 0, 72, 80
2, 27292, Note_on_c, 0, 69, 0
2, 27294, Note_on_c, 0, 81, 0
2, 27319, Note_on_c, 0, 51, 0
2, 27319, Note_on_c, 0, 63, 0
2, 27319, Note_on_c, 0, 72, 0
2, 27321, Note_on_c, 0, 52, 80
2, 27326, Note_on_c, 0, 64, 80
2, 27328, Note_on_c, 0, 76, 80
2, 27330, Note_on_c, 0, 67, 80
2, 27330, Note_on_c, 0, 79, 80
2, 27371, Note_on_c, 0, 64, 0
2, 27415, Note_on_c, 0, 52, 0
2, 27420, Note_on_c, 0, 79, 0
2, 27420, Note_on_c, 0, 76, 0
2, 27425, Note_on_c, 0, 67, 0
2, 27425, Note_on_c, 0, 55, 80
2, 27425, Note_on_c, 0, 66, 80
2, 27425, Note_on_c, 0, 78, 80
2, 27427, Note_on_c, 0, 60, 80
2, 27427, Note_on_c, 0, 64, 80
2, 27468, Note_on_c, 0, 78, 0
2, 27468, Note_on_c, 0, 66, 0
2, 27480, Note_on_c, 0, 67, 80
2, 27480, Note_on_c, 0, 73, 80
2, 27480, Note_on_c, 0, 79, 80
2, 27521, Note_on_c, 0, 73, 0
2, 27521, Note_on_c, 0, 64, 0
2, 27521, Note_on_c, 0, 55, 0
2, 27523, Note_on_c, 0, 60, 0
2, 27528, Note_on_c, 0, 57, 80
2, 27529, Note_on_c, 0, 45, 80
2, 27571, Note_on_c, 0, 57, 0
2, 27576, Note_on_c, 0, 67, 0
2, 27576, Note_on_c, 0, 79, 0
2, 27576, Note_on_c, 0, 69, 80
2, 27582, Note_on_c, 0, 81, 80
2, 27596, Note_on_c, 0, 73, 80
2, 27628, Note_on_c, 0, 45, 0
2, 27628, Note_on_c, 0, 57, 80
2, 27630, Note_on_c, 0, 55, 80
2, 27632, Note_on_c, 0, 61, 80
2, 27678, Note_on_c, 0, 69, 0
2, 27678, Note_on_c, 0, 73, 0
2, 27678, Note_on_c, 0, 81, 0
2, 27683, Note_on_c, 0, 76, 80
2, 27731, Note_on_c, 0, 57, 0
2, 27731, Note_on_c, 0, 61, 0
2, 27731, Note_on_c, 0, 55, 0
2, 27733, Note_on_c, 0, 76, 0
2, 27733, Note_on_c, 0, 50, 80
2, 27733, Note_on_c, 0, 62, 80
2, 27735, Note_on_c, 0, 77, 80
2, 27737, Note_on_c, 0, 74, 80
2, 27781, Note_on_c, 0, 74, 0
2, 27781, Note_on_c, 0, 62, 0
2, 27786, Note_on_c, 0, 77, 0
2, 27839, Note_on_c, 0, 50, 0
2, 27840, Note_on_c, 0, 62, 80
2, 27840, Note_on_c, 0, 65, 80
2, 27840, Note_on_c, 0, 72, 80
2, 27842, Note_on_c, 0, 56, 80
2, 27844, Note_on_c, 0, 74, 80
2, 27844, Note_on_c, 0, 77, 80
2, 27863, Note_on_c, 0, 74, 0
2, 27867, Note_on_c, 0, 77, 0
2, 27888, Note_on_c, 0, 72, 0
2, 27895, Note_on_c, 0, 71, 80
2, 27895, Note_on_c, 0, 74, 80
2, 27895, Note_on_c, 0, 77, 80
2, 27943, Note_on_c, 0, 62, 0
2, 27943, Note_on_c, 0, 56, 0
2, 27943, Note_on_c, 0, 65, 0
2, 27945, Note_on_c, 0, 43, 80
2, 27945, Note_on_c, 0, 55, 80
2, 27993, Note_on_c, 0, 71, 0
2, 27993, Note_on_c, 0, 74, 0
2, 27998, Note_on_c, 0, 77, 0
2, 28000, Note_on_c, 0, 76, 80
2, 28000, Note_on_c, 0, 88, 80
2, 28002, Note_on_c, 0, 79, 80
2, 28046, Note_on_c, 0, 55, 0
2, 28046, Note_on_c, 0, 43, 0
2, 28053, Note_on_c, 0, 41, 80
2, 28055, Note_on_c, 0, 53, 80
2, 28099, Note_on_c, 0, 88, 0
2, 28104, Note_on_c, 0, 79, 0
2, 28104, Note_on_c, 0, 76, 0
2, 28104, Note_on_c, 0, 74, 80
2, 28105, Note_on_c, 0, 77, 80
2, 28107, Note_on_c, 0, 86, 80
2, 28152, Note_on_c, 0, 77, 0
2, 28152, Note_on_c, 0, 74, 0
2, 28152, Note_on_c, 0, 53, 0
2, 28152, Note_on_c, 0, 41, 0
2, 28153, Note_on_c, 0, 86, 0
2, 28153, Note_on_c, 0, 52, 80
2, 28155, Note_on_c, 0, 40, 80
2, 28155, Note_on_c, 0, 72, 80
2, 28160, Note_on_c, 0, 76, 80
2, 28160, Note_on_c, 0, 84, 80
2, 28250, Note_on_c, 0, 52, 0
2, 28255, Note_on_c, 0, 76, 0
2, 28255, Note_on_c, 0, 40, 0
2, 28255, Note_on_c, 0, 72, 0
2, 28257, Note_on_c, 0, 84, 0
2, 28262, Note_on_c, 0, 55, 80
2, 28262, Note_on_c, 0, 60, 80
2, 28262, Note_on_c, 0, 64, 80
2, 28262, Note_on_c, 0, 71, 80
2, 28262, Note_on_c, 0, 83, 80
2, 28303, Note_on_c, 0, 71, 0
2, 28303, Note_on_c, 0, 60, 0
2, 28303, Note_on_c, 0, 55, 0
2, 28308, Note_on_c, 0, 64, 0
2, 28310, Note_on_c, 0, 83, 0
2, 28310, Note_on_c, 0, 72, 80
2, 28310, Note_on_c, 0, 76, 80
2, 28312, Note_on_c, 0, 84, 80
2, 28356, Note_on_c, 0, 76, 0
2, 28358, Note_on_c, 0, 43, 80
2, 28363, Note_on_c, 0, 55, 80
2, 28391, Note_on_c, 0, 55, 0
2, 28392, Note_on_c, 0, 72, 0
2, 28409, Note_on_c, 0, 76, 80
2, 28411, Note_on_c, 0, 84, 0
2, 28457, Note_on_c, 0, 43, 0
2, 28464, Note_on_c, 0, 55, 80
2, 28464, Note_on_c, 0, 60, 80
2, 28464, Note_on_c, 0, 64, 80
2, 28464, Note_on_c, 0, 77, 80
2, 28482, Note_on_c, 0, 76, 0
2, 28505, Note_on_c, 0, 55, 0
2, 28505, Note_on_c, 0, 60, 0
2, 28510, Note_on_c, 0, 64, 0
2, 28512, Note_on_c, 0, 78, 80
2, 28535, Note_on_c, 0, 77, 0
2, 28560, Note_on_c, 0, 78, 0
2, 28564, Note_on_c, 0, 48, 80
2, 28564, Note_on_c, 0, 60, 80
2, 28564, Note_on_c, 0, 79, 80
2, 28608, Note_on_c, 0, 60, 0
2, 28615, Note_on_c, 0, 76, 80
2, 28638, Note_on_c, 0, 79, 0
2, 28661, Note_on_c, 0, 76, 0
2, 28661, Note_on_c, 0, 48, 0
2, 28666, Note_on_c, 0, 55, 80
2, 28666, Note_on_c, 0, 60, 80
2, 28666, Note_on_c, 0, 72, 80
2, 28668, Note_on_c, 0, 64, 80
2, 28668, Note_on_c, 0, 84, 80
2, 28719, Note_on_c, 0, 76, 80
2, 28737, Note_on_c, 0, 72, 0
2, 28739, Note_on_c, 0, 84, 0
2, 28762, Note_on_c, 0, 64, 0
2, 28762, Note_on_c, 0, 60, 0
2, 28764, Note_on_c, 0, 55, 0
2, 28764, Note_on_c, 0, 76, 0
2, 28766, Note_on_c, 0, 50, 80
2, 28766, Note_on_c, 0, 62, 80
2, 28766, Note_on_c, 0, 71, 80
2, 28766, Note_on_c, 0, 83, 80
2, 28822, Note_on_c, 0, 76, 80
2, 28840, Note_on_c, 0, 83, 0
2, 28840, Note_on_c, 0, 71, 0
2, 28865, Note_on_c, 0, 50, 0
2, 28870, Note_on_c, 0, 62, 0
2, 28870, Note_on_c, 0, 76, 0
2, 28870, Note_on_c, 0, 63, 80
2, 28870, Note_on_c, 0, 69, 80
2, 28870, Note_on_c, 0, 81, 80
2, 28874, Note_on_c, 0, 51, 80
2, 28927, Note_on_c, 0, 78, 80
2, 28945, Note_on_c, 0, 69, 0
2, 28947, Note_on_c, 0, 81, 0
2, 28972, Note_on_c, 0, 63, 0
2, 28972, Note_on_c, 0, 51, 0
2, 28972, Note_on_c, 0, 78, 0
2, 28974, Note_on_c, 0, 52, 80
2, 28976, Note_on_c, 0, 71, 80
2, 28976, Note_on_c, 0, 76, 80
2, 28976, Note_on_c, 0, 79, 80
2, 28976, Note_on_c, 0, 83, 80
2, 28978, Note_on_c, 0, 64, 80
2, 29026, Note_on_c, 0, 64, 0
2, 29074, Note_on_c, 0, 52, 0
2, 29074, Note_on_c, 0, 71, 0
2, 29076, Note_on_c, 0, 79, 0
2, 29076, Note_on_c, 0, 83, 0
2, 29078, Note_on_c, 0, 76, 0
2, 29080, Note_on_c, 0, 55, 80
2, 29080, Note_on_c, 0, 59, 80
2, 29080, Note_on_c, 0, 64, 80
2, 29080, Note_on_c, 0, 70, 80
2, 29080, Note_on_c, 0, 82, 80
2, 29124, Note_on_c, 0, 70, 0
2, 29124, Note_on_c, 0, 55, 0
2, 29126, Note_on_c, 0, 82, 0
2, 29131, Note_on_c, 0, 76, 80
2, 29131, Note_on_c, 0, 79, 80
2, 29131, Note_on_c, 0, 83, 80
2, 29133, Note_on_c, 0, 71, 80
2, 29177, Note_on_c, 0, 79, 0
2, 29177, Note_on_c, 0, 59, 0
2, 29182, Note_on_c, 0, 83, 0
2, 29182, Note_on_c, 0, 64, 0
2, 29182, Note_on_c, 0, 76, 0
2, 29184, Note_on_c, 0, 43, 80
2, 29184, Note_on_c, 0, 55, 80
2, 29232, Note_on_c, 0, 71, 0
2, 29232, Note_on_c, 0, 91, 80
2, 29238, Note_on_c, 0, 79, 80
2, 29238, Note_on_c, 0, 83, 80
2, 29284, Note_on_c, 0, 43, 0
2, 29284, Note_on_c, 0, 52, 80
2, 29286, Note_on_c, 0, 55, 0
2, 29286, Note_on_c, 0, 40, 80
2, 29339, Note_on_c, 0, 83, 0
2, 29339, Note_on_c, 0, 79, 0
2, 29339, Note_on_c, 0, 91, 0
2, 29341, Note_on_c, 0, 88, 80
2, 29389, Note_on_c, 0, 88, 0
2, 29389, Note_on_c, 0, 52, 0
2, 29391, Note_on_c, 0, 40, 0
2, 29396, Note_on_c, 0, 42, 80
2, 29396, Note_on_c, 0, 54, 80
2, 29396, Note_on_c, 0, 78, 80
2, 29396, Note_on_c, 0, 83, 80
2, 29396, Note_on_c, 0, 87, 80
2, 29396, Note_on_c, 0, 90, 80
2, 29437, Note_on_c, 0, 54, 0
2, 29488, Note_on_c, 0, 78, 0
2, 29493, Note_on_c, 0, 83, 0
2, 29493, Note_on_c, 0, 42, 0
2, 29493, Note_on_c, 0, 90, 0
2, 29493, Note_on_c, 0, 87, 0
2, 29493, Note_on_c, 0, 57, 80
2, 29493, Note_on_c, 0, 63, 80
2, 29493, Note_on_c, 0, 89, 80
2, 29497, Note_on_c, 0, 54, 80
2, 29497, Note_on_c, 0, 59, 80
2, 29497, Note_on_c, 0, 77, 80
2, 29542, Note_on_c, 0, 77, 0
2, 29546, Note_on_c, 0, 89, 0
2, 29548, Note_on_c, 0, 78, 80
2, 29548, Note_on_c, 0, 83, 80
2, 29548, Note_on_c, 0, 87, 80
2, 29548, Note_on_c, 0, 90, 80
2, 29592, Note_on_c, 0, 54, 0
2, 29592, Note_on_c, 0, 59, 0
2, 29592, Note_on_c, 0, 57, 0
2, 29592, Note_on_c, 0, 63, 0
2, 29599, Note_on_c, 0, 87, 0
2, 29599, Note_on_c, 0, 83, 0
2, 29599, Note_on_c, 0, 47, 80
2, 29601, Note_on_c, 0, 35, 80
2, 29647, Note_on_c, 0, 90, 0
2, 29647, Note_on_c, 0, 78, 0
2, 29654, Note_on_c, 0, 83, 80
2, 29654, Note_on_c, 0, 87, 80
2, 29654, Note_on_c, 0, 95, 80
2, 29698, Note_on_c, 0, 47, 0
2, 29698, Note_on_c, 0, 35, 0
2, 29703, Note_on_c, 0, 54, 80
2, 29703, Note_on_c, 0, 59, 80
2, 29705, Note_on_c, 0, 57, 80
2, 29705, Note_on_c, 0, 63, 80
2, 29751, Note_on_c, 0, 87, 0
2, 29751, Note_on_c, 0, 95, 0
2, 29751, Note_on_c, 0, 83, 0
2, 29751, Note_on_c, 0, 90, 80
2, 29799, Note_on_c, 0, 59, 0
2, 29799, Note_on_c, 0, 63, 0
2, 29799, Note_on_c, 0, 54, 0
2, 29799, Note_on_c, 0, 57, 0
2, 29804, Note_on_c, 0, 90, 0
2, 29804, Note_on_c, 0, 95, 80
2, 29806, Note_on_c, 0, 40, 80
2, 29806, Note_on_c, 0, 52, 80
2, 29806, Note_on_c, 0, 83, 80
2, 29806, Note_on_c, 0, 88, 80
2, 29806, Note_on_c, 0, 91, 80
2, 29903, Note_on_c, 0, 52, 0
2, 29907, Note_on_c, 0, 40, 0
2, 29907, Note_on_c, 0, 64, 80
2, 29909, Note_on_c, 0, 55, 80
2, 29911, Note_on_c, 0, 59, 80
2, 30006, Note_on_c, 0, 59, 0
2, 30011, Note_on_c, 0, 64, 0
2, 30011, Note_on_c, 0, 55, 0
2, 30013, Note_on_c, 0, 38, 80
2, 30013, Note_on_c, 0, 50, 80
2, 30059, Note_on_c, 0, 88, 0
2, 30059, Note_on_c, 0, 83, 0
2, 30064, Note_on_c, 0, 95, 0
2, 30064, Note_on_c, 0, 91, 0
2, 30066, Note_on_c, 0, 76, 80
2, 30110, Note_on_c, 0, 38, 0
2, 30115, Note_on_c, 0, 50, 0
2, 30115, Note_on_c, 0, 65, 80
2, 30117, Note_on_c, 0, 55, 80
2, 30119, Note_on_c, 0, 59, 80
2, 30119, Note_on_c, 0, 77, 80
2, 30140, Note_on_c, 0, 76, 0
2, 30172, Note_on_c, 0, 78, 80
2, 30195, Note_on_c, 0, 77, 0
2, 30216, Note_on_c, 0, 78, 0
2, 30221, Note_on_c, 0, 65, 0
2, 30221, Note_on_c, 0, 55, 0
2, 30221, Note_on_c, 0, 59, 0
2, 30226, Note_on_c, 0, 48, 80
2, 30226, Note_on_c, 0, 60, 80
2, 30231, Note_on_c, 0, 79, 80
2, 30275, Note_on_c, 0, 60, 0
2, 30285, Note_on_c, 0, 76, 80
2, 30303, Note_on_c, 0, 79, 0
2, 30328, Note_on_c, 0, 76, 0
2, 30328, Note_on_c, 0, 48, 0
2, 30333, Note_on_c, 0, 64, 80
2, 30333, Note_on_c, 0, 72, 80
2, 30335, Note_on_c, 0, 55, 80
2, 30335, Note_on_c, 0, 60, 80
2, 30335, Note_on_c, 0, 84, 80
2, 30387, Note_on_c, 0, 76, 80
2, 30404, Note_on_c, 0, 72, 0
2, 30406, Note_on_c, 0, 84, 0
2, 30431, Note_on_c, 0, 60, 0
2, 30431, Note_on_c, 0, 64, 0
2, 30431, Note_on_c, 0, 55, 0
2, 30432, Note_on_c, 0, 76, 0
2, 30434, Note_on_c, 0, 50, 80
2, 30434, Note_on_c, 0, 62, 80
2, 30434, Note_on_c, 0, 71, 80
2, 30434, Note_on_c, 0, 83, 80
2, 30490, Note_on_c, 0, 69, 80
2, 30490, Note_on_c, 0, 76, 80
2, 30490, Note_on_c, 0, 81, 80
2, 30504, Note_on_c, 0, 71, 0
2, 30508, Note_on_c, 0, 83, 0
2, 30533, Note_on_c, 0, 62, 0
2, 30533, Note_on_c, 0, 50, 0
2, 30533, Note_on_c, 0, 76, 0
2, 30543, Note_on_c, 0, 51, 80
2, 30543, Note_on_c, 0, 63, 80
2, 30591, Note_on_c, 0, 81, 0
2, 30591, Note_on_c, 0, 69, 0
2, 30598, Note_on_c, 0, 72, 80
2, 30642, Note_on_c, 0, 72, 0
2, 30642, Note_on_c, 0, 51, 0
2, 30642, Note_on_c, 0, 63, 0
2, 30644, Note_on_c, 0, 52, 80
2, 30646, Note_on_c, 0, 64, 80
2, 30648, Note_on_c, 0, 76, 80
2, 30649, Note_on_c, 0, 67, 80
2, 30651, Note_on_c, 0, 79, 80
2, 30693, Note_on_c, 0, 64, 0
2, 30745, Note_on_c, 0, 52, 0
2, 30745, Note_on_c, 0, 76, 0
2, 30750, Note_on_c, 0, 67, 0
2, 30750, Note_on_c, 0, 79, 0
2, 30750, Note_on_c, 0, 55, 80
2, 30750, Note_on_c, 0, 60, 80
2, 30750, Note_on_c, 0, 64, 80
2, 30750, Note_on_c, 0, 66, 80
2, 30750, Note_on_c, 0, 78, 80
2, 30794, Note_on_c, 0, 78, 0
2, 30794, Note_on_c, 0, 66, 0
2, 30806, Note_on_c, 0, 67, 80
2, 30806, Note_on_c, 0, 73, 80
2, 30806, Note_on_c, 0, 79, 80
2, 30850, Note_on_c, 0, 73, 0
2, 30850, Note_on_c, 0, 55, 0
2, 30850, Note_on_c, 0, 64, 0
2, 30850, Note_on_c, 0, 60, 0
2, 30857, Note_on_c, 0, 45, 80
2, 30857, Note_on_c, 0, 57, 80
2, 30908, Note_on_c, 0, 57, 0
2, 30908, Note_on_c, 0, 79, 0
2, 30908, Note_on_c, 0, 67, 0
2, 30908, Note_on_c, 0, 69, 80
2, 30910, Note_on_c, 0, 73, 80
2, 30910, Note_on_c, 0, 81, 80
2, 30954, Note_on_c, 0, 45, 0
2, 30956, Note_on_c, 0, 55, 80
2, 30960, Note_on_c, 0, 57, 80
2, 30960, Note_on_c, 0, 61, 80
2, 31002, Note_on_c, 0, 69, 0
2, 31002, Note_on_c, 0, 81, 0
2, 31004, Note_on_c, 0, 73, 0
2, 31013, Note_on_c, 0, 76, 80
2, 31055, Note_on_c, 0, 76, 0
2, 31055, Note_on_c, 0, 61, 0
2, 31055, Note_on_c, 0, 57, 0
2, 31055, Note_on_c, 0, 55, 0
2, 31055, Note_on_c, 0, 50, 80
2, 31059, Note_on_c, 0, 62, 80
2, 31059, Note_on_c, 0, 74, 80
2, 31059, Note_on_c, 0, 77, 80
2, 31101, Note_on_c, 0, 74, 0
2, 31101, Note_on_c, 0, 62, 0
2, 31105, Note_on_c, 0, 77, 0
2, 31153, Note_on_c, 0, 50, 0
2, 31160, Note_on_c, 0, 65, 80
2, 31160, Note_on_c, 0, 72, 80
2, 31160, Note_on_c, 0, 74, 80
2, 31160, Note_on_c, 0, 77, 80
2, 31162, Note_on_c, 0, 56, 80
2, 31162, Note_on_c, 0, 62, 80
2, 31178, Note_on_c, 0, 74, 0
2, 31183, Note_on_c, 0, 77, 0
2, 31201, Note_on_c, 0, 72, 0
2, 31206, Note_on_c, 0, 74, 80
2, 31206, Note_on_c, 0, 77, 80
2, 31208, Note_on_c, 0, 71, 80
2, 31254, Note_on_c, 0, 65, 0
2, 31254, Note_on_c, 0, 62, 0
2, 31254, Note_on_c, 0, 56, 0
2, 31259, Note_on_c, 0, 43, 80
2, 31259, Note_on_c, 0, 55, 80
2, 31303, Note_on_c, 0, 74, 0
2, 31303, Note_on_c, 0, 71, 0
2, 31308, Note_on_c, 0, 77, 0
2, 31313, Note_on_c, 0, 76, 80
2, 31313, Note_on_c, 0, 88, 80
2, 31315, Note_on_c, 0, 79, 80
2, 31356, Note_on_c, 0, 43, 0
2, 31361, Note_on_c, 0, 55, 0
2, 31361, Note_on_c, 0, 53, 80
2, 31366, Note_on_c, 0, 41, 80
2, 31412, Note_on_c, 0, 88, 0
2, 31412, Note_on_c, 0, 79, 0
2, 31412, Note_on_c, 0, 76, 0
2, 31416, Note_on_c, 0, 74, 80
2, 31416, Note_on_c, 0, 77, 80
2, 31416, Note_on_c, 0, 86, 80
2, 31461, Note_on_c, 0, 86, 0
2, 31461, Note_on_c, 0, 41, 0
2, 31461, Note_on_c, 0, 53, 0
2, 31465, Note_on_c, 0, 74, 0
2, 31465, Note_on_c, 0, 77, 0
2, 31467, Note_on_c, 0, 40, 80
2, 31467, Note_on_c, 0, 52, 80
2, 31467, Note_on_c, 0, 73, 80
2, 31467, Note_on_c, 0, 76, 80
2, 31467, Note_on_c, 0, 85, 80
2, 31512, Note_on_c, 0, 52, 0
2, 31564, Note_on_c, 0, 73, 0
2, 31571, Note_on_c, 0, 40, 0
2, 31571, Note_on_c, 0, 76, 0
2, 31571, Note_on_c, 0, 85, 0
2, 31573, Note_on_c, 0, 52, 80
2, 31573, Note_on_c, 0, 55, 80
2, 31573, Note_on_c, 0, 58, 80
2, 31573, Note_on_c, 0, 61, 80
2, 31573, Note_on_c, 0, 72, 80
2, 31573, Note_on_c, 0, 84, 80
2, 31614, Note_on_c, 0, 72, 0
2, 31614, Note_on_c, 0, 58, 0
2, 31614, Note_on_c, 0, 52, 0
2, 31619, Note_on_c, 0, 55, 0
2, 31619, Note_on_c, 0, 61, 0
2, 31621, Note_on_c, 0, 84, 0
2, 31626, Note_on_c, 0, 73, 80
2, 31626, Note_on_c, 0, 76, 80
2, 31626, Note_on_c, 0, 85, 80
2, 31679, Note_on_c, 0, 43, 80
2, 31679, Note_on_c, 0, 55, 80
2, 31727, Note_on_c, 0, 55, 0
2, 31727, Note_on_c, 0, 73, 0
2, 31727, Note_on_c, 0, 85, 0
2, 31727, Note_on_c, 0, 76, 0
2, 31731, Note_on_c, 0, 79, 80
2, 31731, Note_on_c, 0, 91, 80
2, 31777, Note_on_c, 0, 43, 0
2, 31782, Note_on_c, 0, 55, 80
2, 31784, Note_on_c, 0, 58, 80
2, 31784, Note_on_c, 0, 61, 80
2, 31784, Note_on_c, 0, 64, 80
2, 31830, Note_on_c, 0, 79, 0
2, 31832, Note_on_c, 0, 91, 0
2, 31837, Note_on_c, 0, 88, 80
2, 31883, Note_on_c, 0, 88, 0
2, 31883, Note_on_c, 0, 58, 0
2, 31883, Note_on_c, 0, 64, 0
2, 31885, Note_on_c, 0, 61, 0
2, 31887, Note_on_c, 0, 55, 0
2, 31887, Note_on_c, 0, 53, 80
2, 31889, Note_on_c, 0, 79, 80
2, 31889, Note_on_c, 0, 91, 80
2, 31891, Note_on_c, 0, 41, 80
2, 31988, Note_on_c, 0, 79, 0
2, 31990, Note_on_c, 0, 53, 0
2, 31990, Note_on_c, 0, 91, 0
2, 31990, Note_on_c, 0, 41, 0
2, 31992, Note_on_c, 0, 57, 80
2, 31992, Note_on_c, 0, 77, 80
2, 31992, Note_on_c, 0, 89, 80
2, 31993, Note_on_c, 0, 45, 80
2, 32088, Note_on_c, 0, 57, 0
2, 32090, Note_on_c, 0, 77, 0
2, 32090, Note_on_c, 0, 45, 0
2, 32092, Note_on_c, 0, 89, 0
2, 32092, Note_on_c, 0, 43, 80
2, 32092, Note_on_c, 0, 55, 80
2, 32097, Note_on_c, 0, 88, 80
2, 32099, Note_on_c, 0, 76, 80
2, 32191, Note_on_c, 0, 88, 0
2, 32191, Note_on_c, 0, 43, 0
2, 32191, Note_on_c, 0, 55, 0
2, 32196, Note_on_c, 0, 76, 0
2, 32201, Note_on_c, 0, 41, 80
2, 32203, Note_on_c, 0, 53, 80
2, 32203, Note_on_c, 0, 74, 80
2, 32203, Note_on_c, 0, 86, 80
2, 32300, Note_on_c, 0, 53, 0
2, 32304, Note_on_c, 0, 41, 0
2, 32304, Note_on_c, 0, 74, 0
2, 32304, Note_on_c, 0, 86, 0
2, 32304, Note_on_c, 0, 52, 80
2, 32309, Note_on_c, 0, 40, 80
2, 32309, Note_on_c, 0, 72, 80
2, 32311, Note_on_c, 0, 84, 80
2, 32355, Note_on_c, 0, 84, 0
2, 32355, Note_on_c, 0, 72, 0
2, 32355, Note_on_c, 0, 52, 0
2, 32362, Note_on_c, 0, 76, 80
2, 32410, Note_on_c, 0, 76, 0
2, 32410, Note_on_c, 0, 40, 0
2, 32412, Note_on_c, 0, 52, 80
2, 32412, Note_on_c, 0, 55, 80
2, 32414, Note_on_c, 0, 60, 80
2, 32416, Note_on_c, 0, 79, 80
2, 32457, Note_on_c, 0, 79, 0
2, 32464, Note_on_c, 0, 71, 80
2, 32464, Note_on_c, 0, 75, 80
2, 32464, Note_on_c, 0, 83, 80
2, 32508, Note_on_c, 0, 52, 0
2, 32510, Note_on_c, 0, 55, 0
2, 32510, Note_on_c, 0, 60, 0
2, 32517, Note_on_c, 0, 39, 80
2, 32517, Note_on_c, 0, 51, 80
2, 32565, Note_on_c, 0, 75, 0
2, 32611, Note_on_c, 0, 71, 0
2, 32616, Note_on_c, 0, 39, 0
2, 32616, Note_on_c, 0, 83, 0
2, 32616, Note_on_c, 0, 51, 0
2, 32620, Note_on_c, 0, 69, 80
2, 32622, Note_on_c, 0, 54, 80
2, 32622, Note_on_c, 0, 57, 80
2, 32622, Note_on_c, 0, 60, 80
2, 32622, Note_on_c, 0, 63, 80
2, 32622, Note_on_c, 0, 75, 80
2, 32622, Note_on_c, 0, 81, 80
2, 32717, Note_on_c, 0, 54, 0
2, 32719, Note_on_c, 0, 75, 0
2, 32719, Note_on_c, 0, 57, 0
2, 32719, Note_on_c, 0, 60, 0
2, 32719, Note_on_c, 0, 69, 0
2, 32719, Note_on_c, 0, 81, 0
2, 32719, Note_on_c, 0, 63, 0
2, 32724, Note_on_c, 0, 38, 80
2, 32724, Note_on_c, 0, 50, 80
2, 32724, Note_on_c, 0, 71, 80
2, 32724, Note_on_c, 0, 79, 80
2, 32726, Note_on_c, 0, 67, 80
2, 32744, Note_on_c, 0, 71, 0
2, 32746, Note_on_c, 0, 67, 0
2, 32771, Note_on_c, 0, 79, 0
2, 32773, Note_on_c, 0, 71, 80
2, 32775, Note_on_c, 0, 77, 80
2, 32777, Note_on_c, 0, 67, 80
2, 32818, Note_on_c, 0, 38, 0
2, 32823, Note_on_c, 0, 50, 0
2, 32825, Note_on_c, 0, 53, 80
2, 32825, Note_on_c, 0, 55, 80
2, 32825, Note_on_c, 0, 59, 80
2, 32866, Note_on_c, 0, 59, 0
2, 32866, Note_on_c, 0, 71, 0
2, 32871, Note_on_c, 0, 53, 0
2, 32871, Note_on_c, 0, 67, 0
2, 32871, Note_on_c, 0, 55, 0
2, 32873, Note_on_c, 0, 65, 80
2, 32873, Note_on_c, 0, 69, 80
2, 32875, Note_on_c, 0, 77, 0
2, 32921, Note_on_c, 0, 69, 0
2, 32921, Note_on_c, 0, 65, 0
2, 32926, Note_on_c, 0, 43, 80
2, 32928, Note_on_c, 0, 55, 80
2, 32976, Note_on_c, 0, 55, 0
2, 32976, Note_on_c, 0, 65, 80
2, 32976, Note_on_c, 0, 69, 80
2, 33000, Note_on_c, 0, 65, 0
2, 33019, Note_on_c, 0, 69, 0
2, 33024, Note_on_c, 0, 43, 0
2, 33028, Note_on_c, 0, 65, 80
2, 33030, Note_on_c, 0, 59, 80
2, 33032, Note_on_c, 0, 53, 80
2, 33032, Note_on_c, 0, 55, 80
2, 33032, Note_on_c, 0, 71, 80
2, 33073, Note_on_c, 0, 71, 0
2, 33080, Note_on_c, 0, 65, 0
2, 33082, Note_on_c, 0, 64, 80
2, 33082, Note_on_c, 0, 72, 80
2, 33087, Note_on_c, 0, 67, 80
2, 33123, Note_on_c, 0, 59, 0
2, 33128, Note_on_c, 0, 72, 0
2, 33128, Note_on_c, 0, 55, 0
2, 33128, Note_on_c, 0, 53, 0
2, 33130, Note_on_c, 0, 48, 80
2, 33132, Note_on_c, 0, 60, 80
2, 33176, Note_on_c, 0, 67, 0
2, 33181, Note_on_c, 0, 64, 0
2, 33181, Note_on_c, 0, 72, 80
2, 33227, Note_on_c, 0, 72, 0
2, 33232, Note_on_c, 0, 60, 0
2, 33234, Note_on_c, 0, 48, 0
2, 33236, Note_on_c, 0, 43, 80
2, 33238, Note_on_c, 0, 55, 80
2, 33238, Note_on_c, 0, 76, 80
2, 33286, Note_on_c, 0, 76, 0
2, 33295, Note_on_c, 0, 79, 80
2, 33339, Note_on_c, 0, 79, 0
2, 33339, Note_on_c, 0, 55, 0
2, 33339, Note_on_c, 0, 43, 0
2, 33344, Note_on_c, 0, 48, 80
2, 33344, Note_on_c, 0, 72, 80
2, 33349, Note_on_c, 0, 36, 80
2, 33349, Note_on_c, 0, 84, 80
2, 33388, Note_on_c, 0, 72, 0
2, 33398, Note_on_c, 0, 84, 0
2, 33403, Note_on_c, 0, 76, 80
2, 33447, Note_on_c, 0, 36, 0
2, 33447, Note_on_c, 0, 48, 0
2, 33449, Note_on_c, 0, 77, 80
2, 33472, Note_on_c, 0, 76, 0
2, 33504, Note_on_c, 0, 78, 80
2, 33516, Note_on_c, 0, 60, 80
2, 33528, Note_on_c, 0, 77, 0
2, 33544, Note_on_c, 0, 48, 80
2, 33553, Note_on_c, 0, 78, 0
2, 33560, Note_on_c, 0, 79, 80
2, 33585, Note_on_c, 0, 76, 80
2, 33590, Note_on_c, 0, 60, 0
2, 33620, Note_on_c, 0, 79, 0
2, 33643, Note_on_c, 0, 48, 0
2, 33645, Note_on_c, 0, 76, 0
2, 33647, Note_on_c, 0, 60, 80
2, 33647, Note_on_c, 0, 72, 80
2, 33648, Note_on_c, 0, 55, 80
2, 33648, Note_on_c, 0, 64, 80
2, 33648, Note_on_c, 0, 84, 80
2, 33696, Note_on_c, 0, 76, 80
2, 33715, Note_on_c, 0, 72, 0
2, 33720, Note_on_c, 0, 84, 0
2, 33741, Note_on_c, 0, 64, 0
2, 33741, Note_on_c, 0, 60, 0
2, 33741, Note_on_c, 0, 55, 0
2, 33743, Note_on_c, 0, 76, 0
2, 33743, Note_on_c, 0, 50, 80
2, 33744, Note_on_c, 0, 83, 80
2, 33746, Note_on_c, 0, 62, 80
2, 33748, Note_on_c, 0, 71, 80
2, 33794, Note_on_c, 0, 76, 80
2, 33808, Note_on_c, 0, 71, 0
2, 33815, Note_on_c, 0, 83, 0
2, 33833, Note_on_c, 0, 50, 0
2, 33838, Note_on_c, 0, 62, 0
2, 33840, Note_on_c, 0, 63, 80
2, 33840, Note_on_c, 0, 69, 80
2, 33844, Note_on_c, 0, 51, 80
2, 33844, Note_on_c, 0, 81, 80
2, 33865, Note_on_c, 0, 76, 0
2, 33893, Note_on_c, 0, 72, 80
2, 33912, Note_on_c, 0, 81, 0
2, 33912, Note_on_c, 0, 69, 0
2, 33935, Note_on_c, 0, 51, 0
2, 33939, Note_on_c, 0, 72, 0
2, 33941, Note_on_c, 0, 63, 0
2, 33941, Note_on_c, 0, 52, 80
2, 33946, Note_on_c, 0, 67, 80
2, 33946, Note_on_c, 0, 76, 80
2, 33946, Note_on_c, 0, 79, 80
2, 33948, Note_on_c, 0, 64, 80
2, 33992, Note_on_c, 0, 64, 0
2, 34038, Note_on_c, 0, 52, 0
2, 34043, Note_on_c, 0, 67, 0
2, 34043, Note_on_c, 0, 76, 0
2, 34043, Note_on_c, 0, 79, 0
2, 34048, Note_on_c, 0, 55, 80
2, 34048, Note_on_c, 0, 60, 80
2, 34048, Note_on_c, 0, 66, 80
2, 34050, Note_on_c, 0, 64, 80
2, 34050, Note_on_c, 0, 78, 80
2, 34091, Note_on_c, 0, 78, 0
2, 34091, Note_on_c, 0, 66, 0
2, 34101, Note_on_c, 0, 67, 80
2, 34103, Note_on_c, 0, 73, 80
2, 34103, Note_on_c, 0, 79, 80
2, 34144, Note_on_c, 0, 73, 0
2, 34144, Note_on_c, 0, 55, 0
2, 34144, Note_on_c, 0, 64, 0
2, 34144, Note_on_c, 0, 60, 0
2, 34151, Note_on_c, 0, 45, 80
2, 34151, Note_on_c, 0, 57, 80
2, 34197, Note_on_c, 0, 79, 0
2, 34199, Note_on_c, 0, 67, 0
2, 34199, Note_on_c, 0, 57, 0
2, 34205, Note_on_c, 0, 69, 80
2, 34205, Note_on_c, 0, 73, 80
2, 34205, Note_on_c, 0, 81, 80
2, 34251, Note_on_c, 0, 45, 0
2, 34256, Note_on_c, 0, 55, 80
2, 34256, Note_on_c, 0, 57, 80
2, 34256, Note_on_c, 0, 61, 80
2, 34297, Note_on_c, 0, 73, 0
2, 34302, Note_on_c, 0, 69, 0
2, 34304, Note_on_c, 0, 81, 0
2, 34309, Note_on_c, 0, 76, 80
2, 34355, Note_on_c, 0, 76, 0
2, 34355, Note_on_c, 0, 61, 0
2, 34355, Note_on_c, 0, 55, 0
2, 34357, Note_on_c, 0, 57, 0
2, 34359, Note_on_c, 0, 74, 80
2, 34361, Note_on_c, 0, 50, 80
2, 34361, Note_on_c, 0, 62, 80
2, 34363, Note_on_c, 0, 77, 80
2, 34409, Note_on_c, 0, 77, 0
2, 34409, Note_on_c, 0, 62, 0
2, 34409, Note_on_c, 0, 74, 0
2, 34460, Note_on_c, 0, 50, 0
2, 34464, Note_on_c, 0, 72, 80
2, 34466, Note_on_c, 0, 56, 80
2, 34466, Note_on_c, 0, 62, 80
2, 34466, Note_on_c, 0, 65, 80
2, 34466, Note_on_c, 0, 74, 80
2, 34466, Note_on_c, 0, 77, 80
2, 34489, Note_on_c, 0, 77, 0
2, 34489, Note_on_c, 0, 74, 0
2, 34511, Note_on_c, 0, 72, 0
2, 34517, Note_on_c, 0, 74, 80
2, 34519, Note_on_c, 0, 71, 80
2, 34519, Note_on_c, 0, 77, 80
2, 34565, Note_on_c, 0, 56, 0
2, 34565, Note_on_c, 0, 65, 0
2, 34567, Note_on_c, 0, 62, 0
2, 34569, Note_on_c, 0, 43, 80
2, 34569, Note_on_c, 0, 55, 80
2, 34613, Note_on_c, 0, 71, 0
2, 34615, Note_on_c, 0, 74, 0
2, 34617, Note_on_c, 0, 77, 0
2, 34622, Note_on_c, 0, 76, 80
2, 34622, Note_on_c, 0, 88, 80
2, 34624, Note_on_c, 0, 79, 80
2, 34665, Note_on_c, 0, 43, 0
2, 34670, Note_on_c, 0, 55, 0
2, 34675, Note_on_c, 0, 41, 80
2, 34677, Note_on_c, 0, 53, 80
2, 34721, Note_on_c, 0, 88, 0
2, 34721, Note_on_c, 0, 79, 0
2, 34721, Note_on_c, 0, 76, 0
2, 34726, Note_on_c, 0, 74, 80
2, 34726, Note_on_c, 0, 77, 80
2, 34726, Note_on_c, 0, 86, 80
2, 34772, Note_on_c, 0, 74, 0
2, 34776, Note_on_c, 0, 77, 0
2, 34776, Note_on_c, 0, 53, 0
2, 34776, Note_on_c, 0, 41, 0
2, 34776, Note_on_c, 0, 86, 0
2, 34776, Note_on_c, 0, 52, 80
2, 34778, Note_on_c, 0, 40, 80
2, 34778, Note_on_c, 0, 72, 80
2, 34778, Note_on_c, 0, 76, 80
2, 34778, Note_on_c, 0, 84, 80
2, 34873, Note_on_c, 0, 72, 0
2, 34873, Note_on_c, 0, 52, 0
2, 34880, Note_on_c, 0, 40, 0
2, 34880, Note_on_c, 0, 76, 0
2, 34880, Note_on_c, 0, 84, 0
2, 34880, Note_on_c, 0, 55, 80
2, 34880, Note_on_c, 0, 60, 80
2, 34880, Note_on_c, 0, 64, 80
2, 34880, Note_on_c, 0, 83, 80
2, 34885, Note_on_c, 0, 71, 80
2, 34924, Note_on_c, 0, 71, 0
2, 34929, Note_on_c, 0, 64, 0
2, 34929, Note_on_c, 0, 60, 0
2, 34931, Note_on_c, 0, 55, 0
2, 34931, Note_on_c, 0, 83, 0
2, 34936, Note_on_c, 0, 72, 80
2, 34938, Note_on_c, 0, 76, 80
2, 34938, Note_on_c, 0, 84, 80
2, 34984, Note_on_c, 0, 76, 0
2, 34986, Note_on_c, 0, 43, 80
2, 34986, Note_on_c, 0, 55, 80
2, 35037, Note_on_c, 0, 55, 0
2, 35037, Note_on_c, 0, 72, 0
2, 35037, Note_on_c, 0, 84, 0
2, 35041, Note_on_c, 0, 76, 80
2, 35086, Note_on_c, 0, 43, 0
2, 35092, Note_on_c, 0, 55, 80
2, 35092, Note_on_c, 0, 60, 80
2, 35092, Note_on_c, 0, 64, 80
2, 35094, Note_on_c, 0, 77, 80
2, 35115, Note_on_c, 0, 76, 0
2, 35140, Note_on_c, 0, 55, 0
2, 35140, Note_on_c, 0, 60, 0
2, 35145, Note_on_c, 0, 64, 0
2, 35147, Note_on_c, 0, 78, 80
2, 35172, Note_on_c, 0, 77, 0
2, 35190, Note_on_c, 0, 78, 0
2, 35200, Note_on_c, 0, 60, 80
2, 35202, Note_on_c, 0, 48, 80
2, 35202, Note_on_c, 0, 79, 80
2, 35246, Note_on_c, 0, 60, 0
2, 35253, Note_on_c, 0, 76, 80
2, 35276, Note_on_c, 0, 79, 0
2, 35301, Note_on_c, 0, 76, 0
2, 35301, Note_on_c, 0, 48, 0
2, 35303, Note_on_c, 0, 55, 80
2, 35304, Note_on_c, 0, 72, 80
2, 35306, Note_on_c, 0, 60, 80
2, 35306, Note_on_c, 0, 64, 80
2, 35306, Note_on_c, 0, 84, 80
2, 35359, Note_on_c, 0, 76, 80
2, 35376, Note_on_c, 0, 72, 0
2, 35377, Note_on_c, 0, 84, 0
2, 35399, Note_on_c, 0, 60, 0
2, 35400, Note_on_c, 0, 55, 0
2, 35400, Note_on_c, 0, 64, 0
2, 35400, Note_on_c, 0, 76, 0
2, 35405, Note_on_c, 0, 50, 80
2, 35405, Note_on_c, 0, 71, 80
2, 35407, Note_on_c, 0, 62, 80
2, 35407, Note_on_c, 0, 83, 80
2, 35460, Note_on_c, 0, 76, 80
2, 35472, Note_on_c, 0, 71, 0
2, 35478, Note_on_c, 0, 83, 0
2, 35501, Note_on_c, 0, 50, 0
2, 35501, Note_on_c, 0, 62, 0
2, 35501, Note_on_c, 0, 76, 0
2, 35508, Note_on_c, 0, 51, 80
2, 35508, Note_on_c, 0, 63, 80
2, 35508, Note_on_c, 0, 69, 80
2, 35508, Note_on_c, 0, 81, 80
2, 35556, Note_on_c, 0, 78, 80
2, 35572, Note_on_c, 0, 69, 0
2, 35574, Note_on_c, 0, 81, 0
2, 35604, Note_on_c, 0, 51, 0
2, 35604, Note_on_c, 0, 63, 0
2, 35604, Note_on_c, 0, 78, 0
2, 35604, Note_on_c, 0, 52, 80
2, 35609, Note_on_c, 0, 64, 80
2, 35609, Note_on_c, 0, 71, 80
2, 35609, Note_on_c, 0, 76, 80
2, 35609, Note_on_c, 0, 79, 80
2, 35609, Note_on_c, 0, 83, 80
2, 35657, Note_on_c, 0, 64, 0
2, 35703, Note_on_c, 0, 52, 0
2, 35708, Note_on_c, 0, 79, 0
2, 35708, Note_on_c, 0, 76, 0
2, 35708, Note_on_c, 0, 83, 0
2, 35708, Note_on_c, 0, 71, 0
2, 35712, Note_on_c, 0, 55, 80
2, 35712, Note_on_c, 0, 59, 80
2, 35712, Note_on_c, 0, 64, 80
2, 35712, Note_on_c, 0, 70, 80
2, 35712, Note_on_c, 0, 82, 80
2, 35757, Note_on_c, 0, 70, 0
2, 35761, Note_on_c, 0, 55, 0
2, 35761, Note_on_c, 0, 82, 0
2, 35763, Note_on_c, 0, 71, 80
2, 35763, Note_on_c, 0, 83, 80
2, 35768, Note_on_c, 0, 76, 80
2, 35768, Note_on_c, 0, 79, 80
2, 35808, Note_on_c, 0, 59, 0
2, 35809, Note_on_c, 0, 64, 0
2, 35811, Note_on_c, 0, 76, 0
2, 35811, Note_on_c, 0, 83, 0
2, 35811, Note_on_c, 0, 79, 0
2, 35811, Note_on_c, 0, 43, 80
2, 35818, Note_on_c, 0, 55, 80
2, 35859, Note_on_c, 0, 71, 0
2, 35866, Note_on_c, 0, 83, 80
2, 35866, Note_on_c, 0, 91, 80
2, 35871, Note_on_c, 0, 79, 80
2, 35915, Note_on_c, 0, 55, 0
2, 35915, Note_on_c, 0, 43, 0
2, 35917, Note_on_c, 0, 52, 80
2, 35922, Note_on_c, 0, 40, 80
2, 35968, Note_on_c, 0, 79, 0
2, 35968, Note_on_c, 0, 83, 0
2, 35973, Note_on_c, 0, 91, 0
2, 35979, Note_on_c, 0, 88, 80
2, 36019, Note_on_c, 0, 52, 0
2, 36021, Note_on_c, 0, 88, 0
2, 36021, Note_on_c, 0, 40, 0
2, 36023, Note_on_c, 0, 90, 80
2, 36024, Note_on_c, 0, 42, 80
2, 36026, Note_on_c, 0, 54, 80
2, 36026, Note_on_c, 0, 78, 80
2, 36026, Note_on_c, 0, 83, 80
2, 36026, Note_on_c, 0, 87, 80
2, 36071, Note_on_c, 0, 54, 0
2, 36126, Note_on_c, 0, 42, 0
2, 36126, Note_on_c, 0, 78, 0
2, 36126, Note_on_c, 0, 90, 0
2, 36126, Note_on_c, 0, 87, 0
2, 36126, Note_on_c, 0, 83, 0
2, 36128, Note_on_c, 0, 57, 80
2, 36128, Note_on_c, 0, 63, 80
2, 36130, Note_on_c, 0, 54, 80
2, 36130, Note_on_c, 0, 59, 80
2, 36130, Note_on_c, 0, 77, 80
2, 36130, Note_on_c, 0, 89, 80
2, 36171, Note_on_c, 0, 77, 0
2, 36178, Note_on_c, 0, 89, 0
2, 36178, Note_on_c, 0, 78, 80
2, 36178, Note_on_c, 0, 83, 80
2, 36178, Note_on_c, 0, 87, 80
2, 36178, Note_on_c, 0, 90, 80
2, 36219, Note_on_c, 0, 59, 0
2, 36221, Note_on_c, 0, 63, 0
2, 36223, Note_on_c, 0, 83, 0
2, 36223, Note_on_c, 0, 54, 0
2, 36223, Note_on_c, 0, 57, 0
2, 36223, Note_on_c, 0, 87, 0
2, 36223, Note_on_c, 0, 47, 80
2, 36225, Note_on_c, 0, 35, 80
2, 36273, Note_on_c, 0, 90, 0
2, 36273, Note_on_c, 0, 78, 0
2, 36275, Note_on_c, 0, 83, 80
2, 36277, Note_on_c, 0, 87, 80
2, 36279, Note_on_c, 0, 95, 80
2, 36318, Note_on_c, 0, 47, 0
2, 36323, Note_on_c, 0, 35, 0
2, 36325, Note_on_c, 0, 57, 80
2, 36325, Note_on_c, 0, 59, 80
2, 36327, Note_on_c, 0, 54, 80
2, 36327, Note_on_c, 0, 63, 80
2, 36375, Note_on_c, 0, 87, 0
2, 36375, Note_on_c, 0, 95, 0
2, 36375, Note_on_c, 0, 83, 0
2, 36377, Note_on_c, 0, 90, 80
2, 36421, Note_on_c, 0, 59, 0
2, 36421, Note_on_c, 0, 57, 0
2, 36421, Note_on_c, 0, 54, 0
2, 36426, Note_on_c, 0, 63, 0
2, 36426, Note_on_c, 0, 90, 0
2, 36426, Note_on_c, 0, 52, 80
2, 36428, Note_on_c, 0, 83, 80
2, 36428, Note_on_c, 0, 91, 80
2, 36428, Note_on_c, 0, 95, 80
2, 36430, Note_on_c, 0, 40, 80
2, 36432, Note_on_c, 0, 88, 80
2, 36519, Note_on_c, 0, 52, 0
2, 36524, Note_on_c, 0, 40, 0
2, 36530, Note_on_c, 0, 59, 80
2, 36530, Note_on_c, 0, 64, 80
2, 36532, Note_on_c, 0, 55, 80
2, 36627, Note_on_c, 0, 55, 0
2, 36627, Note_on_c, 0, 59, 0
2, 36627, Note_on_c, 0, 64, 0
2, 36634, Note_on_c, 0, 50, 80
2, 36639, Note_on_c, 0, 38, 80
2, 36680, Note_on_c, 0, 95, 0
2, 36682, Note_on_c, 0, 91, 0
2, 36682, Note_on_c, 0, 83, 0
2, 36682, Note_on_c, 0, 88, 0
2, 36689, Note_on_c, 0, 76, 80
2, 36735, Note_on_c, 0, 38, 0
2, 36735, Note_on_c, 0, 50, 0
2, 36740, Note_on_c, 0, 55, 80
2, 36740, Note_on_c, 0, 59, 80
2, 36740, Note_on_c, 0, 65, 80
2, 36740, Note_on_c, 0, 77, 80
2, 36765, Note_on_c, 0, 76, 0
2, 36792, Note_on_c, 0, 78, 80
2, 36814, Note_on_c, 0, 77, 0
2, 36835, Note_on_c, 0, 59, 0
2, 36840, Note_on_c, 0, 55, 0
2, 36840, Note_on_c, 0, 65, 0
2, 36840, Note_on_c, 0, 78, 0
2, 36846, Note_on_c, 0, 48, 80
2, 36846, Note_on_c, 0, 60, 80
2, 36846, Note_on_c, 0, 79, 80
2, 36894, Note_on_c, 0, 60, 0
2, 36901, Note_on_c, 0, 76, 80
2, 36919, Note_on_c, 0, 79, 0
2, 36949, Note_on_c, 0, 76, 0
2, 36949, Note_on_c, 0, 48, 0
2, 36949, Note_on_c, 0, 55, 80
2, 36949, Note_on_c, 0, 60, 80
2, 36949, Note_on_c, 0, 64, 80
2, 36949, Note_on_c, 0, 72, 80
2, 36949, Note_on_c, 0, 84, 80
2, 37005, Note_on_c, 0, 76, 80
2, 37026, Note_on_c, 0, 72, 0
2, 37031, Note_on_c, 0, 84, 0
2, 37052, Note_on_c, 0, 60, 0
2, 37054, Note_on_c, 0, 55, 0
2, 37054, Note_on_c, 0, 76, 0
2, 37054, Note_on_c, 0, 64, 0
2, 37056, Note_on_c, 0, 50, 80
2, 37056, Note_on_c, 0, 62, 80
2, 37056, Note_on_c, 0, 71, 80
2, 37056, Note_on_c, 0, 83, 80
2, 37108, Note_on_c, 0, 69, 80
2, 37108, Note_on_c, 0, 76, 80
2, 37108, Note_on_c, 0, 81, 80
2, 37129, Note_on_c, 0, 83, 0
2, 37129, Note_on_c, 0, 71, 0
2, 37152, Note_on_c, 0, 62, 0
2, 37154, Note_on_c, 0, 50, 0
2, 37159, Note_on_c, 0, 76, 0
2, 37159, Note_on_c, 0, 63, 80
2, 37164, Note_on_c, 0, 51, 80
2, 37203, Note_on_c, 0, 69, 0
2, 37208, Note_on_c, 0, 81, 0
2, 37210, Note_on_c, 0, 72, 80
2, 37256, Note_on_c, 0, 72, 0
2, 37256, Note_on_c, 0, 63, 0
2, 37256, Note_on_c, 0, 51, 0
2, 37261, Note_on_c, 0, 52, 80
2, 37261, Note_on_c, 0, 64, 80
2, 37268, Note_on_c, 0, 67, 80
2, 37268, Note_on_c, 0, 76, 80
2, 37268, Note_on_c, 0, 79, 80
2, 37309, Note_on_c, 0, 64, 0
2, 37362, Note_on_c, 0, 76, 0
2, 37362, Note_on_c, 0, 52, 0
2, 37362, Note_on_c, 0, 79, 0
2, 37367, Note_on_c, 0, 67, 0
2, 37367, Note_on_c, 0, 60, 80
2, 37367, Note_on_c, 0, 64, 80
2, 37367, Note_on_c, 0, 66, 80
2, 37367, Note_on_c, 0, 78, 80
2, 37367, Note_on_c, 0, 55, 80
2, 37411, Note_on_c, 0, 78, 0
2, 37411, Note_on_c, 0, 66, 0
2, 37417, Note_on_c, 0, 67, 80
2, 37417, Note_on_c, 0, 73, 80
2, 37417, Note_on_c, 0, 79, 80
2, 37462, Note_on_c, 0, 73, 0
2, 37462, Note_on_c, 0, 60, 0
2, 37466, Note_on_c, 0, 55, 0
2, 37466, Note_on_c, 0, 64, 0
2, 37466, Note_on_c, 0, 57, 80
2, 37471, Note_on_c, 0, 45, 80
2, 37504, Note_on_c, 0, 57, 0
2, 37517, Note_on_c, 0, 79, 0
2, 37517, Note_on_c, 0, 67, 0
2, 37524, Note_on_c, 0, 69, 80
2, 37524, Note_on_c, 0, 73, 80
2, 37524, Note_on_c, 0, 81, 80
2, 37572, Note_on_c, 0, 45, 0
2, 37574, Note_on_c, 0, 55, 80
2, 37574, Note_on_c, 0, 57, 80
2, 37579, Note_on_c, 0, 61, 80
2, 37615, Note_on_c, 0, 69, 0
2, 37622, Note_on_c, 0, 81, 0
2, 37622, Note_on_c, 0, 73, 0
2, 37629, Note_on_c, 0, 76, 80
2, 37677, Note_on_c, 0, 76, 0
2, 37677, Note_on_c, 0, 61, 0
2, 37677, Note_on_c, 0, 57, 0
2, 37677, Note_on_c, 0, 55, 0
2, 37679, Note_on_c, 0, 50, 80
2, 37680, Note_on_c, 0, 62, 80
2, 37682, Note_on_c, 0, 74, 80
2, 37682, Note_on_c, 0, 77, 80
2, 37727, Note_on_c, 0, 74, 0
2, 37727, Note_on_c, 0, 62, 0
2, 37731, Note_on_c, 0, 77, 0
2, 37779, Note_on_c, 0, 50, 0
2, 37786, Note_on_c, 0, 62, 80
2, 37786, Note_on_c, 0, 65, 80
2, 37788, Note_on_c, 0, 77, 80
2, 37790, Note_on_c, 0, 56, 80
2, 37790, Note_on_c, 0, 72, 80
2, 37790, Note_on_c, 0, 74, 80
2, 37806, Note_on_c, 0, 74, 0
2, 37811, Note_on_c, 0, 77, 0
2, 37827, Note_on_c, 0, 72, 0
2, 37837, Note_on_c, 0, 74, 80
2, 37837, Note_on_c, 0, 77, 80
2, 37839, Note_on_c, 0, 71, 80
2, 37880, Note_on_c, 0, 56, 0
2, 37885, Note_on_c, 0, 62, 0
2, 37887, Note_on_c, 0, 65, 0
2, 37887, Note_on_c, 0, 43, 80
2, 37892, Note_on_c, 0, 55, 80
2, 37933, Note_on_c, 0, 74, 0
2, 37933, Note_on_c, 0, 71, 0
2, 37938, Note_on_c, 0, 77, 0
2, 37944, Note_on_c, 0, 76, 80
2, 37944, Note_on_c, 0, 79, 80
2, 37944, Note_on_c, 0, 88, 80
2, 37989, Note_on_c, 0, 55, 0
2, 37989, Note_on_c, 0, 43, 0
2, 37993, Note_on_c, 0, 41, 80
2, 37993, Note_on_c, 0, 53, 80
2, 38040, Note_on_c, 0, 79, 0
2, 38040, Note_on_c, 0, 88, 0
2, 38044, Note_on_c, 0, 76, 0
2, 38044, Note_on_c, 0, 74, 80
2, 38049, Note_on_c, 0, 77, 80
2, 38049, Note_on_c, 0, 86, 80
2, 38088, Note_on_c, 0, 53, 0
2, 38093, Note_on_c, 0, 77, 0
2, 38093, Note_on_c, 0, 41, 0
2, 38093, Note_on_c, 0, 74, 0
2, 38093, Note_on_c, 0, 86, 0
2, 38093, Note_on_c, 0, 52, 80
2, 38098, Note_on_c, 0, 40, 80
2, 38098, Note_on_c, 0, 73, 80
2, 38100, Note_on_c, 0, 76, 80
2, 38100, Note_on_c, 0, 85, 80
2, 38141, Note_on_c, 0, 52, 0
2, 38197, Note_on_c, 0, 76, 0
2, 38197, Note_on_c, 0, 40, 0
2, 38197, Note_on_c, 0, 73, 0
2, 38197, Note_on_c, 0, 85, 0
2, 38197, Note_on_c, 0, 52, 80
2, 38197, Note_on_c, 0, 58, 80
2, 38202, Note_on_c, 0, 55, 80
2, 38202, Note_on_c, 0, 61, 80
2, 38202, Note_on_c, 0, 72, 80
2, 38202, Note_on_c, 0, 84, 80
2, 38241, Note_on_c, 0, 52, 0
2, 38248, Note_on_c, 0, 72, 0
2, 38248, Note_on_c, 0, 58, 0
2, 38248, Note_on_c, 0, 55, 0
2, 38253, Note_on_c, 0, 61, 0
2, 38253, Note_on_c, 0, 84, 0
2, 38253, Note_on_c, 0, 85, 80
2, 38257, Note_on_c, 0, 73, 80
2, 38257, Note_on_c, 0, 76, 80
2, 38308, Note_on_c, 0, 43, 80
2, 38308, Note_on_c, 0, 55, 80
2, 38352, Note_on_c, 0, 73, 0
2, 38357, Note_on_c, 0, 85, 0
2, 38357, Note_on_c, 0, 55, 0
2, 38357, Note_on_c, 0, 76, 0
2, 38359, Note_on_c, 0, 91, 80
2, 38364, Note_on_c, 0, 79, 80
2, 38408, Note_on_c, 0, 43, 0
2, 38415, Note_on_c, 0, 55, 80
2, 38415, Note_on_c, 0, 58, 80
2, 38415, Note_on_c, 0, 61, 80
2, 38415, Note_on_c, 0, 64, 80
2, 38459, Note_on_c, 0, 79, 0
2, 38466, Note_on_c, 0, 91, 0
2, 38471, Note_on_c, 0, 88, 80
2, 38510, Note_on_c, 0, 58, 0
2, 38515, Note_on_c, 0, 61, 0
2, 38515, Note_on_c, 0, 55, 0
2, 38515, Note_on_c, 0, 64, 0
2, 38515, Note_on_c, 0, 88, 0
2, 38520, Note_on_c, 0, 53, 80
2, 38520, Note_on_c, 0, 79, 80
2, 38521, Note_on_c, 0, 91, 80
2, 38523, Note_on_c, 0, 41, 80
2, 38618, Note_on_c, 0, 41, 0
2, 38618, Note_on_c, 0, 53, 0
2, 38620, Note_on_c, 0, 79, 0
2, 38622, Note_on_c, 0, 45, 80
2, 38622, Note_on_c, 0, 57, 80
2, 38622, Note_on_c, 0, 77, 80
2, 38624, Note_on_c, 0, 91, 0
2, 38624, Note_on_c, 0, 89, 80
2, 38721, Note_on_c, 0, 45, 0
2, 38721, Note_on_c, 0, 57, 0
2, 38726, Note_on_c, 0, 77, 0
2, 38726, Note_on_c, 0, 43, 80
2, 38728, Note_on_c, 0, 89, 0
2, 38728, Note_on_c, 0, 55, 80
2, 38728, Note_on_c, 0, 76, 80
2, 38728, Note_on_c, 0, 88, 80
2, 38825, Note_on_c, 0, 88, 0
2, 38825, Note_on_c, 0, 76, 0
2, 38825, Note_on_c, 0, 43, 0
2, 38830, Note_on_c, 0, 55, 0
2, 38832, Note_on_c, 0, 53, 80
2, 38833, Note_on_c, 0, 86, 80
2, 38833, Note_on_c, 0, 74, 80
2, 38835, Note_on_c, 0, 41, 80
2, 38926, Note_on_c, 0, 41, 0
2, 38926, Note_on_c, 0, 53, 0
2, 38926, Note_on_c, 0, 86, 0
2, 38926, Note_on_c, 0, 74, 0
2, 38932, Note_on_c, 0, 40, 80
2, 38932, Note_on_c, 0, 52, 80
2, 38932, Note_on_c, 0, 72, 80
2, 38934, Note_on_c, 0, 84, 80
2, 38974, Note_on_c, 0, 72, 0
2, 38974, Note_on_c, 0, 52, 0
2, 38980, Note_on_c, 0, 84, 0
2, 38987, Note_on_c, 0, 76, 80
2, 39028, Note_on_c, 0, 76, 0
2, 39030, Note_on_c, 0, 40, 0
2, 39032, Note_on_c, 0, 52, 80
2, 39032, Note_on_c, 0, 55, 80
2, 39032, Note_on_c, 0, 60, 80
2, 39039, Note_on_c, 0, 79, 80
2, 39080, Note_on_c, 0, 79, 0
2, 39087, Note_on_c, 0, 71, 80
2, 39087, Note_on_c, 0, 75, 80
2, 39087, Note_on_c, 0, 83, 80
2, 39126, Note_on_c, 0, 52, 0
2, 39131, Note_on_c, 0, 55, 0
2, 39133, Note_on_c, 0, 60, 0
2, 39135, Note_on_c, 0, 39, 80
2, 39137, Note_on_c, 0, 51, 80
2, 39181, Note_on_c, 0, 75, 0
2, 39232, Note_on_c, 0, 51, 0
2, 39237, Note_on_c, 0, 71, 0
2, 39237, Note_on_c, 0, 39, 0
2, 39239, Note_on_c, 0, 83, 0
2, 39240, Note_on_c, 0, 54, 80
2, 39240, Note_on_c, 0, 57, 80
2, 39240, Note_on_c, 0, 60, 80
2, 39240, Note_on_c, 0, 63, 80
2, 39240, Note_on_c, 0, 69, 80
2, 39240, Note_on_c, 0, 75, 80
2, 39240, Note_on_c, 0, 81, 80
2, 39337, Note_on_c, 0, 81, 0
2, 39342, Note_on_c, 0, 69, 0
2, 39342, Note_on_c, 0, 57, 0
2, 39342, Note_on_c, 0, 60, 0
2, 39342, Note_on_c, 0, 54, 0
2, 39342, Note_on_c, 0, 75, 0
2, 39342, Note_on_c, 0, 63, 0
2, 39344, Note_on_c, 0, 50, 80
2, 39346, Note_on_c, 0, 38, 80
2, 39346, Note_on_c, 0, 67, 80
2, 39346, Note_on_c, 0, 71, 80
2, 39351, Note_on_c, 0, 79, 80
2, 39364, Note_on_c, 0, 71, 0
2, 39366, Note_on_c, 0, 67, 0
2, 39391, Note_on_c, 0, 79, 0
2, 39398, Note_on_c, 0, 71, 80
2, 39400, Note_on_c, 0, 67, 80
2, 39400, Note_on_c, 0, 77, 80
2, 39441, Note_on_c, 0, 38, 0
2, 39446, Note_on_c, 0, 50, 0
2, 39448, Note_on_c, 0, 53, 80
2, 39448, Note_on_c, 0, 55, 80
2, 39448, Note_on_c, 0, 59, 80
2, 39492, Note_on_c, 0, 59, 0
2, 39494, Note_on_c, 0, 71, 0
2, 39494, Note_on_c, 0, 53, 0
2, 39496, Note_on_c, 0, 77, 0
2, 39496, Note_on_c, 0, 55, 0
2, 39496, Note_on_c, 0, 67, 0
2, 39498, Note_on_c, 0, 65, 80
2, 39498, Note_on_c, 0, 69, 80
2, 39544, Note_on_c, 0, 69, 0
2, 39546, Note_on_c, 0, 65, 0
2, 39552, Note_on_c, 0, 43, 80
2, 39552, Note_on_c, 0, 55, 80
2, 39597, Note_on_c, 0, 55, 0
2, 39603, Note_on_c, 0, 65, 80
2, 39603, Note_on_c, 0, 69, 80
2, 39626, Note_on_c, 0, 65, 0
2, 39648, Note_on_c, 0, 69, 0
2, 39652, Note_on_c, 0, 43, 0
2, 39654, Note_on_c, 0, 65, 80
2, 39659, Note_on_c, 0, 53, 80
2, 39659, Note_on_c, 0, 55, 80
2, 39659, Note_on_c, 0, 59, 80
2, 39659, Note_on_c, 0, 71, 80
2, 39700, Note_on_c, 0, 71, 0
2, 39700, Note_on_c, 0, 65, 0
2, 39707, Note_on_c, 0, 64, 80
2, 39707, Note_on_c, 0, 72, 80
2, 39712, Note_on_c, 0, 67, 80
2, 39751, Note_on_c, 0, 53, 0
2, 39753, Note_on_c, 0, 59, 0
2, 39753, Note_on_c, 0, 55, 0
2, 39758, Note_on_c, 0, 48, 80
2, 39760, Note_on_c, 0, 60, 80
2, 39850, Note_on_c, 0, 60, 0
2, 39850, Note_on_c, 0, 72, 0
2, 39855, Note_on_c, 0, 64, 0
2, 39855, Note_on_c, 0, 67, 0
2, 39855, Note_on_c, 0, 48, 0
2, 39855, Note_on_c, 0, 43, 80
2, 39855, Note_on_c, 0, 55, 80
2, 39961, Note_on_c, 0, 55, 0
2, 39961, Note_on_c, 0, 43, 0
2, 39966, Note_on_c, 0, 36, 80
2, 39966, Note_on_c, 0, 48, 80
2, 40019, Note_on_c, 0, 71, 80
2, 40063, Note_on_c, 0, 71, 0
2, 40068, Note_on_c, 0, 48, 0
2, 40068, Note_on_c, 0, 36, 0
2, 40073, Note_on_c, 0, 74, 80
2, 40119, Note_on_c, 0, 74, 0
2, 40126, Note_on_c, 0, 77, 80
2, 40176, Note_on_c, 0, 77, 0
2, 40181, Note_on_c, 0, 50, 80
2, 40181, Note_on_c, 0, 62, 80
2, 40181, Note_on_c, 0, 81, 80
2, 40227, Note_on_c, 0, 81, 0
2, 40234, Note_on_c, 0, 71, 80
2, 40234, Note_on_c, 0, 79, 80
2, 40250, Note_on_c, 0, 77, 80
2, 40283, Note_on_c, 0, 62, 0
2, 40283, Note_on_c, 0, 50, 0
2, 40283, Note_on_c, 0, 65, 80
2, 40288, Note_on_c, 0, 55, 80
2, 40288, Note_on_c, 0, 59, 80
2, 40329, Note_on_c, 0, 59, 0
2, 40331, Note_on_c, 0, 65, 0
2, 40331, Note_on_c, 0, 71, 0
2, 40331, Note_on_c, 0, 55, 0
2, 40333, Note_on_c, 0, 79, 0
2, 40338, Note_on_c, 0, 77, 0
2, 40340, Note_on_c, 0, 81, 80
2, 40384, Note_on_c, 0, 81, 0
2, 40389, Note_on_c, 0, 43, 80
2, 40391, Note_on_c, 0, 55, 80
2, 40392, Note_on_c, 0, 71, 80
2, 40392, Note_on_c, 0, 77, 80
2, 40392, Note_on_c, 0, 79, 80
2, 40437, Note_on_c, 0, 55, 0
2, 40488, Note_on_c, 0, 71, 0
2, 40492, Note_on_c, 0, 43, 0
2, 40494, Note_on_c, 0, 79, 0
2, 40494, Note_on_c, 0, 65, 80
2, 40496, Note_on_c, 0, 77, 0
2, 40496, Note_on_c, 0, 55, 80
2, 40496, Note_on_c, 0, 59, 80
2, 40496, Note_on_c, 0, 81, 80
2, 40540, Note_on_c, 0, 81, 0
2, 40550, Note_on_c, 0, 77, 80
2, 40552, Note_on_c, 0, 71, 80
2, 40552, Note_on_c, 0, 79, 80
2, 40591, Note_on_c, 0, 59, 0
2, 40593, Note_on_c, 0, 65, 0
2, 40593, Note_on_c, 0, 55, 0
2, 40600, Note_on_c, 0, 50, 80
2, 40600, Note_on_c, 0, 62, 80
2, 40641, Note_on_c, 0, 71, 0
2, 40646, Note_on_c, 0, 77, 0
2, 40646, Note_on_c, 0, 79, 0
2, 40651, Note_on_c, 0, 81, 80
2, 40695, Note_on_c, 0, 81, 0
2, 40695, Note_on_c, 0, 50, 0
2, 40695, Note_on_c, 0, 62, 0
2, 40700, Note_on_c, 0, 59, 80
2, 40700, Note_on_c, 0, 65, 80
2, 40700, Note_on_c, 0, 71, 80
2, 40700, Note_on_c, 0, 77, 80
2, 40702, Note_on_c, 0, 55, 80
2, 40702, Note_on_c, 0, 79, 80
2, 40746, Note_on_c, 0, 79, 0
2, 40746, Note_on_c, 0, 65, 0
2, 40746, Note_on_c, 0, 59, 0
2, 40746, Note_on_c, 0, 55, 0
2, 40748, Note_on_c, 0, 77, 0
2, 40794, Note_on_c, 0, 71, 0
2, 40800, Note_on_c, 0, 55, 80
2, 40802, Note_on_c, 0, 43, 80
2, 40804, Note_on_c, 0, 74, 80
2, 40806, Note_on_c, 0, 79, 80
2, 40806, Note_on_c, 0, 81, 80
2, 40848, Note_on_c, 0, 81, 0
2, 40848, Note_on_c, 0, 79, 0
2, 40900, Note_on_c, 0, 55, 0
2, 40900, Note_on_c, 0, 43, 0
2, 40900, Note_on_c, 0, 74, 0
2, 40907, Note_on_c, 0, 53, 80
2, 40907, Note_on_c, 0, 75, 80
2, 40907, Note_on_c, 0, 79, 80
2, 40909, Note_on_c, 0, 81, 80
2, 40911, Note_on_c, 0, 41, 80
2, 40952, Note_on_c, 0, 75, 0
2, 40957, Note_on_c, 0, 81, 0
2, 40957, Note_on_c, 0, 79, 0
2, 41008, Note_on_c, 0, 53, 0
2, 41008, Note_on_c, 0, 41, 0
2, 41015, Note_on_c, 0, 40, 80
2, 41015, Note_on_c, 0, 52, 80
2, 41015, Note_on_c, 0, 81, 80
2, 41063, Note_on_c, 0, 81, 0
2, 41067, Note_on_c, 0, 72, 80
2, 41069, Note_on_c, 0, 76, 80
2, 41069, Note_on_c, 0, 79, 80
2, 41109, Note_on_c, 0, 52, 0
2, 41113, Note_on_c, 0, 40, 0
2, 41120, Note_on_c, 0, 55, 80
2, 41120, Note_on_c, 0, 60, 80
2, 41120, Note_on_c, 0, 64, 80
2, 41166, Note_on_c, 0, 64, 0
2, 41166, Note_on_c, 0, 72, 0
2, 41166, Note_on_c, 0, 76, 0
2, 41166, Note_on_c, 0, 55, 0
2, 41166, Note_on_c, 0, 60, 0
2, 41168, Note_on_c, 0, 79, 0
2, 41175, Note_on_c, 0, 81, 80
2, 41219, Note_on_c, 0, 81, 0
2, 41224, Note_on_c, 0, 43, 80
2, 41226, Note_on_c, 0, 55, 80
2, 41226, Note_on_c, 0, 72, 80
2, 41226, Note_on_c, 0, 79, 80
2, 41228, Note_on_c, 0, 76, 80
2, 41320, Note_on_c, 0, 72, 0
2, 41320, Note_on_c, 0, 43, 0
2, 41325, Note_on_c, 0, 55, 0
2, 41325, Note_on_c, 0, 79, 0
2, 41325, Note_on_c, 0, 76, 0
2, 41325, Note_on_c, 0, 60, 80
2, 41325, Note_on_c, 0, 64, 80
2, 41329, Note_on_c, 0, 67, 80
2, 41329, Note_on_c, 0, 81, 80
2, 41374, Note_on_c, 0, 81, 0
2, 41374, Note_on_c, 0, 60, 0
2, 41374, Note_on_c, 0, 64, 0
2, 41374, Note_on_c, 0, 67, 0
2, 41378, Note_on_c, 0, 72, 80
2, 41378, Note_on_c, 0, 76, 80
2, 41380, Note_on_c, 0, 79, 80
2, 41426, Note_on_c, 0, 48, 80
2, 41426, Note_on_c, 0, 60, 80
2, 41472, Note_on_c, 0, 72, 0
2, 41474, Note_on_c, 0, 60, 0
2, 41476, Note_on_c, 0, 76, 0
2, 41476, Note_on_c, 0, 79, 0
2, 41483, Note_on_c, 0, 81, 80
2, 41524, Note_on_c, 0, 48, 0
2, 41529, Note_on_c, 0, 81, 0
2, 41531, Note_on_c, 0, 55, 80
2, 41531, Note_on_c, 0, 60, 80
2, 41531, Note_on_c, 0, 64, 80
2, 41531, Note_on_c, 0, 72, 80
2, 41531, Note_on_c, 0, 76, 80
2, 41531, Note_on_c, 0, 79, 80
2, 41570, Note_on_c, 0, 72, 0
2, 41575, Note_on_c, 0, 64, 0
2, 41575, Note_on_c, 0, 55, 0
2, 41575, Note_on_c, 0, 60, 0
2, 41577, Note_on_c, 0, 79, 0
2, 41577, Note_on_c, 0, 76, 0
2, 41630, Note_on_c, 0, 52, 80
2, 41630, Note_on_c, 0, 64, 80
2, 41630, Note_on_c, 0, 74, 80
2, 41635, Note_on_c, 0, 76, 80
2, 41635, Note_on_c, 0, 79, 80
2, 41679, Note_on_c, 0, 79, 0
2, 41679, Note_on_c, 0, 74, 0
2, 41679, Note_on_c, 0, 76, 0
2, 41679, Note_on_c, 0, 64, 0
2, 41723, Note_on_c, 0, 52, 0
2, 41736, Note_on_c, 0, 55, 80
2, 41741, Note_on_c, 0, 60, 80
2, 41741, Note_on_c, 0, 64, 80
2, 41741, Note_on_c, 0, 72, 80
2, 41741, Note_on_c, 0, 76, 80
2, 41741, Note_on_c, 0, 79, 80
2, 41838, Note_on_c, 0, 79, 0
2, 41838, Note_on_c, 0, 60, 0
2, 41838, Note_on_c, 0, 64, 0
2, 41838, Note_on_c, 0, 55, 0
2, 41838, Note_on_c, 0, 76, 0
2, 41838, Note_on_c, 0, 72, 0
2, 41838, Note_on_c, 0, 50, 80
2, 41843, Note_on_c, 0, 62, 80
2, 41845, Note_on_c, 0, 81, 80
2, 41889, Note_on_c, 0, 81, 0
2, 41896, Note_on_c, 0, 77, 80
2, 41896, Note_on_c, 0, 79, 80
2, 41898, Note_on_c, 0, 71, 80
2, 41939, Note_on_c, 0, 50, 0
2, 41941, Note_on_c, 0, 62, 0
2, 41943, Note_on_c, 0, 55, 80
2, 41943, Note_on_c, 0, 65, 80
2, 41948, Note_on_c, 0, 59, 80
2, 41992, Note_on_c, 0, 59, 0
2, 41992, Note_on_c, 0, 71, 0
2, 41992, Note_on_c, 0, 65, 0
2, 41997, Note_on_c, 0, 79, 0
2, 41997, Note_on_c, 0, 55, 0
2, 41997, Note_on_c, 0, 77, 0
2, 42001, Note_on_c, 0, 81, 80
2, 42048, Note_on_c, 0, 81, 0
2, 42048, Note_on_c, 0, 43, 80
2, 42052, Note_on_c, 0, 55, 80
2, 42052, Note_on_c, 0, 77, 80
2, 42052, Note_on_c, 0, 79, 80
2, 42054, Note_on_c, 0, 71, 80
2, 42098, Note_on_c, 0, 55, 0
2, 42151, Note_on_c, 0, 43, 0
2, 42151, Note_on_c, 0, 71, 0
2, 42153, Note_on_c, 0, 79, 0
2, 42153, Note_on_c, 0, 55, 80
2, 42155, Note_on_c, 0, 77, 0
2, 42157, Note_on_c, 0, 59, 80
2, 42157, Note_on_c, 0, 65, 80
2, 42157, Note_on_c, 0, 81, 80
2, 42203, Note_on_c, 0, 81, 0
2, 42205, Note_on_c, 0, 71, 80
2, 42205, Note_on_c, 0, 79, 80
2, 42210, Note_on_c, 0, 77, 80
2, 42246, Note_on_c, 0, 59, 0
2, 42251, Note_on_c, 0, 55, 0
2, 42253, Note_on_c, 0, 65, 0
2, 42255, Note_on_c, 0, 50, 80
2, 42260, Note_on_c, 0, 62, 80
2, 42299, Note_on_c, 0, 71, 0
2, 42304, Note_on_c, 0, 77, 0
2, 42306, Note_on_c, 0, 79, 0
2, 42306, Note_on_c, 0, 81, 80
2, 42350, Note_on_c, 0, 62, 0
2, 42352, Note_on_c, 0, 81, 0
2, 42352, Note_on_c, 0, 50, 0
2, 42357, Note_on_c, 0, 55, 80
2, 42357, Note_on_c, 0, 59, 80
2, 42357, Note_on_c, 0, 65, 80
2, 42357, Note_on_c, 0, 77, 80
2, 42357, Note_on_c, 0, 79, 80
2, 42359, Note_on_c, 0, 71, 80
2, 42400, Note_on_c, 0, 65, 0
2, 42400, Note_on_c, 0, 59, 0
2, 42405, Note_on_c, 0, 55, 0
2, 42451, Note_on_c, 0, 71, 0
2, 42453, Note_on_c, 0, 77, 0
2, 42455, Note_on_c, 0, 79, 0
2, 42455, Note_on_c, 0, 43, 80
2, 42455, Note_on_c, 0, 55, 80
2, 42456, Note_on_c, 0, 74, 80
2, 42458, Note_on_c, 0, 86, 80
2, 42551, Note_on_c, 0, 74, 0
2, 42552, Note_on_c, 0, 43, 0
2, 42552, Note_on_c, 0, 55, 0
2, 42552, Note_on_c, 0, 86, 0
2, 42557, Note_on_c, 0, 41, 80
2, 42557, Note_on_c, 0, 53, 80
2, 42559, Note_on_c, 0, 75, 80
2, 42559, Note_on_c, 0, 87, 80
2, 42603, Note_on_c, 0, 87, 0
2, 42603, Note_on_c, 0, 75, 0
2, 42610, Note_on_c, 0, 76, 80
2, 42615, Note_on_c, 0, 88, 80
2, 42656, Note_on_c, 0, 53, 0
2, 42656, Note_on_c, 0, 41, 0
2, 42661, Note_on_c, 0, 88, 0
2, 42661, Note_on_c, 0, 40, 80
2, 42661, Note_on_c, 0, 52, 80
2, 42707, Note_on_c, 0, 52, 0
2, 42712, Note_on_c, 0, 76, 0
2, 42717, Note_on_c, 0, 88, 80
2, 42769, Note_on_c, 0, 88, 0
2, 42769, Note_on_c, 0, 40, 0
2, 42769, Note_on_c, 0, 52, 80
2, 42769, Note_on_c, 0, 55, 80
2, 42774, Note_on_c, 0, 60, 80
2, 42774, Note_on_c, 0, 84, 80
2, 42774, Note_on_c, 0, 96, 80
2, 42816, Note_on_c, 0, 52, 0
2, 42820, Note_on_c, 0, 84, 0
2, 42820, Note_on_c, 0, 55, 0
2, 42820, Note_on_c, 0, 60, 0
2, 42820, Note_on_c, 0, 96, 0
2, 42825, Note_on_c, 0, 88, 80
2, 42876, Note_on_c, 0, 88, 0
2, 42876, Note_on_c, 0, 43, 80
2, 42876, Note_on_c, 0, 83, 80
2, 42876, Note_on_c, 0, 95, 80
2, 42878, Note_on_c, 0, 55, 80
2, 42926, Note_on_c, 0, 55, 0
2, 42926, Note_on_c, 0, 43, 0
2, 42926, Note_on_c, 0, 83, 0
2, 42926, Note_on_c, 0, 95, 0
2, 42933, Note_on_c, 0, 88, 80
2, 42981, Note_on_c, 0, 88, 0
2, 42981, Note_on_c, 0, 55, 80
2, 42985, Note_on_c, 0, 60, 80
2, 42985, Note_on_c, 0, 81, 80
2, 42987, Note_on_c, 0, 64, 80
2, 42987, Note_on_c, 0, 93, 80
2, 43029, Note_on_c, 0, 93, 0
2, 43029, Note_on_c, 0, 81, 0
2, 43029, Note_on_c, 0, 55, 0
2, 43029, Note_on_c, 0, 60, 0
2, 43029, Note_on_c, 0, 64, 0
2, 43038, Note_on_c, 0, 88, 80
2, 43084, Note_on_c, 0, 88, 0
2, 43089, Note_on_c, 0, 48, 80
2, 43089, Note_on_c, 0, 60, 80
2, 43133, Note_on_c, 0, 60, 0
2, 43145, Note_on_c, 0, 76, 80
2, 43189, Note_on_c, 0, 76, 0
2, 43189, Note_on_c, 0, 48, 0
2, 43194, Note_on_c, 0, 84, 80
2, 43196, Note_on_c, 0, 55, 80
2, 43196, Note_on_c, 0, 60, 80
2, 43196, Note_on_c, 0, 64, 80
2, 43196, Note_on_c, 0, 72, 80
2, 43237, Note_on_c, 0, 72, 0
2, 43242, Note_on_c, 0, 60, 0
2, 43242, Note_on_c, 0, 64, 0
2, 43242, Note_on_c, 0, 55, 0
2, 43244, Note_on_c, 0, 84, 0
2, 43248, Note_on_c, 0, 76, 80
2, 43296, Note_on_c, 0, 52, 80
2, 43298, Note_on_c, 0, 76, 0
2, 43298, Note_on_c, 0, 64, 80
2, 43298, Note_on_c, 0, 71, 80
2, 43298, Note_on_c, 0, 83, 80
2, 43340, Note_on_c, 0, 71, 0
2, 43346, Note_on_c, 0, 83, 0
2, 43351, Note_on_c, 0, 76, 80
2, 43397, Note_on_c, 0, 64, 0
2, 43397, Note_on_c, 0, 52, 0
2, 43399, Note_on_c, 0, 76, 0
2, 43401, Note_on_c, 0, 63, 80
2, 43401, Note_on_c, 0, 69, 80
2, 43403, Note_on_c, 0, 81, 80
2, 43405, Note_on_c, 0, 51, 80
2, 43446, Note_on_c, 0, 69, 0
2, 43448, Note_on_c, 0, 81, 0
2, 43455, Note_on_c, 0, 76, 80
2, 43501, Note_on_c, 0, 63, 0
2, 43501, Note_on_c, 0, 51, 0
2, 43506, Note_on_c, 0, 76, 0
2, 43506, Note_on_c, 0, 50, 80
2, 43508, Note_on_c, 0, 62, 80
2, 43512, Note_on_c, 0, 81, 80
2, 43557, Note_on_c, 0, 81, 0
2, 43561, Note_on_c, 0, 71, 80
2, 43561, Note_on_c, 0, 77, 80
2, 43561, Note_on_c, 0, 79, 80
2, 43608, Note_on_c, 0, 62, 0
2, 43608, Note_on_c, 0, 50, 0
2, 43608, Note_on_c, 0, 65, 80
2, 43612, Note_on_c, 0, 55, 80
2, 43612, Note_on_c, 0, 59, 80
2, 43654, Note_on_c, 0, 59, 0
2, 43654, Note_on_c, 0, 71, 0
2, 43654, Note_on_c, 0, 79, 0
2, 43654, Note_on_c, 0, 55, 0
2, 43656, Note_on_c, 0, 65, 0
2, 43657, Note_on_c, 0, 77, 0
2, 43667, Note_on_c, 0, 81, 80
2, 43711, Note_on_c, 0, 81, 0
2, 43713, Note_on_c, 0, 55, 80
2, 43715, Note_on_c, 0, 71, 80
2, 43715, Note_on_c, 0, 77, 80
2, 43715, Note_on_c, 0, 79, 80
2, 43717, Note_on_c, 0, 43, 80
2, 43763, Note_on_c, 0, 55, 0
2, 43814, Note_on_c, 0, 71, 0
2, 43814, Note_on_c, 0, 43, 0
2, 43816, Note_on_c, 0, 79, 0
2, 43816, Note_on_c, 0, 55, 80
2, 43816, Note_on_c, 0, 65, 80
2, 43818, Note_on_c, 0, 77, 0
2, 43820, Note_on_c, 0, 59, 80
2, 43820, Note_on_c, 0, 81, 80
2, 43864, Note_on_c, 0, 81, 0
2, 43871, Note_on_c, 0, 71, 80
2, 43875, Note_on_c, 0, 77, 80
2, 43875, Note_on_c, 0, 79, 80
2, 43915, Note_on_c, 0, 59, 0
2, 43915, Note_on_c, 0, 55, 0
2, 43917, Note_on_c, 0, 65, 0
2, 43917, Note_on_c, 0, 50, 80
2, 43919, Note_on_c, 0, 62, 80
2, 43965, Note_on_c, 0, 71, 0
2, 43965, Note_on_c, 0, 79, 0
2, 43969, Note_on_c, 0, 77, 0
2, 43969, Note_on_c, 0, 81, 80
2, 44014, Note_on_c, 0, 50, 0
2, 44018, Note_on_c, 0, 81, 0
2, 44018, Note_on_c, 0, 62, 0
2, 44018, Note_on_c, 0, 55, 80
2, 44018, Note_on_c, 0, 65, 80
2, 44023, Note_on_c, 0, 59, 80
2, 44023, Note_on_c, 0, 77, 80
2, 44025, Note_on_c, 0, 71, 80
2, 44025, Note_on_c, 0, 79, 80
2, 44064, Note_on_c, 0, 59, 0
2, 44064, Note_on_c, 0, 55, 0
2, 44064, Note_on_c, 0, 65, 0
2, 44066, Note_on_c, 0, 77, 0
2, 44066, Note_on_c, 0, 79, 0
2, 44114, Note_on_c, 0, 71, 0
2, 44119, Note_on_c, 0, 43, 80
2, 44119, Note_on_c, 0, 55, 80
2, 44126, Note_on_c, 0, 74, 80
2, 44126, Note_on_c, 0, 79, 80
2, 44126, Note_on_c, 0, 81, 80
2, 44170, Note_on_c, 0, 81, 0
2, 44170, Note_on_c, 0, 79, 0
2, 44223, Note_on_c, 0, 43, 0
2, 44223, Note_on_c, 0, 55, 0
2, 44223, Note_on_c, 0, 74, 0
2, 44228, Note_on_c, 0, 41, 80
2, 44228, Note_on_c, 0, 53, 80
2, 44228, Note_on_c, 0, 75, 80
2, 44230, Note_on_c, 0, 79, 80
2, 44230, Note_on_c, 0, 81, 80
2, 44271, Note_on_c, 0, 81, 0
2, 44271, Note_on_c, 0, 75, 0
2, 44271, Note_on_c, 0, 79, 0
2, 44322, Note_on_c, 0, 53, 0
2, 44324, Note_on_c, 0, 41, 0
2, 44326, Note_on_c, 0, 52, 80
2, 44330, Note_on_c, 0, 40, 80
2, 44332, Note_on_c, 0, 81, 80
2, 44376, Note_on_c, 0, 81, 0
2, 44381, Note_on_c, 0, 72, 80
2, 44386, Note_on_c, 0, 76, 80
2, 44386, Note_on_c, 0, 79, 80
2, 44423, Note_on_c, 0, 52, 0
2, 44427, Note_on_c, 0, 40, 0
2, 44434, Note_on_c, 0, 60, 80
2, 44434, Note_on_c, 0, 64, 80
2, 44436, Note_on_c, 0, 55, 80
2, 44480, Note_on_c, 0, 55, 0
2, 44480, Note_on_c, 0, 72, 0
2, 44485, Note_on_c, 0, 60, 0
2, 44485, Note_on_c, 0, 79, 0
2, 44485, Note_on_c, 0, 76, 0
2, 44485, Note_on_c, 0, 64, 0
2, 44492, Note_on_c, 0, 81, 80
2, 44536, Note_on_c, 0, 81, 0
2, 44541, Note_on_c, 0, 43, 80
2, 44541, Note_on_c, 0, 55, 80
2, 44541, Note_on_c, 0, 72, 80
2, 44541, Note_on_c, 0, 76, 80
2, 44541, Note_on_c, 0, 79, 80
2, 44589, Note_on_c, 0, 55, 0
2, 44641, Note_on_c, 0, 43, 0
2, 44641, Note_on_c, 0, 72, 0
2, 44643, Note_on_c, 0, 76, 0
2, 44643, Note_on_c, 0, 79, 0
2, 44643, Note_on_c, 0, 55, 80
2, 44645, Note_on_c, 0, 60, 80
2, 44645, Note_on_c, 0, 64, 80
2, 44650, Note_on_c, 0, 81, 80
2, 44691, Note_on_c, 0, 64, 0
2, 44691, Note_on_c, 0, 55, 0
2, 44691, Note_on_c, 0, 60, 0
2, 44693, Note_on_c, 0, 81, 0
2, 44693, Note_on_c, 0, 72, 80
2, 44700, Note_on_c, 0, 76, 80
2, 44700, Note_on_c, 0, 79, 80
2, 44746, Note_on_c, 0, 48, 80
2, 44748, Note_on_c, 0, 60, 80
2, 44787, Note_on_c, 0, 60, 0
2, 44789, Note_on_c, 0, 72, 0
2, 44794, Note_on_c, 0, 76, 0
2, 44794, Note_on_c, 0, 79, 0
2, 44799, Note_on_c, 0, 81, 80
2, 44843, Note_on_c, 0, 48, 0
2, 44845, Note_on_c, 0, 81, 0
2, 44845, Note_on_c, 0, 55, 80
2, 44847, Note_on_c, 0, 60, 80
2, 44847, Note_on_c, 0, 72, 80
2, 44849, Note_on_c, 0, 64, 80
2, 44849, Note_on_c, 0, 76, 80
2, 44849, Note_on_c, 0, 79, 80
2, 44890, Note_on_c, 0, 60, 0
2, 44892, Note_on_c, 0, 72, 0
2, 44894, Note_on_c, 0, 55, 0
2, 44896, Note_on_c, 0, 64, 0
2, 44896, Note_on_c, 0, 76, 0
2, 44944, Note_on_c, 0, 79, 0
2, 44949, Note_on_c, 0, 48, 80
2, 44949, Note_on_c, 0, 60, 80
2, 44949, Note_on_c, 0, 72, 80
2, 44951, Note_on_c, 0, 76, 80
2, 44951, Note_on_c, 0, 81, 80
2, 44992, Note_on_c, 0, 72, 0
2, 44994, Note_on_c, 0, 76, 0
2, 45045, Note_on_c, 0, 48, 0
2, 45045, Note_on_c, 0, 60, 0
2, 45045, Note_on_c, 0, 81, 0
2, 45047, Note_on_c, 0, 58, 80
2, 45048, Note_on_c, 0, 46, 80
2, 45048, Note_on_c, 0, 72, 80
2, 45048, Note_on_c, 0, 79, 80
2, 45050, Note_on_c, 0, 76, 80
2, 45092, Note_on_c, 0, 72, 0
2, 45098, Note_on_c, 0, 76, 0
2, 45143, Note_on_c, 0, 58, 0
2, 45143, Note_on_c, 0, 46, 0
2, 45149, Note_on_c, 0, 79, 0
2, 45151, Note_on_c, 0, 45, 80
2, 45151, Note_on_c, 0, 57, 80
2, 45153, Note_on_c, 0, 72, 80
2, 45153, Note_on_c, 0, 75, 80
2, 45153, Note_on_c, 0, 78, 80
2, 45197, Note_on_c, 0, 72, 0
2, 45199, Note_on_c, 0, 75, 0
2, 45247, Note_on_c, 0, 45, 0
2, 45252, Note_on_c, 0, 57, 0
2, 45252, Note_on_c, 0, 78, 0
2, 45257, Note_on_c, 0, 36, 80
2, 45257, Note_on_c, 0, 72, 80
2, 45259, Note_on_c, 0, 48, 80
2, 45259, Note_on_c, 0, 75, 80
2, 45259, Note_on_c, 0, 84, 80
2, 45300, Note_on_c, 0, 72, 0
2, 45305, Note_on_c, 0, 75, 0
2, 45356, Note_on_c, 0, 36, 0
2, 45356, Note_on_c, 0, 48, 0
2, 45356, Note_on_c, 0, 84, 0
2, 45360, Note_on_c, 0, 39, 80
2, 45360, Note_on_c, 0, 51, 80
2, 45360, Note_on_c, 0, 75, 80
2, 45360, Note_on_c, 0, 83, 80
2, 45411, Note_on_c, 0, 75, 0
2, 45459, Note_on_c, 0, 39, 0
2, 45459, Note_on_c, 0, 51, 0
2, 45461, Note_on_c, 0, 83, 0
2, 45463, Note_on_c, 0, 54, 80
2, 45465, Note_on_c, 0, 42, 80
2, 45465, Note_on_c, 0, 69, 80
2, 45465, Note_on_c, 0, 75, 80
2, 45470, Note_on_c, 0, 81, 80
2, 45562, Note_on_c, 0, 69, 0
2, 45564, Note_on_c, 0, 75, 0
2, 45564, Note_on_c, 0, 54, 0
2, 45564, Note_on_c, 0, 42, 0
2, 45566, Note_on_c, 0, 81, 0
2, 45566, Note_on_c, 0, 43, 80
2, 45568, Note_on_c, 0, 55, 80
2, 45570, Note_on_c, 0, 67, 80
2, 45570, Note_on_c, 0, 79, 80
2, 45616, Note_on_c, 0, 79, 0
2, 45616, Note_on_c, 0, 67, 0
2, 45616, Note_on_c, 0, 55, 0
2, 45621, Note_on_c, 0, 72, 80
2, 45667, Note_on_c, 0, 43, 0
2, 45672, Note_on_c, 0, 72, 0
2, 45673, Note_on_c, 0, 52, 80
2, 45673, Note_on_c, 0, 55, 80
2, 45673, Note_on_c, 0, 60, 80
2, 45675, Note_on_c, 0, 76, 80
2, 45715, Note_on_c, 0, 52, 0
2, 45720, Note_on_c, 0, 55, 0
2, 45720, Note_on_c, 0, 60, 0
2, 45724, Note_on_c, 0, 76, 0
2, 45726, Note_on_c, 0, 69, 80
2, 45731, Note_on_c, 0, 72, 80
2, 45731, Note_on_c, 0, 81, 80
2, 45777, Note_on_c, 0, 52, 80
2, 45782, Note_on_c, 0, 40, 80
2, 45826, Note_on_c, 0, 72, 0
2, 45877, Note_on_c, 0, 52, 0
2, 45877, Note_on_c, 0, 69, 0
2, 45882, Note_on_c, 0, 81, 0
2, 45882, Note_on_c, 0, 40, 0
2, 45887, Note_on_c, 0, 39, 80
2, 45888, Note_on_c, 0, 51, 80
2, 45888, Note_on_c, 0, 67, 80
2, 45888, Note_on_c, 0, 72, 80
2, 45888, Note_on_c, 0, 79, 80
2, 45936, Note_on_c, 0, 72, 0
2, 45936, Note_on_c, 0, 67, 0
2, 45938, Note_on_c, 0, 79, 0
2, 45989, Note_on_c, 0, 51, 0
2, 45989, Note_on_c, 0, 39, 0
2, 45989, Note_on_c, 0, 50, 80
2, 45994, Note_on_c, 0, 38, 80
2, 45996, Note_on_c, 0, 67, 80
2, 45996, Note_on_c, 0, 71, 80
2, 45996, Note_on_c, 0, 79, 80
2, 46014, Note_on_c, 0, 71, 0
2, 46021, Note_on_c, 0, 67, 0
2, 46044, Note_on_c, 0, 79, 0
2, 46049, Note_on_c, 0, 71, 80
2, 46051, Note_on_c, 0, 67, 80
2, 46051, Note_on_c, 0, 77, 80
2, 46090, Note_on_c, 0, 38, 0
2, 46092, Note_on_c, 0, 50, 0
2, 46099, Note_on_c, 0, 53, 80
2, 46099, Note_on_c, 0, 55, 80
2, 46099, Note_on_c, 0, 59, 80
2, 46143, Note_on_c, 0, 59, 0
2, 46143, Note_on_c, 0, 71, 0
2, 46148, Note_on_c, 0, 67, 0
2, 46148, Note_on_c, 0, 55, 0
2, 46150, Note_on_c, 0, 77, 0
2, 46152, Note_on_c, 0, 65, 80
2, 46152, Note_on_c, 0, 69, 80
2, 46196, Note_on_c, 0, 69, 0
2, 46196, Note_on_c, 0, 53, 0
2, 46200, Note_on_c, 0, 65, 0
2, 46200, Note_on_c, 0, 43, 80
2, 46200, Note_on_c, 0, 55, 80
2, 46258, Note_on_c, 0, 65, 80
2, 46258, Note_on_c, 0, 69, 80
2, 46281, Note_on_c, 0, 65, 0
2, 46302, Note_on_c, 0, 69, 0
2, 46307, Note_on_c, 0, 55, 0
2, 46307, Note_on_c, 0, 43, 0
2, 46307, Note_on_c, 0, 65, 80
2, 46309, Note_on_c, 0, 53, 80
2, 46309, Note_on_c, 0, 59, 80
2, 46311, Note_on_c, 0, 62, 80
2, 46311, Note_on_c, 0, 71, 80
2, 46350, Note_on_c, 0, 71, 0
2, 46355, Note_on_c, 0, 65, 0
2, 46357, Note_on_c, 0, 64, 80
2, 46362, Note_on_c, 0, 67, 80
2, 46362, Note_on_c, 0, 72, 80
2, 46401, Note_on_c, 0, 53, 0
2, 46406, Note_on_c, 0, 59, 0
2, 46406, Note_on_c, 0, 62, 0
2, 46406, Note_on_c, 0, 72, 0
2, 46411, Note_on_c, 0, 48, 80
2, 46411, Note_on_c, 0, 60, 80
2, 46459, Note_on_c, 0, 64, 0
2, 46461, Note_on_c, 0, 67, 0
2, 46461, Note_on_c, 0, 72, 80
2, 46502, Note_on_c, 0, 48, 0
2, 46509, Note_on_c, 0, 72, 0
2, 46509, Note_on_c, 0, 60, 0
2, 46509, Note_on_c, 0, 43, 80
2, 46511, Note_on_c, 0, 55, 80
2, 46511, Note_on_c, 0, 76, 80
2, 46557, Note_on_c, 0, 76, 0
2, 46563, Note_on_c, 0, 79, 80
2, 46605, Note_on_c, 0, 43, 0
2, 46609, Note_on_c, 0, 79, 0
2, 46609, Note_on_c, 0, 55, 0
2, 46609, Note_on_c, 0, 48, 80
2, 46614, Note_on_c, 0, 36, 80
2, 46614, Note_on_c, 0, 72, 80
2, 46616, Note_on_c, 0, 84, 80
2, 46660, Note_on_c, 0, 84, 0
2, 46660, Note_on_c, 0, 72, 0
2, 46665, Note_on_c, 0, 71, 80
2, 46709, Note_on_c, 0, 71, 0
2, 46709, Note_on_c, 0, 36, 0
2, 46714, Note_on_c, 0, 48, 0
2, 46721, Note_on_c, 0, 74, 80
2, 46762, Note_on_c, 0, 74, 0
2, 46776, Note_on_c, 0, 77, 80
2, 46822, Note_on_c, 0, 77, 0
2, 46822, Note_on_c, 0, 50, 80
2, 46822, Note_on_c, 0, 62, 80
2, 46826, Note_on_c, 0, 81, 80
2, 46872, Note_on_c, 0, 81, 0
2, 46877, Note_on_c, 0, 71, 80
2, 46879, Note_on_c, 0, 77, 80
2, 46879, Note_on_c, 0, 79, 80
2, 46923, Note_on_c, 0, 62, 0
2, 46923, Note_on_c, 0, 50, 0
2, 46925, Note_on_c, 0, 65, 80
2, 46927, Note_on_c, 0, 59, 80
2, 46929, Note_on_c, 0, 55, 80
2, 46973, Note_on_c, 0, 55, 0
2, 46973, Note_on_c, 0, 59, 0
2, 46975, Note_on_c, 0, 71, 0
2, 46975, Note_on_c, 0, 65, 0
2, 46980, Note_on_c, 0, 77, 0
2, 46980, Note_on_c, 0, 79, 0
2, 46985, Note_on_c, 0, 81, 80
2, 47029, Note_on_c, 0, 81, 0
2, 47034, Note_on_c, 0, 43, 80
2, 47036, Note_on_c, 0, 55, 80
2, 47036, Note_on_c, 0, 77, 80
2, 47038, Note_on_c, 0, 71, 80
2, 47038, Note_on_c, 0, 79, 80
2, 47084, Note_on_c, 0, 55, 0
2, 47128, Note_on_c, 0, 71, 0
2, 47133, Note_on_c, 0, 43, 0
2, 47135, Note_on_c, 0, 79, 0
2, 47136, Note_on_c, 0, 77, 0
2, 47138, Note_on_c, 0, 55, 80
2, 47138, Note_on_c, 0, 59, 80
2, 47138, Note_on_c, 0, 65, 80
2, 47138, Note_on_c, 0, 81, 80
2, 47186, Note_on_c, 0, 81, 0
2, 47188, Note_on_c, 0, 71, 80
2, 47190, Note_on_c, 0, 77, 80
2, 47190, Note_on_c, 0, 79, 80
2, 47227, Note_on_c, 0, 59, 0
2, 47232, Note_on_c, 0, 55, 0
2, 47233, Note_on_c, 0, 65, 0
2, 47233, Note_on_c, 0, 50, 80
2, 47238, Note_on_c, 0, 62, 80
2, 47282, Note_on_c, 0, 71, 0
2, 47287, Note_on_c, 0, 79, 0
2, 47287, Note_on_c, 0, 77, 0
2, 47289, Note_on_c, 0, 81, 80
2, 47328, Note_on_c, 0, 50, 0
2, 47335, Note_on_c, 0, 81, 0
2, 47335, Note_on_c, 0, 62, 0
2, 47337, Note_on_c, 0, 65, 80
2, 47339, Note_on_c, 0, 55, 80
2, 47341, Note_on_c, 0, 59, 80
2, 47341, Note_on_c, 0, 71, 80
2, 47341, Note_on_c, 0, 77, 80
2, 47341, Note_on_c, 0, 79, 80
2, 47385, Note_on_c, 0, 79, 0
2, 47385, Note_on_c, 0, 55, 0
2, 47385, Note_on_c, 0, 65, 0
2, 47385, Note_on_c, 0, 59, 0
2, 47387, Note_on_c, 0, 77, 0
2, 47435, Note_on_c, 0, 43, 80
2, 47437, Note_on_c, 0, 71, 0
2, 47437, Note_on_c, 0, 55, 80
2, 47442, Note_on_c, 0, 74, 80
2, 47442, Note_on_c, 0, 81, 80
2, 47444, Note_on_c, 0, 79, 80
2, 47483, Note_on_c, 0, 81, 0
2, 47488, Note_on_c, 0, 79, 0
2, 47536, Note_on_c, 0, 43, 0
2, 47536, Note_on_c, 0, 55, 0
2, 47536, Note_on_c, 0, 74, 0
2, 47543, Note_on_c, 0, 41, 80
2, 47543, Note_on_c, 0, 53, 80
2, 47544, Note_on_c, 0, 75, 80
2, 47544, Note_on_c, 0, 79, 80
2, 47544, Note_on_c, 0, 81, 80
2, 47591, Note_on_c, 0, 75, 0
2, 47592, Note_on_c, 0, 79, 0
2, 47592, Note_on_c, 0, 81, 0
2, 47637, Note_on_c, 0, 53, 0
2, 47641, Note_on_c, 0, 41, 0
2, 47643, Note_on_c, 0, 52, 80
2, 47648, Note_on_c, 0, 40, 80
2, 47648, Note_on_c, 0, 81, 80
2, 47694, Note_on_c, 0, 72, 80
2, 47696, Note_on_c, 0, 81, 0
2, 47701, Note_on_c, 0, 76, 80
2, 47701, Note_on_c, 0, 79, 80
2, 47737, Note_on_c, 0, 52, 0
2, 47742, Note_on_c, 0, 40, 0
2, 47749, Note_on_c, 0, 55, 80
2, 47749, Note_on_c, 0, 60, 80
2, 47749, Note_on_c, 0, 64, 80
2, 47793, Note_on_c, 0, 60, 0
2, 47793, Note_on_c, 0, 72, 0
2, 47795, Note_on_c, 0, 55, 0
2, 47795, Note_on_c, 0, 79, 0
2, 47795, Note_on_c, 0, 64, 0
2, 47795, Note_on_c, 0, 76, 0
2, 47800, Note_on_c, 0, 81, 80
2, 47846, Note_on_c, 0, 81, 0
2, 47846, Note_on_c, 0, 43, 80
2, 47851, Note_on_c, 0, 55, 80
2, 47851, Note_on_c, 0, 72, 80
2, 47851, Note_on_c, 0, 76, 80
2, 47851, Note_on_c, 0, 79, 80
2, 47948, Note_on_c, 0, 72, 0
2, 47948, Note_on_c, 0, 43, 0
2, 47948, Note_on_c, 0, 55, 0
2, 47952, Note_on_c, 0, 76, 0
2, 47952, Note_on_c, 0, 60, 80
2, 47952, Note_on_c, 0, 64, 80
2, 47954, Note_on_c, 0, 79, 0
2, 47954, Note_on_c, 0, 81, 80
2, 47959, Note_on_c, 0, 67, 80
2, 48000, Note_on_c, 0, 67, 0
2, 48000, Note_on_c, 0, 60, 0
2, 48000, Note_on_c, 0, 64, 0
2, 48002, Note_on_c, 0, 81, 0
2, 48007, Note_on_c, 0, 72, 80
2, 48007, Note_on_c, 0, 76, 80
2, 48007, Note_on_c, 0, 79, 80
2, 48055, Note_on_c, 0, 48, 80
2, 48055, Note_on_c, 0, 60, 80
2, 48103, Note_on_c, 0, 60, 0
2, 48103, Note_on_c, 0, 72, 0
2, 48103, Note_on_c, 0, 79, 0
2, 48103, Note_on_c, 0, 76, 0
2, 48108, Note_on_c, 0, 81, 80
2, 48154, Note_on_c, 0, 48, 0
2, 48159, Note_on_c, 0, 81, 0
2, 48161, Note_on_c, 0, 55, 80
2, 48161, Note_on_c, 0, 60, 80
2, 48161, Note_on_c, 0, 64, 80
2, 48161, Note_on_c, 0, 72, 80
2, 48166, Note_on_c, 0, 76, 80
2, 48166, Note_on_c, 0, 79, 80
2, 48202, Note_on_c, 0, 72, 0
2, 48207, Note_on_c, 0, 60, 0
2, 48207, Note_on_c, 0, 64, 0
2, 48207, Note_on_c, 0, 55, 0
2, 48207, Note_on_c, 0, 79, 0
2, 48207, Note_on_c, 0, 76, 0
2, 48264, Note_on_c, 0, 52, 80
2, 48264, Note_on_c, 0, 64, 80
2, 48266, Note_on_c, 0, 74, 80
2, 48268, Note_on_c, 0, 76, 80
2, 48268, Note_on_c, 0, 79, 80
2, 48314, Note_on_c, 0, 79, 0
2, 48314, Note_on_c, 0, 74, 0
2, 48314, Note_on_c, 0, 76, 0
2, 48314, Note_on_c, 0, 64, 0
2, 48367, Note_on_c, 0, 52, 0
2, 48372, Note_on_c, 0, 60, 80
2, 48372, Note_on_c, 0, 64, 80
2, 48374, Note_on_c, 0, 55, 80
2, 48379, Note_on_c, 0, 72, 80
2, 48379, Note_on_c, 0, 76, 80
2, 48379, Note_on_c, 0, 79, 80
2, 48478, Note_on_c, 0, 79, 0
2, 48478, Note_on_c, 0, 64, 0
2, 48478, Note_on_c, 0, 55, 0
2, 48478, Note_on_c, 0, 60, 0
2, 48478, Note_on_c, 0, 76, 0
2, 48478, Note_on_c, 0, 72, 0
2, 48480, Note_on_c, 0, 50, 80
2, 48480, Note_on_c, 0, 62, 80
2, 48484, Note_on_c, 0, 81, 80
2, 48528, Note_on_c, 0, 81, 0
2, 48533, Note_on_c, 0, 71, 80
2, 48535, Note_on_c, 0, 79, 80
2, 48537, Note_on_c, 0, 77, 80
2, 48578, Note_on_c, 0, 62, 0
2, 48583, Note_on_c, 0, 50, 0
2, 48585, Note_on_c, 0, 55, 80
2, 48585, Note_on_c, 0, 65, 80
2, 48587, Note_on_c, 0, 59, 80
2, 48633, Note_on_c, 0, 59, 0
2, 48633, Note_on_c, 0, 55, 0
2, 48633, Note_on_c, 0, 71, 0
2, 48633, Note_on_c, 0, 65, 0
2, 48635, Note_on_c, 0, 77, 0
2, 48637, Note_on_c, 0, 79, 0
2, 48642, Note_on_c, 0, 81, 80
2, 48690, Note_on_c, 0, 81, 0
2, 48690, Note_on_c, 0, 43, 80
2, 48690, Note_on_c, 0, 55, 80
2, 48695, Note_on_c, 0, 77, 80
2, 48696, Note_on_c, 0, 71, 80
2, 48696, Note_on_c, 0, 79, 80
2, 48738, Note_on_c, 0, 55, 0
2, 48789, Note_on_c, 0, 71, 0
2, 48789, Note_on_c, 0, 43, 0
2, 48793, Note_on_c, 0, 77, 0
2, 48793, Note_on_c, 0, 79, 0
2, 48795, Note_on_c, 0, 55, 80
2, 48795, Note_on_c, 0, 59, 80
2, 48795, Note_on_c, 0, 65, 80
2, 48800, Note_on_c, 0, 81, 80
2, 48841, Note_on_c, 0, 81, 0
2, 48848, Note_on_c, 0, 79, 80
2, 48850, Note_on_c, 0, 71, 80
2, 48852, Note_on_c, 0, 77, 80
2, 48888, Note_on_c, 0, 59, 0
2, 48893, Note_on_c, 0, 55, 0
2, 48893, Note_on_c, 0, 62, 80
2, 48895, Note_on_c, 0, 65, 0
2, 48895, Note_on_c, 0, 50, 80
2, 48941, Note_on_c, 0, 71, 0
2, 48948, Note_on_c, 0, 79, 0
2, 48948, Note_on_c, 0, 77, 0
2, 48953, Note_on_c, 0, 81, 80
2, 48992, Note_on_c, 0, 62, 0
2, 48992, Note_on_c, 0, 50, 0
2, 48999, Note_on_c, 0, 81, 0
2, 48999, Note_on_c, 0, 55, 80
2, 48999, Note_on_c, 0, 65, 80
2, 49004, Note_on_c, 0, 59, 80
2, 49004, Note_on_c, 0, 77, 80
2, 49006, Note_on_c, 0, 71, 80
2, 49006, Note_on_c, 0, 79, 80
2, 49040, Note_on_c, 0, 59, 0
2, 49045, Note_on_c, 0, 55, 0
2, 49047, Note_on_c, 0, 65, 0
2, 49095, Note_on_c, 0, 71, 0
2, 49100, Note_on_c, 0, 79, 0
2, 49100, Note_on_c, 0, 77, 0
2, 49100, Note_on_c, 0, 43, 80
2, 49102, Note_on_c, 0, 55, 80
2, 49106, Note_on_c, 0, 74, 80
2, 49106, Note_on_c, 0, 86, 80
2, 49201, Note_on_c, 0, 74, 0
2, 49201, Note_on_c, 0, 43, 0
2, 49203, Note_on_c, 0, 55, 0
2, 49203, Note_on_c, 0, 86, 0
2, 49203, Note_on_c, 0, 41, 80
2, 49203, Note_on_c, 0, 53, 80
2, 49205, Note_on_c, 0, 75, 80
2, 49210, Note_on_c, 0, 87, 80
2, 49254, Note_on_c, 0, 75, 0
2, 49256, Note_on_c, 0, 87, 0
2, 49261, Note_on_c, 0, 76, 80
2, 49261, Note_on_c, 0, 88, 80
2, 49300, Note_on_c, 0, 53, 0
2, 49305, Note_on_c, 0, 41, 0
2, 49307, Note_on_c, 0, 52, 80
2, 49312, Note_on_c, 0, 88, 0
2, 49312, Note_on_c, 0, 40, 80
2, 49356, Note_on_c, 0, 52, 0
2, 49361, Note_on_c, 0, 76, 0
2, 49366, Note_on_c, 0, 88, 80
2, 49412, Note_on_c, 0, 40, 0
2, 49416, Note_on_c, 0, 88, 0
2, 49418, Note_on_c, 0, 52, 80
2, 49418, Note_on_c, 0, 55, 80
2, 49418, Note_on_c, 0, 60, 80
2, 49423, Note_on_c, 0, 84, 80
2, 49423, Note_on_c, 0, 96, 80
2, 49460, Note_on_c, 0, 60, 0
2, 49460, Note_on_c, 0, 52, 0
2, 49464, Note_on_c, 0, 55, 0
2, 49464, Note_on_c, 0, 84, 0
2, 49466, Note_on_c, 0, 96, 0
2, 49476, Note_on_c, 0, 88, 80
2, 49515, Note_on_c, 0, 88, 0
2, 49520, Note_on_c, 0, 43, 80
2, 49522, Note_on_c, 0, 55, 80
2, 49522, Note_on_c, 0, 95, 80
2, 49524, Note_on_c, 0, 83, 80
2, 49570, Note_on_c, 0, 83, 0
2, 49570, Note_on_c, 0, 43, 0
2, 49570, Note_on_c, 0, 55, 0
2, 49575, Note_on_c, 0, 95, 0
2, 49580, Note_on_c, 0, 88, 80
2, 49624, Note_on_c, 0, 55, 80
2, 49624, Note_on_c, 0, 60, 80
2, 49626, Note_on_c, 0, 88, 0
2, 49628, Note_on_c, 0, 64, 80
2, 49628, Note_on_c, 0, 81, 80
2, 49630, Note_on_c, 0, 93, 80
2, 49671, Note_on_c, 0, 81, 0
2, 49671, Note_on_c, 0, 64, 0
2, 49671, Note_on_c, 0, 60, 0
2, 49676, Note_on_c, 0, 55, 0
2, 49678, Note_on_c, 0, 93, 0
2, 49680, Note_on_c, 0, 88, 80
2, 49726, Note_on_c, 0, 88, 0
2, 49728, Note_on_c, 0, 48, 80
2, 49729, Note_on_c, 0, 60, 80
2, 49774, Note_on_c, 0, 60, 0
2, 49783, Note_on_c, 0, 76, 80
2, 49823, Note_on_c, 0, 48, 0
2, 49827, Note_on_c, 0, 76, 0
2, 49827, Note_on_c, 0, 55, 80
2, 49832, Note_on_c, 0, 72, 80
2, 49834, Note_on_c, 0, 60, 80
2, 49834, Note_on_c, 0, 64, 80
2, 49839, Note_on_c, 0, 84, 80
2, 49873, Note_on_c, 0, 60, 0
2, 49873, Note_on_c, 0, 55, 0
2, 49873, Note_on_c, 0, 72, 0
2, 49878, Note_on_c, 0, 64, 0
2, 49880, Note_on_c, 0, 84, 0
2, 49885, Note_on_c, 0, 76, 80
2, 49931, Note_on_c, 0, 76, 0
2, 49933, Note_on_c, 0, 52, 80
2, 49938, Note_on_c, 0, 64, 80
2, 49938, Note_on_c, 0, 83, 80
2, 49938, Note_on_c, 0, 71, 80
2, 49982, Note_on_c, 0, 71, 0
2, 49987, Note_on_c, 0, 83, 0
2, 49996, Note_on_c, 0, 76, 80
2, 50036, Note_on_c, 0, 52, 0
2, 50040, Note_on_c, 0, 64, 0
2, 50045, Note_on_c, 0, 76, 0
2, 50045, Note_on_c, 0, 69, 80
2, 50047, Note_on_c, 0, 51, 80
2, 50047, Note_on_c, 0, 63, 80
2, 50052, Note_on_c, 0, 81, 80
2, 50091, Note_on_c, 0, 69, 0
2, 50096, Note_on_c, 0, 81, 0
2, 50101, Note_on_c, 0, 76, 80
2, 50147, Note_on_c, 0, 63, 0
2, 50147, Note_on_c, 0, 51, 0
2, 50152, Note_on_c, 0, 76, 0
2, 50152, Note_on_c, 0, 50, 80
2, 50152, Note_on_c, 0, 62, 80
2, 50157, Note_on_c, 0, 81, 80
2, 50201, Note_on_c, 0, 81, 0
2, 50206, Note_on_c, 0, 71, 80
2, 50206, Note_on_c, 0, 77, 80
2, 50206, Note_on_c, 0, 79, 80
2, 50250, Note_on_c, 0, 62, 0
2, 50250, Note_on_c, 0, 50, 0
2, 50255, Note_on_c, 0, 55, 80
2, 50255, Note_on_c, 0, 59, 80
2, 50256, Note_on_c, 0, 65, 80
2, 50298, Note_on_c, 0, 59, 0
2, 50298, Note_on_c, 0, 71, 0
2, 50303, Note_on_c, 0, 55, 0
2, 50303, Note_on_c, 0, 79, 0
2, 50303, Note_on_c, 0, 65, 0
2, 50304, Note_on_c, 0, 77, 0
2, 50309, Note_on_c, 0, 81, 80
2, 50351, Note_on_c, 0, 81, 0
2, 50357, Note_on_c, 0, 43, 80
2, 50357, Note_on_c, 0, 55, 80
2, 50357, Note_on_c, 0, 71, 80
2, 50362, Note_on_c, 0, 79, 80
2, 50364, Note_on_c, 0, 77, 80
2, 50403, Note_on_c, 0, 55, 0
2, 50449, Note_on_c, 0, 43, 0
2, 50449, Note_on_c, 0, 71, 0
2, 50454, Note_on_c, 0, 79, 0
2, 50454, Note_on_c, 0, 77, 0
2, 50456, Note_on_c, 0, 55, 80
2, 50456, Note_on_c, 0, 59, 80
2, 50456, Note_on_c, 0, 65, 80
2, 50458, Note_on_c, 0, 81, 80
2, 50499, Note_on_c, 0, 81, 0
2, 50504, Note_on_c, 0, 71, 80
2, 50506, Note_on_c, 0, 77, 80
2, 50506, Note_on_c, 0, 79, 80
2, 50543, Note_on_c, 0, 59, 0
2, 50544, Note_on_c, 0, 55, 0
2, 50546, Note_on_c, 0, 65, 0
2, 50546, Note_on_c, 0, 50, 80
2, 50551, Note_on_c, 0, 62, 80
2, 50595, Note_on_c, 0, 71, 0
2, 50600, Note_on_c, 0, 79, 0
2, 50600, Note_on_c, 0, 77, 0
2, 50605, Note_on_c, 0, 81, 80
2, 50651, Note_on_c, 0, 81, 0
2, 50651, Note_on_c, 0, 50, 0
2, 50651, Note_on_c, 0, 62, 0
2, 50658, Note_on_c, 0, 55, 80
2, 50658, Note_on_c, 0, 59, 80
2, 50658, Note_on_c, 0, 65, 80
2, 50658, Note_on_c, 0, 71, 80
2, 50658, Note_on_c, 0, 79, 80
2, 50660, Note_on_c, 0, 77, 80
2, 50699, Note_on_c, 0, 59, 0
2, 50704, Note_on_c, 0, 65, 0
2, 50704, Note_on_c, 0, 55, 0
2, 50704, Note_on_c, 0, 79, 0
2, 50704, Note_on_c, 0, 77, 0
2, 50755, Note_on_c, 0, 71, 0
2, 50757, Note_on_c, 0, 43, 80
2, 50759, Note_on_c, 0, 74, 80
2, 50760, Note_on_c, 0, 79, 80
2, 50762, Note_on_c, 0, 55, 80
2, 50764, Note_on_c, 0, 81, 80
2, 50808, Note_on_c, 0, 81, 0
2, 50810, Note_on_c, 0, 79, 0
2, 50861, Note_on_c, 0, 43, 0
2, 50861, Note_on_c, 0, 74, 0
2, 50866, Note_on_c, 0, 55, 0
2, 50868, Note_on_c, 0, 41, 80
2, 50868, Note_on_c, 0, 53, 80
2, 50870, Note_on_c, 0, 75, 80
2, 50870, Note_on_c, 0, 79, 80
2, 50870, Note_on_c, 0, 81, 80
2, 50916, Note_on_c, 0, 81, 0
2, 50916, Note_on_c, 0, 75, 0
2, 50916, Note_on_c, 0, 79, 0
2, 50967, Note_on_c, 0, 53, 0
2, 50967, Note_on_c, 0, 41, 0
2, 50974, Note_on_c, 0, 40, 80
2, 50974, Note_on_c, 0, 52, 80
2, 50976, Note_on_c, 0, 81, 80
2, 51022, Note_on_c, 0, 81, 0
2, 51028, Note_on_c, 0, 72, 80
2, 51028, Note_on_c, 0, 76, 80
2, 51028, Note_on_c, 0, 79, 80
2, 51070, Note_on_c, 0, 52, 0
2, 51074, Note_on_c, 0, 40, 0
2, 51076, Note_on_c, 0, 60, 80
2, 51078, Note_on_c, 0, 55, 80
2, 51080, Note_on_c, 0, 64, 80
2, 51126, Note_on_c, 0, 64, 0
2, 51126, Note_on_c, 0, 60, 0
2, 51126, Note_on_c, 0, 72, 0
2, 51126, Note_on_c, 0, 55, 0
2, 51131, Note_on_c, 0, 79, 0
2, 51131, Note_on_c, 0, 76, 0
2, 51133, Note_on_c, 0, 81, 80
2, 51181, Note_on_c, 0, 81, 0
2, 51183, Note_on_c, 0, 43, 80
2, 51183, Note_on_c, 0, 55, 80
2, 51188, Note_on_c, 0, 72, 80
2, 51188, Note_on_c, 0, 76, 80
2, 51188, Note_on_c, 0, 79, 80
2, 51232, Note_on_c, 0, 55, 0
2, 51283, Note_on_c, 0, 43, 0
2, 51283, Note_on_c, 0, 72, 0
2, 51288, Note_on_c, 0, 76, 0
2, 51288, Note_on_c, 0, 79, 0
2, 51288, Note_on_c, 0, 60, 80
2, 51289, Note_on_c, 0, 55, 80
2, 51291, Note_on_c, 0, 64, 80
2, 51291, Note_on_c, 0, 81, 80
2, 51333, Note_on_c, 0, 64, 0
2, 51337, Note_on_c, 0, 60, 0
2, 51337, Note_on_c, 0, 55, 0
2, 51337, Note_on_c, 0, 81, 0
2, 51342, Note_on_c, 0, 76, 80
2, 51344, Note_on_c, 0, 72, 80
2, 51344, Note_on_c, 0, 79, 80
2, 51392, Note_on_c, 0, 48, 80
2, 51392, Note_on_c, 0, 60, 80
2, 51436, Note_on_c, 0, 60, 0
2, 51443, Note_on_c, 0, 76, 0
2, 51443, Note_on_c, 0, 79, 0
2, 51443, Note_on_c, 0, 72, 0
2, 51453, Note_on_c, 0, 81, 80
2, 51492, Note_on_c, 0, 48, 0
2, 51497, Note_on_c, 0, 81, 0
2, 51497, Note_on_c, 0, 64, 80
2, 51499, Note_on_c, 0, 55, 80
2, 51499, Note_on_c, 0, 60, 80
2, 51499, Note_on_c, 0, 72, 80
2, 51501, Note_on_c, 0, 76, 80
2, 51501, Note_on_c, 0, 79, 80
2, 51547, Note_on_c, 0, 76, 0
2, 51547, Note_on_c, 0, 72, 0
2, 51547, Note_on_c, 0, 60, 0
2, 51547, Note_on_c, 0, 64, 0
2, 51547, Note_on_c, 0, 55, 0
2, 51600, Note_on_c, 0, 79, 0
2, 51601, Note_on_c, 0, 60, 80
2, 51606, Note_on_c, 0, 72, 80
2, 51608, Note_on_c, 0, 76, 80
2, 51608, Note_on_c, 0, 81, 80
2, 51615, Note_on_c, 0, 48, 80
2, 51649, Note_on_c, 0, 76, 0
2, 51649, Note_on_c, 0, 72, 0
2, 51700, Note_on_c, 0, 48, 0
2, 51700, Note_on_c, 0, 60, 0
2, 51705, Note_on_c, 0, 81, 0
2, 51707, Note_on_c, 0, 46, 80
2, 51707, Note_on_c, 0, 58, 80
2, 51707, Note_on_c, 0, 72, 80
2, 51709, Note_on_c, 0, 79, 80
2, 51711, Note_on_c, 0, 76, 80
2, 51750, Note_on_c, 0, 72, 0
2, 51752, Note_on_c, 0, 76, 0
2, 51803, Note_on_c, 0, 58, 0
2, 51805, Note_on_c, 0, 46, 0
2, 51807, Note_on_c, 0, 79, 0
2, 51809, Note_on_c, 0, 45, 80
2, 51809, Note_on_c, 0, 57, 80
2, 51809, Note_on_c, 0, 72, 80
2, 51809, Note_on_c, 0, 78, 80
2, 51811, Note_on_c, 0, 75, 80
2, 51852, Note_on_c, 0, 75, 0
2, 51852, Note_on_c, 0, 72, 0
2, 51900, Note_on_c, 0, 45, 0
2, 51900, Note_on_c, 0, 57, 0
2, 51900, Note_on_c, 0, 78, 0
2, 51907, Note_on_c, 0, 36, 80
2, 51907, Note_on_c, 0, 48, 80
2, 51912, Note_on_c, 0, 72, 80
2, 51912, Note_on_c, 0, 75, 80
2, 51912, Note_on_c, 0, 84, 80
2, 51956, Note_on_c, 0, 75, 0
2, 51956, Note_on_c, 0, 72, 0
2, 52007, Note_on_c, 0, 36, 0
2, 52008, Note_on_c, 0, 48, 0
2, 52008, Note_on_c, 0, 84, 0
2, 52010, Note_on_c, 0, 39, 80
2, 52010, Note_on_c, 0, 51, 80
2, 52012, Note_on_c, 0, 83, 80
2, 52014, Note_on_c, 0, 75, 80
2, 52058, Note_on_c, 0, 75, 0
2, 52106, Note_on_c, 0, 39, 0
2, 52106, Note_on_c, 0, 51, 0
2, 52111, Note_on_c, 0, 83, 0
2, 52113, Note_on_c, 0, 42, 80
2, 52115, Note_on_c, 0, 54, 80
2, 52115, Note_on_c, 0, 69, 80
2, 52115, Note_on_c, 0, 75, 80
2, 52115, Note_on_c, 0, 81, 80
2, 52210, Note_on_c, 0, 54, 0
2, 52212, Note_on_c, 0, 75, 0
2, 52212, Note_on_c, 0, 42, 0
2, 52212, Note_on_c, 0, 69, 0
2, 52212, Note_on_c, 0, 43, 80
2, 52217, Note_on_c, 0, 81, 0
2, 52217, Note_on_c, 0, 55, 80
2, 52222, Note_on_c, 0, 67, 80
2, 52222, Note_on_c, 0, 79, 80
2, 52266, Note_on_c, 0, 79, 0
2, 52266, Note_on_c, 0, 67, 0
2, 52266, Note_on_c, 0, 55, 0
2, 52271, Note_on_c, 0, 72, 80
2, 52319, Note_on_c, 0, 72, 0
2, 52319, Note_on_c, 0, 43, 0
2, 52319, Note_on_c, 0, 52, 80
2, 52323, Note_on_c, 0, 55, 80
2, 52325, Note_on_c, 0, 60, 80
2, 52327, Note_on_c, 0, 76, 80
2, 52368, Note_on_c, 0, 55, 0
2, 52368, Note_on_c, 0, 52, 0
2, 52370, Note_on_c, 0, 60, 0
2, 52370, Note_on_c, 0, 76, 0
2, 52377, Note_on_c, 0, 69, 80
2, 52377, Note_on_c, 0, 72, 80
2, 52377, Note_on_c, 0, 81, 80
2, 52425, Note_on_c, 0, 40, 80
2, 52425, Note_on_c, 0, 52, 80
2, 52478, Note_on_c, 0, 72, 0
2, 52526, Note_on_c, 0, 40, 0
2, 52526, Note_on_c, 0, 52, 0
2, 52531, Note_on_c, 0, 69, 0
2, 52536, Note_on_c, 0, 81, 0
2, 52537, Note_on_c, 0, 39, 80
2, 52539, Note_on_c, 0, 72, 80
2, 52541, Note_on_c, 0, 51, 80
2, 52541, Note_on_c, 0, 67, 80
2, 52541, Note_on_c, 0, 79, 80
2, 52583, Note_on_c, 0, 79, 0
2, 52583, Note_on_c, 0, 72, 0
2, 52583, Note_on_c, 0, 67, 0
2, 52631, Note_on_c, 0, 51, 0
2, 52635, Note_on_c, 0, 39, 0
2, 52635, Note_on_c, 0, 50, 80
2, 52640, Note_on_c, 0, 38, 80
2, 52647, Note_on_c, 0, 67, 80
2, 52647, Note_on_c, 0, 71, 80
2, 52647, Note_on_c, 0, 79, 80
2, 52660, Note_on_c, 0, 71, 0
2, 52665, Note_on_c, 0, 67, 0
2, 52690, Note_on_c, 0, 79, 0
2, 52695, Note_on_c, 0, 67, 80
2, 52695, Note_on_c, 0, 71, 80
2, 52695, Note_on_c, 0, 77, 80
2, 52734, Note_on_c, 0, 38, 0
2, 52739, Note_on_c, 0, 50, 0
2, 52746, Note_on_c, 0, 59, 80
2, 52748, Note_on_c, 0, 55, 80
2, 52750, Note_on_c, 0, 53, 80
2, 52786, Note_on_c, 0, 59, 0
2, 52786, Note_on_c, 0, 71, 0
2, 52793, Note_on_c, 0, 55, 0
2, 52793, Note_on_c, 0, 77, 0
2, 52793, Note_on_c, 0, 67, 0
2, 52795, Note_on_c, 0, 65, 80
2, 52795, Note_on_c, 0, 69, 80
2, 52836, Note_on_c, 0, 69, 0
2, 52838, Note_on_c, 0, 53, 0
2, 52843, Note_on_c, 0, 65, 0
2, 52843, Note_on_c, 0, 43, 80
2, 52848, Note_on_c, 0, 55, 80
2, 52896, Note_on_c, 0, 69, 80
2, 52897, Note_on_c, 0, 65, 80
2, 52919, Note_on_c, 0, 65, 0
2, 52940, Note_on_c, 0, 69, 0
2, 52940, Note_on_c, 0, 43, 0
2, 52944, Note_on_c, 0, 55, 0
2, 52944, Note_on_c, 0, 65, 80
2, 52949, Note_on_c, 0, 53, 80
2, 52949, Note_on_c, 0, 59, 80
2, 52949, Note_on_c, 0, 62, 80
2, 52949, Note_on_c, 0, 71, 80
2, 52993, Note_on_c, 0, 71, 0
2, 52995, Note_on_c, 0, 65, 0
2, 53000, Note_on_c, 0, 64, 80
2, 53002, Note_on_c, 0, 67, 80
2, 53004, Note_on_c, 0, 72, 80
2, 53039, Note_on_c, 0, 53, 0
2, 53039, Note_on_c, 0, 59, 0
2, 53043, Note_on_c, 0, 62, 0
2, 53043, Note_on_c, 0, 72, 0
2, 53048, Note_on_c, 0, 48, 80
2, 53050, Note_on_c, 0, 60, 80
2, 53098, Note_on_c, 0, 64, 0
2, 53098, Note_on_c, 0, 67, 0
2, 53103, Note_on_c, 0, 72, 80
2, 53147, Note_on_c, 0, 72, 0
2, 53147, Note_on_c, 0, 48, 0
2, 53147, Note_on_c, 0, 60, 0
2, 53149, Note_on_c, 0, 43, 80
2, 53149, Note_on_c, 0, 55, 80
2, 53154, Note_on_c, 0, 76, 80
2, 53202, Note_on_c, 0, 76, 0
2, 53208, Note_on_c, 0, 79, 80
2, 53248, Note_on_c, 0, 43, 0
2, 53250, Note_on_c, 0, 55, 0
2, 53252, Note_on_c, 0, 79, 0
2, 53256, Note_on_c, 0, 36, 80
2, 53256, Note_on_c, 0, 48, 80
2, 53256, Note_on_c, 0, 72, 80
2, 53256, Note_on_c, 0, 76, 80
2, 53256, Note_on_c, 0, 84, 80
2, 53349, Note_on_c, 0, 36, 0
2, 53353, Note_on_c, 0, 76, 0
2, 53353, Note_on_c, 0, 48, 0
2, 53353, Note_on_c, 0, 72, 0
2, 53358, Note_on_c, 0, 84, 0
2, 53358, End_track
3, 0, Start_track
3, 0, Title_t, "c/b James Scott"
3, 0, End_track
4, 0, Start_track
4, 0, Title_t, "p/b James Scott"
4, 0, End_track
5, 0, Start_track
5, 0, Title_t, "88 Note Co. # 64542"
5, 0, End_track
6, 0, Start_track
6, 0, Title_t, "Scan of a player piano roll"
6, 0, End_track
7, 0, Start_track
7, 0, Title_t, "by Terry Smythe, Winnipeg, Canada"
7, 0, End_track
8, 0, Start_track
8, 1, Copyright_t, "___________________________________________________\012\012KUNSTDERFUGE.COM LARGE CLASSICAL MIDI COLLECTION\012ONCLASSICAL BY ALESSANDRO SIMONETTO, PROPRIETOR\012___________________________________________________\012\012! Attention: this file is under copyright !\012\012(c)onclassical, (nc)smythe, 2010\012___________________________________________________\012\012NO ONE MAY REPUBLISH THIS FILE WITHOUT PERMISSION\012COMMERCIAL USES OF THIS FILE IS STRICTLY PROHIBITED\012___________________________________________________\012\012Files & contributor's list: http://kunstderfuge.com/\012Terms and conditions: http://kunstderfuge.com/notes.htm"
8, 1, End_track
0, 0, End_of_file
