0, 0, Header, 1, 8, 192
1, 0, Start_track
1, 0, Title_t, "403S"
1, 0, Copyright_t, "May NOT be used for commercial purposes."
1, 0, Text_t, "Roll expression/accent tracks, where present, converted to MIDI velocties.\012"
1, 0, Time_signature, 4, 2, 24, 8
1, 0, Key_signature, 0, "major"
1, 0, Tempo, 500000
1, 0, Marker_t, "Standard MIDI:LPI 124:Tempo  70: 10-29-2003"
1, 0, End_track
2, 0, Start_track
2, 0, Title_t, "Honeymoon Rag (1916)"
2, 247, Note_on_c, 0, 37, 80
2, 247, Note_on_c, 0, 49, 80
2, 327, Note_on_c, 0, 49, 0
2, 356, Note_on_c, 0, 42, 80
2, 360, Note_on_c, 0, 54, 80
2, 381, Note_on_c, 0, 37, 0
2, 416, Note_on_c, 0, 70, 80
2, 432, Note_on_c, 0, 54, 0
2, 456, Note_on_c, 0, 42, 0
2, 457, Note_on_c, 0, 70, 0
2, 459, Note_on_c, 0, 54, 80
2, 464, Note_on_c, 0, 58, 80
2, 464, Note_on_c, 0, 61, 80
2, 466, Note_on_c, 0, 66, 80
2, 466, Note_on_c, 0, 73, 80
2, 483, Note_on_c, 0, 61, 0
2, 483, Note_on_c, 0, 58, 0
2, 507, Note_on_c, 0, 73, 0
2, 512, Note_on_c, 0, 66, 0
2, 512, Note_on_c, 0, 54, 0
2, 514, Note_on_c, 0, 70, 80
2, 565, Note_on_c, 0, 70, 0
2, 567, Note_on_c, 0, 49, 80
2, 567, Note_on_c, 0, 54, 80
2, 567, Note_on_c, 0, 58, 80
2, 567, Note_on_c, 0, 68, 80
2, 587, Note_on_c, 0, 54, 0
2, 587, Note_on_c, 0, 49, 0
2, 616, Note_on_c, 0, 58, 0
2, 616, Note_on_c, 0, 68, 0
2, 618, Note_on_c, 0, 66, 80
2, 671, Note_on_c, 0, 66, 0
2, 671, Note_on_c, 0, 43, 80
2, 672, Note_on_c, 0, 58, 80
2, 672, Note_on_c, 0, 63, 80
2, 719, Note_on_c, 0, 63, 0
2, 719, Note_on_c, 0, 64, 80
2, 768, Note_on_c, 0, 58, 0
2, 768, Note_on_c, 0, 43, 0
2, 769, Note_on_c, 0, 64, 0
2, 771, Note_on_c, 0, 44, 80
2, 771, Note_on_c, 0, 65, 80
2, 773, Note_on_c, 0, 59, 80
2, 819, Note_on_c, 0, 59, 0
2, 819, Note_on_c, 0, 65, 0
2, 821, Note_on_c, 0, 71, 80
2, 823, Note_on_c, 0, 63, 80
2, 823, Note_on_c, 0, 75, 80
2, 843, Note_on_c, 0, 44, 0
2, 874, Note_on_c, 0, 53, 80
2, 874, Note_on_c, 0, 61, 80
2, 876, Note_on_c, 0, 59, 80
2, 891, Note_on_c, 0, 61, 0
2, 893, Note_on_c, 0, 53, 0
2, 893, Note_on_c, 0, 71, 0
2, 893, Note_on_c, 0, 59, 0
2, 917, Note_on_c, 0, 63, 0
2, 922, Note_on_c, 0, 75, 0
2, 924, Note_on_c, 0, 61, 80
2, 924, Note_on_c, 0, 71, 80
2, 926, Note_on_c, 0, 65, 80
2, 926, Note_on_c, 0, 73, 80
2, 975, Note_on_c, 0, 49, 80
2, 977, Note_on_c, 0, 59, 80
2, 979, Note_on_c, 0, 53, 80
2, 996, Note_on_c, 0, 49, 0
2, 1023, Note_on_c, 0, 53, 0
2, 1028, Note_on_c, 0, 71, 0
2, 1028, Note_on_c, 0, 65, 0
2, 1028, Note_on_c, 0, 59, 0
2, 1055, Note_on_c, 0, 61, 0
2, 1077, Note_on_c, 0, 73, 0
2, 1081, Note_on_c, 0, 37, 80
2, 1081, Note_on_c, 0, 49, 80
2, 1154, Note_on_c, 0, 37, 0
2, 1185, Note_on_c, 0, 49, 0
2, 1185, Note_on_c, 0, 42, 80
2, 1190, Note_on_c, 0, 54, 80
2, 1241, Note_on_c, 0, 70, 80
2, 1241, Note_on_c, 0, 82, 80
2, 1261, Note_on_c, 0, 42, 0
2, 1288, Note_on_c, 0, 54, 0
2, 1290, Note_on_c, 0, 70, 0
2, 1290, Note_on_c, 0, 82, 0
2, 1292, Note_on_c, 0, 66, 80
2, 1294, Note_on_c, 0, 58, 80
2, 1294, Note_on_c, 0, 61, 80
2, 1294, Note_on_c, 0, 78, 80
2, 1296, Note_on_c, 0, 73, 80
2, 1297, Note_on_c, 0, 85, 80
2, 1311, Note_on_c, 0, 61, 0
2, 1313, Note_on_c, 0, 58, 0
2, 1315, Note_on_c, 0, 66, 0
2, 1342, Note_on_c, 0, 73, 0
2, 1348, Note_on_c, 0, 78, 0
2, 1350, Note_on_c, 0, 70, 80
2, 1350, Note_on_c, 0, 82, 80
2, 1370, Note_on_c, 0, 85, 0
2, 1401, Note_on_c, 0, 54, 80
2, 1401, Note_on_c, 0, 58, 80
2, 1401, Note_on_c, 0, 61, 80
2, 1403, Note_on_c, 0, 68, 80
2, 1403, Note_on_c, 0, 80, 80
2, 1423, Note_on_c, 0, 61, 0
2, 1423, Note_on_c, 0, 58, 0
2, 1423, Note_on_c, 0, 54, 0
2, 1423, Note_on_c, 0, 70, 0
2, 1425, Note_on_c, 0, 82, 0
2, 1447, Note_on_c, 0, 80, 0
2, 1454, Note_on_c, 0, 78, 80
2, 1456, Note_on_c, 0, 66, 80
2, 1478, Note_on_c, 0, 68, 0
2, 1505, Note_on_c, 0, 66, 0
2, 1505, Note_on_c, 0, 43, 80
2, 1507, Note_on_c, 0, 55, 80
2, 1507, Note_on_c, 0, 63, 80
2, 1507, Note_on_c, 0, 75, 80
2, 1531, Note_on_c, 0, 78, 0
2, 1560, Note_on_c, 0, 64, 80
2, 1561, Note_on_c, 0, 76, 80
2, 1582, Note_on_c, 0, 55, 0
2, 1584, Note_on_c, 0, 75, 0
2, 1584, Note_on_c, 0, 63, 0
2, 1608, Note_on_c, 0, 43, 0
2, 1609, Note_on_c, 0, 41, 80
2, 1609, Note_on_c, 0, 56, 80
2, 1611, Note_on_c, 0, 65, 80
2, 1616, Note_on_c, 0, 77, 80
2, 1633, Note_on_c, 0, 64, 0
2, 1635, Note_on_c, 0, 76, 0
2, 1662, Note_on_c, 0, 56, 0
2, 1664, Note_on_c, 0, 65, 0
2, 1666, Note_on_c, 0, 75, 80
2, 1666, Note_on_c, 0, 83, 80
2, 1666, Note_on_c, 0, 87, 80
2, 1708, Note_on_c, 0, 41, 0
2, 1717, Note_on_c, 0, 83, 0
2, 1717, Note_on_c, 0, 77, 0
2, 1717, Note_on_c, 0, 75, 0
2, 1717, Note_on_c, 0, 87, 0
2, 1717, Note_on_c, 0, 56, 80
2, 1717, Note_on_c, 0, 59, 80
2, 1717, Note_on_c, 0, 61, 80
2, 1719, Note_on_c, 0, 65, 80
2, 1741, Note_on_c, 0, 65, 0
2, 1741, Note_on_c, 0, 59, 0
2, 1765, Note_on_c, 0, 56, 0
2, 1767, Note_on_c, 0, 61, 0
2, 1772, Note_on_c, 0, 73, 80
2, 1772, Note_on_c, 0, 77, 80
2, 1772, Note_on_c, 0, 83, 80
2, 1772, Note_on_c, 0, 85, 80
2, 1816, Note_on_c, 0, 85, 0
2, 1816, Note_on_c, 0, 73, 0
2, 1816, Note_on_c, 0, 77, 0
2, 1816, Note_on_c, 0, 83, 0
2, 1821, Note_on_c, 0, 53, 80
2, 1821, Note_on_c, 0, 56, 80
2, 1821, Note_on_c, 0, 59, 80
2, 1821, Note_on_c, 0, 61, 80
2, 1841, Note_on_c, 0, 53, 0
2, 1846, Note_on_c, 0, 61, 0
2, 1870, Note_on_c, 0, 56, 0
2, 1872, Note_on_c, 0, 59, 0
2, 1873, Note_on_c, 0, 73, 80
2, 1873, Note_on_c, 0, 77, 80
2, 1873, Note_on_c, 0, 83, 80
2, 1875, Note_on_c, 0, 85, 80
2, 1921, Note_on_c, 0, 85, 0
2, 1921, Note_on_c, 0, 73, 0
2, 1921, Note_on_c, 0, 77, 0
2, 1921, Note_on_c, 0, 83, 0
2, 1928, Note_on_c, 0, 75, 80
2, 1928, Note_on_c, 0, 87, 80
2, 1972, Note_on_c, 0, 75, 0
2, 1974, Note_on_c, 0, 87, 0
2, 1981, Note_on_c, 0, 77, 80
2, 1981, Note_on_c, 0, 89, 80
2, 2030, Note_on_c, 0, 89, 0
2, 2030, Note_on_c, 0, 77, 0
2, 2030, Note_on_c, 0, 63, 80
2, 2030, Note_on_c, 0, 66, 80
2, 2030, Note_on_c, 0, 71, 80
2, 2030, Note_on_c, 0, 78, 80
2, 2030, Note_on_c, 0, 87, 80
2, 2032, Note_on_c, 0, 90, 80
2, 2076, Note_on_c, 0, 71, 0
2, 2076, Note_on_c, 0, 63, 0
2, 2078, Note_on_c, 0, 78, 0
2, 2078, Note_on_c, 0, 66, 0
2, 2078, Note_on_c, 0, 90, 0
2, 2078, Note_on_c, 0, 87, 0
2, 2085, Note_on_c, 0, 83, 80
2, 2131, Note_on_c, 0, 66, 80
2, 2133, Note_on_c, 0, 83, 0
2, 2133, Note_on_c, 0, 59, 80
2, 2133, Note_on_c, 0, 63, 80
2, 2133, Note_on_c, 0, 71, 80
2, 2133, Note_on_c, 0, 75, 80
2, 2133, Note_on_c, 0, 87, 80
2, 2184, Note_on_c, 0, 87, 0
2, 2184, Note_on_c, 0, 59, 0
2, 2184, Note_on_c, 0, 63, 0
2, 2184, Note_on_c, 0, 66, 0
2, 2184, Note_on_c, 0, 75, 0
2, 2184, Note_on_c, 0, 71, 0
2, 2185, Note_on_c, 0, 89, 80
2, 2190, Note_on_c, 0, 77, 80
2, 2236, Note_on_c, 0, 59, 80
2, 2236, Note_on_c, 0, 63, 80
2, 2236, Note_on_c, 0, 68, 80
2, 2282, Note_on_c, 0, 68, 0
2, 2282, Note_on_c, 0, 59, 0
2, 2282, Note_on_c, 0, 63, 0
2, 2284, Note_on_c, 0, 89, 0
2, 2284, Note_on_c, 0, 71, 80
2, 2289, Note_on_c, 0, 77, 0
2, 2291, Note_on_c, 0, 83, 80
2, 2337, Note_on_c, 0, 71, 0
2, 2342, Note_on_c, 0, 83, 0
2, 2342, Note_on_c, 0, 60, 80
2, 2344, Note_on_c, 0, 57, 80
2, 2344, Note_on_c, 0, 66, 80
2, 2344, Note_on_c, 0, 75, 80
2, 2344, Note_on_c, 0, 87, 80
2, 2361, Note_on_c, 0, 57, 0
2, 2363, Note_on_c, 0, 66, 0
2, 2390, Note_on_c, 0, 60, 0
2, 2392, Note_on_c, 0, 87, 0
2, 2392, Note_on_c, 0, 75, 0
2, 2394, Note_on_c, 0, 69, 80
2, 2394, Note_on_c, 0, 81, 80
2, 2443, Note_on_c, 0, 81, 0
2, 2443, Note_on_c, 0, 69, 0
2, 2449, Note_on_c, 0, 58, 80
2, 2449, Note_on_c, 0, 61, 80
2, 2449, Note_on_c, 0, 70, 80
2, 2449, Note_on_c, 0, 73, 80
2, 2451, Note_on_c, 0, 66, 80
2, 2451, Note_on_c, 0, 78, 80
2, 2451, Note_on_c, 0, 85, 80
2, 2496, Note_on_c, 0, 73, 0
2, 2496, Note_on_c, 0, 70, 0
2, 2496, Note_on_c, 0, 58, 0
2, 2496, Note_on_c, 0, 61, 0
2, 2497, Note_on_c, 0, 85, 0
2, 2497, Note_on_c, 0, 66, 0
2, 2497, Note_on_c, 0, 78, 0
2, 2499, Note_on_c, 0, 82, 80
2, 2550, Note_on_c, 0, 82, 0
2, 2552, Note_on_c, 0, 66, 80
2, 2552, Note_on_c, 0, 69, 80
2, 2552, Note_on_c, 0, 75, 80
2, 2557, Note_on_c, 0, 57, 80
2, 2557, Note_on_c, 0, 60, 80
2, 2557, Note_on_c, 0, 87, 80
2, 2599, Note_on_c, 0, 60, 0
2, 2599, Note_on_c, 0, 75, 0
2, 2601, Note_on_c, 0, 69, 0
2, 2603, Note_on_c, 0, 57, 0
2, 2605, Note_on_c, 0, 87, 0
2, 2605, Note_on_c, 0, 66, 0
2, 2607, Note_on_c, 0, 73, 80
2, 2607, Note_on_c, 0, 78, 80
2, 2607, Note_on_c, 0, 85, 80
2, 2609, Note_on_c, 0, 82, 80
2, 2655, Note_on_c, 0, 82, 0
2, 2660, Note_on_c, 0, 61, 80
2, 2662, Note_on_c, 0, 58, 80
2, 2662, Note_on_c, 0, 66, 80
2, 2708, Note_on_c, 0, 66, 0
2, 2708, Note_on_c, 0, 61, 0
2, 2708, Note_on_c, 0, 58, 0
2, 2710, Note_on_c, 0, 85, 0
2, 2710, Note_on_c, 0, 73, 0
2, 2710, Note_on_c, 0, 78, 0
2, 2710, Note_on_c, 0, 70, 80
2, 2712, Note_on_c, 0, 82, 80
2, 2760, Note_on_c, 0, 82, 0
2, 2760, Note_on_c, 0, 70, 0
2, 2760, Note_on_c, 0, 40, 80
2, 2760, Note_on_c, 0, 55, 80
2, 2762, Note_on_c, 0, 67, 80
2, 2767, Note_on_c, 0, 79, 80
2, 2811, Note_on_c, 0, 67, 0
2, 2813, Note_on_c, 0, 79, 0
2, 2813, Note_on_c, 0, 63, 80
2, 2813, Note_on_c, 0, 75, 80
2, 2833, Note_on_c, 0, 40, 0
2, 2840, Note_on_c, 0, 39, 80
2, 2860, Note_on_c, 0, 55, 0
2, 2862, Note_on_c, 0, 63, 0
2, 2864, Note_on_c, 0, 78, 80
2, 2866, Note_on_c, 0, 54, 80
2, 2868, Note_on_c, 0, 70, 80
2, 2868, Note_on_c, 0, 72, 80
2, 2868, Note_on_c, 0, 82, 80
2, 2885, Note_on_c, 0, 82, 0
2, 2885, Note_on_c, 0, 70, 0
2, 2885, Note_on_c, 0, 78, 0
2, 2885, Note_on_c, 0, 72, 0
2, 2890, Note_on_c, 0, 75, 0
2, 2919, Note_on_c, 0, 69, 80
2, 2919, Note_on_c, 0, 72, 80
2, 2919, Note_on_c, 0, 78, 80
2, 2919, Note_on_c, 0, 81, 80
2, 2921, Note_on_c, 0, 75, 80
2, 2963, Note_on_c, 0, 39, 0
2, 2965, Note_on_c, 0, 78, 0
2, 2965, Note_on_c, 0, 72, 0
2, 2970, Note_on_c, 0, 75, 0
2, 2970, Note_on_c, 0, 56, 80
2, 2970, Note_on_c, 0, 60, 80
2, 2972, Note_on_c, 0, 63, 80
2, 2972, Note_on_c, 0, 66, 80
2, 2994, Note_on_c, 0, 54, 0
2, 3016, Note_on_c, 0, 56, 0
2, 3018, Note_on_c, 0, 69, 0
2, 3018, Note_on_c, 0, 60, 0
2, 3018, Note_on_c, 0, 63, 0
2, 3020, Note_on_c, 0, 81, 0
2, 3020, Note_on_c, 0, 66, 0
2, 3024, Note_on_c, 0, 72, 80
2, 3024, Note_on_c, 0, 75, 80
2, 3024, Note_on_c, 0, 78, 80
2, 3024, Note_on_c, 0, 80, 80
2, 3026, Note_on_c, 0, 68, 80
2, 3075, Note_on_c, 0, 39, 80
2, 3077, Note_on_c, 0, 51, 80
2, 3179, Note_on_c, 0, 40, 80
2, 3179, Note_on_c, 0, 52, 80
2, 3196, Note_on_c, 0, 39, 0
2, 3201, Note_on_c, 0, 51, 0
2, 3225, Note_on_c, 0, 40, 0
2, 3227, Note_on_c, 0, 75, 0
2, 3227, Note_on_c, 0, 52, 0
2, 3227, Note_on_c, 0, 72, 0
2, 3229, Note_on_c, 0, 78, 0
2, 3229, Note_on_c, 0, 68, 0
2, 3258, Note_on_c, 0, 80, 0
2, 3282, Note_on_c, 0, 41, 80
2, 3284, Note_on_c, 0, 53, 80
2, 3284, Note_on_c, 0, 75, 80
2, 3284, Note_on_c, 0, 80, 80
2, 3284, Note_on_c, 0, 83, 80
2, 3284, Note_on_c, 0, 87, 80
2, 3301, Note_on_c, 0, 75, 0
2, 3303, Note_on_c, 0, 83, 0
2, 3303, Note_on_c, 0, 87, 0
2, 3334, Note_on_c, 0, 74, 80
2, 3334, Note_on_c, 0, 77, 80
2, 3334, Note_on_c, 0, 83, 80
2, 3336, Note_on_c, 0, 86, 80
2, 3356, Note_on_c, 0, 53, 0
2, 3380, Note_on_c, 0, 41, 0
2, 3382, Note_on_c, 0, 77, 0
2, 3382, Note_on_c, 0, 83, 0
2, 3382, Note_on_c, 0, 49, 80
2, 3382, Note_on_c, 0, 53, 80
2, 3382, Note_on_c, 0, 59, 80
2, 3386, Note_on_c, 0, 56, 80
2, 3404, Note_on_c, 0, 59, 0
2, 3404, Note_on_c, 0, 53, 0
2, 3406, Note_on_c, 0, 80, 0
2, 3428, Note_on_c, 0, 49, 0
2, 3428, Note_on_c, 0, 56, 0
2, 3432, Note_on_c, 0, 74, 0
2, 3432, Note_on_c, 0, 86, 0
2, 3434, Note_on_c, 0, 73, 80
2, 3439, Note_on_c, 0, 77, 80
2, 3439, Note_on_c, 0, 80, 80
2, 3439, Note_on_c, 0, 83, 80
2, 3439, Note_on_c, 0, 85, 80
2, 3483, Note_on_c, 0, 61, 80
2, 3485, Note_on_c, 0, 56, 80
2, 3485, Note_on_c, 0, 59, 80
2, 3485, Note_on_c, 0, 65, 80
2, 3580, Note_on_c, 0, 73, 0
2, 3582, Note_on_c, 0, 56, 0
2, 3584, Note_on_c, 0, 65, 0
2, 3584, Note_on_c, 0, 59, 0
2, 3584, Note_on_c, 0, 61, 0
2, 3586, Note_on_c, 0, 83, 0
2, 3586, Note_on_c, 0, 77, 0
2, 3586, Note_on_c, 0, 85, 0
2, 3588, Note_on_c, 0, 37, 80
2, 3588, Note_on_c, 0, 49, 80
2, 3610, Note_on_c, 0, 80, 0
2, 3688, Note_on_c, 0, 49, 0
2, 3688, Note_on_c, 0, 37, 0
2, 3695, Note_on_c, 0, 42, 80
2, 3695, Note_on_c, 0, 54, 80
2, 3745, Note_on_c, 0, 70, 80
2, 3769, Note_on_c, 0, 54, 0
2, 3796, Note_on_c, 0, 42, 0
2, 3798, Note_on_c, 0, 70, 0
2, 3800, Note_on_c, 0, 61, 80
2, 3800, Note_on_c, 0, 66, 80
2, 3802, Note_on_c, 0, 54, 80
2, 3802, Note_on_c, 0, 58, 80
2, 3804, Note_on_c, 0, 73, 80
2, 3819, Note_on_c, 0, 58, 0
2, 3819, Note_on_c, 0, 61, 0
2, 3843, Note_on_c, 0, 54, 0
2, 3848, Note_on_c, 0, 66, 0
2, 3848, Note_on_c, 0, 73, 0
2, 3855, Note_on_c, 0, 70, 80
2, 3908, Note_on_c, 0, 70, 0
2, 3910, Note_on_c, 0, 49, 80
2, 3910, Note_on_c, 0, 54, 80
2, 3910, Note_on_c, 0, 58, 80
2, 3912, Note_on_c, 0, 68, 80
2, 3932, Note_on_c, 0, 54, 0
2, 3932, Note_on_c, 0, 49, 0
2, 3960, Note_on_c, 0, 58, 0
2, 3960, Note_on_c, 0, 68, 0
2, 3967, Note_on_c, 0, 66, 80
2, 4016, Note_on_c, 0, 66, 0
2, 4021, Note_on_c, 0, 43, 80
2, 4023, Note_on_c, 0, 58, 80
2, 4023, Note_on_c, 0, 63, 80
2, 4072, Note_on_c, 0, 63, 0
2, 4074, Note_on_c, 0, 64, 80
2, 4123, Note_on_c, 0, 43, 0
2, 4125, Note_on_c, 0, 64, 0
2, 4125, Note_on_c, 0, 58, 0
2, 4129, Note_on_c, 0, 44, 80
2, 4129, Note_on_c, 0, 59, 80
2, 4131, Note_on_c, 0, 65, 80
2, 4180, Note_on_c, 0, 65, 0
2, 4180, Note_on_c, 0, 59, 0
2, 4182, Note_on_c, 0, 63, 80
2, 4187, Note_on_c, 0, 71, 80
2, 4187, Note_on_c, 0, 75, 80
2, 4204, Note_on_c, 0, 44, 0
2, 4233, Note_on_c, 0, 71, 0
2, 4238, Note_on_c, 0, 53, 80
2, 4238, Note_on_c, 0, 59, 80
2, 4238, Note_on_c, 0, 61, 80
2, 4258, Note_on_c, 0, 61, 0
2, 4258, Note_on_c, 0, 53, 0
2, 4258, Note_on_c, 0, 59, 0
2, 4285, Note_on_c, 0, 63, 0
2, 4285, Note_on_c, 0, 75, 0
2, 4292, Note_on_c, 0, 61, 80
2, 4292, Note_on_c, 0, 65, 80
2, 4292, Note_on_c, 0, 71, 80
2, 4292, Note_on_c, 0, 73, 80
2, 4344, Note_on_c, 0, 53, 80
2, 4349, Note_on_c, 0, 59, 80
2, 4351, Note_on_c, 0, 49, 80
2, 4367, Note_on_c, 0, 49, 0
2, 4393, Note_on_c, 0, 53, 0
2, 4395, Note_on_c, 0, 65, 0
2, 4395, Note_on_c, 0, 71, 0
2, 4395, Note_on_c, 0, 59, 0
2, 4417, Note_on_c, 0, 61, 0
2, 4446, Note_on_c, 0, 73, 0
2, 4448, Note_on_c, 0, 37, 80
2, 4450, Note_on_c, 0, 49, 80
2, 4518, Note_on_c, 0, 37, 0
2, 4549, Note_on_c, 0, 49, 0
2, 4551, Control_c, 0, 64, 127
2, 4551, Note_on_c, 0, 42, 80
2, 4553, Note_on_c, 0, 54, 80
2, 4610, Note_on_c, 0, 70, 80
2, 4610, Note_on_c, 0, 82, 80
2, 4628, Note_on_c, 0, 42, 0
2, 4650, Note_on_c, 0, 54, 0
2, 4652, Note_on_c, 0, 70, 0
2, 4652, Note_on_c, 0, 82, 0
2, 4658, Note_on_c, 0, 58, 80
2, 4658, Note_on_c, 0, 61, 80
2, 4658, Note_on_c, 0, 66, 80
2, 4658, Note_on_c, 0, 73, 80
2, 4658, Note_on_c, 0, 78, 80
2, 4658, Note_on_c, 0, 85, 80
2, 4676, Note_on_c, 0, 61, 0
2, 4676, Note_on_c, 0, 58, 0
2, 4678, Note_on_c, 0, 66, 0
2, 4702, Note_on_c, 0, 73, 0
2, 4702, Note_on_c, 0, 78, 0
2, 4710, Note_on_c, 0, 70, 80
2, 4710, Note_on_c, 0, 82, 80
2, 4734, Note_on_c, 0, 85, 0
2, 4758, Note_on_c, 0, 61, 80
2, 4763, Note_on_c, 0, 54, 80
2, 4763, Note_on_c, 0, 58, 80
2, 4765, Note_on_c, 0, 80, 80
2, 4770, Note_on_c, 0, 68, 80
2, 4781, Note_on_c, 0, 58, 0
2, 4781, Note_on_c, 0, 54, 0
2, 4781, Note_on_c, 0, 61, 0
2, 4783, Note_on_c, 0, 70, 0
2, 4783, Note_on_c, 0, 82, 0
2, 4783, Control_c, 0, 64, 0
2, 4810, Note_on_c, 0, 80, 0
2, 4817, Note_on_c, 0, 66, 80
2, 4817, Note_on_c, 0, 78, 80
2, 4839, Note_on_c, 0, 68, 0
2, 4861, Note_on_c, 0, 66, 0
2, 4872, Note_on_c, 0, 43, 80
2, 4872, Note_on_c, 0, 63, 80
2, 4874, Note_on_c, 0, 75, 80
2, 4876, Note_on_c, 0, 55, 80
2, 4892, Note_on_c, 0, 78, 0
2, 4919, Note_on_c, 0, 64, 80
2, 4923, Note_on_c, 0, 76, 80
2, 4941, Note_on_c, 0, 55, 0
2, 4943, Note_on_c, 0, 63, 0
2, 4944, Note_on_c, 0, 41, 80
2, 4946, Note_on_c, 0, 75, 0
2, 4967, Note_on_c, 0, 43, 0
2, 4973, Note_on_c, 0, 56, 80
2, 4975, Note_on_c, 0, 65, 80
2, 4975, Note_on_c, 0, 77, 80
2, 4992, Note_on_c, 0, 64, 0
2, 4994, Note_on_c, 0, 76, 0
2, 5021, Note_on_c, 0, 56, 0
2, 5023, Note_on_c, 0, 65, 0
2, 5025, Note_on_c, 0, 75, 80
2, 5025, Note_on_c, 0, 83, 80
2, 5030, Note_on_c, 0, 87, 80
2, 5074, Note_on_c, 0, 41, 0
2, 5076, Note_on_c, 0, 83, 0
2, 5076, Note_on_c, 0, 77, 0
2, 5076, Note_on_c, 0, 75, 0
2, 5076, Note_on_c, 0, 87, 0
2, 5076, Note_on_c, 0, 56, 80
2, 5078, Note_on_c, 0, 61, 80
2, 5078, Note_on_c, 0, 65, 80
2, 5083, Note_on_c, 0, 59, 80
2, 5100, Note_on_c, 0, 59, 0
2, 5100, Note_on_c, 0, 65, 0
2, 5124, Note_on_c, 0, 61, 0
2, 5124, Note_on_c, 0, 56, 0
2, 5133, Note_on_c, 0, 73, 80
2, 5133, Note_on_c, 0, 77, 80
2, 5133, Note_on_c, 0, 83, 80
2, 5133, Note_on_c, 0, 85, 80
2, 5179, Note_on_c, 0, 85, 0
2, 5179, Note_on_c, 0, 73, 0
2, 5179, Note_on_c, 0, 77, 0
2, 5181, Note_on_c, 0, 83, 0
2, 5181, Note_on_c, 0, 53, 80
2, 5181, Note_on_c, 0, 56, 80
2, 5181, Note_on_c, 0, 61, 80
2, 5183, Note_on_c, 0, 59, 80
2, 5200, Note_on_c, 0, 53, 0
2, 5202, Note_on_c, 0, 61, 0
2, 5226, Note_on_c, 0, 59, 0
2, 5231, Note_on_c, 0, 56, 0
2, 5237, Note_on_c, 0, 73, 80
2, 5239, Note_on_c, 0, 77, 80
2, 5241, Note_on_c, 0, 83, 80
2, 5241, Note_on_c, 0, 85, 80
2, 5285, Note_on_c, 0, 85, 0
2, 5285, Note_on_c, 0, 73, 0
2, 5285, Note_on_c, 0, 77, 0
2, 5285, Note_on_c, 0, 83, 0
2, 5292, Note_on_c, 0, 75, 80
2, 5292, Note_on_c, 0, 87, 80
2, 5341, Note_on_c, 0, 87, 0
2, 5341, Note_on_c, 0, 75, 0
2, 5346, Note_on_c, 0, 89, 80
2, 5348, Note_on_c, 0, 77, 80
2, 5392, Control_c, 0, 64, 127
2, 5394, Note_on_c, 0, 77, 0
2, 5394, Note_on_c, 0, 89, 0
2, 5396, Note_on_c, 0, 63, 80
2, 5396, Note_on_c, 0, 66, 80
2, 5396, Note_on_c, 0, 71, 80
2, 5396, Note_on_c, 0, 78, 80
2, 5396, Note_on_c, 0, 90, 80
2, 5400, Note_on_c, 0, 87, 80
2, 5447, Note_on_c, 0, 87, 0
2, 5447, Note_on_c, 0, 66, 0
2, 5447, Note_on_c, 0, 71, 0
2, 5447, Note_on_c, 0, 63, 0
2, 5447, Note_on_c, 0, 90, 0
2, 5447, Note_on_c, 0, 78, 0
2, 5451, Note_on_c, 0, 83, 80
2, 5502, Note_on_c, 0, 83, 0
2, 5502, Note_on_c, 0, 71, 80
2, 5504, Note_on_c, 0, 59, 80
2, 5504, Note_on_c, 0, 63, 80
2, 5504, Note_on_c, 0, 66, 80
2, 5504, Note_on_c, 0, 75, 80
2, 5506, Note_on_c, 0, 87, 80
2, 5545, Note_on_c, 0, 75, 0
2, 5552, Note_on_c, 0, 59, 0
2, 5552, Note_on_c, 0, 63, 0
2, 5552, Note_on_c, 0, 71, 0
2, 5552, Note_on_c, 0, 87, 0
2, 5552, Note_on_c, 0, 66, 0
2, 5554, Note_on_c, 0, 77, 80
2, 5554, Note_on_c, 0, 89, 80
2, 5605, Note_on_c, 0, 59, 80
2, 5605, Note_on_c, 0, 63, 80
2, 5605, Note_on_c, 0, 68, 80
2, 5651, Note_on_c, 0, 63, 0
2, 5651, Note_on_c, 0, 89, 0
2, 5653, Note_on_c, 0, 77, 0
2, 5653, Note_on_c, 0, 59, 0
2, 5653, Note_on_c, 0, 68, 0
2, 5658, Note_on_c, 0, 71, 80
2, 5660, Note_on_c, 0, 83, 80
2, 5702, Note_on_c, 0, 71, 0
2, 5704, Note_on_c, 0, 75, 80
2, 5706, Note_on_c, 0, 57, 80
2, 5706, Note_on_c, 0, 66, 80
2, 5708, Note_on_c, 0, 83, 0
2, 5708, Note_on_c, 0, 60, 80
2, 5710, Note_on_c, 0, 87, 80
2, 5749, Note_on_c, 0, 60, 0
2, 5751, Note_on_c, 0, 75, 0
2, 5751, Note_on_c, 0, 66, 0
2, 5751, Note_on_c, 0, 87, 0
2, 5751, Control_c, 0, 64, 0
2, 5753, Note_on_c, 0, 69, 80
2, 5758, Note_on_c, 0, 81, 80
2, 5775, Note_on_c, 0, 57, 0
2, 5802, Note_on_c, 0, 81, 0
2, 5802, Note_on_c, 0, 69, 0
2, 5804, Note_on_c, 0, 66, 80
2, 5808, Note_on_c, 0, 58, 80
2, 5808, Note_on_c, 0, 61, 80
2, 5808, Note_on_c, 0, 70, 80
2, 5808, Note_on_c, 0, 73, 80
2, 5808, Note_on_c, 0, 78, 80
2, 5808, Note_on_c, 0, 85, 80
2, 5853, Note_on_c, 0, 78, 0
2, 5853, Note_on_c, 0, 61, 0
2, 5853, Note_on_c, 0, 58, 0
2, 5853, Note_on_c, 0, 73, 0
2, 5857, Note_on_c, 0, 66, 0
2, 5857, Note_on_c, 0, 70, 0
2, 5859, Note_on_c, 0, 85, 0
2, 5859, Note_on_c, 0, 82, 80
2, 5908, Note_on_c, 0, 82, 0
2, 5910, Note_on_c, 0, 57, 80
2, 5910, Note_on_c, 0, 60, 80
2, 5910, Note_on_c, 0, 66, 80
2, 5910, Note_on_c, 0, 75, 80
2, 5912, Note_on_c, 0, 69, 80
2, 5914, Note_on_c, 0, 87, 80
2, 5956, Note_on_c, 0, 60, 0
2, 5956, Note_on_c, 0, 57, 0
2, 5958, Note_on_c, 0, 69, 0
2, 5958, Note_on_c, 0, 75, 0
2, 5958, Note_on_c, 0, 87, 0
2, 5958, Note_on_c, 0, 66, 0
2, 5960, Note_on_c, 0, 73, 80
2, 5965, Note_on_c, 0, 78, 80
2, 5965, Note_on_c, 0, 82, 80
2, 5965, Note_on_c, 0, 85, 80
2, 6009, Note_on_c, 0, 82, 0
2, 6014, Note_on_c, 0, 61, 80
2, 6016, Note_on_c, 0, 66, 80
2, 6021, Note_on_c, 0, 58, 80
2, 6058, Note_on_c, 0, 73, 0
2, 6063, Note_on_c, 0, 61, 0
2, 6063, Note_on_c, 0, 58, 0
2, 6063, Note_on_c, 0, 82, 80
2, 6065, Note_on_c, 0, 85, 0
2, 6065, Note_on_c, 0, 78, 0
2, 6065, Note_on_c, 0, 66, 0
2, 6067, Note_on_c, 0, 70, 80
2, 6084, Note_on_c, 0, 40, 80
2, 6108, Note_on_c, 0, 70, 0
2, 6108, Note_on_c, 0, 82, 0
2, 6110, Note_on_c, 0, 55, 80
2, 6112, Note_on_c, 0, 67, 80
2, 6117, Note_on_c, 0, 79, 80
2, 6159, Note_on_c, 0, 79, 0
2, 6159, Note_on_c, 0, 67, 0
2, 6168, Note_on_c, 0, 63, 80
2, 6168, Note_on_c, 0, 75, 80
2, 6185, Note_on_c, 0, 40, 0
2, 6209, Note_on_c, 0, 63, 0
2, 6214, Note_on_c, 0, 55, 0
2, 6214, Note_on_c, 0, 75, 0
2, 6214, Note_on_c, 0, 44, 80
2, 6216, Note_on_c, 0, 56, 80
2, 6216, Note_on_c, 0, 71, 80
2, 6216, Note_on_c, 0, 80, 80
2, 6216, Note_on_c, 0, 83, 80
2, 6266, Note_on_c, 0, 56, 0
2, 6275, Note_on_c, 0, 75, 80
2, 6314, Note_on_c, 0, 44, 0
2, 6319, Note_on_c, 0, 75, 0
2, 6324, Note_on_c, 0, 56, 80
2, 6326, Note_on_c, 0, 59, 80
2, 6326, Note_on_c, 0, 63, 80
2, 6326, Note_on_c, 0, 74, 80
2, 6341, Note_on_c, 0, 56, 0
2, 6343, Note_on_c, 0, 59, 0
2, 6343, Note_on_c, 0, 63, 0
2, 6377, Note_on_c, 0, 80, 0
2, 6377, Note_on_c, 0, 83, 0
2, 6377, Note_on_c, 0, 71, 0
2, 6377, Note_on_c, 0, 74, 0
2, 6379, Note_on_c, 0, 73, 80
2, 6379, Note_on_c, 0, 82, 80
2, 6384, Note_on_c, 0, 70, 80
2, 6384, Note_on_c, 0, 77, 80
2, 6430, Note_on_c, 0, 37, 80
2, 6430, Note_on_c, 0, 49, 80
2, 6479, Note_on_c, 0, 77, 0
2, 6479, Note_on_c, 0, 73, 0
2, 6480, Note_on_c, 0, 70, 0
2, 6485, Note_on_c, 0, 72, 80
2, 6501, Note_on_c, 0, 49, 0
2, 6528, Note_on_c, 0, 37, 0
2, 6529, Note_on_c, 0, 72, 0
2, 6536, Note_on_c, 0, 82, 0
2, 6536, Note_on_c, 0, 56, 80
2, 6536, Note_on_c, 0, 61, 80
2, 6536, Note_on_c, 0, 71, 80
2, 6538, Note_on_c, 0, 59, 80
2, 6538, Note_on_c, 0, 65, 80
2, 6538, Note_on_c, 0, 68, 80
2, 6538, Note_on_c, 0, 77, 80
2, 6543, Note_on_c, 0, 80, 80
2, 6636, Note_on_c, 0, 56, 0
2, 6638, Note_on_c, 0, 61, 0
2, 6640, Note_on_c, 0, 68, 0
2, 6640, Note_on_c, 0, 80, 0
2, 6640, Note_on_c, 0, 65, 0
2, 6640, Note_on_c, 0, 77, 0
2, 6642, Note_on_c, 0, 66, 80
2, 6644, Note_on_c, 0, 59, 0
2, 6644, Note_on_c, 0, 71, 0
2, 6644, Note_on_c, 0, 42, 80
2, 6644, Note_on_c, 0, 49, 80
2, 6646, Note_on_c, 0, 58, 80
2, 6646, Note_on_c, 0, 70, 80
2, 6646, Note_on_c, 0, 78, 80
2, 6648, Note_on_c, 0, 73, 80
2, 6690, Note_on_c, 0, 49, 0
2, 6741, Note_on_c, 0, 42, 0
2, 6747, Note_on_c, 0, 58, 0
2, 6747, Note_on_c, 0, 37, 80
2, 6756, Note_on_c, 0, 49, 80
2, 6795, Note_on_c, 0, 37, 0
2, 6797, Note_on_c, 0, 49, 0
2, 6857, Note_on_c, 0, 78, 0
2, 6857, Note_on_c, 0, 66, 0
2, 6857, Note_on_c, 0, 73, 0
2, 6857, Note_on_c, 0, 70, 0
2, 6862, Note_on_c, 0, 30, 80
2, 6862, Note_on_c, 0, 42, 80
2, 6933, Note_on_c, 0, 42, 0
2, 6960, Note_on_c, 0, 30, 0
2, 6968, Note_on_c, 0, 37, 80
2, 6968, Note_on_c, 0, 49, 80
2, 7072, Note_on_c, 0, 49, 0
2, 7074, Note_on_c, 0, 42, 80
2, 7076, Note_on_c, 0, 54, 80
2, 7096, Note_on_c, 0, 37, 0
2, 7131, Note_on_c, 0, 70, 80
2, 7152, Note_on_c, 0, 54, 0
2, 7174, Note_on_c, 0, 42, 0
2, 7180, Note_on_c, 0, 70, 0
2, 7180, Note_on_c, 0, 54, 80
2, 7180, Note_on_c, 0, 61, 80
2, 7182, Note_on_c, 0, 58, 80
2, 7182, Note_on_c, 0, 66, 80
2, 7182, Note_on_c, 0, 73, 80
2, 7204, Note_on_c, 0, 58, 0
2, 7204, Note_on_c, 0, 61, 0
2, 7228, Note_on_c, 0, 54, 0
2, 7230, Note_on_c, 0, 66, 0
2, 7232, Note_on_c, 0, 70, 80
2, 7281, Note_on_c, 0, 70, 0
2, 7281, Note_on_c, 0, 54, 80
2, 7281, Note_on_c, 0, 58, 80
2, 7283, Note_on_c, 0, 68, 80
2, 7285, Note_on_c, 0, 49, 80
2, 7305, Note_on_c, 0, 49, 0
2, 7305, Note_on_c, 0, 54, 0
2, 7332, Note_on_c, 0, 73, 0
2, 7332, Note_on_c, 0, 58, 0
2, 7334, Note_on_c, 0, 66, 80
2, 7385, Note_on_c, 0, 66, 0
2, 7390, Note_on_c, 0, 43, 80
2, 7392, Note_on_c, 0, 58, 80
2, 7392, Note_on_c, 0, 63, 80
2, 7414, Note_on_c, 0, 68, 0
2, 7440, Note_on_c, 0, 63, 0
2, 7442, Note_on_c, 0, 64, 80
2, 7488, Note_on_c, 0, 58, 0
2, 7488, Note_on_c, 0, 43, 0
2, 7490, Note_on_c, 0, 64, 0
2, 7495, Note_on_c, 0, 44, 80
2, 7497, Note_on_c, 0, 59, 80
2, 7499, Note_on_c, 0, 65, 80
2, 7545, Note_on_c, 0, 65, 0
2, 7545, Note_on_c, 0, 59, 0
2, 7547, Note_on_c, 0, 63, 80
2, 7547, Note_on_c, 0, 71, 80
2, 7547, Note_on_c, 0, 75, 80
2, 7569, Note_on_c, 0, 44, 0
2, 7600, Note_on_c, 0, 53, 80
2, 7600, Note_on_c, 0, 59, 80
2, 7600, Note_on_c, 0, 61, 80
2, 7622, Note_on_c, 0, 61, 0
2, 7622, Note_on_c, 0, 53, 0
2, 7622, Note_on_c, 0, 71, 0
2, 7622, Note_on_c, 0, 59, 0
2, 7651, Note_on_c, 0, 75, 0
2, 7651, Note_on_c, 0, 63, 0
2, 7653, Note_on_c, 0, 61, 80
2, 7653, Note_on_c, 0, 65, 80
2, 7653, Note_on_c, 0, 71, 80
2, 7653, Note_on_c, 0, 73, 80
2, 7705, Note_on_c, 0, 49, 80
2, 7707, Note_on_c, 0, 53, 80
2, 7707, Note_on_c, 0, 59, 80
2, 7725, Note_on_c, 0, 49, 0
2, 7749, Note_on_c, 0, 53, 0
2, 7755, Note_on_c, 0, 65, 0
2, 7755, Note_on_c, 0, 71, 0
2, 7755, Note_on_c, 0, 59, 0
2, 7782, Note_on_c, 0, 61, 0
2, 7804, Note_on_c, 0, 37, 80
2, 7806, Note_on_c, 0, 73, 0
2, 7806, Note_on_c, 0, 49, 80
2, 7881, Note_on_c, 0, 37, 0
2, 7910, Note_on_c, 0, 49, 0
2, 7910, Note_on_c, 0, 42, 80
2, 7910, Note_on_c, 0, 54, 80
2, 7968, Note_on_c, 0, 70, 80
2, 7969, Note_on_c, 0, 82, 80
2, 7987, Note_on_c, 0, 42, 0
2, 8016, Note_on_c, 0, 54, 0
2, 8017, Note_on_c, 0, 70, 0
2, 8017, Note_on_c, 0, 82, 0
2, 8019, Note_on_c, 0, 58, 80
2, 8019, Note_on_c, 0, 61, 80
2, 8019, Note_on_c, 0, 66, 80
2, 8019, Note_on_c, 0, 73, 80
2, 8019, Note_on_c, 0, 78, 80
2, 8019, Note_on_c, 0, 85, 80
2, 8037, Note_on_c, 0, 58, 0
2, 8039, Note_on_c, 0, 66, 0
2, 8040, Note_on_c, 0, 61, 0
2, 8067, Note_on_c, 0, 73, 0
2, 8069, Note_on_c, 0, 78, 0
2, 8069, Note_on_c, 0, 70, 80
2, 8069, Note_on_c, 0, 82, 80
2, 8093, Note_on_c, 0, 85, 0
2, 8117, Note_on_c, 0, 54, 80
2, 8119, Note_on_c, 0, 61, 80
2, 8121, Note_on_c, 0, 68, 80
2, 8121, Note_on_c, 0, 80, 80
2, 8123, Note_on_c, 0, 58, 80
2, 8140, Note_on_c, 0, 58, 0
2, 8140, Note_on_c, 0, 54, 0
2, 8140, Note_on_c, 0, 61, 0
2, 8142, Note_on_c, 0, 82, 0
2, 8142, Note_on_c, 0, 70, 0
2, 8171, Note_on_c, 0, 78, 80
2, 8173, Note_on_c, 0, 66, 80
2, 8197, Note_on_c, 0, 80, 0
2, 8197, Note_on_c, 0, 68, 0
2, 8224, Note_on_c, 0, 66, 0
2, 8224, Note_on_c, 0, 43, 80
2, 8224, Note_on_c, 0, 55, 80
2, 8224, Note_on_c, 0, 63, 80
2, 8224, Note_on_c, 0, 75, 80
2, 8248, Note_on_c, 0, 78, 0
2, 8275, Note_on_c, 0, 64, 80
2, 8277, Note_on_c, 0, 76, 80
2, 8290, Note_on_c, 0, 41, 80
2, 8295, Note_on_c, 0, 63, 0
2, 8295, Note_on_c, 0, 55, 0
2, 8297, Note_on_c, 0, 75, 0
2, 8317, Note_on_c, 0, 43, 0
2, 8319, Note_on_c, 0, 56, 80
2, 8319, Note_on_c, 0, 65, 80
2, 8321, Note_on_c, 0, 77, 80
2, 8343, Note_on_c, 0, 64, 0
2, 8343, Note_on_c, 0, 76, 0
2, 8365, Note_on_c, 0, 56, 0
2, 8367, Note_on_c, 0, 65, 0
2, 8374, Note_on_c, 0, 75, 80
2, 8374, Note_on_c, 0, 83, 80
2, 8374, Note_on_c, 0, 87, 80
2, 8416, Note_on_c, 0, 41, 0
2, 8418, Note_on_c, 0, 75, 0
2, 8420, Note_on_c, 0, 77, 0
2, 8420, Note_on_c, 0, 83, 0
2, 8424, Note_on_c, 0, 87, 0
2, 8424, Note_on_c, 0, 56, 80
2, 8424, Note_on_c, 0, 59, 80
2, 8424, Note_on_c, 0, 61, 80
2, 8426, Note_on_c, 0, 65, 80
2, 8442, Note_on_c, 0, 65, 0
2, 8442, Note_on_c, 0, 59, 0
2, 8471, Note_on_c, 0, 61, 0
2, 8471, Note_on_c, 0, 56, 0
2, 8475, Note_on_c, 0, 73, 80
2, 8475, Note_on_c, 0, 77, 80
2, 8475, Note_on_c, 0, 83, 80
2, 8475, Note_on_c, 0, 85, 80
2, 8521, Note_on_c, 0, 85, 0
2, 8521, Note_on_c, 0, 73, 0
2, 8521, Note_on_c, 0, 77, 0
2, 8521, Note_on_c, 0, 83, 0
2, 8521, Note_on_c, 0, 61, 80
2, 8526, Note_on_c, 0, 53, 80
2, 8526, Note_on_c, 0, 56, 80
2, 8531, Note_on_c, 0, 59, 80
2, 8544, Note_on_c, 0, 53, 0
2, 8546, Note_on_c, 0, 61, 0
2, 8570, Note_on_c, 0, 56, 0
2, 8572, Note_on_c, 0, 59, 0
2, 8579, Note_on_c, 0, 73, 80
2, 8579, Note_on_c, 0, 77, 80
2, 8579, Note_on_c, 0, 83, 80
2, 8579, Note_on_c, 0, 85, 80
2, 8625, Note_on_c, 0, 83, 0
2, 8625, Note_on_c, 0, 73, 0
2, 8625, Note_on_c, 0, 77, 0
2, 8627, Note_on_c, 0, 85, 0
2, 8627, Note_on_c, 0, 75, 80
2, 8634, Note_on_c, 0, 87, 80
2, 8678, Note_on_c, 0, 87, 0
2, 8678, Note_on_c, 0, 75, 0
2, 8680, Note_on_c, 0, 89, 80
2, 8685, Note_on_c, 0, 77, 80
2, 8729, Note_on_c, 0, 77, 0
2, 8729, Note_on_c, 0, 89, 0
2, 8731, Note_on_c, 0, 71, 80
2, 8733, Note_on_c, 0, 66, 80
2, 8733, Note_on_c, 0, 90, 80
2, 8735, Note_on_c, 0, 63, 80
2, 8735, Note_on_c, 0, 78, 80
2, 8735, Note_on_c, 0, 87, 80
2, 8779, Note_on_c, 0, 63, 0
2, 8779, Note_on_c, 0, 66, 0
2, 8784, Note_on_c, 0, 78, 0
2, 8784, Note_on_c, 0, 71, 0
2, 8784, Note_on_c, 0, 87, 0
2, 8784, Note_on_c, 0, 90, 0
2, 8785, Note_on_c, 0, 83, 80
2, 8836, Note_on_c, 0, 83, 0
2, 8836, Note_on_c, 0, 66, 80
2, 8836, Note_on_c, 0, 71, 80
2, 8836, Note_on_c, 0, 75, 80
2, 8838, Note_on_c, 0, 59, 80
2, 8838, Note_on_c, 0, 63, 80
2, 8843, Note_on_c, 0, 87, 80
2, 8882, Note_on_c, 0, 87, 0
2, 8884, Note_on_c, 0, 71, 0
2, 8884, Note_on_c, 0, 75, 0
2, 8884, Note_on_c, 0, 66, 0
2, 8884, Note_on_c, 0, 63, 0
2, 8884, Note_on_c, 0, 59, 0
2, 8886, Note_on_c, 0, 89, 80
2, 8891, Note_on_c, 0, 77, 80
2, 8944, Note_on_c, 0, 59, 80
2, 8944, Note_on_c, 0, 63, 80
2, 8944, Note_on_c, 0, 68, 80
2, 8993, Note_on_c, 0, 68, 0
2, 8993, Note_on_c, 0, 59, 0
2, 8993, Note_on_c, 0, 89, 0
2, 8993, Note_on_c, 0, 77, 0
2, 8993, Note_on_c, 0, 63, 0
2, 8993, Note_on_c, 0, 71, 80
2, 9000, Note_on_c, 0, 83, 80
2, 9044, Note_on_c, 0, 83, 0
2, 9044, Note_on_c, 0, 71, 0
2, 9050, Note_on_c, 0, 57, 80
2, 9050, Note_on_c, 0, 60, 80
2, 9052, Note_on_c, 0, 66, 80
2, 9052, Note_on_c, 0, 75, 80
2, 9052, Note_on_c, 0, 87, 80
2, 9068, Note_on_c, 0, 57, 0
2, 9070, Note_on_c, 0, 66, 0
2, 9094, Note_on_c, 0, 60, 0
2, 9100, Note_on_c, 0, 87, 0
2, 9100, Note_on_c, 0, 75, 0
2, 9102, Note_on_c, 0, 69, 80
2, 9102, Note_on_c, 0, 81, 80
2, 9148, Note_on_c, 0, 69, 0
2, 9153, Note_on_c, 0, 81, 0
2, 9155, Note_on_c, 0, 61, 80
2, 9157, Note_on_c, 0, 58, 80
2, 9157, Note_on_c, 0, 66, 80
2, 9157, Note_on_c, 0, 70, 80
2, 9157, Note_on_c, 0, 73, 80
2, 9157, Note_on_c, 0, 78, 80
2, 9157, Note_on_c, 0, 85, 80
2, 9203, Note_on_c, 0, 73, 0
2, 9203, Note_on_c, 0, 70, 0
2, 9203, Note_on_c, 0, 61, 0
2, 9203, Note_on_c, 0, 58, 0
2, 9205, Note_on_c, 0, 78, 0
2, 9205, Note_on_c, 0, 85, 0
2, 9205, Note_on_c, 0, 66, 0
2, 9205, Note_on_c, 0, 82, 80
2, 9261, Note_on_c, 0, 82, 0
2, 9265, Note_on_c, 0, 60, 80
2, 9267, Note_on_c, 0, 57, 80
2, 9267, Note_on_c, 0, 66, 80
2, 9267, Note_on_c, 0, 69, 80
2, 9267, Note_on_c, 0, 75, 80
2, 9267, Note_on_c, 0, 87, 80
2, 9313, Note_on_c, 0, 69, 0
2, 9313, Note_on_c, 0, 57, 0
2, 9313, Note_on_c, 0, 60, 0
2, 9315, Note_on_c, 0, 66, 0
2, 9315, Note_on_c, 0, 87, 0
2, 9315, Note_on_c, 0, 75, 0
2, 9315, Note_on_c, 0, 73, 80
2, 9317, Note_on_c, 0, 78, 80
2, 9317, Note_on_c, 0, 82, 80
2, 9317, Note_on_c, 0, 85, 80
2, 9368, Note_on_c, 0, 82, 0
2, 9368, Note_on_c, 0, 66, 80
2, 9373, Note_on_c, 0, 58, 80
2, 9373, Note_on_c, 0, 61, 80
2, 9419, Note_on_c, 0, 61, 0
2, 9419, Note_on_c, 0, 58, 0
2, 9421, Note_on_c, 0, 73, 0
2, 9421, Note_on_c, 0, 66, 0
2, 9426, Note_on_c, 0, 78, 0
2, 9426, Note_on_c, 0, 85, 0
2, 9428, Note_on_c, 0, 70, 80
2, 9428, Note_on_c, 0, 82, 80
2, 9470, Note_on_c, 0, 82, 0
2, 9475, Note_on_c, 0, 70, 0
2, 9475, Note_on_c, 0, 40, 80
2, 9480, Note_on_c, 0, 55, 80
2, 9480, Note_on_c, 0, 67, 80
2, 9480, Note_on_c, 0, 79, 80
2, 9530, Note_on_c, 0, 67, 0
2, 9532, Note_on_c, 0, 79, 0
2, 9532, Note_on_c, 0, 63, 80
2, 9532, Note_on_c, 0, 75, 80
2, 9552, Note_on_c, 0, 40, 0
2, 9554, Note_on_c, 0, 39, 80
2, 9578, Note_on_c, 0, 55, 0
2, 9580, Note_on_c, 0, 63, 0
2, 9580, Note_on_c, 0, 54, 80
2, 9582, Note_on_c, 0, 70, 80
2, 9582, Note_on_c, 0, 78, 80
2, 9582, Note_on_c, 0, 82, 80
2, 9587, Note_on_c, 0, 72, 80
2, 9607, Note_on_c, 0, 72, 0
2, 9607, Note_on_c, 0, 78, 0
2, 9607, Note_on_c, 0, 70, 0
2, 9607, Note_on_c, 0, 75, 0
2, 9607, Note_on_c, 0, 82, 0
2, 9634, Note_on_c, 0, 78, 80
2, 9639, Note_on_c, 0, 69, 80
2, 9639, Note_on_c, 0, 72, 80
2, 9639, Note_on_c, 0, 75, 80
2, 9639, Note_on_c, 0, 81, 80
2, 9683, Note_on_c, 0, 39, 0
2, 9685, Note_on_c, 0, 72, 0
2, 9690, Note_on_c, 0, 78, 0
2, 9690, Note_on_c, 0, 75, 0
2, 9690, Note_on_c, 0, 56, 80
2, 9690, Note_on_c, 0, 60, 80
2, 9690, Note_on_c, 0, 66, 80
2, 9692, Note_on_c, 0, 63, 80
2, 9712, Note_on_c, 0, 54, 0
2, 9739, Note_on_c, 0, 60, 0
2, 9739, Note_on_c, 0, 56, 0
2, 9741, Note_on_c, 0, 66, 0
2, 9741, Note_on_c, 0, 69, 0
2, 9741, Note_on_c, 0, 63, 0
2, 9741, Note_on_c, 0, 81, 0
2, 9741, Note_on_c, 0, 72, 80
2, 9741, Note_on_c, 0, 80, 80
2, 9743, Note_on_c, 0, 68, 80
2, 9743, Note_on_c, 0, 75, 80
2, 9743, Note_on_c, 0, 78, 80
2, 9792, Note_on_c, 0, 51, 80
2, 9793, Note_on_c, 0, 39, 80
2, 9897, Note_on_c, 0, 40, 80
2, 9897, Note_on_c, 0, 52, 80
2, 9921, Note_on_c, 0, 39, 0
2, 9921, Note_on_c, 0, 51, 0
2, 9943, Note_on_c, 0, 40, 0
2, 9945, Note_on_c, 0, 78, 0
2, 9945, Note_on_c, 0, 80, 0
2, 9945, Note_on_c, 0, 68, 0
2, 9945, Note_on_c, 0, 52, 0
2, 9945, Note_on_c, 0, 75, 0
2, 9945, Note_on_c, 0, 72, 0
2, 10003, Note_on_c, 0, 41, 80
2, 10003, Note_on_c, 0, 53, 80
2, 10003, Note_on_c, 0, 80, 80
2, 10005, Note_on_c, 0, 75, 80
2, 10005, Note_on_c, 0, 83, 80
2, 10009, Note_on_c, 0, 87, 80
2, 10025, Note_on_c, 0, 87, 0
2, 10027, Note_on_c, 0, 75, 0
2, 10027, Note_on_c, 0, 80, 0
2, 10027, Note_on_c, 0, 83, 0
2, 10056, Note_on_c, 0, 80, 80
2, 10060, Note_on_c, 0, 74, 80
2, 10060, Note_on_c, 0, 77, 80
2, 10060, Note_on_c, 0, 83, 80
2, 10060, Note_on_c, 0, 86, 80
2, 10082, Note_on_c, 0, 53, 0
2, 10103, Note_on_c, 0, 41, 0
2, 10104, Note_on_c, 0, 80, 0
2, 10109, Note_on_c, 0, 77, 0
2, 10109, Note_on_c, 0, 83, 0
2, 10109, Note_on_c, 0, 49, 80
2, 10109, Note_on_c, 0, 53, 80
2, 10109, Note_on_c, 0, 56, 80
2, 10111, Note_on_c, 0, 59, 80
2, 10128, Note_on_c, 0, 53, 0
2, 10135, Note_on_c, 0, 59, 0
2, 10155, Note_on_c, 0, 49, 0
2, 10160, Note_on_c, 0, 56, 0
2, 10162, Note_on_c, 0, 74, 0
2, 10162, Note_on_c, 0, 86, 0
2, 10164, Note_on_c, 0, 73, 80
2, 10164, Note_on_c, 0, 77, 80
2, 10164, Note_on_c, 0, 80, 80
2, 10164, Note_on_c, 0, 85, 80
2, 10166, Note_on_c, 0, 83, 80
2, 10212, Note_on_c, 0, 56, 80
2, 10212, Note_on_c, 0, 61, 80
2, 10214, Note_on_c, 0, 59, 80
2, 10214, Note_on_c, 0, 65, 80
2, 10314, Note_on_c, 0, 65, 0
2, 10314, Note_on_c, 0, 85, 0
2, 10314, Note_on_c, 0, 73, 0
2, 10314, Note_on_c, 0, 83, 0
2, 10314, Note_on_c, 0, 77, 0
2, 10314, Note_on_c, 0, 80, 0
2, 10314, Note_on_c, 0, 61, 0
2, 10314, Note_on_c, 0, 56, 0
2, 10314, Note_on_c, 0, 59, 0
2, 10314, Note_on_c, 0, 37, 80
2, 10314, Note_on_c, 0, 49, 80
2, 10420, Note_on_c, 0, 49, 0
2, 10420, Note_on_c, 0, 37, 0
2, 10425, Note_on_c, 0, 42, 80
2, 10427, Note_on_c, 0, 54, 80
2, 10480, Note_on_c, 0, 70, 80
2, 10502, Note_on_c, 0, 54, 0
2, 10526, Note_on_c, 0, 42, 0
2, 10528, Note_on_c, 0, 70, 0
2, 10530, Note_on_c, 0, 54, 80
2, 10530, Note_on_c, 0, 58, 80
2, 10530, Note_on_c, 0, 61, 80
2, 10530, Note_on_c, 0, 66, 80
2, 10530, Note_on_c, 0, 73, 80
2, 10554, Note_on_c, 0, 61, 0
2, 10554, Note_on_c, 0, 58, 0
2, 10574, Note_on_c, 0, 54, 0
2, 10574, Note_on_c, 0, 66, 0
2, 10574, Note_on_c, 0, 73, 0
2, 10583, Note_on_c, 0, 70, 80
2, 10627, Note_on_c, 0, 70, 0
2, 10633, Note_on_c, 0, 49, 80
2, 10633, Note_on_c, 0, 54, 80
2, 10633, Note_on_c, 0, 58, 80
2, 10633, Note_on_c, 0, 68, 80
2, 10654, Note_on_c, 0, 54, 0
2, 10654, Note_on_c, 0, 49, 0
2, 10684, Note_on_c, 0, 58, 0
2, 10686, Note_on_c, 0, 68, 0
2, 10686, Note_on_c, 0, 66, 80
2, 10735, Note_on_c, 0, 66, 0
2, 10742, Note_on_c, 0, 43, 80
2, 10742, Note_on_c, 0, 58, 80
2, 10742, Note_on_c, 0, 63, 80
2, 10786, Note_on_c, 0, 63, 0
2, 10795, Note_on_c, 0, 64, 80
2, 10839, Note_on_c, 0, 64, 0
2, 10839, Note_on_c, 0, 58, 0
2, 10839, Note_on_c, 0, 43, 0
2, 10839, Note_on_c, 0, 44, 80
2, 10841, Note_on_c, 0, 65, 80
2, 10846, Note_on_c, 0, 59, 80
2, 10890, Note_on_c, 0, 59, 0
2, 10895, Note_on_c, 0, 65, 0
2, 10896, Note_on_c, 0, 63, 80
2, 10896, Note_on_c, 0, 71, 80
2, 10896, Note_on_c, 0, 75, 80
2, 10914, Note_on_c, 0, 44, 0
2, 10944, Note_on_c, 0, 71, 0
2, 10944, Note_on_c, 0, 53, 80
2, 10946, Note_on_c, 0, 59, 80
2, 10946, Note_on_c, 0, 61, 80
2, 10968, Note_on_c, 0, 61, 0
2, 10968, Note_on_c, 0, 53, 0
2, 10970, Note_on_c, 0, 59, 0
2, 10994, Note_on_c, 0, 63, 0
2, 10994, Note_on_c, 0, 75, 0
2, 10994, Note_on_c, 0, 71, 80
2, 10996, Note_on_c, 0, 61, 80
2, 10996, Note_on_c, 0, 65, 80
2, 10996, Note_on_c, 0, 73, 80
2, 11052, Note_on_c, 0, 53, 80
2, 11052, Note_on_c, 0, 59, 80
2, 11054, Note_on_c, 0, 49, 80
2, 11071, Note_on_c, 0, 49, 0
2, 11095, Note_on_c, 0, 53, 0
2, 11095, Note_on_c, 0, 71, 0
2, 11095, Note_on_c, 0, 59, 0
2, 11100, Note_on_c, 0, 65, 0
2, 11122, Note_on_c, 0, 61, 0
2, 11151, Note_on_c, 0, 73, 0
2, 11151, Note_on_c, 0, 37, 80
2, 11156, Note_on_c, 0, 49, 80
2, 11220, Note_on_c, 0, 37, 0
2, 11247, Note_on_c, 0, 49, 0
2, 11249, Control_c, 0, 64, 127
2, 11254, Note_on_c, 0, 42, 80
2, 11256, Note_on_c, 0, 54, 80
2, 11308, Note_on_c, 0, 82, 80
2, 11315, Note_on_c, 0, 70, 80
2, 11330, Note_on_c, 0, 42, 0
2, 11357, Note_on_c, 0, 54, 0
2, 11357, Note_on_c, 0, 82, 0
2, 11357, Note_on_c, 0, 70, 0
2, 11364, Note_on_c, 0, 58, 80
2, 11364, Note_on_c, 0, 61, 80
2, 11364, Note_on_c, 0, 66, 80
2, 11364, Note_on_c, 0, 73, 80
2, 11364, Note_on_c, 0, 78, 80
2, 11366, Note_on_c, 0, 85, 80
2, 11381, Note_on_c, 0, 61, 0
2, 11381, Note_on_c, 0, 58, 0
2, 11383, Note_on_c, 0, 66, 0
2, 11407, Note_on_c, 0, 73, 0
2, 11407, Note_on_c, 0, 78, 0
2, 11416, Note_on_c, 0, 70, 80
2, 11416, Note_on_c, 0, 82, 80
2, 11438, Note_on_c, 0, 85, 0
2, 11465, Note_on_c, 0, 61, 80
2, 11467, Note_on_c, 0, 54, 80
2, 11469, Note_on_c, 0, 58, 80
2, 11469, Note_on_c, 0, 68, 80
2, 11469, Note_on_c, 0, 80, 80
2, 11486, Note_on_c, 0, 58, 0
2, 11486, Note_on_c, 0, 54, 0
2, 11486, Note_on_c, 0, 61, 0
2, 11486, Note_on_c, 0, 70, 0
2, 11488, Note_on_c, 0, 82, 0
2, 11488, Control_c, 0, 64, 0
2, 11510, Note_on_c, 0, 80, 0
2, 11517, Note_on_c, 0, 66, 80
2, 11517, Note_on_c, 0, 78, 80
2, 11541, Note_on_c, 0, 68, 0
2, 11568, Note_on_c, 0, 66, 0
2, 11568, Note_on_c, 0, 43, 80
2, 11568, Note_on_c, 0, 55, 80
2, 11569, Note_on_c, 0, 63, 80
2, 11569, Note_on_c, 0, 75, 80
2, 11593, Note_on_c, 0, 78, 0
2, 11624, Note_on_c, 0, 64, 80
2, 11624, Note_on_c, 0, 76, 80
2, 11646, Note_on_c, 0, 63, 0
2, 11646, Note_on_c, 0, 75, 0
2, 11646, Note_on_c, 0, 55, 0
2, 11673, Note_on_c, 0, 43, 0
2, 11678, Note_on_c, 0, 41, 80
2, 11678, Note_on_c, 0, 56, 80
2, 11680, Note_on_c, 0, 65, 80
2, 11680, Note_on_c, 0, 77, 80
2, 11700, Note_on_c, 0, 64, 0
2, 11707, Note_on_c, 0, 76, 0
2, 11727, Note_on_c, 0, 65, 0
2, 11729, Note_on_c, 0, 56, 0
2, 11734, Note_on_c, 0, 75, 80
2, 11734, Note_on_c, 0, 83, 80
2, 11738, Note_on_c, 0, 87, 80
2, 11778, Note_on_c, 0, 41, 0
2, 11780, Note_on_c, 0, 83, 0
2, 11780, Note_on_c, 0, 77, 0
2, 11782, Note_on_c, 0, 87, 0
2, 11784, Note_on_c, 0, 75, 0
2, 11784, Note_on_c, 0, 59, 80
2, 11784, Note_on_c, 0, 61, 80
2, 11785, Note_on_c, 0, 65, 80
2, 11787, Note_on_c, 0, 56, 80
2, 11808, Note_on_c, 0, 65, 0
2, 11808, Note_on_c, 0, 59, 0
2, 11832, Note_on_c, 0, 61, 0
2, 11832, Note_on_c, 0, 56, 0
2, 11840, Note_on_c, 0, 73, 80
2, 11840, Note_on_c, 0, 77, 80
2, 11840, Note_on_c, 0, 83, 80
2, 11840, Note_on_c, 0, 85, 80
2, 11889, Note_on_c, 0, 85, 0
2, 11889, Note_on_c, 0, 73, 0
2, 11889, Note_on_c, 0, 77, 0
2, 11889, Note_on_c, 0, 83, 0
2, 11889, Note_on_c, 0, 59, 80
2, 11889, Note_on_c, 0, 61, 80
2, 11891, Note_on_c, 0, 53, 80
2, 11893, Note_on_c, 0, 56, 80
2, 11910, Note_on_c, 0, 53, 0
2, 11912, Note_on_c, 0, 61, 0
2, 11939, Note_on_c, 0, 56, 0
2, 11941, Note_on_c, 0, 59, 0
2, 11950, Note_on_c, 0, 73, 80
2, 11950, Note_on_c, 0, 83, 80
2, 11950, Note_on_c, 0, 85, 80
2, 11954, Note_on_c, 0, 77, 80
2, 11994, Note_on_c, 0, 73, 0
2, 11999, Note_on_c, 0, 83, 0
2, 11999, Note_on_c, 0, 85, 0
2, 11999, Note_on_c, 0, 77, 0
2, 12000, Note_on_c, 0, 75, 80
2, 12005, Note_on_c, 0, 87, 80
2, 12051, Note_on_c, 0, 87, 0
2, 12051, Note_on_c, 0, 75, 0
2, 12056, Note_on_c, 0, 89, 80
2, 12058, Note_on_c, 0, 77, 80
2, 12104, Note_on_c, 0, 77, 0
2, 12104, Note_on_c, 0, 89, 0
2, 12106, Control_c, 0, 64, 127
2, 12111, Note_on_c, 0, 66, 80
2, 12111, Note_on_c, 0, 71, 80
2, 12111, Note_on_c, 0, 78, 80
2, 12111, Note_on_c, 0, 87, 80
2, 12111, Note_on_c, 0, 90, 80
2, 12113, Note_on_c, 0, 63, 80
2, 12155, Note_on_c, 0, 71, 0
2, 12157, Note_on_c, 0, 90, 0
2, 12157, Note_on_c, 0, 87, 0
2, 12157, Note_on_c, 0, 66, 0
2, 12157, Note_on_c, 0, 63, 0
2, 12159, Note_on_c, 0, 78, 0
2, 12161, Note_on_c, 0, 83, 80
2, 12212, Note_on_c, 0, 83, 0
2, 12212, Note_on_c, 0, 71, 80
2, 12214, Note_on_c, 0, 59, 80
2, 12214, Note_on_c, 0, 63, 80
2, 12214, Note_on_c, 0, 66, 80
2, 12214, Note_on_c, 0, 75, 80
2, 12216, Note_on_c, 0, 87, 80
2, 12262, Note_on_c, 0, 87, 0
2, 12262, Note_on_c, 0, 59, 0
2, 12262, Note_on_c, 0, 63, 0
2, 12262, Note_on_c, 0, 71, 0
2, 12262, Note_on_c, 0, 75, 0
2, 12262, Note_on_c, 0, 66, 0
2, 12268, Note_on_c, 0, 77, 80
2, 12268, Note_on_c, 0, 89, 80
2, 12314, Note_on_c, 0, 59, 80
2, 12314, Note_on_c, 0, 63, 80
2, 12314, Note_on_c, 0, 68, 80
2, 12363, Note_on_c, 0, 68, 0
2, 12363, Note_on_c, 0, 59, 0
2, 12363, Note_on_c, 0, 77, 0
2, 12363, Note_on_c, 0, 89, 0
2, 12363, Note_on_c, 0, 63, 0
2, 12370, Note_on_c, 0, 71, 80
2, 12372, Note_on_c, 0, 83, 80
2, 12421, Note_on_c, 0, 71, 0
2, 12423, Note_on_c, 0, 83, 0
2, 12425, Note_on_c, 0, 66, 80
2, 12427, Note_on_c, 0, 57, 80
2, 12427, Note_on_c, 0, 60, 80
2, 12429, Note_on_c, 0, 75, 80
2, 12429, Note_on_c, 0, 87, 80
2, 12471, Note_on_c, 0, 75, 0
2, 12471, Note_on_c, 0, 60, 0
2, 12471, Note_on_c, 0, 66, 0
2, 12471, Control_c, 0, 64, 0
2, 12476, Note_on_c, 0, 87, 0
2, 12478, Note_on_c, 0, 69, 80
2, 12478, Note_on_c, 0, 81, 80
2, 12495, Note_on_c, 0, 57, 0
2, 12526, Note_on_c, 0, 81, 0
2, 12526, Note_on_c, 0, 69, 0
2, 12528, Note_on_c, 0, 61, 80
2, 12528, Note_on_c, 0, 66, 80
2, 12528, Note_on_c, 0, 70, 80
2, 12528, Note_on_c, 0, 73, 80
2, 12528, Note_on_c, 0, 78, 80
2, 12532, Note_on_c, 0, 58, 80
2, 12534, Note_on_c, 0, 85, 80
2, 12576, Note_on_c, 0, 58, 0
2, 12576, Note_on_c, 0, 70, 0
2, 12576, Note_on_c, 0, 61, 0
2, 12578, Note_on_c, 0, 73, 0
2, 12578, Note_on_c, 0, 66, 0
2, 12578, Note_on_c, 0, 85, 0
2, 12578, Note_on_c, 0, 78, 0
2, 12585, Note_on_c, 0, 82, 80
2, 12629, Note_on_c, 0, 82, 0
2, 12634, Note_on_c, 0, 57, 80
2, 12634, Note_on_c, 0, 60, 80
2, 12636, Note_on_c, 0, 66, 80
2, 12636, Note_on_c, 0, 69, 80
2, 12636, Note_on_c, 0, 75, 80
2, 12645, Note_on_c, 0, 87, 80
2, 12684, Note_on_c, 0, 87, 0
2, 12684, Note_on_c, 0, 60, 0
2, 12684, Note_on_c, 0, 66, 0
2, 12684, Note_on_c, 0, 57, 0
2, 12684, Note_on_c, 0, 75, 0
2, 12684, Note_on_c, 0, 69, 0
2, 12684, Note_on_c, 0, 73, 80
2, 12684, Note_on_c, 0, 85, 80
2, 12684, Note_on_c, 0, 78, 80
2, 12684, Note_on_c, 0, 82, 80
2, 12733, Note_on_c, 0, 82, 0
2, 12735, Note_on_c, 0, 61, 80
2, 12737, Note_on_c, 0, 58, 80
2, 12737, Note_on_c, 0, 66, 80
2, 12783, Note_on_c, 0, 66, 0
2, 12783, Note_on_c, 0, 85, 0
2, 12783, Note_on_c, 0, 73, 0
2, 12783, Note_on_c, 0, 78, 0
2, 12783, Note_on_c, 0, 58, 0
2, 12783, Note_on_c, 0, 61, 0
2, 12788, Note_on_c, 0, 82, 80
2, 12794, Note_on_c, 0, 70, 80
2, 12834, Note_on_c, 0, 70, 0
2, 12836, Note_on_c, 0, 82, 0
2, 12838, Note_on_c, 0, 40, 80
2, 12838, Note_on_c, 0, 55, 80
2, 12838, Note_on_c, 0, 67, 80
2, 12844, Note_on_c, 0, 79, 80
2, 12888, Note_on_c, 0, 67, 0
2, 12890, Note_on_c, 0, 79, 0
2, 12895, Note_on_c, 0, 63, 80
2, 12895, Note_on_c, 0, 75, 80
2, 12912, Note_on_c, 0, 40, 0
2, 12939, Note_on_c, 0, 63, 0
2, 12941, Note_on_c, 0, 55, 0
2, 12943, Note_on_c, 0, 75, 0
2, 12943, Note_on_c, 0, 44, 80
2, 12945, Note_on_c, 0, 71, 80
2, 12945, Note_on_c, 0, 83, 80
2, 12947, Note_on_c, 0, 56, 80
2, 12947, Note_on_c, 0, 80, 80
2, 12991, Note_on_c, 0, 56, 0
2, 13000, Note_on_c, 0, 75, 80
2, 13044, Note_on_c, 0, 44, 0
2, 13051, Note_on_c, 0, 75, 0
2, 13051, Note_on_c, 0, 56, 80
2, 13053, Note_on_c, 0, 59, 80
2, 13053, Note_on_c, 0, 63, 80
2, 13055, Note_on_c, 0, 74, 80
2, 13070, Note_on_c, 0, 56, 0
2, 13072, Note_on_c, 0, 59, 0
2, 13072, Note_on_c, 0, 63, 0
2, 13101, Note_on_c, 0, 71, 0
2, 13101, Note_on_c, 0, 80, 0
2, 13101, Note_on_c, 0, 83, 0
2, 13101, Note_on_c, 0, 74, 0
2, 13101, Note_on_c, 0, 70, 80
2, 13101, Note_on_c, 0, 73, 80
2, 13101, Note_on_c, 0, 82, 80
2, 13105, Note_on_c, 0, 77, 80
2, 13163, Note_on_c, 0, 49, 80
2, 13176, Note_on_c, 0, 37, 80
2, 13200, Note_on_c, 0, 77, 0
2, 13200, Note_on_c, 0, 73, 0
2, 13200, Note_on_c, 0, 70, 0
2, 13221, Note_on_c, 0, 72, 80
2, 13225, Note_on_c, 0, 49, 0
2, 13254, Note_on_c, 0, 37, 0
2, 13259, Note_on_c, 0, 72, 0
2, 13261, Note_on_c, 0, 82, 0
2, 13261, Note_on_c, 0, 56, 80
2, 13263, Note_on_c, 0, 61, 80
2, 13265, Note_on_c, 0, 59, 80
2, 13265, Note_on_c, 0, 65, 80
2, 13265, Note_on_c, 0, 68, 80
2, 13265, Note_on_c, 0, 71, 80
2, 13267, Note_on_c, 0, 77, 80
2, 13267, Note_on_c, 0, 80, 80
2, 13360, Note_on_c, 0, 71, 0
2, 13360, Note_on_c, 0, 56, 0
2, 13360, Note_on_c, 0, 59, 0
2, 13360, Note_on_c, 0, 61, 0
2, 13362, Note_on_c, 0, 65, 0
2, 13362, Note_on_c, 0, 77, 0
2, 13367, Note_on_c, 0, 80, 0
2, 13367, Note_on_c, 0, 68, 0
2, 13367, Note_on_c, 0, 42, 80
2, 13367, Note_on_c, 0, 49, 80
2, 13367, Note_on_c, 0, 58, 80
2, 13368, Note_on_c, 0, 66, 80
2, 13368, Note_on_c, 0, 70, 80
2, 13368, Note_on_c, 0, 73, 80
2, 13368, Note_on_c, 0, 78, 80
2, 13411, Note_on_c, 0, 49, 0
2, 13462, Note_on_c, 0, 42, 0
2, 13468, Note_on_c, 0, 58, 0
2, 13468, Note_on_c, 0, 37, 80
2, 13473, Note_on_c, 0, 49, 80
2, 13515, Note_on_c, 0, 37, 0
2, 13517, Note_on_c, 0, 49, 0
2, 13573, Note_on_c, 0, 70, 0
2, 13575, Note_on_c, 0, 66, 0
2, 13575, Note_on_c, 0, 73, 0
2, 13575, Note_on_c, 0, 78, 0
2, 13582, Note_on_c, 0, 42, 80
2, 13586, Note_on_c, 0, 30, 80
2, 13622, Note_on_c, 0, 30, 0
2, 13627, Note_on_c, 0, 42, 0
2, 13632, Note_on_c, 0, 61, 80
2, 13632, Note_on_c, 0, 73, 80
2, 13682, Note_on_c, 0, 61, 0
2, 13689, Note_on_c, 0, 66, 80
2, 13689, Note_on_c, 0, 78, 80
2, 13713, Note_on_c, 0, 73, 0
2, 13733, Note_on_c, 0, 66, 0
2, 13742, Note_on_c, 0, 82, 80
2, 13747, Note_on_c, 0, 70, 80
2, 13767, Note_on_c, 0, 78, 0
2, 13791, Note_on_c, 0, 70, 0
2, 13791, Note_on_c, 0, 82, 0
2, 13791, Note_on_c, 0, 39, 80
2, 13791, Note_on_c, 0, 51, 80
2, 13791, Note_on_c, 0, 78, 80
2, 13793, Control_c, 0, 64, 127
2, 13798, Note_on_c, 0, 75, 80
2, 13798, Note_on_c, 0, 87, 80
2, 13800, Note_on_c, 0, 81, 80
2, 13842, Note_on_c, 0, 81, 0
2, 13842, Note_on_c, 0, 75, 0
2, 13842, Note_on_c, 0, 78, 0
2, 13842, Note_on_c, 0, 87, 0
2, 13844, Note_on_c, 0, 73, 80
2, 13844, Note_on_c, 0, 76, 80
2, 13844, Note_on_c, 0, 79, 80
2, 13848, Note_on_c, 0, 85, 80
2, 13891, Note_on_c, 0, 40, 80
2, 13893, Note_on_c, 0, 52, 80
2, 13910, Note_on_c, 0, 39, 0
2, 13915, Note_on_c, 0, 51, 0
2, 13942, Note_on_c, 0, 76, 0
2, 13942, Note_on_c, 0, 79, 0
2, 13942, Note_on_c, 0, 85, 0
2, 13948, Note_on_c, 0, 71, 80
2, 13948, Note_on_c, 0, 77, 80
2, 13948, Note_on_c, 0, 80, 80
2, 13948, Note_on_c, 0, 83, 80
2, 13992, Note_on_c, 0, 52, 0
2, 13992, Note_on_c, 0, 40, 0
2, 13997, Note_on_c, 0, 73, 0
2, 13999, Note_on_c, 0, 41, 80
2, 13999, Note_on_c, 0, 53, 80
2, 14021, Control_c, 0, 64, 0
2, 14045, Note_on_c, 0, 83, 0
2, 14047, Note_on_c, 0, 77, 0
2, 14047, Note_on_c, 0, 80, 0
2, 14047, Note_on_c, 0, 71, 0
2, 14047, Note_on_c, 0, 53, 0
2, 14054, Note_on_c, 0, 61, 80
2, 14054, Note_on_c, 0, 73, 80
2, 14098, Note_on_c, 0, 41, 0
2, 14103, Note_on_c, 0, 61, 0
2, 14105, Note_on_c, 0, 73, 0
2, 14105, Note_on_c, 0, 49, 80
2, 14105, Note_on_c, 0, 56, 80
2, 14107, Note_on_c, 0, 53, 80
2, 14107, Note_on_c, 0, 59, 80
2, 14107, Note_on_c, 0, 63, 80
2, 14107, Note_on_c, 0, 75, 80
2, 14151, Note_on_c, 0, 49, 0
2, 14153, Note_on_c, 0, 56, 0
2, 14155, Note_on_c, 0, 59, 0
2, 14155, Note_on_c, 0, 53, 0
2, 14161, Note_on_c, 0, 77, 80
2, 14163, Note_on_c, 0, 65, 80
2, 14181, Note_on_c, 0, 75, 0
2, 14181, Note_on_c, 0, 63, 0
2, 14203, Note_on_c, 0, 77, 0
2, 14208, Note_on_c, 0, 65, 0
2, 14208, Note_on_c, 0, 37, 80
2, 14208, Note_on_c, 0, 49, 80
2, 14209, Note_on_c, 0, 73, 80
2, 14209, Note_on_c, 0, 82, 80
2, 14211, Note_on_c, 0, 70, 80
2, 14256, Note_on_c, 0, 70, 0
2, 14257, Note_on_c, 0, 73, 0
2, 14257, Note_on_c, 0, 82, 0
2, 14259, Note_on_c, 0, 78, 80
2, 14264, Note_on_c, 0, 69, 80
2, 14264, Note_on_c, 0, 75, 80
2, 14264, Note_on_c, 0, 81, 80
2, 14310, Note_on_c, 0, 36, 80
2, 14315, Note_on_c, 0, 48, 80
2, 14330, Note_on_c, 0, 37, 0
2, 14337, Note_on_c, 0, 49, 0
2, 14364, Note_on_c, 0, 69, 0
2, 14364, Note_on_c, 0, 78, 0
2, 14364, Note_on_c, 0, 75, 0
2, 14364, Note_on_c, 0, 81, 0
2, 14366, Note_on_c, 0, 73, 80
2, 14368, Note_on_c, 0, 68, 80
2, 14370, Note_on_c, 0, 77, 80
2, 14370, Note_on_c, 0, 80, 80
2, 14412, Note_on_c, 0, 48, 0
2, 14412, Note_on_c, 0, 36, 0
2, 14414, Note_on_c, 0, 73, 0
2, 14419, Note_on_c, 0, 35, 80
2, 14421, Note_on_c, 0, 47, 80
2, 14470, Note_on_c, 0, 80, 0
2, 14472, Note_on_c, 0, 68, 0
2, 14472, Note_on_c, 0, 77, 0
2, 14472, Note_on_c, 0, 61, 80
2, 14473, Note_on_c, 0, 73, 80
2, 14513, Note_on_c, 0, 73, 0
2, 14513, Note_on_c, 0, 47, 0
2, 14513, Note_on_c, 0, 35, 0
2, 14513, Note_on_c, 0, 61, 0
2, 14520, Note_on_c, 0, 49, 80
2, 14520, Note_on_c, 0, 56, 80
2, 14521, Note_on_c, 0, 53, 80
2, 14521, Note_on_c, 0, 59, 80
2, 14521, Note_on_c, 0, 65, 80
2, 14521, Note_on_c, 0, 77, 80
2, 14544, Note_on_c, 0, 56, 0
2, 14544, Note_on_c, 0, 49, 0
2, 14570, Note_on_c, 0, 65, 0
2, 14570, Note_on_c, 0, 59, 0
2, 14570, Note_on_c, 0, 77, 0
2, 14570, Note_on_c, 0, 53, 0
2, 14572, Note_on_c, 0, 80, 80
2, 14574, Note_on_c, 0, 68, 80
2, 14625, Note_on_c, 0, 68, 0
2, 14625, Note_on_c, 0, 80, 0
2, 14625, Control_c, 0, 64, 127
2, 14627, Note_on_c, 0, 34, 80
2, 14629, Note_on_c, 0, 46, 80
2, 14629, Note_on_c, 0, 78, 80
2, 14631, Note_on_c, 0, 73, 80
2, 14631, Note_on_c, 0, 82, 80
2, 14631, Note_on_c, 0, 85, 80
2, 14648, Note_on_c, 0, 82, 0
2, 14682, Note_on_c, 0, 78, 0
2, 14682, Note_on_c, 0, 77, 80
2, 14687, Note_on_c, 0, 82, 80
2, 14707, Note_on_c, 0, 46, 0
2, 14731, Note_on_c, 0, 34, 0
2, 14733, Note_on_c, 0, 85, 0
2, 14733, Note_on_c, 0, 73, 0
2, 14733, Note_on_c, 0, 82, 0
2, 14733, Note_on_c, 0, 49, 80
2, 14735, Note_on_c, 0, 58, 80
2, 14736, Note_on_c, 0, 54, 80
2, 14757, Note_on_c, 0, 58, 0
2, 14757, Note_on_c, 0, 49, 0
2, 14784, Note_on_c, 0, 77, 0
2, 14784, Note_on_c, 0, 54, 0
2, 14785, Note_on_c, 0, 73, 80
2, 14785, Note_on_c, 0, 75, 80
2, 14785, Note_on_c, 0, 78, 80
2, 14785, Note_on_c, 0, 82, 80
2, 14785, Note_on_c, 0, 85, 80
2, 14830, Note_on_c, 0, 73, 0
2, 14834, Note_on_c, 0, 37, 80
2, 14836, Note_on_c, 0, 85, 0
2, 14863, Control_c, 0, 64, 0
2, 14887, Note_on_c, 0, 82, 0
2, 14887, Note_on_c, 0, 75, 0
2, 14887, Note_on_c, 0, 78, 0
2, 14894, Note_on_c, 0, 73, 80
2, 14894, Note_on_c, 0, 85, 80
2, 14911, Note_on_c, 0, 37, 0
2, 14940, Note_on_c, 0, 73, 0
2, 14942, Note_on_c, 0, 85, 0
2, 14944, Note_on_c, 0, 58, 80
2, 14944, Note_on_c, 0, 61, 80
2, 14946, Note_on_c, 0, 66, 80
2, 14946, Note_on_c, 0, 70, 80
2, 14946, Note_on_c, 0, 78, 80
2, 14946, Note_on_c, 0, 82, 80
2, 14963, Note_on_c, 0, 61, 0
2, 14963, Note_on_c, 0, 58, 0
2, 14965, Note_on_c, 0, 66, 0
2, 14992, Note_on_c, 0, 78, 0
2, 14997, Note_on_c, 0, 82, 0
2, 14997, Note_on_c, 0, 70, 0
2, 15001, Note_on_c, 0, 68, 80
2, 15001, Note_on_c, 0, 80, 80
2, 15048, Note_on_c, 0, 80, 0
2, 15049, Note_on_c, 0, 68, 0
2, 15049, Note_on_c, 0, 42, 80
2, 15049, Note_on_c, 0, 54, 80
2, 15049, Note_on_c, 0, 66, 80
2, 15049, Note_on_c, 0, 70, 80
2, 15049, Note_on_c, 0, 73, 80
2, 15073, Note_on_c, 0, 73, 0
2, 15073, Note_on_c, 0, 70, 0
2, 15100, Note_on_c, 0, 54, 0
2, 15102, Note_on_c, 0, 66, 0
2, 15102, Note_on_c, 0, 73, 80
2, 15104, Note_on_c, 0, 65, 80
2, 15109, Note_on_c, 0, 70, 80
2, 15124, Note_on_c, 0, 42, 0
2, 15158, Note_on_c, 0, 73, 0
2, 15158, Note_on_c, 0, 70, 0
2, 15160, Note_on_c, 0, 58, 80
2, 15160, Note_on_c, 0, 61, 80
2, 15162, Note_on_c, 0, 54, 80
2, 15179, Note_on_c, 0, 54, 0
2, 15181, Note_on_c, 0, 61, 0
2, 15181, Note_on_c, 0, 58, 0
2, 15210, Note_on_c, 0, 66, 80
2, 15212, Note_on_c, 0, 65, 0
2, 15214, Note_on_c, 0, 63, 80
2, 15214, Note_on_c, 0, 70, 80
2, 15214, Note_on_c, 0, 73, 80
2, 15264, Note_on_c, 0, 46, 80
2, 15266, Note_on_c, 0, 58, 80
2, 15312, Note_on_c, 0, 73, 0
2, 15312, Note_on_c, 0, 70, 0
2, 15312, Note_on_c, 0, 66, 0
2, 15312, Note_on_c, 0, 63, 0
2, 15314, Note_on_c, 0, 60, 80
2, 15316, Note_on_c, 0, 72, 80
2, 15338, Note_on_c, 0, 58, 0
2, 15362, Note_on_c, 0, 46, 0
2, 15362, Note_on_c, 0, 60, 0
2, 15364, Note_on_c, 0, 72, 0
2, 15364, Note_on_c, 0, 43, 80
2, 15364, Note_on_c, 0, 55, 80
2, 15364, Note_on_c, 0, 61, 80
2, 15369, Note_on_c, 0, 73, 80
2, 15415, Note_on_c, 0, 61, 0
2, 15417, Note_on_c, 0, 73, 0
2, 15417, Note_on_c, 0, 62, 80
2, 15424, Note_on_c, 0, 74, 80
2, 15466, Note_on_c, 0, 55, 0
2, 15466, Note_on_c, 0, 43, 0
2, 15466, Control_c, 0, 64, 127
2, 15468, Note_on_c, 0, 62, 0
2, 15468, Note_on_c, 0, 74, 0
2, 15468, Note_on_c, 0, 41, 80
2, 15470, Note_on_c, 0, 63, 80
2, 15475, Note_on_c, 0, 75, 80
2, 15499, Note_on_c, 0, 56, 80
2, 15519, Note_on_c, 0, 63, 0
2, 15528, Note_on_c, 0, 77, 80
2, 15528, Note_on_c, 0, 83, 80
2, 15528, Note_on_c, 0, 87, 80
2, 15567, Note_on_c, 0, 41, 0
2, 15569, Note_on_c, 0, 75, 0
2, 15571, Note_on_c, 0, 56, 0
2, 15573, Note_on_c, 0, 77, 0
2, 15573, Note_on_c, 0, 87, 0
2, 15573, Note_on_c, 0, 83, 0
2, 15575, Note_on_c, 0, 59, 80
2, 15575, Note_on_c, 0, 61, 80
2, 15575, Note_on_c, 0, 65, 80
2, 15575, Note_on_c, 0, 68, 80
2, 15590, Note_on_c, 0, 61, 0
2, 15597, Note_on_c, 0, 59, 0
2, 15597, Note_on_c, 0, 65, 0
2, 15619, Control_c, 0, 64, 0
2, 15624, Note_on_c, 0, 68, 0
2, 15624, Note_on_c, 0, 77, 80
2, 15625, Note_on_c, 0, 75, 80
2, 15625, Note_on_c, 0, 83, 80
2, 15630, Note_on_c, 0, 87, 80
2, 15674, Note_on_c, 0, 61, 80
2, 15676, Note_on_c, 0, 65, 80
2, 15678, Note_on_c, 0, 56, 80
2, 15680, Note_on_c, 0, 59, 80
2, 15697, Note_on_c, 0, 56, 0
2, 15699, Note_on_c, 0, 65, 0
2, 15721, Note_on_c, 0, 77, 0
2, 15721, Note_on_c, 0, 61, 0
2, 15728, Note_on_c, 0, 87, 0
2, 15728, Note_on_c, 0, 59, 0
2, 15728, Note_on_c, 0, 83, 0
2, 15728, Note_on_c, 0, 75, 0
2, 15730, Note_on_c, 0, 72, 80
2, 15730, Note_on_c, 0, 84, 80
2, 15781, Note_on_c, 0, 72, 0
2, 15781, Note_on_c, 0, 40, 80
2, 15783, Note_on_c, 0, 55, 80
2, 15783, Note_on_c, 0, 73, 80
2, 15783, Note_on_c, 0, 85, 80
2, 15803, Note_on_c, 0, 84, 0
2, 15832, Note_on_c, 0, 73, 0
2, 15834, Note_on_c, 0, 85, 0
2, 15839, Note_on_c, 0, 74, 80
2, 15839, Note_on_c, 0, 86, 80
2, 15863, Note_on_c, 0, 74, 0
2, 15880, Note_on_c, 0, 40, 0
2, 15880, Note_on_c, 0, 55, 0
2, 15882, Note_on_c, 0, 86, 0
2, 15882, Note_on_c, 0, 41, 80
2, 15887, Note_on_c, 0, 56, 80
2, 15887, Note_on_c, 0, 87, 80
2, 15888, Note_on_c, 0, 75, 80
2, 15935, Note_on_c, 0, 56, 0
2, 15936, Note_on_c, 0, 75, 0
2, 15936, Note_on_c, 0, 87, 0
2, 15938, Note_on_c, 0, 89, 80
2, 15938, Note_on_c, 0, 99, 80
2, 15940, Note_on_c, 0, 95, 80
2, 15983, Note_on_c, 0, 41, 0
2, 15984, Note_on_c, 0, 89, 0
2, 15984, Note_on_c, 0, 99, 0
2, 15989, Note_on_c, 0, 95, 0
2, 15989, Note_on_c, 0, 56, 80
2, 15989, Note_on_c, 0, 61, 80
2, 15991, Note_on_c, 0, 59, 80
2, 15991, Note_on_c, 0, 65, 80
2, 16033, Note_on_c, 0, 61, 0
2, 16038, Note_on_c, 0, 56, 0
2, 16040, Note_on_c, 0, 59, 0
2, 16040, Note_on_c, 0, 65, 0
2, 16042, Note_on_c, 0, 89, 80
2, 16042, Note_on_c, 0, 95, 80
2, 16047, Note_on_c, 0, 87, 80
2, 16047, Note_on_c, 0, 99, 80
2, 16093, Note_on_c, 0, 59, 80
2, 16095, Note_on_c, 0, 53, 80
2, 16095, Note_on_c, 0, 61, 80
2, 16139, Note_on_c, 0, 61, 0
2, 16139, Note_on_c, 0, 53, 0
2, 16141, Note_on_c, 0, 99, 0
2, 16141, Note_on_c, 0, 95, 0
2, 16141, Note_on_c, 0, 89, 0
2, 16141, Note_on_c, 0, 59, 0
2, 16146, Note_on_c, 0, 87, 0
2, 16146, Note_on_c, 0, 60, 80
2, 16146, Note_on_c, 0, 72, 80
2, 16199, Note_on_c, 0, 41, 80
2, 16200, Note_on_c, 0, 53, 80
2, 16200, Note_on_c, 0, 61, 80
2, 16200, Note_on_c, 0, 73, 80
2, 16221, Note_on_c, 0, 60, 0
2, 16223, Note_on_c, 0, 72, 0
2, 16247, Note_on_c, 0, 61, 0
2, 16253, Note_on_c, 0, 62, 80
2, 16255, Note_on_c, 0, 74, 80
2, 16272, Note_on_c, 0, 73, 0
2, 16295, Note_on_c, 0, 41, 0
2, 16296, Control_c, 0, 64, 127
2, 16296, Note_on_c, 0, 42, 80
2, 16301, Note_on_c, 0, 74, 0
2, 16303, Note_on_c, 0, 54, 80
2, 16303, Note_on_c, 0, 63, 80
2, 16303, Note_on_c, 0, 75, 80
2, 16323, Note_on_c, 0, 53, 0
2, 16328, Note_on_c, 0, 62, 0
2, 16352, Note_on_c, 0, 63, 0
2, 16352, Note_on_c, 0, 75, 0
2, 16357, Note_on_c, 0, 78, 80
2, 16362, Note_on_c, 0, 82, 80
2, 16362, Note_on_c, 0, 87, 80
2, 16377, Note_on_c, 0, 54, 0
2, 16404, Note_on_c, 0, 82, 0
2, 16404, Note_on_c, 0, 42, 0
2, 16406, Note_on_c, 0, 58, 80
2, 16408, Note_on_c, 0, 78, 0
2, 16408, Note_on_c, 0, 66, 80
2, 16410, Note_on_c, 0, 87, 0
2, 16412, Note_on_c, 0, 61, 80
2, 16429, Note_on_c, 0, 58, 0
2, 16456, Note_on_c, 0, 61, 0
2, 16456, Note_on_c, 0, 66, 0
2, 16463, Note_on_c, 0, 78, 80
2, 16463, Note_on_c, 0, 82, 80
2, 16464, Note_on_c, 0, 75, 80
2, 16464, Note_on_c, 0, 87, 80
2, 16515, Note_on_c, 0, 54, 80
2, 16515, Note_on_c, 0, 58, 80
2, 16515, Note_on_c, 0, 61, 80
2, 16533, Control_c, 0, 64, 0
2, 16557, Note_on_c, 0, 61, 0
2, 16557, Note_on_c, 0, 54, 0
2, 16561, Note_on_c, 0, 78, 0
2, 16561, Note_on_c, 0, 75, 0
2, 16561, Note_on_c, 0, 87, 0
2, 16561, Note_on_c, 0, 58, 0
2, 16563, Note_on_c, 0, 82, 0
2, 16563, Note_on_c, 0, 72, 80
2, 16563, Note_on_c, 0, 84, 80
2, 16612, Note_on_c, 0, 72, 0
2, 16614, Note_on_c, 0, 37, 80
2, 16614, Note_on_c, 0, 49, 80
2, 16614, Note_on_c, 0, 73, 80
2, 16616, Note_on_c, 0, 85, 80
2, 16665, Note_on_c, 0, 85, 0
2, 16665, Note_on_c, 0, 84, 0
2, 16670, Note_on_c, 0, 74, 80
2, 16672, Note_on_c, 0, 86, 80
2, 16692, Note_on_c, 0, 73, 0
2, 16712, Note_on_c, 0, 37, 0
2, 16714, Note_on_c, 0, 49, 0
2, 16714, Note_on_c, 0, 34, 80
2, 16716, Note_on_c, 0, 74, 0
2, 16716, Note_on_c, 0, 86, 0
2, 16716, Note_on_c, 0, 46, 80
2, 16716, Note_on_c, 0, 78, 80
2, 16718, Note_on_c, 0, 75, 80
2, 16723, Note_on_c, 0, 87, 80
2, 16767, Note_on_c, 0, 75, 0
2, 16767, Note_on_c, 0, 78, 0
2, 16769, Note_on_c, 0, 87, 0
2, 16774, Note_on_c, 0, 90, 80
2, 16776, Note_on_c, 0, 94, 80
2, 16776, Note_on_c, 0, 99, 80
2, 16815, Note_on_c, 0, 46, 0
2, 16815, Note_on_c, 0, 34, 0
2, 16817, Note_on_c, 0, 94, 0
2, 16817, Note_on_c, 0, 99, 0
2, 16819, Note_on_c, 0, 90, 0
2, 16821, Note_on_c, 0, 58, 80
2, 16821, Note_on_c, 0, 61, 80
2, 16821, Note_on_c, 0, 66, 80
2, 16838, Note_on_c, 0, 66, 0
2, 16840, Note_on_c, 0, 58, 0
2, 16867, Note_on_c, 0, 61, 0
2, 16875, Note_on_c, 0, 87, 80
2, 16875, Note_on_c, 0, 90, 80
2, 16875, Note_on_c, 0, 94, 80
2, 16875, Note_on_c, 0, 99, 80
2, 16926, Note_on_c, 0, 49, 80
2, 16926, Note_on_c, 0, 61, 80
2, 16931, Note_on_c, 0, 54, 80
2, 16931, Note_on_c, 0, 58, 80
2, 16948, Note_on_c, 0, 61, 0
2, 16972, Note_on_c, 0, 58, 0
2, 16972, Note_on_c, 0, 49, 0
2, 16972, Note_on_c, 0, 90, 0
2, 16972, Note_on_c, 0, 54, 0
2, 16974, Note_on_c, 0, 94, 0
2, 16974, Note_on_c, 0, 99, 0
2, 16974, Note_on_c, 0, 61, 80
2, 16979, Note_on_c, 0, 87, 0
2, 16981, Note_on_c, 0, 73, 80
2, 17027, Note_on_c, 0, 61, 0
2, 17027, Note_on_c, 0, 66, 80
2, 17027, Note_on_c, 0, 78, 80
2, 17051, Note_on_c, 0, 73, 0
2, 17078, Note_on_c, 0, 66, 0
2, 17078, Note_on_c, 0, 70, 80
2, 17085, Note_on_c, 0, 82, 80
2, 17102, Note_on_c, 0, 78, 0
2, 17129, Note_on_c, 0, 82, 0
2, 17129, Note_on_c, 0, 70, 0
2, 17129, Control_c, 0, 64, 127
2, 17129, Note_on_c, 0, 39, 80
2, 17131, Note_on_c, 0, 78, 80
2, 17133, Note_on_c, 0, 51, 80
2, 17133, Note_on_c, 0, 81, 80
2, 17135, Note_on_c, 0, 75, 80
2, 17135, Note_on_c, 0, 87, 80
2, 17177, Note_on_c, 0, 87, 0
2, 17179, Note_on_c, 0, 81, 0
2, 17179, Note_on_c, 0, 78, 0
2, 17179, Note_on_c, 0, 75, 0
2, 17185, Note_on_c, 0, 73, 80
2, 17185, Note_on_c, 0, 76, 80
2, 17185, Note_on_c, 0, 79, 80
2, 17185, Note_on_c, 0, 85, 80
2, 17234, Note_on_c, 0, 40, 80
2, 17234, Note_on_c, 0, 52, 80
2, 17252, Note_on_c, 0, 39, 0
2, 17252, Note_on_c, 0, 51, 0
2, 17282, Note_on_c, 0, 76, 0
2, 17282, Note_on_c, 0, 85, 0
2, 17284, Note_on_c, 0, 79, 0
2, 17284, Note_on_c, 0, 71, 80
2, 17284, Note_on_c, 0, 77, 80
2, 17284, Note_on_c, 0, 80, 80
2, 17289, Note_on_c, 0, 83, 80
2, 17331, Note_on_c, 0, 52, 0
2, 17331, Note_on_c, 0, 40, 0
2, 17333, Note_on_c, 0, 73, 0
2, 17335, Note_on_c, 0, 41, 80
2, 17340, Note_on_c, 0, 53, 80
2, 17357, Control_c, 0, 64, 0
2, 17388, Note_on_c, 0, 53, 0
2, 17388, Note_on_c, 0, 80, 0
2, 17388, Note_on_c, 0, 83, 0
2, 17388, Note_on_c, 0, 71, 0
2, 17388, Note_on_c, 0, 77, 0
2, 17388, Note_on_c, 0, 61, 80
2, 17390, Note_on_c, 0, 73, 80
2, 17434, Note_on_c, 0, 41, 0
2, 17439, Note_on_c, 0, 61, 0
2, 17441, Note_on_c, 0, 73, 0
2, 17441, Note_on_c, 0, 49, 80
2, 17441, Note_on_c, 0, 56, 80
2, 17443, Note_on_c, 0, 53, 80
2, 17443, Note_on_c, 0, 59, 80
2, 17443, Note_on_c, 0, 63, 80
2, 17443, Note_on_c, 0, 75, 80
2, 17489, Note_on_c, 0, 56, 0
2, 17491, Note_on_c, 0, 59, 0
2, 17491, Note_on_c, 0, 49, 0
2, 17491, Note_on_c, 0, 53, 0
2, 17496, Note_on_c, 0, 65, 80
2, 17500, Note_on_c, 0, 77, 80
2, 17518, Note_on_c, 0, 75, 0
2, 17518, Note_on_c, 0, 63, 0
2, 17544, Note_on_c, 0, 77, 0
2, 17549, Note_on_c, 0, 65, 0
2, 17549, Note_on_c, 0, 37, 80
2, 17549, Note_on_c, 0, 49, 80
2, 17551, Note_on_c, 0, 73, 80
2, 17551, Note_on_c, 0, 82, 80
2, 17553, Note_on_c, 0, 70, 80
2, 17595, Note_on_c, 0, 73, 0
2, 17600, Note_on_c, 0, 82, 0
2, 17600, Note_on_c, 0, 70, 0
2, 17605, Note_on_c, 0, 69, 80
2, 17605, Note_on_c, 0, 75, 80
2, 17605, Note_on_c, 0, 78, 80
2, 17605, Note_on_c, 0, 81, 80
2, 17651, Note_on_c, 0, 48, 80
2, 17656, Note_on_c, 0, 36, 80
2, 17676, Note_on_c, 0, 49, 0
2, 17676, Note_on_c, 0, 37, 0
2, 17703, Note_on_c, 0, 78, 0
2, 17703, Note_on_c, 0, 69, 0
2, 17703, Note_on_c, 0, 81, 0
2, 17705, Note_on_c, 0, 75, 0
2, 17710, Note_on_c, 0, 68, 80
2, 17710, Note_on_c, 0, 73, 80
2, 17710, Note_on_c, 0, 77, 80
2, 17710, Note_on_c, 0, 80, 80
2, 17752, Note_on_c, 0, 36, 0
2, 17754, Note_on_c, 0, 48, 0
2, 17756, Note_on_c, 0, 73, 0
2, 17760, Note_on_c, 0, 35, 80
2, 17760, Note_on_c, 0, 47, 80
2, 17813, Note_on_c, 0, 68, 0
2, 17813, Note_on_c, 0, 77, 0
2, 17813, Note_on_c, 0, 80, 0
2, 17813, Note_on_c, 0, 61, 80
2, 17813, Note_on_c, 0, 73, 80
2, 17857, Note_on_c, 0, 35, 0
2, 17864, Note_on_c, 0, 47, 0
2, 17864, Note_on_c, 0, 61, 0
2, 17866, Note_on_c, 0, 73, 0
2, 17866, Note_on_c, 0, 49, 80
2, 17868, Note_on_c, 0, 65, 80
2, 17870, Note_on_c, 0, 53, 80
2, 17870, Note_on_c, 0, 56, 80
2, 17872, Note_on_c, 0, 59, 80
2, 17874, Note_on_c, 0, 77, 80
2, 17887, Note_on_c, 0, 56, 0
2, 17887, Note_on_c, 0, 49, 0
2, 17914, Note_on_c, 0, 59, 0
2, 17914, Note_on_c, 0, 53, 0
2, 17914, Note_on_c, 0, 77, 0
2, 17919, Note_on_c, 0, 65, 0
2, 17921, Note_on_c, 0, 68, 80
2, 17921, Note_on_c, 0, 80, 80
2, 17972, Note_on_c, 0, 80, 0
2, 17972, Note_on_c, 0, 68, 0
2, 17972, Control_c, 0, 64, 127
2, 17974, Note_on_c, 0, 34, 80
2, 17974, Note_on_c, 0, 46, 80
2, 17976, Note_on_c, 0, 73, 80
2, 17976, Note_on_c, 0, 78, 80
2, 17976, Note_on_c, 0, 82, 80
2, 17980, Note_on_c, 0, 85, 80
2, 18000, Note_on_c, 0, 82, 0
2, 18027, Note_on_c, 0, 78, 0
2, 18027, Note_on_c, 0, 77, 80
2, 18027, Note_on_c, 0, 82, 80
2, 18049, Note_on_c, 0, 46, 0
2, 18072, Note_on_c, 0, 34, 0
2, 18076, Note_on_c, 0, 85, 0
2, 18076, Note_on_c, 0, 73, 0
2, 18076, Note_on_c, 0, 82, 0
2, 18076, Note_on_c, 0, 49, 80
2, 18083, Note_on_c, 0, 54, 80
2, 18083, Note_on_c, 0, 58, 80
2, 18100, Note_on_c, 0, 58, 0
2, 18100, Note_on_c, 0, 49, 0
2, 18127, Note_on_c, 0, 54, 0
2, 18134, Note_on_c, 0, 77, 0
2, 18134, Note_on_c, 0, 78, 80
2, 18136, Note_on_c, 0, 73, 80
2, 18136, Note_on_c, 0, 75, 80
2, 18136, Note_on_c, 0, 85, 80
2, 18141, Note_on_c, 0, 82, 80
2, 18180, Note_on_c, 0, 73, 0
2, 18185, Note_on_c, 0, 85, 0
2, 18185, Note_on_c, 0, 37, 80
2, 18212, Control_c, 0, 64, 0
2, 18239, Note_on_c, 0, 78, 0
2, 18239, Note_on_c, 0, 82, 0
2, 18239, Note_on_c, 0, 75, 0
2, 18240, Note_on_c, 0, 73, 80
2, 18240, Note_on_c, 0, 85, 80
2, 18261, Note_on_c, 0, 37, 0
2, 18291, Note_on_c, 0, 85, 0
2, 18291, Note_on_c, 0, 73, 0
2, 18291, Note_on_c, 0, 66, 80
2, 18296, Note_on_c, 0, 58, 80
2, 18296, Note_on_c, 0, 61, 80
2, 18298, Note_on_c, 0, 70, 80
2, 18298, Note_on_c, 0, 78, 80
2, 18298, Note_on_c, 0, 82, 80
2, 18315, Note_on_c, 0, 61, 0
2, 18315, Note_on_c, 0, 58, 0
2, 18317, Note_on_c, 0, 66, 0
2, 18341, Note_on_c, 0, 82, 0
2, 18346, Note_on_c, 0, 70, 0
2, 18346, Note_on_c, 0, 78, 0
2, 18348, Note_on_c, 0, 68, 80
2, 18348, Note_on_c, 0, 80, 80
2, 18397, Note_on_c, 0, 42, 80
2, 18399, Note_on_c, 0, 80, 0
2, 18399, Note_on_c, 0, 68, 0
2, 18404, Note_on_c, 0, 54, 80
2, 18404, Note_on_c, 0, 73, 80
2, 18406, Note_on_c, 0, 66, 80
2, 18406, Note_on_c, 0, 70, 80
2, 18423, Note_on_c, 0, 70, 0
2, 18423, Note_on_c, 0, 73, 0
2, 18423, Note_on_c, 0, 66, 0
2, 18447, Note_on_c, 0, 54, 0
2, 18452, Note_on_c, 0, 65, 80
2, 18454, Note_on_c, 0, 70, 80
2, 18454, Note_on_c, 0, 73, 80
2, 18503, Note_on_c, 0, 42, 0
2, 18504, Note_on_c, 0, 65, 0
2, 18504, Note_on_c, 0, 70, 0
2, 18504, Note_on_c, 0, 73, 0
2, 18506, Note_on_c, 0, 49, 80
2, 18506, Note_on_c, 0, 54, 80
2, 18506, Note_on_c, 0, 58, 80
2, 18528, Note_on_c, 0, 49, 0
2, 18555, Note_on_c, 0, 58, 0
2, 18555, Note_on_c, 0, 54, 0
2, 18560, Note_on_c, 0, 64, 80
2, 18562, Note_on_c, 0, 70, 80
2, 18562, Note_on_c, 0, 73, 80
2, 18613, Note_on_c, 0, 34, 80
2, 18613, Note_on_c, 0, 46, 80
2, 18662, Note_on_c, 0, 73, 0
2, 18662, Note_on_c, 0, 64, 0
2, 18662, Note_on_c, 0, 70, 0
2, 18664, Note_on_c, 0, 63, 80
2, 18664, Note_on_c, 0, 75, 80
2, 18706, Note_on_c, 0, 34, 0
2, 18713, Note_on_c, 0, 46, 0
2, 18713, Note_on_c, 0, 63, 0
2, 18713, Note_on_c, 0, 75, 0
2, 18713, Note_on_c, 0, 49, 80
2, 18715, Note_on_c, 0, 52, 80
2, 18715, Note_on_c, 0, 54, 80
2, 18715, Note_on_c, 0, 61, 80
2, 18715, Note_on_c, 0, 64, 80
2, 18717, Note_on_c, 0, 58, 80
2, 18717, Note_on_c, 0, 70, 80
2, 18717, Note_on_c, 0, 73, 80
2, 18759, Note_on_c, 0, 52, 0
2, 18764, Note_on_c, 0, 61, 0
2, 18764, Note_on_c, 0, 58, 0
2, 18764, Note_on_c, 0, 54, 0
2, 18764, Note_on_c, 0, 49, 0
2, 18764, Note_on_c, 0, 70, 0
2, 18766, Note_on_c, 0, 73, 0
2, 18766, Note_on_c, 0, 64, 0
2, 18821, Note_on_c, 0, 35, 80
2, 18821, Note_on_c, 0, 47, 80
2, 18823, Note_on_c, 0, 73, 80
2, 18823, Note_on_c, 0, 78, 80
2, 18823, Note_on_c, 0, 85, 80
2, 18840, Note_on_c, 0, 73, 0
2, 18847, Note_on_c, 0, 78, 0
2, 18847, Note_on_c, 0, 85, 0
2, 18869, Note_on_c, 0, 78, 80
2, 18874, Note_on_c, 0, 71, 80
2, 18874, Note_on_c, 0, 75, 80
2, 18874, Note_on_c, 0, 83, 80
2, 18889, Note_on_c, 0, 35, 0
2, 18916, Note_on_c, 0, 47, 0
2, 18918, Note_on_c, 0, 75, 0
2, 18918, Note_on_c, 0, 71, 0
2, 18918, Note_on_c, 0, 78, 0
2, 18920, Note_on_c, 0, 66, 80
2, 18922, Note_on_c, 0, 83, 0
2, 18924, Note_on_c, 0, 59, 80
2, 18924, Note_on_c, 0, 63, 80
2, 18941, Note_on_c, 0, 63, 0
2, 18941, Note_on_c, 0, 59, 0
2, 18970, Note_on_c, 0, 66, 0
2, 18977, Note_on_c, 0, 82, 80
2, 18977, Note_on_c, 0, 87, 80
2, 18977, Note_on_c, 0, 94, 80
2, 19028, Note_on_c, 0, 36, 80
2, 19030, Note_on_c, 0, 87, 0
2, 19030, Note_on_c, 0, 48, 80
2, 19080, Note_on_c, 0, 82, 0
2, 19080, Note_on_c, 0, 94, 0
2, 19131, Note_on_c, 0, 36, 0
2, 19131, Note_on_c, 0, 48, 0
2, 19131, Note_on_c, 0, 54, 80
2, 19138, Note_on_c, 0, 60, 80
2, 19138, Note_on_c, 0, 63, 80
2, 19138, Note_on_c, 0, 66, 80
2, 19138, Note_on_c, 0, 80, 80
2, 19138, Note_on_c, 0, 92, 80
2, 19145, Note_on_c, 0, 87, 80
2, 19150, Note_on_c, 0, 54, 0
2, 19163, Note_on_c, 0, 60, 0
2, 19185, Note_on_c, 0, 66, 0
2, 19190, Note_on_c, 0, 80, 0
2, 19190, Note_on_c, 0, 92, 0
2, 19190, Note_on_c, 0, 87, 0
2, 19190, Note_on_c, 0, 63, 0
2, 19236, Note_on_c, 0, 49, 80
2, 19238, Note_on_c, 0, 89, 80
2, 19243, Note_on_c, 0, 37, 80
2, 19245, Note_on_c, 0, 77, 80
2, 19289, Note_on_c, 0, 89, 0
2, 19291, Note_on_c, 0, 77, 0
2, 19291, Note_on_c, 0, 78, 80
2, 19293, Note_on_c, 0, 82, 80
2, 19293, Note_on_c, 0, 85, 80
2, 19293, Note_on_c, 0, 90, 80
2, 19335, Note_on_c, 0, 37, 0
2, 19340, Note_on_c, 0, 85, 0
2, 19342, Note_on_c, 0, 49, 0
2, 19344, Note_on_c, 0, 58, 80
2, 19344, Note_on_c, 0, 61, 80
2, 19344, Note_on_c, 0, 66, 80
2, 19364, Note_on_c, 0, 66, 0
2, 19364, Note_on_c, 0, 58, 0
2, 19364, Note_on_c, 0, 61, 0
2, 19394, Note_on_c, 0, 78, 0
2, 19394, Note_on_c, 0, 82, 0
2, 19394, Note_on_c, 0, 90, 0
2, 19396, Note_on_c, 0, 73, 80
2, 19396, Note_on_c, 0, 79, 80
2, 19398, Note_on_c, 0, 85, 80
2, 19444, Note_on_c, 0, 39, 80
2, 19444, Note_on_c, 0, 51, 80
2, 19495, Note_on_c, 0, 85, 0
2, 19495, Note_on_c, 0, 73, 0
2, 19497, Note_on_c, 0, 79, 0
2, 19502, Note_on_c, 0, 74, 80
2, 19502, Note_on_c, 0, 86, 80
2, 19517, Note_on_c, 0, 39, 0
2, 19546, Note_on_c, 0, 51, 0
2, 19548, Note_on_c, 0, 74, 0
2, 19548, Note_on_c, 0, 86, 0
2, 19548, Note_on_c, 0, 55, 80
2, 19548, Note_on_c, 0, 61, 80
2, 19550, Note_on_c, 0, 58, 80
2, 19550, Note_on_c, 0, 63, 80
2, 19550, Note_on_c, 0, 75, 80
2, 19552, Note_on_c, 0, 79, 80
2, 19552, Note_on_c, 0, 87, 80
2, 19594, Note_on_c, 0, 61, 0
2, 19594, Note_on_c, 0, 55, 0
2, 19596, Note_on_c, 0, 58, 0
2, 19596, Note_on_c, 0, 75, 0
2, 19596, Note_on_c, 0, 63, 0
2, 19596, Note_on_c, 0, 87, 0
2, 19598, Note_on_c, 0, 79, 0
2, 19651, Control_c, 0, 64, 127
2, 19653, Note_on_c, 0, 44, 80
2, 19653, Note_on_c, 0, 56, 80
2, 19653, Note_on_c, 0, 71, 80
2, 19655, Note_on_c, 0, 83, 80
2, 19656, Note_on_c, 0, 80, 80
2, 19701, Note_on_c, 0, 56, 0
2, 19705, Note_on_c, 0, 75, 80
2, 19752, Note_on_c, 0, 44, 0
2, 19753, Note_on_c, 0, 75, 0
2, 19758, Note_on_c, 0, 56, 80
2, 19758, Note_on_c, 0, 59, 80
2, 19758, Note_on_c, 0, 63, 80
2, 19760, Note_on_c, 0, 74, 80
2, 19776, Note_on_c, 0, 56, 0
2, 19777, Note_on_c, 0, 59, 0
2, 19777, Note_on_c, 0, 63, 0
2, 19806, Note_on_c, 0, 80, 0
2, 19806, Note_on_c, 0, 71, 0
2, 19808, Note_on_c, 0, 83, 0
2, 19808, Note_on_c, 0, 74, 0
2, 19808, Note_on_c, 0, 70, 80
2, 19808, Note_on_c, 0, 73, 80
2, 19808, Note_on_c, 0, 77, 80
2, 19810, Note_on_c, 0, 82, 80
2, 19856, Note_on_c, 0, 37, 80
2, 19858, Note_on_c, 0, 49, 80
2, 19880, Control_c, 0, 64, 0
2, 19904, Note_on_c, 0, 70, 0
2, 19906, Note_on_c, 0, 73, 0
2, 19911, Note_on_c, 0, 77, 0
2, 19913, Note_on_c, 0, 72, 80
2, 19928, Note_on_c, 0, 49, 0
2, 19955, Note_on_c, 0, 37, 0
2, 19957, Note_on_c, 0, 82, 0
2, 19962, Note_on_c, 0, 72, 0
2, 19962, Note_on_c, 0, 56, 80
2, 19964, Note_on_c, 0, 59, 80
2, 19964, Note_on_c, 0, 61, 80
2, 19964, Note_on_c, 0, 65, 80
2, 19964, Note_on_c, 0, 71, 80
2, 19966, Note_on_c, 0, 68, 80
2, 19966, Note_on_c, 0, 77, 80
2, 19966, Note_on_c, 0, 80, 80
2, 20063, Note_on_c, 0, 68, 0
2, 20063, Note_on_c, 0, 65, 0
2, 20063, Note_on_c, 0, 56, 0
2, 20063, Note_on_c, 0, 59, 0
2, 20063, Note_on_c, 0, 61, 0
2, 20063, Note_on_c, 0, 71, 0
2, 20063, Note_on_c, 0, 42, 80
2, 20064, Note_on_c, 0, 80, 0
2, 20064, Note_on_c, 0, 77, 0
2, 20064, Note_on_c, 0, 49, 80
2, 20064, Note_on_c, 0, 66, 80
2, 20064, Note_on_c, 0, 73, 80
2, 20069, Note_on_c, 0, 58, 80
2, 20069, Note_on_c, 0, 70, 80
2, 20069, Note_on_c, 0, 78, 80
2, 20112, Note_on_c, 0, 49, 0
2, 20169, Note_on_c, 0, 42, 0
2, 20171, Note_on_c, 0, 58, 0
2, 20176, Note_on_c, 0, 37, 80
2, 20178, Note_on_c, 0, 49, 80
2, 20220, Note_on_c, 0, 37, 0
2, 20227, Note_on_c, 0, 49, 0
2, 20280, Note_on_c, 0, 73, 0
2, 20280, Note_on_c, 0, 70, 0
2, 20281, Note_on_c, 0, 66, 0
2, 20281, Note_on_c, 0, 78, 0
2, 20281, Control_c, 0, 64, 127
2, 20281, Note_on_c, 0, 30, 80
2, 20281, Note_on_c, 0, 42, 80
2, 20356, Note_on_c, 0, 42, 0
2, 20383, Note_on_c, 0, 30, 0
2, 20385, Control_c, 0, 64, 0
2, 20392, Note_on_c, 0, 37, 80
2, 20392, Note_on_c, 0, 49, 80
2, 20472, Note_on_c, 0, 49, 0
2, 20500, Note_on_c, 0, 42, 80
2, 20500, Note_on_c, 0, 54, 80
2, 20518, Note_on_c, 0, 37, 0
2, 20553, Note_on_c, 0, 70, 80
2, 20575, Note_on_c, 0, 54, 0
2, 20602, Note_on_c, 0, 42, 0
2, 20604, Note_on_c, 0, 70, 0
2, 20609, Note_on_c, 0, 54, 80
2, 20611, Note_on_c, 0, 58, 80
2, 20611, Note_on_c, 0, 61, 80
2, 20611, Note_on_c, 0, 66, 80
2, 20611, Note_on_c, 0, 73, 80
2, 20633, Note_on_c, 0, 61, 0
2, 20635, Note_on_c, 0, 58, 0
2, 20662, Note_on_c, 0, 54, 0
2, 20662, Note_on_c, 0, 66, 0
2, 20662, Note_on_c, 0, 73, 0
2, 20668, Note_on_c, 0, 70, 80
2, 20719, Note_on_c, 0, 70, 0
2, 20726, Note_on_c, 0, 49, 80
2, 20726, Note_on_c, 0, 54, 80
2, 20726, Note_on_c, 0, 58, 80
2, 20726, Note_on_c, 0, 68, 80
2, 20743, Note_on_c, 0, 54, 0
2, 20743, Note_on_c, 0, 49, 0
2, 20774, Note_on_c, 0, 58, 0
2, 20776, Note_on_c, 0, 68, 0
2, 20778, Note_on_c, 0, 66, 80
2, 20827, Note_on_c, 0, 43, 80
2, 20829, Note_on_c, 0, 66, 0
2, 20831, Note_on_c, 0, 58, 80
2, 20831, Note_on_c, 0, 63, 80
2, 20877, Note_on_c, 0, 63, 0
2, 20881, Note_on_c, 0, 64, 80
2, 20928, Note_on_c, 0, 58, 0
2, 20928, Note_on_c, 0, 43, 0
2, 20929, Note_on_c, 0, 64, 0
2, 20929, Note_on_c, 0, 65, 80
2, 20934, Note_on_c, 0, 44, 80
2, 20934, Note_on_c, 0, 59, 80
2, 20983, Note_on_c, 0, 59, 0
2, 20983, Note_on_c, 0, 65, 0
2, 20985, Note_on_c, 0, 71, 80
2, 20985, Note_on_c, 0, 75, 80
2, 20987, Note_on_c, 0, 63, 80
2, 21007, Note_on_c, 0, 44, 0
2, 21038, Note_on_c, 0, 53, 80
2, 21038, Note_on_c, 0, 59, 80
2, 21038, Note_on_c, 0, 61, 80
2, 21060, Note_on_c, 0, 61, 0
2, 21060, Note_on_c, 0, 53, 0
2, 21060, Note_on_c, 0, 71, 0
2, 21060, Note_on_c, 0, 59, 0
2, 21087, Note_on_c, 0, 63, 0
2, 21087, Note_on_c, 0, 75, 0
2, 21089, Note_on_c, 0, 61, 80
2, 21089, Note_on_c, 0, 65, 80
2, 21089, Note_on_c, 0, 71, 80
2, 21089, Note_on_c, 0, 73, 80
2, 21140, Note_on_c, 0, 49, 80
2, 21142, Note_on_c, 0, 53, 80
2, 21142, Note_on_c, 0, 59, 80
2, 21162, Note_on_c, 0, 49, 0
2, 21189, Note_on_c, 0, 53, 0
2, 21193, Note_on_c, 0, 65, 0
2, 21193, Note_on_c, 0, 71, 0
2, 21193, Note_on_c, 0, 59, 0
2, 21216, Note_on_c, 0, 61, 0
2, 21240, Note_on_c, 0, 73, 0
2, 21244, Note_on_c, 0, 37, 80
2, 21244, Note_on_c, 0, 49, 80
2, 21312, Note_on_c, 0, 37, 0
2, 21346, Note_on_c, 0, 49, 0
2, 21346, Note_on_c, 0, 42, 80
2, 21346, Note_on_c, 0, 54, 80
2, 21406, Note_on_c, 0, 70, 80
2, 21406, Note_on_c, 0, 82, 80
2, 21421, Note_on_c, 0, 42, 0
2, 21450, Note_on_c, 0, 54, 0
2, 21452, Note_on_c, 0, 82, 0
2, 21454, Note_on_c, 0, 70, 0
2, 21456, Note_on_c, 0, 58, 80
2, 21456, Note_on_c, 0, 61, 80
2, 21456, Note_on_c, 0, 66, 80
2, 21456, Note_on_c, 0, 73, 80
2, 21456, Note_on_c, 0, 78, 80
2, 21457, Note_on_c, 0, 85, 80
2, 21473, Note_on_c, 0, 61, 0
2, 21478, Note_on_c, 0, 58, 0
2, 21478, Note_on_c, 0, 66, 0
2, 21504, Note_on_c, 0, 73, 0
2, 21506, Note_on_c, 0, 78, 0
2, 21506, Note_on_c, 0, 70, 80
2, 21506, Note_on_c, 0, 82, 80
2, 21530, Note_on_c, 0, 85, 0
2, 21557, Note_on_c, 0, 54, 80
2, 21559, Note_on_c, 0, 58, 80
2, 21559, Note_on_c, 0, 61, 80
2, 21559, Note_on_c, 0, 80, 80
2, 21561, Note_on_c, 0, 68, 80
2, 21578, Note_on_c, 0, 61, 0
2, 21578, Note_on_c, 0, 58, 0
2, 21578, Note_on_c, 0, 54, 0
2, 21578, Note_on_c, 0, 70, 0
2, 21580, Note_on_c, 0, 82, 0
2, 21604, Note_on_c, 0, 80, 0
2, 21609, Note_on_c, 0, 66, 80
2, 21609, Note_on_c, 0, 78, 80
2, 21629, Note_on_c, 0, 68, 0
2, 21656, Note_on_c, 0, 66, 0
2, 21661, Note_on_c, 0, 43, 80
2, 21661, Note_on_c, 0, 55, 80
2, 21661, Note_on_c, 0, 63, 80
2, 21661, Note_on_c, 0, 75, 80
2, 21683, Note_on_c, 0, 78, 0
2, 21712, Note_on_c, 0, 64, 80
2, 21712, Note_on_c, 0, 76, 80
2, 21734, Note_on_c, 0, 63, 0
2, 21734, Note_on_c, 0, 55, 0
2, 21736, Note_on_c, 0, 75, 0
2, 21760, Note_on_c, 0, 43, 0
2, 21765, Note_on_c, 0, 41, 80
2, 21767, Note_on_c, 0, 56, 80
2, 21768, Note_on_c, 0, 65, 80
2, 21768, Note_on_c, 0, 77, 80
2, 21786, Note_on_c, 0, 76, 0
2, 21788, Note_on_c, 0, 64, 0
2, 21812, Note_on_c, 0, 56, 0
2, 21814, Note_on_c, 0, 65, 0
2, 21816, Note_on_c, 0, 83, 80
2, 21816, Note_on_c, 0, 87, 80
2, 21817, Note_on_c, 0, 75, 80
2, 21860, Note_on_c, 0, 41, 0
2, 21868, Note_on_c, 0, 87, 0
2, 21868, Note_on_c, 0, 77, 0
2, 21868, Note_on_c, 0, 83, 0
2, 21868, Note_on_c, 0, 75, 0
2, 21868, Note_on_c, 0, 56, 80
2, 21868, Note_on_c, 0, 61, 80
2, 21868, Note_on_c, 0, 65, 80
2, 21870, Note_on_c, 0, 59, 80
2, 21892, Note_on_c, 0, 59, 0
2, 21892, Note_on_c, 0, 65, 0
2, 21914, Note_on_c, 0, 56, 0
2, 21916, Note_on_c, 0, 61, 0
2, 21921, Note_on_c, 0, 73, 80
2, 21921, Note_on_c, 0, 77, 80
2, 21921, Note_on_c, 0, 85, 80
2, 21926, Note_on_c, 0, 83, 80
2, 21975, Note_on_c, 0, 83, 0
2, 21975, Note_on_c, 0, 73, 0
2, 21975, Note_on_c, 0, 77, 0
2, 21975, Note_on_c, 0, 85, 0
2, 21977, Note_on_c, 0, 53, 80
2, 21977, Note_on_c, 0, 56, 80
2, 21977, Note_on_c, 0, 59, 80
2, 21977, Note_on_c, 0, 61, 80
2, 21992, Note_on_c, 0, 61, 0
2, 21992, Note_on_c, 0, 53, 0
2, 22023, Note_on_c, 0, 56, 0
2, 22025, Note_on_c, 0, 59, 0
2, 22027, Note_on_c, 0, 73, 80
2, 22027, Note_on_c, 0, 77, 80
2, 22027, Note_on_c, 0, 83, 80
2, 22027, Note_on_c, 0, 85, 80
2, 22076, Note_on_c, 0, 83, 0
2, 22076, Note_on_c, 0, 73, 0
2, 22076, Note_on_c, 0, 77, 0
2, 22078, Note_on_c, 0, 85, 0
2, 22078, Note_on_c, 0, 75, 80
2, 22082, Note_on_c, 0, 87, 80
2, 22127, Note_on_c, 0, 75, 0
2, 22131, Note_on_c, 0, 87, 0
2, 22133, Note_on_c, 0, 77, 80
2, 22133, Note_on_c, 0, 89, 80
2, 22182, Note_on_c, 0, 89, 0
2, 22182, Note_on_c, 0, 77, 0
2, 22187, Note_on_c, 0, 63, 80
2, 22187, Note_on_c, 0, 66, 80
2, 22187, Note_on_c, 0, 71, 80
2, 22187, Note_on_c, 0, 78, 80
2, 22187, Note_on_c, 0, 87, 80
2, 22187, Note_on_c, 0, 90, 80
2, 22233, Note_on_c, 0, 90, 0
2, 22233, Note_on_c, 0, 66, 0
2, 22233, Note_on_c, 0, 71, 0
2, 22233, Note_on_c, 0, 63, 0
2, 22233, Note_on_c, 0, 87, 0
2, 22233, Note_on_c, 0, 78, 0
2, 22235, Note_on_c, 0, 83, 80
2, 22284, Note_on_c, 0, 83, 0
2, 22284, Note_on_c, 0, 71, 80
2, 22286, Note_on_c, 0, 59, 80
2, 22286, Note_on_c, 0, 63, 80
2, 22286, Note_on_c, 0, 66, 80
2, 22291, Note_on_c, 0, 87, 80
2, 22293, Note_on_c, 0, 75, 80
2, 22335, Note_on_c, 0, 75, 0
2, 22335, Note_on_c, 0, 59, 0
2, 22335, Note_on_c, 0, 63, 0
2, 22335, Note_on_c, 0, 71, 0
2, 22335, Note_on_c, 0, 87, 0
2, 22335, Note_on_c, 0, 66, 0
2, 22342, Note_on_c, 0, 89, 80
2, 22346, Note_on_c, 0, 77, 80
2, 22391, Note_on_c, 0, 63, 80
2, 22392, Note_on_c, 0, 59, 80
2, 22392, Note_on_c, 0, 68, 80
2, 22439, Note_on_c, 0, 59, 0
2, 22439, Note_on_c, 0, 63, 0
2, 22440, Note_on_c, 0, 89, 0
2, 22440, Note_on_c, 0, 77, 0
2, 22440, Note_on_c, 0, 68, 0
2, 22440, Note_on_c, 0, 71, 80
2, 22447, Note_on_c, 0, 83, 80
2, 22491, Note_on_c, 0, 83, 0
2, 22491, Note_on_c, 0, 71, 0
2, 22493, Note_on_c, 0, 66, 80
2, 22495, Note_on_c, 0, 57, 80
2, 22495, Note_on_c, 0, 60, 80
2, 22497, Note_on_c, 0, 75, 80
2, 22497, Note_on_c, 0, 87, 80
2, 22514, Note_on_c, 0, 57, 0
2, 22514, Note_on_c, 0, 66, 0
2, 22543, Note_on_c, 0, 75, 0
2, 22543, Note_on_c, 0, 60, 0
2, 22545, Note_on_c, 0, 87, 0
2, 22547, Note_on_c, 0, 69, 80
2, 22547, Note_on_c, 0, 81, 80
2, 22596, Note_on_c, 0, 81, 0
2, 22596, Note_on_c, 0, 69, 0
2, 22598, Note_on_c, 0, 58, 80
2, 22598, Note_on_c, 0, 61, 80
2, 22598, Note_on_c, 0, 66, 80
2, 22598, Note_on_c, 0, 70, 80
2, 22598, Note_on_c, 0, 73, 80
2, 22598, Note_on_c, 0, 85, 80
2, 22603, Note_on_c, 0, 78, 80
2, 22645, Note_on_c, 0, 70, 0
2, 22645, Note_on_c, 0, 61, 0
2, 22645, Note_on_c, 0, 58, 0
2, 22647, Note_on_c, 0, 73, 0
2, 22647, Note_on_c, 0, 85, 0
2, 22647, Note_on_c, 0, 78, 0
2, 22647, Note_on_c, 0, 66, 0
2, 22656, Note_on_c, 0, 82, 80
2, 22698, Note_on_c, 0, 82, 0
2, 22703, Note_on_c, 0, 57, 80
2, 22703, Note_on_c, 0, 60, 80
2, 22707, Note_on_c, 0, 75, 80
2, 22707, Note_on_c, 0, 87, 80
2, 22709, Note_on_c, 0, 66, 80
2, 22709, Note_on_c, 0, 69, 80
2, 22752, Note_on_c, 0, 69, 0
2, 22756, Note_on_c, 0, 60, 0
2, 22756, Note_on_c, 0, 57, 0
2, 22756, Note_on_c, 0, 75, 0
2, 22756, Note_on_c, 0, 66, 0
2, 22758, Note_on_c, 0, 87, 0
2, 22758, Note_on_c, 0, 73, 80
2, 22758, Note_on_c, 0, 78, 80
2, 22758, Note_on_c, 0, 85, 80
2, 22760, Note_on_c, 0, 82, 80
2, 22809, Note_on_c, 0, 82, 0
2, 22811, Note_on_c, 0, 61, 80
2, 22811, Note_on_c, 0, 66, 80
2, 22816, Note_on_c, 0, 58, 80
2, 22860, Note_on_c, 0, 58, 0
2, 22865, Note_on_c, 0, 61, 0
2, 22865, Note_on_c, 0, 73, 0
2, 22865, Note_on_c, 0, 66, 0
2, 22867, Note_on_c, 0, 78, 0
2, 22867, Note_on_c, 0, 85, 0
2, 22867, Note_on_c, 0, 70, 80
2, 22869, Note_on_c, 0, 82, 80
2, 22918, Note_on_c, 0, 70, 0
2, 22920, Note_on_c, 0, 82, 0
2, 22920, Note_on_c, 0, 55, 80
2, 22921, Note_on_c, 0, 40, 80
2, 22926, Note_on_c, 0, 67, 80
2, 22926, Note_on_c, 0, 79, 80
2, 22972, Note_on_c, 0, 67, 0
2, 22977, Note_on_c, 0, 79, 0
2, 22977, Note_on_c, 0, 63, 80
2, 22977, Note_on_c, 0, 75, 80
2, 22999, Note_on_c, 0, 40, 0
2, 23001, Note_on_c, 0, 39, 80
2, 23025, Note_on_c, 0, 55, 0
2, 23027, Note_on_c, 0, 63, 0
2, 23027, Note_on_c, 0, 54, 80
2, 23029, Note_on_c, 0, 70, 80
2, 23029, Note_on_c, 0, 72, 80
2, 23029, Note_on_c, 0, 78, 80
2, 23029, Note_on_c, 0, 82, 80
2, 23051, Note_on_c, 0, 82, 0
2, 23051, Note_on_c, 0, 72, 0
2, 23051, Note_on_c, 0, 70, 0
2, 23051, Note_on_c, 0, 75, 0
2, 23051, Note_on_c, 0, 78, 0
2, 23080, Note_on_c, 0, 69, 80
2, 23085, Note_on_c, 0, 72, 80
2, 23085, Note_on_c, 0, 75, 80
2, 23085, Note_on_c, 0, 78, 80
2, 23085, Note_on_c, 0, 81, 80
2, 23129, Note_on_c, 0, 39, 0
2, 23136, Note_on_c, 0, 75, 0
2, 23136, Note_on_c, 0, 72, 0
2, 23136, Note_on_c, 0, 78, 0
2, 23136, Note_on_c, 0, 56, 80
2, 23136, Note_on_c, 0, 60, 80
2, 23136, Note_on_c, 0, 63, 80
2, 23136, Note_on_c, 0, 66, 80
2, 23156, Note_on_c, 0, 54, 0
2, 23184, Note_on_c, 0, 60, 0
2, 23184, Note_on_c, 0, 56, 0
2, 23186, Note_on_c, 0, 63, 0
2, 23186, Note_on_c, 0, 69, 0
2, 23186, Note_on_c, 0, 66, 0
2, 23186, Note_on_c, 0, 81, 0
2, 23186, Note_on_c, 0, 72, 80
2, 23186, Note_on_c, 0, 78, 80
2, 23188, Note_on_c, 0, 68, 80
2, 23188, Note_on_c, 0, 75, 80
2, 23193, Note_on_c, 0, 80, 80
2, 23237, Note_on_c, 0, 39, 80
2, 23239, Note_on_c, 0, 51, 80
2, 23339, Note_on_c, 0, 40, 80
2, 23339, Note_on_c, 0, 52, 80
2, 23359, Note_on_c, 0, 39, 0
2, 23364, Note_on_c, 0, 51, 0
2, 23388, Note_on_c, 0, 52, 0
2, 23393, Note_on_c, 0, 40, 0
2, 23395, Note_on_c, 0, 78, 0
2, 23395, Note_on_c, 0, 68, 0
2, 23395, Note_on_c, 0, 72, 0
2, 23395, Note_on_c, 0, 75, 0
2, 23395, Note_on_c, 0, 80, 0
2, 23454, Note_on_c, 0, 41, 80
2, 23454, Note_on_c, 0, 53, 80
2, 23456, Note_on_c, 0, 75, 80
2, 23456, Note_on_c, 0, 80, 80
2, 23456, Note_on_c, 0, 83, 80
2, 23461, Note_on_c, 0, 87, 80
2, 23478, Note_on_c, 0, 87, 0
2, 23478, Note_on_c, 0, 75, 0
2, 23478, Note_on_c, 0, 80, 0
2, 23480, Note_on_c, 0, 83, 0
2, 23507, Note_on_c, 0, 77, 80
2, 23507, Note_on_c, 0, 80, 80
2, 23507, Note_on_c, 0, 83, 80
2, 23507, Note_on_c, 0, 86, 80
2, 23509, Note_on_c, 0, 74, 80
2, 23529, Note_on_c, 0, 53, 0
2, 23553, Note_on_c, 0, 41, 0
2, 23555, Note_on_c, 0, 80, 0
2, 23555, Note_on_c, 0, 49, 80
2, 23557, Note_on_c, 0, 77, 0
2, 23557, Note_on_c, 0, 53, 80
2, 23557, Note_on_c, 0, 59, 80
2, 23559, Note_on_c, 0, 56, 80
2, 23561, Note_on_c, 0, 83, 0
2, 23581, Note_on_c, 0, 53, 0
2, 23581, Note_on_c, 0, 59, 0
2, 23598, Note_on_c, 0, 49, 0
2, 23598, Note_on_c, 0, 56, 0
2, 23600, Note_on_c, 0, 86, 0
2, 23600, Note_on_c, 0, 74, 0
2, 23605, Note_on_c, 0, 73, 80
2, 23605, Note_on_c, 0, 85, 80
2, 23607, Note_on_c, 0, 77, 80
2, 23607, Note_on_c, 0, 80, 80
2, 23609, Note_on_c, 0, 83, 80
2, 23653, Note_on_c, 0, 61, 80
2, 23655, Note_on_c, 0, 65, 80
2, 23657, Note_on_c, 0, 56, 80
2, 23659, Note_on_c, 0, 59, 80
2, 23749, Note_on_c, 0, 56, 0
2, 23749, Note_on_c, 0, 61, 0
2, 23749, Note_on_c, 0, 73, 0
2, 23749, Note_on_c, 0, 80, 0
2, 23751, Note_on_c, 0, 85, 0
2, 23751, Note_on_c, 0, 77, 0
2, 23753, Note_on_c, 0, 59, 0
2, 23753, Note_on_c, 0, 65, 0
2, 23753, Note_on_c, 0, 37, 80
2, 23755, Note_on_c, 0, 83, 0
2, 23755, Note_on_c, 0, 49, 80
2, 23850, Note_on_c, 0, 37, 0
2, 23856, Note_on_c, 0, 49, 0
2, 23856, Note_on_c, 0, 42, 80
2, 23858, Note_on_c, 0, 54, 80
2, 23918, Note_on_c, 0, 70, 80
2, 23935, Note_on_c, 0, 54, 0
2, 23962, Note_on_c, 0, 42, 0
2, 23967, Note_on_c, 0, 70, 0
2, 23967, Note_on_c, 0, 54, 80
2, 23967, Note_on_c, 0, 58, 80
2, 23967, Note_on_c, 0, 61, 80
2, 23969, Note_on_c, 0, 66, 80
2, 23969, Note_on_c, 0, 73, 80
2, 23991, Note_on_c, 0, 61, 0
2, 23993, Note_on_c, 0, 58, 0
2, 24013, Note_on_c, 0, 73, 0
2, 24013, Note_on_c, 0, 54, 0
2, 24020, Note_on_c, 0, 66, 0
2, 24022, Note_on_c, 0, 70, 80
2, 24071, Note_on_c, 0, 70, 0
2, 24071, Note_on_c, 0, 49, 80
2, 24075, Note_on_c, 0, 54, 80
2, 24075, Note_on_c, 0, 68, 80
2, 24077, Note_on_c, 0, 58, 80
2, 24095, Note_on_c, 0, 54, 0
2, 24095, Note_on_c, 0, 49, 0
2, 24123, Note_on_c, 0, 68, 0
2, 24123, Note_on_c, 0, 58, 0
2, 24125, Note_on_c, 0, 66, 80
2, 24176, Note_on_c, 0, 66, 0
2, 24181, Note_on_c, 0, 43, 80
2, 24181, Note_on_c, 0, 58, 80
2, 24183, Note_on_c, 0, 63, 80
2, 24229, Note_on_c, 0, 63, 0
2, 24234, Note_on_c, 0, 64, 80
2, 24283, Note_on_c, 0, 64, 0
2, 24283, Note_on_c, 0, 58, 0
2, 24283, Note_on_c, 0, 43, 0
2, 24283, Note_on_c, 0, 44, 80
2, 24285, Note_on_c, 0, 59, 80
2, 24285, Note_on_c, 0, 65, 80
2, 24334, Note_on_c, 0, 59, 0
2, 24338, Note_on_c, 0, 65, 0
2, 24340, Note_on_c, 0, 63, 80
2, 24340, Note_on_c, 0, 71, 80
2, 24340, Note_on_c, 0, 75, 80
2, 24358, Note_on_c, 0, 44, 0
2, 24386, Note_on_c, 0, 71, 0
2, 24388, Note_on_c, 0, 53, 80
2, 24388, Note_on_c, 0, 59, 80
2, 24388, Note_on_c, 0, 61, 80
2, 24410, Note_on_c, 0, 61, 0
2, 24412, Note_on_c, 0, 53, 0
2, 24412, Note_on_c, 0, 59, 0
2, 24439, Note_on_c, 0, 63, 0
2, 24439, Note_on_c, 0, 75, 0
2, 24439, Note_on_c, 0, 61, 80
2, 24441, Note_on_c, 0, 65, 80
2, 24441, Note_on_c, 0, 71, 80
2, 24441, Note_on_c, 0, 73, 80
2, 24494, Note_on_c, 0, 49, 80
2, 24496, Note_on_c, 0, 53, 80
2, 24498, Note_on_c, 0, 59, 80
2, 24515, Note_on_c, 0, 49, 0
2, 24537, Note_on_c, 0, 53, 0
2, 24539, Note_on_c, 0, 59, 0
2, 24544, Note_on_c, 0, 71, 0
2, 24544, Note_on_c, 0, 65, 0
2, 24566, Note_on_c, 0, 61, 0
2, 24595, Note_on_c, 0, 73, 0
2, 24595, Note_on_c, 0, 37, 80
2, 24595, Note_on_c, 0, 49, 80
2, 24668, Note_on_c, 0, 37, 0
2, 24695, Note_on_c, 0, 49, 0
2, 24703, Control_c, 0, 64, 127
2, 24703, Note_on_c, 0, 42, 80
2, 24708, Note_on_c, 0, 54, 80
2, 24754, Note_on_c, 0, 70, 80
2, 24763, Note_on_c, 0, 82, 80
2, 24776, Note_on_c, 0, 42, 0
2, 24803, Note_on_c, 0, 54, 0
2, 24805, Note_on_c, 0, 70, 0
2, 24805, Note_on_c, 0, 82, 0
2, 24807, Note_on_c, 0, 58, 80
2, 24807, Note_on_c, 0, 66, 80
2, 24807, Note_on_c, 0, 85, 80
2, 24809, Note_on_c, 0, 73, 80
2, 24811, Note_on_c, 0, 61, 80
2, 24816, Note_on_c, 0, 78, 80
2, 24829, Note_on_c, 0, 61, 0
2, 24829, Note_on_c, 0, 58, 0
2, 24831, Note_on_c, 0, 66, 0
2, 24855, Note_on_c, 0, 73, 0
2, 24855, Note_on_c, 0, 78, 0
2, 24855, Note_on_c, 0, 82, 80
2, 24860, Note_on_c, 0, 70, 80
2, 24880, Note_on_c, 0, 85, 0
2, 24911, Note_on_c, 0, 54, 80
2, 24911, Note_on_c, 0, 58, 80
2, 24911, Note_on_c, 0, 61, 80
2, 24912, Note_on_c, 0, 68, 80
2, 24912, Note_on_c, 0, 80, 80
2, 24930, Note_on_c, 0, 61, 0
2, 24930, Note_on_c, 0, 58, 0
2, 24930, Note_on_c, 0, 54, 0
2, 24930, Note_on_c, 0, 82, 0
2, 24935, Note_on_c, 0, 70, 0
2, 24935, Control_c, 0, 64, 0
2, 24955, Note_on_c, 0, 80, 0
2, 24961, Note_on_c, 0, 66, 80
2, 24961, Note_on_c, 0, 78, 80
2, 24984, Note_on_c, 0, 68, 0
2, 25008, Note_on_c, 0, 66, 0
2, 25008, Note_on_c, 0, 43, 80
2, 25009, Note_on_c, 0, 55, 80
2, 25009, Note_on_c, 0, 63, 80
2, 25014, Note_on_c, 0, 75, 80
2, 25032, Note_on_c, 0, 78, 0
2, 25062, Note_on_c, 0, 64, 80
2, 25062, Note_on_c, 0, 76, 80
2, 25086, Note_on_c, 0, 63, 0
2, 25086, Note_on_c, 0, 75, 0
2, 25086, Note_on_c, 0, 55, 0
2, 25110, Note_on_c, 0, 43, 0
2, 25112, Note_on_c, 0, 41, 80
2, 25114, Note_on_c, 0, 65, 80
2, 25114, Note_on_c, 0, 77, 80
2, 25116, Note_on_c, 0, 56, 80
2, 25136, Note_on_c, 0, 64, 0
2, 25136, Note_on_c, 0, 76, 0
2, 25158, Note_on_c, 0, 56, 0
2, 25165, Note_on_c, 0, 65, 0
2, 25167, Note_on_c, 0, 75, 80
2, 25167, Note_on_c, 0, 83, 80
2, 25167, Note_on_c, 0, 87, 80
2, 25211, Note_on_c, 0, 41, 0
2, 25213, Note_on_c, 0, 87, 0
2, 25213, Note_on_c, 0, 75, 0
2, 25215, Note_on_c, 0, 65, 80
2, 25217, Note_on_c, 0, 77, 0
2, 25217, Note_on_c, 0, 83, 0
2, 25217, Note_on_c, 0, 56, 80
2, 25217, Note_on_c, 0, 61, 80
2, 25219, Note_on_c, 0, 59, 80
2, 25236, Note_on_c, 0, 59, 0
2, 25241, Note_on_c, 0, 65, 0
2, 25261, Note_on_c, 0, 56, 0
2, 25263, Note_on_c, 0, 61, 0
2, 25270, Note_on_c, 0, 73, 80
2, 25270, Note_on_c, 0, 83, 80
2, 25270, Note_on_c, 0, 85, 80
2, 25272, Note_on_c, 0, 77, 80
2, 25318, Note_on_c, 0, 77, 0
2, 25318, Note_on_c, 0, 73, 0
2, 25318, Note_on_c, 0, 83, 0
2, 25318, Note_on_c, 0, 56, 80
2, 25320, Note_on_c, 0, 85, 0
2, 25320, Note_on_c, 0, 61, 80
2, 25324, Note_on_c, 0, 53, 80
2, 25324, Note_on_c, 0, 59, 80
2, 25340, Note_on_c, 0, 53, 0
2, 25342, Note_on_c, 0, 61, 0
2, 25368, Note_on_c, 0, 56, 0
2, 25370, Note_on_c, 0, 59, 0
2, 25379, Note_on_c, 0, 73, 80
2, 25379, Note_on_c, 0, 77, 80
2, 25379, Note_on_c, 0, 83, 80
2, 25379, Note_on_c, 0, 85, 80
2, 25423, Note_on_c, 0, 73, 0
2, 25428, Note_on_c, 0, 77, 0
2, 25428, Note_on_c, 0, 83, 0
2, 25428, Note_on_c, 0, 85, 0
2, 25428, Note_on_c, 0, 87, 80
2, 25430, Note_on_c, 0, 75, 80
2, 25474, Note_on_c, 0, 75, 0
2, 25474, Note_on_c, 0, 87, 0
2, 25483, Note_on_c, 0, 77, 80
2, 25483, Note_on_c, 0, 89, 80
2, 25529, Note_on_c, 0, 89, 0
2, 25529, Note_on_c, 0, 77, 0
2, 25534, Control_c, 0, 64, 127
2, 25536, Note_on_c, 0, 63, 80
2, 25536, Note_on_c, 0, 66, 80
2, 25536, Note_on_c, 0, 71, 80
2, 25536, Note_on_c, 0, 78, 80
2, 25536, Note_on_c, 0, 87, 80
2, 25536, Note_on_c, 0, 90, 80
2, 25584, Note_on_c, 0, 90, 0
2, 25584, Note_on_c, 0, 66, 0
2, 25584, Note_on_c, 0, 71, 0
2, 25584, Note_on_c, 0, 63, 0
2, 25584, Note_on_c, 0, 87, 0
2, 25584, Note_on_c, 0, 78, 0
2, 25591, Note_on_c, 0, 83, 80
2, 25640, Note_on_c, 0, 83, 0
2, 25640, Note_on_c, 0, 71, 80
2, 25642, Note_on_c, 0, 59, 80
2, 25642, Note_on_c, 0, 63, 80
2, 25642, Note_on_c, 0, 66, 80
2, 25642, Note_on_c, 0, 75, 80
2, 25647, Note_on_c, 0, 87, 80
2, 25693, Note_on_c, 0, 87, 0
2, 25693, Note_on_c, 0, 59, 0
2, 25693, Note_on_c, 0, 63, 0
2, 25693, Note_on_c, 0, 71, 0
2, 25693, Note_on_c, 0, 75, 0
2, 25693, Note_on_c, 0, 66, 0
2, 25700, Note_on_c, 0, 77, 80
2, 25700, Note_on_c, 0, 89, 80
2, 25751, Note_on_c, 0, 63, 80
2, 25752, Note_on_c, 0, 59, 80
2, 25752, Note_on_c, 0, 68, 80
2, 25799, Note_on_c, 0, 68, 0
2, 25799, Note_on_c, 0, 63, 0
2, 25799, Note_on_c, 0, 77, 0
2, 25799, Note_on_c, 0, 89, 0
2, 25799, Note_on_c, 0, 59, 0
2, 25800, Note_on_c, 0, 71, 80
2, 25805, Note_on_c, 0, 83, 80
2, 25851, Note_on_c, 0, 71, 0
2, 25853, Note_on_c, 0, 83, 0
2, 25853, Note_on_c, 0, 60, 80
2, 25855, Note_on_c, 0, 57, 80
2, 25855, Note_on_c, 0, 66, 80
2, 25855, Note_on_c, 0, 75, 80
2, 25855, Note_on_c, 0, 87, 80
2, 25899, Note_on_c, 0, 60, 0
2, 25901, Note_on_c, 0, 75, 0
2, 25901, Note_on_c, 0, 66, 0
2, 25901, Control_c, 0, 64, 0
2, 25903, Note_on_c, 0, 87, 0
2, 25905, Note_on_c, 0, 69, 80
2, 25905, Note_on_c, 0, 81, 80
2, 25925, Note_on_c, 0, 57, 0
2, 25952, Note_on_c, 0, 81, 0
2, 25954, Note_on_c, 0, 69, 0
2, 25961, Note_on_c, 0, 58, 80
2, 25961, Note_on_c, 0, 61, 80
2, 25961, Note_on_c, 0, 66, 80
2, 25961, Note_on_c, 0, 70, 80
2, 25961, Note_on_c, 0, 73, 80
2, 25961, Note_on_c, 0, 78, 80
2, 25961, Note_on_c, 0, 85, 80
2, 26000, Note_on_c, 0, 61, 0
2, 26002, Note_on_c, 0, 73, 0
2, 26004, Note_on_c, 0, 78, 0
2, 26006, Note_on_c, 0, 70, 0
2, 26006, Note_on_c, 0, 58, 0
2, 26006, Note_on_c, 0, 66, 0
2, 26006, Note_on_c, 0, 85, 0
2, 26015, Note_on_c, 0, 82, 80
2, 26061, Note_on_c, 0, 82, 0
2, 26061, Note_on_c, 0, 66, 80
2, 26065, Note_on_c, 0, 57, 80
2, 26065, Note_on_c, 0, 60, 80
2, 26065, Note_on_c, 0, 69, 80
2, 26065, Note_on_c, 0, 75, 80
2, 26065, Note_on_c, 0, 87, 80
2, 26108, Note_on_c, 0, 60, 0
2, 26108, Note_on_c, 0, 57, 0
2, 26110, Note_on_c, 0, 69, 0
2, 26110, Note_on_c, 0, 66, 0
2, 26110, Note_on_c, 0, 87, 0
2, 26110, Note_on_c, 0, 75, 0
2, 26116, Note_on_c, 0, 73, 80
2, 26116, Note_on_c, 0, 78, 80
2, 26116, Note_on_c, 0, 82, 80
2, 26116, Note_on_c, 0, 85, 80
2, 26160, Note_on_c, 0, 82, 0
2, 26167, Note_on_c, 0, 58, 80
2, 26167, Note_on_c, 0, 61, 80
2, 26167, Note_on_c, 0, 66, 80
2, 26216, Note_on_c, 0, 66, 0
2, 26216, Note_on_c, 0, 78, 0
2, 26216, Note_on_c, 0, 73, 0
2, 26216, Note_on_c, 0, 58, 0
2, 26216, Note_on_c, 0, 61, 0
2, 26218, Note_on_c, 0, 85, 0
2, 26218, Note_on_c, 0, 70, 80
2, 26245, Note_on_c, 0, 82, 80
2, 26267, Note_on_c, 0, 82, 0
2, 26267, Note_on_c, 0, 70, 0
2, 26267, Note_on_c, 0, 40, 80
2, 26269, Note_on_c, 0, 55, 80
2, 26271, Note_on_c, 0, 67, 80
2, 26276, Note_on_c, 0, 79, 80
2, 26320, Note_on_c, 0, 79, 0
2, 26320, Note_on_c, 0, 67, 0
2, 26322, Note_on_c, 0, 63, 80
2, 26324, Note_on_c, 0, 75, 80
2, 26341, Note_on_c, 0, 40, 0
2, 26363, Note_on_c, 0, 63, 0
2, 26370, Note_on_c, 0, 55, 0
2, 26372, Note_on_c, 0, 75, 0
2, 26374, Note_on_c, 0, 44, 80
2, 26374, Note_on_c, 0, 56, 80
2, 26374, Note_on_c, 0, 71, 80
2, 26374, Note_on_c, 0, 80, 80
2, 26374, Note_on_c, 0, 83, 80
2, 26423, Note_on_c, 0, 56, 0
2, 26424, Note_on_c, 0, 75, 80
2, 26471, Note_on_c, 0, 44, 0
2, 26472, Note_on_c, 0, 75, 0
2, 26477, Note_on_c, 0, 56, 80
2, 26477, Note_on_c, 0, 63, 80
2, 26479, Note_on_c, 0, 59, 80
2, 26481, Note_on_c, 0, 74, 80
2, 26495, Note_on_c, 0, 56, 0
2, 26499, Note_on_c, 0, 63, 0
2, 26499, Note_on_c, 0, 59, 0
2, 26523, Note_on_c, 0, 80, 0
2, 26523, Note_on_c, 0, 71, 0
2, 26528, Note_on_c, 0, 83, 0
2, 26528, Note_on_c, 0, 74, 0
2, 26528, Note_on_c, 0, 73, 80
2, 26530, Note_on_c, 0, 70, 80
2, 26530, Note_on_c, 0, 77, 80
2, 26530, Note_on_c, 0, 82, 80
2, 26579, Note_on_c, 0, 37, 80
2, 26581, Note_on_c, 0, 49, 80
2, 26632, Note_on_c, 0, 77, 0
2, 26632, Note_on_c, 0, 73, 0
2, 26632, Note_on_c, 0, 70, 0
2, 26634, Note_on_c, 0, 72, 80
2, 26656, Note_on_c, 0, 49, 0
2, 26680, Note_on_c, 0, 37, 0
2, 26685, Note_on_c, 0, 82, 0
2, 26685, Note_on_c, 0, 72, 0
2, 26685, Note_on_c, 0, 65, 80
2, 26685, Note_on_c, 0, 68, 80
2, 26689, Note_on_c, 0, 56, 80
2, 26689, Note_on_c, 0, 59, 80
2, 26689, Note_on_c, 0, 61, 80
2, 26689, Note_on_c, 0, 71, 80
2, 26689, Note_on_c, 0, 77, 80
2, 26691, Note_on_c, 0, 80, 80
2, 26786, Note_on_c, 0, 61, 0
2, 26786, Note_on_c, 0, 56, 0
2, 26788, Note_on_c, 0, 71, 0
2, 26788, Note_on_c, 0, 68, 0
2, 26788, Note_on_c, 0, 59, 0
2, 26788, Note_on_c, 0, 80, 0
2, 26788, Note_on_c, 0, 77, 0
2, 26788, Note_on_c, 0, 65, 0
2, 26788, Note_on_c, 0, 42, 80
2, 26788, Note_on_c, 0, 49, 80
2, 26788, Note_on_c, 0, 58, 80
2, 26790, Note_on_c, 0, 66, 80
2, 26790, Note_on_c, 0, 70, 80
2, 26790, Note_on_c, 0, 78, 80
2, 26795, Note_on_c, 0, 73, 80
2, 26839, Note_on_c, 0, 49, 0
2, 26890, Note_on_c, 0, 42, 0
2, 26892, Note_on_c, 0, 58, 0
2, 26897, Note_on_c, 0, 49, 80
2, 26902, Note_on_c, 0, 37, 80
2, 26944, Note_on_c, 0, 37, 0
2, 26949, Note_on_c, 0, 49, 0
2, 27001, Note_on_c, 0, 73, 0
2, 27001, Note_on_c, 0, 66, 0
2, 27001, Note_on_c, 0, 78, 0
2, 27001, Note_on_c, 0, 70, 0
2, 27003, Note_on_c, 0, 30, 80
2, 27003, Note_on_c, 0, 42, 80
2, 27078, Note_on_c, 0, 42, 0
2, 27105, Note_on_c, 0, 30, 0
2, 27220, Control_c, 0, 64, 127
2, 27225, Note_on_c, 0, 54, 80
2, 27227, Note_on_c, 0, 58, 80
2, 27227, Note_on_c, 0, 61, 80
2, 27227, Note_on_c, 0, 64, 80
2, 27227, Note_on_c, 0, 66, 80
2, 27227, Note_on_c, 0, 78, 80
2, 27244, Note_on_c, 0, 61, 0
2, 27244, Note_on_c, 0, 54, 0
2, 27246, Note_on_c, 0, 64, 0
2, 27246, Note_on_c, 0, 58, 0
2, 27246, Note_on_c, 0, 66, 0
2, 27277, Note_on_c, 0, 54, 80
2, 27277, Note_on_c, 0, 61, 80
2, 27279, Note_on_c, 0, 58, 80
2, 27279, Note_on_c, 0, 64, 80
2, 27279, Note_on_c, 0, 67, 80
2, 27279, Note_on_c, 0, 73, 80
2, 27279, Note_on_c, 0, 76, 80
2, 27279, Note_on_c, 0, 79, 80
2, 27301, Note_on_c, 0, 78, 0
2, 27325, Note_on_c, 0, 76, 0
2, 27325, Note_on_c, 0, 64, 0
2, 27325, Note_on_c, 0, 67, 0
2, 27325, Note_on_c, 0, 61, 0
2, 27325, Note_on_c, 0, 58, 0
2, 27325, Note_on_c, 0, 54, 0
2, 27325, Note_on_c, 0, 73, 0
2, 27327, Note_on_c, 0, 79, 0
2, 27351, Control_c, 0, 64, 0
2, 27378, Note_on_c, 0, 64, 80
2, 27378, Note_on_c, 0, 68, 80
2, 27380, Note_on_c, 0, 56, 80
2, 27382, Note_on_c, 0, 58, 80
2, 27382, Note_on_c, 0, 61, 80
2, 27382, Note_on_c, 0, 73, 80
2, 27382, Note_on_c, 0, 80, 80
2, 27384, Note_on_c, 0, 76, 80
2, 27528, Note_on_c, 0, 80, 0
2, 27528, Note_on_c, 0, 58, 0
2, 27528, Note_on_c, 0, 61, 0
2, 27528, Note_on_c, 0, 64, 0
2, 27528, Note_on_c, 0, 68, 0
2, 27528, Note_on_c, 0, 73, 0
2, 27529, Note_on_c, 0, 76, 0
2, 27552, Note_on_c, 0, 56, 0
2, 27638, Control_c, 0, 64, 127
2, 27638, Note_on_c, 0, 70, 80
2, 27640, Note_on_c, 0, 66, 80
2, 27640, Note_on_c, 0, 73, 80
2, 27640, Note_on_c, 0, 76, 80
2, 27640, Note_on_c, 0, 78, 80
2, 27640, Note_on_c, 0, 90, 80
2, 27657, Note_on_c, 0, 78, 0
2, 27657, Note_on_c, 0, 76, 0
2, 27657, Note_on_c, 0, 73, 0
2, 27657, Note_on_c, 0, 70, 0
2, 27657, Note_on_c, 0, 66, 0
2, 27681, Note_on_c, 0, 90, 0
2, 27688, Note_on_c, 0, 70, 80
2, 27688, Note_on_c, 0, 73, 80
2, 27690, Note_on_c, 0, 66, 80
2, 27690, Note_on_c, 0, 76, 80
2, 27690, Note_on_c, 0, 79, 80
2, 27690, Note_on_c, 0, 85, 80
2, 27690, Note_on_c, 0, 88, 80
2, 27701, Note_on_c, 0, 91, 80
2, 27732, Note_on_c, 0, 91, 0
2, 27732, Note_on_c, 0, 88, 0
2, 27732, Note_on_c, 0, 73, 0
2, 27734, Note_on_c, 0, 70, 0
2, 27736, Note_on_c, 0, 79, 0
2, 27736, Note_on_c, 0, 76, 0
2, 27736, Note_on_c, 0, 85, 0
2, 27736, Note_on_c, 0, 66, 0
2, 27760, Control_c, 0, 64, 0
2, 27782, Note_on_c, 0, 73, 80
2, 27782, Note_on_c, 0, 80, 80
2, 27784, Note_on_c, 0, 68, 80
2, 27784, Note_on_c, 0, 85, 80
2, 27786, Note_on_c, 0, 70, 80
2, 27786, Note_on_c, 0, 92, 80
2, 27788, Note_on_c, 0, 76, 80
2, 27788, Note_on_c, 0, 88, 80
2, 27883, Note_on_c, 0, 76, 0
2, 27883, Note_on_c, 0, 92, 0
2, 27912, Note_on_c, 0, 85, 0
2, 27912, Note_on_c, 0, 70, 0
2, 27938, Note_on_c, 0, 80, 0
2, 27965, Note_on_c, 0, 88, 0
2, 27965, Note_on_c, 0, 68, 0
2, 27965, Note_on_c, 0, 73, 0
2, 27994, Note_on_c, 0, 66, 80
2, 27996, Note_on_c, 0, 54, 80
2, 27998, Note_on_c, 0, 78, 80
2, 28051, Note_on_c, 0, 56, 80
2, 28051, Note_on_c, 0, 80, 80
2, 28053, Note_on_c, 0, 68, 80
2, 28068, Note_on_c, 0, 54, 0
2, 28070, Note_on_c, 0, 66, 0
2, 28070, Note_on_c, 0, 78, 0
2, 28101, Note_on_c, 0, 56, 0
2, 28103, Note_on_c, 0, 80, 0
2, 28103, Note_on_c, 0, 68, 0
2, 28103, Note_on_c, 0, 57, 80
2, 28103, Note_on_c, 0, 69, 80
2, 28104, Note_on_c, 0, 81, 80
2, 28157, Note_on_c, 0, 70, 80
2, 28159, Note_on_c, 0, 82, 80
2, 28161, Note_on_c, 0, 58, 80
2, 28178, Note_on_c, 0, 69, 0
2, 28178, Note_on_c, 0, 57, 0
2, 28180, Note_on_c, 0, 81, 0
2, 28311, Note_on_c, 0, 70, 0
2, 28311, Note_on_c, 0, 58, 0
2, 28311, Note_on_c, 0, 51, 80
2, 28313, Note_on_c, 0, 82, 0
2, 28313, Note_on_c, 0, 63, 80
2, 28313, Note_on_c, 0, 75, 80
2, 28313, Note_on_c, 0, 78, 80
2, 28313, Note_on_c, 0, 81, 80
2, 28315, Note_on_c, 0, 57, 80
2, 28317, Note_on_c, 0, 87, 80
2, 28361, Note_on_c, 0, 78, 0
2, 28418, Note_on_c, 0, 57, 0
2, 28418, Note_on_c, 0, 63, 0
2, 28418, Note_on_c, 0, 75, 0
2, 28418, Note_on_c, 0, 51, 0
2, 28418, Note_on_c, 0, 87, 0
2, 28418, Note_on_c, 0, 81, 0
2, 28420, Control_c, 0, 64, 127
2, 28422, Note_on_c, 0, 64, 80
2, 28424, Note_on_c, 0, 54, 80
2, 28424, Note_on_c, 0, 58, 80
2, 28424, Note_on_c, 0, 61, 80
2, 28424, Note_on_c, 0, 73, 80
2, 28424, Note_on_c, 0, 78, 80
2, 28424, Note_on_c, 0, 82, 80
2, 28424, Note_on_c, 0, 85, 80
2, 28426, Note_on_c, 0, 76, 80
2, 28494, Note_on_c, 0, 73, 0
2, 28499, Note_on_c, 0, 58, 0
2, 28499, Note_on_c, 0, 82, 0
2, 28499, Note_on_c, 0, 64, 0
2, 28519, Note_on_c, 0, 54, 0
2, 28524, Note_on_c, 0, 61, 0
2, 28553, Note_on_c, 0, 85, 0
2, 28580, Note_on_c, 0, 78, 0
2, 28580, Note_on_c, 0, 76, 0
2, 28580, Control_c, 0, 64, 0
2, 28639, Note_on_c, 0, 42, 80
2, 28639, Note_on_c, 0, 49, 80
2, 28639, Note_on_c, 0, 58, 80
2, 28639, Note_on_c, 0, 78, 80
2, 28639, Note_on_c, 0, 82, 80
2, 28639, Note_on_c, 0, 85, 80
2, 28639, Note_on_c, 0, 90, 80
2, 28736, Note_on_c, 0, 42, 0
2, 28738, Note_on_c, 0, 82, 0
2, 28738, Note_on_c, 0, 90, 0
2, 28760, Note_on_c, 0, 49, 0
2, 28762, Note_on_c, 0, 78, 0
2, 28762, Note_on_c, 0, 58, 0
2, 28789, Note_on_c, 0, 85, 0
2, 28847, Note_on_c, 0, 35, 80
2, 28847, Note_on_c, 0, 47, 80
2, 28848, Note_on_c, 0, 75, 80
2, 28906, Note_on_c, 0, 66, 80
2, 28921, Note_on_c, 0, 35, 0
2, 28923, Note_on_c, 0, 75, 0
2, 28950, Note_on_c, 0, 47, 0
2, 28955, Note_on_c, 0, 66, 0
2, 28960, Note_on_c, 0, 54, 80
2, 28962, Note_on_c, 0, 59, 80
2, 28962, Note_on_c, 0, 63, 80
2, 28962, Note_on_c, 0, 68, 80
2, 28979, Note_on_c, 0, 63, 0
2, 28979, Note_on_c, 0, 54, 0
2, 29010, Note_on_c, 0, 59, 0
2, 29012, Note_on_c, 0, 70, 80
2, 29058, Note_on_c, 0, 70, 0
2, 29058, Note_on_c, 0, 39, 80
2, 29060, Note_on_c, 0, 51, 80
2, 29060, Note_on_c, 0, 71, 80
2, 29084, Note_on_c, 0, 68, 0
2, 29117, Note_on_c, 0, 73, 80
2, 29135, Note_on_c, 0, 51, 0
2, 29157, Note_on_c, 0, 39, 0
2, 29159, Note_on_c, 0, 71, 0
2, 29159, Note_on_c, 0, 73, 0
2, 29159, Note_on_c, 0, 37, 80
2, 29163, Note_on_c, 0, 49, 80
2, 29168, Note_on_c, 0, 74, 80
2, 29217, Note_on_c, 0, 74, 0
2, 29219, Note_on_c, 0, 63, 80
2, 29219, Note_on_c, 0, 66, 80
2, 29219, Note_on_c, 0, 72, 80
2, 29219, Note_on_c, 0, 75, 80
2, 29234, Note_on_c, 0, 37, 0
2, 29268, Note_on_c, 0, 49, 0
2, 29268, Note_on_c, 0, 36, 80
2, 29270, Note_on_c, 0, 48, 80
2, 29319, Note_on_c, 0, 72, 0
2, 29319, Note_on_c, 0, 63, 0
2, 29319, Note_on_c, 0, 66, 0
2, 29319, Note_on_c, 0, 75, 0
2, 29326, Note_on_c, 0, 78, 80
2, 29341, Note_on_c, 0, 36, 0
2, 29343, Note_on_c, 0, 48, 0
2, 29372, Note_on_c, 0, 78, 0
2, 29372, Note_on_c, 0, 56, 80
2, 29372, Note_on_c, 0, 60, 80
2, 29374, Note_on_c, 0, 66, 80
2, 29378, Note_on_c, 0, 80, 80
2, 29396, Note_on_c, 0, 60, 0
2, 29420, Note_on_c, 0, 56, 0
2, 29422, Note_on_c, 0, 80, 0
2, 29426, Note_on_c, 0, 72, 80
2, 29428, Note_on_c, 0, 70, 80
2, 29428, Note_on_c, 0, 75, 80
2, 29428, Note_on_c, 0, 78, 80
2, 29428, Note_on_c, 0, 82, 80
2, 29452, Note_on_c, 0, 66, 0
2, 29476, Note_on_c, 0, 44, 80
2, 29478, Note_on_c, 0, 56, 80
2, 29524, Note_on_c, 0, 78, 0
2, 29524, Note_on_c, 0, 72, 0
2, 29524, Note_on_c, 0, 75, 0
2, 29524, Note_on_c, 0, 70, 0
2, 29575, Note_on_c, 0, 44, 0
2, 29575, Note_on_c, 0, 56, 0
2, 29580, Note_on_c, 0, 82, 0
2, 29582, Control_c, 0, 64, 127
2, 29584, Note_on_c, 0, 42, 80
2, 29584, Note_on_c, 0, 54, 80
2, 29584, Note_on_c, 0, 68, 80
2, 29584, Note_on_c, 0, 72, 80
2, 29584, Note_on_c, 0, 78, 80
2, 29584, Note_on_c, 0, 80, 80
2, 29635, Note_on_c, 0, 80, 0
2, 29635, Note_on_c, 0, 68, 0
2, 29686, Note_on_c, 0, 42, 0
2, 29686, Note_on_c, 0, 54, 0
2, 29688, Note_on_c, 0, 78, 0
2, 29692, Note_on_c, 0, 72, 0
2, 29692, Note_on_c, 0, 41, 80
2, 29694, Note_on_c, 0, 56, 80
2, 29694, Note_on_c, 0, 68, 80
2, 29694, Note_on_c, 0, 71, 80
2, 29694, Note_on_c, 0, 73, 80
2, 29694, Note_on_c, 0, 77, 80
2, 29694, Note_on_c, 0, 80, 80
2, 29714, Control_c, 0, 64, 0
2, 29738, Note_on_c, 0, 68, 0
2, 29743, Note_on_c, 0, 77, 0
2, 29743, Note_on_c, 0, 73, 0
2, 29743, Note_on_c, 0, 71, 0
2, 29743, Note_on_c, 0, 80, 0
2, 29745, Note_on_c, 0, 70, 80
2, 29747, Note_on_c, 0, 82, 80
2, 29767, Note_on_c, 0, 56, 0
2, 29789, Note_on_c, 0, 41, 0
2, 29796, Note_on_c, 0, 70, 0
2, 29796, Note_on_c, 0, 82, 0
2, 29798, Note_on_c, 0, 59, 80
2, 29798, Note_on_c, 0, 65, 80
2, 29798, Note_on_c, 0, 68, 80
2, 29798, Note_on_c, 0, 71, 80
2, 29798, Note_on_c, 0, 83, 80
2, 29820, Note_on_c, 0, 83, 0
2, 29820, Note_on_c, 0, 59, 0
2, 29820, Note_on_c, 0, 68, 0
2, 29820, Note_on_c, 0, 65, 0
2, 29844, Note_on_c, 0, 71, 0
2, 29846, Note_on_c, 0, 75, 80
2, 29848, Note_on_c, 0, 77, 80
2, 29848, Note_on_c, 0, 83, 80
2, 29853, Note_on_c, 0, 87, 80
2, 29897, Note_on_c, 0, 49, 80
2, 29899, Note_on_c, 0, 61, 80
2, 29950, Note_on_c, 0, 83, 0
2, 29950, Note_on_c, 0, 77, 0
2, 30000, Note_on_c, 0, 87, 0
2, 30000, Note_on_c, 0, 49, 0
2, 30000, Note_on_c, 0, 61, 0
2, 30002, Note_on_c, 0, 75, 0
2, 30007, Note_on_c, 0, 47, 80
2, 30007, Note_on_c, 0, 59, 80
2, 30007, Note_on_c, 0, 73, 80
2, 30007, Note_on_c, 0, 77, 80
2, 30007, Note_on_c, 0, 80, 80
2, 30007, Note_on_c, 0, 83, 80
2, 30007, Note_on_c, 0, 85, 80
2, 30056, Note_on_c, 0, 73, 0
2, 30056, Note_on_c, 0, 37, 80
2, 30058, Note_on_c, 0, 85, 0
2, 30102, Note_on_c, 0, 47, 0
2, 30104, Note_on_c, 0, 80, 0
2, 30104, Note_on_c, 0, 59, 0
2, 30104, Note_on_c, 0, 52, 80
2, 30106, Note_on_c, 0, 77, 0
2, 30106, Note_on_c, 0, 83, 0
2, 30111, Note_on_c, 0, 73, 80
2, 30111, Note_on_c, 0, 78, 80
2, 30111, Note_on_c, 0, 82, 80
2, 30111, Note_on_c, 0, 85, 80
2, 30153, Note_on_c, 0, 73, 0
2, 30158, Note_on_c, 0, 82, 0
2, 30158, Note_on_c, 0, 78, 0
2, 30158, Note_on_c, 0, 85, 0
2, 30160, Note_on_c, 0, 75, 80
2, 30165, Note_on_c, 0, 87, 80
2, 30202, Note_on_c, 0, 37, 0
2, 30207, Note_on_c, 0, 52, 0
2, 30209, Note_on_c, 0, 75, 0
2, 30209, Note_on_c, 0, 87, 0
2, 30209, Note_on_c, 0, 54, 80
2, 30209, Note_on_c, 0, 61, 80
2, 30211, Note_on_c, 0, 58, 80
2, 30211, Note_on_c, 0, 64, 80
2, 30211, Note_on_c, 0, 76, 80
2, 30216, Note_on_c, 0, 88, 80
2, 30233, Note_on_c, 0, 88, 0
2, 30233, Note_on_c, 0, 54, 0
2, 30233, Note_on_c, 0, 61, 0
2, 30260, Note_on_c, 0, 64, 0
2, 30260, Note_on_c, 0, 76, 0
2, 30260, Note_on_c, 0, 58, 0
2, 30264, Control_c, 0, 64, 127
2, 30264, Note_on_c, 0, 92, 80
2, 30266, Note_on_c, 0, 80, 80
2, 30266, Note_on_c, 0, 88, 80
2, 30271, Note_on_c, 0, 82, 80
2, 30315, Note_on_c, 0, 42, 80
2, 30315, Note_on_c, 0, 54, 80
2, 30364, Note_on_c, 0, 82, 0
2, 30364, Note_on_c, 0, 88, 0
2, 30364, Note_on_c, 0, 92, 0
2, 30388, Note_on_c, 0, 80, 0
2, 30408, Note_on_c, 0, 42, 0
2, 30410, Note_on_c, 0, 52, 80
2, 30412, Note_on_c, 0, 54, 0
2, 30414, Control_c, 0, 64, 0
2, 30414, Note_on_c, 0, 40, 80
2, 30414, Note_on_c, 0, 88, 80
2, 30416, Note_on_c, 0, 85, 80
2, 30416, Note_on_c, 0, 91, 80
2, 30418, Note_on_c, 0, 79, 80
2, 30489, Note_on_c, 0, 39, 80
2, 30506, Note_on_c, 0, 40, 0
2, 30508, Note_on_c, 0, 52, 0
2, 30510, Note_on_c, 0, 91, 0
2, 30510, Note_on_c, 0, 88, 0
2, 30512, Note_on_c, 0, 85, 0
2, 30512, Note_on_c, 0, 79, 0
2, 30512, Note_on_c, 0, 54, 80
2, 30512, Note_on_c, 0, 71, 80
2, 30514, Note_on_c, 0, 66, 80
2, 30514, Note_on_c, 0, 75, 80
2, 30516, Note_on_c, 0, 78, 80
2, 30560, Note_on_c, 0, 54, 0
2, 30562, Note_on_c, 0, 71, 0
2, 30562, Note_on_c, 0, 66, 0
2, 30562, Note_on_c, 0, 75, 0
2, 30562, Note_on_c, 0, 78, 0
2, 30586, Note_on_c, 0, 39, 0
2, 30620, Note_on_c, 0, 71, 80
2, 30622, Note_on_c, 0, 59, 80
2, 30622, Note_on_c, 0, 63, 80
2, 30622, Note_on_c, 0, 66, 80
2, 30622, Note_on_c, 0, 75, 80
2, 30622, Note_on_c, 0, 78, 80
2, 30622, Note_on_c, 0, 83, 80
2, 30642, Note_on_c, 0, 66, 0
2, 30642, Note_on_c, 0, 63, 0
2, 30647, Note_on_c, 0, 59, 0
2, 30671, Note_on_c, 0, 71, 0
2, 30671, Note_on_c, 0, 78, 0
2, 30671, Note_on_c, 0, 38, 80
2, 30672, Note_on_c, 0, 83, 0
2, 30695, Note_on_c, 0, 75, 0
2, 30725, Note_on_c, 0, 53, 80
2, 30727, Note_on_c, 0, 70, 80
2, 30727, Note_on_c, 0, 74, 80
2, 30727, Note_on_c, 0, 82, 80
2, 30729, Note_on_c, 0, 77, 80
2, 30771, Note_on_c, 0, 77, 0
2, 30773, Note_on_c, 0, 74, 0
2, 30795, Note_on_c, 0, 38, 0
2, 30826, Note_on_c, 0, 53, 0
2, 30828, Note_on_c, 0, 70, 0
2, 30828, Note_on_c, 0, 82, 0
2, 30828, Note_on_c, 0, 56, 80
2, 30828, Note_on_c, 0, 62, 80
2, 30828, Note_on_c, 0, 71, 80
2, 30830, Note_on_c, 0, 59, 80
2, 30830, Note_on_c, 0, 65, 80
2, 30830, Note_on_c, 0, 68, 80
2, 30830, Note_on_c, 0, 77, 80
2, 30832, Note_on_c, 0, 74, 80
2, 30832, Note_on_c, 0, 80, 80
2, 30874, Note_on_c, 0, 62, 0
2, 30874, Note_on_c, 0, 56, 0
2, 30876, Note_on_c, 0, 77, 0
2, 30876, Note_on_c, 0, 68, 0
2, 30876, Note_on_c, 0, 71, 0
2, 30878, Note_on_c, 0, 37, 80
2, 30902, Note_on_c, 0, 80, 0
2, 30904, Note_on_c, 0, 59, 0
2, 30909, Note_on_c, 0, 74, 0
2, 30933, Note_on_c, 0, 65, 0
2, 30935, Note_on_c, 0, 52, 80
2, 30936, Note_on_c, 0, 69, 80
2, 30936, Note_on_c, 0, 81, 80
2, 30985, Note_on_c, 0, 81, 0
2, 30985, Note_on_c, 0, 69, 0
2, 30987, Note_on_c, 0, 70, 80
2, 30987, Note_on_c, 0, 73, 80
2, 30989, Note_on_c, 0, 82, 80
2, 30994, Note_on_c, 0, 76, 80
2, 31009, Note_on_c, 0, 37, 0
2, 31036, Note_on_c, 0, 52, 0
2, 31038, Note_on_c, 0, 76, 0
2, 31040, Note_on_c, 0, 64, 80
2, 31045, Note_on_c, 0, 54, 80
2, 31045, Note_on_c, 0, 58, 80
2, 31045, Note_on_c, 0, 61, 80
2, 31062, Note_on_c, 0, 58, 0
2, 31064, Note_on_c, 0, 82, 0
2, 31064, Note_on_c, 0, 64, 0
2, 31088, Note_on_c, 0, 54, 0
2, 31088, Note_on_c, 0, 73, 0
2, 31088, Note_on_c, 0, 70, 0
2, 31088, Note_on_c, 0, 61, 0
2, 31090, Control_c, 0, 64, 127
2, 31097, Note_on_c, 0, 76, 80
2, 31097, Note_on_c, 0, 82, 80
2, 31097, Note_on_c, 0, 85, 80
2, 31097, Note_on_c, 0, 88, 80
2, 31143, Note_on_c, 0, 42, 80
2, 31224, Note_on_c, 0, 88, 0
2, 31226, Note_on_c, 0, 76, 0
2, 31248, Note_on_c, 0, 42, 0
2, 31250, Note_on_c, 0, 85, 0
2, 31250, Note_on_c, 0, 82, 0
2, 31250, Control_c, 0, 64, 0
2, 31250, Note_on_c, 0, 54, 80
2, 31250, Note_on_c, 0, 58, 80
2, 31252, Note_on_c, 0, 64, 80
2, 31254, Note_on_c, 0, 61, 80
2, 31300, Note_on_c, 0, 64, 0
2, 31300, Note_on_c, 0, 54, 0
2, 31302, Note_on_c, 0, 37, 80
2, 31326, Note_on_c, 0, 61, 0
2, 31333, Note_on_c, 0, 58, 0
2, 31362, Note_on_c, 0, 52, 80
2, 31364, Note_on_c, 0, 67, 80
2, 31366, Note_on_c, 0, 79, 80
2, 31408, Note_on_c, 0, 67, 0
2, 31415, Note_on_c, 0, 79, 0
2, 31415, Note_on_c, 0, 68, 80
2, 31419, Note_on_c, 0, 73, 80
2, 31419, Note_on_c, 0, 76, 80
2, 31419, Note_on_c, 0, 80, 80
2, 31437, Note_on_c, 0, 52, 0
2, 31457, Note_on_c, 0, 37, 0
2, 31465, Note_on_c, 0, 58, 80
2, 31465, Note_on_c, 0, 64, 80
2, 31467, Note_on_c, 0, 54, 80
2, 31489, Note_on_c, 0, 61, 80
2, 31512, Note_on_c, 0, 61, 0
2, 31512, Note_on_c, 0, 54, 0
2, 31513, Note_on_c, 0, 58, 0
2, 31513, Note_on_c, 0, 80, 0
2, 31513, Note_on_c, 0, 68, 0
2, 31513, Note_on_c, 0, 76, 0
2, 31513, Note_on_c, 0, 64, 0
2, 31513, Note_on_c, 0, 73, 0
2, 31518, Note_on_c, 0, 78, 80
2, 31520, Note_on_c, 0, 75, 80
2, 31520, Note_on_c, 0, 82, 80
2, 31520, Note_on_c, 0, 87, 80
2, 31569, Note_on_c, 0, 42, 80
2, 31569, Note_on_c, 0, 54, 80
2, 31615, Note_on_c, 0, 42, 0
2, 31617, Note_on_c, 0, 78, 0
2, 31619, Note_on_c, 0, 82, 0
2, 31624, Note_on_c, 0, 40, 80
2, 31648, Note_on_c, 0, 87, 0
2, 31672, Note_on_c, 0, 54, 0
2, 31674, Note_on_c, 0, 75, 0
2, 31680, Note_on_c, 0, 52, 80
2, 31680, Note_on_c, 0, 73, 80
2, 31680, Note_on_c, 0, 78, 80
2, 31680, Note_on_c, 0, 82, 80
2, 31680, Note_on_c, 0, 85, 80
2, 31729, Note_on_c, 0, 78, 0
2, 31753, Note_on_c, 0, 40, 0
2, 31776, Note_on_c, 0, 52, 0
2, 31780, Note_on_c, 0, 73, 0
2, 31782, Note_on_c, 0, 85, 0
2, 31782, Note_on_c, 0, 39, 80
2, 31782, Note_on_c, 0, 51, 80
2, 31784, Note_on_c, 0, 70, 80
2, 31833, Note_on_c, 0, 70, 0
2, 31833, Note_on_c, 0, 82, 0
2, 31833, Control_c, 0, 64, 127
2, 31835, Note_on_c, 0, 71, 80
2, 31835, Note_on_c, 0, 75, 80
2, 31837, Note_on_c, 0, 83, 80
2, 31839, Note_on_c, 0, 78, 80
2, 31856, Note_on_c, 0, 51, 0
2, 31880, Note_on_c, 0, 39, 0
2, 31882, Note_on_c, 0, 71, 0
2, 31882, Note_on_c, 0, 75, 0
2, 31882, Note_on_c, 0, 78, 0
2, 31884, Note_on_c, 0, 63, 80
2, 31886, Note_on_c, 0, 54, 80
2, 31888, Note_on_c, 0, 59, 80
2, 31903, Note_on_c, 0, 54, 0
2, 31932, Note_on_c, 0, 59, 0
2, 31932, Note_on_c, 0, 63, 0
2, 31937, Note_on_c, 0, 83, 0
2, 31939, Note_on_c, 0, 66, 80
2, 31939, Note_on_c, 0, 71, 80
2, 31939, Note_on_c, 0, 75, 80
2, 31939, Note_on_c, 0, 78, 80
2, 31959, Control_c, 0, 64, 0
2, 31990, Note_on_c, 0, 54, 80
2, 31990, Note_on_c, 0, 59, 80
2, 31990, Note_on_c, 0, 63, 80
2, 32085, Note_on_c, 0, 59, 0
2, 32085, Note_on_c, 0, 66, 0
2, 32085, Note_on_c, 0, 54, 0
2, 32085, Note_on_c, 0, 42, 80
2, 32089, Note_on_c, 0, 30, 80
2, 32091, Note_on_c, 0, 78, 0
2, 32091, Note_on_c, 0, 63, 0
2, 32091, Note_on_c, 0, 71, 0
2, 32091, Note_on_c, 0, 75, 0
2, 32186, Note_on_c, 0, 30, 0
2, 32186, Note_on_c, 0, 42, 0
2, 32195, Control_c, 0, 64, 127
2, 32195, Note_on_c, 0, 35, 80
2, 32195, Note_on_c, 0, 47, 80
2, 32197, Note_on_c, 0, 75, 80
2, 32246, Note_on_c, 0, 75, 0
2, 32248, Note_on_c, 0, 66, 80
2, 32270, Note_on_c, 0, 35, 0
2, 32297, Note_on_c, 0, 47, 0
2, 32302, Note_on_c, 0, 66, 0
2, 32306, Note_on_c, 0, 54, 80
2, 32306, Note_on_c, 0, 59, 80
2, 32306, Note_on_c, 0, 63, 80
2, 32306, Note_on_c, 0, 68, 80
2, 32324, Note_on_c, 0, 54, 0
2, 32330, Note_on_c, 0, 63, 0
2, 32357, Note_on_c, 0, 59, 0
2, 32357, Note_on_c, 0, 68, 0
2, 32359, Note_on_c, 0, 70, 80
2, 32408, Note_on_c, 0, 39, 80
2, 32408, Note_on_c, 0, 71, 80
2, 32410, Note_on_c, 0, 70, 0
2, 32410, Control_c, 0, 64, 0
2, 32410, Note_on_c, 0, 51, 80
2, 32459, Note_on_c, 0, 71, 0
2, 32466, Note_on_c, 0, 73, 80
2, 32483, Note_on_c, 0, 51, 0
2, 32503, Note_on_c, 0, 39, 0
2, 32510, Note_on_c, 0, 73, 0
2, 32512, Note_on_c, 0, 37, 80
2, 32517, Note_on_c, 0, 49, 80
2, 32519, Note_on_c, 0, 74, 80
2, 32561, Note_on_c, 0, 74, 0
2, 32568, Note_on_c, 0, 63, 80
2, 32568, Note_on_c, 0, 66, 80
2, 32568, Note_on_c, 0, 72, 80
2, 32569, Note_on_c, 0, 75, 80
2, 32583, Note_on_c, 0, 37, 0
2, 32612, Note_on_c, 0, 49, 0
2, 32616, Note_on_c, 0, 36, 80
2, 32618, Note_on_c, 0, 48, 80
2, 32667, Note_on_c, 0, 72, 0
2, 32667, Note_on_c, 0, 63, 0
2, 32667, Note_on_c, 0, 66, 0
2, 32667, Note_on_c, 0, 75, 0
2, 32672, Note_on_c, 0, 78, 80
2, 32689, Note_on_c, 0, 36, 0
2, 32691, Note_on_c, 0, 48, 0
2, 32718, Note_on_c, 0, 78, 0
2, 32723, Note_on_c, 0, 56, 80
2, 32723, Note_on_c, 0, 60, 80
2, 32723, Note_on_c, 0, 66, 80
2, 32725, Note_on_c, 0, 80, 80
2, 32742, Note_on_c, 0, 60, 0
2, 32773, Note_on_c, 0, 56, 0
2, 32775, Note_on_c, 0, 80, 0
2, 32777, Note_on_c, 0, 70, 80
2, 32777, Note_on_c, 0, 72, 80
2, 32777, Note_on_c, 0, 75, 80
2, 32777, Note_on_c, 0, 78, 80
2, 32777, Note_on_c, 0, 82, 80
2, 32799, Note_on_c, 0, 66, 0
2, 32821, Note_on_c, 0, 44, 80
2, 32821, Note_on_c, 0, 56, 80
2, 32870, Note_on_c, 0, 78, 0
2, 32870, Note_on_c, 0, 70, 0
2, 32870, Note_on_c, 0, 75, 0
2, 32870, Note_on_c, 0, 72, 0
2, 32926, Note_on_c, 0, 44, 0
2, 32926, Note_on_c, 0, 56, 0
2, 32926, Note_on_c, 0, 42, 80
2, 32926, Note_on_c, 0, 54, 80
2, 32928, Note_on_c, 0, 82, 0
2, 32928, Control_c, 0, 64, 127
2, 32928, Note_on_c, 0, 72, 80
2, 32928, Note_on_c, 0, 78, 80
2, 32928, Note_on_c, 0, 80, 80
2, 32929, Note_on_c, 0, 68, 80
2, 32976, Note_on_c, 0, 68, 0
2, 32976, Note_on_c, 0, 80, 0
2, 33006, Note_on_c, 0, 41, 80
2, 33024, Note_on_c, 0, 42, 0
2, 33024, Note_on_c, 0, 54, 0
2, 33025, Note_on_c, 0, 78, 0
2, 33025, Note_on_c, 0, 72, 0
2, 33030, Note_on_c, 0, 56, 80
2, 33030, Note_on_c, 0, 68, 80
2, 33030, Note_on_c, 0, 71, 80
2, 33030, Note_on_c, 0, 73, 80
2, 33030, Note_on_c, 0, 77, 80
2, 33030, Note_on_c, 0, 80, 80
2, 33050, Control_c, 0, 64, 0
2, 33074, Note_on_c, 0, 80, 0
2, 33074, Note_on_c, 0, 68, 0
2, 33074, Note_on_c, 0, 73, 0
2, 33079, Note_on_c, 0, 71, 0
2, 33079, Note_on_c, 0, 77, 0
2, 33084, Note_on_c, 0, 70, 80
2, 33084, Note_on_c, 0, 82, 80
2, 33104, Note_on_c, 0, 56, 0
2, 33124, Note_on_c, 0, 41, 0
2, 33126, Note_on_c, 0, 70, 0
2, 33131, Note_on_c, 0, 82, 0
2, 33131, Note_on_c, 0, 59, 80
2, 33131, Note_on_c, 0, 65, 80
2, 33131, Note_on_c, 0, 68, 80
2, 33131, Note_on_c, 0, 71, 80
2, 33131, Note_on_c, 0, 83, 80
2, 33155, Note_on_c, 0, 83, 0
2, 33155, Note_on_c, 0, 59, 0
2, 33155, Note_on_c, 0, 68, 0
2, 33155, Note_on_c, 0, 65, 0
2, 33182, Note_on_c, 0, 71, 0
2, 33184, Note_on_c, 0, 75, 80
2, 33184, Note_on_c, 0, 77, 80
2, 33184, Note_on_c, 0, 83, 80
2, 33189, Note_on_c, 0, 87, 80
2, 33231, Note_on_c, 0, 49, 80
2, 33233, Note_on_c, 0, 61, 80
2, 33284, Note_on_c, 0, 83, 0
2, 33284, Note_on_c, 0, 77, 0
2, 33335, Note_on_c, 0, 49, 0
2, 33339, Note_on_c, 0, 75, 0
2, 33339, Note_on_c, 0, 61, 0
2, 33339, Note_on_c, 0, 47, 80
2, 33341, Note_on_c, 0, 87, 0
2, 33343, Note_on_c, 0, 59, 80
2, 33343, Note_on_c, 0, 73, 80
2, 33343, Note_on_c, 0, 77, 80
2, 33343, Note_on_c, 0, 80, 80
2, 33343, Note_on_c, 0, 83, 80
2, 33343, Note_on_c, 0, 85, 80
2, 33389, Note_on_c, 0, 73, 0
2, 33389, Note_on_c, 0, 37, 80
2, 33391, Note_on_c, 0, 85, 0
2, 33440, Note_on_c, 0, 47, 0
2, 33442, Note_on_c, 0, 80, 0
2, 33442, Note_on_c, 0, 52, 80
2, 33447, Note_on_c, 0, 77, 0
2, 33447, Note_on_c, 0, 59, 0
2, 33447, Note_on_c, 0, 83, 0
2, 33449, Note_on_c, 0, 73, 80
2, 33449, Note_on_c, 0, 78, 80
2, 33449, Note_on_c, 0, 82, 80
2, 33449, Note_on_c, 0, 85, 80
2, 33493, Note_on_c, 0, 73, 0
2, 33495, Note_on_c, 0, 82, 0
2, 33497, Note_on_c, 0, 78, 0
2, 33499, Note_on_c, 0, 85, 0
2, 33501, Note_on_c, 0, 75, 80
2, 33501, Note_on_c, 0, 87, 80
2, 33543, Note_on_c, 0, 37, 0
2, 33550, Note_on_c, 0, 52, 0
2, 33550, Note_on_c, 0, 75, 0
2, 33550, Note_on_c, 0, 87, 0
2, 33552, Note_on_c, 0, 54, 80
2, 33552, Note_on_c, 0, 58, 80
2, 33553, Note_on_c, 0, 61, 80
2, 33553, Note_on_c, 0, 64, 80
2, 33553, Note_on_c, 0, 76, 80
2, 33553, Note_on_c, 0, 88, 80
2, 33574, Note_on_c, 0, 61, 0
2, 33574, Note_on_c, 0, 54, 0
2, 33576, Note_on_c, 0, 88, 0
2, 33602, Note_on_c, 0, 58, 0
2, 33602, Control_c, 0, 64, 127
2, 33604, Note_on_c, 0, 76, 0
2, 33604, Note_on_c, 0, 64, 0
2, 33611, Note_on_c, 0, 80, 80
2, 33611, Note_on_c, 0, 82, 80
2, 33611, Note_on_c, 0, 88, 80
2, 33611, Note_on_c, 0, 92, 80
2, 33655, Note_on_c, 0, 42, 80
2, 33655, Note_on_c, 0, 54, 80
2, 33706, Note_on_c, 0, 88, 0
2, 33711, Note_on_c, 0, 82, 0
2, 33713, Note_on_c, 0, 92, 0
2, 33740, Note_on_c, 0, 80, 0
2, 33760, Note_on_c, 0, 54, 0
2, 33760, Note_on_c, 0, 42, 0
2, 33762, Control_c, 0, 64, 0
2, 33767, Note_on_c, 0, 40, 80
2, 33767, Note_on_c, 0, 52, 80
2, 33768, Note_on_c, 0, 79, 80
2, 33770, Note_on_c, 0, 85, 80
2, 33772, Note_on_c, 0, 88, 80
2, 33772, Note_on_c, 0, 91, 80
2, 33867, Note_on_c, 0, 40, 0
2, 33869, Note_on_c, 0, 52, 0
2, 33876, Note_on_c, 0, 88, 0
2, 33876, Note_on_c, 0, 85, 0
2, 33876, Note_on_c, 0, 91, 0
2, 33876, Control_c, 0, 64, 127
2, 33876, Note_on_c, 0, 39, 80
2, 33878, Note_on_c, 0, 79, 0
2, 33878, Note_on_c, 0, 54, 80
2, 33878, Note_on_c, 0, 66, 80
2, 33878, Note_on_c, 0, 71, 80
2, 33878, Note_on_c, 0, 75, 80
2, 33878, Note_on_c, 0, 78, 80
2, 33927, Note_on_c, 0, 78, 0
2, 33927, Note_on_c, 0, 71, 0
2, 33927, Note_on_c, 0, 54, 0
2, 33927, Note_on_c, 0, 75, 0
2, 33951, Note_on_c, 0, 39, 0
2, 33953, Note_on_c, 0, 66, 0
2, 33986, Note_on_c, 0, 54, 80
2, 33986, Note_on_c, 0, 59, 80
2, 33986, Note_on_c, 0, 63, 80
2, 33986, Note_on_c, 0, 71, 80
2, 33986, Note_on_c, 0, 75, 80
2, 33988, Note_on_c, 0, 83, 80
2, 34004, Note_on_c, 0, 54, 0
2, 34010, Control_c, 0, 64, 0
2, 34034, Note_on_c, 0, 59, 0
2, 34034, Note_on_c, 0, 63, 0
2, 34087, Note_on_c, 0, 71, 0
2, 34087, Note_on_c, 0, 75, 0
2, 34087, Note_on_c, 0, 83, 0
2, 34089, Note_on_c, 0, 49, 80
2, 34091, Note_on_c, 0, 37, 80
2, 34093, Note_on_c, 0, 70, 80
2, 34093, Note_on_c, 0, 73, 80
2, 34095, Note_on_c, 0, 76, 80
2, 34095, Note_on_c, 0, 82, 80
2, 34137, Note_on_c, 0, 73, 0
2, 34161, Note_on_c, 0, 37, 0
2, 34170, Note_on_c, 0, 82, 0
2, 34192, Note_on_c, 0, 49, 0
2, 34194, Note_on_c, 0, 76, 0
2, 34194, Note_on_c, 0, 70, 0
2, 34194, Note_on_c, 0, 39, 80
2, 34194, Note_on_c, 0, 51, 80
2, 34196, Note_on_c, 0, 69, 80
2, 34196, Note_on_c, 0, 72, 80
2, 34196, Note_on_c, 0, 75, 80
2, 34196, Note_on_c, 0, 81, 80
2, 34242, Note_on_c, 0, 72, 0
2, 34266, Note_on_c, 0, 51, 0
2, 34268, Note_on_c, 0, 81, 0
2, 34288, Note_on_c, 0, 39, 0
2, 34295, Note_on_c, 0, 75, 0
2, 34295, Note_on_c, 0, 69, 0
2, 34295, Note_on_c, 0, 52, 80
2, 34296, Note_on_c, 0, 40, 80
2, 34298, Note_on_c, 0, 67, 80
2, 34298, Note_on_c, 0, 79, 80
2, 34347, Note_on_c, 0, 79, 0
2, 34347, Note_on_c, 0, 67, 0
2, 34347, Note_on_c, 0, 68, 80
2, 34347, Note_on_c, 0, 73, 80
2, 34347, Note_on_c, 0, 80, 80
2, 34349, Note_on_c, 0, 76, 80
2, 34369, Note_on_c, 0, 52, 0
2, 34393, Note_on_c, 0, 40, 0
2, 34402, Note_on_c, 0, 56, 80
2, 34402, Note_on_c, 0, 61, 80
2, 34404, Note_on_c, 0, 64, 80
2, 34421, Note_on_c, 0, 64, 0
2, 34426, Note_on_c, 0, 56, 0
2, 34446, Note_on_c, 0, 73, 0
2, 34446, Note_on_c, 0, 61, 0
2, 34448, Note_on_c, 0, 68, 0
2, 34448, Note_on_c, 0, 80, 0
2, 34448, Note_on_c, 0, 76, 0
2, 34453, Control_c, 0, 64, 127
2, 34455, Note_on_c, 0, 75, 80
2, 34455, Note_on_c, 0, 78, 80
2, 34455, Note_on_c, 0, 82, 80
2, 34460, Note_on_c, 0, 87, 80
2, 34499, Note_on_c, 0, 42, 80
2, 34506, Note_on_c, 0, 54, 80
2, 34606, Note_on_c, 0, 43, 80
2, 34606, Note_on_c, 0, 55, 80
2, 34608, Note_on_c, 0, 73, 80
2, 34609, Note_on_c, 0, 85, 80
2, 34611, Note_on_c, 0, 76, 80
2, 34613, Note_on_c, 0, 79, 80
2, 34629, Note_on_c, 0, 54, 0
2, 34629, Note_on_c, 0, 87, 0
2, 34629, Note_on_c, 0, 75, 0
2, 34629, Note_on_c, 0, 78, 0
2, 34629, Note_on_c, 0, 42, 0
2, 34631, Note_on_c, 0, 82, 0
2, 34655, Note_on_c, 0, 76, 0
2, 34683, Control_c, 0, 64, 0
2, 34710, Note_on_c, 0, 79, 0
2, 34710, Note_on_c, 0, 85, 0
2, 34710, Note_on_c, 0, 73, 0
2, 34715, Note_on_c, 0, 44, 80
2, 34715, Note_on_c, 0, 56, 80
2, 34715, Note_on_c, 0, 71, 80
2, 34717, Note_on_c, 0, 83, 80
2, 34734, Note_on_c, 0, 83, 0
2, 34734, Note_on_c, 0, 55, 0
2, 34734, Note_on_c, 0, 43, 0
2, 34761, Note_on_c, 0, 71, 0
2, 34763, Note_on_c, 0, 73, 80
2, 34763, Note_on_c, 0, 83, 80
2, 34768, Note_on_c, 0, 76, 80
2, 34768, Note_on_c, 0, 80, 80
2, 34810, Note_on_c, 0, 44, 0
2, 34810, Note_on_c, 0, 56, 0
2, 34812, Note_on_c, 0, 37, 80
2, 34812, Note_on_c, 0, 49, 80
2, 34858, Note_on_c, 0, 73, 0
2, 34863, Note_on_c, 0, 80, 0
2, 34863, Note_on_c, 0, 83, 0
2, 34863, Note_on_c, 0, 76, 0
2, 34912, Note_on_c, 0, 37, 0
2, 34914, Note_on_c, 0, 49, 0
2, 34919, Note_on_c, 0, 42, 80
2, 34919, Note_on_c, 0, 66, 80
2, 34920, Note_on_c, 0, 54, 80
2, 34922, Note_on_c, 0, 78, 80
2, 34968, Note_on_c, 0, 42, 0
2, 34970, Note_on_c, 0, 78, 0
2, 34972, Note_on_c, 0, 63, 80
2, 34972, Note_on_c, 0, 64, 80
2, 34977, Note_on_c, 0, 70, 80
2, 34977, Note_on_c, 0, 75, 80
2, 35021, Note_on_c, 0, 70, 0
2, 35021, Note_on_c, 0, 63, 0
2, 35021, Note_on_c, 0, 66, 0
2, 35023, Note_on_c, 0, 30, 80
2, 35023, Note_on_c, 0, 42, 80
2, 35079, Note_on_c, 0, 75, 0
2, 35079, Note_on_c, 0, 64, 0
2, 35081, Note_on_c, 0, 66, 80
2, 35081, Note_on_c, 0, 71, 80
2, 35083, Note_on_c, 0, 59, 80
2, 35083, Note_on_c, 0, 63, 80
2, 35122, Note_on_c, 0, 42, 0
2, 35122, Note_on_c, 0, 30, 0
2, 35124, Control_c, 0, 64, 127
2, 35129, Note_on_c, 0, 35, 80
2, 35129, Note_on_c, 0, 47, 80
2, 35180, Note_on_c, 0, 59, 0
2, 35180, Note_on_c, 0, 71, 0
2, 35180, Note_on_c, 0, 54, 0
2, 35180, Note_on_c, 0, 63, 0
2, 35182, Note_on_c, 0, 66, 0
2, 35182, Note_on_c, 0, 61, 80
2, 35182, Note_on_c, 0, 73, 80
2, 35228, Note_on_c, 0, 61, 0
2, 35228, Note_on_c, 0, 35, 0
2, 35228, Note_on_c, 0, 47, 0
2, 35228, Note_on_c, 0, 42, 80
2, 35230, Note_on_c, 0, 73, 0
2, 35234, Note_on_c, 0, 30, 80
2, 35234, Note_on_c, 0, 75, 80
2, 35236, Note_on_c, 0, 63, 80
2, 35282, Note_on_c, 0, 63, 0
2, 35282, Note_on_c, 0, 75, 0
2, 35284, Control_c, 0, 64, 0
2, 35284, Note_on_c, 0, 66, 80
2, 35284, Note_on_c, 0, 78, 80
2, 35308, Note_on_c, 0, 78, 0
2, 35330, Note_on_c, 0, 42, 0
2, 35330, Note_on_c, 0, 30, 0
2, 35332, Note_on_c, 0, 66, 0
2, 35334, Note_on_c, 0, 35, 80
2, 35334, Note_on_c, 0, 47, 80
2, 35334, Note_on_c, 0, 71, 80
2, 35334, Note_on_c, 0, 78, 80
2, 35334, Note_on_c, 0, 83, 80
2, 35341, Note_on_c, 0, 75, 80
2, 35434, Note_on_c, 0, 47, 0
2, 35436, Note_on_c, 0, 78, 0
2, 35436, Note_on_c, 0, 71, 0
2, 35458, Note_on_c, 0, 35, 0
2, 35463, Note_on_c, 0, 75, 0
2, 35468, Note_on_c, 0, 83, 0
2, 35554, Note_on_c, 0, 63, 80
2, 35554, Note_on_c, 0, 68, 80
2, 35554, Note_on_c, 0, 71, 80
2, 35554, Note_on_c, 0, 75, 80
2, 35554, Note_on_c, 0, 78, 80
2, 35554, Note_on_c, 0, 87, 80
2, 35571, Note_on_c, 0, 75, 0
2, 35571, Note_on_c, 0, 68, 0
2, 35576, Note_on_c, 0, 78, 0
2, 35576, Note_on_c, 0, 63, 0
2, 35576, Note_on_c, 0, 87, 0
2, 35576, Note_on_c, 0, 71, 0
2, 35600, Note_on_c, 0, 71, 80
2, 35602, Note_on_c, 0, 64, 80
2, 35602, Note_on_c, 0, 68, 80
2, 35602, Note_on_c, 0, 78, 80
2, 35602, Note_on_c, 0, 86, 80
2, 35604, Note_on_c, 0, 74, 80
2, 35648, Note_on_c, 0, 68, 0
2, 35648, Note_on_c, 0, 71, 0
2, 35699, Note_on_c, 0, 64, 0
2, 35701, Note_on_c, 0, 78, 0
2, 35701, Note_on_c, 0, 74, 0
2, 35701, Note_on_c, 0, 86, 0
2, 35701, Note_on_c, 0, 71, 80
2, 35703, Note_on_c, 0, 65, 80
2, 35703, Note_on_c, 0, 73, 80
2, 35703, Note_on_c, 0, 85, 80
2, 35705, Note_on_c, 0, 61, 80
2, 35705, Note_on_c, 0, 68, 80
2, 35705, Note_on_c, 0, 77, 80
2, 35705, Note_on_c, 0, 80, 80
2, 35802, Note_on_c, 0, 65, 0
2, 35802, Note_on_c, 0, 71, 0
2, 35804, Note_on_c, 0, 77, 0
2, 35828, Note_on_c, 0, 80, 0
2, 35850, Note_on_c, 0, 61, 0
2, 35850, Note_on_c, 0, 73, 0
2, 35855, Note_on_c, 0, 68, 0
2, 35879, Note_on_c, 0, 85, 0
2, 35960, Control_c, 0, 64, 127
2, 35960, Note_on_c, 0, 59, 80
2, 35962, Note_on_c, 0, 51, 80
2, 35962, Note_on_c, 0, 56, 80
2, 35964, Note_on_c, 0, 63, 80
2, 35964, Note_on_c, 0, 75, 80
2, 35979, Note_on_c, 0, 56, 0
2, 35981, Note_on_c, 0, 63, 0
2, 35981, Note_on_c, 0, 59, 0
2, 36003, Note_on_c, 0, 51, 0
2, 36003, Note_on_c, 0, 75, 0
2, 36010, Note_on_c, 0, 56, 80
2, 36012, Note_on_c, 0, 52, 80
2, 36012, Note_on_c, 0, 59, 80
2, 36012, Note_on_c, 0, 62, 80
2, 36014, Note_on_c, 0, 74, 80
2, 36060, Note_on_c, 0, 56, 0
2, 36062, Note_on_c, 0, 59, 0
2, 36089, Control_c, 0, 64, 0
2, 36116, Note_on_c, 0, 52, 0
2, 36120, Note_on_c, 0, 62, 0
2, 36122, Note_on_c, 0, 74, 0
2, 36122, Note_on_c, 0, 49, 80
2, 36122, Note_on_c, 0, 53, 80
2, 36122, Note_on_c, 0, 56, 80
2, 36122, Note_on_c, 0, 59, 80
2, 36122, Note_on_c, 0, 61, 80
2, 36122, Note_on_c, 0, 65, 80
2, 36122, Note_on_c, 0, 73, 80
2, 36124, Note_on_c, 0, 68, 80
2, 36248, Note_on_c, 0, 53, 0
2, 36253, Note_on_c, 0, 65, 0
2, 36275, Note_on_c, 0, 49, 0
2, 36306, Note_on_c, 0, 68, 0
2, 36306, Note_on_c, 0, 59, 0
2, 36328, Note_on_c, 0, 56, 0
2, 36330, Note_on_c, 0, 61, 0
2, 36330, Note_on_c, 0, 73, 0
2, 36385, Control_c, 0, 64, 127
2, 36387, Note_on_c, 0, 65, 80
2, 36392, Note_on_c, 0, 61, 80
2, 36392, Note_on_c, 0, 68, 80
2, 36392, Note_on_c, 0, 71, 80
2, 36392, Note_on_c, 0, 73, 80
2, 36392, Note_on_c, 0, 85, 80
2, 36436, Note_on_c, 0, 73, 0
2, 36438, Note_on_c, 0, 68, 0
2, 36438, Note_on_c, 0, 85, 0
2, 36443, Note_on_c, 0, 75, 80
2, 36443, Note_on_c, 0, 87, 80
2, 36487, Note_on_c, 0, 61, 0
2, 36489, Note_on_c, 0, 87, 0
2, 36494, Note_on_c, 0, 75, 0
2, 36494, Note_on_c, 0, 80, 80
2, 36496, Note_on_c, 0, 68, 80
2, 36542, Note_on_c, 0, 80, 0
2, 36547, Note_on_c, 0, 65, 0
2, 36547, Note_on_c, 0, 71, 0
2, 36547, Note_on_c, 0, 68, 0
2, 36547, Note_on_c, 0, 61, 80
2, 36549, Note_on_c, 0, 67, 80
2, 36549, Note_on_c, 0, 70, 80
2, 36549, Note_on_c, 0, 73, 80
2, 36549, Note_on_c, 0, 76, 80
2, 36549, Note_on_c, 0, 85, 80
2, 36646, Note_on_c, 0, 67, 0
2, 36648, Note_on_c, 0, 73, 0
2, 36648, Note_on_c, 0, 61, 0
2, 36648, Note_on_c, 0, 70, 0
2, 36649, Note_on_c, 0, 85, 0
2, 36649, Note_on_c, 0, 76, 0
2, 36649, Note_on_c, 0, 75, 80
2, 36656, Note_on_c, 0, 87, 80
2, 36700, Note_on_c, 0, 75, 0
2, 36707, Note_on_c, 0, 61, 80
2, 36707, Note_on_c, 0, 67, 80
2, 36707, Note_on_c, 0, 70, 80
2, 36707, Note_on_c, 0, 73, 80
2, 36709, Note_on_c, 0, 76, 80
2, 36709, Note_on_c, 0, 79, 80
2, 36709, Note_on_c, 0, 82, 80
2, 36731, Note_on_c, 0, 87, 0
2, 36753, Note_on_c, 0, 61, 0
2, 36755, Note_on_c, 0, 73, 0
2, 36755, Control_c, 0, 64, 0
2, 36808, Note_on_c, 0, 70, 0
2, 36810, Note_on_c, 0, 82, 0
2, 36810, Note_on_c, 0, 76, 0
2, 36810, Note_on_c, 0, 79, 0
2, 36810, Note_on_c, 0, 67, 0
2, 36810, Note_on_c, 0, 65, 80
2, 36812, Note_on_c, 0, 77, 80
2, 36814, Note_on_c, 0, 61, 80
2, 36814, Note_on_c, 0, 71, 80
2, 36816, Note_on_c, 0, 68, 80
2, 36816, Note_on_c, 0, 73, 80
2, 36816, Note_on_c, 0, 80, 80
2, 36816, Note_on_c, 0, 85, 80
2, 36911, Note_on_c, 0, 71, 0
2, 36911, Note_on_c, 0, 61, 0
2, 36911, Note_on_c, 0, 65, 0
2, 36912, Note_on_c, 0, 73, 0
2, 36912, Note_on_c, 0, 68, 0
2, 36912, Note_on_c, 0, 85, 0
2, 36912, Note_on_c, 0, 80, 0
2, 36912, Note_on_c, 0, 77, 0
2, 37012, Note_on_c, 0, 37, 80
2, 37014, Note_on_c, 0, 49, 80
2, 37063, Note_on_c, 0, 49, 0
2, 37063, Note_on_c, 0, 37, 0
2, 37072, Note_on_c, 0, 61, 80
2, 37072, Note_on_c, 0, 73, 80
2, 37118, Note_on_c, 0, 61, 0
2, 37127, Note_on_c, 0, 66, 80
2, 37131, Note_on_c, 0, 78, 80
2, 37149, Note_on_c, 0, 73, 0
2, 37179, Note_on_c, 0, 66, 0
2, 37181, Note_on_c, 0, 70, 80
2, 37183, Note_on_c, 0, 82, 80
2, 37205, Note_on_c, 0, 78, 0
2, 37229, Note_on_c, 0, 70, 0
2, 37231, Note_on_c, 0, 82, 0
2, 37236, Control_c, 0, 64, 127
2, 37236, Note_on_c, 0, 39, 80
2, 37236, Note_on_c, 0, 51, 80
2, 37238, Note_on_c, 0, 75, 80
2, 37238, Note_on_c, 0, 78, 80
2, 37238, Note_on_c, 0, 81, 80
2, 37240, Note_on_c, 0, 87, 80
2, 37279, Note_on_c, 0, 78, 0
2, 37284, Note_on_c, 0, 81, 0
2, 37284, Note_on_c, 0, 75, 0
2, 37284, Note_on_c, 0, 87, 0
2, 37284, Note_on_c, 0, 73, 80
2, 37286, Note_on_c, 0, 76, 80
2, 37286, Note_on_c, 0, 85, 80
2, 37288, Note_on_c, 0, 79, 80
2, 37330, Note_on_c, 0, 40, 80
2, 37332, Note_on_c, 0, 52, 80
2, 37349, Note_on_c, 0, 39, 0
2, 37354, Note_on_c, 0, 51, 0
2, 37383, Note_on_c, 0, 76, 0
2, 37383, Note_on_c, 0, 79, 0
2, 37385, Note_on_c, 0, 85, 0
2, 37387, Note_on_c, 0, 71, 80
2, 37387, Note_on_c, 0, 80, 80
2, 37389, Note_on_c, 0, 77, 80
2, 37389, Note_on_c, 0, 83, 80
2, 37433, Note_on_c, 0, 40, 0
2, 37435, Note_on_c, 0, 52, 0
2, 37435, Note_on_c, 0, 41, 80
2, 37437, Note_on_c, 0, 73, 0
2, 37437, Note_on_c, 0, 53, 80
2, 37459, Control_c, 0, 64, 0
2, 37483, Note_on_c, 0, 53, 0
2, 37485, Note_on_c, 0, 77, 0
2, 37485, Note_on_c, 0, 80, 0
2, 37485, Note_on_c, 0, 71, 0
2, 37485, Note_on_c, 0, 83, 0
2, 37485, Note_on_c, 0, 61, 80
2, 37489, Note_on_c, 0, 73, 80
2, 37534, Note_on_c, 0, 41, 0
2, 37536, Note_on_c, 0, 73, 0
2, 37536, Note_on_c, 0, 61, 0
2, 37537, Note_on_c, 0, 63, 80
2, 37542, Note_on_c, 0, 49, 80
2, 37542, Note_on_c, 0, 56, 80
2, 37544, Note_on_c, 0, 53, 80
2, 37544, Note_on_c, 0, 59, 80
2, 37544, Note_on_c, 0, 75, 80
2, 37588, Note_on_c, 0, 59, 0
2, 37588, Note_on_c, 0, 53, 0
2, 37588, Note_on_c, 0, 49, 0
2, 37590, Note_on_c, 0, 56, 0
2, 37595, Note_on_c, 0, 65, 80
2, 37597, Note_on_c, 0, 77, 80
2, 37614, Note_on_c, 0, 75, 0
2, 37619, Note_on_c, 0, 63, 0
2, 37643, Note_on_c, 0, 65, 0
2, 37643, Note_on_c, 0, 37, 80
2, 37643, Note_on_c, 0, 49, 80
2, 37645, Note_on_c, 0, 77, 0
2, 37645, Note_on_c, 0, 70, 80
2, 37645, Note_on_c, 0, 73, 80
2, 37645, Note_on_c, 0, 82, 80
2, 37694, Note_on_c, 0, 73, 0
2, 37694, Note_on_c, 0, 70, 0
2, 37696, Note_on_c, 0, 82, 0
2, 37696, Note_on_c, 0, 69, 80
2, 37696, Note_on_c, 0, 78, 80
2, 37701, Note_on_c, 0, 75, 80
2, 37701, Note_on_c, 0, 81, 80
2, 37752, Note_on_c, 0, 36, 80
2, 37752, Note_on_c, 0, 48, 80
2, 37769, Note_on_c, 0, 37, 0
2, 37771, Note_on_c, 0, 49, 0
2, 37801, Note_on_c, 0, 78, 0
2, 37801, Note_on_c, 0, 69, 0
2, 37801, Note_on_c, 0, 75, 0
2, 37801, Note_on_c, 0, 81, 0
2, 37803, Note_on_c, 0, 68, 80
2, 37803, Note_on_c, 0, 73, 80
2, 37803, Note_on_c, 0, 77, 80
2, 37803, Note_on_c, 0, 80, 80
2, 37848, Note_on_c, 0, 36, 0
2, 37849, Note_on_c, 0, 48, 0
2, 37851, Note_on_c, 0, 73, 0
2, 37856, Note_on_c, 0, 35, 80
2, 37858, Note_on_c, 0, 47, 80
2, 37907, Note_on_c, 0, 68, 0
2, 37907, Note_on_c, 0, 77, 0
2, 37907, Note_on_c, 0, 80, 0
2, 37909, Note_on_c, 0, 61, 80
2, 37909, Note_on_c, 0, 73, 80
2, 37958, Note_on_c, 0, 35, 0
2, 37958, Note_on_c, 0, 47, 0
2, 37960, Note_on_c, 0, 61, 0
2, 37960, Note_on_c, 0, 73, 0
2, 37962, Note_on_c, 0, 53, 80
2, 37964, Note_on_c, 0, 49, 80
2, 37964, Note_on_c, 0, 56, 80
2, 37966, Note_on_c, 0, 65, 80
2, 37966, Note_on_c, 0, 77, 80
2, 37968, Note_on_c, 0, 59, 80
2, 37983, Note_on_c, 0, 56, 0
2, 37983, Note_on_c, 0, 49, 0
2, 38005, Note_on_c, 0, 59, 0
2, 38010, Note_on_c, 0, 53, 0
2, 38015, Note_on_c, 0, 77, 0
2, 38015, Note_on_c, 0, 65, 0
2, 38016, Note_on_c, 0, 68, 80
2, 38016, Note_on_c, 0, 80, 80
2, 38061, Note_on_c, 0, 80, 0
2, 38061, Note_on_c, 0, 68, 0
2, 38063, Note_on_c, 0, 34, 80
2, 38064, Control_c, 0, 64, 127
2, 38064, Note_on_c, 0, 46, 80
2, 38064, Note_on_c, 0, 73, 80
2, 38064, Note_on_c, 0, 78, 80
2, 38064, Note_on_c, 0, 85, 80
2, 38066, Note_on_c, 0, 82, 80
2, 38084, Note_on_c, 0, 82, 0
2, 38111, Note_on_c, 0, 78, 0
2, 38117, Note_on_c, 0, 77, 80
2, 38117, Note_on_c, 0, 82, 80
2, 38135, Note_on_c, 0, 46, 0
2, 38161, Note_on_c, 0, 34, 0
2, 38163, Note_on_c, 0, 73, 0
2, 38163, Note_on_c, 0, 85, 0
2, 38163, Note_on_c, 0, 82, 0
2, 38168, Note_on_c, 0, 49, 80
2, 38168, Note_on_c, 0, 54, 80
2, 38168, Note_on_c, 0, 58, 80
2, 38185, Note_on_c, 0, 58, 0
2, 38185, Note_on_c, 0, 49, 0
2, 38212, Note_on_c, 0, 54, 0
2, 38214, Note_on_c, 0, 77, 0
2, 38219, Note_on_c, 0, 73, 80
2, 38219, Note_on_c, 0, 75, 80
2, 38219, Note_on_c, 0, 78, 80
2, 38219, Note_on_c, 0, 82, 80
2, 38219, Note_on_c, 0, 85, 80
2, 38268, Note_on_c, 0, 85, 0
2, 38268, Note_on_c, 0, 73, 0
2, 38268, Note_on_c, 0, 37, 80
2, 38295, Control_c, 0, 64, 0
2, 38319, Note_on_c, 0, 75, 0
2, 38321, Note_on_c, 0, 82, 0
2, 38321, Note_on_c, 0, 78, 0
2, 38323, Note_on_c, 0, 73, 80
2, 38323, Note_on_c, 0, 85, 80
2, 38340, Note_on_c, 0, 37, 0
2, 38371, Note_on_c, 0, 85, 0
2, 38371, Note_on_c, 0, 73, 0
2, 38376, Note_on_c, 0, 58, 80
2, 38376, Note_on_c, 0, 61, 80
2, 38377, Note_on_c, 0, 66, 80
2, 38377, Note_on_c, 0, 70, 80
2, 38377, Note_on_c, 0, 78, 80
2, 38379, Note_on_c, 0, 82, 80
2, 38395, Note_on_c, 0, 66, 0
2, 38400, Note_on_c, 0, 58, 0
2, 38400, Note_on_c, 0, 61, 0
2, 38424, Note_on_c, 0, 78, 0
2, 38425, Note_on_c, 0, 70, 0
2, 38427, Note_on_c, 0, 82, 0
2, 38429, Note_on_c, 0, 68, 80
2, 38429, Note_on_c, 0, 80, 80
2, 38475, Note_on_c, 0, 80, 0
2, 38475, Note_on_c, 0, 42, 80
2, 38477, Note_on_c, 0, 68, 0
2, 38477, Note_on_c, 0, 54, 80
2, 38477, Note_on_c, 0, 66, 80
2, 38477, Note_on_c, 0, 70, 80
2, 38479, Note_on_c, 0, 73, 80
2, 38503, Note_on_c, 0, 73, 0
2, 38503, Note_on_c, 0, 70, 0
2, 38527, Note_on_c, 0, 66, 0
2, 38527, Note_on_c, 0, 54, 0
2, 38532, Note_on_c, 0, 65, 80
2, 38532, Note_on_c, 0, 70, 80
2, 38534, Note_on_c, 0, 73, 80
2, 38549, Note_on_c, 0, 42, 0
2, 38578, Note_on_c, 0, 73, 0
2, 38578, Note_on_c, 0, 70, 0
2, 38585, Note_on_c, 0, 54, 80
2, 38585, Note_on_c, 0, 58, 80
2, 38585, Note_on_c, 0, 61, 80
2, 38602, Note_on_c, 0, 61, 0
2, 38602, Note_on_c, 0, 54, 0
2, 38607, Note_on_c, 0, 58, 0
2, 38631, Note_on_c, 0, 66, 80
2, 38636, Note_on_c, 0, 65, 0
2, 38638, Note_on_c, 0, 63, 80
2, 38638, Note_on_c, 0, 70, 80
2, 38638, Note_on_c, 0, 73, 80
2, 38688, Note_on_c, 0, 46, 80
2, 38688, Note_on_c, 0, 58, 80
2, 38737, Note_on_c, 0, 73, 0
2, 38737, Note_on_c, 0, 70, 0
2, 38737, Note_on_c, 0, 66, 0
2, 38737, Note_on_c, 0, 63, 0
2, 38737, Note_on_c, 0, 60, 80
2, 38739, Note_on_c, 0, 72, 80
2, 38761, Note_on_c, 0, 58, 0
2, 38784, Note_on_c, 0, 46, 0
2, 38784, Note_on_c, 0, 60, 0
2, 38790, Note_on_c, 0, 72, 0
2, 38790, Note_on_c, 0, 43, 80
2, 38790, Note_on_c, 0, 55, 80
2, 38790, Note_on_c, 0, 61, 80
2, 38790, Note_on_c, 0, 73, 80
2, 38841, Note_on_c, 0, 61, 0
2, 38843, Note_on_c, 0, 73, 0
2, 38843, Note_on_c, 0, 62, 80
2, 38850, Note_on_c, 0, 74, 80
2, 38892, Note_on_c, 0, 55, 0
2, 38892, Note_on_c, 0, 43, 0
2, 38894, Note_on_c, 0, 62, 0
2, 38894, Control_c, 0, 64, 127
2, 38896, Note_on_c, 0, 41, 80
2, 38896, Note_on_c, 0, 56, 80
2, 38898, Note_on_c, 0, 74, 0
2, 38898, Note_on_c, 0, 63, 80
2, 38898, Note_on_c, 0, 75, 80
2, 38949, Note_on_c, 0, 63, 0
2, 38953, Note_on_c, 0, 83, 80
2, 38955, Note_on_c, 0, 77, 80
2, 38955, Note_on_c, 0, 87, 80
2, 38993, Note_on_c, 0, 41, 0
2, 38998, Note_on_c, 0, 56, 0
2, 39000, Note_on_c, 0, 77, 0
2, 39000, Note_on_c, 0, 83, 0
2, 39000, Note_on_c, 0, 87, 0
2, 39000, Note_on_c, 0, 75, 0
2, 39000, Note_on_c, 0, 61, 80
2, 39001, Note_on_c, 0, 59, 80
2, 39001, Note_on_c, 0, 65, 80
2, 39001, Note_on_c, 0, 68, 80
2, 39019, Note_on_c, 0, 61, 0
2, 39024, Note_on_c, 0, 59, 0
2, 39024, Note_on_c, 0, 65, 0
2, 39052, Note_on_c, 0, 68, 0
2, 39052, Control_c, 0, 64, 0
2, 39059, Note_on_c, 0, 75, 80
2, 39059, Note_on_c, 0, 77, 80
2, 39059, Note_on_c, 0, 83, 80
2, 39059, Note_on_c, 0, 87, 80
2, 39101, Note_on_c, 0, 65, 80
2, 39106, Note_on_c, 0, 56, 80
2, 39106, Note_on_c, 0, 59, 80
2, 39106, Note_on_c, 0, 61, 80
2, 39123, Note_on_c, 0, 56, 0
2, 39125, Note_on_c, 0, 65, 0
2, 39149, Note_on_c, 0, 61, 0
2, 39151, Note_on_c, 0, 77, 0
2, 39151, Note_on_c, 0, 75, 0
2, 39151, Note_on_c, 0, 59, 0
2, 39156, Note_on_c, 0, 87, 0
2, 39156, Note_on_c, 0, 83, 0
2, 39158, Note_on_c, 0, 72, 80
2, 39158, Note_on_c, 0, 84, 80
2, 39207, Note_on_c, 0, 72, 0
2, 39207, Note_on_c, 0, 55, 80
2, 39212, Note_on_c, 0, 40, 80
2, 39212, Note_on_c, 0, 73, 80
2, 39214, Note_on_c, 0, 85, 80
2, 39236, Note_on_c, 0, 84, 0
2, 39260, Note_on_c, 0, 73, 0
2, 39260, Note_on_c, 0, 85, 0
2, 39264, Note_on_c, 0, 74, 80
2, 39266, Note_on_c, 0, 86, 80
2, 39288, Note_on_c, 0, 74, 0
2, 39312, Note_on_c, 0, 55, 0
2, 39312, Note_on_c, 0, 40, 0
2, 39314, Note_on_c, 0, 86, 0
2, 39314, Note_on_c, 0, 56, 80
2, 39316, Note_on_c, 0, 41, 80
2, 39316, Note_on_c, 0, 75, 80
2, 39321, Note_on_c, 0, 87, 80
2, 39360, Note_on_c, 0, 56, 0
2, 39365, Note_on_c, 0, 87, 0
2, 39365, Note_on_c, 0, 75, 0
2, 39370, Note_on_c, 0, 89, 80
2, 39370, Note_on_c, 0, 95, 80
2, 39375, Note_on_c, 0, 99, 80
2, 39414, Note_on_c, 0, 41, 0
2, 39416, Note_on_c, 0, 89, 0
2, 39416, Note_on_c, 0, 95, 0
2, 39416, Note_on_c, 0, 99, 0
2, 39421, Note_on_c, 0, 56, 80
2, 39423, Note_on_c, 0, 59, 80
2, 39423, Note_on_c, 0, 61, 80
2, 39423, Note_on_c, 0, 65, 80
2, 39472, Note_on_c, 0, 61, 0
2, 39472, Note_on_c, 0, 56, 0
2, 39474, Note_on_c, 0, 59, 0
2, 39474, Note_on_c, 0, 65, 0
2, 39479, Note_on_c, 0, 95, 80
2, 39480, Note_on_c, 0, 87, 80
2, 39480, Note_on_c, 0, 89, 80
2, 39480, Note_on_c, 0, 99, 80
2, 39531, Note_on_c, 0, 53, 80
2, 39531, Note_on_c, 0, 59, 80
2, 39531, Note_on_c, 0, 61, 80
2, 39577, Note_on_c, 0, 61, 0
2, 39577, Note_on_c, 0, 53, 0
2, 39577, Note_on_c, 0, 87, 0
2, 39577, Note_on_c, 0, 89, 0
2, 39577, Note_on_c, 0, 95, 0
2, 39577, Note_on_c, 0, 59, 0
2, 39577, Note_on_c, 0, 99, 0
2, 39582, Note_on_c, 0, 60, 80
2, 39584, Note_on_c, 0, 72, 80
2, 39633, Note_on_c, 0, 41, 80
2, 39635, Note_on_c, 0, 53, 80
2, 39635, Note_on_c, 0, 61, 80
2, 39635, Note_on_c, 0, 73, 80
2, 39657, Note_on_c, 0, 72, 0
2, 39657, Note_on_c, 0, 60, 0
2, 39688, Note_on_c, 0, 61, 0
2, 39690, Note_on_c, 0, 62, 80
2, 39692, Note_on_c, 0, 74, 80
2, 39709, Note_on_c, 0, 73, 0
2, 39731, Note_on_c, 0, 41, 0
2, 39736, Control_c, 0, 64, 127
2, 39738, Note_on_c, 0, 42, 80
2, 39738, Note_on_c, 0, 54, 80
2, 39740, Note_on_c, 0, 74, 0
2, 39740, Note_on_c, 0, 63, 80
2, 39740, Note_on_c, 0, 75, 80
2, 39757, Note_on_c, 0, 62, 0
2, 39757, Note_on_c, 0, 53, 0
2, 39786, Note_on_c, 0, 63, 0
2, 39788, Note_on_c, 0, 75, 0
2, 39792, Note_on_c, 0, 78, 80
2, 39792, Note_on_c, 0, 82, 80
2, 39797, Note_on_c, 0, 87, 80
2, 39815, Note_on_c, 0, 54, 0
2, 39835, Note_on_c, 0, 42, 0
2, 39837, Note_on_c, 0, 82, 0
2, 39837, Note_on_c, 0, 78, 0
2, 39841, Note_on_c, 0, 87, 0
2, 39841, Note_on_c, 0, 61, 80
2, 39843, Note_on_c, 0, 66, 80
2, 39848, Note_on_c, 0, 58, 80
2, 39865, Note_on_c, 0, 58, 0
2, 39892, Note_on_c, 0, 66, 0
2, 39892, Note_on_c, 0, 61, 0
2, 39901, Note_on_c, 0, 75, 80
2, 39901, Note_on_c, 0, 78, 80
2, 39901, Note_on_c, 0, 82, 80
2, 39901, Note_on_c, 0, 87, 80
2, 39954, Note_on_c, 0, 54, 80
2, 39956, Note_on_c, 0, 58, 80
2, 39956, Note_on_c, 0, 61, 80
2, 39973, Control_c, 0, 64, 0
2, 39997, Note_on_c, 0, 61, 0
2, 39997, Note_on_c, 0, 54, 0
2, 39997, Note_on_c, 0, 58, 0
2, 39999, Note_on_c, 0, 82, 0
2, 39999, Note_on_c, 0, 75, 0
2, 39999, Note_on_c, 0, 78, 0
2, 39999, Note_on_c, 0, 87, 0
2, 40006, Note_on_c, 0, 72, 80
2, 40006, Note_on_c, 0, 84, 80
2, 40055, Note_on_c, 0, 72, 0
2, 40056, Note_on_c, 0, 37, 80
2, 40056, Note_on_c, 0, 49, 80
2, 40058, Note_on_c, 0, 73, 80
2, 40058, Note_on_c, 0, 85, 80
2, 40107, Note_on_c, 0, 85, 0
2, 40107, Note_on_c, 0, 84, 0
2, 40114, Note_on_c, 0, 74, 80
2, 40114, Note_on_c, 0, 86, 80
2, 40134, Note_on_c, 0, 73, 0
2, 40158, Note_on_c, 0, 37, 0
2, 40158, Note_on_c, 0, 49, 0
2, 40160, Note_on_c, 0, 74, 0
2, 40160, Note_on_c, 0, 86, 0
2, 40160, Note_on_c, 0, 34, 80
2, 40162, Note_on_c, 0, 78, 80
2, 40167, Note_on_c, 0, 46, 80
2, 40167, Note_on_c, 0, 75, 80
2, 40167, Note_on_c, 0, 87, 80
2, 40211, Note_on_c, 0, 87, 0
2, 40211, Note_on_c, 0, 78, 0
2, 40211, Note_on_c, 0, 75, 0
2, 40218, Note_on_c, 0, 94, 80
2, 40218, Note_on_c, 0, 99, 80
2, 40226, Note_on_c, 0, 90, 80
2, 40260, Note_on_c, 0, 34, 0
2, 40262, Note_on_c, 0, 94, 0
2, 40264, Note_on_c, 0, 90, 0
2, 40264, Note_on_c, 0, 99, 0
2, 40266, Note_on_c, 0, 46, 0
2, 40268, Note_on_c, 0, 58, 80
2, 40268, Note_on_c, 0, 61, 80
2, 40268, Note_on_c, 0, 66, 80
2, 40288, Note_on_c, 0, 66, 0
2, 40293, Note_on_c, 0, 58, 0
2, 40320, Note_on_c, 0, 61, 0
2, 40321, Note_on_c, 0, 87, 80
2, 40321, Note_on_c, 0, 90, 80
2, 40321, Note_on_c, 0, 99, 80
2, 40323, Note_on_c, 0, 94, 80
2, 40372, Note_on_c, 0, 49, 80
2, 40372, Note_on_c, 0, 54, 80
2, 40372, Note_on_c, 0, 58, 80
2, 40372, Note_on_c, 0, 61, 80
2, 40394, Note_on_c, 0, 61, 0
2, 40418, Note_on_c, 0, 58, 0
2, 40418, Note_on_c, 0, 49, 0
2, 40418, Note_on_c, 0, 94, 0
2, 40418, Note_on_c, 0, 54, 0
2, 40420, Note_on_c, 0, 90, 0
2, 40420, Note_on_c, 0, 99, 0
2, 40422, Note_on_c, 0, 87, 0
2, 40424, Note_on_c, 0, 61, 80
2, 40426, Note_on_c, 0, 73, 80
2, 40475, Note_on_c, 0, 61, 0
2, 40477, Note_on_c, 0, 66, 80
2, 40477, Note_on_c, 0, 78, 80
2, 40501, Note_on_c, 0, 73, 0
2, 40528, Note_on_c, 0, 66, 0
2, 40533, Note_on_c, 0, 70, 80
2, 40539, Note_on_c, 0, 82, 80
2, 40555, Note_on_c, 0, 78, 0
2, 40579, Note_on_c, 0, 82, 0
2, 40584, Note_on_c, 0, 70, 0
2, 40584, Note_on_c, 0, 51, 80
2, 40585, Control_c, 0, 64, 127
2, 40585, Note_on_c, 0, 75, 80
2, 40585, Note_on_c, 0, 78, 80
2, 40587, Note_on_c, 0, 81, 80
2, 40589, Note_on_c, 0, 87, 80
2, 40591, Note_on_c, 0, 39, 80
2, 40633, Note_on_c, 0, 87, 0
2, 40633, Note_on_c, 0, 81, 0
2, 40633, Note_on_c, 0, 78, 0
2, 40633, Note_on_c, 0, 75, 0
2, 40635, Note_on_c, 0, 73, 80
2, 40635, Note_on_c, 0, 76, 80
2, 40635, Note_on_c, 0, 79, 80
2, 40640, Note_on_c, 0, 85, 80
2, 40684, Note_on_c, 0, 52, 80
2, 40686, Note_on_c, 0, 40, 80
2, 40702, Note_on_c, 0, 39, 0
2, 40706, Note_on_c, 0, 51, 0
2, 40730, Note_on_c, 0, 79, 0
2, 40732, Note_on_c, 0, 76, 0
2, 40737, Note_on_c, 0, 85, 0
2, 40737, Note_on_c, 0, 71, 80
2, 40739, Note_on_c, 0, 77, 80
2, 40739, Note_on_c, 0, 80, 80
2, 40739, Note_on_c, 0, 83, 80
2, 40778, Note_on_c, 0, 52, 0
2, 40778, Note_on_c, 0, 40, 0
2, 40780, Note_on_c, 0, 73, 0
2, 40780, Note_on_c, 0, 41, 80
2, 40787, Note_on_c, 0, 53, 80
2, 40807, Control_c, 0, 64, 0
2, 40831, Note_on_c, 0, 53, 0
2, 40831, Note_on_c, 0, 80, 0
2, 40831, Note_on_c, 0, 71, 0
2, 40836, Note_on_c, 0, 83, 0
2, 40836, Note_on_c, 0, 77, 0
2, 40838, Note_on_c, 0, 61, 80
2, 40840, Note_on_c, 0, 73, 80
2, 40882, Note_on_c, 0, 41, 0
2, 40884, Note_on_c, 0, 73, 0
2, 40889, Note_on_c, 0, 61, 0
2, 40889, Note_on_c, 0, 49, 80
2, 40891, Note_on_c, 0, 56, 80
2, 40893, Note_on_c, 0, 53, 80
2, 40893, Note_on_c, 0, 63, 80
2, 40895, Note_on_c, 0, 75, 80
2, 40896, Note_on_c, 0, 59, 80
2, 40939, Note_on_c, 0, 59, 0
2, 40939, Note_on_c, 0, 56, 0
2, 40939, Note_on_c, 0, 49, 0
2, 40939, Note_on_c, 0, 53, 0
2, 40945, Note_on_c, 0, 65, 80
2, 40945, Note_on_c, 0, 77, 80
2, 40963, Note_on_c, 0, 63, 0
2, 40971, Note_on_c, 0, 75, 0
2, 40992, Note_on_c, 0, 77, 0
2, 40996, Note_on_c, 0, 65, 0
2, 40996, Note_on_c, 0, 37, 80
2, 40998, Note_on_c, 0, 49, 80
2, 40998, Note_on_c, 0, 70, 80
2, 40998, Note_on_c, 0, 73, 80
2, 40998, Note_on_c, 0, 82, 80
2, 41042, Note_on_c, 0, 82, 0
2, 41042, Note_on_c, 0, 70, 0
2, 41042, Note_on_c, 0, 73, 0
2, 41049, Note_on_c, 0, 69, 80
2, 41049, Note_on_c, 0, 78, 80
2, 41051, Note_on_c, 0, 75, 80
2, 41051, Note_on_c, 0, 81, 80
2, 41095, Note_on_c, 0, 36, 80
2, 41100, Note_on_c, 0, 48, 80
2, 41117, Note_on_c, 0, 49, 0
2, 41117, Note_on_c, 0, 37, 0
2, 41146, Note_on_c, 0, 75, 0
2, 41146, Note_on_c, 0, 69, 0
2, 41148, Note_on_c, 0, 78, 0
2, 41148, Note_on_c, 0, 81, 0
2, 41148, Note_on_c, 0, 68, 80
2, 41148, Note_on_c, 0, 80, 80
2, 41155, Note_on_c, 0, 73, 80
2, 41155, Note_on_c, 0, 77, 80
2, 41197, Note_on_c, 0, 36, 0
2, 41197, Note_on_c, 0, 48, 0
2, 41199, Note_on_c, 0, 73, 0
2, 41199, Note_on_c, 0, 35, 80
2, 41206, Note_on_c, 0, 47, 80
2, 41252, Note_on_c, 0, 80, 0
2, 41252, Note_on_c, 0, 77, 0
2, 41256, Note_on_c, 0, 68, 0
2, 41256, Note_on_c, 0, 61, 80
2, 41256, Note_on_c, 0, 73, 80
2, 41301, Note_on_c, 0, 61, 0
2, 41301, Note_on_c, 0, 35, 0
2, 41301, Note_on_c, 0, 47, 0
2, 41303, Note_on_c, 0, 73, 0
2, 41309, Note_on_c, 0, 49, 80
2, 41309, Note_on_c, 0, 53, 80
2, 41309, Note_on_c, 0, 56, 80
2, 41309, Note_on_c, 0, 59, 80
2, 41309, Note_on_c, 0, 65, 80
2, 41309, Note_on_c, 0, 77, 80
2, 41325, Note_on_c, 0, 49, 0
2, 41331, Note_on_c, 0, 56, 0
2, 41358, Note_on_c, 0, 59, 0
2, 41358, Note_on_c, 0, 53, 0
2, 41358, Note_on_c, 0, 77, 0
2, 41358, Note_on_c, 0, 65, 0
2, 41358, Note_on_c, 0, 68, 80
2, 41363, Note_on_c, 0, 80, 80
2, 41402, Control_c, 0, 64, 127
2, 41407, Note_on_c, 0, 46, 80
2, 41407, Note_on_c, 0, 73, 80
2, 41407, Note_on_c, 0, 78, 80
2, 41412, Note_on_c, 0, 80, 0
2, 41412, Note_on_c, 0, 68, 0
2, 41412, Note_on_c, 0, 82, 80
2, 41412, Note_on_c, 0, 85, 80
2, 41414, Note_on_c, 0, 34, 80
2, 41429, Note_on_c, 0, 82, 0
2, 41456, Note_on_c, 0, 78, 0
2, 41461, Note_on_c, 0, 77, 80
2, 41461, Note_on_c, 0, 82, 80
2, 41485, Note_on_c, 0, 46, 0
2, 41502, Note_on_c, 0, 34, 0
2, 41507, Note_on_c, 0, 73, 0
2, 41507, Note_on_c, 0, 82, 0
2, 41512, Note_on_c, 0, 85, 0
2, 41512, Note_on_c, 0, 49, 80
2, 41512, Note_on_c, 0, 58, 80
2, 41514, Note_on_c, 0, 54, 80
2, 41531, Note_on_c, 0, 49, 0
2, 41533, Note_on_c, 0, 58, 0
2, 41562, Note_on_c, 0, 54, 0
2, 41564, Note_on_c, 0, 77, 0
2, 41564, Note_on_c, 0, 73, 80
2, 41564, Note_on_c, 0, 75, 80
2, 41564, Note_on_c, 0, 78, 80
2, 41564, Note_on_c, 0, 82, 80
2, 41564, Note_on_c, 0, 85, 80
2, 41613, Note_on_c, 0, 73, 0
2, 41613, Note_on_c, 0, 37, 80
2, 41615, Note_on_c, 0, 85, 0
2, 41639, Control_c, 0, 64, 0
2, 41667, Note_on_c, 0, 78, 0
2, 41672, Note_on_c, 0, 75, 0
2, 41672, Note_on_c, 0, 82, 0
2, 41674, Note_on_c, 0, 73, 80
2, 41674, Note_on_c, 0, 85, 80
2, 41694, Note_on_c, 0, 37, 0
2, 41725, Note_on_c, 0, 85, 0
2, 41725, Note_on_c, 0, 73, 0
2, 41727, Note_on_c, 0, 58, 80
2, 41727, Note_on_c, 0, 61, 80
2, 41727, Note_on_c, 0, 66, 80
2, 41727, Note_on_c, 0, 70, 80
2, 41727, Note_on_c, 0, 78, 80
2, 41727, Note_on_c, 0, 82, 80
2, 41742, Note_on_c, 0, 61, 0
2, 41744, Note_on_c, 0, 66, 0
2, 41746, Note_on_c, 0, 58, 0
2, 41775, Note_on_c, 0, 70, 0
2, 41775, Note_on_c, 0, 82, 0
2, 41775, Note_on_c, 0, 78, 0
2, 41775, Note_on_c, 0, 68, 80
2, 41782, Note_on_c, 0, 80, 80
2, 41828, Note_on_c, 0, 80, 0
2, 41828, Note_on_c, 0, 68, 0
2, 41832, Note_on_c, 0, 42, 80
2, 41832, Note_on_c, 0, 54, 80
2, 41834, Note_on_c, 0, 66, 80
2, 41834, Note_on_c, 0, 70, 80
2, 41834, Note_on_c, 0, 73, 80
2, 41850, Note_on_c, 0, 66, 0
2, 41852, Note_on_c, 0, 70, 0
2, 41852, Note_on_c, 0, 73, 0
2, 41882, Note_on_c, 0, 54, 0
2, 41887, Note_on_c, 0, 65, 80
2, 41887, Note_on_c, 0, 70, 80
2, 41887, Note_on_c, 0, 73, 80
2, 41931, Note_on_c, 0, 73, 0
2, 41933, Note_on_c, 0, 42, 0
2, 41935, Note_on_c, 0, 70, 0
2, 41935, Note_on_c, 0, 65, 0
2, 41935, Note_on_c, 0, 49, 80
2, 41935, Note_on_c, 0, 54, 80
2, 41937, Note_on_c, 0, 58, 80
2, 41961, Note_on_c, 0, 49, 0
2, 41985, Note_on_c, 0, 54, 0
2, 41987, Note_on_c, 0, 58, 0
2, 41994, Note_on_c, 0, 64, 80
2, 41994, Note_on_c, 0, 70, 80
2, 41994, Note_on_c, 0, 73, 80
2, 42045, Note_on_c, 0, 34, 80
2, 42045, Note_on_c, 0, 46, 80
2, 42094, Note_on_c, 0, 73, 0
2, 42094, Note_on_c, 0, 64, 0
2, 42094, Note_on_c, 0, 70, 0
2, 42098, Note_on_c, 0, 63, 80
2, 42100, Note_on_c, 0, 75, 80
2, 42140, Note_on_c, 0, 34, 0
2, 42144, Note_on_c, 0, 46, 0
2, 42146, Note_on_c, 0, 63, 0
2, 42148, Note_on_c, 0, 75, 0
2, 42150, Note_on_c, 0, 49, 80
2, 42150, Note_on_c, 0, 52, 80
2, 42150, Note_on_c, 0, 54, 80
2, 42150, Note_on_c, 0, 58, 80
2, 42150, Note_on_c, 0, 61, 80
2, 42152, Note_on_c, 0, 64, 80
2, 42152, Note_on_c, 0, 70, 80
2, 42152, Note_on_c, 0, 73, 80
2, 42192, Note_on_c, 0, 54, 0
2, 42193, Note_on_c, 0, 73, 0
2, 42195, Note_on_c, 0, 64, 0
2, 42195, Note_on_c, 0, 52, 0
2, 42195, Note_on_c, 0, 58, 0
2, 42195, Note_on_c, 0, 61, 0
2, 42195, Note_on_c, 0, 70, 0
2, 42195, Note_on_c, 0, 49, 0
2, 42251, Note_on_c, 0, 35, 80
2, 42251, Note_on_c, 0, 47, 80
2, 42256, Note_on_c, 0, 78, 80
2, 42256, Note_on_c, 0, 85, 80
2, 42258, Note_on_c, 0, 73, 80
2, 42275, Note_on_c, 0, 73, 0
2, 42275, Note_on_c, 0, 78, 0
2, 42277, Note_on_c, 0, 85, 0
2, 42308, Note_on_c, 0, 71, 80
2, 42308, Note_on_c, 0, 75, 80
2, 42308, Note_on_c, 0, 78, 80
2, 42310, Note_on_c, 0, 83, 80
2, 42325, Note_on_c, 0, 35, 0
2, 42354, Note_on_c, 0, 47, 0
2, 42356, Note_on_c, 0, 78, 0
2, 42356, Note_on_c, 0, 71, 0
2, 42360, Note_on_c, 0, 75, 0
2, 42360, Note_on_c, 0, 83, 0
2, 42360, Note_on_c, 0, 59, 80
2, 42360, Note_on_c, 0, 66, 80
2, 42362, Note_on_c, 0, 63, 80
2, 42384, Note_on_c, 0, 63, 0
2, 42384, Note_on_c, 0, 59, 0
2, 42411, Note_on_c, 0, 66, 0
2, 42416, Note_on_c, 0, 94, 80
2, 42418, Note_on_c, 0, 87, 80
2, 42420, Note_on_c, 0, 82, 80
2, 42456, Note_on_c, 0, 36, 80
2, 42457, Note_on_c, 0, 87, 0
2, 42457, Note_on_c, 0, 48, 80
2, 42508, Note_on_c, 0, 94, 0
2, 42508, Note_on_c, 0, 82, 0
2, 42561, Note_on_c, 0, 36, 0
2, 42563, Note_on_c, 0, 48, 0
2, 42568, Note_on_c, 0, 54, 80
2, 42568, Note_on_c, 0, 60, 80
2, 42568, Note_on_c, 0, 63, 80
2, 42568, Note_on_c, 0, 66, 80
2, 42568, Note_on_c, 0, 80, 80
2, 42568, Note_on_c, 0, 92, 80
2, 42575, Note_on_c, 0, 87, 80
2, 42583, Note_on_c, 0, 54, 0
2, 42588, Note_on_c, 0, 60, 0
2, 42612, Note_on_c, 0, 80, 0
2, 42617, Note_on_c, 0, 92, 0
2, 42617, Note_on_c, 0, 66, 0
2, 42617, Note_on_c, 0, 87, 0
2, 42617, Note_on_c, 0, 63, 0
2, 42676, Note_on_c, 0, 37, 80
2, 42678, Note_on_c, 0, 49, 80
2, 42678, Note_on_c, 0, 77, 80
2, 42678, Note_on_c, 0, 89, 80
2, 42722, Note_on_c, 0, 77, 0
2, 42727, Note_on_c, 0, 89, 0
2, 42729, Note_on_c, 0, 78, 80
2, 42729, Note_on_c, 0, 82, 80
2, 42729, Note_on_c, 0, 85, 80
2, 42729, Note_on_c, 0, 90, 80
2, 42773, Note_on_c, 0, 37, 0
2, 42780, Note_on_c, 0, 85, 0
2, 42780, Note_on_c, 0, 49, 0
2, 42787, Note_on_c, 0, 58, 80
2, 42787, Note_on_c, 0, 61, 80
2, 42789, Note_on_c, 0, 66, 80
2, 42804, Note_on_c, 0, 61, 0
2, 42804, Note_on_c, 0, 58, 0
2, 42806, Note_on_c, 0, 66, 0
2, 42833, Note_on_c, 0, 78, 0
2, 42833, Note_on_c, 0, 82, 0
2, 42833, Note_on_c, 0, 90, 0
2, 42840, Note_on_c, 0, 85, 80
2, 42841, Note_on_c, 0, 79, 80
2, 42848, Note_on_c, 0, 73, 80
2, 42892, Note_on_c, 0, 51, 80
2, 42897, Note_on_c, 0, 39, 80
2, 42936, Note_on_c, 0, 73, 0
2, 42941, Note_on_c, 0, 85, 0
2, 42943, Note_on_c, 0, 79, 0
2, 42943, Note_on_c, 0, 74, 80
2, 42950, Note_on_c, 0, 86, 80
2, 42961, Note_on_c, 0, 39, 0
2, 42992, Note_on_c, 0, 51, 0
2, 42992, Note_on_c, 0, 74, 0
2, 42992, Note_on_c, 0, 86, 0
2, 42994, Note_on_c, 0, 58, 80
2, 42994, Note_on_c, 0, 61, 80
2, 42994, Note_on_c, 0, 63, 80
2, 42996, Note_on_c, 0, 55, 80
2, 42996, Note_on_c, 0, 75, 80
2, 42996, Note_on_c, 0, 79, 80
2, 42998, Note_on_c, 0, 87, 80
2, 43037, Note_on_c, 0, 61, 0
2, 43039, Note_on_c, 0, 55, 0
2, 43039, Note_on_c, 0, 58, 0
2, 43041, Note_on_c, 0, 75, 0
2, 43041, Note_on_c, 0, 79, 0
2, 43041, Note_on_c, 0, 87, 0
2, 43041, Note_on_c, 0, 63, 0
2, 43094, Note_on_c, 0, 44, 80
2, 43094, Note_on_c, 0, 56, 80
2, 43096, Control_c, 0, 64, 127
2, 43096, Note_on_c, 0, 71, 80
2, 43096, Note_on_c, 0, 80, 80
2, 43096, Note_on_c, 0, 83, 80
2, 43142, Note_on_c, 0, 56, 0
2, 43151, Note_on_c, 0, 75, 80
2, 43190, Note_on_c, 0, 44, 0
2, 43197, Note_on_c, 0, 75, 0
2, 43197, Note_on_c, 0, 56, 80
2, 43199, Note_on_c, 0, 59, 80
2, 43199, Note_on_c, 0, 63, 80
2, 43199, Note_on_c, 0, 74, 80
2, 43219, Note_on_c, 0, 63, 0
2, 43219, Note_on_c, 0, 59, 0
2, 43221, Note_on_c, 0, 56, 0
2, 43243, Note_on_c, 0, 80, 0
2, 43248, Note_on_c, 0, 71, 0
2, 43249, Note_on_c, 0, 83, 0
2, 43249, Note_on_c, 0, 74, 0
2, 43249, Note_on_c, 0, 70, 80
2, 43249, Note_on_c, 0, 73, 80
2, 43249, Note_on_c, 0, 82, 80
2, 43251, Note_on_c, 0, 77, 80
2, 43297, Note_on_c, 0, 37, 80
2, 43297, Note_on_c, 0, 49, 80
2, 43324, Control_c, 0, 64, 0
2, 43348, Note_on_c, 0, 73, 0
2, 43348, Note_on_c, 0, 70, 0
2, 43350, Note_on_c, 0, 77, 0
2, 43350, Note_on_c, 0, 72, 80
2, 43372, Note_on_c, 0, 49, 0
2, 43396, Note_on_c, 0, 72, 0
2, 43398, Note_on_c, 0, 37, 0
2, 43400, Note_on_c, 0, 82, 0
2, 43405, Note_on_c, 0, 56, 80
2, 43407, Note_on_c, 0, 59, 80
2, 43407, Note_on_c, 0, 61, 80
2, 43407, Note_on_c, 0, 65, 80
2, 43407, Note_on_c, 0, 68, 80
2, 43407, Note_on_c, 0, 71, 80
2, 43407, Note_on_c, 0, 77, 80
2, 43407, Note_on_c, 0, 80, 80
2, 43500, Note_on_c, 0, 71, 0
2, 43505, Note_on_c, 0, 56, 0
2, 43505, Note_on_c, 0, 68, 0
2, 43505, Note_on_c, 0, 59, 0
2, 43505, Note_on_c, 0, 61, 0
2, 43505, Note_on_c, 0, 65, 0
2, 43505, Note_on_c, 0, 77, 0
2, 43505, Note_on_c, 0, 80, 0
2, 43505, Note_on_c, 0, 42, 80
2, 43510, Note_on_c, 0, 49, 80
2, 43510, Note_on_c, 0, 58, 80
2, 43510, Note_on_c, 0, 70, 80
2, 43512, Note_on_c, 0, 66, 80
2, 43512, Note_on_c, 0, 73, 80
2, 43512, Note_on_c, 0, 78, 80
2, 43556, Note_on_c, 0, 49, 0
2, 43602, Note_on_c, 0, 42, 0
2, 43604, Note_on_c, 0, 58, 0
2, 43606, Note_on_c, 0, 37, 80
2, 43606, Note_on_c, 0, 49, 80
2, 43655, Note_on_c, 0, 49, 0
2, 43655, Note_on_c, 0, 37, 0
2, 43661, Note_on_c, 0, 78, 0
2, 43712, Note_on_c, 0, 70, 0
2, 43712, Note_on_c, 0, 73, 0
2, 43712, Note_on_c, 0, 66, 0
2, 43712, Control_c, 0, 64, 127
2, 43712, Note_on_c, 0, 30, 80
2, 43712, Note_on_c, 0, 42, 80
2, 43714, Note_on_c, 0, 82, 80
2, 43714, Note_on_c, 0, 85, 80
2, 43714, Note_on_c, 0, 90, 80
2, 43716, Note_on_c, 0, 78, 80
2, 43787, Note_on_c, 0, 42, 0
2, 43787, Note_on_c, 0, 30, 0
2, 43792, Note_on_c, 0, 90, 0
2, 43792, Note_on_c, 0, 82, 0
2, 43792, Control_c, 0, 64, 0
2, 43797, Note_on_c, 0, 85, 0
2, 43797, Note_on_c, 0, 78, 0
2, 43797, End_track
3, 0, Start_track
3, 0, Title_t, "c/b James Scott"
3, 0, End_track
4, 0, Start_track
4, 0, Title_t, "p/b Steve Williams"
4, 0, End_track
5, 0, Start_track
5, 0, Title_t, "Jazz Classics # 403"
5, 0, End_track
6, 0, Start_track
6, 0, Title_t, "Scan of a player piano roll"
6, 0, End_track
7, 0, Start_track
7, 0, Title_t, "by Terry Smythe, Winnipeg, Canada"
7, 0, End_track
8, 0, Start_track
8, 1, Copyright_t, "___________________________________________________\012\012KUNSTDERFUGE.COM LARGE CLASSICAL MIDI COLLECTION\012ONCLASSICAL BY ALESSANDRO SIMONETTO, PROPRIETOR\012___________________________________________________\012\012! Attention: this file is under copyright !\012\012(c)onclassical, (nc)smythe, 2010\012___________________________________________________\012\012NO ONE MAY REPUBLISH THIS FILE WITHOUT PERMISSION\012COMMERCIAL USES OF THIS FILE IS STRICTLY PROHIBITED\012___________________________________________________\012\012Files & contributor's list: http://kunstderfuge.com/\012Terms and conditions: http://kunstderfuge.com/notes.htm"
8, 1, End_track
0, 0, End_of_file
