0, 0, Header, 1, 8, 192
1, 0, Start_track
1, 0, Title_t, "JELLS"
1, 0, Copyright_t, "May NOT be used for commercial purposes."
1, 0, Text_t, "Roll expression/accent tracks, where present, converted to MIDI velocties.\012"
1, 0, Time_signature, 4, 2, 24, 8
1, 0, Key_signature, 0, "major"
1, 0, Tempo, 500000
1, 0, Marker_t, "Standard MIDI:LPI 120:Tempo  80: 05-11-2004"
1, 0, End_track
2, 0, Start_track
2, 0, Title_t, "Jelly Roll Blues (1924)"
2, 236, Note_on_c, 0, 84, 80
2, 250, Note_on_c, 0, 86, 80
2, 266, Note_on_c, 0, 87, 80
2, 279, Note_on_c, 0, 84, 0
2, 281, Note_on_c, 0, 88, 80
2, 290, Note_on_c, 0, 89, 80
2, 294, Note_on_c, 0, 86, 0
2, 296, Control_c, 0, 64, 127
2, 306, Note_on_c, 0, 87, 0
2, 308, Note_on_c, 0, 70, 80
2, 310, Note_on_c, 0, 66, 80
2, 310, Note_on_c, 0, 73, 80
2, 310, Note_on_c, 0, 90, 80
2, 313, Note_on_c, 0, 88, 0
2, 313, Note_on_c, 0, 78, 80
2, 341, Note_on_c, 0, 89, 0
2, 347, Note_on_c, 0, 90, 0
2, 379, Note_on_c, 0, 66, 0
2, 381, Note_on_c, 0, 70, 0
2, 383, Note_on_c, 0, 73, 0
2, 384, Note_on_c, 0, 78, 0
2, 384, Note_on_c, 0, 90, 80
2, 429, Note_on_c, 0, 90, 0
2, 431, Control_c, 0, 64, 0
2, 432, Note_on_c, 0, 85, 80
2, 506, Note_on_c, 0, 85, 0
2, 510, Note_on_c, 0, 82, 80
2, 551, Note_on_c, 0, 82, 0
2, 551, Note_on_c, 0, 61, 80
2, 552, Note_on_c, 0, 66, 80
2, 552, Note_on_c, 0, 73, 80
2, 552, Note_on_c, 0, 78, 80
2, 628, Note_on_c, 0, 61, 0
2, 632, Note_on_c, 0, 85, 80
2, 634, Note_on_c, 0, 66, 0
2, 634, Note_on_c, 0, 73, 0
2, 638, Note_on_c, 0, 78, 0
2, 674, Note_on_c, 0, 85, 0
2, 684, Note_on_c, 0, 82, 80
2, 758, Note_on_c, 0, 82, 0
2, 764, Note_on_c, 0, 78, 80
2, 802, Note_on_c, 0, 61, 80
2, 804, Note_on_c, 0, 54, 80
2, 806, Note_on_c, 0, 58, 80
2, 806, Note_on_c, 0, 66, 80
2, 808, Note_on_c, 0, 78, 0
2, 816, Control_c, 0, 64, 127
2, 880, Note_on_c, 0, 66, 0
2, 880, Note_on_c, 0, 54, 0
2, 882, Note_on_c, 0, 61, 0
2, 882, Note_on_c, 0, 78, 80
2, 896, Note_on_c, 0, 58, 0
2, 922, Control_c, 0, 64, 0
2, 932, Note_on_c, 0, 78, 0
2, 934, Note_on_c, 0, 73, 80
2, 1008, Note_on_c, 0, 73, 0
2, 1008, Note_on_c, 0, 70, 80
2, 1052, Note_on_c, 0, 49, 80
2, 1057, Note_on_c, 0, 70, 0
2, 1057, Note_on_c, 0, 54, 80
2, 1057, Note_on_c, 0, 61, 80
2, 1057, Note_on_c, 0, 66, 80
2, 1126, Note_on_c, 0, 54, 0
2, 1129, Note_on_c, 0, 49, 0
2, 1129, Note_on_c, 0, 61, 0
2, 1129, Note_on_c, 0, 73, 80
2, 1131, Note_on_c, 0, 66, 0
2, 1176, Note_on_c, 0, 70, 80
2, 1177, Note_on_c, 0, 73, 0
2, 1244, Note_on_c, 0, 42, 80
2, 1251, Note_on_c, 0, 66, 80
2, 1253, Note_on_c, 0, 70, 0
2, 1263, Note_on_c, 0, 49, 80
2, 1295, Note_on_c, 0, 66, 0
2, 1295, Control_c, 0, 64, 127
2, 1298, Note_on_c, 0, 58, 80
2, 1372, Note_on_c, 0, 61, 80
2, 1389, Note_on_c, 0, 58, 0
2, 1418, Note_on_c, 0, 66, 80
2, 1420, Note_on_c, 0, 61, 0
2, 1435, Control_c, 0, 64, 0
2, 1461, Note_on_c, 0, 49, 0
2, 1464, Note_on_c, 0, 42, 0
2, 1494, Note_on_c, 0, 66, 0
2, 1496, Note_on_c, 0, 70, 80
2, 1538, Note_on_c, 0, 42, 80
2, 1540, Note_on_c, 0, 54, 80
2, 1544, Note_on_c, 0, 70, 0
2, 1544, Note_on_c, 0, 63, 80
2, 1550, Note_on_c, 0, 75, 80
2, 1616, Note_on_c, 0, 54, 0
2, 1618, Note_on_c, 0, 42, 0
2, 1624, Note_on_c, 0, 75, 0
2, 1628, Note_on_c, 0, 63, 0
2, 1670, Note_on_c, 0, 48, 80
2, 1672, Note_on_c, 0, 55, 80
2, 1678, Note_on_c, 0, 64, 80
2, 1678, Note_on_c, 0, 70, 80
2, 1678, Note_on_c, 0, 72, 80
2, 1683, Note_on_c, 0, 76, 80
2, 1741, Note_on_c, 0, 48, 0
2, 1747, Note_on_c, 0, 55, 0
2, 1747, Note_on_c, 0, 64, 0
2, 1752, Note_on_c, 0, 70, 0
2, 1752, Note_on_c, 0, 72, 0
2, 1752, Note_on_c, 0, 76, 0
2, 1793, Note_on_c, 0, 48, 80
2, 1799, Control_c, 0, 64, 127
2, 1799, Note_on_c, 0, 57, 80
2, 1799, Note_on_c, 0, 65, 80
2, 1800, Note_on_c, 0, 72, 80
2, 1804, Note_on_c, 0, 69, 80
2, 1808, Note_on_c, 0, 77, 80
2, 1930, Control_c, 0, 64, 0
2, 1972, Note_on_c, 0, 48, 0
2, 1980, Note_on_c, 0, 72, 0
2, 1984, Note_on_c, 0, 65, 0
2, 1984, Note_on_c, 0, 77, 0
2, 1986, Note_on_c, 0, 57, 0
2, 1986, Note_on_c, 0, 69, 0
2, 2034, Note_on_c, 0, 48, 80
2, 2043, Note_on_c, 0, 41, 80
2, 2043, Note_on_c, 0, 57, 80
2, 2043, Note_on_c, 0, 65, 80
2, 2049, Note_on_c, 0, 69, 80
2, 2049, Note_on_c, 0, 72, 80
2, 2053, Note_on_c, 0, 77, 80
2, 2079, Note_on_c, 0, 48, 0
2, 2087, Note_on_c, 0, 41, 0
2, 2090, Note_on_c, 0, 65, 0
2, 2094, Note_on_c, 0, 72, 0
2, 2094, Note_on_c, 0, 77, 0
2, 2100, Note_on_c, 0, 57, 0
2, 2124, Note_on_c, 0, 69, 0
2, 2300, Control_c, 0, 64, 127
2, 2312, Note_on_c, 0, 65, 80
2, 2316, Note_on_c, 0, 70, 80
2, 2316, Note_on_c, 0, 74, 80
2, 2318, Note_on_c, 0, 58, 80
2, 2318, Note_on_c, 0, 82, 80
2, 2322, Note_on_c, 0, 77, 80
2, 2344, Note_on_c, 0, 82, 0
2, 2348, Note_on_c, 0, 77, 0
2, 2364, Note_on_c, 0, 82, 80
2, 2368, Note_on_c, 0, 77, 80
2, 2434, Control_c, 0, 64, 0
2, 2480, Note_on_c, 0, 58, 0
2, 2490, Note_on_c, 0, 82, 0
2, 2490, Note_on_c, 0, 74, 0
2, 2492, Note_on_c, 0, 65, 0
2, 2492, Note_on_c, 0, 77, 0
2, 2496, Note_on_c, 0, 70, 0
2, 2510, Note_on_c, 0, 73, 80
2, 2552, Note_on_c, 0, 73, 0
2, 2554, Note_on_c, 0, 74, 80
2, 2554, Note_on_c, 0, 79, 80
2, 2556, Note_on_c, 0, 70, 80
2, 2560, Note_on_c, 0, 67, 80
2, 2754, Note_on_c, 0, 67, 0
2, 2754, Note_on_c, 0, 74, 0
2, 2756, Note_on_c, 0, 79, 0
2, 2758, Note_on_c, 0, 70, 0
2, 2770, Note_on_c, 0, 63, 80
2, 2790, Control_c, 0, 64, 127
2, 2790, Note_on_c, 0, 64, 80
2, 2805, Note_on_c, 0, 65, 80
2, 2805, Note_on_c, 0, 70, 80
2, 2810, Note_on_c, 0, 74, 80
2, 2816, Note_on_c, 0, 77, 80
2, 2822, Note_on_c, 0, 63, 0
2, 2836, Note_on_c, 0, 64, 0
2, 2842, Note_on_c, 0, 74, 0
2, 2842, Note_on_c, 0, 70, 0
2, 2842, Note_on_c, 0, 77, 0
2, 2862, Note_on_c, 0, 70, 80
2, 2862, Note_on_c, 0, 74, 80
2, 2866, Note_on_c, 0, 77, 80
2, 2890, Note_on_c, 0, 74, 0
2, 2890, Note_on_c, 0, 70, 0
2, 2894, Note_on_c, 0, 77, 0
2, 2910, Note_on_c, 0, 74, 80
2, 2914, Note_on_c, 0, 70, 80
2, 2922, Note_on_c, 0, 77, 80
2, 2936, Note_on_c, 0, 74, 0
2, 2936, Control_c, 0, 64, 0
2, 2940, Note_on_c, 0, 77, 0
2, 2956, Note_on_c, 0, 74, 80
2, 2962, Note_on_c, 0, 77, 80
2, 3002, Note_on_c, 0, 65, 0
2, 3019, Note_on_c, 0, 70, 0
2, 3019, Note_on_c, 0, 74, 0
2, 3023, Note_on_c, 0, 77, 0
2, 3039, Note_on_c, 0, 65, 80
2, 3061, Note_on_c, 0, 66, 80
2, 3073, Note_on_c, 0, 70, 80
2, 3075, Note_on_c, 0, 67, 80
2, 3075, Note_on_c, 0, 74, 80
2, 3075, Note_on_c, 0, 79, 80
2, 3090, Note_on_c, 0, 65, 0
2, 3096, Note_on_c, 0, 66, 0
2, 3145, Note_on_c, 0, 74, 0
2, 3145, Note_on_c, 0, 79, 0
2, 3149, Note_on_c, 0, 70, 0
2, 3195, Note_on_c, 0, 70, 80
2, 3195, Note_on_c, 0, 74, 80
2, 3199, Note_on_c, 0, 77, 80
2, 3251, Note_on_c, 0, 74, 0
2, 3251, Note_on_c, 0, 70, 0
2, 3259, Note_on_c, 0, 67, 0
2, 3259, Note_on_c, 0, 77, 0
2, 3285, Note_on_c, 0, 60, 80
2, 3288, Note_on_c, 0, 72, 80
2, 3307, Note_on_c, 0, 73, 80
2, 3309, Note_on_c, 0, 61, 80
2, 3321, Note_on_c, 0, 62, 80
2, 3323, Note_on_c, 0, 74, 80
2, 3333, Note_on_c, 0, 60, 0
2, 3333, Control_c, 0, 64, 127
2, 3336, Note_on_c, 0, 72, 0
2, 3349, Note_on_c, 0, 61, 0
2, 3349, Note_on_c, 0, 73, 0
2, 3385, Note_on_c, 0, 74, 0
2, 3389, Note_on_c, 0, 79, 80
2, 3391, Note_on_c, 0, 62, 0
2, 3391, Note_on_c, 0, 67, 80
2, 3445, Control_c, 0, 64, 0
2, 3523, Note_on_c, 0, 67, 0
2, 3523, Note_on_c, 0, 79, 0
2, 3523, Note_on_c, 0, 65, 80
2, 3528, Note_on_c, 0, 77, 80
2, 3567, Note_on_c, 0, 65, 0
2, 3567, Note_on_c, 0, 61, 80
2, 3569, Note_on_c, 0, 73, 80
2, 3571, Note_on_c, 0, 77, 0
2, 3628, Note_on_c, 0, 61, 0
2, 3630, Note_on_c, 0, 73, 0
2, 3645, Note_on_c, 0, 62, 80
2, 3650, Note_on_c, 0, 74, 80
2, 3687, Note_on_c, 0, 74, 0
2, 3687, Note_on_c, 0, 62, 0
2, 3691, Note_on_c, 0, 70, 80
2, 3693, Note_on_c, 0, 58, 80
2, 3748, Note_on_c, 0, 70, 0
2, 3750, Note_on_c, 0, 58, 0
2, 3763, Note_on_c, 0, 54, 80
2, 3765, Note_on_c, 0, 66, 80
2, 3805, Note_on_c, 0, 54, 0
2, 3805, Note_on_c, 0, 55, 80
2, 3807, Note_on_c, 0, 66, 0
2, 3807, Note_on_c, 0, 62, 80
2, 3815, Note_on_c, 0, 67, 80
2, 3833, Control_c, 0, 64, 127
2, 3869, Note_on_c, 0, 67, 0
2, 3871, Note_on_c, 0, 62, 0
2, 3871, Note_on_c, 0, 55, 0
2, 3879, Note_on_c, 0, 53, 80
2, 3887, Note_on_c, 0, 65, 80
2, 3925, Control_c, 0, 64, 0
2, 3927, Note_on_c, 0, 49, 80
2, 3929, Note_on_c, 0, 61, 80
2, 3931, Note_on_c, 0, 65, 0
2, 3931, Note_on_c, 0, 53, 0
2, 3969, Note_on_c, 0, 49, 0
2, 3975, Note_on_c, 0, 61, 0
2, 4005, Note_on_c, 0, 50, 80
2, 4007, Note_on_c, 0, 62, 80
2, 4047, Note_on_c, 0, 50, 0
2, 4049, Note_on_c, 0, 62, 0
2, 4053, Note_on_c, 0, 46, 80
2, 4056, Note_on_c, 0, 58, 80
2, 4136, Note_on_c, 0, 46, 0
2, 4144, Note_on_c, 0, 58, 0
2, 4160, Note_on_c, 0, 34, 80
2, 4166, Note_on_c, 0, 46, 80
2, 4166, Note_on_c, 0, 56, 80
2, 4170, Note_on_c, 0, 62, 80
2, 4170, Note_on_c, 0, 65, 80
2, 4172, Note_on_c, 0, 68, 80
2, 4172, Note_on_c, 0, 70, 80
2, 4240, Note_on_c, 0, 34, 0
2, 4246, Note_on_c, 0, 46, 0
2, 4248, Note_on_c, 0, 62, 0
2, 4249, Note_on_c, 0, 68, 0
2, 4251, Note_on_c, 0, 70, 0
2, 4251, Note_on_c, 0, 65, 0
2, 4253, Note_on_c, 0, 56, 0
2, 4261, Control_c, 0, 64, 127
2, 4277, Note_on_c, 0, 39, 80
2, 4277, Note_on_c, 0, 51, 80
2, 4355, Note_on_c, 0, 63, 80
2, 4357, Note_on_c, 0, 58, 80
2, 4357, Note_on_c, 0, 67, 80
2, 4359, Note_on_c, 0, 70, 80
2, 4401, Note_on_c, 0, 58, 0
2, 4401, Control_c, 0, 64, 0
2, 4401, Note_on_c, 0, 60, 80
2, 4447, Note_on_c, 0, 60, 0
2, 4449, Note_on_c, 0, 70, 0
2, 4449, Note_on_c, 0, 63, 0
2, 4449, Note_on_c, 0, 67, 0
2, 4488, Note_on_c, 0, 58, 80
2, 4488, Note_on_c, 0, 67, 80
2, 4530, Note_on_c, 0, 58, 0
2, 4530, Note_on_c, 0, 63, 80
2, 4534, Note_on_c, 0, 61, 80
2, 4534, Note_on_c, 0, 70, 80
2, 4574, Note_on_c, 0, 70, 0
2, 4574, Note_on_c, 0, 63, 0
2, 4576, Note_on_c, 0, 67, 0
2, 4576, Note_on_c, 0, 61, 0
2, 4614, Note_on_c, 0, 67, 80
2, 4614, Note_on_c, 0, 70, 80
2, 4616, Note_on_c, 0, 39, 0
2, 4616, Note_on_c, 0, 58, 80
2, 4626, Note_on_c, 0, 51, 0
2, 4633, Note_on_c, 0, 67, 0
2, 4650, Note_on_c, 0, 58, 0
2, 4650, Note_on_c, 0, 46, 80
2, 4650, Note_on_c, 0, 60, 80
2, 4652, Note_on_c, 0, 63, 80
2, 4657, Note_on_c, 0, 67, 80
2, 4689, Note_on_c, 0, 46, 0
2, 4693, Note_on_c, 0, 48, 80
2, 4723, Note_on_c, 0, 67, 0
2, 4725, Note_on_c, 0, 63, 0
2, 4725, Note_on_c, 0, 60, 0
2, 4727, Note_on_c, 0, 70, 0
2, 4730, Note_on_c, 0, 50, 80
2, 4732, Note_on_c, 0, 48, 0
2, 4762, Note_on_c, 0, 51, 80
2, 4764, Note_on_c, 0, 63, 80
2, 4774, Note_on_c, 0, 50, 0
2, 4774, Note_on_c, 0, 67, 80
2, 4776, Control_c, 0, 64, 127
2, 4803, Note_on_c, 0, 67, 0
2, 4807, Note_on_c, 0, 63, 0
2, 4833, Note_on_c, 0, 58, 80
2, 4837, Note_on_c, 0, 70, 80
2, 4839, Note_on_c, 0, 67, 80
2, 4875, Note_on_c, 0, 58, 0
2, 4875, Note_on_c, 0, 60, 80
2, 4877, Note_on_c, 0, 63, 80
2, 4905, Control_c, 0, 64, 0
2, 4911, Note_on_c, 0, 67, 0
2, 4917, Note_on_c, 0, 60, 0
2, 4917, Note_on_c, 0, 63, 0
2, 4919, Note_on_c, 0, 70, 0
2, 4948, Note_on_c, 0, 67, 80
2, 4950, Note_on_c, 0, 58, 80
2, 4989, Note_on_c, 0, 63, 80
2, 4989, Note_on_c, 0, 70, 80
2, 4991, Note_on_c, 0, 58, 0
2, 4992, Note_on_c, 0, 61, 80
2, 5026, Note_on_c, 0, 61, 0
2, 5034, Note_on_c, 0, 70, 0
2, 5034, Note_on_c, 0, 67, 0
2, 5040, Note_on_c, 0, 63, 0
2, 5071, Note_on_c, 0, 70, 80
2, 5075, Note_on_c, 0, 58, 80
2, 5077, Note_on_c, 0, 67, 80
2, 5099, Note_on_c, 0, 67, 0
2, 5115, Note_on_c, 0, 58, 0
2, 5117, Note_on_c, 0, 41, 80
2, 5117, Note_on_c, 0, 60, 80
2, 5119, Note_on_c, 0, 51, 0
2, 5119, Note_on_c, 0, 63, 80
2, 5127, Note_on_c, 0, 67, 80
2, 5160, Note_on_c, 0, 41, 0
2, 5160, Note_on_c, 0, 43, 80
2, 5190, Note_on_c, 0, 70, 0
2, 5194, Note_on_c, 0, 67, 0
2, 5194, Note_on_c, 0, 63, 0
2, 5196, Note_on_c, 0, 60, 0
2, 5202, Note_on_c, 0, 43, 0
2, 5209, Note_on_c, 0, 45, 80
2, 5239, Note_on_c, 0, 45, 0
2, 5241, Note_on_c, 0, 46, 80
2, 5245, Control_c, 0, 64, 127
2, 5357, Note_on_c, 0, 53, 80
2, 5359, Note_on_c, 0, 65, 80
2, 5363, Note_on_c, 0, 58, 80
2, 5363, Note_on_c, 0, 62, 80
2, 5371, Control_c, 0, 64, 0
2, 5407, Note_on_c, 0, 47, 80
2, 5427, Note_on_c, 0, 46, 0
2, 5429, Note_on_c, 0, 62, 0
2, 5429, Note_on_c, 0, 58, 0
2, 5429, Note_on_c, 0, 65, 0
2, 5433, Note_on_c, 0, 53, 0
2, 5433, Note_on_c, 0, 48, 80
2, 5451, Note_on_c, 0, 47, 0
2, 5455, Note_on_c, 0, 49, 80
2, 5470, Note_on_c, 0, 48, 0
2, 5482, Note_on_c, 0, 50, 80
2, 5496, Note_on_c, 0, 49, 0
2, 5594, Note_on_c, 0, 53, 80
2, 5594, Note_on_c, 0, 62, 80
2, 5602, Note_on_c, 0, 58, 80
2, 5602, Note_on_c, 0, 65, 80
2, 5639, Note_on_c, 0, 50, 0
2, 5670, Note_on_c, 0, 50, 80
2, 5674, Note_on_c, 0, 58, 0
2, 5674, Note_on_c, 0, 65, 0
2, 5674, Note_on_c, 0, 53, 0
2, 5674, Note_on_c, 0, 62, 0
2, 5687, Note_on_c, 0, 51, 80
2, 5711, Control_c, 0, 64, 127
2, 5711, Note_on_c, 0, 52, 80
2, 5716, Note_on_c, 0, 50, 0
2, 5722, Note_on_c, 0, 53, 80
2, 5738, Note_on_c, 0, 51, 0
2, 5748, Note_on_c, 0, 52, 0
2, 5854, Control_c, 0, 64, 0
2, 5854, Note_on_c, 0, 62, 80
2, 5856, Note_on_c, 0, 65, 80
2, 5857, Note_on_c, 0, 58, 80
2, 5922, Note_on_c, 0, 53, 0
2, 5974, Note_on_c, 0, 50, 80
2, 6062, Note_on_c, 0, 62, 0
2, 6064, Note_on_c, 0, 65, 0
2, 6066, Note_on_c, 0, 58, 0
2, 6092, Note_on_c, 0, 49, 80
2, 6092, Note_on_c, 0, 55, 80
2, 6094, Note_on_c, 0, 50, 0
2, 6096, Note_on_c, 0, 64, 80
2, 6099, Note_on_c, 0, 58, 80
2, 6177, Note_on_c, 0, 64, 0
2, 6181, Note_on_c, 0, 55, 0
2, 6185, Note_on_c, 0, 58, 0
2, 6185, Control_c, 0, 64, 127
2, 6211, Note_on_c, 0, 53, 80
2, 6213, Note_on_c, 0, 48, 80
2, 6215, Note_on_c, 0, 49, 0
2, 6215, Note_on_c, 0, 57, 80
2, 6218, Note_on_c, 0, 63, 80
2, 6290, Control_c, 0, 64, 0
2, 6408, Note_on_c, 0, 63, 0
2, 6408, Note_on_c, 0, 53, 0
2, 6410, Note_on_c, 0, 57, 0
2, 6432, Note_on_c, 0, 55, 80
2, 6442, Note_on_c, 0, 48, 0
2, 6446, Note_on_c, 0, 56, 80
2, 6462, Note_on_c, 0, 57, 80
2, 6464, Note_on_c, 0, 41, 80
2, 6482, Note_on_c, 0, 55, 0
2, 6516, Note_on_c, 0, 56, 0
2, 6534, Note_on_c, 0, 57, 0
2, 6552, Note_on_c, 0, 60, 80
2, 6595, Note_on_c, 0, 60, 0
2, 6599, Note_on_c, 0, 63, 80
2, 6602, Note_on_c, 0, 58, 80
2, 6641, Note_on_c, 0, 58, 0
2, 6645, Note_on_c, 0, 63, 0
2, 6676, Note_on_c, 0, 55, 80
2, 6724, Note_on_c, 0, 55, 0
2, 6724, Note_on_c, 0, 48, 80
2, 6724, Note_on_c, 0, 53, 80
2, 6724, Note_on_c, 0, 57, 80
2, 6730, Control_c, 0, 64, 127
2, 6730, Note_on_c, 0, 60, 80
2, 6730, Note_on_c, 0, 63, 80
2, 6774, Note_on_c, 0, 48, 0
2, 6784, Note_on_c, 0, 41, 0
2, 6792, Note_on_c, 0, 60, 0
2, 6792, Note_on_c, 0, 57, 0
2, 6792, Note_on_c, 0, 63, 0
2, 6792, Note_on_c, 0, 53, 0
2, 6854, Note_on_c, 0, 48, 80
2, 6854, Note_on_c, 0, 55, 80
2, 6860, Note_on_c, 0, 64, 80
2, 6862, Note_on_c, 0, 70, 80
2, 6862, Note_on_c, 0, 73, 80
2, 6871, Control_c, 0, 64, 0
2, 6891, Note_on_c, 0, 48, 0
2, 6917, Note_on_c, 0, 70, 0
2, 6921, Note_on_c, 0, 73, 0
2, 6921, Note_on_c, 0, 64, 0
2, 6939, Note_on_c, 0, 74, 80
2, 6965, Note_on_c, 0, 55, 0
2, 6975, Note_on_c, 0, 48, 80
2, 6977, Note_on_c, 0, 74, 0
2, 6983, Note_on_c, 0, 62, 80
2, 6984, Note_on_c, 0, 70, 80
2, 6986, Note_on_c, 0, 54, 80
2, 7016, Note_on_c, 0, 48, 0
2, 7022, Note_on_c, 0, 62, 0
2, 7022, Note_on_c, 0, 70, 0
2, 7022, Note_on_c, 0, 72, 80
2, 7058, Note_on_c, 0, 70, 80
2, 7068, Note_on_c, 0, 72, 0
2, 7076, Note_on_c, 0, 54, 0
2, 7094, Note_on_c, 0, 53, 80
2, 7096, Note_on_c, 0, 48, 80
2, 7098, Note_on_c, 0, 70, 0
2, 7098, Note_on_c, 0, 57, 80
2, 7098, Note_on_c, 0, 63, 80
2, 7100, Note_on_c, 0, 72, 80
2, 7104, Note_on_c, 0, 69, 80
2, 7128, Note_on_c, 0, 48, 0
2, 7135, Note_on_c, 0, 63, 0
2, 7139, Note_on_c, 0, 72, 0
2, 7139, Note_on_c, 0, 57, 0
2, 7139, Note_on_c, 0, 69, 0
2, 7177, Note_on_c, 0, 69, 80
2, 7183, Note_on_c, 0, 53, 0
2, 7201, Control_c, 0, 64, 127
2, 7214, Note_on_c, 0, 53, 80
2, 7216, Note_on_c, 0, 46, 80
2, 7218, Note_on_c, 0, 62, 80
2, 7218, Note_on_c, 0, 70, 80
2, 7227, Note_on_c, 0, 69, 0
2, 7255, Note_on_c, 0, 46, 0
2, 7259, Note_on_c, 0, 70, 0
2, 7261, Note_on_c, 0, 53, 0
2, 7263, Note_on_c, 0, 62, 0
2, 7295, Note_on_c, 0, 72, 80
2, 7337, Note_on_c, 0, 72, 0
2, 7337, Control_c, 0, 64, 0
2, 7341, Note_on_c, 0, 47, 80
2, 7341, Note_on_c, 0, 55, 80
2, 7343, Note_on_c, 0, 64, 80
2, 7346, Note_on_c, 0, 70, 80
2, 7350, Note_on_c, 0, 73, 80
2, 7376, Note_on_c, 0, 47, 0
2, 7382, Note_on_c, 0, 64, 0
2, 7386, Note_on_c, 0, 73, 0
2, 7386, Note_on_c, 0, 70, 0
2, 7428, Note_on_c, 0, 74, 80
2, 7450, Note_on_c, 0, 55, 0
2, 7466, Note_on_c, 0, 74, 0
2, 7472, Note_on_c, 0, 56, 80
2, 7474, Note_on_c, 0, 47, 80
2, 7476, Note_on_c, 0, 62, 80
2, 7478, Note_on_c, 0, 70, 80
2, 7514, Note_on_c, 0, 47, 0
2, 7522, Note_on_c, 0, 62, 0
2, 7524, Note_on_c, 0, 70, 0
2, 7526, Note_on_c, 0, 72, 80
2, 7562, Note_on_c, 0, 70, 80
2, 7570, Note_on_c, 0, 72, 0
2, 7592, Note_on_c, 0, 56, 0
2, 7596, Note_on_c, 0, 48, 80
2, 7600, Note_on_c, 0, 57, 80
2, 7602, Note_on_c, 0, 70, 0
2, 7602, Note_on_c, 0, 63, 80
2, 7606, Note_on_c, 0, 69, 80
2, 7606, Note_on_c, 0, 72, 80
2, 7637, Note_on_c, 0, 48, 0
2, 7647, Note_on_c, 0, 72, 0
2, 7649, Note_on_c, 0, 63, 0
2, 7651, Note_on_c, 0, 69, 0
2, 7682, Note_on_c, 0, 69, 80
2, 7712, Note_on_c, 0, 57, 0
2, 7720, Note_on_c, 0, 69, 0
2, 7724, Note_on_c, 0, 62, 80
2, 7728, Control_c, 0, 64, 127
2, 7729, Note_on_c, 0, 46, 80
2, 7729, Note_on_c, 0, 70, 80
2, 7735, Note_on_c, 0, 58, 80
2, 7796, Note_on_c, 0, 46, 0
2, 7803, Note_on_c, 0, 62, 0
2, 7803, Note_on_c, 0, 58, 0
2, 7805, Note_on_c, 0, 70, 0
2, 7848, Note_on_c, 0, 53, 80
2, 7851, Note_on_c, 0, 41, 80
2, 7861, Note_on_c, 0, 77, 80
2, 7865, Control_c, 0, 64, 0
2, 7887, Note_on_c, 0, 77, 0
2, 7891, Note_on_c, 0, 79, 80
2, 7913, Note_on_c, 0, 79, 0
2, 7925, Note_on_c, 0, 77, 80
2, 7942, Note_on_c, 0, 41, 0
2, 7947, Note_on_c, 0, 53, 0
2, 7949, Note_on_c, 0, 77, 0
2, 7951, Note_on_c, 0, 79, 80
2, 7977, Note_on_c, 0, 43, 80
2, 7979, Note_on_c, 0, 79, 0
2, 7979, Note_on_c, 0, 55, 80
2, 7993, Note_on_c, 0, 77, 80
2, 8019, Note_on_c, 0, 77, 0
2, 8027, Note_on_c, 0, 79, 80
2, 8041, Note_on_c, 0, 79, 0
2, 8067, Note_on_c, 0, 77, 80
2, 8080, Note_on_c, 0, 43, 0
2, 8092, Note_on_c, 0, 77, 0
2, 8092, Note_on_c, 0, 55, 0
2, 8098, Note_on_c, 0, 79, 80
2, 8120, Note_on_c, 0, 79, 0
2, 8126, Note_on_c, 0, 45, 80
2, 8126, Note_on_c, 0, 57, 80
2, 8130, Note_on_c, 0, 77, 80
2, 8158, Note_on_c, 0, 77, 0
2, 8161, Note_on_c, 0, 79, 80
2, 8185, Note_on_c, 0, 79, 0
2, 8193, Note_on_c, 0, 45, 0
2, 8206, Note_on_c, 0, 77, 80
2, 8220, Note_on_c, 0, 77, 0
2, 8222, Note_on_c, 0, 57, 0
2, 8228, Note_on_c, 0, 79, 80
2, 8237, Control_c, 0, 64, 127
2, 8252, Note_on_c, 0, 79, 0
2, 8257, Note_on_c, 0, 46, 80
2, 8257, Note_on_c, 0, 58, 80
2, 8257, Note_on_c, 0, 74, 80
2, 8257, Note_on_c, 0, 82, 80
2, 8261, Note_on_c, 0, 77, 80
2, 8274, Note_on_c, 0, 74, 0
2, 8278, Note_on_c, 0, 77, 0
2, 8281, Note_on_c, 0, 82, 0
2, 8302, Note_on_c, 0, 74, 80
2, 8304, Note_on_c, 0, 77, 80
2, 8304, Note_on_c, 0, 82, 80
2, 8320, Note_on_c, 0, 74, 0
2, 8324, Note_on_c, 0, 77, 0
2, 8324, Note_on_c, 0, 82, 0
2, 8346, Note_on_c, 0, 74, 80
2, 8348, Note_on_c, 0, 82, 80
2, 8350, Note_on_c, 0, 77, 80
2, 8368, Note_on_c, 0, 77, 0
2, 8368, Note_on_c, 0, 74, 0
2, 8372, Note_on_c, 0, 82, 0
2, 8372, Control_c, 0, 64, 0
2, 8388, Note_on_c, 0, 74, 80
2, 8392, Note_on_c, 0, 77, 80
2, 8392, Note_on_c, 0, 82, 80
2, 8420, Note_on_c, 0, 46, 0
2, 8425, Note_on_c, 0, 74, 0
2, 8429, Note_on_c, 0, 58, 0
2, 8431, Note_on_c, 0, 82, 0
2, 8431, Note_on_c, 0, 77, 0
2, 8444, Note_on_c, 0, 73, 80
2, 8456, Note_on_c, 0, 65, 80
2, 8478, Note_on_c, 0, 66, 80
2, 8484, Note_on_c, 0, 73, 0
2, 8490, Note_on_c, 0, 70, 80
2, 8490, Note_on_c, 0, 74, 80
2, 8490, Note_on_c, 0, 79, 80
2, 8494, Note_on_c, 0, 67, 80
2, 8499, Note_on_c, 0, 65, 0
2, 8509, Note_on_c, 0, 66, 0
2, 8511, Note_on_c, 0, 79, 0
2, 8511, Note_on_c, 0, 74, 0
2, 8535, Note_on_c, 0, 74, 80
2, 8535, Note_on_c, 0, 79, 80
2, 8553, Note_on_c, 0, 74, 0
2, 8573, Note_on_c, 0, 74, 80
2, 8599, Note_on_c, 0, 79, 0
2, 8627, Note_on_c, 0, 79, 80
2, 8661, Note_on_c, 0, 74, 0
2, 8664, Note_on_c, 0, 70, 0
2, 8664, Note_on_c, 0, 67, 0
2, 8664, Note_on_c, 0, 79, 0
2, 8685, Note_on_c, 0, 62, 80
2, 8701, Note_on_c, 0, 63, 80
2, 8715, Note_on_c, 0, 64, 80
2, 8728, Note_on_c, 0, 65, 80
2, 8730, Note_on_c, 0, 62, 0
2, 8730, Control_c, 0, 64, 127
2, 8734, Note_on_c, 0, 70, 80
2, 8736, Note_on_c, 0, 74, 80
2, 8736, Note_on_c, 0, 77, 80
2, 8745, Note_on_c, 0, 63, 0
2, 8751, Note_on_c, 0, 64, 0
2, 8757, Note_on_c, 0, 74, 0
2, 8760, Note_on_c, 0, 77, 0
2, 8779, Note_on_c, 0, 74, 80
2, 8784, Note_on_c, 0, 77, 80
2, 8797, Note_on_c, 0, 74, 0
2, 8807, Note_on_c, 0, 77, 0
2, 8827, Note_on_c, 0, 74, 80
2, 8829, Note_on_c, 0, 77, 80
2, 8845, Note_on_c, 0, 74, 0
2, 8849, Note_on_c, 0, 77, 0
2, 8849, Note_on_c, 0, 70, 0
2, 8867, Control_c, 0, 64, 0
2, 8871, Note_on_c, 0, 70, 80
2, 8873, Note_on_c, 0, 74, 80
2, 8873, Note_on_c, 0, 77, 80
2, 8903, Note_on_c, 0, 74, 0
2, 8904, Note_on_c, 0, 65, 0
2, 8906, Note_on_c, 0, 77, 0
2, 8908, Note_on_c, 0, 70, 0
2, 8936, Note_on_c, 0, 65, 80
2, 8960, Note_on_c, 0, 66, 80
2, 8966, Note_on_c, 0, 70, 80
2, 8970, Note_on_c, 0, 67, 80
2, 8970, Note_on_c, 0, 79, 80
2, 8974, Note_on_c, 0, 74, 80
2, 8986, Note_on_c, 0, 65, 0
2, 8996, Note_on_c, 0, 66, 0
2, 9053, Note_on_c, 0, 79, 0
2, 9057, Note_on_c, 0, 70, 0
2, 9057, Note_on_c, 0, 74, 0
2, 9087, Note_on_c, 0, 70, 80
2, 9089, Note_on_c, 0, 74, 80
2, 9095, Note_on_c, 0, 77, 80
2, 9157, Note_on_c, 0, 67, 0
2, 9159, Note_on_c, 0, 77, 0
2, 9159, Note_on_c, 0, 74, 0
2, 9163, Note_on_c, 0, 70, 0
2, 9175, Note_on_c, 0, 60, 80
2, 9181, Note_on_c, 0, 72, 80
2, 9195, Note_on_c, 0, 73, 80
2, 9197, Note_on_c, 0, 61, 80
2, 9210, Control_c, 0, 64, 127
2, 9210, Note_on_c, 0, 62, 80
2, 9214, Note_on_c, 0, 74, 80
2, 9221, Note_on_c, 0, 60, 0
2, 9223, Note_on_c, 0, 72, 0
2, 9231, Note_on_c, 0, 61, 0
2, 9233, Note_on_c, 0, 73, 0
2, 9264, Note_on_c, 0, 74, 0
2, 9270, Note_on_c, 0, 62, 0
2, 9272, Note_on_c, 0, 79, 80
2, 9276, Note_on_c, 0, 67, 80
2, 9344, Control_c, 0, 64, 0
2, 9381, Note_on_c, 0, 79, 0
2, 9383, Note_on_c, 0, 67, 0
2, 9397, Note_on_c, 0, 65, 80
2, 9403, Note_on_c, 0, 77, 80
2, 9432, Note_on_c, 0, 65, 0
2, 9434, Note_on_c, 0, 77, 0
2, 9438, Note_on_c, 0, 61, 80
2, 9442, Note_on_c, 0, 73, 80
2, 9492, Note_on_c, 0, 73, 0
2, 9494, Note_on_c, 0, 61, 0
2, 9514, Note_on_c, 0, 62, 80
2, 9516, Note_on_c, 0, 74, 80
2, 9548, Note_on_c, 0, 74, 0
2, 9550, Note_on_c, 0, 62, 0
2, 9557, Note_on_c, 0, 70, 80
2, 9559, Note_on_c, 0, 58, 80
2, 9625, Note_on_c, 0, 70, 0
2, 9627, Note_on_c, 0, 58, 0
2, 9629, Note_on_c, 0, 54, 80
2, 9631, Note_on_c, 0, 66, 80
2, 9668, Note_on_c, 0, 54, 0
2, 9670, Note_on_c, 0, 66, 0
2, 9670, Note_on_c, 0, 55, 80
2, 9673, Note_on_c, 0, 62, 80
2, 9677, Control_c, 0, 64, 127
2, 9681, Note_on_c, 0, 67, 80
2, 9729, Note_on_c, 0, 62, 0
2, 9729, Note_on_c, 0, 55, 0
2, 9731, Note_on_c, 0, 67, 0
2, 9741, Note_on_c, 0, 53, 80
2, 9746, Note_on_c, 0, 65, 80
2, 9776, Control_c, 0, 64, 0
2, 9791, Note_on_c, 0, 65, 0
2, 9794, Note_on_c, 0, 49, 80
2, 9800, Note_on_c, 0, 61, 80
2, 9806, Note_on_c, 0, 53, 0
2, 9850, Note_on_c, 0, 61, 0
2, 9850, Note_on_c, 0, 49, 0
2, 9874, Note_on_c, 0, 50, 80
2, 9876, Note_on_c, 0, 62, 80
2, 9914, Note_on_c, 0, 50, 0
2, 9918, Note_on_c, 0, 62, 0
2, 9918, Note_on_c, 0, 46, 80
2, 9924, Note_on_c, 0, 58, 80
2, 9988, Note_on_c, 0, 46, 0
2, 9988, Note_on_c, 0, 56, 80
2, 9990, Note_on_c, 0, 58, 0
2, 10027, Note_on_c, 0, 34, 80
2, 10032, Note_on_c, 0, 46, 80
2, 10034, Note_on_c, 0, 62, 80
2, 10034, Note_on_c, 0, 65, 80
2, 10034, Note_on_c, 0, 70, 80
2, 10038, Note_on_c, 0, 68, 80
2, 10082, Note_on_c, 0, 34, 0
2, 10090, Note_on_c, 0, 46, 0
2, 10092, Note_on_c, 0, 62, 0
2, 10092, Note_on_c, 0, 56, 0
2, 10094, Note_on_c, 0, 68, 0
2, 10096, Note_on_c, 0, 70, 0
2, 10096, Note_on_c, 0, 65, 0
2, 10110, Note_on_c, 0, 58, 80
2, 10149, Note_on_c, 0, 58, 0
2, 10152, Note_on_c, 0, 39, 80
2, 10152, Note_on_c, 0, 51, 80
2, 10154, Note_on_c, 0, 63, 80
2, 10156, Control_c, 0, 64, 127
2, 10162, Note_on_c, 0, 67, 80
2, 10196, Note_on_c, 0, 67, 0
2, 10203, Note_on_c, 0, 63, 0
2, 10237, Note_on_c, 0, 68, 80
2, 10239, Note_on_c, 0, 58, 80
2, 10277, Note_on_c, 0, 60, 80
2, 10279, Note_on_c, 0, 63, 80
2, 10281, Note_on_c, 0, 58, 0
2, 10281, Note_on_c, 0, 68, 0
2, 10283, Note_on_c, 0, 66, 80
2, 10289, Control_c, 0, 64, 0
2, 10320, Note_on_c, 0, 66, 0
2, 10320, Note_on_c, 0, 60, 0
2, 10322, Note_on_c, 0, 63, 0
2, 10365, Note_on_c, 0, 67, 80
2, 10367, Note_on_c, 0, 58, 80
2, 10409, Note_on_c, 0, 58, 0
2, 10411, Note_on_c, 0, 70, 80
2, 10413, Note_on_c, 0, 63, 80
2, 10415, Note_on_c, 0, 61, 80
2, 10453, Note_on_c, 0, 61, 0
2, 10453, Note_on_c, 0, 70, 0
2, 10457, Note_on_c, 0, 63, 0
2, 10459, Note_on_c, 0, 67, 0
2, 10485, Note_on_c, 0, 58, 80
2, 10494, Note_on_c, 0, 39, 0
2, 10494, Note_on_c, 0, 67, 80
2, 10500, Note_on_c, 0, 51, 0
2, 10528, Note_on_c, 0, 46, 80
2, 10528, Note_on_c, 0, 60, 80
2, 10530, Note_on_c, 0, 63, 80
2, 10530, Note_on_c, 0, 70, 80
2, 10532, Note_on_c, 0, 58, 0
2, 10570, Note_on_c, 0, 46, 0
2, 10570, Note_on_c, 0, 67, 0
2, 10570, Note_on_c, 0, 70, 0
2, 10570, Note_on_c, 0, 48, 80
2, 10572, Note_on_c, 0, 63, 0
2, 10576, Note_on_c, 0, 60, 0
2, 10600, Note_on_c, 0, 63, 80
2, 10604, Note_on_c, 0, 48, 0
2, 10608, Note_on_c, 0, 67, 80
2, 10611, Note_on_c, 0, 50, 80
2, 10617, Control_c, 0, 64, 127
2, 10641, Note_on_c, 0, 51, 80
2, 10656, Note_on_c, 0, 67, 0
2, 10657, Note_on_c, 0, 50, 0
2, 10659, Note_on_c, 0, 63, 0
2, 10717, Note_on_c, 0, 70, 80
2, 10721, Note_on_c, 0, 58, 80
2, 10730, Note_on_c, 0, 67, 80
2, 10745, Note_on_c, 0, 67, 0
2, 10747, Control_c, 0, 64, 0
2, 10759, Note_on_c, 0, 63, 80
2, 10761, Note_on_c, 0, 58, 0
2, 10761, Note_on_c, 0, 60, 80
2, 10765, Note_on_c, 0, 67, 80
2, 10803, Note_on_c, 0, 63, 0
2, 10805, Note_on_c, 0, 67, 0
2, 10805, Note_on_c, 0, 70, 0
2, 10811, Note_on_c, 0, 60, 0
2, 10837, Note_on_c, 0, 67, 80
2, 10839, Note_on_c, 0, 58, 80
2, 10881, Note_on_c, 0, 63, 80
2, 10883, Note_on_c, 0, 58, 0
2, 10883, Note_on_c, 0, 70, 80
2, 10885, Note_on_c, 0, 61, 80
2, 10925, Note_on_c, 0, 61, 0
2, 10925, Note_on_c, 0, 70, 0
2, 10927, Note_on_c, 0, 67, 0
2, 10933, Note_on_c, 0, 63, 0
2, 10971, Note_on_c, 0, 70, 80
2, 10973, Note_on_c, 0, 58, 80
2, 10977, Note_on_c, 0, 67, 80
2, 10997, Note_on_c, 0, 67, 0
2, 11014, Note_on_c, 0, 58, 0
2, 11017, Note_on_c, 0, 63, 80
2, 11019, Note_on_c, 0, 60, 80
2, 11023, Note_on_c, 0, 51, 0
2, 11025, Note_on_c, 0, 67, 80
2, 11051, Note_on_c, 0, 41, 80
2, 11079, Note_on_c, 0, 43, 80
2, 11081, Note_on_c, 0, 67, 0
2, 11081, Note_on_c, 0, 70, 0
2, 11081, Note_on_c, 0, 63, 0
2, 11083, Note_on_c, 0, 60, 0
2, 11090, Note_on_c, 0, 41, 0
2, 11112, Control_c, 0, 64, 127
2, 11112, Note_on_c, 0, 45, 80
2, 11114, Note_on_c, 0, 43, 0
2, 11142, Note_on_c, 0, 46, 80
2, 11157, Note_on_c, 0, 45, 0
2, 11251, Control_c, 0, 64, 0
2, 11265, Note_on_c, 0, 46, 0
2, 11267, Note_on_c, 0, 53, 80
2, 11269, Note_on_c, 0, 62, 80
2, 11269, Note_on_c, 0, 65, 80
2, 11273, Note_on_c, 0, 58, 80
2, 11303, Note_on_c, 0, 46, 80
2, 11328, Note_on_c, 0, 48, 80
2, 11341, Note_on_c, 0, 46, 0
2, 11343, Note_on_c, 0, 53, 0
2, 11345, Note_on_c, 0, 65, 0
2, 11347, Note_on_c, 0, 62, 0
2, 11347, Note_on_c, 0, 58, 0
2, 11361, Note_on_c, 0, 49, 80
2, 11365, Note_on_c, 0, 48, 0
2, 11393, Note_on_c, 0, 50, 80
2, 11400, Note_on_c, 0, 49, 0
2, 11515, Note_on_c, 0, 50, 0
2, 11517, Note_on_c, 0, 53, 80
2, 11520, Note_on_c, 0, 62, 80
2, 11520, Note_on_c, 0, 65, 80
2, 11524, Note_on_c, 0, 58, 80
2, 11550, Note_on_c, 0, 50, 80
2, 11582, Note_on_c, 0, 51, 80
2, 11584, Note_on_c, 0, 58, 0
2, 11584, Note_on_c, 0, 53, 0
2, 11586, Note_on_c, 0, 62, 0
2, 11586, Note_on_c, 0, 65, 0
2, 11600, Note_on_c, 0, 50, 0
2, 11602, Control_c, 0, 64, 127
2, 11618, Note_on_c, 0, 52, 80
2, 11644, Note_on_c, 0, 53, 80
2, 11659, Note_on_c, 0, 52, 0
2, 11666, Note_on_c, 0, 51, 0
2, 11727, Note_on_c, 0, 65, 80
2, 11741, Control_c, 0, 64, 0
2, 11771, Note_on_c, 0, 65, 0
2, 11773, Note_on_c, 0, 62, 80
2, 11845, Note_on_c, 0, 62, 0
2, 11851, Note_on_c, 0, 58, 80
2, 11863, Note_on_c, 0, 53, 0
2, 11889, Note_on_c, 0, 53, 80
2, 11891, Note_on_c, 0, 58, 0
2, 11895, Note_on_c, 0, 50, 80
2, 11971, Note_on_c, 0, 53, 0
2, 12000, Note_on_c, 0, 50, 0
2, 12015, Note_on_c, 0, 55, 80
2, 12019, Note_on_c, 0, 49, 80
2, 12023, Note_on_c, 0, 58, 80
2, 12023, Note_on_c, 0, 64, 80
2, 12091, Note_on_c, 0, 64, 0
2, 12093, Note_on_c, 0, 55, 0
2, 12095, Note_on_c, 0, 58, 0
2, 12124, Note_on_c, 0, 49, 0
2, 12132, Control_c, 0, 64, 127
2, 12144, Note_on_c, 0, 53, 80
2, 12144, Note_on_c, 0, 57, 80
2, 12146, Note_on_c, 0, 48, 80
2, 12148, Note_on_c, 0, 63, 80
2, 12309, Control_c, 0, 64, 0
2, 12314, Note_on_c, 0, 48, 0
2, 12322, Note_on_c, 0, 53, 0
2, 12324, Note_on_c, 0, 57, 0
2, 12324, Note_on_c, 0, 63, 0
2, 12362, Note_on_c, 0, 55, 80
2, 12386, Note_on_c, 0, 56, 80
2, 12394, Note_on_c, 0, 41, 80
2, 12400, Note_on_c, 0, 57, 80
2, 12408, Note_on_c, 0, 55, 0
2, 12463, Note_on_c, 0, 56, 0
2, 12463, Note_on_c, 0, 57, 0
2, 12480, Note_on_c, 0, 60, 80
2, 12524, Note_on_c, 0, 60, 0
2, 12526, Note_on_c, 0, 63, 80
2, 12531, Note_on_c, 0, 58, 80
2, 12574, Note_on_c, 0, 58, 0
2, 12574, Note_on_c, 0, 63, 0
2, 12607, Note_on_c, 0, 55, 80
2, 12607, Note_on_c, 0, 60, 80
2, 12653, Note_on_c, 0, 55, 0
2, 12655, Note_on_c, 0, 53, 80
2, 12657, Note_on_c, 0, 57, 80
2, 12659, Note_on_c, 0, 48, 80
2, 12661, Control_c, 0, 64, 127
2, 12661, Note_on_c, 0, 63, 80
2, 12733, Note_on_c, 0, 48, 0
2, 12733, Note_on_c, 0, 41, 0
2, 12741, Note_on_c, 0, 63, 0
2, 12743, Note_on_c, 0, 60, 0
2, 12743, Note_on_c, 0, 57, 0
2, 12746, Note_on_c, 0, 53, 0
2, 12785, Note_on_c, 0, 48, 80
2, 12785, Note_on_c, 0, 55, 80
2, 12789, Note_on_c, 0, 64, 80
2, 12794, Note_on_c, 0, 70, 80
2, 12794, Note_on_c, 0, 73, 80
2, 12807, Control_c, 0, 64, 0
2, 12829, Note_on_c, 0, 64, 0
2, 12831, Note_on_c, 0, 73, 0
2, 12835, Note_on_c, 0, 70, 0
2, 12844, Note_on_c, 0, 48, 0
2, 12852, Note_on_c, 0, 55, 0
2, 12868, Note_on_c, 0, 74, 80
2, 12909, Note_on_c, 0, 48, 80
2, 12911, Note_on_c, 0, 74, 0
2, 12914, Note_on_c, 0, 62, 80
2, 12914, Note_on_c, 0, 70, 80
2, 12916, Note_on_c, 0, 54, 80
2, 12955, Note_on_c, 0, 70, 0
2, 12957, Note_on_c, 0, 62, 0
2, 12960, Note_on_c, 0, 72, 80
2, 12964, Note_on_c, 0, 48, 0
2, 12968, Note_on_c, 0, 54, 0
2, 12992, Note_on_c, 0, 70, 80
2, 12998, Note_on_c, 0, 72, 0
2, 13028, Note_on_c, 0, 63, 80
2, 13030, Note_on_c, 0, 70, 0
2, 13030, Note_on_c, 0, 48, 80
2, 13030, Note_on_c, 0, 53, 80
2, 13032, Note_on_c, 0, 72, 80
2, 13033, Note_on_c, 0, 69, 80
2, 13074, Note_on_c, 0, 69, 0
2, 13074, Note_on_c, 0, 72, 0
2, 13076, Note_on_c, 0, 48, 0
2, 13078, Note_on_c, 0, 63, 0
2, 13096, Note_on_c, 0, 53, 0
2, 13108, Note_on_c, 0, 69, 80
2, 13147, Note_on_c, 0, 69, 0
2, 13149, Note_on_c, 0, 53, 80
2, 13151, Control_c, 0, 64, 127
2, 13152, Note_on_c, 0, 46, 80
2, 13154, Note_on_c, 0, 62, 80
2, 13154, Note_on_c, 0, 70, 80
2, 13206, Note_on_c, 0, 46, 0
2, 13208, Note_on_c, 0, 70, 0
2, 13208, Note_on_c, 0, 62, 0
2, 13212, Note_on_c, 0, 53, 0
2, 13234, Note_on_c, 0, 72, 80
2, 13276, Note_on_c, 0, 55, 80
2, 13278, Note_on_c, 0, 72, 0
2, 13278, Note_on_c, 0, 47, 80
2, 13280, Note_on_c, 0, 70, 80
2, 13282, Note_on_c, 0, 64, 80
2, 13284, Note_on_c, 0, 73, 80
2, 13294, Control_c, 0, 64, 0
2, 13314, Note_on_c, 0, 47, 0
2, 13316, Note_on_c, 0, 64, 0
2, 13321, Note_on_c, 0, 73, 0
2, 13321, Note_on_c, 0, 70, 0
2, 13368, Note_on_c, 0, 74, 80
2, 13390, Note_on_c, 0, 55, 0
2, 13406, Note_on_c, 0, 74, 0
2, 13408, Note_on_c, 0, 47, 80
2, 13408, Note_on_c, 0, 56, 80
2, 13410, Note_on_c, 0, 62, 80
2, 13414, Note_on_c, 0, 70, 80
2, 13445, Note_on_c, 0, 47, 0
2, 13455, Note_on_c, 0, 62, 0
2, 13457, Note_on_c, 0, 70, 0
2, 13457, Note_on_c, 0, 72, 80
2, 13485, Note_on_c, 0, 70, 80
2, 13501, Note_on_c, 0, 72, 0
2, 13513, Note_on_c, 0, 56, 0
2, 13521, Note_on_c, 0, 57, 80
2, 13521, Note_on_c, 0, 63, 80
2, 13523, Note_on_c, 0, 48, 80
2, 13525, Note_on_c, 0, 70, 0
2, 13527, Note_on_c, 0, 69, 80
2, 13527, Note_on_c, 0, 72, 80
2, 13559, Note_on_c, 0, 48, 0
2, 13568, Note_on_c, 0, 72, 0
2, 13568, Note_on_c, 0, 63, 0
2, 13570, Note_on_c, 0, 69, 0
2, 13598, Note_on_c, 0, 69, 80
2, 13626, Control_c, 0, 64, 127
2, 13628, Note_on_c, 0, 57, 0
2, 13635, Note_on_c, 0, 69, 0
2, 13635, Note_on_c, 0, 46, 80
2, 13635, Note_on_c, 0, 62, 80
2, 13643, Note_on_c, 0, 58, 80
2, 13645, Note_on_c, 0, 70, 80
2, 13703, Note_on_c, 0, 70, 0
2, 13703, Note_on_c, 0, 46, 0
2, 13704, Note_on_c, 0, 58, 0
2, 13704, Note_on_c, 0, 62, 0
2, 13749, Note_on_c, 0, 53, 80
2, 13751, Note_on_c, 0, 41, 80
2, 13756, Control_c, 0, 64, 0
2, 13758, Note_on_c, 0, 77, 80
2, 13784, Note_on_c, 0, 77, 0
2, 13790, Note_on_c, 0, 79, 80
2, 13812, Note_on_c, 0, 79, 0
2, 13822, Note_on_c, 0, 77, 80
2, 13834, Note_on_c, 0, 41, 0
2, 13842, Note_on_c, 0, 77, 0
2, 13844, Note_on_c, 0, 53, 0
2, 13848, Note_on_c, 0, 79, 80
2, 13873, Note_on_c, 0, 79, 0
2, 13875, Note_on_c, 0, 43, 80
2, 13879, Note_on_c, 0, 55, 80
2, 13885, Note_on_c, 0, 77, 80
2, 13911, Note_on_c, 0, 77, 0
2, 13915, Note_on_c, 0, 79, 80
2, 13939, Note_on_c, 0, 79, 0
2, 13953, Note_on_c, 0, 77, 80
2, 13968, Note_on_c, 0, 43, 0
2, 13975, Note_on_c, 0, 77, 0
2, 13977, Note_on_c, 0, 55, 0
2, 13987, Note_on_c, 0, 79, 80
2, 14005, Note_on_c, 0, 79, 0
2, 14013, Note_on_c, 0, 45, 80
2, 14013, Note_on_c, 0, 57, 80
2, 14013, Note_on_c, 0, 73, 80
2, 14016, Note_on_c, 0, 77, 80
2, 14042, Note_on_c, 0, 45, 0
2, 14064, Note_on_c, 0, 73, 0
2, 14070, Note_on_c, 0, 77, 0
2, 14080, Note_on_c, 0, 46, 80
2, 14084, Note_on_c, 0, 74, 80
2, 14086, Note_on_c, 0, 53, 80
2, 14095, Note_on_c, 0, 57, 0
2, 14099, Note_on_c, 0, 74, 0
2, 14112, Control_c, 0, 64, 127
2, 14124, Note_on_c, 0, 62, 80
2, 14126, Note_on_c, 0, 86, 80
2, 14128, Note_on_c, 0, 74, 80
2, 14128, Note_on_c, 0, 82, 80
2, 14132, Note_on_c, 0, 77, 80
2, 14174, Note_on_c, 0, 74, 0
2, 14176, Note_on_c, 0, 46, 0
2, 14180, Note_on_c, 0, 53, 0
2, 14182, Note_on_c, 0, 82, 0
2, 14184, Note_on_c, 0, 86, 0
2, 14184, Note_on_c, 0, 62, 0
2, 14185, Note_on_c, 0, 77, 0
2, 14239, Control_c, 0, 64, 0
2, 14245, Note_on_c, 0, 77, 80
2, 14269, Note_on_c, 0, 77, 0
2, 14271, Note_on_c, 0, 79, 80
2, 14291, Note_on_c, 0, 79, 0
2, 14301, Note_on_c, 0, 77, 80
2, 14325, Note_on_c, 0, 79, 80
2, 14327, Note_on_c, 0, 77, 0
2, 14351, Note_on_c, 0, 79, 0
2, 14360, Note_on_c, 0, 77, 80
2, 14384, Note_on_c, 0, 77, 0
2, 14386, Note_on_c, 0, 79, 80
2, 14402, Note_on_c, 0, 79, 0
2, 14421, Note_on_c, 0, 77, 80
2, 14443, Note_on_c, 0, 77, 0
2, 14445, Note_on_c, 0, 79, 80
2, 14469, Note_on_c, 0, 79, 0
2, 14478, Note_on_c, 0, 73, 80
2, 14482, Note_on_c, 0, 77, 80
2, 14528, Note_on_c, 0, 73, 0
2, 14541, Note_on_c, 0, 77, 0
2, 14550, Note_on_c, 0, 38, 80
2, 14560, Note_on_c, 0, 74, 80
2, 14569, Note_on_c, 0, 45, 80
2, 14584, Control_c, 0, 64, 127
2, 14593, Note_on_c, 0, 74, 0
2, 14595, Note_on_c, 0, 72, 80
2, 14597, Note_on_c, 0, 54, 80
2, 14599, Note_on_c, 0, 78, 80
2, 14601, Note_on_c, 0, 86, 80
2, 14603, Note_on_c, 0, 81, 80
2, 14649, Note_on_c, 0, 45, 0
2, 14651, Note_on_c, 0, 38, 0
2, 14653, Note_on_c, 0, 72, 0
2, 14655, Note_on_c, 0, 54, 0
2, 14657, Note_on_c, 0, 81, 0
2, 14657, Note_on_c, 0, 86, 0
2, 14661, Note_on_c, 0, 78, 0
2, 14716, Control_c, 0, 64, 0
2, 14718, Note_on_c, 0, 78, 80
2, 14744, Note_on_c, 0, 78, 0
2, 14750, Note_on_c, 0, 79, 80
2, 14766, Note_on_c, 0, 79, 0
2, 14776, Note_on_c, 0, 78, 80
2, 14804, Note_on_c, 0, 78, 0
2, 14806, Note_on_c, 0, 79, 80
2, 14832, Note_on_c, 0, 79, 0
2, 14837, Note_on_c, 0, 78, 80
2, 14863, Note_on_c, 0, 78, 0
2, 14871, Note_on_c, 0, 79, 80
2, 14889, Note_on_c, 0, 79, 0
2, 14897, Note_on_c, 0, 78, 80
2, 14921, Note_on_c, 0, 78, 0
2, 14928, Note_on_c, 0, 79, 80
2, 14945, Note_on_c, 0, 79, 0
2, 14954, Note_on_c, 0, 73, 80
2, 14954, Note_on_c, 0, 78, 80
2, 15006, Note_on_c, 0, 73, 0
2, 15014, Note_on_c, 0, 78, 0
2, 15026, Note_on_c, 0, 43, 80
2, 15030, Note_on_c, 0, 74, 80
2, 15045, Note_on_c, 0, 50, 80
2, 15054, Note_on_c, 0, 74, 0
2, 15064, Control_c, 0, 64, 127
2, 15076, Note_on_c, 0, 86, 80
2, 15080, Note_on_c, 0, 74, 80
2, 15084, Note_on_c, 0, 58, 80
2, 15084, Note_on_c, 0, 79, 80
2, 15084, Note_on_c, 0, 82, 80
2, 15128, Note_on_c, 0, 43, 0
2, 15136, Note_on_c, 0, 74, 0
2, 15136, Note_on_c, 0, 50, 0
2, 15138, Note_on_c, 0, 86, 0
2, 15138, Note_on_c, 0, 79, 0
2, 15140, Note_on_c, 0, 82, 0
2, 15142, Note_on_c, 0, 58, 0
2, 15195, Control_c, 0, 64, 0
2, 15267, Note_on_c, 0, 38, 80
2, 15282, Note_on_c, 0, 45, 80
2, 15312, Note_on_c, 0, 72, 80
2, 15317, Note_on_c, 0, 54, 80
2, 15317, Note_on_c, 0, 84, 80
2, 15319, Note_on_c, 0, 78, 80
2, 15319, Note_on_c, 0, 81, 80
2, 15361, Note_on_c, 0, 45, 0
2, 15365, Note_on_c, 0, 38, 0
2, 15371, Note_on_c, 0, 54, 0
2, 15371, Note_on_c, 0, 72, 0
2, 15373, Note_on_c, 0, 81, 0
2, 15373, Note_on_c, 0, 84, 0
2, 15375, Note_on_c, 0, 78, 0
2, 15441, Note_on_c, 0, 84, 80
2, 15480, Note_on_c, 0, 79, 80
2, 15500, Note_on_c, 0, 80, 80
2, 15516, Note_on_c, 0, 81, 80
2, 15518, Note_on_c, 0, 84, 0
2, 15538, Note_on_c, 0, 82, 80
2, 15551, Note_on_c, 0, 83, 80
2, 15552, Note_on_c, 0, 50, 80
2, 15554, Note_on_c, 0, 80, 0
2, 15554, Note_on_c, 0, 43, 80
2, 15556, Note_on_c, 0, 79, 0
2, 15566, Note_on_c, 0, 82, 0
2, 15566, Note_on_c, 0, 84, 80
2, 15570, Note_on_c, 0, 81, 0
2, 15572, Control_c, 0, 64, 127
2, 15608, Note_on_c, 0, 84, 0
2, 15610, Note_on_c, 0, 83, 0
2, 15638, Note_on_c, 0, 74, 80
2, 15640, Note_on_c, 0, 58, 80
2, 15644, Note_on_c, 0, 86, 80
2, 15646, Note_on_c, 0, 80, 80
2, 15668, Note_on_c, 0, 80, 0
2, 15677, Note_on_c, 0, 43, 0
2, 15679, Note_on_c, 0, 50, 0
2, 15681, Note_on_c, 0, 58, 0
2, 15681, Note_on_c, 0, 74, 0
2, 15681, Note_on_c, 0, 86, 0
2, 15685, Note_on_c, 0, 57, 80
2, 15685, Note_on_c, 0, 85, 80
2, 15687, Note_on_c, 0, 73, 80
2, 15695, Note_on_c, 0, 80, 80
2, 15709, Control_c, 0, 64, 0
2, 15727, Note_on_c, 0, 85, 0
2, 15729, Note_on_c, 0, 80, 0
2, 15729, Note_on_c, 0, 73, 0
2, 15735, Note_on_c, 0, 57, 0
2, 15757, Note_on_c, 0, 53, 80
2, 15757, Note_on_c, 0, 56, 80
2, 15761, Note_on_c, 0, 46, 80
2, 15761, Note_on_c, 0, 74, 80
2, 15761, Note_on_c, 0, 86, 80
2, 15763, Note_on_c, 0, 80, 80
2, 15840, Note_on_c, 0, 74, 0
2, 15840, Note_on_c, 0, 46, 0
2, 15844, Note_on_c, 0, 86, 0
2, 15846, Note_on_c, 0, 53, 0
2, 15846, Note_on_c, 0, 80, 0
2, 15848, Note_on_c, 0, 56, 0
2, 15874, Note_on_c, 0, 53, 80
2, 15878, Note_on_c, 0, 46, 80
2, 15878, Note_on_c, 0, 85, 80
2, 15880, Note_on_c, 0, 73, 80
2, 15882, Note_on_c, 0, 80, 80
2, 15904, Note_on_c, 0, 80, 0
2, 15913, Note_on_c, 0, 85, 0
2, 15915, Note_on_c, 0, 44, 80
2, 15921, Note_on_c, 0, 73, 0
2, 15925, Note_on_c, 0, 72, 80
2, 15925, Note_on_c, 0, 80, 80
2, 15927, Note_on_c, 0, 46, 0
2, 15927, Note_on_c, 0, 84, 80
2, 15955, Note_on_c, 0, 44, 0
2, 15962, Note_on_c, 0, 53, 0
2, 15972, Note_on_c, 0, 80, 0
2, 15976, Note_on_c, 0, 72, 0
2, 15978, Note_on_c, 0, 84, 0
2, 15994, Note_on_c, 0, 45, 80
2, 15998, Note_on_c, 0, 54, 80
2, 16034, Control_c, 0, 64, 127
2, 16036, Note_on_c, 0, 45, 0
2, 16038, Note_on_c, 0, 54, 0
2, 16040, Note_on_c, 0, 55, 80
2, 16046, Note_on_c, 0, 46, 80
2, 16050, Note_on_c, 0, 82, 80
2, 16086, Note_on_c, 0, 46, 0
2, 16090, Note_on_c, 0, 82, 0
2, 16112, Note_on_c, 0, 55, 0
2, 16127, Note_on_c, 0, 73, 80
2, 16127, Note_on_c, 0, 85, 80
2, 16130, Note_on_c, 0, 79, 80
2, 16132, Note_on_c, 0, 82, 80
2, 16152, Note_on_c, 0, 79, 0
2, 16154, Note_on_c, 0, 82, 0
2, 16167, Note_on_c, 0, 85, 0
2, 16167, Control_c, 0, 64, 0
2, 16175, Note_on_c, 0, 73, 0
2, 16176, Note_on_c, 0, 63, 80
2, 16178, Note_on_c, 0, 58, 80
2, 16180, Note_on_c, 0, 74, 80
2, 16180, Note_on_c, 0, 79, 80
2, 16180, Note_on_c, 0, 82, 80
2, 16182, Note_on_c, 0, 86, 80
2, 16184, Note_on_c, 0, 67, 80
2, 16218, Note_on_c, 0, 67, 0
2, 16218, Note_on_c, 0, 74, 0
2, 16218, Note_on_c, 0, 79, 0
2, 16220, Note_on_c, 0, 58, 0
2, 16222, Note_on_c, 0, 63, 0
2, 16224, Note_on_c, 0, 86, 0
2, 16224, Note_on_c, 0, 82, 0
2, 16262, Note_on_c, 0, 70, 80
2, 16264, Note_on_c, 0, 82, 80
2, 16286, Note_on_c, 0, 34, 80
2, 16308, Note_on_c, 0, 82, 0
2, 16308, Note_on_c, 0, 70, 0
2, 16312, Note_on_c, 0, 72, 80
2, 16316, Note_on_c, 0, 79, 80
2, 16316, Note_on_c, 0, 84, 80
2, 16352, Note_on_c, 0, 79, 0
2, 16352, Note_on_c, 0, 72, 0
2, 16356, Note_on_c, 0, 84, 0
2, 16360, Note_on_c, 0, 34, 0
2, 16388, Note_on_c, 0, 70, 80
2, 16392, Note_on_c, 0, 82, 80
2, 16430, Note_on_c, 0, 70, 0
2, 16430, Note_on_c, 0, 55, 80
2, 16432, Note_on_c, 0, 82, 0
2, 16432, Note_on_c, 0, 63, 80
2, 16436, Note_on_c, 0, 58, 80
2, 16436, Note_on_c, 0, 66, 80
2, 16438, Note_on_c, 0, 78, 80
2, 16440, Note_on_c, 0, 75, 80
2, 16471, Note_on_c, 0, 75, 0
2, 16471, Note_on_c, 0, 58, 0
2, 16471, Note_on_c, 0, 66, 0
2, 16475, Note_on_c, 0, 55, 0
2, 16475, Note_on_c, 0, 63, 0
2, 16477, Note_on_c, 0, 78, 0
2, 16509, Note_on_c, 0, 75, 80
2, 16511, Note_on_c, 0, 79, 80
2, 16512, Note_on_c, 0, 67, 80
2, 16538, Control_c, 0, 64, 127
2, 16544, Note_on_c, 0, 51, 80
2, 16548, Note_on_c, 0, 39, 80
2, 16562, Note_on_c, 0, 67, 0
2, 16562, Note_on_c, 0, 75, 0
2, 16564, Note_on_c, 0, 79, 0
2, 16592, Note_on_c, 0, 39, 0
2, 16614, Note_on_c, 0, 51, 0
2, 16632, Note_on_c, 0, 85, 80
2, 16634, Note_on_c, 0, 73, 80
2, 16671, Note_on_c, 0, 73, 0
2, 16671, Note_on_c, 0, 63, 80
2, 16675, Note_on_c, 0, 85, 0
2, 16677, Control_c, 0, 64, 0
2, 16677, Note_on_c, 0, 67, 80
2, 16677, Note_on_c, 0, 74, 80
2, 16677, Note_on_c, 0, 79, 80
2, 16677, Note_on_c, 0, 86, 80
2, 16679, Note_on_c, 0, 58, 80
2, 16680, Note_on_c, 0, 82, 80
2, 16717, Note_on_c, 0, 79, 0
2, 16719, Note_on_c, 0, 74, 0
2, 16719, Note_on_c, 0, 67, 0
2, 16721, Note_on_c, 0, 86, 0
2, 16721, Note_on_c, 0, 82, 0
2, 16721, Note_on_c, 0, 58, 0
2, 16723, Note_on_c, 0, 63, 0
2, 16752, Note_on_c, 0, 70, 80
2, 16760, Note_on_c, 0, 82, 80
2, 16794, Note_on_c, 0, 40, 80
2, 16796, Note_on_c, 0, 52, 80
2, 16800, Note_on_c, 0, 82, 0
2, 16800, Note_on_c, 0, 70, 0
2, 16800, Note_on_c, 0, 84, 80
2, 16805, Note_on_c, 0, 72, 80
2, 16809, Note_on_c, 0, 79, 80
2, 16839, Note_on_c, 0, 40, 0
2, 16847, Note_on_c, 0, 72, 0
2, 16850, Note_on_c, 0, 79, 0
2, 16852, Note_on_c, 0, 84, 0
2, 16867, Note_on_c, 0, 52, 0
2, 16889, Note_on_c, 0, 70, 80
2, 16895, Note_on_c, 0, 82, 80
2, 16931, Note_on_c, 0, 70, 0
2, 16933, Note_on_c, 0, 82, 0
2, 16937, Note_on_c, 0, 61, 80
2, 16941, Note_on_c, 0, 58, 80
2, 16941, Note_on_c, 0, 66, 80
2, 16941, Note_on_c, 0, 78, 80
2, 16977, Note_on_c, 0, 66, 0
2, 16977, Note_on_c, 0, 61, 0
2, 16981, Note_on_c, 0, 58, 0
2, 16983, Note_on_c, 0, 78, 0
2, 17021, Note_on_c, 0, 67, 80
2, 17021, Note_on_c, 0, 79, 80
2, 17025, Note_on_c, 0, 74, 80
2, 17041, Note_on_c, 0, 74, 0
2, 17049, Control_c, 0, 64, 127
2, 17057, Note_on_c, 0, 67, 0
2, 17057, Note_on_c, 0, 53, 80
2, 17059, Note_on_c, 0, 41, 80
2, 17059, Note_on_c, 0, 70, 80
2, 17061, Note_on_c, 0, 79, 0
2, 17061, Note_on_c, 0, 65, 80
2, 17063, Note_on_c, 0, 74, 80
2, 17066, Note_on_c, 0, 77, 80
2, 17100, Note_on_c, 0, 65, 0
2, 17100, Note_on_c, 0, 41, 0
2, 17102, Note_on_c, 0, 74, 0
2, 17104, Note_on_c, 0, 70, 0
2, 17106, Note_on_c, 0, 77, 0
2, 17108, Note_on_c, 0, 53, 0
2, 17139, Note_on_c, 0, 78, 80
2, 17182, Control_c, 0, 64, 0
2, 17187, Note_on_c, 0, 78, 0
2, 17191, Note_on_c, 0, 77, 80
2, 17233, Note_on_c, 0, 77, 0
2, 17233, Note_on_c, 0, 79, 80
2, 17270, Note_on_c, 0, 77, 80
2, 17276, Note_on_c, 0, 79, 0
2, 17307, Note_on_c, 0, 77, 0
2, 17309, Note_on_c, 0, 74, 80
2, 17348, Note_on_c, 0, 74, 0
2, 17370, Note_on_c, 0, 77, 80
2, 17400, Note_on_c, 0, 74, 80
2, 17407, Note_on_c, 0, 77, 0
2, 17431, Note_on_c, 0, 74, 0
2, 17441, Note_on_c, 0, 70, 80
2, 17483, Note_on_c, 0, 70, 0
2, 17493, Note_on_c, 0, 74, 80
2, 17520, Note_on_c, 0, 70, 80
2, 17526, Note_on_c, 0, 74, 0
2, 17563, Note_on_c, 0, 70, 0
2, 17568, Note_on_c, 0, 65, 80
2, 17578, Control_c, 0, 64, 127
2, 17608, Note_on_c, 0, 65, 0
2, 17610, Note_on_c, 0, 70, 80
2, 17646, Note_on_c, 0, 65, 80
2, 17654, Note_on_c, 0, 70, 0
2, 17684, Note_on_c, 0, 65, 0
2, 17684, Note_on_c, 0, 62, 80
2, 17688, Control_c, 0, 64, 0
2, 17736, Note_on_c, 0, 65, 80
2, 17737, Note_on_c, 0, 62, 0
2, 17769, Note_on_c, 0, 62, 80
2, 17784, Note_on_c, 0, 65, 0
2, 17815, Note_on_c, 0, 62, 0
2, 17819, Note_on_c, 0, 58, 80
2, 17861, Note_on_c, 0, 58, 0
2, 17869, Note_on_c, 0, 62, 80
2, 17897, Note_on_c, 0, 65, 80
2, 17909, Note_on_c, 0, 62, 0
2, 17941, Note_on_c, 0, 65, 0
2, 17941, Note_on_c, 0, 64, 80
2, 17945, Note_on_c, 0, 49, 80
2, 17952, Note_on_c, 0, 69, 80
2, 17978, Note_on_c, 0, 64, 0
2, 17986, Note_on_c, 0, 69, 0
2, 18030, Note_on_c, 0, 58, 80
2, 18030, Note_on_c, 0, 67, 80
2, 18047, Note_on_c, 0, 67, 0
2, 18067, Note_on_c, 0, 49, 0
2, 18071, Note_on_c, 0, 58, 0
2, 18071, Note_on_c, 0, 57, 80
2, 18071, Note_on_c, 0, 63, 80
2, 18072, Note_on_c, 0, 48, 80
2, 18078, Control_c, 0, 64, 127
2, 18084, Note_on_c, 0, 67, 80
2, 18120, Note_on_c, 0, 67, 0
2, 18122, Note_on_c, 0, 57, 0
2, 18122, Note_on_c, 0, 63, 0
2, 18152, Note_on_c, 0, 57, 80
2, 18158, Note_on_c, 0, 67, 80
2, 18178, Control_c, 0, 64, 0
2, 18192, Note_on_c, 0, 63, 80
2, 18194, Note_on_c, 0, 67, 0
2, 18200, Note_on_c, 0, 66, 80
2, 18230, Note_on_c, 0, 48, 0
2, 18234, Note_on_c, 0, 66, 0
2, 18238, Note_on_c, 0, 63, 0
2, 18240, Note_on_c, 0, 57, 0
2, 18260, Note_on_c, 0, 57, 80
2, 18264, Note_on_c, 0, 63, 80
2, 18264, Note_on_c, 0, 65, 80
2, 18304, Note_on_c, 0, 48, 80
2, 18306, Note_on_c, 0, 41, 80
2, 18384, Note_on_c, 0, 48, 0
2, 18391, Note_on_c, 0, 41, 0
2, 18397, Note_on_c, 0, 63, 0
2, 18399, Note_on_c, 0, 57, 0
2, 18401, Note_on_c, 0, 65, 0
2, 18421, Note_on_c, 0, 50, 80
2, 18425, Note_on_c, 0, 43, 80
2, 18427, Note_on_c, 0, 59, 80
2, 18427, Note_on_c, 0, 65, 80
2, 18427, Note_on_c, 0, 74, 80
2, 18431, Note_on_c, 0, 71, 80
2, 18431, Note_on_c, 0, 77, 80
2, 18431, Note_on_c, 0, 79, 80
2, 18460, Note_on_c, 0, 43, 0
2, 18464, Note_on_c, 0, 50, 0
2, 18466, Note_on_c, 0, 79, 0
2, 18466, Note_on_c, 0, 74, 0
2, 18466, Note_on_c, 0, 59, 0
2, 18468, Note_on_c, 0, 77, 0
2, 18470, Note_on_c, 0, 71, 0
2, 18470, Note_on_c, 0, 65, 0
2, 18536, Control_c, 0, 64, 127
2, 18634, Note_on_c, 0, 74, 80
2, 18640, Control_c, 0, 64, 0
2, 18670, Note_on_c, 0, 48, 80
2, 18672, Note_on_c, 0, 74, 0
2, 18672, Note_on_c, 0, 55, 80
2, 18673, Note_on_c, 0, 64, 80
2, 18673, Note_on_c, 0, 70, 80
2, 18677, Note_on_c, 0, 73, 80
2, 18709, Note_on_c, 0, 48, 0
2, 18713, Note_on_c, 0, 73, 0
2, 18717, Note_on_c, 0, 70, 0
2, 18744, Note_on_c, 0, 74, 80
2, 18768, Note_on_c, 0, 64, 0
2, 18774, Note_on_c, 0, 55, 0
2, 18784, Note_on_c, 0, 48, 80
2, 18786, Note_on_c, 0, 74, 0
2, 18786, Note_on_c, 0, 62, 80
2, 18788, Note_on_c, 0, 54, 80
2, 18790, Note_on_c, 0, 70, 80
2, 18816, Note_on_c, 0, 48, 0
2, 18830, Note_on_c, 0, 70, 0
2, 18836, Note_on_c, 0, 72, 80
2, 18860, Note_on_c, 0, 70, 80
2, 18876, Note_on_c, 0, 72, 0
2, 18886, Note_on_c, 0, 62, 0
2, 18886, Note_on_c, 0, 54, 0
2, 18893, Note_on_c, 0, 53, 80
2, 18895, Note_on_c, 0, 70, 0
2, 18895, Note_on_c, 0, 57, 80
2, 18897, Note_on_c, 0, 48, 80
2, 18899, Note_on_c, 0, 63, 80
2, 18899, Note_on_c, 0, 72, 80
2, 18903, Note_on_c, 0, 69, 80
2, 18935, Note_on_c, 0, 48, 0
2, 18942, Note_on_c, 0, 72, 0
2, 18942, Note_on_c, 0, 69, 0
2, 18981, Note_on_c, 0, 69, 80
2, 18986, Control_c, 0, 64, 127
2, 18992, Note_on_c, 0, 53, 0
2, 19002, Note_on_c, 0, 57, 0
2, 19002, Note_on_c, 0, 63, 0
2, 19016, Note_on_c, 0, 53, 80
2, 19018, Note_on_c, 0, 62, 80
2, 19018, Note_on_c, 0, 70, 80
2, 19020, Note_on_c, 0, 46, 80
2, 19032, Note_on_c, 0, 69, 0
2, 19071, Note_on_c, 0, 46, 0
2, 19075, Note_on_c, 0, 70, 0
2, 19077, Note_on_c, 0, 53, 0
2, 19080, Note_on_c, 0, 62, 0
2, 19097, Note_on_c, 0, 72, 80
2, 19123, Control_c, 0, 64, 0
2, 19139, Note_on_c, 0, 55, 80
2, 19143, Note_on_c, 0, 72, 0
2, 19143, Note_on_c, 0, 47, 80
2, 19143, Note_on_c, 0, 70, 80
2, 19143, Note_on_c, 0, 64, 80
2, 19145, Note_on_c, 0, 73, 80
2, 19175, Note_on_c, 0, 47, 0
2, 19187, Note_on_c, 0, 73, 0
2, 19187, Note_on_c, 0, 70, 0
2, 19225, Note_on_c, 0, 74, 80
2, 19249, Note_on_c, 0, 55, 0
2, 19251, Note_on_c, 0, 64, 0
2, 19261, Note_on_c, 0, 74, 0
2, 19265, Note_on_c, 0, 62, 80
2, 19267, Note_on_c, 0, 56, 80
2, 19269, Note_on_c, 0, 47, 80
2, 19269, Note_on_c, 0, 70, 80
2, 19305, Note_on_c, 0, 47, 0
2, 19313, Note_on_c, 0, 70, 0
2, 19313, Note_on_c, 0, 72, 80
2, 19343, Note_on_c, 0, 70, 80
2, 19359, Note_on_c, 0, 72, 0
2, 19373, Note_on_c, 0, 62, 0
2, 19373, Note_on_c, 0, 56, 0
2, 19379, Note_on_c, 0, 57, 80
2, 19381, Note_on_c, 0, 48, 80
2, 19381, Note_on_c, 0, 63, 80
2, 19383, Note_on_c, 0, 70, 0
2, 19385, Note_on_c, 0, 69, 80
2, 19389, Note_on_c, 0, 72, 80
2, 19418, Note_on_c, 0, 48, 0
2, 19426, Note_on_c, 0, 72, 0
2, 19428, Note_on_c, 0, 69, 0
2, 19460, Note_on_c, 0, 69, 80
2, 19488, Note_on_c, 0, 57, 0
2, 19488, Note_on_c, 0, 63, 0
2, 19493, Note_on_c, 0, 70, 80
2, 19499, Note_on_c, 0, 69, 0
2, 19499, Control_c, 0, 64, 127
2, 19499, Note_on_c, 0, 58, 80
2, 19499, Note_on_c, 0, 62, 80
2, 19501, Note_on_c, 0, 46, 80
2, 19551, Note_on_c, 0, 46, 0
2, 19551, Note_on_c, 0, 58, 0
2, 19555, Note_on_c, 0, 62, 0
2, 19557, Note_on_c, 0, 70, 0
2, 19603, Control_c, 0, 64, 0
2, 19610, Note_on_c, 0, 53, 80
2, 19616, Note_on_c, 0, 41, 80
2, 19624, Note_on_c, 0, 77, 80
2, 19648, Note_on_c, 0, 77, 0
2, 19648, Note_on_c, 0, 79, 80
2, 19676, Note_on_c, 0, 79, 0
2, 19690, Note_on_c, 0, 77, 80
2, 19700, Note_on_c, 0, 41, 0
2, 19707, Note_on_c, 0, 77, 0
2, 19707, Note_on_c, 0, 53, 0
2, 19711, Note_on_c, 0, 79, 80
2, 19737, Note_on_c, 0, 79, 0
2, 19737, Note_on_c, 0, 55, 80
2, 19739, Note_on_c, 0, 43, 80
2, 19749, Note_on_c, 0, 77, 80
2, 19773, Note_on_c, 0, 77, 0
2, 19773, Note_on_c, 0, 79, 80
2, 19797, Note_on_c, 0, 79, 0
2, 19811, Note_on_c, 0, 77, 80
2, 19825, Note_on_c, 0, 43, 0
2, 19833, Note_on_c, 0, 55, 0
2, 19835, Note_on_c, 0, 77, 0
2, 19837, Note_on_c, 0, 79, 80
2, 19859, Note_on_c, 0, 79, 0
2, 19863, Note_on_c, 0, 57, 80
2, 19869, Note_on_c, 0, 45, 80
2, 19874, Note_on_c, 0, 73, 80
2, 19878, Note_on_c, 0, 77, 80
2, 19922, Note_on_c, 0, 73, 0
2, 19926, Note_on_c, 0, 77, 0
2, 19932, Note_on_c, 0, 45, 0
2, 19940, Note_on_c, 0, 46, 80
2, 19944, Note_on_c, 0, 74, 80
2, 19951, Note_on_c, 0, 53, 80
2, 19953, Note_on_c, 0, 57, 0
2, 19969, Note_on_c, 0, 74, 0
2, 19971, Control_c, 0, 64, 127
2, 19986, Note_on_c, 0, 62, 80
2, 19992, Note_on_c, 0, 74, 80
2, 19992, Note_on_c, 0, 82, 80
2, 19992, Note_on_c, 0, 86, 80
2, 19995, Note_on_c, 0, 77, 80
2, 20043, Note_on_c, 0, 46, 0
2, 20047, Note_on_c, 0, 82, 0
2, 20047, Note_on_c, 0, 74, 0
2, 20049, Note_on_c, 0, 62, 0
2, 20049, Note_on_c, 0, 53, 0
2, 20049, Note_on_c, 0, 86, 0
2, 20051, Note_on_c, 0, 77, 0
2, 20071, Control_c, 0, 64, 0
2, 20115, Note_on_c, 0, 77, 80
2, 20143, Note_on_c, 0, 77, 0
2, 20143, Note_on_c, 0, 79, 80
2, 20167, Note_on_c, 0, 79, 0
2, 20175, Note_on_c, 0, 77, 80
2, 20197, Note_on_c, 0, 77, 0
2, 20203, Note_on_c, 0, 79, 80
2, 20227, Note_on_c, 0, 79, 0
2, 20236, Note_on_c, 0, 77, 80
2, 20258, Note_on_c, 0, 77, 0
2, 20266, Note_on_c, 0, 79, 80
2, 20294, Note_on_c, 0, 79, 0
2, 20300, Note_on_c, 0, 77, 80
2, 20326, Note_on_c, 0, 77, 0
2, 20328, Note_on_c, 0, 79, 80
2, 20353, Note_on_c, 0, 79, 0
2, 20359, Note_on_c, 0, 73, 80
2, 20367, Note_on_c, 0, 77, 80
2, 20415, Note_on_c, 0, 77, 0
2, 20415, Note_on_c, 0, 73, 0
2, 20424, Note_on_c, 0, 38, 80
2, 20432, Note_on_c, 0, 74, 80
2, 20440, Note_on_c, 0, 45, 80
2, 20454, Control_c, 0, 64, 127
2, 20467, Note_on_c, 0, 54, 80
2, 20469, Note_on_c, 0, 74, 0
2, 20471, Note_on_c, 0, 72, 80
2, 20472, Note_on_c, 0, 86, 80
2, 20474, Note_on_c, 0, 78, 80
2, 20478, Note_on_c, 0, 81, 80
2, 20520, Note_on_c, 0, 45, 0
2, 20522, Note_on_c, 0, 38, 0
2, 20524, Note_on_c, 0, 54, 0
2, 20526, Note_on_c, 0, 78, 0
2, 20528, Note_on_c, 0, 72, 0
2, 20528, Note_on_c, 0, 86, 0
2, 20528, Note_on_c, 0, 81, 0
2, 20591, Control_c, 0, 64, 0
2, 20596, Note_on_c, 0, 78, 80
2, 20620, Note_on_c, 0, 79, 80
2, 20622, Note_on_c, 0, 78, 0
2, 20644, Note_on_c, 0, 79, 0
2, 20650, Note_on_c, 0, 78, 80
2, 20676, Note_on_c, 0, 78, 0
2, 20680, Note_on_c, 0, 79, 80
2, 20702, Note_on_c, 0, 79, 0
2, 20714, Note_on_c, 0, 78, 80
2, 20744, Note_on_c, 0, 78, 0
2, 20750, Note_on_c, 0, 79, 80
2, 20766, Note_on_c, 0, 79, 0
2, 20776, Note_on_c, 0, 78, 80
2, 20804, Note_on_c, 0, 78, 0
2, 20808, Note_on_c, 0, 79, 80
2, 20828, Note_on_c, 0, 79, 0
2, 20837, Note_on_c, 0, 78, 80
2, 20843, Note_on_c, 0, 73, 80
2, 20895, Note_on_c, 0, 73, 0
2, 20903, Note_on_c, 0, 78, 0
2, 20912, Note_on_c, 0, 43, 80
2, 20916, Note_on_c, 0, 74, 80
2, 20926, Note_on_c, 0, 50, 80
2, 20935, Note_on_c, 0, 74, 0
2, 20952, Control_c, 0, 64, 127
2, 20964, Note_on_c, 0, 74, 80
2, 20968, Note_on_c, 0, 82, 80
2, 20970, Note_on_c, 0, 58, 80
2, 20972, Note_on_c, 0, 79, 80
2, 20974, Note_on_c, 0, 86, 80
2, 21018, Note_on_c, 0, 43, 0
2, 21022, Note_on_c, 0, 82, 0
2, 21022, Note_on_c, 0, 50, 0
2, 21022, Note_on_c, 0, 79, 0
2, 21024, Note_on_c, 0, 58, 0
2, 21027, Note_on_c, 0, 86, 0
2, 21035, Note_on_c, 0, 74, 0
2, 21085, Control_c, 0, 64, 0
2, 21159, Note_on_c, 0, 38, 80
2, 21179, Note_on_c, 0, 45, 80
2, 21211, Note_on_c, 0, 54, 80
2, 21211, Note_on_c, 0, 72, 80
2, 21211, Note_on_c, 0, 78, 80
2, 21215, Note_on_c, 0, 81, 80
2, 21215, Note_on_c, 0, 84, 80
2, 21261, Note_on_c, 0, 45, 0
2, 21261, Note_on_c, 0, 38, 0
2, 21266, Note_on_c, 0, 54, 0
2, 21268, Note_on_c, 0, 72, 0
2, 21272, Note_on_c, 0, 84, 0
2, 21272, Note_on_c, 0, 78, 0
2, 21276, Note_on_c, 0, 81, 0
2, 21344, Note_on_c, 0, 84, 80
2, 21392, Note_on_c, 0, 79, 80
2, 21405, Note_on_c, 0, 84, 0
2, 21410, Note_on_c, 0, 80, 80
2, 21427, Note_on_c, 0, 81, 80
2, 21431, Note_on_c, 0, 79, 0
2, 21445, Note_on_c, 0, 82, 80
2, 21459, Note_on_c, 0, 83, 80
2, 21463, Note_on_c, 0, 80, 0
2, 21469, Note_on_c, 0, 43, 80
2, 21469, Note_on_c, 0, 50, 80
2, 21473, Note_on_c, 0, 84, 80
2, 21482, Note_on_c, 0, 82, 0
2, 21486, Control_c, 0, 64, 127
2, 21499, Note_on_c, 0, 81, 0
2, 21511, Note_on_c, 0, 43, 0
2, 21515, Note_on_c, 0, 50, 0
2, 21515, Note_on_c, 0, 84, 0
2, 21519, Note_on_c, 0, 83, 0
2, 21552, Note_on_c, 0, 46, 80
2, 21552, Note_on_c, 0, 74, 80
2, 21552, Note_on_c, 0, 80, 80
2, 21552, Note_on_c, 0, 86, 80
2, 21554, Note_on_c, 0, 58, 80
2, 21573, Note_on_c, 0, 80, 0
2, 21585, Note_on_c, 0, 74, 0
2, 21585, Note_on_c, 0, 57, 80
2, 21587, Note_on_c, 0, 46, 0
2, 21589, Note_on_c, 0, 45, 80
2, 21591, Note_on_c, 0, 86, 0
2, 21593, Note_on_c, 0, 85, 80
2, 21595, Note_on_c, 0, 73, 80
2, 21595, Note_on_c, 0, 80, 80
2, 21604, Note_on_c, 0, 58, 0
2, 21617, Control_c, 0, 64, 0
2, 21626, Note_on_c, 0, 45, 0
2, 21630, Note_on_c, 0, 85, 0
2, 21632, Note_on_c, 0, 73, 0
2, 21634, Note_on_c, 0, 80, 0
2, 21640, Note_on_c, 0, 57, 0
2, 21658, Note_on_c, 0, 46, 80
2, 21664, Note_on_c, 0, 74, 80
2, 21668, Note_on_c, 0, 80, 80
2, 21672, Note_on_c, 0, 86, 80
2, 21673, Note_on_c, 0, 58, 80
2, 21749, Note_on_c, 0, 80, 0
2, 21751, Note_on_c, 0, 46, 0
2, 21753, Note_on_c, 0, 74, 0
2, 21755, Note_on_c, 0, 58, 0
2, 21759, Note_on_c, 0, 86, 0
2, 21789, Note_on_c, 0, 46, 80
2, 21791, Note_on_c, 0, 78, 80
2, 21791, Note_on_c, 0, 90, 80
2, 21794, Note_on_c, 0, 58, 80
2, 21824, Note_on_c, 0, 56, 80
2, 21826, Note_on_c, 0, 46, 0
2, 21826, Note_on_c, 0, 91, 80
2, 21828, Note_on_c, 0, 44, 80
2, 21830, Note_on_c, 0, 90, 0
2, 21832, Note_on_c, 0, 58, 0
2, 21836, Note_on_c, 0, 79, 80
2, 21838, Note_on_c, 0, 78, 0
2, 21867, Note_on_c, 0, 44, 0
2, 21904, Note_on_c, 0, 91, 0
2, 21910, Note_on_c, 0, 74, 80
2, 21915, Note_on_c, 0, 86, 80
2, 21921, Note_on_c, 0, 79, 0
2, 21941, Control_c, 0, 64, 127
2, 21943, Note_on_c, 0, 56, 0
2, 21951, Note_on_c, 0, 74, 0
2, 21951, Note_on_c, 0, 55, 80
2, 21955, Note_on_c, 0, 86, 0
2, 21957, Note_on_c, 0, 46, 80
2, 21957, Note_on_c, 0, 89, 80
2, 21960, Note_on_c, 0, 77, 80
2, 22003, Note_on_c, 0, 46, 0
2, 22023, Note_on_c, 0, 77, 0
2, 22027, Note_on_c, 0, 89, 0
2, 22041, Note_on_c, 0, 87, 80
2, 22045, Note_on_c, 0, 75, 80
2, 22089, Control_c, 0, 64, 0
2, 22093, Note_on_c, 0, 75, 0
2, 22093, Note_on_c, 0, 87, 0
2, 22095, Note_on_c, 0, 63, 80
2, 22097, Note_on_c, 0, 74, 80
2, 22099, Note_on_c, 0, 58, 80
2, 22101, Note_on_c, 0, 67, 80
2, 22101, Note_on_c, 0, 86, 80
2, 22132, Note_on_c, 0, 74, 0
2, 22136, Note_on_c, 0, 67, 0
2, 22136, Note_on_c, 0, 55, 0
2, 22138, Note_on_c, 0, 63, 0
2, 22138, Note_on_c, 0, 58, 0
2, 22140, Note_on_c, 0, 86, 0
2, 22176, Note_on_c, 0, 79, 80
2, 22176, Note_on_c, 0, 85, 80
2, 22178, Note_on_c, 0, 73, 80
2, 22180, Note_on_c, 0, 82, 80
2, 22217, Note_on_c, 0, 34, 80
2, 22223, Note_on_c, 0, 46, 80
2, 22224, Note_on_c, 0, 58, 80
2, 22261, Note_on_c, 0, 34, 0
2, 22265, Note_on_c, 0, 46, 0
2, 22317, Note_on_c, 0, 58, 0
2, 22344, Note_on_c, 0, 63, 80
2, 22348, Note_on_c, 0, 58, 80
2, 22352, Note_on_c, 0, 67, 80
2, 22356, Note_on_c, 0, 85, 0
2, 22358, Note_on_c, 0, 73, 0
2, 22360, Note_on_c, 0, 82, 0
2, 22360, Note_on_c, 0, 79, 0
2, 22384, Note_on_c, 0, 67, 0
2, 22390, Note_on_c, 0, 63, 0
2, 22399, Note_on_c, 0, 58, 0
2, 22457, Control_c, 0, 64, 127
2, 22463, Note_on_c, 0, 55, 80
2, 22470, Note_on_c, 0, 46, 80
2, 22474, Note_on_c, 0, 79, 80
2, 22511, Note_on_c, 0, 46, 0
2, 22531, Note_on_c, 0, 79, 0
2, 22551, Note_on_c, 0, 70, 80
2, 22559, Note_on_c, 0, 82, 80
2, 22595, Note_on_c, 0, 70, 0
2, 22595, Control_c, 0, 64, 0
2, 22599, Note_on_c, 0, 82, 0
2, 22601, Note_on_c, 0, 63, 80
2, 22603, Note_on_c, 0, 81, 80
2, 22605, Note_on_c, 0, 69, 80
2, 22605, Note_on_c, 0, 58, 80
2, 22641, Note_on_c, 0, 63, 0
2, 22643, Note_on_c, 0, 69, 0
2, 22645, Note_on_c, 0, 55, 0
2, 22645, Note_on_c, 0, 81, 0
2, 22645, Note_on_c, 0, 58, 0
2, 22679, Note_on_c, 0, 70, 80
2, 22686, Note_on_c, 0, 82, 80
2, 22710, Note_on_c, 0, 82, 0
2, 22725, Note_on_c, 0, 70, 0
2, 22725, Note_on_c, 0, 51, 80
2, 22727, Note_on_c, 0, 39, 80
2, 22730, Note_on_c, 0, 79, 80
2, 22730, Note_on_c, 0, 85, 80
2, 22732, Note_on_c, 0, 73, 80
2, 22732, Note_on_c, 0, 78, 80
2, 22734, Note_on_c, 0, 82, 80
2, 22766, Note_on_c, 0, 39, 0
2, 22768, Note_on_c, 0, 73, 0
2, 22768, Note_on_c, 0, 85, 0
2, 22768, Note_on_c, 0, 79, 0
2, 22772, Note_on_c, 0, 78, 0
2, 22772, Note_on_c, 0, 82, 0
2, 22810, Note_on_c, 0, 82, 80
2, 22812, Note_on_c, 0, 70, 80
2, 22838, Note_on_c, 0, 51, 0
2, 22846, Note_on_c, 0, 40, 80
2, 22851, Note_on_c, 0, 82, 0
2, 22851, Note_on_c, 0, 52, 80
2, 22853, Note_on_c, 0, 79, 80
2, 22855, Note_on_c, 0, 70, 0
2, 22861, Note_on_c, 0, 67, 80
2, 22883, Note_on_c, 0, 40, 0
2, 22893, Note_on_c, 0, 79, 0
2, 22895, Note_on_c, 0, 67, 0
2, 22931, Note_on_c, 0, 66, 80
2, 22933, Note_on_c, 0, 78, 80
2, 22955, Note_on_c, 0, 52, 0
2, 22961, Control_c, 0, 64, 127
2, 22967, Note_on_c, 0, 53, 80
2, 22968, Note_on_c, 0, 65, 80
2, 22970, Note_on_c, 0, 66, 0
2, 22972, Note_on_c, 0, 41, 80
2, 22972, Note_on_c, 0, 70, 80
2, 22974, Note_on_c, 0, 74, 80
2, 22978, Note_on_c, 0, 78, 0
2, 22978, Note_on_c, 0, 77, 80
2, 23010, Note_on_c, 0, 41, 0
2, 23010, Note_on_c, 0, 74, 0
2, 23014, Note_on_c, 0, 65, 0
2, 23014, Note_on_c, 0, 77, 0
2, 23017, Note_on_c, 0, 70, 0
2, 23019, Note_on_c, 0, 53, 0
2, 23049, Note_on_c, 0, 80, 80
2, 23086, Note_on_c, 0, 80, 0
2, 23089, Control_c, 0, 64, 0
2, 23095, Note_on_c, 0, 77, 80
2, 23141, Note_on_c, 0, 77, 0
2, 23141, Note_on_c, 0, 79, 80
2, 23178, Note_on_c, 0, 77, 80
2, 23182, Note_on_c, 0, 79, 0
2, 23211, Note_on_c, 0, 77, 0
2, 23217, Note_on_c, 0, 74, 80
2, 23259, Note_on_c, 0, 74, 0
2, 23274, Note_on_c, 0, 77, 80
2, 23298, Note_on_c, 0, 74, 80
2, 23312, Note_on_c, 0, 77, 0
2, 23340, Note_on_c, 0, 74, 0
2, 23342, Note_on_c, 0, 70, 80
2, 23386, Note_on_c, 0, 74, 80
2, 23388, Note_on_c, 0, 70, 0
2, 23408, Note_on_c, 0, 70, 80
2, 23424, Note_on_c, 0, 74, 0
2, 23452, Note_on_c, 0, 70, 0
2, 23456, Note_on_c, 0, 65, 80
2, 23469, Control_c, 0, 64, 127
2, 23498, Note_on_c, 0, 65, 0
2, 23506, Note_on_c, 0, 70, 80
2, 23530, Note_on_c, 0, 65, 80
2, 23544, Note_on_c, 0, 70, 0
2, 23572, Note_on_c, 0, 65, 0
2, 23574, Note_on_c, 0, 62, 80
2, 23600, Control_c, 0, 64, 0
2, 23615, Note_on_c, 0, 62, 0
2, 23620, Note_on_c, 0, 65, 80
2, 23644, Note_on_c, 0, 62, 80
2, 23661, Note_on_c, 0, 65, 0
2, 23692, Note_on_c, 0, 62, 0
2, 23702, Note_on_c, 0, 58, 80
2, 23736, Note_on_c, 0, 58, 0
2, 23739, Note_on_c, 0, 62, 80
2, 23769, Note_on_c, 0, 65, 80
2, 23782, Note_on_c, 0, 62, 0
2, 23815, Note_on_c, 0, 65, 0
2, 23819, Note_on_c, 0, 49, 80
2, 23819, Note_on_c, 0, 64, 80
2, 23823, Note_on_c, 0, 69, 80
2, 23853, Note_on_c, 0, 64, 0
2, 23862, Note_on_c, 0, 69, 0
2, 23903, Note_on_c, 0, 67, 80
2, 23904, Note_on_c, 0, 58, 80
2, 23919, Note_on_c, 0, 67, 0
2, 23921, Note_on_c, 0, 49, 0
2, 23933, Note_on_c, 0, 48, 80
2, 23937, Note_on_c, 0, 58, 0
2, 23939, Control_c, 0, 64, 127
2, 23939, Note_on_c, 0, 57, 80
2, 23943, Note_on_c, 0, 63, 80
2, 23945, Note_on_c, 0, 67, 80
2, 23978, Note_on_c, 0, 67, 0
2, 23982, Note_on_c, 0, 63, 0
2, 23984, Note_on_c, 0, 57, 0
2, 24008, Note_on_c, 0, 57, 80
2, 24018, Note_on_c, 0, 67, 80
2, 24049, Note_on_c, 0, 67, 0
2, 24049, Note_on_c, 0, 63, 80
2, 24053, Note_on_c, 0, 66, 80
2, 24066, Control_c, 0, 64, 0
2, 24090, Note_on_c, 0, 66, 0
2, 24094, Note_on_c, 0, 63, 0
2, 24096, Note_on_c, 0, 57, 0
2, 24116, Note_on_c, 0, 57, 80
2, 24120, Note_on_c, 0, 63, 80
2, 24120, Note_on_c, 0, 65, 80
2, 24125, Note_on_c, 0, 48, 0
2, 24157, Note_on_c, 0, 48, 80
2, 24161, Note_on_c, 0, 41, 80
2, 24231, Note_on_c, 0, 48, 0
2, 24233, Note_on_c, 0, 41, 0
2, 24240, Note_on_c, 0, 65, 0
2, 24240, Note_on_c, 0, 63, 0
2, 24244, Note_on_c, 0, 57, 0
2, 24283, Note_on_c, 0, 43, 80
2, 24283, Note_on_c, 0, 50, 80
2, 24285, Note_on_c, 0, 59, 80
2, 24285, Note_on_c, 0, 65, 80
2, 24287, Note_on_c, 0, 74, 80
2, 24288, Note_on_c, 0, 71, 80
2, 24290, Note_on_c, 0, 77, 80
2, 24290, Note_on_c, 0, 79, 80
2, 24320, Note_on_c, 0, 43, 0
2, 24328, Note_on_c, 0, 79, 0
2, 24330, Note_on_c, 0, 50, 0
2, 24332, Note_on_c, 0, 59, 0
2, 24332, Note_on_c, 0, 74, 0
2, 24332, Note_on_c, 0, 65, 0
2, 24332, Note_on_c, 0, 71, 0
2, 24336, Note_on_c, 0, 77, 0
2, 24522, Control_c, 0, 64, 127
2, 24534, Note_on_c, 0, 48, 80
2, 24538, Note_on_c, 0, 55, 80
2, 24540, Note_on_c, 0, 64, 80
2, 24540, Note_on_c, 0, 70, 80
2, 24544, Note_on_c, 0, 73, 80
2, 24572, Note_on_c, 0, 48, 0
2, 24577, Note_on_c, 0, 73, 0
2, 24581, Note_on_c, 0, 70, 0
2, 24609, Note_on_c, 0, 74, 80
2, 24631, Note_on_c, 0, 64, 0
2, 24646, Note_on_c, 0, 48, 80
2, 24648, Control_c, 0, 64, 0
2, 24651, Note_on_c, 0, 74, 0
2, 24651, Note_on_c, 0, 54, 80
2, 24651, Note_on_c, 0, 62, 80
2, 24651, Note_on_c, 0, 70, 80
2, 24653, Note_on_c, 0, 55, 0
2, 24690, Note_on_c, 0, 48, 0
2, 24692, Note_on_c, 0, 70, 0
2, 24696, Note_on_c, 0, 72, 80
2, 24732, Note_on_c, 0, 70, 80
2, 24742, Note_on_c, 0, 72, 0
2, 24751, Note_on_c, 0, 62, 0
2, 24755, Note_on_c, 0, 54, 0
2, 24761, Note_on_c, 0, 48, 80
2, 24763, Note_on_c, 0, 53, 80
2, 24763, Note_on_c, 0, 57, 80
2, 24767, Note_on_c, 0, 63, 80
2, 24768, Note_on_c, 0, 70, 0
2, 24770, Note_on_c, 0, 72, 80
2, 24798, Note_on_c, 0, 48, 0
2, 24816, Note_on_c, 0, 72, 0
2, 24846, Note_on_c, 0, 69, 80
2, 24870, Note_on_c, 0, 63, 0
2, 24874, Note_on_c, 0, 57, 0
2, 24874, Note_on_c, 0, 53, 0
2, 24882, Note_on_c, 0, 46, 80
2, 24886, Note_on_c, 0, 69, 0
2, 24886, Note_on_c, 0, 62, 80
2, 24888, Note_on_c, 0, 70, 80
2, 24889, Note_on_c, 0, 58, 80
2, 24930, Note_on_c, 0, 46, 0
2, 24932, Note_on_c, 0, 58, 0
2, 24934, Note_on_c, 0, 70, 0
2, 24936, Note_on_c, 0, 62, 0
2, 24969, Note_on_c, 0, 72, 80
2, 25003, Control_c, 0, 64, 127
2, 25015, Note_on_c, 0, 72, 0
2, 25015, Note_on_c, 0, 55, 80
2, 25017, Note_on_c, 0, 47, 80
2, 25019, Note_on_c, 0, 64, 80
2, 25025, Note_on_c, 0, 73, 80
2, 25061, Note_on_c, 0, 47, 0
2, 25067, Note_on_c, 0, 73, 0
2, 25101, Note_on_c, 0, 74, 80
2, 25121, Note_on_c, 0, 64, 0
2, 25127, Note_on_c, 0, 55, 0
2, 25134, Note_on_c, 0, 56, 80
2, 25136, Control_c, 0, 64, 0
2, 25136, Note_on_c, 0, 62, 80
2, 25138, Note_on_c, 0, 47, 80
2, 25142, Note_on_c, 0, 74, 0
2, 25144, Note_on_c, 0, 70, 80
2, 25172, Note_on_c, 0, 47, 0
2, 25181, Note_on_c, 0, 72, 80
2, 25183, Note_on_c, 0, 70, 0
2, 25211, Note_on_c, 0, 70, 80
2, 25227, Note_on_c, 0, 72, 0
2, 25242, Note_on_c, 0, 56, 0
2, 25244, Note_on_c, 0, 62, 0
2, 25249, Note_on_c, 0, 57, 80
2, 25249, Note_on_c, 0, 63, 80
2, 25251, Note_on_c, 0, 48, 80
2, 25251, Note_on_c, 0, 69, 80
2, 25251, Note_on_c, 0, 72, 80
2, 25253, Note_on_c, 0, 70, 0
2, 25285, Note_on_c, 0, 48, 0
2, 25295, Note_on_c, 0, 72, 0
2, 25298, Note_on_c, 0, 69, 0
2, 25328, Note_on_c, 0, 69, 80
2, 25354, Note_on_c, 0, 63, 0
2, 25356, Note_on_c, 0, 57, 0
2, 25366, Note_on_c, 0, 69, 0
2, 25368, Note_on_c, 0, 46, 80
2, 25369, Note_on_c, 0, 70, 80
2, 25371, Note_on_c, 0, 58, 80
2, 25371, Note_on_c, 0, 62, 80
2, 25373, Control_c, 0, 64, 127
2, 25423, Note_on_c, 0, 46, 0
2, 25429, Note_on_c, 0, 70, 0
2, 25429, Note_on_c, 0, 58, 0
2, 25429, Note_on_c, 0, 62, 0
2, 25475, Control_c, 0, 64, 0
2, 25481, Note_on_c, 0, 53, 80
2, 25487, Note_on_c, 0, 41, 80
2, 25487, Note_on_c, 0, 65, 80
2, 25492, Note_on_c, 0, 74, 80
2, 25502, Note_on_c, 0, 77, 80
2, 25530, Note_on_c, 0, 74, 0
2, 25530, Note_on_c, 0, 65, 0
2, 25534, Note_on_c, 0, 77, 0
2, 25567, Note_on_c, 0, 74, 80
2, 25569, Note_on_c, 0, 65, 80
2, 25575, Note_on_c, 0, 41, 0
2, 25575, Note_on_c, 0, 77, 80
2, 25581, Note_on_c, 0, 53, 0
2, 25610, Note_on_c, 0, 43, 80
2, 25610, Note_on_c, 0, 55, 80
2, 25625, Note_on_c, 0, 74, 0
2, 25629, Note_on_c, 0, 65, 0
2, 25631, Note_on_c, 0, 77, 0
2, 25697, Note_on_c, 0, 74, 80
2, 25699, Note_on_c, 0, 65, 80
2, 25701, Note_on_c, 0, 43, 0
2, 25701, Note_on_c, 0, 77, 80
2, 25713, Note_on_c, 0, 55, 0
2, 25723, Note_on_c, 0, 74, 0
2, 25741, Note_on_c, 0, 65, 0
2, 25741, Note_on_c, 0, 77, 0
2, 25741, Note_on_c, 0, 57, 80
2, 25745, Note_on_c, 0, 45, 80
2, 25747, Note_on_c, 0, 67, 80
2, 25747, Note_on_c, 0, 74, 80
2, 25747, Note_on_c, 0, 79, 80
2, 25780, Note_on_c, 0, 45, 0
2, 25784, Note_on_c, 0, 74, 0
2, 25784, Note_on_c, 0, 79, 0
2, 25786, Note_on_c, 0, 67, 0
2, 25788, Note_on_c, 0, 57, 0
2, 25816, Note_on_c, 0, 46, 80
2, 25818, Note_on_c, 0, 70, 80
2, 25822, Note_on_c, 0, 58, 80
2, 25822, Note_on_c, 0, 74, 80
2, 25825, Note_on_c, 0, 77, 80
2, 25825, Note_on_c, 0, 80, 80
2, 25825, Note_on_c, 0, 82, 80
2, 25838, Control_c, 0, 64, 127
2, 25894, Note_on_c, 0, 46, 0
2, 25897, Note_on_c, 0, 70, 0
2, 25907, Note_on_c, 0, 58, 0
2, 25911, Note_on_c, 0, 82, 0
2, 25913, Note_on_c, 0, 74, 0
2, 25913, Note_on_c, 0, 80, 0
2, 25913, Note_on_c, 0, 77, 0
2, 25941, Note_on_c, 0, 89, 80
2, 25944, Note_on_c, 0, 94, 80
2, 25948, Note_on_c, 0, 86, 80
2, 25958, Note_on_c, 0, 80, 80
2, 25972, Note_on_c, 0, 94, 0
2, 25974, Control_c, 0, 64, 0
2, 25989, Note_on_c, 0, 80, 0
2, 25992, Note_on_c, 0, 89, 0
2, 25994, Note_on_c, 0, 88, 80
2, 25994, Note_on_c, 0, 94, 80
2, 25996, Note_on_c, 0, 86, 0
2, 25998, Note_on_c, 0, 79, 80
2, 26032, Note_on_c, 0, 79, 0
2, 26032, Note_on_c, 0, 94, 0
2, 26032, Note_on_c, 0, 88, 0
2, 26070, Note_on_c, 0, 78, 80
2, 26074, Note_on_c, 0, 87, 80
2, 26074, Note_on_c, 0, 94, 80
2, 26098, Note_on_c, 0, 94, 0
2, 26122, Note_on_c, 0, 87, 0
2, 26124, Note_on_c, 0, 86, 80
2, 26124, Note_on_c, 0, 94, 80
2, 26128, Note_on_c, 0, 77, 80
2, 26142, Note_on_c, 0, 78, 0
2, 26166, Note_on_c, 0, 94, 0
2, 26168, Note_on_c, 0, 86, 0
2, 26170, Note_on_c, 0, 77, 0
2, 26208, Note_on_c, 0, 58, 80
2, 26208, Note_on_c, 0, 68, 80
2, 26208, Note_on_c, 0, 77, 80
2, 26208, Note_on_c, 0, 82, 80
2, 26229, Note_on_c, 0, 58, 0
2, 26234, Note_on_c, 0, 82, 0
2, 26244, Note_on_c, 0, 77, 0
2, 26246, Note_on_c, 0, 76, 80
2, 26248, Note_on_c, 0, 68, 0
2, 26248, Note_on_c, 0, 58, 80
2, 26248, Note_on_c, 0, 67, 80
2, 26254, Note_on_c, 0, 82, 80
2, 26283, Note_on_c, 0, 67, 0
2, 26289, Note_on_c, 0, 58, 0
2, 26291, Note_on_c, 0, 76, 0
2, 26291, Note_on_c, 0, 82, 0
2, 26315, Note_on_c, 0, 75, 80
2, 26315, Note_on_c, 0, 82, 80
2, 26317, Note_on_c, 0, 66, 80
2, 26319, Note_on_c, 0, 58, 80
2, 26345, Note_on_c, 0, 58, 0
2, 26345, Note_on_c, 0, 82, 0
2, 26347, Control_c, 0, 64, 127
2, 26356, Note_on_c, 0, 66, 0
2, 26356, Note_on_c, 0, 75, 0
2, 26358, Note_on_c, 0, 65, 80
2, 26362, Note_on_c, 0, 74, 80
2, 26364, Note_on_c, 0, 58, 80
2, 26364, Note_on_c, 0, 82, 80
2, 26402, Note_on_c, 0, 74, 0
2, 26404, Note_on_c, 0, 58, 0
2, 26406, Note_on_c, 0, 82, 0
2, 26410, Note_on_c, 0, 65, 0
2, 26434, Note_on_c, 0, 46, 80
2, 26434, Note_on_c, 0, 56, 80
2, 26436, Note_on_c, 0, 65, 80
2, 26438, Note_on_c, 0, 70, 80
2, 26458, Note_on_c, 0, 46, 0
2, 26466, Note_on_c, 0, 70, 0
2, 26475, Note_on_c, 0, 55, 80
2, 26477, Note_on_c, 0, 65, 0
2, 26477, Note_on_c, 0, 64, 80
2, 26479, Control_c, 0, 64, 0
2, 26479, Note_on_c, 0, 46, 80
2, 26481, Note_on_c, 0, 56, 0
2, 26485, Note_on_c, 0, 70, 80
2, 26521, Note_on_c, 0, 46, 0
2, 26523, Note_on_c, 0, 55, 0
2, 26523, Note_on_c, 0, 64, 0
2, 26525, Note_on_c, 0, 70, 0
2, 26557, Note_on_c, 0, 63, 80
2, 26559, Note_on_c, 0, 46, 80
2, 26561, Note_on_c, 0, 70, 80
2, 26563, Note_on_c, 0, 54, 80
2, 26585, Note_on_c, 0, 46, 0
2, 26589, Note_on_c, 0, 70, 0
2, 26601, Note_on_c, 0, 53, 80
2, 26603, Note_on_c, 0, 54, 0
2, 26609, Note_on_c, 0, 63, 0
2, 26611, Note_on_c, 0, 62, 80
2, 26613, Note_on_c, 0, 46, 80
2, 26613, Note_on_c, 0, 70, 80
2, 26653, Note_on_c, 0, 46, 0
2, 26655, Note_on_c, 0, 53, 0
2, 26655, Note_on_c, 0, 62, 0
2, 26659, Note_on_c, 0, 70, 0
2, 26687, Note_on_c, 0, 53, 80
2, 26690, Note_on_c, 0, 46, 80
2, 26692, Note_on_c, 0, 70, 80
2, 26694, Note_on_c, 0, 62, 80
2, 26718, Note_on_c, 0, 46, 0
2, 26720, Note_on_c, 0, 70, 0
2, 26736, Note_on_c, 0, 53, 0
2, 26736, Note_on_c, 0, 62, 0
2, 26738, Note_on_c, 0, 63, 80
2, 26742, Note_on_c, 0, 54, 80
2, 26746, Note_on_c, 0, 46, 80
2, 26746, Note_on_c, 0, 70, 80
2, 26783, Note_on_c, 0, 46, 0
2, 26788, Note_on_c, 0, 70, 0
2, 26790, Note_on_c, 0, 54, 0
2, 26792, Note_on_c, 0, 63, 0
2, 26820, Note_on_c, 0, 55, 80
2, 26824, Note_on_c, 0, 46, 80
2, 26830, Note_on_c, 0, 64, 80
2, 26830, Note_on_c, 0, 70, 80
2, 26837, Control_c, 0, 64, 127
2, 26852, Note_on_c, 0, 46, 0
2, 26872, Note_on_c, 0, 64, 0
2, 26872, Note_on_c, 0, 46, 80
2, 26872, Note_on_c, 0, 56, 80
2, 26874, Note_on_c, 0, 55, 0
2, 26876, Note_on_c, 0, 65, 80
2, 26918, Note_on_c, 0, 46, 0
2, 26920, Note_on_c, 0, 70, 0
2, 26922, Note_on_c, 0, 65, 0
2, 26924, Note_on_c, 0, 56, 0
2, 26948, Note_on_c, 0, 53, 80
2, 26948, Note_on_c, 0, 62, 80
2, 26950, Note_on_c, 0, 46, 80
2, 26950, Note_on_c, 0, 70, 80
2, 26972, Note_on_c, 0, 46, 0
2, 26977, Control_c, 0, 64, 0
2, 26996, Note_on_c, 0, 62, 0
2, 26996, Note_on_c, 0, 63, 80
2, 26998, Note_on_c, 0, 53, 0
2, 26998, Note_on_c, 0, 46, 80
2, 26998, Note_on_c, 0, 54, 80
2, 27040, Note_on_c, 0, 54, 0
2, 27040, Note_on_c, 0, 46, 0
2, 27040, Note_on_c, 0, 70, 0
2, 27044, Note_on_c, 0, 63, 0
2, 27066, Note_on_c, 0, 46, 80
2, 27066, Note_on_c, 0, 55, 80
2, 27072, Note_on_c, 0, 64, 80
2, 27072, Note_on_c, 0, 70, 80
2, 27096, Note_on_c, 0, 46, 0
2, 27112, Note_on_c, 0, 64, 0
2, 27116, Note_on_c, 0, 46, 80
2, 27116, Note_on_c, 0, 56, 80
2, 27118, Note_on_c, 0, 55, 0
2, 27118, Note_on_c, 0, 65, 80
2, 27162, Note_on_c, 0, 46, 0
2, 27166, Note_on_c, 0, 56, 0
2, 27169, Note_on_c, 0, 70, 0
2, 27171, Note_on_c, 0, 65, 0
2, 27199, Note_on_c, 0, 53, 80
2, 27203, Note_on_c, 0, 46, 80
2, 27205, Note_on_c, 0, 70, 80
2, 27207, Note_on_c, 0, 62, 80
2, 27233, Note_on_c, 0, 70, 0
2, 27242, Note_on_c, 0, 53, 0
2, 27244, Note_on_c, 0, 62, 0
2, 27248, Note_on_c, 0, 54, 80
2, 27248, Note_on_c, 0, 63, 80
2, 27254, Note_on_c, 0, 70, 80
2, 27294, Note_on_c, 0, 54, 0
2, 27296, Note_on_c, 0, 46, 0
2, 27298, Note_on_c, 0, 70, 0
2, 27302, Note_on_c, 0, 63, 0
2, 27334, Note_on_c, 0, 46, 80
2, 27334, Note_on_c, 0, 55, 80
2, 27336, Note_on_c, 0, 64, 80
2, 27337, Note_on_c, 0, 70, 80
2, 27363, Note_on_c, 0, 46, 0
2, 27369, Note_on_c, 0, 70, 0
2, 27384, Note_on_c, 0, 64, 0
2, 27385, Note_on_c, 0, 55, 0
2, 27387, Control_c, 0, 64, 127
2, 27389, Note_on_c, 0, 46, 80
2, 27389, Note_on_c, 0, 56, 80
2, 27389, Note_on_c, 0, 65, 80
2, 27389, Note_on_c, 0, 70, 80
2, 27423, Note_on_c, 0, 46, 0
2, 27432, Note_on_c, 0, 70, 0
2, 27436, Note_on_c, 0, 65, 0
2, 27436, Note_on_c, 0, 56, 0
2, 27458, Note_on_c, 0, 53, 80
2, 27460, Note_on_c, 0, 46, 80
2, 27462, Note_on_c, 0, 62, 80
2, 27466, Note_on_c, 0, 70, 80
2, 27486, Note_on_c, 0, 46, 0
2, 27488, Note_on_c, 0, 70, 0
2, 27492, Control_c, 0, 64, 0
2, 27506, Note_on_c, 0, 54, 80
2, 27506, Note_on_c, 0, 63, 80
2, 27508, Note_on_c, 0, 53, 0
2, 27508, Note_on_c, 0, 46, 80
2, 27510, Note_on_c, 0, 62, 0
2, 27514, Note_on_c, 0, 70, 80
2, 27546, Note_on_c, 0, 46, 0
2, 27546, Note_on_c, 0, 54, 0
2, 27552, Note_on_c, 0, 70, 0
2, 27553, Note_on_c, 0, 63, 0
2, 27576, Note_on_c, 0, 55, 80
2, 27579, Note_on_c, 0, 70, 80
2, 27581, Note_on_c, 0, 46, 80
2, 27583, Note_on_c, 0, 64, 80
2, 27605, Note_on_c, 0, 46, 0
2, 27624, Note_on_c, 0, 64, 0
2, 27625, Note_on_c, 0, 46, 80
2, 27625, Note_on_c, 0, 56, 80
2, 27627, Note_on_c, 0, 65, 80
2, 27629, Note_on_c, 0, 55, 0
2, 27696, Note_on_c, 0, 46, 0
2, 27701, Note_on_c, 0, 70, 0
2, 27707, Note_on_c, 0, 65, 0
2, 27707, Note_on_c, 0, 56, 0
2, 27744, Note_on_c, 0, 34, 80
2, 27747, Note_on_c, 0, 46, 80
2, 27753, Note_on_c, 0, 62, 80
2, 27753, Note_on_c, 0, 65, 80
2, 27755, Note_on_c, 0, 68, 80
2, 27757, Note_on_c, 0, 58, 80
2, 27785, Note_on_c, 0, 34, 0
2, 27791, Note_on_c, 0, 46, 0
2, 27794, Note_on_c, 0, 68, 0
2, 27794, Note_on_c, 0, 65, 0
2, 27796, Note_on_c, 0, 58, 0
2, 27796, Note_on_c, 0, 62, 0
2, 27857, Control_c, 0, 64, 127
2, 27866, Note_on_c, 0, 51, 80
2, 27868, Note_on_c, 0, 63, 80
2, 27872, Note_on_c, 0, 39, 80
2, 27874, Note_on_c, 0, 58, 80
2, 27876, Note_on_c, 0, 67, 80
2, 27908, Note_on_c, 0, 39, 0
2, 27913, Note_on_c, 0, 58, 0
2, 27915, Note_on_c, 0, 67, 0
2, 27915, Note_on_c, 0, 63, 0
2, 27949, Note_on_c, 0, 57, 80
2, 27955, Note_on_c, 0, 66, 80
2, 27997, Note_on_c, 0, 66, 0
2, 27997, Control_c, 0, 64, 0
2, 27999, Note_on_c, 0, 63, 80
2, 28003, Note_on_c, 0, 57, 0
2, 28005, Note_on_c, 0, 67, 80
2, 28008, Note_on_c, 0, 58, 80
2, 28042, Note_on_c, 0, 67, 0
2, 28048, Note_on_c, 0, 58, 0
2, 28048, Note_on_c, 0, 63, 0
2, 28050, Note_on_c, 0, 51, 0
2, 28074, Note_on_c, 0, 63, 80
2, 28081, Note_on_c, 0, 58, 80
2, 28081, Note_on_c, 0, 67, 80
2, 28081, Note_on_c, 0, 70, 80
2, 28111, Note_on_c, 0, 34, 80
2, 28150, Note_on_c, 0, 67, 0
2, 28153, Note_on_c, 0, 34, 0
2, 28163, Note_on_c, 0, 58, 0
2, 28165, Note_on_c, 0, 70, 0
2, 28167, Note_on_c, 0, 63, 0
2, 28191, Note_on_c, 0, 70, 80
2, 28197, Note_on_c, 0, 58, 80
2, 28235, Note_on_c, 0, 58, 0
2, 28235, Note_on_c, 0, 60, 80
2, 28235, Note_on_c, 0, 72, 80
2, 28237, Note_on_c, 0, 70, 0
2, 28243, Note_on_c, 0, 67, 80
2, 28303, Note_on_c, 0, 67, 0
2, 28309, Note_on_c, 0, 72, 0
2, 28309, Note_on_c, 0, 60, 0
2, 28313, Note_on_c, 0, 70, 80
2, 28325, Control_c, 0, 64, 127
2, 28353, Note_on_c, 0, 70, 0
2, 28355, Note_on_c, 0, 39, 80
2, 28355, Note_on_c, 0, 51, 80
2, 28357, Note_on_c, 0, 73, 80
2, 28359, Note_on_c, 0, 61, 80
2, 28361, Note_on_c, 0, 67, 80
2, 28397, Note_on_c, 0, 67, 0
2, 28397, Note_on_c, 0, 39, 0
2, 28399, Note_on_c, 0, 73, 0
2, 28401, Note_on_c, 0, 61, 0
2, 28405, Note_on_c, 0, 51, 0
2, 28407, Note_on_c, 0, 72, 80
2, 28445, Note_on_c, 0, 72, 0
2, 28449, Note_on_c, 0, 70, 80
2, 28464, Control_c, 0, 64, 0
2, 28478, Note_on_c, 0, 50, 80
2, 28482, Note_on_c, 0, 61, 80
2, 28484, Note_on_c, 0, 73, 80
2, 28486, Note_on_c, 0, 67, 80
2, 28491, Note_on_c, 0, 70, 0
2, 28491, Note_on_c, 0, 38, 80
2, 28519, Note_on_c, 0, 73, 0
2, 28519, Note_on_c, 0, 67, 0
2, 28521, Note_on_c, 0, 61, 0
2, 28525, Note_on_c, 0, 72, 80
2, 28571, Note_on_c, 0, 72, 0
2, 28573, Note_on_c, 0, 70, 80
2, 28579, Note_on_c, 0, 38, 0
2, 28581, Note_on_c, 0, 50, 0
2, 28595, Note_on_c, 0, 39, 80
2, 28599, Note_on_c, 0, 51, 80
2, 28603, Note_on_c, 0, 61, 80
2, 28605, Note_on_c, 0, 73, 80
2, 28608, Note_on_c, 0, 67, 80
2, 28612, Note_on_c, 0, 70, 0
2, 28638, Note_on_c, 0, 61, 0
2, 28640, Note_on_c, 0, 73, 0
2, 28640, Note_on_c, 0, 67, 0
2, 28648, Note_on_c, 0, 72, 80
2, 28686, Note_on_c, 0, 70, 80
2, 28692, Note_on_c, 0, 72, 0
2, 28698, Note_on_c, 0, 39, 0
2, 28704, Note_on_c, 0, 51, 0
2, 28711, Note_on_c, 0, 40, 80
2, 28713, Note_on_c, 0, 52, 80
2, 28719, Note_on_c, 0, 61, 80
2, 28721, Note_on_c, 0, 67, 80
2, 28728, Note_on_c, 0, 70, 0
2, 28780, Note_on_c, 0, 67, 0
2, 28784, Note_on_c, 0, 61, 0
2, 28804, Note_on_c, 0, 40, 0
2, 28814, Note_on_c, 0, 52, 0
2, 28816, Control_c, 0, 64, 127
2, 28824, Note_on_c, 0, 53, 80
2, 28827, Note_on_c, 0, 41, 80
2, 28831, Note_on_c, 0, 62, 80
2, 28831, Note_on_c, 0, 70, 80
2, 28916, Note_on_c, 0, 70, 0
2, 28918, Note_on_c, 0, 62, 0
2, 28949, Note_on_c, 0, 60, 80
2, 28951, Control_c, 0, 64, 0
2, 28953, Note_on_c, 0, 67, 80
2, 28953, Note_on_c, 0, 72, 80
2, 29023, Note_on_c, 0, 67, 0
2, 29027, Note_on_c, 0, 72, 0
2, 29029, Note_on_c, 0, 60, 0
2, 29033, Note_on_c, 0, 70, 80
2, 29053, Note_on_c, 0, 41, 0
2, 29061, Note_on_c, 0, 53, 0
2, 29073, Note_on_c, 0, 39, 80
2, 29073, Note_on_c, 0, 51, 80
2, 29075, Note_on_c, 0, 70, 0
2, 29075, Note_on_c, 0, 61, 80
2, 29077, Note_on_c, 0, 67, 80
2, 29077, Note_on_c, 0, 73, 80
2, 29119, Note_on_c, 0, 73, 0
2, 29119, Note_on_c, 0, 67, 0
2, 29121, Note_on_c, 0, 61, 0
2, 29129, Note_on_c, 0, 72, 80
2, 29167, Note_on_c, 0, 72, 0
2, 29171, Note_on_c, 0, 70, 80
2, 29175, Note_on_c, 0, 39, 0
2, 29183, Note_on_c, 0, 51, 0
2, 29192, Note_on_c, 0, 40, 80
2, 29196, Note_on_c, 0, 52, 80
2, 29196, Note_on_c, 0, 61, 80
2, 29206, Note_on_c, 0, 67, 80
2, 29209, Note_on_c, 0, 70, 0
2, 29261, Note_on_c, 0, 61, 0
2, 29263, Note_on_c, 0, 67, 0
2, 29285, Note_on_c, 0, 40, 0
2, 29291, Note_on_c, 0, 52, 0
2, 29301, Note_on_c, 0, 53, 80
2, 29303, Note_on_c, 0, 41, 80
2, 29308, Control_c, 0, 64, 127
2, 29308, Note_on_c, 0, 62, 80
2, 29308, Note_on_c, 0, 70, 80
2, 29395, Note_on_c, 0, 70, 0
2, 29397, Note_on_c, 0, 62, 0
2, 29424, Note_on_c, 0, 60, 80
2, 29434, Note_on_c, 0, 67, 80
2, 29447, Control_c, 0, 64, 0
2, 29474, Note_on_c, 0, 61, 80
2, 29476, Note_on_c, 0, 60, 0
2, 29515, Note_on_c, 0, 41, 0
2, 29517, Note_on_c, 0, 61, 0
2, 29519, Note_on_c, 0, 67, 0
2, 29522, Note_on_c, 0, 62, 80
2, 29528, Note_on_c, 0, 53, 0
2, 29550, Note_on_c, 0, 64, 80
2, 29552, Note_on_c, 0, 50, 80
2, 29554, Note_on_c, 0, 38, 80
2, 29556, Note_on_c, 0, 60, 80
2, 29558, Note_on_c, 0, 69, 80
2, 29600, Note_on_c, 0, 62, 0
2, 29642, Note_on_c, 0, 38, 0
2, 29644, Note_on_c, 0, 64, 0
2, 29646, Note_on_c, 0, 69, 0
2, 29648, Note_on_c, 0, 50, 0
2, 29648, Note_on_c, 0, 60, 0
2, 29682, Note_on_c, 0, 49, 80
2, 29684, Note_on_c, 0, 37, 80
2, 29684, Note_on_c, 0, 64, 80
2, 29686, Note_on_c, 0, 67, 80
2, 29688, Note_on_c, 0, 58, 80
2, 29765, Note_on_c, 0, 37, 0
2, 29769, Note_on_c, 0, 49, 0
2, 29771, Note_on_c, 0, 67, 0
2, 29773, Note_on_c, 0, 64, 0
2, 29773, Note_on_c, 0, 58, 0
2, 29775, Control_c, 0, 64, 127
2, 29799, Note_on_c, 0, 48, 80
2, 29801, Note_on_c, 0, 36, 80
2, 29803, Note_on_c, 0, 57, 80
2, 29803, Note_on_c, 0, 63, 80
2, 29807, Note_on_c, 0, 67, 80
2, 29886, Note_on_c, 0, 67, 0
2, 29892, Note_on_c, 0, 57, 0
2, 29892, Note_on_c, 0, 63, 0
2, 29904, Control_c, 0, 64, 0
2, 29914, Note_on_c, 0, 63, 80
2, 29920, Note_on_c, 0, 57, 80
2, 29922, Note_on_c, 0, 66, 80
2, 29955, Note_on_c, 0, 66, 0
2, 29961, Note_on_c, 0, 63, 0
2, 29961, Note_on_c, 0, 57, 0
2, 29977, Note_on_c, 0, 48, 0
2, 29979, Note_on_c, 0, 36, 0
2, 29981, Note_on_c, 0, 65, 80
2, 29983, Note_on_c, 0, 57, 80
2, 29985, Note_on_c, 0, 63, 80
2, 30027, Note_on_c, 0, 41, 80
2, 30027, Note_on_c, 0, 48, 80
2, 30097, Note_on_c, 0, 48, 0
2, 30099, Note_on_c, 0, 41, 0
2, 30103, Note_on_c, 0, 63, 0
2, 30103, Note_on_c, 0, 65, 0
2, 30105, Note_on_c, 0, 57, 0
2, 30147, Note_on_c, 0, 43, 80
2, 30147, Note_on_c, 0, 50, 80
2, 30151, Note_on_c, 0, 74, 80
2, 30155, Note_on_c, 0, 59, 80
2, 30155, Note_on_c, 0, 65, 80
2, 30155, Note_on_c, 0, 79, 80
2, 30157, Note_on_c, 0, 71, 80
2, 30191, Note_on_c, 0, 43, 0
2, 30194, Note_on_c, 0, 79, 0
2, 30194, Note_on_c, 0, 74, 0
2, 30196, Note_on_c, 0, 59, 0
2, 30196, Note_on_c, 0, 50, 0
2, 30200, Note_on_c, 0, 71, 0
2, 30202, Note_on_c, 0, 65, 0
2, 30284, Control_c, 0, 64, 127
2, 30396, Note_on_c, 0, 55, 80
2, 30400, Note_on_c, 0, 48, 80
2, 30400, Note_on_c, 0, 64, 80
2, 30400, Note_on_c, 0, 70, 80
2, 30404, Note_on_c, 0, 73, 80
2, 30416, Control_c, 0, 64, 0
2, 30438, Note_on_c, 0, 48, 0
2, 30440, Note_on_c, 0, 64, 0
2, 30446, Note_on_c, 0, 73, 0
2, 30446, Note_on_c, 0, 70, 0
2, 30482, Note_on_c, 0, 74, 80
2, 30508, Note_on_c, 0, 55, 0
2, 30516, Note_on_c, 0, 74, 0
2, 30518, Note_on_c, 0, 48, 80
2, 30522, Note_on_c, 0, 54, 80
2, 30522, Note_on_c, 0, 62, 80
2, 30524, Note_on_c, 0, 70, 80
2, 30552, Note_on_c, 0, 48, 0
2, 30566, Note_on_c, 0, 70, 0
2, 30566, Note_on_c, 0, 62, 0
2, 30576, Note_on_c, 0, 72, 80
2, 30600, Note_on_c, 0, 70, 80
2, 30609, Note_on_c, 0, 72, 0
2, 30627, Note_on_c, 0, 54, 0
2, 30640, Note_on_c, 0, 53, 80
2, 30642, Note_on_c, 0, 70, 0
2, 30642, Note_on_c, 0, 57, 80
2, 30644, Note_on_c, 0, 48, 80
2, 30644, Note_on_c, 0, 72, 80
2, 30646, Note_on_c, 0, 63, 80
2, 30648, Note_on_c, 0, 69, 80
2, 30681, Note_on_c, 0, 48, 0
2, 30685, Note_on_c, 0, 69, 0
2, 30687, Note_on_c, 0, 57, 0
2, 30689, Note_on_c, 0, 63, 0
2, 30689, Note_on_c, 0, 72, 0
2, 30722, Note_on_c, 0, 69, 80
2, 30735, Note_on_c, 0, 53, 0
2, 30761, Note_on_c, 0, 53, 80
2, 30763, Note_on_c, 0, 69, 0
2, 30765, Note_on_c, 0, 46, 80
2, 30767, Note_on_c, 0, 62, 80
2, 30770, Note_on_c, 0, 70, 80
2, 30785, Control_c, 0, 64, 127
2, 30805, Note_on_c, 0, 46, 0
2, 30807, Note_on_c, 0, 62, 0
2, 30815, Note_on_c, 0, 53, 0
2, 30815, Note_on_c, 0, 70, 0
2, 30855, Note_on_c, 0, 72, 80
2, 30897, Note_on_c, 0, 55, 80
2, 30899, Note_on_c, 0, 72, 0
2, 30901, Note_on_c, 0, 47, 80
2, 30903, Note_on_c, 0, 64, 80
2, 30905, Note_on_c, 0, 73, 80
2, 30927, Control_c, 0, 64, 0
2, 30933, Note_on_c, 0, 47, 0
2, 30938, Note_on_c, 0, 64, 0
2, 30948, Note_on_c, 0, 73, 0
2, 30980, Note_on_c, 0, 74, 80
2, 31004, Note_on_c, 0, 55, 0
2, 31020, Note_on_c, 0, 47, 80
2, 31020, Note_on_c, 0, 56, 80
2, 31020, Note_on_c, 0, 70, 80
2, 31022, Note_on_c, 0, 74, 0
2, 31022, Note_on_c, 0, 62, 80
2, 31058, Note_on_c, 0, 47, 0
2, 31062, Note_on_c, 0, 70, 0
2, 31066, Note_on_c, 0, 62, 0
2, 31072, Note_on_c, 0, 72, 80
2, 31100, Note_on_c, 0, 70, 80
2, 31112, Note_on_c, 0, 72, 0
2, 31127, Note_on_c, 0, 56, 0
2, 31136, Note_on_c, 0, 48, 80
2, 31138, Note_on_c, 0, 57, 80
2, 31144, Note_on_c, 0, 63, 80
2, 31146, Note_on_c, 0, 70, 0
2, 31148, Note_on_c, 0, 69, 80
2, 31148, Note_on_c, 0, 72, 80
2, 31174, Note_on_c, 0, 48, 0
2, 31188, Note_on_c, 0, 69, 0
2, 31188, Note_on_c, 0, 63, 0
2, 31188, Note_on_c, 0, 72, 0
2, 31226, Note_on_c, 0, 69, 80
2, 31250, Control_c, 0, 64, 127
2, 31252, Note_on_c, 0, 57, 0
2, 31262, Note_on_c, 0, 69, 0
2, 31262, Note_on_c, 0, 46, 80
2, 31266, Note_on_c, 0, 62, 80
2, 31266, Note_on_c, 0, 70, 80
2, 31272, Note_on_c, 0, 58, 80
2, 31338, Note_on_c, 0, 46, 0
2, 31345, Note_on_c, 0, 62, 0
2, 31347, Note_on_c, 0, 58, 0
2, 31349, Note_on_c, 0, 70, 0
2, 31395, Note_on_c, 0, 41, 80
2, 31397, Note_on_c, 0, 53, 80
2, 31397, Note_on_c, 0, 65, 80
2, 31410, Note_on_c, 0, 74, 80
2, 31414, Note_on_c, 0, 77, 80
2, 31434, Control_c, 0, 64, 0
2, 31440, Note_on_c, 0, 74, 0
2, 31445, Note_on_c, 0, 77, 0
2, 31449, Note_on_c, 0, 65, 0
2, 31483, Note_on_c, 0, 74, 80
2, 31485, Note_on_c, 0, 65, 80
2, 31490, Note_on_c, 0, 77, 80
2, 31492, Note_on_c, 0, 41, 0
2, 31500, Note_on_c, 0, 53, 0
2, 31524, Note_on_c, 0, 55, 80
2, 31526, Note_on_c, 0, 43, 80
2, 31534, Note_on_c, 0, 74, 0
2, 31539, Note_on_c, 0, 65, 0
2, 31543, Note_on_c, 0, 77, 0
2, 31606, Note_on_c, 0, 65, 80
2, 31608, Note_on_c, 0, 74, 80
2, 31611, Note_on_c, 0, 77, 80
2, 31617, Note_on_c, 0, 43, 0
2, 31623, Note_on_c, 0, 55, 0
2, 31632, Note_on_c, 0, 74, 0
2, 31649, Note_on_c, 0, 45, 80
2, 31649, Note_on_c, 0, 57, 80
2, 31651, Note_on_c, 0, 65, 0
2, 31653, Note_on_c, 0, 77, 0
2, 31655, Note_on_c, 0, 67, 80
2, 31655, Note_on_c, 0, 74, 80
2, 31655, Note_on_c, 0, 79, 80
2, 31691, Note_on_c, 0, 45, 0
2, 31693, Note_on_c, 0, 74, 0
2, 31697, Note_on_c, 0, 67, 0
2, 31701, Note_on_c, 0, 79, 0
2, 31703, Note_on_c, 0, 57, 0
2, 31730, Note_on_c, 0, 46, 80
2, 31734, Note_on_c, 0, 74, 80
2, 31736, Note_on_c, 0, 70, 80
2, 31738, Note_on_c, 0, 77, 80
2, 31738, Note_on_c, 0, 80, 80
2, 31738, Note_on_c, 0, 82, 80
2, 31740, Note_on_c, 0, 58, 80
2, 31778, Control_c, 0, 64, 127
2, 31802, Note_on_c, 0, 46, 0
2, 31823, Note_on_c, 0, 80, 0
2, 31823, Note_on_c, 0, 74, 0
2, 31826, Note_on_c, 0, 70, 0
2, 31826, Note_on_c, 0, 77, 0
2, 31826, Note_on_c, 0, 82, 0
2, 31828, Note_on_c, 0, 58, 0
2, 31858, Note_on_c, 0, 89, 80
2, 31862, Note_on_c, 0, 80, 80
2, 31862, Note_on_c, 0, 94, 80
2, 31888, Note_on_c, 0, 94, 0
2, 31888, Control_c, 0, 64, 0
2, 31906, Note_on_c, 0, 88, 80
2, 31908, Note_on_c, 0, 80, 0
2, 31908, Note_on_c, 0, 89, 0
2, 31910, Note_on_c, 0, 79, 80
2, 31914, Note_on_c, 0, 94, 80
2, 31947, Note_on_c, 0, 88, 0
2, 31951, Note_on_c, 0, 79, 0
2, 31959, Note_on_c, 0, 94, 0
2, 31992, Note_on_c, 0, 87, 80
2, 31994, Note_on_c, 0, 78, 80
2, 31994, Note_on_c, 0, 94, 80
2, 32040, Note_on_c, 0, 78, 0
2, 32040, Note_on_c, 0, 87, 0
2, 32044, Note_on_c, 0, 86, 80
2, 32048, Note_on_c, 0, 77, 80
2, 32088, Note_on_c, 0, 86, 0
2, 32088, Note_on_c, 0, 94, 0
2, 32090, Note_on_c, 0, 77, 0
2, 32124, Note_on_c, 0, 58, 80
2, 32126, Note_on_c, 0, 82, 80
2, 32128, Note_on_c, 0, 68, 80
2, 32128, Note_on_c, 0, 77, 80
2, 32150, Note_on_c, 0, 58, 0
2, 32168, Note_on_c, 0, 77, 0
2, 32168, Note_on_c, 0, 68, 0
2, 32170, Note_on_c, 0, 67, 80
2, 32170, Note_on_c, 0, 76, 80
2, 32170, Note_on_c, 0, 58, 80
2, 32208, Note_on_c, 0, 58, 0
2, 32208, Note_on_c, 0, 67, 0
2, 32210, Note_on_c, 0, 76, 0
2, 32210, Note_on_c, 0, 82, 0
2, 32244, Note_on_c, 0, 58, 80
2, 32244, Note_on_c, 0, 66, 80
2, 32244, Note_on_c, 0, 75, 80
2, 32246, Note_on_c, 0, 82, 80
2, 32254, Control_c, 0, 64, 127
2, 32263, Note_on_c, 0, 66, 0
2, 32271, Note_on_c, 0, 82, 0
2, 32271, Note_on_c, 0, 75, 0
2, 32280, Note_on_c, 0, 65, 80
2, 32286, Note_on_c, 0, 74, 80
2, 32294, Note_on_c, 0, 82, 80
2, 32326, Note_on_c, 0, 74, 0
2, 32328, Note_on_c, 0, 65, 0
2, 32329, Note_on_c, 0, 58, 0
2, 32329, Note_on_c, 0, 82, 0
2, 32355, Note_on_c, 0, 46, 80
2, 32359, Note_on_c, 0, 56, 80
2, 32359, Note_on_c, 0, 65, 80
2, 32365, Note_on_c, 0, 70, 80
2, 32391, Control_c, 0, 64, 0
2, 32405, Note_on_c, 0, 65, 0
2, 32405, Note_on_c, 0, 55, 80
2, 32407, Note_on_c, 0, 64, 80
2, 32409, Note_on_c, 0, 56, 0
2, 32448, Note_on_c, 0, 46, 0
2, 32449, Note_on_c, 0, 64, 0
2, 32451, Note_on_c, 0, 55, 0
2, 32453, Note_on_c, 0, 70, 0
2, 32490, Note_on_c, 0, 46, 80
2, 32492, Note_on_c, 0, 54, 80
2, 32492, Note_on_c, 0, 63, 80
2, 32492, Note_on_c, 0, 70, 80
2, 32514, Note_on_c, 0, 46, 0
2, 32532, Note_on_c, 0, 63, 0
2, 32532, Note_on_c, 0, 53, 80
2, 32534, Note_on_c, 0, 54, 0
2, 32536, Note_on_c, 0, 46, 80
2, 32536, Note_on_c, 0, 62, 80
2, 32584, Note_on_c, 0, 62, 0
2, 32584, Note_on_c, 0, 46, 0
2, 32584, Note_on_c, 0, 53, 0
2, 32586, Note_on_c, 0, 70, 0
2, 32616, Note_on_c, 0, 53, 80
2, 32621, Note_on_c, 0, 46, 80
2, 32621, Note_on_c, 0, 70, 80
2, 32623, Note_on_c, 0, 62, 80
2, 32645, Note_on_c, 0, 46, 0
2, 32647, Note_on_c, 0, 70, 0
2, 32664, Note_on_c, 0, 53, 0
2, 32664, Note_on_c, 0, 62, 0
2, 32665, Note_on_c, 0, 54, 80
2, 32667, Note_on_c, 0, 46, 80
2, 32669, Note_on_c, 0, 63, 80
2, 32669, Note_on_c, 0, 70, 80
2, 32708, Note_on_c, 0, 46, 0
2, 32710, Note_on_c, 0, 54, 0
2, 32712, Note_on_c, 0, 70, 0
2, 32713, Note_on_c, 0, 63, 0
2, 32739, Note_on_c, 0, 55, 80
2, 32741, Note_on_c, 0, 46, 80
2, 32745, Note_on_c, 0, 70, 80
2, 32749, Note_on_c, 0, 64, 80
2, 32785, Note_on_c, 0, 55, 0
2, 32785, Control_c, 0, 64, 127
2, 32785, Note_on_c, 0, 65, 80
2, 32787, Note_on_c, 0, 64, 0
2, 32787, Note_on_c, 0, 56, 80
2, 32830, Note_on_c, 0, 46, 0
2, 32832, Note_on_c, 0, 65, 0
2, 32832, Note_on_c, 0, 70, 0
2, 32837, Note_on_c, 0, 56, 0
2, 32857, Note_on_c, 0, 53, 80
2, 32859, Note_on_c, 0, 62, 80
2, 32859, Note_on_c, 0, 70, 80
2, 32861, Note_on_c, 0, 46, 80
2, 32895, Control_c, 0, 64, 0
2, 32901, Note_on_c, 0, 63, 80
2, 32904, Note_on_c, 0, 53, 0
2, 32906, Note_on_c, 0, 62, 0
2, 32906, Note_on_c, 0, 54, 80
2, 32940, Note_on_c, 0, 54, 0
2, 32942, Note_on_c, 0, 46, 0
2, 32942, Note_on_c, 0, 70, 0
2, 32946, Note_on_c, 0, 63, 0
2, 32972, Note_on_c, 0, 55, 80
2, 32974, Note_on_c, 0, 64, 80
2, 32976, Note_on_c, 0, 46, 80
2, 32977, Note_on_c, 0, 70, 80
2, 32996, Note_on_c, 0, 46, 0
2, 33000, Note_on_c, 0, 70, 0
2, 33009, Note_on_c, 0, 64, 0
2, 33015, Note_on_c, 0, 55, 0
2, 33015, Note_on_c, 0, 56, 80
2, 33015, Note_on_c, 0, 65, 80
2, 33017, Note_on_c, 0, 46, 80
2, 33019, Note_on_c, 0, 70, 80
2, 33057, Note_on_c, 0, 46, 0
2, 33059, Note_on_c, 0, 65, 0
2, 33061, Note_on_c, 0, 70, 0
2, 33063, Note_on_c, 0, 56, 0
2, 33091, Note_on_c, 0, 53, 80
2, 33096, Note_on_c, 0, 46, 80
2, 33098, Note_on_c, 0, 62, 80
2, 33100, Note_on_c, 0, 70, 80
2, 33122, Note_on_c, 0, 46, 0
2, 33128, Note_on_c, 0, 70, 0
2, 33143, Note_on_c, 0, 46, 80
2, 33144, Note_on_c, 0, 62, 0
2, 33144, Note_on_c, 0, 53, 0
2, 33146, Note_on_c, 0, 54, 80
2, 33146, Note_on_c, 0, 63, 80
2, 33148, Note_on_c, 0, 70, 80
2, 33189, Note_on_c, 0, 70, 0
2, 33189, Note_on_c, 0, 46, 0
2, 33191, Note_on_c, 0, 54, 0
2, 33192, Note_on_c, 0, 63, 0
2, 33224, Note_on_c, 0, 55, 80
2, 33228, Note_on_c, 0, 46, 80
2, 33230, Note_on_c, 0, 70, 80
2, 33234, Note_on_c, 0, 64, 80
2, 33254, Note_on_c, 0, 70, 0
2, 33256, Control_c, 0, 64, 127
2, 33264, Note_on_c, 0, 64, 0
2, 33267, Note_on_c, 0, 56, 80
2, 33269, Note_on_c, 0, 55, 0
2, 33269, Note_on_c, 0, 65, 80
2, 33273, Note_on_c, 0, 70, 80
2, 33310, Note_on_c, 0, 46, 0
2, 33313, Note_on_c, 0, 56, 0
2, 33315, Note_on_c, 0, 65, 0
2, 33315, Note_on_c, 0, 70, 0
2, 33337, Note_on_c, 0, 53, 80
2, 33343, Note_on_c, 0, 46, 80
2, 33343, Note_on_c, 0, 70, 80
2, 33345, Note_on_c, 0, 62, 80
2, 33365, Note_on_c, 0, 46, 0
2, 33382, Note_on_c, 0, 63, 80
2, 33384, Note_on_c, 0, 53, 0
2, 33384, Note_on_c, 0, 62, 0
2, 33384, Control_c, 0, 64, 0
2, 33385, Note_on_c, 0, 46, 80
2, 33387, Note_on_c, 0, 54, 80
2, 33428, Note_on_c, 0, 63, 0
2, 33430, Note_on_c, 0, 54, 0
2, 33430, Note_on_c, 0, 46, 0
2, 33432, Note_on_c, 0, 70, 0
2, 33457, Note_on_c, 0, 46, 80
2, 33457, Note_on_c, 0, 55, 80
2, 33457, Note_on_c, 0, 64, 80
2, 33461, Note_on_c, 0, 70, 80
2, 33480, Note_on_c, 0, 46, 0
2, 33483, Note_on_c, 0, 70, 0
2, 33496, Note_on_c, 0, 64, 0
2, 33496, Note_on_c, 0, 56, 80
2, 33500, Note_on_c, 0, 46, 80
2, 33502, Note_on_c, 0, 55, 0
2, 33502, Note_on_c, 0, 65, 80
2, 33505, Note_on_c, 0, 70, 80
2, 33539, Note_on_c, 0, 46, 0
2, 33541, Note_on_c, 0, 65, 0
2, 33543, Note_on_c, 0, 70, 0
2, 33545, Note_on_c, 0, 56, 0
2, 33573, Note_on_c, 0, 85, 80
2, 33575, Note_on_c, 0, 73, 80
2, 33611, Note_on_c, 0, 54, 80
2, 33615, Note_on_c, 0, 46, 80
2, 33672, Note_on_c, 0, 73, 0
2, 33672, Note_on_c, 0, 85, 0
2, 33689, Note_on_c, 0, 46, 0
2, 33693, Note_on_c, 0, 70, 80
2, 33696, Note_on_c, 0, 82, 80
2, 33706, Control_c, 0, 64, 127
2, 33719, Note_on_c, 0, 54, 0
2, 33735, Note_on_c, 0, 70, 0
2, 33737, Note_on_c, 0, 55, 80
2, 33741, Note_on_c, 0, 46, 80
2, 33741, Note_on_c, 0, 79, 80
2, 33741, Note_on_c, 0, 85, 80
2, 33743, Note_on_c, 0, 73, 80
2, 33781, Note_on_c, 0, 46, 0
2, 33803, Note_on_c, 0, 55, 0
2, 33847, Control_c, 0, 64, 0
2, 33857, Note_on_c, 0, 63, 80
2, 33861, Note_on_c, 0, 58, 80
2, 33866, Note_on_c, 0, 67, 80
2, 33898, Note_on_c, 0, 79, 0
2, 33900, Note_on_c, 0, 73, 0
2, 33900, Note_on_c, 0, 85, 0
2, 33900, Note_on_c, 0, 67, 0
2, 33902, Note_on_c, 0, 58, 0
2, 33902, Note_on_c, 0, 63, 0
2, 33908, Note_on_c, 0, 82, 0
2, 33974, Note_on_c, 0, 34, 80
2, 33980, Note_on_c, 0, 46, 80
2, 33982, Note_on_c, 0, 70, 80
2, 33982, Note_on_c, 0, 75, 80
2, 33985, Note_on_c, 0, 79, 80
2, 33985, Note_on_c, 0, 82, 80
2, 34011, Note_on_c, 0, 34, 0
2, 34021, Note_on_c, 0, 46, 0
2, 34097, Note_on_c, 0, 55, 80
2, 34101, Note_on_c, 0, 63, 80
2, 34106, Note_on_c, 0, 58, 80
2, 34106, Note_on_c, 0, 67, 80
2, 34143, Note_on_c, 0, 58, 0
2, 34145, Note_on_c, 0, 63, 0
2, 34145, Note_on_c, 0, 70, 0
2, 34147, Note_on_c, 0, 79, 0
2, 34149, Note_on_c, 0, 82, 0
2, 34149, Note_on_c, 0, 67, 0
2, 34149, Note_on_c, 0, 75, 0
2, 34151, Note_on_c, 0, 55, 0
2, 34208, Control_c, 0, 64, 127
2, 34216, Note_on_c, 0, 51, 80
2, 34220, Note_on_c, 0, 39, 80
2, 34224, Note_on_c, 0, 70, 80
2, 34225, Note_on_c, 0, 79, 80
2, 34227, Note_on_c, 0, 82, 80
2, 34266, Note_on_c, 0, 39, 0
2, 34270, Note_on_c, 0, 79, 0
2, 34273, Note_on_c, 0, 70, 0
2, 34275, Note_on_c, 0, 82, 0
2, 34294, Note_on_c, 0, 51, 0
2, 34306, Note_on_c, 0, 73, 80
2, 34306, Note_on_c, 0, 85, 80
2, 34310, Note_on_c, 0, 79, 80
2, 34310, Note_on_c, 0, 82, 80
2, 34348, Control_c, 0, 64, 0
2, 34350, Note_on_c, 0, 58, 80
2, 34350, Note_on_c, 0, 63, 80
2, 34354, Note_on_c, 0, 67, 80
2, 34362, Note_on_c, 0, 85, 0
2, 34362, Note_on_c, 0, 73, 0
2, 34366, Note_on_c, 0, 82, 0
2, 34366, Note_on_c, 0, 79, 0
2, 34393, Note_on_c, 0, 67, 0
2, 34393, Note_on_c, 0, 63, 0
2, 34395, Note_on_c, 0, 58, 0
2, 34423, Note_on_c, 0, 70, 80
2, 34429, Note_on_c, 0, 82, 80
2, 34461, Note_on_c, 0, 82, 0
2, 34463, Note_on_c, 0, 70, 0
2, 34463, Note_on_c, 0, 40, 80
2, 34464, Note_on_c, 0, 72, 80
2, 34466, Note_on_c, 0, 52, 80
2, 34468, Note_on_c, 0, 79, 80
2, 34468, Note_on_c, 0, 84, 80
2, 34498, Note_on_c, 0, 40, 0
2, 34502, Note_on_c, 0, 79, 0
2, 34504, Note_on_c, 0, 72, 0
2, 34510, Note_on_c, 0, 84, 0
2, 34524, Note_on_c, 0, 52, 0
2, 34540, Note_on_c, 0, 79, 80
2, 34542, Note_on_c, 0, 70, 80
2, 34544, Note_on_c, 0, 82, 80
2, 34581, Note_on_c, 0, 82, 0
2, 34584, Note_on_c, 0, 70, 0
2, 34584, Note_on_c, 0, 61, 80
2, 34584, Note_on_c, 0, 64, 80
2, 34584, Note_on_c, 0, 72, 80
2, 34588, Note_on_c, 0, 58, 80
2, 34588, Note_on_c, 0, 67, 80
2, 34588, Note_on_c, 0, 84, 80
2, 34625, Note_on_c, 0, 64, 0
2, 34629, Note_on_c, 0, 72, 0
2, 34629, Note_on_c, 0, 79, 0
2, 34629, Note_on_c, 0, 67, 0
2, 34631, Note_on_c, 0, 61, 0
2, 34631, Note_on_c, 0, 58, 0
2, 34631, Note_on_c, 0, 84, 0
2, 34693, Control_c, 0, 64, 127
2, 34701, Note_on_c, 0, 53, 80
2, 34703, Note_on_c, 0, 41, 80
2, 34706, Note_on_c, 0, 70, 80
2, 34708, Note_on_c, 0, 82, 80
2, 34738, Note_on_c, 0, 41, 0
2, 34748, Note_on_c, 0, 82, 0
2, 34752, Note_on_c, 0, 70, 0
2, 34766, Note_on_c, 0, 53, 0
2, 34778, Note_on_c, 0, 70, 80
2, 34784, Note_on_c, 0, 82, 80
2, 34823, Note_on_c, 0, 82, 0
2, 34823, Control_c, 0, 64, 0
2, 34823, Note_on_c, 0, 62, 80
2, 34828, Note_on_c, 0, 72, 80
2, 34830, Note_on_c, 0, 70, 0
2, 34830, Note_on_c, 0, 58, 80
2, 34830, Note_on_c, 0, 65, 80
2, 34832, Note_on_c, 0, 79, 80
2, 34832, Note_on_c, 0, 84, 80
2, 34869, Note_on_c, 0, 79, 0
2, 34869, Note_on_c, 0, 58, 0
2, 34871, Note_on_c, 0, 62, 0
2, 34874, Note_on_c, 0, 72, 0
2, 34874, Note_on_c, 0, 65, 0
2, 34876, Note_on_c, 0, 84, 0
2, 34904, Note_on_c, 0, 70, 80
2, 34910, Note_on_c, 0, 82, 80
2, 34948, Note_on_c, 0, 70, 0
2, 34950, Note_on_c, 0, 51, 80
2, 34954, Note_on_c, 0, 39, 80
2, 34954, Note_on_c, 0, 85, 80
2, 34956, Note_on_c, 0, 73, 80
2, 34958, Note_on_c, 0, 79, 80
2, 34994, Note_on_c, 0, 39, 0
2, 34998, Note_on_c, 0, 85, 0
2, 34998, Note_on_c, 0, 79, 0
2, 35000, Note_on_c, 0, 73, 0
2, 35030, Note_on_c, 0, 70, 80
2, 35060, Note_on_c, 0, 51, 0
2, 35065, Note_on_c, 0, 40, 80
2, 35067, Note_on_c, 0, 52, 80
2, 35069, Note_on_c, 0, 70, 0
2, 35069, Note_on_c, 0, 82, 0
2, 35071, Note_on_c, 0, 79, 80
2, 35073, Note_on_c, 0, 72, 80
2, 35075, Note_on_c, 0, 84, 80
2, 35101, Note_on_c, 0, 40, 0
2, 35109, Note_on_c, 0, 72, 0
2, 35109, Note_on_c, 0, 79, 0
2, 35116, Note_on_c, 0, 84, 0
2, 35138, Note_on_c, 0, 71, 80
2, 35140, Note_on_c, 0, 83, 80
2, 35162, Note_on_c, 0, 52, 0
2, 35179, Note_on_c, 0, 53, 80
2, 35183, Note_on_c, 0, 71, 0
2, 35184, Note_on_c, 0, 41, 80
2, 35184, Note_on_c, 0, 70, 80
2, 35184, Note_on_c, 0, 74, 80
2, 35186, Control_c, 0, 64, 127
2, 35188, Note_on_c, 0, 77, 80
2, 35188, Note_on_c, 0, 80, 80
2, 35188, Note_on_c, 0, 82, 80
2, 35190, Note_on_c, 0, 83, 0
2, 35218, Note_on_c, 0, 41, 0
2, 35220, Note_on_c, 0, 80, 0
2, 35224, Note_on_c, 0, 74, 0
2, 35224, Note_on_c, 0, 77, 0
2, 35228, Note_on_c, 0, 82, 0
2, 35228, Note_on_c, 0, 70, 0
2, 35242, Note_on_c, 0, 53, 0
2, 35264, Note_on_c, 0, 69, 80
2, 35264, Note_on_c, 0, 74, 80
2, 35264, Note_on_c, 0, 77, 80
2, 35264, Note_on_c, 0, 81, 80
2, 35282, Note_on_c, 0, 74, 0
2, 35288, Control_c, 0, 64, 0
2, 35301, Note_on_c, 0, 69, 0
2, 35306, Note_on_c, 0, 77, 0
2, 35306, Note_on_c, 0, 81, 0
2, 35308, Note_on_c, 0, 58, 80
2, 35308, Note_on_c, 0, 62, 80
2, 35310, Note_on_c, 0, 74, 80
2, 35310, Note_on_c, 0, 79, 80
2, 35312, Note_on_c, 0, 67, 80
2, 35346, Note_on_c, 0, 67, 0
2, 35346, Note_on_c, 0, 74, 0
2, 35346, Note_on_c, 0, 79, 0
2, 35348, Note_on_c, 0, 58, 0
2, 35352, Note_on_c, 0, 62, 0
2, 35385, Note_on_c, 0, 74, 80
2, 35425, Note_on_c, 0, 74, 0
2, 35431, Note_on_c, 0, 55, 80
2, 35433, Note_on_c, 0, 52, 80
2, 35433, Note_on_c, 0, 61, 80
2, 35437, Note_on_c, 0, 69, 80
2, 35437, Note_on_c, 0, 81, 80
2, 35437, Note_on_c, 0, 76, 80
2, 35475, Note_on_c, 0, 76, 0
2, 35477, Note_on_c, 0, 69, 0
2, 35479, Note_on_c, 0, 81, 0
2, 35492, Note_on_c, 0, 55, 0
2, 35492, Note_on_c, 0, 52, 0
2, 35492, Note_on_c, 0, 61, 0
2, 35520, Note_on_c, 0, 68, 80
2, 35520, Note_on_c, 0, 76, 80
2, 35520, Note_on_c, 0, 80, 80
2, 35558, Note_on_c, 0, 80, 0
2, 35558, Note_on_c, 0, 55, 80
2, 35560, Note_on_c, 0, 76, 0
2, 35560, Note_on_c, 0, 68, 0
2, 35562, Note_on_c, 0, 67, 80
2, 35562, Note_on_c, 0, 79, 80
2, 35564, Note_on_c, 0, 58, 80
2, 35564, Note_on_c, 0, 61, 80
2, 35564, Note_on_c, 0, 64, 80
2, 35564, Note_on_c, 0, 75, 80
2, 35600, Note_on_c, 0, 64, 0
2, 35600, Note_on_c, 0, 67, 0
2, 35602, Note_on_c, 0, 55, 0
2, 35604, Note_on_c, 0, 61, 0
2, 35604, Note_on_c, 0, 58, 0
2, 35606, Note_on_c, 0, 79, 0
2, 35608, Note_on_c, 0, 75, 0
2, 35636, Note_on_c, 0, 75, 80
2, 35638, Note_on_c, 0, 69, 80
2, 35638, Note_on_c, 0, 81, 80
2, 35652, Control_c, 0, 64, 127
2, 35670, Note_on_c, 0, 53, 80
2, 35676, Note_on_c, 0, 48, 80
2, 35678, Note_on_c, 0, 60, 80
2, 35682, Note_on_c, 0, 81, 0
2, 35682, Note_on_c, 0, 69, 0
2, 35684, Note_on_c, 0, 67, 80
2, 35684, Note_on_c, 0, 79, 80
2, 35732, Note_on_c, 0, 48, 0
2, 35736, Note_on_c, 0, 67, 0
2, 35736, Note_on_c, 0, 60, 0
2, 35737, Note_on_c, 0, 79, 0
2, 35739, Note_on_c, 0, 75, 0
2, 35765, Note_on_c, 0, 53, 0
2, 35782, Control_c, 0, 64, 0
2, 35794, Note_on_c, 0, 53, 80
2, 35798, Note_on_c, 0, 57, 80
2, 35798, Note_on_c, 0, 60, 80
2, 35798, Note_on_c, 0, 75, 80
2, 35800, Note_on_c, 0, 63, 80
2, 35804, Note_on_c, 0, 69, 80
2, 35806, Note_on_c, 0, 79, 80
2, 35844, Note_on_c, 0, 63, 0
2, 35846, Note_on_c, 0, 53, 0
2, 35846, Note_on_c, 0, 60, 0
2, 35846, Note_on_c, 0, 79, 0
2, 35848, Note_on_c, 0, 57, 0
2, 35848, Note_on_c, 0, 75, 0
2, 35848, Note_on_c, 0, 69, 0
2, 35876, Note_on_c, 0, 77, 80
2, 35878, Note_on_c, 0, 69, 80
2, 35878, Note_on_c, 0, 75, 80
2, 35918, Note_on_c, 0, 41, 80
2, 35962, Note_on_c, 0, 41, 0
2, 36048, Note_on_c, 0, 53, 80
2, 36052, Note_on_c, 0, 63, 80
2, 36054, Note_on_c, 0, 57, 80
2, 36054, Note_on_c, 0, 60, 80
2, 36069, Note_on_c, 0, 75, 0
2, 36072, Note_on_c, 0, 77, 0
2, 36072, Note_on_c, 0, 69, 0
2, 36135, Control_c, 0, 64, 127
2, 36137, Note_on_c, 0, 60, 0
2, 36137, Note_on_c, 0, 53, 0
2, 36139, Note_on_c, 0, 63, 0
2, 36141, Note_on_c, 0, 57, 0
2, 36179, Note_on_c, 0, 48, 80
2, 36185, Note_on_c, 0, 60, 80
2, 36263, Note_on_c, 0, 65, 80
2, 36266, Note_on_c, 0, 72, 80
2, 36266, Note_on_c, 0, 75, 80
2, 36268, Note_on_c, 0, 48, 0
2, 36278, Note_on_c, 0, 60, 0
2, 36278, Control_c, 0, 64, 0
2, 36304, Note_on_c, 0, 65, 0
2, 36304, Note_on_c, 0, 53, 80
2, 36306, Note_on_c, 0, 63, 80
2, 36308, Note_on_c, 0, 57, 80
2, 36308, Note_on_c, 0, 60, 80
2, 36313, Note_on_c, 0, 67, 80
2, 36352, Note_on_c, 0, 53, 0
2, 36354, Note_on_c, 0, 75, 0
2, 36354, Note_on_c, 0, 67, 0
2, 36356, Note_on_c, 0, 63, 0
2, 36356, Note_on_c, 0, 72, 0
2, 36356, Note_on_c, 0, 60, 0
2, 36356, Note_on_c, 0, 57, 0
2, 36384, Note_on_c, 0, 65, 80
2, 36432, Note_on_c, 0, 41, 80
2, 36433, Note_on_c, 0, 65, 0
2, 36435, Note_on_c, 0, 53, 80
2, 36441, Note_on_c, 0, 73, 80
2, 36487, Note_on_c, 0, 73, 0
2, 36509, Note_on_c, 0, 41, 0
2, 36517, Note_on_c, 0, 53, 0
2, 36517, Note_on_c, 0, 74, 80
2, 36555, Note_on_c, 0, 53, 80
2, 36559, Note_on_c, 0, 74, 0
2, 36559, Note_on_c, 0, 57, 80
2, 36559, Note_on_c, 0, 60, 80
2, 36563, Note_on_c, 0, 63, 80
2, 36565, Note_on_c, 0, 70, 80
2, 36605, Note_on_c, 0, 60, 0
2, 36609, Note_on_c, 0, 63, 0
2, 36609, Note_on_c, 0, 70, 0
2, 36609, Note_on_c, 0, 53, 0
2, 36611, Note_on_c, 0, 57, 0
2, 36648, Note_on_c, 0, 67, 80
2, 36690, Note_on_c, 0, 67, 0
2, 36692, Note_on_c, 0, 53, 80
2, 36696, Control_c, 0, 64, 127
2, 36696, Note_on_c, 0, 62, 80
2, 36697, Note_on_c, 0, 70, 80
2, 36755, Note_on_c, 0, 62, 0
2, 36757, Note_on_c, 0, 70, 0
2, 36759, Note_on_c, 0, 53, 0
2, 36819, Note_on_c, 0, 41, 80
2, 36819, Note_on_c, 0, 53, 80
2, 36823, Note_on_c, 0, 65, 80
2, 36827, Note_on_c, 0, 70, 80
2, 36829, Note_on_c, 0, 73, 80
2, 36835, Control_c, 0, 64, 0
2, 36868, Note_on_c, 0, 73, 0
2, 36868, Note_on_c, 0, 65, 0
2, 36868, Note_on_c, 0, 70, 0
2, 36900, Note_on_c, 0, 74, 80
2, 36906, Note_on_c, 0, 41, 0
2, 36912, Note_on_c, 0, 53, 0
2, 36939, Note_on_c, 0, 55, 80
2, 36941, Note_on_c, 0, 74, 0
2, 36943, Note_on_c, 0, 43, 80
2, 36943, Note_on_c, 0, 70, 80
2, 36947, Note_on_c, 0, 64, 80
2, 36991, Note_on_c, 0, 64, 0
2, 36997, Note_on_c, 0, 70, 0
2, 36999, Note_on_c, 0, 72, 80
2, 37027, Note_on_c, 0, 70, 80
2, 37032, Note_on_c, 0, 43, 0
2, 37040, Note_on_c, 0, 72, 0
2, 37042, Note_on_c, 0, 55, 0
2, 37068, Note_on_c, 0, 63, 80
2, 37070, Note_on_c, 0, 70, 0
2, 37070, Note_on_c, 0, 57, 80
2, 37072, Note_on_c, 0, 45, 80
2, 37078, Note_on_c, 0, 72, 80
2, 37122, Note_on_c, 0, 72, 0
2, 37122, Note_on_c, 0, 63, 0
2, 37155, Note_on_c, 0, 69, 80
2, 37157, Note_on_c, 0, 45, 0
2, 37172, Note_on_c, 0, 57, 0
2, 37205, Note_on_c, 0, 69, 0
2, 37205, Control_c, 0, 64, 127
2, 37205, Note_on_c, 0, 46, 80
2, 37207, Note_on_c, 0, 58, 80
2, 37207, Note_on_c, 0, 70, 80
2, 37246, Note_on_c, 0, 70, 0
2, 37246, Note_on_c, 0, 46, 0
2, 37251, Note_on_c, 0, 58, 0
2, 37290, Note_on_c, 0, 65, 80
2, 37296, Note_on_c, 0, 77, 80
2, 37332, Note_on_c, 0, 65, 0
2, 37332, Note_on_c, 0, 53, 80
2, 37334, Note_on_c, 0, 77, 0
2, 37340, Note_on_c, 0, 74, 80
2, 37340, Note_on_c, 0, 79, 80
2, 37344, Note_on_c, 0, 67, 80
2, 37349, Control_c, 0, 64, 0
2, 37419, Note_on_c, 0, 79, 0
2, 37419, Note_on_c, 0, 74, 0
2, 37421, Note_on_c, 0, 67, 0
2, 37449, Note_on_c, 0, 62, 80
2, 37451, Note_on_c, 0, 70, 80
2, 37455, Note_on_c, 0, 82, 80
2, 37457, Note_on_c, 0, 74, 80
2, 37505, Note_on_c, 0, 70, 0
2, 37509, Note_on_c, 0, 74, 0
2, 37511, Note_on_c, 0, 53, 0
2, 37512, Note_on_c, 0, 82, 0
2, 37514, Note_on_c, 0, 62, 0
2, 37644, Note_on_c, 0, 82, 80
2, 37670, Note_on_c, 0, 82, 0
2, 37678, Note_on_c, 0, 84, 80
2, 37704, Note_on_c, 0, 84, 0
2, 37704, Note_on_c, 0, 62, 80
2, 37704, Note_on_c, 0, 65, 80
2, 37707, Control_c, 0, 64, 127
2, 37709, Note_on_c, 0, 68, 80
2, 37709, Note_on_c, 0, 82, 80
2, 37711, Note_on_c, 0, 58, 80
2, 37739, Note_on_c, 0, 82, 0
2, 37741, Note_on_c, 0, 84, 80
2, 37769, Note_on_c, 0, 84, 0
2, 37771, Note_on_c, 0, 82, 80
2, 37797, Note_on_c, 0, 82, 0
2, 37799, Note_on_c, 0, 84, 80
2, 37828, Note_on_c, 0, 84, 0
2, 37832, Note_on_c, 0, 82, 80
2, 37840, Control_c, 0, 64, 0
2, 37873, Note_on_c, 0, 82, 0
2, 37912, Note_on_c, 0, 70, 80
2, 37950, Note_on_c, 0, 70, 0
2, 37952, Note_on_c, 0, 72, 80
2, 38006, Note_on_c, 0, 72, 0
2, 38006, Note_on_c, 0, 68, 0
2, 38008, Note_on_c, 0, 62, 0
2, 38010, Note_on_c, 0, 65, 0
2, 38010, Note_on_c, 0, 58, 0
2, 38022, Note_on_c, 0, 74, 80
2, 38059, Note_on_c, 0, 65, 80
2, 38061, Note_on_c, 0, 62, 80
2, 38063, Note_on_c, 0, 74, 0
2, 38066, Note_on_c, 0, 58, 80
2, 38066, Note_on_c, 0, 75, 80
2, 38068, Note_on_c, 0, 68, 80
2, 38112, Note_on_c, 0, 75, 0
2, 38131, Note_on_c, 0, 65, 0
2, 38133, Note_on_c, 0, 58, 0
2, 38135, Note_on_c, 0, 62, 0
2, 38135, Note_on_c, 0, 68, 0
2, 38138, Note_on_c, 0, 77, 80
2, 38172, Note_on_c, 0, 77, 0
2, 38172, Note_on_c, 0, 64, 80
2, 38174, Control_c, 0, 64, 127
2, 38176, Note_on_c, 0, 58, 80
2, 38176, Note_on_c, 0, 61, 80
2, 38178, Note_on_c, 0, 84, 80
2, 38182, Note_on_c, 0, 67, 80
2, 38215, Note_on_c, 0, 84, 0
2, 38217, Note_on_c, 0, 82, 80
2, 38261, Note_on_c, 0, 82, 0
2, 38267, Note_on_c, 0, 84, 80
2, 38297, Note_on_c, 0, 82, 80
2, 38306, Control_c, 0, 64, 0
2, 38310, Note_on_c, 0, 84, 0
2, 38354, Note_on_c, 0, 82, 0
2, 38371, Note_on_c, 0, 70, 80
2, 38407, Note_on_c, 0, 70, 0
2, 38420, Note_on_c, 0, 72, 80
2, 38473, Note_on_c, 0, 61, 0
2, 38473, Note_on_c, 0, 64, 0
2, 38477, Note_on_c, 0, 72, 0
2, 38477, Note_on_c, 0, 67, 0
2, 38481, Note_on_c, 0, 58, 0
2, 38499, Note_on_c, 0, 74, 80
2, 38536, Note_on_c, 0, 74, 0
2, 38544, Note_on_c, 0, 64, 80
2, 38544, Note_on_c, 0, 75, 80
2, 38545, Note_on_c, 0, 58, 80
2, 38545, Note_on_c, 0, 61, 80
2, 38547, Note_on_c, 0, 67, 80
2, 38597, Note_on_c, 0, 75, 0
2, 38612, Note_on_c, 0, 67, 0
2, 38614, Note_on_c, 0, 64, 0
2, 38614, Note_on_c, 0, 61, 0
2, 38617, Note_on_c, 0, 58, 0
2, 38621, Note_on_c, 0, 77, 80
2, 38662, Control_c, 0, 64, 127
2, 38662, Note_on_c, 0, 65, 80
2, 38662, Note_on_c, 0, 68, 80
2, 38664, Note_on_c, 0, 58, 80
2, 38664, Note_on_c, 0, 62, 80
2, 38706, Note_on_c, 0, 77, 0
2, 38737, Note_on_c, 0, 74, 80
2, 38741, Note_on_c, 0, 82, 80
2, 38778, Note_on_c, 0, 82, 0
2, 38778, Note_on_c, 0, 74, 0
2, 38784, Note_on_c, 0, 80, 80
2, 38798, Control_c, 0, 64, 0
2, 38822, Note_on_c, 0, 80, 0
2, 38854, Note_on_c, 0, 76, 80
2, 38892, Note_on_c, 0, 76, 0
2, 38898, Note_on_c, 0, 79, 80
2, 38940, Note_on_c, 0, 79, 0
2, 38986, Note_on_c, 0, 77, 80
2, 39026, Note_on_c, 0, 77, 0
2, 39026, Note_on_c, 0, 74, 80
2, 39047, Note_on_c, 0, 68, 0
2, 39052, Note_on_c, 0, 74, 0
2, 39067, Note_on_c, 0, 68, 80
2, 39067, Note_on_c, 0, 77, 80
2, 39089, Note_on_c, 0, 74, 80
2, 39096, Note_on_c, 0, 62, 0
2, 39102, Note_on_c, 0, 77, 0
2, 39119, Note_on_c, 0, 72, 80
2, 39128, Note_on_c, 0, 68, 0
2, 39130, Note_on_c, 0, 65, 0
2, 39130, Note_on_c, 0, 74, 0
2, 39132, Note_on_c, 0, 58, 0
2, 39134, Control_c, 0, 64, 127
2, 39150, Note_on_c, 0, 70, 80
2, 39158, Note_on_c, 0, 72, 0
2, 39224, Note_on_c, 0, 80, 80
2, 39228, Note_on_c, 0, 74, 80
2, 39228, Note_on_c, 0, 77, 80
2, 39228, Note_on_c, 0, 82, 80
2, 39258, Note_on_c, 0, 80, 0
2, 39260, Note_on_c, 0, 82, 0
2, 39260, Note_on_c, 0, 74, 0
2, 39262, Note_on_c, 0, 77, 0
2, 39262, Control_c, 0, 64, 0
2, 39262, Note_on_c, 0, 46, 80
2, 39264, Note_on_c, 0, 70, 0
2, 39267, Note_on_c, 0, 58, 80
2, 39336, Note_on_c, 0, 74, 80
2, 39339, Note_on_c, 0, 70, 80
2, 39339, Note_on_c, 0, 80, 80
2, 39339, Note_on_c, 0, 82, 80
2, 39343, Note_on_c, 0, 77, 80
2, 39347, Note_on_c, 0, 46, 0
2, 39349, Note_on_c, 0, 58, 0
2, 39371, Note_on_c, 0, 48, 80
2, 39377, Note_on_c, 0, 60, 80
2, 39386, Note_on_c, 0, 74, 0
2, 39388, Note_on_c, 0, 77, 0
2, 39392, Note_on_c, 0, 70, 0
2, 39392, Note_on_c, 0, 82, 0
2, 39396, Note_on_c, 0, 80, 0
2, 39454, Note_on_c, 0, 74, 80
2, 39457, Note_on_c, 0, 70, 80
2, 39457, Note_on_c, 0, 80, 80
2, 39457, Note_on_c, 0, 82, 80
2, 39461, Note_on_c, 0, 48, 0
2, 39469, Note_on_c, 0, 60, 0
2, 39477, Note_on_c, 0, 74, 0
2, 39482, Note_on_c, 0, 80, 0
2, 39492, Note_on_c, 0, 50, 80
2, 39496, Note_on_c, 0, 62, 80
2, 39498, Note_on_c, 0, 82, 0
2, 39500, Note_on_c, 0, 70, 0
2, 39502, Note_on_c, 0, 72, 80
2, 39502, Note_on_c, 0, 74, 80
2, 39502, Note_on_c, 0, 80, 80
2, 39505, Note_on_c, 0, 77, 80
2, 39552, Note_on_c, 0, 80, 0
2, 39555, Note_on_c, 0, 74, 0
2, 39557, Note_on_c, 0, 72, 0
2, 39559, Note_on_c, 0, 77, 0
2, 39583, Note_on_c, 0, 50, 0
2, 39587, Note_on_c, 0, 62, 0
2, 39601, Control_c, 0, 64, 127
2, 39618, Note_on_c, 0, 51, 80
2, 39620, Note_on_c, 0, 63, 80
2, 39624, Note_on_c, 0, 70, 80
2, 39662, Note_on_c, 0, 70, 0
2, 39698, Note_on_c, 0, 70, 80
2, 39698, Note_on_c, 0, 75, 80
2, 39711, Note_on_c, 0, 63, 0
2, 39737, Note_on_c, 0, 70, 0
2, 39741, Note_on_c, 0, 75, 0
2, 39741, Control_c, 0, 64, 0
2, 39743, Note_on_c, 0, 66, 80
2, 39783, Note_on_c, 0, 66, 0
2, 39807, Note_on_c, 0, 63, 80
2, 39809, Note_on_c, 0, 67, 80
2, 39811, Note_on_c, 0, 58, 80
2, 39907, Note_on_c, 0, 67, 0
2, 39909, Note_on_c, 0, 58, 0
2, 39911, Note_on_c, 0, 63, 0
2, 39912, Note_on_c, 0, 51, 0
2, 39935, Note_on_c, 0, 51, 80
2, 39936, Note_on_c, 0, 63, 80
2, 39938, Note_on_c, 0, 70, 80
2, 39938, Note_on_c, 0, 75, 80
2, 39942, Note_on_c, 0, 79, 80
2, 39976, Note_on_c, 0, 63, 0
2, 39976, Note_on_c, 0, 51, 0
2, 39976, Note_on_c, 0, 50, 80
2, 39978, Note_on_c, 0, 62, 80
2, 40022, Note_on_c, 0, 62, 0
2, 40022, Note_on_c, 0, 50, 0
2, 40050, Note_on_c, 0, 48, 80
2, 40052, Note_on_c, 0, 60, 80
2, 40066, Note_on_c, 0, 79, 0
2, 40066, Note_on_c, 0, 75, 0
2, 40066, Note_on_c, 0, 70, 0
2, 40092, Note_on_c, 0, 48, 0
2, 40102, Note_on_c, 0, 60, 0
2, 40102, Note_on_c, 0, 59, 80
2, 40104, Note_on_c, 0, 47, 80
2, 40135, Control_c, 0, 64, 127
2, 40183, Note_on_c, 0, 74, 80
2, 40185, Note_on_c, 0, 71, 80
2, 40191, Note_on_c, 0, 77, 80
2, 40200, Note_on_c, 0, 59, 0
2, 40221, Note_on_c, 0, 74, 0
2, 40224, Note_on_c, 0, 77, 0
2, 40228, Note_on_c, 0, 71, 0
2, 40230, Note_on_c, 0, 66, 80
2, 40269, Note_on_c, 0, 66, 0
2, 40269, Control_c, 0, 64, 0
2, 40278, Note_on_c, 0, 55, 80
2, 40278, Note_on_c, 0, 62, 80
2, 40282, Note_on_c, 0, 65, 80
2, 40284, Note_on_c, 0, 59, 80
2, 40288, Note_on_c, 0, 67, 80
2, 40374, Note_on_c, 0, 47, 0
2, 40380, Note_on_c, 0, 55, 0
2, 40382, Note_on_c, 0, 59, 0
2, 40382, Note_on_c, 0, 67, 0
2, 40384, Note_on_c, 0, 62, 0
2, 40386, Note_on_c, 0, 65, 0
2, 40422, Note_on_c, 0, 71, 80
2, 40424, Note_on_c, 0, 74, 80
2, 40424, Note_on_c, 0, 77, 80
2, 40464, Note_on_c, 0, 74, 0
2, 40464, Note_on_c, 0, 57, 80
2, 40468, Note_on_c, 0, 77, 0
2, 40468, Note_on_c, 0, 71, 0
2, 40468, Note_on_c, 0, 45, 80
2, 40474, Note_on_c, 0, 66, 80
2, 40511, Note_on_c, 0, 66, 0
2, 40553, Note_on_c, 0, 45, 0
2, 40557, Note_on_c, 0, 67, 80
2, 40566, Note_on_c, 0, 57, 0
2, 40581, Control_c, 0, 64, 127
2, 40595, Note_on_c, 0, 46, 80
2, 40601, Note_on_c, 0, 58, 80
2, 40639, Note_on_c, 0, 67, 0
2, 40687, Note_on_c, 0, 73, 80
2, 40691, Note_on_c, 0, 77, 80
2, 40725, Note_on_c, 0, 73, 0
2, 40727, Note_on_c, 0, 77, 0
2, 40732, Note_on_c, 0, 72, 80
2, 40736, Note_on_c, 0, 75, 80
2, 40742, Note_on_c, 0, 58, 0
2, 40760, Control_c, 0, 64, 0
2, 40775, Note_on_c, 0, 75, 0
2, 40778, Note_on_c, 0, 72, 0
2, 40793, Note_on_c, 0, 51, 80
2, 40793, Note_on_c, 0, 55, 80
2, 40795, Note_on_c, 0, 61, 80
2, 40799, Note_on_c, 0, 58, 80
2, 40800, Note_on_c, 0, 67, 80
2, 40893, Note_on_c, 0, 58, 0
2, 40893, Note_on_c, 0, 61, 0
2, 40895, Note_on_c, 0, 46, 0
2, 40895, Note_on_c, 0, 67, 0
2, 40896, Note_on_c, 0, 55, 0
2, 40900, Note_on_c, 0, 51, 0
2, 40924, Note_on_c, 0, 53, 80
2, 40930, Note_on_c, 0, 45, 80
2, 40930, Note_on_c, 0, 73, 80
2, 40934, Note_on_c, 0, 77, 80
2, 40968, Note_on_c, 0, 73, 0
2, 40971, Note_on_c, 0, 77, 0
2, 40971, Note_on_c, 0, 72, 80
2, 40971, Note_on_c, 0, 75, 80
2, 41008, Note_on_c, 0, 45, 0
2, 41017, Note_on_c, 0, 72, 0
2, 41027, Note_on_c, 0, 75, 0
2, 41031, Note_on_c, 0, 53, 0
2, 41040, Note_on_c, 0, 45, 80
2, 41044, Note_on_c, 0, 54, 80
2, 41059, Control_c, 0, 64, 127
2, 41068, Note_on_c, 0, 45, 0
2, 41087, Note_on_c, 0, 54, 0
2, 41088, Note_on_c, 0, 46, 80
2, 41088, Note_on_c, 0, 55, 80
2, 41175, Note_on_c, 0, 73, 80
2, 41184, Note_on_c, 0, 77, 80
2, 41210, Control_c, 0, 64, 0
2, 41220, Note_on_c, 0, 73, 0
2, 41224, Note_on_c, 0, 77, 0
2, 41226, Note_on_c, 0, 72, 80
2, 41226, Note_on_c, 0, 75, 80
2, 41235, Note_on_c, 0, 55, 0
2, 41269, Note_on_c, 0, 75, 0
2, 41269, Note_on_c, 0, 72, 0
2, 41281, Note_on_c, 0, 51, 80
2, 41285, Note_on_c, 0, 55, 80
2, 41287, Note_on_c, 0, 61, 80
2, 41291, Note_on_c, 0, 58, 80
2, 41293, Note_on_c, 0, 67, 80
2, 41387, Note_on_c, 0, 67, 0
2, 41403, Note_on_c, 0, 46, 0
2, 41405, Note_on_c, 0, 61, 0
2, 41405, Note_on_c, 0, 58, 0
2, 41407, Note_on_c, 0, 55, 0
2, 41409, Note_on_c, 0, 51, 0
2, 41439, Note_on_c, 0, 73, 80
2, 41443, Note_on_c, 0, 77, 80
2, 41479, Note_on_c, 0, 55, 80
2, 41481, Note_on_c, 0, 77, 0
2, 41481, Note_on_c, 0, 73, 0
2, 41483, Note_on_c, 0, 39, 80
2, 41483, Note_on_c, 0, 46, 80
2, 41483, Note_on_c, 0, 72, 80
2, 41483, Note_on_c, 0, 75, 80
2, 41527, Note_on_c, 0, 75, 0
2, 41531, Note_on_c, 0, 72, 0
2, 41544, Note_on_c, 0, 46, 0
2, 41545, Note_on_c, 0, 39, 0
2, 41564, Note_on_c, 0, 65, 80
2, 41578, Note_on_c, 0, 55, 0
2, 41610, Control_c, 0, 64, 127
2, 41610, Note_on_c, 0, 56, 80
2, 41612, Note_on_c, 0, 44, 80
2, 41626, Note_on_c, 0, 65, 0
2, 41692, Note_on_c, 0, 73, 80
2, 41700, Note_on_c, 0, 77, 80
2, 41734, Note_on_c, 0, 73, 0
2, 41736, Note_on_c, 0, 75, 80
2, 41737, Note_on_c, 0, 77, 0
2, 41747, Note_on_c, 0, 56, 0
2, 41749, Control_c, 0, 64, 0
2, 41759, Note_on_c, 0, 75, 0
2, 41786, Note_on_c, 0, 56, 80
2, 41790, Note_on_c, 0, 51, 80
2, 41790, Note_on_c, 0, 60, 80
2, 41796, Note_on_c, 0, 68, 80
2, 41796, Note_on_c, 0, 72, 80
2, 41796, Note_on_c, 0, 75, 80
2, 41894, Note_on_c, 0, 44, 0
2, 41900, Note_on_c, 0, 60, 0
2, 41902, Note_on_c, 0, 51, 0
2, 41902, Note_on_c, 0, 72, 0
2, 41902, Note_on_c, 0, 75, 0
2, 41904, Note_on_c, 0, 56, 0
2, 41905, Note_on_c, 0, 68, 0
2, 41950, Note_on_c, 0, 73, 80
2, 41950, Note_on_c, 0, 77, 80
2, 41988, Note_on_c, 0, 39, 80
2, 41992, Note_on_c, 0, 77, 0
2, 41992, Note_on_c, 0, 73, 0
2, 41992, Note_on_c, 0, 51, 80
2, 41994, Note_on_c, 0, 72, 80
2, 41998, Note_on_c, 0, 75, 80
2, 42038, Note_on_c, 0, 75, 0
2, 42044, Note_on_c, 0, 72, 0
2, 42066, Note_on_c, 0, 39, 0
2, 42070, Note_on_c, 0, 68, 80
2, 42070, Note_on_c, 0, 72, 80
2, 42088, Note_on_c, 0, 51, 0
2, 42120, Control_c, 0, 64, 127
2, 42164, Note_on_c, 0, 72, 0
2, 42168, Note_on_c, 0, 68, 0
2, 42193, Note_on_c, 0, 63, 80
2, 42195, Note_on_c, 0, 36, 80
2, 42199, Note_on_c, 0, 75, 80
2, 42203, Note_on_c, 0, 69, 80
2, 42235, Note_on_c, 0, 36, 0
2, 42239, Note_on_c, 0, 75, 0
2, 42240, Note_on_c, 0, 69, 0
2, 42242, Note_on_c, 0, 39, 80
2, 42246, Note_on_c, 0, 72, 80
2, 42256, Control_c, 0, 64, 0
2, 42300, Note_on_c, 0, 42, 80
2, 42302, Note_on_c, 0, 72, 0
2, 42302, Note_on_c, 0, 39, 0
2, 42304, Note_on_c, 0, 69, 80
2, 42306, Note_on_c, 0, 63, 0
2, 42361, Note_on_c, 0, 69, 0
2, 42361, Note_on_c, 0, 42, 0
2, 42367, Note_on_c, 0, 45, 80
2, 42367, Note_on_c, 0, 66, 80
2, 42419, Note_on_c, 0, 45, 0
2, 42423, Note_on_c, 0, 66, 0
2, 42425, Note_on_c, 0, 48, 80
2, 42427, Note_on_c, 0, 63, 80
2, 42431, Note_on_c, 0, 72, 80
2, 42479, Note_on_c, 0, 48, 0
2, 42484, Note_on_c, 0, 72, 0
2, 42488, Note_on_c, 0, 63, 0
2, 42488, Note_on_c, 0, 51, 80
2, 42492, Note_on_c, 0, 65, 80
2, 42552, Note_on_c, 0, 51, 0
2, 42554, Note_on_c, 0, 54, 80
2, 42556, Note_on_c, 0, 65, 0
2, 42556, Note_on_c, 0, 66, 80
2, 42606, Control_c, 0, 64, 127
2, 42610, Note_on_c, 0, 54, 0
2, 42612, Note_on_c, 0, 66, 0
2, 42612, Note_on_c, 0, 55, 80
2, 42618, Note_on_c, 0, 67, 80
2, 42656, Note_on_c, 0, 67, 0
2, 42693, Note_on_c, 0, 67, 80
2, 42695, Note_on_c, 0, 70, 80
2, 42717, Note_on_c, 0, 67, 0
2, 42733, Control_c, 0, 64, 0
2, 42735, Note_on_c, 0, 70, 0
2, 42739, Note_on_c, 0, 67, 80
2, 42739, Note_on_c, 0, 72, 80
2, 42772, Note_on_c, 0, 72, 0
2, 42772, Note_on_c, 0, 67, 0
2, 42804, Note_on_c, 0, 63, 80
2, 42812, Note_on_c, 0, 66, 80
2, 42814, Note_on_c, 0, 58, 80
2, 42856, Note_on_c, 0, 66, 0
2, 42860, Note_on_c, 0, 70, 80
2, 42864, Note_on_c, 0, 67, 80
2, 42895, Note_on_c, 0, 67, 0
2, 42897, Note_on_c, 0, 70, 0
2, 42899, Note_on_c, 0, 58, 0
2, 42899, Note_on_c, 0, 55, 0
2, 42901, Note_on_c, 0, 63, 0
2, 42929, Note_on_c, 0, 70, 80
2, 42931, Note_on_c, 0, 62, 80
2, 42933, Note_on_c, 0, 67, 80
2, 42933, Note_on_c, 0, 74, 80
2, 42969, Note_on_c, 0, 34, 80
2, 42973, Note_on_c, 0, 41, 80
2, 42975, Note_on_c, 0, 46, 80
2, 43041, Note_on_c, 0, 34, 0
2, 43043, Note_on_c, 0, 46, 0
2, 43045, Note_on_c, 0, 41, 0
2, 43067, Note_on_c, 0, 62, 0
2, 43067, Note_on_c, 0, 74, 0
2, 43069, Note_on_c, 0, 67, 0
2, 43069, Note_on_c, 0, 70, 0
2, 43099, Note_on_c, 0, 43, 80
2, 43099, Note_on_c, 0, 51, 80
2, 43103, Note_on_c, 0, 39, 80
2, 43103, Note_on_c, 0, 46, 80
2, 43106, Control_c, 0, 64, 127
2, 43110, Note_on_c, 0, 70, 80
2, 43149, Note_on_c, 0, 70, 0
2, 43154, Note_on_c, 0, 67, 80
2, 43169, Note_on_c, 0, 68, 80
2, 43187, Note_on_c, 0, 69, 80
2, 43193, Note_on_c, 0, 67, 0
2, 43197, Note_on_c, 0, 70, 80
2, 43213, Note_on_c, 0, 71, 80
2, 43223, Note_on_c, 0, 69, 0
2, 43224, Note_on_c, 0, 68, 0
2, 43228, Note_on_c, 0, 72, 80
2, 43230, Control_c, 0, 64, 0
2, 43247, Note_on_c, 0, 70, 0
2, 43254, Note_on_c, 0, 71, 0
2, 43264, Note_on_c, 0, 72, 0
2, 43273, Note_on_c, 0, 63, 80
2, 43275, Note_on_c, 0, 66, 80
2, 43277, Note_on_c, 0, 58, 80
2, 43279, Note_on_c, 0, 43, 0
2, 43283, Note_on_c, 0, 46, 0
2, 43283, Note_on_c, 0, 39, 0
2, 43289, Note_on_c, 0, 51, 0
2, 43322, Note_on_c, 0, 66, 0
2, 43332, Note_on_c, 0, 67, 80
2, 43368, Note_on_c, 0, 67, 0
2, 43368, Note_on_c, 0, 58, 0
2, 43374, Note_on_c, 0, 63, 0
2, 43404, Note_on_c, 0, 70, 80
2, 43406, Note_on_c, 0, 60, 80
2, 43410, Note_on_c, 0, 67, 80
2, 43448, Note_on_c, 0, 67, 0
2, 43448, Note_on_c, 0, 42, 80
2, 43450, Note_on_c, 0, 60, 0
2, 43450, Note_on_c, 0, 54, 80
2, 43450, Note_on_c, 0, 69, 80
2, 43452, Note_on_c, 0, 70, 0
2, 43454, Note_on_c, 0, 74, 80
2, 43490, Note_on_c, 0, 42, 0
2, 43494, Note_on_c, 0, 74, 0
2, 43512, Note_on_c, 0, 72, 80
2, 43553, Note_on_c, 0, 54, 0
2, 43567, Note_on_c, 0, 53, 80
2, 43569, Note_on_c, 0, 72, 0
2, 43571, Note_on_c, 0, 41, 80
2, 43573, Note_on_c, 0, 69, 0
2, 43575, Control_c, 0, 64, 127
2, 43653, Note_on_c, 0, 70, 80
2, 43656, Note_on_c, 0, 74, 80
2, 43688, Note_on_c, 0, 53, 0
2, 43694, Note_on_c, 0, 74, 0
2, 43700, Note_on_c, 0, 70, 0
2, 43702, Note_on_c, 0, 69, 80
2, 43702, Note_on_c, 0, 72, 80
2, 43705, Control_c, 0, 64, 0
2, 43742, Note_on_c, 0, 72, 0
2, 43750, Note_on_c, 0, 69, 0
2, 43757, Note_on_c, 0, 53, 80
2, 43761, Note_on_c, 0, 62, 80
2, 43765, Note_on_c, 0, 58, 80
2, 43853, Note_on_c, 0, 41, 0
2, 43859, Note_on_c, 0, 53, 0
2, 43863, Note_on_c, 0, 62, 0
2, 43863, Note_on_c, 0, 58, 0
2, 43893, Note_on_c, 0, 68, 80
2, 43893, Note_on_c, 0, 72, 80
2, 43926, Note_on_c, 0, 72, 0
2, 43930, Note_on_c, 0, 68, 0
2, 43932, Note_on_c, 0, 67, 80
2, 43934, Note_on_c, 0, 70, 80
2, 43970, Note_on_c, 0, 70, 0
2, 43970, Note_on_c, 0, 67, 0
2, 43970, Note_on_c, 0, 45, 80
2, 44000, Note_on_c, 0, 46, 80
2, 44000, Note_on_c, 0, 62, 80
2, 44028, Control_c, 0, 64, 127
2, 44028, Note_on_c, 0, 47, 80
2, 44036, Note_on_c, 0, 45, 0
2, 44038, Note_on_c, 0, 48, 80
2, 44050, Note_on_c, 0, 46, 0
2, 44054, Note_on_c, 0, 62, 0
2, 44066, Note_on_c, 0, 47, 0
2, 44131, Note_on_c, 0, 67, 80
2, 44169, Note_on_c, 0, 67, 0
2, 44171, Note_on_c, 0, 63, 80
2, 44173, Control_c, 0, 64, 0
2, 44173, Note_on_c, 0, 57, 80
2, 44175, Note_on_c, 0, 66, 80
2, 44219, Note_on_c, 0, 66, 0
2, 44223, Note_on_c, 0, 63, 0
2, 44225, Note_on_c, 0, 57, 0
2, 44261, Note_on_c, 0, 67, 80
2, 44274, Note_on_c, 0, 48, 0
2, 44298, Note_on_c, 0, 67, 0
2, 44298, Note_on_c, 0, 47, 80
2, 44298, Note_on_c, 0, 55, 80
2, 44298, Note_on_c, 0, 63, 80
2, 44334, Note_on_c, 0, 65, 80
2, 44349, Note_on_c, 0, 55, 0
2, 44352, Note_on_c, 0, 63, 0
2, 44378, Note_on_c, 0, 63, 80
2, 44384, Note_on_c, 0, 65, 0
2, 44404, Note_on_c, 0, 47, 0
2, 44423, Note_on_c, 0, 62, 80
2, 44423, Note_on_c, 0, 65, 80
2, 44424, Note_on_c, 0, 46, 80
2, 44424, Note_on_c, 0, 56, 80
2, 44428, Note_on_c, 0, 63, 0
2, 44469, Note_on_c, 0, 62, 0
2, 44469, Note_on_c, 0, 56, 0
2, 44471, Note_on_c, 0, 65, 0
2, 44495, Note_on_c, 0, 55, 80
2, 44495, Note_on_c, 0, 63, 80
2, 44507, Note_on_c, 0, 46, 0
2, 44525, Control_c, 0, 64, 127
2, 44538, Note_on_c, 0, 39, 80
2, 44540, Note_on_c, 0, 51, 80
2, 44544, Note_on_c, 0, 46, 80
2, 44592, Note_on_c, 0, 46, 0
2, 44593, Note_on_c, 0, 39, 0
2, 44595, Note_on_c, 0, 51, 0
2, 44597, Note_on_c, 0, 63, 0
2, 44599, Note_on_c, 0, 55, 0
2, 44609, Note_on_c, 0, 70, 80
2, 44616, Note_on_c, 0, 82, 80
2, 44653, Note_on_c, 0, 82, 0
2, 44655, Note_on_c, 0, 70, 0
2, 44655, Control_c, 0, 64, 0
2, 44661, Note_on_c, 0, 69, 80
2, 44664, Note_on_c, 0, 81, 80
2, 44712, Note_on_c, 0, 69, 0
2, 44712, Note_on_c, 0, 63, 80
2, 44712, Note_on_c, 0, 70, 80
2, 44716, Note_on_c, 0, 81, 0
2, 44716, Note_on_c, 0, 58, 80
2, 44718, Note_on_c, 0, 67, 80
2, 44722, Note_on_c, 0, 82, 80
2, 44768, Note_on_c, 0, 82, 0
2, 44768, Note_on_c, 0, 70, 0
2, 44776, Note_on_c, 0, 72, 80
2, 44778, Note_on_c, 0, 79, 80
2, 44778, Note_on_c, 0, 84, 80
2, 44833, Note_on_c, 0, 79, 0
2, 44833, Note_on_c, 0, 72, 0
2, 44833, Note_on_c, 0, 63, 0
2, 44833, Note_on_c, 0, 67, 0
2, 44835, Note_on_c, 0, 58, 0
2, 44837, Note_on_c, 0, 84, 0
2, 44839, Note_on_c, 0, 71, 80
2, 44843, Note_on_c, 0, 83, 80
2, 44897, Note_on_c, 0, 71, 0
2, 44901, Note_on_c, 0, 45, 80
2, 44903, Note_on_c, 0, 83, 0
2, 44903, Note_on_c, 0, 54, 80
2, 44903, Note_on_c, 0, 72, 80
2, 44906, Note_on_c, 0, 84, 80
2, 44960, Note_on_c, 0, 84, 0
2, 44960, Note_on_c, 0, 72, 0
2, 44962, Note_on_c, 0, 73, 80
2, 44964, Note_on_c, 0, 85, 80
2, 45000, Note_on_c, 0, 45, 0
2, 45002, Note_on_c, 0, 54, 0
2, 45012, Note_on_c, 0, 85, 0
2, 45014, Note_on_c, 0, 73, 0
2, 45014, Note_on_c, 0, 53, 80
2, 45016, Control_c, 0, 64, 127
2, 45018, Note_on_c, 0, 44, 80
2, 45018, Note_on_c, 0, 74, 80
2, 45025, Note_on_c, 0, 86, 80
2, 45059, Note_on_c, 0, 74, 0
2, 45063, Note_on_c, 0, 86, 0
2, 45096, Note_on_c, 0, 70, 80
2, 45098, Note_on_c, 0, 82, 80
2, 45135, Note_on_c, 0, 70, 0
2, 45139, Note_on_c, 0, 82, 0
2, 45139, Note_on_c, 0, 69, 80
2, 45141, Note_on_c, 0, 81, 80
2, 45150, Control_c, 0, 64, 0
2, 45194, Note_on_c, 0, 62, 80
2, 45198, Note_on_c, 0, 69, 0
2, 45198, Note_on_c, 0, 65, 80
2, 45202, Note_on_c, 0, 81, 0
2, 45202, Note_on_c, 0, 56, 80
2, 45204, Note_on_c, 0, 70, 80
2, 45206, Note_on_c, 0, 58, 80
2, 45206, Note_on_c, 0, 82, 80
2, 45258, Note_on_c, 0, 70, 0
2, 45260, Note_on_c, 0, 82, 0
2, 45260, Note_on_c, 0, 72, 80
2, 45276, Note_on_c, 0, 84, 80
2, 45312, Note_on_c, 0, 44, 0
2, 45318, Note_on_c, 0, 84, 0
2, 45318, Note_on_c, 0, 62, 0
2, 45320, Note_on_c, 0, 53, 0
2, 45322, Note_on_c, 0, 72, 0
2, 45324, Note_on_c, 0, 58, 0
2, 45324, Note_on_c, 0, 65, 0
2, 45324, Note_on_c, 0, 74, 80
2, 45328, Note_on_c, 0, 56, 0
2, 45328, Note_on_c, 0, 86, 80
2, 45380, Note_on_c, 0, 46, 80
2, 45382, Note_on_c, 0, 74, 0
2, 45382, Note_on_c, 0, 56, 80
2, 45384, Note_on_c, 0, 86, 0
2, 45385, Note_on_c, 0, 87, 80
2, 45387, Note_on_c, 0, 75, 80
2, 45428, Note_on_c, 0, 46, 0
2, 45448, Note_on_c, 0, 75, 0
2, 45448, Note_on_c, 0, 87, 0
2, 45452, Note_on_c, 0, 89, 80
2, 45459, Note_on_c, 0, 77, 80
2, 45491, Note_on_c, 0, 56, 0
2, 45509, Note_on_c, 0, 46, 80
2, 45509, Note_on_c, 0, 55, 80
2, 45513, Control_c, 0, 64, 127
2, 45523, Note_on_c, 0, 77, 0
2, 45527, Note_on_c, 0, 89, 0
2, 45593, Note_on_c, 0, 91, 80
2, 45597, Note_on_c, 0, 87, 80
2, 45600, Note_on_c, 0, 82, 80
2, 45630, Note_on_c, 0, 82, 0
2, 45630, Note_on_c, 0, 91, 0
2, 45630, Note_on_c, 0, 87, 0
2, 45643, Note_on_c, 0, 78, 80
2, 45648, Control_c, 0, 64, 0
2, 45685, Note_on_c, 0, 78, 0
2, 45691, Note_on_c, 0, 63, 80
2, 45698, Note_on_c, 0, 58, 80
2, 45700, Note_on_c, 0, 67, 80
2, 45700, Note_on_c, 0, 79, 80
2, 45798, Note_on_c, 0, 46, 0
2, 45800, Note_on_c, 0, 58, 0
2, 45802, Note_on_c, 0, 67, 0
2, 45802, Note_on_c, 0, 55, 0
2, 45806, Note_on_c, 0, 63, 0
2, 45816, Note_on_c, 0, 79, 0
2, 45838, Note_on_c, 0, 87, 80
2, 45838, Note_on_c, 0, 91, 80
2, 45843, Note_on_c, 0, 82, 80
2, 45877, Note_on_c, 0, 48, 80
2, 45877, Note_on_c, 0, 57, 80
2, 45879, Note_on_c, 0, 91, 0
2, 45881, Note_on_c, 0, 87, 0
2, 45881, Note_on_c, 0, 82, 0
2, 45887, Note_on_c, 0, 79, 80
2, 45918, Note_on_c, 0, 48, 0
2, 45931, Note_on_c, 0, 57, 0
2, 45959, Note_on_c, 0, 79, 0
2, 45966, Note_on_c, 0, 49, 80
2, 45966, Note_on_c, 0, 58, 80
2, 46003, Control_c, 0, 64, 127
2, 46008, Note_on_c, 0, 49, 0
2, 46014, Note_on_c, 0, 58, 0
2, 46014, Note_on_c, 0, 50, 80
2, 46020, Note_on_c, 0, 59, 80
2, 46098, Note_on_c, 0, 83, 80
2, 46098, Note_on_c, 0, 89, 80
2, 46102, Note_on_c, 0, 86, 80
2, 46138, Control_c, 0, 64, 0
2, 46142, Note_on_c, 0, 86, 0
2, 46144, Note_on_c, 0, 78, 80
2, 46146, Note_on_c, 0, 89, 0
2, 46150, Note_on_c, 0, 83, 0
2, 46166, Note_on_c, 0, 59, 0
2, 46180, Note_on_c, 0, 78, 0
2, 46197, Note_on_c, 0, 55, 80
2, 46199, Note_on_c, 0, 65, 80
2, 46202, Note_on_c, 0, 59, 80
2, 46202, Note_on_c, 0, 62, 80
2, 46208, Note_on_c, 0, 79, 80
2, 46300, Note_on_c, 0, 55, 0
2, 46300, Note_on_c, 0, 50, 0
2, 46304, Note_on_c, 0, 62, 0
2, 46306, Note_on_c, 0, 59, 0
2, 46306, Note_on_c, 0, 79, 0
2, 46306, Note_on_c, 0, 65, 0
2, 46340, Note_on_c, 0, 89, 80
2, 46344, Note_on_c, 0, 83, 80
2, 46349, Note_on_c, 0, 86, 80
2, 46379, Note_on_c, 0, 43, 80
2, 46383, Note_on_c, 0, 50, 80
2, 46383, Note_on_c, 0, 55, 80
2, 46385, Note_on_c, 0, 89, 0
2, 46387, Note_on_c, 0, 86, 0
2, 46392, Note_on_c, 0, 83, 0
2, 46392, Note_on_c, 0, 78, 80
2, 46439, Note_on_c, 0, 78, 0
2, 46479, Note_on_c, 0, 43, 0
2, 46483, Note_on_c, 0, 79, 80
2, 46487, Note_on_c, 0, 55, 0
2, 46487, Note_on_c, 0, 50, 0
2, 46490, Control_c, 0, 64, 127
2, 46520, Note_on_c, 0, 48, 80
2, 46524, Note_on_c, 0, 60, 80
2, 46586, Note_on_c, 0, 79, 0
2, 46610, Note_on_c, 0, 89, 80
2, 46618, Note_on_c, 0, 84, 80
2, 46640, Control_c, 0, 64, 0
2, 46720, Note_on_c, 0, 63, 80
2, 46722, Note_on_c, 0, 55, 80
2, 46724, Note_on_c, 0, 84, 0
2, 46724, Note_on_c, 0, 89, 0
2, 46729, Note_on_c, 0, 79, 80
2, 46822, Note_on_c, 0, 48, 0
2, 46827, Note_on_c, 0, 55, 0
2, 46829, Note_on_c, 0, 60, 0
2, 46829, Note_on_c, 0, 63, 0
2, 46839, Note_on_c, 0, 79, 0
2, 46855, Note_on_c, 0, 89, 80
2, 46863, Note_on_c, 0, 85, 80
2, 46896, Note_on_c, 0, 85, 0
2, 46902, Note_on_c, 0, 47, 80
2, 46906, Note_on_c, 0, 84, 80
2, 46906, Note_on_c, 0, 87, 80
2, 46908, Note_on_c, 0, 89, 0
2, 46908, Note_on_c, 0, 59, 80
2, 46960, Note_on_c, 0, 84, 0
2, 46962, Note_on_c, 0, 87, 0
2, 46984, Note_on_c, 0, 47, 0
2, 46984, Note_on_c, 0, 79, 80
2, 46990, Note_on_c, 0, 59, 0
2, 47008, Control_c, 0, 64, 127
2, 47024, Note_on_c, 0, 46, 80
2, 47026, Note_on_c, 0, 58, 80
2, 47082, Note_on_c, 0, 79, 0
2, 47106, Note_on_c, 0, 89, 80
2, 47110, Note_on_c, 0, 85, 80
2, 47136, Note_on_c, 0, 58, 0
2, 47148, Note_on_c, 0, 85, 0
2, 47148, Control_c, 0, 64, 0
2, 47154, Note_on_c, 0, 89, 0
2, 47156, Note_on_c, 0, 87, 80
2, 47160, Note_on_c, 0, 84, 80
2, 47217, Note_on_c, 0, 51, 80
2, 47219, Note_on_c, 0, 84, 0
2, 47219, Note_on_c, 0, 55, 80
2, 47221, Note_on_c, 0, 61, 80
2, 47225, Note_on_c, 0, 58, 80
2, 47227, Note_on_c, 0, 79, 80
2, 47229, Note_on_c, 0, 87, 0
2, 47325, Note_on_c, 0, 61, 0
2, 47325, Note_on_c, 0, 46, 0
2, 47328, Note_on_c, 0, 51, 0
2, 47328, Note_on_c, 0, 55, 0
2, 47328, Note_on_c, 0, 58, 0
2, 47354, Note_on_c, 0, 79, 0
2, 47362, Note_on_c, 0, 89, 80
2, 47364, Note_on_c, 0, 85, 80
2, 47404, Note_on_c, 0, 85, 0
2, 47406, Note_on_c, 0, 39, 80
2, 47406, Note_on_c, 0, 51, 80
2, 47408, Note_on_c, 0, 89, 0
2, 47410, Note_on_c, 0, 87, 80
2, 47414, Note_on_c, 0, 84, 80
2, 47464, Note_on_c, 0, 84, 0
2, 47466, Note_on_c, 0, 87, 0
2, 47490, Note_on_c, 0, 39, 0
2, 47490, Note_on_c, 0, 77, 80
2, 47494, Note_on_c, 0, 51, 0
2, 47525, Note_on_c, 0, 56, 80
2, 47527, Control_c, 0, 64, 127
2, 47529, Note_on_c, 0, 44, 80
2, 47575, Note_on_c, 0, 77, 0
2, 47579, Note_on_c, 0, 84, 80
2, 47589, Note_on_c, 0, 85, 80
2, 47607, Note_on_c, 0, 86, 80
2, 47613, Note_on_c, 0, 84, 0
2, 47622, Note_on_c, 0, 87, 80
2, 47626, Note_on_c, 0, 85, 0
2, 47632, Note_on_c, 0, 88, 80
2, 47646, Note_on_c, 0, 89, 80
2, 47656, Control_c, 0, 64, 0
2, 47664, Note_on_c, 0, 88, 0
2, 47667, Note_on_c, 0, 86, 0
2, 47667, Note_on_c, 0, 87, 0
2, 47673, Note_on_c, 0, 56, 0
2, 47693, Note_on_c, 0, 89, 0
2, 47699, Note_on_c, 0, 51, 80
2, 47699, Note_on_c, 0, 56, 80
2, 47701, Note_on_c, 0, 60, 80
2, 47703, Note_on_c, 0, 75, 80
2, 47801, Note_on_c, 0, 44, 0
2, 47807, Note_on_c, 0, 60, 0
2, 47808, Note_on_c, 0, 75, 0
2, 47810, Note_on_c, 0, 51, 0
2, 47814, Note_on_c, 0, 56, 0
2, 47848, Note_on_c, 0, 87, 80
2, 47850, Note_on_c, 0, 75, 80
2, 47881, Note_on_c, 0, 75, 0
2, 47881, Note_on_c, 0, 87, 0
2, 47885, Note_on_c, 0, 44, 80
2, 47889, Note_on_c, 0, 56, 80
2, 47895, Note_on_c, 0, 77, 80
2, 47931, Note_on_c, 0, 77, 0
2, 47968, Note_on_c, 0, 75, 80
2, 47968, Note_on_c, 0, 78, 80
2, 47968, Note_on_c, 0, 81, 80
2, 47968, Note_on_c, 0, 87, 80
2, 47972, Note_on_c, 0, 44, 0
2, 47977, Note_on_c, 0, 56, 0
2, 47987, Control_c, 0, 64, 127
2, 48045, Note_on_c, 0, 75, 0
2, 48050, Note_on_c, 0, 78, 0
2, 48050, Note_on_c, 0, 87, 0
2, 48054, Note_on_c, 0, 81, 0
2, 48060, Note_on_c, 0, 48, 80
2, 48082, Note_on_c, 0, 75, 80
2, 48082, Note_on_c, 0, 84, 80
2, 48112, Note_on_c, 0, 48, 0
2, 48120, Note_on_c, 0, 51, 80
2, 48121, Note_on_c, 0, 84, 0
2, 48121, Control_c, 0, 64, 0
2, 48123, Note_on_c, 0, 81, 80
2, 48177, Note_on_c, 0, 51, 0
2, 48177, Note_on_c, 0, 75, 0
2, 48179, Note_on_c, 0, 81, 0
2, 48179, Note_on_c, 0, 54, 80
2, 48179, Note_on_c, 0, 78, 80
2, 48235, Note_on_c, 0, 54, 0
2, 48240, Note_on_c, 0, 78, 0
2, 48240, Note_on_c, 0, 57, 80
2, 48242, Note_on_c, 0, 75, 80
2, 48246, Note_on_c, 0, 81, 80
2, 48294, Note_on_c, 0, 75, 0
2, 48300, Note_on_c, 0, 60, 80
2, 48302, Note_on_c, 0, 57, 0
2, 48306, Note_on_c, 0, 81, 0
2, 48310, Note_on_c, 0, 77, 80
2, 48354, Note_on_c, 0, 60, 0
2, 48360, Note_on_c, 0, 63, 80
2, 48365, Note_on_c, 0, 77, 0
2, 48367, Note_on_c, 0, 78, 80
2, 48419, Note_on_c, 0, 63, 0
2, 48419, Note_on_c, 0, 66, 80
2, 48423, Note_on_c, 0, 78, 0
2, 48429, Note_on_c, 0, 79, 80
2, 48443, Control_c, 0, 64, 127
2, 48467, Note_on_c, 0, 79, 0
2, 48471, Note_on_c, 0, 66, 0
2, 48477, Note_on_c, 0, 67, 80
2, 48477, Note_on_c, 0, 82, 80
2, 48517, Note_on_c, 0, 82, 0
2, 48555, Note_on_c, 0, 79, 80
2, 48555, Note_on_c, 0, 82, 80
2, 48574, Note_on_c, 0, 79, 0
2, 48576, Control_c, 0, 64, 0
2, 48598, Note_on_c, 0, 82, 0
2, 48598, Note_on_c, 0, 67, 0
2, 48598, Note_on_c, 0, 84, 80
2, 48600, Note_on_c, 0, 72, 80
2, 48601, Note_on_c, 0, 79, 80
2, 48638, Note_on_c, 0, 79, 0
2, 48638, Note_on_c, 0, 72, 0
2, 48642, Note_on_c, 0, 84, 0
2, 48656, Note_on_c, 0, 63, 80
2, 48662, Note_on_c, 0, 67, 80
2, 48664, Note_on_c, 0, 58, 80
2, 48664, Note_on_c, 0, 78, 80
2, 48706, Note_on_c, 0, 78, 0
2, 48726, Note_on_c, 0, 79, 80
2, 48726, Note_on_c, 0, 82, 80
2, 48760, Note_on_c, 0, 82, 0
2, 48760, Note_on_c, 0, 79, 0
2, 48762, Note_on_c, 0, 58, 0
2, 48764, Note_on_c, 0, 67, 0
2, 48764, Note_on_c, 0, 63, 0
2, 48797, Note_on_c, 0, 74, 80
2, 48797, Note_on_c, 0, 79, 80
2, 48797, Note_on_c, 0, 86, 80
2, 48803, Note_on_c, 0, 82, 80
2, 48833, Note_on_c, 0, 53, 80
2, 48837, Note_on_c, 0, 46, 80
2, 48844, Note_on_c, 0, 58, 80
2, 48916, Control_c, 0, 64, 127
2, 48922, Note_on_c, 0, 46, 0
2, 48932, Note_on_c, 0, 53, 0
2, 48936, Note_on_c, 0, 58, 0
2, 48961, Note_on_c, 0, 55, 80
2, 48965, Note_on_c, 0, 46, 80
2, 48978, Note_on_c, 0, 74, 0
2, 48982, Note_on_c, 0, 82, 0
2, 48982, Note_on_c, 0, 79, 0
2, 48985, Note_on_c, 0, 86, 0
2, 49017, Note_on_c, 0, 79, 80
2, 49037, Note_on_c, 0, 80, 80
2, 49050, Note_on_c, 0, 81, 80
2, 49059, Note_on_c, 0, 82, 80
2, 49065, Note_on_c, 0, 79, 0
2, 49075, Note_on_c, 0, 83, 80
2, 49080, Note_on_c, 0, 80, 0
2, 49084, Control_c, 0, 64, 0
2, 49094, Note_on_c, 0, 84, 80
2, 49098, Note_on_c, 0, 81, 0
2, 49098, Note_on_c, 0, 82, 0
2, 49128, Note_on_c, 0, 84, 0
2, 49131, Note_on_c, 0, 83, 0
2, 49137, Note_on_c, 0, 63, 80
2, 49143, Note_on_c, 0, 78, 80
2, 49145, Note_on_c, 0, 58, 80
2, 49147, Note_on_c, 0, 67, 80
2, 49189, Note_on_c, 0, 78, 0
2, 49205, Note_on_c, 0, 79, 80
2, 49237, Note_on_c, 0, 46, 0
2, 49239, Note_on_c, 0, 67, 0
2, 49239, Note_on_c, 0, 79, 0
2, 49241, Note_on_c, 0, 55, 0
2, 49241, Note_on_c, 0, 63, 0
2, 49259, Note_on_c, 0, 58, 0
2, 49279, Note_on_c, 0, 72, 80
2, 49281, Note_on_c, 0, 79, 80
2, 49283, Note_on_c, 0, 82, 80
2, 49321, Note_on_c, 0, 79, 0
2, 49321, Note_on_c, 0, 72, 0
2, 49321, Note_on_c, 0, 45, 80
2, 49321, Note_on_c, 0, 54, 80
2, 49323, Note_on_c, 0, 82, 0
2, 49327, Note_on_c, 0, 86, 80
2, 49329, Note_on_c, 0, 81, 80
2, 49363, Note_on_c, 0, 86, 0
2, 49399, Note_on_c, 0, 84, 80
2, 49419, Note_on_c, 0, 45, 0
2, 49421, Note_on_c, 0, 54, 0
2, 49440, Note_on_c, 0, 44, 80
2, 49440, Note_on_c, 0, 53, 80
2, 49447, Control_c, 0, 64, 127
2, 49457, Note_on_c, 0, 84, 0
2, 49459, Note_on_c, 0, 81, 0
2, 49525, Note_on_c, 0, 80, 80
2, 49529, Note_on_c, 0, 84, 80
2, 49565, Note_on_c, 0, 80, 0
2, 49567, Note_on_c, 0, 84, 0
2, 49573, Note_on_c, 0, 79, 80
2, 49573, Note_on_c, 0, 82, 80
2, 49579, Control_c, 0, 64, 0
2, 49621, Note_on_c, 0, 56, 80
2, 49621, Note_on_c, 0, 74, 80
2, 49623, Note_on_c, 0, 79, 0
2, 49623, Note_on_c, 0, 65, 80
2, 49625, Note_on_c, 0, 62, 80
2, 49627, Note_on_c, 0, 82, 0
2, 49627, Note_on_c, 0, 58, 80
2, 49715, Note_on_c, 0, 44, 0
2, 49721, Note_on_c, 0, 53, 0
2, 49723, Note_on_c, 0, 56, 0
2, 49725, Note_on_c, 0, 62, 0
2, 49725, Note_on_c, 0, 58, 0
2, 49727, Note_on_c, 0, 74, 0
2, 49727, Note_on_c, 0, 65, 0
2, 49754, Note_on_c, 0, 80, 80
2, 49762, Note_on_c, 0, 84, 80
2, 49790, Note_on_c, 0, 46, 80
2, 49796, Note_on_c, 0, 84, 0
2, 49796, Note_on_c, 0, 80, 0
2, 49796, Note_on_c, 0, 79, 80
2, 49798, Note_on_c, 0, 82, 80
2, 49800, Note_on_c, 0, 58, 80
2, 49836, Note_on_c, 0, 82, 0
2, 49836, Note_on_c, 0, 46, 0
2, 49836, Note_on_c, 0, 79, 0
2, 49852, Note_on_c, 0, 74, 80
2, 49898, Note_on_c, 0, 58, 0
2, 49900, Control_c, 0, 64, 127
2, 49906, Note_on_c, 0, 57, 80
2, 49908, Note_on_c, 0, 48, 80
2, 49910, Note_on_c, 0, 74, 0
2, 50004, Note_on_c, 0, 79, 80
2, 50036, Control_c, 0, 64, 0
2, 50041, Note_on_c, 0, 79, 0
2, 50045, Note_on_c, 0, 69, 80
2, 50045, Note_on_c, 0, 75, 80
2, 50047, Note_on_c, 0, 78, 80
2, 50081, Note_on_c, 0, 48, 0
2, 50085, Note_on_c, 0, 75, 0
2, 50085, Note_on_c, 0, 69, 0
2, 50092, Note_on_c, 0, 78, 0
2, 50094, Note_on_c, 0, 57, 0
2, 50122, Note_on_c, 0, 46, 80
2, 50122, Note_on_c, 0, 50, 80
2, 50122, Note_on_c, 0, 53, 80
2, 50126, Note_on_c, 0, 56, 80
2, 50128, Note_on_c, 0, 79, 80
2, 50164, Note_on_c, 0, 79, 0
2, 50174, Note_on_c, 0, 67, 80
2, 50174, Note_on_c, 0, 75, 80
2, 50210, Note_on_c, 0, 77, 80
2, 50216, Note_on_c, 0, 67, 0
2, 50220, Note_on_c, 0, 75, 0
2, 50226, Note_on_c, 0, 46, 0
2, 50230, Note_on_c, 0, 50, 0
2, 50232, Note_on_c, 0, 53, 0
2, 50235, Note_on_c, 0, 56, 0
2, 50245, Note_on_c, 0, 77, 0
2, 50251, Note_on_c, 0, 75, 80
2, 50287, Note_on_c, 0, 75, 0
2, 50287, Note_on_c, 0, 50, 80
2, 50287, Note_on_c, 0, 53, 80
2, 50291, Note_on_c, 0, 46, 80
2, 50295, Note_on_c, 0, 56, 80
2, 50295, Note_on_c, 0, 74, 80
2, 50301, Note_on_c, 0, 77, 80
2, 50304, Note_on_c, 0, 68, 80
2, 50332, Note_on_c, 0, 74, 0
2, 50336, Note_on_c, 0, 77, 0
2, 50336, Note_on_c, 0, 68, 0
2, 50342, Note_on_c, 0, 46, 0
2, 50352, Note_on_c, 0, 50, 0
2, 50352, Note_on_c, 0, 53, 0
2, 50352, Note_on_c, 0, 56, 0
2, 50374, Note_on_c, 0, 67, 80
2, 50374, Note_on_c, 0, 75, 80
2, 50401, Control_c, 0, 64, 127
2, 50411, Note_on_c, 0, 55, 80
2, 50413, Note_on_c, 0, 46, 80
2, 50413, Note_on_c, 0, 51, 80
2, 50453, Note_on_c, 0, 46, 0
2, 50455, Note_on_c, 0, 75, 0
2, 50455, Note_on_c, 0, 67, 0
2, 50459, Note_on_c, 0, 55, 0
2, 50461, Note_on_c, 0, 51, 0
2, 50505, Control_c, 0, 64, 0
2, 50537, Note_on_c, 0, 70, 80
2, 50543, Note_on_c, 0, 82, 80
2, 50587, Note_on_c, 0, 82, 0
2, 50587, Note_on_c, 0, 70, 0
2, 50611, Note_on_c, 0, 63, 80
2, 50616, Note_on_c, 0, 67, 80
2, 50616, Note_on_c, 0, 70, 80
2, 50616, Note_on_c, 0, 80, 80
2, 50618, Note_on_c, 0, 58, 80
2, 50620, Note_on_c, 0, 82, 80
2, 50674, Note_on_c, 0, 70, 0
2, 50674, Note_on_c, 0, 67, 0
2, 50676, Note_on_c, 0, 58, 0
2, 50680, Note_on_c, 0, 63, 0
2, 50680, Note_on_c, 0, 82, 0
2, 50680, Note_on_c, 0, 80, 0
2, 50750, Note_on_c, 0, 70, 80
2, 50750, Note_on_c, 0, 80, 80
2, 50752, Note_on_c, 0, 82, 80
2, 50788, Note_on_c, 0, 40, 80
2, 50794, Note_on_c, 0, 52, 80
2, 50840, Note_on_c, 0, 70, 0
2, 50844, Note_on_c, 0, 80, 0
2, 50844, Note_on_c, 0, 82, 0
2, 50878, Note_on_c, 0, 79, 80
2, 50881, Note_on_c, 0, 67, 80
2, 50896, Note_on_c, 0, 40, 0
2, 50902, Note_on_c, 0, 52, 0
2, 50916, Note_on_c, 0, 41, 80
2, 50916, Note_on_c, 0, 53, 80
2, 50918, Note_on_c, 0, 79, 0
2, 50918, Note_on_c, 0, 67, 0
2, 50924, Note_on_c, 0, 70, 80
2, 50926, Control_c, 0, 64, 127
2, 50929, Note_on_c, 0, 82, 80
2, 50931, Note_on_c, 0, 80, 80
2, 50968, Note_on_c, 0, 80, 0
2, 50970, Note_on_c, 0, 70, 0
2, 50970, Note_on_c, 0, 82, 0
2, 50988, Note_on_c, 0, 41, 0
2, 50998, Note_on_c, 0, 53, 0
2, 51001, Note_on_c, 0, 70, 80
2, 51005, Note_on_c, 0, 82, 80
2, 51046, Note_on_c, 0, 46, 80
2, 51048, Note_on_c, 0, 82, 0
2, 51048, Note_on_c, 0, 72, 80
2, 51049, Note_on_c, 0, 58, 80
2, 51051, Note_on_c, 0, 70, 0
2, 51059, Control_c, 0, 64, 0
2, 51061, Note_on_c, 0, 84, 80
2, 51087, Note_on_c, 0, 46, 0
2, 51111, Note_on_c, 0, 72, 0
2, 51113, Note_on_c, 0, 84, 0
2, 51127, Note_on_c, 0, 70, 80
2, 51135, Note_on_c, 0, 82, 80
2, 51155, Note_on_c, 0, 58, 0
2, 51168, Note_on_c, 0, 57, 80
2, 51169, Note_on_c, 0, 46, 80
2, 51214, Note_on_c, 0, 46, 0
2, 51221, Note_on_c, 0, 82, 0
2, 51225, Note_on_c, 0, 70, 0
2, 51257, Note_on_c, 0, 70, 80
2, 51261, Note_on_c, 0, 82, 80
2, 51288, Note_on_c, 0, 57, 0
2, 51298, Note_on_c, 0, 82, 0
2, 51300, Note_on_c, 0, 46, 80
2, 51300, Note_on_c, 0, 56, 80
2, 51302, Note_on_c, 0, 70, 0
2, 51308, Note_on_c, 0, 72, 80
2, 51308, Note_on_c, 0, 84, 80
2, 51312, Note_on_c, 0, 77, 80
2, 51339, Note_on_c, 0, 46, 0
2, 51373, Note_on_c, 0, 72, 0
2, 51377, Note_on_c, 0, 77, 0
2, 51377, Note_on_c, 0, 84, 0
2, 51408, Note_on_c, 0, 56, 0
2, 51423, Note_on_c, 0, 46, 80
2, 51423, Note_on_c, 0, 55, 80
2, 51427, Control_c, 0, 64, 127
2, 51429, Note_on_c, 0, 75, 80
2, 51429, Note_on_c, 0, 87, 80
2, 51431, Note_on_c, 0, 79, 80
2, 51431, Note_on_c, 0, 82, 80
2, 51464, Note_on_c, 0, 46, 0
2, 51486, Note_on_c, 0, 55, 0
2, 51527, Control_c, 0, 64, 0
2, 51552, Note_on_c, 0, 58, 80
2, 51552, Note_on_c, 0, 63, 80
2, 51556, Note_on_c, 0, 67, 80
2, 51590, Note_on_c, 0, 67, 0
2, 51592, Note_on_c, 0, 58, 0
2, 51594, Note_on_c, 0, 63, 0
2, 51675, Note_on_c, 0, 46, 80
2, 51681, Note_on_c, 0, 58, 80
2, 51694, Note_on_c, 0, 79, 0
2, 51694, Note_on_c, 0, 75, 0
2, 51697, Note_on_c, 0, 87, 0
2, 51701, Note_on_c, 0, 82, 0
2, 51721, Note_on_c, 0, 46, 0
2, 51764, Note_on_c, 0, 75, 80
2, 51764, Note_on_c, 0, 82, 80
2, 51764, Note_on_c, 0, 87, 80
2, 51768, Note_on_c, 0, 79, 80
2, 51775, Note_on_c, 0, 58, 0
2, 51807, Note_on_c, 0, 63, 80
2, 51813, Note_on_c, 0, 67, 80
2, 51815, Note_on_c, 0, 58, 80
2, 51848, Note_on_c, 0, 67, 0
2, 51848, Note_on_c, 0, 79, 0
2, 51848, Note_on_c, 0, 75, 0
2, 51852, Note_on_c, 0, 63, 0
2, 51852, Note_on_c, 0, 87, 0
2, 51858, Note_on_c, 0, 82, 0
2, 51891, Note_on_c, 0, 72, 80
2, 51913, Note_on_c, 0, 58, 0
2, 51932, Note_on_c, 0, 72, 0
2, 51932, Note_on_c, 0, 50, 80
2, 51934, Note_on_c, 0, 59, 80
2, 51936, Note_on_c, 0, 83, 80
2, 51937, Control_c, 0, 64, 127
2, 51939, Note_on_c, 0, 74, 80
2, 51943, Note_on_c, 0, 77, 80
2, 51977, Note_on_c, 0, 50, 0
2, 51981, Note_on_c, 0, 74, 0
2, 51981, Note_on_c, 0, 77, 0
2, 51984, Note_on_c, 0, 83, 0
2, 51988, Note_on_c, 0, 59, 0
2, 52010, Note_on_c, 0, 77, 80
2, 52012, Note_on_c, 0, 73, 80
2, 52016, Note_on_c, 0, 82, 80
2, 52038, Note_on_c, 0, 77, 0
2, 52048, Note_on_c, 0, 73, 0
2, 52050, Note_on_c, 0, 55, 80
2, 52050, Note_on_c, 0, 65, 80
2, 52052, Note_on_c, 0, 82, 0
2, 52052, Note_on_c, 0, 62, 80
2, 52052, Note_on_c, 0, 74, 80
2, 52052, Note_on_c, 0, 83, 80
2, 52056, Note_on_c, 0, 59, 80
2, 52057, Note_on_c, 0, 77, 80
2, 52063, Control_c, 0, 64, 0
2, 52087, Note_on_c, 0, 65, 0
2, 52093, Note_on_c, 0, 74, 0
2, 52093, Note_on_c, 0, 55, 0
2, 52093, Note_on_c, 0, 77, 0
2, 52095, Note_on_c, 0, 62, 0
2, 52097, Note_on_c, 0, 83, 0
2, 52115, Note_on_c, 0, 59, 0
2, 52125, Note_on_c, 0, 70, 80
2, 52127, Note_on_c, 0, 82, 80
2, 52160, Note_on_c, 0, 70, 0
2, 52160, Note_on_c, 0, 43, 80
2, 52162, Note_on_c, 0, 50, 80
2, 52166, Note_on_c, 0, 82, 0
2, 52168, Note_on_c, 0, 71, 80
2, 52168, Note_on_c, 0, 79, 80
2, 52172, Note_on_c, 0, 83, 80
2, 52174, Note_on_c, 0, 77, 80
2, 52201, Note_on_c, 0, 43, 0
2, 52203, Note_on_c, 0, 50, 0
2, 52209, Note_on_c, 0, 71, 0
2, 52209, Note_on_c, 0, 79, 0
2, 52209, Note_on_c, 0, 77, 0
2, 52217, Note_on_c, 0, 83, 0
2, 52247, Note_on_c, 0, 79, 80
2, 52248, Note_on_c, 0, 67, 80
2, 52291, Note_on_c, 0, 67, 0
2, 52291, Note_on_c, 0, 79, 0
2, 52291, Note_on_c, 0, 62, 80
2, 52293, Note_on_c, 0, 55, 80
2, 52295, Note_on_c, 0, 65, 80
2, 52300, Note_on_c, 0, 59, 80
2, 52302, Note_on_c, 0, 69, 80
2, 52306, Note_on_c, 0, 81, 80
2, 52338, Note_on_c, 0, 62, 0
2, 52340, Note_on_c, 0, 65, 0
2, 52342, Note_on_c, 0, 55, 0
2, 52344, Note_on_c, 0, 69, 0
2, 52344, Note_on_c, 0, 81, 0
2, 52351, Note_on_c, 0, 59, 0
2, 52381, Note_on_c, 0, 83, 80
2, 52387, Note_on_c, 0, 71, 80
2, 52411, Control_c, 0, 64, 127
2, 52425, Note_on_c, 0, 48, 80
2, 52429, Note_on_c, 0, 71, 0
2, 52429, Note_on_c, 0, 60, 80
2, 52431, Note_on_c, 0, 83, 0
2, 52431, Note_on_c, 0, 72, 80
2, 52433, Note_on_c, 0, 79, 80
2, 52433, Note_on_c, 0, 84, 80
2, 52466, Note_on_c, 0, 48, 0
2, 52524, Note_on_c, 0, 79, 0
2, 52524, Note_on_c, 0, 60, 0
2, 52526, Note_on_c, 0, 72, 0
2, 52528, Note_on_c, 0, 84, 0
2, 52550, Note_on_c, 0, 63, 80
2, 52552, Control_c, 0, 64, 0
2, 52552, Note_on_c, 0, 55, 80
2, 52560, Note_on_c, 0, 60, 80
2, 52560, Note_on_c, 0, 83, 80
2, 52561, Note_on_c, 0, 71, 80
2, 52598, Note_on_c, 0, 63, 0
2, 52600, Note_on_c, 0, 55, 0
2, 52606, Note_on_c, 0, 71, 0
2, 52611, Note_on_c, 0, 83, 0
2, 52613, Note_on_c, 0, 60, 0
2, 52632, Note_on_c, 0, 84, 80
2, 52633, Note_on_c, 0, 72, 80
2, 52667, Note_on_c, 0, 84, 0
2, 52669, Note_on_c, 0, 43, 80
2, 52671, Note_on_c, 0, 72, 0
2, 52671, Note_on_c, 0, 88, 80
2, 52675, Note_on_c, 0, 89, 80
2, 52677, Note_on_c, 0, 77, 80
2, 52704, Note_on_c, 0, 43, 0
2, 52706, Note_on_c, 0, 88, 0
2, 52710, Note_on_c, 0, 89, 0
2, 52710, Note_on_c, 0, 77, 0
2, 52740, Note_on_c, 0, 87, 80
2, 52742, Note_on_c, 0, 75, 80
2, 52776, Note_on_c, 0, 75, 0
2, 52776, Note_on_c, 0, 55, 80
2, 52776, Note_on_c, 0, 60, 80
2, 52777, Note_on_c, 0, 63, 80
2, 52781, Note_on_c, 0, 85, 80
2, 52783, Note_on_c, 0, 87, 0
2, 52783, Note_on_c, 0, 86, 80
2, 52787, Note_on_c, 0, 74, 80
2, 52787, Note_on_c, 0, 82, 80
2, 52821, Note_on_c, 0, 85, 0
2, 52823, Note_on_c, 0, 55, 0
2, 52824, Note_on_c, 0, 63, 0
2, 52824, Note_on_c, 0, 86, 0
2, 52824, Note_on_c, 0, 74, 0
2, 52826, Note_on_c, 0, 82, 0
2, 52848, Note_on_c, 0, 60, 0
2, 52852, Note_on_c, 0, 87, 80
2, 52856, Note_on_c, 0, 75, 80
2, 52862, Control_c, 0, 64, 127
2, 52886, Note_on_c, 0, 75, 0
2, 52890, Note_on_c, 0, 87, 0
2, 52894, Note_on_c, 0, 46, 80
2, 52894, Note_on_c, 0, 85, 80
2, 52896, Note_on_c, 0, 73, 80
2, 52897, Note_on_c, 0, 58, 80
2, 52931, Note_on_c, 0, 46, 0
2, 52949, Note_on_c, 0, 85, 0
2, 52957, Note_on_c, 0, 73, 0
2, 52977, Note_on_c, 0, 70, 80
2, 52983, Note_on_c, 0, 58, 0
2, 52999, Control_c, 0, 64, 0
2, 53017, Note_on_c, 0, 65, 80
2, 53019, Note_on_c, 0, 70, 0
2, 53019, Note_on_c, 0, 51, 80
2, 53019, Note_on_c, 0, 55, 80
2, 53023, Note_on_c, 0, 73, 80
2, 53025, Note_on_c, 0, 58, 80
2, 53025, Note_on_c, 0, 61, 80
2, 53027, Note_on_c, 0, 77, 80
2, 53065, Note_on_c, 0, 73, 0
2, 53065, Note_on_c, 0, 65, 0
2, 53067, Note_on_c, 0, 55, 0
2, 53067, Note_on_c, 0, 61, 0
2, 53069, Note_on_c, 0, 51, 0
2, 53069, Note_on_c, 0, 77, 0
2, 53077, Note_on_c, 0, 58, 0
2, 53099, Note_on_c, 0, 66, 80
2, 53103, Note_on_c, 0, 78, 80
2, 53139, Note_on_c, 0, 66, 0
2, 53141, Note_on_c, 0, 78, 0
2, 53143, Note_on_c, 0, 39, 80
2, 53143, Note_on_c, 0, 75, 80
2, 53147, Note_on_c, 0, 67, 80
2, 53147, Note_on_c, 0, 79, 80
2, 53181, Note_on_c, 0, 39, 0
2, 53183, Note_on_c, 0, 79, 0
2, 53184, Note_on_c, 0, 67, 0
2, 53184, Note_on_c, 0, 75, 0
2, 53221, Note_on_c, 0, 72, 80
2, 53221, Note_on_c, 0, 84, 80
2, 53259, Note_on_c, 0, 72, 0
2, 53259, Note_on_c, 0, 55, 80
2, 53263, Note_on_c, 0, 84, 0
2, 53263, Note_on_c, 0, 51, 80
2, 53263, Note_on_c, 0, 58, 80
2, 53267, Note_on_c, 0, 61, 80
2, 53269, Note_on_c, 0, 70, 80
2, 53269, Note_on_c, 0, 82, 80
2, 53303, Note_on_c, 0, 82, 0
2, 53303, Note_on_c, 0, 61, 0
2, 53303, Note_on_c, 0, 51, 0
2, 53303, Note_on_c, 0, 70, 0
2, 53304, Note_on_c, 0, 55, 0
2, 53336, Note_on_c, 0, 67, 80
2, 53336, Note_on_c, 0, 73, 80
2, 53336, Note_on_c, 0, 79, 80
2, 53356, Control_c, 0, 64, 127
2, 53358, Note_on_c, 0, 58, 0
2, 53373, Note_on_c, 0, 44, 80
2, 53373, Note_on_c, 0, 56, 80
2, 53375, Note_on_c, 0, 67, 0
2, 53375, Note_on_c, 0, 79, 0
2, 53375, Note_on_c, 0, 65, 80
2, 53376, Note_on_c, 0, 73, 0
2, 53376, Note_on_c, 0, 51, 80
2, 53376, Note_on_c, 0, 72, 80
2, 53384, Note_on_c, 0, 77, 80
2, 53442, Note_on_c, 0, 72, 0
2, 53444, Note_on_c, 0, 51, 0
2, 53446, Note_on_c, 0, 65, 0
2, 53448, Note_on_c, 0, 56, 0
2, 53448, Note_on_c, 0, 77, 0
2, 53488, Control_c, 0, 64, 0
2, 53488, Note_on_c, 0, 51, 80
2, 53488, Note_on_c, 0, 56, 80
2, 53492, Note_on_c, 0, 60, 80
2, 53497, Note_on_c, 0, 72, 80
2, 53497, Note_on_c, 0, 75, 80
2, 53540, Note_on_c, 0, 60, 0
2, 53568, Note_on_c, 0, 60, 80
2, 53568, Note_on_c, 0, 63, 80
2, 53617, Note_on_c, 0, 44, 0
2, 53621, Note_on_c, 0, 72, 0
2, 53623, Note_on_c, 0, 51, 0
2, 53625, Note_on_c, 0, 75, 0
2, 53625, Note_on_c, 0, 60, 0
2, 53625, Note_on_c, 0, 63, 0
2, 53627, Note_on_c, 0, 56, 0
2, 53688, Note_on_c, 0, 63, 80
2, 53693, Note_on_c, 0, 75, 80
2, 53730, Note_on_c, 0, 51, 80
2, 53732, Note_on_c, 0, 63, 0
2, 53734, Note_on_c, 0, 39, 80
2, 53736, Note_on_c, 0, 75, 0
2, 53736, Note_on_c, 0, 65, 80
2, 53745, Note_on_c, 0, 72, 80
2, 53745, Note_on_c, 0, 77, 80
2, 53779, Note_on_c, 0, 72, 0
2, 53781, Note_on_c, 0, 65, 0
2, 53783, Note_on_c, 0, 77, 0
2, 53807, Note_on_c, 0, 39, 0
2, 53812, Note_on_c, 0, 51, 0
2, 53816, Note_on_c, 0, 75, 80
2, 53856, Note_on_c, 0, 75, 0
2, 53856, Control_c, 0, 64, 127
2, 53856, Note_on_c, 0, 57, 80
2, 53858, Note_on_c, 0, 45, 80
2, 53858, Note_on_c, 0, 66, 80
2, 53858, Note_on_c, 0, 72, 80
2, 53862, Note_on_c, 0, 78, 80
2, 53899, Note_on_c, 0, 66, 0
2, 53906, Note_on_c, 0, 72, 0
2, 53914, Note_on_c, 0, 78, 0
2, 53934, Note_on_c, 0, 75, 80
2, 53938, Note_on_c, 0, 66, 80
2, 53938, Note_on_c, 0, 72, 80
2, 53940, Note_on_c, 0, 78, 80
2, 53960, Control_c, 0, 64, 0
2, 53976, Note_on_c, 0, 66, 0
2, 53976, Note_on_c, 0, 65, 80
2, 53982, Note_on_c, 0, 75, 0
2, 53982, Note_on_c, 0, 78, 0
2, 53988, Note_on_c, 0, 77, 80
2, 53992, Note_on_c, 0, 57, 0
2, 54020, Note_on_c, 0, 65, 0
2, 54024, Note_on_c, 0, 77, 0
2, 54024, Note_on_c, 0, 72, 0
2, 54036, Note_on_c, 0, 51, 80
2, 54036, Note_on_c, 0, 54, 80
2, 54038, Note_on_c, 0, 57, 80
2, 54038, Note_on_c, 0, 60, 80
2, 54040, Note_on_c, 0, 75, 80
2, 54080, Note_on_c, 0, 75, 0
2, 54102, Note_on_c, 0, 71, 80
2, 54106, Note_on_c, 0, 72, 80
2, 54134, Note_on_c, 0, 45, 0
2, 54138, Note_on_c, 0, 72, 0
2, 54140, Note_on_c, 0, 54, 0
2, 54144, Note_on_c, 0, 51, 0
2, 54144, Note_on_c, 0, 60, 0
2, 54145, Note_on_c, 0, 71, 0
2, 54147, Note_on_c, 0, 57, 0
2, 54177, Note_on_c, 0, 72, 80
2, 54177, Note_on_c, 0, 75, 80
2, 54177, Note_on_c, 0, 78, 80
2, 54179, Note_on_c, 0, 66, 80
2, 54205, Note_on_c, 0, 75, 0
2, 54219, Note_on_c, 0, 66, 0
2, 54221, Note_on_c, 0, 45, 80
2, 54223, Note_on_c, 0, 57, 80
2, 54227, Note_on_c, 0, 75, 80
2, 54229, Note_on_c, 0, 78, 0
2, 54229, Note_on_c, 0, 67, 80
2, 54229, Note_on_c, 0, 79, 80
2, 54291, Note_on_c, 0, 79, 0
2, 54291, Note_on_c, 0, 75, 0
2, 54291, Note_on_c, 0, 67, 0
2, 54293, Note_on_c, 0, 72, 0
2, 54313, Note_on_c, 0, 45, 0
2, 54317, Control_c, 0, 64, 127
2, 54319, Note_on_c, 0, 57, 0
2, 54329, Note_on_c, 0, 46, 80
2, 54331, Note_on_c, 0, 58, 80
2, 54331, Note_on_c, 0, 70, 80
2, 54333, Note_on_c, 0, 75, 80
2, 54338, Note_on_c, 0, 79, 80
2, 54340, Note_on_c, 0, 67, 80
2, 54370, Note_on_c, 0, 67, 0
2, 54390, Note_on_c, 0, 70, 0
2, 54390, Note_on_c, 0, 79, 0
2, 54392, Note_on_c, 0, 75, 0
2, 54455, Note_on_c, 0, 71, 80
2, 54455, Note_on_c, 0, 83, 80
2, 54456, Control_c, 0, 64, 0
2, 54477, Note_on_c, 0, 58, 0
2, 54513, Note_on_c, 0, 63, 80
2, 54517, Note_on_c, 0, 58, 80
2, 54523, Note_on_c, 0, 67, 80
2, 54530, Note_on_c, 0, 71, 0
2, 54534, Note_on_c, 0, 83, 0
2, 54608, Note_on_c, 0, 46, 0
2, 54621, Note_on_c, 0, 67, 0
2, 54621, Note_on_c, 0, 58, 0
2, 54624, Note_on_c, 0, 63, 0
2, 54637, Note_on_c, 0, 72, 80
2, 54645, Note_on_c, 0, 79, 80
2, 54648, Note_on_c, 0, 84, 80
2, 54691, Note_on_c, 0, 34, 80
2, 54698, Note_on_c, 0, 41, 80
2, 54700, Note_on_c, 0, 46, 80
2, 54732, Note_on_c, 0, 84, 0
2, 54750, Note_on_c, 0, 79, 0
2, 54752, Note_on_c, 0, 34, 0
2, 54752, Note_on_c, 0, 72, 0
2, 54756, Note_on_c, 0, 41, 0
2, 54762, Note_on_c, 0, 46, 0
2, 54788, Note_on_c, 0, 78, 80
2, 54788, Note_on_c, 0, 83, 80
2, 54790, Note_on_c, 0, 71, 80
2, 54826, Note_on_c, 0, 51, 80
2, 54828, Note_on_c, 0, 78, 0
2, 54828, Control_c, 0, 64, 127
2, 54830, Note_on_c, 0, 39, 80
2, 54830, Note_on_c, 0, 72, 80
2, 54832, Note_on_c, 0, 71, 0
2, 54832, Note_on_c, 0, 79, 80
2, 54832, Note_on_c, 0, 84, 80
2, 54834, Note_on_c, 0, 83, 0
2, 54870, Note_on_c, 0, 79, 0
2, 54872, Note_on_c, 0, 72, 0
2, 54874, Note_on_c, 0, 84, 0
2, 54904, Note_on_c, 0, 79, 80
2, 54906, Note_on_c, 0, 72, 80
2, 54912, Note_on_c, 0, 84, 80
2, 54943, Note_on_c, 0, 72, 0
2, 54945, Note_on_c, 0, 79, 0
2, 54945, Note_on_c, 0, 84, 0
2, 54947, Note_on_c, 0, 83, 80
2, 54953, Note_on_c, 0, 71, 80
2, 54957, Control_c, 0, 64, 0
2, 54997, Note_on_c, 0, 71, 0
2, 54999, Note_on_c, 0, 83, 0
2, 55003, Note_on_c, 0, 63, 80
2, 55005, Note_on_c, 0, 67, 80
2, 55005, Note_on_c, 0, 72, 80
2, 55007, Note_on_c, 0, 58, 80
2, 55012, Note_on_c, 0, 84, 80
2, 55046, Note_on_c, 0, 72, 0
2, 55052, Note_on_c, 0, 84, 0
2, 55068, Note_on_c, 0, 71, 80
2, 55068, Note_on_c, 0, 79, 80
2, 55068, Note_on_c, 0, 83, 80
2, 55104, Note_on_c, 0, 39, 0
2, 55104, Note_on_c, 0, 58, 0
2, 55106, Note_on_c, 0, 63, 0
2, 55110, Note_on_c, 0, 67, 0
2, 55112, Note_on_c, 0, 51, 0
2, 55138, Note_on_c, 0, 79, 0
2, 55142, Note_on_c, 0, 71, 0
2, 55152, Note_on_c, 0, 83, 0
2, 55188, Note_on_c, 0, 40, 80
2, 55192, Note_on_c, 0, 52, 80
2, 55196, Note_on_c, 0, 72, 80
2, 55198, Note_on_c, 0, 84, 80
2, 55200, Note_on_c, 0, 79, 80
2, 55270, Note_on_c, 0, 79, 0
2, 55270, Note_on_c, 0, 72, 0
2, 55270, Note_on_c, 0, 84, 0
2, 55296, Note_on_c, 0, 40, 0
2, 55297, Note_on_c, 0, 52, 0
2, 55310, Control_c, 0, 64, 127
2, 55320, Note_on_c, 0, 53, 80
2, 55321, Note_on_c, 0, 41, 80
2, 55406, Note_on_c, 0, 74, 80
2, 55406, Note_on_c, 0, 80, 80
2, 55406, Note_on_c, 0, 86, 80
2, 55446, Note_on_c, 0, 74, 0
2, 55446, Control_c, 0, 64, 0
2, 55452, Note_on_c, 0, 86, 0
2, 55454, Note_on_c, 0, 73, 80
2, 55454, Note_on_c, 0, 85, 80
2, 55476, Note_on_c, 0, 80, 0
2, 55490, Note_on_c, 0, 73, 0
2, 55490, Note_on_c, 0, 85, 0
2, 55503, Note_on_c, 0, 56, 80
2, 55505, Note_on_c, 0, 62, 80
2, 55505, Note_on_c, 0, 65, 80
2, 55509, Note_on_c, 0, 58, 80
2, 55511, Note_on_c, 0, 80, 80
2, 55514, Note_on_c, 0, 86, 80
2, 55516, Note_on_c, 0, 74, 80
2, 55538, Note_on_c, 0, 80, 0
2, 55551, Note_on_c, 0, 74, 0
2, 55553, Note_on_c, 0, 86, 0
2, 55565, Note_on_c, 0, 72, 80
2, 55569, Note_on_c, 0, 84, 80
2, 55608, Note_on_c, 0, 41, 0
2, 55609, Note_on_c, 0, 84, 0
2, 55609, Note_on_c, 0, 62, 0
2, 55611, Note_on_c, 0, 58, 0
2, 55613, Note_on_c, 0, 56, 0
2, 55615, Note_on_c, 0, 53, 0
2, 55615, Note_on_c, 0, 72, 0
2, 55621, Note_on_c, 0, 65, 0
2, 55645, Note_on_c, 0, 82, 80
2, 55647, Note_on_c, 0, 70, 80
2, 55687, Note_on_c, 0, 46, 80
2, 55691, Note_on_c, 0, 70, 0
2, 55693, Note_on_c, 0, 82, 0
2, 55695, Note_on_c, 0, 58, 80
2, 55695, Note_on_c, 0, 81, 80
2, 55697, Note_on_c, 0, 69, 80
2, 55739, Note_on_c, 0, 69, 0
2, 55741, Note_on_c, 0, 81, 0
2, 55771, Note_on_c, 0, 70, 80
2, 55771, Note_on_c, 0, 82, 80
2, 55776, Note_on_c, 0, 46, 0
2, 55780, Note_on_c, 0, 58, 0
2, 55810, Note_on_c, 0, 50, 80
2, 55814, Note_on_c, 0, 70, 0
2, 55814, Note_on_c, 0, 62, 80
2, 55816, Note_on_c, 0, 68, 80
2, 55820, Note_on_c, 0, 82, 0
2, 55820, Control_c, 0, 64, 127
2, 55822, Note_on_c, 0, 80, 80
2, 55860, Note_on_c, 0, 50, 0
2, 55878, Note_on_c, 0, 62, 0
2, 55920, Note_on_c, 0, 80, 0
2, 55922, Note_on_c, 0, 68, 0
2, 55954, Note_on_c, 0, 56, 80
2, 55954, Note_on_c, 0, 65, 80
2, 55954, Note_on_c, 0, 74, 80
2, 55956, Note_on_c, 0, 62, 80
2, 55958, Note_on_c, 0, 70, 80
2, 55958, Note_on_c, 0, 82, 80
2, 55960, Note_on_c, 0, 58, 80
2, 55968, Control_c, 0, 64, 0
2, 55997, Note_on_c, 0, 58, 0
2, 55999, Note_on_c, 0, 74, 0
2, 55999, Note_on_c, 0, 70, 0
2, 56001, Note_on_c, 0, 82, 0
2, 56001, Note_on_c, 0, 56, 0
2, 56003, Note_on_c, 0, 65, 0
2, 56011, Note_on_c, 0, 62, 0
2, 56039, Note_on_c, 0, 70, 80
2, 56075, Note_on_c, 0, 53, 80
2, 56077, Note_on_c, 0, 50, 80
2, 56079, Note_on_c, 0, 70, 0
2, 56085, Note_on_c, 0, 46, 80
2, 56085, Note_on_c, 0, 74, 80
2, 56088, Note_on_c, 0, 68, 80
2, 56088, Note_on_c, 0, 78, 80
2, 56090, Note_on_c, 0, 58, 80
2, 56120, Note_on_c, 0, 46, 0
2, 56124, Note_on_c, 0, 74, 0
2, 56126, Note_on_c, 0, 53, 0
2, 56128, Note_on_c, 0, 68, 0
2, 56128, Note_on_c, 0, 50, 0
2, 56130, Note_on_c, 0, 78, 0
2, 56130, Note_on_c, 0, 58, 0
2, 56163, Note_on_c, 0, 77, 80
2, 56204, Note_on_c, 0, 77, 0
2, 56208, Note_on_c, 0, 56, 80
2, 56209, Note_on_c, 0, 75, 80
2, 56211, Note_on_c, 0, 65, 80
2, 56215, Note_on_c, 0, 58, 80
2, 56252, Note_on_c, 0, 75, 0
2, 56254, Note_on_c, 0, 58, 0
2, 56257, Note_on_c, 0, 65, 0
2, 56257, Note_on_c, 0, 56, 0
2, 56298, Note_on_c, 0, 77, 80
2, 56322, Control_c, 0, 64, 127
2, 56334, Note_on_c, 0, 77, 0
2, 56338, Note_on_c, 0, 51, 80
2, 56338, Note_on_c, 0, 63, 80
2, 56344, Note_on_c, 0, 75, 80
2, 56398, Note_on_c, 0, 51, 0
2, 56400, Note_on_c, 0, 63, 0
2, 56403, Note_on_c, 0, 75, 0
2, 56429, Control_c, 0, 64, 0
2, 56468, Note_on_c, 0, 39, 80
2, 56468, Note_on_c, 0, 51, 80
2, 56470, Note_on_c, 0, 70, 80
2, 56470, Note_on_c, 0, 60, 80
2, 56472, Note_on_c, 0, 67, 80
2, 56503, Note_on_c, 0, 39, 0
2, 56509, Note_on_c, 0, 60, 0
2, 56509, Note_on_c, 0, 67, 0
2, 56509, Note_on_c, 0, 70, 0
2, 56511, Note_on_c, 0, 51, 0
2, 56541, Note_on_c, 0, 40, 80
2, 56544, Note_on_c, 0, 52, 80
2, 56546, Note_on_c, 0, 46, 80
2, 56546, Note_on_c, 0, 70, 80
2, 56548, Note_on_c, 0, 61, 80
2, 56550, Note_on_c, 0, 67, 80
2, 56596, Note_on_c, 0, 40, 0
2, 56600, Note_on_c, 0, 52, 0
2, 56600, Note_on_c, 0, 46, 0
2, 56602, Note_on_c, 0, 61, 0
2, 56604, Note_on_c, 0, 67, 0
2, 56604, Note_on_c, 0, 70, 0
2, 56666, Note_on_c, 0, 40, 80
2, 56670, Note_on_c, 0, 52, 80
2, 56672, Note_on_c, 0, 47, 80
2, 56674, Note_on_c, 0, 61, 80
2, 56674, Note_on_c, 0, 70, 80
2, 56676, Note_on_c, 0, 67, 80
2, 56692, Note_on_c, 0, 40, 0
2, 56698, Note_on_c, 0, 67, 0
2, 56706, Note_on_c, 0, 47, 0
2, 56712, Note_on_c, 0, 40, 80
2, 56719, Note_on_c, 0, 46, 80
2, 56723, Note_on_c, 0, 67, 80
2, 56784, Note_on_c, 0, 40, 0
2, 56785, Note_on_c, 0, 46, 0
2, 56789, Note_on_c, 0, 52, 0
2, 56791, Note_on_c, 0, 61, 0
2, 56791, Note_on_c, 0, 67, 0
2, 56793, Note_on_c, 0, 70, 0
2, 56833, Note_on_c, 0, 53, 80
2, 56839, Note_on_c, 0, 70, 80
2, 56841, Control_c, 0, 64, 127
2, 56841, Note_on_c, 0, 41, 80
2, 56843, Note_on_c, 0, 62, 80
2, 56843, Note_on_c, 0, 68, 80
2, 56891, Note_on_c, 0, 41, 0
2, 56905, Note_on_c, 0, 68, 0
2, 56905, Note_on_c, 0, 53, 0
2, 56907, Note_on_c, 0, 70, 0
2, 56909, Note_on_c, 0, 62, 0
2, 56961, Note_on_c, 0, 34, 80
2, 56963, Note_on_c, 0, 46, 80
2, 56967, Note_on_c, 0, 70, 80
2, 56973, Note_on_c, 0, 58, 80
2, 56976, Control_c, 0, 64, 0
2, 57004, Note_on_c, 0, 34, 0
2, 57008, Note_on_c, 0, 58, 0
2, 57010, Note_on_c, 0, 46, 0
2, 57012, Note_on_c, 0, 70, 0
2, 57036, Note_on_c, 0, 34, 80
2, 57044, Note_on_c, 0, 46, 80
2, 57044, Note_on_c, 0, 70, 80
2, 57046, Note_on_c, 0, 58, 80
2, 57130, Note_on_c, 0, 34, 0
2, 57132, Note_on_c, 0, 46, 0
2, 57136, Note_on_c, 0, 58, 0
2, 57142, Note_on_c, 0, 70, 0
2, 57169, Note_on_c, 0, 63, 80
2, 57177, Note_on_c, 0, 75, 80
2, 57211, Note_on_c, 0, 34, 80
2, 57213, Note_on_c, 0, 46, 80
2, 57275, Note_on_c, 0, 75, 0
2, 57279, Note_on_c, 0, 63, 0
2, 57288, Note_on_c, 0, 60, 80
2, 57294, Note_on_c, 0, 72, 80
2, 57296, Note_on_c, 0, 34, 0
2, 57298, Note_on_c, 0, 46, 0
2, 57326, Note_on_c, 0, 63, 80
2, 57328, Note_on_c, 0, 39, 80
2, 57330, Note_on_c, 0, 72, 0
2, 57330, Note_on_c, 0, 70, 80
2, 57332, Control_c, 0, 64, 127
2, 57334, Note_on_c, 0, 67, 80
2, 57334, Note_on_c, 0, 75, 80
2, 57336, Note_on_c, 0, 60, 0
2, 57402, Note_on_c, 0, 67, 0
2, 57406, Note_on_c, 0, 70, 0
2, 57406, Note_on_c, 0, 63, 0
2, 57406, Note_on_c, 0, 75, 0
2, 57452, Note_on_c, 0, 51, 80
2, 57452, Note_on_c, 0, 60, 80
2, 57454, Note_on_c, 0, 43, 80
2, 57454, Note_on_c, 0, 46, 80
2, 57457, Note_on_c, 0, 70, 80
2, 57457, Note_on_c, 0, 72, 80
2, 57461, Control_c, 0, 64, 0
2, 57463, Note_on_c, 0, 67, 80
2, 57491, Note_on_c, 0, 46, 0
2, 57491, Note_on_c, 0, 43, 0
2, 57491, Note_on_c, 0, 39, 0
2, 57497, Note_on_c, 0, 51, 0
2, 57525, Note_on_c, 0, 67, 0
2, 57525, Note_on_c, 0, 70, 0
2, 57525, Note_on_c, 0, 72, 0
2, 57528, Note_on_c, 0, 60, 0
2, 57567, Note_on_c, 0, 34, 80
2, 57581, Note_on_c, 0, 66, 80
2, 57585, Note_on_c, 0, 59, 80
2, 57589, Note_on_c, 0, 71, 80
2, 57653, Note_on_c, 0, 66, 0
2, 57657, Note_on_c, 0, 59, 0
2, 57663, Note_on_c, 0, 71, 0
2, 57701, Note_on_c, 0, 39, 80
2, 57701, Note_on_c, 0, 43, 80
2, 57703, Note_on_c, 0, 46, 80
2, 57703, Note_on_c, 0, 60, 80
2, 57703, Note_on_c, 0, 72, 80
2, 57705, Note_on_c, 0, 70, 80
2, 57711, Note_on_c, 0, 67, 80
2, 57737, Note_on_c, 0, 34, 0
2, 57739, Note_on_c, 0, 46, 0
2, 57743, Note_on_c, 0, 43, 0
2, 57746, Note_on_c, 0, 39, 0
2, 57767, Note_on_c, 0, 72, 0
2, 57770, Note_on_c, 0, 67, 0
2, 57772, Note_on_c, 0, 60, 0
2, 57774, Note_on_c, 0, 70, 0
2, 57813, Note_on_c, 0, 68, 80
2, 57816, Control_c, 0, 64, 127
2, 57816, Note_on_c, 0, 38, 80
2, 57816, Note_on_c, 0, 61, 80
2, 57816, Note_on_c, 0, 65, 80
2, 57818, Note_on_c, 0, 70, 80
2, 57852, Note_on_c, 0, 61, 0
2, 57854, Note_on_c, 0, 70, 0
2, 57858, Note_on_c, 0, 65, 0
2, 57860, Note_on_c, 0, 68, 0
2, 57884, Note_on_c, 0, 62, 80
2, 57884, Note_on_c, 0, 65, 80
2, 57884, Note_on_c, 0, 71, 80
2, 57912, Control_c, 0, 64, 0
2, 57919, Note_on_c, 0, 50, 80
2, 57921, Note_on_c, 0, 46, 80
2, 57923, Note_on_c, 0, 41, 80
2, 57957, Note_on_c, 0, 71, 0
2, 57959, Note_on_c, 0, 38, 0
2, 57962, Note_on_c, 0, 46, 0
2, 57962, Note_on_c, 0, 41, 0
2, 57964, Note_on_c, 0, 62, 0
2, 57964, Note_on_c, 0, 50, 0
2, 57970, Note_on_c, 0, 65, 0
2, 57994, Note_on_c, 0, 65, 80
2, 57998, Note_on_c, 0, 59, 80
2, 57998, Note_on_c, 0, 67, 80
2, 58048, Note_on_c, 0, 31, 80
2, 58084, Note_on_c, 0, 67, 0
2, 58086, Note_on_c, 0, 59, 0
2, 58092, Note_on_c, 0, 65, 0
2, 58118, Note_on_c, 0, 65, 80
2, 58124, Note_on_c, 0, 59, 80
2, 58128, Note_on_c, 0, 67, 80
2, 58157, Note_on_c, 0, 34, 80
2, 58163, Note_on_c, 0, 67, 0
2, 58163, Note_on_c, 0, 38, 80
2, 58163, Note_on_c, 0, 43, 80
2, 58176, Note_on_c, 0, 69, 80
2, 58203, Note_on_c, 0, 34, 0
2, 58205, Note_on_c, 0, 43, 0
2, 58207, Note_on_c, 0, 31, 0
2, 58209, Note_on_c, 0, 38, 0
2, 58246, Note_on_c, 0, 59, 0
2, 58253, Note_on_c, 0, 65, 0
2, 58253, Note_on_c, 0, 69, 0
2, 58281, Control_c, 0, 64, 127
2, 58299, Note_on_c, 0, 36, 80
2, 58299, Note_on_c, 0, 63, 80
2, 58299, Note_on_c, 0, 72, 80
2, 58305, Note_on_c, 0, 60, 80
2, 58309, Note_on_c, 0, 67, 80
2, 58369, Note_on_c, 0, 60, 0
2, 58377, Note_on_c, 0, 72, 0
2, 58377, Note_on_c, 0, 67, 0
2, 58381, Note_on_c, 0, 63, 0
2, 58389, Control_c, 0, 64, 0
2, 58413, Note_on_c, 0, 63, 80
2, 58416, Note_on_c, 0, 43, 80
2, 58416, Note_on_c, 0, 48, 80
2, 58418, Note_on_c, 0, 39, 80
2, 58457, Note_on_c, 0, 48, 0
2, 58457, Note_on_c, 0, 43, 0
2, 58459, Note_on_c, 0, 39, 0
2, 58459, Note_on_c, 0, 36, 0
2, 58463, Note_on_c, 0, 63, 0
2, 58490, Note_on_c, 0, 62, 80
2, 58496, Note_on_c, 0, 67, 80
2, 58530, Note_on_c, 0, 36, 80
2, 58532, Note_on_c, 0, 60, 80
2, 58532, Note_on_c, 0, 63, 80
2, 58534, Note_on_c, 0, 62, 0
2, 58536, Note_on_c, 0, 67, 0
2, 58541, Note_on_c, 0, 66, 80
2, 58578, Note_on_c, 0, 66, 0
2, 58580, Note_on_c, 0, 60, 0
2, 58584, Note_on_c, 0, 63, 0
2, 58606, Note_on_c, 0, 60, 80
2, 58613, Note_on_c, 0, 67, 80
2, 58645, Note_on_c, 0, 43, 80
2, 58645, Note_on_c, 0, 48, 80
2, 58651, Note_on_c, 0, 67, 0
2, 58653, Note_on_c, 0, 39, 80
2, 58655, Note_on_c, 0, 66, 80
2, 58682, Note_on_c, 0, 48, 0
2, 58682, Note_on_c, 0, 36, 0
2, 58686, Note_on_c, 0, 39, 0
2, 58690, Note_on_c, 0, 43, 0
2, 58696, Note_on_c, 0, 66, 0
2, 58696, Note_on_c, 0, 60, 0
2, 58726, Note_on_c, 0, 67, 80
2, 58768, Control_c, 0, 64, 127
2, 58768, Note_on_c, 0, 34, 80
2, 58768, Note_on_c, 0, 55, 80
2, 58772, Note_on_c, 0, 67, 0
2, 58772, Note_on_c, 0, 63, 80
2, 58776, Note_on_c, 0, 61, 80
2, 58814, Note_on_c, 0, 55, 0
2, 58818, Note_on_c, 0, 61, 0
2, 58824, Note_on_c, 0, 63, 0
2, 58855, Note_on_c, 0, 55, 80
2, 58857, Note_on_c, 0, 61, 80
2, 58857, Note_on_c, 0, 65, 80
2, 58899, Note_on_c, 0, 38, 80
2, 58899, Note_on_c, 0, 43, 80
2, 58905, Note_on_c, 0, 46, 80
2, 58913, Control_c, 0, 64, 0
2, 58933, Note_on_c, 0, 43, 0
2, 58935, Note_on_c, 0, 38, 0
2, 58937, Note_on_c, 0, 46, 0
2, 58939, Note_on_c, 0, 34, 0
2, 58941, Note_on_c, 0, 55, 0
2, 58944, Note_on_c, 0, 61, 0
2, 58946, Note_on_c, 0, 65, 0
2, 58970, Note_on_c, 0, 63, 80
2, 59018, Note_on_c, 0, 34, 80
2, 59020, Note_on_c, 0, 63, 0
2, 59020, Note_on_c, 0, 55, 80
2, 59024, Note_on_c, 0, 61, 80
2, 59024, Note_on_c, 0, 65, 80
2, 59064, Note_on_c, 0, 65, 0
2, 59064, Note_on_c, 0, 61, 0
2, 59064, Note_on_c, 0, 55, 0
2, 59092, Note_on_c, 0, 55, 80
2, 59096, Note_on_c, 0, 65, 80
2, 59133, Note_on_c, 0, 43, 80
2, 59133, Note_on_c, 0, 46, 80
2, 59135, Note_on_c, 0, 39, 80
2, 59135, Note_on_c, 0, 63, 80
2, 59138, Note_on_c, 0, 61, 80
2, 59142, Note_on_c, 0, 65, 0
2, 59170, Note_on_c, 0, 34, 0
2, 59172, Note_on_c, 0, 43, 0
2, 59172, Note_on_c, 0, 39, 0
2, 59176, Note_on_c, 0, 46, 0
2, 59176, Note_on_c, 0, 61, 0
2, 59182, Note_on_c, 0, 55, 0
2, 59185, Note_on_c, 0, 63, 0
2, 59209, Note_on_c, 0, 65, 80
2, 59243, Note_on_c, 0, 53, 80
2, 59247, Note_on_c, 0, 32, 80
2, 59247, Note_on_c, 0, 60, 80
2, 59247, Note_on_c, 0, 63, 80
2, 59251, Note_on_c, 0, 65, 0
2, 59265, Control_c, 0, 64, 127
2, 59329, Note_on_c, 0, 60, 0
2, 59329, Note_on_c, 0, 53, 0
2, 59329, Note_on_c, 0, 63, 0
2, 59361, Note_on_c, 0, 53, 80
2, 59365, Note_on_c, 0, 36, 80
2, 59367, Note_on_c, 0, 44, 80
2, 59369, Note_on_c, 0, 65, 80
2, 59371, Control_c, 0, 64, 0
2, 59371, Note_on_c, 0, 39, 80
2, 59371, Note_on_c, 0, 60, 80
2, 59402, Note_on_c, 0, 32, 0
2, 59404, Note_on_c, 0, 36, 0
2, 59408, Note_on_c, 0, 44, 0
2, 59412, Note_on_c, 0, 39, 0
2, 59414, Note_on_c, 0, 53, 0
2, 59414, Note_on_c, 0, 60, 0
2, 59416, Note_on_c, 0, 65, 0
2, 59438, Note_on_c, 0, 53, 80
2, 59444, Note_on_c, 0, 65, 80
2, 59446, Note_on_c, 0, 60, 80
2, 59484, Note_on_c, 0, 32, 80
2, 59502, Note_on_c, 0, 60, 0
2, 59504, Note_on_c, 0, 53, 0
2, 59506, Note_on_c, 0, 65, 0
2, 59564, Note_on_c, 0, 53, 80
2, 59564, Note_on_c, 0, 60, 80
2, 59568, Note_on_c, 0, 65, 80
2, 59608, Note_on_c, 0, 36, 80
2, 59612, Note_on_c, 0, 39, 80
2, 59612, Note_on_c, 0, 44, 80
2, 59641, Note_on_c, 0, 32, 0
2, 59647, Note_on_c, 0, 39, 0
2, 59649, Note_on_c, 0, 36, 0
2, 59653, Note_on_c, 0, 60, 0
2, 59655, Note_on_c, 0, 44, 0
2, 59657, Note_on_c, 0, 53, 0
2, 59661, Note_on_c, 0, 65, 0
2, 59687, Note_on_c, 0, 60, 80
2, 59711, Control_c, 0, 64, 127
2, 59725, Note_on_c, 0, 33, 80
2, 59733, Note_on_c, 0, 60, 0
2, 59735, Note_on_c, 0, 54, 80
2, 59736, Note_on_c, 0, 63, 80
2, 59797, Note_on_c, 0, 63, 0
2, 59799, Note_on_c, 0, 54, 0
2, 59827, Control_c, 0, 64, 0
2, 59849, Note_on_c, 0, 37, 80
2, 59849, Note_on_c, 0, 40, 80
2, 59855, Note_on_c, 0, 60, 80
2, 59856, Note_on_c, 0, 45, 80
2, 59858, Note_on_c, 0, 63, 80
2, 59860, Note_on_c, 0, 54, 80
2, 59860, Note_on_c, 0, 66, 80
2, 59890, Note_on_c, 0, 40, 0
2, 59890, Note_on_c, 0, 33, 0
2, 59894, Note_on_c, 0, 37, 0
2, 59896, Note_on_c, 0, 45, 0
2, 59896, Note_on_c, 0, 54, 0
2, 59902, Note_on_c, 0, 66, 0
2, 59902, Note_on_c, 0, 60, 0
2, 59904, Note_on_c, 0, 63, 0
2, 59929, Note_on_c, 0, 65, 80
2, 59977, Note_on_c, 0, 33, 80
2, 59983, Note_on_c, 0, 60, 80
2, 59983, Note_on_c, 0, 63, 80
2, 59987, Note_on_c, 0, 65, 0
2, 59987, Note_on_c, 0, 54, 80
2, 60025, Note_on_c, 0, 54, 0
2, 60025, Note_on_c, 0, 60, 0
2, 60031, Note_on_c, 0, 63, 0
2, 60061, Note_on_c, 0, 54, 80
2, 60063, Note_on_c, 0, 60, 80
2, 60063, Note_on_c, 0, 63, 80
2, 60065, Note_on_c, 0, 66, 80
2, 60098, Note_on_c, 0, 40, 80
2, 60100, Note_on_c, 0, 37, 80
2, 60100, Note_on_c, 0, 45, 80
2, 60100, Note_on_c, 0, 65, 80
2, 60104, Note_on_c, 0, 66, 0
2, 60108, Note_on_c, 0, 63, 0
2, 60130, Note_on_c, 0, 40, 0
2, 60134, Note_on_c, 0, 37, 0
2, 60136, Note_on_c, 0, 45, 0
2, 60144, Note_on_c, 0, 54, 0
2, 60145, Note_on_c, 0, 60, 0
2, 60147, Note_on_c, 0, 65, 0
2, 60147, Note_on_c, 0, 33, 0
2, 60216, Control_c, 0, 64, 127
2, 60216, Note_on_c, 0, 55, 80
2, 60219, Note_on_c, 0, 39, 80
2, 60219, Note_on_c, 0, 63, 80
2, 60325, Control_c, 0, 64, 0
2, 60341, Note_on_c, 0, 43, 80
2, 60349, Note_on_c, 0, 46, 80
2, 60349, Note_on_c, 0, 51, 80
2, 60383, Note_on_c, 0, 43, 0
2, 60388, Note_on_c, 0, 46, 0
2, 60390, Note_on_c, 0, 39, 0
2, 60392, Note_on_c, 0, 55, 0
2, 60396, Note_on_c, 0, 63, 0
2, 60398, Note_on_c, 0, 51, 0
2, 60474, Note_on_c, 0, 34, 80
2, 60478, Note_on_c, 0, 60, 80
2, 60480, Note_on_c, 0, 72, 80
2, 60485, Note_on_c, 0, 67, 80
2, 60605, Note_on_c, 0, 43, 80
2, 60611, Note_on_c, 0, 39, 80
2, 60615, Note_on_c, 0, 46, 80
2, 60647, Note_on_c, 0, 34, 0
2, 60650, Note_on_c, 0, 43, 0
2, 60652, Note_on_c, 0, 39, 0
2, 60652, Note_on_c, 0, 46, 0
2, 60658, Note_on_c, 0, 72, 0
2, 60658, Note_on_c, 0, 67, 0
2, 60660, Note_on_c, 0, 60, 0
2, 60742, Note_on_c, 0, 39, 80
2, 60749, Control_c, 0, 64, 127
2, 60807, Note_on_c, 0, 63, 80
2, 60819, Note_on_c, 0, 75, 80
2, 60853, Note_on_c, 0, 43, 80
2, 60857, Note_on_c, 0, 75, 0
2, 60857, Note_on_c, 0, 63, 0
2, 60857, Control_c, 0, 64, 0
2, 60857, Note_on_c, 0, 62, 80
2, 60861, Note_on_c, 0, 46, 80
2, 60861, Note_on_c, 0, 51, 80
2, 60863, Note_on_c, 0, 70, 80
2, 60863, Note_on_c, 0, 73, 80
2, 60864, Note_on_c, 0, 74, 80
2, 60896, Note_on_c, 0, 46, 0
2, 60896, Note_on_c, 0, 39, 0
2, 60896, Note_on_c, 0, 43, 0
2, 60898, Note_on_c, 0, 74, 0
2, 60898, Note_on_c, 0, 62, 0
2, 60900, Note_on_c, 0, 51, 0
2, 60902, Note_on_c, 0, 70, 0
2, 60906, Note_on_c, 0, 73, 0
2, 60928, Note_on_c, 0, 63, 80
2, 60937, Note_on_c, 0, 69, 80
2, 60941, Note_on_c, 0, 75, 80
2, 60963, Note_on_c, 0, 69, 0
2, 60973, Note_on_c, 0, 75, 0
2, 60973, Note_on_c, 0, 42, 80
2, 60975, Note_on_c, 0, 62, 80
2, 60979, Note_on_c, 0, 63, 0
2, 60981, Note_on_c, 0, 74, 80
2, 60984, Note_on_c, 0, 69, 80
2, 61053, Note_on_c, 0, 62, 0
2, 61058, Note_on_c, 0, 74, 0
2, 61062, Note_on_c, 0, 69, 0
2, 61110, Note_on_c, 0, 45, 80
2, 61110, Note_on_c, 0, 48, 80
2, 61110, Note_on_c, 0, 60, 80
2, 61114, Note_on_c, 0, 54, 80
2, 61120, Note_on_c, 0, 69, 80
2, 61120, Note_on_c, 0, 72, 80
2, 61152, Note_on_c, 0, 48, 0
2, 61152, Note_on_c, 0, 45, 0
2, 61155, Note_on_c, 0, 54, 0
2, 61155, Note_on_c, 0, 42, 0
2, 61198, Note_on_c, 0, 60, 0
2, 61198, Note_on_c, 0, 72, 0
2, 61198, Note_on_c, 0, 69, 0
2, 61249, Note_on_c, 0, 60, 80
2, 61251, Note_on_c, 0, 41, 80
2, 61253, Control_c, 0, 64, 127
2, 61253, Note_on_c, 0, 72, 80
2, 61296, Note_on_c, 0, 60, 0
2, 61297, Note_on_c, 0, 72, 0
2, 61351, Control_c, 0, 64, 0
2, 61368, Note_on_c, 0, 43, 80
2, 61368, Note_on_c, 0, 50, 80
2, 61371, Note_on_c, 0, 46, 80
2, 61371, Note_on_c, 0, 53, 80
2, 61410, Note_on_c, 0, 46, 0
2, 61410, Note_on_c, 0, 43, 0
2, 61410, Note_on_c, 0, 41, 0
2, 61419, Note_on_c, 0, 50, 0
2, 61419, Note_on_c, 0, 53, 0
2, 61447, Note_on_c, 0, 62, 80
2, 61451, Note_on_c, 0, 58, 80
2, 61453, Note_on_c, 0, 68, 80
2, 61489, Note_on_c, 0, 34, 80
2, 61615, Note_on_c, 0, 38, 80
2, 61615, Note_on_c, 0, 41, 80
2, 61617, Note_on_c, 0, 46, 80
2, 61625, Note_on_c, 0, 58, 0
2, 61629, Note_on_c, 0, 62, 0
2, 61634, Note_on_c, 0, 68, 0
2, 61649, Note_on_c, 0, 34, 0
2, 61651, Note_on_c, 0, 46, 0
2, 61653, Note_on_c, 0, 38, 0
2, 61656, Note_on_c, 0, 41, 0
2, 61725, Control_c, 0, 64, 127
2, 61737, Note_on_c, 0, 62, 80
2, 61739, Note_on_c, 0, 41, 80
2, 61745, Note_on_c, 0, 74, 80
2, 61747, Note_on_c, 0, 68, 80
2, 61787, Note_on_c, 0, 74, 0
2, 61791, Note_on_c, 0, 62, 0
2, 61795, Note_on_c, 0, 68, 0
2, 61826, Note_on_c, 0, 61, 80
2, 61830, Note_on_c, 0, 68, 80
2, 61834, Note_on_c, 0, 73, 80
2, 61838, Control_c, 0, 64, 0
2, 61868, Note_on_c, 0, 50, 80
2, 61868, Note_on_c, 0, 53, 80
2, 61872, Note_on_c, 0, 46, 80
2, 61884, Note_on_c, 0, 61, 0
2, 61886, Note_on_c, 0, 73, 0
2, 61894, Note_on_c, 0, 68, 0
2, 61914, Note_on_c, 0, 46, 0
2, 61914, Note_on_c, 0, 41, 0
2, 61920, Note_on_c, 0, 53, 0
2, 61921, Note_on_c, 0, 50, 0
2, 61947, Note_on_c, 0, 62, 80
2, 61947, Note_on_c, 0, 68, 80
2, 61953, Note_on_c, 0, 74, 80
2, 61981, Note_on_c, 0, 68, 0
2, 61987, Note_on_c, 0, 34, 80
2, 61989, Note_on_c, 0, 62, 0
2, 61991, Note_on_c, 0, 74, 0
2, 61994, Note_on_c, 0, 60, 80
2, 61996, Note_on_c, 0, 72, 80
2, 62000, Note_on_c, 0, 68, 80
2, 62039, Note_on_c, 0, 72, 0
2, 62040, Note_on_c, 0, 60, 0
2, 62042, Note_on_c, 0, 68, 0
2, 62079, Note_on_c, 0, 72, 80
2, 62115, Note_on_c, 0, 72, 0
2, 62117, Note_on_c, 0, 38, 80
2, 62117, Note_on_c, 0, 41, 80
2, 62119, Note_on_c, 0, 46, 80
2, 62119, Note_on_c, 0, 60, 80
2, 62121, Note_on_c, 0, 68, 80
2, 62121, Note_on_c, 0, 70, 80
2, 62155, Note_on_c, 0, 34, 0
2, 62157, Note_on_c, 0, 46, 0
2, 62157, Note_on_c, 0, 41, 0
2, 62160, Note_on_c, 0, 70, 0
2, 62160, Note_on_c, 0, 38, 0
2, 62162, Note_on_c, 0, 60, 0
2, 62168, Note_on_c, 0, 68, 0
2, 62194, Note_on_c, 0, 63, 80
2, 62202, Note_on_c, 0, 70, 80
2, 62204, Note_on_c, 0, 67, 80
2, 62226, Control_c, 0, 64, 127
2, 62240, Note_on_c, 0, 39, 80
2, 62280, Note_on_c, 0, 39, 0
2, 62284, Note_on_c, 0, 67, 0
2, 62284, Note_on_c, 0, 70, 0
2, 62286, Note_on_c, 0, 63, 0
2, 62332, Control_c, 0, 64, 0
2, 62362, Note_on_c, 0, 40, 80
2, 62364, Note_on_c, 0, 47, 80
2, 62366, Note_on_c, 0, 44, 80
2, 62368, Note_on_c, 0, 52, 80
2, 62368, Note_on_c, 0, 60, 80
2, 62374, Note_on_c, 0, 70, 80
2, 62376, Note_on_c, 0, 67, 80
2, 62409, Note_on_c, 0, 67, 0
2, 62409, Note_on_c, 0, 70, 0
2, 62415, Note_on_c, 0, 40, 0
2, 62415, Note_on_c, 0, 60, 0
2, 62417, Note_on_c, 0, 47, 0
2, 62419, Note_on_c, 0, 44, 0
2, 62421, Note_on_c, 0, 52, 0
2, 62441, Note_on_c, 0, 61, 80
2, 62443, Note_on_c, 0, 70, 80
2, 62447, Note_on_c, 0, 67, 80
2, 62478, Note_on_c, 0, 44, 80
2, 62478, Note_on_c, 0, 47, 80
2, 62480, Note_on_c, 0, 40, 80
2, 62480, Note_on_c, 0, 52, 80
2, 62514, Note_on_c, 0, 40, 0
2, 62518, Note_on_c, 0, 47, 0
2, 62521, Note_on_c, 0, 44, 0
2, 62523, Note_on_c, 0, 61, 0
2, 62525, Note_on_c, 0, 70, 0
2, 62525, Note_on_c, 0, 67, 0
2, 62527, Note_on_c, 0, 52, 0
2, 62557, Note_on_c, 0, 61, 80
2, 62561, Note_on_c, 0, 67, 80
2, 62561, Note_on_c, 0, 70, 80
2, 62594, Note_on_c, 0, 40, 80
2, 62598, Note_on_c, 0, 44, 80
2, 62598, Note_on_c, 0, 47, 80
2, 62600, Note_on_c, 0, 52, 80
2, 62632, Note_on_c, 0, 40, 0
2, 62634, Note_on_c, 0, 44, 0
2, 62634, Note_on_c, 0, 47, 0
2, 62640, Note_on_c, 0, 67, 0
2, 62640, Note_on_c, 0, 52, 0
2, 62641, Note_on_c, 0, 70, 0
2, 62643, Note_on_c, 0, 61, 0
2, 62673, Note_on_c, 0, 61, 80
2, 62673, Note_on_c, 0, 70, 80
2, 62679, Note_on_c, 0, 67, 80
2, 62703, Note_on_c, 0, 70, 0
2, 62711, Note_on_c, 0, 53, 80
2, 62712, Note_on_c, 0, 61, 0
2, 62716, Note_on_c, 0, 41, 80
2, 62716, Note_on_c, 0, 62, 80
2, 62718, Note_on_c, 0, 67, 0
2, 62718, Control_c, 0, 64, 127
2, 62722, Note_on_c, 0, 68, 80
2, 62722, Note_on_c, 0, 70, 80
2, 62786, Note_on_c, 0, 41, 0
2, 62796, Note_on_c, 0, 53, 0
2, 62814, Control_c, 0, 64, 0
2, 62838, Note_on_c, 0, 46, 80
2, 62842, Note_on_c, 0, 58, 80
2, 62882, Note_on_c, 0, 46, 0
2, 62882, Note_on_c, 0, 70, 0
2, 62897, Note_on_c, 0, 68, 0
2, 62903, Note_on_c, 0, 62, 0
2, 62943, Note_on_c, 0, 58, 0
2, 62959, Note_on_c, 0, 46, 80
2, 62959, Note_on_c, 0, 57, 80
2, 62963, Note_on_c, 0, 78, 80
2, 62965, Note_on_c, 0, 90, 80
2, 62999, Note_on_c, 0, 46, 0
2, 63017, Note_on_c, 0, 90, 0
2, 63021, Note_on_c, 0, 78, 0
2, 63037, Note_on_c, 0, 91, 80
2, 63047, Note_on_c, 0, 79, 80
2, 63063, Note_on_c, 0, 57, 0
2, 63081, Note_on_c, 0, 46, 80
2, 63081, Note_on_c, 0, 56, 80
2, 63118, Note_on_c, 0, 46, 0
2, 63121, Note_on_c, 0, 91, 0
2, 63121, Note_on_c, 0, 79, 0
2, 63153, Note_on_c, 0, 78, 80
2, 63155, Note_on_c, 0, 90, 80
2, 63181, Note_on_c, 0, 56, 0
2, 63193, Note_on_c, 0, 90, 0
2, 63193, Note_on_c, 0, 46, 80
2, 63195, Note_on_c, 0, 78, 0
2, 63195, Note_on_c, 0, 55, 80
2, 63195, Note_on_c, 0, 87, 80
2, 63195, Note_on_c, 0, 91, 80
2, 63197, Control_c, 0, 64, 127
2, 63203, Note_on_c, 0, 79, 80
2, 63259, Note_on_c, 0, 46, 0
2, 63263, Note_on_c, 0, 91, 0
2, 63263, Note_on_c, 0, 79, 0
2, 63266, Note_on_c, 0, 87, 0
2, 63296, Control_c, 0, 64, 0
2, 63311, Note_on_c, 0, 63, 80
2, 63312, Note_on_c, 0, 78, 80
2, 63316, Note_on_c, 0, 67, 80
2, 63316, Note_on_c, 0, 87, 80
2, 63316, Note_on_c, 0, 90, 80
2, 63318, Note_on_c, 0, 58, 80
2, 63350, Note_on_c, 0, 67, 0
2, 63352, Note_on_c, 0, 58, 0
2, 63354, Note_on_c, 0, 55, 0
2, 63356, Note_on_c, 0, 63, 0
2, 63385, Note_on_c, 0, 87, 0
2, 63389, Note_on_c, 0, 90, 0
2, 63391, Note_on_c, 0, 78, 0
2, 63433, Note_on_c, 0, 46, 80
2, 63437, Note_on_c, 0, 58, 80
2, 63439, Note_on_c, 0, 91, 80
2, 63443, Note_on_c, 0, 87, 80
2, 63447, Note_on_c, 0, 79, 80
2, 63525, Note_on_c, 0, 46, 0
2, 63537, Note_on_c, 0, 58, 0
2, 63561, Note_on_c, 0, 45, 80
2, 63561, Note_on_c, 0, 57, 80
2, 63571, Note_on_c, 0, 91, 0
2, 63576, Note_on_c, 0, 79, 0
2, 63578, Note_on_c, 0, 87, 0
2, 63599, Note_on_c, 0, 45, 0
2, 63606, Note_on_c, 0, 57, 0
2, 63636, Note_on_c, 0, 46, 80
2, 63642, Note_on_c, 0, 58, 80
2, 63664, Control_c, 0, 64, 127
2, 63673, Note_on_c, 0, 46, 0
2, 63673, Note_on_c, 0, 47, 80
2, 63679, Note_on_c, 0, 58, 0
2, 63679, Note_on_c, 0, 59, 80
2, 63718, Note_on_c, 0, 47, 0
2, 63756, Note_on_c, 0, 91, 80
2, 63760, Note_on_c, 0, 79, 80
2, 63769, Note_on_c, 0, 59, 0
2, 63769, Control_c, 0, 64, 0
2, 63793, Note_on_c, 0, 55, 80
2, 63795, Note_on_c, 0, 65, 80
2, 63797, Note_on_c, 0, 59, 80
2, 63797, Note_on_c, 0, 62, 80
2, 63799, Note_on_c, 0, 79, 0
2, 63799, Note_on_c, 0, 91, 0
2, 63803, Note_on_c, 0, 78, 80
2, 63805, Note_on_c, 0, 90, 80
2, 63837, Note_on_c, 0, 59, 0
2, 63839, Note_on_c, 0, 90, 0
2, 63840, Note_on_c, 0, 65, 0
2, 63842, Note_on_c, 0, 55, 0
2, 63844, Note_on_c, 0, 62, 0
2, 63844, Note_on_c, 0, 78, 0
2, 63866, Note_on_c, 0, 43, 80
2, 63866, Note_on_c, 0, 47, 80
2, 63866, Note_on_c, 0, 53, 80
2, 63866, Note_on_c, 0, 55, 80
2, 63870, Note_on_c, 0, 79, 80
2, 63870, Note_on_c, 0, 91, 80
2, 63874, Note_on_c, 0, 83, 80
2, 63874, Note_on_c, 0, 86, 80
2, 63904, Note_on_c, 0, 43, 0
2, 63908, Note_on_c, 0, 47, 0
2, 63910, Note_on_c, 0, 55, 0
2, 63913, Note_on_c, 0, 53, 0
2, 63941, Note_on_c, 0, 79, 0
2, 63941, Note_on_c, 0, 91, 0
2, 63943, Note_on_c, 0, 86, 0
2, 63951, Note_on_c, 0, 83, 0
2, 63991, Note_on_c, 0, 59, 80
2, 63991, Note_on_c, 0, 62, 80
2, 63993, Note_on_c, 0, 55, 80
2, 63993, Note_on_c, 0, 91, 80
2, 63995, Note_on_c, 0, 65, 80
2, 64001, Note_on_c, 0, 79, 80
2, 64034, Note_on_c, 0, 91, 0
2, 64036, Note_on_c, 0, 65, 0
2, 64036, Note_on_c, 0, 62, 0
2, 64036, Note_on_c, 0, 59, 0
2, 64038, Note_on_c, 0, 79, 0
2, 64038, Note_on_c, 0, 53, 80
2, 64042, Note_on_c, 0, 55, 0
2, 64044, Note_on_c, 0, 41, 80
2, 64044, Note_on_c, 0, 78, 80
2, 64046, Note_on_c, 0, 90, 80
2, 64132, Note_on_c, 0, 90, 0
2, 64132, Note_on_c, 0, 41, 0
2, 64134, Note_on_c, 0, 53, 0
2, 64140, Note_on_c, 0, 78, 0
2, 64150, Control_c, 0, 64, 127
2, 64166, Note_on_c, 0, 48, 80
2, 64166, Note_on_c, 0, 89, 80
2, 64170, Note_on_c, 0, 60, 80
2, 64170, Note_on_c, 0, 86, 80
2, 64176, Note_on_c, 0, 83, 80
2, 64177, Note_on_c, 0, 77, 80
2, 64216, Note_on_c, 0, 48, 0
2, 64242, Note_on_c, 0, 77, 0
2, 64244, Note_on_c, 0, 60, 0
2, 64246, Note_on_c, 0, 86, 0
2, 64248, Note_on_c, 0, 89, 0
2, 64251, Note_on_c, 0, 83, 0
2, 64253, Control_c, 0, 64, 0
2, 64281, Note_on_c, 0, 63, 80
2, 64283, Note_on_c, 0, 55, 80
2, 64283, Note_on_c, 0, 60, 80
2, 64287, Note_on_c, 0, 78, 80
2, 64287, Note_on_c, 0, 84, 80
2, 64287, Note_on_c, 0, 87, 80
2, 64287, Note_on_c, 0, 90, 80
2, 64325, Note_on_c, 0, 90, 0
2, 64325, Note_on_c, 0, 84, 0
2, 64325, Note_on_c, 0, 87, 0
2, 64327, Note_on_c, 0, 60, 0
2, 64327, Note_on_c, 0, 63, 0
2, 64329, Note_on_c, 0, 55, 0
2, 64329, Note_on_c, 0, 78, 0
2, 64353, Note_on_c, 0, 48, 80
2, 64353, Note_on_c, 0, 91, 80
2, 64357, Note_on_c, 0, 51, 80
2, 64357, Note_on_c, 0, 55, 80
2, 64357, Note_on_c, 0, 60, 80
2, 64359, Note_on_c, 0, 84, 80
2, 64361, Note_on_c, 0, 87, 80
2, 64363, Note_on_c, 0, 79, 80
2, 64407, Note_on_c, 0, 91, 0
2, 64407, Note_on_c, 0, 48, 0
2, 64411, Note_on_c, 0, 87, 0
2, 64413, Note_on_c, 0, 55, 0
2, 64413, Note_on_c, 0, 60, 0
2, 64415, Note_on_c, 0, 79, 0
2, 64415, Note_on_c, 0, 51, 0
2, 64416, Note_on_c, 0, 84, 0
2, 64474, Note_on_c, 0, 60, 80
2, 64474, Note_on_c, 0, 91, 80
2, 64476, Note_on_c, 0, 48, 80
2, 64478, Note_on_c, 0, 79, 80
2, 64478, Note_on_c, 0, 84, 80
2, 64478, Note_on_c, 0, 87, 80
2, 64500, Note_on_c, 0, 87, 0
2, 64500, Note_on_c, 0, 84, 0
2, 64510, Note_on_c, 0, 48, 0
2, 64510, Note_on_c, 0, 79, 0
2, 64510, Note_on_c, 0, 91, 0
2, 64510, Note_on_c, 0, 47, 80
2, 64515, Note_on_c, 0, 60, 0
2, 64517, Note_on_c, 0, 59, 80
2, 64517, Note_on_c, 0, 90, 80
2, 64519, Note_on_c, 0, 78, 80
2, 64519, Note_on_c, 0, 84, 80
2, 64519, Note_on_c, 0, 87, 80
2, 64558, Note_on_c, 0, 90, 0
2, 64560, Note_on_c, 0, 84, 0
2, 64561, Note_on_c, 0, 87, 0
2, 64563, Note_on_c, 0, 78, 0
2, 64593, Note_on_c, 0, 85, 80
2, 64593, Note_on_c, 0, 91, 80
2, 64597, Note_on_c, 0, 79, 80
2, 64601, Note_on_c, 0, 47, 0
2, 64607, Note_on_c, 0, 59, 0
2, 64619, Note_on_c, 0, 85, 0
2, 64633, Note_on_c, 0, 79, 0
2, 64639, Note_on_c, 0, 91, 0
2, 64639, Control_c, 0, 64, 127
2, 64641, Note_on_c, 0, 46, 80
2, 64645, Note_on_c, 0, 85, 80
2, 64645, Note_on_c, 0, 89, 80
2, 64647, Note_on_c, 0, 58, 80
2, 64649, Note_on_c, 0, 77, 80
2, 64687, Note_on_c, 0, 85, 0
2, 64693, Note_on_c, 0, 89, 0
2, 64695, Note_on_c, 0, 77, 0
2, 64699, Note_on_c, 0, 46, 0
2, 64721, Note_on_c, 0, 58, 0
2, 64725, Note_on_c, 0, 87, 80
2, 64728, Note_on_c, 0, 75, 80
2, 64751, Control_c, 0, 64, 0
2, 64760, Note_on_c, 0, 55, 80
2, 64764, Note_on_c, 0, 61, 80
2, 64764, Note_on_c, 0, 63, 80
2, 64766, Note_on_c, 0, 87, 0
2, 64766, Note_on_c, 0, 73, 80
2, 64768, Note_on_c, 0, 75, 0
2, 64770, Note_on_c, 0, 58, 80
2, 64772, Note_on_c, 0, 85, 80
2, 64803, Note_on_c, 0, 61, 0
2, 64805, Note_on_c, 0, 85, 0
2, 64809, Note_on_c, 0, 73, 0
2, 64811, Note_on_c, 0, 55, 0
2, 64813, Note_on_c, 0, 63, 0
2, 64825, Note_on_c, 0, 58, 0
2, 64840, Note_on_c, 0, 66, 80
2, 64844, Note_on_c, 0, 78, 80
2, 64886, Note_on_c, 0, 66, 0
2, 64888, Note_on_c, 0, 39, 80
2, 64894, Note_on_c, 0, 78, 0
2, 64894, Note_on_c, 0, 79, 80
2, 64896, Note_on_c, 0, 67, 80
2, 64896, Note_on_c, 0, 73, 80
2, 64936, Note_on_c, 0, 73, 0
2, 64936, Note_on_c, 0, 67, 0
2, 64938, Note_on_c, 0, 39, 0
2, 64942, Note_on_c, 0, 79, 0
2, 64969, Note_on_c, 0, 72, 80
2, 64979, Note_on_c, 0, 84, 80
2, 65011, Note_on_c, 0, 55, 80
2, 65013, Note_on_c, 0, 61, 80
2, 65013, Note_on_c, 0, 63, 80
2, 65015, Note_on_c, 0, 70, 80
2, 65016, Note_on_c, 0, 84, 0
2, 65016, Note_on_c, 0, 72, 0
2, 65016, Note_on_c, 0, 58, 80
2, 65018, Note_on_c, 0, 82, 80
2, 65057, Note_on_c, 0, 61, 0
2, 65057, Note_on_c, 0, 55, 0
2, 65063, Note_on_c, 0, 63, 0
2, 65063, Note_on_c, 0, 70, 0
2, 65064, Note_on_c, 0, 82, 0
2, 65094, Note_on_c, 0, 73, 80
2, 65096, Note_on_c, 0, 67, 80
2, 65100, Note_on_c, 0, 79, 80
2, 65104, Note_on_c, 0, 58, 0
2, 65124, Control_c, 0, 64, 127
2, 65134, Note_on_c, 0, 73, 0
2, 65134, Note_on_c, 0, 67, 0
2, 65134, Note_on_c, 0, 79, 0
2, 65136, Note_on_c, 0, 44, 80
2, 65137, Note_on_c, 0, 56, 80
2, 65139, Note_on_c, 0, 65, 80
2, 65141, Note_on_c, 0, 72, 80
2, 65145, Note_on_c, 0, 77, 80
2, 65161, Note_on_c, 0, 72, 0
2, 65178, Note_on_c, 0, 65, 0
2, 65182, Note_on_c, 0, 77, 0
2, 65189, Note_on_c, 0, 72, 80
2, 65211, Note_on_c, 0, 73, 80
2, 65224, Note_on_c, 0, 44, 0
2, 65226, Note_on_c, 0, 74, 80
2, 65230, Note_on_c, 0, 72, 0
2, 65233, Control_c, 0, 64, 0
2, 65235, Note_on_c, 0, 56, 0
2, 65239, Note_on_c, 0, 75, 80
2, 65247, Note_on_c, 0, 73, 0
2, 65255, Note_on_c, 0, 76, 80
2, 65260, Note_on_c, 0, 74, 0
2, 65260, Note_on_c, 0, 51, 80
2, 65262, Note_on_c, 0, 56, 80
2, 65262, Note_on_c, 0, 60, 80
2, 65272, Note_on_c, 0, 77, 80
2, 65274, Note_on_c, 0, 75, 0
2, 65292, Note_on_c, 0, 76, 0
2, 65306, Note_on_c, 0, 77, 0
2, 65316, Note_on_c, 0, 63, 80
2, 65322, Note_on_c, 0, 56, 0
2, 65322, Note_on_c, 0, 60, 0
2, 65322, Note_on_c, 0, 75, 80
2, 65326, Note_on_c, 0, 51, 0
2, 65372, Note_on_c, 0, 51, 80
2, 65376, Note_on_c, 0, 56, 80
2, 65377, Note_on_c, 0, 60, 80
2, 65424, Note_on_c, 0, 51, 0
2, 65424, Note_on_c, 0, 75, 0
2, 65425, Note_on_c, 0, 63, 0
2, 65427, Note_on_c, 0, 60, 0
2, 65427, Note_on_c, 0, 56, 0
2, 65453, Note_on_c, 0, 63, 80
2, 65463, Note_on_c, 0, 75, 80
2, 65496, Note_on_c, 0, 75, 0
2, 65496, Note_on_c, 0, 44, 80
2, 65500, Note_on_c, 0, 63, 0
2, 65500, Note_on_c, 0, 65, 80
2, 65502, Note_on_c, 0, 72, 80
2, 65504, Note_on_c, 0, 56, 80
2, 65510, Note_on_c, 0, 77, 80
2, 65546, Note_on_c, 0, 72, 0
2, 65546, Note_on_c, 0, 65, 0
2, 65548, Note_on_c, 0, 77, 0
2, 65570, Note_on_c, 0, 44, 0
2, 65589, Note_on_c, 0, 66, 80
2, 65589, Note_on_c, 0, 72, 80
2, 65589, Note_on_c, 0, 75, 80
2, 65589, Note_on_c, 0, 78, 80
2, 65598, Note_on_c, 0, 56, 0
2, 65615, Control_c, 0, 64, 127
2, 65692, Note_on_c, 0, 48, 80
2, 65711, Note_on_c, 0, 75, 0
2, 65711, Note_on_c, 0, 66, 0
2, 65711, Note_on_c, 0, 72, 0
2, 65716, Note_on_c, 0, 78, 0
2, 65720, Note_on_c, 0, 51, 80
2, 65726, Control_c, 0, 64, 0
2, 65758, Note_on_c, 0, 54, 80
2, 65772, Note_on_c, 0, 48, 0
2, 65794, Note_on_c, 0, 51, 0
2, 65794, Note_on_c, 0, 57, 80
2, 65804, Note_on_c, 0, 54, 0
2, 65832, Note_on_c, 0, 60, 80
2, 65856, Note_on_c, 0, 57, 0
2, 65863, Note_on_c, 0, 63, 80
2, 65876, Note_on_c, 0, 60, 0
2, 65898, Note_on_c, 0, 66, 80
2, 65916, Note_on_c, 0, 63, 0
2, 65932, Note_on_c, 0, 69, 80
2, 65940, Note_on_c, 0, 66, 0
2, 65960, Note_on_c, 0, 72, 80
2, 65976, Note_on_c, 0, 69, 0
2, 65993, Note_on_c, 0, 75, 80
2, 66000, Note_on_c, 0, 72, 0
2, 66023, Note_on_c, 0, 78, 80
2, 66030, Note_on_c, 0, 75, 0
2, 66062, Note_on_c, 0, 79, 80
2, 66080, Note_on_c, 0, 78, 0
2, 66090, Note_on_c, 0, 54, 80
2, 66097, Note_on_c, 0, 81, 80
2, 66116, Note_on_c, 0, 82, 80
2, 66118, Note_on_c, 0, 55, 80
2, 66120, Note_on_c, 0, 79, 0
2, 66127, Note_on_c, 0, 83, 80
2, 66135, Note_on_c, 0, 54, 0
2, 66137, Note_on_c, 0, 63, 80
2, 66139, Note_on_c, 0, 82, 0
2, 66139, Control_c, 0, 64, 127
2, 66141, Note_on_c, 0, 51, 80
2, 66141, Note_on_c, 0, 58, 80
2, 66143, Note_on_c, 0, 81, 0
2, 66152, Note_on_c, 0, 84, 80
2, 66237, Note_on_c, 0, 84, 0
2, 66244, Note_on_c, 0, 83, 0
2, 66248, Control_c, 0, 64, 0
2, 66274, Note_on_c, 0, 72, 80
2, 66278, Note_on_c, 0, 80, 80
2, 66282, Note_on_c, 0, 58, 0
2, 66284, Note_on_c, 0, 63, 0
2, 66284, Note_on_c, 0, 55, 0
2, 66312, Note_on_c, 0, 72, 0
2, 66315, Note_on_c, 0, 80, 0
2, 66337, Note_on_c, 0, 63, 80
2, 66339, Note_on_c, 0, 58, 80
2, 66345, Note_on_c, 0, 82, 80
2, 66347, Note_on_c, 0, 67, 80
2, 66347, Note_on_c, 0, 79, 80
2, 66449, Note_on_c, 0, 51, 0
2, 66455, Note_on_c, 0, 67, 0
2, 66456, Note_on_c, 0, 58, 0
2, 66460, Note_on_c, 0, 63, 0
2, 66532, Note_on_c, 0, 53, 80
2, 66536, Note_on_c, 0, 46, 80
2, 66538, Note_on_c, 0, 58, 80
2, 66578, Note_on_c, 0, 79, 0
2, 66580, Note_on_c, 0, 58, 0
2, 66582, Note_on_c, 0, 82, 0
2, 66604, Note_on_c, 0, 46, 0
2, 66643, Note_on_c, 0, 53, 0
2, 66643, Control_c, 0, 64, 127
2, 66657, Note_on_c, 0, 46, 80
2, 66657, Note_on_c, 0, 55, 80
2, 66737, Note_on_c, 0, 91, 80
2, 66744, Control_c, 0, 64, 0
2, 66776, Note_on_c, 0, 91, 0
2, 66791, Note_on_c, 0, 86, 80
2, 66842, Note_on_c, 0, 63, 80
2, 66846, Note_on_c, 0, 58, 80
2, 66848, Note_on_c, 0, 67, 80
2, 66861, Note_on_c, 0, 89, 80
2, 66863, Note_on_c, 0, 86, 0
2, 66905, Note_on_c, 0, 89, 0
2, 66909, Note_on_c, 0, 87, 80
2, 66942, Note_on_c, 0, 46, 0
2, 66944, Note_on_c, 0, 58, 0
2, 66946, Note_on_c, 0, 63, 0
2, 66946, Note_on_c, 0, 67, 0
2, 66950, Note_on_c, 0, 55, 0
2, 66982, Note_on_c, 0, 87, 0
2, 66994, Note_on_c, 0, 79, 80
2, 67032, Note_on_c, 0, 79, 0
2, 67036, Note_on_c, 0, 45, 80
2, 67038, Note_on_c, 0, 54, 80
2, 67038, Note_on_c, 0, 86, 80
2, 67040, Note_on_c, 0, 81, 80
2, 67080, Note_on_c, 0, 86, 0
2, 67082, Note_on_c, 0, 81, 0
2, 67116, Note_on_c, 0, 84, 80
2, 67122, Note_on_c, 0, 81, 80
2, 67138, Note_on_c, 0, 54, 0
2, 67138, Note_on_c, 0, 45, 0
2, 67148, Control_c, 0, 64, 127
2, 67155, Note_on_c, 0, 53, 80
2, 67157, Note_on_c, 0, 44, 80
2, 67177, Note_on_c, 0, 84, 0
2, 67177, Note_on_c, 0, 81, 0
2, 67235, Note_on_c, 0, 84, 80
2, 67237, Note_on_c, 0, 80, 80
2, 67245, Control_c, 0, 64, 0
2, 67276, Note_on_c, 0, 80, 0
2, 67276, Note_on_c, 0, 84, 0
2, 67278, Note_on_c, 0, 79, 80
2, 67284, Note_on_c, 0, 82, 80
2, 67324, Note_on_c, 0, 65, 80
2, 67330, Note_on_c, 0, 82, 0
2, 67330, Note_on_c, 0, 56, 80
2, 67330, Note_on_c, 0, 62, 80
2, 67332, Note_on_c, 0, 79, 0
2, 67332, Note_on_c, 0, 74, 80
2, 67340, Note_on_c, 0, 58, 80
2, 67430, Note_on_c, 0, 44, 0
2, 67432, Note_on_c, 0, 62, 0
2, 67436, Note_on_c, 0, 74, 0
2, 67436, Note_on_c, 0, 65, 0
2, 67436, Note_on_c, 0, 56, 0
2, 67436, Note_on_c, 0, 58, 0
2, 67438, Note_on_c, 0, 53, 0
2, 67467, Note_on_c, 0, 84, 80
2, 67469, Note_on_c, 0, 80, 80
2, 67510, Note_on_c, 0, 80, 0
2, 67510, Note_on_c, 0, 84, 0
2, 67512, Note_on_c, 0, 46, 80
2, 67512, Note_on_c, 0, 79, 80
2, 67513, Note_on_c, 0, 58, 80
2, 67515, Note_on_c, 0, 82, 80
2, 67549, Note_on_c, 0, 46, 0
2, 67565, Note_on_c, 0, 79, 0
2, 67567, Note_on_c, 0, 74, 80
2, 67569, Note_on_c, 0, 82, 0
2, 67609, Note_on_c, 0, 58, 0
2, 67619, Control_c, 0, 64, 127
2, 67623, Note_on_c, 0, 45, 80
2, 67623, Note_on_c, 0, 57, 80
2, 67639, Note_on_c, 0, 74, 0
2, 67667, Note_on_c, 0, 45, 0
2, 67693, Note_on_c, 0, 57, 0
2, 67747, Note_on_c, 0, 53, 80
2, 67747, Note_on_c, 0, 57, 80
2, 67747, Note_on_c, 0, 60, 80
2, 67747, Note_on_c, 0, 63, 80
2, 67749, Control_c, 0, 64, 0
2, 67752, Note_on_c, 0, 69, 80
2, 67752, Note_on_c, 0, 75, 80
2, 67754, Note_on_c, 0, 78, 80
2, 67784, Note_on_c, 0, 60, 0
2, 67788, Note_on_c, 0, 63, 0
2, 67790, Note_on_c, 0, 75, 0
2, 67790, Note_on_c, 0, 69, 0
2, 67790, Note_on_c, 0, 78, 0
2, 67792, Note_on_c, 0, 53, 0
2, 67806, Note_on_c, 0, 57, 0
2, 67828, Note_on_c, 0, 79, 80
2, 67865, Note_on_c, 0, 79, 0
2, 67865, Note_on_c, 0, 46, 80
2, 67869, Note_on_c, 0, 58, 80
2, 67871, Note_on_c, 0, 75, 80
2, 67876, Note_on_c, 0, 67, 80
2, 67904, Note_on_c, 0, 77, 80
2, 67908, Note_on_c, 0, 67, 0
2, 67908, Note_on_c, 0, 75, 0
2, 67936, Note_on_c, 0, 46, 0
2, 67942, Note_on_c, 0, 58, 0
2, 67944, Note_on_c, 0, 75, 80
2, 67945, Note_on_c, 0, 77, 0
2, 67979, Note_on_c, 0, 53, 80
2, 67981, Note_on_c, 0, 75, 0
2, 67983, Note_on_c, 0, 68, 80
2, 67987, Note_on_c, 0, 74, 80
2, 67989, Note_on_c, 0, 58, 80
2, 67989, Note_on_c, 0, 62, 80
2, 67994, Note_on_c, 0, 77, 80
2, 68024, Note_on_c, 0, 74, 0
2, 68024, Note_on_c, 0, 68, 0
2, 68026, Note_on_c, 0, 58, 0
2, 68026, Note_on_c, 0, 53, 0
2, 68026, Note_on_c, 0, 77, 0
2, 68026, Note_on_c, 0, 62, 0
2, 68054, Note_on_c, 0, 63, 80
2, 68056, Note_on_c, 0, 51, 80
2, 68062, Note_on_c, 0, 58, 80
2, 68064, Note_on_c, 0, 67, 80
2, 68064, Note_on_c, 0, 75, 80
2, 68121, Control_c, 0, 64, 127
2, 68149, Note_on_c, 0, 67, 0
2, 68151, Note_on_c, 0, 58, 0
2, 68151, Note_on_c, 0, 75, 0
2, 68151, Note_on_c, 0, 51, 0
2, 68153, Note_on_c, 0, 63, 0
2, 68181, Note_on_c, 0, 46, 80
2, 68184, Note_on_c, 0, 70, 80
2, 68186, Note_on_c, 0, 58, 80
2, 68190, Note_on_c, 0, 82, 80
2, 68222, Note_on_c, 0, 70, 0
2, 68224, Control_c, 0, 64, 0
2, 68230, Note_on_c, 0, 82, 0
2, 68230, Note_on_c, 0, 69, 80
2, 68230, Note_on_c, 0, 81, 80
2, 68263, Note_on_c, 0, 69, 0
2, 68271, Note_on_c, 0, 81, 0
2, 68283, Note_on_c, 0, 70, 80
2, 68289, Note_on_c, 0, 82, 80
2, 68302, Note_on_c, 0, 46, 0
2, 68307, Note_on_c, 0, 58, 0
2, 68326, Note_on_c, 0, 70, 0
2, 68328, Note_on_c, 0, 82, 0
2, 68335, Note_on_c, 0, 57, 80
2, 68337, Note_on_c, 0, 45, 80
2, 68343, Note_on_c, 0, 71, 80
2, 68349, Note_on_c, 0, 83, 80
2, 68387, Note_on_c, 0, 71, 0
2, 68393, Note_on_c, 0, 83, 0
2, 68407, Note_on_c, 0, 72, 80
2, 68407, Note_on_c, 0, 84, 80
2, 68411, Note_on_c, 0, 79, 80
2, 68424, Note_on_c, 0, 45, 0
2, 68425, Note_on_c, 0, 79, 0
2, 68435, Note_on_c, 0, 57, 0
2, 68443, Note_on_c, 0, 72, 0
2, 68450, Note_on_c, 0, 84, 0
2, 68458, Note_on_c, 0, 46, 80
2, 68458, Note_on_c, 0, 56, 80
2, 68462, Note_on_c, 0, 79, 80
2, 68462, Note_on_c, 0, 85, 80
2, 68466, Note_on_c, 0, 73, 80
2, 68466, Note_on_c, 0, 82, 80
2, 68488, Note_on_c, 0, 79, 0
2, 68492, Note_on_c, 0, 82, 0
2, 68508, Note_on_c, 0, 85, 0
2, 68508, Note_on_c, 0, 46, 0
2, 68514, Note_on_c, 0, 73, 0
2, 68528, Note_on_c, 0, 74, 80
2, 68528, Note_on_c, 0, 79, 80
2, 68532, Note_on_c, 0, 82, 80
2, 68536, Note_on_c, 0, 86, 80
2, 68552, Note_on_c, 0, 79, 0
2, 68556, Note_on_c, 0, 82, 0
2, 68566, Note_on_c, 0, 74, 0
2, 68569, Note_on_c, 0, 86, 0
2, 68571, Note_on_c, 0, 56, 0
2, 68571, Control_c, 0, 64, 127
2, 68586, Note_on_c, 0, 46, 80
2, 68586, Note_on_c, 0, 55, 80
2, 68592, Note_on_c, 0, 75, 80
2, 68592, Note_on_c, 0, 85, 80
2, 68593, Note_on_c, 0, 79, 80
2, 68593, Note_on_c, 0, 82, 80
2, 68593, Note_on_c, 0, 87, 80
2, 68627, Note_on_c, 0, 85, 0
2, 68627, Note_on_c, 0, 75, 0
2, 68631, Note_on_c, 0, 82, 0
2, 68631, Note_on_c, 0, 79, 0
2, 68631, Note_on_c, 0, 87, 0
2, 68659, Note_on_c, 0, 46, 0
2, 68661, Note_on_c, 0, 55, 0
2, 68666, Note_on_c, 0, 72, 80
2, 68666, Note_on_c, 0, 79, 80
2, 68672, Note_on_c, 0, 84, 80
2, 68692, Note_on_c, 0, 79, 0
2, 68709, Note_on_c, 0, 46, 80
2, 68709, Note_on_c, 0, 53, 80
2, 68711, Control_c, 0, 64, 0
2, 68711, Note_on_c, 0, 70, 80
2, 68712, Note_on_c, 0, 84, 0
2, 68712, Note_on_c, 0, 72, 0
2, 68714, Note_on_c, 0, 58, 80
2, 68716, Note_on_c, 0, 79, 80
2, 68722, Note_on_c, 0, 82, 80
2, 68756, Note_on_c, 0, 79, 0
2, 68761, Note_on_c, 0, 70, 0
2, 68763, Note_on_c, 0, 82, 0
2, 68784, Note_on_c, 0, 46, 0
2, 68789, Note_on_c, 0, 58, 0
2, 68791, Note_on_c, 0, 72, 80
2, 68793, Note_on_c, 0, 53, 0
2, 68795, Note_on_c, 0, 79, 80
2, 68795, Note_on_c, 0, 84, 80
2, 68817, Note_on_c, 0, 79, 0
2, 68835, Note_on_c, 0, 84, 0
2, 68835, Note_on_c, 0, 63, 80
2, 68837, Note_on_c, 0, 72, 0
2, 68837, Note_on_c, 0, 51, 80
2, 68839, Note_on_c, 0, 58, 80
2, 68839, Note_on_c, 0, 75, 80
2, 68843, Note_on_c, 0, 67, 80
2, 68843, Note_on_c, 0, 79, 80
2, 68875, Note_on_c, 0, 75, 0
2, 68879, Note_on_c, 0, 67, 0
2, 68879, Note_on_c, 0, 63, 0
2, 68879, Note_on_c, 0, 79, 0
2, 68880, Note_on_c, 0, 51, 0
2, 68880, Note_on_c, 0, 58, 0
2, 68904, Note_on_c, 0, 46, 80
2, 68906, Note_on_c, 0, 70, 80
2, 68906, Note_on_c, 0, 78, 80
2, 68908, Note_on_c, 0, 58, 80
2, 68918, Note_on_c, 0, 82, 80
2, 68940, Note_on_c, 0, 70, 0
2, 68948, Note_on_c, 0, 82, 0
2, 68950, Note_on_c, 0, 78, 0
2, 68950, Note_on_c, 0, 84, 80
2, 68952, Note_on_c, 0, 72, 80
2, 68953, Note_on_c, 0, 79, 80
2, 68983, Note_on_c, 0, 46, 0
2, 68989, Note_on_c, 0, 58, 0
2, 69015, Note_on_c, 0, 57, 80
2, 69019, Note_on_c, 0, 72, 0
2, 69019, Note_on_c, 0, 79, 0
2, 69019, Note_on_c, 0, 45, 80
2, 69023, Note_on_c, 0, 84, 0
2, 69047, Control_c, 0, 64, 127
2, 69065, Note_on_c, 0, 75, 80
2, 69065, Note_on_c, 0, 87, 80
2, 69157, Note_on_c, 0, 45, 0
2, 69165, Note_on_c, 0, 87, 0
2, 69167, Note_on_c, 0, 75, 0
2, 69167, Note_on_c, 0, 57, 0
2, 69181, Control_c, 0, 64, 0
2, 69181, Note_on_c, 0, 46, 80
2, 69181, Note_on_c, 0, 56, 80
2, 69187, Note_on_c, 0, 78, 80
2, 69191, Note_on_c, 0, 90, 80
2, 69239, Note_on_c, 0, 90, 0
2, 69240, Note_on_c, 0, 78, 0
2, 69242, Note_on_c, 0, 56, 0
2, 69261, Note_on_c, 0, 55, 80
2, 69263, Note_on_c, 0, 91, 80
2, 69264, Note_on_c, 0, 79, 80
2, 69357, Note_on_c, 0, 79, 0
2, 69357, Note_on_c, 0, 91, 0
2, 69364, Note_on_c, 0, 46, 0
2, 69368, Note_on_c, 0, 55, 0
2, 69390, Note_on_c, 0, 75, 80
2, 69390, Note_on_c, 0, 87, 80
2, 69392, Note_on_c, 0, 80, 80
2, 69429, Note_on_c, 0, 80, 0
2, 69429, Note_on_c, 0, 87, 0
2, 69429, Note_on_c, 0, 75, 0
2, 69431, Note_on_c, 0, 72, 80
2, 69432, Note_on_c, 0, 58, 80
2, 69434, Note_on_c, 0, 46, 80
2, 69434, Note_on_c, 0, 79, 80
2, 69438, Note_on_c, 0, 84, 80
2, 69462, Note_on_c, 0, 46, 0
2, 69468, Note_on_c, 0, 79, 0
2, 69468, Note_on_c, 0, 72, 0
2, 69472, Note_on_c, 0, 58, 0
2, 69476, Note_on_c, 0, 84, 0
2, 69494, Note_on_c, 0, 55, 80
2, 69500, Note_on_c, 0, 51, 80
2, 69504, Note_on_c, 0, 58, 80
2, 69504, Note_on_c, 0, 63, 80
2, 69505, Note_on_c, 0, 75, 80
2, 69505, Note_on_c, 0, 79, 80
2, 69505, Note_on_c, 0, 85, 80
2, 69505, Note_on_c, 0, 87, 80
2, 69509, Note_on_c, 0, 82, 80
2, 69535, Control_c, 0, 64, 127
2, 69557, Note_on_c, 0, 51, 0
2, 69559, Note_on_c, 0, 87, 0
2, 69559, Note_on_c, 0, 75, 0
2, 69559, Note_on_c, 0, 79, 0
2, 69559, Note_on_c, 0, 58, 0
2, 69559, Note_on_c, 0, 85, 0
2, 69561, Note_on_c, 0, 55, 0
2, 69563, Note_on_c, 0, 63, 0
2, 69565, Note_on_c, 0, 82, 0
2, 69615, Note_on_c, 0, 51, 80
2, 69619, Note_on_c, 0, 75, 80
2, 69621, Note_on_c, 0, 58, 80
2, 69621, Note_on_c, 0, 63, 80
2, 69623, Note_on_c, 0, 87, 80
2, 69626, Note_on_c, 0, 79, 80
2, 69626, Note_on_c, 0, 82, 80
2, 69645, Note_on_c, 0, 79, 0
2, 69647, Note_on_c, 0, 58, 0
2, 69663, Control_c, 0, 64, 0
2, 69665, Note_on_c, 0, 46, 80
2, 69667, Note_on_c, 0, 72, 80
2, 69669, Note_on_c, 0, 87, 0
2, 69669, Note_on_c, 0, 63, 0
2, 69669, Note_on_c, 0, 75, 0
2, 69669, Note_on_c, 0, 79, 80
2, 69671, Note_on_c, 0, 58, 80
2, 69676, Note_on_c, 0, 51, 0
2, 69728, Note_on_c, 0, 46, 0
2, 69734, Note_on_c, 0, 58, 0
2, 69736, Note_on_c, 0, 72, 0
2, 69738, Note_on_c, 0, 82, 0
2, 69742, Note_on_c, 0, 79, 0
2, 69786, Note_on_c, 0, 46, 80
2, 69790, Note_on_c, 0, 39, 80
2, 69790, Note_on_c, 0, 67, 80
2, 69790, Note_on_c, 0, 73, 80
2, 69790, Note_on_c, 0, 75, 80
2, 69790, Note_on_c, 0, 79, 80
2, 70107, Control_c, 0, 64, 127
2, 70196, Note_on_c, 0, 79, 0
2, 70196, Note_on_c, 0, 46, 0
2, 70196, Note_on_c, 0, 39, 0
2, 70198, Note_on_c, 0, 67, 0
2, 70198, Note_on_c, 0, 75, 0
2, 70201, Note_on_c, 0, 73, 0
2, 70316, Control_c, 0, 64, 0
2, 70316, End_track
3, 0, Start_track
3, 0, Title_t, "c/b Jelly Roll Morton"
3, 0, End_track
4, 0, Start_track
4, 0, Title_t, "p/b F. Morton"
4, 0, End_track
5, 0, Start_track
5, 0, Title_t, "Jazz Classics"
5, 0, End_track
6, 0, Start_track
6, 0, Title_t, "Scan of a player piano roll"
6, 0, End_track
7, 0, Start_track
7, 0, Title_t, "by Terry Smythe, Winnipeg, Canada"
7, 0, End_track
8, 0, Start_track
8, 1, Copyright_t, "___________________________________________________\012\012KUNSTDERFUGE.COM LARGE CLASSICAL MIDI COLLECTION\012ONCLASSICAL BY ALESSANDRO SIMONETTO, PROPRIETOR\012___________________________________________________\012\012! Attention: this file is under copyright !\012\012(c)onclassical, (nc)smythe, 2010\012___________________________________________________\012\012NO ONE MAY REPUBLISH THIS FILE WITHOUT PERMISSION\012COMMERCIAL USES OF THIS FILE IS STRICTLY PROHIBITED\012___________________________________________________\012\012Files & contributor's list: http://kunstderfuge.com/\012Terms and conditions: http://kunstderfuge.com/notes.htm"
8, 1, End_track
0, 0, End_of_file
