0, 0, Header, 1, 8, 192
1, 0, Start_track
1, 0, Title_t, "461S"
1, 0, Copyright_t, "May NOT be used for commercial purposes."
1, 0, Text_t, "Roll expression/accent tracks, where present, converted to MIDI velocties.\012"
1, 0, Time_signature, 4, 2, 24, 8
1, 0, Key_signature, 0, "major"
1, 0, Tempo, 500000
1, 0, Marker_t, "Standard MIDI:LPI 131:Tempo  60: 10-30-2003"
1, 0, End_track
2, 0, Start_track
2, 0, Title_t, "Joe Lamb's Old Rag (1907)"
2, 308, Note_on_c, 0, 72, 80
2, 308, Note_on_c, 0, 75, 80
2, 308, Note_on_c, 0, 78, 80
2, 308, Note_on_c, 0, 84, 80
2, 311, Note_on_c, 0, 54, 80
2, 313, Note_on_c, 0, 42, 80
2, 326, Note_on_c, 0, 78, 0
2, 326, Note_on_c, 0, 75, 0
2, 372, Note_on_c, 0, 72, 0
2, 372, Note_on_c, 0, 69, 80
2, 372, Note_on_c, 0, 75, 80
2, 375, Note_on_c, 0, 54, 0
2, 378, Note_on_c, 0, 78, 80
2, 383, Note_on_c, 0, 84, 0
2, 383, Note_on_c, 0, 81, 80
2, 387, Note_on_c, 0, 75, 0
2, 395, Note_on_c, 0, 78, 0
2, 422, Note_on_c, 0, 69, 0
2, 422, Note_on_c, 0, 81, 0
2, 425, Note_on_c, 0, 71, 80
2, 428, Note_on_c, 0, 42, 0
2, 428, Note_on_c, 0, 60, 80
2, 428, Note_on_c, 0, 75, 80
2, 428, Note_on_c, 0, 78, 80
2, 428, Note_on_c, 0, 83, 80
2, 431, Note_on_c, 0, 63, 80
2, 433, Note_on_c, 0, 54, 80
2, 433, Note_on_c, 0, 57, 80
2, 443, Note_on_c, 0, 55, 80
2, 446, Note_on_c, 0, 75, 0
2, 449, Note_on_c, 0, 78, 0
2, 461, Note_on_c, 0, 55, 0
2, 491, Note_on_c, 0, 72, 80
2, 496, Note_on_c, 0, 84, 80
2, 499, Note_on_c, 0, 83, 0
2, 499, Note_on_c, 0, 78, 80
2, 504, Note_on_c, 0, 71, 0
2, 504, Note_on_c, 0, 75, 80
2, 516, Note_on_c, 0, 78, 0
2, 521, Note_on_c, 0, 75, 0
2, 543, Note_on_c, 0, 72, 0
2, 548, Note_on_c, 0, 54, 0
2, 548, Note_on_c, 0, 60, 0
2, 552, Note_on_c, 0, 45, 80
2, 555, Note_on_c, 0, 84, 0
2, 555, Note_on_c, 0, 75, 80
2, 558, Note_on_c, 0, 63, 0
2, 558, Note_on_c, 0, 69, 80
2, 558, Note_on_c, 0, 78, 80
2, 558, Note_on_c, 0, 81, 80
2, 571, Note_on_c, 0, 78, 0
2, 571, Note_on_c, 0, 75, 0
2, 607, Note_on_c, 0, 69, 0
2, 610, Note_on_c, 0, 81, 0
2, 615, Note_on_c, 0, 71, 80
2, 615, Note_on_c, 0, 75, 80
2, 615, Note_on_c, 0, 78, 80
2, 615, Note_on_c, 0, 83, 80
2, 632, Note_on_c, 0, 78, 0
2, 632, Note_on_c, 0, 75, 0
2, 645, Note_on_c, 0, 63, 80
2, 669, Note_on_c, 0, 83, 0
2, 669, Note_on_c, 0, 60, 80
2, 669, Note_on_c, 0, 72, 80
2, 669, Note_on_c, 0, 84, 80
2, 676, Note_on_c, 0, 71, 0
2, 676, Note_on_c, 0, 75, 80
2, 676, Note_on_c, 0, 78, 80
2, 679, Note_on_c, 0, 54, 80
2, 684, Note_on_c, 0, 45, 0
2, 692, Note_on_c, 0, 78, 0
2, 692, Note_on_c, 0, 75, 0
2, 721, Note_on_c, 0, 84, 0
2, 726, Note_on_c, 0, 72, 0
2, 736, Note_on_c, 0, 81, 80
2, 739, Note_on_c, 0, 69, 80
2, 739, Note_on_c, 0, 75, 80
2, 739, Note_on_c, 0, 78, 80
2, 751, Note_on_c, 0, 78, 0
2, 751, Note_on_c, 0, 75, 0
2, 778, Note_on_c, 0, 54, 0
2, 781, Note_on_c, 0, 81, 0
2, 789, Note_on_c, 0, 71, 80
2, 793, Note_on_c, 0, 69, 0
2, 793, Note_on_c, 0, 75, 80
2, 793, Note_on_c, 0, 78, 80
2, 796, Note_on_c, 0, 48, 80
2, 799, Note_on_c, 0, 83, 80
2, 809, Note_on_c, 0, 78, 0
2, 809, Note_on_c, 0, 75, 0
2, 821, Note_on_c, 0, 57, 0
2, 848, Note_on_c, 0, 83, 0
2, 848, Note_on_c, 0, 71, 0
2, 853, Note_on_c, 0, 72, 80
2, 853, Note_on_c, 0, 84, 80
2, 856, Note_on_c, 0, 63, 0
2, 859, Note_on_c, 0, 75, 80
2, 859, Note_on_c, 0, 78, 80
2, 876, Note_on_c, 0, 78, 0
2, 876, Note_on_c, 0, 75, 0
2, 898, Note_on_c, 0, 48, 0
2, 903, Note_on_c, 0, 59, 80
2, 906, Note_on_c, 0, 84, 0
2, 906, Note_on_c, 0, 63, 80
2, 911, Note_on_c, 0, 72, 0
2, 911, Note_on_c, 0, 54, 80
2, 911, Note_on_c, 0, 69, 80
2, 911, Note_on_c, 0, 78, 80
2, 913, Note_on_c, 0, 57, 80
2, 913, Note_on_c, 0, 81, 80
2, 916, Note_on_c, 0, 75, 80
2, 919, Note_on_c, 0, 59, 0
2, 924, Note_on_c, 0, 61, 80
2, 927, Note_on_c, 0, 78, 0
2, 932, Note_on_c, 0, 75, 0
2, 939, Note_on_c, 0, 61, 0
2, 963, Note_on_c, 0, 81, 0
2, 976, Note_on_c, 0, 69, 0
2, 976, Note_on_c, 0, 75, 80
2, 976, Note_on_c, 0, 78, 80
2, 976, Note_on_c, 0, 83, 80
2, 979, Note_on_c, 0, 71, 80
2, 988, Note_on_c, 0, 60, 0
2, 993, Note_on_c, 0, 75, 0
2, 993, Note_on_c, 0, 78, 0
2, 1028, Note_on_c, 0, 83, 0
2, 1032, Note_on_c, 0, 71, 0
2, 1032, Note_on_c, 0, 72, 80
2, 1032, Note_on_c, 0, 75, 80
2, 1032, Note_on_c, 0, 78, 80
2, 1032, Note_on_c, 0, 84, 80
2, 1035, Note_on_c, 0, 54, 0
2, 1035, Note_on_c, 0, 51, 80
2, 1048, Note_on_c, 0, 78, 0
2, 1051, Note_on_c, 0, 75, 0
2, 1060, Note_on_c, 0, 57, 0
2, 1080, Note_on_c, 0, 72, 0
2, 1089, Note_on_c, 0, 84, 0
2, 1089, Note_on_c, 0, 69, 80
2, 1094, Note_on_c, 0, 75, 80
2, 1094, Note_on_c, 0, 78, 80
2, 1094, Note_on_c, 0, 81, 80
2, 1111, Note_on_c, 0, 78, 0
2, 1111, Note_on_c, 0, 75, 0
2, 1146, Note_on_c, 0, 81, 0
2, 1146, Note_on_c, 0, 57, 80
2, 1149, Note_on_c, 0, 71, 80
2, 1149, Note_on_c, 0, 83, 80
2, 1152, Note_on_c, 0, 69, 0
2, 1152, Note_on_c, 0, 60, 80
2, 1152, Note_on_c, 0, 75, 80
2, 1152, Note_on_c, 0, 78, 80
2, 1156, Note_on_c, 0, 54, 80
2, 1166, Note_on_c, 0, 75, 0
2, 1166, Note_on_c, 0, 51, 0
2, 1169, Note_on_c, 0, 78, 0
2, 1205, Note_on_c, 0, 83, 0
2, 1205, Note_on_c, 0, 72, 80
2, 1205, Note_on_c, 0, 84, 80
2, 1213, Note_on_c, 0, 75, 80
2, 1213, Note_on_c, 0, 78, 80
2, 1221, Note_on_c, 0, 71, 0
2, 1260, Note_on_c, 0, 54, 0
2, 1263, Note_on_c, 0, 64, 80
2, 1266, Note_on_c, 0, 63, 0
2, 1269, Note_on_c, 0, 78, 0
2, 1269, Note_on_c, 0, 84, 0
2, 1269, Note_on_c, 0, 72, 0
2, 1269, Note_on_c, 0, 75, 0
2, 1272, Note_on_c, 0, 60, 0
2, 1272, Note_on_c, 0, 52, 80
2, 1274, Note_on_c, 0, 67, 80
2, 1274, Note_on_c, 0, 79, 80
2, 1294, Note_on_c, 0, 57, 0
2, 1328, Note_on_c, 0, 67, 0
2, 1333, Note_on_c, 0, 79, 0
2, 1333, Note_on_c, 0, 72, 80
2, 1333, Note_on_c, 0, 76, 80
2, 1384, Note_on_c, 0, 76, 0
2, 1384, Note_on_c, 0, 72, 0
2, 1387, Note_on_c, 0, 55, 80
2, 1387, Note_on_c, 0, 81, 80
2, 1390, Note_on_c, 0, 69, 80
2, 1392, Note_on_c, 0, 60, 80
2, 1429, Note_on_c, 0, 52, 0
2, 1443, Note_on_c, 0, 81, 0
2, 1453, Note_on_c, 0, 80, 80
2, 1456, Note_on_c, 0, 69, 0
2, 1456, Note_on_c, 0, 67, 80
2, 1497, Note_on_c, 0, 65, 80
2, 1500, Note_on_c, 0, 60, 0
2, 1505, Note_on_c, 0, 45, 80
2, 1505, Note_on_c, 0, 57, 80
2, 1514, Note_on_c, 0, 65, 0
2, 1517, Note_on_c, 0, 64, 0
2, 1536, Note_on_c, 0, 55, 0
2, 1568, Note_on_c, 0, 80, 0
2, 1571, Note_on_c, 0, 57, 0
2, 1574, Note_on_c, 0, 67, 0
2, 1577, Note_on_c, 0, 76, 80
2, 1628, Note_on_c, 0, 67, 80
2, 1632, Note_on_c, 0, 76, 0
2, 1632, Note_on_c, 0, 45, 0
2, 1632, Note_on_c, 0, 73, 80
2, 1635, Note_on_c, 0, 57, 80
2, 1635, Note_on_c, 0, 61, 80
2, 1689, Note_on_c, 0, 73, 0
2, 1692, Note_on_c, 0, 57, 0
2, 1697, Note_on_c, 0, 69, 80
2, 1753, Note_on_c, 0, 72, 80
2, 1753, Note_on_c, 0, 76, 80
2, 1758, Note_on_c, 0, 69, 0
2, 1758, Note_on_c, 0, 57, 80
2, 1758, Note_on_c, 0, 66, 80
2, 1761, Note_on_c, 0, 67, 0
2, 1764, Note_on_c, 0, 45, 80
2, 1767, Note_on_c, 0, 61, 0
2, 1816, Note_on_c, 0, 72, 0
2, 1824, Note_on_c, 0, 66, 0
2, 1872, Note_on_c, 0, 57, 0
2, 1875, Note_on_c, 0, 66, 80
2, 1875, Note_on_c, 0, 72, 80
2, 1875, Note_on_c, 0, 74, 80
2, 1878, Note_on_c, 0, 76, 0
2, 1878, Note_on_c, 0, 60, 80
2, 1881, Note_on_c, 0, 45, 0
2, 1884, Note_on_c, 0, 54, 80
2, 1892, Note_on_c, 0, 50, 80
2, 1895, Note_on_c, 0, 72, 0
2, 1895, Note_on_c, 0, 66, 0
2, 1931, Note_on_c, 0, 50, 0
2, 1931, Note_on_c, 0, 72, 80
2, 1934, Note_on_c, 0, 74, 0
2, 1939, Note_on_c, 0, 66, 80
2, 1939, Note_on_c, 0, 76, 80
2, 1995, Note_on_c, 0, 60, 0
2, 2000, Note_on_c, 0, 38, 80
2, 2003, Note_on_c, 0, 54, 0
2, 2003, Note_on_c, 0, 50, 80
2, 2052, Note_on_c, 0, 72, 0
2, 2055, Note_on_c, 0, 66, 0
2, 2058, Note_on_c, 0, 50, 0
2, 2061, Note_on_c, 0, 76, 0
2, 2061, Note_on_c, 0, 74, 80
2, 2110, Note_on_c, 0, 74, 0
2, 2110, Note_on_c, 0, 38, 0
2, 2110, Note_on_c, 0, 60, 80
2, 2110, Note_on_c, 0, 72, 80
2, 2112, Note_on_c, 0, 50, 80
2, 2112, Note_on_c, 0, 54, 80
2, 2166, Note_on_c, 0, 72, 0
2, 2166, Note_on_c, 0, 69, 80
2, 2171, Note_on_c, 0, 50, 0
2, 2217, Note_on_c, 0, 60, 0
2, 2220, Note_on_c, 0, 54, 0
2, 2228, Note_on_c, 0, 69, 0
2, 2232, Note_on_c, 0, 65, 80
2, 2232, Note_on_c, 0, 67, 80
2, 2237, Note_on_c, 0, 38, 80
2, 2237, Note_on_c, 0, 50, 80
2, 2255, Note_on_c, 0, 65, 0
2, 2286, Note_on_c, 0, 67, 0
2, 2291, Note_on_c, 0, 69, 80
2, 2294, Note_on_c, 0, 65, 80
2, 2313, Note_on_c, 0, 65, 0
2, 2335, Note_on_c, 0, 69, 0
2, 2343, Note_on_c, 0, 55, 80
2, 2343, Note_on_c, 0, 71, 80
2, 2348, Note_on_c, 0, 59, 80
2, 2348, Note_on_c, 0, 65, 80
2, 2351, Note_on_c, 0, 50, 0
2, 2353, Note_on_c, 0, 38, 0
2, 2353, Note_on_c, 0, 53, 80
2, 2363, Note_on_c, 0, 65, 0
2, 2407, Note_on_c, 0, 71, 0
2, 2412, Note_on_c, 0, 65, 80
2, 2412, Note_on_c, 0, 67, 80
2, 2434, Note_on_c, 0, 65, 0
2, 2456, Note_on_c, 0, 67, 0
2, 2459, Note_on_c, 0, 53, 0
2, 2464, Note_on_c, 0, 59, 0
2, 2469, Note_on_c, 0, 55, 0
2, 2469, Note_on_c, 0, 65, 80
2, 2469, Note_on_c, 0, 69, 80
2, 2472, Note_on_c, 0, 31, 80
2, 2472, Note_on_c, 0, 43, 80
2, 2484, Note_on_c, 0, 65, 0
2, 2516, Note_on_c, 0, 69, 0
2, 2520, Note_on_c, 0, 71, 80
2, 2528, Note_on_c, 0, 65, 80
2, 2550, Note_on_c, 0, 65, 0
2, 2582, Note_on_c, 0, 71, 0
2, 2582, Note_on_c, 0, 43, 0
2, 2587, Note_on_c, 0, 67, 80
2, 2590, Note_on_c, 0, 31, 0
2, 2590, Note_on_c, 0, 65, 80
2, 2592, Note_on_c, 0, 53, 80
2, 2592, Note_on_c, 0, 55, 80
2, 2592, Note_on_c, 0, 59, 80
2, 2612, Note_on_c, 0, 65, 0
2, 2646, Note_on_c, 0, 67, 0
2, 2649, Note_on_c, 0, 65, 80
2, 2652, Note_on_c, 0, 69, 80
2, 2674, Note_on_c, 0, 65, 0
2, 2701, Note_on_c, 0, 53, 0
2, 2701, Note_on_c, 0, 71, 80
2, 2706, Note_on_c, 0, 55, 0
2, 2706, Note_on_c, 0, 69, 0
2, 2706, Note_on_c, 0, 65, 80
2, 2713, Note_on_c, 0, 38, 80
2, 2713, Note_on_c, 0, 50, 80
2, 2728, Note_on_c, 0, 65, 0
2, 2733, Note_on_c, 0, 59, 0
2, 2750, Note_on_c, 0, 71, 0
2, 2767, Note_on_c, 0, 65, 80
2, 2770, Note_on_c, 0, 67, 80
2, 2783, Note_on_c, 0, 65, 0
2, 2809, Note_on_c, 0, 59, 80
2, 2827, Note_on_c, 0, 67, 0
2, 2827, Note_on_c, 0, 65, 80
2, 2832, Note_on_c, 0, 38, 0
2, 2832, Note_on_c, 0, 53, 80
2, 2832, Note_on_c, 0, 69, 80
2, 2834, Note_on_c, 0, 50, 0
2, 2834, Note_on_c, 0, 55, 80
2, 2849, Note_on_c, 0, 65, 0
2, 2888, Note_on_c, 0, 69, 0
2, 2888, Note_on_c, 0, 65, 80
2, 2888, Note_on_c, 0, 71, 80
2, 2910, Note_on_c, 0, 65, 0
2, 2934, Note_on_c, 0, 55, 0
2, 2947, Note_on_c, 0, 53, 0
2, 2956, Note_on_c, 0, 71, 0
2, 2956, Note_on_c, 0, 65, 80
2, 2959, Note_on_c, 0, 67, 80
2, 2962, Note_on_c, 0, 31, 80
2, 2965, Note_on_c, 0, 43, 80
2, 2979, Note_on_c, 0, 65, 0
2, 3003, Note_on_c, 0, 59, 0
2, 3013, Note_on_c, 0, 67, 0
2, 3016, Note_on_c, 0, 65, 80
2, 3016, Note_on_c, 0, 69, 80
2, 3040, Note_on_c, 0, 65, 0
2, 3067, Note_on_c, 0, 43, 0
2, 3072, Note_on_c, 0, 65, 80
2, 3074, Note_on_c, 0, 69, 0
2, 3074, Note_on_c, 0, 59, 80
2, 3077, Note_on_c, 0, 55, 80
2, 3077, Note_on_c, 0, 71, 80
2, 3082, Note_on_c, 0, 31, 0
2, 3090, Note_on_c, 0, 53, 80
2, 3097, Note_on_c, 0, 65, 0
2, 3129, Note_on_c, 0, 65, 80
2, 3132, Note_on_c, 0, 71, 0
2, 3137, Note_on_c, 0, 67, 80
2, 3193, Note_on_c, 0, 67, 0
2, 3193, Note_on_c, 0, 69, 80
2, 3196, Note_on_c, 0, 48, 80
2, 3199, Note_on_c, 0, 36, 80
2, 3199, Note_on_c, 0, 64, 80
2, 3202, Note_on_c, 0, 53, 0
2, 3207, Note_on_c, 0, 65, 0
2, 3207, Note_on_c, 0, 55, 0
2, 3215, Note_on_c, 0, 59, 0
2, 3224, Note_on_c, 0, 64, 0
2, 3259, Note_on_c, 0, 69, 0
2, 3262, Note_on_c, 0, 64, 80
2, 3266, Note_on_c, 0, 72, 80
2, 3279, Note_on_c, 0, 64, 0
2, 3315, Note_on_c, 0, 36, 0
2, 3318, Note_on_c, 0, 48, 0
2, 3321, Note_on_c, 0, 64, 80
2, 3324, Note_on_c, 0, 55, 80
2, 3327, Note_on_c, 0, 67, 80
2, 3330, Note_on_c, 0, 60, 80
2, 3333, Note_on_c, 0, 52, 80
2, 3336, Note_on_c, 0, 72, 0
2, 3340, Note_on_c, 0, 64, 0
2, 3382, Note_on_c, 0, 69, 80
2, 3384, Note_on_c, 0, 67, 0
2, 3384, Note_on_c, 0, 64, 80
2, 3435, Note_on_c, 0, 55, 0
2, 3440, Note_on_c, 0, 52, 0
2, 3445, Note_on_c, 0, 60, 0
2, 3450, Note_on_c, 0, 31, 80
2, 3450, Note_on_c, 0, 43, 80
2, 3457, Note_on_c, 0, 64, 0
2, 3494, Note_on_c, 0, 69, 0
2, 3504, Note_on_c, 0, 72, 80
2, 3506, Note_on_c, 0, 64, 80
2, 3563, Note_on_c, 0, 64, 0
2, 3563, Note_on_c, 0, 72, 0
2, 3566, Note_on_c, 0, 52, 80
2, 3569, Note_on_c, 0, 60, 80
2, 3572, Note_on_c, 0, 31, 0
2, 3575, Note_on_c, 0, 43, 0
2, 3575, Note_on_c, 0, 55, 80
2, 3628, Note_on_c, 0, 64, 80
2, 3633, Note_on_c, 0, 67, 80
2, 3646, Note_on_c, 0, 64, 0
2, 3675, Note_on_c, 0, 52, 0
2, 3678, Note_on_c, 0, 60, 0
2, 3686, Note_on_c, 0, 55, 0
2, 3691, Note_on_c, 0, 67, 0
2, 3694, Note_on_c, 0, 48, 80
2, 3694, Note_on_c, 0, 36, 80
2, 3694, Note_on_c, 0, 69, 80
2, 3696, Note_on_c, 0, 64, 80
2, 3750, Note_on_c, 0, 64, 0
2, 3807, Note_on_c, 0, 64, 80
2, 3810, Note_on_c, 0, 72, 80
2, 3813, Note_on_c, 0, 60, 80
2, 3817, Note_on_c, 0, 36, 0
2, 3820, Note_on_c, 0, 52, 80
2, 3820, Note_on_c, 0, 55, 80
2, 3825, Note_on_c, 0, 48, 0
2, 3876, Note_on_c, 0, 72, 0
2, 3920, Note_on_c, 0, 52, 0
2, 3923, Note_on_c, 0, 60, 0
2, 3931, Note_on_c, 0, 55, 0
2, 3931, Note_on_c, 0, 43, 80
2, 3936, Note_on_c, 0, 31, 80
2, 4046, Note_on_c, 0, 60, 80
2, 4049, Note_on_c, 0, 43, 0
2, 4052, Note_on_c, 0, 52, 80
2, 4052, Note_on_c, 0, 55, 80
2, 4055, Note_on_c, 0, 69, 0
2, 4055, Note_on_c, 0, 67, 80
2, 4057, Note_on_c, 0, 31, 0
2, 4143, Note_on_c, 0, 65, 80
2, 4155, Note_on_c, 0, 84, 80
2, 4158, Note_on_c, 0, 60, 0
2, 4161, Note_on_c, 0, 52, 0
2, 4164, Note_on_c, 0, 72, 80
2, 4164, Note_on_c, 0, 78, 80
2, 4167, Note_on_c, 0, 54, 80
2, 4170, Note_on_c, 0, 64, 0
2, 4170, Note_on_c, 0, 65, 0
2, 4170, Note_on_c, 0, 42, 80
2, 4170, Note_on_c, 0, 75, 80
2, 4177, Note_on_c, 0, 78, 0
2, 4182, Note_on_c, 0, 55, 0
2, 4185, Note_on_c, 0, 75, 0
2, 4190, Note_on_c, 0, 67, 0
2, 4212, Note_on_c, 0, 84, 0
2, 4220, Note_on_c, 0, 54, 0
2, 4224, Note_on_c, 0, 72, 0
2, 4224, Note_on_c, 0, 69, 80
2, 4224, Note_on_c, 0, 75, 80
2, 4224, Note_on_c, 0, 78, 80
2, 4229, Note_on_c, 0, 81, 80
2, 4239, Note_on_c, 0, 78, 0
2, 4242, Note_on_c, 0, 75, 0
2, 4278, Note_on_c, 0, 81, 0
2, 4278, Note_on_c, 0, 42, 0
2, 4278, Note_on_c, 0, 57, 80
2, 4278, Note_on_c, 0, 63, 80
2, 4278, Note_on_c, 0, 71, 80
2, 4278, Note_on_c, 0, 75, 80
2, 4283, Note_on_c, 0, 69, 0
2, 4283, Note_on_c, 0, 54, 80
2, 4283, Note_on_c, 0, 60, 80
2, 4283, Note_on_c, 0, 78, 80
2, 4283, Note_on_c, 0, 83, 80
2, 4293, Note_on_c, 0, 75, 0
2, 4297, Note_on_c, 0, 78, 0
2, 4329, Note_on_c, 0, 57, 0
2, 4334, Note_on_c, 0, 71, 0
2, 4339, Note_on_c, 0, 83, 0
2, 4339, Note_on_c, 0, 72, 80
2, 4339, Note_on_c, 0, 78, 80
2, 4339, Note_on_c, 0, 84, 80
2, 4342, Note_on_c, 0, 75, 80
2, 4354, Note_on_c, 0, 78, 0
2, 4359, Note_on_c, 0, 75, 0
2, 4391, Note_on_c, 0, 60, 0
2, 4393, Note_on_c, 0, 54, 0
2, 4396, Note_on_c, 0, 84, 0
2, 4401, Note_on_c, 0, 72, 0
2, 4401, Note_on_c, 0, 57, 80
2, 4401, Note_on_c, 0, 69, 80
2, 4401, Note_on_c, 0, 75, 80
2, 4401, Note_on_c, 0, 78, 80
2, 4404, Note_on_c, 0, 45, 80
2, 4412, Note_on_c, 0, 81, 80
2, 4415, Note_on_c, 0, 78, 0
2, 4417, Note_on_c, 0, 75, 0
2, 4425, Note_on_c, 0, 63, 0
2, 4457, Note_on_c, 0, 69, 0
2, 4462, Note_on_c, 0, 81, 0
2, 4466, Note_on_c, 0, 75, 80
2, 4466, Note_on_c, 0, 83, 80
2, 4469, Note_on_c, 0, 71, 80
2, 4474, Note_on_c, 0, 78, 80
2, 4484, Note_on_c, 0, 75, 0
2, 4488, Note_on_c, 0, 78, 0
2, 4518, Note_on_c, 0, 83, 0
2, 4518, Note_on_c, 0, 45, 0
2, 4518, Note_on_c, 0, 75, 80
2, 4521, Note_on_c, 0, 63, 80
2, 4524, Note_on_c, 0, 60, 80
2, 4524, Note_on_c, 0, 72, 80
2, 4524, Note_on_c, 0, 78, 80
2, 4524, Note_on_c, 0, 84, 80
2, 4527, Note_on_c, 0, 71, 0
2, 4530, Note_on_c, 0, 54, 80
2, 4535, Note_on_c, 0, 75, 0
2, 4542, Note_on_c, 0, 78, 0
2, 4574, Note_on_c, 0, 60, 0
2, 4577, Note_on_c, 0, 84, 0
2, 4584, Note_on_c, 0, 72, 0
2, 4584, Note_on_c, 0, 69, 80
2, 4584, Note_on_c, 0, 78, 80
2, 4589, Note_on_c, 0, 75, 80
2, 4599, Note_on_c, 0, 81, 80
2, 4604, Note_on_c, 0, 75, 0
2, 4607, Note_on_c, 0, 78, 0
2, 4633, Note_on_c, 0, 81, 0
2, 4636, Note_on_c, 0, 57, 0
2, 4636, Note_on_c, 0, 63, 0
2, 4644, Note_on_c, 0, 54, 0
2, 4644, Note_on_c, 0, 69, 0
2, 4644, Note_on_c, 0, 78, 80
2, 4647, Note_on_c, 0, 48, 80
2, 4647, Note_on_c, 0, 60, 80
2, 4647, Note_on_c, 0, 71, 80
2, 4647, Note_on_c, 0, 75, 80
2, 4650, Note_on_c, 0, 83, 80
2, 4662, Note_on_c, 0, 75, 0
2, 4662, Note_on_c, 0, 78, 0
2, 4702, Note_on_c, 0, 75, 80
2, 4704, Note_on_c, 0, 71, 0
2, 4704, Note_on_c, 0, 60, 0
2, 4707, Note_on_c, 0, 83, 0
2, 4710, Note_on_c, 0, 72, 80
2, 4710, Note_on_c, 0, 78, 80
2, 4710, Note_on_c, 0, 84, 80
2, 4720, Note_on_c, 0, 75, 0
2, 4725, Note_on_c, 0, 78, 0
2, 4754, Note_on_c, 0, 84, 0
2, 4767, Note_on_c, 0, 72, 0
2, 4767, Note_on_c, 0, 75, 80
2, 4770, Note_on_c, 0, 57, 80
2, 4770, Note_on_c, 0, 63, 80
2, 4773, Note_on_c, 0, 48, 0
2, 4773, Note_on_c, 0, 69, 80
2, 4773, Note_on_c, 0, 78, 80
2, 4776, Note_on_c, 0, 60, 80
2, 4778, Note_on_c, 0, 54, 80
2, 4778, Note_on_c, 0, 81, 80
2, 4786, Note_on_c, 0, 75, 0
2, 4789, Note_on_c, 0, 78, 0
2, 4816, Note_on_c, 0, 81, 0
2, 4821, Note_on_c, 0, 83, 80
2, 4824, Note_on_c, 0, 69, 0
2, 4828, Note_on_c, 0, 71, 80
2, 4828, Note_on_c, 0, 75, 80
2, 4831, Note_on_c, 0, 63, 0
2, 4834, Note_on_c, 0, 78, 80
2, 4844, Note_on_c, 0, 75, 0
2, 4851, Note_on_c, 0, 78, 0
2, 4881, Note_on_c, 0, 60, 0
2, 4886, Note_on_c, 0, 71, 0
2, 4886, Note_on_c, 0, 63, 80
2, 4886, Note_on_c, 0, 72, 80
2, 4886, Note_on_c, 0, 75, 80
2, 4886, Note_on_c, 0, 78, 80
2, 4891, Note_on_c, 0, 83, 0
2, 4891, Note_on_c, 0, 54, 0
2, 4891, Note_on_c, 0, 84, 80
2, 4894, Note_on_c, 0, 57, 0
2, 4896, Note_on_c, 0, 51, 80
2, 4904, Note_on_c, 0, 75, 0
2, 4904, Note_on_c, 0, 78, 0
2, 4944, Note_on_c, 0, 84, 0
2, 4951, Note_on_c, 0, 63, 0
2, 4954, Note_on_c, 0, 69, 80
2, 4954, Note_on_c, 0, 75, 80
2, 4954, Note_on_c, 0, 78, 80
2, 4957, Note_on_c, 0, 72, 0
2, 4962, Note_on_c, 0, 81, 80
2, 4967, Note_on_c, 0, 78, 0
2, 4969, Note_on_c, 0, 75, 0
2, 5006, Note_on_c, 0, 63, 80
2, 5006, Note_on_c, 0, 83, 80
2, 5009, Note_on_c, 0, 81, 0
2, 5009, Note_on_c, 0, 69, 0
2, 5009, Note_on_c, 0, 71, 80
2, 5009, Note_on_c, 0, 75, 80
2, 5009, Note_on_c, 0, 78, 80
2, 5012, Note_on_c, 0, 57, 80
2, 5012, Note_on_c, 0, 60, 80
2, 5015, Note_on_c, 0, 51, 0
2, 5015, Note_on_c, 0, 54, 80
2, 5024, Note_on_c, 0, 78, 0
2, 5027, Note_on_c, 0, 75, 0
2, 5071, Note_on_c, 0, 71, 0
2, 5074, Note_on_c, 0, 83, 0
2, 5077, Note_on_c, 0, 72, 80
2, 5077, Note_on_c, 0, 75, 80
2, 5077, Note_on_c, 0, 84, 80
2, 5082, Note_on_c, 0, 78, 80
2, 5116, Note_on_c, 0, 60, 0
2, 5121, Note_on_c, 0, 72, 0
2, 5124, Note_on_c, 0, 57, 0
2, 5124, Note_on_c, 0, 63, 0
2, 5127, Note_on_c, 0, 78, 0
2, 5127, Note_on_c, 0, 67, 80
2, 5127, Note_on_c, 0, 79, 80
2, 5130, Note_on_c, 0, 84, 0
2, 5130, Note_on_c, 0, 75, 0
2, 5130, Note_on_c, 0, 64, 80
2, 5133, Note_on_c, 0, 52, 80
2, 5137, Note_on_c, 0, 54, 0
2, 5179, Note_on_c, 0, 67, 0
2, 5184, Note_on_c, 0, 64, 0
2, 5184, Note_on_c, 0, 79, 0
2, 5184, Note_on_c, 0, 72, 80
2, 5184, Note_on_c, 0, 76, 80
2, 5234, Note_on_c, 0, 60, 80
2, 5239, Note_on_c, 0, 72, 0
2, 5239, Note_on_c, 0, 64, 80
2, 5242, Note_on_c, 0, 55, 80
2, 5242, Note_on_c, 0, 69, 80
2, 5245, Note_on_c, 0, 76, 0
2, 5248, Note_on_c, 0, 52, 0
2, 5248, Note_on_c, 0, 81, 80
2, 5302, Note_on_c, 0, 81, 0
2, 5304, Note_on_c, 0, 79, 80
2, 5312, Note_on_c, 0, 69, 0
2, 5312, Note_on_c, 0, 67, 80
2, 5358, Note_on_c, 0, 45, 80
2, 5361, Note_on_c, 0, 64, 0
2, 5361, Note_on_c, 0, 57, 80
2, 5371, Note_on_c, 0, 60, 0
2, 5378, Note_on_c, 0, 55, 0
2, 5408, Note_on_c, 0, 67, 0
2, 5416, Note_on_c, 0, 57, 0
2, 5419, Note_on_c, 0, 79, 0
2, 5422, Note_on_c, 0, 76, 80
2, 5475, Note_on_c, 0, 73, 80
2, 5478, Note_on_c, 0, 76, 0
2, 5478, Note_on_c, 0, 57, 80
2, 5478, Note_on_c, 0, 61, 80
2, 5478, Note_on_c, 0, 67, 80
2, 5481, Note_on_c, 0, 45, 0
2, 5540, Note_on_c, 0, 73, 0
2, 5540, Note_on_c, 0, 57, 0
2, 5540, Note_on_c, 0, 69, 80
2, 5596, Note_on_c, 0, 61, 0
2, 5599, Note_on_c, 0, 66, 80
2, 5602, Note_on_c, 0, 69, 0
2, 5602, Note_on_c, 0, 67, 0
2, 5602, Note_on_c, 0, 57, 80
2, 5605, Note_on_c, 0, 45, 80
2, 5605, Note_on_c, 0, 72, 80
2, 5608, Note_on_c, 0, 76, 80
2, 5657, Note_on_c, 0, 72, 0
2, 5681, Note_on_c, 0, 66, 0
2, 5681, Note_on_c, 0, 76, 0
2, 5720, Note_on_c, 0, 66, 80
2, 5720, Note_on_c, 0, 72, 80
2, 5723, Note_on_c, 0, 57, 0
2, 5723, Note_on_c, 0, 50, 80
2, 5728, Note_on_c, 0, 45, 0
2, 5728, Note_on_c, 0, 54, 80
2, 5728, Note_on_c, 0, 60, 80
2, 5731, Note_on_c, 0, 74, 80
2, 5736, Note_on_c, 0, 72, 0
2, 5736, Note_on_c, 0, 66, 0
2, 5767, Note_on_c, 0, 74, 0
2, 5780, Note_on_c, 0, 76, 80
2, 5783, Note_on_c, 0, 50, 0
2, 5785, Note_on_c, 0, 66, 80
2, 5785, Note_on_c, 0, 72, 80
2, 5832, Note_on_c, 0, 54, 0
2, 5834, Note_on_c, 0, 60, 0
2, 5847, Note_on_c, 0, 38, 80
2, 5852, Note_on_c, 0, 50, 80
2, 5886, Note_on_c, 0, 72, 0
2, 5896, Note_on_c, 0, 50, 0
2, 5896, Note_on_c, 0, 76, 0
2, 5899, Note_on_c, 0, 66, 0
2, 5904, Note_on_c, 0, 74, 80
2, 5967, Note_on_c, 0, 74, 0
2, 5967, Note_on_c, 0, 60, 80
2, 5970, Note_on_c, 0, 50, 80
2, 5970, Note_on_c, 0, 54, 80
2, 5973, Note_on_c, 0, 38, 0
2, 5973, Note_on_c, 0, 72, 80
2, 6034, Note_on_c, 0, 69, 80
2, 6042, Note_on_c, 0, 72, 0
2, 6088, Note_on_c, 0, 60, 0
2, 6088, Note_on_c, 0, 55, 80
2, 6091, Note_on_c, 0, 54, 0
2, 6091, Note_on_c, 0, 50, 0
2, 6096, Note_on_c, 0, 43, 80
2, 6098, Note_on_c, 0, 69, 0
2, 6101, Note_on_c, 0, 67, 80
2, 6147, Note_on_c, 0, 68, 80
2, 6150, Note_on_c, 0, 67, 0
2, 6204, Note_on_c, 0, 43, 0
2, 6209, Note_on_c, 0, 69, 80
2, 6212, Note_on_c, 0, 68, 0
2, 6215, Note_on_c, 0, 55, 0
2, 6217, Note_on_c, 0, 42, 80
2, 6220, Note_on_c, 0, 54, 80
2, 6274, Note_on_c, 0, 69, 0
2, 6274, Note_on_c, 0, 70, 80
2, 6323, Note_on_c, 0, 42, 0
2, 6326, Note_on_c, 0, 54, 0
2, 6329, Note_on_c, 0, 70, 0
2, 6334, Note_on_c, 0, 71, 80
2, 6338, Note_on_c, 0, 41, 80
2, 6338, Note_on_c, 0, 53, 80
2, 6392, Note_on_c, 0, 71, 0
2, 6397, Note_on_c, 0, 72, 80
2, 6448, Note_on_c, 0, 72, 0
2, 6448, Note_on_c, 0, 41, 0
2, 6456, Note_on_c, 0, 53, 0
2, 6460, Note_on_c, 0, 73, 80
2, 6463, Note_on_c, 0, 52, 80
2, 6466, Note_on_c, 0, 40, 80
2, 6517, Note_on_c, 0, 73, 0
2, 6522, Note_on_c, 0, 74, 80
2, 6558, Note_on_c, 0, 40, 0
2, 6571, Note_on_c, 0, 74, 0
2, 6580, Note_on_c, 0, 52, 0
2, 6580, Note_on_c, 0, 39, 80
2, 6580, Note_on_c, 0, 51, 80
2, 6580, Note_on_c, 0, 75, 80
2, 6624, Note_on_c, 0, 75, 0
2, 6637, Note_on_c, 0, 76, 80
2, 6688, Note_on_c, 0, 51, 0
2, 6693, Note_on_c, 0, 50, 80
2, 6696, Note_on_c, 0, 76, 0
2, 6696, Note_on_c, 0, 39, 0
2, 6696, Note_on_c, 0, 77, 80
2, 6700, Note_on_c, 0, 38, 80
2, 6757, Note_on_c, 0, 78, 80
2, 6760, Note_on_c, 0, 77, 0
2, 6816, Note_on_c, 0, 50, 0
2, 6816, Note_on_c, 0, 49, 80
2, 6819, Note_on_c, 0, 78, 0
2, 6819, Note_on_c, 0, 79, 80
2, 6824, Note_on_c, 0, 38, 0
2, 6824, Note_on_c, 0, 37, 80
2, 6875, Note_on_c, 0, 79, 0
2, 6878, Note_on_c, 0, 80, 80
2, 6927, Note_on_c, 0, 80, 0
2, 6930, Note_on_c, 0, 49, 0
2, 6933, Note_on_c, 0, 37, 0
2, 6936, Note_on_c, 0, 48, 80
2, 6943, Note_on_c, 0, 36, 80
2, 6943, Note_on_c, 0, 81, 80
2, 6992, Note_on_c, 0, 81, 0
2, 6997, Note_on_c, 0, 82, 80
2, 7038, Note_on_c, 0, 36, 0
2, 7046, Note_on_c, 0, 82, 0
2, 7049, Note_on_c, 0, 48, 0
2, 7049, Note_on_c, 0, 47, 80
2, 7049, Note_on_c, 0, 83, 80
2, 7052, Note_on_c, 0, 35, 80
2, 7103, Note_on_c, 0, 83, 0
2, 7107, Note_on_c, 0, 84, 80
2, 7158, Note_on_c, 0, 35, 0
2, 7163, Note_on_c, 0, 46, 80
2, 7166, Note_on_c, 0, 84, 0
2, 7166, Note_on_c, 0, 47, 0
2, 7169, Note_on_c, 0, 34, 80
2, 7172, Note_on_c, 0, 85, 80
2, 7225, Note_on_c, 0, 85, 0
2, 7230, Note_on_c, 0, 86, 80
2, 7276, Note_on_c, 0, 34, 0
2, 7281, Note_on_c, 0, 86, 0
2, 7281, Note_on_c, 0, 46, 0
2, 7284, Note_on_c, 0, 45, 80
2, 7289, Note_on_c, 0, 87, 80
2, 7294, Note_on_c, 0, 33, 80
2, 7340, Note_on_c, 0, 88, 80
2, 7343, Note_on_c, 0, 87, 0
2, 7393, Note_on_c, 0, 88, 0
2, 7396, Note_on_c, 0, 33, 0
2, 7399, Note_on_c, 0, 45, 0
2, 7407, Note_on_c, 0, 44, 80
2, 7407, Note_on_c, 0, 89, 80
2, 7410, Note_on_c, 0, 32, 80
2, 7451, Note_on_c, 0, 89, 0
2, 7461, Note_on_c, 0, 90, 80
2, 7514, Note_on_c, 0, 32, 0
2, 7517, Note_on_c, 0, 90, 0
2, 7520, Note_on_c, 0, 43, 80
2, 7523, Note_on_c, 0, 91, 80
2, 7526, Note_on_c, 0, 44, 0
2, 7526, Note_on_c, 0, 31, 80
2, 7572, Note_on_c, 0, 91, 0
2, 7572, Note_on_c, 0, 43, 0
2, 7635, Note_on_c, 0, 55, 80
2, 7638, Note_on_c, 0, 31, 0
2, 7638, Note_on_c, 0, 91, 80
2, 7643, Note_on_c, 0, 43, 80
2, 7646, Note_on_c, 0, 79, 80
2, 7646, Note_on_c, 0, 83, 80
2, 7646, Note_on_c, 0, 86, 80
2, 7680, Note_on_c, 0, 91, 0
2, 7753, Note_on_c, 0, 79, 0
2, 7758, Note_on_c, 0, 43, 0
2, 7761, Note_on_c, 0, 86, 0
2, 7761, Note_on_c, 0, 84, 80
2, 7764, Note_on_c, 0, 88, 80
2, 7764, Note_on_c, 0, 91, 80
2, 7764, Note_on_c, 0, 96, 80
2, 7767, Note_on_c, 0, 83, 0
2, 7767, Note_on_c, 0, 36, 80
2, 7772, Note_on_c, 0, 48, 80
2, 7781, Note_on_c, 0, 55, 0
2, 7867, Note_on_c, 0, 36, 0
2, 7870, Note_on_c, 0, 88, 0
2, 7874, Note_on_c, 0, 91, 0
2, 7874, Note_on_c, 0, 48, 0
2, 7877, Note_on_c, 0, 84, 0
2, 7877, Note_on_c, 0, 79, 80
2, 7882, Note_on_c, 0, 96, 0
2, 7885, Note_on_c, 0, 67, 80
2, 7934, Note_on_c, 0, 67, 0
2, 7939, Note_on_c, 0, 68, 80
2, 7939, Note_on_c, 0, 80, 80
2, 7946, Note_on_c, 0, 79, 0
2, 7997, Note_on_c, 0, 80, 0
2, 7997, Note_on_c, 0, 57, 80
2, 8002, Note_on_c, 0, 45, 80
2, 8002, Note_on_c, 0, 69, 80
2, 8005, Note_on_c, 0, 68, 0
2, 8010, Note_on_c, 0, 81, 80
2, 8056, Note_on_c, 0, 81, 0
2, 8059, Note_on_c, 0, 69, 0
2, 8062, Note_on_c, 0, 73, 80
2, 8062, Note_on_c, 0, 76, 80
2, 8064, Note_on_c, 0, 57, 0
2, 8111, Note_on_c, 0, 45, 0
2, 8118, Note_on_c, 0, 73, 0
2, 8118, Note_on_c, 0, 57, 80
2, 8118, Note_on_c, 0, 70, 80
2, 8118, Note_on_c, 0, 82, 80
2, 8121, Note_on_c, 0, 61, 80
2, 8124, Note_on_c, 0, 76, 0
2, 8124, Note_on_c, 0, 67, 80
2, 8178, Note_on_c, 0, 61, 0
2, 8178, Note_on_c, 0, 70, 0
2, 8183, Note_on_c, 0, 82, 0
2, 8183, Note_on_c, 0, 69, 80
2, 8183, Note_on_c, 0, 81, 80
2, 8233, Note_on_c, 0, 57, 0
2, 8238, Note_on_c, 0, 67, 0
2, 8241, Note_on_c, 0, 49, 80
2, 8244, Note_on_c, 0, 61, 80
2, 8298, Note_on_c, 0, 81, 0
2, 8303, Note_on_c, 0, 69, 0
2, 8303, Note_on_c, 0, 73, 80
2, 8303, Note_on_c, 0, 76, 80
2, 8356, Note_on_c, 0, 49, 0
2, 8356, Note_on_c, 0, 82, 80
2, 8359, Note_on_c, 0, 67, 80
2, 8359, Note_on_c, 0, 70, 80
2, 8362, Note_on_c, 0, 57, 80
2, 8365, Note_on_c, 0, 76, 0
2, 8370, Note_on_c, 0, 73, 0
2, 8416, Note_on_c, 0, 82, 0
2, 8419, Note_on_c, 0, 70, 0
2, 8422, Note_on_c, 0, 81, 80
2, 8429, Note_on_c, 0, 69, 80
2, 8466, Note_on_c, 0, 67, 0
2, 8473, Note_on_c, 0, 61, 0
2, 8473, Note_on_c, 0, 52, 80
2, 8478, Note_on_c, 0, 57, 0
2, 8478, Note_on_c, 0, 64, 80
2, 8529, Note_on_c, 0, 81, 0
2, 8534, Note_on_c, 0, 73, 80
2, 8537, Note_on_c, 0, 76, 80
2, 8542, Note_on_c, 0, 69, 0
2, 8588, Note_on_c, 0, 82, 80
2, 8591, Note_on_c, 0, 73, 0
2, 8593, Note_on_c, 0, 57, 80
2, 8596, Note_on_c, 0, 76, 0
2, 8596, Note_on_c, 0, 64, 0
2, 8596, Note_on_c, 0, 61, 80
2, 8596, Note_on_c, 0, 70, 80
2, 8601, Note_on_c, 0, 52, 0
2, 8604, Note_on_c, 0, 67, 80
2, 8650, Note_on_c, 0, 82, 0
2, 8653, Note_on_c, 0, 67, 0
2, 8656, Note_on_c, 0, 81, 80
2, 8659, Note_on_c, 0, 70, 0
2, 8659, Note_on_c, 0, 69, 80
2, 8710, Note_on_c, 0, 55, 80
2, 8714, Note_on_c, 0, 57, 0
2, 8717, Note_on_c, 0, 61, 0
2, 8720, Note_on_c, 0, 67, 80
2, 8766, Note_on_c, 0, 81, 0
2, 8769, Note_on_c, 0, 69, 0
2, 8774, Note_on_c, 0, 67, 0
2, 8774, Note_on_c, 0, 76, 80
2, 8779, Note_on_c, 0, 73, 80
2, 8832, Note_on_c, 0, 57, 80
2, 8832, Note_on_c, 0, 61, 80
2, 8832, Note_on_c, 0, 67, 80
2, 8832, Note_on_c, 0, 70, 80
2, 8835, Note_on_c, 0, 76, 0
2, 8835, Note_on_c, 0, 82, 80
2, 8838, Note_on_c, 0, 73, 0
2, 8851, Note_on_c, 0, 55, 0
2, 8892, Note_on_c, 0, 70, 0
2, 8897, Note_on_c, 0, 82, 0
2, 8897, Note_on_c, 0, 69, 80
2, 8902, Note_on_c, 0, 81, 80
2, 8946, Note_on_c, 0, 67, 0
2, 8951, Note_on_c, 0, 61, 0
2, 8955, Note_on_c, 0, 65, 80
2, 8958, Note_on_c, 0, 57, 0
2, 8958, Note_on_c, 0, 53, 80
2, 9004, Note_on_c, 0, 81, 0
2, 9022, Note_on_c, 0, 65, 0
2, 9022, Note_on_c, 0, 69, 0
2, 9026, Note_on_c, 0, 74, 80
2, 9026, Note_on_c, 0, 77, 80
2, 9072, Note_on_c, 0, 62, 80
2, 9072, Note_on_c, 0, 65, 80
2, 9075, Note_on_c, 0, 82, 80
2, 9080, Note_on_c, 0, 57, 80
2, 9083, Note_on_c, 0, 77, 0
2, 9083, Note_on_c, 0, 53, 0
2, 9083, Note_on_c, 0, 74, 0
2, 9086, Note_on_c, 0, 70, 80
2, 9137, Note_on_c, 0, 70, 0
2, 9144, Note_on_c, 0, 81, 80
2, 9147, Note_on_c, 0, 82, 0
2, 9147, Note_on_c, 0, 69, 80
2, 9150, Note_on_c, 0, 62, 0
2, 9194, Note_on_c, 0, 57, 0
2, 9199, Note_on_c, 0, 65, 0
2, 9202, Note_on_c, 0, 62, 80
2, 9210, Note_on_c, 0, 50, 80
2, 9241, Note_on_c, 0, 81, 0
2, 9261, Note_on_c, 0, 69, 0
2, 9261, Note_on_c, 0, 77, 80
2, 9264, Note_on_c, 0, 62, 0
2, 9266, Note_on_c, 0, 74, 80
2, 9325, Note_on_c, 0, 74, 0
2, 9328, Note_on_c, 0, 62, 80
2, 9328, Note_on_c, 0, 65, 80
2, 9331, Note_on_c, 0, 70, 80
2, 9331, Note_on_c, 0, 82, 80
2, 9334, Note_on_c, 0, 77, 0
2, 9336, Note_on_c, 0, 50, 0
2, 9341, Note_on_c, 0, 57, 80
2, 9387, Note_on_c, 0, 82, 0
2, 9387, Note_on_c, 0, 69, 80
2, 9390, Note_on_c, 0, 57, 0
2, 9390, Note_on_c, 0, 81, 80
2, 9393, Note_on_c, 0, 70, 0
2, 9450, Note_on_c, 0, 57, 80
2, 9453, Note_on_c, 0, 62, 0
2, 9453, Note_on_c, 0, 45, 80
2, 9457, Note_on_c, 0, 65, 0
2, 9494, Note_on_c, 0, 81, 0
2, 9506, Note_on_c, 0, 69, 0
2, 9509, Note_on_c, 0, 57, 0
2, 9514, Note_on_c, 0, 77, 80
2, 9519, Note_on_c, 0, 74, 80
2, 9565, Note_on_c, 0, 82, 80
2, 9568, Note_on_c, 0, 74, 0
2, 9568, Note_on_c, 0, 45, 0
2, 9571, Note_on_c, 0, 57, 80
2, 9571, Note_on_c, 0, 65, 80
2, 9571, Note_on_c, 0, 70, 80
2, 9574, Note_on_c, 0, 62, 80
2, 9576, Note_on_c, 0, 77, 0
2, 9627, Note_on_c, 0, 82, 0
2, 9635, Note_on_c, 0, 70, 0
2, 9635, Note_on_c, 0, 69, 80
2, 9638, Note_on_c, 0, 81, 80
2, 9695, Note_on_c, 0, 65, 0
2, 9695, Note_on_c, 0, 57, 0
2, 9695, Note_on_c, 0, 62, 0
2, 9695, Note_on_c, 0, 53, 80
2, 9699, Note_on_c, 0, 41, 80
2, 9734, Note_on_c, 0, 81, 0
2, 9742, Note_on_c, 0, 77, 80
2, 9744, Note_on_c, 0, 69, 0
2, 9749, Note_on_c, 0, 74, 80
2, 9798, Note_on_c, 0, 74, 0
2, 9798, Note_on_c, 0, 41, 0
2, 9803, Note_on_c, 0, 77, 0
2, 9806, Note_on_c, 0, 53, 0
2, 9806, Note_on_c, 0, 68, 80
2, 9809, Note_on_c, 0, 42, 80
2, 9809, Note_on_c, 0, 72, 80
2, 9809, Note_on_c, 0, 75, 80
2, 9809, Note_on_c, 0, 80, 80
2, 9814, Note_on_c, 0, 54, 80
2, 9921, Note_on_c, 0, 55, 80
2, 9924, Note_on_c, 0, 42, 0
2, 9927, Note_on_c, 0, 54, 0
2, 9927, Note_on_c, 0, 67, 80
2, 9927, Note_on_c, 0, 79, 80
2, 9930, Note_on_c, 0, 80, 0
2, 9930, Note_on_c, 0, 72, 0
2, 9935, Note_on_c, 0, 68, 0
2, 9935, Note_on_c, 0, 75, 0
2, 9937, Note_on_c, 0, 43, 80
2, 9984, Note_on_c, 0, 67, 0
2, 9984, Note_on_c, 0, 79, 0
2, 9986, Note_on_c, 0, 55, 0
2, 9986, Note_on_c, 0, 72, 80
2, 9989, Note_on_c, 0, 76, 80
2, 10035, Note_on_c, 0, 43, 0
2, 10038, Note_on_c, 0, 55, 80
2, 10038, Note_on_c, 0, 60, 80
2, 10038, Note_on_c, 0, 64, 80
2, 10089, Note_on_c, 0, 76, 0
2, 10089, Note_on_c, 0, 72, 0
2, 10089, Note_on_c, 0, 69, 80
2, 10099, Note_on_c, 0, 81, 80
2, 10155, Note_on_c, 0, 60, 0
2, 10155, Note_on_c, 0, 57, 80
2, 10158, Note_on_c, 0, 64, 0
2, 10158, Note_on_c, 0, 55, 0
2, 10161, Note_on_c, 0, 45, 80
2, 10207, Note_on_c, 0, 81, 0
2, 10212, Note_on_c, 0, 69, 0
2, 10217, Note_on_c, 0, 73, 80
2, 10220, Note_on_c, 0, 57, 0
2, 10269, Note_on_c, 0, 73, 0
2, 10276, Note_on_c, 0, 57, 80
2, 10276, Note_on_c, 0, 61, 80
2, 10276, Note_on_c, 0, 76, 80
2, 10279, Note_on_c, 0, 45, 0
2, 10282, Note_on_c, 0, 67, 80
2, 10333, Note_on_c, 0, 57, 0
2, 10343, Note_on_c, 0, 76, 0
2, 10347, Note_on_c, 0, 81, 80
2, 10392, Note_on_c, 0, 81, 0
2, 10394, Note_on_c, 0, 67, 0
2, 10399, Note_on_c, 0, 45, 80
2, 10399, Note_on_c, 0, 57, 80
2, 10399, Note_on_c, 0, 72, 80
2, 10399, Note_on_c, 0, 84, 80
2, 10402, Note_on_c, 0, 61, 0
2, 10453, Note_on_c, 0, 78, 80
2, 10458, Note_on_c, 0, 72, 0
2, 10458, Note_on_c, 0, 84, 0
2, 10461, Note_on_c, 0, 57, 0
2, 10514, Note_on_c, 0, 60, 80
2, 10517, Note_on_c, 0, 45, 0
2, 10517, Note_on_c, 0, 81, 80
2, 10520, Note_on_c, 0, 78, 0
2, 10523, Note_on_c, 0, 50, 80
2, 10523, Note_on_c, 0, 54, 80
2, 10569, Note_on_c, 0, 50, 0
2, 10574, Note_on_c, 0, 81, 0
2, 10579, Note_on_c, 0, 83, 80
2, 10582, Note_on_c, 0, 71, 80
2, 10628, Note_on_c, 0, 60, 0
2, 10635, Note_on_c, 0, 54, 0
2, 10635, Note_on_c, 0, 38, 80
2, 10640, Note_on_c, 0, 50, 80
2, 10689, Note_on_c, 0, 50, 0
2, 10689, Note_on_c, 0, 71, 0
2, 10692, Note_on_c, 0, 83, 0
2, 10700, Note_on_c, 0, 78, 80
2, 10753, Note_on_c, 0, 78, 0
2, 10753, Note_on_c, 0, 38, 0
2, 10753, Note_on_c, 0, 72, 80
2, 10753, Note_on_c, 0, 84, 80
2, 10756, Note_on_c, 0, 60, 80
2, 10759, Note_on_c, 0, 50, 80
2, 10759, Note_on_c, 0, 54, 80
2, 10810, Note_on_c, 0, 72, 0
2, 10815, Note_on_c, 0, 78, 80
2, 10818, Note_on_c, 0, 50, 0
2, 10821, Note_on_c, 0, 84, 0
2, 10862, Note_on_c, 0, 60, 0
2, 10865, Note_on_c, 0, 54, 0
2, 10874, Note_on_c, 0, 50, 80
2, 10874, Note_on_c, 0, 62, 80
2, 10877, Note_on_c, 0, 78, 0
2, 10877, Note_on_c, 0, 74, 80
2, 10877, Note_on_c, 0, 86, 80
2, 10931, Note_on_c, 0, 86, 0
2, 10931, Note_on_c, 0, 77, 80
2, 10934, Note_on_c, 0, 74, 0
2, 10975, Note_on_c, 0, 50, 0
2, 10994, Note_on_c, 0, 59, 80
2, 10994, Note_on_c, 0, 65, 80
2, 10997, Note_on_c, 0, 55, 80
2, 11005, Note_on_c, 0, 77, 0
2, 11008, Note_on_c, 0, 62, 0
2, 11008, Note_on_c, 0, 83, 80
2, 11052, Note_on_c, 0, 55, 0
2, 11055, Note_on_c, 0, 84, 80
2, 11058, Note_on_c, 0, 83, 0
2, 11063, Note_on_c, 0, 76, 80
2, 11063, Note_on_c, 0, 79, 80
2, 11112, Note_on_c, 0, 79, 0
2, 11114, Note_on_c, 0, 59, 0
2, 11114, Note_on_c, 0, 55, 80
2, 11119, Note_on_c, 0, 65, 0
2, 11122, Note_on_c, 0, 43, 80
2, 11176, Note_on_c, 0, 84, 0
2, 11179, Note_on_c, 0, 79, 80
2, 11184, Note_on_c, 0, 76, 0
2, 11225, Note_on_c, 0, 77, 80
2, 11228, Note_on_c, 0, 79, 0
2, 11231, Note_on_c, 0, 55, 0
2, 11231, Note_on_c, 0, 56, 80
2, 11233, Note_on_c, 0, 43, 0
2, 11233, Note_on_c, 0, 74, 80
2, 11233, Note_on_c, 0, 83, 80
2, 11238, Note_on_c, 0, 44, 80
2, 11251, Note_on_c, 0, 77, 0
2, 11297, Note_on_c, 0, 74, 0
2, 11297, Note_on_c, 0, 77, 80
2, 11304, Note_on_c, 0, 83, 0
2, 11331, Note_on_c, 0, 56, 0
2, 11339, Note_on_c, 0, 44, 0
2, 11344, Note_on_c, 0, 57, 80
2, 11347, Note_on_c, 0, 76, 80
2, 11352, Note_on_c, 0, 77, 0
2, 11352, Note_on_c, 0, 72, 80
2, 11354, Note_on_c, 0, 45, 80
2, 11357, Note_on_c, 0, 81, 80
2, 11362, Note_on_c, 0, 76, 0
2, 11406, Note_on_c, 0, 81, 0
2, 11411, Note_on_c, 0, 76, 80
2, 11421, Note_on_c, 0, 72, 0
2, 11425, Note_on_c, 0, 76, 0
2, 11457, Note_on_c, 0, 57, 0
2, 11460, Note_on_c, 0, 45, 0
2, 11465, Note_on_c, 0, 72, 80
2, 11468, Note_on_c, 0, 76, 80
2, 11472, Note_on_c, 0, 58, 80
2, 11475, Note_on_c, 0, 46, 80
2, 11475, Note_on_c, 0, 81, 80
2, 11524, Note_on_c, 0, 81, 0
2, 11527, Note_on_c, 0, 76, 0
2, 11532, Note_on_c, 0, 74, 80
2, 11532, Note_on_c, 0, 79, 80
2, 11535, Note_on_c, 0, 71, 80
2, 11540, Note_on_c, 0, 72, 0
2, 11581, Note_on_c, 0, 74, 0
2, 11586, Note_on_c, 0, 46, 0
2, 11586, Note_on_c, 0, 59, 80
2, 11589, Note_on_c, 0, 58, 0
2, 11589, Note_on_c, 0, 47, 80
2, 11630, Note_on_c, 0, 71, 0
2, 11635, Note_on_c, 0, 74, 80
2, 11696, Note_on_c, 0, 74, 0
2, 11696, Note_on_c, 0, 47, 0
2, 11699, Note_on_c, 0, 59, 0
2, 11699, Note_on_c, 0, 58, 80
2, 11707, Note_on_c, 0, 46, 80
2, 11710, Note_on_c, 0, 67, 80
2, 11759, Note_on_c, 0, 67, 0
2, 11761, Note_on_c, 0, 80, 80
2, 11764, Note_on_c, 0, 79, 0
2, 11764, Note_on_c, 0, 68, 80
2, 11818, Note_on_c, 0, 46, 0
2, 11821, Note_on_c, 0, 80, 0
2, 11821, Note_on_c, 0, 57, 80
2, 11821, Note_on_c, 0, 69, 80
2, 11824, Note_on_c, 0, 68, 0
2, 11824, Note_on_c, 0, 81, 80
2, 11827, Note_on_c, 0, 45, 80
2, 11830, Note_on_c, 0, 58, 0
2, 11874, Note_on_c, 0, 81, 0
2, 11883, Note_on_c, 0, 57, 0
2, 11883, Note_on_c, 0, 76, 80
2, 11886, Note_on_c, 0, 69, 0
2, 11886, Note_on_c, 0, 73, 80
2, 11937, Note_on_c, 0, 73, 0
2, 11937, Note_on_c, 0, 76, 0
2, 11940, Note_on_c, 0, 57, 80
2, 11940, Note_on_c, 0, 82, 80
2, 11943, Note_on_c, 0, 61, 80
2, 11943, Note_on_c, 0, 70, 80
2, 11948, Note_on_c, 0, 67, 80
2, 11952, Note_on_c, 0, 45, 0
2, 11999, Note_on_c, 0, 61, 0
2, 12001, Note_on_c, 0, 82, 0
2, 12009, Note_on_c, 0, 70, 0
2, 12009, Note_on_c, 0, 69, 80
2, 12012, Note_on_c, 0, 81, 80
2, 12061, Note_on_c, 0, 67, 0
2, 12069, Note_on_c, 0, 57, 0
2, 12069, Note_on_c, 0, 49, 80
2, 12069, Note_on_c, 0, 61, 80
2, 12115, Note_on_c, 0, 81, 0
2, 12118, Note_on_c, 0, 69, 0
2, 12118, Note_on_c, 0, 61, 0
2, 12122, Note_on_c, 0, 73, 80
2, 12122, Note_on_c, 0, 76, 80
2, 12179, Note_on_c, 0, 76, 0
2, 12179, Note_on_c, 0, 73, 0
2, 12182, Note_on_c, 0, 57, 80
2, 12185, Note_on_c, 0, 61, 80
2, 12185, Note_on_c, 0, 67, 80
2, 12185, Note_on_c, 0, 70, 80
2, 12185, Note_on_c, 0, 82, 80
2, 12197, Note_on_c, 0, 49, 0
2, 12241, Note_on_c, 0, 70, 0
2, 12246, Note_on_c, 0, 82, 0
2, 12249, Note_on_c, 0, 69, 80
2, 12252, Note_on_c, 0, 81, 80
2, 12301, Note_on_c, 0, 57, 0
2, 12304, Note_on_c, 0, 64, 80
2, 12307, Note_on_c, 0, 67, 0
2, 12307, Note_on_c, 0, 61, 0
2, 12307, Note_on_c, 0, 52, 80
2, 12358, Note_on_c, 0, 81, 0
2, 12365, Note_on_c, 0, 69, 0
2, 12370, Note_on_c, 0, 73, 80
2, 12370, Note_on_c, 0, 76, 80
2, 12421, Note_on_c, 0, 76, 0
2, 12429, Note_on_c, 0, 73, 0
2, 12429, Note_on_c, 0, 57, 80
2, 12429, Note_on_c, 0, 70, 80
2, 12432, Note_on_c, 0, 52, 0
2, 12432, Note_on_c, 0, 61, 80
2, 12434, Note_on_c, 0, 82, 80
2, 12442, Note_on_c, 0, 64, 0
2, 12442, Note_on_c, 0, 67, 80
2, 12493, Note_on_c, 0, 70, 0
2, 12493, Note_on_c, 0, 82, 0
2, 12496, Note_on_c, 0, 67, 0
2, 12496, Note_on_c, 0, 69, 80
2, 12499, Note_on_c, 0, 81, 80
2, 12543, Note_on_c, 0, 57, 0
2, 12552, Note_on_c, 0, 55, 80
2, 12557, Note_on_c, 0, 67, 80
2, 12565, Note_on_c, 0, 61, 0
2, 12601, Note_on_c, 0, 81, 0
2, 12606, Note_on_c, 0, 69, 0
2, 12611, Note_on_c, 0, 73, 80
2, 12611, Note_on_c, 0, 76, 80
2, 12614, Note_on_c, 0, 67, 0
2, 12671, Note_on_c, 0, 73, 0
2, 12671, Note_on_c, 0, 61, 80
2, 12673, Note_on_c, 0, 76, 0
2, 12673, Note_on_c, 0, 82, 80
2, 12676, Note_on_c, 0, 57, 80
2, 12676, Note_on_c, 0, 67, 80
2, 12676, Note_on_c, 0, 70, 80
2, 12679, Note_on_c, 0, 55, 0
2, 12733, Note_on_c, 0, 82, 0
2, 12733, Note_on_c, 0, 70, 0
2, 12733, Note_on_c, 0, 69, 80
2, 12736, Note_on_c, 0, 81, 80
2, 12792, Note_on_c, 0, 65, 80
2, 12795, Note_on_c, 0, 53, 80
2, 12800, Note_on_c, 0, 61, 0
2, 12800, Note_on_c, 0, 57, 0
2, 12808, Note_on_c, 0, 67, 0
2, 12852, Note_on_c, 0, 81, 0
2, 12852, Note_on_c, 0, 74, 80
2, 12852, Note_on_c, 0, 77, 80
2, 12855, Note_on_c, 0, 69, 0
2, 12855, Note_on_c, 0, 65, 0
2, 12906, Note_on_c, 0, 74, 0
2, 12909, Note_on_c, 0, 65, 80
2, 12913, Note_on_c, 0, 82, 80
2, 12916, Note_on_c, 0, 57, 80
2, 12916, Note_on_c, 0, 62, 80
2, 12916, Note_on_c, 0, 70, 80
2, 12919, Note_on_c, 0, 53, 0
2, 12922, Note_on_c, 0, 77, 0
2, 12966, Note_on_c, 0, 82, 0
2, 12976, Note_on_c, 0, 62, 0
2, 12976, Note_on_c, 0, 70, 0
2, 12976, Note_on_c, 0, 69, 80
2, 12984, Note_on_c, 0, 81, 80
2, 13030, Note_on_c, 0, 65, 0
2, 13030, Note_on_c, 0, 57, 0
2, 13032, Note_on_c, 0, 62, 80
2, 13035, Note_on_c, 0, 50, 80
2, 13086, Note_on_c, 0, 69, 0
2, 13091, Note_on_c, 0, 81, 0
2, 13091, Note_on_c, 0, 77, 80
2, 13094, Note_on_c, 0, 74, 80
2, 13097, Note_on_c, 0, 62, 0
2, 13143, Note_on_c, 0, 50, 0
2, 13148, Note_on_c, 0, 62, 80
2, 13151, Note_on_c, 0, 77, 0
2, 13151, Note_on_c, 0, 74, 0
2, 13153, Note_on_c, 0, 57, 80
2, 13153, Note_on_c, 0, 65, 80
2, 13153, Note_on_c, 0, 70, 80
2, 13156, Note_on_c, 0, 82, 80
2, 13202, Note_on_c, 0, 82, 0
2, 13202, Note_on_c, 0, 57, 0
2, 13205, Note_on_c, 0, 69, 80
2, 13213, Note_on_c, 0, 70, 0
2, 13216, Note_on_c, 0, 81, 80
2, 13265, Note_on_c, 0, 62, 0
2, 13268, Note_on_c, 0, 57, 80
2, 13271, Note_on_c, 0, 65, 0
2, 13271, Note_on_c, 0, 45, 80
2, 13324, Note_on_c, 0, 81, 0
2, 13324, Note_on_c, 0, 69, 0
2, 13329, Note_on_c, 0, 77, 80
2, 13332, Note_on_c, 0, 57, 0
2, 13335, Note_on_c, 0, 74, 80
2, 13389, Note_on_c, 0, 62, 80
2, 13389, Note_on_c, 0, 65, 80
2, 13392, Note_on_c, 0, 77, 0
2, 13392, Note_on_c, 0, 45, 0
2, 13392, Note_on_c, 0, 70, 80
2, 13392, Note_on_c, 0, 82, 80
2, 13394, Note_on_c, 0, 74, 0
2, 13394, Note_on_c, 0, 57, 80
2, 13445, Note_on_c, 0, 82, 0
2, 13450, Note_on_c, 0, 69, 80
2, 13453, Note_on_c, 0, 70, 0
2, 13456, Note_on_c, 0, 81, 80
2, 13505, Note_on_c, 0, 53, 80
2, 13510, Note_on_c, 0, 57, 0
2, 13512, Note_on_c, 0, 41, 80
2, 13515, Note_on_c, 0, 65, 0
2, 13515, Note_on_c, 0, 62, 0
2, 13550, Note_on_c, 0, 81, 0
2, 13562, Note_on_c, 0, 69, 0
2, 13565, Note_on_c, 0, 77, 80
2, 13568, Note_on_c, 0, 74, 80
2, 13614, Note_on_c, 0, 41, 0
2, 13617, Note_on_c, 0, 53, 0
2, 13625, Note_on_c, 0, 74, 0
2, 13625, Note_on_c, 0, 72, 80
2, 13625, Note_on_c, 0, 75, 80
2, 13628, Note_on_c, 0, 54, 80
2, 13628, Note_on_c, 0, 68, 80
2, 13631, Note_on_c, 0, 77, 0
2, 13631, Note_on_c, 0, 42, 80
2, 13631, Note_on_c, 0, 80, 80
2, 13743, Note_on_c, 0, 42, 0
2, 13748, Note_on_c, 0, 75, 0
2, 13751, Note_on_c, 0, 55, 80
2, 13753, Note_on_c, 0, 54, 0
2, 13753, Note_on_c, 0, 79, 80
2, 13756, Note_on_c, 0, 72, 0
2, 13756, Note_on_c, 0, 80, 0
2, 13756, Note_on_c, 0, 43, 80
2, 13759, Note_on_c, 0, 68, 0
2, 13762, Note_on_c, 0, 67, 80
2, 13808, Note_on_c, 0, 79, 0
2, 13811, Note_on_c, 0, 67, 0
2, 13811, Note_on_c, 0, 72, 80
2, 13816, Note_on_c, 0, 76, 80
2, 13828, Note_on_c, 0, 55, 0
2, 13860, Note_on_c, 0, 43, 0
2, 13872, Note_on_c, 0, 60, 80
2, 13872, Note_on_c, 0, 64, 80
2, 13877, Note_on_c, 0, 55, 80
2, 13921, Note_on_c, 0, 72, 0
2, 13931, Note_on_c, 0, 76, 0
2, 13931, Note_on_c, 0, 69, 80
2, 13936, Note_on_c, 0, 81, 80
2, 13990, Note_on_c, 0, 64, 0
2, 13990, Note_on_c, 0, 60, 0
2, 13990, Note_on_c, 0, 57, 80
2, 13992, Note_on_c, 0, 55, 0
2, 13992, Note_on_c, 0, 45, 80
2, 14046, Note_on_c, 0, 81, 0
2, 14051, Note_on_c, 0, 57, 0
2, 14054, Note_on_c, 0, 73, 80
2, 14095, Note_on_c, 0, 69, 0
2, 14105, Note_on_c, 0, 45, 0
2, 14108, Note_on_c, 0, 73, 0
2, 14108, Note_on_c, 0, 61, 80
2, 14112, Note_on_c, 0, 67, 80
2, 14112, Note_on_c, 0, 76, 80
2, 14120, Note_on_c, 0, 57, 80
2, 14171, Note_on_c, 0, 76, 0
2, 14181, Note_on_c, 0, 57, 0
2, 14184, Note_on_c, 0, 81, 80
2, 14228, Note_on_c, 0, 81, 0
2, 14228, Note_on_c, 0, 57, 80
2, 14231, Note_on_c, 0, 61, 0
2, 14233, Note_on_c, 0, 84, 80
2, 14236, Note_on_c, 0, 67, 0
2, 14239, Note_on_c, 0, 45, 80
2, 14242, Note_on_c, 0, 72, 80
2, 14296, Note_on_c, 0, 72, 0
2, 14299, Note_on_c, 0, 84, 0
2, 14302, Note_on_c, 0, 57, 0
2, 14302, Note_on_c, 0, 78, 80
2, 14351, Note_on_c, 0, 45, 0
2, 14353, Note_on_c, 0, 57, 80
2, 14353, Note_on_c, 0, 62, 80
2, 14358, Note_on_c, 0, 78, 0
2, 14358, Note_on_c, 0, 66, 80
2, 14361, Note_on_c, 0, 60, 80
2, 14361, Note_on_c, 0, 81, 80
2, 14410, Note_on_c, 0, 81, 0
2, 14415, Note_on_c, 0, 72, 80
2, 14415, Note_on_c, 0, 84, 80
2, 14466, Note_on_c, 0, 66, 0
2, 14471, Note_on_c, 0, 60, 0
2, 14471, Note_on_c, 0, 57, 0
2, 14473, Note_on_c, 0, 56, 80
2, 14476, Note_on_c, 0, 44, 80
2, 14484, Note_on_c, 0, 62, 0
2, 14528, Note_on_c, 0, 84, 0
2, 14528, Note_on_c, 0, 72, 0
2, 14536, Note_on_c, 0, 78, 80
2, 14575, Note_on_c, 0, 56, 0
2, 14585, Note_on_c, 0, 55, 80
2, 14585, Note_on_c, 0, 77, 80
2, 14585, Note_on_c, 0, 86, 80
2, 14588, Note_on_c, 0, 78, 0
2, 14588, Note_on_c, 0, 44, 0
2, 14591, Note_on_c, 0, 74, 80
2, 14593, Note_on_c, 0, 43, 80
2, 14642, Note_on_c, 0, 74, 0
2, 14647, Note_on_c, 0, 86, 0
2, 14647, Note_on_c, 0, 84, 80
2, 14650, Note_on_c, 0, 77, 0
2, 14653, Note_on_c, 0, 72, 80
2, 14656, Note_on_c, 0, 76, 80
2, 14697, Note_on_c, 0, 60, 80
2, 14700, Note_on_c, 0, 55, 0
2, 14703, Note_on_c, 0, 43, 0
2, 14706, Note_on_c, 0, 48, 80
2, 14757, Note_on_c, 0, 84, 0
2, 14760, Note_on_c, 0, 72, 0
2, 14762, Note_on_c, 0, 76, 0
2, 14767, Note_on_c, 0, 81, 80
2, 14808, Note_on_c, 0, 60, 0
2, 14811, Note_on_c, 0, 81, 0
2, 14814, Note_on_c, 0, 52, 80
2, 14814, Note_on_c, 0, 64, 80
2, 14817, Note_on_c, 0, 79, 80
2, 14822, Note_on_c, 0, 48, 0
2, 14876, Note_on_c, 0, 79, 0
2, 14885, Note_on_c, 0, 76, 80
2, 14931, Note_on_c, 0, 76, 0
2, 14936, Note_on_c, 0, 52, 0
2, 14936, Note_on_c, 0, 72, 80
2, 14939, Note_on_c, 0, 60, 80
2, 14942, Note_on_c, 0, 48, 80
2, 14945, Note_on_c, 0, 64, 0
2, 15001, Note_on_c, 0, 72, 0
2, 15001, Note_on_c, 0, 69, 80
2, 15058, Note_on_c, 0, 60, 0
2, 15061, Note_on_c, 0, 48, 0
2, 15061, Note_on_c, 0, 55, 80
2, 15064, Note_on_c, 0, 69, 0
2, 15067, Note_on_c, 0, 43, 80
2, 15070, Note_on_c, 0, 67, 80
2, 15116, Note_on_c, 0, 64, 80
2, 15120, Note_on_c, 0, 67, 0
2, 15169, Note_on_c, 0, 60, 80
2, 15174, Note_on_c, 0, 43, 0
2, 15177, Note_on_c, 0, 55, 0
2, 15180, Note_on_c, 0, 36, 80
2, 15180, Note_on_c, 0, 48, 80
2, 15183, Note_on_c, 0, 64, 0
2, 15300, Note_on_c, 0, 48, 0
2, 15300, Note_on_c, 0, 71, 80
2, 15300, Note_on_c, 0, 74, 80
2, 15305, Note_on_c, 0, 55, 80
2, 15305, Note_on_c, 0, 79, 80
2, 15308, Note_on_c, 0, 36, 0
2, 15308, Note_on_c, 0, 60, 0
2, 15311, Note_on_c, 0, 43, 80
2, 15313, Note_on_c, 0, 67, 80
2, 15370, Note_on_c, 0, 79, 0
2, 15409, Note_on_c, 0, 74, 0
2, 15419, Note_on_c, 0, 79, 80
2, 15419, Note_on_c, 0, 84, 80
2, 15422, Note_on_c, 0, 71, 0
2, 15422, Note_on_c, 0, 67, 0
2, 15422, Note_on_c, 0, 76, 80
2, 15425, Note_on_c, 0, 48, 80
2, 15428, Note_on_c, 0, 36, 80
2, 15428, Note_on_c, 0, 72, 80
2, 15431, Note_on_c, 0, 43, 0
2, 15431, Note_on_c, 0, 55, 0
2, 15481, Note_on_c, 0, 79, 0
2, 15481, Note_on_c, 0, 72, 0
2, 15481, Note_on_c, 0, 76, 0
2, 15481, Note_on_c, 0, 84, 0
2, 15489, Note_on_c, 0, 67, 80
2, 15492, Note_on_c, 0, 55, 80
2, 15538, Note_on_c, 0, 48, 0
2, 15541, Note_on_c, 0, 36, 0
2, 15546, Note_on_c, 0, 57, 80
2, 15546, Note_on_c, 0, 69, 80
2, 15553, Note_on_c, 0, 67, 0
2, 15553, Note_on_c, 0, 55, 0
2, 15598, Note_on_c, 0, 69, 0
2, 15605, Note_on_c, 0, 57, 0
2, 15613, Note_on_c, 0, 58, 80
2, 15613, Note_on_c, 0, 70, 80
2, 15672, Note_on_c, 0, 65, 80
2, 15672, Note_on_c, 0, 71, 80
2, 15674, Note_on_c, 0, 59, 80
2, 15677, Note_on_c, 0, 70, 0
2, 15677, Note_on_c, 0, 43, 80
2, 15677, Note_on_c, 0, 50, 80
2, 15680, Note_on_c, 0, 58, 0
2, 16200, Note_on_c, 0, 50, 0
2, 16200, Note_on_c, 0, 55, 80
2, 16203, Note_on_c, 0, 59, 0
2, 16203, Note_on_c, 0, 43, 0
2, 16203, Note_on_c, 0, 71, 0
2, 16203, Note_on_c, 0, 65, 0
2, 16267, Note_on_c, 0, 59, 80
2, 16320, Note_on_c, 0, 59, 0
2, 16328, Note_on_c, 0, 62, 80
2, 16385, Note_on_c, 0, 65, 80
2, 16390, Note_on_c, 0, 62, 0
2, 16446, Note_on_c, 0, 59, 80
2, 16461, Note_on_c, 0, 55, 0
2, 16502, Note_on_c, 0, 65, 0
2, 16507, Note_on_c, 0, 62, 80
2, 16563, Note_on_c, 0, 65, 80
2, 16581, Note_on_c, 0, 62, 0
2, 16585, Note_on_c, 0, 65, 0
2, 16622, Note_on_c, 0, 38, 80
2, 16622, Note_on_c, 0, 65, 80
2, 16622, Note_on_c, 0, 69, 80
2, 16625, Note_on_c, 0, 59, 0
2, 16625, Note_on_c, 0, 62, 80
2, 16632, Note_on_c, 0, 50, 80
2, 16677, Note_on_c, 0, 65, 0
2, 16726, Note_on_c, 0, 38, 0
2, 16735, Note_on_c, 0, 69, 0
2, 16738, Note_on_c, 0, 55, 80
2, 16738, Note_on_c, 0, 65, 80
2, 16741, Note_on_c, 0, 50, 0
2, 16741, Note_on_c, 0, 71, 80
2, 16741, Note_on_c, 0, 83, 80
2, 16744, Note_on_c, 0, 62, 0
2, 16744, Note_on_c, 0, 59, 80
2, 16798, Note_on_c, 0, 71, 0
2, 16798, Note_on_c, 0, 77, 80
2, 16802, Note_on_c, 0, 83, 0
2, 16859, Note_on_c, 0, 59, 0
2, 16862, Note_on_c, 0, 50, 80
2, 16865, Note_on_c, 0, 65, 0
2, 16865, Note_on_c, 0, 38, 80
2, 16865, Note_on_c, 0, 69, 80
2, 16868, Note_on_c, 0, 55, 0
2, 16872, Note_on_c, 0, 77, 0
2, 16872, Note_on_c, 0, 81, 80
2, 16921, Note_on_c, 0, 81, 0
2, 16924, Note_on_c, 0, 71, 80
2, 16929, Note_on_c, 0, 69, 0
2, 16929, Note_on_c, 0, 74, 80
2, 16970, Note_on_c, 0, 38, 0
2, 16978, Note_on_c, 0, 71, 0
2, 16978, Note_on_c, 0, 68, 80
2, 16981, Note_on_c, 0, 50, 0
2, 16981, Note_on_c, 0, 80, 80
2, 16984, Note_on_c, 0, 74, 0
2, 16989, Note_on_c, 0, 39, 80
2, 16992, Note_on_c, 0, 51, 80
2, 17042, Note_on_c, 0, 79, 80
2, 17050, Note_on_c, 0, 80, 0
2, 17050, Note_on_c, 0, 68, 0
2, 17050, Note_on_c, 0, 67, 80
2, 17101, Note_on_c, 0, 52, 80
2, 17104, Note_on_c, 0, 39, 0
2, 17109, Note_on_c, 0, 40, 80
2, 17113, Note_on_c, 0, 51, 0
2, 17158, Note_on_c, 0, 79, 0
2, 17165, Note_on_c, 0, 67, 0
2, 17165, Note_on_c, 0, 76, 80
2, 17222, Note_on_c, 0, 55, 80
2, 17222, Note_on_c, 0, 60, 80
2, 17222, Note_on_c, 0, 64, 80
2, 17225, Note_on_c, 0, 52, 0
2, 17228, Note_on_c, 0, 72, 80
2, 17232, Note_on_c, 0, 40, 0
2, 17232, Note_on_c, 0, 76, 0
2, 17277, Note_on_c, 0, 72, 0
2, 17289, Note_on_c, 0, 67, 80
2, 17333, Note_on_c, 0, 55, 0
2, 17341, Note_on_c, 0, 64, 0
2, 17341, Note_on_c, 0, 60, 0
2, 17344, Note_on_c, 0, 43, 80
2, 17347, Note_on_c, 0, 31, 80
2, 17350, Note_on_c, 0, 67, 0
2, 17403, Note_on_c, 0, 55, 80
2, 17411, Note_on_c, 0, 67, 80
2, 17452, Note_on_c, 0, 31, 0
2, 17455, Note_on_c, 0, 43, 0
2, 17458, Note_on_c, 0, 67, 0
2, 17458, Note_on_c, 0, 57, 80
2, 17458, Note_on_c, 0, 69, 80
2, 17466, Note_on_c, 0, 55, 0
2, 17517, Note_on_c, 0, 69, 0
2, 17517, Note_on_c, 0, 57, 0
2, 17517, Note_on_c, 0, 58, 80
2, 17521, Note_on_c, 0, 70, 80
2, 17570, Note_on_c, 0, 58, 0
2, 17575, Note_on_c, 0, 70, 0
2, 17575, Note_on_c, 0, 59, 80
2, 17575, Note_on_c, 0, 65, 80
2, 17575, Note_on_c, 0, 71, 80
2, 17578, Note_on_c, 0, 43, 80
2, 17578, Note_on_c, 0, 50, 80
2, 17849, Note_on_c, 0, 43, 0
2, 17873, Note_on_c, 0, 43, 80
2, 18093, Note_on_c, 0, 43, 0
2, 18096, Note_on_c, 0, 55, 80
2, 18105, Note_on_c, 0, 50, 0
2, 18105, Note_on_c, 0, 71, 0
2, 18110, Note_on_c, 0, 59, 0
2, 18120, Note_on_c, 0, 65, 0
2, 18154, Note_on_c, 0, 59, 80
2, 18220, Note_on_c, 0, 59, 0
2, 18223, Note_on_c, 0, 62, 80
2, 18282, Note_on_c, 0, 65, 80
2, 18287, Note_on_c, 0, 62, 0
2, 18345, Note_on_c, 0, 59, 80
2, 18369, Note_on_c, 0, 55, 0
2, 18410, Note_on_c, 0, 62, 80
2, 18413, Note_on_c, 0, 65, 0
2, 18464, Note_on_c, 0, 65, 80
2, 18469, Note_on_c, 0, 62, 0
2, 18486, Note_on_c, 0, 65, 0
2, 18526, Note_on_c, 0, 65, 80
2, 18528, Note_on_c, 0, 59, 0
2, 18528, Note_on_c, 0, 62, 80
2, 18533, Note_on_c, 0, 69, 80
2, 18536, Note_on_c, 0, 50, 80
2, 18539, Note_on_c, 0, 38, 80
2, 18596, Note_on_c, 0, 65, 0
2, 18640, Note_on_c, 0, 50, 0
2, 18648, Note_on_c, 0, 55, 80
2, 18648, Note_on_c, 0, 83, 80
2, 18650, Note_on_c, 0, 62, 0
2, 18650, Note_on_c, 0, 38, 0
2, 18650, Note_on_c, 0, 69, 0
2, 18650, Note_on_c, 0, 59, 80
2, 18650, Note_on_c, 0, 65, 80
2, 18650, Note_on_c, 0, 71, 80
2, 18712, Note_on_c, 0, 71, 0
2, 18712, Note_on_c, 0, 83, 0
2, 18712, Note_on_c, 0, 77, 80
2, 18761, Note_on_c, 0, 59, 0
2, 18766, Note_on_c, 0, 65, 0
2, 18768, Note_on_c, 0, 50, 80
2, 18771, Note_on_c, 0, 77, 0
2, 18771, Note_on_c, 0, 81, 80
2, 18774, Note_on_c, 0, 38, 80
2, 18774, Note_on_c, 0, 69, 80
2, 18777, Note_on_c, 0, 55, 0
2, 18828, Note_on_c, 0, 81, 0
2, 18831, Note_on_c, 0, 69, 0
2, 18831, Note_on_c, 0, 74, 80
2, 18834, Note_on_c, 0, 71, 80
2, 18865, Note_on_c, 0, 50, 0
2, 18880, Note_on_c, 0, 38, 0
2, 18889, Note_on_c, 0, 74, 0
2, 18892, Note_on_c, 0, 71, 0
2, 18892, Note_on_c, 0, 68, 80
2, 18895, Note_on_c, 0, 39, 80
2, 18898, Note_on_c, 0, 51, 80
2, 18898, Note_on_c, 0, 80, 80
2, 18947, Note_on_c, 0, 80, 0
2, 18952, Note_on_c, 0, 68, 0
2, 18952, Note_on_c, 0, 79, 80
2, 18955, Note_on_c, 0, 67, 80
2, 19011, Note_on_c, 0, 39, 0
2, 19011, Note_on_c, 0, 40, 80
2, 19014, Note_on_c, 0, 52, 80
2, 19017, Note_on_c, 0, 51, 0
2, 19063, Note_on_c, 0, 67, 0
2, 19073, Note_on_c, 0, 79, 0
2, 19076, Note_on_c, 0, 76, 80
2, 19122, Note_on_c, 0, 40, 0
2, 19129, Note_on_c, 0, 64, 80
2, 19129, Note_on_c, 0, 72, 80
2, 19132, Note_on_c, 0, 55, 80
2, 19132, Note_on_c, 0, 60, 80
2, 19135, Note_on_c, 0, 76, 0
2, 19138, Note_on_c, 0, 52, 0
2, 19192, Note_on_c, 0, 72, 0
2, 19197, Note_on_c, 0, 67, 80
2, 19246, Note_on_c, 0, 67, 0
2, 19319, Note_on_c, 0, 55, 0
2, 19319, Note_on_c, 0, 60, 0
2, 19319, Note_on_c, 0, 64, 0
2, 19319, Note_on_c, 0, 79, 80
2, 19321, Note_on_c, 0, 67, 80
2, 19370, Note_on_c, 0, 67, 0
2, 19370, Note_on_c, 0, 66, 80
2, 19373, Note_on_c, 0, 79, 0
2, 19373, Note_on_c, 0, 78, 80
2, 19435, Note_on_c, 0, 65, 80
2, 19438, Note_on_c, 0, 66, 0
2, 19440, Note_on_c, 0, 78, 0
2, 19440, Note_on_c, 0, 77, 80
2, 19491, Note_on_c, 0, 77, 0
2, 19491, Note_on_c, 0, 44, 80
2, 19494, Note_on_c, 0, 76, 80
2, 19497, Note_on_c, 0, 56, 80
2, 19497, Note_on_c, 0, 64, 80
2, 19502, Note_on_c, 0, 65, 0
2, 19551, Note_on_c, 0, 76, 0
2, 19554, Note_on_c, 0, 56, 0
2, 19554, Note_on_c, 0, 68, 80
2, 19557, Note_on_c, 0, 71, 80
2, 19564, Note_on_c, 0, 64, 0
2, 19613, Note_on_c, 0, 71, 0
2, 19613, Note_on_c, 0, 65, 80
2, 19616, Note_on_c, 0, 56, 80
2, 19619, Note_on_c, 0, 44, 0
2, 19619, Note_on_c, 0, 77, 80
2, 19622, Note_on_c, 0, 68, 0
2, 19622, Note_on_c, 0, 62, 80
2, 19625, Note_on_c, 0, 52, 80
2, 19676, Note_on_c, 0, 77, 0
2, 19676, Note_on_c, 0, 65, 0
2, 19679, Note_on_c, 0, 64, 80
2, 19681, Note_on_c, 0, 52, 0
2, 19681, Note_on_c, 0, 76, 80
2, 19728, Note_on_c, 0, 56, 0
2, 19737, Note_on_c, 0, 40, 80
2, 19740, Note_on_c, 0, 62, 0
2, 19743, Note_on_c, 0, 52, 80
2, 19800, Note_on_c, 0, 76, 0
2, 19800, Note_on_c, 0, 64, 0
2, 19800, Note_on_c, 0, 68, 80
2, 19800, Note_on_c, 0, 71, 80
2, 19848, Note_on_c, 0, 52, 0
2, 19851, Note_on_c, 0, 40, 0
2, 19854, Note_on_c, 0, 75, 80
2, 19857, Note_on_c, 0, 71, 0
2, 19857, Note_on_c, 0, 63, 80
2, 19862, Note_on_c, 0, 68, 0
2, 19862, Note_on_c, 0, 59, 80
2, 19867, Note_on_c, 0, 47, 80
2, 19916, Note_on_c, 0, 75, 0
2, 19920, Note_on_c, 0, 71, 80
2, 19923, Note_on_c, 0, 63, 0
2, 19923, Note_on_c, 0, 68, 80
2, 19968, Note_on_c, 0, 59, 0
2, 19972, Note_on_c, 0, 47, 0
2, 19975, Note_on_c, 0, 64, 80
2, 19978, Note_on_c, 0, 71, 0
2, 19978, Note_on_c, 0, 68, 0
2, 19978, Note_on_c, 0, 76, 80
2, 19981, Note_on_c, 0, 48, 80
2, 19981, Note_on_c, 0, 60, 80
2, 20035, Note_on_c, 0, 60, 0
2, 20040, Note_on_c, 0, 76, 0
2, 20044, Note_on_c, 0, 69, 80
2, 20044, Note_on_c, 0, 72, 80
2, 20047, Note_on_c, 0, 64, 0
2, 20087, Note_on_c, 0, 48, 0
2, 20094, Note_on_c, 0, 72, 0
2, 20094, Note_on_c, 0, 65, 80
2, 20094, Note_on_c, 0, 77, 80
2, 20097, Note_on_c, 0, 52, 80
2, 20097, Note_on_c, 0, 57, 80
2, 20097, Note_on_c, 0, 60, 80
2, 20102, Note_on_c, 0, 69, 0
2, 20151, Note_on_c, 0, 57, 0
2, 20154, Note_on_c, 0, 77, 0
2, 20157, Note_on_c, 0, 65, 0
2, 20157, Note_on_c, 0, 64, 80
2, 20160, Note_on_c, 0, 76, 80
2, 20213, Note_on_c, 0, 52, 0
2, 20216, Note_on_c, 0, 60, 0
2, 20219, Note_on_c, 0, 45, 80
2, 20219, Note_on_c, 0, 57, 80
2, 20282, Note_on_c, 0, 69, 80
2, 20287, Note_on_c, 0, 72, 80
2, 20290, Note_on_c, 0, 64, 0
2, 20290, Note_on_c, 0, 76, 0
2, 20300, Note_on_c, 0, 69, 0
2, 20329, Note_on_c, 0, 57, 0
2, 20329, Note_on_c, 0, 45, 0
2, 20339, Note_on_c, 0, 72, 0
2, 20339, Note_on_c, 0, 48, 80
2, 20339, Note_on_c, 0, 60, 80
2, 20339, Note_on_c, 0, 69, 80
2, 20347, Note_on_c, 0, 81, 80
2, 20396, Note_on_c, 0, 69, 0
2, 20403, Note_on_c, 0, 81, 0
2, 20403, Note_on_c, 0, 72, 80
2, 20411, Note_on_c, 0, 76, 80
2, 20452, Note_on_c, 0, 72, 0
2, 20452, Note_on_c, 0, 48, 0
2, 20455, Note_on_c, 0, 60, 0
2, 20455, Note_on_c, 0, 61, 80
2, 20458, Note_on_c, 0, 49, 80
2, 20461, Note_on_c, 0, 76, 0
2, 20461, Note_on_c, 0, 69, 80
2, 20466, Note_on_c, 0, 81, 80
2, 20512, Note_on_c, 0, 81, 0
2, 20521, Note_on_c, 0, 61, 0
2, 20524, Note_on_c, 0, 73, 80
2, 20524, Note_on_c, 0, 76, 80
2, 20527, Note_on_c, 0, 69, 0
2, 20573, Note_on_c, 0, 76, 0
2, 20573, Note_on_c, 0, 73, 0
2, 20573, Note_on_c, 0, 70, 80
2, 20576, Note_on_c, 0, 57, 80
2, 20576, Note_on_c, 0, 61, 80
2, 20576, Note_on_c, 0, 82, 80
2, 20579, Note_on_c, 0, 49, 0
2, 20582, Note_on_c, 0, 67, 80
2, 20626, Note_on_c, 0, 82, 0
2, 20634, Note_on_c, 0, 70, 0
2, 20637, Note_on_c, 0, 69, 80
2, 20640, Note_on_c, 0, 57, 0
2, 20642, Note_on_c, 0, 81, 80
2, 20684, Note_on_c, 0, 67, 0
2, 20696, Note_on_c, 0, 61, 0
2, 20699, Note_on_c, 0, 57, 80
2, 20702, Note_on_c, 0, 45, 80
2, 20741, Note_on_c, 0, 81, 0
2, 20751, Note_on_c, 0, 69, 0
2, 20751, Note_on_c, 0, 76, 80
2, 20756, Note_on_c, 0, 73, 80
2, 20807, Note_on_c, 0, 73, 0
2, 20807, Note_on_c, 0, 76, 0
2, 20814, Note_on_c, 0, 64, 80
2, 20814, Note_on_c, 0, 68, 80
2, 20814, Note_on_c, 0, 80, 80
2, 20817, Note_on_c, 0, 57, 0
2, 20817, Note_on_c, 0, 52, 80
2, 20825, Note_on_c, 0, 45, 0
2, 20871, Note_on_c, 0, 80, 0
2, 20871, Note_on_c, 0, 68, 0
2, 20876, Note_on_c, 0, 73, 80
2, 20876, Note_on_c, 0, 76, 80
2, 20925, Note_on_c, 0, 73, 0
2, 20929, Note_on_c, 0, 65, 80
2, 20934, Note_on_c, 0, 69, 80
2, 20937, Note_on_c, 0, 76, 0
2, 20937, Note_on_c, 0, 81, 80
2, 20940, Note_on_c, 0, 52, 0
2, 20940, Note_on_c, 0, 53, 80
2, 20943, Note_on_c, 0, 64, 0
2, 20984, Note_on_c, 0, 81, 0
2, 20989, Note_on_c, 0, 77, 80
2, 20992, Note_on_c, 0, 69, 0
2, 20992, Note_on_c, 0, 74, 80
2, 20997, Note_on_c, 0, 65, 0
2, 21046, Note_on_c, 0, 77, 0
2, 21046, Note_on_c, 0, 74, 0
2, 21046, Note_on_c, 0, 65, 80
2, 21046, Note_on_c, 0, 70, 80
2, 21046, Note_on_c, 0, 82, 80
2, 21048, Note_on_c, 0, 53, 0
2, 21048, Note_on_c, 0, 62, 80
2, 21051, Note_on_c, 0, 57, 80
2, 21102, Note_on_c, 0, 70, 0
2, 21107, Note_on_c, 0, 62, 0
2, 21107, Note_on_c, 0, 69, 80
2, 21112, Note_on_c, 0, 82, 0
2, 21112, Note_on_c, 0, 81, 80
2, 21163, Note_on_c, 0, 57, 0
2, 21163, Note_on_c, 0, 65, 0
2, 21170, Note_on_c, 0, 62, 80
2, 21173, Note_on_c, 0, 50, 80
2, 21215, Note_on_c, 0, 81, 0
2, 21224, Note_on_c, 0, 69, 0
2, 21224, Note_on_c, 0, 74, 80
2, 21224, Note_on_c, 0, 77, 80
2, 21278, Note_on_c, 0, 50, 0
2, 21281, Note_on_c, 0, 74, 0
2, 21288, Note_on_c, 0, 62, 0
2, 21288, Note_on_c, 0, 77, 0
2, 21288, Note_on_c, 0, 70, 80
2, 21291, Note_on_c, 0, 82, 80
2, 21296, Note_on_c, 0, 49, 80
2, 21296, Note_on_c, 0, 61, 80
2, 21342, Note_on_c, 0, 82, 0
2, 21347, Note_on_c, 0, 70, 0
2, 21347, Note_on_c, 0, 73, 80
2, 21347, Note_on_c, 0, 76, 80
2, 21347, Note_on_c, 0, 79, 80
2, 21396, Note_on_c, 0, 49, 0
2, 21399, Note_on_c, 0, 61, 0
2, 21404, Note_on_c, 0, 76, 0
2, 21404, Note_on_c, 0, 47, 80
2, 21404, Note_on_c, 0, 71, 80
2, 21407, Note_on_c, 0, 73, 0
2, 21407, Note_on_c, 0, 59, 80
2, 21409, Note_on_c, 0, 83, 80
2, 21412, Note_on_c, 0, 79, 0
2, 21454, Note_on_c, 0, 83, 0
2, 21454, Note_on_c, 0, 78, 80
2, 21458, Note_on_c, 0, 75, 80
2, 21461, Note_on_c, 0, 71, 0
2, 21461, Note_on_c, 0, 59, 0
2, 21507, Note_on_c, 0, 47, 0
2, 21515, Note_on_c, 0, 63, 80
2, 21518, Note_on_c, 0, 59, 80
2, 21521, Note_on_c, 0, 78, 0
2, 21521, Note_on_c, 0, 75, 0
2, 21526, Note_on_c, 0, 84, 80
2, 21528, Note_on_c, 0, 69, 80
2, 21528, Note_on_c, 0, 72, 80
2, 21579, Note_on_c, 0, 72, 0
2, 21579, Note_on_c, 0, 84, 0
2, 21584, Note_on_c, 0, 71, 80
2, 21584, Note_on_c, 0, 83, 80
2, 21587, Note_on_c, 0, 63, 0
2, 21636, Note_on_c, 0, 59, 0
2, 21641, Note_on_c, 0, 69, 0
2, 21648, Note_on_c, 0, 63, 80
2, 21651, Note_on_c, 0, 51, 80
2, 21696, Note_on_c, 0, 83, 0
2, 21698, Note_on_c, 0, 71, 0
2, 21703, Note_on_c, 0, 75, 80
2, 21703, Note_on_c, 0, 78, 80
2, 21757, Note_on_c, 0, 63, 0
2, 21760, Note_on_c, 0, 75, 0
2, 21765, Note_on_c, 0, 78, 0
2, 21765, Note_on_c, 0, 66, 80
2, 21769, Note_on_c, 0, 51, 0
2, 21769, Note_on_c, 0, 82, 80
2, 21769, Note_on_c, 0, 70, 80
2, 21772, Note_on_c, 0, 54, 80
2, 21821, Note_on_c, 0, 70, 0
2, 21821, Note_on_c, 0, 82, 0
2, 21826, Note_on_c, 0, 75, 80
2, 21829, Note_on_c, 0, 78, 80
2, 21886, Note_on_c, 0, 54, 0
2, 21888, Note_on_c, 0, 55, 80
2, 21888, Note_on_c, 0, 71, 80
2, 21891, Note_on_c, 0, 66, 0
2, 21891, Note_on_c, 0, 67, 80
2, 21894, Note_on_c, 0, 83, 80
2, 21897, Note_on_c, 0, 78, 0
2, 21897, Note_on_c, 0, 75, 0
2, 21941, Note_on_c, 0, 67, 0
2, 21944, Note_on_c, 0, 79, 80
2, 21947, Note_on_c, 0, 71, 0
2, 21952, Note_on_c, 0, 83, 0
2, 21955, Note_on_c, 0, 76, 80
2, 22001, Note_on_c, 0, 55, 0
2, 22010, Note_on_c, 0, 76, 0
2, 22010, Note_on_c, 0, 64, 80
2, 22013, Note_on_c, 0, 59, 80
2, 22013, Note_on_c, 0, 72, 80
2, 22013, Note_on_c, 0, 84, 80
2, 22016, Note_on_c, 0, 79, 0
2, 22019, Note_on_c, 0, 67, 80
2, 22070, Note_on_c, 0, 71, 80
2, 22075, Note_on_c, 0, 83, 80
2, 22078, Note_on_c, 0, 72, 0
2, 22078, Note_on_c, 0, 84, 0
2, 22127, Note_on_c, 0, 64, 0
2, 22127, Note_on_c, 0, 67, 0
2, 22127, Note_on_c, 0, 59, 0
2, 22127, Note_on_c, 0, 50, 80
2, 22127, Note_on_c, 0, 62, 80
2, 22185, Note_on_c, 0, 83, 0
2, 22185, Note_on_c, 0, 71, 0
2, 22185, Note_on_c, 0, 74, 80
2, 22185, Note_on_c, 0, 77, 80
2, 22242, Note_on_c, 0, 62, 0
2, 22245, Note_on_c, 0, 50, 0
2, 22245, Note_on_c, 0, 77, 0
2, 22245, Note_on_c, 0, 83, 80
2, 22248, Note_on_c, 0, 65, 80
2, 22248, Note_on_c, 0, 71, 80
2, 22250, Note_on_c, 0, 55, 80
2, 22250, Note_on_c, 0, 59, 80
2, 22253, Note_on_c, 0, 74, 0
2, 22299, Note_on_c, 0, 83, 0
2, 22302, Note_on_c, 0, 77, 80
2, 22307, Note_on_c, 0, 74, 80
2, 22310, Note_on_c, 0, 71, 0
2, 22371, Note_on_c, 0, 65, 0
2, 22371, Note_on_c, 0, 64, 80
2, 22374, Note_on_c, 0, 72, 80
2, 22374, Note_on_c, 0, 84, 80
2, 22377, Note_on_c, 0, 55, 0
2, 22377, Note_on_c, 0, 77, 0
2, 22377, Note_on_c, 0, 59, 0
2, 22380, Note_on_c, 0, 52, 80
2, 22383, Note_on_c, 0, 74, 0
2, 22432, Note_on_c, 0, 76, 80
2, 22435, Note_on_c, 0, 64, 0
2, 22438, Note_on_c, 0, 84, 0
2, 22438, Note_on_c, 0, 72, 0
2, 22488, Note_on_c, 0, 52, 0
2, 22493, Note_on_c, 0, 76, 0
2, 22493, Note_on_c, 0, 55, 80
2, 22493, Note_on_c, 0, 60, 80
2, 22493, Note_on_c, 0, 64, 80
2, 22493, Note_on_c, 0, 79, 80
2, 22550, Note_on_c, 0, 79, 0
2, 22555, Note_on_c, 0, 72, 80
2, 22555, Note_on_c, 0, 78, 80
2, 22555, Note_on_c, 0, 84, 80
2, 22606, Note_on_c, 0, 56, 80
2, 22608, Note_on_c, 0, 44, 80
2, 22611, Note_on_c, 0, 64, 0
2, 22611, Note_on_c, 0, 60, 0
2, 22616, Note_on_c, 0, 78, 0
2, 22619, Note_on_c, 0, 55, 0
2, 22670, Note_on_c, 0, 72, 0
2, 22670, Note_on_c, 0, 84, 0
2, 22673, Note_on_c, 0, 78, 80
2, 22727, Note_on_c, 0, 56, 0
2, 22727, Note_on_c, 0, 55, 80
2, 22729, Note_on_c, 0, 44, 0
2, 22729, Note_on_c, 0, 77, 80
2, 22732, Note_on_c, 0, 43, 80
2, 22735, Note_on_c, 0, 78, 0
2, 22735, Note_on_c, 0, 74, 80
2, 22735, Note_on_c, 0, 86, 80
2, 22797, Note_on_c, 0, 74, 0
2, 22797, Note_on_c, 0, 77, 0
2, 22797, Note_on_c, 0, 72, 80
2, 22797, Note_on_c, 0, 76, 80
2, 22797, Note_on_c, 0, 84, 80
2, 22801, Note_on_c, 0, 86, 0
2, 22843, Note_on_c, 0, 43, 0
2, 22852, Note_on_c, 0, 60, 80
2, 22855, Note_on_c, 0, 55, 0
2, 22855, Note_on_c, 0, 48, 80
2, 22906, Note_on_c, 0, 84, 0
2, 22911, Note_on_c, 0, 60, 0
2, 22911, Note_on_c, 0, 72, 0
2, 22911, Note_on_c, 0, 76, 0
2, 22911, Note_on_c, 0, 69, 80
2, 22914, Note_on_c, 0, 81, 80
2, 22963, Note_on_c, 0, 48, 0
2, 22968, Note_on_c, 0, 55, 80
2, 22970, Note_on_c, 0, 81, 0
2, 22970, Note_on_c, 0, 69, 0
2, 22970, Note_on_c, 0, 79, 80
2, 22973, Note_on_c, 0, 52, 80
2, 22973, Note_on_c, 0, 60, 80
2, 22976, Note_on_c, 0, 67, 80
2, 23025, Note_on_c, 0, 76, 80
2, 23033, Note_on_c, 0, 64, 80
2, 23038, Note_on_c, 0, 67, 0
2, 23038, Note_on_c, 0, 79, 0
2, 23084, Note_on_c, 0, 52, 0
2, 23088, Note_on_c, 0, 60, 0
2, 23093, Note_on_c, 0, 31, 80
2, 23096, Note_on_c, 0, 43, 80
2, 23101, Note_on_c, 0, 55, 0
2, 23152, Note_on_c, 0, 76, 0
2, 23155, Note_on_c, 0, 55, 80
2, 23158, Note_on_c, 0, 64, 0
2, 23158, Note_on_c, 0, 67, 80
2, 23207, Note_on_c, 0, 43, 0
2, 23209, Note_on_c, 0, 31, 0
2, 23209, Note_on_c, 0, 67, 0
2, 23209, Note_on_c, 0, 57, 80
2, 23209, Note_on_c, 0, 69, 80
2, 23217, Note_on_c, 0, 55, 0
2, 23268, Note_on_c, 0, 69, 0
2, 23276, Note_on_c, 0, 70, 80
2, 23279, Note_on_c, 0, 57, 0
2, 23279, Note_on_c, 0, 58, 80
2, 23332, Note_on_c, 0, 58, 0
2, 23332, Note_on_c, 0, 70, 0
2, 23332, Note_on_c, 0, 59, 80
2, 23332, Note_on_c, 0, 65, 80
2, 23335, Note_on_c, 0, 71, 80
2, 23340, Note_on_c, 0, 43, 80
2, 23343, Note_on_c, 0, 50, 80
2, 23863, Note_on_c, 0, 71, 0
2, 23863, Note_on_c, 0, 59, 0
2, 23866, Note_on_c, 0, 43, 0
2, 23871, Note_on_c, 0, 50, 0
2, 23871, Note_on_c, 0, 55, 80
2, 23874, Note_on_c, 0, 65, 0
2, 23930, Note_on_c, 0, 59, 80
2, 23981, Note_on_c, 0, 62, 80
2, 23991, Note_on_c, 0, 59, 0
2, 24040, Note_on_c, 0, 65, 80
2, 24045, Note_on_c, 0, 62, 0
2, 24101, Note_on_c, 0, 55, 0
2, 24109, Note_on_c, 0, 59, 80
2, 24172, Note_on_c, 0, 65, 0
2, 24172, Note_on_c, 0, 62, 80
2, 24221, Note_on_c, 0, 65, 80
2, 24229, Note_on_c, 0, 62, 0
2, 24237, Note_on_c, 0, 65, 0
2, 24278, Note_on_c, 0, 59, 0
2, 24283, Note_on_c, 0, 65, 80
2, 24283, Note_on_c, 0, 69, 80
2, 24286, Note_on_c, 0, 62, 80
2, 24288, Note_on_c, 0, 38, 80
2, 24288, Note_on_c, 0, 50, 80
2, 24339, Note_on_c, 0, 65, 0
2, 24393, Note_on_c, 0, 69, 0
2, 24396, Note_on_c, 0, 50, 0
2, 24399, Note_on_c, 0, 38, 0
2, 24399, Note_on_c, 0, 59, 80
2, 24399, Note_on_c, 0, 65, 80
2, 24402, Note_on_c, 0, 55, 80
2, 24405, Note_on_c, 0, 71, 80
2, 24405, Note_on_c, 0, 83, 80
2, 24412, Note_on_c, 0, 62, 0
2, 24458, Note_on_c, 0, 71, 0
2, 24458, Note_on_c, 0, 83, 0
2, 24458, Note_on_c, 0, 77, 80
2, 24517, Note_on_c, 0, 38, 80
2, 24520, Note_on_c, 0, 59, 0
2, 24520, Note_on_c, 0, 69, 80
2, 24525, Note_on_c, 0, 77, 0
2, 24525, Note_on_c, 0, 65, 0
2, 24525, Note_on_c, 0, 50, 80
2, 24528, Note_on_c, 0, 55, 0
2, 24530, Note_on_c, 0, 81, 80
2, 24572, Note_on_c, 0, 81, 0
2, 24572, Note_on_c, 0, 74, 80
2, 24579, Note_on_c, 0, 69, 0
2, 24579, Note_on_c, 0, 71, 80
2, 24636, Note_on_c, 0, 74, 0
2, 24639, Note_on_c, 0, 50, 0
2, 24642, Note_on_c, 0, 38, 0
2, 24642, Note_on_c, 0, 71, 0
2, 24642, Note_on_c, 0, 68, 80
2, 24647, Note_on_c, 0, 80, 80
2, 24649, Note_on_c, 0, 51, 80
2, 24652, Note_on_c, 0, 39, 80
2, 24694, Note_on_c, 0, 80, 0
2, 24698, Note_on_c, 0, 79, 80
2, 24701, Note_on_c, 0, 68, 0
2, 24706, Note_on_c, 0, 67, 80
2, 24765, Note_on_c, 0, 51, 0
2, 24768, Note_on_c, 0, 39, 0
2, 24770, Note_on_c, 0, 52, 80
2, 24773, Note_on_c, 0, 40, 80
2, 24819, Note_on_c, 0, 67, 0
2, 24822, Note_on_c, 0, 76, 80
2, 24827, Note_on_c, 0, 79, 0
2, 24886, Note_on_c, 0, 60, 80
2, 24888, Note_on_c, 0, 52, 0
2, 24891, Note_on_c, 0, 76, 0
2, 24891, Note_on_c, 0, 40, 0
2, 24891, Note_on_c, 0, 64, 80
2, 24891, Note_on_c, 0, 72, 80
2, 24896, Note_on_c, 0, 55, 80
2, 24942, Note_on_c, 0, 72, 0
2, 24945, Note_on_c, 0, 67, 80
2, 25004, Note_on_c, 0, 67, 0
2, 25007, Note_on_c, 0, 64, 0
2, 25011, Note_on_c, 0, 60, 0
2, 25011, Note_on_c, 0, 55, 0
2, 25014, Note_on_c, 0, 43, 80
2, 25014, Note_on_c, 0, 31, 80
2, 25068, Note_on_c, 0, 55, 80
2, 25071, Note_on_c, 0, 67, 80
2, 25120, Note_on_c, 0, 67, 0
2, 25120, Note_on_c, 0, 31, 0
2, 25123, Note_on_c, 0, 43, 0
2, 25130, Note_on_c, 0, 69, 80
2, 25133, Note_on_c, 0, 55, 0
2, 25133, Note_on_c, 0, 57, 80
2, 25177, Note_on_c, 0, 69, 0
2, 25182, Note_on_c, 0, 57, 0
2, 25182, Note_on_c, 0, 70, 80
2, 25182, Note_on_c, 0, 58, 80
2, 25244, Note_on_c, 0, 58, 0
2, 25244, Note_on_c, 0, 70, 0
2, 25244, Note_on_c, 0, 65, 80
2, 25247, Note_on_c, 0, 43, 80
2, 25249, Note_on_c, 0, 71, 80
2, 25252, Note_on_c, 0, 50, 80
2, 25252, Note_on_c, 0, 59, 80
2, 25760, Note_on_c, 0, 43, 0
2, 25770, Note_on_c, 0, 55, 80
2, 25777, Note_on_c, 0, 50, 0
2, 25782, Note_on_c, 0, 59, 0
2, 25787, Note_on_c, 0, 71, 0
2, 25792, Note_on_c, 0, 65, 0
2, 25838, Note_on_c, 0, 59, 80
2, 25899, Note_on_c, 0, 62, 80
2, 25904, Note_on_c, 0, 59, 0
2, 25963, Note_on_c, 0, 65, 80
2, 25968, Note_on_c, 0, 62, 0
2, 26018, Note_on_c, 0, 59, 80
2, 26023, Note_on_c, 0, 55, 0
2, 26077, Note_on_c, 0, 65, 0
2, 26080, Note_on_c, 0, 62, 80
2, 26138, Note_on_c, 0, 65, 80
2, 26143, Note_on_c, 0, 62, 0
2, 26156, Note_on_c, 0, 65, 0
2, 26192, Note_on_c, 0, 59, 0
2, 26197, Note_on_c, 0, 62, 80
2, 26197, Note_on_c, 0, 65, 80
2, 26197, Note_on_c, 0, 69, 80
2, 26200, Note_on_c, 0, 38, 80
2, 26200, Note_on_c, 0, 50, 80
2, 26256, Note_on_c, 0, 65, 0
2, 26305, Note_on_c, 0, 69, 0
2, 26308, Note_on_c, 0, 50, 0
2, 26313, Note_on_c, 0, 55, 80
2, 26313, Note_on_c, 0, 59, 80
2, 26313, Note_on_c, 0, 65, 80
2, 26316, Note_on_c, 0, 38, 0
2, 26316, Note_on_c, 0, 71, 80
2, 26316, Note_on_c, 0, 83, 80
2, 26319, Note_on_c, 0, 62, 0
2, 26365, Note_on_c, 0, 71, 0
2, 26370, Note_on_c, 0, 83, 0
2, 26370, Note_on_c, 0, 77, 80
2, 26428, Note_on_c, 0, 77, 0
2, 26431, Note_on_c, 0, 59, 0
2, 26434, Note_on_c, 0, 38, 80
2, 26434, Note_on_c, 0, 81, 80
2, 26437, Note_on_c, 0, 65, 0
2, 26437, Note_on_c, 0, 69, 80
2, 26440, Note_on_c, 0, 55, 0
2, 26440, Note_on_c, 0, 50, 80
2, 26489, Note_on_c, 0, 69, 0
2, 26492, Note_on_c, 0, 81, 0
2, 26495, Note_on_c, 0, 71, 80
2, 26495, Note_on_c, 0, 74, 80
2, 26545, Note_on_c, 0, 80, 80
2, 26548, Note_on_c, 0, 71, 0
2, 26548, Note_on_c, 0, 38, 0
2, 26548, Note_on_c, 0, 68, 80
2, 26551, Note_on_c, 0, 50, 0
2, 26551, Note_on_c, 0, 39, 80
2, 26551, Note_on_c, 0, 51, 80
2, 26554, Note_on_c, 0, 74, 0
2, 26611, Note_on_c, 0, 80, 0
2, 26618, Note_on_c, 0, 68, 0
2, 26618, Note_on_c, 0, 79, 80
2, 26621, Note_on_c, 0, 67, 80
2, 26663, Note_on_c, 0, 51, 0
2, 26672, Note_on_c, 0, 39, 0
2, 26672, Note_on_c, 0, 52, 80
2, 26677, Note_on_c, 0, 40, 80
2, 26728, Note_on_c, 0, 79, 0
2, 26731, Note_on_c, 0, 67, 0
2, 26734, Note_on_c, 0, 76, 80
2, 26783, Note_on_c, 0, 76, 0
2, 26787, Note_on_c, 0, 52, 0
2, 26787, Note_on_c, 0, 40, 0
2, 26787, Note_on_c, 0, 60, 80
2, 26787, Note_on_c, 0, 72, 80
2, 26790, Note_on_c, 0, 55, 80
2, 26790, Note_on_c, 0, 64, 80
2, 26849, Note_on_c, 0, 72, 0
2, 26854, Note_on_c, 0, 67, 80
2, 26910, Note_on_c, 0, 67, 0
2, 26959, Note_on_c, 0, 60, 0
2, 26962, Note_on_c, 0, 79, 80
2, 26965, Note_on_c, 0, 64, 0
2, 26968, Note_on_c, 0, 55, 0
2, 26968, Note_on_c, 0, 67, 80
2, 27022, Note_on_c, 0, 67, 0
2, 27031, Note_on_c, 0, 79, 0
2, 27031, Note_on_c, 0, 78, 80
2, 27034, Note_on_c, 0, 66, 80
2, 27088, Note_on_c, 0, 66, 0
2, 27088, Note_on_c, 0, 78, 0
2, 27088, Note_on_c, 0, 65, 80
2, 27093, Note_on_c, 0, 77, 80
2, 27144, Note_on_c, 0, 64, 80
2, 27146, Note_on_c, 0, 76, 80
2, 27151, Note_on_c, 0, 44, 80
2, 27151, Note_on_c, 0, 56, 80
2, 27154, Note_on_c, 0, 77, 0
2, 27154, Note_on_c, 0, 65, 0
2, 27203, Note_on_c, 0, 56, 0
2, 27206, Note_on_c, 0, 76, 0
2, 27206, Note_on_c, 0, 68, 80
2, 27206, Note_on_c, 0, 71, 80
2, 27209, Note_on_c, 0, 64, 0
2, 27255, Note_on_c, 0, 68, 0
2, 27255, Note_on_c, 0, 65, 80
2, 27255, Note_on_c, 0, 77, 80
2, 27258, Note_on_c, 0, 52, 80
2, 27258, Note_on_c, 0, 56, 80
2, 27261, Note_on_c, 0, 44, 0
2, 27264, Note_on_c, 0, 71, 0
2, 27264, Note_on_c, 0, 62, 80
2, 27310, Note_on_c, 0, 77, 0
2, 27322, Note_on_c, 0, 52, 0
2, 27327, Note_on_c, 0, 65, 0
2, 27327, Note_on_c, 0, 64, 80
2, 27327, Note_on_c, 0, 76, 80
2, 27371, Note_on_c, 0, 56, 0
2, 27376, Note_on_c, 0, 62, 0
2, 27379, Note_on_c, 0, 52, 80
2, 27386, Note_on_c, 0, 40, 80
2, 27440, Note_on_c, 0, 71, 80
2, 27443, Note_on_c, 0, 68, 80
2, 27446, Note_on_c, 0, 76, 0
2, 27449, Note_on_c, 0, 64, 0
2, 27480, Note_on_c, 0, 52, 0
2, 27495, Note_on_c, 0, 40, 0
2, 27498, Note_on_c, 0, 71, 0
2, 27498, Note_on_c, 0, 68, 0
2, 27498, Note_on_c, 0, 47, 80
2, 27498, Note_on_c, 0, 59, 80
2, 27503, Note_on_c, 0, 63, 80
2, 27503, Note_on_c, 0, 75, 80
2, 27552, Note_on_c, 0, 75, 0
2, 27556, Note_on_c, 0, 68, 80
2, 27559, Note_on_c, 0, 63, 0
2, 27564, Note_on_c, 0, 71, 80
2, 27608, Note_on_c, 0, 59, 0
2, 27613, Note_on_c, 0, 71, 0
2, 27618, Note_on_c, 0, 60, 80
2, 27618, Note_on_c, 0, 64, 80
2, 27618, Note_on_c, 0, 76, 80
2, 27621, Note_on_c, 0, 68, 0
2, 27621, Note_on_c, 0, 48, 80
2, 27624, Note_on_c, 0, 47, 0
2, 27674, Note_on_c, 0, 76, 0
2, 27674, Note_on_c, 0, 64, 0
2, 27674, Note_on_c, 0, 60, 0
2, 27679, Note_on_c, 0, 69, 80
2, 27679, Note_on_c, 0, 72, 80
2, 27728, Note_on_c, 0, 72, 0
2, 27728, Note_on_c, 0, 69, 0
2, 27731, Note_on_c, 0, 48, 0
2, 27734, Note_on_c, 0, 60, 80
2, 27734, Note_on_c, 0, 65, 80
2, 27734, Note_on_c, 0, 77, 80
2, 27737, Note_on_c, 0, 52, 80
2, 27737, Note_on_c, 0, 57, 80
2, 27793, Note_on_c, 0, 77, 0
2, 27793, Note_on_c, 0, 65, 0
2, 27796, Note_on_c, 0, 57, 0
2, 27799, Note_on_c, 0, 76, 80
2, 27802, Note_on_c, 0, 64, 80
2, 27841, Note_on_c, 0, 60, 0
2, 27849, Note_on_c, 0, 52, 0
2, 27854, Note_on_c, 0, 57, 80
2, 27859, Note_on_c, 0, 45, 80
2, 27915, Note_on_c, 0, 69, 80
2, 27918, Note_on_c, 0, 76, 0
2, 27918, Note_on_c, 0, 64, 0
2, 27923, Note_on_c, 0, 72, 80
2, 27933, Note_on_c, 0, 69, 0
2, 27964, Note_on_c, 0, 45, 0
2, 27967, Note_on_c, 0, 72, 0
2, 27970, Note_on_c, 0, 48, 80
2, 27975, Note_on_c, 0, 57, 0
2, 27975, Note_on_c, 0, 60, 80
2, 27975, Note_on_c, 0, 69, 80
2, 27978, Note_on_c, 0, 81, 80
2, 28034, Note_on_c, 0, 81, 0
2, 28039, Note_on_c, 0, 69, 0
2, 28039, Note_on_c, 0, 72, 80
2, 28039, Note_on_c, 0, 76, 80
2, 28093, Note_on_c, 0, 48, 0
2, 28096, Note_on_c, 0, 76, 0
2, 28096, Note_on_c, 0, 72, 0
2, 28096, Note_on_c, 0, 69, 80
2, 28099, Note_on_c, 0, 60, 0
2, 28099, Note_on_c, 0, 49, 80
2, 28099, Note_on_c, 0, 61, 80
2, 28102, Note_on_c, 0, 81, 80
2, 28146, Note_on_c, 0, 81, 0
2, 28158, Note_on_c, 0, 69, 0
2, 28161, Note_on_c, 0, 61, 0
2, 28161, Note_on_c, 0, 73, 80
2, 28164, Note_on_c, 0, 76, 80
2, 28208, Note_on_c, 0, 49, 0
2, 28216, Note_on_c, 0, 76, 0
2, 28216, Note_on_c, 0, 57, 80
2, 28216, Note_on_c, 0, 70, 80
2, 28219, Note_on_c, 0, 61, 80
2, 28219, Note_on_c, 0, 82, 80
2, 28222, Note_on_c, 0, 67, 80
2, 28224, Note_on_c, 0, 73, 0
2, 28283, Note_on_c, 0, 70, 0
2, 28286, Note_on_c, 0, 69, 80
2, 28289, Note_on_c, 0, 82, 0
2, 28289, Note_on_c, 0, 81, 80
2, 28328, Note_on_c, 0, 67, 0
2, 28336, Note_on_c, 0, 45, 80
2, 28341, Note_on_c, 0, 61, 0
2, 28341, Note_on_c, 0, 57, 0
2, 28394, Note_on_c, 0, 81, 0
2, 28399, Note_on_c, 0, 73, 80
2, 28402, Note_on_c, 0, 69, 0
2, 28402, Note_on_c, 0, 76, 80
2, 28453, Note_on_c, 0, 73, 0
2, 28453, Note_on_c, 0, 45, 0
2, 28453, Note_on_c, 0, 80, 80
2, 28456, Note_on_c, 0, 76, 0
2, 28456, Note_on_c, 0, 52, 80
2, 28456, Note_on_c, 0, 68, 80
2, 28461, Note_on_c, 0, 64, 80
2, 28517, Note_on_c, 0, 80, 0
2, 28517, Note_on_c, 0, 73, 80
2, 28522, Note_on_c, 0, 76, 80
2, 28525, Note_on_c, 0, 68, 0
2, 28576, Note_on_c, 0, 52, 0
2, 28579, Note_on_c, 0, 64, 0
2, 28579, Note_on_c, 0, 69, 80
2, 28582, Note_on_c, 0, 53, 80
2, 28582, Note_on_c, 0, 81, 80
2, 28584, Note_on_c, 0, 73, 0
2, 28584, Note_on_c, 0, 76, 0
2, 28587, Note_on_c, 0, 65, 80
2, 28638, Note_on_c, 0, 81, 0
2, 28641, Note_on_c, 0, 69, 0
2, 28646, Note_on_c, 0, 65, 0
2, 28646, Note_on_c, 0, 77, 80
2, 28651, Note_on_c, 0, 74, 80
2, 28702, Note_on_c, 0, 74, 0
2, 28702, Note_on_c, 0, 77, 0
2, 28704, Note_on_c, 0, 62, 80
2, 28704, Note_on_c, 0, 65, 80
2, 28704, Note_on_c, 0, 70, 80
2, 28707, Note_on_c, 0, 53, 0
2, 28707, Note_on_c, 0, 82, 80
2, 28710, Note_on_c, 0, 57, 80
2, 28759, Note_on_c, 0, 82, 0
2, 28764, Note_on_c, 0, 69, 80
2, 28767, Note_on_c, 0, 62, 0
2, 28767, Note_on_c, 0, 70, 0
2, 28770, Note_on_c, 0, 81, 80
2, 28828, Note_on_c, 0, 57, 0
2, 28831, Note_on_c, 0, 62, 80
2, 28834, Note_on_c, 0, 65, 0
2, 28839, Note_on_c, 0, 50, 80
2, 28875, Note_on_c, 0, 81, 0
2, 28880, Note_on_c, 0, 77, 80
2, 28883, Note_on_c, 0, 69, 0
2, 28883, Note_on_c, 0, 74, 80
2, 28934, Note_on_c, 0, 50, 0
2, 28939, Note_on_c, 0, 62, 0
2, 28942, Note_on_c, 0, 82, 80
2, 28944, Note_on_c, 0, 77, 0
2, 28944, Note_on_c, 0, 70, 80
2, 28947, Note_on_c, 0, 49, 80
2, 28947, Note_on_c, 0, 61, 80
2, 28950, Note_on_c, 0, 74, 0
2, 29009, Note_on_c, 0, 82, 0
2, 29012, Note_on_c, 0, 73, 80
2, 29012, Note_on_c, 0, 79, 80
2, 29015, Note_on_c, 0, 76, 80
2, 29017, Note_on_c, 0, 70, 0
2, 29057, Note_on_c, 0, 49, 0
2, 29064, Note_on_c, 0, 73, 0
2, 29064, Note_on_c, 0, 61, 0
2, 29064, Note_on_c, 0, 59, 80
2, 29067, Note_on_c, 0, 47, 80
2, 29070, Note_on_c, 0, 76, 0
2, 29070, Note_on_c, 0, 79, 0
2, 29070, Note_on_c, 0, 71, 80
2, 29070, Note_on_c, 0, 83, 80
2, 29124, Note_on_c, 0, 83, 0
2, 29124, Note_on_c, 0, 78, 80
2, 29129, Note_on_c, 0, 75, 80
2, 29132, Note_on_c, 0, 71, 0
2, 29132, Note_on_c, 0, 59, 0
2, 29185, Note_on_c, 0, 75, 0
2, 29190, Note_on_c, 0, 78, 0
2, 29190, Note_on_c, 0, 47, 0
2, 29190, Note_on_c, 0, 72, 80
2, 29190, Note_on_c, 0, 84, 80
2, 29193, Note_on_c, 0, 59, 80
2, 29193, Note_on_c, 0, 63, 80
2, 29196, Note_on_c, 0, 69, 80
2, 29242, Note_on_c, 0, 83, 80
2, 29245, Note_on_c, 0, 84, 0
2, 29245, Note_on_c, 0, 72, 0
2, 29250, Note_on_c, 0, 71, 80
2, 29253, Note_on_c, 0, 63, 0
2, 29302, Note_on_c, 0, 59, 0
2, 29302, Note_on_c, 0, 63, 80
2, 29306, Note_on_c, 0, 69, 0
2, 29314, Note_on_c, 0, 51, 80
2, 29365, Note_on_c, 0, 83, 0
2, 29368, Note_on_c, 0, 78, 80
2, 29371, Note_on_c, 0, 75, 80
2, 29374, Note_on_c, 0, 71, 0
2, 29418, Note_on_c, 0, 63, 0
2, 29421, Note_on_c, 0, 75, 0
2, 29421, Note_on_c, 0, 51, 0
2, 29425, Note_on_c, 0, 82, 80
2, 29428, Note_on_c, 0, 78, 0
2, 29428, Note_on_c, 0, 66, 80
2, 29428, Note_on_c, 0, 70, 80
2, 29431, Note_on_c, 0, 54, 80
2, 29490, Note_on_c, 0, 82, 0
2, 29490, Note_on_c, 0, 78, 80
2, 29497, Note_on_c, 0, 75, 80
2, 29502, Note_on_c, 0, 70, 0
2, 29544, Note_on_c, 0, 78, 0
2, 29544, Note_on_c, 0, 75, 0
2, 29544, Note_on_c, 0, 71, 80
2, 29544, Note_on_c, 0, 83, 80
2, 29546, Note_on_c, 0, 66, 0
2, 29546, Note_on_c, 0, 54, 0
2, 29546, Note_on_c, 0, 55, 80
2, 29551, Note_on_c, 0, 67, 80
2, 29605, Note_on_c, 0, 67, 0
2, 29605, Note_on_c, 0, 83, 0
2, 29608, Note_on_c, 0, 71, 0
2, 29613, Note_on_c, 0, 76, 80
2, 29613, Note_on_c, 0, 79, 80
2, 29662, Note_on_c, 0, 55, 0
2, 29662, Note_on_c, 0, 64, 80
2, 29666, Note_on_c, 0, 76, 0
2, 29666, Note_on_c, 0, 59, 80
2, 29666, Note_on_c, 0, 84, 80
2, 29671, Note_on_c, 0, 79, 0
2, 29671, Note_on_c, 0, 67, 80
2, 29671, Note_on_c, 0, 72, 80
2, 29720, Note_on_c, 0, 83, 80
2, 29725, Note_on_c, 0, 72, 0
2, 29725, Note_on_c, 0, 71, 80
2, 29730, Note_on_c, 0, 84, 0
2, 29776, Note_on_c, 0, 67, 0
2, 29781, Note_on_c, 0, 64, 0
2, 29785, Note_on_c, 0, 62, 80
2, 29788, Note_on_c, 0, 59, 0
2, 29796, Note_on_c, 0, 50, 80
2, 29837, Note_on_c, 0, 83, 0
2, 29842, Note_on_c, 0, 74, 80
2, 29845, Note_on_c, 0, 71, 0
2, 29850, Note_on_c, 0, 77, 80
2, 29904, Note_on_c, 0, 50, 0
2, 29904, Note_on_c, 0, 71, 80
2, 29904, Note_on_c, 0, 83, 80
2, 29906, Note_on_c, 0, 77, 0
2, 29906, Note_on_c, 0, 59, 80
2, 29906, Note_on_c, 0, 65, 80
2, 29909, Note_on_c, 0, 55, 80
2, 29912, Note_on_c, 0, 74, 0
2, 29912, Note_on_c, 0, 62, 0
2, 29961, Note_on_c, 0, 77, 80
2, 29966, Note_on_c, 0, 83, 0
2, 29974, Note_on_c, 0, 71, 0
2, 29974, Note_on_c, 0, 74, 80
2, 30018, Note_on_c, 0, 59, 0
2, 30023, Note_on_c, 0, 64, 80
2, 30025, Note_on_c, 0, 55, 0
2, 30025, Note_on_c, 0, 52, 80
2, 30025, Note_on_c, 0, 84, 80
2, 30028, Note_on_c, 0, 74, 0
2, 30028, Note_on_c, 0, 65, 0
2, 30028, Note_on_c, 0, 72, 80
2, 30033, Note_on_c, 0, 77, 0
2, 30074, Note_on_c, 0, 84, 0
2, 30077, Note_on_c, 0, 76, 80
2, 30080, Note_on_c, 0, 72, 0
2, 30088, Note_on_c, 0, 64, 0
2, 30139, Note_on_c, 0, 52, 0
2, 30144, Note_on_c, 0, 55, 80
2, 30144, Note_on_c, 0, 60, 80
2, 30144, Note_on_c, 0, 64, 80
2, 30146, Note_on_c, 0, 79, 80
2, 30149, Note_on_c, 0, 76, 0
2, 30203, Note_on_c, 0, 78, 80
2, 30203, Note_on_c, 0, 84, 80
2, 30208, Note_on_c, 0, 72, 80
2, 30213, Note_on_c, 0, 79, 0
2, 30262, Note_on_c, 0, 78, 0
2, 30264, Note_on_c, 0, 64, 0
2, 30264, Note_on_c, 0, 60, 0
2, 30264, Note_on_c, 0, 56, 80
2, 30267, Note_on_c, 0, 44, 80
2, 30272, Note_on_c, 0, 55, 0
2, 30316, Note_on_c, 0, 84, 0
2, 30316, Note_on_c, 0, 72, 0
2, 30324, Note_on_c, 0, 78, 80
2, 30375, Note_on_c, 0, 56, 0
2, 30378, Note_on_c, 0, 77, 80
2, 30381, Note_on_c, 0, 78, 0
2, 30381, Note_on_c, 0, 44, 0
2, 30384, Note_on_c, 0, 55, 80
2, 30384, Note_on_c, 0, 86, 80
2, 30386, Note_on_c, 0, 74, 80
2, 30389, Note_on_c, 0, 43, 80
2, 30438, Note_on_c, 0, 74, 0
2, 30441, Note_on_c, 0, 84, 80
2, 30444, Note_on_c, 0, 86, 0
2, 30444, Note_on_c, 0, 77, 0
2, 30444, Note_on_c, 0, 72, 80
2, 30444, Note_on_c, 0, 76, 80
2, 30490, Note_on_c, 0, 43, 0
2, 30498, Note_on_c, 0, 55, 0
2, 30505, Note_on_c, 0, 48, 80
2, 30505, Note_on_c, 0, 60, 80
2, 30610, Note_on_c, 0, 76, 0
2, 30610, Note_on_c, 0, 84, 0
2, 30613, Note_on_c, 0, 60, 0
2, 30613, Note_on_c, 0, 72, 0
2, 30616, Note_on_c, 0, 48, 0
2, 30731, Note_on_c, 0, 96, 80
2, 30736, Note_on_c, 0, 36, 80
2, 30736, Note_on_c, 0, 88, 80
2, 30736, Note_on_c, 0, 91, 80
2, 30739, Note_on_c, 0, 84, 80
2, 30742, Note_on_c, 0, 48, 80
2, 30844, Note_on_c, 0, 84, 0
2, 30844, Note_on_c, 0, 36, 0
2, 30849, Note_on_c, 0, 91, 0
2, 30849, Note_on_c, 0, 88, 0
2, 30854, Note_on_c, 0, 96, 0
2, 30854, Note_on_c, 0, 48, 0
2, 30971, Note_on_c, 0, 84, 80
2, 30976, Note_on_c, 0, 42, 80
2, 30976, Note_on_c, 0, 54, 80
2, 30976, Note_on_c, 0, 72, 80
2, 30976, Note_on_c, 0, 75, 80
2, 30976, Note_on_c, 0, 78, 80
2, 30990, Note_on_c, 0, 78, 0
2, 30993, Note_on_c, 0, 75, 0
2, 31030, Note_on_c, 0, 75, 80
2, 31032, Note_on_c, 0, 72, 0
2, 31037, Note_on_c, 0, 84, 0
2, 31037, Note_on_c, 0, 69, 80
2, 31037, Note_on_c, 0, 78, 80
2, 31040, Note_on_c, 0, 54, 0
2, 31043, Note_on_c, 0, 81, 80
2, 31048, Note_on_c, 0, 75, 0
2, 31053, Note_on_c, 0, 78, 0
2, 31087, Note_on_c, 0, 69, 0
2, 31087, Note_on_c, 0, 81, 0
2, 31092, Note_on_c, 0, 75, 80
2, 31092, Note_on_c, 0, 83, 80
2, 31095, Note_on_c, 0, 57, 80
2, 31095, Note_on_c, 0, 71, 80
2, 31095, Note_on_c, 0, 78, 80
2, 31098, Note_on_c, 0, 54, 80
2, 31101, Note_on_c, 0, 60, 80
2, 31101, Note_on_c, 0, 63, 80
2, 31105, Note_on_c, 0, 42, 0
2, 31110, Note_on_c, 0, 75, 0
2, 31110, Note_on_c, 0, 78, 0
2, 31150, Note_on_c, 0, 57, 0
2, 31152, Note_on_c, 0, 83, 0
2, 31152, Note_on_c, 0, 72, 80
2, 31152, Note_on_c, 0, 75, 80
2, 31152, Note_on_c, 0, 78, 80
2, 31155, Note_on_c, 0, 71, 0
2, 31158, Note_on_c, 0, 84, 80
2, 31171, Note_on_c, 0, 75, 0
2, 31171, Note_on_c, 0, 78, 0
2, 31195, Note_on_c, 0, 54, 0
2, 31209, Note_on_c, 0, 72, 0
2, 31209, Note_on_c, 0, 60, 0
2, 31209, Note_on_c, 0, 57, 80
2, 31209, Note_on_c, 0, 69, 80
2, 31212, Note_on_c, 0, 63, 0
2, 31212, Note_on_c, 0, 45, 80
2, 31212, Note_on_c, 0, 75, 80
2, 31212, Note_on_c, 0, 78, 80
2, 31215, Note_on_c, 0, 84, 0
2, 31218, Note_on_c, 0, 81, 80
2, 31230, Note_on_c, 0, 75, 0
2, 31230, Note_on_c, 0, 78, 0
2, 31267, Note_on_c, 0, 57, 0
2, 31270, Note_on_c, 0, 69, 0
2, 31274, Note_on_c, 0, 81, 0
2, 31274, Note_on_c, 0, 71, 80
2, 31279, Note_on_c, 0, 75, 80
2, 31279, Note_on_c, 0, 78, 80
2, 31279, Note_on_c, 0, 83, 80
2, 31296, Note_on_c, 0, 78, 0
2, 31296, Note_on_c, 0, 75, 0
2, 31326, Note_on_c, 0, 72, 80
2, 31331, Note_on_c, 0, 45, 0
2, 31331, Note_on_c, 0, 83, 0
2, 31331, Note_on_c, 0, 71, 0
2, 31331, Note_on_c, 0, 78, 80
2, 31334, Note_on_c, 0, 57, 80
2, 31334, Note_on_c, 0, 60, 80
2, 31334, Note_on_c, 0, 75, 80
2, 31337, Note_on_c, 0, 54, 80
2, 31337, Note_on_c, 0, 84, 80
2, 31340, Note_on_c, 0, 63, 80
2, 31349, Note_on_c, 0, 75, 0
2, 31349, Note_on_c, 0, 78, 0
2, 31389, Note_on_c, 0, 72, 0
2, 31393, Note_on_c, 0, 84, 0
2, 31401, Note_on_c, 0, 75, 80
2, 31401, Note_on_c, 0, 78, 80
2, 31404, Note_on_c, 0, 57, 0
2, 31404, Note_on_c, 0, 60, 0
2, 31404, Note_on_c, 0, 69, 80
2, 31407, Note_on_c, 0, 81, 80
2, 31419, Note_on_c, 0, 75, 0
2, 31419, Note_on_c, 0, 78, 0
2, 31446, Note_on_c, 0, 54, 0
2, 31449, Note_on_c, 0, 81, 0
2, 31457, Note_on_c, 0, 63, 0
2, 31457, Note_on_c, 0, 69, 0
2, 31462, Note_on_c, 0, 60, 80
2, 31462, Note_on_c, 0, 71, 80
2, 31462, Note_on_c, 0, 78, 80
2, 31462, Note_on_c, 0, 83, 80
2, 31464, Note_on_c, 0, 48, 80
2, 31467, Note_on_c, 0, 75, 80
2, 31480, Note_on_c, 0, 78, 0
2, 31485, Note_on_c, 0, 75, 0
2, 31514, Note_on_c, 0, 83, 0
2, 31519, Note_on_c, 0, 78, 80
2, 31522, Note_on_c, 0, 60, 0
2, 31525, Note_on_c, 0, 72, 80
2, 31525, Note_on_c, 0, 75, 80
2, 31525, Note_on_c, 0, 84, 80
2, 31528, Note_on_c, 0, 71, 0
2, 31537, Note_on_c, 0, 78, 0
2, 31542, Note_on_c, 0, 75, 0
2, 31577, Note_on_c, 0, 48, 0
2, 31580, Note_on_c, 0, 72, 0
2, 31580, Note_on_c, 0, 84, 0
2, 31587, Note_on_c, 0, 54, 80
2, 31587, Note_on_c, 0, 57, 80
2, 31587, Note_on_c, 0, 60, 80
2, 31587, Note_on_c, 0, 69, 80
2, 31590, Note_on_c, 0, 75, 80
2, 31590, Note_on_c, 0, 78, 80
2, 31593, Note_on_c, 0, 63, 80
2, 31596, Note_on_c, 0, 81, 80
2, 31608, Note_on_c, 0, 78, 0
2, 31608, Note_on_c, 0, 75, 0
2, 31640, Note_on_c, 0, 81, 0
2, 31645, Note_on_c, 0, 69, 0
2, 31645, Note_on_c, 0, 71, 80
2, 31645, Note_on_c, 0, 75, 80
2, 31645, Note_on_c, 0, 78, 80
2, 31645, Note_on_c, 0, 83, 80
2, 31655, Note_on_c, 0, 63, 0
2, 31662, Note_on_c, 0, 78, 0
2, 31662, Note_on_c, 0, 75, 0
2, 31699, Note_on_c, 0, 54, 0
2, 31699, Note_on_c, 0, 84, 80
2, 31702, Note_on_c, 0, 71, 0
2, 31702, Note_on_c, 0, 60, 0
2, 31702, Note_on_c, 0, 83, 0
2, 31702, Note_on_c, 0, 57, 0
2, 31702, Note_on_c, 0, 51, 80
2, 31702, Note_on_c, 0, 63, 80
2, 31702, Note_on_c, 0, 72, 80
2, 31702, Note_on_c, 0, 78, 80
2, 31706, Note_on_c, 0, 75, 80
2, 31719, Note_on_c, 0, 78, 0
2, 31724, Note_on_c, 0, 75, 0
2, 31758, Note_on_c, 0, 72, 0
2, 31768, Note_on_c, 0, 63, 0
2, 31771, Note_on_c, 0, 84, 0
2, 31771, Note_on_c, 0, 78, 80
2, 31774, Note_on_c, 0, 69, 80
2, 31774, Note_on_c, 0, 81, 80
2, 31776, Note_on_c, 0, 75, 80
2, 31786, Note_on_c, 0, 78, 0
2, 31789, Note_on_c, 0, 75, 0
2, 31819, Note_on_c, 0, 51, 0
2, 31819, Note_on_c, 0, 81, 0
2, 31824, Note_on_c, 0, 78, 80
2, 31824, Note_on_c, 0, 83, 80
2, 31826, Note_on_c, 0, 71, 80
2, 31829, Note_on_c, 0, 54, 80
2, 31829, Note_on_c, 0, 57, 80
2, 31829, Note_on_c, 0, 60, 80
2, 31829, Note_on_c, 0, 63, 80
2, 31832, Note_on_c, 0, 69, 0
2, 31832, Note_on_c, 0, 75, 80
2, 31845, Note_on_c, 0, 78, 0
2, 31849, Note_on_c, 0, 75, 0
2, 31889, Note_on_c, 0, 83, 0
2, 31894, Note_on_c, 0, 71, 0
2, 31894, Note_on_c, 0, 72, 80
2, 31894, Note_on_c, 0, 78, 80
2, 31896, Note_on_c, 0, 75, 80
2, 31896, Note_on_c, 0, 84, 80
2, 31938, Note_on_c, 0, 57, 0
2, 31941, Note_on_c, 0, 75, 0
2, 31944, Note_on_c, 0, 54, 0
2, 31948, Note_on_c, 0, 84, 0
2, 31948, Note_on_c, 0, 72, 0
2, 31948, Note_on_c, 0, 60, 0
2, 31948, Note_on_c, 0, 64, 80
2, 31948, Note_on_c, 0, 67, 80
2, 31948, Note_on_c, 0, 79, 80
2, 31951, Note_on_c, 0, 63, 0
2, 31954, Note_on_c, 0, 78, 0
2, 31957, Note_on_c, 0, 52, 80
2, 32001, Note_on_c, 0, 67, 0
2, 32006, Note_on_c, 0, 79, 0
2, 32016, Note_on_c, 0, 72, 80
2, 32016, Note_on_c, 0, 76, 80
2, 32018, Note_on_c, 0, 64, 0
2, 32058, Note_on_c, 0, 76, 0
2, 32067, Note_on_c, 0, 52, 0
2, 32070, Note_on_c, 0, 72, 0
2, 32070, Note_on_c, 0, 55, 80
2, 32070, Note_on_c, 0, 69, 80
2, 32073, Note_on_c, 0, 64, 80
2, 32078, Note_on_c, 0, 60, 80
2, 32081, Note_on_c, 0, 81, 80
2, 32120, Note_on_c, 0, 81, 0
2, 32128, Note_on_c, 0, 69, 0
2, 32133, Note_on_c, 0, 67, 80
2, 32133, Note_on_c, 0, 79, 80
2, 32184, Note_on_c, 0, 55, 0
2, 32188, Note_on_c, 0, 57, 80
2, 32191, Note_on_c, 0, 45, 80
2, 32194, Note_on_c, 0, 60, 0
2, 32194, Note_on_c, 0, 64, 0
2, 32243, Note_on_c, 0, 79, 0
2, 32243, Note_on_c, 0, 67, 0
2, 32248, Note_on_c, 0, 57, 0
2, 32248, Note_on_c, 0, 76, 80
2, 32304, Note_on_c, 0, 76, 0
2, 32309, Note_on_c, 0, 45, 0
2, 32312, Note_on_c, 0, 57, 80
2, 32312, Note_on_c, 0, 61, 80
2, 32312, Note_on_c, 0, 67, 80
2, 32315, Note_on_c, 0, 73, 80
2, 32366, Note_on_c, 0, 73, 0
2, 32369, Note_on_c, 0, 69, 80
2, 32372, Note_on_c, 0, 57, 0
2, 32413, Note_on_c, 0, 67, 0
2, 32418, Note_on_c, 0, 72, 80
2, 32418, Note_on_c, 0, 76, 80
2, 32421, Note_on_c, 0, 61, 0
2, 32425, Note_on_c, 0, 45, 80
2, 32425, Note_on_c, 0, 57, 80
2, 32425, Note_on_c, 0, 66, 80
2, 32430, Note_on_c, 0, 69, 0
2, 32479, Note_on_c, 0, 72, 0
2, 32479, Note_on_c, 0, 76, 0
2, 32479, Note_on_c, 0, 66, 0
2, 32538, Note_on_c, 0, 45, 0
2, 32538, Note_on_c, 0, 57, 0
2, 32543, Note_on_c, 0, 66, 80
2, 32547, Note_on_c, 0, 72, 80
2, 32547, Note_on_c, 0, 74, 80
2, 32550, Note_on_c, 0, 50, 80
2, 32550, Note_on_c, 0, 54, 80
2, 32550, Note_on_c, 0, 60, 80
2, 32558, Note_on_c, 0, 66, 0
2, 32563, Note_on_c, 0, 72, 0
2, 32599, Note_on_c, 0, 74, 0
2, 32599, Note_on_c, 0, 66, 80
2, 32604, Note_on_c, 0, 50, 0
2, 32607, Note_on_c, 0, 72, 80
2, 32607, Note_on_c, 0, 76, 80
2, 32658, Note_on_c, 0, 54, 0
2, 32663, Note_on_c, 0, 60, 0
2, 32667, Note_on_c, 0, 50, 80
2, 32675, Note_on_c, 0, 38, 80
2, 32712, Note_on_c, 0, 66, 0
2, 32719, Note_on_c, 0, 50, 0
2, 32719, Note_on_c, 0, 72, 0
2, 32719, Note_on_c, 0, 74, 80
2, 32722, Note_on_c, 0, 76, 0
2, 32779, Note_on_c, 0, 74, 0
2, 32779, Note_on_c, 0, 60, 80
2, 32782, Note_on_c, 0, 38, 0
2, 32782, Note_on_c, 0, 72, 80
2, 32789, Note_on_c, 0, 50, 80
2, 32789, Note_on_c, 0, 54, 80
2, 32831, Note_on_c, 0, 50, 0
2, 32833, Note_on_c, 0, 72, 0
2, 32833, Note_on_c, 0, 69, 80
2, 32887, Note_on_c, 0, 54, 0
2, 32897, Note_on_c, 0, 65, 80
2, 32900, Note_on_c, 0, 60, 0
2, 32900, Note_on_c, 0, 50, 80
2, 32903, Note_on_c, 0, 69, 0
2, 32910, Note_on_c, 0, 38, 80
2, 32910, Note_on_c, 0, 67, 80
2, 32920, Note_on_c, 0, 65, 0
2, 32966, Note_on_c, 0, 67, 0
2, 32966, Note_on_c, 0, 65, 80
2, 32966, Note_on_c, 0, 69, 80
2, 32988, Note_on_c, 0, 65, 0
2, 33020, Note_on_c, 0, 38, 0
2, 33020, Note_on_c, 0, 71, 80
2, 33023, Note_on_c, 0, 50, 0
2, 33023, Note_on_c, 0, 55, 80
2, 33023, Note_on_c, 0, 59, 80
2, 33025, Note_on_c, 0, 65, 80
2, 33028, Note_on_c, 0, 53, 80
2, 33033, Note_on_c, 0, 69, 0
2, 33043, Note_on_c, 0, 65, 0
2, 33077, Note_on_c, 0, 71, 0
2, 33082, Note_on_c, 0, 65, 80
2, 33087, Note_on_c, 0, 67, 80
2, 33106, Note_on_c, 0, 65, 0
2, 33141, Note_on_c, 0, 53, 0
2, 33145, Note_on_c, 0, 59, 0
2, 33145, Note_on_c, 0, 65, 80
2, 33145, Note_on_c, 0, 69, 80
2, 33150, Note_on_c, 0, 67, 0
2, 33150, Note_on_c, 0, 31, 80
2, 33153, Note_on_c, 0, 55, 0
2, 33153, Note_on_c, 0, 43, 80
2, 33161, Note_on_c, 0, 65, 0
2, 33197, Note_on_c, 0, 69, 0
2, 33197, Note_on_c, 0, 71, 80
2, 33200, Note_on_c, 0, 65, 80
2, 33219, Note_on_c, 0, 65, 0
2, 33254, Note_on_c, 0, 43, 0
2, 33254, Note_on_c, 0, 55, 80
2, 33254, Note_on_c, 0, 65, 80
2, 33257, Note_on_c, 0, 31, 0
2, 33257, Note_on_c, 0, 53, 80
2, 33262, Note_on_c, 0, 59, 80
2, 33264, Note_on_c, 0, 71, 0
2, 33267, Note_on_c, 0, 67, 80
2, 33277, Note_on_c, 0, 65, 0
2, 33313, Note_on_c, 0, 67, 0
2, 33313, Note_on_c, 0, 65, 80
2, 33313, Note_on_c, 0, 69, 80
2, 33336, Note_on_c, 0, 65, 0
2, 33360, Note_on_c, 0, 53, 0
2, 33369, Note_on_c, 0, 59, 0
2, 33374, Note_on_c, 0, 69, 0
2, 33374, Note_on_c, 0, 65, 80
2, 33374, Note_on_c, 0, 71, 80
2, 33379, Note_on_c, 0, 38, 80
2, 33379, Note_on_c, 0, 50, 80
2, 33382, Note_on_c, 0, 55, 0
2, 33396, Note_on_c, 0, 65, 0
2, 33435, Note_on_c, 0, 71, 0
2, 33440, Note_on_c, 0, 65, 80
2, 33445, Note_on_c, 0, 67, 80
2, 33455, Note_on_c, 0, 65, 0
2, 33486, Note_on_c, 0, 50, 0
2, 33486, Note_on_c, 0, 38, 0
2, 33486, Note_on_c, 0, 69, 80
2, 33489, Note_on_c, 0, 59, 80
2, 33489, Note_on_c, 0, 65, 80
2, 33492, Note_on_c, 0, 55, 80
2, 33495, Note_on_c, 0, 67, 0
2, 33495, Note_on_c, 0, 53, 80
2, 33509, Note_on_c, 0, 65, 0
2, 33553, Note_on_c, 0, 69, 0
2, 33553, Note_on_c, 0, 65, 80
2, 33558, Note_on_c, 0, 71, 80
2, 33576, Note_on_c, 0, 65, 0
2, 33605, Note_on_c, 0, 43, 80
2, 33608, Note_on_c, 0, 59, 0
2, 33608, Note_on_c, 0, 71, 0
2, 33608, Note_on_c, 0, 65, 80
2, 33611, Note_on_c, 0, 53, 0
2, 33616, Note_on_c, 0, 31, 80
2, 33619, Note_on_c, 0, 67, 80
2, 33622, Note_on_c, 0, 55, 0
2, 33624, Note_on_c, 0, 65, 0
2, 33669, Note_on_c, 0, 65, 80
2, 33678, Note_on_c, 0, 67, 0
2, 33678, Note_on_c, 0, 69, 80
2, 33696, Note_on_c, 0, 65, 0
2, 33718, Note_on_c, 0, 31, 0
2, 33725, Note_on_c, 0, 43, 0
2, 33735, Note_on_c, 0, 53, 80
2, 33735, Note_on_c, 0, 55, 80
2, 33735, Note_on_c, 0, 59, 80
2, 33735, Note_on_c, 0, 65, 80
2, 33735, Note_on_c, 0, 71, 80
2, 33740, Note_on_c, 0, 69, 0
2, 33749, Note_on_c, 0, 65, 0
2, 33793, Note_on_c, 0, 71, 0
2, 33793, Note_on_c, 0, 65, 80
2, 33793, Note_on_c, 0, 67, 80
2, 33840, Note_on_c, 0, 36, 80
2, 33840, Note_on_c, 0, 69, 80
2, 33842, Note_on_c, 0, 59, 0
2, 33847, Note_on_c, 0, 67, 0
2, 33847, Note_on_c, 0, 55, 0
2, 33850, Note_on_c, 0, 53, 0
2, 33850, Note_on_c, 0, 48, 80
2, 33850, Note_on_c, 0, 64, 80
2, 33853, Note_on_c, 0, 65, 0
2, 33867, Note_on_c, 0, 64, 0
2, 33904, Note_on_c, 0, 69, 0
2, 33909, Note_on_c, 0, 64, 80
2, 33913, Note_on_c, 0, 72, 80
2, 33926, Note_on_c, 0, 64, 0
2, 33958, Note_on_c, 0, 36, 0
2, 33962, Note_on_c, 0, 48, 0
2, 33970, Note_on_c, 0, 52, 80
2, 33970, Note_on_c, 0, 55, 80
2, 33970, Note_on_c, 0, 60, 80
2, 33970, Note_on_c, 0, 64, 80
2, 33975, Note_on_c, 0, 72, 0
2, 33975, Note_on_c, 0, 67, 80
2, 33992, Note_on_c, 0, 64, 0
2, 34036, Note_on_c, 0, 67, 0
2, 34036, Note_on_c, 0, 69, 80
2, 34039, Note_on_c, 0, 64, 80
2, 34076, Note_on_c, 0, 60, 0
2, 34083, Note_on_c, 0, 52, 0
2, 34091, Note_on_c, 0, 64, 0
2, 34091, Note_on_c, 0, 31, 80
2, 34094, Note_on_c, 0, 55, 0
2, 34097, Note_on_c, 0, 43, 80
2, 34155, Note_on_c, 0, 69, 0
2, 34158, Note_on_c, 0, 64, 80
2, 34158, Note_on_c, 0, 72, 80
2, 34207, Note_on_c, 0, 31, 0
2, 34210, Note_on_c, 0, 52, 80
2, 34213, Note_on_c, 0, 55, 80
2, 34216, Note_on_c, 0, 64, 0
2, 34216, Note_on_c, 0, 60, 80
2, 34219, Note_on_c, 0, 43, 0
2, 34280, Note_on_c, 0, 72, 0
2, 34280, Note_on_c, 0, 64, 80
2, 34285, Note_on_c, 0, 67, 80
2, 34302, Note_on_c, 0, 64, 0
2, 34329, Note_on_c, 0, 52, 0
2, 34344, Note_on_c, 0, 60, 0
2, 34344, Note_on_c, 0, 64, 80
2, 34346, Note_on_c, 0, 36, 80
2, 34346, Note_on_c, 0, 69, 80
2, 34349, Note_on_c, 0, 55, 0
2, 34352, Note_on_c, 0, 48, 80
2, 34355, Note_on_c, 0, 67, 0
2, 34412, Note_on_c, 0, 64, 0
2, 34456, Note_on_c, 0, 36, 0
2, 34461, Note_on_c, 0, 69, 0
2, 34464, Note_on_c, 0, 55, 80
2, 34466, Note_on_c, 0, 72, 80
2, 34469, Note_on_c, 0, 48, 0
2, 34469, Note_on_c, 0, 52, 80
2, 34469, Note_on_c, 0, 60, 80
2, 34469, Note_on_c, 0, 64, 80
2, 34484, Note_on_c, 0, 64, 0
2, 34523, Note_on_c, 0, 72, 0
2, 34523, Note_on_c, 0, 64, 80
2, 34528, Note_on_c, 0, 69, 80
2, 34586, Note_on_c, 0, 60, 0
2, 34591, Note_on_c, 0, 31, 80
2, 34594, Note_on_c, 0, 55, 0
2, 34594, Note_on_c, 0, 52, 0
2, 34594, Note_on_c, 0, 43, 80
2, 34653, Note_on_c, 0, 64, 0
2, 34702, Note_on_c, 0, 43, 0
2, 34706, Note_on_c, 0, 55, 80
2, 34706, Note_on_c, 0, 64, 80
2, 34709, Note_on_c, 0, 31, 0
2, 34709, Note_on_c, 0, 69, 0
2, 34709, Note_on_c, 0, 60, 80
2, 34709, Note_on_c, 0, 67, 80
2, 34712, Note_on_c, 0, 52, 80
2, 34824, Note_on_c, 0, 67, 0
2, 34824, Note_on_c, 0, 60, 0
2, 34824, Note_on_c, 0, 64, 0
2, 34824, Note_on_c, 0, 78, 80
2, 34824, Note_on_c, 0, 84, 80
2, 34829, Note_on_c, 0, 42, 80
2, 34829, Note_on_c, 0, 72, 80
2, 34829, Note_on_c, 0, 75, 80
2, 34832, Note_on_c, 0, 54, 80
2, 34835, Note_on_c, 0, 52, 0
2, 34840, Note_on_c, 0, 55, 0
2, 34840, Note_on_c, 0, 78, 0
2, 34845, Note_on_c, 0, 75, 0
2, 34884, Note_on_c, 0, 84, 0
2, 34884, Note_on_c, 0, 72, 0
2, 34884, Note_on_c, 0, 75, 80
2, 34884, Note_on_c, 0, 78, 80
2, 34887, Note_on_c, 0, 54, 0
2, 34890, Note_on_c, 0, 69, 80
2, 34890, Note_on_c, 0, 81, 80
2, 34899, Note_on_c, 0, 75, 0
2, 34902, Note_on_c, 0, 78, 0
2, 34942, Note_on_c, 0, 69, 0
2, 34942, Note_on_c, 0, 81, 0
2, 34949, Note_on_c, 0, 71, 80
2, 34949, Note_on_c, 0, 75, 80
2, 34949, Note_on_c, 0, 83, 80
2, 34952, Note_on_c, 0, 57, 80
2, 34952, Note_on_c, 0, 63, 80
2, 34955, Note_on_c, 0, 54, 80
2, 34955, Note_on_c, 0, 60, 80
2, 34955, Note_on_c, 0, 78, 80
2, 34958, Note_on_c, 0, 42, 0
2, 34968, Note_on_c, 0, 75, 0
2, 34972, Note_on_c, 0, 78, 0
2, 35002, Note_on_c, 0, 83, 0
2, 35002, Note_on_c, 0, 71, 0
2, 35007, Note_on_c, 0, 72, 80
2, 35007, Note_on_c, 0, 75, 80
2, 35007, Note_on_c, 0, 78, 80
2, 35007, Note_on_c, 0, 84, 80
2, 35015, Note_on_c, 0, 57, 0
2, 35024, Note_on_c, 0, 78, 0
2, 35024, Note_on_c, 0, 75, 0
2, 35048, Note_on_c, 0, 54, 0
2, 35056, Note_on_c, 0, 84, 0
2, 35056, Note_on_c, 0, 60, 0
2, 35061, Note_on_c, 0, 69, 80
2, 35064, Note_on_c, 0, 63, 0
2, 35064, Note_on_c, 0, 57, 80
2, 35066, Note_on_c, 0, 78, 80
2, 35069, Note_on_c, 0, 72, 0
2, 35069, Note_on_c, 0, 75, 80
2, 35069, Note_on_c, 0, 81, 80
2, 35072, Note_on_c, 0, 45, 80
2, 35085, Note_on_c, 0, 75, 0
2, 35085, Note_on_c, 0, 78, 0
2, 35121, Note_on_c, 0, 69, 0
2, 35121, Note_on_c, 0, 71, 80
2, 35121, Note_on_c, 0, 75, 80
2, 35121, Note_on_c, 0, 78, 80
2, 35121, Note_on_c, 0, 83, 80
2, 35126, Note_on_c, 0, 81, 0
2, 35129, Note_on_c, 0, 57, 0
2, 35136, Note_on_c, 0, 75, 0
2, 35136, Note_on_c, 0, 78, 0
2, 35178, Note_on_c, 0, 71, 0
2, 35183, Note_on_c, 0, 72, 80
2, 35183, Note_on_c, 0, 75, 80
2, 35183, Note_on_c, 0, 78, 80
2, 35183, Note_on_c, 0, 84, 80
2, 35185, Note_on_c, 0, 57, 80
2, 35185, Note_on_c, 0, 60, 80
2, 35188, Note_on_c, 0, 54, 80
2, 35191, Note_on_c, 0, 83, 0
2, 35191, Note_on_c, 0, 63, 80
2, 35194, Note_on_c, 0, 45, 0
2, 35202, Note_on_c, 0, 75, 0
2, 35202, Note_on_c, 0, 78, 0
2, 35238, Note_on_c, 0, 72, 0
2, 35241, Note_on_c, 0, 75, 80
2, 35244, Note_on_c, 0, 60, 0
2, 35244, Note_on_c, 0, 69, 80
2, 35244, Note_on_c, 0, 78, 80
2, 35249, Note_on_c, 0, 84, 0
2, 35254, Note_on_c, 0, 81, 80
2, 35258, Note_on_c, 0, 75, 0
2, 35258, Note_on_c, 0, 78, 0
2, 35288, Note_on_c, 0, 57, 0
2, 35293, Note_on_c, 0, 83, 80
2, 35296, Note_on_c, 0, 63, 0
2, 35296, Note_on_c, 0, 54, 0
2, 35296, Note_on_c, 0, 60, 80
2, 35299, Note_on_c, 0, 69, 0
2, 35299, Note_on_c, 0, 81, 0
2, 35299, Note_on_c, 0, 75, 80
2, 35299, Note_on_c, 0, 78, 80
2, 35302, Note_on_c, 0, 48, 80
2, 35302, Note_on_c, 0, 71, 80
2, 35316, Note_on_c, 0, 78, 0
2, 35316, Note_on_c, 0, 75, 0
2, 35360, Note_on_c, 0, 83, 0
2, 35363, Note_on_c, 0, 60, 0
2, 35363, Note_on_c, 0, 71, 0
2, 35363, Note_on_c, 0, 72, 80
2, 35363, Note_on_c, 0, 78, 80
2, 35363, Note_on_c, 0, 84, 80
2, 35368, Note_on_c, 0, 75, 80
2, 35377, Note_on_c, 0, 78, 0
2, 35382, Note_on_c, 0, 75, 0
2, 35412, Note_on_c, 0, 72, 0
2, 35420, Note_on_c, 0, 75, 80
2, 35423, Note_on_c, 0, 84, 0
2, 35423, Note_on_c, 0, 69, 80
2, 35425, Note_on_c, 0, 57, 80
2, 35425, Note_on_c, 0, 60, 80
2, 35425, Note_on_c, 0, 63, 80
2, 35425, Note_on_c, 0, 81, 80
2, 35428, Note_on_c, 0, 48, 0
2, 35428, Note_on_c, 0, 78, 80
2, 35431, Note_on_c, 0, 54, 80
2, 35441, Note_on_c, 0, 75, 0
2, 35446, Note_on_c, 0, 78, 0
2, 35475, Note_on_c, 0, 69, 0
2, 35475, Note_on_c, 0, 81, 0
2, 35475, Note_on_c, 0, 71, 80
2, 35480, Note_on_c, 0, 75, 80
2, 35480, Note_on_c, 0, 78, 80
2, 35480, Note_on_c, 0, 83, 80
2, 35483, Note_on_c, 0, 63, 0
2, 35496, Note_on_c, 0, 78, 0
2, 35496, Note_on_c, 0, 75, 0
2, 35537, Note_on_c, 0, 71, 0
2, 35537, Note_on_c, 0, 54, 0
2, 35540, Note_on_c, 0, 72, 80
2, 35540, Note_on_c, 0, 75, 80
2, 35540, Note_on_c, 0, 78, 80
2, 35540, Note_on_c, 0, 84, 80
2, 35543, Note_on_c, 0, 57, 0
2, 35543, Note_on_c, 0, 63, 80
2, 35547, Note_on_c, 0, 60, 0
2, 35547, Note_on_c, 0, 51, 80
2, 35552, Note_on_c, 0, 83, 0
2, 35557, Note_on_c, 0, 75, 0
2, 35557, Note_on_c, 0, 78, 0
2, 35593, Note_on_c, 0, 72, 0
2, 35593, Note_on_c, 0, 84, 0
2, 35593, Note_on_c, 0, 69, 80
2, 35593, Note_on_c, 0, 75, 80
2, 35593, Note_on_c, 0, 78, 80
2, 35603, Note_on_c, 0, 81, 80
2, 35606, Note_on_c, 0, 63, 0
2, 35611, Note_on_c, 0, 78, 0
2, 35611, Note_on_c, 0, 75, 0
2, 35655, Note_on_c, 0, 81, 0
2, 35655, Note_on_c, 0, 75, 80
2, 35658, Note_on_c, 0, 51, 0
2, 35658, Note_on_c, 0, 54, 80
2, 35658, Note_on_c, 0, 60, 80
2, 35658, Note_on_c, 0, 63, 80
2, 35661, Note_on_c, 0, 69, 0
2, 35661, Note_on_c, 0, 71, 80
2, 35661, Note_on_c, 0, 78, 80
2, 35661, Note_on_c, 0, 83, 80
2, 35664, Note_on_c, 0, 57, 80
2, 35673, Note_on_c, 0, 75, 0
2, 35678, Note_on_c, 0, 78, 0
2, 35714, Note_on_c, 0, 72, 80
2, 35714, Note_on_c, 0, 75, 80
2, 35714, Note_on_c, 0, 78, 80
2, 35717, Note_on_c, 0, 71, 0
2, 35720, Note_on_c, 0, 84, 80
2, 35723, Note_on_c, 0, 83, 0
2, 35764, Note_on_c, 0, 75, 0
2, 35767, Note_on_c, 0, 52, 80
2, 35770, Note_on_c, 0, 72, 0
2, 35770, Note_on_c, 0, 67, 80
2, 35770, Note_on_c, 0, 79, 80
2, 35773, Note_on_c, 0, 60, 0
2, 35773, Note_on_c, 0, 64, 80
2, 35776, Note_on_c, 0, 84, 0
2, 35776, Note_on_c, 0, 54, 0
2, 35779, Note_on_c, 0, 78, 0
2, 35782, Note_on_c, 0, 63, 0
2, 35784, Note_on_c, 0, 57, 0
2, 35841, Note_on_c, 0, 79, 0
2, 35846, Note_on_c, 0, 67, 0
2, 35846, Note_on_c, 0, 64, 0
2, 35846, Note_on_c, 0, 72, 80
2, 35846, Note_on_c, 0, 76, 80
2, 35890, Note_on_c, 0, 64, 80
2, 35895, Note_on_c, 0, 69, 80
2, 35898, Note_on_c, 0, 55, 80
2, 35898, Note_on_c, 0, 60, 80
2, 35901, Note_on_c, 0, 52, 0
2, 35901, Note_on_c, 0, 81, 80
2, 35904, Note_on_c, 0, 72, 0
2, 35908, Note_on_c, 0, 76, 0
2, 35957, Note_on_c, 0, 81, 0
2, 35957, Note_on_c, 0, 79, 80
2, 35962, Note_on_c, 0, 67, 80
2, 35970, Note_on_c, 0, 69, 0
2, 36016, Note_on_c, 0, 60, 0
2, 36021, Note_on_c, 0, 45, 80
2, 36021, Note_on_c, 0, 57, 80
2, 36025, Note_on_c, 0, 64, 0
2, 36028, Note_on_c, 0, 55, 0
2, 36070, Note_on_c, 0, 67, 0
2, 36077, Note_on_c, 0, 57, 0
2, 36082, Note_on_c, 0, 76, 80
2, 36095, Note_on_c, 0, 79, 0
2, 36141, Note_on_c, 0, 61, 80
2, 36141, Note_on_c, 0, 73, 80
2, 36144, Note_on_c, 0, 57, 80
2, 36146, Note_on_c, 0, 67, 80
2, 36149, Note_on_c, 0, 76, 0
2, 36152, Note_on_c, 0, 45, 0
2, 36198, Note_on_c, 0, 69, 80
2, 36206, Note_on_c, 0, 57, 0
2, 36211, Note_on_c, 0, 73, 0
2, 36262, Note_on_c, 0, 69, 0
2, 36262, Note_on_c, 0, 67, 0
2, 36262, Note_on_c, 0, 66, 80
2, 36262, Note_on_c, 0, 72, 80
2, 36262, Note_on_c, 0, 76, 80
2, 36264, Note_on_c, 0, 61, 0
2, 36269, Note_on_c, 0, 45, 80
2, 36269, Note_on_c, 0, 57, 80
2, 36326, Note_on_c, 0, 66, 0
2, 36326, Note_on_c, 0, 72, 0
2, 36375, Note_on_c, 0, 57, 0
2, 36380, Note_on_c, 0, 66, 80
2, 36384, Note_on_c, 0, 76, 0
2, 36384, Note_on_c, 0, 54, 80
2, 36384, Note_on_c, 0, 60, 80
2, 36384, Note_on_c, 0, 72, 80
2, 36384, Note_on_c, 0, 74, 80
2, 36389, Note_on_c, 0, 45, 0
2, 36394, Note_on_c, 0, 50, 80
2, 36397, Note_on_c, 0, 66, 0
2, 36400, Note_on_c, 0, 72, 0
2, 36444, Note_on_c, 0, 50, 0
2, 36452, Note_on_c, 0, 74, 0
2, 36452, Note_on_c, 0, 66, 80
2, 36452, Note_on_c, 0, 72, 80
2, 36452, Note_on_c, 0, 76, 80
2, 36493, Note_on_c, 0, 54, 0
2, 36498, Note_on_c, 0, 60, 0
2, 36507, Note_on_c, 0, 50, 80
2, 36512, Note_on_c, 0, 38, 80
2, 36561, Note_on_c, 0, 76, 0
2, 36564, Note_on_c, 0, 72, 0
2, 36567, Note_on_c, 0, 66, 0
2, 36567, Note_on_c, 0, 74, 80
2, 36570, Note_on_c, 0, 50, 0
2, 36624, Note_on_c, 0, 38, 0
2, 36624, Note_on_c, 0, 60, 80
2, 36626, Note_on_c, 0, 54, 80
2, 36629, Note_on_c, 0, 74, 0
2, 36629, Note_on_c, 0, 72, 80
2, 36637, Note_on_c, 0, 50, 80
2, 36681, Note_on_c, 0, 69, 80
2, 36684, Note_on_c, 0, 72, 0
2, 36738, Note_on_c, 0, 60, 0
2, 36745, Note_on_c, 0, 54, 0
2, 36745, Note_on_c, 0, 43, 80
2, 36745, Note_on_c, 0, 55, 80
2, 36745, Note_on_c, 0, 67, 80
2, 36748, Note_on_c, 0, 69, 0
2, 36758, Note_on_c, 0, 50, 0
2, 36797, Note_on_c, 0, 67, 0
2, 36802, Note_on_c, 0, 68, 80
2, 36848, Note_on_c, 0, 55, 0
2, 36856, Note_on_c, 0, 43, 0
2, 36856, Note_on_c, 0, 69, 80
2, 36859, Note_on_c, 0, 68, 0
2, 36859, Note_on_c, 0, 54, 80
2, 36866, Note_on_c, 0, 42, 80
2, 36917, Note_on_c, 0, 69, 0
2, 36922, Note_on_c, 0, 70, 80
2, 36968, Note_on_c, 0, 54, 0
2, 36976, Note_on_c, 0, 70, 0
2, 36976, Note_on_c, 0, 42, 0
2, 36976, Note_on_c, 0, 53, 80
2, 36976, Note_on_c, 0, 71, 80
2, 36984, Note_on_c, 0, 41, 80
2, 37040, Note_on_c, 0, 71, 0
2, 37045, Note_on_c, 0, 72, 80
2, 37077, Note_on_c, 0, 41, 0
2, 37089, Note_on_c, 0, 53, 0
2, 37094, Note_on_c, 0, 72, 0
2, 37094, Note_on_c, 0, 73, 80
2, 37097, Note_on_c, 0, 52, 80
2, 37104, Note_on_c, 0, 40, 80
2, 37153, Note_on_c, 0, 74, 80
2, 37156, Note_on_c, 0, 73, 0
2, 37200, Note_on_c, 0, 40, 0
2, 37218, Note_on_c, 0, 74, 0
2, 37221, Note_on_c, 0, 52, 0
2, 37224, Note_on_c, 0, 75, 80
2, 37226, Note_on_c, 0, 51, 80
2, 37229, Note_on_c, 0, 39, 80
2, 37280, Note_on_c, 0, 76, 80
2, 37285, Note_on_c, 0, 75, 0
2, 37336, Note_on_c, 0, 39, 0
2, 37339, Note_on_c, 0, 38, 80
2, 37342, Note_on_c, 0, 76, 0
2, 37342, Note_on_c, 0, 50, 80
2, 37342, Note_on_c, 0, 77, 80
2, 37344, Note_on_c, 0, 51, 0
2, 37398, Note_on_c, 0, 78, 80
2, 37411, Note_on_c, 0, 77, 0
2, 37455, Note_on_c, 0, 78, 0
2, 37458, Note_on_c, 0, 79, 80
2, 37463, Note_on_c, 0, 38, 0
2, 37465, Note_on_c, 0, 50, 0
2, 37465, Note_on_c, 0, 49, 80
2, 37475, Note_on_c, 0, 37, 80
2, 37524, Note_on_c, 0, 79, 0
2, 37527, Note_on_c, 0, 80, 80
2, 37585, Note_on_c, 0, 37, 0
2, 37585, Note_on_c, 0, 81, 80
2, 37588, Note_on_c, 0, 80, 0
2, 37591, Note_on_c, 0, 36, 80
2, 37591, Note_on_c, 0, 48, 80
2, 37594, Note_on_c, 0, 49, 0
2, 37638, Note_on_c, 0, 81, 0
2, 37643, Note_on_c, 0, 82, 80
2, 37697, Note_on_c, 0, 48, 0
2, 37700, Note_on_c, 0, 47, 80
2, 37703, Note_on_c, 0, 82, 0
2, 37703, Note_on_c, 0, 83, 80
2, 37705, Note_on_c, 0, 36, 0
2, 37708, Note_on_c, 0, 35, 80
2, 37757, Note_on_c, 0, 83, 0
2, 37762, Note_on_c, 0, 84, 80
2, 37813, Note_on_c, 0, 47, 0
2, 37818, Note_on_c, 0, 84, 0
2, 37825, Note_on_c, 0, 35, 0
2, 37828, Note_on_c, 0, 85, 80
2, 37836, Note_on_c, 0, 34, 80
2, 37836, Note_on_c, 0, 46, 80
2, 37885, Note_on_c, 0, 86, 80
2, 37893, Note_on_c, 0, 85, 0
2, 37942, Note_on_c, 0, 34, 0
2, 37944, Note_on_c, 0, 46, 0
2, 37944, Note_on_c, 0, 86, 0
2, 37949, Note_on_c, 0, 87, 80
2, 37954, Note_on_c, 0, 45, 80
2, 37959, Note_on_c, 0, 33, 80
2, 38003, Note_on_c, 0, 88, 80
2, 38006, Note_on_c, 0, 87, 0
2, 38055, Note_on_c, 0, 88, 0
2, 38063, Note_on_c, 0, 33, 0
2, 38065, Note_on_c, 0, 44, 80
2, 38065, Note_on_c, 0, 89, 80
2, 38070, Note_on_c, 0, 45, 0
2, 38073, Note_on_c, 0, 32, 80
2, 38114, Note_on_c, 0, 89, 0
2, 38124, Note_on_c, 0, 90, 80
2, 38178, Note_on_c, 0, 90, 0
2, 38178, Note_on_c, 0, 91, 80
2, 38183, Note_on_c, 0, 32, 0
2, 38185, Note_on_c, 0, 44, 0
2, 38188, Note_on_c, 0, 31, 80
2, 38188, Note_on_c, 0, 43, 80
2, 38234, Note_on_c, 0, 91, 0
2, 38244, Note_on_c, 0, 43, 0
2, 38288, Note_on_c, 0, 31, 0
2, 38293, Note_on_c, 0, 55, 80
2, 38293, Note_on_c, 0, 79, 80
2, 38293, Note_on_c, 0, 83, 80
2, 38293, Note_on_c, 0, 91, 80
2, 38298, Note_on_c, 0, 43, 80
2, 38298, Note_on_c, 0, 86, 80
2, 38354, Note_on_c, 0, 91, 0
2, 38405, Note_on_c, 0, 83, 0
2, 38410, Note_on_c, 0, 91, 80
2, 38413, Note_on_c, 0, 43, 0
2, 38413, Note_on_c, 0, 79, 0
2, 38413, Note_on_c, 0, 86, 0
2, 38416, Note_on_c, 0, 96, 80
2, 38419, Note_on_c, 0, 84, 80
2, 38419, Note_on_c, 0, 88, 80
2, 38422, Note_on_c, 0, 48, 80
2, 38426, Note_on_c, 0, 36, 80
2, 38429, Note_on_c, 0, 55, 0
2, 38534, Note_on_c, 0, 88, 0
2, 38534, Note_on_c, 0, 91, 0
2, 38534, Note_on_c, 0, 84, 0
2, 38539, Note_on_c, 0, 48, 0
2, 38539, Note_on_c, 0, 36, 0
2, 38539, Note_on_c, 0, 96, 0
2, 38649, Note_on_c, 0, 41, 80
2, 38649, Note_on_c, 0, 48, 80
2, 38706, Note_on_c, 0, 57, 80
2, 38760, Note_on_c, 0, 60, 80
2, 38767, Note_on_c, 0, 57, 0
2, 38818, Note_on_c, 0, 65, 80
2, 38831, Note_on_c, 0, 60, 0
2, 38884, Note_on_c, 0, 65, 0
2, 38887, Note_on_c, 0, 60, 80
2, 38892, Note_on_c, 0, 53, 80
2, 38938, Note_on_c, 0, 69, 80
2, 39004, Note_on_c, 0, 48, 0
2, 39007, Note_on_c, 0, 41, 0
2, 39007, Note_on_c, 0, 72, 80
2, 39010, Note_on_c, 0, 69, 0
2, 39061, Note_on_c, 0, 72, 0
2, 39069, Note_on_c, 0, 77, 80
2, 39115, Note_on_c, 0, 53, 0
2, 39120, Note_on_c, 0, 59, 80
2, 39124, Note_on_c, 0, 60, 0
2, 39124, Note_on_c, 0, 74, 80
2, 39127, Note_on_c, 0, 47, 80
2, 39130, Note_on_c, 0, 77, 0
2, 39130, Note_on_c, 0, 86, 80
2, 39179, Note_on_c, 0, 86, 0
2, 39182, Note_on_c, 0, 74, 0
2, 39187, Note_on_c, 0, 59, 0
2, 39192, Note_on_c, 0, 80, 80
2, 39238, Note_on_c, 0, 62, 80
2, 39245, Note_on_c, 0, 53, 80
2, 39245, Note_on_c, 0, 56, 80
2, 39245, Note_on_c, 0, 59, 80
2, 39245, Note_on_c, 0, 83, 80
2, 39248, Note_on_c, 0, 80, 0
2, 39248, Note_on_c, 0, 47, 0
2, 39307, Note_on_c, 0, 83, 0
2, 39307, Note_on_c, 0, 72, 80
2, 39307, Note_on_c, 0, 84, 80
2, 39363, Note_on_c, 0, 60, 80
2, 39366, Note_on_c, 0, 56, 0
2, 39366, Note_on_c, 0, 53, 0
2, 39366, Note_on_c, 0, 48, 80
2, 39371, Note_on_c, 0, 59, 0
2, 39371, Note_on_c, 0, 62, 0
2, 39428, Note_on_c, 0, 84, 0
2, 39431, Note_on_c, 0, 72, 0
2, 39433, Note_on_c, 0, 60, 0
2, 39436, Note_on_c, 0, 81, 80
2, 39487, Note_on_c, 0, 81, 0
2, 39487, Note_on_c, 0, 48, 0
2, 39487, Note_on_c, 0, 65, 80
2, 39487, Note_on_c, 0, 77, 80
2, 39497, Note_on_c, 0, 57, 80
2, 39497, Note_on_c, 0, 60, 80
2, 39548, Note_on_c, 0, 72, 80
2, 39555, Note_on_c, 0, 77, 0
2, 39601, Note_on_c, 0, 72, 0
2, 39604, Note_on_c, 0, 57, 0
2, 39609, Note_on_c, 0, 60, 0
2, 39609, Note_on_c, 0, 38, 80
2, 39609, Note_on_c, 0, 62, 80
2, 39612, Note_on_c, 0, 50, 80
2, 39626, Note_on_c, 0, 65, 0
2, 39666, Note_on_c, 0, 50, 0
2, 39666, Note_on_c, 0, 64, 80
2, 39678, Note_on_c, 0, 62, 0
2, 39722, Note_on_c, 0, 64, 0
2, 39725, Note_on_c, 0, 38, 0
2, 39725, Note_on_c, 0, 50, 80
2, 39725, Note_on_c, 0, 54, 80
2, 39725, Note_on_c, 0, 60, 80
2, 39725, Note_on_c, 0, 66, 80
2, 39782, Note_on_c, 0, 62, 80
2, 39790, Note_on_c, 0, 66, 0
2, 39829, Note_on_c, 0, 50, 0
2, 39839, Note_on_c, 0, 54, 0
2, 39843, Note_on_c, 0, 60, 0
2, 39843, Note_on_c, 0, 55, 80
2, 39843, Note_on_c, 0, 58, 80
2, 39843, Note_on_c, 0, 67, 80
2, 39846, Note_on_c, 0, 43, 80
2, 39854, Note_on_c, 0, 62, 0
2, 39895, Note_on_c, 0, 58, 0
2, 39895, Note_on_c, 0, 60, 80
2, 39900, Note_on_c, 0, 69, 80
2, 39905, Note_on_c, 0, 67, 0
2, 39908, Note_on_c, 0, 55, 0
2, 39957, Note_on_c, 0, 58, 80
2, 39960, Note_on_c, 0, 43, 0
2, 39962, Note_on_c, 0, 55, 80
2, 39965, Note_on_c, 0, 50, 80
2, 40005, Note_on_c, 0, 60, 0
2, 40012, Note_on_c, 0, 70, 80
2, 40015, Note_on_c, 0, 69, 0
2, 40018, Note_on_c, 0, 62, 80
2, 40072, Note_on_c, 0, 50, 0
2, 40077, Note_on_c, 0, 58, 0
2, 40077, Note_on_c, 0, 52, 80
2, 40077, Note_on_c, 0, 64, 80
2, 40080, Note_on_c, 0, 40, 80
2, 40082, Note_on_c, 0, 55, 0
2, 40085, Note_on_c, 0, 70, 0
2, 40088, Note_on_c, 0, 62, 0
2, 40137, Note_on_c, 0, 66, 80
2, 40142, Note_on_c, 0, 52, 0
2, 40147, Note_on_c, 0, 64, 0
2, 40188, Note_on_c, 0, 52, 80
2, 40188, Note_on_c, 0, 56, 80
2, 40193, Note_on_c, 0, 40, 0
2, 40193, Note_on_c, 0, 68, 80
2, 40196, Note_on_c, 0, 62, 80
2, 40200, Note_on_c, 0, 66, 0
2, 40259, Note_on_c, 0, 64, 80
2, 40264, Note_on_c, 0, 68, 0
2, 40313, Note_on_c, 0, 69, 80
2, 40316, Note_on_c, 0, 62, 0
2, 40316, Note_on_c, 0, 56, 0
2, 40316, Note_on_c, 0, 52, 0
2, 40316, Note_on_c, 0, 45, 80
2, 40316, Note_on_c, 0, 57, 80
2, 40316, Note_on_c, 0, 60, 80
2, 40320, Note_on_c, 0, 64, 0
2, 40367, Note_on_c, 0, 69, 0
2, 40371, Note_on_c, 0, 60, 0
2, 40371, Note_on_c, 0, 62, 80
2, 40371, Note_on_c, 0, 71, 80
2, 40376, Note_on_c, 0, 45, 0
2, 40376, Note_on_c, 0, 44, 80
2, 40376, Note_on_c, 0, 56, 80
2, 40379, Note_on_c, 0, 57, 0
2, 40479, Note_on_c, 0, 71, 0
2, 40487, Note_on_c, 0, 62, 0
2, 40489, Note_on_c, 0, 44, 0
2, 40489, Note_on_c, 0, 72, 80
2, 40492, Note_on_c, 0, 55, 80
2, 40492, Note_on_c, 0, 65, 80
2, 40492, Note_on_c, 0, 70, 80
2, 40497, Note_on_c, 0, 43, 80
2, 40500, Note_on_c, 0, 56, 0
2, 40551, Note_on_c, 0, 70, 0
2, 40556, Note_on_c, 0, 65, 0
2, 40556, Note_on_c, 0, 72, 0
2, 40559, Note_on_c, 0, 53, 80
2, 40561, Note_on_c, 0, 43, 0
2, 40561, Note_on_c, 0, 41, 80
2, 40566, Note_on_c, 0, 55, 0
2, 40615, Note_on_c, 0, 77, 80
2, 40623, Note_on_c, 0, 53, 0
2, 40623, Note_on_c, 0, 69, 80
2, 40684, Note_on_c, 0, 69, 0
2, 40684, Note_on_c, 0, 41, 0
2, 40684, Note_on_c, 0, 53, 80
2, 40684, Note_on_c, 0, 57, 80
2, 40684, Note_on_c, 0, 76, 80
2, 40687, Note_on_c, 0, 48, 80
2, 40697, Note_on_c, 0, 77, 0
2, 40731, Note_on_c, 0, 74, 80
2, 40734, Note_on_c, 0, 76, 0
2, 40742, Note_on_c, 0, 48, 0
2, 40799, Note_on_c, 0, 57, 0
2, 40799, Note_on_c, 0, 48, 80
2, 40801, Note_on_c, 0, 72, 80
2, 40806, Note_on_c, 0, 53, 0
2, 40806, Note_on_c, 0, 36, 80
2, 40814, Note_on_c, 0, 74, 0
2, 40855, Note_on_c, 0, 48, 0
2, 40860, Note_on_c, 0, 65, 80
2, 40863, Note_on_c, 0, 72, 0
2, 40866, Note_on_c, 0, 69, 80
2, 40920, Note_on_c, 0, 36, 0
2, 40922, Note_on_c, 0, 48, 80
2, 40922, Note_on_c, 0, 53, 80
2, 40925, Note_on_c, 0, 65, 0
2, 40925, Note_on_c, 0, 57, 80
2, 40976, Note_on_c, 0, 65, 80
2, 40986, Note_on_c, 0, 69, 0
2, 40998, Note_on_c, 0, 65, 0
2, 41033, Note_on_c, 0, 53, 0
2, 41036, Note_on_c, 0, 65, 80
2, 41039, Note_on_c, 0, 50, 80
2, 41039, Note_on_c, 0, 59, 80
2, 41041, Note_on_c, 0, 48, 0
2, 41044, Note_on_c, 0, 67, 80
2, 41047, Note_on_c, 0, 57, 0
2, 41055, Note_on_c, 0, 38, 80
2, 41096, Note_on_c, 0, 67, 0
2, 41101, Note_on_c, 0, 65, 0
2, 41101, Note_on_c, 0, 69, 80
2, 41109, Note_on_c, 0, 59, 0
2, 41167, Note_on_c, 0, 62, 80
2, 41170, Note_on_c, 0, 53, 80
2, 41170, Note_on_c, 0, 55, 80
2, 41173, Note_on_c, 0, 69, 0
2, 41173, Note_on_c, 0, 38, 0
2, 41176, Note_on_c, 0, 50, 0
2, 41222, Note_on_c, 0, 65, 80
2, 41225, Note_on_c, 0, 59, 80
2, 41230, Note_on_c, 0, 67, 80
2, 41234, Note_on_c, 0, 62, 0
2, 41276, Note_on_c, 0, 67, 0
2, 41285, Note_on_c, 0, 31, 80
2, 41288, Note_on_c, 0, 53, 0
2, 41288, Note_on_c, 0, 55, 0
2, 41288, Note_on_c, 0, 43, 80
2, 41337, Note_on_c, 0, 59, 0
2, 41340, Note_on_c, 0, 67, 80
2, 41348, Note_on_c, 0, 65, 0
2, 41397, Note_on_c, 0, 67, 0
2, 41397, Note_on_c, 0, 69, 80
2, 41400, Note_on_c, 0, 43, 0
2, 41402, Note_on_c, 0, 31, 0
2, 41451, Note_on_c, 0, 69, 0
2, 41459, Note_on_c, 0, 71, 80
2, 41505, Note_on_c, 0, 72, 80
2, 41513, Note_on_c, 0, 64, 80
2, 41516, Note_on_c, 0, 48, 80
2, 41516, Note_on_c, 0, 55, 80
2, 41525, Note_on_c, 0, 71, 0
2, 41576, Note_on_c, 0, 48, 0
2, 41579, Note_on_c, 0, 72, 0
2, 41579, Note_on_c, 0, 69, 80
2, 41582, Note_on_c, 0, 55, 0
2, 41585, Note_on_c, 0, 64, 0
2, 41636, Note_on_c, 0, 69, 0
2, 41636, Note_on_c, 0, 48, 80
2, 41640, Note_on_c, 0, 55, 80
2, 41640, Note_on_c, 0, 67, 80
2, 41697, Note_on_c, 0, 64, 80
2, 41702, Note_on_c, 0, 67, 0
2, 41702, Note_on_c, 0, 72, 80
2, 41705, Note_on_c, 0, 48, 0
2, 41705, Note_on_c, 0, 55, 0
2, 41756, Note_on_c, 0, 64, 0
2, 41759, Note_on_c, 0, 48, 80
2, 41759, Note_on_c, 0, 55, 80
2, 41815, Note_on_c, 0, 72, 0
2, 41818, Note_on_c, 0, 64, 80
2, 41821, Note_on_c, 0, 48, 0
2, 41821, Note_on_c, 0, 69, 80
2, 41835, Note_on_c, 0, 55, 0
2, 41886, Note_on_c, 0, 48, 80
2, 41886, Note_on_c, 0, 55, 80
2, 41889, Note_on_c, 0, 64, 0
2, 41926, Note_on_c, 0, 69, 0
2, 41935, Note_on_c, 0, 64, 80
2, 41938, Note_on_c, 0, 67, 80
2, 41943, Note_on_c, 0, 48, 0
2, 41948, Note_on_c, 0, 64, 0
2, 41994, Note_on_c, 0, 64, 80
2, 41997, Note_on_c, 0, 72, 80
2, 42000, Note_on_c, 0, 58, 80
2, 42002, Note_on_c, 0, 48, 80
2, 42005, Note_on_c, 0, 67, 0
2, 42018, Note_on_c, 0, 55, 0
2, 42062, Note_on_c, 0, 64, 0
2, 42062, Note_on_c, 0, 69, 80
2, 42065, Note_on_c, 0, 58, 0
2, 42068, Note_on_c, 0, 72, 0
2, 42072, Note_on_c, 0, 48, 0
2, 42119, Note_on_c, 0, 69, 0
2, 42121, Note_on_c, 0, 58, 80
2, 42126, Note_on_c, 0, 67, 80
2, 42129, Note_on_c, 0, 48, 80
2, 42183, Note_on_c, 0, 64, 80
2, 42186, Note_on_c, 0, 48, 0
2, 42186, Note_on_c, 0, 72, 80
2, 42189, Note_on_c, 0, 58, 0
2, 42189, Note_on_c, 0, 67, 0
2, 42245, Note_on_c, 0, 48, 80
2, 42248, Note_on_c, 0, 58, 80
2, 42302, Note_on_c, 0, 60, 80
2, 42307, Note_on_c, 0, 64, 0
2, 42312, Note_on_c, 0, 72, 0
2, 42360, Note_on_c, 0, 58, 0
2, 42360, Note_on_c, 0, 60, 0
2, 42363, Note_on_c, 0, 48, 0
2, 42368, Note_on_c, 0, 62, 80
2, 42425, Note_on_c, 0, 62, 0
2, 42425, Note_on_c, 0, 64, 80
2, 42481, Note_on_c, 0, 65, 80
2, 42484, Note_on_c, 0, 41, 80
2, 42484, Note_on_c, 0, 48, 80
2, 42489, Note_on_c, 0, 64, 0
2, 42489, Note_on_c, 0, 57, 80
2, 42538, Note_on_c, 0, 65, 0
2, 42541, Note_on_c, 0, 48, 0
2, 42544, Note_on_c, 0, 41, 0
2, 42544, Note_on_c, 0, 57, 0
2, 42547, Note_on_c, 0, 60, 80
2, 42598, Note_on_c, 0, 65, 80
2, 42602, Note_on_c, 0, 41, 80
2, 42602, Note_on_c, 0, 48, 80
2, 42602, Note_on_c, 0, 57, 80
2, 42605, Note_on_c, 0, 60, 0
2, 42667, Note_on_c, 0, 65, 0
2, 42672, Note_on_c, 0, 58, 80
2, 42674, Note_on_c, 0, 57, 0
2, 42677, Note_on_c, 0, 67, 80
2, 42719, Note_on_c, 0, 58, 0
2, 42765, Note_on_c, 0, 41, 0
2, 42777, Note_on_c, 0, 67, 0
2, 42777, Note_on_c, 0, 58, 80
2, 42777, Note_on_c, 0, 69, 80
2, 42828, Note_on_c, 0, 48, 0
2, 42840, Note_on_c, 0, 41, 80
2, 42840, Note_on_c, 0, 49, 80
2, 42887, Note_on_c, 0, 58, 0
2, 42889, Note_on_c, 0, 41, 0
2, 42892, Note_on_c, 0, 69, 0
2, 42902, Note_on_c, 0, 67, 80
2, 42948, Note_on_c, 0, 49, 0
2, 42951, Note_on_c, 0, 48, 80
2, 42951, Note_on_c, 0, 57, 80
2, 42954, Note_on_c, 0, 41, 80
2, 42957, Note_on_c, 0, 67, 0
2, 42957, Note_on_c, 0, 65, 80
2, 43008, Note_on_c, 0, 41, 0
2, 43010, Note_on_c, 0, 60, 80
2, 43013, Note_on_c, 0, 65, 0
2, 43016, Note_on_c, 0, 57, 0
2, 43062, Note_on_c, 0, 58, 80
2, 43065, Note_on_c, 0, 48, 0
2, 43065, Note_on_c, 0, 41, 80
2, 43068, Note_on_c, 0, 60, 0
2, 43068, Note_on_c, 0, 49, 80
2, 43068, Note_on_c, 0, 67, 80
2, 43122, Note_on_c, 0, 58, 0
2, 43122, Note_on_c, 0, 65, 80
2, 43125, Note_on_c, 0, 57, 80
2, 43128, Note_on_c, 0, 41, 0
2, 43128, Note_on_c, 0, 67, 0
2, 43178, Note_on_c, 0, 48, 80
2, 43183, Note_on_c, 0, 49, 0
2, 43183, Note_on_c, 0, 41, 80
2, 43393, Note_on_c, 0, 41, 0
2, 43398, Note_on_c, 0, 48, 0
2, 43416, Note_on_c, 0, 65, 0
2, 43416, Note_on_c, 0, 57, 0
2, 43416, Note_on_c, 0, 58, 80
2, 43416, Note_on_c, 0, 67, 80
2, 43418, Note_on_c, 0, 50, 80
2, 43423, Note_on_c, 0, 43, 80
2, 43467, Note_on_c, 0, 43, 0
2, 43470, Note_on_c, 0, 58, 0
2, 43470, Note_on_c, 0, 67, 0
2, 43470, Note_on_c, 0, 62, 80
2, 43478, Note_on_c, 0, 50, 0
2, 43532, Note_on_c, 0, 58, 80
2, 43536, Note_on_c, 0, 67, 80
2, 43539, Note_on_c, 0, 43, 80
2, 43539, Note_on_c, 0, 50, 80
2, 43542, Note_on_c, 0, 62, 0
2, 43591, Note_on_c, 0, 60, 80
2, 43594, Note_on_c, 0, 58, 0
2, 43597, Note_on_c, 0, 69, 80
2, 43602, Note_on_c, 0, 67, 0
2, 43651, Note_on_c, 0, 60, 0
2, 43700, Note_on_c, 0, 43, 0
2, 43707, Note_on_c, 0, 69, 0
2, 43717, Note_on_c, 0, 70, 80
2, 43720, Note_on_c, 0, 60, 80
2, 43774, Note_on_c, 0, 50, 0
2, 43783, Note_on_c, 0, 51, 80
2, 43788, Note_on_c, 0, 43, 80
2, 43832, Note_on_c, 0, 60, 0
2, 43837, Note_on_c, 0, 70, 0
2, 43840, Note_on_c, 0, 69, 80
2, 43848, Note_on_c, 0, 43, 0
2, 43901, Note_on_c, 0, 69, 0
2, 43901, Note_on_c, 0, 58, 80
2, 43904, Note_on_c, 0, 51, 0
2, 43907, Note_on_c, 0, 67, 80
2, 43910, Note_on_c, 0, 50, 80
2, 43913, Note_on_c, 0, 43, 80
2, 43957, Note_on_c, 0, 67, 0
2, 43960, Note_on_c, 0, 43, 0
2, 43965, Note_on_c, 0, 62, 80
2, 43974, Note_on_c, 0, 58, 0
2, 44020, Note_on_c, 0, 50, 0
2, 44023, Note_on_c, 0, 69, 80
2, 44026, Note_on_c, 0, 62, 0
2, 44026, Note_on_c, 0, 51, 80
2, 44026, Note_on_c, 0, 60, 80
2, 44029, Note_on_c, 0, 43, 80
2, 44073, Note_on_c, 0, 69, 0
2, 44081, Note_on_c, 0, 60, 0
2, 44081, Note_on_c, 0, 58, 80
2, 44086, Note_on_c, 0, 67, 80
2, 44090, Note_on_c, 0, 43, 0
2, 44141, Note_on_c, 0, 67, 0
2, 44146, Note_on_c, 0, 51, 0
2, 44151, Note_on_c, 0, 43, 80
2, 44151, Note_on_c, 0, 50, 80
2, 44205, Note_on_c, 0, 58, 0
2, 44209, Note_on_c, 0, 67, 80
2, 44263, Note_on_c, 0, 67, 0
2, 44266, Note_on_c, 0, 69, 80
2, 44269, Note_on_c, 0, 50, 0
2, 44269, Note_on_c, 0, 43, 0
2, 44320, Note_on_c, 0, 69, 0
2, 44325, Note_on_c, 0, 70, 80
2, 44381, Note_on_c, 0, 70, 0
2, 44381, Note_on_c, 0, 64, 80
2, 44381, Note_on_c, 0, 72, 80
2, 44384, Note_on_c, 0, 48, 80
2, 44384, Note_on_c, 0, 55, 80
2, 44443, Note_on_c, 0, 64, 0
2, 44443, Note_on_c, 0, 71, 80
2, 44446, Note_on_c, 0, 48, 0
2, 44448, Note_on_c, 0, 55, 0
2, 44448, Note_on_c, 0, 72, 0
2, 44497, Note_on_c, 0, 70, 80
2, 44505, Note_on_c, 0, 71, 0
2, 44562, Note_on_c, 0, 69, 80
2, 44571, Note_on_c, 0, 70, 0
2, 44620, Note_on_c, 0, 69, 0
2, 44620, Note_on_c, 0, 68, 80
2, 44684, Note_on_c, 0, 67, 80
2, 44687, Note_on_c, 0, 68, 0
2, 44737, Note_on_c, 0, 66, 80
2, 44747, Note_on_c, 0, 67, 0
2, 44796, Note_on_c, 0, 65, 80
2, 44804, Note_on_c, 0, 66, 0
2, 44865, Note_on_c, 0, 64, 80
2, 44868, Note_on_c, 0, 48, 80
2, 44882, Note_on_c, 0, 65, 0
2, 44927, Note_on_c, 0, 63, 80
2, 44929, Note_on_c, 0, 47, 80
2, 44932, Note_on_c, 0, 48, 0
2, 44940, Note_on_c, 0, 64, 0
2, 44984, Note_on_c, 0, 62, 80
2, 44992, Note_on_c, 0, 63, 0
2, 44992, Note_on_c, 0, 47, 0
2, 44992, Note_on_c, 0, 46, 80
2, 45048, Note_on_c, 0, 46, 0
2, 45048, Note_on_c, 0, 45, 80
2, 45051, Note_on_c, 0, 61, 80
2, 45064, Note_on_c, 0, 62, 0
2, 45105, Note_on_c, 0, 60, 80
2, 45108, Note_on_c, 0, 61, 0
2, 45116, Note_on_c, 0, 44, 80
2, 45119, Note_on_c, 0, 45, 0
2, 45158, Note_on_c, 0, 43, 80
2, 45166, Note_on_c, 0, 44, 0
2, 45170, Note_on_c, 0, 60, 0
2, 45224, Note_on_c, 0, 43, 0
2, 45229, Note_on_c, 0, 42, 80
2, 45288, Note_on_c, 0, 41, 80
2, 45290, Note_on_c, 0, 42, 0
2, 45344, Note_on_c, 0, 41, 0
2, 45347, Note_on_c, 0, 40, 80
2, 45404, Note_on_c, 0, 39, 80
2, 45411, Note_on_c, 0, 40, 0
2, 45470, Note_on_c, 0, 38, 80
2, 45473, Note_on_c, 0, 39, 0
2, 45524, Note_on_c, 0, 37, 80
2, 45528, Note_on_c, 0, 38, 0
2, 45582, Note_on_c, 0, 37, 0
2, 45582, Note_on_c, 0, 36, 80
2, 45641, Note_on_c, 0, 64, 80
2, 45648, Note_on_c, 0, 36, 0
2, 45707, Note_on_c, 0, 67, 80
2, 45712, Note_on_c, 0, 64, 0
2, 45763, Note_on_c, 0, 67, 0
2, 45763, Note_on_c, 0, 70, 80
2, 45814, Note_on_c, 0, 59, 80
2, 45814, Note_on_c, 0, 62, 80
2, 45814, Note_on_c, 0, 74, 80
2, 45816, Note_on_c, 0, 53, 80
2, 45816, Note_on_c, 0, 55, 80
2, 45826, Note_on_c, 0, 70, 0
2, 45875, Note_on_c, 0, 55, 0
2, 45878, Note_on_c, 0, 74, 0
2, 45878, Note_on_c, 0, 71, 80
2, 45883, Note_on_c, 0, 62, 0
2, 45924, Note_on_c, 0, 64, 80
2, 45927, Note_on_c, 0, 53, 0
2, 45930, Note_on_c, 0, 55, 80
2, 45930, Note_on_c, 0, 70, 80
2, 45933, Note_on_c, 0, 59, 0
2, 45933, Note_on_c, 0, 76, 80
2, 45936, Note_on_c, 0, 48, 80
2, 45945, Note_on_c, 0, 71, 0
2, 45989, Note_on_c, 0, 69, 80
2, 45992, Note_on_c, 0, 64, 0
2, 45992, Note_on_c, 0, 65, 80
2, 45995, Note_on_c, 0, 76, 0
2, 45995, Note_on_c, 0, 70, 0
2, 45995, Note_on_c, 0, 77, 80
2, 46000, Note_on_c, 0, 48, 0
2, 46051, Note_on_c, 0, 41, 80
2, 46051, Note_on_c, 0, 48, 80
2, 46054, Note_on_c, 0, 53, 80
2, 46061, Note_on_c, 0, 55, 0
2, 46154, Note_on_c, 0, 48, 0
2, 46154, Note_on_c, 0, 53, 0
2, 46157, Note_on_c, 0, 65, 0
2, 46157, Note_on_c, 0, 41, 0
2, 46157, Note_on_c, 0, 69, 0
2, 46162, Note_on_c, 0, 77, 0
2, 46287, Note_on_c, 0, 41, 80
2, 46287, Note_on_c, 0, 48, 80
2, 46341, Note_on_c, 0, 57, 80
2, 46399, Note_on_c, 0, 60, 80
2, 46402, Note_on_c, 0, 57, 0
2, 46453, Note_on_c, 0, 60, 0
2, 46458, Note_on_c, 0, 65, 80
2, 46516, Note_on_c, 0, 53, 80
2, 46516, Note_on_c, 0, 60, 80
2, 46519, Note_on_c, 0, 65, 0
2, 46581, Note_on_c, 0, 69, 80
2, 46630, Note_on_c, 0, 41, 0
2, 46634, Note_on_c, 0, 48, 0
2, 46637, Note_on_c, 0, 69, 0
2, 46642, Note_on_c, 0, 72, 80
2, 46699, Note_on_c, 0, 77, 80
2, 46704, Note_on_c, 0, 72, 0
2, 46752, Note_on_c, 0, 60, 0
2, 46762, Note_on_c, 0, 77, 0
2, 46762, Note_on_c, 0, 74, 80
2, 46762, Note_on_c, 0, 86, 80
2, 46765, Note_on_c, 0, 53, 0
2, 46765, Note_on_c, 0, 47, 80
2, 46765, Note_on_c, 0, 59, 80
2, 46816, Note_on_c, 0, 59, 0
2, 46825, Note_on_c, 0, 74, 0
2, 46825, Note_on_c, 0, 86, 0
2, 46825, Note_on_c, 0, 80, 80
2, 46887, Note_on_c, 0, 47, 0
2, 46887, Note_on_c, 0, 83, 80
2, 46890, Note_on_c, 0, 59, 80
2, 46893, Note_on_c, 0, 62, 80
2, 46896, Note_on_c, 0, 80, 0
2, 46898, Note_on_c, 0, 53, 80
2, 46898, Note_on_c, 0, 56, 80
2, 46940, Note_on_c, 0, 83, 0
2, 46949, Note_on_c, 0, 72, 80
2, 46949, Note_on_c, 0, 84, 80
2, 46995, Note_on_c, 0, 53, 0
2, 47008, Note_on_c, 0, 56, 0
2, 47008, Note_on_c, 0, 59, 0
2, 47011, Note_on_c, 0, 48, 80
2, 47014, Note_on_c, 0, 60, 80
2, 47021, Note_on_c, 0, 62, 0
2, 47061, Note_on_c, 0, 72, 0
2, 47068, Note_on_c, 0, 60, 0
2, 47068, Note_on_c, 0, 84, 0
2, 47073, Note_on_c, 0, 81, 80
2, 47124, Note_on_c, 0, 81, 0
2, 47124, Note_on_c, 0, 77, 80
2, 47129, Note_on_c, 0, 48, 0
2, 47132, Note_on_c, 0, 57, 80
2, 47132, Note_on_c, 0, 65, 80
2, 47135, Note_on_c, 0, 60, 80
2, 47193, Note_on_c, 0, 72, 80
2, 47198, Note_on_c, 0, 77, 0
2, 47242, Note_on_c, 0, 60, 0
2, 47247, Note_on_c, 0, 72, 0
2, 47247, Note_on_c, 0, 65, 0
2, 47250, Note_on_c, 0, 57, 0
2, 47250, Note_on_c, 0, 50, 80
2, 47250, Note_on_c, 0, 62, 80
2, 47255, Note_on_c, 0, 38, 80
2, 47305, Note_on_c, 0, 50, 0
2, 47308, Note_on_c, 0, 64, 80
2, 47316, Note_on_c, 0, 62, 0
2, 47365, Note_on_c, 0, 64, 0
2, 47365, Note_on_c, 0, 38, 0
2, 47365, Note_on_c, 0, 66, 80
2, 47368, Note_on_c, 0, 50, 80
2, 47371, Note_on_c, 0, 54, 80
2, 47371, Note_on_c, 0, 60, 80
2, 47432, Note_on_c, 0, 66, 0
2, 47432, Note_on_c, 0, 62, 80
2, 47476, Note_on_c, 0, 60, 0
2, 47484, Note_on_c, 0, 54, 0
2, 47487, Note_on_c, 0, 55, 80
2, 47490, Note_on_c, 0, 50, 0
2, 47490, Note_on_c, 0, 43, 80
2, 47493, Note_on_c, 0, 62, 0
2, 47493, Note_on_c, 0, 58, 80
2, 47493, Note_on_c, 0, 67, 80
2, 47537, Note_on_c, 0, 67, 0
2, 47544, Note_on_c, 0, 58, 0
2, 47547, Note_on_c, 0, 69, 80
2, 47550, Note_on_c, 0, 60, 80
2, 47558, Note_on_c, 0, 55, 0
2, 47602, Note_on_c, 0, 43, 0
2, 47612, Note_on_c, 0, 50, 80
2, 47612, Note_on_c, 0, 55, 80
2, 47612, Note_on_c, 0, 58, 80
2, 47663, Note_on_c, 0, 69, 0
2, 47665, Note_on_c, 0, 60, 0
2, 47670, Note_on_c, 0, 70, 80
2, 47673, Note_on_c, 0, 62, 80
2, 47722, Note_on_c, 0, 58, 0
2, 47725, Note_on_c, 0, 50, 0
2, 47728, Note_on_c, 0, 70, 0
2, 47731, Note_on_c, 0, 55, 0
2, 47731, Note_on_c, 0, 52, 80
2, 47731, Note_on_c, 0, 64, 80
2, 47734, Note_on_c, 0, 62, 0
2, 47736, Note_on_c, 0, 40, 80
2, 47798, Note_on_c, 0, 52, 0
2, 47798, Note_on_c, 0, 66, 80
2, 47803, Note_on_c, 0, 64, 0
2, 47852, Note_on_c, 0, 40, 0
2, 47852, Note_on_c, 0, 56, 80
2, 47852, Note_on_c, 0, 62, 80
2, 47852, Note_on_c, 0, 68, 80
2, 47855, Note_on_c, 0, 66, 0
2, 47857, Note_on_c, 0, 52, 80
2, 47914, Note_on_c, 0, 64, 80
2, 47922, Note_on_c, 0, 68, 0
2, 47968, Note_on_c, 0, 56, 0
2, 47973, Note_on_c, 0, 52, 0
2, 47976, Note_on_c, 0, 69, 80
2, 47978, Note_on_c, 0, 62, 0
2, 47978, Note_on_c, 0, 64, 0
2, 47978, Note_on_c, 0, 45, 80
2, 47978, Note_on_c, 0, 57, 80
2, 47978, Note_on_c, 0, 60, 80
2, 48024, Note_on_c, 0, 69, 0
2, 48032, Note_on_c, 0, 45, 0
2, 48035, Note_on_c, 0, 44, 80
2, 48038, Note_on_c, 0, 57, 0
2, 48038, Note_on_c, 0, 60, 0
2, 48038, Note_on_c, 0, 56, 80
2, 48038, Note_on_c, 0, 71, 80
2, 48043, Note_on_c, 0, 62, 80
2, 48143, Note_on_c, 0, 56, 0
2, 48147, Note_on_c, 0, 44, 0
2, 48152, Note_on_c, 0, 65, 80
2, 48155, Note_on_c, 0, 71, 0
2, 48155, Note_on_c, 0, 62, 0
2, 48158, Note_on_c, 0, 43, 80
2, 48158, Note_on_c, 0, 55, 80
2, 48158, Note_on_c, 0, 70, 80
2, 48158, Note_on_c, 0, 72, 80
2, 48209, Note_on_c, 0, 70, 0
2, 48209, Note_on_c, 0, 55, 0
2, 48212, Note_on_c, 0, 43, 0
2, 48212, Note_on_c, 0, 41, 80
2, 48215, Note_on_c, 0, 65, 0
2, 48215, Note_on_c, 0, 72, 0
2, 48215, Note_on_c, 0, 53, 80
2, 48271, Note_on_c, 0, 53, 0
2, 48274, Note_on_c, 0, 69, 80
2, 48274, Note_on_c, 0, 77, 80
2, 48328, Note_on_c, 0, 41, 0
2, 48333, Note_on_c, 0, 48, 80
2, 48333, Note_on_c, 0, 76, 80
2, 48336, Note_on_c, 0, 77, 0
2, 48336, Note_on_c, 0, 69, 0
2, 48336, Note_on_c, 0, 53, 80
2, 48336, Note_on_c, 0, 57, 80
2, 48386, Note_on_c, 0, 48, 0
2, 48389, Note_on_c, 0, 76, 0
2, 48389, Note_on_c, 0, 74, 80
2, 48440, Note_on_c, 0, 57, 0
2, 48445, Note_on_c, 0, 53, 0
2, 48448, Note_on_c, 0, 74, 0
2, 48451, Note_on_c, 0, 48, 80
2, 48451, Note_on_c, 0, 72, 80
2, 48454, Note_on_c, 0, 36, 80
2, 48500, Note_on_c, 0, 48, 0
2, 48503, Note_on_c, 0, 72, 0
2, 48503, Note_on_c, 0, 65, 80
2, 48503, Note_on_c, 0, 69, 80
2, 48564, Note_on_c, 0, 65, 0
2, 48564, Note_on_c, 0, 36, 0
2, 48572, Note_on_c, 0, 57, 80
2, 48575, Note_on_c, 0, 48, 80
2, 48575, Note_on_c, 0, 53, 80
2, 48611, Note_on_c, 0, 69, 0
2, 48616, Note_on_c, 0, 65, 80
2, 48640, Note_on_c, 0, 65, 0
2, 48670, Note_on_c, 0, 53, 0
2, 48674, Note_on_c, 0, 57, 0
2, 48687, Note_on_c, 0, 48, 0
2, 48687, Note_on_c, 0, 59, 80
2, 48690, Note_on_c, 0, 65, 80
2, 48695, Note_on_c, 0, 38, 80
2, 48697, Note_on_c, 0, 67, 80
2, 48700, Note_on_c, 0, 50, 80
2, 48742, Note_on_c, 0, 67, 0
2, 48746, Note_on_c, 0, 65, 0
2, 48746, Note_on_c, 0, 59, 0
2, 48751, Note_on_c, 0, 69, 80
2, 48800, Note_on_c, 0, 55, 80
2, 48803, Note_on_c, 0, 38, 0
2, 48806, Note_on_c, 0, 50, 0
2, 48806, Note_on_c, 0, 53, 80
2, 48806, Note_on_c, 0, 62, 80
2, 48809, Note_on_c, 0, 69, 0
2, 48863, Note_on_c, 0, 65, 80
2, 48870, Note_on_c, 0, 59, 80
2, 48875, Note_on_c, 0, 62, 0
2, 48875, Note_on_c, 0, 67, 80
2, 48919, Note_on_c, 0, 67, 0
2, 48922, Note_on_c, 0, 53, 0
2, 48925, Note_on_c, 0, 31, 80
2, 48928, Note_on_c, 0, 43, 80
2, 48933, Note_on_c, 0, 55, 0
2, 48986, Note_on_c, 0, 59, 0
2, 48989, Note_on_c, 0, 65, 0
2, 48989, Note_on_c, 0, 67, 80
2, 49033, Note_on_c, 0, 31, 0
2, 49036, Note_on_c, 0, 69, 80
2, 49039, Note_on_c, 0, 67, 0
2, 49039, Note_on_c, 0, 43, 0
2, 49098, Note_on_c, 0, 69, 0
2, 49103, Note_on_c, 0, 71, 80
2, 49161, Note_on_c, 0, 48, 80
2, 49161, Note_on_c, 0, 55, 80
2, 49161, Note_on_c, 0, 72, 80
2, 49164, Note_on_c, 0, 71, 0
2, 49164, Note_on_c, 0, 64, 80
2, 49205, Note_on_c, 0, 72, 0
2, 49210, Note_on_c, 0, 69, 80
2, 49218, Note_on_c, 0, 64, 0
2, 49221, Note_on_c, 0, 48, 0
2, 49221, Note_on_c, 0, 55, 0
2, 49274, Note_on_c, 0, 55, 80
2, 49277, Note_on_c, 0, 69, 0
2, 49277, Note_on_c, 0, 48, 80
2, 49282, Note_on_c, 0, 67, 80
2, 49326, Note_on_c, 0, 67, 0
2, 49329, Note_on_c, 0, 48, 0
2, 49332, Note_on_c, 0, 64, 80
2, 49332, Note_on_c, 0, 72, 80
2, 49342, Note_on_c, 0, 55, 0
2, 49388, Note_on_c, 0, 55, 80
2, 49395, Note_on_c, 0, 48, 80
2, 49398, Note_on_c, 0, 64, 0
2, 49449, Note_on_c, 0, 72, 0
2, 49452, Note_on_c, 0, 48, 0
2, 49455, Note_on_c, 0, 69, 80
2, 49458, Note_on_c, 0, 55, 0
2, 49458, Note_on_c, 0, 64, 80
2, 49512, Note_on_c, 0, 64, 0
2, 49514, Note_on_c, 0, 48, 80
2, 49514, Note_on_c, 0, 55, 80
2, 49568, Note_on_c, 0, 48, 0
2, 49568, Note_on_c, 0, 64, 80
2, 49571, Note_on_c, 0, 69, 0
2, 49574, Note_on_c, 0, 67, 80
2, 49591, Note_on_c, 0, 64, 0
2, 49628, Note_on_c, 0, 72, 80
2, 49631, Note_on_c, 0, 67, 0
2, 49631, Note_on_c, 0, 55, 0
2, 49631, Note_on_c, 0, 58, 80
2, 49633, Note_on_c, 0, 48, 80
2, 49636, Note_on_c, 0, 64, 80
2, 49687, Note_on_c, 0, 64, 0
2, 49687, Note_on_c, 0, 48, 0
2, 49687, Note_on_c, 0, 58, 0
2, 49692, Note_on_c, 0, 72, 0
2, 49692, Note_on_c, 0, 69, 80
2, 49753, Note_on_c, 0, 48, 80
2, 49756, Note_on_c, 0, 69, 0
2, 49759, Note_on_c, 0, 58, 80
2, 49764, Note_on_c, 0, 67, 80
2, 49805, Note_on_c, 0, 58, 0
2, 49808, Note_on_c, 0, 48, 0
2, 49811, Note_on_c, 0, 67, 0
2, 49816, Note_on_c, 0, 72, 80
2, 49821, Note_on_c, 0, 64, 80
2, 49882, Note_on_c, 0, 48, 80
2, 49882, Note_on_c, 0, 58, 80
2, 49936, Note_on_c, 0, 72, 0
2, 49944, Note_on_c, 0, 64, 0
2, 49944, Note_on_c, 0, 60, 80
2, 49994, Note_on_c, 0, 58, 0
2, 49997, Note_on_c, 0, 48, 0
2, 50000, Note_on_c, 0, 60, 0
2, 50000, Note_on_c, 0, 62, 80
2, 50062, Note_on_c, 0, 64, 80
2, 50074, Note_on_c, 0, 62, 0
2, 50118, Note_on_c, 0, 65, 80
2, 50121, Note_on_c, 0, 64, 0
2, 50124, Note_on_c, 0, 41, 80
2, 50124, Note_on_c, 0, 48, 80
2, 50127, Note_on_c, 0, 57, 80
2, 50181, Note_on_c, 0, 48, 0
2, 50181, Note_on_c, 0, 41, 0
2, 50184, Note_on_c, 0, 57, 0
2, 50184, Note_on_c, 0, 60, 80
2, 50188, Note_on_c, 0, 65, 0
2, 50245, Note_on_c, 0, 65, 80
2, 50248, Note_on_c, 0, 60, 0
2, 50248, Note_on_c, 0, 57, 80
2, 50251, Note_on_c, 0, 41, 80
2, 50251, Note_on_c, 0, 48, 80
2, 50302, Note_on_c, 0, 57, 0
2, 50302, Note_on_c, 0, 58, 80
2, 50311, Note_on_c, 0, 67, 80
2, 50314, Note_on_c, 0, 65, 0
2, 50371, Note_on_c, 0, 58, 0
2, 50417, Note_on_c, 0, 67, 0
2, 50422, Note_on_c, 0, 41, 0
2, 50424, Note_on_c, 0, 58, 80
2, 50427, Note_on_c, 0, 69, 80
2, 50486, Note_on_c, 0, 48, 0
2, 50486, Note_on_c, 0, 41, 80
2, 50491, Note_on_c, 0, 49, 80
2, 50542, Note_on_c, 0, 41, 0
2, 50544, Note_on_c, 0, 58, 0
2, 50549, Note_on_c, 0, 69, 0
2, 50549, Note_on_c, 0, 67, 80
2, 50595, Note_on_c, 0, 65, 80
2, 50598, Note_on_c, 0, 67, 0
2, 50601, Note_on_c, 0, 49, 0
2, 50601, Note_on_c, 0, 41, 80
2, 50604, Note_on_c, 0, 48, 80
2, 50604, Note_on_c, 0, 57, 80
2, 50663, Note_on_c, 0, 41, 0
2, 50665, Note_on_c, 0, 60, 80
2, 50670, Note_on_c, 0, 57, 0
2, 50675, Note_on_c, 0, 65, 0
2, 50712, Note_on_c, 0, 48, 0
2, 50719, Note_on_c, 0, 60, 0
2, 50719, Note_on_c, 0, 67, 80
2, 50722, Note_on_c, 0, 49, 80
2, 50725, Note_on_c, 0, 58, 80
2, 50730, Note_on_c, 0, 41, 80
2, 50779, Note_on_c, 0, 41, 0
2, 50782, Note_on_c, 0, 57, 80
2, 50782, Note_on_c, 0, 65, 80
2, 50786, Note_on_c, 0, 58, 0
2, 50786, Note_on_c, 0, 67, 0
2, 50837, Note_on_c, 0, 49, 0
2, 50842, Note_on_c, 0, 48, 80
2, 50845, Note_on_c, 0, 41, 80
2, 50957, Note_on_c, 0, 48, 0
2, 51062, Note_on_c, 0, 41, 0
2, 51070, Note_on_c, 0, 65, 0
2, 51074, Note_on_c, 0, 57, 0
2, 51074, Note_on_c, 0, 58, 80
2, 51077, Note_on_c, 0, 43, 80
2, 51080, Note_on_c, 0, 50, 80
2, 51080, Note_on_c, 0, 67, 80
2, 51129, Note_on_c, 0, 58, 0
2, 51132, Note_on_c, 0, 50, 0
2, 51137, Note_on_c, 0, 67, 0
2, 51137, Note_on_c, 0, 62, 80
2, 51140, Note_on_c, 0, 43, 0
2, 51196, Note_on_c, 0, 43, 80
2, 51201, Note_on_c, 0, 50, 80
2, 51201, Note_on_c, 0, 58, 80
2, 51204, Note_on_c, 0, 62, 0
2, 51204, Note_on_c, 0, 67, 80
2, 51261, Note_on_c, 0, 67, 0
2, 51261, Note_on_c, 0, 60, 80
2, 51261, Note_on_c, 0, 69, 80
2, 51264, Note_on_c, 0, 58, 0
2, 51314, Note_on_c, 0, 60, 0
2, 51359, Note_on_c, 0, 69, 0
2, 51363, Note_on_c, 0, 43, 0
2, 51371, Note_on_c, 0, 60, 80
2, 51371, Note_on_c, 0, 70, 80
2, 51422, Note_on_c, 0, 50, 0
2, 51436, Note_on_c, 0, 43, 80
2, 51439, Note_on_c, 0, 51, 80
2, 51483, Note_on_c, 0, 60, 0
2, 51486, Note_on_c, 0, 43, 0
2, 51489, Note_on_c, 0, 70, 0
2, 51489, Note_on_c, 0, 69, 80
2, 51546, Note_on_c, 0, 69, 0
2, 51558, Note_on_c, 0, 50, 80
2, 51558, Note_on_c, 0, 58, 80
2, 51561, Note_on_c, 0, 51, 0
2, 51561, Note_on_c, 0, 43, 80
2, 51564, Note_on_c, 0, 67, 80
2, 51603, Note_on_c, 0, 43, 0
2, 51606, Note_on_c, 0, 67, 0
2, 51609, Note_on_c, 0, 58, 0
2, 51609, Note_on_c, 0, 62, 80
2, 51672, Note_on_c, 0, 50, 0
2, 51672, Note_on_c, 0, 43, 80
2, 51675, Note_on_c, 0, 51, 80
2, 51675, Note_on_c, 0, 60, 80
2, 51675, Note_on_c, 0, 69, 80
2, 51683, Note_on_c, 0, 62, 0
2, 51724, Note_on_c, 0, 43, 0
2, 51727, Note_on_c, 0, 69, 0
2, 51735, Note_on_c, 0, 58, 80
2, 51738, Note_on_c, 0, 67, 80
2, 51741, Note_on_c, 0, 60, 0
2, 51787, Note_on_c, 0, 67, 0
2, 51790, Note_on_c, 0, 51, 0
2, 51794, Note_on_c, 0, 50, 80
2, 51797, Note_on_c, 0, 43, 80
2, 51856, Note_on_c, 0, 58, 0
2, 51859, Note_on_c, 0, 67, 80
2, 51908, Note_on_c, 0, 43, 0
2, 51911, Note_on_c, 0, 67, 0
2, 51913, Note_on_c, 0, 50, 0
2, 51923, Note_on_c, 0, 69, 80
2, 51969, Note_on_c, 0, 70, 80
2, 51972, Note_on_c, 0, 69, 0
2, 52029, Note_on_c, 0, 70, 0
2, 52033, Note_on_c, 0, 72, 80
2, 52036, Note_on_c, 0, 64, 80
2, 52039, Note_on_c, 0, 48, 80
2, 52039, Note_on_c, 0, 55, 80
2, 52088, Note_on_c, 0, 48, 0
2, 52091, Note_on_c, 0, 72, 0
2, 52091, Note_on_c, 0, 71, 80
2, 52096, Note_on_c, 0, 64, 0
2, 52099, Note_on_c, 0, 55, 0
2, 52160, Note_on_c, 0, 71, 0
2, 52160, Note_on_c, 0, 70, 80
2, 52214, Note_on_c, 0, 69, 80
2, 52217, Note_on_c, 0, 70, 0
2, 52275, Note_on_c, 0, 69, 0
2, 52275, Note_on_c, 0, 68, 80
2, 52334, Note_on_c, 0, 68, 0
2, 52334, Note_on_c, 0, 67, 80
2, 52380, Note_on_c, 0, 67, 0
2, 52392, Note_on_c, 0, 66, 80
2, 52441, Note_on_c, 0, 65, 80
2, 52446, Note_on_c, 0, 66, 0
2, 52505, Note_on_c, 0, 65, 0
2, 52510, Note_on_c, 0, 48, 80
2, 52510, Note_on_c, 0, 64, 80
2, 52566, Note_on_c, 0, 63, 80
2, 52569, Note_on_c, 0, 48, 0
2, 52569, Note_on_c, 0, 47, 80
2, 52574, Note_on_c, 0, 64, 0
2, 52623, Note_on_c, 0, 47, 0
2, 52623, Note_on_c, 0, 63, 0
2, 52628, Note_on_c, 0, 46, 80
2, 52628, Note_on_c, 0, 62, 80
2, 52679, Note_on_c, 0, 61, 80
2, 52681, Note_on_c, 0, 46, 0
2, 52689, Note_on_c, 0, 45, 80
2, 52694, Note_on_c, 0, 62, 0
2, 52745, Note_on_c, 0, 60, 80
2, 52748, Note_on_c, 0, 45, 0
2, 52748, Note_on_c, 0, 61, 0
2, 52748, Note_on_c, 0, 44, 80
2, 52801, Note_on_c, 0, 60, 0
2, 52804, Note_on_c, 0, 44, 0
2, 52807, Note_on_c, 0, 43, 80
2, 52858, Note_on_c, 0, 43, 0
2, 52863, Note_on_c, 0, 42, 80
2, 52926, Note_on_c, 0, 42, 0
2, 52929, Note_on_c, 0, 41, 80
2, 52970, Note_on_c, 0, 41, 0
2, 52980, Note_on_c, 0, 40, 80
2, 53041, Note_on_c, 0, 40, 0
2, 53044, Note_on_c, 0, 39, 80
2, 53098, Note_on_c, 0, 39, 0
2, 53101, Note_on_c, 0, 38, 80
2, 53162, Note_on_c, 0, 38, 0
2, 53162, Note_on_c, 0, 37, 80
2, 53216, Note_on_c, 0, 37, 0
2, 53221, Note_on_c, 0, 36, 80
2, 53280, Note_on_c, 0, 64, 80
2, 53284, Note_on_c, 0, 36, 0
2, 53346, Note_on_c, 0, 64, 0
2, 53351, Note_on_c, 0, 67, 80
2, 53395, Note_on_c, 0, 67, 0
2, 53400, Note_on_c, 0, 70, 80
2, 53458, Note_on_c, 0, 53, 80
2, 53458, Note_on_c, 0, 74, 80
2, 53461, Note_on_c, 0, 70, 0
2, 53464, Note_on_c, 0, 55, 80
2, 53464, Note_on_c, 0, 59, 80
2, 53464, Note_on_c, 0, 62, 80
2, 53513, Note_on_c, 0, 74, 0
2, 53522, Note_on_c, 0, 62, 0
2, 53522, Note_on_c, 0, 55, 0
2, 53522, Note_on_c, 0, 71, 80
2, 53564, Note_on_c, 0, 59, 0
2, 53571, Note_on_c, 0, 71, 0
2, 53571, Note_on_c, 0, 48, 80
2, 53576, Note_on_c, 0, 64, 80
2, 53576, Note_on_c, 0, 70, 80
2, 53576, Note_on_c, 0, 76, 80
2, 53579, Note_on_c, 0, 53, 0
2, 53579, Note_on_c, 0, 55, 80
2, 53636, Note_on_c, 0, 70, 0
2, 53636, Note_on_c, 0, 76, 0
2, 53636, Note_on_c, 0, 65, 80
2, 53639, Note_on_c, 0, 48, 0
2, 53641, Note_on_c, 0, 69, 80
2, 53641, Note_on_c, 0, 77, 80
2, 53644, Note_on_c, 0, 64, 0
2, 53681, Note_on_c, 0, 55, 0
2, 53688, Note_on_c, 0, 53, 80
2, 53691, Note_on_c, 0, 41, 80
2, 53696, Note_on_c, 0, 48, 80
2, 53807, Note_on_c, 0, 77, 0
2, 53809, Note_on_c, 0, 69, 0
2, 53812, Note_on_c, 0, 48, 0
2, 53815, Note_on_c, 0, 65, 0
2, 53815, Note_on_c, 0, 41, 0
2, 53818, Note_on_c, 0, 53, 0
2, 53933, Note_on_c, 0, 55, 80
2, 53933, Note_on_c, 0, 64, 80
2, 53938, Note_on_c, 0, 76, 80
2, 53941, Note_on_c, 0, 43, 80
2, 53998, Note_on_c, 0, 76, 0
2, 53998, Note_on_c, 0, 70, 80
2, 54000, Note_on_c, 0, 64, 0
2, 54045, Note_on_c, 0, 43, 0
2, 54048, Note_on_c, 0, 58, 80
2, 54052, Note_on_c, 0, 55, 0
2, 54052, Note_on_c, 0, 52, 80
2, 54055, Note_on_c, 0, 72, 80
2, 54058, Note_on_c, 0, 70, 0
2, 54058, Note_on_c, 0, 48, 80
2, 54112, Note_on_c, 0, 76, 80
2, 54115, Note_on_c, 0, 72, 0
2, 54115, Note_on_c, 0, 64, 80
2, 54168, Note_on_c, 0, 48, 0
2, 54173, Note_on_c, 0, 58, 0
2, 54173, Note_on_c, 0, 52, 0
2, 54173, Note_on_c, 0, 55, 80
2, 54178, Note_on_c, 0, 43, 80
2, 54224, Note_on_c, 0, 76, 0
2, 54229, Note_on_c, 0, 70, 80
2, 54232, Note_on_c, 0, 64, 0
2, 54290, Note_on_c, 0, 43, 0
2, 54290, Note_on_c, 0, 56, 80
2, 54290, Note_on_c, 0, 74, 80
2, 54293, Note_on_c, 0, 70, 0
2, 54293, Note_on_c, 0, 62, 80
2, 54296, Note_on_c, 0, 44, 80
2, 54299, Note_on_c, 0, 55, 0
2, 54348, Note_on_c, 0, 70, 80
2, 54351, Note_on_c, 0, 74, 0
2, 54365, Note_on_c, 0, 62, 0
2, 54407, Note_on_c, 0, 56, 0
2, 54411, Note_on_c, 0, 60, 80
2, 54414, Note_on_c, 0, 44, 0
2, 54414, Note_on_c, 0, 72, 80
2, 54417, Note_on_c, 0, 70, 0
2, 54417, Note_on_c, 0, 45, 80
2, 54417, Note_on_c, 0, 57, 80
2, 54471, Note_on_c, 0, 72, 0
2, 54474, Note_on_c, 0, 57, 0
2, 54477, Note_on_c, 0, 60, 0
2, 54477, Note_on_c, 0, 65, 80
2, 54530, Note_on_c, 0, 45, 0
2, 54538, Note_on_c, 0, 48, 80
2, 54538, Note_on_c, 0, 53, 80
2, 54538, Note_on_c, 0, 57, 80
2, 54538, Note_on_c, 0, 69, 80
2, 54543, Note_on_c, 0, 65, 0
2, 54594, Note_on_c, 0, 72, 80
2, 54597, Note_on_c, 0, 69, 0
2, 54597, Note_on_c, 0, 53, 0
2, 54597, Note_on_c, 0, 60, 80
2, 54648, Note_on_c, 0, 48, 0
2, 54650, Note_on_c, 0, 57, 0
2, 54653, Note_on_c, 0, 53, 80
2, 54661, Note_on_c, 0, 41, 80
2, 54712, Note_on_c, 0, 72, 0
2, 54712, Note_on_c, 0, 69, 80
2, 54715, Note_on_c, 0, 60, 0
2, 54759, Note_on_c, 0, 53, 0
2, 54767, Note_on_c, 0, 41, 0
2, 54774, Note_on_c, 0, 69, 0
2, 54774, Note_on_c, 0, 62, 80
2, 54774, Note_on_c, 0, 74, 80
2, 54777, Note_on_c, 0, 54, 80
2, 54780, Note_on_c, 0, 42, 80
2, 54837, Note_on_c, 0, 69, 80
2, 54841, Note_on_c, 0, 74, 0
2, 54849, Note_on_c, 0, 62, 0
2, 54890, Note_on_c, 0, 54, 0
2, 54893, Note_on_c, 0, 69, 0
2, 54901, Note_on_c, 0, 55, 80
2, 54901, Note_on_c, 0, 76, 80
2, 54904, Note_on_c, 0, 42, 0
2, 54907, Note_on_c, 0, 64, 80
2, 54910, Note_on_c, 0, 43, 80
2, 54954, Note_on_c, 0, 76, 0
2, 54959, Note_on_c, 0, 70, 80
2, 54966, Note_on_c, 0, 64, 0
2, 55010, Note_on_c, 0, 43, 0
2, 55018, Note_on_c, 0, 70, 0
2, 55021, Note_on_c, 0, 55, 0
2, 55024, Note_on_c, 0, 72, 80
2, 55027, Note_on_c, 0, 48, 80
2, 55027, Note_on_c, 0, 52, 80
2, 55027, Note_on_c, 0, 58, 80
2, 55073, Note_on_c, 0, 72, 0
2, 55078, Note_on_c, 0, 64, 80
2, 55082, Note_on_c, 0, 76, 80
2, 55127, Note_on_c, 0, 58, 0
2, 55129, Note_on_c, 0, 52, 0
2, 55134, Note_on_c, 0, 48, 0
2, 55139, Note_on_c, 0, 43, 80
2, 55139, Note_on_c, 0, 55, 80
2, 55198, Note_on_c, 0, 76, 0
2, 55198, Note_on_c, 0, 64, 0
2, 55198, Note_on_c, 0, 70, 80
2, 55242, Note_on_c, 0, 55, 0
2, 55245, Note_on_c, 0, 43, 0
2, 55252, Note_on_c, 0, 70, 0
2, 55252, Note_on_c, 0, 56, 80
2, 55252, Note_on_c, 0, 62, 80
2, 55252, Note_on_c, 0, 74, 80
2, 55255, Note_on_c, 0, 44, 80
2, 55309, Note_on_c, 0, 62, 0
2, 55309, Note_on_c, 0, 70, 80
2, 55314, Note_on_c, 0, 74, 0
2, 55360, Note_on_c, 0, 70, 0
2, 55368, Note_on_c, 0, 57, 80
2, 55368, Note_on_c, 0, 60, 80
2, 55370, Note_on_c, 0, 56, 0
2, 55370, Note_on_c, 0, 45, 80
2, 55373, Note_on_c, 0, 44, 0
2, 55378, Note_on_c, 0, 72, 80
2, 55427, Note_on_c, 0, 72, 0
2, 55427, Note_on_c, 0, 65, 80
2, 55430, Note_on_c, 0, 60, 0
2, 55435, Note_on_c, 0, 57, 0
2, 55488, Note_on_c, 0, 69, 80
2, 55493, Note_on_c, 0, 45, 0
2, 55496, Note_on_c, 0, 53, 80
2, 55496, Note_on_c, 0, 57, 80
2, 55499, Note_on_c, 0, 48, 80
2, 55502, Note_on_c, 0, 65, 0
2, 55546, Note_on_c, 0, 69, 0
2, 55549, Note_on_c, 0, 60, 80
2, 55552, Note_on_c, 0, 53, 0
2, 55552, Note_on_c, 0, 72, 80
2, 55603, Note_on_c, 0, 48, 0
2, 55610, Note_on_c, 0, 57, 0
2, 55613, Note_on_c, 0, 41, 80
2, 55613, Note_on_c, 0, 53, 80
2, 55662, Note_on_c, 0, 60, 0
2, 55667, Note_on_c, 0, 72, 0
2, 55672, Note_on_c, 0, 69, 80
2, 55721, Note_on_c, 0, 69, 0
2, 55726, Note_on_c, 0, 41, 0
2, 55730, Note_on_c, 0, 73, 80
2, 55733, Note_on_c, 0, 61, 80
2, 55736, Note_on_c, 0, 53, 0
2, 55736, Note_on_c, 0, 40, 80
2, 55736, Note_on_c, 0, 52, 80
2, 55798, Note_on_c, 0, 73, 0
2, 55798, Note_on_c, 0, 67, 80
2, 55805, Note_on_c, 0, 61, 0
2, 55842, Note_on_c, 0, 52, 0
2, 55845, Note_on_c, 0, 40, 0
2, 55845, Note_on_c, 0, 67, 0
2, 55848, Note_on_c, 0, 50, 80
2, 55848, Note_on_c, 0, 62, 80
2, 55850, Note_on_c, 0, 38, 80
2, 55850, Note_on_c, 0, 74, 80
2, 55904, Note_on_c, 0, 66, 80
2, 55907, Note_on_c, 0, 50, 0
2, 55910, Note_on_c, 0, 74, 0
2, 55915, Note_on_c, 0, 62, 0
2, 55964, Note_on_c, 0, 38, 0
2, 55964, Note_on_c, 0, 69, 80
2, 55968, Note_on_c, 0, 50, 80
2, 55971, Note_on_c, 0, 66, 0
2, 55974, Note_on_c, 0, 54, 80
2, 55974, Note_on_c, 0, 60, 80
2, 55992, Note_on_c, 0, 60, 0
2, 56018, Note_on_c, 0, 50, 0
2, 56021, Note_on_c, 0, 69, 0
2, 56029, Note_on_c, 0, 60, 80
2, 56032, Note_on_c, 0, 72, 80
2, 56081, Note_on_c, 0, 54, 0
2, 56090, Note_on_c, 0, 50, 80
2, 56093, Note_on_c, 0, 38, 80
2, 56144, Note_on_c, 0, 72, 0
2, 56147, Note_on_c, 0, 50, 0
2, 56150, Note_on_c, 0, 48, 80
2, 56155, Note_on_c, 0, 60, 0
2, 56155, Note_on_c, 0, 38, 0
2, 56155, Note_on_c, 0, 66, 80
2, 56160, Note_on_c, 0, 36, 80
2, 56206, Note_on_c, 0, 66, 0
2, 56206, Note_on_c, 0, 48, 0
2, 56208, Note_on_c, 0, 36, 0
2, 56211, Note_on_c, 0, 46, 80
2, 56211, Note_on_c, 0, 62, 80
2, 56211, Note_on_c, 0, 74, 80
2, 56214, Note_on_c, 0, 34, 80
2, 56265, Note_on_c, 0, 34, 0
2, 56268, Note_on_c, 0, 46, 0
2, 56271, Note_on_c, 0, 62, 0
2, 56271, Note_on_c, 0, 33, 80
2, 56271, Note_on_c, 0, 66, 80
2, 56274, Note_on_c, 0, 45, 80
2, 56277, Note_on_c, 0, 74, 0
2, 56326, Note_on_c, 0, 70, 80
2, 56328, Note_on_c, 0, 45, 0
2, 56328, Note_on_c, 0, 66, 0
2, 56333, Note_on_c, 0, 33, 0
2, 56333, Note_on_c, 0, 43, 80
2, 56333, Note_on_c, 0, 58, 80
2, 56336, Note_on_c, 0, 31, 80
2, 56393, Note_on_c, 0, 58, 0
2, 56393, Note_on_c, 0, 62, 80
2, 56398, Note_on_c, 0, 70, 0
2, 56448, Note_on_c, 0, 69, 80
2, 56451, Note_on_c, 0, 43, 0
2, 56454, Note_on_c, 0, 57, 80
2, 56457, Note_on_c, 0, 62, 0
2, 56457, Note_on_c, 0, 31, 0
2, 56457, Note_on_c, 0, 45, 80
2, 56460, Note_on_c, 0, 33, 80
2, 56506, Note_on_c, 0, 57, 0
2, 56506, Note_on_c, 0, 55, 80
2, 56511, Note_on_c, 0, 69, 0
2, 56511, Note_on_c, 0, 67, 80
2, 56572, Note_on_c, 0, 33, 0
2, 56572, Note_on_c, 0, 45, 0
2, 56577, Note_on_c, 0, 34, 80
2, 56577, Note_on_c, 0, 46, 80
2, 56616, Note_on_c, 0, 67, 0
2, 56621, Note_on_c, 0, 65, 80
2, 56631, Note_on_c, 0, 55, 0
2, 56685, Note_on_c, 0, 34, 0
2, 56685, Note_on_c, 0, 64, 80
2, 56688, Note_on_c, 0, 46, 0
2, 56688, Note_on_c, 0, 35, 80
2, 56690, Note_on_c, 0, 47, 80
2, 56695, Note_on_c, 0, 65, 0
2, 56739, Note_on_c, 0, 62, 80
2, 56752, Note_on_c, 0, 64, 0
2, 56793, Note_on_c, 0, 35, 0
2, 56798, Note_on_c, 0, 47, 0
2, 56803, Note_on_c, 0, 36, 80
2, 56803, Note_on_c, 0, 48, 80
2, 56806, Note_on_c, 0, 62, 0
2, 56869, Note_on_c, 0, 48, 0
2, 56872, Note_on_c, 0, 36, 0
2, 56872, Note_on_c, 0, 60, 80
2, 56872, Note_on_c, 0, 72, 80
2, 56923, Note_on_c, 0, 72, 0
2, 56930, Note_on_c, 0, 60, 0
2, 56933, Note_on_c, 0, 49, 80
2, 56936, Note_on_c, 0, 37, 80
2, 56990, Note_on_c, 0, 73, 80
2, 56995, Note_on_c, 0, 37, 0
2, 56995, Note_on_c, 0, 61, 80
2, 56998, Note_on_c, 0, 49, 0
2, 57048, Note_on_c, 0, 61, 0
2, 57053, Note_on_c, 0, 73, 0
2, 57056, Note_on_c, 0, 50, 80
2, 57059, Note_on_c, 0, 38, 80
2, 57113, Note_on_c, 0, 62, 80
2, 57113, Note_on_c, 0, 74, 80
2, 57116, Note_on_c, 0, 50, 0
2, 57120, Note_on_c, 0, 38, 0
2, 57177, Note_on_c, 0, 62, 0
2, 57180, Note_on_c, 0, 39, 80
2, 57180, Note_on_c, 0, 51, 80
2, 57183, Note_on_c, 0, 74, 0
2, 57237, Note_on_c, 0, 63, 80
2, 57237, Note_on_c, 0, 75, 80
2, 57241, Note_on_c, 0, 51, 0
2, 57244, Note_on_c, 0, 39, 0
2, 57295, Note_on_c, 0, 52, 80
2, 57298, Note_on_c, 0, 75, 0
2, 57298, Note_on_c, 0, 40, 80
2, 57301, Note_on_c, 0, 63, 0
2, 57358, Note_on_c, 0, 52, 0
2, 57358, Note_on_c, 0, 64, 80
2, 57358, Note_on_c, 0, 76, 80
2, 57360, Note_on_c, 0, 40, 0
2, 57417, Note_on_c, 0, 76, 0
2, 57422, Note_on_c, 0, 41, 80
2, 57425, Note_on_c, 0, 64, 0
2, 57425, Note_on_c, 0, 53, 80
2, 57476, Note_on_c, 0, 53, 0
2, 57479, Note_on_c, 0, 41, 0
2, 57479, Note_on_c, 0, 65, 80
2, 57479, Note_on_c, 0, 77, 80
2, 57535, Note_on_c, 0, 77, 0
2, 57543, Note_on_c, 0, 65, 0
2, 57546, Note_on_c, 0, 54, 80
2, 57549, Note_on_c, 0, 42, 80
2, 57598, Note_on_c, 0, 66, 80
2, 57602, Note_on_c, 0, 78, 80
2, 57605, Note_on_c, 0, 42, 0
2, 57608, Note_on_c, 0, 54, 0
2, 57665, Note_on_c, 0, 78, 0
2, 57668, Note_on_c, 0, 66, 0
2, 57671, Note_on_c, 0, 43, 80
2, 57671, Note_on_c, 0, 55, 80
2, 57724, Note_on_c, 0, 67, 80
2, 57727, Note_on_c, 0, 43, 0
2, 57730, Note_on_c, 0, 79, 80
2, 57733, Note_on_c, 0, 55, 0
2, 57784, Note_on_c, 0, 67, 0
2, 57784, Note_on_c, 0, 64, 80
2, 57789, Note_on_c, 0, 79, 0
2, 57792, Note_on_c, 0, 43, 80
2, 57792, Note_on_c, 0, 55, 80
2, 57792, Note_on_c, 0, 76, 80
2, 57838, Note_on_c, 0, 76, 0
2, 57842, Note_on_c, 0, 64, 0
2, 57845, Note_on_c, 0, 70, 80
2, 57896, Note_on_c, 0, 43, 0
2, 57899, Note_on_c, 0, 52, 80
2, 57899, Note_on_c, 0, 58, 80
2, 57902, Note_on_c, 0, 70, 0
2, 57902, Note_on_c, 0, 72, 80
2, 57905, Note_on_c, 0, 55, 0
2, 57905, Note_on_c, 0, 48, 80
2, 57961, Note_on_c, 0, 72, 0
2, 57961, Note_on_c, 0, 76, 80
2, 57964, Note_on_c, 0, 64, 80
2, 58010, Note_on_c, 0, 48, 0
2, 58010, Note_on_c, 0, 52, 0
2, 58015, Note_on_c, 0, 58, 0
2, 58015, Note_on_c, 0, 43, 80
2, 58018, Note_on_c, 0, 55, 80
2, 58077, Note_on_c, 0, 76, 0
2, 58080, Note_on_c, 0, 70, 80
2, 58082, Note_on_c, 0, 64, 0
2, 58133, Note_on_c, 0, 43, 0
2, 58133, Note_on_c, 0, 74, 80
2, 58136, Note_on_c, 0, 70, 0
2, 58136, Note_on_c, 0, 44, 80
2, 58136, Note_on_c, 0, 62, 80
2, 58144, Note_on_c, 0, 55, 0
2, 58144, Note_on_c, 0, 56, 80
2, 58195, Note_on_c, 0, 70, 80
2, 58202, Note_on_c, 0, 74, 0
2, 58210, Note_on_c, 0, 62, 0
2, 58251, Note_on_c, 0, 56, 0
2, 58254, Note_on_c, 0, 44, 0
2, 58257, Note_on_c, 0, 70, 0
2, 58257, Note_on_c, 0, 57, 80
2, 58257, Note_on_c, 0, 60, 80
2, 58262, Note_on_c, 0, 72, 80
2, 58265, Note_on_c, 0, 45, 80
2, 58304, Note_on_c, 0, 60, 0
2, 58312, Note_on_c, 0, 72, 0
2, 58312, Note_on_c, 0, 65, 80
2, 58315, Note_on_c, 0, 57, 0
2, 58376, Note_on_c, 0, 45, 0
2, 58376, Note_on_c, 0, 69, 80
2, 58379, Note_on_c, 0, 65, 0
2, 58382, Note_on_c, 0, 48, 80
2, 58382, Note_on_c, 0, 53, 80
2, 58382, Note_on_c, 0, 57, 80
2, 58436, Note_on_c, 0, 69, 0
2, 58440, Note_on_c, 0, 72, 80
2, 58443, Note_on_c, 0, 53, 0
2, 58443, Note_on_c, 0, 60, 80
2, 58492, Note_on_c, 0, 48, 0
2, 58497, Note_on_c, 0, 57, 0
2, 58497, Note_on_c, 0, 53, 80
2, 58502, Note_on_c, 0, 41, 80
2, 58551, Note_on_c, 0, 72, 0
2, 58563, Note_on_c, 0, 60, 0
2, 58563, Note_on_c, 0, 69, 80
2, 58614, Note_on_c, 0, 53, 0
2, 58617, Note_on_c, 0, 69, 0
2, 58617, Note_on_c, 0, 41, 0
2, 58617, Note_on_c, 0, 62, 80
2, 58620, Note_on_c, 0, 42, 80
2, 58620, Note_on_c, 0, 74, 80
2, 58625, Note_on_c, 0, 54, 80
2, 58676, Note_on_c, 0, 74, 0
2, 58679, Note_on_c, 0, 69, 80
2, 58683, Note_on_c, 0, 62, 0
2, 58725, Note_on_c, 0, 54, 0
2, 58729, Note_on_c, 0, 42, 0
2, 58729, Note_on_c, 0, 69, 0
2, 58732, Note_on_c, 0, 55, 80
2, 58732, Note_on_c, 0, 64, 80
2, 58735, Note_on_c, 0, 43, 80
2, 58738, Note_on_c, 0, 76, 80
2, 58784, Note_on_c, 0, 64, 0
2, 58784, Note_on_c, 0, 70, 80
2, 58789, Note_on_c, 0, 76, 0
2, 58848, Note_on_c, 0, 55, 0
2, 58852, Note_on_c, 0, 48, 80
2, 58852, Note_on_c, 0, 52, 80
2, 58852, Note_on_c, 0, 58, 80
2, 58855, Note_on_c, 0, 43, 0
2, 58855, Note_on_c, 0, 72, 80
2, 58858, Note_on_c, 0, 70, 0
2, 58904, Note_on_c, 0, 64, 80
2, 58909, Note_on_c, 0, 72, 0
2, 58919, Note_on_c, 0, 76, 80
2, 58963, Note_on_c, 0, 48, 0
2, 58966, Note_on_c, 0, 52, 0
2, 58968, Note_on_c, 0, 55, 80
2, 58971, Note_on_c, 0, 58, 0
2, 58974, Note_on_c, 0, 43, 80
2, 59025, Note_on_c, 0, 76, 0
2, 59025, Note_on_c, 0, 70, 80
2, 59028, Note_on_c, 0, 64, 0
2, 59074, Note_on_c, 0, 70, 0
2, 59082, Note_on_c, 0, 56, 80
2, 59082, Note_on_c, 0, 62, 80
2, 59085, Note_on_c, 0, 43, 0
2, 59085, Note_on_c, 0, 44, 80
2, 59085, Note_on_c, 0, 74, 80
2, 59088, Note_on_c, 0, 55, 0
2, 59136, Note_on_c, 0, 74, 0
2, 59144, Note_on_c, 0, 70, 80
2, 59152, Note_on_c, 0, 62, 0
2, 59188, Note_on_c, 0, 56, 0
2, 59191, Note_on_c, 0, 72, 80
2, 59194, Note_on_c, 0, 70, 0
2, 59194, Note_on_c, 0, 57, 80
2, 59194, Note_on_c, 0, 60, 80
2, 59199, Note_on_c, 0, 45, 80
2, 59202, Note_on_c, 0, 44, 0
2, 59248, Note_on_c, 0, 72, 0
2, 59257, Note_on_c, 0, 57, 0
2, 59257, Note_on_c, 0, 65, 80
2, 59260, Note_on_c, 0, 60, 0
2, 59306, Note_on_c, 0, 45, 0
2, 59319, Note_on_c, 0, 53, 80
2, 59322, Note_on_c, 0, 48, 80
2, 59325, Note_on_c, 0, 65, 0
2, 59325, Note_on_c, 0, 69, 80
2, 59328, Note_on_c, 0, 57, 80
2, 59381, Note_on_c, 0, 69, 0
2, 59381, Note_on_c, 0, 53, 0
2, 59381, Note_on_c, 0, 60, 80
2, 59384, Note_on_c, 0, 72, 80
2, 59438, Note_on_c, 0, 48, 0
2, 59438, Note_on_c, 0, 53, 80
2, 59441, Note_on_c, 0, 57, 0
2, 59444, Note_on_c, 0, 41, 80
2, 59490, Note_on_c, 0, 72, 0
2, 59493, Note_on_c, 0, 60, 0
2, 59496, Note_on_c, 0, 69, 80
2, 59546, Note_on_c, 0, 53, 0
2, 59551, Note_on_c, 0, 52, 80
2, 59556, Note_on_c, 0, 69, 0
2, 59556, Note_on_c, 0, 61, 80
2, 59559, Note_on_c, 0, 40, 80
2, 59562, Note_on_c, 0, 41, 0
2, 59562, Note_on_c, 0, 73, 80
2, 59623, Note_on_c, 0, 73, 0
2, 59623, Note_on_c, 0, 67, 80
2, 59626, Note_on_c, 0, 61, 0
2, 59677, Note_on_c, 0, 52, 0
2, 59677, Note_on_c, 0, 38, 80
2, 59677, Note_on_c, 0, 50, 80
2, 59677, Note_on_c, 0, 62, 80
2, 59680, Note_on_c, 0, 40, 0
2, 59680, Note_on_c, 0, 67, 0
2, 59680, Note_on_c, 0, 74, 80
2, 59738, Note_on_c, 0, 50, 0
2, 59741, Note_on_c, 0, 74, 0
2, 59741, Note_on_c, 0, 66, 80
2, 59749, Note_on_c, 0, 62, 0
2, 59793, Note_on_c, 0, 66, 0
2, 59798, Note_on_c, 0, 38, 0
2, 59798, Note_on_c, 0, 50, 80
2, 59798, Note_on_c, 0, 69, 80
2, 59801, Note_on_c, 0, 54, 80
2, 59801, Note_on_c, 0, 60, 80
2, 59815, Note_on_c, 0, 60, 0
2, 59859, Note_on_c, 0, 69, 0
2, 59862, Note_on_c, 0, 50, 0
2, 59865, Note_on_c, 0, 72, 80
2, 59868, Note_on_c, 0, 60, 80
2, 59912, Note_on_c, 0, 54, 0
2, 59920, Note_on_c, 0, 38, 80
2, 59925, Note_on_c, 0, 50, 80
2, 59976, Note_on_c, 0, 60, 0
2, 59978, Note_on_c, 0, 50, 0
2, 59978, Note_on_c, 0, 48, 80
2, 59978, Note_on_c, 0, 66, 80
2, 59981, Note_on_c, 0, 72, 0
2, 59981, Note_on_c, 0, 36, 80
2, 59986, Note_on_c, 0, 38, 0
2, 60037, Note_on_c, 0, 62, 80
2, 60037, Note_on_c, 0, 74, 80
2, 60040, Note_on_c, 0, 66, 0
2, 60040, Note_on_c, 0, 46, 80
2, 60043, Note_on_c, 0, 36, 0
2, 60043, Note_on_c, 0, 48, 0
2, 60048, Note_on_c, 0, 34, 80
2, 60096, Note_on_c, 0, 46, 0
2, 60099, Note_on_c, 0, 74, 0
2, 60099, Note_on_c, 0, 66, 80
2, 60102, Note_on_c, 0, 45, 80
2, 60105, Note_on_c, 0, 34, 0
2, 60105, Note_on_c, 0, 33, 80
2, 60108, Note_on_c, 0, 62, 0
2, 60165, Note_on_c, 0, 66, 0
2, 60165, Note_on_c, 0, 58, 80
2, 60165, Note_on_c, 0, 70, 80
2, 60168, Note_on_c, 0, 45, 0
2, 60170, Note_on_c, 0, 33, 0
2, 60170, Note_on_c, 0, 31, 80
2, 60170, Note_on_c, 0, 43, 80
2, 60227, Note_on_c, 0, 58, 0
2, 60227, Note_on_c, 0, 70, 0
2, 60230, Note_on_c, 0, 62, 80
2, 60281, Note_on_c, 0, 31, 0
2, 60281, Note_on_c, 0, 43, 0
2, 60281, Note_on_c, 0, 69, 80
2, 60284, Note_on_c, 0, 45, 80
2, 60287, Note_on_c, 0, 57, 80
2, 60289, Note_on_c, 0, 62, 0
2, 60289, Note_on_c, 0, 33, 80
2, 60348, Note_on_c, 0, 69, 0
2, 60351, Note_on_c, 0, 57, 0
2, 60351, Note_on_c, 0, 55, 80
2, 60356, Note_on_c, 0, 67, 80
2, 60405, Note_on_c, 0, 67, 0
2, 60405, Note_on_c, 0, 45, 0
2, 60408, Note_on_c, 0, 33, 0
2, 60410, Note_on_c, 0, 46, 80
2, 60413, Note_on_c, 0, 34, 80
2, 60475, Note_on_c, 0, 67, 80
2, 60478, Note_on_c, 0, 55, 0
2, 60524, Note_on_c, 0, 34, 0
2, 60528, Note_on_c, 0, 46, 0
2, 60531, Note_on_c, 0, 67, 0
2, 60534, Note_on_c, 0, 37, 80
2, 60537, Note_on_c, 0, 69, 80
2, 60540, Note_on_c, 0, 49, 80
2, 60589, Note_on_c, 0, 69, 0
2, 60589, Note_on_c, 0, 70, 80
2, 60655, Note_on_c, 0, 70, 0
2, 60655, Note_on_c, 0, 60, 80
2, 60655, Note_on_c, 0, 72, 80
2, 60660, Note_on_c, 0, 37, 0
2, 60660, Note_on_c, 0, 48, 80
2, 60660, Note_on_c, 0, 69, 80
2, 60665, Note_on_c, 0, 49, 0
2, 60665, Note_on_c, 0, 36, 80
2, 60714, Note_on_c, 0, 72, 0
2, 60714, Note_on_c, 0, 69, 0
2, 60714, Note_on_c, 0, 65, 80
2, 60717, Note_on_c, 0, 60, 0
2, 60768, Note_on_c, 0, 36, 0
2, 60772, Note_on_c, 0, 48, 0
2, 60772, Note_on_c, 0, 37, 80
2, 60775, Note_on_c, 0, 65, 0
2, 60775, Note_on_c, 0, 67, 80
2, 60778, Note_on_c, 0, 49, 80
2, 60832, Note_on_c, 0, 67, 0
2, 60832, Note_on_c, 0, 59, 80
2, 60837, Note_on_c, 0, 69, 80
2, 60888, Note_on_c, 0, 49, 0
2, 60890, Note_on_c, 0, 37, 0
2, 60893, Note_on_c, 0, 38, 80
2, 60898, Note_on_c, 0, 50, 80
2, 60949, Note_on_c, 0, 59, 0
2, 60949, Note_on_c, 0, 69, 0
2, 60954, Note_on_c, 0, 65, 80
2, 61010, Note_on_c, 0, 38, 0
2, 61010, Note_on_c, 0, 58, 80
2, 61013, Note_on_c, 0, 50, 0
2, 61013, Note_on_c, 0, 40, 80
2, 61013, Note_on_c, 0, 52, 80
2, 61016, Note_on_c, 0, 65, 0
2, 61016, Note_on_c, 0, 67, 80
2, 61062, Note_on_c, 0, 67, 0
2, 61062, Note_on_c, 0, 65, 80
2, 61065, Note_on_c, 0, 58, 0
2, 61068, Note_on_c, 0, 57, 80
2, 61125, Note_on_c, 0, 52, 0
2, 61128, Note_on_c, 0, 40, 0
2, 61130, Note_on_c, 0, 41, 80
2, 61130, Note_on_c, 0, 53, 80
2, 61243, Note_on_c, 0, 41, 0
2, 61243, Note_on_c, 0, 57, 0
2, 61243, Note_on_c, 0, 65, 0
2, 61246, Note_on_c, 0, 53, 0
2, 61361, Note_on_c, 0, 72, 80
2, 61366, Note_on_c, 0, 65, 80
2, 61366, Note_on_c, 0, 69, 80
2, 61366, Note_on_c, 0, 77, 80
2, 61370, Note_on_c, 0, 41, 80
2, 61375, Note_on_c, 0, 29, 80
2, 61595, Note_on_c, 0, 69, 0
2, 61600, Note_on_c, 0, 41, 0
2, 61600, Note_on_c, 0, 72, 0
2, 61600, Note_on_c, 0, 65, 0
2, 61605, Note_on_c, 0, 77, 0
2, 61608, Note_on_c, 0, 29, 0
2, 61608, End_track
3, 0, Start_track
3, 0, Title_t, "c/b Joe Lamb"
3, 0, End_track
4, 0, Start_track
4, 0, Title_t, "p/b Joe Lamb"
4, 0, End_track
5, 0, Start_track
5, 0, Title_t, "Drake # 461"
5, 0, End_track
6, 0, Start_track
6, 0, Title_t, "Scan of a player piano roll"
6, 0, End_track
7, 0, Start_track
7, 0, Title_t, "by Terry Smythe, Winnipeg, Canada"
7, 0, End_track
8, 0, Start_track
8, 1, Copyright_t, "___________________________________________________\012\012KUNSTDERFUGE.COM LARGE CLASSICAL MIDI COLLECTION\012ONCLASSICAL BY ALESSANDRO SIMONETTO, PROPRIETOR\012___________________________________________________\012\012! Attention: this file is under copyright !\012\012(c)onclassical, (nc)smythe, 2010\012___________________________________________________\012\012NO ONE MAY REPUBLISH THIS FILE WITHOUT PERMISSION\012COMMERCIAL USES OF THIS FILE IS STRICTLY PROHIBITED\012___________________________________________________\012\012Files & contributor's list: http://kunstderfuge.com/\012Terms and conditions: http://kunstderfuge.com/notes.htm"
8, 1, End_track
0, 0, End_of_file
