0, 0, Header, 1, 8, 192
1, 0, Start_track
1, 0, Title_t, "9595S"
1, 0, Copyright_t, "May NOT be used for commercial purposes."
1, 0, Text_t, "Roll expression/accent tracks, where present, converted to MIDI velocties.\012"
1, 0, Text_t, "/roll_number: 9595\012"
1, 0, Text_t, "/title: King Porter Stomp\012"
1, 0, Text_t, "/composer: Ferdinand ""Jelly Roll"" Morton\012"
1, 0, Text_t, "/pianist: J. Lawrence Cook\012"
1, 0, Text_t, "/copyright_year: 1924\012"
1, 0, Text_t, "/roll_type: 88n\012"
1, 0, Text_t, " \012"
1, 0, Time_signature, 4, 2, 24, 8
1, 0, Key_signature, 0, "major"
1, 0, Tempo, 500000
1, 0, Marker_t, "Standard MIDI:LPI 124:Tempo  75: 06-21-2004"
1, 0, End_track
2, 0, Start_track
2, 0, Title_t, "King Porter Stomp (1924)"
2, 10, Control_c, 0, 64, 127
2, 186, Control_c, 0, 64, 0
2, 310, Note_on_c, 0, 63, 80
2, 310, Note_on_c, 0, 72, 80
2, 310, Note_on_c, 0, 84, 80
2, 312, Note_on_c, 0, 68, 80
2, 347, Note_on_c, 0, 84, 0
2, 358, Note_on_c, 0, 85, 80
2, 393, Note_on_c, 0, 85, 0
2, 402, Note_on_c, 0, 84, 80
2, 441, Note_on_c, 0, 84, 0
2, 441, Note_on_c, 0, 63, 0
2, 441, Note_on_c, 0, 72, 0
2, 441, Note_on_c, 0, 68, 0
2, 447, Note_on_c, 0, 83, 80
2, 529, Note_on_c, 0, 83, 0
2, 535, Note_on_c, 0, 84, 80
2, 573, Note_on_c, 0, 84, 0
2, 581, Note_on_c, 0, 62, 80
2, 581, Note_on_c, 0, 68, 80
2, 581, Note_on_c, 0, 71, 80
2, 581, Note_on_c, 0, 79, 80
2, 581, Note_on_c, 0, 86, 80
2, 581, Note_on_c, 0, 91, 80
2, 621, Note_on_c, 0, 86, 0
2, 623, Note_on_c, 0, 79, 0
2, 623, Note_on_c, 0, 91, 0
2, 674, Note_on_c, 0, 77, 80
2, 674, Note_on_c, 0, 86, 80
2, 674, Note_on_c, 0, 89, 80
2, 802, Note_on_c, 0, 89, 0
2, 802, Note_on_c, 0, 71, 0
2, 802, Note_on_c, 0, 62, 0
2, 802, Note_on_c, 0, 68, 0
2, 802, Note_on_c, 0, 86, 0
2, 802, Note_on_c, 0, 77, 0
2, 858, Note_on_c, 0, 51, 80
2, 858, Note_on_c, 0, 56, 80
2, 858, Note_on_c, 0, 60, 80
2, 858, Note_on_c, 0, 72, 80
2, 899, Note_on_c, 0, 72, 0
2, 905, Note_on_c, 0, 73, 80
2, 944, Note_on_c, 0, 73, 0
2, 953, Note_on_c, 0, 72, 80
2, 1000, Note_on_c, 0, 60, 0
2, 1002, Note_on_c, 0, 51, 0
2, 1002, Note_on_c, 0, 56, 0
2, 1002, Note_on_c, 0, 72, 0
2, 1020, Note_on_c, 0, 71, 80
2, 1106, Note_on_c, 0, 71, 0
2, 1110, Note_on_c, 0, 72, 80
2, 1152, Note_on_c, 0, 72, 0
2, 1157, Note_on_c, 0, 50, 80
2, 1157, Note_on_c, 0, 56, 80
2, 1157, Note_on_c, 0, 59, 80
2, 1157, Note_on_c, 0, 67, 80
2, 1157, Note_on_c, 0, 74, 80
2, 1157, Note_on_c, 0, 79, 80
2, 1195, Note_on_c, 0, 79, 0
2, 1195, Note_on_c, 0, 67, 0
2, 1197, Note_on_c, 0, 74, 0
2, 1250, Note_on_c, 0, 65, 80
2, 1250, Note_on_c, 0, 74, 80
2, 1250, Note_on_c, 0, 77, 80
2, 1372, Note_on_c, 0, 77, 0
2, 1372, Note_on_c, 0, 56, 0
2, 1372, Note_on_c, 0, 50, 0
2, 1372, Note_on_c, 0, 59, 0
2, 1372, Note_on_c, 0, 74, 0
2, 1372, Note_on_c, 0, 65, 0
2, 1428, Note_on_c, 0, 73, 80
2, 1428, Note_on_c, 0, 79, 80
2, 1430, Note_on_c, 0, 63, 80
2, 1430, Note_on_c, 0, 70, 80
2, 1475, Note_on_c, 0, 70, 0
2, 1477, Note_on_c, 0, 73, 0
2, 1510, Note_on_c, 0, 79, 0
2, 1518, Note_on_c, 0, 82, 80
2, 1558, Note_on_c, 0, 82, 0
2, 1558, Note_on_c, 0, 63, 0
2, 1560, Note_on_c, 0, 73, 80
2, 1561, Note_on_c, 0, 64, 80
2, 1561, Note_on_c, 0, 70, 80
2, 1561, Note_on_c, 0, 78, 80
2, 1611, Note_on_c, 0, 70, 0
2, 1611, Note_on_c, 0, 73, 0
2, 1647, Note_on_c, 0, 78, 0
2, 1656, Note_on_c, 0, 82, 80
2, 1693, Note_on_c, 0, 82, 0
2, 1693, Note_on_c, 0, 64, 0
2, 1702, Note_on_c, 0, 65, 80
2, 1702, Note_on_c, 0, 70, 80
2, 1702, Note_on_c, 0, 73, 80
2, 1702, Note_on_c, 0, 77, 80
2, 1749, Note_on_c, 0, 70, 0
2, 1784, Note_on_c, 0, 77, 0
2, 1790, Note_on_c, 0, 82, 80
2, 1794, Note_on_c, 0, 73, 0
2, 1829, Note_on_c, 0, 82, 0
2, 1829, Note_on_c, 0, 65, 0
2, 1835, Note_on_c, 0, 73, 80
2, 1835, Note_on_c, 0, 76, 80
2, 1837, Note_on_c, 0, 66, 80
2, 1837, Note_on_c, 0, 70, 80
2, 1918, Note_on_c, 0, 70, 0
2, 1918, Note_on_c, 0, 73, 0
2, 1921, Note_on_c, 0, 76, 0
2, 1925, Note_on_c, 0, 82, 80
2, 1963, Note_on_c, 0, 82, 0
2, 1963, Note_on_c, 0, 66, 0
2, 1968, Note_on_c, 0, 67, 80
2, 1968, Note_on_c, 0, 70, 80
2, 1968, Note_on_c, 0, 73, 80
2, 1968, Note_on_c, 0, 75, 80
2, 2020, Note_on_c, 0, 75, 0
2, 2020, Note_on_c, 0, 67, 0
2, 2020, Note_on_c, 0, 70, 0
2, 2020, Note_on_c, 0, 73, 0
2, 2245, Note_on_c, 0, 39, 80
2, 2245, Note_on_c, 0, 46, 80
2, 2245, Note_on_c, 0, 55, 80
2, 2245, Note_on_c, 0, 73, 80
2, 2245, Note_on_c, 0, 79, 80
2, 2245, Note_on_c, 0, 87, 80
2, 2247, Control_c, 0, 64, 127
2, 2358, Control_c, 0, 64, 0
2, 2381, Note_on_c, 0, 87, 0
2, 2381, Note_on_c, 0, 46, 0
2, 2381, Note_on_c, 0, 55, 0
2, 2381, Note_on_c, 0, 39, 0
2, 2381, Note_on_c, 0, 79, 0
2, 2381, Note_on_c, 0, 73, 0
2, 2514, Note_on_c, 0, 63, 80
2, 2514, Note_on_c, 0, 44, 80
2, 2514, Note_on_c, 0, 51, 80
2, 2514, Note_on_c, 0, 60, 80
2, 2559, Note_on_c, 0, 60, 0
2, 2559, Note_on_c, 0, 63, 0
2, 2559, Note_on_c, 0, 44, 0
2, 2559, Note_on_c, 0, 51, 0
2, 2650, Note_on_c, 0, 63, 80
2, 2652, Note_on_c, 0, 44, 80
2, 2652, Note_on_c, 0, 51, 80
2, 2652, Note_on_c, 0, 60, 80
2, 2733, Note_on_c, 0, 60, 0
2, 2733, Note_on_c, 0, 63, 0
2, 2733, Note_on_c, 0, 44, 0
2, 2733, Note_on_c, 0, 51, 0
2, 2741, Note_on_c, 0, 65, 80
2, 2779, Note_on_c, 0, 65, 0
2, 2787, Note_on_c, 0, 51, 80
2, 2787, Note_on_c, 0, 60, 80
2, 2787, Note_on_c, 0, 63, 80
2, 2789, Note_on_c, 0, 44, 80
2, 2870, Note_on_c, 0, 63, 0
2, 2880, Note_on_c, 0, 65, 80
2, 2918, Note_on_c, 0, 65, 0
2, 2918, Note_on_c, 0, 44, 0
2, 2918, Note_on_c, 0, 60, 0
2, 2918, Note_on_c, 0, 51, 0
2, 2924, Note_on_c, 0, 42, 80
2, 2924, Note_on_c, 0, 49, 80
2, 2924, Note_on_c, 0, 58, 80
2, 2924, Note_on_c, 0, 63, 80
2, 3008, Note_on_c, 0, 63, 0
2, 3058, Note_on_c, 0, 42, 0
2, 3058, Note_on_c, 0, 49, 0
2, 3058, Note_on_c, 0, 58, 0
2, 3067, Note_on_c, 0, 41, 80
2, 3067, Note_on_c, 0, 48, 80
2, 3067, Note_on_c, 0, 57, 80
2, 3067, Note_on_c, 0, 63, 80
2, 3114, Note_on_c, 0, 63, 0
2, 3114, Note_on_c, 0, 57, 0
2, 3116, Note_on_c, 0, 48, 0
2, 3116, Note_on_c, 0, 41, 0
2, 3204, Note_on_c, 0, 41, 80
2, 3204, Note_on_c, 0, 48, 80
2, 3204, Note_on_c, 0, 57, 80
2, 3204, Note_on_c, 0, 63, 80
2, 3288, Note_on_c, 0, 63, 0
2, 3288, Note_on_c, 0, 57, 0
2, 3288, Note_on_c, 0, 48, 0
2, 3290, Note_on_c, 0, 41, 0
2, 3296, Note_on_c, 0, 65, 80
2, 3336, Note_on_c, 0, 65, 0
2, 3344, Note_on_c, 0, 48, 80
2, 3344, Note_on_c, 0, 57, 80
2, 3344, Note_on_c, 0, 63, 80
2, 3346, Note_on_c, 0, 41, 80
2, 3429, Note_on_c, 0, 41, 0
2, 3429, Note_on_c, 0, 48, 0
2, 3429, Note_on_c, 0, 57, 0
2, 3429, Note_on_c, 0, 63, 0
2, 3434, Note_on_c, 0, 65, 80
2, 3474, Note_on_c, 0, 65, 0
2, 3480, Note_on_c, 0, 63, 80
2, 3481, Note_on_c, 0, 41, 80
2, 3481, Note_on_c, 0, 48, 80
2, 3481, Note_on_c, 0, 57, 80
2, 3564, Note_on_c, 0, 57, 0
2, 3564, Note_on_c, 0, 63, 0
2, 3564, Note_on_c, 0, 41, 0
2, 3564, Note_on_c, 0, 48, 0
2, 3616, Note_on_c, 0, 34, 80
2, 3616, Note_on_c, 0, 46, 80
2, 3666, Note_on_c, 0, 46, 0
2, 3666, Note_on_c, 0, 34, 0
2, 3705, Note_on_c, 0, 70, 80
2, 3743, Note_on_c, 0, 70, 0
2, 3751, Note_on_c, 0, 58, 80
2, 3751, Note_on_c, 0, 69, 80
2, 3753, Note_on_c, 0, 53, 80
2, 3753, Note_on_c, 0, 61, 80
2, 3778, Note_on_c, 0, 61, 0
2, 3778, Note_on_c, 0, 58, 0
2, 3780, Note_on_c, 0, 53, 0
2, 3834, Note_on_c, 0, 69, 0
2, 3842, Note_on_c, 0, 70, 80
2, 3882, Note_on_c, 0, 70, 0
2, 3890, Note_on_c, 0, 46, 80
2, 3890, Note_on_c, 0, 58, 80
2, 3890, Note_on_c, 0, 73, 80
2, 3890, Note_on_c, 0, 79, 80
2, 3937, Note_on_c, 0, 58, 0
2, 3937, Note_on_c, 0, 46, 0
2, 4024, Note_on_c, 0, 53, 80
2, 4024, Note_on_c, 0, 58, 80
2, 4024, Note_on_c, 0, 61, 80
2, 4047, Note_on_c, 0, 61, 0
2, 4047, Note_on_c, 0, 58, 0
2, 4049, Note_on_c, 0, 53, 0
2, 4057, Note_on_c, 0, 73, 0
2, 4104, Note_on_c, 0, 79, 0
2, 4113, Note_on_c, 0, 73, 80
2, 4113, Note_on_c, 0, 77, 80
2, 4151, Note_on_c, 0, 77, 0
2, 4151, Note_on_c, 0, 73, 0
2, 4161, Note_on_c, 0, 49, 80
2, 4161, Note_on_c, 0, 61, 80
2, 4161, Note_on_c, 0, 69, 80
2, 4197, Note_on_c, 0, 69, 0
2, 4209, Note_on_c, 0, 61, 0
2, 4209, Note_on_c, 0, 49, 0
2, 4252, Note_on_c, 0, 70, 80
2, 4296, Note_on_c, 0, 58, 80
2, 4296, Note_on_c, 0, 61, 80
2, 4297, Note_on_c, 0, 53, 80
2, 4322, Note_on_c, 0, 61, 0
2, 4322, Note_on_c, 0, 58, 0
2, 4326, Note_on_c, 0, 53, 0
2, 4380, Note_on_c, 0, 70, 0
2, 4384, Note_on_c, 0, 79, 80
2, 4386, Note_on_c, 0, 73, 80
2, 4431, Note_on_c, 0, 46, 80
2, 4431, Note_on_c, 0, 58, 80
2, 4433, Control_c, 0, 64, 127
2, 4480, Note_on_c, 0, 58, 0
2, 4482, Note_on_c, 0, 46, 0
2, 4482, Control_c, 0, 64, 0
2, 4512, Note_on_c, 0, 73, 0
2, 4512, Note_on_c, 0, 79, 0
2, 4521, Note_on_c, 0, 77, 80
2, 4559, Note_on_c, 0, 77, 0
2, 4567, Note_on_c, 0, 73, 80
2, 4569, Note_on_c, 0, 53, 80
2, 4569, Note_on_c, 0, 58, 80
2, 4569, Note_on_c, 0, 61, 80
2, 4594, Note_on_c, 0, 61, 0
2, 4594, Note_on_c, 0, 58, 0
2, 4596, Note_on_c, 0, 53, 0
2, 4650, Note_on_c, 0, 73, 0
2, 4658, Note_on_c, 0, 70, 80
2, 4696, Note_on_c, 0, 70, 0
2, 4704, Note_on_c, 0, 39, 80
2, 4704, Note_on_c, 0, 51, 80
2, 4752, Note_on_c, 0, 51, 0
2, 4753, Note_on_c, 0, 39, 0
2, 4795, Note_on_c, 0, 67, 80
2, 4832, Note_on_c, 0, 67, 0
2, 4838, Note_on_c, 0, 66, 80
2, 4840, Note_on_c, 0, 51, 80
2, 4840, Note_on_c, 0, 55, 80
2, 4840, Note_on_c, 0, 61, 80
2, 4867, Note_on_c, 0, 61, 0
2, 4867, Note_on_c, 0, 55, 0
2, 4867, Note_on_c, 0, 51, 0
2, 4920, Note_on_c, 0, 66, 0
2, 4931, Note_on_c, 0, 67, 80
2, 4945, Note_on_c, 0, 67, 0
2, 4972, Note_on_c, 0, 46, 80
2, 4972, Note_on_c, 0, 58, 80
2, 4972, Note_on_c, 0, 67, 80
2, 4972, Note_on_c, 0, 73, 80
2, 4972, Note_on_c, 0, 77, 80
2, 5008, Note_on_c, 0, 77, 0
2, 5010, Note_on_c, 0, 67, 0
2, 5010, Note_on_c, 0, 73, 0
2, 5020, Note_on_c, 0, 58, 0
2, 5020, Note_on_c, 0, 46, 0
2, 5062, Note_on_c, 0, 67, 80
2, 5062, Note_on_c, 0, 73, 80
2, 5062, Note_on_c, 0, 75, 80
2, 5109, Note_on_c, 0, 55, 80
2, 5109, Note_on_c, 0, 61, 80
2, 5111, Note_on_c, 0, 51, 80
2, 5136, Note_on_c, 0, 51, 0
2, 5136, Note_on_c, 0, 55, 0
2, 5136, Note_on_c, 0, 61, 0
2, 5191, Note_on_c, 0, 67, 0
2, 5191, Note_on_c, 0, 75, 0
2, 5191, Note_on_c, 0, 73, 0
2, 5243, Note_on_c, 0, 39, 80
2, 5243, Note_on_c, 0, 66, 80
2, 5245, Note_on_c, 0, 51, 80
2, 5282, Note_on_c, 0, 66, 0
2, 5295, Note_on_c, 0, 51, 0
2, 5295, Note_on_c, 0, 39, 0
2, 5338, Note_on_c, 0, 67, 80
2, 5385, Note_on_c, 0, 51, 80
2, 5385, Note_on_c, 0, 55, 80
2, 5385, Note_on_c, 0, 61, 80
2, 5412, Note_on_c, 0, 61, 0
2, 5412, Note_on_c, 0, 55, 0
2, 5412, Note_on_c, 0, 51, 0
2, 5470, Note_on_c, 0, 67, 0
2, 5523, Note_on_c, 0, 58, 80
2, 5523, Note_on_c, 0, 73, 80
2, 5523, Note_on_c, 0, 77, 80
2, 5525, Note_on_c, 0, 46, 80
2, 5525, Note_on_c, 0, 67, 80
2, 5561, Note_on_c, 0, 67, 0
2, 5561, Note_on_c, 0, 77, 0
2, 5561, Note_on_c, 0, 73, 0
2, 5573, Note_on_c, 0, 58, 0
2, 5575, Note_on_c, 0, 46, 0
2, 5615, Note_on_c, 0, 75, 80
2, 5616, Note_on_c, 0, 67, 80
2, 5616, Note_on_c, 0, 73, 80
2, 5662, Note_on_c, 0, 51, 80
2, 5662, Note_on_c, 0, 55, 80
2, 5662, Note_on_c, 0, 58, 80
2, 5662, Note_on_c, 0, 61, 80
2, 5688, Note_on_c, 0, 61, 0
2, 5688, Note_on_c, 0, 55, 0
2, 5688, Note_on_c, 0, 51, 0
2, 5688, Note_on_c, 0, 58, 0
2, 5746, Note_on_c, 0, 75, 0
2, 5746, Note_on_c, 0, 73, 0
2, 5746, Note_on_c, 0, 67, 0
2, 5802, Note_on_c, 0, 56, 80
2, 5804, Note_on_c, 0, 44, 80
2, 5884, Note_on_c, 0, 44, 0
2, 5884, Note_on_c, 0, 56, 0
2, 5893, Note_on_c, 0, 72, 80
2, 5932, Note_on_c, 0, 72, 0
2, 5941, Note_on_c, 0, 51, 80
2, 5941, Note_on_c, 0, 56, 80
2, 5941, Note_on_c, 0, 60, 80
2, 5941, Note_on_c, 0, 71, 80
2, 5968, Note_on_c, 0, 60, 0
2, 5970, Note_on_c, 0, 51, 0
2, 5970, Note_on_c, 0, 56, 0
2, 6024, Note_on_c, 0, 71, 0
2, 6032, Note_on_c, 0, 72, 80
2, 6068, Note_on_c, 0, 72, 0
2, 6076, Note_on_c, 0, 48, 80
2, 6076, Note_on_c, 0, 60, 80
2, 6076, Note_on_c, 0, 68, 80
2, 6076, Note_on_c, 0, 75, 80
2, 6076, Note_on_c, 0, 79, 80
2, 6159, Note_on_c, 0, 68, 0
2, 6202, Note_on_c, 0, 79, 0
2, 6204, Note_on_c, 0, 48, 0
2, 6204, Note_on_c, 0, 60, 0
2, 6204, Note_on_c, 0, 75, 0
2, 6210, Note_on_c, 0, 68, 80
2, 6210, Note_on_c, 0, 74, 80
2, 6210, Note_on_c, 0, 77, 80
2, 6212, Note_on_c, 0, 47, 80
2, 6212, Note_on_c, 0, 59, 80
2, 6334, Note_on_c, 0, 59, 0
2, 6334, Note_on_c, 0, 77, 0
2, 6334, Note_on_c, 0, 68, 0
2, 6336, Note_on_c, 0, 74, 0
2, 6336, Note_on_c, 0, 47, 0
2, 6341, Note_on_c, 0, 58, 80
2, 6341, Note_on_c, 0, 67, 80
2, 6341, Note_on_c, 0, 75, 80
2, 6343, Note_on_c, 0, 46, 80
2, 6393, Note_on_c, 0, 46, 0
2, 6393, Note_on_c, 0, 58, 0
2, 6429, Note_on_c, 0, 75, 0
2, 6432, Note_on_c, 0, 74, 80
2, 6470, Note_on_c, 0, 74, 0
2, 6476, Note_on_c, 0, 73, 80
2, 6562, Note_on_c, 0, 73, 0
2, 6573, Note_on_c, 0, 69, 80
2, 6612, Note_on_c, 0, 69, 0
2, 6612, Note_on_c, 0, 67, 0
2, 6621, Note_on_c, 0, 61, 80
2, 6621, Note_on_c, 0, 72, 80
2, 6701, Note_on_c, 0, 72, 0
2, 6710, Note_on_c, 0, 70, 80
2, 6745, Note_on_c, 0, 70, 0
2, 6756, Note_on_c, 0, 67, 80
2, 6840, Note_on_c, 0, 67, 0
2, 6849, Note_on_c, 0, 65, 80
2, 6887, Note_on_c, 0, 65, 0
2, 6887, Note_on_c, 0, 61, 0
2, 6892, Note_on_c, 0, 60, 80
2, 6894, Note_on_c, 0, 44, 80
2, 6894, Note_on_c, 0, 51, 80
2, 6894, Note_on_c, 0, 63, 80
2, 6941, Note_on_c, 0, 60, 0
2, 6943, Note_on_c, 0, 44, 0
2, 6943, Note_on_c, 0, 51, 0
2, 6943, Note_on_c, 0, 63, 0
2, 7030, Note_on_c, 0, 44, 80
2, 7030, Note_on_c, 0, 51, 80
2, 7030, Note_on_c, 0, 60, 80
2, 7030, Note_on_c, 0, 63, 80
2, 7110, Note_on_c, 0, 63, 0
2, 7110, Note_on_c, 0, 60, 0
2, 7110, Note_on_c, 0, 51, 0
2, 7112, Note_on_c, 0, 44, 0
2, 7118, Note_on_c, 0, 65, 80
2, 7153, Note_on_c, 0, 65, 0
2, 7164, Note_on_c, 0, 44, 80
2, 7164, Note_on_c, 0, 51, 80
2, 7164, Note_on_c, 0, 60, 80
2, 7164, Note_on_c, 0, 63, 80
2, 7245, Note_on_c, 0, 63, 0
2, 7245, Note_on_c, 0, 44, 0
2, 7245, Note_on_c, 0, 51, 0
2, 7245, Note_on_c, 0, 60, 0
2, 7250, Note_on_c, 0, 65, 80
2, 7288, Note_on_c, 0, 65, 0
2, 7294, Note_on_c, 0, 42, 80
2, 7294, Note_on_c, 0, 58, 80
2, 7294, Note_on_c, 0, 63, 80
2, 7296, Note_on_c, 0, 49, 80
2, 7376, Note_on_c, 0, 63, 0
2, 7421, Note_on_c, 0, 42, 0
2, 7421, Note_on_c, 0, 58, 0
2, 7421, Note_on_c, 0, 49, 0
2, 7427, Note_on_c, 0, 41, 80
2, 7427, Note_on_c, 0, 48, 80
2, 7427, Note_on_c, 0, 57, 80
2, 7427, Note_on_c, 0, 63, 80
2, 7477, Note_on_c, 0, 63, 0
2, 7479, Note_on_c, 0, 41, 0
2, 7479, Note_on_c, 0, 48, 0
2, 7479, Note_on_c, 0, 57, 0
2, 7565, Note_on_c, 0, 41, 80
2, 7565, Note_on_c, 0, 48, 80
2, 7565, Note_on_c, 0, 57, 80
2, 7565, Note_on_c, 0, 63, 80
2, 7648, Note_on_c, 0, 57, 0
2, 7650, Note_on_c, 0, 41, 0
2, 7650, Note_on_c, 0, 48, 0
2, 7650, Note_on_c, 0, 63, 0
2, 7656, Note_on_c, 0, 65, 80
2, 7695, Note_on_c, 0, 65, 0
2, 7704, Note_on_c, 0, 41, 80
2, 7704, Note_on_c, 0, 48, 80
2, 7704, Note_on_c, 0, 57, 80
2, 7704, Note_on_c, 0, 63, 80
2, 7788, Note_on_c, 0, 63, 0
2, 7788, Note_on_c, 0, 41, 0
2, 7788, Note_on_c, 0, 48, 0
2, 7788, Note_on_c, 0, 57, 0
2, 7794, Note_on_c, 0, 65, 80
2, 7835, Note_on_c, 0, 65, 0
2, 7839, Note_on_c, 0, 63, 80
2, 7841, Note_on_c, 0, 41, 80
2, 7841, Note_on_c, 0, 48, 80
2, 7841, Note_on_c, 0, 57, 80
2, 7923, Note_on_c, 0, 57, 0
2, 7923, Note_on_c, 0, 63, 0
2, 7923, Note_on_c, 0, 41, 0
2, 7923, Note_on_c, 0, 48, 0
2, 7944, Control_c, 0, 64, 127
2, 7977, Note_on_c, 0, 34, 80
2, 7977, Note_on_c, 0, 46, 80
2, 8024, Note_on_c, 0, 46, 0
2, 8024, Note_on_c, 0, 34, 0
2, 8060, Control_c, 0, 64, 0
2, 8065, Note_on_c, 0, 70, 80
2, 8107, Note_on_c, 0, 70, 0
2, 8111, Note_on_c, 0, 58, 80
2, 8111, Note_on_c, 0, 61, 80
2, 8111, Note_on_c, 0, 69, 80
2, 8114, Note_on_c, 0, 53, 80
2, 8139, Note_on_c, 0, 58, 0
2, 8141, Note_on_c, 0, 61, 0
2, 8143, Note_on_c, 0, 53, 0
2, 8199, Note_on_c, 0, 69, 0
2, 8205, Note_on_c, 0, 70, 80
2, 8246, Note_on_c, 0, 70, 0
2, 8252, Note_on_c, 0, 46, 80
2, 8252, Note_on_c, 0, 58, 80
2, 8252, Note_on_c, 0, 73, 80
2, 8252, Note_on_c, 0, 79, 80
2, 8299, Note_on_c, 0, 58, 0
2, 8301, Note_on_c, 0, 46, 0
2, 8387, Note_on_c, 0, 53, 80
2, 8387, Note_on_c, 0, 58, 80
2, 8387, Note_on_c, 0, 61, 80
2, 8414, Note_on_c, 0, 61, 0
2, 8414, Note_on_c, 0, 58, 0
2, 8416, Note_on_c, 0, 53, 0
2, 8424, Note_on_c, 0, 73, 0
2, 8470, Note_on_c, 0, 79, 0
2, 8475, Note_on_c, 0, 73, 80
2, 8475, Note_on_c, 0, 77, 80
2, 8513, Note_on_c, 0, 77, 0
2, 8513, Note_on_c, 0, 73, 0
2, 8519, Note_on_c, 0, 49, 80
2, 8519, Note_on_c, 0, 69, 80
2, 8520, Note_on_c, 0, 61, 80
2, 8556, Note_on_c, 0, 69, 0
2, 8568, Note_on_c, 0, 61, 0
2, 8570, Note_on_c, 0, 49, 0
2, 8610, Note_on_c, 0, 70, 80
2, 8657, Note_on_c, 0, 53, 80
2, 8657, Note_on_c, 0, 58, 80
2, 8657, Note_on_c, 0, 61, 80
2, 8684, Note_on_c, 0, 61, 0
2, 8684, Note_on_c, 0, 58, 0
2, 8686, Note_on_c, 0, 53, 0
2, 8739, Note_on_c, 0, 70, 0
2, 8748, Note_on_c, 0, 73, 80
2, 8748, Note_on_c, 0, 79, 80
2, 8795, Note_on_c, 0, 58, 80
2, 8797, Note_on_c, 0, 46, 80
2, 8830, Control_c, 0, 64, 127
2, 8842, Note_on_c, 0, 58, 0
2, 8844, Note_on_c, 0, 46, 0
2, 8877, Note_on_c, 0, 79, 0
2, 8877, Note_on_c, 0, 73, 0
2, 8879, Control_c, 0, 64, 0
2, 8880, Note_on_c, 0, 77, 80
2, 8922, Note_on_c, 0, 77, 0
2, 8926, Note_on_c, 0, 73, 80
2, 8928, Note_on_c, 0, 61, 80
2, 8929, Note_on_c, 0, 53, 80
2, 8929, Note_on_c, 0, 58, 80
2, 8954, Note_on_c, 0, 58, 0
2, 8954, Note_on_c, 0, 61, 0
2, 8956, Note_on_c, 0, 53, 0
2, 9012, Note_on_c, 0, 73, 0
2, 9021, Note_on_c, 0, 70, 80
2, 9058, Note_on_c, 0, 70, 0
2, 9067, Note_on_c, 0, 49, 80
2, 9069, Note_on_c, 0, 37, 80
2, 9149, Note_on_c, 0, 37, 0
2, 9149, Note_on_c, 0, 49, 0
2, 9155, Note_on_c, 0, 70, 80
2, 9194, Note_on_c, 0, 70, 0
2, 9200, Note_on_c, 0, 53, 80
2, 9200, Note_on_c, 0, 61, 80
2, 9200, Note_on_c, 0, 69, 80
2, 9202, Note_on_c, 0, 58, 80
2, 9229, Note_on_c, 0, 58, 0
2, 9229, Note_on_c, 0, 61, 0
2, 9231, Note_on_c, 0, 53, 0
2, 9285, Note_on_c, 0, 69, 0
2, 9290, Note_on_c, 0, 70, 80
2, 9330, Note_on_c, 0, 70, 0
2, 9338, Control_c, 0, 64, 127
2, 9338, Note_on_c, 0, 38, 80
2, 9338, Note_on_c, 0, 50, 80
2, 9338, Note_on_c, 0, 67, 80
2, 9338, Note_on_c, 0, 71, 80
2, 9338, Note_on_c, 0, 79, 80
2, 9390, Control_c, 0, 64, 0
2, 9421, Note_on_c, 0, 50, 0
2, 9421, Note_on_c, 0, 38, 0
2, 9475, Note_on_c, 0, 55, 80
2, 9475, Note_on_c, 0, 59, 80
2, 9475, Note_on_c, 0, 65, 80
2, 9500, Note_on_c, 0, 65, 0
2, 9500, Note_on_c, 0, 55, 0
2, 9500, Note_on_c, 0, 59, 0
2, 9553, Note_on_c, 0, 79, 0
2, 9553, Note_on_c, 0, 71, 0
2, 9553, Note_on_c, 0, 67, 0
2, 9562, Note_on_c, 0, 77, 80
2, 9578, Note_on_c, 0, 77, 0
2, 9607, Note_on_c, 0, 44, 80
2, 9607, Note_on_c, 0, 51, 80
2, 9607, Note_on_c, 0, 72, 80
2, 9607, Note_on_c, 0, 77, 80
2, 9692, Note_on_c, 0, 77, 0
2, 9692, Note_on_c, 0, 44, 0
2, 9692, Note_on_c, 0, 51, 0
2, 9692, Note_on_c, 0, 72, 0
2, 9696, Note_on_c, 0, 75, 80
2, 9735, Note_on_c, 0, 75, 0
2, 9741, Note_on_c, 0, 51, 80
2, 9741, Note_on_c, 0, 57, 80
2, 9741, Note_on_c, 0, 60, 80
2, 9741, Note_on_c, 0, 72, 80
2, 9766, Note_on_c, 0, 60, 0
2, 9766, Note_on_c, 0, 51, 0
2, 9766, Note_on_c, 0, 57, 0
2, 9823, Note_on_c, 0, 72, 0
2, 9832, Note_on_c, 0, 69, 80
2, 9846, Note_on_c, 0, 69, 0
2, 9877, Note_on_c, 0, 41, 80
2, 9877, Note_on_c, 0, 65, 80
2, 9877, Note_on_c, 0, 69, 80
2, 9877, Note_on_c, 0, 73, 80
2, 9879, Note_on_c, 0, 53, 80
2, 9960, Note_on_c, 0, 73, 0
2, 9960, Note_on_c, 0, 69, 0
2, 9960, Note_on_c, 0, 41, 0
2, 9960, Note_on_c, 0, 65, 0
2, 9961, Note_on_c, 0, 53, 0
2, 10015, Note_on_c, 0, 41, 80
2, 10015, Note_on_c, 0, 63, 80
2, 10015, Note_on_c, 0, 69, 80
2, 10015, Note_on_c, 0, 72, 80
2, 10017, Note_on_c, 0, 53, 80
2, 10098, Note_on_c, 0, 72, 0
2, 10098, Note_on_c, 0, 69, 0
2, 10098, Note_on_c, 0, 41, 0
2, 10100, Note_on_c, 0, 63, 0
2, 10100, Note_on_c, 0, 53, 0
2, 10153, Note_on_c, 0, 46, 80
2, 10153, Note_on_c, 0, 53, 80
2, 10153, Note_on_c, 0, 62, 80
2, 10153, Note_on_c, 0, 68, 80
2, 10153, Note_on_c, 0, 72, 80
2, 10191, Note_on_c, 0, 68, 0
2, 10236, Note_on_c, 0, 62, 0
2, 10236, Note_on_c, 0, 72, 0
2, 10247, Note_on_c, 0, 68, 80
2, 10286, Note_on_c, 0, 68, 0
2, 10295, Note_on_c, 0, 70, 80
2, 10332, Note_on_c, 0, 70, 0
2, 10377, Note_on_c, 0, 46, 0
2, 10379, Note_on_c, 0, 53, 0
2, 10385, Note_on_c, 0, 61, 80
2, 10385, Note_on_c, 0, 68, 80
2, 10385, Note_on_c, 0, 72, 80
2, 10397, Control_c, 0, 64, 127
2, 10430, Note_on_c, 0, 39, 80
2, 10430, Note_on_c, 0, 51, 80
2, 10469, Note_on_c, 0, 68, 0
2, 10480, Note_on_c, 0, 39, 0
2, 10480, Note_on_c, 0, 51, 0
2, 10480, Control_c, 0, 64, 0
2, 10515, Note_on_c, 0, 72, 0
2, 10515, Note_on_c, 0, 61, 0
2, 10521, Note_on_c, 0, 68, 80
2, 10560, Note_on_c, 0, 68, 0
2, 10566, Note_on_c, 0, 39, 80
2, 10566, Note_on_c, 0, 51, 80
2, 10566, Note_on_c, 0, 61, 80
2, 10566, Note_on_c, 0, 67, 80
2, 10566, Note_on_c, 0, 70, 80
2, 10649, Note_on_c, 0, 51, 0
2, 10694, Note_on_c, 0, 67, 0
2, 10694, Note_on_c, 0, 39, 0
2, 10694, Note_on_c, 0, 70, 0
2, 10696, Note_on_c, 0, 61, 0
2, 10702, Note_on_c, 0, 51, 80
2, 10704, Note_on_c, 0, 44, 80
2, 10704, Note_on_c, 0, 60, 80
2, 10704, Note_on_c, 0, 63, 80
2, 10704, Note_on_c, 0, 68, 80
2, 10751, Note_on_c, 0, 60, 0
2, 10752, Note_on_c, 0, 63, 0
2, 10752, Note_on_c, 0, 51, 0
2, 10752, Note_on_c, 0, 44, 0
2, 10752, Note_on_c, 0, 68, 0
2, 10844, Note_on_c, 0, 45, 80
2, 10844, Note_on_c, 0, 57, 80
2, 10844, Note_on_c, 0, 66, 80
2, 10844, Note_on_c, 0, 72, 80
2, 10844, Note_on_c, 0, 77, 80
2, 10926, Note_on_c, 0, 77, 0
2, 10926, Note_on_c, 0, 66, 0
2, 10926, Note_on_c, 0, 72, 0
2, 10932, Note_on_c, 0, 75, 80
2, 10969, Note_on_c, 0, 75, 0
2, 10969, Note_on_c, 0, 57, 0
2, 10969, Note_on_c, 0, 45, 0
2, 10975, Note_on_c, 0, 58, 80
2, 10975, Note_on_c, 0, 67, 80
2, 10975, Note_on_c, 0, 73, 80
2, 10977, Note_on_c, 0, 46, 80
2, 10977, Note_on_c, 0, 77, 80
2, 11015, Note_on_c, 0, 77, 0
2, 11015, Note_on_c, 0, 73, 0
2, 11015, Note_on_c, 0, 67, 0
2, 11060, Note_on_c, 0, 58, 0
2, 11060, Note_on_c, 0, 46, 0
2, 11068, Note_on_c, 0, 67, 80
2, 11068, Note_on_c, 0, 73, 80
2, 11068, Note_on_c, 0, 75, 80
2, 11113, Note_on_c, 0, 39, 80
2, 11113, Note_on_c, 0, 51, 80
2, 11194, Note_on_c, 0, 51, 0
2, 11194, Note_on_c, 0, 75, 0
2, 11194, Note_on_c, 0, 67, 0
2, 11194, Note_on_c, 0, 73, 0
2, 11194, Note_on_c, 0, 39, 0
2, 11248, Note_on_c, 0, 60, 80
2, 11250, Note_on_c, 0, 44, 80
2, 11250, Note_on_c, 0, 51, 80
2, 11250, Note_on_c, 0, 63, 80
2, 11300, Note_on_c, 0, 63, 0
2, 11300, Note_on_c, 0, 60, 0
2, 11300, Note_on_c, 0, 44, 0
2, 11300, Note_on_c, 0, 51, 0
2, 11384, Note_on_c, 0, 60, 80
2, 11386, Note_on_c, 0, 44, 80
2, 11386, Note_on_c, 0, 51, 80
2, 11386, Note_on_c, 0, 63, 80
2, 11472, Note_on_c, 0, 63, 0
2, 11472, Note_on_c, 0, 60, 0
2, 11472, Note_on_c, 0, 44, 0
2, 11472, Note_on_c, 0, 51, 0
2, 11483, Note_on_c, 0, 65, 80
2, 11520, Note_on_c, 0, 65, 0
2, 11526, Note_on_c, 0, 60, 80
2, 11526, Note_on_c, 0, 63, 80
2, 11528, Note_on_c, 0, 44, 80
2, 11528, Note_on_c, 0, 51, 80
2, 11609, Note_on_c, 0, 63, 0
2, 11617, Note_on_c, 0, 65, 80
2, 11655, Note_on_c, 0, 65, 0
2, 11655, Note_on_c, 0, 51, 0
2, 11655, Note_on_c, 0, 44, 0
2, 11655, Note_on_c, 0, 60, 0
2, 11661, Note_on_c, 0, 58, 80
2, 11661, Note_on_c, 0, 63, 80
2, 11663, Note_on_c, 0, 42, 80
2, 11663, Note_on_c, 0, 49, 80
2, 11720, Note_on_c, 0, 63, 0
2, 11756, Note_on_c, 0, 58, 0
2, 11756, Note_on_c, 0, 42, 0
2, 11756, Note_on_c, 0, 49, 0
2, 11760, Note_on_c, 0, 63, 80
2, 11761, Note_on_c, 0, 41, 80
2, 11761, Note_on_c, 0, 48, 80
2, 11761, Note_on_c, 0, 57, 80
2, 11801, Note_on_c, 0, 57, 0
2, 11801, Note_on_c, 0, 63, 0
2, 11801, Note_on_c, 0, 41, 0
2, 11801, Note_on_c, 0, 48, 0
2, 11883, Note_on_c, 0, 41, 80
2, 11883, Note_on_c, 0, 48, 80
2, 11883, Note_on_c, 0, 57, 80
2, 11883, Note_on_c, 0, 63, 80
2, 11953, Note_on_c, 0, 63, 0
2, 11953, Note_on_c, 0, 41, 0
2, 11953, Note_on_c, 0, 48, 0
2, 11955, Note_on_c, 0, 57, 0
2, 11955, Note_on_c, 0, 65, 90
2, 11970, Note_on_c, 0, 65, 0
2, 11976, Note_on_c, 0, 41, 80
2, 11976, Note_on_c, 0, 48, 80
2, 11976, Note_on_c, 0, 57, 80
2, 11976, Note_on_c, 0, 63, 80
2, 12052, Note_on_c, 0, 63, 0
2, 12054, Note_on_c, 0, 41, 0
2, 12054, Note_on_c, 0, 48, 0
2, 12054, Note_on_c, 0, 57, 0
2, 12060, Note_on_c, 0, 65, 80
2, 12097, Note_on_c, 0, 65, 0
2, 12103, Note_on_c, 0, 41, 80
2, 12103, Note_on_c, 0, 48, 80
2, 12103, Note_on_c, 0, 57, 80
2, 12103, Note_on_c, 0, 63, 80
2, 12198, Note_on_c, 0, 63, 0
2, 12198, Note_on_c, 0, 41, 0
2, 12198, Note_on_c, 0, 48, 0
2, 12198, Note_on_c, 0, 57, 0
2, 12219, Control_c, 0, 64, 127
2, 12257, Note_on_c, 0, 34, 80
2, 12257, Note_on_c, 0, 46, 80
2, 12311, Note_on_c, 0, 46, 0
2, 12311, Note_on_c, 0, 34, 0
2, 12311, Control_c, 0, 64, 0
2, 12356, Note_on_c, 0, 70, 80
2, 12395, Note_on_c, 0, 70, 0
2, 12406, Note_on_c, 0, 53, 80
2, 12406, Note_on_c, 0, 58, 80
2, 12406, Note_on_c, 0, 61, 80
2, 12406, Note_on_c, 0, 69, 80
2, 12432, Note_on_c, 0, 61, 0
2, 12432, Note_on_c, 0, 58, 0
2, 12434, Note_on_c, 0, 53, 0
2, 12492, Note_on_c, 0, 69, 0
2, 12501, Note_on_c, 0, 70, 80
2, 12540, Note_on_c, 0, 70, 0
2, 12546, Note_on_c, 0, 46, 80
2, 12546, Note_on_c, 0, 58, 80
2, 12548, Note_on_c, 0, 73, 80
2, 12548, Note_on_c, 0, 79, 80
2, 12595, Note_on_c, 0, 58, 0
2, 12595, Note_on_c, 0, 46, 0
2, 12686, Note_on_c, 0, 58, 80
2, 12688, Note_on_c, 0, 53, 80
2, 12688, Note_on_c, 0, 61, 80
2, 12713, Note_on_c, 0, 58, 0
2, 12715, Note_on_c, 0, 53, 0
2, 12715, Note_on_c, 0, 61, 0
2, 12725, Note_on_c, 0, 73, 0
2, 12768, Note_on_c, 0, 79, 0
2, 12779, Note_on_c, 0, 73, 80
2, 12779, Note_on_c, 0, 77, 80
2, 12820, Note_on_c, 0, 77, 0
2, 12820, Note_on_c, 0, 73, 0
2, 12826, Note_on_c, 0, 49, 80
2, 12826, Note_on_c, 0, 61, 80
2, 12826, Note_on_c, 0, 69, 80
2, 12865, Note_on_c, 0, 69, 0
2, 12876, Note_on_c, 0, 61, 0
2, 12876, Note_on_c, 0, 49, 0
2, 12919, Note_on_c, 0, 70, 80
2, 12964, Note_on_c, 0, 58, 80
2, 12964, Note_on_c, 0, 61, 80
2, 12966, Note_on_c, 0, 53, 80
2, 12989, Note_on_c, 0, 61, 0
2, 12989, Note_on_c, 0, 58, 0
2, 12991, Note_on_c, 0, 53, 0
2, 13047, Note_on_c, 0, 70, 0
2, 13053, Note_on_c, 0, 73, 80
2, 13053, Note_on_c, 0, 79, 80
2, 13098, Note_on_c, 0, 46, 80
2, 13098, Note_on_c, 0, 58, 80
2, 13145, Note_on_c, 0, 58, 0
2, 13145, Note_on_c, 0, 46, 0
2, 13177, Note_on_c, 0, 79, 0
2, 13177, Note_on_c, 0, 73, 0
2, 13183, Note_on_c, 0, 77, 80
2, 13224, Note_on_c, 0, 77, 0
2, 13228, Note_on_c, 0, 58, 80
2, 13228, Note_on_c, 0, 61, 80
2, 13228, Note_on_c, 0, 73, 80
2, 13230, Note_on_c, 0, 53, 80
2, 13255, Note_on_c, 0, 58, 0
2, 13257, Note_on_c, 0, 61, 0
2, 13257, Note_on_c, 0, 53, 0
2, 13313, Note_on_c, 0, 73, 0
2, 13319, Note_on_c, 0, 70, 80
2, 13356, Note_on_c, 0, 70, 0
2, 13362, Control_c, 0, 64, 127
2, 13362, Note_on_c, 0, 39, 80
2, 13364, Note_on_c, 0, 51, 80
2, 13411, Note_on_c, 0, 51, 0
2, 13411, Note_on_c, 0, 39, 0
2, 13443, Control_c, 0, 64, 0
2, 13452, Note_on_c, 0, 67, 80
2, 13491, Note_on_c, 0, 67, 0
2, 13500, Note_on_c, 0, 51, 80
2, 13500, Note_on_c, 0, 55, 80
2, 13500, Note_on_c, 0, 61, 80
2, 13500, Note_on_c, 0, 66, 80
2, 13525, Note_on_c, 0, 61, 0
2, 13525, Note_on_c, 0, 51, 0
2, 13525, Note_on_c, 0, 55, 0
2, 13581, Note_on_c, 0, 66, 0
2, 13591, Note_on_c, 0, 67, 80
2, 13606, Note_on_c, 0, 67, 0
2, 13636, Note_on_c, 0, 46, 80
2, 13636, Note_on_c, 0, 58, 80
2, 13636, Note_on_c, 0, 67, 80
2, 13636, Note_on_c, 0, 73, 80
2, 13636, Note_on_c, 0, 77, 80
2, 13672, Note_on_c, 0, 67, 0
2, 13674, Note_on_c, 0, 73, 0
2, 13674, Note_on_c, 0, 77, 0
2, 13684, Note_on_c, 0, 58, 0
2, 13684, Note_on_c, 0, 46, 0
2, 13724, Note_on_c, 0, 67, 80
2, 13724, Note_on_c, 0, 73, 80
2, 13724, Note_on_c, 0, 75, 80
2, 13774, Note_on_c, 0, 51, 80
2, 13774, Note_on_c, 0, 55, 80
2, 13774, Note_on_c, 0, 61, 80
2, 13797, Note_on_c, 0, 61, 0
2, 13797, Note_on_c, 0, 51, 0
2, 13797, Note_on_c, 0, 55, 0
2, 13854, Note_on_c, 0, 67, 0
2, 13854, Note_on_c, 0, 75, 0
2, 13854, Note_on_c, 0, 73, 0
2, 13908, Note_on_c, 0, 39, 80
2, 13908, Note_on_c, 0, 51, 80
2, 13908, Note_on_c, 0, 66, 80
2, 13947, Note_on_c, 0, 66, 0
2, 13958, Note_on_c, 0, 51, 0
2, 13958, Note_on_c, 0, 39, 0
2, 13999, Note_on_c, 0, 67, 80
2, 14044, Note_on_c, 0, 55, 80
2, 14046, Note_on_c, 0, 51, 80
2, 14046, Note_on_c, 0, 61, 80
2, 14071, Note_on_c, 0, 51, 0
2, 14071, Note_on_c, 0, 55, 0
2, 14073, Note_on_c, 0, 61, 0
2, 14129, Note_on_c, 0, 67, 0
2, 14179, Note_on_c, 0, 67, 80
2, 14179, Note_on_c, 0, 73, 80
2, 14181, Note_on_c, 0, 46, 80
2, 14181, Note_on_c, 0, 58, 80
2, 14181, Note_on_c, 0, 77, 80
2, 14218, Note_on_c, 0, 77, 0
2, 14218, Note_on_c, 0, 67, 0
2, 14218, Note_on_c, 0, 73, 0
2, 14229, Note_on_c, 0, 46, 0
2, 14229, Note_on_c, 0, 58, 0
2, 14270, Note_on_c, 0, 67, 80
2, 14270, Note_on_c, 0, 73, 80
2, 14270, Note_on_c, 0, 75, 80
2, 14315, Note_on_c, 0, 51, 80
2, 14315, Note_on_c, 0, 55, 80
2, 14315, Note_on_c, 0, 58, 80
2, 14315, Note_on_c, 0, 61, 80
2, 14338, Note_on_c, 0, 61, 0
2, 14338, Note_on_c, 0, 51, 0
2, 14338, Note_on_c, 0, 58, 0
2, 14340, Note_on_c, 0, 55, 0
2, 14394, Note_on_c, 0, 67, 0
2, 14394, Note_on_c, 0, 73, 0
2, 14396, Note_on_c, 0, 75, 0
2, 14414, Control_c, 0, 64, 127
2, 14449, Note_on_c, 0, 44, 80
2, 14449, Note_on_c, 0, 56, 80
2, 14530, Note_on_c, 0, 56, 0
2, 14530, Note_on_c, 0, 44, 0
2, 14530, Control_c, 0, 64, 0
2, 14536, Note_on_c, 0, 72, 80
2, 14571, Note_on_c, 0, 72, 0
2, 14577, Note_on_c, 0, 56, 80
2, 14577, Note_on_c, 0, 60, 80
2, 14579, Note_on_c, 0, 51, 80
2, 14579, Note_on_c, 0, 71, 80
2, 14602, Note_on_c, 0, 60, 0
2, 14604, Note_on_c, 0, 56, 0
2, 14604, Note_on_c, 0, 51, 0
2, 14664, Note_on_c, 0, 71, 0
2, 14672, Note_on_c, 0, 72, 80
2, 14712, Note_on_c, 0, 72, 0
2, 14720, Note_on_c, 0, 48, 80
2, 14720, Note_on_c, 0, 60, 80
2, 14720, Note_on_c, 0, 68, 80
2, 14720, Note_on_c, 0, 75, 80
2, 14720, Note_on_c, 0, 79, 80
2, 14805, Note_on_c, 0, 68, 0
2, 14848, Note_on_c, 0, 60, 0
2, 14850, Note_on_c, 0, 48, 0
2, 14850, Note_on_c, 0, 75, 0
2, 14850, Note_on_c, 0, 79, 0
2, 14856, Note_on_c, 0, 74, 80
2, 14857, Note_on_c, 0, 47, 80
2, 14857, Note_on_c, 0, 59, 80
2, 14857, Note_on_c, 0, 68, 80
2, 14857, Note_on_c, 0, 77, 80
2, 14985, Note_on_c, 0, 77, 0
2, 14985, Note_on_c, 0, 59, 0
2, 14985, Note_on_c, 0, 68, 0
2, 14987, Note_on_c, 0, 47, 0
2, 14987, Note_on_c, 0, 74, 0
2, 14991, Note_on_c, 0, 75, 80
2, 14993, Note_on_c, 0, 46, 80
2, 14993, Note_on_c, 0, 58, 80
2, 14993, Note_on_c, 0, 67, 80
2, 15043, Note_on_c, 0, 58, 0
2, 15045, Note_on_c, 0, 46, 0
2, 15080, Note_on_c, 0, 75, 0
2, 15086, Note_on_c, 0, 74, 80
2, 15127, Note_on_c, 0, 74, 0
2, 15133, Note_on_c, 0, 73, 80
2, 15216, Note_on_c, 0, 73, 0
2, 15224, Note_on_c, 0, 69, 80
2, 15264, Note_on_c, 0, 69, 0
2, 15264, Note_on_c, 0, 67, 0
2, 15274, Note_on_c, 0, 61, 80
2, 15274, Note_on_c, 0, 72, 80
2, 15357, Note_on_c, 0, 72, 0
2, 15365, Note_on_c, 0, 70, 80
2, 15403, Note_on_c, 0, 70, 0
2, 15411, Note_on_c, 0, 67, 80
2, 15494, Note_on_c, 0, 67, 0
2, 15504, Note_on_c, 0, 65, 80
2, 15542, Note_on_c, 0, 65, 0
2, 15542, Note_on_c, 0, 61, 0
2, 15548, Note_on_c, 0, 44, 80
2, 15548, Note_on_c, 0, 51, 80
2, 15548, Note_on_c, 0, 60, 80
2, 15548, Note_on_c, 0, 63, 80
2, 15598, Note_on_c, 0, 63, 0
2, 15598, Note_on_c, 0, 44, 0
2, 15598, Note_on_c, 0, 51, 0
2, 15598, Note_on_c, 0, 60, 0
2, 15689, Note_on_c, 0, 44, 80
2, 15689, Note_on_c, 0, 51, 80
2, 15689, Note_on_c, 0, 60, 80
2, 15689, Note_on_c, 0, 63, 80
2, 15771, Note_on_c, 0, 63, 0
2, 15771, Note_on_c, 0, 44, 0
2, 15771, Note_on_c, 0, 51, 0
2, 15771, Note_on_c, 0, 60, 0
2, 15780, Note_on_c, 0, 65, 80
2, 15817, Note_on_c, 0, 65, 0
2, 15823, Note_on_c, 0, 60, 80
2, 15825, Note_on_c, 0, 44, 80
2, 15825, Note_on_c, 0, 51, 80
2, 15825, Note_on_c, 0, 63, 80
2, 15908, Note_on_c, 0, 63, 0
2, 15908, Note_on_c, 0, 60, 0
2, 15908, Note_on_c, 0, 44, 0
2, 15908, Note_on_c, 0, 51, 0
2, 15916, Note_on_c, 0, 65, 80
2, 15954, Note_on_c, 0, 65, 0
2, 15962, Note_on_c, 0, 42, 80
2, 15962, Note_on_c, 0, 58, 80
2, 15962, Note_on_c, 0, 63, 80
2, 15964, Note_on_c, 0, 49, 80
2, 16045, Note_on_c, 0, 63, 0
2, 16090, Note_on_c, 0, 42, 0
2, 16090, Note_on_c, 0, 58, 0
2, 16090, Note_on_c, 0, 49, 0
2, 16099, Note_on_c, 0, 48, 80
2, 16099, Note_on_c, 0, 57, 80
2, 16099, Note_on_c, 0, 63, 80
2, 16101, Note_on_c, 0, 41, 80
2, 16148, Note_on_c, 0, 41, 0
2, 16148, Note_on_c, 0, 48, 0
2, 16148, Note_on_c, 0, 57, 0
2, 16148, Note_on_c, 0, 63, 0
2, 16234, Note_on_c, 0, 48, 80
2, 16234, Note_on_c, 0, 57, 80
2, 16234, Note_on_c, 0, 63, 80
2, 16236, Note_on_c, 0, 41, 80
2, 16319, Note_on_c, 0, 41, 0
2, 16319, Note_on_c, 0, 48, 0
2, 16319, Note_on_c, 0, 57, 0
2, 16319, Note_on_c, 0, 63, 0
2, 16327, Note_on_c, 0, 65, 80
2, 16365, Note_on_c, 0, 65, 0
2, 16370, Note_on_c, 0, 57, 80
2, 16370, Note_on_c, 0, 63, 80
2, 16372, Note_on_c, 0, 41, 80
2, 16372, Note_on_c, 0, 48, 80
2, 16446, Note_on_c, 0, 63, 0
2, 16448, Note_on_c, 0, 57, 0
2, 16448, Note_on_c, 0, 41, 0
2, 16448, Note_on_c, 0, 48, 0
2, 16457, Note_on_c, 0, 65, 80
2, 16494, Note_on_c, 0, 65, 0
2, 16503, Note_on_c, 0, 41, 80
2, 16503, Note_on_c, 0, 48, 80
2, 16503, Note_on_c, 0, 57, 80
2, 16503, Note_on_c, 0, 63, 80
2, 16584, Note_on_c, 0, 63, 0
2, 16584, Note_on_c, 0, 57, 0
2, 16585, Note_on_c, 0, 48, 0
2, 16585, Note_on_c, 0, 41, 0
2, 16607, Control_c, 0, 64, 127
2, 16637, Note_on_c, 0, 34, 80
2, 16639, Note_on_c, 0, 46, 80
2, 16686, Note_on_c, 0, 46, 0
2, 16686, Note_on_c, 0, 34, 0
2, 16688, Control_c, 0, 64, 0
2, 16729, Note_on_c, 0, 70, 80
2, 16767, Note_on_c, 0, 70, 0
2, 16773, Note_on_c, 0, 58, 80
2, 16773, Note_on_c, 0, 61, 80
2, 16773, Note_on_c, 0, 69, 80
2, 16775, Note_on_c, 0, 53, 80
2, 16798, Note_on_c, 0, 61, 0
2, 16798, Note_on_c, 0, 58, 0
2, 16801, Note_on_c, 0, 53, 0
2, 16853, Note_on_c, 0, 69, 0
2, 16864, Note_on_c, 0, 70, 80
2, 16899, Note_on_c, 0, 70, 0
2, 16908, Note_on_c, 0, 58, 80
2, 16908, Note_on_c, 0, 73, 80
2, 16908, Note_on_c, 0, 79, 80
2, 16910, Note_on_c, 0, 46, 80
2, 16957, Note_on_c, 0, 46, 0
2, 16957, Note_on_c, 0, 58, 0
2, 17040, Note_on_c, 0, 58, 80
2, 17041, Note_on_c, 0, 53, 80
2, 17041, Note_on_c, 0, 61, 80
2, 17066, Note_on_c, 0, 61, 0
2, 17066, Note_on_c, 0, 58, 0
2, 17068, Note_on_c, 0, 53, 0
2, 17077, Note_on_c, 0, 73, 0
2, 17124, Note_on_c, 0, 79, 0
2, 17133, Note_on_c, 0, 73, 80
2, 17133, Note_on_c, 0, 77, 80
2, 17172, Note_on_c, 0, 77, 0
2, 17172, Note_on_c, 0, 73, 0
2, 17181, Note_on_c, 0, 61, 80
2, 17181, Note_on_c, 0, 69, 80
2, 17183, Note_on_c, 0, 49, 80
2, 17218, Note_on_c, 0, 69, 0
2, 17231, Note_on_c, 0, 61, 0
2, 17232, Note_on_c, 0, 49, 0
2, 17274, Note_on_c, 0, 70, 80
2, 17321, Note_on_c, 0, 58, 80
2, 17321, Note_on_c, 0, 61, 80
2, 17323, Note_on_c, 0, 53, 80
2, 17346, Note_on_c, 0, 61, 0
2, 17346, Note_on_c, 0, 58, 0
2, 17348, Note_on_c, 0, 53, 0
2, 17403, Note_on_c, 0, 70, 0
2, 17412, Note_on_c, 0, 73, 80
2, 17412, Note_on_c, 0, 79, 80
2, 17426, Control_c, 0, 64, 127
2, 17459, Note_on_c, 0, 46, 80
2, 17459, Note_on_c, 0, 58, 80
2, 17506, Note_on_c, 0, 58, 0
2, 17506, Note_on_c, 0, 46, 0
2, 17506, Control_c, 0, 64, 0
2, 17542, Note_on_c, 0, 79, 0
2, 17542, Note_on_c, 0, 73, 0
2, 17550, Note_on_c, 0, 77, 80
2, 17588, Note_on_c, 0, 77, 0
2, 17596, Note_on_c, 0, 58, 80
2, 17596, Note_on_c, 0, 61, 80
2, 17596, Note_on_c, 0, 73, 80
2, 17598, Note_on_c, 0, 53, 80
2, 17621, Note_on_c, 0, 61, 0
2, 17621, Note_on_c, 0, 58, 0
2, 17623, Note_on_c, 0, 53, 0
2, 17675, Note_on_c, 0, 73, 0
2, 17684, Note_on_c, 0, 70, 80
2, 17723, Note_on_c, 0, 70, 0
2, 17734, Note_on_c, 0, 37, 80
2, 17734, Note_on_c, 0, 49, 80
2, 17818, Note_on_c, 0, 49, 0
2, 17818, Note_on_c, 0, 37, 0
2, 17824, Note_on_c, 0, 70, 80
2, 17861, Note_on_c, 0, 70, 0
2, 17870, Note_on_c, 0, 58, 80
2, 17870, Note_on_c, 0, 61, 80
2, 17870, Note_on_c, 0, 69, 80
2, 17872, Note_on_c, 0, 53, 80
2, 17895, Note_on_c, 0, 61, 0
2, 17895, Note_on_c, 0, 58, 0
2, 17897, Note_on_c, 0, 53, 0
2, 17954, Note_on_c, 0, 69, 0
2, 17963, Note_on_c, 0, 70, 80
2, 18000, Note_on_c, 0, 70, 0
2, 18009, Note_on_c, 0, 38, 80
2, 18009, Note_on_c, 0, 50, 80
2, 18009, Note_on_c, 0, 67, 80
2, 18009, Note_on_c, 0, 71, 80
2, 18009, Note_on_c, 0, 79, 80
2, 18011, Control_c, 0, 64, 127
2, 18090, Note_on_c, 0, 50, 0
2, 18092, Note_on_c, 0, 38, 0
2, 18092, Control_c, 0, 64, 0
2, 18145, Note_on_c, 0, 55, 80
2, 18145, Note_on_c, 0, 59, 80
2, 18145, Note_on_c, 0, 65, 80
2, 18172, Note_on_c, 0, 65, 0
2, 18172, Note_on_c, 0, 55, 0
2, 18172, Note_on_c, 0, 59, 0
2, 18228, Note_on_c, 0, 79, 0
2, 18228, Note_on_c, 0, 71, 0
2, 18228, Note_on_c, 0, 67, 0
2, 18237, Note_on_c, 0, 77, 80
2, 18249, Note_on_c, 0, 77, 0
2, 18282, Note_on_c, 0, 44, 80
2, 18282, Note_on_c, 0, 51, 80
2, 18282, Note_on_c, 0, 72, 80
2, 18282, Note_on_c, 0, 77, 80
2, 18364, Note_on_c, 0, 77, 0
2, 18364, Note_on_c, 0, 44, 0
2, 18364, Note_on_c, 0, 51, 0
2, 18364, Note_on_c, 0, 72, 0
2, 18373, Note_on_c, 0, 75, 80
2, 18412, Note_on_c, 0, 75, 0
2, 18421, Note_on_c, 0, 72, 80
2, 18423, Note_on_c, 0, 51, 80
2, 18423, Note_on_c, 0, 57, 80
2, 18423, Note_on_c, 0, 60, 80
2, 18446, Note_on_c, 0, 60, 0
2, 18448, Note_on_c, 0, 57, 0
2, 18448, Note_on_c, 0, 51, 0
2, 18502, Note_on_c, 0, 72, 0
2, 18510, Note_on_c, 0, 69, 80
2, 18527, Note_on_c, 0, 69, 0
2, 18553, Note_on_c, 0, 65, 80
2, 18553, Note_on_c, 0, 69, 80
2, 18553, Note_on_c, 0, 73, 80
2, 18555, Control_c, 0, 64, 127
2, 18555, Note_on_c, 0, 41, 80
2, 18555, Note_on_c, 0, 53, 80
2, 18600, Control_c, 0, 64, 0
2, 18633, Note_on_c, 0, 73, 0
2, 18633, Note_on_c, 0, 65, 0
2, 18633, Note_on_c, 0, 69, 0
2, 18635, Note_on_c, 0, 41, 0
2, 18635, Note_on_c, 0, 53, 0
2, 18687, Note_on_c, 0, 63, 80
2, 18687, Note_on_c, 0, 69, 80
2, 18687, Note_on_c, 0, 72, 80
2, 18689, Note_on_c, 0, 41, 80
2, 18691, Note_on_c, 0, 53, 80
2, 18773, Note_on_c, 0, 41, 0
2, 18773, Note_on_c, 0, 72, 0
2, 18773, Note_on_c, 0, 63, 0
2, 18773, Note_on_c, 0, 69, 0
2, 18775, Note_on_c, 0, 53, 0
2, 18827, Note_on_c, 0, 46, 80
2, 18827, Note_on_c, 0, 53, 80
2, 18827, Note_on_c, 0, 62, 80
2, 18827, Note_on_c, 0, 68, 80
2, 18827, Note_on_c, 0, 72, 80
2, 18863, Note_on_c, 0, 68, 0
2, 18906, Note_on_c, 0, 62, 0
2, 18906, Note_on_c, 0, 72, 0
2, 18914, Note_on_c, 0, 68, 80
2, 18952, Note_on_c, 0, 68, 0
2, 18960, Note_on_c, 0, 70, 80
2, 18998, Note_on_c, 0, 70, 0
2, 19045, Note_on_c, 0, 53, 0
2, 19045, Note_on_c, 0, 46, 0
2, 19051, Note_on_c, 0, 61, 80
2, 19051, Note_on_c, 0, 68, 80
2, 19051, Note_on_c, 0, 72, 80
2, 19065, Control_c, 0, 64, 127
2, 19096, Note_on_c, 0, 39, 80
2, 19096, Note_on_c, 0, 51, 80
2, 19133, Note_on_c, 0, 68, 0
2, 19146, Note_on_c, 0, 39, 0
2, 19146, Note_on_c, 0, 51, 0
2, 19148, Control_c, 0, 64, 0
2, 19176, Note_on_c, 0, 72, 0
2, 19176, Note_on_c, 0, 61, 0
2, 19185, Note_on_c, 0, 68, 80
2, 19224, Note_on_c, 0, 68, 0
2, 19230, Note_on_c, 0, 51, 80
2, 19230, Note_on_c, 0, 61, 80
2, 19230, Note_on_c, 0, 67, 80
2, 19230, Note_on_c, 0, 70, 80
2, 19232, Note_on_c, 0, 39, 80
2, 19311, Note_on_c, 0, 51, 0
2, 19356, Note_on_c, 0, 70, 0
2, 19356, Note_on_c, 0, 61, 0
2, 19356, Note_on_c, 0, 67, 0
2, 19358, Note_on_c, 0, 39, 0
2, 19364, Note_on_c, 0, 60, 80
2, 19364, Note_on_c, 0, 63, 80
2, 19364, Note_on_c, 0, 68, 80
2, 19366, Note_on_c, 0, 44, 80
2, 19366, Note_on_c, 0, 51, 80
2, 19411, Note_on_c, 0, 51, 0
2, 19411, Note_on_c, 0, 68, 0
2, 19411, Note_on_c, 0, 60, 0
2, 19411, Note_on_c, 0, 63, 0
2, 19411, Note_on_c, 0, 44, 0
2, 19497, Note_on_c, 0, 62, 80
2, 19497, Note_on_c, 0, 74, 80
2, 19582, Note_on_c, 0, 74, 0
2, 19582, Note_on_c, 0, 62, 0
2, 19590, Note_on_c, 0, 63, 80
2, 19590, Note_on_c, 0, 75, 80
2, 19628, Note_on_c, 0, 75, 0
2, 19628, Note_on_c, 0, 63, 0
2, 19633, Note_on_c, 0, 64, 80
2, 19633, Note_on_c, 0, 76, 80
2, 19722, Note_on_c, 0, 64, 0
2, 19724, Note_on_c, 0, 76, 0
2, 19729, Note_on_c, 0, 65, 80
2, 19729, Note_on_c, 0, 77, 80
2, 19769, Note_on_c, 0, 77, 0
2, 19771, Note_on_c, 0, 65, 0
2, 19779, Note_on_c, 0, 66, 80
2, 19779, Note_on_c, 0, 78, 80
2, 19864, Note_on_c, 0, 78, 0
2, 19864, Note_on_c, 0, 66, 0
2, 19870, Note_on_c, 0, 67, 80
2, 19870, Note_on_c, 0, 79, 80
2, 19909, Note_on_c, 0, 79, 0
2, 19909, Note_on_c, 0, 67, 0
2, 19918, Note_on_c, 0, 41, 80
2, 19918, Note_on_c, 0, 53, 80
2, 19968, Note_on_c, 0, 53, 0
2, 19968, Note_on_c, 0, 41, 0
2, 20009, Note_on_c, 0, 77, 80
2, 20046, Note_on_c, 0, 77, 0
2, 20055, Note_on_c, 0, 53, 80
2, 20055, Note_on_c, 0, 56, 80
2, 20055, Note_on_c, 0, 60, 80
2, 20055, Note_on_c, 0, 68, 80
2, 20055, Note_on_c, 0, 80, 80
2, 20082, Note_on_c, 0, 60, 0
2, 20082, Note_on_c, 0, 53, 0
2, 20082, Note_on_c, 0, 56, 0
2, 20136, Note_on_c, 0, 68, 0
2, 20136, Note_on_c, 0, 80, 0
2, 20144, Note_on_c, 0, 72, 80
2, 20184, Note_on_c, 0, 72, 0
2, 20192, Note_on_c, 0, 43, 80
2, 20192, Note_on_c, 0, 55, 80
2, 20192, Note_on_c, 0, 77, 80
2, 20230, Note_on_c, 0, 77, 0
2, 20275, Note_on_c, 0, 55, 0
2, 20275, Note_on_c, 0, 43, 0
2, 20280, Note_on_c, 0, 68, 80
2, 20280, Note_on_c, 0, 80, 80
2, 20328, Note_on_c, 0, 41, 80
2, 20328, Note_on_c, 0, 53, 80
2, 20410, Note_on_c, 0, 80, 0
2, 20410, Note_on_c, 0, 68, 0
2, 20455, Note_on_c, 0, 41, 0
2, 20457, Note_on_c, 0, 53, 0
2, 20463, Note_on_c, 0, 40, 80
2, 20463, Note_on_c, 0, 52, 80
2, 20510, Note_on_c, 0, 52, 0
2, 20510, Note_on_c, 0, 40, 0
2, 20551, Note_on_c, 0, 76, 80
2, 20594, Note_on_c, 0, 76, 0
2, 20598, Note_on_c, 0, 55, 80
2, 20598, Note_on_c, 0, 58, 80
2, 20598, Note_on_c, 0, 64, 80
2, 20598, Note_on_c, 0, 67, 80
2, 20598, Note_on_c, 0, 79, 80
2, 20623, Note_on_c, 0, 64, 0
2, 20623, Note_on_c, 0, 55, 0
2, 20623, Note_on_c, 0, 58, 0
2, 20677, Note_on_c, 0, 67, 0
2, 20677, Note_on_c, 0, 79, 0
2, 20686, Note_on_c, 0, 72, 80
2, 20723, Note_on_c, 0, 72, 0
2, 20732, Note_on_c, 0, 48, 80
2, 20732, Note_on_c, 0, 60, 80
2, 20732, Note_on_c, 0, 76, 80
2, 20771, Note_on_c, 0, 76, 0
2, 20814, Note_on_c, 0, 60, 0
2, 20814, Note_on_c, 0, 48, 0
2, 20820, Note_on_c, 0, 67, 80
2, 20820, Note_on_c, 0, 79, 80
2, 20834, Control_c, 0, 64, 127
2, 20867, Note_on_c, 0, 58, 80
2, 20869, Note_on_c, 0, 46, 80
2, 20950, Control_c, 0, 64, 0
2, 20960, Note_on_c, 0, 79, 0
2, 20960, Note_on_c, 0, 67, 0
2, 20996, Note_on_c, 0, 58, 0
2, 20998, Note_on_c, 0, 46, 0
2, 21003, Note_on_c, 0, 45, 80
2, 21003, Note_on_c, 0, 57, 80
2, 21053, Note_on_c, 0, 57, 0
2, 21053, Note_on_c, 0, 45, 0
2, 21093, Note_on_c, 0, 72, 80
2, 21132, Note_on_c, 0, 72, 0
2, 21141, Note_on_c, 0, 53, 80
2, 21141, Note_on_c, 0, 57, 80
2, 21141, Note_on_c, 0, 63, 80
2, 21141, Note_on_c, 0, 65, 80
2, 21141, Note_on_c, 0, 77, 80
2, 21166, Note_on_c, 0, 63, 0
2, 21166, Note_on_c, 0, 57, 0
2, 21168, Note_on_c, 0, 53, 0
2, 21225, Note_on_c, 0, 65, 0
2, 21231, Note_on_c, 0, 69, 80
2, 21235, Note_on_c, 0, 77, 0
2, 21267, Note_on_c, 0, 69, 0
2, 21276, Note_on_c, 0, 72, 80
2, 21278, Note_on_c, 0, 41, 80
2, 21278, Note_on_c, 0, 53, 80
2, 21313, Note_on_c, 0, 72, 0
2, 21326, Note_on_c, 0, 41, 0
2, 21328, Note_on_c, 0, 53, 0
2, 21367, Note_on_c, 0, 65, 80
2, 21367, Note_on_c, 0, 77, 80
2, 21412, Note_on_c, 0, 57, 80
2, 21412, Note_on_c, 0, 63, 80
2, 21414, Note_on_c, 0, 53, 80
2, 21439, Note_on_c, 0, 63, 0
2, 21439, Note_on_c, 0, 57, 0
2, 21441, Note_on_c, 0, 53, 0
2, 21497, Note_on_c, 0, 77, 0
2, 21497, Note_on_c, 0, 65, 0
2, 21549, Note_on_c, 0, 46, 80
2, 21549, Note_on_c, 0, 58, 80
2, 21599, Note_on_c, 0, 58, 0
2, 21599, Note_on_c, 0, 46, 0
2, 21640, Note_on_c, 0, 73, 80
2, 21679, Note_on_c, 0, 73, 0
2, 21683, Note_on_c, 0, 53, 80
2, 21683, Note_on_c, 0, 61, 80
2, 21685, Note_on_c, 0, 58, 80
2, 21685, Note_on_c, 0, 65, 80
2, 21685, Note_on_c, 0, 77, 80
2, 21710, Note_on_c, 0, 58, 0
2, 21710, Note_on_c, 0, 61, 0
2, 21712, Note_on_c, 0, 53, 0
2, 21766, Note_on_c, 0, 77, 0
2, 21768, Note_on_c, 0, 65, 0
2, 21773, Note_on_c, 0, 70, 80
2, 21811, Note_on_c, 0, 70, 0
2, 21819, Note_on_c, 0, 73, 80
2, 21821, Note_on_c, 0, 46, 80
2, 21821, Note_on_c, 0, 58, 80
2, 21859, Note_on_c, 0, 73, 0
2, 21902, Note_on_c, 0, 58, 0
2, 21902, Note_on_c, 0, 46, 0
2, 21908, Note_on_c, 0, 65, 80
2, 21908, Note_on_c, 0, 77, 80
2, 21951, Note_on_c, 0, 47, 80
2, 21953, Note_on_c, 0, 59, 80
2, 22035, Note_on_c, 0, 77, 0
2, 22035, Note_on_c, 0, 65, 0
2, 22080, Note_on_c, 0, 59, 0
2, 22082, Note_on_c, 0, 47, 0
2, 22088, Note_on_c, 0, 48, 80
2, 22088, Note_on_c, 0, 60, 80
2, 22138, Note_on_c, 0, 60, 0
2, 22138, Note_on_c, 0, 48, 0
2, 22179, Note_on_c, 0, 72, 80
2, 22219, Note_on_c, 0, 72, 0
2, 22227, Note_on_c, 0, 51, 80
2, 22227, Note_on_c, 0, 56, 80
2, 22227, Note_on_c, 0, 60, 80
2, 22227, Note_on_c, 0, 68, 80
2, 22254, Note_on_c, 0, 60, 0
2, 22254, Note_on_c, 0, 51, 0
2, 22254, Note_on_c, 0, 56, 0
2, 22267, Note_on_c, 0, 68, 0
2, 22319, Note_on_c, 0, 72, 80
2, 22320, Note_on_c, 0, 65, 80
2, 22320, Note_on_c, 0, 77, 80
2, 22366, Control_c, 0, 64, 127
2, 22366, Note_on_c, 0, 43, 80
2, 22366, Note_on_c, 0, 55, 80
2, 22448, Note_on_c, 0, 55, 0
2, 22448, Note_on_c, 0, 77, 0
2, 22448, Note_on_c, 0, 72, 0
2, 22448, Note_on_c, 0, 65, 0
2, 22448, Note_on_c, 0, 43, 0
2, 22448, Control_c, 0, 64, 0
2, 22457, Note_on_c, 0, 75, 80
2, 22496, Note_on_c, 0, 75, 0
2, 22505, Note_on_c, 0, 41, 80
2, 22505, Note_on_c, 0, 53, 80
2, 22505, Note_on_c, 0, 72, 80
2, 22585, Note_on_c, 0, 72, 0
2, 22587, Note_on_c, 0, 53, 0
2, 22587, Note_on_c, 0, 41, 0
2, 22593, Note_on_c, 0, 68, 80
2, 22632, Note_on_c, 0, 68, 0
2, 22641, Note_on_c, 0, 46, 80
2, 22641, Note_on_c, 0, 58, 80
2, 22693, Note_on_c, 0, 58, 0
2, 22693, Note_on_c, 0, 46, 0
2, 22734, Note_on_c, 0, 70, 80
2, 22734, Note_on_c, 0, 74, 80
2, 22734, Note_on_c, 0, 79, 80
2, 22751, Note_on_c, 0, 79, 0
2, 22751, Note_on_c, 0, 74, 0
2, 22774, Note_on_c, 0, 70, 0
2, 22782, Note_on_c, 0, 56, 80
2, 22782, Note_on_c, 0, 58, 80
2, 22782, Note_on_c, 0, 62, 80
2, 22782, Note_on_c, 0, 69, 80
2, 22782, Note_on_c, 0, 74, 80
2, 22782, Note_on_c, 0, 79, 80
2, 22807, Note_on_c, 0, 62, 0
2, 22807, Note_on_c, 0, 56, 0
2, 22807, Note_on_c, 0, 58, 0
2, 22820, Note_on_c, 0, 69, 0
2, 22820, Note_on_c, 0, 79, 0
2, 22822, Note_on_c, 0, 74, 0
2, 22873, Note_on_c, 0, 74, 80
2, 22875, Note_on_c, 0, 68, 80
2, 22875, Note_on_c, 0, 79, 80
2, 22886, Control_c, 0, 64, 127
2, 22921, Note_on_c, 0, 41, 80
2, 22921, Note_on_c, 0, 53, 80
2, 22968, Note_on_c, 0, 53, 0
2, 22968, Note_on_c, 0, 41, 0
2, 22968, Control_c, 0, 64, 0
2, 23001, Note_on_c, 0, 79, 0
2, 23001, Note_on_c, 0, 68, 0
2, 23003, Note_on_c, 0, 74, 0
2, 23059, Note_on_c, 0, 56, 80
2, 23059, Note_on_c, 0, 58, 80
2, 23059, Note_on_c, 0, 62, 80
2, 23059, Note_on_c, 0, 75, 80
2, 23084, Note_on_c, 0, 62, 0
2, 23084, Note_on_c, 0, 56, 0
2, 23084, Note_on_c, 0, 58, 0
2, 23141, Note_on_c, 0, 75, 0
2, 23147, Note_on_c, 0, 77, 80
2, 23184, Note_on_c, 0, 77, 0
2, 23190, Note_on_c, 0, 39, 80
2, 23190, Note_on_c, 0, 51, 80
2, 23190, Note_on_c, 0, 67, 80
2, 23190, Note_on_c, 0, 73, 80
2, 23190, Note_on_c, 0, 75, 80
2, 23230, Note_on_c, 0, 75, 0
2, 23230, Note_on_c, 0, 67, 0
2, 23230, Note_on_c, 0, 39, 0
2, 23230, Note_on_c, 0, 51, 0
2, 23230, Note_on_c, 0, 73, 0
2, 23283, Note_on_c, 0, 37, 80
2, 23283, Note_on_c, 0, 49, 80
2, 23411, Note_on_c, 0, 49, 0
2, 23411, Note_on_c, 0, 37, 0
2, 23417, Note_on_c, 0, 34, 80
2, 23417, Note_on_c, 0, 46, 80
2, 23501, Note_on_c, 0, 46, 0
2, 23501, Note_on_c, 0, 34, 0
2, 23551, Note_on_c, 0, 34, 80
2, 23551, Note_on_c, 0, 46, 80
2, 23568, Note_on_c, 0, 46, 0
2, 23568, Note_on_c, 0, 34, 0
2, 23596, Note_on_c, 0, 34, 80
2, 23596, Note_on_c, 0, 46, 80
2, 23598, Control_c, 0, 64, 127
2, 23681, Control_c, 0, 64, 0
2, 23726, Note_on_c, 0, 46, 0
2, 23726, Note_on_c, 0, 34, 0
2, 23735, Note_on_c, 0, 27, 80
2, 23735, Note_on_c, 0, 39, 80
2, 23780, Note_on_c, 0, 39, 0
2, 23780, Note_on_c, 0, 27, 0
2, 23868, Note_on_c, 0, 63, 80
2, 23868, Note_on_c, 0, 75, 80
2, 23954, Note_on_c, 0, 75, 0
2, 23954, Note_on_c, 0, 63, 0
2, 23960, Note_on_c, 0, 65, 80
2, 23960, Note_on_c, 0, 77, 80
2, 24000, Note_on_c, 0, 77, 0
2, 24000, Note_on_c, 0, 65, 0
2, 24003, Note_on_c, 0, 67, 80
2, 24003, Note_on_c, 0, 79, 80
2, 24084, Note_on_c, 0, 67, 0
2, 24086, Note_on_c, 0, 79, 0
2, 24092, Note_on_c, 0, 68, 80
2, 24092, Note_on_c, 0, 80, 80
2, 24129, Note_on_c, 0, 80, 0
2, 24129, Note_on_c, 0, 68, 0
2, 24138, Note_on_c, 0, 70, 80
2, 24138, Note_on_c, 0, 82, 80
2, 24218, Note_on_c, 0, 82, 0
2, 24218, Note_on_c, 0, 70, 0
2, 24227, Note_on_c, 0, 71, 80
2, 24227, Note_on_c, 0, 83, 80
2, 24264, Note_on_c, 0, 83, 0
2, 24264, Note_on_c, 0, 71, 0
2, 24270, Note_on_c, 0, 41, 80
2, 24272, Note_on_c, 0, 53, 80
2, 24319, Note_on_c, 0, 41, 0
2, 24321, Note_on_c, 0, 53, 0
2, 24360, Note_on_c, 0, 80, 80
2, 24398, Note_on_c, 0, 80, 0
2, 24407, Note_on_c, 0, 53, 80
2, 24407, Note_on_c, 0, 56, 80
2, 24407, Note_on_c, 0, 60, 80
2, 24407, Note_on_c, 0, 72, 80
2, 24407, Note_on_c, 0, 84, 80
2, 24432, Note_on_c, 0, 60, 0
2, 24432, Note_on_c, 0, 56, 0
2, 24433, Note_on_c, 0, 53, 0
2, 24485, Note_on_c, 0, 84, 0
2, 24487, Note_on_c, 0, 72, 0
2, 24493, Note_on_c, 0, 77, 80
2, 24530, Note_on_c, 0, 77, 0
2, 24539, Note_on_c, 0, 43, 80
2, 24539, Note_on_c, 0, 55, 80
2, 24541, Note_on_c, 0, 80, 80
2, 24578, Note_on_c, 0, 80, 0
2, 24622, Note_on_c, 0, 55, 0
2, 24622, Note_on_c, 0, 43, 0
2, 24630, Note_on_c, 0, 72, 80
2, 24630, Note_on_c, 0, 84, 80
2, 24643, Control_c, 0, 64, 127
2, 24675, Note_on_c, 0, 41, 80
2, 24675, Note_on_c, 0, 53, 80
2, 24756, Control_c, 0, 64, 0
2, 24758, Note_on_c, 0, 84, 0
2, 24758, Note_on_c, 0, 72, 0
2, 24801, Note_on_c, 0, 41, 0
2, 24803, Note_on_c, 0, 53, 0
2, 24809, Note_on_c, 0, 40, 80
2, 24809, Note_on_c, 0, 52, 80
2, 24861, Note_on_c, 0, 52, 0
2, 24861, Note_on_c, 0, 40, 0
2, 24906, Note_on_c, 0, 79, 80
2, 24943, Note_on_c, 0, 79, 0
2, 24949, Note_on_c, 0, 60, 80
2, 24949, Note_on_c, 0, 70, 80
2, 24949, Note_on_c, 0, 82, 80
2, 24951, Note_on_c, 0, 58, 80
2, 24951, Note_on_c, 0, 64, 80
2, 24976, Note_on_c, 0, 64, 0
2, 24976, Note_on_c, 0, 60, 0
2, 24976, Note_on_c, 0, 58, 0
2, 25032, Note_on_c, 0, 82, 0
2, 25032, Note_on_c, 0, 70, 0
2, 25037, Note_on_c, 0, 76, 80
2, 25082, Note_on_c, 0, 76, 0
2, 25086, Note_on_c, 0, 36, 80
2, 25086, Note_on_c, 0, 48, 80
2, 25086, Note_on_c, 0, 79, 80
2, 25126, Note_on_c, 0, 79, 0
2, 25136, Note_on_c, 0, 48, 0
2, 25136, Note_on_c, 0, 36, 0
2, 25177, Note_on_c, 0, 70, 80
2, 25177, Note_on_c, 0, 82, 80
2, 25221, Note_on_c, 0, 58, 80
2, 25221, Note_on_c, 0, 60, 80
2, 25221, Note_on_c, 0, 64, 80
2, 25248, Note_on_c, 0, 64, 0
2, 25248, Note_on_c, 0, 58, 0
2, 25248, Note_on_c, 0, 60, 0
2, 25307, Note_on_c, 0, 82, 0
2, 25307, Note_on_c, 0, 70, 0
2, 25325, Control_c, 0, 64, 127
2, 25361, Note_on_c, 0, 41, 80
2, 25361, Note_on_c, 0, 53, 80
2, 25413, Note_on_c, 0, 41, 0
2, 25415, Note_on_c, 0, 53, 0
2, 25445, Control_c, 0, 64, 0
2, 25456, Note_on_c, 0, 77, 80
2, 25495, Note_on_c, 0, 77, 0
2, 25501, Note_on_c, 0, 60, 80
2, 25503, Note_on_c, 0, 53, 80
2, 25503, Note_on_c, 0, 56, 80
2, 25503, Note_on_c, 0, 68, 80
2, 25503, Note_on_c, 0, 80, 80
2, 25528, Note_on_c, 0, 56, 0
2, 25528, Note_on_c, 0, 60, 0
2, 25530, Note_on_c, 0, 53, 0
2, 25585, Note_on_c, 0, 80, 0
2, 25585, Note_on_c, 0, 68, 0
2, 25591, Note_on_c, 0, 72, 80
2, 25629, Note_on_c, 0, 72, 0
2, 25637, Note_on_c, 0, 41, 80
2, 25637, Note_on_c, 0, 53, 80
2, 25637, Note_on_c, 0, 77, 80
2, 25675, Note_on_c, 0, 77, 0
2, 25718, Note_on_c, 0, 53, 0
2, 25718, Note_on_c, 0, 41, 0
2, 25727, Note_on_c, 0, 68, 80
2, 25727, Note_on_c, 0, 80, 80
2, 25774, Note_on_c, 0, 39, 80
2, 25774, Note_on_c, 0, 51, 80
2, 25854, Note_on_c, 0, 80, 0
2, 25854, Note_on_c, 0, 68, 0
2, 25897, Note_on_c, 0, 39, 0
2, 25897, Note_on_c, 0, 51, 0
2, 25906, Note_on_c, 0, 70, 80
2, 25908, Note_on_c, 0, 37, 80
2, 25908, Note_on_c, 0, 49, 80
2, 25908, Note_on_c, 0, 73, 80
2, 25908, Note_on_c, 0, 77, 80
2, 25908, Note_on_c, 0, 82, 80
2, 25989, Note_on_c, 0, 37, 0
2, 25991, Note_on_c, 0, 49, 0
2, 26042, Note_on_c, 0, 56, 80
2, 26042, Note_on_c, 0, 61, 80
2, 26042, Note_on_c, 0, 65, 80
2, 26069, Note_on_c, 0, 65, 0
2, 26069, Note_on_c, 0, 56, 0
2, 26069, Note_on_c, 0, 61, 0
2, 26125, Note_on_c, 0, 73, 0
2, 26127, Note_on_c, 0, 70, 0
2, 26127, Note_on_c, 0, 82, 0
2, 26127, Note_on_c, 0, 77, 0
2, 26133, Note_on_c, 0, 68, 80
2, 26133, Note_on_c, 0, 80, 80
2, 26172, Note_on_c, 0, 80, 0
2, 26172, Note_on_c, 0, 68, 0
2, 26181, Note_on_c, 0, 38, 80
2, 26181, Note_on_c, 0, 50, 80
2, 26181, Note_on_c, 0, 70, 80
2, 26181, Note_on_c, 0, 82, 80
2, 26263, Note_on_c, 0, 82, 0
2, 26263, Note_on_c, 0, 70, 0
2, 26265, Note_on_c, 0, 50, 0
2, 26265, Note_on_c, 0, 38, 0
2, 26271, Note_on_c, 0, 68, 80
2, 26271, Note_on_c, 0, 80, 80
2, 26310, Note_on_c, 0, 80, 0
2, 26310, Note_on_c, 0, 68, 0
2, 26319, Note_on_c, 0, 41, 80
2, 26319, Note_on_c, 0, 53, 80
2, 26319, Note_on_c, 0, 67, 80
2, 26319, Note_on_c, 0, 79, 80
2, 26401, Note_on_c, 0, 79, 0
2, 26401, Note_on_c, 0, 67, 0
2, 26401, Note_on_c, 0, 41, 0
2, 26403, Note_on_c, 0, 53, 0
2, 26407, Note_on_c, 0, 65, 80
2, 26407, Note_on_c, 0, 77, 80
2, 26447, Note_on_c, 0, 77, 0
2, 26447, Note_on_c, 0, 65, 0
2, 26455, Control_c, 0, 64, 127
2, 26455, Note_on_c, 0, 44, 80
2, 26455, Note_on_c, 0, 56, 80
2, 26505, Note_on_c, 0, 56, 0
2, 26505, Note_on_c, 0, 44, 0
2, 26538, Control_c, 0, 64, 0
2, 26544, Note_on_c, 0, 68, 80
2, 26544, Note_on_c, 0, 72, 80
2, 26544, Note_on_c, 0, 75, 80
2, 26581, Note_on_c, 0, 72, 0
2, 26581, Note_on_c, 0, 68, 0
2, 26583, Note_on_c, 0, 75, 0
2, 26589, Note_on_c, 0, 51, 80
2, 26589, Note_on_c, 0, 60, 80
2, 26589, Note_on_c, 0, 77, 80
2, 26591, Note_on_c, 0, 56, 80
2, 26614, Note_on_c, 0, 60, 0
2, 26614, Note_on_c, 0, 51, 0
2, 26616, Note_on_c, 0, 56, 0
2, 26637, Note_on_c, 0, 77, 0
2, 26680, Note_on_c, 0, 68, 80
2, 26680, Note_on_c, 0, 72, 80
2, 26680, Note_on_c, 0, 75, 80
2, 26723, Note_on_c, 0, 44, 80
2, 26723, Note_on_c, 0, 56, 80
2, 26806, Note_on_c, 0, 56, 0
2, 26806, Note_on_c, 0, 75, 0
2, 26806, Note_on_c, 0, 68, 0
2, 26806, Note_on_c, 0, 72, 0
2, 26806, Note_on_c, 0, 44, 0
2, 26811, Note_on_c, 0, 77, 80
2, 26851, Note_on_c, 0, 77, 0
2, 26856, Note_on_c, 0, 39, 80
2, 26856, Note_on_c, 0, 51, 80
2, 26856, Note_on_c, 0, 68, 80
2, 26856, Note_on_c, 0, 72, 80
2, 26856, Note_on_c, 0, 75, 80
2, 26937, Note_on_c, 0, 72, 0
2, 26937, Note_on_c, 0, 68, 0
2, 26937, Note_on_c, 0, 39, 0
2, 26937, Note_on_c, 0, 51, 0
2, 26939, Note_on_c, 0, 75, 0
2, 26993, Note_on_c, 0, 46, 80
2, 26993, Note_on_c, 0, 58, 80
2, 27043, Note_on_c, 0, 58, 0
2, 27043, Note_on_c, 0, 46, 0
2, 27084, Note_on_c, 0, 67, 80
2, 27084, Note_on_c, 0, 73, 80
2, 27084, Note_on_c, 0, 75, 80
2, 27120, Note_on_c, 0, 77, 80
2, 27123, Note_on_c, 0, 73, 0
2, 27123, Note_on_c, 0, 67, 0
2, 27125, Note_on_c, 0, 75, 0
2, 27131, Note_on_c, 0, 51, 80
2, 27131, Note_on_c, 0, 55, 80
2, 27131, Note_on_c, 0, 61, 80
2, 27158, Note_on_c, 0, 61, 0
2, 27158, Note_on_c, 0, 55, 0
2, 27158, Note_on_c, 0, 51, 0
2, 27168, Note_on_c, 0, 77, 0
2, 27222, Note_on_c, 0, 67, 80
2, 27222, Note_on_c, 0, 73, 80
2, 27222, Note_on_c, 0, 75, 80
2, 27269, Note_on_c, 0, 46, 80
2, 27269, Note_on_c, 0, 58, 80
2, 27354, Note_on_c, 0, 58, 0
2, 27354, Note_on_c, 0, 75, 0
2, 27354, Note_on_c, 0, 67, 0
2, 27354, Note_on_c, 0, 73, 0
2, 27354, Note_on_c, 0, 46, 0
2, 27362, Note_on_c, 0, 77, 80
2, 27402, Note_on_c, 0, 77, 0
2, 27410, Note_on_c, 0, 39, 80
2, 27410, Note_on_c, 0, 51, 80
2, 27410, Note_on_c, 0, 67, 80
2, 27410, Note_on_c, 0, 73, 80
2, 27410, Note_on_c, 0, 75, 80
2, 27536, Note_on_c, 0, 73, 0
2, 27536, Note_on_c, 0, 51, 0
2, 27536, Note_on_c, 0, 39, 0
2, 27538, Note_on_c, 0, 67, 0
2, 27538, Note_on_c, 0, 75, 0
2, 27544, Note_on_c, 0, 44, 80
2, 27544, Note_on_c, 0, 56, 80
2, 27544, Note_on_c, 0, 68, 80
2, 27544, Note_on_c, 0, 72, 80
2, 27544, Note_on_c, 0, 80, 80
2, 27596, Note_on_c, 0, 80, 0
2, 27596, Note_on_c, 0, 68, 0
2, 27596, Note_on_c, 0, 44, 0
2, 27596, Note_on_c, 0, 56, 0
2, 27596, Note_on_c, 0, 72, 0
2, 27682, Note_on_c, 0, 41, 80
2, 27684, Note_on_c, 0, 53, 80
2, 27768, Note_on_c, 0, 41, 0
2, 27770, Note_on_c, 0, 53, 0
2, 27776, Note_on_c, 0, 39, 80
2, 27776, Note_on_c, 0, 51, 80
2, 27791, Note_on_c, 0, 39, 0
2, 27792, Note_on_c, 0, 51, 0
2, 27821, Note_on_c, 0, 39, 80
2, 27821, Note_on_c, 0, 51, 80
2, 27906, Note_on_c, 0, 51, 0
2, 27906, Note_on_c, 0, 39, 0
2, 27961, Note_on_c, 0, 36, 80
2, 27961, Note_on_c, 0, 48, 80
2, 28089, Note_on_c, 0, 48, 0
2, 28089, Note_on_c, 0, 36, 0
2, 28095, Note_on_c, 0, 32, 80
2, 28095, Note_on_c, 0, 44, 80
2, 28145, Note_on_c, 0, 44, 0
2, 28145, Note_on_c, 0, 32, 0
2, 28188, Note_on_c, 0, 67, 80
2, 28188, Note_on_c, 0, 75, 80
2, 28202, Note_on_c, 0, 67, 0
2, 28225, Note_on_c, 0, 75, 0
2, 28231, Note_on_c, 0, 43, 80
2, 28231, Note_on_c, 0, 50, 80
2, 28231, Note_on_c, 0, 71, 80
2, 28233, Note_on_c, 0, 59, 80
2, 28233, Note_on_c, 0, 67, 80
2, 28233, Note_on_c, 0, 77, 80
2, 28269, Note_on_c, 0, 71, 0
2, 28310, Note_on_c, 0, 67, 0
2, 28310, Note_on_c, 0, 77, 0
2, 28320, Note_on_c, 0, 71, 80
2, 28347, Note_on_c, 0, 43, 0
2, 28358, Note_on_c, 0, 50, 0
2, 28358, Note_on_c, 0, 59, 0
2, 28358, Note_on_c, 0, 71, 0
2, 28367, Note_on_c, 0, 44, 80
2, 28367, Note_on_c, 0, 51, 80
2, 28367, Note_on_c, 0, 60, 80
2, 28367, Note_on_c, 0, 68, 80
2, 28367, Note_on_c, 0, 72, 80
2, 28414, Note_on_c, 0, 72, 0
2, 28414, Note_on_c, 0, 60, 0
2, 28414, Note_on_c, 0, 44, 0
2, 28414, Note_on_c, 0, 51, 0
2, 28414, Note_on_c, 0, 68, 0
2, 28638, Note_on_c, 0, 44, 80
2, 28638, Note_on_c, 0, 56, 80
2, 28638, Note_on_c, 0, 68, 80
2, 28640, Note_on_c, 0, 80, 80
2, 28719, Note_on_c, 0, 80, 0
2, 28719, Note_on_c, 0, 44, 0
2, 28719, Note_on_c, 0, 56, 0
2, 28719, Note_on_c, 0, 68, 0
2, 28728, Note_on_c, 0, 43, 80
2, 28728, Note_on_c, 0, 55, 80
2, 28728, Note_on_c, 0, 67, 80
2, 28728, Note_on_c, 0, 79, 80
2, 28765, Note_on_c, 0, 79, 0
2, 28765, Note_on_c, 0, 43, 0
2, 28765, Note_on_c, 0, 55, 0
2, 28765, Note_on_c, 0, 67, 0
2, 28771, Note_on_c, 0, 44, 80
2, 28771, Note_on_c, 0, 56, 80
2, 28771, Note_on_c, 0, 68, 80
2, 28771, Note_on_c, 0, 80, 80
2, 28855, Note_on_c, 0, 80, 0
2, 28855, Note_on_c, 0, 44, 0
2, 28855, Note_on_c, 0, 56, 0
2, 28855, Note_on_c, 0, 68, 0
2, 28861, Note_on_c, 0, 46, 80
2, 28861, Note_on_c, 0, 58, 80
2, 28861, Note_on_c, 0, 70, 80
2, 28861, Note_on_c, 0, 82, 80
2, 28898, Note_on_c, 0, 82, 0
2, 28898, Note_on_c, 0, 46, 0
2, 28898, Note_on_c, 0, 58, 0
2, 28898, Note_on_c, 0, 70, 0
2, 28904, Note_on_c, 0, 48, 80
2, 28904, Note_on_c, 0, 60, 80
2, 28904, Note_on_c, 0, 72, 80
2, 28904, Note_on_c, 0, 84, 80
2, 28991, Note_on_c, 0, 84, 0
2, 28991, Note_on_c, 0, 48, 0
2, 28991, Note_on_c, 0, 60, 0
2, 28991, Note_on_c, 0, 72, 0
2, 28999, Note_on_c, 0, 43, 80
2, 28999, Note_on_c, 0, 55, 80
2, 28999, Note_on_c, 0, 67, 80
2, 28999, Note_on_c, 0, 79, 80
2, 29037, Note_on_c, 0, 79, 0
2, 29037, Note_on_c, 0, 43, 0
2, 29037, Note_on_c, 0, 55, 0
2, 29037, Note_on_c, 0, 67, 0
2, 29042, Note_on_c, 0, 44, 80
2, 29042, Note_on_c, 0, 68, 80
2, 29042, Note_on_c, 0, 80, 80
2, 29044, Note_on_c, 0, 56, 80
2, 29123, Note_on_c, 0, 56, 0
2, 29123, Note_on_c, 0, 68, 0
2, 29125, Note_on_c, 0, 80, 0
2, 29125, Note_on_c, 0, 44, 0
2, 29131, Note_on_c, 0, 46, 80
2, 29131, Note_on_c, 0, 58, 80
2, 29131, Note_on_c, 0, 70, 80
2, 29131, Note_on_c, 0, 82, 80
2, 29170, Note_on_c, 0, 82, 0
2, 29170, Note_on_c, 0, 46, 0
2, 29170, Note_on_c, 0, 58, 0
2, 29170, Note_on_c, 0, 70, 0
2, 29179, Note_on_c, 0, 48, 80
2, 29179, Note_on_c, 0, 60, 80
2, 29179, Note_on_c, 0, 72, 80
2, 29179, Note_on_c, 0, 84, 80
2, 29259, Note_on_c, 0, 84, 0
2, 29259, Note_on_c, 0, 48, 0
2, 29259, Note_on_c, 0, 60, 0
2, 29259, Note_on_c, 0, 72, 0
2, 29265, Note_on_c, 0, 47, 80
2, 29265, Note_on_c, 0, 59, 80
2, 29265, Note_on_c, 0, 71, 80
2, 29265, Note_on_c, 0, 83, 80
2, 29303, Note_on_c, 0, 83, 0
2, 29303, Note_on_c, 0, 47, 0
2, 29303, Note_on_c, 0, 59, 0
2, 29303, Note_on_c, 0, 71, 0
2, 29308, Note_on_c, 0, 60, 80
2, 29308, Note_on_c, 0, 72, 80
2, 29308, Note_on_c, 0, 84, 80
2, 29310, Note_on_c, 0, 48, 80
2, 29391, Note_on_c, 0, 48, 0
2, 29391, Note_on_c, 0, 60, 0
2, 29391, Note_on_c, 0, 72, 0
2, 29391, Note_on_c, 0, 84, 0
2, 29400, Note_on_c, 0, 61, 80
2, 29400, Note_on_c, 0, 73, 80
2, 29400, Note_on_c, 0, 85, 80
2, 29401, Note_on_c, 0, 49, 80
2, 29437, Note_on_c, 0, 49, 0
2, 29437, Note_on_c, 0, 61, 0
2, 29437, Note_on_c, 0, 73, 0
2, 29437, Note_on_c, 0, 85, 0
2, 29443, Note_on_c, 0, 63, 80
2, 29443, Note_on_c, 0, 87, 80
2, 29445, Note_on_c, 0, 51, 80
2, 29445, Note_on_c, 0, 75, 80
2, 29495, Note_on_c, 0, 51, 0
2, 29495, Note_on_c, 0, 63, 0
2, 29495, Note_on_c, 0, 87, 0
2, 29496, Note_on_c, 0, 75, 0
2, 29616, Control_c, 0, 64, 127
2, 29722, Note_on_c, 0, 56, 80
2, 29722, Note_on_c, 0, 68, 80
2, 29722, Note_on_c, 0, 80, 80
2, 29722, Note_on_c, 0, 92, 80
2, 29805, Control_c, 0, 64, 0
2, 29807, Note_on_c, 0, 92, 0
2, 29807, Note_on_c, 0, 56, 0
2, 29807, Note_on_c, 0, 68, 0
2, 29807, Note_on_c, 0, 80, 0
2, 29860, Note_on_c, 0, 55, 80
2, 29862, Note_on_c, 0, 67, 80
2, 29862, Note_on_c, 0, 79, 80
2, 29862, Note_on_c, 0, 91, 80
2, 29898, Note_on_c, 0, 67, 0
2, 29898, Note_on_c, 0, 55, 0
2, 29900, Note_on_c, 0, 79, 0
2, 29900, Note_on_c, 0, 91, 0
2, 29953, Note_on_c, 0, 54, 80
2, 29953, Note_on_c, 0, 66, 80
2, 29953, Note_on_c, 0, 78, 80
2, 29953, Note_on_c, 0, 90, 80
2, 30083, Note_on_c, 0, 90, 0
2, 30083, Note_on_c, 0, 54, 0
2, 30083, Note_on_c, 0, 66, 0
2, 30083, Note_on_c, 0, 78, 0
2, 30089, Note_on_c, 0, 65, 80
2, 30091, Note_on_c, 0, 53, 80
2, 30091, Note_on_c, 0, 77, 80
2, 30091, Note_on_c, 0, 89, 80
2, 30128, Note_on_c, 0, 89, 0
2, 30130, Note_on_c, 0, 65, 0
2, 30130, Note_on_c, 0, 53, 0
2, 30130, Note_on_c, 0, 77, 0
2, 30136, Note_on_c, 0, 51, 80
2, 30136, Note_on_c, 0, 63, 80
2, 30136, Note_on_c, 0, 75, 80
2, 30136, Note_on_c, 0, 87, 80
2, 30218, Note_on_c, 0, 87, 0
2, 30218, Note_on_c, 0, 51, 0
2, 30218, Note_on_c, 0, 63, 0
2, 30220, Note_on_c, 0, 75, 0
2, 30226, Note_on_c, 0, 49, 80
2, 30226, Note_on_c, 0, 61, 80
2, 30226, Note_on_c, 0, 73, 80
2, 30228, Note_on_c, 0, 85, 80
2, 30265, Note_on_c, 0, 85, 0
2, 30265, Note_on_c, 0, 73, 0
2, 30265, Note_on_c, 0, 49, 0
2, 30267, Note_on_c, 0, 61, 0
2, 30273, Note_on_c, 0, 48, 80
2, 30273, Note_on_c, 0, 60, 80
2, 30273, Note_on_c, 0, 72, 80
2, 30273, Note_on_c, 0, 84, 80
2, 30354, Note_on_c, 0, 84, 0
2, 30354, Note_on_c, 0, 48, 0
2, 30354, Note_on_c, 0, 60, 0
2, 30354, Note_on_c, 0, 72, 0
2, 30408, Note_on_c, 0, 70, 80
2, 30409, Note_on_c, 0, 46, 80
2, 30409, Note_on_c, 0, 58, 80
2, 30409, Note_on_c, 0, 82, 80
2, 30447, Note_on_c, 0, 46, 0
2, 30447, Note_on_c, 0, 70, 0
2, 30449, Note_on_c, 0, 58, 0
2, 30449, Note_on_c, 0, 82, 0
2, 30501, Note_on_c, 0, 44, 80
2, 30501, Note_on_c, 0, 56, 80
2, 30501, Note_on_c, 0, 68, 80
2, 30501, Note_on_c, 0, 80, 80
2, 30623, Note_on_c, 0, 80, 0
2, 30623, Note_on_c, 0, 44, 0
2, 30623, Note_on_c, 0, 56, 0
2, 30623, Note_on_c, 0, 68, 0
2, 30678, Control_c, 0, 64, 127
2, 30678, Note_on_c, 0, 32, 80
2, 30678, Note_on_c, 0, 44, 80
2, 30678, Note_on_c, 0, 80, 80
2, 30678, Note_on_c, 0, 92, 80
2, 30723, Note_on_c, 0, 92, 0
2, 30723, Note_on_c, 0, 32, 0
2, 30723, Note_on_c, 0, 44, 0
2, 30723, Note_on_c, 0, 80, 0
2, 30723, Control_c, 0, 64, 0
2, 30815, Note_on_c, 0, 58, 80
2, 30815, Note_on_c, 0, 68, 80
2, 30815, Note_on_c, 0, 73, 80
2, 30815, Note_on_c, 0, 80, 80
2, 30816, Note_on_c, 0, 46, 80
2, 30864, Note_on_c, 0, 80, 0
2, 30864, Note_on_c, 0, 73, 0
2, 30864, Note_on_c, 0, 68, 0
2, 30899, Note_on_c, 0, 58, 0
2, 30944, Note_on_c, 0, 46, 0
2, 30950, Note_on_c, 0, 54, 80
2, 30950, Note_on_c, 0, 73, 80
2, 30950, Note_on_c, 0, 78, 80
2, 30952, Note_on_c, 0, 58, 80
2, 30952, Note_on_c, 0, 61, 80
2, 30952, Note_on_c, 0, 66, 80
2, 30977, Note_on_c, 0, 61, 0
2, 30977, Note_on_c, 0, 58, 0
2, 30977, Note_on_c, 0, 54, 0
2, 31034, Note_on_c, 0, 73, 0
2, 31034, Note_on_c, 0, 66, 0
2, 31034, Note_on_c, 0, 78, 0
2, 31088, Note_on_c, 0, 45, 80
2, 31088, Note_on_c, 0, 57, 80
2, 31088, Note_on_c, 0, 68, 80
2, 31088, Note_on_c, 0, 73, 80
2, 31088, Note_on_c, 0, 80, 80
2, 31135, Note_on_c, 0, 80, 0
2, 31135, Note_on_c, 0, 68, 0
2, 31135, Note_on_c, 0, 73, 0
2, 31135, Note_on_c, 0, 57, 0
2, 31216, Note_on_c, 0, 45, 0
2, 31222, Note_on_c, 0, 57, 80
2, 31222, Note_on_c, 0, 61, 80
2, 31222, Note_on_c, 0, 66, 80
2, 31222, Note_on_c, 0, 73, 80
2, 31222, Note_on_c, 0, 78, 80
2, 31224, Note_on_c, 0, 54, 80
2, 31247, Note_on_c, 0, 54, 0
2, 31247, Note_on_c, 0, 57, 0
2, 31247, Note_on_c, 0, 61, 0
2, 31350, Note_on_c, 0, 73, 0
2, 31350, Note_on_c, 0, 78, 0
2, 31350, Note_on_c, 0, 66, 0
2, 31359, Note_on_c, 0, 44, 80
2, 31359, Note_on_c, 0, 56, 80
2, 31359, Note_on_c, 0, 67, 80
2, 31359, Note_on_c, 0, 76, 80
2, 31398, Note_on_c, 0, 67, 0
2, 31400, Note_on_c, 0, 76, 0
2, 31411, Note_on_c, 0, 56, 0
2, 31411, Note_on_c, 0, 44, 0
2, 31452, Note_on_c, 0, 68, 80
2, 31452, Note_on_c, 0, 77, 80
2, 31495, Note_on_c, 0, 56, 80
2, 31495, Note_on_c, 0, 61, 80
2, 31495, Note_on_c, 0, 65, 80
2, 31520, Note_on_c, 0, 56, 0
2, 31522, Note_on_c, 0, 61, 0
2, 31522, Note_on_c, 0, 65, 0
2, 31576, Note_on_c, 0, 77, 0
2, 31576, Note_on_c, 0, 68, 0
2, 31584, Note_on_c, 0, 65, 80
2, 31584, Note_on_c, 0, 73, 80
2, 31597, Control_c, 0, 64, 127
2, 31630, Note_on_c, 0, 49, 80
2, 31630, Note_on_c, 0, 61, 80
2, 31677, Control_c, 0, 64, 0
2, 31709, Note_on_c, 0, 61, 0
2, 31709, Note_on_c, 0, 65, 0
2, 31709, Note_on_c, 0, 73, 0
2, 31720, Note_on_c, 0, 49, 0
2, 31761, Note_on_c, 0, 80, 80
2, 31763, Note_on_c, 0, 47, 80
2, 31763, Note_on_c, 0, 59, 80
2, 31763, Note_on_c, 0, 68, 80
2, 31763, Note_on_c, 0, 73, 80
2, 31844, Note_on_c, 0, 73, 0
2, 31844, Note_on_c, 0, 80, 0
2, 31844, Note_on_c, 0, 68, 0
2, 31889, Note_on_c, 0, 59, 0
2, 31889, Note_on_c, 0, 47, 0
2, 31895, Note_on_c, 0, 58, 80
2, 31895, Note_on_c, 0, 68, 80
2, 31895, Note_on_c, 0, 73, 80
2, 31895, Note_on_c, 0, 80, 80
2, 31896, Note_on_c, 0, 46, 80
2, 31944, Note_on_c, 0, 80, 0
2, 31944, Note_on_c, 0, 73, 0
2, 31944, Note_on_c, 0, 58, 0
2, 31944, Note_on_c, 0, 68, 0
2, 32028, Note_on_c, 0, 46, 0
2, 32032, Note_on_c, 0, 73, 80
2, 32032, Note_on_c, 0, 78, 80
2, 32034, Note_on_c, 0, 54, 80
2, 32034, Note_on_c, 0, 58, 80
2, 32034, Note_on_c, 0, 61, 80
2, 32034, Note_on_c, 0, 66, 80
2, 32061, Note_on_c, 0, 61, 0
2, 32061, Note_on_c, 0, 58, 0
2, 32061, Note_on_c, 0, 54, 0
2, 32116, Note_on_c, 0, 73, 0
2, 32116, Note_on_c, 0, 66, 0
2, 32116, Note_on_c, 0, 78, 0
2, 32170, Note_on_c, 0, 45, 80
2, 32170, Note_on_c, 0, 73, 80
2, 32170, Note_on_c, 0, 80, 80
2, 32172, Note_on_c, 0, 57, 80
2, 32172, Note_on_c, 0, 68, 80
2, 32217, Note_on_c, 0, 80, 0
2, 32219, Note_on_c, 0, 57, 0
2, 32219, Note_on_c, 0, 68, 0
2, 32219, Note_on_c, 0, 73, 0
2, 32291, Note_on_c, 0, 45, 0
2, 32309, Note_on_c, 0, 73, 80
2, 32309, Note_on_c, 0, 78, 80
2, 32311, Note_on_c, 0, 66, 80
2, 32313, Note_on_c, 0, 54, 80
2, 32313, Note_on_c, 0, 57, 80
2, 32313, Note_on_c, 0, 61, 80
2, 32336, Note_on_c, 0, 61, 0
2, 32336, Note_on_c, 0, 54, 0
2, 32336, Note_on_c, 0, 57, 0
2, 32394, Note_on_c, 0, 73, 0
2, 32394, Note_on_c, 0, 66, 0
2, 32394, Note_on_c, 0, 78, 0
2, 32448, Note_on_c, 0, 56, 80
2, 32448, Note_on_c, 0, 67, 80
2, 32448, Note_on_c, 0, 76, 80
2, 32449, Note_on_c, 0, 44, 80
2, 32487, Note_on_c, 0, 67, 0
2, 32491, Note_on_c, 0, 76, 0
2, 32496, Note_on_c, 0, 56, 0
2, 32498, Note_on_c, 0, 44, 0
2, 32538, Note_on_c, 0, 68, 80
2, 32538, Note_on_c, 0, 77, 80
2, 32585, Note_on_c, 0, 56, 80
2, 32585, Note_on_c, 0, 61, 80
2, 32585, Note_on_c, 0, 65, 80
2, 32612, Note_on_c, 0, 65, 0
2, 32612, Note_on_c, 0, 56, 0
2, 32612, Note_on_c, 0, 61, 0
2, 32667, Note_on_c, 0, 77, 0
2, 32669, Note_on_c, 0, 68, 0
2, 32675, Note_on_c, 0, 73, 80
2, 32677, Note_on_c, 0, 65, 80
2, 32724, Control_c, 0, 64, 127
2, 32724, Note_on_c, 0, 49, 80
2, 32724, Note_on_c, 0, 61, 80
2, 32803, Note_on_c, 0, 61, 0
2, 32803, Note_on_c, 0, 73, 0
2, 32803, Note_on_c, 0, 65, 0
2, 32803, Note_on_c, 0, 49, 0
2, 32805, Control_c, 0, 64, 0
2, 32856, Note_on_c, 0, 68, 80
2, 32856, Note_on_c, 0, 73, 80
2, 32856, Note_on_c, 0, 80, 80
2, 32858, Note_on_c, 0, 47, 80
2, 32858, Note_on_c, 0, 59, 80
2, 32939, Note_on_c, 0, 80, 0
2, 32941, Note_on_c, 0, 73, 0
2, 32943, Note_on_c, 0, 68, 0
2, 32984, Note_on_c, 0, 59, 0
2, 32984, Note_on_c, 0, 47, 0
2, 32990, Note_on_c, 0, 68, 80
2, 32990, Note_on_c, 0, 73, 80
2, 32990, Note_on_c, 0, 80, 80
2, 32992, Note_on_c, 0, 46, 80
2, 32992, Note_on_c, 0, 58, 80
2, 33037, Note_on_c, 0, 80, 0
2, 33037, Note_on_c, 0, 68, 0
2, 33037, Note_on_c, 0, 73, 0
2, 33039, Note_on_c, 0, 58, 0
2, 33120, Note_on_c, 0, 46, 0
2, 33125, Note_on_c, 0, 66, 80
2, 33125, Note_on_c, 0, 73, 80
2, 33125, Note_on_c, 0, 78, 80
2, 33127, Note_on_c, 0, 54, 80
2, 33127, Note_on_c, 0, 58, 80
2, 33127, Note_on_c, 0, 61, 80
2, 33152, Note_on_c, 0, 61, 0
2, 33152, Note_on_c, 0, 58, 0
2, 33154, Note_on_c, 0, 54, 0
2, 33208, Note_on_c, 0, 66, 0
2, 33208, Note_on_c, 0, 73, 0
2, 33208, Note_on_c, 0, 78, 0
2, 33264, Note_on_c, 0, 45, 80
2, 33264, Note_on_c, 0, 57, 80
2, 33264, Note_on_c, 0, 68, 80
2, 33264, Note_on_c, 0, 73, 80
2, 33264, Note_on_c, 0, 80, 80
2, 33311, Note_on_c, 0, 80, 0
2, 33311, Note_on_c, 0, 73, 0
2, 33312, Note_on_c, 0, 68, 0
2, 33312, Note_on_c, 0, 57, 0
2, 33395, Note_on_c, 0, 73, 80
2, 33397, Note_on_c, 0, 54, 80
2, 33397, Note_on_c, 0, 57, 80
2, 33397, Note_on_c, 0, 61, 80
2, 33397, Note_on_c, 0, 66, 80
2, 33397, Note_on_c, 0, 78, 80
2, 33401, Note_on_c, 0, 45, 0
2, 33424, Note_on_c, 0, 61, 0
2, 33424, Note_on_c, 0, 57, 0
2, 33424, Note_on_c, 0, 54, 0
2, 33481, Note_on_c, 0, 73, 0
2, 33481, Note_on_c, 0, 78, 0
2, 33483, Note_on_c, 0, 66, 0
2, 33537, Note_on_c, 0, 67, 80
2, 33537, Note_on_c, 0, 76, 80
2, 33539, Note_on_c, 0, 44, 80
2, 33539, Note_on_c, 0, 56, 80
2, 33575, Note_on_c, 0, 67, 0
2, 33578, Note_on_c, 0, 76, 0
2, 33620, Note_on_c, 0, 56, 0
2, 33622, Note_on_c, 0, 44, 0
2, 33625, Note_on_c, 0, 77, 80
2, 33627, Note_on_c, 0, 68, 80
2, 33642, Control_c, 0, 64, 127
2, 33674, Note_on_c, 0, 45, 80
2, 33674, Note_on_c, 0, 57, 80
2, 33712, Note_on_c, 0, 68, 0
2, 33724, Control_c, 0, 64, 0
2, 33757, Note_on_c, 0, 77, 0
2, 33763, Note_on_c, 0, 68, 80
2, 33763, Note_on_c, 0, 74, 80
2, 33763, Note_on_c, 0, 82, 80
2, 33802, Note_on_c, 0, 45, 0
2, 33802, Note_on_c, 0, 57, 0
2, 33808, Note_on_c, 0, 58, 80
2, 33808, Note_on_c, 0, 46, 80
2, 33890, Note_on_c, 0, 46, 0
2, 33890, Note_on_c, 0, 58, 0
2, 33944, Note_on_c, 0, 56, 80
2, 33946, Note_on_c, 0, 44, 80
2, 34066, Note_on_c, 0, 82, 0
2, 34066, Note_on_c, 0, 74, 0
2, 34066, Note_on_c, 0, 68, 0
2, 34068, Note_on_c, 0, 56, 0
2, 34068, Note_on_c, 0, 44, 0
2, 34074, Note_on_c, 0, 43, 80
2, 34074, Note_on_c, 0, 55, 80
2, 34124, Note_on_c, 0, 55, 0
2, 34126, Note_on_c, 0, 43, 0
2, 34208, Note_on_c, 0, 51, 80
2, 34208, Note_on_c, 0, 55, 80
2, 34208, Note_on_c, 0, 61, 80
2, 34208, Note_on_c, 0, 63, 80
2, 34208, Note_on_c, 0, 67, 80
2, 34208, Note_on_c, 0, 72, 80
2, 34233, Note_on_c, 0, 61, 0
2, 34235, Note_on_c, 0, 51, 0
2, 34235, Note_on_c, 0, 55, 0
2, 34289, Note_on_c, 0, 63, 0
2, 34289, Note_on_c, 0, 67, 0
2, 34289, Note_on_c, 0, 72, 0
2, 34297, Note_on_c, 0, 70, 80
2, 34333, Note_on_c, 0, 70, 0
2, 34339, Note_on_c, 0, 72, 80
2, 34341, Note_on_c, 0, 51, 80
2, 34341, Note_on_c, 0, 63, 80
2, 34341, Note_on_c, 0, 67, 80
2, 34343, Control_c, 0, 64, 127
2, 34343, Note_on_c, 0, 39, 80
2, 34390, Control_c, 0, 64, 0
2, 34422, Note_on_c, 0, 67, 0
2, 34422, Note_on_c, 0, 63, 0
2, 34422, Note_on_c, 0, 72, 0
2, 34422, Note_on_c, 0, 51, 0
2, 34424, Note_on_c, 0, 39, 0
2, 34430, Note_on_c, 0, 75, 80
2, 34469, Note_on_c, 0, 75, 0
2, 34475, Note_on_c, 0, 67, 80
2, 34477, Note_on_c, 0, 61, 80
2, 34477, Note_on_c, 0, 72, 80
2, 34479, Note_on_c, 0, 51, 80
2, 34479, Note_on_c, 0, 55, 80
2, 34504, Note_on_c, 0, 55, 0
2, 34506, Note_on_c, 0, 51, 0
2, 34560, Note_on_c, 0, 72, 0
2, 34561, Note_on_c, 0, 61, 0
2, 34561, Note_on_c, 0, 67, 0
2, 34611, Note_on_c, 0, 75, 80
2, 34615, Note_on_c, 0, 46, 80
2, 34615, Note_on_c, 0, 58, 80
2, 34615, Note_on_c, 0, 63, 80
2, 34615, Note_on_c, 0, 67, 80
2, 34653, Note_on_c, 0, 67, 0
2, 34653, Note_on_c, 0, 58, 0
2, 34653, Note_on_c, 0, 75, 0
2, 34653, Note_on_c, 0, 46, 0
2, 34653, Note_on_c, 0, 63, 0
2, 34706, Note_on_c, 0, 67, 80
2, 34706, Note_on_c, 0, 72, 80
2, 34708, Note_on_c, 0, 61, 80
2, 34755, Note_on_c, 0, 39, 80
2, 34755, Note_on_c, 0, 51, 80
2, 34757, Control_c, 0, 64, 127
2, 34838, Note_on_c, 0, 61, 0
2, 34838, Note_on_c, 0, 67, 0
2, 34838, Note_on_c, 0, 72, 0
2, 34842, Control_c, 0, 64, 0
2, 34844, Note_on_c, 0, 68, 80
2, 34846, Note_on_c, 0, 60, 80
2, 34846, Note_on_c, 0, 66, 80
2, 34851, Note_on_c, 0, 39, 0
2, 34851, Note_on_c, 0, 51, 0
2, 34891, Note_on_c, 0, 56, 80
2, 34893, Note_on_c, 0, 44, 80
2, 34975, Note_on_c, 0, 56, 0
2, 34975, Note_on_c, 0, 60, 0
2, 34975, Note_on_c, 0, 66, 0
2, 34975, Note_on_c, 0, 68, 0
2, 34977, Note_on_c, 0, 44, 0
2, 35027, Note_on_c, 0, 73, 80
2, 35027, Note_on_c, 0, 80, 80
2, 35029, Note_on_c, 0, 68, 80
2, 35031, Note_on_c, 0, 47, 80
2, 35031, Note_on_c, 0, 59, 80
2, 35112, Note_on_c, 0, 80, 0
2, 35113, Note_on_c, 0, 73, 0
2, 35113, Note_on_c, 0, 68, 0
2, 35159, Note_on_c, 0, 59, 0
2, 35160, Note_on_c, 0, 47, 0
2, 35166, Note_on_c, 0, 58, 80
2, 35166, Note_on_c, 0, 68, 80
2, 35166, Note_on_c, 0, 73, 80
2, 35166, Note_on_c, 0, 80, 80
2, 35168, Note_on_c, 0, 46, 80
2, 35213, Note_on_c, 0, 80, 0
2, 35213, Note_on_c, 0, 73, 0
2, 35213, Note_on_c, 0, 68, 0
2, 35249, Note_on_c, 0, 58, 0
2, 35296, Note_on_c, 0, 46, 0
2, 35300, Note_on_c, 0, 78, 80
2, 35302, Note_on_c, 0, 54, 80
2, 35302, Note_on_c, 0, 58, 80
2, 35302, Note_on_c, 0, 61, 80
2, 35302, Note_on_c, 0, 66, 80
2, 35302, Note_on_c, 0, 73, 80
2, 35327, Note_on_c, 0, 61, 0
2, 35328, Note_on_c, 0, 58, 0
2, 35328, Note_on_c, 0, 54, 0
2, 35380, Note_on_c, 0, 78, 0
2, 35382, Note_on_c, 0, 66, 0
2, 35382, Note_on_c, 0, 73, 0
2, 35434, Note_on_c, 0, 73, 80
2, 35434, Note_on_c, 0, 80, 80
2, 35436, Note_on_c, 0, 45, 80
2, 35436, Note_on_c, 0, 57, 80
2, 35436, Note_on_c, 0, 68, 80
2, 35481, Note_on_c, 0, 80, 0
2, 35481, Note_on_c, 0, 73, 0
2, 35483, Note_on_c, 0, 57, 0
2, 35483, Note_on_c, 0, 68, 0
2, 35564, Note_on_c, 0, 45, 0
2, 35568, Note_on_c, 0, 66, 80
2, 35568, Note_on_c, 0, 73, 80
2, 35568, Note_on_c, 0, 78, 80
2, 35569, Note_on_c, 0, 54, 80
2, 35569, Note_on_c, 0, 57, 80
2, 35569, Note_on_c, 0, 61, 80
2, 35594, Note_on_c, 0, 61, 0
2, 35594, Note_on_c, 0, 57, 0
2, 35596, Note_on_c, 0, 54, 0
2, 35695, Note_on_c, 0, 78, 0
2, 35695, Note_on_c, 0, 73, 0
2, 35699, Note_on_c, 0, 66, 0
2, 35703, Note_on_c, 0, 76, 80
2, 35703, Note_on_c, 0, 44, 80
2, 35703, Note_on_c, 0, 56, 80
2, 35703, Note_on_c, 0, 67, 80
2, 35740, Note_on_c, 0, 67, 0
2, 35742, Note_on_c, 0, 76, 0
2, 35753, Note_on_c, 0, 56, 0
2, 35753, Note_on_c, 0, 44, 0
2, 35792, Note_on_c, 0, 77, 80
2, 35794, Note_on_c, 0, 68, 80
2, 35839, Note_on_c, 0, 56, 80
2, 35839, Note_on_c, 0, 61, 80
2, 35839, Note_on_c, 0, 65, 80
2, 35862, Note_on_c, 0, 65, 0
2, 35864, Note_on_c, 0, 56, 0
2, 35864, Note_on_c, 0, 61, 0
2, 35924, Note_on_c, 0, 77, 0
2, 35928, Note_on_c, 0, 68, 0
2, 35931, Note_on_c, 0, 65, 80
2, 35931, Note_on_c, 0, 73, 80
2, 35948, Control_c, 0, 64, 127
2, 35978, Note_on_c, 0, 49, 80
2, 35978, Note_on_c, 0, 61, 80
2, 36030, Control_c, 0, 64, 0
2, 36061, Note_on_c, 0, 73, 0
2, 36063, Note_on_c, 0, 65, 0
2, 36063, Note_on_c, 0, 61, 0
2, 36075, Note_on_c, 0, 49, 0
2, 36117, Note_on_c, 0, 68, 80
2, 36117, Note_on_c, 0, 73, 80
2, 36117, Note_on_c, 0, 80, 80
2, 36119, Note_on_c, 0, 47, 80
2, 36119, Note_on_c, 0, 59, 80
2, 36199, Note_on_c, 0, 80, 0
2, 36201, Note_on_c, 0, 68, 0
2, 36201, Note_on_c, 0, 73, 0
2, 36246, Note_on_c, 0, 59, 0
2, 36248, Note_on_c, 0, 47, 0
2, 36250, Note_on_c, 0, 73, 80
2, 36250, Note_on_c, 0, 80, 80
2, 36252, Note_on_c, 0, 46, 80
2, 36252, Note_on_c, 0, 58, 80
2, 36252, Note_on_c, 0, 68, 80
2, 36302, Note_on_c, 0, 68, 0
2, 36302, Note_on_c, 0, 80, 0
2, 36302, Note_on_c, 0, 73, 0
2, 36302, Note_on_c, 0, 58, 0
2, 36383, Note_on_c, 0, 46, 0
2, 36386, Note_on_c, 0, 73, 80
2, 36386, Note_on_c, 0, 78, 80
2, 36388, Note_on_c, 0, 54, 80
2, 36388, Note_on_c, 0, 58, 80
2, 36388, Note_on_c, 0, 61, 80
2, 36388, Note_on_c, 0, 66, 80
2, 36413, Note_on_c, 0, 61, 0
2, 36413, Note_on_c, 0, 58, 0
2, 36415, Note_on_c, 0, 54, 0
2, 36465, Note_on_c, 0, 73, 0
2, 36465, Note_on_c, 0, 66, 0
2, 36465, Note_on_c, 0, 78, 0
2, 36517, Note_on_c, 0, 68, 80
2, 36517, Note_on_c, 0, 73, 80
2, 36517, Note_on_c, 0, 80, 80
2, 36519, Note_on_c, 0, 45, 80
2, 36519, Note_on_c, 0, 57, 80
2, 36562, Note_on_c, 0, 80, 0
2, 36562, Note_on_c, 0, 73, 0
2, 36564, Note_on_c, 0, 57, 0
2, 36564, Note_on_c, 0, 68, 0
2, 36632, Note_on_c, 0, 45, 0
2, 36647, Note_on_c, 0, 66, 80
2, 36647, Note_on_c, 0, 73, 80
2, 36647, Note_on_c, 0, 78, 80
2, 36648, Note_on_c, 0, 54, 80
2, 36648, Note_on_c, 0, 57, 80
2, 36648, Note_on_c, 0, 61, 80
2, 36673, Note_on_c, 0, 61, 0
2, 36675, Note_on_c, 0, 54, 0
2, 36675, Note_on_c, 0, 57, 0
2, 36731, Note_on_c, 0, 66, 0
2, 36731, Note_on_c, 0, 78, 0
2, 36731, Note_on_c, 0, 73, 0
2, 36783, Note_on_c, 0, 76, 80
2, 36785, Note_on_c, 0, 44, 80
2, 36785, Note_on_c, 0, 56, 80
2, 36785, Note_on_c, 0, 67, 80
2, 36820, Note_on_c, 0, 67, 0
2, 36824, Note_on_c, 0, 76, 0
2, 36833, Note_on_c, 0, 56, 0
2, 36833, Note_on_c, 0, 44, 0
2, 36872, Note_on_c, 0, 77, 80
2, 36874, Note_on_c, 0, 68, 80
2, 36921, Note_on_c, 0, 56, 80
2, 36921, Note_on_c, 0, 61, 80
2, 36921, Note_on_c, 0, 65, 80
2, 36948, Note_on_c, 0, 65, 0
2, 36948, Note_on_c, 0, 61, 0
2, 36950, Note_on_c, 0, 56, 0
2, 37006, Note_on_c, 0, 77, 0
2, 37008, Note_on_c, 0, 68, 0
2, 37011, Note_on_c, 0, 73, 80
2, 37013, Note_on_c, 0, 65, 80
2, 37058, Note_on_c, 0, 61, 80
2, 37060, Note_on_c, 0, 49, 80
2, 37139, Note_on_c, 0, 73, 0
2, 37141, Note_on_c, 0, 65, 0
2, 37141, Note_on_c, 0, 61, 0
2, 37141, Note_on_c, 0, 49, 0
2, 37195, Note_on_c, 0, 80, 80
2, 37197, Note_on_c, 0, 59, 80
2, 37197, Note_on_c, 0, 68, 80
2, 37197, Note_on_c, 0, 73, 80
2, 37199, Note_on_c, 0, 47, 80
2, 37279, Note_on_c, 0, 73, 0
2, 37279, Note_on_c, 0, 68, 0
2, 37279, Note_on_c, 0, 80, 0
2, 37326, Note_on_c, 0, 59, 0
2, 37326, Note_on_c, 0, 47, 0
2, 37332, Note_on_c, 0, 68, 80
2, 37332, Note_on_c, 0, 73, 80
2, 37332, Note_on_c, 0, 80, 80
2, 37334, Note_on_c, 0, 46, 80
2, 37334, Note_on_c, 0, 58, 80
2, 37379, Note_on_c, 0, 80, 0
2, 37381, Note_on_c, 0, 68, 0
2, 37381, Note_on_c, 0, 58, 0
2, 37381, Note_on_c, 0, 73, 0
2, 37464, Note_on_c, 0, 46, 0
2, 37467, Note_on_c, 0, 66, 80
2, 37467, Note_on_c, 0, 73, 80
2, 37467, Note_on_c, 0, 78, 80
2, 37469, Note_on_c, 0, 54, 80
2, 37469, Note_on_c, 0, 58, 80
2, 37469, Note_on_c, 0, 61, 80
2, 37494, Note_on_c, 0, 61, 0
2, 37496, Note_on_c, 0, 54, 0
2, 37496, Note_on_c, 0, 58, 0
2, 37552, Note_on_c, 0, 73, 0
2, 37552, Note_on_c, 0, 78, 0
2, 37554, Note_on_c, 0, 66, 0
2, 37606, Note_on_c, 0, 80, 80
2, 37608, Note_on_c, 0, 73, 80
2, 37609, Note_on_c, 0, 45, 80
2, 37609, Note_on_c, 0, 57, 80
2, 37609, Note_on_c, 0, 68, 80
2, 37653, Note_on_c, 0, 73, 0
2, 37653, Note_on_c, 0, 80, 0
2, 37655, Note_on_c, 0, 57, 0
2, 37655, Note_on_c, 0, 68, 0
2, 37743, Note_on_c, 0, 57, 80
2, 37743, Note_on_c, 0, 61, 80
2, 37743, Note_on_c, 0, 66, 80
2, 37743, Note_on_c, 0, 73, 80
2, 37743, Note_on_c, 0, 78, 80
2, 37745, Note_on_c, 0, 54, 80
2, 37749, Note_on_c, 0, 45, 0
2, 37770, Note_on_c, 0, 61, 0
2, 37770, Note_on_c, 0, 57, 0
2, 37770, Note_on_c, 0, 54, 0
2, 37825, Note_on_c, 0, 66, 0
2, 37825, Note_on_c, 0, 73, 0
2, 37825, Note_on_c, 0, 78, 0
2, 37877, Note_on_c, 0, 76, 80
2, 37879, Note_on_c, 0, 56, 80
2, 37879, Note_on_c, 0, 67, 80
2, 37881, Note_on_c, 0, 44, 80
2, 37919, Note_on_c, 0, 67, 0
2, 37922, Note_on_c, 0, 76, 0
2, 37955, Control_c, 0, 64, 127
2, 37968, Note_on_c, 0, 56, 0
2, 37968, Note_on_c, 0, 44, 0
2, 37971, Note_on_c, 0, 68, 80
2, 37971, Note_on_c, 0, 77, 80
2, 38018, Note_on_c, 0, 57, 80
2, 38020, Note_on_c, 0, 45, 80
2, 38033, Control_c, 0, 64, 0
2, 38051, Note_on_c, 0, 68, 0
2, 38096, Note_on_c, 0, 77, 0
2, 38105, Note_on_c, 0, 74, 80
2, 38105, Note_on_c, 0, 82, 80
2, 38107, Note_on_c, 0, 68, 80
2, 38146, Note_on_c, 0, 57, 0
2, 38146, Note_on_c, 0, 45, 0
2, 38155, Note_on_c, 0, 46, 80
2, 38155, Note_on_c, 0, 58, 80
2, 38235, Note_on_c, 0, 58, 0
2, 38237, Note_on_c, 0, 46, 0
2, 38289, Note_on_c, 0, 44, 80
2, 38289, Note_on_c, 0, 56, 80
2, 38419, Note_on_c, 0, 56, 0
2, 38419, Note_on_c, 0, 68, 0
2, 38419, Note_on_c, 0, 82, 0
2, 38419, Note_on_c, 0, 74, 0
2, 38419, Note_on_c, 0, 44, 0
2, 38427, Note_on_c, 0, 43, 80
2, 38427, Note_on_c, 0, 55, 80
2, 38474, Note_on_c, 0, 55, 0
2, 38474, Note_on_c, 0, 43, 0
2, 38516, Note_on_c, 0, 76, 80
2, 38557, Note_on_c, 0, 76, 0
2, 38561, Note_on_c, 0, 67, 80
2, 38561, Note_on_c, 0, 73, 80
2, 38561, Note_on_c, 0, 77, 80
2, 38563, Note_on_c, 0, 51, 80
2, 38563, Note_on_c, 0, 55, 80
2, 38563, Note_on_c, 0, 61, 80
2, 38588, Note_on_c, 0, 61, 0
2, 38588, Note_on_c, 0, 55, 0
2, 38590, Note_on_c, 0, 51, 0
2, 38643, Note_on_c, 0, 67, 0
2, 38643, Note_on_c, 0, 73, 0
2, 38643, Note_on_c, 0, 77, 0
2, 38649, Note_on_c, 0, 76, 80
2, 38690, Note_on_c, 0, 76, 0
2, 38694, Note_on_c, 0, 56, 80
2, 38694, Note_on_c, 0, 66, 80
2, 38694, Note_on_c, 0, 73, 80
2, 38696, Note_on_c, 0, 44, 80
2, 38734, Note_on_c, 0, 73, 0
2, 38734, Note_on_c, 0, 66, 0
2, 38746, Note_on_c, 0, 56, 0
2, 38746, Note_on_c, 0, 44, 0
2, 38769, Control_c, 0, 64, 127
2, 38787, Note_on_c, 0, 72, 80
2, 38787, Note_on_c, 0, 75, 80
2, 38789, Note_on_c, 0, 66, 80
2, 38834, Note_on_c, 0, 44, 80
2, 38834, Note_on_c, 0, 56, 80
2, 38884, Control_c, 0, 64, 0
2, 38911, Note_on_c, 0, 56, 0
2, 38913, Note_on_c, 0, 44, 0
2, 38956, Note_on_c, 0, 72, 0
2, 38956, Note_on_c, 0, 75, 0
2, 38956, Note_on_c, 0, 66, 0
2, 38965, Note_on_c, 0, 49, 80
2, 38965, Note_on_c, 0, 61, 80
2, 38965, Note_on_c, 0, 65, 80
2, 38965, Note_on_c, 0, 68, 80
2, 38965, Note_on_c, 0, 73, 80
2, 39012, Note_on_c, 0, 73, 0
2, 39012, Note_on_c, 0, 65, 0
2, 39012, Note_on_c, 0, 68, 0
2, 39012, Note_on_c, 0, 61, 0
2, 39014, Note_on_c, 0, 49, 0
2, 39098, Note_on_c, 0, 37, 80
2, 39098, Note_on_c, 0, 49, 80
2, 39226, Note_on_c, 0, 49, 0
2, 39228, Note_on_c, 0, 37, 0
2, 39234, Note_on_c, 0, 39, 80
2, 39234, Note_on_c, 0, 51, 80
2, 39361, Note_on_c, 0, 51, 0
2, 39361, Note_on_c, 0, 39, 0
2, 39370, Note_on_c, 0, 41, 80
2, 39370, Note_on_c, 0, 53, 80
2, 39500, Note_on_c, 0, 41, 0
2, 39502, Note_on_c, 0, 53, 0
2, 39505, Note_on_c, 0, 54, 80
2, 39505, Note_on_c, 0, 66, 80
2, 39505, Note_on_c, 0, 70, 80
2, 39505, Note_on_c, 0, 73, 80
2, 39507, Note_on_c, 0, 42, 80
2, 39557, Note_on_c, 0, 42, 0
2, 39557, Note_on_c, 0, 70, 0
2, 39557, Note_on_c, 0, 54, 0
2, 39557, Note_on_c, 0, 66, 0
2, 39557, Note_on_c, 0, 73, 0
2, 39646, Note_on_c, 0, 54, 80
2, 39646, Note_on_c, 0, 58, 80
2, 39648, Note_on_c, 0, 61, 80
2, 39672, Note_on_c, 0, 61, 0
2, 39672, Note_on_c, 0, 58, 0
2, 39672, Note_on_c, 0, 54, 0
2, 39784, Note_on_c, 0, 70, 80
2, 39784, Note_on_c, 0, 73, 80
2, 39786, Note_on_c, 0, 43, 80
2, 39786, Note_on_c, 0, 55, 80
2, 39786, Note_on_c, 0, 64, 80
2, 39868, Note_on_c, 0, 64, 0
2, 39868, Note_on_c, 0, 73, 0
2, 39868, Note_on_c, 0, 70, 0
2, 39868, Note_on_c, 0, 55, 0
2, 39870, Note_on_c, 0, 43, 0
2, 39924, Note_on_c, 0, 55, 80
2, 39924, Note_on_c, 0, 58, 80
2, 39924, Note_on_c, 0, 61, 80
2, 39951, Note_on_c, 0, 61, 0
2, 39951, Note_on_c, 0, 58, 0
2, 39951, Note_on_c, 0, 55, 0
2, 40062, Note_on_c, 0, 44, 80
2, 40062, Note_on_c, 0, 56, 80
2, 40062, Note_on_c, 0, 65, 80
2, 40062, Note_on_c, 0, 71, 80
2, 40062, Note_on_c, 0, 73, 80
2, 40112, Note_on_c, 0, 73, 0
2, 40112, Note_on_c, 0, 65, 0
2, 40112, Note_on_c, 0, 44, 0
2, 40112, Note_on_c, 0, 56, 0
2, 40112, Note_on_c, 0, 71, 0
2, 40199, Note_on_c, 0, 59, 80
2, 40199, Note_on_c, 0, 61, 80
2, 40200, Note_on_c, 0, 53, 80
2, 40225, Note_on_c, 0, 61, 0
2, 40225, Note_on_c, 0, 59, 0
2, 40227, Note_on_c, 0, 53, 0
2, 40290, Note_on_c, 0, 65, 80
2, 40290, Note_on_c, 0, 69, 80
2, 40290, Note_on_c, 0, 73, 80
2, 40302, Control_c, 0, 64, 127
2, 40335, Note_on_c, 0, 37, 80
2, 40335, Note_on_c, 0, 49, 80
2, 40374, Note_on_c, 0, 73, 0
2, 40374, Note_on_c, 0, 65, 0
2, 40374, Note_on_c, 0, 69, 0
2, 40407, Note_on_c, 0, 37, 0
2, 40419, Note_on_c, 0, 49, 0
2, 40421, Control_c, 0, 64, 0
2, 40438, Note_on_c, 0, 73, 80
2, 40440, Note_on_c, 0, 65, 80
2, 40440, Note_on_c, 0, 69, 80
2, 40483, Note_on_c, 0, 53, 80
2, 40483, Note_on_c, 0, 59, 80
2, 40483, Note_on_c, 0, 61, 80
2, 40508, Note_on_c, 0, 61, 0
2, 40508, Note_on_c, 0, 53, 0
2, 40508, Note_on_c, 0, 59, 0
2, 40561, Note_on_c, 0, 73, 0
2, 40561, Note_on_c, 0, 69, 0
2, 40563, Note_on_c, 0, 65, 0
2, 40615, Note_on_c, 0, 42, 80
2, 40615, Note_on_c, 0, 54, 80
2, 40615, Note_on_c, 0, 66, 80
2, 40615, Note_on_c, 0, 70, 80
2, 40615, Note_on_c, 0, 73, 80
2, 40662, Note_on_c, 0, 66, 0
2, 40662, Note_on_c, 0, 42, 0
2, 40664, Note_on_c, 0, 54, 0
2, 40664, Note_on_c, 0, 70, 0
2, 40664, Note_on_c, 0, 73, 0
2, 40749, Note_on_c, 0, 54, 80
2, 40749, Note_on_c, 0, 58, 80
2, 40749, Note_on_c, 0, 61, 80
2, 40776, Note_on_c, 0, 61, 0
2, 40776, Note_on_c, 0, 58, 0
2, 40776, Note_on_c, 0, 54, 0
2, 40885, Note_on_c, 0, 43, 80
2, 40885, Note_on_c, 0, 55, 80
2, 40885, Note_on_c, 0, 64, 80
2, 40885, Note_on_c, 0, 70, 80
2, 40885, Note_on_c, 0, 73, 80
2, 40966, Note_on_c, 0, 43, 0
2, 40968, Note_on_c, 0, 70, 0
2, 40968, Note_on_c, 0, 55, 0
2, 40968, Note_on_c, 0, 64, 0
2, 40968, Note_on_c, 0, 73, 0
2, 41021, Note_on_c, 0, 55, 80
2, 41021, Note_on_c, 0, 58, 80
2, 41021, Note_on_c, 0, 61, 80
2, 41048, Note_on_c, 0, 61, 0
2, 41048, Note_on_c, 0, 58, 0
2, 41048, Note_on_c, 0, 55, 0
2, 41156, Note_on_c, 0, 44, 80
2, 41156, Note_on_c, 0, 56, 80
2, 41156, Note_on_c, 0, 65, 80
2, 41158, Note_on_c, 0, 71, 80
2, 41158, Note_on_c, 0, 73, 80
2, 41205, Note_on_c, 0, 73, 0
2, 41205, Note_on_c, 0, 65, 0
2, 41205, Note_on_c, 0, 44, 0
2, 41205, Note_on_c, 0, 56, 0
2, 41205, Note_on_c, 0, 71, 0
2, 41291, Note_on_c, 0, 59, 80
2, 41293, Note_on_c, 0, 53, 80
2, 41293, Note_on_c, 0, 61, 80
2, 41320, Note_on_c, 0, 61, 0
2, 41320, Note_on_c, 0, 53, 0
2, 41320, Note_on_c, 0, 59, 0
2, 41359, Control_c, 0, 64, 127
2, 41382, Note_on_c, 0, 73, 80
2, 41384, Note_on_c, 0, 65, 80
2, 41384, Note_on_c, 0, 69, 80
2, 41425, Note_on_c, 0, 37, 80
2, 41427, Note_on_c, 0, 49, 80
2, 41463, Note_on_c, 0, 69, 0
2, 41463, Note_on_c, 0, 73, 0
2, 41463, Note_on_c, 0, 65, 0
2, 41473, Control_c, 0, 64, 0
2, 41506, Note_on_c, 0, 37, 0
2, 41506, Note_on_c, 0, 49, 0
2, 41512, Note_on_c, 0, 69, 80
2, 41512, Note_on_c, 0, 73, 80
2, 41514, Note_on_c, 0, 65, 80
2, 41559, Note_on_c, 0, 53, 80
2, 41559, Note_on_c, 0, 59, 80
2, 41559, Note_on_c, 0, 61, 80
2, 41584, Note_on_c, 0, 61, 0
2, 41584, Note_on_c, 0, 59, 0
2, 41586, Note_on_c, 0, 53, 0
2, 41641, Note_on_c, 0, 65, 0
2, 41641, Note_on_c, 0, 69, 0
2, 41643, Note_on_c, 0, 73, 0
2, 41695, Note_on_c, 0, 42, 80
2, 41695, Note_on_c, 0, 54, 80
2, 41695, Note_on_c, 0, 66, 80
2, 41695, Note_on_c, 0, 70, 80
2, 41695, Note_on_c, 0, 73, 80
2, 41742, Note_on_c, 0, 54, 0
2, 41742, Note_on_c, 0, 42, 0
2, 41744, Note_on_c, 0, 70, 0
2, 41744, Note_on_c, 0, 66, 0
2, 41744, Note_on_c, 0, 73, 0
2, 41831, Note_on_c, 0, 54, 80
2, 41831, Note_on_c, 0, 58, 80
2, 41831, Note_on_c, 0, 61, 80
2, 41859, Note_on_c, 0, 61, 0
2, 41859, Note_on_c, 0, 58, 0
2, 41859, Note_on_c, 0, 54, 0
2, 41967, Note_on_c, 0, 43, 80
2, 41969, Note_on_c, 0, 55, 80
2, 41969, Note_on_c, 0, 64, 80
2, 41969, Note_on_c, 0, 70, 80
2, 41969, Note_on_c, 0, 73, 80
2, 42051, Note_on_c, 0, 70, 0
2, 42051, Note_on_c, 0, 55, 0
2, 42051, Note_on_c, 0, 43, 0
2, 42053, Note_on_c, 0, 64, 0
2, 42053, Note_on_c, 0, 73, 0
2, 42105, Note_on_c, 0, 55, 80
2, 42105, Note_on_c, 0, 58, 80
2, 42105, Note_on_c, 0, 61, 80
2, 42130, Note_on_c, 0, 55, 0
2, 42132, Note_on_c, 0, 61, 0
2, 42132, Note_on_c, 0, 58, 0
2, 42243, Note_on_c, 0, 44, 80
2, 42245, Note_on_c, 0, 56, 80
2, 42245, Note_on_c, 0, 65, 80
2, 42245, Note_on_c, 0, 68, 80
2, 42245, Note_on_c, 0, 73, 80
2, 42328, Note_on_c, 0, 73, 0
2, 42328, Note_on_c, 0, 65, 0
2, 42328, Note_on_c, 0, 68, 0
2, 42384, Note_on_c, 0, 56, 0
2, 42384, Note_on_c, 0, 44, 0
2, 42472, Note_on_c, 0, 65, 80
2, 42472, Note_on_c, 0, 68, 80
2, 42472, Note_on_c, 0, 73, 80
2, 42517, Note_on_c, 0, 46, 80
2, 42517, Note_on_c, 0, 58, 80
2, 42554, Note_on_c, 0, 73, 0
2, 42554, Note_on_c, 0, 65, 0
2, 42554, Note_on_c, 0, 68, 0
2, 42606, Note_on_c, 0, 73, 80
2, 42608, Note_on_c, 0, 65, 80
2, 42608, Note_on_c, 0, 68, 80
2, 42646, Note_on_c, 0, 46, 0
2, 42646, Note_on_c, 0, 58, 0
2, 42654, Note_on_c, 0, 44, 80
2, 42656, Note_on_c, 0, 56, 80
2, 42735, Note_on_c, 0, 65, 0
2, 42735, Note_on_c, 0, 68, 0
2, 42735, Note_on_c, 0, 73, 0
2, 42780, Note_on_c, 0, 44, 0
2, 42780, Note_on_c, 0, 56, 0
2, 42786, Note_on_c, 0, 43, 80
2, 42788, Note_on_c, 0, 55, 80
2, 42838, Note_on_c, 0, 55, 0
2, 42838, Note_on_c, 0, 43, 0
2, 42929, Note_on_c, 0, 51, 80
2, 42929, Note_on_c, 0, 55, 80
2, 42929, Note_on_c, 0, 61, 80
2, 42929, Note_on_c, 0, 67, 80
2, 42929, Note_on_c, 0, 72, 80
2, 42956, Note_on_c, 0, 55, 0
2, 42956, Note_on_c, 0, 51, 0
2, 43001, Note_on_c, 0, 67, 0
2, 43001, Note_on_c, 0, 61, 0
2, 43013, Note_on_c, 0, 72, 0
2, 43022, Note_on_c, 0, 70, 80
2, 43059, Note_on_c, 0, 70, 0
2, 43065, Note_on_c, 0, 39, 80
2, 43067, Note_on_c, 0, 51, 80
2, 43067, Note_on_c, 0, 61, 80
2, 43067, Note_on_c, 0, 67, 80
2, 43067, Note_on_c, 0, 72, 80
2, 43114, Note_on_c, 0, 39, 0
2, 43116, Note_on_c, 0, 51, 0
2, 43147, Note_on_c, 0, 61, 0
2, 43149, Note_on_c, 0, 67, 0
2, 43149, Note_on_c, 0, 72, 0
2, 43154, Note_on_c, 0, 75, 80
2, 43196, Note_on_c, 0, 75, 0
2, 43201, Note_on_c, 0, 51, 80
2, 43201, Note_on_c, 0, 55, 80
2, 43201, Note_on_c, 0, 61, 80
2, 43201, Note_on_c, 0, 67, 80
2, 43203, Note_on_c, 0, 72, 80
2, 43226, Note_on_c, 0, 55, 0
2, 43226, Note_on_c, 0, 51, 0
2, 43284, Note_on_c, 0, 67, 0
2, 43284, Note_on_c, 0, 61, 0
2, 43284, Note_on_c, 0, 72, 0
2, 43336, Note_on_c, 0, 75, 80
2, 43338, Note_on_c, 0, 46, 80
2, 43338, Note_on_c, 0, 58, 80
2, 43338, Note_on_c, 0, 63, 80
2, 43338, Note_on_c, 0, 67, 80
2, 43375, Note_on_c, 0, 67, 0
2, 43375, Note_on_c, 0, 75, 0
2, 43375, Note_on_c, 0, 63, 0
2, 43388, Note_on_c, 0, 58, 0
2, 43388, Note_on_c, 0, 46, 0
2, 43429, Note_on_c, 0, 61, 80
2, 43429, Note_on_c, 0, 67, 80
2, 43429, Note_on_c, 0, 72, 80
2, 43472, Note_on_c, 0, 39, 80
2, 43474, Note_on_c, 0, 51, 80
2, 43553, Note_on_c, 0, 72, 0
2, 43553, Note_on_c, 0, 61, 0
2, 43555, Note_on_c, 0, 67, 0
2, 43560, Note_on_c, 0, 60, 80
2, 43560, Note_on_c, 0, 68, 80
2, 43562, Note_on_c, 0, 66, 80
2, 43585, Note_on_c, 0, 51, 0
2, 43585, Note_on_c, 0, 39, 0
2, 43607, Note_on_c, 0, 44, 80
2, 43607, Note_on_c, 0, 56, 80
2, 43685, Note_on_c, 0, 44, 0
2, 43685, Note_on_c, 0, 68, 0
2, 43685, Note_on_c, 0, 60, 0
2, 43687, Note_on_c, 0, 66, 0
2, 43687, Note_on_c, 0, 56, 0
2, 43704, Control_c, 0, 64, 127
2, 43739, Note_on_c, 0, 37, 80
2, 43739, Note_on_c, 0, 49, 80
2, 43739, Note_on_c, 0, 59, 80
2, 43739, Note_on_c, 0, 65, 80
2, 43739, Note_on_c, 0, 68, 80
2, 43820, Control_c, 0, 64, 0
2, 43870, Note_on_c, 0, 68, 0
2, 43870, Note_on_c, 0, 59, 0
2, 43870, Note_on_c, 0, 37, 0
2, 43870, Note_on_c, 0, 49, 0
2, 43870, Note_on_c, 0, 65, 0
2, 43875, Note_on_c, 0, 42, 80
2, 43877, Note_on_c, 0, 54, 80
2, 43877, Note_on_c, 0, 66, 80
2, 43877, Note_on_c, 0, 70, 80
2, 43877, Note_on_c, 0, 73, 80
2, 43924, Note_on_c, 0, 73, 0
2, 43924, Note_on_c, 0, 66, 0
2, 43924, Note_on_c, 0, 54, 0
2, 43926, Note_on_c, 0, 70, 0
2, 44003, Note_on_c, 0, 42, 0
2, 44012, Note_on_c, 0, 61, 80
2, 44014, Note_on_c, 0, 54, 80
2, 44014, Note_on_c, 0, 58, 80
2, 44039, Note_on_c, 0, 58, 0
2, 44039, Note_on_c, 0, 54, 0
2, 44039, Note_on_c, 0, 61, 0
2, 44148, Note_on_c, 0, 43, 80
2, 44150, Note_on_c, 0, 55, 80
2, 44150, Note_on_c, 0, 64, 80
2, 44150, Note_on_c, 0, 70, 80
2, 44150, Note_on_c, 0, 73, 80
2, 44195, Note_on_c, 0, 55, 0
2, 44197, Note_on_c, 0, 70, 0
2, 44197, Note_on_c, 0, 73, 0
2, 44197, Note_on_c, 0, 64, 0
2, 44276, Note_on_c, 0, 43, 0
2, 44284, Note_on_c, 0, 55, 80
2, 44284, Note_on_c, 0, 58, 80
2, 44284, Note_on_c, 0, 61, 80
2, 44311, Note_on_c, 0, 61, 0
2, 44311, Note_on_c, 0, 58, 0
2, 44311, Note_on_c, 0, 55, 0
2, 44421, Note_on_c, 0, 44, 80
2, 44421, Note_on_c, 0, 56, 80
2, 44421, Note_on_c, 0, 65, 80
2, 44421, Note_on_c, 0, 71, 80
2, 44423, Note_on_c, 0, 73, 80
2, 44503, Note_on_c, 0, 44, 0
2, 44505, Note_on_c, 0, 71, 0
2, 44505, Note_on_c, 0, 56, 0
2, 44505, Note_on_c, 0, 65, 0
2, 44505, Note_on_c, 0, 73, 0
2, 44557, Note_on_c, 0, 53, 80
2, 44557, Note_on_c, 0, 59, 80
2, 44557, Note_on_c, 0, 61, 80
2, 44582, Note_on_c, 0, 61, 0
2, 44582, Note_on_c, 0, 59, 0
2, 44582, Note_on_c, 0, 53, 0
2, 44621, Control_c, 0, 64, 127
2, 44646, Note_on_c, 0, 65, 80
2, 44646, Note_on_c, 0, 69, 80
2, 44646, Note_on_c, 0, 73, 80
2, 44693, Note_on_c, 0, 37, 80
2, 44695, Note_on_c, 0, 49, 80
2, 44731, Note_on_c, 0, 65, 0
2, 44733, Note_on_c, 0, 69, 0
2, 44733, Note_on_c, 0, 73, 0
2, 44741, Control_c, 0, 64, 0
2, 44777, Note_on_c, 0, 37, 0
2, 44777, Note_on_c, 0, 49, 0
2, 44787, Note_on_c, 0, 65, 80
2, 44787, Note_on_c, 0, 69, 80
2, 44787, Note_on_c, 0, 73, 80
2, 44832, Note_on_c, 0, 53, 80
2, 44832, Note_on_c, 0, 59, 80
2, 44832, Note_on_c, 0, 61, 80
2, 44857, Note_on_c, 0, 61, 0
2, 44857, Note_on_c, 0, 59, 0
2, 44859, Note_on_c, 0, 53, 0
2, 44917, Note_on_c, 0, 65, 0
2, 44917, Note_on_c, 0, 69, 0
2, 44917, Note_on_c, 0, 73, 0
2, 44969, Note_on_c, 0, 42, 80
2, 44971, Note_on_c, 0, 54, 80
2, 44971, Note_on_c, 0, 66, 80
2, 44971, Note_on_c, 0, 70, 80
2, 44971, Note_on_c, 0, 73, 80
2, 45018, Note_on_c, 0, 54, 0
2, 45020, Note_on_c, 0, 70, 0
2, 45020, Note_on_c, 0, 73, 0
2, 45020, Note_on_c, 0, 66, 0
2, 45098, Note_on_c, 0, 42, 0
2, 45109, Note_on_c, 0, 54, 80
2, 45109, Note_on_c, 0, 58, 80
2, 45109, Note_on_c, 0, 61, 80
2, 45136, Note_on_c, 0, 61, 0
2, 45136, Note_on_c, 0, 58, 0
2, 45136, Note_on_c, 0, 54, 0
2, 45243, Note_on_c, 0, 43, 80
2, 45243, Note_on_c, 0, 55, 80
2, 45243, Note_on_c, 0, 64, 80
2, 45243, Note_on_c, 0, 70, 80
2, 45243, Note_on_c, 0, 73, 80
2, 45293, Note_on_c, 0, 73, 0
2, 45293, Note_on_c, 0, 64, 0
2, 45293, Note_on_c, 0, 70, 0
2, 45293, Note_on_c, 0, 55, 0
2, 45372, Note_on_c, 0, 43, 0
2, 45381, Note_on_c, 0, 55, 80
2, 45381, Note_on_c, 0, 58, 80
2, 45381, Note_on_c, 0, 61, 80
2, 45408, Note_on_c, 0, 61, 0
2, 45408, Note_on_c, 0, 58, 0
2, 45408, Note_on_c, 0, 55, 0
2, 45519, Note_on_c, 0, 44, 80
2, 45521, Note_on_c, 0, 56, 80
2, 45521, Note_on_c, 0, 65, 80
2, 45521, Note_on_c, 0, 71, 80
2, 45521, Note_on_c, 0, 73, 80
2, 45600, Note_on_c, 0, 44, 0
2, 45601, Note_on_c, 0, 71, 0
2, 45601, Note_on_c, 0, 56, 0
2, 45601, Note_on_c, 0, 65, 0
2, 45601, Note_on_c, 0, 73, 0
2, 45655, Note_on_c, 0, 53, 80
2, 45655, Note_on_c, 0, 59, 80
2, 45655, Note_on_c, 0, 61, 80
2, 45680, Note_on_c, 0, 61, 0
2, 45680, Note_on_c, 0, 59, 0
2, 45682, Note_on_c, 0, 53, 0
2, 45746, Note_on_c, 0, 65, 80
2, 45746, Note_on_c, 0, 73, 80
2, 45748, Note_on_c, 0, 69, 80
2, 45793, Note_on_c, 0, 37, 80
2, 45793, Note_on_c, 0, 49, 80
2, 45829, Note_on_c, 0, 69, 0
2, 45829, Note_on_c, 0, 73, 0
2, 45831, Note_on_c, 0, 65, 0
2, 45874, Note_on_c, 0, 49, 0
2, 45874, Note_on_c, 0, 37, 0
2, 45883, Note_on_c, 0, 69, 80
2, 45885, Note_on_c, 0, 65, 80
2, 45885, Note_on_c, 0, 73, 80
2, 45928, Note_on_c, 0, 59, 80
2, 45928, Note_on_c, 0, 61, 80
2, 45930, Note_on_c, 0, 53, 80
2, 45955, Note_on_c, 0, 61, 0
2, 45955, Note_on_c, 0, 59, 0
2, 45957, Note_on_c, 0, 53, 0
2, 46012, Note_on_c, 0, 69, 0
2, 46012, Note_on_c, 0, 73, 0
2, 46012, Note_on_c, 0, 65, 0
2, 46064, Note_on_c, 0, 70, 80
2, 46066, Note_on_c, 0, 42, 80
2, 46066, Note_on_c, 0, 54, 80
2, 46066, Note_on_c, 0, 66, 80
2, 46066, Note_on_c, 0, 73, 80
2, 46111, Note_on_c, 0, 73, 0
2, 46111, Note_on_c, 0, 54, 0
2, 46111, Note_on_c, 0, 70, 0
2, 46113, Note_on_c, 0, 66, 0
2, 46190, Note_on_c, 0, 42, 0
2, 46200, Note_on_c, 0, 54, 80
2, 46200, Note_on_c, 0, 58, 80
2, 46200, Note_on_c, 0, 61, 80
2, 46227, Note_on_c, 0, 61, 0
2, 46227, Note_on_c, 0, 58, 0
2, 46227, Note_on_c, 0, 54, 0
2, 46339, Note_on_c, 0, 43, 80
2, 46339, Note_on_c, 0, 55, 80
2, 46339, Note_on_c, 0, 64, 80
2, 46339, Note_on_c, 0, 70, 80
2, 46339, Note_on_c, 0, 73, 80
2, 46419, Note_on_c, 0, 73, 0
2, 46419, Note_on_c, 0, 64, 0
2, 46419, Note_on_c, 0, 43, 0
2, 46419, Note_on_c, 0, 55, 0
2, 46419, Note_on_c, 0, 70, 0
2, 46471, Note_on_c, 0, 55, 80
2, 46471, Note_on_c, 0, 58, 80
2, 46471, Note_on_c, 0, 61, 80
2, 46496, Note_on_c, 0, 61, 0
2, 46496, Note_on_c, 0, 58, 0
2, 46496, Note_on_c, 0, 55, 0
2, 46606, Note_on_c, 0, 44, 80
2, 46606, Note_on_c, 0, 56, 80
2, 46606, Note_on_c, 0, 68, 80
2, 46606, Note_on_c, 0, 73, 80
2, 46608, Note_on_c, 0, 65, 80
2, 46688, Note_on_c, 0, 56, 0
2, 46688, Note_on_c, 0, 44, 0
2, 46740, Note_on_c, 0, 56, 80
2, 46742, Note_on_c, 0, 53, 80
2, 46742, Note_on_c, 0, 61, 80
2, 46744, Note_on_c, 0, 73, 0
2, 46744, Note_on_c, 0, 65, 0
2, 46744, Note_on_c, 0, 68, 0
2, 46767, Note_on_c, 0, 56, 0
2, 46767, Note_on_c, 0, 61, 0
2, 46769, Note_on_c, 0, 53, 0
2, 46831, Note_on_c, 0, 65, 80
2, 46831, Note_on_c, 0, 68, 80
2, 46831, Note_on_c, 0, 73, 80
2, 46874, Note_on_c, 0, 46, 80
2, 46874, Note_on_c, 0, 58, 80
2, 46914, Note_on_c, 0, 73, 0
2, 46914, Note_on_c, 0, 65, 0
2, 46914, Note_on_c, 0, 68, 0
2, 46959, Note_on_c, 0, 46, 0
2, 46959, Note_on_c, 0, 58, 0
2, 46968, Note_on_c, 0, 65, 80
2, 46968, Note_on_c, 0, 68, 80
2, 46968, Note_on_c, 0, 73, 80
2, 47015, Note_on_c, 0, 44, 80
2, 47015, Note_on_c, 0, 56, 80
2, 47095, Note_on_c, 0, 73, 0
2, 47095, Note_on_c, 0, 65, 0
2, 47095, Note_on_c, 0, 68, 0
2, 47142, Note_on_c, 0, 44, 0
2, 47142, Note_on_c, 0, 56, 0
2, 47151, Note_on_c, 0, 43, 80
2, 47151, Note_on_c, 0, 55, 80
2, 47233, Note_on_c, 0, 55, 0
2, 47235, Note_on_c, 0, 43, 0
2, 47241, Note_on_c, 0, 76, 80
2, 47284, Note_on_c, 0, 76, 0
2, 47288, Note_on_c, 0, 51, 80
2, 47288, Note_on_c, 0, 55, 80
2, 47288, Note_on_c, 0, 61, 80
2, 47288, Note_on_c, 0, 67, 80
2, 47288, Note_on_c, 0, 73, 80
2, 47288, Note_on_c, 0, 77, 80
2, 47313, Note_on_c, 0, 61, 0
2, 47315, Note_on_c, 0, 51, 0
2, 47315, Note_on_c, 0, 55, 0
2, 47373, Note_on_c, 0, 67, 0
2, 47373, Note_on_c, 0, 73, 0
2, 47375, Note_on_c, 0, 77, 0
2, 47424, Note_on_c, 0, 66, 80
2, 47424, Note_on_c, 0, 73, 80
2, 47426, Note_on_c, 0, 44, 80
2, 47426, Note_on_c, 0, 56, 80
2, 47464, Note_on_c, 0, 56, 0
2, 47464, Note_on_c, 0, 66, 0
2, 47464, Note_on_c, 0, 73, 0
2, 47464, Note_on_c, 0, 44, 0
2, 47518, Note_on_c, 0, 66, 80
2, 47518, Note_on_c, 0, 72, 80
2, 47518, Note_on_c, 0, 75, 80
2, 47563, Note_on_c, 0, 56, 80
2, 47565, Note_on_c, 0, 44, 80
2, 47688, Note_on_c, 0, 56, 0
2, 47688, Note_on_c, 0, 72, 0
2, 47688, Note_on_c, 0, 66, 0
2, 47690, Note_on_c, 0, 75, 0
2, 47690, Note_on_c, 0, 44, 0
2, 47696, Note_on_c, 0, 49, 80
2, 47696, Note_on_c, 0, 61, 80
2, 47696, Note_on_c, 0, 65, 80
2, 47696, Note_on_c, 0, 68, 80
2, 47696, Note_on_c, 0, 73, 80
2, 47746, Note_on_c, 0, 73, 0
2, 47746, Note_on_c, 0, 65, 0
2, 47746, Note_on_c, 0, 49, 0
2, 47746, Note_on_c, 0, 61, 0
2, 47746, Note_on_c, 0, 68, 0
2, 47834, Note_on_c, 0, 76, 80
2, 47834, Note_on_c, 0, 88, 80
2, 47836, Note_on_c, 0, 37, 80
2, 47836, Note_on_c, 0, 49, 80
2, 47872, Note_on_c, 0, 88, 0
2, 47876, Note_on_c, 0, 76, 0
2, 47929, Note_on_c, 0, 76, 80
2, 47929, Note_on_c, 0, 88, 80
2, 47958, Note_on_c, 0, 37, 0
2, 47969, Note_on_c, 0, 49, 0
2, 47979, Note_on_c, 0, 39, 80
2, 47979, Note_on_c, 0, 51, 80
2, 48058, Note_on_c, 0, 88, 0
2, 48064, Note_on_c, 0, 76, 0
2, 48066, Note_on_c, 0, 73, 80
2, 48066, Note_on_c, 0, 85, 80
2, 48103, Note_on_c, 0, 85, 0
2, 48103, Note_on_c, 0, 73, 0
2, 48105, Note_on_c, 0, 39, 0
2, 48105, Note_on_c, 0, 51, 0
2, 48111, Note_on_c, 0, 41, 80
2, 48111, Note_on_c, 0, 75, 80
2, 48111, Note_on_c, 0, 87, 80
2, 48113, Note_on_c, 0, 53, 80
2, 48193, Note_on_c, 0, 87, 0
2, 48193, Note_on_c, 0, 75, 0
2, 48239, Note_on_c, 0, 41, 0
2, 48240, Note_on_c, 0, 53, 0
2, 48244, Note_on_c, 0, 54, 80
2, 48244, Note_on_c, 0, 73, 80
2, 48244, Note_on_c, 0, 78, 80
2, 48244, Note_on_c, 0, 82, 80
2, 48244, Note_on_c, 0, 85, 80
2, 48246, Note_on_c, 0, 42, 80
2, 48293, Note_on_c, 0, 42, 0
2, 48293, Note_on_c, 0, 54, 0
2, 48370, Note_on_c, 0, 82, 0
2, 48370, Note_on_c, 0, 73, 0
2, 48370, Note_on_c, 0, 78, 0
2, 48370, Note_on_c, 0, 85, 0
2, 48381, Note_on_c, 0, 54, 80
2, 48381, Note_on_c, 0, 58, 80
2, 48381, Note_on_c, 0, 61, 80
2, 48406, Note_on_c, 0, 61, 0
2, 48406, Note_on_c, 0, 58, 0
2, 48408, Note_on_c, 0, 54, 0
2, 48451, Control_c, 0, 64, 127
2, 48517, Note_on_c, 0, 43, 80
2, 48517, Note_on_c, 0, 55, 80
2, 48601, Note_on_c, 0, 55, 0
2, 48601, Note_on_c, 0, 43, 0
2, 48603, Control_c, 0, 64, 0
2, 48655, Note_on_c, 0, 55, 80
2, 48655, Note_on_c, 0, 58, 80
2, 48655, Note_on_c, 0, 61, 80
2, 48680, Note_on_c, 0, 61, 0
2, 48680, Note_on_c, 0, 58, 0
2, 48680, Note_on_c, 0, 55, 0
2, 48793, Note_on_c, 0, 44, 80
2, 48793, Note_on_c, 0, 56, 80
2, 48876, Note_on_c, 0, 56, 0
2, 48876, Note_on_c, 0, 44, 0
2, 48928, Note_on_c, 0, 76, 80
2, 48928, Note_on_c, 0, 88, 80
2, 48930, Note_on_c, 0, 56, 80
2, 48930, Note_on_c, 0, 59, 80
2, 48930, Note_on_c, 0, 61, 80
2, 48930, Note_on_c, 0, 65, 80
2, 48953, Note_on_c, 0, 65, 0
2, 48953, Note_on_c, 0, 61, 0
2, 48955, Note_on_c, 0, 56, 0
2, 48955, Note_on_c, 0, 59, 0
2, 48963, Note_on_c, 0, 88, 0
2, 48967, Note_on_c, 0, 76, 0
2, 49019, Note_on_c, 0, 76, 80
2, 49019, Note_on_c, 0, 88, 80
2, 49062, Note_on_c, 0, 49, 80
2, 49064, Note_on_c, 0, 37, 80
2, 49143, Note_on_c, 0, 88, 0
2, 49145, Note_on_c, 0, 37, 0
2, 49145, Note_on_c, 0, 49, 0
2, 49147, Note_on_c, 0, 76, 0
2, 49149, Note_on_c, 0, 73, 80
2, 49149, Note_on_c, 0, 85, 80
2, 49188, Note_on_c, 0, 85, 0
2, 49188, Note_on_c, 0, 73, 0
2, 49197, Note_on_c, 0, 75, 80
2, 49197, Note_on_c, 0, 87, 80
2, 49199, Note_on_c, 0, 56, 80
2, 49199, Note_on_c, 0, 59, 80
2, 49199, Note_on_c, 0, 61, 80
2, 49199, Note_on_c, 0, 65, 80
2, 49224, Note_on_c, 0, 65, 0
2, 49224, Note_on_c, 0, 56, 0
2, 49224, Note_on_c, 0, 61, 0
2, 49225, Note_on_c, 0, 59, 0
2, 49320, Note_on_c, 0, 87, 0
2, 49322, Note_on_c, 0, 75, 0
2, 49326, Note_on_c, 0, 78, 80
2, 49328, Note_on_c, 0, 73, 80
2, 49328, Note_on_c, 0, 82, 80
2, 49328, Note_on_c, 0, 85, 80
2, 49330, Note_on_c, 0, 42, 80
2, 49330, Note_on_c, 0, 54, 80
2, 49375, Note_on_c, 0, 54, 0
2, 49375, Note_on_c, 0, 42, 0
2, 49456, Note_on_c, 0, 82, 0
2, 49456, Note_on_c, 0, 78, 0
2, 49456, Note_on_c, 0, 73, 0
2, 49456, Note_on_c, 0, 85, 0
2, 49464, Note_on_c, 0, 54, 80
2, 49464, Note_on_c, 0, 58, 80
2, 49464, Note_on_c, 0, 61, 80
2, 49489, Note_on_c, 0, 61, 0
2, 49489, Note_on_c, 0, 58, 0
2, 49491, Note_on_c, 0, 54, 0
2, 49570, Control_c, 0, 64, 127
2, 49603, Note_on_c, 0, 55, 80
2, 49605, Note_on_c, 0, 43, 80
2, 49621, Control_c, 0, 64, 0
2, 49685, Note_on_c, 0, 55, 0
2, 49687, Note_on_c, 0, 43, 0
2, 49741, Note_on_c, 0, 55, 80
2, 49741, Note_on_c, 0, 58, 80
2, 49741, Note_on_c, 0, 61, 80
2, 49770, Note_on_c, 0, 61, 0
2, 49770, Note_on_c, 0, 58, 0
2, 49770, Note_on_c, 0, 55, 0
2, 49885, Note_on_c, 0, 44, 80
2, 49885, Note_on_c, 0, 56, 80
2, 49966, Note_on_c, 0, 56, 0
2, 49968, Note_on_c, 0, 44, 0
2, 50021, Note_on_c, 0, 65, 80
2, 50021, Note_on_c, 0, 76, 80
2, 50021, Note_on_c, 0, 88, 80
2, 50023, Note_on_c, 0, 56, 80
2, 50023, Note_on_c, 0, 59, 80
2, 50023, Note_on_c, 0, 61, 80
2, 50048, Note_on_c, 0, 61, 0
2, 50048, Note_on_c, 0, 65, 0
2, 50048, Note_on_c, 0, 59, 0
2, 50050, Note_on_c, 0, 56, 0
2, 50059, Note_on_c, 0, 88, 0
2, 50063, Note_on_c, 0, 76, 0
2, 50100, Note_on_c, 0, 87, 80
2, 50112, Note_on_c, 0, 76, 80
2, 50112, Note_on_c, 0, 88, 80
2, 50116, Note_on_c, 0, 87, 0
2, 50129, Control_c, 0, 64, 127
2, 50161, Note_on_c, 0, 37, 80
2, 50161, Note_on_c, 0, 49, 80
2, 50211, Control_c, 0, 64, 0
2, 50240, Note_on_c, 0, 88, 0
2, 50244, Note_on_c, 0, 49, 0
2, 50244, Note_on_c, 0, 37, 0
2, 50246, Note_on_c, 0, 76, 0
2, 50246, Note_on_c, 0, 85, 80
2, 50248, Note_on_c, 0, 73, 80
2, 50285, Note_on_c, 0, 85, 0
2, 50287, Note_on_c, 0, 73, 0
2, 50293, Note_on_c, 0, 75, 80
2, 50293, Note_on_c, 0, 87, 80
2, 50295, Note_on_c, 0, 59, 80
2, 50295, Note_on_c, 0, 61, 80
2, 50295, Note_on_c, 0, 65, 80
2, 50297, Note_on_c, 0, 56, 80
2, 50320, Note_on_c, 0, 65, 0
2, 50320, Note_on_c, 0, 61, 0
2, 50322, Note_on_c, 0, 59, 0
2, 50322, Note_on_c, 0, 56, 0
2, 50423, Note_on_c, 0, 87, 0
2, 50424, Note_on_c, 0, 75, 0
2, 50430, Note_on_c, 0, 85, 80
2, 50432, Note_on_c, 0, 73, 80
2, 50432, Note_on_c, 0, 78, 80
2, 50432, Note_on_c, 0, 82, 80
2, 50434, Note_on_c, 0, 42, 80
2, 50434, Note_on_c, 0, 54, 80
2, 50481, Note_on_c, 0, 54, 0
2, 50481, Note_on_c, 0, 42, 0
2, 50558, Note_on_c, 0, 78, 0
2, 50558, Note_on_c, 0, 85, 0
2, 50558, Note_on_c, 0, 73, 0
2, 50558, Note_on_c, 0, 82, 0
2, 50564, Note_on_c, 0, 58, 80
2, 50564, Note_on_c, 0, 61, 80
2, 50566, Note_on_c, 0, 54, 80
2, 50592, Note_on_c, 0, 54, 0
2, 50592, Note_on_c, 0, 61, 0
2, 50592, Note_on_c, 0, 58, 0
2, 50638, Control_c, 0, 64, 127
2, 50700, Note_on_c, 0, 43, 80
2, 50700, Note_on_c, 0, 55, 80
2, 50750, Control_c, 0, 64, 0
2, 50781, Note_on_c, 0, 55, 0
2, 50828, Note_on_c, 0, 43, 0
2, 50833, Note_on_c, 0, 55, 80
2, 50833, Note_on_c, 0, 58, 80
2, 50833, Note_on_c, 0, 61, 80
2, 50860, Note_on_c, 0, 61, 0
2, 50860, Note_on_c, 0, 58, 0
2, 50860, Note_on_c, 0, 55, 0
2, 50966, Note_on_c, 0, 88, 80
2, 50968, Note_on_c, 0, 76, 80
2, 50970, Note_on_c, 0, 44, 80
2, 50970, Note_on_c, 0, 56, 80
2, 51005, Note_on_c, 0, 88, 0
2, 51009, Note_on_c, 0, 76, 0
2, 51052, Note_on_c, 0, 56, 0
2, 51054, Note_on_c, 0, 44, 0
2, 51056, Note_on_c, 0, 89, 80
2, 51058, Note_on_c, 0, 77, 80
2, 51108, Note_on_c, 0, 45, 80
2, 51108, Note_on_c, 0, 57, 80
2, 51144, Note_on_c, 0, 77, 0
2, 51187, Note_on_c, 0, 89, 0
2, 51197, Note_on_c, 0, 70, 80
2, 51197, Note_on_c, 0, 74, 80
2, 51197, Note_on_c, 0, 77, 80
2, 51197, Note_on_c, 0, 82, 80
2, 51237, Note_on_c, 0, 57, 0
2, 51239, Note_on_c, 0, 45, 0
2, 51244, Note_on_c, 0, 46, 80
2, 51244, Note_on_c, 0, 58, 80
2, 51370, Note_on_c, 0, 58, 0
2, 51372, Note_on_c, 0, 46, 0
2, 51378, Note_on_c, 0, 44, 80
2, 51378, Note_on_c, 0, 56, 80
2, 51460, Note_on_c, 0, 70, 0
2, 51460, Note_on_c, 0, 77, 0
2, 51460, Note_on_c, 0, 74, 0
2, 51460, Note_on_c, 0, 82, 0
2, 51507, Note_on_c, 0, 56, 0
2, 51507, Note_on_c, 0, 44, 0
2, 51516, Note_on_c, 0, 43, 80
2, 51516, Note_on_c, 0, 55, 80
2, 51563, Note_on_c, 0, 55, 0
2, 51563, Note_on_c, 0, 43, 0
2, 51648, Note_on_c, 0, 51, 80
2, 51648, Note_on_c, 0, 55, 80
2, 51648, Note_on_c, 0, 61, 80
2, 51648, Note_on_c, 0, 67, 80
2, 51648, Note_on_c, 0, 72, 80
2, 51674, Note_on_c, 0, 55, 0
2, 51674, Note_on_c, 0, 51, 0
2, 51728, Note_on_c, 0, 67, 0
2, 51728, Note_on_c, 0, 72, 0
2, 51730, Note_on_c, 0, 61, 0
2, 51734, Note_on_c, 0, 70, 80
2, 51773, Note_on_c, 0, 70, 0
2, 51779, Note_on_c, 0, 72, 80
2, 51781, Note_on_c, 0, 51, 80
2, 51781, Note_on_c, 0, 61, 80
2, 51781, Note_on_c, 0, 67, 80
2, 51783, Note_on_c, 0, 39, 80
2, 51862, Note_on_c, 0, 67, 0
2, 51862, Note_on_c, 0, 61, 0
2, 51862, Note_on_c, 0, 72, 0
2, 51864, Note_on_c, 0, 51, 0
2, 51865, Note_on_c, 0, 39, 0
2, 51867, Note_on_c, 0, 75, 80
2, 51905, Note_on_c, 0, 75, 0
2, 51911, Note_on_c, 0, 67, 80
2, 51911, Note_on_c, 0, 72, 80
2, 51912, Note_on_c, 0, 51, 80
2, 51912, Note_on_c, 0, 55, 80
2, 51912, Note_on_c, 0, 61, 80
2, 51939, Note_on_c, 0, 55, 0
2, 51939, Note_on_c, 0, 51, 0
2, 51991, Note_on_c, 0, 72, 0
2, 51995, Note_on_c, 0, 67, 0
2, 51995, Note_on_c, 0, 61, 0
2, 52049, Note_on_c, 0, 58, 80
2, 52049, Note_on_c, 0, 63, 80
2, 52049, Note_on_c, 0, 67, 80
2, 52049, Note_on_c, 0, 75, 80
2, 52051, Note_on_c, 0, 46, 80
2, 52086, Note_on_c, 0, 75, 0
2, 52086, Note_on_c, 0, 67, 0
2, 52088, Note_on_c, 0, 63, 0
2, 52133, Note_on_c, 0, 58, 0
2, 52135, Note_on_c, 0, 46, 0
2, 52139, Note_on_c, 0, 67, 80
2, 52139, Note_on_c, 0, 72, 80
2, 52141, Note_on_c, 0, 61, 80
2, 52184, Note_on_c, 0, 51, 80
2, 52186, Note_on_c, 0, 39, 80
2, 52267, Note_on_c, 0, 72, 0
2, 52269, Note_on_c, 0, 51, 0
2, 52269, Note_on_c, 0, 67, 0
2, 52269, Note_on_c, 0, 61, 0
2, 52271, Note_on_c, 0, 39, 0
2, 52274, Note_on_c, 0, 68, 80
2, 52276, Note_on_c, 0, 60, 80
2, 52276, Note_on_c, 0, 66, 80
2, 52320, Note_on_c, 0, 56, 80
2, 52321, Note_on_c, 0, 44, 80
2, 52404, Note_on_c, 0, 66, 0
2, 52404, Note_on_c, 0, 68, 0
2, 52404, Note_on_c, 0, 60, 0
2, 52406, Note_on_c, 0, 56, 0
2, 52406, Note_on_c, 0, 44, 0
2, 52429, Control_c, 0, 64, 127
2, 52460, Note_on_c, 0, 76, 80
2, 52460, Note_on_c, 0, 88, 80
2, 52462, Note_on_c, 0, 49, 80
2, 52464, Note_on_c, 0, 37, 80
2, 52542, Note_on_c, 0, 88, 0
2, 52546, Note_on_c, 0, 76, 0
2, 52548, Control_c, 0, 64, 0
2, 52589, Note_on_c, 0, 49, 0
2, 52591, Note_on_c, 0, 37, 0
2, 52595, Note_on_c, 0, 76, 80
2, 52595, Note_on_c, 0, 78, 80
2, 52595, Note_on_c, 0, 82, 80
2, 52595, Note_on_c, 0, 88, 80
2, 52597, Note_on_c, 0, 54, 80
2, 52599, Note_on_c, 0, 42, 80
2, 52644, Note_on_c, 0, 88, 0
2, 52644, Note_on_c, 0, 82, 0
2, 52644, Note_on_c, 0, 78, 0
2, 52646, Note_on_c, 0, 54, 0
2, 52648, Note_on_c, 0, 42, 0
2, 52650, Note_on_c, 0, 76, 0
2, 52738, Note_on_c, 0, 54, 80
2, 52738, Note_on_c, 0, 58, 80
2, 52738, Note_on_c, 0, 61, 80
2, 52765, Note_on_c, 0, 61, 0
2, 52765, Note_on_c, 0, 58, 0
2, 52765, Note_on_c, 0, 54, 0
2, 52876, Note_on_c, 0, 73, 80
2, 52876, Note_on_c, 0, 85, 80
2, 52878, Note_on_c, 0, 43, 80
2, 52878, Note_on_c, 0, 55, 80
2, 52957, Note_on_c, 0, 55, 0
2, 52957, Note_on_c, 0, 73, 0
2, 52957, Note_on_c, 0, 85, 0
2, 52959, Note_on_c, 0, 43, 0
2, 52963, Note_on_c, 0, 75, 80
2, 52963, Note_on_c, 0, 87, 80
2, 53002, Note_on_c, 0, 87, 0
2, 53002, Note_on_c, 0, 75, 0
2, 53008, Note_on_c, 0, 85, 80
2, 53010, Note_on_c, 0, 55, 80
2, 53010, Note_on_c, 0, 58, 80
2, 53010, Note_on_c, 0, 61, 80
2, 53010, Note_on_c, 0, 73, 80
2, 53037, Note_on_c, 0, 61, 0
2, 53037, Note_on_c, 0, 58, 0
2, 53037, Note_on_c, 0, 55, 0
2, 53092, Note_on_c, 0, 85, 0
2, 53092, Note_on_c, 0, 73, 0
2, 53098, Note_on_c, 0, 75, 80
2, 53098, Note_on_c, 0, 87, 80
2, 53134, Note_on_c, 0, 87, 0
2, 53136, Note_on_c, 0, 75, 0
2, 53141, Note_on_c, 0, 73, 80
2, 53143, Note_on_c, 0, 44, 80
2, 53143, Note_on_c, 0, 56, 80
2, 53143, Note_on_c, 0, 77, 80
2, 53143, Note_on_c, 0, 80, 80
2, 53143, Note_on_c, 0, 85, 80
2, 53222, Note_on_c, 0, 85, 0
2, 53222, Note_on_c, 0, 77, 0
2, 53222, Note_on_c, 0, 73, 0
2, 53222, Note_on_c, 0, 80, 0
2, 53224, Note_on_c, 0, 56, 0
2, 53226, Note_on_c, 0, 44, 0
2, 53276, Note_on_c, 0, 56, 80
2, 53276, Note_on_c, 0, 59, 80
2, 53276, Note_on_c, 0, 61, 80
2, 53276, Note_on_c, 0, 65, 80
2, 53301, Note_on_c, 0, 65, 0
2, 53303, Note_on_c, 0, 56, 0
2, 53303, Note_on_c, 0, 59, 0
2, 53303, Note_on_c, 0, 61, 0
2, 53344, Control_c, 0, 64, 127
2, 53412, Note_on_c, 0, 37, 80
2, 53412, Note_on_c, 0, 49, 80
2, 53495, Note_on_c, 0, 49, 0
2, 53496, Note_on_c, 0, 37, 0
2, 53496, Control_c, 0, 64, 0
2, 53500, Note_on_c, 0, 76, 80
2, 53500, Note_on_c, 0, 88, 80
2, 53547, Note_on_c, 0, 56, 80
2, 53547, Note_on_c, 0, 59, 80
2, 53547, Note_on_c, 0, 61, 80
2, 53547, Note_on_c, 0, 65, 80
2, 53572, Note_on_c, 0, 65, 0
2, 53572, Note_on_c, 0, 59, 0
2, 53572, Note_on_c, 0, 56, 0
2, 53572, Note_on_c, 0, 61, 0
2, 53628, Note_on_c, 0, 88, 0
2, 53632, Note_on_c, 0, 76, 0
2, 53686, Note_on_c, 0, 42, 80
2, 53686, Note_on_c, 0, 54, 80
2, 53686, Note_on_c, 0, 76, 80
2, 53686, Note_on_c, 0, 78, 80
2, 53686, Note_on_c, 0, 82, 80
2, 53686, Note_on_c, 0, 88, 80
2, 53731, Note_on_c, 0, 88, 0
2, 53731, Note_on_c, 0, 78, 0
2, 53731, Note_on_c, 0, 82, 0
2, 53733, Note_on_c, 0, 42, 0
2, 53733, Note_on_c, 0, 54, 0
2, 53735, Note_on_c, 0, 76, 0
2, 53819, Note_on_c, 0, 54, 80
2, 53819, Note_on_c, 0, 58, 80
2, 53819, Note_on_c, 0, 61, 80
2, 53844, Note_on_c, 0, 61, 0
2, 53844, Note_on_c, 0, 58, 0
2, 53844, Note_on_c, 0, 54, 0
2, 53957, Note_on_c, 0, 85, 80
2, 53959, Note_on_c, 0, 43, 80
2, 53959, Note_on_c, 0, 73, 80
2, 53961, Note_on_c, 0, 55, 80
2, 54040, Note_on_c, 0, 55, 0
2, 54040, Note_on_c, 0, 85, 0
2, 54040, Note_on_c, 0, 43, 0
2, 54040, Note_on_c, 0, 73, 0
2, 54046, Note_on_c, 0, 75, 80
2, 54046, Note_on_c, 0, 87, 80
2, 54096, Note_on_c, 0, 87, 0
2, 54096, Note_on_c, 0, 75, 0
2, 54104, Note_on_c, 0, 55, 80
2, 54104, Note_on_c, 0, 58, 80
2, 54104, Note_on_c, 0, 61, 80
2, 54104, Note_on_c, 0, 73, 80
2, 54104, Note_on_c, 0, 85, 80
2, 54129, Note_on_c, 0, 61, 0
2, 54129, Note_on_c, 0, 55, 0
2, 54129, Note_on_c, 0, 58, 0
2, 54185, Note_on_c, 0, 85, 0
2, 54187, Note_on_c, 0, 73, 0
2, 54191, Note_on_c, 0, 75, 80
2, 54192, Note_on_c, 0, 87, 80
2, 54230, Note_on_c, 0, 87, 0
2, 54230, Note_on_c, 0, 75, 0
2, 54239, Note_on_c, 0, 44, 80
2, 54239, Note_on_c, 0, 56, 80
2, 54239, Note_on_c, 0, 73, 80
2, 54239, Note_on_c, 0, 77, 80
2, 54239, Note_on_c, 0, 80, 80
2, 54239, Note_on_c, 0, 85, 80
2, 54317, Note_on_c, 0, 85, 0
2, 54317, Note_on_c, 0, 77, 0
2, 54317, Note_on_c, 0, 80, 0
2, 54319, Note_on_c, 0, 44, 0
2, 54319, Note_on_c, 0, 73, 0
2, 54319, Note_on_c, 0, 56, 0
2, 54371, Note_on_c, 0, 56, 80
2, 54371, Note_on_c, 0, 59, 80
2, 54371, Note_on_c, 0, 61, 80
2, 54371, Note_on_c, 0, 65, 80
2, 54396, Note_on_c, 0, 61, 0
2, 54398, Note_on_c, 0, 56, 0
2, 54398, Note_on_c, 0, 59, 0
2, 54398, Note_on_c, 0, 65, 0
2, 54441, Control_c, 0, 64, 127
2, 54507, Note_on_c, 0, 49, 80
2, 54509, Note_on_c, 0, 37, 80
2, 54554, Note_on_c, 0, 37, 0
2, 54556, Note_on_c, 0, 49, 0
2, 54556, Control_c, 0, 64, 0
2, 54598, Note_on_c, 0, 76, 80
2, 54598, Note_on_c, 0, 88, 80
2, 54643, Note_on_c, 0, 56, 80
2, 54643, Note_on_c, 0, 59, 80
2, 54643, Note_on_c, 0, 61, 80
2, 54643, Note_on_c, 0, 65, 80
2, 54668, Note_on_c, 0, 61, 0
2, 54668, Note_on_c, 0, 59, 0
2, 54670, Note_on_c, 0, 56, 0
2, 54670, Note_on_c, 0, 65, 0
2, 54727, Note_on_c, 0, 88, 0
2, 54729, Note_on_c, 0, 76, 0
2, 54779, Note_on_c, 0, 42, 80
2, 54779, Note_on_c, 0, 54, 80
2, 54779, Note_on_c, 0, 76, 80
2, 54779, Note_on_c, 0, 78, 80
2, 54779, Note_on_c, 0, 82, 80
2, 54779, Note_on_c, 0, 88, 80
2, 54826, Note_on_c, 0, 82, 0
2, 54826, Note_on_c, 0, 78, 0
2, 54826, Note_on_c, 0, 54, 0
2, 54826, Note_on_c, 0, 42, 0
2, 54828, Note_on_c, 0, 88, 0
2, 54830, Note_on_c, 0, 76, 0
2, 54921, Note_on_c, 0, 54, 80
2, 54921, Note_on_c, 0, 58, 80
2, 54921, Note_on_c, 0, 61, 80
2, 54946, Note_on_c, 0, 61, 0
2, 54946, Note_on_c, 0, 58, 0
2, 54946, Note_on_c, 0, 54, 0
2, 54989, Control_c, 0, 64, 127
2, 55061, Note_on_c, 0, 43, 80
2, 55061, Note_on_c, 0, 55, 80
2, 55061, Note_on_c, 0, 73, 80
2, 55061, Note_on_c, 0, 85, 80
2, 55144, Control_c, 0, 64, 0
2, 55146, Note_on_c, 0, 85, 0
2, 55146, Note_on_c, 0, 43, 0
2, 55146, Note_on_c, 0, 55, 0
2, 55146, Note_on_c, 0, 73, 0
2, 55152, Note_on_c, 0, 75, 80
2, 55153, Note_on_c, 0, 87, 80
2, 55191, Note_on_c, 0, 87, 0
2, 55191, Note_on_c, 0, 75, 0
2, 55197, Note_on_c, 0, 55, 80
2, 55197, Note_on_c, 0, 58, 80
2, 55197, Note_on_c, 0, 61, 80
2, 55197, Note_on_c, 0, 73, 80
2, 55197, Note_on_c, 0, 85, 80
2, 55224, Note_on_c, 0, 61, 0
2, 55224, Note_on_c, 0, 55, 0
2, 55224, Note_on_c, 0, 58, 0
2, 55281, Note_on_c, 0, 73, 0
2, 55281, Note_on_c, 0, 85, 0
2, 55290, Note_on_c, 0, 75, 80
2, 55290, Note_on_c, 0, 87, 80
2, 55329, Note_on_c, 0, 87, 0
2, 55329, Note_on_c, 0, 75, 0
2, 55335, Note_on_c, 0, 44, 80
2, 55337, Note_on_c, 0, 56, 80
2, 55337, Note_on_c, 0, 88, 80
2, 55339, Note_on_c, 0, 76, 80
2, 55413, Note_on_c, 0, 56, 0
2, 55413, Note_on_c, 0, 44, 0
2, 55415, Note_on_c, 0, 88, 0
2, 55416, Note_on_c, 0, 76, 0
2, 55418, Note_on_c, 0, 73, 80
2, 55420, Note_on_c, 0, 85, 80
2, 55458, Note_on_c, 0, 85, 0
2, 55458, Note_on_c, 0, 73, 0
2, 55464, Note_on_c, 0, 45, 80
2, 55464, Note_on_c, 0, 57, 80
2, 55464, Note_on_c, 0, 75, 80
2, 55465, Note_on_c, 0, 87, 80
2, 55503, Note_on_c, 0, 75, 0
2, 55505, Note_on_c, 0, 87, 0
2, 55559, Note_on_c, 0, 73, 80
2, 55559, Note_on_c, 0, 77, 80
2, 55559, Note_on_c, 0, 82, 80
2, 55559, Note_on_c, 0, 85, 80
2, 55591, Note_on_c, 0, 45, 0
2, 55593, Note_on_c, 0, 57, 0
2, 55599, Note_on_c, 0, 46, 80
2, 55601, Note_on_c, 0, 58, 80
2, 55680, Note_on_c, 0, 82, 0
2, 55680, Note_on_c, 0, 73, 0
2, 55681, Note_on_c, 0, 85, 0
2, 55681, Note_on_c, 0, 77, 0
2, 55727, Note_on_c, 0, 58, 0
2, 55727, Note_on_c, 0, 46, 0
2, 55735, Note_on_c, 0, 44, 80
2, 55735, Note_on_c, 0, 56, 80
2, 55735, Note_on_c, 0, 76, 80
2, 55737, Note_on_c, 0, 88, 80
2, 55820, Note_on_c, 0, 88, 0
2, 55824, Note_on_c, 0, 76, 0
2, 55825, Note_on_c, 0, 73, 80
2, 55827, Note_on_c, 0, 85, 80
2, 55865, Note_on_c, 0, 73, 0
2, 55865, Note_on_c, 0, 44, 0
2, 55865, Note_on_c, 0, 56, 0
2, 55867, Note_on_c, 0, 85, 0
2, 55872, Note_on_c, 0, 43, 80
2, 55872, Note_on_c, 0, 55, 80
2, 55872, Note_on_c, 0, 82, 80
2, 55874, Note_on_c, 0, 75, 80
2, 55874, Note_on_c, 0, 79, 80
2, 55874, Note_on_c, 0, 87, 80
2, 55921, Note_on_c, 0, 55, 0
2, 55923, Note_on_c, 0, 82, 0
2, 55923, Note_on_c, 0, 75, 0
2, 55923, Note_on_c, 0, 79, 0
2, 55923, Note_on_c, 0, 87, 0
2, 56010, Note_on_c, 0, 55, 80
2, 56012, Note_on_c, 0, 58, 80
2, 56012, Note_on_c, 0, 61, 80
2, 56012, Note_on_c, 0, 73, 80
2, 56012, Note_on_c, 0, 85, 80
2, 56037, Note_on_c, 0, 61, 0
2, 56037, Note_on_c, 0, 58, 0
2, 56037, Note_on_c, 0, 55, 0
2, 56094, Note_on_c, 0, 85, 0
2, 56094, Note_on_c, 0, 73, 0
2, 56139, Note_on_c, 0, 43, 0
2, 56148, Note_on_c, 0, 42, 80
2, 56148, Note_on_c, 0, 54, 80
2, 56148, Note_on_c, 0, 76, 80
2, 56148, Note_on_c, 0, 78, 80
2, 56148, Note_on_c, 0, 82, 80
2, 56150, Note_on_c, 0, 88, 80
2, 56218, Note_on_c, 0, 54, 0
2, 56231, Note_on_c, 0, 82, 0
2, 56231, Note_on_c, 0, 78, 0
2, 56232, Note_on_c, 0, 76, 0
2, 56232, Note_on_c, 0, 88, 0
2, 56236, Note_on_c, 0, 73, 80
2, 56238, Note_on_c, 0, 85, 80
2, 56274, Note_on_c, 0, 73, 0
2, 56276, Note_on_c, 0, 85, 0
2, 56281, Note_on_c, 0, 54, 80
2, 56281, Note_on_c, 0, 58, 80
2, 56281, Note_on_c, 0, 61, 80
2, 56281, Note_on_c, 0, 75, 80
2, 56281, Note_on_c, 0, 87, 80
2, 56306, Note_on_c, 0, 61, 0
2, 56306, Note_on_c, 0, 58, 0
2, 56306, Note_on_c, 0, 54, 0
2, 56407, Note_on_c, 0, 42, 0
2, 56409, Note_on_c, 0, 75, 0
2, 56409, Note_on_c, 0, 87, 0
2, 56415, Note_on_c, 0, 41, 80
2, 56415, Note_on_c, 0, 53, 80
2, 56415, Note_on_c, 0, 73, 80
2, 56417, Note_on_c, 0, 77, 80
2, 56417, Note_on_c, 0, 80, 80
2, 56417, Note_on_c, 0, 85, 80
2, 56446, Control_c, 0, 64, 127
2, 56460, Note_on_c, 0, 41, 0
2, 56466, Note_on_c, 0, 73, 0
2, 56466, Note_on_c, 0, 77, 0
2, 56466, Note_on_c, 0, 53, 0
2, 56466, Note_on_c, 0, 85, 0
2, 56466, Note_on_c, 0, 80, 0
2, 56552, Note_on_c, 0, 46, 80
2, 56552, Note_on_c, 0, 58, 80
2, 56552, Note_on_c, 0, 76, 80
2, 56554, Note_on_c, 0, 88, 80
2, 56595, Control_c, 0, 64, 0
2, 56620, Note_on_c, 0, 88, 0
2, 56633, Note_on_c, 0, 76, 0
2, 56637, Note_on_c, 0, 73, 80
2, 56639, Note_on_c, 0, 85, 80
2, 56671, Note_on_c, 0, 58, 0
2, 56671, Note_on_c, 0, 46, 0
2, 56673, Note_on_c, 0, 73, 0
2, 56673, Note_on_c, 0, 85, 0
2, 56679, Note_on_c, 0, 45, 80
2, 56679, Note_on_c, 0, 57, 80
2, 56681, Note_on_c, 0, 75, 80
2, 56681, Note_on_c, 0, 87, 80
2, 56808, Note_on_c, 0, 57, 0
2, 56808, Note_on_c, 0, 45, 0
2, 56810, Note_on_c, 0, 75, 0
2, 56810, Note_on_c, 0, 87, 0
2, 56814, Note_on_c, 0, 44, 80
2, 56814, Note_on_c, 0, 56, 80
2, 56814, Note_on_c, 0, 73, 80
2, 56814, Note_on_c, 0, 85, 80
2, 56897, Note_on_c, 0, 85, 0
2, 56897, Note_on_c, 0, 73, 0
2, 56938, Note_on_c, 0, 44, 0
2, 56940, Note_on_c, 0, 56, 0
2, 56946, Note_on_c, 0, 43, 80
2, 56946, Note_on_c, 0, 55, 80
2, 56948, Note_on_c, 0, 76, 80
2, 56948, Note_on_c, 0, 79, 80
2, 56948, Note_on_c, 0, 82, 80
2, 56948, Note_on_c, 0, 88, 80
2, 57028, Note_on_c, 0, 88, 0
2, 57028, Note_on_c, 0, 79, 0
2, 57028, Note_on_c, 0, 82, 0
2, 57030, Note_on_c, 0, 76, 0
2, 57032, Note_on_c, 0, 73, 80
2, 57034, Note_on_c, 0, 85, 80
2, 57070, Note_on_c, 0, 55, 0
2, 57072, Note_on_c, 0, 73, 0
2, 57073, Note_on_c, 0, 85, 0
2, 57075, Note_on_c, 0, 42, 80
2, 57077, Note_on_c, 0, 54, 80
2, 57079, Note_on_c, 0, 43, 0
2, 57079, Note_on_c, 0, 75, 80
2, 57079, Note_on_c, 0, 78, 80
2, 57079, Note_on_c, 0, 81, 80
2, 57079, Note_on_c, 0, 87, 80
2, 57205, Note_on_c, 0, 54, 0
2, 57205, Note_on_c, 0, 42, 0
2, 57207, Note_on_c, 0, 81, 0
2, 57207, Note_on_c, 0, 78, 0
2, 57207, Note_on_c, 0, 87, 0
2, 57207, Note_on_c, 0, 75, 0
2, 57211, Note_on_c, 0, 41, 80
2, 57213, Note_on_c, 0, 53, 80
2, 57213, Note_on_c, 0, 77, 80
2, 57215, Note_on_c, 0, 73, 80
2, 57215, Note_on_c, 0, 80, 80
2, 57215, Note_on_c, 0, 85, 80
2, 57293, Note_on_c, 0, 41, 0
2, 57295, Note_on_c, 0, 80, 0
2, 57295, Note_on_c, 0, 73, 0
2, 57295, Note_on_c, 0, 53, 0
2, 57295, Note_on_c, 0, 77, 0
2, 57297, Note_on_c, 0, 85, 0
2, 57351, Note_on_c, 0, 44, 80
2, 57351, Note_on_c, 0, 56, 80
2, 57353, Note_on_c, 0, 80, 80
2, 57433, Note_on_c, 0, 44, 0
2, 57435, Note_on_c, 0, 56, 0
2, 57437, Note_on_c, 0, 80, 0
2, 57443, Note_on_c, 0, 82, 80
2, 57484, Note_on_c, 0, 82, 0
2, 57490, Note_on_c, 0, 49, 80
2, 57490, Note_on_c, 0, 59, 80
2, 57490, Note_on_c, 0, 65, 80
2, 57492, Note_on_c, 0, 77, 80
2, 57492, Note_on_c, 0, 83, 80
2, 57492, Note_on_c, 0, 87, 80
2, 57655, Control_c, 0, 64, 127
2, 57713, Note_on_c, 0, 37, 80
2, 58165, Note_on_c, 0, 37, 0
2, 58167, Note_on_c, 0, 49, 0
2, 58167, Note_on_c, 0, 59, 0
2, 58169, Note_on_c, 0, 83, 0
2, 58169, Note_on_c, 0, 77, 0
2, 58169, Note_on_c, 0, 65, 0
2, 58169, Note_on_c, 0, 87, 0
2, 58221, Control_c, 0, 64, 0
2, 58221, End_track
3, 0, Start_track
3, 0, Title_t, "c/b Ferdinand ""Jelly Roll"" Morton"
3, 0, End_track
4, 0, Start_track
4, 0, Title_t, "p/b J. Lawrence Cook"
4, 0, End_track
5, 0, Start_track
5, 0, Title_t, "QRS # 9595"
5, 0, End_track
6, 0, Start_track
6, 0, Title_t, "Scan of a player piano roll"
6, 0, End_track
7, 0, Start_track
7, 0, Title_t, "by Terry Smythe, Winnipeg, Canada"
7, 0, End_track
8, 0, Start_track
8, 1, Copyright_t, "___________________________________________________\012\012KUNSTDERFUGE.COM LARGE CLASSICAL MIDI COLLECTION\012ONCLASSICAL BY ALESSANDRO SIMONETTO, PROPRIETOR\012___________________________________________________\012\012! Attention: this file is under copyright !\012\012(c)onclassical, (nc)smythe, 2010\012___________________________________________________\012\012NO ONE MAY REPUBLISH THIS FILE WITHOUT PERMISSION\012COMMERCIAL USES OF THIS FILE IS STRICTLY PROHIBITED\012___________________________________________________\012\012Files & contributor's list: http://kunstderfuge.com/\012Terms and conditions: http://kunstderfuge.com/notes.htm"
8, 1, End_track
0, 0, End_of_file
