0, 0, Header, 1, 8, 192
1, 0, Start_track
1, 0, Title_t, "LONDS"
1, 0, Copyright_t, "May NOT be used for commercial purposes."
1, 0, Text_t, "Roll expression/accent tracks, where present, converted to MIDI velocties.\012"
1, 0, Time_signature, 4, 2, 24, 8
1, 0, Key_signature, 0, "major"
1, 0, Tempo, 500000
1, 0, Marker_t, "Standard MIDI:LPI 121:Tempo  75: 05-11-2004"
1, 0, End_track
2, 0, Start_track
2, 0, Title_t, "London Blues (1924)"
2, 286, Note_on_c, 0, 74, 80
2, 288, Control_c, 0, 64, 127
2, 289, Note_on_c, 0, 62, 80
2, 289, Note_on_c, 0, 77, 80
2, 289, Note_on_c, 0, 86, 80
2, 289, Note_on_c, 0, 89, 80
2, 291, Note_on_c, 0, 82, 80
2, 334, Note_on_c, 0, 62, 0
2, 337, Note_on_c, 0, 82, 0
2, 339, Note_on_c, 0, 86, 0
2, 339, Note_on_c, 0, 77, 0
2, 343, Note_on_c, 0, 74, 0
2, 345, Note_on_c, 0, 89, 0
2, 366, Note_on_c, 0, 61, 80
2, 373, Note_on_c, 0, 76, 80
2, 375, Note_on_c, 0, 73, 80
2, 377, Note_on_c, 0, 85, 80
2, 377, Note_on_c, 0, 88, 80
2, 408, Note_on_c, 0, 61, 0
2, 415, Note_on_c, 0, 88, 0
2, 415, Note_on_c, 0, 73, 0
2, 417, Note_on_c, 0, 85, 0
2, 419, Note_on_c, 0, 62, 80
2, 421, Note_on_c, 0, 76, 0
2, 423, Note_on_c, 0, 86, 80
2, 423, Note_on_c, 0, 89, 80
2, 427, Note_on_c, 0, 77, 80
2, 429, Note_on_c, 0, 82, 80
2, 437, Note_on_c, 0, 74, 80
2, 441, Control_c, 0, 64, 0
2, 501, Note_on_c, 0, 74, 0
2, 501, Note_on_c, 0, 77, 0
2, 503, Note_on_c, 0, 89, 0
2, 503, Note_on_c, 0, 82, 0
2, 503, Note_on_c, 0, 86, 0
2, 515, Note_on_c, 0, 62, 0
2, 576, Note_on_c, 0, 77, 80
2, 621, Note_on_c, 0, 79, 80
2, 633, Note_on_c, 0, 77, 0
2, 665, Note_on_c, 0, 79, 0
2, 672, Note_on_c, 0, 77, 80
2, 712, Note_on_c, 0, 77, 0
2, 714, Note_on_c, 0, 65, 80
2, 794, Note_on_c, 0, 65, 0
2, 866, Note_on_c, 0, 62, 80
2, 866, Note_on_c, 0, 65, 80
2, 873, Note_on_c, 0, 58, 80
2, 873, Note_on_c, 0, 74, 80
2, 875, Note_on_c, 0, 70, 80
2, 877, Note_on_c, 0, 86, 80
2, 879, Note_on_c, 0, 82, 80
2, 896, Control_c, 0, 64, 127
2, 930, Note_on_c, 0, 58, 0
2, 930, Note_on_c, 0, 62, 0
2, 930, Note_on_c, 0, 65, 0
2, 934, Note_on_c, 0, 70, 0
2, 936, Note_on_c, 0, 86, 0
2, 939, Note_on_c, 0, 74, 0
2, 939, Note_on_c, 0, 82, 0
2, 964, Note_on_c, 0, 73, 80
2, 968, Note_on_c, 0, 57, 80
2, 968, Note_on_c, 0, 69, 80
2, 972, Note_on_c, 0, 85, 80
2, 974, Note_on_c, 0, 81, 80
2, 1006, Note_on_c, 0, 62, 80
2, 1008, Note_on_c, 0, 57, 0
2, 1008, Note_on_c, 0, 65, 80
2, 1009, Note_on_c, 0, 85, 0
2, 1009, Note_on_c, 0, 73, 0
2, 1009, Note_on_c, 0, 69, 0
2, 1011, Note_on_c, 0, 81, 0
2, 1011, Note_on_c, 0, 58, 80
2, 1011, Note_on_c, 0, 74, 80
2, 1013, Note_on_c, 0, 70, 80
2, 1015, Control_c, 0, 64, 0
2, 1015, Note_on_c, 0, 86, 80
2, 1017, Note_on_c, 0, 82, 80
2, 1068, Note_on_c, 0, 62, 0
2, 1070, Note_on_c, 0, 65, 0
2, 1072, Note_on_c, 0, 58, 0
2, 1074, Note_on_c, 0, 82, 0
2, 1074, Note_on_c, 0, 74, 0
2, 1074, Note_on_c, 0, 86, 0
2, 1078, Note_on_c, 0, 70, 0
2, 1169, Note_on_c, 0, 77, 80
2, 1222, Note_on_c, 0, 79, 80
2, 1230, Note_on_c, 0, 77, 0
2, 1274, Note_on_c, 0, 77, 80
2, 1281, Note_on_c, 0, 79, 0
2, 1317, Note_on_c, 0, 65, 80
2, 1319, Note_on_c, 0, 77, 0
2, 1403, Note_on_c, 0, 65, 0
2, 1464, Control_c, 0, 64, 127
2, 1473, Note_on_c, 0, 50, 80
2, 1473, Note_on_c, 0, 53, 80
2, 1473, Note_on_c, 0, 62, 80
2, 1473, Note_on_c, 0, 65, 80
2, 1480, Note_on_c, 0, 74, 80
2, 1482, Note_on_c, 0, 70, 80
2, 1482, Note_on_c, 0, 77, 80
2, 1517, Note_on_c, 0, 62, 0
2, 1521, Note_on_c, 0, 53, 0
2, 1521, Note_on_c, 0, 74, 0
2, 1521, Note_on_c, 0, 65, 0
2, 1521, Note_on_c, 0, 50, 0
2, 1521, Note_on_c, 0, 77, 0
2, 1525, Note_on_c, 0, 70, 0
2, 1576, Note_on_c, 0, 61, 80
2, 1578, Note_on_c, 0, 49, 80
2, 1580, Note_on_c, 0, 64, 80
2, 1582, Note_on_c, 0, 73, 80
2, 1584, Note_on_c, 0, 76, 80
2, 1605, Control_c, 0, 64, 0
2, 1613, Note_on_c, 0, 49, 0
2, 1615, Note_on_c, 0, 64, 0
2, 1617, Note_on_c, 0, 53, 80
2, 1619, Note_on_c, 0, 61, 0
2, 1621, Note_on_c, 0, 73, 0
2, 1621, Note_on_c, 0, 50, 80
2, 1623, Note_on_c, 0, 76, 0
2, 1625, Note_on_c, 0, 65, 80
2, 1625, Note_on_c, 0, 70, 80
2, 1625, Note_on_c, 0, 74, 80
2, 1625, Note_on_c, 0, 77, 80
2, 1629, Note_on_c, 0, 62, 80
2, 1671, Note_on_c, 0, 53, 0
2, 1680, Note_on_c, 0, 50, 0
2, 1681, Note_on_c, 0, 62, 0
2, 1683, Note_on_c, 0, 74, 0
2, 1685, Note_on_c, 0, 70, 0
2, 1685, Note_on_c, 0, 65, 0
2, 1687, Note_on_c, 0, 77, 0
2, 1776, Note_on_c, 0, 77, 80
2, 1823, Note_on_c, 0, 79, 80
2, 1840, Note_on_c, 0, 77, 0
2, 1870, Note_on_c, 0, 79, 0
2, 1878, Note_on_c, 0, 77, 80
2, 1922, Note_on_c, 0, 77, 0
2, 1924, Note_on_c, 0, 65, 80
2, 2017, Note_on_c, 0, 65, 0
2, 2072, Note_on_c, 0, 46, 80
2, 2072, Note_on_c, 0, 50, 80
2, 2072, Note_on_c, 0, 53, 80
2, 2074, Note_on_c, 0, 62, 80
2, 2078, Note_on_c, 0, 70, 80
2, 2080, Note_on_c, 0, 58, 80
2, 2080, Note_on_c, 0, 74, 80
2, 2082, Control_c, 0, 64, 127
2, 2128, Note_on_c, 0, 53, 0
2, 2132, Note_on_c, 0, 62, 0
2, 2136, Note_on_c, 0, 50, 0
2, 2136, Note_on_c, 0, 46, 0
2, 2136, Note_on_c, 0, 58, 0
2, 2137, Note_on_c, 0, 70, 0
2, 2139, Note_on_c, 0, 74, 0
2, 2169, Note_on_c, 0, 45, 80
2, 2169, Note_on_c, 0, 49, 80
2, 2171, Note_on_c, 0, 61, 80
2, 2173, Note_on_c, 0, 57, 80
2, 2173, Note_on_c, 0, 73, 80
2, 2175, Note_on_c, 0, 69, 80
2, 2208, Note_on_c, 0, 49, 0
2, 2212, Note_on_c, 0, 45, 0
2, 2212, Control_c, 0, 64, 0
2, 2214, Note_on_c, 0, 61, 0
2, 2214, Note_on_c, 0, 50, 80
2, 2214, Note_on_c, 0, 53, 80
2, 2216, Note_on_c, 0, 73, 0
2, 2216, Note_on_c, 0, 46, 80
2, 2216, Note_on_c, 0, 74, 80
2, 2218, Note_on_c, 0, 57, 0
2, 2218, Note_on_c, 0, 62, 80
2, 2220, Note_on_c, 0, 69, 0
2, 2222, Note_on_c, 0, 58, 80
2, 2226, Note_on_c, 0, 70, 80
2, 2270, Note_on_c, 0, 53, 0
2, 2272, Note_on_c, 0, 62, 0
2, 2274, Note_on_c, 0, 50, 0
2, 2274, Note_on_c, 0, 46, 0
2, 2276, Note_on_c, 0, 74, 0
2, 2278, Note_on_c, 0, 70, 0
2, 2280, Note_on_c, 0, 58, 0
2, 2519, Note_on_c, 0, 41, 80
2, 2520, Note_on_c, 0, 53, 80
2, 2578, Note_on_c, 0, 41, 0
2, 2582, Note_on_c, 0, 53, 0
2, 2601, Note_on_c, 0, 46, 80
2, 2686, Note_on_c, 0, 58, 80
2, 2688, Control_c, 0, 64, 127
2, 2758, Note_on_c, 0, 46, 0
2, 2793, Note_on_c, 0, 58, 0
2, 2827, Control_c, 0, 64, 0
2, 2846, Note_on_c, 0, 53, 80
2, 2846, Note_on_c, 0, 56, 80
2, 2846, Note_on_c, 0, 74, 80
2, 2850, Note_on_c, 0, 62, 80
2, 2850, Note_on_c, 0, 80, 80
2, 2850, Note_on_c, 0, 86, 80
2, 2854, Note_on_c, 0, 58, 80
2, 2879, Note_on_c, 0, 53, 0
2, 2882, Note_on_c, 0, 62, 0
2, 2886, Note_on_c, 0, 56, 0
2, 2888, Note_on_c, 0, 58, 0
2, 2899, Note_on_c, 0, 86, 0
2, 2899, Note_on_c, 0, 80, 0
2, 2905, Note_on_c, 0, 74, 0
2, 2946, Note_on_c, 0, 73, 80
2, 2948, Note_on_c, 0, 85, 80
2, 2981, Note_on_c, 0, 73, 0
2, 2983, Note_on_c, 0, 85, 0
2, 2983, Note_on_c, 0, 34, 80
2, 2990, Note_on_c, 0, 72, 80
2, 2994, Note_on_c, 0, 80, 80
2, 2998, Note_on_c, 0, 84, 80
2, 3019, Note_on_c, 0, 34, 0
2, 3070, Note_on_c, 0, 72, 0
2, 3070, Note_on_c, 0, 80, 0
2, 3070, Note_on_c, 0, 84, 0
2, 3084, Note_on_c, 0, 70, 80
2, 3091, Note_on_c, 0, 82, 80
2, 3124, Note_on_c, 0, 82, 0
2, 3128, Note_on_c, 0, 70, 0
2, 3132, Note_on_c, 0, 53, 80
2, 3132, Note_on_c, 0, 56, 80
2, 3132, Note_on_c, 0, 58, 80
2, 3132, Note_on_c, 0, 62, 80
2, 3132, Note_on_c, 0, 65, 80
2, 3139, Note_on_c, 0, 77, 80
2, 3164, Note_on_c, 0, 53, 0
2, 3170, Note_on_c, 0, 62, 0
2, 3174, Note_on_c, 0, 58, 0
2, 3185, Note_on_c, 0, 56, 0
2, 3206, Note_on_c, 0, 65, 0
2, 3208, Note_on_c, 0, 77, 0
2, 3208, Note_on_c, 0, 66, 80
2, 3210, Note_on_c, 0, 78, 80
2, 3222, Note_on_c, 0, 39, 80
2, 3256, Control_c, 0, 64, 127
2, 3268, Note_on_c, 0, 39, 0
2, 3270, Note_on_c, 0, 66, 0
2, 3277, Note_on_c, 0, 78, 0
2, 3286, Note_on_c, 0, 51, 80
2, 3286, Note_on_c, 0, 67, 80
2, 3286, Note_on_c, 0, 79, 80
2, 3289, Note_on_c, 0, 75, 80
2, 3347, Note_on_c, 0, 75, 0
2, 3347, Note_on_c, 0, 79, 0
2, 3347, Note_on_c, 0, 67, 0
2, 3358, Note_on_c, 0, 51, 0
2, 3387, Note_on_c, 0, 89, 80
2, 3394, Note_on_c, 0, 77, 80
2, 3413, Control_c, 0, 64, 0
2, 3436, Note_on_c, 0, 64, 80
2, 3440, Note_on_c, 0, 58, 80
2, 3440, Note_on_c, 0, 76, 80
2, 3442, Note_on_c, 0, 67, 80
2, 3442, Note_on_c, 0, 88, 80
2, 3453, Note_on_c, 0, 77, 0
2, 3455, Note_on_c, 0, 89, 0
2, 3476, Note_on_c, 0, 64, 0
2, 3482, Note_on_c, 0, 67, 0
2, 3486, Note_on_c, 0, 58, 0
2, 3516, Note_on_c, 0, 76, 0
2, 3516, Note_on_c, 0, 88, 0
2, 3516, Note_on_c, 0, 39, 80
2, 3539, Note_on_c, 0, 77, 80
2, 3541, Note_on_c, 0, 89, 80
2, 3558, Note_on_c, 0, 39, 0
2, 3586, Note_on_c, 0, 77, 0
2, 3593, Note_on_c, 0, 89, 0
2, 3595, Note_on_c, 0, 51, 80
2, 3595, Note_on_c, 0, 79, 80
2, 3595, Note_on_c, 0, 87, 80
2, 3597, Note_on_c, 0, 75, 80
2, 3662, Note_on_c, 0, 51, 0
2, 3672, Note_on_c, 0, 79, 0
2, 3672, Note_on_c, 0, 75, 0
2, 3674, Note_on_c, 0, 87, 0
2, 3696, Note_on_c, 0, 73, 80
2, 3699, Note_on_c, 0, 85, 80
2, 3738, Note_on_c, 0, 73, 0
2, 3748, Note_on_c, 0, 61, 80
2, 3748, Note_on_c, 0, 64, 80
2, 3748, Note_on_c, 0, 67, 80
2, 3748, Note_on_c, 0, 70, 80
2, 3750, Note_on_c, 0, 58, 80
2, 3752, Note_on_c, 0, 82, 80
2, 3759, Note_on_c, 0, 85, 0
2, 3784, Note_on_c, 0, 61, 0
2, 3784, Note_on_c, 0, 64, 0
2, 3791, Note_on_c, 0, 58, 0
2, 3792, Note_on_c, 0, 67, 0
2, 3843, Note_on_c, 0, 70, 0
2, 3847, Note_on_c, 0, 82, 0
2, 3847, Note_on_c, 0, 41, 80
2, 3847, Note_on_c, 0, 67, 80
2, 3849, Note_on_c, 0, 79, 80
2, 3881, Note_on_c, 0, 41, 0
2, 3891, Note_on_c, 0, 67, 0
2, 3891, Note_on_c, 0, 53, 80
2, 3893, Note_on_c, 0, 79, 0
2, 3895, Note_on_c, 0, 65, 80
2, 3897, Note_on_c, 0, 74, 80
2, 3904, Note_on_c, 0, 77, 80
2, 3906, Control_c, 0, 64, 127
2, 3967, Note_on_c, 0, 53, 0
2, 3984, Note_on_c, 0, 74, 0
2, 3986, Note_on_c, 0, 65, 0
2, 3986, Note_on_c, 0, 77, 0
2, 4004, Note_on_c, 0, 73, 80
2, 4008, Note_on_c, 0, 61, 80
2, 4048, Note_on_c, 0, 61, 0
2, 4048, Control_c, 0, 64, 0
2, 4050, Note_on_c, 0, 73, 0
2, 4052, Note_on_c, 0, 53, 80
2, 4052, Note_on_c, 0, 56, 80
2, 4054, Note_on_c, 0, 62, 80
2, 4057, Note_on_c, 0, 58, 80
2, 4057, Note_on_c, 0, 68, 80
2, 4059, Note_on_c, 0, 74, 80
2, 4098, Note_on_c, 0, 58, 0
2, 4102, Note_on_c, 0, 56, 0
2, 4102, Note_on_c, 0, 53, 0
2, 4112, Note_on_c, 0, 74, 0
2, 4114, Note_on_c, 0, 62, 0
2, 4121, Note_on_c, 0, 68, 0
2, 4151, Note_on_c, 0, 74, 80
2, 4157, Note_on_c, 0, 80, 80
2, 4157, Note_on_c, 0, 86, 80
2, 4196, Note_on_c, 0, 34, 80
2, 4236, Note_on_c, 0, 34, 0
2, 4289, Note_on_c, 0, 86, 0
2, 4297, Note_on_c, 0, 80, 0
2, 4299, Note_on_c, 0, 74, 0
2, 4306, Note_on_c, 0, 72, 80
2, 4315, Note_on_c, 0, 84, 80
2, 4350, Note_on_c, 0, 72, 0
2, 4350, Note_on_c, 0, 62, 80
2, 4352, Note_on_c, 0, 65, 80
2, 4354, Note_on_c, 0, 84, 0
2, 4356, Note_on_c, 0, 56, 80
2, 4356, Note_on_c, 0, 68, 80
2, 4358, Note_on_c, 0, 58, 80
2, 4360, Note_on_c, 0, 80, 80
2, 4393, Note_on_c, 0, 62, 0
2, 4397, Note_on_c, 0, 65, 0
2, 4399, Note_on_c, 0, 58, 0
2, 4408, Note_on_c, 0, 56, 0
2, 4450, Note_on_c, 0, 80, 0
2, 4452, Note_on_c, 0, 68, 0
2, 4454, Note_on_c, 0, 65, 80
2, 4461, Note_on_c, 0, 77, 80
2, 4496, Note_on_c, 0, 34, 80
2, 4524, Control_c, 0, 64, 127
2, 4531, Note_on_c, 0, 77, 0
2, 4531, Note_on_c, 0, 65, 0
2, 4539, Note_on_c, 0, 34, 0
2, 4609, Note_on_c, 0, 61, 80
2, 4609, Note_on_c, 0, 73, 80
2, 4652, Note_on_c, 0, 61, 0
2, 4654, Note_on_c, 0, 73, 0
2, 4657, Note_on_c, 0, 53, 80
2, 4657, Note_on_c, 0, 62, 80
2, 4666, Note_on_c, 0, 56, 80
2, 4666, Note_on_c, 0, 58, 80
2, 4670, Note_on_c, 0, 68, 80
2, 4674, Note_on_c, 0, 74, 80
2, 4693, Note_on_c, 0, 53, 0
2, 4697, Control_c, 0, 64, 0
2, 4722, Note_on_c, 0, 58, 0
2, 4730, Note_on_c, 0, 56, 0
2, 4737, Note_on_c, 0, 62, 0
2, 4739, Note_on_c, 0, 68, 0
2, 4758, Note_on_c, 0, 86, 80
2, 4760, Note_on_c, 0, 80, 80
2, 4796, Note_on_c, 0, 41, 80
2, 4840, Note_on_c, 0, 41, 0
2, 4884, Note_on_c, 0, 86, 0
2, 4886, Note_on_c, 0, 80, 0
2, 4886, Note_on_c, 0, 74, 0
2, 4907, Note_on_c, 0, 72, 80
2, 4914, Note_on_c, 0, 80, 80
2, 4914, Note_on_c, 0, 84, 80
2, 4954, Note_on_c, 0, 80, 0
2, 4954, Note_on_c, 0, 72, 0
2, 4956, Note_on_c, 0, 62, 80
2, 4956, Note_on_c, 0, 65, 80
2, 4958, Note_on_c, 0, 84, 0
2, 4960, Note_on_c, 0, 56, 80
2, 4962, Note_on_c, 0, 58, 80
2, 4962, Note_on_c, 0, 77, 80
2, 4992, Note_on_c, 0, 62, 0
2, 4998, Note_on_c, 0, 58, 0
2, 5002, Note_on_c, 0, 56, 0
2, 5019, Note_on_c, 0, 65, 0
2, 5026, Note_on_c, 0, 77, 0
2, 5049, Note_on_c, 0, 66, 80
2, 5051, Note_on_c, 0, 39, 80
2, 5058, Note_on_c, 0, 78, 80
2, 5091, Note_on_c, 0, 39, 0
2, 5100, Note_on_c, 0, 55, 80
2, 5104, Note_on_c, 0, 79, 80
2, 5108, Note_on_c, 0, 67, 80
2, 5108, Note_on_c, 0, 75, 80
2, 5110, Control_c, 0, 64, 127
2, 5112, Note_on_c, 0, 66, 0
2, 5115, Note_on_c, 0, 78, 0
2, 5164, Note_on_c, 0, 67, 0
2, 5164, Note_on_c, 0, 79, 0
2, 5166, Note_on_c, 0, 75, 0
2, 5168, Note_on_c, 0, 55, 0
2, 5208, Note_on_c, 0, 77, 80
2, 5208, Note_on_c, 0, 89, 80
2, 5247, Control_c, 0, 64, 0
2, 5249, Note_on_c, 0, 55, 80
2, 5253, Note_on_c, 0, 77, 0
2, 5255, Note_on_c, 0, 89, 0
2, 5255, Note_on_c, 0, 63, 80
2, 5256, Note_on_c, 0, 67, 80
2, 5256, Note_on_c, 0, 76, 80
2, 5260, Note_on_c, 0, 58, 80
2, 5260, Note_on_c, 0, 88, 80
2, 5299, Note_on_c, 0, 63, 0
2, 5301, Note_on_c, 0, 58, 0
2, 5303, Note_on_c, 0, 67, 0
2, 5304, Note_on_c, 0, 55, 0
2, 5311, Note_on_c, 0, 88, 0
2, 5318, Note_on_c, 0, 76, 0
2, 5352, Note_on_c, 0, 75, 80
2, 5352, Note_on_c, 0, 79, 80
2, 5352, Note_on_c, 0, 87, 80
2, 5362, Note_on_c, 0, 82, 80
2, 5392, Note_on_c, 0, 34, 80
2, 5427, Note_on_c, 0, 34, 0
2, 5440, Note_on_c, 0, 87, 0
2, 5442, Note_on_c, 0, 75, 0
2, 5442, Note_on_c, 0, 79, 0
2, 5446, Note_on_c, 0, 82, 0
2, 5495, Note_on_c, 0, 70, 80
2, 5501, Note_on_c, 0, 82, 80
2, 5542, Note_on_c, 0, 55, 80
2, 5542, Note_on_c, 0, 63, 80
2, 5544, Note_on_c, 0, 72, 80
2, 5544, Note_on_c, 0, 79, 80
2, 5547, Note_on_c, 0, 58, 80
2, 5547, Note_on_c, 0, 67, 80
2, 5551, Note_on_c, 0, 84, 80
2, 5560, Note_on_c, 0, 82, 0
2, 5560, Note_on_c, 0, 70, 0
2, 5583, Note_on_c, 0, 55, 0
2, 5585, Note_on_c, 0, 63, 0
2, 5585, Note_on_c, 0, 58, 0
2, 5589, Note_on_c, 0, 67, 0
2, 5599, Note_on_c, 0, 72, 0
2, 5614, Note_on_c, 0, 79, 0
2, 5617, Note_on_c, 0, 84, 0
2, 5640, Note_on_c, 0, 82, 80
2, 5642, Note_on_c, 0, 70, 80
2, 5670, Note_on_c, 0, 82, 0
2, 5689, Note_on_c, 0, 73, 80
2, 5691, Note_on_c, 0, 58, 80
2, 5691, Note_on_c, 0, 85, 80
2, 5695, Note_on_c, 0, 82, 80
2, 5697, Control_c, 0, 64, 127
2, 5727, Note_on_c, 0, 73, 0
2, 5731, Note_on_c, 0, 85, 0
2, 5731, Note_on_c, 0, 58, 0
2, 5733, Note_on_c, 0, 70, 0
2, 5735, Note_on_c, 0, 82, 0
2, 5773, Note_on_c, 0, 54, 80
2, 5773, Note_on_c, 0, 66, 80
2, 5773, Note_on_c, 0, 70, 80
2, 5777, Note_on_c, 0, 82, 80
2, 5812, Note_on_c, 0, 54, 0
2, 5816, Note_on_c, 0, 66, 0
2, 5818, Note_on_c, 0, 82, 0
2, 5832, Control_c, 0, 64, 0
2, 5836, Note_on_c, 0, 49, 80
2, 5838, Note_on_c, 0, 70, 0
2, 5840, Note_on_c, 0, 61, 80
2, 5840, Note_on_c, 0, 66, 80
2, 5844, Note_on_c, 0, 78, 80
2, 5882, Note_on_c, 0, 49, 0
2, 5884, Note_on_c, 0, 61, 0
2, 5884, Note_on_c, 0, 66, 0
2, 5893, Note_on_c, 0, 78, 0
2, 5921, Note_on_c, 0, 46, 80
2, 5928, Note_on_c, 0, 61, 80
2, 5929, Note_on_c, 0, 73, 80
2, 5931, Note_on_c, 0, 58, 80
2, 5967, Note_on_c, 0, 61, 0
2, 5974, Note_on_c, 0, 46, 0
2, 5977, Note_on_c, 0, 58, 0
2, 5988, Note_on_c, 0, 73, 0
2, 5997, Note_on_c, 0, 54, 80
2, 5997, Note_on_c, 0, 66, 80
2, 5999, Note_on_c, 0, 70, 80
2, 6005, Note_on_c, 0, 82, 80
2, 6037, Note_on_c, 0, 66, 0
2, 6037, Note_on_c, 0, 54, 0
2, 6041, Note_on_c, 0, 82, 0
2, 6045, Note_on_c, 0, 70, 0
2, 6074, Note_on_c, 0, 61, 80
2, 6074, Note_on_c, 0, 66, 80
2, 6078, Note_on_c, 0, 49, 80
2, 6082, Note_on_c, 0, 78, 80
2, 6114, Note_on_c, 0, 49, 0
2, 6118, Note_on_c, 0, 61, 0
2, 6120, Note_on_c, 0, 66, 0
2, 6137, Note_on_c, 0, 46, 80
2, 6144, Note_on_c, 0, 61, 80
2, 6147, Note_on_c, 0, 58, 80
2, 6149, Note_on_c, 0, 78, 0
2, 6149, Note_on_c, 0, 73, 80
2, 6185, Note_on_c, 0, 46, 0
2, 6185, Note_on_c, 0, 61, 0
2, 6187, Note_on_c, 0, 73, 0
2, 6191, Note_on_c, 0, 58, 0
2, 6224, Note_on_c, 0, 42, 80
2, 6226, Note_on_c, 0, 54, 80
2, 6226, Note_on_c, 0, 58, 80
2, 6230, Note_on_c, 0, 70, 80
2, 6274, Note_on_c, 0, 54, 0
2, 6274, Note_on_c, 0, 42, 0
2, 6278, Note_on_c, 0, 58, 0
2, 6280, Control_c, 0, 64, 127
2, 6284, Note_on_c, 0, 53, 80
2, 6286, Note_on_c, 0, 41, 80
2, 6288, Note_on_c, 0, 70, 0
2, 6291, Note_on_c, 0, 62, 80
2, 6293, Note_on_c, 0, 74, 80
2, 6355, Note_on_c, 0, 41, 0
2, 6359, Note_on_c, 0, 53, 0
2, 6360, Note_on_c, 0, 62, 0
2, 6360, Note_on_c, 0, 74, 0
2, 6369, Note_on_c, 0, 65, 80
2, 6413, Control_c, 0, 64, 0
2, 6436, Note_on_c, 0, 46, 80
2, 6438, Note_on_c, 0, 58, 80
2, 6442, Note_on_c, 0, 70, 80
2, 6482, Note_on_c, 0, 65, 0
2, 6521, Note_on_c, 0, 70, 0
2, 6525, Note_on_c, 0, 65, 80
2, 6527, Note_on_c, 0, 62, 80
2, 6528, Note_on_c, 0, 74, 80
2, 6560, Note_on_c, 0, 46, 0
2, 6562, Note_on_c, 0, 62, 0
2, 6571, Note_on_c, 0, 58, 0
2, 6571, Note_on_c, 0, 74, 0
2, 6583, Note_on_c, 0, 65, 0
2, 6585, Note_on_c, 0, 45, 80
2, 6585, Note_on_c, 0, 72, 80
2, 6589, Note_on_c, 0, 57, 80
2, 6589, Note_on_c, 0, 60, 80
2, 6642, Note_on_c, 0, 45, 0
2, 6648, Note_on_c, 0, 60, 0
2, 6659, Note_on_c, 0, 57, 0
2, 6663, Note_on_c, 0, 46, 80
2, 6667, Note_on_c, 0, 66, 80
2, 6677, Note_on_c, 0, 58, 80
2, 6686, Note_on_c, 0, 72, 0
2, 6726, Note_on_c, 0, 46, 0
2, 6735, Note_on_c, 0, 45, 80
2, 6739, Note_on_c, 0, 57, 80
2, 6739, Note_on_c, 0, 69, 80
2, 6758, Note_on_c, 0, 58, 0
2, 6783, Note_on_c, 0, 66, 0
2, 6795, Note_on_c, 0, 45, 0
2, 6804, Note_on_c, 0, 57, 0
2, 6823, Note_on_c, 0, 44, 80
2, 6823, Note_on_c, 0, 60, 80
2, 6823, Note_on_c, 0, 66, 80
2, 6823, Note_on_c, 0, 72, 80
2, 6827, Note_on_c, 0, 56, 80
2, 6841, Note_on_c, 0, 69, 0
2, 6869, Note_on_c, 0, 66, 0
2, 6869, Note_on_c, 0, 60, 0
2, 6871, Note_on_c, 0, 72, 0
2, 6873, Note_on_c, 0, 56, 0
2, 6880, Control_c, 0, 64, 127
2, 6882, Note_on_c, 0, 44, 0
2, 6886, Note_on_c, 0, 43, 80
2, 6886, Note_on_c, 0, 55, 80
2, 6892, Note_on_c, 0, 59, 80
2, 6892, Note_on_c, 0, 65, 80
2, 6894, Note_on_c, 0, 71, 80
2, 6958, Note_on_c, 0, 43, 0
2, 6961, Note_on_c, 0, 55, 0
2, 6961, Note_on_c, 0, 59, 0
2, 6968, Note_on_c, 0, 71, 0
2, 6970, Note_on_c, 0, 65, 0
2, 6970, Note_on_c, 0, 74, 80
2, 7014, Control_c, 0, 64, 0
2, 7018, Note_on_c, 0, 74, 0
2, 7037, Note_on_c, 0, 53, 80
2, 7037, Note_on_c, 0, 55, 80
2, 7046, Note_on_c, 0, 59, 80
2, 7046, Note_on_c, 0, 79, 80
2, 7050, Note_on_c, 0, 62, 80
2, 7050, Note_on_c, 0, 67, 80
2, 7083, Note_on_c, 0, 53, 0
2, 7087, Note_on_c, 0, 62, 0
2, 7087, Note_on_c, 0, 59, 0
2, 7096, Note_on_c, 0, 55, 0
2, 7126, Note_on_c, 0, 67, 0
2, 7126, Note_on_c, 0, 79, 0
2, 7140, Note_on_c, 0, 43, 80
2, 7144, Note_on_c, 0, 66, 80
2, 7148, Note_on_c, 0, 78, 80
2, 7183, Note_on_c, 0, 66, 0
2, 7192, Note_on_c, 0, 78, 0
2, 7194, Note_on_c, 0, 50, 80
2, 7196, Note_on_c, 0, 43, 0
2, 7196, Note_on_c, 0, 74, 80
2, 7198, Note_on_c, 0, 59, 80
2, 7198, Note_on_c, 0, 65, 80
2, 7198, Note_on_c, 0, 71, 80
2, 7204, Note_on_c, 0, 77, 80
2, 7234, Note_on_c, 0, 50, 0
2, 7238, Note_on_c, 0, 59, 0
2, 7250, Note_on_c, 0, 71, 0
2, 7252, Note_on_c, 0, 77, 0
2, 7254, Note_on_c, 0, 74, 0
2, 7256, Note_on_c, 0, 65, 0
2, 7290, Note_on_c, 0, 65, 80
2, 7294, Note_on_c, 0, 77, 80
2, 7325, Note_on_c, 0, 77, 0
2, 7336, Note_on_c, 0, 55, 80
2, 7340, Note_on_c, 0, 65, 0
2, 7342, Note_on_c, 0, 74, 80
2, 7344, Note_on_c, 0, 59, 80
2, 7344, Note_on_c, 0, 62, 80
2, 7344, Note_on_c, 0, 71, 80
2, 7345, Note_on_c, 0, 67, 80
2, 7347, Note_on_c, 0, 77, 80
2, 7381, Note_on_c, 0, 62, 0
2, 7385, Note_on_c, 0, 59, 0
2, 7385, Note_on_c, 0, 55, 0
2, 7404, Note_on_c, 0, 71, 0
2, 7406, Note_on_c, 0, 74, 0
2, 7406, Note_on_c, 0, 67, 0
2, 7406, Note_on_c, 0, 77, 0
2, 7438, Note_on_c, 0, 36, 80
2, 7440, Note_on_c, 0, 65, 80
2, 7448, Note_on_c, 0, 77, 80
2, 7482, Note_on_c, 0, 43, 80
2, 7490, Note_on_c, 0, 77, 0
2, 7490, Note_on_c, 0, 76, 80
2, 7492, Note_on_c, 0, 65, 0
2, 7492, Note_on_c, 0, 52, 80
2, 7492, Note_on_c, 0, 64, 80
2, 7492, Note_on_c, 0, 72, 80
2, 7494, Note_on_c, 0, 36, 0
2, 7494, Note_on_c, 0, 70, 80
2, 7501, Control_c, 0, 64, 127
2, 7522, Note_on_c, 0, 43, 0
2, 7533, Note_on_c, 0, 64, 0
2, 7536, Note_on_c, 0, 52, 0
2, 7549, Note_on_c, 0, 76, 0
2, 7558, Note_on_c, 0, 72, 0
2, 7560, Note_on_c, 0, 70, 0
2, 7584, Note_on_c, 0, 74, 80
2, 7595, Note_on_c, 0, 86, 80
2, 7631, Note_on_c, 0, 74, 0
2, 7632, Note_on_c, 0, 55, 80
2, 7634, Control_c, 0, 64, 0
2, 7636, Note_on_c, 0, 86, 0
2, 7636, Note_on_c, 0, 60, 80
2, 7636, Note_on_c, 0, 64, 80
2, 7636, Note_on_c, 0, 79, 80
2, 7638, Note_on_c, 0, 73, 80
2, 7640, Note_on_c, 0, 58, 80
2, 7644, Note_on_c, 0, 85, 80
2, 7648, Note_on_c, 0, 82, 80
2, 7676, Note_on_c, 0, 64, 0
2, 7682, Note_on_c, 0, 55, 0
2, 7682, Note_on_c, 0, 58, 0
2, 7682, Note_on_c, 0, 60, 0
2, 7702, Note_on_c, 0, 79, 0
2, 7704, Note_on_c, 0, 73, 0
2, 7704, Note_on_c, 0, 85, 0
2, 7705, Note_on_c, 0, 82, 0
2, 7744, Note_on_c, 0, 74, 80
2, 7744, Note_on_c, 0, 79, 80
2, 7746, Note_on_c, 0, 86, 80
2, 7750, Note_on_c, 0, 82, 80
2, 7769, Note_on_c, 0, 79, 0
2, 7773, Note_on_c, 0, 82, 0
2, 7783, Note_on_c, 0, 31, 80
2, 7785, Note_on_c, 0, 74, 0
2, 7787, Note_on_c, 0, 50, 80
2, 7787, Note_on_c, 0, 72, 80
2, 7789, Note_on_c, 0, 86, 0
2, 7793, Note_on_c, 0, 79, 80
2, 7800, Note_on_c, 0, 84, 80
2, 7803, Note_on_c, 0, 82, 80
2, 7824, Note_on_c, 0, 31, 0
2, 7849, Note_on_c, 0, 72, 0
2, 7851, Note_on_c, 0, 84, 0
2, 7851, Note_on_c, 0, 79, 0
2, 7851, Note_on_c, 0, 82, 0
2, 7885, Note_on_c, 0, 79, 80
2, 7887, Note_on_c, 0, 76, 80
2, 7891, Note_on_c, 0, 70, 80
2, 7891, Note_on_c, 0, 82, 80
2, 7924, Note_on_c, 0, 55, 80
2, 7933, Note_on_c, 0, 58, 80
2, 7933, Note_on_c, 0, 60, 80
2, 7933, Note_on_c, 0, 64, 80
2, 7971, Note_on_c, 0, 64, 0
2, 7975, Note_on_c, 0, 58, 0
2, 7977, Note_on_c, 0, 60, 0
2, 8026, Note_on_c, 0, 57, 80
2, 8039, Note_on_c, 0, 76, 0
2, 8042, Note_on_c, 0, 82, 0
2, 8044, Note_on_c, 0, 70, 0
2, 8044, Note_on_c, 0, 79, 0
2, 8046, Note_on_c, 0, 58, 80
2, 8055, Note_on_c, 0, 50, 0
2, 8059, Note_on_c, 0, 59, 80
2, 8071, Control_c, 0, 64, 127
2, 8073, Note_on_c, 0, 60, 80
2, 8075, Note_on_c, 0, 55, 0
2, 8077, Note_on_c, 0, 66, 80
2, 8079, Note_on_c, 0, 78, 80
2, 8083, Note_on_c, 0, 75, 80
2, 8087, Note_on_c, 0, 58, 0
2, 8088, Note_on_c, 0, 57, 0
2, 8106, Control_c, 0, 64, 0
2, 8120, Note_on_c, 0, 59, 0
2, 8135, Note_on_c, 0, 66, 0
2, 8136, Note_on_c, 0, 75, 0
2, 8143, Note_on_c, 0, 78, 0
2, 8147, Control_c, 0, 64, 127
2, 8175, Note_on_c, 0, 79, 80
2, 8177, Note_on_c, 0, 67, 80
2, 8177, Note_on_c, 0, 75, 80
2, 8184, Note_on_c, 0, 60, 0
2, 8219, Control_c, 0, 64, 0
2, 8223, Note_on_c, 0, 53, 80
2, 8227, Note_on_c, 0, 60, 80
2, 8227, Note_on_c, 0, 63, 80
2, 8231, Note_on_c, 0, 57, 80
2, 8252, Note_on_c, 0, 79, 0
2, 8252, Note_on_c, 0, 75, 0
2, 8252, Note_on_c, 0, 67, 0
2, 8269, Note_on_c, 0, 53, 0
2, 8271, Note_on_c, 0, 60, 0
2, 8273, Note_on_c, 0, 63, 0
2, 8275, Note_on_c, 0, 57, 0
2, 8326, Note_on_c, 0, 72, 80
2, 8328, Note_on_c, 0, 65, 80
2, 8334, Note_on_c, 0, 69, 80
2, 8338, Note_on_c, 0, 75, 80
2, 8338, Note_on_c, 0, 77, 80
2, 8380, Note_on_c, 0, 41, 80
2, 8424, Note_on_c, 0, 75, 0
2, 8424, Note_on_c, 0, 65, 0
2, 8424, Note_on_c, 0, 72, 0
2, 8428, Note_on_c, 0, 77, 0
2, 8432, Note_on_c, 0, 69, 0
2, 8434, Note_on_c, 0, 41, 0
2, 8478, Note_on_c, 0, 65, 80
2, 8482, Note_on_c, 0, 69, 80
2, 8482, Note_on_c, 0, 73, 80
2, 8524, Note_on_c, 0, 73, 0
2, 8524, Note_on_c, 0, 53, 80
2, 8524, Note_on_c, 0, 60, 80
2, 8524, Note_on_c, 0, 63, 80
2, 8526, Note_on_c, 0, 65, 0
2, 8526, Note_on_c, 0, 74, 80
2, 8528, Note_on_c, 0, 57, 80
2, 8530, Note_on_c, 0, 69, 0
2, 8602, Note_on_c, 0, 53, 0
2, 8606, Note_on_c, 0, 63, 0
2, 8606, Note_on_c, 0, 60, 0
2, 8613, Note_on_c, 0, 57, 0
2, 8613, Note_on_c, 0, 74, 0
2, 8638, Note_on_c, 0, 70, 80
2, 8657, Note_on_c, 0, 72, 80
2, 8669, Note_on_c, 0, 70, 0
2, 8676, Note_on_c, 0, 53, 80
2, 8685, Note_on_c, 0, 58, 80
2, 8685, Note_on_c, 0, 62, 80
2, 8687, Control_c, 0, 64, 127
2, 8695, Note_on_c, 0, 72, 0
2, 8706, Note_on_c, 0, 70, 80
2, 8755, Note_on_c, 0, 53, 0
2, 8761, Note_on_c, 0, 62, 0
2, 8761, Note_on_c, 0, 58, 0
2, 8765, Note_on_c, 0, 70, 0
2, 8780, Note_on_c, 0, 71, 80
2, 8826, Control_c, 0, 64, 0
2, 8836, Note_on_c, 0, 55, 80
2, 8838, Note_on_c, 0, 71, 0
2, 8840, Note_on_c, 0, 52, 80
2, 8840, Note_on_c, 0, 60, 80
2, 8840, Note_on_c, 0, 72, 80
2, 8844, Note_on_c, 0, 67, 80
2, 8904, Note_on_c, 0, 52, 0
2, 8910, Note_on_c, 0, 55, 0
2, 8912, Note_on_c, 0, 67, 0
2, 8912, Note_on_c, 0, 60, 0
2, 8916, Note_on_c, 0, 72, 0
2, 8952, Note_on_c, 0, 65, 80
2, 8953, Note_on_c, 0, 74, 80
2, 9002, Note_on_c, 0, 65, 0
2, 9004, Note_on_c, 0, 74, 0
2, 9004, Note_on_c, 0, 53, 80
2, 9004, Note_on_c, 0, 72, 80
2, 9008, Note_on_c, 0, 60, 80
2, 9008, Note_on_c, 0, 63, 80
2, 9010, Note_on_c, 0, 69, 80
2, 9014, Note_on_c, 0, 75, 80
2, 9058, Note_on_c, 0, 53, 0
2, 9071, Note_on_c, 0, 63, 0
2, 9071, Note_on_c, 0, 60, 0
2, 9088, Note_on_c, 0, 75, 0
2, 9092, Note_on_c, 0, 69, 0
2, 9092, Note_on_c, 0, 72, 0
2, 9111, Note_on_c, 0, 65, 80
2, 9120, Note_on_c, 0, 77, 80
2, 9155, Note_on_c, 0, 65, 0
2, 9159, Note_on_c, 0, 53, 80
2, 9161, Note_on_c, 0, 77, 0
2, 9163, Note_on_c, 0, 60, 80
2, 9163, Note_on_c, 0, 63, 80
2, 9167, Note_on_c, 0, 57, 80
2, 9167, Note_on_c, 0, 67, 80
2, 9167, Note_on_c, 0, 79, 80
2, 9237, Note_on_c, 0, 79, 0
2, 9237, Note_on_c, 0, 53, 0
2, 9237, Note_on_c, 0, 63, 0
2, 9237, Note_on_c, 0, 67, 0
2, 9239, Note_on_c, 0, 60, 0
2, 9242, Note_on_c, 0, 57, 0
2, 9267, Note_on_c, 0, 69, 80
2, 9271, Note_on_c, 0, 81, 80
2, 9310, Note_on_c, 0, 81, 0
2, 9313, Note_on_c, 0, 53, 80
2, 9315, Note_on_c, 0, 69, 0
2, 9317, Note_on_c, 0, 62, 80
2, 9319, Note_on_c, 0, 70, 80
2, 9323, Control_c, 0, 64, 127
2, 9323, Note_on_c, 0, 58, 80
2, 9323, Note_on_c, 0, 82, 80
2, 9383, Note_on_c, 0, 53, 0
2, 9389, Note_on_c, 0, 62, 0
2, 9389, Note_on_c, 0, 70, 0
2, 9391, Note_on_c, 0, 58, 0
2, 9395, Note_on_c, 0, 82, 0
2, 9412, Note_on_c, 0, 72, 80
2, 9423, Note_on_c, 0, 84, 80
2, 9427, Control_c, 0, 64, 0
2, 9458, Note_on_c, 0, 72, 0
2, 9458, Note_on_c, 0, 55, 80
2, 9462, Note_on_c, 0, 61, 80
2, 9462, Note_on_c, 0, 71, 80
2, 9466, Note_on_c, 0, 84, 0
2, 9466, Note_on_c, 0, 52, 80
2, 9473, Note_on_c, 0, 83, 80
2, 9515, Note_on_c, 0, 79, 80
2, 9517, Note_on_c, 0, 52, 0
2, 9521, Note_on_c, 0, 71, 0
2, 9521, Note_on_c, 0, 61, 0
2, 9523, Note_on_c, 0, 55, 0
2, 9527, Note_on_c, 0, 83, 0
2, 9558, Note_on_c, 0, 79, 0
2, 9569, Note_on_c, 0, 70, 80
2, 9577, Note_on_c, 0, 82, 80
2, 9611, Note_on_c, 0, 53, 80
2, 9611, Note_on_c, 0, 57, 80
2, 9615, Note_on_c, 0, 60, 80
2, 9617, Note_on_c, 0, 69, 80
2, 9619, Note_on_c, 0, 75, 80
2, 9625, Note_on_c, 0, 81, 80
2, 9629, Note_on_c, 0, 82, 0
2, 9629, Note_on_c, 0, 70, 0
2, 9670, Note_on_c, 0, 53, 0
2, 9676, Note_on_c, 0, 57, 0
2, 9676, Note_on_c, 0, 60, 0
2, 9694, Note_on_c, 0, 75, 0
2, 9697, Note_on_c, 0, 81, 0
2, 9697, Note_on_c, 0, 69, 0
2, 9715, Note_on_c, 0, 41, 80
2, 9719, Note_on_c, 0, 79, 80
2, 9722, Note_on_c, 0, 67, 80
2, 9761, Note_on_c, 0, 79, 0
2, 9761, Note_on_c, 0, 65, 80
2, 9763, Note_on_c, 0, 67, 0
2, 9763, Note_on_c, 0, 48, 80
2, 9763, Note_on_c, 0, 72, 80
2, 9765, Note_on_c, 0, 57, 80
2, 9767, Note_on_c, 0, 69, 80
2, 9768, Note_on_c, 0, 75, 80
2, 9775, Note_on_c, 0, 77, 80
2, 9798, Note_on_c, 0, 41, 0
2, 9800, Note_on_c, 0, 48, 0
2, 9821, Note_on_c, 0, 75, 0
2, 9825, Note_on_c, 0, 72, 0
2, 9827, Note_on_c, 0, 69, 0
2, 9827, Note_on_c, 0, 77, 0
2, 9827, Note_on_c, 0, 65, 0
2, 9859, Note_on_c, 0, 57, 0
2, 9861, Note_on_c, 0, 63, 80
2, 9864, Note_on_c, 0, 46, 80
2, 9868, Note_on_c, 0, 69, 80
2, 9868, Note_on_c, 0, 72, 80
2, 9872, Note_on_c, 0, 75, 80
2, 9906, Note_on_c, 0, 46, 0
2, 9908, Note_on_c, 0, 72, 0
2, 9908, Control_c, 0, 64, 127
2, 9910, Note_on_c, 0, 63, 0
2, 9910, Note_on_c, 0, 75, 0
2, 9916, Note_on_c, 0, 69, 0
2, 9916, Note_on_c, 0, 62, 80
2, 9916, Note_on_c, 0, 70, 80
2, 9918, Note_on_c, 0, 58, 80
2, 9922, Note_on_c, 0, 74, 80
2, 9960, Note_on_c, 0, 62, 0
2, 9973, Note_on_c, 0, 58, 0
2, 9984, Note_on_c, 0, 70, 0
2, 10007, Note_on_c, 0, 86, 80
2, 10008, Control_c, 0, 64, 0
2, 10059, Note_on_c, 0, 86, 0
2, 10059, Note_on_c, 0, 74, 0
2, 10061, Note_on_c, 0, 53, 80
2, 10063, Note_on_c, 0, 56, 80
2, 10065, Note_on_c, 0, 62, 80
2, 10067, Note_on_c, 0, 58, 80
2, 10069, Note_on_c, 0, 85, 80
2, 10071, Note_on_c, 0, 73, 80
2, 10073, Note_on_c, 0, 80, 80
2, 10101, Note_on_c, 0, 53, 0
2, 10104, Note_on_c, 0, 73, 0
2, 10104, Note_on_c, 0, 85, 0
2, 10104, Note_on_c, 0, 80, 0
2, 10106, Note_on_c, 0, 58, 0
2, 10108, Note_on_c, 0, 62, 0
2, 10108, Note_on_c, 0, 56, 0
2, 10157, Note_on_c, 0, 46, 80
2, 10168, Note_on_c, 0, 74, 80
2, 10175, Note_on_c, 0, 86, 80
2, 10213, Note_on_c, 0, 46, 0
2, 10217, Note_on_c, 0, 86, 0
2, 10217, Note_on_c, 0, 72, 80
2, 10219, Note_on_c, 0, 56, 80
2, 10227, Note_on_c, 0, 80, 80
2, 10231, Note_on_c, 0, 84, 80
2, 10233, Note_on_c, 0, 74, 0
2, 10279, Note_on_c, 0, 56, 0
2, 10288, Note_on_c, 0, 84, 0
2, 10295, Note_on_c, 0, 80, 0
2, 10301, Note_on_c, 0, 72, 0
2, 10322, Note_on_c, 0, 70, 80
2, 10326, Note_on_c, 0, 82, 80
2, 10365, Note_on_c, 0, 62, 80
2, 10365, Note_on_c, 0, 65, 80
2, 10367, Note_on_c, 0, 82, 0
2, 10373, Note_on_c, 0, 56, 80
2, 10373, Note_on_c, 0, 58, 80
2, 10373, Note_on_c, 0, 77, 80
2, 10382, Note_on_c, 0, 70, 0
2, 10405, Note_on_c, 0, 62, 0
2, 10414, Note_on_c, 0, 58, 0
2, 10417, Note_on_c, 0, 56, 0
2, 10426, Note_on_c, 0, 77, 0
2, 10443, Note_on_c, 0, 65, 0
2, 10443, Note_on_c, 0, 66, 80
2, 10452, Note_on_c, 0, 78, 80
2, 10464, Note_on_c, 0, 39, 80
2, 10503, Note_on_c, 0, 39, 0
2, 10505, Note_on_c, 0, 66, 0
2, 10507, Note_on_c, 0, 55, 80
2, 10513, Note_on_c, 0, 78, 0
2, 10517, Note_on_c, 0, 79, 80
2, 10519, Note_on_c, 0, 67, 80
2, 10519, Note_on_c, 0, 75, 80
2, 10528, Control_c, 0, 64, 127
2, 10570, Note_on_c, 0, 55, 0
2, 10574, Note_on_c, 0, 75, 0
2, 10574, Note_on_c, 0, 67, 0
2, 10576, Note_on_c, 0, 79, 0
2, 10616, Note_on_c, 0, 89, 80
2, 10618, Note_on_c, 0, 77, 80
2, 10620, Control_c, 0, 64, 0
2, 10654, Note_on_c, 0, 55, 80
2, 10656, Note_on_c, 0, 77, 0
2, 10659, Note_on_c, 0, 58, 80
2, 10659, Note_on_c, 0, 63, 80
2, 10659, Note_on_c, 0, 67, 80
2, 10659, Note_on_c, 0, 76, 80
2, 10659, Note_on_c, 0, 88, 80
2, 10668, Note_on_c, 0, 89, 0
2, 10700, Note_on_c, 0, 63, 0
2, 10702, Note_on_c, 0, 67, 0
2, 10704, Note_on_c, 0, 58, 0
2, 10710, Note_on_c, 0, 55, 0
2, 10712, Note_on_c, 0, 88, 0
2, 10721, Note_on_c, 0, 76, 0
2, 10756, Note_on_c, 0, 79, 80
2, 10756, Note_on_c, 0, 87, 80
2, 10760, Note_on_c, 0, 75, 80
2, 10760, Note_on_c, 0, 85, 80
2, 10764, Note_on_c, 0, 82, 80
2, 10808, Note_on_c, 0, 39, 80
2, 10847, Note_on_c, 0, 39, 0
2, 10850, Note_on_c, 0, 87, 0
2, 10850, Note_on_c, 0, 75, 0
2, 10850, Note_on_c, 0, 79, 0
2, 10850, Note_on_c, 0, 85, 0
2, 10854, Note_on_c, 0, 82, 0
2, 10896, Note_on_c, 0, 73, 80
2, 10898, Note_on_c, 0, 85, 80
2, 10951, Note_on_c, 0, 73, 0
2, 10955, Note_on_c, 0, 85, 0
2, 10959, Note_on_c, 0, 61, 80
2, 10966, Note_on_c, 0, 64, 80
2, 10966, Note_on_c, 0, 67, 80
2, 10966, Note_on_c, 0, 70, 80
2, 10969, Note_on_c, 0, 58, 80
2, 10969, Note_on_c, 0, 82, 80
2, 11001, Note_on_c, 0, 64, 0
2, 11001, Note_on_c, 0, 61, 0
2, 11005, Note_on_c, 0, 58, 0
2, 11009, Note_on_c, 0, 67, 0
2, 11028, Note_on_c, 0, 82, 0
2, 11042, Note_on_c, 0, 70, 0
2, 11042, Note_on_c, 0, 67, 80
2, 11046, Note_on_c, 0, 79, 80
2, 11053, Note_on_c, 0, 41, 80
2, 11093, Note_on_c, 0, 79, 0
2, 11106, Note_on_c, 0, 48, 80
2, 11108, Note_on_c, 0, 67, 0
2, 11110, Note_on_c, 0, 56, 80
2, 11110, Note_on_c, 0, 65, 80
2, 11113, Control_c, 0, 64, 127
2, 11117, Note_on_c, 0, 77, 80
2, 11145, Note_on_c, 0, 48, 0
2, 11145, Note_on_c, 0, 41, 0
2, 11160, Note_on_c, 0, 56, 0
2, 11161, Note_on_c, 0, 77, 0
2, 11172, Note_on_c, 0, 65, 0
2, 11191, Note_on_c, 0, 61, 80
2, 11198, Note_on_c, 0, 73, 80
2, 11219, Control_c, 0, 64, 0
2, 11236, Note_on_c, 0, 61, 0
2, 11251, Note_on_c, 0, 73, 0
2, 11259, Note_on_c, 0, 53, 80
2, 11259, Note_on_c, 0, 56, 80
2, 11263, Note_on_c, 0, 62, 80
2, 11265, Note_on_c, 0, 58, 80
2, 11265, Note_on_c, 0, 74, 80
2, 11269, Note_on_c, 0, 68, 80
2, 11297, Note_on_c, 0, 53, 0
2, 11301, Note_on_c, 0, 62, 0
2, 11304, Note_on_c, 0, 58, 0
2, 11308, Note_on_c, 0, 56, 0
2, 11321, Note_on_c, 0, 68, 0
2, 11346, Note_on_c, 0, 80, 80
2, 11346, Note_on_c, 0, 86, 80
2, 11403, Note_on_c, 0, 34, 80
2, 11463, Note_on_c, 0, 80, 0
2, 11463, Note_on_c, 0, 74, 0
2, 11470, Note_on_c, 0, 34, 0
2, 11478, Note_on_c, 0, 86, 0
2, 11506, Note_on_c, 0, 72, 80
2, 11510, Note_on_c, 0, 80, 80
2, 11510, Note_on_c, 0, 84, 80
2, 11544, Note_on_c, 0, 80, 0
2, 11547, Note_on_c, 0, 72, 0
2, 11562, Note_on_c, 0, 84, 0
2, 11566, Note_on_c, 0, 53, 80
2, 11569, Note_on_c, 0, 58, 80
2, 11573, Note_on_c, 0, 62, 80
2, 11573, Note_on_c, 0, 65, 80
2, 11575, Note_on_c, 0, 68, 80
2, 11575, Note_on_c, 0, 77, 80
2, 11575, Note_on_c, 0, 80, 80
2, 11607, Note_on_c, 0, 53, 0
2, 11609, Note_on_c, 0, 62, 0
2, 11611, Note_on_c, 0, 58, 0
2, 11615, Note_on_c, 0, 65, 0
2, 11625, Note_on_c, 0, 80, 0
2, 11627, Note_on_c, 0, 77, 0
2, 11631, Note_on_c, 0, 68, 0
2, 11643, Note_on_c, 0, 65, 80
2, 11647, Note_on_c, 0, 77, 80
2, 11656, Note_on_c, 0, 34, 80
2, 11694, Note_on_c, 0, 34, 0
2, 11707, Note_on_c, 0, 56, 80
2, 11711, Note_on_c, 0, 46, 80
2, 11721, Control_c, 0, 64, 127
2, 11760, Note_on_c, 0, 65, 0
2, 11763, Note_on_c, 0, 77, 0
2, 11791, Note_on_c, 0, 56, 0
2, 11795, Note_on_c, 0, 46, 0
2, 11797, Note_on_c, 0, 61, 80
2, 11801, Note_on_c, 0, 73, 80
2, 11820, Control_c, 0, 64, 0
2, 11843, Note_on_c, 0, 61, 0
2, 11860, Note_on_c, 0, 73, 0
2, 11862, Note_on_c, 0, 46, 80
2, 11862, Note_on_c, 0, 56, 80
2, 11862, Note_on_c, 0, 74, 80
2, 11864, Note_on_c, 0, 62, 80
2, 11866, Note_on_c, 0, 58, 80
2, 11866, Note_on_c, 0, 68, 80
2, 11906, Note_on_c, 0, 62, 0
2, 11908, Note_on_c, 0, 74, 0
2, 11912, Note_on_c, 0, 68, 0
2, 11921, Note_on_c, 0, 58, 0
2, 11938, Note_on_c, 0, 46, 0
2, 11945, Note_on_c, 0, 74, 80
2, 11949, Note_on_c, 0, 80, 80
2, 11949, Note_on_c, 0, 86, 80
2, 11952, Note_on_c, 0, 56, 0
2, 12001, Note_on_c, 0, 41, 80
2, 12046, Note_on_c, 0, 41, 0
2, 12054, Note_on_c, 0, 86, 0
2, 12069, Note_on_c, 0, 80, 0
2, 12072, Note_on_c, 0, 74, 0
2, 12094, Note_on_c, 0, 72, 80
2, 12097, Note_on_c, 0, 80, 80
2, 12101, Note_on_c, 0, 84, 80
2, 12140, Note_on_c, 0, 72, 0
2, 12144, Note_on_c, 0, 80, 0
2, 12147, Note_on_c, 0, 84, 0
2, 12165, Note_on_c, 0, 56, 80
2, 12165, Note_on_c, 0, 62, 80
2, 12165, Note_on_c, 0, 65, 80
2, 12168, Note_on_c, 0, 58, 80
2, 12168, Note_on_c, 0, 77, 80
2, 12207, Note_on_c, 0, 62, 0
2, 12207, Note_on_c, 0, 56, 0
2, 12209, Note_on_c, 0, 58, 0
2, 12211, Note_on_c, 0, 65, 0
2, 12213, Note_on_c, 0, 77, 0
2, 12232, Note_on_c, 0, 66, 80
2, 12236, Note_on_c, 0, 78, 80
2, 12246, Note_on_c, 0, 39, 80
2, 12290, Control_c, 0, 64, 127
2, 12292, Note_on_c, 0, 39, 0
2, 12292, Note_on_c, 0, 66, 0
2, 12301, Note_on_c, 0, 78, 0
2, 12301, Note_on_c, 0, 67, 80
2, 12301, Note_on_c, 0, 75, 80
2, 12301, Note_on_c, 0, 79, 80
2, 12396, Note_on_c, 0, 79, 0
2, 12400, Note_on_c, 0, 75, 0
2, 12400, Note_on_c, 0, 67, 0
2, 12433, Control_c, 0, 64, 0
2, 12444, Note_on_c, 0, 55, 80
2, 12453, Note_on_c, 0, 63, 80
2, 12453, Note_on_c, 0, 67, 80
2, 12456, Note_on_c, 0, 58, 80
2, 12456, Note_on_c, 0, 89, 80
2, 12460, Note_on_c, 0, 77, 80
2, 12496, Note_on_c, 0, 67, 0
2, 12496, Note_on_c, 0, 63, 0
2, 12500, Note_on_c, 0, 58, 0
2, 12500, Note_on_c, 0, 55, 0
2, 12510, Note_on_c, 0, 77, 0
2, 12512, Note_on_c, 0, 89, 0
2, 12537, Note_on_c, 0, 76, 80
2, 12537, Note_on_c, 0, 88, 80
2, 12565, Note_on_c, 0, 88, 0
2, 12576, Note_on_c, 0, 76, 0
2, 12593, Note_on_c, 0, 34, 80
2, 12601, Note_on_c, 0, 75, 80
2, 12601, Note_on_c, 0, 79, 80
2, 12601, Note_on_c, 0, 87, 80
2, 12610, Note_on_c, 0, 82, 80
2, 12646, Note_on_c, 0, 34, 0
2, 12660, Note_on_c, 0, 75, 0
2, 12660, Note_on_c, 0, 79, 0
2, 12662, Note_on_c, 0, 87, 0
2, 12666, Note_on_c, 0, 82, 0
2, 12697, Note_on_c, 0, 70, 80
2, 12708, Note_on_c, 0, 82, 80
2, 12740, Note_on_c, 0, 70, 0
2, 12744, Note_on_c, 0, 72, 80
2, 12745, Note_on_c, 0, 82, 0
2, 12747, Note_on_c, 0, 63, 80
2, 12751, Note_on_c, 0, 58, 80
2, 12751, Note_on_c, 0, 67, 80
2, 12751, Note_on_c, 0, 79, 80
2, 12760, Note_on_c, 0, 84, 80
2, 12790, Note_on_c, 0, 58, 0
2, 12790, Note_on_c, 0, 63, 0
2, 12793, Note_on_c, 0, 67, 0
2, 12815, Note_on_c, 0, 72, 0
2, 12823, Note_on_c, 0, 84, 0
2, 12823, Note_on_c, 0, 79, 0
2, 12844, Note_on_c, 0, 70, 80
2, 12851, Note_on_c, 0, 82, 80
2, 12870, Note_on_c, 0, 70, 0
2, 12891, Note_on_c, 0, 82, 0
2, 12898, Note_on_c, 0, 58, 80
2, 12900, Note_on_c, 0, 73, 80
2, 12902, Note_on_c, 0, 70, 80
2, 12904, Control_c, 0, 64, 127
2, 12906, Note_on_c, 0, 85, 80
2, 12936, Note_on_c, 0, 70, 0
2, 12936, Note_on_c, 0, 73, 0
2, 12942, Note_on_c, 0, 85, 0
2, 12946, Note_on_c, 0, 58, 0
2, 12974, Note_on_c, 0, 66, 80
2, 12978, Note_on_c, 0, 54, 80
2, 12980, Note_on_c, 0, 70, 80
2, 12986, Note_on_c, 0, 82, 80
2, 13022, Note_on_c, 0, 54, 0
2, 13024, Note_on_c, 0, 66, 0
2, 13026, Note_on_c, 0, 82, 0
2, 13038, Control_c, 0, 64, 0
2, 13040, Note_on_c, 0, 61, 80
2, 13044, Note_on_c, 0, 70, 0
2, 13044, Note_on_c, 0, 49, 80
2, 13044, Note_on_c, 0, 66, 80
2, 13044, Note_on_c, 0, 78, 80
2, 13048, Note_on_c, 0, 75, 80
2, 13086, Note_on_c, 0, 61, 0
2, 13099, Note_on_c, 0, 49, 0
2, 13101, Note_on_c, 0, 66, 0
2, 13107, Note_on_c, 0, 75, 0
2, 13116, Note_on_c, 0, 78, 0
2, 13125, Note_on_c, 0, 61, 80
2, 13131, Note_on_c, 0, 73, 80
2, 13182, Note_on_c, 0, 61, 0
2, 13186, Note_on_c, 0, 73, 0
2, 13195, Note_on_c, 0, 66, 80
2, 13197, Note_on_c, 0, 54, 80
2, 13197, Note_on_c, 0, 70, 80
2, 13200, Note_on_c, 0, 82, 80
2, 13232, Note_on_c, 0, 54, 0
2, 13234, Note_on_c, 0, 66, 0
2, 13236, Note_on_c, 0, 82, 0
2, 13255, Note_on_c, 0, 70, 0
2, 13274, Note_on_c, 0, 61, 80
2, 13274, Note_on_c, 0, 66, 80
2, 13278, Note_on_c, 0, 49, 80
2, 13278, Note_on_c, 0, 78, 80
2, 13317, Note_on_c, 0, 49, 0
2, 13319, Note_on_c, 0, 66, 0
2, 13322, Note_on_c, 0, 61, 0
2, 13337, Note_on_c, 0, 46, 80
2, 13341, Note_on_c, 0, 73, 80
2, 13344, Note_on_c, 0, 58, 80
2, 13344, Note_on_c, 0, 61, 80
2, 13346, Note_on_c, 0, 78, 0
2, 13387, Note_on_c, 0, 61, 0
2, 13397, Note_on_c, 0, 46, 0
2, 13401, Note_on_c, 0, 58, 0
2, 13405, Note_on_c, 0, 73, 0
2, 13417, Note_on_c, 0, 42, 80
2, 13430, Note_on_c, 0, 54, 80
2, 13432, Note_on_c, 0, 70, 80
2, 13434, Note_on_c, 0, 58, 80
2, 13467, Note_on_c, 0, 54, 0
2, 13471, Note_on_c, 0, 42, 0
2, 13471, Note_on_c, 0, 58, 0
2, 13473, Note_on_c, 0, 70, 0
2, 13488, Note_on_c, 0, 41, 80
2, 13488, Note_on_c, 0, 53, 80
2, 13488, Note_on_c, 0, 74, 80
2, 13491, Note_on_c, 0, 62, 80
2, 13495, Control_c, 0, 64, 127
2, 13529, Note_on_c, 0, 41, 0
2, 13548, Note_on_c, 0, 74, 0
2, 13559, Note_on_c, 0, 53, 0
2, 13562, Note_on_c, 0, 62, 0
2, 13569, Note_on_c, 0, 65, 80
2, 13627, Control_c, 0, 64, 0
2, 13637, Note_on_c, 0, 46, 80
2, 13641, Note_on_c, 0, 58, 80
2, 13641, Note_on_c, 0, 70, 80
2, 13687, Note_on_c, 0, 70, 0
2, 13689, Note_on_c, 0, 65, 0
2, 13725, Note_on_c, 0, 74, 80
2, 13727, Note_on_c, 0, 62, 80
2, 13727, Note_on_c, 0, 65, 80
2, 13727, Note_on_c, 0, 70, 80
2, 13767, Note_on_c, 0, 62, 0
2, 13767, Note_on_c, 0, 46, 0
2, 13771, Note_on_c, 0, 65, 0
2, 13771, Note_on_c, 0, 74, 0
2, 13771, Note_on_c, 0, 70, 0
2, 13773, Note_on_c, 0, 58, 0
2, 13790, Note_on_c, 0, 45, 80
2, 13792, Note_on_c, 0, 60, 80
2, 13792, Note_on_c, 0, 72, 80
2, 13796, Note_on_c, 0, 57, 80
2, 13847, Note_on_c, 0, 45, 0
2, 13853, Note_on_c, 0, 60, 0
2, 13853, Note_on_c, 0, 57, 0
2, 13871, Note_on_c, 0, 72, 0
2, 13872, Note_on_c, 0, 46, 80
2, 13874, Note_on_c, 0, 66, 80
2, 13876, Note_on_c, 0, 69, 80
2, 13878, Note_on_c, 0, 62, 80
2, 13880, Note_on_c, 0, 58, 80
2, 13920, Note_on_c, 0, 62, 0
2, 13929, Note_on_c, 0, 69, 0
2, 13936, Note_on_c, 0, 46, 0
2, 13943, Note_on_c, 0, 58, 0
2, 13949, Note_on_c, 0, 45, 80
2, 13953, Note_on_c, 0, 57, 80
2, 13955, Note_on_c, 0, 69, 80
2, 13989, Note_on_c, 0, 45, 0
2, 13995, Note_on_c, 0, 66, 0
2, 13995, Note_on_c, 0, 57, 0
2, 13999, Note_on_c, 0, 69, 0
2, 14031, Note_on_c, 0, 44, 80
2, 14031, Note_on_c, 0, 56, 80
2, 14031, Note_on_c, 0, 66, 80
2, 14035, Note_on_c, 0, 60, 80
2, 14039, Note_on_c, 0, 72, 80
2, 14074, Note_on_c, 0, 44, 0
2, 14081, Note_on_c, 0, 60, 0
2, 14081, Note_on_c, 0, 72, 0
2, 14093, Control_c, 0, 64, 127
2, 14093, Note_on_c, 0, 55, 80
2, 14095, Note_on_c, 0, 66, 0
2, 14097, Note_on_c, 0, 43, 80
2, 14099, Note_on_c, 0, 65, 80
2, 14101, Note_on_c, 0, 56, 0
2, 14101, Note_on_c, 0, 59, 80
2, 14108, Note_on_c, 0, 71, 80
2, 14152, Note_on_c, 0, 43, 0
2, 14159, Note_on_c, 0, 59, 0
2, 14165, Note_on_c, 0, 71, 0
2, 14167, Note_on_c, 0, 65, 0
2, 14169, Note_on_c, 0, 55, 0
2, 14184, Note_on_c, 0, 67, 80
2, 14187, Note_on_c, 0, 79, 80
2, 14228, Control_c, 0, 64, 0
2, 14230, Note_on_c, 0, 79, 0
2, 14244, Note_on_c, 0, 67, 0
2, 14244, Note_on_c, 0, 55, 80
2, 14248, Note_on_c, 0, 53, 80
2, 14252, Note_on_c, 0, 62, 80
2, 14252, Note_on_c, 0, 66, 80
2, 14254, Note_on_c, 0, 78, 80
2, 14257, Note_on_c, 0, 59, 80
2, 14291, Note_on_c, 0, 53, 0
2, 14295, Note_on_c, 0, 59, 0
2, 14299, Note_on_c, 0, 62, 0
2, 14301, Note_on_c, 0, 55, 0
2, 14304, Note_on_c, 0, 66, 0
2, 14332, Note_on_c, 0, 67, 80
2, 14332, Note_on_c, 0, 79, 80
2, 14336, Note_on_c, 0, 78, 0
2, 14343, Note_on_c, 0, 43, 80
2, 14394, Note_on_c, 0, 79, 0
2, 14394, Note_on_c, 0, 67, 0
2, 14396, Note_on_c, 0, 50, 80
2, 14398, Note_on_c, 0, 59, 80
2, 14398, Note_on_c, 0, 65, 80
2, 14400, Note_on_c, 0, 71, 80
2, 14408, Note_on_c, 0, 77, 80
2, 14431, Note_on_c, 0, 43, 0
2, 14438, Note_on_c, 0, 50, 0
2, 14447, Note_on_c, 0, 59, 0
2, 14455, Note_on_c, 0, 71, 0
2, 14459, Note_on_c, 0, 65, 0
2, 14463, Note_on_c, 0, 77, 0
2, 14484, Note_on_c, 0, 74, 80
2, 14549, Note_on_c, 0, 55, 80
2, 14553, Note_on_c, 0, 53, 80
2, 14553, Note_on_c, 0, 62, 80
2, 14557, Note_on_c, 0, 65, 80
2, 14561, Note_on_c, 0, 71, 80
2, 14586, Note_on_c, 0, 53, 0
2, 14590, Note_on_c, 0, 62, 0
2, 14598, Note_on_c, 0, 65, 0
2, 14600, Note_on_c, 0, 55, 0
2, 14642, Note_on_c, 0, 67, 80
2, 14653, Note_on_c, 0, 36, 80
2, 14702, Note_on_c, 0, 43, 80
2, 14711, Note_on_c, 0, 52, 80
2, 14712, Note_on_c, 0, 82, 80
2, 14714, Control_c, 0, 64, 127
2, 14718, Note_on_c, 0, 67, 0
2, 14718, Note_on_c, 0, 71, 0
2, 14718, Note_on_c, 0, 74, 0
2, 14741, Note_on_c, 0, 36, 0
2, 14743, Note_on_c, 0, 43, 0
2, 14750, Note_on_c, 0, 52, 0
2, 14769, Note_on_c, 0, 82, 0
2, 14792, Note_on_c, 0, 74, 80
2, 14792, Note_on_c, 0, 79, 80
2, 14796, Note_on_c, 0, 82, 80
2, 14796, Note_on_c, 0, 86, 80
2, 14832, Note_on_c, 0, 86, 0
2, 14832, Note_on_c, 0, 74, 0
2, 14832, Note_on_c, 0, 79, 0
2, 14835, Note_on_c, 0, 82, 0
2, 14844, Control_c, 0, 64, 0
2, 14851, Note_on_c, 0, 55, 80
2, 14855, Note_on_c, 0, 60, 80
2, 14855, Note_on_c, 0, 73, 80
2, 14855, Note_on_c, 0, 79, 80
2, 14858, Note_on_c, 0, 58, 80
2, 14858, Note_on_c, 0, 64, 80
2, 14858, Note_on_c, 0, 85, 80
2, 14862, Note_on_c, 0, 82, 80
2, 14894, Note_on_c, 0, 55, 0
2, 14896, Note_on_c, 0, 73, 0
2, 14900, Note_on_c, 0, 85, 0
2, 14900, Note_on_c, 0, 64, 0
2, 14900, Note_on_c, 0, 79, 0
2, 14900, Note_on_c, 0, 58, 0
2, 14900, Note_on_c, 0, 60, 0
2, 14900, Note_on_c, 0, 82, 0
2, 14938, Note_on_c, 0, 74, 80
2, 14938, Note_on_c, 0, 79, 80
2, 14940, Note_on_c, 0, 86, 80
2, 14944, Note_on_c, 0, 82, 80
2, 14979, Note_on_c, 0, 74, 0
2, 14994, Note_on_c, 0, 79, 0
2, 14994, Note_on_c, 0, 31, 80
2, 14996, Note_on_c, 0, 86, 0
2, 14998, Note_on_c, 0, 72, 80
2, 15001, Note_on_c, 0, 82, 0
2, 15003, Note_on_c, 0, 84, 80
2, 15035, Note_on_c, 0, 31, 0
2, 15079, Note_on_c, 0, 72, 0
2, 15081, Note_on_c, 0, 84, 0
2, 15081, Note_on_c, 0, 76, 80
2, 15081, Note_on_c, 0, 79, 80
2, 15085, Note_on_c, 0, 82, 80
2, 15087, Note_on_c, 0, 70, 80
2, 15138, Note_on_c, 0, 55, 80
2, 15142, Note_on_c, 0, 60, 80
2, 15144, Note_on_c, 0, 64, 80
2, 15147, Note_on_c, 0, 58, 80
2, 15183, Note_on_c, 0, 58, 0
2, 15183, Note_on_c, 0, 64, 0
2, 15185, Note_on_c, 0, 55, 0
2, 15187, Note_on_c, 0, 60, 0
2, 15201, Note_on_c, 0, 79, 0
2, 15220, Note_on_c, 0, 70, 0
2, 15222, Note_on_c, 0, 82, 0
2, 15222, Note_on_c, 0, 76, 0
2, 15243, Note_on_c, 0, 67, 80
2, 15243, Note_on_c, 0, 75, 80
2, 15243, Note_on_c, 0, 79, 80
2, 15284, Control_c, 0, 64, 127
2, 15288, Note_on_c, 0, 67, 0
2, 15291, Note_on_c, 0, 79, 0
2, 15293, Note_on_c, 0, 70, 80
2, 15302, Note_on_c, 0, 82, 80
2, 15353, Note_on_c, 0, 82, 0
2, 15353, Note_on_c, 0, 75, 0
2, 15360, Note_on_c, 0, 70, 0
2, 15387, Note_on_c, 0, 66, 80
2, 15398, Note_on_c, 0, 78, 80
2, 15421, Control_c, 0, 64, 0
2, 15444, Note_on_c, 0, 53, 80
2, 15444, Note_on_c, 0, 57, 80
2, 15444, Note_on_c, 0, 60, 80
2, 15444, Note_on_c, 0, 63, 80
2, 15446, Note_on_c, 0, 67, 80
2, 15450, Note_on_c, 0, 66, 0
2, 15450, Note_on_c, 0, 79, 80
2, 15462, Note_on_c, 0, 78, 0
2, 15477, Note_on_c, 0, 53, 0
2, 15480, Note_on_c, 0, 67, 0
2, 15489, Note_on_c, 0, 60, 0
2, 15489, Note_on_c, 0, 63, 0
2, 15491, Note_on_c, 0, 79, 0
2, 15493, Note_on_c, 0, 57, 0
2, 15521, Note_on_c, 0, 72, 80
2, 15525, Note_on_c, 0, 65, 80
2, 15531, Note_on_c, 0, 69, 80
2, 15535, Note_on_c, 0, 75, 80
2, 15535, Note_on_c, 0, 77, 80
2, 15584, Note_on_c, 0, 29, 80
2, 15593, Note_on_c, 0, 41, 80
2, 15631, Note_on_c, 0, 41, 0
2, 15633, Note_on_c, 0, 29, 0
2, 15635, Note_on_c, 0, 72, 0
2, 15635, Note_on_c, 0, 75, 0
2, 15644, Note_on_c, 0, 77, 0
2, 15648, Note_on_c, 0, 69, 0
2, 15648, Note_on_c, 0, 65, 0
2, 15672, Note_on_c, 0, 65, 80
2, 15674, Note_on_c, 0, 73, 80
2, 15676, Note_on_c, 0, 69, 80
2, 15738, Note_on_c, 0, 53, 80
2, 15738, Note_on_c, 0, 63, 80
2, 15740, Note_on_c, 0, 73, 0
2, 15740, Note_on_c, 0, 57, 80
2, 15740, Note_on_c, 0, 60, 80
2, 15740, Note_on_c, 0, 74, 80
2, 15746, Note_on_c, 0, 69, 0
2, 15780, Note_on_c, 0, 53, 0
2, 15787, Note_on_c, 0, 60, 0
2, 15791, Note_on_c, 0, 57, 0
2, 15818, Note_on_c, 0, 74, 0
2, 15818, Note_on_c, 0, 63, 0
2, 15820, Note_on_c, 0, 65, 0
2, 15831, Note_on_c, 0, 70, 80
2, 15856, Note_on_c, 0, 72, 80
2, 15888, Note_on_c, 0, 72, 0
2, 15889, Note_on_c, 0, 53, 80
2, 15891, Note_on_c, 0, 62, 80
2, 15898, Note_on_c, 0, 58, 80
2, 15905, Control_c, 0, 64, 127
2, 15964, Note_on_c, 0, 53, 0
2, 15966, Note_on_c, 0, 62, 0
2, 15973, Note_on_c, 0, 58, 0
2, 15975, Note_on_c, 0, 70, 0
2, 15984, Control_c, 0, 64, 0
2, 16034, Note_on_c, 0, 55, 80
2, 16038, Note_on_c, 0, 60, 80
2, 16038, Note_on_c, 0, 65, 80
2, 16038, Note_on_c, 0, 72, 80
2, 16042, Note_on_c, 0, 52, 80
2, 16095, Note_on_c, 0, 52, 0
2, 16102, Note_on_c, 0, 55, 0
2, 16102, Note_on_c, 0, 65, 0
2, 16102, Note_on_c, 0, 60, 0
2, 16104, Note_on_c, 0, 72, 0
2, 16121, Note_on_c, 0, 74, 80
2, 16123, Note_on_c, 0, 65, 80
2, 16186, Note_on_c, 0, 65, 0
2, 16188, Note_on_c, 0, 74, 0
2, 16188, Note_on_c, 0, 60, 80
2, 16188, Note_on_c, 0, 63, 80
2, 16190, Note_on_c, 0, 72, 80
2, 16194, Note_on_c, 0, 69, 80
2, 16198, Note_on_c, 0, 75, 80
2, 16250, Note_on_c, 0, 63, 0
2, 16270, Note_on_c, 0, 75, 0
2, 16272, Note_on_c, 0, 60, 0
2, 16272, Note_on_c, 0, 72, 0
2, 16273, Note_on_c, 0, 69, 0
2, 16288, Note_on_c, 0, 65, 80
2, 16298, Note_on_c, 0, 77, 80
2, 16337, Note_on_c, 0, 63, 80
2, 16341, Note_on_c, 0, 53, 80
2, 16341, Note_on_c, 0, 57, 80
2, 16341, Note_on_c, 0, 60, 80
2, 16341, Note_on_c, 0, 67, 80
2, 16341, Note_on_c, 0, 79, 80
2, 16353, Note_on_c, 0, 77, 0
2, 16353, Note_on_c, 0, 65, 0
2, 16408, Note_on_c, 0, 79, 0
2, 16416, Note_on_c, 0, 53, 0
2, 16420, Note_on_c, 0, 67, 0
2, 16422, Note_on_c, 0, 63, 0
2, 16424, Note_on_c, 0, 60, 0
2, 16428, Note_on_c, 0, 57, 0
2, 16442, Note_on_c, 0, 74, 80
2, 16446, Note_on_c, 0, 70, 80
2, 16450, Note_on_c, 0, 77, 80
2, 16450, Note_on_c, 0, 80, 80
2, 16450, Note_on_c, 0, 82, 80
2, 16494, Note_on_c, 0, 53, 80
2, 16498, Note_on_c, 0, 62, 80
2, 16502, Control_c, 0, 64, 127
2, 16555, Note_on_c, 0, 53, 0
2, 16557, Note_on_c, 0, 77, 0
2, 16557, Note_on_c, 0, 80, 0
2, 16559, Note_on_c, 0, 62, 0
2, 16559, Note_on_c, 0, 70, 0
2, 16560, Note_on_c, 0, 74, 0
2, 16560, Note_on_c, 0, 82, 0
2, 16639, Control_c, 0, 64, 0
2, 16639, Note_on_c, 0, 41, 80
2, 16643, Note_on_c, 0, 53, 80
2, 16645, Note_on_c, 0, 65, 80
2, 16652, Note_on_c, 0, 74, 80
2, 16656, Note_on_c, 0, 77, 80
2, 16708, Note_on_c, 0, 77, 0
2, 16708, Note_on_c, 0, 65, 0
2, 16710, Note_on_c, 0, 74, 0
2, 16729, Note_on_c, 0, 41, 0
2, 16731, Note_on_c, 0, 53, 0
2, 16740, Note_on_c, 0, 65, 80
2, 16740, Note_on_c, 0, 74, 80
2, 16747, Note_on_c, 0, 77, 80
2, 16787, Note_on_c, 0, 55, 80
2, 16789, Note_on_c, 0, 43, 80
2, 16842, Note_on_c, 0, 74, 0
2, 16842, Note_on_c, 0, 65, 0
2, 16846, Note_on_c, 0, 77, 0
2, 16898, Note_on_c, 0, 43, 0
2, 16898, Note_on_c, 0, 65, 80
2, 16905, Note_on_c, 0, 77, 80
2, 16912, Note_on_c, 0, 55, 0
2, 16950, Note_on_c, 0, 77, 0
2, 16952, Note_on_c, 0, 45, 80
2, 16952, Note_on_c, 0, 74, 80
2, 16952, Note_on_c, 0, 79, 80
2, 16954, Note_on_c, 0, 57, 80
2, 16954, Note_on_c, 0, 67, 80
2, 16963, Note_on_c, 0, 65, 0
2, 17009, Note_on_c, 0, 79, 0
2, 17016, Note_on_c, 0, 45, 0
2, 17022, Note_on_c, 0, 74, 0
2, 17026, Note_on_c, 0, 67, 0
2, 17035, Note_on_c, 0, 57, 0
2, 17045, Note_on_c, 0, 34, 80
2, 17098, Note_on_c, 0, 46, 80
2, 17100, Control_c, 0, 64, 127
2, 17104, Note_on_c, 0, 34, 0
2, 17193, Note_on_c, 0, 46, 0
2, 17202, Note_on_c, 0, 34, 80
2, 17233, Control_c, 0, 64, 0
2, 17253, Note_on_c, 0, 46, 80
2, 17253, Note_on_c, 0, 74, 80
2, 17256, Note_on_c, 0, 67, 80
2, 17256, Note_on_c, 0, 79, 80
2, 17267, Note_on_c, 0, 34, 0
2, 17311, Note_on_c, 0, 46, 0
2, 17315, Note_on_c, 0, 79, 0
2, 17315, Note_on_c, 0, 74, 0
2, 17319, Note_on_c, 0, 67, 0
2, 17349, Note_on_c, 0, 74, 80
2, 17351, Note_on_c, 0, 77, 80
2, 17357, Note_on_c, 0, 68, 80
2, 17398, Note_on_c, 0, 74, 0
2, 17404, Note_on_c, 0, 77, 0
2, 17411, Note_on_c, 0, 46, 80
2, 17415, Note_on_c, 0, 53, 80
2, 17419, Note_on_c, 0, 65, 80
2, 17421, Note_on_c, 0, 68, 0
2, 17423, Note_on_c, 0, 62, 80
2, 17423, Note_on_c, 0, 70, 80
2, 17423, Note_on_c, 0, 74, 80
2, 17426, Note_on_c, 0, 58, 80
2, 17426, Note_on_c, 0, 77, 80
2, 17426, Note_on_c, 0, 80, 80
2, 17428, Note_on_c, 0, 82, 80
2, 17471, Note_on_c, 0, 53, 0
2, 17474, Note_on_c, 0, 62, 0
2, 17474, Note_on_c, 0, 46, 0
2, 17478, Note_on_c, 0, 80, 0
2, 17478, Note_on_c, 0, 74, 0
2, 17478, Note_on_c, 0, 65, 0
2, 17478, Note_on_c, 0, 77, 0
2, 17478, Note_on_c, 0, 58, 0
2, 17480, Note_on_c, 0, 70, 0
2, 17482, Note_on_c, 0, 82, 0
2, 17670, Note_on_c, 0, 70, 80
2, 17719, Note_on_c, 0, 46, 80
2, 17721, Note_on_c, 0, 53, 80
2, 17721, Note_on_c, 0, 74, 80
2, 17723, Note_on_c, 0, 70, 0
2, 17725, Note_on_c, 0, 62, 80
2, 17729, Note_on_c, 0, 68, 80
2, 17736, Control_c, 0, 64, 127
2, 17763, Note_on_c, 0, 62, 0
2, 17765, Note_on_c, 0, 53, 0
2, 17767, Note_on_c, 0, 74, 0
2, 17767, Note_on_c, 0, 46, 0
2, 17771, Note_on_c, 0, 68, 0
2, 17803, Note_on_c, 0, 46, 80
2, 17807, Note_on_c, 0, 53, 80
2, 17807, Note_on_c, 0, 74, 80
2, 17810, Note_on_c, 0, 62, 80
2, 17810, Note_on_c, 0, 68, 80
2, 17842, Note_on_c, 0, 53, 0
2, 17846, Note_on_c, 0, 46, 0
2, 17850, Note_on_c, 0, 62, 0
2, 17854, Note_on_c, 0, 74, 0
2, 17857, Note_on_c, 0, 68, 0
2, 17866, Control_c, 0, 64, 0
2, 17868, Note_on_c, 0, 52, 80
2, 17872, Note_on_c, 0, 45, 80
2, 17872, Note_on_c, 0, 61, 80
2, 17874, Note_on_c, 0, 67, 80
2, 17874, Note_on_c, 0, 73, 80
2, 17876, Note_on_c, 0, 70, 80
2, 17922, Note_on_c, 0, 61, 0
2, 17922, Note_on_c, 0, 45, 0
2, 17926, Note_on_c, 0, 52, 0
2, 17932, Note_on_c, 0, 67, 0
2, 17932, Note_on_c, 0, 73, 0
2, 17936, Note_on_c, 0, 70, 0
2, 18019, Note_on_c, 0, 46, 80
2, 18023, Note_on_c, 0, 53, 80
2, 18026, Note_on_c, 0, 62, 80
2, 18026, Note_on_c, 0, 74, 80
2, 18035, Note_on_c, 0, 68, 80
2, 18077, Note_on_c, 0, 53, 0
2, 18077, Note_on_c, 0, 46, 0
2, 18079, Note_on_c, 0, 62, 0
2, 18088, Note_on_c, 0, 68, 0
2, 18090, Note_on_c, 0, 74, 0
2, 18310, Note_on_c, 0, 46, 80
2, 18316, Note_on_c, 0, 53, 80
2, 18316, Note_on_c, 0, 62, 80
2, 18318, Note_on_c, 0, 74, 80
2, 18325, Note_on_c, 0, 68, 80
2, 18339, Control_c, 0, 64, 127
2, 18354, Note_on_c, 0, 53, 0
2, 18358, Note_on_c, 0, 46, 0
2, 18361, Note_on_c, 0, 74, 0
2, 18361, Note_on_c, 0, 62, 0
2, 18365, Note_on_c, 0, 68, 0
2, 18390, Note_on_c, 0, 46, 80
2, 18394, Note_on_c, 0, 53, 80
2, 18394, Note_on_c, 0, 62, 80
2, 18401, Note_on_c, 0, 68, 80
2, 18403, Note_on_c, 0, 74, 80
2, 18432, Note_on_c, 0, 53, 0
2, 18434, Note_on_c, 0, 46, 0
2, 18436, Note_on_c, 0, 62, 0
2, 18438, Note_on_c, 0, 74, 0
2, 18445, Note_on_c, 0, 68, 0
2, 18454, Note_on_c, 0, 61, 80
2, 18456, Note_on_c, 0, 45, 80
2, 18457, Note_on_c, 0, 52, 80
2, 18464, Note_on_c, 0, 67, 80
2, 18464, Note_on_c, 0, 73, 80
2, 18466, Control_c, 0, 64, 0
2, 18466, Note_on_c, 0, 70, 80
2, 18512, Note_on_c, 0, 52, 0
2, 18512, Note_on_c, 0, 45, 0
2, 18519, Note_on_c, 0, 61, 0
2, 18521, Note_on_c, 0, 73, 0
2, 18523, Note_on_c, 0, 70, 0
2, 18523, Note_on_c, 0, 67, 0
2, 18605, Note_on_c, 0, 46, 80
2, 18605, Note_on_c, 0, 53, 80
2, 18607, Note_on_c, 0, 62, 80
2, 18614, Note_on_c, 0, 68, 80
2, 18614, Note_on_c, 0, 74, 80
2, 18652, Note_on_c, 0, 53, 0
2, 18656, Note_on_c, 0, 68, 0
2, 18656, Note_on_c, 0, 46, 0
2, 18656, Note_on_c, 0, 62, 0
2, 18658, Note_on_c, 0, 74, 0
2, 18696, Note_on_c, 0, 46, 80
2, 18696, Note_on_c, 0, 53, 80
2, 18700, Note_on_c, 0, 62, 80
2, 18704, Note_on_c, 0, 74, 80
2, 18706, Note_on_c, 0, 68, 80
2, 18736, Note_on_c, 0, 53, 0
2, 18744, Note_on_c, 0, 46, 0
2, 18744, Note_on_c, 0, 62, 0
2, 18746, Note_on_c, 0, 74, 0
2, 18753, Note_on_c, 0, 68, 0
2, 18768, Note_on_c, 0, 45, 80
2, 18768, Note_on_c, 0, 52, 80
2, 18769, Note_on_c, 0, 61, 80
2, 18771, Note_on_c, 0, 70, 80
2, 18771, Note_on_c, 0, 73, 80
2, 18775, Note_on_c, 0, 67, 80
2, 18817, Note_on_c, 0, 45, 0
2, 18821, Note_on_c, 0, 73, 0
2, 18821, Note_on_c, 0, 52, 0
2, 18825, Note_on_c, 0, 61, 0
2, 18825, Note_on_c, 0, 67, 0
2, 18827, Note_on_c, 0, 70, 0
2, 18916, Note_on_c, 0, 46, 80
2, 18916, Note_on_c, 0, 53, 80
2, 18920, Note_on_c, 0, 62, 80
2, 18922, Note_on_c, 0, 74, 80
2, 18924, Note_on_c, 0, 68, 80
2, 18941, Control_c, 0, 64, 127
2, 18959, Note_on_c, 0, 46, 0
2, 18960, Note_on_c, 0, 53, 0
2, 18964, Note_on_c, 0, 68, 0
2, 18964, Note_on_c, 0, 62, 0
2, 18966, Note_on_c, 0, 74, 0
2, 19002, Note_on_c, 0, 53, 80
2, 19004, Note_on_c, 0, 46, 80
2, 19004, Note_on_c, 0, 74, 80
2, 19006, Note_on_c, 0, 62, 80
2, 19009, Note_on_c, 0, 68, 80
2, 19045, Note_on_c, 0, 46, 0
2, 19045, Note_on_c, 0, 53, 0
2, 19049, Note_on_c, 0, 62, 0
2, 19049, Note_on_c, 0, 74, 0
2, 19053, Note_on_c, 0, 68, 0
2, 19061, Note_on_c, 0, 61, 80
2, 19065, Note_on_c, 0, 45, 80
2, 19067, Note_on_c, 0, 67, 80
2, 19069, Note_on_c, 0, 52, 80
2, 19071, Note_on_c, 0, 73, 80
2, 19075, Control_c, 0, 64, 0
2, 19119, Note_on_c, 0, 45, 0
2, 19121, Note_on_c, 0, 52, 0
2, 19125, Note_on_c, 0, 61, 0
2, 19128, Note_on_c, 0, 73, 0
2, 19130, Note_on_c, 0, 67, 0
2, 19211, Note_on_c, 0, 53, 80
2, 19213, Note_on_c, 0, 46, 80
2, 19215, Note_on_c, 0, 62, 80
2, 19217, Note_on_c, 0, 74, 80
2, 19219, Note_on_c, 0, 68, 80
2, 19265, Note_on_c, 0, 53, 0
2, 19272, Note_on_c, 0, 46, 0
2, 19275, Note_on_c, 0, 62, 0
2, 19277, Note_on_c, 0, 68, 0
2, 19279, Note_on_c, 0, 74, 0
2, 19364, Note_on_c, 0, 46, 80
2, 19366, Note_on_c, 0, 34, 80
2, 19372, Note_on_c, 0, 74, 80
2, 19376, Note_on_c, 0, 68, 80
2, 19376, Note_on_c, 0, 80, 80
2, 19380, Note_on_c, 0, 77, 80
2, 19380, Note_on_c, 0, 82, 80
2, 19435, Note_on_c, 0, 34, 0
2, 19441, Note_on_c, 0, 46, 0
2, 19443, Note_on_c, 0, 80, 0
2, 19445, Note_on_c, 0, 77, 0
2, 19447, Note_on_c, 0, 74, 0
2, 19447, Note_on_c, 0, 82, 0
2, 19454, Note_on_c, 0, 68, 0
2, 19471, Note_on_c, 0, 39, 80
2, 19513, Note_on_c, 0, 55, 80
2, 19515, Control_c, 0, 64, 127
2, 19517, Note_on_c, 0, 46, 80
2, 19568, Note_on_c, 0, 46, 0
2, 19568, Note_on_c, 0, 39, 0
2, 19577, Note_on_c, 0, 55, 0
2, 19632, Note_on_c, 0, 78, 80
2, 19635, Note_on_c, 0, 90, 80
2, 19671, Note_on_c, 0, 55, 80
2, 19675, Control_c, 0, 64, 0
2, 19675, Note_on_c, 0, 63, 80
2, 19679, Note_on_c, 0, 90, 0
2, 19680, Note_on_c, 0, 78, 0
2, 19680, Note_on_c, 0, 58, 80
2, 19680, Note_on_c, 0, 67, 80
2, 19680, Note_on_c, 0, 79, 80
2, 19680, Note_on_c, 0, 91, 80
2, 19719, Note_on_c, 0, 63, 0
2, 19726, Note_on_c, 0, 67, 0
2, 19726, Note_on_c, 0, 55, 0
2, 19726, Note_on_c, 0, 58, 0
2, 19738, Note_on_c, 0, 91, 0
2, 19738, Note_on_c, 0, 79, 0
2, 19759, Note_on_c, 0, 74, 80
2, 19763, Note_on_c, 0, 86, 80
2, 19818, Note_on_c, 0, 34, 80
2, 19820, Note_on_c, 0, 74, 0
2, 19828, Note_on_c, 0, 77, 80
2, 19828, Note_on_c, 0, 89, 80
2, 19835, Note_on_c, 0, 86, 0
2, 19852, Note_on_c, 0, 34, 0
2, 19873, Note_on_c, 0, 89, 0
2, 19888, Note_on_c, 0, 77, 0
2, 19911, Note_on_c, 0, 79, 80
2, 19913, Note_on_c, 0, 75, 80
2, 19913, Note_on_c, 0, 87, 80
2, 19915, Note_on_c, 0, 82, 80
2, 19968, Note_on_c, 0, 55, 80
2, 19969, Note_on_c, 0, 63, 80
2, 19973, Note_on_c, 0, 58, 80
2, 19973, Note_on_c, 0, 67, 80
2, 20016, Note_on_c, 0, 63, 0
2, 20016, Note_on_c, 0, 55, 0
2, 20017, Note_on_c, 0, 67, 0
2, 20017, Note_on_c, 0, 87, 0
2, 20019, Note_on_c, 0, 58, 0
2, 20030, Note_on_c, 0, 79, 0
2, 20034, Note_on_c, 0, 75, 0
2, 20036, Note_on_c, 0, 82, 0
2, 20061, Note_on_c, 0, 70, 80
2, 20064, Note_on_c, 0, 82, 80
2, 20103, Note_on_c, 0, 70, 0
2, 20105, Note_on_c, 0, 82, 0
2, 20122, Note_on_c, 0, 73, 80
2, 20126, Note_on_c, 0, 58, 80
2, 20126, Note_on_c, 0, 70, 80
2, 20126, Note_on_c, 0, 85, 80
2, 20130, Note_on_c, 0, 82, 80
2, 20132, Control_c, 0, 64, 127
2, 20167, Note_on_c, 0, 85, 0
2, 20167, Note_on_c, 0, 73, 0
2, 20171, Note_on_c, 0, 70, 0
2, 20173, Note_on_c, 0, 82, 0
2, 20203, Note_on_c, 0, 58, 0
2, 20209, Note_on_c, 0, 55, 80
2, 20220, Note_on_c, 0, 67, 80
2, 20220, Note_on_c, 0, 70, 80
2, 20220, Note_on_c, 0, 82, 80
2, 20241, Control_c, 0, 64, 0
2, 20258, Note_on_c, 0, 55, 0
2, 20260, Note_on_c, 0, 67, 0
2, 20275, Note_on_c, 0, 70, 0
2, 20275, Note_on_c, 0, 82, 0
2, 20281, Note_on_c, 0, 79, 80
2, 20283, Note_on_c, 0, 52, 80
2, 20285, Note_on_c, 0, 64, 80
2, 20285, Note_on_c, 0, 67, 80
2, 20319, Note_on_c, 0, 52, 0
2, 20323, Note_on_c, 0, 79, 0
2, 20325, Note_on_c, 0, 64, 0
2, 20342, Note_on_c, 0, 67, 0
2, 20361, Note_on_c, 0, 61, 80
2, 20365, Note_on_c, 0, 64, 80
2, 20365, Note_on_c, 0, 76, 80
2, 20367, Note_on_c, 0, 49, 80
2, 20400, Note_on_c, 0, 49, 0
2, 20400, Note_on_c, 0, 64, 0
2, 20402, Note_on_c, 0, 61, 0
2, 20422, Note_on_c, 0, 76, 0
2, 20422, Note_on_c, 0, 55, 80
2, 20430, Note_on_c, 0, 67, 80
2, 20430, Note_on_c, 0, 70, 80
2, 20434, Note_on_c, 0, 82, 80
2, 20466, Note_on_c, 0, 55, 0
2, 20468, Note_on_c, 0, 70, 0
2, 20470, Note_on_c, 0, 82, 0
2, 20472, Note_on_c, 0, 67, 0
2, 20507, Note_on_c, 0, 64, 80
2, 20511, Note_on_c, 0, 52, 80
2, 20515, Note_on_c, 0, 67, 80
2, 20515, Note_on_c, 0, 79, 80
2, 20555, Note_on_c, 0, 79, 0
2, 20555, Note_on_c, 0, 67, 0
2, 20555, Note_on_c, 0, 52, 0
2, 20576, Note_on_c, 0, 61, 80
2, 20576, Note_on_c, 0, 76, 80
2, 20578, Note_on_c, 0, 49, 80
2, 20612, Note_on_c, 0, 49, 0
2, 20618, Note_on_c, 0, 64, 0
2, 20618, Note_on_c, 0, 61, 0
2, 20618, Note_on_c, 0, 76, 0
2, 20641, Note_on_c, 0, 53, 80
2, 20641, Note_on_c, 0, 61, 80
2, 20643, Note_on_c, 0, 73, 80
2, 20682, Note_on_c, 0, 53, 0
2, 20686, Note_on_c, 0, 61, 0
2, 20689, Note_on_c, 0, 73, 0
2, 20702, Note_on_c, 0, 46, 80
2, 20702, Note_on_c, 0, 62, 80
2, 20702, Note_on_c, 0, 74, 80
2, 20706, Note_on_c, 0, 58, 80
2, 20710, Control_c, 0, 64, 127
2, 20760, Note_on_c, 0, 62, 0
2, 20760, Note_on_c, 0, 46, 0
2, 20764, Note_on_c, 0, 58, 0
2, 20782, Note_on_c, 0, 74, 0
2, 20790, Note_on_c, 0, 65, 80
2, 20848, Control_c, 0, 64, 0
2, 20856, Note_on_c, 0, 46, 80
2, 20858, Note_on_c, 0, 58, 80
2, 20862, Note_on_c, 0, 70, 80
2, 20917, Note_on_c, 0, 58, 0
2, 20917, Note_on_c, 0, 46, 0
2, 20919, Note_on_c, 0, 65, 0
2, 20921, Note_on_c, 0, 70, 0
2, 20935, Note_on_c, 0, 60, 80
2, 20935, Note_on_c, 0, 66, 80
2, 20935, Note_on_c, 0, 72, 80
2, 20999, Note_on_c, 0, 57, 80
2, 21002, Note_on_c, 0, 45, 80
2, 21064, Note_on_c, 0, 45, 0
2, 21076, Note_on_c, 0, 66, 0
2, 21080, Note_on_c, 0, 60, 0
2, 21080, Note_on_c, 0, 57, 0
2, 21082, Note_on_c, 0, 72, 0
2, 21086, Note_on_c, 0, 74, 80
2, 21090, Note_on_c, 0, 86, 80
2, 21147, Note_on_c, 0, 74, 0
2, 21147, Note_on_c, 0, 60, 80
2, 21149, Note_on_c, 0, 86, 0
2, 21151, Note_on_c, 0, 62, 80
2, 21153, Note_on_c, 0, 73, 80
2, 21157, Note_on_c, 0, 54, 80
2, 21157, Note_on_c, 0, 57, 80
2, 21157, Note_on_c, 0, 85, 80
2, 21192, Note_on_c, 0, 54, 0
2, 21196, Note_on_c, 0, 60, 0
2, 21198, Note_on_c, 0, 62, 0
2, 21200, Note_on_c, 0, 57, 0
2, 21213, Note_on_c, 0, 73, 0
2, 21232, Note_on_c, 0, 85, 0
2, 21234, Note_on_c, 0, 72, 80
2, 21234, Note_on_c, 0, 78, 80
2, 21238, Note_on_c, 0, 84, 80
2, 21246, Note_on_c, 0, 43, 80
2, 21287, Note_on_c, 0, 78, 0
2, 21290, Control_c, 0, 64, 127
2, 21294, Note_on_c, 0, 50, 80
2, 21296, Note_on_c, 0, 72, 0
2, 21296, Note_on_c, 0, 59, 80
2, 21298, Note_on_c, 0, 84, 0
2, 21298, Note_on_c, 0, 71, 80
2, 21302, Note_on_c, 0, 77, 80
2, 21302, Note_on_c, 0, 83, 80
2, 21330, Note_on_c, 0, 43, 0
2, 21340, Note_on_c, 0, 50, 0
2, 21353, Note_on_c, 0, 59, 0
2, 21360, Note_on_c, 0, 77, 0
2, 21361, Note_on_c, 0, 83, 0
2, 21361, Note_on_c, 0, 71, 0
2, 21384, Control_c, 0, 64, 0
2, 21399, Note_on_c, 0, 79, 80
2, 21399, Note_on_c, 0, 91, 80
2, 21443, Note_on_c, 0, 91, 0
2, 21443, Note_on_c, 0, 79, 0
2, 21445, Note_on_c, 0, 55, 80
2, 21454, Note_on_c, 0, 65, 80
2, 21456, Note_on_c, 0, 78, 80
2, 21457, Note_on_c, 0, 62, 80
2, 21457, Note_on_c, 0, 90, 80
2, 21459, Note_on_c, 0, 59, 80
2, 21493, Note_on_c, 0, 62, 0
2, 21500, Note_on_c, 0, 65, 0
2, 21500, Note_on_c, 0, 55, 0
2, 21500, Note_on_c, 0, 59, 0
2, 21531, Note_on_c, 0, 90, 0
2, 21542, Note_on_c, 0, 78, 0
2, 21552, Note_on_c, 0, 91, 80
2, 21561, Note_on_c, 0, 79, 80
2, 21601, Note_on_c, 0, 35, 80
2, 21608, Note_on_c, 0, 79, 0
2, 21615, Note_on_c, 0, 77, 80
2, 21615, Note_on_c, 0, 86, 80
2, 21615, Note_on_c, 0, 89, 80
2, 21619, Note_on_c, 0, 83, 80
2, 21625, Note_on_c, 0, 91, 0
2, 21643, Note_on_c, 0, 35, 0
2, 21653, Note_on_c, 0, 86, 0
2, 21660, Note_on_c, 0, 83, 0
2, 21674, Note_on_c, 0, 77, 0
2, 21674, Note_on_c, 0, 89, 0
2, 21689, Note_on_c, 0, 42, 80
2, 21689, Note_on_c, 0, 74, 80
2, 21697, Note_on_c, 0, 83, 80
2, 21697, Note_on_c, 0, 86, 80
2, 21750, Note_on_c, 0, 86, 0
2, 21750, Note_on_c, 0, 42, 0
2, 21754, Note_on_c, 0, 74, 0
2, 21756, Note_on_c, 0, 79, 80
2, 21758, Note_on_c, 0, 83, 0
2, 21760, Note_on_c, 0, 51, 80
2, 21825, Note_on_c, 0, 51, 0
2, 21840, Note_on_c, 0, 43, 80
2, 21843, Note_on_c, 0, 52, 80
2, 21907, Control_c, 0, 64, 127
2, 21926, Note_on_c, 0, 79, 0
2, 21960, Note_on_c, 0, 43, 0
2, 21972, Note_on_c, 0, 52, 0
2, 21993, Note_on_c, 0, 86, 80
2, 21995, Note_on_c, 0, 74, 80
2, 21995, Note_on_c, 0, 79, 80
2, 22004, Note_on_c, 0, 82, 80
2, 22035, Control_c, 0, 64, 0
2, 22039, Note_on_c, 0, 79, 0
2, 22041, Note_on_c, 0, 86, 0
2, 22045, Note_on_c, 0, 82, 0
2, 22054, Note_on_c, 0, 55, 80
2, 22056, Note_on_c, 0, 74, 0
2, 22057, Note_on_c, 0, 64, 80
2, 22061, Note_on_c, 0, 58, 80
2, 22061, Note_on_c, 0, 60, 80
2, 22061, Note_on_c, 0, 79, 80
2, 22063, Note_on_c, 0, 73, 80
2, 22065, Note_on_c, 0, 85, 80
2, 22069, Note_on_c, 0, 82, 80
2, 22103, Note_on_c, 0, 64, 0
2, 22104, Note_on_c, 0, 85, 0
2, 22104, Note_on_c, 0, 73, 0
2, 22106, Note_on_c, 0, 60, 0
2, 22106, Note_on_c, 0, 55, 0
2, 22108, Note_on_c, 0, 58, 0
2, 22108, Note_on_c, 0, 82, 0
2, 22108, Note_on_c, 0, 79, 0
2, 22151, Note_on_c, 0, 74, 80
2, 22151, Note_on_c, 0, 79, 80
2, 22154, Note_on_c, 0, 86, 80
2, 22156, Note_on_c, 0, 82, 80
2, 22158, Note_on_c, 0, 36, 80
2, 22200, Note_on_c, 0, 74, 0
2, 22204, Note_on_c, 0, 82, 0
2, 22204, Note_on_c, 0, 79, 0
2, 22204, Note_on_c, 0, 43, 80
2, 22208, Note_on_c, 0, 86, 0
2, 22210, Note_on_c, 0, 72, 80
2, 22212, Note_on_c, 0, 52, 80
2, 22216, Note_on_c, 0, 84, 80
2, 22239, Note_on_c, 0, 36, 0
2, 22246, Note_on_c, 0, 43, 0
2, 22265, Note_on_c, 0, 52, 0
2, 22288, Note_on_c, 0, 72, 0
2, 22288, Note_on_c, 0, 84, 0
2, 22345, Note_on_c, 0, 55, 80
2, 22356, Note_on_c, 0, 58, 80
2, 22356, Note_on_c, 0, 60, 80
2, 22356, Note_on_c, 0, 64, 80
2, 22356, Note_on_c, 0, 70, 80
2, 22356, Note_on_c, 0, 76, 80
2, 22363, Note_on_c, 0, 82, 80
2, 22401, Note_on_c, 0, 60, 0
2, 22416, Note_on_c, 0, 64, 0
2, 22422, Note_on_c, 0, 76, 0
2, 22433, Note_on_c, 0, 58, 0
2, 22437, Note_on_c, 0, 70, 0
2, 22440, Note_on_c, 0, 82, 0
2, 22440, Note_on_c, 0, 55, 0
2, 22440, Note_on_c, 0, 57, 80
2, 22440, Note_on_c, 0, 79, 80
2, 22442, Note_on_c, 0, 75, 80
2, 22444, Note_on_c, 0, 67, 80
2, 22457, Note_on_c, 0, 58, 80
2, 22471, Note_on_c, 0, 59, 80
2, 22482, Note_on_c, 0, 67, 0
2, 22482, Note_on_c, 0, 75, 0
2, 22482, Note_on_c, 0, 57, 0
2, 22486, Note_on_c, 0, 79, 0
2, 22500, Note_on_c, 0, 58, 0
2, 22507, Note_on_c, 0, 60, 80
2, 22507, Note_on_c, 0, 66, 80
2, 22507, Note_on_c, 0, 78, 80
2, 22511, Note_on_c, 0, 75, 80
2, 22514, Control_c, 0, 64, 127
2, 22516, Note_on_c, 0, 59, 0
2, 22562, Note_on_c, 0, 66, 0
2, 22564, Note_on_c, 0, 75, 0
2, 22573, Note_on_c, 0, 78, 0
2, 22580, Note_on_c, 0, 60, 0
2, 22584, Note_on_c, 0, 79, 80
2, 22592, Note_on_c, 0, 67, 80
2, 22594, Note_on_c, 0, 75, 80
2, 22638, Control_c, 0, 64, 0
2, 22653, Note_on_c, 0, 53, 80
2, 22653, Note_on_c, 0, 60, 80
2, 22655, Note_on_c, 0, 57, 80
2, 22655, Note_on_c, 0, 63, 80
2, 22695, Note_on_c, 0, 53, 0
2, 22699, Note_on_c, 0, 60, 0
2, 22699, Note_on_c, 0, 63, 0
2, 22703, Note_on_c, 0, 75, 0
2, 22703, Note_on_c, 0, 79, 0
2, 22703, Note_on_c, 0, 67, 0
2, 22703, Note_on_c, 0, 57, 0
2, 22745, Note_on_c, 0, 65, 80
2, 22745, Note_on_c, 0, 69, 80
2, 22745, Note_on_c, 0, 72, 80
2, 22749, Note_on_c, 0, 75, 80
2, 22752, Note_on_c, 0, 77, 80
2, 22812, Note_on_c, 0, 41, 80
2, 22812, Note_on_c, 0, 53, 80
2, 22821, Note_on_c, 0, 65, 0
2, 22842, Note_on_c, 0, 72, 0
2, 22844, Note_on_c, 0, 75, 0
2, 22844, Note_on_c, 0, 69, 0
2, 22863, Note_on_c, 0, 77, 0
2, 22863, Note_on_c, 0, 41, 0
2, 22886, Note_on_c, 0, 53, 0
2, 22890, Note_on_c, 0, 65, 80
2, 22894, Note_on_c, 0, 69, 80
2, 22894, Note_on_c, 0, 73, 80
2, 22934, Note_on_c, 0, 73, 0
2, 22938, Note_on_c, 0, 65, 0
2, 22942, Note_on_c, 0, 69, 0
2, 22956, Note_on_c, 0, 53, 80
2, 22956, Note_on_c, 0, 60, 80
2, 22956, Note_on_c, 0, 72, 80
2, 22956, Note_on_c, 0, 74, 80
2, 22958, Note_on_c, 0, 65, 80
2, 22960, Note_on_c, 0, 57, 80
2, 22995, Note_on_c, 0, 53, 0
2, 23002, Note_on_c, 0, 72, 0
2, 23006, Note_on_c, 0, 60, 0
2, 23006, Note_on_c, 0, 57, 0
2, 23036, Note_on_c, 0, 74, 0
2, 23038, Note_on_c, 0, 65, 0
2, 23050, Note_on_c, 0, 70, 80
2, 23075, Note_on_c, 0, 72, 80
2, 23092, Note_on_c, 0, 70, 0
2, 23105, Note_on_c, 0, 53, 80
2, 23112, Note_on_c, 0, 50, 80
2, 23113, Note_on_c, 0, 62, 80
2, 23113, Note_on_c, 0, 70, 80
2, 23115, Note_on_c, 0, 72, 0
2, 23115, Control_c, 0, 64, 127
2, 23160, Note_on_c, 0, 53, 0
2, 23184, Note_on_c, 0, 50, 0
2, 23188, Note_on_c, 0, 54, 80
2, 23190, Note_on_c, 0, 70, 0
2, 23197, Note_on_c, 0, 62, 0
2, 23248, Note_on_c, 0, 54, 0
2, 23248, Control_c, 0, 64, 0
2, 23250, Note_on_c, 0, 61, 80
2, 23250, Note_on_c, 0, 65, 80
2, 23254, Note_on_c, 0, 49, 80
2, 23254, Note_on_c, 0, 56, 80
2, 23254, Note_on_c, 0, 72, 80
2, 23300, Note_on_c, 0, 65, 0
2, 23310, Note_on_c, 0, 61, 0
2, 23312, Note_on_c, 0, 49, 0
2, 23314, Note_on_c, 0, 56, 0
2, 23335, Note_on_c, 0, 72, 0
2, 23342, Note_on_c, 0, 74, 80
2, 23346, Note_on_c, 0, 65, 80
2, 23386, Note_on_c, 0, 74, 0
2, 23403, Note_on_c, 0, 65, 0
2, 23405, Note_on_c, 0, 48, 80
2, 23407, Note_on_c, 0, 60, 80
2, 23407, Note_on_c, 0, 72, 80
2, 23411, Note_on_c, 0, 51, 80
2, 23411, Note_on_c, 0, 63, 80
2, 23411, Note_on_c, 0, 69, 80
2, 23415, Note_on_c, 0, 75, 80
2, 23466, Note_on_c, 0, 63, 0
2, 23476, Note_on_c, 0, 48, 0
2, 23485, Note_on_c, 0, 72, 0
2, 23485, Note_on_c, 0, 65, 80
2, 23487, Note_on_c, 0, 51, 0
2, 23487, Note_on_c, 0, 60, 0
2, 23489, Note_on_c, 0, 75, 0
2, 23491, Note_on_c, 0, 69, 0
2, 23493, Note_on_c, 0, 77, 80
2, 23545, Note_on_c, 0, 77, 0
2, 23545, Note_on_c, 0, 53, 80
2, 23545, Note_on_c, 0, 63, 80
2, 23547, Note_on_c, 0, 65, 0
2, 23549, Note_on_c, 0, 60, 80
2, 23553, Note_on_c, 0, 57, 80
2, 23553, Note_on_c, 0, 67, 80
2, 23553, Note_on_c, 0, 79, 80
2, 23618, Note_on_c, 0, 53, 0
2, 23622, Note_on_c, 0, 63, 0
2, 23622, Note_on_c, 0, 60, 0
2, 23624, Note_on_c, 0, 79, 0
2, 23624, Note_on_c, 0, 67, 0
2, 23626, Note_on_c, 0, 57, 0
2, 23628, Note_on_c, 0, 69, 80
2, 23632, Note_on_c, 0, 81, 80
2, 23691, Note_on_c, 0, 53, 80
2, 23693, Note_on_c, 0, 69, 0
2, 23695, Note_on_c, 0, 62, 80
2, 23697, Note_on_c, 0, 81, 0
2, 23699, Note_on_c, 0, 58, 80
2, 23699, Note_on_c, 0, 70, 80
2, 23703, Note_on_c, 0, 82, 80
2, 23715, Control_c, 0, 64, 127
2, 23764, Note_on_c, 0, 53, 0
2, 23766, Note_on_c, 0, 62, 0
2, 23770, Note_on_c, 0, 58, 0
2, 23772, Note_on_c, 0, 72, 80
2, 23774, Note_on_c, 0, 70, 0
2, 23774, Note_on_c, 0, 82, 0
2, 23781, Note_on_c, 0, 84, 80
2, 23835, Note_on_c, 0, 55, 80
2, 23837, Note_on_c, 0, 72, 0
2, 23839, Note_on_c, 0, 52, 80
2, 23841, Note_on_c, 0, 84, 0
2, 23843, Note_on_c, 0, 58, 80
2, 23843, Note_on_c, 0, 61, 80
2, 23843, Note_on_c, 0, 71, 80
2, 23845, Note_on_c, 0, 83, 80
2, 23849, Control_c, 0, 64, 0
2, 23900, Note_on_c, 0, 52, 0
2, 23910, Note_on_c, 0, 83, 0
2, 23917, Note_on_c, 0, 61, 0
2, 23917, Note_on_c, 0, 55, 0
2, 23917, Note_on_c, 0, 71, 0
2, 23921, Note_on_c, 0, 58, 0
2, 23928, Note_on_c, 0, 70, 80
2, 23938, Note_on_c, 0, 82, 80
2, 23991, Note_on_c, 0, 53, 80
2, 23993, Note_on_c, 0, 82, 0
2, 23995, Note_on_c, 0, 70, 0
2, 23997, Note_on_c, 0, 60, 80
2, 23999, Note_on_c, 0, 75, 80
2, 24002, Note_on_c, 0, 69, 80
2, 24002, Note_on_c, 0, 81, 80
2, 24055, Note_on_c, 0, 53, 0
2, 24064, Note_on_c, 0, 60, 0
2, 24078, Note_on_c, 0, 75, 0
2, 24080, Note_on_c, 0, 69, 0
2, 24084, Note_on_c, 0, 81, 0
2, 24091, Note_on_c, 0, 67, 80
2, 24091, Note_on_c, 0, 79, 80
2, 24103, Note_on_c, 0, 41, 80
2, 24149, Note_on_c, 0, 48, 80
2, 24151, Note_on_c, 0, 79, 0
2, 24151, Note_on_c, 0, 67, 0
2, 24151, Note_on_c, 0, 65, 80
2, 24158, Note_on_c, 0, 74, 80
2, 24162, Note_on_c, 0, 77, 80
2, 24170, Note_on_c, 0, 41, 0
2, 24206, Note_on_c, 0, 48, 0
2, 24215, Note_on_c, 0, 74, 0
2, 24216, Note_on_c, 0, 65, 0
2, 24220, Note_on_c, 0, 77, 0
2, 24233, Note_on_c, 0, 46, 80
2, 24240, Note_on_c, 0, 63, 80
2, 24246, Note_on_c, 0, 75, 80
2, 24306, Note_on_c, 0, 75, 0
2, 24308, Note_on_c, 0, 63, 0
2, 24308, Note_on_c, 0, 53, 80
2, 24312, Note_on_c, 0, 62, 80
2, 24312, Note_on_c, 0, 74, 80
2, 24313, Note_on_c, 0, 46, 0
2, 24315, Control_c, 0, 64, 127
2, 24315, Note_on_c, 0, 68, 80
2, 24356, Note_on_c, 0, 62, 0
2, 24358, Note_on_c, 0, 74, 0
2, 24358, Note_on_c, 0, 53, 0
2, 24361, Note_on_c, 0, 68, 0
2, 24389, Note_on_c, 0, 53, 80
2, 24391, Note_on_c, 0, 45, 80
2, 24393, Note_on_c, 0, 62, 80
2, 24395, Note_on_c, 0, 74, 80
2, 24404, Note_on_c, 0, 68, 80
2, 24437, Note_on_c, 0, 68, 0
2, 24437, Note_on_c, 0, 62, 0
2, 24437, Note_on_c, 0, 74, 0
2, 24448, Note_on_c, 0, 53, 0
2, 24448, Control_c, 0, 64, 0
2, 24456, Note_on_c, 0, 52, 80
2, 24456, Note_on_c, 0, 61, 80
2, 24456, Note_on_c, 0, 73, 80
2, 24460, Note_on_c, 0, 67, 80
2, 24460, Note_on_c, 0, 70, 80
2, 24511, Note_on_c, 0, 61, 0
2, 24524, Note_on_c, 0, 45, 0
2, 24524, Note_on_c, 0, 52, 0
2, 24534, Note_on_c, 0, 73, 0
2, 24534, Note_on_c, 0, 67, 0
2, 24536, Note_on_c, 0, 70, 0
2, 24547, Note_on_c, 0, 46, 80
2, 24564, Note_on_c, 0, 68, 80
2, 24589, Note_on_c, 0, 68, 0
2, 24606, Note_on_c, 0, 53, 80
2, 24610, Note_on_c, 0, 62, 80
2, 24610, Note_on_c, 0, 74, 80
2, 24614, Note_on_c, 0, 68, 80
2, 24684, Note_on_c, 0, 53, 0
2, 24686, Note_on_c, 0, 46, 0
2, 24688, Note_on_c, 0, 74, 0
2, 24690, Note_on_c, 0, 62, 0
2, 24694, Note_on_c, 0, 68, 0
2, 24708, Note_on_c, 0, 76, 80
2, 24757, Note_on_c, 0, 76, 0
2, 24764, Note_on_c, 0, 77, 80
2, 24869, Note_on_c, 0, 77, 0
2, 24905, Note_on_c, 0, 46, 80
2, 24905, Note_on_c, 0, 53, 80
2, 24907, Note_on_c, 0, 62, 80
2, 24917, Note_on_c, 0, 69, 80
2, 24919, Control_c, 0, 64, 127
2, 24953, Note_on_c, 0, 53, 0
2, 24953, Note_on_c, 0, 46, 0
2, 24955, Note_on_c, 0, 62, 0
2, 24959, Note_on_c, 0, 69, 0
2, 24992, Note_on_c, 0, 46, 80
2, 24992, Note_on_c, 0, 53, 80
2, 24994, Note_on_c, 0, 62, 80
2, 24998, Note_on_c, 0, 74, 80
2, 25002, Note_on_c, 0, 68, 80
2, 25033, Note_on_c, 0, 53, 0
2, 25033, Note_on_c, 0, 46, 0
2, 25035, Note_on_c, 0, 74, 0
2, 25035, Note_on_c, 0, 62, 0
2, 25039, Note_on_c, 0, 68, 0
2, 25058, Control_c, 0, 64, 0
2, 25060, Note_on_c, 0, 45, 80
2, 25060, Note_on_c, 0, 52, 80
2, 25060, Note_on_c, 0, 73, 80
2, 25062, Note_on_c, 0, 61, 80
2, 25062, Note_on_c, 0, 70, 80
2, 25064, Note_on_c, 0, 67, 80
2, 25117, Note_on_c, 0, 45, 0
2, 25119, Note_on_c, 0, 52, 0
2, 25121, Note_on_c, 0, 73, 0
2, 25121, Note_on_c, 0, 61, 0
2, 25121, Note_on_c, 0, 67, 0
2, 25123, Note_on_c, 0, 70, 0
2, 25161, Note_on_c, 0, 68, 80
2, 25193, Note_on_c, 0, 68, 0
2, 25210, Note_on_c, 0, 74, 80
2, 25212, Note_on_c, 0, 46, 80
2, 25212, Note_on_c, 0, 53, 80
2, 25214, Note_on_c, 0, 62, 80
2, 25218, Note_on_c, 0, 68, 80
2, 25269, Note_on_c, 0, 53, 0
2, 25272, Note_on_c, 0, 62, 0
2, 25272, Note_on_c, 0, 74, 0
2, 25276, Note_on_c, 0, 68, 0
2, 25291, Note_on_c, 0, 46, 0
2, 25310, Note_on_c, 0, 76, 80
2, 25371, Note_on_c, 0, 77, 80
2, 25373, Note_on_c, 0, 76, 0
2, 25477, Note_on_c, 0, 77, 0
2, 25509, Note_on_c, 0, 53, 80
2, 25515, Note_on_c, 0, 70, 80
2, 25517, Note_on_c, 0, 74, 80
2, 25519, Note_on_c, 0, 62, 80
2, 25519, Note_on_c, 0, 68, 80
2, 25526, Control_c, 0, 64, 127
2, 25556, Note_on_c, 0, 62, 0
2, 25556, Note_on_c, 0, 53, 0
2, 25560, Note_on_c, 0, 68, 0
2, 25563, Note_on_c, 0, 74, 0
2, 25563, Note_on_c, 0, 70, 0
2, 25586, Note_on_c, 0, 46, 80
2, 25595, Note_on_c, 0, 53, 80
2, 25595, Note_on_c, 0, 62, 80
2, 25595, Note_on_c, 0, 74, 80
2, 25599, Note_on_c, 0, 70, 80
2, 25603, Note_on_c, 0, 68, 80
2, 25634, Note_on_c, 0, 53, 0
2, 25634, Note_on_c, 0, 46, 0
2, 25641, Note_on_c, 0, 70, 0
2, 25643, Note_on_c, 0, 68, 0
2, 25645, Note_on_c, 0, 74, 0
2, 25652, Note_on_c, 0, 62, 0
2, 25652, Control_c, 0, 64, 0
2, 25654, Note_on_c, 0, 61, 80
2, 25656, Note_on_c, 0, 45, 80
2, 25656, Note_on_c, 0, 52, 80
2, 25656, Note_on_c, 0, 73, 80
2, 25664, Note_on_c, 0, 67, 80
2, 25710, Note_on_c, 0, 45, 0
2, 25714, Note_on_c, 0, 73, 0
2, 25714, Note_on_c, 0, 52, 0
2, 25716, Note_on_c, 0, 61, 0
2, 25718, Note_on_c, 0, 67, 0
2, 25748, Note_on_c, 0, 53, 80
2, 25752, Note_on_c, 0, 62, 80
2, 25753, Note_on_c, 0, 46, 80
2, 25753, Note_on_c, 0, 74, 80
2, 25757, Note_on_c, 0, 68, 80
2, 25789, Note_on_c, 0, 53, 0
2, 25793, Note_on_c, 0, 74, 0
2, 25805, Note_on_c, 0, 46, 0
2, 25812, Note_on_c, 0, 62, 0
2, 25819, Note_on_c, 0, 68, 0
2, 25899, Note_on_c, 0, 53, 80
2, 25903, Note_on_c, 0, 46, 80
2, 25903, Note_on_c, 0, 62, 80
2, 25912, Note_on_c, 0, 68, 80
2, 25912, Note_on_c, 0, 74, 80
2, 25947, Note_on_c, 0, 74, 0
2, 25947, Note_on_c, 0, 53, 0
2, 25947, Note_on_c, 0, 62, 0
2, 25947, Note_on_c, 0, 46, 0
2, 25949, Note_on_c, 0, 45, 80
2, 25953, Note_on_c, 0, 52, 80
2, 25953, Note_on_c, 0, 61, 80
2, 25955, Note_on_c, 0, 68, 0
2, 25955, Note_on_c, 0, 73, 80
2, 25957, Note_on_c, 0, 67, 80
2, 26008, Note_on_c, 0, 45, 0
2, 26010, Note_on_c, 0, 52, 0
2, 26014, Note_on_c, 0, 67, 0
2, 26014, Note_on_c, 0, 61, 0
2, 26016, Note_on_c, 0, 73, 0
2, 26098, Note_on_c, 0, 46, 80
2, 26100, Note_on_c, 0, 62, 80
2, 26102, Note_on_c, 0, 53, 80
2, 26102, Note_on_c, 0, 74, 80
2, 26104, Note_on_c, 0, 68, 80
2, 26111, Control_c, 0, 64, 127
2, 26136, Note_on_c, 0, 46, 0
2, 26136, Control_c, 0, 64, 0
2, 26139, Note_on_c, 0, 62, 0
2, 26141, Note_on_c, 0, 53, 0
2, 26145, Note_on_c, 0, 74, 0
2, 26145, Note_on_c, 0, 68, 0
2, 26175, Control_c, 0, 64, 127
2, 26179, Note_on_c, 0, 46, 80
2, 26179, Note_on_c, 0, 53, 80
2, 26181, Note_on_c, 0, 62, 80
2, 26183, Note_on_c, 0, 74, 80
2, 26186, Note_on_c, 0, 68, 80
2, 26218, Note_on_c, 0, 46, 0
2, 26220, Note_on_c, 0, 53, 0
2, 26220, Note_on_c, 0, 62, 0
2, 26227, Note_on_c, 0, 74, 0
2, 26227, Note_on_c, 0, 68, 0
2, 26241, Control_c, 0, 64, 0
2, 26245, Note_on_c, 0, 61, 80
2, 26245, Note_on_c, 0, 73, 80
2, 26247, Note_on_c, 0, 45, 80
2, 26247, Note_on_c, 0, 52, 80
2, 26251, Note_on_c, 0, 67, 80
2, 26251, Note_on_c, 0, 70, 80
2, 26316, Note_on_c, 0, 73, 0
2, 26318, Note_on_c, 0, 52, 0
2, 26318, Note_on_c, 0, 61, 0
2, 26318, Note_on_c, 0, 45, 0
2, 26327, Note_on_c, 0, 67, 0
2, 26328, Note_on_c, 0, 70, 0
2, 26388, Note_on_c, 0, 46, 80
2, 26395, Note_on_c, 0, 53, 80
2, 26399, Note_on_c, 0, 62, 80
2, 26399, Note_on_c, 0, 74, 80
2, 26402, Note_on_c, 0, 68, 80
2, 26464, Note_on_c, 0, 53, 0
2, 26472, Note_on_c, 0, 46, 0
2, 26476, Note_on_c, 0, 62, 0
2, 26483, Note_on_c, 0, 74, 0
2, 26492, Note_on_c, 0, 68, 0
2, 26570, Note_on_c, 0, 34, 80
2, 26572, Note_on_c, 0, 46, 80
2, 26574, Note_on_c, 0, 92, 80
2, 26578, Note_on_c, 0, 94, 80
2, 26582, Note_on_c, 0, 86, 80
2, 26582, Note_on_c, 0, 89, 80
2, 26584, Note_on_c, 0, 82, 80
2, 26622, Note_on_c, 0, 92, 0
2, 26626, Note_on_c, 0, 86, 0
2, 26626, Note_on_c, 0, 94, 0
2, 26626, Note_on_c, 0, 82, 0
2, 26628, Note_on_c, 0, 34, 0
2, 26628, Note_on_c, 0, 46, 0
2, 26630, Note_on_c, 0, 89, 0
2, 26672, Note_on_c, 0, 82, 80
2, 26681, Note_on_c, 0, 39, 80
2, 26721, Note_on_c, 0, 46, 80
2, 26721, Note_on_c, 0, 55, 80
2, 26734, Note_on_c, 0, 94, 80
2, 26736, Control_c, 0, 64, 127
2, 26765, Note_on_c, 0, 46, 0
2, 26765, Note_on_c, 0, 39, 0
2, 26772, Note_on_c, 0, 94, 0
2, 26776, Note_on_c, 0, 82, 0
2, 26778, Note_on_c, 0, 55, 0
2, 26816, Note_on_c, 0, 93, 80
2, 26820, Note_on_c, 0, 94, 80
2, 26827, Note_on_c, 0, 82, 80
2, 26856, Note_on_c, 0, 93, 0
2, 26874, Note_on_c, 0, 55, 80
2, 26876, Control_c, 0, 64, 0
2, 26884, Note_on_c, 0, 63, 80
2, 26888, Note_on_c, 0, 58, 80
2, 26888, Note_on_c, 0, 67, 80
2, 26911, Note_on_c, 0, 82, 0
2, 26926, Note_on_c, 0, 58, 0
2, 26926, Note_on_c, 0, 63, 0
2, 26928, Note_on_c, 0, 94, 0
2, 26929, Note_on_c, 0, 67, 0
2, 26931, Note_on_c, 0, 55, 0
2, 26970, Note_on_c, 0, 94, 80
2, 26974, Note_on_c, 0, 82, 80
2, 27016, Note_on_c, 0, 34, 80
2, 27024, Note_on_c, 0, 91, 80
2, 27026, Note_on_c, 0, 94, 0
2, 27033, Note_on_c, 0, 79, 80
2, 27033, Note_on_c, 0, 87, 80
2, 27044, Note_on_c, 0, 82, 0
2, 27079, Note_on_c, 0, 34, 0
2, 27088, Note_on_c, 0, 91, 0
2, 27090, Note_on_c, 0, 87, 0
2, 27090, Note_on_c, 0, 79, 0
2, 27172, Note_on_c, 0, 55, 80
2, 27176, Note_on_c, 0, 63, 80
2, 27185, Note_on_c, 0, 58, 80
2, 27189, Note_on_c, 0, 67, 80
2, 27218, Note_on_c, 0, 55, 0
2, 27222, Note_on_c, 0, 63, 0
2, 27224, Note_on_c, 0, 67, 0
2, 27228, Note_on_c, 0, 58, 0
2, 27274, Note_on_c, 0, 39, 80
2, 27281, Note_on_c, 0, 94, 80
2, 27283, Note_on_c, 0, 82, 80
2, 27306, Note_on_c, 0, 94, 0
2, 27310, Note_on_c, 0, 82, 0
2, 27320, Note_on_c, 0, 55, 80
2, 27327, Control_c, 0, 64, 127
2, 27334, Note_on_c, 0, 82, 80
2, 27334, Note_on_c, 0, 94, 80
2, 27369, Note_on_c, 0, 39, 0
2, 27401, Note_on_c, 0, 55, 0
2, 27401, Note_on_c, 0, 82, 0
2, 27405, Note_on_c, 0, 94, 0
2, 27428, Note_on_c, 0, 93, 80
2, 27436, Note_on_c, 0, 82, 80
2, 27436, Note_on_c, 0, 94, 80
2, 27454, Control_c, 0, 64, 0
2, 27471, Note_on_c, 0, 93, 0
2, 27471, Note_on_c, 0, 55, 80
2, 27473, Note_on_c, 0, 63, 80
2, 27477, Note_on_c, 0, 67, 80
2, 27480, Note_on_c, 0, 58, 80
2, 27519, Note_on_c, 0, 58, 0
2, 27519, Note_on_c, 0, 63, 0
2, 27519, Note_on_c, 0, 94, 0
2, 27519, Note_on_c, 0, 67, 0
2, 27523, Note_on_c, 0, 82, 0
2, 27525, Note_on_c, 0, 55, 0
2, 27546, Note_on_c, 0, 40, 80
2, 27560, Note_on_c, 0, 94, 80
2, 27562, Note_on_c, 0, 82, 80
2, 27606, Note_on_c, 0, 40, 0
2, 27619, Note_on_c, 0, 52, 80
2, 27619, Note_on_c, 0, 79, 80
2, 27619, Note_on_c, 0, 91, 80
2, 27621, Note_on_c, 0, 94, 0
2, 27638, Note_on_c, 0, 82, 0
2, 27678, Note_on_c, 0, 91, 0
2, 27682, Note_on_c, 0, 79, 0
2, 27696, Note_on_c, 0, 52, 0
2, 27711, Note_on_c, 0, 82, 80
2, 27711, Note_on_c, 0, 94, 80
2, 27768, Note_on_c, 0, 94, 0
2, 27772, Note_on_c, 0, 82, 0
2, 27772, Note_on_c, 0, 61, 80
2, 27772, Note_on_c, 0, 91, 80
2, 27774, Note_on_c, 0, 64, 80
2, 27774, Note_on_c, 0, 79, 80
2, 27778, Note_on_c, 0, 58, 80
2, 27778, Note_on_c, 0, 67, 80
2, 27810, Note_on_c, 0, 61, 0
2, 27812, Note_on_c, 0, 64, 0
2, 27816, Note_on_c, 0, 67, 0
2, 27822, Note_on_c, 0, 58, 0
2, 27835, Note_on_c, 0, 79, 0
2, 27847, Note_on_c, 0, 91, 0
2, 27872, Note_on_c, 0, 41, 80
2, 27912, Note_on_c, 0, 41, 0
2, 27914, Control_c, 0, 64, 127
2, 27925, Note_on_c, 0, 53, 80
2, 27925, Note_on_c, 0, 92, 80
2, 27929, Note_on_c, 0, 86, 80
2, 27929, Note_on_c, 0, 89, 80
2, 27929, Note_on_c, 0, 94, 80
2, 27933, Note_on_c, 0, 82, 80
2, 27977, Note_on_c, 0, 53, 0
2, 28015, Note_on_c, 0, 92, 0
2, 28019, Note_on_c, 0, 94, 0
2, 28019, Note_on_c, 0, 86, 0
2, 28021, Note_on_c, 0, 82, 0
2, 28023, Note_on_c, 0, 89, 0
2, 28051, Control_c, 0, 64, 0
2, 28079, Note_on_c, 0, 53, 80
2, 28079, Note_on_c, 0, 62, 80
2, 28079, Note_on_c, 0, 65, 80
2, 28079, Note_on_c, 0, 86, 80
2, 28079, Note_on_c, 0, 89, 80
2, 28082, Note_on_c, 0, 58, 80
2, 28086, Note_on_c, 0, 77, 80
2, 28116, Note_on_c, 0, 53, 0
2, 28120, Note_on_c, 0, 62, 0
2, 28122, Note_on_c, 0, 58, 0
2, 28124, Note_on_c, 0, 65, 0
2, 28141, Note_on_c, 0, 86, 0
2, 28141, Note_on_c, 0, 89, 0
2, 28141, Note_on_c, 0, 77, 0
2, 28181, Note_on_c, 0, 76, 80
2, 28181, Note_on_c, 0, 88, 80
2, 28222, Note_on_c, 0, 38, 80
2, 28228, Note_on_c, 0, 88, 0
2, 28228, Note_on_c, 0, 89, 80
2, 28230, Note_on_c, 0, 86, 80
2, 28232, Note_on_c, 0, 77, 80
2, 28236, Note_on_c, 0, 76, 0
2, 28280, Note_on_c, 0, 38, 0
2, 28287, Note_on_c, 0, 77, 0
2, 28287, Note_on_c, 0, 89, 0
2, 28291, Note_on_c, 0, 86, 0
2, 28331, Note_on_c, 0, 73, 80
2, 28335, Note_on_c, 0, 82, 80
2, 28335, Note_on_c, 0, 85, 80
2, 28381, Note_on_c, 0, 82, 0
2, 28385, Note_on_c, 0, 53, 80
2, 28385, Note_on_c, 0, 58, 80
2, 28385, Note_on_c, 0, 62, 80
2, 28385, Note_on_c, 0, 65, 80
2, 28393, Note_on_c, 0, 85, 0
2, 28393, Note_on_c, 0, 73, 0
2, 28400, Note_on_c, 0, 72, 80
2, 28404, Note_on_c, 0, 80, 80
2, 28404, Note_on_c, 0, 84, 80
2, 28418, Note_on_c, 0, 65, 0
2, 28420, Note_on_c, 0, 62, 0
2, 28427, Note_on_c, 0, 58, 0
2, 28436, Note_on_c, 0, 53, 0
2, 28453, Note_on_c, 0, 80, 0
2, 28457, Note_on_c, 0, 72, 0
2, 28457, Note_on_c, 0, 84, 0
2, 28465, Note_on_c, 0, 70, 80
2, 28469, Note_on_c, 0, 82, 80
2, 28510, Note_on_c, 0, 82, 0
2, 28510, Note_on_c, 0, 70, 0
2, 28529, Note_on_c, 0, 58, 80
2, 28529, Note_on_c, 0, 73, 80
2, 28533, Note_on_c, 0, 70, 80
2, 28533, Note_on_c, 0, 85, 80
2, 28536, Control_c, 0, 64, 127
2, 28536, Note_on_c, 0, 82, 80
2, 28570, Note_on_c, 0, 82, 0
2, 28579, Note_on_c, 0, 73, 0
2, 28581, Note_on_c, 0, 58, 0
2, 28581, Note_on_c, 0, 85, 0
2, 28583, Note_on_c, 0, 70, 0
2, 28600, Note_on_c, 0, 55, 80
2, 28607, Note_on_c, 0, 70, 80
2, 28610, Note_on_c, 0, 82, 80
2, 28649, Note_on_c, 0, 55, 0
2, 28656, Note_on_c, 0, 70, 0
2, 28662, Control_c, 0, 64, 0
2, 28671, Note_on_c, 0, 64, 80
2, 28671, Note_on_c, 0, 79, 80
2, 28673, Note_on_c, 0, 82, 0
2, 28675, Note_on_c, 0, 52, 80
2, 28675, Note_on_c, 0, 67, 80
2, 28708, Note_on_c, 0, 52, 0
2, 28708, Note_on_c, 0, 64, 0
2, 28715, Note_on_c, 0, 79, 0
2, 28729, Note_on_c, 0, 67, 0
2, 28747, Note_on_c, 0, 63, 80
2, 28751, Note_on_c, 0, 66, 80
2, 28754, Note_on_c, 0, 51, 80
2, 28761, Note_on_c, 0, 78, 80
2, 28795, Note_on_c, 0, 66, 0
2, 28801, Note_on_c, 0, 63, 0
2, 28805, Note_on_c, 0, 51, 0
2, 28807, Note_on_c, 0, 78, 0
2, 28816, Note_on_c, 0, 50, 80
2, 28816, Note_on_c, 0, 62, 80
2, 28816, Note_on_c, 0, 65, 80
2, 28820, Note_on_c, 0, 74, 80
2, 28822, Note_on_c, 0, 70, 80
2, 28822, Note_on_c, 0, 77, 80
2, 28876, Note_on_c, 0, 65, 0
2, 28889, Note_on_c, 0, 50, 0
2, 28891, Note_on_c, 0, 62, 0
2, 28895, Note_on_c, 0, 74, 0
2, 28895, Note_on_c, 0, 77, 0
2, 28895, Note_on_c, 0, 70, 0
2, 28907, Note_on_c, 0, 67, 80
2, 28907, Note_on_c, 0, 79, 80
2, 28953, Note_on_c, 0, 79, 0
2, 28955, Note_on_c, 0, 67, 0
2, 28976, Note_on_c, 0, 49, 80
2, 28976, Note_on_c, 0, 61, 80
2, 28980, Note_on_c, 0, 69, 80
2, 28980, Note_on_c, 0, 76, 80
2, 28984, Note_on_c, 0, 81, 80
2, 29028, Note_on_c, 0, 49, 0
2, 29032, Note_on_c, 0, 61, 0
2, 29039, Note_on_c, 0, 76, 0
2, 29040, Note_on_c, 0, 69, 0
2, 29040, Note_on_c, 0, 81, 0
2, 29064, Note_on_c, 0, 68, 80
2, 29064, Note_on_c, 0, 80, 80
2, 29108, Note_on_c, 0, 48, 80
2, 29114, Note_on_c, 0, 60, 80
2, 29121, Note_on_c, 0, 69, 80
2, 29123, Note_on_c, 0, 75, 80
2, 29123, Note_on_c, 0, 81, 80
2, 29125, Control_c, 0, 64, 127
2, 29129, Note_on_c, 0, 80, 0
2, 29131, Note_on_c, 0, 68, 0
2, 29171, Note_on_c, 0, 48, 0
2, 29194, Note_on_c, 0, 60, 0
2, 29194, Note_on_c, 0, 75, 0
2, 29198, Note_on_c, 0, 81, 0
2, 29198, Note_on_c, 0, 69, 0
2, 29212, Note_on_c, 0, 66, 80
2, 29216, Note_on_c, 0, 78, 80
2, 29220, Control_c, 0, 64, 0
2, 29220, Note_on_c, 0, 75, 80
2, 29241, Note_on_c, 0, 75, 0
2, 29262, Note_on_c, 0, 53, 80
2, 29262, Note_on_c, 0, 63, 80
2, 29264, Note_on_c, 0, 57, 80
2, 29266, Note_on_c, 0, 60, 80
2, 29268, Note_on_c, 0, 67, 80
2, 29268, Note_on_c, 0, 79, 80
2, 29270, Note_on_c, 0, 66, 0
2, 29270, Note_on_c, 0, 75, 80
2, 29279, Note_on_c, 0, 78, 0
2, 29298, Note_on_c, 0, 53, 0
2, 29306, Note_on_c, 0, 63, 0
2, 29310, Note_on_c, 0, 60, 0
2, 29314, Note_on_c, 0, 57, 0
2, 29333, Note_on_c, 0, 67, 0
2, 29344, Note_on_c, 0, 79, 0
2, 29351, Note_on_c, 0, 75, 0
2, 29363, Note_on_c, 0, 74, 80
2, 29372, Note_on_c, 0, 86, 80
2, 29416, Note_on_c, 0, 41, 80
2, 29454, Note_on_c, 0, 41, 0
2, 29495, Note_on_c, 0, 86, 0
2, 29495, Note_on_c, 0, 74, 0
2, 29514, Note_on_c, 0, 72, 80
2, 29520, Note_on_c, 0, 84, 80
2, 29565, Note_on_c, 0, 63, 80
2, 29565, Note_on_c, 0, 57, 80
2, 29568, Note_on_c, 0, 53, 80
2, 29570, Note_on_c, 0, 70, 80
2, 29574, Note_on_c, 0, 82, 80
2, 29585, Note_on_c, 0, 72, 0
2, 29587, Note_on_c, 0, 84, 0
2, 29655, Note_on_c, 0, 53, 0
2, 29664, Note_on_c, 0, 63, 0
2, 29664, Note_on_c, 0, 70, 0
2, 29665, Note_on_c, 0, 57, 0
2, 29665, Note_on_c, 0, 82, 0
2, 29669, Note_on_c, 0, 67, 80
2, 29673, Note_on_c, 0, 58, 80
2, 29673, Note_on_c, 0, 79, 80
2, 29684, Note_on_c, 0, 59, 80
2, 29709, Control_c, 0, 64, 127
2, 29712, Note_on_c, 0, 58, 0
2, 29719, Note_on_c, 0, 60, 80
2, 29719, Note_on_c, 0, 75, 80
2, 29723, Note_on_c, 0, 69, 80
2, 29723, Note_on_c, 0, 81, 80
2, 29727, Note_on_c, 0, 67, 0
2, 29731, Note_on_c, 0, 79, 0
2, 29762, Note_on_c, 0, 59, 0
2, 29790, Note_on_c, 0, 75, 0
2, 29794, Note_on_c, 0, 69, 0
2, 29798, Note_on_c, 0, 81, 0
2, 29805, Control_c, 0, 64, 0
2, 29813, Note_on_c, 0, 65, 80
2, 29817, Note_on_c, 0, 77, 80
2, 29830, Note_on_c, 0, 60, 0
2, 29863, Note_on_c, 0, 53, 80
2, 29863, Note_on_c, 0, 57, 80
2, 29863, Note_on_c, 0, 64, 80
2, 29865, Note_on_c, 0, 77, 0
2, 29867, Note_on_c, 0, 60, 80
2, 29867, Note_on_c, 0, 76, 80
2, 29876, Note_on_c, 0, 65, 0
2, 29899, Note_on_c, 0, 53, 0
2, 29909, Note_on_c, 0, 60, 0
2, 29916, Note_on_c, 0, 57, 0
2, 29939, Note_on_c, 0, 64, 0
2, 29946, Note_on_c, 0, 76, 0
2, 29965, Note_on_c, 0, 41, 80
2, 29965, Note_on_c, 0, 65, 80
2, 29972, Note_on_c, 0, 77, 80
2, 30010, Note_on_c, 0, 77, 0
2, 30012, Note_on_c, 0, 48, 80
2, 30014, Note_on_c, 0, 57, 80
2, 30014, Note_on_c, 0, 63, 80
2, 30014, Note_on_c, 0, 69, 80
2, 30014, Note_on_c, 0, 72, 80
2, 30018, Note_on_c, 0, 75, 80
2, 30026, Note_on_c, 0, 65, 0
2, 30056, Note_on_c, 0, 41, 0
2, 30056, Note_on_c, 0, 48, 0
2, 30071, Note_on_c, 0, 57, 0
2, 30074, Note_on_c, 0, 75, 0
2, 30078, Note_on_c, 0, 69, 0
2, 30078, Note_on_c, 0, 72, 0
2, 30093, Note_on_c, 0, 63, 0
2, 30110, Note_on_c, 0, 65, 80
2, 30117, Note_on_c, 0, 73, 80
2, 30120, Note_on_c, 0, 69, 80
2, 30159, Note_on_c, 0, 63, 80
2, 30163, Note_on_c, 0, 53, 80
2, 30163, Note_on_c, 0, 57, 80
2, 30163, Note_on_c, 0, 67, 80
2, 30167, Note_on_c, 0, 60, 80
2, 30167, Note_on_c, 0, 74, 80
2, 30168, Note_on_c, 0, 73, 0
2, 30179, Note_on_c, 0, 65, 0
2, 30181, Note_on_c, 0, 69, 0
2, 30232, Note_on_c, 0, 74, 0
2, 30249, Note_on_c, 0, 63, 0
2, 30249, Note_on_c, 0, 53, 0
2, 30249, Note_on_c, 0, 67, 0
2, 30253, Note_on_c, 0, 60, 0
2, 30257, Note_on_c, 0, 74, 80
2, 30259, Note_on_c, 0, 70, 80
2, 30273, Note_on_c, 0, 57, 0
2, 30312, Control_c, 0, 64, 127
2, 30313, Note_on_c, 0, 53, 80
2, 30317, Note_on_c, 0, 62, 80
2, 30321, Note_on_c, 0, 58, 80
2, 30376, Note_on_c, 0, 53, 0
2, 30380, Note_on_c, 0, 62, 0
2, 30384, Note_on_c, 0, 58, 0
2, 30384, Note_on_c, 0, 74, 0
2, 30387, Note_on_c, 0, 70, 0
2, 30394, Note_on_c, 0, 41, 80
2, 30449, Control_c, 0, 64, 0
2, 30453, Note_on_c, 0, 41, 0
2, 30463, Note_on_c, 0, 53, 80
2, 30467, Note_on_c, 0, 62, 80
2, 30471, Note_on_c, 0, 74, 80
2, 30526, Note_on_c, 0, 74, 0
2, 30547, Note_on_c, 0, 62, 0
2, 30547, Note_on_c, 0, 43, 80
2, 30570, Note_on_c, 0, 63, 80
2, 30574, Note_on_c, 0, 53, 0
2, 30577, Note_on_c, 0, 75, 80
2, 30605, Note_on_c, 0, 43, 0
2, 30612, Note_on_c, 0, 55, 80
2, 30616, Note_on_c, 0, 76, 80
2, 30620, Note_on_c, 0, 64, 80
2, 30628, Note_on_c, 0, 63, 0
2, 30632, Note_on_c, 0, 75, 0
2, 30692, Note_on_c, 0, 55, 0
2, 30698, Note_on_c, 0, 64, 0
2, 30713, Note_on_c, 0, 76, 0
2, 30715, Note_on_c, 0, 65, 80
2, 30723, Note_on_c, 0, 77, 80
2, 30736, Note_on_c, 0, 45, 80
2, 30766, Note_on_c, 0, 57, 80
2, 30766, Note_on_c, 0, 79, 80
2, 30768, Note_on_c, 0, 45, 0
2, 30768, Note_on_c, 0, 67, 80
2, 30768, Note_on_c, 0, 74, 80
2, 30778, Note_on_c, 0, 65, 0
2, 30778, Note_on_c, 0, 77, 0
2, 30829, Note_on_c, 0, 79, 0
2, 30829, Note_on_c, 0, 67, 0
2, 30833, Note_on_c, 0, 74, 0
2, 30850, Note_on_c, 0, 46, 80
2, 30864, Note_on_c, 0, 57, 0
2, 30864, Note_on_c, 0, 74, 80
2, 30875, Note_on_c, 0, 70, 80
2, 30875, Note_on_c, 0, 80, 80
2, 30877, Note_on_c, 0, 77, 80
2, 30877, Note_on_c, 0, 82, 80
2, 30911, Control_c, 0, 64, 127
2, 30919, Note_on_c, 0, 58, 80
2, 30923, Note_on_c, 0, 46, 0
2, 30976, Note_on_c, 0, 80, 0
2, 30976, Note_on_c, 0, 58, 0
2, 30978, Note_on_c, 0, 77, 0
2, 30978, Note_on_c, 0, 70, 0
2, 30980, Note_on_c, 0, 82, 0
2, 30980, Note_on_c, 0, 74, 0
2, 31009, Note_on_c, 0, 41, 80
2, 31016, Note_on_c, 0, 65, 80
2, 31016, Note_on_c, 0, 73, 80
2, 31020, Note_on_c, 0, 77, 80
2, 31039, Control_c, 0, 64, 0
2, 31056, Note_on_c, 0, 73, 0
2, 31056, Note_on_c, 0, 53, 80
2, 31058, Note_on_c, 0, 77, 0
2, 31065, Note_on_c, 0, 67, 80
2, 31065, Note_on_c, 0, 74, 80
2, 31065, Note_on_c, 0, 79, 80
2, 31067, Note_on_c, 0, 41, 0
2, 31076, Note_on_c, 0, 65, 0
2, 31127, Note_on_c, 0, 74, 0
2, 31127, Note_on_c, 0, 67, 0
2, 31128, Note_on_c, 0, 79, 0
2, 31152, Note_on_c, 0, 53, 0
2, 31155, Note_on_c, 0, 46, 80
2, 31168, Note_on_c, 0, 70, 80
2, 31168, Note_on_c, 0, 74, 80
2, 31168, Note_on_c, 0, 77, 80
2, 31168, Note_on_c, 0, 80, 80
2, 31175, Note_on_c, 0, 82, 80
2, 31219, Note_on_c, 0, 46, 0
2, 31219, Note_on_c, 0, 58, 80
2, 31254, Note_on_c, 0, 80, 0
2, 31256, Note_on_c, 0, 77, 0
2, 31260, Note_on_c, 0, 74, 0
2, 31260, Note_on_c, 0, 82, 0
2, 31262, Note_on_c, 0, 70, 0
2, 31269, Note_on_c, 0, 58, 0
2, 31290, Note_on_c, 0, 53, 80
2, 31296, Note_on_c, 0, 65, 80
2, 31337, Note_on_c, 0, 65, 0
2, 31349, Note_on_c, 0, 53, 0
2, 31351, Note_on_c, 0, 55, 80
2, 31366, Note_on_c, 0, 67, 80
2, 31440, Note_on_c, 0, 55, 0
2, 31446, Note_on_c, 0, 65, 80
2, 31459, Note_on_c, 0, 67, 0
2, 31490, Control_c, 0, 64, 127
2, 31508, Note_on_c, 0, 34, 80
2, 31512, Note_on_c, 0, 65, 0
2, 31512, Note_on_c, 0, 46, 80
2, 31513, Note_on_c, 0, 56, 80
2, 31517, Note_on_c, 0, 62, 80
2, 31524, Note_on_c, 0, 68, 80
2, 31533, Note_on_c, 0, 34, 0
2, 31547, Note_on_c, 0, 68, 0
2, 31551, Note_on_c, 0, 56, 0
2, 31553, Note_on_c, 0, 65, 80
2, 31567, Note_on_c, 0, 46, 0
2, 31578, Note_on_c, 0, 65, 0
2, 31580, Note_on_c, 0, 62, 0
2, 31582, Note_on_c, 0, 34, 80
2, 31584, Note_on_c, 0, 56, 80
2, 31587, Note_on_c, 0, 68, 80
2, 31598, Note_on_c, 0, 34, 0
2, 31612, Note_on_c, 0, 56, 0
2, 31616, Note_on_c, 0, 68, 0
2, 31618, Note_on_c, 0, 46, 80
2, 31618, Note_on_c, 0, 65, 80
2, 31620, Note_on_c, 0, 62, 80
2, 31627, Control_c, 0, 64, 0
2, 31646, Note_on_c, 0, 62, 0
2, 31646, Note_on_c, 0, 46, 0
2, 31650, Note_on_c, 0, 65, 0
2, 31650, Note_on_c, 0, 34, 80
2, 31650, Note_on_c, 0, 56, 80
2, 31656, Note_on_c, 0, 68, 80
2, 31667, Note_on_c, 0, 34, 0
2, 31678, Note_on_c, 0, 56, 0
2, 31680, Note_on_c, 0, 46, 80
2, 31680, Note_on_c, 0, 62, 80
2, 31681, Note_on_c, 0, 68, 0
2, 31685, Note_on_c, 0, 65, 80
2, 31708, Note_on_c, 0, 65, 0
2, 31708, Note_on_c, 0, 34, 80
2, 31712, Note_on_c, 0, 62, 0
2, 31712, Note_on_c, 0, 46, 0
2, 31714, Note_on_c, 0, 56, 80
2, 31723, Note_on_c, 0, 68, 80
2, 31733, Note_on_c, 0, 34, 0
2, 31746, Note_on_c, 0, 46, 80
2, 31748, Note_on_c, 0, 68, 0
2, 31750, Note_on_c, 0, 56, 0
2, 31750, Note_on_c, 0, 65, 80
2, 31752, Note_on_c, 0, 62, 80
2, 31771, Note_on_c, 0, 46, 0
2, 31773, Note_on_c, 0, 62, 0
2, 31776, Note_on_c, 0, 34, 80
2, 31783, Note_on_c, 0, 65, 0
2, 31785, Note_on_c, 0, 56, 80
2, 31794, Note_on_c, 0, 68, 80
2, 31802, Note_on_c, 0, 34, 0
2, 31817, Note_on_c, 0, 56, 0
2, 31817, Note_on_c, 0, 46, 80
2, 31819, Note_on_c, 0, 62, 80
2, 31819, Note_on_c, 0, 65, 80
2, 31821, Note_on_c, 0, 68, 0
2, 31844, Note_on_c, 0, 46, 0
2, 31844, Note_on_c, 0, 62, 0
2, 31848, Note_on_c, 0, 65, 0
2, 31848, Note_on_c, 0, 34, 80
2, 31856, Note_on_c, 0, 56, 80
2, 31867, Note_on_c, 0, 68, 80
2, 31875, Note_on_c, 0, 34, 0
2, 31886, Note_on_c, 0, 56, 0
2, 31886, Note_on_c, 0, 46, 80
2, 31890, Note_on_c, 0, 68, 0
2, 31890, Note_on_c, 0, 65, 80
2, 31898, Note_on_c, 0, 62, 80
2, 31913, Note_on_c, 0, 62, 0
2, 31915, Note_on_c, 0, 34, 80
2, 31919, Note_on_c, 0, 46, 0
2, 31922, Note_on_c, 0, 65, 0
2, 31924, Note_on_c, 0, 56, 80
2, 31933, Note_on_c, 0, 68, 80
2, 31942, Note_on_c, 0, 34, 0
2, 31950, Note_on_c, 0, 46, 80
2, 31954, Note_on_c, 0, 65, 80
2, 31956, Note_on_c, 0, 56, 0
2, 31958, Note_on_c, 0, 68, 0
2, 31958, Note_on_c, 0, 62, 80
2, 31977, Note_on_c, 0, 62, 0
2, 31979, Note_on_c, 0, 46, 0
2, 31979, Note_on_c, 0, 34, 80
2, 31981, Note_on_c, 0, 65, 0
2, 31985, Note_on_c, 0, 56, 80
2, 31995, Note_on_c, 0, 68, 80
2, 31999, Note_on_c, 0, 34, 0
2, 32012, Note_on_c, 0, 46, 80
2, 32018, Note_on_c, 0, 68, 0
2, 32020, Note_on_c, 0, 62, 80
2, 32020, Note_on_c, 0, 65, 80
2, 32022, Note_on_c, 0, 56, 0
2, 32043, Note_on_c, 0, 46, 0
2, 32050, Note_on_c, 0, 34, 80
2, 32059, Note_on_c, 0, 56, 80
2, 32061, Note_on_c, 0, 68, 80
2, 32064, Note_on_c, 0, 62, 0
2, 32071, Note_on_c, 0, 65, 0
2, 32075, Note_on_c, 0, 34, 0
2, 32089, Note_on_c, 0, 46, 80
2, 32091, Note_on_c, 0, 56, 0
2, 32106, Note_on_c, 0, 68, 0
2, 32116, Note_on_c, 0, 46, 0
2, 32120, Note_on_c, 0, 34, 80
2, 32129, Note_on_c, 0, 56, 80
2, 32131, Note_on_c, 0, 65, 80
2, 32133, Note_on_c, 0, 53, 80
2, 32135, Note_on_c, 0, 62, 80
2, 32138, Control_c, 0, 64, 127
2, 32161, Note_on_c, 0, 46, 80
2, 32195, Note_on_c, 0, 53, 0
2, 32197, Note_on_c, 0, 34, 0
2, 32204, Note_on_c, 0, 65, 0
2, 32204, Note_on_c, 0, 46, 0
2, 32208, Note_on_c, 0, 62, 0
2, 32209, Note_on_c, 0, 56, 0
2, 32234, Note_on_c, 0, 86, 80
2, 32275, Control_c, 0, 64, 0
2, 32298, Note_on_c, 0, 77, 80
2, 32321, Note_on_c, 0, 86, 0
2, 32386, Note_on_c, 0, 82, 80
2, 32388, Note_on_c, 0, 77, 0
2, 32443, Note_on_c, 0, 82, 0
2, 32445, Note_on_c, 0, 74, 80
2, 32531, Note_on_c, 0, 77, 80
2, 32542, Note_on_c, 0, 74, 0
2, 32575, Note_on_c, 0, 77, 0
2, 32586, Note_on_c, 0, 74, 80
2, 32594, Note_on_c, 0, 70, 80
2, 32645, Note_on_c, 0, 77, 80
2, 32652, Note_on_c, 0, 74, 0
2, 32682, Note_on_c, 0, 70, 0
2, 32692, Note_on_c, 0, 74, 80
2, 32707, Note_on_c, 0, 77, 0
2, 32732, Control_c, 0, 64, 127
2, 32732, Note_on_c, 0, 34, 80
2, 32742, Note_on_c, 0, 62, 80
2, 32744, Note_on_c, 0, 56, 80
2, 32744, Note_on_c, 0, 65, 80
2, 32746, Note_on_c, 0, 68, 80
2, 32753, Note_on_c, 0, 74, 0
2, 32760, Note_on_c, 0, 46, 80
2, 32761, Note_on_c, 0, 34, 0
2, 32772, Note_on_c, 0, 56, 0
2, 32774, Note_on_c, 0, 68, 0
2, 32797, Note_on_c, 0, 46, 0
2, 32797, Note_on_c, 0, 34, 80
2, 32801, Note_on_c, 0, 65, 0
2, 32803, Note_on_c, 0, 62, 0
2, 32807, Note_on_c, 0, 56, 80
2, 32810, Note_on_c, 0, 68, 80
2, 32825, Note_on_c, 0, 34, 0
2, 32832, Note_on_c, 0, 46, 80
2, 32835, Note_on_c, 0, 56, 0
2, 32837, Note_on_c, 0, 68, 0
2, 32837, Note_on_c, 0, 62, 80
2, 32837, Note_on_c, 0, 65, 80
2, 32860, Note_on_c, 0, 46, 0
2, 32860, Control_c, 0, 64, 0
2, 32862, Note_on_c, 0, 65, 0
2, 32869, Note_on_c, 0, 62, 0
2, 32869, Note_on_c, 0, 34, 80
2, 32871, Note_on_c, 0, 56, 80
2, 32875, Note_on_c, 0, 68, 80
2, 32883, Note_on_c, 0, 34, 0
2, 32901, Note_on_c, 0, 68, 0
2, 32901, Note_on_c, 0, 56, 0
2, 32903, Note_on_c, 0, 46, 80
2, 32903, Note_on_c, 0, 65, 80
2, 32906, Note_on_c, 0, 62, 80
2, 32929, Note_on_c, 0, 62, 0
2, 32929, Note_on_c, 0, 46, 0
2, 32929, Note_on_c, 0, 34, 80
2, 32933, Note_on_c, 0, 65, 0
2, 32940, Note_on_c, 0, 56, 80
2, 32942, Note_on_c, 0, 68, 80
2, 32954, Note_on_c, 0, 34, 0
2, 32958, Note_on_c, 0, 46, 80
2, 32962, Note_on_c, 0, 68, 0
2, 32966, Note_on_c, 0, 65, 80
2, 32968, Note_on_c, 0, 56, 0
2, 32970, Note_on_c, 0, 62, 80
2, 32993, Note_on_c, 0, 65, 0
2, 32995, Note_on_c, 0, 46, 0
2, 32995, Note_on_c, 0, 34, 80
2, 32997, Note_on_c, 0, 62, 0
2, 33000, Note_on_c, 0, 56, 80
2, 33004, Note_on_c, 0, 68, 80
2, 33017, Note_on_c, 0, 34, 0
2, 33029, Note_on_c, 0, 56, 0
2, 33031, Note_on_c, 0, 46, 80
2, 33033, Note_on_c, 0, 68, 0
2, 33040, Note_on_c, 0, 62, 80
2, 33042, Note_on_c, 0, 65, 80
2, 33061, Note_on_c, 0, 46, 0
2, 33065, Note_on_c, 0, 65, 0
2, 33065, Note_on_c, 0, 62, 0
2, 33065, Note_on_c, 0, 34, 80
2, 33072, Note_on_c, 0, 56, 80
2, 33073, Note_on_c, 0, 68, 80
2, 33088, Note_on_c, 0, 34, 0
2, 33098, Note_on_c, 0, 46, 80
2, 33102, Note_on_c, 0, 68, 0
2, 33102, Note_on_c, 0, 56, 0
2, 33104, Note_on_c, 0, 62, 80
2, 33104, Note_on_c, 0, 65, 80
2, 33129, Note_on_c, 0, 62, 0
2, 33129, Note_on_c, 0, 46, 0
2, 33129, Note_on_c, 0, 34, 80
2, 33133, Note_on_c, 0, 65, 0
2, 33137, Note_on_c, 0, 56, 80
2, 33144, Note_on_c, 0, 68, 80
2, 33156, Note_on_c, 0, 34, 0
2, 33165, Note_on_c, 0, 56, 0
2, 33168, Note_on_c, 0, 68, 0
2, 33170, Note_on_c, 0, 62, 80
2, 33172, Note_on_c, 0, 46, 80
2, 33174, Note_on_c, 0, 65, 80
2, 33193, Note_on_c, 0, 46, 0
2, 33193, Note_on_c, 0, 34, 80
2, 33204, Note_on_c, 0, 56, 80
2, 33204, Note_on_c, 0, 68, 80
2, 33221, Note_on_c, 0, 34, 0
2, 33236, Note_on_c, 0, 46, 80
2, 33246, Note_on_c, 0, 56, 0
2, 33259, Note_on_c, 0, 62, 0
2, 33259, Note_on_c, 0, 34, 80
2, 33263, Note_on_c, 0, 68, 0
2, 33264, Note_on_c, 0, 65, 0
2, 33273, Note_on_c, 0, 46, 0
2, 33284, Note_on_c, 0, 34, 0
2, 33313, Note_on_c, 0, 34, 80
2, 33317, Note_on_c, 0, 46, 80
2, 33317, Note_on_c, 0, 53, 80
2, 33319, Note_on_c, 0, 62, 80
2, 33319, Note_on_c, 0, 65, 80
2, 33374, Note_on_c, 0, 53, 0
2, 33376, Note_on_c, 0, 46, 0
2, 33383, Note_on_c, 0, 65, 0
2, 33384, Note_on_c, 0, 62, 0
2, 33386, Note_on_c, 0, 34, 0
2, 33469, Note_on_c, 0, 72, 80
2, 33473, Note_on_c, 0, 61, 80
2, 33475, Note_on_c, 0, 73, 80
2, 33496, Control_c, 0, 64, 127
2, 33515, Note_on_c, 0, 72, 0
2, 33555, Note_on_c, 0, 73, 0
2, 33559, Note_on_c, 0, 61, 0
2, 33612, Note_on_c, 0, 61, 80
2, 33614, Note_on_c, 0, 72, 80
2, 33614, Note_on_c, 0, 73, 80
2, 33616, Control_c, 0, 64, 0
2, 33654, Note_on_c, 0, 72, 0
2, 33705, Note_on_c, 0, 61, 0
2, 33722, Note_on_c, 0, 73, 0
2, 33777, Note_on_c, 0, 61, 80
2, 33777, Note_on_c, 0, 72, 80
2, 33777, Note_on_c, 0, 73, 80
2, 33821, Note_on_c, 0, 72, 0
2, 33862, Note_on_c, 0, 61, 0
2, 33883, Note_on_c, 0, 73, 0
2, 33921, Note_on_c, 0, 39, 80
2, 33930, Note_on_c, 0, 51, 80
2, 34000, Note_on_c, 0, 39, 0
2, 34014, Note_on_c, 0, 51, 0
2, 34093, Control_c, 0, 64, 127
2, 34093, Note_on_c, 0, 34, 80
2, 34100, Note_on_c, 0, 46, 80
2, 34152, Note_on_c, 0, 34, 0
2, 34154, Note_on_c, 0, 46, 0
2, 34230, Control_c, 0, 64, 0
2, 34249, Note_on_c, 0, 60, 80
2, 34251, Note_on_c, 0, 39, 80
2, 34253, Note_on_c, 0, 72, 80
2, 34257, Note_on_c, 0, 51, 80
2, 34259, Note_on_c, 0, 67, 80
2, 34312, Note_on_c, 0, 39, 0
2, 34314, Note_on_c, 0, 67, 0
2, 34314, Note_on_c, 0, 72, 0
2, 34318, Note_on_c, 0, 60, 0
2, 34318, Note_on_c, 0, 51, 0
2, 34341, Note_on_c, 0, 70, 80
2, 34398, Note_on_c, 0, 34, 80
2, 34407, Note_on_c, 0, 46, 80
2, 34407, Note_on_c, 0, 66, 80
2, 34409, Note_on_c, 0, 60, 80
2, 34453, Note_on_c, 0, 70, 0
2, 34455, Note_on_c, 0, 34, 0
2, 34462, Note_on_c, 0, 66, 0
2, 34462, Note_on_c, 0, 46, 0
2, 34468, Note_on_c, 0, 60, 0
2, 34479, Note_on_c, 0, 55, 80
2, 34488, Note_on_c, 0, 67, 80
2, 34536, Note_on_c, 0, 39, 80
2, 34543, Note_on_c, 0, 51, 80
2, 34592, Note_on_c, 0, 39, 0
2, 34605, Note_on_c, 0, 51, 0
2, 34689, Control_c, 0, 64, 127
2, 34691, Note_on_c, 0, 34, 80
2, 34693, Note_on_c, 0, 46, 80
2, 34705, Note_on_c, 0, 55, 0
2, 34707, Note_on_c, 0, 67, 0
2, 34746, Note_on_c, 0, 34, 0
2, 34752, Note_on_c, 0, 46, 0
2, 34818, Control_c, 0, 64, 0
2, 34841, Note_on_c, 0, 60, 80
2, 34843, Note_on_c, 0, 39, 80
2, 34843, Note_on_c, 0, 72, 80
2, 34847, Note_on_c, 0, 51, 80
2, 34847, Note_on_c, 0, 67, 80
2, 34917, Note_on_c, 0, 39, 0
2, 34920, Note_on_c, 0, 67, 0
2, 34922, Note_on_c, 0, 72, 0
2, 34924, Note_on_c, 0, 60, 0
2, 34924, Note_on_c, 0, 51, 0
2, 34931, Note_on_c, 0, 70, 80
2, 34971, Note_on_c, 0, 40, 80
2, 34982, Note_on_c, 0, 60, 80
2, 34982, Note_on_c, 0, 66, 80
2, 34984, Note_on_c, 0, 52, 80
2, 35043, Note_on_c, 0, 66, 0
2, 35050, Note_on_c, 0, 60, 0
2, 35052, Note_on_c, 0, 70, 0
2, 35073, Note_on_c, 0, 40, 0
2, 35075, Note_on_c, 0, 52, 0
2, 35082, Note_on_c, 0, 60, 80
2, 35090, Note_on_c, 0, 70, 80
2, 35092, Note_on_c, 0, 67, 80
2, 35126, Note_on_c, 0, 53, 80
2, 35128, Note_on_c, 0, 70, 0
2, 35130, Note_on_c, 0, 60, 0
2, 35130, Note_on_c, 0, 41, 80
2, 35130, Note_on_c, 0, 65, 80
2, 35144, Note_on_c, 0, 67, 0
2, 35193, Note_on_c, 0, 65, 0
2, 35200, Note_on_c, 0, 53, 0
2, 35208, Note_on_c, 0, 67, 80
2, 35210, Note_on_c, 0, 41, 0
2, 35235, Note_on_c, 0, 65, 80
2, 35250, Note_on_c, 0, 67, 0
2, 35285, Note_on_c, 0, 34, 80
2, 35287, Note_on_c, 0, 46, 80
2, 35294, Note_on_c, 0, 62, 80
2, 35303, Control_c, 0, 64, 127
2, 35304, Note_on_c, 0, 65, 0
2, 35362, Note_on_c, 0, 34, 0
2, 35369, Note_on_c, 0, 46, 0
2, 35373, Note_on_c, 0, 65, 80
2, 35381, Note_on_c, 0, 62, 0
2, 35381, Note_on_c, 0, 69, 80
2, 35402, Control_c, 0, 64, 0
2, 35441, Note_on_c, 0, 50, 80
2, 35443, Note_on_c, 0, 41, 80
2, 35485, Note_on_c, 0, 65, 0
2, 35487, Note_on_c, 0, 69, 0
2, 35489, Note_on_c, 0, 41, 0
2, 35499, Note_on_c, 0, 50, 0
2, 35520, Note_on_c, 0, 69, 80
2, 35524, Note_on_c, 0, 62, 80
2, 35524, Note_on_c, 0, 65, 80
2, 35568, Note_on_c, 0, 69, 0
2, 35586, Note_on_c, 0, 34, 80
2, 35592, Note_on_c, 0, 61, 80
2, 35594, Note_on_c, 0, 41, 80
2, 35598, Note_on_c, 0, 69, 80
2, 35602, Note_on_c, 0, 62, 0
2, 35623, Note_on_c, 0, 41, 0
2, 35625, Note_on_c, 0, 61, 0
2, 35629, Note_on_c, 0, 65, 0
2, 35631, Note_on_c, 0, 69, 0
2, 35635, Note_on_c, 0, 34, 0
2, 35675, Note_on_c, 0, 60, 80
2, 35733, Note_on_c, 0, 60, 0
2, 35733, Note_on_c, 0, 50, 80
2, 35736, Note_on_c, 0, 38, 80
2, 35740, Note_on_c, 0, 65, 80
2, 35781, Note_on_c, 0, 65, 0
2, 35783, Note_on_c, 0, 67, 80
2, 35793, Note_on_c, 0, 50, 0
2, 35810, Note_on_c, 0, 38, 0
2, 35821, Note_on_c, 0, 65, 80
2, 35855, Note_on_c, 0, 67, 0
2, 35886, Note_on_c, 0, 65, 0
2, 35888, Control_c, 0, 64, 127
2, 35890, Note_on_c, 0, 31, 80
2, 35894, Note_on_c, 0, 67, 80
2, 35896, Note_on_c, 0, 62, 80
2, 35900, Note_on_c, 0, 70, 80
2, 35928, Note_on_c, 0, 31, 0
2, 35936, Note_on_c, 0, 70, 0
2, 35936, Note_on_c, 0, 62, 0
2, 35938, Note_on_c, 0, 67, 0
2, 35957, Note_on_c, 0, 59, 80
2, 35961, Note_on_c, 0, 65, 80
2, 35965, Note_on_c, 0, 69, 80
2, 36020, Control_c, 0, 64, 0
2, 36022, Note_on_c, 0, 50, 80
2, 36024, Note_on_c, 0, 38, 80
2, 36085, Note_on_c, 0, 69, 0
2, 36087, Note_on_c, 0, 65, 0
2, 36089, Note_on_c, 0, 38, 0
2, 36096, Note_on_c, 0, 50, 0
2, 36106, Note_on_c, 0, 67, 80
2, 36161, Note_on_c, 0, 42, 80
2, 36168, Note_on_c, 0, 51, 80
2, 36229, Note_on_c, 0, 42, 0
2, 36231, Note_on_c, 0, 59, 0
2, 36235, Note_on_c, 0, 51, 0
2, 36237, Note_on_c, 0, 67, 0
2, 36239, Note_on_c, 0, 43, 80
2, 36253, Note_on_c, 0, 52, 80
2, 36357, Note_on_c, 0, 52, 0
2, 36359, Note_on_c, 0, 43, 0
2, 36424, Note_on_c, 0, 74, 80
2, 36428, Note_on_c, 0, 86, 80
2, 36461, Note_on_c, 0, 86, 0
2, 36463, Note_on_c, 0, 74, 0
2, 36463, Note_on_c, 0, 55, 80
2, 36463, Note_on_c, 0, 64, 80
2, 36467, Note_on_c, 0, 60, 80
2, 36469, Note_on_c, 0, 73, 80
2, 36471, Note_on_c, 0, 58, 80
2, 36473, Note_on_c, 0, 79, 80
2, 36473, Note_on_c, 0, 85, 80
2, 36475, Control_c, 0, 64, 127
2, 36479, Note_on_c, 0, 82, 80
2, 36508, Note_on_c, 0, 64, 0
2, 36508, Note_on_c, 0, 55, 0
2, 36512, Note_on_c, 0, 60, 0
2, 36516, Note_on_c, 0, 58, 0
2, 36527, Note_on_c, 0, 73, 0
2, 36528, Note_on_c, 0, 85, 0
2, 36530, Note_on_c, 0, 79, 0
2, 36537, Note_on_c, 0, 82, 0
2, 36554, Note_on_c, 0, 74, 80
2, 36554, Note_on_c, 0, 79, 80
2, 36554, Note_on_c, 0, 86, 80
2, 36563, Note_on_c, 0, 82, 80
2, 36567, Note_on_c, 0, 36, 80
2, 36595, Note_on_c, 0, 82, 0
2, 36595, Note_on_c, 0, 79, 0
2, 36603, Control_c, 0, 64, 0
2, 36610, Note_on_c, 0, 86, 0
2, 36612, Note_on_c, 0, 43, 80
2, 36614, Note_on_c, 0, 74, 0
2, 36616, Note_on_c, 0, 52, 80
2, 36616, Note_on_c, 0, 72, 80
2, 36620, Note_on_c, 0, 79, 80
2, 36624, Note_on_c, 0, 84, 80
2, 36627, Note_on_c, 0, 82, 80
2, 36645, Note_on_c, 0, 43, 0
2, 36648, Note_on_c, 0, 36, 0
2, 36673, Note_on_c, 0, 72, 0
2, 36673, Note_on_c, 0, 79, 0
2, 36675, Note_on_c, 0, 52, 0
2, 36677, Note_on_c, 0, 82, 0
2, 36681, Note_on_c, 0, 84, 0
2, 36706, Note_on_c, 0, 80, 80
2, 36729, Note_on_c, 0, 55, 80
2, 36733, Note_on_c, 0, 60, 80
2, 36737, Note_on_c, 0, 58, 80
2, 36737, Note_on_c, 0, 64, 80
2, 36737, Note_on_c, 0, 70, 80
2, 36741, Note_on_c, 0, 76, 80
2, 36741, Note_on_c, 0, 79, 80
2, 36744, Note_on_c, 0, 82, 80
2, 36748, Note_on_c, 0, 80, 0
2, 36771, Note_on_c, 0, 58, 0
2, 36771, Note_on_c, 0, 60, 0
2, 36773, Note_on_c, 0, 55, 0
2, 36809, Note_on_c, 0, 57, 80
2, 36821, Note_on_c, 0, 79, 0
2, 36821, Note_on_c, 0, 64, 0
2, 36821, Note_on_c, 0, 76, 0
2, 36823, Note_on_c, 0, 70, 0
2, 36830, Note_on_c, 0, 82, 0
2, 36830, Note_on_c, 0, 58, 80
2, 36847, Note_on_c, 0, 59, 80
2, 36872, Note_on_c, 0, 57, 0
2, 36879, Note_on_c, 0, 60, 80
2, 36879, Note_on_c, 0, 66, 80
2, 36879, Note_on_c, 0, 78, 80
2, 36881, Note_on_c, 0, 75, 80
2, 36888, Note_on_c, 0, 58, 0
2, 36889, Note_on_c, 0, 59, 0
2, 36930, Note_on_c, 0, 66, 0
2, 36936, Note_on_c, 0, 75, 0
2, 36938, Note_on_c, 0, 60, 0
2, 36942, Note_on_c, 0, 78, 0
2, 36963, Note_on_c, 0, 67, 80
2, 36963, Note_on_c, 0, 75, 80
2, 36963, Note_on_c, 0, 79, 80
2, 36995, Note_on_c, 0, 53, 80
2, 36995, Note_on_c, 0, 63, 80
2, 36999, Note_on_c, 0, 57, 80
2, 36999, Note_on_c, 0, 60, 80
2, 37022, Control_c, 0, 64, 127
2, 37056, Note_on_c, 0, 63, 0
2, 37056, Note_on_c, 0, 53, 0
2, 37056, Note_on_c, 0, 79, 0
2, 37057, Note_on_c, 0, 75, 0
2, 37057, Note_on_c, 0, 67, 0
2, 37057, Note_on_c, 0, 57, 0
2, 37064, Note_on_c, 0, 60, 0
2, 37100, Note_on_c, 0, 69, 80
2, 37100, Note_on_c, 0, 72, 80
2, 37102, Note_on_c, 0, 65, 80
2, 37102, Note_on_c, 0, 77, 80
2, 37104, Note_on_c, 0, 75, 80
2, 37125, Control_c, 0, 64, 0
2, 37160, Note_on_c, 0, 41, 80
2, 37199, Note_on_c, 0, 41, 0
2, 37220, Note_on_c, 0, 75, 0
2, 37224, Note_on_c, 0, 65, 0
2, 37224, Note_on_c, 0, 77, 0
2, 37224, Note_on_c, 0, 72, 0
2, 37234, Note_on_c, 0, 69, 0
2, 37270, Note_on_c, 0, 65, 80
2, 37270, Note_on_c, 0, 69, 80
2, 37270, Note_on_c, 0, 73, 80
2, 37310, Note_on_c, 0, 73, 0
2, 37312, Note_on_c, 0, 65, 0
2, 37319, Note_on_c, 0, 69, 0
2, 37329, Note_on_c, 0, 53, 80
2, 37336, Note_on_c, 0, 57, 80
2, 37336, Note_on_c, 0, 60, 80
2, 37338, Note_on_c, 0, 63, 80
2, 37338, Note_on_c, 0, 65, 80
2, 37342, Note_on_c, 0, 74, 80
2, 37428, Note_on_c, 0, 70, 80
2, 37432, Note_on_c, 0, 53, 0
2, 37434, Note_on_c, 0, 74, 0
2, 37438, Note_on_c, 0, 65, 0
2, 37438, Note_on_c, 0, 63, 0
2, 37438, Note_on_c, 0, 57, 0
2, 37438, Note_on_c, 0, 60, 0
2, 37482, Note_on_c, 0, 50, 80
2, 37488, Note_on_c, 0, 62, 80
2, 37567, Note_on_c, 0, 62, 0
2, 37571, Note_on_c, 0, 50, 0
2, 37622, Note_on_c, 0, 70, 0
2, 37626, Note_on_c, 0, 50, 80
2, 37630, Note_on_c, 0, 53, 80
2, 37632, Note_on_c, 0, 72, 80
2, 37633, Note_on_c, 0, 62, 80
2, 37633, Note_on_c, 0, 65, 80
2, 37640, Note_on_c, 0, 58, 80
2, 37642, Control_c, 0, 64, 127
2, 37682, Note_on_c, 0, 72, 0
2, 37684, Note_on_c, 0, 65, 0
2, 37688, Note_on_c, 0, 53, 0
2, 37695, Note_on_c, 0, 62, 0
2, 37699, Note_on_c, 0, 58, 0
2, 37699, Note_on_c, 0, 50, 0
2, 37718, Note_on_c, 0, 72, 80
2, 37720, Note_on_c, 0, 65, 80
2, 37727, Note_on_c, 0, 74, 80
2, 37754, Control_c, 0, 64, 0
2, 37772, Note_on_c, 0, 72, 0
2, 37784, Note_on_c, 0, 65, 0
2, 37784, Note_on_c, 0, 55, 80
2, 37786, Note_on_c, 0, 74, 0
2, 37788, Note_on_c, 0, 48, 80
2, 37788, Note_on_c, 0, 63, 80
2, 37792, Note_on_c, 0, 72, 80
2, 37794, Note_on_c, 0, 60, 80
2, 37796, Note_on_c, 0, 69, 80
2, 37796, Note_on_c, 0, 75, 80
2, 37845, Note_on_c, 0, 48, 0
2, 37851, Note_on_c, 0, 55, 0
2, 37871, Note_on_c, 0, 72, 0
2, 37871, Note_on_c, 0, 60, 0
2, 37871, Note_on_c, 0, 75, 0
2, 37874, Note_on_c, 0, 69, 0
2, 37874, Note_on_c, 0, 63, 0
2, 37894, Note_on_c, 0, 65, 80
2, 37902, Note_on_c, 0, 77, 80
2, 37938, Note_on_c, 0, 77, 0
2, 37940, Note_on_c, 0, 53, 80
2, 37940, Note_on_c, 0, 57, 80
2, 37940, Note_on_c, 0, 63, 80
2, 37944, Note_on_c, 0, 60, 80
2, 37944, Note_on_c, 0, 67, 80
2, 37944, Note_on_c, 0, 79, 80
2, 37952, Note_on_c, 0, 65, 0
2, 38005, Note_on_c, 0, 79, 0
2, 38016, Note_on_c, 0, 53, 0
2, 38017, Note_on_c, 0, 67, 0
2, 38019, Note_on_c, 0, 63, 0
2, 38019, Note_on_c, 0, 60, 0
2, 38026, Note_on_c, 0, 57, 0
2, 38043, Note_on_c, 0, 70, 80
2, 38047, Note_on_c, 0, 77, 80
2, 38047, Note_on_c, 0, 80, 80
2, 38049, Note_on_c, 0, 74, 80
2, 38051, Note_on_c, 0, 82, 80
2, 38083, Note_on_c, 0, 53, 80
2, 38091, Note_on_c, 0, 62, 80
2, 38095, Note_on_c, 0, 58, 80
2, 38144, Note_on_c, 0, 80, 0
2, 38146, Note_on_c, 0, 62, 0
2, 38148, Note_on_c, 0, 53, 0
2, 38148, Note_on_c, 0, 74, 0
2, 38148, Note_on_c, 0, 70, 0
2, 38148, Note_on_c, 0, 77, 0
2, 38152, Note_on_c, 0, 58, 0
2, 38152, Note_on_c, 0, 82, 0
2, 38185, Note_on_c, 0, 41, 80
2, 38232, Note_on_c, 0, 53, 80
2, 38232, Note_on_c, 0, 74, 80
2, 38235, Note_on_c, 0, 65, 80
2, 38242, Note_on_c, 0, 41, 0
2, 38244, Note_on_c, 0, 77, 80
2, 38246, Control_c, 0, 64, 127
2, 38299, Note_on_c, 0, 77, 0
2, 38301, Note_on_c, 0, 65, 0
2, 38301, Note_on_c, 0, 74, 0
2, 38334, Note_on_c, 0, 43, 80
2, 38341, Note_on_c, 0, 65, 80
2, 38341, Note_on_c, 0, 74, 80
2, 38343, Note_on_c, 0, 53, 0
2, 38343, Control_c, 0, 64, 0
2, 38343, Note_on_c, 0, 77, 80
2, 38383, Note_on_c, 0, 55, 80
2, 38390, Note_on_c, 0, 43, 0
2, 38434, Note_on_c, 0, 77, 0
2, 38434, Note_on_c, 0, 74, 0
2, 38434, Note_on_c, 0, 65, 0
2, 38483, Note_on_c, 0, 45, 80
2, 38487, Note_on_c, 0, 65, 80
2, 38496, Note_on_c, 0, 77, 80
2, 38499, Note_on_c, 0, 55, 0
2, 38540, Note_on_c, 0, 57, 80
2, 38540, Note_on_c, 0, 67, 80
2, 38540, Note_on_c, 0, 74, 80
2, 38540, Note_on_c, 0, 79, 80
2, 38544, Note_on_c, 0, 45, 0
2, 38547, Note_on_c, 0, 77, 0
2, 38551, Note_on_c, 0, 65, 0
2, 38615, Note_on_c, 0, 79, 0
2, 38615, Note_on_c, 0, 74, 0
2, 38616, Note_on_c, 0, 67, 0
2, 38655, Note_on_c, 0, 57, 0
2, 38685, Note_on_c, 0, 34, 80
2, 38685, Note_on_c, 0, 46, 80
2, 38695, Note_on_c, 0, 68, 80
2, 38695, Note_on_c, 0, 74, 80
2, 38695, Note_on_c, 0, 80, 80
2, 38699, Note_on_c, 0, 77, 80
2, 38706, Note_on_c, 0, 34, 0
2, 38716, Note_on_c, 0, 80, 0
2, 38718, Note_on_c, 0, 68, 0
2, 38731, Control_c, 0, 64, 127
2, 38743, Note_on_c, 0, 46, 0
2, 38747, Note_on_c, 0, 34, 80
2, 38749, Note_on_c, 0, 74, 0
2, 38753, Note_on_c, 0, 77, 0
2, 38760, Note_on_c, 0, 68, 80
2, 38760, Note_on_c, 0, 80, 80
2, 38772, Note_on_c, 0, 34, 0
2, 38779, Note_on_c, 0, 46, 80
2, 38781, Note_on_c, 0, 80, 0
2, 38787, Note_on_c, 0, 68, 0
2, 38787, Note_on_c, 0, 74, 80
2, 38791, Note_on_c, 0, 77, 80
2, 38812, Note_on_c, 0, 74, 0
2, 38812, Note_on_c, 0, 46, 0
2, 38816, Note_on_c, 0, 34, 80
2, 38818, Note_on_c, 0, 77, 0
2, 38822, Note_on_c, 0, 68, 80
2, 38826, Note_on_c, 0, 80, 80
2, 38836, Note_on_c, 0, 34, 0
2, 38847, Note_on_c, 0, 80, 0
2, 38849, Note_on_c, 0, 68, 0
2, 38849, Note_on_c, 0, 46, 80
2, 38849, Note_on_c, 0, 74, 80
2, 38857, Note_on_c, 0, 77, 80
2, 38875, Note_on_c, 0, 46, 0
2, 38879, Note_on_c, 0, 77, 0
2, 38879, Note_on_c, 0, 74, 0
2, 38882, Note_on_c, 0, 34, 80
2, 38889, Note_on_c, 0, 68, 80
2, 38893, Control_c, 0, 64, 0
2, 38897, Note_on_c, 0, 80, 80
2, 38907, Note_on_c, 0, 34, 0
2, 38916, Note_on_c, 0, 80, 0
2, 38916, Note_on_c, 0, 46, 80
2, 38920, Note_on_c, 0, 68, 0
2, 38920, Note_on_c, 0, 74, 80
2, 38927, Note_on_c, 0, 77, 80
2, 38944, Note_on_c, 0, 46, 0
2, 38948, Note_on_c, 0, 34, 80
2, 38952, Note_on_c, 0, 77, 0
2, 38952, Note_on_c, 0, 74, 0
2, 38958, Note_on_c, 0, 68, 80
2, 38960, Note_on_c, 0, 80, 80
2, 38977, Note_on_c, 0, 34, 0
2, 38984, Note_on_c, 0, 80, 0
2, 38988, Note_on_c, 0, 68, 0
2, 38988, Note_on_c, 0, 46, 80
2, 38992, Note_on_c, 0, 74, 80
2, 38994, Note_on_c, 0, 77, 80
2, 39013, Note_on_c, 0, 46, 0
2, 39013, Note_on_c, 0, 34, 80
2, 39015, Note_on_c, 0, 74, 0
2, 39017, Note_on_c, 0, 77, 0
2, 39029, Note_on_c, 0, 68, 80
2, 39029, Note_on_c, 0, 80, 80
2, 39040, Note_on_c, 0, 34, 0
2, 39054, Note_on_c, 0, 68, 0
2, 39054, Note_on_c, 0, 46, 80
2, 39056, Note_on_c, 0, 80, 0
2, 39060, Note_on_c, 0, 74, 80
2, 39062, Note_on_c, 0, 77, 80
2, 39079, Note_on_c, 0, 46, 0
2, 39088, Note_on_c, 0, 74, 0
2, 39088, Note_on_c, 0, 34, 80
2, 39092, Note_on_c, 0, 77, 0
2, 39098, Note_on_c, 0, 68, 80
2, 39098, Note_on_c, 0, 80, 80
2, 39109, Note_on_c, 0, 34, 0
2, 39118, Note_on_c, 0, 46, 80
2, 39120, Note_on_c, 0, 80, 0
2, 39121, Note_on_c, 0, 74, 80
2, 39125, Note_on_c, 0, 68, 0
2, 39129, Note_on_c, 0, 77, 80
2, 39146, Note_on_c, 0, 77, 0
2, 39150, Note_on_c, 0, 46, 0
2, 39150, Note_on_c, 0, 34, 80
2, 39152, Note_on_c, 0, 74, 0
2, 39156, Note_on_c, 0, 68, 80
2, 39160, Note_on_c, 0, 80, 80
2, 39172, Note_on_c, 0, 34, 0
2, 39179, Note_on_c, 0, 80, 0
2, 39181, Note_on_c, 0, 46, 80
2, 39185, Note_on_c, 0, 68, 0
2, 39187, Note_on_c, 0, 74, 80
2, 39191, Note_on_c, 0, 77, 80
2, 39203, Note_on_c, 0, 46, 0
2, 39212, Note_on_c, 0, 34, 80
2, 39222, Note_on_c, 0, 68, 80
2, 39222, Note_on_c, 0, 80, 80
2, 39231, Note_on_c, 0, 77, 0
2, 39235, Note_on_c, 0, 34, 0
2, 39243, Note_on_c, 0, 74, 0
2, 39250, Note_on_c, 0, 46, 80
2, 39282, Note_on_c, 0, 80, 0
2, 39284, Note_on_c, 0, 34, 80
2, 39288, Note_on_c, 0, 68, 0
2, 39288, Note_on_c, 0, 74, 80
2, 39289, Note_on_c, 0, 65, 80
2, 39293, Note_on_c, 0, 70, 80
2, 39293, Note_on_c, 0, 77, 80
2, 39311, Control_c, 0, 64, 127
2, 39336, Note_on_c, 0, 34, 0
2, 39339, Note_on_c, 0, 46, 0
2, 39346, Note_on_c, 0, 65, 0
2, 39346, Note_on_c, 0, 74, 0
2, 39348, Note_on_c, 0, 77, 0
2, 39352, Note_on_c, 0, 70, 0
2, 39362, Note_on_c, 0, 79, 80
2, 39434, Note_on_c, 0, 79, 0
2, 39445, Control_c, 0, 64, 0
2, 39445, Note_on_c, 0, 77, 80
2, 39485, Note_on_c, 0, 77, 0
2, 39492, Note_on_c, 0, 79, 80
2, 39530, Note_on_c, 0, 79, 0
2, 39548, Note_on_c, 0, 77, 80
2, 39599, Note_on_c, 0, 74, 80
2, 39602, Note_on_c, 0, 77, 0
2, 39653, Note_on_c, 0, 77, 80
2, 39664, Note_on_c, 0, 74, 0
2, 39696, Note_on_c, 0, 77, 0
2, 39702, Note_on_c, 0, 74, 80
2, 39748, Note_on_c, 0, 74, 0
2, 39755, Note_on_c, 0, 77, 80
2, 39808, Note_on_c, 0, 74, 80
2, 39815, Note_on_c, 0, 77, 0
2, 39848, Note_on_c, 0, 74, 0
2, 39863, Note_on_c, 0, 75, 80
2, 39863, Note_on_c, 0, 78, 80
2, 39884, Note_on_c, 0, 75, 0
2, 39890, Note_on_c, 0, 78, 0
2, 39897, Control_c, 0, 64, 127
2, 39897, Note_on_c, 0, 34, 80
2, 39897, Note_on_c, 0, 46, 80
2, 39906, Note_on_c, 0, 80, 80
2, 39910, Note_on_c, 0, 68, 80
2, 39910, Note_on_c, 0, 74, 80
2, 39913, Note_on_c, 0, 77, 80
2, 39922, Note_on_c, 0, 34, 0
2, 39931, Note_on_c, 0, 80, 0
2, 39933, Note_on_c, 0, 68, 0
2, 39964, Note_on_c, 0, 46, 0
2, 39964, Note_on_c, 0, 77, 0
2, 39964, Note_on_c, 0, 34, 80
2, 39968, Note_on_c, 0, 74, 0
2, 39977, Note_on_c, 0, 68, 80
2, 39977, Note_on_c, 0, 80, 80
2, 39989, Note_on_c, 0, 34, 0
2, 39998, Note_on_c, 0, 80, 0
2, 39998, Note_on_c, 0, 74, 80
2, 40002, Note_on_c, 0, 68, 0
2, 40002, Note_on_c, 0, 46, 80
2, 40008, Note_on_c, 0, 77, 80
2, 40026, Control_c, 0, 64, 0
2, 40028, Note_on_c, 0, 46, 0
2, 40028, Note_on_c, 0, 74, 0
2, 40030, Note_on_c, 0, 34, 80
2, 40033, Note_on_c, 0, 77, 0
2, 40042, Note_on_c, 0, 68, 80
2, 40042, Note_on_c, 0, 80, 80
2, 40053, Note_on_c, 0, 34, 0
2, 40063, Note_on_c, 0, 80, 0
2, 40070, Note_on_c, 0, 68, 0
2, 40070, Note_on_c, 0, 46, 80
2, 40070, Note_on_c, 0, 74, 80
2, 40079, Note_on_c, 0, 77, 80
2, 40098, Note_on_c, 0, 74, 0
2, 40098, Note_on_c, 0, 46, 0
2, 40100, Note_on_c, 0, 34, 80
2, 40102, Note_on_c, 0, 77, 0
2, 40104, Note_on_c, 0, 68, 80
2, 40107, Note_on_c, 0, 80, 80
2, 40122, Note_on_c, 0, 34, 0
2, 40130, Note_on_c, 0, 80, 0
2, 40130, Note_on_c, 0, 46, 80
2, 40132, Note_on_c, 0, 74, 80
2, 40136, Note_on_c, 0, 68, 0
2, 40138, Note_on_c, 0, 77, 80
2, 40159, Note_on_c, 0, 46, 0
2, 40161, Note_on_c, 0, 74, 0
2, 40163, Note_on_c, 0, 77, 0
2, 40167, Note_on_c, 0, 34, 80
2, 40176, Note_on_c, 0, 68, 80
2, 40176, Note_on_c, 0, 80, 80
2, 40188, Note_on_c, 0, 34, 0
2, 40199, Note_on_c, 0, 80, 0
2, 40202, Note_on_c, 0, 68, 0
2, 40206, Note_on_c, 0, 46, 80
2, 40206, Note_on_c, 0, 74, 80
2, 40213, Note_on_c, 0, 77, 80
2, 40232, Note_on_c, 0, 46, 0
2, 40232, Note_on_c, 0, 34, 80
2, 40234, Note_on_c, 0, 74, 0
2, 40236, Note_on_c, 0, 77, 0
2, 40247, Note_on_c, 0, 68, 80
2, 40247, Note_on_c, 0, 80, 80
2, 40261, Note_on_c, 0, 34, 0
2, 40270, Note_on_c, 0, 46, 80
2, 40272, Note_on_c, 0, 80, 0
2, 40273, Note_on_c, 0, 68, 0
2, 40277, Note_on_c, 0, 74, 80
2, 40286, Note_on_c, 0, 77, 80
2, 40298, Note_on_c, 0, 46, 0
2, 40302, Note_on_c, 0, 34, 80
2, 40304, Note_on_c, 0, 74, 0
2, 40306, Note_on_c, 0, 77, 0
2, 40315, Note_on_c, 0, 68, 80
2, 40315, Note_on_c, 0, 80, 80
2, 40323, Note_on_c, 0, 34, 0
2, 40334, Note_on_c, 0, 80, 0
2, 40338, Note_on_c, 0, 68, 0
2, 40340, Note_on_c, 0, 46, 80
2, 40344, Note_on_c, 0, 74, 80
2, 40347, Note_on_c, 0, 77, 80
2, 40367, Note_on_c, 0, 46, 0
2, 40370, Note_on_c, 0, 77, 0
2, 40370, Note_on_c, 0, 74, 0
2, 40370, Note_on_c, 0, 34, 80
2, 40381, Note_on_c, 0, 68, 80
2, 40381, Note_on_c, 0, 80, 80
2, 40388, Note_on_c, 0, 34, 0
2, 40400, Note_on_c, 0, 80, 0
2, 40402, Note_on_c, 0, 68, 0
2, 40404, Note_on_c, 0, 74, 80
2, 40408, Note_on_c, 0, 46, 80
2, 40412, Note_on_c, 0, 77, 80
2, 40426, Note_on_c, 0, 46, 0
2, 40428, Note_on_c, 0, 34, 80
2, 40440, Note_on_c, 0, 68, 80
2, 40444, Note_on_c, 0, 80, 80
2, 40446, Note_on_c, 0, 74, 0
2, 40448, Note_on_c, 0, 77, 0
2, 40455, Note_on_c, 0, 34, 0
2, 40464, Note_on_c, 0, 46, 80
2, 40487, Note_on_c, 0, 68, 0
2, 40495, Note_on_c, 0, 80, 0
2, 40495, Note_on_c, 0, 34, 80
2, 40502, Note_on_c, 0, 65, 80
2, 40506, Note_on_c, 0, 77, 80
2, 40508, Note_on_c, 0, 74, 80
2, 40508, Control_c, 0, 64, 127
2, 40554, Note_on_c, 0, 34, 0
2, 40556, Note_on_c, 0, 46, 0
2, 40560, Note_on_c, 0, 74, 0
2, 40560, Note_on_c, 0, 65, 0
2, 40566, Note_on_c, 0, 77, 0
2, 40645, Control_c, 0, 64, 0
2, 40654, Note_on_c, 0, 73, 80
2, 40656, Note_on_c, 0, 85, 80
2, 40759, Note_on_c, 0, 85, 0
2, 40759, Note_on_c, 0, 73, 0
2, 40801, Note_on_c, 0, 73, 80
2, 40810, Note_on_c, 0, 85, 80
2, 40814, Note_on_c, 0, 84, 80
2, 40854, Note_on_c, 0, 84, 0
2, 40879, Note_on_c, 0, 85, 0
2, 40881, Note_on_c, 0, 73, 0
2, 40962, Note_on_c, 0, 73, 80
2, 40966, Note_on_c, 0, 84, 80
2, 40966, Note_on_c, 0, 85, 80
2, 41006, Note_on_c, 0, 84, 0
2, 41038, Note_on_c, 0, 85, 0
2, 41038, Note_on_c, 0, 73, 0
2, 41061, Note_on_c, 0, 39, 80
2, 41099, Control_c, 0, 64, 127
2, 41106, Note_on_c, 0, 46, 80
2, 41106, Note_on_c, 0, 55, 80
2, 41110, Note_on_c, 0, 73, 80
2, 41110, Note_on_c, 0, 85, 80
2, 41120, Note_on_c, 0, 84, 80
2, 41145, Note_on_c, 0, 73, 0
2, 41145, Note_on_c, 0, 46, 0
2, 41145, Note_on_c, 0, 39, 0
2, 41152, Note_on_c, 0, 84, 0
2, 41154, Note_on_c, 0, 85, 0
2, 41164, Note_on_c, 0, 55, 0
2, 41213, Note_on_c, 0, 73, 80
2, 41217, Note_on_c, 0, 85, 80
2, 41236, Control_c, 0, 64, 0
2, 41272, Note_on_c, 0, 55, 80
2, 41272, Note_on_c, 0, 72, 80
2, 41276, Note_on_c, 0, 63, 80
2, 41278, Note_on_c, 0, 79, 80
2, 41280, Note_on_c, 0, 58, 80
2, 41280, Note_on_c, 0, 67, 80
2, 41281, Note_on_c, 0, 84, 80
2, 41283, Note_on_c, 0, 85, 0
2, 41283, Note_on_c, 0, 73, 0
2, 41311, Note_on_c, 0, 58, 0
2, 41315, Note_on_c, 0, 67, 0
2, 41315, Note_on_c, 0, 72, 0
2, 41315, Note_on_c, 0, 79, 0
2, 41317, Note_on_c, 0, 55, 0
2, 41317, Note_on_c, 0, 63, 0
2, 41319, Note_on_c, 0, 84, 0
2, 41349, Note_on_c, 0, 73, 80
2, 41357, Note_on_c, 0, 79, 80
2, 41357, Note_on_c, 0, 82, 80
2, 41357, Note_on_c, 0, 85, 80
2, 41387, Note_on_c, 0, 73, 0
2, 41396, Note_on_c, 0, 79, 0
2, 41396, Note_on_c, 0, 82, 0
2, 41396, Note_on_c, 0, 85, 0
2, 41410, Note_on_c, 0, 34, 80
2, 41417, Note_on_c, 0, 72, 80
2, 41417, Note_on_c, 0, 79, 80
2, 41429, Note_on_c, 0, 82, 80
2, 41429, Note_on_c, 0, 84, 80
2, 41472, Note_on_c, 0, 34, 0
2, 41478, Note_on_c, 0, 72, 0
2, 41478, Note_on_c, 0, 79, 0
2, 41485, Note_on_c, 0, 82, 0
2, 41487, Note_on_c, 0, 84, 0
2, 41510, Note_on_c, 0, 70, 80
2, 41512, Note_on_c, 0, 82, 80
2, 41547, Note_on_c, 0, 82, 0
2, 41547, Note_on_c, 0, 70, 0
2, 41562, Note_on_c, 0, 55, 80
2, 41562, Note_on_c, 0, 63, 80
2, 41564, Note_on_c, 0, 58, 80
2, 41568, Note_on_c, 0, 66, 80
2, 41571, Note_on_c, 0, 78, 80
2, 41575, Note_on_c, 0, 75, 80
2, 41607, Note_on_c, 0, 58, 0
2, 41609, Note_on_c, 0, 75, 0
2, 41611, Note_on_c, 0, 66, 0
2, 41615, Note_on_c, 0, 55, 0
2, 41615, Note_on_c, 0, 63, 0
2, 41623, Note_on_c, 0, 78, 0
2, 41651, Note_on_c, 0, 67, 80
2, 41651, Note_on_c, 0, 79, 80
2, 41655, Note_on_c, 0, 75, 80
2, 41665, Note_on_c, 0, 39, 80
2, 41712, Note_on_c, 0, 55, 80
2, 41724, Control_c, 0, 64, 127
2, 41736, Note_on_c, 0, 39, 0
2, 41743, Note_on_c, 0, 75, 0
2, 41743, Note_on_c, 0, 67, 0
2, 41743, Note_on_c, 0, 79, 0
2, 41787, Note_on_c, 0, 55, 0
2, 41800, Note_on_c, 0, 79, 80
2, 41804, Note_on_c, 0, 73, 80
2, 41808, Note_on_c, 0, 82, 80
2, 41808, Note_on_c, 0, 85, 80
2, 41865, Control_c, 0, 64, 0
2, 41869, Note_on_c, 0, 55, 80
2, 41873, Note_on_c, 0, 63, 80
2, 41875, Note_on_c, 0, 67, 80
2, 41879, Note_on_c, 0, 58, 80
2, 41908, Note_on_c, 0, 63, 0
2, 41908, Note_on_c, 0, 73, 0
2, 41912, Note_on_c, 0, 58, 0
2, 41914, Note_on_c, 0, 85, 0
2, 41914, Note_on_c, 0, 67, 0
2, 41916, Note_on_c, 0, 79, 0
2, 41916, Note_on_c, 0, 82, 0
2, 41918, Note_on_c, 0, 55, 0
2, 41950, Note_on_c, 0, 70, 80
2, 41950, Note_on_c, 0, 79, 80
2, 41958, Note_on_c, 0, 40, 80
2, 41958, Note_on_c, 0, 82, 80
2, 41992, Note_on_c, 0, 82, 0
2, 41992, Note_on_c, 0, 79, 0
2, 42015, Note_on_c, 0, 70, 0
2, 42019, Note_on_c, 0, 40, 0
2, 42019, Note_on_c, 0, 52, 80
2, 42019, Note_on_c, 0, 72, 80
2, 42031, Note_on_c, 0, 84, 80
2, 42070, Note_on_c, 0, 84, 0
2, 42070, Note_on_c, 0, 72, 0
2, 42093, Note_on_c, 0, 52, 0
2, 42110, Note_on_c, 0, 70, 80
2, 42119, Note_on_c, 0, 82, 80
2, 42171, Note_on_c, 0, 70, 0
2, 42173, Note_on_c, 0, 61, 80
2, 42175, Note_on_c, 0, 82, 0
2, 42177, Note_on_c, 0, 64, 80
2, 42177, Note_on_c, 0, 67, 80
2, 42181, Note_on_c, 0, 52, 80
2, 42181, Note_on_c, 0, 58, 80
2, 42181, Note_on_c, 0, 79, 80
2, 42213, Note_on_c, 0, 52, 0
2, 42215, Note_on_c, 0, 64, 0
2, 42218, Note_on_c, 0, 61, 0
2, 42220, Note_on_c, 0, 67, 0
2, 42220, Note_on_c, 0, 79, 0
2, 42238, Note_on_c, 0, 58, 0
2, 42244, Note_on_c, 0, 65, 80
2, 42248, Note_on_c, 0, 74, 80
2, 42252, Note_on_c, 0, 77, 80
2, 42256, Note_on_c, 0, 41, 80
2, 42302, Note_on_c, 0, 53, 80
2, 42312, Control_c, 0, 64, 127
2, 42327, Note_on_c, 0, 65, 0
2, 42331, Note_on_c, 0, 74, 0
2, 42331, Note_on_c, 0, 77, 0
2, 42356, Note_on_c, 0, 41, 0
2, 42377, Note_on_c, 0, 53, 0
2, 42384, Note_on_c, 0, 65, 80
2, 42390, Note_on_c, 0, 74, 80
2, 42392, Note_on_c, 0, 77, 80
2, 42447, Note_on_c, 0, 91, 80
2, 42451, Control_c, 0, 64, 0
2, 42455, Note_on_c, 0, 79, 80
2, 42456, Note_on_c, 0, 89, 80
2, 42460, Note_on_c, 0, 74, 0
2, 42460, Note_on_c, 0, 65, 0
2, 42460, Note_on_c, 0, 86, 80
2, 42462, Note_on_c, 0, 77, 0
2, 42464, Note_on_c, 0, 82, 80
2, 42596, Note_on_c, 0, 55, 80
2, 42604, Note_on_c, 0, 52, 80
2, 42604, Note_on_c, 0, 61, 80
2, 42608, Note_on_c, 0, 58, 80
2, 42610, Note_on_c, 0, 89, 0
2, 42610, Note_on_c, 0, 91, 0
2, 42612, Note_on_c, 0, 86, 0
2, 42612, Note_on_c, 0, 82, 0
2, 42616, Note_on_c, 0, 79, 0
2, 42639, Note_on_c, 0, 67, 80
2, 42658, Note_on_c, 0, 70, 80
2, 42675, Note_on_c, 0, 73, 80
2, 42690, Note_on_c, 0, 76, 80
2, 42700, Note_on_c, 0, 67, 0
2, 42707, Note_on_c, 0, 79, 80
2, 42718, Note_on_c, 0, 73, 0
2, 42724, Note_on_c, 0, 70, 0
2, 42737, Note_on_c, 0, 76, 0
2, 42737, Note_on_c, 0, 82, 80
2, 42754, Note_on_c, 0, 79, 0
2, 42765, Note_on_c, 0, 88, 80
2, 42773, Note_on_c, 0, 82, 0
2, 42816, Note_on_c, 0, 61, 0
2, 42817, Note_on_c, 0, 52, 0
2, 42824, Note_on_c, 0, 55, 0
2, 42826, Note_on_c, 0, 58, 0
2, 42866, Note_on_c, 0, 88, 0
2, 42905, Control_c, 0, 64, 127
2, 42907, Note_on_c, 0, 60, 80
2, 42917, Note_on_c, 0, 51, 80
2, 42942, Note_on_c, 0, 65, 80
2, 42963, Note_on_c, 0, 69, 80
2, 42974, Note_on_c, 0, 72, 80
2, 43002, Note_on_c, 0, 77, 80
2, 43004, Note_on_c, 0, 65, 0
2, 43021, Note_on_c, 0, 81, 80
2, 43023, Note_on_c, 0, 72, 0
2, 43023, Note_on_c, 0, 69, 0
2, 43032, Note_on_c, 0, 89, 80
2, 43033, Control_c, 0, 64, 0
2, 43035, Note_on_c, 0, 77, 0
2, 43060, Note_on_c, 0, 81, 0
2, 43062, Note_on_c, 0, 93, 80
2, 43071, Note_on_c, 0, 89, 0
2, 43090, Note_on_c, 0, 60, 0
2, 43092, Note_on_c, 0, 51, 0
2, 43147, Note_on_c, 0, 43, 80
2, 43151, Note_on_c, 0, 93, 0
2, 43165, Note_on_c, 0, 50, 80
2, 43200, Note_on_c, 0, 59, 80
2, 43232, Note_on_c, 0, 65, 80
2, 43255, Note_on_c, 0, 71, 80
2, 43262, Note_on_c, 0, 43, 0
2, 43262, Note_on_c, 0, 74, 80
2, 43266, Note_on_c, 0, 59, 0
2, 43268, Note_on_c, 0, 65, 0
2, 43270, Note_on_c, 0, 50, 0
2, 43289, Note_on_c, 0, 71, 0
2, 43289, Note_on_c, 0, 77, 80
2, 43308, Note_on_c, 0, 83, 80
2, 43310, Note_on_c, 0, 74, 0
2, 43322, Note_on_c, 0, 86, 80
2, 43329, Note_on_c, 0, 77, 0
2, 43354, Note_on_c, 0, 91, 80
2, 43368, Note_on_c, 0, 86, 0
2, 43368, Note_on_c, 0, 83, 0
2, 43434, Note_on_c, 0, 91, 0
2, 43434, Note_on_c, 0, 36, 80
2, 43483, Note_on_c, 0, 43, 80
2, 43487, Control_c, 0, 64, 127
2, 43495, Note_on_c, 0, 52, 80
2, 43499, Note_on_c, 0, 84, 80
2, 43524, Note_on_c, 0, 36, 0
2, 43526, Note_on_c, 0, 43, 0
2, 43536, Note_on_c, 0, 52, 0
2, 43536, Note_on_c, 0, 82, 80
2, 43556, Note_on_c, 0, 79, 80
2, 43573, Note_on_c, 0, 82, 0
2, 43573, Note_on_c, 0, 84, 0
2, 43575, Note_on_c, 0, 80, 80
2, 43585, Note_on_c, 0, 79, 0
2, 43596, Note_on_c, 0, 80, 0
2, 43600, Note_on_c, 0, 81, 80
2, 43610, Control_c, 0, 64, 0
2, 43614, Note_on_c, 0, 82, 80
2, 43621, Note_on_c, 0, 81, 0
2, 43630, Note_on_c, 0, 55, 80
2, 43632, Note_on_c, 0, 83, 80
2, 43635, Note_on_c, 0, 60, 80
2, 43637, Note_on_c, 0, 82, 0
2, 43639, Note_on_c, 0, 64, 80
2, 43646, Note_on_c, 0, 58, 80
2, 43650, Note_on_c, 0, 84, 80
2, 43658, Note_on_c, 0, 83, 0
2, 43683, Note_on_c, 0, 58, 0
2, 43683, Note_on_c, 0, 64, 0
2, 43685, Note_on_c, 0, 60, 0
2, 43685, Note_on_c, 0, 55, 0
2, 43703, Note_on_c, 0, 84, 0
2, 43741, Note_on_c, 0, 79, 80
2, 43745, Note_on_c, 0, 73, 80
2, 43749, Note_on_c, 0, 82, 80
2, 43749, Note_on_c, 0, 85, 80
2, 43774, Note_on_c, 0, 82, 0
2, 43786, Note_on_c, 0, 31, 80
2, 43788, Note_on_c, 0, 43, 80
2, 43795, Note_on_c, 0, 82, 80
2, 43797, Note_on_c, 0, 74, 80
2, 43799, Note_on_c, 0, 86, 80
2, 43800, Note_on_c, 0, 85, 0
2, 43800, Note_on_c, 0, 73, 0
2, 43820, Note_on_c, 0, 43, 0
2, 43820, Note_on_c, 0, 31, 0
2, 43848, Note_on_c, 0, 74, 0
2, 43849, Note_on_c, 0, 86, 0
2, 43849, Note_on_c, 0, 79, 0
2, 43849, Note_on_c, 0, 82, 0
2, 43883, Note_on_c, 0, 72, 80
2, 43887, Note_on_c, 0, 80, 80
2, 43891, Note_on_c, 0, 84, 80
2, 43922, Note_on_c, 0, 80, 0
2, 43931, Note_on_c, 0, 55, 80
2, 43933, Note_on_c, 0, 84, 0
2, 43937, Note_on_c, 0, 64, 80
2, 43937, Note_on_c, 0, 76, 80
2, 43939, Note_on_c, 0, 82, 80
2, 43941, Note_on_c, 0, 58, 80
2, 43941, Note_on_c, 0, 60, 80
2, 43943, Note_on_c, 0, 70, 80
2, 43944, Note_on_c, 0, 72, 0
2, 43976, Note_on_c, 0, 55, 0
2, 43976, Note_on_c, 0, 64, 0
2, 43978, Note_on_c, 0, 58, 0
2, 43980, Note_on_c, 0, 60, 0
2, 44010, Note_on_c, 0, 57, 80
2, 44012, Note_on_c, 0, 76, 0
2, 44012, Note_on_c, 0, 82, 0
2, 44014, Note_on_c, 0, 70, 0
2, 44033, Note_on_c, 0, 67, 80
2, 44037, Note_on_c, 0, 58, 80
2, 44037, Note_on_c, 0, 75, 80
2, 44037, Note_on_c, 0, 79, 80
2, 44047, Note_on_c, 0, 59, 80
2, 44060, Note_on_c, 0, 75, 0
2, 44077, Note_on_c, 0, 79, 0
2, 44077, Note_on_c, 0, 58, 0
2, 44077, Note_on_c, 0, 67, 0
2, 44081, Note_on_c, 0, 60, 80
2, 44089, Note_on_c, 0, 70, 80
2, 44089, Note_on_c, 0, 75, 80
2, 44093, Control_c, 0, 64, 127
2, 44093, Note_on_c, 0, 82, 80
2, 44095, Note_on_c, 0, 57, 0
2, 44118, Note_on_c, 0, 59, 0
2, 44141, Note_on_c, 0, 82, 0
2, 44145, Note_on_c, 0, 70, 0
2, 44145, Note_on_c, 0, 75, 0
2, 44170, Note_on_c, 0, 60, 0
2, 44170, Note_on_c, 0, 66, 80
2, 44174, Note_on_c, 0, 78, 80
2, 44178, Note_on_c, 0, 75, 80
2, 44182, Control_c, 0, 64, 0
2, 44217, Note_on_c, 0, 53, 80
2, 44217, Note_on_c, 0, 57, 80
2, 44217, Note_on_c, 0, 63, 80
2, 44219, Note_on_c, 0, 75, 0
2, 44221, Note_on_c, 0, 79, 80
2, 44223, Note_on_c, 0, 78, 0
2, 44225, Note_on_c, 0, 66, 0
2, 44225, Note_on_c, 0, 60, 80
2, 44225, Note_on_c, 0, 67, 80
2, 44271, Note_on_c, 0, 53, 0
2, 44281, Note_on_c, 0, 60, 0
2, 44281, Note_on_c, 0, 79, 0
2, 44283, Note_on_c, 0, 67, 0
2, 44283, Note_on_c, 0, 63, 0
2, 44287, Note_on_c, 0, 57, 0
2, 44319, Note_on_c, 0, 72, 80
2, 44323, Note_on_c, 0, 65, 80
2, 44327, Note_on_c, 0, 69, 80
2, 44327, Note_on_c, 0, 75, 80
2, 44328, Note_on_c, 0, 77, 80
2, 44371, Note_on_c, 0, 41, 80
2, 44406, Note_on_c, 0, 41, 0
2, 44415, Note_on_c, 0, 77, 0
2, 44417, Note_on_c, 0, 65, 0
2, 44419, Note_on_c, 0, 72, 0
2, 44419, Note_on_c, 0, 75, 0
2, 44454, Note_on_c, 0, 73, 80
2, 44456, Note_on_c, 0, 65, 80
2, 44492, Note_on_c, 0, 65, 0
2, 44527, Note_on_c, 0, 73, 0
2, 44534, Note_on_c, 0, 74, 80
2, 44538, Note_on_c, 0, 53, 80
2, 44538, Note_on_c, 0, 57, 80
2, 44538, Note_on_c, 0, 63, 80
2, 44538, Note_on_c, 0, 65, 80
2, 44540, Note_on_c, 0, 60, 80
2, 44559, Note_on_c, 0, 69, 0
2, 44612, Note_on_c, 0, 53, 0
2, 44618, Note_on_c, 0, 74, 0
2, 44620, Note_on_c, 0, 63, 0
2, 44620, Note_on_c, 0, 65, 0
2, 44624, Note_on_c, 0, 57, 0
2, 44624, Note_on_c, 0, 60, 0
2, 44647, Note_on_c, 0, 70, 80
2, 44662, Note_on_c, 0, 72, 80
2, 44674, Note_on_c, 0, 70, 0
2, 44693, Note_on_c, 0, 53, 80
2, 44697, Note_on_c, 0, 58, 80
2, 44697, Note_on_c, 0, 62, 80
2, 44697, Note_on_c, 0, 70, 80
2, 44708, Note_on_c, 0, 72, 0
2, 44708, Control_c, 0, 64, 127
2, 44762, Note_on_c, 0, 53, 0
2, 44769, Note_on_c, 0, 62, 0
2, 44771, Note_on_c, 0, 58, 0
2, 44790, Note_on_c, 0, 55, 80
2, 44803, Control_c, 0, 64, 0
2, 44811, Note_on_c, 0, 70, 0
2, 44839, Note_on_c, 0, 72, 80
2, 44841, Note_on_c, 0, 61, 80
2, 44845, Note_on_c, 0, 52, 80
2, 44845, Note_on_c, 0, 64, 80
2, 44849, Note_on_c, 0, 58, 80
2, 44904, Note_on_c, 0, 72, 0
2, 44914, Note_on_c, 0, 52, 0
2, 44918, Note_on_c, 0, 64, 0
2, 44920, Note_on_c, 0, 61, 0
2, 44922, Note_on_c, 0, 55, 0
2, 44922, Note_on_c, 0, 58, 0
2, 44947, Note_on_c, 0, 65, 80
2, 44949, Note_on_c, 0, 72, 80
2, 44968, Note_on_c, 0, 74, 80
2, 44996, Note_on_c, 0, 60, 80
2, 44998, Note_on_c, 0, 51, 80
2, 44998, Note_on_c, 0, 63, 80
2, 44998, Note_on_c, 0, 75, 80
2, 45004, Note_on_c, 0, 69, 80
2, 45008, Note_on_c, 0, 74, 0
2, 45008, Note_on_c, 0, 65, 0
2, 45054, Note_on_c, 0, 72, 0
2, 45058, Note_on_c, 0, 75, 0
2, 45058, Note_on_c, 0, 63, 0
2, 45062, Note_on_c, 0, 69, 0
2, 45062, Note_on_c, 0, 51, 0
2, 45062, Note_on_c, 0, 60, 0
2, 45092, Note_on_c, 0, 65, 80
2, 45100, Note_on_c, 0, 77, 80
2, 45143, Note_on_c, 0, 53, 80
2, 45146, Note_on_c, 0, 63, 80
2, 45150, Note_on_c, 0, 60, 80
2, 45152, Note_on_c, 0, 67, 80
2, 45152, Note_on_c, 0, 79, 80
2, 45156, Note_on_c, 0, 57, 80
2, 45158, Note_on_c, 0, 77, 0
2, 45158, Note_on_c, 0, 65, 0
2, 45242, Note_on_c, 0, 63, 0
2, 45242, Note_on_c, 0, 53, 0
2, 45244, Note_on_c, 0, 60, 0
2, 45246, Note_on_c, 0, 79, 0
2, 45246, Note_on_c, 0, 67, 0
2, 45250, Note_on_c, 0, 57, 0
2, 45257, Note_on_c, 0, 69, 80
2, 45257, Note_on_c, 0, 81, 80
2, 45292, Note_on_c, 0, 81, 0
2, 45292, Control_c, 0, 64, 127
2, 45299, Note_on_c, 0, 53, 80
2, 45303, Note_on_c, 0, 62, 80
2, 45307, Note_on_c, 0, 70, 80
2, 45307, Note_on_c, 0, 74, 80
2, 45311, Note_on_c, 0, 82, 80
2, 45314, Note_on_c, 0, 69, 0
2, 45384, Note_on_c, 0, 53, 0
2, 45393, Note_on_c, 0, 82, 0
2, 45395, Note_on_c, 0, 62, 0
2, 45397, Note_on_c, 0, 74, 0
2, 45399, Note_on_c, 0, 70, 0
2, 45406, Control_c, 0, 64, 0
2, 45455, Note_on_c, 0, 77, 80
2, 45548, Note_on_c, 0, 41, 80
2, 45552, Note_on_c, 0, 65, 80
2, 45598, Note_on_c, 0, 77, 0
2, 45601, Note_on_c, 0, 48, 80
2, 45603, Note_on_c, 0, 57, 80
2, 45631, Note_on_c, 0, 65, 0
2, 45650, Note_on_c, 0, 41, 0
2, 45657, Note_on_c, 0, 48, 0
2, 45668, Note_on_c, 0, 57, 0
2, 45703, Note_on_c, 0, 63, 80
2, 45705, Note_on_c, 0, 53, 80
2, 45707, Note_on_c, 0, 57, 80
2, 45707, Note_on_c, 0, 60, 80
2, 45745, Note_on_c, 0, 53, 0
2, 45749, Note_on_c, 0, 55, 80
2, 45751, Note_on_c, 0, 57, 0
2, 45813, Note_on_c, 0, 63, 0
2, 45815, Note_on_c, 0, 60, 0
2, 45815, Note_on_c, 0, 55, 0
2, 45836, Note_on_c, 0, 41, 80
2, 45855, Note_on_c, 0, 43, 80
2, 45895, Note_on_c, 0, 45, 80
2, 45897, Note_on_c, 0, 41, 0
2, 45906, Note_on_c, 0, 53, 80
2, 45908, Note_on_c, 0, 62, 80
2, 45910, Note_on_c, 0, 46, 80
2, 45918, Note_on_c, 0, 58, 80
2, 45920, Control_c, 0, 64, 127
2, 45927, Note_on_c, 0, 43, 0
2, 45962, Note_on_c, 0, 45, 0
2, 46024, Control_c, 0, 64, 0
2, 46131, Note_on_c, 0, 53, 0
2, 46131, Note_on_c, 0, 58, 0
2, 46135, Note_on_c, 0, 62, 0
2, 46160, Note_on_c, 0, 65, 80
2, 46274, Note_on_c, 0, 65, 0
2, 46310, Note_on_c, 0, 64, 80
2, 46310, Note_on_c, 0, 65, 80
2, 46363, Note_on_c, 0, 46, 0
2, 46365, Note_on_c, 0, 64, 0
2, 46433, Note_on_c, 0, 65, 0
2, 46466, Note_on_c, 0, 45, 80
2, 46486, Note_on_c, 0, 46, 80
2, 46509, Note_on_c, 0, 47, 80
2, 46523, Note_on_c, 0, 48, 80
2, 46523, Note_on_c, 0, 57, 80
2, 46525, Note_on_c, 0, 45, 0
2, 46525, Note_on_c, 0, 53, 80
2, 46525, Note_on_c, 0, 63, 80
2, 46532, Control_c, 0, 64, 127
2, 46546, Note_on_c, 0, 46, 0
2, 46559, Note_on_c, 0, 47, 0
2, 46645, Control_c, 0, 64, 0
2, 46694, Note_on_c, 0, 48, 0
2, 46732, Note_on_c, 0, 45, 80
2, 46750, Note_on_c, 0, 46, 80
2, 46753, Note_on_c, 0, 53, 0
2, 46760, Note_on_c, 0, 47, 80
2, 46762, Note_on_c, 0, 57, 0
2, 46764, Note_on_c, 0, 63, 0
2, 46789, Note_on_c, 0, 45, 0
2, 46798, Note_on_c, 0, 48, 80
2, 46806, Note_on_c, 0, 46, 0
2, 46810, Note_on_c, 0, 55, 80
2, 46814, Note_on_c, 0, 49, 80
2, 46818, Note_on_c, 0, 58, 80
2, 46820, Note_on_c, 0, 47, 0
2, 46834, Note_on_c, 0, 64, 80
2, 46864, Note_on_c, 0, 48, 0
2, 46997, Note_on_c, 0, 49, 0
2, 47057, Note_on_c, 0, 48, 80
2, 47069, Note_on_c, 0, 58, 0
2, 47069, Note_on_c, 0, 64, 0
2, 47073, Note_on_c, 0, 55, 0
2, 47101, Note_on_c, 0, 49, 80
2, 47118, Control_c, 0, 64, 127
2, 47120, Note_on_c, 0, 48, 0
2, 47129, Note_on_c, 0, 53, 80
2, 47129, Note_on_c, 0, 62, 80
2, 47129, Note_on_c, 0, 65, 80
2, 47131, Note_on_c, 0, 50, 80
2, 47133, Note_on_c, 0, 58, 80
2, 47150, Note_on_c, 0, 49, 0
2, 47273, Control_c, 0, 64, 0
2, 47607, Note_on_c, 0, 62, 0
2, 47609, Note_on_c, 0, 53, 0
2, 47613, Note_on_c, 0, 50, 0
2, 47615, Note_on_c, 0, 65, 0
2, 47616, Note_on_c, 0, 58, 0
2, 47688, Note_on_c, 0, 50, 80
2, 47708, Note_on_c, 0, 51, 80
2, 47739, Note_on_c, 0, 52, 80
2, 47748, Note_on_c, 0, 50, 0
2, 47757, Note_on_c, 0, 51, 0
2, 47759, Note_on_c, 0, 62, 80
2, 47762, Note_on_c, 0, 53, 80
2, 47762, Note_on_c, 0, 58, 80
2, 47762, Note_on_c, 0, 65, 80
2, 47766, Control_c, 0, 64, 127
2, 47766, Note_on_c, 0, 68, 80
2, 47781, Note_on_c, 0, 52, 0
2, 47941, Control_c, 0, 64, 0
2, 48210, Note_on_c, 0, 53, 0
2, 48220, Note_on_c, 0, 62, 0
2, 48222, Note_on_c, 0, 58, 0
2, 48229, Note_on_c, 0, 68, 0
2, 48229, Note_on_c, 0, 65, 0
2, 48246, Note_on_c, 0, 46, 80
2, 48280, Note_on_c, 0, 48, 80
2, 48318, Note_on_c, 0, 50, 80
2, 48322, Note_on_c, 0, 46, 0
2, 48326, Note_on_c, 0, 48, 0
2, 48358, Note_on_c, 0, 58, 80
2, 48358, Note_on_c, 0, 63, 80
2, 48360, Note_on_c, 0, 67, 80
2, 48361, Note_on_c, 0, 51, 80
2, 48381, Note_on_c, 0, 50, 0
2, 48381, Control_c, 0, 64, 127
2, 48514, Control_c, 0, 64, 0
2, 48723, Note_on_c, 0, 51, 0
2, 48762, Note_on_c, 0, 51, 80
2, 48804, Note_on_c, 0, 51, 0
2, 48806, Note_on_c, 0, 50, 80
2, 48813, Note_on_c, 0, 58, 0
2, 48819, Note_on_c, 0, 63, 0
2, 48821, Note_on_c, 0, 67, 0
2, 48885, Note_on_c, 0, 50, 0
2, 48887, Note_on_c, 0, 49, 80
2, 48939, Control_c, 0, 64, 127
2, 48946, Note_on_c, 0, 48, 80
2, 48946, Note_on_c, 0, 66, 80
2, 48950, Note_on_c, 0, 63, 80
2, 48952, Note_on_c, 0, 49, 0
2, 48954, Note_on_c, 0, 58, 80
2, 49038, Control_c, 0, 64, 0
2, 49277, Note_on_c, 0, 48, 0
2, 49281, Note_on_c, 0, 66, 0
2, 49283, Note_on_c, 0, 63, 0
2, 49285, Note_on_c, 0, 58, 0
2, 49401, Note_on_c, 0, 41, 80
2, 49431, Note_on_c, 0, 43, 80
2, 49464, Note_on_c, 0, 45, 80
2, 49466, Note_on_c, 0, 41, 0
2, 49489, Note_on_c, 0, 43, 0
2, 49511, Note_on_c, 0, 53, 80
2, 49512, Note_on_c, 0, 62, 80
2, 49514, Note_on_c, 0, 46, 80
2, 49523, Control_c, 0, 64, 127
2, 49523, Note_on_c, 0, 58, 80
2, 49536, Note_on_c, 0, 45, 0
2, 49627, Control_c, 0, 64, 0
2, 49760, Note_on_c, 0, 58, 0
2, 49762, Note_on_c, 0, 53, 0
2, 49764, Note_on_c, 0, 46, 0
2, 49822, Note_on_c, 0, 44, 80
2, 49822, Note_on_c, 0, 50, 80
2, 49822, Note_on_c, 0, 53, 80
2, 49824, Note_on_c, 0, 60, 80
2, 50071, Note_on_c, 0, 44, 0
2, 50073, Note_on_c, 0, 53, 0
2, 50073, Note_on_c, 0, 62, 0
2, 50077, Note_on_c, 0, 50, 0
2, 50084, Note_on_c, 0, 60, 0
2, 50124, Note_on_c, 0, 43, 80
2, 50128, Note_on_c, 0, 55, 80
2, 50132, Note_on_c, 0, 50, 80
2, 50132, Note_on_c, 0, 59, 80
2, 50134, Note_on_c, 0, 62, 80
2, 50134, Note_on_c, 0, 65, 80
2, 50142, Control_c, 0, 64, 127
2, 50281, Control_c, 0, 64, 0
2, 50493, Note_on_c, 0, 43, 0
2, 50496, Note_on_c, 0, 62, 0
2, 50496, Note_on_c, 0, 59, 0
2, 50496, Note_on_c, 0, 65, 0
2, 50498, Note_on_c, 0, 50, 0
2, 50505, Note_on_c, 0, 55, 0
2, 50528, Note_on_c, 0, 37, 80
2, 50537, Note_on_c, 0, 49, 80
2, 50572, Note_on_c, 0, 37, 0
2, 50585, Note_on_c, 0, 49, 0
2, 50587, Note_on_c, 0, 38, 80
2, 50595, Note_on_c, 0, 50, 80
2, 50650, Note_on_c, 0, 38, 0
2, 50652, Note_on_c, 0, 50, 0
2, 50673, Note_on_c, 0, 39, 80
2, 50682, Note_on_c, 0, 51, 80
2, 50735, Note_on_c, 0, 39, 0
2, 50736, Note_on_c, 0, 40, 80
2, 50743, Note_on_c, 0, 51, 0
2, 50745, Note_on_c, 0, 52, 80
2, 50756, Control_c, 0, 64, 127
2, 50808, Note_on_c, 0, 40, 0
2, 50821, Note_on_c, 0, 52, 0
2, 50851, Note_on_c, 0, 74, 80
2, 50851, Note_on_c, 0, 79, 80
2, 50851, Note_on_c, 0, 82, 80
2, 50853, Note_on_c, 0, 86, 80
2, 50855, Control_c, 0, 64, 0
2, 50874, Note_on_c, 0, 79, 0
2, 50878, Note_on_c, 0, 82, 0
2, 50888, Note_on_c, 0, 74, 0
2, 50888, Note_on_c, 0, 86, 0
2, 50895, Note_on_c, 0, 55, 80
2, 50897, Note_on_c, 0, 73, 80
2, 50899, Note_on_c, 0, 60, 80
2, 50899, Note_on_c, 0, 64, 80
2, 50903, Note_on_c, 0, 58, 80
2, 50903, Note_on_c, 0, 79, 80
2, 50903, Note_on_c, 0, 85, 80
2, 50906, Note_on_c, 0, 82, 80
2, 50936, Note_on_c, 0, 64, 0
2, 50940, Note_on_c, 0, 58, 0
2, 50942, Note_on_c, 0, 55, 0
2, 50946, Note_on_c, 0, 60, 0
2, 50958, Note_on_c, 0, 73, 0
2, 50958, Note_on_c, 0, 82, 0
2, 50958, Note_on_c, 0, 79, 0
2, 50958, Note_on_c, 0, 85, 0
2, 50994, Note_on_c, 0, 79, 80
2, 50998, Note_on_c, 0, 86, 80
2, 51000, Note_on_c, 0, 74, 80
2, 51012, Note_on_c, 0, 82, 80
2, 51024, Note_on_c, 0, 79, 0
2, 51031, Note_on_c, 0, 82, 0
2, 51038, Note_on_c, 0, 74, 0
2, 51042, Note_on_c, 0, 72, 80
2, 51044, Note_on_c, 0, 86, 0
2, 51044, Note_on_c, 0, 36, 80
2, 51050, Note_on_c, 0, 79, 80
2, 51052, Note_on_c, 0, 82, 80
2, 51052, Note_on_c, 0, 84, 80
2, 51095, Note_on_c, 0, 36, 0
2, 51118, Note_on_c, 0, 79, 0
2, 51126, Note_on_c, 0, 72, 0
2, 51126, Note_on_c, 0, 82, 0
2, 51126, Note_on_c, 0, 84, 0
2, 51186, Note_on_c, 0, 55, 80
2, 51198, Note_on_c, 0, 60, 80
2, 51198, Note_on_c, 0, 64, 80
2, 51198, Note_on_c, 0, 70, 80
2, 51198, Note_on_c, 0, 76, 80
2, 51202, Note_on_c, 0, 58, 80
2, 51202, Note_on_c, 0, 79, 80
2, 51213, Note_on_c, 0, 82, 80
2, 51236, Note_on_c, 0, 64, 0
2, 51240, Note_on_c, 0, 58, 0
2, 51241, Note_on_c, 0, 60, 0
2, 51254, Note_on_c, 0, 79, 0
2, 51258, Note_on_c, 0, 82, 0
2, 51260, Note_on_c, 0, 76, 0
2, 51260, Note_on_c, 0, 70, 0
2, 51281, Note_on_c, 0, 57, 80
2, 51295, Note_on_c, 0, 67, 80
2, 51299, Note_on_c, 0, 75, 80
2, 51316, Note_on_c, 0, 59, 80
2, 51327, Note_on_c, 0, 55, 0
2, 51329, Note_on_c, 0, 57, 0
2, 51333, Note_on_c, 0, 60, 80
2, 51341, Control_c, 0, 64, 127
2, 51343, Note_on_c, 0, 75, 0
2, 51343, Note_on_c, 0, 67, 0
2, 51350, Note_on_c, 0, 62, 80
2, 51350, Note_on_c, 0, 70, 80
2, 51354, Note_on_c, 0, 76, 80
2, 51356, Note_on_c, 0, 82, 80
2, 51373, Note_on_c, 0, 59, 0
2, 51396, Note_on_c, 0, 60, 0
2, 51421, Note_on_c, 0, 62, 0
2, 51423, Note_on_c, 0, 70, 0
2, 51423, Note_on_c, 0, 76, 0
2, 51430, Note_on_c, 0, 82, 0
2, 51440, Control_c, 0, 64, 0
2, 51449, Note_on_c, 0, 66, 80
2, 51456, Note_on_c, 0, 58, 80
2, 51456, Note_on_c, 0, 78, 80
2, 51489, Note_on_c, 0, 58, 0
2, 51493, Note_on_c, 0, 66, 0
2, 51500, Note_on_c, 0, 63, 80
2, 51504, Note_on_c, 0, 57, 80
2, 51504, Note_on_c, 0, 60, 80
2, 51505, Note_on_c, 0, 78, 0
2, 51507, Note_on_c, 0, 67, 80
2, 51509, Note_on_c, 0, 79, 80
2, 51511, Note_on_c, 0, 75, 80
2, 51564, Note_on_c, 0, 63, 0
2, 51564, Note_on_c, 0, 60, 0
2, 51566, Note_on_c, 0, 57, 0
2, 51566, Note_on_c, 0, 67, 0
2, 51566, Note_on_c, 0, 75, 0
2, 51568, Note_on_c, 0, 79, 0
2, 51598, Note_on_c, 0, 72, 80
2, 51601, Note_on_c, 0, 41, 80
2, 51601, Note_on_c, 0, 65, 80
2, 51605, Note_on_c, 0, 69, 80
2, 51605, Note_on_c, 0, 77, 80
2, 51609, Note_on_c, 0, 75, 80
2, 51637, Note_on_c, 0, 41, 0
2, 51649, Note_on_c, 0, 48, 80
2, 51696, Note_on_c, 0, 65, 0
2, 51702, Note_on_c, 0, 48, 0
2, 51704, Note_on_c, 0, 72, 0
2, 51708, Note_on_c, 0, 75, 0
2, 51712, Note_on_c, 0, 77, 0
2, 51716, Note_on_c, 0, 69, 0
2, 51744, Note_on_c, 0, 65, 80
2, 51745, Note_on_c, 0, 69, 80
2, 51745, Note_on_c, 0, 73, 80
2, 51786, Note_on_c, 0, 73, 0
2, 51788, Note_on_c, 0, 53, 80
2, 51790, Note_on_c, 0, 60, 80
2, 51793, Note_on_c, 0, 48, 80
2, 51793, Note_on_c, 0, 57, 80
2, 51793, Note_on_c, 0, 63, 80
2, 51797, Note_on_c, 0, 74, 80
2, 51801, Note_on_c, 0, 69, 0
2, 51856, Note_on_c, 0, 53, 0
2, 51863, Note_on_c, 0, 48, 0
2, 51866, Note_on_c, 0, 65, 0
2, 51868, Note_on_c, 0, 63, 0
2, 51868, Note_on_c, 0, 74, 0
2, 51868, Note_on_c, 0, 57, 0
2, 51870, Note_on_c, 0, 60, 0
2, 51893, Note_on_c, 0, 70, 80
2, 51918, Note_on_c, 0, 72, 80
2, 51927, Note_on_c, 0, 70, 0
2, 51929, Control_c, 0, 64, 127
2, 51936, Note_on_c, 0, 62, 80
2, 51939, Note_on_c, 0, 50, 80
2, 51954, Note_on_c, 0, 72, 0
2, 51960, Note_on_c, 0, 70, 80
2, 52024, Control_c, 0, 64, 0
2, 52038, Note_on_c, 0, 50, 0
2, 52038, Note_on_c, 0, 62, 0
2, 52082, Note_on_c, 0, 49, 80
2, 52082, Note_on_c, 0, 61, 80
2, 52169, Note_on_c, 0, 70, 0
2, 52188, Note_on_c, 0, 63, 80
2, 52192, Note_on_c, 0, 72, 80
2, 52196, Note_on_c, 0, 61, 0
2, 52206, Note_on_c, 0, 49, 0
2, 52234, Note_on_c, 0, 63, 0
2, 52238, Note_on_c, 0, 48, 80
2, 52240, Note_on_c, 0, 60, 80
2, 52244, Note_on_c, 0, 65, 80
2, 52252, Note_on_c, 0, 72, 0
2, 52307, Note_on_c, 0, 48, 0
2, 52330, Note_on_c, 0, 65, 0
2, 52332, Note_on_c, 0, 60, 0
2, 52344, Note_on_c, 0, 67, 80
2, 52387, Note_on_c, 0, 60, 80
2, 52389, Note_on_c, 0, 53, 80
2, 52389, Note_on_c, 0, 57, 80
2, 52389, Note_on_c, 0, 63, 80
2, 52389, Note_on_c, 0, 72, 80
2, 52392, Note_on_c, 0, 70, 80
2, 52416, Note_on_c, 0, 67, 0
2, 52451, Note_on_c, 0, 72, 0
2, 52462, Note_on_c, 0, 53, 0
2, 52468, Note_on_c, 0, 60, 0
2, 52468, Note_on_c, 0, 70, 0
2, 52470, Note_on_c, 0, 63, 0
2, 52472, Note_on_c, 0, 57, 0
2, 52493, Note_on_c, 0, 72, 80
2, 52536, Note_on_c, 0, 72, 0
2, 52536, Note_on_c, 0, 53, 80
2, 52544, Note_on_c, 0, 62, 80
2, 52548, Control_c, 0, 64, 127
2, 52550, Note_on_c, 0, 58, 80
2, 52550, Note_on_c, 0, 70, 80
2, 52601, Note_on_c, 0, 58, 0
2, 52601, Note_on_c, 0, 62, 0
2, 52605, Note_on_c, 0, 53, 0
2, 52605, Note_on_c, 0, 70, 0
2, 52683, Control_c, 0, 64, 0
2, 52690, Note_on_c, 0, 53, 80
2, 52697, Note_on_c, 0, 41, 80
2, 52699, Note_on_c, 0, 65, 80
2, 52699, Note_on_c, 0, 74, 80
2, 52703, Note_on_c, 0, 77, 80
2, 52755, Note_on_c, 0, 77, 0
2, 52759, Note_on_c, 0, 65, 0
2, 52759, Note_on_c, 0, 74, 0
2, 52798, Note_on_c, 0, 65, 80
2, 52800, Note_on_c, 0, 74, 80
2, 52806, Note_on_c, 0, 77, 80
2, 52914, Note_on_c, 0, 77, 0
2, 52916, Note_on_c, 0, 65, 0
2, 52922, Note_on_c, 0, 74, 0
2, 52954, Note_on_c, 0, 65, 80
2, 52961, Note_on_c, 0, 77, 80
2, 52992, Note_on_c, 0, 77, 0
2, 52999, Note_on_c, 0, 79, 80
2, 53001, Note_on_c, 0, 65, 0
2, 53001, Note_on_c, 0, 74, 80
2, 53008, Note_on_c, 0, 67, 80
2, 53025, Note_on_c, 0, 53, 0
2, 53034, Note_on_c, 0, 41, 0
2, 53076, Note_on_c, 0, 74, 0
2, 53076, Note_on_c, 0, 79, 0
2, 53076, Note_on_c, 0, 67, 0
2, 53159, Control_c, 0, 64, 127
2, 53162, Note_on_c, 0, 34, 80
2, 53162, Note_on_c, 0, 46, 80
2, 53169, Note_on_c, 0, 53, 80
2, 53176, Note_on_c, 0, 62, 80
2, 53178, Note_on_c, 0, 58, 80
2, 53292, Control_c, 0, 64, 0
2, 53378, Note_on_c, 0, 53, 0
2, 53393, Note_on_c, 0, 62, 0
2, 53395, Note_on_c, 0, 58, 0
2, 53414, Note_on_c, 0, 65, 80
2, 53507, Note_on_c, 0, 65, 0
2, 53565, Note_on_c, 0, 64, 80
2, 53565, Note_on_c, 0, 65, 80
2, 53609, Note_on_c, 0, 34, 0
2, 53611, Note_on_c, 0, 46, 0
2, 53615, Note_on_c, 0, 64, 0
2, 53699, Note_on_c, 0, 45, 80
2, 53712, Note_on_c, 0, 46, 80
2, 53726, Note_on_c, 0, 65, 0
2, 53730, Note_on_c, 0, 45, 0
2, 53738, Control_c, 0, 64, 127
2, 53745, Note_on_c, 0, 47, 80
2, 53756, Note_on_c, 0, 46, 0
2, 53764, Note_on_c, 0, 57, 80
2, 53766, Note_on_c, 0, 53, 80
2, 53766, Note_on_c, 0, 63, 80
2, 53770, Note_on_c, 0, 48, 80
2, 53804, Note_on_c, 0, 47, 0
2, 53835, Note_on_c, 0, 53, 0
2, 53844, Control_c, 0, 64, 0
2, 53846, Note_on_c, 0, 57, 0
2, 53850, Note_on_c, 0, 63, 0
2, 53856, Note_on_c, 0, 65, 80
2, 53958, Note_on_c, 0, 48, 0
2, 53962, Note_on_c, 0, 65, 0
2, 53987, Note_on_c, 0, 45, 80
2, 53998, Note_on_c, 0, 46, 80
2, 54004, Note_on_c, 0, 65, 80
2, 54022, Note_on_c, 0, 47, 80
2, 54025, Note_on_c, 0, 45, 0
2, 54045, Note_on_c, 0, 46, 0
2, 54053, Note_on_c, 0, 48, 80
2, 54064, Note_on_c, 0, 55, 80
2, 54072, Note_on_c, 0, 47, 0
2, 54076, Note_on_c, 0, 49, 80
2, 54076, Note_on_c, 0, 64, 80
2, 54080, Note_on_c, 0, 58, 80
2, 54089, Note_on_c, 0, 65, 0
2, 54114, Note_on_c, 0, 64, 0
2, 54116, Note_on_c, 0, 55, 0
2, 54118, Note_on_c, 0, 58, 0
2, 54126, Note_on_c, 0, 48, 0
2, 54147, Note_on_c, 0, 55, 80
2, 54156, Note_on_c, 0, 58, 80
2, 54156, Note_on_c, 0, 64, 80
2, 54253, Note_on_c, 0, 49, 0
2, 54255, Note_on_c, 0, 64, 0
2, 54262, Note_on_c, 0, 55, 0
2, 54264, Note_on_c, 0, 58, 0
2, 54291, Note_on_c, 0, 55, 80
2, 54293, Note_on_c, 0, 48, 80
2, 54297, Note_on_c, 0, 64, 80
2, 54306, Note_on_c, 0, 58, 80
2, 54327, Note_on_c, 0, 58, 0
2, 54337, Note_on_c, 0, 49, 80
2, 54357, Note_on_c, 0, 64, 0
2, 54360, Note_on_c, 0, 55, 0
2, 54360, Note_on_c, 0, 53, 80
2, 54360, Note_on_c, 0, 62, 80
2, 54360, Note_on_c, 0, 65, 80
2, 54364, Note_on_c, 0, 48, 0
2, 54364, Note_on_c, 0, 50, 80
2, 54364, Note_on_c, 0, 58, 80
2, 54373, Control_c, 0, 64, 127
2, 54394, Note_on_c, 0, 49, 0
2, 54398, Note_on_c, 0, 62, 0
2, 54398, Note_on_c, 0, 53, 0
2, 54402, Note_on_c, 0, 65, 0
2, 54404, Note_on_c, 0, 58, 0
2, 54456, Note_on_c, 0, 53, 80
2, 54458, Note_on_c, 0, 62, 80
2, 54458, Note_on_c, 0, 65, 80
2, 54460, Note_on_c, 0, 58, 80
2, 54471, Control_c, 0, 64, 0
2, 54545, Note_on_c, 0, 53, 0
2, 54547, Note_on_c, 0, 62, 0
2, 54553, Note_on_c, 0, 58, 0
2, 54555, Note_on_c, 0, 65, 0
2, 54589, Note_on_c, 0, 53, 80
2, 54593, Note_on_c, 0, 65, 80
2, 54628, Note_on_c, 0, 53, 0
2, 54649, Note_on_c, 0, 65, 0
2, 54660, Note_on_c, 0, 53, 80
2, 54667, Note_on_c, 0, 62, 80
2, 54739, Note_on_c, 0, 62, 0
2, 54739, Note_on_c, 0, 53, 0
2, 54821, Note_on_c, 0, 53, 80
2, 54825, Note_on_c, 0, 58, 80
2, 54825, Note_on_c, 0, 62, 80
2, 54825, Note_on_c, 0, 65, 80
2, 54844, Note_on_c, 0, 50, 0
2, 54857, Note_on_c, 0, 62, 0
2, 54859, Note_on_c, 0, 53, 0
2, 54859, Note_on_c, 0, 65, 0
2, 54867, Note_on_c, 0, 58, 0
2, 54903, Note_on_c, 0, 50, 80
2, 54917, Note_on_c, 0, 51, 80
2, 54935, Note_on_c, 0, 52, 80
2, 54938, Note_on_c, 0, 50, 0
2, 54953, Control_c, 0, 64, 127
2, 54963, Note_on_c, 0, 51, 0
2, 54967, Note_on_c, 0, 53, 80
2, 54971, Note_on_c, 0, 62, 80
2, 54975, Note_on_c, 0, 58, 80
2, 54975, Note_on_c, 0, 68, 80
2, 54992, Note_on_c, 0, 52, 0
2, 55007, Note_on_c, 0, 53, 0
2, 55007, Note_on_c, 0, 62, 0
2, 55008, Note_on_c, 0, 68, 0
2, 55010, Note_on_c, 0, 58, 0
2, 55044, Note_on_c, 0, 53, 80
2, 55048, Note_on_c, 0, 58, 80
2, 55048, Note_on_c, 0, 62, 80
2, 55052, Note_on_c, 0, 68, 80
2, 55087, Control_c, 0, 64, 0
2, 55131, Note_on_c, 0, 62, 0
2, 55131, Note_on_c, 0, 53, 0
2, 55140, Note_on_c, 0, 58, 0
2, 55144, Note_on_c, 0, 68, 0
2, 55190, Note_on_c, 0, 53, 80
2, 55192, Note_on_c, 0, 62, 80
2, 55199, Note_on_c, 0, 58, 80
2, 55202, Note_on_c, 0, 68, 80
2, 55236, Note_on_c, 0, 53, 0
2, 55240, Note_on_c, 0, 62, 0
2, 55244, Note_on_c, 0, 58, 0
2, 55244, Note_on_c, 0, 68, 0
2, 55258, Note_on_c, 0, 53, 80
2, 55265, Note_on_c, 0, 62, 80
2, 55265, Note_on_c, 0, 65, 80
2, 55269, Note_on_c, 0, 58, 80
2, 55337, Note_on_c, 0, 53, 0
2, 55341, Note_on_c, 0, 62, 0
2, 55344, Note_on_c, 0, 58, 0
2, 55348, Note_on_c, 0, 65, 0
2, 55359, Note_on_c, 0, 70, 80
2, 55422, Note_on_c, 0, 58, 80
2, 55424, Note_on_c, 0, 62, 80
2, 55426, Note_on_c, 0, 65, 80
2, 55426, Note_on_c, 0, 68, 80
2, 55439, Note_on_c, 0, 70, 0
2, 55483, Note_on_c, 0, 65, 0
2, 55483, Note_on_c, 0, 58, 0
2, 55483, Note_on_c, 0, 62, 0
2, 55487, Note_on_c, 0, 68, 0
2, 55487, Note_on_c, 0, 46, 80
2, 55501, Note_on_c, 0, 48, 80
2, 55531, Note_on_c, 0, 50, 80
2, 55556, Note_on_c, 0, 48, 0
2, 55556, Note_on_c, 0, 46, 0
2, 55570, Note_on_c, 0, 63, 80
2, 55574, Note_on_c, 0, 51, 80
2, 55578, Control_c, 0, 64, 127
2, 55578, Note_on_c, 0, 58, 80
2, 55578, Note_on_c, 0, 67, 80
2, 55595, Note_on_c, 0, 50, 0
2, 55612, Note_on_c, 0, 58, 0
2, 55614, Note_on_c, 0, 67, 0
2, 55618, Note_on_c, 0, 63, 0
2, 55654, Note_on_c, 0, 63, 80
2, 55657, Note_on_c, 0, 67, 80
2, 55661, Note_on_c, 0, 58, 80
2, 55712, Control_c, 0, 64, 0
2, 55729, Note_on_c, 0, 63, 0
2, 55729, Note_on_c, 0, 51, 0
2, 55733, Note_on_c, 0, 58, 0
2, 55737, Note_on_c, 0, 67, 0
2, 55781, Note_on_c, 0, 63, 80
2, 55788, Note_on_c, 0, 51, 80
2, 55788, Note_on_c, 0, 58, 80
2, 55788, Note_on_c, 0, 67, 80
2, 55915, Note_on_c, 0, 58, 0
2, 55919, Note_on_c, 0, 63, 0
2, 55919, Note_on_c, 0, 51, 0
2, 55919, Note_on_c, 0, 67, 0
2, 55952, Note_on_c, 0, 63, 80
2, 55954, Note_on_c, 0, 51, 80
2, 55958, Note_on_c, 0, 58, 80
2, 55958, Note_on_c, 0, 67, 80
2, 55960, Note_on_c, 0, 70, 80
2, 56070, Note_on_c, 0, 50, 80
2, 56083, Note_on_c, 0, 51, 0
2, 56118, Note_on_c, 0, 49, 80
2, 56129, Note_on_c, 0, 63, 0
2, 56133, Note_on_c, 0, 67, 0
2, 56133, Note_on_c, 0, 70, 0
2, 56133, Note_on_c, 0, 58, 0
2, 56135, Note_on_c, 0, 50, 0
2, 56166, Note_on_c, 0, 63, 80
2, 56166, Note_on_c, 0, 66, 80
2, 56168, Note_on_c, 0, 48, 80
2, 56170, Note_on_c, 0, 58, 80
2, 56191, Note_on_c, 0, 49, 0
2, 56195, Control_c, 0, 64, 127
2, 56206, Note_on_c, 0, 48, 0
2, 56252, Note_on_c, 0, 48, 80
2, 56294, Control_c, 0, 64, 0
2, 56328, Note_on_c, 0, 48, 0
2, 56329, Note_on_c, 0, 66, 0
2, 56333, Note_on_c, 0, 63, 0
2, 56335, Note_on_c, 0, 58, 0
2, 56400, Note_on_c, 0, 63, 80
2, 56402, Note_on_c, 0, 48, 80
2, 56404, Note_on_c, 0, 66, 80
2, 56413, Note_on_c, 0, 58, 80
2, 56654, Note_on_c, 0, 66, 0
2, 56656, Note_on_c, 0, 63, 0
2, 56656, Note_on_c, 0, 48, 0
2, 56660, Note_on_c, 0, 58, 0
2, 56681, Note_on_c, 0, 41, 80
2, 56711, Note_on_c, 0, 43, 80
2, 56725, Note_on_c, 0, 45, 80
2, 56736, Note_on_c, 0, 41, 0
2, 56746, Note_on_c, 0, 43, 0
2, 56760, Note_on_c, 0, 46, 80
2, 56764, Note_on_c, 0, 58, 80
2, 56764, Note_on_c, 0, 62, 80
2, 56764, Note_on_c, 0, 65, 80
2, 56768, Control_c, 0, 64, 127
2, 56791, Note_on_c, 0, 45, 0
2, 56798, Note_on_c, 0, 58, 0
2, 56805, Note_on_c, 0, 53, 80
2, 56817, Note_on_c, 0, 65, 0
2, 56832, Note_on_c, 0, 62, 0
2, 56853, Note_on_c, 0, 53, 0
2, 56863, Note_on_c, 0, 58, 80
2, 56899, Control_c, 0, 64, 0
2, 56907, Note_on_c, 0, 53, 80
2, 56907, Note_on_c, 0, 65, 80
2, 56935, Note_on_c, 0, 58, 0
2, 56956, Note_on_c, 0, 53, 0
2, 56956, Note_on_c, 0, 62, 80
2, 56969, Note_on_c, 0, 65, 0
2, 56983, Note_on_c, 0, 46, 0
2, 56990, Note_on_c, 0, 58, 80
2, 57045, Note_on_c, 0, 58, 0
2, 57047, Note_on_c, 0, 62, 0
2, 57047, Note_on_c, 0, 45, 80
2, 57048, Note_on_c, 0, 66, 80
2, 57108, Note_on_c, 0, 62, 80
2, 57131, Note_on_c, 0, 66, 0
2, 57138, Note_on_c, 0, 60, 80
2, 57189, Note_on_c, 0, 54, 80
2, 57264, Note_on_c, 0, 54, 0
2, 57292, Note_on_c, 0, 45, 0
2, 57305, Note_on_c, 0, 62, 0
2, 57309, Note_on_c, 0, 60, 0
2, 57326, Note_on_c, 0, 55, 80
2, 57328, Note_on_c, 0, 43, 80
2, 57340, Note_on_c, 0, 59, 80
2, 57340, Note_on_c, 0, 67, 80
2, 57342, Control_c, 0, 64, 127
2, 57397, Note_on_c, 0, 55, 0
2, 57416, Note_on_c, 0, 62, 80
2, 57427, Note_on_c, 0, 59, 0
2, 57469, Note_on_c, 0, 67, 0
2, 57476, Note_on_c, 0, 62, 0
2, 57482, Control_c, 0, 64, 0
2, 57489, Note_on_c, 0, 55, 80
2, 57493, Note_on_c, 0, 66, 80
2, 57497, Note_on_c, 0, 59, 80
2, 57550, Note_on_c, 0, 59, 0
2, 57550, Note_on_c, 0, 66, 0
2, 57558, Note_on_c, 0, 55, 0
2, 57586, Note_on_c, 0, 55, 80
2, 57595, Note_on_c, 0, 59, 80
2, 57595, Note_on_c, 0, 65, 80
2, 57641, Note_on_c, 0, 50, 80
2, 57687, Note_on_c, 0, 43, 0
2, 57694, Note_on_c, 0, 65, 0
2, 57700, Note_on_c, 0, 55, 0
2, 57700, Note_on_c, 0, 50, 0
2, 57704, Note_on_c, 0, 59, 0
2, 57738, Note_on_c, 0, 37, 80
2, 57746, Note_on_c, 0, 49, 80
2, 57769, Note_on_c, 0, 37, 0
2, 57782, Note_on_c, 0, 49, 0
2, 57792, Note_on_c, 0, 38, 80
2, 57796, Note_on_c, 0, 50, 80
2, 57872, Note_on_c, 0, 50, 0
2, 57872, Note_on_c, 0, 38, 0
2, 57902, Note_on_c, 0, 39, 80
2, 57906, Note_on_c, 0, 51, 80
2, 57936, Note_on_c, 0, 52, 80
2, 57939, Note_on_c, 0, 40, 80
2, 57941, Note_on_c, 0, 39, 0
2, 57941, Control_c, 0, 64, 127
2, 57950, Note_on_c, 0, 51, 0
2, 58015, Note_on_c, 0, 40, 0
2, 58017, Note_on_c, 0, 52, 0
2, 58070, Note_on_c, 0, 74, 80
2, 58070, Note_on_c, 0, 79, 80
2, 58074, Note_on_c, 0, 86, 80
2, 58076, Control_c, 0, 64, 0
2, 58076, Note_on_c, 0, 82, 80
2, 58093, Note_on_c, 0, 74, 0
2, 58097, Note_on_c, 0, 79, 0
2, 58105, Note_on_c, 0, 82, 0
2, 58114, Note_on_c, 0, 55, 80
2, 58116, Note_on_c, 0, 86, 0
2, 58120, Note_on_c, 0, 60, 80
2, 58120, Note_on_c, 0, 79, 80
2, 58124, Note_on_c, 0, 58, 80
2, 58124, Note_on_c, 0, 73, 80
2, 58126, Note_on_c, 0, 64, 80
2, 58126, Note_on_c, 0, 85, 80
2, 58129, Note_on_c, 0, 82, 80
2, 58159, Note_on_c, 0, 58, 0
2, 58161, Note_on_c, 0, 60, 0
2, 58163, Note_on_c, 0, 64, 0
2, 58165, Note_on_c, 0, 55, 0
2, 58177, Note_on_c, 0, 73, 0
2, 58177, Note_on_c, 0, 85, 0
2, 58181, Note_on_c, 0, 79, 0
2, 58188, Note_on_c, 0, 82, 0
2, 58211, Note_on_c, 0, 36, 80
2, 58215, Note_on_c, 0, 74, 80
2, 58215, Note_on_c, 0, 79, 80
2, 58222, Note_on_c, 0, 82, 80
2, 58228, Note_on_c, 0, 86, 80
2, 58243, Note_on_c, 0, 79, 0
2, 58251, Note_on_c, 0, 82, 0
2, 58258, Note_on_c, 0, 86, 0
2, 58262, Note_on_c, 0, 72, 80
2, 58266, Note_on_c, 0, 52, 80
2, 58266, Note_on_c, 0, 79, 80
2, 58272, Note_on_c, 0, 84, 80
2, 58276, Note_on_c, 0, 82, 80
2, 58278, Note_on_c, 0, 74, 0
2, 58312, Note_on_c, 0, 36, 0
2, 58320, Note_on_c, 0, 79, 0
2, 58322, Note_on_c, 0, 82, 0
2, 58329, Note_on_c, 0, 84, 0
2, 58344, Note_on_c, 0, 72, 0
2, 58352, Note_on_c, 0, 52, 0
2, 58365, Note_on_c, 0, 70, 80
2, 58365, Note_on_c, 0, 76, 80
2, 58375, Note_on_c, 0, 82, 80
2, 58409, Note_on_c, 0, 55, 80
2, 58417, Note_on_c, 0, 60, 80
2, 58417, Note_on_c, 0, 64, 80
2, 58421, Note_on_c, 0, 58, 80
2, 58462, Note_on_c, 0, 60, 0
2, 58468, Note_on_c, 0, 58, 0
2, 58498, Note_on_c, 0, 55, 0
2, 58502, Note_on_c, 0, 82, 0
2, 58506, Note_on_c, 0, 76, 0
2, 58510, Note_on_c, 0, 70, 0
2, 58512, Note_on_c, 0, 64, 0
2, 58520, Note_on_c, 0, 57, 80
2, 58520, Note_on_c, 0, 67, 80
2, 58524, Note_on_c, 0, 75, 80
2, 58528, Note_on_c, 0, 78, 80
2, 58545, Note_on_c, 0, 58, 80
2, 58558, Note_on_c, 0, 59, 80
2, 58566, Note_on_c, 0, 78, 0
2, 58568, Note_on_c, 0, 60, 80
2, 58572, Note_on_c, 0, 70, 80
2, 58574, Control_c, 0, 64, 127
2, 58578, Note_on_c, 0, 58, 0
2, 58578, Note_on_c, 0, 82, 80
2, 58580, Note_on_c, 0, 57, 0
2, 58580, Note_on_c, 0, 67, 0
2, 58622, Note_on_c, 0, 75, 0
2, 58624, Note_on_c, 0, 70, 0
2, 58624, Note_on_c, 0, 59, 0
2, 58626, Note_on_c, 0, 82, 0
2, 58659, Note_on_c, 0, 66, 80
2, 58668, Control_c, 0, 64, 0
2, 58668, Note_on_c, 0, 75, 80
2, 58668, Note_on_c, 0, 78, 80
2, 58675, Note_on_c, 0, 60, 0
2, 58708, Note_on_c, 0, 60, 80
2, 58712, Note_on_c, 0, 53, 80
2, 58712, Note_on_c, 0, 57, 80
2, 58712, Note_on_c, 0, 63, 80
2, 58721, Note_on_c, 0, 66, 0
2, 58721, Note_on_c, 0, 67, 80
2, 58721, Note_on_c, 0, 79, 80
2, 58723, Note_on_c, 0, 75, 0
2, 58729, Note_on_c, 0, 78, 0
2, 58763, Note_on_c, 0, 53, 0
2, 58767, Note_on_c, 0, 79, 0
2, 58771, Note_on_c, 0, 60, 0
2, 58775, Note_on_c, 0, 63, 0
2, 58775, Note_on_c, 0, 67, 0
2, 58775, Note_on_c, 0, 57, 0
2, 58806, Note_on_c, 0, 65, 80
2, 58806, Note_on_c, 0, 72, 80
2, 58813, Note_on_c, 0, 69, 80
2, 58815, Note_on_c, 0, 77, 80
2, 58822, Note_on_c, 0, 75, 80
2, 58876, Note_on_c, 0, 41, 80
2, 58889, Note_on_c, 0, 75, 0
2, 58889, Note_on_c, 0, 69, 0
2, 58889, Note_on_c, 0, 65, 0
2, 58893, Note_on_c, 0, 72, 0
2, 58893, Note_on_c, 0, 77, 0
2, 58910, Note_on_c, 0, 41, 0
2, 58963, Note_on_c, 0, 65, 80
2, 58963, Note_on_c, 0, 69, 80
2, 58963, Note_on_c, 0, 73, 80
2, 59009, Note_on_c, 0, 73, 0
2, 59009, Note_on_c, 0, 65, 0
2, 59017, Note_on_c, 0, 69, 0
2, 59030, Note_on_c, 0, 53, 80
2, 59030, Note_on_c, 0, 72, 80
2, 59034, Note_on_c, 0, 57, 80
2, 59034, Note_on_c, 0, 60, 80
2, 59034, Note_on_c, 0, 63, 80
2, 59034, Note_on_c, 0, 65, 80
2, 59093, Note_on_c, 0, 65, 0
2, 59093, Note_on_c, 0, 53, 0
2, 59093, Note_on_c, 0, 63, 0
2, 59095, Note_on_c, 0, 72, 0
2, 59097, Note_on_c, 0, 60, 0
2, 59099, Note_on_c, 0, 57, 0
2, 59139, Note_on_c, 0, 74, 80
2, 59178, Control_c, 0, 64, 127
2, 59182, Note_on_c, 0, 62, 80
2, 59185, Note_on_c, 0, 53, 80
2, 59185, Note_on_c, 0, 65, 80
2, 59187, Note_on_c, 0, 74, 0
2, 59189, Note_on_c, 0, 70, 80
2, 59255, Note_on_c, 0, 62, 0
2, 59256, Note_on_c, 0, 53, 0
2, 59258, Note_on_c, 0, 65, 0
2, 59309, Control_c, 0, 64, 0
2, 59311, Note_on_c, 0, 70, 0
2, 59322, Note_on_c, 0, 55, 80
2, 59330, Note_on_c, 0, 61, 80
2, 59330, Note_on_c, 0, 65, 80
2, 59334, Note_on_c, 0, 52, 80
2, 59334, Note_on_c, 0, 72, 80
2, 59338, Note_on_c, 0, 58, 80
2, 59387, Note_on_c, 0, 65, 0
2, 59391, Note_on_c, 0, 72, 0
2, 59405, Note_on_c, 0, 52, 0
2, 59405, Note_on_c, 0, 61, 0
2, 59409, Note_on_c, 0, 58, 0
2, 59413, Note_on_c, 0, 65, 80
2, 59415, Note_on_c, 0, 55, 0
2, 59419, Note_on_c, 0, 74, 80
2, 59472, Note_on_c, 0, 53, 80
2, 59472, Note_on_c, 0, 60, 80
2, 59475, Note_on_c, 0, 63, 80
2, 59477, Note_on_c, 0, 74, 0
2, 59477, Note_on_c, 0, 72, 80
2, 59481, Note_on_c, 0, 69, 80
2, 59481, Note_on_c, 0, 75, 80
2, 59488, Note_on_c, 0, 65, 0
2, 59518, Note_on_c, 0, 72, 0
2, 59528, Note_on_c, 0, 53, 0
2, 59537, Note_on_c, 0, 63, 0
2, 59537, Note_on_c, 0, 60, 0
2, 59537, Note_on_c, 0, 75, 0
2, 59541, Note_on_c, 0, 69, 0
2, 59555, Note_on_c, 0, 65, 80
2, 59559, Note_on_c, 0, 77, 80
2, 59616, Note_on_c, 0, 77, 0
2, 59623, Note_on_c, 0, 53, 80
2, 59623, Note_on_c, 0, 63, 80
2, 59627, Note_on_c, 0, 57, 80
2, 59627, Note_on_c, 0, 60, 80
2, 59629, Note_on_c, 0, 67, 80
2, 59629, Note_on_c, 0, 79, 80
2, 59641, Note_on_c, 0, 65, 0
2, 59696, Note_on_c, 0, 53, 0
2, 59703, Note_on_c, 0, 63, 0
2, 59703, Note_on_c, 0, 79, 0
2, 59705, Note_on_c, 0, 67, 0
2, 59707, Note_on_c, 0, 60, 0
2, 59707, Note_on_c, 0, 57, 0
2, 59728, Note_on_c, 0, 69, 80
2, 59732, Note_on_c, 0, 81, 80
2, 59746, Control_c, 0, 64, 127
2, 59778, Note_on_c, 0, 53, 80
2, 59778, Note_on_c, 0, 58, 80
2, 59778, Note_on_c, 0, 62, 80
2, 59782, Note_on_c, 0, 70, 80
2, 59782, Note_on_c, 0, 74, 80
2, 59788, Note_on_c, 0, 82, 80
2, 59790, Note_on_c, 0, 81, 0
2, 59794, Note_on_c, 0, 69, 0
2, 59845, Note_on_c, 0, 62, 0
2, 59847, Note_on_c, 0, 53, 0
2, 59849, Note_on_c, 0, 74, 0
2, 59849, Note_on_c, 0, 82, 0
2, 59851, Note_on_c, 0, 58, 0
2, 59857, Note_on_c, 0, 70, 0
2, 59880, Control_c, 0, 64, 0
2, 59927, Note_on_c, 0, 77, 80
2, 59990, Note_on_c, 0, 77, 0
2, 60028, Note_on_c, 0, 77, 80
2, 60032, Note_on_c, 0, 65, 80
2, 60041, Note_on_c, 0, 41, 80
2, 60094, Note_on_c, 0, 48, 80
2, 60097, Note_on_c, 0, 57, 80
2, 60131, Note_on_c, 0, 48, 0
2, 60131, Note_on_c, 0, 41, 0
2, 60156, Note_on_c, 0, 57, 0
2, 60188, Note_on_c, 0, 65, 0
2, 60209, Note_on_c, 0, 77, 0
2, 60242, Note_on_c, 0, 53, 80
2, 60242, Note_on_c, 0, 57, 80
2, 60242, Note_on_c, 0, 60, 80
2, 60242, Note_on_c, 0, 63, 80
2, 60242, Note_on_c, 0, 65, 80
2, 60255, Note_on_c, 0, 76, 80
2, 60255, Note_on_c, 0, 77, 80
2, 60287, Note_on_c, 0, 53, 0
2, 60288, Note_on_c, 0, 57, 0
2, 60290, Note_on_c, 0, 63, 0
2, 60294, Note_on_c, 0, 60, 0
2, 60309, Note_on_c, 0, 76, 0
2, 60395, Note_on_c, 0, 77, 0
2, 60409, Note_on_c, 0, 65, 0
2, 60413, Note_on_c, 0, 53, 80
2, 60417, Note_on_c, 0, 62, 80
2, 60421, Control_c, 0, 64, 127
2, 60421, Note_on_c, 0, 58, 80
2, 60556, Control_c, 0, 64, 0
2, 60565, Note_on_c, 0, 65, 80
2, 60572, Note_on_c, 0, 74, 80
2, 60612, Note_on_c, 0, 74, 0
2, 60612, Note_on_c, 0, 65, 0
2, 60621, Note_on_c, 0, 67, 80
2, 60675, Note_on_c, 0, 70, 80
2, 60698, Note_on_c, 0, 67, 0
2, 60723, Note_on_c, 0, 74, 80
2, 60730, Note_on_c, 0, 79, 80
2, 60764, Note_on_c, 0, 74, 0
2, 60772, Note_on_c, 0, 70, 0
2, 60772, Note_on_c, 0, 79, 0
2, 60774, Note_on_c, 0, 77, 80
2, 60827, Note_on_c, 0, 74, 80
2, 60852, Note_on_c, 0, 77, 0
2, 60873, Note_on_c, 0, 53, 0
2, 60880, Note_on_c, 0, 62, 0
2, 60880, Note_on_c, 0, 70, 80
2, 60882, Note_on_c, 0, 58, 0
2, 60917, Note_on_c, 0, 74, 0
2, 60928, Note_on_c, 0, 70, 0
2, 60932, Note_on_c, 0, 67, 80
2, 60970, Note_on_c, 0, 67, 0
2, 60984, Note_on_c, 0, 65, 80
2, 61023, Note_on_c, 0, 65, 0
2, 61025, Control_c, 0, 64, 127
2, 61032, Note_on_c, 0, 60, 80
2, 61040, Note_on_c, 0, 51, 80
2, 61042, Note_on_c, 0, 69, 80
2, 61086, Note_on_c, 0, 69, 0
2, 61095, Note_on_c, 0, 65, 80
2, 61127, Control_c, 0, 64, 0
2, 61130, Note_on_c, 0, 65, 0
2, 61137, Note_on_c, 0, 69, 80
2, 61186, Note_on_c, 0, 72, 80
2, 61188, Note_on_c, 0, 69, 0
2, 61218, Note_on_c, 0, 51, 0
2, 61220, Note_on_c, 0, 60, 0
2, 61220, Note_on_c, 0, 72, 0
2, 61239, Note_on_c, 0, 65, 80
2, 61279, Note_on_c, 0, 69, 80
2, 61294, Note_on_c, 0, 65, 0
2, 61313, Note_on_c, 0, 55, 80
2, 61317, Note_on_c, 0, 69, 0
2, 61319, Note_on_c, 0, 61, 80
2, 61322, Note_on_c, 0, 52, 80
2, 61322, Note_on_c, 0, 58, 80
2, 61324, Note_on_c, 0, 73, 80
2, 61377, Note_on_c, 0, 67, 80
2, 61392, Note_on_c, 0, 73, 0
2, 61423, Note_on_c, 0, 70, 80
2, 61427, Note_on_c, 0, 67, 0
2, 61457, Note_on_c, 0, 70, 0
2, 61467, Note_on_c, 0, 76, 80
2, 61520, Note_on_c, 0, 61, 0
2, 61520, Note_on_c, 0, 67, 80
2, 61522, Note_on_c, 0, 52, 0
2, 61524, Note_on_c, 0, 58, 0
2, 61524, Note_on_c, 0, 55, 0
2, 61547, Note_on_c, 0, 76, 0
2, 61575, Note_on_c, 0, 67, 0
2, 61577, Note_on_c, 0, 70, 80
2, 61615, Note_on_c, 0, 70, 0
2, 61617, Note_on_c, 0, 53, 80
2, 61617, Note_on_c, 0, 58, 80
2, 61617, Note_on_c, 0, 62, 80
2, 61617, Note_on_c, 0, 74, 80
2, 61661, Control_c, 0, 64, 127
2, 61693, Note_on_c, 0, 74, 0
2, 61693, Note_on_c, 0, 62, 0
2, 61746, Note_on_c, 0, 62, 80
2, 61792, Control_c, 0, 64, 0
2, 61822, Note_on_c, 0, 68, 80
2, 61836, Note_on_c, 0, 62, 0
2, 61969, Note_on_c, 0, 62, 80
2, 62014, Note_on_c, 0, 68, 0
2, 62049, Note_on_c, 0, 62, 0
2, 62051, Note_on_c, 0, 74, 80
2, 62085, Note_on_c, 0, 58, 0
2, 62085, Note_on_c, 0, 53, 0
2, 62120, Note_on_c, 0, 70, 80
2, 62145, Note_on_c, 0, 74, 0
2, 62196, Note_on_c, 0, 70, 0
2, 62207, Note_on_c, 0, 46, 80
2, 62210, Note_on_c, 0, 53, 80
2, 62210, Note_on_c, 0, 56, 80
2, 62214, Note_on_c, 0, 72, 80
2, 62276, Note_on_c, 0, 65, 80
2, 62288, Control_c, 0, 64, 127
2, 62292, Note_on_c, 0, 72, 0
2, 62368, Note_on_c, 0, 68, 80
2, 62387, Note_on_c, 0, 65, 0
2, 62404, Control_c, 0, 64, 0
2, 62417, Note_on_c, 0, 68, 0
2, 62421, Note_on_c, 0, 62, 80
2, 62514, Note_on_c, 0, 65, 80
2, 62528, Note_on_c, 0, 62, 0
2, 62532, Note_on_c, 0, 56, 0
2, 62543, Note_on_c, 0, 65, 0
2, 62576, Note_on_c, 0, 58, 80
2, 62620, Note_on_c, 0, 50, 80
2, 62633, Note_on_c, 0, 58, 0
2, 62656, Note_on_c, 0, 56, 80
2, 62660, Note_on_c, 0, 62, 80
2, 62688, Note_on_c, 0, 46, 0
2, 62688, Note_on_c, 0, 50, 0
2, 62688, Note_on_c, 0, 53, 0
2, 62723, Note_on_c, 0, 68, 80
2, 62759, Note_on_c, 0, 62, 0
2, 62765, Note_on_c, 0, 56, 0
2, 62780, Note_on_c, 0, 68, 0
2, 62794, Note_on_c, 0, 55, 80
2, 62801, Note_on_c, 0, 46, 80
2, 62808, Note_on_c, 0, 67, 80
2, 62871, Note_on_c, 0, 67, 0
2, 62873, Control_c, 0, 64, 127
2, 62880, Note_on_c, 0, 58, 80
2, 62953, Note_on_c, 0, 58, 0
2, 62957, Note_on_c, 0, 60, 80
2, 62970, Control_c, 0, 64, 0
2, 63027, Note_on_c, 0, 63, 80
2, 63055, Note_on_c, 0, 60, 0
2, 63101, Note_on_c, 0, 67, 80
2, 63145, Note_on_c, 0, 63, 0
2, 63167, Note_on_c, 0, 70, 80
2, 63207, Note_on_c, 0, 67, 0
2, 63239, Note_on_c, 0, 72, 80
2, 63245, Note_on_c, 0, 70, 0
2, 63288, Note_on_c, 0, 46, 0
2, 63294, Note_on_c, 0, 55, 0
2, 63313, Note_on_c, 0, 72, 0
2, 63324, Note_on_c, 0, 75, 80
2, 63373, Note_on_c, 0, 75, 0
2, 63392, Note_on_c, 0, 55, 80
2, 63396, Note_on_c, 0, 48, 80
2, 63405, Note_on_c, 0, 51, 80
2, 63413, Note_on_c, 0, 82, 80
2, 63481, Control_c, 0, 64, 127
2, 63481, Note_on_c, 0, 84, 80
2, 63496, Note_on_c, 0, 82, 0
2, 63536, Note_on_c, 0, 84, 0
2, 63545, Note_on_c, 0, 82, 80
2, 63573, Note_on_c, 0, 82, 0
2, 63579, Note_on_c, 0, 84, 80
2, 63602, Note_on_c, 0, 84, 0
2, 63613, Control_c, 0, 64, 0
2, 63613, Note_on_c, 0, 82, 80
2, 63636, Note_on_c, 0, 82, 0
2, 63638, Note_on_c, 0, 84, 80
2, 63663, Note_on_c, 0, 84, 0
2, 63673, Note_on_c, 0, 82, 80
2, 63698, Note_on_c, 0, 82, 0
2, 63705, Note_on_c, 0, 84, 80
2, 63730, Note_on_c, 0, 84, 0
2, 63743, Note_on_c, 0, 82, 80
2, 63762, Note_on_c, 0, 82, 0
2, 63770, Note_on_c, 0, 84, 80
2, 63804, Note_on_c, 0, 84, 0
2, 63808, Note_on_c, 0, 82, 80
2, 63833, Note_on_c, 0, 82, 0
2, 63841, Note_on_c, 0, 84, 80
2, 63856, Note_on_c, 0, 48, 0
2, 63860, Note_on_c, 0, 55, 0
2, 63866, Note_on_c, 0, 51, 0
2, 63873, Note_on_c, 0, 82, 80
2, 63907, Note_on_c, 0, 84, 0
2, 63924, Note_on_c, 0, 82, 0
2, 63992, Note_on_c, 0, 46, 80
2, 64005, Note_on_c, 0, 58, 80
2, 64005, Note_on_c, 0, 77, 80
2, 64059, Note_on_c, 0, 77, 0
2, 64068, Note_on_c, 0, 65, 80
2, 64077, Control_c, 0, 64, 127
2, 64151, Note_on_c, 0, 70, 80
2, 64154, Note_on_c, 0, 65, 0
2, 64174, Control_c, 0, 64, 0
2, 64205, Note_on_c, 0, 70, 0
2, 64218, Note_on_c, 0, 65, 80
2, 64218, Note_on_c, 0, 74, 80
2, 64253, Note_on_c, 0, 74, 0
2, 64266, Note_on_c, 0, 46, 0
2, 64268, Note_on_c, 0, 65, 0
2, 64272, Note_on_c, 0, 58, 0
2, 64286, Note_on_c, 0, 45, 80
2, 64293, Note_on_c, 0, 57, 80
2, 64293, Note_on_c, 0, 74, 80
2, 64293, Note_on_c, 0, 78, 80
2, 64361, Note_on_c, 0, 66, 80
2, 64371, Note_on_c, 0, 74, 0
2, 64384, Note_on_c, 0, 78, 0
2, 64452, Note_on_c, 0, 72, 80
2, 64452, Note_on_c, 0, 74, 80
2, 64473, Note_on_c, 0, 74, 0
2, 64475, Note_on_c, 0, 72, 0
2, 64486, Note_on_c, 0, 45, 0
2, 64488, Note_on_c, 0, 66, 0
2, 64491, Note_on_c, 0, 57, 0
2, 64512, Note_on_c, 0, 72, 80
2, 64512, Note_on_c, 0, 74, 80
2, 64572, Note_on_c, 0, 74, 0
2, 64572, Note_on_c, 0, 72, 0
2, 64608, Note_on_c, 0, 43, 80
2, 64609, Note_on_c, 0, 50, 80
2, 64613, Note_on_c, 0, 59, 80
2, 64613, Note_on_c, 0, 79, 80
2, 64617, Note_on_c, 0, 71, 80
2, 64657, Control_c, 0, 64, 127
2, 64661, Note_on_c, 0, 79, 0
2, 64672, Note_on_c, 0, 71, 0
2, 64689, Note_on_c, 0, 77, 80
2, 64770, Note_on_c, 0, 74, 80
2, 64789, Note_on_c, 0, 77, 0
2, 64800, Control_c, 0, 64, 0
2, 64844, Note_on_c, 0, 71, 80
2, 64930, Note_on_c, 0, 43, 0
2, 64937, Note_on_c, 0, 50, 0
2, 64939, Note_on_c, 0, 71, 0
2, 64939, Note_on_c, 0, 59, 0
2, 64941, Note_on_c, 0, 74, 0
2, 64979, Note_on_c, 0, 79, 80
2, 64986, Note_on_c, 0, 71, 80
2, 64986, Note_on_c, 0, 74, 80
2, 64990, Note_on_c, 0, 67, 80
2, 65032, Note_on_c, 0, 67, 0
2, 65034, Note_on_c, 0, 79, 0
2, 65059, Note_on_c, 0, 43, 80
2, 65061, Note_on_c, 0, 66, 80
2, 65064, Note_on_c, 0, 50, 80
2, 65073, Note_on_c, 0, 71, 0
2, 65073, Note_on_c, 0, 78, 80
2, 65077, Note_on_c, 0, 74, 0
2, 65111, Note_on_c, 0, 78, 0
2, 65125, Note_on_c, 0, 66, 0
2, 65129, Control_c, 0, 64, 127
2, 65131, Note_on_c, 0, 43, 0
2, 65131, Note_on_c, 0, 65, 80
2, 65137, Note_on_c, 0, 71, 80
2, 65137, Note_on_c, 0, 74, 80
2, 65137, Note_on_c, 0, 77, 80
2, 65146, Note_on_c, 0, 50, 0
2, 65174, Note_on_c, 0, 74, 0
2, 65174, Note_on_c, 0, 77, 0
2, 65174, Note_on_c, 0, 71, 0
2, 65197, Note_on_c, 0, 65, 0
2, 65204, Note_on_c, 0, 43, 80
2, 65210, Note_on_c, 0, 52, 80
2, 65210, Note_on_c, 0, 72, 80
2, 65214, Note_on_c, 0, 76, 80
2, 65218, Note_on_c, 0, 64, 80
2, 65252, Control_c, 0, 64, 0
2, 65264, Note_on_c, 0, 43, 0
2, 65268, Note_on_c, 0, 64, 0
2, 65270, Note_on_c, 0, 52, 0
2, 65270, Note_on_c, 0, 76, 0
2, 65274, Note_on_c, 0, 72, 0
2, 65282, Note_on_c, 0, 74, 80
2, 65289, Note_on_c, 0, 86, 80
2, 65328, Note_on_c, 0, 86, 0
2, 65331, Note_on_c, 0, 74, 0
2, 65359, Note_on_c, 0, 55, 80
2, 65366, Note_on_c, 0, 58, 80
2, 65366, Note_on_c, 0, 60, 80
2, 65366, Note_on_c, 0, 64, 80
2, 65368, Note_on_c, 0, 79, 80
2, 65375, Note_on_c, 0, 73, 80
2, 65375, Note_on_c, 0, 85, 80
2, 65381, Note_on_c, 0, 82, 80
2, 65413, Note_on_c, 0, 79, 0
2, 65417, Note_on_c, 0, 82, 0
2, 65425, Note_on_c, 0, 73, 0
2, 65427, Note_on_c, 0, 85, 0
2, 65436, Note_on_c, 0, 74, 80
2, 65436, Note_on_c, 0, 79, 80
2, 65440, Note_on_c, 0, 82, 80
2, 65440, Note_on_c, 0, 86, 80
2, 65444, Note_on_c, 0, 58, 0
2, 65446, Note_on_c, 0, 64, 0
2, 65446, Note_on_c, 0, 60, 0
2, 65449, Note_on_c, 0, 55, 0
2, 65460, Note_on_c, 0, 36, 80
2, 65490, Note_on_c, 0, 79, 0
2, 65494, Note_on_c, 0, 74, 0
2, 65496, Note_on_c, 0, 86, 0
2, 65496, Note_on_c, 0, 82, 0
2, 65510, Note_on_c, 0, 43, 80
2, 65510, Note_on_c, 0, 72, 80
2, 65514, Note_on_c, 0, 52, 80
2, 65520, Note_on_c, 0, 84, 80
2, 65527, Note_on_c, 0, 36, 0
2, 65557, Note_on_c, 0, 72, 0
2, 65561, Note_on_c, 0, 43, 0
2, 65573, Note_on_c, 0, 52, 0
2, 65575, Note_on_c, 0, 79, 80
2, 65577, Note_on_c, 0, 84, 0
2, 65579, Note_on_c, 0, 76, 80
2, 65583, Note_on_c, 0, 82, 80
2, 65585, Note_on_c, 0, 70, 80
2, 65655, Note_on_c, 0, 55, 80
2, 65665, Note_on_c, 0, 58, 80
2, 65665, Note_on_c, 0, 60, 80
2, 65665, Note_on_c, 0, 64, 80
2, 65687, Note_on_c, 0, 70, 0
2, 65693, Note_on_c, 0, 76, 0
2, 65695, Note_on_c, 0, 79, 0
2, 65695, Note_on_c, 0, 82, 0
2, 65702, Note_on_c, 0, 58, 0
2, 65704, Note_on_c, 0, 60, 0
2, 65716, Control_c, 0, 64, 127
2, 65720, Note_on_c, 0, 55, 0
2, 65722, Note_on_c, 0, 64, 0
2, 65724, Note_on_c, 0, 57, 80
2, 65728, Note_on_c, 0, 63, 80
2, 65732, Note_on_c, 0, 69, 80
2, 65736, Note_on_c, 0, 75, 80
2, 65753, Note_on_c, 0, 58, 80
2, 65772, Note_on_c, 0, 75, 0
2, 65772, Note_on_c, 0, 69, 0
2, 65772, Note_on_c, 0, 63, 0
2, 65783, Note_on_c, 0, 59, 80
2, 65784, Note_on_c, 0, 58, 0
2, 65791, Note_on_c, 0, 57, 0
2, 65798, Note_on_c, 0, 66, 80
2, 65815, Note_on_c, 0, 60, 80
2, 65819, Note_on_c, 0, 78, 80
2, 65821, Note_on_c, 0, 59, 0
2, 65828, Control_c, 0, 64, 0
2, 65874, Note_on_c, 0, 66, 0
2, 65884, Note_on_c, 0, 78, 0
2, 65884, Note_on_c, 0, 79, 80
2, 65888, Note_on_c, 0, 67, 80
2, 65895, Note_on_c, 0, 75, 80
2, 65899, Note_on_c, 0, 60, 0
2, 65967, Note_on_c, 0, 79, 0
2, 65971, Note_on_c, 0, 53, 80
2, 65971, Note_on_c, 0, 57, 80
2, 65971, Note_on_c, 0, 60, 80
2, 65975, Note_on_c, 0, 75, 0
2, 65975, Note_on_c, 0, 63, 80
2, 65976, Note_on_c, 0, 67, 0
2, 66031, Note_on_c, 0, 53, 0
2, 66035, Note_on_c, 0, 63, 0
2, 66037, Note_on_c, 0, 60, 0
2, 66044, Note_on_c, 0, 57, 0
2, 66046, Note_on_c, 0, 65, 80
2, 66046, Note_on_c, 0, 72, 80
2, 66046, Note_on_c, 0, 77, 80
2, 66048, Note_on_c, 0, 69, 80
2, 66118, Note_on_c, 0, 65, 0
2, 66120, Note_on_c, 0, 41, 80
2, 66121, Note_on_c, 0, 72, 0
2, 66121, Note_on_c, 0, 77, 0
2, 66121, Note_on_c, 0, 48, 80
2, 66123, Note_on_c, 0, 69, 0
2, 66193, Note_on_c, 0, 65, 80
2, 66193, Note_on_c, 0, 69, 80
2, 66200, Note_on_c, 0, 73, 80
2, 66230, Note_on_c, 0, 48, 0
2, 66230, Note_on_c, 0, 41, 0
2, 66239, Note_on_c, 0, 73, 0
2, 66239, Note_on_c, 0, 65, 0
2, 66247, Note_on_c, 0, 69, 0
2, 66277, Note_on_c, 0, 63, 80
2, 66279, Note_on_c, 0, 53, 80
2, 66279, Note_on_c, 0, 57, 80
2, 66283, Note_on_c, 0, 60, 80
2, 66283, Note_on_c, 0, 74, 80
2, 66287, Note_on_c, 0, 65, 80
2, 66336, Note_on_c, 0, 53, 0
2, 66339, Note_on_c, 0, 57, 0
2, 66339, Note_on_c, 0, 60, 0
2, 66339, Note_on_c, 0, 63, 0
2, 66339, Note_on_c, 0, 65, 0
2, 66339, Control_c, 0, 64, 127
2, 66350, Note_on_c, 0, 70, 80
2, 66359, Note_on_c, 0, 74, 0
2, 66397, Note_on_c, 0, 72, 80
2, 66411, Note_on_c, 0, 70, 0
2, 66426, Note_on_c, 0, 50, 80
2, 66428, Note_on_c, 0, 62, 80
2, 66451, Note_on_c, 0, 70, 80
2, 66457, Note_on_c, 0, 72, 0
2, 66466, Control_c, 0, 64, 0
2, 66504, Note_on_c, 0, 50, 0
2, 66508, Note_on_c, 0, 62, 0
2, 66580, Note_on_c, 0, 49, 80
2, 66584, Note_on_c, 0, 61, 80
2, 66639, Note_on_c, 0, 61, 0
2, 66641, Note_on_c, 0, 49, 0
2, 66643, Note_on_c, 0, 70, 0
2, 66647, Note_on_c, 0, 72, 80
2, 66648, Note_on_c, 0, 65, 80
2, 66712, Note_on_c, 0, 65, 0
2, 66716, Note_on_c, 0, 72, 0
2, 66730, Note_on_c, 0, 48, 80
2, 66732, Note_on_c, 0, 60, 80
2, 66739, Note_on_c, 0, 67, 80
2, 66770, Note_on_c, 0, 48, 0
2, 66792, Note_on_c, 0, 67, 0
2, 66792, Note_on_c, 0, 60, 0
2, 66806, Note_on_c, 0, 70, 80
2, 66885, Note_on_c, 0, 70, 0
2, 66887, Note_on_c, 0, 63, 80
2, 66890, Note_on_c, 0, 53, 80
2, 66890, Note_on_c, 0, 57, 80
2, 66890, Note_on_c, 0, 60, 80
2, 66890, Note_on_c, 0, 72, 80
2, 66943, Note_on_c, 0, 53, 0
2, 66947, Note_on_c, 0, 60, 0
2, 66947, Note_on_c, 0, 63, 0
2, 66954, Note_on_c, 0, 57, 0
2, 66954, Note_on_c, 0, 72, 0
2, 66964, Note_on_c, 0, 70, 80
2, 67003, Control_c, 0, 64, 127
2, 67038, Note_on_c, 0, 70, 0
2, 67038, Note_on_c, 0, 62, 80
2, 67040, Note_on_c, 0, 53, 80
2, 67084, Control_c, 0, 64, 0
2, 67104, Note_on_c, 0, 91, 80
2, 67107, Note_on_c, 0, 79, 80
2, 67111, Note_on_c, 0, 53, 0
2, 67111, Note_on_c, 0, 62, 0
2, 67160, Note_on_c, 0, 91, 0
2, 67167, Note_on_c, 0, 79, 0
2, 67190, Note_on_c, 0, 41, 80
2, 67190, Note_on_c, 0, 48, 80
2, 67194, Note_on_c, 0, 53, 80
2, 67255, Note_on_c, 0, 79, 80
2, 67257, Note_on_c, 0, 48, 0
2, 67259, Note_on_c, 0, 53, 0
2, 67259, Note_on_c, 0, 86, 80
2, 67259, Note_on_c, 0, 91, 80
2, 67261, Note_on_c, 0, 41, 0
2, 67299, Note_on_c, 0, 91, 0
2, 67301, Note_on_c, 0, 86, 0
2, 67320, Note_on_c, 0, 79, 0
2, 67333, Note_on_c, 0, 55, 80
2, 67335, Note_on_c, 0, 43, 80
2, 67337, Note_on_c, 0, 50, 80
2, 67341, Note_on_c, 0, 77, 80
2, 67344, Note_on_c, 0, 86, 80
2, 67344, Note_on_c, 0, 89, 80
2, 67380, Note_on_c, 0, 86, 0
2, 67384, Note_on_c, 0, 77, 0
2, 67384, Note_on_c, 0, 43, 0
2, 67394, Note_on_c, 0, 50, 0
2, 67398, Note_on_c, 0, 55, 0
2, 67402, Note_on_c, 0, 89, 0
2, 67404, Note_on_c, 0, 79, 80
2, 67404, Note_on_c, 0, 91, 80
2, 67408, Note_on_c, 0, 86, 80
2, 67446, Note_on_c, 0, 86, 0
2, 67457, Note_on_c, 0, 91, 0
2, 67465, Note_on_c, 0, 79, 0
2, 67483, Note_on_c, 0, 45, 80
2, 67489, Note_on_c, 0, 52, 80
2, 67489, Note_on_c, 0, 57, 80
2, 67491, Note_on_c, 0, 77, 80
2, 67493, Note_on_c, 0, 89, 80
2, 67495, Note_on_c, 0, 86, 80
2, 67560, Note_on_c, 0, 52, 0
2, 67560, Note_on_c, 0, 45, 0
2, 67562, Control_c, 0, 64, 127
2, 67564, Note_on_c, 0, 57, 0
2, 67564, Note_on_c, 0, 86, 0
2, 67568, Note_on_c, 0, 77, 0
2, 67568, Note_on_c, 0, 89, 0
2, 67636, Note_on_c, 0, 53, 80
2, 67638, Note_on_c, 0, 74, 80
2, 67642, Note_on_c, 0, 86, 80
2, 67644, Note_on_c, 0, 58, 80
2, 67644, Note_on_c, 0, 82, 80
2, 67680, Control_c, 0, 64, 0
2, 67694, Note_on_c, 0, 58, 0
2, 67708, Note_on_c, 0, 53, 0
2, 67710, Note_on_c, 0, 86, 0
2, 67712, Note_on_c, 0, 74, 0
2, 67714, Note_on_c, 0, 82, 0
2, 67779, Note_on_c, 0, 50, 80
2, 67779, Note_on_c, 0, 62, 80
2, 67786, Note_on_c, 0, 91, 80
2, 67788, Note_on_c, 0, 58, 80
2, 67788, Note_on_c, 0, 79, 80
2, 67792, Note_on_c, 0, 86, 80
2, 67827, Note_on_c, 0, 91, 0
2, 67829, Note_on_c, 0, 86, 0
2, 67833, Note_on_c, 0, 79, 0
2, 67852, Note_on_c, 0, 78, 80
2, 67856, Note_on_c, 0, 86, 80
2, 67856, Note_on_c, 0, 90, 80
2, 67860, Note_on_c, 0, 50, 0
2, 67860, Note_on_c, 0, 58, 0
2, 67860, Note_on_c, 0, 62, 0
2, 67896, Note_on_c, 0, 90, 0
2, 67899, Note_on_c, 0, 86, 0
2, 67901, Note_on_c, 0, 78, 0
2, 67924, Note_on_c, 0, 41, 80
2, 67933, Note_on_c, 0, 48, 80
2, 67937, Note_on_c, 0, 77, 80
2, 67937, Note_on_c, 0, 86, 80
2, 67937, Note_on_c, 0, 89, 80
2, 67970, Note_on_c, 0, 48, 0
2, 67970, Note_on_c, 0, 41, 0
2, 68002, Note_on_c, 0, 86, 0
2, 68006, Note_on_c, 0, 77, 0
2, 68006, Note_on_c, 0, 89, 0
2, 68067, Note_on_c, 0, 53, 80
2, 68076, Note_on_c, 0, 58, 80
2, 68076, Note_on_c, 0, 62, 80
2, 68076, Note_on_c, 0, 74, 80
2, 68076, Note_on_c, 0, 86, 80
2, 68120, Note_on_c, 0, 86, 0
2, 68122, Note_on_c, 0, 74, 0
2, 68143, Note_on_c, 0, 72, 80
2, 68145, Note_on_c, 0, 53, 0
2, 68145, Note_on_c, 0, 84, 80
2, 68147, Control_c, 0, 64, 127
2, 68154, Note_on_c, 0, 58, 0
2, 68154, Note_on_c, 0, 62, 0
2, 68182, Note_on_c, 0, 72, 0
2, 68190, Note_on_c, 0, 84, 0
2, 68215, Note_on_c, 0, 48, 80
2, 68219, Note_on_c, 0, 57, 80
2, 68228, Note_on_c, 0, 87, 80
2, 68234, Note_on_c, 0, 75, 80
2, 68241, Note_on_c, 0, 81, 80
2, 68252, Control_c, 0, 64, 0
2, 68266, Note_on_c, 0, 48, 0
2, 68287, Note_on_c, 0, 75, 0
2, 68294, Note_on_c, 0, 57, 0
2, 68294, Note_on_c, 0, 87, 0
2, 68298, Note_on_c, 0, 81, 0
2, 68300, Note_on_c, 0, 71, 80
2, 68302, Note_on_c, 0, 83, 80
2, 68352, Note_on_c, 0, 71, 0
2, 68365, Note_on_c, 0, 83, 0
2, 68374, Note_on_c, 0, 53, 80
2, 68377, Note_on_c, 0, 57, 80
2, 68377, Note_on_c, 0, 60, 80
2, 68379, Note_on_c, 0, 74, 80
2, 68381, Note_on_c, 0, 63, 80
2, 68385, Note_on_c, 0, 86, 80
2, 68392, Note_on_c, 0, 81, 80
2, 68425, Note_on_c, 0, 81, 0
2, 68425, Note_on_c, 0, 74, 0
2, 68445, Note_on_c, 0, 86, 0
2, 68453, Note_on_c, 0, 72, 80
2, 68457, Note_on_c, 0, 53, 0
2, 68457, Note_on_c, 0, 63, 0
2, 68459, Note_on_c, 0, 81, 80
2, 68463, Note_on_c, 0, 60, 0
2, 68463, Note_on_c, 0, 84, 80
2, 68465, Note_on_c, 0, 57, 0
2, 68533, Note_on_c, 0, 41, 80
2, 68535, Note_on_c, 0, 48, 80
2, 68547, Note_on_c, 0, 72, 0
2, 68556, Note_on_c, 0, 84, 0
2, 68558, Note_on_c, 0, 81, 0
2, 68611, Note_on_c, 0, 65, 80
2, 68611, Note_on_c, 0, 77, 80
2, 68623, Note_on_c, 0, 41, 0
2, 68623, Note_on_c, 0, 48, 0
2, 68648, Note_on_c, 0, 65, 0
2, 68655, Note_on_c, 0, 77, 0
2, 68680, Note_on_c, 0, 53, 80
2, 68684, Note_on_c, 0, 63, 80
2, 68690, Note_on_c, 0, 57, 80
2, 68690, Note_on_c, 0, 79, 80
2, 68694, Note_on_c, 0, 60, 80
2, 68694, Note_on_c, 0, 67, 80
2, 68694, Note_on_c, 0, 75, 80
2, 68728, Note_on_c, 0, 53, 0
2, 68730, Note_on_c, 0, 63, 0
2, 68730, Note_on_c, 0, 75, 0
2, 68732, Note_on_c, 0, 60, 0
2, 68732, Note_on_c, 0, 57, 0
2, 68734, Note_on_c, 0, 67, 0
2, 68734, Note_on_c, 0, 79, 0
2, 68746, Control_c, 0, 64, 127
2, 68759, Note_on_c, 0, 65, 80
2, 68759, Note_on_c, 0, 69, 80
2, 68762, Note_on_c, 0, 77, 80
2, 68811, Note_on_c, 0, 65, 0
2, 68813, Note_on_c, 0, 77, 0
2, 68813, Note_on_c, 0, 69, 0
2, 68832, Note_on_c, 0, 46, 80
2, 68832, Note_on_c, 0, 56, 80
2, 68836, Note_on_c, 0, 74, 80
2, 68838, Note_on_c, 0, 70, 80
2, 68840, Note_on_c, 0, 77, 80
2, 68844, Note_on_c, 0, 82, 80
2, 68855, Control_c, 0, 64, 0
2, 68888, Note_on_c, 0, 77, 0
2, 68905, Note_on_c, 0, 46, 0
2, 68907, Note_on_c, 0, 56, 0
2, 68907, Note_on_c, 0, 74, 0
2, 68911, Note_on_c, 0, 82, 0
2, 68915, Note_on_c, 0, 70, 0
2, 68976, Note_on_c, 0, 53, 80
2, 68980, Note_on_c, 0, 56, 80
2, 68982, Note_on_c, 0, 62, 80
2, 68984, Note_on_c, 0, 91, 80
2, 68988, Note_on_c, 0, 58, 80
2, 68988, Note_on_c, 0, 79, 80
2, 69030, Note_on_c, 0, 91, 0
2, 69034, Note_on_c, 0, 79, 0
2, 69053, Note_on_c, 0, 53, 0
2, 69053, Note_on_c, 0, 78, 80
2, 69055, Note_on_c, 0, 90, 80
2, 69059, Note_on_c, 0, 58, 0
2, 69059, Note_on_c, 0, 62, 0
2, 69059, Note_on_c, 0, 86, 80
2, 69063, Note_on_c, 0, 56, 0
2, 69098, Note_on_c, 0, 86, 0
2, 69109, Note_on_c, 0, 90, 0
2, 69111, Note_on_c, 0, 78, 0
2, 69134, Note_on_c, 0, 41, 80
2, 69134, Note_on_c, 0, 48, 80
2, 69141, Note_on_c, 0, 77, 80
2, 69144, Note_on_c, 0, 86, 80
2, 69144, Note_on_c, 0, 89, 80
2, 69176, Note_on_c, 0, 86, 0
2, 69183, Note_on_c, 0, 89, 0
2, 69185, Note_on_c, 0, 77, 0
2, 69204, Note_on_c, 0, 73, 80
2, 69208, Note_on_c, 0, 48, 0
2, 69210, Note_on_c, 0, 41, 0
2, 69210, Note_on_c, 0, 80, 80
2, 69214, Note_on_c, 0, 85, 80
2, 69241, Note_on_c, 0, 80, 0
2, 69241, Note_on_c, 0, 73, 0
2, 69248, Note_on_c, 0, 85, 0
2, 69287, Note_on_c, 0, 58, 80
2, 69287, Note_on_c, 0, 65, 80
2, 69290, Note_on_c, 0, 56, 80
2, 69290, Note_on_c, 0, 62, 80
2, 69290, Note_on_c, 0, 74, 80
2, 69292, Note_on_c, 0, 80, 80
2, 69292, Note_on_c, 0, 86, 80
2, 69324, Note_on_c, 0, 62, 0
2, 69326, Control_c, 0, 64, 127
2, 69328, Note_on_c, 0, 56, 0
2, 69328, Note_on_c, 0, 65, 0
2, 69330, Note_on_c, 0, 80, 0
2, 69332, Note_on_c, 0, 58, 0
2, 69332, Note_on_c, 0, 74, 0
2, 69351, Note_on_c, 0, 86, 0
2, 69361, Note_on_c, 0, 82, 80
2, 69363, Note_on_c, 0, 70, 80
2, 69414, Note_on_c, 0, 70, 0
2, 69421, Note_on_c, 0, 82, 0
2, 69430, Control_c, 0, 64, 0
2, 69433, Note_on_c, 0, 46, 80
2, 69442, Note_on_c, 0, 56, 80
2, 69505, Note_on_c, 0, 68, 80
2, 69505, Note_on_c, 0, 80, 80
2, 69507, Note_on_c, 0, 46, 0
2, 69509, Note_on_c, 0, 56, 0
2, 69581, Note_on_c, 0, 62, 80
2, 69581, Note_on_c, 0, 65, 80
2, 69590, Note_on_c, 0, 80, 0
2, 69590, Note_on_c, 0, 58, 80
2, 69599, Note_on_c, 0, 68, 0
2, 69653, Note_on_c, 0, 75, 80
2, 69655, Note_on_c, 0, 65, 0
2, 69655, Note_on_c, 0, 58, 0
2, 69655, Note_on_c, 0, 62, 0
2, 69655, Note_on_c, 0, 80, 80
2, 69659, Note_on_c, 0, 68, 80
2, 69697, Note_on_c, 0, 80, 0
2, 69697, Note_on_c, 0, 75, 0
2, 69701, Note_on_c, 0, 68, 0
2, 69731, Note_on_c, 0, 41, 80
2, 69731, Note_on_c, 0, 48, 80
2, 69733, Note_on_c, 0, 53, 80
2, 69740, Note_on_c, 0, 74, 80
2, 69744, Note_on_c, 0, 67, 80
2, 69744, Note_on_c, 0, 79, 80
2, 69773, Note_on_c, 0, 41, 0
2, 69777, Note_on_c, 0, 48, 0
2, 69779, Note_on_c, 0, 67, 0
2, 69779, Note_on_c, 0, 53, 0
2, 69779, Note_on_c, 0, 79, 0
2, 69786, Note_on_c, 0, 74, 0
2, 69814, Note_on_c, 0, 70, 80
2, 69817, Note_on_c, 0, 82, 80
2, 69868, Note_on_c, 0, 82, 0
2, 69875, Note_on_c, 0, 70, 0
2, 69886, Note_on_c, 0, 46, 80
2, 69888, Note_on_c, 0, 53, 80
2, 69891, Note_on_c, 0, 56, 80
2, 69891, Note_on_c, 0, 69, 80
2, 69893, Note_on_c, 0, 81, 80
2, 69937, Note_on_c, 0, 69, 0
2, 69950, Note_on_c, 0, 81, 0
2, 69954, Note_on_c, 0, 53, 0
2, 69958, Note_on_c, 0, 80, 80
2, 69960, Note_on_c, 0, 46, 0
2, 69960, Note_on_c, 0, 68, 80
2, 69966, Control_c, 0, 64, 127
2, 69966, Note_on_c, 0, 75, 80
2, 69973, Note_on_c, 0, 56, 0
2, 70001, Note_on_c, 0, 80, 0
2, 70001, Note_on_c, 0, 75, 0
2, 70005, Note_on_c, 0, 68, 0
2, 70034, Control_c, 0, 64, 0
2, 70034, Note_on_c, 0, 55, 80
2, 70043, Note_on_c, 0, 46, 80
2, 70043, Note_on_c, 0, 51, 80
2, 70050, Note_on_c, 0, 67, 80
2, 70050, Note_on_c, 0, 79, 80
2, 70052, Note_on_c, 0, 75, 80
2, 70085, Note_on_c, 0, 75, 0
2, 70092, Note_on_c, 0, 67, 0
2, 70092, Note_on_c, 0, 79, 0
2, 70120, Note_on_c, 0, 70, 80
2, 70120, Note_on_c, 0, 82, 80
2, 70122, Note_on_c, 0, 55, 0
2, 70122, Note_on_c, 0, 46, 0
2, 70122, Note_on_c, 0, 51, 0
2, 70160, Note_on_c, 0, 70, 0
2, 70164, Note_on_c, 0, 82, 0
2, 70192, Note_on_c, 0, 63, 80
2, 70194, Note_on_c, 0, 72, 80
2, 70196, Note_on_c, 0, 79, 80
2, 70198, Note_on_c, 0, 58, 80
2, 70198, Note_on_c, 0, 67, 80
2, 70200, Note_on_c, 0, 84, 80
2, 70231, Note_on_c, 0, 79, 0
2, 70231, Note_on_c, 0, 63, 0
2, 70233, Note_on_c, 0, 67, 0
2, 70235, Note_on_c, 0, 72, 0
2, 70235, Note_on_c, 0, 84, 0
2, 70235, Note_on_c, 0, 58, 0
2, 70335, Note_on_c, 0, 34, 80
2, 70342, Note_on_c, 0, 72, 80
2, 70342, Note_on_c, 0, 79, 80
2, 70354, Note_on_c, 0, 84, 80
2, 70386, Note_on_c, 0, 72, 0
2, 70405, Note_on_c, 0, 34, 0
2, 70419, Note_on_c, 0, 84, 0
2, 70453, Note_on_c, 0, 79, 0
2, 70485, Note_on_c, 0, 63, 80
2, 70487, Note_on_c, 0, 79, 80
2, 70493, Note_on_c, 0, 58, 80
2, 70493, Note_on_c, 0, 67, 80
2, 70493, Note_on_c, 0, 84, 80
2, 70525, Note_on_c, 0, 79, 0
2, 70544, Note_on_c, 0, 84, 0
2, 70548, Note_on_c, 0, 79, 80
2, 70555, Note_on_c, 0, 58, 0
2, 70557, Note_on_c, 0, 70, 80
2, 70557, Note_on_c, 0, 82, 80
2, 70559, Note_on_c, 0, 67, 0
2, 70559, Note_on_c, 0, 63, 0
2, 70559, Control_c, 0, 64, 127
2, 70592, Note_on_c, 0, 79, 0
2, 70594, Note_on_c, 0, 70, 0
2, 70596, Note_on_c, 0, 82, 0
2, 70632, Note_on_c, 0, 39, 80
2, 70632, Note_on_c, 0, 43, 80
2, 70632, Note_on_c, 0, 46, 80
2, 70633, Note_on_c, 0, 79, 80
2, 70637, Note_on_c, 0, 51, 80
2, 70637, Note_on_c, 0, 73, 80
2, 70639, Note_on_c, 0, 85, 80
2, 70643, Note_on_c, 0, 82, 80
2, 70664, Note_on_c, 0, 79, 0
2, 70666, Note_on_c, 0, 82, 0
2, 70673, Note_on_c, 0, 85, 0
2, 70690, Control_c, 0, 64, 0
2, 70692, Note_on_c, 0, 73, 0
2, 70699, Note_on_c, 0, 43, 0
2, 70703, Note_on_c, 0, 39, 0
2, 70703, Note_on_c, 0, 46, 0
2, 70704, Note_on_c, 0, 79, 80
2, 70704, Note_on_c, 0, 82, 80
2, 70706, Note_on_c, 0, 70, 80
2, 70708, Note_on_c, 0, 51, 0
2, 70744, Note_on_c, 0, 70, 0
2, 70748, Note_on_c, 0, 82, 0
2, 70748, Note_on_c, 0, 79, 0
2, 70779, Note_on_c, 0, 63, 80
2, 70783, Note_on_c, 0, 60, 80
2, 70783, Note_on_c, 0, 72, 80
2, 70783, Note_on_c, 0, 79, 80
2, 70787, Note_on_c, 0, 56, 80
2, 70791, Note_on_c, 0, 82, 80
2, 70791, Note_on_c, 0, 84, 80
2, 70810, Note_on_c, 0, 79, 0
2, 70819, Note_on_c, 0, 82, 0
2, 70823, Note_on_c, 0, 56, 0
2, 70824, Note_on_c, 0, 63, 0
2, 70828, Note_on_c, 0, 60, 0
2, 70828, Note_on_c, 0, 84, 0
2, 70828, Note_on_c, 0, 72, 0
2, 70839, Note_on_c, 0, 55, 80
2, 70843, Note_on_c, 0, 43, 80
2, 70849, Note_on_c, 0, 79, 80
2, 70853, Note_on_c, 0, 73, 80
2, 70855, Note_on_c, 0, 85, 80
2, 70857, Note_on_c, 0, 82, 80
2, 70891, Note_on_c, 0, 73, 0
2, 70899, Note_on_c, 0, 79, 0
2, 70899, Note_on_c, 0, 82, 0
2, 70901, Note_on_c, 0, 85, 0
2, 70922, Note_on_c, 0, 72, 80
2, 70933, Note_on_c, 0, 79, 80
2, 70933, Note_on_c, 0, 82, 80
2, 70933, Note_on_c, 0, 84, 80
2, 70958, Note_on_c, 0, 43, 0
2, 70970, Note_on_c, 0, 82, 0
2, 70970, Note_on_c, 0, 79, 0
2, 70970, Note_on_c, 0, 84, 0
2, 70972, Note_on_c, 0, 55, 0
2, 70976, Note_on_c, 0, 72, 0
2, 70985, Note_on_c, 0, 42, 80
2, 70995, Note_on_c, 0, 54, 80
2, 70995, Note_on_c, 0, 70, 80
2, 71008, Note_on_c, 0, 82, 80
2, 71029, Note_on_c, 0, 42, 0
2, 71038, Note_on_c, 0, 54, 0
2, 71055, Note_on_c, 0, 82, 0
2, 71059, Note_on_c, 0, 70, 0
2, 71073, Note_on_c, 0, 41, 80
2, 71077, Note_on_c, 0, 53, 80
2, 71077, Note_on_c, 0, 67, 80
2, 71084, Note_on_c, 0, 79, 80
2, 71122, Note_on_c, 0, 67, 0
2, 71126, Note_on_c, 0, 79, 0
2, 71130, Note_on_c, 0, 53, 0
2, 71130, Note_on_c, 0, 41, 0
2, 71147, Control_c, 0, 64, 127
2, 71147, Note_on_c, 0, 65, 80
2, 71147, Note_on_c, 0, 77, 80
2, 71181, Note_on_c, 0, 77, 0
2, 71181, Note_on_c, 0, 65, 0
2, 71223, Note_on_c, 0, 49, 80
2, 71225, Note_on_c, 0, 61, 80
2, 71227, Note_on_c, 0, 74, 80
2, 71231, Note_on_c, 0, 70, 80
2, 71231, Note_on_c, 0, 77, 80
2, 71231, Note_on_c, 0, 80, 80
2, 71232, Note_on_c, 0, 82, 80
2, 71247, Control_c, 0, 64, 0
2, 71249, Note_on_c, 0, 74, 0
2, 71253, Note_on_c, 0, 77, 0
2, 71261, Note_on_c, 0, 49, 0
2, 71272, Note_on_c, 0, 70, 0
2, 71272, Note_on_c, 0, 80, 0
2, 71274, Note_on_c, 0, 82, 0
2, 71278, Note_on_c, 0, 61, 0
2, 71290, Note_on_c, 0, 50, 80
2, 71290, Note_on_c, 0, 62, 80
2, 71294, Note_on_c, 0, 74, 80
2, 71294, Note_on_c, 0, 77, 80
2, 71380, Note_on_c, 0, 62, 0
2, 71382, Note_on_c, 0, 50, 0
2, 71401, Note_on_c, 0, 74, 0
2, 71408, Note_on_c, 0, 77, 0
2, 71423, Note_on_c, 0, 49, 80
2, 71437, Note_on_c, 0, 61, 80
2, 71439, Note_on_c, 0, 73, 80
2, 71448, Note_on_c, 0, 67, 80
2, 71448, Note_on_c, 0, 77, 80
2, 71477, Note_on_c, 0, 73, 0
2, 71479, Note_on_c, 0, 61, 0
2, 71481, Note_on_c, 0, 49, 0
2, 71485, Note_on_c, 0, 77, 0
2, 71485, Note_on_c, 0, 67, 0
2, 71523, Note_on_c, 0, 50, 80
2, 71532, Note_on_c, 0, 74, 80
2, 71534, Note_on_c, 0, 62, 80
2, 71534, Note_on_c, 0, 77, 80
2, 71541, Note_on_c, 0, 67, 80
2, 71574, Note_on_c, 0, 62, 0
2, 71576, Note_on_c, 0, 50, 0
2, 71576, Note_on_c, 0, 67, 0
2, 71576, Note_on_c, 0, 74, 0
2, 71578, Note_on_c, 0, 77, 0
2, 71694, Note_on_c, 0, 53, 80
2, 71694, Note_on_c, 0, 69, 80
2, 71698, Note_on_c, 0, 65, 80
2, 71698, Note_on_c, 0, 74, 80
2, 71702, Note_on_c, 0, 77, 80
2, 71706, Note_on_c, 0, 81, 80
2, 71750, Control_c, 0, 64, 127
2, 71757, Note_on_c, 0, 65, 0
2, 71759, Note_on_c, 0, 53, 0
2, 71767, Note_on_c, 0, 77, 0
2, 71769, Note_on_c, 0, 74, 0
2, 71771, Note_on_c, 0, 81, 0
2, 71775, Note_on_c, 0, 69, 0
2, 71834, Note_on_c, 0, 50, 80
2, 71836, Note_on_c, 0, 62, 80
2, 71838, Note_on_c, 0, 67, 80
2, 71838, Note_on_c, 0, 74, 80
2, 71838, Note_on_c, 0, 79, 80
2, 71840, Control_c, 0, 64, 0
2, 71844, Note_on_c, 0, 77, 80
2, 71874, Note_on_c, 0, 62, 0
2, 71876, Note_on_c, 0, 74, 0
2, 71882, Note_on_c, 0, 79, 0
2, 71882, Note_on_c, 0, 67, 0
2, 71886, Note_on_c, 0, 77, 0
2, 71888, Note_on_c, 0, 50, 0
2, 71899, Note_on_c, 0, 49, 80
2, 71903, Note_on_c, 0, 61, 80
2, 71903, Note_on_c, 0, 67, 80
2, 71903, Note_on_c, 0, 73, 80
2, 71934, Note_on_c, 0, 49, 0
2, 71938, Note_on_c, 0, 61, 0
2, 71942, Note_on_c, 0, 67, 0
2, 71961, Note_on_c, 0, 73, 0
2, 71978, Note_on_c, 0, 50, 80
2, 71978, Note_on_c, 0, 74, 80
2, 71982, Note_on_c, 0, 62, 80
2, 71982, Note_on_c, 0, 67, 80
2, 71986, Note_on_c, 0, 77, 80
2, 72007, Note_on_c, 0, 74, 0
2, 72011, Note_on_c, 0, 67, 0
2, 72015, Note_on_c, 0, 50, 0
2, 72015, Note_on_c, 0, 62, 0
2, 72034, Note_on_c, 0, 46, 80
2, 72038, Note_on_c, 0, 77, 0
2, 72040, Note_on_c, 0, 79, 80
2, 72042, Note_on_c, 0, 74, 80
2, 72044, Note_on_c, 0, 58, 80
2, 72044, Note_on_c, 0, 67, 80
2, 72105, Note_on_c, 0, 46, 0
2, 72105, Note_on_c, 0, 65, 80
2, 72107, Note_on_c, 0, 50, 80
2, 72109, Note_on_c, 0, 77, 80
2, 72111, Note_on_c, 0, 67, 0
2, 72111, Note_on_c, 0, 62, 80
2, 72113, Note_on_c, 0, 58, 0
2, 72115, Note_on_c, 0, 79, 0
2, 72185, Note_on_c, 0, 72, 80
2, 72195, Note_on_c, 0, 84, 80
2, 72215, Note_on_c, 0, 65, 0
2, 72215, Note_on_c, 0, 62, 0
2, 72216, Note_on_c, 0, 77, 0
2, 72218, Note_on_c, 0, 74, 0
2, 72263, Note_on_c, 0, 61, 80
2, 72264, Note_on_c, 0, 50, 0
2, 72266, Note_on_c, 0, 49, 80
2, 72268, Note_on_c, 0, 70, 80
2, 72272, Note_on_c, 0, 82, 80
2, 72302, Note_on_c, 0, 84, 0
2, 72302, Control_c, 0, 64, 127
2, 72311, Note_on_c, 0, 72, 0
2, 72332, Control_c, 0, 64, 0
2, 72338, Note_on_c, 0, 61, 0
2, 72342, Note_on_c, 0, 70, 0
2, 72344, Note_on_c, 0, 82, 0
2, 72344, Note_on_c, 0, 49, 0
2, 72369, Control_c, 0, 64, 127
2, 72401, Control_c, 0, 64, 0
2, 72401, Note_on_c, 0, 48, 80
2, 72403, Note_on_c, 0, 60, 80
2, 72407, Note_on_c, 0, 69, 80
2, 72410, Note_on_c, 0, 75, 80
2, 72414, Note_on_c, 0, 81, 80
2, 72442, Note_on_c, 0, 48, 0
2, 72451, Note_on_c, 0, 60, 0
2, 72453, Note_on_c, 0, 81, 0
2, 72455, Note_on_c, 0, 69, 0
2, 72456, Note_on_c, 0, 75, 0
2, 72478, Note_on_c, 0, 66, 80
2, 72478, Note_on_c, 0, 78, 80
2, 72481, Note_on_c, 0, 75, 80
2, 72520, Note_on_c, 0, 66, 0
2, 72524, Note_on_c, 0, 75, 0
2, 72530, Note_on_c, 0, 78, 0
2, 72558, Note_on_c, 0, 53, 80
2, 72560, Note_on_c, 0, 57, 80
2, 72560, Note_on_c, 0, 60, 80
2, 72560, Note_on_c, 0, 63, 80
2, 72571, Note_on_c, 0, 67, 80
2, 72571, Note_on_c, 0, 75, 80
2, 72571, Note_on_c, 0, 79, 80
2, 72630, Note_on_c, 0, 53, 0
2, 72637, Note_on_c, 0, 63, 0
2, 72637, Note_on_c, 0, 60, 0
2, 72639, Note_on_c, 0, 79, 0
2, 72639, Note_on_c, 0, 75, 0
2, 72641, Note_on_c, 0, 57, 0
2, 72641, Note_on_c, 0, 67, 0
2, 72702, Note_on_c, 0, 65, 80
2, 72702, Note_on_c, 0, 72, 80
2, 72704, Note_on_c, 0, 41, 80
2, 72708, Note_on_c, 0, 48, 80
2, 72708, Note_on_c, 0, 69, 80
2, 72710, Note_on_c, 0, 75, 80
2, 72714, Note_on_c, 0, 77, 80
2, 72771, Note_on_c, 0, 41, 0
2, 72775, Note_on_c, 0, 48, 0
2, 72811, Note_on_c, 0, 65, 0
2, 72849, Note_on_c, 0, 53, 80
2, 72849, Note_on_c, 0, 57, 80
2, 72849, Note_on_c, 0, 60, 80
2, 72849, Note_on_c, 0, 63, 80
2, 72853, Note_on_c, 0, 67, 80
2, 72904, Control_c, 0, 64, 127
2, 72914, Note_on_c, 0, 53, 0
2, 72925, Note_on_c, 0, 77, 0
2, 72925, Note_on_c, 0, 67, 0
2, 72925, Note_on_c, 0, 75, 0
2, 72925, Note_on_c, 0, 63, 0
2, 72925, Note_on_c, 0, 60, 0
2, 72927, Note_on_c, 0, 72, 0
2, 72927, Note_on_c, 0, 69, 0
2, 72927, Note_on_c, 0, 57, 0
2, 72990, Note_on_c, 0, 60, 80
2, 72994, Note_on_c, 0, 55, 80
2, 72998, Note_on_c, 0, 73, 80
2, 73002, Note_on_c, 0, 48, 80
2, 73008, Note_on_c, 0, 82, 80
2, 73008, Note_on_c, 0, 85, 80
2, 73033, Note_on_c, 0, 85, 0
2, 73033, Control_c, 0, 64, 0
2, 73042, Note_on_c, 0, 82, 0
2, 73049, Note_on_c, 0, 48, 0
2, 73051, Note_on_c, 0, 73, 0
2, 73051, Note_on_c, 0, 55, 0
2, 73057, Note_on_c, 0, 74, 80
2, 73066, Note_on_c, 0, 82, 80
2, 73066, Note_on_c, 0, 86, 80
2, 73070, Note_on_c, 0, 60, 0
2, 73100, Note_on_c, 0, 82, 0
2, 73119, Note_on_c, 0, 86, 0
2, 73121, Note_on_c, 0, 74, 0
2, 73142, Note_on_c, 0, 53, 80
2, 73142, Note_on_c, 0, 63, 80
2, 73146, Note_on_c, 0, 57, 80
2, 73146, Note_on_c, 0, 60, 80
2, 73146, Note_on_c, 0, 73, 80
2, 73152, Note_on_c, 0, 85, 80
2, 73159, Note_on_c, 0, 82, 80
2, 73201, Note_on_c, 0, 85, 0
2, 73203, Note_on_c, 0, 73, 0
2, 73210, Note_on_c, 0, 82, 0
2, 73210, Note_on_c, 0, 74, 80
2, 73217, Note_on_c, 0, 53, 0
2, 73217, Note_on_c, 0, 86, 80
2, 73225, Note_on_c, 0, 60, 0
2, 73225, Note_on_c, 0, 63, 0
2, 73229, Note_on_c, 0, 57, 0
2, 73273, Note_on_c, 0, 74, 0
2, 73275, Note_on_c, 0, 86, 0
2, 73295, Note_on_c, 0, 41, 80
2, 73298, Note_on_c, 0, 48, 80
2, 73298, Note_on_c, 0, 65, 80
2, 73305, Note_on_c, 0, 77, 80
2, 73347, Note_on_c, 0, 48, 0
2, 73347, Note_on_c, 0, 41, 0
2, 73354, Note_on_c, 0, 65, 0
2, 73361, Note_on_c, 0, 77, 0
2, 73368, Note_on_c, 0, 74, 80
2, 73368, Note_on_c, 0, 79, 80
2, 73371, Note_on_c, 0, 67, 80
2, 73450, Note_on_c, 0, 79, 0
2, 73467, Note_on_c, 0, 67, 0
2, 73467, Note_on_c, 0, 74, 0
2, 73469, Note_on_c, 0, 53, 80
2, 73469, Note_on_c, 0, 60, 80
2, 73469, Note_on_c, 0, 63, 80
2, 73473, Note_on_c, 0, 57, 80
2, 73486, Note_on_c, 0, 77, 80
2, 73517, Note_on_c, 0, 77, 0
2, 73530, Control_c, 0, 64, 127
2, 73536, Note_on_c, 0, 57, 0
2, 73543, Note_on_c, 0, 70, 80
2, 73545, Note_on_c, 0, 74, 80
2, 73547, Note_on_c, 0, 53, 0
2, 73547, Note_on_c, 0, 77, 80
2, 73547, Note_on_c, 0, 80, 80
2, 73551, Note_on_c, 0, 60, 0
2, 73551, Note_on_c, 0, 63, 0
2, 73551, Note_on_c, 0, 82, 80
2, 73604, Note_on_c, 0, 80, 0
2, 73616, Note_on_c, 0, 53, 80
2, 73618, Note_on_c, 0, 62, 80
2, 73627, Control_c, 0, 64, 0
2, 73627, Note_on_c, 0, 58, 80
2, 73652, Note_on_c, 0, 53, 0
2, 73654, Note_on_c, 0, 62, 0
2, 73664, Note_on_c, 0, 58, 0
2, 73683, Note_on_c, 0, 82, 0
2, 73717, Note_on_c, 0, 70, 0
2, 73717, Note_on_c, 0, 74, 0
2, 73719, Note_on_c, 0, 77, 0
2, 73770, Note_on_c, 0, 41, 80
2, 73770, Note_on_c, 0, 53, 80
2, 73772, Note_on_c, 0, 65, 80
2, 73776, Note_on_c, 0, 74, 80
2, 73779, Note_on_c, 0, 77, 80
2, 73813, Note_on_c, 0, 65, 0
2, 73817, Note_on_c, 0, 74, 0
2, 73817, Note_on_c, 0, 77, 0
2, 73836, Note_on_c, 0, 66, 80
2, 73843, Note_on_c, 0, 78, 80
2, 73845, Note_on_c, 0, 41, 0
2, 73847, Note_on_c, 0, 53, 0
2, 73878, Note_on_c, 0, 66, 0
2, 73891, Note_on_c, 0, 78, 0
2, 73914, Note_on_c, 0, 43, 80
2, 73916, Note_on_c, 0, 55, 80
2, 73926, Note_on_c, 0, 67, 80
2, 73926, Note_on_c, 0, 79, 80
2, 73986, Note_on_c, 0, 67, 0
2, 73992, Note_on_c, 0, 43, 0
2, 73994, Note_on_c, 0, 79, 0
2, 73998, Note_on_c, 0, 70, 80
2, 74005, Note_on_c, 0, 82, 80
2, 74024, Note_on_c, 0, 55, 0
2, 74079, Note_on_c, 0, 70, 0
2, 74081, Note_on_c, 0, 45, 80
2, 74083, Note_on_c, 0, 82, 0
2, 74085, Note_on_c, 0, 67, 80
2, 74085, Note_on_c, 0, 79, 80
2, 74087, Note_on_c, 0, 57, 80
2, 74129, Note_on_c, 0, 45, 0
2, 74139, Control_c, 0, 64, 127
2, 74146, Note_on_c, 0, 46, 80
2, 74148, Note_on_c, 0, 67, 0
2, 74148, Note_on_c, 0, 57, 0
2, 74150, Note_on_c, 0, 79, 0
2, 74150, Note_on_c, 0, 56, 80
2, 74157, Note_on_c, 0, 70, 80
2, 74157, Note_on_c, 0, 77, 80
2, 74157, Note_on_c, 0, 80, 80
2, 74159, Note_on_c, 0, 74, 80
2, 74162, Note_on_c, 0, 82, 80
2, 74208, Note_on_c, 0, 46, 0
2, 74226, Note_on_c, 0, 80, 0
2, 74228, Note_on_c, 0, 77, 0
2, 74228, Note_on_c, 0, 70, 0
2, 74230, Note_on_c, 0, 82, 0
2, 74233, Note_on_c, 0, 74, 0
2, 74235, Note_on_c, 0, 56, 0
2, 74242, Note_on_c, 0, 46, 80
2, 74270, Control_c, 0, 64, 0
2, 74289, Note_on_c, 0, 74, 80
2, 74296, Note_on_c, 0, 70, 80
2, 74298, Note_on_c, 0, 58, 80
2, 74302, Note_on_c, 0, 82, 80
2, 74331, Note_on_c, 0, 46, 0
2, 74356, Note_on_c, 0, 82, 0
2, 74371, Note_on_c, 0, 58, 0
2, 74371, Note_on_c, 0, 53, 80
2, 74373, Note_on_c, 0, 70, 0
2, 74376, Note_on_c, 0, 67, 80
2, 74380, Note_on_c, 0, 79, 80
2, 74419, Note_on_c, 0, 79, 0
2, 74436, Note_on_c, 0, 67, 0
2, 74436, Note_on_c, 0, 74, 0
2, 74436, Note_on_c, 0, 65, 80
2, 74447, Note_on_c, 0, 77, 80
2, 74497, Note_on_c, 0, 65, 0
2, 74512, Note_on_c, 0, 77, 0
2, 74520, Note_on_c, 0, 62, 80
2, 74520, Note_on_c, 0, 70, 80
2, 74527, Note_on_c, 0, 74, 80
2, 74531, Note_on_c, 0, 82, 80
2, 74545, Note_on_c, 0, 53, 0
2, 74556, Note_on_c, 0, 62, 0
2, 74560, Note_on_c, 0, 74, 0
2, 74560, Note_on_c, 0, 82, 0
2, 74562, Note_on_c, 0, 70, 0
2, 74587, Note_on_c, 0, 65, 80
2, 74587, Note_on_c, 0, 77, 80
2, 74648, Note_on_c, 0, 77, 0
2, 74652, Note_on_c, 0, 65, 0
2, 74671, Note_on_c, 0, 67, 80
2, 74675, Note_on_c, 0, 74, 80
2, 74675, Note_on_c, 0, 79, 80
2, 74721, Control_c, 0, 64, 127
2, 74723, Note_on_c, 0, 67, 0
2, 74734, Note_on_c, 0, 74, 0
2, 74737, Note_on_c, 0, 79, 0
2, 74744, Note_on_c, 0, 65, 80
2, 74751, Note_on_c, 0, 77, 80
2, 74789, Note_on_c, 0, 65, 0
2, 74791, Note_on_c, 0, 77, 0
2, 74825, Note_on_c, 0, 34, 80
2, 74827, Note_on_c, 0, 46, 80
2, 74831, Note_on_c, 0, 74, 80
2, 74834, Note_on_c, 0, 68, 80
2, 74834, Note_on_c, 0, 80, 80
2, 74843, Note_on_c, 0, 77, 80
2, 74845, Note_on_c, 0, 34, 0
2, 74852, Control_c, 0, 64, 0
2, 74862, Note_on_c, 0, 68, 0
2, 74864, Note_on_c, 0, 80, 0
2, 74885, Note_on_c, 0, 34, 80
2, 74892, Note_on_c, 0, 46, 0
2, 74892, Note_on_c, 0, 74, 0
2, 74896, Note_on_c, 0, 77, 0
2, 74900, Note_on_c, 0, 68, 80
2, 74908, Note_on_c, 0, 80, 80
2, 74910, Note_on_c, 0, 34, 0
2, 74921, Note_on_c, 0, 46, 80
2, 74928, Note_on_c, 0, 68, 0
2, 74928, Note_on_c, 0, 74, 80
2, 74931, Note_on_c, 0, 80, 0
2, 74938, Note_on_c, 0, 77, 80
2, 74952, Note_on_c, 0, 34, 80
2, 74956, Note_on_c, 0, 46, 0
2, 74960, Note_on_c, 0, 74, 0
2, 74964, Note_on_c, 0, 77, 0
2, 74968, Note_on_c, 0, 68, 80
2, 74968, Note_on_c, 0, 80, 80
2, 74975, Note_on_c, 0, 34, 0
2, 74987, Note_on_c, 0, 46, 80
2, 74989, Note_on_c, 0, 68, 0
2, 74993, Note_on_c, 0, 80, 0
2, 74995, Note_on_c, 0, 74, 80
2, 75001, Note_on_c, 0, 77, 80
2, 75019, Note_on_c, 0, 46, 0
2, 75023, Note_on_c, 0, 34, 80
2, 75026, Note_on_c, 0, 77, 0
2, 75028, Note_on_c, 0, 74, 0
2, 75032, Note_on_c, 0, 68, 80
2, 75036, Note_on_c, 0, 80, 80
2, 75040, Note_on_c, 0, 34, 0
2, 75050, Note_on_c, 0, 46, 80
2, 75054, Note_on_c, 0, 68, 0
2, 75056, Note_on_c, 0, 80, 0
2, 75060, Note_on_c, 0, 77, 80
2, 75062, Note_on_c, 0, 74, 80
2, 75083, Note_on_c, 0, 46, 0
2, 75087, Note_on_c, 0, 74, 0
2, 75087, Note_on_c, 0, 77, 0
2, 75087, Note_on_c, 0, 34, 80
2, 75096, Note_on_c, 0, 68, 80
2, 75096, Note_on_c, 0, 80, 80
2, 75102, Note_on_c, 0, 34, 0
2, 75117, Note_on_c, 0, 80, 0
2, 75117, Note_on_c, 0, 46, 80
2, 75120, Note_on_c, 0, 68, 0
2, 75120, Note_on_c, 0, 74, 80
2, 75127, Note_on_c, 0, 77, 80
2, 75142, Note_on_c, 0, 46, 0
2, 75148, Note_on_c, 0, 34, 80
2, 75148, Note_on_c, 0, 80, 80
2, 75159, Note_on_c, 0, 68, 80
2, 75180, Note_on_c, 0, 46, 80
2, 75259, Note_on_c, 0, 80, 0
2, 75263, Note_on_c, 0, 68, 0
2, 75263, Note_on_c, 0, 77, 0
2, 75264, Note_on_c, 0, 74, 0
2, 75271, Note_on_c, 0, 34, 0
2, 75273, Note_on_c, 0, 46, 0
2, 75417, Note_on_c, 0, 34, 80
2, 75419, Note_on_c, 0, 41, 80
2, 75419, Note_on_c, 0, 46, 80
2, 75423, Note_on_c, 0, 53, 80
2, 75423, Note_on_c, 0, 62, 80
2, 75425, Note_on_c, 0, 65, 80
2, 75429, Note_on_c, 0, 58, 80
2, 76267, Note_on_c, 0, 34, 0
2, 76271, Note_on_c, 0, 41, 0
2, 76272, Note_on_c, 0, 53, 0
2, 76272, Note_on_c, 0, 62, 0
2, 76272, Note_on_c, 0, 46, 0
2, 76274, Note_on_c, 0, 58, 0
2, 76278, Note_on_c, 0, 65, 0
2, 76278, End_track
3, 0, Start_track
3, 0, Title_t, "c/b Jelly Roll Morton"
3, 0, End_track
4, 0, Start_track
4, 0, Title_t, "p/b Jelly Roll Morton"
4, 0, End_track
5, 0, Start_track
5, 0, Title_t, "Jazz Classics"
5, 0, End_track
6, 0, Start_track
6, 0, Title_t, "Scan of a player piano roll"
6, 0, End_track
7, 0, Start_track
7, 0, Title_t, "by Terry Smythe, Winnipeg, Canada"
7, 0, End_track
8, 0, Start_track
8, 1, Copyright_t, "___________________________________________________\012\012KUNSTDERFUGE.COM LARGE CLASSICAL MIDI COLLECTION\012ONCLASSICAL BY ALESSANDRO SIMONETTO, PROPRIETOR\012___________________________________________________\012\012! Attention: this file is under copyright !\012\012(c)onclassical, (nc)smythe, 2010\012___________________________________________________\012\012NO ONE MAY REPUBLISH THIS FILE WITHOUT PERMISSION\012COMMERCIAL USES OF THIS FILE IS STRICTLY PROHIBITED\012___________________________________________________\012\012Files & contributor's list: http://kunstderfuge.com/\012Terms and conditions: http://kunstderfuge.com/notes.htm"
8, 1, End_track
0, 0, End_of_file
