0, 0, Header, 1, 3, 384
1, 0, Start_track
1, 0, Title_t, "Magnetic Rag"
1, 0, Text_t, "/music_category: Piano_Roll\012"
1, 0, Text_t, "/title: Magnetic Rag\012"
1, 0, Text_t, "/subtitle: \012"
1, 0, Text_t, "/roll_type: 88n\012"
1, 0, Text_t, "/roll_manufacturer: Connorized\012"
1, 0, Text_t, "/roll_number: 10266\012"
1, 0, Text_t, "/original roll #: \012"
1, 0, Text_t, "/original manufacturer: \012"
1, 0, Text_t, "/performer: Joplin, Scott\012"
1, 0, Text_t, "/composer: Joplin, Scott\012"
1, 0, Text_t, "/lyricist: \012"
1, 0, Text_t, "/copyright: 1914\012"
1, 0, Text_t, "/scanned_by:  Mick Hamer\012"
1, 0, Text_t, "/scan_system:  Ampico Vorsetzer - Disklavier\012"
1, 0, Text_t, "/date_scanned: 2005\012"
1, 0, Text_t, "/owner: \012"
1, 0, Text_t, "played and composed by Scott Joplin\012"
1, 0, Text_t, "Connorized 10266, released April 1916, reissued QRS Q-196\012"
1, 0, Time_signature, 4, 2, 24, 8
1, 0, Key_signature, 0, "major"
1, 0, Tempo, 512821
1, 0, End_track
2, 0, Start_track
2, 0, Title_t, "Magnetic Rag"
2, 748, Note_on_c, 0, 65, 68
2, 768, Note_on_c, 0, 53, 64
2, 804, Control_c, 0, 64, 127
2, 854, Control_c, 0, 64, 0
2, 946, Note_on_c, 0, 53, 0
2, 946, Note_on_c, 0, 65, 0
2, 1010, Note_on_c, 0, 52, 64
2, 1030, Note_on_c, 0, 64, 66
2, 1509, Note_on_c, 0, 63, 63
2, 1509, Note_on_c, 0, 51, 60
2, 1514, Note_on_c, 0, 64, 0
2, 1534, Note_on_c, 0, 52, 0
2, 2805, Note_on_c, 0, 63, 0
2, 2805, Note_on_c, 0, 51, 0
2, 2805, Note_on_c, 0, 53, 64
2, 2808, Note_on_c, 0, 65, 68
2, 2997, Note_on_c, 0, 53, 0
2, 3003, Note_on_c, 0, 65, 0
2, 3059, Note_on_c, 0, 63, 66
2, 3059, Note_on_c, 0, 51, 61
2, 3502, Note_on_c, 0, 51, 0
2, 3516, Note_on_c, 0, 63, 0
2, 3589, Note_on_c, 0, 50, 60
2, 3602, Note_on_c, 0, 62, 64
2, 4747, Note_on_c, 0, 62, 0
2, 4800, Note_on_c, 0, 50, 0
2, 4856, Note_on_c, 0, 65, 68
2, 4875, Note_on_c, 0, 53, 64
2, 5054, Note_on_c, 0, 53, 0
2, 5057, Note_on_c, 0, 65, 0
2, 5132, Note_on_c, 0, 66, 69
2, 5140, Note_on_c, 0, 54, 62
2, 5308, Note_on_c, 0, 54, 0
2, 5311, Note_on_c, 0, 66, 0
2, 5383, Note_on_c, 0, 67, 68
2, 5389, Note_on_c, 0, 55, 63
2, 5565, Note_on_c, 0, 67, 0
2, 5568, Note_on_c, 0, 55, 0
2, 5624, Note_on_c, 0, 68, 70
2, 5629, Note_on_c, 0, 56, 61
2, 6068, Note_on_c, 0, 56, 0
2, 6085, Note_on_c, 0, 68, 0
2, 6146, Note_on_c, 0, 69, 69
2, 6149, Note_on_c, 0, 57, 64
2, 6331, Note_on_c, 0, 57, 0
2, 6331, Note_on_c, 0, 69, 0
2, 6412, Note_on_c, 0, 58, 65
2, 6412, Note_on_c, 0, 70, 70
2, 6582, Note_on_c, 0, 70, 0
2, 6582, Note_on_c, 0, 58, 0
2, 6652, Note_on_c, 0, 71, 68
2, 6660, Note_on_c, 0, 59, 64
2, 6845, Note_on_c, 0, 71, 0
2, 6853, Note_on_c, 0, 59, 0
2, 6918, Note_on_c, 0, 60, 64
2, 6918, Note_on_c, 0, 72, 70
2, 7015, Note_on_c, 0, 60, 0
2, 7027, Note_on_c, 0, 72, 0
2, 7396, Note_on_c, 0, 65, 60
2, 7418, Note_on_c, 0, 53, 61
2, 7424, Note_on_c, 0, 41, 60
2, 7424, Note_on_c, 0, 69, 59
2, 7435, Note_on_c, 0, 72, 63
2, 7438, Note_on_c, 0, 77, 59
2, 7647, Note_on_c, 0, 53, 0
2, 7650, Note_on_c, 0, 41, 0
2, 7659, Note_on_c, 0, 69, 0
2, 7659, Note_on_c, 0, 72, 0
2, 7659, Note_on_c, 0, 77, 0
2, 7664, Note_on_c, 0, 65, 0
2, 7919, Note_on_c, 0, 46, 62
2, 7933, Note_on_c, 0, 62, 64
2, 8053, Note_on_c, 0, 70, 71
2, 8168, Note_on_c, 0, 70, 0
2, 8185, Note_on_c, 0, 67, 67
2, 8185, Note_on_c, 0, 53, 62
2, 8185, Note_on_c, 0, 58, 63
2, 8282, Note_on_c, 0, 46, 0
2, 8291, Note_on_c, 0, 65, 67
2, 8299, Note_on_c, 0, 53, 0
2, 8299, Note_on_c, 0, 58, 0
2, 8299, Note_on_c, 0, 67, 0
2, 8305, Note_on_c, 0, 62, 0
2, 8417, Note_on_c, 0, 63, 64
2, 8420, Note_on_c, 0, 65, 0
2, 8434, Note_on_c, 0, 48, 63
2, 8560, Note_on_c, 0, 72, 71
2, 8655, Note_on_c, 0, 72, 0
2, 8674, Note_on_c, 0, 53, 63
2, 8680, Note_on_c, 0, 57, 60
2, 8781, Note_on_c, 0, 53, 0
2, 8781, Note_on_c, 0, 63, 0
2, 8789, Note_on_c, 0, 48, 0
2, 8792, Note_on_c, 0, 73, 70
2, 8797, Note_on_c, 0, 57, 0
2, 8929, Note_on_c, 0, 73, 0
2, 8937, Note_on_c, 0, 74, 67
2, 8940, Note_on_c, 0, 46, 62
2, 8954, Note_on_c, 0, 62, 64
2, 8974, Control_c, 0, 64, 127
2, 9021, Control_c, 0, 64, 0
2, 9047, Note_on_c, 0, 46, 0
2, 9058, Note_on_c, 0, 65, 64
2, 9066, Note_on_c, 0, 74, 0
2, 9189, Note_on_c, 0, 65, 0
2, 9203, Note_on_c, 0, 53, 66
2, 9203, Note_on_c, 0, 58, 67
2, 9206, Note_on_c, 0, 70, 72
2, 9212, Note_on_c, 0, 62, 0
2, 9315, Note_on_c, 0, 53, 0
2, 9318, Note_on_c, 0, 58, 0
2, 9321, Note_on_c, 0, 70, 0
2, 9332, Note_on_c, 0, 62, 67
2, 9458, Note_on_c, 0, 67, 68
2, 9461, Note_on_c, 0, 61, 61
2, 9464, Note_on_c, 0, 46, 62
2, 9467, Note_on_c, 0, 62, 0
2, 9576, Note_on_c, 0, 46, 0
2, 9584, Note_on_c, 0, 61, 0
2, 9584, Note_on_c, 0, 65, 66
2, 9590, Note_on_c, 0, 67, 0
2, 9590, Note_on_c, 0, 62, 67
2, 9719, Note_on_c, 0, 58, 64
2, 9719, Note_on_c, 0, 53, 63
2, 9828, Note_on_c, 0, 53, 0
2, 9831, Note_on_c, 0, 65, 0
2, 9836, Note_on_c, 0, 62, 0
2, 9847, Note_on_c, 0, 58, 0
2, 9965, Note_on_c, 0, 65, 67
2, 9971, Note_on_c, 0, 63, 64
2, 9974, Note_on_c, 0, 45, 59
2, 10007, Control_c, 0, 64, 127
2, 10013, Note_on_c, 0, 63, 0
2, 10016, Note_on_c, 0, 65, 0
2, 10060, Control_c, 0, 64, 0
2, 10097, Note_on_c, 0, 63, 66
2, 10100, Note_on_c, 0, 45, 0
2, 10100, Note_on_c, 0, 65, 65
2, 10223, Note_on_c, 0, 63, 0
2, 10231, Note_on_c, 0, 65, 0
2, 10242, Note_on_c, 0, 53, 67
2, 10248, Note_on_c, 0, 57, 66
2, 10349, Note_on_c, 0, 65, 68
2, 10355, Note_on_c, 0, 57, 0
2, 10355, Note_on_c, 0, 53, 0
2, 10371, Note_on_c, 0, 63, 64
2, 10509, Note_on_c, 0, 41, 63
2, 10610, Note_on_c, 0, 41, 0
2, 10610, Note_on_c, 0, 63, 0
2, 10632, Note_on_c, 0, 67, 66
2, 10635, Note_on_c, 0, 65, 0
2, 10750, Note_on_c, 0, 67, 0
2, 10750, Note_on_c, 0, 65, 66
2, 10755, Note_on_c, 0, 63, 61
2, 10758, Note_on_c, 0, 53, 61
2, 10780, Note_on_c, 0, 57, 59
2, 10881, Note_on_c, 0, 63, 0
2, 10884, Note_on_c, 0, 57, 0
2, 10884, Note_on_c, 0, 53, 0
2, 10887, Note_on_c, 0, 65, 0
2, 11005, Note_on_c, 0, 65, 68
2, 11036, Note_on_c, 0, 46, 61
2, 11036, Note_on_c, 0, 62, 64
2, 11047, Control_c, 0, 64, 127
2, 11061, Note_on_c, 0, 65, 0
2, 11086, Note_on_c, 0, 62, 0
2, 11106, Control_c, 0, 64, 0
2, 11128, Note_on_c, 0, 46, 0
2, 11142, Note_on_c, 0, 65, 63
2, 11170, Note_on_c, 0, 62, 60
2, 11274, Note_on_c, 0, 65, 0
2, 11279, Note_on_c, 0, 62, 0
2, 11288, Note_on_c, 0, 58, 67
2, 11288, Note_on_c, 0, 53, 67
2, 11394, Note_on_c, 0, 65, 67
2, 11400, Note_on_c, 0, 53, 0
2, 11411, Note_on_c, 0, 58, 0
2, 11422, Note_on_c, 0, 62, 64
2, 11546, Note_on_c, 0, 41, 63
2, 11605, Note_on_c, 0, 65, 0
2, 11613, Note_on_c, 0, 62, 0
2, 11650, Note_on_c, 0, 41, 0
2, 11664, Note_on_c, 0, 67, 68
2, 11790, Note_on_c, 0, 65, 66
2, 11793, Note_on_c, 0, 67, 0
2, 11793, Note_on_c, 0, 53, 61
2, 11812, Note_on_c, 0, 58, 62
2, 11815, Note_on_c, 0, 62, 63
2, 11924, Note_on_c, 0, 58, 0
2, 11924, Note_on_c, 0, 53, 0
2, 11927, Note_on_c, 0, 65, 0
2, 11936, Note_on_c, 0, 62, 0
2, 12073, Note_on_c, 0, 62, 62
2, 12076, Note_on_c, 0, 50, 56
2, 12076, Note_on_c, 0, 46, 60
2, 12087, Control_c, 0, 64, 127
2, 12138, Control_c, 0, 64, 0
2, 12188, Note_on_c, 0, 70, 69
2, 12306, Note_on_c, 0, 70, 0
2, 12320, Note_on_c, 0, 53, 66
2, 12320, Note_on_c, 0, 58, 68
2, 12320, Note_on_c, 0, 67, 70
2, 12429, Note_on_c, 0, 53, 0
2, 12441, Note_on_c, 0, 58, 0
2, 12441, Note_on_c, 0, 50, 0
2, 12441, Note_on_c, 0, 67, 0
2, 12441, Note_on_c, 0, 65, 66
2, 12494, Note_on_c, 0, 46, 0
2, 12519, Note_on_c, 0, 62, 0
2, 12572, Note_on_c, 0, 65, 0
2, 12572, Note_on_c, 0, 63, 63
2, 12575, Note_on_c, 0, 48, 62
2, 12575, Note_on_c, 0, 51, 59
2, 12710, Note_on_c, 0, 72, 70
2, 12819, Note_on_c, 0, 72, 0
2, 12825, Note_on_c, 0, 53, 63
2, 12831, Note_on_c, 0, 57, 61
2, 12946, Note_on_c, 0, 73, 69
2, 12954, Note_on_c, 0, 57, 0
2, 12954, Note_on_c, 0, 53, 0
2, 13016, Note_on_c, 0, 51, 0
2, 13019, Note_on_c, 0, 63, 0
2, 13027, Note_on_c, 0, 48, 0
2, 13078, Note_on_c, 0, 73, 0
2, 13092, Note_on_c, 0, 50, 58
2, 13103, Note_on_c, 0, 74, 68
2, 13106, Note_on_c, 0, 62, 63
2, 13109, Note_on_c, 0, 46, 60
2, 13123, Control_c, 0, 64, 127
2, 13198, Note_on_c, 0, 46, 0
2, 13212, Note_on_c, 0, 74, 0
2, 13224, Note_on_c, 0, 65, 66
2, 13243, Control_c, 0, 64, 0
2, 13353, Note_on_c, 0, 70, 70
2, 13353, Note_on_c, 0, 53, 67
2, 13356, Note_on_c, 0, 65, 0
2, 13356, Note_on_c, 0, 58, 68
2, 13468, Note_on_c, 0, 53, 0
2, 13485, Note_on_c, 0, 74, 67
2, 13488, Note_on_c, 0, 70, 0
2, 13488, Note_on_c, 0, 58, 0
2, 13535, Note_on_c, 0, 74, 0
2, 13535, Note_on_c, 0, 50, 0
2, 13558, Note_on_c, 0, 62, 0
2, 13614, Note_on_c, 0, 79, 62
2, 13617, Note_on_c, 0, 46, 62
2, 13622, Note_on_c, 0, 58, 62
2, 13634, Note_on_c, 0, 74, 67
2, 13718, Note_on_c, 0, 46, 0
2, 13732, Note_on_c, 0, 79, 0
2, 13735, Note_on_c, 0, 58, 0
2, 13735, Note_on_c, 0, 82, 67
2, 13872, Note_on_c, 0, 43, 60
2, 13886, Note_on_c, 0, 55, 60
2, 13990, Note_on_c, 0, 55, 0
2, 13993, Note_on_c, 0, 43, 0
2, 14052, Note_on_c, 0, 82, 0
2, 14074, Note_on_c, 0, 74, 0
2, 14128, Note_on_c, 0, 81, 69
2, 14145, Note_on_c, 0, 42, 57
2, 14145, Note_on_c, 0, 54, 59
2, 14178, Control_c, 0, 64, 127
2, 14220, Control_c, 0, 64, 0
2, 14246, Note_on_c, 0, 54, 0
2, 14251, Note_on_c, 0, 42, 0
2, 14257, Note_on_c, 0, 81, 0
2, 14265, Note_on_c, 0, 84, 67
2, 14386, Note_on_c, 0, 84, 0
2, 14397, Note_on_c, 0, 86, 68
2, 14397, Note_on_c, 0, 62, 65
2, 14397, Note_on_c, 0, 54, 63
2, 14400, Note_on_c, 0, 60, 65
2, 14513, Note_on_c, 0, 54, 0
2, 14513, Note_on_c, 0, 86, 0
2, 14518, Note_on_c, 0, 78, 63
2, 14521, Note_on_c, 0, 60, 0
2, 14524, Note_on_c, 0, 62, 0
2, 14524, Note_on_c, 0, 87, 64
2, 14650, Note_on_c, 0, 38, 60
2, 14653, Note_on_c, 0, 50, 60
2, 14707, Note_on_c, 0, 87, 0
2, 14777, Note_on_c, 0, 50, 0
2, 14777, Note_on_c, 0, 38, 0
2, 14780, Note_on_c, 0, 78, 0
2, 14780, Note_on_c, 0, 86, 66
2, 14903, Note_on_c, 0, 86, 0
2, 14923, Note_on_c, 0, 81, 67
2, 14923, Note_on_c, 0, 60, 61
2, 14923, Note_on_c, 0, 78, 64
2, 14926, Note_on_c, 0, 62, 63
2, 14931, Note_on_c, 0, 54, 58
2, 15027, Note_on_c, 0, 54, 0
2, 15032, Note_on_c, 0, 60, 0
2, 15041, Note_on_c, 0, 81, 0
2, 15041, Note_on_c, 0, 62, 0
2, 15049, Note_on_c, 0, 78, 0
2, 15176, Note_on_c, 0, 55, 60
2, 15181, Note_on_c, 0, 84, 65
2, 15181, Note_on_c, 0, 79, 61
2, 15181, Note_on_c, 0, 43, 60
2, 15212, Control_c, 0, 64, 127
2, 15277, Control_c, 0, 64, 0
2, 15300, Note_on_c, 0, 43, 0
2, 15300, Note_on_c, 0, 55, 0
2, 15314, Note_on_c, 0, 84, 0
2, 15314, Note_on_c, 0, 82, 67
2, 15423, Note_on_c, 0, 81, 70
2, 15429, Note_on_c, 0, 55, 64
2, 15440, Note_on_c, 0, 82, 0
2, 15440, Note_on_c, 0, 58, 67
2, 15448, Note_on_c, 0, 62, 66
2, 15550, Note_on_c, 0, 81, 0
2, 15550, Note_on_c, 0, 82, 69
2, 15555, Note_on_c, 0, 58, 0
2, 15555, Note_on_c, 0, 55, 0
2, 15561, Note_on_c, 0, 62, 0
2, 15687, Note_on_c, 0, 38, 60
2, 15704, Note_on_c, 0, 50, 59
2, 15808, Note_on_c, 0, 50, 0
2, 15808, Note_on_c, 0, 82, 0
2, 15808, Note_on_c, 0, 79, 0
2, 15828, Note_on_c, 0, 38, 0
2, 15952, Note_on_c, 0, 58, 64
2, 15957, Note_on_c, 0, 55, 59
2, 15960, Note_on_c, 0, 62, 64
2, 16064, Note_on_c, 0, 55, 0
2, 16078, Note_on_c, 0, 82, 67
2, 16081, Note_on_c, 0, 58, 0
2, 16081, Note_on_c, 0, 75, 66
2, 16087, Note_on_c, 0, 62, 0
2, 16208, Note_on_c, 0, 55, 59
2, 16213, Note_on_c, 0, 43, 60
2, 16247, Control_c, 0, 64, 127
2, 16301, Control_c, 0, 64, 0
2, 16329, Note_on_c, 0, 75, 0
2, 16337, Note_on_c, 0, 43, 0
2, 16337, Note_on_c, 0, 55, 0
2, 16343, Note_on_c, 0, 53, 62
2, 16346, Note_on_c, 0, 41, 59
2, 16351, Note_on_c, 0, 70, 68
2, 16466, Note_on_c, 0, 53, 0
2, 16466, Note_on_c, 0, 82, 0
2, 16469, Note_on_c, 0, 41, 0
2, 16469, Note_on_c, 0, 70, 0
2, 16469, Note_on_c, 0, 51, 64
2, 16472, Note_on_c, 0, 75, 65
2, 16472, Note_on_c, 0, 39, 61
2, 16486, Note_on_c, 0, 79, 64
2, 16587, Note_on_c, 0, 75, 0
2, 16590, Note_on_c, 0, 51, 0
2, 16593, Note_on_c, 0, 39, 0
2, 16613, Note_on_c, 0, 67, 67
2, 16714, Note_on_c, 0, 67, 0
2, 16717, Note_on_c, 0, 79, 0
2, 16734, Note_on_c, 0, 70, 70
2, 16739, Note_on_c, 0, 38, 60
2, 16742, Note_on_c, 0, 50, 59
2, 16849, Note_on_c, 0, 70, 0
2, 16852, Note_on_c, 0, 50, 0
2, 16866, Note_on_c, 0, 38, 0
2, 16866, Note_on_c, 0, 74, 67
2, 16872, Note_on_c, 0, 77, 64
2, 16990, Note_on_c, 0, 58, 64
2, 16995, Note_on_c, 0, 62, 63
2, 16998, Note_on_c, 0, 54, 58
2, 17049, Note_on_c, 0, 77, 0
2, 17057, Note_on_c, 0, 74, 0
2, 17102, Note_on_c, 0, 54, 0
2, 17114, Note_on_c, 0, 65, 69
2, 17119, Note_on_c, 0, 58, 0
2, 17125, Note_on_c, 0, 62, 0
2, 17246, Note_on_c, 0, 65, 0
2, 17252, Note_on_c, 0, 53, 62
2, 17252, Note_on_c, 0, 41, 60
2, 17252, Note_on_c, 0, 75, 64
2, 17260, Note_on_c, 0, 72, 64
2, 17297, Control_c, 0, 64, 127
2, 17330, Control_c, 0, 64, 0
2, 17356, Note_on_c, 0, 41, 0
2, 17356, Note_on_c, 0, 53, 0
2, 17364, Note_on_c, 0, 75, 0
2, 17367, Note_on_c, 0, 72, 0
2, 17375, Note_on_c, 0, 67, 66
2, 17494, Note_on_c, 0, 67, 0
2, 17499, Note_on_c, 0, 53, 64
2, 17499, Note_on_c, 0, 75, 65
2, 17499, Note_on_c, 0, 63, 64
2, 17502, Note_on_c, 0, 57, 63
2, 17516, Note_on_c, 0, 69, 67
2, 17620, Note_on_c, 0, 75, 0
2, 17623, Note_on_c, 0, 69, 0
2, 17623, Note_on_c, 0, 63, 0
2, 17626, Note_on_c, 0, 53, 0
2, 17626, Note_on_c, 0, 57, 0
2, 17640, Note_on_c, 0, 70, 66
2, 17643, Note_on_c, 0, 74, 66
2, 17769, Note_on_c, 0, 46, 64
2, 17817, Note_on_c, 0, 74, 0
2, 17817, Note_on_c, 0, 70, 0
2, 17865, Note_on_c, 0, 46, 0
2, 17891, Note_on_c, 0, 58, 65
2, 17891, Note_on_c, 0, 65, 68
2, 18003, Note_on_c, 0, 65, 0
2, 18020, Note_on_c, 0, 58, 0
2, 18026, Note_on_c, 0, 74, 67
2, 18031, Note_on_c, 0, 77, 64
2, 18037, Note_on_c, 0, 44, 61
2, 18141, Note_on_c, 0, 77, 0
2, 18144, Note_on_c, 0, 56, 61
2, 18150, Note_on_c, 0, 44, 0
2, 18150, Note_on_c, 0, 74, 0
2, 18265, Note_on_c, 0, 56, 0
2, 18273, Note_on_c, 0, 75, 65
2, 18273, Note_on_c, 0, 82, 65
2, 18276, Note_on_c, 0, 43, 60
2, 18310, Control_c, 0, 64, 127
2, 18352, Control_c, 0, 64, 0
2, 18389, Note_on_c, 0, 75, 0
2, 18395, Note_on_c, 0, 43, 0
2, 18395, Note_on_c, 0, 55, 61
2, 18409, Note_on_c, 0, 70, 68
2, 18519, Note_on_c, 0, 82, 0
2, 18519, Note_on_c, 0, 75, 66
2, 18524, Note_on_c, 0, 70, 0
2, 18524, Note_on_c, 0, 55, 0
2, 18524, Note_on_c, 0, 39, 63
2, 18541, Note_on_c, 0, 79, 64
2, 18640, Note_on_c, 0, 75, 0
2, 18648, Note_on_c, 0, 39, 0
2, 18648, Note_on_c, 0, 51, 62
2, 18662, Note_on_c, 0, 67, 67
2, 18772, Note_on_c, 0, 67, 0
2, 18772, Note_on_c, 0, 51, 0
2, 18775, Note_on_c, 0, 79, 0
2, 18786, Note_on_c, 0, 70, 70
2, 18797, Note_on_c, 0, 38, 62
2, 18899, Note_on_c, 0, 70, 0
2, 18904, Note_on_c, 0, 38, 0
2, 18921, Note_on_c, 0, 74, 67
2, 18921, Note_on_c, 0, 50, 60
2, 18924, Note_on_c, 0, 77, 64
2, 19026, Note_on_c, 0, 50, 0
2, 19043, Note_on_c, 0, 58, 63
2, 19043, Note_on_c, 0, 53, 60
2, 19051, Note_on_c, 0, 62, 62
2, 19102, Note_on_c, 0, 77, 0
2, 19110, Note_on_c, 0, 74, 0
2, 19155, Note_on_c, 0, 53, 0
2, 19164, Note_on_c, 0, 65, 68
2, 19172, Note_on_c, 0, 58, 0
2, 19178, Note_on_c, 0, 62, 0
2, 19293, Note_on_c, 0, 65, 0
2, 19293, Note_on_c, 0, 53, 62
2, 19296, Note_on_c, 0, 75, 64
2, 19302, Note_on_c, 0, 41, 60
2, 19324, Note_on_c, 0, 72, 67
2, 19336, Control_c, 0, 64, 127
2, 19375, Control_c, 0, 64, 0
2, 19420, Note_on_c, 0, 75, 0
2, 19423, Note_on_c, 0, 53, 0
2, 19423, Note_on_c, 0, 41, 0
2, 19423, Note_on_c, 0, 72, 0
2, 19440, Note_on_c, 0, 67, 67
2, 19544, Note_on_c, 0, 67, 0
2, 19564, Note_on_c, 0, 63, 66
2, 19564, Note_on_c, 0, 53, 65
2, 19567, Note_on_c, 0, 75, 68
2, 19567, Note_on_c, 0, 69, 68
2, 19570, Note_on_c, 0, 57, 64
2, 19663, Note_on_c, 0, 63, 0
2, 19671, Note_on_c, 0, 53, 0
2, 19679, Note_on_c, 0, 75, 0
2, 19682, Note_on_c, 0, 69, 0
2, 19682, Note_on_c, 0, 57, 0
2, 19694, Note_on_c, 0, 74, 66
2, 19694, Note_on_c, 0, 70, 65
2, 19818, Note_on_c, 0, 46, 62
2, 19829, Note_on_c, 0, 58, 64
2, 19925, Note_on_c, 0, 46, 0
2, 19939, Note_on_c, 0, 58, 0
2, 20066, Note_on_c, 0, 41, 61
2, 20080, Note_on_c, 0, 53, 63
2, 20133, Note_on_c, 0, 70, 0
2, 20150, Note_on_c, 0, 74, 0
2, 20193, Note_on_c, 0, 41, 0
2, 20193, Note_on_c, 0, 53, 0
2, 20193, Note_on_c, 0, 75, 68
2, 20210, Note_on_c, 0, 82, 66
2, 20328, Note_on_c, 0, 43, 60
2, 20342, Note_on_c, 0, 55, 59
2, 20359, Control_c, 0, 64, 127
2, 20396, Control_c, 0, 64, 0
2, 20438, Note_on_c, 0, 75, 0
2, 20444, Note_on_c, 0, 82, 0
2, 20444, Note_on_c, 0, 43, 0
2, 20444, Note_on_c, 0, 55, 0
2, 20463, Note_on_c, 0, 70, 69
2, 20466, Note_on_c, 0, 53, 61
2, 20469, Note_on_c, 0, 41, 60
2, 20568, Note_on_c, 0, 41, 0
2, 20568, Note_on_c, 0, 53, 0
2, 20576, Note_on_c, 0, 70, 0
2, 20590, Note_on_c, 0, 51, 64
2, 20593, Note_on_c, 0, 75, 69
2, 20593, Note_on_c, 0, 39, 61
2, 20596, Note_on_c, 0, 79, 64
2, 20695, Note_on_c, 0, 51, 0
2, 20709, Note_on_c, 0, 75, 0
2, 20714, Note_on_c, 0, 39, 0
2, 20717, Note_on_c, 0, 67, 66
2, 20841, Note_on_c, 0, 67, 0
2, 20841, Note_on_c, 0, 79, 0
2, 20847, Note_on_c, 0, 38, 60
2, 20847, Note_on_c, 0, 50, 59
2, 20855, Note_on_c, 0, 70, 71
2, 20971, Note_on_c, 0, 74, 66
2, 20974, Note_on_c, 0, 70, 0
2, 20974, Note_on_c, 0, 50, 0
2, 20977, Note_on_c, 0, 38, 0
2, 20996, Note_on_c, 0, 77, 67
2, 21115, Note_on_c, 0, 58, 63
2, 21115, Note_on_c, 0, 53, 61
2, 21121, Note_on_c, 0, 62, 63
2, 21154, Note_on_c, 0, 77, 0
2, 21163, Note_on_c, 0, 74, 0
2, 21217, Note_on_c, 0, 65, 68
2, 21222, Note_on_c, 0, 53, 0
2, 21225, Note_on_c, 0, 58, 0
2, 21231, Note_on_c, 0, 62, 0
2, 21349, Note_on_c, 0, 65, 0
2, 21360, Note_on_c, 0, 53, 62
2, 21372, Note_on_c, 0, 41, 60
2, 21372, Note_on_c, 0, 75, 66
2, 21380, Note_on_c, 0, 72, 65
2, 21389, Control_c, 0, 64, 127
2, 21437, Control_c, 0, 64, 0
2, 21470, Note_on_c, 0, 75, 0
2, 21473, Note_on_c, 0, 72, 0
2, 21476, Note_on_c, 0, 53, 0
2, 21479, Note_on_c, 0, 41, 0
2, 21493, Note_on_c, 0, 67, 67
2, 21620, Note_on_c, 0, 67, 0
2, 21620, Note_on_c, 0, 53, 65
2, 21620, Note_on_c, 0, 63, 66
2, 21623, Note_on_c, 0, 75, 67
2, 21623, Note_on_c, 0, 57, 64
2, 21623, Note_on_c, 0, 69, 66
2, 21724, Note_on_c, 0, 75, 0
2, 21724, Note_on_c, 0, 63, 0
2, 21730, Note_on_c, 0, 53, 0
2, 21741, Note_on_c, 0, 69, 0
2, 21744, Note_on_c, 0, 57, 0
2, 21747, Note_on_c, 0, 70, 66
2, 21753, Note_on_c, 0, 74, 66
2, 21880, Note_on_c, 0, 46, 64
2, 21981, Note_on_c, 0, 46, 0
2, 21993, Note_on_c, 0, 58, 65
2, 21993, Note_on_c, 0, 65, 64
2, 22001, Note_on_c, 0, 74, 0
2, 22001, Note_on_c, 0, 70, 0
2, 22120, Note_on_c, 0, 65, 0
2, 22125, Note_on_c, 0, 58, 0
2, 22137, Note_on_c, 0, 44, 61
2, 22142, Note_on_c, 0, 74, 66
2, 22151, Note_on_c, 0, 77, 64
2, 22244, Note_on_c, 0, 77, 0
2, 22250, Note_on_c, 0, 74, 0
2, 22250, Note_on_c, 0, 44, 0
2, 22264, Note_on_c, 0, 56, 61
2, 22371, Note_on_c, 0, 56, 0
2, 22394, Note_on_c, 0, 75, 66
2, 22394, Note_on_c, 0, 82, 66
2, 22402, Note_on_c, 0, 43, 60
2, 22419, Control_c, 0, 64, 127
2, 22456, Control_c, 0, 64, 0
2, 22495, Note_on_c, 0, 75, 0
2, 22501, Note_on_c, 0, 43, 0
2, 22518, Note_on_c, 0, 70, 69
2, 22523, Note_on_c, 0, 55, 61
2, 22628, Note_on_c, 0, 55, 0
2, 22639, Note_on_c, 0, 82, 0
2, 22648, Note_on_c, 0, 75, 67
2, 22648, Note_on_c, 0, 39, 64
2, 22651, Note_on_c, 0, 70, 0
2, 22651, Note_on_c, 0, 79, 63
2, 22764, Note_on_c, 0, 75, 0
2, 22772, Note_on_c, 0, 51, 62
2, 22775, Note_on_c, 0, 39, 0
2, 22775, Note_on_c, 0, 67, 67
2, 22893, Note_on_c, 0, 67, 0
2, 22896, Note_on_c, 0, 51, 0
2, 22896, Note_on_c, 0, 79, 0
2, 22902, Note_on_c, 0, 38, 61
2, 22908, Note_on_c, 0, 70, 70
2, 23026, Note_on_c, 0, 70, 0
2, 23029, Note_on_c, 0, 38, 0
2, 23029, Note_on_c, 0, 50, 60
2, 23046, Note_on_c, 0, 74, 67
2, 23054, Note_on_c, 0, 77, 64
2, 23159, Note_on_c, 0, 50, 0
2, 23170, Note_on_c, 0, 58, 64
2, 23173, Note_on_c, 0, 53, 61
2, 23179, Note_on_c, 0, 62, 62
2, 23221, Note_on_c, 0, 74, 0
2, 23230, Note_on_c, 0, 77, 0
2, 23283, Note_on_c, 0, 53, 0
2, 23283, Note_on_c, 0, 58, 0
2, 23286, Note_on_c, 0, 62, 0
2, 23289, Note_on_c, 0, 65, 68
2, 23408, Note_on_c, 0, 65, 0
2, 23422, Note_on_c, 0, 53, 62
2, 23427, Note_on_c, 0, 75, 65
2, 23430, Note_on_c, 0, 41, 60
2, 23436, Note_on_c, 0, 72, 64
2, 23447, Control_c, 0, 64, 127
2, 23504, Control_c, 0, 64, 0
2, 23529, Note_on_c, 0, 53, 0
2, 23532, Note_on_c, 0, 41, 0
2, 23540, Note_on_c, 0, 75, 0
2, 23543, Note_on_c, 0, 72, 0
2, 23549, Note_on_c, 0, 67, 66
2, 23670, Note_on_c, 0, 67, 0
2, 23670, Note_on_c, 0, 63, 66
2, 23670, Note_on_c, 0, 53, 65
2, 23673, Note_on_c, 0, 75, 65
2, 23690, Note_on_c, 0, 69, 67
2, 23693, Note_on_c, 0, 57, 64
2, 23792, Note_on_c, 0, 75, 0
2, 23795, Note_on_c, 0, 69, 0
2, 23795, Note_on_c, 0, 63, 0
2, 23800, Note_on_c, 0, 53, 0
2, 23800, Note_on_c, 0, 57, 0
2, 23817, Note_on_c, 0, 74, 67
2, 23817, Note_on_c, 0, 70, 67
2, 23942, Note_on_c, 0, 58, 65
2, 23950, Note_on_c, 0, 46, 62
2, 23993, Note_on_c, 0, 70, 0
2, 24038, Note_on_c, 0, 46, 0
2, 24052, Note_on_c, 0, 58, 0
2, 24075, Note_on_c, 0, 74, 0
2, 24075, Note_on_c, 0, 79, 60
2, 24075, Note_on_c, 0, 67, 63
2, 24191, Note_on_c, 0, 67, 0
2, 24191, Note_on_c, 0, 79, 0
2, 24191, Note_on_c, 0, 53, 63
2, 24191, Note_on_c, 0, 65, 60
2, 24196, Note_on_c, 0, 57, 60
2, 24205, Note_on_c, 0, 77, 64
2, 24315, Note_on_c, 0, 77, 0
2, 24315, Note_on_c, 0, 63, 65
2, 24318, Note_on_c, 0, 53, 0
2, 24318, Note_on_c, 0, 57, 0
2, 24318, Note_on_c, 0, 65, 0
2, 24321, Note_on_c, 0, 75, 67
2, 24439, Note_on_c, 0, 75, 0
2, 24442, Note_on_c, 0, 63, 0
2, 24451, Note_on_c, 0, 46, 61
2, 24462, Note_on_c, 0, 74, 69
2, 24468, Control_c, 0, 64, 127
2, 24468, Note_on_c, 0, 62, 63
2, 24544, Control_c, 0, 64, 0
2, 24586, Note_on_c, 0, 82, 69
2, 24697, Note_on_c, 0, 82, 0
2, 24711, Note_on_c, 0, 58, 64
2, 24714, Note_on_c, 0, 53, 63
2, 24714, Note_on_c, 0, 79, 64
2, 24821, Note_on_c, 0, 79, 0
2, 24821, Note_on_c, 0, 53, 0
2, 24824, Note_on_c, 0, 74, 0
2, 24830, Note_on_c, 0, 58, 0
2, 24830, Note_on_c, 0, 62, 0
2, 24847, Note_on_c, 0, 77, 68
2, 24872, Note_on_c, 0, 46, 0
2, 24965, Note_on_c, 0, 63, 64
2, 24968, Note_on_c, 0, 77, 0
2, 24968, Note_on_c, 0, 75, 67
2, 24968, Note_on_c, 0, 48, 64
2, 25095, Note_on_c, 0, 84, 69
2, 25217, Note_on_c, 0, 53, 63
2, 25220, Note_on_c, 0, 57, 61
2, 25279, Note_on_c, 0, 84, 0
2, 25339, Note_on_c, 0, 75, 0
2, 25342, Note_on_c, 0, 53, 0
2, 25342, Note_on_c, 0, 63, 0
2, 25342, Note_on_c, 0, 57, 0
2, 25353, Note_on_c, 0, 48, 0
2, 25356, Note_on_c, 0, 85, 69
2, 25489, Note_on_c, 0, 85, 0
2, 25494, Note_on_c, 0, 62, 64
2, 25494, Note_on_c, 0, 74, 64
2, 25494, Note_on_c, 0, 46, 62
2, 25503, Note_on_c, 0, 86, 60
2, 25511, Control_c, 0, 64, 127
2, 25579, Note_on_c, 0, 46, 0
2, 25588, Control_c, 0, 64, 0
2, 25608, Note_on_c, 0, 86, 0
2, 25619, Note_on_c, 0, 77, 66
2, 25726, Note_on_c, 0, 77, 0
2, 25729, Note_on_c, 0, 58, 68
2, 25735, Note_on_c, 0, 74, 0
2, 25735, Note_on_c, 0, 82, 68
2, 25735, Note_on_c, 0, 53, 66
2, 25842, Note_on_c, 0, 53, 0
2, 25854, Note_on_c, 0, 74, 70
2, 25859, Note_on_c, 0, 82, 0
2, 25859, Note_on_c, 0, 58, 0
2, 25865, Note_on_c, 0, 62, 0
2, 25984, Note_on_c, 0, 73, 63
2, 25990, Note_on_c, 0, 74, 0
2, 25990, Note_on_c, 0, 46, 64
2, 25990, Note_on_c, 0, 79, 60
2, 26097, Note_on_c, 0, 46, 0
2, 26108, Note_on_c, 0, 73, 0
2, 26111, Note_on_c, 0, 79, 0
2, 26117, Note_on_c, 0, 74, 65
2, 26128, Note_on_c, 0, 77, 64
2, 26236, Note_on_c, 0, 53, 63
2, 26253, Note_on_c, 0, 58, 64
2, 26363, Note_on_c, 0, 53, 0
2, 26363, Note_on_c, 0, 77, 0
2, 26366, Note_on_c, 0, 58, 0
2, 26372, Note_on_c, 0, 74, 0
2, 26491, Note_on_c, 0, 45, 61
2, 26513, Note_on_c, 0, 87, 60
2, 26516, Note_on_c, 0, 77, 59
2, 26519, Note_on_c, 0, 89, 62
2, 26530, Control_c, 0, 64, 127
2, 26544, Note_on_c, 0, 77, 0
2, 26544, Note_on_c, 0, 87, 0
2, 26550, Note_on_c, 0, 89, 0
2, 26573, Control_c, 0, 64, 0
2, 26612, Note_on_c, 0, 45, 0
2, 26632, Note_on_c, 0, 77, 57
2, 26635, Note_on_c, 0, 87, 60
2, 26644, Note_on_c, 0, 89, 59
2, 26740, Note_on_c, 0, 87, 0
2, 26754, Note_on_c, 0, 77, 0
2, 26757, Note_on_c, 0, 53, 67
2, 26762, Note_on_c, 0, 89, 0
2, 26762, Note_on_c, 0, 57, 66
2, 26870, Note_on_c, 0, 53, 0
2, 26887, Note_on_c, 0, 57, 0
2, 26898, Note_on_c, 0, 87, 62
2, 26901, Note_on_c, 0, 89, 62
2, 26901, Note_on_c, 0, 77, 60
2, 27020, Note_on_c, 0, 41, 63
2, 27077, Note_on_c, 0, 77, 0
2, 27080, Note_on_c, 0, 87, 0
2, 27083, Note_on_c, 0, 89, 0
2, 27125, Note_on_c, 0, 41, 0
2, 27145, Note_on_c, 0, 79, 64
2, 27162, Note_on_c, 0, 91, 67
2, 27264, Note_on_c, 0, 91, 0
2, 27267, Note_on_c, 0, 79, 0
2, 27286, Note_on_c, 0, 53, 63
2, 27292, Note_on_c, 0, 57, 60
2, 27298, Note_on_c, 0, 87, 62
2, 27301, Note_on_c, 0, 89, 64
2, 27301, Note_on_c, 0, 77, 61
2, 27391, Note_on_c, 0, 87, 0
2, 27394, Note_on_c, 0, 77, 0
2, 27394, Note_on_c, 0, 57, 0
2, 27397, Note_on_c, 0, 53, 0
2, 27397, Note_on_c, 0, 89, 0
2, 27547, Note_on_c, 0, 46, 63
2, 27556, Note_on_c, 0, 89, 64
2, 27556, Note_on_c, 0, 86, 59
2, 27556, Note_on_c, 0, 77, 61
2, 27567, Control_c, 0, 64, 127
2, 27587, Note_on_c, 0, 77, 0
2, 27587, Note_on_c, 0, 86, 0
2, 27592, Note_on_c, 0, 89, 0
2, 27612, Control_c, 0, 64, 0
2, 27641, Note_on_c, 0, 46, 0
2, 27677, Note_on_c, 0, 77, 58
2, 27680, Note_on_c, 0, 89, 61
2, 27683, Note_on_c, 0, 86, 56
2, 27782, Note_on_c, 0, 89, 0
2, 27794, Note_on_c, 0, 86, 0
2, 27794, Note_on_c, 0, 77, 0
2, 27794, Note_on_c, 0, 53, 67
2, 27794, Note_on_c, 0, 58, 68
2, 27907, Note_on_c, 0, 53, 0
2, 27924, Note_on_c, 0, 58, 0
2, 27932, Note_on_c, 0, 77, 61
2, 27935, Note_on_c, 0, 89, 65
2, 27935, Note_on_c, 0, 86, 60
2, 28051, Note_on_c, 0, 41, 63
2, 28102, Note_on_c, 0, 77, 0
2, 28108, Note_on_c, 0, 89, 0
2, 28108, Note_on_c, 0, 86, 0
2, 28156, Note_on_c, 0, 41, 0
2, 28173, Note_on_c, 0, 79, 64
2, 28173, Note_on_c, 0, 91, 67
2, 28301, Note_on_c, 0, 91, 0
2, 28304, Note_on_c, 0, 79, 0
2, 28318, Note_on_c, 0, 86, 59
2, 28321, Note_on_c, 0, 58, 64
2, 28324, Note_on_c, 0, 53, 63
2, 28335, Note_on_c, 0, 89, 65
2, 28335, Note_on_c, 0, 77, 63
2, 28431, Note_on_c, 0, 77, 0
2, 28434, Note_on_c, 0, 53, 0
2, 28434, Note_on_c, 0, 58, 0
2, 28437, Note_on_c, 0, 89, 0
2, 28448, Note_on_c, 0, 86, 0
2, 28582, Note_on_c, 0, 74, 69
2, 28587, Note_on_c, 0, 46, 61
2, 28587, Note_on_c, 0, 62, 64
2, 28599, Control_c, 0, 64, 127
2, 28641, Control_c, 0, 64, 0
2, 28706, Note_on_c, 0, 82, 68
2, 28828, Note_on_c, 0, 82, 0
2, 28828, Note_on_c, 0, 58, 68
2, 28828, Note_on_c, 0, 53, 66
2, 28834, Note_on_c, 0, 79, 66
2, 28942, Note_on_c, 0, 53, 0
2, 28942, Note_on_c, 0, 46, 0
2, 28956, Note_on_c, 0, 79, 0
2, 28959, Note_on_c, 0, 74, 0
2, 28959, Note_on_c, 0, 58, 0
2, 28959, Note_on_c, 0, 62, 0
2, 28967, Note_on_c, 0, 77, 67
2, 29083, Note_on_c, 0, 63, 64
2, 29086, Note_on_c, 0, 77, 0
2, 29086, Note_on_c, 0, 48, 64
2, 29086, Note_on_c, 0, 75, 68
2, 29231, Note_on_c, 0, 84, 69
2, 29350, Note_on_c, 0, 53, 63
2, 29356, Note_on_c, 0, 57, 61
2, 29410, Note_on_c, 0, 84, 0
2, 29455, Note_on_c, 0, 75, 0
2, 29455, Note_on_c, 0, 63, 0
2, 29461, Note_on_c, 0, 48, 0
2, 29461, Note_on_c, 0, 53, 0
2, 29461, Note_on_c, 0, 57, 0
2, 29469, Note_on_c, 0, 85, 69
2, 29597, Note_on_c, 0, 85, 0
2, 29602, Note_on_c, 0, 62, 64
2, 29602, Note_on_c, 0, 46, 61
2, 29602, Note_on_c, 0, 74, 64
2, 29611, Note_on_c, 0, 86, 61
2, 29617, Control_c, 0, 64, 127
2, 29707, Note_on_c, 0, 46, 0
2, 29724, Note_on_c, 0, 86, 0
2, 29733, Note_on_c, 0, 77, 66
2, 29756, Control_c, 0, 64, 0
2, 29849, Note_on_c, 0, 53, 67
2, 29852, Note_on_c, 0, 77, 0
2, 29852, Note_on_c, 0, 82, 70
2, 29866, Note_on_c, 0, 58, 68
2, 29977, Note_on_c, 0, 82, 0
2, 29980, Note_on_c, 0, 53, 0
2, 29980, Note_on_c, 0, 58, 0
2, 30000, Note_on_c, 0, 86, 67
2, 30039, Note_on_c, 0, 86, 0
2, 30045, Note_on_c, 0, 62, 0
2, 30059, Note_on_c, 0, 74, 0
2, 30113, Note_on_c, 0, 58, 63
2, 30119, Note_on_c, 0, 91, 67
2, 30122, Note_on_c, 0, 86, 64
2, 30122, Note_on_c, 0, 46, 62
2, 30210, Note_on_c, 0, 46, 0
2, 30235, Note_on_c, 0, 94, 73
2, 30238, Note_on_c, 0, 91, 0
2, 30241, Note_on_c, 0, 58, 0
2, 30371, Note_on_c, 0, 55, 60
2, 30377, Note_on_c, 0, 43, 60
2, 30476, Note_on_c, 0, 55, 0
2, 30479, Note_on_c, 0, 43, 0
2, 30488, Note_on_c, 0, 94, 0
2, 30496, Note_on_c, 0, 86, 0
2, 30627, Note_on_c, 0, 93, 72
2, 30630, Note_on_c, 0, 42, 57
2, 30633, Note_on_c, 0, 54, 59
2, 30661, Control_c, 0, 64, 127
2, 30703, Control_c, 0, 64, 0
2, 30735, Note_on_c, 0, 54, 0
2, 30738, Note_on_c, 0, 42, 0
2, 30757, Note_on_c, 0, 93, 0
2, 30760, Note_on_c, 0, 96, 70
2, 30871, Note_on_c, 0, 96, 0
2, 30879, Note_on_c, 0, 54, 63
2, 30879, Note_on_c, 0, 60, 65
2, 30891, Note_on_c, 0, 98, 72
2, 30897, Note_on_c, 0, 62, 66
2, 30999, Note_on_c, 0, 54, 0
2, 31002, Note_on_c, 0, 60, 0
2, 31002, Note_on_c, 0, 98, 0
2, 31007, Note_on_c, 0, 62, 0
2, 31007, Note_on_c, 0, 90, 68
2, 31021, Note_on_c, 0, 99, 69
2, 31132, Note_on_c, 0, 38, 60
2, 31135, Note_on_c, 0, 50, 59
2, 31183, Note_on_c, 0, 99, 0
2, 31183, Note_on_c, 0, 90, 0
2, 31254, Note_on_c, 0, 50, 0
2, 31257, Note_on_c, 0, 38, 0
2, 31271, Note_on_c, 0, 98, 75
2, 31405, Note_on_c, 0, 90, 68
2, 31408, Note_on_c, 0, 98, 0
2, 31408, Note_on_c, 0, 60, 62
2, 31408, Note_on_c, 0, 62, 63
2, 31411, Note_on_c, 0, 93, 67
2, 31411, Note_on_c, 0, 54, 58
2, 31510, Note_on_c, 0, 54, 0
2, 31513, Note_on_c, 0, 60, 0
2, 31521, Note_on_c, 0, 90, 0
2, 31533, Note_on_c, 0, 62, 0
2, 31533, Note_on_c, 0, 93, 0
2, 31655, Note_on_c, 0, 91, 65
2, 31655, Note_on_c, 0, 55, 60
2, 31660, Note_on_c, 0, 96, 68
2, 31660, Note_on_c, 0, 43, 59
2, 31694, Control_c, 0, 64, 127
2, 31729, Control_c, 0, 64, 0
2, 31774, Note_on_c, 0, 43, 0
2, 31774, Note_on_c, 0, 96, 0
2, 31777, Note_on_c, 0, 55, 0
2, 31783, Note_on_c, 0, 94, 74
2, 31893, Note_on_c, 0, 94, 0
2, 31902, Note_on_c, 0, 55, 64
2, 31916, Note_on_c, 0, 58, 67
2, 31919, Note_on_c, 0, 93, 72
2, 31922, Note_on_c, 0, 62, 66
2, 32024, Note_on_c, 0, 58, 0
2, 32030, Note_on_c, 0, 55, 0
2, 32035, Note_on_c, 0, 93, 0
2, 32038, Note_on_c, 0, 62, 0
2, 32038, Note_on_c, 0, 94, 74
2, 32163, Note_on_c, 0, 50, 60
2, 32163, Note_on_c, 0, 38, 60
2, 32214, Note_on_c, 0, 94, 0
2, 32214, Note_on_c, 0, 91, 0
2, 32285, Note_on_c, 0, 50, 0
2, 32288, Note_on_c, 0, 38, 0
2, 32422, Note_on_c, 0, 58, 64
2, 32427, Note_on_c, 0, 55, 59
2, 32427, Note_on_c, 0, 62, 64
2, 32530, Note_on_c, 0, 55, 0
2, 32541, Note_on_c, 0, 94, 71
2, 32547, Note_on_c, 0, 58, 0
2, 32552, Note_on_c, 0, 62, 0
2, 32552, Note_on_c, 0, 87, 65
2, 32677, Note_on_c, 0, 55, 59
2, 32683, Note_on_c, 0, 43, 60
2, 32712, Control_c, 0, 64, 127
2, 32757, Control_c, 0, 64, 0
2, 32794, Note_on_c, 0, 94, 0
2, 32797, Note_on_c, 0, 87, 0
2, 32800, Note_on_c, 0, 55, 0
2, 32803, Note_on_c, 0, 43, 0
2, 32817, Note_on_c, 0, 82, 69
2, 32936, Note_on_c, 0, 39, 62
2, 32942, Note_on_c, 0, 82, 0
2, 32945, Note_on_c, 0, 91, 65
2, 32948, Note_on_c, 0, 51, 64
2, 32953, Note_on_c, 0, 87, 67
2, 33056, Note_on_c, 0, 51, 0
2, 33070, Note_on_c, 0, 87, 0
2, 33075, Note_on_c, 0, 39, 0
2, 33075, Note_on_c, 0, 79, 64
2, 33195, Note_on_c, 0, 79, 0
2, 33198, Note_on_c, 0, 82, 69
2, 33206, Note_on_c, 0, 50, 59
2, 33206, Note_on_c, 0, 38, 60
2, 33326, Note_on_c, 0, 82, 0
2, 33326, Note_on_c, 0, 91, 0
2, 33334, Note_on_c, 0, 50, 0
2, 33337, Note_on_c, 0, 38, 0
2, 33360, Note_on_c, 0, 89, 67
2, 33360, Note_on_c, 0, 86, 64
2, 33476, Note_on_c, 0, 58, 64
2, 33479, Note_on_c, 0, 53, 61
2, 33482, Note_on_c, 0, 62, 62
2, 33519, Note_on_c, 0, 86, 0
2, 33587, Note_on_c, 0, 53, 0
2, 33590, Note_on_c, 0, 89, 0
2, 33590, Note_on_c, 0, 58, 0
2, 33599, Note_on_c, 0, 62, 0
2, 33616, Note_on_c, 0, 77, 68
2, 33732, Note_on_c, 0, 77, 0
2, 33738, Note_on_c, 0, 53, 61
2, 33741, Note_on_c, 0, 41, 60
2, 33744, Note_on_c, 0, 87, 64
2, 33744, Note_on_c, 0, 84, 64
2, 33763, Control_c, 0, 64, 127
2, 33792, Control_c, 0, 64, 0
2, 33843, Note_on_c, 0, 53, 0
2, 33846, Note_on_c, 0, 41, 0
2, 33860, Note_on_c, 0, 87, 0
2, 33860, Note_on_c, 0, 84, 0
2, 33866, Note_on_c, 0, 79, 64
2, 33968, Note_on_c, 0, 79, 0
2, 33985, Note_on_c, 0, 63, 65
2, 33985, Note_on_c, 0, 53, 64
2, 33988, Note_on_c, 0, 81, 67
2, 33991, Note_on_c, 0, 57, 64
2, 33991, Note_on_c, 0, 87, 66
2, 34096, Note_on_c, 0, 53, 0
2, 34108, Note_on_c, 0, 57, 0
2, 34108, Note_on_c, 0, 63, 0
2, 34108, Note_on_c, 0, 81, 0
2, 34113, Note_on_c, 0, 87, 0
2, 34119, Note_on_c, 0, 82, 65
2, 34128, Note_on_c, 0, 86, 62
2, 34241, Note_on_c, 0, 46, 63
2, 34256, Note_on_c, 0, 58, 64
2, 34349, Note_on_c, 0, 46, 0
2, 34366, Note_on_c, 0, 86, 0
2, 34369, Note_on_c, 0, 82, 0
2, 34369, Note_on_c, 0, 58, 0
2, 34369, Note_on_c, 0, 45, 59
2, 34384, Note_on_c, 0, 57, 60
2, 34392, Note_on_c, 0, 77, 67
2, 34494, Note_on_c, 0, 57, 0
2, 34494, Note_on_c, 0, 45, 0
2, 34509, Note_on_c, 0, 77, 0
2, 34514, Note_on_c, 0, 56, 59
2, 34523, Note_on_c, 0, 89, 66
2, 34526, Note_on_c, 0, 86, 64
2, 34526, Note_on_c, 0, 44, 59
2, 34617, Note_on_c, 0, 56, 0
2, 34623, Note_on_c, 0, 44, 0
2, 34637, Note_on_c, 0, 86, 0
2, 34640, Note_on_c, 0, 89, 0
2, 34759, Note_on_c, 0, 94, 70
2, 34765, Note_on_c, 0, 55, 60
2, 34768, Note_on_c, 0, 87, 64
2, 34768, Note_on_c, 0, 43, 59
2, 34782, Control_c, 0, 64, 127
2, 34827, Control_c, 0, 64, 0
2, 34873, Note_on_c, 0, 43, 0
2, 34873, Note_on_c, 0, 55, 0
2, 34887, Note_on_c, 0, 87, 0
2, 34890, Note_on_c, 0, 82, 68
2, 34890, Note_on_c, 0, 53, 61
2, 34896, Note_on_c, 0, 41, 59
2, 34998, Note_on_c, 0, 53, 0
2, 35001, Note_on_c, 0, 41, 0
2, 35012, Note_on_c, 0, 94, 0
2, 35018, Note_on_c, 0, 82, 0
2, 35018, Note_on_c, 0, 51, 64
2, 35021, Note_on_c, 0, 39, 61
2, 35021, Note_on_c, 0, 87, 65
2, 35021, Note_on_c, 0, 91, 64
2, 35123, Note_on_c, 0, 39, 0
2, 35123, Note_on_c, 0, 51, 0
2, 35143, Note_on_c, 0, 87, 0
2, 35143, Note_on_c, 0, 79, 64
2, 35269, Note_on_c, 0, 91, 0
2, 35274, Note_on_c, 0, 79, 0
2, 35274, Note_on_c, 0, 82, 67
2, 35277, Note_on_c, 0, 50, 59
2, 35277, Note_on_c, 0, 38, 60
2, 35382, Note_on_c, 0, 50, 0
2, 35397, Note_on_c, 0, 38, 0
2, 35397, Note_on_c, 0, 82, 0
2, 35402, Note_on_c, 0, 86, 62
2, 35422, Note_on_c, 0, 89, 67
2, 35536, Note_on_c, 0, 58, 64
2, 35536, Note_on_c, 0, 53, 62
2, 35542, Note_on_c, 0, 62, 63
2, 35579, Note_on_c, 0, 86, 0
2, 35584, Note_on_c, 0, 89, 0
2, 35633, Note_on_c, 0, 53, 0
2, 35650, Note_on_c, 0, 58, 0
2, 35656, Note_on_c, 0, 62, 0
2, 35673, Note_on_c, 0, 77, 68
2, 35784, Note_on_c, 0, 77, 0
2, 35792, Note_on_c, 0, 53, 62
2, 35801, Note_on_c, 0, 87, 64
2, 35801, Note_on_c, 0, 41, 60
2, 35804, Note_on_c, 0, 84, 64
2, 35818, Control_c, 0, 64, 127
2, 35863, Control_c, 0, 64, 0
2, 35903, Note_on_c, 0, 53, 0
2, 35906, Note_on_c, 0, 41, 0
2, 35918, Note_on_c, 0, 87, 0
2, 35918, Note_on_c, 0, 84, 0
2, 35926, Note_on_c, 0, 79, 64
2, 36043, Note_on_c, 0, 53, 65
2, 36046, Note_on_c, 0, 79, 0
2, 36046, Note_on_c, 0, 63, 66
2, 36046, Note_on_c, 0, 81, 65
2, 36049, Note_on_c, 0, 57, 64
2, 36049, Note_on_c, 0, 87, 65
2, 36154, Note_on_c, 0, 53, 0
2, 36165, Note_on_c, 0, 63, 0
2, 36165, Note_on_c, 0, 81, 0
2, 36168, Note_on_c, 0, 57, 0
2, 36168, Note_on_c, 0, 87, 0
2, 36174, Note_on_c, 0, 82, 65
2, 36180, Note_on_c, 0, 86, 62
2, 36296, Note_on_c, 0, 46, 62
2, 36305, Note_on_c, 0, 58, 64
2, 36405, Note_on_c, 0, 46, 0
2, 36419, Note_on_c, 0, 58, 0
2, 36547, Note_on_c, 0, 82, 0
2, 36550, Note_on_c, 0, 41, 61
2, 36558, Note_on_c, 0, 86, 0
2, 36561, Note_on_c, 0, 53, 63
2, 36672, Note_on_c, 0, 41, 0
2, 36675, Note_on_c, 0, 53, 0
2, 36687, Note_on_c, 0, 94, 72
2, 36695, Note_on_c, 0, 87, 67
2, 36823, Note_on_c, 0, 55, 60
2, 36829, Note_on_c, 0, 43, 60
2, 36840, Control_c, 0, 64, 127
2, 36872, Control_c, 0, 64, 0
2, 36926, Note_on_c, 0, 43, 0
2, 36926, Note_on_c, 0, 55, 0
2, 36940, Note_on_c, 0, 87, 0
2, 36940, Note_on_c, 0, 82, 68
2, 37063, Note_on_c, 0, 94, 0
2, 37068, Note_on_c, 0, 82, 0
2, 37068, Note_on_c, 0, 51, 65
2, 37071, Note_on_c, 0, 91, 64
2, 37074, Note_on_c, 0, 39, 62
2, 37074, Note_on_c, 0, 87, 65
2, 37191, Note_on_c, 0, 87, 0
2, 37191, Note_on_c, 0, 51, 0
2, 37197, Note_on_c, 0, 39, 0
2, 37211, Note_on_c, 0, 79, 67
2, 37319, Note_on_c, 0, 91, 0
2, 37322, Note_on_c, 0, 79, 0
2, 37325, Note_on_c, 0, 38, 60
2, 37336, Note_on_c, 0, 82, 70
2, 37348, Note_on_c, 0, 50, 59
2, 37453, Note_on_c, 0, 50, 0
2, 37464, Note_on_c, 0, 82, 0
2, 37470, Note_on_c, 0, 38, 0
2, 37473, Note_on_c, 0, 86, 64
2, 37490, Note_on_c, 0, 89, 67
2, 37590, Note_on_c, 0, 53, 60
2, 37607, Note_on_c, 0, 58, 63
2, 37616, Note_on_c, 0, 62, 63
2, 37698, Note_on_c, 0, 53, 0
2, 37710, Note_on_c, 0, 58, 0
2, 37710, Note_on_c, 0, 86, 0
2, 37710, Note_on_c, 0, 89, 0
2, 37718, Note_on_c, 0, 62, 0
2, 37735, Note_on_c, 0, 77, 68
2, 37832, Note_on_c, 0, 77, 0
2, 37838, Note_on_c, 0, 53, 62
2, 37846, Note_on_c, 0, 41, 60
2, 37861, Note_on_c, 0, 87, 64
2, 37864, Note_on_c, 0, 84, 64
2, 37878, Control_c, 0, 64, 127
2, 37921, Control_c, 0, 64, 0
2, 37960, Note_on_c, 0, 87, 0
2, 37963, Note_on_c, 0, 53, 0
2, 37966, Note_on_c, 0, 41, 0
2, 37980, Note_on_c, 0, 84, 0
2, 37986, Note_on_c, 0, 79, 65
2, 38089, Note_on_c, 0, 79, 0
2, 38094, Note_on_c, 0, 63, 64
2, 38106, Note_on_c, 0, 81, 67
2, 38106, Note_on_c, 0, 53, 65
2, 38109, Note_on_c, 0, 57, 64
2, 38114, Note_on_c, 0, 87, 67
2, 38217, Note_on_c, 0, 81, 0
2, 38220, Note_on_c, 0, 63, 0
2, 38220, Note_on_c, 0, 87, 0
2, 38223, Note_on_c, 0, 53, 0
2, 38223, Note_on_c, 0, 57, 0
2, 38240, Note_on_c, 0, 82, 67
2, 38246, Note_on_c, 0, 86, 63
2, 38368, Note_on_c, 0, 46, 64
2, 38471, Note_on_c, 0, 46, 0
2, 38485, Note_on_c, 0, 86, 0
2, 38485, Note_on_c, 0, 82, 0
2, 38488, Note_on_c, 0, 58, 66
2, 38497, Note_on_c, 0, 77, 67
2, 38613, Note_on_c, 0, 77, 0
2, 38619, Note_on_c, 0, 58, 0
2, 38625, Note_on_c, 0, 86, 62
2, 38628, Note_on_c, 0, 44, 61
2, 38645, Note_on_c, 0, 89, 67
2, 38745, Note_on_c, 0, 89, 0
2, 38745, Note_on_c, 0, 86, 0
2, 38750, Note_on_c, 0, 44, 0
2, 38762, Note_on_c, 0, 56, 61
2, 38867, Note_on_c, 0, 56, 0
2, 38882, Note_on_c, 0, 43, 61
2, 38887, Note_on_c, 0, 94, 70
2, 38893, Note_on_c, 0, 87, 64
2, 38910, Control_c, 0, 64, 127
2, 38950, Control_c, 0, 64, 0
2, 38999, Note_on_c, 0, 87, 0
2, 38999, Note_on_c, 0, 43, 0
2, 39016, Note_on_c, 0, 82, 69
2, 39021, Note_on_c, 0, 55, 61
2, 39124, Note_on_c, 0, 94, 0
2, 39127, Note_on_c, 0, 55, 0
2, 39130, Note_on_c, 0, 39, 63
2, 39144, Note_on_c, 0, 91, 66
2, 39147, Note_on_c, 0, 87, 67
2, 39193, Note_on_c, 0, 82, 0
2, 39255, Note_on_c, 0, 39, 0
2, 39270, Note_on_c, 0, 87, 0
2, 39270, Note_on_c, 0, 51, 62
2, 39270, Note_on_c, 0, 79, 65
2, 39372, Note_on_c, 0, 51, 0
2, 39392, Note_on_c, 0, 91, 0
2, 39395, Note_on_c, 0, 79, 0
2, 39395, Note_on_c, 0, 82, 68
2, 39398, Note_on_c, 0, 38, 61
2, 39523, Note_on_c, 0, 82, 0
2, 39529, Note_on_c, 0, 38, 0
2, 39532, Note_on_c, 0, 50, 60
2, 39535, Note_on_c, 0, 89, 67
2, 39538, Note_on_c, 0, 86, 64
2, 39640, Note_on_c, 0, 50, 0
2, 39655, Note_on_c, 0, 58, 62
2, 39658, Note_on_c, 0, 53, 60
2, 39678, Note_on_c, 0, 62, 62
2, 39720, Note_on_c, 0, 86, 0
2, 39720, Note_on_c, 0, 89, 0
2, 39780, Note_on_c, 0, 53, 0
2, 39783, Note_on_c, 0, 58, 0
2, 39789, Note_on_c, 0, 62, 0
2, 39803, Note_on_c, 0, 77, 68
2, 39906, Note_on_c, 0, 77, 0
2, 39914, Note_on_c, 0, 41, 60
2, 39920, Note_on_c, 0, 53, 61
2, 39929, Note_on_c, 0, 87, 64
2, 39932, Note_on_c, 0, 84, 64
2, 39949, Control_c, 0, 64, 127
2, 39983, Control_c, 0, 64, 0
2, 40032, Note_on_c, 0, 87, 0
2, 40032, Note_on_c, 0, 41, 0
2, 40032, Note_on_c, 0, 53, 0
2, 40049, Note_on_c, 0, 84, 0
2, 40049, Note_on_c, 0, 79, 64
2, 40157, Note_on_c, 0, 79, 0
2, 40174, Note_on_c, 0, 63, 66
2, 40174, Note_on_c, 0, 53, 65
2, 40177, Note_on_c, 0, 81, 67
2, 40180, Note_on_c, 0, 57, 64
2, 40186, Note_on_c, 0, 87, 67
2, 40280, Note_on_c, 0, 63, 0
2, 40286, Note_on_c, 0, 53, 0
2, 40297, Note_on_c, 0, 81, 0
2, 40300, Note_on_c, 0, 57, 0
2, 40300, Note_on_c, 0, 87, 0
2, 40306, Note_on_c, 0, 82, 64
2, 40314, Note_on_c, 0, 86, 62
2, 40431, Note_on_c, 0, 58, 64
2, 40437, Note_on_c, 0, 46, 62
2, 40545, Note_on_c, 0, 46, 0
2, 40560, Note_on_c, 0, 58, 0
2, 40680, Note_on_c, 0, 86, 0
2, 40680, Note_on_c, 0, 82, 0
2, 40685, Note_on_c, 0, 38, 59
2, 40688, Note_on_c, 0, 50, 58
2, 40705, Note_on_c, 0, 78, 54
2, 40711, Note_on_c, 0, 74, 57
2, 40711, Note_on_c, 0, 66, 55
2, 40711, Note_on_c, 0, 69, 54
2, 40788, Note_on_c, 0, 69, 0
2, 40808, Note_on_c, 0, 66, 0
2, 40811, Note_on_c, 0, 78, 0
2, 40811, Note_on_c, 0, 50, 0
2, 40814, Note_on_c, 0, 38, 0
2, 40814, Note_on_c, 0, 74, 0
2, 40828, Note_on_c, 0, 79, 63
2, 40828, Note_on_c, 0, 67, 64
2, 40882, Note_on_c, 0, 81, 67
2, 40888, Note_on_c, 0, 69, 66
2, 40931, Note_on_c, 0, 67, 0
2, 40931, Note_on_c, 0, 79, 0
2, 40942, Note_on_c, 0, 43, 59
2, 40954, Note_on_c, 0, 82, 65
2, 40957, Note_on_c, 0, 70, 63
2, 40957, Note_on_c, 0, 55, 58
2, 40977, Note_on_c, 0, 81, 0
2, 40977, Note_on_c, 0, 69, 0
2, 40982, Control_c, 0, 64, 127
2, 41059, Note_on_c, 0, 82, 0
2, 41059, Control_c, 0, 64, 0
2, 41062, Note_on_c, 0, 43, 0
2, 41062, Note_on_c, 0, 55, 0
2, 41062, Note_on_c, 0, 70, 0
2, 41079, Note_on_c, 0, 81, 68
2, 41085, Note_on_c, 0, 69, 66
2, 41185, Note_on_c, 0, 81, 0
2, 41205, Note_on_c, 0, 69, 0
2, 41205, Note_on_c, 0, 58, 65
2, 41214, Note_on_c, 0, 55, 57
2, 41217, Note_on_c, 0, 67, 61
2, 41217, Note_on_c, 0, 62, 61
2, 41217, Note_on_c, 0, 79, 60
2, 41314, Note_on_c, 0, 79, 0
2, 41314, Note_on_c, 0, 55, 0
2, 41319, Note_on_c, 0, 62, 0
2, 41331, Note_on_c, 0, 67, 0
2, 41331, Note_on_c, 0, 58, 0
2, 41334, Note_on_c, 0, 82, 66
2, 41334, Note_on_c, 0, 70, 64
2, 41465, Note_on_c, 0, 38, 60
2, 41468, Note_on_c, 0, 50, 59
2, 41516, Note_on_c, 0, 82, 0
2, 41519, Note_on_c, 0, 70, 0
2, 41571, Note_on_c, 0, 50, 0
2, 41579, Note_on_c, 0, 81, 67
2, 41585, Note_on_c, 0, 38, 0
2, 41599, Note_on_c, 0, 69, 67
2, 41702, Note_on_c, 0, 81, 0
2, 41705, Note_on_c, 0, 69, 0
2, 41714, Note_on_c, 0, 55, 59
2, 41722, Note_on_c, 0, 58, 63
2, 41731, Note_on_c, 0, 79, 62
2, 41731, Note_on_c, 0, 67, 64
2, 41731, Note_on_c, 0, 62, 62
2, 41834, Note_on_c, 0, 79, 0
2, 41834, Note_on_c, 0, 55, 0
2, 41834, Note_on_c, 0, 58, 0
2, 41842, Note_on_c, 0, 62, 0
2, 41848, Note_on_c, 0, 67, 0
2, 41974, Note_on_c, 0, 81, 66
2, 41974, Note_on_c, 0, 69, 64
2, 41982, Note_on_c, 0, 42, 57
2, 41982, Note_on_c, 0, 54, 59
2, 42005, Control_c, 0, 64, 127
2, 42051, Control_c, 0, 64, 0
2, 42082, Note_on_c, 0, 54, 0
2, 42088, Note_on_c, 0, 42, 0
2, 42094, Note_on_c, 0, 81, 0
2, 42097, Note_on_c, 0, 69, 0
2, 42231, Note_on_c, 0, 60, 65
2, 42234, Note_on_c, 0, 79, 64
2, 42234, Note_on_c, 0, 67, 67
2, 42251, Note_on_c, 0, 62, 65
2, 42251, Note_on_c, 0, 54, 64
2, 42282, Note_on_c, 0, 54, 0
2, 42348, Note_on_c, 0, 60, 0
2, 42348, Note_on_c, 0, 67, 0
2, 42348, Note_on_c, 0, 79, 0
2, 42354, Note_on_c, 0, 66, 62
2, 42357, Note_on_c, 0, 62, 0
2, 42357, Note_on_c, 0, 54, 64
2, 42368, Note_on_c, 0, 78, 64
2, 42480, Note_on_c, 0, 78, 0
2, 42480, Note_on_c, 0, 38, 60
2, 42480, Note_on_c, 0, 50, 59
2, 42602, Note_on_c, 0, 54, 0
2, 42608, Note_on_c, 0, 50, 0
2, 42608, Note_on_c, 0, 38, 0
2, 42622, Note_on_c, 0, 74, 70
2, 42734, Note_on_c, 0, 74, 0
2, 42745, Note_on_c, 0, 81, 68
2, 42751, Note_on_c, 0, 60, 62
2, 42754, Note_on_c, 0, 62, 63
2, 42757, Note_on_c, 0, 54, 57
2, 42848, Note_on_c, 0, 81, 0
2, 42854, Note_on_c, 0, 66, 0
2, 42854, Note_on_c, 0, 54, 0
2, 42854, Note_on_c, 0, 60, 0
2, 42863, Note_on_c, 0, 62, 0
2, 42868, Note_on_c, 0, 69, 69
2, 42874, Note_on_c, 0, 57, 62
2, 42914, Note_on_c, 0, 57, 0
2, 42931, Note_on_c, 0, 70, 70
2, 42931, Note_on_c, 0, 58, 64
2, 42994, Note_on_c, 0, 69, 0
2, 43003, Note_on_c, 0, 57, 60
2, 43006, Note_on_c, 0, 60, 58
2, 43006, Note_on_c, 0, 72, 68
2, 43006, Note_on_c, 0, 45, 55
2, 43028, Note_on_c, 0, 58, 0
2, 43028, Note_on_c, 0, 70, 0
2, 43057, Control_c, 0, 64, 127
2, 43117, Note_on_c, 0, 72, 0
2, 43120, Note_on_c, 0, 57, 0
2, 43120, Note_on_c, 0, 45, 0
2, 43123, Note_on_c, 0, 60, 0
2, 43123, Note_on_c, 0, 70, 70
2, 43123, Note_on_c, 0, 58, 64
2, 43126, Control_c, 0, 64, 0
2, 43249, Note_on_c, 0, 58, 0
2, 43252, Note_on_c, 0, 70, 0
2, 43260, Note_on_c, 0, 69, 71
2, 43272, Note_on_c, 0, 57, 61
2, 43272, Note_on_c, 0, 54, 61
2, 43272, Note_on_c, 0, 62, 64
2, 43374, Note_on_c, 0, 57, 0
2, 43374, Note_on_c, 0, 69, 0
2, 43377, Note_on_c, 0, 54, 0
2, 43383, Note_on_c, 0, 62, 0
2, 43395, Note_on_c, 0, 60, 63
2, 43400, Note_on_c, 0, 72, 70
2, 43515, Note_on_c, 0, 50, 59
2, 43515, Note_on_c, 0, 38, 60
2, 43560, Note_on_c, 0, 72, 0
2, 43569, Note_on_c, 0, 60, 0
2, 43632, Note_on_c, 0, 38, 0
2, 43635, Note_on_c, 0, 50, 0
2, 43643, Note_on_c, 0, 58, 66
2, 43643, Note_on_c, 0, 70, 70
2, 43758, Note_on_c, 0, 58, 0
2, 43761, Note_on_c, 0, 70, 0
2, 43772, Note_on_c, 0, 69, 69
2, 43781, Note_on_c, 0, 57, 60
2, 43784, Note_on_c, 0, 54, 59
2, 43784, Note_on_c, 0, 42, 56
2, 43881, Note_on_c, 0, 54, 0
2, 43884, Note_on_c, 0, 42, 0
2, 43884, Note_on_c, 0, 57, 0
2, 43895, Note_on_c, 0, 69, 0
2, 44027, Note_on_c, 0, 58, 63
2, 44027, Note_on_c, 0, 70, 69
2, 44030, Note_on_c, 0, 55, 58
2, 44038, Note_on_c, 0, 43, 58
2, 44075, Control_c, 0, 64, 127
2, 44101, Control_c, 0, 64, 0
2, 44135, Note_on_c, 0, 43, 0
2, 44138, Note_on_c, 0, 55, 0
2, 44144, Note_on_c, 0, 70, 0
2, 44155, Note_on_c, 0, 58, 0
2, 44273, Note_on_c, 0, 58, 67
2, 44276, Note_on_c, 0, 69, 71
2, 44284, Note_on_c, 0, 55, 60
2, 44287, Note_on_c, 0, 62, 65
2, 44327, Note_on_c, 0, 55, 0
2, 44402, Note_on_c, 0, 58, 0
2, 44402, Note_on_c, 0, 69, 0
2, 44407, Note_on_c, 0, 55, 65
2, 44410, Note_on_c, 0, 67, 67
2, 44413, Note_on_c, 0, 62, 0
2, 44559, Note_on_c, 0, 34, 55
2, 44665, Note_on_c, 0, 34, 0
2, 44676, Note_on_c, 0, 74, 69
2, 44679, Note_on_c, 0, 62, 64
2, 44679, Note_on_c, 0, 46, 61
2, 44765, Note_on_c, 0, 46, 0
2, 44779, Note_on_c, 0, 67, 0
2, 44785, Note_on_c, 0, 55, 0
2, 44788, Note_on_c, 0, 74, 0
2, 44788, Note_on_c, 0, 38, 60
2, 44791, Note_on_c, 0, 62, 0
2, 44802, Note_on_c, 0, 70, 65
2, 44805, Note_on_c, 0, 82, 66
2, 44911, Note_on_c, 0, 70, 0
2, 44925, Note_on_c, 0, 82, 0
2, 44928, Note_on_c, 0, 67, 65
2, 44931, Note_on_c, 0, 38, 0
2, 44931, Note_on_c, 0, 55, 59
2, 44934, Note_on_c, 0, 50, 59
2, 44991, Note_on_c, 0, 69, 68
2, 44997, Note_on_c, 0, 57, 61
2, 45043, Note_on_c, 0, 55, 0
2, 45046, Note_on_c, 0, 50, 0
2, 45057, Note_on_c, 0, 67, 0
2, 45060, Note_on_c, 0, 58, 62
2, 45060, Note_on_c, 0, 70, 66
2, 45068, Note_on_c, 0, 43, 58
2, 45103, Note_on_c, 0, 57, 0
2, 45103, Note_on_c, 0, 69, 0
2, 45106, Control_c, 0, 64, 127
2, 45180, Note_on_c, 0, 43, 0
2, 45183, Note_on_c, 0, 58, 0
2, 45183, Note_on_c, 0, 70, 0
2, 45192, Note_on_c, 0, 55, 58
2, 45200, Note_on_c, 0, 69, 70
2, 45206, Control_c, 0, 64, 0
2, 45212, Note_on_c, 0, 57, 59
2, 45232, Note_on_c, 0, 55, 0
2, 45303, Note_on_c, 0, 69, 0
2, 45306, Note_on_c, 0, 57, 0
2, 45309, Note_on_c, 0, 67, 67
2, 45315, Note_on_c, 0, 55, 66
2, 45320, Note_on_c, 0, 58, 65
2, 45332, Note_on_c, 0, 62, 64
2, 45429, Note_on_c, 0, 55, 0
2, 45429, Note_on_c, 0, 67, 0
2, 45435, Note_on_c, 0, 58, 0
2, 45441, Note_on_c, 0, 62, 0
2, 45446, Note_on_c, 0, 69, 68
2, 45449, Note_on_c, 0, 57, 62
2, 45555, Note_on_c, 0, 69, 0
2, 45558, Note_on_c, 0, 57, 0
2, 45567, Note_on_c, 0, 38, 58
2, 45570, Note_on_c, 0, 70, 70
2, 45570, Note_on_c, 0, 50, 57
2, 45570, Note_on_c, 0, 58, 60
2, 45684, Note_on_c, 0, 58, 0
2, 45684, Note_on_c, 0, 70, 0
2, 45687, Note_on_c, 0, 50, 0
2, 45687, Note_on_c, 0, 38, 0
2, 45704, Note_on_c, 0, 60, 64
2, 45710, Note_on_c, 0, 72, 70
2, 45810, Note_on_c, 0, 60, 0
2, 45824, Note_on_c, 0, 58, 62
2, 45836, Note_on_c, 0, 55, 59
2, 45839, Note_on_c, 0, 62, 63
2, 45870, Note_on_c, 0, 72, 0
2, 45882, Note_on_c, 0, 62, 0
2, 45936, Note_on_c, 0, 55, 0
2, 45956, Note_on_c, 0, 74, 71
2, 45959, Note_on_c, 0, 58, 0
2, 45965, Note_on_c, 0, 62, 64
2, 46077, Note_on_c, 0, 63, 61
2, 46082, Note_on_c, 0, 75, 67
2, 46085, Note_on_c, 0, 74, 0
2, 46088, Note_on_c, 0, 62, 0
2, 46097, Note_on_c, 0, 48, 60
2, 46097, Note_on_c, 0, 36, 53
2, 46125, Control_c, 0, 64, 127
2, 46177, Control_c, 0, 64, 0
2, 46200, Note_on_c, 0, 63, 0
2, 46200, Note_on_c, 0, 75, 0
2, 46208, Note_on_c, 0, 36, 0
2, 46211, Note_on_c, 0, 48, 0
2, 46329, Note_on_c, 0, 63, 64
2, 46346, Note_on_c, 0, 74, 71
2, 46354, Note_on_c, 0, 60, 66
2, 46354, Note_on_c, 0, 55, 64
2, 46395, Note_on_c, 0, 60, 0
2, 46458, Note_on_c, 0, 55, 0
2, 46458, Note_on_c, 0, 63, 0
2, 46478, Note_on_c, 0, 74, 0
2, 46483, Note_on_c, 0, 72, 68
2, 46483, Note_on_c, 0, 60, 64
2, 46607, Note_on_c, 0, 51, 60
2, 46607, Note_on_c, 0, 39, 59
2, 46707, Note_on_c, 0, 51, 0
2, 46730, Note_on_c, 0, 39, 0
2, 46730, Note_on_c, 0, 60, 0
2, 46736, Note_on_c, 0, 67, 64
2, 46736, Note_on_c, 0, 79, 62
2, 46847, Note_on_c, 0, 67, 0
2, 46850, Note_on_c, 0, 79, 0
2, 46850, Note_on_c, 0, 72, 0
2, 46856, Note_on_c, 0, 63, 63
2, 46859, Note_on_c, 0, 60, 63
2, 46862, Note_on_c, 0, 75, 64
2, 46865, Note_on_c, 0, 87, 63
2, 46865, Note_on_c, 0, 55, 59
2, 46902, Note_on_c, 0, 60, 0
2, 46973, Note_on_c, 0, 75, 0
2, 46976, Note_on_c, 0, 63, 0
2, 46976, Note_on_c, 0, 87, 0
2, 46982, Note_on_c, 0, 55, 0
2, 46985, Note_on_c, 0, 60, 59
2, 47002, Note_on_c, 0, 72, 70
2, 47059, Note_on_c, 0, 74, 69
2, 47062, Note_on_c, 0, 62, 65
2, 47100, Note_on_c, 0, 72, 0
2, 47105, Note_on_c, 0, 63, 60
2, 47105, Note_on_c, 0, 75, 67
2, 47108, Note_on_c, 0, 60, 0
2, 47128, Note_on_c, 0, 48, 60
2, 47140, Note_on_c, 0, 36, 53
2, 47157, Note_on_c, 0, 74, 0
2, 47160, Note_on_c, 0, 62, 0
2, 47160, Control_c, 0, 64, 127
2, 47200, Control_c, 0, 64, 0
2, 47226, Note_on_c, 0, 75, 0
2, 47229, Note_on_c, 0, 63, 0
2, 47237, Note_on_c, 0, 36, 0
2, 47240, Note_on_c, 0, 48, 0
2, 47251, Note_on_c, 0, 74, 71
2, 47257, Note_on_c, 0, 62, 64
2, 47360, Note_on_c, 0, 62, 0
2, 47363, Note_on_c, 0, 74, 0
2, 47378, Note_on_c, 0, 63, 64
2, 47386, Note_on_c, 0, 60, 63
2, 47386, Note_on_c, 0, 72, 72
2, 47386, Note_on_c, 0, 55, 60
2, 47389, Note_on_c, 0, 57, 61
2, 47478, Note_on_c, 0, 63, 0
2, 47481, Note_on_c, 0, 55, 0
2, 47484, Note_on_c, 0, 60, 0
2, 47495, Note_on_c, 0, 72, 0
2, 47501, Note_on_c, 0, 57, 0
2, 47501, Note_on_c, 0, 58, 64
2, 47501, Note_on_c, 0, 70, 68
2, 47618, Note_on_c, 0, 69, 67
2, 47621, Note_on_c, 0, 58, 0
2, 47621, Note_on_c, 0, 57, 62
2, 47624, Note_on_c, 0, 70, 0
2, 47627, Note_on_c, 0, 51, 59
2, 47630, Note_on_c, 0, 39, 58
2, 47745, Note_on_c, 0, 51, 0
2, 47745, Note_on_c, 0, 69, 0
2, 47745, Note_on_c, 0, 57, 0
2, 47750, Note_on_c, 0, 39, 0
2, 47753, Note_on_c, 0, 55, 62
2, 47753, Note_on_c, 0, 67, 67
2, 47796, Note_on_c, 0, 55, 0
2, 47877, Note_on_c, 0, 55, 64
2, 47877, Note_on_c, 0, 60, 62
2, 47894, Note_on_c, 0, 57, 59
2, 47934, Note_on_c, 0, 57, 0
2, 47934, Note_on_c, 0, 67, 0
2, 48000, Note_on_c, 0, 60, 0
2, 48000, Note_on_c, 0, 55, 0
2, 48011, Note_on_c, 0, 69, 70
2, 48017, Note_on_c, 0, 57, 64
2, 48123, Note_on_c, 0, 69, 0
2, 48129, Note_on_c, 0, 57, 0
2, 48143, Note_on_c, 0, 66, 67
2, 48152, Note_on_c, 0, 50, 56
2, 48152, Note_on_c, 0, 54, 58
2, 48152, Note_on_c, 0, 38, 58
2, 48241, Note_on_c, 0, 54, 0
2, 48246, Note_on_c, 0, 66, 0
2, 48252, Note_on_c, 0, 50, 0
2, 48252, Note_on_c, 0, 38, 0
2, 48381, Note_on_c, 0, 69, 70
2, 48390, Note_on_c, 0, 48, 64
2, 48393, Note_on_c, 0, 60, 64
2, 48393, Note_on_c, 0, 57, 63
2, 48427, Control_c, 0, 64, 127
2, 48499, Note_on_c, 0, 60, 0
2, 48502, Note_on_c, 0, 48, 0
2, 48505, Control_c, 0, 64, 0
2, 48508, Note_on_c, 0, 69, 0
2, 48508, Note_on_c, 0, 57, 0
2, 48516, Note_on_c, 0, 66, 65
2, 48522, Note_on_c, 0, 74, 65
2, 48525, Note_on_c, 0, 62, 64
2, 48634, Note_on_c, 0, 58, 65
2, 48642, Note_on_c, 0, 46, 62
2, 48740, Note_on_c, 0, 46, 0
2, 48757, Note_on_c, 0, 58, 0
2, 48886, Note_on_c, 0, 45, 60
2, 48901, Note_on_c, 0, 57, 60
2, 49007, Note_on_c, 0, 57, 0
2, 49007, Note_on_c, 0, 66, 0
2, 49007, Note_on_c, 0, 45, 0
2, 49010, Note_on_c, 0, 91, 64
2, 49013, Note_on_c, 0, 74, 0
2, 49013, Note_on_c, 0, 79, 60
2, 49064, Note_on_c, 0, 81, 67
2, 49073, Note_on_c, 0, 62, 0
2, 49090, Note_on_c, 0, 93, 70
2, 49124, Note_on_c, 0, 91, 0
2, 49127, Note_on_c, 0, 79, 0
2, 49133, Note_on_c, 0, 82, 64
2, 49139, Note_on_c, 0, 43, 59
2, 49147, Note_on_c, 0, 94, 68
2, 49150, Note_on_c, 0, 55, 59
2, 49159, Control_c, 0, 64, 127
2, 49173, Note_on_c, 0, 81, 0
2, 49185, Note_on_c, 0, 93, 0
2, 49236, Control_c, 0, 64, 0
2, 49256, Note_on_c, 0, 94, 0
2, 49256, Note_on_c, 0, 82, 0
2, 49259, Note_on_c, 0, 43, 0
2, 49262, Note_on_c, 0, 55, 0
2, 49277, Note_on_c, 0, 81, 67
2, 49277, Note_on_c, 0, 93, 72
2, 49377, Note_on_c, 0, 81, 0
2, 49391, Note_on_c, 0, 93, 0
2, 49400, Note_on_c, 0, 58, 65
2, 49406, Note_on_c, 0, 91, 65
2, 49409, Note_on_c, 0, 79, 61
2, 49409, Note_on_c, 0, 55, 57
2, 49409, Note_on_c, 0, 62, 63
2, 49503, Note_on_c, 0, 91, 0
2, 49506, Note_on_c, 0, 79, 0
2, 49512, Note_on_c, 0, 55, 0
2, 49518, Note_on_c, 0, 62, 0
2, 49523, Note_on_c, 0, 94, 71
2, 49529, Note_on_c, 0, 58, 0
2, 49529, Note_on_c, 0, 82, 67
2, 49658, Note_on_c, 0, 38, 60
2, 49664, Note_on_c, 0, 50, 59
2, 49699, Note_on_c, 0, 94, 0
2, 49713, Note_on_c, 0, 82, 0
2, 49765, Note_on_c, 0, 50, 0
2, 49773, Note_on_c, 0, 81, 67
2, 49785, Note_on_c, 0, 38, 0
2, 49785, Note_on_c, 0, 93, 71
2, 49902, Note_on_c, 0, 81, 0
2, 49911, Note_on_c, 0, 55, 60
2, 49911, Note_on_c, 0, 91, 64
2, 49911, Note_on_c, 0, 79, 60
2, 49914, Note_on_c, 0, 93, 0
2, 49920, Note_on_c, 0, 58, 63
2, 49928, Note_on_c, 0, 62, 62
2, 50029, Note_on_c, 0, 91, 0
2, 50032, Note_on_c, 0, 58, 0
2, 50032, Note_on_c, 0, 79, 0
2, 50037, Note_on_c, 0, 55, 0
2, 50040, Note_on_c, 0, 62, 0
2, 50152, Note_on_c, 0, 81, 68
2, 50164, Note_on_c, 0, 42, 58
2, 50178, Note_on_c, 0, 93, 71
2, 50181, Note_on_c, 0, 54, 60
2, 50201, Control_c, 0, 64, 127
2, 50238, Control_c, 0, 64, 0
2, 50279, Note_on_c, 0, 54, 0
2, 50279, Note_on_c, 0, 81, 0
2, 50287, Note_on_c, 0, 42, 0
2, 50290, Note_on_c, 0, 93, 0
2, 50431, Note_on_c, 0, 91, 67
2, 50434, Note_on_c, 0, 79, 65
2, 50434, Note_on_c, 0, 62, 65
2, 50434, Note_on_c, 0, 60, 65
2, 50434, Note_on_c, 0, 54, 62
2, 50531, Note_on_c, 0, 54, 0
2, 50548, Note_on_c, 0, 91, 0
2, 50551, Note_on_c, 0, 79, 0
2, 50551, Note_on_c, 0, 78, 61
2, 50554, Note_on_c, 0, 60, 0
2, 50557, Note_on_c, 0, 62, 0
2, 50560, Note_on_c, 0, 90, 68
2, 50669, Note_on_c, 0, 90, 0
2, 50683, Note_on_c, 0, 50, 60
2, 50683, Note_on_c, 0, 38, 60
2, 50810, Note_on_c, 0, 50, 0
2, 50813, Note_on_c, 0, 38, 0
2, 50813, Note_on_c, 0, 86, 67
2, 50925, Note_on_c, 0, 86, 0
2, 50945, Note_on_c, 0, 93, 73
2, 50951, Note_on_c, 0, 62, 64
2, 50951, Note_on_c, 0, 60, 62
2, 50954, Note_on_c, 0, 54, 59
2, 51051, Note_on_c, 0, 54, 0
2, 51060, Note_on_c, 0, 93, 0
2, 51060, Note_on_c, 0, 60, 0
2, 51063, Note_on_c, 0, 62, 0
2, 51068, Note_on_c, 0, 81, 67
2, 51074, Note_on_c, 0, 78, 0
2, 51126, Note_on_c, 0, 94, 71
2, 51135, Note_on_c, 0, 82, 67
2, 51175, Note_on_c, 0, 81, 0
2, 51201, Note_on_c, 0, 57, 60
2, 51201, Note_on_c, 0, 45, 59
2, 51206, Note_on_c, 0, 84, 63
2, 51209, Note_on_c, 0, 96, 67
2, 51221, Note_on_c, 0, 94, 0
2, 51226, Note_on_c, 0, 82, 0
2, 51244, Control_c, 0, 64, 127
2, 51304, Note_on_c, 0, 96, 0
2, 51318, Note_on_c, 0, 57, 0
2, 51318, Note_on_c, 0, 84, 0
2, 51318, Note_on_c, 0, 94, 72
2, 51321, Note_on_c, 0, 45, 0
2, 51324, Note_on_c, 0, 82, 69
2, 51330, Control_c, 0, 64, 0
2, 51445, Note_on_c, 0, 94, 0
2, 51448, Note_on_c, 0, 82, 0
2, 51448, Note_on_c, 0, 81, 65
2, 51459, Note_on_c, 0, 54, 61
2, 51459, Note_on_c, 0, 60, 64
2, 51459, Note_on_c, 0, 93, 69
2, 51462, Note_on_c, 0, 62, 64
2, 51571, Note_on_c, 0, 81, 0
2, 51574, Note_on_c, 0, 54, 0
2, 51577, Note_on_c, 0, 60, 0
2, 51583, Note_on_c, 0, 84, 63
2, 51586, Note_on_c, 0, 93, 0
2, 51586, Note_on_c, 0, 62, 0
2, 51586, Note_on_c, 0, 96, 67
2, 51709, Note_on_c, 0, 50, 60
2, 51709, Note_on_c, 0, 38, 60
2, 51764, Note_on_c, 0, 96, 0
2, 51778, Note_on_c, 0, 84, 0
2, 51833, Note_on_c, 0, 82, 67
2, 51836, Note_on_c, 0, 50, 0
2, 51836, Note_on_c, 0, 38, 0
2, 51841, Note_on_c, 0, 94, 71
2, 51954, Note_on_c, 0, 94, 0
2, 51959, Note_on_c, 0, 82, 0
2, 51977, Note_on_c, 0, 81, 67
2, 51982, Note_on_c, 0, 93, 71
2, 51985, Note_on_c, 0, 54, 60
2, 51985, Note_on_c, 0, 42, 58
2, 52071, Note_on_c, 0, 81, 0
2, 52077, Note_on_c, 0, 54, 0
2, 52083, Note_on_c, 0, 42, 0
2, 52100, Note_on_c, 0, 93, 0
2, 52215, Note_on_c, 0, 94, 70
2, 52221, Note_on_c, 0, 82, 67
2, 52227, Note_on_c, 0, 55, 60
2, 52232, Note_on_c, 0, 43, 59
2, 52261, Control_c, 0, 64, 127
2, 52330, Control_c, 0, 64, 0
2, 52342, Note_on_c, 0, 94, 0
2, 52347, Note_on_c, 0, 82, 0
2, 52350, Note_on_c, 0, 55, 0
2, 52350, Note_on_c, 0, 43, 0
2, 52468, Note_on_c, 0, 81, 69
2, 52491, Note_on_c, 0, 58, 67
2, 52497, Note_on_c, 0, 93, 71
2, 52497, Note_on_c, 0, 55, 61
2, 52497, Note_on_c, 0, 62, 65
2, 52598, Note_on_c, 0, 81, 0
2, 52603, Note_on_c, 0, 58, 0
2, 52606, Note_on_c, 0, 55, 0
2, 52612, Note_on_c, 0, 93, 0
2, 52612, Note_on_c, 0, 62, 0
2, 52621, Note_on_c, 0, 91, 66
2, 52624, Note_on_c, 0, 79, 63
2, 52724, Note_on_c, 0, 91, 0
2, 52773, Note_on_c, 0, 34, 55
2, 52862, Note_on_c, 0, 34, 0
2, 52877, Note_on_c, 0, 46, 63
2, 52877, Note_on_c, 0, 86, 67
2, 52977, Note_on_c, 0, 79, 0
2, 52980, Note_on_c, 0, 46, 0
2, 52989, Note_on_c, 0, 94, 73
2, 52992, Note_on_c, 0, 86, 0
2, 52997, Note_on_c, 0, 38, 61
2, 53115, Note_on_c, 0, 94, 0
2, 53118, Note_on_c, 0, 91, 67
2, 53121, Note_on_c, 0, 79, 63
2, 53124, Note_on_c, 0, 38, 0
2, 53124, Note_on_c, 0, 50, 60
2, 53182, Note_on_c, 0, 81, 66
2, 53190, Note_on_c, 0, 93, 70
2, 53230, Note_on_c, 0, 50, 0
2, 53242, Note_on_c, 0, 91, 0
2, 53245, Note_on_c, 0, 94, 66
2, 53248, Note_on_c, 0, 79, 0
2, 53253, Note_on_c, 0, 82, 64
2, 53256, Note_on_c, 0, 43, 60
2, 53276, Note_on_c, 0, 81, 0
2, 53297, Control_c, 0, 64, 127
2, 53302, Note_on_c, 0, 93, 0
2, 53369, Note_on_c, 0, 43, 0
2, 53369, Note_on_c, 0, 94, 0
2, 53369, Note_on_c, 0, 81, 64
2, 53374, Note_on_c, 0, 82, 0
2, 53377, Note_on_c, 0, 55, 60
2, 53392, Control_c, 0, 64, 0
2, 53392, Note_on_c, 0, 93, 73
2, 53417, Note_on_c, 0, 55, 0
2, 53495, Note_on_c, 0, 81, 0
2, 53504, Note_on_c, 0, 93, 0
2, 53512, Note_on_c, 0, 55, 64
2, 53512, Note_on_c, 0, 58, 67
2, 53518, Note_on_c, 0, 91, 66
2, 53521, Note_on_c, 0, 79, 64
2, 53521, Note_on_c, 0, 62, 65
2, 53619, Note_on_c, 0, 91, 0
2, 53622, Note_on_c, 0, 79, 0
2, 53622, Note_on_c, 0, 55, 0
2, 53633, Note_on_c, 0, 62, 0
2, 53636, Note_on_c, 0, 58, 0
2, 53636, Note_on_c, 0, 81, 64
2, 53648, Note_on_c, 0, 93, 69
2, 53754, Note_on_c, 0, 94, 68
2, 53760, Note_on_c, 0, 81, 0
2, 53763, Note_on_c, 0, 82, 64
2, 53766, Note_on_c, 0, 38, 60
2, 53766, Note_on_c, 0, 50, 59
2, 53771, Note_on_c, 0, 93, 0
2, 53875, Note_on_c, 0, 50, 0
2, 53881, Note_on_c, 0, 94, 0
2, 53884, Note_on_c, 0, 82, 0
2, 53889, Note_on_c, 0, 38, 0
2, 53892, Note_on_c, 0, 84, 64
2, 53895, Note_on_c, 0, 96, 69
2, 54007, Note_on_c, 0, 84, 0
2, 54010, Note_on_c, 0, 96, 0
2, 54016, Note_on_c, 0, 55, 60
2, 54025, Note_on_c, 0, 58, 64
2, 54030, Note_on_c, 0, 62, 64
2, 54134, Note_on_c, 0, 58, 0
2, 54134, Note_on_c, 0, 55, 0
2, 54143, Note_on_c, 0, 98, 70
2, 54146, Note_on_c, 0, 62, 0
2, 54146, Note_on_c, 0, 86, 64
2, 54258, Note_on_c, 0, 86, 0
2, 54264, Note_on_c, 0, 98, 0
2, 54264, Note_on_c, 0, 99, 67
2, 54264, Note_on_c, 0, 87, 60
2, 54272, Note_on_c, 0, 36, 56
2, 54275, Note_on_c, 0, 48, 63
2, 54304, Control_c, 0, 64, 127
2, 54347, Control_c, 0, 64, 0
2, 54376, Note_on_c, 0, 99, 0
2, 54382, Note_on_c, 0, 87, 0
2, 54387, Note_on_c, 0, 36, 0
2, 54390, Note_on_c, 0, 48, 0
2, 54505, Note_on_c, 0, 63, 64
2, 54511, Note_on_c, 0, 55, 62
2, 54514, Note_on_c, 0, 60, 64
2, 54514, Note_on_c, 0, 86, 64
2, 54531, Note_on_c, 0, 98, 69
2, 54626, Note_on_c, 0, 63, 0
2, 54632, Note_on_c, 0, 86, 0
2, 54632, Note_on_c, 0, 55, 0
2, 54635, Note_on_c, 0, 60, 0
2, 54638, Note_on_c, 0, 98, 0
2, 54658, Note_on_c, 0, 84, 64
2, 54661, Note_on_c, 0, 96, 69
2, 54759, Note_on_c, 0, 96, 0
2, 54782, Note_on_c, 0, 51, 60
2, 54785, Note_on_c, 0, 39, 59
2, 54888, Note_on_c, 0, 51, 0
2, 54906, Note_on_c, 0, 39, 0
2, 54906, Note_on_c, 0, 91, 70
2, 55027, Note_on_c, 0, 91, 0
2, 55032, Note_on_c, 0, 63, 63
2, 55032, Note_on_c, 0, 99, 73
2, 55041, Note_on_c, 0, 55, 58
2, 55041, Note_on_c, 0, 60, 61
2, 55090, Note_on_c, 0, 84, 0
2, 55153, Note_on_c, 0, 99, 0
2, 55156, Note_on_c, 0, 63, 0
2, 55156, Note_on_c, 0, 82, 66
2, 55159, Note_on_c, 0, 60, 0
2, 55159, Note_on_c, 0, 55, 0
2, 55171, Note_on_c, 0, 94, 71
2, 55240, Note_on_c, 0, 84, 66
2, 55245, Note_on_c, 0, 96, 71
2, 55277, Note_on_c, 0, 94, 0
2, 55280, Note_on_c, 0, 82, 0
2, 55289, Note_on_c, 0, 38, 59
2, 55309, Note_on_c, 0, 98, 67
2, 55309, Note_on_c, 0, 50, 58
2, 55315, Note_on_c, 0, 86, 60
2, 55326, Note_on_c, 0, 84, 0
2, 55329, Note_on_c, 0, 96, 0
2, 55332, Control_c, 0, 64, 127
2, 55378, Control_c, 0, 64, 0
2, 55407, Note_on_c, 0, 98, 0
2, 55410, Note_on_c, 0, 50, 0
2, 55421, Note_on_c, 0, 86, 0
2, 55427, Note_on_c, 0, 38, 0
2, 55427, Note_on_c, 0, 96, 69
2, 55430, Note_on_c, 0, 84, 67
2, 55536, Note_on_c, 0, 96, 0
2, 55551, Note_on_c, 0, 94, 69
2, 55554, Note_on_c, 0, 84, 0
2, 55554, Note_on_c, 0, 58, 67
2, 55557, Note_on_c, 0, 82, 67
2, 55557, Note_on_c, 0, 55, 63
2, 55562, Note_on_c, 0, 62, 64
2, 55666, Note_on_c, 0, 55, 0
2, 55678, Note_on_c, 0, 82, 0
2, 55678, Note_on_c, 0, 94, 0
2, 55678, Note_on_c, 0, 58, 0
2, 55678, Note_on_c, 0, 81, 64
2, 55686, Note_on_c, 0, 62, 0
2, 55689, Note_on_c, 0, 93, 68
2, 55816, Note_on_c, 0, 50, 59
2, 55816, Note_on_c, 0, 38, 60
2, 55871, Note_on_c, 0, 81, 0
2, 55882, Note_on_c, 0, 93, 0
2, 55920, Note_on_c, 0, 50, 0
2, 55940, Note_on_c, 0, 38, 0
2, 55940, Note_on_c, 0, 84, 66
2, 55940, Note_on_c, 0, 96, 71
2, 56055, Note_on_c, 0, 96, 0
2, 56058, Note_on_c, 0, 82, 64
2, 56061, Note_on_c, 0, 60, 63
2, 56069, Note_on_c, 0, 84, 0
2, 56075, Note_on_c, 0, 94, 70
2, 56081, Note_on_c, 0, 62, 63
2, 56084, Note_on_c, 0, 54, 58
2, 56182, Note_on_c, 0, 94, 0
2, 56185, Note_on_c, 0, 54, 0
2, 56185, Note_on_c, 0, 82, 0
2, 56190, Note_on_c, 0, 60, 0
2, 56193, Note_on_c, 0, 62, 0
2, 56199, Note_on_c, 0, 81, 67
2, 56205, Note_on_c, 0, 93, 70
2, 56306, Note_on_c, 0, 81, 0
2, 56320, Note_on_c, 0, 93, 0
2, 56326, Note_on_c, 0, 58, 62
2, 56329, Note_on_c, 0, 91, 64
2, 56332, Note_on_c, 0, 79, 60
2, 56332, Note_on_c, 0, 62, 61
2, 56332, Note_on_c, 0, 55, 57
2, 56363, Control_c, 0, 64, 127
2, 56424, Control_c, 0, 64, 0
2, 56444, Note_on_c, 0, 91, 0
2, 56447, Note_on_c, 0, 79, 0
2, 56574, Note_on_c, 0, 81, 67
2, 56580, Note_on_c, 0, 93, 70
2, 56695, Note_on_c, 0, 81, 0
2, 56695, Note_on_c, 0, 94, 67
2, 56703, Note_on_c, 0, 55, 0
2, 56703, Note_on_c, 0, 58, 0
2, 56703, Note_on_c, 0, 82, 64
2, 56706, Note_on_c, 0, 93, 0
2, 56712, Note_on_c, 0, 62, 0
2, 56822, Note_on_c, 0, 94, 0
2, 56825, Note_on_c, 0, 82, 0
2, 56825, Note_on_c, 0, 63, 63
2, 56836, Note_on_c, 0, 96, 67
2, 56848, Note_on_c, 0, 53, 60
2, 56848, Note_on_c, 0, 57, 59
2, 56848, Note_on_c, 0, 84, 65
2, 56951, Note_on_c, 0, 96, 0
2, 56954, Note_on_c, 0, 53, 0
2, 56969, Note_on_c, 0, 84, 0
2, 57101, Note_on_c, 0, 53, 62
2, 57107, Note_on_c, 0, 41, 60
2, 57208, Note_on_c, 0, 63, 0
2, 57211, Note_on_c, 0, 57, 0
2, 57211, Note_on_c, 0, 53, 0
2, 57211, Note_on_c, 0, 41, 0
2, 57231, Note_on_c, 0, 96, 71
2, 57231, Note_on_c, 0, 84, 66
2, 57292, Note_on_c, 0, 97, 71
2, 57292, Note_on_c, 0, 85, 64
2, 57338, Note_on_c, 0, 96, 0
2, 57355, Note_on_c, 0, 84, 0
2, 57361, Note_on_c, 0, 98, 68
2, 57367, Note_on_c, 0, 86, 63
2, 57384, Note_on_c, 0, 34, 54
2, 57410, Note_on_c, 0, 97, 0
2, 57410, Control_c, 0, 64, 127
2, 57419, Note_on_c, 0, 85, 0
2, 57476, Note_on_c, 0, 34, 0
2, 57482, Note_on_c, 0, 98, 0
2, 57482, Note_on_c, 0, 86, 0
2, 57491, Note_on_c, 0, 46, 62
2, 57505, Control_c, 0, 64, 0
2, 57594, Note_on_c, 0, 46, 0
2, 57612, Note_on_c, 0, 38, 62
2, 57742, Note_on_c, 0, 38, 0
2, 57742, Note_on_c, 0, 50, 61
2, 57851, Note_on_c, 0, 50, 0
2, 57868, Note_on_c, 0, 39, 60
2, 57871, Note_on_c, 0, 67, 64
2, 57874, Note_on_c, 0, 72, 67
2, 57984, Note_on_c, 0, 72, 0
2, 57990, Note_on_c, 0, 67, 0
2, 57990, Note_on_c, 0, 73, 63
2, 57993, Note_on_c, 0, 39, 0
2, 57993, Note_on_c, 0, 51, 62
2, 58010, Note_on_c, 0, 70, 67
2, 58111, Note_on_c, 0, 51, 0
2, 58111, Note_on_c, 0, 73, 0
2, 58117, Note_on_c, 0, 70, 0
2, 58122, Note_on_c, 0, 52, 61
2, 58122, Note_on_c, 0, 40, 59
2, 58241, Note_on_c, 0, 40, 0
2, 58255, Note_on_c, 0, 70, 64
2, 58255, Note_on_c, 0, 65, 59
2, 58264, Note_on_c, 0, 74, 64
2, 58371, Note_on_c, 0, 52, 0
2, 58382, Note_on_c, 0, 53, 62
2, 58388, Note_on_c, 0, 41, 60
2, 58422, Control_c, 0, 64, 127
2, 58483, Control_c, 0, 64, 0
2, 58492, Note_on_c, 0, 53, 0
2, 58495, Note_on_c, 0, 70, 0
2, 58495, Note_on_c, 0, 41, 0
2, 58509, Note_on_c, 0, 65, 0
2, 58512, Note_on_c, 0, 74, 0
2, 58630, Note_on_c, 0, 58, 67
2, 58633, Note_on_c, 0, 73, 67
2, 58645, Note_on_c, 0, 79, 64
2, 58757, Note_on_c, 0, 79, 0
2, 58757, Note_on_c, 0, 73, 0
2, 58760, Note_on_c, 0, 58, 0
2, 58780, Note_on_c, 0, 74, 67
2, 58789, Note_on_c, 0, 77, 64
2, 58893, Note_on_c, 0, 38, 60
2, 58893, Note_on_c, 0, 50, 59
2, 58933, Note_on_c, 0, 74, 0
2, 58942, Note_on_c, 0, 77, 0
2, 59011, Note_on_c, 0, 82, 66
2, 59014, Note_on_c, 0, 38, 0
2, 59014, Note_on_c, 0, 50, 0
2, 59034, Note_on_c, 0, 74, 68
2, 59153, Note_on_c, 0, 58, 63
2, 59156, Note_on_c, 0, 53, 61
2, 59161, Note_on_c, 0, 62, 63
2, 59265, Note_on_c, 0, 53, 0
2, 59277, Note_on_c, 0, 62, 0
2, 59280, Note_on_c, 0, 82, 0
2, 59286, Note_on_c, 0, 58, 0
2, 59286, Note_on_c, 0, 74, 0
2, 59291, Note_on_c, 0, 84, 63
2, 59297, Note_on_c, 0, 72, 65
2, 59340, Note_on_c, 0, 73, 68
2, 59343, Note_on_c, 0, 85, 65
2, 59404, Note_on_c, 0, 72, 0
2, 59407, Note_on_c, 0, 84, 0
2, 59410, Note_on_c, 0, 74, 66
2, 59421, Note_on_c, 0, 86, 60
2, 59436, Note_on_c, 0, 34, 54
2, 59470, Note_on_c, 0, 73, 0
2, 59473, Note_on_c, 0, 85, 0
2, 59479, Control_c, 0, 64, 127
2, 59534, Note_on_c, 0, 86, 0
2, 59540, Note_on_c, 0, 74, 0
2, 59545, Note_on_c, 0, 46, 62
2, 59548, Note_on_c, 0, 34, 0
2, 59548, Control_c, 0, 64, 0
2, 59646, Note_on_c, 0, 46, 0
2, 59681, Note_on_c, 0, 38, 65
2, 59802, Note_on_c, 0, 38, 0
2, 59805, Note_on_c, 0, 50, 61
2, 59915, Note_on_c, 0, 50, 0
2, 59929, Note_on_c, 0, 39, 60
2, 59932, Note_on_c, 0, 67, 64
2, 59935, Note_on_c, 0, 72, 67
2, 60045, Note_on_c, 0, 72, 0
2, 60048, Note_on_c, 0, 67, 0
2, 60048, Note_on_c, 0, 73, 63
2, 60051, Note_on_c, 0, 39, 0
2, 60051, Note_on_c, 0, 51, 62
2, 60054, Note_on_c, 0, 70, 64
2, 60161, Note_on_c, 0, 51, 0
2, 60184, Note_on_c, 0, 52, 61
2, 60187, Note_on_c, 0, 40, 59
2, 60230, Note_on_c, 0, 70, 0
2, 60241, Note_on_c, 0, 73, 0
2, 60302, Note_on_c, 0, 65, 60
2, 60305, Note_on_c, 0, 40, 0
2, 60325, Note_on_c, 0, 70, 67
2, 60328, Note_on_c, 0, 74, 65
2, 60429, Note_on_c, 0, 52, 0
2, 60444, Note_on_c, 0, 53, 62
2, 60452, Note_on_c, 0, 41, 59
2, 60470, Control_c, 0, 64, 127
2, 60551, Note_on_c, 0, 41, 0
2, 60551, Note_on_c, 0, 65, 0
2, 60551, Note_on_c, 0, 53, 0
2, 60559, Note_on_c, 0, 70, 0
2, 60559, Note_on_c, 0, 74, 0
2, 60571, Control_c, 0, 64, 0
2, 60689, Note_on_c, 0, 70, 70
2, 60808, Note_on_c, 0, 70, 0
2, 60831, Note_on_c, 0, 72, 70
2, 60946, Note_on_c, 0, 72, 0
2, 60952, Note_on_c, 0, 74, 70
2, 61076, Note_on_c, 0, 74, 0
2, 61094, Note_on_c, 0, 77, 68
2, 61186, Note_on_c, 0, 77, 0
2, 61215, Note_on_c, 0, 82, 60
2, 61215, Note_on_c, 0, 80, 56
2, 61224, Note_on_c, 0, 86, 55
2, 61224, Note_on_c, 0, 89, 59
2, 61282, Note_on_c, 0, 76, 67
2, 61314, Note_on_c, 0, 82, 0
2, 61319, Note_on_c, 0, 89, 0
2, 61319, Note_on_c, 0, 80, 0
2, 61334, Note_on_c, 0, 86, 0
2, 61345, Note_on_c, 0, 77, 67
2, 61386, Note_on_c, 0, 76, 0
2, 61394, Note_on_c, 0, 78, 68
2, 61458, Note_on_c, 0, 77, 0
2, 61470, Note_on_c, 0, 82, 57
2, 61470, Note_on_c, 0, 91, 55
2, 61475, Note_on_c, 0, 87, 54
2, 61478, Note_on_c, 0, 79, 51
2, 61507, Control_c, 0, 64, 127
2, 61530, Note_on_c, 0, 78, 0
2, 61545, Control_c, 0, 64, 0
2, 61565, Note_on_c, 0, 91, 0
2, 61582, Note_on_c, 0, 94, 70
2, 61585, Note_on_c, 0, 82, 0
2, 61585, Note_on_c, 0, 87, 0
2, 61712, Note_on_c, 0, 94, 0
2, 61718, Note_on_c, 0, 82, 63
2, 61727, Note_on_c, 0, 91, 60
2, 61727, Note_on_c, 0, 87, 61
2, 61776, Note_on_c, 0, 71, 67
2, 61831, Note_on_c, 0, 79, 0
2, 61840, Note_on_c, 0, 87, 0
2, 61840, Note_on_c, 0, 82, 0
2, 61840, Note_on_c, 0, 91, 0
2, 61854, Note_on_c, 0, 72, 68
2, 61898, Note_on_c, 0, 71, 0
2, 61898, Note_on_c, 0, 73, 69
2, 61961, Note_on_c, 0, 72, 0
2, 61970, Note_on_c, 0, 82, 61
2, 61978, Note_on_c, 0, 74, 57
2, 61987, Note_on_c, 0, 86, 54
2, 61990, Note_on_c, 0, 77, 55
2, 62031, Note_on_c, 0, 73, 0
2, 62088, Note_on_c, 0, 82, 0
2, 62088, Note_on_c, 0, 77, 0
2, 62091, Note_on_c, 0, 86, 0
2, 62117, Note_on_c, 0, 89, 70
2, 62224, Note_on_c, 0, 89, 0
2, 62224, Note_on_c, 0, 82, 61
2, 62236, Note_on_c, 0, 86, 56
2, 62256, Note_on_c, 0, 77, 63
2, 62308, Note_on_c, 0, 64, 63
2, 62346, Note_on_c, 0, 77, 0
2, 62349, Note_on_c, 0, 82, 0
2, 62352, Note_on_c, 0, 65, 61
2, 62357, Note_on_c, 0, 74, 0
2, 62363, Note_on_c, 0, 86, 0
2, 62418, Note_on_c, 0, 64, 0
2, 62430, Note_on_c, 0, 66, 70
2, 62482, Note_on_c, 0, 65, 0
2, 62505, Note_on_c, 0, 70, 56
2, 62508, Note_on_c, 0, 75, 58
2, 62511, Note_on_c, 0, 79, 51
2, 62511, Note_on_c, 0, 67, 54
2, 62514, Control_c, 0, 64, 127
2, 62548, Note_on_c, 0, 66, 0
2, 62566, Control_c, 0, 64, 0
2, 62597, Note_on_c, 0, 75, 0
2, 62603, Note_on_c, 0, 79, 0
2, 62606, Note_on_c, 0, 70, 0
2, 62621, Note_on_c, 0, 82, 70
2, 62742, Note_on_c, 0, 82, 0
2, 62748, Note_on_c, 0, 70, 60
2, 62751, Note_on_c, 0, 75, 64
2, 62757, Note_on_c, 0, 79, 58
2, 62826, Note_on_c, 0, 59, 62
2, 62864, Note_on_c, 0, 75, 0
2, 62867, Note_on_c, 0, 79, 0
2, 62867, Note_on_c, 0, 67, 0
2, 62872, Note_on_c, 0, 70, 0
2, 62875, Note_on_c, 0, 60, 64
2, 62930, Note_on_c, 0, 59, 0
2, 62939, Note_on_c, 0, 61, 63
2, 63000, Note_on_c, 0, 60, 0
2, 63000, Note_on_c, 0, 65, 59
2, 63000, Note_on_c, 0, 70, 63
2, 63023, Note_on_c, 0, 74, 65
2, 63023, Note_on_c, 0, 62, 64
2, 63057, Note_on_c, 0, 61, 0
2, 63127, Note_on_c, 0, 65, 0
2, 63130, Note_on_c, 0, 70, 0
2, 63133, Note_on_c, 0, 74, 0
2, 63153, Note_on_c, 0, 77, 68
2, 63254, Note_on_c, 0, 77, 0
2, 63254, Note_on_c, 0, 65, 59
2, 63277, Note_on_c, 0, 70, 63
2, 63283, Note_on_c, 0, 74, 64
2, 63384, Note_on_c, 0, 65, 0
2, 63387, Note_on_c, 0, 74, 0
2, 63387, Note_on_c, 0, 70, 0
2, 63390, Note_on_c, 0, 62, 0
2, 63509, Note_on_c, 0, 51, 60
2, 63512, Note_on_c, 0, 39, 58
2, 63529, Note_on_c, 0, 66, 64
2, 63538, Control_c, 0, 64, 127
2, 63538, Note_on_c, 0, 72, 65
2, 63581, Control_c, 0, 64, 0
2, 63590, Control_c, 0, 64, 0
2, 63625, Note_on_c, 0, 51, 0
2, 63633, Note_on_c, 0, 39, 0
2, 63633, Note_on_c, 0, 66, 0
2, 63645, Note_on_c, 0, 72, 0
2, 63651, Note_on_c, 0, 70, 65
2, 63654, Note_on_c, 0, 67, 63
2, 63772, Note_on_c, 0, 67, 0
2, 63775, Note_on_c, 0, 70, 0
2, 63775, Note_on_c, 0, 63, 62
2, 63778, Note_on_c, 0, 55, 60
2, 63790, Note_on_c, 0, 58, 62
2, 63891, Note_on_c, 0, 63, 0
2, 63897, Note_on_c, 0, 55, 0
2, 63900, Note_on_c, 0, 58, 0
2, 63914, Note_on_c, 0, 70, 66
2, 63917, Note_on_c, 0, 67, 64
2, 64050, Note_on_c, 0, 46, 61
2, 64053, Note_on_c, 0, 34, 53
2, 64137, Note_on_c, 0, 46, 0
2, 64166, Note_on_c, 0, 34, 0
2, 64276, Note_on_c, 0, 70, 0
2, 64288, Note_on_c, 0, 67, 0
2, 64288, Note_on_c, 0, 58, 63
2, 64291, Note_on_c, 0, 63, 64
2, 64296, Note_on_c, 0, 55, 59
2, 64401, Note_on_c, 0, 55, 0
2, 64409, Note_on_c, 0, 63, 0
2, 64418, Note_on_c, 0, 58, 0
2, 64545, Note_on_c, 0, 67, 63
2, 64545, Note_on_c, 0, 51, 60
2, 64545, Note_on_c, 0, 39, 59
2, 64566, Note_on_c, 0, 74, 65
2, 64580, Control_c, 0, 64, 127
2, 64647, Note_on_c, 0, 51, 0
2, 64650, Control_c, 0, 64, 0
2, 64664, Note_on_c, 0, 67, 0
2, 64670, Note_on_c, 0, 39, 0
2, 64670, Note_on_c, 0, 74, 0
2, 64693, Note_on_c, 0, 72, 70
2, 64795, Note_on_c, 0, 63, 64
2, 64795, Note_on_c, 0, 55, 63
2, 64806, Note_on_c, 0, 58, 66
2, 64850, Note_on_c, 0, 72, 0
2, 64910, Note_on_c, 0, 63, 0
2, 64916, Note_on_c, 0, 55, 0
2, 64919, Note_on_c, 0, 58, 0
2, 64934, Note_on_c, 0, 67, 65
2, 64934, Note_on_c, 0, 70, 67
2, 65052, Note_on_c, 0, 43, 60
2, 65061, Note_on_c, 0, 55, 59
2, 65110, Note_on_c, 0, 70, 0
2, 65122, Note_on_c, 0, 67, 0
2, 65162, Note_on_c, 0, 43, 0
2, 65168, Note_on_c, 0, 55, 0
2, 65183, Note_on_c, 0, 53, 62
2, 65186, Note_on_c, 0, 72, 70
2, 65189, Note_on_c, 0, 41, 60
2, 65287, Note_on_c, 0, 53, 0
2, 65293, Note_on_c, 0, 41, 0
2, 65304, Note_on_c, 0, 72, 0
2, 65310, Note_on_c, 0, 67, 68
2, 65313, Note_on_c, 0, 39, 59
2, 65313, Note_on_c, 0, 51, 60
2, 65417, Note_on_c, 0, 51, 0
2, 65435, Note_on_c, 0, 67, 0
2, 65441, Note_on_c, 0, 39, 0
2, 65441, Note_on_c, 0, 48, 64
2, 65452, Note_on_c, 0, 36, 57
2, 65565, Note_on_c, 0, 48, 0
2, 65568, Note_on_c, 0, 36, 0
2, 65577, Note_on_c, 0, 46, 59
2, 65583, Note_on_c, 0, 67, 67
2, 65588, Note_on_c, 0, 61, 58
2, 65612, Note_on_c, 0, 34, 47
2, 65623, Control_c, 0, 64, 127
2, 65678, Note_on_c, 0, 46, 0
2, 65684, Control_c, 0, 64, 0
2, 65687, Note_on_c, 0, 61, 0
2, 65693, Note_on_c, 0, 67, 0
2, 65693, Note_on_c, 0, 65, 64
2, 65701, Note_on_c, 0, 34, 0
2, 65716, Note_on_c, 0, 62, 64
2, 65832, Note_on_c, 0, 58, 68
2, 65835, Note_on_c, 0, 53, 66
2, 65872, Note_on_c, 0, 62, 0
2, 65884, Note_on_c, 0, 65, 0
2, 65942, Note_on_c, 0, 53, 0
2, 65945, Note_on_c, 0, 58, 0
2, 65956, Note_on_c, 0, 70, 70
2, 65968, Note_on_c, 0, 62, 64
2, 66090, Note_on_c, 0, 41, 63
2, 66194, Note_on_c, 0, 41, 0
2, 66336, Note_on_c, 0, 58, 64
2, 66339, Note_on_c, 0, 53, 63
2, 66446, Note_on_c, 0, 53, 0
2, 66461, Note_on_c, 0, 58, 0
2, 66594, Note_on_c, 0, 62, 0
2, 66594, Note_on_c, 0, 46, 61
2, 66615, Note_on_c, 0, 34, 51
2, 66632, Control_c, 0, 64, 127
2, 66696, Note_on_c, 0, 46, 0
2, 66716, Note_on_c, 0, 70, 0
2, 66722, Note_on_c, 0, 34, 0
2, 66728, Note_on_c, 0, 62, 65
2, 66733, Control_c, 0, 64, 0
2, 66844, Note_on_c, 0, 62, 0
2, 66849, Note_on_c, 0, 65, 70
2, 66852, Note_on_c, 0, 58, 68
2, 66855, Note_on_c, 0, 53, 66
2, 66963, Note_on_c, 0, 65, 0
2, 66968, Note_on_c, 0, 53, 0
2, 66980, Note_on_c, 0, 70, 69
2, 66983, Note_on_c, 0, 58, 0
2, 67108, Note_on_c, 0, 70, 0
2, 67113, Note_on_c, 0, 38, 60
2, 67113, Note_on_c, 0, 72, 69
2, 67116, Note_on_c, 0, 50, 59
2, 67224, Note_on_c, 0, 50, 0
2, 67229, Note_on_c, 0, 72, 0
2, 67235, Note_on_c, 0, 74, 70
2, 67238, Note_on_c, 0, 38, 0
2, 67357, Note_on_c, 0, 74, 0
2, 67363, Note_on_c, 0, 47, 59
2, 67363, Note_on_c, 0, 35, 58
2, 67380, Note_on_c, 0, 77, 67
2, 67464, Note_on_c, 0, 47, 0
2, 67476, Note_on_c, 0, 77, 0
2, 67482, Note_on_c, 0, 35, 0
2, 67621, Note_on_c, 0, 75, 61
2, 67630, Note_on_c, 0, 36, 56
2, 67633, Note_on_c, 0, 48, 62
2, 67639, Note_on_c, 0, 69, 60
2, 67639, Note_on_c, 0, 79, 57
2, 67668, Control_c, 0, 64, 127
2, 67734, Note_on_c, 0, 75, 0
2, 67737, Note_on_c, 0, 69, 0
2, 67737, Note_on_c, 0, 79, 0
2, 67737, Control_c, 0, 64, 0
2, 67740, Note_on_c, 0, 48, 0
2, 67740, Note_on_c, 0, 36, 0
2, 67749, Note_on_c, 0, 71, 66
2, 67853, Note_on_c, 0, 71, 0
2, 67882, Note_on_c, 0, 53, 64
2, 67882, Note_on_c, 0, 63, 65
2, 67888, Note_on_c, 0, 72, 72
2, 67888, Note_on_c, 0, 57, 64
2, 67987, Note_on_c, 0, 72, 0
2, 67987, Note_on_c, 0, 63, 0
2, 67990, Note_on_c, 0, 57, 0
2, 67993, Note_on_c, 0, 53, 0
2, 68016, Note_on_c, 0, 69, 62
2, 68016, Note_on_c, 0, 75, 64
2, 68024, Note_on_c, 0, 77, 60
2, 68129, Note_on_c, 0, 53, 63
2, 68138, Note_on_c, 0, 41, 60
2, 68236, Note_on_c, 0, 53, 0
2, 68254, Note_on_c, 0, 41, 0
2, 68387, Note_on_c, 0, 47, 60
2, 68402, Note_on_c, 0, 59, 61
2, 68503, Note_on_c, 0, 47, 0
2, 68506, Note_on_c, 0, 59, 0
2, 68654, Note_on_c, 0, 48, 63
2, 68657, Note_on_c, 0, 60, 62
2, 68680, Control_c, 0, 64, 127
2, 68727, Control_c, 0, 64, 0
2, 68768, Note_on_c, 0, 48, 0
2, 68773, Note_on_c, 0, 75, 0
2, 68776, Note_on_c, 0, 69, 0
2, 68779, Note_on_c, 0, 77, 0
2, 68782, Note_on_c, 0, 60, 0
2, 68901, Note_on_c, 0, 63, 66
2, 68904, Note_on_c, 0, 53, 65
2, 68904, Note_on_c, 0, 79, 68
2, 68910, Note_on_c, 0, 57, 64
2, 69023, Note_on_c, 0, 63, 0
2, 69029, Note_on_c, 0, 53, 0
2, 69029, Note_on_c, 0, 79, 0
2, 69029, Note_on_c, 0, 57, 0
2, 69038, Note_on_c, 0, 75, 62
2, 69052, Note_on_c, 0, 69, 62
2, 69064, Note_on_c, 0, 77, 62
2, 69157, Note_on_c, 0, 41, 60
2, 69168, Note_on_c, 0, 53, 63
2, 69212, Note_on_c, 0, 69, 0
2, 69212, Note_on_c, 0, 75, 0
2, 69215, Note_on_c, 0, 77, 0
2, 69279, Note_on_c, 0, 41, 0
2, 69282, Note_on_c, 0, 53, 0
2, 69296, Note_on_c, 0, 79, 67
2, 69401, Note_on_c, 0, 79, 0
2, 69421, Note_on_c, 0, 53, 61
2, 69424, Note_on_c, 0, 63, 62
2, 69427, Note_on_c, 0, 69, 61
2, 69430, Note_on_c, 0, 57, 58
2, 69430, Note_on_c, 0, 75, 64
2, 69436, Note_on_c, 0, 77, 61
2, 69520, Note_on_c, 0, 75, 0
2, 69523, Note_on_c, 0, 63, 0
2, 69526, Note_on_c, 0, 57, 0
2, 69526, Note_on_c, 0, 53, 0
2, 69537, Note_on_c, 0, 69, 0
2, 69540, Note_on_c, 0, 77, 0
2, 69540, Note_on_c, 0, 70, 68
2, 69601, Note_on_c, 0, 74, 71
2, 69662, Note_on_c, 0, 58, 64
2, 69665, Note_on_c, 0, 79, 65
2, 69674, Note_on_c, 0, 46, 60
2, 69723, Control_c, 0, 64, 127
2, 69743, Control_c, 0, 64, 0
2, 69778, Note_on_c, 0, 46, 0
2, 69793, Note_on_c, 0, 79, 0
2, 69793, Note_on_c, 0, 73, 64
2, 69796, Note_on_c, 0, 58, 0
2, 69796, Note_on_c, 0, 70, 0
2, 69799, Note_on_c, 0, 74, 0
2, 69915, Note_on_c, 0, 73, 0
2, 69921, Note_on_c, 0, 53, 64
2, 69935, Note_on_c, 0, 58, 65
2, 69938, Note_on_c, 0, 74, 71
2, 69947, Note_on_c, 0, 62, 65
2, 69985, Note_on_c, 0, 74, 0
2, 70048, Note_on_c, 0, 53, 0
2, 70048, Note_on_c, 0, 58, 0
2, 70054, Note_on_c, 0, 62, 0
2, 70069, Note_on_c, 0, 70, 64
2, 70078, Note_on_c, 0, 77, 61
2, 70078, Note_on_c, 0, 74, 61
2, 70185, Note_on_c, 0, 53, 63
2, 70200, Note_on_c, 0, 41, 60
2, 70298, Note_on_c, 0, 41, 0
2, 70298, Note_on_c, 0, 53, 0
2, 70441, Note_on_c, 0, 53, 60
2, 70444, Note_on_c, 0, 58, 63
2, 70450, Note_on_c, 0, 62, 63
2, 70548, Note_on_c, 0, 53, 0
2, 70557, Note_on_c, 0, 62, 0
2, 70566, Note_on_c, 0, 58, 0
2, 70615, Note_on_c, 0, 70, 0
2, 70624, Note_on_c, 0, 77, 0
2, 70630, Note_on_c, 0, 74, 0
2, 70697, Note_on_c, 0, 50, 59
2, 70697, Note_on_c, 0, 38, 59
2, 70737, Control_c, 0, 64, 127
2, 70761, Control_c, 0, 64, 0
2, 70801, Note_on_c, 0, 50, 0
2, 70822, Note_on_c, 0, 38, 0
2, 70822, Note_on_c, 0, 79, 65
2, 70822, Note_on_c, 0, 48, 62
2, 70833, Note_on_c, 0, 36, 55
2, 70929, Note_on_c, 0, 48, 0
2, 70944, Note_on_c, 0, 68, 60
2, 70947, Note_on_c, 0, 36, 0
2, 70947, Note_on_c, 0, 79, 0
2, 70947, Note_on_c, 0, 35, 58
2, 70947, Note_on_c, 0, 47, 60
2, 70967, Note_on_c, 0, 74, 66
2, 70976, Note_on_c, 0, 77, 64
2, 71045, Note_on_c, 0, 47, 0
2, 71060, Note_on_c, 0, 77, 0
2, 71060, Note_on_c, 0, 68, 0
2, 71063, Note_on_c, 0, 35, 0
2, 71063, Note_on_c, 0, 74, 0
2, 71072, Note_on_c, 0, 75, 63
2, 71086, Note_on_c, 0, 69, 64
2, 71202, Note_on_c, 0, 36, 57
2, 71205, Note_on_c, 0, 48, 64
2, 71304, Note_on_c, 0, 75, 0
2, 71313, Note_on_c, 0, 36, 0
2, 71316, Note_on_c, 0, 48, 0
2, 71325, Note_on_c, 0, 69, 0
2, 71333, Note_on_c, 0, 77, 68
2, 71452, Note_on_c, 0, 77, 0
2, 71455, Note_on_c, 0, 69, 64
2, 71455, Note_on_c, 0, 63, 63
2, 71458, Note_on_c, 0, 53, 61
2, 71461, Note_on_c, 0, 57, 59
2, 71461, Note_on_c, 0, 75, 65
2, 71557, Note_on_c, 0, 75, 0
2, 71563, Note_on_c, 0, 63, 0
2, 71566, Note_on_c, 0, 53, 0
2, 71578, Note_on_c, 0, 69, 0
2, 71578, Note_on_c, 0, 57, 0
2, 71589, Note_on_c, 0, 84, 64
2, 71592, Note_on_c, 0, 72, 67
2, 71642, Note_on_c, 0, 73, 67
2, 71647, Note_on_c, 0, 85, 64
2, 71700, Note_on_c, 0, 72, 0
2, 71703, Note_on_c, 0, 84, 0
2, 71711, Note_on_c, 0, 74, 64
2, 71720, Note_on_c, 0, 86, 60
2, 71738, Note_on_c, 0, 34, 54
2, 71767, Note_on_c, 0, 73, 0
2, 71770, Note_on_c, 0, 85, 0
2, 71770, Control_c, 0, 64, 127
2, 71828, Note_on_c, 0, 86, 0
2, 71828, Note_on_c, 0, 34, 0
2, 71833, Note_on_c, 0, 74, 0
2, 71833, Control_c, 0, 64, 0
2, 71842, Note_on_c, 0, 46, 62
2, 71941, Note_on_c, 0, 46, 0
2, 71967, Note_on_c, 0, 38, 61
2, 72087, Note_on_c, 0, 38, 0
2, 72087, Note_on_c, 0, 50, 61
2, 72215, Note_on_c, 0, 50, 0
2, 72215, Note_on_c, 0, 39, 60
2, 72232, Note_on_c, 0, 72, 67
2, 72232, Note_on_c, 0, 67, 64
2, 72334, Note_on_c, 0, 67, 0
2, 72334, Note_on_c, 0, 72, 0
2, 72340, Note_on_c, 0, 51, 62
2, 72343, Note_on_c, 0, 39, 0
2, 72354, Note_on_c, 0, 73, 65
2, 72360, Note_on_c, 0, 70, 66
2, 72462, Note_on_c, 0, 51, 0
2, 72485, Note_on_c, 0, 52, 61
2, 72485, Note_on_c, 0, 40, 59
2, 72511, Note_on_c, 0, 70, 0
2, 72520, Note_on_c, 0, 73, 0
2, 72602, Note_on_c, 0, 40, 0
2, 72607, Note_on_c, 0, 65, 60
2, 72607, Note_on_c, 0, 70, 67
2, 72610, Note_on_c, 0, 74, 65
2, 72730, Note_on_c, 0, 53, 61
2, 72733, Note_on_c, 0, 52, 0
2, 72733, Note_on_c, 0, 41, 60
2, 72802, Control_c, 0, 64, 127
2, 72849, Note_on_c, 0, 53, 0
2, 72852, Note_on_c, 0, 65, 0
2, 72852, Note_on_c, 0, 41, 0
2, 72855, Note_on_c, 0, 70, 0
2, 72855, Note_on_c, 0, 74, 0
2, 72890, Control_c, 0, 64, 0
2, 72989, Note_on_c, 0, 58, 68
2, 72992, Note_on_c, 0, 73, 68
2, 72997, Note_on_c, 0, 79, 64
2, 73120, Note_on_c, 0, 73, 0
2, 73123, Note_on_c, 0, 79, 0
2, 73123, Note_on_c, 0, 58, 0
2, 73128, Note_on_c, 0, 74, 65
2, 73137, Note_on_c, 0, 77, 64
2, 73256, Note_on_c, 0, 38, 60
2, 73256, Note_on_c, 0, 50, 59
2, 73300, Note_on_c, 0, 74, 0
2, 73361, Note_on_c, 0, 50, 0
2, 73367, Note_on_c, 0, 77, 0
2, 73373, Note_on_c, 0, 38, 0
2, 73376, Note_on_c, 0, 82, 64
2, 73396, Note_on_c, 0, 74, 67
2, 73516, Note_on_c, 0, 58, 62
2, 73516, Note_on_c, 0, 53, 61
2, 73521, Note_on_c, 0, 62, 63
2, 73626, Note_on_c, 0, 53, 0
2, 73626, Note_on_c, 0, 82, 0
2, 73629, Note_on_c, 0, 58, 0
2, 73632, Note_on_c, 0, 74, 0
2, 73635, Note_on_c, 0, 62, 0
2, 73652, Note_on_c, 0, 84, 64
2, 73655, Note_on_c, 0, 72, 67
2, 73702, Note_on_c, 0, 73, 67
2, 73708, Note_on_c, 0, 85, 64
2, 73749, Note_on_c, 0, 72, 0
2, 73766, Note_on_c, 0, 84, 0
2, 73781, Note_on_c, 0, 74, 64
2, 73781, Note_on_c, 0, 34, 53
2, 73786, Note_on_c, 0, 86, 61
2, 73818, Note_on_c, 0, 73, 0
2, 73833, Control_c, 0, 64, 127
2, 73836, Note_on_c, 0, 85, 0
2, 73894, Note_on_c, 0, 34, 0
2, 73900, Note_on_c, 0, 86, 0
2, 73906, Note_on_c, 0, 74, 0
2, 73906, Note_on_c, 0, 46, 62
2, 73912, Control_c, 0, 64, 0
2, 74014, Note_on_c, 0, 46, 0
2, 74031, Note_on_c, 0, 38, 64
2, 74156, Note_on_c, 0, 38, 0
2, 74159, Note_on_c, 0, 50, 61
2, 74264, Note_on_c, 0, 50, 0
2, 74279, Note_on_c, 0, 67, 64
2, 74282, Note_on_c, 0, 39, 60
2, 74305, Note_on_c, 0, 72, 67
2, 74398, Note_on_c, 0, 72, 0
2, 74398, Note_on_c, 0, 67, 0
2, 74404, Note_on_c, 0, 39, 0
2, 74404, Note_on_c, 0, 51, 62
2, 74418, Note_on_c, 0, 73, 66
2, 74424, Note_on_c, 0, 70, 66
2, 74526, Note_on_c, 0, 73, 0
2, 74526, Note_on_c, 0, 51, 0
2, 74532, Note_on_c, 0, 70, 0
2, 74535, Note_on_c, 0, 52, 62
2, 74535, Note_on_c, 0, 40, 59
2, 74657, Note_on_c, 0, 40, 0
2, 74678, Note_on_c, 0, 65, 60
2, 74678, Note_on_c, 0, 70, 64
2, 74681, Note_on_c, 0, 74, 64
2, 74791, Note_on_c, 0, 52, 0
2, 74803, Note_on_c, 0, 53, 61
2, 74809, Note_on_c, 0, 41, 59
2, 74844, Control_c, 0, 64, 127
2, 74905, Note_on_c, 0, 53, 0
2, 74908, Note_on_c, 0, 65, 0
2, 74908, Note_on_c, 0, 41, 0
2, 74911, Note_on_c, 0, 74, 0
2, 74914, Note_on_c, 0, 70, 0
2, 74946, Control_c, 0, 64, 0
2, 75045, Note_on_c, 0, 70, 69
2, 75170, Note_on_c, 0, 70, 0
2, 75182, Note_on_c, 0, 72, 72
2, 75298, Note_on_c, 0, 72, 0
2, 75307, Note_on_c, 0, 74, 70
2, 75441, Note_on_c, 0, 74, 0
2, 75462, Note_on_c, 0, 77, 69
2, 75561, Note_on_c, 0, 77, 0
2, 75572, Note_on_c, 0, 82, 59
2, 75581, Note_on_c, 0, 86, 54
2, 75593, Note_on_c, 0, 80, 57
2, 75602, Note_on_c, 0, 89, 60
2, 75639, Note_on_c, 0, 76, 67
2, 75683, Note_on_c, 0, 86, 0
2, 75686, Note_on_c, 0, 82, 0
2, 75686, Note_on_c, 0, 80, 0
2, 75689, Note_on_c, 0, 89, 0
2, 75712, Note_on_c, 0, 77, 67
2, 75750, Note_on_c, 0, 76, 0
2, 75762, Note_on_c, 0, 78, 68
2, 75823, Note_on_c, 0, 77, 0
2, 75841, Note_on_c, 0, 82, 57
2, 75844, Note_on_c, 0, 91, 54
2, 75844, Note_on_c, 0, 79, 50
2, 75844, Note_on_c, 0, 87, 53
2, 75858, Control_c, 0, 64, 127
2, 75899, Control_c, 0, 64, 0
2, 75902, Note_on_c, 0, 78, 0
2, 75931, Note_on_c, 0, 91, 0
2, 75934, Note_on_c, 0, 87, 0
2, 75937, Note_on_c, 0, 82, 0
2, 75949, Note_on_c, 0, 94, 72
2, 76074, Note_on_c, 0, 94, 0
2, 76086, Note_on_c, 0, 82, 64
2, 76086, Note_on_c, 0, 91, 60
2, 76086, Note_on_c, 0, 87, 62
2, 76135, Note_on_c, 0, 71, 66
2, 76191, Note_on_c, 0, 79, 0
2, 76199, Note_on_c, 0, 87, 0
2, 76202, Note_on_c, 0, 82, 0
2, 76202, Note_on_c, 0, 91, 0
2, 76217, Note_on_c, 0, 72, 68
2, 76261, Note_on_c, 0, 71, 0
2, 76261, Note_on_c, 0, 73, 70
2, 76328, Note_on_c, 0, 72, 0
2, 76336, Note_on_c, 0, 82, 60
2, 76342, Note_on_c, 0, 74, 58
2, 76351, Note_on_c, 0, 86, 54
2, 76371, Note_on_c, 0, 77, 60
2, 76392, Note_on_c, 0, 73, 0
2, 76453, Note_on_c, 0, 86, 0
2, 76453, Note_on_c, 0, 77, 0
2, 76456, Note_on_c, 0, 82, 0
2, 76578, Note_on_c, 0, 82, 61
2, 76593, Note_on_c, 0, 86, 56
2, 76613, Note_on_c, 0, 77, 62
2, 76648, Note_on_c, 0, 64, 62
2, 76701, Note_on_c, 0, 77, 0
2, 76704, Note_on_c, 0, 86, 0
2, 76704, Note_on_c, 0, 82, 0
2, 76707, Note_on_c, 0, 65, 62
2, 76710, Note_on_c, 0, 74, 0
2, 76765, Note_on_c, 0, 66, 70
2, 76768, Note_on_c, 0, 64, 0
2, 76826, Note_on_c, 0, 65, 0
2, 76838, Note_on_c, 0, 75, 59
2, 76859, Note_on_c, 0, 70, 58
2, 76859, Note_on_c, 0, 79, 54
2, 76859, Note_on_c, 0, 67, 55
2, 76896, Note_on_c, 0, 66, 0
2, 76955, Note_on_c, 0, 75, 0
2, 76961, Note_on_c, 0, 79, 0
2, 76966, Note_on_c, 0, 70, 0
2, 76975, Note_on_c, 0, 82, 70
2, 77104, Note_on_c, 0, 82, 0
2, 77107, Note_on_c, 0, 70, 60
2, 77107, Note_on_c, 0, 75, 63
2, 77115, Note_on_c, 0, 79, 56
2, 77185, Note_on_c, 0, 59, 63
2, 77223, Note_on_c, 0, 75, 0
2, 77226, Note_on_c, 0, 67, 0
2, 77229, Note_on_c, 0, 79, 0
2, 77235, Note_on_c, 0, 60, 64
2, 77238, Note_on_c, 0, 70, 0
2, 77285, Note_on_c, 0, 59, 0
2, 77311, Note_on_c, 0, 61, 64
2, 77349, Note_on_c, 0, 65, 59
2, 77352, Note_on_c, 0, 60, 0
2, 77372, Note_on_c, 0, 70, 63
2, 77378, Note_on_c, 0, 74, 65
2, 77378, Note_on_c, 0, 62, 64
2, 77427, Note_on_c, 0, 61, 0
2, 77480, Note_on_c, 0, 65, 0
2, 77483, Note_on_c, 0, 74, 0
2, 77483, Note_on_c, 0, 70, 0
2, 77503, Note_on_c, 0, 77, 69
2, 77623, Note_on_c, 0, 77, 0
2, 77626, Note_on_c, 0, 70, 62
2, 77626, Note_on_c, 0, 65, 57
2, 77632, Note_on_c, 0, 74, 62
2, 77737, Note_on_c, 0, 70, 0
2, 77751, Note_on_c, 0, 65, 0
2, 77757, Note_on_c, 0, 74, 0
2, 77760, Note_on_c, 0, 62, 0
2, 77880, Note_on_c, 0, 58, 64
2, 77889, Note_on_c, 0, 43, 60
2, 77927, Control_c, 0, 64, 127
2, 78003, Note_on_c, 0, 43, 0
2, 78003, Note_on_c, 0, 58, 0
2, 78003, Control_c, 0, 64, 0
2, 78011, Note_on_c, 0, 60, 61
2, 78011, Note_on_c, 0, 45, 58
2, 78184, Note_on_c, 0, 45, 0
2, 78251, Note_on_c, 0, 60, 0
2, 78271, Note_on_c, 0, 46, 61
2, 78271, Note_on_c, 0, 62, 64
2, 78382, Note_on_c, 0, 62, 0
2, 78484, Note_on_c, 0, 46, 0
2, 78516, Note_on_c, 0, 48, 64
2, 78516, Note_on_c, 0, 60, 64
2, 78633, Note_on_c, 0, 60, 0
2, 78633, Note_on_c, 0, 48, 0
2, 78645, Note_on_c, 0, 58, 64
2, 78657, Note_on_c, 0, 50, 58
2, 78759, Note_on_c, 0, 50, 0
2, 78770, Note_on_c, 0, 58, 0
2, 78890, Note_on_c, 0, 74, 70
2, 78905, Note_on_c, 0, 58, 64
2, 78931, Control_c, 0, 64, 127
2, 78981, Control_c, 0, 64, 0
2, 79016, Note_on_c, 0, 58, 0
2, 79019, Note_on_c, 0, 74, 0
2, 79039, Note_on_c, 0, 57, 61
2, 79042, Note_on_c, 0, 72, 70
2, 79200, Note_on_c, 0, 72, 0
2, 79203, Note_on_c, 0, 57, 0
2, 79285, Note_on_c, 0, 70, 70
2, 79288, Note_on_c, 0, 55, 62
2, 79463, Note_on_c, 0, 55, 0
2, 79466, Note_on_c, 0, 70, 0
2, 79536, Note_on_c, 0, 53, 64
2, 79536, Note_on_c, 0, 69, 69
2, 79644, Note_on_c, 0, 53, 0
2, 79659, Note_on_c, 0, 69, 0
2, 79664, Note_on_c, 0, 67, 67
2, 79667, Note_on_c, 0, 61, 60
2, 79667, Note_on_c, 0, 58, 62
2, 79670, Note_on_c, 0, 52, 59
2, 79781, Note_on_c, 0, 52, 0
2, 79787, Note_on_c, 0, 61, 0
2, 79790, Note_on_c, 0, 67, 0
2, 79793, Note_on_c, 0, 58, 0
2, 79793, Note_on_c, 0, 70, 70
2, 79854, Note_on_c, 0, 74, 71
2, 79919, Note_on_c, 0, 53, 61
2, 79922, Note_on_c, 0, 79, 65
2, 79927, Note_on_c, 0, 41, 59
2, 79960, Control_c, 0, 64, 127
2, 80021, Control_c, 0, 64, 0
2, 80044, Note_on_c, 0, 79, 0
2, 80044, Note_on_c, 0, 53, 0
2, 80047, Note_on_c, 0, 41, 0
2, 80050, Note_on_c, 0, 74, 0
2, 80050, Note_on_c, 0, 70, 0
2, 80071, Note_on_c, 0, 77, 67
2, 80170, Note_on_c, 0, 77, 0
2, 80191, Note_on_c, 0, 70, 66
2, 80191, Note_on_c, 0, 58, 67
2, 80191, Note_on_c, 0, 53, 64
2, 80199, Note_on_c, 0, 62, 64
2, 80199, Note_on_c, 0, 74, 67
2, 80302, Note_on_c, 0, 53, 0
2, 80305, Note_on_c, 0, 62, 0
2, 80305, Note_on_c, 0, 70, 0
2, 80305, Note_on_c, 0, 58, 0
2, 80305, Note_on_c, 0, 74, 0
2, 80305, Note_on_c, 0, 75, 63
2, 80322, Note_on_c, 0, 69, 64
2, 80433, Note_on_c, 0, 53, 64
2, 80445, Note_on_c, 0, 41, 60
2, 80480, Note_on_c, 0, 75, 0
2, 80500, Note_on_c, 0, 69, 0
2, 80553, Note_on_c, 0, 53, 0
2, 80556, Note_on_c, 0, 41, 0
2, 80574, Note_on_c, 0, 77, 69
2, 80690, Note_on_c, 0, 53, 62
2, 80693, Note_on_c, 0, 77, 0
2, 80693, Note_on_c, 0, 63, 62
2, 80693, Note_on_c, 0, 67, 66
2, 80699, Note_on_c, 0, 57, 59
2, 80799, Note_on_c, 0, 63, 0
2, 80802, Note_on_c, 0, 53, 0
2, 80816, Note_on_c, 0, 67, 0
2, 80816, Note_on_c, 0, 57, 0
2, 80819, Note_on_c, 0, 69, 68
2, 80948, Note_on_c, 0, 69, 0
2, 80951, Note_on_c, 0, 70, 68
2, 80954, Note_on_c, 0, 46, 61
2, 80965, Note_on_c, 0, 58, 62
2, 80995, Control_c, 0, 64, 127
2, 81038, Control_c, 0, 64, 0
2, 81062, Note_on_c, 0, 46, 0
2, 81077, Note_on_c, 0, 58, 0
2, 81077, Note_on_c, 0, 70, 0
2, 81193, Note_on_c, 0, 65, 68
2, 81211, Note_on_c, 0, 58, 65
2, 81214, Note_on_c, 0, 53, 64
2, 81220, Note_on_c, 0, 62, 65
2, 81322, Note_on_c, 0, 65, 0
2, 81325, Note_on_c, 0, 58, 0
2, 81325, Note_on_c, 0, 53, 0
2, 81328, Note_on_c, 0, 62, 0
2, 81349, Note_on_c, 0, 74, 67
2, 81349, Note_on_c, 0, 77, 64
2, 81468, Note_on_c, 0, 53, 63
2, 81477, Note_on_c, 0, 41, 60
2, 81527, Note_on_c, 0, 77, 0
2, 81533, Note_on_c, 0, 74, 0
2, 81583, Note_on_c, 0, 53, 0
2, 81583, Note_on_c, 0, 41, 0
2, 81591, Note_on_c, 0, 65, 69
2, 81726, Note_on_c, 0, 65, 0
2, 81726, Note_on_c, 0, 63, 62
2, 81729, Note_on_c, 0, 75, 64
2, 81746, Note_on_c, 0, 53, 60
2, 81752, Note_on_c, 0, 57, 60
2, 81758, Note_on_c, 0, 72, 67
2, 81843, Note_on_c, 0, 72, 0
2, 81843, Note_on_c, 0, 63, 0
2, 81843, Note_on_c, 0, 75, 0
2, 81849, Note_on_c, 0, 53, 0
2, 81849, Note_on_c, 0, 57, 0
2, 81861, Note_on_c, 0, 96, 67
2, 81872, Note_on_c, 0, 84, 66
2, 81928, Note_on_c, 0, 85, 65
2, 81931, Note_on_c, 0, 97, 71
2, 81975, Note_on_c, 0, 96, 0
2, 81986, Note_on_c, 0, 84, 0
2, 81998, Note_on_c, 0, 98, 69
2, 82007, Note_on_c, 0, 86, 63
2, 82021, Control_c, 0, 64, 127
2, 82021, Note_on_c, 0, 34, 53
2, 82030, Note_on_c, 0, 97, 0
2, 82057, Note_on_c, 0, 85, 0
2, 82100, Control_c, 0, 64, 0
2, 82103, Note_on_c, 0, 98, 0
2, 82112, Note_on_c, 0, 34, 0
2, 82118, Note_on_c, 0, 86, 0
2, 82127, Note_on_c, 0, 46, 62
2, 82226, Note_on_c, 0, 46, 0
2, 82250, Note_on_c, 0, 38, 61
2, 82376, Note_on_c, 0, 38, 0
2, 82376, Note_on_c, 0, 50, 61
2, 82478, Note_on_c, 0, 50, 0
2, 82496, Note_on_c, 0, 67, 64
2, 82499, Note_on_c, 0, 39, 59
2, 82499, Note_on_c, 0, 72, 67
2, 82616, Note_on_c, 0, 72, 0
2, 82616, Note_on_c, 0, 67, 0
2, 82616, Note_on_c, 0, 73, 63
2, 82619, Note_on_c, 0, 39, 0
2, 82619, Note_on_c, 0, 51, 61
2, 82639, Note_on_c, 0, 70, 67
2, 82739, Note_on_c, 0, 51, 0
2, 82739, Note_on_c, 0, 73, 0
2, 82747, Note_on_c, 0, 70, 0
2, 82747, Note_on_c, 0, 40, 59
2, 82747, Note_on_c, 0, 52, 62
2, 82859, Note_on_c, 0, 65, 60
2, 82862, Note_on_c, 0, 40, 0
2, 82882, Note_on_c, 0, 70, 63
2, 82891, Note_on_c, 0, 74, 65
2, 82996, Note_on_c, 0, 52, 0
2, 83011, Note_on_c, 0, 53, 62
2, 83020, Note_on_c, 0, 41, 60
2, 83058, Control_c, 0, 64, 127
2, 83116, Note_on_c, 0, 41, 0
2, 83116, Note_on_c, 0, 53, 0
2, 83119, Control_c, 0, 64, 0
2, 83122, Note_on_c, 0, 70, 0
2, 83134, Note_on_c, 0, 65, 0
2, 83140, Note_on_c, 0, 74, 0
2, 83260, Note_on_c, 0, 73, 67
2, 83266, Note_on_c, 0, 79, 63
2, 83271, Note_on_c, 0, 58, 68
2, 83380, Note_on_c, 0, 73, 0
2, 83386, Note_on_c, 0, 58, 0
2, 83386, Note_on_c, 0, 79, 0
2, 83406, Note_on_c, 0, 74, 67
2, 83415, Note_on_c, 0, 77, 64
2, 83515, Note_on_c, 0, 38, 60
2, 83515, Note_on_c, 0, 50, 59
2, 83556, Note_on_c, 0, 74, 0
2, 83567, Note_on_c, 0, 77, 0
2, 83635, Note_on_c, 0, 50, 0
2, 83638, Note_on_c, 0, 38, 0
2, 83655, Note_on_c, 0, 82, 67
2, 83658, Note_on_c, 0, 74, 67
2, 83778, Note_on_c, 0, 58, 62
2, 83778, Note_on_c, 0, 53, 61
2, 83784, Note_on_c, 0, 62, 62
2, 83887, Note_on_c, 0, 53, 0
2, 83887, Note_on_c, 0, 82, 0
2, 83890, Note_on_c, 0, 58, 0
2, 83895, Note_on_c, 0, 74, 0
2, 83895, Note_on_c, 0, 62, 0
2, 83913, Note_on_c, 0, 84, 64
2, 83916, Note_on_c, 0, 72, 67
2, 83966, Note_on_c, 0, 73, 67
2, 83969, Note_on_c, 0, 85, 65
2, 84010, Note_on_c, 0, 72, 0
2, 84024, Note_on_c, 0, 84, 0
2, 84030, Note_on_c, 0, 74, 64
2, 84045, Note_on_c, 0, 86, 61
2, 84054, Note_on_c, 0, 34, 53
2, 84074, Note_on_c, 0, 73, 0
2, 84077, Control_c, 0, 64, 127
2, 84089, Note_on_c, 0, 85, 0
2, 84098, Control_c, 0, 64, 0
2, 84150, Note_on_c, 0, 34, 0
2, 84153, Note_on_c, 0, 86, 0
2, 84159, Note_on_c, 0, 74, 0
2, 84165, Note_on_c, 0, 46, 62
2, 84262, Note_on_c, 0, 46, 0
2, 84282, Note_on_c, 0, 38, 63
2, 84402, Note_on_c, 0, 38, 0
2, 84405, Note_on_c, 0, 50, 60
2, 84531, Note_on_c, 0, 39, 60
2, 84534, Note_on_c, 0, 50, 0
2, 84546, Note_on_c, 0, 67, 64
2, 84558, Note_on_c, 0, 72, 67
2, 84651, Note_on_c, 0, 72, 0
2, 84651, Note_on_c, 0, 67, 0
2, 84654, Note_on_c, 0, 39, 0
2, 84669, Note_on_c, 0, 51, 62
2, 84669, Note_on_c, 0, 73, 65
2, 84672, Note_on_c, 0, 70, 66
2, 84777, Note_on_c, 0, 51, 0
2, 84801, Note_on_c, 0, 52, 61
2, 84804, Note_on_c, 0, 40, 59
2, 84833, Note_on_c, 0, 70, 0
2, 84842, Note_on_c, 0, 73, 0
2, 84924, Note_on_c, 0, 40, 0
2, 84930, Note_on_c, 0, 74, 65
2, 84930, Note_on_c, 0, 65, 60
2, 84930, Note_on_c, 0, 70, 67
2, 85038, Note_on_c, 0, 52, 0
2, 85050, Note_on_c, 0, 53, 62
2, 85059, Note_on_c, 0, 41, 59
2, 85091, Control_c, 0, 64, 127
2, 85173, Note_on_c, 0, 41, 0
2, 85173, Note_on_c, 0, 53, 0
2, 85176, Note_on_c, 0, 65, 0
2, 85179, Note_on_c, 0, 74, 0
2, 85182, Note_on_c, 0, 70, 0
2, 85197, Control_c, 0, 64, 0
2, 85299, Note_on_c, 0, 70, 71
2, 85437, Note_on_c, 0, 70, 0
2, 85455, Note_on_c, 0, 72, 69
2, 85554, Note_on_c, 0, 72, 0
2, 85572, Note_on_c, 0, 74, 71
2, 85683, Note_on_c, 0, 74, 0
2, 85707, Note_on_c, 0, 77, 69
2, 85818, Note_on_c, 0, 77, 0
2, 85830, Note_on_c, 0, 82, 60
2, 85830, Note_on_c, 0, 80, 56
2, 85842, Note_on_c, 0, 89, 58
2, 85845, Note_on_c, 0, 86, 54
2, 85900, Note_on_c, 0, 76, 67
2, 85950, Note_on_c, 0, 82, 0
2, 85953, Note_on_c, 0, 86, 0
2, 85953, Note_on_c, 0, 80, 0
2, 85956, Note_on_c, 0, 89, 0
2, 85962, Note_on_c, 0, 77, 64
2, 86009, Note_on_c, 0, 78, 68
2, 86018, Note_on_c, 0, 76, 0
2, 86074, Note_on_c, 0, 77, 0
2, 86082, Note_on_c, 0, 82, 58
2, 86088, Note_on_c, 0, 91, 55
2, 86094, Note_on_c, 0, 79, 50
2, 86097, Note_on_c, 0, 87, 53
2, 86118, Control_c, 0, 64, 127
2, 86150, Note_on_c, 0, 78, 0
2, 86173, Control_c, 0, 64, 0
2, 86200, Note_on_c, 0, 91, 0
2, 86203, Note_on_c, 0, 87, 0
2, 86206, Note_on_c, 0, 82, 0
2, 86217, Note_on_c, 0, 94, 73
2, 86326, Note_on_c, 0, 94, 0
2, 86355, Note_on_c, 0, 82, 65
2, 86358, Note_on_c, 0, 91, 60
2, 86361, Note_on_c, 0, 87, 64
2, 86408, Note_on_c, 0, 71, 66
2, 86452, Note_on_c, 0, 91, 0
2, 86458, Note_on_c, 0, 87, 0
2, 86458, Note_on_c, 0, 79, 0
2, 86458, Note_on_c, 0, 82, 0
2, 86487, Note_on_c, 0, 72, 70
2, 86528, Note_on_c, 0, 71, 0
2, 86531, Note_on_c, 0, 73, 69
2, 86596, Note_on_c, 0, 72, 0
2, 86610, Note_on_c, 0, 82, 59
2, 86613, Note_on_c, 0, 74, 59
2, 86622, Note_on_c, 0, 86, 55
2, 86640, Note_on_c, 0, 77, 59
2, 86649, Note_on_c, 0, 73, 0
2, 86725, Note_on_c, 0, 86, 0
2, 86725, Note_on_c, 0, 77, 0
2, 86728, Note_on_c, 0, 82, 0
2, 86734, Note_on_c, 0, 89, 68
2, 86857, Note_on_c, 0, 89, 0
2, 86857, Note_on_c, 0, 82, 63
2, 86869, Note_on_c, 0, 86, 56
2, 86889, Note_on_c, 0, 77, 64
2, 86942, Note_on_c, 0, 64, 63
2, 86980, Note_on_c, 0, 77, 0
2, 86980, Note_on_c, 0, 86, 0
2, 86980, Note_on_c, 0, 82, 0
2, 86983, Note_on_c, 0, 74, 0
2, 86983, Note_on_c, 0, 65, 62
2, 87054, Note_on_c, 0, 64, 0
2, 87065, Note_on_c, 0, 66, 70
2, 87112, Note_on_c, 0, 65, 0
2, 87124, Note_on_c, 0, 75, 59
2, 87142, Note_on_c, 0, 70, 58
2, 87147, Note_on_c, 0, 67, 56
2, 87147, Note_on_c, 0, 79, 55
2, 87180, Note_on_c, 0, 66, 0
2, 87233, Note_on_c, 0, 75, 0
2, 87238, Note_on_c, 0, 79, 0
2, 87247, Note_on_c, 0, 70, 0
2, 87256, Note_on_c, 0, 82, 70
2, 87379, Note_on_c, 0, 82, 0
2, 87385, Note_on_c, 0, 70, 60
2, 87391, Note_on_c, 0, 75, 63
2, 87394, Note_on_c, 0, 79, 57
2, 87465, Note_on_c, 0, 59, 63
2, 87491, Note_on_c, 0, 79, 0
2, 87500, Note_on_c, 0, 70, 0
2, 87503, Note_on_c, 0, 75, 0
2, 87509, Note_on_c, 0, 67, 0
2, 87509, Note_on_c, 0, 60, 64
2, 87567, Note_on_c, 0, 59, 0
2, 87588, Note_on_c, 0, 61, 63
2, 87632, Note_on_c, 0, 65, 60
2, 87635, Note_on_c, 0, 60, 0
2, 87655, Note_on_c, 0, 70, 63
2, 87655, Note_on_c, 0, 62, 64
2, 87658, Note_on_c, 0, 74, 65
2, 87691, Note_on_c, 0, 61, 0
2, 87761, Note_on_c, 0, 65, 0
2, 87764, Note_on_c, 0, 74, 0
2, 87764, Note_on_c, 0, 70, 0
2, 87787, Note_on_c, 0, 77, 69
2, 87887, Note_on_c, 0, 77, 0
2, 87911, Note_on_c, 0, 65, 59
2, 87911, Note_on_c, 0, 70, 64
2, 87917, Note_on_c, 0, 74, 64
2, 88017, Note_on_c, 0, 74, 0
2, 88017, Note_on_c, 0, 70, 0
2, 88017, Note_on_c, 0, 65, 0
2, 88022, Note_on_c, 0, 62, 0
2, 88158, Note_on_c, 0, 51, 60
2, 88158, Note_on_c, 0, 66, 64
2, 88158, Note_on_c, 0, 39, 58
2, 88169, Note_on_c, 0, 72, 65
2, 88178, Control_c, 0, 64, 127
2, 88249, Control_c, 0, 64, 0
2, 88260, Note_on_c, 0, 51, 0
2, 88266, Note_on_c, 0, 66, 0
2, 88275, Note_on_c, 0, 72, 0
2, 88281, Note_on_c, 0, 39, 0
2, 88284, Note_on_c, 0, 70, 65
2, 88290, Note_on_c, 0, 67, 64
2, 88387, Note_on_c, 0, 70, 0
2, 88401, Note_on_c, 0, 67, 0
2, 88404, Note_on_c, 0, 58, 63
2, 88404, Note_on_c, 0, 63, 62
2, 88407, Note_on_c, 0, 55, 58
2, 88513, Note_on_c, 0, 63, 0
2, 88516, Note_on_c, 0, 55, 0
2, 88531, Note_on_c, 0, 70, 66
2, 88534, Note_on_c, 0, 58, 0
2, 88534, Note_on_c, 0, 67, 64
2, 88666, Note_on_c, 0, 46, 62
2, 88689, Note_on_c, 0, 34, 52
2, 88769, Note_on_c, 0, 46, 0
2, 88795, Note_on_c, 0, 34, 0
2, 88901, Note_on_c, 0, 67, 0
2, 88907, Note_on_c, 0, 63, 62
2, 88910, Note_on_c, 0, 70, 0
2, 88918, Note_on_c, 0, 58, 62
2, 88924, Note_on_c, 0, 55, 58
2, 89018, Note_on_c, 0, 63, 0
2, 89021, Note_on_c, 0, 55, 0
2, 89024, Note_on_c, 0, 58, 0
2, 89165, Note_on_c, 0, 51, 60
2, 89168, Note_on_c, 0, 74, 66
2, 89168, Note_on_c, 0, 39, 58
2, 89168, Note_on_c, 0, 67, 64
2, 89192, Control_c, 0, 64, 127
2, 89271, Note_on_c, 0, 51, 0
2, 89280, Control_c, 0, 64, 0
2, 89292, Note_on_c, 0, 67, 0
2, 89297, Note_on_c, 0, 39, 0
2, 89300, Note_on_c, 0, 74, 0
2, 89315, Note_on_c, 0, 72, 70
2, 89421, Note_on_c, 0, 63, 64
2, 89427, Note_on_c, 0, 55, 63
2, 89439, Note_on_c, 0, 58, 67
2, 89480, Note_on_c, 0, 72, 0
2, 89541, Note_on_c, 0, 63, 0
2, 89547, Note_on_c, 0, 55, 0
2, 89547, Note_on_c, 0, 58, 0
2, 89565, Note_on_c, 0, 70, 67
2, 89568, Note_on_c, 0, 67, 65
2, 89685, Note_on_c, 0, 43, 60
2, 89691, Note_on_c, 0, 55, 59
2, 89735, Note_on_c, 0, 67, 0
2, 89738, Note_on_c, 0, 70, 0
2, 89797, Note_on_c, 0, 43, 0
2, 89797, Note_on_c, 0, 55, 0
2, 89818, Note_on_c, 0, 53, 62
2, 89821, Note_on_c, 0, 72, 71
2, 89824, Note_on_c, 0, 41, 60
2, 89918, Note_on_c, 0, 72, 0
2, 89921, Note_on_c, 0, 41, 0
2, 89921, Note_on_c, 0, 53, 0
2, 89938, Note_on_c, 0, 67, 69
2, 89944, Note_on_c, 0, 39, 58
2, 89944, Note_on_c, 0, 51, 60
2, 90050, Note_on_c, 0, 51, 0
2, 90053, Note_on_c, 0, 39, 0
2, 90065, Note_on_c, 0, 67, 0
2, 90071, Note_on_c, 0, 48, 64
2, 90082, Note_on_c, 0, 36, 56
2, 90182, Note_on_c, 0, 36, 0
2, 90182, Note_on_c, 0, 48, 0
2, 90197, Note_on_c, 0, 67, 67
2, 90206, Note_on_c, 0, 61, 58
2, 90209, Note_on_c, 0, 46, 59
2, 90238, Note_on_c, 0, 34, 48
2, 90250, Control_c, 0, 64, 127
2, 90306, Note_on_c, 0, 46, 0
2, 90312, Control_c, 0, 64, 0
2, 90315, Note_on_c, 0, 34, 0
2, 90318, Note_on_c, 0, 61, 0
2, 90321, Note_on_c, 0, 67, 0
2, 90321, Note_on_c, 0, 65, 64
2, 90329, Note_on_c, 0, 62, 63
2, 90450, Note_on_c, 0, 53, 64
2, 90459, Note_on_c, 0, 58, 67
2, 90500, Note_on_c, 0, 62, 0
2, 90509, Note_on_c, 0, 65, 0
2, 90571, Note_on_c, 0, 53, 0
2, 90571, Note_on_c, 0, 58, 0
2, 90585, Note_on_c, 0, 70, 71
2, 90594, Note_on_c, 0, 62, 64
2, 90718, Note_on_c, 0, 41, 63
2, 90818, Note_on_c, 0, 41, 0
2, 90968, Note_on_c, 0, 58, 64
2, 90971, Note_on_c, 0, 53, 63
2, 91077, Note_on_c, 0, 53, 0
2, 91097, Note_on_c, 0, 58, 0
2, 91227, Note_on_c, 0, 62, 0
2, 91230, Note_on_c, 0, 46, 61
2, 91253, Note_on_c, 0, 34, 52
2, 91265, Control_c, 0, 64, 127
2, 91333, Note_on_c, 0, 46, 0
2, 91347, Note_on_c, 0, 34, 0
2, 91350, Note_on_c, 0, 70, 0
2, 91365, Control_c, 0, 64, 0
2, 91368, Note_on_c, 0, 62, 64
2, 91471, Note_on_c, 0, 65, 68
2, 91480, Note_on_c, 0, 62, 0
2, 91488, Note_on_c, 0, 58, 68
2, 91488, Note_on_c, 0, 53, 65
2, 91536, Note_on_c, 0, 58, 0
2, 91600, Note_on_c, 0, 53, 0
2, 91603, Note_on_c, 0, 65, 0
2, 91618, Note_on_c, 0, 70, 68
2, 91621, Note_on_c, 0, 58, 65
2, 91733, Note_on_c, 0, 70, 0
2, 91747, Note_on_c, 0, 58, 0
2, 91756, Note_on_c, 0, 60, 60
2, 91756, Note_on_c, 0, 72, 70
2, 91759, Note_on_c, 0, 38, 56
2, 91762, Note_on_c, 0, 50, 55
2, 91859, Note_on_c, 0, 60, 0
2, 91862, Note_on_c, 0, 50, 0
2, 91874, Note_on_c, 0, 72, 0
2, 91877, Note_on_c, 0, 38, 0
2, 91877, Note_on_c, 0, 74, 69
2, 91895, Note_on_c, 0, 62, 65
2, 91998, Note_on_c, 0, 65, 61
2, 92001, Note_on_c, 0, 74, 0
2, 92004, Note_on_c, 0, 62, 0
2, 92009, Note_on_c, 0, 47, 59
2, 92012, Note_on_c, 0, 35, 57
2, 92030, Note_on_c, 0, 77, 66
2, 92110, Note_on_c, 0, 47, 0
2, 92124, Note_on_c, 0, 77, 0
2, 92130, Note_on_c, 0, 35, 0
2, 92130, Note_on_c, 0, 65, 0
2, 92274, Note_on_c, 0, 48, 63
2, 92280, Note_on_c, 0, 75, 62
2, 92283, Note_on_c, 0, 79, 57
2, 92283, Note_on_c, 0, 69, 60
2, 92292, Note_on_c, 0, 36, 55
2, 92307, Control_c, 0, 64, 127
2, 92351, Control_c, 0, 64, 0
2, 92377, Note_on_c, 0, 75, 0
2, 92380, Note_on_c, 0, 69, 0
2, 92380, Note_on_c, 0, 79, 0
2, 92383, Note_on_c, 0, 36, 0
2, 92389, Note_on_c, 0, 48, 0
2, 92392, Note_on_c, 0, 71, 67
2, 92504, Note_on_c, 0, 71, 0
2, 92531, Note_on_c, 0, 63, 65
2, 92534, Note_on_c, 0, 53, 64
2, 92539, Note_on_c, 0, 72, 72
2, 92539, Note_on_c, 0, 57, 64
2, 92634, Note_on_c, 0, 72, 0
2, 92634, Note_on_c, 0, 63, 0
2, 92637, Note_on_c, 0, 53, 0
2, 92654, Note_on_c, 0, 57, 0
2, 92660, Note_on_c, 0, 69, 61
2, 92663, Note_on_c, 0, 75, 63
2, 92690, Note_on_c, 0, 77, 63
2, 92781, Note_on_c, 0, 53, 63
2, 92790, Note_on_c, 0, 41, 60
2, 92887, Note_on_c, 0, 41, 0
2, 92887, Note_on_c, 0, 53, 0
2, 93040, Note_on_c, 0, 47, 60
2, 93052, Note_on_c, 0, 59, 61
2, 93140, Note_on_c, 0, 47, 0
2, 93155, Note_on_c, 0, 59, 0
2, 93311, Note_on_c, 0, 48, 63
2, 93314, Note_on_c, 0, 60, 62
2, 93335, Control_c, 0, 64, 127
2, 93376, Control_c, 0, 64, 0
2, 93414, Note_on_c, 0, 75, 0
2, 93420, Note_on_c, 0, 60, 0
2, 93423, Note_on_c, 0, 48, 0
2, 93432, Note_on_c, 0, 77, 0
2, 93432, Note_on_c, 0, 69, 0
2, 93556, Note_on_c, 0, 63, 66
2, 93562, Note_on_c, 0, 53, 64
2, 93562, Note_on_c, 0, 79, 68
2, 93562, Note_on_c, 0, 57, 64
2, 93665, Note_on_c, 0, 63, 0
2, 93668, Note_on_c, 0, 53, 0
2, 93679, Note_on_c, 0, 79, 0
2, 93679, Note_on_c, 0, 57, 0
2, 93691, Note_on_c, 0, 75, 64
2, 93691, Note_on_c, 0, 69, 61
2, 93703, Note_on_c, 0, 77, 61
2, 93818, Note_on_c, 0, 41, 61
2, 93830, Note_on_c, 0, 53, 60
2, 93871, Note_on_c, 0, 77, 0
2, 93871, Note_on_c, 0, 75, 0
2, 93871, Note_on_c, 0, 69, 0
2, 93936, Note_on_c, 0, 41, 0
2, 93939, Note_on_c, 0, 53, 0
2, 93956, Note_on_c, 0, 79, 67
2, 94065, Note_on_c, 0, 79, 0
2, 94074, Note_on_c, 0, 75, 62
2, 94083, Note_on_c, 0, 63, 62
2, 94086, Note_on_c, 0, 53, 60
2, 94092, Note_on_c, 0, 69, 62
2, 94092, Note_on_c, 0, 57, 58
2, 94104, Note_on_c, 0, 77, 63
2, 94183, Note_on_c, 0, 75, 0
2, 94186, Note_on_c, 0, 69, 0
2, 94186, Note_on_c, 0, 63, 0
2, 94189, Note_on_c, 0, 53, 0
2, 94189, Note_on_c, 0, 77, 0
2, 94192, Note_on_c, 0, 57, 0
2, 94207, Note_on_c, 0, 70, 70
2, 94272, Note_on_c, 0, 74, 71
2, 94334, Note_on_c, 0, 79, 65
2, 94334, Note_on_c, 0, 58, 64
2, 94343, Note_on_c, 0, 46, 60
2, 94366, Control_c, 0, 64, 127
2, 94396, Control_c, 0, 64, 0
2, 94422, Note_on_c, 0, 46, 0
2, 94440, Note_on_c, 0, 79, 0
2, 94443, Note_on_c, 0, 70, 0
2, 94443, Note_on_c, 0, 74, 0
2, 94443, Note_on_c, 0, 58, 0
2, 94452, Note_on_c, 0, 73, 67
2, 94561, Note_on_c, 0, 73, 0
2, 94581, Note_on_c, 0, 53, 65
2, 94581, Note_on_c, 0, 74, 71
2, 94581, Note_on_c, 0, 58, 65
2, 94590, Note_on_c, 0, 62, 65
2, 94626, Note_on_c, 0, 74, 0
2, 94687, Note_on_c, 0, 53, 0
2, 94702, Note_on_c, 0, 58, 0
2, 94708, Note_on_c, 0, 62, 0
2, 94708, Note_on_c, 0, 70, 64
2, 94714, Note_on_c, 0, 74, 60
2, 94717, Note_on_c, 0, 77, 61
2, 94829, Note_on_c, 0, 53, 63
2, 94841, Note_on_c, 0, 41, 60
2, 94959, Note_on_c, 0, 41, 0
2, 94959, Note_on_c, 0, 53, 0
2, 95097, Note_on_c, 0, 53, 63
2, 95097, Note_on_c, 0, 58, 62
2, 95106, Note_on_c, 0, 62, 63
2, 95209, Note_on_c, 0, 53, 0
2, 95215, Note_on_c, 0, 62, 0
2, 95227, Note_on_c, 0, 58, 0
2, 95271, Note_on_c, 0, 70, 0
2, 95283, Note_on_c, 0, 77, 0
2, 95292, Note_on_c, 0, 74, 0
2, 95354, Note_on_c, 0, 38, 59
2, 95357, Note_on_c, 0, 50, 58
2, 95395, Control_c, 0, 64, 127
2, 95416, Control_c, 0, 64, 0
2, 95463, Note_on_c, 0, 50, 0
2, 95481, Note_on_c, 0, 79, 65
2, 95484, Note_on_c, 0, 38, 0
2, 95484, Note_on_c, 0, 48, 62
2, 95493, Note_on_c, 0, 36, 55
2, 95599, Note_on_c, 0, 79, 0
2, 95605, Note_on_c, 0, 36, 0
2, 95608, Note_on_c, 0, 48, 0
2, 95611, Note_on_c, 0, 47, 61
2, 95611, Note_on_c, 0, 35, 59
2, 95619, Note_on_c, 0, 68, 64
2, 95625, Note_on_c, 0, 74, 65
2, 95631, Note_on_c, 0, 77, 62
2, 95708, Note_on_c, 0, 47, 0
2, 95726, Note_on_c, 0, 68, 0
2, 95729, Note_on_c, 0, 77, 0
2, 95729, Note_on_c, 0, 35, 0
2, 95732, Note_on_c, 0, 74, 0
2, 95732, Note_on_c, 0, 75, 63
2, 95749, Note_on_c, 0, 69, 64
2, 95867, Note_on_c, 0, 36, 57
2, 95873, Note_on_c, 0, 48, 64
2, 95971, Note_on_c, 0, 69, 0
2, 95971, Note_on_c, 0, 75, 0
2, 95979, Note_on_c, 0, 36, 0
2, 95979, Note_on_c, 0, 48, 0
2, 96000, Note_on_c, 0, 77, 69
2, 96121, Note_on_c, 0, 77, 0
2, 96121, Note_on_c, 0, 69, 63
2, 96121, Note_on_c, 0, 53, 61
2, 96124, Note_on_c, 0, 63, 62
2, 96124, Note_on_c, 0, 75, 65
2, 96130, Note_on_c, 0, 57, 59
2, 96227, Note_on_c, 0, 75, 0
2, 96227, Note_on_c, 0, 63, 0
2, 96230, Note_on_c, 0, 53, 0
2, 96245, Note_on_c, 0, 69, 0
2, 96245, Note_on_c, 0, 57, 0
2, 96254, Note_on_c, 0, 84, 64
2, 96260, Note_on_c, 0, 72, 67
2, 96304, Note_on_c, 0, 73, 67
2, 96310, Note_on_c, 0, 85, 64
2, 96369, Note_on_c, 0, 72, 0
2, 96372, Note_on_c, 0, 84, 0
2, 96381, Note_on_c, 0, 74, 64
2, 96390, Note_on_c, 0, 86, 60
2, 96393, Control_c, 0, 64, 127
2, 96404, Note_on_c, 0, 34, 53
2, 96434, Note_on_c, 0, 73, 0
2, 96437, Note_on_c, 0, 85, 0
2, 96472, Control_c, 0, 64, 0
2, 96496, Note_on_c, 0, 86, 0
2, 96496, Note_on_c, 0, 34, 0
2, 96502, Note_on_c, 0, 74, 0
2, 96508, Note_on_c, 0, 46, 62
2, 96611, Note_on_c, 0, 46, 0
2, 96632, Note_on_c, 0, 38, 61
2, 96759, Note_on_c, 0, 38, 0
2, 96770, Note_on_c, 0, 50, 60
2, 96874, Note_on_c, 0, 50, 0
2, 96891, Note_on_c, 0, 67, 64
2, 96900, Note_on_c, 0, 72, 67
2, 96900, Note_on_c, 0, 39, 60
2, 97004, Note_on_c, 0, 39, 0
2, 97015, Note_on_c, 0, 72, 0
2, 97018, Note_on_c, 0, 67, 0
2, 97018, Note_on_c, 0, 73, 64
2, 97024, Note_on_c, 0, 51, 62
2, 97024, Note_on_c, 0, 70, 64
2, 97125, Note_on_c, 0, 51, 0
2, 97151, Note_on_c, 0, 52, 61
2, 97154, Note_on_c, 0, 40, 59
2, 97184, Note_on_c, 0, 70, 0
2, 97204, Note_on_c, 0, 73, 0
2, 97275, Note_on_c, 0, 40, 0
2, 97275, Note_on_c, 0, 65, 60
2, 97275, Note_on_c, 0, 70, 64
2, 97296, Note_on_c, 0, 74, 65
2, 97390, Note_on_c, 0, 52, 0
2, 97402, Note_on_c, 0, 53, 62
2, 97408, Note_on_c, 0, 41, 59
2, 97447, Control_c, 0, 64, 127
2, 97509, Note_on_c, 0, 41, 0
2, 97526, Note_on_c, 0, 65, 0
2, 97526, Note_on_c, 0, 53, 0
2, 97526, Control_c, 0, 64, 0
2, 97532, Note_on_c, 0, 70, 0
2, 97532, Note_on_c, 0, 74, 0
2, 97665, Note_on_c, 0, 73, 68
2, 97665, Note_on_c, 0, 58, 68
2, 97674, Note_on_c, 0, 79, 64
2, 97771, Note_on_c, 0, 73, 0
2, 97777, Note_on_c, 0, 79, 0
2, 97777, Note_on_c, 0, 58, 0
2, 97798, Note_on_c, 0, 74, 67
2, 97807, Note_on_c, 0, 77, 64
2, 97928, Note_on_c, 0, 38, 60
2, 97928, Note_on_c, 0, 50, 59
2, 97955, Note_on_c, 0, 74, 0
2, 98034, Note_on_c, 0, 50, 0
2, 98046, Note_on_c, 0, 77, 0
2, 98049, Note_on_c, 0, 38, 0
2, 98052, Note_on_c, 0, 82, 65
2, 98055, Note_on_c, 0, 74, 65
2, 98173, Note_on_c, 0, 53, 61
2, 98188, Note_on_c, 0, 58, 61
2, 98194, Note_on_c, 0, 62, 62
2, 98294, Note_on_c, 0, 53, 0
2, 98294, Note_on_c, 0, 82, 0
2, 98297, Note_on_c, 0, 58, 0
2, 98303, Note_on_c, 0, 74, 0
2, 98306, Note_on_c, 0, 62, 0
2, 98321, Note_on_c, 0, 84, 64
2, 98324, Note_on_c, 0, 72, 67
2, 98371, Note_on_c, 0, 73, 67
2, 98377, Note_on_c, 0, 85, 65
2, 98418, Note_on_c, 0, 72, 0
2, 98433, Note_on_c, 0, 84, 0
2, 98439, Note_on_c, 0, 74, 64
2, 98448, Control_c, 0, 64, 127
2, 98448, Note_on_c, 0, 34, 53
2, 98451, Note_on_c, 0, 86, 61
2, 98480, Note_on_c, 0, 73, 0
2, 98501, Note_on_c, 0, 85, 0
2, 98519, Control_c, 0, 64, 0
2, 98551, Note_on_c, 0, 74, 0
2, 98557, Note_on_c, 0, 34, 0
2, 98563, Note_on_c, 0, 86, 0
2, 98569, Note_on_c, 0, 46, 62
2, 98658, Note_on_c, 0, 46, 0
2, 98676, Note_on_c, 0, 38, 63
2, 98803, Note_on_c, 0, 38, 0
2, 98823, Note_on_c, 0, 50, 61
2, 98930, Note_on_c, 0, 50, 0
2, 98950, Note_on_c, 0, 39, 60
2, 98950, Note_on_c, 0, 67, 65
2, 98953, Note_on_c, 0, 72, 68
2, 99054, Note_on_c, 0, 39, 0
2, 99066, Note_on_c, 0, 72, 0
2, 99066, Note_on_c, 0, 67, 0
2, 99066, Note_on_c, 0, 73, 64
2, 99069, Note_on_c, 0, 51, 62
2, 99072, Note_on_c, 0, 70, 64
2, 99172, Note_on_c, 0, 51, 0
2, 99190, Note_on_c, 0, 73, 0
2, 99199, Note_on_c, 0, 70, 0
2, 99199, Note_on_c, 0, 52, 61
2, 99205, Note_on_c, 0, 40, 59
2, 99323, Note_on_c, 0, 40, 0
2, 99338, Note_on_c, 0, 70, 64
2, 99344, Note_on_c, 0, 74, 65
2, 99344, Note_on_c, 0, 65, 61
2, 99450, Note_on_c, 0, 52, 0
2, 99465, Note_on_c, 0, 53, 61
2, 99474, Note_on_c, 0, 41, 59
2, 99488, Control_c, 0, 64, 127
2, 99568, Note_on_c, 0, 53, 0
2, 99571, Note_on_c, 0, 41, 0
2, 99577, Note_on_c, 0, 70, 0
2, 99589, Note_on_c, 0, 65, 0
2, 99595, Note_on_c, 0, 74, 0
2, 99607, Control_c, 0, 64, 0
2, 99716, Note_on_c, 0, 70, 71
2, 99843, Note_on_c, 0, 70, 0
2, 99867, Note_on_c, 0, 72, 70
2, 99962, Note_on_c, 0, 72, 0
2, 99985, Note_on_c, 0, 74, 71
2, 100095, Note_on_c, 0, 74, 0
2, 100115, Note_on_c, 0, 77, 69
2, 100234, Note_on_c, 0, 77, 0
2, 100243, Note_on_c, 0, 80, 55
2, 100243, Note_on_c, 0, 82, 59
2, 100257, Note_on_c, 0, 86, 54
2, 100257, Note_on_c, 0, 89, 58
2, 100364, Note_on_c, 0, 89, 0
2, 100364, Note_on_c, 0, 80, 0
2, 100364, Note_on_c, 0, 82, 0
2, 100367, Note_on_c, 0, 86, 0
2, 100367, Note_on_c, 0, 77, 64
2, 100420, Note_on_c, 0, 78, 70
2, 100479, Note_on_c, 0, 77, 0
2, 100494, Note_on_c, 0, 82, 59
2, 100503, Note_on_c, 0, 91, 55
2, 100506, Note_on_c, 0, 87, 54
2, 100509, Note_on_c, 0, 79, 51
2, 100550, Control_c, 0, 64, 127
2, 100553, Note_on_c, 0, 78, 0
2, 100609, Note_on_c, 0, 87, 0
2, 100609, Note_on_c, 0, 91, 0
2, 100612, Note_on_c, 0, 82, 0
2, 100612, Note_on_c, 0, 94, 70
2, 100621, Control_c, 0, 64, 0
2, 100731, Note_on_c, 0, 94, 0
2, 100754, Note_on_c, 0, 82, 64
2, 100757, Note_on_c, 0, 87, 61
2, 100757, Note_on_c, 0, 91, 60
2, 100808, Note_on_c, 0, 71, 66
2, 100855, Note_on_c, 0, 87, 0
2, 100858, Note_on_c, 0, 91, 0
2, 100858, Note_on_c, 0, 82, 0
2, 100861, Note_on_c, 0, 79, 0
2, 100887, Note_on_c, 0, 72, 70
2, 100917, Note_on_c, 0, 71, 0
2, 100935, Note_on_c, 0, 73, 69
2, 100979, Note_on_c, 0, 72, 0
2, 101012, Note_on_c, 0, 82, 59
2, 101015, Note_on_c, 0, 74, 59
2, 101024, Note_on_c, 0, 77, 57
2, 101024, Note_on_c, 0, 86, 55
2, 101050, Note_on_c, 0, 73, 0
2, 101124, Note_on_c, 0, 77, 0
2, 101127, Note_on_c, 0, 82, 0
2, 101127, Note_on_c, 0, 86, 0
2, 101136, Note_on_c, 0, 89, 68
2, 101257, Note_on_c, 0, 82, 62
2, 101260, Note_on_c, 0, 89, 0
2, 101272, Note_on_c, 0, 86, 56
2, 101293, Note_on_c, 0, 77, 63
2, 101325, Note_on_c, 0, 64, 63
2, 101376, Note_on_c, 0, 77, 0
2, 101379, Note_on_c, 0, 86, 0
2, 101382, Note_on_c, 0, 82, 0
2, 101382, Note_on_c, 0, 65, 62
2, 101385, Note_on_c, 0, 74, 0
2, 101441, Note_on_c, 0, 66, 69
2, 101447, Note_on_c, 0, 64, 0
2, 101506, Note_on_c, 0, 65, 0
2, 101512, Note_on_c, 0, 75, 59
2, 101533, Note_on_c, 0, 70, 58
2, 101536, Note_on_c, 0, 79, 55
2, 101536, Note_on_c, 0, 67, 56
2, 101568, Note_on_c, 0, 66, 0
2, 101618, Note_on_c, 0, 75, 0
2, 101627, Note_on_c, 0, 79, 0
2, 101627, Note_on_c, 0, 70, 0
2, 101645, Note_on_c, 0, 82, 71
2, 101752, Note_on_c, 0, 82, 0
2, 101761, Note_on_c, 0, 75, 63
2, 101778, Note_on_c, 0, 70, 61
2, 101781, Note_on_c, 0, 79, 58
2, 101838, Note_on_c, 0, 59, 64
2, 101882, Note_on_c, 0, 75, 0
2, 101885, Note_on_c, 0, 79, 0
2, 101885, Note_on_c, 0, 67, 0
2, 101897, Note_on_c, 0, 70, 0
2, 101909, Note_on_c, 0, 60, 64
2, 101947, Note_on_c, 0, 59, 0
2, 101974, Note_on_c, 0, 61, 63
2, 102012, Note_on_c, 0, 60, 0
2, 102033, Note_on_c, 0, 65, 60
2, 102033, Note_on_c, 0, 70, 64
2, 102039, Note_on_c, 0, 62, 64
2, 102042, Note_on_c, 0, 74, 64
2, 102089, Note_on_c, 0, 61, 0
2, 102142, Note_on_c, 0, 65, 0
2, 102145, Note_on_c, 0, 74, 0
2, 102151, Note_on_c, 0, 70, 0
2, 102166, Note_on_c, 0, 77, 68
2, 102279, Note_on_c, 0, 77, 0
2, 102288, Note_on_c, 0, 65, 57
2, 102288, Note_on_c, 0, 70, 62
2, 102291, Note_on_c, 0, 74, 62
2, 102406, Note_on_c, 0, 65, 0
2, 102409, Note_on_c, 0, 70, 0
2, 102412, Note_on_c, 0, 62, 0
2, 102412, Note_on_c, 0, 74, 0
2, 102545, Note_on_c, 0, 43, 59
2, 102551, Note_on_c, 0, 58, 63
2, 102566, Control_c, 0, 64, 127
2, 102637, Control_c, 0, 64, 0
2, 102664, Note_on_c, 0, 58, 0
2, 102664, Note_on_c, 0, 43, 0
2, 102676, Note_on_c, 0, 45, 58
2, 102687, Note_on_c, 0, 60, 60
2, 102850, Note_on_c, 0, 45, 0
2, 102912, Note_on_c, 0, 60, 0
2, 102933, Note_on_c, 0, 46, 61
2, 102933, Note_on_c, 0, 62, 64
2, 103040, Note_on_c, 0, 62, 0
2, 103147, Note_on_c, 0, 46, 0
2, 103179, Note_on_c, 0, 48, 64
2, 103182, Note_on_c, 0, 60, 64
2, 103289, Note_on_c, 0, 60, 0
2, 103292, Note_on_c, 0, 48, 0
2, 103304, Note_on_c, 0, 58, 64
2, 103315, Note_on_c, 0, 50, 57
2, 103422, Note_on_c, 0, 50, 0
2, 103434, Note_on_c, 0, 58, 0
2, 103561, Note_on_c, 0, 74, 70
2, 103573, Note_on_c, 0, 58, 63
2, 103597, Control_c, 0, 64, 127
2, 103650, Control_c, 0, 64, 0
2, 103683, Note_on_c, 0, 58, 0
2, 103689, Note_on_c, 0, 74, 0
2, 103704, Note_on_c, 0, 57, 61
2, 103712, Note_on_c, 0, 72, 70
2, 103887, Note_on_c, 0, 72, 0
2, 103890, Note_on_c, 0, 57, 0
2, 103953, Note_on_c, 0, 70, 70
2, 103953, Note_on_c, 0, 55, 62
2, 104145, Note_on_c, 0, 55, 0
2, 104148, Note_on_c, 0, 70, 0
2, 104228, Note_on_c, 0, 53, 64
2, 104228, Note_on_c, 0, 69, 70
2, 104335, Note_on_c, 0, 69, 0
2, 104338, Note_on_c, 0, 53, 0
2, 104356, Note_on_c, 0, 67, 68
2, 104359, Note_on_c, 0, 61, 60
2, 104359, Note_on_c, 0, 58, 63
2, 104362, Note_on_c, 0, 52, 59
2, 104462, Note_on_c, 0, 67, 0
2, 104465, Note_on_c, 0, 58, 0
2, 104468, Note_on_c, 0, 52, 0
2, 104471, Note_on_c, 0, 61, 0
2, 104477, Note_on_c, 0, 70, 71
2, 104542, Note_on_c, 0, 74, 71
2, 104602, Note_on_c, 0, 53, 62
2, 104605, Note_on_c, 0, 79, 65
2, 104611, Note_on_c, 0, 41, 59
2, 104637, Control_c, 0, 64, 127
2, 104700, Control_c, 0, 64, 0
2, 104711, Note_on_c, 0, 53, 0
2, 104714, Note_on_c, 0, 79, 0
2, 104714, Note_on_c, 0, 41, 0
2, 104720, Note_on_c, 0, 70, 0
2, 104735, Note_on_c, 0, 74, 0
2, 104753, Note_on_c, 0, 77, 67
2, 104854, Note_on_c, 0, 77, 0
2, 104857, Note_on_c, 0, 70, 64
2, 104857, Note_on_c, 0, 53, 64
2, 104857, Note_on_c, 0, 58, 67
2, 104860, Note_on_c, 0, 74, 68
2, 104863, Note_on_c, 0, 62, 64
2, 104966, Note_on_c, 0, 53, 0
2, 104984, Note_on_c, 0, 70, 0
2, 104984, Note_on_c, 0, 58, 0
2, 104987, Note_on_c, 0, 74, 0
2, 104987, Note_on_c, 0, 75, 64
2, 104990, Note_on_c, 0, 62, 0
2, 105005, Note_on_c, 0, 69, 65
2, 105121, Note_on_c, 0, 41, 61
2, 105130, Note_on_c, 0, 53, 61
2, 105168, Note_on_c, 0, 69, 0
2, 105168, Note_on_c, 0, 75, 0
2, 105230, Note_on_c, 0, 53, 0
2, 105233, Note_on_c, 0, 41, 0
2, 105254, Note_on_c, 0, 77, 69
2, 105370, Note_on_c, 0, 77, 0
2, 105373, Note_on_c, 0, 53, 62
2, 105376, Note_on_c, 0, 63, 62
2, 105379, Note_on_c, 0, 67, 66
2, 105382, Note_on_c, 0, 57, 59
2, 105483, Note_on_c, 0, 63, 0
2, 105486, Note_on_c, 0, 53, 0
2, 105486, Note_on_c, 0, 57, 0
2, 105500, Note_on_c, 0, 67, 0
2, 105503, Note_on_c, 0, 69, 69
2, 105628, Note_on_c, 0, 69, 0
2, 105628, Note_on_c, 0, 58, 64
2, 105631, Note_on_c, 0, 70, 68
2, 105637, Note_on_c, 0, 46, 60
2, 105643, Control_c, 0, 64, 127
2, 105714, Control_c, 0, 64, 0
2, 105741, Note_on_c, 0, 46, 0
2, 105761, Note_on_c, 0, 58, 0
2, 105883, Note_on_c, 0, 53, 65
2, 105889, Note_on_c, 0, 41, 63
2, 105990, Note_on_c, 0, 41, 0
2, 105993, Note_on_c, 0, 53, 0
2, 106017, Note_on_c, 0, 42, 57
2, 106031, Note_on_c, 0, 54, 59
2, 106132, Note_on_c, 0, 54, 0
2, 106135, Note_on_c, 0, 42, 0
2, 106138, Note_on_c, 0, 55, 60
2, 106147, Note_on_c, 0, 43, 59
2, 106260, Note_on_c, 0, 43, 0
2, 106260, Note_on_c, 0, 55, 0
2, 106263, Note_on_c, 0, 70, 0
2, 106275, Note_on_c, 0, 44, 59
2, 106278, Note_on_c, 0, 56, 58
2, 106382, Note_on_c, 0, 56, 0
2, 106388, Note_on_c, 0, 44, 0
2, 106402, Note_on_c, 0, 57, 61
2, 106408, Note_on_c, 0, 72, 70
2, 106408, Note_on_c, 0, 45, 59
2, 106506, Note_on_c, 0, 72, 0
2, 106512, Note_on_c, 0, 57, 0
2, 106515, Note_on_c, 0, 45, 0
2, 106649, Note_on_c, 0, 73, 68
2, 106655, Note_on_c, 0, 58, 63
2, 106661, Note_on_c, 0, 61, 60
2, 106664, Note_on_c, 0, 46, 59
2, 106702, Control_c, 0, 64, 127
2, 106765, Note_on_c, 0, 46, 0
2, 106773, Note_on_c, 0, 61, 0
2, 106782, Note_on_c, 0, 58, 0
2, 106782, Control_c, 0, 64, 0
2, 106901, Note_on_c, 0, 61, 63
2, 106901, Note_on_c, 0, 53, 64
2, 106913, Note_on_c, 0, 58, 66
2, 107023, Note_on_c, 0, 61, 0
2, 107026, Note_on_c, 0, 58, 0
2, 107026, Note_on_c, 0, 53, 0
2, 107162, Note_on_c, 0, 53, 64
2, 107171, Note_on_c, 0, 41, 60
2, 107275, Note_on_c, 0, 41, 0
2, 107278, Note_on_c, 0, 53, 0
2, 107415, Note_on_c, 0, 53, 64
2, 107418, Note_on_c, 0, 73, 0
2, 107421, Note_on_c, 0, 70, 69
2, 107421, Note_on_c, 0, 61, 60
2, 107421, Note_on_c, 0, 58, 62
2, 107525, Note_on_c, 0, 70, 0
2, 107528, Note_on_c, 0, 53, 0
2, 107531, Note_on_c, 0, 61, 0
2, 107536, Note_on_c, 0, 58, 0
2, 107548, Note_on_c, 0, 60, 63
2, 107548, Note_on_c, 0, 72, 70
2, 107652, Note_on_c, 0, 60, 0
2, 107661, Note_on_c, 0, 72, 0
2, 107661, Note_on_c, 0, 73, 68
2, 107667, Note_on_c, 0, 58, 63
2, 107670, Note_on_c, 0, 61, 60
2, 107679, Note_on_c, 0, 46, 59
2, 107700, Control_c, 0, 64, 127
2, 107774, Note_on_c, 0, 46, 0
2, 107789, Note_on_c, 0, 61, 0
2, 107789, Control_c, 0, 64, 0
2, 107792, Note_on_c, 0, 58, 0
2, 107920, Note_on_c, 0, 61, 61
2, 107934, Note_on_c, 0, 53, 65
2, 107934, Note_on_c, 0, 58, 64
2, 108041, Note_on_c, 0, 61, 0
2, 108047, Note_on_c, 0, 53, 0
2, 108050, Note_on_c, 0, 58, 0
2, 108184, Note_on_c, 0, 53, 64
2, 108199, Note_on_c, 0, 41, 60
2, 108300, Note_on_c, 0, 53, 0
2, 108303, Note_on_c, 0, 41, 0
2, 108428, Note_on_c, 0, 73, 0
2, 108442, Note_on_c, 0, 70, 70
2, 108445, Note_on_c, 0, 53, 61
2, 108451, Note_on_c, 0, 61, 60
2, 108466, Note_on_c, 0, 58, 62
2, 108561, Note_on_c, 0, 53, 0
2, 108573, Note_on_c, 0, 61, 0
2, 108579, Note_on_c, 0, 58, 0
2, 108582, Note_on_c, 0, 70, 0
2, 108585, Note_on_c, 0, 60, 63
2, 108600, Note_on_c, 0, 72, 70
2, 108698, Note_on_c, 0, 72, 0
2, 108701, Note_on_c, 0, 73, 68
2, 108707, Note_on_c, 0, 60, 0
2, 108716, Note_on_c, 0, 46, 60
2, 108722, Note_on_c, 0, 58, 59
2, 108728, Note_on_c, 0, 61, 56
2, 108752, Control_c, 0, 64, 127
2, 108814, Control_c, 0, 64, 0
2, 108829, Note_on_c, 0, 61, 0
2, 108835, Note_on_c, 0, 58, 0
2, 108856, Note_on_c, 0, 77, 66
2, 108954, Note_on_c, 0, 77, 0
2, 108974, Note_on_c, 0, 58, 63
2, 108974, Note_on_c, 0, 53, 63
2, 108977, Note_on_c, 0, 82, 68
2, 108977, Note_on_c, 0, 61, 59
2, 109084, Note_on_c, 0, 61, 0
2, 109084, Note_on_c, 0, 82, 0
2, 109087, Note_on_c, 0, 53, 0
2, 109090, Note_on_c, 0, 58, 0
2, 109099, Note_on_c, 0, 85, 67
2, 109147, Note_on_c, 0, 73, 0
2, 109191, Note_on_c, 0, 46, 0
2, 109224, Note_on_c, 0, 63, 64
2, 109227, Note_on_c, 0, 85, 0
2, 109227, Note_on_c, 0, 75, 68
2, 109233, Note_on_c, 0, 42, 56
2, 109236, Note_on_c, 0, 54, 58
2, 109328, Note_on_c, 0, 63, 0
2, 109331, Note_on_c, 0, 54, 0
2, 109346, Note_on_c, 0, 78, 67
2, 109480, Note_on_c, 0, 63, 62
2, 109480, Note_on_c, 0, 82, 67
2, 109483, Note_on_c, 0, 78, 0
2, 109483, Note_on_c, 0, 58, 63
2, 109486, Note_on_c, 0, 54, 57
2, 109596, Note_on_c, 0, 63, 0
2, 109596, Note_on_c, 0, 75, 0
2, 109602, Note_on_c, 0, 82, 0
2, 109602, Note_on_c, 0, 54, 0
2, 109608, Note_on_c, 0, 58, 0
2, 109608, Note_on_c, 0, 87, 65
2, 109727, Note_on_c, 0, 73, 67
2, 109730, Note_on_c, 0, 87, 0
2, 109730, Note_on_c, 0, 42, 0
2, 109741, Note_on_c, 0, 41, 59
2, 109747, Note_on_c, 0, 53, 60
2, 109753, Note_on_c, 0, 61, 60
2, 109774, Control_c, 0, 64, 127
2, 109857, Note_on_c, 0, 53, 0
2, 109857, Note_on_c, 0, 41, 0
2, 109881, Note_on_c, 0, 85, 58
2, 109881, Note_on_c, 0, 82, 63
2, 109890, Control_c, 0, 64, 0
2, 109893, Note_on_c, 0, 77, 59
2, 110000, Note_on_c, 0, 51, 64
2, 110003, Note_on_c, 0, 39, 61
2, 110024, Note_on_c, 0, 77, 0
2, 110042, Note_on_c, 0, 82, 0
2, 110063, Note_on_c, 0, 85, 0
2, 110107, Note_on_c, 0, 51, 0
2, 110110, Note_on_c, 0, 73, 0
2, 110110, Note_on_c, 0, 39, 0
2, 110131, Note_on_c, 0, 81, 64
2, 110137, Note_on_c, 0, 84, 61
2, 110140, Note_on_c, 0, 77, 64
2, 110170, Note_on_c, 0, 77, 0
2, 110184, Note_on_c, 0, 61, 0
2, 110250, Note_on_c, 0, 81, 0
2, 110253, Note_on_c, 0, 84, 0
2, 110256, Note_on_c, 0, 77, 60
2, 110259, Note_on_c, 0, 82, 65
2, 110262, Note_on_c, 0, 37, 59
2, 110262, Note_on_c, 0, 49, 61
2, 110378, Note_on_c, 0, 49, 0
2, 110381, Note_on_c, 0, 37, 0
2, 110506, Note_on_c, 0, 82, 0
2, 110506, Note_on_c, 0, 77, 0
2, 110515, Note_on_c, 0, 53, 61
2, 110515, Note_on_c, 0, 65, 60
2, 110518, Note_on_c, 0, 70, 65
2, 110518, Note_on_c, 0, 61, 60
2, 110527, Note_on_c, 0, 58, 62
2, 110622, Note_on_c, 0, 53, 0
2, 110637, Note_on_c, 0, 61, 0
2, 110640, Note_on_c, 0, 58, 0
2, 110762, Note_on_c, 0, 65, 0
2, 110765, Note_on_c, 0, 70, 0
2, 110765, Note_on_c, 0, 63, 60
2, 110768, Note_on_c, 0, 60, 60
2, 110776, Note_on_c, 0, 69, 67
2, 110782, Note_on_c, 0, 48, 58
2, 110785, Control_c, 0, 64, 127
2, 110791, Note_on_c, 0, 54, 55
2, 110839, Control_c, 0, 64, 0
2, 110946, Note_on_c, 0, 69, 0
2, 110949, Note_on_c, 0, 54, 0
2, 111032, Note_on_c, 0, 67, 70
2, 111035, Note_on_c, 0, 55, 64
2, 111136, Note_on_c, 0, 55, 0
2, 111151, Note_on_c, 0, 67, 0
2, 111154, Note_on_c, 0, 66, 67
2, 111160, Note_on_c, 0, 57, 62
2, 111261, Note_on_c, 0, 63, 0
2, 111267, Note_on_c, 0, 60, 0
2, 111327, Note_on_c, 0, 66, 0
2, 111345, Note_on_c, 0, 57, 0
2, 111410, Note_on_c, 0, 55, 62
2, 111410, Note_on_c, 0, 67, 68
2, 111529, Note_on_c, 0, 67, 0
2, 111532, Note_on_c, 0, 55, 0
2, 111538, Note_on_c, 0, 48, 0
2, 111550, Note_on_c, 0, 69, 70
2, 111553, Note_on_c, 0, 54, 62
2, 111651, Note_on_c, 0, 69, 0
2, 111654, Note_on_c, 0, 54, 0
2, 111803, Note_on_c, 0, 63, 62
2, 111806, Note_on_c, 0, 66, 64
2, 111806, Note_on_c, 0, 51, 58
2, 111806, Note_on_c, 0, 57, 59
2, 111812, Note_on_c, 0, 72, 65
2, 111830, Control_c, 0, 64, 127
2, 111901, Control_c, 0, 64, 0
2, 111907, Note_on_c, 0, 72, 0
2, 111913, Note_on_c, 0, 57, 0
2, 112056, Note_on_c, 0, 70, 69
2, 112062, Note_on_c, 0, 58, 65
2, 112172, Note_on_c, 0, 70, 0
2, 112187, Note_on_c, 0, 58, 0
2, 112187, Note_on_c, 0, 69, 69
2, 112193, Note_on_c, 0, 60, 64
2, 112291, Note_on_c, 0, 63, 0
2, 112306, Note_on_c, 0, 66, 0
2, 112369, Note_on_c, 0, 69, 0
2, 112375, Note_on_c, 0, 60, 0
2, 112431, Note_on_c, 0, 70, 71
2, 112449, Note_on_c, 0, 58, 65
2, 112553, Note_on_c, 0, 51, 0
2, 112559, Note_on_c, 0, 58, 0
2, 112559, Note_on_c, 0, 70, 0
2, 112577, Note_on_c, 0, 57, 63
2, 112580, Note_on_c, 0, 72, 70
2, 112684, Note_on_c, 0, 72, 0
2, 112687, Note_on_c, 0, 57, 0
2, 112821, Note_on_c, 0, 71, 67
2, 112830, Note_on_c, 0, 56, 60
2, 112875, Control_c, 0, 64, 127
2, 112947, Control_c, 0, 64, 0
2, 113078, Note_on_c, 0, 56, 0
2, 113078, Note_on_c, 0, 71, 0
2, 113093, Note_on_c, 0, 72, 70
2, 113101, Note_on_c, 0, 57, 67
2, 113522, Note_on_c, 0, 72, 0
2, 113528, Note_on_c, 0, 57, 0
2, 113602, Note_on_c, 0, 73, 70
2, 113605, Note_on_c, 0, 58, 66
2, 113843, Note_on_c, 0, 73, 0
2, 113861, Note_on_c, 0, 58, 0
2, 113864, Note_on_c, 0, 59, 63
2, 113867, Note_on_c, 0, 74, 69
2, 113903, Control_c, 0, 64, 127
2, 113983, Control_c, 0, 64, 0
2, 114112, Note_on_c, 0, 59, 0
2, 114118, Note_on_c, 0, 75, 68
2, 114121, Note_on_c, 0, 74, 0
2, 114121, Note_on_c, 0, 60, 67
2, 114365, Note_on_c, 0, 75, 0
2, 114371, Note_on_c, 0, 60, 0
2, 114389, Note_on_c, 0, 61, 64
2, 114395, Note_on_c, 0, 76, 69
2, 114615, Note_on_c, 0, 76, 0
2, 114627, Note_on_c, 0, 61, 0
2, 114639, Note_on_c, 0, 77, 68
2, 114654, Note_on_c, 0, 62, 65
2, 114878, Note_on_c, 0, 77, 0
2, 114881, Note_on_c, 0, 63, 61
2, 114884, Note_on_c, 0, 66, 58
2, 114890, Note_on_c, 0, 62, 0
2, 114896, Note_on_c, 0, 58, 63
2, 114905, Note_on_c, 0, 78, 58
2, 114914, Note_on_c, 0, 72, 64
2, 114934, Control_c, 0, 64, 127
2, 114949, Control_c, 0, 64, 0
2, 115054, Note_on_c, 0, 72, 0
2, 115134, Note_on_c, 0, 63, 0
2, 115140, Note_on_c, 0, 66, 0
2, 115143, Note_on_c, 0, 58, 0
2, 115143, Note_on_c, 0, 78, 0
2, 115143, Note_on_c, 0, 60, 66
2, 115146, Note_on_c, 0, 75, 63
2, 115164, Note_on_c, 0, 70, 64
2, 115167, Note_on_c, 0, 54, 63
2, 115167, Note_on_c, 0, 72, 68
2, 115561, Note_on_c, 0, 72, 0
2, 115561, Note_on_c, 0, 54, 0
2, 115567, Note_on_c, 0, 70, 0
2, 115567, Note_on_c, 0, 60, 0
2, 115576, Note_on_c, 0, 75, 0
2, 115665, Note_on_c, 0, 60, 62
2, 115665, Note_on_c, 0, 70, 66
2, 115665, Note_on_c, 0, 72, 68
2, 115668, Note_on_c, 0, 54, 61
2, 115671, Note_on_c, 0, 76, 62
2, 115817, Note_on_c, 0, 60, 0
2, 115826, Note_on_c, 0, 72, 0
2, 115844, Note_on_c, 0, 54, 0
2, 115847, Note_on_c, 0, 70, 0
2, 115913, Note_on_c, 0, 76, 0
2, 115919, Note_on_c, 0, 60, 60
2, 115928, Note_on_c, 0, 53, 60
2, 115934, Note_on_c, 0, 72, 65
2, 115937, Note_on_c, 0, 69, 59
2, 115946, Note_on_c, 0, 77, 59
2, 115952, Control_c, 0, 64, 127
2, 116071, Control_c, 0, 64, 0
2, 116083, Note_on_c, 0, 72, 0
2, 116101, Note_on_c, 0, 69, 0
2, 116107, Note_on_c, 0, 60, 0
2, 116178, Note_on_c, 0, 63, 68
2, 116184, Note_on_c, 0, 72, 75
2, 116283, Note_on_c, 0, 72, 0
2, 116286, Note_on_c, 0, 63, 0
2, 116307, Note_on_c, 0, 70, 74
2, 116310, Note_on_c, 0, 61, 67
2, 116417, Note_on_c, 0, 70, 0
2, 116426, Note_on_c, 0, 61, 0
2, 116435, Note_on_c, 0, 69, 69
2, 116438, Note_on_c, 0, 60, 64
2, 116551, Note_on_c, 0, 60, 0
2, 116560, Note_on_c, 0, 70, 68
2, 116563, Note_on_c, 0, 69, 0
2, 116566, Note_on_c, 0, 61, 64
2, 116671, Note_on_c, 0, 53, 0
2, 116674, Note_on_c, 0, 70, 0
2, 116683, Note_on_c, 0, 77, 0
2, 116686, Note_on_c, 0, 69, 68
2, 116689, Note_on_c, 0, 61, 0
2, 116689, Note_on_c, 0, 60, 64
2, 116814, Note_on_c, 0, 69, 0
2, 116820, Note_on_c, 0, 60, 0
2, 116936, Note_on_c, 0, 73, 69
2, 116948, Note_on_c, 0, 61, 60
2, 116954, Note_on_c, 0, 46, 60
2, 116963, Note_on_c, 0, 58, 61
2, 116981, Control_c, 0, 64, 127
2, 117044, Control_c, 0, 64, 0
2, 117062, Note_on_c, 0, 61, 0
2, 117068, Note_on_c, 0, 58, 0
2, 117089, Note_on_c, 0, 77, 67
2, 117187, Note_on_c, 0, 77, 0
2, 117208, Note_on_c, 0, 58, 63
2, 117214, Note_on_c, 0, 53, 62
2, 117214, Note_on_c, 0, 61, 59
2, 117214, Note_on_c, 0, 82, 69
2, 117319, Note_on_c, 0, 73, 0
2, 117325, Note_on_c, 0, 53, 0
2, 117336, Note_on_c, 0, 61, 0
2, 117336, Note_on_c, 0, 82, 0
2, 117339, Note_on_c, 0, 58, 0
2, 117339, Note_on_c, 0, 85, 66
2, 117450, Note_on_c, 0, 46, 0
2, 117462, Note_on_c, 0, 63, 63
2, 117465, Note_on_c, 0, 85, 0
2, 117465, Note_on_c, 0, 75, 68
2, 117477, Note_on_c, 0, 42, 56
2, 117495, Note_on_c, 0, 54, 59
2, 117590, Note_on_c, 0, 63, 0
2, 117596, Note_on_c, 0, 54, 0
2, 117608, Note_on_c, 0, 78, 68
2, 117722, Note_on_c, 0, 78, 0
2, 117737, Note_on_c, 0, 63, 63
2, 117740, Note_on_c, 0, 58, 62
2, 117740, Note_on_c, 0, 82, 69
2, 117746, Note_on_c, 0, 54, 58
2, 117841, Note_on_c, 0, 82, 0
2, 117841, Note_on_c, 0, 63, 0
2, 117841, Note_on_c, 0, 75, 0
2, 117844, Note_on_c, 0, 54, 0
2, 117844, Note_on_c, 0, 58, 0
2, 117862, Note_on_c, 0, 87, 67
2, 117964, Note_on_c, 0, 87, 0
2, 117973, Note_on_c, 0, 42, 0
2, 117984, Note_on_c, 0, 73, 69
2, 117987, Note_on_c, 0, 53, 60
2, 117993, Note_on_c, 0, 61, 61
2, 117996, Note_on_c, 0, 41, 58
2, 118032, Control_c, 0, 64, 127
2, 118095, Note_on_c, 0, 53, 0
2, 118098, Note_on_c, 0, 41, 0
2, 118119, Note_on_c, 0, 82, 63
2, 118119, Note_on_c, 0, 85, 58
2, 118128, Note_on_c, 0, 77, 60
2, 118128, Control_c, 0, 64, 0
2, 118241, Note_on_c, 0, 51, 62
2, 118247, Note_on_c, 0, 39, 60
2, 118274, Note_on_c, 0, 77, 0
2, 118301, Note_on_c, 0, 61, 0
2, 118304, Note_on_c, 0, 82, 0
2, 118307, Note_on_c, 0, 85, 0
2, 118352, Note_on_c, 0, 73, 0
2, 118352, Note_on_c, 0, 51, 0
2, 118373, Note_on_c, 0, 39, 0
2, 118382, Note_on_c, 0, 81, 58
2, 118391, Note_on_c, 0, 84, 56
2, 118391, Note_on_c, 0, 77, 58
2, 118391, Note_on_c, 0, 72, 59
2, 118415, Note_on_c, 0, 77, 0
2, 118486, Note_on_c, 0, 72, 0
2, 118486, Note_on_c, 0, 81, 0
2, 118489, Note_on_c, 0, 84, 0
2, 118495, Note_on_c, 0, 82, 61
2, 118498, Note_on_c, 0, 49, 61
2, 118498, Note_on_c, 0, 37, 59
2, 118513, Note_on_c, 0, 77, 55
2, 118516, Note_on_c, 0, 70, 62
2, 118615, Note_on_c, 0, 49, 0
2, 118615, Note_on_c, 0, 82, 0
2, 118618, Note_on_c, 0, 77, 0
2, 118618, Note_on_c, 0, 37, 0
2, 118621, Note_on_c, 0, 70, 0
2, 118764, Note_on_c, 0, 33, 56
2, 118764, Note_on_c, 0, 45, 59
2, 118770, Note_on_c, 0, 84, 62
2, 118773, Note_on_c, 0, 77, 60
2, 118773, Note_on_c, 0, 72, 64
2, 118863, Note_on_c, 0, 33, 0
2, 118866, Note_on_c, 0, 45, 0
2, 118878, Note_on_c, 0, 72, 0
2, 118884, Note_on_c, 0, 84, 0
2, 118884, Note_on_c, 0, 77, 0
2, 119009, Note_on_c, 0, 73, 64
2, 119012, Note_on_c, 0, 85, 60
2, 119018, Note_on_c, 0, 46, 61
2, 119039, Note_on_c, 0, 77, 62
2, 119051, Control_c, 0, 64, 127
2, 119051, Note_on_c, 0, 34, 49
2, 119114, Control_c, 0, 64, 0
2, 119123, Note_on_c, 0, 73, 0
2, 119129, Note_on_c, 0, 46, 0
2, 119138, Note_on_c, 0, 34, 0
2, 119141, Note_on_c, 0, 77, 0
2, 119141, Note_on_c, 0, 85, 0
2, 119150, Note_on_c, 0, 84, 62
2, 119171, Note_on_c, 0, 72, 67
2, 119260, Note_on_c, 0, 73, 64
2, 119263, Note_on_c, 0, 72, 0
2, 119263, Note_on_c, 0, 84, 0
2, 119284, Note_on_c, 0, 58, 63
2, 119287, Note_on_c, 0, 61, 60
2, 119287, Note_on_c, 0, 85, 64
2, 119287, Note_on_c, 0, 53, 61
2, 119383, Note_on_c, 0, 61, 0
2, 119386, Note_on_c, 0, 53, 0
2, 119389, Note_on_c, 0, 73, 0
2, 119389, Note_on_c, 0, 58, 0
2, 119389, Note_on_c, 0, 85, 0
2, 119395, Note_on_c, 0, 87, 64
2, 119395, Note_on_c, 0, 75, 64
2, 119523, Note_on_c, 0, 42, 59
2, 119541, Note_on_c, 0, 54, 60
2, 119574, Note_on_c, 0, 75, 0
2, 119574, Note_on_c, 0, 87, 0
2, 119643, Note_on_c, 0, 54, 0
2, 119646, Note_on_c, 0, 42, 0
2, 119652, Note_on_c, 0, 73, 68
2, 119655, Note_on_c, 0, 85, 65
2, 119763, Note_on_c, 0, 73, 0
2, 119766, Note_on_c, 0, 85, 0
2, 119787, Note_on_c, 0, 63, 62
2, 119787, Note_on_c, 0, 82, 66
2, 119787, Note_on_c, 0, 58, 61
2, 119787, Note_on_c, 0, 70, 65
2, 119798, Note_on_c, 0, 54, 57
2, 119894, Note_on_c, 0, 63, 0
2, 119897, Note_on_c, 0, 70, 0
2, 119897, Note_on_c, 0, 82, 0
2, 119897, Note_on_c, 0, 54, 0
2, 119900, Note_on_c, 0, 58, 0
2, 120044, Note_on_c, 0, 56, 59
2, 120044, Note_on_c, 0, 78, 59
2, 120047, Note_on_c, 0, 82, 61
2, 120056, Note_on_c, 0, 72, 62
2, 120059, Note_on_c, 0, 44, 58
2, 120065, Control_c, 0, 64, 127
2, 120127, Control_c, 0, 64, 0
2, 120160, Note_on_c, 0, 56, 0
2, 120166, Note_on_c, 0, 78, 0
2, 120166, Note_on_c, 0, 82, 0
2, 120166, Note_on_c, 0, 80, 64
2, 120169, Note_on_c, 0, 44, 0
2, 120289, Note_on_c, 0, 80, 0
2, 120307, Note_on_c, 0, 56, 64
2, 120313, Note_on_c, 0, 60, 65
2, 120313, Note_on_c, 0, 66, 66
2, 120313, Note_on_c, 0, 78, 63
2, 120352, Note_on_c, 0, 72, 0
2, 120414, Note_on_c, 0, 56, 0
2, 120417, Note_on_c, 0, 66, 0
2, 120420, Note_on_c, 0, 60, 0
2, 120420, Note_on_c, 0, 78, 0
2, 120432, Note_on_c, 0, 73, 65
2, 120447, Note_on_c, 0, 77, 64
2, 120570, Note_on_c, 0, 37, 60
2, 120573, Note_on_c, 0, 49, 62
2, 120669, Note_on_c, 0, 73, 0
2, 120675, Note_on_c, 0, 49, 0
2, 120675, Note_on_c, 0, 37, 0
2, 120684, Note_on_c, 0, 80, 67
2, 120687, Note_on_c, 0, 77, 0
2, 120794, Note_on_c, 0, 80, 0
2, 120812, Note_on_c, 0, 73, 63
2, 120818, Note_on_c, 0, 61, 62
2, 120818, Note_on_c, 0, 56, 59
2, 120818, Note_on_c, 0, 65, 59
2, 120821, Note_on_c, 0, 77, 61
2, 120920, Note_on_c, 0, 56, 0
2, 120920, Note_on_c, 0, 73, 0
2, 120923, Note_on_c, 0, 65, 0
2, 120935, Note_on_c, 0, 61, 0
2, 120938, Note_on_c, 0, 77, 0
2, 121070, Note_on_c, 0, 68, 58
2, 121076, Note_on_c, 0, 77, 55
2, 121082, Note_on_c, 0, 84, 57
2, 121082, Note_on_c, 0, 72, 60
2, 121112, Control_c, 0, 64, 127
2, 121129, Control_c, 0, 64, 0
2, 121183, Note_on_c, 0, 77, 0
2, 121186, Note_on_c, 0, 68, 0
2, 121195, Note_on_c, 0, 67, 61
2, 121204, Note_on_c, 0, 76, 63
2, 121375, Note_on_c, 0, 67, 0
2, 121384, Note_on_c, 0, 76, 0
2, 121453, Note_on_c, 0, 68, 65
2, 121471, Note_on_c, 0, 77, 64
2, 121641, Note_on_c, 0, 68, 0
2, 121704, Note_on_c, 0, 77, 0
2, 121704, Note_on_c, 0, 72, 0
2, 121710, Note_on_c, 0, 70, 65
2, 121716, Note_on_c, 0, 79, 61
2, 121830, Note_on_c, 0, 79, 0
2, 121830, Note_on_c, 0, 84, 0
2, 121836, Note_on_c, 0, 70, 0
2, 121836, Note_on_c, 0, 80, 62
2, 121842, Note_on_c, 0, 72, 66
2, 121958, Note_on_c, 0, 72, 0
2, 121961, Note_on_c, 0, 80, 0
2, 122123, Note_on_c, 0, 84, 58
2, 122123, Note_on_c, 0, 67, 55
2, 122126, Note_on_c, 0, 72, 60
2, 122129, Note_on_c, 0, 76, 57
2, 122135, Control_c, 0, 64, 127
2, 122189, Control_c, 0, 64, 0
2, 122219, Note_on_c, 0, 76, 0
2, 122219, Note_on_c, 0, 67, 0
2, 122240, Note_on_c, 0, 70, 66
2, 122246, Note_on_c, 0, 79, 61
2, 122414, Note_on_c, 0, 79, 0
2, 122420, Note_on_c, 0, 70, 0
2, 122494, Note_on_c, 0, 68, 65
2, 122503, Note_on_c, 0, 77, 64
2, 122740, Note_on_c, 0, 68, 0
2, 122740, Note_on_c, 0, 72, 0
2, 122743, Note_on_c, 0, 77, 0
2, 122869, Note_on_c, 0, 84, 0
2, 122872, Note_on_c, 0, 65, 57
2, 122878, Note_on_c, 0, 41, 60
2, 122887, Note_on_c, 0, 53, 60
2, 122890, Note_on_c, 0, 68, 58
2, 122905, Note_on_c, 0, 72, 64
2, 122908, Note_on_c, 0, 77, 59
2, 122989, Note_on_c, 0, 72, 0
2, 122992, Note_on_c, 0, 68, 0
2, 122992, Note_on_c, 0, 53, 0
2, 122992, Note_on_c, 0, 65, 0
2, 122995, Note_on_c, 0, 41, 0
2, 122995, Note_on_c, 0, 77, 0
2, 123141, Note_on_c, 0, 68, 59
2, 123144, Note_on_c, 0, 65, 57
2, 123147, Note_on_c, 0, 47, 58
2, 123147, Note_on_c, 0, 35, 57
2, 123153, Control_c, 0, 64, 127
2, 123153, Note_on_c, 0, 74, 61
2, 123225, Control_c, 0, 64, 0
2, 123243, Note_on_c, 0, 47, 0
2, 123246, Note_on_c, 0, 35, 0
2, 123249, Note_on_c, 0, 65, 0
2, 123264, Note_on_c, 0, 68, 0
2, 123270, Note_on_c, 0, 74, 0
2, 123273, Note_on_c, 0, 77, 66
2, 123381, Note_on_c, 0, 77, 0
2, 123381, Note_on_c, 0, 65, 59
2, 123384, Note_on_c, 0, 48, 64
2, 123399, Note_on_c, 0, 36, 57
2, 123399, Note_on_c, 0, 72, 64
2, 123408, Note_on_c, 0, 69, 64
2, 123501, Note_on_c, 0, 69, 0
2, 123504, Note_on_c, 0, 65, 0
2, 123504, Note_on_c, 0, 72, 0
2, 123507, Note_on_c, 0, 36, 0
2, 123510, Note_on_c, 0, 48, 0
2, 123636, Note_on_c, 0, 36, 59
2, 123639, Note_on_c, 0, 76, 65
2, 123645, Note_on_c, 0, 48, 62
2, 123645, Note_on_c, 0, 70, 67
2, 123654, Note_on_c, 0, 64, 59
2, 123755, Note_on_c, 0, 36, 0
2, 123761, Note_on_c, 0, 70, 0
2, 123761, Note_on_c, 0, 76, 0
2, 123761, Note_on_c, 0, 48, 0
2, 123764, Note_on_c, 0, 64, 0
2, 123773, Note_on_c, 0, 74, 70
2, 123887, Note_on_c, 0, 74, 0
2, 123905, Note_on_c, 0, 70, 64
2, 123908, Note_on_c, 0, 58, 61
2, 123914, Note_on_c, 0, 55, 55
2, 123914, Note_on_c, 0, 60, 58
2, 123917, Note_on_c, 0, 76, 64
2, 123923, Note_on_c, 0, 64, 54
2, 124013, Note_on_c, 0, 55, 0
2, 124016, Note_on_c, 0, 60, 0
2, 124016, Note_on_c, 0, 58, 0
2, 124019, Note_on_c, 0, 70, 0
2, 124019, Note_on_c, 0, 76, 0
2, 124019, Note_on_c, 0, 64, 0
2, 124031, Note_on_c, 0, 65, 59
2, 124034, Note_on_c, 0, 69, 63
2, 124046, Note_on_c, 0, 77, 61
2, 124157, Note_on_c, 0, 41, 62
2, 124169, Control_c, 0, 64, 127
2, 124211, Note_on_c, 0, 77, 0
2, 124241, Control_c, 0, 64, 0
2, 124262, Note_on_c, 0, 41, 0
2, 124280, Note_on_c, 0, 75, 68
2, 124280, Note_on_c, 0, 53, 63
2, 124385, Note_on_c, 0, 75, 0
2, 124388, Note_on_c, 0, 53, 0
2, 124403, Note_on_c, 0, 69, 0
2, 124412, Note_on_c, 0, 39, 61
2, 124415, Note_on_c, 0, 72, 71
2, 124529, Note_on_c, 0, 72, 0
2, 124532, Note_on_c, 0, 65, 0
2, 124535, Note_on_c, 0, 51, 62
2, 124538, Note_on_c, 0, 39, 0
2, 124544, Note_on_c, 0, 69, 68
2, 124634, Note_on_c, 0, 51, 0
2, 124646, Note_on_c, 0, 65, 70
2, 124652, Note_on_c, 0, 69, 0
2, 124664, Note_on_c, 0, 38, 59
2, 124664, Note_on_c, 0, 50, 58
2, 124781, Note_on_c, 0, 65, 0
2, 124784, Note_on_c, 0, 38, 0
2, 124793, Note_on_c, 0, 63, 64
2, 124909, Note_on_c, 0, 50, 0
2, 124933, Note_on_c, 0, 36, 59
2, 124963, Note_on_c, 0, 63, 0
2, 125041, Note_on_c, 0, 65, 69
2, 125050, Note_on_c, 0, 36, 0
2, 125050, Note_on_c, 0, 48, 64
2, 125161, Note_on_c, 0, 48, 0
2, 125176, Note_on_c, 0, 65, 0
2, 125176, Note_on_c, 0, 74, 67
2, 125182, Note_on_c, 0, 46, 61
2, 125197, Note_on_c, 0, 62, 62
2, 125212, Control_c, 0, 64, 127
2, 125293, Control_c, 0, 64, 0
2, 125302, Note_on_c, 0, 82, 69
2, 125428, Note_on_c, 0, 82, 0
2, 125431, Note_on_c, 0, 53, 64
2, 125434, Note_on_c, 0, 79, 64
2, 125449, Note_on_c, 0, 58, 66
2, 125554, Note_on_c, 0, 79, 0
2, 125557, Note_on_c, 0, 53, 0
2, 125557, Note_on_c, 0, 74, 0
2, 125557, Note_on_c, 0, 58, 0
2, 125563, Note_on_c, 0, 62, 0
2, 125578, Note_on_c, 0, 77, 68
2, 125602, Note_on_c, 0, 46, 0
2, 125674, Note_on_c, 0, 77, 0
2, 125683, Note_on_c, 0, 63, 64
2, 125683, Note_on_c, 0, 75, 69
2, 125695, Note_on_c, 0, 48, 64
2, 125824, Note_on_c, 0, 84, 69
2, 125944, Note_on_c, 0, 53, 62
2, 125953, Note_on_c, 0, 57, 60
2, 126001, Note_on_c, 0, 84, 0
2, 126052, Note_on_c, 0, 63, 0
2, 126055, Note_on_c, 0, 53, 0
2, 126061, Note_on_c, 0, 48, 0
2, 126064, Note_on_c, 0, 75, 0
2, 126067, Note_on_c, 0, 85, 67
2, 126070, Note_on_c, 0, 57, 0
2, 126196, Note_on_c, 0, 85, 0
2, 126211, Note_on_c, 0, 46, 62
2, 126214, Note_on_c, 0, 86, 60
2, 126223, Note_on_c, 0, 62, 63
2, 126223, Note_on_c, 0, 74, 66
2, 126238, Control_c, 0, 64, 127
2, 126301, Control_c, 0, 64, 0
2, 126313, Note_on_c, 0, 46, 0
2, 126328, Note_on_c, 0, 86, 0
2, 126355, Note_on_c, 0, 77, 67
2, 126457, Note_on_c, 0, 74, 0
2, 126466, Note_on_c, 0, 77, 0
2, 126472, Note_on_c, 0, 58, 67
2, 126472, Note_on_c, 0, 53, 65
2, 126475, Note_on_c, 0, 82, 69
2, 126583, Note_on_c, 0, 53, 0
2, 126586, Note_on_c, 0, 62, 0
2, 126592, Note_on_c, 0, 82, 0
2, 126595, Note_on_c, 0, 58, 0
2, 126598, Note_on_c, 0, 74, 68
2, 126718, Note_on_c, 0, 73, 64
2, 126724, Note_on_c, 0, 74, 0
2, 126727, Note_on_c, 0, 79, 60
2, 126727, Note_on_c, 0, 46, 64
2, 126835, Note_on_c, 0, 46, 0
2, 126844, Note_on_c, 0, 79, 0
2, 126844, Note_on_c, 0, 73, 0
2, 126868, Note_on_c, 0, 74, 66
2, 126874, Note_on_c, 0, 77, 65
2, 126991, Note_on_c, 0, 53, 63
2, 126994, Note_on_c, 0, 58, 64
2, 127097, Note_on_c, 0, 77, 0
2, 127100, Note_on_c, 0, 53, 0
2, 127103, Note_on_c, 0, 58, 0
2, 127106, Note_on_c, 0, 74, 0
2, 127250, Note_on_c, 0, 75, 66
2, 127253, Note_on_c, 0, 45, 60
2, 127256, Control_c, 0, 64, 127
2, 127256, Note_on_c, 0, 77, 63
2, 127283, Note_on_c, 0, 77, 0
2, 127283, Note_on_c, 0, 75, 0
2, 127310, Control_c, 0, 64, 0
2, 127352, Note_on_c, 0, 45, 0
2, 127367, Note_on_c, 0, 77, 64
2, 127370, Note_on_c, 0, 75, 64
2, 127469, Note_on_c, 0, 75, 0
2, 127490, Note_on_c, 0, 77, 0
2, 127493, Note_on_c, 0, 53, 65
2, 127499, Note_on_c, 0, 57, 65
2, 127607, Note_on_c, 0, 53, 0
2, 127625, Note_on_c, 0, 57, 0
2, 127625, Note_on_c, 0, 75, 66
2, 127649, Note_on_c, 0, 77, 65
2, 127757, Note_on_c, 0, 41, 63
2, 127808, Note_on_c, 0, 77, 0
2, 127868, Note_on_c, 0, 75, 0
2, 127877, Note_on_c, 0, 41, 0
2, 127895, Note_on_c, 0, 79, 67
2, 127997, Note_on_c, 0, 79, 0
2, 128000, Note_on_c, 0, 75, 65
2, 128018, Note_on_c, 0, 53, 63
2, 128024, Note_on_c, 0, 57, 60
2, 128027, Note_on_c, 0, 77, 67
2, 128117, Note_on_c, 0, 75, 0
2, 128120, Note_on_c, 0, 77, 0
2, 128123, Note_on_c, 0, 57, 0
2, 128127, Note_on_c, 0, 53, 0
2, 128274, Note_on_c, 0, 74, 67
2, 128277, Note_on_c, 0, 46, 63
2, 128283, Note_on_c, 0, 77, 63
2, 128292, Control_c, 0, 64, 127
2, 128310, Note_on_c, 0, 77, 0
2, 128316, Note_on_c, 0, 74, 0
2, 128337, Control_c, 0, 64, 0
2, 128361, Note_on_c, 0, 46, 0
2, 128394, Note_on_c, 0, 77, 64
2, 128403, Note_on_c, 0, 74, 66
2, 128514, Note_on_c, 0, 74, 0
2, 128523, Note_on_c, 0, 77, 0
2, 128523, Note_on_c, 0, 58, 65
2, 128523, Note_on_c, 0, 53, 64
2, 128634, Note_on_c, 0, 53, 0
2, 128652, Note_on_c, 0, 58, 0
2, 128658, Note_on_c, 0, 74, 66
2, 128667, Note_on_c, 0, 77, 64
2, 128781, Note_on_c, 0, 41, 63
2, 128836, Note_on_c, 0, 77, 0
2, 128896, Note_on_c, 0, 41, 0
2, 128908, Note_on_c, 0, 74, 0
2, 128917, Note_on_c, 0, 79, 66
2, 129028, Note_on_c, 0, 79, 0
2, 129040, Note_on_c, 0, 58, 63
2, 129040, Note_on_c, 0, 53, 63
2, 129046, Note_on_c, 0, 74, 66
2, 129052, Note_on_c, 0, 77, 65
2, 129148, Note_on_c, 0, 77, 0
2, 129148, Note_on_c, 0, 53, 0
2, 129151, Note_on_c, 0, 58, 0
2, 129154, Note_on_c, 0, 74, 0
2, 129292, Note_on_c, 0, 74, 69
2, 129301, Note_on_c, 0, 46, 61
2, 129301, Note_on_c, 0, 62, 64
2, 129319, Control_c, 0, 64, 127
2, 129355, Control_c, 0, 64, 0
2, 129419, Note_on_c, 0, 82, 68
2, 129545, Note_on_c, 0, 82, 0
2, 129548, Note_on_c, 0, 53, 65
2, 129548, Note_on_c, 0, 79, 65
2, 129560, Note_on_c, 0, 58, 67
2, 129653, Note_on_c, 0, 53, 0
2, 129656, Note_on_c, 0, 46, 0
2, 129668, Note_on_c, 0, 79, 0
2, 129671, Note_on_c, 0, 58, 0
2, 129674, Note_on_c, 0, 74, 0
2, 129677, Note_on_c, 0, 62, 0
2, 129692, Note_on_c, 0, 77, 68
2, 129791, Note_on_c, 0, 77, 0
2, 129794, Note_on_c, 0, 63, 64
2, 129797, Note_on_c, 0, 75, 68
2, 129812, Note_on_c, 0, 48, 64
2, 129936, Note_on_c, 0, 84, 69
2, 130062, Note_on_c, 0, 53, 63
2, 130068, Note_on_c, 0, 57, 60
2, 130122, Note_on_c, 0, 84, 0
2, 130170, Note_on_c, 0, 75, 0
2, 130173, Note_on_c, 0, 63, 0
2, 130176, Note_on_c, 0, 53, 0
2, 130176, Note_on_c, 0, 57, 0
2, 130182, Note_on_c, 0, 48, 0
2, 130185, Note_on_c, 0, 85, 69
2, 130311, Note_on_c, 0, 85, 0
2, 130320, Note_on_c, 0, 74, 65
2, 130324, Note_on_c, 0, 46, 61
2, 130324, Note_on_c, 0, 62, 64
2, 130330, Note_on_c, 0, 86, 62
2, 130363, Control_c, 0, 64, 127
2, 130423, Note_on_c, 0, 46, 0
2, 130438, Note_on_c, 0, 86, 0
2, 130456, Control_c, 0, 64, 0
2, 130465, Note_on_c, 0, 77, 67
2, 130561, Note_on_c, 0, 77, 0
2, 130567, Note_on_c, 0, 82, 67
2, 130582, Note_on_c, 0, 58, 67
2, 130585, Note_on_c, 0, 53, 64
2, 130690, Note_on_c, 0, 82, 0
2, 130693, Note_on_c, 0, 58, 0
2, 130693, Note_on_c, 0, 53, 0
2, 130715, Note_on_c, 0, 86, 65
2, 130745, Note_on_c, 0, 86, 0
2, 130757, Note_on_c, 0, 74, 0
2, 130760, Note_on_c, 0, 62, 0
2, 130829, Note_on_c, 0, 58, 64
2, 130835, Note_on_c, 0, 91, 66
2, 130838, Note_on_c, 0, 46, 61
2, 130838, Note_on_c, 0, 86, 61
2, 130946, Note_on_c, 0, 46, 0
2, 130955, Note_on_c, 0, 91, 0
2, 130955, Note_on_c, 0, 94, 72
2, 130961, Note_on_c, 0, 58, 0
2, 131088, Note_on_c, 0, 55, 60
2, 131100, Note_on_c, 0, 43, 60
2, 131190, Note_on_c, 0, 43, 0
2, 131199, Note_on_c, 0, 94, 0
2, 131202, Note_on_c, 0, 86, 0
2, 131205, Note_on_c, 0, 55, 0
2, 131343, Note_on_c, 0, 42, 58
2, 131352, Note_on_c, 0, 93, 71
2, 131358, Note_on_c, 0, 54, 60
2, 131367, Control_c, 0, 64, 127
2, 131440, Control_c, 0, 64, 0
2, 131455, Note_on_c, 0, 54, 0
2, 131461, Note_on_c, 0, 42, 0
2, 131464, Note_on_c, 0, 93, 0
2, 131476, Note_on_c, 0, 96, 71
2, 131581, Note_on_c, 0, 96, 0
2, 131602, Note_on_c, 0, 98, 72
2, 131605, Note_on_c, 0, 60, 64
2, 131608, Note_on_c, 0, 62, 65
2, 131608, Note_on_c, 0, 54, 61
2, 131710, Note_on_c, 0, 54, 0
2, 131713, Note_on_c, 0, 98, 0
2, 131713, Note_on_c, 0, 60, 0
2, 131719, Note_on_c, 0, 62, 0
2, 131731, Note_on_c, 0, 99, 69
2, 131734, Note_on_c, 0, 90, 69
2, 131858, Note_on_c, 0, 38, 60
2, 131861, Note_on_c, 0, 50, 59
2, 131891, Note_on_c, 0, 90, 0
2, 131906, Note_on_c, 0, 99, 0
2, 131966, Note_on_c, 0, 50, 0
2, 131981, Note_on_c, 0, 98, 74
2, 131987, Note_on_c, 0, 38, 0
2, 132105, Note_on_c, 0, 98, 0
2, 132108, Note_on_c, 0, 60, 62
2, 132108, Note_on_c, 0, 90, 69
2, 132129, Note_on_c, 0, 93, 69
2, 132129, Note_on_c, 0, 62, 64
2, 132132, Note_on_c, 0, 54, 58
2, 132225, Note_on_c, 0, 90, 0
2, 132228, Note_on_c, 0, 54, 0
2, 132231, Note_on_c, 0, 60, 0
2, 132237, Note_on_c, 0, 93, 0
2, 132237, Note_on_c, 0, 62, 0
2, 132370, Note_on_c, 0, 43, 60
2, 132379, Note_on_c, 0, 91, 64
2, 132382, Note_on_c, 0, 55, 59
2, 132382, Note_on_c, 0, 96, 68
2, 132412, Control_c, 0, 64, 127
2, 132484, Note_on_c, 0, 96, 0
2, 132487, Note_on_c, 0, 43, 0
2, 132490, Note_on_c, 0, 55, 0
2, 132496, Note_on_c, 0, 94, 73
2, 132517, Control_c, 0, 64, 0
2, 132607, Note_on_c, 0, 94, 0
2, 132638, Note_on_c, 0, 58, 67
2, 132641, Note_on_c, 0, 55, 60
2, 132641, Note_on_c, 0, 93, 72
2, 132644, Note_on_c, 0, 62, 65
2, 132743, Note_on_c, 0, 55, 0
2, 132749, Note_on_c, 0, 94, 72
2, 132758, Note_on_c, 0, 58, 0
2, 132764, Note_on_c, 0, 93, 0
2, 132770, Note_on_c, 0, 62, 0
2, 132894, Note_on_c, 0, 38, 60
2, 132897, Note_on_c, 0, 50, 59
2, 132939, Note_on_c, 0, 94, 0
2, 132942, Note_on_c, 0, 91, 0
2, 132999, Note_on_c, 0, 50, 0
2, 133014, Note_on_c, 0, 38, 0
2, 133144, Note_on_c, 0, 55, 60
2, 133156, Note_on_c, 0, 58, 64
2, 133162, Note_on_c, 0, 62, 63
2, 133264, Note_on_c, 0, 58, 0
2, 133264, Note_on_c, 0, 55, 0
2, 133270, Note_on_c, 0, 62, 0
2, 133273, Note_on_c, 0, 94, 71
2, 133288, Note_on_c, 0, 87, 65
2, 133403, Note_on_c, 0, 43, 60
2, 133415, Note_on_c, 0, 55, 59
2, 133427, Control_c, 0, 64, 127
2, 133508, Note_on_c, 0, 94, 0
2, 133508, Control_c, 0, 64, 0
2, 133511, Note_on_c, 0, 87, 0
2, 133514, Note_on_c, 0, 43, 0
2, 133517, Note_on_c, 0, 55, 0
2, 133532, Note_on_c, 0, 82, 69
2, 133653, Note_on_c, 0, 82, 0
2, 133662, Note_on_c, 0, 51, 64
2, 133665, Note_on_c, 0, 39, 60
2, 133665, Note_on_c, 0, 91, 65
2, 133668, Note_on_c, 0, 87, 65
2, 133764, Note_on_c, 0, 51, 0
2, 133779, Note_on_c, 0, 87, 0
2, 133785, Note_on_c, 0, 39, 0
2, 133806, Note_on_c, 0, 79, 66
2, 133906, Note_on_c, 0, 79, 0
2, 133915, Note_on_c, 0, 38, 60
2, 133915, Note_on_c, 0, 50, 59
2, 133924, Note_on_c, 0, 82, 69
2, 134032, Note_on_c, 0, 82, 0
2, 134032, Note_on_c, 0, 91, 0
2, 134038, Note_on_c, 0, 50, 0
2, 134038, Note_on_c, 0, 38, 0
2, 134065, Note_on_c, 0, 89, 67
2, 134065, Note_on_c, 0, 86, 64
2, 134183, Note_on_c, 0, 58, 63
2, 134189, Note_on_c, 0, 53, 60
2, 134195, Note_on_c, 0, 62, 63
2, 134225, Note_on_c, 0, 86, 0
2, 134291, Note_on_c, 0, 53, 0
2, 134294, Note_on_c, 0, 89, 0
2, 134294, Note_on_c, 0, 58, 0
2, 134301, Note_on_c, 0, 62, 0
2, 134316, Note_on_c, 0, 77, 67
2, 134424, Note_on_c, 0, 77, 0
2, 134433, Note_on_c, 0, 53, 63
2, 134442, Note_on_c, 0, 87, 63
2, 134445, Note_on_c, 0, 41, 59
2, 134445, Note_on_c, 0, 84, 63
2, 134469, Control_c, 0, 64, 127
2, 134493, Control_c, 0, 64, 0
2, 134539, Note_on_c, 0, 41, 0
2, 134539, Note_on_c, 0, 53, 0
2, 134551, Note_on_c, 0, 87, 0
2, 134554, Note_on_c, 0, 84, 0
2, 134563, Note_on_c, 0, 79, 64
2, 134680, Note_on_c, 0, 79, 0
2, 134686, Note_on_c, 0, 63, 64
2, 134686, Note_on_c, 0, 53, 64
2, 134686, Note_on_c, 0, 81, 64
2, 134689, Note_on_c, 0, 87, 64
2, 134692, Note_on_c, 0, 57, 63
2, 134783, Note_on_c, 0, 63, 0
2, 134792, Note_on_c, 0, 53, 0
2, 134801, Note_on_c, 0, 81, 0
2, 134807, Note_on_c, 0, 87, 0
2, 134810, Note_on_c, 0, 57, 0
2, 134810, Note_on_c, 0, 82, 64
2, 134819, Note_on_c, 0, 86, 61
2, 134946, Note_on_c, 0, 46, 62
2, 134952, Note_on_c, 0, 58, 64
2, 135051, Note_on_c, 0, 46, 0
2, 135063, Note_on_c, 0, 82, 0
2, 135066, Note_on_c, 0, 58, 0
2, 135078, Note_on_c, 0, 86, 0
2, 135090, Note_on_c, 0, 77, 67
2, 135193, Note_on_c, 0, 77, 0
2, 135208, Note_on_c, 0, 86, 62
2, 135208, Note_on_c, 0, 56, 59
2, 135211, Note_on_c, 0, 89, 66
2, 135217, Note_on_c, 0, 44, 59
2, 135310, Note_on_c, 0, 56, 0
2, 135317, Note_on_c, 0, 44, 0
2, 135326, Note_on_c, 0, 86, 0
2, 135329, Note_on_c, 0, 89, 0
2, 135443, Note_on_c, 0, 94, 70
2, 135455, Note_on_c, 0, 87, 64
2, 135455, Note_on_c, 0, 55, 60
2, 135461, Note_on_c, 0, 43, 59
2, 135470, Control_c, 0, 64, 127
2, 135534, Control_c, 0, 64, 0
2, 135561, Note_on_c, 0, 43, 0
2, 135561, Note_on_c, 0, 55, 0
2, 135573, Note_on_c, 0, 87, 0
2, 135576, Note_on_c, 0, 82, 68
2, 135700, Note_on_c, 0, 94, 0
2, 135703, Note_on_c, 0, 82, 0
2, 135709, Note_on_c, 0, 51, 63
2, 135712, Note_on_c, 0, 39, 60
2, 135727, Note_on_c, 0, 91, 66
2, 135727, Note_on_c, 0, 87, 66
2, 135811, Note_on_c, 0, 51, 0
2, 135826, Note_on_c, 0, 87, 0
2, 135832, Note_on_c, 0, 39, 0
2, 135850, Note_on_c, 0, 79, 66
2, 135953, Note_on_c, 0, 79, 0
2, 135953, Note_on_c, 0, 91, 0
2, 135968, Note_on_c, 0, 38, 60
2, 135971, Note_on_c, 0, 82, 70
2, 135971, Note_on_c, 0, 50, 59
2, 136077, Note_on_c, 0, 82, 0
2, 136083, Note_on_c, 0, 50, 0
2, 136083, Note_on_c, 0, 38, 0
2, 136107, Note_on_c, 0, 89, 67
2, 136110, Note_on_c, 0, 86, 64
2, 136221, Note_on_c, 0, 58, 63
2, 136224, Note_on_c, 0, 53, 61
2, 136227, Note_on_c, 0, 62, 62
2, 136282, Note_on_c, 0, 86, 0
2, 136288, Note_on_c, 0, 89, 0
2, 136333, Note_on_c, 0, 53, 0
2, 136351, Note_on_c, 0, 58, 0
2, 136354, Note_on_c, 0, 62, 0
2, 136372, Note_on_c, 0, 77, 68
2, 136463, Note_on_c, 0, 77, 0
2, 136475, Note_on_c, 0, 53, 63
2, 136478, Note_on_c, 0, 87, 63
2, 136481, Note_on_c, 0, 41, 59
2, 136484, Note_on_c, 0, 84, 64
2, 136511, Control_c, 0, 64, 127
2, 136584, Control_c, 0, 64, 0
2, 136587, Note_on_c, 0, 41, 0
2, 136599, Note_on_c, 0, 53, 0
2, 136599, Note_on_c, 0, 87, 0
2, 136599, Note_on_c, 0, 84, 0
2, 136623, Note_on_c, 0, 79, 65
2, 136722, Note_on_c, 0, 79, 0
2, 136728, Note_on_c, 0, 63, 63
2, 136746, Note_on_c, 0, 81, 65
2, 136746, Note_on_c, 0, 53, 64
2, 136753, Note_on_c, 0, 87, 64
2, 136753, Note_on_c, 0, 57, 63
2, 136843, Note_on_c, 0, 81, 0
2, 136843, Note_on_c, 0, 63, 0
2, 136846, Note_on_c, 0, 87, 0
2, 136846, Note_on_c, 0, 57, 0
2, 136852, Note_on_c, 0, 53, 0
2, 136873, Note_on_c, 0, 82, 67
2, 136876, Note_on_c, 0, 86, 62
2, 136991, Note_on_c, 0, 58, 65
2, 137000, Note_on_c, 0, 46, 62
2, 137085, Note_on_c, 0, 46, 0
2, 137115, Note_on_c, 0, 58, 0
2, 137238, Note_on_c, 0, 82, 0
2, 137242, Note_on_c, 0, 86, 0
2, 137242, Note_on_c, 0, 53, 64
2, 137251, Note_on_c, 0, 41, 60
2, 137353, Note_on_c, 0, 53, 0
2, 137359, Note_on_c, 0, 41, 0
2, 137377, Note_on_c, 0, 87, 65
2, 137383, Note_on_c, 0, 94, 72
2, 137507, Note_on_c, 0, 55, 60
2, 137513, Note_on_c, 0, 43, 60
2, 137543, Control_c, 0, 64, 127
2, 137604, Note_on_c, 0, 43, 0
2, 137607, Control_c, 0, 64, 0
2, 137616, Note_on_c, 0, 87, 0
2, 137625, Note_on_c, 0, 55, 0
2, 137637, Note_on_c, 0, 82, 69
2, 137743, Note_on_c, 0, 94, 0
2, 137746, Note_on_c, 0, 82, 0
2, 137755, Note_on_c, 0, 51, 62
2, 137758, Note_on_c, 0, 39, 59
2, 137767, Note_on_c, 0, 91, 65
2, 137770, Note_on_c, 0, 87, 66
2, 137873, Note_on_c, 0, 87, 0
2, 137873, Note_on_c, 0, 51, 0
2, 137882, Note_on_c, 0, 39, 0
2, 137897, Note_on_c, 0, 79, 66
2, 137999, Note_on_c, 0, 79, 0
2, 138011, Note_on_c, 0, 91, 0
2, 138018, Note_on_c, 0, 82, 69
2, 138024, Note_on_c, 0, 38, 60
2, 138027, Note_on_c, 0, 50, 59
2, 138129, Note_on_c, 0, 50, 0
2, 138141, Note_on_c, 0, 82, 0
2, 138147, Note_on_c, 0, 38, 0
2, 138150, Note_on_c, 0, 86, 63
2, 138172, Note_on_c, 0, 89, 67
2, 138286, Note_on_c, 0, 58, 63
2, 138286, Note_on_c, 0, 53, 61
2, 138292, Note_on_c, 0, 62, 63
2, 138386, Note_on_c, 0, 53, 0
2, 138389, Note_on_c, 0, 58, 0
2, 138389, Note_on_c, 0, 86, 0
2, 138392, Note_on_c, 0, 89, 0
2, 138398, Note_on_c, 0, 62, 0
2, 138416, Note_on_c, 0, 77, 68
2, 138510, Note_on_c, 0, 77, 0
2, 138534, Note_on_c, 0, 53, 63
2, 138543, Note_on_c, 0, 41, 60
2, 138543, Note_on_c, 0, 87, 64
2, 138543, Note_on_c, 0, 84, 64
2, 138576, Control_c, 0, 64, 127
2, 138640, Note_on_c, 0, 87, 0
2, 138646, Note_on_c, 0, 53, 0
2, 138649, Note_on_c, 0, 41, 0
2, 138661, Note_on_c, 0, 84, 0
2, 138667, Note_on_c, 0, 79, 64
2, 138685, Control_c, 0, 64, 0
2, 138767, Note_on_c, 0, 79, 0
2, 138782, Note_on_c, 0, 53, 65
2, 138788, Note_on_c, 0, 63, 64
2, 138788, Note_on_c, 0, 81, 67
2, 138791, Note_on_c, 0, 57, 63
2, 138794, Note_on_c, 0, 87, 64
2, 138894, Note_on_c, 0, 63, 0
2, 138897, Note_on_c, 0, 87, 0
2, 138900, Note_on_c, 0, 53, 0
2, 138900, Note_on_c, 0, 57, 0
2, 138912, Note_on_c, 0, 81, 0
2, 138921, Note_on_c, 0, 82, 65
2, 138927, Note_on_c, 0, 86, 62
2, 139048, Note_on_c, 0, 46, 64
2, 139153, Note_on_c, 0, 46, 0
2, 139169, Note_on_c, 0, 86, 0
2, 139169, Note_on_c, 0, 82, 0
2, 139181, Note_on_c, 0, 58, 65
2, 139196, Note_on_c, 0, 77, 68
2, 139286, Note_on_c, 0, 77, 0
2, 139295, Note_on_c, 0, 58, 0
2, 139302, Note_on_c, 0, 86, 62
2, 139308, Note_on_c, 0, 44, 61
2, 139320, Note_on_c, 0, 89, 66
2, 139416, Note_on_c, 0, 86, 0
2, 139422, Note_on_c, 0, 89, 0
2, 139422, Note_on_c, 0, 44, 0
2, 139438, Note_on_c, 0, 56, 61
2, 139543, Note_on_c, 0, 56, 0
2, 139561, Note_on_c, 0, 94, 70
2, 139571, Note_on_c, 0, 87, 64
2, 139574, Note_on_c, 0, 43, 60
2, 139595, Control_c, 0, 64, 127
2, 139634, Control_c, 0, 64, 0
2, 139673, Note_on_c, 0, 43, 0
2, 139691, Note_on_c, 0, 82, 67
2, 139694, Note_on_c, 0, 87, 0
2, 139694, Note_on_c, 0, 55, 61
2, 139812, Note_on_c, 0, 94, 0
2, 139815, Note_on_c, 0, 55, 0
2, 139821, Note_on_c, 0, 39, 63
2, 139837, Note_on_c, 0, 87, 67
2, 139837, Note_on_c, 0, 91, 65
2, 139885, Note_on_c, 0, 82, 0
2, 139942, Note_on_c, 0, 87, 0
2, 139951, Note_on_c, 0, 39, 0
2, 139951, Note_on_c, 0, 51, 61
2, 139964, Note_on_c, 0, 79, 66
2, 140066, Note_on_c, 0, 51, 0
2, 140066, Note_on_c, 0, 91, 0
2, 140069, Note_on_c, 0, 79, 0
2, 140075, Note_on_c, 0, 38, 61
2, 140087, Note_on_c, 0, 82, 70
2, 140199, Note_on_c, 0, 82, 0
2, 140205, Note_on_c, 0, 50, 60
2, 140208, Note_on_c, 0, 38, 0
2, 140227, Note_on_c, 0, 89, 66
2, 140227, Note_on_c, 0, 86, 63
2, 140329, Note_on_c, 0, 50, 0
2, 140348, Note_on_c, 0, 58, 63
2, 140348, Note_on_c, 0, 53, 60
2, 140354, Note_on_c, 0, 62, 62
2, 140408, Note_on_c, 0, 86, 0
2, 140411, Note_on_c, 0, 89, 0
2, 140459, Note_on_c, 0, 53, 0
2, 140475, Note_on_c, 0, 58, 0
2, 140481, Note_on_c, 0, 62, 0
2, 140599, Note_on_c, 0, 53, 64
2, 140608, Note_on_c, 0, 87, 64
2, 140611, Note_on_c, 0, 84, 64
2, 140614, Note_on_c, 0, 41, 60
2, 140617, Control_c, 0, 64, 127
2, 140689, Control_c, 0, 64, 0
2, 140713, Note_on_c, 0, 41, 0
2, 140713, Note_on_c, 0, 53, 0
2, 140723, Note_on_c, 0, 84, 0
2, 140723, Note_on_c, 0, 87, 0
2, 140732, Note_on_c, 0, 79, 64
2, 140853, Note_on_c, 0, 81, 64
2, 140856, Note_on_c, 0, 79, 0
2, 140856, Note_on_c, 0, 63, 63
2, 140868, Note_on_c, 0, 53, 63
2, 140874, Note_on_c, 0, 87, 65
2, 140874, Note_on_c, 0, 57, 63
2, 140971, Note_on_c, 0, 87, 0
2, 140971, Note_on_c, 0, 63, 0
2, 140974, Note_on_c, 0, 57, 0
2, 140977, Note_on_c, 0, 53, 0
2, 140989, Note_on_c, 0, 81, 0
2, 140995, Note_on_c, 0, 82, 65
2, 141007, Note_on_c, 0, 86, 62
2, 141119, Note_on_c, 0, 58, 65
2, 141125, Note_on_c, 0, 46, 62
2, 141213, Note_on_c, 0, 46, 0
2, 141243, Note_on_c, 0, 58, 0
2, 141243, Note_on_c, 0, 86, 0
2, 141246, Note_on_c, 0, 82, 0
2, 141367, Note_on_c, 0, 70, 65
2, 141385, Note_on_c, 0, 74, 67
2, 141491, Note_on_c, 0, 70, 0
2, 141494, Note_on_c, 0, 74, 0
2, 141494, Note_on_c, 0, 75, 64
2, 141518, Note_on_c, 0, 72, 67
2, 141609, Note_on_c, 0, 75, 0
2, 141612, Note_on_c, 0, 72, 0
2, 141636, Note_on_c, 0, 74, 65
2, 141645, Note_on_c, 0, 77, 64
2, 141651, Control_c, 0, 64, 127
2, 141697, Control_c, 0, 64, 0
2, 141739, Note_on_c, 0, 77, 0
2, 141745, Note_on_c, 0, 74, 0
2, 141872, Note_on_c, 0, 75, 67
2, 141887, Note_on_c, 0, 79, 64
2, 142239, Note_on_c, 0, 75, 0
2, 142242, Note_on_c, 0, 79, 0
2, 142390, Note_on_c, 0, 78, 65
2, 142393, Note_on_c, 0, 75, 67
2, 142508, Note_on_c, 0, 75, 0
2, 142514, Note_on_c, 0, 78, 0
2, 142644, Note_on_c, 0, 75, 65
2, 142659, Note_on_c, 0, 78, 64
2, 142696, Control_c, 0, 64, 127
2, 142762, Note_on_c, 0, 75, 0
2, 142771, Note_on_c, 0, 78, 0
2, 142777, Control_c, 0, 64, 0
2, 142793, Note_on_c, 0, 74, 66
2, 142799, Note_on_c, 0, 77, 64
2, 142892, Note_on_c, 0, 77, 0
2, 142914, Note_on_c, 0, 82, 70
2, 142956, Note_on_c, 0, 82, 0
2, 143044, Note_on_c, 0, 82, 65
2, 143053, Note_on_c, 0, 77, 60
2, 143053, Note_on_c, 0, 86, 60
2, 143086, Note_on_c, 0, 74, 0
2, 143159, Note_on_c, 0, 65, 67
2, 143195, Note_on_c, 0, 82, 0
2, 143223, Note_on_c, 0, 77, 0
2, 143226, Note_on_c, 0, 86, 0
2, 143268, Note_on_c, 0, 65, 0
2, 143286, Note_on_c, 0, 82, 70
2, 143289, Note_on_c, 0, 74, 67
2, 143389, Note_on_c, 0, 82, 0
2, 143410, Note_on_c, 0, 53, 64
2, 143413, Note_on_c, 0, 74, 0
2, 143416, Note_on_c, 0, 65, 53
2, 143419, Note_on_c, 0, 81, 57
2, 143423, Note_on_c, 0, 75, 59
2, 143432, Note_on_c, 0, 84, 55
2, 143522, Note_on_c, 0, 53, 0
2, 143535, Note_on_c, 0, 75, 0
2, 143538, Note_on_c, 0, 84, 0
2, 143538, Note_on_c, 0, 81, 0
2, 143541, Note_on_c, 0, 65, 0
2, 143659, Note_on_c, 0, 65, 64
2, 143683, Note_on_c, 0, 58, 64
2, 143686, Note_on_c, 0, 82, 64
2, 143692, Note_on_c, 0, 74, 64
2, 143722, Control_c, 0, 64, 127
2, 143789, Note_on_c, 0, 82, 0
2, 143792, Note_on_c, 0, 65, 0
2, 143795, Note_on_c, 0, 58, 0
2, 143798, Note_on_c, 0, 74, 0
2, 143804, Control_c, 0, 64, 0
2, 143941, Note_on_c, 0, 74, 69
2, 143947, Note_on_c, 0, 77, 67
2, 144056, Note_on_c, 0, 77, 0
2, 144062, Note_on_c, 0, 74, 0
2, 144062, Note_on_c, 0, 82, 67
2, 144180, Note_on_c, 0, 82, 0
2, 144204, Note_on_c, 0, 70, 67
2, 144204, Note_on_c, 0, 74, 67
2, 144310, Note_on_c, 0, 70, 0
2, 144313, Note_on_c, 0, 74, 0
2, 144335, Note_on_c, 0, 77, 68
2, 144438, Note_on_c, 0, 77, 0
2, 144441, Note_on_c, 0, 65, 64
2, 144462, Note_on_c, 0, 70, 66
2, 144571, Note_on_c, 0, 65, 0
2, 144574, Note_on_c, 0, 70, 0
2, 144589, Note_on_c, 0, 74, 71
2, 144698, Note_on_c, 0, 74, 0
2, 144707, Note_on_c, 0, 65, 65
2, 144719, Note_on_c, 0, 62, 65
2, 144732, Control_c, 0, 64, 127
2, 144795, Control_c, 0, 64, 0
2, 144826, Note_on_c, 0, 65, 0
2, 144829, Note_on_c, 0, 62, 0
2, 144953, Note_on_c, 0, 65, 68
2, 144962, Note_on_c, 0, 62, 68
2, 145077, Note_on_c, 0, 62, 0
2, 145086, Note_on_c, 0, 65, 0
2, 145092, Note_on_c, 0, 61, 62
2, 145101, Note_on_c, 0, 64, 60
2, 145208, Note_on_c, 0, 65, 69
2, 145214, Note_on_c, 0, 61, 0
2, 145217, Note_on_c, 0, 64, 0
2, 145238, Note_on_c, 0, 62, 65
2, 145350, Note_on_c, 0, 65, 0
2, 145353, Note_on_c, 0, 62, 0
2, 145483, Note_on_c, 0, 58, 65
2, 145493, Note_on_c, 0, 62, 64
2, 145596, Note_on_c, 0, 58, 0
2, 145602, Note_on_c, 0, 62, 0
2, 145617, Note_on_c, 0, 63, 64
2, 145620, Note_on_c, 0, 60, 62
2, 145717, Note_on_c, 0, 63, 0
2, 145723, Note_on_c, 0, 60, 0
2, 145735, Note_on_c, 0, 65, 67
2, 145741, Note_on_c, 0, 62, 65
2, 145778, Control_c, 0, 64, 127
2, 145850, Control_c, 0, 64, 0
2, 145857, Note_on_c, 0, 62, 0
2, 145929, Note_on_c, 0, 65, 0
2, 145990, Note_on_c, 0, 63, 67
2, 145993, Note_on_c, 0, 67, 69
2, 146369, Note_on_c, 0, 63, 0
2, 146372, Note_on_c, 0, 67, 0
2, 146515, Note_on_c, 0, 63, 66
2, 146518, Note_on_c, 0, 66, 69
2, 146621, Note_on_c, 0, 63, 0
2, 146673, Note_on_c, 0, 66, 0
2, 146761, Note_on_c, 0, 63, 66
2, 146767, Note_on_c, 0, 66, 69
2, 146788, Control_c, 0, 64, 127
2, 146852, Control_c, 0, 64, 0
2, 146876, Note_on_c, 0, 63, 0
2, 146891, Note_on_c, 0, 65, 65
2, 146897, Note_on_c, 0, 66, 0
2, 146900, Note_on_c, 0, 62, 65
2, 147022, Note_on_c, 0, 65, 0
2, 147037, Note_on_c, 0, 70, 71
2, 147076, Note_on_c, 0, 70, 0
2, 147137, Note_on_c, 0, 65, 63
2, 147164, Note_on_c, 0, 74, 66
2, 147164, Note_on_c, 0, 70, 65
2, 147213, Note_on_c, 0, 62, 0
2, 147283, Note_on_c, 0, 53, 64
2, 147316, Note_on_c, 0, 70, 0
2, 147331, Note_on_c, 0, 65, 0
2, 147334, Note_on_c, 0, 74, 0
2, 147389, Note_on_c, 0, 53, 0
2, 147410, Note_on_c, 0, 70, 71
2, 147410, Note_on_c, 0, 62, 67
2, 147513, Note_on_c, 0, 70, 0
2, 147516, Note_on_c, 0, 62, 0
2, 147532, Note_on_c, 0, 63, 63
2, 147532, Note_on_c, 0, 53, 61
2, 147535, Note_on_c, 0, 69, 64
2, 147544, Note_on_c, 0, 72, 67
2, 147547, Note_on_c, 0, 41, 57
2, 147629, Note_on_c, 0, 72, 0
2, 147635, Note_on_c, 0, 53, 0
2, 147635, Note_on_c, 0, 63, 0
2, 147641, Note_on_c, 0, 41, 0
2, 147653, Note_on_c, 0, 69, 0
2, 147784, Note_on_c, 0, 70, 69
2, 147787, Note_on_c, 0, 53, 61
2, 147799, Note_on_c, 0, 46, 59
2, 147805, Note_on_c, 0, 58, 60
2, 147826, Control_c, 0, 64, 127
2, 147896, Note_on_c, 0, 46, 0
2, 147896, Note_on_c, 0, 53, 0
2, 147911, Note_on_c, 0, 70, 0
2, 147911, Note_on_c, 0, 58, 0
2, 147917, Control_c, 0, 64, 0
2, 148033, Note_on_c, 0, 68, 63
2, 148057, Note_on_c, 0, 70, 62
2, 148069, Note_on_c, 0, 77, 64
2, 148157, Note_on_c, 0, 77, 0
2, 148160, Note_on_c, 0, 70, 0
2, 148160, Note_on_c, 0, 68, 0
2, 148178, Note_on_c, 0, 82, 69
2, 148282, Note_on_c, 0, 82, 0
2, 148312, Note_on_c, 0, 70, 60
2, 148315, Note_on_c, 0, 67, 60
2, 148321, Note_on_c, 0, 76, 61
2, 148415, Note_on_c, 0, 76, 0
2, 148418, Note_on_c, 0, 70, 0
2, 148431, Note_on_c, 0, 67, 0
2, 148434, Note_on_c, 0, 82, 68
2, 148561, Note_on_c, 0, 82, 0
2, 148564, Note_on_c, 0, 66, 60
2, 148570, Note_on_c, 0, 75, 62
2, 148582, Note_on_c, 0, 70, 63
2, 148680, Note_on_c, 0, 75, 0
2, 148686, Note_on_c, 0, 70, 0
2, 148686, Note_on_c, 0, 66, 0
2, 148698, Note_on_c, 0, 82, 69
2, 148743, Note_on_c, 0, 82, 0
2, 148810, Note_on_c, 0, 65, 54
2, 148832, Note_on_c, 0, 70, 56
2, 148838, Note_on_c, 0, 82, 59
2, 148841, Note_on_c, 0, 74, 55
2, 148856, Note_on_c, 0, 77, 52
2, 148911, Control_c, 0, 64, 127
2, 148929, Note_on_c, 0, 77, 0
2, 148929, Note_on_c, 0, 82, 0
2, 148932, Note_on_c, 0, 65, 0
2, 148938, Note_on_c, 0, 70, 0
2, 148938, Note_on_c, 0, 74, 0
2, 149011, Control_c, 0, 64, 0
2, 149141, Note_on_c, 0, 41, 62
2, 149214, Note_on_c, 0, 43, 61
2, 149248, Note_on_c, 0, 41, 0
2, 149269, Note_on_c, 0, 45, 60
2, 149309, Note_on_c, 0, 43, 0
2, 149333, Note_on_c, 0, 94, 64
2, 149339, Note_on_c, 0, 82, 60
2, 149342, Note_on_c, 0, 46, 60
2, 149348, Note_on_c, 0, 89, 59
2, 149351, Note_on_c, 0, 86, 55
2, 149378, Note_on_c, 0, 45, 0
2, 149382, Note_on_c, 0, 34, 49
2, 149436, Note_on_c, 0, 94, 0
2, 149439, Note_on_c, 0, 46, 0
2, 149448, Note_on_c, 0, 34, 0
2, 149454, Note_on_c, 0, 82, 0
2, 149454, Note_on_c, 0, 86, 0
2, 149461, Note_on_c, 0, 89, 0
2, 149461, End_track
3, 0, Start_track
3, 1, Copyright_t, "___________________________________________________\012\012KUNSTDERFUGE.COM LARGE CLASSICAL MIDI COLLECTION\012ONCLASSICAL BY ALESSANDRO SIMONETTO, PROPRIETOR\012___________________________________________________\012\012! Attention: this file is under copyright !\012\012(c)onclassical, (nc)smythe, 2010\012___________________________________________________\012\012NO ONE MAY REPUBLISH THIS FILE WITHOUT PERMISSION\012COMMERCIAL USES OF THIS FILE IS STRICTLY PROHIBITED\012___________________________________________________\012\012Files & contributor's list: http://kunstderfuge.com/\012Terms and conditions: http://kunstderfuge.com/notes.htm"
3, 1, End_track
0, 0, End_of_file
