0, 0, Header, 1, 3, 192
1, 0, Start_track
1, 0, Title_t, "Ampico player piano roll #Roll Number 217003a, Composed and played by Scott Joplin "
1, 0, Text_t, "Roll expression tracks converted to MIDI velocities\012"
1, 0, Time_signature, 4, 2, 24, 8
1, 0, Key_signature, 0, "major"
1, 0, Tempo, 500000
1, 0, Marker_t, "Standard MIDI:LPI 235:Tempo  75: 03-27-2003"
1, 0, End_track
2, 0, Start_track
2, 0, Title_t, ""
2, 742, Control_c, 0, 64, 127
2, 1190, Note_on_c, 0, 53, 70
2, 1190, Note_on_c, 0, 65, 69
2, 1228, Control_c, 0, 64, 0
2, 1310, Note_on_c, 0, 64, 69
2, 1311, Note_on_c, 0, 52, 67
2, 1313, Note_on_c, 0, 53, 0
2, 1328, Note_on_c, 0, 65, 0
2, 1576, Note_on_c, 0, 63, 65
2, 1577, Note_on_c, 0, 51, 71
2, 1580, Note_on_c, 0, 64, 0
2, 1580, Note_on_c, 0, 52, 0
2, 1677, Control_c, 0, 64, 127
2, 2101, Control_c, 0, 64, 0
2, 2182, Note_on_c, 0, 53, 53
2, 2182, Note_on_c, 0, 65, 56
2, 2200, Note_on_c, 0, 63, 0
2, 2200, Note_on_c, 0, 51, 0
2, 2280, Note_on_c, 0, 53, 0
2, 2298, Note_on_c, 0, 65, 0
2, 2312, Note_on_c, 0, 51, 59
2, 2313, Note_on_c, 0, 63, 53
2, 2532, Note_on_c, 0, 63, 0
2, 2546, Note_on_c, 0, 50, 55
2, 2546, Note_on_c, 0, 62, 57
2, 2548, Note_on_c, 0, 51, 0
2, 2582, Control_c, 0, 64, 127
2, 2874, Control_c, 0, 67, 127
2, 2924, Control_c, 0, 67, 0
2, 3017, Control_c, 0, 64, 0
2, 3120, Note_on_c, 0, 62, 0
2, 3136, Note_on_c, 0, 50, 0
2, 3167, Note_on_c, 0, 53, 68
2, 3167, Note_on_c, 0, 65, 61
2, 3287, Note_on_c, 0, 65, 0
2, 3288, Note_on_c, 0, 53, 0
2, 3302, Note_on_c, 0, 66, 61
2, 3303, Note_on_c, 0, 54, 67
2, 3384, Note_on_c, 0, 66, 0
2, 3385, Note_on_c, 0, 54, 0
2, 3399, Note_on_c, 0, 55, 69
2, 3399, Note_on_c, 0, 67, 66
2, 3519, Note_on_c, 0, 67, 0
2, 3519, Note_on_c, 0, 55, 0
2, 3551, Note_on_c, 0, 56, 70
2, 3551, Note_on_c, 0, 68, 66
2, 3750, Note_on_c, 0, 68, 0
2, 3750, Note_on_c, 0, 56, 0
2, 3781, Note_on_c, 0, 57, 65
2, 3781, Note_on_c, 0, 69, 66
2, 3884, Note_on_c, 0, 69, 0
2, 3884, Note_on_c, 0, 57, 0
2, 3899, Note_on_c, 0, 58, 72
2, 3899, Note_on_c, 0, 70, 62
2, 4000, Note_on_c, 0, 58, 0
2, 4001, Note_on_c, 0, 70, 0
2, 4015, Note_on_c, 0, 59, 69
2, 4015, Note_on_c, 0, 71, 61
2, 4119, Note_on_c, 0, 59, 0
2, 4134, Note_on_c, 0, 60, 71
2, 4135, Note_on_c, 0, 72, 64
2, 4137, Note_on_c, 0, 71, 0
2, 4202, Note_on_c, 0, 72, 0
2, 4202, Note_on_c, 0, 60, 0
2, 4376, Control_c, 0, 64, 127
2, 4394, Note_on_c, 0, 41, 61
2, 4394, Note_on_c, 0, 65, 60
2, 4394, Note_on_c, 0, 72, 60
2, 4395, Note_on_c, 0, 69, 64
2, 4395, Note_on_c, 0, 77, 62
2, 4411, Note_on_c, 0, 53, 62
2, 4464, Control_c, 0, 64, 0
2, 4517, Note_on_c, 0, 53, 0
2, 4517, Note_on_c, 0, 65, 0
2, 4517, Note_on_c, 0, 41, 0
2, 4517, Note_on_c, 0, 72, 0
2, 4518, Note_on_c, 0, 69, 0
2, 4518, Note_on_c, 0, 77, 0
2, 4667, Note_on_c, 0, 46, 59
2, 4667, Note_on_c, 0, 62, 62
2, 4739, Note_on_c, 0, 70, 66
2, 4809, Note_on_c, 0, 58, 55
2, 4810, Note_on_c, 0, 53, 59
2, 4810, Note_on_c, 0, 67, 62
2, 4830, Note_on_c, 0, 70, 0
2, 4880, Note_on_c, 0, 65, 66
2, 4883, Note_on_c, 0, 62, 0
2, 4883, Note_on_c, 0, 58, 0
2, 4883, Note_on_c, 0, 46, 0
2, 4883, Note_on_c, 0, 67, 0
2, 4884, Note_on_c, 0, 53, 0
2, 4949, Note_on_c, 0, 48, 64
2, 4949, Note_on_c, 0, 63, 66
2, 4984, Note_on_c, 0, 65, 0
2, 5016, Note_on_c, 0, 72, 59
2, 5085, Note_on_c, 0, 57, 57
2, 5086, Note_on_c, 0, 53, 60
2, 5103, Note_on_c, 0, 72, 0
2, 5155, Note_on_c, 0, 73, 65
2, 5156, Note_on_c, 0, 57, 0
2, 5156, Note_on_c, 0, 53, 0
2, 5156, Note_on_c, 0, 63, 0
2, 5174, Note_on_c, 0, 48, 0
2, 5222, Note_on_c, 0, 46, 64
2, 5222, Note_on_c, 0, 62, 63
2, 5223, Note_on_c, 0, 74, 61
2, 5243, Note_on_c, 0, 73, 0
2, 5288, Note_on_c, 0, 65, 67
2, 5308, Note_on_c, 0, 46, 0
2, 5309, Note_on_c, 0, 74, 0
2, 5357, Note_on_c, 0, 53, 55
2, 5357, Note_on_c, 0, 58, 56
2, 5358, Note_on_c, 0, 70, 60
2, 5359, Note_on_c, 0, 62, 0
2, 5376, Note_on_c, 0, 65, 0
2, 5427, Note_on_c, 0, 62, 64
2, 5428, Note_on_c, 0, 58, 0
2, 5428, Note_on_c, 0, 53, 0
2, 5429, Note_on_c, 0, 70, 0
2, 5495, Note_on_c, 0, 46, 64
2, 5495, Note_on_c, 0, 67, 63
2, 5496, Note_on_c, 0, 61, 62
2, 5513, Note_on_c, 0, 62, 0
2, 5559, Note_on_c, 0, 65, 65
2, 5560, Note_on_c, 0, 62, 56
2, 5561, Note_on_c, 0, 67, 0
2, 5562, Note_on_c, 0, 61, 0
2, 5578, Note_on_c, 0, 46, 0
2, 5626, Note_on_c, 0, 53, 41
2, 5626, Note_on_c, 0, 58, 42
2, 5679, Note_on_c, 0, 58, 0
2, 5679, Note_on_c, 0, 62, 0
2, 5679, Note_on_c, 0, 65, 0
2, 5679, Note_on_c, 0, 53, 0
2, 5712, Control_c, 0, 64, 127
2, 5762, Note_on_c, 0, 45, 47
2, 5762, Note_on_c, 0, 63, 51
2, 5762, Note_on_c, 0, 65, 64
2, 5780, Note_on_c, 0, 65, 0
2, 5780, Note_on_c, 0, 63, 0
2, 5830, Note_on_c, 0, 63, 53
2, 5830, Note_on_c, 0, 65, 60
2, 5832, Note_on_c, 0, 45, 0
2, 5865, Control_c, 0, 64, 0
2, 5894, Note_on_c, 0, 57, 56
2, 5895, Note_on_c, 0, 53, 55
2, 5896, Note_on_c, 0, 65, 0
2, 5897, Note_on_c, 0, 63, 0
2, 5962, Note_on_c, 0, 63, 66
2, 5962, Note_on_c, 0, 65, 63
2, 5964, Note_on_c, 0, 57, 0
2, 5964, Note_on_c, 0, 53, 0
2, 6032, Note_on_c, 0, 41, 63
2, 6101, Note_on_c, 0, 67, 63
2, 6103, Note_on_c, 0, 65, 0
2, 6104, Note_on_c, 0, 63, 0
2, 6104, Note_on_c, 0, 41, 0
2, 6168, Note_on_c, 0, 57, 54
2, 6168, Note_on_c, 0, 63, 58
2, 6168, Note_on_c, 0, 65, 61
2, 6170, Note_on_c, 0, 67, 0
2, 6185, Note_on_c, 0, 53, 54
2, 6237, Note_on_c, 0, 57, 0
2, 6237, Note_on_c, 0, 65, 0
2, 6238, Note_on_c, 0, 63, 0
2, 6238, Note_on_c, 0, 53, 0
2, 6286, Control_c, 0, 64, 127
2, 6301, Note_on_c, 0, 65, 61
2, 6302, Note_on_c, 0, 46, 64
2, 6302, Note_on_c, 0, 62, 61
2, 6317, Note_on_c, 0, 65, 0
2, 6317, Control_c, 0, 67, 127
2, 6318, Note_on_c, 0, 62, 0
2, 6369, Note_on_c, 0, 62, 61
2, 6369, Note_on_c, 0, 65, 65
2, 6387, Note_on_c, 0, 46, 0
2, 6388, Control_c, 0, 64, 0
2, 6429, Note_on_c, 0, 58, 54
2, 6430, Note_on_c, 0, 53, 56
2, 6432, Note_on_c, 0, 65, 0
2, 6432, Note_on_c, 0, 62, 0
2, 6494, Note_on_c, 0, 65, 60
2, 6495, Note_on_c, 0, 62, 45
2, 6498, Note_on_c, 0, 58, 0
2, 6498, Note_on_c, 0, 53, 0
2, 6560, Note_on_c, 0, 41, 69
2, 6578, Note_on_c, 0, 65, 0
2, 6578, Note_on_c, 0, 62, 0
2, 6634, Note_on_c, 0, 41, 0
2, 6634, Note_on_c, 0, 67, 63
2, 6704, Note_on_c, 0, 53, 53
2, 6704, Note_on_c, 0, 58, 58
2, 6704, Note_on_c, 0, 62, 56
2, 6704, Note_on_c, 0, 65, 66
2, 6706, Note_on_c, 0, 67, 0
2, 6754, Control_c, 0, 67, 0
2, 6769, Note_on_c, 0, 62, 0
2, 6769, Note_on_c, 0, 65, 0
2, 6769, Note_on_c, 0, 58, 0
2, 6770, Note_on_c, 0, 53, 0
2, 6831, Note_on_c, 0, 46, 62
2, 6831, Note_on_c, 0, 50, 60
2, 6831, Note_on_c, 0, 62, 66
2, 6899, Note_on_c, 0, 70, 60
2, 6967, Note_on_c, 0, 53, 53
2, 6967, Note_on_c, 0, 58, 55
2, 6967, Note_on_c, 0, 67, 63
2, 6968, Note_on_c, 0, 70, 0
2, 7030, Note_on_c, 0, 65, 63
2, 7032, Note_on_c, 0, 50, 0
2, 7032, Note_on_c, 0, 58, 0
2, 7033, Note_on_c, 0, 67, 0
2, 7049, Note_on_c, 0, 53, 0
2, 7065, Note_on_c, 0, 62, 0
2, 7081, Note_on_c, 0, 46, 0
2, 7095, Note_on_c, 0, 48, 61
2, 7095, Note_on_c, 0, 51, 62
2, 7095, Note_on_c, 0, 63, 62
2, 7098, Note_on_c, 0, 65, 0
2, 7159, Note_on_c, 0, 72, 60
2, 7226, Note_on_c, 0, 57, 57
2, 7227, Note_on_c, 0, 53, 58
2, 7229, Note_on_c, 0, 72, 0
2, 7296, Note_on_c, 0, 73, 66
2, 7297, Note_on_c, 0, 57, 0
2, 7298, Note_on_c, 0, 53, 0
2, 7331, Note_on_c, 0, 63, 0
2, 7348, Note_on_c, 0, 48, 0
2, 7348, Note_on_c, 0, 51, 0
2, 7363, Note_on_c, 0, 46, 67
2, 7363, Note_on_c, 0, 50, 69
2, 7363, Note_on_c, 0, 62, 64
2, 7364, Note_on_c, 0, 74, 64
2, 7366, Note_on_c, 0, 73, 0
2, 7428, Note_on_c, 0, 65, 62
2, 7433, Note_on_c, 0, 46, 0
2, 7433, Note_on_c, 0, 74, 0
2, 7502, Note_on_c, 0, 62, 0
2, 7503, Note_on_c, 0, 65, 0
2, 7505, Note_on_c, 0, 53, 66
2, 7505, Note_on_c, 0, 58, 62
2, 7505, Note_on_c, 0, 70, 60
2, 7521, Note_on_c, 0, 62, 64
2, 7575, Note_on_c, 0, 74, 64
2, 7577, Note_on_c, 0, 70, 0
2, 7577, Note_on_c, 0, 58, 0
2, 7594, Note_on_c, 0, 53, 0
2, 7611, Note_on_c, 0, 50, 0
2, 7627, Note_on_c, 0, 62, 0
2, 7641, Note_on_c, 0, 46, 66
2, 7642, Note_on_c, 0, 58, 59
2, 7642, Note_on_c, 0, 79, 59
2, 7708, Note_on_c, 0, 82, 65
2, 7710, Note_on_c, 0, 79, 0
2, 7710, Note_on_c, 0, 58, 0
2, 7711, Note_on_c, 0, 46, 0
2, 7778, Note_on_c, 0, 43, 59
2, 7778, Note_on_c, 0, 55, 60
2, 7871, Note_on_c, 0, 43, 0
2, 7887, Control_c, 0, 64, 127
2, 7888, Note_on_c, 0, 55, 0
2, 7888, Note_on_c, 0, 82, 0
2, 7905, Note_on_c, 0, 74, 0
2, 7920, Note_on_c, 0, 81, 60
2, 7920, Note_on_c, 0, 42, 62
2, 7920, Note_on_c, 0, 54, 64
2, 7990, Note_on_c, 0, 84, 65
2, 7992, Note_on_c, 0, 54, 0
2, 7992, Note_on_c, 0, 42, 0
2, 8009, Note_on_c, 0, 81, 0
2, 8058, Note_on_c, 0, 60, 60
2, 8058, Note_on_c, 0, 62, 65
2, 8059, Note_on_c, 0, 86, 65
2, 8077, Note_on_c, 0, 84, 0
2, 8130, Note_on_c, 0, 87, 62
2, 8131, Note_on_c, 0, 60, 0
2, 8131, Note_on_c, 0, 62, 0
2, 8131, Note_on_c, 0, 78, 66
2, 8132, Note_on_c, 0, 86, 0
2, 8150, Control_c, 0, 64, 0
2, 8203, Note_on_c, 0, 38, 64
2, 8203, Note_on_c, 0, 50, 62
2, 8224, Note_on_c, 0, 87, 0
2, 8272, Note_on_c, 0, 86, 61
2, 8275, Note_on_c, 0, 78, 0
2, 8275, Note_on_c, 0, 50, 0
2, 8291, Note_on_c, 0, 38, 0
2, 8340, Note_on_c, 0, 60, 59
2, 8340, Note_on_c, 0, 78, 64
2, 8341, Note_on_c, 0, 62, 61
2, 8343, Note_on_c, 0, 86, 0
2, 8357, Note_on_c, 0, 81, 60
2, 8413, Note_on_c, 0, 60, 0
2, 8413, Note_on_c, 0, 62, 0
2, 8414, Note_on_c, 0, 78, 0
2, 8414, Note_on_c, 0, 81, 0
2, 8485, Note_on_c, 0, 43, 80
2, 8485, Note_on_c, 0, 55, 84
2, 8485, Note_on_c, 0, 79, 72
2, 8485, Note_on_c, 0, 84, 74
2, 8502, Control_c, 0, 67, 127
2, 8554, Note_on_c, 0, 82, 62
2, 8556, Note_on_c, 0, 55, 0
2, 8557, Note_on_c, 0, 84, 0
2, 8557, Note_on_c, 0, 43, 0
2, 8574, Control_c, 0, 67, 0
2, 8618, Note_on_c, 0, 62, 45
2, 8621, Note_on_c, 0, 55, 48
2, 8624, Note_on_c, 0, 82, 0
2, 8688, Note_on_c, 0, 82, 66
2, 8689, Note_on_c, 0, 62, 0
2, 8722, Note_on_c, 0, 55, 0
2, 8753, Note_on_c, 0, 38, 46
2, 8753, Note_on_c, 0, 50, 41
2, 8810, Note_on_c, 0, 79, 0
2, 8810, Note_on_c, 0, 82, 0
2, 8828, Note_on_c, 0, 38, 0
2, 8828, Note_on_c, 0, 50, 0
2, 8897, Note_on_c, 0, 55, 42
2, 8897, Note_on_c, 0, 62, 43
2, 8967, Note_on_c, 0, 82, 65
2, 8968, Note_on_c, 0, 75, 59
2, 8969, Note_on_c, 0, 62, 0
2, 8969, Note_on_c, 0, 55, 0
2, 9039, Note_on_c, 0, 55, 47
2, 9040, Note_on_c, 0, 43, 43
2, 9096, Note_on_c, 0, 75, 0
2, 9103, Note_on_c, 0, 70, 65
2, 9111, Note_on_c, 0, 41, 46
2, 9111, Note_on_c, 0, 53, 48
2, 9112, Note_on_c, 0, 55, 0
2, 9113, Note_on_c, 0, 43, 0
2, 9167, Note_on_c, 0, 82, 0
2, 9181, Note_on_c, 0, 39, 48
2, 9181, Note_on_c, 0, 51, 47
2, 9181, Note_on_c, 0, 75, 64
2, 9181, Note_on_c, 0, 79, 62
2, 9183, Note_on_c, 0, 70, 0
2, 9183, Note_on_c, 0, 53, 0
2, 9183, Note_on_c, 0, 41, 0
2, 9249, Note_on_c, 0, 67, 63
2, 9251, Note_on_c, 0, 39, 0
2, 9252, Note_on_c, 0, 75, 0
2, 9303, Note_on_c, 0, 51, 0
2, 9318, Note_on_c, 0, 38, 46
2, 9318, Note_on_c, 0, 50, 47
2, 9319, Note_on_c, 0, 70, 62
2, 9321, Note_on_c, 0, 67, 0
2, 9321, Note_on_c, 0, 79, 0
2, 9391, Note_on_c, 0, 74, 61
2, 9391, Note_on_c, 0, 77, 61
2, 9393, Note_on_c, 0, 50, 0
2, 9393, Note_on_c, 0, 70, 0
2, 9393, Note_on_c, 0, 38, 0
2, 9466, Note_on_c, 0, 53, 42
2, 9466, Note_on_c, 0, 58, 48
2, 9466, Note_on_c, 0, 62, 45
2, 9504, Note_on_c, 0, 74, 0
2, 9504, Note_on_c, 0, 77, 0
2, 9534, Note_on_c, 0, 65, 65
2, 9537, Note_on_c, 0, 58, 0
2, 9537, Note_on_c, 0, 62, 0
2, 9537, Note_on_c, 0, 53, 0
2, 9604, Note_on_c, 0, 53, 44
2, 9604, Note_on_c, 0, 72, 66
2, 9605, Note_on_c, 0, 41, 44
2, 9605, Note_on_c, 0, 75, 62
2, 9607, Note_on_c, 0, 65, 0
2, 9675, Note_on_c, 0, 67, 61
2, 9676, Note_on_c, 0, 41, 0
2, 9676, Note_on_c, 0, 72, 0
2, 9677, Note_on_c, 0, 53, 0
2, 9677, Note_on_c, 0, 75, 0
2, 9739, Note_on_c, 0, 63, 46
2, 9747, Note_on_c, 0, 57, 44
2, 9749, Note_on_c, 0, 53, 47
2, 9750, Note_on_c, 0, 67, 0
2, 9750, Note_on_c, 0, 69, 62
2, 9750, Note_on_c, 0, 75, 59
2, 9818, Note_on_c, 0, 74, 62
2, 9819, Note_on_c, 0, 70, 61
2, 9821, Note_on_c, 0, 69, 0
2, 9821, Note_on_c, 0, 63, 0
2, 9821, Note_on_c, 0, 53, 0
2, 9821, Note_on_c, 0, 57, 0
2, 9822, Note_on_c, 0, 75, 0
2, 9888, Note_on_c, 0, 46, 48
2, 9923, Note_on_c, 0, 70, 0
2, 9924, Note_on_c, 0, 74, 0
2, 9955, Note_on_c, 0, 65, 59
2, 9956, Note_on_c, 0, 58, 48
2, 9957, Note_on_c, 0, 46, 0
2, 10025, Note_on_c, 0, 44, 45
2, 10025, Note_on_c, 0, 74, 66
2, 10025, Note_on_c, 0, 77, 63
2, 10027, Note_on_c, 0, 65, 0
2, 10028, Note_on_c, 0, 58, 0
2, 10096, Note_on_c, 0, 44, 0
2, 10097, Note_on_c, 0, 74, 0
2, 10097, Note_on_c, 0, 77, 0
2, 10097, Note_on_c, 0, 56, 44
2, 10147, Control_c, 0, 64, 127
2, 10163, Note_on_c, 0, 75, 44
2, 10163, Note_on_c, 0, 82, 44
2, 10164, Note_on_c, 0, 43, 63
2, 10165, Note_on_c, 0, 56, 0
2, 10226, Note_on_c, 0, 55, 63
2, 10226, Control_c, 0, 67, 127
2, 10228, Note_on_c, 0, 70, 66
2, 10246, Note_on_c, 0, 75, 0
2, 10262, Note_on_c, 0, 43, 0
2, 10278, Control_c, 0, 64, 0
2, 10291, Note_on_c, 0, 79, 65
2, 10293, Note_on_c, 0, 39, 64
2, 10294, Note_on_c, 0, 75, 72
2, 10312, Note_on_c, 0, 70, 0
2, 10312, Note_on_c, 0, 82, 0
2, 10346, Note_on_c, 0, 55, 0
2, 10347, Note_on_c, 0, 75, 0
2, 10363, Note_on_c, 0, 51, 62
2, 10363, Note_on_c, 0, 67, 71
2, 10380, Note_on_c, 0, 39, 0
2, 10428, Note_on_c, 0, 38, 62
2, 10428, Note_on_c, 0, 70, 66
2, 10430, Note_on_c, 0, 79, 0
2, 10430, Note_on_c, 0, 67, 0
2, 10477, Note_on_c, 0, 51, 0
2, 10489, Note_on_c, 0, 74, 69
2, 10490, Note_on_c, 0, 50, 59
2, 10490, Note_on_c, 0, 77, 66
2, 10508, Note_on_c, 0, 38, 0
2, 10508, Note_on_c, 0, 70, 0
2, 10524, Control_c, 0, 67, 0
2, 10539, Note_on_c, 0, 50, 0
2, 10554, Note_on_c, 0, 53, 66
2, 10554, Note_on_c, 0, 58, 62
2, 10554, Note_on_c, 0, 62, 59
2, 10607, Note_on_c, 0, 74, 0
2, 10608, Note_on_c, 0, 77, 0
2, 10621, Note_on_c, 0, 65, 71
2, 10624, Note_on_c, 0, 58, 0
2, 10640, Note_on_c, 0, 62, 0
2, 10641, Note_on_c, 0, 53, 0
2, 10691, Note_on_c, 0, 72, 59
2, 10692, Note_on_c, 0, 41, 59
2, 10692, Note_on_c, 0, 75, 60
2, 10693, Note_on_c, 0, 53, 62
2, 10728, Note_on_c, 0, 65, 0
2, 10757, Note_on_c, 0, 67, 66
2, 10762, Note_on_c, 0, 75, 0
2, 10777, Note_on_c, 0, 72, 0
2, 10777, Note_on_c, 0, 41, 0
2, 10778, Note_on_c, 0, 53, 0
2, 10824, Note_on_c, 0, 53, 55
2, 10824, Note_on_c, 0, 57, 53
2, 10824, Note_on_c, 0, 63, 59
2, 10824, Note_on_c, 0, 69, 65
2, 10824, Note_on_c, 0, 75, 65
2, 10826, Note_on_c, 0, 67, 0
2, 10893, Note_on_c, 0, 70, 68
2, 10893, Note_on_c, 0, 74, 69
2, 10895, Note_on_c, 0, 57, 0
2, 10895, Note_on_c, 0, 69, 0
2, 10895, Note_on_c, 0, 53, 0
2, 10895, Note_on_c, 0, 63, 0
2, 10895, Note_on_c, 0, 75, 0
2, 10963, Note_on_c, 0, 58, 57
2, 10964, Note_on_c, 0, 46, 55
2, 11016, Note_on_c, 0, 46, 0
2, 11016, Note_on_c, 0, 58, 0
2, 11100, Note_on_c, 0, 41, 57
2, 11100, Note_on_c, 0, 53, 53
2, 11133, Control_c, 0, 64, 127
2, 11136, Note_on_c, 0, 70, 0
2, 11153, Note_on_c, 0, 74, 0
2, 11167, Note_on_c, 0, 82, 72
2, 11169, Note_on_c, 0, 75, 72
2, 11188, Note_on_c, 0, 53, 0
2, 11189, Note_on_c, 0, 41, 0
2, 11241, Note_on_c, 0, 43, 62
2, 11241, Note_on_c, 0, 55, 65
2, 11243, Control_c, 0, 64, 0
2, 11312, Note_on_c, 0, 55, 0
2, 11312, Note_on_c, 0, 82, 0
2, 11312, Note_on_c, 0, 41, 66
2, 11314, Note_on_c, 0, 43, 0
2, 11328, Note_on_c, 0, 53, 59
2, 11328, Note_on_c, 0, 70, 61
2, 11330, Note_on_c, 0, 75, 0
2, 11378, Note_on_c, 0, 75, 59
2, 11378, Note_on_c, 0, 79, 59
2, 11379, Note_on_c, 0, 39, 61
2, 11379, Note_on_c, 0, 51, 62
2, 11381, Note_on_c, 0, 70, 0
2, 11382, Note_on_c, 0, 53, 0
2, 11399, Note_on_c, 0, 41, 0
2, 11433, Note_on_c, 0, 39, 0
2, 11446, Note_on_c, 0, 67, 61
2, 11448, Note_on_c, 0, 51, 0
2, 11449, Note_on_c, 0, 75, 0
2, 11518, Note_on_c, 0, 38, 65
2, 11518, Note_on_c, 0, 70, 62
2, 11519, Note_on_c, 0, 79, 0
2, 11519, Note_on_c, 0, 50, 64
2, 11538, Note_on_c, 0, 67, 0
2, 11592, Note_on_c, 0, 77, 66
2, 11592, Note_on_c, 0, 74, 64
2, 11613, Note_on_c, 0, 70, 0
2, 11613, Note_on_c, 0, 50, 0
2, 11632, Note_on_c, 0, 38, 0
2, 11666, Note_on_c, 0, 58, 64
2, 11667, Note_on_c, 0, 53, 62
2, 11667, Note_on_c, 0, 62, 66
2, 11704, Note_on_c, 0, 77, 0
2, 11720, Note_on_c, 0, 74, 0
2, 11735, Note_on_c, 0, 65, 66
2, 11737, Note_on_c, 0, 58, 0
2, 11754, Note_on_c, 0, 62, 0
2, 11754, Note_on_c, 0, 53, 0
2, 11803, Note_on_c, 0, 41, 61
2, 11804, Note_on_c, 0, 53, 66
2, 11804, Note_on_c, 0, 72, 65
2, 11804, Note_on_c, 0, 75, 63
2, 11805, Note_on_c, 0, 65, 0
2, 11874, Note_on_c, 0, 67, 61
2, 11893, Note_on_c, 0, 41, 0
2, 11894, Note_on_c, 0, 75, 0
2, 11894, Note_on_c, 0, 53, 0
2, 11913, Note_on_c, 0, 72, 0
2, 11948, Note_on_c, 0, 57, 63
2, 11949, Note_on_c, 0, 67, 0
2, 11949, Note_on_c, 0, 63, 62
2, 11949, Note_on_c, 0, 69, 62
2, 11949, Note_on_c, 0, 75, 64
2, 11950, Note_on_c, 0, 53, 62
2, 12018, Note_on_c, 0, 70, 62
2, 12019, Note_on_c, 0, 74, 66
2, 12021, Note_on_c, 0, 53, 0
2, 12021, Note_on_c, 0, 69, 0
2, 12021, Note_on_c, 0, 57, 0
2, 12021, Note_on_c, 0, 63, 0
2, 12022, Note_on_c, 0, 75, 0
2, 12088, Note_on_c, 0, 46, 60
2, 12160, Note_on_c, 0, 58, 61
2, 12160, Note_on_c, 0, 65, 59
2, 12163, Note_on_c, 0, 74, 0
2, 12163, Note_on_c, 0, 70, 0
2, 12179, Note_on_c, 0, 46, 0
2, 12228, Note_on_c, 0, 44, 63
2, 12229, Note_on_c, 0, 74, 65
2, 12229, Note_on_c, 0, 77, 59
2, 12231, Note_on_c, 0, 58, 0
2, 12231, Note_on_c, 0, 65, 0
2, 12296, Note_on_c, 0, 56, 61
2, 12315, Note_on_c, 0, 44, 0
2, 12316, Note_on_c, 0, 77, 0
2, 12316, Note_on_c, 0, 74, 0
2, 12344, Control_c, 0, 64, 127
2, 12360, Note_on_c, 0, 82, 73
2, 12360, Note_on_c, 0, 43, 78
2, 12360, Note_on_c, 0, 75, 77
2, 12361, Note_on_c, 0, 56, 0
2, 12408, Control_c, 0, 67, 127
2, 12410, Control_c, 0, 64, 0
2, 12424, Note_on_c, 0, 70, 74
2, 12425, Note_on_c, 0, 55, 70
2, 12426, Note_on_c, 0, 75, 0
2, 12443, Note_on_c, 0, 43, 0
2, 12492, Note_on_c, 0, 39, 66
2, 12493, Note_on_c, 0, 79, 77
2, 12494, Note_on_c, 0, 75, 78
2, 12496, Note_on_c, 0, 82, 0
2, 12496, Note_on_c, 0, 70, 0
2, 12511, Note_on_c, 0, 55, 0
2, 12563, Note_on_c, 0, 51, 65
2, 12564, Note_on_c, 0, 67, 77
2, 12566, Note_on_c, 0, 39, 0
2, 12566, Note_on_c, 0, 75, 0
2, 12631, Note_on_c, 0, 38, 69
2, 12631, Note_on_c, 0, 70, 78
2, 12633, Note_on_c, 0, 67, 0
2, 12633, Note_on_c, 0, 79, 0
2, 12668, Note_on_c, 0, 51, 0
2, 12697, Note_on_c, 0, 74, 76
2, 12698, Note_on_c, 0, 50, 72
2, 12698, Note_on_c, 0, 77, 71
2, 12701, Note_on_c, 0, 70, 0
2, 12718, Note_on_c, 0, 38, 0
2, 12768, Note_on_c, 0, 58, 67
2, 12768, Note_on_c, 0, 62, 69
2, 12768, Note_on_c, 0, 53, 71
2, 12769, Note_on_c, 0, 50, 0
2, 12787, Note_on_c, 0, 77, 0
2, 12787, Note_on_c, 0, 74, 0
2, 12804, Control_c, 0, 67, 0
2, 12821, Note_on_c, 0, 58, 0
2, 12837, Note_on_c, 0, 65, 74
2, 12838, Note_on_c, 0, 62, 0
2, 12839, Note_on_c, 0, 53, 0
2, 12908, Note_on_c, 0, 41, 68
2, 12908, Note_on_c, 0, 53, 67
2, 12908, Note_on_c, 0, 72, 77
2, 12908, Note_on_c, 0, 75, 80
2, 12943, Note_on_c, 0, 65, 0
2, 12975, Note_on_c, 0, 67, 77
2, 12977, Note_on_c, 0, 41, 0
2, 12977, Note_on_c, 0, 75, 0
2, 12994, Note_on_c, 0, 72, 0
2, 12995, Note_on_c, 0, 53, 0
2, 13044, Note_on_c, 0, 63, 71
2, 13044, Note_on_c, 0, 75, 82
2, 13045, Note_on_c, 0, 67, 0
2, 13045, Note_on_c, 0, 53, 70
2, 13045, Note_on_c, 0, 57, 70
2, 13045, Note_on_c, 0, 69, 83
2, 13100, Note_on_c, 0, 57, 0
2, 13115, Note_on_c, 0, 70, 48
2, 13115, Note_on_c, 0, 74, 54
2, 13116, Note_on_c, 0, 53, 0
2, 13116, Note_on_c, 0, 69, 0
2, 13116, Note_on_c, 0, 63, 0
2, 13117, Note_on_c, 0, 75, 0
2, 13185, Note_on_c, 0, 46, 72
2, 13186, Note_on_c, 0, 58, 61
2, 13251, Note_on_c, 0, 67, 67
2, 13251, Note_on_c, 0, 79, 70
2, 13256, Note_on_c, 0, 70, 0
2, 13272, Note_on_c, 0, 58, 0
2, 13289, Note_on_c, 0, 74, 0
2, 13289, Note_on_c, 0, 46, 0
2, 13320, Note_on_c, 0, 65, 71
2, 13320, Note_on_c, 0, 77, 70
2, 13320, Note_on_c, 0, 53, 66
2, 13320, Note_on_c, 0, 57, 60
2, 13321, Note_on_c, 0, 79, 0
2, 13321, Note_on_c, 0, 67, 0
2, 13391, Note_on_c, 0, 63, 61
2, 13391, Note_on_c, 0, 75, 78
2, 13392, Note_on_c, 0, 53, 0
2, 13392, Note_on_c, 0, 65, 0
2, 13392, Note_on_c, 0, 77, 0
2, 13392, Note_on_c, 0, 57, 0
2, 13464, Note_on_c, 0, 62, 58
2, 13464, Note_on_c, 0, 74, 59
2, 13465, Note_on_c, 0, 46, 58
2, 13466, Note_on_c, 0, 75, 0
2, 13466, Note_on_c, 0, 63, 0
2, 13536, Note_on_c, 0, 82, 56
2, 13602, Note_on_c, 0, 53, 60
2, 13602, Note_on_c, 0, 79, 59
2, 13603, Note_on_c, 0, 58, 56
2, 13620, Note_on_c, 0, 82, 0
2, 13667, Note_on_c, 0, 77, 57
2, 13668, Note_on_c, 0, 79, 0
2, 13685, Note_on_c, 0, 74, 0
2, 13685, Note_on_c, 0, 58, 0
2, 13702, Note_on_c, 0, 53, 0
2, 13702, Note_on_c, 0, 62, 0
2, 13733, Note_on_c, 0, 48, 53
2, 13733, Note_on_c, 0, 63, 56
2, 13733, Note_on_c, 0, 75, 59
2, 13734, Note_on_c, 0, 46, 0
2, 13734, Note_on_c, 0, 77, 0
2, 13800, Note_on_c, 0, 84, 64
2, 13818, Control_c, 0, 64, 127
2, 13867, Note_on_c, 0, 53, 56
2, 13867, Note_on_c, 0, 57, 58
2, 13884, Note_on_c, 0, 84, 0
2, 13930, Note_on_c, 0, 85, 60
2, 13932, Note_on_c, 0, 53, 0
2, 13932, Note_on_c, 0, 48, 0
2, 13932, Note_on_c, 0, 57, 0
2, 13933, Note_on_c, 0, 75, 0
2, 13933, Note_on_c, 0, 63, 0
2, 13993, Note_on_c, 0, 74, 61
2, 13994, Note_on_c, 0, 46, 65
2, 13994, Note_on_c, 0, 62, 61
2, 13994, Note_on_c, 0, 86, 65
2, 14012, Note_on_c, 0, 85, 0
2, 14013, Control_c, 0, 64, 0
2, 14059, Note_on_c, 0, 77, 55
2, 14078, Note_on_c, 0, 86, 0
2, 14094, Note_on_c, 0, 46, 0
2, 14124, Note_on_c, 0, 82, 56
2, 14125, Note_on_c, 0, 53, 57
2, 14125, Note_on_c, 0, 58, 53
2, 14142, Note_on_c, 0, 77, 0
2, 14158, Note_on_c, 0, 74, 0
2, 14187, Note_on_c, 0, 74, 55
2, 14207, Note_on_c, 0, 82, 0
2, 14207, Note_on_c, 0, 53, 0
2, 14207, Note_on_c, 0, 62, 0
2, 14207, Note_on_c, 0, 58, 0
2, 14254, Note_on_c, 0, 46, 63
2, 14254, Note_on_c, 0, 73, 57
2, 14254, Note_on_c, 0, 79, 54
2, 14273, Note_on_c, 0, 74, 0
2, 14322, Note_on_c, 0, 74, 55
2, 14323, Note_on_c, 0, 79, 0
2, 14323, Note_on_c, 0, 77, 57
2, 14324, Note_on_c, 0, 73, 0
2, 14358, Note_on_c, 0, 46, 0
2, 14389, Note_on_c, 0, 53, 58
2, 14389, Note_on_c, 0, 58, 59
2, 14455, Note_on_c, 0, 58, 0
2, 14455, Note_on_c, 0, 53, 0
2, 14455, Note_on_c, 0, 74, 0
2, 14456, Note_on_c, 0, 77, 0
2, 14520, Note_on_c, 0, 89, 57
2, 14520, Control_c, 0, 64, 127
2, 14520, Note_on_c, 0, 77, 58
2, 14520, Note_on_c, 0, 87, 57
2, 14537, Note_on_c, 0, 45, 68
2, 14538, Note_on_c, 0, 87, 0
2, 14539, Note_on_c, 0, 89, 0
2, 14539, Note_on_c, 0, 77, 0
2, 14590, Note_on_c, 0, 87, 54
2, 14590, Note_on_c, 0, 89, 57
2, 14591, Note_on_c, 0, 77, 55
2, 14592, Note_on_c, 0, 45, 0
2, 14645, Note_on_c, 0, 87, 0
2, 14660, Note_on_c, 0, 53, 55
2, 14660, Note_on_c, 0, 57, 57
2, 14662, Note_on_c, 0, 89, 0
2, 14679, Note_on_c, 0, 77, 0
2, 14729, Note_on_c, 0, 87, 59
2, 14730, Note_on_c, 0, 77, 57
2, 14730, Note_on_c, 0, 89, 57
2, 14750, Note_on_c, 0, 57, 0
2, 14751, Note_on_c, 0, 53, 0
2, 14768, Control_c, 0, 64, 0
2, 14799, Note_on_c, 0, 41, 60
2, 14836, Note_on_c, 0, 89, 0
2, 14836, Note_on_c, 0, 87, 0
2, 14853, Note_on_c, 0, 77, 0
2, 14868, Note_on_c, 0, 79, 56
2, 14868, Note_on_c, 0, 91, 58
2, 14890, Note_on_c, 0, 41, 0
2, 14942, Note_on_c, 0, 89, 59
2, 14943, Note_on_c, 0, 57, 54
2, 14943, Note_on_c, 0, 77, 56
2, 14943, Note_on_c, 0, 87, 59
2, 14944, Note_on_c, 0, 53, 59
2, 14961, Note_on_c, 0, 91, 0
2, 14961, Note_on_c, 0, 79, 0
2, 15017, Note_on_c, 0, 89, 0
2, 15017, Note_on_c, 0, 77, 0
2, 15017, Note_on_c, 0, 57, 0
2, 15017, Note_on_c, 0, 87, 0
2, 15036, Note_on_c, 0, 53, 0
2, 15085, Note_on_c, 0, 89, 60
2, 15086, Note_on_c, 0, 46, 61
2, 15086, Note_on_c, 0, 77, 60
2, 15086, Note_on_c, 0, 86, 57
2, 15103, Note_on_c, 0, 86, 0
2, 15103, Note_on_c, 0, 77, 0
2, 15103, Note_on_c, 0, 89, 0
2, 15104, Control_c, 0, 64, 127
2, 15153, Note_on_c, 0, 86, 58
2, 15153, Note_on_c, 0, 89, 61
2, 15154, Note_on_c, 0, 77, 58
2, 15174, Note_on_c, 0, 46, 0
2, 15227, Note_on_c, 0, 53, 58
2, 15227, Note_on_c, 0, 58, 57
2, 15229, Note_on_c, 0, 86, 0
2, 15229, Note_on_c, 0, 77, 0
2, 15229, Note_on_c, 0, 89, 0
2, 15301, Note_on_c, 0, 77, 56
2, 15301, Note_on_c, 0, 89, 60
2, 15302, Note_on_c, 0, 86, 59
2, 15303, Note_on_c, 0, 53, 0
2, 15303, Note_on_c, 0, 58, 0
2, 15303, Control_c, 0, 64, 0
2, 15373, Note_on_c, 0, 41, 61
2, 15394, Note_on_c, 0, 89, 0
2, 15394, Note_on_c, 0, 86, 0
2, 15394, Note_on_c, 0, 77, 0
2, 15443, Note_on_c, 0, 79, 58
2, 15443, Note_on_c, 0, 91, 56
2, 15445, Note_on_c, 0, 41, 0
2, 15509, Note_on_c, 0, 58, 61
2, 15509, Note_on_c, 0, 77, 58
2, 15509, Note_on_c, 0, 89, 57
2, 15510, Note_on_c, 0, 79, 0
2, 15510, Note_on_c, 0, 53, 54
2, 15510, Note_on_c, 0, 86, 55
2, 15511, Note_on_c, 0, 91, 0
2, 15563, Note_on_c, 0, 89, 0
2, 15579, Note_on_c, 0, 53, 0
2, 15579, Note_on_c, 0, 58, 0
2, 15580, Note_on_c, 0, 77, 0
2, 15580, Note_on_c, 0, 86, 0
2, 15648, Note_on_c, 0, 46, 57
2, 15648, Note_on_c, 0, 62, 57
2, 15648, Note_on_c, 0, 74, 57
2, 15716, Note_on_c, 0, 82, 58
2, 15782, Note_on_c, 0, 79, 59
2, 15798, Note_on_c, 0, 58, 53
2, 15801, Note_on_c, 0, 82, 0
2, 15816, Note_on_c, 0, 53, 59
2, 15849, Note_on_c, 0, 77, 55
2, 15868, Note_on_c, 0, 79, 0
2, 15868, Note_on_c, 0, 62, 0
2, 15869, Note_on_c, 0, 58, 0
2, 15869, Note_on_c, 0, 53, 0
2, 15886, Note_on_c, 0, 46, 0
2, 15886, Note_on_c, 0, 74, 0
2, 15917, Note_on_c, 0, 75, 58
2, 15918, Note_on_c, 0, 48, 60
2, 15918, Note_on_c, 0, 63, 54
2, 15920, Note_on_c, 0, 77, 0
2, 15985, Note_on_c, 0, 84, 60
2, 16051, Note_on_c, 0, 57, 59
2, 16052, Note_on_c, 0, 53, 57
2, 16103, Note_on_c, 0, 84, 0
2, 16119, Note_on_c, 0, 85, 56
2, 16120, Note_on_c, 0, 57, 0
2, 16122, Note_on_c, 0, 75, 0
2, 16122, Note_on_c, 0, 53, 0
2, 16138, Note_on_c, 0, 63, 0
2, 16190, Note_on_c, 0, 48, 0
2, 16190, Note_on_c, 0, 46, 55
2, 16190, Note_on_c, 0, 62, 57
2, 16190, Note_on_c, 0, 74, 53
2, 16190, Note_on_c, 0, 86, 55
2, 16191, Note_on_c, 0, 85, 0
2, 16262, Note_on_c, 0, 77, 55
2, 16265, Note_on_c, 0, 86, 0
2, 16299, Note_on_c, 0, 46, 0
2, 16328, Note_on_c, 0, 82, 58
2, 16329, Note_on_c, 0, 53, 57
2, 16329, Note_on_c, 0, 58, 57
2, 16348, Note_on_c, 0, 77, 0
2, 16397, Note_on_c, 0, 86, 58
2, 16414, Note_on_c, 0, 86, 0
2, 16416, Note_on_c, 0, 58, 0
2, 16416, Note_on_c, 0, 82, 0
2, 16435, Note_on_c, 0, 53, 0
2, 16451, Note_on_c, 0, 62, 0
2, 16468, Note_on_c, 0, 86, 55
2, 16468, Note_on_c, 0, 91, 54
2, 16469, Note_on_c, 0, 46, 63
2, 16469, Note_on_c, 0, 58, 64
2, 16470, Note_on_c, 0, 74, 0
2, 16544, Note_on_c, 0, 94, 57
2, 16546, Note_on_c, 0, 91, 0
2, 16563, Note_on_c, 0, 58, 0
2, 16563, Note_on_c, 0, 46, 0
2, 16634, Note_on_c, 0, 55, 60
2, 16635, Note_on_c, 0, 43, 65
2, 16673, Note_on_c, 0, 94, 0
2, 16708, Note_on_c, 0, 55, 0
2, 16709, Note_on_c, 0, 86, 0
2, 16709, Note_on_c, 0, 43, 0
2, 16750, Note_on_c, 0, 93, 56
2, 16778, Note_on_c, 0, 42, 61
2, 16778, Note_on_c, 0, 54, 67
2, 16831, Note_on_c, 0, 96, 56
2, 16832, Note_on_c, 0, 42, 0
2, 16849, Note_on_c, 0, 93, 0
2, 16849, Note_on_c, 0, 54, 0
2, 16920, Note_on_c, 0, 54, 50
2, 16920, Note_on_c, 0, 60, 50
2, 16920, Note_on_c, 0, 62, 51
2, 16920, Note_on_c, 0, 98, 60
2, 16921, Note_on_c, 0, 96, 0
2, 16986, Note_on_c, 0, 90, 61
2, 16986, Note_on_c, 0, 99, 62
2, 16991, Note_on_c, 0, 54, 0
2, 16991, Note_on_c, 0, 98, 0
2, 17024, Note_on_c, 0, 62, 0
2, 17024, Note_on_c, 0, 60, 0
2, 17055, Note_on_c, 0, 38, 49
2, 17056, Note_on_c, 0, 50, 54
2, 17076, Note_on_c, 0, 99, 0
2, 17076, Note_on_c, 0, 90, 0
2, 17129, Note_on_c, 0, 98, 62
2, 17146, Note_on_c, 0, 38, 0
2, 17146, Note_on_c, 0, 50, 0
2, 17198, Note_on_c, 0, 54, 51
2, 17198, Note_on_c, 0, 60, 51
2, 17198, Note_on_c, 0, 62, 55
2, 17199, Note_on_c, 0, 90, 62
2, 17199, Note_on_c, 0, 93, 61
2, 17202, Note_on_c, 0, 98, 0
2, 17268, Note_on_c, 0, 62, 0
2, 17268, Note_on_c, 0, 54, 0
2, 17268, Note_on_c, 0, 60, 0
2, 17269, Note_on_c, 0, 93, 0
2, 17269, Note_on_c, 0, 90, 0
2, 17331, Note_on_c, 0, 43, 72
2, 17331, Note_on_c, 0, 55, 69
2, 17331, Note_on_c, 0, 91, 77
2, 17332, Note_on_c, 0, 96, 80
2, 17396, Note_on_c, 0, 94, 75
2, 17397, Note_on_c, 0, 55, 0
2, 17399, Note_on_c, 0, 96, 0
2, 17429, Note_on_c, 0, 43, 0
2, 17458, Note_on_c, 0, 62, 66
2, 17460, Note_on_c, 0, 58, 67
2, 17461, Note_on_c, 0, 55, 67
2, 17461, Note_on_c, 0, 93, 78
2, 17480, Note_on_c, 0, 94, 0
2, 17526, Note_on_c, 0, 94, 72
2, 17529, Note_on_c, 0, 93, 0
2, 17544, Note_on_c, 0, 55, 0
2, 17544, Note_on_c, 0, 58, 0
2, 17544, Note_on_c, 0, 62, 0
2, 17589, Note_on_c, 0, 38, 77
2, 17589, Note_on_c, 0, 50, 78
2, 17608, Note_on_c, 0, 91, 0
2, 17609, Note_on_c, 0, 94, 0
2, 17655, Note_on_c, 0, 38, 0
2, 17655, Note_on_c, 0, 50, 0
2, 17720, Note_on_c, 0, 55, 66
2, 17720, Note_on_c, 0, 58, 69
2, 17720, Note_on_c, 0, 62, 67
2, 17790, Note_on_c, 0, 94, 72
2, 17791, Note_on_c, 0, 87, 70
2, 17808, Note_on_c, 0, 58, 0
2, 17826, Note_on_c, 0, 55, 0
2, 17826, Note_on_c, 0, 62, 0
2, 17856, Note_on_c, 0, 43, 73
2, 17856, Note_on_c, 0, 55, 73
2, 17910, Note_on_c, 0, 94, 0
2, 17910, Note_on_c, 0, 87, 0
2, 17924, Note_on_c, 0, 82, 70
2, 17943, Note_on_c, 0, 43, 0
2, 17959, Note_on_c, 0, 55, 0
2, 17994, Note_on_c, 0, 87, 74
2, 17995, Note_on_c, 0, 39, 69
2, 17995, Note_on_c, 0, 51, 68
2, 17995, Note_on_c, 0, 91, 74
2, 17997, Note_on_c, 0, 82, 0
2, 18068, Note_on_c, 0, 79, 69
2, 18069, Note_on_c, 0, 87, 0
2, 18089, Note_on_c, 0, 39, 0
2, 18105, Note_on_c, 0, 51, 0
2, 18141, Note_on_c, 0, 38, 70
2, 18141, Note_on_c, 0, 50, 70
2, 18141, Note_on_c, 0, 82, 67
2, 18142, Note_on_c, 0, 79, 0
2, 18207, Note_on_c, 0, 86, 65
2, 18208, Note_on_c, 0, 89, 71
2, 18210, Note_on_c, 0, 50, 0
2, 18210, Note_on_c, 0, 82, 0
2, 18210, Note_on_c, 0, 91, 0
2, 18210, Note_on_c, 0, 38, 0
2, 18272, Note_on_c, 0, 62, 46
2, 18274, Note_on_c, 0, 53, 44
2, 18274, Note_on_c, 0, 58, 42
2, 18330, Note_on_c, 0, 86, 0
2, 18345, Note_on_c, 0, 77, 69
2, 18347, Note_on_c, 0, 89, 0
2, 18347, Note_on_c, 0, 58, 0
2, 18363, Note_on_c, 0, 53, 0
2, 18384, Note_on_c, 0, 62, 0
2, 18419, Note_on_c, 0, 84, 66
2, 18420, Note_on_c, 0, 41, 47
2, 18420, Note_on_c, 0, 53, 47
2, 18420, Note_on_c, 0, 87, 69
2, 18439, Note_on_c, 0, 77, 0
2, 18489, Note_on_c, 0, 79, 66
2, 18492, Note_on_c, 0, 84, 0
2, 18492, Note_on_c, 0, 87, 0
2, 18509, Note_on_c, 0, 53, 0
2, 18509, Note_on_c, 0, 41, 0
2, 18558, Note_on_c, 0, 63, 65
2, 18559, Note_on_c, 0, 53, 59
2, 18559, Note_on_c, 0, 57, 60
2, 18559, Note_on_c, 0, 81, 72
2, 18559, Note_on_c, 0, 87, 71
2, 18561, Note_on_c, 0, 79, 0
2, 18614, Note_on_c, 0, 87, 0
2, 18628, Note_on_c, 0, 86, 66
2, 18629, Note_on_c, 0, 82, 70
2, 18631, Note_on_c, 0, 57, 0
2, 18631, Note_on_c, 0, 81, 0
2, 18631, Note_on_c, 0, 63, 0
2, 18631, Note_on_c, 0, 53, 0
2, 18702, Note_on_c, 0, 46, 72
2, 18703, Note_on_c, 0, 58, 66
2, 18775, Note_on_c, 0, 45, 66
2, 18776, Note_on_c, 0, 57, 69
2, 18776, Note_on_c, 0, 77, 67
2, 18777, Note_on_c, 0, 58, 0
2, 18777, Note_on_c, 0, 46, 0
2, 18778, Note_on_c, 0, 86, 0
2, 18778, Note_on_c, 0, 82, 0
2, 18831, Note_on_c, 0, 77, 0
2, 18844, Note_on_c, 0, 56, 68
2, 18845, Note_on_c, 0, 44, 71
2, 18845, Note_on_c, 0, 86, 69
2, 18845, Note_on_c, 0, 89, 68
2, 18847, Note_on_c, 0, 45, 0
2, 18848, Note_on_c, 0, 57, 0
2, 18900, Note_on_c, 0, 44, 0
2, 18900, Note_on_c, 0, 56, 0
2, 18901, Note_on_c, 0, 89, 0
2, 18901, Note_on_c, 0, 86, 0
2, 18985, Note_on_c, 0, 94, 72
2, 18986, Control_c, 0, 64, 127
2, 18986, Note_on_c, 0, 43, 68
2, 18986, Note_on_c, 0, 55, 66
2, 18986, Note_on_c, 0, 87, 78
2, 19003, Control_c, 0, 67, 127
2, 19023, Control_c, 0, 64, 0
2, 19056, Note_on_c, 0, 41, 67
2, 19056, Note_on_c, 0, 53, 65
2, 19056, Note_on_c, 0, 82, 71
2, 19058, Note_on_c, 0, 87, 0
2, 19074, Note_on_c, 0, 43, 0
2, 19089, Note_on_c, 0, 55, 0
2, 19117, Note_on_c, 0, 91, 71
2, 19118, Note_on_c, 0, 39, 72
2, 19120, Note_on_c, 0, 51, 67
2, 19120, Note_on_c, 0, 87, 68
2, 19123, Note_on_c, 0, 41, 0
2, 19123, Note_on_c, 0, 82, 0
2, 19123, Note_on_c, 0, 94, 0
2, 19137, Note_on_c, 0, 53, 0
2, 19184, Note_on_c, 0, 79, 69
2, 19186, Note_on_c, 0, 39, 0
2, 19187, Note_on_c, 0, 87, 0
2, 19220, Note_on_c, 0, 51, 0
2, 19238, Note_on_c, 0, 91, 0
2, 19238, Note_on_c, 0, 79, 0
2, 19252, Note_on_c, 0, 38, 65
2, 19253, Note_on_c, 0, 50, 64
2, 19253, Note_on_c, 0, 82, 72
2, 19308, Note_on_c, 0, 50, 0
2, 19324, Note_on_c, 0, 89, 71
2, 19325, Note_on_c, 0, 38, 0
2, 19325, Note_on_c, 0, 86, 68
2, 19326, Note_on_c, 0, 82, 0
2, 19395, Note_on_c, 0, 53, 63
2, 19395, Note_on_c, 0, 58, 60
2, 19395, Note_on_c, 0, 62, 61
2, 19398, Note_on_c, 0, 86, 0
2, 19398, Note_on_c, 0, 89, 0
2, 19462, Note_on_c, 0, 77, 71
2, 19464, Note_on_c, 0, 58, 0
2, 19464, Note_on_c, 0, 62, 0
2, 19480, Note_on_c, 0, 53, 0
2, 19530, Note_on_c, 0, 87, 72
2, 19531, Note_on_c, 0, 41, 62
2, 19531, Note_on_c, 0, 53, 65
2, 19531, Note_on_c, 0, 84, 67
2, 19550, Note_on_c, 0, 77, 0
2, 19602, Note_on_c, 0, 79, 72
2, 19604, Note_on_c, 0, 84, 0
2, 19605, Note_on_c, 0, 87, 0
2, 19621, Note_on_c, 0, 53, 0
2, 19621, Note_on_c, 0, 41, 0
2, 19640, Control_c, 0, 67, 0
2, 19658, Note_on_c, 0, 79, 0
2, 19674, Note_on_c, 0, 81, 65
2, 19674, Note_on_c, 0, 87, 71
2, 19675, Note_on_c, 0, 53, 60
2, 19675, Note_on_c, 0, 57, 61
2, 19676, Note_on_c, 0, 63, 59
2, 19695, Control_c, 0, 64, 127
2, 19731, Note_on_c, 0, 87, 0
2, 19746, Note_on_c, 0, 82, 72
2, 19746, Note_on_c, 0, 86, 67
2, 19749, Note_on_c, 0, 57, 0
2, 19749, Note_on_c, 0, 81, 0
2, 19750, Note_on_c, 0, 63, 0
2, 19750, Note_on_c, 0, 53, 0
2, 19816, Note_on_c, 0, 46, 60
2, 19817, Note_on_c, 0, 58, 63
2, 19889, Note_on_c, 0, 58, 0
2, 19891, Control_c, 0, 64, 0
2, 19909, Note_on_c, 0, 46, 0
2, 19961, Note_on_c, 0, 41, 59
2, 19961, Note_on_c, 0, 53, 60
2, 19963, Note_on_c, 0, 86, 0
2, 19963, Note_on_c, 0, 82, 0
2, 20029, Note_on_c, 0, 87, 43
2, 20029, Note_on_c, 0, 94, 47
2, 20050, Note_on_c, 0, 41, 0
2, 20050, Note_on_c, 0, 53, 0
2, 20097, Note_on_c, 0, 55, 56
2, 20098, Note_on_c, 0, 43, 59
2, 20164, Note_on_c, 0, 82, 59
2, 20166, Note_on_c, 0, 87, 0
2, 20185, Note_on_c, 0, 43, 0
2, 20201, Note_on_c, 0, 55, 0
2, 20221, Note_on_c, 0, 94, 0
2, 20221, Note_on_c, 0, 82, 0
2, 20236, Note_on_c, 0, 39, 53
2, 20236, Note_on_c, 0, 51, 59
2, 20236, Note_on_c, 0, 87, 53
2, 20236, Note_on_c, 0, 91, 54
2, 20311, Note_on_c, 0, 79, 55
2, 20313, Note_on_c, 0, 87, 0
2, 20313, Note_on_c, 0, 39, 0
2, 20332, Note_on_c, 0, 51, 0
2, 20373, Note_on_c, 0, 91, 0
2, 20386, Note_on_c, 0, 38, 60
2, 20387, Note_on_c, 0, 50, 54
2, 20387, Note_on_c, 0, 82, 53
2, 20388, Note_on_c, 0, 79, 0
2, 20457, Note_on_c, 0, 86, 53
2, 20457, Note_on_c, 0, 89, 54
2, 20462, Note_on_c, 0, 82, 0
2, 20478, Note_on_c, 0, 50, 0
2, 20496, Note_on_c, 0, 38, 0
2, 20530, Note_on_c, 0, 58, 54
2, 20530, Note_on_c, 0, 62, 54
2, 20531, Note_on_c, 0, 53, 57
2, 20583, Note_on_c, 0, 86, 0
2, 20584, Note_on_c, 0, 89, 0
2, 20596, Note_on_c, 0, 77, 53
2, 20598, Note_on_c, 0, 62, 0
2, 20598, Note_on_c, 0, 53, 0
2, 20598, Note_on_c, 0, 58, 0
2, 20666, Note_on_c, 0, 41, 53
2, 20666, Note_on_c, 0, 84, 60
2, 20666, Note_on_c, 0, 87, 56
2, 20667, Note_on_c, 0, 53, 56
2, 20669, Note_on_c, 0, 77, 0
2, 20731, Note_on_c, 0, 79, 55
2, 20750, Note_on_c, 0, 41, 0
2, 20750, Note_on_c, 0, 53, 0
2, 20750, Note_on_c, 0, 84, 0
2, 20751, Note_on_c, 0, 87, 0
2, 20796, Note_on_c, 0, 63, 57
2, 20797, Note_on_c, 0, 53, 56
2, 20797, Note_on_c, 0, 57, 54
2, 20797, Note_on_c, 0, 81, 58
2, 20797, Note_on_c, 0, 87, 54
2, 20798, Note_on_c, 0, 79, 0
2, 20850, Note_on_c, 0, 57, 0
2, 20852, Note_on_c, 0, 87, 0
2, 20865, Note_on_c, 0, 82, 58
2, 20865, Note_on_c, 0, 86, 53
2, 20866, Control_c, 0, 64, 127
2, 20867, Note_on_c, 0, 63, 0
2, 20867, Note_on_c, 0, 53, 0
2, 20867, Note_on_c, 0, 81, 0
2, 20918, Control_c, 0, 64, 0
2, 20932, Note_on_c, 0, 46, 59
2, 20986, Note_on_c, 0, 82, 0
2, 20996, Note_on_c, 0, 77, 53
2, 20997, Note_on_c, 0, 58, 57
2, 20999, Note_on_c, 0, 46, 0
2, 21000, Note_on_c, 0, 86, 0
2, 21061, Note_on_c, 0, 44, 55
2, 21061, Note_on_c, 0, 86, 58
2, 21061, Note_on_c, 0, 89, 54
2, 21063, Note_on_c, 0, 58, 0
2, 21064, Note_on_c, 0, 77, 0
2, 21128, Note_on_c, 0, 56, 59
2, 21130, Note_on_c, 0, 86, 0
2, 21130, Note_on_c, 0, 44, 0
2, 21131, Note_on_c, 0, 89, 0
2, 21195, Note_on_c, 0, 94, 70
2, 21196, Note_on_c, 0, 43, 71
2, 21196, Note_on_c, 0, 87, 67
2, 21197, Note_on_c, 0, 56, 0
2, 21265, Note_on_c, 0, 55, 69
2, 21265, Note_on_c, 0, 82, 65
2, 21266, Note_on_c, 0, 87, 0
2, 21266, Note_on_c, 0, 43, 0
2, 21331, Note_on_c, 0, 39, 65
2, 21332, Note_on_c, 0, 87, 71
2, 21332, Note_on_c, 0, 91, 65
2, 21334, Note_on_c, 0, 94, 0
2, 21366, Note_on_c, 0, 82, 0
2, 21382, Note_on_c, 0, 55, 0
2, 21382, Note_on_c, 0, 87, 0
2, 21396, Note_on_c, 0, 51, 66
2, 21396, Note_on_c, 0, 79, 66
2, 21415, Note_on_c, 0, 39, 0
2, 21464, Note_on_c, 0, 82, 70
2, 21465, Note_on_c, 0, 38, 72
2, 21466, Note_on_c, 0, 79, 0
2, 21467, Note_on_c, 0, 91, 0
2, 21503, Note_on_c, 0, 51, 0
2, 21532, Note_on_c, 0, 89, 65
2, 21533, Note_on_c, 0, 50, 67
2, 21533, Note_on_c, 0, 86, 72
2, 21535, Note_on_c, 0, 82, 0
2, 21535, Note_on_c, 0, 38, 0
2, 21568, Note_on_c, 0, 50, 0
2, 21599, Note_on_c, 0, 58, 65
2, 21599, Note_on_c, 0, 62, 71
2, 21600, Note_on_c, 0, 89, 0
2, 21600, Note_on_c, 0, 86, 0
2, 21600, Note_on_c, 0, 53, 71
2, 21651, Note_on_c, 0, 58, 0
2, 21666, Note_on_c, 0, 77, 53
2, 21668, Note_on_c, 0, 62, 0
2, 21669, Note_on_c, 0, 53, 0
2, 21734, Note_on_c, 0, 84, 60
2, 21734, Note_on_c, 0, 87, 54
2, 21735, Note_on_c, 0, 41, 55
2, 21736, Note_on_c, 0, 77, 0
2, 21736, Note_on_c, 0, 53, 57
2, 21807, Note_on_c, 0, 79, 56
2, 21809, Note_on_c, 0, 53, 0
2, 21809, Note_on_c, 0, 84, 0
2, 21809, Note_on_c, 0, 41, 0
2, 21809, Note_on_c, 0, 87, 0
2, 21863, Note_on_c, 0, 79, 0
2, 21879, Note_on_c, 0, 57, 58
2, 21880, Note_on_c, 0, 53, 58
2, 21880, Note_on_c, 0, 63, 61
2, 21880, Note_on_c, 0, 81, 58
2, 21880, Note_on_c, 0, 87, 60
2, 21949, Note_on_c, 0, 82, 58
2, 21949, Note_on_c, 0, 86, 58
2, 21951, Note_on_c, 0, 53, 0
2, 21951, Note_on_c, 0, 57, 0
2, 21952, Note_on_c, 0, 87, 0
2, 21952, Note_on_c, 0, 63, 0
2, 21966, Control_c, 0, 64, 127
2, 21968, Note_on_c, 0, 81, 0
2, 22017, Note_on_c, 0, 58, 56
2, 22018, Note_on_c, 0, 46, 57
2, 22090, Note_on_c, 0, 46, 0
2, 22090, Note_on_c, 0, 58, 0
2, 22091, Control_c, 0, 64, 0
2, 22162, Note_on_c, 0, 38, 56
2, 22162, Note_on_c, 0, 50, 59
2, 22163, Note_on_c, 0, 66, 43
2, 22163, Note_on_c, 0, 69, 42
2, 22163, Note_on_c, 0, 78, 48
2, 22164, Note_on_c, 0, 74, 45
2, 22165, Note_on_c, 0, 86, 0
2, 22165, Note_on_c, 0, 82, 0
2, 22236, Note_on_c, 0, 79, 43
2, 22237, Note_on_c, 0, 67, 48
2, 22239, Note_on_c, 0, 50, 0
2, 22239, Note_on_c, 0, 66, 0
2, 22239, Note_on_c, 0, 69, 0
2, 22255, Note_on_c, 0, 38, 0
2, 22256, Note_on_c, 0, 78, 0
2, 22256, Note_on_c, 0, 74, 0
2, 22272, Note_on_c, 0, 69, 54
2, 22292, Note_on_c, 0, 81, 63
2, 22307, Note_on_c, 0, 43, 54
2, 22307, Note_on_c, 0, 55, 53
2, 22307, Note_on_c, 0, 70, 61
2, 22307, Note_on_c, 0, 82, 63
2, 22309, Note_on_c, 0, 81, 0
2, 22309, Note_on_c, 0, 79, 0
2, 22309, Note_on_c, 0, 67, 0
2, 22310, Note_on_c, 0, 69, 0
2, 22344, Note_on_c, 0, 55, 0
2, 22378, Note_on_c, 0, 81, 59
2, 22379, Note_on_c, 0, 69, 59
2, 22380, Note_on_c, 0, 82, 0
2, 22380, Note_on_c, 0, 70, 0
2, 22380, Note_on_c, 0, 43, 0
2, 22450, Note_on_c, 0, 55, 52
2, 22450, Note_on_c, 0, 58, 54
2, 22450, Note_on_c, 0, 79, 59
2, 22451, Note_on_c, 0, 62, 50
2, 22451, Note_on_c, 0, 67, 62
2, 22471, Note_on_c, 0, 69, 0
2, 22489, Note_on_c, 0, 81, 0
2, 22523, Note_on_c, 0, 82, 65
2, 22524, Note_on_c, 0, 70, 58
2, 22526, Note_on_c, 0, 55, 0
2, 22526, Note_on_c, 0, 58, 0
2, 22526, Note_on_c, 0, 79, 0
2, 22526, Note_on_c, 0, 62, 0
2, 22531, Note_on_c, 0, 67, 0
2, 22594, Note_on_c, 0, 38, 47
2, 22594, Note_on_c, 0, 50, 47
2, 22650, Note_on_c, 0, 70, 0
2, 22650, Note_on_c, 0, 82, 0
2, 22665, Note_on_c, 0, 69, 60
2, 22667, Note_on_c, 0, 50, 0
2, 22682, Note_on_c, 0, 81, 54
2, 22684, Note_on_c, 0, 38, 0
2, 22735, Note_on_c, 0, 58, 53
2, 22735, Note_on_c, 0, 67, 59
2, 22736, Note_on_c, 0, 55, 49
2, 22736, Note_on_c, 0, 62, 49
2, 22736, Note_on_c, 0, 79, 59
2, 22737, Note_on_c, 0, 69, 0
2, 22756, Note_on_c, 0, 81, 0
2, 22806, Control_c, 0, 64, 127
2, 22809, Note_on_c, 0, 58, 0
2, 22809, Note_on_c, 0, 62, 0
2, 22809, Note_on_c, 0, 67, 0
2, 22809, Note_on_c, 0, 79, 0
2, 22825, Note_on_c, 0, 55, 0
2, 22862, Control_c, 0, 67, 127
2, 22875, Note_on_c, 0, 69, 67
2, 22876, Note_on_c, 0, 42, 51
2, 22876, Note_on_c, 0, 54, 50
2, 22895, Note_on_c, 0, 81, 52
2, 22929, Note_on_c, 0, 42, 0
2, 22930, Note_on_c, 0, 54, 0
2, 22946, Note_on_c, 0, 69, 0
2, 22946, Note_on_c, 0, 81, 0
2, 22979, Control_c, 0, 64, 0
2, 23013, Note_on_c, 0, 54, 48
2, 23013, Note_on_c, 0, 60, 48
2, 23013, Note_on_c, 0, 62, 54
2, 23013, Note_on_c, 0, 79, 54
2, 23014, Note_on_c, 0, 67, 58
2, 23032, Note_on_c, 0, 54, 0
2, 23087, Note_on_c, 0, 54, 49
2, 23087, Note_on_c, 0, 66, 55
2, 23087, Note_on_c, 0, 78, 59
2, 23088, Note_on_c, 0, 79, 0
2, 23088, Note_on_c, 0, 67, 0
2, 23088, Note_on_c, 0, 60, 0
2, 23088, Note_on_c, 0, 62, 0
2, 23108, Control_c, 0, 67, 0
2, 23160, Note_on_c, 0, 38, 47
2, 23160, Note_on_c, 0, 50, 49
2, 23162, Note_on_c, 0, 78, 0
2, 23230, Note_on_c, 0, 74, 58
2, 23250, Note_on_c, 0, 38, 0
2, 23250, Note_on_c, 0, 50, 0
2, 23250, Note_on_c, 0, 54, 0
2, 23299, Note_on_c, 0, 54, 47
2, 23299, Note_on_c, 0, 60, 49
2, 23299, Note_on_c, 0, 62, 54
2, 23318, Note_on_c, 0, 81, 47
2, 23319, Note_on_c, 0, 74, 0
2, 23353, Note_on_c, 0, 62, 0
2, 23353, Note_on_c, 0, 60, 0
2, 23353, Note_on_c, 0, 66, 0
2, 23353, Note_on_c, 0, 54, 0
2, 23363, Note_on_c, 0, 57, 47
2, 23369, Note_on_c, 0, 69, 51
2, 23371, Note_on_c, 0, 81, 0
2, 23405, Note_on_c, 0, 58, 54
2, 23406, Note_on_c, 0, 57, 0
2, 23406, Control_c, 0, 64, 127
2, 23406, Note_on_c, 0, 70, 53
2, 23407, Note_on_c, 0, 69, 0
2, 23442, Note_on_c, 0, 45, 47
2, 23442, Note_on_c, 0, 60, 51
2, 23442, Note_on_c, 0, 72, 51
2, 23443, Note_on_c, 0, 57, 53
2, 23444, Note_on_c, 0, 58, 0
2, 23445, Note_on_c, 0, 70, 0
2, 23480, Control_c, 0, 64, 0
2, 23514, Note_on_c, 0, 58, 48
2, 23515, Note_on_c, 0, 70, 52
2, 23517, Note_on_c, 0, 72, 0
2, 23517, Note_on_c, 0, 45, 0
2, 23517, Note_on_c, 0, 60, 0
2, 23517, Note_on_c, 0, 57, 0
2, 23586, Note_on_c, 0, 54, 53
2, 23586, Note_on_c, 0, 57, 48
2, 23586, Note_on_c, 0, 62, 52
2, 23586, Note_on_c, 0, 69, 49
2, 23589, Note_on_c, 0, 70, 0
2, 23589, Note_on_c, 0, 58, 0
2, 23659, Note_on_c, 0, 72, 50
2, 23660, Note_on_c, 0, 62, 0
2, 23660, Note_on_c, 0, 60, 47
2, 23661, Note_on_c, 0, 54, 0
2, 23661, Note_on_c, 0, 57, 0
2, 23661, Note_on_c, 0, 69, 0
2, 23733, Note_on_c, 0, 38, 47
2, 23733, Note_on_c, 0, 50, 52
2, 23808, Note_on_c, 0, 58, 51
2, 23810, Note_on_c, 0, 38, 0
2, 23810, Note_on_c, 0, 60, 0
2, 23810, Note_on_c, 0, 72, 0
2, 23810, Note_on_c, 0, 70, 54
2, 23830, Note_on_c, 0, 50, 0
2, 23845, Control_c, 0, 67, 127
2, 23880, Note_on_c, 0, 42, 52
2, 23880, Note_on_c, 0, 54, 53
2, 23880, Note_on_c, 0, 57, 49
2, 23880, Note_on_c, 0, 69, 53
2, 23881, Note_on_c, 0, 58, 0
2, 23882, Note_on_c, 0, 70, 0
2, 23918, Control_c, 0, 67, 0
2, 23934, Note_on_c, 0, 57, 0
2, 23934, Note_on_c, 0, 54, 0
2, 23934, Note_on_c, 0, 42, 0
2, 23952, Note_on_c, 0, 69, 0
2, 23967, Control_c, 0, 64, 127
2, 24024, Note_on_c, 0, 58, 51
2, 24024, Note_on_c, 0, 43, 53
2, 24024, Note_on_c, 0, 55, 49
2, 24024, Note_on_c, 0, 70, 49
2, 24045, Control_c, 0, 67, 127
2, 24083, Note_on_c, 0, 43, 0
2, 24083, Note_on_c, 0, 58, 0
2, 24084, Note_on_c, 0, 70, 0
2, 24100, Note_on_c, 0, 55, 0
2, 24173, Note_on_c, 0, 55, 48
2, 24173, Note_on_c, 0, 58, 48
2, 24173, Note_on_c, 0, 62, 51
2, 24173, Note_on_c, 0, 69, 54
2, 24192, Note_on_c, 0, 55, 0
2, 24211, Control_c, 0, 64, 0
2, 24240, Note_on_c, 0, 67, 49
2, 24241, Note_on_c, 0, 55, 52
2, 24246, Note_on_c, 0, 58, 0
2, 24246, Note_on_c, 0, 62, 0
2, 24247, Note_on_c, 0, 69, 0
2, 24297, Control_c, 0, 67, 0
2, 24311, Note_on_c, 0, 34, 47
2, 24382, Note_on_c, 0, 46, 66
2, 24382, Note_on_c, 0, 62, 61
2, 24383, Note_on_c, 0, 74, 64
2, 24384, Note_on_c, 0, 34, 0
2, 24436, Note_on_c, 0, 62, 0
2, 24436, Note_on_c, 0, 46, 0
2, 24436, Note_on_c, 0, 67, 0
2, 24451, Note_on_c, 0, 55, 0
2, 24452, Note_on_c, 0, 38, 61
2, 24453, Note_on_c, 0, 70, 65
2, 24453, Note_on_c, 0, 82, 65
2, 24455, Note_on_c, 0, 74, 0
2, 24519, Note_on_c, 0, 55, 60
2, 24520, Note_on_c, 0, 50, 60
2, 24520, Note_on_c, 0, 67, 60
2, 24522, Note_on_c, 0, 38, 0
2, 24522, Note_on_c, 0, 70, 0
2, 24540, Note_on_c, 0, 82, 0
2, 24553, Note_on_c, 0, 57, 64
2, 24553, Note_on_c, 0, 69, 61
2, 24588, Note_on_c, 0, 43, 61
2, 24588, Note_on_c, 0, 58, 60
2, 24589, Note_on_c, 0, 70, 61
2, 24590, Note_on_c, 0, 55, 0
2, 24590, Note_on_c, 0, 50, 0
2, 24591, Note_on_c, 0, 57, 0
2, 24591, Note_on_c, 0, 69, 0
2, 24591, Note_on_c, 0, 67, 0
2, 24658, Note_on_c, 0, 55, 64
2, 24658, Note_on_c, 0, 57, 64
2, 24658, Note_on_c, 0, 69, 65
2, 24660, Note_on_c, 0, 70, 0
2, 24660, Note_on_c, 0, 43, 0
2, 24660, Note_on_c, 0, 58, 0
2, 24674, Note_on_c, 0, 55, 0
2, 24727, Note_on_c, 0, 55, 61
2, 24727, Note_on_c, 0, 58, 59
2, 24727, Note_on_c, 0, 62, 61
2, 24727, Note_on_c, 0, 67, 64
2, 24728, Note_on_c, 0, 57, 0
2, 24728, Note_on_c, 0, 69, 0
2, 24792, Note_on_c, 0, 57, 60
2, 24792, Note_on_c, 0, 69, 62
2, 24794, Note_on_c, 0, 58, 0
2, 24809, Note_on_c, 0, 62, 0
2, 24809, Note_on_c, 0, 55, 0
2, 24809, Note_on_c, 0, 67, 0
2, 24842, Note_on_c, 0, 69, 0
2, 24842, Note_on_c, 0, 57, 0
2, 24855, Note_on_c, 0, 38, 60
2, 24855, Note_on_c, 0, 50, 60
2, 24855, Note_on_c, 0, 58, 64
2, 24856, Note_on_c, 0, 70, 66
2, 24922, Note_on_c, 0, 60, 66
2, 24922, Note_on_c, 0, 72, 64
2, 24924, Note_on_c, 0, 50, 0
2, 24939, Note_on_c, 0, 38, 0
2, 24939, Note_on_c, 0, 58, 0
2, 24940, Note_on_c, 0, 70, 0
2, 24990, Note_on_c, 0, 55, 65
2, 24990, Note_on_c, 0, 62, 64
2, 24991, Note_on_c, 0, 60, 0
2, 24991, Note_on_c, 0, 58, 61
2, 25008, Note_on_c, 0, 62, 0
2, 25061, Note_on_c, 0, 62, 66
2, 25061, Note_on_c, 0, 74, 61
2, 25063, Note_on_c, 0, 72, 0
2, 25063, Note_on_c, 0, 58, 0
2, 25113, Note_on_c, 0, 55, 0
2, 25127, Note_on_c, 0, 36, 67
2, 25127, Note_on_c, 0, 48, 64
2, 25128, Note_on_c, 0, 62, 0
2, 25128, Note_on_c, 0, 63, 61
2, 25128, Note_on_c, 0, 75, 65
2, 25129, Note_on_c, 0, 74, 0
2, 25197, Note_on_c, 0, 63, 0
2, 25197, Note_on_c, 0, 36, 0
2, 25212, Note_on_c, 0, 48, 0
2, 25213, Note_on_c, 0, 75, 0
2, 25263, Note_on_c, 0, 55, 64
2, 25263, Note_on_c, 0, 60, 65
2, 25263, Note_on_c, 0, 63, 65
2, 25263, Note_on_c, 0, 74, 61
2, 25279, Note_on_c, 0, 60, 0
2, 25334, Note_on_c, 0, 60, 67
2, 25334, Note_on_c, 0, 72, 66
2, 25335, Note_on_c, 0, 55, 0
2, 25336, Note_on_c, 0, 74, 0
2, 25336, Note_on_c, 0, 63, 0
2, 25405, Note_on_c, 0, 39, 65
2, 25406, Note_on_c, 0, 51, 62
2, 25475, Note_on_c, 0, 67, 68
2, 25475, Note_on_c, 0, 79, 68
2, 25478, Note_on_c, 0, 39, 0
2, 25494, Note_on_c, 0, 60, 0
2, 25528, Note_on_c, 0, 51, 0
2, 25543, Note_on_c, 0, 55, 68
2, 25543, Note_on_c, 0, 60, 61
2, 25543, Note_on_c, 0, 63, 67
2, 25543, Note_on_c, 0, 87, 66
2, 25544, Note_on_c, 0, 75, 68
2, 25545, Note_on_c, 0, 67, 0
2, 25545, Note_on_c, 0, 79, 0
2, 25561, Note_on_c, 0, 60, 0
2, 25562, Note_on_c, 0, 72, 0
2, 25616, Note_on_c, 0, 72, 63
2, 25635, Note_on_c, 0, 60, 64
2, 25636, Note_on_c, 0, 87, 0
2, 25636, Note_on_c, 0, 75, 0
2, 25636, Note_on_c, 0, 63, 0
2, 25655, Note_on_c, 0, 62, 60
2, 25655, Note_on_c, 0, 74, 61
2, 25674, Note_on_c, 0, 55, 0
2, 25692, Note_on_c, 0, 36, 66
2, 25692, Note_on_c, 0, 48, 61
2, 25693, Note_on_c, 0, 63, 66
2, 25712, Note_on_c, 0, 62, 0
2, 25712, Note_on_c, 0, 60, 0
2, 25712, Note_on_c, 0, 72, 0
2, 25712, Note_on_c, 0, 75, 65
2, 25730, Note_on_c, 0, 74, 0
2, 25763, Note_on_c, 0, 62, 60
2, 25763, Note_on_c, 0, 74, 62
2, 25765, Note_on_c, 0, 36, 0
2, 25765, Note_on_c, 0, 63, 0
2, 25766, Note_on_c, 0, 75, 0
2, 25782, Note_on_c, 0, 48, 0
2, 25831, Note_on_c, 0, 55, 63
2, 25831, Note_on_c, 0, 60, 66
2, 25831, Note_on_c, 0, 63, 63
2, 25831, Note_on_c, 0, 72, 63
2, 25832, Note_on_c, 0, 57, 64
2, 25833, Note_on_c, 0, 74, 0
2, 25833, Note_on_c, 0, 62, 0
2, 25903, Note_on_c, 0, 58, 61
2, 25904, Note_on_c, 0, 70, 65
2, 25905, Note_on_c, 0, 55, 0
2, 25905, Note_on_c, 0, 72, 0
2, 25905, Note_on_c, 0, 60, 0
2, 25905, Note_on_c, 0, 63, 0
2, 25905, Note_on_c, 0, 57, 0
2, 25976, Note_on_c, 0, 39, 67
2, 25976, Note_on_c, 0, 51, 64
2, 25977, Note_on_c, 0, 57, 66
2, 25978, Note_on_c, 0, 69, 62
2, 25979, Note_on_c, 0, 58, 0
2, 25980, Note_on_c, 0, 70, 0
2, 26032, Note_on_c, 0, 39, 0
2, 26046, Note_on_c, 0, 55, 66
2, 26047, Note_on_c, 0, 67, 64
2, 26049, Note_on_c, 0, 57, 0
2, 26050, Note_on_c, 0, 69, 0
2, 26064, Note_on_c, 0, 55, 0
2, 26065, Note_on_c, 0, 51, 0
2, 26112, Note_on_c, 0, 55, 60
2, 26112, Note_on_c, 0, 60, 67
2, 26113, Note_on_c, 0, 57, 66
2, 26133, Note_on_c, 0, 57, 0
2, 26149, Note_on_c, 0, 67, 0
2, 26165, Note_on_c, 0, 60, 0
2, 26182, Note_on_c, 0, 57, 64
2, 26182, Note_on_c, 0, 69, 61
2, 26201, Note_on_c, 0, 55, 0
2, 26253, Note_on_c, 0, 38, 60
2, 26253, Note_on_c, 0, 50, 64
2, 26253, Note_on_c, 0, 66, 59
2, 26254, Note_on_c, 0, 57, 0
2, 26254, Note_on_c, 0, 54, 66
2, 26255, Note_on_c, 0, 69, 0
2, 26307, Note_on_c, 0, 66, 0
2, 26307, Note_on_c, 0, 54, 0
2, 26326, Note_on_c, 0, 38, 0
2, 26327, Note_on_c, 0, 50, 0
2, 26394, Note_on_c, 0, 48, 59
2, 26394, Note_on_c, 0, 57, 66
2, 26394, Note_on_c, 0, 60, 66
2, 26394, Note_on_c, 0, 69, 63
2, 26464, Note_on_c, 0, 62, 59
2, 26464, Note_on_c, 0, 66, 63
2, 26464, Note_on_c, 0, 74, 64
2, 26465, Note_on_c, 0, 60, 0
2, 26466, Note_on_c, 0, 69, 0
2, 26466, Note_on_c, 0, 57, 0
2, 26501, Note_on_c, 0, 48, 0
2, 26535, Note_on_c, 0, 46, 60
2, 26535, Note_on_c, 0, 58, 63
2, 26592, Note_on_c, 0, 58, 0
2, 26592, Note_on_c, 0, 46, 0
2, 26674, Note_on_c, 0, 45, 66
2, 26675, Note_on_c, 0, 57, 61
2, 26741, Note_on_c, 0, 79, 58
2, 26741, Note_on_c, 0, 91, 54
2, 26743, Note_on_c, 0, 57, 0
2, 26744, Note_on_c, 0, 66, 0
2, 26759, Note_on_c, 0, 45, 0
2, 26760, Note_on_c, 0, 74, 0
2, 26774, Note_on_c, 0, 81, 58
2, 26774, Note_on_c, 0, 93, 55
2, 26793, Note_on_c, 0, 62, 0
2, 26808, Note_on_c, 0, 43, 57
2, 26809, Note_on_c, 0, 55, 53
2, 26809, Note_on_c, 0, 82, 53
2, 26809, Note_on_c, 0, 94, 60
2, 26811, Note_on_c, 0, 81, 0
2, 26812, Note_on_c, 0, 93, 0
2, 26827, Control_c, 0, 67, 127
2, 26828, Note_on_c, 0, 79, 0
2, 26829, Note_on_c, 0, 91, 0
2, 26863, Note_on_c, 0, 55, 0
2, 26881, Note_on_c, 0, 93, 54
2, 26882, Note_on_c, 0, 81, 55
2, 26883, Note_on_c, 0, 82, 0
2, 26884, Note_on_c, 0, 94, 0
2, 26903, Note_on_c, 0, 43, 0
2, 26956, Note_on_c, 0, 62, 57
2, 26957, Note_on_c, 0, 55, 55
2, 26957, Note_on_c, 0, 58, 60
2, 26957, Note_on_c, 0, 79, 58
2, 26957, Note_on_c, 0, 91, 53
2, 26958, Note_on_c, 0, 81, 0
2, 26959, Note_on_c, 0, 93, 0
2, 27026, Note_on_c, 0, 94, 57
2, 27027, Note_on_c, 0, 82, 54
2, 27029, Note_on_c, 0, 58, 0
2, 27030, Note_on_c, 0, 91, 0
2, 27046, Note_on_c, 0, 62, 0
2, 27046, Note_on_c, 0, 79, 0
2, 27079, Note_on_c, 0, 55, 0
2, 27093, Note_on_c, 0, 38, 60
2, 27093, Note_on_c, 0, 50, 56
2, 27114, Note_on_c, 0, 94, 0
2, 27130, Note_on_c, 0, 82, 0
2, 27149, Note_on_c, 0, 50, 0
2, 27165, Note_on_c, 0, 38, 0
2, 27165, Note_on_c, 0, 81, 58
2, 27165, Note_on_c, 0, 93, 54
2, 27224, Control_c, 0, 67, 0
2, 27240, Note_on_c, 0, 55, 55
2, 27240, Note_on_c, 0, 58, 59
2, 27240, Note_on_c, 0, 62, 54
2, 27240, Note_on_c, 0, 79, 55
2, 27240, Note_on_c, 0, 91, 55
2, 27242, Note_on_c, 0, 93, 0
2, 27261, Note_on_c, 0, 81, 0
2, 27314, Note_on_c, 0, 58, 0
2, 27314, Note_on_c, 0, 55, 0
2, 27315, Note_on_c, 0, 79, 0
2, 27315, Note_on_c, 0, 62, 0
2, 27316, Note_on_c, 0, 91, 0
2, 27383, Control_c, 0, 64, 127
2, 27383, Note_on_c, 0, 42, 57
2, 27383, Note_on_c, 0, 54, 55
2, 27384, Note_on_c, 0, 93, 69
2, 27403, Note_on_c, 0, 81, 65
2, 27422, Note_on_c, 0, 42, 0
2, 27440, Note_on_c, 0, 54, 0
2, 27441, Note_on_c, 0, 93, 0
2, 27456, Control_c, 0, 64, 0
2, 27457, Note_on_c, 0, 81, 0
2, 27529, Note_on_c, 0, 54, 54
2, 27529, Note_on_c, 0, 60, 57
2, 27529, Note_on_c, 0, 62, 53
2, 27530, Note_on_c, 0, 79, 60
2, 27530, Note_on_c, 0, 91, 60
2, 27600, Note_on_c, 0, 78, 60
2, 27601, Note_on_c, 0, 62, 0
2, 27601, Note_on_c, 0, 54, 0
2, 27601, Note_on_c, 0, 60, 0
2, 27601, Note_on_c, 0, 90, 59
2, 27602, Note_on_c, 0, 79, 0
2, 27603, Note_on_c, 0, 91, 0
2, 27669, Note_on_c, 0, 38, 59
2, 27669, Note_on_c, 0, 50, 59
2, 27673, Note_on_c, 0, 90, 0
2, 27725, Note_on_c, 0, 50, 0
2, 27740, Note_on_c, 0, 86, 54
2, 27742, Note_on_c, 0, 38, 0
2, 27812, Note_on_c, 0, 62, 54
2, 27813, Note_on_c, 0, 54, 53
2, 27813, Note_on_c, 0, 60, 55
2, 27814, Note_on_c, 0, 93, 57
2, 27815, Note_on_c, 0, 86, 0
2, 27870, Note_on_c, 0, 54, 0
2, 27902, Note_on_c, 0, 81, 57
2, 27903, Note_on_c, 0, 60, 0
2, 27904, Note_on_c, 0, 78, 0
2, 27904, Note_on_c, 0, 62, 0
2, 27905, Note_on_c, 0, 93, 0
2, 27920, Note_on_c, 0, 81, 0
2, 27920, Note_on_c, 0, 82, 60
2, 27920, Note_on_c, 0, 94, 55
2, 27920, Control_c, 0, 67, 127
2, 27954, Note_on_c, 0, 57, 55
2, 27954, Note_on_c, 0, 84, 60
2, 27954, Note_on_c, 0, 96, 55
2, 27969, Note_on_c, 0, 45, 55
2, 27972, Note_on_c, 0, 94, 0
2, 27972, Note_on_c, 0, 82, 0
2, 27973, Control_c, 0, 67, 0
2, 28006, Note_on_c, 0, 57, 0
2, 28006, Note_on_c, 0, 45, 0
2, 28019, Note_on_c, 0, 94, 56
2, 28020, Note_on_c, 0, 82, 57
2, 28020, Control_c, 0, 67, 127
2, 28022, Note_on_c, 0, 84, 0
2, 28023, Note_on_c, 0, 96, 0
2, 28089, Note_on_c, 0, 60, 53
2, 28089, Note_on_c, 0, 62, 59
2, 28089, Note_on_c, 0, 93, 56
2, 28090, Note_on_c, 0, 54, 56
2, 28091, Note_on_c, 0, 94, 0
2, 28091, Note_on_c, 0, 82, 0
2, 28106, Note_on_c, 0, 81, 60
2, 28143, Note_on_c, 0, 54, 0
2, 28158, Note_on_c, 0, 96, 55
2, 28159, Note_on_c, 0, 84, 56
2, 28160, Note_on_c, 0, 60, 0
2, 28160, Note_on_c, 0, 93, 0
2, 28176, Note_on_c, 0, 62, 0
2, 28177, Note_on_c, 0, 81, 0
2, 28211, Note_on_c, 0, 38, 54
2, 28230, Note_on_c, 0, 50, 53
2, 28249, Note_on_c, 0, 84, 0
2, 28250, Note_on_c, 0, 96, 0
2, 28297, Note_on_c, 0, 82, 54
2, 28297, Note_on_c, 0, 94, 56
2, 28301, Note_on_c, 0, 38, 0
2, 28301, Note_on_c, 0, 50, 0
2, 28333, Note_on_c, 0, 42, 59
2, 28368, Note_on_c, 0, 81, 53
2, 28368, Note_on_c, 0, 93, 54
2, 28370, Note_on_c, 0, 94, 0
2, 28386, Note_on_c, 0, 82, 0
2, 28423, Note_on_c, 0, 42, 0
2, 28439, Note_on_c, 0, 93, 0
2, 28456, Note_on_c, 0, 81, 0
2, 28488, Note_on_c, 0, 43, 58
2, 28489, Control_c, 0, 64, 127
2, 28489, Note_on_c, 0, 82, 72
2, 28505, Note_on_c, 0, 55, 57
2, 28505, Note_on_c, 0, 94, 69
2, 28525, Control_c, 0, 67, 0
2, 28574, Note_on_c, 0, 55, 0
2, 28574, Note_on_c, 0, 43, 0
2, 28574, Note_on_c, 0, 82, 0
2, 28574, Control_c, 0, 64, 0
2, 28575, Note_on_c, 0, 94, 0
2, 28637, Note_on_c, 0, 55, 57
2, 28637, Note_on_c, 0, 58, 60
2, 28637, Note_on_c, 0, 62, 54
2, 28637, Note_on_c, 0, 93, 60
2, 28638, Note_on_c, 0, 81, 60
2, 28704, Note_on_c, 0, 79, 56
2, 28704, Note_on_c, 0, 91, 60
2, 28709, Note_on_c, 0, 93, 0
2, 28724, Note_on_c, 0, 81, 0
2, 28724, Note_on_c, 0, 62, 0
2, 28724, Note_on_c, 0, 58, 0
2, 28757, Note_on_c, 0, 55, 0
2, 28775, Note_on_c, 0, 34, 58
2, 28776, Note_on_c, 0, 91, 0
2, 28846, Note_on_c, 0, 46, 57
2, 28847, Note_on_c, 0, 86, 53
2, 28848, Note_on_c, 0, 34, 0
2, 28913, Note_on_c, 0, 38, 60
2, 28914, Note_on_c, 0, 94, 55
2, 28916, Note_on_c, 0, 79, 0
2, 28916, Note_on_c, 0, 46, 0
2, 28917, Note_on_c, 0, 86, 0
2, 28982, Note_on_c, 0, 79, 56
2, 28982, Note_on_c, 0, 91, 54
2, 28983, Note_on_c, 0, 50, 57
2, 28984, Note_on_c, 0, 38, 0
2, 28985, Note_on_c, 0, 94, 0
2, 29017, Note_on_c, 0, 81, 58
2, 29018, Note_on_c, 0, 93, 53
2, 29051, Note_on_c, 0, 43, 57
2, 29052, Note_on_c, 0, 82, 56
2, 29052, Note_on_c, 0, 94, 57
2, 29053, Note_on_c, 0, 50, 0
2, 29054, Note_on_c, 0, 81, 0
2, 29054, Note_on_c, 0, 91, 0
2, 29054, Note_on_c, 0, 79, 0
2, 29055, Note_on_c, 0, 93, 0
2, 29113, Note_on_c, 0, 81, 55
2, 29117, Note_on_c, 0, 55, 55
2, 29117, Note_on_c, 0, 93, 53
2, 29124, Note_on_c, 0, 94, 0
2, 29136, Note_on_c, 0, 55, 0
2, 29137, Note_on_c, 0, 82, 0
2, 29137, Note_on_c, 0, 43, 0
2, 29183, Note_on_c, 0, 62, 56
2, 29186, Note_on_c, 0, 58, 60
2, 29186, Note_on_c, 0, 79, 55
2, 29186, Note_on_c, 0, 91, 54
2, 29187, Note_on_c, 0, 55, 53
2, 29189, Note_on_c, 0, 93, 0
2, 29205, Note_on_c, 0, 81, 0
2, 29254, Note_on_c, 0, 81, 53
2, 29254, Note_on_c, 0, 93, 60
2, 29257, Note_on_c, 0, 58, 0
2, 29257, Note_on_c, 0, 79, 0
2, 29257, Note_on_c, 0, 62, 0
2, 29258, Note_on_c, 0, 91, 0
2, 29274, Note_on_c, 0, 55, 0
2, 29326, Note_on_c, 0, 38, 57
2, 29326, Note_on_c, 0, 50, 54
2, 29326, Note_on_c, 0, 82, 53
2, 29326, Note_on_c, 0, 94, 58
2, 29328, Note_on_c, 0, 93, 0
2, 29363, Note_on_c, 0, 81, 0
2, 29380, Note_on_c, 0, 50, 0
2, 29380, Note_on_c, 0, 94, 0
2, 29393, Note_on_c, 0, 96, 55
2, 29394, Note_on_c, 0, 84, 57
2, 29396, Note_on_c, 0, 82, 0
2, 29414, Note_on_c, 0, 38, 0
2, 29465, Note_on_c, 0, 55, 58
2, 29465, Note_on_c, 0, 58, 57
2, 29465, Note_on_c, 0, 62, 60
2, 29466, Note_on_c, 0, 84, 0
2, 29467, Note_on_c, 0, 96, 0
2, 29529, Note_on_c, 0, 86, 56
2, 29529, Note_on_c, 0, 98, 61
2, 29549, Note_on_c, 0, 58, 0
2, 29549, Note_on_c, 0, 62, 0
2, 29549, Note_on_c, 0, 55, 0
2, 29597, Note_on_c, 0, 36, 55
2, 29597, Note_on_c, 0, 87, 60
2, 29597, Note_on_c, 0, 99, 57
2, 29598, Note_on_c, 0, 48, 54
2, 29599, Note_on_c, 0, 86, 0
2, 29600, Note_on_c, 0, 98, 0
2, 29655, Note_on_c, 0, 99, 0
2, 29655, Note_on_c, 0, 87, 0
2, 29673, Note_on_c, 0, 48, 0
2, 29673, Note_on_c, 0, 36, 0
2, 29742, Note_on_c, 0, 60, 61
2, 29743, Note_on_c, 0, 55, 60
2, 29743, Note_on_c, 0, 63, 55
2, 29743, Note_on_c, 0, 86, 61
2, 29743, Note_on_c, 0, 98, 60
2, 29811, Note_on_c, 0, 84, 56
2, 29811, Note_on_c, 0, 96, 55
2, 29815, Note_on_c, 0, 98, 0
2, 29831, Note_on_c, 0, 86, 0
2, 29831, Note_on_c, 0, 60, 0
2, 29832, Note_on_c, 0, 63, 0
2, 29846, Note_on_c, 0, 55, 0
2, 29877, Note_on_c, 0, 39, 70
2, 29878, Note_on_c, 0, 51, 69
2, 29881, Note_on_c, 0, 96, 0
2, 29947, Note_on_c, 0, 91, 55
2, 29967, Note_on_c, 0, 39, 0
2, 29984, Note_on_c, 0, 51, 0
2, 30002, Note_on_c, 0, 91, 0
2, 30018, Note_on_c, 0, 55, 71
2, 30018, Note_on_c, 0, 99, 74
2, 30019, Note_on_c, 0, 60, 70
2, 30019, Note_on_c, 0, 63, 68
2, 30037, Note_on_c, 0, 84, 0
2, 30089, Note_on_c, 0, 94, 68
2, 30090, Note_on_c, 0, 82, 69
2, 30094, Note_on_c, 0, 99, 0
2, 30109, Note_on_c, 0, 60, 0
2, 30109, Note_on_c, 0, 55, 0
2, 30110, Note_on_c, 0, 63, 0
2, 30124, Note_on_c, 0, 84, 67
2, 30124, Note_on_c, 0, 96, 72
2, 30144, Note_on_c, 0, 94, 0
2, 30158, Note_on_c, 0, 38, 67
2, 30159, Note_on_c, 0, 50, 66
2, 30159, Note_on_c, 0, 86, 67
2, 30159, Note_on_c, 0, 98, 69
2, 30161, Note_on_c, 0, 82, 0
2, 30178, Note_on_c, 0, 84, 0
2, 30179, Note_on_c, 0, 96, 0
2, 30227, Note_on_c, 0, 84, 72
2, 30228, Note_on_c, 0, 38, 0
2, 30230, Note_on_c, 0, 98, 0
2, 30244, Note_on_c, 0, 96, 73
2, 30245, Note_on_c, 0, 86, 0
2, 30245, Note_on_c, 0, 50, 0
2, 30299, Note_on_c, 0, 55, 70
2, 30299, Note_on_c, 0, 58, 73
2, 30299, Note_on_c, 0, 62, 73
2, 30299, Note_on_c, 0, 82, 71
2, 30300, Note_on_c, 0, 94, 68
2, 30302, Note_on_c, 0, 96, 0
2, 30319, Note_on_c, 0, 84, 0
2, 30374, Note_on_c, 0, 93, 66
2, 30375, Note_on_c, 0, 58, 0
2, 30376, Note_on_c, 0, 82, 0
2, 30377, Note_on_c, 0, 94, 0
2, 30392, Note_on_c, 0, 81, 72
2, 30393, Note_on_c, 0, 55, 0
2, 30393, Note_on_c, 0, 62, 0
2, 30445, Note_on_c, 0, 38, 68
2, 30445, Note_on_c, 0, 50, 72
2, 30466, Note_on_c, 0, 93, 0
2, 30466, Note_on_c, 0, 81, 0
2, 30515, Note_on_c, 0, 96, 68
2, 30516, Note_on_c, 0, 84, 67
2, 30535, Note_on_c, 0, 50, 0
2, 30536, Note_on_c, 0, 38, 0
2, 30589, Note_on_c, 0, 54, 71
2, 30589, Note_on_c, 0, 60, 67
2, 30589, Note_on_c, 0, 62, 71
2, 30589, Note_on_c, 0, 82, 67
2, 30589, Note_on_c, 0, 94, 68
2, 30591, Note_on_c, 0, 84, 0
2, 30592, Note_on_c, 0, 96, 0
2, 30646, Note_on_c, 0, 54, 0
2, 30664, Note_on_c, 0, 62, 0
2, 30664, Note_on_c, 0, 60, 0
2, 30664, Note_on_c, 0, 93, 71
2, 30665, Note_on_c, 0, 82, 0
2, 30665, Note_on_c, 0, 94, 0
2, 30682, Note_on_c, 0, 81, 71
2, 30736, Note_on_c, 0, 58, 71
2, 30736, Note_on_c, 0, 62, 71
2, 30737, Note_on_c, 0, 55, 71
2, 30737, Note_on_c, 0, 79, 70
2, 30737, Note_on_c, 0, 91, 69
2, 30757, Note_on_c, 0, 93, 0
2, 30775, Note_on_c, 0, 81, 0
2, 30790, Note_on_c, 0, 79, 0
2, 30791, Note_on_c, 0, 91, 0
2, 30872, Note_on_c, 0, 93, 71
2, 30888, Note_on_c, 0, 81, 65
2, 30941, Note_on_c, 0, 82, 68
2, 30941, Note_on_c, 0, 94, 65
2, 30942, Note_on_c, 0, 55, 0
2, 30943, Note_on_c, 0, 62, 0
2, 30943, Note_on_c, 0, 58, 0
2, 30944, Note_on_c, 0, 81, 0
2, 30944, Note_on_c, 0, 93, 0
2, 31014, Note_on_c, 0, 57, 47
2, 31015, Note_on_c, 0, 63, 47
2, 31015, Note_on_c, 0, 84, 69
2, 31015, Note_on_c, 0, 96, 67
2, 31017, Note_on_c, 0, 82, 0
2, 31017, Note_on_c, 0, 94, 0
2, 31034, Note_on_c, 0, 53, 44
2, 31073, Note_on_c, 0, 53, 0
2, 31092, Note_on_c, 0, 84, 0
2, 31092, Note_on_c, 0, 96, 0
2, 31143, Note_on_c, 0, 41, 63
2, 31143, Note_on_c, 0, 53, 64
2, 31215, Note_on_c, 0, 57, 0
2, 31216, Note_on_c, 0, 63, 0
2, 31233, Note_on_c, 0, 41, 0
2, 31251, Note_on_c, 0, 84, 70
2, 31251, Note_on_c, 0, 96, 71
2, 31252, Note_on_c, 0, 53, 0
2, 31268, Note_on_c, 0, 85, 65
2, 31268, Note_on_c, 0, 97, 70
2, 31268, Note_on_c, 0, 98, 72
2, 31287, Note_on_c, 0, 34, 72
2, 31287, Note_on_c, 0, 86, 70
2, 31288, Note_on_c, 0, 84, 0
2, 31289, Note_on_c, 0, 96, 0
2, 31324, Note_on_c, 0, 85, 0
2, 31325, Note_on_c, 0, 97, 0
2, 31340, Note_on_c, 0, 34, 0
2, 31354, Note_on_c, 0, 46, 69
2, 31356, Note_on_c, 0, 86, 0
2, 31357, Note_on_c, 0, 98, 0
2, 31422, Note_on_c, 0, 38, 67
2, 31426, Note_on_c, 0, 46, 0
2, 31474, Note_on_c, 0, 50, 71
2, 31494, Note_on_c, 0, 38, 0
2, 31547, Note_on_c, 0, 39, 65
2, 31547, Note_on_c, 0, 67, 70
2, 31547, Note_on_c, 0, 72, 70
2, 31549, Note_on_c, 0, 50, 0
2, 31617, Note_on_c, 0, 51, 68
2, 31617, Note_on_c, 0, 73, 41
2, 31618, Note_on_c, 0, 70, 44
2, 31619, Note_on_c, 0, 39, 0
2, 31619, Note_on_c, 0, 67, 0
2, 31654, Note_on_c, 0, 72, 0
2, 31685, Note_on_c, 0, 40, 65
2, 31685, Note_on_c, 0, 52, 63
2, 31704, Note_on_c, 0, 70, 0
2, 31705, Note_on_c, 0, 73, 0
2, 31738, Note_on_c, 0, 51, 0
2, 31752, Note_on_c, 0, 65, 77
2, 31752, Note_on_c, 0, 70, 82
2, 31752, Note_on_c, 0, 74, 78
2, 31754, Note_on_c, 0, 40, 0
2, 31819, Note_on_c, 0, 41, 59
2, 31819, Note_on_c, 0, 53, 62
2, 31838, Note_on_c, 0, 52, 0
2, 31891, Note_on_c, 0, 53, 0
2, 31892, Note_on_c, 0, 74, 0
2, 31892, Note_on_c, 0, 70, 0
2, 31892, Note_on_c, 0, 41, 0
2, 31909, Note_on_c, 0, 65, 0
2, 31963, Note_on_c, 0, 58, 57
2, 31963, Note_on_c, 0, 73, 56
2, 31963, Note_on_c, 0, 79, 57
2, 32037, Note_on_c, 0, 74, 57
2, 32037, Note_on_c, 0, 77, 54
2, 32038, Note_on_c, 0, 79, 0
2, 32038, Note_on_c, 0, 58, 0
2, 32038, Note_on_c, 0, 73, 0
2, 32109, Note_on_c, 0, 38, 53
2, 32110, Note_on_c, 0, 50, 54
2, 32131, Note_on_c, 0, 74, 0
2, 32164, Note_on_c, 0, 77, 0
2, 32182, Note_on_c, 0, 74, 59
2, 32182, Note_on_c, 0, 82, 56
2, 32183, Note_on_c, 0, 38, 0
2, 32183, Note_on_c, 0, 50, 0
2, 32253, Note_on_c, 0, 53, 53
2, 32253, Note_on_c, 0, 58, 55
2, 32253, Note_on_c, 0, 62, 55
2, 32325, Note_on_c, 0, 62, 0
2, 32325, Note_on_c, 0, 53, 0
2, 32325, Note_on_c, 0, 58, 0
2, 32326, Note_on_c, 0, 74, 0
2, 32326, Note_on_c, 0, 82, 0
2, 32352, Note_on_c, 0, 84, 66
2, 32356, Note_on_c, 0, 72, 68
2, 32375, Note_on_c, 0, 73, 71
2, 32375, Note_on_c, 0, 85, 71
2, 32389, Note_on_c, 0, 34, 72
2, 32390, Note_on_c, 0, 74, 68
2, 32390, Note_on_c, 0, 86, 67
2, 32392, Note_on_c, 0, 84, 0
2, 32409, Note_on_c, 0, 72, 0
2, 32410, Note_on_c, 0, 73, 0
2, 32443, Note_on_c, 0, 85, 0
2, 32455, Note_on_c, 0, 46, 68
2, 32457, Note_on_c, 0, 34, 0
2, 32458, Note_on_c, 0, 86, 0
2, 32458, Note_on_c, 0, 74, 0
2, 32525, Note_on_c, 0, 38, 65
2, 32526, Note_on_c, 0, 46, 0
2, 32598, Note_on_c, 0, 50, 69
2, 32600, Note_on_c, 0, 38, 0
2, 32667, Note_on_c, 0, 39, 72
2, 32667, Note_on_c, 0, 67, 58
2, 32668, Note_on_c, 0, 72, 60
2, 32670, Note_on_c, 0, 50, 0
2, 32735, Note_on_c, 0, 51, 61
2, 32735, Note_on_c, 0, 70, 65
2, 32735, Note_on_c, 0, 73, 66
2, 32736, Note_on_c, 0, 39, 0
2, 32737, Note_on_c, 0, 67, 0
2, 32738, Note_on_c, 0, 72, 0
2, 32802, Note_on_c, 0, 40, 60
2, 32802, Note_on_c, 0, 52, 59
2, 32822, Note_on_c, 0, 70, 0
2, 32822, Note_on_c, 0, 73, 0
2, 32839, Note_on_c, 0, 51, 0
2, 32873, Note_on_c, 0, 65, 72
2, 32874, Note_on_c, 0, 70, 66
2, 32874, Note_on_c, 0, 74, 72
2, 32875, Note_on_c, 0, 40, 0
2, 32945, Note_on_c, 0, 41, 65
2, 32947, Note_on_c, 0, 52, 0
2, 32962, Note_on_c, 0, 53, 64
2, 33017, Note_on_c, 0, 53, 0
2, 33017, Note_on_c, 0, 41, 0
2, 33017, Note_on_c, 0, 74, 0
2, 33017, Note_on_c, 0, 65, 0
2, 33018, Note_on_c, 0, 70, 0
2, 33085, Note_on_c, 0, 70, 62
2, 33155, Note_on_c, 0, 72, 61
2, 33174, Note_on_c, 0, 70, 0
2, 33226, Note_on_c, 0, 74, 60
2, 33244, Note_on_c, 0, 72, 0
2, 33291, Note_on_c, 0, 77, 55
2, 33312, Note_on_c, 0, 74, 0
2, 33360, Note_on_c, 0, 82, 60
2, 33360, Note_on_c, 0, 86, 57
2, 33360, Note_on_c, 0, 89, 61
2, 33361, Note_on_c, 0, 77, 0
2, 33432, Note_on_c, 0, 82, 0
2, 33432, Note_on_c, 0, 89, 0
2, 33447, Note_on_c, 0, 76, 43
2, 33448, Note_on_c, 0, 86, 0
2, 33465, Note_on_c, 0, 77, 49
2, 33484, Note_on_c, 0, 78, 47
2, 33503, Note_on_c, 0, 82, 45
2, 33503, Note_on_c, 0, 87, 45
2, 33503, Note_on_c, 0, 91, 43
2, 33504, Note_on_c, 0, 76, 0
2, 33504, Note_on_c, 0, 79, 48
2, 33524, Note_on_c, 0, 77, 0
2, 33542, Note_on_c, 0, 78, 0
2, 33578, Note_on_c, 0, 94, 50
2, 33579, Note_on_c, 0, 87, 0
2, 33579, Note_on_c, 0, 91, 0
2, 33579, Note_on_c, 0, 82, 0
2, 33652, Note_on_c, 0, 82, 44
2, 33652, Note_on_c, 0, 87, 44
2, 33652, Note_on_c, 0, 91, 49
2, 33654, Note_on_c, 0, 94, 0
2, 33724, Note_on_c, 0, 87, 0
2, 33724, Note_on_c, 0, 79, 0
2, 33724, Note_on_c, 0, 82, 0
2, 33724, Note_on_c, 0, 91, 0
2, 33740, Note_on_c, 0, 71, 57
2, 33757, Note_on_c, 0, 72, 57
2, 33776, Note_on_c, 0, 73, 61
2, 33780, Note_on_c, 0, 71, 0
2, 33793, Note_on_c, 0, 77, 59
2, 33794, Note_on_c, 0, 74, 58
2, 33794, Note_on_c, 0, 82, 55
2, 33795, Note_on_c, 0, 86, 57
2, 33796, Note_on_c, 0, 72, 0
2, 33815, Note_on_c, 0, 73, 0
2, 33869, Note_on_c, 0, 89, 58
2, 33871, Note_on_c, 0, 82, 0
2, 33871, Note_on_c, 0, 77, 0
2, 33871, Note_on_c, 0, 86, 0
2, 33942, Note_on_c, 0, 77, 58
2, 33942, Note_on_c, 0, 86, 61
2, 33943, Note_on_c, 0, 82, 62
2, 33945, Note_on_c, 0, 89, 0
2, 34014, Note_on_c, 0, 86, 0
2, 34014, Note_on_c, 0, 74, 0
2, 34014, Note_on_c, 0, 77, 0
2, 34014, Note_on_c, 0, 82, 0
2, 34028, Note_on_c, 0, 64, 56
2, 34046, Note_on_c, 0, 65, 43
2, 34063, Note_on_c, 0, 66, 46
2, 34082, Note_on_c, 0, 67, 48
2, 34082, Note_on_c, 0, 70, 47
2, 34082, Note_on_c, 0, 79, 49
2, 34083, Note_on_c, 0, 75, 50
2, 34102, Note_on_c, 0, 65, 0
2, 34102, Note_on_c, 0, 64, 0
2, 34120, Note_on_c, 0, 66, 0
2, 34156, Note_on_c, 0, 79, 0
2, 34156, Note_on_c, 0, 82, 49
2, 34157, Note_on_c, 0, 75, 0
2, 34157, Note_on_c, 0, 70, 0
2, 34227, Note_on_c, 0, 70, 49
2, 34228, Note_on_c, 0, 75, 43
2, 34228, Note_on_c, 0, 79, 49
2, 34230, Note_on_c, 0, 82, 0
2, 34300, Note_on_c, 0, 67, 0
2, 34300, Note_on_c, 0, 79, 0
2, 34300, Note_on_c, 0, 70, 0
2, 34301, Note_on_c, 0, 75, 0
2, 34317, Note_on_c, 0, 59, 65
2, 34334, Note_on_c, 0, 60, 67
2, 34353, Note_on_c, 0, 61, 67
2, 34354, Note_on_c, 0, 59, 0
2, 34372, Note_on_c, 0, 62, 64
2, 34372, Note_on_c, 0, 65, 56
2, 34372, Note_on_c, 0, 70, 55
2, 34372, Note_on_c, 0, 74, 58
2, 34392, Note_on_c, 0, 60, 0
2, 34413, Note_on_c, 0, 61, 0
2, 34447, Note_on_c, 0, 77, 58
2, 34449, Note_on_c, 0, 70, 0
2, 34449, Note_on_c, 0, 74, 0
2, 34467, Note_on_c, 0, 65, 0
2, 34521, Note_on_c, 0, 65, 53
2, 34522, Note_on_c, 0, 70, 58
2, 34522, Note_on_c, 0, 74, 56
2, 34542, Note_on_c, 0, 77, 0
2, 34612, Note_on_c, 0, 62, 0
2, 34612, Note_on_c, 0, 65, 0
2, 34613, Note_on_c, 0, 70, 0
2, 34613, Note_on_c, 0, 74, 0
2, 34659, Note_on_c, 0, 72, 55
2, 34660, Note_on_c, 0, 66, 54
2, 34661, Note_on_c, 0, 39, 53
2, 34661, Note_on_c, 0, 51, 56
2, 34731, Note_on_c, 0, 67, 56
2, 34731, Note_on_c, 0, 70, 55
2, 34732, Note_on_c, 0, 39, 0
2, 34732, Note_on_c, 0, 72, 0
2, 34732, Note_on_c, 0, 66, 0
2, 34733, Note_on_c, 0, 51, 0
2, 34806, Note_on_c, 0, 55, 53
2, 34806, Note_on_c, 0, 58, 53
2, 34806, Note_on_c, 0, 63, 56
2, 34807, Note_on_c, 0, 67, 0
2, 34808, Note_on_c, 0, 70, 0
2, 34877, Note_on_c, 0, 67, 59
2, 34877, Note_on_c, 0, 70, 59
2, 34878, Note_on_c, 0, 55, 0
2, 34879, Note_on_c, 0, 63, 0
2, 34879, Note_on_c, 0, 58, 0
2, 34946, Note_on_c, 0, 34, 58
2, 34946, Note_on_c, 0, 46, 54
2, 35002, Note_on_c, 0, 34, 0
2, 35020, Note_on_c, 0, 46, 0
2, 35058, Note_on_c, 0, 67, 0
2, 35059, Note_on_c, 0, 70, 0
2, 35093, Note_on_c, 0, 55, 58
2, 35093, Note_on_c, 0, 58, 54
2, 35093, Note_on_c, 0, 63, 56
2, 35165, Note_on_c, 0, 55, 0
2, 35166, Note_on_c, 0, 58, 0
2, 35167, Note_on_c, 0, 63, 0
2, 35234, Note_on_c, 0, 39, 60
2, 35234, Note_on_c, 0, 67, 69
2, 35235, Note_on_c, 0, 51, 60
2, 35235, Note_on_c, 0, 74, 68
2, 35304, Note_on_c, 0, 72, 59
2, 35305, Note_on_c, 0, 39, 0
2, 35306, Note_on_c, 0, 67, 0
2, 35307, Note_on_c, 0, 74, 0
2, 35307, Note_on_c, 0, 51, 0
2, 35376, Note_on_c, 0, 55, 54
2, 35376, Note_on_c, 0, 58, 55
2, 35376, Note_on_c, 0, 63, 60
2, 35433, Note_on_c, 0, 72, 0
2, 35451, Note_on_c, 0, 67, 56
2, 35452, Note_on_c, 0, 55, 0
2, 35452, Note_on_c, 0, 58, 0
2, 35452, Note_on_c, 0, 70, 53
2, 35453, Note_on_c, 0, 63, 0
2, 35522, Note_on_c, 0, 43, 54
2, 35522, Note_on_c, 0, 55, 53
2, 35543, Note_on_c, 0, 70, 0
2, 35543, Note_on_c, 0, 67, 0
2, 35590, Note_on_c, 0, 72, 53
2, 35591, Note_on_c, 0, 41, 53
2, 35591, Note_on_c, 0, 53, 56
2, 35592, Note_on_c, 0, 43, 0
2, 35592, Note_on_c, 0, 55, 0
2, 35655, Note_on_c, 0, 39, 57
2, 35656, Note_on_c, 0, 51, 54
2, 35656, Note_on_c, 0, 67, 55
2, 35657, Note_on_c, 0, 41, 0
2, 35657, Note_on_c, 0, 72, 0
2, 35658, Note_on_c, 0, 53, 0
2, 35710, Note_on_c, 0, 67, 0
2, 35723, Note_on_c, 0, 36, 59
2, 35724, Note_on_c, 0, 48, 59
2, 35726, Note_on_c, 0, 39, 0
2, 35726, Note_on_c, 0, 51, 0
2, 35796, Note_on_c, 0, 34, 56
2, 35796, Note_on_c, 0, 46, 53
2, 35796, Note_on_c, 0, 61, 53
2, 35796, Note_on_c, 0, 67, 56
2, 35815, Note_on_c, 0, 36, 0
2, 35815, Note_on_c, 0, 48, 0
2, 35866, Note_on_c, 0, 62, 53
2, 35866, Note_on_c, 0, 65, 56
2, 35870, Note_on_c, 0, 34, 0
2, 35870, Note_on_c, 0, 67, 0
2, 35871, Note_on_c, 0, 61, 0
2, 35905, Note_on_c, 0, 46, 0
2, 35935, Note_on_c, 0, 58, 58
2, 35939, Note_on_c, 0, 62, 0
2, 35952, Note_on_c, 0, 53, 53
2, 35989, Note_on_c, 0, 65, 0
2, 36003, Note_on_c, 0, 70, 72
2, 36004, Note_on_c, 0, 62, 59
2, 36005, Note_on_c, 0, 53, 0
2, 36005, Note_on_c, 0, 58, 0
2, 36074, Note_on_c, 0, 41, 55
2, 36146, Note_on_c, 0, 41, 0
2, 36215, Note_on_c, 0, 53, 60
2, 36215, Note_on_c, 0, 58, 54
2, 36268, Note_on_c, 0, 58, 0
2, 36268, Note_on_c, 0, 53, 0
2, 36321, Note_on_c, 0, 62, 0
2, 36358, Note_on_c, 0, 34, 60
2, 36358, Note_on_c, 0, 46, 53
2, 36428, Note_on_c, 0, 70, 0
2, 36432, Note_on_c, 0, 62, 58
2, 36433, Note_on_c, 0, 46, 0
2, 36433, Note_on_c, 0, 34, 0
2, 36499, Note_on_c, 0, 53, 57
2, 36499, Note_on_c, 0, 58, 58
2, 36499, Note_on_c, 0, 65, 55
2, 36504, Note_on_c, 0, 62, 0
2, 36567, Note_on_c, 0, 70, 58
2, 36571, Note_on_c, 0, 58, 0
2, 36586, Note_on_c, 0, 53, 0
2, 36603, Note_on_c, 0, 65, 0
2, 36636, Note_on_c, 0, 38, 57
2, 36636, Note_on_c, 0, 72, 62
2, 36637, Note_on_c, 0, 70, 0
2, 36637, Note_on_c, 0, 50, 55
2, 36706, Note_on_c, 0, 74, 62
2, 36707, Note_on_c, 0, 38, 0
2, 36708, Note_on_c, 0, 50, 0
2, 36725, Note_on_c, 0, 72, 0
2, 36777, Note_on_c, 0, 35, 61
2, 36777, Note_on_c, 0, 77, 61
2, 36778, Note_on_c, 0, 47, 61
2, 36780, Note_on_c, 0, 74, 0
2, 36833, Note_on_c, 0, 35, 0
2, 36848, Note_on_c, 0, 77, 0
2, 36849, Note_on_c, 0, 47, 0
2, 36912, Note_on_c, 0, 79, 70
2, 36913, Note_on_c, 0, 36, 72
2, 36913, Note_on_c, 0, 69, 72
2, 36913, Note_on_c, 0, 75, 68
2, 36914, Note_on_c, 0, 48, 67
2, 36984, Note_on_c, 0, 71, 70
2, 36985, Note_on_c, 0, 69, 0
2, 36985, Note_on_c, 0, 79, 0
2, 36985, Note_on_c, 0, 36, 0
2, 36986, Note_on_c, 0, 75, 0
2, 36986, Note_on_c, 0, 48, 0
2, 37050, Note_on_c, 0, 72, 68
2, 37051, Note_on_c, 0, 63, 73
2, 37052, Note_on_c, 0, 53, 72
2, 37052, Note_on_c, 0, 57, 69
2, 37056, Note_on_c, 0, 71, 0
2, 37107, Note_on_c, 0, 57, 0
2, 37108, Note_on_c, 0, 63, 0
2, 37122, Note_on_c, 0, 69, 71
2, 37122, Note_on_c, 0, 77, 67
2, 37123, Note_on_c, 0, 75, 67
2, 37124, Note_on_c, 0, 72, 0
2, 37124, Note_on_c, 0, 53, 0
2, 37183, Note_on_c, 0, 41, 67
2, 37184, Note_on_c, 0, 53, 68
2, 37237, Note_on_c, 0, 53, 0
2, 37261, Note_on_c, 0, 41, 0
2, 37330, Note_on_c, 0, 47, 71
2, 37331, Note_on_c, 0, 59, 73
2, 37384, Note_on_c, 0, 59, 0
2, 37385, Note_on_c, 0, 47, 0
2, 37465, Note_on_c, 0, 48, 77
2, 37465, Note_on_c, 0, 60, 76
2, 37518, Note_on_c, 0, 69, 0
2, 37519, Note_on_c, 0, 75, 0
2, 37519, Note_on_c, 0, 77, 0
2, 37552, Note_on_c, 0, 60, 0
2, 37553, Note_on_c, 0, 48, 0
2, 37603, Note_on_c, 0, 57, 72
2, 37603, Note_on_c, 0, 79, 69
2, 37604, Note_on_c, 0, 63, 66
2, 37622, Note_on_c, 0, 53, 71
2, 37671, Note_on_c, 0, 77, 65
2, 37672, Note_on_c, 0, 69, 71
2, 37672, Note_on_c, 0, 75, 67
2, 37679, Note_on_c, 0, 53, 0
2, 37679, Note_on_c, 0, 63, 0
2, 37679, Note_on_c, 0, 57, 0
2, 37679, Note_on_c, 0, 79, 0
2, 37742, Note_on_c, 0, 41, 68
2, 37743, Note_on_c, 0, 53, 69
2, 37745, Note_on_c, 0, 69, 0
2, 37745, Note_on_c, 0, 77, 0
2, 37746, Note_on_c, 0, 75, 0
2, 37810, Note_on_c, 0, 79, 70
2, 37842, Note_on_c, 0, 41, 0
2, 37843, Note_on_c, 0, 53, 0
2, 37876, Note_on_c, 0, 57, 69
2, 37876, Note_on_c, 0, 63, 66
2, 37876, Note_on_c, 0, 69, 66
2, 37877, Note_on_c, 0, 75, 69
2, 37877, Note_on_c, 0, 77, 65
2, 37878, Note_on_c, 0, 79, 0
2, 37893, Note_on_c, 0, 53, 68
2, 37940, Note_on_c, 0, 70, 66
2, 37942, Note_on_c, 0, 74, 67
2, 37943, Note_on_c, 0, 57, 0
2, 37944, Note_on_c, 0, 63, 0
2, 37944, Note_on_c, 0, 69, 0
2, 37944, Note_on_c, 0, 77, 0
2, 37944, Note_on_c, 0, 75, 0
2, 37944, Note_on_c, 0, 53, 0
2, 38013, Note_on_c, 0, 46, 65
2, 38013, Note_on_c, 0, 58, 67
2, 38014, Note_on_c, 0, 79, 66
2, 38068, Note_on_c, 0, 79, 0
2, 38083, Note_on_c, 0, 73, 70
2, 38087, Note_on_c, 0, 46, 0
2, 38087, Note_on_c, 0, 58, 0
2, 38087, Note_on_c, 0, 70, 0
2, 38087, Note_on_c, 0, 74, 0
2, 38158, Note_on_c, 0, 53, 65
2, 38158, Note_on_c, 0, 58, 72
2, 38158, Note_on_c, 0, 62, 66
2, 38158, Note_on_c, 0, 74, 69
2, 38160, Note_on_c, 0, 73, 0
2, 38175, Note_on_c, 0, 74, 0
2, 38231, Note_on_c, 0, 70, 71
2, 38231, Note_on_c, 0, 74, 72
2, 38231, Note_on_c, 0, 77, 65
2, 38250, Note_on_c, 0, 53, 0
2, 38250, Note_on_c, 0, 62, 0
2, 38250, Note_on_c, 0, 58, 0
2, 38305, Note_on_c, 0, 53, 67
2, 38306, Note_on_c, 0, 41, 70
2, 38378, Note_on_c, 0, 41, 0
2, 38378, Note_on_c, 0, 53, 0
2, 38444, Note_on_c, 0, 53, 67
2, 38444, Note_on_c, 0, 58, 65
2, 38445, Note_on_c, 0, 62, 72
2, 38497, Note_on_c, 0, 58, 0
2, 38515, Note_on_c, 0, 62, 0
2, 38516, Note_on_c, 0, 53, 0
2, 38533, Note_on_c, 0, 77, 0
2, 38534, Note_on_c, 0, 74, 0
2, 38534, Note_on_c, 0, 70, 0
2, 38587, Note_on_c, 0, 50, 72
2, 38588, Note_on_c, 0, 38, 71
2, 38659, Note_on_c, 0, 79, 66
2, 38661, Note_on_c, 0, 36, 70
2, 38661, Note_on_c, 0, 48, 70
2, 38663, Note_on_c, 0, 38, 0
2, 38663, Note_on_c, 0, 50, 0
2, 38715, Note_on_c, 0, 68, 72
2, 38732, Note_on_c, 0, 35, 72
2, 38732, Note_on_c, 0, 47, 66
2, 38733, Note_on_c, 0, 74, 68
2, 38733, Note_on_c, 0, 77, 71
2, 38734, Note_on_c, 0, 79, 0
2, 38751, Note_on_c, 0, 36, 0
2, 38769, Note_on_c, 0, 48, 0
2, 38800, Note_on_c, 0, 69, 71
2, 38800, Note_on_c, 0, 75, 65
2, 38802, Note_on_c, 0, 35, 0
2, 38803, Note_on_c, 0, 47, 0
2, 38803, Note_on_c, 0, 77, 0
2, 38803, Note_on_c, 0, 68, 0
2, 38803, Note_on_c, 0, 74, 0
2, 38871, Note_on_c, 0, 36, 72
2, 38872, Note_on_c, 0, 48, 66
2, 38928, Note_on_c, 0, 69, 0
2, 38940, Note_on_c, 0, 77, 70
2, 38944, Note_on_c, 0, 36, 0
2, 38945, Note_on_c, 0, 48, 0
2, 38946, Note_on_c, 0, 75, 0
2, 39008, Note_on_c, 0, 69, 70
2, 39009, Note_on_c, 0, 75, 70
2, 39010, Note_on_c, 0, 57, 67
2, 39011, Note_on_c, 0, 53, 67
2, 39011, Note_on_c, 0, 63, 68
2, 39016, Note_on_c, 0, 77, 0
2, 39029, Control_c, 0, 67, 127
2, 39066, Note_on_c, 0, 57, 0
2, 39082, Note_on_c, 0, 53, 0
2, 39082, Note_on_c, 0, 69, 0
2, 39082, Note_on_c, 0, 63, 0
2, 39083, Note_on_c, 0, 75, 0
2, 39113, Note_on_c, 0, 72, 65
2, 39113, Note_on_c, 0, 84, 66
2, 39117, Control_c, 0, 67, 0
2, 39131, Note_on_c, 0, 73, 63
2, 39132, Note_on_c, 0, 85, 60
2, 39148, Note_on_c, 0, 34, 79
2, 39149, Note_on_c, 0, 74, 66
2, 39149, Note_on_c, 0, 86, 64
2, 39151, Note_on_c, 0, 84, 0
2, 39168, Note_on_c, 0, 72, 0
2, 39187, Note_on_c, 0, 73, 0
2, 39193, Note_on_c, 0, 85, 0
2, 39202, Note_on_c, 0, 34, 0
2, 39219, Note_on_c, 0, 46, 79
2, 39221, Note_on_c, 0, 74, 0
2, 39222, Note_on_c, 0, 86, 0
2, 39290, Note_on_c, 0, 38, 77
2, 39292, Note_on_c, 0, 46, 0
2, 39358, Note_on_c, 0, 50, 84
2, 39360, Note_on_c, 0, 38, 0
2, 39425, Note_on_c, 0, 39, 83
2, 39425, Note_on_c, 0, 67, 54
2, 39426, Note_on_c, 0, 72, 60
2, 39427, Note_on_c, 0, 50, 0
2, 39494, Note_on_c, 0, 51, 79
2, 39494, Note_on_c, 0, 70, 63
2, 39494, Note_on_c, 0, 73, 64
2, 39496, Note_on_c, 0, 39, 0
2, 39496, Note_on_c, 0, 72, 0
2, 39496, Note_on_c, 0, 67, 0
2, 39565, Note_on_c, 0, 40, 83
2, 39566, Note_on_c, 0, 52, 80
2, 39568, Note_on_c, 0, 73, 0
2, 39568, Note_on_c, 0, 70, 0
2, 39584, Note_on_c, 0, 51, 0
2, 39634, Note_on_c, 0, 65, 78
2, 39634, Note_on_c, 0, 70, 77
2, 39634, Note_on_c, 0, 74, 78
2, 39638, Note_on_c, 0, 40, 0
2, 39706, Note_on_c, 0, 41, 78
2, 39706, Note_on_c, 0, 53, 83
2, 39710, Note_on_c, 0, 52, 0
2, 39777, Note_on_c, 0, 41, 0
2, 39777, Note_on_c, 0, 65, 0
2, 39778, Note_on_c, 0, 70, 0
2, 39778, Note_on_c, 0, 74, 0
2, 39778, Note_on_c, 0, 53, 0
2, 39848, Note_on_c, 0, 58, 59
2, 39848, Note_on_c, 0, 73, 56
2, 39848, Note_on_c, 0, 79, 56
2, 39919, Note_on_c, 0, 74, 54
2, 39919, Note_on_c, 0, 77, 56
2, 39920, Note_on_c, 0, 79, 0
2, 39920, Note_on_c, 0, 58, 0
2, 39920, Note_on_c, 0, 73, 0
2, 39985, Note_on_c, 0, 38, 60
2, 39985, Note_on_c, 0, 50, 56
2, 40006, Note_on_c, 0, 74, 0
2, 40050, Note_on_c, 0, 74, 55
2, 40055, Note_on_c, 0, 82, 54
2, 40056, Note_on_c, 0, 50, 0
2, 40056, Note_on_c, 0, 38, 0
2, 40057, Note_on_c, 0, 77, 0
2, 40127, Note_on_c, 0, 53, 59
2, 40127, Note_on_c, 0, 58, 57
2, 40127, Note_on_c, 0, 62, 58
2, 40182, Note_on_c, 0, 58, 0
2, 40183, Note_on_c, 0, 82, 0
2, 40183, Note_on_c, 0, 74, 0
2, 40200, Note_on_c, 0, 62, 0
2, 40201, Note_on_c, 0, 53, 0
2, 40233, Note_on_c, 0, 72, 70
2, 40233, Note_on_c, 0, 84, 68
2, 40234, Note_on_c, 0, 85, 67
2, 40251, Note_on_c, 0, 73, 71
2, 40265, Note_on_c, 0, 74, 65
2, 40267, Note_on_c, 0, 34, 72
2, 40267, Note_on_c, 0, 86, 71
2, 40287, Note_on_c, 0, 84, 0
2, 40303, Note_on_c, 0, 72, 0
2, 40304, Note_on_c, 0, 73, 0
2, 40304, Note_on_c, 0, 85, 0
2, 40335, Note_on_c, 0, 46, 65
2, 40337, Note_on_c, 0, 34, 0
2, 40338, Note_on_c, 0, 86, 0
2, 40338, Note_on_c, 0, 74, 0
2, 40403, Note_on_c, 0, 38, 72
2, 40422, Note_on_c, 0, 46, 0
2, 40475, Note_on_c, 0, 50, 72
2, 40476, Note_on_c, 0, 38, 0
2, 40547, Note_on_c, 0, 39, 70
2, 40547, Note_on_c, 0, 67, 58
2, 40548, Note_on_c, 0, 72, 60
2, 40549, Note_on_c, 0, 50, 0
2, 40616, Note_on_c, 0, 51, 67
2, 40616, Note_on_c, 0, 73, 62
2, 40617, Note_on_c, 0, 70, 66
2, 40619, Note_on_c, 0, 39, 0
2, 40619, Note_on_c, 0, 72, 0
2, 40619, Note_on_c, 0, 67, 0
2, 40682, Note_on_c, 0, 40, 60
2, 40683, Note_on_c, 0, 52, 61
2, 40684, Note_on_c, 0, 70, 0
2, 40684, Note_on_c, 0, 73, 0
2, 40720, Note_on_c, 0, 51, 0
2, 40752, Note_on_c, 0, 65, 67
2, 40752, Note_on_c, 0, 74, 68
2, 40752, Note_on_c, 0, 70, 51
2, 40753, Note_on_c, 0, 40, 0
2, 40823, Note_on_c, 0, 41, 67
2, 40824, Note_on_c, 0, 53, 71
2, 40843, Note_on_c, 0, 52, 0
2, 40875, Note_on_c, 0, 41, 0
2, 40875, Note_on_c, 0, 53, 0
2, 40893, Note_on_c, 0, 65, 0
2, 40893, Note_on_c, 0, 74, 0
2, 40894, Note_on_c, 0, 70, 0
2, 40961, Note_on_c, 0, 70, 60
2, 41034, Note_on_c, 0, 72, 58
2, 41036, Note_on_c, 0, 70, 0
2, 41106, Note_on_c, 0, 74, 54
2, 41108, Note_on_c, 0, 72, 0
2, 41174, Note_on_c, 0, 77, 57
2, 41194, Note_on_c, 0, 74, 0
2, 41243, Note_on_c, 0, 89, 57
2, 41244, Note_on_c, 0, 86, 55
2, 41245, Note_on_c, 0, 77, 0
2, 41259, Note_on_c, 0, 82, 57
2, 41260, Note_on_c, 0, 80, 55
2, 41311, Note_on_c, 0, 80, 0
2, 41311, Note_on_c, 0, 89, 0
2, 41311, Note_on_c, 0, 86, 0
2, 41311, Note_on_c, 0, 82, 0
2, 41325, Note_on_c, 0, 76, 59
2, 41342, Note_on_c, 0, 77, 60
2, 41359, Note_on_c, 0, 78, 56
2, 41377, Note_on_c, 0, 79, 57
2, 41377, Note_on_c, 0, 82, 54
2, 41377, Note_on_c, 0, 87, 58
2, 41377, Note_on_c, 0, 91, 57
2, 41379, Note_on_c, 0, 76, 0
2, 41397, Note_on_c, 0, 77, 0
2, 41435, Note_on_c, 0, 78, 0
2, 41451, Note_on_c, 0, 94, 55
2, 41453, Note_on_c, 0, 82, 0
2, 41453, Note_on_c, 0, 91, 0
2, 41453, Note_on_c, 0, 87, 0
2, 41522, Note_on_c, 0, 82, 57
2, 41523, Note_on_c, 0, 87, 56
2, 41523, Note_on_c, 0, 91, 57
2, 41525, Note_on_c, 0, 94, 0
2, 41595, Note_on_c, 0, 79, 0
2, 41595, Note_on_c, 0, 82, 0
2, 41596, Note_on_c, 0, 87, 0
2, 41596, Note_on_c, 0, 91, 0
2, 41609, Note_on_c, 0, 71, 48
2, 41626, Note_on_c, 0, 72, 46
2, 41644, Note_on_c, 0, 73, 42
2, 41661, Note_on_c, 0, 77, 47
2, 41662, Note_on_c, 0, 74, 44
2, 41662, Note_on_c, 0, 82, 49
2, 41662, Note_on_c, 0, 86, 43
2, 41664, Note_on_c, 0, 71, 0
2, 41699, Note_on_c, 0, 72, 0
2, 41699, Note_on_c, 0, 73, 0
2, 41733, Note_on_c, 0, 89, 41
2, 41735, Note_on_c, 0, 82, 0
2, 41753, Note_on_c, 0, 86, 0
2, 41753, Note_on_c, 0, 77, 0
2, 41805, Note_on_c, 0, 77, 54
2, 41805, Note_on_c, 0, 82, 60
2, 41805, Note_on_c, 0, 86, 55
2, 41807, Note_on_c, 0, 89, 0
2, 41875, Note_on_c, 0, 82, 0
2, 41875, Note_on_c, 0, 74, 0
2, 41875, Note_on_c, 0, 86, 0
2, 41876, Note_on_c, 0, 77, 0
2, 41890, Note_on_c, 0, 64, 56
2, 41906, Note_on_c, 0, 65, 60
2, 41925, Note_on_c, 0, 66, 59
2, 41944, Note_on_c, 0, 67, 58
2, 41944, Note_on_c, 0, 70, 56
2, 41944, Note_on_c, 0, 75, 56
2, 41944, Note_on_c, 0, 79, 55
2, 41946, Note_on_c, 0, 64, 0
2, 41982, Note_on_c, 0, 65, 0
2, 41983, Note_on_c, 0, 66, 0
2, 42017, Note_on_c, 0, 82, 57
2, 42018, Note_on_c, 0, 79, 0
2, 42019, Note_on_c, 0, 70, 0
2, 42020, Note_on_c, 0, 75, 0
2, 42090, Note_on_c, 0, 79, 56
2, 42091, Note_on_c, 0, 70, 60
2, 42091, Note_on_c, 0, 75, 56
2, 42092, Note_on_c, 0, 82, 0
2, 42142, Control_c, 0, 67, 127
2, 42161, Note_on_c, 0, 79, 0
2, 42162, Note_on_c, 0, 67, 0
2, 42162, Note_on_c, 0, 70, 0
2, 42163, Note_on_c, 0, 75, 0
2, 42175, Note_on_c, 0, 59, 41
2, 42192, Note_on_c, 0, 60, 48
2, 42210, Note_on_c, 0, 61, 43
2, 42226, Note_on_c, 0, 62, 48
2, 42226, Note_on_c, 0, 65, 44
2, 42226, Note_on_c, 0, 74, 46
2, 42227, Note_on_c, 0, 70, 44
2, 42228, Note_on_c, 0, 59, 0
2, 42244, Note_on_c, 0, 60, 0
2, 42262, Note_on_c, 0, 61, 0
2, 42262, Control_c, 0, 67, 0
2, 42293, Note_on_c, 0, 77, 41
2, 42294, Note_on_c, 0, 65, 0
2, 42295, Note_on_c, 0, 70, 0
2, 42295, Note_on_c, 0, 74, 0
2, 42349, Note_on_c, 0, 65, 48
2, 42363, Note_on_c, 0, 70, 46
2, 42363, Note_on_c, 0, 74, 48
2, 42383, Note_on_c, 0, 77, 0
2, 42437, Note_on_c, 0, 70, 0
2, 42437, Note_on_c, 0, 62, 0
2, 42437, Note_on_c, 0, 65, 0
2, 42437, Note_on_c, 0, 74, 0
2, 42505, Note_on_c, 0, 58, 54
2, 42506, Note_on_c, 0, 43, 60
2, 42574, Note_on_c, 0, 45, 55
2, 42574, Note_on_c, 0, 60, 56
2, 42576, Note_on_c, 0, 43, 0
2, 42576, Note_on_c, 0, 58, 0
2, 42664, Note_on_c, 0, 45, 0
2, 42699, Note_on_c, 0, 60, 0
2, 42718, Note_on_c, 0, 46, 58
2, 42718, Note_on_c, 0, 62, 59
2, 42793, Note_on_c, 0, 62, 0
2, 42863, Note_on_c, 0, 48, 60
2, 42863, Note_on_c, 0, 60, 59
2, 42883, Note_on_c, 0, 46, 0
2, 42936, Note_on_c, 0, 60, 0
2, 42936, Note_on_c, 0, 50, 54
2, 42936, Note_on_c, 0, 58, 58
2, 42937, Note_on_c, 0, 48, 0
2, 42992, Note_on_c, 0, 58, 0
2, 42992, Note_on_c, 0, 50, 0
2, 43080, Note_on_c, 0, 58, 51
2, 43080, Note_on_c, 0, 74, 52
2, 43095, Control_c, 0, 67, 127
2, 43132, Note_on_c, 0, 58, 0
2, 43147, Note_on_c, 0, 57, 49
2, 43148, Note_on_c, 0, 72, 54
2, 43150, Note_on_c, 0, 74, 0
2, 43270, Note_on_c, 0, 72, 0
2, 43270, Note_on_c, 0, 57, 0
2, 43288, Note_on_c, 0, 55, 52
2, 43288, Note_on_c, 0, 70, 47
2, 43416, Note_on_c, 0, 70, 0
2, 43416, Note_on_c, 0, 55, 0
2, 43431, Note_on_c, 0, 53, 52
2, 43431, Note_on_c, 0, 69, 48
2, 43449, Control_c, 0, 67, 0
2, 43485, Note_on_c, 0, 61, 48
2, 43499, Note_on_c, 0, 58, 52
2, 43500, Note_on_c, 0, 52, 53
2, 43500, Note_on_c, 0, 67, 66
2, 43502, Note_on_c, 0, 69, 0
2, 43502, Note_on_c, 0, 53, 0
2, 43569, Note_on_c, 0, 70, 60
2, 43570, Note_on_c, 0, 61, 0
2, 43570, Note_on_c, 0, 58, 0
2, 43570, Note_on_c, 0, 67, 0
2, 43601, Note_on_c, 0, 74, 65
2, 43606, Note_on_c, 0, 52, 0
2, 43641, Note_on_c, 0, 79, 59
2, 43642, Note_on_c, 0, 41, 64
2, 43642, Note_on_c, 0, 53, 59
2, 43697, Note_on_c, 0, 77, 62
2, 43714, Note_on_c, 0, 53, 0
2, 43714, Note_on_c, 0, 41, 0
2, 43714, Note_on_c, 0, 79, 0
2, 43714, Note_on_c, 0, 70, 0
2, 43714, Note_on_c, 0, 74, 0
2, 43765, Note_on_c, 0, 77, 0
2, 43779, Note_on_c, 0, 70, 59
2, 43779, Note_on_c, 0, 74, 65
2, 43780, Note_on_c, 0, 53, 61
2, 43780, Note_on_c, 0, 58, 61
2, 43780, Note_on_c, 0, 62, 60
2, 43847, Note_on_c, 0, 69, 61
2, 43847, Note_on_c, 0, 75, 63
2, 43848, Note_on_c, 0, 62, 0
2, 43848, Note_on_c, 0, 58, 0
2, 43849, Note_on_c, 0, 70, 0
2, 43849, Note_on_c, 0, 53, 0
2, 43849, Note_on_c, 0, 74, 0
2, 43918, Note_on_c, 0, 41, 61
2, 43918, Note_on_c, 0, 53, 66
2, 43937, Note_on_c, 0, 75, 0
2, 43937, Note_on_c, 0, 69, 0
2, 43987, Note_on_c, 0, 77, 61
2, 43989, Note_on_c, 0, 41, 0
2, 43990, Note_on_c, 0, 53, 0
2, 44040, Note_on_c, 0, 77, 0
2, 44054, Note_on_c, 0, 57, 62
2, 44054, Note_on_c, 0, 63, 59
2, 44054, Note_on_c, 0, 67, 62
2, 44055, Note_on_c, 0, 53, 62
2, 44120, Note_on_c, 0, 69, 62
2, 44138, Note_on_c, 0, 67, 0
2, 44138, Note_on_c, 0, 57, 0
2, 44138, Note_on_c, 0, 63, 0
2, 44139, Note_on_c, 0, 53, 0
2, 44188, Note_on_c, 0, 46, 62
2, 44188, Note_on_c, 0, 58, 60
2, 44188, Note_on_c, 0, 70, 60
2, 44189, Note_on_c, 0, 69, 0
2, 44262, Note_on_c, 0, 70, 0
2, 44262, Note_on_c, 0, 58, 0
2, 44281, Note_on_c, 0, 46, 0
2, 44332, Note_on_c, 0, 58, 59
2, 44332, Note_on_c, 0, 62, 60
2, 44333, Note_on_c, 0, 53, 62
2, 44333, Note_on_c, 0, 65, 61
2, 44401, Note_on_c, 0, 77, 64
2, 44402, Note_on_c, 0, 74, 61
2, 44404, Note_on_c, 0, 65, 0
2, 44404, Note_on_c, 0, 62, 0
2, 44404, Note_on_c, 0, 58, 0
2, 44405, Note_on_c, 0, 53, 0
2, 44471, Note_on_c, 0, 41, 66
2, 44472, Note_on_c, 0, 53, 63
2, 44508, Note_on_c, 0, 77, 0
2, 44527, Note_on_c, 0, 74, 0
2, 44542, Note_on_c, 0, 65, 59
2, 44562, Note_on_c, 0, 53, 0
2, 44580, Note_on_c, 0, 41, 0
2, 44613, Note_on_c, 0, 72, 66
2, 44614, Note_on_c, 0, 63, 64
2, 44614, Note_on_c, 0, 75, 64
2, 44615, Note_on_c, 0, 53, 63
2, 44615, Note_on_c, 0, 57, 62
2, 44633, Note_on_c, 0, 65, 0
2, 44687, Note_on_c, 0, 75, 0
2, 44701, Note_on_c, 0, 72, 0
2, 44702, Note_on_c, 0, 63, 0
2, 44702, Note_on_c, 0, 57, 0
2, 44702, Note_on_c, 0, 53, 0
2, 44714, Note_on_c, 0, 96, 66
2, 44715, Note_on_c, 0, 84, 65
2, 44733, Note_on_c, 0, 97, 65
2, 44734, Note_on_c, 0, 85, 71
2, 44751, Note_on_c, 0, 86, 66
2, 44751, Note_on_c, 0, 98, 65
2, 44752, Note_on_c, 0, 34, 68
2, 44753, Note_on_c, 0, 84, 0
2, 44753, Note_on_c, 0, 96, 0
2, 44771, Note_on_c, 0, 85, 0
2, 44771, Note_on_c, 0, 97, 0
2, 44806, Note_on_c, 0, 86, 0
2, 44807, Note_on_c, 0, 98, 0
2, 44825, Note_on_c, 0, 46, 69
2, 44826, Note_on_c, 0, 34, 0
2, 44899, Note_on_c, 0, 38, 67
2, 44921, Note_on_c, 0, 46, 0
2, 44975, Note_on_c, 0, 50, 70
2, 44976, Note_on_c, 0, 38, 0
2, 45044, Note_on_c, 0, 67, 59
2, 45045, Note_on_c, 0, 39, 67
2, 45045, Note_on_c, 0, 72, 54
2, 45047, Note_on_c, 0, 50, 0
2, 45115, Note_on_c, 0, 73, 61
2, 45116, Note_on_c, 0, 51, 71
2, 45116, Note_on_c, 0, 70, 59
2, 45117, Note_on_c, 0, 67, 0
2, 45118, Note_on_c, 0, 39, 0
2, 45134, Note_on_c, 0, 72, 0
2, 45188, Note_on_c, 0, 52, 66
2, 45190, Note_on_c, 0, 40, 69
2, 45192, Note_on_c, 0, 73, 0
2, 45192, Note_on_c, 0, 51, 0
2, 45192, Note_on_c, 0, 70, 0
2, 45264, Note_on_c, 0, 65, 65
2, 45265, Note_on_c, 0, 70, 43
2, 45265, Note_on_c, 0, 74, 48
2, 45267, Note_on_c, 0, 40, 0
2, 45338, Note_on_c, 0, 41, 72
2, 45338, Note_on_c, 0, 53, 69
2, 45359, Note_on_c, 0, 52, 0
2, 45409, Note_on_c, 0, 41, 0
2, 45409, Note_on_c, 0, 65, 0
2, 45410, Note_on_c, 0, 53, 0
2, 45410, Note_on_c, 0, 74, 0
2, 45429, Note_on_c, 0, 70, 0
2, 45477, Note_on_c, 0, 73, 54
2, 45477, Note_on_c, 0, 79, 56
2, 45478, Note_on_c, 0, 58, 57
2, 45547, Note_on_c, 0, 74, 55
2, 45547, Note_on_c, 0, 77, 60
2, 45549, Note_on_c, 0, 58, 0
2, 45549, Note_on_c, 0, 79, 0
2, 45550, Note_on_c, 0, 73, 0
2, 45619, Note_on_c, 0, 50, 56
2, 45636, Note_on_c, 0, 38, 53
2, 45638, Note_on_c, 0, 74, 0
2, 45656, Note_on_c, 0, 77, 0
2, 45687, Note_on_c, 0, 82, 60
2, 45688, Note_on_c, 0, 74, 54
2, 45708, Note_on_c, 0, 50, 0
2, 45708, Note_on_c, 0, 38, 0
2, 45755, Note_on_c, 0, 53, 53
2, 45756, Note_on_c, 0, 58, 57
2, 45756, Note_on_c, 0, 62, 58
2, 45812, Note_on_c, 0, 82, 0
2, 45829, Note_on_c, 0, 58, 0
2, 45829, Note_on_c, 0, 74, 0
2, 45829, Note_on_c, 0, 62, 0
2, 45830, Note_on_c, 0, 53, 0
2, 45863, Note_on_c, 0, 72, 67
2, 45863, Note_on_c, 0, 84, 72
2, 45867, Control_c, 0, 64, 127
2, 45881, Note_on_c, 0, 73, 67
2, 45881, Note_on_c, 0, 85, 72
2, 45898, Note_on_c, 0, 86, 70
2, 45899, Note_on_c, 0, 84, 0
2, 45899, Note_on_c, 0, 72, 0
2, 45899, Note_on_c, 0, 74, 72
2, 45900, Note_on_c, 0, 34, 58
2, 45918, Note_on_c, 0, 85, 0
2, 45919, Note_on_c, 0, 73, 0
2, 45956, Note_on_c, 0, 34, 0
2, 45969, Note_on_c, 0, 46, 55
2, 45970, Note_on_c, 0, 74, 0
2, 45970, Note_on_c, 0, 86, 0
2, 45972, Control_c, 0, 64, 0
2, 46021, Note_on_c, 0, 46, 0
2, 46035, Note_on_c, 0, 38, 60
2, 46122, Note_on_c, 0, 50, 57
2, 46124, Note_on_c, 0, 38, 0
2, 46175, Note_on_c, 0, 39, 58
2, 46176, Note_on_c, 0, 50, 0
2, 46176, Note_on_c, 0, 67, 66
2, 46176, Note_on_c, 0, 72, 60
2, 46243, Note_on_c, 0, 51, 56
2, 46243, Note_on_c, 0, 70, 64
2, 46243, Note_on_c, 0, 73, 63
2, 46244, Note_on_c, 0, 72, 0
2, 46244, Note_on_c, 0, 67, 0
2, 46245, Note_on_c, 0, 39, 0
2, 46311, Note_on_c, 0, 40, 53
2, 46311, Note_on_c, 0, 52, 59
2, 46313, Note_on_c, 0, 51, 0
2, 46313, Note_on_c, 0, 70, 0
2, 46313, Note_on_c, 0, 73, 0
2, 46364, Note_on_c, 0, 40, 0
2, 46377, Note_on_c, 0, 65, 70
2, 46377, Note_on_c, 0, 70, 70
2, 46377, Note_on_c, 0, 74, 71
2, 46443, Note_on_c, 0, 41, 59
2, 46444, Note_on_c, 0, 53, 59
2, 46463, Note_on_c, 0, 52, 0
2, 46517, Note_on_c, 0, 70, 0
2, 46517, Note_on_c, 0, 74, 0
2, 46517, Note_on_c, 0, 65, 0
2, 46517, Note_on_c, 0, 53, 0
2, 46517, Note_on_c, 0, 41, 0
2, 46585, Note_on_c, 0, 70, 54
2, 46655, Note_on_c, 0, 72, 53
2, 46677, Note_on_c, 0, 70, 0
2, 46730, Note_on_c, 0, 74, 65
2, 46750, Note_on_c, 0, 72, 0
2, 46805, Note_on_c, 0, 77, 64
2, 46824, Note_on_c, 0, 74, 0
2, 46877, Note_on_c, 0, 82, 66
2, 46877, Note_on_c, 0, 86, 66
2, 46877, Note_on_c, 0, 89, 66
2, 46879, Note_on_c, 0, 77, 0
2, 46948, Note_on_c, 0, 82, 0
2, 46948, Note_on_c, 0, 86, 0
2, 46948, Note_on_c, 0, 89, 0
2, 46962, Note_on_c, 0, 76, 65
2, 46979, Note_on_c, 0, 77, 71
2, 46996, Note_on_c, 0, 78, 65
2, 47015, Note_on_c, 0, 79, 70
2, 47015, Note_on_c, 0, 82, 69
2, 47015, Note_on_c, 0, 87, 68
2, 47015, Note_on_c, 0, 91, 70
2, 47016, Note_on_c, 0, 76, 0
2, 47033, Note_on_c, 0, 77, 0
2, 47052, Note_on_c, 0, 78, 0
2, 47084, Note_on_c, 0, 94, 68
2, 47086, Note_on_c, 0, 82, 0
2, 47086, Note_on_c, 0, 91, 0
2, 47086, Note_on_c, 0, 87, 0
2, 47157, Note_on_c, 0, 87, 66
2, 47157, Note_on_c, 0, 91, 69
2, 47158, Note_on_c, 0, 82, 71
2, 47159, Note_on_c, 0, 94, 0
2, 47231, Note_on_c, 0, 79, 0
2, 47231, Note_on_c, 0, 82, 0
2, 47232, Note_on_c, 0, 87, 0
2, 47232, Note_on_c, 0, 91, 0
2, 47246, Note_on_c, 0, 71, 48
2, 47263, Note_on_c, 0, 72, 48
2, 47280, Note_on_c, 0, 73, 48
2, 47297, Note_on_c, 0, 74, 50
2, 47297, Note_on_c, 0, 77, 50
2, 47297, Note_on_c, 0, 82, 49
2, 47297, Note_on_c, 0, 86, 54
2, 47302, Note_on_c, 0, 71, 0
2, 47315, Note_on_c, 0, 72, 0
2, 47316, Note_on_c, 0, 73, 0
2, 47366, Note_on_c, 0, 89, 52
2, 47367, Note_on_c, 0, 77, 0
2, 47367, Note_on_c, 0, 86, 0
2, 47367, Note_on_c, 0, 82, 0
2, 47440, Note_on_c, 0, 89, 0
2, 47440, Note_on_c, 0, 77, 65
2, 47440, Note_on_c, 0, 82, 72
2, 47440, Note_on_c, 0, 86, 70
2, 47511, Note_on_c, 0, 82, 0
2, 47527, Note_on_c, 0, 64, 65
2, 47529, Note_on_c, 0, 74, 0
2, 47529, Note_on_c, 0, 86, 0
2, 47529, Note_on_c, 0, 77, 0
2, 47543, Note_on_c, 0, 65, 67
2, 47560, Note_on_c, 0, 66, 70
2, 47577, Note_on_c, 0, 67, 70
2, 47577, Note_on_c, 0, 70, 69
2, 47577, Note_on_c, 0, 75, 70
2, 47577, Note_on_c, 0, 79, 71
2, 47579, Note_on_c, 0, 64, 0
2, 47595, Note_on_c, 0, 65, 0
2, 47595, Note_on_c, 0, 66, 0
2, 47642, Note_on_c, 0, 82, 70
2, 47644, Note_on_c, 0, 70, 0
2, 47644, Note_on_c, 0, 79, 0
2, 47645, Note_on_c, 0, 75, 0
2, 47712, Note_on_c, 0, 70, 66
2, 47712, Note_on_c, 0, 79, 68
2, 47713, Note_on_c, 0, 75, 66
2, 47714, Note_on_c, 0, 82, 0
2, 47784, Note_on_c, 0, 79, 0
2, 47784, Note_on_c, 0, 67, 0
2, 47784, Note_on_c, 0, 70, 0
2, 47785, Note_on_c, 0, 75, 0
2, 47817, Note_on_c, 0, 60, 45
2, 47833, Note_on_c, 0, 61, 41
2, 47850, Note_on_c, 0, 62, 43
2, 47850, Note_on_c, 0, 65, 48
2, 47850, Note_on_c, 0, 70, 54
2, 47850, Note_on_c, 0, 74, 49
2, 47852, Note_on_c, 0, 60, 0
2, 47884, Note_on_c, 0, 61, 0
2, 47914, Note_on_c, 0, 77, 48
2, 47916, Note_on_c, 0, 70, 0
2, 47916, Note_on_c, 0, 65, 0
2, 47916, Note_on_c, 0, 74, 0
2, 47977, Note_on_c, 0, 65, 52
2, 47978, Note_on_c, 0, 70, 54
2, 47978, Note_on_c, 0, 74, 54
2, 47979, Note_on_c, 0, 77, 0
2, 48048, Note_on_c, 0, 70, 0
2, 48048, Note_on_c, 0, 62, 0
2, 48048, Note_on_c, 0, 65, 0
2, 48048, Note_on_c, 0, 74, 0
2, 48115, Note_on_c, 0, 39, 62
2, 48115, Note_on_c, 0, 66, 59
2, 48115, Note_on_c, 0, 72, 63
2, 48116, Note_on_c, 0, 51, 72
2, 48182, Note_on_c, 0, 67, 63
2, 48182, Note_on_c, 0, 70, 60
2, 48184, Note_on_c, 0, 72, 0
2, 48184, Note_on_c, 0, 66, 0
2, 48185, Note_on_c, 0, 51, 0
2, 48185, Note_on_c, 0, 39, 0
2, 48250, Note_on_c, 0, 55, 46
2, 48250, Note_on_c, 0, 58, 45
2, 48250, Note_on_c, 0, 63, 48
2, 48252, Note_on_c, 0, 70, 0
2, 48252, Note_on_c, 0, 67, 0
2, 48304, Note_on_c, 0, 67, 65
2, 48304, Note_on_c, 0, 70, 62
2, 48323, Note_on_c, 0, 58, 0
2, 48324, Note_on_c, 0, 63, 0
2, 48340, Note_on_c, 0, 55, 0
2, 48393, Note_on_c, 0, 34, 48
2, 48393, Note_on_c, 0, 46, 48
2, 48448, Note_on_c, 0, 34, 0
2, 48465, Note_on_c, 0, 46, 0
2, 48530, Note_on_c, 0, 63, 42
2, 48531, Note_on_c, 0, 55, 45
2, 48531, Note_on_c, 0, 58, 48
2, 48533, Note_on_c, 0, 67, 0
2, 48534, Note_on_c, 0, 70, 0
2, 48586, Note_on_c, 0, 58, 0
2, 48605, Note_on_c, 0, 55, 0
2, 48606, Note_on_c, 0, 63, 0
2, 48676, Note_on_c, 0, 39, 42
2, 48676, Note_on_c, 0, 51, 44
2, 48676, Note_on_c, 0, 67, 61
2, 48676, Note_on_c, 0, 74, 60
2, 48732, Note_on_c, 0, 67, 0
2, 48732, Note_on_c, 0, 39, 0
2, 48748, Note_on_c, 0, 72, 63
2, 48750, Note_on_c, 0, 51, 0
2, 48750, Note_on_c, 0, 74, 0
2, 48817, Note_on_c, 0, 55, 48
2, 48817, Note_on_c, 0, 58, 48
2, 48817, Note_on_c, 0, 63, 42
2, 48871, Note_on_c, 0, 72, 0
2, 48886, Note_on_c, 0, 67, 63
2, 48887, Note_on_c, 0, 70, 65
2, 48888, Note_on_c, 0, 55, 0
2, 48888, Note_on_c, 0, 63, 0
2, 48888, Note_on_c, 0, 58, 0
2, 48924, Note_on_c, 0, 43, 42
2, 48960, Note_on_c, 0, 55, 48
2, 48999, Note_on_c, 0, 67, 0
2, 49000, Note_on_c, 0, 70, 0
2, 49034, Note_on_c, 0, 72, 66
2, 49035, Note_on_c, 0, 41, 47
2, 49035, Note_on_c, 0, 53, 45
2, 49037, Note_on_c, 0, 43, 0
2, 49055, Note_on_c, 0, 55, 0
2, 49090, Note_on_c, 0, 39, 45
2, 49094, Note_on_c, 0, 41, 0
2, 49108, Note_on_c, 0, 51, 41
2, 49108, Note_on_c, 0, 67, 63
2, 49128, Note_on_c, 0, 53, 0
2, 49128, Note_on_c, 0, 72, 0
2, 49160, Note_on_c, 0, 36, 45
2, 49164, Note_on_c, 0, 39, 0
2, 49178, Note_on_c, 0, 48, 46
2, 49182, Note_on_c, 0, 67, 0
2, 49200, Note_on_c, 0, 51, 0
2, 49235, Note_on_c, 0, 36, 0
2, 49248, Note_on_c, 0, 67, 62
2, 49251, Note_on_c, 0, 46, 57
2, 49251, Note_on_c, 0, 61, 57
2, 49252, Note_on_c, 0, 34, 57
2, 49253, Note_on_c, 0, 48, 0
2, 49323, Note_on_c, 0, 65, 65
2, 49324, Note_on_c, 0, 67, 0
2, 49324, Note_on_c, 0, 62, 59
2, 49325, Note_on_c, 0, 61, 0
2, 49325, Note_on_c, 0, 46, 0
2, 49326, Note_on_c, 0, 34, 0
2, 49394, Note_on_c, 0, 58, 59
2, 49395, Note_on_c, 0, 62, 0
2, 49395, Note_on_c, 0, 53, 58
2, 49430, Note_on_c, 0, 65, 0
2, 49461, Note_on_c, 0, 62, 57
2, 49461, Note_on_c, 0, 70, 67
2, 49463, Note_on_c, 0, 58, 0
2, 49464, Note_on_c, 0, 53, 0
2, 49529, Note_on_c, 0, 41, 60
2, 49602, Note_on_c, 0, 41, 0
2, 49672, Note_on_c, 0, 58, 55
2, 49673, Note_on_c, 0, 53, 60
2, 49743, Note_on_c, 0, 58, 0
2, 49744, Note_on_c, 0, 53, 0
2, 49809, Note_on_c, 0, 46, 58
2, 49811, Note_on_c, 0, 62, 0
2, 49877, Note_on_c, 0, 53, 57
2, 49877, Note_on_c, 0, 62, 59
2, 49879, Note_on_c, 0, 46, 0
2, 49879, Note_on_c, 0, 70, 0
2, 49896, Note_on_c, 0, 53, 0
2, 49949, Note_on_c, 0, 53, 60
2, 49949, Note_on_c, 0, 65, 53
2, 49950, Note_on_c, 0, 62, 0
2, 50019, Note_on_c, 0, 70, 57
2, 50021, Note_on_c, 0, 58, 54
2, 50023, Note_on_c, 0, 65, 0
2, 50023, Note_on_c, 0, 53, 0
2, 50088, Note_on_c, 0, 60, 63
2, 50088, Note_on_c, 0, 38, 67
2, 50088, Note_on_c, 0, 50, 63
2, 50088, Note_on_c, 0, 72, 63
2, 50092, Note_on_c, 0, 70, 0
2, 50092, Note_on_c, 0, 58, 0
2, 50157, Note_on_c, 0, 62, 68
2, 50157, Note_on_c, 0, 74, 50
2, 50159, Note_on_c, 0, 50, 0
2, 50159, Note_on_c, 0, 38, 0
2, 50159, Note_on_c, 0, 60, 0
2, 50176, Note_on_c, 0, 72, 0
2, 50226, Note_on_c, 0, 35, 68
2, 50226, Note_on_c, 0, 47, 67
2, 50226, Note_on_c, 0, 65, 62
2, 50226, Note_on_c, 0, 77, 66
2, 50228, Note_on_c, 0, 62, 0
2, 50247, Note_on_c, 0, 74, 0
2, 50296, Note_on_c, 0, 65, 0
2, 50296, Note_on_c, 0, 47, 0
2, 50296, Note_on_c, 0, 35, 0
2, 50297, Note_on_c, 0, 77, 0
2, 50360, Note_on_c, 0, 36, 75
2, 50360, Note_on_c, 0, 79, 72
2, 50361, Note_on_c, 0, 48, 76
2, 50361, Note_on_c, 0, 69, 74
2, 50361, Note_on_c, 0, 75, 70
2, 50424, Note_on_c, 0, 71, 76
2, 50430, Note_on_c, 0, 79, 0
2, 50431, Note_on_c, 0, 75, 0
2, 50431, Note_on_c, 0, 69, 0
2, 50445, Note_on_c, 0, 36, 0
2, 50445, Note_on_c, 0, 48, 0
2, 50496, Note_on_c, 0, 57, 77
2, 50496, Note_on_c, 0, 63, 74
2, 50497, Note_on_c, 0, 53, 72
2, 50497, Note_on_c, 0, 72, 77
2, 50499, Note_on_c, 0, 71, 0
2, 50557, Note_on_c, 0, 57, 0
2, 50558, Note_on_c, 0, 63, 0
2, 50558, Control_c, 0, 64, 127
2, 50578, Note_on_c, 0, 69, 71
2, 50578, Note_on_c, 0, 75, 70
2, 50578, Note_on_c, 0, 77, 72
2, 50579, Note_on_c, 0, 53, 0
2, 50597, Note_on_c, 0, 72, 0
2, 50653, Note_on_c, 0, 41, 76
2, 50653, Note_on_c, 0, 53, 74
2, 50655, Control_c, 0, 64, 0
2, 50721, Note_on_c, 0, 53, 0
2, 50721, Note_on_c, 0, 41, 0
2, 50790, Note_on_c, 0, 47, 71
2, 50790, Note_on_c, 0, 59, 71
2, 50845, Note_on_c, 0, 59, 0
2, 50846, Note_on_c, 0, 47, 0
2, 50934, Note_on_c, 0, 60, 68
2, 50935, Note_on_c, 0, 48, 67
2, 50989, Note_on_c, 0, 60, 0
2, 50989, Note_on_c, 0, 77, 0
2, 50989, Note_on_c, 0, 69, 0
2, 51002, Note_on_c, 0, 75, 0
2, 51007, Note_on_c, 0, 48, 0
2, 51072, Note_on_c, 0, 53, 70
2, 51072, Note_on_c, 0, 57, 72
2, 51072, Note_on_c, 0, 63, 70
2, 51072, Note_on_c, 0, 79, 70
2, 51138, Note_on_c, 0, 77, 67
2, 51139, Note_on_c, 0, 69, 67
2, 51139, Note_on_c, 0, 75, 65
2, 51140, Note_on_c, 0, 79, 0
2, 51141, Note_on_c, 0, 57, 0
2, 51141, Note_on_c, 0, 53, 0
2, 51157, Note_on_c, 0, 63, 0
2, 51209, Note_on_c, 0, 41, 68
2, 51209, Note_on_c, 0, 53, 65
2, 51244, Note_on_c, 0, 75, 0
2, 51244, Note_on_c, 0, 69, 0
2, 51244, Note_on_c, 0, 77, 0
2, 51278, Note_on_c, 0, 79, 71
2, 51280, Note_on_c, 0, 41, 0
2, 51280, Note_on_c, 0, 53, 0
2, 51343, Note_on_c, 0, 57, 70
2, 51343, Note_on_c, 0, 77, 72
2, 51344, Note_on_c, 0, 63, 65
2, 51344, Note_on_c, 0, 69, 69
2, 51344, Note_on_c, 0, 75, 72
2, 51345, Note_on_c, 0, 79, 0
2, 51360, Note_on_c, 0, 53, 69
2, 51412, Note_on_c, 0, 70, 68
2, 51414, Note_on_c, 0, 53, 0
2, 51414, Note_on_c, 0, 69, 0
2, 51414, Note_on_c, 0, 75, 0
2, 51414, Note_on_c, 0, 63, 0
2, 51414, Note_on_c, 0, 57, 0
2, 51414, Note_on_c, 0, 77, 0
2, 51449, Note_on_c, 0, 74, 65
2, 51484, Note_on_c, 0, 46, 67
2, 51484, Note_on_c, 0, 79, 69
2, 51485, Note_on_c, 0, 58, 70
2, 51539, Note_on_c, 0, 79, 0
2, 51540, Note_on_c, 0, 74, 0
2, 51553, Note_on_c, 0, 73, 71
2, 51555, Note_on_c, 0, 70, 0
2, 51555, Note_on_c, 0, 58, 0
2, 51555, Note_on_c, 0, 46, 0
2, 51619, Note_on_c, 0, 62, 69
2, 51619, Note_on_c, 0, 74, 70
2, 51620, Note_on_c, 0, 58, 67
2, 51624, Note_on_c, 0, 73, 0
2, 51635, Note_on_c, 0, 53, 71
2, 51637, Note_on_c, 0, 74, 0
2, 51683, Note_on_c, 0, 70, 77
2, 51683, Note_on_c, 0, 74, 80
2, 51683, Note_on_c, 0, 77, 80
2, 51701, Note_on_c, 0, 58, 0
2, 51701, Note_on_c, 0, 53, 0
2, 51701, Note_on_c, 0, 62, 0
2, 51748, Note_on_c, 0, 41, 70
2, 51748, Note_on_c, 0, 53, 67
2, 51817, Note_on_c, 0, 41, 0
2, 51818, Note_on_c, 0, 53, 0
2, 51886, Note_on_c, 0, 53, 70
2, 51886, Note_on_c, 0, 58, 66
2, 51886, Note_on_c, 0, 62, 65
2, 51937, Note_on_c, 0, 62, 0
2, 51937, Note_on_c, 0, 53, 0
2, 51937, Note_on_c, 0, 58, 0
2, 51972, Note_on_c, 0, 70, 0
2, 51972, Note_on_c, 0, 77, 0
2, 51972, Note_on_c, 0, 74, 0
2, 52024, Note_on_c, 0, 38, 71
2, 52024, Note_on_c, 0, 50, 65
2, 52080, Note_on_c, 0, 50, 0
2, 52096, Note_on_c, 0, 48, 69
2, 52096, Note_on_c, 0, 79, 69
2, 52097, Note_on_c, 0, 36, 71
2, 52098, Note_on_c, 0, 38, 0
2, 52169, Note_on_c, 0, 47, 71
2, 52170, Note_on_c, 0, 35, 70
2, 52170, Note_on_c, 0, 68, 66
2, 52170, Note_on_c, 0, 74, 69
2, 52170, Note_on_c, 0, 77, 72
2, 52171, Note_on_c, 0, 79, 0
2, 52207, Note_on_c, 0, 48, 0
2, 52238, Note_on_c, 0, 75, 72
2, 52239, Note_on_c, 0, 69, 71
2, 52241, Note_on_c, 0, 68, 0
2, 52241, Note_on_c, 0, 47, 0
2, 52241, Note_on_c, 0, 77, 0
2, 52241, Note_on_c, 0, 36, 0
2, 52241, Note_on_c, 0, 35, 0
2, 52241, Note_on_c, 0, 74, 0
2, 52308, Note_on_c, 0, 36, 71
2, 52308, Note_on_c, 0, 48, 68
2, 52363, Note_on_c, 0, 69, 0
2, 52363, Note_on_c, 0, 75, 0
2, 52372, Note_on_c, 0, 77, 66
2, 52402, Note_on_c, 0, 36, 0
2, 52402, Note_on_c, 0, 48, 0
2, 52438, Note_on_c, 0, 77, 0
2, 52451, Note_on_c, 0, 75, 80
2, 52453, Note_on_c, 0, 69, 78
2, 52455, Note_on_c, 0, 57, 65
2, 52455, Note_on_c, 0, 63, 72
2, 52473, Note_on_c, 0, 53, 72
2, 52530, Note_on_c, 0, 57, 0
2, 52530, Note_on_c, 0, 69, 0
2, 52531, Note_on_c, 0, 75, 0
2, 52531, Note_on_c, 0, 63, 0
2, 52548, Note_on_c, 0, 53, 0
2, 52559, Note_on_c, 0, 72, 73
2, 52559, Note_on_c, 0, 84, 73
2, 52562, Control_c, 0, 64, 127
2, 52576, Note_on_c, 0, 73, 73
2, 52576, Note_on_c, 0, 85, 75
2, 52594, Note_on_c, 0, 86, 73
2, 52595, Note_on_c, 0, 34, 65
2, 52595, Note_on_c, 0, 74, 77
2, 52613, Note_on_c, 0, 84, 0
2, 52631, Note_on_c, 0, 72, 0
2, 52632, Note_on_c, 0, 85, 0
2, 52632, Note_on_c, 0, 73, 0
2, 52632, Control_c, 0, 64, 0
2, 52662, Note_on_c, 0, 46, 72
2, 52663, Note_on_c, 0, 74, 0
2, 52663, Note_on_c, 0, 86, 0
2, 52664, Note_on_c, 0, 34, 0
2, 52735, Note_on_c, 0, 38, 70
2, 52737, Note_on_c, 0, 46, 0
2, 52810, Note_on_c, 0, 50, 72
2, 52829, Note_on_c, 0, 38, 0
2, 52883, Note_on_c, 0, 39, 70
2, 52883, Note_on_c, 0, 67, 61
2, 52883, Note_on_c, 0, 72, 66
2, 52902, Note_on_c, 0, 50, 0
2, 52954, Note_on_c, 0, 51, 65
2, 52954, Note_on_c, 0, 70, 59
2, 52954, Note_on_c, 0, 73, 61
2, 52956, Note_on_c, 0, 72, 0
2, 52956, Note_on_c, 0, 67, 0
2, 52973, Note_on_c, 0, 39, 0
2, 53009, Note_on_c, 0, 70, 0
2, 53025, Note_on_c, 0, 40, 70
2, 53026, Note_on_c, 0, 52, 66
2, 53028, Note_on_c, 0, 73, 0
2, 53081, Note_on_c, 0, 51, 0
2, 53098, Note_on_c, 0, 65, 66
2, 53098, Note_on_c, 0, 70, 71
2, 53099, Note_on_c, 0, 74, 69
2, 53117, Note_on_c, 0, 40, 0
2, 53170, Note_on_c, 0, 41, 66
2, 53171, Note_on_c, 0, 53, 72
2, 53189, Note_on_c, 0, 52, 0
2, 53240, Note_on_c, 0, 41, 0
2, 53241, Note_on_c, 0, 70, 0
2, 53258, Note_on_c, 0, 74, 0
2, 53258, Note_on_c, 0, 53, 0
2, 53258, Note_on_c, 0, 65, 0
2, 53310, Note_on_c, 0, 58, 54
2, 53310, Note_on_c, 0, 73, 57
2, 53310, Note_on_c, 0, 79, 54
2, 53367, Note_on_c, 0, 58, 0
2, 53382, Note_on_c, 0, 77, 53
2, 53384, Note_on_c, 0, 74, 59
2, 53386, Note_on_c, 0, 79, 0
2, 53404, Note_on_c, 0, 73, 0
2, 53458, Note_on_c, 0, 38, 54
2, 53458, Note_on_c, 0, 50, 53
2, 53459, Note_on_c, 0, 74, 0
2, 53522, Note_on_c, 0, 74, 60
2, 53527, Note_on_c, 0, 82, 54
2, 53531, Note_on_c, 0, 77, 0
2, 53531, Note_on_c, 0, 50, 0
2, 53531, Note_on_c, 0, 38, 0
2, 53595, Note_on_c, 0, 62, 58
2, 53596, Note_on_c, 0, 53, 57
2, 53597, Note_on_c, 0, 58, 54
2, 53667, Note_on_c, 0, 58, 0
2, 53667, Note_on_c, 0, 62, 0
2, 53667, Note_on_c, 0, 82, 0
2, 53668, Note_on_c, 0, 53, 0
2, 53686, Note_on_c, 0, 74, 0
2, 53701, Note_on_c, 0, 72, 54
2, 53701, Note_on_c, 0, 84, 59
2, 53720, Note_on_c, 0, 73, 58
2, 53720, Note_on_c, 0, 85, 60
2, 53737, Note_on_c, 0, 86, 54
2, 53738, Note_on_c, 0, 74, 58
2, 53739, Note_on_c, 0, 84, 0
2, 53739, Note_on_c, 0, 34, 55
2, 53758, Note_on_c, 0, 72, 0
2, 53776, Note_on_c, 0, 85, 0
2, 53793, Note_on_c, 0, 73, 0
2, 53794, Note_on_c, 0, 34, 0
2, 53808, Note_on_c, 0, 46, 60
2, 53809, Note_on_c, 0, 86, 0
2, 53809, Note_on_c, 0, 74, 0
2, 53872, Note_on_c, 0, 38, 59
2, 53877, Note_on_c, 0, 46, 0
2, 53941, Note_on_c, 0, 50, 58
2, 53945, Note_on_c, 0, 38, 0
2, 54014, Note_on_c, 0, 39, 57
2, 54014, Note_on_c, 0, 67, 56
2, 54014, Note_on_c, 0, 72, 56
2, 54015, Note_on_c, 0, 50, 0
2, 54083, Note_on_c, 0, 73, 79
2, 54085, Note_on_c, 0, 70, 84
2, 54086, Note_on_c, 0, 72, 0
2, 54086, Note_on_c, 0, 51, 60
2, 54087, Note_on_c, 0, 39, 0
2, 54087, Note_on_c, 0, 67, 0
2, 54152, Note_on_c, 0, 52, 60
2, 54153, Note_on_c, 0, 40, 58
2, 54157, Note_on_c, 0, 73, 0
2, 54157, Note_on_c, 0, 51, 0
2, 54157, Note_on_c, 0, 70, 0
2, 54220, Note_on_c, 0, 65, 67
2, 54220, Note_on_c, 0, 70, 65
2, 54220, Note_on_c, 0, 74, 71
2, 54225, Note_on_c, 0, 40, 0
2, 54291, Note_on_c, 0, 41, 71
2, 54309, Note_on_c, 0, 53, 71
2, 54311, Note_on_c, 0, 52, 0
2, 54364, Note_on_c, 0, 65, 0
2, 54364, Note_on_c, 0, 74, 0
2, 54364, Note_on_c, 0, 70, 0
2, 54364, Note_on_c, 0, 53, 0
2, 54364, Note_on_c, 0, 41, 0
2, 54434, Note_on_c, 0, 70, 56
2, 54471, Control_c, 0, 64, 127
2, 54505, Note_on_c, 0, 72, 56
2, 54507, Note_on_c, 0, 70, 0
2, 54572, Note_on_c, 0, 74, 62
2, 54573, Note_on_c, 0, 72, 0
2, 54644, Note_on_c, 0, 77, 72
2, 54646, Note_on_c, 0, 74, 0
2, 54715, Note_on_c, 0, 82, 67
2, 54715, Note_on_c, 0, 86, 66
2, 54715, Note_on_c, 0, 89, 68
2, 54716, Note_on_c, 0, 80, 72
2, 54717, Note_on_c, 0, 77, 0
2, 54752, Control_c, 0, 64, 0
2, 54798, Note_on_c, 0, 76, 69
2, 54802, Note_on_c, 0, 89, 0
2, 54802, Note_on_c, 0, 80, 0
2, 54802, Note_on_c, 0, 82, 0
2, 54817, Note_on_c, 0, 77, 68
2, 54819, Note_on_c, 0, 86, 0
2, 54835, Note_on_c, 0, 78, 71
2, 54850, Note_on_c, 0, 79, 70
2, 54850, Note_on_c, 0, 82, 72
2, 54850, Note_on_c, 0, 87, 66
2, 54850, Note_on_c, 0, 91, 66
2, 54855, Note_on_c, 0, 76, 0
2, 54871, Note_on_c, 0, 77, 0
2, 54904, Note_on_c, 0, 78, 0
2, 54919, Note_on_c, 0, 94, 70
2, 54921, Note_on_c, 0, 82, 0
2, 54921, Note_on_c, 0, 91, 0
2, 54921, Note_on_c, 0, 87, 0
2, 54984, Note_on_c, 0, 82, 65
2, 54984, Note_on_c, 0, 87, 69
2, 54985, Note_on_c, 0, 94, 0
2, 54985, Note_on_c, 0, 91, 72
2, 55052, Note_on_c, 0, 91, 0
2, 55052, Note_on_c, 0, 87, 0
2, 55052, Note_on_c, 0, 82, 0
2, 55052, Note_on_c, 0, 79, 0
2, 55067, Note_on_c, 0, 71, 49
2, 55083, Note_on_c, 0, 72, 52
2, 55099, Note_on_c, 0, 73, 51
2, 55112, Note_on_c, 0, 77, 53
2, 55116, Note_on_c, 0, 74, 50
2, 55116, Note_on_c, 0, 82, 49
2, 55116, Note_on_c, 0, 86, 52
2, 55118, Note_on_c, 0, 71, 0
2, 55151, Note_on_c, 0, 72, 0
2, 55152, Note_on_c, 0, 73, 0
2, 55181, Note_on_c, 0, 89, 50
2, 55183, Note_on_c, 0, 86, 0
2, 55183, Note_on_c, 0, 77, 0
2, 55183, Note_on_c, 0, 82, 0
2, 55248, Note_on_c, 0, 77, 54
2, 55248, Note_on_c, 0, 82, 49
2, 55248, Note_on_c, 0, 86, 54
2, 55250, Note_on_c, 0, 89, 0
2, 55320, Note_on_c, 0, 82, 0
2, 55320, Note_on_c, 0, 74, 0
2, 55320, Note_on_c, 0, 77, 0
2, 55320, Note_on_c, 0, 86, 0
2, 55336, Note_on_c, 0, 64, 70
2, 55353, Note_on_c, 0, 65, 70
2, 55369, Note_on_c, 0, 66, 69
2, 55387, Note_on_c, 0, 67, 66
2, 55387, Note_on_c, 0, 70, 69
2, 55387, Note_on_c, 0, 75, 72
2, 55387, Note_on_c, 0, 79, 69
2, 55389, Note_on_c, 0, 64, 0
2, 55421, Note_on_c, 0, 65, 0
2, 55422, Note_on_c, 0, 66, 0
2, 55439, Note_on_c, 0, 79, 0
2, 55440, Note_on_c, 0, 75, 0
2, 55452, Note_on_c, 0, 82, 68
2, 55454, Note_on_c, 0, 70, 0
2, 55504, Note_on_c, 0, 82, 0
2, 55521, Note_on_c, 0, 70, 49
2, 55521, Note_on_c, 0, 75, 54
2, 55521, Note_on_c, 0, 79, 50
2, 55608, Note_on_c, 0, 79, 0
2, 55608, Note_on_c, 0, 59, 51
2, 55609, Note_on_c, 0, 67, 0
2, 55609, Note_on_c, 0, 75, 0
2, 55609, Note_on_c, 0, 70, 0
2, 55625, Note_on_c, 0, 60, 48
2, 55644, Note_on_c, 0, 61, 53
2, 55661, Note_on_c, 0, 62, 48
2, 55661, Note_on_c, 0, 65, 52
2, 55661, Note_on_c, 0, 70, 49
2, 55661, Note_on_c, 0, 74, 50
2, 55662, Note_on_c, 0, 59, 0
2, 55680, Note_on_c, 0, 60, 0
2, 55698, Note_on_c, 0, 61, 0
2, 55728, Note_on_c, 0, 77, 50
2, 55730, Note_on_c, 0, 65, 0
2, 55731, Note_on_c, 0, 74, 0
2, 55731, Note_on_c, 0, 70, 0
2, 55799, Note_on_c, 0, 65, 50
2, 55799, Note_on_c, 0, 70, 48
2, 55799, Note_on_c, 0, 74, 47
2, 55800, Note_on_c, 0, 77, 0
2, 55873, Note_on_c, 0, 70, 0
2, 55873, Note_on_c, 0, 74, 0
2, 55873, Note_on_c, 0, 65, 0
2, 55891, Note_on_c, 0, 62, 0
2, 55944, Note_on_c, 0, 58, 72
2, 55945, Note_on_c, 0, 43, 60
2, 56015, Note_on_c, 0, 45, 61
2, 56015, Note_on_c, 0, 60, 63
2, 56018, Note_on_c, 0, 43, 0
2, 56018, Note_on_c, 0, 58, 0
2, 56105, Note_on_c, 0, 45, 0
2, 56156, Note_on_c, 0, 46, 65
2, 56156, Note_on_c, 0, 62, 65
2, 56158, Note_on_c, 0, 60, 0
2, 56232, Note_on_c, 0, 62, 0
2, 56308, Note_on_c, 0, 60, 65
2, 56309, Note_on_c, 0, 48, 59
2, 56348, Note_on_c, 0, 46, 0
2, 56381, Note_on_c, 0, 50, 60
2, 56381, Note_on_c, 0, 58, 66
2, 56383, Note_on_c, 0, 60, 0
2, 56401, Note_on_c, 0, 48, 0
2, 56449, Control_c, 0, 67, 127
2, 56451, Note_on_c, 0, 50, 0
2, 56451, Note_on_c, 0, 58, 0
2, 56503, Control_c, 0, 64, 127
2, 56520, Note_on_c, 0, 58, 55
2, 56520, Note_on_c, 0, 74, 56
2, 56590, Note_on_c, 0, 57, 60
2, 56590, Note_on_c, 0, 72, 56
2, 56592, Note_on_c, 0, 74, 0
2, 56592, Note_on_c, 0, 58, 0
2, 56665, Control_c, 0, 64, 0
2, 56701, Note_on_c, 0, 57, 0
2, 56701, Note_on_c, 0, 72, 0
2, 56735, Note_on_c, 0, 55, 57
2, 56735, Note_on_c, 0, 70, 59
2, 56827, Note_on_c, 0, 70, 0
2, 56845, Note_on_c, 0, 55, 0
2, 56880, Note_on_c, 0, 53, 65
2, 56880, Note_on_c, 0, 69, 59
2, 56949, Note_on_c, 0, 52, 66
2, 56949, Note_on_c, 0, 58, 63
2, 56949, Note_on_c, 0, 61, 61
2, 56949, Note_on_c, 0, 67, 84
2, 56951, Note_on_c, 0, 69, 0
2, 56952, Control_c, 0, 67, 0
2, 56967, Note_on_c, 0, 53, 0
2, 57000, Note_on_c, 0, 61, 0
2, 57014, Note_on_c, 0, 74, 62
2, 57015, Note_on_c, 0, 70, 61
2, 57016, Note_on_c, 0, 58, 0
2, 57016, Note_on_c, 0, 67, 0
2, 57033, Note_on_c, 0, 52, 0
2, 57080, Note_on_c, 0, 79, 59
2, 57081, Note_on_c, 0, 53, 64
2, 57152, Note_on_c, 0, 77, 60
2, 57153, Note_on_c, 0, 79, 0
2, 57154, Note_on_c, 0, 53, 0
2, 57154, Note_on_c, 0, 74, 0
2, 57154, Note_on_c, 0, 70, 0
2, 57224, Note_on_c, 0, 70, 66
2, 57225, Note_on_c, 0, 62, 66
2, 57225, Note_on_c, 0, 74, 60
2, 57226, Note_on_c, 0, 77, 0
2, 57226, Note_on_c, 0, 53, 61
2, 57226, Note_on_c, 0, 58, 60
2, 57294, Note_on_c, 0, 69, 65
2, 57294, Note_on_c, 0, 75, 66
2, 57296, Note_on_c, 0, 58, 0
2, 57297, Note_on_c, 0, 70, 0
2, 57313, Note_on_c, 0, 74, 0
2, 57313, Note_on_c, 0, 53, 0
2, 57313, Note_on_c, 0, 62, 0
2, 57361, Note_on_c, 0, 41, 65
2, 57362, Note_on_c, 0, 53, 66
2, 57381, Note_on_c, 0, 75, 0
2, 57381, Note_on_c, 0, 69, 0
2, 57432, Note_on_c, 0, 53, 0
2, 57432, Note_on_c, 0, 77, 61
2, 57433, Note_on_c, 0, 41, 0
2, 57504, Note_on_c, 0, 63, 61
2, 57505, Note_on_c, 0, 77, 0
2, 57505, Note_on_c, 0, 53, 60
2, 57505, Note_on_c, 0, 57, 66
2, 57505, Note_on_c, 0, 67, 64
2, 57579, Note_on_c, 0, 69, 66
2, 57580, Note_on_c, 0, 67, 0
2, 57580, Note_on_c, 0, 57, 0
2, 57580, Note_on_c, 0, 53, 0
2, 57581, Note_on_c, 0, 63, 0
2, 57649, Note_on_c, 0, 58, 46
2, 57651, Note_on_c, 0, 69, 0
2, 57668, Note_on_c, 0, 46, 46
2, 57668, Note_on_c, 0, 70, 65
2, 57704, Note_on_c, 0, 58, 0
2, 57720, Control_c, 0, 67, 127
2, 57721, Note_on_c, 0, 46, 0
2, 57792, Note_on_c, 0, 41, 51
2, 57792, Note_on_c, 0, 53, 49
2, 57866, Note_on_c, 0, 42, 50
2, 57866, Note_on_c, 0, 54, 52
2, 57868, Note_on_c, 0, 53, 0
2, 57868, Note_on_c, 0, 41, 0
2, 57938, Note_on_c, 0, 43, 50
2, 57940, Note_on_c, 0, 54, 0
2, 57940, Note_on_c, 0, 42, 0
2, 57956, Note_on_c, 0, 55, 48
2, 58008, Note_on_c, 0, 44, 47
2, 58008, Note_on_c, 0, 56, 47
2, 58011, Note_on_c, 0, 55, 0
2, 58011, Note_on_c, 0, 43, 0
2, 58012, Note_on_c, 0, 70, 0
2, 58063, Control_c, 0, 64, 127
2, 58081, Note_on_c, 0, 57, 50
2, 58082, Note_on_c, 0, 72, 65
2, 58083, Note_on_c, 0, 56, 0
2, 58083, Note_on_c, 0, 44, 0
2, 58085, Control_c, 0, 67, 0
2, 58093, Note_on_c, 0, 45, 54
2, 58152, Note_on_c, 0, 45, 0
2, 58153, Note_on_c, 0, 57, 0
2, 58153, Note_on_c, 0, 72, 0
2, 58224, Note_on_c, 0, 73, 72
2, 58225, Note_on_c, 0, 46, 54
2, 58225, Note_on_c, 0, 58, 54
2, 58225, Note_on_c, 0, 61, 54
2, 58262, Control_c, 0, 64, 0
2, 58279, Note_on_c, 0, 58, 0
2, 58297, Note_on_c, 0, 61, 0
2, 58332, Note_on_c, 0, 46, 0
2, 58362, Note_on_c, 0, 53, 48
2, 58362, Note_on_c, 0, 58, 51
2, 58362, Note_on_c, 0, 61, 54
2, 58433, Note_on_c, 0, 58, 0
2, 58433, Note_on_c, 0, 53, 0
2, 58454, Note_on_c, 0, 61, 0
2, 58504, Note_on_c, 0, 41, 54
2, 58504, Note_on_c, 0, 53, 49
2, 58557, Control_c, 0, 67, 127
2, 58559, Note_on_c, 0, 41, 0
2, 58575, Note_on_c, 0, 53, 0
2, 58638, Note_on_c, 0, 61, 51
2, 58639, Note_on_c, 0, 58, 48
2, 58640, Note_on_c, 0, 53, 51
2, 58640, Note_on_c, 0, 70, 72
2, 58644, Note_on_c, 0, 73, 0
2, 58673, Control_c, 0, 64, 127
2, 58691, Note_on_c, 0, 61, 0
2, 58691, Note_on_c, 0, 58, 0
2, 58704, Note_on_c, 0, 60, 48
2, 58704, Note_on_c, 0, 72, 71
2, 58706, Note_on_c, 0, 53, 0
2, 58706, Note_on_c, 0, 70, 0
2, 58771, Note_on_c, 0, 58, 48
2, 58771, Note_on_c, 0, 73, 59
2, 58772, Note_on_c, 0, 61, 51
2, 58773, Note_on_c, 0, 60, 0
2, 58773, Note_on_c, 0, 72, 0
2, 58773, Note_on_c, 0, 46, 53
2, 58824, Note_on_c, 0, 61, 0
2, 58824, Note_on_c, 0, 58, 0
2, 58840, Note_on_c, 0, 46, 0
2, 58897, Note_on_c, 0, 53, 51
2, 58897, Note_on_c, 0, 58, 52
2, 58897, Note_on_c, 0, 61, 50
2, 58947, Note_on_c, 0, 58, 0
2, 58948, Note_on_c, 0, 61, 0
2, 58964, Note_on_c, 0, 53, 0
2, 58964, Control_c, 0, 67, 0
2, 58965, Control_c, 0, 64, 0
2, 59033, Note_on_c, 0, 41, 47
2, 59033, Note_on_c, 0, 53, 49
2, 59107, Note_on_c, 0, 53, 0
2, 59107, Note_on_c, 0, 41, 0
2, 59175, Note_on_c, 0, 53, 57
2, 59175, Note_on_c, 0, 58, 56
2, 59175, Note_on_c, 0, 61, 54
2, 59175, Note_on_c, 0, 70, 60
2, 59177, Note_on_c, 0, 73, 0
2, 59243, Note_on_c, 0, 60, 55
2, 59243, Note_on_c, 0, 72, 55
2, 59245, Note_on_c, 0, 53, 0
2, 59245, Note_on_c, 0, 58, 0
2, 59246, Note_on_c, 0, 61, 0
2, 59247, Note_on_c, 0, 70, 0
2, 59311, Note_on_c, 0, 46, 57
2, 59312, Note_on_c, 0, 72, 0
2, 59312, Note_on_c, 0, 60, 0
2, 59312, Note_on_c, 0, 58, 53
2, 59312, Note_on_c, 0, 61, 56
2, 59312, Note_on_c, 0, 73, 56
2, 59385, Note_on_c, 0, 58, 0
2, 59385, Note_on_c, 0, 77, 53
2, 59386, Note_on_c, 0, 61, 0
2, 59459, Note_on_c, 0, 58, 56
2, 59459, Note_on_c, 0, 82, 55
2, 59460, Note_on_c, 0, 61, 56
2, 59461, Note_on_c, 0, 77, 0
2, 59477, Note_on_c, 0, 53, 57
2, 59532, Note_on_c, 0, 85, 57
2, 59533, Note_on_c, 0, 53, 0
2, 59533, Note_on_c, 0, 58, 0
2, 59533, Note_on_c, 0, 61, 0
2, 59534, Note_on_c, 0, 82, 0
2, 59570, Note_on_c, 0, 73, 0
2, 59600, Note_on_c, 0, 42, 56
2, 59601, Note_on_c, 0, 54, 54
2, 59601, Note_on_c, 0, 63, 60
2, 59602, Note_on_c, 0, 75, 54
2, 59604, Note_on_c, 0, 85, 0
2, 59620, Note_on_c, 0, 46, 0
2, 59671, Note_on_c, 0, 78, 58
2, 59672, Note_on_c, 0, 54, 0
2, 59673, Note_on_c, 0, 63, 0
2, 59724, Note_on_c, 0, 78, 0
2, 59739, Note_on_c, 0, 54, 56
2, 59739, Note_on_c, 0, 58, 57
2, 59739, Note_on_c, 0, 63, 59
2, 59739, Note_on_c, 0, 82, 58
2, 59811, Note_on_c, 0, 87, 59
2, 59812, Note_on_c, 0, 58, 0
2, 59812, Note_on_c, 0, 54, 0
2, 59813, Note_on_c, 0, 75, 0
2, 59813, Note_on_c, 0, 63, 0
2, 59813, Note_on_c, 0, 82, 0
2, 59880, Note_on_c, 0, 41, 60
2, 59880, Note_on_c, 0, 61, 58
2, 59880, Note_on_c, 0, 73, 53
2, 59883, Note_on_c, 0, 87, 0
2, 59897, Note_on_c, 0, 53, 57
2, 59901, Note_on_c, 0, 42, 0
2, 59916, Control_c, 0, 67, 127
2, 59955, Note_on_c, 0, 41, 0
2, 59956, Note_on_c, 0, 77, 60
2, 59956, Note_on_c, 0, 82, 62
2, 59956, Note_on_c, 0, 85, 61
2, 59976, Note_on_c, 0, 53, 0
2, 59976, Control_c, 0, 67, 0
2, 60031, Note_on_c, 0, 39, 55
2, 60032, Note_on_c, 0, 51, 59
2, 60033, Note_on_c, 0, 82, 0
2, 60033, Note_on_c, 0, 77, 0
2, 60033, Note_on_c, 0, 85, 0
2, 60103, Note_on_c, 0, 77, 57
2, 60103, Note_on_c, 0, 81, 58
2, 60103, Note_on_c, 0, 84, 56
2, 60119, Control_c, 0, 67, 127
2, 60120, Note_on_c, 0, 77, 0
2, 60122, Note_on_c, 0, 39, 0
2, 60123, Note_on_c, 0, 73, 0
2, 60139, Note_on_c, 0, 61, 0
2, 60139, Note_on_c, 0, 51, 0
2, 60168, Note_on_c, 0, 37, 58
2, 60168, Note_on_c, 0, 82, 60
2, 60169, Control_c, 0, 64, 127
2, 60169, Note_on_c, 0, 49, 53
2, 60169, Note_on_c, 0, 77, 59
2, 60171, Note_on_c, 0, 81, 0
2, 60171, Note_on_c, 0, 84, 0
2, 60189, Control_c, 0, 67, 0
2, 60206, Note_on_c, 0, 37, 0
2, 60222, Note_on_c, 0, 49, 0
2, 60239, Control_c, 0, 64, 0
2, 60305, Note_on_c, 0, 65, 58
2, 60306, Note_on_c, 0, 53, 58
2, 60306, Note_on_c, 0, 61, 60
2, 60306, Note_on_c, 0, 70, 57
2, 60307, Note_on_c, 0, 77, 0
2, 60307, Note_on_c, 0, 58, 56
2, 60308, Note_on_c, 0, 82, 0
2, 60378, Note_on_c, 0, 61, 0
2, 60378, Note_on_c, 0, 58, 0
2, 60379, Note_on_c, 0, 53, 0
2, 60425, Control_c, 0, 64, 127
2, 60444, Note_on_c, 0, 60, 53
2, 60445, Note_on_c, 0, 54, 59
2, 60445, Note_on_c, 0, 63, 55
2, 60445, Note_on_c, 0, 69, 53
2, 60446, Note_on_c, 0, 48, 55
2, 60447, Note_on_c, 0, 65, 0
2, 60447, Note_on_c, 0, 70, 0
2, 60549, Note_on_c, 0, 54, 0
2, 60549, Control_c, 0, 64, 0
2, 60561, Note_on_c, 0, 69, 0
2, 60582, Note_on_c, 0, 55, 60
2, 60582, Note_on_c, 0, 67, 55
2, 60654, Note_on_c, 0, 66, 56
2, 60655, Note_on_c, 0, 57, 57
2, 60656, Note_on_c, 0, 67, 0
2, 60691, Note_on_c, 0, 55, 0
2, 60726, Note_on_c, 0, 60, 0
2, 60727, Note_on_c, 0, 63, 0
2, 60743, Note_on_c, 0, 57, 0
2, 60744, Note_on_c, 0, 66, 0
2, 60790, Note_on_c, 0, 55, 59
2, 60791, Note_on_c, 0, 67, 59
2, 60859, Note_on_c, 0, 54, 53
2, 60859, Note_on_c, 0, 69, 59
2, 60861, Note_on_c, 0, 67, 0
2, 60861, Note_on_c, 0, 55, 0
2, 60878, Note_on_c, 0, 48, 0
2, 60917, Note_on_c, 0, 69, 0
2, 60917, Note_on_c, 0, 54, 0
2, 60991, Control_c, 0, 64, 127
2, 61010, Note_on_c, 0, 51, 57
2, 61010, Note_on_c, 0, 57, 54
2, 61010, Note_on_c, 0, 63, 56
2, 61010, Note_on_c, 0, 66, 57
2, 61010, Note_on_c, 0, 72, 59
2, 61082, Control_c, 0, 64, 0
2, 61083, Note_on_c, 0, 57, 0
2, 61100, Note_on_c, 0, 72, 0
2, 61151, Note_on_c, 0, 58, 54
2, 61151, Note_on_c, 0, 70, 53
2, 61220, Note_on_c, 0, 60, 57
2, 61220, Note_on_c, 0, 69, 53
2, 61221, Note_on_c, 0, 58, 0
2, 61222, Note_on_c, 0, 70, 0
2, 61274, Note_on_c, 0, 66, 0
2, 61274, Note_on_c, 0, 63, 0
2, 61329, Note_on_c, 0, 60, 0
2, 61330, Note_on_c, 0, 69, 0
2, 61368, Note_on_c, 0, 70, 55
2, 61368, Note_on_c, 0, 58, 56
2, 61440, Note_on_c, 0, 57, 55
2, 61440, Note_on_c, 0, 72, 56
2, 61441, Note_on_c, 0, 58, 0
2, 61442, Note_on_c, 0, 70, 0
2, 61459, Note_on_c, 0, 51, 0
2, 61512, Note_on_c, 0, 72, 0
2, 61512, Note_on_c, 0, 57, 0
2, 61584, Note_on_c, 0, 71, 56
2, 61584, Note_on_c, 0, 56, 60
2, 61729, Note_on_c, 0, 57, 56
2, 61729, Note_on_c, 0, 72, 54
2, 61751, Note_on_c, 0, 71, 0
2, 61785, Note_on_c, 0, 56, 0
2, 61988, Note_on_c, 0, 72, 0
2, 61989, Note_on_c, 0, 57, 0
2, 62022, Note_on_c, 0, 73, 60
2, 62023, Note_on_c, 0, 58, 56
2, 62159, Note_on_c, 0, 74, 58
2, 62160, Note_on_c, 0, 59, 60
2, 62161, Note_on_c, 0, 58, 0
2, 62161, Note_on_c, 0, 73, 0
2, 62302, Note_on_c, 0, 60, 56
2, 62302, Note_on_c, 0, 75, 53
2, 62303, Note_on_c, 0, 74, 0
2, 62303, Note_on_c, 0, 59, 0
2, 62438, Note_on_c, 0, 61, 61
2, 62439, Note_on_c, 0, 76, 55
2, 62440, Note_on_c, 0, 60, 0
2, 62441, Note_on_c, 0, 75, 0
2, 62580, Note_on_c, 0, 62, 58
2, 62581, Note_on_c, 0, 77, 56
2, 62582, Note_on_c, 0, 61, 0
2, 62582, Note_on_c, 0, 76, 0
2, 62696, Note_on_c, 0, 62, 0
2, 62696, Note_on_c, 0, 77, 0
2, 62709, Note_on_c, 0, 66, 54
2, 62709, Note_on_c, 0, 72, 60
2, 62710, Note_on_c, 0, 58, 56
2, 62710, Note_on_c, 0, 63, 54
2, 62710, Note_on_c, 0, 78, 58
2, 62777, Note_on_c, 0, 72, 0
2, 62842, Note_on_c, 0, 60, 60
2, 62843, Note_on_c, 0, 54, 54
2, 62843, Note_on_c, 0, 70, 54
2, 62843, Note_on_c, 0, 72, 59
2, 62844, Note_on_c, 0, 58, 0
2, 62844, Note_on_c, 0, 75, 58
2, 62845, Note_on_c, 0, 78, 0
2, 62845, Note_on_c, 0, 66, 0
2, 62845, Note_on_c, 0, 63, 0
2, 63052, Note_on_c, 0, 72, 0
2, 63052, Note_on_c, 0, 60, 0
2, 63052, Note_on_c, 0, 54, 0
2, 63053, Note_on_c, 0, 75, 0
2, 63053, Note_on_c, 0, 70, 0
2, 63124, Note_on_c, 0, 54, 60
2, 63124, Note_on_c, 0, 60, 53
2, 63124, Note_on_c, 0, 70, 54
2, 63124, Note_on_c, 0, 72, 60
2, 63124, Note_on_c, 0, 76, 54
2, 63192, Note_on_c, 0, 60, 0
2, 63193, Note_on_c, 0, 54, 0
2, 63211, Note_on_c, 0, 72, 0
2, 63245, Note_on_c, 0, 70, 0
2, 63245, Note_on_c, 0, 76, 0
2, 63259, Note_on_c, 0, 60, 71
2, 63259, Note_on_c, 0, 72, 77
2, 63260, Note_on_c, 0, 69, 77
2, 63260, Note_on_c, 0, 77, 76
2, 63261, Note_on_c, 0, 53, 76
2, 63326, Note_on_c, 0, 72, 0
2, 63360, Note_on_c, 0, 60, 0
2, 63360, Note_on_c, 0, 69, 0
2, 63393, Note_on_c, 0, 63, 54
2, 63393, Note_on_c, 0, 72, 48
2, 63466, Note_on_c, 0, 61, 53
2, 63467, Note_on_c, 0, 70, 53
2, 63468, Note_on_c, 0, 63, 0
2, 63485, Note_on_c, 0, 72, 0
2, 63539, Note_on_c, 0, 60, 53
2, 63539, Note_on_c, 0, 69, 51
2, 63541, Note_on_c, 0, 61, 0
2, 63541, Note_on_c, 0, 70, 0
2, 63606, Note_on_c, 0, 61, 48
2, 63607, Note_on_c, 0, 70, 48
2, 63624, Note_on_c, 0, 60, 0
2, 63625, Note_on_c, 0, 69, 0
2, 63675, Note_on_c, 0, 60, 45
2, 63675, Note_on_c, 0, 69, 52
2, 63679, Note_on_c, 0, 77, 0
2, 63679, Note_on_c, 0, 61, 0
2, 63679, Note_on_c, 0, 70, 0
2, 63696, Note_on_c, 0, 53, 0
2, 63729, Note_on_c, 0, 60, 0
2, 63730, Note_on_c, 0, 69, 0
2, 63786, Control_c, 0, 64, 127
2, 63823, Note_on_c, 0, 46, 59
2, 63823, Note_on_c, 0, 73, 57
2, 63824, Note_on_c, 0, 61, 59
2, 63825, Note_on_c, 0, 58, 54
2, 63882, Control_c, 0, 64, 0
2, 63898, Note_on_c, 0, 77, 54
2, 63899, Note_on_c, 0, 58, 0
2, 63899, Note_on_c, 0, 61, 0
2, 63966, Note_on_c, 0, 58, 55
2, 63966, Note_on_c, 0, 61, 59
2, 63966, Note_on_c, 0, 82, 54
2, 63968, Note_on_c, 0, 77, 0
2, 63984, Note_on_c, 0, 53, 55
2, 64034, Note_on_c, 0, 85, 60
2, 64036, Note_on_c, 0, 53, 0
2, 64036, Note_on_c, 0, 58, 0
2, 64036, Note_on_c, 0, 61, 0
2, 64037, Note_on_c, 0, 82, 0
2, 64055, Note_on_c, 0, 73, 0
2, 64104, Note_on_c, 0, 42, 53
2, 64104, Note_on_c, 0, 54, 53
2, 64104, Note_on_c, 0, 63, 54
2, 64105, Note_on_c, 0, 75, 54
2, 64106, Note_on_c, 0, 85, 0
2, 64123, Note_on_c, 0, 46, 0
2, 64176, Note_on_c, 0, 78, 54
2, 64177, Note_on_c, 0, 63, 0
2, 64177, Note_on_c, 0, 54, 0
2, 64246, Note_on_c, 0, 54, 55
2, 64246, Note_on_c, 0, 58, 60
2, 64246, Note_on_c, 0, 63, 55
2, 64246, Note_on_c, 0, 82, 54
2, 64249, Note_on_c, 0, 78, 0
2, 64313, Note_on_c, 0, 87, 60
2, 64317, Note_on_c, 0, 82, 0
2, 64332, Note_on_c, 0, 58, 0
2, 64332, Note_on_c, 0, 54, 0
2, 64333, Note_on_c, 0, 75, 0
2, 64333, Note_on_c, 0, 63, 0
2, 64382, Note_on_c, 0, 41, 62
2, 64383, Note_on_c, 0, 61, 60
2, 64383, Note_on_c, 0, 73, 72
2, 64385, Note_on_c, 0, 87, 0
2, 64400, Note_on_c, 0, 53, 59
2, 64402, Note_on_c, 0, 42, 0
2, 64453, Note_on_c, 0, 77, 65
2, 64453, Note_on_c, 0, 82, 68
2, 64453, Note_on_c, 0, 85, 71
2, 64473, Note_on_c, 0, 41, 0
2, 64490, Note_on_c, 0, 53, 0
2, 64524, Note_on_c, 0, 39, 60
2, 64524, Note_on_c, 0, 51, 61
2, 64526, Note_on_c, 0, 77, 0
2, 64526, Note_on_c, 0, 82, 0
2, 64527, Note_on_c, 0, 85, 0
2, 64543, Note_on_c, 0, 61, 0
2, 64592, Note_on_c, 0, 72, 68
2, 64593, Note_on_c, 0, 77, 65
2, 64593, Note_on_c, 0, 81, 71
2, 64593, Note_on_c, 0, 84, 72
2, 64610, Note_on_c, 0, 77, 0
2, 64611, Note_on_c, 0, 73, 0
2, 64666, Note_on_c, 0, 37, 64
2, 64666, Note_on_c, 0, 49, 59
2, 64666, Note_on_c, 0, 70, 72
2, 64666, Note_on_c, 0, 82, 70
2, 64667, Note_on_c, 0, 72, 0
2, 64667, Note_on_c, 0, 39, 0
2, 64667, Note_on_c, 0, 77, 72
2, 64668, Note_on_c, 0, 81, 0
2, 64668, Note_on_c, 0, 51, 0
2, 64685, Note_on_c, 0, 84, 0
2, 64759, Note_on_c, 0, 37, 0
2, 64759, Note_on_c, 0, 70, 0
2, 64759, Note_on_c, 0, 77, 0
2, 64759, Note_on_c, 0, 82, 0
2, 64777, Note_on_c, 0, 49, 0
2, 64812, Note_on_c, 0, 33, 53
2, 64813, Note_on_c, 0, 72, 60
2, 64813, Note_on_c, 0, 77, 58
2, 64813, Note_on_c, 0, 84, 60
2, 64831, Note_on_c, 0, 45, 53
2, 64871, Note_on_c, 0, 84, 0
2, 64871, Note_on_c, 0, 77, 0
2, 64888, Note_on_c, 0, 45, 0
2, 64905, Note_on_c, 0, 72, 0
2, 64941, Note_on_c, 0, 33, 0
2, 64955, Note_on_c, 0, 34, 53
2, 64955, Note_on_c, 0, 46, 60
2, 64955, Note_on_c, 0, 73, 79
2, 64955, Note_on_c, 0, 85, 81
2, 64962, Note_on_c, 0, 77, 78
2, 65023, Note_on_c, 0, 72, 54
2, 65023, Note_on_c, 0, 84, 53
2, 65024, Note_on_c, 0, 77, 0
2, 65025, Note_on_c, 0, 85, 0
2, 65025, Note_on_c, 0, 73, 0
2, 65042, Note_on_c, 0, 46, 0
2, 65043, Note_on_c, 0, 34, 0
2, 65093, Note_on_c, 0, 61, 60
2, 65094, Note_on_c, 0, 73, 58
2, 65094, Note_on_c, 0, 85, 54
2, 65095, Note_on_c, 0, 84, 0
2, 65095, Note_on_c, 0, 58, 58
2, 65112, Note_on_c, 0, 53, 56
2, 65132, Note_on_c, 0, 72, 0
2, 65166, Note_on_c, 0, 87, 63
2, 65167, Note_on_c, 0, 75, 58
2, 65168, Note_on_c, 0, 58, 0
2, 65169, Note_on_c, 0, 73, 0
2, 65169, Note_on_c, 0, 85, 0
2, 65186, Note_on_c, 0, 61, 0
2, 65204, Note_on_c, 0, 53, 0
2, 65235, Note_on_c, 0, 42, 55
2, 65236, Note_on_c, 0, 54, 58
2, 65240, Note_on_c, 0, 87, 0
2, 65257, Note_on_c, 0, 75, 0
2, 65309, Note_on_c, 0, 73, 57
2, 65309, Note_on_c, 0, 85, 54
2, 65310, Note_on_c, 0, 42, 0
2, 65310, Note_on_c, 0, 54, 0
2, 65386, Note_on_c, 0, 54, 53
2, 65386, Note_on_c, 0, 58, 60
2, 65386, Note_on_c, 0, 63, 56
2, 65386, Note_on_c, 0, 70, 53
2, 65386, Note_on_c, 0, 82, 55
2, 65388, Note_on_c, 0, 73, 0
2, 65389, Note_on_c, 0, 85, 0
2, 65444, Note_on_c, 0, 82, 0
2, 65461, Note_on_c, 0, 63, 0
2, 65461, Note_on_c, 0, 58, 0
2, 65461, Note_on_c, 0, 54, 0
2, 65461, Note_on_c, 0, 70, 0
2, 65531, Note_on_c, 0, 44, 56
2, 65532, Note_on_c, 0, 56, 53
2, 65532, Note_on_c, 0, 72, 55
2, 65532, Note_on_c, 0, 78, 54
2, 65532, Note_on_c, 0, 82, 57
2, 65588, Note_on_c, 0, 78, 0
2, 65589, Note_on_c, 0, 82, 0
2, 65601, Note_on_c, 0, 80, 60
2, 65602, Control_c, 0, 67, 127
2, 65603, Note_on_c, 0, 44, 0
2, 65603, Note_on_c, 0, 56, 0
2, 65658, Control_c, 0, 67, 0
2, 65673, Note_on_c, 0, 56, 54
2, 65673, Note_on_c, 0, 60, 55
2, 65673, Note_on_c, 0, 66, 60
2, 65674, Note_on_c, 0, 78, 59
2, 65676, Note_on_c, 0, 80, 0
2, 65710, Control_c, 0, 67, 127
2, 65747, Note_on_c, 0, 66, 0
2, 65747, Note_on_c, 0, 72, 0
2, 65747, Note_on_c, 0, 73, 56
2, 65747, Note_on_c, 0, 77, 56
2, 65748, Note_on_c, 0, 78, 0
2, 65764, Note_on_c, 0, 60, 0
2, 65765, Note_on_c, 0, 56, 0
2, 65767, Control_c, 0, 67, 0
2, 65818, Note_on_c, 0, 37, 54
2, 65818, Note_on_c, 0, 49, 60
2, 65822, Control_c, 0, 67, 127
2, 65887, Note_on_c, 0, 80, 60
2, 65889, Note_on_c, 0, 73, 0
2, 65889, Note_on_c, 0, 77, 0
2, 65904, Note_on_c, 0, 49, 0
2, 65904, Note_on_c, 0, 37, 0
2, 65906, Control_c, 0, 67, 0
2, 65952, Note_on_c, 0, 56, 59
2, 65952, Note_on_c, 0, 61, 58
2, 65952, Note_on_c, 0, 65, 53
2, 65952, Note_on_c, 0, 73, 57
2, 65952, Note_on_c, 0, 77, 53
2, 65953, Note_on_c, 0, 80, 0
2, 66026, Note_on_c, 0, 56, 0
2, 66027, Note_on_c, 0, 61, 0
2, 66027, Note_on_c, 0, 65, 0
2, 66027, Note_on_c, 0, 77, 0
2, 66028, Note_on_c, 0, 73, 0
2, 66099, Control_c, 0, 64, 127
2, 66100, Note_on_c, 0, 72, 55
2, 66100, Note_on_c, 0, 77, 59
2, 66101, Note_on_c, 0, 68, 58
2, 66101, Note_on_c, 0, 84, 53
2, 66172, Note_on_c, 0, 67, 55
2, 66172, Note_on_c, 0, 76, 55
2, 66173, Note_on_c, 0, 68, 0
2, 66174, Note_on_c, 0, 77, 0
2, 66278, Note_on_c, 0, 67, 0
2, 66279, Note_on_c, 0, 76, 0
2, 66312, Note_on_c, 0, 68, 59
2, 66312, Note_on_c, 0, 77, 55
2, 66313, Control_c, 0, 64, 0
2, 66384, Note_on_c, 0, 68, 0
2, 66456, Note_on_c, 0, 70, 60
2, 66456, Note_on_c, 0, 79, 59
2, 66474, Note_on_c, 0, 77, 0
2, 66474, Note_on_c, 0, 72, 0
2, 66507, Note_on_c, 0, 84, 0
2, 66522, Note_on_c, 0, 72, 57
2, 66522, Note_on_c, 0, 80, 60
2, 66524, Note_on_c, 0, 79, 0
2, 66524, Note_on_c, 0, 70, 0
2, 66590, Note_on_c, 0, 72, 0
2, 66591, Note_on_c, 0, 80, 0
2, 66624, Control_c, 0, 67, 127
2, 66659, Note_on_c, 0, 67, 54
2, 66659, Note_on_c, 0, 72, 59
2, 66660, Control_c, 0, 64, 127
2, 66660, Note_on_c, 0, 84, 54
2, 66661, Note_on_c, 0, 76, 57
2, 66732, Note_on_c, 0, 70, 58
2, 66732, Note_on_c, 0, 79, 57
2, 66750, Note_on_c, 0, 67, 0
2, 66751, Note_on_c, 0, 76, 0
2, 66819, Note_on_c, 0, 79, 0
2, 66838, Note_on_c, 0, 70, 0
2, 66869, Note_on_c, 0, 68, 57
2, 66869, Note_on_c, 0, 77, 53
2, 66889, Control_c, 0, 67, 0
2, 66960, Control_c, 0, 64, 0
2, 66978, Note_on_c, 0, 77, 0
2, 66978, Note_on_c, 0, 68, 0
2, 66995, Note_on_c, 0, 72, 0
2, 67067, Note_on_c, 0, 84, 0
2, 67084, Note_on_c, 0, 41, 74
2, 67084, Note_on_c, 0, 65, 73
2, 67084, Note_on_c, 0, 72, 78
2, 67085, Note_on_c, 0, 68, 75
2, 67085, Note_on_c, 0, 77, 76
2, 67103, Note_on_c, 0, 53, 47
2, 67157, Note_on_c, 0, 65, 0
2, 67157, Note_on_c, 0, 41, 0
2, 67158, Note_on_c, 0, 77, 0
2, 67158, Note_on_c, 0, 68, 0
2, 67158, Note_on_c, 0, 53, 0
2, 67158, Note_on_c, 0, 72, 0
2, 67228, Note_on_c, 0, 65, 72
2, 67228, Note_on_c, 0, 74, 70
2, 67305, Note_on_c, 0, 77, 71
2, 67306, Note_on_c, 0, 74, 0
2, 67306, Note_on_c, 0, 65, 0
2, 67366, Note_on_c, 0, 77, 0
2, 67382, Note_on_c, 0, 36, 62
2, 67382, Note_on_c, 0, 48, 65
2, 67382, Note_on_c, 0, 65, 71
2, 67382, Note_on_c, 0, 69, 70
2, 67382, Note_on_c, 0, 72, 72
2, 67457, Note_on_c, 0, 72, 0
2, 67457, Note_on_c, 0, 36, 0
2, 67457, Note_on_c, 0, 65, 0
2, 67457, Note_on_c, 0, 48, 0
2, 67458, Note_on_c, 0, 69, 0
2, 67522, Note_on_c, 0, 36, 63
2, 67522, Note_on_c, 0, 48, 60
2, 67522, Note_on_c, 0, 64, 63
2, 67522, Note_on_c, 0, 70, 71
2, 67523, Note_on_c, 0, 76, 71
2, 67594, Note_on_c, 0, 74, 65
2, 67595, Note_on_c, 0, 64, 0
2, 67596, Note_on_c, 0, 70, 0
2, 67613, Note_on_c, 0, 76, 0
2, 67632, Note_on_c, 0, 36, 0
2, 67632, Note_on_c, 0, 48, 0
2, 67669, Note_on_c, 0, 55, 66
2, 67669, Note_on_c, 0, 58, 61
2, 67669, Note_on_c, 0, 60, 63
2, 67669, Note_on_c, 0, 64, 63
2, 67669, Note_on_c, 0, 76, 69
2, 67670, Note_on_c, 0, 70, 70
2, 67690, Note_on_c, 0, 74, 0
2, 67745, Note_on_c, 0, 65, 66
2, 67745, Note_on_c, 0, 77, 68
2, 67746, Note_on_c, 0, 60, 0
2, 67746, Note_on_c, 0, 58, 0
2, 67746, Note_on_c, 0, 69, 70
2, 67747, Note_on_c, 0, 70, 0
2, 67764, Note_on_c, 0, 76, 0
2, 67782, Note_on_c, 0, 55, 0
2, 67800, Note_on_c, 0, 64, 0
2, 67815, Note_on_c, 0, 41, 61
2, 67837, Note_on_c, 0, 77, 0
2, 67888, Note_on_c, 0, 41, 0
2, 67888, Note_on_c, 0, 53, 59
2, 67888, Note_on_c, 0, 75, 69
2, 67955, Note_on_c, 0, 72, 71
2, 67960, Note_on_c, 0, 39, 64
2, 67961, Note_on_c, 0, 69, 0
2, 67962, Note_on_c, 0, 75, 0
2, 67979, Note_on_c, 0, 53, 0
2, 68034, Note_on_c, 0, 51, 59
2, 68034, Note_on_c, 0, 69, 65
2, 68036, Note_on_c, 0, 65, 0
2, 68036, Note_on_c, 0, 39, 0
2, 68053, Note_on_c, 0, 72, 0
2, 68106, Note_on_c, 0, 38, 62
2, 68106, Note_on_c, 0, 65, 68
2, 68107, Note_on_c, 0, 50, 65
2, 68108, Note_on_c, 0, 69, 0
2, 68144, Note_on_c, 0, 51, 0
2, 68177, Note_on_c, 0, 63, 63
2, 68178, Note_on_c, 0, 38, 0
2, 68179, Note_on_c, 0, 65, 0
2, 68232, Note_on_c, 0, 50, 0
2, 68248, Note_on_c, 0, 36, 66
2, 68287, Note_on_c, 0, 63, 0
2, 68329, Note_on_c, 0, 48, 60
2, 68329, Note_on_c, 0, 65, 72
2, 68333, Note_on_c, 0, 36, 0
2, 68406, Note_on_c, 0, 46, 58
2, 68407, Note_on_c, 0, 62, 56
2, 68407, Note_on_c, 0, 74, 66
2, 68427, Note_on_c, 0, 65, 0
2, 68446, Note_on_c, 0, 48, 0
2, 68478, Note_on_c, 0, 82, 59
2, 68549, Note_on_c, 0, 58, 57
2, 68549, Note_on_c, 0, 79, 64
2, 68550, Note_on_c, 0, 53, 55
2, 68551, Note_on_c, 0, 82, 0
2, 68622, Note_on_c, 0, 77, 60
2, 68624, Note_on_c, 0, 79, 0
2, 68625, Note_on_c, 0, 74, 0
2, 68643, Note_on_c, 0, 62, 0
2, 68643, Note_on_c, 0, 58, 0
2, 68644, Note_on_c, 0, 53, 0
2, 68683, Note_on_c, 0, 46, 0
2, 68698, Note_on_c, 0, 48, 57
2, 68699, Note_on_c, 0, 63, 56
2, 68699, Note_on_c, 0, 75, 66
2, 68701, Note_on_c, 0, 77, 0
2, 68773, Note_on_c, 0, 84, 63
2, 68842, Note_on_c, 0, 53, 54
2, 68842, Note_on_c, 0, 57, 58
2, 68863, Note_on_c, 0, 84, 0
2, 68913, Note_on_c, 0, 85, 60
2, 68915, Note_on_c, 0, 57, 0
2, 68916, Note_on_c, 0, 63, 0
2, 68917, Note_on_c, 0, 75, 0
2, 68931, Note_on_c, 0, 53, 0
2, 68949, Note_on_c, 0, 48, 0
2, 68969, Note_on_c, 0, 85, 0
2, 68984, Note_on_c, 0, 46, 60
2, 68984, Note_on_c, 0, 62, 54
2, 68985, Note_on_c, 0, 74, 64
2, 68985, Note_on_c, 0, 86, 66
2, 69052, Note_on_c, 0, 77, 65
2, 69073, Note_on_c, 0, 86, 0
2, 69091, Note_on_c, 0, 46, 0
2, 69122, Note_on_c, 0, 53, 53
2, 69122, Note_on_c, 0, 58, 55
2, 69123, Note_on_c, 0, 82, 62
2, 69124, Note_on_c, 0, 77, 0
2, 69144, Note_on_c, 0, 74, 0
2, 69200, Note_on_c, 0, 74, 64
2, 69220, Note_on_c, 0, 58, 0
2, 69221, Note_on_c, 0, 82, 0
2, 69241, Note_on_c, 0, 62, 0
2, 69241, Note_on_c, 0, 53, 0
2, 69279, Note_on_c, 0, 46, 60
2, 69279, Note_on_c, 0, 73, 60
2, 69280, Note_on_c, 0, 79, 66
2, 69281, Note_on_c, 0, 74, 0
2, 69357, Note_on_c, 0, 74, 63
2, 69357, Note_on_c, 0, 77, 66
2, 69359, Note_on_c, 0, 79, 0
2, 69359, Note_on_c, 0, 73, 0
2, 69376, Note_on_c, 0, 46, 0
2, 69432, Note_on_c, 0, 53, 57
2, 69432, Note_on_c, 0, 58, 60
2, 69504, Note_on_c, 0, 58, 0
2, 69504, Note_on_c, 0, 74, 0
2, 69504, Note_on_c, 0, 77, 0
2, 69504, Note_on_c, 0, 53, 0
2, 69517, Control_c, 0, 64, 127
2, 69573, Note_on_c, 0, 45, 58
2, 69574, Note_on_c, 0, 75, 72
2, 69574, Note_on_c, 0, 77, 70
2, 69591, Note_on_c, 0, 77, 0
2, 69592, Note_on_c, 0, 75, 0
2, 69648, Note_on_c, 0, 45, 0
2, 69648, Note_on_c, 0, 75, 69
2, 69648, Note_on_c, 0, 77, 67
2, 69723, Note_on_c, 0, 53, 59
2, 69723, Note_on_c, 0, 57, 59
2, 69725, Note_on_c, 0, 77, 0
2, 69725, Note_on_c, 0, 75, 0
2, 69794, Note_on_c, 0, 75, 70
2, 69794, Note_on_c, 0, 77, 71
2, 69796, Note_on_c, 0, 57, 0
2, 69815, Note_on_c, 0, 53, 0
2, 69832, Control_c, 0, 64, 0
2, 69863, Note_on_c, 0, 41, 57
2, 69883, Note_on_c, 0, 77, 0
2, 69921, Note_on_c, 0, 75, 0
2, 69936, Note_on_c, 0, 79, 68
2, 69937, Note_on_c, 0, 41, 0
2, 70012, Note_on_c, 0, 53, 54
2, 70012, Note_on_c, 0, 57, 57
2, 70012, Note_on_c, 0, 75, 67
2, 70012, Note_on_c, 0, 77, 71
2, 70030, Note_on_c, 0, 79, 0
2, 70085, Note_on_c, 0, 77, 0
2, 70086, Note_on_c, 0, 75, 0
2, 70103, Note_on_c, 0, 57, 0
2, 70104, Note_on_c, 0, 53, 0
2, 70118, Control_c, 0, 64, 127
2, 70152, Note_on_c, 0, 46, 59
2, 70152, Note_on_c, 0, 77, 62
2, 70153, Note_on_c, 0, 74, 62
2, 70171, Note_on_c, 0, 77, 0
2, 70172, Note_on_c, 0, 74, 0
2, 70225, Note_on_c, 0, 77, 62
2, 70226, Note_on_c, 0, 74, 61
2, 70265, Note_on_c, 0, 46, 0
2, 70298, Note_on_c, 0, 53, 56
2, 70298, Note_on_c, 0, 58, 59
2, 70300, Note_on_c, 0, 74, 0
2, 70300, Note_on_c, 0, 77, 0
2, 70372, Note_on_c, 0, 74, 64
2, 70372, Note_on_c, 0, 77, 63
2, 70391, Note_on_c, 0, 58, 0
2, 70392, Note_on_c, 0, 53, 0
2, 70392, Control_c, 0, 64, 0
2, 70440, Note_on_c, 0, 41, 58
2, 70478, Note_on_c, 0, 77, 0
2, 70507, Note_on_c, 0, 79, 65
2, 70511, Note_on_c, 0, 41, 0
2, 70512, Note_on_c, 0, 74, 0
2, 70580, Note_on_c, 0, 58, 54
2, 70580, Note_on_c, 0, 74, 64
2, 70580, Note_on_c, 0, 77, 61
2, 70597, Note_on_c, 0, 53, 60
2, 70598, Note_on_c, 0, 79, 0
2, 70654, Note_on_c, 0, 77, 0
2, 70654, Note_on_c, 0, 74, 0
2, 70671, Note_on_c, 0, 58, 0
2, 70671, Note_on_c, 0, 53, 0
2, 70721, Note_on_c, 0, 62, 58
2, 70721, Note_on_c, 0, 74, 65
2, 70737, Note_on_c, 0, 46, 53
2, 70790, Note_on_c, 0, 82, 65
2, 70865, Note_on_c, 0, 58, 53
2, 70866, Note_on_c, 0, 79, 63
2, 70867, Note_on_c, 0, 82, 0
2, 70884, Note_on_c, 0, 53, 53
2, 70921, Note_on_c, 0, 79, 0
2, 70938, Note_on_c, 0, 77, 66
2, 70939, Note_on_c, 0, 58, 0
2, 70939, Note_on_c, 0, 62, 0
2, 70940, Note_on_c, 0, 74, 0
2, 70957, Note_on_c, 0, 46, 0
2, 70957, Note_on_c, 0, 53, 0
2, 71012, Note_on_c, 0, 48, 55
2, 71013, Note_on_c, 0, 63, 55
2, 71013, Note_on_c, 0, 75, 64
2, 71014, Note_on_c, 0, 77, 0
2, 71084, Note_on_c, 0, 84, 63
2, 71155, Note_on_c, 0, 53, 54
2, 71155, Note_on_c, 0, 57, 56
2, 71175, Note_on_c, 0, 84, 0
2, 71229, Note_on_c, 0, 85, 66
2, 71231, Note_on_c, 0, 53, 0
2, 71231, Note_on_c, 0, 63, 0
2, 71231, Note_on_c, 0, 57, 0
2, 71232, Note_on_c, 0, 75, 0
2, 71268, Note_on_c, 0, 48, 0
2, 71304, Note_on_c, 0, 86, 62
2, 71304, Note_on_c, 0, 46, 60
2, 71304, Note_on_c, 0, 62, 60
2, 71304, Note_on_c, 0, 74, 60
2, 71305, Note_on_c, 0, 85, 0
2, 71374, Note_on_c, 0, 77, 66
2, 71376, Note_on_c, 0, 86, 0
2, 71393, Note_on_c, 0, 46, 0
2, 71442, Note_on_c, 0, 58, 55
2, 71442, Note_on_c, 0, 82, 63
2, 71443, Note_on_c, 0, 53, 57
2, 71444, Note_on_c, 0, 77, 0
2, 71513, Note_on_c, 0, 86, 66
2, 71515, Note_on_c, 0, 82, 0
2, 71515, Note_on_c, 0, 58, 0
2, 71515, Note_on_c, 0, 53, 0
2, 71531, Note_on_c, 0, 86, 0
2, 71585, Note_on_c, 0, 91, 61
2, 71586, Note_on_c, 0, 46, 61
2, 71586, Note_on_c, 0, 86, 60
2, 71587, Note_on_c, 0, 74, 0
2, 71587, Note_on_c, 0, 58, 65
2, 71588, Note_on_c, 0, 62, 0
2, 71660, Note_on_c, 0, 94, 64
2, 71662, Note_on_c, 0, 58, 0
2, 71662, Note_on_c, 0, 91, 0
2, 71699, Note_on_c, 0, 46, 0
2, 71733, Note_on_c, 0, 55, 66
2, 71734, Note_on_c, 0, 43, 60
2, 71788, Note_on_c, 0, 94, 0
2, 71788, Note_on_c, 0, 86, 0
2, 71807, Note_on_c, 0, 43, 0
2, 71822, Note_on_c, 0, 55, 0
2, 71878, Note_on_c, 0, 42, 63
2, 71878, Note_on_c, 0, 93, 70
2, 71898, Note_on_c, 0, 54, 61
2, 71952, Note_on_c, 0, 96, 75
2, 71955, Note_on_c, 0, 93, 0
2, 71973, Note_on_c, 0, 54, 0
2, 71993, Note_on_c, 0, 42, 0
2, 72021, Note_on_c, 0, 54, 65
2, 72021, Note_on_c, 0, 60, 62
2, 72021, Note_on_c, 0, 98, 74
2, 72022, Note_on_c, 0, 62, 63
2, 72025, Note_on_c, 0, 96, 0
2, 72075, Note_on_c, 0, 98, 0
2, 72088, Note_on_c, 0, 90, 69
2, 72088, Note_on_c, 0, 99, 69
2, 72092, Note_on_c, 0, 62, 0
2, 72092, Note_on_c, 0, 60, 0
2, 72093, Note_on_c, 0, 54, 0
2, 72166, Note_on_c, 0, 38, 71
2, 72167, Note_on_c, 0, 50, 70
2, 72168, Note_on_c, 0, 99, 0
2, 72168, Note_on_c, 0, 90, 0
2, 72239, Note_on_c, 0, 98, 67
2, 72243, Note_on_c, 0, 50, 0
2, 72261, Note_on_c, 0, 38, 0
2, 72316, Note_on_c, 0, 54, 58
2, 72316, Note_on_c, 0, 60, 58
2, 72316, Note_on_c, 0, 62, 61
2, 72316, Note_on_c, 0, 90, 65
2, 72316, Note_on_c, 0, 93, 66
2, 72318, Note_on_c, 0, 98, 0
2, 72391, Note_on_c, 0, 90, 0
2, 72391, Note_on_c, 0, 93, 0
2, 72408, Note_on_c, 0, 60, 0
2, 72408, Note_on_c, 0, 54, 0
2, 72425, Note_on_c, 0, 62, 0
2, 72458, Note_on_c, 0, 43, 65
2, 72458, Note_on_c, 0, 55, 64
2, 72458, Note_on_c, 0, 96, 63
2, 72459, Note_on_c, 0, 91, 63
2, 72530, Note_on_c, 0, 94, 60
2, 72532, Note_on_c, 0, 96, 0
2, 72550, Note_on_c, 0, 55, 0
2, 72552, Note_on_c, 0, 43, 0
2, 72605, Note_on_c, 0, 55, 54
2, 72605, Note_on_c, 0, 58, 60
2, 72605, Note_on_c, 0, 62, 59
2, 72605, Note_on_c, 0, 93, 64
2, 72607, Note_on_c, 0, 94, 0
2, 72680, Note_on_c, 0, 94, 66
2, 72682, Note_on_c, 0, 58, 0
2, 72683, Note_on_c, 0, 62, 0
2, 72683, Note_on_c, 0, 93, 0
2, 72699, Note_on_c, 0, 55, 0
2, 72753, Note_on_c, 0, 38, 60
2, 72753, Note_on_c, 0, 50, 60
2, 72757, Note_on_c, 0, 94, 0
2, 72761, Note_on_c, 0, 91, 0
2, 72832, Note_on_c, 0, 38, 0
2, 72832, Note_on_c, 0, 50, 0
2, 72906, Note_on_c, 0, 58, 53
2, 72906, Note_on_c, 0, 62, 57
2, 72907, Note_on_c, 0, 55, 58
2, 72981, Note_on_c, 0, 94, 76
2, 72982, Note_on_c, 0, 87, 73
2, 73001, Note_on_c, 0, 55, 0
2, 73001, Note_on_c, 0, 62, 0
2, 73002, Note_on_c, 0, 58, 0
2, 73034, Control_c, 0, 67, 127
2, 73054, Note_on_c, 0, 43, 56
2, 73054, Note_on_c, 0, 55, 57
2, 73110, Control_c, 0, 67, 0
2, 73126, Note_on_c, 0, 82, 64
2, 73129, Note_on_c, 0, 87, 0
2, 73129, Note_on_c, 0, 94, 0
2, 73147, Note_on_c, 0, 55, 0
2, 73149, Note_on_c, 0, 43, 0
2, 73185, Note_on_c, 0, 39, 56
2, 73191, Note_on_c, 0, 51, 59
2, 73202, Note_on_c, 0, 87, 59
2, 73202, Note_on_c, 0, 91, 59
2, 73224, Note_on_c, 0, 82, 0
2, 73263, Note_on_c, 0, 87, 0
2, 73280, Note_on_c, 0, 79, 61
2, 73302, Note_on_c, 0, 39, 0
2, 73340, Note_on_c, 0, 51, 0
2, 73354, Note_on_c, 0, 50, 61
2, 73354, Note_on_c, 0, 82, 66
2, 73355, Note_on_c, 0, 38, 61
2, 73356, Note_on_c, 0, 79, 0
2, 73411, Note_on_c, 0, 91, 0
2, 73423, Note_on_c, 0, 86, 62
2, 73423, Note_on_c, 0, 89, 66
2, 73428, Note_on_c, 0, 82, 0
2, 73429, Note_on_c, 0, 38, 0
2, 73429, Note_on_c, 0, 50, 0
2, 73477, Note_on_c, 0, 62, 43
2, 73479, Note_on_c, 0, 58, 43
2, 73496, Note_on_c, 0, 53, 47
2, 73497, Note_on_c, 0, 86, 0
2, 73570, Note_on_c, 0, 77, 59
2, 73571, Note_on_c, 0, 58, 0
2, 73571, Note_on_c, 0, 89, 0
2, 73571, Note_on_c, 0, 62, 0
2, 73590, Note_on_c, 0, 53, 0
2, 73636, Note_on_c, 0, 84, 60
2, 73646, Note_on_c, 0, 41, 52
2, 73646, Note_on_c, 0, 87, 60
2, 73647, Note_on_c, 0, 53, 54
2, 73667, Note_on_c, 0, 77, 0
2, 73703, Note_on_c, 0, 87, 0
2, 73703, Note_on_c, 0, 84, 0
2, 73719, Note_on_c, 0, 79, 59
2, 73721, Note_on_c, 0, 53, 0
2, 73741, Note_on_c, 0, 41, 0
2, 73790, Note_on_c, 0, 81, 66
2, 73790, Note_on_c, 0, 87, 66
2, 73791, Note_on_c, 0, 57, 53
2, 73791, Note_on_c, 0, 63, 58
2, 73792, Note_on_c, 0, 79, 0
2, 73809, Note_on_c, 0, 53, 55
2, 73863, Note_on_c, 0, 82, 66
2, 73863, Note_on_c, 0, 86, 63
2, 73867, Note_on_c, 0, 53, 0
2, 73867, Note_on_c, 0, 57, 0
2, 73867, Note_on_c, 0, 81, 0
2, 73867, Note_on_c, 0, 63, 0
2, 73867, Note_on_c, 0, 87, 0
2, 73940, Note_on_c, 0, 46, 61
2, 73941, Note_on_c, 0, 58, 61
2, 74012, Note_on_c, 0, 77, 59
2, 74014, Note_on_c, 0, 58, 0
2, 74014, Note_on_c, 0, 86, 0
2, 74014, Note_on_c, 0, 82, 0
2, 74034, Note_on_c, 0, 46, 0
2, 74084, Note_on_c, 0, 56, 60
2, 74084, Note_on_c, 0, 86, 62
2, 74084, Note_on_c, 0, 89, 59
2, 74085, Note_on_c, 0, 44, 66
2, 74104, Note_on_c, 0, 77, 0
2, 74160, Note_on_c, 0, 89, 0
2, 74161, Note_on_c, 0, 56, 0
2, 74161, Note_on_c, 0, 44, 0
2, 74168, Note_on_c, 0, 86, 0
2, 74233, Note_on_c, 0, 94, 66
2, 74234, Note_on_c, 0, 87, 59
2, 74235, Note_on_c, 0, 55, 65
2, 74236, Note_on_c, 0, 43, 64
2, 74311, Note_on_c, 0, 82, 65
2, 74313, Note_on_c, 0, 87, 0
2, 74314, Note_on_c, 0, 43, 0
2, 74350, Note_on_c, 0, 55, 0
2, 74376, Note_on_c, 0, 91, 61
2, 74381, Note_on_c, 0, 87, 63
2, 74382, Note_on_c, 0, 51, 62
2, 74383, Note_on_c, 0, 94, 0
2, 74383, Note_on_c, 0, 39, 59
2, 74384, Note_on_c, 0, 82, 0
2, 74397, Control_c, 0, 67, 127
2, 74449, Note_on_c, 0, 79, 65
2, 74453, Note_on_c, 0, 87, 0
2, 74472, Note_on_c, 0, 39, 0
2, 74490, Note_on_c, 0, 51, 0
2, 74522, Note_on_c, 0, 38, 63
2, 74523, Note_on_c, 0, 50, 60
2, 74523, Note_on_c, 0, 82, 61
2, 74524, Note_on_c, 0, 91, 0
2, 74524, Note_on_c, 0, 79, 0
2, 74595, Note_on_c, 0, 89, 62
2, 74596, Note_on_c, 0, 82, 0
2, 74596, Note_on_c, 0, 86, 65
2, 74616, Note_on_c, 0, 50, 0
2, 74616, Note_on_c, 0, 38, 0
2, 74634, Control_c, 0, 67, 0
2, 74665, Note_on_c, 0, 62, 45
2, 74666, Note_on_c, 0, 53, 41
2, 74666, Note_on_c, 0, 58, 41
2, 74704, Note_on_c, 0, 89, 0
2, 74737, Note_on_c, 0, 77, 65
2, 74739, Note_on_c, 0, 86, 0
2, 74757, Note_on_c, 0, 58, 0
2, 74774, Note_on_c, 0, 53, 0
2, 74774, Note_on_c, 0, 62, 0
2, 74808, Note_on_c, 0, 87, 59
2, 74808, Note_on_c, 0, 84, 59
2, 74809, Note_on_c, 0, 41, 49
2, 74809, Note_on_c, 0, 53, 50
2, 74810, Note_on_c, 0, 77, 0
2, 74885, Note_on_c, 0, 79, 60
2, 74886, Note_on_c, 0, 87, 0
2, 74886, Note_on_c, 0, 84, 0
2, 74906, Note_on_c, 0, 41, 0
2, 74906, Note_on_c, 0, 53, 0
2, 74960, Note_on_c, 0, 81, 64
2, 74960, Note_on_c, 0, 87, 63
2, 74961, Note_on_c, 0, 53, 47
2, 74961, Note_on_c, 0, 57, 52
2, 74961, Note_on_c, 0, 63, 52
2, 74962, Note_on_c, 0, 79, 0
2, 75016, Note_on_c, 0, 87, 0
2, 75031, Note_on_c, 0, 82, 60
2, 75031, Note_on_c, 0, 86, 63
2, 75033, Note_on_c, 0, 81, 0
2, 75033, Note_on_c, 0, 57, 0
2, 75034, Note_on_c, 0, 53, 0
2, 75034, Note_on_c, 0, 63, 0
2, 75051, Control_c, 0, 64, 127
2, 75102, Note_on_c, 0, 46, 49
2, 75102, Note_on_c, 0, 58, 53
2, 75177, Note_on_c, 0, 58, 0
2, 75177, Note_on_c, 0, 46, 0
2, 75178, Control_c, 0, 64, 0
2, 75215, Note_on_c, 0, 86, 0
2, 75215, Note_on_c, 0, 82, 0
2, 75252, Note_on_c, 0, 53, 50
2, 75253, Note_on_c, 0, 41, 51
2, 75307, Control_c, 0, 67, 127
2, 75324, Note_on_c, 0, 87, 63
2, 75324, Note_on_c, 0, 94, 66
2, 75346, Note_on_c, 0, 41, 0
2, 75346, Note_on_c, 0, 53, 0
2, 75395, Note_on_c, 0, 55, 60
2, 75396, Note_on_c, 0, 43, 56
2, 75432, Note_on_c, 0, 87, 0
2, 75432, Control_c, 0, 67, 0
2, 75467, Note_on_c, 0, 82, 57
2, 75484, Control_c, 0, 67, 127
2, 75488, Note_on_c, 0, 43, 0
2, 75505, Note_on_c, 0, 55, 0
2, 75542, Note_on_c, 0, 87, 59
2, 75542, Note_on_c, 0, 91, 55
2, 75543, Note_on_c, 0, 94, 0
2, 75543, Note_on_c, 0, 82, 0
2, 75543, Note_on_c, 0, 39, 54
2, 75543, Note_on_c, 0, 51, 58
2, 75580, Control_c, 0, 67, 0
2, 75617, Note_on_c, 0, 79, 60
2, 75618, Note_on_c, 0, 51, 0
2, 75618, Note_on_c, 0, 39, 0
2, 75618, Note_on_c, 0, 87, 0
2, 75633, Control_c, 0, 67, 127
2, 75690, Note_on_c, 0, 82, 53
2, 75691, Note_on_c, 0, 38, 58
2, 75691, Note_on_c, 0, 50, 59
2, 75692, Note_on_c, 0, 91, 0
2, 75692, Note_on_c, 0, 79, 0
2, 75748, Control_c, 0, 67, 0
2, 75764, Note_on_c, 0, 86, 55
2, 75764, Note_on_c, 0, 89, 54
2, 75766, Note_on_c, 0, 82, 0
2, 75786, Note_on_c, 0, 50, 0
2, 75786, Note_on_c, 0, 38, 0
2, 75819, Control_c, 0, 67, 127
2, 75841, Note_on_c, 0, 62, 53
2, 75842, Note_on_c, 0, 53, 56
2, 75842, Note_on_c, 0, 58, 60
2, 75917, Note_on_c, 0, 77, 57
2, 75918, Control_c, 0, 67, 0
2, 75919, Note_on_c, 0, 58, 0
2, 75919, Note_on_c, 0, 89, 0
2, 75936, Note_on_c, 0, 86, 0
2, 75936, Note_on_c, 0, 62, 0
2, 75937, Note_on_c, 0, 53, 0
2, 75970, Control_c, 0, 67, 127
2, 75989, Note_on_c, 0, 84, 56
2, 75989, Note_on_c, 0, 87, 55
2, 75990, Note_on_c, 0, 41, 54
2, 75990, Note_on_c, 0, 53, 57
2, 75991, Note_on_c, 0, 77, 0
2, 76046, Note_on_c, 0, 84, 0
2, 76046, Note_on_c, 0, 87, 0
2, 76058, Note_on_c, 0, 79, 58
2, 76063, Control_c, 0, 67, 0
2, 76064, Note_on_c, 0, 41, 0
2, 76064, Note_on_c, 0, 53, 0
2, 76116, Note_on_c, 0, 79, 0
2, 76133, Note_on_c, 0, 87, 59
2, 76134, Note_on_c, 0, 57, 56
2, 76134, Note_on_c, 0, 63, 54
2, 76134, Note_on_c, 0, 81, 59
2, 76135, Note_on_c, 0, 53, 56
2, 76151, Control_c, 0, 67, 127
2, 76194, Note_on_c, 0, 87, 0
2, 76213, Note_on_c, 0, 82, 60
2, 76213, Note_on_c, 0, 86, 57
2, 76215, Note_on_c, 0, 81, 0
2, 76235, Note_on_c, 0, 53, 0
2, 76235, Note_on_c, 0, 57, 0
2, 76235, Note_on_c, 0, 63, 0
2, 76252, Control_c, 0, 67, 0
2, 76291, Note_on_c, 0, 46, 54
2, 76344, Control_c, 0, 67, 127
2, 76366, Note_on_c, 0, 77, 56
2, 76367, Note_on_c, 0, 86, 0
2, 76367, Note_on_c, 0, 82, 0
2, 76367, Note_on_c, 0, 58, 59
2, 76387, Note_on_c, 0, 46, 0
2, 76418, Note_on_c, 0, 44, 56
2, 76438, Note_on_c, 0, 89, 58
2, 76439, Note_on_c, 0, 86, 54
2, 76460, Note_on_c, 0, 58, 0
2, 76460, Note_on_c, 0, 77, 0
2, 76479, Control_c, 0, 67, 0
2, 76499, Note_on_c, 0, 89, 0
2, 76518, Note_on_c, 0, 56, 53
2, 76519, Note_on_c, 0, 86, 0
2, 76531, Note_on_c, 0, 44, 0
2, 76596, Note_on_c, 0, 87, 67
2, 76596, Note_on_c, 0, 94, 66
2, 76597, Note_on_c, 0, 43, 65
2, 76617, Note_on_c, 0, 56, 0
2, 76674, Note_on_c, 0, 55, 59
2, 76674, Note_on_c, 0, 82, 70
2, 76676, Note_on_c, 0, 87, 0
2, 76695, Note_on_c, 0, 43, 0
2, 76748, Note_on_c, 0, 91, 72
2, 76749, Note_on_c, 0, 39, 66
2, 76749, Note_on_c, 0, 87, 71
2, 76752, Note_on_c, 0, 94, 0
2, 76770, Note_on_c, 0, 55, 0
2, 76789, Note_on_c, 0, 82, 0
2, 76825, Note_on_c, 0, 79, 69
2, 76826, Note_on_c, 0, 51, 61
2, 76827, Note_on_c, 0, 87, 0
2, 76847, Note_on_c, 0, 39, 0
2, 76900, Note_on_c, 0, 82, 69
2, 76901, Note_on_c, 0, 91, 0
2, 76901, Note_on_c, 0, 79, 0
2, 76901, Note_on_c, 0, 38, 66
2, 76940, Note_on_c, 0, 51, 0
2, 76975, Note_on_c, 0, 86, 71
2, 76975, Note_on_c, 0, 89, 67
2, 76976, Note_on_c, 0, 50, 64
2, 76993, Note_on_c, 0, 82, 0
2, 76995, Note_on_c, 0, 38, 0
2, 77046, Note_on_c, 0, 53, 61
2, 77046, Note_on_c, 0, 62, 60
2, 77047, Note_on_c, 0, 58, 59
2, 77049, Note_on_c, 0, 50, 0
2, 77066, Note_on_c, 0, 89, 0
2, 77086, Note_on_c, 0, 86, 0
2, 77119, Note_on_c, 0, 58, 0
2, 77119, Note_on_c, 0, 62, 0
2, 77120, Note_on_c, 0, 53, 0
2, 77193, Note_on_c, 0, 87, 72
2, 77195, Note_on_c, 0, 53, 63
2, 77195, Note_on_c, 0, 84, 70
2, 77196, Note_on_c, 0, 41, 65
2, 77271, Note_on_c, 0, 79, 70
2, 77275, Note_on_c, 0, 84, 0
2, 77275, Note_on_c, 0, 87, 0
2, 77276, Note_on_c, 0, 53, 0
2, 77276, Note_on_c, 0, 41, 0
2, 77350, Note_on_c, 0, 87, 71
2, 77351, Note_on_c, 0, 81, 68
2, 77352, Note_on_c, 0, 79, 0
2, 77352, Note_on_c, 0, 53, 62
2, 77352, Note_on_c, 0, 57, 61
2, 77352, Note_on_c, 0, 63, 62
2, 77424, Note_on_c, 0, 82, 71
2, 77424, Note_on_c, 0, 86, 70
2, 77428, Note_on_c, 0, 63, 0
2, 77428, Note_on_c, 0, 57, 0
2, 77428, Note_on_c, 0, 87, 0
2, 77428, Note_on_c, 0, 81, 0
2, 77429, Note_on_c, 0, 53, 0
2, 77499, Note_on_c, 0, 46, 60
2, 77500, Note_on_c, 0, 58, 46
2, 77557, Note_on_c, 0, 86, 0
2, 77558, Note_on_c, 0, 82, 0
2, 77577, Note_on_c, 0, 46, 0
2, 77577, Note_on_c, 0, 58, 0
2, 77592, Control_c, 0, 67, 127
2, 77650, Note_on_c, 0, 70, 52
2, 77650, Note_on_c, 0, 74, 47
2, 77722, Note_on_c, 0, 72, 53
2, 77723, Note_on_c, 0, 75, 52
2, 77725, Note_on_c, 0, 74, 0
2, 77725, Note_on_c, 0, 70, 0
2, 77795, Note_on_c, 0, 77, 50
2, 77796, Note_on_c, 0, 74, 53
2, 77798, Note_on_c, 0, 75, 0
2, 77815, Note_on_c, 0, 72, 0
2, 77874, Note_on_c, 0, 77, 0
2, 77874, Note_on_c, 0, 74, 0
2, 77932, Control_c, 0, 64, 127
2, 77948, Note_on_c, 0, 79, 53
2, 77949, Note_on_c, 0, 75, 59
2, 77968, Control_c, 0, 67, 0
2, 78134, Control_c, 0, 64, 0
2, 78150, Note_on_c, 0, 79, 0
2, 78151, Note_on_c, 0, 75, 0
2, 78250, Note_on_c, 0, 75, 60
2, 78250, Note_on_c, 0, 78, 59
2, 78310, Note_on_c, 0, 78, 0
2, 78310, Note_on_c, 0, 75, 0
2, 78398, Note_on_c, 0, 75, 63
2, 78398, Note_on_c, 0, 78, 60
2, 78467, Note_on_c, 0, 74, 62
2, 78467, Note_on_c, 0, 77, 63
2, 78468, Note_on_c, 0, 78, 0
2, 78469, Note_on_c, 0, 75, 0
2, 78540, Note_on_c, 0, 82, 54
2, 78559, Note_on_c, 0, 82, 0
2, 78560, Note_on_c, 0, 77, 0
2, 78613, Note_on_c, 0, 86, 59
2, 78614, Note_on_c, 0, 77, 59
2, 78614, Note_on_c, 0, 82, 57
2, 78671, Note_on_c, 0, 74, 0
2, 78686, Note_on_c, 0, 65, 58
2, 78723, Note_on_c, 0, 86, 0
2, 78723, Note_on_c, 0, 82, 0
2, 78723, Note_on_c, 0, 77, 0
2, 78756, Note_on_c, 0, 74, 60
2, 78756, Note_on_c, 0, 82, 55
2, 78793, Note_on_c, 0, 65, 0
2, 78826, Note_on_c, 0, 65, 57
2, 78826, Note_on_c, 0, 84, 53
2, 78827, Note_on_c, 0, 53, 53
2, 78827, Note_on_c, 0, 75, 58
2, 78827, Note_on_c, 0, 81, 53
2, 78828, Note_on_c, 0, 82, 0
2, 78847, Note_on_c, 0, 74, 0
2, 78904, Note_on_c, 0, 65, 0
2, 78905, Note_on_c, 0, 53, 0
2, 78905, Note_on_c, 0, 84, 0
2, 78905, Note_on_c, 0, 75, 0
2, 78905, Note_on_c, 0, 81, 0
2, 78942, Control_c, 0, 64, 127
2, 78980, Note_on_c, 0, 65, 54
2, 78981, Note_on_c, 0, 58, 56
2, 78981, Note_on_c, 0, 74, 53
2, 78981, Note_on_c, 0, 82, 54
2, 79018, Control_c, 0, 64, 0
2, 79051, Note_on_c, 0, 65, 0
2, 79052, Note_on_c, 0, 58, 0
2, 79052, Note_on_c, 0, 74, 0
2, 79052, Note_on_c, 0, 82, 0
2, 79120, Note_on_c, 0, 74, 57
2, 79120, Note_on_c, 0, 77, 56
2, 79195, Note_on_c, 0, 82, 53
2, 79197, Note_on_c, 0, 77, 0
2, 79197, Note_on_c, 0, 74, 0
2, 79269, Note_on_c, 0, 70, 54
2, 79270, Note_on_c, 0, 74, 57
2, 79274, Note_on_c, 0, 82, 0
2, 79347, Note_on_c, 0, 77, 59
2, 79349, Note_on_c, 0, 74, 0
2, 79350, Note_on_c, 0, 70, 0
2, 79417, Note_on_c, 0, 70, 58
2, 79419, Note_on_c, 0, 65, 56
2, 79421, Note_on_c, 0, 77, 0
2, 79492, Note_on_c, 0, 74, 55
2, 79494, Note_on_c, 0, 65, 0
2, 79494, Note_on_c, 0, 70, 0
2, 79568, Note_on_c, 0, 62, 55
2, 79568, Note_on_c, 0, 65, 54
2, 79570, Note_on_c, 0, 74, 0
2, 79643, Note_on_c, 0, 65, 0
2, 79644, Note_on_c, 0, 62, 0
2, 79677, Control_c, 0, 67, 127
2, 79712, Note_on_c, 0, 65, 60
2, 79714, Note_on_c, 0, 62, 55
2, 79746, Control_c, 0, 64, 127
2, 79784, Note_on_c, 0, 64, 56
2, 79785, Note_on_c, 0, 61, 59
2, 79786, Note_on_c, 0, 62, 0
2, 79786, Note_on_c, 0, 65, 0
2, 79859, Note_on_c, 0, 65, 57
2, 79860, Note_on_c, 0, 62, 55
2, 79861, Note_on_c, 0, 64, 0
2, 79862, Note_on_c, 0, 61, 0
2, 79900, Control_c, 0, 64, 0
2, 79937, Note_on_c, 0, 65, 0
2, 79937, Note_on_c, 0, 62, 0
2, 80009, Note_on_c, 0, 58, 54
2, 80009, Note_on_c, 0, 62, 59
2, 80077, Note_on_c, 0, 60, 56
2, 80078, Note_on_c, 0, 63, 53
2, 80080, Note_on_c, 0, 62, 0
2, 80080, Note_on_c, 0, 58, 0
2, 80149, Note_on_c, 0, 65, 53
2, 80150, Note_on_c, 0, 62, 60
2, 80151, Note_on_c, 0, 60, 0
2, 80152, Note_on_c, 0, 63, 0
2, 80225, Note_on_c, 0, 62, 0
2, 80264, Control_c, 0, 67, 0
2, 80280, Note_on_c, 0, 65, 0
2, 80298, Note_on_c, 0, 67, 72
2, 80299, Note_on_c, 0, 63, 68
2, 80319, Control_c, 0, 64, 127
2, 80448, Control_c, 0, 64, 0
2, 80504, Note_on_c, 0, 67, 0
2, 80505, Note_on_c, 0, 63, 0
2, 80598, Note_on_c, 0, 63, 53
2, 80598, Note_on_c, 0, 66, 54
2, 80656, Note_on_c, 0, 66, 0
2, 80656, Note_on_c, 0, 63, 0
2, 80745, Note_on_c, 0, 66, 58
2, 80746, Note_on_c, 0, 63, 56
2, 80805, Note_on_c, 0, 63, 0
2, 80805, Note_on_c, 0, 66, 0
2, 80822, Note_on_c, 0, 65, 59
2, 80823, Note_on_c, 0, 62, 60
2, 80896, Note_on_c, 0, 70, 60
2, 80898, Note_on_c, 0, 65, 0
2, 80914, Note_on_c, 0, 70, 0
2, 80971, Note_on_c, 0, 70, 59
2, 80971, Note_on_c, 0, 74, 54
2, 80972, Note_on_c, 0, 65, 54
2, 81009, Note_on_c, 0, 62, 0
2, 81045, Note_on_c, 0, 53, 53
2, 81046, Note_on_c, 0, 70, 0
2, 81046, Note_on_c, 0, 74, 0
2, 81111, Note_on_c, 0, 70, 58
2, 81112, Note_on_c, 0, 62, 54
2, 81116, Note_on_c, 0, 65, 0
2, 81132, Note_on_c, 0, 53, 0
2, 81188, Note_on_c, 0, 63, 57
2, 81188, Note_on_c, 0, 69, 58
2, 81188, Note_on_c, 0, 72, 55
2, 81189, Note_on_c, 0, 62, 0
2, 81189, Note_on_c, 0, 41, 60
2, 81190, Note_on_c, 0, 70, 0
2, 81207, Note_on_c, 0, 53, 55
2, 81247, Note_on_c, 0, 69, 0
2, 81247, Note_on_c, 0, 63, 0
2, 81264, Note_on_c, 0, 72, 0
2, 81265, Note_on_c, 0, 53, 0
2, 81265, Note_on_c, 0, 41, 0
2, 81337, Control_c, 0, 64, 127
2, 81337, Note_on_c, 0, 58, 63
2, 81338, Note_on_c, 0, 46, 64
2, 81338, Note_on_c, 0, 70, 63
2, 81356, Note_on_c, 0, 53, 52
2, 81393, Note_on_c, 0, 58, 0
2, 81412, Note_on_c, 0, 53, 0
2, 81412, Note_on_c, 0, 70, 0
2, 81412, Control_c, 0, 64, 0
2, 81448, Note_on_c, 0, 46, 0
2, 81483, Note_on_c, 0, 68, 53
2, 81483, Note_on_c, 0, 70, 54
2, 81484, Note_on_c, 0, 77, 54
2, 81556, Note_on_c, 0, 82, 53
2, 81558, Note_on_c, 0, 77, 0
2, 81558, Note_on_c, 0, 68, 0
2, 81558, Note_on_c, 0, 70, 0
2, 81629, Note_on_c, 0, 67, 59
2, 81629, Note_on_c, 0, 70, 59
2, 81629, Note_on_c, 0, 76, 57
2, 81630, Note_on_c, 0, 82, 0
2, 81701, Note_on_c, 0, 82, 58
2, 81720, Note_on_c, 0, 67, 0
2, 81720, Note_on_c, 0, 76, 0
2, 81720, Note_on_c, 0, 70, 0
2, 81772, Note_on_c, 0, 66, 72
2, 81772, Note_on_c, 0, 70, 72
2, 81772, Note_on_c, 0, 75, 74
2, 81774, Note_on_c, 0, 82, 0
2, 81847, Note_on_c, 0, 82, 60
2, 81849, Note_on_c, 0, 66, 0
2, 81849, Note_on_c, 0, 70, 0
2, 81850, Note_on_c, 0, 75, 0
2, 81866, Note_on_c, 0, 82, 0
2, 81908, Control_c, 0, 64, 127
2, 81925, Note_on_c, 0, 65, 66
2, 81925, Note_on_c, 0, 82, 71
2, 81926, Note_on_c, 0, 70, 48
2, 81926, Note_on_c, 0, 74, 52
2, 81926, Note_on_c, 0, 77, 49
2, 82002, Note_on_c, 0, 65, 0
2, 82003, Note_on_c, 0, 74, 0
2, 82003, Note_on_c, 0, 82, 0
2, 82003, Note_on_c, 0, 70, 0
2, 82003, Note_on_c, 0, 77, 0
2, 82004, Control_c, 0, 64, 0
2, 82179, Note_on_c, 0, 41, 65
2, 82200, Note_on_c, 0, 43, 66
2, 82218, Note_on_c, 0, 94, 59
2, 82219, Note_on_c, 0, 82, 65
2, 82219, Note_on_c, 0, 86, 66
2, 82219, Note_on_c, 0, 89, 59
2, 82239, Note_on_c, 0, 45, 69
2, 82239, Note_on_c, 0, 46, 68
2, 82240, Note_on_c, 0, 41, 0
2, 82241, Note_on_c, 0, 43, 0
2, 82282, Note_on_c, 0, 89, 0
2, 82282, Note_on_c, 0, 94, 0
2, 82282, Note_on_c, 0, 86, 0
2, 82282, Note_on_c, 0, 82, 0
2, 82282, Note_on_c, 0, 45, 0
2, 82322, Note_on_c, 0, 46, 0
2, 82322, End_track
3, 0, Start_track
3, 1, Copyright_t, "___________________________________________________\012\012KUNSTDERFUGE.COM LARGE CLASSICAL MIDI COLLECTION\012ONCLASSICAL BY ALESSANDRO SIMONETTO, PROPRIETOR\012___________________________________________________\012\012! Attention: this file is under copyright !\012\012(c)onclassical, (nc)smythe, 2010\012___________________________________________________\012\012NO ONE MAY REPUBLISH THIS FILE WITHOUT PERMISSION\012COMMERCIAL USES OF THIS FILE IS STRICTLY PROHIBITED\012___________________________________________________\012\012Files & contributor's list: http://kunstderfuge.com/\012Terms and conditions: http://kunstderfuge.com/notes.htm"
3, 1, End_track
0, 0, End_of_file
