0, 0, Header, 1, 8, 192
1, 0, Start_track
1, 0, Title_t, "196S"
1, 0, Copyright_t, "May NOT be used for commercial purposes."
1, 0, Text_t, "Roll expression/accent tracks, where present, converted to MIDI velocties.\012"
1, 0, Time_signature, 4, 2, 24, 8
1, 0, Key_signature, 0, "major"
1, 0, Tempo, 500000
1, 0, Marker_t, "Standard MIDI:LPI 132:Tempo  60: 03-31-2004"
1, 0, End_track
2, 0, Start_track
2, 0, Title_t, "Magnetic Rag (1914)"
2, 4, Control_c, 0, 64, 127
2, 169, Control_c, 0, 64, 0
2, 286, Note_on_c, 0, 65, 80
2, 288, Note_on_c, 0, 53, 80
2, 400, Note_on_c, 0, 53, 0
2, 409, Note_on_c, 0, 64, 80
2, 412, Note_on_c, 0, 52, 80
2, 415, Note_on_c, 0, 65, 0
2, 643, Note_on_c, 0, 64, 0
2, 646, Note_on_c, 0, 52, 0
2, 655, Note_on_c, 0, 63, 80
2, 658, Note_on_c, 0, 51, 80
2, 1230, Note_on_c, 0, 65, 80
2, 1233, Note_on_c, 0, 53, 80
2, 1236, Note_on_c, 0, 63, 0
2, 1239, Note_on_c, 0, 51, 0
2, 1323, Note_on_c, 0, 53, 0
2, 1338, Note_on_c, 0, 65, 0
2, 1347, Note_on_c, 0, 51, 80
2, 1347, Note_on_c, 0, 63, 80
2, 1554, Note_on_c, 0, 63, 0
2, 1571, Note_on_c, 0, 51, 0
2, 1581, Note_on_c, 0, 62, 80
2, 1584, Note_on_c, 0, 50, 80
2, 2105, Note_on_c, 0, 62, 0
2, 2136, Note_on_c, 0, 50, 0
2, 2156, Note_on_c, 0, 53, 80
2, 2156, Note_on_c, 0, 65, 80
2, 2257, Note_on_c, 0, 53, 0
2, 2272, Note_on_c, 0, 65, 0
2, 2281, Note_on_c, 0, 66, 80
2, 2284, Note_on_c, 0, 54, 80
2, 2374, Note_on_c, 0, 54, 0
2, 2374, Note_on_c, 0, 66, 0
2, 2398, Note_on_c, 0, 55, 80
2, 2398, Note_on_c, 0, 67, 80
2, 2487, Note_on_c, 0, 67, 0
2, 2490, Note_on_c, 0, 55, 0
2, 2514, Note_on_c, 0, 56, 80
2, 2514, Note_on_c, 0, 68, 80
2, 2725, Note_on_c, 0, 68, 0
2, 2728, Note_on_c, 0, 56, 0
2, 2752, Note_on_c, 0, 69, 80
2, 2755, Note_on_c, 0, 57, 80
2, 2844, Note_on_c, 0, 69, 0
2, 2847, Note_on_c, 0, 57, 0
2, 2871, Note_on_c, 0, 58, 80
2, 2871, Note_on_c, 0, 70, 80
2, 2960, Note_on_c, 0, 70, 0
2, 2960, Note_on_c, 0, 58, 0
2, 2984, Note_on_c, 0, 59, 80
2, 2984, Note_on_c, 0, 71, 80
2, 3078, Note_on_c, 0, 59, 0
2, 3096, Note_on_c, 0, 71, 0
2, 3105, Note_on_c, 0, 60, 80
2, 3105, Note_on_c, 0, 72, 80
2, 3170, Note_on_c, 0, 72, 0
2, 3173, Note_on_c, 0, 60, 0
2, 3345, Note_on_c, 0, 65, 80
2, 3345, Note_on_c, 0, 72, 80
2, 3345, Note_on_c, 0, 77, 80
2, 3348, Note_on_c, 0, 53, 80
2, 3348, Note_on_c, 0, 69, 80
2, 3351, Note_on_c, 0, 41, 80
2, 3451, Note_on_c, 0, 69, 0
2, 3451, Note_on_c, 0, 53, 0
2, 3451, Note_on_c, 0, 77, 0
2, 3454, Note_on_c, 0, 41, 0
2, 3463, Note_on_c, 0, 72, 0
2, 3466, Note_on_c, 0, 65, 0
2, 3576, Note_on_c, 0, 62, 80
2, 3578, Note_on_c, 0, 46, 80
2, 3637, Note_on_c, 0, 70, 80
2, 3696, Note_on_c, 0, 53, 80
2, 3696, Note_on_c, 0, 58, 80
2, 3696, Note_on_c, 0, 67, 80
2, 3698, Note_on_c, 0, 70, 0
2, 3740, Note_on_c, 0, 67, 0
2, 3743, Note_on_c, 0, 53, 0
2, 3743, Note_on_c, 0, 62, 0
2, 3743, Note_on_c, 0, 46, 0
2, 3743, Note_on_c, 0, 58, 0
2, 3752, Note_on_c, 0, 65, 80
2, 3813, Note_on_c, 0, 48, 80
2, 3813, Note_on_c, 0, 63, 80
2, 3830, Note_on_c, 0, 65, 0
2, 3871, Note_on_c, 0, 72, 80
2, 3935, Note_on_c, 0, 53, 80
2, 3935, Note_on_c, 0, 57, 80
2, 3937, Note_on_c, 0, 72, 0
2, 3991, Note_on_c, 0, 73, 80
2, 3994, Note_on_c, 0, 63, 0
2, 3997, Note_on_c, 0, 57, 0
2, 3997, Note_on_c, 0, 48, 0
2, 3997, Note_on_c, 0, 53, 0
2, 4051, Note_on_c, 0, 74, 80
2, 4054, Note_on_c, 0, 62, 80
2, 4056, Note_on_c, 0, 46, 80
2, 4059, Note_on_c, 0, 73, 0
2, 4108, Note_on_c, 0, 65, 80
2, 4113, Note_on_c, 0, 74, 0
2, 4116, Note_on_c, 0, 46, 0
2, 4167, Note_on_c, 0, 70, 80
2, 4170, Note_on_c, 0, 58, 80
2, 4173, Note_on_c, 0, 62, 0
2, 4173, Note_on_c, 0, 53, 80
2, 4185, Note_on_c, 0, 65, 0
2, 4217, Note_on_c, 0, 58, 0
2, 4217, Note_on_c, 0, 53, 0
2, 4229, Note_on_c, 0, 62, 80
2, 4234, Note_on_c, 0, 70, 0
2, 4288, Note_on_c, 0, 61, 80
2, 4288, Note_on_c, 0, 67, 80
2, 4291, Note_on_c, 0, 46, 80
2, 4296, Note_on_c, 0, 62, 0
2, 4349, Note_on_c, 0, 62, 80
2, 4349, Note_on_c, 0, 65, 80
2, 4352, Note_on_c, 0, 61, 0
2, 4352, Note_on_c, 0, 67, 0
2, 4355, Note_on_c, 0, 46, 0
2, 4414, Note_on_c, 0, 53, 80
2, 4414, Note_on_c, 0, 58, 80
2, 4460, Note_on_c, 0, 58, 0
2, 4460, Note_on_c, 0, 53, 0
2, 4460, Note_on_c, 0, 62, 0
2, 4472, Note_on_c, 0, 65, 0
2, 4528, Note_on_c, 0, 45, 80
2, 4528, Note_on_c, 0, 63, 80
2, 4528, Note_on_c, 0, 65, 80
2, 4542, Note_on_c, 0, 65, 0
2, 4545, Note_on_c, 0, 63, 0
2, 4577, Note_on_c, 0, 45, 0
2, 4584, Note_on_c, 0, 63, 80
2, 4584, Note_on_c, 0, 65, 80
2, 4643, Note_on_c, 0, 53, 80
2, 4646, Note_on_c, 0, 57, 80
2, 4649, Note_on_c, 0, 63, 0
2, 4661, Note_on_c, 0, 65, 0
2, 4703, Note_on_c, 0, 65, 80
2, 4705, Note_on_c, 0, 63, 80
2, 4708, Note_on_c, 0, 53, 0
2, 4708, Note_on_c, 0, 57, 0
2, 4762, Note_on_c, 0, 41, 80
2, 4818, Note_on_c, 0, 67, 80
2, 4823, Note_on_c, 0, 63, 0
2, 4825, Note_on_c, 0, 41, 0
2, 4838, Note_on_c, 0, 65, 0
2, 4876, Note_on_c, 0, 53, 80
2, 4876, Note_on_c, 0, 57, 80
2, 4876, Note_on_c, 0, 63, 80
2, 4876, Note_on_c, 0, 65, 80
2, 4879, Note_on_c, 0, 67, 0
2, 4938, Note_on_c, 0, 63, 0
2, 4938, Note_on_c, 0, 53, 0
2, 4938, Note_on_c, 0, 57, 0
2, 4950, Note_on_c, 0, 65, 0
2, 4989, Note_on_c, 0, 62, 80
2, 4992, Note_on_c, 0, 65, 80
2, 4994, Note_on_c, 0, 46, 80
2, 5009, Note_on_c, 0, 65, 0
2, 5009, Note_on_c, 0, 62, 0
2, 5050, Note_on_c, 0, 62, 80
2, 5050, Note_on_c, 0, 65, 80
2, 5058, Note_on_c, 0, 46, 0
2, 5113, Note_on_c, 0, 53, 80
2, 5113, Note_on_c, 0, 58, 80
2, 5116, Note_on_c, 0, 62, 0
2, 5129, Note_on_c, 0, 65, 0
2, 5172, Note_on_c, 0, 62, 80
2, 5172, Note_on_c, 0, 65, 80
2, 5177, Note_on_c, 0, 53, 0
2, 5177, Note_on_c, 0, 58, 0
2, 5231, Note_on_c, 0, 41, 80
2, 5262, Note_on_c, 0, 62, 0
2, 5277, Note_on_c, 0, 65, 0
2, 5289, Note_on_c, 0, 67, 80
2, 5294, Note_on_c, 0, 41, 0
2, 5348, Note_on_c, 0, 53, 80
2, 5348, Note_on_c, 0, 58, 80
2, 5348, Note_on_c, 0, 62, 80
2, 5348, Note_on_c, 0, 65, 80
2, 5351, Note_on_c, 0, 67, 0
2, 5411, Note_on_c, 0, 62, 0
2, 5411, Note_on_c, 0, 53, 0
2, 5411, Note_on_c, 0, 58, 0
2, 5424, Note_on_c, 0, 65, 0
2, 5462, Note_on_c, 0, 62, 80
2, 5467, Note_on_c, 0, 46, 80
2, 5467, Note_on_c, 0, 50, 80
2, 5520, Note_on_c, 0, 70, 80
2, 5579, Note_on_c, 0, 53, 80
2, 5579, Note_on_c, 0, 58, 80
2, 5579, Note_on_c, 0, 67, 80
2, 5582, Note_on_c, 0, 70, 0
2, 5638, Note_on_c, 0, 65, 80
2, 5640, Note_on_c, 0, 58, 0
2, 5640, Note_on_c, 0, 53, 0
2, 5640, Note_on_c, 0, 50, 0
2, 5640, Note_on_c, 0, 67, 0
2, 5669, Note_on_c, 0, 62, 0
2, 5669, Note_on_c, 0, 46, 0
2, 5696, Note_on_c, 0, 48, 80
2, 5696, Note_on_c, 0, 51, 80
2, 5696, Note_on_c, 0, 63, 80
2, 5699, Note_on_c, 0, 65, 0
2, 5755, Note_on_c, 0, 72, 80
2, 5813, Note_on_c, 0, 53, 80
2, 5813, Note_on_c, 0, 57, 80
2, 5816, Note_on_c, 0, 72, 0
2, 5862, Note_on_c, 0, 53, 0
2, 5862, Note_on_c, 0, 57, 0
2, 5872, Note_on_c, 0, 73, 80
2, 5891, Note_on_c, 0, 63, 0
2, 5908, Note_on_c, 0, 48, 0
2, 5908, Note_on_c, 0, 51, 0
2, 5932, Note_on_c, 0, 74, 80
2, 5935, Note_on_c, 0, 46, 80
2, 5935, Note_on_c, 0, 50, 80
2, 5935, Note_on_c, 0, 62, 80
2, 5938, Note_on_c, 0, 73, 0
2, 5992, Note_on_c, 0, 65, 80
2, 5995, Note_on_c, 0, 74, 0
2, 5998, Note_on_c, 0, 46, 0
2, 6051, Note_on_c, 0, 53, 80
2, 6051, Note_on_c, 0, 58, 80
2, 6051, Note_on_c, 0, 70, 80
2, 6056, Note_on_c, 0, 65, 0
2, 6105, Note_on_c, 0, 74, 80
2, 6113, Note_on_c, 0, 58, 0
2, 6113, Note_on_c, 0, 70, 0
2, 6116, Note_on_c, 0, 53, 0
2, 6143, Note_on_c, 0, 50, 0
2, 6143, Note_on_c, 0, 62, 0
2, 6167, Note_on_c, 0, 79, 80
2, 6169, Note_on_c, 0, 46, 80
2, 6169, Note_on_c, 0, 58, 80
2, 6216, Note_on_c, 0, 79, 0
2, 6218, Note_on_c, 0, 58, 0
2, 6218, Note_on_c, 0, 46, 0
2, 6226, Note_on_c, 0, 82, 80
2, 6291, Note_on_c, 0, 43, 80
2, 6291, Note_on_c, 0, 55, 80
2, 6355, Note_on_c, 0, 43, 0
2, 6367, Note_on_c, 0, 55, 0
2, 6382, Note_on_c, 0, 82, 0
2, 6382, Note_on_c, 0, 74, 0
2, 6408, Note_on_c, 0, 81, 80
2, 6411, Note_on_c, 0, 54, 80
2, 6414, Note_on_c, 0, 42, 80
2, 6465, Note_on_c, 0, 84, 80
2, 6470, Note_on_c, 0, 81, 0
2, 6473, Note_on_c, 0, 54, 0
2, 6476, Note_on_c, 0, 42, 0
2, 6529, Note_on_c, 0, 86, 80
2, 6532, Note_on_c, 0, 54, 80
2, 6532, Note_on_c, 0, 60, 80
2, 6532, Note_on_c, 0, 62, 80
2, 6535, Note_on_c, 0, 84, 0
2, 6578, Note_on_c, 0, 60, 0
2, 6578, Note_on_c, 0, 86, 0
2, 6578, Note_on_c, 0, 62, 0
2, 6581, Note_on_c, 0, 54, 0
2, 6591, Note_on_c, 0, 78, 80
2, 6591, Note_on_c, 0, 87, 80
2, 6654, Note_on_c, 0, 50, 80
2, 6657, Note_on_c, 0, 38, 80
2, 6686, Note_on_c, 0, 87, 0
2, 6710, Note_on_c, 0, 86, 80
2, 6718, Note_on_c, 0, 78, 0
2, 6718, Note_on_c, 0, 50, 0
2, 6720, Note_on_c, 0, 38, 0
2, 6771, Note_on_c, 0, 81, 80
2, 6774, Note_on_c, 0, 60, 80
2, 6774, Note_on_c, 0, 62, 80
2, 6774, Note_on_c, 0, 78, 80
2, 6777, Note_on_c, 0, 86, 0
2, 6777, Note_on_c, 0, 54, 80
2, 6836, Note_on_c, 0, 62, 0
2, 6836, Note_on_c, 0, 78, 0
2, 6836, Note_on_c, 0, 81, 0
2, 6836, Note_on_c, 0, 60, 0
2, 6839, Note_on_c, 0, 54, 0
2, 6892, Note_on_c, 0, 79, 80
2, 6892, Note_on_c, 0, 84, 80
2, 6895, Note_on_c, 0, 55, 80
2, 6898, Note_on_c, 0, 43, 80
2, 6954, Note_on_c, 0, 82, 80
2, 6957, Note_on_c, 0, 84, 0
2, 6960, Note_on_c, 0, 43, 0
2, 6960, Note_on_c, 0, 55, 0
2, 7013, Note_on_c, 0, 62, 80
2, 7013, Note_on_c, 0, 81, 80
2, 7016, Note_on_c, 0, 55, 80
2, 7016, Note_on_c, 0, 58, 80
2, 7019, Note_on_c, 0, 82, 0
2, 7073, Note_on_c, 0, 82, 80
2, 7078, Note_on_c, 0, 81, 0
2, 7080, Note_on_c, 0, 62, 0
2, 7080, Note_on_c, 0, 58, 0
2, 7098, Note_on_c, 0, 55, 0
2, 7136, Note_on_c, 0, 38, 80
2, 7136, Note_on_c, 0, 50, 80
2, 7195, Note_on_c, 0, 82, 0
2, 7195, Note_on_c, 0, 79, 0
2, 7198, Note_on_c, 0, 38, 0
2, 7198, Note_on_c, 0, 50, 0
2, 7248, Note_on_c, 0, 55, 80
2, 7248, Note_on_c, 0, 62, 80
2, 7251, Note_on_c, 0, 58, 80
2, 7300, Note_on_c, 0, 58, 0
2, 7308, Note_on_c, 0, 75, 80
2, 7308, Note_on_c, 0, 82, 80
2, 7313, Note_on_c, 0, 62, 0
2, 7316, Note_on_c, 0, 55, 0
2, 7369, Note_on_c, 0, 43, 80
2, 7369, Note_on_c, 0, 55, 80
2, 7413, Note_on_c, 0, 75, 0
2, 7422, Note_on_c, 0, 70, 80
2, 7425, Note_on_c, 0, 41, 80
2, 7425, Note_on_c, 0, 53, 80
2, 7430, Note_on_c, 0, 43, 0
2, 7444, Note_on_c, 0, 55, 0
2, 7468, Note_on_c, 0, 70, 0
2, 7468, Note_on_c, 0, 82, 0
2, 7471, Note_on_c, 0, 53, 0
2, 7471, Note_on_c, 0, 41, 0
2, 7481, Note_on_c, 0, 75, 80
2, 7481, Note_on_c, 0, 79, 80
2, 7484, Note_on_c, 0, 51, 80
2, 7487, Note_on_c, 0, 39, 80
2, 7542, Note_on_c, 0, 67, 80
2, 7545, Note_on_c, 0, 75, 0
2, 7548, Note_on_c, 0, 39, 0
2, 7560, Note_on_c, 0, 51, 0
2, 7587, Note_on_c, 0, 79, 0
2, 7600, Note_on_c, 0, 70, 80
2, 7603, Note_on_c, 0, 38, 80
2, 7603, Note_on_c, 0, 50, 80
2, 7606, Note_on_c, 0, 67, 0
2, 7647, Note_on_c, 0, 70, 0
2, 7650, Note_on_c, 0, 38, 0
2, 7650, Note_on_c, 0, 50, 0
2, 7659, Note_on_c, 0, 74, 80
2, 7659, Note_on_c, 0, 77, 80
2, 7718, Note_on_c, 0, 58, 80
2, 7718, Note_on_c, 0, 62, 80
2, 7721, Note_on_c, 0, 53, 80
2, 7752, Note_on_c, 0, 77, 0
2, 7752, Note_on_c, 0, 74, 0
2, 7770, Note_on_c, 0, 58, 0
2, 7779, Note_on_c, 0, 65, 80
2, 7784, Note_on_c, 0, 62, 0
2, 7784, Note_on_c, 0, 53, 0
2, 7840, Note_on_c, 0, 72, 80
2, 7840, Note_on_c, 0, 75, 80
2, 7843, Note_on_c, 0, 41, 80
2, 7843, Note_on_c, 0, 53, 80
2, 7846, Note_on_c, 0, 65, 0
2, 7899, Note_on_c, 0, 67, 80
2, 7904, Note_on_c, 0, 72, 0
2, 7904, Note_on_c, 0, 75, 0
2, 7907, Note_on_c, 0, 41, 0
2, 7907, Note_on_c, 0, 53, 0
2, 7963, Note_on_c, 0, 53, 80
2, 7963, Note_on_c, 0, 57, 80
2, 7963, Note_on_c, 0, 63, 80
2, 7963, Note_on_c, 0, 69, 80
2, 7963, Note_on_c, 0, 75, 80
2, 7966, Note_on_c, 0, 67, 0
2, 8016, Note_on_c, 0, 74, 80
2, 8019, Note_on_c, 0, 70, 80
2, 8022, Note_on_c, 0, 57, 0
2, 8022, Note_on_c, 0, 69, 0
2, 8022, Note_on_c, 0, 53, 0
2, 8022, Note_on_c, 0, 63, 0
2, 8022, Note_on_c, 0, 75, 0
2, 8078, Note_on_c, 0, 46, 80
2, 8107, Note_on_c, 0, 74, 0
2, 8110, Note_on_c, 0, 70, 0
2, 8136, Note_on_c, 0, 58, 80
2, 8136, Note_on_c, 0, 65, 80
2, 8141, Note_on_c, 0, 46, 0
2, 8184, Note_on_c, 0, 58, 0
2, 8194, Note_on_c, 0, 74, 80
2, 8194, Note_on_c, 0, 77, 80
2, 8197, Note_on_c, 0, 65, 0
2, 8197, Note_on_c, 0, 44, 80
2, 8257, Note_on_c, 0, 77, 0
2, 8257, Note_on_c, 0, 74, 0
2, 8257, Note_on_c, 0, 56, 80
2, 8260, Note_on_c, 0, 44, 0
2, 8314, Note_on_c, 0, 75, 80
2, 8314, Note_on_c, 0, 82, 80
2, 8319, Note_on_c, 0, 43, 80
2, 8322, Note_on_c, 0, 56, 0
2, 8371, Note_on_c, 0, 55, 80
2, 8371, Note_on_c, 0, 70, 80
2, 8376, Note_on_c, 0, 75, 0
2, 8378, Note_on_c, 0, 43, 0
2, 8427, Note_on_c, 0, 75, 80
2, 8427, Note_on_c, 0, 79, 80
2, 8430, Note_on_c, 0, 82, 0
2, 8433, Note_on_c, 0, 70, 0
2, 8433, Note_on_c, 0, 39, 80
2, 8448, Note_on_c, 0, 55, 0
2, 8476, Note_on_c, 0, 75, 0
2, 8486, Note_on_c, 0, 67, 80
2, 8489, Note_on_c, 0, 51, 80
2, 8494, Note_on_c, 0, 39, 0
2, 8543, Note_on_c, 0, 70, 80
2, 8547, Note_on_c, 0, 79, 0
2, 8547, Note_on_c, 0, 67, 0
2, 8547, Note_on_c, 0, 38, 80
2, 8565, Note_on_c, 0, 51, 0
2, 8601, Note_on_c, 0, 50, 80
2, 8601, Note_on_c, 0, 74, 80
2, 8601, Note_on_c, 0, 77, 80
2, 8609, Note_on_c, 0, 38, 0
2, 8609, Note_on_c, 0, 70, 0
2, 8660, Note_on_c, 0, 53, 80
2, 8660, Note_on_c, 0, 58, 80
2, 8660, Note_on_c, 0, 62, 80
2, 8664, Note_on_c, 0, 50, 0
2, 8691, Note_on_c, 0, 74, 0
2, 8701, Note_on_c, 0, 77, 0
2, 8711, Note_on_c, 0, 65, 80
2, 8718, Note_on_c, 0, 53, 0
2, 8718, Note_on_c, 0, 58, 0
2, 8731, Note_on_c, 0, 62, 0
2, 8767, Note_on_c, 0, 75, 80
2, 8770, Note_on_c, 0, 53, 80
2, 8770, Note_on_c, 0, 72, 80
2, 8773, Note_on_c, 0, 41, 80
2, 8787, Note_on_c, 0, 65, 0
2, 8826, Note_on_c, 0, 67, 80
2, 8829, Note_on_c, 0, 72, 0
2, 8829, Note_on_c, 0, 75, 0
2, 8832, Note_on_c, 0, 53, 0
2, 8834, Note_on_c, 0, 41, 0
2, 8876, Note_on_c, 0, 67, 0
2, 8885, Note_on_c, 0, 63, 80
2, 8885, Note_on_c, 0, 69, 80
2, 8885, Note_on_c, 0, 75, 80
2, 8888, Note_on_c, 0, 53, 80
2, 8888, Note_on_c, 0, 57, 80
2, 8947, Note_on_c, 0, 70, 80
2, 8947, Note_on_c, 0, 74, 80
2, 8952, Note_on_c, 0, 53, 0
2, 8952, Note_on_c, 0, 75, 0
2, 8952, Note_on_c, 0, 63, 0
2, 8952, Note_on_c, 0, 69, 0
2, 8954, Note_on_c, 0, 57, 0
2, 9008, Note_on_c, 0, 58, 80
2, 9011, Note_on_c, 0, 46, 80
2, 9057, Note_on_c, 0, 46, 0
2, 9057, Note_on_c, 0, 58, 0
2, 9132, Note_on_c, 0, 41, 80
2, 9132, Note_on_c, 0, 53, 80
2, 9161, Note_on_c, 0, 74, 0
2, 9164, Note_on_c, 0, 70, 0
2, 9186, Note_on_c, 0, 75, 80
2, 9186, Note_on_c, 0, 82, 80
2, 9193, Note_on_c, 0, 41, 0
2, 9193, Note_on_c, 0, 53, 0
2, 9247, Note_on_c, 0, 43, 80
2, 9247, Note_on_c, 0, 55, 80
2, 9306, Note_on_c, 0, 53, 80
2, 9306, Note_on_c, 0, 70, 80
2, 9309, Note_on_c, 0, 75, 0
2, 9309, Note_on_c, 0, 82, 0
2, 9309, Note_on_c, 0, 41, 80
2, 9312, Note_on_c, 0, 55, 0
2, 9314, Note_on_c, 0, 43, 0
2, 9368, Note_on_c, 0, 51, 80
2, 9368, Note_on_c, 0, 75, 80
2, 9368, Note_on_c, 0, 79, 80
2, 9371, Note_on_c, 0, 70, 0
2, 9371, Note_on_c, 0, 39, 80
2, 9374, Note_on_c, 0, 53, 0
2, 9377, Note_on_c, 0, 41, 0
2, 9418, Note_on_c, 0, 75, 0
2, 9418, Note_on_c, 0, 51, 0
2, 9421, Note_on_c, 0, 39, 0
2, 9429, Note_on_c, 0, 67, 80
2, 9492, Note_on_c, 0, 50, 80
2, 9492, Note_on_c, 0, 70, 80
2, 9495, Note_on_c, 0, 67, 0
2, 9495, Note_on_c, 0, 79, 0
2, 9495, Note_on_c, 0, 38, 80
2, 9546, Note_on_c, 0, 74, 80
2, 9549, Note_on_c, 0, 77, 80
2, 9552, Note_on_c, 0, 70, 0
2, 9554, Note_on_c, 0, 50, 0
2, 9557, Note_on_c, 0, 38, 0
2, 9608, Note_on_c, 0, 62, 80
2, 9611, Note_on_c, 0, 53, 80
2, 9611, Note_on_c, 0, 58, 80
2, 9625, Note_on_c, 0, 74, 0
2, 9625, Note_on_c, 0, 77, 0
2, 9667, Note_on_c, 0, 65, 80
2, 9672, Note_on_c, 0, 53, 0
2, 9672, Note_on_c, 0, 58, 0
2, 9672, Note_on_c, 0, 62, 0
2, 9725, Note_on_c, 0, 72, 80
2, 9725, Note_on_c, 0, 75, 80
2, 9728, Note_on_c, 0, 53, 80
2, 9731, Note_on_c, 0, 65, 0
2, 9731, Note_on_c, 0, 41, 80
2, 9785, Note_on_c, 0, 67, 80
2, 9790, Note_on_c, 0, 75, 0
2, 9792, Note_on_c, 0, 41, 0
2, 9792, Note_on_c, 0, 53, 0
2, 9805, Note_on_c, 0, 72, 0
2, 9846, Note_on_c, 0, 75, 80
2, 9849, Note_on_c, 0, 53, 80
2, 9849, Note_on_c, 0, 57, 80
2, 9849, Note_on_c, 0, 63, 80
2, 9849, Note_on_c, 0, 69, 80
2, 9854, Note_on_c, 0, 67, 0
2, 9895, Note_on_c, 0, 75, 0
2, 9895, Note_on_c, 0, 69, 0
2, 9905, Note_on_c, 0, 70, 80
2, 9905, Note_on_c, 0, 74, 80
2, 9912, Note_on_c, 0, 57, 0
2, 9912, Note_on_c, 0, 53, 0
2, 9912, Note_on_c, 0, 63, 0
2, 9966, Note_on_c, 0, 46, 80
2, 10022, Note_on_c, 0, 58, 80
2, 10022, Note_on_c, 0, 65, 80
2, 10025, Note_on_c, 0, 74, 0
2, 10028, Note_on_c, 0, 70, 0
2, 10028, Note_on_c, 0, 46, 0
2, 10074, Note_on_c, 0, 58, 0
2, 10083, Note_on_c, 0, 74, 80
2, 10083, Note_on_c, 0, 77, 80
2, 10086, Note_on_c, 0, 65, 0
2, 10086, Note_on_c, 0, 44, 80
2, 10145, Note_on_c, 0, 77, 0
2, 10145, Note_on_c, 0, 74, 0
2, 10145, Note_on_c, 0, 56, 80
2, 10148, Note_on_c, 0, 44, 0
2, 10203, Note_on_c, 0, 75, 80
2, 10203, Note_on_c, 0, 82, 80
2, 10206, Note_on_c, 0, 43, 80
2, 10209, Note_on_c, 0, 56, 0
2, 10263, Note_on_c, 0, 70, 80
2, 10266, Note_on_c, 0, 75, 0
2, 10266, Note_on_c, 0, 55, 80
2, 10285, Note_on_c, 0, 43, 0
2, 10321, Note_on_c, 0, 75, 80
2, 10321, Note_on_c, 0, 79, 80
2, 10324, Note_on_c, 0, 82, 0
2, 10324, Note_on_c, 0, 39, 80
2, 10327, Note_on_c, 0, 70, 0
2, 10342, Note_on_c, 0, 55, 0
2, 10380, Note_on_c, 0, 51, 80
2, 10380, Note_on_c, 0, 67, 80
2, 10385, Note_on_c, 0, 75, 0
2, 10388, Note_on_c, 0, 39, 0
2, 10426, Note_on_c, 0, 67, 0
2, 10426, Note_on_c, 0, 79, 0
2, 10439, Note_on_c, 0, 70, 80
2, 10441, Note_on_c, 0, 38, 80
2, 10461, Note_on_c, 0, 51, 0
2, 10497, Note_on_c, 0, 74, 80
2, 10497, Note_on_c, 0, 77, 80
2, 10500, Note_on_c, 0, 50, 80
2, 10503, Note_on_c, 0, 70, 0
2, 10506, Note_on_c, 0, 38, 0
2, 10561, Note_on_c, 0, 53, 80
2, 10561, Note_on_c, 0, 58, 80
2, 10561, Note_on_c, 0, 62, 80
2, 10566, Note_on_c, 0, 50, 0
2, 10579, Note_on_c, 0, 77, 0
2, 10579, Note_on_c, 0, 74, 0
2, 10606, Note_on_c, 0, 58, 0
2, 10608, Note_on_c, 0, 53, 0
2, 10618, Note_on_c, 0, 65, 80
2, 10623, Note_on_c, 0, 62, 0
2, 10677, Note_on_c, 0, 53, 80
2, 10677, Note_on_c, 0, 72, 80
2, 10677, Note_on_c, 0, 75, 80
2, 10680, Note_on_c, 0, 41, 80
2, 10694, Note_on_c, 0, 65, 0
2, 10723, Note_on_c, 0, 75, 0
2, 10735, Note_on_c, 0, 67, 80
2, 10738, Note_on_c, 0, 72, 0
2, 10741, Note_on_c, 0, 53, 0
2, 10744, Note_on_c, 0, 41, 0
2, 10793, Note_on_c, 0, 63, 80
2, 10793, Note_on_c, 0, 69, 80
2, 10793, Note_on_c, 0, 75, 80
2, 10796, Note_on_c, 0, 67, 0
2, 10796, Note_on_c, 0, 53, 80
2, 10796, Note_on_c, 0, 57, 80
2, 10851, Note_on_c, 0, 70, 80
2, 10851, Note_on_c, 0, 74, 80
2, 10856, Note_on_c, 0, 75, 0
2, 10856, Note_on_c, 0, 69, 0
2, 10859, Note_on_c, 0, 57, 0
2, 10859, Note_on_c, 0, 53, 0
2, 10872, Note_on_c, 0, 63, 0
2, 10915, Note_on_c, 0, 46, 80
2, 10915, Note_on_c, 0, 58, 80
2, 10961, Note_on_c, 0, 70, 0
2, 10970, Note_on_c, 0, 79, 80
2, 10973, Note_on_c, 0, 67, 80
2, 10991, Note_on_c, 0, 74, 0
2, 10993, Note_on_c, 0, 58, 0
2, 10993, Note_on_c, 0, 46, 0
2, 11030, Note_on_c, 0, 57, 80
2, 11030, Note_on_c, 0, 65, 80
2, 11030, Note_on_c, 0, 77, 80
2, 11033, Note_on_c, 0, 53, 80
2, 11036, Note_on_c, 0, 79, 0
2, 11036, Note_on_c, 0, 67, 0
2, 11089, Note_on_c, 0, 63, 80
2, 11089, Note_on_c, 0, 75, 80
2, 11092, Note_on_c, 0, 77, 0
2, 11097, Note_on_c, 0, 57, 0
2, 11097, Note_on_c, 0, 53, 0
2, 11107, Note_on_c, 0, 65, 0
2, 11136, Note_on_c, 0, 75, 0
2, 11145, Note_on_c, 0, 74, 80
2, 11148, Note_on_c, 0, 62, 80
2, 11151, Note_on_c, 0, 46, 80
2, 11154, Note_on_c, 0, 63, 0
2, 11205, Note_on_c, 0, 82, 80
2, 11260, Note_on_c, 0, 58, 80
2, 11260, Note_on_c, 0, 79, 80
2, 11263, Note_on_c, 0, 82, 0
2, 11263, Note_on_c, 0, 53, 80
2, 11306, Note_on_c, 0, 74, 0
2, 11306, Note_on_c, 0, 79, 0
2, 11319, Note_on_c, 0, 77, 80
2, 11324, Note_on_c, 0, 58, 0
2, 11324, Note_on_c, 0, 62, 0
2, 11327, Note_on_c, 0, 53, 0
2, 11370, Note_on_c, 0, 46, 0
2, 11375, Note_on_c, 0, 75, 80
2, 11379, Note_on_c, 0, 48, 80
2, 11379, Note_on_c, 0, 63, 80
2, 11382, Note_on_c, 0, 77, 0
2, 11436, Note_on_c, 0, 84, 80
2, 11495, Note_on_c, 0, 53, 80
2, 11495, Note_on_c, 0, 57, 80
2, 11512, Note_on_c, 0, 84, 0
2, 11550, Note_on_c, 0, 85, 80
2, 11555, Note_on_c, 0, 53, 0
2, 11555, Note_on_c, 0, 63, 0
2, 11555, Note_on_c, 0, 75, 0
2, 11555, Note_on_c, 0, 57, 0
2, 11569, Note_on_c, 0, 48, 0
2, 11606, Note_on_c, 0, 74, 80
2, 11606, Note_on_c, 0, 86, 80
2, 11609, Note_on_c, 0, 62, 80
2, 11612, Note_on_c, 0, 85, 0
2, 11612, Note_on_c, 0, 46, 80
2, 11665, Note_on_c, 0, 77, 80
2, 11668, Note_on_c, 0, 86, 0
2, 11673, Note_on_c, 0, 46, 0
2, 11724, Note_on_c, 0, 82, 80
2, 11727, Note_on_c, 0, 53, 80
2, 11727, Note_on_c, 0, 58, 80
2, 11730, Note_on_c, 0, 74, 0
2, 11730, Note_on_c, 0, 77, 0
2, 11784, Note_on_c, 0, 74, 80
2, 11786, Note_on_c, 0, 82, 0
2, 11789, Note_on_c, 0, 53, 0
2, 11789, Note_on_c, 0, 62, 0
2, 11789, Note_on_c, 0, 58, 0
2, 11840, Note_on_c, 0, 79, 80
2, 11843, Note_on_c, 0, 46, 80
2, 11843, Note_on_c, 0, 73, 80
2, 11848, Note_on_c, 0, 74, 0
2, 11889, Note_on_c, 0, 79, 0
2, 11889, Note_on_c, 0, 73, 0
2, 11899, Note_on_c, 0, 74, 80
2, 11899, Note_on_c, 0, 77, 80
2, 11904, Note_on_c, 0, 46, 0
2, 11954, Note_on_c, 0, 53, 80
2, 11954, Note_on_c, 0, 58, 80
2, 12015, Note_on_c, 0, 58, 0
2, 12015, Note_on_c, 0, 74, 0
2, 12015, Note_on_c, 0, 77, 0
2, 12015, Note_on_c, 0, 53, 0
2, 12069, Note_on_c, 0, 87, 80
2, 12072, Note_on_c, 0, 45, 80
2, 12072, Note_on_c, 0, 77, 80
2, 12072, Note_on_c, 0, 89, 80
2, 12091, Note_on_c, 0, 89, 0
2, 12091, Note_on_c, 0, 77, 0
2, 12091, Note_on_c, 0, 87, 0
2, 12132, Note_on_c, 0, 87, 80
2, 12132, Note_on_c, 0, 89, 80
2, 12135, Note_on_c, 0, 77, 80
2, 12140, Note_on_c, 0, 45, 0
2, 12181, Note_on_c, 0, 87, 0
2, 12195, Note_on_c, 0, 89, 0
2, 12195, Note_on_c, 0, 77, 0
2, 12195, Note_on_c, 0, 53, 80
2, 12195, Note_on_c, 0, 57, 80
2, 12251, Note_on_c, 0, 77, 80
2, 12251, Note_on_c, 0, 87, 80
2, 12251, Note_on_c, 0, 89, 80
2, 12256, Note_on_c, 0, 57, 0
2, 12256, Note_on_c, 0, 53, 0
2, 12312, Note_on_c, 0, 41, 80
2, 12340, Note_on_c, 0, 87, 0
2, 12340, Note_on_c, 0, 89, 0
2, 12340, Note_on_c, 0, 77, 0
2, 12364, Note_on_c, 0, 91, 80
2, 12367, Note_on_c, 0, 79, 80
2, 12372, Note_on_c, 0, 41, 0
2, 12426, Note_on_c, 0, 87, 80
2, 12426, Note_on_c, 0, 89, 80
2, 12429, Note_on_c, 0, 91, 0
2, 12429, Note_on_c, 0, 53, 80
2, 12429, Note_on_c, 0, 57, 80
2, 12429, Note_on_c, 0, 77, 80
2, 12432, Note_on_c, 0, 79, 0
2, 12490, Note_on_c, 0, 87, 0
2, 12490, Note_on_c, 0, 89, 0
2, 12490, Note_on_c, 0, 77, 0
2, 12493, Note_on_c, 0, 53, 0
2, 12493, Note_on_c, 0, 57, 0
2, 12544, Note_on_c, 0, 86, 80
2, 12544, Note_on_c, 0, 89, 80
2, 12547, Note_on_c, 0, 46, 80
2, 12547, Note_on_c, 0, 77, 80
2, 12564, Note_on_c, 0, 77, 0
2, 12564, Note_on_c, 0, 86, 0
2, 12564, Note_on_c, 0, 89, 0
2, 12605, Note_on_c, 0, 77, 80
2, 12605, Note_on_c, 0, 86, 80
2, 12605, Note_on_c, 0, 89, 80
2, 12613, Note_on_c, 0, 46, 0
2, 12667, Note_on_c, 0, 58, 80
2, 12670, Note_on_c, 0, 77, 0
2, 12670, Note_on_c, 0, 89, 0
2, 12670, Note_on_c, 0, 86, 0
2, 12670, Note_on_c, 0, 53, 80
2, 12716, Note_on_c, 0, 58, 0
2, 12723, Note_on_c, 0, 86, 80
2, 12723, Note_on_c, 0, 89, 80
2, 12726, Note_on_c, 0, 77, 80
2, 12731, Note_on_c, 0, 53, 0
2, 12790, Note_on_c, 0, 41, 80
2, 12802, Note_on_c, 0, 86, 0
2, 12805, Note_on_c, 0, 77, 0
2, 12805, Note_on_c, 0, 89, 0
2, 12843, Note_on_c, 0, 91, 80
2, 12846, Note_on_c, 0, 79, 80
2, 12854, Note_on_c, 0, 41, 0
2, 12895, Note_on_c, 0, 91, 0
2, 12898, Note_on_c, 0, 79, 0
2, 12908, Note_on_c, 0, 77, 80
2, 12908, Note_on_c, 0, 86, 80
2, 12908, Note_on_c, 0, 89, 80
2, 12911, Note_on_c, 0, 53, 80
2, 12911, Note_on_c, 0, 58, 80
2, 12960, Note_on_c, 0, 89, 0
2, 12960, Note_on_c, 0, 86, 0
2, 12962, Note_on_c, 0, 77, 0
2, 12962, Note_on_c, 0, 53, 0
2, 12962, Note_on_c, 0, 58, 0
2, 13032, Note_on_c, 0, 62, 80
2, 13032, Note_on_c, 0, 74, 80
2, 13035, Note_on_c, 0, 46, 80
2, 13094, Note_on_c, 0, 82, 80
2, 13150, Note_on_c, 0, 79, 80
2, 13152, Note_on_c, 0, 53, 80
2, 13152, Note_on_c, 0, 58, 80
2, 13157, Note_on_c, 0, 82, 0
2, 13213, Note_on_c, 0, 77, 80
2, 13216, Note_on_c, 0, 79, 0
2, 13216, Note_on_c, 0, 74, 0
2, 13219, Note_on_c, 0, 46, 0
2, 13219, Note_on_c, 0, 53, 0
2, 13219, Note_on_c, 0, 62, 0
2, 13219, Note_on_c, 0, 58, 0
2, 13262, Note_on_c, 0, 77, 0
2, 13274, Note_on_c, 0, 48, 80
2, 13274, Note_on_c, 0, 63, 80
2, 13274, Note_on_c, 0, 75, 80
2, 13330, Note_on_c, 0, 84, 80
2, 13393, Note_on_c, 0, 53, 80
2, 13393, Note_on_c, 0, 57, 80
2, 13440, Note_on_c, 0, 84, 0
2, 13449, Note_on_c, 0, 85, 80
2, 13452, Note_on_c, 0, 75, 0
2, 13455, Note_on_c, 0, 53, 0
2, 13455, Note_on_c, 0, 57, 0
2, 13472, Note_on_c, 0, 48, 0
2, 13472, Note_on_c, 0, 63, 0
2, 13506, Note_on_c, 0, 86, 80
2, 13509, Note_on_c, 0, 62, 80
2, 13509, Note_on_c, 0, 74, 80
2, 13512, Note_on_c, 0, 46, 80
2, 13514, Note_on_c, 0, 85, 0
2, 13568, Note_on_c, 0, 77, 80
2, 13571, Note_on_c, 0, 86, 0
2, 13576, Note_on_c, 0, 46, 0
2, 13627, Note_on_c, 0, 82, 80
2, 13630, Note_on_c, 0, 53, 80
2, 13630, Note_on_c, 0, 58, 80
2, 13632, Note_on_c, 0, 77, 0
2, 13686, Note_on_c, 0, 86, 80
2, 13689, Note_on_c, 0, 82, 0
2, 13692, Note_on_c, 0, 53, 0
2, 13692, Note_on_c, 0, 58, 0
2, 13706, Note_on_c, 0, 86, 0
2, 13719, Note_on_c, 0, 74, 0
2, 13722, Note_on_c, 0, 62, 0
2, 13744, Note_on_c, 0, 86, 80
2, 13744, Note_on_c, 0, 91, 80
2, 13747, Note_on_c, 0, 46, 80
2, 13747, Note_on_c, 0, 58, 80
2, 13802, Note_on_c, 0, 94, 80
2, 13805, Note_on_c, 0, 91, 0
2, 13810, Note_on_c, 0, 58, 0
2, 13824, Note_on_c, 0, 46, 0
2, 13861, Note_on_c, 0, 55, 80
2, 13864, Note_on_c, 0, 43, 80
2, 13907, Note_on_c, 0, 94, 0
2, 13936, Note_on_c, 0, 86, 0
2, 13939, Note_on_c, 0, 55, 0
2, 13942, Note_on_c, 0, 43, 0
2, 13973, Note_on_c, 0, 93, 80
2, 13978, Note_on_c, 0, 42, 80
2, 13978, Note_on_c, 0, 54, 80
2, 14034, Note_on_c, 0, 96, 80
2, 14037, Note_on_c, 0, 93, 0
2, 14041, Note_on_c, 0, 42, 0
2, 14041, Note_on_c, 0, 54, 0
2, 14092, Note_on_c, 0, 98, 80
2, 14095, Note_on_c, 0, 96, 0
2, 14095, Note_on_c, 0, 54, 80
2, 14095, Note_on_c, 0, 60, 80
2, 14095, Note_on_c, 0, 62, 80
2, 14151, Note_on_c, 0, 90, 80
2, 14151, Note_on_c, 0, 99, 80
2, 14156, Note_on_c, 0, 98, 0
2, 14159, Note_on_c, 0, 54, 0
2, 14173, Note_on_c, 0, 62, 0
2, 14173, Note_on_c, 0, 60, 0
2, 14216, Note_on_c, 0, 38, 80
2, 14216, Note_on_c, 0, 50, 80
2, 14245, Note_on_c, 0, 99, 0
2, 14245, Note_on_c, 0, 90, 0
2, 14267, Note_on_c, 0, 98, 80
2, 14277, Note_on_c, 0, 50, 0
2, 14280, Note_on_c, 0, 38, 0
2, 14328, Note_on_c, 0, 90, 80
2, 14328, Note_on_c, 0, 93, 80
2, 14331, Note_on_c, 0, 98, 0
2, 14331, Note_on_c, 0, 60, 80
2, 14331, Note_on_c, 0, 62, 80
2, 14334, Note_on_c, 0, 54, 80
2, 14395, Note_on_c, 0, 93, 0
2, 14395, Note_on_c, 0, 90, 0
2, 14398, Note_on_c, 0, 62, 0
2, 14398, Note_on_c, 0, 60, 0
2, 14398, Note_on_c, 0, 54, 0
2, 14451, Note_on_c, 0, 91, 80
2, 14451, Note_on_c, 0, 96, 80
2, 14454, Note_on_c, 0, 55, 80
2, 14457, Note_on_c, 0, 43, 80
2, 14496, Note_on_c, 0, 96, 0
2, 14508, Note_on_c, 0, 94, 80
2, 14513, Note_on_c, 0, 55, 0
2, 14516, Note_on_c, 0, 43, 0
2, 14574, Note_on_c, 0, 93, 80
2, 14577, Note_on_c, 0, 94, 0
2, 14577, Note_on_c, 0, 55, 80
2, 14577, Note_on_c, 0, 58, 80
2, 14577, Note_on_c, 0, 62, 80
2, 14628, Note_on_c, 0, 94, 80
2, 14633, Note_on_c, 0, 93, 0
2, 14636, Note_on_c, 0, 62, 0
2, 14636, Note_on_c, 0, 58, 0
2, 14640, Note_on_c, 0, 55, 0
2, 14691, Note_on_c, 0, 38, 80
2, 14691, Note_on_c, 0, 50, 80
2, 14704, Note_on_c, 0, 91, 0
2, 14704, Note_on_c, 0, 94, 0
2, 14737, Note_on_c, 0, 50, 0
2, 14740, Note_on_c, 0, 38, 0
2, 14806, Note_on_c, 0, 62, 80
2, 14810, Note_on_c, 0, 55, 80
2, 14810, Note_on_c, 0, 58, 80
2, 14864, Note_on_c, 0, 94, 80
2, 14864, Note_on_c, 0, 87, 80
2, 14872, Note_on_c, 0, 58, 0
2, 14884, Note_on_c, 0, 62, 0
2, 14887, Note_on_c, 0, 55, 0
2, 14924, Note_on_c, 0, 55, 80
2, 14927, Note_on_c, 0, 43, 80
2, 14965, Note_on_c, 0, 94, 0
2, 14968, Note_on_c, 0, 87, 0
2, 14980, Note_on_c, 0, 82, 80
2, 14985, Note_on_c, 0, 55, 0
2, 14988, Note_on_c, 0, 43, 0
2, 15037, Note_on_c, 0, 87, 80
2, 15037, Note_on_c, 0, 91, 80
2, 15040, Note_on_c, 0, 51, 80
2, 15043, Note_on_c, 0, 82, 0
2, 15043, Note_on_c, 0, 39, 80
2, 15094, Note_on_c, 0, 79, 80
2, 15096, Note_on_c, 0, 87, 0
2, 15101, Note_on_c, 0, 39, 0
2, 15114, Note_on_c, 0, 51, 0
2, 15141, Note_on_c, 0, 79, 0
2, 15153, Note_on_c, 0, 38, 80
2, 15153, Note_on_c, 0, 50, 80
2, 15153, Note_on_c, 0, 82, 80
2, 15209, Note_on_c, 0, 86, 80
2, 15209, Note_on_c, 0, 89, 80
2, 15212, Note_on_c, 0, 91, 0
2, 15215, Note_on_c, 0, 82, 0
2, 15215, Note_on_c, 0, 38, 0
2, 15215, Note_on_c, 0, 50, 0
2, 15270, Note_on_c, 0, 53, 80
2, 15270, Note_on_c, 0, 58, 80
2, 15270, Note_on_c, 0, 62, 80
2, 15302, Note_on_c, 0, 86, 0
2, 15316, Note_on_c, 0, 58, 0
2, 15316, Note_on_c, 0, 89, 0
2, 15316, Note_on_c, 0, 53, 0
2, 15326, Note_on_c, 0, 77, 80
2, 15331, Note_on_c, 0, 62, 0
2, 15384, Note_on_c, 0, 87, 80
2, 15387, Note_on_c, 0, 84, 80
2, 15390, Note_on_c, 0, 41, 80
2, 15390, Note_on_c, 0, 53, 80
2, 15393, Note_on_c, 0, 77, 0
2, 15447, Note_on_c, 0, 79, 80
2, 15450, Note_on_c, 0, 87, 0
2, 15450, Note_on_c, 0, 84, 0
2, 15453, Note_on_c, 0, 41, 0
2, 15456, Note_on_c, 0, 53, 0
2, 15506, Note_on_c, 0, 81, 80
2, 15506, Note_on_c, 0, 87, 80
2, 15509, Note_on_c, 0, 53, 80
2, 15509, Note_on_c, 0, 57, 80
2, 15509, Note_on_c, 0, 63, 80
2, 15512, Note_on_c, 0, 79, 0
2, 15558, Note_on_c, 0, 53, 0
2, 15558, Note_on_c, 0, 87, 0
2, 15568, Note_on_c, 0, 82, 80
2, 15568, Note_on_c, 0, 86, 80
2, 15573, Note_on_c, 0, 81, 0
2, 15573, Note_on_c, 0, 63, 0
2, 15573, Note_on_c, 0, 57, 0
2, 15628, Note_on_c, 0, 46, 80
2, 15628, Note_on_c, 0, 58, 80
2, 15689, Note_on_c, 0, 77, 80
2, 15692, Note_on_c, 0, 82, 0
2, 15692, Note_on_c, 0, 86, 0
2, 15692, Note_on_c, 0, 45, 80
2, 15692, Note_on_c, 0, 57, 80
2, 15695, Note_on_c, 0, 58, 0
2, 15695, Note_on_c, 0, 46, 0
2, 15738, Note_on_c, 0, 77, 0
2, 15743, Note_on_c, 0, 57, 0
2, 15750, Note_on_c, 0, 86, 80
2, 15750, Note_on_c, 0, 89, 80
2, 15753, Note_on_c, 0, 44, 80
2, 15753, Note_on_c, 0, 56, 80
2, 15758, Note_on_c, 0, 45, 0
2, 15799, Note_on_c, 0, 86, 0
2, 15802, Note_on_c, 0, 56, 0
2, 15802, Note_on_c, 0, 89, 0
2, 15805, Note_on_c, 0, 44, 0
2, 15873, Note_on_c, 0, 55, 80
2, 15873, Note_on_c, 0, 94, 80
2, 15876, Note_on_c, 0, 87, 80
2, 15879, Note_on_c, 0, 43, 80
2, 15933, Note_on_c, 0, 82, 80
2, 15936, Note_on_c, 0, 53, 80
2, 15938, Note_on_c, 0, 87, 0
2, 15938, Note_on_c, 0, 41, 80
2, 15941, Note_on_c, 0, 43, 0
2, 15956, Note_on_c, 0, 55, 0
2, 15992, Note_on_c, 0, 87, 80
2, 15992, Note_on_c, 0, 91, 80
2, 15995, Note_on_c, 0, 94, 0
2, 15995, Note_on_c, 0, 39, 80
2, 15995, Note_on_c, 0, 51, 80
2, 15998, Note_on_c, 0, 82, 0
2, 15998, Note_on_c, 0, 41, 0
2, 16001, Note_on_c, 0, 53, 0
2, 16042, Note_on_c, 0, 87, 0
2, 16056, Note_on_c, 0, 79, 80
2, 16064, Note_on_c, 0, 39, 0
2, 16077, Note_on_c, 0, 51, 0
2, 16104, Note_on_c, 0, 91, 0
2, 16106, Note_on_c, 0, 79, 0
2, 16119, Note_on_c, 0, 82, 80
2, 16122, Note_on_c, 0, 50, 80
2, 16125, Note_on_c, 0, 38, 80
2, 16180, Note_on_c, 0, 86, 80
2, 16180, Note_on_c, 0, 89, 80
2, 16183, Note_on_c, 0, 82, 0
2, 16186, Note_on_c, 0, 50, 0
2, 16189, Note_on_c, 0, 38, 0
2, 16243, Note_on_c, 0, 53, 80
2, 16243, Note_on_c, 0, 58, 80
2, 16243, Note_on_c, 0, 62, 80
2, 16257, Note_on_c, 0, 86, 0
2, 16260, Note_on_c, 0, 89, 0
2, 16289, Note_on_c, 0, 58, 0
2, 16289, Note_on_c, 0, 53, 0
2, 16289, Note_on_c, 0, 62, 0
2, 16298, Note_on_c, 0, 77, 80
2, 16354, Note_on_c, 0, 87, 80
2, 16357, Note_on_c, 0, 84, 80
2, 16360, Note_on_c, 0, 53, 80
2, 16363, Note_on_c, 0, 77, 0
2, 16363, Note_on_c, 0, 41, 80
2, 16404, Note_on_c, 0, 87, 0
2, 16416, Note_on_c, 0, 79, 80
2, 16421, Note_on_c, 0, 84, 0
2, 16424, Note_on_c, 0, 41, 0
2, 16424, Note_on_c, 0, 53, 0
2, 16475, Note_on_c, 0, 81, 80
2, 16475, Note_on_c, 0, 87, 80
2, 16478, Note_on_c, 0, 63, 80
2, 16481, Note_on_c, 0, 79, 0
2, 16481, Note_on_c, 0, 53, 80
2, 16481, Note_on_c, 0, 57, 80
2, 16535, Note_on_c, 0, 82, 80
2, 16535, Note_on_c, 0, 86, 80
2, 16537, Note_on_c, 0, 57, 0
2, 16537, Note_on_c, 0, 53, 0
2, 16537, Note_on_c, 0, 63, 0
2, 16537, Note_on_c, 0, 81, 0
2, 16537, Note_on_c, 0, 87, 0
2, 16591, Note_on_c, 0, 46, 80
2, 16591, Note_on_c, 0, 58, 80
2, 16652, Note_on_c, 0, 58, 0
2, 16652, Note_on_c, 0, 46, 0
2, 16705, Note_on_c, 0, 41, 80
2, 16705, Note_on_c, 0, 53, 80
2, 16708, Note_on_c, 0, 86, 0
2, 16711, Note_on_c, 0, 82, 0
2, 16762, Note_on_c, 0, 87, 80
2, 16762, Note_on_c, 0, 94, 80
2, 16770, Note_on_c, 0, 53, 0
2, 16773, Note_on_c, 0, 41, 0
2, 16822, Note_on_c, 0, 55, 80
2, 16824, Note_on_c, 0, 43, 80
2, 16883, Note_on_c, 0, 82, 80
2, 16888, Note_on_c, 0, 55, 0
2, 16888, Note_on_c, 0, 87, 0
2, 16891, Note_on_c, 0, 43, 0
2, 16929, Note_on_c, 0, 82, 0
2, 16929, Note_on_c, 0, 94, 0
2, 16939, Note_on_c, 0, 91, 80
2, 16942, Note_on_c, 0, 51, 80
2, 16942, Note_on_c, 0, 87, 80
2, 16946, Note_on_c, 0, 39, 80
2, 17000, Note_on_c, 0, 79, 80
2, 17003, Note_on_c, 0, 87, 0
2, 17008, Note_on_c, 0, 39, 0
2, 17022, Note_on_c, 0, 51, 0
2, 17056, Note_on_c, 0, 82, 80
2, 17061, Note_on_c, 0, 91, 0
2, 17061, Note_on_c, 0, 38, 80
2, 17061, Note_on_c, 0, 50, 80
2, 17064, Note_on_c, 0, 79, 0
2, 17110, Note_on_c, 0, 82, 0
2, 17117, Note_on_c, 0, 86, 80
2, 17117, Note_on_c, 0, 89, 80
2, 17125, Note_on_c, 0, 38, 0
2, 17125, Note_on_c, 0, 50, 0
2, 17176, Note_on_c, 0, 58, 80
2, 17176, Note_on_c, 0, 62, 80
2, 17179, Note_on_c, 0, 53, 80
2, 17234, Note_on_c, 0, 77, 80
2, 17237, Note_on_c, 0, 86, 0
2, 17237, Note_on_c, 0, 89, 0
2, 17240, Note_on_c, 0, 53, 0
2, 17240, Note_on_c, 0, 62, 0
2, 17240, Note_on_c, 0, 58, 0
2, 17283, Note_on_c, 0, 77, 0
2, 17291, Note_on_c, 0, 87, 80
2, 17294, Note_on_c, 0, 53, 80
2, 17294, Note_on_c, 0, 84, 80
2, 17299, Note_on_c, 0, 41, 80
2, 17352, Note_on_c, 0, 79, 80
2, 17357, Note_on_c, 0, 84, 0
2, 17357, Note_on_c, 0, 87, 0
2, 17357, Note_on_c, 0, 53, 0
2, 17360, Note_on_c, 0, 41, 0
2, 17414, Note_on_c, 0, 53, 80
2, 17414, Note_on_c, 0, 63, 80
2, 17414, Note_on_c, 0, 81, 80
2, 17414, Note_on_c, 0, 87, 80
2, 17417, Note_on_c, 0, 57, 80
2, 17420, Note_on_c, 0, 79, 0
2, 17461, Note_on_c, 0, 87, 0
2, 17461, Note_on_c, 0, 81, 0
2, 17464, Note_on_c, 0, 53, 0
2, 17464, Note_on_c, 0, 57, 0
2, 17472, Note_on_c, 0, 82, 80
2, 17472, Note_on_c, 0, 86, 80
2, 17479, Note_on_c, 0, 63, 0
2, 17533, Note_on_c, 0, 46, 80
2, 17589, Note_on_c, 0, 58, 80
2, 17589, Note_on_c, 0, 77, 80
2, 17592, Note_on_c, 0, 86, 0
2, 17592, Note_on_c, 0, 82, 0
2, 17594, Note_on_c, 0, 46, 0
2, 17648, Note_on_c, 0, 86, 80
2, 17648, Note_on_c, 0, 89, 80
2, 17651, Note_on_c, 0, 44, 80
2, 17654, Note_on_c, 0, 58, 0
2, 17654, Note_on_c, 0, 77, 0
2, 17710, Note_on_c, 0, 56, 80
2, 17712, Note_on_c, 0, 89, 0
2, 17712, Note_on_c, 0, 86, 0
2, 17715, Note_on_c, 0, 44, 0
2, 17769, Note_on_c, 0, 87, 80
2, 17769, Note_on_c, 0, 94, 80
2, 17769, Note_on_c, 0, 43, 80
2, 17772, Note_on_c, 0, 56, 0
2, 17815, Note_on_c, 0, 87, 0
2, 17818, Note_on_c, 0, 43, 0
2, 17823, Note_on_c, 0, 82, 80
2, 17828, Note_on_c, 0, 55, 80
2, 17883, Note_on_c, 0, 87, 80
2, 17883, Note_on_c, 0, 91, 80
2, 17886, Note_on_c, 0, 39, 80
2, 17889, Note_on_c, 0, 94, 0
2, 17902, Note_on_c, 0, 55, 0
2, 17914, Note_on_c, 0, 82, 0
2, 17931, Note_on_c, 0, 87, 0
2, 17939, Note_on_c, 0, 79, 80
2, 17942, Note_on_c, 0, 51, 80
2, 17950, Note_on_c, 0, 39, 0
2, 18000, Note_on_c, 0, 82, 80
2, 18003, Note_on_c, 0, 38, 80
2, 18006, Note_on_c, 0, 91, 0
2, 18006, Note_on_c, 0, 79, 0
2, 18021, Note_on_c, 0, 51, 0
2, 18059, Note_on_c, 0, 86, 80
2, 18059, Note_on_c, 0, 89, 80
2, 18062, Note_on_c, 0, 50, 80
2, 18065, Note_on_c, 0, 82, 0
2, 18068, Note_on_c, 0, 38, 0
2, 18109, Note_on_c, 0, 50, 0
2, 18121, Note_on_c, 0, 53, 80
2, 18121, Note_on_c, 0, 58, 80
2, 18121, Note_on_c, 0, 62, 80
2, 18139, Note_on_c, 0, 86, 0
2, 18139, Note_on_c, 0, 89, 0
2, 18177, Note_on_c, 0, 77, 80
2, 18182, Note_on_c, 0, 58, 0
2, 18182, Note_on_c, 0, 62, 0
2, 18182, Note_on_c, 0, 53, 0
2, 18236, Note_on_c, 0, 84, 80
2, 18236, Note_on_c, 0, 87, 80
2, 18239, Note_on_c, 0, 41, 80
2, 18239, Note_on_c, 0, 53, 80
2, 18241, Note_on_c, 0, 77, 0
2, 18283, Note_on_c, 0, 41, 0
2, 18283, Note_on_c, 0, 84, 0
2, 18283, Note_on_c, 0, 87, 0
2, 18283, Note_on_c, 0, 53, 0
2, 18292, Note_on_c, 0, 79, 80
2, 18341, Note_on_c, 0, 79, 0
2, 18354, Note_on_c, 0, 53, 80
2, 18354, Note_on_c, 0, 63, 80
2, 18354, Note_on_c, 0, 81, 80
2, 18354, Note_on_c, 0, 87, 80
2, 18357, Note_on_c, 0, 57, 80
2, 18410, Note_on_c, 0, 82, 80
2, 18413, Note_on_c, 0, 86, 80
2, 18418, Note_on_c, 0, 57, 0
2, 18418, Note_on_c, 0, 87, 0
2, 18418, Note_on_c, 0, 53, 0
2, 18418, Note_on_c, 0, 81, 0
2, 18418, Note_on_c, 0, 63, 0
2, 18472, Note_on_c, 0, 46, 80
2, 18472, Note_on_c, 0, 58, 80
2, 18523, Note_on_c, 0, 58, 0
2, 18537, Note_on_c, 0, 46, 0
2, 18591, Note_on_c, 0, 38, 80
2, 18591, Note_on_c, 0, 50, 80
2, 18591, Note_on_c, 0, 66, 80
2, 18591, Note_on_c, 0, 69, 80
2, 18591, Note_on_c, 0, 74, 80
2, 18591, Note_on_c, 0, 78, 80
2, 18596, Note_on_c, 0, 86, 0
2, 18596, Note_on_c, 0, 82, 0
2, 18637, Note_on_c, 0, 69, 0
2, 18647, Note_on_c, 0, 67, 80
2, 18647, Note_on_c, 0, 79, 80
2, 18651, Note_on_c, 0, 38, 0
2, 18651, Note_on_c, 0, 50, 0
2, 18651, Note_on_c, 0, 78, 0
2, 18651, Note_on_c, 0, 66, 0
2, 18651, Note_on_c, 0, 74, 0
2, 18675, Note_on_c, 0, 81, 80
2, 18678, Note_on_c, 0, 69, 80
2, 18697, Note_on_c, 0, 79, 0
2, 18697, Note_on_c, 0, 67, 0
2, 18707, Note_on_c, 0, 43, 80
2, 18707, Note_on_c, 0, 55, 80
2, 18707, Note_on_c, 0, 70, 80
2, 18707, Note_on_c, 0, 82, 80
2, 18710, Note_on_c, 0, 81, 0
2, 18713, Note_on_c, 0, 69, 0
2, 18767, Note_on_c, 0, 81, 80
2, 18769, Note_on_c, 0, 69, 80
2, 18772, Note_on_c, 0, 70, 0
2, 18772, Note_on_c, 0, 43, 0
2, 18772, Note_on_c, 0, 82, 0
2, 18787, Note_on_c, 0, 55, 0
2, 18825, Note_on_c, 0, 79, 80
2, 18828, Note_on_c, 0, 55, 80
2, 18828, Note_on_c, 0, 58, 80
2, 18828, Note_on_c, 0, 62, 80
2, 18828, Note_on_c, 0, 67, 80
2, 18833, Note_on_c, 0, 81, 0
2, 18833, Note_on_c, 0, 69, 0
2, 18884, Note_on_c, 0, 82, 80
2, 18887, Note_on_c, 0, 70, 80
2, 18889, Note_on_c, 0, 79, 0
2, 18889, Note_on_c, 0, 58, 0
2, 18889, Note_on_c, 0, 67, 0
2, 18892, Note_on_c, 0, 62, 0
2, 18905, Note_on_c, 0, 55, 0
2, 18946, Note_on_c, 0, 38, 80
2, 18946, Note_on_c, 0, 50, 80
2, 18980, Note_on_c, 0, 82, 0
2, 18980, Note_on_c, 0, 70, 0
2, 19002, Note_on_c, 0, 69, 80
2, 19002, Note_on_c, 0, 81, 80
2, 19007, Note_on_c, 0, 38, 0
2, 19007, Note_on_c, 0, 50, 0
2, 19060, Note_on_c, 0, 58, 80
2, 19063, Note_on_c, 0, 55, 80
2, 19063, Note_on_c, 0, 62, 80
2, 19063, Note_on_c, 0, 67, 80
2, 19063, Note_on_c, 0, 79, 80
2, 19068, Note_on_c, 0, 69, 0
2, 19068, Note_on_c, 0, 81, 0
2, 19124, Note_on_c, 0, 58, 0
2, 19124, Note_on_c, 0, 62, 0
2, 19124, Note_on_c, 0, 55, 0
2, 19124, Note_on_c, 0, 79, 0
2, 19124, Note_on_c, 0, 67, 0
2, 19179, Note_on_c, 0, 42, 80
2, 19179, Note_on_c, 0, 54, 80
2, 19179, Note_on_c, 0, 69, 80
2, 19179, Note_on_c, 0, 81, 80
2, 19230, Note_on_c, 0, 81, 0
2, 19230, Note_on_c, 0, 42, 0
2, 19230, Note_on_c, 0, 54, 0
2, 19230, Note_on_c, 0, 69, 0
2, 19300, Note_on_c, 0, 54, 80
2, 19300, Note_on_c, 0, 60, 80
2, 19300, Note_on_c, 0, 62, 80
2, 19300, Note_on_c, 0, 67, 80
2, 19300, Note_on_c, 0, 79, 80
2, 19320, Note_on_c, 0, 54, 0
2, 19361, Note_on_c, 0, 66, 80
2, 19361, Note_on_c, 0, 78, 80
2, 19364, Note_on_c, 0, 54, 80
2, 19367, Note_on_c, 0, 67, 0
2, 19367, Note_on_c, 0, 79, 0
2, 19367, Note_on_c, 0, 60, 0
2, 19367, Note_on_c, 0, 62, 0
2, 19408, Note_on_c, 0, 78, 0
2, 19417, Note_on_c, 0, 50, 80
2, 19420, Note_on_c, 0, 38, 80
2, 19481, Note_on_c, 0, 38, 0
2, 19481, Note_on_c, 0, 50, 0
2, 19481, Note_on_c, 0, 74, 80
2, 19484, Note_on_c, 0, 54, 0
2, 19537, Note_on_c, 0, 62, 80
2, 19540, Note_on_c, 0, 54, 80
2, 19540, Note_on_c, 0, 60, 80
2, 19540, Note_on_c, 0, 81, 80
2, 19545, Note_on_c, 0, 74, 0
2, 19586, Note_on_c, 0, 62, 0
2, 19589, Note_on_c, 0, 54, 0
2, 19589, Note_on_c, 0, 66, 0
2, 19589, Note_on_c, 0, 81, 0
2, 19589, Note_on_c, 0, 60, 0
2, 19599, Note_on_c, 0, 57, 80
2, 19599, Note_on_c, 0, 69, 80
2, 19618, Note_on_c, 0, 57, 0
2, 19631, Note_on_c, 0, 58, 80
2, 19631, Note_on_c, 0, 70, 80
2, 19659, Note_on_c, 0, 57, 80
2, 19659, Note_on_c, 0, 60, 80
2, 19659, Note_on_c, 0, 72, 80
2, 19662, Note_on_c, 0, 45, 80
2, 19665, Note_on_c, 0, 69, 0
2, 19692, Note_on_c, 0, 58, 0
2, 19692, Note_on_c, 0, 70, 0
2, 19730, Note_on_c, 0, 58, 80
2, 19730, Note_on_c, 0, 70, 80
2, 19733, Note_on_c, 0, 60, 0
2, 19733, Note_on_c, 0, 72, 0
2, 19736, Note_on_c, 0, 45, 0
2, 19736, Note_on_c, 0, 57, 0
2, 19775, Note_on_c, 0, 54, 80
2, 19775, Note_on_c, 0, 57, 80
2, 19775, Note_on_c, 0, 60, 80
2, 19775, Note_on_c, 0, 62, 80
2, 19775, Note_on_c, 0, 69, 80
2, 19777, Note_on_c, 0, 70, 0
2, 19780, Note_on_c, 0, 58, 0
2, 19793, Note_on_c, 0, 60, 0
2, 19829, Note_on_c, 0, 72, 80
2, 19832, Note_on_c, 0, 60, 80
2, 19835, Note_on_c, 0, 62, 0
2, 19835, Note_on_c, 0, 54, 0
2, 19835, Note_on_c, 0, 57, 0
2, 19835, Note_on_c, 0, 69, 0
2, 19889, Note_on_c, 0, 38, 80
2, 19889, Note_on_c, 0, 50, 80
2, 19938, Note_on_c, 0, 72, 0
2, 19943, Note_on_c, 0, 60, 0
2, 19945, Note_on_c, 0, 58, 80
2, 19945, Note_on_c, 0, 70, 80
2, 19950, Note_on_c, 0, 38, 0
2, 19965, Note_on_c, 0, 50, 0
2, 20003, Note_on_c, 0, 69, 80
2, 20008, Note_on_c, 0, 70, 0
2, 20008, Note_on_c, 0, 42, 80
2, 20008, Note_on_c, 0, 54, 80
2, 20008, Note_on_c, 0, 57, 80
2, 20011, Note_on_c, 0, 58, 0
2, 20069, Note_on_c, 0, 54, 0
2, 20069, Note_on_c, 0, 69, 0
2, 20072, Note_on_c, 0, 42, 0
2, 20072, Note_on_c, 0, 57, 0
2, 20123, Note_on_c, 0, 43, 80
2, 20123, Note_on_c, 0, 55, 80
2, 20123, Note_on_c, 0, 58, 80
2, 20123, Note_on_c, 0, 70, 80
2, 20172, Note_on_c, 0, 70, 0
2, 20172, Note_on_c, 0, 58, 0
2, 20172, Note_on_c, 0, 43, 0
2, 20204, Note_on_c, 0, 55, 0
2, 20242, Note_on_c, 0, 55, 80
2, 20242, Note_on_c, 0, 58, 80
2, 20242, Note_on_c, 0, 62, 80
2, 20242, Note_on_c, 0, 69, 80
2, 20259, Note_on_c, 0, 55, 0
2, 20288, Note_on_c, 0, 58, 0
2, 20288, Note_on_c, 0, 69, 0
2, 20298, Note_on_c, 0, 67, 80
2, 20301, Note_on_c, 0, 55, 80
2, 20308, Note_on_c, 0, 62, 0
2, 20362, Note_on_c, 0, 34, 80
2, 20421, Note_on_c, 0, 62, 80
2, 20421, Note_on_c, 0, 74, 80
2, 20424, Note_on_c, 0, 46, 80
2, 20428, Note_on_c, 0, 34, 0
2, 20472, Note_on_c, 0, 55, 0
2, 20472, Note_on_c, 0, 62, 0
2, 20472, Note_on_c, 0, 67, 0
2, 20472, Note_on_c, 0, 46, 0
2, 20472, Note_on_c, 0, 74, 0
2, 20479, Note_on_c, 0, 38, 80
2, 20479, Note_on_c, 0, 82, 80
2, 20482, Note_on_c, 0, 70, 80
2, 20536, Note_on_c, 0, 55, 80
2, 20536, Note_on_c, 0, 67, 80
2, 20539, Note_on_c, 0, 50, 80
2, 20544, Note_on_c, 0, 70, 0
2, 20544, Note_on_c, 0, 38, 0
2, 20544, Note_on_c, 0, 82, 0
2, 20568, Note_on_c, 0, 69, 80
2, 20570, Note_on_c, 0, 57, 80
2, 20597, Note_on_c, 0, 58, 80
2, 20597, Note_on_c, 0, 70, 80
2, 20600, Note_on_c, 0, 43, 80
2, 20603, Note_on_c, 0, 57, 0
2, 20603, Note_on_c, 0, 69, 0
2, 20603, Note_on_c, 0, 50, 0
2, 20603, Note_on_c, 0, 55, 0
2, 20603, Note_on_c, 0, 67, 0
2, 20657, Note_on_c, 0, 69, 80
2, 20660, Note_on_c, 0, 55, 80
2, 20660, Note_on_c, 0, 57, 80
2, 20663, Note_on_c, 0, 43, 0
2, 20663, Note_on_c, 0, 58, 0
2, 20663, Note_on_c, 0, 70, 0
2, 20677, Note_on_c, 0, 55, 0
2, 20718, Note_on_c, 0, 55, 80
2, 20718, Note_on_c, 0, 58, 80
2, 20718, Note_on_c, 0, 62, 80
2, 20718, Note_on_c, 0, 67, 80
2, 20723, Note_on_c, 0, 69, 0
2, 20726, Note_on_c, 0, 57, 0
2, 20775, Note_on_c, 0, 69, 80
2, 20778, Note_on_c, 0, 55, 0
2, 20778, Note_on_c, 0, 67, 0
2, 20778, Note_on_c, 0, 57, 80
2, 20781, Note_on_c, 0, 58, 0
2, 20784, Note_on_c, 0, 62, 0
2, 20827, Note_on_c, 0, 69, 0
2, 20830, Note_on_c, 0, 57, 0
2, 20839, Note_on_c, 0, 50, 80
2, 20839, Note_on_c, 0, 58, 80
2, 20839, Note_on_c, 0, 70, 80
2, 20842, Note_on_c, 0, 38, 80
2, 20896, Note_on_c, 0, 60, 80
2, 20901, Note_on_c, 0, 72, 80
2, 20904, Note_on_c, 0, 38, 0
2, 20904, Note_on_c, 0, 70, 0
2, 20904, Note_on_c, 0, 50, 0
2, 20904, Note_on_c, 0, 58, 0
2, 20957, Note_on_c, 0, 58, 80
2, 20957, Note_on_c, 0, 62, 80
2, 20960, Note_on_c, 0, 55, 80
2, 20963, Note_on_c, 0, 60, 0
2, 20977, Note_on_c, 0, 62, 0
2, 20992, Note_on_c, 0, 72, 0
2, 21009, Note_on_c, 0, 58, 0
2, 21017, Note_on_c, 0, 62, 80
2, 21017, Note_on_c, 0, 74, 80
2, 21036, Note_on_c, 0, 55, 0
2, 21072, Note_on_c, 0, 75, 80
2, 21075, Note_on_c, 0, 36, 80
2, 21075, Note_on_c, 0, 48, 80
2, 21075, Note_on_c, 0, 63, 80
2, 21078, Note_on_c, 0, 74, 0
2, 21078, Note_on_c, 0, 62, 0
2, 21134, Note_on_c, 0, 48, 0
2, 21134, Note_on_c, 0, 75, 0
2, 21134, Note_on_c, 0, 63, 0
2, 21137, Note_on_c, 0, 36, 0
2, 21188, Note_on_c, 0, 60, 80
2, 21191, Note_on_c, 0, 55, 80
2, 21191, Note_on_c, 0, 63, 80
2, 21191, Note_on_c, 0, 74, 80
2, 21208, Note_on_c, 0, 60, 0
2, 21244, Note_on_c, 0, 60, 80
2, 21244, Note_on_c, 0, 72, 80
2, 21252, Note_on_c, 0, 74, 0
2, 21252, Note_on_c, 0, 63, 0
2, 21266, Note_on_c, 0, 55, 0
2, 21308, Note_on_c, 0, 51, 80
2, 21311, Note_on_c, 0, 39, 80
2, 21366, Note_on_c, 0, 67, 80
2, 21366, Note_on_c, 0, 79, 80
2, 21369, Note_on_c, 0, 39, 0
2, 21369, Note_on_c, 0, 60, 0
2, 21384, Note_on_c, 0, 51, 0
2, 21410, Note_on_c, 0, 67, 0
2, 21413, Note_on_c, 0, 79, 0
2, 21423, Note_on_c, 0, 55, 80
2, 21423, Note_on_c, 0, 60, 80
2, 21423, Note_on_c, 0, 63, 80
2, 21423, Note_on_c, 0, 75, 80
2, 21423, Note_on_c, 0, 87, 80
2, 21428, Note_on_c, 0, 72, 0
2, 21440, Note_on_c, 0, 60, 0
2, 21479, Note_on_c, 0, 60, 80
2, 21479, Note_on_c, 0, 72, 80
2, 21481, Note_on_c, 0, 75, 0
2, 21484, Note_on_c, 0, 63, 0
2, 21484, Note_on_c, 0, 87, 0
2, 21499, Note_on_c, 0, 55, 0
2, 21506, Note_on_c, 0, 62, 80
2, 21506, Note_on_c, 0, 74, 80
2, 21526, Note_on_c, 0, 62, 0
2, 21538, Note_on_c, 0, 36, 80
2, 21538, Note_on_c, 0, 48, 80
2, 21538, Note_on_c, 0, 63, 80
2, 21538, Note_on_c, 0, 75, 80
2, 21541, Note_on_c, 0, 72, 0
2, 21541, Note_on_c, 0, 60, 0
2, 21558, Note_on_c, 0, 74, 0
2, 21580, Note_on_c, 0, 62, 80
2, 21585, Note_on_c, 0, 36, 0
2, 21588, Note_on_c, 0, 63, 0
2, 21588, Note_on_c, 0, 75, 0
2, 21598, Note_on_c, 0, 74, 80
2, 21600, Note_on_c, 0, 48, 0
2, 21656, Note_on_c, 0, 55, 80
2, 21659, Note_on_c, 0, 57, 80
2, 21659, Note_on_c, 0, 60, 80
2, 21659, Note_on_c, 0, 63, 80
2, 21659, Note_on_c, 0, 72, 80
2, 21662, Note_on_c, 0, 74, 0
2, 21662, Note_on_c, 0, 62, 0
2, 21713, Note_on_c, 0, 58, 80
2, 21716, Note_on_c, 0, 70, 80
2, 21720, Note_on_c, 0, 55, 0
2, 21720, Note_on_c, 0, 63, 0
2, 21720, Note_on_c, 0, 57, 0
2, 21720, Note_on_c, 0, 60, 0
2, 21720, Note_on_c, 0, 72, 0
2, 21774, Note_on_c, 0, 51, 80
2, 21774, Note_on_c, 0, 57, 80
2, 21774, Note_on_c, 0, 69, 80
2, 21777, Note_on_c, 0, 39, 80
2, 21780, Note_on_c, 0, 70, 0
2, 21780, Note_on_c, 0, 58, 0
2, 21834, Note_on_c, 0, 55, 80
2, 21834, Note_on_c, 0, 67, 80
2, 21839, Note_on_c, 0, 69, 0
2, 21839, Note_on_c, 0, 57, 0
2, 21839, Note_on_c, 0, 39, 0
2, 21853, Note_on_c, 0, 51, 0
2, 21853, Note_on_c, 0, 55, 0
2, 21894, Note_on_c, 0, 55, 80
2, 21897, Note_on_c, 0, 57, 80
2, 21897, Note_on_c, 0, 60, 80
2, 21914, Note_on_c, 0, 67, 0
2, 21917, Note_on_c, 0, 57, 0
2, 21949, Note_on_c, 0, 60, 0
2, 21954, Note_on_c, 0, 57, 80
2, 21954, Note_on_c, 0, 69, 80
2, 21961, Note_on_c, 0, 55, 0
2, 22017, Note_on_c, 0, 38, 80
2, 22017, Note_on_c, 0, 50, 80
2, 22017, Note_on_c, 0, 54, 80
2, 22017, Note_on_c, 0, 66, 80
2, 22020, Note_on_c, 0, 69, 0
2, 22023, Note_on_c, 0, 57, 0
2, 22066, Note_on_c, 0, 54, 0
2, 22066, Note_on_c, 0, 66, 0
2, 22083, Note_on_c, 0, 50, 0
2, 22083, Note_on_c, 0, 38, 0
2, 22137, Note_on_c, 0, 57, 80
2, 22140, Note_on_c, 0, 60, 80
2, 22140, Note_on_c, 0, 69, 80
2, 22143, Note_on_c, 0, 48, 80
2, 22199, Note_on_c, 0, 62, 80
2, 22199, Note_on_c, 0, 66, 80
2, 22199, Note_on_c, 0, 74, 80
2, 22203, Note_on_c, 0, 69, 0
2, 22203, Note_on_c, 0, 60, 0
2, 22206, Note_on_c, 0, 57, 0
2, 22219, Note_on_c, 0, 48, 0
2, 22260, Note_on_c, 0, 58, 80
2, 22263, Note_on_c, 0, 46, 80
2, 22309, Note_on_c, 0, 46, 0
2, 22309, Note_on_c, 0, 58, 0
2, 22379, Note_on_c, 0, 45, 80
2, 22379, Note_on_c, 0, 57, 80
2, 22422, Note_on_c, 0, 74, 0
2, 22425, Note_on_c, 0, 66, 0
2, 22425, Note_on_c, 0, 57, 0
2, 22438, Note_on_c, 0, 79, 80
2, 22438, Note_on_c, 0, 91, 80
2, 22442, Note_on_c, 0, 45, 0
2, 22464, Note_on_c, 0, 81, 80
2, 22464, Note_on_c, 0, 93, 80
2, 22469, Note_on_c, 0, 62, 0
2, 22493, Note_on_c, 0, 55, 80
2, 22496, Note_on_c, 0, 82, 80
2, 22496, Note_on_c, 0, 94, 80
2, 22499, Note_on_c, 0, 43, 80
2, 22502, Note_on_c, 0, 91, 0
2, 22502, Note_on_c, 0, 79, 0
2, 22516, Note_on_c, 0, 93, 0
2, 22516, Note_on_c, 0, 81, 0
2, 22555, Note_on_c, 0, 81, 80
2, 22555, Note_on_c, 0, 93, 80
2, 22560, Note_on_c, 0, 55, 0
2, 22560, Note_on_c, 0, 82, 0
2, 22560, Note_on_c, 0, 94, 0
2, 22560, Note_on_c, 0, 43, 0
2, 22606, Note_on_c, 0, 93, 0
2, 22615, Note_on_c, 0, 55, 80
2, 22615, Note_on_c, 0, 58, 80
2, 22615, Note_on_c, 0, 62, 80
2, 22615, Note_on_c, 0, 79, 80
2, 22615, Note_on_c, 0, 91, 80
2, 22618, Note_on_c, 0, 81, 0
2, 22674, Note_on_c, 0, 82, 80
2, 22674, Note_on_c, 0, 94, 80
2, 22679, Note_on_c, 0, 79, 0
2, 22679, Note_on_c, 0, 62, 0
2, 22679, Note_on_c, 0, 91, 0
2, 22683, Note_on_c, 0, 58, 0
2, 22696, Note_on_c, 0, 55, 0
2, 22734, Note_on_c, 0, 50, 80
2, 22737, Note_on_c, 0, 38, 80
2, 22754, Note_on_c, 0, 94, 0
2, 22769, Note_on_c, 0, 82, 0
2, 22786, Note_on_c, 0, 38, 0
2, 22796, Note_on_c, 0, 81, 80
2, 22796, Note_on_c, 0, 93, 80
2, 22799, Note_on_c, 0, 50, 0
2, 22852, Note_on_c, 0, 55, 80
2, 22852, Note_on_c, 0, 62, 80
2, 22852, Note_on_c, 0, 91, 80
2, 22855, Note_on_c, 0, 58, 80
2, 22855, Note_on_c, 0, 79, 80
2, 22860, Note_on_c, 0, 93, 0
2, 22860, Note_on_c, 0, 81, 0
2, 22916, Note_on_c, 0, 55, 0
2, 22916, Note_on_c, 0, 91, 0
2, 22916, Note_on_c, 0, 62, 0
2, 22916, Note_on_c, 0, 79, 0
2, 22916, Note_on_c, 0, 58, 0
2, 22969, Note_on_c, 0, 54, 80
2, 22969, Note_on_c, 0, 81, 80
2, 22969, Note_on_c, 0, 93, 80
2, 22972, Note_on_c, 0, 42, 80
2, 23016, Note_on_c, 0, 42, 0
2, 23016, Note_on_c, 0, 54, 0
2, 23016, Note_on_c, 0, 81, 0
2, 23016, Note_on_c, 0, 93, 0
2, 23084, Note_on_c, 0, 60, 80
2, 23084, Note_on_c, 0, 62, 80
2, 23084, Note_on_c, 0, 91, 80
2, 23087, Note_on_c, 0, 54, 80
2, 23087, Note_on_c, 0, 79, 80
2, 23130, Note_on_c, 0, 91, 0
2, 23130, Note_on_c, 0, 60, 0
2, 23133, Note_on_c, 0, 79, 0
2, 23133, Note_on_c, 0, 54, 0
2, 23142, Note_on_c, 0, 78, 80
2, 23142, Note_on_c, 0, 90, 80
2, 23145, Note_on_c, 0, 62, 0
2, 23204, Note_on_c, 0, 38, 80
2, 23204, Note_on_c, 0, 50, 80
2, 23207, Note_on_c, 0, 90, 0
2, 23262, Note_on_c, 0, 86, 80
2, 23265, Note_on_c, 0, 50, 0
2, 23268, Note_on_c, 0, 38, 0
2, 23317, Note_on_c, 0, 60, 80
2, 23320, Note_on_c, 0, 54, 80
2, 23320, Note_on_c, 0, 62, 80
2, 23320, Note_on_c, 0, 93, 80
2, 23337, Note_on_c, 0, 86, 0
2, 23378, Note_on_c, 0, 81, 80
2, 23381, Note_on_c, 0, 60, 0
2, 23381, Note_on_c, 0, 62, 0
2, 23381, Note_on_c, 0, 54, 0
2, 23381, Note_on_c, 0, 78, 0
2, 23381, Note_on_c, 0, 93, 0
2, 23405, Note_on_c, 0, 82, 80
2, 23405, Note_on_c, 0, 94, 80
2, 23432, Note_on_c, 0, 57, 80
2, 23435, Note_on_c, 0, 45, 80
2, 23435, Note_on_c, 0, 84, 80
2, 23435, Note_on_c, 0, 96, 80
2, 23438, Note_on_c, 0, 81, 0
2, 23452, Note_on_c, 0, 82, 0
2, 23452, Note_on_c, 0, 94, 0
2, 23481, Note_on_c, 0, 96, 0
2, 23484, Note_on_c, 0, 57, 0
2, 23484, Note_on_c, 0, 84, 0
2, 23484, Note_on_c, 0, 45, 0
2, 23494, Note_on_c, 0, 82, 80
2, 23494, Note_on_c, 0, 94, 80
2, 23549, Note_on_c, 0, 62, 80
2, 23552, Note_on_c, 0, 60, 80
2, 23555, Note_on_c, 0, 54, 80
2, 23555, Note_on_c, 0, 81, 80
2, 23555, Note_on_c, 0, 93, 80
2, 23558, Note_on_c, 0, 94, 0
2, 23558, Note_on_c, 0, 82, 0
2, 23616, Note_on_c, 0, 84, 80
2, 23616, Note_on_c, 0, 96, 80
2, 23619, Note_on_c, 0, 81, 0
2, 23619, Note_on_c, 0, 93, 0
2, 23622, Note_on_c, 0, 62, 0
2, 23622, Note_on_c, 0, 54, 0
2, 23622, Note_on_c, 0, 60, 0
2, 23676, Note_on_c, 0, 38, 80
2, 23676, Note_on_c, 0, 50, 80
2, 23693, Note_on_c, 0, 96, 0
2, 23693, Note_on_c, 0, 84, 0
2, 23732, Note_on_c, 0, 82, 80
2, 23732, Note_on_c, 0, 94, 80
2, 23736, Note_on_c, 0, 38, 0
2, 23736, Note_on_c, 0, 50, 0
2, 23780, Note_on_c, 0, 94, 0
2, 23787, Note_on_c, 0, 81, 80
2, 23787, Note_on_c, 0, 93, 80
2, 23792, Note_on_c, 0, 42, 80
2, 23792, Note_on_c, 0, 54, 80
2, 23795, Note_on_c, 0, 82, 0
2, 23836, Note_on_c, 0, 81, 0
2, 23836, Note_on_c, 0, 54, 0
2, 23836, Note_on_c, 0, 93, 0
2, 23839, Note_on_c, 0, 42, 0
2, 23912, Note_on_c, 0, 43, 80
2, 23912, Note_on_c, 0, 55, 80
2, 23912, Note_on_c, 0, 82, 80
2, 23912, Note_on_c, 0, 94, 80
2, 23958, Note_on_c, 0, 94, 0
2, 23976, Note_on_c, 0, 43, 0
2, 23976, Note_on_c, 0, 55, 0
2, 23976, Note_on_c, 0, 82, 0
2, 24029, Note_on_c, 0, 55, 80
2, 24029, Note_on_c, 0, 58, 80
2, 24029, Note_on_c, 0, 62, 80
2, 24032, Note_on_c, 0, 81, 80
2, 24032, Note_on_c, 0, 93, 80
2, 24088, Note_on_c, 0, 79, 80
2, 24088, Note_on_c, 0, 91, 80
2, 24091, Note_on_c, 0, 93, 0
2, 24091, Note_on_c, 0, 81, 0
2, 24094, Note_on_c, 0, 62, 0
2, 24094, Note_on_c, 0, 58, 0
2, 24111, Note_on_c, 0, 55, 0
2, 24147, Note_on_c, 0, 91, 0
2, 24150, Note_on_c, 0, 34, 80
2, 24204, Note_on_c, 0, 86, 80
2, 24207, Note_on_c, 0, 46, 80
2, 24212, Note_on_c, 0, 34, 0
2, 24263, Note_on_c, 0, 94, 80
2, 24265, Note_on_c, 0, 38, 80
2, 24268, Note_on_c, 0, 79, 0
2, 24268, Note_on_c, 0, 46, 0
2, 24268, Note_on_c, 0, 86, 0
2, 24310, Note_on_c, 0, 94, 0
2, 24312, Note_on_c, 0, 38, 0
2, 24317, Note_on_c, 0, 91, 80
2, 24320, Note_on_c, 0, 79, 80
2, 24323, Note_on_c, 0, 50, 80
2, 24350, Note_on_c, 0, 93, 80
2, 24353, Note_on_c, 0, 81, 80
2, 24367, Note_on_c, 0, 91, 0
2, 24370, Note_on_c, 0, 79, 0
2, 24380, Note_on_c, 0, 82, 80
2, 24380, Note_on_c, 0, 94, 80
2, 24383, Note_on_c, 0, 93, 0
2, 24383, Note_on_c, 0, 43, 80
2, 24385, Note_on_c, 0, 81, 0
2, 24385, Note_on_c, 0, 50, 0
2, 24436, Note_on_c, 0, 81, 80
2, 24436, Note_on_c, 0, 93, 80
2, 24439, Note_on_c, 0, 55, 80
2, 24442, Note_on_c, 0, 43, 0
2, 24442, Note_on_c, 0, 94, 0
2, 24445, Note_on_c, 0, 82, 0
2, 24457, Note_on_c, 0, 55, 0
2, 24494, Note_on_c, 0, 79, 80
2, 24494, Note_on_c, 0, 91, 80
2, 24497, Note_on_c, 0, 55, 80
2, 24497, Note_on_c, 0, 62, 80
2, 24500, Note_on_c, 0, 81, 0
2, 24500, Note_on_c, 0, 93, 0
2, 24500, Note_on_c, 0, 58, 80
2, 24553, Note_on_c, 0, 81, 80
2, 24553, Note_on_c, 0, 93, 80
2, 24556, Note_on_c, 0, 79, 0
2, 24556, Note_on_c, 0, 91, 0
2, 24556, Note_on_c, 0, 62, 0
2, 24559, Note_on_c, 0, 58, 0
2, 24574, Note_on_c, 0, 55, 0
2, 24607, Note_on_c, 0, 82, 80
2, 24607, Note_on_c, 0, 94, 80
2, 24610, Note_on_c, 0, 38, 80
2, 24610, Note_on_c, 0, 50, 80
2, 24613, Note_on_c, 0, 81, 0
2, 24613, Note_on_c, 0, 93, 0
2, 24656, Note_on_c, 0, 94, 0
2, 24666, Note_on_c, 0, 84, 80
2, 24666, Note_on_c, 0, 96, 80
2, 24671, Note_on_c, 0, 82, 0
2, 24671, Note_on_c, 0, 38, 0
2, 24671, Note_on_c, 0, 50, 0
2, 24724, Note_on_c, 0, 55, 80
2, 24724, Note_on_c, 0, 58, 80
2, 24724, Note_on_c, 0, 62, 80
2, 24727, Note_on_c, 0, 96, 0
2, 24730, Note_on_c, 0, 84, 0
2, 24786, Note_on_c, 0, 86, 80
2, 24786, Note_on_c, 0, 98, 80
2, 24789, Note_on_c, 0, 62, 0
2, 24789, Note_on_c, 0, 55, 0
2, 24792, Note_on_c, 0, 58, 0
2, 24833, Note_on_c, 0, 98, 0
2, 24847, Note_on_c, 0, 87, 80
2, 24847, Note_on_c, 0, 99, 80
2, 24850, Note_on_c, 0, 36, 80
2, 24850, Note_on_c, 0, 48, 80
2, 24853, Note_on_c, 0, 86, 0
2, 24896, Note_on_c, 0, 87, 0
2, 24896, Note_on_c, 0, 99, 0
2, 24899, Note_on_c, 0, 36, 0
2, 24928, Note_on_c, 0, 48, 0
2, 24964, Note_on_c, 0, 55, 80
2, 24964, Note_on_c, 0, 60, 80
2, 24964, Note_on_c, 0, 63, 80
2, 24964, Note_on_c, 0, 86, 80
2, 24964, Note_on_c, 0, 98, 80
2, 25025, Note_on_c, 0, 84, 80
2, 25025, Note_on_c, 0, 96, 80
2, 25028, Note_on_c, 0, 98, 0
2, 25042, Note_on_c, 0, 86, 0
2, 25042, Note_on_c, 0, 60, 0
2, 25045, Note_on_c, 0, 55, 0
2, 25045, Note_on_c, 0, 63, 0
2, 25083, Note_on_c, 0, 51, 80
2, 25086, Note_on_c, 0, 96, 0
2, 25086, Note_on_c, 0, 39, 80
2, 25142, Note_on_c, 0, 91, 80
2, 25150, Note_on_c, 0, 39, 0
2, 25164, Note_on_c, 0, 51, 0
2, 25193, Note_on_c, 0, 91, 0
2, 25205, Note_on_c, 0, 55, 80
2, 25205, Note_on_c, 0, 60, 80
2, 25205, Note_on_c, 0, 63, 80
2, 25205, Note_on_c, 0, 99, 80
2, 25224, Note_on_c, 0, 84, 0
2, 25263, Note_on_c, 0, 82, 80
2, 25263, Note_on_c, 0, 94, 80
2, 25268, Note_on_c, 0, 63, 0
2, 25268, Note_on_c, 0, 99, 0
2, 25268, Note_on_c, 0, 60, 0
2, 25285, Note_on_c, 0, 55, 0
2, 25295, Note_on_c, 0, 96, 80
2, 25297, Note_on_c, 0, 84, 80
2, 25312, Note_on_c, 0, 94, 0
2, 25324, Note_on_c, 0, 86, 80
2, 25324, Note_on_c, 0, 98, 80
2, 25327, Note_on_c, 0, 38, 80
2, 25327, Note_on_c, 0, 50, 80
2, 25330, Note_on_c, 0, 82, 0
2, 25344, Note_on_c, 0, 84, 0
2, 25344, Note_on_c, 0, 96, 0
2, 25383, Note_on_c, 0, 96, 80
2, 25388, Note_on_c, 0, 98, 0
2, 25391, Note_on_c, 0, 38, 0
2, 25398, Note_on_c, 0, 84, 80
2, 25403, Note_on_c, 0, 86, 0
2, 25406, Note_on_c, 0, 50, 0
2, 25444, Note_on_c, 0, 55, 80
2, 25444, Note_on_c, 0, 58, 80
2, 25444, Note_on_c, 0, 62, 80
2, 25444, Note_on_c, 0, 82, 80
2, 25444, Note_on_c, 0, 94, 80
2, 25447, Note_on_c, 0, 96, 0
2, 25447, Note_on_c, 0, 84, 0
2, 25493, Note_on_c, 0, 94, 0
2, 25503, Note_on_c, 0, 81, 80
2, 25503, Note_on_c, 0, 93, 80
2, 25508, Note_on_c, 0, 62, 0
2, 25508, Note_on_c, 0, 82, 0
2, 25508, Note_on_c, 0, 58, 0
2, 25508, Note_on_c, 0, 55, 0
2, 25566, Note_on_c, 0, 38, 80
2, 25566, Note_on_c, 0, 50, 80
2, 25581, Note_on_c, 0, 93, 0
2, 25581, Note_on_c, 0, 81, 0
2, 25622, Note_on_c, 0, 84, 80
2, 25622, Note_on_c, 0, 96, 80
2, 25630, Note_on_c, 0, 38, 0
2, 25632, Note_on_c, 0, 50, 0
2, 25679, Note_on_c, 0, 82, 80
2, 25679, Note_on_c, 0, 94, 80
2, 25681, Note_on_c, 0, 54, 80
2, 25681, Note_on_c, 0, 60, 80
2, 25681, Note_on_c, 0, 62, 80
2, 25684, Note_on_c, 0, 84, 0
2, 25684, Note_on_c, 0, 96, 0
2, 25740, Note_on_c, 0, 81, 80
2, 25740, Note_on_c, 0, 93, 80
2, 25743, Note_on_c, 0, 82, 0
2, 25743, Note_on_c, 0, 94, 0
2, 25743, Note_on_c, 0, 60, 0
2, 25746, Note_on_c, 0, 54, 0
2, 25746, Note_on_c, 0, 62, 0
2, 25797, Note_on_c, 0, 91, 80
2, 25800, Note_on_c, 0, 55, 80
2, 25800, Note_on_c, 0, 58, 80
2, 25800, Note_on_c, 0, 62, 80
2, 25800, Note_on_c, 0, 79, 80
2, 25804, Note_on_c, 0, 81, 0
2, 25804, Note_on_c, 0, 93, 0
2, 25846, Note_on_c, 0, 91, 0
2, 25848, Note_on_c, 0, 79, 0
2, 25914, Note_on_c, 0, 81, 80
2, 25914, Note_on_c, 0, 93, 80
2, 25963, Note_on_c, 0, 58, 0
2, 25972, Note_on_c, 0, 82, 80
2, 25975, Note_on_c, 0, 94, 80
2, 25978, Note_on_c, 0, 81, 0
2, 25978, Note_on_c, 0, 93, 0
2, 25978, Note_on_c, 0, 55, 0
2, 25978, Note_on_c, 0, 62, 0
2, 26032, Note_on_c, 0, 53, 80
2, 26032, Note_on_c, 0, 63, 80
2, 26032, Note_on_c, 0, 84, 80
2, 26032, Note_on_c, 0, 96, 80
2, 26035, Note_on_c, 0, 94, 0
2, 26035, Note_on_c, 0, 57, 80
2, 26038, Note_on_c, 0, 82, 0
2, 26093, Note_on_c, 0, 53, 0
2, 26093, Note_on_c, 0, 84, 0
2, 26093, Note_on_c, 0, 96, 0
2, 26147, Note_on_c, 0, 41, 80
2, 26147, Note_on_c, 0, 53, 80
2, 26201, Note_on_c, 0, 84, 80
2, 26201, Note_on_c, 0, 96, 80
2, 26206, Note_on_c, 0, 53, 0
2, 26206, Note_on_c, 0, 41, 0
2, 26206, Note_on_c, 0, 57, 0
2, 26206, Note_on_c, 0, 63, 0
2, 26228, Note_on_c, 0, 85, 80
2, 26228, Note_on_c, 0, 97, 80
2, 26256, Note_on_c, 0, 86, 80
2, 26256, Note_on_c, 0, 98, 80
2, 26259, Note_on_c, 0, 96, 0
2, 26262, Note_on_c, 0, 84, 0
2, 26262, Note_on_c, 0, 34, 80
2, 26291, Note_on_c, 0, 97, 0
2, 26294, Note_on_c, 0, 85, 0
2, 26306, Note_on_c, 0, 98, 0
2, 26309, Note_on_c, 0, 34, 0
2, 26322, Note_on_c, 0, 86, 0
2, 26322, Note_on_c, 0, 46, 80
2, 26382, Note_on_c, 0, 38, 80
2, 26385, Note_on_c, 0, 46, 0
2, 26441, Note_on_c, 0, 50, 80
2, 26446, Note_on_c, 0, 38, 0
2, 26501, Note_on_c, 0, 67, 80
2, 26501, Note_on_c, 0, 72, 80
2, 26504, Note_on_c, 0, 39, 80
2, 26507, Note_on_c, 0, 50, 0
2, 26566, Note_on_c, 0, 51, 80
2, 26566, Note_on_c, 0, 70, 80
2, 26566, Note_on_c, 0, 73, 80
2, 26568, Note_on_c, 0, 67, 0
2, 26571, Note_on_c, 0, 39, 0
2, 26586, Note_on_c, 0, 72, 0
2, 26624, Note_on_c, 0, 52, 80
2, 26627, Note_on_c, 0, 73, 0
2, 26627, Note_on_c, 0, 70, 0
2, 26627, Note_on_c, 0, 40, 80
2, 26644, Note_on_c, 0, 51, 0
2, 26676, Note_on_c, 0, 40, 0
2, 26684, Note_on_c, 0, 65, 80
2, 26684, Note_on_c, 0, 74, 80
2, 26687, Note_on_c, 0, 70, 80
2, 26745, Note_on_c, 0, 53, 80
2, 26748, Note_on_c, 0, 41, 80
2, 26751, Note_on_c, 0, 52, 0
2, 26807, Note_on_c, 0, 70, 0
2, 26807, Note_on_c, 0, 74, 0
2, 26809, Note_on_c, 0, 53, 0
2, 26812, Note_on_c, 0, 41, 0
2, 26825, Note_on_c, 0, 65, 0
2, 26861, Note_on_c, 0, 79, 80
2, 26866, Note_on_c, 0, 58, 80
2, 26866, Note_on_c, 0, 73, 80
2, 26925, Note_on_c, 0, 74, 80
2, 26925, Note_on_c, 0, 77, 80
2, 26928, Note_on_c, 0, 73, 0
2, 26928, Note_on_c, 0, 79, 0
2, 26928, Note_on_c, 0, 58, 0
2, 26978, Note_on_c, 0, 50, 80
2, 26981, Note_on_c, 0, 38, 80
2, 26984, Note_on_c, 0, 74, 0
2, 27013, Note_on_c, 0, 77, 0
2, 27037, Note_on_c, 0, 82, 80
2, 27040, Note_on_c, 0, 74, 80
2, 27045, Note_on_c, 0, 50, 0
2, 27045, Note_on_c, 0, 38, 0
2, 27096, Note_on_c, 0, 58, 80
2, 27096, Note_on_c, 0, 62, 80
2, 27098, Note_on_c, 0, 53, 80
2, 27157, Note_on_c, 0, 72, 80
2, 27157, Note_on_c, 0, 84, 80
2, 27160, Note_on_c, 0, 82, 0
2, 27163, Note_on_c, 0, 53, 0
2, 27163, Note_on_c, 0, 74, 0
2, 27163, Note_on_c, 0, 62, 0
2, 27163, Note_on_c, 0, 58, 0
2, 27185, Note_on_c, 0, 73, 80
2, 27185, Note_on_c, 0, 85, 80
2, 27214, Note_on_c, 0, 74, 80
2, 27214, Note_on_c, 0, 86, 80
2, 27218, Note_on_c, 0, 84, 0
2, 27218, Note_on_c, 0, 72, 0
2, 27218, Note_on_c, 0, 34, 80
2, 27233, Note_on_c, 0, 73, 0
2, 27262, Note_on_c, 0, 85, 0
2, 27274, Note_on_c, 0, 86, 0
2, 27274, Note_on_c, 0, 46, 80
2, 27277, Note_on_c, 0, 74, 0
2, 27277, Note_on_c, 0, 34, 0
2, 27333, Note_on_c, 0, 38, 80
2, 27336, Note_on_c, 0, 46, 0
2, 27379, Note_on_c, 0, 38, 0
2, 27384, Note_on_c, 0, 50, 80
2, 27439, Note_on_c, 0, 72, 80
2, 27442, Note_on_c, 0, 67, 80
2, 27445, Note_on_c, 0, 39, 80
2, 27448, Note_on_c, 0, 50, 0
2, 27499, Note_on_c, 0, 51, 80
2, 27499, Note_on_c, 0, 70, 80
2, 27499, Note_on_c, 0, 73, 80
2, 27502, Note_on_c, 0, 72, 0
2, 27502, Note_on_c, 0, 67, 0
2, 27504, Note_on_c, 0, 39, 0
2, 27555, Note_on_c, 0, 52, 80
2, 27558, Note_on_c, 0, 40, 80
2, 27573, Note_on_c, 0, 73, 0
2, 27576, Note_on_c, 0, 70, 0
2, 27576, Note_on_c, 0, 51, 0
2, 27614, Note_on_c, 0, 65, 80
2, 27614, Note_on_c, 0, 70, 80
2, 27614, Note_on_c, 0, 74, 80
2, 27622, Note_on_c, 0, 40, 0
2, 27671, Note_on_c, 0, 41, 80
2, 27671, Note_on_c, 0, 53, 80
2, 27673, Note_on_c, 0, 52, 0
2, 27715, Note_on_c, 0, 74, 0
2, 27715, Note_on_c, 0, 70, 0
2, 27715, Note_on_c, 0, 53, 0
2, 27732, Note_on_c, 0, 65, 0
2, 27744, Note_on_c, 0, 41, 0
2, 27783, Note_on_c, 0, 70, 80
2, 27839, Note_on_c, 0, 72, 80
2, 27846, Note_on_c, 0, 70, 0
2, 27900, Note_on_c, 0, 74, 80
2, 27908, Note_on_c, 0, 72, 0
2, 27961, Note_on_c, 0, 77, 80
2, 27966, Note_on_c, 0, 74, 0
2, 28022, Note_on_c, 0, 86, 80
2, 28025, Note_on_c, 0, 80, 80
2, 28025, Note_on_c, 0, 82, 80
2, 28025, Note_on_c, 0, 89, 80
2, 28028, Note_on_c, 0, 77, 0
2, 28086, Note_on_c, 0, 76, 80
2, 28089, Note_on_c, 0, 82, 0
2, 28089, Note_on_c, 0, 89, 0
2, 28089, Note_on_c, 0, 80, 0
2, 28099, Note_on_c, 0, 77, 80
2, 28104, Note_on_c, 0, 86, 0
2, 28113, Note_on_c, 0, 78, 80
2, 28132, Note_on_c, 0, 76, 0
2, 28140, Note_on_c, 0, 91, 80
2, 28143, Note_on_c, 0, 79, 80
2, 28143, Note_on_c, 0, 82, 80
2, 28143, Note_on_c, 0, 87, 80
2, 28146, Note_on_c, 0, 77, 0
2, 28177, Note_on_c, 0, 78, 0
2, 28190, Note_on_c, 0, 87, 0
2, 28200, Note_on_c, 0, 94, 80
2, 28207, Note_on_c, 0, 91, 0
2, 28207, Note_on_c, 0, 82, 0
2, 28248, Note_on_c, 0, 94, 0
2, 28258, Note_on_c, 0, 91, 80
2, 28261, Note_on_c, 0, 82, 80
2, 28261, Note_on_c, 0, 87, 80
2, 28304, Note_on_c, 0, 71, 80
2, 28323, Note_on_c, 0, 87, 0
2, 28323, Note_on_c, 0, 82, 0
2, 28323, Note_on_c, 0, 79, 0
2, 28323, Note_on_c, 0, 91, 0
2, 28336, Note_on_c, 0, 72, 80
2, 28350, Note_on_c, 0, 73, 80
2, 28355, Note_on_c, 0, 71, 0
2, 28379, Note_on_c, 0, 74, 80
2, 28379, Note_on_c, 0, 82, 80
2, 28379, Note_on_c, 0, 86, 80
2, 28382, Note_on_c, 0, 77, 80
2, 28387, Note_on_c, 0, 72, 0
2, 28399, Note_on_c, 0, 73, 0
2, 28438, Note_on_c, 0, 89, 80
2, 28440, Note_on_c, 0, 86, 0
2, 28440, Note_on_c, 0, 82, 0
2, 28443, Note_on_c, 0, 77, 0
2, 28494, Note_on_c, 0, 82, 80
2, 28497, Note_on_c, 0, 86, 80
2, 28500, Note_on_c, 0, 77, 80
2, 28503, Note_on_c, 0, 89, 0
2, 28561, Note_on_c, 0, 64, 80
2, 28564, Note_on_c, 0, 74, 0
2, 28564, Note_on_c, 0, 82, 0
2, 28577, Note_on_c, 0, 65, 80
2, 28580, Note_on_c, 0, 86, 0
2, 28580, Note_on_c, 0, 77, 0
2, 28592, Note_on_c, 0, 66, 80
2, 28611, Note_on_c, 0, 64, 0
2, 28621, Note_on_c, 0, 67, 80
2, 28621, Note_on_c, 0, 70, 80
2, 28621, Note_on_c, 0, 75, 80
2, 28621, Note_on_c, 0, 79, 80
2, 28638, Note_on_c, 0, 65, 0
2, 28656, Note_on_c, 0, 66, 0
2, 28682, Note_on_c, 0, 82, 80
2, 28685, Note_on_c, 0, 75, 0
2, 28685, Note_on_c, 0, 70, 0
2, 28685, Note_on_c, 0, 79, 0
2, 28728, Note_on_c, 0, 82, 0
2, 28743, Note_on_c, 0, 70, 80
2, 28743, Note_on_c, 0, 75, 80
2, 28743, Note_on_c, 0, 79, 80
2, 28808, Note_on_c, 0, 79, 0
2, 28808, Note_on_c, 0, 67, 0
2, 28808, Note_on_c, 0, 70, 0
2, 28808, Note_on_c, 0, 75, 0
2, 28808, Note_on_c, 0, 59, 80
2, 28821, Note_on_c, 0, 60, 80
2, 28835, Note_on_c, 0, 61, 80
2, 28840, Note_on_c, 0, 59, 0
2, 28864, Note_on_c, 0, 65, 80
2, 28864, Note_on_c, 0, 70, 80
2, 28864, Note_on_c, 0, 74, 80
2, 28867, Note_on_c, 0, 62, 80
2, 28870, Note_on_c, 0, 60, 0
2, 28898, Note_on_c, 0, 61, 0
2, 28911, Note_on_c, 0, 74, 0
2, 28914, Note_on_c, 0, 70, 0
2, 28923, Note_on_c, 0, 77, 80
2, 28931, Note_on_c, 0, 65, 0
2, 28977, Note_on_c, 0, 74, 80
2, 28980, Note_on_c, 0, 65, 80
2, 28980, Note_on_c, 0, 70, 80
2, 28985, Note_on_c, 0, 77, 0
2, 29043, Note_on_c, 0, 74, 0
2, 29046, Note_on_c, 0, 70, 0
2, 29049, Note_on_c, 0, 62, 0
2, 29062, Note_on_c, 0, 65, 0
2, 29098, Note_on_c, 0, 72, 80
2, 29101, Note_on_c, 0, 66, 80
2, 29104, Note_on_c, 0, 51, 80
2, 29107, Note_on_c, 0, 39, 80
2, 29162, Note_on_c, 0, 67, 80
2, 29162, Note_on_c, 0, 70, 80
2, 29165, Note_on_c, 0, 72, 0
2, 29168, Note_on_c, 0, 66, 0
2, 29171, Note_on_c, 0, 39, 0
2, 29185, Note_on_c, 0, 51, 0
2, 29227, Note_on_c, 0, 70, 0
2, 29227, Note_on_c, 0, 67, 0
2, 29227, Note_on_c, 0, 55, 80
2, 29227, Note_on_c, 0, 58, 80
2, 29227, Note_on_c, 0, 63, 80
2, 29273, Note_on_c, 0, 58, 0
2, 29285, Note_on_c, 0, 67, 80
2, 29285, Note_on_c, 0, 70, 80
2, 29288, Note_on_c, 0, 63, 0
2, 29288, Note_on_c, 0, 55, 0
2, 29344, Note_on_c, 0, 46, 80
2, 29347, Note_on_c, 0, 34, 80
2, 29405, Note_on_c, 0, 46, 0
2, 29408, Note_on_c, 0, 34, 0
2, 29447, Note_on_c, 0, 67, 0
2, 29447, Note_on_c, 0, 70, 0
2, 29461, Note_on_c, 0, 55, 80
2, 29461, Note_on_c, 0, 58, 80
2, 29461, Note_on_c, 0, 63, 80
2, 29524, Note_on_c, 0, 63, 0
2, 29524, Note_on_c, 0, 58, 0
2, 29537, Note_on_c, 0, 55, 0
2, 29575, Note_on_c, 0, 74, 80
2, 29578, Note_on_c, 0, 67, 80
2, 29581, Note_on_c, 0, 39, 80
2, 29581, Note_on_c, 0, 51, 80
2, 29635, Note_on_c, 0, 72, 80
2, 29640, Note_on_c, 0, 67, 0
2, 29640, Note_on_c, 0, 74, 0
2, 29642, Note_on_c, 0, 39, 0
2, 29655, Note_on_c, 0, 51, 0
2, 29693, Note_on_c, 0, 55, 80
2, 29693, Note_on_c, 0, 58, 80
2, 29693, Note_on_c, 0, 63, 80
2, 29725, Note_on_c, 0, 72, 0
2, 29749, Note_on_c, 0, 67, 80
2, 29749, Note_on_c, 0, 70, 80
2, 29757, Note_on_c, 0, 55, 0
2, 29757, Note_on_c, 0, 63, 0
2, 29757, Note_on_c, 0, 58, 0
2, 29806, Note_on_c, 0, 55, 80
2, 29810, Note_on_c, 0, 43, 80
2, 29825, Note_on_c, 0, 67, 0
2, 29825, Note_on_c, 0, 70, 0
2, 29866, Note_on_c, 0, 72, 80
2, 29869, Note_on_c, 0, 41, 80
2, 29869, Note_on_c, 0, 53, 80
2, 29872, Note_on_c, 0, 55, 0
2, 29875, Note_on_c, 0, 43, 0
2, 29926, Note_on_c, 0, 67, 80
2, 29930, Note_on_c, 0, 72, 0
2, 29930, Note_on_c, 0, 39, 80
2, 29930, Note_on_c, 0, 51, 80
2, 29933, Note_on_c, 0, 53, 0
2, 29933, Note_on_c, 0, 41, 0
2, 29989, Note_on_c, 0, 48, 80
2, 29992, Note_on_c, 0, 67, 0
2, 29992, Note_on_c, 0, 36, 80
2, 29995, Note_on_c, 0, 39, 0
2, 30007, Note_on_c, 0, 51, 0
2, 30046, Note_on_c, 0, 67, 80
2, 30048, Note_on_c, 0, 61, 80
2, 30051, Note_on_c, 0, 34, 80
2, 30051, Note_on_c, 0, 46, 80
2, 30054, Note_on_c, 0, 48, 0
2, 30054, Note_on_c, 0, 36, 0
2, 30103, Note_on_c, 0, 62, 80
2, 30103, Note_on_c, 0, 65, 80
2, 30111, Note_on_c, 0, 67, 0
2, 30111, Note_on_c, 0, 61, 0
2, 30111, Note_on_c, 0, 46, 0
2, 30114, Note_on_c, 0, 34, 0
2, 30165, Note_on_c, 0, 53, 80
2, 30165, Note_on_c, 0, 58, 80
2, 30168, Note_on_c, 0, 62, 0
2, 30211, Note_on_c, 0, 65, 0
2, 30218, Note_on_c, 0, 70, 80
2, 30221, Note_on_c, 0, 62, 80
2, 30229, Note_on_c, 0, 53, 0
2, 30229, Note_on_c, 0, 58, 0
2, 30285, Note_on_c, 0, 41, 80
2, 30345, Note_on_c, 0, 41, 0
2, 30399, Note_on_c, 0, 58, 80
2, 30402, Note_on_c, 0, 53, 80
2, 30448, Note_on_c, 0, 58, 0
2, 30453, Note_on_c, 0, 53, 0
2, 30521, Note_on_c, 0, 46, 80
2, 30524, Note_on_c, 0, 34, 80
2, 30536, Note_on_c, 0, 62, 0
2, 30575, Note_on_c, 0, 62, 80
2, 30577, Note_on_c, 0, 70, 0
2, 30580, Note_on_c, 0, 46, 0
2, 30583, Note_on_c, 0, 34, 0
2, 30632, Note_on_c, 0, 58, 80
2, 30632, Note_on_c, 0, 65, 80
2, 30635, Note_on_c, 0, 53, 80
2, 30638, Note_on_c, 0, 62, 0
2, 30692, Note_on_c, 0, 70, 80
2, 30696, Note_on_c, 0, 58, 0
2, 30696, Note_on_c, 0, 53, 0
2, 30709, Note_on_c, 0, 65, 0
2, 30747, Note_on_c, 0, 72, 80
2, 30750, Note_on_c, 0, 50, 80
2, 30753, Note_on_c, 0, 70, 0
2, 30753, Note_on_c, 0, 38, 80
2, 30804, Note_on_c, 0, 74, 80
2, 30812, Note_on_c, 0, 50, 0
2, 30815, Note_on_c, 0, 38, 0
2, 30824, Note_on_c, 0, 72, 0
2, 30863, Note_on_c, 0, 77, 80
2, 30865, Note_on_c, 0, 74, 0
2, 30865, Note_on_c, 0, 47, 80
2, 30868, Note_on_c, 0, 35, 80
2, 30907, Note_on_c, 0, 77, 0
2, 30910, Note_on_c, 0, 47, 0
2, 30912, Note_on_c, 0, 35, 0
2, 30976, Note_on_c, 0, 75, 80
2, 30976, Note_on_c, 0, 79, 80
2, 30979, Note_on_c, 0, 48, 80
2, 30979, Note_on_c, 0, 69, 80
2, 30982, Note_on_c, 0, 36, 80
2, 31032, Note_on_c, 0, 71, 80
2, 31035, Note_on_c, 0, 79, 0
2, 31035, Note_on_c, 0, 75, 0
2, 31038, Note_on_c, 0, 69, 0
2, 31041, Note_on_c, 0, 36, 0
2, 31041, Note_on_c, 0, 48, 0
2, 31092, Note_on_c, 0, 53, 80
2, 31092, Note_on_c, 0, 63, 80
2, 31092, Note_on_c, 0, 72, 80
2, 31095, Note_on_c, 0, 57, 80
2, 31098, Note_on_c, 0, 71, 0
2, 31144, Note_on_c, 0, 72, 0
2, 31144, Note_on_c, 0, 63, 0
2, 31147, Note_on_c, 0, 53, 0
2, 31147, Note_on_c, 0, 57, 0
2, 31154, Note_on_c, 0, 69, 80
2, 31154, Note_on_c, 0, 75, 80
2, 31154, Note_on_c, 0, 77, 80
2, 31215, Note_on_c, 0, 41, 80
2, 31215, Note_on_c, 0, 53, 80
2, 31266, Note_on_c, 0, 53, 0
2, 31283, Note_on_c, 0, 41, 0
2, 31337, Note_on_c, 0, 59, 80
2, 31340, Note_on_c, 0, 47, 80
2, 31386, Note_on_c, 0, 59, 0
2, 31389, Note_on_c, 0, 47, 0
2, 31459, Note_on_c, 0, 48, 80
2, 31459, Note_on_c, 0, 60, 80
2, 31502, Note_on_c, 0, 77, 0
2, 31505, Note_on_c, 0, 69, 0
2, 31505, Note_on_c, 0, 75, 0
2, 31534, Note_on_c, 0, 60, 0
2, 31536, Note_on_c, 0, 48, 0
2, 31575, Note_on_c, 0, 53, 80
2, 31575, Note_on_c, 0, 63, 80
2, 31575, Note_on_c, 0, 79, 80
2, 31580, Note_on_c, 0, 57, 80
2, 31633, Note_on_c, 0, 75, 80
2, 31633, Note_on_c, 0, 77, 80
2, 31636, Note_on_c, 0, 69, 80
2, 31639, Note_on_c, 0, 79, 0
2, 31642, Note_on_c, 0, 57, 0
2, 31642, Note_on_c, 0, 63, 0
2, 31645, Note_on_c, 0, 53, 0
2, 31699, Note_on_c, 0, 53, 80
2, 31702, Note_on_c, 0, 41, 80
2, 31716, Note_on_c, 0, 69, 0
2, 31716, Note_on_c, 0, 75, 0
2, 31716, Note_on_c, 0, 77, 0
2, 31757, Note_on_c, 0, 79, 80
2, 31765, Note_on_c, 0, 53, 0
2, 31768, Note_on_c, 0, 41, 0
2, 31806, Note_on_c, 0, 79, 0
2, 31819, Note_on_c, 0, 63, 80
2, 31819, Note_on_c, 0, 69, 80
2, 31819, Note_on_c, 0, 75, 80
2, 31819, Note_on_c, 0, 77, 80
2, 31822, Note_on_c, 0, 53, 80
2, 31822, Note_on_c, 0, 57, 80
2, 31875, Note_on_c, 0, 74, 80
2, 31878, Note_on_c, 0, 70, 80
2, 31881, Note_on_c, 0, 77, 0
2, 31881, Note_on_c, 0, 75, 0
2, 31884, Note_on_c, 0, 63, 0
2, 31884, Note_on_c, 0, 69, 0
2, 31887, Note_on_c, 0, 53, 0
2, 31887, Note_on_c, 0, 57, 0
2, 31938, Note_on_c, 0, 58, 80
2, 31938, Note_on_c, 0, 79, 80
2, 31943, Note_on_c, 0, 46, 80
2, 31986, Note_on_c, 0, 79, 0
2, 31998, Note_on_c, 0, 73, 80
2, 32001, Note_on_c, 0, 58, 0
2, 32001, Note_on_c, 0, 74, 0
2, 32001, Note_on_c, 0, 70, 0
2, 32004, Note_on_c, 0, 46, 0
2, 32055, Note_on_c, 0, 74, 80
2, 32058, Note_on_c, 0, 53, 80
2, 32058, Note_on_c, 0, 58, 80
2, 32058, Note_on_c, 0, 62, 80
2, 32061, Note_on_c, 0, 73, 0
2, 32075, Note_on_c, 0, 74, 0
2, 32113, Note_on_c, 0, 74, 80
2, 32116, Note_on_c, 0, 70, 80
2, 32116, Note_on_c, 0, 77, 80
2, 32121, Note_on_c, 0, 58, 0
2, 32121, Note_on_c, 0, 62, 0
2, 32124, Note_on_c, 0, 53, 0
2, 32175, Note_on_c, 0, 41, 80
2, 32175, Note_on_c, 0, 53, 80
2, 32221, Note_on_c, 0, 53, 0
2, 32238, Note_on_c, 0, 41, 0
2, 32289, Note_on_c, 0, 58, 80
2, 32289, Note_on_c, 0, 62, 80
2, 32292, Note_on_c, 0, 53, 80
2, 32338, Note_on_c, 0, 58, 0
2, 32352, Note_on_c, 0, 62, 0
2, 32355, Note_on_c, 0, 53, 0
2, 32382, Note_on_c, 0, 70, 0
2, 32382, Note_on_c, 0, 77, 0
2, 32385, Note_on_c, 0, 74, 0
2, 32412, Note_on_c, 0, 50, 80
2, 32415, Note_on_c, 0, 38, 80
2, 32469, Note_on_c, 0, 79, 80
2, 32472, Note_on_c, 0, 48, 80
2, 32474, Note_on_c, 0, 50, 0
2, 32474, Note_on_c, 0, 36, 80
2, 32477, Note_on_c, 0, 38, 0
2, 32516, Note_on_c, 0, 79, 0
2, 32528, Note_on_c, 0, 68, 80
2, 32528, Note_on_c, 0, 74, 80
2, 32528, Note_on_c, 0, 77, 80
2, 32531, Note_on_c, 0, 47, 80
2, 32534, Note_on_c, 0, 35, 80
2, 32537, Note_on_c, 0, 48, 0
2, 32537, Note_on_c, 0, 36, 0
2, 32586, Note_on_c, 0, 75, 80
2, 32589, Note_on_c, 0, 69, 80
2, 32592, Note_on_c, 0, 74, 0
2, 32592, Note_on_c, 0, 77, 0
2, 32594, Note_on_c, 0, 68, 0
2, 32597, Note_on_c, 0, 47, 0
2, 32600, Note_on_c, 0, 35, 0
2, 32651, Note_on_c, 0, 48, 80
2, 32654, Note_on_c, 0, 36, 80
2, 32697, Note_on_c, 0, 75, 0
2, 32707, Note_on_c, 0, 77, 80
2, 32712, Note_on_c, 0, 69, 0
2, 32714, Note_on_c, 0, 36, 0
2, 32714, Note_on_c, 0, 48, 0
2, 32758, Note_on_c, 0, 77, 0
2, 32762, Note_on_c, 0, 75, 80
2, 32765, Note_on_c, 0, 69, 80
2, 32768, Note_on_c, 0, 53, 80
2, 32768, Note_on_c, 0, 57, 80
2, 32768, Note_on_c, 0, 63, 80
2, 32827, Note_on_c, 0, 72, 80
2, 32827, Note_on_c, 0, 84, 80
2, 32832, Note_on_c, 0, 63, 0
2, 32832, Note_on_c, 0, 69, 0
2, 32832, Note_on_c, 0, 75, 0
2, 32834, Note_on_c, 0, 57, 0
2, 32834, Note_on_c, 0, 53, 0
2, 32856, Note_on_c, 0, 73, 80
2, 32856, Note_on_c, 0, 85, 80
2, 32880, Note_on_c, 0, 86, 80
2, 32883, Note_on_c, 0, 74, 80
2, 32888, Note_on_c, 0, 72, 0
2, 32888, Note_on_c, 0, 84, 0
2, 32888, Note_on_c, 0, 34, 80
2, 32915, Note_on_c, 0, 85, 0
2, 32920, Note_on_c, 0, 73, 0
2, 32929, Note_on_c, 0, 74, 0
2, 32937, Note_on_c, 0, 34, 0
2, 32945, Note_on_c, 0, 86, 0
2, 32948, Note_on_c, 0, 46, 80
2, 32994, Note_on_c, 0, 46, 0
2, 33006, Note_on_c, 0, 38, 80
2, 33065, Note_on_c, 0, 50, 80
2, 33070, Note_on_c, 0, 38, 0
2, 33120, Note_on_c, 0, 72, 80
2, 33123, Note_on_c, 0, 67, 80
2, 33126, Note_on_c, 0, 50, 0
2, 33126, Note_on_c, 0, 39, 80
2, 33182, Note_on_c, 0, 70, 80
2, 33182, Note_on_c, 0, 73, 80
2, 33185, Note_on_c, 0, 51, 80
2, 33188, Note_on_c, 0, 39, 0
2, 33188, Note_on_c, 0, 72, 0
2, 33188, Note_on_c, 0, 67, 0
2, 33241, Note_on_c, 0, 52, 80
2, 33244, Note_on_c, 0, 70, 0
2, 33244, Note_on_c, 0, 40, 80
2, 33259, Note_on_c, 0, 73, 0
2, 33262, Note_on_c, 0, 51, 0
2, 33293, Note_on_c, 0, 40, 0
2, 33296, Note_on_c, 0, 74, 80
2, 33299, Note_on_c, 0, 65, 80
2, 33299, Note_on_c, 0, 70, 80
2, 33358, Note_on_c, 0, 53, 80
2, 33360, Note_on_c, 0, 41, 80
2, 33363, Note_on_c, 0, 52, 0
2, 33417, Note_on_c, 0, 74, 0
2, 33420, Note_on_c, 0, 53, 0
2, 33420, Note_on_c, 0, 70, 0
2, 33423, Note_on_c, 0, 41, 0
2, 33432, Note_on_c, 0, 65, 0
2, 33474, Note_on_c, 0, 73, 80
2, 33474, Note_on_c, 0, 79, 80
2, 33477, Note_on_c, 0, 58, 80
2, 33526, Note_on_c, 0, 74, 80
2, 33526, Note_on_c, 0, 77, 80
2, 33533, Note_on_c, 0, 79, 0
2, 33533, Note_on_c, 0, 73, 0
2, 33536, Note_on_c, 0, 58, 0
2, 33592, Note_on_c, 0, 50, 80
2, 33595, Note_on_c, 0, 38, 80
2, 33607, Note_on_c, 0, 74, 0
2, 33644, Note_on_c, 0, 74, 80
2, 33647, Note_on_c, 0, 82, 80
2, 33651, Note_on_c, 0, 77, 0
2, 33654, Note_on_c, 0, 50, 0
2, 33657, Note_on_c, 0, 38, 0
2, 33708, Note_on_c, 0, 53, 80
2, 33708, Note_on_c, 0, 62, 80
2, 33711, Note_on_c, 0, 58, 80
2, 33754, Note_on_c, 0, 58, 0
2, 33759, Note_on_c, 0, 84, 80
2, 33762, Note_on_c, 0, 72, 80
2, 33765, Note_on_c, 0, 74, 0
2, 33765, Note_on_c, 0, 82, 0
2, 33768, Note_on_c, 0, 62, 0
2, 33768, Note_on_c, 0, 53, 0
2, 33794, Note_on_c, 0, 73, 80
2, 33794, Note_on_c, 0, 85, 80
2, 33821, Note_on_c, 0, 86, 80
2, 33824, Note_on_c, 0, 74, 80
2, 33829, Note_on_c, 0, 34, 80
2, 33839, Note_on_c, 0, 84, 0
2, 33841, Note_on_c, 0, 72, 0
2, 33854, Note_on_c, 0, 85, 0
2, 33857, Note_on_c, 0, 73, 0
2, 33884, Note_on_c, 0, 86, 0
2, 33884, Note_on_c, 0, 46, 80
2, 33887, Note_on_c, 0, 74, 0
2, 33891, Note_on_c, 0, 34, 0
2, 33947, Note_on_c, 0, 38, 80
2, 33952, Note_on_c, 0, 46, 0
2, 34006, Note_on_c, 0, 50, 80
2, 34013, Note_on_c, 0, 38, 0
2, 34062, Note_on_c, 0, 72, 80
2, 34065, Note_on_c, 0, 67, 80
2, 34068, Note_on_c, 0, 39, 80
2, 34071, Note_on_c, 0, 50, 0
2, 34117, Note_on_c, 0, 73, 80
2, 34120, Note_on_c, 0, 70, 80
2, 34123, Note_on_c, 0, 51, 80
2, 34128, Note_on_c, 0, 72, 0
2, 34128, Note_on_c, 0, 67, 0
2, 34130, Note_on_c, 0, 39, 0
2, 34179, Note_on_c, 0, 52, 80
2, 34182, Note_on_c, 0, 73, 0
2, 34182, Note_on_c, 0, 40, 80
2, 34185, Note_on_c, 0, 70, 0
2, 34200, Note_on_c, 0, 51, 0
2, 34233, Note_on_c, 0, 74, 80
2, 34238, Note_on_c, 0, 65, 80
2, 34238, Note_on_c, 0, 70, 80
2, 34246, Note_on_c, 0, 40, 0
2, 34296, Note_on_c, 0, 41, 80
2, 34296, Note_on_c, 0, 53, 80
2, 34299, Note_on_c, 0, 52, 0
2, 34345, Note_on_c, 0, 74, 0
2, 34345, Note_on_c, 0, 70, 0
2, 34345, Note_on_c, 0, 53, 0
2, 34348, Note_on_c, 0, 41, 0
2, 34361, Note_on_c, 0, 65, 0
2, 34416, Note_on_c, 0, 70, 80
2, 34477, Note_on_c, 0, 72, 80
2, 34482, Note_on_c, 0, 70, 0
2, 34536, Note_on_c, 0, 74, 80
2, 34555, Note_on_c, 0, 72, 0
2, 34598, Note_on_c, 0, 77, 80
2, 34615, Note_on_c, 0, 74, 0
2, 34654, Note_on_c, 0, 86, 80
2, 34656, Note_on_c, 0, 80, 80
2, 34656, Note_on_c, 0, 82, 80
2, 34656, Note_on_c, 0, 89, 80
2, 34676, Note_on_c, 0, 77, 0
2, 34714, Note_on_c, 0, 76, 80
2, 34717, Note_on_c, 0, 82, 0
2, 34717, Note_on_c, 0, 89, 0
2, 34717, Note_on_c, 0, 86, 0
2, 34717, Note_on_c, 0, 80, 0
2, 34729, Note_on_c, 0, 77, 80
2, 34744, Note_on_c, 0, 78, 80
2, 34749, Note_on_c, 0, 76, 0
2, 34773, Note_on_c, 0, 79, 80
2, 34773, Note_on_c, 0, 82, 80
2, 34773, Note_on_c, 0, 87, 80
2, 34773, Note_on_c, 0, 91, 80
2, 34777, Note_on_c, 0, 77, 0
2, 34809, Note_on_c, 0, 78, 0
2, 34822, Note_on_c, 0, 91, 0
2, 34824, Note_on_c, 0, 82, 0
2, 34824, Note_on_c, 0, 87, 0
2, 34832, Note_on_c, 0, 94, 80
2, 34893, Note_on_c, 0, 82, 80
2, 34893, Note_on_c, 0, 87, 80
2, 34893, Note_on_c, 0, 91, 80
2, 34897, Note_on_c, 0, 94, 0
2, 34953, Note_on_c, 0, 71, 80
2, 34956, Note_on_c, 0, 87, 0
2, 34956, Note_on_c, 0, 91, 0
2, 34956, Note_on_c, 0, 79, 0
2, 34956, Note_on_c, 0, 82, 0
2, 34966, Note_on_c, 0, 72, 80
2, 34983, Note_on_c, 0, 73, 80
2, 34986, Note_on_c, 0, 71, 0
2, 35010, Note_on_c, 0, 82, 80
2, 35010, Note_on_c, 0, 86, 80
2, 35013, Note_on_c, 0, 74, 80
2, 35013, Note_on_c, 0, 77, 80
2, 35017, Note_on_c, 0, 72, 0
2, 35032, Note_on_c, 0, 73, 0
2, 35070, Note_on_c, 0, 89, 80
2, 35073, Note_on_c, 0, 82, 0
2, 35073, Note_on_c, 0, 86, 0
2, 35073, Note_on_c, 0, 77, 0
2, 35129, Note_on_c, 0, 77, 80
2, 35129, Note_on_c, 0, 82, 80
2, 35129, Note_on_c, 0, 86, 80
2, 35134, Note_on_c, 0, 89, 0
2, 35189, Note_on_c, 0, 82, 0
2, 35189, Note_on_c, 0, 74, 0
2, 35189, Note_on_c, 0, 64, 80
2, 35192, Note_on_c, 0, 77, 0
2, 35205, Note_on_c, 0, 65, 80
2, 35208, Note_on_c, 0, 86, 0
2, 35220, Note_on_c, 0, 66, 80
2, 35225, Note_on_c, 0, 64, 0
2, 35249, Note_on_c, 0, 75, 80
2, 35249, Note_on_c, 0, 79, 80
2, 35252, Note_on_c, 0, 67, 80
2, 35252, Note_on_c, 0, 70, 80
2, 35269, Note_on_c, 0, 65, 0
2, 35283, Note_on_c, 0, 66, 0
2, 35307, Note_on_c, 0, 82, 80
2, 35312, Note_on_c, 0, 79, 0
2, 35315, Note_on_c, 0, 75, 0
2, 35315, Note_on_c, 0, 70, 0
2, 35356, Note_on_c, 0, 82, 0
2, 35369, Note_on_c, 0, 70, 80
2, 35369, Note_on_c, 0, 75, 80
2, 35369, Note_on_c, 0, 79, 80
2, 35427, Note_on_c, 0, 59, 80
2, 35432, Note_on_c, 0, 79, 0
2, 35432, Note_on_c, 0, 75, 0
2, 35432, Note_on_c, 0, 67, 0
2, 35432, Note_on_c, 0, 70, 0
2, 35445, Note_on_c, 0, 60, 80
2, 35459, Note_on_c, 0, 61, 80
2, 35464, Note_on_c, 0, 59, 0
2, 35483, Note_on_c, 0, 70, 80
2, 35483, Note_on_c, 0, 74, 80
2, 35486, Note_on_c, 0, 62, 80
2, 35486, Note_on_c, 0, 65, 80
2, 35491, Note_on_c, 0, 60, 0
2, 35518, Note_on_c, 0, 61, 0
2, 35532, Note_on_c, 0, 74, 0
2, 35544, Note_on_c, 0, 77, 80
2, 35547, Note_on_c, 0, 70, 0
2, 35565, Note_on_c, 0, 65, 0
2, 35606, Note_on_c, 0, 70, 80
2, 35606, Note_on_c, 0, 74, 80
2, 35609, Note_on_c, 0, 65, 80
2, 35612, Note_on_c, 0, 77, 0
2, 35667, Note_on_c, 0, 74, 0
2, 35667, Note_on_c, 0, 70, 0
2, 35670, Note_on_c, 0, 62, 0
2, 35685, Note_on_c, 0, 65, 0
2, 35726, Note_on_c, 0, 58, 80
2, 35729, Note_on_c, 0, 43, 80
2, 35784, Note_on_c, 0, 60, 80
2, 35789, Note_on_c, 0, 58, 0
2, 35792, Note_on_c, 0, 43, 0
2, 35802, Note_on_c, 0, 45, 80
2, 35880, Note_on_c, 0, 45, 0
2, 35899, Note_on_c, 0, 62, 80
2, 35902, Note_on_c, 0, 46, 80
2, 35904, Note_on_c, 0, 60, 0
2, 35948, Note_on_c, 0, 62, 0
2, 36021, Note_on_c, 0, 48, 80
2, 36021, Note_on_c, 0, 60, 80
2, 36025, Note_on_c, 0, 46, 0
2, 36076, Note_on_c, 0, 50, 80
2, 36076, Note_on_c, 0, 58, 80
2, 36079, Note_on_c, 0, 60, 0
2, 36082, Note_on_c, 0, 48, 0
2, 36125, Note_on_c, 0, 50, 0
2, 36125, Note_on_c, 0, 58, 0
2, 36189, Note_on_c, 0, 74, 80
2, 36193, Note_on_c, 0, 58, 80
2, 36240, Note_on_c, 0, 58, 0
2, 36240, Note_on_c, 0, 74, 0
2, 36249, Note_on_c, 0, 72, 80
2, 36254, Note_on_c, 0, 57, 80
2, 36346, Note_on_c, 0, 57, 0
2, 36346, Note_on_c, 0, 72, 0
2, 36368, Note_on_c, 0, 70, 80
2, 36371, Note_on_c, 0, 55, 80
2, 36446, Note_on_c, 0, 70, 0
2, 36463, Note_on_c, 0, 55, 0
2, 36482, Note_on_c, 0, 69, 80
2, 36487, Note_on_c, 0, 53, 80
2, 36543, Note_on_c, 0, 58, 80
2, 36543, Note_on_c, 0, 61, 80
2, 36543, Note_on_c, 0, 67, 80
2, 36546, Note_on_c, 0, 52, 80
2, 36549, Note_on_c, 0, 53, 0
2, 36549, Note_on_c, 0, 69, 0
2, 36600, Note_on_c, 0, 70, 80
2, 36602, Note_on_c, 0, 67, 0
2, 36602, Note_on_c, 0, 61, 0
2, 36605, Note_on_c, 0, 58, 0
2, 36620, Note_on_c, 0, 52, 0
2, 36624, Note_on_c, 0, 74, 80
2, 36656, Note_on_c, 0, 79, 80
2, 36659, Note_on_c, 0, 53, 80
2, 36662, Note_on_c, 0, 41, 80
2, 36718, Note_on_c, 0, 77, 80
2, 36720, Note_on_c, 0, 41, 0
2, 36720, Note_on_c, 0, 53, 0
2, 36720, Note_on_c, 0, 79, 0
2, 36720, Note_on_c, 0, 70, 0
2, 36720, Note_on_c, 0, 74, 0
2, 36774, Note_on_c, 0, 62, 80
2, 36774, Note_on_c, 0, 74, 80
2, 36777, Note_on_c, 0, 53, 80
2, 36777, Note_on_c, 0, 58, 80
2, 36777, Note_on_c, 0, 70, 80
2, 36780, Note_on_c, 0, 77, 0
2, 36821, Note_on_c, 0, 74, 0
2, 36824, Note_on_c, 0, 53, 0
2, 36824, Note_on_c, 0, 58, 0
2, 36832, Note_on_c, 0, 75, 80
2, 36835, Note_on_c, 0, 69, 80
2, 36840, Note_on_c, 0, 70, 0
2, 36840, Note_on_c, 0, 62, 0
2, 36895, Note_on_c, 0, 41, 80
2, 36895, Note_on_c, 0, 53, 80
2, 36910, Note_on_c, 0, 75, 0
2, 36912, Note_on_c, 0, 69, 0
2, 36949, Note_on_c, 0, 77, 80
2, 36957, Note_on_c, 0, 41, 0
2, 36957, Note_on_c, 0, 53, 0
2, 37000, Note_on_c, 0, 77, 0
2, 37009, Note_on_c, 0, 67, 80
2, 37012, Note_on_c, 0, 53, 80
2, 37012, Note_on_c, 0, 57, 80
2, 37012, Note_on_c, 0, 63, 80
2, 37071, Note_on_c, 0, 69, 80
2, 37076, Note_on_c, 0, 63, 0
2, 37076, Note_on_c, 0, 57, 0
2, 37076, Note_on_c, 0, 67, 0
2, 37076, Note_on_c, 0, 53, 0
2, 37129, Note_on_c, 0, 70, 80
2, 37132, Note_on_c, 0, 46, 80
2, 37132, Note_on_c, 0, 58, 80
2, 37135, Note_on_c, 0, 69, 0
2, 37194, Note_on_c, 0, 70, 0
2, 37194, Note_on_c, 0, 58, 0
2, 37197, Note_on_c, 0, 46, 0
2, 37248, Note_on_c, 0, 58, 80
2, 37248, Note_on_c, 0, 65, 80
2, 37250, Note_on_c, 0, 53, 80
2, 37250, Note_on_c, 0, 62, 80
2, 37304, Note_on_c, 0, 74, 80
2, 37304, Note_on_c, 0, 77, 80
2, 37309, Note_on_c, 0, 62, 0
2, 37309, Note_on_c, 0, 58, 0
2, 37312, Note_on_c, 0, 53, 0
2, 37324, Note_on_c, 0, 65, 0
2, 37363, Note_on_c, 0, 41, 80
2, 37363, Note_on_c, 0, 53, 80
2, 37392, Note_on_c, 0, 74, 0
2, 37392, Note_on_c, 0, 77, 0
2, 37418, Note_on_c, 0, 65, 80
2, 37423, Note_on_c, 0, 53, 0
2, 37438, Note_on_c, 0, 41, 0
2, 37474, Note_on_c, 0, 57, 80
2, 37474, Note_on_c, 0, 63, 80
2, 37474, Note_on_c, 0, 72, 80
2, 37474, Note_on_c, 0, 75, 80
2, 37477, Note_on_c, 0, 53, 80
2, 37496, Note_on_c, 0, 65, 0
2, 37533, Note_on_c, 0, 84, 80
2, 37533, Note_on_c, 0, 96, 80
2, 37537, Note_on_c, 0, 75, 0
2, 37552, Note_on_c, 0, 63, 0
2, 37552, Note_on_c, 0, 57, 0
2, 37552, Note_on_c, 0, 72, 0
2, 37552, Note_on_c, 0, 53, 0
2, 37561, Note_on_c, 0, 97, 80
2, 37564, Note_on_c, 0, 85, 80
2, 37593, Note_on_c, 0, 86, 80
2, 37593, Note_on_c, 0, 98, 80
2, 37596, Note_on_c, 0, 96, 0
2, 37596, Note_on_c, 0, 34, 80
2, 37599, Note_on_c, 0, 84, 0
2, 37626, Note_on_c, 0, 85, 0
2, 37626, Note_on_c, 0, 97, 0
2, 37653, Note_on_c, 0, 46, 80
2, 37656, Note_on_c, 0, 98, 0
2, 37656, Note_on_c, 0, 34, 0
2, 37656, Note_on_c, 0, 86, 0
2, 37714, Note_on_c, 0, 38, 80
2, 37719, Note_on_c, 0, 46, 0
2, 37770, Note_on_c, 0, 50, 80
2, 37777, Note_on_c, 0, 38, 0
2, 37831, Note_on_c, 0, 67, 80
2, 37831, Note_on_c, 0, 72, 80
2, 37834, Note_on_c, 0, 39, 80
2, 37837, Note_on_c, 0, 50, 0
2, 37893, Note_on_c, 0, 51, 80
2, 37893, Note_on_c, 0, 70, 80
2, 37893, Note_on_c, 0, 73, 80
2, 37897, Note_on_c, 0, 67, 0
2, 37897, Note_on_c, 0, 39, 0
2, 37900, Note_on_c, 0, 72, 0
2, 37951, Note_on_c, 0, 40, 80
2, 37951, Note_on_c, 0, 52, 80
2, 37954, Note_on_c, 0, 73, 0
2, 37957, Note_on_c, 0, 70, 0
2, 37974, Note_on_c, 0, 51, 0
2, 38008, Note_on_c, 0, 74, 80
2, 38011, Note_on_c, 0, 65, 80
2, 38011, Note_on_c, 0, 70, 80
2, 38016, Note_on_c, 0, 40, 0
2, 38069, Note_on_c, 0, 41, 80
2, 38069, Note_on_c, 0, 53, 80
2, 38072, Note_on_c, 0, 52, 0
2, 38131, Note_on_c, 0, 41, 0
2, 38131, Note_on_c, 0, 70, 0
2, 38131, Note_on_c, 0, 53, 0
2, 38134, Note_on_c, 0, 74, 0
2, 38146, Note_on_c, 0, 65, 0
2, 38187, Note_on_c, 0, 58, 80
2, 38187, Note_on_c, 0, 73, 80
2, 38187, Note_on_c, 0, 79, 80
2, 38233, Note_on_c, 0, 79, 0
2, 38236, Note_on_c, 0, 73, 0
2, 38236, Note_on_c, 0, 58, 0
2, 38246, Note_on_c, 0, 74, 80
2, 38246, Note_on_c, 0, 77, 80
2, 38306, Note_on_c, 0, 50, 80
2, 38321, Note_on_c, 0, 38, 80
2, 38324, Note_on_c, 0, 74, 0
2, 38327, Note_on_c, 0, 77, 0
2, 38368, Note_on_c, 0, 74, 80
2, 38368, Note_on_c, 0, 82, 80
2, 38371, Note_on_c, 0, 50, 0
2, 38374, Note_on_c, 0, 38, 0
2, 38427, Note_on_c, 0, 53, 80
2, 38427, Note_on_c, 0, 58, 80
2, 38427, Note_on_c, 0, 62, 80
2, 38486, Note_on_c, 0, 72, 80
2, 38486, Note_on_c, 0, 84, 80
2, 38489, Note_on_c, 0, 82, 0
2, 38492, Note_on_c, 0, 62, 0
2, 38492, Note_on_c, 0, 74, 0
2, 38492, Note_on_c, 0, 58, 0
2, 38492, Note_on_c, 0, 53, 0
2, 38516, Note_on_c, 0, 73, 80
2, 38516, Note_on_c, 0, 85, 80
2, 38543, Note_on_c, 0, 74, 80
2, 38543, Note_on_c, 0, 86, 80
2, 38545, Note_on_c, 0, 34, 80
2, 38548, Note_on_c, 0, 84, 0
2, 38551, Note_on_c, 0, 72, 0
2, 38580, Note_on_c, 0, 85, 0
2, 38580, Note_on_c, 0, 73, 0
2, 38594, Note_on_c, 0, 34, 0
2, 38594, Note_on_c, 0, 74, 0
2, 38607, Note_on_c, 0, 46, 80
2, 38610, Note_on_c, 0, 86, 0
2, 38656, Note_on_c, 0, 46, 0
2, 38664, Note_on_c, 0, 38, 80
2, 38724, Note_on_c, 0, 50, 80
2, 38727, Note_on_c, 0, 38, 0
2, 38781, Note_on_c, 0, 67, 80
2, 38781, Note_on_c, 0, 72, 80
2, 38784, Note_on_c, 0, 39, 80
2, 38786, Note_on_c, 0, 50, 0
2, 38842, Note_on_c, 0, 51, 80
2, 38842, Note_on_c, 0, 70, 80
2, 38842, Note_on_c, 0, 73, 80
2, 38847, Note_on_c, 0, 67, 0
2, 38847, Note_on_c, 0, 39, 0
2, 38847, Note_on_c, 0, 72, 0
2, 38898, Note_on_c, 0, 40, 80
2, 38898, Note_on_c, 0, 52, 80
2, 38917, Note_on_c, 0, 51, 0
2, 38917, Note_on_c, 0, 73, 0
2, 38917, Note_on_c, 0, 70, 0
2, 38955, Note_on_c, 0, 65, 80
2, 38955, Note_on_c, 0, 70, 80
2, 38955, Note_on_c, 0, 74, 80
2, 38960, Note_on_c, 0, 40, 0
2, 39014, Note_on_c, 0, 41, 80
2, 39014, Note_on_c, 0, 53, 80
2, 39019, Note_on_c, 0, 52, 0
2, 39074, Note_on_c, 0, 41, 0
2, 39074, Note_on_c, 0, 74, 0
2, 39074, Note_on_c, 0, 70, 0
2, 39074, Note_on_c, 0, 53, 0
2, 39092, Note_on_c, 0, 65, 0
2, 39130, Note_on_c, 0, 70, 80
2, 39189, Note_on_c, 0, 72, 80
2, 39196, Note_on_c, 0, 70, 0
2, 39247, Note_on_c, 0, 74, 80
2, 39257, Note_on_c, 0, 72, 0
2, 39312, Note_on_c, 0, 77, 80
2, 39320, Note_on_c, 0, 74, 0
2, 39371, Note_on_c, 0, 82, 80
2, 39374, Note_on_c, 0, 80, 80
2, 39374, Note_on_c, 0, 86, 80
2, 39374, Note_on_c, 0, 89, 80
2, 39377, Note_on_c, 0, 77, 0
2, 39431, Note_on_c, 0, 76, 80
2, 39433, Note_on_c, 0, 86, 0
2, 39433, Note_on_c, 0, 89, 0
2, 39433, Note_on_c, 0, 82, 0
2, 39433, Note_on_c, 0, 80, 0
2, 39443, Note_on_c, 0, 77, 80
2, 39460, Note_on_c, 0, 78, 80
2, 39463, Note_on_c, 0, 76, 0
2, 39490, Note_on_c, 0, 79, 80
2, 39490, Note_on_c, 0, 82, 80
2, 39490, Note_on_c, 0, 87, 80
2, 39490, Note_on_c, 0, 91, 80
2, 39493, Note_on_c, 0, 77, 0
2, 39525, Note_on_c, 0, 78, 0
2, 39539, Note_on_c, 0, 87, 0
2, 39549, Note_on_c, 0, 94, 80
2, 39553, Note_on_c, 0, 82, 0
2, 39553, Note_on_c, 0, 91, 0
2, 39607, Note_on_c, 0, 82, 80
2, 39610, Note_on_c, 0, 91, 80
2, 39613, Note_on_c, 0, 87, 80
2, 39616, Note_on_c, 0, 94, 0
2, 39670, Note_on_c, 0, 71, 80
2, 39672, Note_on_c, 0, 91, 0
2, 39672, Note_on_c, 0, 87, 0
2, 39672, Note_on_c, 0, 79, 0
2, 39672, Note_on_c, 0, 82, 0
2, 39682, Note_on_c, 0, 72, 80
2, 39695, Note_on_c, 0, 73, 80
2, 39702, Note_on_c, 0, 71, 0
2, 39724, Note_on_c, 0, 74, 80
2, 39724, Note_on_c, 0, 86, 80
2, 39727, Note_on_c, 0, 77, 80
2, 39727, Note_on_c, 0, 82, 80
2, 39732, Note_on_c, 0, 72, 0
2, 39744, Note_on_c, 0, 73, 0
2, 39783, Note_on_c, 0, 89, 80
2, 39788, Note_on_c, 0, 77, 0
2, 39788, Note_on_c, 0, 86, 0
2, 39788, Note_on_c, 0, 82, 0
2, 39841, Note_on_c, 0, 77, 80
2, 39841, Note_on_c, 0, 82, 80
2, 39841, Note_on_c, 0, 86, 80
2, 39844, Note_on_c, 0, 89, 0
2, 39900, Note_on_c, 0, 74, 0
2, 39900, Note_on_c, 0, 64, 80
2, 39903, Note_on_c, 0, 82, 0
2, 39912, Note_on_c, 0, 65, 80
2, 39917, Note_on_c, 0, 86, 0
2, 39917, Note_on_c, 0, 77, 0
2, 39927, Note_on_c, 0, 66, 80
2, 39946, Note_on_c, 0, 64, 0
2, 39954, Note_on_c, 0, 67, 80
2, 39959, Note_on_c, 0, 70, 80
2, 39959, Note_on_c, 0, 75, 80
2, 39959, Note_on_c, 0, 79, 80
2, 39973, Note_on_c, 0, 65, 0
2, 39987, Note_on_c, 0, 66, 0
2, 40014, Note_on_c, 0, 82, 80
2, 40017, Note_on_c, 0, 75, 0
2, 40017, Note_on_c, 0, 70, 0
2, 40017, Note_on_c, 0, 79, 0
2, 40068, Note_on_c, 0, 79, 80
2, 40071, Note_on_c, 0, 70, 80
2, 40071, Note_on_c, 0, 75, 80
2, 40076, Note_on_c, 0, 82, 0
2, 40129, Note_on_c, 0, 59, 80
2, 40132, Note_on_c, 0, 75, 0
2, 40135, Note_on_c, 0, 79, 0
2, 40143, Note_on_c, 0, 60, 80
2, 40148, Note_on_c, 0, 67, 0
2, 40148, Note_on_c, 0, 70, 0
2, 40160, Note_on_c, 0, 61, 80
2, 40163, Note_on_c, 0, 59, 0
2, 40182, Note_on_c, 0, 70, 80
2, 40185, Note_on_c, 0, 62, 80
2, 40185, Note_on_c, 0, 65, 80
2, 40185, Note_on_c, 0, 74, 80
2, 40190, Note_on_c, 0, 60, 0
2, 40222, Note_on_c, 0, 61, 0
2, 40244, Note_on_c, 0, 77, 80
2, 40247, Note_on_c, 0, 70, 0
2, 40247, Note_on_c, 0, 74, 0
2, 40261, Note_on_c, 0, 65, 0
2, 40293, Note_on_c, 0, 77, 0
2, 40302, Note_on_c, 0, 65, 80
2, 40302, Note_on_c, 0, 70, 80
2, 40302, Note_on_c, 0, 74, 80
2, 40351, Note_on_c, 0, 74, 0
2, 40351, Note_on_c, 0, 62, 0
2, 40351, Note_on_c, 0, 65, 0
2, 40351, Note_on_c, 0, 70, 0
2, 40421, Note_on_c, 0, 51, 80
2, 40421, Note_on_c, 0, 66, 80
2, 40421, Note_on_c, 0, 72, 80
2, 40424, Note_on_c, 0, 39, 80
2, 40470, Note_on_c, 0, 66, 0
2, 40480, Note_on_c, 0, 67, 80
2, 40483, Note_on_c, 0, 70, 80
2, 40486, Note_on_c, 0, 39, 0
2, 40486, Note_on_c, 0, 72, 0
2, 40512, Note_on_c, 0, 51, 0
2, 40536, Note_on_c, 0, 55, 80
2, 40536, Note_on_c, 0, 58, 80
2, 40536, Note_on_c, 0, 63, 80
2, 40539, Note_on_c, 0, 70, 0
2, 40539, Note_on_c, 0, 67, 0
2, 40598, Note_on_c, 0, 67, 80
2, 40598, Note_on_c, 0, 70, 80
2, 40603, Note_on_c, 0, 58, 0
2, 40603, Note_on_c, 0, 63, 0
2, 40617, Note_on_c, 0, 55, 0
2, 40656, Note_on_c, 0, 34, 80
2, 40656, Note_on_c, 0, 46, 80
2, 40704, Note_on_c, 0, 46, 0
2, 40704, Note_on_c, 0, 34, 0
2, 40773, Note_on_c, 0, 55, 80
2, 40776, Note_on_c, 0, 58, 80
2, 40776, Note_on_c, 0, 63, 80
2, 40780, Note_on_c, 0, 67, 0
2, 40780, Note_on_c, 0, 70, 0
2, 40822, Note_on_c, 0, 58, 0
2, 40836, Note_on_c, 0, 55, 0
2, 40839, Note_on_c, 0, 63, 0
2, 40897, Note_on_c, 0, 39, 80
2, 40897, Note_on_c, 0, 51, 80
2, 40897, Note_on_c, 0, 67, 80
2, 40897, Note_on_c, 0, 74, 80
2, 40941, Note_on_c, 0, 67, 0
2, 40941, Note_on_c, 0, 39, 0
2, 40944, Note_on_c, 0, 74, 0
2, 40953, Note_on_c, 0, 72, 80
2, 40956, Note_on_c, 0, 51, 0
2, 41012, Note_on_c, 0, 58, 80
2, 41015, Note_on_c, 0, 55, 80
2, 41015, Note_on_c, 0, 63, 80
2, 41058, Note_on_c, 0, 72, 0
2, 41065, Note_on_c, 0, 67, 80
2, 41068, Note_on_c, 0, 70, 80
2, 41073, Note_on_c, 0, 58, 0
2, 41073, Note_on_c, 0, 63, 0
2, 41088, Note_on_c, 0, 55, 0
2, 41129, Note_on_c, 0, 43, 80
2, 41129, Note_on_c, 0, 55, 80
2, 41160, Note_on_c, 0, 67, 0
2, 41160, Note_on_c, 0, 70, 0
2, 41187, Note_on_c, 0, 41, 80
2, 41187, Note_on_c, 0, 53, 80
2, 41187, Note_on_c, 0, 72, 80
2, 41192, Note_on_c, 0, 43, 0
2, 41192, Note_on_c, 0, 55, 0
2, 41243, Note_on_c, 0, 67, 80
2, 41246, Note_on_c, 0, 39, 80
2, 41246, Note_on_c, 0, 51, 80
2, 41249, Note_on_c, 0, 53, 0
2, 41249, Note_on_c, 0, 41, 0
2, 41268, Note_on_c, 0, 72, 0
2, 41304, Note_on_c, 0, 36, 80
2, 41304, Note_on_c, 0, 48, 80
2, 41309, Note_on_c, 0, 67, 0
2, 41309, Note_on_c, 0, 39, 0
2, 41322, Note_on_c, 0, 51, 0
2, 41360, Note_on_c, 0, 61, 80
2, 41363, Note_on_c, 0, 34, 80
2, 41363, Note_on_c, 0, 46, 80
2, 41363, Note_on_c, 0, 67, 80
2, 41366, Note_on_c, 0, 36, 0
2, 41369, Note_on_c, 0, 48, 0
2, 41423, Note_on_c, 0, 62, 80
2, 41423, Note_on_c, 0, 65, 80
2, 41427, Note_on_c, 0, 46, 0
2, 41427, Note_on_c, 0, 61, 0
2, 41427, Note_on_c, 0, 34, 0
2, 41427, Note_on_c, 0, 67, 0
2, 41481, Note_on_c, 0, 53, 80
2, 41484, Note_on_c, 0, 62, 0
2, 41484, Note_on_c, 0, 58, 80
2, 41530, Note_on_c, 0, 58, 0
2, 41530, Note_on_c, 0, 65, 0
2, 41533, Note_on_c, 0, 53, 0
2, 41541, Note_on_c, 0, 62, 80
2, 41545, Note_on_c, 0, 70, 80
2, 41606, Note_on_c, 0, 41, 80
2, 41669, Note_on_c, 0, 41, 0
2, 41728, Note_on_c, 0, 53, 80
2, 41728, Note_on_c, 0, 58, 80
2, 41791, Note_on_c, 0, 58, 0
2, 41791, Note_on_c, 0, 53, 0
2, 41845, Note_on_c, 0, 46, 80
2, 41848, Note_on_c, 0, 34, 80
2, 41851, Note_on_c, 0, 62, 0
2, 41897, Note_on_c, 0, 34, 0
2, 41911, Note_on_c, 0, 62, 80
2, 41914, Note_on_c, 0, 46, 0
2, 41914, Note_on_c, 0, 70, 0
2, 41970, Note_on_c, 0, 53, 80
2, 41970, Note_on_c, 0, 58, 80
2, 41970, Note_on_c, 0, 65, 80
2, 41973, Note_on_c, 0, 62, 0
2, 41985, Note_on_c, 0, 58, 0
2, 42026, Note_on_c, 0, 58, 80
2, 42026, Note_on_c, 0, 70, 80
2, 42031, Note_on_c, 0, 53, 0
2, 42046, Note_on_c, 0, 65, 0
2, 42087, Note_on_c, 0, 38, 80
2, 42087, Note_on_c, 0, 50, 80
2, 42087, Note_on_c, 0, 60, 80
2, 42087, Note_on_c, 0, 72, 80
2, 42090, Note_on_c, 0, 58, 0
2, 42090, Note_on_c, 0, 70, 0
2, 42144, Note_on_c, 0, 74, 80
2, 42146, Note_on_c, 0, 38, 0
2, 42146, Note_on_c, 0, 62, 80
2, 42149, Note_on_c, 0, 50, 0
2, 42149, Note_on_c, 0, 60, 0
2, 42164, Note_on_c, 0, 72, 0
2, 42205, Note_on_c, 0, 35, 80
2, 42205, Note_on_c, 0, 47, 80
2, 42205, Note_on_c, 0, 65, 80
2, 42205, Note_on_c, 0, 77, 80
2, 42208, Note_on_c, 0, 62, 0
2, 42208, Note_on_c, 0, 74, 0
2, 42251, Note_on_c, 0, 47, 0
2, 42251, Note_on_c, 0, 35, 0
2, 42265, Note_on_c, 0, 77, 0
2, 42280, Note_on_c, 0, 65, 0
2, 42321, Note_on_c, 0, 36, 80
2, 42321, Note_on_c, 0, 48, 80
2, 42321, Note_on_c, 0, 69, 80
2, 42321, Note_on_c, 0, 75, 80
2, 42321, Note_on_c, 0, 79, 80
2, 42380, Note_on_c, 0, 71, 80
2, 42384, Note_on_c, 0, 79, 0
2, 42384, Note_on_c, 0, 75, 0
2, 42384, Note_on_c, 0, 69, 0
2, 42384, Note_on_c, 0, 36, 0
2, 42384, Note_on_c, 0, 48, 0
2, 42435, Note_on_c, 0, 53, 80
2, 42438, Note_on_c, 0, 57, 80
2, 42438, Note_on_c, 0, 63, 80
2, 42438, Note_on_c, 0, 72, 80
2, 42443, Note_on_c, 0, 71, 0
2, 42484, Note_on_c, 0, 53, 0
2, 42489, Note_on_c, 0, 63, 0
2, 42489, Note_on_c, 0, 57, 0
2, 42499, Note_on_c, 0, 69, 80
2, 42499, Note_on_c, 0, 75, 80
2, 42499, Note_on_c, 0, 77, 80
2, 42504, Note_on_c, 0, 72, 0
2, 42554, Note_on_c, 0, 41, 80
2, 42554, Note_on_c, 0, 53, 80
2, 42600, Note_on_c, 0, 53, 0
2, 42618, Note_on_c, 0, 41, 0
2, 42669, Note_on_c, 0, 47, 80
2, 42669, Note_on_c, 0, 59, 80
2, 42718, Note_on_c, 0, 59, 0
2, 42718, Note_on_c, 0, 47, 0
2, 42788, Note_on_c, 0, 48, 80
2, 42788, Note_on_c, 0, 60, 80
2, 42837, Note_on_c, 0, 60, 0
2, 42837, Note_on_c, 0, 69, 0
2, 42840, Note_on_c, 0, 77, 0
2, 42840, Note_on_c, 0, 75, 0
2, 42842, Note_on_c, 0, 48, 0
2, 42908, Note_on_c, 0, 53, 80
2, 42911, Note_on_c, 0, 57, 80
2, 42911, Note_on_c, 0, 63, 80
2, 42911, Note_on_c, 0, 79, 80
2, 42957, Note_on_c, 0, 79, 0
2, 42957, Note_on_c, 0, 53, 0
2, 42966, Note_on_c, 0, 75, 80
2, 42969, Note_on_c, 0, 69, 80
2, 42969, Note_on_c, 0, 77, 80
2, 42972, Note_on_c, 0, 63, 0
2, 42972, Note_on_c, 0, 57, 0
2, 43026, Note_on_c, 0, 53, 80
2, 43029, Note_on_c, 0, 41, 80
2, 43057, Note_on_c, 0, 69, 0
2, 43060, Note_on_c, 0, 77, 0
2, 43060, Note_on_c, 0, 75, 0
2, 43087, Note_on_c, 0, 79, 80
2, 43090, Note_on_c, 0, 53, 0
2, 43090, Note_on_c, 0, 41, 0
2, 43136, Note_on_c, 0, 79, 0
2, 43146, Note_on_c, 0, 53, 80
2, 43146, Note_on_c, 0, 57, 80
2, 43146, Note_on_c, 0, 63, 80
2, 43146, Note_on_c, 0, 69, 80
2, 43146, Note_on_c, 0, 75, 80
2, 43146, Note_on_c, 0, 77, 80
2, 43200, Note_on_c, 0, 70, 80
2, 43204, Note_on_c, 0, 77, 0
2, 43204, Note_on_c, 0, 69, 0
2, 43204, Note_on_c, 0, 57, 0
2, 43204, Note_on_c, 0, 63, 0
2, 43204, Note_on_c, 0, 53, 0
2, 43204, Note_on_c, 0, 75, 0
2, 43231, Note_on_c, 0, 74, 80
2, 43258, Note_on_c, 0, 58, 80
2, 43261, Note_on_c, 0, 46, 80
2, 43261, Note_on_c, 0, 79, 80
2, 43304, Note_on_c, 0, 79, 0
2, 43304, Note_on_c, 0, 58, 0
2, 43304, Note_on_c, 0, 74, 0
2, 43314, Note_on_c, 0, 73, 80
2, 43317, Note_on_c, 0, 46, 0
2, 43320, Note_on_c, 0, 70, 0
2, 43375, Note_on_c, 0, 53, 80
2, 43375, Note_on_c, 0, 58, 80
2, 43375, Note_on_c, 0, 62, 80
2, 43375, Note_on_c, 0, 74, 80
2, 43380, Note_on_c, 0, 73, 0
2, 43394, Note_on_c, 0, 74, 0
2, 43428, Note_on_c, 0, 70, 80
2, 43428, Note_on_c, 0, 74, 80
2, 43428, Note_on_c, 0, 77, 80
2, 43433, Note_on_c, 0, 53, 0
2, 43433, Note_on_c, 0, 62, 0
2, 43433, Note_on_c, 0, 58, 0
2, 43488, Note_on_c, 0, 41, 80
2, 43491, Note_on_c, 0, 53, 80
2, 43535, Note_on_c, 0, 53, 0
2, 43535, Note_on_c, 0, 41, 0
2, 43603, Note_on_c, 0, 53, 80
2, 43603, Note_on_c, 0, 58, 80
2, 43603, Note_on_c, 0, 62, 80
2, 43666, Note_on_c, 0, 62, 0
2, 43666, Note_on_c, 0, 53, 0
2, 43671, Note_on_c, 0, 58, 0
2, 43680, Note_on_c, 0, 74, 0
2, 43709, Note_on_c, 0, 77, 0
2, 43709, Note_on_c, 0, 70, 0
2, 43719, Note_on_c, 0, 38, 80
2, 43719, Note_on_c, 0, 50, 80
2, 43777, Note_on_c, 0, 36, 80
2, 43777, Note_on_c, 0, 48, 80
2, 43777, Note_on_c, 0, 79, 80
2, 43780, Note_on_c, 0, 50, 0
2, 43780, Note_on_c, 0, 38, 0
2, 43826, Note_on_c, 0, 79, 0
2, 43834, Note_on_c, 0, 35, 80
2, 43834, Note_on_c, 0, 47, 80
2, 43834, Note_on_c, 0, 68, 80
2, 43834, Note_on_c, 0, 74, 80
2, 43834, Note_on_c, 0, 77, 80
2, 43839, Note_on_c, 0, 36, 0
2, 43839, Note_on_c, 0, 48, 0
2, 43880, Note_on_c, 0, 35, 0
2, 43880, Note_on_c, 0, 47, 0
2, 43880, Note_on_c, 0, 74, 0
2, 43883, Note_on_c, 0, 77, 0
2, 43883, Note_on_c, 0, 68, 0
2, 43891, Note_on_c, 0, 69, 80
2, 43891, Note_on_c, 0, 75, 80
2, 43949, Note_on_c, 0, 48, 80
2, 43952, Note_on_c, 0, 36, 80
2, 44003, Note_on_c, 0, 75, 0
2, 44003, Note_on_c, 0, 69, 0
2, 44013, Note_on_c, 0, 77, 80
2, 44017, Note_on_c, 0, 48, 0
2, 44017, Note_on_c, 0, 36, 0
2, 44061, Note_on_c, 0, 77, 0
2, 44070, Note_on_c, 0, 53, 80
2, 44070, Note_on_c, 0, 57, 80
2, 44070, Note_on_c, 0, 63, 80
2, 44073, Note_on_c, 0, 69, 80
2, 44073, Note_on_c, 0, 75, 80
2, 44129, Note_on_c, 0, 72, 80
2, 44129, Note_on_c, 0, 84, 80
2, 44132, Note_on_c, 0, 75, 0
2, 44132, Note_on_c, 0, 69, 0
2, 44132, Note_on_c, 0, 53, 0
2, 44132, Note_on_c, 0, 63, 0
2, 44132, Note_on_c, 0, 57, 0
2, 44160, Note_on_c, 0, 73, 80
2, 44160, Note_on_c, 0, 85, 80
2, 44184, Note_on_c, 0, 34, 80
2, 44187, Note_on_c, 0, 74, 80
2, 44187, Note_on_c, 0, 86, 80
2, 44192, Note_on_c, 0, 84, 0
2, 44192, Note_on_c, 0, 72, 0
2, 44205, Note_on_c, 0, 85, 0
2, 44208, Note_on_c, 0, 73, 0
2, 44220, Note_on_c, 0, 74, 0
2, 44247, Note_on_c, 0, 34, 0
2, 44247, Note_on_c, 0, 46, 80
2, 44250, Note_on_c, 0, 86, 0
2, 44304, Note_on_c, 0, 38, 80
2, 44311, Note_on_c, 0, 46, 0
2, 44367, Note_on_c, 0, 50, 80
2, 44370, Note_on_c, 0, 38, 0
2, 44430, Note_on_c, 0, 39, 80
2, 44430, Note_on_c, 0, 67, 80
2, 44430, Note_on_c, 0, 72, 80
2, 44435, Note_on_c, 0, 50, 0
2, 44489, Note_on_c, 0, 70, 80
2, 44492, Note_on_c, 0, 51, 80
2, 44492, Note_on_c, 0, 73, 80
2, 44495, Note_on_c, 0, 39, 0
2, 44495, Note_on_c, 0, 72, 0
2, 44495, Note_on_c, 0, 67, 0
2, 44553, Note_on_c, 0, 70, 0
2, 44566, Note_on_c, 0, 40, 80
2, 44566, Note_on_c, 0, 52, 80
2, 44568, Note_on_c, 0, 51, 0
2, 44571, Note_on_c, 0, 73, 0
2, 44608, Note_on_c, 0, 65, 80
2, 44608, Note_on_c, 0, 70, 80
2, 44608, Note_on_c, 0, 74, 80
2, 44611, Note_on_c, 0, 40, 0
2, 44664, Note_on_c, 0, 41, 80
2, 44664, Note_on_c, 0, 53, 80
2, 44669, Note_on_c, 0, 52, 0
2, 44730, Note_on_c, 0, 41, 0
2, 44730, Note_on_c, 0, 53, 0
2, 44733, Note_on_c, 0, 70, 0
2, 44733, Note_on_c, 0, 74, 0
2, 44745, Note_on_c, 0, 65, 0
2, 44788, Note_on_c, 0, 58, 80
2, 44791, Note_on_c, 0, 73, 80
2, 44791, Note_on_c, 0, 79, 80
2, 44840, Note_on_c, 0, 58, 0
2, 44843, Note_on_c, 0, 79, 0
2, 44853, Note_on_c, 0, 74, 80
2, 44853, Note_on_c, 0, 77, 80
2, 44857, Note_on_c, 0, 73, 0
2, 44911, Note_on_c, 0, 50, 80
2, 44916, Note_on_c, 0, 74, 0
2, 44928, Note_on_c, 0, 38, 80
2, 44972, Note_on_c, 0, 74, 80
2, 44972, Note_on_c, 0, 82, 80
2, 44975, Note_on_c, 0, 38, 0
2, 44975, Note_on_c, 0, 50, 0
2, 44977, Note_on_c, 0, 77, 0
2, 45031, Note_on_c, 0, 53, 80
2, 45031, Note_on_c, 0, 58, 80
2, 45031, Note_on_c, 0, 62, 80
2, 45090, Note_on_c, 0, 72, 80
2, 45090, Note_on_c, 0, 84, 80
2, 45093, Note_on_c, 0, 62, 0
2, 45093, Note_on_c, 0, 53, 0
2, 45096, Note_on_c, 0, 74, 0
2, 45096, Note_on_c, 0, 58, 0
2, 45096, Note_on_c, 0, 82, 0
2, 45120, Note_on_c, 0, 73, 80
2, 45120, Note_on_c, 0, 85, 80
2, 45148, Note_on_c, 0, 34, 80
2, 45148, Note_on_c, 0, 74, 80
2, 45148, Note_on_c, 0, 86, 80
2, 45153, Note_on_c, 0, 84, 0
2, 45153, Note_on_c, 0, 72, 0
2, 45180, Note_on_c, 0, 85, 0
2, 45180, Note_on_c, 0, 73, 0
2, 45194, Note_on_c, 0, 74, 0
2, 45194, Note_on_c, 0, 34, 0
2, 45204, Note_on_c, 0, 46, 80
2, 45214, Note_on_c, 0, 86, 0
2, 45250, Note_on_c, 0, 46, 0
2, 45263, Note_on_c, 0, 38, 80
2, 45321, Note_on_c, 0, 50, 80
2, 45326, Note_on_c, 0, 38, 0
2, 45377, Note_on_c, 0, 39, 80
2, 45377, Note_on_c, 0, 67, 80
2, 45377, Note_on_c, 0, 72, 80
2, 45382, Note_on_c, 0, 50, 0
2, 45432, Note_on_c, 0, 73, 80
2, 45435, Note_on_c, 0, 51, 80
2, 45435, Note_on_c, 0, 70, 80
2, 45440, Note_on_c, 0, 39, 0
2, 45440, Note_on_c, 0, 72, 0
2, 45440, Note_on_c, 0, 67, 0
2, 45494, Note_on_c, 0, 40, 80
2, 45494, Note_on_c, 0, 52, 80
2, 45499, Note_on_c, 0, 73, 0
2, 45499, Note_on_c, 0, 70, 0
2, 45511, Note_on_c, 0, 51, 0
2, 45552, Note_on_c, 0, 65, 80
2, 45552, Note_on_c, 0, 70, 80
2, 45552, Note_on_c, 0, 74, 80
2, 45557, Note_on_c, 0, 40, 0
2, 45613, Note_on_c, 0, 41, 80
2, 45613, Note_on_c, 0, 53, 80
2, 45616, Note_on_c, 0, 52, 0
2, 45659, Note_on_c, 0, 41, 0
2, 45659, Note_on_c, 0, 74, 0
2, 45659, Note_on_c, 0, 70, 0
2, 45659, Note_on_c, 0, 53, 0
2, 45691, Note_on_c, 0, 65, 0
2, 45729, Note_on_c, 0, 70, 80
2, 45788, Note_on_c, 0, 72, 80
2, 45795, Note_on_c, 0, 70, 0
2, 45844, Note_on_c, 0, 74, 80
2, 45852, Note_on_c, 0, 72, 0
2, 45906, Note_on_c, 0, 77, 80
2, 45909, Note_on_c, 0, 74, 0
2, 45955, Note_on_c, 0, 77, 0
2, 45962, Note_on_c, 0, 80, 80
2, 45962, Note_on_c, 0, 82, 80
2, 45965, Note_on_c, 0, 86, 80
2, 45965, Note_on_c, 0, 89, 80
2, 46024, Note_on_c, 0, 76, 80
2, 46029, Note_on_c, 0, 89, 0
2, 46029, Note_on_c, 0, 82, 0
2, 46029, Note_on_c, 0, 80, 0
2, 46038, Note_on_c, 0, 77, 80
2, 46043, Note_on_c, 0, 86, 0
2, 46056, Note_on_c, 0, 78, 80
2, 46073, Note_on_c, 0, 76, 0
2, 46085, Note_on_c, 0, 79, 80
2, 46085, Note_on_c, 0, 82, 80
2, 46085, Note_on_c, 0, 87, 80
2, 46085, Note_on_c, 0, 91, 80
2, 46088, Note_on_c, 0, 77, 0
2, 46117, Note_on_c, 0, 78, 0
2, 46134, Note_on_c, 0, 87, 0
2, 46134, Note_on_c, 0, 82, 0
2, 46144, Note_on_c, 0, 94, 80
2, 46147, Note_on_c, 0, 91, 0
2, 46200, Note_on_c, 0, 82, 80
2, 46203, Note_on_c, 0, 87, 80
2, 46203, Note_on_c, 0, 91, 80
2, 46206, Note_on_c, 0, 94, 0
2, 46262, Note_on_c, 0, 71, 80
2, 46265, Note_on_c, 0, 87, 0
2, 46265, Note_on_c, 0, 91, 0
2, 46265, Note_on_c, 0, 79, 0
2, 46265, Note_on_c, 0, 82, 0
2, 46274, Note_on_c, 0, 72, 80
2, 46287, Note_on_c, 0, 73, 80
2, 46295, Note_on_c, 0, 71, 0
2, 46319, Note_on_c, 0, 74, 80
2, 46319, Note_on_c, 0, 86, 80
2, 46321, Note_on_c, 0, 77, 80
2, 46321, Note_on_c, 0, 82, 80
2, 46326, Note_on_c, 0, 72, 0
2, 46339, Note_on_c, 0, 73, 0
2, 46380, Note_on_c, 0, 89, 80
2, 46383, Note_on_c, 0, 77, 0
2, 46383, Note_on_c, 0, 86, 0
2, 46383, Note_on_c, 0, 82, 0
2, 46439, Note_on_c, 0, 77, 80
2, 46439, Note_on_c, 0, 82, 80
2, 46439, Note_on_c, 0, 86, 80
2, 46443, Note_on_c, 0, 89, 0
2, 46492, Note_on_c, 0, 64, 80
2, 46497, Note_on_c, 0, 82, 0
2, 46497, Note_on_c, 0, 74, 0
2, 46497, Note_on_c, 0, 77, 0
2, 46500, Note_on_c, 0, 86, 0
2, 46510, Note_on_c, 0, 65, 80
2, 46524, Note_on_c, 0, 66, 80
2, 46527, Note_on_c, 0, 64, 0
2, 46549, Note_on_c, 0, 67, 80
2, 46552, Note_on_c, 0, 70, 80
2, 46552, Note_on_c, 0, 75, 80
2, 46552, Note_on_c, 0, 79, 80
2, 46569, Note_on_c, 0, 65, 0
2, 46584, Note_on_c, 0, 66, 0
2, 46598, Note_on_c, 0, 75, 0
2, 46598, Note_on_c, 0, 79, 0
2, 46608, Note_on_c, 0, 82, 80
2, 46612, Note_on_c, 0, 70, 0
2, 46654, Note_on_c, 0, 82, 0
2, 46663, Note_on_c, 0, 70, 80
2, 46663, Note_on_c, 0, 75, 80
2, 46663, Note_on_c, 0, 79, 80
2, 46722, Note_on_c, 0, 59, 80
2, 46725, Note_on_c, 0, 79, 0
2, 46725, Note_on_c, 0, 75, 0
2, 46725, Note_on_c, 0, 70, 0
2, 46728, Note_on_c, 0, 67, 0
2, 46737, Note_on_c, 0, 60, 80
2, 46750, Note_on_c, 0, 61, 80
2, 46769, Note_on_c, 0, 59, 0
2, 46778, Note_on_c, 0, 62, 80
2, 46778, Note_on_c, 0, 65, 80
2, 46778, Note_on_c, 0, 70, 80
2, 46778, Note_on_c, 0, 74, 80
2, 46781, Note_on_c, 0, 60, 0
2, 46813, Note_on_c, 0, 61, 0
2, 46837, Note_on_c, 0, 77, 80
2, 46842, Note_on_c, 0, 70, 0
2, 46842, Note_on_c, 0, 74, 0
2, 46854, Note_on_c, 0, 65, 0
2, 46896, Note_on_c, 0, 65, 80
2, 46896, Note_on_c, 0, 70, 80
2, 46896, Note_on_c, 0, 74, 80
2, 46900, Note_on_c, 0, 77, 0
2, 46959, Note_on_c, 0, 74, 0
2, 46973, Note_on_c, 0, 62, 0
2, 46973, Note_on_c, 0, 65, 0
2, 46976, Note_on_c, 0, 70, 0
2, 47015, Note_on_c, 0, 43, 80
2, 47015, Note_on_c, 0, 58, 80
2, 47073, Note_on_c, 0, 45, 80
2, 47073, Note_on_c, 0, 60, 80
2, 47076, Note_on_c, 0, 58, 0
2, 47076, Note_on_c, 0, 43, 0
2, 47149, Note_on_c, 0, 45, 0
2, 47190, Note_on_c, 0, 46, 80
2, 47190, Note_on_c, 0, 62, 80
2, 47193, Note_on_c, 0, 60, 0
2, 47252, Note_on_c, 0, 62, 0
2, 47310, Note_on_c, 0, 48, 80
2, 47310, Note_on_c, 0, 60, 80
2, 47315, Note_on_c, 0, 46, 0
2, 47356, Note_on_c, 0, 60, 0
2, 47374, Note_on_c, 0, 50, 80
2, 47374, Note_on_c, 0, 58, 80
2, 47376, Note_on_c, 0, 48, 0
2, 47432, Note_on_c, 0, 58, 0
2, 47432, Note_on_c, 0, 50, 0
2, 47486, Note_on_c, 0, 74, 80
2, 47489, Note_on_c, 0, 58, 80
2, 47535, Note_on_c, 0, 58, 0
2, 47535, Note_on_c, 0, 74, 0
2, 47544, Note_on_c, 0, 57, 80
2, 47544, Note_on_c, 0, 72, 80
2, 47639, Note_on_c, 0, 72, 0
2, 47639, Note_on_c, 0, 57, 0
2, 47663, Note_on_c, 0, 55, 80
2, 47663, Note_on_c, 0, 70, 80
2, 47740, Note_on_c, 0, 70, 0
2, 47758, Note_on_c, 0, 55, 0
2, 47782, Note_on_c, 0, 69, 80
2, 47784, Note_on_c, 0, 53, 80
2, 47840, Note_on_c, 0, 61, 80
2, 47840, Note_on_c, 0, 67, 80
2, 47843, Note_on_c, 0, 52, 80
2, 47843, Note_on_c, 0, 58, 80
2, 47846, Note_on_c, 0, 69, 0
2, 47849, Note_on_c, 0, 53, 0
2, 47898, Note_on_c, 0, 70, 80
2, 47905, Note_on_c, 0, 61, 0
2, 47905, Note_on_c, 0, 67, 0
2, 47905, Note_on_c, 0, 58, 0
2, 47920, Note_on_c, 0, 52, 0
2, 47928, Note_on_c, 0, 74, 80
2, 47956, Note_on_c, 0, 79, 80
2, 47959, Note_on_c, 0, 41, 80
2, 47959, Note_on_c, 0, 53, 80
2, 48008, Note_on_c, 0, 53, 0
2, 48016, Note_on_c, 0, 77, 80
2, 48021, Note_on_c, 0, 70, 0
2, 48021, Note_on_c, 0, 79, 0
2, 48021, Note_on_c, 0, 74, 0
2, 48024, Note_on_c, 0, 41, 0
2, 48067, Note_on_c, 0, 77, 0
2, 48076, Note_on_c, 0, 62, 80
2, 48076, Note_on_c, 0, 70, 80
2, 48076, Note_on_c, 0, 74, 80
2, 48079, Note_on_c, 0, 53, 80
2, 48079, Note_on_c, 0, 58, 80
2, 48140, Note_on_c, 0, 75, 80
2, 48143, Note_on_c, 0, 69, 80
2, 48145, Note_on_c, 0, 58, 0
2, 48145, Note_on_c, 0, 74, 0
2, 48145, Note_on_c, 0, 62, 0
2, 48145, Note_on_c, 0, 70, 0
2, 48150, Note_on_c, 0, 53, 0
2, 48201, Note_on_c, 0, 41, 80
2, 48201, Note_on_c, 0, 53, 80
2, 48218, Note_on_c, 0, 69, 0
2, 48218, Note_on_c, 0, 75, 0
2, 48252, Note_on_c, 0, 41, 0
2, 48252, Note_on_c, 0, 53, 0
2, 48260, Note_on_c, 0, 77, 80
2, 48323, Note_on_c, 0, 63, 80
2, 48323, Note_on_c, 0, 67, 80
2, 48326, Note_on_c, 0, 77, 0
2, 48326, Note_on_c, 0, 53, 80
2, 48326, Note_on_c, 0, 57, 80
2, 48375, Note_on_c, 0, 53, 0
2, 48384, Note_on_c, 0, 69, 80
2, 48387, Note_on_c, 0, 67, 0
2, 48390, Note_on_c, 0, 57, 0
2, 48390, Note_on_c, 0, 63, 0
2, 48444, Note_on_c, 0, 70, 80
2, 48447, Note_on_c, 0, 46, 80
2, 48447, Note_on_c, 0, 58, 80
2, 48450, Note_on_c, 0, 69, 0
2, 48508, Note_on_c, 0, 58, 0
2, 48511, Note_on_c, 0, 46, 0
2, 48565, Note_on_c, 0, 41, 80
2, 48565, Note_on_c, 0, 53, 80
2, 48621, Note_on_c, 0, 54, 80
2, 48624, Note_on_c, 0, 53, 0
2, 48624, Note_on_c, 0, 41, 0
2, 48624, Note_on_c, 0, 42, 80
2, 48682, Note_on_c, 0, 43, 80
2, 48682, Note_on_c, 0, 55, 80
2, 48685, Note_on_c, 0, 54, 0
2, 48688, Note_on_c, 0, 42, 0
2, 48731, Note_on_c, 0, 43, 0
2, 48741, Note_on_c, 0, 56, 80
2, 48744, Note_on_c, 0, 55, 0
2, 48744, Note_on_c, 0, 70, 0
2, 48744, Note_on_c, 0, 44, 80
2, 48797, Note_on_c, 0, 72, 80
2, 48800, Note_on_c, 0, 45, 80
2, 48800, Note_on_c, 0, 57, 80
2, 48803, Note_on_c, 0, 56, 0
2, 48806, Note_on_c, 0, 44, 0
2, 48862, Note_on_c, 0, 57, 0
2, 48864, Note_on_c, 0, 45, 0
2, 48874, Note_on_c, 0, 72, 0
2, 48912, Note_on_c, 0, 73, 80
2, 48915, Note_on_c, 0, 58, 80
2, 48915, Note_on_c, 0, 61, 80
2, 48918, Note_on_c, 0, 46, 80
2, 48967, Note_on_c, 0, 58, 0
2, 48994, Note_on_c, 0, 61, 0
2, 48997, Note_on_c, 0, 46, 0
2, 49031, Note_on_c, 0, 61, 80
2, 49033, Note_on_c, 0, 53, 80
2, 49033, Note_on_c, 0, 58, 80
2, 49094, Note_on_c, 0, 58, 0
2, 49094, Note_on_c, 0, 53, 0
2, 49094, Note_on_c, 0, 61, 0
2, 49148, Note_on_c, 0, 53, 80
2, 49151, Note_on_c, 0, 41, 80
2, 49200, Note_on_c, 0, 41, 0
2, 49200, Note_on_c, 0, 53, 0
2, 49263, Note_on_c, 0, 70, 80
2, 49266, Note_on_c, 0, 53, 80
2, 49266, Note_on_c, 0, 58, 80
2, 49269, Note_on_c, 0, 61, 80
2, 49273, Note_on_c, 0, 73, 0
2, 49317, Note_on_c, 0, 58, 0
2, 49317, Note_on_c, 0, 61, 0
2, 49317, Note_on_c, 0, 53, 0
2, 49326, Note_on_c, 0, 60, 80
2, 49326, Note_on_c, 0, 72, 80
2, 49329, Note_on_c, 0, 70, 0
2, 49385, Note_on_c, 0, 73, 80
2, 49388, Note_on_c, 0, 58, 80
2, 49388, Note_on_c, 0, 61, 80
2, 49391, Note_on_c, 0, 72, 0
2, 49391, Note_on_c, 0, 60, 0
2, 49391, Note_on_c, 0, 46, 80
2, 49449, Note_on_c, 0, 58, 0
2, 49449, Note_on_c, 0, 61, 0
2, 49452, Note_on_c, 0, 46, 0
2, 49506, Note_on_c, 0, 58, 80
2, 49509, Note_on_c, 0, 53, 80
2, 49509, Note_on_c, 0, 61, 80
2, 49558, Note_on_c, 0, 61, 0
2, 49558, Note_on_c, 0, 53, 0
2, 49558, Note_on_c, 0, 58, 0
2, 49631, Note_on_c, 0, 53, 80
2, 49631, Note_on_c, 0, 41, 80
2, 49677, Note_on_c, 0, 53, 0
2, 49694, Note_on_c, 0, 41, 0
2, 49748, Note_on_c, 0, 53, 80
2, 49748, Note_on_c, 0, 58, 80
2, 49748, Note_on_c, 0, 61, 80
2, 49748, Note_on_c, 0, 70, 80
2, 49751, Note_on_c, 0, 73, 0
2, 49801, Note_on_c, 0, 60, 80
2, 49801, Note_on_c, 0, 72, 80
2, 49806, Note_on_c, 0, 61, 0
2, 49806, Note_on_c, 0, 70, 0
2, 49806, Note_on_c, 0, 58, 0
2, 49809, Note_on_c, 0, 53, 0
2, 49858, Note_on_c, 0, 73, 80
2, 49861, Note_on_c, 0, 46, 80
2, 49861, Note_on_c, 0, 58, 80
2, 49861, Note_on_c, 0, 61, 80
2, 49864, Note_on_c, 0, 72, 0
2, 49867, Note_on_c, 0, 60, 0
2, 49916, Note_on_c, 0, 77, 80
2, 49923, Note_on_c, 0, 58, 0
2, 49923, Note_on_c, 0, 61, 0
2, 49974, Note_on_c, 0, 82, 80
2, 49977, Note_on_c, 0, 53, 80
2, 49977, Note_on_c, 0, 58, 80
2, 49977, Note_on_c, 0, 61, 80
2, 49980, Note_on_c, 0, 77, 0
2, 50021, Note_on_c, 0, 82, 0
2, 50021, Note_on_c, 0, 61, 0
2, 50024, Note_on_c, 0, 53, 0
2, 50024, Note_on_c, 0, 58, 0
2, 50032, Note_on_c, 0, 85, 80
2, 50054, Note_on_c, 0, 73, 0
2, 50092, Note_on_c, 0, 63, 80
2, 50092, Note_on_c, 0, 75, 80
2, 50095, Note_on_c, 0, 85, 0
2, 50095, Note_on_c, 0, 42, 80
2, 50095, Note_on_c, 0, 54, 80
2, 50100, Note_on_c, 0, 46, 0
2, 50149, Note_on_c, 0, 78, 80
2, 50157, Note_on_c, 0, 54, 0
2, 50160, Note_on_c, 0, 63, 0
2, 50196, Note_on_c, 0, 78, 0
2, 50206, Note_on_c, 0, 58, 80
2, 50206, Note_on_c, 0, 82, 80
2, 50208, Note_on_c, 0, 54, 80
2, 50208, Note_on_c, 0, 63, 80
2, 50262, Note_on_c, 0, 87, 80
2, 50267, Note_on_c, 0, 82, 0
2, 50267, Note_on_c, 0, 75, 0
2, 50270, Note_on_c, 0, 58, 0
2, 50270, Note_on_c, 0, 54, 0
2, 50270, Note_on_c, 0, 63, 0
2, 50321, Note_on_c, 0, 53, 80
2, 50321, Note_on_c, 0, 73, 80
2, 50324, Note_on_c, 0, 61, 80
2, 50327, Note_on_c, 0, 87, 0
2, 50327, Note_on_c, 0, 41, 80
2, 50329, Note_on_c, 0, 42, 0
2, 50378, Note_on_c, 0, 77, 80
2, 50378, Note_on_c, 0, 82, 80
2, 50378, Note_on_c, 0, 85, 80
2, 50388, Note_on_c, 0, 53, 0
2, 50391, Note_on_c, 0, 41, 0
2, 50442, Note_on_c, 0, 51, 80
2, 50445, Note_on_c, 0, 82, 0
2, 50445, Note_on_c, 0, 77, 0
2, 50445, Note_on_c, 0, 85, 0
2, 50445, Note_on_c, 0, 39, 80
2, 50498, Note_on_c, 0, 81, 80
2, 50498, Note_on_c, 0, 84, 80
2, 50501, Note_on_c, 0, 77, 80
2, 50504, Note_on_c, 0, 73, 0
2, 50509, Note_on_c, 0, 39, 0
2, 50517, Note_on_c, 0, 77, 0
2, 50521, Note_on_c, 0, 51, 0
2, 50534, Note_on_c, 0, 61, 0
2, 50558, Note_on_c, 0, 77, 80
2, 50558, Note_on_c, 0, 82, 80
2, 50561, Note_on_c, 0, 84, 0
2, 50561, Note_on_c, 0, 81, 0
2, 50564, Note_on_c, 0, 37, 80
2, 50564, Note_on_c, 0, 49, 80
2, 50610, Note_on_c, 0, 49, 0
2, 50613, Note_on_c, 0, 37, 0
2, 50681, Note_on_c, 0, 53, 80
2, 50681, Note_on_c, 0, 58, 80
2, 50681, Note_on_c, 0, 61, 80
2, 50681, Note_on_c, 0, 65, 80
2, 50681, Note_on_c, 0, 70, 80
2, 50684, Note_on_c, 0, 77, 0
2, 50684, Note_on_c, 0, 82, 0
2, 50727, Note_on_c, 0, 58, 0
2, 50727, Note_on_c, 0, 61, 0
2, 50730, Note_on_c, 0, 53, 0
2, 50785, Note_on_c, 0, 70, 0
2, 50798, Note_on_c, 0, 54, 80
2, 50798, Note_on_c, 0, 60, 80
2, 50798, Note_on_c, 0, 63, 80
2, 50798, Note_on_c, 0, 69, 80
2, 50801, Note_on_c, 0, 65, 0
2, 50801, Note_on_c, 0, 48, 80
2, 50890, Note_on_c, 0, 69, 0
2, 50895, Note_on_c, 0, 54, 0
2, 50919, Note_on_c, 0, 67, 80
2, 50922, Note_on_c, 0, 55, 80
2, 50980, Note_on_c, 0, 66, 80
2, 50983, Note_on_c, 0, 67, 0
2, 50983, Note_on_c, 0, 57, 80
2, 51002, Note_on_c, 0, 55, 0
2, 51041, Note_on_c, 0, 63, 0
2, 51041, Note_on_c, 0, 60, 0
2, 51070, Note_on_c, 0, 66, 0
2, 51072, Note_on_c, 0, 57, 0
2, 51096, Note_on_c, 0, 67, 80
2, 51099, Note_on_c, 0, 55, 80
2, 51158, Note_on_c, 0, 69, 80
2, 51161, Note_on_c, 0, 67, 0
2, 51161, Note_on_c, 0, 54, 80
2, 51164, Note_on_c, 0, 48, 0
2, 51164, Note_on_c, 0, 55, 0
2, 51222, Note_on_c, 0, 69, 0
2, 51225, Note_on_c, 0, 54, 0
2, 51279, Note_on_c, 0, 63, 80
2, 51279, Note_on_c, 0, 72, 80
2, 51282, Note_on_c, 0, 66, 80
2, 51285, Note_on_c, 0, 51, 80
2, 51285, Note_on_c, 0, 57, 80
2, 51348, Note_on_c, 0, 57, 0
2, 51362, Note_on_c, 0, 72, 0
2, 51404, Note_on_c, 0, 58, 80
2, 51404, Note_on_c, 0, 70, 80
2, 51459, Note_on_c, 0, 69, 80
2, 51462, Note_on_c, 0, 60, 80
2, 51465, Note_on_c, 0, 70, 0
2, 51468, Note_on_c, 0, 58, 0
2, 51509, Note_on_c, 0, 63, 0
2, 51509, Note_on_c, 0, 66, 0
2, 51551, Note_on_c, 0, 69, 0
2, 51553, Note_on_c, 0, 60, 0
2, 51577, Note_on_c, 0, 70, 80
2, 51580, Note_on_c, 0, 58, 80
2, 51639, Note_on_c, 0, 57, 80
2, 51639, Note_on_c, 0, 72, 80
2, 51642, Note_on_c, 0, 70, 0
2, 51647, Note_on_c, 0, 58, 0
2, 51659, Note_on_c, 0, 51, 0
2, 51700, Note_on_c, 0, 72, 0
2, 51703, Note_on_c, 0, 57, 0
2, 51752, Note_on_c, 0, 71, 80
2, 51757, Note_on_c, 0, 56, 80
2, 51871, Note_on_c, 0, 57, 80
2, 51871, Note_on_c, 0, 72, 80
2, 51874, Note_on_c, 0, 71, 0
2, 51879, Note_on_c, 0, 56, 0
2, 52076, Note_on_c, 0, 57, 0
2, 52076, Note_on_c, 0, 72, 0
2, 52100, Note_on_c, 0, 73, 80
2, 52103, Note_on_c, 0, 58, 80
2, 52219, Note_on_c, 0, 74, 80
2, 52224, Note_on_c, 0, 73, 0
2, 52224, Note_on_c, 0, 59, 80
2, 52226, Note_on_c, 0, 58, 0
2, 52320, Note_on_c, 0, 74, 0
2, 52323, Note_on_c, 0, 59, 0
2, 52331, Note_on_c, 0, 75, 80
2, 52334, Note_on_c, 0, 60, 80
2, 52450, Note_on_c, 0, 76, 80
2, 52455, Note_on_c, 0, 75, 0
2, 52455, Note_on_c, 0, 61, 80
2, 52460, Note_on_c, 0, 60, 0
2, 52569, Note_on_c, 0, 77, 80
2, 52574, Note_on_c, 0, 76, 0
2, 52574, Note_on_c, 0, 62, 80
2, 52579, Note_on_c, 0, 61, 0
2, 52680, Note_on_c, 0, 77, 0
2, 52683, Note_on_c, 0, 62, 0
2, 52693, Note_on_c, 0, 58, 80
2, 52693, Note_on_c, 0, 63, 80
2, 52693, Note_on_c, 0, 66, 80
2, 52693, Note_on_c, 0, 72, 80
2, 52693, Note_on_c, 0, 78, 80
2, 52804, Note_on_c, 0, 70, 80
2, 52804, Note_on_c, 0, 75, 80
2, 52807, Note_on_c, 0, 60, 80
2, 52810, Note_on_c, 0, 78, 0
2, 52810, Note_on_c, 0, 66, 0
2, 52810, Note_on_c, 0, 58, 0
2, 52810, Note_on_c, 0, 54, 80
2, 52813, Note_on_c, 0, 63, 0
2, 52997, Note_on_c, 0, 75, 0
2, 53000, Note_on_c, 0, 72, 0
2, 53000, Note_on_c, 0, 60, 0
2, 53000, Note_on_c, 0, 70, 0
2, 53003, Note_on_c, 0, 54, 0
2, 53037, Note_on_c, 0, 72, 80
2, 53040, Note_on_c, 0, 70, 80
2, 53040, Note_on_c, 0, 76, 80
2, 53042, Note_on_c, 0, 54, 80
2, 53042, Note_on_c, 0, 60, 80
2, 53127, Note_on_c, 0, 70, 0
2, 53130, Note_on_c, 0, 54, 0
2, 53152, Note_on_c, 0, 69, 80
2, 53152, Note_on_c, 0, 77, 80
2, 53155, Note_on_c, 0, 76, 0
2, 53160, Note_on_c, 0, 53, 80
2, 53232, Note_on_c, 0, 72, 0
2, 53245, Note_on_c, 0, 69, 0
2, 53245, Note_on_c, 0, 60, 0
2, 53267, Note_on_c, 0, 72, 80
2, 53270, Note_on_c, 0, 63, 80
2, 53328, Note_on_c, 0, 70, 80
2, 53331, Note_on_c, 0, 61, 80
2, 53334, Note_on_c, 0, 63, 0
2, 53334, Note_on_c, 0, 72, 0
2, 53377, Note_on_c, 0, 70, 0
2, 53377, Note_on_c, 0, 61, 0
2, 53387, Note_on_c, 0, 60, 80
2, 53387, Note_on_c, 0, 69, 80
2, 53441, Note_on_c, 0, 70, 80
2, 53444, Note_on_c, 0, 61, 80
2, 53448, Note_on_c, 0, 69, 0
2, 53448, Note_on_c, 0, 60, 0
2, 53495, Note_on_c, 0, 60, 80
2, 53495, Note_on_c, 0, 69, 80
2, 53499, Note_on_c, 0, 77, 0
2, 53502, Note_on_c, 0, 61, 0
2, 53502, Note_on_c, 0, 53, 0
2, 53502, Note_on_c, 0, 70, 0
2, 53544, Note_on_c, 0, 69, 0
2, 53544, Note_on_c, 0, 60, 0
2, 53612, Note_on_c, 0, 61, 80
2, 53612, Note_on_c, 0, 73, 80
2, 53615, Note_on_c, 0, 58, 80
2, 53617, Note_on_c, 0, 46, 80
2, 53668, Note_on_c, 0, 77, 80
2, 53673, Note_on_c, 0, 61, 0
2, 53676, Note_on_c, 0, 58, 0
2, 53725, Note_on_c, 0, 82, 80
2, 53728, Note_on_c, 0, 58, 80
2, 53728, Note_on_c, 0, 61, 80
2, 53731, Note_on_c, 0, 77, 0
2, 53731, Note_on_c, 0, 53, 80
2, 53782, Note_on_c, 0, 85, 80
2, 53786, Note_on_c, 0, 82, 0
2, 53789, Note_on_c, 0, 73, 0
2, 53789, Note_on_c, 0, 61, 0
2, 53792, Note_on_c, 0, 58, 0
2, 53792, Note_on_c, 0, 53, 0
2, 53843, Note_on_c, 0, 63, 80
2, 53843, Note_on_c, 0, 75, 80
2, 53848, Note_on_c, 0, 85, 0
2, 53851, Note_on_c, 0, 54, 80
2, 53854, Note_on_c, 0, 46, 0
2, 53854, Note_on_c, 0, 42, 80
2, 53903, Note_on_c, 0, 78, 80
2, 53925, Note_on_c, 0, 63, 0
2, 53928, Note_on_c, 0, 54, 0
2, 53961, Note_on_c, 0, 82, 80
2, 53964, Note_on_c, 0, 54, 80
2, 53964, Note_on_c, 0, 58, 80
2, 53964, Note_on_c, 0, 63, 80
2, 53972, Note_on_c, 0, 78, 0
2, 54010, Note_on_c, 0, 82, 0
2, 54020, Note_on_c, 0, 87, 80
2, 54024, Note_on_c, 0, 75, 0
2, 54027, Note_on_c, 0, 63, 0
2, 54027, Note_on_c, 0, 58, 0
2, 54032, Note_on_c, 0, 54, 0
2, 54069, Note_on_c, 0, 87, 0
2, 54083, Note_on_c, 0, 73, 80
2, 54086, Note_on_c, 0, 61, 80
2, 54089, Note_on_c, 0, 53, 80
2, 54092, Note_on_c, 0, 41, 80
2, 54095, Note_on_c, 0, 42, 0
2, 54144, Note_on_c, 0, 77, 80
2, 54144, Note_on_c, 0, 82, 80
2, 54144, Note_on_c, 0, 85, 80
2, 54170, Note_on_c, 0, 53, 0
2, 54170, Note_on_c, 0, 41, 0
2, 54209, Note_on_c, 0, 51, 80
2, 54212, Note_on_c, 0, 39, 80
2, 54224, Note_on_c, 0, 82, 0
2, 54224, Note_on_c, 0, 85, 0
2, 54227, Note_on_c, 0, 77, 0
2, 54244, Note_on_c, 0, 61, 0
2, 54264, Note_on_c, 0, 72, 80
2, 54264, Note_on_c, 0, 77, 80
2, 54264, Note_on_c, 0, 81, 80
2, 54264, Note_on_c, 0, 84, 80
2, 54268, Note_on_c, 0, 73, 0
2, 54286, Note_on_c, 0, 77, 0
2, 54303, Note_on_c, 0, 51, 0
2, 54306, Note_on_c, 0, 39, 0
2, 54323, Note_on_c, 0, 77, 80
2, 54323, Note_on_c, 0, 82, 80
2, 54326, Note_on_c, 0, 84, 0
2, 54326, Note_on_c, 0, 70, 80
2, 54329, Note_on_c, 0, 81, 0
2, 54329, Note_on_c, 0, 49, 80
2, 54332, Note_on_c, 0, 37, 80
2, 54346, Note_on_c, 0, 72, 0
2, 54384, Note_on_c, 0, 77, 0
2, 54384, Note_on_c, 0, 82, 0
2, 54387, Note_on_c, 0, 70, 0
2, 54405, Note_on_c, 0, 49, 0
2, 54408, Note_on_c, 0, 37, 0
2, 54441, Note_on_c, 0, 77, 80
2, 54441, Note_on_c, 0, 84, 80
2, 54444, Note_on_c, 0, 72, 80
2, 54449, Note_on_c, 0, 45, 80
2, 54452, Note_on_c, 0, 33, 80
2, 54493, Note_on_c, 0, 84, 0
2, 54493, Note_on_c, 0, 77, 0
2, 54510, Note_on_c, 0, 72, 0
2, 54513, Note_on_c, 0, 45, 0
2, 54547, Note_on_c, 0, 33, 0
2, 54564, Note_on_c, 0, 77, 80
2, 54564, Note_on_c, 0, 85, 80
2, 54567, Note_on_c, 0, 73, 80
2, 54572, Note_on_c, 0, 46, 80
2, 54575, Note_on_c, 0, 34, 80
2, 54625, Note_on_c, 0, 84, 80
2, 54628, Note_on_c, 0, 72, 80
2, 54631, Note_on_c, 0, 73, 0
2, 54631, Note_on_c, 0, 77, 0
2, 54631, Note_on_c, 0, 85, 0
2, 54650, Note_on_c, 0, 34, 0
2, 54650, Note_on_c, 0, 46, 0
2, 54687, Note_on_c, 0, 73, 80
2, 54687, Note_on_c, 0, 85, 80
2, 54690, Note_on_c, 0, 84, 0
2, 54690, Note_on_c, 0, 53, 80
2, 54690, Note_on_c, 0, 58, 80
2, 54690, Note_on_c, 0, 61, 80
2, 54704, Note_on_c, 0, 72, 0
2, 54738, Note_on_c, 0, 87, 80
2, 54741, Note_on_c, 0, 75, 80
2, 54744, Note_on_c, 0, 85, 0
2, 54746, Note_on_c, 0, 73, 0
2, 54749, Note_on_c, 0, 58, 0
2, 54762, Note_on_c, 0, 61, 0
2, 54765, Note_on_c, 0, 53, 0
2, 54806, Note_on_c, 0, 42, 80
2, 54806, Note_on_c, 0, 54, 80
2, 54818, Note_on_c, 0, 87, 0
2, 54821, Note_on_c, 0, 75, 0
2, 54858, Note_on_c, 0, 73, 80
2, 54858, Note_on_c, 0, 85, 80
2, 54882, Note_on_c, 0, 42, 0
2, 54882, Note_on_c, 0, 54, 0
2, 54915, Note_on_c, 0, 82, 80
2, 54918, Note_on_c, 0, 63, 80
2, 54921, Note_on_c, 0, 85, 0
2, 54921, Note_on_c, 0, 54, 80
2, 54921, Note_on_c, 0, 58, 80
2, 54921, Note_on_c, 0, 70, 80
2, 54924, Note_on_c, 0, 73, 0
2, 54965, Note_on_c, 0, 82, 0
2, 54983, Note_on_c, 0, 63, 0
2, 54983, Note_on_c, 0, 70, 0
2, 54985, Note_on_c, 0, 54, 0
2, 54985, Note_on_c, 0, 58, 0
2, 55036, Note_on_c, 0, 78, 80
2, 55036, Note_on_c, 0, 82, 80
2, 55041, Note_on_c, 0, 56, 80
2, 55041, Note_on_c, 0, 72, 80
2, 55044, Note_on_c, 0, 44, 80
2, 55085, Note_on_c, 0, 82, 0
2, 55088, Note_on_c, 0, 78, 0
2, 55098, Note_on_c, 0, 80, 80
2, 55105, Note_on_c, 0, 44, 0
2, 55105, Note_on_c, 0, 56, 0
2, 55144, Note_on_c, 0, 80, 0
2, 55156, Note_on_c, 0, 60, 80
2, 55156, Note_on_c, 0, 66, 80
2, 55156, Note_on_c, 0, 78, 80
2, 55159, Note_on_c, 0, 56, 80
2, 55188, Note_on_c, 0, 72, 0
2, 55202, Note_on_c, 0, 78, 0
2, 55205, Note_on_c, 0, 60, 0
2, 55205, Note_on_c, 0, 66, 0
2, 55213, Note_on_c, 0, 73, 80
2, 55216, Note_on_c, 0, 77, 80
2, 55224, Note_on_c, 0, 56, 0
2, 55277, Note_on_c, 0, 49, 80
2, 55280, Note_on_c, 0, 37, 80
2, 55323, Note_on_c, 0, 77, 0
2, 55323, Note_on_c, 0, 73, 0
2, 55336, Note_on_c, 0, 80, 80
2, 55344, Note_on_c, 0, 49, 0
2, 55346, Note_on_c, 0, 37, 0
2, 55385, Note_on_c, 0, 80, 0
2, 55394, Note_on_c, 0, 73, 80
2, 55394, Note_on_c, 0, 77, 80
2, 55397, Note_on_c, 0, 65, 80
2, 55400, Note_on_c, 0, 56, 80
2, 55400, Note_on_c, 0, 61, 80
2, 55441, Note_on_c, 0, 77, 0
2, 55446, Note_on_c, 0, 73, 0
2, 55446, Note_on_c, 0, 61, 0
2, 55446, Note_on_c, 0, 65, 0
2, 55449, Note_on_c, 0, 56, 0
2, 55512, Note_on_c, 0, 77, 80
2, 55512, Note_on_c, 0, 84, 80
2, 55517, Note_on_c, 0, 68, 80
2, 55517, Note_on_c, 0, 72, 80
2, 55573, Note_on_c, 0, 76, 80
2, 55576, Note_on_c, 0, 67, 80
2, 55579, Note_on_c, 0, 68, 0
2, 55579, Note_on_c, 0, 77, 0
2, 55663, Note_on_c, 0, 76, 0
2, 55666, Note_on_c, 0, 67, 0
2, 55688, Note_on_c, 0, 77, 80
2, 55691, Note_on_c, 0, 68, 80
2, 55764, Note_on_c, 0, 68, 0
2, 55807, Note_on_c, 0, 70, 80
2, 55807, Note_on_c, 0, 79, 80
2, 55810, Note_on_c, 0, 77, 0
2, 55810, Note_on_c, 0, 72, 0
2, 55853, Note_on_c, 0, 79, 0
2, 55853, Note_on_c, 0, 84, 0
2, 55863, Note_on_c, 0, 72, 80
2, 55863, Note_on_c, 0, 80, 80
2, 55868, Note_on_c, 0, 70, 0
2, 55923, Note_on_c, 0, 80, 0
2, 55926, Note_on_c, 0, 72, 0
2, 55985, Note_on_c, 0, 67, 80
2, 55985, Note_on_c, 0, 72, 80
2, 55985, Note_on_c, 0, 76, 80
2, 55985, Note_on_c, 0, 84, 80
2, 56043, Note_on_c, 0, 70, 80
2, 56043, Note_on_c, 0, 79, 80
2, 56046, Note_on_c, 0, 76, 0
2, 56046, Note_on_c, 0, 67, 0
2, 56119, Note_on_c, 0, 79, 0
2, 56136, Note_on_c, 0, 70, 0
2, 56160, Note_on_c, 0, 77, 80
2, 56163, Note_on_c, 0, 68, 80
2, 56268, Note_on_c, 0, 68, 0
2, 56268, Note_on_c, 0, 77, 0
2, 56268, Note_on_c, 0, 72, 0
2, 56336, Note_on_c, 0, 65, 80
2, 56336, Note_on_c, 0, 68, 80
2, 56336, Note_on_c, 0, 72, 80
2, 56336, Note_on_c, 0, 77, 80
2, 56339, Note_on_c, 0, 84, 0
2, 56342, Note_on_c, 0, 41, 80
2, 56342, Note_on_c, 0, 53, 80
2, 56398, Note_on_c, 0, 72, 0
2, 56398, Note_on_c, 0, 77, 0
2, 56398, Note_on_c, 0, 68, 0
2, 56400, Note_on_c, 0, 53, 0
2, 56403, Note_on_c, 0, 41, 0
2, 56411, Note_on_c, 0, 65, 0
2, 56452, Note_on_c, 0, 65, 80
2, 56452, Note_on_c, 0, 68, 80
2, 56452, Note_on_c, 0, 74, 80
2, 56455, Note_on_c, 0, 47, 80
2, 56458, Note_on_c, 0, 35, 80
2, 56512, Note_on_c, 0, 77, 80
2, 56515, Note_on_c, 0, 74, 0
2, 56518, Note_on_c, 0, 47, 0
2, 56518, Note_on_c, 0, 68, 0
2, 56532, Note_on_c, 0, 65, 0
2, 56535, Note_on_c, 0, 35, 0
2, 56568, Note_on_c, 0, 72, 80
2, 56571, Note_on_c, 0, 65, 80
2, 56571, Note_on_c, 0, 69, 80
2, 56576, Note_on_c, 0, 77, 0
2, 56576, Note_on_c, 0, 36, 80
2, 56576, Note_on_c, 0, 48, 80
2, 56646, Note_on_c, 0, 69, 0
2, 56661, Note_on_c, 0, 72, 0
2, 56661, Note_on_c, 0, 65, 0
2, 56664, Note_on_c, 0, 36, 0
2, 56664, Note_on_c, 0, 48, 0
2, 56686, Note_on_c, 0, 76, 80
2, 56688, Note_on_c, 0, 64, 80
2, 56688, Note_on_c, 0, 70, 80
2, 56691, Note_on_c, 0, 36, 80
2, 56691, Note_on_c, 0, 48, 80
2, 56740, Note_on_c, 0, 74, 80
2, 56745, Note_on_c, 0, 76, 0
2, 56748, Note_on_c, 0, 64, 0
2, 56748, Note_on_c, 0, 70, 0
2, 56765, Note_on_c, 0, 36, 0
2, 56765, Note_on_c, 0, 48, 0
2, 56802, Note_on_c, 0, 60, 80
2, 56802, Note_on_c, 0, 64, 80
2, 56802, Note_on_c, 0, 70, 80
2, 56802, Note_on_c, 0, 76, 80
2, 56805, Note_on_c, 0, 55, 80
2, 56805, Note_on_c, 0, 58, 80
2, 56808, Note_on_c, 0, 74, 0
2, 56846, Note_on_c, 0, 76, 0
2, 56846, Note_on_c, 0, 60, 0
2, 56846, Note_on_c, 0, 70, 0
2, 56846, Note_on_c, 0, 58, 0
2, 56856, Note_on_c, 0, 65, 80
2, 56856, Note_on_c, 0, 69, 80
2, 56856, Note_on_c, 0, 77, 80
2, 56860, Note_on_c, 0, 55, 0
2, 56860, Note_on_c, 0, 64, 0
2, 56919, Note_on_c, 0, 41, 80
2, 56933, Note_on_c, 0, 77, 0
2, 56972, Note_on_c, 0, 75, 80
2, 56975, Note_on_c, 0, 53, 80
2, 56979, Note_on_c, 0, 41, 0
2, 57021, Note_on_c, 0, 75, 0
2, 57021, Note_on_c, 0, 69, 0
2, 57030, Note_on_c, 0, 72, 80
2, 57033, Note_on_c, 0, 39, 80
2, 57038, Note_on_c, 0, 53, 0
2, 57092, Note_on_c, 0, 51, 80
2, 57092, Note_on_c, 0, 69, 80
2, 57095, Note_on_c, 0, 72, 0
2, 57099, Note_on_c, 0, 39, 0
2, 57109, Note_on_c, 0, 65, 0
2, 57150, Note_on_c, 0, 65, 80
2, 57153, Note_on_c, 0, 69, 0
2, 57153, Note_on_c, 0, 38, 80
2, 57153, Note_on_c, 0, 50, 80
2, 57172, Note_on_c, 0, 51, 0
2, 57211, Note_on_c, 0, 63, 80
2, 57214, Note_on_c, 0, 65, 0
2, 57216, Note_on_c, 0, 38, 0
2, 57260, Note_on_c, 0, 50, 0
2, 57269, Note_on_c, 0, 36, 80
2, 57303, Note_on_c, 0, 63, 0
2, 57330, Note_on_c, 0, 65, 80
2, 57333, Note_on_c, 0, 48, 80
2, 57337, Note_on_c, 0, 36, 0
2, 57391, Note_on_c, 0, 74, 80
2, 57394, Note_on_c, 0, 46, 80
2, 57394, Note_on_c, 0, 62, 80
2, 57397, Note_on_c, 0, 65, 0
2, 57400, Note_on_c, 0, 48, 0
2, 57456, Note_on_c, 0, 82, 80
2, 57516, Note_on_c, 0, 79, 80
2, 57519, Note_on_c, 0, 82, 0
2, 57519, Note_on_c, 0, 53, 80
2, 57519, Note_on_c, 0, 58, 80
2, 57562, Note_on_c, 0, 74, 0
2, 57562, Note_on_c, 0, 79, 0
2, 57572, Note_on_c, 0, 77, 80
2, 57576, Note_on_c, 0, 53, 0
2, 57576, Note_on_c, 0, 62, 0
2, 57576, Note_on_c, 0, 58, 0
2, 57608, Note_on_c, 0, 46, 0
2, 57621, Note_on_c, 0, 77, 0
2, 57630, Note_on_c, 0, 75, 80
2, 57633, Note_on_c, 0, 48, 80
2, 57633, Note_on_c, 0, 63, 80
2, 57692, Note_on_c, 0, 84, 80
2, 57752, Note_on_c, 0, 53, 80
2, 57752, Note_on_c, 0, 57, 80
2, 57769, Note_on_c, 0, 84, 0
2, 57811, Note_on_c, 0, 85, 80
2, 57814, Note_on_c, 0, 75, 0
2, 57814, Note_on_c, 0, 53, 0
2, 57814, Note_on_c, 0, 63, 0
2, 57814, Note_on_c, 0, 57, 0
2, 57831, Note_on_c, 0, 48, 0
2, 57869, Note_on_c, 0, 74, 80
2, 57869, Note_on_c, 0, 86, 80
2, 57872, Note_on_c, 0, 46, 80
2, 57872, Note_on_c, 0, 62, 80
2, 57875, Note_on_c, 0, 85, 0
2, 57929, Note_on_c, 0, 77, 80
2, 57932, Note_on_c, 0, 86, 0
2, 57935, Note_on_c, 0, 46, 0
2, 57978, Note_on_c, 0, 77, 0
2, 57981, Note_on_c, 0, 74, 0
2, 57990, Note_on_c, 0, 58, 80
2, 57990, Note_on_c, 0, 82, 80
2, 57993, Note_on_c, 0, 53, 80
2, 58047, Note_on_c, 0, 74, 80
2, 58066, Note_on_c, 0, 53, 0
2, 58066, Note_on_c, 0, 82, 0
2, 58066, Note_on_c, 0, 62, 0
2, 58066, Note_on_c, 0, 58, 0
2, 58104, Note_on_c, 0, 73, 80
2, 58104, Note_on_c, 0, 79, 80
2, 58107, Note_on_c, 0, 46, 80
2, 58110, Note_on_c, 0, 74, 0
2, 58152, Note_on_c, 0, 79, 0
2, 58161, Note_on_c, 0, 74, 80
2, 58161, Note_on_c, 0, 77, 80
2, 58166, Note_on_c, 0, 73, 0
2, 58166, Note_on_c, 0, 46, 0
2, 58222, Note_on_c, 0, 53, 80
2, 58222, Note_on_c, 0, 58, 80
2, 58282, Note_on_c, 0, 77, 0
2, 58285, Note_on_c, 0, 74, 0
2, 58285, Note_on_c, 0, 53, 0
2, 58285, Note_on_c, 0, 58, 0
2, 58339, Note_on_c, 0, 75, 80
2, 58339, Note_on_c, 0, 77, 80
2, 58344, Note_on_c, 0, 45, 80
2, 58361, Note_on_c, 0, 77, 0
2, 58361, Note_on_c, 0, 75, 0
2, 58397, Note_on_c, 0, 75, 80
2, 58400, Note_on_c, 0, 77, 80
2, 58405, Note_on_c, 0, 45, 0
2, 58459, Note_on_c, 0, 53, 80
2, 58462, Note_on_c, 0, 77, 0
2, 58462, Note_on_c, 0, 75, 0
2, 58462, Note_on_c, 0, 57, 80
2, 58515, Note_on_c, 0, 75, 80
2, 58515, Note_on_c, 0, 77, 80
2, 58523, Note_on_c, 0, 57, 0
2, 58523, Note_on_c, 0, 53, 0
2, 58582, Note_on_c, 0, 41, 80
2, 58596, Note_on_c, 0, 77, 0
2, 58625, Note_on_c, 0, 75, 0
2, 58637, Note_on_c, 0, 79, 80
2, 58642, Note_on_c, 0, 41, 0
2, 58696, Note_on_c, 0, 75, 80
2, 58696, Note_on_c, 0, 77, 80
2, 58699, Note_on_c, 0, 53, 80
2, 58699, Note_on_c, 0, 57, 80
2, 58702, Note_on_c, 0, 79, 0
2, 58745, Note_on_c, 0, 75, 0
2, 58762, Note_on_c, 0, 53, 0
2, 58762, Note_on_c, 0, 77, 0
2, 58762, Note_on_c, 0, 57, 0
2, 58813, Note_on_c, 0, 74, 80
2, 58813, Note_on_c, 0, 77, 80
2, 58816, Note_on_c, 0, 46, 80
2, 58833, Note_on_c, 0, 77, 0
2, 58833, Note_on_c, 0, 74, 0
2, 58872, Note_on_c, 0, 74, 80
2, 58872, Note_on_c, 0, 77, 80
2, 58876, Note_on_c, 0, 46, 0
2, 58930, Note_on_c, 0, 53, 80
2, 58930, Note_on_c, 0, 58, 80
2, 58933, Note_on_c, 0, 77, 0
2, 58933, Note_on_c, 0, 74, 0
2, 58987, Note_on_c, 0, 74, 80
2, 58990, Note_on_c, 0, 77, 80
2, 58994, Note_on_c, 0, 53, 0
2, 58997, Note_on_c, 0, 58, 0
2, 59053, Note_on_c, 0, 41, 80
2, 59085, Note_on_c, 0, 77, 0
2, 59097, Note_on_c, 0, 74, 0
2, 59110, Note_on_c, 0, 79, 80
2, 59114, Note_on_c, 0, 41, 0
2, 59168, Note_on_c, 0, 58, 80
2, 59168, Note_on_c, 0, 74, 80
2, 59171, Note_on_c, 0, 53, 80
2, 59171, Note_on_c, 0, 77, 80
2, 59176, Note_on_c, 0, 79, 0
2, 59232, Note_on_c, 0, 53, 0
2, 59232, Note_on_c, 0, 58, 0
2, 59232, Note_on_c, 0, 74, 0
2, 59232, Note_on_c, 0, 77, 0
2, 59282, Note_on_c, 0, 74, 80
2, 59285, Note_on_c, 0, 46, 80
2, 59285, Note_on_c, 0, 62, 80
2, 59346, Note_on_c, 0, 82, 80
2, 59401, Note_on_c, 0, 79, 80
2, 59404, Note_on_c, 0, 53, 80
2, 59404, Note_on_c, 0, 58, 80
2, 59407, Note_on_c, 0, 82, 0
2, 59450, Note_on_c, 0, 79, 0
2, 59450, Note_on_c, 0, 74, 0
2, 59460, Note_on_c, 0, 77, 80
2, 59463, Note_on_c, 0, 46, 0
2, 59463, Note_on_c, 0, 62, 0
2, 59466, Note_on_c, 0, 53, 0
2, 59466, Note_on_c, 0, 58, 0
2, 59507, Note_on_c, 0, 77, 0
2, 59517, Note_on_c, 0, 75, 80
2, 59520, Note_on_c, 0, 48, 80
2, 59520, Note_on_c, 0, 63, 80
2, 59580, Note_on_c, 0, 84, 80
2, 59631, Note_on_c, 0, 53, 80
2, 59631, Note_on_c, 0, 57, 80
2, 59650, Note_on_c, 0, 84, 0
2, 59674, Note_on_c, 0, 75, 0
2, 59674, Note_on_c, 0, 63, 0
2, 59674, Note_on_c, 0, 53, 0
2, 59674, Note_on_c, 0, 57, 0
2, 59687, Note_on_c, 0, 85, 80
2, 59689, Note_on_c, 0, 48, 0
2, 59743, Note_on_c, 0, 46, 80
2, 59743, Note_on_c, 0, 62, 80
2, 59743, Note_on_c, 0, 74, 80
2, 59746, Note_on_c, 0, 86, 80
2, 59749, Note_on_c, 0, 85, 0
2, 59800, Note_on_c, 0, 77, 80
2, 59805, Note_on_c, 0, 46, 0
2, 59805, Note_on_c, 0, 86, 0
2, 59860, Note_on_c, 0, 53, 80
2, 59860, Note_on_c, 0, 58, 80
2, 59860, Note_on_c, 0, 82, 80
2, 59865, Note_on_c, 0, 77, 0
2, 59916, Note_on_c, 0, 86, 80
2, 59921, Note_on_c, 0, 58, 0
2, 59921, Note_on_c, 0, 53, 0
2, 59921, Note_on_c, 0, 82, 0
2, 59948, Note_on_c, 0, 74, 0
2, 59948, Note_on_c, 0, 86, 0
2, 59951, Note_on_c, 0, 62, 0
2, 59975, Note_on_c, 0, 46, 80
2, 59975, Note_on_c, 0, 58, 80
2, 59975, Note_on_c, 0, 86, 80
2, 59975, Note_on_c, 0, 91, 80
2, 60033, Note_on_c, 0, 94, 80
2, 60036, Note_on_c, 0, 91, 0
2, 60036, Note_on_c, 0, 58, 0
2, 60036, Note_on_c, 0, 46, 0
2, 60092, Note_on_c, 0, 43, 80
2, 60092, Note_on_c, 0, 55, 80
2, 60138, Note_on_c, 0, 43, 0
2, 60138, Note_on_c, 0, 94, 0
2, 60138, Note_on_c, 0, 86, 0
2, 60155, Note_on_c, 0, 55, 0
2, 60206, Note_on_c, 0, 42, 80
2, 60206, Note_on_c, 0, 54, 80
2, 60209, Note_on_c, 0, 93, 80
2, 60267, Note_on_c, 0, 96, 80
2, 60275, Note_on_c, 0, 93, 0
2, 60288, Note_on_c, 0, 42, 0
2, 60288, Note_on_c, 0, 54, 0
2, 60329, Note_on_c, 0, 54, 80
2, 60329, Note_on_c, 0, 60, 80
2, 60329, Note_on_c, 0, 62, 80
2, 60329, Note_on_c, 0, 98, 80
2, 60334, Note_on_c, 0, 96, 0
2, 60392, Note_on_c, 0, 90, 80
2, 60392, Note_on_c, 0, 99, 80
2, 60395, Note_on_c, 0, 62, 0
2, 60395, Note_on_c, 0, 54, 0
2, 60395, Note_on_c, 0, 60, 0
2, 60398, Note_on_c, 0, 98, 0
2, 60454, Note_on_c, 0, 38, 80
2, 60454, Note_on_c, 0, 50, 80
2, 60473, Note_on_c, 0, 90, 0
2, 60473, Note_on_c, 0, 99, 0
2, 60511, Note_on_c, 0, 98, 80
2, 60514, Note_on_c, 0, 38, 0
2, 60514, Note_on_c, 0, 50, 0
2, 60570, Note_on_c, 0, 54, 80
2, 60570, Note_on_c, 0, 60, 80
2, 60570, Note_on_c, 0, 62, 80
2, 60573, Note_on_c, 0, 90, 80
2, 60573, Note_on_c, 0, 93, 80
2, 60577, Note_on_c, 0, 98, 0
2, 60636, Note_on_c, 0, 90, 0
2, 60636, Note_on_c, 0, 93, 0
2, 60646, Note_on_c, 0, 60, 0
2, 60646, Note_on_c, 0, 54, 0
2, 60648, Note_on_c, 0, 62, 0
2, 60690, Note_on_c, 0, 43, 80
2, 60690, Note_on_c, 0, 55, 80
2, 60693, Note_on_c, 0, 91, 80
2, 60693, Note_on_c, 0, 96, 80
2, 60751, Note_on_c, 0, 55, 0
2, 60751, Note_on_c, 0, 43, 0
2, 60751, Note_on_c, 0, 94, 80
2, 60754, Note_on_c, 0, 96, 0
2, 60808, Note_on_c, 0, 55, 80
2, 60808, Note_on_c, 0, 58, 80
2, 60808, Note_on_c, 0, 62, 80
2, 60811, Note_on_c, 0, 93, 80
2, 60816, Note_on_c, 0, 94, 0
2, 60866, Note_on_c, 0, 94, 80
2, 60871, Note_on_c, 0, 62, 0
2, 60871, Note_on_c, 0, 58, 0
2, 60871, Note_on_c, 0, 93, 0
2, 60884, Note_on_c, 0, 55, 0
2, 60925, Note_on_c, 0, 38, 80
2, 60925, Note_on_c, 0, 50, 80
2, 60944, Note_on_c, 0, 94, 0
2, 60944, Note_on_c, 0, 91, 0
2, 60985, Note_on_c, 0, 38, 0
2, 60985, Note_on_c, 0, 50, 0
2, 61041, Note_on_c, 0, 55, 80
2, 61041, Note_on_c, 0, 58, 80
2, 61041, Note_on_c, 0, 62, 80
2, 61100, Note_on_c, 0, 87, 80
2, 61100, Note_on_c, 0, 94, 80
2, 61103, Note_on_c, 0, 62, 0
2, 61103, Note_on_c, 0, 58, 0
2, 61120, Note_on_c, 0, 55, 0
2, 61156, Note_on_c, 0, 55, 80
2, 61159, Note_on_c, 0, 43, 80
2, 61220, Note_on_c, 0, 82, 80
2, 61223, Note_on_c, 0, 43, 0
2, 61225, Note_on_c, 0, 94, 0
2, 61225, Note_on_c, 0, 87, 0
2, 61238, Note_on_c, 0, 55, 0
2, 61281, Note_on_c, 0, 39, 80
2, 61281, Note_on_c, 0, 51, 80
2, 61284, Note_on_c, 0, 87, 80
2, 61284, Note_on_c, 0, 91, 80
2, 61287, Note_on_c, 0, 82, 0
2, 61330, Note_on_c, 0, 87, 0
2, 61340, Note_on_c, 0, 79, 80
2, 61344, Note_on_c, 0, 39, 0
2, 61373, Note_on_c, 0, 51, 0
2, 61397, Note_on_c, 0, 50, 80
2, 61400, Note_on_c, 0, 38, 80
2, 61400, Note_on_c, 0, 82, 80
2, 61405, Note_on_c, 0, 79, 0
2, 61456, Note_on_c, 0, 86, 80
2, 61456, Note_on_c, 0, 89, 80
2, 61461, Note_on_c, 0, 38, 0
2, 61461, Note_on_c, 0, 82, 0
2, 61461, Note_on_c, 0, 50, 0
2, 61464, Note_on_c, 0, 91, 0
2, 61517, Note_on_c, 0, 53, 80
2, 61517, Note_on_c, 0, 58, 80
2, 61517, Note_on_c, 0, 62, 80
2, 61535, Note_on_c, 0, 86, 0
2, 61576, Note_on_c, 0, 77, 80
2, 61579, Note_on_c, 0, 58, 0
2, 61579, Note_on_c, 0, 62, 0
2, 61579, Note_on_c, 0, 89, 0
2, 61579, Note_on_c, 0, 53, 0
2, 61634, Note_on_c, 0, 41, 80
2, 61634, Note_on_c, 0, 53, 80
2, 61634, Note_on_c, 0, 84, 80
2, 61634, Note_on_c, 0, 87, 80
2, 61639, Note_on_c, 0, 77, 0
2, 61680, Note_on_c, 0, 84, 0
2, 61680, Note_on_c, 0, 87, 0
2, 61680, Note_on_c, 0, 53, 0
2, 61693, Note_on_c, 0, 41, 0
2, 61693, Note_on_c, 0, 79, 80
2, 61752, Note_on_c, 0, 53, 80
2, 61752, Note_on_c, 0, 57, 80
2, 61752, Note_on_c, 0, 63, 80
2, 61752, Note_on_c, 0, 81, 80
2, 61752, Note_on_c, 0, 87, 80
2, 61756, Note_on_c, 0, 79, 0
2, 61798, Note_on_c, 0, 87, 0
2, 61807, Note_on_c, 0, 82, 80
2, 61807, Note_on_c, 0, 86, 80
2, 61810, Note_on_c, 0, 63, 0
2, 61810, Note_on_c, 0, 81, 0
2, 61810, Note_on_c, 0, 53, 0
2, 61810, Note_on_c, 0, 57, 0
2, 61859, Note_on_c, 0, 58, 80
2, 61864, Note_on_c, 0, 46, 80
2, 61922, Note_on_c, 0, 77, 80
2, 61925, Note_on_c, 0, 46, 0
2, 61928, Note_on_c, 0, 58, 0
2, 61928, Note_on_c, 0, 82, 0
2, 61928, Note_on_c, 0, 86, 0
2, 61979, Note_on_c, 0, 44, 80
2, 61979, Note_on_c, 0, 56, 80
2, 61979, Note_on_c, 0, 86, 80
2, 61979, Note_on_c, 0, 89, 80
2, 61987, Note_on_c, 0, 77, 0
2, 62030, Note_on_c, 0, 89, 0
2, 62042, Note_on_c, 0, 44, 0
2, 62042, Note_on_c, 0, 56, 0
2, 62042, Note_on_c, 0, 86, 0
2, 62096, Note_on_c, 0, 43, 80
2, 62096, Note_on_c, 0, 55, 80
2, 62096, Note_on_c, 0, 94, 80
2, 62099, Note_on_c, 0, 87, 80
2, 62155, Note_on_c, 0, 82, 80
2, 62158, Note_on_c, 0, 87, 0
2, 62158, Note_on_c, 0, 55, 0
2, 62158, Note_on_c, 0, 43, 0
2, 62204, Note_on_c, 0, 94, 0
2, 62204, Note_on_c, 0, 82, 0
2, 62213, Note_on_c, 0, 39, 80
2, 62213, Note_on_c, 0, 51, 80
2, 62216, Note_on_c, 0, 87, 80
2, 62216, Note_on_c, 0, 91, 80
2, 62275, Note_on_c, 0, 79, 80
2, 62278, Note_on_c, 0, 39, 0
2, 62280, Note_on_c, 0, 87, 0
2, 62293, Note_on_c, 0, 51, 0
2, 62334, Note_on_c, 0, 38, 80
2, 62334, Note_on_c, 0, 50, 80
2, 62337, Note_on_c, 0, 82, 80
2, 62340, Note_on_c, 0, 79, 0
2, 62340, Note_on_c, 0, 91, 0
2, 62396, Note_on_c, 0, 86, 80
2, 62399, Note_on_c, 0, 89, 80
2, 62401, Note_on_c, 0, 82, 0
2, 62414, Note_on_c, 0, 50, 0
2, 62417, Note_on_c, 0, 38, 0
2, 62455, Note_on_c, 0, 53, 80
2, 62458, Note_on_c, 0, 58, 80
2, 62458, Note_on_c, 0, 62, 80
2, 62492, Note_on_c, 0, 86, 0
2, 62492, Note_on_c, 0, 89, 0
2, 62516, Note_on_c, 0, 77, 80
2, 62520, Note_on_c, 0, 58, 0
2, 62520, Note_on_c, 0, 62, 0
2, 62523, Note_on_c, 0, 53, 0
2, 62565, Note_on_c, 0, 77, 0
2, 62574, Note_on_c, 0, 41, 80
2, 62574, Note_on_c, 0, 53, 80
2, 62577, Note_on_c, 0, 84, 80
2, 62577, Note_on_c, 0, 87, 80
2, 62633, Note_on_c, 0, 79, 80
2, 62636, Note_on_c, 0, 53, 0
2, 62636, Note_on_c, 0, 41, 0
2, 62639, Note_on_c, 0, 87, 0
2, 62639, Note_on_c, 0, 84, 0
2, 62689, Note_on_c, 0, 53, 80
2, 62689, Note_on_c, 0, 87, 80
2, 62692, Note_on_c, 0, 57, 80
2, 62692, Note_on_c, 0, 63, 80
2, 62692, Note_on_c, 0, 81, 80
2, 62695, Note_on_c, 0, 79, 0
2, 62749, Note_on_c, 0, 82, 80
2, 62749, Note_on_c, 0, 86, 80
2, 62752, Note_on_c, 0, 53, 0
2, 62755, Note_on_c, 0, 87, 0
2, 62755, Note_on_c, 0, 57, 0
2, 62755, Note_on_c, 0, 63, 0
2, 62755, Note_on_c, 0, 81, 0
2, 62806, Note_on_c, 0, 46, 80
2, 62806, Note_on_c, 0, 58, 80
2, 62866, Note_on_c, 0, 58, 0
2, 62866, Note_on_c, 0, 46, 0
2, 62912, Note_on_c, 0, 82, 0
2, 62920, Note_on_c, 0, 41, 80
2, 62920, Note_on_c, 0, 53, 80
2, 62925, Note_on_c, 0, 86, 0
2, 62980, Note_on_c, 0, 41, 0
2, 62980, Note_on_c, 0, 87, 80
2, 62980, Note_on_c, 0, 94, 80
2, 62983, Note_on_c, 0, 53, 0
2, 63037, Note_on_c, 0, 43, 80
2, 63037, Note_on_c, 0, 55, 80
2, 63088, Note_on_c, 0, 87, 0
2, 63100, Note_on_c, 0, 43, 0
2, 63100, Note_on_c, 0, 82, 80
2, 63103, Note_on_c, 0, 55, 0
2, 63154, Note_on_c, 0, 39, 80
2, 63157, Note_on_c, 0, 51, 80
2, 63157, Note_on_c, 0, 87, 80
2, 63157, Note_on_c, 0, 91, 80
2, 63165, Note_on_c, 0, 82, 0
2, 63165, Note_on_c, 0, 94, 0
2, 63218, Note_on_c, 0, 79, 80
2, 63221, Note_on_c, 0, 39, 0
2, 63224, Note_on_c, 0, 87, 0
2, 63234, Note_on_c, 0, 51, 0
2, 63267, Note_on_c, 0, 91, 0
2, 63267, Note_on_c, 0, 79, 0
2, 63275, Note_on_c, 0, 38, 80
2, 63275, Note_on_c, 0, 50, 80
2, 63278, Note_on_c, 0, 82, 80
2, 63334, Note_on_c, 0, 86, 80
2, 63336, Note_on_c, 0, 89, 80
2, 63339, Note_on_c, 0, 82, 0
2, 63352, Note_on_c, 0, 38, 0
2, 63355, Note_on_c, 0, 50, 0
2, 63393, Note_on_c, 0, 53, 80
2, 63393, Note_on_c, 0, 58, 80
2, 63393, Note_on_c, 0, 62, 80
2, 63449, Note_on_c, 0, 77, 80
2, 63452, Note_on_c, 0, 62, 0
2, 63452, Note_on_c, 0, 58, 0
2, 63455, Note_on_c, 0, 53, 0
2, 63455, Note_on_c, 0, 86, 0
2, 63455, Note_on_c, 0, 89, 0
2, 63505, Note_on_c, 0, 53, 80
2, 63508, Note_on_c, 0, 41, 80
2, 63511, Note_on_c, 0, 84, 80
2, 63511, Note_on_c, 0, 87, 80
2, 63514, Note_on_c, 0, 77, 0
2, 63560, Note_on_c, 0, 87, 0
2, 63570, Note_on_c, 0, 41, 0
2, 63570, Note_on_c, 0, 79, 80
2, 63573, Note_on_c, 0, 53, 0
2, 63576, Note_on_c, 0, 84, 0
2, 63619, Note_on_c, 0, 79, 0
2, 63626, Note_on_c, 0, 53, 80
2, 63629, Note_on_c, 0, 57, 80
2, 63629, Note_on_c, 0, 63, 80
2, 63632, Note_on_c, 0, 81, 80
2, 63632, Note_on_c, 0, 87, 80
2, 63683, Note_on_c, 0, 87, 0
2, 63693, Note_on_c, 0, 53, 0
2, 63693, Note_on_c, 0, 63, 0
2, 63693, Note_on_c, 0, 57, 0
2, 63693, Note_on_c, 0, 82, 80
2, 63693, Note_on_c, 0, 86, 80
2, 63696, Note_on_c, 0, 81, 0
2, 63746, Note_on_c, 0, 46, 80
2, 63807, Note_on_c, 0, 58, 80
2, 63810, Note_on_c, 0, 46, 0
2, 63810, Note_on_c, 0, 77, 80
2, 63813, Note_on_c, 0, 82, 0
2, 63813, Note_on_c, 0, 86, 0
2, 63866, Note_on_c, 0, 44, 80
2, 63871, Note_on_c, 0, 86, 80
2, 63871, Note_on_c, 0, 89, 80
2, 63874, Note_on_c, 0, 58, 0
2, 63874, Note_on_c, 0, 77, 0
2, 63915, Note_on_c, 0, 44, 0
2, 63923, Note_on_c, 0, 86, 0
2, 63923, Note_on_c, 0, 89, 0
2, 63931, Note_on_c, 0, 56, 80
2, 63986, Note_on_c, 0, 43, 80
2, 63991, Note_on_c, 0, 87, 80
2, 63991, Note_on_c, 0, 94, 80
2, 63994, Note_on_c, 0, 56, 0
2, 64043, Note_on_c, 0, 87, 0
2, 64048, Note_on_c, 0, 55, 80
2, 64051, Note_on_c, 0, 82, 80
2, 64054, Note_on_c, 0, 43, 0
2, 64103, Note_on_c, 0, 94, 0
2, 64110, Note_on_c, 0, 39, 80
2, 64110, Note_on_c, 0, 87, 80
2, 64113, Note_on_c, 0, 91, 80
2, 64116, Note_on_c, 0, 55, 0
2, 64130, Note_on_c, 0, 82, 0
2, 64169, Note_on_c, 0, 51, 80
2, 64172, Note_on_c, 0, 39, 0
2, 64172, Note_on_c, 0, 79, 80
2, 64175, Note_on_c, 0, 87, 0
2, 64221, Note_on_c, 0, 79, 0
2, 64224, Note_on_c, 0, 91, 0
2, 64231, Note_on_c, 0, 38, 80
2, 64231, Note_on_c, 0, 82, 80
2, 64248, Note_on_c, 0, 51, 0
2, 64292, Note_on_c, 0, 50, 80
2, 64295, Note_on_c, 0, 38, 0
2, 64295, Note_on_c, 0, 86, 80
2, 64295, Note_on_c, 0, 89, 80
2, 64297, Note_on_c, 0, 82, 0
2, 64348, Note_on_c, 0, 53, 80
2, 64348, Note_on_c, 0, 58, 80
2, 64348, Note_on_c, 0, 62, 80
2, 64351, Note_on_c, 0, 50, 0
2, 64368, Note_on_c, 0, 89, 0
2, 64386, Note_on_c, 0, 86, 0
2, 64413, Note_on_c, 0, 53, 0
2, 64413, Note_on_c, 0, 58, 0
2, 64416, Note_on_c, 0, 62, 0
2, 64466, Note_on_c, 0, 53, 80
2, 64469, Note_on_c, 0, 41, 80
2, 64469, Note_on_c, 0, 84, 80
2, 64472, Note_on_c, 0, 87, 80
2, 64528, Note_on_c, 0, 41, 0
2, 64528, Note_on_c, 0, 79, 80
2, 64531, Note_on_c, 0, 53, 0
2, 64534, Note_on_c, 0, 87, 0
2, 64534, Note_on_c, 0, 84, 0
2, 64583, Note_on_c, 0, 53, 80
2, 64585, Note_on_c, 0, 57, 80
2, 64588, Note_on_c, 0, 63, 80
2, 64588, Note_on_c, 0, 81, 80
2, 64588, Note_on_c, 0, 87, 80
2, 64591, Note_on_c, 0, 79, 0
2, 64634, Note_on_c, 0, 53, 0
2, 64634, Note_on_c, 0, 57, 0
2, 64637, Note_on_c, 0, 87, 0
2, 64647, Note_on_c, 0, 82, 80
2, 64647, Note_on_c, 0, 86, 80
2, 64650, Note_on_c, 0, 63, 0
2, 64653, Note_on_c, 0, 81, 0
2, 64702, Note_on_c, 0, 46, 80
2, 64704, Note_on_c, 0, 58, 80
2, 64748, Note_on_c, 0, 46, 0
2, 64751, Note_on_c, 0, 58, 0
2, 64751, Note_on_c, 0, 82, 0
2, 64753, Note_on_c, 0, 86, 0
2, 64824, Note_on_c, 0, 70, 80
2, 64824, Note_on_c, 0, 74, 80
2, 64870, Note_on_c, 0, 74, 0
2, 64870, Note_on_c, 0, 70, 0
2, 64884, Note_on_c, 0, 72, 80
2, 64884, Note_on_c, 0, 75, 80
2, 64943, Note_on_c, 0, 74, 80
2, 64943, Note_on_c, 0, 77, 80
2, 64945, Note_on_c, 0, 75, 0
2, 64945, Note_on_c, 0, 72, 0
2, 64989, Note_on_c, 0, 74, 0
2, 64989, Note_on_c, 0, 77, 0
2, 65057, Note_on_c, 0, 75, 80
2, 65057, Note_on_c, 0, 79, 80
2, 65229, Note_on_c, 0, 79, 0
2, 65229, Note_on_c, 0, 75, 0
2, 65297, Note_on_c, 0, 75, 80
2, 65297, Note_on_c, 0, 78, 80
2, 65346, Note_on_c, 0, 78, 0
2, 65346, Note_on_c, 0, 75, 0
2, 65416, Note_on_c, 0, 75, 80
2, 65416, Note_on_c, 0, 78, 80
2, 65462, Note_on_c, 0, 78, 0
2, 65462, Note_on_c, 0, 75, 0
2, 65474, Note_on_c, 0, 74, 80
2, 65474, Note_on_c, 0, 77, 80
2, 65533, Note_on_c, 0, 82, 80
2, 65538, Note_on_c, 0, 77, 0
2, 65552, Note_on_c, 0, 82, 0
2, 65591, Note_on_c, 0, 77, 80
2, 65591, Note_on_c, 0, 82, 80
2, 65591, Note_on_c, 0, 86, 80
2, 65610, Note_on_c, 0, 74, 0
2, 65648, Note_on_c, 0, 65, 80
2, 65667, Note_on_c, 0, 77, 0
2, 65667, Note_on_c, 0, 86, 0
2, 65667, Note_on_c, 0, 82, 0
2, 65706, Note_on_c, 0, 82, 80
2, 65709, Note_on_c, 0, 74, 80
2, 65726, Note_on_c, 0, 65, 0
2, 65764, Note_on_c, 0, 53, 80
2, 65764, Note_on_c, 0, 65, 80
2, 65764, Note_on_c, 0, 75, 80
2, 65764, Note_on_c, 0, 81, 80
2, 65764, Note_on_c, 0, 84, 80
2, 65769, Note_on_c, 0, 74, 0
2, 65772, Note_on_c, 0, 82, 0
2, 65810, Note_on_c, 0, 53, 0
2, 65810, Note_on_c, 0, 75, 0
2, 65810, Note_on_c, 0, 81, 0
2, 65810, Note_on_c, 0, 84, 0
2, 65823, Note_on_c, 0, 65, 0
2, 65879, Note_on_c, 0, 58, 80
2, 65879, Note_on_c, 0, 65, 80
2, 65879, Note_on_c, 0, 74, 80
2, 65879, Note_on_c, 0, 82, 80
2, 65939, Note_on_c, 0, 74, 0
2, 65939, Note_on_c, 0, 58, 0
2, 65942, Note_on_c, 0, 82, 0
2, 65954, Note_on_c, 0, 65, 0
2, 65996, Note_on_c, 0, 74, 80
2, 65999, Note_on_c, 0, 77, 80
2, 66054, Note_on_c, 0, 82, 80
2, 66057, Note_on_c, 0, 74, 0
2, 66060, Note_on_c, 0, 77, 0
2, 66114, Note_on_c, 0, 70, 80
2, 66114, Note_on_c, 0, 74, 80
2, 66119, Note_on_c, 0, 82, 0
2, 66162, Note_on_c, 0, 74, 0
2, 66162, Note_on_c, 0, 70, 0
2, 66171, Note_on_c, 0, 77, 80
2, 66230, Note_on_c, 0, 65, 80
2, 66230, Note_on_c, 0, 70, 80
2, 66235, Note_on_c, 0, 77, 0
2, 66284, Note_on_c, 0, 74, 80
2, 66291, Note_on_c, 0, 70, 0
2, 66306, Note_on_c, 0, 65, 0
2, 66335, Note_on_c, 0, 74, 0
2, 66344, Note_on_c, 0, 62, 80
2, 66344, Note_on_c, 0, 65, 80
2, 66395, Note_on_c, 0, 62, 0
2, 66408, Note_on_c, 0, 65, 0
2, 66461, Note_on_c, 0, 62, 80
2, 66461, Note_on_c, 0, 65, 80
2, 66520, Note_on_c, 0, 61, 80
2, 66520, Note_on_c, 0, 64, 80
2, 66525, Note_on_c, 0, 65, 0
2, 66525, Note_on_c, 0, 62, 0
2, 66576, Note_on_c, 0, 62, 80
2, 66576, Note_on_c, 0, 65, 80
2, 66580, Note_on_c, 0, 61, 0
2, 66580, Note_on_c, 0, 64, 0
2, 66641, Note_on_c, 0, 62, 0
2, 66653, Note_on_c, 0, 65, 0
2, 66695, Note_on_c, 0, 58, 80
2, 66695, Note_on_c, 0, 62, 80
2, 66750, Note_on_c, 0, 60, 80
2, 66750, Note_on_c, 0, 63, 80
2, 66758, Note_on_c, 0, 62, 0
2, 66758, Note_on_c, 0, 58, 0
2, 66812, Note_on_c, 0, 62, 80
2, 66812, Note_on_c, 0, 65, 80
2, 66816, Note_on_c, 0, 60, 0
2, 66816, Note_on_c, 0, 63, 0
2, 66860, Note_on_c, 0, 62, 0
2, 66923, Note_on_c, 0, 65, 0
2, 66933, Note_on_c, 0, 63, 80
2, 66933, Note_on_c, 0, 67, 80
2, 67112, Note_on_c, 0, 63, 0
2, 67115, Note_on_c, 0, 67, 0
2, 67171, Note_on_c, 0, 63, 80
2, 67171, Note_on_c, 0, 66, 80
2, 67234, Note_on_c, 0, 66, 0
2, 67234, Note_on_c, 0, 63, 0
2, 67290, Note_on_c, 0, 63, 80
2, 67290, Note_on_c, 0, 66, 80
2, 67339, Note_on_c, 0, 66, 0
2, 67339, Note_on_c, 0, 63, 0
2, 67346, Note_on_c, 0, 62, 80
2, 67349, Note_on_c, 0, 65, 80
2, 67408, Note_on_c, 0, 70, 80
2, 67425, Note_on_c, 0, 70, 0
2, 67425, Note_on_c, 0, 65, 0
2, 67464, Note_on_c, 0, 65, 80
2, 67464, Note_on_c, 0, 70, 80
2, 67464, Note_on_c, 0, 74, 80
2, 67495, Note_on_c, 0, 62, 0
2, 67519, Note_on_c, 0, 53, 80
2, 67538, Note_on_c, 0, 74, 0
2, 67538, Note_on_c, 0, 70, 0
2, 67567, Note_on_c, 0, 65, 0
2, 67577, Note_on_c, 0, 62, 80
2, 67577, Note_on_c, 0, 70, 80
2, 67582, Note_on_c, 0, 53, 0
2, 67635, Note_on_c, 0, 41, 80
2, 67635, Note_on_c, 0, 53, 80
2, 67635, Note_on_c, 0, 69, 80
2, 67635, Note_on_c, 0, 72, 80
2, 67638, Note_on_c, 0, 63, 80
2, 67641, Note_on_c, 0, 70, 0
2, 67641, Note_on_c, 0, 62, 0
2, 67687, Note_on_c, 0, 53, 0
2, 67687, Note_on_c, 0, 69, 0
2, 67687, Note_on_c, 0, 63, 0
2, 67702, Note_on_c, 0, 72, 0
2, 67702, Note_on_c, 0, 41, 0
2, 67757, Note_on_c, 0, 46, 80
2, 67757, Note_on_c, 0, 53, 80
2, 67757, Note_on_c, 0, 58, 80
2, 67757, Note_on_c, 0, 70, 80
2, 67806, Note_on_c, 0, 58, 0
2, 67806, Note_on_c, 0, 53, 0
2, 67835, Note_on_c, 0, 46, 0
2, 67835, Note_on_c, 0, 70, 0
2, 67876, Note_on_c, 0, 68, 80
2, 67876, Note_on_c, 0, 70, 80
2, 67876, Note_on_c, 0, 77, 80
2, 67935, Note_on_c, 0, 82, 80
2, 67938, Note_on_c, 0, 77, 0
2, 67938, Note_on_c, 0, 70, 0
2, 67941, Note_on_c, 0, 68, 0
2, 67987, Note_on_c, 0, 82, 0
2, 67996, Note_on_c, 0, 67, 80
2, 67996, Note_on_c, 0, 70, 80
2, 67996, Note_on_c, 0, 76, 80
2, 68057, Note_on_c, 0, 82, 80
2, 68060, Note_on_c, 0, 76, 0
2, 68060, Note_on_c, 0, 67, 0
2, 68060, Note_on_c, 0, 70, 0
2, 68115, Note_on_c, 0, 66, 80
2, 68115, Note_on_c, 0, 70, 80
2, 68115, Note_on_c, 0, 75, 80
2, 68118, Note_on_c, 0, 82, 0
2, 68164, Note_on_c, 0, 66, 0
2, 68164, Note_on_c, 0, 70, 0
2, 68164, Note_on_c, 0, 75, 0
2, 68177, Note_on_c, 0, 82, 80
2, 68196, Note_on_c, 0, 82, 0
2, 68234, Note_on_c, 0, 65, 80
2, 68234, Note_on_c, 0, 70, 80
2, 68234, Note_on_c, 0, 74, 80
2, 68234, Note_on_c, 0, 77, 80
2, 68234, Note_on_c, 0, 82, 80
2, 68295, Note_on_c, 0, 77, 0
2, 68295, Note_on_c, 0, 74, 0
2, 68295, Note_on_c, 0, 70, 0
2, 68298, Note_on_c, 0, 82, 0
2, 68310, Note_on_c, 0, 65, 0
2, 68407, Note_on_c, 0, 41, 80
2, 68422, Note_on_c, 0, 43, 80
2, 68439, Note_on_c, 0, 45, 80
2, 68442, Note_on_c, 0, 41, 0
2, 68469, Note_on_c, 0, 46, 80
2, 68469, Note_on_c, 0, 82, 80
2, 68469, Note_on_c, 0, 86, 80
2, 68469, Note_on_c, 0, 89, 80
2, 68469, Note_on_c, 0, 94, 80
2, 68472, Note_on_c, 0, 43, 0
2, 68498, Note_on_c, 0, 45, 0
2, 68513, Note_on_c, 0, 82, 0
2, 68513, Note_on_c, 0, 86, 0
2, 68513, Note_on_c, 0, 94, 0
2, 68516, Note_on_c, 0, 89, 0
2, 68530, Note_on_c, 0, 46, 0
2, 68530, End_track
3, 0, Start_track
3, 0, Title_t, "c/b Scott Joplin"
3, 0, End_track
4, 0, Start_track
4, 0, Title_t, "p/b Scott Joplin"
4, 0, End_track
5, 0, Start_track
5, 0, Title_t, "QRS # 196 (Connorized 10266)"
5, 0, End_track
6, 0, Start_track
6, 0, Title_t, "Scan of a player piano roll"
6, 0, End_track
7, 0, Start_track
7, 0, Title_t, "by Terry Smythe, Winnipeg, Canada"
7, 0, End_track
8, 0, Start_track
8, 1, Copyright_t, "___________________________________________________\012\012KUNSTDERFUGE.COM LARGE CLASSICAL MIDI COLLECTION\012ONCLASSICAL BY ALESSANDRO SIMONETTO, PROPRIETOR\012___________________________________________________\012\012! Attention: this file is under copyright !\012\012(c)onclassical, (nc)smythe, 2010\012___________________________________________________\012\012NO ONE MAY REPUBLISH THIS FILE WITHOUT PERMISSION\012COMMERCIAL USES OF THIS FILE IS STRICTLY PROHIBITED\012___________________________________________________\012\012Files & contributor's list: http://kunstderfuge.com/\012Terms and conditions: http://kunstderfuge.com/notes.htm"
8, 1, End_track
0, 0, End_of_file
