0, 0, Header, 1, 8, 192
1, 0, Start_track
1, 0, Title_t, "9725S"
1, 0, Copyright_t, "May NOT be used for commercial purposes."
1, 0, Text_t, "Roll expression/accent tracks, where present, converted to MIDI velocties.\012"
1, 0, Time_signature, 4, 2, 24, 8
1, 0, Key_signature, 0, "major"
1, 0, Tempo, 500000
1, 0, Marker_t, "Standard MIDI:LPI 124:Tempo  80: 10-20-2003"
1, 0, End_track
2, 0, Start_track
2, 0, Title_t, "Maple Leaf Rag"
2, 3, Control_c, 0, 64, 127
2, 48, Control_c, 0, 64, 0
2, 185, Note_on_c, 0, 39, 80
2, 187, Note_on_c, 0, 51, 80
2, 223, Note_on_c, 0, 51, 0
2, 223, Note_on_c, 0, 39, 0
2, 291, Note_on_c, 0, 44, 80
2, 291, Note_on_c, 0, 56, 80
2, 328, Note_on_c, 0, 56, 0
2, 328, Note_on_c, 0, 44, 0
2, 372, Note_on_c, 0, 68, 80
2, 393, Note_on_c, 0, 51, 80
2, 393, Note_on_c, 0, 56, 80
2, 393, Note_on_c, 0, 60, 80
2, 393, Note_on_c, 0, 63, 80
2, 395, Note_on_c, 0, 75, 80
2, 397, Note_on_c, 0, 68, 0
2, 416, Note_on_c, 0, 60, 0
2, 416, Note_on_c, 0, 51, 0
2, 416, Note_on_c, 0, 56, 0
2, 449, Note_on_c, 0, 75, 0
2, 449, Note_on_c, 0, 63, 0
2, 458, Note_on_c, 0, 68, 80
2, 493, Note_on_c, 0, 51, 80
2, 493, Note_on_c, 0, 56, 80
2, 493, Note_on_c, 0, 60, 80
2, 493, Note_on_c, 0, 72, 80
2, 495, Note_on_c, 0, 68, 0
2, 518, Note_on_c, 0, 60, 0
2, 518, Note_on_c, 0, 51, 0
2, 518, Note_on_c, 0, 56, 0
2, 518, Note_on_c, 0, 72, 0
2, 560, Note_on_c, 0, 63, 80
2, 560, Note_on_c, 0, 75, 80
2, 593, Note_on_c, 0, 45, 80
2, 595, Note_on_c, 0, 75, 0
2, 595, Note_on_c, 0, 63, 0
2, 604, Note_on_c, 0, 57, 80
2, 627, Note_on_c, 0, 57, 0
2, 627, Note_on_c, 0, 45, 0
2, 662, Note_on_c, 0, 67, 80
2, 691, Note_on_c, 0, 46, 80
2, 693, Note_on_c, 0, 58, 80
2, 693, Note_on_c, 0, 63, 80
2, 693, Note_on_c, 0, 75, 80
2, 696, Note_on_c, 0, 67, 0
2, 727, Note_on_c, 0, 46, 0
2, 729, Note_on_c, 0, 58, 0
2, 750, Note_on_c, 0, 63, 0
2, 752, Note_on_c, 0, 75, 0
2, 760, Note_on_c, 0, 67, 80
2, 794, Note_on_c, 0, 51, 80
2, 794, Note_on_c, 0, 55, 80
2, 794, Note_on_c, 0, 61, 80
2, 794, Note_on_c, 0, 70, 80
2, 796, Note_on_c, 0, 67, 0
2, 817, Note_on_c, 0, 61, 0
2, 817, Note_on_c, 0, 51, 0
2, 817, Note_on_c, 0, 55, 0
2, 817, Note_on_c, 0, 70, 0
2, 862, Note_on_c, 0, 63, 80
2, 862, Note_on_c, 0, 75, 80
2, 896, Note_on_c, 0, 51, 80
2, 896, Note_on_c, 0, 55, 80
2, 896, Note_on_c, 0, 61, 80
2, 919, Note_on_c, 0, 61, 0
2, 919, Note_on_c, 0, 51, 0
2, 919, Note_on_c, 0, 55, 0
2, 971, Control_c, 0, 64, 127
2, 996, Note_on_c, 0, 39, 80
2, 996, Note_on_c, 0, 51, 80
2, 1050, Control_c, 0, 64, 0
2, 1052, Note_on_c, 0, 51, 0
2, 1052, Note_on_c, 0, 39, 0
2, 1054, Note_on_c, 0, 75, 0
2, 1054, Note_on_c, 0, 63, 0
2, 1061, Note_on_c, 0, 41, 80
2, 1061, Note_on_c, 0, 53, 80
2, 1094, Note_on_c, 0, 56, 80
2, 1098, Note_on_c, 0, 53, 0
2, 1098, Note_on_c, 0, 41, 0
2, 1105, Note_on_c, 0, 44, 80
2, 1128, Note_on_c, 0, 44, 0
2, 1128, Note_on_c, 0, 56, 0
2, 1161, Note_on_c, 0, 68, 80
2, 1194, Note_on_c, 0, 51, 80
2, 1194, Note_on_c, 0, 56, 80
2, 1194, Note_on_c, 0, 60, 80
2, 1194, Note_on_c, 0, 63, 80
2, 1194, Note_on_c, 0, 75, 80
2, 1196, Note_on_c, 0, 68, 0
2, 1217, Note_on_c, 0, 60, 0
2, 1217, Note_on_c, 0, 51, 0
2, 1217, Note_on_c, 0, 56, 0
2, 1251, Note_on_c, 0, 75, 0
2, 1251, Note_on_c, 0, 63, 0
2, 1261, Note_on_c, 0, 68, 80
2, 1292, Note_on_c, 0, 51, 80
2, 1294, Note_on_c, 0, 56, 80
2, 1294, Note_on_c, 0, 60, 80
2, 1294, Note_on_c, 0, 72, 80
2, 1296, Note_on_c, 0, 68, 0
2, 1317, Note_on_c, 0, 60, 0
2, 1317, Note_on_c, 0, 51, 0
2, 1319, Note_on_c, 0, 56, 0
2, 1330, Note_on_c, 0, 72, 0
2, 1361, Note_on_c, 0, 63, 80
2, 1361, Note_on_c, 0, 75, 80
2, 1393, Note_on_c, 0, 45, 80
2, 1393, Note_on_c, 0, 57, 80
2, 1395, Note_on_c, 0, 75, 0
2, 1395, Note_on_c, 0, 63, 0
2, 1428, Note_on_c, 0, 45, 0
2, 1428, Note_on_c, 0, 57, 0
2, 1461, Note_on_c, 0, 67, 80
2, 1491, Note_on_c, 0, 46, 80
2, 1491, Note_on_c, 0, 75, 80
2, 1493, Note_on_c, 0, 58, 80
2, 1493, Note_on_c, 0, 63, 80
2, 1495, Note_on_c, 0, 67, 0
2, 1528, Note_on_c, 0, 58, 0
2, 1528, Note_on_c, 0, 46, 0
2, 1547, Note_on_c, 0, 75, 0
2, 1549, Note_on_c, 0, 63, 0
2, 1559, Note_on_c, 0, 67, 80
2, 1589, Note_on_c, 0, 51, 80
2, 1589, Note_on_c, 0, 55, 80
2, 1589, Note_on_c, 0, 61, 80
2, 1589, Note_on_c, 0, 70, 80
2, 1593, Note_on_c, 0, 67, 0
2, 1614, Note_on_c, 0, 61, 0
2, 1616, Note_on_c, 0, 51, 0
2, 1616, Note_on_c, 0, 55, 0
2, 1616, Note_on_c, 0, 70, 0
2, 1655, Note_on_c, 0, 63, 80
2, 1655, Note_on_c, 0, 75, 80
2, 1689, Note_on_c, 0, 51, 80
2, 1689, Note_on_c, 0, 55, 80
2, 1691, Note_on_c, 0, 61, 80
2, 1724, Note_on_c, 0, 61, 0
2, 1724, Note_on_c, 0, 51, 0
2, 1724, Note_on_c, 0, 63, 0
2, 1724, Note_on_c, 0, 75, 0
2, 1724, Note_on_c, 0, 55, 0
2, 1792, Note_on_c, 0, 39, 80
2, 1792, Note_on_c, 0, 51, 80
2, 1848, Note_on_c, 0, 51, 0
2, 1848, Note_on_c, 0, 39, 0
2, 1857, Note_on_c, 0, 63, 80
2, 1857, Note_on_c, 0, 75, 80
2, 1882, Note_on_c, 0, 75, 0
2, 1884, Note_on_c, 0, 63, 0
2, 1892, Note_on_c, 0, 40, 80
2, 1892, Note_on_c, 0, 52, 80
2, 1903, Control_c, 0, 64, 127
2, 1959, Note_on_c, 0, 68, 80
2, 1984, Control_c, 0, 64, 0
2, 1992, Note_on_c, 0, 71, 80
2, 1993, Note_on_c, 0, 52, 0
2, 1993, Note_on_c, 0, 40, 0
2, 1995, Note_on_c, 0, 68, 0
2, 2016, Note_on_c, 0, 71, 0
2, 2059, Note_on_c, 0, 64, 80
2, 2059, Note_on_c, 0, 76, 80
2, 2089, Note_on_c, 0, 39, 80
2, 2091, Note_on_c, 0, 51, 80
2, 2093, Note_on_c, 0, 76, 0
2, 2093, Note_on_c, 0, 64, 0
2, 2126, Note_on_c, 0, 39, 0
2, 2126, Note_on_c, 0, 51, 0
2, 2155, Note_on_c, 0, 75, 80
2, 2157, Note_on_c, 0, 63, 80
2, 2182, Note_on_c, 0, 63, 0
2, 2182, Note_on_c, 0, 75, 0
2, 2189, Note_on_c, 0, 39, 80
2, 2189, Note_on_c, 0, 51, 80
2, 2224, Note_on_c, 0, 51, 0
2, 2224, Note_on_c, 0, 39, 0
2, 2256, Note_on_c, 0, 63, 80
2, 2256, Note_on_c, 0, 75, 80
2, 2281, Note_on_c, 0, 75, 0
2, 2281, Note_on_c, 0, 63, 0
2, 2289, Note_on_c, 0, 40, 80
2, 2289, Note_on_c, 0, 52, 80
2, 2355, Note_on_c, 0, 68, 80
2, 2357, Note_on_c, 0, 52, 0
2, 2357, Note_on_c, 0, 40, 0
2, 2388, Note_on_c, 0, 71, 80
2, 2392, Note_on_c, 0, 68, 0
2, 2415, Note_on_c, 0, 71, 0
2, 2453, Note_on_c, 0, 64, 80
2, 2455, Note_on_c, 0, 76, 80
2, 2486, Note_on_c, 0, 39, 80
2, 2486, Note_on_c, 0, 51, 80
2, 2490, Note_on_c, 0, 64, 0
2, 2492, Note_on_c, 0, 76, 0
2, 2522, Note_on_c, 0, 39, 0
2, 2522, Note_on_c, 0, 51, 0
2, 2555, Note_on_c, 0, 63, 80
2, 2555, Note_on_c, 0, 75, 80
2, 2681, Note_on_c, 0, 75, 0
2, 2681, Note_on_c, 0, 63, 0
2, 2688, Note_on_c, 0, 32, 80
2, 2749, Note_on_c, 0, 32, 0
2, 2759, Note_on_c, 0, 44, 80
2, 2793, Note_on_c, 0, 47, 80
2, 2795, Note_on_c, 0, 44, 0
2, 2851, Note_on_c, 0, 47, 0
2, 2860, Note_on_c, 0, 56, 80
2, 2872, Control_c, 0, 64, 127
2, 2895, Note_on_c, 0, 44, 80
2, 2899, Note_on_c, 0, 56, 0
2, 2956, Note_on_c, 0, 44, 0
2, 2964, Note_on_c, 0, 56, 80
2, 2999, Note_on_c, 0, 59, 80
2, 3000, Note_on_c, 0, 56, 0
2, 3054, Control_c, 0, 64, 0
2, 3056, Note_on_c, 0, 59, 0
2, 3062, Note_on_c, 0, 68, 80
2, 3098, Note_on_c, 0, 56, 80
2, 3100, Note_on_c, 0, 68, 0
2, 3156, Note_on_c, 0, 56, 0
2, 3166, Note_on_c, 0, 68, 80
2, 3200, Note_on_c, 0, 71, 80
2, 3204, Note_on_c, 0, 68, 0
2, 3264, Note_on_c, 0, 71, 0
2, 3272, Note_on_c, 0, 80, 80
2, 3305, Note_on_c, 0, 68, 80
2, 3309, Note_on_c, 0, 80, 0
2, 3362, Note_on_c, 0, 68, 0
2, 3370, Note_on_c, 0, 80, 80
2, 3405, Note_on_c, 0, 57, 80
2, 3416, Note_on_c, 0, 83, 80
2, 3418, Note_on_c, 0, 80, 0
2, 3435, Note_on_c, 0, 59, 80
2, 3462, Note_on_c, 0, 57, 0
2, 3470, Note_on_c, 0, 61, 80
2, 3483, Note_on_c, 0, 83, 0
2, 3493, Note_on_c, 0, 59, 0
2, 3501, Note_on_c, 0, 71, 80
2, 3503, Note_on_c, 0, 62, 80
2, 3503, Note_on_c, 0, 65, 80
2, 3503, Note_on_c, 0, 68, 80
2, 3503, Note_on_c, 0, 80, 80
2, 3504, Note_on_c, 0, 61, 0
2, 3510, Note_on_c, 0, 92, 80
2, 3524, Note_on_c, 0, 71, 0
2, 3526, Note_on_c, 0, 80, 0
2, 3526, Note_on_c, 0, 68, 0
2, 3526, Note_on_c, 0, 65, 0
2, 3526, Note_on_c, 0, 92, 0
2, 3526, Note_on_c, 0, 62, 0
2, 3598, Note_on_c, 0, 68, 80
2, 3598, Note_on_c, 0, 71, 80
2, 3600, Note_on_c, 0, 62, 80
2, 3600, Note_on_c, 0, 65, 80
2, 3600, Note_on_c, 0, 80, 80
2, 3611, Note_on_c, 0, 92, 80
2, 3624, Note_on_c, 0, 92, 0
2, 3624, Note_on_c, 0, 71, 0
2, 3624, Note_on_c, 0, 62, 0
2, 3624, Note_on_c, 0, 68, 0
2, 3624, Note_on_c, 0, 80, 0
2, 3624, Note_on_c, 0, 65, 0
2, 3698, Note_on_c, 0, 62, 80
2, 3698, Note_on_c, 0, 65, 80
2, 3698, Note_on_c, 0, 68, 80
2, 3698, Note_on_c, 0, 71, 80
2, 3698, Note_on_c, 0, 80, 80
2, 3698, Note_on_c, 0, 92, 80
2, 3723, Note_on_c, 0, 92, 0
2, 3723, Note_on_c, 0, 65, 0
2, 3723, Note_on_c, 0, 68, 0
2, 3723, Note_on_c, 0, 62, 0
2, 3723, Note_on_c, 0, 80, 0
2, 3723, Note_on_c, 0, 71, 0
2, 3801, Note_on_c, 0, 62, 80
2, 3801, Note_on_c, 0, 65, 80
2, 3801, Note_on_c, 0, 68, 80
2, 3801, Note_on_c, 0, 71, 80
2, 3801, Note_on_c, 0, 80, 80
2, 3801, Note_on_c, 0, 92, 80
2, 3826, Note_on_c, 0, 92, 0
2, 3826, Note_on_c, 0, 65, 0
2, 3826, Note_on_c, 0, 68, 0
2, 3826, Note_on_c, 0, 62, 0
2, 3826, Note_on_c, 0, 80, 0
2, 3826, Note_on_c, 0, 71, 0
2, 3868, Note_on_c, 0, 80, 80
2, 3880, Note_on_c, 0, 92, 80
2, 3901, Note_on_c, 0, 63, 80
2, 3901, Note_on_c, 0, 68, 80
2, 3901, Note_on_c, 0, 72, 80
2, 3926, Note_on_c, 0, 72, 0
2, 3926, Note_on_c, 0, 63, 0
2, 3926, Note_on_c, 0, 80, 0
2, 3926, Note_on_c, 0, 92, 0
2, 3926, Note_on_c, 0, 68, 0
2, 3982, Note_on_c, 0, 87, 80
2, 4003, Note_on_c, 0, 63, 80
2, 4005, Note_on_c, 0, 68, 80
2, 4005, Note_on_c, 0, 72, 80
2, 4012, Note_on_c, 0, 89, 80
2, 4016, Note_on_c, 0, 87, 0
2, 4026, Note_on_c, 0, 63, 0
2, 4028, Note_on_c, 0, 72, 0
2, 4028, Note_on_c, 0, 68, 0
2, 4070, Note_on_c, 0, 84, 80
2, 4074, Note_on_c, 0, 89, 0
2, 4104, Note_on_c, 0, 68, 80
2, 4104, Note_on_c, 0, 72, 80
2, 4106, Note_on_c, 0, 63, 80
2, 4108, Note_on_c, 0, 84, 0
2, 4116, Note_on_c, 0, 87, 80
2, 4129, Note_on_c, 0, 68, 0
2, 4129, Note_on_c, 0, 63, 0
2, 4129, Note_on_c, 0, 72, 0
2, 4141, Note_on_c, 0, 87, 0
2, 4172, Note_on_c, 0, 80, 80
2, 4183, Note_on_c, 0, 89, 80
2, 4206, Note_on_c, 0, 68, 80
2, 4206, Note_on_c, 0, 72, 80
2, 4208, Note_on_c, 0, 80, 0
2, 4208, Note_on_c, 0, 63, 80
2, 4220, Note_on_c, 0, 89, 0
2, 4231, Note_on_c, 0, 72, 0
2, 4231, Note_on_c, 0, 68, 0
2, 4231, Note_on_c, 0, 63, 0
2, 4272, Note_on_c, 0, 76, 80
2, 4272, Note_on_c, 0, 80, 80
2, 4304, Note_on_c, 0, 71, 80
2, 4306, Note_on_c, 0, 68, 80
2, 4308, Note_on_c, 0, 64, 80
2, 4331, Note_on_c, 0, 64, 0
2, 4331, Note_on_c, 0, 71, 0
2, 4331, Note_on_c, 0, 68, 0
2, 4331, Note_on_c, 0, 76, 0
2, 4333, Note_on_c, 0, 80, 0
2, 4373, Note_on_c, 0, 82, 80
2, 4404, Note_on_c, 0, 64, 80
2, 4404, Note_on_c, 0, 68, 80
2, 4404, Note_on_c, 0, 71, 80
2, 4404, Note_on_c, 0, 76, 80
2, 4404, Note_on_c, 0, 83, 80
2, 4408, Note_on_c, 0, 82, 0
2, 4429, Note_on_c, 0, 71, 0
2, 4429, Note_on_c, 0, 64, 0
2, 4431, Note_on_c, 0, 68, 0
2, 4462, Note_on_c, 0, 83, 0
2, 4462, Note_on_c, 0, 76, 0
2, 4469, Note_on_c, 0, 80, 80
2, 4498, Note_on_c, 0, 68, 80
2, 4500, Note_on_c, 0, 63, 80
2, 4500, Note_on_c, 0, 72, 80
2, 4500, Note_on_c, 0, 82, 80
2, 4504, Note_on_c, 0, 80, 0
2, 4525, Note_on_c, 0, 72, 0
2, 4525, Note_on_c, 0, 68, 0
2, 4525, Note_on_c, 0, 63, 0
2, 4525, Note_on_c, 0, 82, 0
2, 4567, Note_on_c, 0, 84, 80
2, 4596, Note_on_c, 0, 63, 80
2, 4596, Note_on_c, 0, 68, 80
2, 4596, Note_on_c, 0, 72, 80
2, 4621, Note_on_c, 0, 72, 0
2, 4621, Note_on_c, 0, 84, 0
2, 4621, Note_on_c, 0, 63, 0
2, 4621, Note_on_c, 0, 68, 0
2, 4663, Note_on_c, 0, 80, 80
2, 4694, Note_on_c, 0, 63, 80
2, 4694, Note_on_c, 0, 68, 80
2, 4694, Note_on_c, 0, 72, 80
2, 4694, Note_on_c, 0, 84, 80
2, 4698, Note_on_c, 0, 80, 0
2, 4719, Note_on_c, 0, 63, 0
2, 4719, Note_on_c, 0, 68, 0
2, 4728, Note_on_c, 0, 72, 0
2, 4753, Note_on_c, 0, 84, 0
2, 4761, Note_on_c, 0, 80, 80
2, 4794, Note_on_c, 0, 63, 80
2, 4794, Note_on_c, 0, 67, 80
2, 4794, Note_on_c, 0, 73, 80
2, 4798, Note_on_c, 0, 80, 0
2, 4805, Note_on_c, 0, 82, 80
2, 4830, Note_on_c, 0, 63, 0
2, 4830, Note_on_c, 0, 73, 0
2, 4830, Note_on_c, 0, 67, 0
2, 4832, Note_on_c, 0, 82, 0
2, 4896, Note_on_c, 0, 63, 80
2, 4896, Note_on_c, 0, 68, 80
2, 4896, Note_on_c, 0, 72, 80
2, 4896, Note_on_c, 0, 80, 80
2, 4933, Note_on_c, 0, 72, 0
2, 4933, Note_on_c, 0, 68, 0
2, 4935, Note_on_c, 0, 63, 0
2, 4935, Note_on_c, 0, 80, 0
2, 4979, Control_c, 0, 64, 127
2, 5002, Note_on_c, 0, 45, 80
2, 5037, Note_on_c, 0, 47, 80
2, 5062, Note_on_c, 0, 45, 0
2, 5069, Note_on_c, 0, 49, 80
2, 5069, Note_on_c, 0, 68, 80
2, 5069, Note_on_c, 0, 80, 80
2, 5094, Note_on_c, 0, 47, 0
2, 5094, Control_c, 0, 64, 0
2, 5104, Note_on_c, 0, 50, 80
2, 5104, Note_on_c, 0, 53, 80
2, 5104, Note_on_c, 0, 56, 80
2, 5104, Note_on_c, 0, 59, 80
2, 5106, Note_on_c, 0, 49, 0
2, 5129, Note_on_c, 0, 53, 0
2, 5129, Note_on_c, 0, 50, 0
2, 5129, Note_on_c, 0, 56, 0
2, 5131, Note_on_c, 0, 80, 0
2, 5131, Note_on_c, 0, 59, 0
2, 5131, Note_on_c, 0, 68, 0
2, 5212, Note_on_c, 0, 50, 80
2, 5212, Note_on_c, 0, 53, 80
2, 5212, Note_on_c, 0, 56, 80
2, 5212, Note_on_c, 0, 59, 80
2, 5212, Note_on_c, 0, 68, 80
2, 5214, Note_on_c, 0, 80, 80
2, 5237, Note_on_c, 0, 59, 0
2, 5237, Note_on_c, 0, 50, 0
2, 5239, Note_on_c, 0, 68, 0
2, 5239, Note_on_c, 0, 53, 0
2, 5239, Note_on_c, 0, 80, 0
2, 5239, Note_on_c, 0, 56, 0
2, 5317, Note_on_c, 0, 50, 80
2, 5317, Note_on_c, 0, 53, 80
2, 5317, Note_on_c, 0, 56, 80
2, 5317, Note_on_c, 0, 59, 80
2, 5317, Note_on_c, 0, 68, 80
2, 5317, Note_on_c, 0, 80, 80
2, 5352, Note_on_c, 0, 80, 0
2, 5352, Note_on_c, 0, 53, 0
2, 5352, Note_on_c, 0, 56, 0
2, 5352, Note_on_c, 0, 50, 0
2, 5352, Note_on_c, 0, 68, 0
2, 5352, Note_on_c, 0, 59, 0
2, 5416, Note_on_c, 0, 50, 80
2, 5416, Note_on_c, 0, 53, 80
2, 5416, Note_on_c, 0, 56, 80
2, 5416, Note_on_c, 0, 59, 80
2, 5416, Note_on_c, 0, 68, 80
2, 5418, Note_on_c, 0, 80, 80
2, 5439, Note_on_c, 0, 59, 0
2, 5439, Note_on_c, 0, 53, 0
2, 5439, Note_on_c, 0, 50, 0
2, 5441, Note_on_c, 0, 56, 0
2, 5441, Note_on_c, 0, 80, 0
2, 5441, Note_on_c, 0, 68, 0
2, 5479, Note_on_c, 0, 68, 80
2, 5481, Note_on_c, 0, 80, 80
2, 5514, Note_on_c, 0, 51, 80
2, 5514, Note_on_c, 0, 56, 80
2, 5514, Note_on_c, 0, 60, 80
2, 5537, Note_on_c, 0, 60, 0
2, 5537, Note_on_c, 0, 51, 0
2, 5537, Note_on_c, 0, 56, 0
2, 5558, Note_on_c, 0, 68, 0
2, 5560, Note_on_c, 0, 80, 0
2, 5581, Note_on_c, 0, 75, 80
2, 5612, Note_on_c, 0, 51, 80
2, 5612, Note_on_c, 0, 56, 80
2, 5612, Note_on_c, 0, 60, 80
2, 5612, Note_on_c, 0, 68, 80
2, 5614, Note_on_c, 0, 77, 80
2, 5616, Note_on_c, 0, 75, 0
2, 5633, Note_on_c, 0, 60, 0
2, 5633, Note_on_c, 0, 51, 0
2, 5633, Note_on_c, 0, 56, 0
2, 5665, Note_on_c, 0, 77, 0
2, 5665, Note_on_c, 0, 68, 0
2, 5675, Note_on_c, 0, 72, 80
2, 5708, Note_on_c, 0, 51, 80
2, 5708, Note_on_c, 0, 56, 80
2, 5708, Note_on_c, 0, 60, 80
2, 5708, Note_on_c, 0, 75, 80
2, 5710, Note_on_c, 0, 72, 0
2, 5731, Note_on_c, 0, 60, 0
2, 5731, Note_on_c, 0, 51, 0
2, 5731, Note_on_c, 0, 56, 0
2, 5731, Note_on_c, 0, 75, 0
2, 5773, Note_on_c, 0, 68, 80
2, 5773, Note_on_c, 0, 77, 80
2, 5806, Note_on_c, 0, 51, 80
2, 5806, Note_on_c, 0, 56, 80
2, 5806, Note_on_c, 0, 60, 80
2, 5829, Note_on_c, 0, 60, 0
2, 5829, Note_on_c, 0, 51, 0
2, 5829, Note_on_c, 0, 56, 0
2, 5831, Note_on_c, 0, 77, 0
2, 5831, Note_on_c, 0, 68, 0
2, 5873, Note_on_c, 0, 68, 80
2, 5873, Note_on_c, 0, 64, 80
2, 5904, Note_on_c, 0, 52, 80
2, 5904, Note_on_c, 0, 56, 80
2, 5904, Note_on_c, 0, 59, 80
2, 5928, Note_on_c, 0, 59, 0
2, 5928, Note_on_c, 0, 52, 0
2, 5928, Note_on_c, 0, 68, 0
2, 5928, Note_on_c, 0, 64, 0
2, 5928, Note_on_c, 0, 56, 0
2, 5971, Note_on_c, 0, 70, 80
2, 6003, Note_on_c, 0, 52, 80
2, 6005, Note_on_c, 0, 56, 80
2, 6005, Note_on_c, 0, 59, 80
2, 6005, Note_on_c, 0, 64, 80
2, 6005, Note_on_c, 0, 71, 80
2, 6007, Note_on_c, 0, 70, 0
2, 6028, Note_on_c, 0, 52, 0
2, 6030, Note_on_c, 0, 59, 0
2, 6030, Note_on_c, 0, 56, 0
2, 6053, Note_on_c, 0, 71, 0
2, 6053, Note_on_c, 0, 64, 0
2, 6074, Note_on_c, 0, 68, 80
2, 6109, Note_on_c, 0, 51, 80
2, 6111, Note_on_c, 0, 56, 80
2, 6111, Note_on_c, 0, 60, 80
2, 6111, Note_on_c, 0, 70, 80
2, 6113, Note_on_c, 0, 68, 0
2, 6136, Note_on_c, 0, 60, 0
2, 6136, Note_on_c, 0, 51, 0
2, 6136, Note_on_c, 0, 56, 0
2, 6136, Note_on_c, 0, 70, 0
2, 6180, Note_on_c, 0, 63, 80
2, 6180, Note_on_c, 0, 72, 80
2, 6213, Note_on_c, 0, 51, 80
2, 6213, Note_on_c, 0, 56, 80
2, 6215, Note_on_c, 0, 60, 80
2, 6238, Note_on_c, 0, 60, 0
2, 6238, Note_on_c, 0, 51, 0
2, 6238, Note_on_c, 0, 63, 0
2, 6238, Note_on_c, 0, 72, 0
2, 6238, Note_on_c, 0, 56, 0
2, 6282, Note_on_c, 0, 68, 80
2, 6316, Note_on_c, 0, 51, 80
2, 6316, Note_on_c, 0, 56, 80
2, 6316, Note_on_c, 0, 60, 80
2, 6316, Note_on_c, 0, 63, 80
2, 6316, Note_on_c, 0, 72, 80
2, 6318, Note_on_c, 0, 68, 0
2, 6351, Note_on_c, 0, 56, 0
2, 6351, Note_on_c, 0, 60, 0
2, 6351, Note_on_c, 0, 51, 0
2, 6351, Note_on_c, 0, 72, 0
2, 6351, Note_on_c, 0, 63, 0
2, 6382, Note_on_c, 0, 68, 80
2, 6416, Note_on_c, 0, 51, 80
2, 6416, Note_on_c, 0, 55, 80
2, 6416, Note_on_c, 0, 61, 80
2, 6416, Note_on_c, 0, 63, 80
2, 6418, Note_on_c, 0, 68, 0
2, 6418, Note_on_c, 0, 70, 80
2, 6472, Note_on_c, 0, 70, 0
2, 6472, Note_on_c, 0, 63, 0
2, 6472, Note_on_c, 0, 51, 0
2, 6472, Note_on_c, 0, 55, 0
2, 6472, Note_on_c, 0, 61, 0
2, 6514, Note_on_c, 0, 56, 80
2, 6514, Note_on_c, 0, 60, 80
2, 6514, Note_on_c, 0, 63, 80
2, 6514, Note_on_c, 0, 68, 80
2, 6611, Note_on_c, 0, 39, 80
2, 6611, Note_on_c, 0, 51, 80
2, 6613, Note_on_c, 0, 63, 0
2, 6613, Note_on_c, 0, 56, 0
2, 6615, Note_on_c, 0, 68, 0
2, 6615, Note_on_c, 0, 60, 0
2, 6657, Note_on_c, 0, 51, 0
2, 6665, Note_on_c, 0, 39, 0
2, 6674, Note_on_c, 0, 41, 80
2, 6674, Note_on_c, 0, 53, 80
2, 6709, Note_on_c, 0, 44, 80
2, 6709, Note_on_c, 0, 56, 80
2, 6711, Note_on_c, 0, 53, 0
2, 6711, Note_on_c, 0, 41, 0
2, 6719, Control_c, 0, 64, 127
2, 6742, Note_on_c, 0, 44, 0
2, 6742, Note_on_c, 0, 56, 0
2, 6761, Control_c, 0, 64, 0
2, 6772, Note_on_c, 0, 68, 80
2, 6805, Note_on_c, 0, 51, 80
2, 6805, Note_on_c, 0, 56, 80
2, 6805, Note_on_c, 0, 60, 80
2, 6805, Note_on_c, 0, 63, 80
2, 6805, Note_on_c, 0, 75, 80
2, 6809, Note_on_c, 0, 68, 0
2, 6830, Note_on_c, 0, 60, 0
2, 6830, Note_on_c, 0, 51, 0
2, 6830, Note_on_c, 0, 56, 0
2, 6863, Note_on_c, 0, 75, 0
2, 6863, Note_on_c, 0, 63, 0
2, 6868, Note_on_c, 0, 68, 80
2, 6899, Note_on_c, 0, 56, 80
2, 6901, Note_on_c, 0, 51, 80
2, 6901, Note_on_c, 0, 60, 80
2, 6901, Note_on_c, 0, 72, 80
2, 6905, Note_on_c, 0, 68, 0
2, 6924, Note_on_c, 0, 60, 0
2, 6926, Note_on_c, 0, 56, 0
2, 6926, Note_on_c, 0, 51, 0
2, 6926, Note_on_c, 0, 72, 0
2, 6970, Note_on_c, 0, 63, 80
2, 6970, Note_on_c, 0, 75, 80
2, 7003, Note_on_c, 0, 45, 80
2, 7005, Note_on_c, 0, 75, 0
2, 7005, Note_on_c, 0, 57, 80
2, 7007, Note_on_c, 0, 63, 0
2, 7043, Note_on_c, 0, 57, 0
2, 7043, Note_on_c, 0, 45, 0
2, 7074, Note_on_c, 0, 67, 80
2, 7106, Note_on_c, 0, 46, 80
2, 7106, Note_on_c, 0, 58, 80
2, 7108, Note_on_c, 0, 63, 80
2, 7108, Note_on_c, 0, 75, 80
2, 7110, Note_on_c, 0, 67, 0
2, 7145, Note_on_c, 0, 46, 0
2, 7145, Note_on_c, 0, 58, 0
2, 7168, Note_on_c, 0, 63, 0
2, 7170, Note_on_c, 0, 75, 0
2, 7177, Note_on_c, 0, 67, 80
2, 7212, Note_on_c, 0, 51, 80
2, 7212, Note_on_c, 0, 55, 80
2, 7212, Note_on_c, 0, 61, 80
2, 7212, Note_on_c, 0, 70, 80
2, 7216, Note_on_c, 0, 67, 0
2, 7237, Note_on_c, 0, 61, 0
2, 7237, Note_on_c, 0, 51, 0
2, 7237, Note_on_c, 0, 55, 0
2, 7239, Note_on_c, 0, 70, 0
2, 7279, Note_on_c, 0, 63, 80
2, 7281, Note_on_c, 0, 75, 80
2, 7302, Note_on_c, 0, 51, 80
2, 7302, Note_on_c, 0, 55, 80
2, 7304, Note_on_c, 0, 61, 80
2, 7341, Note_on_c, 0, 61, 0
2, 7341, Note_on_c, 0, 55, 0
2, 7352, Note_on_c, 0, 51, 0
2, 7416, Note_on_c, 0, 39, 80
2, 7416, Note_on_c, 0, 51, 80
2, 7428, Control_c, 0, 64, 127
2, 7474, Note_on_c, 0, 39, 0
2, 7476, Note_on_c, 0, 63, 0
2, 7476, Note_on_c, 0, 75, 0
2, 7476, Note_on_c, 0, 51, 0
2, 7484, Note_on_c, 0, 41, 80
2, 7486, Note_on_c, 0, 53, 80
2, 7507, Control_c, 0, 64, 0
2, 7516, Note_on_c, 0, 44, 80
2, 7516, Note_on_c, 0, 56, 80
2, 7518, Note_on_c, 0, 41, 0
2, 7520, Note_on_c, 0, 53, 0
2, 7553, Note_on_c, 0, 44, 0
2, 7553, Note_on_c, 0, 56, 0
2, 7587, Note_on_c, 0, 68, 80
2, 7618, Note_on_c, 0, 51, 80
2, 7620, Note_on_c, 0, 56, 80
2, 7620, Note_on_c, 0, 60, 80
2, 7620, Note_on_c, 0, 63, 80
2, 7620, Note_on_c, 0, 75, 80
2, 7624, Note_on_c, 0, 68, 0
2, 7643, Note_on_c, 0, 60, 0
2, 7643, Note_on_c, 0, 51, 0
2, 7643, Note_on_c, 0, 56, 0
2, 7676, Note_on_c, 0, 63, 0
2, 7678, Note_on_c, 0, 75, 0
2, 7685, Note_on_c, 0, 68, 80
2, 7718, Note_on_c, 0, 51, 80
2, 7718, Note_on_c, 0, 56, 80
2, 7718, Note_on_c, 0, 60, 80
2, 7720, Note_on_c, 0, 72, 80
2, 7722, Note_on_c, 0, 68, 0
2, 7741, Note_on_c, 0, 51, 0
2, 7743, Note_on_c, 0, 60, 0
2, 7743, Note_on_c, 0, 56, 0
2, 7756, Note_on_c, 0, 72, 0
2, 7785, Note_on_c, 0, 63, 80
2, 7787, Note_on_c, 0, 75, 80
2, 7818, Note_on_c, 0, 45, 80
2, 7820, Note_on_c, 0, 57, 80
2, 7822, Note_on_c, 0, 63, 0
2, 7824, Note_on_c, 0, 75, 0
2, 7852, Note_on_c, 0, 45, 0
2, 7854, Note_on_c, 0, 57, 0
2, 7887, Note_on_c, 0, 67, 80
2, 7918, Note_on_c, 0, 46, 80
2, 7920, Note_on_c, 0, 63, 80
2, 7920, Note_on_c, 0, 75, 80
2, 7921, Note_on_c, 0, 58, 80
2, 7923, Note_on_c, 0, 67, 0
2, 7954, Note_on_c, 0, 46, 0
2, 7954, Note_on_c, 0, 58, 0
2, 7973, Note_on_c, 0, 63, 0
2, 7975, Note_on_c, 0, 75, 0
2, 7983, Note_on_c, 0, 67, 80
2, 8017, Note_on_c, 0, 51, 80
2, 8017, Note_on_c, 0, 55, 80
2, 8017, Note_on_c, 0, 61, 80
2, 8019, Note_on_c, 0, 70, 80
2, 8023, Note_on_c, 0, 67, 0
2, 8040, Note_on_c, 0, 61, 0
2, 8040, Note_on_c, 0, 51, 0
2, 8040, Note_on_c, 0, 55, 0
2, 8040, Note_on_c, 0, 70, 0
2, 8085, Note_on_c, 0, 63, 80
2, 8085, Note_on_c, 0, 75, 80
2, 8117, Note_on_c, 0, 51, 80
2, 8117, Note_on_c, 0, 55, 80
2, 8117, Note_on_c, 0, 61, 80
2, 8154, Note_on_c, 0, 55, 0
2, 8154, Note_on_c, 0, 51, 0
2, 8156, Note_on_c, 0, 63, 0
2, 8156, Note_on_c, 0, 75, 0
2, 8156, Note_on_c, 0, 61, 0
2, 8220, Note_on_c, 0, 39, 80
2, 8222, Note_on_c, 0, 51, 80
2, 8278, Note_on_c, 0, 51, 0
2, 8278, Note_on_c, 0, 39, 0
2, 8287, Note_on_c, 0, 63, 80
2, 8287, Note_on_c, 0, 75, 80
2, 8314, Note_on_c, 0, 75, 0
2, 8314, Note_on_c, 0, 63, 0
2, 8322, Note_on_c, 0, 40, 80
2, 8322, Note_on_c, 0, 52, 80
2, 8388, Note_on_c, 0, 68, 80
2, 8421, Note_on_c, 0, 40, 0
2, 8421, Note_on_c, 0, 71, 80
2, 8423, Note_on_c, 0, 52, 0
2, 8424, Note_on_c, 0, 68, 0
2, 8446, Note_on_c, 0, 71, 0
2, 8488, Note_on_c, 0, 64, 80
2, 8490, Note_on_c, 0, 76, 80
2, 8520, Note_on_c, 0, 39, 80
2, 8520, Note_on_c, 0, 51, 80
2, 8524, Note_on_c, 0, 76, 0
2, 8524, Note_on_c, 0, 64, 0
2, 8555, Note_on_c, 0, 39, 0
2, 8555, Note_on_c, 0, 51, 0
2, 8588, Note_on_c, 0, 63, 80
2, 8590, Note_on_c, 0, 75, 80
2, 8613, Note_on_c, 0, 75, 0
2, 8613, Note_on_c, 0, 63, 0
2, 8620, Note_on_c, 0, 39, 80
2, 8620, Note_on_c, 0, 51, 80
2, 8655, Note_on_c, 0, 39, 0
2, 8657, Note_on_c, 0, 51, 0
2, 8686, Note_on_c, 0, 63, 80
2, 8688, Note_on_c, 0, 75, 80
2, 8711, Note_on_c, 0, 75, 0
2, 8711, Note_on_c, 0, 63, 0
2, 8718, Note_on_c, 0, 40, 80
2, 8720, Note_on_c, 0, 52, 80
2, 8786, Note_on_c, 0, 68, 80
2, 8788, Note_on_c, 0, 52, 0
2, 8788, Note_on_c, 0, 40, 0
2, 8821, Note_on_c, 0, 71, 80
2, 8825, Note_on_c, 0, 68, 0
2, 8846, Note_on_c, 0, 71, 0
2, 8886, Note_on_c, 0, 64, 80
2, 8886, Note_on_c, 0, 76, 80
2, 8919, Note_on_c, 0, 39, 80
2, 8919, Note_on_c, 0, 51, 80
2, 8921, Note_on_c, 0, 76, 0
2, 8921, Note_on_c, 0, 64, 0
2, 8952, Note_on_c, 0, 39, 0
2, 8952, Note_on_c, 0, 51, 0
2, 8982, Note_on_c, 0, 63, 80
2, 8982, Note_on_c, 0, 75, 80
2, 9083, Note_on_c, 0, 50, 80
2, 9095, Note_on_c, 0, 48, 80
2, 9106, Note_on_c, 0, 46, 80
2, 9118, Note_on_c, 0, 32, 80
2, 9152, Note_on_c, 0, 46, 0
2, 9154, Note_on_c, 0, 48, 0
2, 9154, Note_on_c, 0, 50, 0
2, 9154, Note_on_c, 0, 63, 0
2, 9154, Note_on_c, 0, 75, 0
2, 9160, Control_c, 0, 64, 127
2, 9175, Note_on_c, 0, 32, 0
2, 9185, Note_on_c, 0, 44, 80
2, 9216, Note_on_c, 0, 47, 80
2, 9217, Note_on_c, 0, 44, 0
2, 9240, Control_c, 0, 64, 0
2, 9273, Note_on_c, 0, 47, 0
2, 9283, Note_on_c, 0, 56, 80
2, 9319, Note_on_c, 0, 44, 80
2, 9321, Note_on_c, 0, 56, 0
2, 9329, Control_c, 0, 64, 127
2, 9377, Note_on_c, 0, 44, 0
2, 9386, Note_on_c, 0, 56, 80
2, 9421, Note_on_c, 0, 59, 80
2, 9423, Note_on_c, 0, 56, 0
2, 9477, Note_on_c, 0, 59, 0
2, 9484, Note_on_c, 0, 68, 80
2, 9509, Control_c, 0, 64, 0
2, 9521, Note_on_c, 0, 56, 80
2, 9525, Note_on_c, 0, 68, 0
2, 9580, Note_on_c, 0, 56, 0
2, 9588, Note_on_c, 0, 68, 80
2, 9621, Note_on_c, 0, 71, 80
2, 9624, Note_on_c, 0, 68, 0
2, 9685, Note_on_c, 0, 71, 0
2, 9693, Note_on_c, 0, 80, 80
2, 9725, Note_on_c, 0, 68, 80
2, 9727, Note_on_c, 0, 80, 0
2, 9790, Note_on_c, 0, 68, 0
2, 9795, Note_on_c, 0, 80, 80
2, 9828, Note_on_c, 0, 57, 80
2, 9830, Note_on_c, 0, 83, 80
2, 9834, Note_on_c, 0, 80, 0
2, 9840, Control_c, 0, 64, 127
2, 9861, Note_on_c, 0, 59, 80
2, 9886, Note_on_c, 0, 57, 0
2, 9895, Note_on_c, 0, 61, 80
2, 9895, Note_on_c, 0, 92, 80
2, 9897, Note_on_c, 0, 83, 0
2, 9911, Note_on_c, 0, 92, 0
2, 9918, Control_c, 0, 64, 0
2, 9920, Note_on_c, 0, 59, 0
2, 9928, Note_on_c, 0, 68, 80
2, 9928, Note_on_c, 0, 71, 80
2, 9930, Note_on_c, 0, 62, 80
2, 9930, Note_on_c, 0, 65, 80
2, 9930, Note_on_c, 0, 80, 80
2, 9930, Note_on_c, 0, 92, 80
2, 9932, Note_on_c, 0, 61, 0
2, 9955, Note_on_c, 0, 80, 0
2, 9955, Note_on_c, 0, 71, 0
2, 9955, Note_on_c, 0, 62, 0
2, 9955, Note_on_c, 0, 68, 0
2, 9955, Note_on_c, 0, 92, 0
2, 9955, Note_on_c, 0, 65, 0
2, 10034, Note_on_c, 0, 62, 80
2, 10034, Note_on_c, 0, 65, 80
2, 10034, Note_on_c, 0, 68, 80
2, 10034, Note_on_c, 0, 71, 80
2, 10036, Note_on_c, 0, 80, 80
2, 10036, Note_on_c, 0, 92, 80
2, 10057, Note_on_c, 0, 62, 0
2, 10059, Note_on_c, 0, 68, 0
2, 10059, Note_on_c, 0, 71, 0
2, 10059, Note_on_c, 0, 65, 0
2, 10059, Note_on_c, 0, 92, 0
2, 10059, Note_on_c, 0, 80, 0
2, 10137, Note_on_c, 0, 62, 80
2, 10137, Note_on_c, 0, 65, 80
2, 10137, Note_on_c, 0, 68, 80
2, 10137, Note_on_c, 0, 71, 80
2, 10137, Note_on_c, 0, 80, 80
2, 10147, Note_on_c, 0, 92, 80
2, 10160, Note_on_c, 0, 71, 0
2, 10160, Note_on_c, 0, 68, 0
2, 10160, Note_on_c, 0, 62, 0
2, 10160, Note_on_c, 0, 65, 0
2, 10162, Note_on_c, 0, 92, 0
2, 10162, Note_on_c, 0, 80, 0
2, 10240, Note_on_c, 0, 71, 80
2, 10240, Note_on_c, 0, 80, 80
2, 10242, Note_on_c, 0, 62, 80
2, 10242, Note_on_c, 0, 65, 80
2, 10242, Note_on_c, 0, 68, 80
2, 10251, Note_on_c, 0, 92, 80
2, 10263, Note_on_c, 0, 71, 0
2, 10265, Note_on_c, 0, 62, 0
2, 10265, Note_on_c, 0, 65, 0
2, 10265, Note_on_c, 0, 80, 0
2, 10265, Note_on_c, 0, 92, 0
2, 10265, Note_on_c, 0, 68, 0
2, 10309, Note_on_c, 0, 80, 80
2, 10309, Note_on_c, 0, 92, 80
2, 10342, Note_on_c, 0, 63, 80
2, 10342, Note_on_c, 0, 68, 80
2, 10342, Note_on_c, 0, 72, 80
2, 10365, Note_on_c, 0, 72, 0
2, 10365, Note_on_c, 0, 63, 0
2, 10365, Note_on_c, 0, 80, 0
2, 10365, Note_on_c, 0, 92, 0
2, 10365, Note_on_c, 0, 68, 0
2, 10407, Note_on_c, 0, 87, 80
2, 10440, Note_on_c, 0, 63, 80
2, 10440, Note_on_c, 0, 68, 80
2, 10440, Note_on_c, 0, 72, 80
2, 10441, Note_on_c, 0, 89, 80
2, 10443, Note_on_c, 0, 87, 0
2, 10463, Note_on_c, 0, 72, 0
2, 10463, Note_on_c, 0, 63, 0
2, 10463, Note_on_c, 0, 68, 0
2, 10495, Note_on_c, 0, 89, 0
2, 10505, Note_on_c, 0, 84, 80
2, 10537, Note_on_c, 0, 63, 80
2, 10537, Note_on_c, 0, 68, 80
2, 10537, Note_on_c, 0, 72, 80
2, 10537, Note_on_c, 0, 87, 80
2, 10541, Note_on_c, 0, 84, 0
2, 10562, Note_on_c, 0, 72, 0
2, 10562, Note_on_c, 0, 63, 0
2, 10562, Note_on_c, 0, 68, 0
2, 10562, Note_on_c, 0, 87, 0
2, 10605, Note_on_c, 0, 80, 80
2, 10605, Note_on_c, 0, 89, 80
2, 10635, Note_on_c, 0, 68, 80
2, 10637, Note_on_c, 0, 63, 80
2, 10637, Note_on_c, 0, 72, 80
2, 10639, Note_on_c, 0, 89, 0
2, 10639, Note_on_c, 0, 80, 0
2, 10662, Note_on_c, 0, 63, 0
2, 10662, Note_on_c, 0, 68, 0
2, 10662, Note_on_c, 0, 72, 0
2, 10703, Note_on_c, 0, 76, 80
2, 10703, Note_on_c, 0, 80, 80
2, 10733, Note_on_c, 0, 71, 80
2, 10735, Note_on_c, 0, 64, 80
2, 10735, Note_on_c, 0, 68, 80
2, 10756, Note_on_c, 0, 64, 0
2, 10756, Note_on_c, 0, 71, 0
2, 10758, Note_on_c, 0, 76, 0
2, 10758, Note_on_c, 0, 80, 0
2, 10758, Note_on_c, 0, 68, 0
2, 10800, Note_on_c, 0, 82, 80
2, 10831, Note_on_c, 0, 68, 80
2, 10831, Note_on_c, 0, 71, 80
2, 10833, Note_on_c, 0, 64, 80
2, 10833, Note_on_c, 0, 76, 80
2, 10833, Note_on_c, 0, 83, 80
2, 10835, Note_on_c, 0, 82, 0
2, 10856, Note_on_c, 0, 71, 0
2, 10858, Note_on_c, 0, 64, 0
2, 10858, Note_on_c, 0, 68, 0
2, 10891, Note_on_c, 0, 83, 0
2, 10891, Note_on_c, 0, 76, 0
2, 10900, Note_on_c, 0, 80, 80
2, 10931, Note_on_c, 0, 68, 80
2, 10933, Note_on_c, 0, 63, 80
2, 10933, Note_on_c, 0, 72, 80
2, 10933, Note_on_c, 0, 82, 80
2, 10937, Note_on_c, 0, 80, 0
2, 10958, Note_on_c, 0, 72, 0
2, 10958, Note_on_c, 0, 68, 0
2, 10958, Note_on_c, 0, 63, 0
2, 10958, Note_on_c, 0, 82, 0
2, 11000, Note_on_c, 0, 84, 80
2, 11033, Note_on_c, 0, 63, 80
2, 11033, Note_on_c, 0, 68, 80
2, 11033, Note_on_c, 0, 72, 80
2, 11058, Note_on_c, 0, 72, 0
2, 11058, Note_on_c, 0, 63, 0
2, 11060, Note_on_c, 0, 68, 0
2, 11060, Note_on_c, 0, 84, 0
2, 11104, Note_on_c, 0, 80, 80
2, 11138, Note_on_c, 0, 63, 80
2, 11138, Note_on_c, 0, 68, 80
2, 11138, Note_on_c, 0, 72, 80
2, 11138, Note_on_c, 0, 84, 80
2, 11142, Note_on_c, 0, 80, 0
2, 11161, Note_on_c, 0, 63, 0
2, 11161, Note_on_c, 0, 68, 0
2, 11173, Note_on_c, 0, 72, 0
2, 11196, Note_on_c, 0, 84, 0
2, 11206, Note_on_c, 0, 80, 80
2, 11236, Note_on_c, 0, 63, 80
2, 11236, Note_on_c, 0, 67, 80
2, 11236, Note_on_c, 0, 73, 80
2, 11238, Note_on_c, 0, 82, 80
2, 11240, Note_on_c, 0, 80, 0
2, 11273, Note_on_c, 0, 73, 0
2, 11273, Note_on_c, 0, 63, 0
2, 11273, Note_on_c, 0, 82, 0
2, 11275, Note_on_c, 0, 67, 0
2, 11337, Note_on_c, 0, 63, 80
2, 11337, Note_on_c, 0, 68, 80
2, 11337, Note_on_c, 0, 72, 80
2, 11337, Note_on_c, 0, 80, 80
2, 11370, Note_on_c, 0, 80, 0
2, 11372, Note_on_c, 0, 63, 0
2, 11372, Note_on_c, 0, 68, 0
2, 11372, Note_on_c, 0, 72, 0
2, 11412, Control_c, 0, 64, 127
2, 11433, Note_on_c, 0, 45, 80
2, 11466, Note_on_c, 0, 47, 80
2, 11489, Note_on_c, 0, 45, 0
2, 11496, Note_on_c, 0, 49, 80
2, 11498, Note_on_c, 0, 68, 80
2, 11498, Note_on_c, 0, 80, 80
2, 11518, Control_c, 0, 64, 0
2, 11520, Note_on_c, 0, 47, 0
2, 11529, Note_on_c, 0, 50, 80
2, 11529, Note_on_c, 0, 53, 80
2, 11529, Note_on_c, 0, 56, 80
2, 11529, Note_on_c, 0, 59, 80
2, 11531, Note_on_c, 0, 49, 0
2, 11552, Note_on_c, 0, 56, 0
2, 11552, Note_on_c, 0, 68, 0
2, 11552, Note_on_c, 0, 50, 0
2, 11552, Note_on_c, 0, 80, 0
2, 11552, Note_on_c, 0, 59, 0
2, 11552, Note_on_c, 0, 53, 0
2, 11624, Note_on_c, 0, 53, 80
2, 11624, Note_on_c, 0, 68, 80
2, 11626, Note_on_c, 0, 50, 80
2, 11626, Note_on_c, 0, 56, 80
2, 11626, Note_on_c, 0, 59, 80
2, 11626, Note_on_c, 0, 80, 80
2, 11647, Note_on_c, 0, 59, 0
2, 11647, Note_on_c, 0, 56, 0
2, 11647, Note_on_c, 0, 50, 0
2, 11647, Note_on_c, 0, 53, 0
2, 11647, Note_on_c, 0, 68, 0
2, 11649, Note_on_c, 0, 80, 0
2, 11725, Note_on_c, 0, 50, 80
2, 11725, Note_on_c, 0, 53, 80
2, 11725, Note_on_c, 0, 68, 80
2, 11727, Note_on_c, 0, 56, 80
2, 11727, Note_on_c, 0, 59, 80
2, 11727, Note_on_c, 0, 80, 80
2, 11760, Note_on_c, 0, 59, 0
2, 11760, Note_on_c, 0, 56, 0
2, 11760, Note_on_c, 0, 53, 0
2, 11760, Note_on_c, 0, 50, 0
2, 11761, Note_on_c, 0, 80, 0
2, 11763, Note_on_c, 0, 68, 0
2, 11828, Note_on_c, 0, 50, 80
2, 11828, Note_on_c, 0, 53, 80
2, 11830, Note_on_c, 0, 56, 80
2, 11830, Note_on_c, 0, 59, 80
2, 11830, Note_on_c, 0, 68, 80
2, 11830, Note_on_c, 0, 80, 80
2, 11853, Note_on_c, 0, 56, 0
2, 11853, Note_on_c, 0, 50, 0
2, 11853, Note_on_c, 0, 53, 0
2, 11855, Note_on_c, 0, 59, 0
2, 11855, Note_on_c, 0, 68, 0
2, 11855, Note_on_c, 0, 80, 0
2, 11895, Note_on_c, 0, 68, 80
2, 11897, Note_on_c, 0, 80, 80
2, 11929, Note_on_c, 0, 51, 80
2, 11929, Note_on_c, 0, 56, 80
2, 11929, Note_on_c, 0, 60, 80
2, 11952, Note_on_c, 0, 56, 0
2, 11952, Note_on_c, 0, 51, 0
2, 11954, Note_on_c, 0, 60, 0
2, 11979, Note_on_c, 0, 80, 0
2, 11979, Note_on_c, 0, 68, 0
2, 11999, Note_on_c, 0, 75, 80
2, 12035, Note_on_c, 0, 51, 80
2, 12037, Note_on_c, 0, 56, 80
2, 12037, Note_on_c, 0, 60, 80
2, 12037, Note_on_c, 0, 68, 80
2, 12037, Note_on_c, 0, 77, 80
2, 12039, Note_on_c, 0, 75, 0
2, 12060, Note_on_c, 0, 60, 0
2, 12060, Note_on_c, 0, 51, 0
2, 12060, Note_on_c, 0, 56, 0
2, 12096, Note_on_c, 0, 77, 0
2, 12096, Note_on_c, 0, 68, 0
2, 12106, Note_on_c, 0, 72, 80
2, 12141, Note_on_c, 0, 51, 80
2, 12141, Note_on_c, 0, 56, 80
2, 12141, Note_on_c, 0, 60, 80
2, 12141, Note_on_c, 0, 75, 80
2, 12144, Note_on_c, 0, 72, 0
2, 12166, Note_on_c, 0, 60, 0
2, 12166, Note_on_c, 0, 51, 0
2, 12166, Note_on_c, 0, 56, 0
2, 12166, Note_on_c, 0, 75, 0
2, 12208, Note_on_c, 0, 68, 80
2, 12208, Note_on_c, 0, 77, 80
2, 12244, Note_on_c, 0, 51, 80
2, 12244, Note_on_c, 0, 56, 80
2, 12244, Note_on_c, 0, 60, 80
2, 12267, Note_on_c, 0, 60, 0
2, 12267, Note_on_c, 0, 51, 0
2, 12267, Note_on_c, 0, 68, 0
2, 12267, Note_on_c, 0, 77, 0
2, 12267, Note_on_c, 0, 56, 0
2, 12312, Note_on_c, 0, 64, 80
2, 12312, Note_on_c, 0, 68, 80
2, 12344, Note_on_c, 0, 52, 80
2, 12344, Note_on_c, 0, 56, 80
2, 12344, Note_on_c, 0, 59, 80
2, 12369, Note_on_c, 0, 59, 0
2, 12369, Note_on_c, 0, 52, 0
2, 12369, Note_on_c, 0, 64, 0
2, 12369, Note_on_c, 0, 68, 0
2, 12369, Note_on_c, 0, 56, 0
2, 12409, Note_on_c, 0, 70, 80
2, 12442, Note_on_c, 0, 52, 80
2, 12442, Note_on_c, 0, 56, 80
2, 12442, Note_on_c, 0, 59, 80
2, 12442, Note_on_c, 0, 71, 80
2, 12444, Note_on_c, 0, 64, 80
2, 12446, Note_on_c, 0, 70, 0
2, 12467, Note_on_c, 0, 59, 0
2, 12467, Note_on_c, 0, 52, 0
2, 12467, Note_on_c, 0, 56, 0
2, 12488, Note_on_c, 0, 64, 0
2, 12488, Note_on_c, 0, 71, 0
2, 12505, Note_on_c, 0, 68, 80
2, 12538, Note_on_c, 0, 51, 80
2, 12538, Note_on_c, 0, 56, 80
2, 12538, Note_on_c, 0, 60, 80
2, 12538, Note_on_c, 0, 70, 80
2, 12540, Note_on_c, 0, 68, 0
2, 12563, Note_on_c, 0, 60, 0
2, 12563, Note_on_c, 0, 51, 0
2, 12563, Note_on_c, 0, 56, 0
2, 12563, Note_on_c, 0, 70, 0
2, 12603, Note_on_c, 0, 63, 80
2, 12603, Note_on_c, 0, 72, 80
2, 12636, Note_on_c, 0, 51, 80
2, 12636, Note_on_c, 0, 56, 80
2, 12636, Note_on_c, 0, 60, 80
2, 12661, Note_on_c, 0, 60, 0
2, 12661, Note_on_c, 0, 51, 0
2, 12661, Note_on_c, 0, 63, 0
2, 12661, Note_on_c, 0, 72, 0
2, 12661, Note_on_c, 0, 56, 0
2, 12703, Note_on_c, 0, 68, 80
2, 12734, Note_on_c, 0, 51, 80
2, 12734, Note_on_c, 0, 56, 80
2, 12736, Note_on_c, 0, 60, 80
2, 12736, Note_on_c, 0, 63, 80
2, 12736, Note_on_c, 0, 72, 80
2, 12740, Note_on_c, 0, 68, 0
2, 12768, Note_on_c, 0, 63, 0
2, 12768, Note_on_c, 0, 60, 0
2, 12768, Note_on_c, 0, 51, 0
2, 12770, Note_on_c, 0, 72, 0
2, 12770, Note_on_c, 0, 56, 0
2, 12799, Note_on_c, 0, 68, 80
2, 12834, Note_on_c, 0, 51, 80
2, 12834, Note_on_c, 0, 55, 80
2, 12834, Note_on_c, 0, 61, 80
2, 12834, Note_on_c, 0, 63, 80
2, 12834, Note_on_c, 0, 70, 80
2, 12838, Note_on_c, 0, 68, 0
2, 12891, Note_on_c, 0, 55, 0
2, 12891, Note_on_c, 0, 61, 0
2, 12891, Note_on_c, 0, 51, 0
2, 12891, Note_on_c, 0, 70, 0
2, 12891, Note_on_c, 0, 63, 0
2, 12934, Note_on_c, 0, 56, 80
2, 12934, Note_on_c, 0, 60, 80
2, 12934, Note_on_c, 0, 63, 80
2, 12934, Note_on_c, 0, 68, 80
2, 12968, Note_on_c, 0, 63, 0
2, 12968, Note_on_c, 0, 56, 0
2, 12968, Note_on_c, 0, 60, 0
2, 12970, Note_on_c, 0, 68, 0
2, 13036, Note_on_c, 0, 45, 80
2, 13036, Note_on_c, 0, 57, 80
2, 13073, Note_on_c, 0, 45, 0
2, 13075, Note_on_c, 0, 57, 0
2, 13143, Note_on_c, 0, 46, 80
2, 13143, Note_on_c, 0, 58, 80
2, 13152, Control_c, 0, 64, 127
2, 13174, Note_on_c, 0, 58, 0
2, 13185, Note_on_c, 0, 46, 0
2, 13199, Control_c, 0, 64, 0
2, 13208, Note_on_c, 0, 91, 80
2, 13243, Note_on_c, 0, 51, 80
2, 13243, Note_on_c, 0, 55, 80
2, 13243, Note_on_c, 0, 61, 80
2, 13243, Note_on_c, 0, 87, 80
2, 13243, Note_on_c, 0, 99, 80
2, 13245, Note_on_c, 0, 91, 0
2, 13268, Note_on_c, 0, 61, 0
2, 13268, Note_on_c, 0, 51, 0
2, 13270, Note_on_c, 0, 55, 0
2, 13277, Note_on_c, 0, 99, 0
2, 13279, Note_on_c, 0, 87, 0
2, 13312, Note_on_c, 0, 91, 80
2, 13344, Note_on_c, 0, 39, 80
2, 13344, Note_on_c, 0, 51, 80
2, 13346, Note_on_c, 0, 91, 0
2, 13356, Note_on_c, 0, 94, 80
2, 13369, Note_on_c, 0, 94, 0
2, 13369, Note_on_c, 0, 51, 0
2, 13369, Note_on_c, 0, 39, 0
2, 13410, Note_on_c, 0, 86, 80
2, 13421, Note_on_c, 0, 98, 80
2, 13442, Note_on_c, 0, 51, 80
2, 13442, Note_on_c, 0, 55, 80
2, 13444, Note_on_c, 0, 61, 80
2, 13469, Note_on_c, 0, 61, 0
2, 13469, Note_on_c, 0, 51, 0
2, 13469, Note_on_c, 0, 55, 0
2, 13500, Note_on_c, 0, 86, 0
2, 13510, Note_on_c, 0, 91, 80
2, 13513, Note_on_c, 0, 98, 0
2, 13540, Note_on_c, 0, 46, 80
2, 13542, Note_on_c, 0, 58, 80
2, 13544, Note_on_c, 0, 91, 0
2, 13554, Note_on_c, 0, 85, 80
2, 13554, Note_on_c, 0, 97, 80
2, 13565, Note_on_c, 0, 58, 0
2, 13565, Note_on_c, 0, 46, 0
2, 13588, Note_on_c, 0, 85, 0
2, 13598, Note_on_c, 0, 97, 0
2, 13608, Note_on_c, 0, 91, 80
2, 13638, Note_on_c, 0, 51, 80
2, 13640, Note_on_c, 0, 55, 80
2, 13640, Note_on_c, 0, 61, 80
2, 13642, Note_on_c, 0, 91, 0
2, 13652, Note_on_c, 0, 94, 80
2, 13663, Note_on_c, 0, 51, 0
2, 13663, Note_on_c, 0, 61, 0
2, 13663, Note_on_c, 0, 55, 0
2, 13665, Note_on_c, 0, 94, 0
2, 13705, Note_on_c, 0, 84, 80
2, 13717, Note_on_c, 0, 96, 80
2, 13738, Note_on_c, 0, 39, 80
2, 13738, Note_on_c, 0, 51, 80
2, 13773, Note_on_c, 0, 51, 0
2, 13773, Note_on_c, 0, 84, 0
2, 13773, Note_on_c, 0, 96, 0
2, 13773, Note_on_c, 0, 39, 0
2, 13803, Note_on_c, 0, 41, 80
2, 13803, Note_on_c, 0, 87, 80
2, 13805, Note_on_c, 0, 53, 80
2, 13834, Note_on_c, 0, 43, 80
2, 13834, Note_on_c, 0, 94, 80
2, 13836, Note_on_c, 0, 55, 80
2, 13836, Note_on_c, 0, 82, 80
2, 13838, Note_on_c, 0, 53, 0
2, 13838, Note_on_c, 0, 41, 0
2, 13838, Note_on_c, 0, 87, 0
2, 13871, Note_on_c, 0, 43, 0
2, 13882, Note_on_c, 0, 55, 0
2, 13892, Note_on_c, 0, 94, 0
2, 13894, Note_on_c, 0, 82, 0
2, 13899, Note_on_c, 0, 87, 80
2, 13926, Note_on_c, 0, 87, 0
2, 13936, Note_on_c, 0, 44, 80
2, 13936, Note_on_c, 0, 56, 80
2, 13945, Control_c, 0, 64, 127
2, 13970, Note_on_c, 0, 56, 0
2, 13970, Note_on_c, 0, 44, 0
2, 13993, Control_c, 0, 64, 0
2, 14001, Note_on_c, 0, 84, 80
2, 14036, Note_on_c, 0, 51, 80
2, 14036, Note_on_c, 0, 56, 80
2, 14036, Note_on_c, 0, 60, 80
2, 14036, Note_on_c, 0, 80, 80
2, 14038, Note_on_c, 0, 84, 0
2, 14045, Note_on_c, 0, 92, 80
2, 14061, Note_on_c, 0, 60, 0
2, 14061, Note_on_c, 0, 51, 0
2, 14061, Note_on_c, 0, 56, 0
2, 14095, Note_on_c, 0, 80, 0
2, 14095, Note_on_c, 0, 92, 0
2, 14103, Note_on_c, 0, 84, 80
2, 14136, Note_on_c, 0, 51, 80
2, 14136, Note_on_c, 0, 87, 80
2, 14137, Note_on_c, 0, 39, 80
2, 14139, Note_on_c, 0, 84, 0
2, 14162, Note_on_c, 0, 87, 0
2, 14176, Note_on_c, 0, 51, 0
2, 14176, Note_on_c, 0, 39, 0
2, 14208, Note_on_c, 0, 77, 80
2, 14218, Note_on_c, 0, 89, 80
2, 14243, Note_on_c, 0, 51, 80
2, 14243, Note_on_c, 0, 56, 80
2, 14243, Note_on_c, 0, 60, 80
2, 14266, Note_on_c, 0, 60, 0
2, 14266, Note_on_c, 0, 51, 0
2, 14266, Note_on_c, 0, 77, 0
2, 14266, Note_on_c, 0, 89, 0
2, 14266, Note_on_c, 0, 56, 0
2, 14310, Note_on_c, 0, 84, 80
2, 14343, Note_on_c, 0, 44, 80
2, 14343, Note_on_c, 0, 56, 80
2, 14343, Note_on_c, 0, 80, 80
2, 14347, Note_on_c, 0, 84, 0
2, 14354, Note_on_c, 0, 92, 80
2, 14377, Note_on_c, 0, 92, 0
2, 14379, Note_on_c, 0, 80, 0
2, 14379, Note_on_c, 0, 56, 0
2, 14379, Note_on_c, 0, 44, 0
2, 14412, Note_on_c, 0, 84, 80
2, 14445, Note_on_c, 0, 51, 80
2, 14445, Note_on_c, 0, 56, 80
2, 14445, Note_on_c, 0, 60, 80
2, 14445, Note_on_c, 0, 87, 80
2, 14448, Note_on_c, 0, 84, 0
2, 14470, Note_on_c, 0, 51, 0
2, 14472, Note_on_c, 0, 60, 0
2, 14472, Note_on_c, 0, 56, 0
2, 14479, Note_on_c, 0, 87, 0
2, 14512, Note_on_c, 0, 77, 80
2, 14512, Note_on_c, 0, 89, 80
2, 14544, Note_on_c, 0, 44, 80
2, 14546, Note_on_c, 0, 56, 80
2, 14602, Note_on_c, 0, 56, 0
2, 14602, Note_on_c, 0, 77, 0
2, 14602, Note_on_c, 0, 89, 0
2, 14602, Note_on_c, 0, 44, 0
2, 14610, Note_on_c, 0, 46, 80
2, 14610, Note_on_c, 0, 58, 80
2, 14612, Note_on_c, 0, 84, 80
2, 14642, Note_on_c, 0, 45, 80
2, 14642, Note_on_c, 0, 89, 80
2, 14644, Note_on_c, 0, 84, 0
2, 14644, Note_on_c, 0, 46, 0
2, 14644, Note_on_c, 0, 58, 0
2, 14644, Note_on_c, 0, 57, 80
2, 14644, Note_on_c, 0, 77, 80
2, 14700, Note_on_c, 0, 57, 0
2, 14700, Note_on_c, 0, 45, 0
2, 14712, Note_on_c, 0, 48, 80
2, 14712, Note_on_c, 0, 60, 80
2, 14742, Note_on_c, 0, 46, 80
2, 14744, Note_on_c, 0, 58, 80
2, 14746, Note_on_c, 0, 60, 0
2, 14746, Note_on_c, 0, 48, 0
2, 14746, Note_on_c, 0, 77, 0
2, 14746, Note_on_c, 0, 89, 0
2, 14779, Note_on_c, 0, 58, 0
2, 14779, Note_on_c, 0, 46, 0
2, 14809, Note_on_c, 0, 85, 80
2, 14844, Note_on_c, 0, 51, 80
2, 14844, Note_on_c, 0, 55, 80
2, 14844, Note_on_c, 0, 61, 80
2, 14844, Note_on_c, 0, 79, 80
2, 14844, Note_on_c, 0, 91, 80
2, 14846, Note_on_c, 0, 85, 0
2, 14869, Note_on_c, 0, 61, 0
2, 14869, Note_on_c, 0, 51, 0
2, 14869, Note_on_c, 0, 55, 0
2, 14902, Note_on_c, 0, 91, 0
2, 14902, Note_on_c, 0, 79, 0
2, 14909, Note_on_c, 0, 82, 80
2, 14944, Note_on_c, 0, 39, 80
2, 14944, Note_on_c, 0, 51, 80
2, 14944, Note_on_c, 0, 85, 80
2, 14946, Note_on_c, 0, 82, 0
2, 14969, Note_on_c, 0, 85, 0
2, 14978, Note_on_c, 0, 51, 0
2, 14978, Note_on_c, 0, 39, 0
2, 15013, Note_on_c, 0, 77, 80
2, 15013, Note_on_c, 0, 89, 80
2, 15048, Note_on_c, 0, 51, 80
2, 15048, Note_on_c, 0, 55, 80
2, 15049, Note_on_c, 0, 61, 80
2, 15072, Note_on_c, 0, 61, 0
2, 15072, Note_on_c, 0, 51, 0
2, 15072, Note_on_c, 0, 55, 0
2, 15074, Note_on_c, 0, 89, 0
2, 15074, Note_on_c, 0, 77, 0
2, 15117, Note_on_c, 0, 87, 80
2, 15128, Control_c, 0, 64, 127
2, 15149, Note_on_c, 0, 46, 80
2, 15149, Note_on_c, 0, 58, 80
2, 15151, Note_on_c, 0, 79, 80
2, 15151, Note_on_c, 0, 91, 80
2, 15153, Note_on_c, 0, 87, 0
2, 15186, Note_on_c, 0, 46, 0
2, 15186, Note_on_c, 0, 58, 0
2, 15195, Note_on_c, 0, 91, 0
2, 15207, Note_on_c, 0, 79, 0
2, 15207, Control_c, 0, 64, 0
2, 15216, Note_on_c, 0, 82, 80
2, 15251, Note_on_c, 0, 51, 80
2, 15253, Note_on_c, 0, 55, 80
2, 15253, Note_on_c, 0, 61, 80
2, 15253, Note_on_c, 0, 85, 80
2, 15259, Note_on_c, 0, 82, 0
2, 15276, Note_on_c, 0, 61, 0
2, 15276, Note_on_c, 0, 51, 0
2, 15276, Note_on_c, 0, 55, 0
2, 15276, Note_on_c, 0, 85, 0
2, 15318, Note_on_c, 0, 77, 80
2, 15318, Note_on_c, 0, 89, 80
2, 15353, Note_on_c, 0, 46, 80
2, 15353, Note_on_c, 0, 58, 80
2, 15387, Note_on_c, 0, 58, 0
2, 15387, Note_on_c, 0, 77, 0
2, 15387, Note_on_c, 0, 89, 0
2, 15387, Note_on_c, 0, 46, 0
2, 15432, Note_on_c, 0, 85, 80
2, 15451, Note_on_c, 0, 47, 80
2, 15453, Note_on_c, 0, 59, 80
2, 15453, Note_on_c, 0, 77, 80
2, 15456, Note_on_c, 0, 85, 0
2, 15464, Note_on_c, 0, 89, 80
2, 15487, Note_on_c, 0, 89, 0
2, 15487, Note_on_c, 0, 77, 0
2, 15487, Note_on_c, 0, 59, 0
2, 15487, Note_on_c, 0, 47, 0
2, 15553, Note_on_c, 0, 48, 80
2, 15553, Note_on_c, 0, 60, 80
2, 15588, Note_on_c, 0, 60, 0
2, 15590, Note_on_c, 0, 48, 0
2, 15621, Note_on_c, 0, 84, 80
2, 15653, Note_on_c, 0, 51, 80
2, 15653, Note_on_c, 0, 56, 80
2, 15653, Note_on_c, 0, 60, 80
2, 15653, Note_on_c, 0, 92, 80
2, 15655, Note_on_c, 0, 80, 80
2, 15657, Note_on_c, 0, 84, 0
2, 15678, Note_on_c, 0, 60, 0
2, 15678, Note_on_c, 0, 51, 0
2, 15678, Note_on_c, 0, 56, 0
2, 15711, Note_on_c, 0, 80, 0
2, 15711, Note_on_c, 0, 92, 0
2, 15720, Note_on_c, 0, 84, 80
2, 15730, Control_c, 0, 64, 127
2, 15755, Note_on_c, 0, 39, 80
2, 15755, Note_on_c, 0, 87, 80
2, 15757, Note_on_c, 0, 84, 0
2, 15763, Note_on_c, 0, 51, 80
2, 15788, Note_on_c, 0, 51, 0
2, 15788, Note_on_c, 0, 87, 0
2, 15788, Note_on_c, 0, 39, 0
2, 15820, Note_on_c, 0, 77, 80
2, 15820, Note_on_c, 0, 89, 80
2, 15843, Control_c, 0, 64, 0
2, 15853, Note_on_c, 0, 51, 80
2, 15853, Note_on_c, 0, 56, 80
2, 15853, Note_on_c, 0, 60, 80
2, 15876, Note_on_c, 0, 60, 0
2, 15876, Note_on_c, 0, 51, 0
2, 15876, Note_on_c, 0, 77, 0
2, 15876, Note_on_c, 0, 89, 0
2, 15876, Note_on_c, 0, 56, 0
2, 15918, Note_on_c, 0, 84, 80
2, 15955, Note_on_c, 0, 44, 80
2, 15955, Note_on_c, 0, 56, 80
2, 15955, Note_on_c, 0, 80, 80
2, 15955, Note_on_c, 0, 92, 80
2, 15959, Note_on_c, 0, 84, 0
2, 15989, Note_on_c, 0, 80, 0
2, 15989, Note_on_c, 0, 44, 0
2, 15989, Note_on_c, 0, 56, 0
2, 15989, Note_on_c, 0, 92, 0
2, 16024, Note_on_c, 0, 84, 80
2, 16055, Note_on_c, 0, 51, 80
2, 16056, Note_on_c, 0, 56, 80
2, 16056, Note_on_c, 0, 60, 80
2, 16056, Note_on_c, 0, 87, 80
2, 16060, Note_on_c, 0, 84, 0
2, 16080, Note_on_c, 0, 60, 0
2, 16080, Note_on_c, 0, 51, 0
2, 16080, Note_on_c, 0, 56, 0
2, 16081, Note_on_c, 0, 87, 0
2, 16122, Note_on_c, 0, 77, 80
2, 16131, Note_on_c, 0, 89, 80
2, 16156, Note_on_c, 0, 44, 80
2, 16156, Note_on_c, 0, 56, 80
2, 16212, Note_on_c, 0, 56, 0
2, 16212, Note_on_c, 0, 77, 0
2, 16212, Note_on_c, 0, 89, 0
2, 16212, Note_on_c, 0, 44, 0
2, 16222, Note_on_c, 0, 46, 80
2, 16222, Note_on_c, 0, 58, 80
2, 16222, Note_on_c, 0, 84, 80
2, 16254, Note_on_c, 0, 45, 80
2, 16254, Note_on_c, 0, 77, 80
2, 16254, Note_on_c, 0, 89, 80
2, 16256, Note_on_c, 0, 46, 0
2, 16258, Note_on_c, 0, 58, 0
2, 16258, Note_on_c, 0, 84, 0
2, 16264, Note_on_c, 0, 57, 80
2, 16287, Note_on_c, 0, 77, 0
2, 16289, Note_on_c, 0, 89, 0
2, 16310, Note_on_c, 0, 45, 0
2, 16312, Note_on_c, 0, 57, 0
2, 16320, Note_on_c, 0, 48, 80
2, 16320, Note_on_c, 0, 60, 80
2, 16350, Note_on_c, 0, 46, 80
2, 16350, Note_on_c, 0, 58, 80
2, 16352, Note_on_c, 0, 60, 0
2, 16352, Note_on_c, 0, 48, 0
2, 16385, Note_on_c, 0, 46, 0
2, 16387, Note_on_c, 0, 58, 0
2, 16414, Note_on_c, 0, 79, 80
2, 16448, Note_on_c, 0, 51, 80
2, 16448, Note_on_c, 0, 55, 80
2, 16448, Note_on_c, 0, 61, 80
2, 16448, Note_on_c, 0, 75, 80
2, 16448, Note_on_c, 0, 87, 80
2, 16452, Note_on_c, 0, 79, 0
2, 16469, Note_on_c, 0, 51, 0
2, 16471, Note_on_c, 0, 61, 0
2, 16471, Note_on_c, 0, 55, 0
2, 16506, Note_on_c, 0, 87, 0
2, 16506, Note_on_c, 0, 75, 0
2, 16513, Note_on_c, 0, 79, 80
2, 16525, Control_c, 0, 64, 127
2, 16546, Note_on_c, 0, 39, 80
2, 16546, Note_on_c, 0, 51, 80
2, 16546, Note_on_c, 0, 82, 80
2, 16550, Note_on_c, 0, 79, 0
2, 16571, Control_c, 0, 64, 0
2, 16583, Note_on_c, 0, 39, 0
2, 16583, Note_on_c, 0, 51, 0
2, 16583, Note_on_c, 0, 82, 0
2, 16613, Note_on_c, 0, 74, 80
2, 16613, Note_on_c, 0, 86, 80
2, 16648, Note_on_c, 0, 51, 80
2, 16648, Note_on_c, 0, 55, 80
2, 16648, Note_on_c, 0, 61, 80
2, 16673, Note_on_c, 0, 61, 0
2, 16673, Note_on_c, 0, 51, 0
2, 16673, Note_on_c, 0, 74, 0
2, 16673, Note_on_c, 0, 86, 0
2, 16673, Note_on_c, 0, 55, 0
2, 16713, Note_on_c, 0, 79, 80
2, 16748, Note_on_c, 0, 46, 80
2, 16748, Note_on_c, 0, 58, 80
2, 16748, Note_on_c, 0, 73, 80
2, 16748, Note_on_c, 0, 85, 80
2, 16752, Note_on_c, 0, 79, 0
2, 16782, Note_on_c, 0, 46, 0
2, 16782, Note_on_c, 0, 58, 0
2, 16796, Note_on_c, 0, 85, 0
2, 16805, Note_on_c, 0, 73, 0
2, 16815, Note_on_c, 0, 79, 80
2, 16849, Note_on_c, 0, 51, 80
2, 16851, Note_on_c, 0, 55, 80
2, 16851, Note_on_c, 0, 61, 80
2, 16851, Note_on_c, 0, 82, 80
2, 16853, Note_on_c, 0, 79, 0
2, 16874, Note_on_c, 0, 61, 0
2, 16874, Note_on_c, 0, 51, 0
2, 16874, Note_on_c, 0, 55, 0
2, 16886, Note_on_c, 0, 82, 0
2, 16920, Note_on_c, 0, 72, 80
2, 16920, Note_on_c, 0, 84, 80
2, 16932, Control_c, 0, 64, 127
2, 16953, Note_on_c, 0, 39, 80
2, 16953, Note_on_c, 0, 51, 80
2, 17011, Control_c, 0, 64, 0
2, 17013, Note_on_c, 0, 51, 0
2, 17013, Note_on_c, 0, 72, 0
2, 17013, Note_on_c, 0, 84, 0
2, 17013, Note_on_c, 0, 39, 0
2, 17020, Note_on_c, 0, 41, 80
2, 17020, Note_on_c, 0, 75, 80
2, 17022, Note_on_c, 0, 53, 80
2, 17055, Note_on_c, 0, 43, 80
2, 17055, Note_on_c, 0, 70, 80
2, 17055, Note_on_c, 0, 82, 80
2, 17057, Note_on_c, 0, 55, 80
2, 17059, Note_on_c, 0, 53, 0
2, 17059, Note_on_c, 0, 41, 0
2, 17059, Note_on_c, 0, 75, 0
2, 17101, Note_on_c, 0, 70, 0
2, 17101, Note_on_c, 0, 43, 0
2, 17101, Note_on_c, 0, 82, 0
2, 17122, Note_on_c, 0, 75, 80
2, 17126, Note_on_c, 0, 55, 0
2, 17149, Note_on_c, 0, 75, 0
2, 17157, Note_on_c, 0, 44, 80
2, 17159, Note_on_c, 0, 56, 80
2, 17193, Note_on_c, 0, 56, 0
2, 17193, Note_on_c, 0, 44, 0
2, 17224, Note_on_c, 0, 72, 80
2, 17258, Note_on_c, 0, 56, 80
2, 17258, Note_on_c, 0, 60, 80
2, 17258, Note_on_c, 0, 63, 80
2, 17258, Note_on_c, 0, 68, 80
2, 17258, Note_on_c, 0, 80, 80
2, 17262, Note_on_c, 0, 72, 0
2, 17281, Note_on_c, 0, 63, 0
2, 17281, Note_on_c, 0, 56, 0
2, 17281, Note_on_c, 0, 60, 0
2, 17304, Note_on_c, 0, 80, 0
2, 17304, Note_on_c, 0, 68, 0
2, 17322, Note_on_c, 0, 72, 80
2, 17335, Control_c, 0, 64, 127
2, 17356, Note_on_c, 0, 39, 80
2, 17356, Note_on_c, 0, 51, 80
2, 17356, Note_on_c, 0, 75, 80
2, 17358, Note_on_c, 0, 72, 0
2, 17381, Note_on_c, 0, 75, 0
2, 17393, Note_on_c, 0, 51, 0
2, 17393, Note_on_c, 0, 39, 0
2, 17414, Control_c, 0, 64, 0
2, 17425, Note_on_c, 0, 65, 80
2, 17425, Note_on_c, 0, 77, 80
2, 17456, Note_on_c, 0, 51, 80
2, 17456, Note_on_c, 0, 56, 80
2, 17456, Note_on_c, 0, 60, 80
2, 17481, Note_on_c, 0, 51, 0
2, 17483, Note_on_c, 0, 56, 0
2, 17483, Note_on_c, 0, 65, 0
2, 17483, Note_on_c, 0, 77, 0
2, 17483, Note_on_c, 0, 60, 0
2, 17525, Note_on_c, 0, 72, 80
2, 17558, Note_on_c, 0, 44, 80
2, 17558, Note_on_c, 0, 56, 80
2, 17558, Note_on_c, 0, 68, 80
2, 17558, Note_on_c, 0, 80, 80
2, 17560, Note_on_c, 0, 72, 0
2, 17592, Note_on_c, 0, 68, 0
2, 17592, Note_on_c, 0, 44, 0
2, 17592, Note_on_c, 0, 56, 0
2, 17594, Note_on_c, 0, 80, 0
2, 17661, Note_on_c, 0, 44, 80
2, 17661, Note_on_c, 0, 56, 80
2, 17661, Note_on_c, 0, 68, 80
2, 17661, Note_on_c, 0, 80, 80
2, 17705, Note_on_c, 0, 44, 0
2, 17707, Note_on_c, 0, 56, 0
2, 17707, Note_on_c, 0, 68, 0
2, 17718, Note_on_c, 0, 80, 0
2, 17760, Note_on_c, 0, 43, 80
2, 17760, Note_on_c, 0, 55, 80
2, 17760, Note_on_c, 0, 67, 80
2, 17760, Note_on_c, 0, 79, 80
2, 17818, Note_on_c, 0, 43, 0
2, 17820, Note_on_c, 0, 79, 0
2, 17820, Note_on_c, 0, 67, 0
2, 17828, Note_on_c, 0, 55, 0
2, 17862, Note_on_c, 0, 42, 80
2, 17864, Note_on_c, 0, 54, 80
2, 17864, Note_on_c, 0, 66, 80
2, 17864, Note_on_c, 0, 78, 80
2, 17918, Note_on_c, 0, 78, 0
2, 17918, Note_on_c, 0, 66, 0
2, 17918, Note_on_c, 0, 42, 0
2, 17920, Note_on_c, 0, 54, 0
2, 17962, Note_on_c, 0, 41, 80
2, 17962, Note_on_c, 0, 53, 80
2, 17999, Note_on_c, 0, 53, 0
2, 17999, Note_on_c, 0, 41, 0
2, 18033, Note_on_c, 0, 65, 80
2, 18043, Control_c, 0, 64, 127
2, 18066, Note_on_c, 0, 53, 80
2, 18068, Note_on_c, 0, 41, 80
2, 18068, Note_on_c, 0, 69, 80
2, 18070, Note_on_c, 0, 65, 0
2, 18102, Note_on_c, 0, 53, 0
2, 18102, Note_on_c, 0, 41, 0
2, 18123, Control_c, 0, 64, 0
2, 18125, Note_on_c, 0, 69, 0
2, 18133, Note_on_c, 0, 72, 80
2, 18166, Note_on_c, 0, 45, 80
2, 18168, Note_on_c, 0, 57, 80
2, 18168, Note_on_c, 0, 77, 80
2, 18169, Note_on_c, 0, 72, 0
2, 18202, Note_on_c, 0, 45, 0
2, 18202, Note_on_c, 0, 57, 0
2, 18225, Note_on_c, 0, 77, 0
2, 18233, Note_on_c, 0, 72, 80
2, 18265, Note_on_c, 0, 45, 80
2, 18265, Note_on_c, 0, 57, 80
2, 18265, Note_on_c, 0, 69, 80
2, 18267, Note_on_c, 0, 72, 0
2, 18312, Note_on_c, 0, 45, 0
2, 18312, Note_on_c, 0, 57, 0
2, 18321, Note_on_c, 0, 69, 0
2, 18331, Note_on_c, 0, 65, 80
2, 18354, Note_on_c, 0, 65, 0
2, 18363, Note_on_c, 0, 46, 80
2, 18363, Note_on_c, 0, 58, 80
2, 18396, Note_on_c, 0, 58, 0
2, 18396, Note_on_c, 0, 46, 0
2, 18429, Note_on_c, 0, 65, 80
2, 18461, Note_on_c, 0, 53, 80
2, 18461, Note_on_c, 0, 58, 80
2, 18461, Note_on_c, 0, 61, 80
2, 18461, Note_on_c, 0, 70, 80
2, 18463, Note_on_c, 0, 65, 0
2, 18482, Note_on_c, 0, 61, 0
2, 18482, Note_on_c, 0, 53, 0
2, 18482, Note_on_c, 0, 58, 0
2, 18504, Note_on_c, 0, 70, 0
2, 18523, Note_on_c, 0, 73, 80
2, 18555, Note_on_c, 0, 53, 80
2, 18555, Note_on_c, 0, 58, 80
2, 18555, Note_on_c, 0, 61, 80
2, 18555, Note_on_c, 0, 65, 80
2, 18555, Note_on_c, 0, 77, 80
2, 18559, Note_on_c, 0, 73, 0
2, 18588, Note_on_c, 0, 53, 0
2, 18588, Note_on_c, 0, 58, 0
2, 18590, Note_on_c, 0, 61, 0
2, 18590, Note_on_c, 0, 65, 0
2, 18590, Note_on_c, 0, 77, 0
2, 18656, Note_on_c, 0, 53, 80
2, 18656, Note_on_c, 0, 58, 80
2, 18656, Note_on_c, 0, 61, 80
2, 18656, Note_on_c, 0, 65, 80
2, 18656, Note_on_c, 0, 70, 80
2, 18656, Note_on_c, 0, 73, 80
2, 18689, Note_on_c, 0, 61, 0
2, 18689, Note_on_c, 0, 53, 0
2, 18689, Note_on_c, 0, 58, 0
2, 18712, Note_on_c, 0, 73, 0
2, 18714, Note_on_c, 0, 70, 0
2, 18714, Note_on_c, 0, 65, 0
2, 18752, Note_on_c, 0, 46, 80
2, 18752, Note_on_c, 0, 53, 80
2, 18752, Note_on_c, 0, 68, 80
2, 18754, Note_on_c, 0, 58, 80
2, 18754, Note_on_c, 0, 62, 80
2, 18754, Note_on_c, 0, 65, 80
2, 18754, Note_on_c, 0, 72, 80
2, 18787, Note_on_c, 0, 72, 0
2, 18787, Note_on_c, 0, 46, 0
2, 18789, Note_on_c, 0, 68, 0
2, 18789, Note_on_c, 0, 58, 0
2, 18789, Note_on_c, 0, 53, 0
2, 18789, Note_on_c, 0, 65, 0
2, 18789, Note_on_c, 0, 62, 0
2, 18857, Note_on_c, 0, 46, 80
2, 18857, Note_on_c, 0, 53, 80
2, 18857, Note_on_c, 0, 58, 80
2, 18891, Note_on_c, 0, 53, 0
2, 18891, Note_on_c, 0, 46, 0
2, 18893, Note_on_c, 0, 58, 0
2, 18922, Note_on_c, 0, 62, 80
2, 18922, Note_on_c, 0, 65, 80
2, 18922, Note_on_c, 0, 68, 80
2, 18922, Note_on_c, 0, 72, 80
2, 18955, Note_on_c, 0, 39, 80
2, 18957, Note_on_c, 0, 51, 80
2, 18959, Note_on_c, 0, 72, 0
2, 18959, Note_on_c, 0, 68, 0
2, 18959, Note_on_c, 0, 62, 0
2, 18959, Note_on_c, 0, 65, 0
2, 18966, Control_c, 0, 64, 127
2, 19005, Note_on_c, 0, 51, 0
2, 19005, Note_on_c, 0, 39, 0
2, 19016, Control_c, 0, 64, 0
2, 19026, Note_on_c, 0, 41, 80
2, 19026, Note_on_c, 0, 53, 80
2, 19026, Note_on_c, 0, 61, 80
2, 19026, Note_on_c, 0, 70, 80
2, 19060, Note_on_c, 0, 43, 80
2, 19060, Note_on_c, 0, 55, 80
2, 19062, Note_on_c, 0, 53, 0
2, 19062, Note_on_c, 0, 41, 0
2, 19093, Note_on_c, 0, 43, 0
2, 19095, Note_on_c, 0, 70, 0
2, 19095, Note_on_c, 0, 55, 0
2, 19095, Note_on_c, 0, 61, 0
2, 19129, Note_on_c, 0, 63, 80
2, 19162, Note_on_c, 0, 44, 80
2, 19162, Note_on_c, 0, 56, 80
2, 19162, Note_on_c, 0, 60, 80
2, 19162, Note_on_c, 0, 68, 80
2, 19166, Note_on_c, 0, 63, 0
2, 19197, Note_on_c, 0, 60, 0
2, 19197, Note_on_c, 0, 44, 0
2, 19197, Note_on_c, 0, 56, 0
2, 19197, Note_on_c, 0, 68, 0
2, 19265, Note_on_c, 0, 51, 80
2, 19265, Note_on_c, 0, 56, 80
2, 19265, Note_on_c, 0, 60, 80
2, 19265, Note_on_c, 0, 63, 80
2, 19265, Note_on_c, 0, 75, 80
2, 19288, Note_on_c, 0, 51, 0
2, 19290, Note_on_c, 0, 63, 0
2, 19290, Note_on_c, 0, 56, 0
2, 19290, Note_on_c, 0, 60, 0
2, 19290, Note_on_c, 0, 75, 0
2, 19366, Note_on_c, 0, 51, 80
2, 19366, Note_on_c, 0, 56, 80
2, 19366, Note_on_c, 0, 60, 80
2, 19366, Note_on_c, 0, 63, 80
2, 19366, Note_on_c, 0, 75, 80
2, 19398, Note_on_c, 0, 60, 0
2, 19400, Note_on_c, 0, 63, 0
2, 19400, Note_on_c, 0, 51, 0
2, 19400, Note_on_c, 0, 56, 0
2, 19400, Note_on_c, 0, 75, 0
2, 19464, Note_on_c, 0, 45, 80
2, 19464, Note_on_c, 0, 57, 80
2, 19501, Note_on_c, 0, 57, 0
2, 19501, Note_on_c, 0, 45, 0
2, 19565, Note_on_c, 0, 58, 80
2, 19567, Note_on_c, 0, 46, 80
2, 19604, Note_on_c, 0, 46, 0
2, 19604, Note_on_c, 0, 58, 0
2, 19636, Note_on_c, 0, 91, 80
2, 19669, Note_on_c, 0, 51, 80
2, 19669, Note_on_c, 0, 55, 80
2, 19669, Note_on_c, 0, 61, 80
2, 19671, Note_on_c, 0, 87, 80
2, 19673, Note_on_c, 0, 91, 0
2, 19680, Note_on_c, 0, 99, 80
2, 19694, Note_on_c, 0, 61, 0
2, 19694, Note_on_c, 0, 51, 0
2, 19694, Note_on_c, 0, 55, 0
2, 19705, Note_on_c, 0, 87, 0
2, 19705, Note_on_c, 0, 99, 0
2, 19738, Note_on_c, 0, 91, 80
2, 19771, Note_on_c, 0, 39, 80
2, 19773, Note_on_c, 0, 51, 80
2, 19773, Note_on_c, 0, 94, 80
2, 19775, Note_on_c, 0, 91, 0
2, 19794, Note_on_c, 0, 39, 0
2, 19796, Note_on_c, 0, 51, 0
2, 19796, Note_on_c, 0, 94, 0
2, 19842, Note_on_c, 0, 86, 80
2, 19842, Note_on_c, 0, 98, 80
2, 19872, Note_on_c, 0, 51, 80
2, 19872, Note_on_c, 0, 55, 80
2, 19872, Note_on_c, 0, 61, 80
2, 19899, Note_on_c, 0, 61, 0
2, 19899, Note_on_c, 0, 51, 0
2, 19899, Note_on_c, 0, 55, 0
2, 19934, Note_on_c, 0, 98, 0
2, 19934, Note_on_c, 0, 86, 0
2, 19945, Note_on_c, 0, 91, 80
2, 19976, Note_on_c, 0, 58, 80
2, 19978, Note_on_c, 0, 46, 80
2, 19978, Note_on_c, 0, 85, 80
2, 19980, Note_on_c, 0, 97, 80
2, 19982, Note_on_c, 0, 91, 0
2, 20001, Note_on_c, 0, 58, 0
2, 20001, Note_on_c, 0, 46, 0
2, 20028, Note_on_c, 0, 85, 0
2, 20028, Note_on_c, 0, 97, 0
2, 20047, Note_on_c, 0, 91, 80
2, 20080, Note_on_c, 0, 51, 80
2, 20080, Note_on_c, 0, 55, 80
2, 20080, Note_on_c, 0, 61, 80
2, 20080, Note_on_c, 0, 94, 80
2, 20084, Note_on_c, 0, 91, 0
2, 20105, Note_on_c, 0, 61, 0
2, 20105, Note_on_c, 0, 51, 0
2, 20105, Note_on_c, 0, 55, 0
2, 20105, Note_on_c, 0, 94, 0
2, 20147, Note_on_c, 0, 84, 80
2, 20160, Note_on_c, 0, 96, 80
2, 20180, Note_on_c, 0, 39, 80
2, 20182, Note_on_c, 0, 51, 80
2, 20214, Note_on_c, 0, 51, 0
2, 20214, Note_on_c, 0, 39, 0
2, 20216, Note_on_c, 0, 96, 0
2, 20216, Note_on_c, 0, 84, 0
2, 20247, Note_on_c, 0, 41, 80
2, 20247, Note_on_c, 0, 53, 80
2, 20256, Note_on_c, 0, 87, 80
2, 20276, Note_on_c, 0, 43, 80
2, 20276, Note_on_c, 0, 55, 80
2, 20278, Note_on_c, 0, 82, 80
2, 20280, Note_on_c, 0, 87, 0
2, 20280, Note_on_c, 0, 41, 0
2, 20280, Note_on_c, 0, 53, 0
2, 20289, Note_on_c, 0, 94, 80
2, 20310, Note_on_c, 0, 43, 0
2, 20322, Note_on_c, 0, 55, 0
2, 20333, Note_on_c, 0, 82, 0
2, 20333, Note_on_c, 0, 94, 0
2, 20341, Note_on_c, 0, 87, 80
2, 20366, Note_on_c, 0, 87, 0
2, 20372, Note_on_c, 0, 56, 80
2, 20374, Note_on_c, 0, 44, 80
2, 20408, Note_on_c, 0, 44, 0
2, 20408, Note_on_c, 0, 56, 0
2, 20441, Note_on_c, 0, 84, 80
2, 20472, Note_on_c, 0, 51, 80
2, 20472, Note_on_c, 0, 56, 80
2, 20473, Note_on_c, 0, 60, 80
2, 20473, Note_on_c, 0, 80, 80
2, 20473, Note_on_c, 0, 92, 80
2, 20475, Note_on_c, 0, 84, 0
2, 20495, Note_on_c, 0, 60, 0
2, 20495, Note_on_c, 0, 51, 0
2, 20495, Note_on_c, 0, 56, 0
2, 20529, Note_on_c, 0, 92, 0
2, 20529, Note_on_c, 0, 80, 0
2, 20539, Note_on_c, 0, 84, 80
2, 20569, Note_on_c, 0, 39, 80
2, 20569, Note_on_c, 0, 51, 80
2, 20571, Note_on_c, 0, 87, 80
2, 20573, Note_on_c, 0, 84, 0
2, 20596, Note_on_c, 0, 87, 0
2, 20604, Note_on_c, 0, 51, 0
2, 20604, Note_on_c, 0, 39, 0
2, 20639, Note_on_c, 0, 77, 80
2, 20639, Note_on_c, 0, 89, 80
2, 20671, Note_on_c, 0, 51, 80
2, 20671, Note_on_c, 0, 56, 80
2, 20671, Note_on_c, 0, 60, 80
2, 20696, Note_on_c, 0, 60, 0
2, 20696, Note_on_c, 0, 51, 0
2, 20696, Note_on_c, 0, 77, 0
2, 20696, Note_on_c, 0, 89, 0
2, 20696, Note_on_c, 0, 56, 0
2, 20742, Note_on_c, 0, 84, 80
2, 20773, Note_on_c, 0, 44, 80
2, 20773, Note_on_c, 0, 56, 80
2, 20775, Note_on_c, 0, 80, 80
2, 20775, Note_on_c, 0, 92, 80
2, 20777, Note_on_c, 0, 84, 0
2, 20808, Note_on_c, 0, 80, 0
2, 20808, Note_on_c, 0, 44, 0
2, 20808, Note_on_c, 0, 56, 0
2, 20808, Note_on_c, 0, 92, 0
2, 20838, Note_on_c, 0, 84, 80
2, 20873, Note_on_c, 0, 51, 80
2, 20873, Note_on_c, 0, 56, 80
2, 20873, Note_on_c, 0, 60, 80
2, 20875, Note_on_c, 0, 87, 80
2, 20877, Note_on_c, 0, 84, 0
2, 20896, Note_on_c, 0, 51, 0
2, 20896, Note_on_c, 0, 56, 0
2, 20898, Note_on_c, 0, 60, 0
2, 20907, Note_on_c, 0, 87, 0
2, 20940, Note_on_c, 0, 77, 80
2, 20940, Note_on_c, 0, 89, 80
2, 20948, Control_c, 0, 64, 127
2, 20973, Note_on_c, 0, 44, 80
2, 20973, Note_on_c, 0, 56, 80
2, 20998, Control_c, 0, 64, 0
2, 21030, Note_on_c, 0, 44, 0
2, 21032, Note_on_c, 0, 77, 0
2, 21032, Note_on_c, 0, 89, 0
2, 21032, Note_on_c, 0, 56, 0
2, 21040, Note_on_c, 0, 46, 80
2, 21040, Note_on_c, 0, 58, 80
2, 21042, Note_on_c, 0, 84, 80
2, 21072, Note_on_c, 0, 45, 80
2, 21072, Note_on_c, 0, 57, 80
2, 21074, Note_on_c, 0, 58, 0
2, 21074, Note_on_c, 0, 46, 0
2, 21074, Note_on_c, 0, 77, 80
2, 21074, Note_on_c, 0, 89, 80
2, 21076, Note_on_c, 0, 84, 0
2, 21130, Note_on_c, 0, 45, 0
2, 21132, Note_on_c, 0, 57, 0
2, 21140, Note_on_c, 0, 48, 80
2, 21140, Note_on_c, 0, 60, 80
2, 21168, Note_on_c, 0, 46, 80
2, 21170, Note_on_c, 0, 58, 80
2, 21172, Note_on_c, 0, 60, 0
2, 21172, Note_on_c, 0, 48, 0
2, 21172, Note_on_c, 0, 89, 0
2, 21172, Note_on_c, 0, 77, 0
2, 21203, Note_on_c, 0, 58, 0
2, 21203, Note_on_c, 0, 46, 0
2, 21238, Note_on_c, 0, 85, 80
2, 21268, Note_on_c, 0, 51, 80
2, 21268, Note_on_c, 0, 55, 80
2, 21268, Note_on_c, 0, 61, 80
2, 21270, Note_on_c, 0, 79, 80
2, 21270, Note_on_c, 0, 91, 80
2, 21272, Note_on_c, 0, 85, 0
2, 21291, Note_on_c, 0, 51, 0
2, 21291, Note_on_c, 0, 55, 0
2, 21293, Note_on_c, 0, 61, 0
2, 21326, Note_on_c, 0, 79, 0
2, 21328, Note_on_c, 0, 91, 0
2, 21336, Note_on_c, 0, 82, 80
2, 21366, Note_on_c, 0, 39, 80
2, 21368, Note_on_c, 0, 51, 80
2, 21368, Note_on_c, 0, 85, 80
2, 21370, Note_on_c, 0, 82, 0
2, 21376, Control_c, 0, 64, 127
2, 21393, Note_on_c, 0, 85, 0
2, 21401, Note_on_c, 0, 39, 0
2, 21403, Note_on_c, 0, 51, 0
2, 21420, Control_c, 0, 64, 0
2, 21435, Note_on_c, 0, 77, 80
2, 21447, Note_on_c, 0, 89, 80
2, 21464, Note_on_c, 0, 51, 80
2, 21466, Note_on_c, 0, 55, 80
2, 21466, Note_on_c, 0, 61, 80
2, 21491, Note_on_c, 0, 61, 0
2, 21491, Note_on_c, 0, 55, 0
2, 21493, Note_on_c, 0, 77, 0
2, 21493, Note_on_c, 0, 89, 0
2, 21493, Note_on_c, 0, 51, 0
2, 21545, Note_on_c, 0, 87, 80
2, 21568, Note_on_c, 0, 46, 80
2, 21568, Note_on_c, 0, 58, 80
2, 21579, Note_on_c, 0, 79, 80
2, 21579, Note_on_c, 0, 91, 80
2, 21581, Note_on_c, 0, 87, 0
2, 21602, Note_on_c, 0, 46, 0
2, 21604, Note_on_c, 0, 58, 0
2, 21616, Note_on_c, 0, 91, 0
2, 21627, Note_on_c, 0, 79, 0
2, 21637, Note_on_c, 0, 82, 80
2, 21670, Note_on_c, 0, 51, 80
2, 21670, Note_on_c, 0, 55, 80
2, 21670, Note_on_c, 0, 61, 80
2, 21672, Note_on_c, 0, 85, 80
2, 21675, Note_on_c, 0, 82, 0
2, 21695, Note_on_c, 0, 61, 0
2, 21695, Note_on_c, 0, 51, 0
2, 21695, Note_on_c, 0, 55, 0
2, 21696, Note_on_c, 0, 85, 0
2, 21739, Note_on_c, 0, 77, 80
2, 21739, Note_on_c, 0, 89, 80
2, 21771, Note_on_c, 0, 46, 80
2, 21773, Note_on_c, 0, 58, 80
2, 21806, Note_on_c, 0, 58, 0
2, 21806, Note_on_c, 0, 46, 0
2, 21808, Note_on_c, 0, 89, 0
2, 21808, Note_on_c, 0, 77, 0
2, 21840, Note_on_c, 0, 85, 80
2, 21875, Note_on_c, 0, 47, 80
2, 21875, Note_on_c, 0, 59, 80
2, 21875, Note_on_c, 0, 77, 80
2, 21875, Note_on_c, 0, 89, 80
2, 21877, Note_on_c, 0, 85, 0
2, 21910, Note_on_c, 0, 47, 0
2, 21910, Note_on_c, 0, 89, 0
2, 21910, Note_on_c, 0, 59, 0
2, 21912, Note_on_c, 0, 77, 0
2, 21978, Note_on_c, 0, 48, 80
2, 21978, Note_on_c, 0, 60, 80
2, 22014, Note_on_c, 0, 60, 0
2, 22014, Note_on_c, 0, 48, 0
2, 22049, Note_on_c, 0, 84, 80
2, 22081, Note_on_c, 0, 51, 80
2, 22081, Note_on_c, 0, 56, 80
2, 22081, Note_on_c, 0, 60, 80
2, 22081, Note_on_c, 0, 80, 80
2, 22085, Note_on_c, 0, 84, 0
2, 22091, Note_on_c, 0, 92, 80
2, 22104, Note_on_c, 0, 60, 0
2, 22104, Note_on_c, 0, 51, 0
2, 22104, Note_on_c, 0, 56, 0
2, 22139, Note_on_c, 0, 80, 0
2, 22139, Note_on_c, 0, 92, 0
2, 22147, Note_on_c, 0, 84, 80
2, 22177, Note_on_c, 0, 39, 80
2, 22177, Note_on_c, 0, 51, 80
2, 22179, Note_on_c, 0, 87, 80
2, 22183, Note_on_c, 0, 84, 0
2, 22212, Note_on_c, 0, 39, 0
2, 22214, Note_on_c, 0, 51, 0
2, 22216, Note_on_c, 0, 87, 0
2, 22247, Note_on_c, 0, 77, 80
2, 22247, Note_on_c, 0, 89, 80
2, 22279, Note_on_c, 0, 51, 80
2, 22279, Note_on_c, 0, 56, 80
2, 22279, Note_on_c, 0, 60, 80
2, 22304, Note_on_c, 0, 60, 0
2, 22304, Note_on_c, 0, 51, 0
2, 22304, Note_on_c, 0, 56, 0
2, 22304, Note_on_c, 0, 77, 0
2, 22306, Note_on_c, 0, 89, 0
2, 22346, Note_on_c, 0, 84, 80
2, 22379, Note_on_c, 0, 44, 80
2, 22379, Note_on_c, 0, 56, 80
2, 22381, Note_on_c, 0, 80, 80
2, 22385, Note_on_c, 0, 84, 0
2, 22389, Note_on_c, 0, 92, 80
2, 22412, Note_on_c, 0, 44, 0
2, 22414, Note_on_c, 0, 80, 0
2, 22414, Note_on_c, 0, 56, 0
2, 22416, Note_on_c, 0, 92, 0
2, 22446, Note_on_c, 0, 84, 80
2, 22475, Note_on_c, 0, 51, 80
2, 22477, Note_on_c, 0, 56, 80
2, 22477, Note_on_c, 0, 60, 80
2, 22479, Note_on_c, 0, 87, 80
2, 22483, Note_on_c, 0, 84, 0
2, 22500, Note_on_c, 0, 51, 0
2, 22502, Note_on_c, 0, 60, 0
2, 22502, Note_on_c, 0, 56, 0
2, 22502, Note_on_c, 0, 87, 0
2, 22519, Control_c, 0, 64, 127
2, 22546, Note_on_c, 0, 77, 80
2, 22546, Note_on_c, 0, 89, 80
2, 22579, Note_on_c, 0, 44, 80
2, 22579, Note_on_c, 0, 56, 80
2, 22600, Control_c, 0, 64, 0
2, 22634, Note_on_c, 0, 56, 0
2, 22634, Note_on_c, 0, 44, 0
2, 22636, Note_on_c, 0, 89, 0
2, 22636, Note_on_c, 0, 77, 0
2, 22642, Note_on_c, 0, 46, 80
2, 22642, Note_on_c, 0, 58, 80
2, 22646, Note_on_c, 0, 84, 80
2, 22677, Note_on_c, 0, 45, 80
2, 22677, Note_on_c, 0, 57, 80
2, 22679, Note_on_c, 0, 58, 0
2, 22679, Note_on_c, 0, 46, 0
2, 22679, Note_on_c, 0, 77, 80
2, 22680, Note_on_c, 0, 84, 0
2, 22688, Note_on_c, 0, 89, 80
2, 22711, Note_on_c, 0, 77, 0
2, 22713, Note_on_c, 0, 89, 0
2, 22732, Note_on_c, 0, 45, 0
2, 22734, Note_on_c, 0, 57, 0
2, 22740, Note_on_c, 0, 48, 80
2, 22742, Note_on_c, 0, 60, 80
2, 22769, Note_on_c, 0, 46, 80
2, 22769, Note_on_c, 0, 58, 80
2, 22775, Note_on_c, 0, 60, 0
2, 22775, Note_on_c, 0, 48, 0
2, 22809, Note_on_c, 0, 46, 0
2, 22809, Note_on_c, 0, 58, 0
2, 22842, Note_on_c, 0, 79, 80
2, 22874, Note_on_c, 0, 51, 80
2, 22874, Note_on_c, 0, 55, 80
2, 22874, Note_on_c, 0, 61, 80
2, 22874, Note_on_c, 0, 75, 80
2, 22878, Note_on_c, 0, 79, 0
2, 22888, Note_on_c, 0, 87, 80
2, 22899, Note_on_c, 0, 61, 0
2, 22899, Note_on_c, 0, 51, 0
2, 22899, Note_on_c, 0, 55, 0
2, 22934, Note_on_c, 0, 75, 0
2, 22936, Note_on_c, 0, 87, 0
2, 22944, Note_on_c, 0, 79, 80
2, 22976, Note_on_c, 0, 39, 80
2, 22976, Note_on_c, 0, 51, 80
2, 22978, Note_on_c, 0, 82, 80
2, 22980, Note_on_c, 0, 79, 0
2, 23009, Note_on_c, 0, 39, 0
2, 23011, Note_on_c, 0, 51, 0
2, 23013, Note_on_c, 0, 82, 0
2, 23041, Note_on_c, 0, 74, 80
2, 23043, Note_on_c, 0, 86, 80
2, 23074, Note_on_c, 0, 51, 80
2, 23074, Note_on_c, 0, 55, 80
2, 23074, Note_on_c, 0, 61, 80
2, 23097, Note_on_c, 0, 55, 0
2, 23097, Note_on_c, 0, 51, 0
2, 23099, Note_on_c, 0, 74, 0
2, 23099, Note_on_c, 0, 86, 0
2, 23099, Note_on_c, 0, 61, 0
2, 23141, Note_on_c, 0, 79, 80
2, 23174, Note_on_c, 0, 46, 80
2, 23176, Note_on_c, 0, 58, 80
2, 23176, Note_on_c, 0, 73, 80
2, 23178, Note_on_c, 0, 85, 80
2, 23182, Note_on_c, 0, 79, 0
2, 23208, Note_on_c, 0, 46, 0
2, 23210, Note_on_c, 0, 58, 0
2, 23222, Note_on_c, 0, 85, 0
2, 23233, Note_on_c, 0, 73, 0
2, 23241, Note_on_c, 0, 79, 80
2, 23272, Note_on_c, 0, 51, 80
2, 23274, Note_on_c, 0, 55, 80
2, 23274, Note_on_c, 0, 61, 80
2, 23274, Note_on_c, 0, 82, 80
2, 23276, Note_on_c, 0, 79, 0
2, 23297, Note_on_c, 0, 61, 0
2, 23297, Note_on_c, 0, 51, 0
2, 23297, Note_on_c, 0, 55, 0
2, 23310, Note_on_c, 0, 82, 0
2, 23316, Control_c, 0, 64, 127
2, 23339, Note_on_c, 0, 72, 80
2, 23341, Note_on_c, 0, 84, 80
2, 23370, Note_on_c, 0, 39, 80
2, 23370, Note_on_c, 0, 51, 80
2, 23393, Control_c, 0, 64, 0
2, 23429, Note_on_c, 0, 51, 0
2, 23429, Note_on_c, 0, 39, 0
2, 23431, Note_on_c, 0, 84, 0
2, 23431, Note_on_c, 0, 72, 0
2, 23437, Note_on_c, 0, 41, 80
2, 23437, Note_on_c, 0, 53, 80
2, 23437, Note_on_c, 0, 75, 80
2, 23472, Note_on_c, 0, 43, 80
2, 23472, Note_on_c, 0, 55, 80
2, 23472, Note_on_c, 0, 70, 80
2, 23473, Note_on_c, 0, 75, 0
2, 23473, Note_on_c, 0, 41, 0
2, 23473, Note_on_c, 0, 53, 0
2, 23473, Note_on_c, 0, 82, 80
2, 23516, Note_on_c, 0, 43, 0
2, 23518, Note_on_c, 0, 70, 0
2, 23518, Note_on_c, 0, 82, 0
2, 23539, Note_on_c, 0, 55, 0
2, 23539, Note_on_c, 0, 75, 80
2, 23564, Note_on_c, 0, 75, 0
2, 23569, Note_on_c, 0, 44, 80
2, 23569, Note_on_c, 0, 56, 80
2, 23604, Note_on_c, 0, 44, 0
2, 23606, Note_on_c, 0, 56, 0
2, 23639, Note_on_c, 0, 72, 80
2, 23671, Note_on_c, 0, 56, 80
2, 23671, Note_on_c, 0, 60, 80
2, 23671, Note_on_c, 0, 63, 80
2, 23673, Note_on_c, 0, 68, 80
2, 23673, Note_on_c, 0, 80, 80
2, 23675, Note_on_c, 0, 72, 0
2, 23696, Note_on_c, 0, 63, 0
2, 23696, Note_on_c, 0, 56, 0
2, 23696, Note_on_c, 0, 60, 0
2, 23721, Note_on_c, 0, 80, 0
2, 23721, Note_on_c, 0, 68, 0
2, 23738, Note_on_c, 0, 72, 80
2, 23771, Note_on_c, 0, 39, 80
2, 23771, Note_on_c, 0, 51, 80
2, 23773, Note_on_c, 0, 75, 80
2, 23775, Note_on_c, 0, 72, 0
2, 23798, Note_on_c, 0, 75, 0
2, 23808, Note_on_c, 0, 51, 0
2, 23808, Note_on_c, 0, 39, 0
2, 23838, Note_on_c, 0, 65, 80
2, 23840, Note_on_c, 0, 77, 80
2, 23873, Note_on_c, 0, 51, 80
2, 23873, Note_on_c, 0, 56, 80
2, 23873, Note_on_c, 0, 60, 80
2, 23896, Note_on_c, 0, 60, 0
2, 23896, Note_on_c, 0, 51, 0
2, 23896, Note_on_c, 0, 56, 0
2, 23898, Note_on_c, 0, 77, 0
2, 23898, Note_on_c, 0, 65, 0
2, 23938, Note_on_c, 0, 72, 80
2, 23971, Note_on_c, 0, 44, 80
2, 23971, Note_on_c, 0, 56, 80
2, 23973, Note_on_c, 0, 68, 80
2, 23973, Note_on_c, 0, 80, 80
2, 23976, Note_on_c, 0, 72, 0
2, 24005, Note_on_c, 0, 44, 0
2, 24005, Note_on_c, 0, 56, 0
2, 24007, Note_on_c, 0, 68, 0
2, 24007, Note_on_c, 0, 80, 0
2, 24072, Note_on_c, 0, 44, 80
2, 24073, Note_on_c, 0, 56, 80
2, 24075, Note_on_c, 0, 68, 80
2, 24075, Note_on_c, 0, 80, 80
2, 24118, Note_on_c, 0, 44, 0
2, 24120, Note_on_c, 0, 56, 0
2, 24120, Note_on_c, 0, 68, 0
2, 24133, Note_on_c, 0, 80, 0
2, 24173, Note_on_c, 0, 43, 80
2, 24173, Note_on_c, 0, 55, 80
2, 24173, Note_on_c, 0, 79, 80
2, 24175, Note_on_c, 0, 67, 80
2, 24229, Note_on_c, 0, 43, 0
2, 24231, Note_on_c, 0, 67, 0
2, 24231, Note_on_c, 0, 79, 0
2, 24242, Note_on_c, 0, 55, 0
2, 24273, Note_on_c, 0, 42, 80
2, 24275, Note_on_c, 0, 54, 80
2, 24275, Note_on_c, 0, 66, 80
2, 24275, Note_on_c, 0, 78, 80
2, 24331, Note_on_c, 0, 54, 0
2, 24331, Note_on_c, 0, 42, 0
2, 24333, Note_on_c, 0, 66, 0
2, 24335, Note_on_c, 0, 78, 0
2, 24375, Note_on_c, 0, 41, 80
2, 24375, Note_on_c, 0, 53, 80
2, 24409, Note_on_c, 0, 53, 0
2, 24409, Note_on_c, 0, 41, 0
2, 24417, Control_c, 0, 64, 127
2, 24444, Note_on_c, 0, 65, 80
2, 24475, Note_on_c, 0, 41, 80
2, 24475, Note_on_c, 0, 53, 80
2, 24477, Note_on_c, 0, 69, 80
2, 24480, Note_on_c, 0, 65, 0
2, 24509, Note_on_c, 0, 41, 0
2, 24511, Note_on_c, 0, 53, 0
2, 24534, Control_c, 0, 64, 0
2, 24536, Note_on_c, 0, 69, 0
2, 24548, Note_on_c, 0, 72, 80
2, 24578, Note_on_c, 0, 45, 80
2, 24580, Note_on_c, 0, 57, 80
2, 24580, Note_on_c, 0, 77, 80
2, 24582, Note_on_c, 0, 72, 0
2, 24613, Note_on_c, 0, 45, 0
2, 24615, Note_on_c, 0, 57, 0
2, 24642, Note_on_c, 0, 77, 0
2, 24648, Note_on_c, 0, 72, 80
2, 24680, Note_on_c, 0, 45, 80
2, 24682, Note_on_c, 0, 57, 80
2, 24682, Note_on_c, 0, 69, 80
2, 24684, Note_on_c, 0, 72, 0
2, 24728, Note_on_c, 0, 45, 0
2, 24730, Note_on_c, 0, 57, 0
2, 24742, Note_on_c, 0, 69, 0
2, 24749, Note_on_c, 0, 65, 80
2, 24774, Note_on_c, 0, 65, 0
2, 24784, Note_on_c, 0, 46, 80
2, 24784, Note_on_c, 0, 58, 80
2, 24816, Note_on_c, 0, 46, 0
2, 24818, Note_on_c, 0, 58, 0
2, 24851, Note_on_c, 0, 65, 80
2, 24884, Note_on_c, 0, 53, 80
2, 24884, Note_on_c, 0, 58, 80
2, 24884, Note_on_c, 0, 61, 80
2, 24884, Note_on_c, 0, 70, 80
2, 24888, Note_on_c, 0, 65, 0
2, 24907, Note_on_c, 0, 61, 0
2, 24907, Note_on_c, 0, 53, 0
2, 24907, Note_on_c, 0, 58, 0
2, 24930, Note_on_c, 0, 70, 0
2, 24951, Note_on_c, 0, 73, 80
2, 24984, Note_on_c, 0, 53, 80
2, 24984, Note_on_c, 0, 58, 80
2, 24984, Note_on_c, 0, 61, 80
2, 24984, Note_on_c, 0, 65, 80
2, 24984, Note_on_c, 0, 77, 80
2, 24985, Note_on_c, 0, 73, 0
2, 25018, Note_on_c, 0, 58, 0
2, 25018, Note_on_c, 0, 61, 0
2, 25018, Note_on_c, 0, 53, 0
2, 25018, Note_on_c, 0, 77, 0
2, 25018, Note_on_c, 0, 65, 0
2, 25080, Note_on_c, 0, 53, 80
2, 25080, Note_on_c, 0, 58, 80
2, 25080, Note_on_c, 0, 61, 80
2, 25080, Note_on_c, 0, 73, 80
2, 25082, Note_on_c, 0, 65, 80
2, 25082, Note_on_c, 0, 70, 80
2, 25115, Note_on_c, 0, 61, 0
2, 25115, Note_on_c, 0, 53, 0
2, 25115, Note_on_c, 0, 58, 0
2, 25136, Note_on_c, 0, 73, 0
2, 25136, Note_on_c, 0, 65, 0
2, 25136, Note_on_c, 0, 70, 0
2, 25175, Note_on_c, 0, 46, 80
2, 25176, Note_on_c, 0, 53, 80
2, 25178, Note_on_c, 0, 58, 80
2, 25178, Note_on_c, 0, 62, 80
2, 25178, Note_on_c, 0, 65, 80
2, 25178, Note_on_c, 0, 68, 80
2, 25178, Note_on_c, 0, 72, 80
2, 25209, Note_on_c, 0, 46, 0
2, 25211, Note_on_c, 0, 68, 0
2, 25211, Note_on_c, 0, 58, 0
2, 25211, Note_on_c, 0, 62, 0
2, 25211, Note_on_c, 0, 53, 0
2, 25211, Note_on_c, 0, 72, 0
2, 25211, Note_on_c, 0, 65, 0
2, 25275, Note_on_c, 0, 46, 80
2, 25277, Note_on_c, 0, 53, 80
2, 25277, Note_on_c, 0, 58, 80
2, 25312, Note_on_c, 0, 53, 0
2, 25312, Note_on_c, 0, 46, 0
2, 25314, Note_on_c, 0, 58, 0
2, 25344, Note_on_c, 0, 62, 80
2, 25344, Note_on_c, 0, 65, 80
2, 25344, Note_on_c, 0, 68, 80
2, 25344, Note_on_c, 0, 72, 80
2, 25375, Note_on_c, 0, 39, 80
2, 25375, Note_on_c, 0, 51, 80
2, 25379, Note_on_c, 0, 72, 0
2, 25379, Note_on_c, 0, 68, 0
2, 25379, Note_on_c, 0, 62, 0
2, 25379, Note_on_c, 0, 65, 0
2, 25385, Control_c, 0, 64, 127
2, 25423, Note_on_c, 0, 39, 0
2, 25425, Note_on_c, 0, 51, 0
2, 25433, Control_c, 0, 64, 0
2, 25442, Note_on_c, 0, 41, 80
2, 25444, Note_on_c, 0, 53, 80
2, 25444, Note_on_c, 0, 61, 80
2, 25446, Note_on_c, 0, 70, 80
2, 25477, Note_on_c, 0, 43, 80
2, 25477, Note_on_c, 0, 55, 80
2, 25479, Note_on_c, 0, 53, 0
2, 25479, Note_on_c, 0, 41, 0
2, 25513, Note_on_c, 0, 43, 0
2, 25515, Note_on_c, 0, 70, 0
2, 25515, Note_on_c, 0, 55, 0
2, 25515, Note_on_c, 0, 61, 0
2, 25550, Note_on_c, 0, 63, 80
2, 25581, Note_on_c, 0, 44, 80
2, 25583, Note_on_c, 0, 56, 80
2, 25584, Note_on_c, 0, 63, 0
2, 25619, Note_on_c, 0, 56, 0
2, 25619, Note_on_c, 0, 44, 0
2, 25652, Note_on_c, 0, 68, 80
2, 25684, Note_on_c, 0, 56, 80
2, 25684, Note_on_c, 0, 60, 80
2, 25684, Note_on_c, 0, 63, 80
2, 25684, Note_on_c, 0, 72, 80
2, 25688, Note_on_c, 0, 68, 0
2, 25709, Note_on_c, 0, 63, 0
2, 25709, Note_on_c, 0, 56, 0
2, 25709, Note_on_c, 0, 60, 0
2, 25744, Note_on_c, 0, 72, 0
2, 25752, Note_on_c, 0, 75, 80
2, 25784, Note_on_c, 0, 56, 80
2, 25784, Note_on_c, 0, 60, 80
2, 25784, Note_on_c, 0, 63, 80
2, 25786, Note_on_c, 0, 68, 80
2, 25786, Note_on_c, 0, 80, 80
2, 25788, Note_on_c, 0, 75, 0
2, 25817, Note_on_c, 0, 63, 0
2, 25817, Note_on_c, 0, 56, 0
2, 25817, Note_on_c, 0, 60, 0
2, 25819, Note_on_c, 0, 80, 0
2, 25819, Note_on_c, 0, 68, 0
2, 25885, Note_on_c, 0, 39, 80
2, 25885, Note_on_c, 0, 51, 80
2, 25941, Note_on_c, 0, 51, 0
2, 25941, Note_on_c, 0, 39, 0
2, 25950, Note_on_c, 0, 41, 80
2, 25950, Note_on_c, 0, 53, 80
2, 25983, Note_on_c, 0, 41, 0
2, 25983, Note_on_c, 0, 44, 80
2, 25983, Note_on_c, 0, 56, 80
2, 25985, Note_on_c, 0, 53, 0
2, 26016, Note_on_c, 0, 56, 0
2, 26016, Note_on_c, 0, 44, 0
2, 26048, Note_on_c, 0, 68, 80
2, 26081, Note_on_c, 0, 51, 80
2, 26081, Note_on_c, 0, 56, 80
2, 26081, Note_on_c, 0, 60, 80
2, 26081, Note_on_c, 0, 63, 80
2, 26081, Note_on_c, 0, 75, 80
2, 26085, Note_on_c, 0, 68, 0
2, 26104, Note_on_c, 0, 60, 0
2, 26104, Note_on_c, 0, 51, 0
2, 26104, Note_on_c, 0, 56, 0
2, 26136, Note_on_c, 0, 63, 0
2, 26138, Note_on_c, 0, 75, 0
2, 26146, Note_on_c, 0, 68, 80
2, 26177, Note_on_c, 0, 51, 80
2, 26177, Note_on_c, 0, 56, 80
2, 26177, Note_on_c, 0, 60, 80
2, 26179, Note_on_c, 0, 72, 80
2, 26181, Note_on_c, 0, 68, 0
2, 26200, Note_on_c, 0, 60, 0
2, 26200, Note_on_c, 0, 51, 0
2, 26202, Note_on_c, 0, 56, 0
2, 26202, Note_on_c, 0, 72, 0
2, 26246, Note_on_c, 0, 63, 80
2, 26246, Note_on_c, 0, 75, 80
2, 26279, Note_on_c, 0, 45, 80
2, 26279, Note_on_c, 0, 57, 80
2, 26280, Note_on_c, 0, 63, 0
2, 26282, Note_on_c, 0, 75, 0
2, 26315, Note_on_c, 0, 45, 0
2, 26315, Note_on_c, 0, 57, 0
2, 26348, Note_on_c, 0, 67, 80
2, 26378, Note_on_c, 0, 46, 80
2, 26380, Note_on_c, 0, 58, 80
2, 26380, Note_on_c, 0, 63, 80
2, 26380, Note_on_c, 0, 75, 80
2, 26382, Note_on_c, 0, 67, 0
2, 26415, Note_on_c, 0, 46, 0
2, 26415, Note_on_c, 0, 58, 0
2, 26440, Note_on_c, 0, 63, 0
2, 26440, Note_on_c, 0, 75, 0
2, 26449, Note_on_c, 0, 67, 80
2, 26482, Note_on_c, 0, 51, 80
2, 26482, Note_on_c, 0, 55, 80
2, 26482, Note_on_c, 0, 61, 80
2, 26482, Note_on_c, 0, 70, 80
2, 26486, Note_on_c, 0, 67, 0
2, 26507, Note_on_c, 0, 61, 0
2, 26507, Note_on_c, 0, 51, 0
2, 26507, Note_on_c, 0, 55, 0
2, 26509, Note_on_c, 0, 70, 0
2, 26551, Note_on_c, 0, 63, 80
2, 26553, Note_on_c, 0, 75, 80
2, 26584, Note_on_c, 0, 51, 80
2, 26584, Note_on_c, 0, 55, 80
2, 26584, Note_on_c, 0, 61, 80
2, 26609, Note_on_c, 0, 61, 0
2, 26609, Note_on_c, 0, 51, 0
2, 26609, Note_on_c, 0, 55, 0
2, 26659, Control_c, 0, 64, 127
2, 26682, Note_on_c, 0, 39, 80
2, 26684, Note_on_c, 0, 51, 80
2, 26736, Control_c, 0, 64, 0
2, 26737, Note_on_c, 0, 51, 0
2, 26737, Note_on_c, 0, 39, 0
2, 26739, Note_on_c, 0, 75, 0
2, 26739, Note_on_c, 0, 63, 0
2, 26747, Note_on_c, 0, 41, 80
2, 26749, Note_on_c, 0, 53, 80
2, 26782, Note_on_c, 0, 44, 80
2, 26782, Note_on_c, 0, 56, 80
2, 26784, Note_on_c, 0, 53, 0
2, 26784, Note_on_c, 0, 41, 0
2, 26820, Note_on_c, 0, 44, 0
2, 26822, Note_on_c, 0, 56, 0
2, 26855, Note_on_c, 0, 68, 80
2, 26887, Note_on_c, 0, 51, 80
2, 26889, Note_on_c, 0, 56, 80
2, 26889, Note_on_c, 0, 60, 80
2, 26889, Note_on_c, 0, 63, 80
2, 26889, Note_on_c, 0, 75, 80
2, 26891, Note_on_c, 0, 68, 0
2, 26912, Note_on_c, 0, 60, 0
2, 26912, Note_on_c, 0, 51, 0
2, 26912, Note_on_c, 0, 56, 0
2, 26947, Note_on_c, 0, 75, 0
2, 26947, Note_on_c, 0, 63, 0
2, 26954, Note_on_c, 0, 68, 80
2, 26987, Note_on_c, 0, 51, 80
2, 26987, Note_on_c, 0, 56, 80
2, 26987, Note_on_c, 0, 60, 80
2, 26989, Note_on_c, 0, 72, 80
2, 26991, Note_on_c, 0, 68, 0
2, 27012, Note_on_c, 0, 60, 0
2, 27012, Note_on_c, 0, 51, 0
2, 27012, Note_on_c, 0, 56, 0
2, 27024, Note_on_c, 0, 72, 0
2, 27056, Note_on_c, 0, 63, 80
2, 27058, Note_on_c, 0, 75, 80
2, 27089, Note_on_c, 0, 45, 80
2, 27089, Note_on_c, 0, 57, 80
2, 27093, Note_on_c, 0, 75, 0
2, 27093, Note_on_c, 0, 63, 0
2, 27123, Note_on_c, 0, 45, 0
2, 27125, Note_on_c, 0, 57, 0
2, 27156, Note_on_c, 0, 67, 80
2, 27191, Note_on_c, 0, 75, 80
2, 27200, Note_on_c, 0, 46, 80
2, 27200, Note_on_c, 0, 58, 80
2, 27200, Note_on_c, 0, 63, 80
2, 27202, Note_on_c, 0, 67, 0
2, 27235, Note_on_c, 0, 58, 0
2, 27235, Note_on_c, 0, 46, 0
2, 27258, Note_on_c, 0, 75, 0
2, 27258, Note_on_c, 0, 63, 0
2, 27264, Note_on_c, 0, 67, 80
2, 27298, Note_on_c, 0, 51, 80
2, 27298, Note_on_c, 0, 55, 80
2, 27298, Note_on_c, 0, 61, 80
2, 27300, Note_on_c, 0, 70, 80
2, 27302, Note_on_c, 0, 67, 0
2, 27323, Note_on_c, 0, 61, 0
2, 27323, Note_on_c, 0, 51, 0
2, 27323, Note_on_c, 0, 55, 0
2, 27325, Note_on_c, 0, 70, 0
2, 27365, Note_on_c, 0, 63, 80
2, 27365, Note_on_c, 0, 75, 80
2, 27402, Note_on_c, 0, 51, 80
2, 27402, Note_on_c, 0, 55, 80
2, 27402, Note_on_c, 0, 61, 80
2, 27434, Note_on_c, 0, 55, 0
2, 27434, Note_on_c, 0, 51, 0
2, 27436, Note_on_c, 0, 63, 0
2, 27436, Note_on_c, 0, 75, 0
2, 27436, Note_on_c, 0, 61, 0
2, 27503, Note_on_c, 0, 39, 80
2, 27503, Note_on_c, 0, 51, 80
2, 27558, Note_on_c, 0, 51, 0
2, 27558, Note_on_c, 0, 39, 0
2, 27566, Note_on_c, 0, 63, 80
2, 27566, Note_on_c, 0, 75, 80
2, 27591, Note_on_c, 0, 75, 0
2, 27591, Note_on_c, 0, 63, 0
2, 27600, Note_on_c, 0, 40, 80
2, 27600, Note_on_c, 0, 52, 80
2, 27608, Control_c, 0, 64, 127
2, 27654, Control_c, 0, 64, 0
2, 27666, Note_on_c, 0, 68, 80
2, 27698, Note_on_c, 0, 52, 0
2, 27698, Note_on_c, 0, 40, 0
2, 27698, Note_on_c, 0, 71, 80
2, 27700, Note_on_c, 0, 68, 0
2, 27725, Note_on_c, 0, 71, 0
2, 27768, Note_on_c, 0, 64, 80
2, 27768, Note_on_c, 0, 76, 80
2, 27800, Note_on_c, 0, 39, 80
2, 27800, Note_on_c, 0, 51, 80
2, 27804, Note_on_c, 0, 76, 0
2, 27804, Note_on_c, 0, 64, 0
2, 27837, Note_on_c, 0, 39, 0
2, 27837, Note_on_c, 0, 51, 0
2, 27867, Note_on_c, 0, 63, 80
2, 27867, Note_on_c, 0, 75, 80
2, 27894, Note_on_c, 0, 75, 0
2, 27894, Note_on_c, 0, 63, 0
2, 27902, Note_on_c, 0, 39, 80
2, 27902, Note_on_c, 0, 51, 80
2, 27936, Note_on_c, 0, 51, 0
2, 27936, Note_on_c, 0, 39, 0
2, 27967, Note_on_c, 0, 63, 80
2, 27969, Note_on_c, 0, 75, 80
2, 27994, Note_on_c, 0, 75, 0
2, 27994, Note_on_c, 0, 63, 0
2, 28002, Note_on_c, 0, 52, 80
2, 28004, Note_on_c, 0, 40, 80
2, 28070, Note_on_c, 0, 68, 80
2, 28072, Note_on_c, 0, 40, 0
2, 28072, Note_on_c, 0, 52, 0
2, 28104, Note_on_c, 0, 71, 80
2, 28108, Note_on_c, 0, 68, 0
2, 28128, Note_on_c, 0, 71, 0
2, 28172, Note_on_c, 0, 64, 80
2, 28174, Note_on_c, 0, 76, 80
2, 28204, Note_on_c, 0, 39, 80
2, 28204, Note_on_c, 0, 51, 80
2, 28206, Note_on_c, 0, 76, 0
2, 28206, Note_on_c, 0, 64, 0
2, 28241, Note_on_c, 0, 39, 0
2, 28241, Note_on_c, 0, 51, 0
2, 28272, Note_on_c, 0, 63, 80
2, 28272, Note_on_c, 0, 75, 80
2, 28368, Note_on_c, 0, 50, 80
2, 28380, Note_on_c, 0, 48, 80
2, 28392, Note_on_c, 0, 46, 80
2, 28401, Note_on_c, 0, 32, 80
2, 28434, Note_on_c, 0, 46, 0
2, 28434, Note_on_c, 0, 48, 0
2, 28434, Note_on_c, 0, 50, 0
2, 28434, Note_on_c, 0, 63, 0
2, 28434, Note_on_c, 0, 75, 0
2, 28443, Control_c, 0, 64, 127
2, 28457, Note_on_c, 0, 32, 0
2, 28464, Note_on_c, 0, 44, 80
2, 28488, Control_c, 0, 64, 0
2, 28497, Note_on_c, 0, 47, 80
2, 28499, Note_on_c, 0, 44, 0
2, 28553, Note_on_c, 0, 47, 0
2, 28562, Note_on_c, 0, 56, 80
2, 28597, Note_on_c, 0, 44, 80
2, 28599, Note_on_c, 0, 56, 0
2, 28608, Control_c, 0, 64, 127
2, 28653, Note_on_c, 0, 44, 0
2, 28662, Note_on_c, 0, 56, 80
2, 28697, Note_on_c, 0, 59, 80
2, 28699, Note_on_c, 0, 56, 0
2, 28751, Control_c, 0, 64, 0
2, 28752, Note_on_c, 0, 59, 0
2, 28762, Note_on_c, 0, 68, 80
2, 28795, Note_on_c, 0, 56, 80
2, 28797, Note_on_c, 0, 68, 0
2, 28854, Note_on_c, 0, 56, 0
2, 28866, Note_on_c, 0, 68, 80
2, 28898, Note_on_c, 0, 71, 80
2, 28902, Note_on_c, 0, 68, 0
2, 28958, Note_on_c, 0, 71, 0
2, 28968, Note_on_c, 0, 80, 80
2, 29002, Note_on_c, 0, 68, 80
2, 29004, Note_on_c, 0, 80, 0
2, 29062, Note_on_c, 0, 68, 0
2, 29071, Note_on_c, 0, 80, 80
2, 29104, Note_on_c, 0, 57, 80
2, 29104, Note_on_c, 0, 83, 80
2, 29108, Note_on_c, 0, 80, 0
2, 29117, Control_c, 0, 64, 127
2, 29138, Note_on_c, 0, 59, 80
2, 29163, Note_on_c, 0, 57, 0
2, 29173, Note_on_c, 0, 61, 80
2, 29173, Note_on_c, 0, 92, 80
2, 29179, Note_on_c, 0, 83, 0
2, 29186, Note_on_c, 0, 92, 0
2, 29196, Note_on_c, 0, 59, 0
2, 29196, Control_c, 0, 64, 0
2, 29206, Note_on_c, 0, 62, 80
2, 29206, Note_on_c, 0, 65, 80
2, 29206, Note_on_c, 0, 68, 80
2, 29206, Note_on_c, 0, 71, 80
2, 29206, Note_on_c, 0, 80, 80
2, 29206, Note_on_c, 0, 92, 80
2, 29208, Note_on_c, 0, 61, 0
2, 29231, Note_on_c, 0, 65, 0
2, 29231, Note_on_c, 0, 71, 0
2, 29231, Note_on_c, 0, 68, 0
2, 29231, Note_on_c, 0, 92, 0
2, 29232, Note_on_c, 0, 62, 0
2, 29232, Note_on_c, 0, 80, 0
2, 29308, Note_on_c, 0, 71, 80
2, 29310, Note_on_c, 0, 62, 80
2, 29310, Note_on_c, 0, 65, 80
2, 29310, Note_on_c, 0, 68, 80
2, 29310, Note_on_c, 0, 80, 80
2, 29310, Note_on_c, 0, 92, 80
2, 29333, Note_on_c, 0, 92, 0
2, 29333, Note_on_c, 0, 62, 0
2, 29333, Note_on_c, 0, 65, 0
2, 29333, Note_on_c, 0, 71, 0
2, 29333, Note_on_c, 0, 80, 0
2, 29333, Note_on_c, 0, 68, 0
2, 29409, Note_on_c, 0, 62, 80
2, 29409, Note_on_c, 0, 65, 80
2, 29409, Note_on_c, 0, 68, 80
2, 29409, Note_on_c, 0, 80, 80
2, 29421, Note_on_c, 0, 71, 80
2, 29423, Note_on_c, 0, 92, 80
2, 29434, Note_on_c, 0, 92, 0
2, 29434, Note_on_c, 0, 65, 0
2, 29434, Note_on_c, 0, 62, 0
2, 29434, Note_on_c, 0, 68, 0
2, 29434, Note_on_c, 0, 71, 0
2, 29446, Note_on_c, 0, 80, 0
2, 29512, Note_on_c, 0, 62, 80
2, 29514, Note_on_c, 0, 65, 80
2, 29514, Note_on_c, 0, 68, 80
2, 29514, Note_on_c, 0, 71, 80
2, 29514, Note_on_c, 0, 80, 80
2, 29525, Note_on_c, 0, 92, 80
2, 29535, Note_on_c, 0, 92, 0
2, 29535, Note_on_c, 0, 71, 0
2, 29537, Note_on_c, 0, 68, 0
2, 29537, Note_on_c, 0, 62, 0
2, 29537, Note_on_c, 0, 65, 0
2, 29548, Note_on_c, 0, 80, 0
2, 29579, Note_on_c, 0, 80, 80
2, 29589, Note_on_c, 0, 92, 80
2, 29610, Note_on_c, 0, 63, 80
2, 29610, Note_on_c, 0, 68, 80
2, 29610, Note_on_c, 0, 72, 80
2, 29635, Note_on_c, 0, 72, 0
2, 29635, Note_on_c, 0, 63, 0
2, 29635, Note_on_c, 0, 68, 0
2, 29635, Note_on_c, 0, 92, 0
2, 29637, Note_on_c, 0, 80, 0
2, 29687, Note_on_c, 0, 87, 80
2, 29710, Note_on_c, 0, 63, 80
2, 29710, Note_on_c, 0, 68, 80
2, 29710, Note_on_c, 0, 72, 80
2, 29712, Note_on_c, 0, 87, 0
2, 29719, Note_on_c, 0, 89, 80
2, 29733, Note_on_c, 0, 63, 0
2, 29733, Note_on_c, 0, 72, 0
2, 29733, Note_on_c, 0, 68, 0
2, 29767, Note_on_c, 0, 89, 0
2, 29773, Note_on_c, 0, 84, 80
2, 29808, Note_on_c, 0, 68, 80
2, 29809, Note_on_c, 0, 63, 80
2, 29809, Note_on_c, 0, 72, 80
2, 29809, Note_on_c, 0, 87, 80
2, 29811, Note_on_c, 0, 84, 0
2, 29831, Note_on_c, 0, 72, 0
2, 29831, Note_on_c, 0, 68, 0
2, 29831, Note_on_c, 0, 63, 0
2, 29831, Note_on_c, 0, 87, 0
2, 29875, Note_on_c, 0, 89, 80
2, 29877, Note_on_c, 0, 80, 80
2, 29909, Note_on_c, 0, 72, 80
2, 29911, Note_on_c, 0, 80, 0
2, 29911, Note_on_c, 0, 63, 80
2, 29911, Note_on_c, 0, 68, 80
2, 29913, Note_on_c, 0, 89, 0
2, 29932, Note_on_c, 0, 72, 0
2, 29932, Note_on_c, 0, 63, 0
2, 29932, Note_on_c, 0, 68, 0
2, 29976, Note_on_c, 0, 76, 80
2, 29976, Note_on_c, 0, 80, 80
2, 30009, Note_on_c, 0, 68, 80
2, 30009, Note_on_c, 0, 71, 80
2, 30011, Note_on_c, 0, 64, 80
2, 30034, Note_on_c, 0, 64, 0
2, 30034, Note_on_c, 0, 68, 0
2, 30034, Note_on_c, 0, 76, 0
2, 30034, Note_on_c, 0, 80, 0
2, 30034, Note_on_c, 0, 71, 0
2, 30078, Note_on_c, 0, 82, 80
2, 30111, Note_on_c, 0, 64, 80
2, 30111, Note_on_c, 0, 68, 80
2, 30111, Note_on_c, 0, 71, 80
2, 30111, Note_on_c, 0, 76, 80
2, 30111, Note_on_c, 0, 83, 80
2, 30115, Note_on_c, 0, 82, 0
2, 30136, Note_on_c, 0, 71, 0
2, 30138, Note_on_c, 0, 64, 0
2, 30138, Note_on_c, 0, 68, 0
2, 30170, Note_on_c, 0, 83, 0
2, 30172, Note_on_c, 0, 76, 0
2, 30180, Note_on_c, 0, 80, 80
2, 30213, Note_on_c, 0, 63, 80
2, 30213, Note_on_c, 0, 68, 80
2, 30213, Note_on_c, 0, 72, 80
2, 30215, Note_on_c, 0, 82, 80
2, 30216, Note_on_c, 0, 80, 0
2, 30236, Note_on_c, 0, 72, 0
2, 30238, Note_on_c, 0, 63, 0
2, 30238, Note_on_c, 0, 68, 0
2, 30238, Note_on_c, 0, 82, 0
2, 30280, Note_on_c, 0, 84, 80
2, 30314, Note_on_c, 0, 63, 80
2, 30314, Note_on_c, 0, 68, 80
2, 30314, Note_on_c, 0, 72, 80
2, 30337, Note_on_c, 0, 72, 0
2, 30337, Note_on_c, 0, 84, 0
2, 30337, Note_on_c, 0, 63, 0
2, 30339, Note_on_c, 0, 68, 0
2, 30380, Note_on_c, 0, 80, 80
2, 30412, Note_on_c, 0, 68, 80
2, 30414, Note_on_c, 0, 63, 80
2, 30414, Note_on_c, 0, 72, 80
2, 30414, Note_on_c, 0, 84, 80
2, 30416, Note_on_c, 0, 80, 0
2, 30437, Note_on_c, 0, 68, 0
2, 30437, Note_on_c, 0, 63, 0
2, 30451, Note_on_c, 0, 72, 0
2, 30472, Note_on_c, 0, 84, 0
2, 30481, Note_on_c, 0, 80, 80
2, 30514, Note_on_c, 0, 63, 80
2, 30514, Note_on_c, 0, 67, 80
2, 30514, Note_on_c, 0, 73, 80
2, 30514, Note_on_c, 0, 82, 80
2, 30516, Note_on_c, 0, 80, 0
2, 30547, Note_on_c, 0, 73, 0
2, 30547, Note_on_c, 0, 63, 0
2, 30547, Note_on_c, 0, 67, 0
2, 30547, Note_on_c, 0, 82, 0
2, 30609, Note_on_c, 0, 80, 80
2, 30611, Note_on_c, 0, 63, 80
2, 30611, Note_on_c, 0, 68, 80
2, 30611, Note_on_c, 0, 72, 80
2, 30646, Note_on_c, 0, 72, 0
2, 30646, Note_on_c, 0, 80, 0
2, 30646, Note_on_c, 0, 63, 0
2, 30646, Note_on_c, 0, 68, 0
2, 30710, Note_on_c, 0, 45, 80
2, 30720, Control_c, 0, 64, 127
2, 30743, Note_on_c, 0, 47, 80
2, 30768, Note_on_c, 0, 45, 0
2, 30775, Note_on_c, 0, 68, 80
2, 30777, Note_on_c, 0, 49, 80
2, 30777, Note_on_c, 0, 80, 80
2, 30800, Note_on_c, 0, 47, 0
2, 30810, Note_on_c, 0, 49, 0
2, 30810, Note_on_c, 0, 50, 80
2, 30810, Note_on_c, 0, 53, 80
2, 30810, Note_on_c, 0, 56, 80
2, 30810, Note_on_c, 0, 59, 80
2, 30831, Note_on_c, 0, 59, 0
2, 30831, Note_on_c, 0, 68, 0
2, 30831, Note_on_c, 0, 80, 0
2, 30831, Note_on_c, 0, 50, 0
2, 30831, Control_c, 0, 64, 0
2, 30833, Note_on_c, 0, 53, 0
2, 30833, Note_on_c, 0, 56, 0
2, 30905, Note_on_c, 0, 80, 80
2, 30907, Note_on_c, 0, 50, 80
2, 30907, Note_on_c, 0, 53, 80
2, 30907, Note_on_c, 0, 56, 80
2, 30907, Note_on_c, 0, 59, 80
2, 30907, Note_on_c, 0, 68, 80
2, 30930, Note_on_c, 0, 68, 0
2, 30930, Note_on_c, 0, 50, 0
2, 30930, Note_on_c, 0, 53, 0
2, 30930, Note_on_c, 0, 80, 0
2, 30930, Note_on_c, 0, 59, 0
2, 30930, Note_on_c, 0, 56, 0
2, 31008, Note_on_c, 0, 68, 80
2, 31008, Note_on_c, 0, 80, 80
2, 31009, Note_on_c, 0, 50, 80
2, 31009, Note_on_c, 0, 53, 80
2, 31009, Note_on_c, 0, 56, 80
2, 31009, Note_on_c, 0, 59, 80
2, 31042, Note_on_c, 0, 59, 0
2, 31044, Note_on_c, 0, 80, 0
2, 31044, Note_on_c, 0, 50, 0
2, 31044, Note_on_c, 0, 68, 0
2, 31044, Note_on_c, 0, 56, 0
2, 31044, Note_on_c, 0, 53, 0
2, 31106, Note_on_c, 0, 50, 80
2, 31106, Note_on_c, 0, 53, 80
2, 31106, Note_on_c, 0, 56, 80
2, 31106, Note_on_c, 0, 59, 80
2, 31106, Note_on_c, 0, 68, 80
2, 31106, Note_on_c, 0, 80, 80
2, 31128, Note_on_c, 0, 80, 0
2, 31128, Note_on_c, 0, 53, 0
2, 31128, Note_on_c, 0, 56, 0
2, 31128, Note_on_c, 0, 50, 0
2, 31128, Note_on_c, 0, 68, 0
2, 31128, Note_on_c, 0, 59, 0
2, 31172, Note_on_c, 0, 68, 80
2, 31172, Note_on_c, 0, 80, 80
2, 31204, Note_on_c, 0, 51, 80
2, 31204, Note_on_c, 0, 56, 80
2, 31204, Note_on_c, 0, 60, 80
2, 31229, Note_on_c, 0, 60, 0
2, 31229, Note_on_c, 0, 51, 0
2, 31229, Note_on_c, 0, 56, 0
2, 31250, Note_on_c, 0, 80, 0
2, 31250, Note_on_c, 0, 68, 0
2, 31272, Note_on_c, 0, 75, 80
2, 31306, Note_on_c, 0, 68, 80
2, 31308, Note_on_c, 0, 51, 80
2, 31308, Note_on_c, 0, 56, 80
2, 31308, Note_on_c, 0, 60, 80
2, 31308, Note_on_c, 0, 77, 80
2, 31312, Note_on_c, 0, 75, 0
2, 31331, Note_on_c, 0, 60, 0
2, 31331, Note_on_c, 0, 56, 0
2, 31331, Note_on_c, 0, 51, 0
2, 31366, Note_on_c, 0, 68, 0
2, 31366, Note_on_c, 0, 77, 0
2, 31375, Note_on_c, 0, 72, 80
2, 31410, Note_on_c, 0, 51, 80
2, 31410, Note_on_c, 0, 56, 80
2, 31410, Note_on_c, 0, 60, 80
2, 31410, Note_on_c, 0, 75, 80
2, 31412, Note_on_c, 0, 72, 0
2, 31435, Note_on_c, 0, 60, 0
2, 31435, Note_on_c, 0, 51, 0
2, 31435, Note_on_c, 0, 56, 0
2, 31435, Note_on_c, 0, 75, 0
2, 31481, Note_on_c, 0, 68, 80
2, 31481, Note_on_c, 0, 77, 80
2, 31515, Note_on_c, 0, 51, 80
2, 31515, Note_on_c, 0, 56, 80
2, 31515, Note_on_c, 0, 60, 80
2, 31538, Note_on_c, 0, 60, 0
2, 31538, Note_on_c, 0, 51, 0
2, 31538, Note_on_c, 0, 68, 0
2, 31538, Note_on_c, 0, 77, 0
2, 31538, Note_on_c, 0, 56, 0
2, 31583, Note_on_c, 0, 64, 80
2, 31583, Note_on_c, 0, 68, 80
2, 31617, Note_on_c, 0, 52, 80
2, 31617, Note_on_c, 0, 56, 80
2, 31619, Note_on_c, 0, 59, 80
2, 31640, Note_on_c, 0, 59, 0
2, 31640, Note_on_c, 0, 52, 0
2, 31640, Note_on_c, 0, 64, 0
2, 31640, Note_on_c, 0, 68, 0
2, 31640, Note_on_c, 0, 56, 0
2, 31688, Note_on_c, 0, 70, 80
2, 31721, Note_on_c, 0, 52, 80
2, 31721, Note_on_c, 0, 59, 80
2, 31721, Note_on_c, 0, 64, 80
2, 31721, Note_on_c, 0, 71, 80
2, 31723, Note_on_c, 0, 56, 80
2, 31725, Note_on_c, 0, 70, 0
2, 31746, Note_on_c, 0, 59, 0
2, 31746, Note_on_c, 0, 52, 0
2, 31746, Note_on_c, 0, 56, 0
2, 31767, Note_on_c, 0, 71, 0
2, 31769, Note_on_c, 0, 64, 0
2, 31790, Note_on_c, 0, 68, 80
2, 31823, Note_on_c, 0, 51, 80
2, 31823, Note_on_c, 0, 56, 80
2, 31823, Note_on_c, 0, 60, 80
2, 31823, Note_on_c, 0, 70, 80
2, 31826, Note_on_c, 0, 68, 0
2, 31848, Note_on_c, 0, 60, 0
2, 31848, Note_on_c, 0, 51, 0
2, 31848, Note_on_c, 0, 56, 0
2, 31848, Note_on_c, 0, 70, 0
2, 31890, Note_on_c, 0, 63, 80
2, 31890, Note_on_c, 0, 72, 80
2, 31924, Note_on_c, 0, 51, 80
2, 31924, Note_on_c, 0, 56, 80
2, 31924, Note_on_c, 0, 60, 80
2, 31947, Note_on_c, 0, 60, 0
2, 31947, Note_on_c, 0, 72, 0
2, 31949, Note_on_c, 0, 63, 0
2, 31949, Note_on_c, 0, 51, 0
2, 31949, Note_on_c, 0, 56, 0
2, 31990, Note_on_c, 0, 68, 80
2, 32022, Note_on_c, 0, 51, 80
2, 32022, Note_on_c, 0, 56, 80
2, 32022, Note_on_c, 0, 60, 80
2, 32022, Note_on_c, 0, 63, 80
2, 32022, Note_on_c, 0, 72, 80
2, 32024, Note_on_c, 0, 68, 0
2, 32055, Note_on_c, 0, 56, 0
2, 32055, Note_on_c, 0, 60, 0
2, 32055, Note_on_c, 0, 72, 0
2, 32057, Note_on_c, 0, 51, 0
2, 32057, Note_on_c, 0, 63, 0
2, 32086, Note_on_c, 0, 68, 80
2, 32118, Note_on_c, 0, 51, 80
2, 32118, Note_on_c, 0, 55, 80
2, 32118, Note_on_c, 0, 61, 80
2, 32118, Note_on_c, 0, 63, 80
2, 32118, Note_on_c, 0, 70, 80
2, 32122, Note_on_c, 0, 68, 0
2, 32174, Note_on_c, 0, 55, 0
2, 32174, Note_on_c, 0, 61, 0
2, 32174, Note_on_c, 0, 51, 0
2, 32174, Note_on_c, 0, 70, 0
2, 32174, Note_on_c, 0, 63, 0
2, 32212, Note_on_c, 0, 60, 80
2, 32212, Note_on_c, 0, 68, 80
2, 32214, Note_on_c, 0, 56, 80
2, 32214, Note_on_c, 0, 63, 80
2, 32249, Note_on_c, 0, 60, 0
2, 32251, Note_on_c, 0, 68, 0
2, 32251, Note_on_c, 0, 56, 0
2, 32251, Note_on_c, 0, 63, 0
2, 32315, Note_on_c, 0, 68, 80
2, 32315, Note_on_c, 0, 80, 80
2, 32350, Note_on_c, 0, 80, 0
2, 32350, Note_on_c, 0, 68, 0
2, 32412, Note_on_c, 0, 51, 80
2, 32414, Note_on_c, 0, 87, 80
2, 32416, Note_on_c, 0, 39, 80
2, 32416, Note_on_c, 0, 80, 80
2, 32416, Note_on_c, 0, 92, 80
2, 32425, Control_c, 0, 64, 127
2, 32425, Note_on_c, 0, 84, 80
2, 32448, Note_on_c, 0, 39, 0
2, 32448, Note_on_c, 0, 51, 0
2, 32504, Control_c, 0, 64, 0
2, 32512, Note_on_c, 0, 60, 80
2, 32514, Note_on_c, 0, 56, 80
2, 32514, Note_on_c, 0, 66, 80
2, 32516, Note_on_c, 0, 80, 0
2, 32516, Note_on_c, 0, 92, 0
2, 32516, Note_on_c, 0, 87, 0
2, 32516, Note_on_c, 0, 84, 0
2, 32539, Note_on_c, 0, 66, 0
2, 32539, Note_on_c, 0, 60, 0
2, 32539, Note_on_c, 0, 56, 0
2, 32581, Note_on_c, 0, 92, 80
2, 32583, Note_on_c, 0, 80, 80
2, 32583, Note_on_c, 0, 82, 80
2, 32583, Note_on_c, 0, 85, 80
2, 32583, Note_on_c, 0, 87, 80
2, 32617, Note_on_c, 0, 87, 0
2, 32617, Note_on_c, 0, 92, 0
2, 32617, Note_on_c, 0, 85, 0
2, 32619, Note_on_c, 0, 82, 0
2, 32619, Note_on_c, 0, 80, 0
2, 32629, Note_on_c, 0, 42, 80
2, 32629, Note_on_c, 0, 54, 80
2, 32654, Note_on_c, 0, 54, 0
2, 32654, Note_on_c, 0, 42, 0
2, 32687, Note_on_c, 0, 85, 80
2, 32687, Note_on_c, 0, 87, 80
2, 32719, Note_on_c, 0, 56, 80
2, 32719, Note_on_c, 0, 60, 80
2, 32719, Note_on_c, 0, 82, 80
2, 32721, Note_on_c, 0, 87, 0
2, 32721, Note_on_c, 0, 66, 80
2, 32723, Note_on_c, 0, 85, 0
2, 32744, Note_on_c, 0, 60, 0
2, 32744, Note_on_c, 0, 66, 0
2, 32744, Note_on_c, 0, 56, 0
2, 32758, Note_on_c, 0, 82, 0
2, 32824, Note_on_c, 0, 80, 80
2, 32824, Note_on_c, 0, 84, 80
2, 32824, Note_on_c, 0, 87, 80
2, 32824, Note_on_c, 0, 92, 80
2, 32826, Note_on_c, 0, 41, 80
2, 32826, Note_on_c, 0, 53, 80
2, 32835, Control_c, 0, 64, 127
2, 32858, Note_on_c, 0, 41, 0
2, 32860, Note_on_c, 0, 53, 0
2, 32880, Control_c, 0, 64, 0
2, 32914, Note_on_c, 0, 84, 0
2, 32916, Note_on_c, 0, 80, 0
2, 32920, Note_on_c, 0, 60, 80
2, 32922, Note_on_c, 0, 56, 80
2, 32924, Note_on_c, 0, 66, 80
2, 32926, Note_on_c, 0, 87, 0
2, 32926, Note_on_c, 0, 92, 0
2, 32947, Note_on_c, 0, 56, 0
2, 32947, Note_on_c, 0, 60, 0
2, 32947, Note_on_c, 0, 66, 0
2, 32987, Note_on_c, 0, 80, 80
2, 32987, Note_on_c, 0, 85, 80
2, 32987, Note_on_c, 0, 92, 80
2, 32989, Note_on_c, 0, 82, 80
2, 32989, Note_on_c, 0, 87, 80
2, 33018, Note_on_c, 0, 39, 80
2, 33018, Note_on_c, 0, 51, 80
2, 33022, Note_on_c, 0, 87, 0
2, 33022, Note_on_c, 0, 82, 0
2, 33022, Note_on_c, 0, 80, 0
2, 33022, Note_on_c, 0, 92, 0
2, 33022, Note_on_c, 0, 85, 0
2, 33052, Note_on_c, 0, 51, 0
2, 33052, Note_on_c, 0, 39, 0
2, 33081, Note_on_c, 0, 37, 80
2, 33081, Note_on_c, 0, 49, 80
2, 33081, Note_on_c, 0, 84, 80
2, 33081, Note_on_c, 0, 87, 80
2, 33114, Note_on_c, 0, 37, 0
2, 33114, Note_on_c, 0, 36, 80
2, 33114, Note_on_c, 0, 48, 80
2, 33114, Note_on_c, 0, 82, 80
2, 33116, Note_on_c, 0, 49, 0
2, 33116, Note_on_c, 0, 87, 0
2, 33116, Note_on_c, 0, 84, 0
2, 33148, Note_on_c, 0, 36, 0
2, 33148, Note_on_c, 0, 48, 0
2, 33148, Note_on_c, 0, 82, 0
2, 33179, Note_on_c, 0, 84, 80
2, 33179, Note_on_c, 0, 87, 80
2, 33189, Control_c, 0, 64, 127
2, 33206, Note_on_c, 0, 37, 80
2, 33206, Note_on_c, 0, 49, 80
2, 33206, Note_on_c, 0, 80, 80
2, 33210, Note_on_c, 0, 87, 0
2, 33210, Note_on_c, 0, 84, 0
2, 33240, Note_on_c, 0, 49, 0
2, 33240, Note_on_c, 0, 37, 0
2, 33240, Note_on_c, 0, 80, 0
2, 33262, Control_c, 0, 64, 0
2, 33269, Note_on_c, 0, 85, 80
2, 33304, Note_on_c, 0, 56, 80
2, 33304, Note_on_c, 0, 61, 80
2, 33304, Note_on_c, 0, 65, 80
2, 33304, Note_on_c, 0, 82, 80
2, 33306, Note_on_c, 0, 85, 0
2, 33327, Note_on_c, 0, 65, 0
2, 33327, Note_on_c, 0, 56, 0
2, 33327, Note_on_c, 0, 61, 0
2, 33361, Note_on_c, 0, 82, 0
2, 33369, Note_on_c, 0, 85, 80
2, 33404, Note_on_c, 0, 61, 80
2, 33406, Note_on_c, 0, 49, 80
2, 33406, Note_on_c, 0, 89, 80
2, 33408, Note_on_c, 0, 85, 0
2, 33442, Note_on_c, 0, 61, 0
2, 33442, Note_on_c, 0, 49, 0
2, 33465, Note_on_c, 0, 89, 0
2, 33473, Note_on_c, 0, 80, 80
2, 33509, Note_on_c, 0, 56, 80
2, 33509, Note_on_c, 0, 61, 80
2, 33509, Note_on_c, 0, 65, 80
2, 33509, Note_on_c, 0, 85, 80
2, 33511, Note_on_c, 0, 80, 0
2, 33534, Note_on_c, 0, 65, 0
2, 33534, Note_on_c, 0, 56, 0
2, 33534, Note_on_c, 0, 61, 0
2, 33559, Note_on_c, 0, 85, 0
2, 33578, Note_on_c, 0, 89, 80
2, 33592, Control_c, 0, 64, 127
2, 33613, Note_on_c, 0, 41, 80
2, 33613, Note_on_c, 0, 53, 80
2, 33613, Note_on_c, 0, 82, 80
2, 33615, Note_on_c, 0, 89, 0
2, 33640, Control_c, 0, 64, 0
2, 33651, Note_on_c, 0, 41, 0
2, 33651, Note_on_c, 0, 53, 0
2, 33674, Note_on_c, 0, 82, 0
2, 33680, Note_on_c, 0, 85, 80
2, 33719, Note_on_c, 0, 56, 80
2, 33719, Note_on_c, 0, 61, 80
2, 33719, Note_on_c, 0, 65, 80
2, 33719, Note_on_c, 0, 89, 80
2, 33720, Note_on_c, 0, 85, 0
2, 33744, Note_on_c, 0, 65, 0
2, 33744, Note_on_c, 0, 56, 0
2, 33744, Note_on_c, 0, 61, 0
2, 33744, Note_on_c, 0, 89, 0
2, 33788, Note_on_c, 0, 80, 80
2, 33822, Note_on_c, 0, 37, 80
2, 33822, Note_on_c, 0, 49, 80
2, 33826, Note_on_c, 0, 80, 0
2, 33859, Note_on_c, 0, 37, 0
2, 33861, Note_on_c, 0, 49, 0
2, 33891, Note_on_c, 0, 89, 80
2, 33926, Note_on_c, 0, 38, 80
2, 33926, Note_on_c, 0, 50, 80
2, 33926, Note_on_c, 0, 82, 80
2, 33928, Note_on_c, 0, 89, 0
2, 33980, Note_on_c, 0, 38, 0
2, 33982, Note_on_c, 0, 50, 0
2, 33984, Note_on_c, 0, 82, 0
2, 33991, Note_on_c, 0, 89, 80
2, 34022, Note_on_c, 0, 39, 80
2, 34022, Note_on_c, 0, 51, 80
2, 34022, Note_on_c, 0, 80, 80
2, 34022, Note_on_c, 0, 84, 80
2, 34022, Note_on_c, 0, 87, 80
2, 34022, Note_on_c, 0, 92, 80
2, 34026, Note_on_c, 0, 89, 0
2, 34058, Note_on_c, 0, 39, 0
2, 34058, Note_on_c, 0, 51, 0
2, 34087, Note_on_c, 0, 42, 80
2, 34087, Note_on_c, 0, 54, 80
2, 34091, Note_on_c, 0, 84, 0
2, 34091, Note_on_c, 0, 92, 0
2, 34091, Note_on_c, 0, 80, 0
2, 34091, Note_on_c, 0, 87, 0
2, 34114, Note_on_c, 0, 54, 0
2, 34114, Note_on_c, 0, 42, 0
2, 34120, Note_on_c, 0, 56, 80
2, 34120, Note_on_c, 0, 66, 80
2, 34122, Note_on_c, 0, 60, 80
2, 34147, Note_on_c, 0, 60, 0
2, 34147, Note_on_c, 0, 66, 0
2, 34147, Note_on_c, 0, 56, 0
2, 34187, Note_on_c, 0, 84, 80
2, 34187, Note_on_c, 0, 87, 80
2, 34189, Note_on_c, 0, 82, 80
2, 34189, Note_on_c, 0, 92, 80
2, 34222, Note_on_c, 0, 42, 80
2, 34222, Note_on_c, 0, 54, 80
2, 34224, Note_on_c, 0, 92, 0
2, 34224, Note_on_c, 0, 82, 0
2, 34224, Note_on_c, 0, 84, 0
2, 34224, Note_on_c, 0, 87, 0
2, 34258, Note_on_c, 0, 54, 0
2, 34258, Note_on_c, 0, 42, 0
2, 34287, Note_on_c, 0, 84, 80
2, 34289, Note_on_c, 0, 87, 80
2, 34320, Note_on_c, 0, 56, 80
2, 34320, Note_on_c, 0, 66, 80
2, 34320, Note_on_c, 0, 82, 80
2, 34321, Note_on_c, 0, 60, 80
2, 34323, Note_on_c, 0, 87, 0
2, 34323, Note_on_c, 0, 84, 0
2, 34344, Note_on_c, 0, 82, 0
2, 34344, Note_on_c, 0, 66, 0
2, 34344, Note_on_c, 0, 60, 0
2, 34344, Note_on_c, 0, 56, 0
2, 34389, Note_on_c, 0, 80, 80
2, 34389, Note_on_c, 0, 84, 80
2, 34389, Note_on_c, 0, 87, 80
2, 34389, Note_on_c, 0, 92, 80
2, 34398, Control_c, 0, 64, 127
2, 34419, Note_on_c, 0, 41, 80
2, 34419, Note_on_c, 0, 53, 80
2, 34456, Note_on_c, 0, 53, 0
2, 34456, Note_on_c, 0, 41, 0
2, 34465, Note_on_c, 0, 84, 0
2, 34467, Note_on_c, 0, 80, 0
2, 34467, Note_on_c, 0, 87, 0
2, 34467, Note_on_c, 0, 92, 0
2, 34477, Control_c, 0, 64, 0
2, 34519, Note_on_c, 0, 56, 80
2, 34519, Note_on_c, 0, 60, 80
2, 34519, Note_on_c, 0, 66, 80
2, 34544, Note_on_c, 0, 66, 0
2, 34544, Note_on_c, 0, 60, 0
2, 34552, Note_on_c, 0, 82, 80
2, 34552, Note_on_c, 0, 84, 80
2, 34552, Note_on_c, 0, 87, 80
2, 34552, Note_on_c, 0, 92, 80
2, 34554, Note_on_c, 0, 56, 0
2, 34618, Note_on_c, 0, 39, 80
2, 34618, Note_on_c, 0, 51, 80
2, 34620, Note_on_c, 0, 87, 0
2, 34620, Note_on_c, 0, 92, 0
2, 34620, Note_on_c, 0, 82, 0
2, 34620, Note_on_c, 0, 84, 0
2, 34666, Note_on_c, 0, 51, 0
2, 34666, Note_on_c, 0, 39, 0
2, 34683, Note_on_c, 0, 37, 80
2, 34685, Note_on_c, 0, 49, 80
2, 34685, Note_on_c, 0, 84, 80
2, 34685, Note_on_c, 0, 87, 80
2, 34718, Note_on_c, 0, 36, 80
2, 34720, Note_on_c, 0, 37, 0
2, 34720, Note_on_c, 0, 48, 80
2, 34720, Note_on_c, 0, 82, 80
2, 34722, Note_on_c, 0, 87, 0
2, 34722, Note_on_c, 0, 49, 0
2, 34722, Note_on_c, 0, 84, 0
2, 34776, Note_on_c, 0, 36, 0
2, 34776, Note_on_c, 0, 48, 0
2, 34777, Note_on_c, 0, 82, 0
2, 34785, Note_on_c, 0, 84, 80
2, 34785, Note_on_c, 0, 87, 80
2, 34816, Note_on_c, 0, 37, 80
2, 34818, Note_on_c, 0, 49, 80
2, 34820, Note_on_c, 0, 80, 80
2, 34822, Note_on_c, 0, 84, 0
2, 34824, Note_on_c, 0, 87, 0
2, 34852, Note_on_c, 0, 49, 0
2, 34852, Note_on_c, 0, 37, 0
2, 34852, Note_on_c, 0, 80, 0
2, 34883, Note_on_c, 0, 41, 80
2, 34883, Note_on_c, 0, 53, 80
2, 34885, Note_on_c, 0, 85, 80
2, 34918, Note_on_c, 0, 56, 80
2, 34918, Note_on_c, 0, 61, 80
2, 34918, Note_on_c, 0, 65, 80
2, 34918, Note_on_c, 0, 82, 80
2, 34920, Note_on_c, 0, 85, 0
2, 34920, Note_on_c, 0, 41, 0
2, 34920, Note_on_c, 0, 53, 0
2, 34941, Note_on_c, 0, 61, 0
2, 34941, Note_on_c, 0, 56, 0
2, 34941, Note_on_c, 0, 65, 0
2, 34977, Note_on_c, 0, 82, 0
2, 34983, Note_on_c, 0, 85, 80
2, 35017, Note_on_c, 0, 44, 80
2, 35017, Note_on_c, 0, 56, 80
2, 35017, Note_on_c, 0, 89, 80
2, 35019, Note_on_c, 0, 85, 0
2, 35042, Note_on_c, 0, 44, 0
2, 35042, Note_on_c, 0, 56, 0
2, 35065, Note_on_c, 0, 89, 0
2, 35085, Note_on_c, 0, 80, 80
2, 35119, Note_on_c, 0, 56, 80
2, 35119, Note_on_c, 0, 85, 80
2, 35121, Note_on_c, 0, 61, 80
2, 35121, Note_on_c, 0, 65, 80
2, 35123, Note_on_c, 0, 80, 0
2, 35144, Note_on_c, 0, 61, 0
2, 35144, Note_on_c, 0, 56, 0
2, 35144, Note_on_c, 0, 65, 0
2, 35177, Note_on_c, 0, 85, 0
2, 35186, Note_on_c, 0, 89, 80
2, 35219, Note_on_c, 0, 41, 80
2, 35219, Note_on_c, 0, 53, 80
2, 35219, Note_on_c, 0, 80, 80
2, 35221, Note_on_c, 0, 89, 0
2, 35231, Control_c, 0, 64, 127
2, 35265, Note_on_c, 0, 80, 0
2, 35284, Note_on_c, 0, 85, 80
2, 35309, Control_c, 0, 64, 0
2, 35319, Note_on_c, 0, 89, 80
2, 35321, Note_on_c, 0, 41, 0
2, 35321, Note_on_c, 0, 56, 80
2, 35321, Note_on_c, 0, 61, 80
2, 35321, Note_on_c, 0, 65, 80
2, 35323, Note_on_c, 0, 53, 0
2, 35323, Note_on_c, 0, 85, 0
2, 35344, Note_on_c, 0, 56, 0
2, 35344, Note_on_c, 0, 89, 0
2, 35344, Note_on_c, 0, 65, 0
2, 35344, Note_on_c, 0, 61, 0
2, 35388, Note_on_c, 0, 80, 80
2, 35421, Note_on_c, 0, 37, 80
2, 35421, Note_on_c, 0, 49, 80
2, 35423, Note_on_c, 0, 80, 0
2, 35457, Note_on_c, 0, 49, 0
2, 35457, Note_on_c, 0, 37, 0
2, 35496, Note_on_c, 0, 89, 80
2, 35519, Note_on_c, 0, 36, 80
2, 35519, Note_on_c, 0, 48, 80
2, 35519, Note_on_c, 0, 81, 80
2, 35520, Note_on_c, 0, 89, 0
2, 35553, Note_on_c, 0, 36, 0
2, 35553, Note_on_c, 0, 48, 0
2, 35574, Note_on_c, 0, 81, 0
2, 35584, Note_on_c, 0, 87, 80
2, 35616, Note_on_c, 0, 46, 80
2, 35618, Note_on_c, 0, 82, 80
2, 35618, Note_on_c, 0, 86, 80
2, 35620, Note_on_c, 0, 87, 0
2, 35628, Note_on_c, 0, 89, 80
2, 35628, Note_on_c, 0, 94, 80
2, 35651, Note_on_c, 0, 46, 0
2, 35707, Note_on_c, 0, 89, 0
2, 35707, Note_on_c, 0, 86, 0
2, 35707, Note_on_c, 0, 82, 0
2, 35707, Note_on_c, 0, 94, 0
2, 35714, Note_on_c, 0, 58, 80
2, 35714, Note_on_c, 0, 62, 80
2, 35714, Note_on_c, 0, 68, 80
2, 35737, Note_on_c, 0, 62, 0
2, 35737, Note_on_c, 0, 58, 0
2, 35739, Note_on_c, 0, 68, 0
2, 35782, Note_on_c, 0, 84, 80
2, 35784, Note_on_c, 0, 86, 80
2, 35784, Note_on_c, 0, 89, 80
2, 35784, Note_on_c, 0, 94, 80
2, 35812, Note_on_c, 0, 38, 80
2, 35812, Note_on_c, 0, 50, 80
2, 35816, Note_on_c, 0, 94, 0
2, 35816, Note_on_c, 0, 89, 0
2, 35816, Note_on_c, 0, 84, 0
2, 35816, Note_on_c, 0, 86, 0
2, 35849, Note_on_c, 0, 50, 0
2, 35849, Note_on_c, 0, 38, 0
2, 35881, Note_on_c, 0, 86, 80
2, 35881, Note_on_c, 0, 89, 80
2, 35914, Note_on_c, 0, 58, 80
2, 35914, Note_on_c, 0, 62, 80
2, 35914, Note_on_c, 0, 68, 80
2, 35914, Note_on_c, 0, 84, 80
2, 35918, Note_on_c, 0, 89, 0
2, 35918, Note_on_c, 0, 86, 0
2, 35939, Note_on_c, 0, 68, 0
2, 35939, Note_on_c, 0, 62, 0
2, 35939, Note_on_c, 0, 58, 0
2, 35952, Note_on_c, 0, 84, 0
2, 35991, Control_c, 0, 64, 127
2, 36014, Note_on_c, 0, 41, 80
2, 36018, Note_on_c, 0, 53, 80
2, 36018, Note_on_c, 0, 82, 80
2, 36018, Note_on_c, 0, 86, 80
2, 36018, Note_on_c, 0, 89, 80
2, 36018, Note_on_c, 0, 94, 80
2, 36048, Note_on_c, 0, 41, 0
2, 36050, Note_on_c, 0, 53, 0
2, 36072, Control_c, 0, 64, 0
2, 36085, Note_on_c, 0, 89, 0
2, 36085, Note_on_c, 0, 86, 0
2, 36085, Note_on_c, 0, 82, 0
2, 36087, Note_on_c, 0, 94, 0
2, 36118, Note_on_c, 0, 58, 80
2, 36118, Note_on_c, 0, 62, 80
2, 36118, Note_on_c, 0, 68, 80
2, 36143, Note_on_c, 0, 68, 0
2, 36143, Note_on_c, 0, 62, 0
2, 36143, Note_on_c, 0, 58, 0
2, 36187, Note_on_c, 0, 89, 80
2, 36189, Note_on_c, 0, 84, 80
2, 36189, Note_on_c, 0, 86, 80
2, 36189, Note_on_c, 0, 94, 80
2, 36221, Note_on_c, 0, 46, 80
2, 36221, Note_on_c, 0, 58, 80
2, 36223, Note_on_c, 0, 86, 0
2, 36225, Note_on_c, 0, 94, 0
2, 36225, Note_on_c, 0, 89, 0
2, 36225, Note_on_c, 0, 84, 0
2, 36258, Note_on_c, 0, 46, 0
2, 36262, Note_on_c, 0, 58, 0
2, 36290, Note_on_c, 0, 86, 80
2, 36290, Note_on_c, 0, 89, 80
2, 36325, Note_on_c, 0, 58, 80
2, 36325, Note_on_c, 0, 62, 80
2, 36325, Note_on_c, 0, 68, 80
2, 36325, Note_on_c, 0, 84, 80
2, 36327, Note_on_c, 0, 89, 0
2, 36327, Note_on_c, 0, 86, 0
2, 36350, Note_on_c, 0, 68, 0
2, 36350, Note_on_c, 0, 62, 0
2, 36350, Note_on_c, 0, 58, 0
2, 36373, Note_on_c, 0, 84, 0
2, 36394, Note_on_c, 0, 86, 80
2, 36394, Note_on_c, 0, 89, 80
2, 36404, Control_c, 0, 64, 127
2, 36425, Note_on_c, 0, 39, 80
2, 36425, Note_on_c, 0, 51, 80
2, 36429, Note_on_c, 0, 89, 0
2, 36429, Note_on_c, 0, 86, 0
2, 36461, Note_on_c, 0, 39, 0
2, 36461, Note_on_c, 0, 51, 0
2, 36482, Control_c, 0, 64, 0
2, 36492, Note_on_c, 0, 75, 80
2, 36492, Note_on_c, 0, 87, 80
2, 36527, Note_on_c, 0, 58, 80
2, 36527, Note_on_c, 0, 63, 80
2, 36527, Note_on_c, 0, 66, 80
2, 36527, Note_on_c, 0, 70, 80
2, 36527, Note_on_c, 0, 82, 80
2, 36528, Note_on_c, 0, 87, 0
2, 36528, Note_on_c, 0, 75, 0
2, 36550, Note_on_c, 0, 58, 0
2, 36550, Note_on_c, 0, 66, 0
2, 36550, Note_on_c, 0, 63, 0
2, 36550, Note_on_c, 0, 70, 0
2, 36584, Note_on_c, 0, 82, 0
2, 36592, Note_on_c, 0, 75, 80
2, 36624, Note_on_c, 0, 42, 80
2, 36626, Note_on_c, 0, 54, 80
2, 36626, Note_on_c, 0, 78, 80
2, 36630, Note_on_c, 0, 75, 0
2, 36649, Note_on_c, 0, 78, 0
2, 36659, Note_on_c, 0, 42, 0
2, 36661, Note_on_c, 0, 54, 0
2, 36694, Note_on_c, 0, 72, 80
2, 36694, Note_on_c, 0, 84, 80
2, 36726, Note_on_c, 0, 58, 80
2, 36726, Note_on_c, 0, 63, 80
2, 36728, Note_on_c, 0, 66, 80
2, 36730, Note_on_c, 0, 84, 0
2, 36730, Note_on_c, 0, 72, 0
2, 36751, Note_on_c, 0, 63, 0
2, 36751, Note_on_c, 0, 58, 0
2, 36751, Note_on_c, 0, 66, 0
2, 36793, Note_on_c, 0, 75, 80
2, 36826, Note_on_c, 0, 39, 80
2, 36826, Note_on_c, 0, 51, 80
2, 36826, Note_on_c, 0, 70, 80
2, 36828, Note_on_c, 0, 82, 80
2, 36830, Note_on_c, 0, 75, 0
2, 36859, Note_on_c, 0, 39, 0
2, 36861, Note_on_c, 0, 51, 0
2, 36874, Note_on_c, 0, 70, 0
2, 36886, Note_on_c, 0, 82, 0
2, 36893, Note_on_c, 0, 75, 80
2, 36926, Note_on_c, 0, 58, 80
2, 36926, Note_on_c, 0, 63, 80
2, 36928, Note_on_c, 0, 66, 80
2, 36928, Note_on_c, 0, 78, 80
2, 36930, Note_on_c, 0, 75, 0
2, 36951, Note_on_c, 0, 66, 0
2, 36951, Note_on_c, 0, 58, 0
2, 36951, Note_on_c, 0, 63, 0
2, 36953, Note_on_c, 0, 78, 0
2, 36995, Note_on_c, 0, 72, 80
2, 36995, Note_on_c, 0, 84, 80
2, 37026, Note_on_c, 0, 42, 80
2, 37026, Note_on_c, 0, 54, 80
2, 37032, Note_on_c, 0, 84, 0
2, 37032, Note_on_c, 0, 72, 0
2, 37062, Note_on_c, 0, 42, 0
2, 37062, Note_on_c, 0, 54, 0
2, 37095, Note_on_c, 0, 75, 80
2, 37128, Note_on_c, 0, 58, 80
2, 37129, Note_on_c, 0, 63, 80
2, 37129, Note_on_c, 0, 66, 80
2, 37129, Note_on_c, 0, 70, 80
2, 37129, Note_on_c, 0, 82, 80
2, 37133, Note_on_c, 0, 75, 0
2, 37154, Note_on_c, 0, 66, 0
2, 37154, Note_on_c, 0, 58, 0
2, 37154, Note_on_c, 0, 63, 0
2, 37166, Note_on_c, 0, 82, 0
2, 37166, Note_on_c, 0, 70, 0
2, 37228, Note_on_c, 0, 43, 80
2, 37230, Note_on_c, 0, 55, 80
2, 37230, Note_on_c, 0, 73, 80
2, 37230, Note_on_c, 0, 76, 80
2, 37232, Note_on_c, 0, 85, 80
2, 37253, Note_on_c, 0, 73, 0
2, 37255, Note_on_c, 0, 76, 0
2, 37255, Note_on_c, 0, 85, 0
2, 37265, Note_on_c, 0, 55, 0
2, 37265, Note_on_c, 0, 43, 0
2, 37296, Note_on_c, 0, 46, 80
2, 37296, Note_on_c, 0, 58, 80
2, 37305, Control_c, 0, 64, 127
2, 37332, Note_on_c, 0, 73, 80
2, 37332, Note_on_c, 0, 76, 80
2, 37332, Note_on_c, 0, 85, 80
2, 37349, Control_c, 0, 64, 0
2, 37363, Note_on_c, 0, 46, 0
2, 37365, Note_on_c, 0, 76, 0
2, 37365, Note_on_c, 0, 58, 0
2, 37365, Note_on_c, 0, 73, 0
2, 37367, Note_on_c, 0, 85, 0
2, 37397, Note_on_c, 0, 49, 80
2, 37397, Note_on_c, 0, 61, 80
2, 37420, Note_on_c, 0, 61, 0
2, 37420, Note_on_c, 0, 49, 0
2, 37428, Note_on_c, 0, 52, 80
2, 37430, Note_on_c, 0, 64, 80
2, 37430, Note_on_c, 0, 72, 80
2, 37430, Note_on_c, 0, 76, 80
2, 37432, Note_on_c, 0, 84, 80
2, 37466, Note_on_c, 0, 84, 0
2, 37466, Note_on_c, 0, 72, 0
2, 37466, Note_on_c, 0, 76, 0
2, 37476, Note_on_c, 0, 64, 0
2, 37486, Note_on_c, 0, 52, 0
2, 37495, Note_on_c, 0, 49, 80
2, 37497, Note_on_c, 0, 61, 80
2, 37530, Note_on_c, 0, 46, 80
2, 37530, Note_on_c, 0, 58, 80
2, 37530, Note_on_c, 0, 70, 80
2, 37532, Note_on_c, 0, 61, 0
2, 37532, Note_on_c, 0, 49, 0
2, 37532, Note_on_c, 0, 76, 80
2, 37532, Note_on_c, 0, 82, 80
2, 37587, Note_on_c, 0, 76, 0
2, 37587, Note_on_c, 0, 58, 0
2, 37587, Note_on_c, 0, 70, 0
2, 37587, Note_on_c, 0, 46, 0
2, 37589, Note_on_c, 0, 82, 0
2, 37595, Note_on_c, 0, 43, 80
2, 37595, Note_on_c, 0, 55, 80
2, 37630, Note_on_c, 0, 44, 80
2, 37630, Note_on_c, 0, 56, 80
2, 37630, Note_on_c, 0, 68, 80
2, 37630, Note_on_c, 0, 77, 80
2, 37632, Note_on_c, 0, 55, 0
2, 37632, Note_on_c, 0, 43, 0
2, 37664, Note_on_c, 0, 44, 0
2, 37666, Note_on_c, 0, 56, 0
2, 37689, Note_on_c, 0, 68, 0
2, 37689, Note_on_c, 0, 77, 0
2, 37699, Note_on_c, 0, 73, 80
2, 37729, Note_on_c, 0, 75, 80
2, 37731, Note_on_c, 0, 56, 80
2, 37731, Note_on_c, 0, 61, 80
2, 37733, Note_on_c, 0, 65, 80
2, 37735, Note_on_c, 0, 73, 0
2, 37754, Note_on_c, 0, 61, 0
2, 37754, Note_on_c, 0, 65, 0
2, 37754, Note_on_c, 0, 56, 0
2, 37756, Note_on_c, 0, 75, 0
2, 37797, Note_on_c, 0, 41, 80
2, 37797, Note_on_c, 0, 70, 80
2, 37799, Note_on_c, 0, 78, 80
2, 37808, Note_on_c, 0, 43, 80
2, 37820, Note_on_c, 0, 45, 80
2, 37824, Note_on_c, 0, 41, 0
2, 37831, Note_on_c, 0, 34, 80
2, 37831, Note_on_c, 0, 46, 80
2, 37833, Note_on_c, 0, 43, 0
2, 37835, Note_on_c, 0, 70, 0
2, 37835, Note_on_c, 0, 78, 0
2, 37845, Note_on_c, 0, 45, 0
2, 37866, Note_on_c, 0, 34, 0
2, 37868, Note_on_c, 0, 46, 0
2, 37898, Note_on_c, 0, 70, 80
2, 37931, Note_on_c, 0, 56, 80
2, 37931, Note_on_c, 0, 58, 80
2, 37931, Note_on_c, 0, 62, 80
2, 37931, Note_on_c, 0, 68, 80
2, 37931, Note_on_c, 0, 77, 80
2, 37933, Note_on_c, 0, 70, 0
2, 37956, Note_on_c, 0, 62, 0
2, 37956, Note_on_c, 0, 56, 0
2, 37956, Note_on_c, 0, 58, 0
2, 37968, Note_on_c, 0, 77, 0
2, 37968, Note_on_c, 0, 68, 0
2, 38028, Note_on_c, 0, 51, 80
2, 38028, Note_on_c, 0, 58, 80
2, 38028, Note_on_c, 0, 61, 80
2, 38028, Note_on_c, 0, 67, 80
2, 38030, Note_on_c, 0, 77, 80
2, 38051, Note_on_c, 0, 61, 0
2, 38051, Note_on_c, 0, 51, 0
2, 38053, Note_on_c, 0, 58, 0
2, 38074, Note_on_c, 0, 67, 0
2, 38086, Note_on_c, 0, 77, 0
2, 38093, Note_on_c, 0, 73, 80
2, 38126, Note_on_c, 0, 51, 80
2, 38126, Note_on_c, 0, 58, 80
2, 38126, Note_on_c, 0, 61, 80
2, 38128, Note_on_c, 0, 75, 80
2, 38130, Note_on_c, 0, 73, 0
2, 38149, Note_on_c, 0, 75, 0
2, 38159, Note_on_c, 0, 51, 0
2, 38159, Note_on_c, 0, 58, 0
2, 38159, Note_on_c, 0, 61, 0
2, 38193, Note_on_c, 0, 66, 80
2, 38193, Note_on_c, 0, 77, 80
2, 38224, Note_on_c, 0, 56, 80
2, 38224, Note_on_c, 0, 60, 80
2, 38226, Note_on_c, 0, 77, 0
2, 38226, Note_on_c, 0, 66, 0
2, 38245, Note_on_c, 0, 56, 0
2, 38245, Note_on_c, 0, 60, 0
2, 38289, Note_on_c, 0, 72, 80
2, 38322, Note_on_c, 0, 56, 80
2, 38322, Note_on_c, 0, 60, 80
2, 38322, Note_on_c, 0, 66, 80
2, 38324, Note_on_c, 0, 72, 0
2, 38324, Note_on_c, 0, 75, 80
2, 38356, Note_on_c, 0, 56, 0
2, 38358, Note_on_c, 0, 66, 0
2, 38358, Note_on_c, 0, 60, 0
2, 38358, Note_on_c, 0, 75, 0
2, 38389, Note_on_c, 0, 65, 80
2, 38389, Note_on_c, 0, 73, 80
2, 38424, Note_on_c, 0, 49, 80
2, 38424, Note_on_c, 0, 61, 80
2, 38425, Note_on_c, 0, 65, 0
2, 38427, Note_on_c, 0, 73, 0
2, 38460, Note_on_c, 0, 49, 0
2, 38460, Note_on_c, 0, 61, 0
2, 38491, Note_on_c, 0, 68, 80
2, 38493, Note_on_c, 0, 80, 80
2, 38525, Note_on_c, 0, 61, 80
2, 38527, Note_on_c, 0, 56, 80
2, 38527, Note_on_c, 0, 65, 80
2, 38529, Note_on_c, 0, 80, 0
2, 38529, Note_on_c, 0, 68, 0
2, 38550, Note_on_c, 0, 56, 0
2, 38550, Note_on_c, 0, 61, 0
2, 38550, Note_on_c, 0, 65, 0
2, 38596, Note_on_c, 0, 77, 80
2, 38629, Note_on_c, 0, 56, 80
2, 38629, Note_on_c, 0, 61, 80
2, 38629, Note_on_c, 0, 65, 80
2, 38629, Note_on_c, 0, 68, 80
2, 38631, Note_on_c, 0, 80, 80
2, 38635, Note_on_c, 0, 77, 0
2, 38656, Note_on_c, 0, 65, 0
2, 38656, Note_on_c, 0, 56, 0
2, 38656, Note_on_c, 0, 61, 0
2, 38692, Note_on_c, 0, 80, 0
2, 38692, Note_on_c, 0, 68, 0
2, 38702, Note_on_c, 0, 77, 80
2, 38733, Note_on_c, 0, 38, 80
2, 38735, Note_on_c, 0, 50, 80
2, 38735, Note_on_c, 0, 68, 80
2, 38736, Note_on_c, 0, 80, 80
2, 38738, Note_on_c, 0, 77, 0
2, 38790, Note_on_c, 0, 38, 0
2, 38792, Note_on_c, 0, 68, 0
2, 38792, Note_on_c, 0, 50, 0
2, 38792, Note_on_c, 0, 80, 0
2, 38802, Note_on_c, 0, 77, 80
2, 38827, Note_on_c, 0, 77, 0
2, 38832, Note_on_c, 0, 39, 80
2, 38834, Note_on_c, 0, 51, 80
2, 38836, Note_on_c, 0, 80, 80
2, 38836, Note_on_c, 0, 84, 80
2, 38836, Note_on_c, 0, 87, 80
2, 38848, Note_on_c, 0, 92, 80
2, 38867, Note_on_c, 0, 39, 0
2, 38869, Note_on_c, 0, 51, 0
2, 38933, Note_on_c, 0, 56, 80
2, 38935, Note_on_c, 0, 60, 80
2, 38935, Note_on_c, 0, 66, 80
2, 38939, Note_on_c, 0, 87, 0
2, 38939, Note_on_c, 0, 80, 0
2, 38939, Note_on_c, 0, 84, 0
2, 38939, Note_on_c, 0, 92, 0
2, 38956, Note_on_c, 0, 66, 0
2, 38956, Note_on_c, 0, 56, 0
2, 38956, Note_on_c, 0, 60, 0
2, 39000, Note_on_c, 0, 80, 80
2, 39000, Note_on_c, 0, 82, 80
2, 39000, Note_on_c, 0, 85, 80
2, 39000, Note_on_c, 0, 92, 80
2, 39002, Note_on_c, 0, 87, 80
2, 39029, Note_on_c, 0, 42, 80
2, 39033, Note_on_c, 0, 54, 80
2, 39035, Note_on_c, 0, 80, 0
2, 39037, Note_on_c, 0, 87, 0
2, 39037, Note_on_c, 0, 82, 0
2, 39037, Note_on_c, 0, 92, 0
2, 39037, Note_on_c, 0, 85, 0
2, 39066, Note_on_c, 0, 42, 0
2, 39068, Note_on_c, 0, 54, 0
2, 39100, Note_on_c, 0, 85, 80
2, 39100, Note_on_c, 0, 87, 80
2, 39127, Note_on_c, 0, 56, 80
2, 39127, Note_on_c, 0, 60, 80
2, 39127, Note_on_c, 0, 66, 80
2, 39131, Note_on_c, 0, 82, 80
2, 39133, Note_on_c, 0, 87, 0
2, 39133, Note_on_c, 0, 85, 0
2, 39154, Note_on_c, 0, 66, 0
2, 39154, Note_on_c, 0, 60, 0
2, 39154, Note_on_c, 0, 56, 0
2, 39168, Note_on_c, 0, 82, 0
2, 39228, Note_on_c, 0, 41, 80
2, 39228, Note_on_c, 0, 53, 80
2, 39232, Note_on_c, 0, 80, 80
2, 39232, Note_on_c, 0, 84, 80
2, 39232, Note_on_c, 0, 87, 80
2, 39232, Note_on_c, 0, 92, 80
2, 39236, Control_c, 0, 64, 127
2, 39263, Note_on_c, 0, 53, 0
2, 39263, Note_on_c, 0, 41, 0
2, 39282, Control_c, 0, 64, 0
2, 39324, Note_on_c, 0, 80, 0
2, 39326, Note_on_c, 0, 84, 0
2, 39330, Note_on_c, 0, 56, 80
2, 39330, Note_on_c, 0, 60, 80
2, 39330, Note_on_c, 0, 66, 80
2, 39336, Note_on_c, 0, 87, 0
2, 39336, Note_on_c, 0, 92, 0
2, 39355, Note_on_c, 0, 56, 0
2, 39357, Note_on_c, 0, 60, 0
2, 39357, Note_on_c, 0, 66, 0
2, 39401, Note_on_c, 0, 80, 80
2, 39401, Note_on_c, 0, 82, 80
2, 39401, Note_on_c, 0, 85, 80
2, 39401, Note_on_c, 0, 87, 80
2, 39401, Note_on_c, 0, 92, 80
2, 39432, Note_on_c, 0, 39, 80
2, 39432, Note_on_c, 0, 51, 80
2, 39437, Note_on_c, 0, 92, 0
2, 39437, Note_on_c, 0, 87, 0
2, 39437, Note_on_c, 0, 80, 0
2, 39437, Note_on_c, 0, 85, 0
2, 39437, Note_on_c, 0, 82, 0
2, 39466, Note_on_c, 0, 51, 0
2, 39466, Note_on_c, 0, 39, 0
2, 39499, Note_on_c, 0, 37, 80
2, 39499, Note_on_c, 0, 49, 80
2, 39503, Note_on_c, 0, 84, 80
2, 39503, Note_on_c, 0, 87, 80
2, 39535, Note_on_c, 0, 36, 80
2, 39535, Note_on_c, 0, 48, 80
2, 39537, Note_on_c, 0, 49, 0
2, 39537, Note_on_c, 0, 37, 0
2, 39539, Note_on_c, 0, 82, 80
2, 39541, Note_on_c, 0, 87, 0
2, 39541, Note_on_c, 0, 84, 0
2, 39570, Note_on_c, 0, 36, 0
2, 39572, Note_on_c, 0, 48, 0
2, 39574, Note_on_c, 0, 82, 0
2, 39608, Note_on_c, 0, 84, 80
2, 39608, Note_on_c, 0, 87, 80
2, 39614, Control_c, 0, 64, 127
2, 39639, Note_on_c, 0, 37, 80
2, 39641, Note_on_c, 0, 49, 80
2, 39641, Note_on_c, 0, 80, 80
2, 39645, Note_on_c, 0, 87, 0
2, 39645, Note_on_c, 0, 84, 0
2, 39675, Note_on_c, 0, 49, 0
2, 39675, Note_on_c, 0, 37, 0
2, 39677, Note_on_c, 0, 80, 0
2, 39693, Control_c, 0, 64, 0
2, 39708, Note_on_c, 0, 85, 80
2, 39741, Note_on_c, 0, 56, 80
2, 39743, Note_on_c, 0, 61, 80
2, 39743, Note_on_c, 0, 65, 80
2, 39743, Note_on_c, 0, 82, 80
2, 39746, Note_on_c, 0, 85, 0
2, 39766, Note_on_c, 0, 65, 0
2, 39766, Note_on_c, 0, 56, 0
2, 39766, Note_on_c, 0, 61, 0
2, 39800, Note_on_c, 0, 82, 0
2, 39810, Note_on_c, 0, 85, 80
2, 39839, Note_on_c, 0, 49, 80
2, 39840, Note_on_c, 0, 61, 80
2, 39842, Note_on_c, 0, 85, 0
2, 39842, Note_on_c, 0, 89, 80
2, 39873, Note_on_c, 0, 61, 0
2, 39873, Note_on_c, 0, 49, 0
2, 39900, Note_on_c, 0, 89, 0
2, 39908, Note_on_c, 0, 80, 80
2, 39938, Note_on_c, 0, 56, 80
2, 39938, Note_on_c, 0, 61, 80
2, 39938, Note_on_c, 0, 65, 80
2, 39938, Note_on_c, 0, 85, 80
2, 39944, Note_on_c, 0, 80, 0
2, 39960, Note_on_c, 0, 56, 0
2, 39961, Note_on_c, 0, 65, 0
2, 39961, Note_on_c, 0, 61, 0
2, 39984, Note_on_c, 0, 85, 0
2, 40006, Note_on_c, 0, 89, 80
2, 40032, Note_on_c, 0, 41, 80
2, 40034, Note_on_c, 0, 53, 80
2, 40036, Note_on_c, 0, 82, 80
2, 40040, Note_on_c, 0, 89, 0
2, 40069, Note_on_c, 0, 41, 0
2, 40069, Note_on_c, 0, 53, 0
2, 40094, Note_on_c, 0, 82, 0
2, 40104, Note_on_c, 0, 85, 80
2, 40132, Note_on_c, 0, 56, 80
2, 40132, Note_on_c, 0, 61, 80
2, 40132, Note_on_c, 0, 65, 80
2, 40134, Note_on_c, 0, 89, 80
2, 40138, Note_on_c, 0, 85, 0
2, 40155, Note_on_c, 0, 56, 0
2, 40155, Note_on_c, 0, 61, 0
2, 40157, Note_on_c, 0, 65, 0
2, 40159, Note_on_c, 0, 89, 0
2, 40201, Note_on_c, 0, 80, 80
2, 40230, Note_on_c, 0, 37, 80
2, 40230, Note_on_c, 0, 49, 80
2, 40236, Note_on_c, 0, 80, 0
2, 40267, Note_on_c, 0, 49, 0
2, 40267, Note_on_c, 0, 37, 0
2, 40301, Note_on_c, 0, 89, 80
2, 40332, Note_on_c, 0, 38, 80
2, 40334, Note_on_c, 0, 50, 80
2, 40336, Note_on_c, 0, 82, 80
2, 40340, Note_on_c, 0, 89, 0
2, 40388, Note_on_c, 0, 38, 0
2, 40388, Note_on_c, 0, 50, 0
2, 40392, Note_on_c, 0, 82, 0
2, 40399, Note_on_c, 0, 89, 80
2, 40430, Note_on_c, 0, 39, 80
2, 40430, Note_on_c, 0, 51, 80
2, 40434, Note_on_c, 0, 80, 80
2, 40434, Note_on_c, 0, 84, 80
2, 40434, Note_on_c, 0, 87, 80
2, 40434, Note_on_c, 0, 92, 80
2, 40436, Note_on_c, 0, 89, 0
2, 40440, Control_c, 0, 64, 127
2, 40464, Note_on_c, 0, 39, 0
2, 40464, Note_on_c, 0, 51, 0
2, 40482, Control_c, 0, 64, 0
2, 40491, Note_on_c, 0, 42, 80
2, 40493, Note_on_c, 0, 54, 80
2, 40499, Note_on_c, 0, 84, 0
2, 40499, Note_on_c, 0, 92, 0
2, 40499, Note_on_c, 0, 87, 0
2, 40501, Note_on_c, 0, 80, 0
2, 40516, Note_on_c, 0, 42, 0
2, 40518, Note_on_c, 0, 54, 0
2, 40526, Note_on_c, 0, 56, 80
2, 40528, Note_on_c, 0, 60, 80
2, 40528, Note_on_c, 0, 66, 80
2, 40551, Note_on_c, 0, 60, 0
2, 40551, Note_on_c, 0, 56, 0
2, 40553, Note_on_c, 0, 66, 0
2, 40595, Note_on_c, 0, 82, 80
2, 40595, Note_on_c, 0, 84, 80
2, 40595, Note_on_c, 0, 87, 80
2, 40597, Note_on_c, 0, 92, 80
2, 40624, Note_on_c, 0, 42, 80
2, 40626, Note_on_c, 0, 54, 80
2, 40630, Note_on_c, 0, 84, 0
2, 40630, Note_on_c, 0, 82, 0
2, 40632, Note_on_c, 0, 92, 0
2, 40632, Note_on_c, 0, 87, 0
2, 40660, Note_on_c, 0, 54, 0
2, 40660, Note_on_c, 0, 42, 0
2, 40697, Note_on_c, 0, 84, 80
2, 40697, Note_on_c, 0, 87, 80
2, 40724, Note_on_c, 0, 56, 80
2, 40726, Note_on_c, 0, 60, 80
2, 40726, Note_on_c, 0, 66, 80
2, 40728, Note_on_c, 0, 82, 80
2, 40729, Note_on_c, 0, 87, 0
2, 40729, Note_on_c, 0, 84, 0
2, 40749, Note_on_c, 0, 66, 0
2, 40749, Note_on_c, 0, 60, 0
2, 40749, Note_on_c, 0, 56, 0
2, 40751, Note_on_c, 0, 82, 0
2, 40793, Note_on_c, 0, 80, 80
2, 40793, Note_on_c, 0, 84, 80
2, 40793, Note_on_c, 0, 87, 80
2, 40804, Note_on_c, 0, 92, 80
2, 40824, Note_on_c, 0, 41, 80
2, 40824, Note_on_c, 0, 53, 80
2, 40856, Note_on_c, 0, 41, 0
2, 40858, Note_on_c, 0, 53, 0
2, 40873, Note_on_c, 0, 87, 0
2, 40873, Note_on_c, 0, 80, 0
2, 40873, Note_on_c, 0, 84, 0
2, 40873, Note_on_c, 0, 92, 0
2, 40925, Note_on_c, 0, 56, 80
2, 40925, Note_on_c, 0, 60, 80
2, 40927, Note_on_c, 0, 66, 80
2, 40948, Note_on_c, 0, 56, 0
2, 40950, Note_on_c, 0, 66, 0
2, 40950, Note_on_c, 0, 60, 0
2, 40958, Note_on_c, 0, 82, 80
2, 40960, Note_on_c, 0, 84, 80
2, 40960, Note_on_c, 0, 87, 80
2, 40962, Note_on_c, 0, 92, 80
2, 41024, Note_on_c, 0, 39, 80
2, 41024, Note_on_c, 0, 51, 80
2, 41030, Note_on_c, 0, 87, 0
2, 41030, Note_on_c, 0, 82, 0
2, 41030, Note_on_c, 0, 84, 0
2, 41032, Note_on_c, 0, 92, 0
2, 41032, Control_c, 0, 64, 127
2, 41072, Note_on_c, 0, 39, 0
2, 41074, Note_on_c, 0, 51, 0
2, 41080, Control_c, 0, 64, 0
2, 41089, Note_on_c, 0, 37, 80
2, 41095, Note_on_c, 0, 49, 80
2, 41097, Note_on_c, 0, 84, 80
2, 41097, Note_on_c, 0, 87, 80
2, 41126, Note_on_c, 0, 36, 80
2, 41128, Note_on_c, 0, 37, 0
2, 41128, Note_on_c, 0, 48, 80
2, 41130, Note_on_c, 0, 49, 0
2, 41130, Note_on_c, 0, 82, 80
2, 41132, Note_on_c, 0, 87, 0
2, 41132, Note_on_c, 0, 84, 0
2, 41187, Note_on_c, 0, 36, 0
2, 41189, Note_on_c, 0, 48, 0
2, 41191, Note_on_c, 0, 82, 0
2, 41201, Note_on_c, 0, 84, 80
2, 41201, Note_on_c, 0, 87, 80
2, 41232, Note_on_c, 0, 37, 80
2, 41232, Note_on_c, 0, 49, 80
2, 41235, Note_on_c, 0, 80, 80
2, 41237, Note_on_c, 0, 87, 0
2, 41237, Note_on_c, 0, 84, 0
2, 41266, Note_on_c, 0, 37, 0
2, 41268, Note_on_c, 0, 49, 0
2, 41270, Note_on_c, 0, 80, 0
2, 41301, Note_on_c, 0, 41, 80
2, 41301, Note_on_c, 0, 53, 80
2, 41304, Note_on_c, 0, 85, 80
2, 41335, Note_on_c, 0, 56, 80
2, 41335, Note_on_c, 0, 61, 80
2, 41335, Note_on_c, 0, 65, 80
2, 41337, Note_on_c, 0, 53, 0
2, 41337, Note_on_c, 0, 41, 0
2, 41337, Note_on_c, 0, 82, 80
2, 41339, Note_on_c, 0, 85, 0
2, 41358, Note_on_c, 0, 65, 0
2, 41358, Note_on_c, 0, 56, 0
2, 41358, Note_on_c, 0, 61, 0
2, 41395, Note_on_c, 0, 82, 0
2, 41402, Note_on_c, 0, 85, 80
2, 41433, Note_on_c, 0, 44, 80
2, 41433, Note_on_c, 0, 56, 80
2, 41437, Note_on_c, 0, 89, 80
2, 41439, Note_on_c, 0, 85, 0
2, 41458, Note_on_c, 0, 44, 0
2, 41460, Note_on_c, 0, 56, 0
2, 41483, Note_on_c, 0, 89, 0
2, 41502, Note_on_c, 0, 80, 80
2, 41535, Note_on_c, 0, 56, 80
2, 41535, Note_on_c, 0, 61, 80
2, 41535, Note_on_c, 0, 65, 80
2, 41537, Note_on_c, 0, 85, 80
2, 41539, Note_on_c, 0, 80, 0
2, 41558, Note_on_c, 0, 56, 0
2, 41558, Note_on_c, 0, 61, 0
2, 41560, Note_on_c, 0, 65, 0
2, 41592, Note_on_c, 0, 85, 0
2, 41602, Note_on_c, 0, 89, 80
2, 41633, Note_on_c, 0, 41, 80
2, 41635, Note_on_c, 0, 53, 80
2, 41635, Note_on_c, 0, 80, 80
2, 41640, Note_on_c, 0, 89, 0
2, 41683, Note_on_c, 0, 80, 0
2, 41702, Note_on_c, 0, 85, 80
2, 41733, Note_on_c, 0, 56, 80
2, 41735, Note_on_c, 0, 53, 0
2, 41735, Note_on_c, 0, 41, 0
2, 41735, Note_on_c, 0, 61, 80
2, 41735, Note_on_c, 0, 65, 80
2, 41736, Note_on_c, 0, 89, 80
2, 41738, Note_on_c, 0, 85, 0
2, 41756, Note_on_c, 0, 56, 0
2, 41756, Note_on_c, 0, 61, 0
2, 41760, Note_on_c, 0, 65, 0
2, 41761, Note_on_c, 0, 89, 0
2, 41804, Note_on_c, 0, 80, 80
2, 41834, Note_on_c, 0, 37, 80
2, 41834, Note_on_c, 0, 49, 80
2, 41840, Note_on_c, 0, 80, 0
2, 41871, Note_on_c, 0, 37, 0
2, 41873, Note_on_c, 0, 49, 0
2, 41905, Note_on_c, 0, 89, 80
2, 41934, Note_on_c, 0, 36, 80
2, 41936, Note_on_c, 0, 48, 80
2, 41938, Note_on_c, 0, 81, 80
2, 41942, Note_on_c, 0, 89, 0
2, 41973, Note_on_c, 0, 36, 0
2, 41973, Note_on_c, 0, 48, 0
2, 42000, Note_on_c, 0, 81, 0
2, 42009, Note_on_c, 0, 87, 80
2, 42009, Note_on_c, 0, 89, 80
2, 42013, Control_c, 0, 64, 127
2, 42023, Note_on_c, 0, 89, 0
2, 42040, Note_on_c, 0, 34, 80
2, 42040, Note_on_c, 0, 46, 80
2, 42044, Note_on_c, 0, 82, 80
2, 42044, Note_on_c, 0, 86, 80
2, 42044, Note_on_c, 0, 89, 80
2, 42044, Note_on_c, 0, 94, 80
2, 42046, Note_on_c, 0, 87, 0
2, 42076, Note_on_c, 0, 34, 0
2, 42076, Note_on_c, 0, 46, 0
2, 42096, Control_c, 0, 64, 0
2, 42136, Note_on_c, 0, 86, 0
2, 42136, Note_on_c, 0, 82, 0
2, 42136, Note_on_c, 0, 89, 0
2, 42136, Note_on_c, 0, 94, 0
2, 42142, Note_on_c, 0, 58, 80
2, 42142, Note_on_c, 0, 62, 80
2, 42142, Note_on_c, 0, 68, 80
2, 42165, Note_on_c, 0, 68, 0
2, 42165, Note_on_c, 0, 62, 0
2, 42165, Note_on_c, 0, 58, 0
2, 42209, Note_on_c, 0, 84, 80
2, 42209, Note_on_c, 0, 86, 80
2, 42209, Note_on_c, 0, 89, 80
2, 42209, Note_on_c, 0, 94, 80
2, 42238, Note_on_c, 0, 38, 80
2, 42240, Note_on_c, 0, 50, 80
2, 42243, Note_on_c, 0, 89, 0
2, 42243, Note_on_c, 0, 86, 0
2, 42245, Note_on_c, 0, 94, 0
2, 42245, Note_on_c, 0, 84, 0
2, 42272, Note_on_c, 0, 50, 0
2, 42272, Note_on_c, 0, 38, 0
2, 42309, Note_on_c, 0, 86, 80
2, 42309, Note_on_c, 0, 89, 80
2, 42339, Note_on_c, 0, 58, 80
2, 42339, Note_on_c, 0, 62, 80
2, 42339, Note_on_c, 0, 68, 80
2, 42341, Note_on_c, 0, 84, 80
2, 42343, Note_on_c, 0, 89, 0
2, 42343, Note_on_c, 0, 86, 0
2, 42362, Note_on_c, 0, 58, 0
2, 42364, Note_on_c, 0, 62, 0
2, 42364, Note_on_c, 0, 68, 0
2, 42378, Note_on_c, 0, 84, 0
2, 42435, Note_on_c, 0, 41, 80
2, 42437, Note_on_c, 0, 53, 80
2, 42437, Note_on_c, 0, 89, 80
2, 42439, Note_on_c, 0, 82, 80
2, 42439, Note_on_c, 0, 86, 80
2, 42439, Note_on_c, 0, 94, 80
2, 42443, Control_c, 0, 64, 127
2, 42468, Note_on_c, 0, 53, 0
2, 42468, Note_on_c, 0, 41, 0
2, 42489, Control_c, 0, 64, 0
2, 42504, Note_on_c, 0, 86, 0
2, 42504, Note_on_c, 0, 82, 0
2, 42504, Note_on_c, 0, 94, 0
2, 42504, Note_on_c, 0, 89, 0
2, 42535, Note_on_c, 0, 58, 80
2, 42535, Note_on_c, 0, 62, 80
2, 42535, Note_on_c, 0, 68, 80
2, 42556, Note_on_c, 0, 58, 0
2, 42558, Note_on_c, 0, 68, 0
2, 42558, Note_on_c, 0, 62, 0
2, 42599, Note_on_c, 0, 89, 80
2, 42600, Note_on_c, 0, 84, 80
2, 42600, Note_on_c, 0, 86, 80
2, 42600, Note_on_c, 0, 94, 80
2, 42633, Note_on_c, 0, 46, 80
2, 42633, Note_on_c, 0, 58, 80
2, 42637, Note_on_c, 0, 94, 0
2, 42637, Note_on_c, 0, 86, 0
2, 42637, Note_on_c, 0, 89, 0
2, 42637, Note_on_c, 0, 84, 0
2, 42666, Note_on_c, 0, 46, 0
2, 42668, Note_on_c, 0, 58, 0
2, 42702, Note_on_c, 0, 86, 80
2, 42702, Note_on_c, 0, 89, 80
2, 42735, Note_on_c, 0, 58, 80
2, 42735, Note_on_c, 0, 62, 80
2, 42735, Note_on_c, 0, 68, 80
2, 42735, Note_on_c, 0, 84, 80
2, 42739, Note_on_c, 0, 89, 0
2, 42739, Note_on_c, 0, 86, 0
2, 42758, Note_on_c, 0, 68, 0
2, 42758, Note_on_c, 0, 62, 0
2, 42758, Note_on_c, 0, 58, 0
2, 42785, Note_on_c, 0, 84, 0
2, 42802, Note_on_c, 0, 89, 80
2, 42804, Note_on_c, 0, 86, 80
2, 42833, Note_on_c, 0, 39, 80
2, 42833, Note_on_c, 0, 51, 80
2, 42837, Note_on_c, 0, 86, 0
2, 42837, Note_on_c, 0, 89, 0
2, 42867, Note_on_c, 0, 39, 0
2, 42867, Note_on_c, 0, 51, 0
2, 42902, Note_on_c, 0, 75, 80
2, 42902, Note_on_c, 0, 87, 80
2, 42933, Note_on_c, 0, 58, 80
2, 42933, Note_on_c, 0, 63, 80
2, 42935, Note_on_c, 0, 66, 80
2, 42935, Note_on_c, 0, 70, 80
2, 42935, Note_on_c, 0, 82, 80
2, 42936, Note_on_c, 0, 87, 0
2, 42936, Note_on_c, 0, 75, 0
2, 42958, Note_on_c, 0, 58, 0
2, 42958, Note_on_c, 0, 66, 0
2, 42958, Note_on_c, 0, 63, 0
2, 42958, Note_on_c, 0, 70, 0
2, 42992, Note_on_c, 0, 82, 0
2, 43000, Note_on_c, 0, 75, 80
2, 43031, Note_on_c, 0, 42, 80
2, 43031, Note_on_c, 0, 54, 80
2, 43032, Note_on_c, 0, 78, 80
2, 43034, Note_on_c, 0, 75, 0
2, 43057, Note_on_c, 0, 78, 0
2, 43067, Note_on_c, 0, 54, 0
2, 43067, Note_on_c, 0, 42, 0
2, 43098, Note_on_c, 0, 72, 80
2, 43098, Note_on_c, 0, 84, 80
2, 43130, Note_on_c, 0, 58, 80
2, 43130, Note_on_c, 0, 63, 80
2, 43130, Note_on_c, 0, 66, 80
2, 43134, Note_on_c, 0, 84, 0
2, 43134, Note_on_c, 0, 72, 0
2, 43155, Note_on_c, 0, 63, 0
2, 43155, Note_on_c, 0, 58, 0
2, 43155, Note_on_c, 0, 66, 0
2, 43198, Note_on_c, 0, 75, 80
2, 43226, Note_on_c, 0, 39, 80
2, 43226, Note_on_c, 0, 51, 80
2, 43230, Note_on_c, 0, 70, 80
2, 43230, Note_on_c, 0, 82, 80
2, 43234, Note_on_c, 0, 75, 0
2, 43263, Note_on_c, 0, 39, 0
2, 43263, Note_on_c, 0, 51, 0
2, 43276, Note_on_c, 0, 70, 0
2, 43288, Note_on_c, 0, 82, 0
2, 43296, Note_on_c, 0, 75, 80
2, 43328, Note_on_c, 0, 58, 80
2, 43328, Note_on_c, 0, 63, 80
2, 43328, Note_on_c, 0, 66, 80
2, 43330, Note_on_c, 0, 78, 80
2, 43332, Note_on_c, 0, 75, 0
2, 43351, Note_on_c, 0, 66, 0
2, 43351, Note_on_c, 0, 58, 0
2, 43351, Note_on_c, 0, 63, 0
2, 43353, Note_on_c, 0, 78, 0
2, 43393, Note_on_c, 0, 72, 80
2, 43395, Note_on_c, 0, 84, 80
2, 43403, Control_c, 0, 64, 127
2, 43426, Note_on_c, 0, 42, 80
2, 43428, Note_on_c, 0, 54, 80
2, 43430, Note_on_c, 0, 84, 0
2, 43430, Note_on_c, 0, 72, 0
2, 43463, Note_on_c, 0, 42, 0
2, 43464, Note_on_c, 0, 54, 0
2, 43486, Control_c, 0, 64, 0
2, 43497, Note_on_c, 0, 75, 80
2, 43530, Note_on_c, 0, 58, 80
2, 43532, Note_on_c, 0, 63, 80
2, 43532, Note_on_c, 0, 66, 80
2, 43532, Note_on_c, 0, 70, 80
2, 43532, Note_on_c, 0, 82, 80
2, 43534, Note_on_c, 0, 75, 0
2, 43553, Note_on_c, 0, 58, 0
2, 43557, Note_on_c, 0, 66, 0
2, 43557, Note_on_c, 0, 63, 0
2, 43566, Note_on_c, 0, 70, 0
2, 43568, Note_on_c, 0, 82, 0
2, 43634, Note_on_c, 0, 43, 80
2, 43634, Note_on_c, 0, 55, 80
2, 43634, Note_on_c, 0, 73, 80
2, 43636, Note_on_c, 0, 76, 80
2, 43636, Note_on_c, 0, 85, 80
2, 43661, Note_on_c, 0, 76, 0
2, 43661, Note_on_c, 0, 73, 0
2, 43663, Note_on_c, 0, 85, 0
2, 43671, Note_on_c, 0, 43, 0
2, 43673, Note_on_c, 0, 55, 0
2, 43704, Note_on_c, 0, 46, 80
2, 43705, Note_on_c, 0, 58, 80
2, 43740, Note_on_c, 0, 73, 80
2, 43740, Note_on_c, 0, 76, 80
2, 43740, Note_on_c, 0, 85, 80
2, 43775, Note_on_c, 0, 58, 0
2, 43775, Note_on_c, 0, 46, 0
2, 43776, Note_on_c, 0, 76, 0
2, 43776, Note_on_c, 0, 73, 0
2, 43776, Note_on_c, 0, 85, 0
2, 43807, Note_on_c, 0, 49, 80
2, 43807, Note_on_c, 0, 61, 80
2, 43830, Note_on_c, 0, 61, 0
2, 43830, Note_on_c, 0, 49, 0
2, 43838, Note_on_c, 0, 52, 80
2, 43838, Note_on_c, 0, 64, 80
2, 43838, Note_on_c, 0, 72, 80
2, 43838, Note_on_c, 0, 76, 80
2, 43840, Note_on_c, 0, 84, 80
2, 43874, Note_on_c, 0, 84, 0
2, 43874, Note_on_c, 0, 72, 0
2, 43874, Note_on_c, 0, 76, 0
2, 43884, Note_on_c, 0, 64, 0
2, 43896, Note_on_c, 0, 52, 0
2, 43903, Note_on_c, 0, 49, 80
2, 43905, Note_on_c, 0, 61, 80
2, 43936, Note_on_c, 0, 70, 80
2, 43938, Note_on_c, 0, 46, 80
2, 43938, Note_on_c, 0, 58, 80
2, 43938, Note_on_c, 0, 76, 80
2, 43940, Note_on_c, 0, 61, 0
2, 43940, Note_on_c, 0, 49, 0
2, 43940, Note_on_c, 0, 82, 80
2, 43993, Note_on_c, 0, 46, 0
2, 43995, Note_on_c, 0, 58, 0
2, 43995, Note_on_c, 0, 70, 0
2, 43995, Note_on_c, 0, 76, 0
2, 43995, Note_on_c, 0, 82, 0
2, 44001, Note_on_c, 0, 43, 80
2, 44003, Note_on_c, 0, 55, 80
2, 44036, Note_on_c, 0, 44, 80
2, 44036, Note_on_c, 0, 56, 80
2, 44036, Note_on_c, 0, 68, 80
2, 44036, Note_on_c, 0, 77, 80
2, 44038, Note_on_c, 0, 55, 0
2, 44038, Note_on_c, 0, 43, 0
2, 44070, Note_on_c, 0, 56, 0
2, 44074, Note_on_c, 0, 44, 0
2, 44093, Note_on_c, 0, 77, 0
2, 44093, Note_on_c, 0, 68, 0
2, 44101, Note_on_c, 0, 73, 80
2, 44134, Note_on_c, 0, 56, 80
2, 44134, Note_on_c, 0, 61, 80
2, 44134, Note_on_c, 0, 65, 80
2, 44134, Note_on_c, 0, 75, 80
2, 44137, Note_on_c, 0, 73, 0
2, 44159, Note_on_c, 0, 65, 0
2, 44159, Note_on_c, 0, 56, 0
2, 44159, Note_on_c, 0, 61, 0
2, 44159, Note_on_c, 0, 75, 0
2, 44201, Note_on_c, 0, 41, 80
2, 44201, Note_on_c, 0, 43, 80
2, 44201, Note_on_c, 0, 70, 80
2, 44201, Note_on_c, 0, 78, 80
2, 44207, Note_on_c, 0, 45, 80
2, 44208, Note_on_c, 0, 41, 0
2, 44216, Note_on_c, 0, 34, 80
2, 44218, Note_on_c, 0, 46, 80
2, 44220, Note_on_c, 0, 43, 0
2, 44222, Note_on_c, 0, 78, 0
2, 44222, Note_on_c, 0, 70, 0
2, 44232, Note_on_c, 0, 45, 0
2, 44253, Note_on_c, 0, 34, 0
2, 44253, Note_on_c, 0, 46, 0
2, 44287, Note_on_c, 0, 70, 80
2, 44320, Note_on_c, 0, 58, 80
2, 44322, Note_on_c, 0, 56, 80
2, 44322, Note_on_c, 0, 62, 80
2, 44322, Note_on_c, 0, 68, 80
2, 44322, Note_on_c, 0, 77, 80
2, 44324, Note_on_c, 0, 70, 0
2, 44345, Note_on_c, 0, 62, 0
2, 44345, Note_on_c, 0, 58, 0
2, 44345, Note_on_c, 0, 56, 0
2, 44358, Note_on_c, 0, 68, 0
2, 44360, Note_on_c, 0, 77, 0
2, 44426, Note_on_c, 0, 51, 80
2, 44426, Note_on_c, 0, 58, 80
2, 44426, Note_on_c, 0, 61, 80
2, 44426, Note_on_c, 0, 67, 80
2, 44426, Note_on_c, 0, 77, 80
2, 44451, Note_on_c, 0, 61, 0
2, 44451, Note_on_c, 0, 51, 0
2, 44453, Note_on_c, 0, 58, 0
2, 44474, Note_on_c, 0, 67, 0
2, 44490, Note_on_c, 0, 77, 0
2, 44496, Note_on_c, 0, 73, 80
2, 44532, Note_on_c, 0, 51, 80
2, 44532, Note_on_c, 0, 58, 80
2, 44532, Note_on_c, 0, 61, 80
2, 44532, Note_on_c, 0, 75, 80
2, 44534, Note_on_c, 0, 73, 0
2, 44557, Note_on_c, 0, 75, 0
2, 44568, Note_on_c, 0, 51, 0
2, 44568, Note_on_c, 0, 58, 0
2, 44568, Note_on_c, 0, 61, 0
2, 44597, Note_on_c, 0, 66, 80
2, 44597, Note_on_c, 0, 77, 80
2, 44632, Note_on_c, 0, 56, 80
2, 44632, Note_on_c, 0, 60, 80
2, 44634, Note_on_c, 0, 66, 0
2, 44636, Note_on_c, 0, 77, 0
2, 44657, Note_on_c, 0, 56, 0
2, 44657, Note_on_c, 0, 60, 0
2, 44697, Note_on_c, 0, 72, 80
2, 44730, Note_on_c, 0, 56, 80
2, 44730, Note_on_c, 0, 60, 80
2, 44730, Note_on_c, 0, 66, 80
2, 44730, Note_on_c, 0, 75, 80
2, 44732, Note_on_c, 0, 72, 0
2, 44762, Note_on_c, 0, 75, 0
2, 44762, Note_on_c, 0, 60, 0
2, 44764, Note_on_c, 0, 56, 0
2, 44764, Note_on_c, 0, 66, 0
2, 44793, Note_on_c, 0, 65, 80
2, 44793, Note_on_c, 0, 73, 80
2, 44826, Note_on_c, 0, 49, 80
2, 44826, Note_on_c, 0, 61, 80
2, 44828, Note_on_c, 0, 73, 0
2, 44828, Note_on_c, 0, 65, 0
2, 44858, Note_on_c, 0, 49, 0
2, 44858, Note_on_c, 0, 61, 0
2, 44887, Note_on_c, 0, 46, 80
2, 44887, Note_on_c, 0, 58, 80
2, 44889, Note_on_c, 0, 73, 80
2, 44922, Note_on_c, 0, 44, 80
2, 44922, Note_on_c, 0, 56, 80
2, 44922, Note_on_c, 0, 77, 80
2, 44924, Note_on_c, 0, 73, 0
2, 44924, Note_on_c, 0, 46, 0
2, 44924, Note_on_c, 0, 58, 0
2, 44977, Note_on_c, 0, 44, 0
2, 44977, Note_on_c, 0, 56, 0
2, 44977, Note_on_c, 0, 77, 0
2, 44985, Note_on_c, 0, 41, 80
2, 44985, Note_on_c, 0, 53, 80
2, 44985, Note_on_c, 0, 80, 80
2, 45018, Note_on_c, 0, 37, 80
2, 45018, Note_on_c, 0, 49, 80
2, 45018, Note_on_c, 0, 85, 80
2, 45018, Note_on_c, 0, 97, 80
2, 45020, Note_on_c, 0, 80, 0
2, 45022, Note_on_c, 0, 41, 0
2, 45022, Note_on_c, 0, 53, 0
2, 45050, Note_on_c, 0, 97, 0
2, 45052, Note_on_c, 0, 37, 0
2, 45052, Note_on_c, 0, 85, 0
2, 45052, Note_on_c, 0, 49, 0
2, 45119, Note_on_c, 0, 48, 80
2, 45120, Note_on_c, 0, 60, 80
2, 45155, Note_on_c, 0, 48, 0
2, 45157, Note_on_c, 0, 60, 0
2, 45199, Control_c, 0, 64, 127
2, 45222, Note_on_c, 0, 49, 80
2, 45222, Note_on_c, 0, 61, 80
2, 45222, Note_on_c, 0, 80, 80
2, 45222, Note_on_c, 0, 92, 80
2, 45247, Control_c, 0, 64, 0
2, 45257, Note_on_c, 0, 92, 0
2, 45257, Note_on_c, 0, 49, 0
2, 45257, Note_on_c, 0, 61, 0
2, 45257, Note_on_c, 0, 80, 0
2, 45323, Note_on_c, 0, 68, 80
2, 45323, Note_on_c, 0, 77, 80
2, 45323, Note_on_c, 0, 89, 80
2, 45325, Note_on_c, 0, 56, 80
2, 45325, Note_on_c, 0, 61, 80
2, 45325, Note_on_c, 0, 65, 80
2, 45348, Note_on_c, 0, 65, 0
2, 45348, Note_on_c, 0, 56, 0
2, 45348, Note_on_c, 0, 68, 0
2, 45348, Note_on_c, 0, 61, 0
2, 45381, Note_on_c, 0, 77, 0
2, 45381, Note_on_c, 0, 89, 0
2, 45423, Note_on_c, 0, 56, 80
2, 45423, Note_on_c, 0, 61, 80
2, 45423, Note_on_c, 0, 65, 80
2, 45423, Note_on_c, 0, 68, 80
2, 45423, Note_on_c, 0, 80, 80
2, 45423, Note_on_c, 0, 92, 80
2, 45446, Note_on_c, 0, 56, 0
2, 45448, Note_on_c, 0, 68, 0
2, 45448, Note_on_c, 0, 61, 0
2, 45448, Note_on_c, 0, 65, 0
2, 45457, Note_on_c, 0, 92, 0
2, 45457, Note_on_c, 0, 80, 0
2, 45524, Note_on_c, 0, 48, 80
2, 45524, Note_on_c, 0, 60, 80
2, 45524, Note_on_c, 0, 68, 80
2, 45524, Note_on_c, 0, 77, 80
2, 45524, Note_on_c, 0, 89, 80
2, 45560, Note_on_c, 0, 68, 0
2, 45560, Note_on_c, 0, 48, 0
2, 45560, Note_on_c, 0, 60, 0
2, 45581, Note_on_c, 0, 77, 0
2, 45581, Note_on_c, 0, 89, 0
2, 45622, Note_on_c, 0, 49, 80
2, 45622, Note_on_c, 0, 61, 80
2, 45622, Note_on_c, 0, 80, 80
2, 45622, Note_on_c, 0, 92, 80
2, 45656, Note_on_c, 0, 92, 0
2, 45656, Note_on_c, 0, 49, 0
2, 45656, Note_on_c, 0, 61, 0
2, 45656, Note_on_c, 0, 80, 0
2, 45720, Note_on_c, 0, 61, 80
2, 45720, Note_on_c, 0, 65, 80
2, 45720, Note_on_c, 0, 89, 80
2, 45720, Note_on_c, 0, 94, 80
2, 45722, Note_on_c, 0, 56, 80
2, 45722, Note_on_c, 0, 82, 80
2, 45744, Note_on_c, 0, 94, 0
2, 45745, Note_on_c, 0, 65, 0
2, 45745, Note_on_c, 0, 89, 0
2, 45745, Note_on_c, 0, 61, 0
2, 45745, Note_on_c, 0, 82, 0
2, 45745, Note_on_c, 0, 56, 0
2, 45786, Note_on_c, 0, 84, 80
2, 45786, Note_on_c, 0, 89, 80
2, 45795, Note_on_c, 0, 96, 80
2, 45818, Note_on_c, 0, 58, 80
2, 45820, Note_on_c, 0, 96, 0
2, 45820, Note_on_c, 0, 46, 80
2, 45822, Note_on_c, 0, 84, 0
2, 45822, Note_on_c, 0, 89, 0
2, 45857, Note_on_c, 0, 58, 0
2, 45857, Note_on_c, 0, 46, 0
2, 45886, Note_on_c, 0, 82, 80
2, 45886, Note_on_c, 0, 94, 80
2, 45918, Note_on_c, 0, 80, 80
2, 45918, Note_on_c, 0, 92, 80
2, 45920, Note_on_c, 0, 94, 0
2, 45920, Note_on_c, 0, 47, 80
2, 45920, Note_on_c, 0, 59, 80
2, 45922, Note_on_c, 0, 82, 0
2, 45955, Note_on_c, 0, 47, 0
2, 45955, Note_on_c, 0, 59, 0
2, 45978, Note_on_c, 0, 80, 0
2, 45978, Note_on_c, 0, 92, 0
2, 45985, Note_on_c, 0, 89, 80
2, 45989, Note_on_c, 0, 77, 80
2, 46020, Note_on_c, 0, 60, 80
2, 46020, Note_on_c, 0, 75, 80
2, 46020, Note_on_c, 0, 87, 80
2, 46022, Note_on_c, 0, 48, 80
2, 46026, Note_on_c, 0, 77, 0
2, 46026, Note_on_c, 0, 89, 0
2, 46045, Note_on_c, 0, 87, 0
2, 46045, Note_on_c, 0, 75, 0
2, 46058, Note_on_c, 0, 48, 0
2, 46058, Note_on_c, 0, 60, 0
2, 46091, Note_on_c, 0, 77, 80
2, 46091, Note_on_c, 0, 89, 80
2, 46128, Note_on_c, 0, 56, 80
2, 46128, Note_on_c, 0, 60, 80
2, 46128, Note_on_c, 0, 63, 80
2, 46149, Note_on_c, 0, 60, 0
2, 46149, Note_on_c, 0, 89, 0
2, 46149, Note_on_c, 0, 77, 0
2, 46151, Note_on_c, 0, 56, 0
2, 46151, Note_on_c, 0, 63, 0
2, 46193, Note_on_c, 0, 80, 80
2, 46193, Note_on_c, 0, 84, 80
2, 46195, Note_on_c, 0, 72, 80
2, 46225, Note_on_c, 0, 56, 80
2, 46225, Note_on_c, 0, 60, 80
2, 46225, Note_on_c, 0, 63, 80
2, 46250, Note_on_c, 0, 63, 0
2, 46250, Note_on_c, 0, 56, 0
2, 46250, Note_on_c, 0, 60, 0
2, 46295, Note_on_c, 0, 80, 0
2, 46295, Note_on_c, 0, 72, 0
2, 46295, Note_on_c, 0, 84, 0
2, 46304, Control_c, 0, 64, 127
2, 46325, Note_on_c, 0, 39, 80
2, 46325, Note_on_c, 0, 51, 80
2, 46383, Note_on_c, 0, 51, 0
2, 46383, Note_on_c, 0, 39, 0
2, 46385, Control_c, 0, 64, 0
2, 46394, Note_on_c, 0, 41, 80
2, 46394, Note_on_c, 0, 53, 80
2, 46429, Note_on_c, 0, 44, 80
2, 46429, Note_on_c, 0, 56, 80
2, 46431, Note_on_c, 0, 53, 0
2, 46431, Note_on_c, 0, 41, 0
2, 46464, Note_on_c, 0, 44, 0
2, 46464, Note_on_c, 0, 56, 0
2, 46496, Note_on_c, 0, 75, 80
2, 46529, Note_on_c, 0, 56, 80
2, 46529, Note_on_c, 0, 68, 80
2, 46529, Note_on_c, 0, 77, 80
2, 46531, Note_on_c, 0, 75, 0
2, 46531, Note_on_c, 0, 51, 80
2, 46531, Note_on_c, 0, 60, 80
2, 46554, Note_on_c, 0, 60, 0
2, 46554, Note_on_c, 0, 56, 0
2, 46554, Note_on_c, 0, 51, 0
2, 46590, Note_on_c, 0, 68, 0
2, 46590, Note_on_c, 0, 77, 0
2, 46598, Note_on_c, 0, 72, 80
2, 46631, Note_on_c, 0, 75, 80
2, 46632, Note_on_c, 0, 39, 80
2, 46632, Note_on_c, 0, 51, 80
2, 46634, Note_on_c, 0, 72, 0
2, 46656, Note_on_c, 0, 75, 0
2, 46669, Note_on_c, 0, 39, 0
2, 46669, Note_on_c, 0, 51, 0
2, 46700, Note_on_c, 0, 77, 80
2, 46702, Note_on_c, 0, 68, 80
2, 46734, Note_on_c, 0, 45, 80
2, 46736, Note_on_c, 0, 68, 0
2, 46736, Note_on_c, 0, 77, 0
2, 46736, Note_on_c, 0, 57, 80
2, 46782, Note_on_c, 0, 57, 0
2, 46782, Note_on_c, 0, 45, 0
2, 46803, Note_on_c, 0, 72, 80
2, 46836, Note_on_c, 0, 46, 80
2, 46836, Note_on_c, 0, 58, 80
2, 46836, Note_on_c, 0, 67, 80
2, 46836, Note_on_c, 0, 75, 80
2, 46838, Note_on_c, 0, 72, 0
2, 46872, Note_on_c, 0, 67, 0
2, 46872, Note_on_c, 0, 46, 0
2, 46872, Note_on_c, 0, 58, 0
2, 46872, Note_on_c, 0, 75, 0
2, 46939, Note_on_c, 0, 51, 80
2, 46939, Note_on_c, 0, 55, 80
2, 46939, Note_on_c, 0, 61, 80
2, 46939, Note_on_c, 0, 77, 80
2, 46960, Note_on_c, 0, 77, 0
2, 46960, Note_on_c, 0, 61, 0
2, 46960, Note_on_c, 0, 55, 0
2, 46962, Note_on_c, 0, 51, 0
2, 47004, Note_on_c, 0, 70, 80
2, 47004, Note_on_c, 0, 79, 80
2, 47004, Note_on_c, 0, 82, 80
2, 47037, Note_on_c, 0, 39, 80
2, 47037, Note_on_c, 0, 51, 80
2, 47071, Note_on_c, 0, 51, 0
2, 47071, Note_on_c, 0, 39, 0
2, 47125, Note_on_c, 0, 70, 0
2, 47125, Note_on_c, 0, 79, 0
2, 47125, Note_on_c, 0, 82, 0
2, 47135, Note_on_c, 0, 45, 80
2, 47135, Note_on_c, 0, 57, 80
2, 47144, Control_c, 0, 64, 127
2, 47181, Note_on_c, 0, 57, 0
2, 47181, Note_on_c, 0, 45, 0
2, 47192, Control_c, 0, 64, 0
2, 47198, Note_on_c, 0, 60, 80
2, 47200, Note_on_c, 0, 48, 80
2, 47231, Note_on_c, 0, 46, 80
2, 47231, Note_on_c, 0, 58, 80
2, 47232, Note_on_c, 0, 60, 0
2, 47234, Note_on_c, 0, 48, 0
2, 47267, Note_on_c, 0, 46, 0
2, 47267, Note_on_c, 0, 58, 0
2, 47296, Note_on_c, 0, 73, 80
2, 47328, Note_on_c, 0, 51, 80
2, 47328, Note_on_c, 0, 67, 80
2, 47328, Note_on_c, 0, 77, 80
2, 47330, Note_on_c, 0, 55, 80
2, 47330, Note_on_c, 0, 61, 80
2, 47332, Note_on_c, 0, 73, 0
2, 47352, Note_on_c, 0, 61, 0
2, 47353, Note_on_c, 0, 51, 0
2, 47353, Note_on_c, 0, 55, 0
2, 47386, Note_on_c, 0, 67, 0
2, 47396, Note_on_c, 0, 70, 80
2, 47430, Note_on_c, 0, 73, 80
2, 47432, Note_on_c, 0, 39, 80
2, 47432, Note_on_c, 0, 51, 80
2, 47434, Note_on_c, 0, 70, 0
2, 47434, Note_on_c, 0, 77, 0
2, 47455, Note_on_c, 0, 73, 0
2, 47467, Note_on_c, 0, 51, 0
2, 47469, Note_on_c, 0, 39, 0
2, 47499, Note_on_c, 0, 67, 80
2, 47499, Note_on_c, 0, 77, 80
2, 47536, Note_on_c, 0, 43, 80
2, 47536, Note_on_c, 0, 55, 80
2, 47538, Note_on_c, 0, 77, 0
2, 47538, Note_on_c, 0, 67, 0
2, 47593, Note_on_c, 0, 43, 0
2, 47593, Note_on_c, 0, 55, 0
2, 47603, Note_on_c, 0, 68, 80
2, 47603, Note_on_c, 0, 72, 80
2, 47638, Note_on_c, 0, 44, 80
2, 47638, Note_on_c, 0, 56, 80
2, 47649, Note_on_c, 0, 72, 0
2, 47651, Note_on_c, 0, 68, 0
2, 47674, Note_on_c, 0, 44, 0
2, 47674, Note_on_c, 0, 56, 0
2, 47705, Note_on_c, 0, 75, 80
2, 47739, Note_on_c, 0, 51, 80
2, 47739, Note_on_c, 0, 56, 80
2, 47739, Note_on_c, 0, 60, 80
2, 47739, Note_on_c, 0, 68, 80
2, 47739, Note_on_c, 0, 77, 80
2, 47741, Note_on_c, 0, 75, 0
2, 47762, Note_on_c, 0, 60, 0
2, 47762, Note_on_c, 0, 51, 0
2, 47762, Note_on_c, 0, 56, 0
2, 47785, Note_on_c, 0, 68, 0
2, 47805, Note_on_c, 0, 72, 80
2, 47807, Note_on_c, 0, 77, 0
2, 47835, Note_on_c, 0, 75, 80
2, 47837, Note_on_c, 0, 39, 80
2, 47837, Note_on_c, 0, 51, 80
2, 47839, Note_on_c, 0, 72, 0
2, 47860, Note_on_c, 0, 75, 0
2, 47872, Note_on_c, 0, 39, 0
2, 47872, Note_on_c, 0, 51, 0
2, 47903, Note_on_c, 0, 77, 80
2, 47904, Note_on_c, 0, 68, 80
2, 47935, Note_on_c, 0, 51, 80
2, 47935, Note_on_c, 0, 56, 80
2, 47935, Note_on_c, 0, 60, 80
2, 47939, Note_on_c, 0, 68, 0
2, 47939, Note_on_c, 0, 77, 0
2, 47960, Note_on_c, 0, 56, 0
2, 47960, Note_on_c, 0, 51, 0
2, 47960, Note_on_c, 0, 60, 0
2, 48000, Note_on_c, 0, 68, 80
2, 48000, Note_on_c, 0, 72, 80
2, 48031, Note_on_c, 0, 44, 80
2, 48033, Note_on_c, 0, 72, 0
2, 48033, Note_on_c, 0, 56, 80
2, 48035, Note_on_c, 0, 68, 0
2, 48068, Note_on_c, 0, 56, 0
2, 48068, Note_on_c, 0, 44, 0
2, 48098, Note_on_c, 0, 75, 80
2, 48131, Note_on_c, 0, 51, 80
2, 48131, Note_on_c, 0, 60, 80
2, 48131, Note_on_c, 0, 68, 80
2, 48131, Note_on_c, 0, 77, 80
2, 48133, Note_on_c, 0, 75, 0
2, 48133, Note_on_c, 0, 56, 80
2, 48154, Note_on_c, 0, 56, 0
2, 48154, Note_on_c, 0, 51, 0
2, 48154, Note_on_c, 0, 60, 0
2, 48175, Note_on_c, 0, 68, 0
2, 48189, Note_on_c, 0, 77, 0
2, 48196, Note_on_c, 0, 72, 80
2, 48229, Note_on_c, 0, 46, 80
2, 48229, Note_on_c, 0, 58, 80
2, 48229, Note_on_c, 0, 75, 80
2, 48231, Note_on_c, 0, 72, 0
2, 48254, Note_on_c, 0, 75, 0
2, 48265, Note_on_c, 0, 58, 0
2, 48265, Note_on_c, 0, 46, 0
2, 48296, Note_on_c, 0, 68, 80
2, 48296, Note_on_c, 0, 77, 80
2, 48310, Control_c, 0, 64, 127
2, 48329, Note_on_c, 0, 60, 80
2, 48331, Note_on_c, 0, 77, 0
2, 48331, Note_on_c, 0, 68, 0
2, 48331, Note_on_c, 0, 48, 80
2, 48388, Note_on_c, 0, 48, 0
2, 48388, Control_c, 0, 64, 0
2, 48390, Note_on_c, 0, 60, 0
2, 48400, Note_on_c, 0, 75, 80
2, 48423, Note_on_c, 0, 75, 0
2, 48431, Note_on_c, 0, 61, 80
2, 48431, Note_on_c, 0, 68, 80
2, 48431, Note_on_c, 0, 80, 80
2, 48431, Note_on_c, 0, 92, 80
2, 48432, Note_on_c, 0, 49, 80
2, 48456, Note_on_c, 0, 68, 0
2, 48456, Note_on_c, 0, 61, 0
2, 48465, Note_on_c, 0, 92, 0
2, 48467, Note_on_c, 0, 80, 0
2, 48533, Note_on_c, 0, 61, 80
2, 48533, Note_on_c, 0, 65, 80
2, 48533, Note_on_c, 0, 68, 80
2, 48533, Note_on_c, 0, 77, 80
2, 48533, Note_on_c, 0, 89, 80
2, 48535, Note_on_c, 0, 56, 80
2, 48537, Note_on_c, 0, 49, 0
2, 48558, Note_on_c, 0, 56, 0
2, 48560, Note_on_c, 0, 68, 0
2, 48560, Note_on_c, 0, 61, 0
2, 48560, Note_on_c, 0, 65, 0
2, 48591, Note_on_c, 0, 89, 0
2, 48591, Note_on_c, 0, 77, 0
2, 48635, Note_on_c, 0, 56, 80
2, 48635, Note_on_c, 0, 68, 80
2, 48635, Note_on_c, 0, 80, 80
2, 48635, Note_on_c, 0, 92, 80
2, 48637, Note_on_c, 0, 61, 80
2, 48637, Note_on_c, 0, 65, 80
2, 48660, Note_on_c, 0, 65, 0
2, 48660, Note_on_c, 0, 68, 0
2, 48660, Note_on_c, 0, 56, 0
2, 48660, Note_on_c, 0, 61, 0
2, 48670, Note_on_c, 0, 92, 0
2, 48670, Note_on_c, 0, 80, 0
2, 48736, Note_on_c, 0, 60, 80
2, 48736, Note_on_c, 0, 68, 80
2, 48736, Note_on_c, 0, 77, 80
2, 48736, Note_on_c, 0, 89, 80
2, 48738, Note_on_c, 0, 48, 80
2, 48765, Note_on_c, 0, 48, 0
2, 48765, Note_on_c, 0, 60, 0
2, 48765, Note_on_c, 0, 68, 0
2, 48788, Note_on_c, 0, 89, 0
2, 48790, Note_on_c, 0, 77, 0
2, 48830, Note_on_c, 0, 80, 80
2, 48830, Note_on_c, 0, 89, 80
2, 48830, Note_on_c, 0, 92, 80
2, 48832, Note_on_c, 0, 49, 80
2, 48832, Note_on_c, 0, 61, 80
2, 48866, Note_on_c, 0, 61, 0
2, 48866, Note_on_c, 0, 80, 0
2, 48866, Note_on_c, 0, 92, 0
2, 48866, Note_on_c, 0, 89, 0
2, 48868, Note_on_c, 0, 49, 0
2, 48935, Note_on_c, 0, 82, 80
2, 48935, Note_on_c, 0, 89, 80
2, 48935, Note_on_c, 0, 94, 80
2, 48936, Note_on_c, 0, 56, 80
2, 48936, Note_on_c, 0, 61, 80
2, 48936, Note_on_c, 0, 65, 80
2, 48958, Note_on_c, 0, 94, 0
2, 48960, Note_on_c, 0, 89, 0
2, 48960, Note_on_c, 0, 56, 0
2, 48960, Note_on_c, 0, 82, 0
2, 48960, Note_on_c, 0, 65, 0
2, 48960, Note_on_c, 0, 61, 0
2, 49002, Note_on_c, 0, 96, 80
2, 49004, Note_on_c, 0, 84, 80
2, 49004, Note_on_c, 0, 89, 80
2, 49038, Note_on_c, 0, 46, 80
2, 49038, Note_on_c, 0, 58, 80
2, 49073, Note_on_c, 0, 46, 0
2, 49075, Note_on_c, 0, 58, 0
2, 49094, Note_on_c, 0, 96, 0
2, 49096, Note_on_c, 0, 89, 0
2, 49096, Note_on_c, 0, 84, 0
2, 49105, Note_on_c, 0, 82, 80
2, 49105, Note_on_c, 0, 94, 80
2, 49142, Note_on_c, 0, 47, 80
2, 49142, Note_on_c, 0, 59, 80
2, 49142, Note_on_c, 0, 80, 80
2, 49142, Note_on_c, 0, 92, 80
2, 49144, Note_on_c, 0, 94, 0
2, 49144, Note_on_c, 0, 82, 0
2, 49201, Note_on_c, 0, 80, 0
2, 49201, Note_on_c, 0, 59, 0
2, 49201, Note_on_c, 0, 92, 0
2, 49203, Note_on_c, 0, 47, 0
2, 49211, Note_on_c, 0, 77, 80
2, 49211, Note_on_c, 0, 89, 80
2, 49244, Note_on_c, 0, 92, 80
2, 49246, Note_on_c, 0, 48, 80
2, 49246, Note_on_c, 0, 60, 80
2, 49246, Note_on_c, 0, 80, 80
2, 49248, Note_on_c, 0, 89, 0
2, 49248, Note_on_c, 0, 77, 0
2, 49280, Note_on_c, 0, 60, 0
2, 49280, Note_on_c, 0, 92, 0
2, 49280, Note_on_c, 0, 80, 0
2, 49282, Note_on_c, 0, 48, 0
2, 49346, Note_on_c, 0, 56, 80
2, 49346, Note_on_c, 0, 60, 80
2, 49346, Note_on_c, 0, 63, 80
2, 49346, Note_on_c, 0, 77, 80
2, 49346, Note_on_c, 0, 89, 80
2, 49369, Note_on_c, 0, 63, 0
2, 49369, Note_on_c, 0, 56, 0
2, 49369, Note_on_c, 0, 60, 0
2, 49406, Note_on_c, 0, 77, 0
2, 49406, Note_on_c, 0, 89, 0
2, 49444, Note_on_c, 0, 75, 80
2, 49446, Note_on_c, 0, 56, 80
2, 49446, Note_on_c, 0, 60, 80
2, 49446, Note_on_c, 0, 63, 80
2, 49446, Note_on_c, 0, 87, 80
2, 49469, Note_on_c, 0, 87, 0
2, 49469, Note_on_c, 0, 60, 0
2, 49469, Note_on_c, 0, 75, 0
2, 49469, Note_on_c, 0, 56, 0
2, 49469, Note_on_c, 0, 63, 0
2, 49512, Note_on_c, 0, 80, 80
2, 49512, Note_on_c, 0, 92, 80
2, 49523, Control_c, 0, 64, 127
2, 49544, Note_on_c, 0, 39, 80
2, 49544, Note_on_c, 0, 51, 80
2, 49546, Note_on_c, 0, 92, 0
2, 49546, Note_on_c, 0, 80, 0
2, 49590, Note_on_c, 0, 39, 0
2, 49590, Note_on_c, 0, 51, 0
2, 49600, Control_c, 0, 64, 0
2, 49609, Note_on_c, 0, 68, 80
2, 49611, Note_on_c, 0, 41, 80
2, 49611, Note_on_c, 0, 53, 80
2, 49611, Note_on_c, 0, 72, 80
2, 49642, Note_on_c, 0, 44, 80
2, 49642, Note_on_c, 0, 56, 80
2, 49644, Note_on_c, 0, 72, 0
2, 49644, Note_on_c, 0, 53, 0
2, 49644, Note_on_c, 0, 68, 0
2, 49644, Note_on_c, 0, 41, 0
2, 49677, Note_on_c, 0, 56, 0
2, 49677, Note_on_c, 0, 44, 0
2, 49705, Note_on_c, 0, 75, 80
2, 49740, Note_on_c, 0, 51, 80
2, 49740, Note_on_c, 0, 56, 80
2, 49740, Note_on_c, 0, 60, 80
2, 49740, Note_on_c, 0, 68, 80
2, 49740, Note_on_c, 0, 77, 80
2, 49744, Note_on_c, 0, 75, 0
2, 49765, Note_on_c, 0, 60, 0
2, 49765, Note_on_c, 0, 51, 0
2, 49765, Note_on_c, 0, 56, 0
2, 49798, Note_on_c, 0, 77, 0
2, 49798, Note_on_c, 0, 68, 0
2, 49805, Note_on_c, 0, 72, 80
2, 49842, Note_on_c, 0, 39, 80
2, 49842, Note_on_c, 0, 51, 80
2, 49842, Note_on_c, 0, 75, 80
2, 49844, Note_on_c, 0, 72, 0
2, 49865, Note_on_c, 0, 39, 0
2, 49865, Note_on_c, 0, 51, 0
2, 49876, Note_on_c, 0, 75, 0
2, 49909, Note_on_c, 0, 68, 80
2, 49909, Note_on_c, 0, 77, 80
2, 49942, Note_on_c, 0, 51, 80
2, 49942, Note_on_c, 0, 56, 80
2, 49942, Note_on_c, 0, 60, 80
2, 49944, Note_on_c, 0, 77, 0
2, 49944, Note_on_c, 0, 68, 0
2, 49968, Note_on_c, 0, 56, 0
2, 49968, Note_on_c, 0, 51, 0
2, 49968, Note_on_c, 0, 60, 0
2, 50011, Note_on_c, 0, 65, 80
2, 50011, Note_on_c, 0, 68, 80
2, 50043, Note_on_c, 0, 37, 80
2, 50043, Note_on_c, 0, 49, 80
2, 50078, Note_on_c, 0, 37, 0
2, 50080, Note_on_c, 0, 49, 0
2, 50089, Note_on_c, 0, 68, 0
2, 50089, Note_on_c, 0, 65, 0
2, 50111, Note_on_c, 0, 70, 80
2, 50122, Control_c, 0, 64, 127
2, 50143, Note_on_c, 0, 37, 80
2, 50143, Note_on_c, 0, 49, 80
2, 50143, Note_on_c, 0, 65, 80
2, 50143, Note_on_c, 0, 68, 80
2, 50147, Note_on_c, 0, 70, 0
2, 50180, Note_on_c, 0, 65, 0
2, 50180, Note_on_c, 0, 37, 0
2, 50180, Note_on_c, 0, 49, 0
2, 50180, Note_on_c, 0, 68, 0
2, 50201, Control_c, 0, 64, 0
2, 50243, Note_on_c, 0, 34, 80
2, 50243, Note_on_c, 0, 46, 80
2, 50245, Note_on_c, 0, 65, 80
2, 50245, Note_on_c, 0, 68, 80
2, 50276, Note_on_c, 0, 46, 0
2, 50278, Note_on_c, 0, 34, 0
2, 50278, Note_on_c, 0, 65, 0
2, 50278, Note_on_c, 0, 68, 0
2, 50338, Note_on_c, 0, 38, 80
2, 50338, Note_on_c, 0, 50, 80
2, 50340, Note_on_c, 0, 65, 80
2, 50340, Note_on_c, 0, 70, 80
2, 50365, Note_on_c, 0, 70, 0
2, 50365, Note_on_c, 0, 65, 0
2, 50398, Note_on_c, 0, 50, 0
2, 50398, Note_on_c, 0, 38, 0
2, 50405, Note_on_c, 0, 63, 80
2, 50405, Note_on_c, 0, 68, 80
2, 50438, Note_on_c, 0, 39, 80
2, 50440, Note_on_c, 0, 51, 80
2, 50472, Note_on_c, 0, 39, 0
2, 50474, Note_on_c, 0, 51, 0
2, 50484, Note_on_c, 0, 68, 0
2, 50486, Note_on_c, 0, 63, 0
2, 50505, Note_on_c, 0, 70, 80
2, 50536, Note_on_c, 0, 72, 80
2, 50540, Note_on_c, 0, 51, 80
2, 50540, Note_on_c, 0, 56, 80
2, 50540, Note_on_c, 0, 60, 80
2, 50540, Note_on_c, 0, 63, 80
2, 50542, Note_on_c, 0, 70, 0
2, 50561, Note_on_c, 0, 60, 0
2, 50561, Note_on_c, 0, 56, 0
2, 50561, Note_on_c, 0, 51, 0
2, 50582, Note_on_c, 0, 63, 0
2, 50593, Note_on_c, 0, 72, 0
2, 50601, Note_on_c, 0, 68, 80
2, 50636, Note_on_c, 0, 39, 80
2, 50636, Note_on_c, 0, 51, 80
2, 50636, Note_on_c, 0, 70, 80
2, 50638, Note_on_c, 0, 68, 0
2, 50659, Note_on_c, 0, 70, 0
2, 50668, Note_on_c, 0, 39, 0
2, 50670, Note_on_c, 0, 51, 0
2, 50701, Note_on_c, 0, 63, 80
2, 50701, Note_on_c, 0, 72, 80
2, 50734, Note_on_c, 0, 52, 80
2, 50736, Note_on_c, 0, 40, 80
2, 50737, Note_on_c, 0, 72, 0
2, 50737, Note_on_c, 0, 63, 0
2, 50768, Note_on_c, 0, 52, 0
2, 50768, Note_on_c, 0, 40, 0
2, 50801, Note_on_c, 0, 68, 80
2, 50803, Note_on_c, 0, 62, 80
2, 50833, Note_on_c, 0, 41, 80
2, 50835, Note_on_c, 0, 62, 0
2, 50835, Note_on_c, 0, 53, 80
2, 50837, Note_on_c, 0, 68, 0
2, 50868, Note_on_c, 0, 53, 0
2, 50868, Note_on_c, 0, 41, 0
2, 50899, Note_on_c, 0, 70, 80
2, 50931, Note_on_c, 0, 41, 80
2, 50931, Note_on_c, 0, 53, 80
2, 50933, Note_on_c, 0, 62, 80
2, 50933, Note_on_c, 0, 72, 80
2, 50935, Note_on_c, 0, 70, 0
2, 50966, Note_on_c, 0, 41, 0
2, 50968, Note_on_c, 0, 53, 0
2, 50989, Note_on_c, 0, 62, 0
2, 50989, Note_on_c, 0, 72, 0
2, 50997, Note_on_c, 0, 68, 80
2, 51031, Note_on_c, 0, 43, 80
2, 51031, Note_on_c, 0, 55, 80
2, 51033, Note_on_c, 0, 68, 0
2, 51066, Note_on_c, 0, 55, 0
2, 51066, Note_on_c, 0, 43, 0
2, 51098, Note_on_c, 0, 61, 80
2, 51098, Note_on_c, 0, 70, 80
2, 51131, Note_on_c, 0, 43, 80
2, 51131, Note_on_c, 0, 55, 80
2, 51156, Note_on_c, 0, 70, 0
2, 51156, Note_on_c, 0, 61, 0
2, 51168, Note_on_c, 0, 43, 0
2, 51168, Note_on_c, 0, 55, 0
2, 51196, Note_on_c, 0, 63, 80
2, 51231, Note_on_c, 0, 44, 80
2, 51233, Note_on_c, 0, 56, 80
2, 51233, Note_on_c, 0, 60, 80
2, 51233, Note_on_c, 0, 68, 80
2, 51235, Note_on_c, 0, 63, 0
2, 51256, Note_on_c, 0, 60, 0
2, 51256, Note_on_c, 0, 44, 0
2, 51256, Note_on_c, 0, 56, 0
2, 51256, Note_on_c, 0, 68, 0
2, 51337, Note_on_c, 0, 51, 80
2, 51337, Note_on_c, 0, 56, 80
2, 51337, Note_on_c, 0, 60, 80
2, 51337, Note_on_c, 0, 75, 80
2, 51337, Note_on_c, 0, 87, 80
2, 51362, Note_on_c, 0, 87, 0
2, 51362, Note_on_c, 0, 60, 0
2, 51362, Note_on_c, 0, 51, 0
2, 51362, Note_on_c, 0, 56, 0
2, 51362, Note_on_c, 0, 75, 0
2, 51444, Note_on_c, 0, 46, 80
2, 51444, Note_on_c, 0, 58, 80
2, 51444, Note_on_c, 0, 75, 80
2, 51444, Note_on_c, 0, 87, 80
2, 51480, Note_on_c, 0, 46, 0
2, 51482, Note_on_c, 0, 58, 0
2, 51482, Note_on_c, 0, 75, 0
2, 51482, Note_on_c, 0, 87, 0
2, 51547, Note_on_c, 0, 48, 80
2, 51549, Note_on_c, 0, 60, 80
2, 51549, Note_on_c, 0, 75, 80
2, 51549, Note_on_c, 0, 87, 80
2, 51556, Control_c, 0, 64, 127
2, 51583, Note_on_c, 0, 87, 0
2, 51583, Note_on_c, 0, 48, 0
2, 51583, Note_on_c, 0, 60, 0
2, 51583, Note_on_c, 0, 75, 0
2, 51604, Control_c, 0, 64, 0
2, 51647, Note_on_c, 0, 49, 80
2, 51648, Note_on_c, 0, 61, 80
2, 51648, Note_on_c, 0, 80, 80
2, 51648, Note_on_c, 0, 92, 80
2, 51683, Note_on_c, 0, 92, 0
2, 51683, Note_on_c, 0, 49, 0
2, 51683, Note_on_c, 0, 61, 0
2, 51685, Note_on_c, 0, 80, 0
2, 51747, Note_on_c, 0, 56, 80
2, 51747, Note_on_c, 0, 61, 80
2, 51749, Note_on_c, 0, 65, 80
2, 51749, Note_on_c, 0, 80, 80
2, 51749, Note_on_c, 0, 89, 80
2, 51770, Note_on_c, 0, 61, 0
2, 51770, Note_on_c, 0, 56, 0
2, 51772, Note_on_c, 0, 65, 0
2, 51782, Note_on_c, 0, 80, 0
2, 51782, Note_on_c, 0, 89, 0
2, 51846, Note_on_c, 0, 56, 80
2, 51846, Note_on_c, 0, 61, 80
2, 51846, Note_on_c, 0, 65, 80
2, 51846, Note_on_c, 0, 80, 80
2, 51846, Note_on_c, 0, 92, 80
2, 51867, Note_on_c, 0, 65, 0
2, 51867, Note_on_c, 0, 56, 0
2, 51867, Note_on_c, 0, 61, 0
2, 51877, Note_on_c, 0, 80, 0
2, 51877, Note_on_c, 0, 92, 0
2, 51943, Note_on_c, 0, 48, 80
2, 51943, Note_on_c, 0, 60, 80
2, 51945, Note_on_c, 0, 80, 80
2, 51945, Note_on_c, 0, 89, 80
2, 51978, Note_on_c, 0, 60, 0
2, 51978, Note_on_c, 0, 48, 0
2, 51980, Note_on_c, 0, 80, 0
2, 51980, Note_on_c, 0, 89, 0
2, 52010, Note_on_c, 0, 65, 80
2, 52033, Note_on_c, 0, 65, 0
2, 52041, Note_on_c, 0, 49, 80
2, 52043, Note_on_c, 0, 61, 80
2, 52043, Note_on_c, 0, 89, 80
2, 52043, Note_on_c, 0, 92, 80
2, 52078, Note_on_c, 0, 61, 0
2, 52078, Note_on_c, 0, 49, 0
2, 52080, Note_on_c, 0, 89, 0
2, 52080, Note_on_c, 0, 92, 0
2, 52144, Note_on_c, 0, 56, 80
2, 52144, Note_on_c, 0, 61, 80
2, 52146, Note_on_c, 0, 65, 80
2, 52146, Note_on_c, 0, 89, 80
2, 52148, Note_on_c, 0, 94, 80
2, 52169, Note_on_c, 0, 94, 0
2, 52169, Note_on_c, 0, 65, 0
2, 52169, Note_on_c, 0, 56, 0
2, 52169, Note_on_c, 0, 61, 0
2, 52169, Note_on_c, 0, 89, 0
2, 52213, Note_on_c, 0, 89, 80
2, 52224, Note_on_c, 0, 96, 80
2, 52257, Note_on_c, 0, 46, 80
2, 52259, Note_on_c, 0, 58, 80
2, 52282, Note_on_c, 0, 46, 0
2, 52284, Note_on_c, 0, 58, 0
2, 52284, Note_on_c, 0, 89, 0
2, 52317, Note_on_c, 0, 94, 80
2, 52347, Note_on_c, 0, 47, 80
2, 52347, Note_on_c, 0, 59, 80
2, 52349, Note_on_c, 0, 92, 80
2, 52353, Note_on_c, 0, 96, 0
2, 52382, Note_on_c, 0, 59, 0
2, 52382, Note_on_c, 0, 47, 0
2, 52407, Note_on_c, 0, 94, 0
2, 52407, Note_on_c, 0, 92, 0
2, 52416, Note_on_c, 0, 89, 80
2, 52447, Note_on_c, 0, 48, 80
2, 52449, Note_on_c, 0, 60, 80
2, 52449, Note_on_c, 0, 87, 80
2, 52451, Note_on_c, 0, 89, 0
2, 52457, Control_c, 0, 64, 127
2, 52474, Note_on_c, 0, 87, 0
2, 52484, Note_on_c, 0, 60, 0
2, 52484, Note_on_c, 0, 48, 0
2, 52503, Control_c, 0, 64, 0
2, 52514, Note_on_c, 0, 89, 80
2, 52547, Note_on_c, 0, 56, 80
2, 52547, Note_on_c, 0, 60, 80
2, 52547, Note_on_c, 0, 63, 80
2, 52551, Note_on_c, 0, 89, 0
2, 52570, Note_on_c, 0, 56, 0
2, 52572, Note_on_c, 0, 60, 0
2, 52572, Note_on_c, 0, 63, 0
2, 52612, Note_on_c, 0, 92, 80
2, 52614, Note_on_c, 0, 84, 80
2, 52616, Note_on_c, 0, 96, 80
2, 52645, Note_on_c, 0, 56, 80
2, 52645, Note_on_c, 0, 60, 80
2, 52645, Note_on_c, 0, 63, 80
2, 52668, Note_on_c, 0, 60, 0
2, 52668, Note_on_c, 0, 56, 0
2, 52670, Note_on_c, 0, 63, 0
2, 52738, Note_on_c, 0, 92, 0
2, 52738, Note_on_c, 0, 96, 0
2, 52738, Note_on_c, 0, 84, 0
2, 52742, Note_on_c, 0, 39, 80
2, 52744, Note_on_c, 0, 51, 80
2, 52752, Control_c, 0, 64, 127
2, 52778, Note_on_c, 0, 51, 0
2, 52778, Note_on_c, 0, 39, 0
2, 52796, Control_c, 0, 64, 0
2, 52807, Note_on_c, 0, 41, 80
2, 52809, Note_on_c, 0, 53, 80
2, 52840, Note_on_c, 0, 44, 80
2, 52842, Note_on_c, 0, 56, 80
2, 52844, Note_on_c, 0, 53, 0
2, 52844, Note_on_c, 0, 41, 0
2, 52863, Note_on_c, 0, 44, 0
2, 52865, Note_on_c, 0, 56, 0
2, 52909, Note_on_c, 0, 87, 80
2, 52942, Note_on_c, 0, 56, 80
2, 52944, Note_on_c, 0, 51, 80
2, 52944, Note_on_c, 0, 60, 80
2, 52944, Note_on_c, 0, 80, 80
2, 52944, Note_on_c, 0, 89, 80
2, 52947, Note_on_c, 0, 87, 0
2, 52967, Note_on_c, 0, 60, 0
2, 52967, Note_on_c, 0, 56, 0
2, 52967, Note_on_c, 0, 51, 0
2, 52992, Note_on_c, 0, 80, 0
2, 53005, Note_on_c, 0, 89, 0
2, 53013, Note_on_c, 0, 84, 80
2, 53041, Note_on_c, 0, 39, 80
2, 53043, Note_on_c, 0, 51, 80
2, 53047, Note_on_c, 0, 87, 80
2, 53049, Note_on_c, 0, 84, 0
2, 53068, Note_on_c, 0, 87, 0
2, 53076, Note_on_c, 0, 39, 0
2, 53078, Note_on_c, 0, 51, 0
2, 53111, Note_on_c, 0, 80, 80
2, 53112, Note_on_c, 0, 89, 80
2, 53141, Note_on_c, 0, 45, 80
2, 53141, Note_on_c, 0, 57, 80
2, 53145, Note_on_c, 0, 89, 0
2, 53145, Note_on_c, 0, 80, 0
2, 53176, Note_on_c, 0, 45, 0
2, 53176, Note_on_c, 0, 57, 0
2, 53210, Note_on_c, 0, 84, 80
2, 53241, Note_on_c, 0, 46, 80
2, 53243, Note_on_c, 0, 58, 80
2, 53243, Note_on_c, 0, 87, 80
2, 53245, Note_on_c, 0, 79, 80
2, 53249, Note_on_c, 0, 84, 0
2, 53274, Note_on_c, 0, 46, 0
2, 53276, Note_on_c, 0, 58, 0
2, 53278, Note_on_c, 0, 87, 0
2, 53278, Note_on_c, 0, 79, 0
2, 53340, Note_on_c, 0, 51, 80
2, 53340, Note_on_c, 0, 55, 80
2, 53340, Note_on_c, 0, 61, 80
2, 53342, Note_on_c, 0, 89, 80
2, 53365, Note_on_c, 0, 61, 0
2, 53365, Note_on_c, 0, 51, 0
2, 53365, Note_on_c, 0, 55, 0
2, 53367, Note_on_c, 0, 89, 0
2, 53409, Note_on_c, 0, 82, 80
2, 53409, Note_on_c, 0, 91, 80
2, 53411, Note_on_c, 0, 94, 80
2, 53415, Control_c, 0, 64, 127
2, 53440, Note_on_c, 0, 39, 80
2, 53440, Note_on_c, 0, 51, 80
2, 53459, Control_c, 0, 64, 0
2, 53472, Note_on_c, 0, 39, 0
2, 53474, Note_on_c, 0, 51, 0
2, 53541, Note_on_c, 0, 45, 80
2, 53543, Note_on_c, 0, 57, 80
2, 53546, Note_on_c, 0, 82, 0
2, 53546, Note_on_c, 0, 91, 0
2, 53548, Note_on_c, 0, 94, 0
2, 53602, Note_on_c, 0, 45, 0
2, 53602, Note_on_c, 0, 57, 0
2, 53610, Note_on_c, 0, 48, 80
2, 53610, Note_on_c, 0, 60, 80
2, 53646, Note_on_c, 0, 46, 80
2, 53646, Note_on_c, 0, 58, 80
2, 53648, Note_on_c, 0, 60, 0
2, 53648, Note_on_c, 0, 48, 0
2, 53683, Note_on_c, 0, 46, 0
2, 53685, Note_on_c, 0, 58, 0
2, 53719, Note_on_c, 0, 85, 80
2, 53752, Note_on_c, 0, 51, 80
2, 53752, Note_on_c, 0, 55, 80
2, 53754, Note_on_c, 0, 61, 80
2, 53754, Note_on_c, 0, 79, 80
2, 53756, Note_on_c, 0, 89, 80
2, 53758, Note_on_c, 0, 85, 0
2, 53775, Note_on_c, 0, 51, 0
2, 53777, Note_on_c, 0, 61, 0
2, 53777, Note_on_c, 0, 55, 0
2, 53808, Note_on_c, 0, 89, 0
2, 53808, Note_on_c, 0, 79, 0
2, 53817, Note_on_c, 0, 82, 80
2, 53846, Note_on_c, 0, 39, 80
2, 53848, Note_on_c, 0, 51, 80
2, 53850, Note_on_c, 0, 85, 80
2, 53854, Note_on_c, 0, 82, 0
2, 53875, Note_on_c, 0, 85, 0
2, 53884, Note_on_c, 0, 51, 0
2, 53884, Note_on_c, 0, 39, 0
2, 53919, Note_on_c, 0, 79, 80
2, 53919, Note_on_c, 0, 89, 80
2, 53950, Note_on_c, 0, 43, 80
2, 53950, Note_on_c, 0, 55, 80
2, 53955, Note_on_c, 0, 89, 0
2, 53955, Note_on_c, 0, 79, 0
2, 53984, Note_on_c, 0, 43, 0
2, 53986, Note_on_c, 0, 55, 0
2, 54019, Note_on_c, 0, 80, 80
2, 54019, Note_on_c, 0, 84, 80
2, 54049, Note_on_c, 0, 44, 80
2, 54051, Note_on_c, 0, 56, 80
2, 54055, Note_on_c, 0, 84, 0
2, 54055, Note_on_c, 0, 80, 0
2, 54084, Note_on_c, 0, 44, 0
2, 54086, Note_on_c, 0, 56, 0
2, 54120, Note_on_c, 0, 87, 80
2, 54147, Note_on_c, 0, 51, 80
2, 54149, Note_on_c, 0, 56, 80
2, 54149, Note_on_c, 0, 60, 80
2, 54151, Note_on_c, 0, 80, 80
2, 54151, Note_on_c, 0, 89, 80
2, 54155, Note_on_c, 0, 87, 0
2, 54172, Note_on_c, 0, 60, 0
2, 54172, Note_on_c, 0, 51, 0
2, 54174, Note_on_c, 0, 56, 0
2, 54199, Note_on_c, 0, 89, 0
2, 54199, Note_on_c, 0, 80, 0
2, 54220, Note_on_c, 0, 84, 80
2, 54247, Note_on_c, 0, 39, 80
2, 54253, Note_on_c, 0, 87, 80
2, 54255, Note_on_c, 0, 84, 0
2, 54257, Note_on_c, 0, 51, 80
2, 54276, Note_on_c, 0, 87, 0
2, 54282, Note_on_c, 0, 39, 0
2, 54284, Note_on_c, 0, 51, 0
2, 54318, Note_on_c, 0, 80, 80
2, 54318, Note_on_c, 0, 89, 80
2, 54347, Note_on_c, 0, 51, 80
2, 54347, Note_on_c, 0, 56, 80
2, 54347, Note_on_c, 0, 60, 80
2, 54353, Note_on_c, 0, 89, 0
2, 54353, Note_on_c, 0, 80, 0
2, 54372, Note_on_c, 0, 56, 0
2, 54372, Note_on_c, 0, 51, 0
2, 54374, Note_on_c, 0, 60, 0
2, 54418, Note_on_c, 0, 80, 80
2, 54420, Note_on_c, 0, 84, 80
2, 54449, Note_on_c, 0, 44, 80
2, 54449, Note_on_c, 0, 56, 80
2, 54455, Note_on_c, 0, 84, 0
2, 54455, Note_on_c, 0, 80, 0
2, 54485, Note_on_c, 0, 44, 0
2, 54487, Note_on_c, 0, 56, 0
2, 54520, Note_on_c, 0, 87, 80
2, 54552, Note_on_c, 0, 51, 80
2, 54554, Note_on_c, 0, 56, 80
2, 54554, Note_on_c, 0, 60, 80
2, 54554, Note_on_c, 0, 80, 80
2, 54556, Note_on_c, 0, 89, 80
2, 54558, Note_on_c, 0, 87, 0
2, 54576, Note_on_c, 0, 60, 0
2, 54576, Note_on_c, 0, 51, 0
2, 54576, Note_on_c, 0, 56, 0
2, 54600, Note_on_c, 0, 80, 0
2, 54612, Note_on_c, 0, 89, 0
2, 54620, Note_on_c, 0, 84, 80
2, 54650, Note_on_c, 0, 46, 80
2, 54650, Note_on_c, 0, 58, 80
2, 54654, Note_on_c, 0, 87, 80
2, 54656, Note_on_c, 0, 84, 0
2, 54685, Note_on_c, 0, 46, 0
2, 54685, Note_on_c, 0, 58, 0
2, 54689, Note_on_c, 0, 87, 0
2, 54718, Note_on_c, 0, 80, 80
2, 54718, Note_on_c, 0, 89, 80
2, 54748, Note_on_c, 0, 48, 80
2, 54748, Note_on_c, 0, 60, 80
2, 54754, Note_on_c, 0, 89, 0
2, 54754, Note_on_c, 0, 80, 0
2, 54783, Note_on_c, 0, 48, 0
2, 54783, Note_on_c, 0, 60, 0
2, 54819, Note_on_c, 0, 87, 80
2, 54823, Control_c, 0, 64, 127
2, 54848, Note_on_c, 0, 49, 80
2, 54848, Note_on_c, 0, 61, 80
2, 54850, Note_on_c, 0, 80, 80
2, 54852, Note_on_c, 0, 92, 80
2, 54854, Note_on_c, 0, 87, 0
2, 54881, Note_on_c, 0, 49, 0
2, 54883, Note_on_c, 0, 61, 0
2, 54885, Note_on_c, 0, 80, 0
2, 54887, Note_on_c, 0, 92, 0
2, 54900, Control_c, 0, 64, 0
2, 54946, Note_on_c, 0, 56, 80
2, 54948, Note_on_c, 0, 61, 80
2, 54948, Note_on_c, 0, 65, 80
2, 54950, Note_on_c, 0, 80, 80
2, 54950, Note_on_c, 0, 89, 80
2, 54971, Note_on_c, 0, 65, 0
2, 54971, Note_on_c, 0, 56, 0
2, 54971, Note_on_c, 0, 61, 0
2, 54984, Note_on_c, 0, 80, 0
2, 54984, Note_on_c, 0, 89, 0
2, 55049, Note_on_c, 0, 56, 80
2, 55049, Note_on_c, 0, 61, 80
2, 55051, Note_on_c, 0, 65, 80
2, 55051, Note_on_c, 0, 80, 80
2, 55053, Note_on_c, 0, 92, 80
2, 55072, Note_on_c, 0, 61, 0
2, 55072, Note_on_c, 0, 56, 0
2, 55076, Note_on_c, 0, 65, 0
2, 55089, Note_on_c, 0, 80, 0
2, 55089, Note_on_c, 0, 92, 0
2, 55153, Note_on_c, 0, 48, 80
2, 55153, Note_on_c, 0, 60, 80
2, 55155, Note_on_c, 0, 80, 80
2, 55157, Note_on_c, 0, 89, 80
2, 55192, Note_on_c, 0, 89, 0
2, 55192, Note_on_c, 0, 80, 0
2, 55200, Note_on_c, 0, 60, 0
2, 55200, Note_on_c, 0, 48, 0
2, 55223, Note_on_c, 0, 51, 80
2, 55223, Note_on_c, 0, 63, 80
2, 55253, Note_on_c, 0, 49, 80
2, 55253, Note_on_c, 0, 61, 80
2, 55255, Note_on_c, 0, 63, 0
2, 55255, Note_on_c, 0, 51, 0
2, 55255, Note_on_c, 0, 80, 80
2, 55255, Note_on_c, 0, 89, 80
2, 55257, Note_on_c, 0, 92, 80
2, 55288, Note_on_c, 0, 49, 0
2, 55290, Note_on_c, 0, 61, 0
2, 55292, Note_on_c, 0, 89, 0
2, 55292, Note_on_c, 0, 80, 0
2, 55292, Note_on_c, 0, 92, 0
2, 55356, Note_on_c, 0, 56, 80
2, 55356, Note_on_c, 0, 61, 80
2, 55356, Note_on_c, 0, 65, 80
2, 55358, Note_on_c, 0, 82, 80
2, 55360, Note_on_c, 0, 89, 80
2, 55360, Note_on_c, 0, 94, 80
2, 55379, Note_on_c, 0, 65, 0
2, 55379, Note_on_c, 0, 56, 0
2, 55379, Note_on_c, 0, 61, 0
2, 55381, Note_on_c, 0, 82, 0
2, 55381, Note_on_c, 0, 89, 0
2, 55383, Note_on_c, 0, 94, 0
2, 55423, Note_on_c, 0, 84, 80
2, 55425, Note_on_c, 0, 89, 80
2, 55425, Note_on_c, 0, 96, 80
2, 55454, Note_on_c, 0, 46, 80
2, 55454, Note_on_c, 0, 58, 80
2, 55487, Note_on_c, 0, 46, 0
2, 55488, Note_on_c, 0, 58, 0
2, 55492, Note_on_c, 0, 84, 0
2, 55492, Note_on_c, 0, 89, 0
2, 55492, Note_on_c, 0, 96, 0
2, 55521, Note_on_c, 0, 82, 80
2, 55521, Note_on_c, 0, 94, 80
2, 55546, Note_on_c, 0, 47, 80
2, 55548, Note_on_c, 0, 59, 80
2, 55552, Note_on_c, 0, 80, 80
2, 55554, Note_on_c, 0, 92, 80
2, 55556, Note_on_c, 0, 94, 0
2, 55556, Note_on_c, 0, 82, 0
2, 55602, Note_on_c, 0, 47, 0
2, 55604, Note_on_c, 0, 59, 0
2, 55606, Note_on_c, 0, 80, 0
2, 55608, Note_on_c, 0, 92, 0
2, 55613, Note_on_c, 0, 77, 80
2, 55615, Note_on_c, 0, 89, 80
2, 55644, Note_on_c, 0, 48, 80
2, 55644, Note_on_c, 0, 60, 80
2, 55646, Note_on_c, 0, 80, 80
2, 55646, Note_on_c, 0, 92, 80
2, 55648, Note_on_c, 0, 77, 0
2, 55650, Note_on_c, 0, 89, 0
2, 55677, Note_on_c, 0, 48, 0
2, 55679, Note_on_c, 0, 60, 0
2, 55680, Note_on_c, 0, 80, 0
2, 55680, Note_on_c, 0, 92, 0
2, 55741, Note_on_c, 0, 56, 80
2, 55743, Note_on_c, 0, 60, 80
2, 55745, Note_on_c, 0, 63, 80
2, 55745, Note_on_c, 0, 77, 80
2, 55747, Note_on_c, 0, 89, 80
2, 55768, Note_on_c, 0, 63, 0
2, 55768, Note_on_c, 0, 56, 0
2, 55768, Note_on_c, 0, 60, 0
2, 55804, Note_on_c, 0, 77, 0
2, 55806, Note_on_c, 0, 89, 0
2, 55843, Note_on_c, 0, 56, 80
2, 55843, Note_on_c, 0, 60, 80
2, 55843, Note_on_c, 0, 63, 80
2, 55847, Note_on_c, 0, 75, 80
2, 55848, Note_on_c, 0, 87, 80
2, 55872, Note_on_c, 0, 75, 0
2, 55872, Note_on_c, 0, 63, 0
2, 55872, Note_on_c, 0, 56, 0
2, 55872, Note_on_c, 0, 60, 0
2, 55873, Note_on_c, 0, 87, 0
2, 55918, Note_on_c, 0, 80, 80
2, 55920, Note_on_c, 0, 92, 80
2, 55946, Control_c, 0, 64, 127
2, 55948, Note_on_c, 0, 39, 80
2, 55956, Note_on_c, 0, 92, 0
2, 55956, Note_on_c, 0, 80, 0
2, 55992, Control_c, 0, 64, 0
2, 56008, Note_on_c, 0, 39, 0
2, 56017, Note_on_c, 0, 41, 80
2, 56017, Note_on_c, 0, 53, 80
2, 56019, Note_on_c, 0, 84, 80
2, 56021, Note_on_c, 0, 92, 80
2, 56023, Note_on_c, 0, 96, 80
2, 56050, Note_on_c, 0, 44, 80
2, 56050, Note_on_c, 0, 56, 80
2, 56052, Note_on_c, 0, 41, 0
2, 56054, Note_on_c, 0, 53, 0
2, 56056, Note_on_c, 0, 84, 0
2, 56058, Note_on_c, 0, 96, 0
2, 56058, Note_on_c, 0, 92, 0
2, 56058, Control_c, 0, 64, 127
2, 56073, Control_c, 0, 64, 0
2, 56087, Note_on_c, 0, 44, 0
2, 56088, Note_on_c, 0, 56, 0
2, 56121, Note_on_c, 0, 87, 80
2, 56125, Note_on_c, 0, 99, 80
2, 56154, Note_on_c, 0, 51, 80
2, 56156, Note_on_c, 0, 56, 80
2, 56156, Note_on_c, 0, 60, 80
2, 56158, Note_on_c, 0, 89, 80
2, 56158, Note_on_c, 0, 92, 80
2, 56160, Note_on_c, 0, 87, 0
2, 56160, Note_on_c, 0, 101, 80
2, 56161, Note_on_c, 0, 99, 0
2, 56179, Note_on_c, 0, 56, 0
2, 56179, Note_on_c, 0, 60, 0
2, 56179, Note_on_c, 0, 51, 0
2, 56217, Note_on_c, 0, 92, 0
2, 56217, Note_on_c, 0, 89, 0
2, 56219, Note_on_c, 0, 101, 0
2, 56225, Note_on_c, 0, 84, 80
2, 56236, Note_on_c, 0, 96, 80
2, 56254, Note_on_c, 0, 39, 80
2, 56254, Note_on_c, 0, 51, 80
2, 56257, Note_on_c, 0, 87, 80
2, 56259, Note_on_c, 0, 84, 0
2, 56261, Note_on_c, 0, 96, 0
2, 56271, Note_on_c, 0, 99, 80
2, 56282, Note_on_c, 0, 87, 0
2, 56284, Note_on_c, 0, 99, 0
2, 56288, Note_on_c, 0, 39, 0
2, 56290, Note_on_c, 0, 51, 0
2, 56325, Note_on_c, 0, 89, 80
2, 56327, Note_on_c, 0, 92, 80
2, 56327, Note_on_c, 0, 101, 80
2, 56355, Note_on_c, 0, 51, 80
2, 56355, Note_on_c, 0, 56, 80
2, 56355, Note_on_c, 0, 60, 80
2, 56361, Note_on_c, 0, 101, 0
2, 56361, Note_on_c, 0, 89, 0
2, 56361, Note_on_c, 0, 92, 0
2, 56380, Note_on_c, 0, 51, 0
2, 56380, Note_on_c, 0, 56, 0
2, 56380, Note_on_c, 0, 60, 0
2, 56426, Note_on_c, 0, 80, 80
2, 56428, Note_on_c, 0, 89, 80
2, 56428, Note_on_c, 0, 92, 80
2, 56453, Note_on_c, 0, 37, 80
2, 56455, Note_on_c, 0, 49, 80
2, 56490, Note_on_c, 0, 37, 0
2, 56492, Note_on_c, 0, 49, 0
2, 56517, Note_on_c, 0, 80, 0
2, 56517, Note_on_c, 0, 89, 0
2, 56519, Note_on_c, 0, 92, 0
2, 56526, Note_on_c, 0, 82, 80
2, 56526, Note_on_c, 0, 94, 80
2, 56555, Note_on_c, 0, 37, 80
2, 56557, Note_on_c, 0, 49, 80
2, 56559, Note_on_c, 0, 80, 80
2, 56561, Note_on_c, 0, 89, 80
2, 56561, Note_on_c, 0, 92, 80
2, 56563, Note_on_c, 0, 94, 0
2, 56563, Note_on_c, 0, 82, 0
2, 56588, Note_on_c, 0, 37, 0
2, 56590, Note_on_c, 0, 49, 0
2, 56607, Note_on_c, 0, 92, 0
2, 56607, Note_on_c, 0, 89, 0
2, 56609, Note_on_c, 0, 80, 0
2, 56653, Note_on_c, 0, 34, 80
2, 56655, Note_on_c, 0, 46, 80
2, 56661, Note_on_c, 0, 80, 80
2, 56661, Note_on_c, 0, 88, 80
2, 56663, Note_on_c, 0, 92, 80
2, 56689, Note_on_c, 0, 34, 0
2, 56691, Note_on_c, 0, 46, 0
2, 56695, Note_on_c, 0, 88, 0
2, 56695, Note_on_c, 0, 80, 0
2, 56695, Note_on_c, 0, 92, 0
2, 56756, Note_on_c, 0, 38, 80
2, 56758, Note_on_c, 0, 50, 80
2, 56761, Note_on_c, 0, 82, 80
2, 56761, Note_on_c, 0, 89, 80
2, 56761, Note_on_c, 0, 94, 80
2, 56784, Note_on_c, 0, 94, 0
2, 56784, Note_on_c, 0, 82, 0
2, 56784, Note_on_c, 0, 89, 0
2, 56790, Note_on_c, 0, 38, 0
2, 56792, Note_on_c, 0, 50, 0
2, 56825, Note_on_c, 0, 80, 80
2, 56825, Note_on_c, 0, 87, 80
2, 56829, Control_c, 0, 64, 127
2, 56834, Note_on_c, 0, 92, 80
2, 56854, Note_on_c, 0, 39, 80
2, 56856, Note_on_c, 0, 51, 80
2, 56888, Note_on_c, 0, 39, 0
2, 56890, Note_on_c, 0, 51, 0
2, 56904, Note_on_c, 0, 80, 0
2, 56907, Control_c, 0, 64, 0
2, 56915, Note_on_c, 0, 92, 0
2, 56915, Note_on_c, 0, 87, 0
2, 56923, Note_on_c, 0, 82, 80
2, 56923, Note_on_c, 0, 94, 80
2, 56953, Note_on_c, 0, 51, 80
2, 56953, Note_on_c, 0, 60, 80
2, 56955, Note_on_c, 0, 56, 80
2, 56957, Note_on_c, 0, 84, 80
2, 56957, Note_on_c, 0, 87, 80
2, 56957, Note_on_c, 0, 96, 80
2, 56959, Note_on_c, 0, 82, 0
2, 56961, Note_on_c, 0, 94, 0
2, 56976, Note_on_c, 0, 51, 0
2, 56978, Note_on_c, 0, 60, 0
2, 56978, Note_on_c, 0, 56, 0
2, 57001, Note_on_c, 0, 96, 0
2, 57001, Note_on_c, 0, 87, 0
2, 57001, Note_on_c, 0, 84, 0
2, 57021, Note_on_c, 0, 80, 80
2, 57023, Note_on_c, 0, 92, 80
2, 57049, Note_on_c, 0, 39, 80
2, 57053, Note_on_c, 0, 51, 80
2, 57057, Note_on_c, 0, 82, 80
2, 57057, Note_on_c, 0, 94, 80
2, 57059, Note_on_c, 0, 80, 0
2, 57061, Note_on_c, 0, 92, 0
2, 57080, Note_on_c, 0, 82, 0
2, 57080, Note_on_c, 0, 94, 0
2, 57086, Note_on_c, 0, 39, 0
2, 57088, Note_on_c, 0, 51, 0
2, 57124, Note_on_c, 0, 84, 80
2, 57124, Note_on_c, 0, 87, 80
2, 57124, Note_on_c, 0, 96, 80
2, 57149, Note_on_c, 0, 40, 80
2, 57151, Note_on_c, 0, 52, 80
2, 57159, Note_on_c, 0, 96, 0
2, 57159, Note_on_c, 0, 84, 0
2, 57159, Note_on_c, 0, 87, 0
2, 57186, Note_on_c, 0, 40, 0
2, 57199, Note_on_c, 0, 52, 0
2, 57222, Note_on_c, 0, 80, 80
2, 57222, Note_on_c, 0, 86, 80
2, 57222, Note_on_c, 0, 92, 80
2, 57253, Note_on_c, 0, 41, 80
2, 57255, Note_on_c, 0, 53, 80
2, 57288, Note_on_c, 0, 41, 0
2, 57289, Note_on_c, 0, 53, 0
2, 57291, Note_on_c, 0, 80, 0
2, 57291, Note_on_c, 0, 86, 0
2, 57291, Note_on_c, 0, 92, 0
2, 57328, Note_on_c, 0, 82, 80
2, 57328, Note_on_c, 0, 94, 80
2, 57359, Note_on_c, 0, 41, 80
2, 57359, Note_on_c, 0, 53, 80
2, 57362, Note_on_c, 0, 84, 80
2, 57362, Note_on_c, 0, 96, 80
2, 57364, Note_on_c, 0, 94, 0
2, 57364, Note_on_c, 0, 82, 0
2, 57395, Note_on_c, 0, 41, 0
2, 57397, Note_on_c, 0, 53, 0
2, 57422, Note_on_c, 0, 84, 0
2, 57424, Note_on_c, 0, 96, 0
2, 57432, Note_on_c, 0, 80, 80
2, 57443, Note_on_c, 0, 92, 80
2, 57462, Note_on_c, 0, 43, 80
2, 57464, Note_on_c, 0, 55, 80
2, 57468, Note_on_c, 0, 80, 0
2, 57470, Note_on_c, 0, 92, 0
2, 57499, Note_on_c, 0, 43, 0
2, 57510, Note_on_c, 0, 55, 0
2, 57533, Note_on_c, 0, 82, 80
2, 57533, Note_on_c, 0, 85, 80
2, 57533, Note_on_c, 0, 94, 80
2, 57562, Note_on_c, 0, 43, 80
2, 57564, Note_on_c, 0, 55, 80
2, 57568, Note_on_c, 0, 82, 0
2, 57570, Note_on_c, 0, 85, 0
2, 57570, Note_on_c, 0, 94, 0
2, 57600, Note_on_c, 0, 43, 0
2, 57600, Note_on_c, 0, 55, 0
2, 57633, Note_on_c, 0, 75, 80
2, 57635, Note_on_c, 0, 87, 80
2, 57658, Note_on_c, 0, 75, 0
2, 57664, Note_on_c, 0, 44, 80
2, 57664, Note_on_c, 0, 56, 80
2, 57666, Note_on_c, 0, 80, 80
2, 57668, Note_on_c, 0, 84, 80
2, 57675, Note_on_c, 0, 92, 80
2, 57718, Note_on_c, 0, 56, 0
2, 57718, Note_on_c, 0, 44, 0
2, 57721, Note_on_c, 0, 80, 0
2, 57721, Note_on_c, 0, 87, 0
2, 57721, Note_on_c, 0, 92, 0
2, 57721, Note_on_c, 0, 84, 0
2, 57725, Note_on_c, 0, 41, 80
2, 57727, Note_on_c, 0, 53, 80
2, 57729, Note_on_c, 0, 77, 80
2, 57729, Note_on_c, 0, 89, 80
2, 57756, Note_on_c, 0, 39, 80
2, 57758, Note_on_c, 0, 41, 0
2, 57758, Note_on_c, 0, 51, 80
2, 57758, Note_on_c, 0, 75, 80
2, 57760, Note_on_c, 0, 53, 0
2, 57760, Note_on_c, 0, 87, 80
2, 57762, Note_on_c, 0, 89, 0
2, 57762, Note_on_c, 0, 77, 0
2, 57781, Note_on_c, 0, 75, 0
2, 57781, Note_on_c, 0, 87, 0
2, 57800, Note_on_c, 0, 39, 0
2, 57802, Note_on_c, 0, 51, 0
2, 57819, Note_on_c, 0, 36, 80
2, 57819, Note_on_c, 0, 48, 80
2, 57821, Note_on_c, 0, 92, 80
2, 57823, Note_on_c, 0, 77, 80
2, 57823, Note_on_c, 0, 84, 80
2, 57823, Note_on_c, 0, 87, 80
2, 57850, Note_on_c, 0, 32, 80
2, 57850, Note_on_c, 0, 44, 80
2, 57852, Note_on_c, 0, 36, 0
2, 57854, Note_on_c, 0, 48, 0
2, 57858, Control_c, 0, 64, 127
2, 58048, Note_on_c, 0, 32, 0
2, 58050, Note_on_c, 0, 44, 0
2, 58052, Note_on_c, 0, 84, 0
2, 58052, Note_on_c, 0, 77, 0
2, 58052, Note_on_c, 0, 87, 0
2, 58052, Note_on_c, 0, 92, 0
2, 58104, Control_c, 0, 64, 0
2, 58104, End_track
3, 0, Start_track
3, 0, Title_t, "c/b Scott Joplin"
3, 0, End_track
4, 0, Start_track
4, 0, Title_t, "p/b Scott Joplin"
4, 0, End_track
5, 0, Start_track
5, 0, Title_t, "Connerized # 9725"
5, 0, End_track
6, 0, Start_track
6, 0, Title_t, "Scan of a player piano roll"
6, 0, End_track
7, 0, Start_track
7, 0, Title_t, "by Terry Smythe, Winnipeg, Canada"
7, 0, End_track
8, 0, Start_track
8, 1, Copyright_t, "___________________________________________________\012\012KUNSTDERFUGE.COM LARGE CLASSICAL MIDI COLLECTION\012ONCLASSICAL BY ALESSANDRO SIMONETTO, PROPRIETOR\012___________________________________________________\012\012! Attention: this file is under copyright !\012\012(c)onclassical, (nc)smythe, 2010\012___________________________________________________\012\012NO ONE MAY REPUBLISH THIS FILE WITHOUT PERMISSION\012COMMERCIAL USES OF THIS FILE IS STRICTLY PROHIBITED\012___________________________________________________\012\012Files & contributor's list: http://kunstderfuge.com/\012Terms and conditions: http://kunstderfuge.com/notes.htm"
8, 1, End_track
0, 0, End_of_file
