0, 0, Header, 1, 17, 384
1, 0, Start_track
1, 0, Time_signature, 4, 2, 96, 8
1, 0, Sequencer_specific, 3, 0, 0, 65
1, 0, Tempo, 500000
1, 0, End_track
2, 0, Start_track
2, 0, Title_t, "Scott Joplin's Rag-Time performance"
2, 0, Key_signature, 0, "major"
2, 1476, Note_on_c, 1, 39, 78
2, 1476, Note_on_c, 1, 51, 75
2, 1476, Control_c, 1, 121, 127
2, 1536, Note_off_c, 1, 39, 64
2, 1536, Note_off_c, 1, 51, 64
2, 1692, Note_on_c, 1, 56, 80
2, 1692, Note_on_c, 1, 44, 85
2, 1752, Note_off_c, 1, 44, 64
2, 1756, Note_off_c, 1, 56, 64
2, 1792, Note_on_c, 1, 68, 66
2, 1880, Note_off_c, 1, 68, 64
2, 1880, Note_on_c, 1, 75, 70
2, 1880, Note_on_c, 1, 56, 65
2, 1880, Note_on_c, 1, 51, 60
2, 1888, Note_on_c, 1, 60, 63
2, 1888, Note_on_c, 1, 63, 64
2, 1980, Note_off_c, 1, 56, 64
2, 1980, Note_on_c, 1, 68, 63
2, 1984, Note_off_c, 1, 51, 64
2, 1984, Note_off_c, 1, 60, 64
2, 1984, Note_off_c, 1, 63, 64
2, 2000, Note_off_c, 1, 75, 64
2, 2072, Note_on_c, 1, 72, 66
2, 2076, Note_on_c, 1, 56, 60
2, 2076, Note_on_c, 1, 60, 58
2, 2076, Note_on_c, 1, 51, 53
2, 2084, Note_off_c, 1, 68, 64
2, 2088, Note_off_c, 1, 72, 64
2, 2156, Note_off_c, 1, 56, 64
2, 2160, Note_off_c, 1, 60, 64
2, 2160, Note_off_c, 1, 51, 64
2, 2172, Note_on_c, 1, 75, 69
2, 2172, Note_on_c, 1, 63, 69
2, 2276, Note_on_c, 1, 57, 75
2, 2280, Note_on_c, 1, 45, 93
2, 2288, Note_off_c, 1, 75, 64
2, 2292, Note_off_c, 1, 63, 64
2, 2368, Note_off_c, 1, 57, 64
2, 2372, Note_off_c, 1, 45, 64
2, 2380, Note_on_c, 1, 67, 73
2, 2484, Note_off_c, 1, 67, 64
2, 2484, Note_on_c, 1, 58, 77
2, 2484, Note_on_c, 1, 75, 73
2, 2492, Note_on_c, 1, 46, 96
2, 2492, Note_on_c, 1, 63, 64
2, 2536, Note_off_c, 1, 46, 64
2, 2544, Note_off_c, 1, 58, 64
2, 2596, Note_on_c, 1, 67, 73
2, 2608, Note_off_c, 1, 63, 64
2, 2620, Note_off_c, 1, 75, 64
2, 2692, Note_on_c, 1, 51, 55
2, 2692, Note_on_c, 1, 70, 54
2, 2692, Note_on_c, 1, 61, 54
2, 2692, Note_on_c, 1, 55, 71
2, 2700, Note_off_c, 1, 67, 64
2, 2704, Note_off_c, 1, 70, 64
2, 2788, Note_on_c, 1, 75, 71
2, 2792, Note_on_c, 1, 63, 70
2, 2796, Note_off_c, 1, 51, 64
2, 2800, Note_off_c, 1, 61, 64
2, 2800, Note_off_c, 1, 55, 64
2, 2896, Note_on_c, 1, 61, 59
2, 2896, Note_on_c, 1, 51, 60
2, 2896, Note_on_c, 1, 55, 77
2, 2932, Note_off_c, 1, 61, 64
2, 2948, Note_off_c, 1, 55, 64
2, 2952, Note_off_c, 1, 51, 64
2, 2992, Note_off_c, 1, 63, 64
2, 2996, Note_off_c, 1, 75, 64
2, 3100, Note_on_c, 1, 51, 55
2, 3100, Note_on_c, 1, 39, 54
2, 3128, Note_off_c, 1, 51, 64
2, 3132, Note_off_c, 1, 39, 64
2, 3308, Note_on_c, 1, 44, 61
2, 3308, Note_on_c, 1, 56, 60
2, 3320, Note_off_c, 1, 44, 64
2, 3336, Note_off_c, 1, 56, 64
2, 3388, Note_on_c, 1, 68, 50
2, 3496, Note_off_c, 1, 68, 64
2, 3500, Note_on_c, 1, 56, 48
2, 3500, Note_on_c, 1, 75, 55
2, 3500, Note_on_c, 1, 60, 40
2, 3504, Note_on_c, 1, 51, 53
2, 3504, Note_on_c, 1, 63, 57
2, 3520, Note_off_c, 1, 63, 64
2, 3524, Note_off_c, 1, 75, 64
2, 3596, Note_on_c, 1, 68, 45
2, 3604, Note_off_c, 1, 56, 64
2, 3604, Note_off_c, 1, 60, 64
2, 3612, Note_off_c, 1, 51, 64
2, 3696, Note_on_c, 1, 56, 41
2, 3704, Note_on_c, 1, 60, 39
2, 3704, Note_on_c, 1, 51, 37
2, 3704, Note_on_c, 1, 72, 34
2, 3720, Note_off_c, 1, 68, 64
2, 3720, Note_off_c, 1, 72, 64
2, 3768, Note_off_c, 1, 60, 64
2, 3772, Note_off_c, 1, 51, 64
2, 3776, Note_off_c, 1, 56, 64
2, 3800, Note_on_c, 1, 75, 57
2, 3804, Note_on_c, 1, 63, 51
2, 3892, Note_on_c, 1, 57, 61
2, 3896, Note_on_c, 1, 45, 61
2, 3904, Note_off_c, 1, 63, 64
2, 3912, Note_off_c, 1, 75, 64
2, 3984, Note_off_c, 1, 57, 64
2, 3988, Note_off_c, 1, 45, 64
2, 3996, Note_on_c, 1, 67, 40
2, 4096, Note_on_c, 1, 46, 52
2, 4100, Note_on_c, 1, 58, 43
2, 4100, Note_on_c, 1, 75, 60
2, 4104, Note_off_c, 1, 67, 64
2, 4104, Note_on_c, 1, 63, 54
2, 4148, Note_off_c, 1, 46, 64
2, 4152, Note_off_c, 1, 58, 64
2, 4196, Note_on_c, 1, 67, 40
2, 4212, Note_off_c, 1, 63, 64
2, 4288, Note_on_c, 1, 70, 50
2, 4296, Note_on_c, 1, 51, 57
2, 4300, Note_on_c, 1, 61, 43
2, 4308, Note_off_c, 1, 75, 64
2, 4308, Note_on_c, 1, 55, 39
2, 4316, Note_off_c, 1, 67, 64
2, 4320, Note_off_c, 1, 70, 64
2, 4400, Note_on_c, 1, 75, 56
2, 4404, Note_on_c, 1, 63, 53
2, 4408, Note_off_c, 1, 51, 64
2, 4408, Note_off_c, 1, 55, 64
2, 4412, Note_off_c, 1, 61, 64
2, 4500, Note_on_c, 1, 61, 52
2, 4504, Note_on_c, 1, 51, 57
2, 4504, Note_on_c, 1, 55, 69
2, 4532, Note_off_c, 1, 61, 64
2, 4548, Note_off_c, 1, 55, 64
2, 4568, Note_off_c, 1, 51, 64
2, 4660, Note_off_c, 1, 63, 64
2, 4688, Note_off_c, 1, 75, 64
2, 4704, Note_on_c, 1, 51, 77
2, 4704, Note_on_c, 1, 39, 88
2, 4732, Control_c, 1, 64, 127
2, 4772, Note_off_c, 1, 51, 64
2, 4772, Note_off_c, 1, 39, 64
2, 4816, Control_c, 1, 64, 0
2, 4900, Note_on_c, 1, 40, 93
2, 4900, Note_on_c, 1, 52, 96
2, 5000, Note_on_c, 1, 68, 67
2, 5092, Note_on_c, 1, 71, 70
2, 5100, Note_off_c, 1, 68, 64
2, 5108, Note_off_c, 1, 71, 64
2, 5192, Note_on_c, 1, 76, 88
2, 5196, Note_off_c, 1, 52, 64
2, 5196, Note_on_c, 1, 64, 80
2, 5200, Control_c, 1, 64, 127
2, 5204, Note_off_c, 1, 40, 64
2, 5292, Note_off_c, 1, 76, 64
2, 5296, Note_off_c, 1, 64, 64
2, 5296, Note_on_c, 1, 39, 70
2, 5296, Note_on_c, 1, 51, 70
2, 5300, Control_c, 1, 64, 0
2, 5368, Control_c, 1, 64, 127
2, 5384, Note_off_c, 1, 51, 64
2, 5384, Note_on_c, 1, 75, 64
2, 5392, Note_off_c, 1, 39, 64
2, 5392, Note_on_c, 1, 63, 52
2, 5472, Note_off_c, 1, 63, 64
2, 5484, Note_off_c, 1, 75, 64
2, 5484, Note_on_c, 1, 51, 71
2, 5484, Note_on_c, 1, 39, 73
2, 5508, Control_c, 1, 64, 0
2, 5560, Control_c, 1, 64, 127
2, 5592, Note_on_c, 1, 75, 85
2, 5592, Note_on_c, 1, 63, 73
2, 5596, Note_off_c, 1, 39, 64
2, 5600, Note_off_c, 1, 51, 64
2, 5684, Note_on_c, 1, 52, 83
2, 5684, Note_on_c, 1, 40, 83
2, 5688, Note_off_c, 1, 75, 64
2, 5700, Note_off_c, 1, 63, 64
2, 5700, Control_c, 1, 64, 0
2, 5780, Note_on_c, 1, 68, 65
2, 5868, Control_c, 1, 64, 127
2, 5872, Note_on_c, 1, 71, 66
2, 5884, Note_off_c, 1, 68, 64
2, 5884, Control_c, 1, 64, 0
2, 5900, Note_off_c, 1, 71, 64
2, 5984, Note_off_c, 1, 52, 64
2, 5984, Note_on_c, 1, 76, 90
2, 5984, Note_on_c, 1, 64, 78
2, 5992, Note_off_c, 1, 40, 64
2, 5992, Control_c, 1, 64, 127
2, 6080, Note_on_c, 1, 39, 73
2, 6080, Note_on_c, 1, 51, 73
2, 6084, Note_off_c, 1, 64, 64
2, 6092, Note_off_c, 1, 76, 64
2, 6096, Control_c, 1, 64, 0
2, 6196, Note_on_c, 1, 75, 82
2, 6200, Note_on_c, 1, 63, 77
2, 6204, Note_off_c, 1, 39, 64
2, 6204, Note_off_c, 1, 51, 64
2, 6496, Note_off_c, 1, 63, 64
2, 6500, Note_off_c, 1, 75, 64
2, 6528, Note_on_c, 1, 32, 118
2, 6620, Note_off_c, 1, 32, 64
2, 6628, Note_on_c, 1, 44, 64
2, 6720, Note_off_c, 1, 44, 64
2, 6720, Note_on_c, 1, 47, 67
2, 6776, Note_off_c, 1, 47, 64
2, 6820, Note_on_c, 1, 56, 59
2, 6852, Note_off_c, 1, 56, 64
2, 6916, Note_on_c, 1, 44, 78
2, 6928, Note_off_c, 1, 44, 64
2, 6944, Control_c, 1, 64, 127
2, 7024, Note_on_c, 1, 56, 69
2, 7032, Control_c, 1, 64, 0
2, 7048, Note_off_c, 1, 56, 64
2, 7128, Note_on_c, 1, 59, 75
2, 7132, Note_off_c, 1, 59, 64
2, 7228, Note_on_c, 1, 68, 71
2, 7248, Note_off_c, 1, 68, 64
2, 7248, Control_c, 1, 64, 127
2, 7320, Note_on_c, 1, 56, 59
2, 7340, Control_c, 1, 64, 0
2, 7372, Note_off_c, 1, 56, 64
2, 7420, Note_on_c, 1, 68, 59
2, 7436, Note_off_c, 1, 68, 64
2, 7520, Note_on_c, 1, 71, 71
2, 7528, Note_off_c, 1, 71, 64
2, 7620, Note_on_c, 1, 80, 68
2, 7640, Control_c, 1, 64, 127
2, 7660, Note_off_c, 1, 80, 64
2, 7716, Note_on_c, 1, 68, 56
2, 7736, Note_off_c, 1, 68, 64
2, 7820, Note_on_c, 1, 80, 62
2, 7828, Note_off_c, 1, 80, 64
2, 7916, Note_on_c, 1, 83, 53
2, 7940, Note_off_c, 1, 83, 64
2, 8016, Note_on_c, 1, 92, 66
2, 8068, Note_off_c, 1, 92, 64
2, 8128, Note_on_c, 1, 80, 67
2, 8132, Note_on_c, 1, 92, 63
2, 8140, Note_on_c, 1, 62, 54
2, 8140, Note_on_c, 1, 65, 40
2, 8140, Note_on_c, 1, 71, 41
2, 8144, Note_on_c, 1, 68, 38
2, 8164, Note_off_c, 1, 80, 64
2, 8176, Note_off_c, 1, 92, 64
2, 8192, Note_off_c, 1, 71, 64
2, 8196, Note_off_c, 1, 68, 64
2, 8200, Note_off_c, 1, 62, 64
2, 8200, Note_off_c, 1, 65, 64
2, 8324, Note_on_c, 1, 92, 60
2, 8324, Note_on_c, 1, 80, 62
2, 8324, Note_on_c, 1, 68, 50
2, 8332, Note_on_c, 1, 65, 44
2, 8332, Note_on_c, 1, 62, 50
2, 8332, Note_on_c, 1, 71, 42
2, 8376, Note_off_c, 1, 80, 64
2, 8392, Note_off_c, 1, 92, 64
2, 8396, Note_off_c, 1, 68, 64
2, 8400, Note_off_c, 1, 65, 64
2, 8400, Note_off_c, 1, 62, 64
2, 8400, Note_off_c, 1, 71, 64
2, 8516, Note_on_c, 1, 92, 60
2, 8520, Note_on_c, 1, 80, 59
2, 8524, Note_on_c, 1, 68, 54
2, 8528, Note_on_c, 1, 65, 54
2, 8528, Note_on_c, 1, 71, 54
2, 8528, Note_on_c, 1, 62, 43
2, 8588, Note_off_c, 1, 80, 64
2, 8596, Note_off_c, 1, 92, 64
2, 8692, Note_off_c, 1, 68, 64
2, 8692, Note_off_c, 1, 65, 64
2, 8692, Note_off_c, 1, 71, 64
2, 8692, Note_off_c, 1, 62, 64
2, 8720, Note_on_c, 1, 92, 65
2, 8720, Note_on_c, 1, 71, 66
2, 8720, Note_on_c, 1, 65, 62
2, 8728, Note_on_c, 1, 68, 56
2, 8728, Note_on_c, 1, 62, 61
2, 8728, Note_on_c, 1, 80, 63
2, 8736, Note_off_c, 1, 92, 64
2, 8740, Note_off_c, 1, 80, 64
2, 8812, Note_off_c, 1, 65, 64
2, 8812, Note_off_c, 1, 62, 64
2, 8820, Note_off_c, 1, 71, 64
2, 8820, Note_off_c, 1, 68, 64
2, 8828, Note_on_c, 1, 92, 78
2, 8828, Note_on_c, 1, 80, 80
2, 8916, Note_on_c, 1, 68, 70
2, 8920, Note_on_c, 1, 72, 71
2, 8920, Note_on_c, 1, 63, 60
2, 8924, Control_c, 1, 64, 0
2, 9012, Note_on_c, 1, 87, 65
2, 9020, Control_c, 1, 64, 127
2, 9036, Note_off_c, 1, 92, 64
2, 9040, Note_off_c, 1, 80, 64
2, 9040, Note_off_c, 1, 63, 64
2, 9048, Note_off_c, 1, 68, 64
2, 9048, Note_off_c, 1, 72, 64
2, 9060, Note_off_c, 1, 87, 64
2, 9116, Note_on_c, 1, 80, 61
2, 9116, Note_on_c, 1, 68, 53
2, 9116, Note_on_c, 1, 89, 75
2, 9116, Note_on_c, 1, 72, 54
2, 9124, Note_on_c, 1, 63, 45
2, 9128, Control_c, 1, 64, 0
2, 9216, Note_on_c, 1, 84, 67
2, 9220, Note_off_c, 1, 63, 64
2, 9224, Note_off_c, 1, 68, 64
2, 9224, Control_c, 1, 64, 127
2, 9228, Note_off_c, 1, 72, 64
2, 9236, Note_off_c, 1, 89, 64
2, 9312, Note_on_c, 1, 87, 62
2, 9312, Note_on_c, 1, 68, 65
2, 9316, Note_off_c, 1, 84, 64
2, 9316, Note_on_c, 1, 72, 66
2, 9320, Note_on_c, 1, 63, 50
2, 9324, Note_off_c, 1, 80, 64
2, 9336, Note_off_c, 1, 87, 64
2, 9336, Control_c, 1, 64, 0
2, 9408, Control_c, 1, 64, 127
2, 9412, Note_on_c, 1, 89, 77
2, 9412, Note_on_c, 1, 80, 66
2, 9428, Note_off_c, 1, 68, 64
2, 9428, Note_off_c, 1, 63, 64
2, 9432, Note_off_c, 1, 72, 64
2, 9484, Note_off_c, 1, 89, 64
2, 9488, Note_off_c, 1, 80, 64
2, 9524, Note_on_c, 1, 68, 65
2, 9524, Note_on_c, 1, 72, 66
2, 9528, Note_on_c, 1, 63, 54
2, 9532, Control_c, 1, 64, 0
2, 9612, Note_off_c, 1, 68, 64
2, 9612, Note_off_c, 1, 72, 64
2, 9612, Note_on_c, 1, 80, 78
2, 9616, Note_off_c, 1, 63, 64
2, 9620, Note_on_c, 1, 76, 73
2, 9720, Note_on_c, 1, 64, 61
2, 9720, Note_on_c, 1, 71, 41
2, 9728, Note_on_c, 1, 68, 43
2, 9824, Note_off_c, 1, 80, 64
2, 9824, Note_on_c, 1, 82, 67
2, 9824, Control_c, 1, 64, 127
2, 9828, Note_off_c, 1, 64, 64
2, 9828, Note_off_c, 1, 71, 64
2, 9828, Note_off_c, 1, 68, 64
2, 9836, Note_off_c, 1, 76, 64
2, 9848, Note_off_c, 1, 82, 64
2, 9916, Note_on_c, 1, 64, 61
2, 9916, Note_on_c, 1, 68, 50
2, 9916, Note_on_c, 1, 71, 55
2, 9916, Note_on_c, 1, 83, 80
2, 9916, Note_on_c, 1, 76, 71
2, 9916, Control_c, 1, 64, 0
2, 9976, Note_off_c, 1, 71, 64
2, 9980, Note_off_c, 1, 68, 64
2, 9984, Note_off_c, 1, 64, 64
2, 10012, Note_off_c, 1, 83, 64
2, 10012, Note_on_c, 1, 80, 73
2, 10104, Note_on_c, 1, 82, 66
2, 10116, Note_off_c, 1, 76, 64
2, 10116, Note_off_c, 1, 80, 64
2, 10116, Note_on_c, 1, 72, 54
2, 10120, Note_on_c, 1, 68, 43
2, 10120, Note_on_c, 1, 63, 53
2, 10128, Note_off_c, 1, 82, 64
2, 10216, Note_on_c, 1, 84, 73
2, 10220, Note_off_c, 1, 72, 64
2, 10220, Note_off_c, 1, 68, 64
2, 10220, Note_on_c, 1, 75, 65
2, 10224, Note_off_c, 1, 63, 64
2, 10324, Note_on_c, 1, 72, 69
2, 10324, Note_on_c, 1, 63, 64
2, 10332, Note_on_c, 1, 68, 54
2, 10412, Note_on_c, 1, 80, 73
2, 10416, Note_off_c, 1, 84, 64
2, 10424, Note_off_c, 1, 75, 64
2, 10432, Note_off_c, 1, 72, 64
2, 10436, Note_off_c, 1, 63, 64
2, 10436, Note_off_c, 1, 68, 64
2, 10448, Note_off_c, 1, 80, 64
2, 10464, Control_c, 1, 64, 127
2, 10488, Control_c, 1, 64, 0
2, 10520, Note_on_c, 1, 84, 78
2, 10524, Note_on_c, 1, 63, 59
2, 10524, Note_on_c, 1, 68, 65
2, 10524, Note_on_c, 1, 75, 77
2, 10524, Note_on_c, 1, 72, 68
2, 10584, Control_c, 1, 64, 127
2, 10604, Note_off_c, 1, 72, 64
2, 10608, Note_off_c, 1, 63, 64
2, 10612, Note_off_c, 1, 68, 64
2, 10616, Note_on_c, 1, 80, 73
2, 10620, Note_off_c, 1, 84, 64
2, 10620, Note_off_c, 1, 75, 64
2, 10636, Note_off_c, 1, 80, 64
2, 10636, Control_c, 1, 64, 0
2, 10716, Note_on_c, 1, 82, 80
2, 10724, Note_on_c, 1, 67, 66
2, 10724, Note_on_c, 1, 75, 77
2, 10724, Note_on_c, 1, 73, 61
2, 10728, Note_on_c, 1, 63, 38
2, 10756, Control_c, 1, 64, 127
2, 10772, Note_off_c, 1, 63, 64
2, 10780, Note_off_c, 1, 73, 64
2, 10788, Note_off_c, 1, 67, 64
2, 10796, Note_off_c, 1, 75, 64
2, 10796, Note_off_c, 1, 82, 64
2, 10888, Control_c, 1, 64, 0
2, 10916, Note_on_c, 1, 75, 64
2, 10916, Note_on_c, 1, 80, 69
2, 10920, Note_on_c, 1, 72, 44
2, 10920, Note_on_c, 1, 68, 39
2, 10924, Control_c, 1, 64, 127
2, 10944, Note_off_c, 1, 68, 64
2, 10948, Note_off_c, 1, 75, 64
2, 10948, Note_off_c, 1, 72, 64
2, 10960, Note_off_c, 1, 80, 64
2, 11092, Control_c, 1, 64, 0
2, 11204, Note_on_c, 1, 80, 90
2, 11208, Note_on_c, 1, 68, 85
2, 11324, Control_c, 1, 64, 127
2, 11336, Note_on_c, 1, 59, 42
2, 11336, Note_on_c, 1, 53, 40
2, 11340, Note_on_c, 1, 56, 37
2, 11340, Note_on_c, 1, 50, 36
2, 11364, Note_off_c, 1, 59, 64
2, 11364, Note_off_c, 1, 53, 64
2, 11364, Note_off_c, 1, 56, 64
2, 11364, Note_off_c, 1, 50, 64
2, 11440, Note_off_c, 1, 68, 64
2, 11452, Note_off_c, 1, 80, 64
2, 11524, Note_on_c, 1, 80, 66
2, 11528, Note_on_c, 1, 68, 60
2, 11532, Note_on_c, 1, 56, 38
2, 11532, Note_on_c, 1, 50, 40
2, 11536, Note_on_c, 1, 53, 38
2, 11544, Note_on_c, 1, 59, 35
2, 11584, Note_off_c, 1, 56, 64
2, 11584, Note_off_c, 1, 50, 64
2, 11584, Note_off_c, 1, 53, 64
2, 11584, Note_off_c, 1, 59, 64
2, 11600, Note_off_c, 1, 68, 64
2, 11612, Note_off_c, 1, 80, 64
2, 11724, Note_on_c, 1, 80, 70
2, 11724, Note_on_c, 1, 56, 50
2, 11728, Note_on_c, 1, 68, 65
2, 11732, Note_on_c, 1, 53, 40
2, 11732, Note_on_c, 1, 50, 38
2, 11732, Note_on_c, 1, 59, 39
2, 11768, Note_off_c, 1, 56, 64
2, 11772, Note_off_c, 1, 53, 64
2, 11772, Note_off_c, 1, 50, 64
2, 11772, Note_off_c, 1, 59, 64
2, 11816, Note_off_c, 1, 80, 64
2, 11816, Note_off_c, 1, 68, 64
2, 11916, Note_on_c, 1, 56, 50
2, 11916, Note_on_c, 1, 50, 41
2, 11920, Note_on_c, 1, 53, 40
2, 11920, Note_on_c, 1, 80, 68
2, 11924, Note_on_c, 1, 59, 39
2, 11924, Note_on_c, 1, 68, 60
2, 11928, Note_off_c, 1, 80, 64
2, 11936, Note_off_c, 1, 68, 64
2, 11952, Note_off_c, 1, 50, 64
2, 11956, Note_off_c, 1, 56, 64
2, 11956, Note_off_c, 1, 53, 64
2, 11956, Note_off_c, 1, 59, 64
2, 12008, Control_c, 1, 64, 0
2, 12016, Note_on_c, 1, 80, 77
2, 12020, Note_on_c, 1, 68, 83
2, 12120, Note_on_c, 1, 56, 61
2, 12120, Note_on_c, 1, 51, 62
2, 12124, Note_on_c, 1, 60, 70
2, 12216, Note_on_c, 1, 75, 66
2, 12220, Control_c, 1, 64, 127
2, 12236, Note_off_c, 1, 80, 64
2, 12236, Note_off_c, 1, 56, 64
2, 12236, Note_off_c, 1, 51, 64
2, 12240, Note_off_c, 1, 68, 64
2, 12240, Note_off_c, 1, 60, 64
2, 12244, Note_off_c, 1, 75, 64
2, 12316, Note_on_c, 1, 77, 80
2, 12324, Note_on_c, 1, 68, 60
2, 12328, Note_on_c, 1, 56, 54
2, 12328, Note_on_c, 1, 60, 41
2, 12328, Control_c, 1, 64, 0
2, 12332, Note_on_c, 1, 51, 37
2, 12388, Note_off_c, 1, 51, 64
2, 12404, Note_off_c, 1, 56, 64
2, 12404, Note_off_c, 1, 60, 64
2, 12424, Note_on_c, 1, 72, 69
2, 12440, Note_off_c, 1, 77, 64
2, 12444, Note_off_c, 1, 68, 64
2, 12520, Note_on_c, 1, 75, 66
2, 12524, Note_off_c, 1, 72, 64
2, 12528, Note_on_c, 1, 56, 51
2, 12528, Note_on_c, 1, 60, 40
2, 12528, Note_on_c, 1, 51, 33
2, 12536, Note_off_c, 1, 75, 64
2, 12612, Note_off_c, 1, 56, 64
2, 12616, Note_off_c, 1, 60, 64
2, 12616, Note_off_c, 1, 51, 64
2, 12616, Note_on_c, 1, 68, 58
2, 12616, Note_on_c, 1, 77, 70
2, 12620, Control_c, 1, 64, 127
2, 12680, Note_off_c, 1, 68, 64
2, 12688, Note_off_c, 1, 77, 64
2, 12708, Note_on_c, 1, 56, 55
2, 12712, Note_on_c, 1, 60, 45
2, 12712, Note_on_c, 1, 51, 46
2, 12728, Control_c, 1, 64, 0
2, 12768, Note_off_c, 1, 56, 64
2, 12780, Note_off_c, 1, 60, 64
2, 12784, Note_off_c, 1, 51, 64
2, 12812, Note_on_c, 1, 68, 68
2, 12816, Note_on_c, 1, 64, 73
2, 12916, Note_on_c, 1, 56, 54
2, 12920, Note_on_c, 1, 52, 63
2, 12920, Note_on_c, 1, 59, 41
2, 13012, Note_on_c, 1, 70, 66
2, 13016, Control_c, 1, 64, 127
2, 13028, Note_off_c, 1, 68, 64
2, 13032, Note_off_c, 1, 56, 64
2, 13032, Note_off_c, 1, 52, 64
2, 13032, Note_off_c, 1, 59, 64
2, 13040, Note_off_c, 1, 64, 64
2, 13040, Note_off_c, 1, 70, 64
2, 13108, Note_on_c, 1, 52, 60
2, 13116, Note_on_c, 1, 56, 51
2, 13120, Note_on_c, 1, 71, 73
2, 13120, Note_on_c, 1, 64, 69
2, 13120, Note_on_c, 1, 59, 50
2, 13120, Control_c, 1, 64, 0
2, 13176, Note_off_c, 1, 56, 64
2, 13196, Note_off_c, 1, 52, 64
2, 13200, Note_off_c, 1, 59, 64
2, 13216, Note_on_c, 1, 68, 73
2, 13220, Note_off_c, 1, 71, 64
2, 13312, Note_on_c, 1, 70, 70
2, 13312, Note_on_c, 1, 51, 54
2, 13316, Note_off_c, 1, 64, 64
2, 13316, Note_off_c, 1, 68, 64
2, 13316, Note_on_c, 1, 60, 42
2, 13316, Note_on_c, 1, 56, 52
2, 13328, Note_off_c, 1, 70, 64
2, 13416, Note_off_c, 1, 56, 64
2, 13416, Note_on_c, 1, 72, 71
2, 13416, Note_on_c, 1, 63, 63
2, 13420, Note_off_c, 1, 51, 64
2, 13424, Note_off_c, 1, 60, 64
2, 13524, Note_on_c, 1, 51, 66
2, 13524, Note_on_c, 1, 60, 66
2, 13524, Note_on_c, 1, 56, 56
2, 13616, Note_off_c, 1, 72, 64
2, 13616, Note_on_c, 1, 68, 70
2, 13620, Note_off_c, 1, 63, 64
2, 13624, Note_off_c, 1, 51, 64
2, 13624, Note_off_c, 1, 56, 64
2, 13632, Note_off_c, 1, 60, 64
2, 13664, Note_off_c, 1, 68, 64
2, 13712, Note_on_c, 1, 72, 81
2, 13716, Note_on_c, 1, 51, 64
2, 13716, Note_on_c, 1, 60, 69
2, 13716, Note_on_c, 1, 56, 64
2, 13716, Note_on_c, 1, 63, 64
2, 13768, Note_off_c, 1, 60, 64
2, 13772, Note_off_c, 1, 51, 64
2, 13776, Note_off_c, 1, 56, 64
2, 13812, Note_on_c, 1, 68, 73
2, 13824, Note_off_c, 1, 72, 64
2, 13824, Note_off_c, 1, 63, 64
2, 13828, Note_off_c, 1, 68, 64
2, 13912, Note_on_c, 1, 70, 71
2, 13912, Note_on_c, 1, 55, 70
2, 13912, Note_on_c, 1, 63, 68
2, 13916, Note_on_c, 1, 61, 54
2, 13916, Note_on_c, 1, 51, 54
2, 13928, Note_off_c, 1, 63, 64
2, 13940, Note_off_c, 1, 70, 64
2, 13944, Note_off_c, 1, 51, 64
2, 13948, Note_off_c, 1, 55, 64
2, 13948, Note_off_c, 1, 61, 64
2, 14104, Note_on_c, 1, 68, 57
2, 14108, Note_on_c, 1, 56, 51
2, 14116, Note_on_c, 1, 60, 40
2, 14120, Note_on_c, 1, 63, 38
2, 14136, Note_off_c, 1, 63, 64
2, 14140, Note_off_c, 1, 60, 64
2, 14148, Note_off_c, 1, 68, 64
2, 14148, Note_off_c, 1, 56, 64
2, 14316, Note_on_c, 1, 51, 100
2, 14320, Note_on_c, 1, 39, 108
2, 14344, Note_off_c, 1, 51, 64
2, 14352, Note_off_c, 1, 39, 64
2, 14528, Note_on_c, 1, 56, 80
2, 14536, Note_on_c, 1, 44, 108
2, 14612, Note_off_c, 1, 56, 64
2, 14612, Note_off_c, 1, 44, 64
2, 14636, Note_on_c, 1, 68, 71
2, 14676, Note_off_c, 1, 68, 64
2, 14732, Note_on_c, 1, 51, 59
2, 14732, Note_on_c, 1, 56, 54
2, 14736, Note_on_c, 1, 75, 68
2, 14736, Note_on_c, 1, 63, 66
2, 14740, Note_on_c, 1, 60, 44
2, 14824, Note_off_c, 1, 56, 64
2, 14824, Note_on_c, 1, 68, 69
2, 14828, Note_off_c, 1, 51, 64
2, 14832, Note_off_c, 1, 60, 64
2, 14836, Note_off_c, 1, 75, 64
2, 14848, Note_off_c, 1, 63, 64
2, 14916, Note_on_c, 1, 72, 77
2, 14916, Note_on_c, 1, 51, 60
2, 14920, Note_off_c, 1, 68, 64
2, 14928, Note_on_c, 1, 56, 66
2, 14928, Note_on_c, 1, 60, 63
2, 14932, Note_off_c, 1, 72, 64
2, 15000, Note_off_c, 1, 60, 64
2, 15004, Note_off_c, 1, 56, 64
2, 15008, Note_off_c, 1, 51, 64
2, 15012, Note_on_c, 1, 75, 69
2, 15020, Note_on_c, 1, 63, 69
2, 15120, Note_on_c, 1, 57, 85
2, 15124, Note_on_c, 1, 45, 108
2, 15132, Note_off_c, 1, 63, 64
2, 15144, Note_off_c, 1, 75, 64
2, 15184, Note_off_c, 1, 57, 64
2, 15184, Note_off_c, 1, 45, 64
2, 15220, Note_on_c, 1, 67, 78
2, 15316, Note_off_c, 1, 67, 64
2, 15328, Note_on_c, 1, 75, 68
2, 15328, Note_on_c, 1, 58, 96
2, 15332, Note_on_c, 1, 46, 93
2, 15332, Note_on_c, 1, 63, 63
2, 15344, Note_off_c, 1, 46, 64
2, 15368, Note_off_c, 1, 58, 64
2, 15428, Note_off_c, 1, 63, 64
2, 15432, Note_on_c, 1, 67, 71
2, 15460, Note_off_c, 1, 75, 64
2, 15524, Note_on_c, 1, 70, 54
2, 15532, Note_on_c, 1, 55, 73
2, 15532, Note_on_c, 1, 61, 55
2, 15536, Note_off_c, 1, 67, 64
2, 15540, Note_on_c, 1, 51, 55
2, 15548, Note_off_c, 1, 70, 64
2, 15632, Note_off_c, 1, 55, 64
2, 15636, Note_off_c, 1, 61, 64
2, 15636, Note_off_c, 1, 51, 64
2, 15636, Note_on_c, 1, 75, 70
2, 15640, Note_on_c, 1, 63, 71
2, 15732, Note_on_c, 1, 61, 58
2, 15732, Note_on_c, 1, 51, 56
2, 15736, Note_on_c, 1, 55, 71
2, 15760, Note_off_c, 1, 61, 64
2, 15760, Note_off_c, 1, 55, 64
2, 15772, Note_off_c, 1, 51, 64
2, 15828, Note_off_c, 1, 63, 64
2, 15840, Note_off_c, 1, 75, 64
2, 15936, Note_on_c, 1, 39, 54
2, 15940, Note_on_c, 1, 51, 54
2, 15956, Note_off_c, 1, 39, 64
2, 15964, Note_off_c, 1, 51, 64
2, 16040, Control_c, 1, 64, 127
2, 16144, Note_on_c, 1, 44, 39
2, 16144, Note_on_c, 1, 56, 39
2, 16172, Note_off_c, 1, 44, 64
2, 16176, Note_off_c, 1, 56, 64
2, 16240, Note_on_c, 1, 68, 33
2, 16280, Control_c, 1, 64, 0
2, 16336, Note_off_c, 1, 68, 64
2, 16340, Note_on_c, 1, 51, 38
2, 16344, Note_on_c, 1, 75, 59
2, 16344, Note_on_c, 1, 63, 50
2, 16344, Note_on_c, 1, 56, 37
2, 16348, Note_on_c, 1, 60, 36
2, 16436, Note_off_c, 1, 63, 64
2, 16436, Note_on_c, 1, 68, 49
2, 16440, Note_off_c, 1, 56, 64
2, 16448, Note_off_c, 1, 51, 64
2, 16452, Note_off_c, 1, 60, 64
2, 16480, Note_off_c, 1, 75, 64
2, 16524, Note_on_c, 1, 72, 64
2, 16536, Note_on_c, 1, 56, 49
2, 16540, Note_on_c, 1, 51, 52
2, 16544, Note_off_c, 1, 68, 64
2, 16544, Note_on_c, 1, 60, 40
2, 16548, Note_off_c, 1, 72, 64
2, 16636, Note_off_c, 1, 60, 64
2, 16644, Note_off_c, 1, 56, 64
2, 16644, Note_off_c, 1, 51, 64
2, 16644, Note_on_c, 1, 75, 69
2, 16644, Note_on_c, 1, 63, 65
2, 16736, Note_on_c, 1, 45, 65
2, 16744, Note_on_c, 1, 57, 51
2, 16756, Control_c, 1, 64, 127
2, 16776, Note_off_c, 1, 57, 64
2, 16780, Note_off_c, 1, 45, 64
2, 16836, Note_on_c, 1, 67, 67
2, 16848, Note_off_c, 1, 63, 64
2, 16868, Note_off_c, 1, 75, 64
2, 16884, Note_off_c, 1, 67, 64
2, 16924, Control_c, 1, 64, 0
2, 16940, Note_on_c, 1, 46, 59
2, 16944, Note_on_c, 1, 58, 53
2, 16948, Note_on_c, 1, 75, 64
2, 16948, Note_on_c, 1, 63, 57
2, 16984, Note_off_c, 1, 46, 64
2, 16996, Note_off_c, 1, 58, 64
2, 17036, Note_on_c, 1, 67, 63
2, 17044, Note_off_c, 1, 63, 64
2, 17136, Note_on_c, 1, 70, 53
2, 17144, Note_on_c, 1, 51, 58
2, 17144, Note_on_c, 1, 55, 65
2, 17148, Note_off_c, 1, 75, 64
2, 17148, Note_off_c, 1, 67, 64
2, 17148, Note_on_c, 1, 61, 43
2, 17156, Note_off_c, 1, 70, 64
2, 17244, Note_on_c, 1, 75, 66
2, 17244, Note_on_c, 1, 63, 59
2, 17248, Note_off_c, 1, 51, 64
2, 17252, Note_off_c, 1, 55, 64
2, 17252, Note_off_c, 1, 61, 64
2, 17352, Note_on_c, 1, 51, 57
2, 17352, Note_on_c, 1, 55, 70
2, 17352, Note_on_c, 1, 61, 50
2, 17364, Control_c, 1, 64, 127
2, 17380, Note_off_c, 1, 61, 64
2, 17384, Note_off_c, 1, 55, 64
2, 17396, Note_off_c, 1, 51, 64
2, 17488, Control_c, 1, 64, 0
2, 17496, Note_off_c, 1, 63, 64
2, 17504, Note_off_c, 1, 75, 64
2, 17556, Note_on_c, 1, 51, 88
2, 17556, Note_on_c, 1, 39, 96
2, 17556, Control_c, 1, 64, 127
2, 17648, Note_off_c, 1, 51, 64
2, 17648, Note_off_c, 1, 39, 64
2, 17756, Note_on_c, 1, 40, 93
2, 17756, Note_on_c, 1, 52, 100
2, 17760, Control_c, 1, 64, 0
2, 17864, Note_on_c, 1, 68, 68
2, 17960, Note_off_c, 1, 68, 64
2, 17960, Note_on_c, 1, 71, 65
2, 17972, Note_off_c, 1, 71, 64
2, 18052, Note_on_c, 1, 76, 80
2, 18056, Note_on_c, 1, 64, 78
2, 18056, Control_c, 1, 64, 127
2, 18060, Note_off_c, 1, 52, 64
2, 18072, Note_off_c, 1, 40, 64
2, 18148, Control_c, 1, 64, 0
2, 18152, Note_off_c, 1, 76, 64
2, 18152, Note_off_c, 1, 64, 64
2, 18152, Note_on_c, 1, 39, 67
2, 18152, Note_on_c, 1, 51, 66
2, 18248, Note_on_c, 1, 75, 70
2, 18256, Note_off_c, 1, 39, 64
2, 18256, Note_off_c, 1, 51, 64
2, 18256, Note_on_c, 1, 63, 60
2, 18336, Note_off_c, 1, 63, 64
2, 18340, Note_off_c, 1, 75, 64
2, 18340, Note_on_c, 1, 51, 66
2, 18348, Note_on_c, 1, 39, 69
2, 18348, Control_c, 1, 64, 127
2, 18372, Note_off_c, 1, 51, 64
2, 18380, Note_off_c, 1, 39, 64
2, 18440, Note_on_c, 1, 75, 70
2, 18444, Note_on_c, 1, 63, 73
2, 18536, Note_off_c, 1, 63, 64
2, 18540, Note_off_c, 1, 75, 64
2, 18548, Note_on_c, 1, 52, 88
2, 18548, Note_on_c, 1, 40, 85
2, 18556, Control_c, 1, 64, 0
2, 18656, Note_on_c, 1, 68, 64
2, 18752, Note_on_c, 1, 71, 65
2, 18756, Note_off_c, 1, 68, 64
2, 18788, Note_off_c, 1, 71, 64
2, 18868, Note_off_c, 1, 52, 64
2, 18872, Note_on_c, 1, 76, 75
2, 18872, Note_on_c, 1, 64, 61
2, 18880, Note_off_c, 1, 40, 64
2, 18880, Control_c, 1, 64, 127
2, 18960, Note_off_c, 1, 64, 64
2, 18964, Note_on_c, 1, 39, 47
2, 18964, Note_on_c, 1, 51, 54
2, 18972, Note_off_c, 1, 76, 64
2, 18996, Control_c, 1, 64, 0
2, 19116, Note_on_c, 1, 75, 52
2, 19116, Note_on_c, 1, 63, 52
2, 19212, Control_c, 1, 64, 127
2, 19224, Note_off_c, 1, 51, 64
2, 19252, Note_off_c, 1, 75, 64
2, 19252, Note_off_c, 1, 63, 64
2, 19260, Note_off_c, 1, 39, 64
2, 19424, Note_on_c, 1, 32, 122
2, 19444, Note_off_c, 1, 32, 64
2, 19448, Control_c, 1, 64, 127
2, 19476, Control_c, 1, 64, 0
2, 19528, Note_on_c, 1, 44, 71
2, 19540, Note_off_c, 1, 44, 64
2, 19624, Note_on_c, 1, 47, 85
2, 19628, Control_c, 1, 64, 0
2, 19632, Note_off_c, 1, 47, 64
2, 19724, Note_on_c, 1, 56, 80
2, 19764, Note_off_c, 1, 56, 64
2, 19816, Note_on_c, 1, 44, 109
2, 19828, Note_off_c, 1, 44, 64
2, 19920, Note_on_c, 1, 56, 71
2, 20012, Note_off_c, 1, 56, 64
2, 20016, Note_on_c, 1, 59, 85
2, 20016, Note_off_c, 1, 59, 64
2, 20104, Note_on_c, 1, 68, 73
2, 20108, Control_c, 1, 64, 127
2, 20148, Note_off_c, 1, 68, 64
2, 20208, Note_on_c, 1, 56, 98
2, 20216, Note_off_c, 1, 56, 64
2, 20312, Note_on_c, 1, 68, 68
2, 20320, Control_c, 1, 64, 0
2, 20412, Note_off_c, 1, 68, 64
2, 20416, Note_on_c, 1, 71, 85
2, 20420, Note_off_c, 1, 71, 64
2, 20528, Note_on_c, 1, 80, 67
2, 20528, Control_c, 1, 64, 127
2, 20560, Note_off_c, 1, 80, 64
2, 20612, Note_on_c, 1, 68, 73
2, 20628, Note_off_c, 1, 68, 64
2, 20720, Note_on_c, 1, 80, 66
2, 20736, Note_off_c, 1, 80, 64
2, 20820, Note_on_c, 1, 83, 78
2, 20836, Note_off_c, 1, 83, 64
2, 20924, Note_on_c, 1, 92, 73
2, 20948, Note_off_c, 1, 92, 64
2, 21024, Note_on_c, 1, 92, 66
2, 21024, Note_on_c, 1, 65, 55
2, 21028, Note_on_c, 1, 80, 63
2, 21028, Note_on_c, 1, 68, 54
2, 21028, Note_on_c, 1, 71, 42
2, 21032, Note_on_c, 1, 62, 38
2, 21080, Note_off_c, 1, 80, 64
2, 21092, Note_off_c, 1, 92, 64
2, 21120, Note_off_c, 1, 68, 64
2, 21120, Note_off_c, 1, 71, 64
2, 21124, Note_off_c, 1, 65, 64
2, 21132, Note_off_c, 1, 62, 64
2, 21224, Note_on_c, 1, 92, 68
2, 21224, Note_on_c, 1, 80, 67
2, 21224, Note_on_c, 1, 68, 41
2, 21228, Note_on_c, 1, 65, 41
2, 21228, Note_on_c, 1, 62, 37
2, 21232, Note_on_c, 1, 71, 39
2, 21292, Note_off_c, 1, 80, 64
2, 21300, Note_off_c, 1, 92, 64
2, 21312, Note_off_c, 1, 62, 64
2, 21320, Note_off_c, 1, 68, 64
2, 21320, Note_off_c, 1, 71, 64
2, 21324, Note_off_c, 1, 65, 64
2, 21412, Note_on_c, 1, 92, 65
2, 21416, Note_on_c, 1, 80, 67
2, 21416, Note_on_c, 1, 68, 54
2, 21420, Note_on_c, 1, 65, 57
2, 21420, Note_on_c, 1, 71, 44
2, 21420, Note_on_c, 1, 62, 42
2, 21504, Note_off_c, 1, 68, 64
2, 21504, Note_off_c, 1, 71, 64
2, 21508, Note_off_c, 1, 62, 64
2, 21512, Note_off_c, 1, 65, 64
2, 21512, Note_off_c, 1, 80, 64
2, 21516, Note_off_c, 1, 92, 64
2, 21608, Note_on_c, 1, 68, 54
2, 21616, Note_on_c, 1, 71, 41
2, 21616, Note_on_c, 1, 92, 59
2, 21616, Note_on_c, 1, 65, 39
2, 21616, Note_on_c, 1, 80, 64
2, 21616, Note_on_c, 1, 62, 37
2, 21628, Note_off_c, 1, 92, 64
2, 21632, Note_off_c, 1, 80, 64
2, 21680, Note_off_c, 1, 71, 64
2, 21684, Note_off_c, 1, 62, 64
2, 21688, Note_off_c, 1, 68, 64
2, 21688, Note_off_c, 1, 65, 64
2, 21708, Control_c, 1, 64, 0
2, 21716, Note_on_c, 1, 92, 85
2, 21720, Note_on_c, 1, 80, 83
2, 21812, Note_on_c, 1, 72, 63
2, 21816, Note_on_c, 1, 68, 56
2, 21816, Note_on_c, 1, 63, 44
2, 21904, Note_on_c, 1, 87, 60
2, 21916, Control_c, 1, 64, 127
2, 21932, Note_off_c, 1, 92, 64
2, 21936, Note_off_c, 1, 80, 64
2, 21936, Note_off_c, 1, 72, 64
2, 21936, Note_off_c, 1, 68, 64
2, 21936, Note_off_c, 1, 63, 64
2, 21976, Note_off_c, 1, 87, 64
2, 22016, Note_on_c, 1, 89, 77
2, 22016, Note_on_c, 1, 80, 60
2, 22016, Note_on_c, 1, 68, 40
2, 22016, Note_on_c, 1, 72, 43
2, 22016, Note_on_c, 1, 63, 37
2, 22016, Control_c, 1, 64, 0
2, 22108, Note_on_c, 1, 84, 61
2, 22112, Note_off_c, 1, 63, 64
2, 22116, Note_off_c, 1, 68, 64
2, 22116, Note_off_c, 1, 72, 64
2, 22152, Note_off_c, 1, 80, 64
2, 22176, Note_off_c, 1, 89, 64
2, 22204, Note_on_c, 1, 87, 63
2, 22212, Note_on_c, 1, 68, 37
2, 22212, Note_on_c, 1, 72, 40
2, 22216, Note_on_c, 1, 63, 34
2, 22224, Note_off_c, 1, 84, 64
2, 22228, Note_off_c, 1, 87, 64
2, 22300, Note_on_c, 1, 89, 64
2, 22300, Control_c, 1, 64, 127
2, 22312, Note_on_c, 1, 80, 64
2, 22316, Note_off_c, 1, 68, 64
2, 22316, Note_off_c, 1, 63, 64
2, 22320, Note_off_c, 1, 72, 64
2, 22348, Note_off_c, 1, 89, 64
2, 22352, Note_off_c, 1, 80, 64
2, 22400, Control_c, 1, 64, 0
2, 22408, Note_on_c, 1, 68, 60
2, 22408, Note_on_c, 1, 72, 53
2, 22408, Note_on_c, 1, 63, 39
2, 22500, Note_off_c, 1, 72, 64
2, 22504, Note_off_c, 1, 68, 64
2, 22508, Note_off_c, 1, 63, 64
2, 22512, Note_on_c, 1, 80, 85
2, 22512, Note_on_c, 1, 76, 88
2, 22604, Note_on_c, 1, 68, 60
2, 22604, Note_on_c, 1, 64, 68
2, 22604, Note_on_c, 1, 71, 66
2, 22696, Note_off_c, 1, 80, 64
2, 22696, Note_on_c, 1, 82, 70
2, 22712, Note_off_c, 1, 76, 64
2, 22712, Control_c, 1, 64, 127
2, 22716, Note_off_c, 1, 82, 64
2, 22760, Note_off_c, 1, 68, 64
2, 22760, Note_off_c, 1, 64, 64
2, 22760, Note_off_c, 1, 71, 64
2, 22804, Note_on_c, 1, 83, 83
2, 22804, Note_on_c, 1, 64, 64
2, 22808, Note_on_c, 1, 76, 68
2, 22808, Note_on_c, 1, 68, 54
2, 22808, Note_on_c, 1, 71, 59
2, 22808, Control_c, 1, 64, 0
2, 22840, Note_off_c, 1, 83, 64
2, 22856, Note_off_c, 1, 76, 64
2, 22896, Note_on_c, 1, 80, 78
2, 22900, Note_off_c, 1, 64, 64
2, 22904, Note_off_c, 1, 68, 64
2, 22904, Note_off_c, 1, 71, 64
2, 22904, Control_c, 1, 64, 127
2, 22988, Note_on_c, 1, 82, 77
2, 22996, Note_off_c, 1, 80, 64
2, 22996, Note_on_c, 1, 63, 43
2, 23000, Note_on_c, 1, 72, 55
2, 23000, Note_on_c, 1, 68, 44
2, 23000, Control_c, 1, 64, 0
2, 23004, Note_off_c, 1, 82, 64
2, 23104, Note_on_c, 1, 84, 75
2, 23104, Note_on_c, 1, 75, 70
2, 23108, Note_off_c, 1, 63, 64
2, 23108, Note_off_c, 1, 68, 64
2, 23112, Note_off_c, 1, 72, 64
2, 23112, Control_c, 1, 64, 127
2, 23196, Control_c, 1, 64, 0
2, 23204, Note_on_c, 1, 63, 63
2, 23208, Note_on_c, 1, 72, 66
2, 23208, Note_on_c, 1, 68, 67
2, 23300, Note_on_c, 1, 80, 78
2, 23304, Note_off_c, 1, 84, 64
2, 23304, Note_off_c, 1, 75, 64
2, 23320, Note_off_c, 1, 80, 64
2, 23336, Note_off_c, 1, 63, 64
2, 23336, Note_off_c, 1, 72, 64
2, 23336, Note_off_c, 1, 68, 64
2, 23396, Note_on_c, 1, 84, 73
2, 23404, Note_on_c, 1, 75, 70
2, 23408, Note_on_c, 1, 63, 64
2, 23408, Note_on_c, 1, 72, 71
2, 23408, Note_on_c, 1, 68, 61
2, 23448, Note_off_c, 1, 63, 64
2, 23452, Note_off_c, 1, 72, 64
2, 23452, Note_off_c, 1, 68, 64
2, 23500, Note_on_c, 1, 80, 77
2, 23504, Note_off_c, 1, 84, 64
2, 23508, Note_off_c, 1, 75, 64
2, 23516, Note_off_c, 1, 80, 64
2, 23608, Note_on_c, 1, 82, 77
2, 23608, Note_on_c, 1, 73, 43
2, 23608, Note_on_c, 1, 67, 56
2, 23612, Note_on_c, 1, 75, 58
2, 23620, Note_on_c, 1, 63, 49
2, 23624, Note_off_c, 1, 82, 64
2, 23636, Note_off_c, 1, 75, 64
2, 23652, Note_off_c, 1, 73, 64
2, 23652, Note_off_c, 1, 63, 64
2, 23656, Note_off_c, 1, 67, 64
2, 23804, Note_on_c, 1, 80, 54
2, 23808, Note_on_c, 1, 75, 54
2, 23808, Note_on_c, 1, 72, 47
2, 23808, Note_on_c, 1, 68, 42
2, 23824, Note_off_c, 1, 80, 64
2, 23836, Note_off_c, 1, 75, 64
2, 23836, Note_off_c, 1, 72, 64
2, 23836, Note_off_c, 1, 68, 64
2, 24096, Note_on_c, 1, 80, 112
2, 24096, Note_on_c, 1, 68, 100
2, 24196, Note_on_c, 1, 50, 96
2, 24196, Note_on_c, 1, 59, 100
2, 24196, Note_on_c, 1, 53, 108
2, 24196, Note_on_c, 1, 56, 88
2, 24200, Control_c, 1, 64, 127
2, 24264, Note_off_c, 1, 59, 64
2, 24284, Note_off_c, 1, 50, 64
2, 24284, Note_off_c, 1, 53, 64
2, 24288, Note_off_c, 1, 56, 64
2, 24292, Note_off_c, 1, 80, 64
2, 24296, Note_off_c, 1, 68, 64
2, 24400, Note_on_c, 1, 80, 83
2, 24400, Note_on_c, 1, 68, 77
2, 24400, Note_on_c, 1, 50, 67
2, 24408, Note_on_c, 1, 56, 61
2, 24408, Note_on_c, 1, 53, 69
2, 24408, Note_on_c, 1, 59, 60
2, 24408, Control_c, 1, 64, 0
2, 24424, Control_c, 1, 64, 127
2, 24472, Note_off_c, 1, 50, 64
2, 24472, Note_off_c, 1, 59, 64
2, 24476, Note_off_c, 1, 56, 64
2, 24480, Note_off_c, 1, 53, 64
2, 24512, Note_off_c, 1, 68, 64
2, 24516, Note_off_c, 1, 80, 64
2, 24600, Note_on_c, 1, 80, 85
2, 24604, Note_on_c, 1, 56, 56
2, 24604, Note_on_c, 1, 68, 78
2, 24604, Note_on_c, 1, 53, 65
2, 24604, Note_on_c, 1, 50, 60
2, 24608, Note_on_c, 1, 59, 55
2, 24648, Note_off_c, 1, 56, 64
2, 24648, Note_off_c, 1, 53, 64
2, 24648, Note_off_c, 1, 50, 64
2, 24648, Note_off_c, 1, 59, 64
2, 24688, Note_off_c, 1, 68, 64
2, 24696, Note_off_c, 1, 80, 64
2, 24784, Note_on_c, 1, 56, 48
2, 24788, Note_on_c, 1, 50, 61
2, 24788, Note_on_c, 1, 53, 52
2, 24788, Note_on_c, 1, 59, 41
2, 24792, Note_on_c, 1, 80, 69
2, 24800, Note_on_c, 1, 68, 66
2, 24804, Note_off_c, 1, 50, 64
2, 24804, Note_off_c, 1, 68, 64
2, 24808, Note_off_c, 1, 53, 64
2, 24808, Note_off_c, 1, 80, 64
2, 24812, Note_off_c, 1, 56, 64
2, 24816, Note_off_c, 1, 59, 64
2, 24880, Control_c, 1, 64, 0
2, 24896, Note_on_c, 1, 80, 104
2, 24896, Note_on_c, 1, 68, 90
2, 24992, Note_on_c, 1, 60, 78
2, 24992, Note_on_c, 1, 56, 66
2, 24996, Note_on_c, 1, 51, 70
2, 25084, Note_on_c, 1, 75, 73
2, 25088, Control_c, 1, 64, 127
2, 25100, Note_off_c, 1, 80, 0
2, 25100, Note_off_c, 1, 68, 0
2, 25116, Note_off_c, 1, 75, 64
2, 25144, Note_off_c, 1, 60, 64
2, 25148, Note_off_c, 1, 56, 64
2, 25148, Note_off_c, 1, 51, 64
2, 25192, Note_on_c, 1, 77, 88
2, 25196, Note_on_c, 1, 68, 67
2, 25200, Note_on_c, 1, 60, 64
2, 25200, Note_on_c, 1, 56, 60
2, 25200, Note_on_c, 1, 51, 52
2, 25200, Control_c, 1, 64, 0
2, 25288, Note_off_c, 1, 68, 64
2, 25292, Note_on_c, 1, 72, 78
2, 25300, Note_off_c, 1, 56, 64
2, 25304, Note_off_c, 1, 60, 64
2, 25304, Note_off_c, 1, 51, 64
2, 25304, Control_c, 1, 64, 127
2, 25328, Note_off_c, 1, 77, 64
2, 25384, Note_on_c, 1, 51, 60
2, 25388, Note_on_c, 1, 56, 55
2, 25392, Note_on_c, 1, 75, 73
2, 25392, Control_c, 1, 64, 0
2, 25396, Note_off_c, 1, 72, 64
2, 25396, Note_on_c, 1, 60, 54
2, 25412, Note_off_c, 1, 75, 64
2, 25480, Control_c, 1, 64, 127
2, 25496, Note_off_c, 1, 51, 64
2, 25496, Note_on_c, 1, 77, 78
2, 25500, Note_off_c, 1, 56, 64
2, 25500, Note_on_c, 1, 68, 68
2, 25504, Note_off_c, 1, 60, 64
2, 25508, Note_off_c, 1, 77, 64
2, 25512, Note_off_c, 1, 68, 64
2, 25596, Note_on_c, 1, 51, 53
2, 25600, Note_on_c, 1, 56, 59
2, 25600, Note_on_c, 1, 60, 62
2, 25600, Control_c, 1, 64, 0
2, 25656, Note_off_c, 1, 56, 64
2, 25680, Note_off_c, 1, 60, 64
2, 25684, Note_off_c, 1, 51, 64
2, 25692, Note_on_c, 1, 68, 83
2, 25696, Note_on_c, 1, 64, 88
2, 25784, Note_on_c, 1, 52, 70
2, 25788, Note_on_c, 1, 59, 67
2, 25788, Note_on_c, 1, 56, 64
2, 25880, Note_off_c, 1, 68, 64
2, 25888, Note_on_c, 1, 70, 66
2, 25888, Control_c, 1, 64, 127
2, 25896, Note_off_c, 1, 64, 64
2, 25900, Note_off_c, 1, 52, 64
2, 25900, Note_off_c, 1, 59, 64
2, 25904, Note_off_c, 1, 56, 64
2, 25904, Note_off_c, 1, 70, 64
2, 25992, Note_on_c, 1, 52, 63
2, 25992, Control_c, 1, 64, 0
2, 25996, Note_on_c, 1, 71, 80
2, 25996, Note_on_c, 1, 56, 48
2, 25996, Note_on_c, 1, 64, 75
2, 26004, Note_on_c, 1, 59, 46
2, 26048, Note_off_c, 1, 56, 64
2, 26048, Note_off_c, 1, 59, 64
2, 26080, Note_off_c, 1, 52, 64
2, 26088, Note_off_c, 1, 71, 64
2, 26088, Note_on_c, 1, 68, 68
2, 26180, Note_on_c, 1, 70, 66
2, 26188, Note_off_c, 1, 68, 64
2, 26192, Note_off_c, 1, 64, 64
2, 26192, Note_on_c, 1, 51, 52
2, 26196, Note_on_c, 1, 60, 50
2, 26200, Note_off_c, 1, 70, 64
2, 26200, Note_on_c, 1, 56, 37
2, 26288, Note_off_c, 1, 51, 0
2, 26288, Note_off_c, 1, 60, 0
2, 26288, Note_off_c, 1, 56, 0
2, 26288, Note_on_c, 1, 72, 71
2, 26288, Note_on_c, 1, 63, 58
2, 26396, Note_on_c, 1, 51, 56
2, 26396, Note_on_c, 1, 60, 54
2, 26396, Note_on_c, 1, 56, 54
2, 26412, Note_off_c, 1, 72, 64
2, 26416, Note_off_c, 1, 63, 64
2, 26500, Note_on_c, 1, 68, 66
2, 26504, Note_off_c, 1, 51, 64
2, 26508, Note_off_c, 1, 60, 64
2, 26508, Note_off_c, 1, 56, 64
2, 26516, Note_off_c, 1, 68, 64
2, 26596, Note_on_c, 1, 51, 57
2, 26596, Note_on_c, 1, 72, 73
2, 26596, Note_on_c, 1, 60, 61
2, 26600, Note_on_c, 1, 63, 61
2, 26600, Note_on_c, 1, 56, 56
2, 26624, Note_off_c, 1, 51, 64
2, 26624, Note_off_c, 1, 60, 64
2, 26624, Note_off_c, 1, 56, 64
2, 26692, Note_on_c, 1, 68, 61
2, 26704, Note_off_c, 1, 72, 64
2, 26704, Note_off_c, 1, 63, 64
2, 26708, Note_off_c, 1, 68, 64
2, 26808, Note_on_c, 1, 51, 56
2, 26808, Note_on_c, 1, 61, 50
2, 26808, Note_on_c, 1, 70, 70
2, 26808, Note_on_c, 1, 55, 64
2, 26808, Note_on_c, 1, 63, 61
2, 26840, Note_off_c, 1, 70, 64
2, 26844, Note_off_c, 1, 51, 64
2, 26848, Note_off_c, 1, 55, 64
2, 26848, Note_off_c, 1, 63, 64
2, 26856, Note_off_c, 1, 61, 64
2, 27016, Note_on_c, 1, 60, 40
2, 27020, Note_on_c, 1, 56, 37
2, 27020, Note_on_c, 1, 68, 64
2, 27020, Control_c, 1, 64, 127
2, 27024, Note_on_c, 1, 63, 49
2, 27032, Note_off_c, 1, 68, 64
2, 27032, Note_off_c, 1, 63, 64
2, 27044, Note_off_c, 1, 60, 64
2, 27048, Note_off_c, 1, 56, 64
2, 27112, Control_c, 1, 64, 0
2, 27240, Note_on_c, 1, 57, 99
2, 27240, Note_on_c, 1, 45, 93
2, 27452, Note_off_c, 1, 57, 64
2, 27472, Note_on_c, 1, 46, 86
2, 27476, Note_on_c, 1, 58, 83
2, 27516, Note_off_c, 1, 46, 64
2, 27528, Note_off_c, 1, 58, 64
2, 27536, Note_off_c, 1, 45, 64
2, 27544, Note_on_c, 1, 79, 66
2, 27656, Note_off_c, 1, 79, 64
2, 27668, Note_on_c, 1, 55, 66
2, 27668, Note_on_c, 1, 61, 55
2, 27668, Note_on_c, 1, 51, 54
2, 27676, Note_on_c, 1, 87, 67
2, 27680, Note_on_c, 1, 75, 73
2, 27684, Note_off_c, 1, 55, 64
2, 27688, Note_off_c, 1, 61, 64
2, 27688, Note_off_c, 1, 51, 64
2, 27768, Note_on_c, 1, 79, 78
2, 27784, Note_off_c, 1, 75, 64
2, 27792, Note_off_c, 1, 87, 64
2, 27860, Note_on_c, 1, 39, 65
2, 27864, Note_on_c, 1, 51, 60
2, 27864, Note_on_c, 1, 82, 70
2, 27872, Note_off_c, 1, 79, 64
2, 27872, Note_off_c, 1, 39, 64
2, 27876, Note_off_c, 1, 51, 64
2, 27888, Note_off_c, 1, 82, 64
2, 27960, Note_on_c, 1, 86, 78
2, 27968, Note_on_c, 1, 74, 57
2, 28060, Note_on_c, 1, 61, 55
2, 28060, Note_on_c, 1, 51, 54
2, 28068, Note_on_c, 1, 55, 75
2, 28080, Note_off_c, 1, 61, 64
2, 28084, Note_off_c, 1, 51, 64
2, 28084, Note_off_c, 1, 55, 64
2, 28168, Note_off_c, 1, 86, 64
2, 28168, Note_off_c, 1, 74, 64
2, 28168, Note_on_c, 1, 79, 68
2, 28180, Note_off_c, 1, 79, 64
2, 28264, Note_on_c, 1, 46, 67
2, 28268, Note_on_c, 1, 58, 60
2, 28268, Note_on_c, 1, 85, 66
2, 28276, Note_on_c, 1, 73, 65
2, 28280, Note_off_c, 1, 46, 64
2, 28284, Note_off_c, 1, 58, 64
2, 28372, Note_on_c, 1, 79, 73
2, 28396, Note_off_c, 1, 85, 64
2, 28400, Note_off_c, 1, 73, 64
2, 28468, Note_on_c, 1, 82, 69
2, 28468, Note_on_c, 1, 51, 56
2, 28468, Note_on_c, 1, 55, 68
2, 28468, Note_on_c, 1, 61, 56
2, 28472, Note_off_c, 1, 79, 64
2, 28476, Note_off_c, 1, 55, 64
2, 28480, Note_off_c, 1, 61, 64
2, 28488, Note_off_c, 1, 82, 64
2, 28488, Note_off_c, 1, 51, 64
2, 28568, Note_on_c, 1, 84, 78
2, 28572, Note_on_c, 1, 72, 61
2, 28664, Note_on_c, 1, 51, 70
2, 28672, Note_on_c, 1, 39, 67
2, 28676, Control_c, 1, 64, 127
2, 28680, Note_off_c, 1, 51, 64
2, 28680, Note_off_c, 1, 39, 64
2, 28764, Note_off_c, 1, 84, 64
2, 28764, Note_off_c, 1, 72, 64
2, 28768, Note_on_c, 1, 75, 66
2, 28860, Note_off_c, 1, 75, 0
2, 28864, Note_on_c, 1, 55, 69
2, 28864, Note_on_c, 1, 43, 69
2, 28868, Note_on_c, 1, 82, 78
2, 28868, Note_on_c, 1, 70, 78
2, 28872, Control_c, 1, 64, 0
2, 28884, Control_c, 1, 64, 127
2, 28928, Note_off_c, 1, 55, 64
2, 28940, Note_off_c, 1, 43, 64
2, 28964, Note_on_c, 1, 75, 68
2, 29008, Note_off_c, 1, 75, 64
2, 29020, Note_off_c, 1, 82, 64
2, 29024, Note_off_c, 1, 70, 64
2, 29064, Note_on_c, 1, 56, 80
2, 29068, Note_on_c, 1, 44, 78
2, 29076, Control_c, 1, 64, 0
2, 29112, Note_off_c, 1, 56, 64
2, 29112, Note_off_c, 1, 44, 64
2, 29172, Note_on_c, 1, 75, 65
2, 29268, Note_on_c, 1, 56, 58
2, 29272, Note_on_c, 1, 80, 70
2, 29272, Note_on_c, 1, 51, 57
2, 29272, Note_on_c, 1, 68, 70
2, 29272, Note_on_c, 1, 60, 54
2, 29280, Note_off_c, 1, 75, 64
2, 29288, Note_off_c, 1, 56, 64
2, 29288, Note_off_c, 1, 51, 64
2, 29288, Note_off_c, 1, 60, 64
2, 29364, Note_on_c, 1, 72, 65
2, 29388, Note_off_c, 1, 68, 64
2, 29396, Note_off_c, 1, 80, 64
2, 29464, Note_on_c, 1, 75, 60
2, 29464, Note_on_c, 1, 39, 59
2, 29464, Note_on_c, 1, 51, 57
2, 29476, Note_off_c, 1, 72, 64
2, 29480, Note_off_c, 1, 75, 64
2, 29480, Note_off_c, 1, 39, 64
2, 29480, Note_off_c, 1, 51, 64
2, 29564, Note_on_c, 1, 77, 80
2, 29568, Note_on_c, 1, 65, 66
2, 29680, Note_on_c, 1, 60, 62
2, 29680, Note_on_c, 1, 56, 62
2, 29680, Note_on_c, 1, 51, 46
2, 29680, Control_c, 1, 64, 127
2, 29688, Note_off_c, 1, 65, 64
2, 29692, Note_off_c, 1, 60, 64
2, 29692, Note_off_c, 1, 56, 64
2, 29692, Note_off_c, 1, 51, 64
2, 29696, Note_off_c, 1, 77, 64
2, 29776, Note_on_c, 1, 72, 70
2, 29792, Note_off_c, 1, 72, 64
2, 29816, Control_c, 1, 64, 0
2, 29876, Note_on_c, 1, 44, 65
2, 29884, Note_on_c, 1, 56, 61
2, 29884, Note_on_c, 1, 80, 77
2, 29884, Note_on_c, 1, 68, 71
2, 29888, Control_c, 1, 64, 127
2, 29892, Note_off_c, 1, 44, 64
2, 29896, Note_off_c, 1, 56, 64
2, 29980, Note_on_c, 1, 72, 73
2, 29988, Note_off_c, 1, 80, 64
2, 30004, Note_off_c, 1, 68, 64
2, 30072, Note_on_c, 1, 75, 60
2, 30072, Control_c, 1, 64, 0
2, 30076, Note_on_c, 1, 60, 49
2, 30080, Note_off_c, 1, 72, 64
2, 30080, Note_on_c, 1, 56, 52
2, 30080, Note_on_c, 1, 51, 43
2, 30104, Note_off_c, 1, 60, 64
2, 30108, Note_off_c, 1, 75, 64
2, 30108, Note_off_c, 1, 56, 64
2, 30112, Note_off_c, 1, 51, 64
2, 30168, Note_on_c, 1, 77, 80
2, 30172, Note_on_c, 1, 65, 68
2, 30280, Note_on_c, 1, 56, 73
2, 30280, Note_on_c, 1, 44, 70
2, 30308, Note_off_c, 1, 77, 64
2, 30308, Note_off_c, 1, 65, 64
2, 30368, Note_on_c, 1, 72, 77
2, 30372, Control_c, 1, 64, 127
2, 30392, Note_off_c, 1, 56, 64
2, 30392, Note_off_c, 1, 44, 64
2, 30404, Note_off_c, 1, 72, 64
2, 30468, Control_c, 1, 64, 0
2, 30472, Note_on_c, 1, 45, 87
2, 30472, Note_on_c, 1, 57, 80
2, 30476, Note_on_c, 1, 77, 85
2, 30476, Note_on_c, 1, 65, 71
2, 30548, Control_c, 1, 64, 127
2, 30576, Note_off_c, 1, 57, 64
2, 30588, Note_off_c, 1, 45, 64
2, 30596, Control_c, 1, 64, 0
2, 30656, Note_off_c, 1, 77, 64
2, 30656, Note_off_c, 1, 65, 64
2, 30672, Note_on_c, 1, 58, 77
2, 30676, Note_on_c, 1, 46, 77
2, 30748, Note_off_c, 1, 46, 64
2, 30760, Note_off_c, 1, 58, 64
2, 30772, Note_on_c, 1, 75, 64
2, 30792, Note_off_c, 1, 75, 64
2, 30872, Note_on_c, 1, 51, 55
2, 30876, Note_on_c, 1, 61, 43
2, 30876, Note_on_c, 1, 55, 64
2, 30876, Note_on_c, 1, 79, 93
2, 30884, Note_on_c, 1, 67, 75
2, 30896, Note_off_c, 1, 61, 64
2, 30900, Note_off_c, 1, 51, 64
2, 30900, Note_off_c, 1, 55, 64
2, 30904, Control_c, 1, 64, 127
2, 30968, Note_off_c, 1, 79, 64
2, 30968, Note_on_c, 1, 70, 56
2, 30984, Note_off_c, 1, 67, 64
2, 30984, Control_c, 1, 64, 0
2, 31068, Note_on_c, 1, 73, 59
2, 31076, Note_on_c, 1, 39, 60
2, 31076, Note_on_c, 1, 51, 56
2, 31080, Note_off_c, 1, 70, 64
2, 31084, Note_off_c, 1, 73, 64
2, 31100, Note_off_c, 1, 39, 64
2, 31104, Note_off_c, 1, 51, 64
2, 31172, Note_on_c, 1, 77, 85
2, 31172, Note_on_c, 1, 65, 73
2, 31276, Note_on_c, 1, 51, 66
2, 31276, Note_on_c, 1, 61, 59
2, 31280, Note_on_c, 1, 55, 75
2, 31292, Note_off_c, 1, 55, 64
2, 31292, Control_c, 1, 64, 127
2, 31308, Note_off_c, 1, 61, 64
2, 31312, Note_off_c, 1, 51, 64
2, 31328, Control_c, 1, 64, 0
2, 31372, Note_on_c, 1, 73, 69
2, 31376, Note_off_c, 1, 77, 64
2, 31380, Note_off_c, 1, 65, 64
2, 31388, Note_off_c, 1, 73, 64
2, 31476, Note_on_c, 1, 46, 69
2, 31480, Note_on_c, 1, 79, 93
2, 31488, Note_on_c, 1, 67, 78
2, 31488, Note_on_c, 1, 58, 57
2, 31488, Control_c, 1, 64, 127
2, 31500, Note_off_c, 1, 46, 64
2, 31500, Note_off_c, 1, 58, 64
2, 31580, Note_off_c, 1, 79, 64
2, 31580, Note_on_c, 1, 70, 56
2, 31580, Control_c, 1, 64, 0
2, 31620, Note_off_c, 1, 67, 64
2, 31672, Note_on_c, 1, 51, 52
2, 31676, Note_on_c, 1, 55, 63
2, 31676, Note_on_c, 1, 61, 49
2, 31676, Note_on_c, 1, 73, 61
2, 31688, Note_off_c, 1, 70, 64
2, 31696, Note_off_c, 1, 51, 64
2, 31700, Note_off_c, 1, 55, 64
2, 31700, Note_off_c, 1, 61, 64
2, 31700, Note_off_c, 1, 73, 64
2, 31768, Note_on_c, 1, 77, 78
2, 31772, Note_on_c, 1, 65, 71
2, 31868, Note_on_c, 1, 46, 75
2, 31872, Note_on_c, 1, 58, 70
2, 31960, Note_off_c, 1, 77, 64
2, 31960, Note_off_c, 1, 65, 64
2, 31972, Note_on_c, 1, 73, 70
2, 31976, Note_off_c, 1, 46, 64
2, 31976, Note_off_c, 1, 58, 64
2, 31984, Control_c, 1, 64, 127
2, 32012, Note_off_c, 1, 73, 64
2, 32012, Control_c, 1, 64, 0
2, 32056, Note_on_c, 1, 47, 78
2, 32064, Note_on_c, 1, 59, 70
2, 32072, Note_on_c, 1, 77, 80
2, 32072, Note_on_c, 1, 65, 66
2, 32100, Control_c, 1, 64, 127
2, 32136, Note_off_c, 1, 47, 64
2, 32148, Note_off_c, 1, 59, 64
2, 32220, Note_off_c, 1, 65, 64
2, 32240, Note_off_c, 1, 77, 64
2, 32264, Note_on_c, 1, 48, 75
2, 32272, Note_on_c, 1, 60, 71
2, 32272, Control_c, 1, 64, 0
2, 32368, Control_c, 1, 64, 127
2, 32376, Note_off_c, 1, 48, 64
2, 32376, Note_off_c, 1, 60, 64
2, 32376, Note_on_c, 1, 75, 70
2, 32384, Note_off_c, 1, 75, 64
2, 32480, Note_on_c, 1, 60, 55
2, 32480, Note_on_c, 1, 51, 53
2, 32488, Note_on_c, 1, 80, 78
2, 32488, Note_on_c, 1, 56, 51
2, 32488, Note_on_c, 1, 68, 78
2, 32492, Control_c, 1, 64, 0
2, 32504, Note_off_c, 1, 60, 64
2, 32508, Note_off_c, 1, 56, 64
2, 32520, Note_off_c, 1, 51, 64
2, 32580, Note_off_c, 1, 68, 64
2, 32580, Note_on_c, 1, 72, 67
2, 32660, Note_off_c, 1, 80, 64
2, 32672, Note_on_c, 1, 75, 65
2, 32676, Note_on_c, 1, 39, 60
2, 32680, Note_on_c, 1, 51, 57
2, 32684, Note_off_c, 1, 72, 64
2, 32692, Note_off_c, 1, 75, 0
2, 32748, Note_off_c, 1, 39, 0
2, 32756, Note_off_c, 1, 51, 0
2, 32772, Note_on_c, 1, 77, 80
2, 32776, Note_on_c, 1, 65, 69
2, 32776, Control_c, 1, 64, 127
2, 32868, Control_c, 1, 64, 0
2, 32876, Note_on_c, 1, 51, 65
2, 32880, Note_off_c, 1, 65, 64
2, 32884, Note_on_c, 1, 60, 66
2, 32884, Note_on_c, 1, 56, 63
2, 32892, Note_off_c, 1, 77, 64
2, 32972, Note_on_c, 1, 75, 78
2, 32972, Control_c, 1, 64, 127
2, 32980, Note_off_c, 1, 60, 64
2, 32980, Note_off_c, 1, 56, 64
2, 32984, Note_off_c, 1, 51, 64
2, 32988, Note_off_c, 1, 75, 64
2, 33052, Control_c, 1, 64, 0
2, 33076, Note_on_c, 1, 80, 73
2, 33076, Note_on_c, 1, 68, 77
2, 33076, Note_on_c, 1, 44, 73
2, 33080, Note_on_c, 1, 56, 60
2, 33084, Control_c, 1, 64, 127
2, 33124, Note_off_c, 1, 44, 64
2, 33132, Note_off_c, 1, 56, 64
2, 33168, Note_on_c, 1, 72, 78
2, 33172, Note_off_c, 1, 68, 64
2, 33204, Note_off_c, 1, 80, 64
2, 33268, Note_on_c, 1, 75, 67
2, 33268, Note_on_c, 1, 51, 60
2, 33268, Control_c, 1, 64, 0
2, 33276, Note_off_c, 1, 72, 64
2, 33276, Note_on_c, 1, 60, 69
2, 33276, Note_on_c, 1, 56, 64
2, 33280, Note_off_c, 1, 75, 64
2, 33372, Note_off_c, 1, 60, 64
2, 33372, Note_off_c, 1, 56, 64
2, 33372, Note_on_c, 1, 77, 77
2, 33376, Note_on_c, 1, 65, 78
2, 33376, Control_c, 1, 64, 127
2, 33380, Note_off_c, 1, 51, 64
2, 33460, Control_c, 1, 64, 0
2, 33464, Note_off_c, 1, 77, 64
2, 33468, Note_off_c, 1, 65, 64
2, 33472, Note_on_c, 1, 56, 77
2, 33472, Note_on_c, 1, 44, 83
2, 33568, Note_on_c, 1, 72, 71
2, 33576, Control_c, 1, 64, 127
2, 33596, Note_off_c, 1, 56, 64
2, 33596, Note_off_c, 1, 72, 64
2, 33600, Note_off_c, 1, 44, 64
2, 33672, Control_c, 1, 64, 0
2, 33676, Note_on_c, 1, 45, 83
2, 33680, Note_on_c, 1, 57, 78
2, 33680, Note_on_c, 1, 77, 83
2, 33680, Note_on_c, 1, 65, 68
2, 33760, Note_off_c, 1, 57, 64
2, 33768, Note_off_c, 1, 45, 64
2, 33768, Control_c, 1, 64, 127
2, 33780, Note_off_c, 1, 65, 64
2, 33808, Note_off_c, 1, 77, 64
2, 33868, Control_c, 1, 64, 0
2, 33884, Note_on_c, 1, 46, 68
2, 33888, Note_on_c, 1, 58, 70
2, 33896, Note_off_c, 1, 46, 64
2, 33904, Note_off_c, 1, 58, 64
2, 33980, Note_on_c, 1, 79, 58
2, 33996, Note_off_c, 1, 79, 64
2, 34076, Note_on_c, 1, 61, 53
2, 34080, Note_on_c, 1, 55, 60
2, 34080, Note_on_c, 1, 51, 51
2, 34088, Note_on_c, 1, 87, 71
2, 34088, Note_on_c, 1, 75, 78
2, 34092, Note_off_c, 1, 61, 64
2, 34096, Note_off_c, 1, 55, 64
2, 34096, Note_off_c, 1, 51, 64
2, 34172, Note_on_c, 1, 79, 71
2, 34192, Note_off_c, 1, 75, 64
2, 34216, Note_off_c, 1, 87, 64
2, 34272, Note_on_c, 1, 39, 54
2, 34276, Note_on_c, 1, 82, 66
2, 34288, Note_off_c, 1, 79, 64
2, 34288, Note_off_c, 1, 39, 64
2, 34296, Note_off_c, 1, 82, 64
2, 34380, Note_on_c, 1, 86, 83
2, 34380, Note_on_c, 1, 74, 73
2, 34480, Note_on_c, 1, 61, 54
2, 34484, Note_on_c, 1, 51, 64
2, 34484, Note_on_c, 1, 55, 69
2, 34492, Note_off_c, 1, 51, 64
2, 34496, Note_off_c, 1, 61, 64
2, 34496, Note_off_c, 1, 55, 64
2, 34572, Note_on_c, 1, 79, 75
2, 34576, Note_off_c, 1, 86, 64
2, 34580, Note_off_c, 1, 74, 64
2, 34592, Note_off_c, 1, 79, 64
2, 34672, Note_on_c, 1, 85, 64
2, 34676, Note_on_c, 1, 46, 66
2, 34680, Note_on_c, 1, 73, 80
2, 34680, Note_on_c, 1, 58, 60
2, 34688, Note_off_c, 1, 46, 64
2, 34700, Note_off_c, 1, 58, 64
2, 34776, Note_on_c, 1, 79, 78
2, 34816, Note_off_c, 1, 85, 64
2, 34872, Note_on_c, 1, 55, 67
2, 34872, Note_on_c, 1, 61, 46
2, 34880, Note_off_c, 1, 73, 64
2, 34880, Note_on_c, 1, 51, 53
2, 34880, Note_on_c, 1, 82, 71
2, 34892, Note_off_c, 1, 55, 64
2, 34892, Note_off_c, 1, 61, 64
2, 34892, Note_off_c, 1, 51, 64
2, 34944, Note_off_c, 1, 79, 64
2, 34964, Note_off_c, 1, 82, 64
2, 34976, Note_on_c, 1, 84, 75
2, 34976, Note_on_c, 1, 72, 69
2, 35072, Note_on_c, 1, 39, 66
2, 35076, Control_c, 1, 64, 127
2, 35084, Note_off_c, 1, 84, 64
2, 35084, Note_on_c, 1, 51, 70
2, 35088, Note_off_c, 1, 39, 64
2, 35096, Note_off_c, 1, 51, 64
2, 35100, Note_off_c, 1, 72, 64
2, 35176, Note_on_c, 1, 75, 67
2, 35192, Note_off_c, 1, 75, 64
2, 35264, Note_on_c, 1, 55, 54
2, 35264, Note_on_c, 1, 43, 55
2, 35276, Note_on_c, 1, 82, 64
2, 35276, Note_on_c, 1, 70, 70
2, 35296, Note_off_c, 1, 55, 64
2, 35308, Note_off_c, 1, 43, 64
2, 35364, Note_on_c, 1, 75, 66
2, 35380, Note_off_c, 1, 82, 64
2, 35384, Note_off_c, 1, 70, 64
2, 35392, Note_off_c, 1, 75, 64
2, 35468, Note_on_c, 1, 56, 53
2, 35468, Note_on_c, 1, 44, 49
2, 35472, Control_c, 1, 64, 0
2, 35520, Note_off_c, 1, 44, 64
2, 35524, Note_off_c, 1, 56, 64
2, 35572, Note_on_c, 1, 72, 44
2, 35584, Note_off_c, 1, 72, 64
2, 35676, Note_on_c, 1, 56, 51
2, 35676, Note_on_c, 1, 80, 70
2, 35676, Note_on_c, 1, 51, 49
2, 35680, Note_on_c, 1, 68, 68
2, 35680, Note_on_c, 1, 60, 46
2, 35680, Control_c, 1, 64, 127
2, 35692, Note_off_c, 1, 60, 64
2, 35696, Note_off_c, 1, 56, 64
2, 35700, Note_off_c, 1, 51, 64
2, 35784, Note_on_c, 1, 72, 60
2, 35800, Note_off_c, 1, 80, 64
2, 35800, Note_off_c, 1, 68, 64
2, 35880, Note_on_c, 1, 39, 51
2, 35884, Note_on_c, 1, 75, 57
2, 35884, Note_on_c, 1, 51, 43
2, 35884, Control_c, 1, 64, 0
2, 35896, Note_off_c, 1, 72, 64
2, 35896, Note_off_c, 1, 39, 64
2, 35900, Note_off_c, 1, 51, 64
2, 35924, Note_off_c, 1, 75, 64
2, 35980, Note_on_c, 1, 77, 73
2, 35980, Note_on_c, 1, 65, 62
2, 35992, Control_c, 1, 64, 127
2, 36084, Note_on_c, 1, 51, 49
2, 36084, Note_on_c, 1, 56, 49
2, 36088, Note_off_c, 1, 77, 64
2, 36088, Note_on_c, 1, 60, 49
2, 36092, Note_off_c, 1, 65, 64
2, 36132, Note_off_c, 1, 60, 64
2, 36136, Note_off_c, 1, 56, 64
2, 36160, Note_off_c, 1, 51, 64
2, 36176, Note_on_c, 1, 72, 55
2, 36276, Note_on_c, 1, 80, 61
2, 36280, Note_on_c, 1, 68, 60
2, 36280, Note_on_c, 1, 44, 52
2, 36280, Note_on_c, 1, 56, 52
2, 36284, Control_c, 1, 64, 0
2, 36288, Note_off_c, 1, 72, 64
2, 36372, Control_c, 1, 64, 127
2, 36392, Note_off_c, 1, 68, 64
2, 36400, Note_off_c, 1, 80, 64
2, 36408, Note_off_c, 1, 56, 64
2, 36424, Note_off_c, 1, 44, 64
2, 36484, Note_on_c, 1, 80, 75
2, 36488, Note_on_c, 1, 44, 66
2, 36492, Note_on_c, 1, 68, 69
2, 36492, Note_on_c, 1, 56, 66
2, 36512, Control_c, 1, 64, 0
2, 36532, Control_c, 1, 64, 127
2, 36572, Note_off_c, 1, 68, 0
2, 36580, Note_off_c, 1, 80, 0
2, 36580, Note_off_c, 1, 56, 0
2, 36584, Note_off_c, 1, 44, 0
2, 36680, Note_on_c, 1, 43, 78
2, 36688, Note_on_c, 1, 55, 78
2, 36688, Note_on_c, 1, 79, 83
2, 36688, Note_on_c, 1, 67, 80
2, 36688, Control_c, 1, 64, 0
2, 36712, Control_c, 1, 64, 127
2, 36772, Note_off_c, 1, 55, 64
2, 36772, Note_off_c, 1, 79, 64
2, 36780, Note_off_c, 1, 67, 64
2, 36784, Note_off_c, 1, 43, 64
2, 36884, Note_on_c, 1, 78, 80
2, 36884, Note_on_c, 1, 66, 80
2, 36888, Note_on_c, 1, 54, 88
2, 36888, Note_on_c, 1, 42, 92
2, 36896, Control_c, 1, 64, 0
2, 36916, Control_c, 1, 64, 127
2, 36944, Note_off_c, 1, 54, 64
2, 36944, Note_off_c, 1, 42, 64
2, 36980, Note_off_c, 1, 66, 64
2, 36996, Note_off_c, 1, 78, 64
2, 37088, Note_on_c, 1, 41, 78
2, 37092, Note_on_c, 1, 53, 88
2, 37104, Control_c, 1, 64, 0
2, 37204, Note_on_c, 1, 65, 66
2, 37208, Note_off_c, 1, 41, 64
2, 37208, Note_off_c, 1, 53, 64
2, 37288, Note_on_c, 1, 41, 69
2, 37296, Note_off_c, 1, 65, 64
2, 37296, Note_on_c, 1, 69, 71
2, 37296, Note_on_c, 1, 53, 66
2, 37300, Control_c, 1, 64, 127
2, 37316, Note_off_c, 1, 41, 64
2, 37316, Note_off_c, 1, 53, 64
2, 37388, Note_off_c, 1, 69, 64
2, 37388, Note_on_c, 1, 72, 75
2, 37388, Control_c, 1, 64, 0
2, 37488, Note_off_c, 1, 72, 64
2, 37492, Note_on_c, 1, 77, 83
2, 37492, Note_on_c, 1, 45, 68
2, 37496, Note_on_c, 1, 57, 68
2, 37572, Note_off_c, 1, 57, 64
2, 37580, Note_off_c, 1, 45, 64
2, 37596, Note_off_c, 1, 77, 64
2, 37596, Note_on_c, 1, 72, 78
2, 37692, Note_off_c, 1, 72, 64
2, 37696, Note_on_c, 1, 57, 66
2, 37700, Note_on_c, 1, 45, 60
2, 37704, Note_on_c, 1, 69, 78
2, 37756, Note_off_c, 1, 57, 64
2, 37756, Note_off_c, 1, 45, 64
2, 37792, Note_off_c, 1, 69, 64
2, 37796, Note_on_c, 1, 65, 70
2, 37900, Note_off_c, 1, 65, 0
2, 37900, Note_on_c, 1, 58, 66
2, 37900, Note_on_c, 1, 46, 73
2, 37920, Control_c, 1, 64, 127
2, 37944, Note_off_c, 1, 46, 64
2, 37964, Note_off_c, 1, 58, 64
2, 37996, Note_on_c, 1, 65, 73
2, 37996, Control_c, 1, 64, 0
2, 38088, Note_on_c, 1, 70, 67
2, 38088, Note_on_c, 1, 53, 69
2, 38092, Note_on_c, 1, 61, 37
2, 38100, Note_on_c, 1, 58, 32
2, 38136, Note_off_c, 1, 58, 64
2, 38140, Note_off_c, 1, 53, 64
2, 38140, Note_off_c, 1, 61, 64
2, 38184, Note_on_c, 1, 73, 67
2, 38192, Note_off_c, 1, 70, 64
2, 38196, Control_c, 1, 64, 127
2, 38208, Note_off_c, 1, 73, 64
2, 38224, Note_off_c, 1, 65, 64
2, 38292, Note_on_c, 1, 77, 77
2, 38300, Note_on_c, 1, 58, 54
2, 38300, Note_on_c, 1, 53, 65
2, 38304, Note_on_c, 1, 65, 70
2, 38304, Note_on_c, 1, 61, 53
2, 38304, Control_c, 1, 64, 0
2, 38364, Control_c, 1, 64, 127
2, 38392, Note_off_c, 1, 77, 64
2, 38396, Note_off_c, 1, 58, 64
2, 38400, Note_off_c, 1, 53, 64
2, 38400, Note_off_c, 1, 65, 64
2, 38400, Note_off_c, 1, 61, 64
2, 38500, Note_on_c, 1, 73, 54
2, 38500, Note_on_c, 1, 65, 62
2, 38508, Note_on_c, 1, 70, 60
2, 38508, Note_on_c, 1, 53, 69
2, 38508, Note_on_c, 1, 61, 51
2, 38508, Note_on_c, 1, 58, 56
2, 38508, Control_c, 1, 64, 0
2, 38516, Control_c, 1, 64, 127
2, 38524, Note_off_c, 1, 53, 64
2, 38524, Note_off_c, 1, 61, 64
2, 38524, Note_off_c, 1, 58, 64
2, 38540, Note_off_c, 1, 73, 64
2, 38540, Note_off_c, 1, 70, 64
2, 38544, Note_off_c, 1, 65, 64
2, 38696, Note_on_c, 1, 68, 47
2, 38700, Note_on_c, 1, 53, 61
2, 38700, Note_on_c, 1, 46, 56
2, 38700, Note_on_c, 1, 62, 51
2, 38700, Control_c, 1, 64, 0
2, 38704, Note_on_c, 1, 72, 58
2, 38704, Note_on_c, 1, 58, 46
2, 38704, Note_on_c, 1, 65, 39
2, 38732, Control_c, 1, 64, 127
2, 38800, Note_off_c, 1, 58, 64
2, 38804, Note_off_c, 1, 46, 64
2, 38812, Note_off_c, 1, 53, 64
2, 38892, Note_off_c, 1, 62, 64
2, 38900, Note_off_c, 1, 65, 64
2, 38904, Note_off_c, 1, 68, 64
2, 38904, Note_off_c, 1, 72, 64
2, 38904, Note_on_c, 1, 46, 54
2, 38904, Note_on_c, 1, 58, 40
2, 38908, Note_on_c, 1, 53, 39
2, 38928, Control_c, 1, 64, 0
2, 38980, Control_c, 1, 64, 127
2, 38992, Note_off_c, 1, 58, 64
2, 38996, Note_off_c, 1, 46, 64
2, 38996, Note_off_c, 1, 53, 64
2, 38996, Note_on_c, 1, 68, 52
2, 39000, Note_on_c, 1, 72, 60
2, 39000, Note_on_c, 1, 65, 41
2, 39000, Note_on_c, 1, 62, 37
2, 39092, Note_off_c, 1, 68, 64
2, 39096, Note_off_c, 1, 72, 64
2, 39096, Note_off_c, 1, 65, 64
2, 39100, Note_off_c, 1, 62, 64
2, 39100, Note_on_c, 1, 39, 61
2, 39100, Note_on_c, 1, 51, 66
2, 39100, Control_c, 1, 64, 0
2, 39164, Note_off_c, 1, 39, 0
2, 39168, Note_off_c, 1, 51, 0
2, 39176, Control_c, 1, 64, 127
2, 39188, Note_on_c, 1, 61, 53
2, 39188, Note_on_c, 1, 70, 56
2, 39272, Note_off_c, 1, 61, 64
2, 39276, Note_off_c, 1, 70, 64
2, 39296, Note_on_c, 1, 55, 57
2, 39300, Note_on_c, 1, 43, 54
2, 39300, Control_c, 1, 64, 0
2, 39392, Note_off_c, 1, 43, 64
2, 39392, Note_on_c, 1, 63, 54
2, 39392, Control_c, 1, 64, 127
2, 39396, Note_off_c, 1, 55, 64
2, 39396, Note_on_c, 1, 61, 43
2, 39412, Note_off_c, 1, 61, 64
2, 39420, Note_off_c, 1, 63, 64
2, 39496, Note_on_c, 1, 56, 46
2, 39504, Note_on_c, 1, 68, 53
2, 39504, Note_on_c, 1, 44, 54
2, 39504, Control_c, 1, 64, 0
2, 39508, Note_on_c, 1, 60, 35
2, 39524, Control_c, 1, 64, 127
2, 39544, Note_off_c, 1, 56, 64
2, 39544, Note_off_c, 1, 44, 64
2, 39544, Note_off_c, 1, 60, 64
2, 39548, Note_off_c, 1, 68, 64
2, 39696, Note_on_c, 1, 75, 70
2, 39704, Note_on_c, 1, 63, 64
2, 39704, Note_on_c, 1, 51, 50
2, 39704, Note_on_c, 1, 56, 39
2, 39708, Note_on_c, 1, 60, 39
2, 39708, Control_c, 1, 64, 0
2, 39712, Control_c, 1, 64, 127
2, 39784, Note_off_c, 1, 63, 64
2, 39788, Note_off_c, 1, 75, 64
2, 39792, Note_off_c, 1, 60, 64
2, 39796, Note_off_c, 1, 51, 64
2, 39796, Note_off_c, 1, 56, 64
2, 39892, Note_on_c, 1, 75, 73
2, 39904, Note_on_c, 1, 63, 68
2, 39908, Note_on_c, 1, 60, 58
2, 39908, Note_on_c, 1, 56, 54
2, 39908, Note_on_c, 1, 51, 53
2, 39936, Note_off_c, 1, 60, 64
2, 39936, Note_off_c, 1, 56, 64
2, 39940, Note_off_c, 1, 51, 64
2, 40028, Note_off_c, 1, 75, 64
2, 40032, Note_off_c, 1, 63, 64
2, 40092, Note_on_c, 1, 57, 87
2, 40096, Note_on_c, 1, 45, 104
2, 40096, Note_on_c, 1, 75, 70
2, 40100, Note_on_c, 1, 63, 68
2, 40100, Control_c, 1, 64, 0
2, 40116, Control_c, 1, 64, 127
2, 40140, Note_off_c, 1, 57, 64
2, 40144, Note_off_c, 1, 45, 64
2, 40180, Note_off_c, 1, 63, 64
2, 40240, Note_off_c, 1, 75, 64
2, 40312, Control_c, 1, 64, 0
2, 40316, Note_on_c, 1, 58, 75
2, 40316, Note_on_c, 1, 46, 94
2, 40340, Control_c, 1, 64, 127
2, 40364, Note_off_c, 1, 46, 64
2, 40372, Note_off_c, 1, 58, 64
2, 40420, Note_on_c, 1, 79, 73
2, 40424, Note_off_c, 1, 79, 64
2, 40512, Control_c, 1, 64, 0
2, 40516, Note_on_c, 1, 61, 54
2, 40516, Note_on_c, 1, 51, 54
2, 40520, Note_on_c, 1, 55, 68
2, 40520, Note_on_c, 1, 87, 78
2, 40520, Note_on_c, 1, 75, 83
2, 40532, Note_off_c, 1, 61, 64
2, 40532, Note_off_c, 1, 55, 64
2, 40544, Note_off_c, 1, 51, 64
2, 40604, Note_on_c, 1, 79, 78
2, 40612, Note_off_c, 1, 75, 64
2, 40700, Note_on_c, 1, 39, 66
2, 40708, Note_on_c, 1, 82, 66
2, 40708, Note_on_c, 1, 51, 56
2, 40720, Note_off_c, 1, 87, 64
2, 40720, Note_off_c, 1, 39, 64
2, 40728, Note_off_c, 1, 51, 64
2, 40756, Note_off_c, 1, 79, 64
2, 40772, Note_off_c, 1, 82, 64
2, 40804, Note_on_c, 1, 86, 78
2, 40812, Note_on_c, 1, 74, 66
2, 40904, Note_on_c, 1, 61, 55
2, 40908, Note_on_c, 1, 51, 59
2, 40908, Note_on_c, 1, 55, 68
2, 40920, Note_off_c, 1, 61, 64
2, 40920, Note_off_c, 1, 55, 64
2, 40920, Control_c, 1, 64, 127
2, 40924, Note_off_c, 1, 51, 64
2, 41008, Note_off_c, 1, 86, 64
2, 41008, Note_off_c, 1, 74, 64
2, 41008, Note_on_c, 1, 79, 68
2, 41028, Note_off_c, 1, 79, 64
2, 41032, Control_c, 1, 64, 0
2, 41116, Note_on_c, 1, 85, 68
2, 41120, Note_on_c, 1, 46, 62
2, 41120, Note_on_c, 1, 73, 70
2, 41120, Note_on_c, 1, 58, 57
2, 41124, Control_c, 1, 64, 127
2, 41140, Note_off_c, 1, 46, 64
2, 41144, Note_off_c, 1, 58, 64
2, 41220, Note_on_c, 1, 79, 71
2, 41236, Control_c, 1, 64, 0
2, 41316, Note_on_c, 1, 51, 53
2, 41316, Note_on_c, 1, 82, 63
2, 41316, Note_on_c, 1, 55, 61
2, 41316, Note_on_c, 1, 61, 40
2, 41324, Note_off_c, 1, 73, 64
2, 41332, Note_off_c, 1, 85, 64
2, 41332, Note_off_c, 1, 79, 64
2, 41336, Note_off_c, 1, 61, 64
2, 41340, Note_off_c, 1, 51, 64
2, 41340, Note_off_c, 1, 55, 64
2, 41356, Note_off_c, 1, 82, 64
2, 41420, Note_on_c, 1, 84, 80
2, 41424, Note_on_c, 1, 72, 77
2, 41516, Note_on_c, 1, 39, 66
2, 41520, Note_on_c, 1, 51, 60
2, 41528, Note_off_c, 1, 84, 64
2, 41536, Note_off_c, 1, 39, 64
2, 41540, Note_off_c, 1, 72, 64
2, 41540, Note_off_c, 1, 51, 64
2, 41612, Note_on_c, 1, 75, 73
2, 41616, Note_off_c, 1, 75, 64
2, 41616, Control_c, 1, 64, 127
2, 41640, Control_c, 1, 64, 0
2, 41712, Note_on_c, 1, 43, 68
2, 41712, Note_on_c, 1, 55, 65
2, 41712, Note_on_c, 1, 82, 84
2, 41720, Note_on_c, 1, 70, 83
2, 41720, Control_c, 1, 64, 127
2, 41724, Note_off_c, 1, 43, 64
2, 41728, Note_off_c, 1, 55, 64
2, 41812, Note_on_c, 1, 75, 67
2, 41844, Note_off_c, 1, 82, 64
2, 41844, Note_off_c, 1, 75, 64
2, 41848, Note_off_c, 1, 70, 64
2, 41916, Note_on_c, 1, 56, 77
2, 41916, Note_on_c, 1, 44, 78
2, 41916, Control_c, 1, 64, 0
2, 41924, Note_off_c, 1, 44, 64
2, 41932, Note_off_c, 1, 56, 64
2, 42020, Note_on_c, 1, 72, 63
2, 42032, Note_off_c, 1, 72, 64
2, 42120, Note_on_c, 1, 80, 71
2, 42120, Note_on_c, 1, 56, 54
2, 42120, Note_on_c, 1, 68, 80
2, 42124, Note_on_c, 1, 60, 42
2, 42124, Note_on_c, 1, 51, 36
2, 42128, Control_c, 1, 64, 127
2, 42136, Note_off_c, 1, 56, 64
2, 42136, Note_off_c, 1, 60, 64
2, 42148, Note_off_c, 1, 51, 64
2, 42216, Note_off_c, 1, 68, 64
2, 42220, Note_on_c, 1, 72, 39
2, 42228, Note_off_c, 1, 80, 64
2, 42240, Control_c, 1, 64, 0
2, 42308, Note_on_c, 1, 75, 43
2, 42312, Note_on_c, 1, 39, 63
2, 42320, Note_on_c, 1, 51, 49
2, 42328, Note_off_c, 1, 72, 64
2, 42332, Note_off_c, 1, 39, 64
2, 42336, Note_off_c, 1, 75, 64
2, 42336, Note_off_c, 1, 51, 64
2, 42416, Note_on_c, 1, 77, 78
2, 42416, Note_on_c, 1, 65, 70
2, 42424, Control_c, 1, 64, 127
2, 42508, Control_c, 1, 64, 0
2, 42516, Note_on_c, 1, 56, 55
2, 42520, Note_on_c, 1, 51, 54
2, 42524, Note_on_c, 1, 60, 41
2, 42556, Note_off_c, 1, 65, 64
2, 42568, Note_off_c, 1, 60, 64
2, 42572, Note_off_c, 1, 56, 64
2, 42576, Note_off_c, 1, 51, 64
2, 42628, Note_off_c, 1, 77, 64
2, 42628, Note_on_c, 1, 72, 54
2, 42636, Note_off_c, 1, 72, 64
2, 42728, Note_on_c, 1, 80, 78
2, 42728, Note_on_c, 1, 68, 78
2, 42732, Note_on_c, 1, 56, 56
2, 42732, Note_on_c, 1, 44, 60
2, 42732, Control_c, 1, 64, 127
2, 42748, Note_off_c, 1, 44, 64
2, 42756, Note_off_c, 1, 56, 64
2, 42820, Note_on_c, 1, 72, 54
2, 42844, Note_off_c, 1, 80, 64
2, 42848, Note_off_c, 1, 68, 64
2, 42916, Note_on_c, 1, 75, 48
2, 42916, Control_c, 1, 64, 0
2, 42928, Note_on_c, 1, 51, 46
2, 42928, Note_on_c, 1, 60, 43
2, 42928, Note_on_c, 1, 56, 43
2, 42936, Note_off_c, 1, 72, 64
2, 42956, Note_off_c, 1, 51, 64
2, 42956, Note_off_c, 1, 56, 64
2, 42960, Note_off_c, 1, 75, 64
2, 42960, Note_off_c, 1, 60, 64
2, 43024, Note_on_c, 1, 77, 73
2, 43028, Note_on_c, 1, 65, 71
2, 43116, Note_on_c, 1, 56, 67
2, 43120, Note_on_c, 1, 44, 67
2, 43140, Note_off_c, 1, 56, 64
2, 43140, Note_off_c, 1, 44, 64
2, 43220, Note_on_c, 1, 72, 62
2, 43236, Note_off_c, 1, 77, 64
2, 43240, Note_off_c, 1, 65, 64
2, 43256, Note_off_c, 1, 72, 64
2, 43324, Note_on_c, 1, 57, 77
2, 43324, Note_on_c, 1, 45, 85
2, 43328, Note_on_c, 1, 77, 69
2, 43328, Note_on_c, 1, 65, 65
2, 43384, Note_off_c, 1, 57, 64
2, 43408, Note_off_c, 1, 45, 64
2, 43516, Note_off_c, 1, 65, 64
2, 43524, Note_off_c, 1, 77, 64
2, 43540, Note_on_c, 1, 58, 70
2, 43540, Note_on_c, 1, 46, 78
2, 43580, Control_c, 1, 64, 127
2, 43600, Note_off_c, 1, 46, 64
2, 43604, Note_off_c, 1, 58, 64
2, 43636, Note_on_c, 1, 75, 63
2, 43644, Note_off_c, 1, 75, 64
2, 43704, Control_c, 1, 64, 0
2, 43736, Note_on_c, 1, 51, 61
2, 43736, Note_on_c, 1, 55, 68
2, 43736, Note_on_c, 1, 61, 51
2, 43740, Note_on_c, 1, 79, 93
2, 43740, Note_on_c, 1, 67, 73
2, 43756, Note_off_c, 1, 51, 64
2, 43756, Note_off_c, 1, 55, 64
2, 43760, Note_off_c, 1, 61, 64
2, 43840, Note_on_c, 1, 70, 60
2, 43856, Note_off_c, 1, 79, 64
2, 43884, Note_off_c, 1, 67, 64
2, 43936, Note_on_c, 1, 39, 64
2, 43936, Note_on_c, 1, 73, 61
2, 43936, Note_on_c, 1, 51, 60
2, 43952, Note_off_c, 1, 39, 64
2, 43960, Note_off_c, 1, 70, 64
2, 43960, Note_off_c, 1, 73, 64
2, 43960, Note_off_c, 1, 51, 64
2, 44032, Note_on_c, 1, 77, 78
2, 44036, Note_on_c, 1, 65, 64
2, 44132, Note_on_c, 1, 51, 53
2, 44132, Note_on_c, 1, 61, 50
2, 44132, Note_on_c, 1, 55, 68
2, 44152, Note_off_c, 1, 51, 64
2, 44156, Note_off_c, 1, 61, 64
2, 44156, Note_off_c, 1, 55, 64
2, 44232, Note_off_c, 1, 65, 64
2, 44236, Note_on_c, 1, 75, 70
2, 44240, Note_off_c, 1, 77, 64
2, 44248, Note_off_c, 1, 75, 64
2, 44332, Note_on_c, 1, 46, 75
2, 44336, Note_on_c, 1, 79, 90
2, 44340, Note_on_c, 1, 58, 63
2, 44340, Note_on_c, 1, 67, 78
2, 44340, Control_c, 1, 64, 127
2, 44352, Note_off_c, 1, 46, 64
2, 44360, Note_off_c, 1, 58, 64
2, 44440, Note_on_c, 1, 70, 65
2, 44444, Note_off_c, 1, 67, 64
2, 44448, Note_off_c, 1, 79, 64
2, 44484, Control_c, 1, 64, 0
2, 44532, Note_on_c, 1, 73, 60
2, 44532, Note_on_c, 1, 51, 54
2, 44532, Note_on_c, 1, 61, 40
2, 44536, Note_on_c, 1, 55, 54
2, 44544, Note_off_c, 1, 70, 64
2, 44544, Note_off_c, 1, 73, 64
2, 44548, Note_off_c, 1, 61, 64
2, 44552, Note_off_c, 1, 55, 64
2, 44572, Note_off_c, 1, 51, 64
2, 44632, Note_on_c, 1, 77, 85
2, 44636, Note_on_c, 1, 65, 78
2, 44724, Note_on_c, 1, 58, 66
2, 44724, Note_on_c, 1, 46, 59
2, 44728, Note_off_c, 1, 58, 64
2, 44728, Note_off_c, 1, 46, 64
2, 44812, Note_on_c, 1, 73, 64
2, 44820, Note_off_c, 1, 77, 64
2, 44824, Note_off_c, 1, 65, 64
2, 44836, Note_off_c, 1, 73, 64
2, 44920, Note_on_c, 1, 59, 75
2, 44920, Note_on_c, 1, 47, 85
2, 44920, Note_on_c, 1, 77, 78
2, 44928, Note_on_c, 1, 65, 66
2, 44936, Control_c, 1, 64, 127
2, 44972, Note_off_c, 1, 59, 64
2, 44976, Note_off_c, 1, 47, 64
2, 45016, Note_off_c, 1, 65, 64
2, 45036, Note_off_c, 1, 77, 64
2, 45112, Control_c, 1, 64, 0
2, 45120, Note_on_c, 1, 48, 77
2, 45124, Note_on_c, 1, 60, 71
2, 45232, Note_on_c, 1, 72, 70
2, 45236, Note_off_c, 1, 48, 64
2, 45240, Note_off_c, 1, 60, 64
2, 45240, Control_c, 1, 64, 127
2, 45260, Note_off_c, 1, 72, 64
2, 45332, Note_on_c, 1, 80, 71
2, 45332, Note_on_c, 1, 60, 58
2, 45332, Note_on_c, 1, 51, 61
2, 45332, Note_on_c, 1, 56, 54
2, 45332, Note_on_c, 1, 68, 67
2, 45336, Control_c, 1, 64, 0
2, 45352, Note_off_c, 1, 60, 64
2, 45356, Note_off_c, 1, 51, 64
2, 45356, Note_off_c, 1, 56, 64
2, 45424, Note_off_c, 1, 68, 64
2, 45428, Note_on_c, 1, 72, 71
2, 45440, Note_off_c, 1, 80, 64
2, 45528, Note_on_c, 1, 75, 66
2, 45528, Note_on_c, 1, 39, 60
2, 45528, Note_on_c, 1, 51, 54
2, 45536, Note_off_c, 1, 39, 0
2, 45544, Note_off_c, 1, 72, 0
2, 45544, Note_off_c, 1, 51, 0
2, 45568, Note_off_c, 1, 75, 0
2, 45624, Note_on_c, 1, 77, 70
2, 45628, Note_on_c, 1, 65, 67
2, 45728, Note_off_c, 1, 65, 64
2, 45732, Note_off_c, 1, 77, 64
2, 45732, Note_on_c, 1, 56, 59
2, 45732, Note_on_c, 1, 51, 62
2, 45732, Note_on_c, 1, 60, 63
2, 45732, Control_c, 1, 64, 127
2, 45820, Note_off_c, 1, 56, 64
2, 45820, Note_off_c, 1, 51, 64
2, 45820, Note_off_c, 1, 60, 64
2, 45820, Note_on_c, 1, 72, 71
2, 45848, Note_off_c, 1, 72, 64
2, 45916, Control_c, 1, 64, 0
2, 45924, Note_on_c, 1, 80, 73
2, 45924, Note_on_c, 1, 44, 66
2, 45924, Note_on_c, 1, 68, 71
2, 45928, Note_on_c, 1, 56, 59
2, 45944, Control_c, 1, 64, 127
2, 45956, Note_off_c, 1, 44, 64
2, 45964, Note_off_c, 1, 56, 64
2, 46024, Note_on_c, 1, 72, 80
2, 46028, Note_off_c, 1, 80, 64
2, 46028, Note_off_c, 1, 68, 64
2, 46112, Control_c, 1, 64, 0
2, 46120, Note_on_c, 1, 60, 66
2, 46120, Note_on_c, 1, 51, 59
2, 46124, Note_on_c, 1, 75, 66
2, 46124, Note_on_c, 1, 56, 61
2, 46140, Note_off_c, 1, 72, 64
2, 46152, Control_c, 1, 64, 127
2, 46164, Note_off_c, 1, 75, 64
2, 46208, Note_off_c, 1, 60, 64
2, 46212, Note_off_c, 1, 56, 64
2, 46216, Note_off_c, 1, 51, 64
2, 46228, Note_on_c, 1, 77, 88
2, 46228, Note_on_c, 1, 65, 69
2, 46240, Control_c, 1, 64, 0
2, 46320, Note_on_c, 1, 56, 75
2, 46320, Note_on_c, 1, 44, 71
2, 46332, Control_c, 1, 64, 127
2, 46356, Note_off_c, 1, 77, 64
2, 46356, Note_off_c, 1, 65, 64
2, 46420, Note_off_c, 1, 44, 64
2, 46420, Note_on_c, 1, 72, 70
2, 46424, Note_off_c, 1, 56, 64
2, 46440, Note_off_c, 1, 72, 64
2, 46516, Control_c, 1, 64, 0
2, 46524, Note_on_c, 1, 57, 78
2, 46524, Note_on_c, 1, 45, 108
2, 46524, Note_on_c, 1, 77, 77
2, 46532, Note_on_c, 1, 65, 75
2, 46572, Control_c, 1, 64, 127
2, 46620, Note_off_c, 1, 57, 64
2, 46628, Note_off_c, 1, 45, 64
2, 46652, Note_off_c, 1, 65, 64
2, 46676, Note_off_c, 1, 77, 64
2, 46744, Note_on_c, 1, 58, 78
2, 46744, Note_on_c, 1, 46, 108
2, 46756, Control_c, 1, 64, 0
2, 46788, Control_c, 1, 64, 127
2, 46820, Note_off_c, 1, 46, 64
2, 46828, Note_off_c, 1, 58, 64
2, 46848, Note_on_c, 1, 79, 88
2, 46860, Note_off_c, 1, 79, 64
2, 46940, Note_on_c, 1, 61, 63
2, 46944, Note_on_c, 1, 55, 77
2, 46944, Note_on_c, 1, 51, 58
2, 46948, Note_on_c, 1, 87, 80
2, 46948, Note_on_c, 1, 75, 93
2, 46948, Control_c, 1, 64, 0
2, 46964, Control_c, 1, 64, 127
2, 46972, Note_off_c, 1, 61, 64
2, 46976, Note_off_c, 1, 55, 64
2, 46976, Note_off_c, 1, 51, 64
2, 47044, Note_on_c, 1, 79, 93
2, 47060, Note_off_c, 1, 87, 64
2, 47060, Note_off_c, 1, 75, 64
2, 47140, Control_c, 1, 64, 0
2, 47144, Note_on_c, 1, 51, 64
2, 47148, Note_on_c, 1, 82, 70
2, 47148, Note_on_c, 1, 39, 83
2, 47160, Note_off_c, 1, 39, 64
2, 47160, Control_c, 1, 64, 127
2, 47176, Note_off_c, 1, 79, 64
2, 47176, Note_off_c, 1, 51, 64
2, 47184, Note_off_c, 1, 82, 64
2, 47244, Note_on_c, 1, 86, 80
2, 47244, Note_on_c, 1, 74, 83
2, 47336, Control_c, 1, 64, 0
2, 47344, Note_on_c, 1, 51, 65
2, 47344, Note_on_c, 1, 61, 64
2, 47344, Note_on_c, 1, 55, 80
2, 47360, Control_c, 1, 64, 127
2, 47376, Note_off_c, 1, 86, 64
2, 47380, Note_off_c, 1, 74, 64
2, 47396, Note_off_c, 1, 61, 64
2, 47416, Note_off_c, 1, 51, 64
2, 47424, Note_off_c, 1, 55, 64
2, 47444, Note_on_c, 1, 79, 83
2, 47460, Note_off_c, 1, 79, 64
2, 47536, Control_c, 1, 64, 0
2, 47544, Note_on_c, 1, 46, 80
2, 47544, Note_on_c, 1, 85, 80
2, 47544, Note_on_c, 1, 58, 75
2, 47544, Note_on_c, 1, 73, 80
2, 47564, Control_c, 1, 64, 127
2, 47580, Note_off_c, 1, 46, 64
2, 47592, Note_off_c, 1, 58, 64
2, 47636, Note_on_c, 1, 79, 88
2, 47652, Note_off_c, 1, 85, 64
2, 47744, Note_on_c, 1, 51, 65
2, 47744, Note_on_c, 1, 82, 80
2, 47744, Note_on_c, 1, 61, 63
2, 47748, Note_off_c, 1, 73, 64
2, 47748, Note_on_c, 1, 55, 78
2, 47748, Control_c, 1, 64, 0
2, 47752, Note_off_c, 1, 79, 64
2, 47780, Note_off_c, 1, 82, 64
2, 47812, Note_off_c, 1, 61, 64
2, 47828, Note_off_c, 1, 55, 64
2, 47836, Note_off_c, 1, 51, 64
2, 47836, Note_on_c, 1, 84, 83
2, 47836, Note_on_c, 1, 72, 78
2, 47936, Note_off_c, 1, 84, 64
2, 47936, Note_on_c, 1, 39, 73
2, 47936, Note_on_c, 1, 51, 77
2, 47936, Control_c, 1, 64, 127
2, 47940, Note_off_c, 1, 72, 64
2, 47956, Note_off_c, 1, 39, 64
2, 47956, Note_off_c, 1, 51, 64
2, 48032, Note_on_c, 1, 75, 73
2, 48052, Note_off_c, 1, 75, 64
2, 48120, Control_c, 1, 64, 0
2, 48136, Note_on_c, 1, 43, 60
2, 48136, Note_on_c, 1, 55, 62
2, 48144, Note_on_c, 1, 82, 67
2, 48148, Note_on_c, 1, 70, 75
2, 48148, Control_c, 1, 64, 127
2, 48172, Note_off_c, 1, 55, 64
2, 48196, Note_off_c, 1, 43, 64
2, 48240, Note_on_c, 1, 75, 59
2, 48248, Note_off_c, 1, 82, 64
2, 48260, Note_off_c, 1, 70, 64
2, 48268, Note_off_c, 1, 75, 64
2, 48320, Control_c, 1, 64, 0
2, 48348, Note_on_c, 1, 44, 61
2, 48348, Note_on_c, 1, 56, 56
2, 48360, Control_c, 1, 64, 127
2, 48420, Note_off_c, 1, 44, 64
2, 48420, Note_off_c, 1, 56, 64
2, 48448, Note_on_c, 1, 72, 75
2, 48456, Control_c, 1, 64, 0
2, 48472, Note_off_c, 1, 72, 64
2, 48548, Note_on_c, 1, 80, 67
2, 48548, Note_on_c, 1, 51, 52
2, 48548, Note_on_c, 1, 56, 54
2, 48556, Note_on_c, 1, 60, 53
2, 48556, Note_on_c, 1, 68, 68
2, 48564, Note_off_c, 1, 51, 64
2, 48564, Note_off_c, 1, 56, 64
2, 48564, Note_off_c, 1, 60, 64
2, 48608, Note_off_c, 1, 68, 64
2, 48640, Note_off_c, 1, 80, 64
2, 48648, Note_on_c, 1, 72, 69
2, 48744, Note_on_c, 1, 39, 58
2, 48748, Note_on_c, 1, 75, 59
2, 48748, Note_on_c, 1, 51, 44
2, 48756, Note_off_c, 1, 72, 64
2, 48756, Note_off_c, 1, 39, 64
2, 48760, Note_off_c, 1, 51, 64
2, 48776, Note_off_c, 1, 75, 64
2, 48844, Note_on_c, 1, 77, 71
2, 48844, Note_on_c, 1, 65, 66
2, 48948, Note_off_c, 1, 65, 64
2, 48952, Note_on_c, 1, 60, 66
2, 48952, Note_on_c, 1, 56, 60
2, 48956, Note_off_c, 1, 77, 64
2, 48956, Note_on_c, 1, 51, 56
2, 48984, Control_c, 1, 64, 127
2, 49040, Note_off_c, 1, 60, 64
2, 49040, Note_off_c, 1, 56, 64
2, 49040, Note_on_c, 1, 72, 73
2, 49052, Note_off_c, 1, 51, 64
2, 49060, Note_off_c, 1, 72, 64
2, 49140, Note_on_c, 1, 56, 63
2, 49148, Note_on_c, 1, 44, 63
2, 49148, Note_on_c, 1, 80, 70
2, 49148, Note_on_c, 1, 68, 70
2, 49148, Control_c, 1, 64, 0
2, 49156, Note_off_c, 1, 68, 64
2, 49156, Control_c, 1, 64, 127
2, 49168, Note_off_c, 1, 80, 64
2, 49176, Note_off_c, 1, 56, 64
2, 49200, Note_off_c, 1, 44, 64
2, 49248, Control_c, 1, 64, 0
2, 49344, Note_on_c, 1, 80, 77
2, 49348, Note_on_c, 1, 68, 77
2, 49348, Note_on_c, 1, 44, 75
2, 49348, Note_on_c, 1, 56, 66
2, 49352, Control_c, 1, 64, 127
2, 49364, Note_off_c, 1, 68, 64
2, 49364, Note_off_c, 1, 56, 64
2, 49368, Note_off_c, 1, 44, 64
2, 49376, Note_off_c, 1, 80, 64
2, 49460, Control_c, 1, 64, 0
2, 49560, Note_on_c, 1, 79, 90
2, 49560, Note_on_c, 1, 43, 67
2, 49560, Note_on_c, 1, 55, 68
2, 49564, Note_on_c, 1, 67, 78
2, 49564, Control_c, 1, 64, 127
2, 49588, Note_off_c, 1, 79, 64
2, 49592, Note_off_c, 1, 67, 64
2, 49604, Note_off_c, 1, 55, 64
2, 49616, Note_off_c, 1, 43, 64
2, 49712, Control_c, 1, 64, 0
2, 49760, Control_c, 1, 64, 127
2, 49772, Note_on_c, 1, 78, 78
2, 49776, Note_on_c, 1, 66, 80
2, 49776, Note_on_c, 1, 54, 73
2, 49780, Note_on_c, 1, 42, 69
2, 49788, Note_off_c, 1, 66, 64
2, 49800, Note_off_c, 1, 78, 64
2, 49812, Note_off_c, 1, 54, 64
2, 49812, Note_off_c, 1, 42, 64
2, 49964, Note_on_c, 1, 41, 64
2, 49964, Note_on_c, 1, 53, 66
2, 49968, Control_c, 1, 64, 0
2, 50060, Note_off_c, 1, 53, 64
2, 50068, Note_on_c, 1, 65, 70
2, 50072, Note_off_c, 1, 41, 64
2, 50160, Note_on_c, 1, 41, 61
2, 50164, Note_on_c, 1, 69, 66
2, 50168, Note_on_c, 1, 53, 65
2, 50168, Control_c, 1, 64, 127
2, 50192, Note_off_c, 1, 41, 64
2, 50192, Note_off_c, 1, 53, 64
2, 50256, Note_off_c, 1, 69, 64
2, 50264, Note_on_c, 1, 72, 73
2, 50328, Note_off_c, 1, 72, 64
2, 50364, Note_off_c, 1, 65, 64
2, 50364, Note_on_c, 1, 45, 70
2, 50368, Note_on_c, 1, 57, 66
2, 50368, Control_c, 1, 64, 0
2, 50380, Note_on_c, 1, 77, 73
2, 50456, Control_c, 1, 64, 127
2, 50476, Note_off_c, 1, 77, 64
2, 50476, Note_on_c, 1, 72, 70
2, 50488, Note_off_c, 1, 45, 64
2, 50496, Note_off_c, 1, 57, 64
2, 50568, Note_off_c, 1, 72, 64
2, 50568, Note_on_c, 1, 57, 64
2, 50572, Note_on_c, 1, 45, 60
2, 50572, Control_c, 1, 64, 0
2, 50580, Note_on_c, 1, 69, 73
2, 50680, Note_off_c, 1, 69, 64
2, 50684, Note_off_c, 1, 57, 64
2, 50684, Control_c, 1, 64, 127
2, 50688, Note_off_c, 1, 45, 64
2, 50688, Note_on_c, 1, 65, 71
2, 50788, Note_off_c, 1, 65, 0
2, 50788, Control_c, 1, 64, 0
2, 50796, Note_on_c, 1, 46, 66
2, 50796, Note_on_c, 1, 58, 61
2, 50864, Note_off_c, 1, 46, 64
2, 50872, Control_c, 1, 64, 127
2, 50876, Note_off_c, 1, 58, 64
2, 50892, Note_on_c, 1, 65, 73
2, 50996, Note_on_c, 1, 70, 70
2, 50996, Note_on_c, 1, 53, 67
2, 51000, Note_on_c, 1, 61, 32
2, 51000, Control_c, 1, 64, 0
2, 51004, Note_on_c, 1, 58, 32
2, 51012, Note_off_c, 1, 65, 64
2, 51088, Control_c, 1, 64, 127
2, 51096, Note_on_c, 1, 73, 64
2, 51104, Note_off_c, 1, 70, 64
2, 51116, Note_off_c, 1, 73, 64
2, 51120, Note_off_c, 1, 53, 64
2, 51120, Note_off_c, 1, 58, 64
2, 51128, Note_off_c, 1, 61, 64
2, 51200, Note_on_c, 1, 53, 69
2, 51204, Note_on_c, 1, 77, 77
2, 51204, Note_on_c, 1, 58, 57
2, 51204, Note_on_c, 1, 61, 43
2, 51208, Note_on_c, 1, 65, 69
2, 51208, Control_c, 1, 64, 0
2, 51248, Control_c, 1, 64, 127
2, 51300, Note_off_c, 1, 53, 64
2, 51300, Note_off_c, 1, 77, 64
2, 51300, Note_off_c, 1, 61, 64
2, 51308, Note_off_c, 1, 58, 64
2, 51312, Note_off_c, 1, 65, 64
2, 51392, Control_c, 1, 64, 0
2, 51404, Note_on_c, 1, 73, 55
2, 51408, Note_on_c, 1, 58, 51
2, 51408, Note_on_c, 1, 70, 60
2, 51408, Note_on_c, 1, 65, 65
2, 51408, Note_on_c, 1, 53, 53
2, 51412, Note_on_c, 1, 61, 43
2, 51416, Control_c, 1, 64, 127
2, 51428, Note_off_c, 1, 73, 64
2, 51428, Note_off_c, 1, 70, 64
2, 51428, Note_off_c, 1, 61, 64
2, 51436, Note_off_c, 1, 65, 64
2, 51440, Note_off_c, 1, 58, 64
2, 51444, Note_off_c, 1, 53, 64
2, 51604, Note_on_c, 1, 46, 52
2, 51608, Note_on_c, 1, 68, 36
2, 51608, Note_on_c, 1, 62, 49
2, 51608, Note_on_c, 1, 65, 43
2, 51608, Note_on_c, 1, 72, 48
2, 51608, Note_on_c, 1, 53, 42
2, 51616, Note_on_c, 1, 58, 37
2, 51616, Control_c, 1, 64, 0
2, 51628, Control_c, 1, 64, 127
2, 51700, Note_off_c, 1, 46, 64
2, 51700, Note_off_c, 1, 53, 64
2, 51700, Note_off_c, 1, 58, 64
2, 51792, Note_off_c, 1, 68, 64
2, 51796, Note_off_c, 1, 65, 64
2, 51800, Note_off_c, 1, 62, 64
2, 51800, Note_on_c, 1, 46, 43
2, 51800, Note_on_c, 1, 53, 47
2, 51804, Note_off_c, 1, 72, 64
2, 51804, Note_on_c, 1, 58, 40
2, 51812, Control_c, 1, 64, 0
2, 51868, Control_c, 1, 64, 127
2, 51888, Note_off_c, 1, 53, 64
2, 51892, Note_off_c, 1, 58, 64
2, 51896, Note_off_c, 1, 46, 64
2, 51896, Note_on_c, 1, 68, 56
2, 51896, Note_on_c, 1, 65, 63
2, 51900, Note_on_c, 1, 72, 53
2, 51900, Note_on_c, 1, 62, 50
2, 51992, Control_c, 1, 64, 0
2, 51996, Note_on_c, 1, 39, 60
2, 51996, Note_on_c, 1, 51, 55
2, 52008, Note_off_c, 1, 68, 0
2, 52008, Note_off_c, 1, 65, 0
2, 52008, Note_off_c, 1, 72, 0
2, 52012, Note_off_c, 1, 62, 0
2, 52012, Control_c, 1, 64, 127
2, 52032, Note_off_c, 1, 39, 0
2, 52040, Note_off_c, 1, 51, 0
2, 52088, Note_on_c, 1, 70, 65
2, 52092, Note_on_c, 1, 61, 57
2, 52184, Control_c, 1, 64, 0
2, 52192, Note_off_c, 1, 61, 64
2, 52196, Note_off_c, 1, 70, 64
2, 52196, Note_on_c, 1, 55, 61
2, 52200, Note_on_c, 1, 43, 64
2, 52204, Control_c, 1, 64, 127
2, 52276, Note_off_c, 1, 43, 64
2, 52280, Note_off_c, 1, 55, 64
2, 52284, Note_on_c, 1, 63, 48
2, 52292, Note_on_c, 1, 61, 39
2, 52320, Note_off_c, 1, 61, 64
2, 52340, Note_off_c, 1, 63, 64
2, 52400, Note_on_c, 1, 44, 54
2, 52408, Note_on_c, 1, 56, 41
2, 52412, Note_on_c, 1, 60, 45
2, 52412, Control_c, 1, 64, 0
2, 52420, Control_c, 1, 64, 127
2, 52424, Control_c, 1, 64, 127
2, 52436, Note_off_c, 1, 44, 64
2, 52492, Note_off_c, 1, 56, 64
2, 52496, Note_off_c, 1, 60, 64
2, 52504, Note_on_c, 1, 68, 60
2, 52560, Note_off_c, 1, 68, 64
2, 52596, Note_on_c, 1, 72, 73
2, 52596, Control_c, 1, 64, 0
2, 52604, Note_on_c, 1, 56, 39
2, 52604, Note_on_c, 1, 51, 34
2, 52604, Note_on_c, 1, 60, 39
2, 52608, Control_c, 1, 64, 127
2, 52652, Note_off_c, 1, 72, 64
2, 52704, Note_on_c, 1, 75, 70
2, 52704, Control_c, 1, 64, 0
2, 52712, Note_off_c, 1, 56, 64
2, 52716, Note_off_c, 1, 51, 64
2, 52716, Note_off_c, 1, 60, 64
2, 52716, Note_off_c, 1, 75, 64
2, 52824, Note_on_c, 1, 80, 66
2, 52824, Note_on_c, 1, 68, 60
2, 52828, Note_on_c, 1, 63, 40
2, 52836, Note_on_c, 1, 56, 49
2, 52836, Note_on_c, 1, 60, 35
2, 52864, Note_off_c, 1, 63, 64
2, 52872, Note_off_c, 1, 60, 64
2, 52880, Note_off_c, 1, 68, 64
2, 52880, Note_off_c, 1, 56, 64
2, 52904, Note_off_c, 1, 80, 0
2, 53008, Control_c, 1, 64, 0
2, 53020, Note_on_c, 1, 39, 80
2, 53020, Note_on_c, 1, 51, 85
2, 53020, Control_c, 1, 64, 127
2, 53092, Note_off_c, 1, 39, 64
2, 53100, Note_off_c, 1, 51, 64
2, 53140, Control_c, 1, 64, 0
2, 53248, Note_on_c, 1, 56, 80
2, 53248, Note_on_c, 1, 44, 85
2, 53312, Note_off_c, 1, 56, 64
2, 53312, Note_off_c, 1, 44, 64
2, 53340, Note_on_c, 1, 68, 73
2, 53408, Note_off_c, 1, 68, 64
2, 53440, Note_on_c, 1, 75, 70
2, 53444, Note_on_c, 1, 63, 68
2, 53444, Note_on_c, 1, 51, 60
2, 53444, Note_on_c, 1, 56, 48
2, 53448, Note_on_c, 1, 60, 41
2, 53496, Note_off_c, 1, 51, 64
2, 53500, Note_off_c, 1, 56, 64
2, 53500, Note_off_c, 1, 60, 64
2, 53536, Note_on_c, 1, 68, 73
2, 53540, Note_off_c, 1, 63, 64
2, 53572, Note_off_c, 1, 75, 64
2, 53636, Note_on_c, 1, 72, 77
2, 53644, Note_off_c, 1, 68, 64
2, 53644, Note_on_c, 1, 56, 43
2, 53644, Note_on_c, 1, 60, 39
2, 53644, Note_on_c, 1, 51, 38
2, 53648, Note_off_c, 1, 72, 64
2, 53680, Note_off_c, 1, 60, 64
2, 53684, Note_off_c, 1, 56, 64
2, 53692, Note_off_c, 1, 51, 64
2, 53736, Note_on_c, 1, 75, 68
2, 53736, Note_on_c, 1, 63, 70
2, 53836, Note_on_c, 1, 45, 83
2, 53836, Note_on_c, 1, 57, 78
2, 53868, Note_off_c, 1, 63, 64
2, 53872, Note_off_c, 1, 75, 64
2, 53940, Note_on_c, 1, 67, 77
2, 53948, Note_off_c, 1, 45, 64
2, 53948, Note_off_c, 1, 57, 64
2, 54032, Note_off_c, 1, 67, 64
2, 54044, Note_on_c, 1, 58, 56
2, 54048, Note_on_c, 1, 75, 67
2, 54048, Note_on_c, 1, 46, 67
2, 54048, Note_on_c, 1, 63, 69
2, 54076, Note_off_c, 1, 46, 64
2, 54088, Note_off_c, 1, 58, 64
2, 54140, Note_on_c, 1, 67, 77
2, 54172, Note_off_c, 1, 75, 64
2, 54240, Note_on_c, 1, 70, 54
2, 54248, Note_on_c, 1, 61, 52
2, 54252, Note_off_c, 1, 67, 0
2, 54252, Note_on_c, 1, 51, 54
2, 54252, Note_on_c, 1, 55, 70
2, 54256, Note_off_c, 1, 63, 0
2, 54260, Note_off_c, 1, 70, 64
2, 54344, Note_on_c, 1, 75, 69
2, 54344, Note_on_c, 1, 63, 66
2, 54352, Note_off_c, 1, 61, 64
2, 54356, Note_off_c, 1, 51, 64
2, 54356, Note_off_c, 1, 55, 64
2, 54456, Note_on_c, 1, 61, 56
2, 54456, Note_on_c, 1, 51, 55
2, 54456, Note_on_c, 1, 55, 71
2, 54464, Control_c, 1, 64, 127
2, 54468, Note_off_c, 1, 61, 64
2, 54472, Note_off_c, 1, 51, 64
2, 54472, Note_off_c, 1, 55, 64
2, 54548, Control_c, 1, 64, 0
2, 54556, Note_off_c, 1, 63, 64
2, 54576, Note_off_c, 1, 75, 64
2, 54664, Note_on_c, 1, 39, 59
2, 54664, Note_on_c, 1, 51, 49
2, 54680, Note_off_c, 1, 39, 64
2, 54684, Note_off_c, 1, 51, 64
2, 54868, Note_on_c, 1, 44, 54
2, 54868, Note_on_c, 1, 56, 47
2, 54888, Note_off_c, 1, 44, 64
2, 54888, Note_off_c, 1, 56, 64
2, 54964, Note_on_c, 1, 68, 50
2, 55052, Note_off_c, 1, 68, 64
2, 55064, Note_on_c, 1, 75, 65
2, 55064, Note_on_c, 1, 51, 51
2, 55068, Note_on_c, 1, 56, 35
2, 55068, Note_on_c, 1, 60, 36
2, 55068, Note_on_c, 1, 63, 33
2, 55144, Note_off_c, 1, 56, 64
2, 55152, Note_on_c, 1, 68, 54
2, 55156, Note_off_c, 1, 51, 64
2, 55156, Note_off_c, 1, 60, 64
2, 55164, Note_off_c, 1, 63, 64
2, 55176, Note_off_c, 1, 75, 64
2, 55260, Note_on_c, 1, 51, 38
2, 55260, Note_on_c, 1, 56, 39
2, 55264, Note_on_c, 1, 60, 36
2, 55264, Note_on_c, 1, 72, 34
2, 55284, Note_off_c, 1, 68, 64
2, 55288, Note_off_c, 1, 72, 64
2, 55344, Note_off_c, 1, 60, 64
2, 55352, Note_off_c, 1, 51, 64
2, 55352, Note_off_c, 1, 56, 64
2, 55356, Note_on_c, 1, 75, 56
2, 55360, Note_on_c, 1, 63, 50
2, 55460, Note_on_c, 1, 57, 49
2, 55464, Note_on_c, 1, 45, 42
2, 55480, Note_off_c, 1, 45, 64
2, 55488, Note_off_c, 1, 57, 64
2, 55552, Note_on_c, 1, 67, 40
2, 55560, Note_off_c, 1, 63, 0
2, 55588, Note_off_c, 1, 75, 0
2, 55656, Note_off_c, 1, 67, 64
2, 55656, Note_on_c, 1, 75, 60
2, 55660, Note_on_c, 1, 46, 63
2, 55660, Note_on_c, 1, 63, 54
2, 55668, Note_on_c, 1, 58, 53
2, 55676, Note_off_c, 1, 46, 64
2, 55680, Note_off_c, 1, 58, 64
2, 55760, Note_on_c, 1, 67, 52
2, 55776, Note_off_c, 1, 63, 64
2, 55856, Note_on_c, 1, 70, 43
2, 55860, Note_on_c, 1, 51, 55
2, 55864, Note_on_c, 1, 55, 43
2, 55864, Note_on_c, 1, 61, 45
2, 55868, Note_off_c, 1, 75, 64
2, 55868, Note_off_c, 1, 67, 64
2, 55872, Note_off_c, 1, 70, 64
2, 55956, Note_on_c, 1, 75, 67
2, 55960, Note_on_c, 1, 63, 57
2, 55964, Note_off_c, 1, 55, 64
2, 55976, Note_off_c, 1, 51, 64
2, 55976, Note_off_c, 1, 61, 64
2, 56056, Note_on_c, 1, 61, 40
2, 56056, Note_on_c, 1, 51, 52
2, 56064, Note_on_c, 1, 55, 43
2, 56068, Control_c, 1, 64, 127
2, 56088, Note_off_c, 1, 61, 64
2, 56088, Note_off_c, 1, 55, 64
2, 56128, Note_off_c, 1, 51, 64
2, 56252, Note_off_c, 1, 75, 64
2, 56256, Note_off_c, 1, 63, 64
2, 56260, Note_on_c, 1, 39, 80
2, 56260, Note_on_c, 1, 51, 75
2, 56264, Control_c, 1, 64, 0
2, 56288, Control_c, 1, 64, 127
2, 56348, Note_off_c, 1, 39, 64
2, 56352, Note_off_c, 1, 51, 64
2, 56460, Note_on_c, 1, 52, 85
2, 56460, Note_on_c, 1, 40, 73
2, 56464, Control_c, 1, 64, 0
2, 56560, Note_on_c, 1, 64, 64
2, 56652, Note_on_c, 1, 68, 64
2, 56676, Control_c, 1, 64, 127
2, 56696, Note_off_c, 1, 64, 64
2, 56700, Note_off_c, 1, 68, 64
2, 56756, Control_c, 1, 64, 0
2, 56768, Note_on_c, 1, 76, 73
2, 56772, Note_on_c, 1, 64, 64
2, 56780, Control_c, 1, 64, 127
2, 56800, Note_off_c, 1, 52, 0
2, 56804, Note_off_c, 1, 40, 0
2, 56852, Control_c, 1, 64, 0
2, 56856, Note_on_c, 1, 51, 60
2, 56860, Note_on_c, 1, 39, 65
2, 56868, Note_off_c, 1, 76, 0
2, 56872, Note_off_c, 1, 64, 0
2, 56872, Control_c, 1, 64, 127
2, 56944, Control_c, 1, 64, 0
2, 56956, Note_on_c, 1, 75, 71
2, 56960, Note_on_c, 1, 63, 69
2, 56976, Control_c, 1, 64, 127
2, 56996, Note_off_c, 1, 51, 64
2, 57008, Note_off_c, 1, 39, 64
2, 57044, Control_c, 1, 64, 0
2, 57052, Note_off_c, 1, 63, 64
2, 57052, Note_on_c, 1, 51, 77
2, 57056, Note_off_c, 1, 75, 64
2, 57056, Note_on_c, 1, 39, 69
2, 57112, Control_c, 1, 64, 127
2, 57148, Note_off_c, 1, 39, 64
2, 57156, Note_on_c, 1, 75, 78
2, 57156, Note_on_c, 1, 63, 78
2, 57160, Note_off_c, 1, 51, 64
2, 57244, Note_off_c, 1, 63, 64
2, 57252, Note_off_c, 1, 75, 64
2, 57252, Note_on_c, 1, 40, 62
2, 57256, Note_on_c, 1, 52, 83
2, 57256, Control_c, 1, 64, 0
2, 57344, Note_on_c, 1, 68, 61
2, 57380, Control_c, 1, 64, 127
2, 57464, Note_on_c, 1, 71, 61
2, 57472, Note_off_c, 1, 68, 64
2, 57480, Note_off_c, 1, 71, 64
2, 57540, Control_c, 1, 64, 0
2, 57552, Control_c, 1, 64, 127
2, 57568, Note_on_c, 1, 76, 54
2, 57568, Note_on_c, 1, 64, 44
2, 57580, Note_off_c, 1, 52, 64
2, 57584, Note_off_c, 1, 40, 64
2, 57656, Note_on_c, 1, 51, 52
2, 57656, Note_on_c, 1, 39, 52
2, 57668, Note_off_c, 1, 64, 64
2, 57672, Control_c, 1, 64, 0
2, 57692, Note_off_c, 1, 76, 64
2, 57776, Note_on_c, 1, 75, 45
2, 57776, Note_on_c, 1, 63, 36
2, 57820, Control_c, 1, 64, 127
2, 57856, Note_off_c, 1, 51, 64
2, 57896, Note_off_c, 1, 39, 64
2, 57920, Note_off_c, 1, 63, 64
2, 57956, Note_off_c, 1, 75, 64
2, 57980, Control_c, 1, 64, 0
2, 58072, Note_on_c, 1, 32, 120
2, 58092, Note_off_c, 1, 32, 0
2, 58188, Note_on_c, 1, 44, 56
2, 58232, Note_off_c, 1, 44, 64
2, 58284, Note_on_c, 1, 47, 75
2, 58296, Note_off_c, 1, 47, 64
2, 58392, Note_on_c, 1, 56, 67
2, 58392, Control_c, 1, 64, 127
2, 58408, Note_off_c, 1, 56, 64
2, 58488, Note_on_c, 1, 44, 107
2, 58496, Note_off_c, 1, 44, 64
2, 58496, Control_c, 1, 64, 0
2, 58584, Note_on_c, 1, 56, 65
2, 58592, Note_off_c, 1, 56, 64
2, 58680, Note_on_c, 1, 59, 75
2, 58704, Note_off_c, 1, 59, 64
2, 58788, Note_on_c, 1, 68, 69
2, 58788, Control_c, 1, 64, 127
2, 58804, Note_off_c, 1, 68, 64
2, 58888, Note_on_c, 1, 56, 85
2, 58892, Control_c, 1, 64, 0
2, 58896, Note_off_c, 1, 56, 64
2, 58984, Note_on_c, 1, 68, 65
2, 59000, Note_off_c, 1, 68, 64
2, 59096, Note_on_c, 1, 71, 73
2, 59108, Note_off_c, 1, 71, 64
2, 59200, Note_on_c, 1, 80, 71
2, 59204, Control_c, 1, 64, 127
2, 59244, Note_off_c, 1, 80, 64
2, 59292, Note_on_c, 1, 68, 60
2, 59308, Control_c, 1, 64, 0
2, 59400, Note_on_c, 1, 80, 61
2, 59404, Note_off_c, 1, 68, 0
2, 59412, Control_c, 1, 64, 127
2, 59448, Note_off_c, 1, 80, 64
2, 59500, Note_on_c, 1, 83, 78
2, 59524, Note_off_c, 1, 83, 64
2, 59616, Note_on_c, 1, 92, 77
2, 59632, Note_off_c, 1, 92, 64
2, 59720, Note_on_c, 1, 92, 69
2, 59728, Note_on_c, 1, 80, 68
2, 59728, Note_on_c, 1, 65, 42
2, 59728, Note_on_c, 1, 68, 48
2, 59732, Note_on_c, 1, 71, 40
2, 59732, Note_on_c, 1, 62, 36
2, 59732, Control_c, 1, 64, 0
2, 59744, Control_c, 1, 64, 127
2, 59796, Note_off_c, 1, 92, 64
2, 59800, Note_off_c, 1, 80, 64
2, 59804, Note_off_c, 1, 68, 64
2, 59808, Note_off_c, 1, 65, 64
2, 59808, Note_off_c, 1, 71, 64
2, 59808, Note_off_c, 1, 62, 64
2, 59916, Note_on_c, 1, 80, 70
2, 59916, Note_on_c, 1, 92, 65
2, 59920, Note_on_c, 1, 65, 53
2, 59920, Note_on_c, 1, 68, 51
2, 59920, Note_on_c, 1, 71, 41
2, 59924, Note_on_c, 1, 62, 36
2, 59964, Note_off_c, 1, 80, 64
2, 59968, Note_off_c, 1, 92, 64
2, 59988, Note_off_c, 1, 68, 64
2, 59996, Note_off_c, 1, 71, 64
2, 60000, Note_off_c, 1, 65, 64
2, 60000, Note_off_c, 1, 62, 64
2, 60108, Note_on_c, 1, 92, 55
2, 60116, Note_on_c, 1, 80, 60
2, 60120, Note_on_c, 1, 68, 44
2, 60124, Note_on_c, 1, 62, 40
2, 60124, Note_on_c, 1, 65, 40
2, 60124, Note_on_c, 1, 71, 40
2, 60156, Note_off_c, 1, 80, 64
2, 60176, Note_off_c, 1, 92, 64
2, 60212, Note_off_c, 1, 68, 64
2, 60216, Note_off_c, 1, 71, 64
2, 60220, Note_off_c, 1, 62, 64
2, 60220, Note_off_c, 1, 65, 64
2, 60312, Note_on_c, 1, 92, 63
2, 60316, Note_on_c, 1, 68, 43
2, 60316, Note_on_c, 1, 62, 51
2, 60320, Note_on_c, 1, 80, 64
2, 60324, Note_on_c, 1, 65, 39
2, 60324, Note_on_c, 1, 71, 38
2, 60332, Note_off_c, 1, 92, 64
2, 60332, Note_off_c, 1, 80, 64
2, 60364, Note_off_c, 1, 65, 64
2, 60368, Note_off_c, 1, 68, 64
2, 60368, Note_off_c, 1, 62, 64
2, 60368, Note_off_c, 1, 71, 64
2, 60372, Control_c, 1, 64, 0
2, 60436, Note_on_c, 1, 92, 88
2, 60440, Note_on_c, 1, 80, 100
2, 60520, Control_c, 1, 64, 127
2, 60524, Note_on_c, 1, 63, 65
2, 60528, Note_on_c, 1, 72, 70
2, 60528, Note_on_c, 1, 68, 63
2, 60616, Note_on_c, 1, 87, 63
2, 60620, Note_off_c, 1, 92, 64
2, 60636, Note_off_c, 1, 80, 64
2, 60648, Note_off_c, 1, 87, 64
2, 60676, Note_off_c, 1, 63, 64
2, 60676, Note_off_c, 1, 72, 64
2, 60676, Note_off_c, 1, 68, 64
2, 60728, Note_on_c, 1, 80, 67
2, 60728, Note_on_c, 1, 89, 78
2, 60728, Note_on_c, 1, 72, 60
2, 60732, Note_on_c, 1, 63, 59
2, 60736, Note_on_c, 1, 68, 43
2, 60824, Note_on_c, 1, 84, 73
2, 60828, Note_off_c, 1, 72, 64
2, 60832, Note_off_c, 1, 63, 64
2, 60832, Note_off_c, 1, 68, 64
2, 60860, Note_off_c, 1, 89, 64
2, 60924, Note_on_c, 1, 87, 60
2, 60928, Note_off_c, 1, 84, 64
2, 60928, Note_on_c, 1, 72, 66
2, 60936, Note_off_c, 1, 80, 64
2, 60936, Note_on_c, 1, 68, 53
2, 60936, Note_on_c, 1, 63, 53
2, 60944, Note_off_c, 1, 87, 64
2, 61028, Note_on_c, 1, 80, 61
2, 61028, Note_on_c, 1, 89, 66
2, 61032, Note_off_c, 1, 68, 64
2, 61032, Note_off_c, 1, 63, 64
2, 61040, Note_off_c, 1, 72, 64
2, 61040, Note_off_c, 1, 80, 64
2, 61044, Note_off_c, 1, 89, 64
2, 61132, Note_on_c, 1, 63, 61
2, 61132, Note_on_c, 1, 72, 68
2, 61132, Note_on_c, 1, 68, 60
2, 61136, Control_c, 1, 64, 0
2, 61224, Note_off_c, 1, 68, 64
2, 61228, Note_off_c, 1, 72, 64
2, 61240, Note_off_c, 1, 63, 64
2, 61240, Note_on_c, 1, 80, 96
2, 61240, Note_on_c, 1, 76, 93
2, 61348, Note_on_c, 1, 64, 56
2, 61352, Note_on_c, 1, 71, 51
2, 61352, Note_on_c, 1, 68, 39
2, 61352, Control_c, 1, 64, 127
2, 61436, Note_off_c, 1, 68, 64
2, 61440, Note_on_c, 1, 82, 69
2, 61444, Note_off_c, 1, 64, 64
2, 61444, Note_off_c, 1, 80, 64
2, 61452, Note_off_c, 1, 71, 64
2, 61456, Note_off_c, 1, 76, 64
2, 61460, Note_off_c, 1, 82, 64
2, 61536, Note_on_c, 1, 83, 80
2, 61544, Note_on_c, 1, 76, 71
2, 61544, Note_on_c, 1, 64, 59
2, 61544, Note_on_c, 1, 71, 54
2, 61548, Note_on_c, 1, 68, 39
2, 61548, Control_c, 1, 64, 0
2, 61552, Control_c, 1, 64, 127
2, 61580, Note_off_c, 1, 64, 64
2, 61584, Note_off_c, 1, 71, 64
2, 61584, Note_off_c, 1, 68, 64
2, 61636, Note_on_c, 1, 80, 66
2, 61648, Note_off_c, 1, 83, 64
2, 61736, Note_on_c, 1, 82, 43
2, 61736, Note_on_c, 1, 72, 51
2, 61740, Note_off_c, 1, 80, 64
2, 61748, Note_off_c, 1, 82, 64
2, 61748, Note_on_c, 1, 63, 42
2, 61748, Note_on_c, 1, 68, 37
2, 61748, Control_c, 1, 64, 0
2, 61752, Note_off_c, 1, 76, 64
2, 61840, Note_on_c, 1, 84, 80
2, 61844, Note_on_c, 1, 75, 77
2, 61848, Control_c, 1, 64, 127
2, 61852, Note_off_c, 1, 68, 64
2, 61856, Note_off_c, 1, 72, 64
2, 61856, Note_off_c, 1, 63, 64
2, 61944, Note_on_c, 1, 63, 66
2, 61944, Note_on_c, 1, 72, 70
2, 61948, Note_on_c, 1, 68, 50
2, 61972, Control_c, 1, 64, 0
2, 62020, Control_c, 1, 64, 127
2, 62040, Note_on_c, 1, 80, 75
2, 62044, Note_off_c, 1, 75, 0
2, 62048, Note_off_c, 1, 84, 0
2, 62056, Note_off_c, 1, 63, 0
2, 62056, Note_off_c, 1, 68, 0
2, 62056, Note_off_c, 1, 80, 64
2, 62060, Note_off_c, 1, 72, 0
2, 62128, Note_on_c, 1, 84, 80
2, 62132, Note_on_c, 1, 75, 77
2, 62136, Note_on_c, 1, 63, 62
2, 62140, Note_on_c, 1, 72, 68
2, 62140, Note_on_c, 1, 68, 56
2, 62140, Control_c, 1, 64, 0
2, 62224, Control_c, 1, 64, 127
2, 62236, Note_on_c, 1, 80, 75
2, 62240, Note_off_c, 1, 72, 64
2, 62244, Note_off_c, 1, 63, 64
2, 62252, Note_off_c, 1, 84, 64
2, 62252, Note_off_c, 1, 75, 64
2, 62252, Note_off_c, 1, 68, 64
2, 62256, Note_off_c, 1, 80, 64
2, 62344, Note_on_c, 1, 82, 80
2, 62344, Note_on_c, 1, 67, 66
2, 62344, Note_on_c, 1, 75, 77
2, 62348, Note_on_c, 1, 73, 61
2, 62348, Note_on_c, 1, 63, 51
2, 62348, Control_c, 1, 64, 0
2, 62372, Control_c, 1, 64, 127
2, 62428, Note_off_c, 1, 73, 64
2, 62428, Note_off_c, 1, 63, 64
2, 62432, Note_off_c, 1, 75, 64
2, 62436, Note_off_c, 1, 82, 64
2, 62436, Note_off_c, 1, 67, 64
2, 62532, Note_on_c, 1, 68, 54
2, 62540, Note_on_c, 1, 75, 57
2, 62540, Note_on_c, 1, 72, 54
2, 62540, Note_on_c, 1, 80, 66
2, 62540, Control_c, 1, 64, 0
2, 62548, Control_c, 1, 64, 127
2, 62576, Note_off_c, 1, 68, 64
2, 62580, Note_off_c, 1, 75, 64
2, 62580, Note_off_c, 1, 72, 64
2, 62584, Note_off_c, 1, 80, 64
2, 62616, Control_c, 1, 64, 0
2, 62840, Note_on_c, 1, 80, 100
2, 62844, Note_on_c, 1, 68, 96
2, 62944, Note_on_c, 1, 59, 93
2, 62944, Note_on_c, 1, 53, 108
2, 62944, Note_on_c, 1, 50, 100
2, 62944, Note_on_c, 1, 56, 90
2, 62952, Note_off_c, 1, 53, 64
2, 62952, Note_off_c, 1, 56, 64
2, 62952, Control_c, 1, 64, 127
2, 62960, Note_off_c, 1, 59, 64
2, 62964, Note_off_c, 1, 50, 64
2, 63092, Note_off_c, 1, 68, 64
2, 63100, Note_off_c, 1, 80, 64
2, 63152, Note_on_c, 1, 80, 73
2, 63152, Note_on_c, 1, 68, 80
2, 63152, Note_on_c, 1, 56, 54
2, 63156, Note_on_c, 1, 50, 41
2, 63160, Note_on_c, 1, 59, 39
2, 63176, Note_off_c, 1, 56, 64
2, 63180, Note_off_c, 1, 50, 64
2, 63180, Note_off_c, 1, 59, 64
2, 63256, Note_off_c, 1, 68, 0
2, 63260, Note_off_c, 1, 80, 0
2, 63344, Note_on_c, 1, 56, 56
2, 63344, Note_on_c, 1, 80, 80
2, 63344, Note_on_c, 1, 68, 77
2, 63344, Note_on_c, 1, 53, 49
2, 63344, Note_on_c, 1, 59, 49
2, 63352, Note_on_c, 1, 50, 35
2, 63364, Note_off_c, 1, 56, 64
2, 63368, Note_off_c, 1, 53, 64
2, 63368, Note_off_c, 1, 59, 64
2, 63368, Note_off_c, 1, 50, 64
2, 63448, Note_off_c, 1, 68, 64
2, 63452, Note_off_c, 1, 80, 64
2, 63528, Note_on_c, 1, 56, 37
2, 63528, Note_on_c, 1, 50, 37
2, 63528, Note_on_c, 1, 80, 66
2, 63536, Note_on_c, 1, 59, 39
2, 63536, Note_on_c, 1, 53, 34
2, 63540, Note_on_c, 1, 68, 66
2, 63544, Note_off_c, 1, 56, 64
2, 63548, Note_off_c, 1, 50, 64
2, 63548, Note_off_c, 1, 80, 64
2, 63548, Note_off_c, 1, 59, 64
2, 63552, Note_off_c, 1, 53, 64
2, 63552, Note_off_c, 1, 68, 64
2, 63556, Control_c, 1, 64, 0
2, 63632, Note_on_c, 1, 68, 96
2, 63632, Note_on_c, 1, 80, 96
2, 63728, Control_c, 1, 64, 127
2, 63732, Note_on_c, 1, 56, 64
2, 63732, Note_on_c, 1, 51, 66
2, 63732, Note_on_c, 1, 60, 71
2, 63740, Note_off_c, 1, 80, 64
2, 63752, Note_off_c, 1, 68, 64
2, 63832, Note_on_c, 1, 75, 77
2, 63844, Note_off_c, 1, 56, 64
2, 63844, Note_off_c, 1, 51, 64
2, 63848, Note_off_c, 1, 60, 64
2, 63852, Note_off_c, 1, 75, 64
2, 63936, Control_c, 1, 64, 0
2, 63940, Note_on_c, 1, 56, 44
2, 63944, Note_on_c, 1, 77, 85
2, 63944, Note_on_c, 1, 60, 47
2, 63944, Note_on_c, 1, 51, 37
2, 63944, Note_on_c, 1, 68, 73
2, 64028, Note_off_c, 1, 56, 64
2, 64028, Note_off_c, 1, 60, 64
2, 64032, Note_off_c, 1, 51, 64
2, 64036, Note_on_c, 1, 72, 68
2, 64132, Note_on_c, 1, 75, 68
2, 64144, Note_off_c, 1, 77, 64
2, 64148, Note_off_c, 1, 68, 64
2, 64148, Note_off_c, 1, 72, 64
2, 64148, Note_off_c, 1, 75, 64
2, 64148, Note_on_c, 1, 51, 49
2, 64148, Note_on_c, 1, 60, 54
2, 64148, Note_on_c, 1, 56, 46
2, 64244, Note_off_c, 1, 56, 64
2, 64248, Note_off_c, 1, 51, 64
2, 64248, Note_on_c, 1, 77, 73
2, 64248, Note_on_c, 1, 68, 67
2, 64252, Note_off_c, 1, 60, 64
2, 64332, Note_off_c, 1, 77, 64
2, 64332, Note_off_c, 1, 68, 64
2, 64344, Note_on_c, 1, 56, 52
2, 64348, Note_on_c, 1, 60, 51
2, 64348, Note_on_c, 1, 51, 42
2, 64396, Note_off_c, 1, 56, 64
2, 64412, Note_off_c, 1, 60, 64
2, 64424, Note_off_c, 1, 51, 64
2, 64436, Note_on_c, 1, 68, 88
2, 64444, Note_on_c, 1, 64, 90
2, 64544, Note_on_c, 1, 52, 62
2, 64544, Note_on_c, 1, 59, 62
2, 64552, Note_on_c, 1, 56, 35
2, 64632, Control_c, 1, 64, 127
2, 64636, Note_on_c, 1, 70, 66
2, 64644, Note_off_c, 1, 59, 64
2, 64648, Note_off_c, 1, 68, 0
2, 64648, Note_off_c, 1, 52, 64
2, 64648, Note_off_c, 1, 56, 64
2, 64660, Note_off_c, 1, 70, 64
2, 64672, Note_off_c, 1, 64, 0
2, 64740, Note_on_c, 1, 64, 78
2, 64740, Note_on_c, 1, 52, 58
2, 64740, Note_on_c, 1, 71, 77
2, 64740, Note_on_c, 1, 59, 49
2, 64740, Note_on_c, 1, 56, 40
2, 64744, Control_c, 1, 64, 0
2, 64804, Note_off_c, 1, 56, 64
2, 64832, Note_off_c, 1, 52, 64
2, 64832, Note_off_c, 1, 59, 64
2, 64832, Control_c, 1, 64, 127
2, 64844, Note_on_c, 1, 68, 66
2, 64856, Note_off_c, 1, 71, 64
2, 64932, Note_on_c, 1, 70, 68
2, 64936, Control_c, 1, 64, 0
2, 64944, Note_off_c, 1, 68, 64
2, 64944, Note_on_c, 1, 51, 47
2, 64948, Note_on_c, 1, 60, 58
2, 64948, Note_on_c, 1, 56, 38
2, 64956, Note_off_c, 1, 70, 64
2, 64964, Note_off_c, 1, 64, 64
2, 64968, Control_c, 1, 64, 127
2, 65048, Note_on_c, 1, 63, 62
2, 65052, Note_on_c, 1, 72, 71
2, 65052, Control_c, 1, 64, 0
2, 65064, Note_off_c, 1, 56, 64
2, 65072, Note_off_c, 1, 51, 64
2, 65072, Note_off_c, 1, 60, 64
2, 65152, Note_on_c, 1, 51, 54
2, 65152, Note_on_c, 1, 60, 61
2, 65152, Note_on_c, 1, 56, 60
2, 65244, Note_on_c, 1, 68, 67
2, 65248, Control_c, 1, 64, 127
2, 65252, Note_off_c, 1, 72, 64
2, 65256, Note_off_c, 1, 56, 64
2, 65272, Note_off_c, 1, 51, 64
2, 65272, Note_off_c, 1, 60, 64
2, 65276, Note_off_c, 1, 68, 64
2, 65280, Note_off_c, 1, 63, 64
2, 65320, Control_c, 1, 64, 0
2, 65348, Note_on_c, 1, 72, 71
2, 65356, Note_on_c, 1, 51, 49
2, 65356, Note_on_c, 1, 60, 54
2, 65356, Note_on_c, 1, 63, 65
2, 65356, Note_on_c, 1, 56, 45
2, 65436, Note_on_c, 1, 68, 64
2, 65448, Note_off_c, 1, 56, 64
2, 65452, Note_off_c, 1, 51, 64
2, 65452, Note_off_c, 1, 60, 64
2, 65464, Note_off_c, 1, 72, 64
2, 65464, Note_off_c, 1, 68, 64
2, 65468, Note_off_c, 1, 63, 64
2, 65548, Note_on_c, 1, 61, 37
2, 65548, Note_on_c, 1, 70, 67
2, 65548, Note_on_c, 1, 63, 58
2, 65548, Note_on_c, 1, 55, 63
2, 65564, Note_on_c, 1, 51, 32
2, 65576, Control_c, 1, 64, 127
2, 65600, Control_c, 1, 64, 0
2, 65604, Note_off_c, 1, 51, 64
2, 65608, Note_off_c, 1, 70, 64
2, 65608, Note_off_c, 1, 55, 64
2, 65616, Note_off_c, 1, 61, 64
2, 65616, Note_off_c, 1, 63, 64
2, 65744, Control_c, 1, 64, 127
2, 65748, Note_on_c, 1, 68, 62
2, 65748, Note_on_c, 1, 63, 59
2, 65752, Note_on_c, 1, 60, 40
2, 65752, Note_on_c, 1, 56, 38
2, 65764, Note_off_c, 1, 63, 64
2, 65768, Note_off_c, 1, 68, 64
2, 65792, Note_off_c, 1, 56, 64
2, 65796, Note_off_c, 1, 60, 64
2, 65848, Control_c, 1, 64, 0
2, 65948, Control_c, 1, 64, 127
2, 65964, Note_on_c, 1, 80, 100
2, 65964, Note_on_c, 1, 68, 108
2, 66036, Note_off_c, 1, 68, 64
2, 66052, Note_off_c, 1, 80, 64
2, 66140, Control_c, 1, 64, 0
2, 66212, Note_on_c, 1, 72, 108
2, 66216, Note_on_c, 1, 51, 122
2, 66220, Note_on_c, 1, 39, 122
2, 66220, Note_on_c, 1, 75, 93
2, 66220, Note_on_c, 1, 80, 90
2, 66220, Note_on_c, 1, 68, 118
2, 66228, Note_off_c, 1, 51, 64
2, 66232, Note_off_c, 1, 39, 64
2, 66416, Note_off_c, 1, 75, 0
2, 66420, Note_off_c, 1, 72, 0
2, 66424, Note_off_c, 1, 68, 0
2, 66424, Note_on_c, 1, 56, 83
2, 66428, Note_on_c, 1, 66, 90
2, 66428, Note_on_c, 1, 60, 73
2, 66436, Note_off_c, 1, 80, 0
2, 66436, Note_off_c, 1, 56, 64
2, 66436, Note_off_c, 1, 66, 64
2, 66436, Note_off_c, 1, 60, 64
2, 66436, Control_c, 1, 64, 0
2, 66524, Note_on_c, 1, 80, 93
2, 66528, Note_on_c, 1, 72, 108
2, 66528, Note_on_c, 1, 75, 108
2, 66528, Note_on_c, 1, 70, 104
2, 66636, Note_off_c, 1, 72, 64
2, 66636, Note_off_c, 1, 75, 64
2, 66636, Note_on_c, 1, 54, 108
2, 66636, Note_on_c, 1, 42, 118
2, 66640, Note_off_c, 1, 42, 64
2, 66640, Control_c, 1, 64, 127
2, 66644, Note_off_c, 1, 54, 64
2, 66644, Control_c, 1, 64, 0
2, 66688, Note_off_c, 1, 70, 64
2, 66736, Note_on_c, 1, 75, 78
2, 66736, Note_on_c, 1, 72, 80
2, 66836, Note_off_c, 1, 72, 64
2, 66836, Note_on_c, 1, 70, 104
2, 66840, Note_on_c, 1, 66, 100
2, 66840, Note_on_c, 1, 60, 80
2, 66840, Note_off_c, 1, 60, 64
2, 66840, Note_on_c, 1, 72, 75
2, 66844, Note_off_c, 1, 66, 64
2, 66844, Note_on_c, 1, 56, 77
2, 66848, Note_off_c, 1, 56, 64
2, 66900, Note_off_c, 1, 70, 64
2, 66908, Note_off_c, 1, 72, 64
2, 66912, Note_off_c, 1, 75, 64
2, 66916, Note_off_c, 1, 80, 64
2, 67044, Note_on_c, 1, 80, 100
2, 67044, Note_on_c, 1, 75, 112
2, 67052, Note_on_c, 1, 72, 112
2, 67052, Note_on_c, 1, 41, 100
2, 67052, Note_on_c, 1, 68, 122
2, 67052, Note_on_c, 1, 53, 93
2, 67052, Control_c, 1, 64, 127
2, 67060, Note_off_c, 1, 41, 64
2, 67064, Note_off_c, 1, 53, 64
2, 67232, Note_off_c, 1, 75, 64
2, 67236, Note_off_c, 1, 80, 64
2, 67236, Note_off_c, 1, 72, 64
2, 67236, Note_off_c, 1, 68, 64
2, 67236, Control_c, 1, 64, 0
2, 67240, Note_on_c, 1, 66, 104
2, 67240, Note_on_c, 1, 60, 80
2, 67240, Note_on_c, 1, 56, 80
2, 67304, Note_off_c, 1, 66, 64
2, 67312, Note_off_c, 1, 60, 64
2, 67332, Note_off_c, 1, 56, 64
2, 67332, Note_on_c, 1, 80, 88
2, 67332, Note_on_c, 1, 72, 108
2, 67336, Note_on_c, 1, 75, 100
2, 67336, Note_on_c, 1, 70, 104
2, 67432, Note_off_c, 1, 72, 64
2, 67432, Control_c, 1, 64, 127
2, 67440, Note_off_c, 1, 75, 64
2, 67440, Note_on_c, 1, 39, 104
2, 67440, Note_on_c, 1, 51, 96
2, 67448, Note_off_c, 1, 70, 64
2, 67452, Note_off_c, 1, 39, 64
2, 67452, Note_off_c, 1, 51, 64
2, 67528, Note_on_c, 1, 75, 85
2, 67528, Note_on_c, 1, 72, 90
2, 67616, Note_off_c, 1, 72, 0
2, 67620, Note_off_c, 1, 75, 0
2, 67620, Note_on_c, 1, 36, 104
2, 67620, Control_c, 1, 64, 0
2, 67628, Note_on_c, 1, 48, 108
2, 67632, Note_on_c, 1, 70, 100
2, 67644, Control_c, 1, 64, 127
2, 67664, Note_off_c, 1, 48, 64
2, 67668, Note_off_c, 1, 36, 64
2, 67704, Note_off_c, 1, 70, 64
2, 67732, Note_on_c, 1, 72, 85
2, 67732, Note_on_c, 1, 75, 75
2, 67756, Control_c, 1, 64, 0
2, 67808, Note_off_c, 1, 72, 64
2, 67816, Note_off_c, 1, 75, 64
2, 67816, Note_on_c, 1, 37, 90
2, 67820, Note_on_c, 1, 68, 100
2, 67820, Note_on_c, 1, 49, 122
2, 67832, Note_off_c, 1, 37, 64
2, 67832, Control_c, 1, 64, 127
2, 67836, Note_off_c, 1, 49, 64
2, 67880, Note_off_c, 1, 80, 0
2, 67924, Note_on_c, 1, 73, 78
2, 67936, Note_off_c, 1, 68, 64
2, 68028, Note_off_c, 1, 73, 64
2, 68028, Note_on_c, 1, 61, 69
2, 68028, Note_on_c, 1, 56, 70
2, 68032, Note_on_c, 1, 65, 85
2, 68032, Note_on_c, 1, 70, 83
2, 68040, Note_off_c, 1, 61, 64
2, 68040, Note_off_c, 1, 56, 64
2, 68040, Note_off_c, 1, 65, 64
2, 68120, Note_off_c, 1, 70, 64
2, 68124, Note_on_c, 1, 73, 75
2, 68204, Control_c, 1, 64, 0
2, 68224, Note_off_c, 1, 73, 64
2, 68232, Note_on_c, 1, 77, 78
2, 68232, Note_on_c, 1, 44, 85
2, 68232, Note_on_c, 1, 56, 75
2, 68260, Control_c, 1, 64, 127
2, 68284, Note_off_c, 1, 44, 64
2, 68284, Note_off_c, 1, 56, 64
2, 68336, Note_on_c, 1, 68, 66
2, 68352, Control_c, 1, 64, 0
2, 68432, Note_off_c, 1, 77, 64
2, 68440, Note_on_c, 1, 73, 70
2, 68440, Note_on_c, 1, 56, 58
2, 68440, Note_on_c, 1, 65, 64
2, 68440, Note_on_c, 1, 61, 51
2, 68444, Note_off_c, 1, 68, 64
2, 68448, Control_c, 1, 64, 127
2, 68452, Note_off_c, 1, 65, 64
2, 68456, Note_off_c, 1, 61, 64
2, 68468, Note_off_c, 1, 56, 64
2, 68532, Control_c, 1, 64, 0
2, 68536, Note_off_c, 1, 73, 64
2, 68540, Note_on_c, 1, 77, 68
2, 68636, Note_on_c, 1, 53, 70
2, 68636, Note_on_c, 1, 41, 66
2, 68640, Note_off_c, 1, 41, 64
2, 68640, Note_on_c, 1, 70, 66
2, 68644, Note_off_c, 1, 77, 64
2, 68648, Note_off_c, 1, 53, 64
2, 68648, Control_c, 1, 64, 127
2, 68720, Control_c, 1, 64, 0
2, 68732, Note_on_c, 1, 73, 64
2, 68748, Note_off_c, 1, 70, 64
2, 68836, Note_off_c, 1, 73, 64
2, 68840, Note_on_c, 1, 77, 73
2, 68840, Note_on_c, 1, 65, 66
2, 68844, Note_on_c, 1, 56, 39
2, 68852, Note_off_c, 1, 65, 0
2, 68868, Note_off_c, 1, 56, 0
2, 68932, Note_on_c, 1, 68, 65
2, 68936, Note_off_c, 1, 77, 0
2, 69036, Note_on_c, 1, 37, 80
2, 69036, Note_off_c, 1, 37, 64
2, 69036, Note_on_c, 1, 49, 73
2, 69036, Control_c, 1, 64, 127
2, 69044, Note_off_c, 1, 49, 64
2, 69140, Note_off_c, 1, 68, 64
2, 69140, Note_on_c, 1, 77, 77
2, 69232, Note_off_c, 1, 77, 64
2, 69236, Note_on_c, 1, 56, 69
2, 69240, Note_on_c, 1, 65, 70
2, 69244, Note_on_c, 1, 70, 71
2, 69248, Note_off_c, 1, 56, 64
2, 69248, Note_off_c, 1, 65, 64
2, 69344, Note_on_c, 1, 77, 75
2, 69352, Note_off_c, 1, 70, 64
2, 69356, Note_off_c, 1, 77, 64
2, 69444, Note_on_c, 1, 80, 93
2, 69448, Note_on_c, 1, 72, 118
2, 69452, Note_on_c, 1, 68, 118
2, 69452, Note_on_c, 1, 75, 100
2, 69452, Note_on_c, 1, 39, 122
2, 69452, Note_on_c, 1, 51, 118
2, 69452, Control_c, 1, 64, 0
2, 69472, Control_c, 1, 64, 127
2, 69488, Note_off_c, 1, 39, 64
2, 69500, Note_off_c, 1, 51, 64
2, 69644, Note_off_c, 1, 72, 64
2, 69644, Note_off_c, 1, 75, 64
2, 69652, Note_off_c, 1, 80, 64
2, 69652, Note_off_c, 1, 68, 64
2, 69656, Note_on_c, 1, 56, 93
2, 69656, Note_on_c, 1, 66, 90
2, 69660, Note_off_c, 1, 56, 64
2, 69660, Note_on_c, 1, 60, 80
2, 69660, Note_off_c, 1, 60, 64
2, 69664, Note_off_c, 1, 66, 64
2, 69760, Note_on_c, 1, 80, 93
2, 69760, Note_on_c, 1, 72, 104
2, 69760, Note_on_c, 1, 75, 80
2, 69764, Note_on_c, 1, 70, 108
2, 69812, Control_c, 1, 64, 0
2, 69860, Control_c, 1, 64, 127
2, 69868, Note_on_c, 1, 42, 118
2, 69868, Note_on_c, 1, 54, 112
2, 69872, Note_off_c, 1, 42, 64
2, 69876, Note_off_c, 1, 54, 64
2, 69912, Note_off_c, 1, 72, 64
2, 69912, Note_off_c, 1, 75, 64
2, 69944, Note_off_c, 1, 70, 64
2, 69976, Note_on_c, 1, 75, 80
2, 69976, Note_on_c, 1, 72, 90
2, 70064, Note_off_c, 1, 72, 64
2, 70072, Note_off_c, 1, 75, 64
2, 70072, Note_on_c, 1, 66, 100
2, 70072, Note_on_c, 1, 60, 88
2, 70072, Note_on_c, 1, 70, 83
2, 70072, Note_on_c, 1, 56, 90
2, 70080, Note_off_c, 1, 66, 64
2, 70080, Note_off_c, 1, 60, 64
2, 70084, Note_off_c, 1, 56, 64
2, 70164, Note_off_c, 1, 70, 64
2, 70168, Note_off_c, 1, 80, 64
2, 70252, Control_c, 1, 64, 0
2, 70268, Note_on_c, 1, 80, 80
2, 70272, Note_on_c, 1, 41, 90
2, 70272, Note_on_c, 1, 75, 78
2, 70272, Note_on_c, 1, 53, 108
2, 70272, Note_on_c, 1, 72, 88
2, 70272, Note_on_c, 1, 68, 100
2, 70272, Control_c, 1, 64, 127
2, 70288, Note_off_c, 1, 41, 64
2, 70292, Note_off_c, 1, 53, 64
2, 70456, Note_off_c, 1, 75, 64
2, 70460, Note_off_c, 1, 72, 64
2, 70460, Note_off_c, 1, 68, 64
2, 70464, Note_on_c, 1, 66, 90
2, 70472, Note_off_c, 1, 80, 64
2, 70472, Note_on_c, 1, 60, 88
2, 70472, Note_on_c, 1, 56, 85
2, 70476, Note_off_c, 1, 66, 64
2, 70480, Note_off_c, 1, 60, 64
2, 70484, Note_off_c, 1, 56, 64
2, 70564, Note_on_c, 1, 80, 80
2, 70568, Note_on_c, 1, 75, 78
2, 70568, Note_on_c, 1, 72, 83
2, 70568, Note_on_c, 1, 70, 90
2, 70652, Control_c, 1, 64, 0
2, 70656, Note_on_c, 1, 39, 104
2, 70660, Note_on_c, 1, 51, 108
2, 70664, Control_c, 1, 64, 127
2, 70680, Note_off_c, 1, 75, 64
2, 70684, Note_off_c, 1, 72, 64
2, 70712, Note_off_c, 1, 70, 64
2, 70716, Note_off_c, 1, 51, 64
2, 70728, Note_off_c, 1, 39, 64
2, 70756, Note_on_c, 1, 72, 77
2, 70760, Note_on_c, 1, 75, 69
2, 70852, Note_off_c, 1, 72, 64
2, 70856, Note_off_c, 1, 75, 64
2, 70856, Note_on_c, 1, 36, 93
2, 70856, Note_on_c, 1, 48, 111
2, 70856, Note_on_c, 1, 70, 75
2, 70864, Control_c, 1, 64, 0
2, 70888, Control_c, 1, 64, 127
2, 70936, Note_off_c, 1, 48, 64
2, 70948, Note_off_c, 1, 36, 64
2, 70968, Note_off_c, 1, 70, 64
2, 70972, Note_on_c, 1, 75, 54
2, 70976, Note_on_c, 1, 72, 71
2, 71068, Note_off_c, 1, 75, 64
2, 71068, Note_off_c, 1, 72, 64
2, 71076, Note_on_c, 1, 68, 80
2, 71076, Control_c, 1, 64, 0
2, 71080, Note_off_c, 1, 80, 64
2, 71080, Note_on_c, 1, 37, 112
2, 71080, Note_on_c, 1, 49, 112
2, 71124, Control_c, 1, 64, 127
2, 71136, Note_off_c, 1, 37, 64
2, 71140, Note_off_c, 1, 49, 64
2, 71176, Note_on_c, 1, 73, 67
2, 71184, Note_off_c, 1, 68, 64
2, 71200, Control_c, 1, 64, 0
2, 71284, Note_on_c, 1, 56, 70
2, 71284, Note_on_c, 1, 70, 80
2, 71288, Note_on_c, 1, 61, 69
2, 71288, Note_on_c, 1, 65, 69
2, 71292, Note_off_c, 1, 73, 64
2, 71292, Note_off_c, 1, 56, 64
2, 71296, Note_off_c, 1, 61, 64
2, 71300, Note_off_c, 1, 65, 64
2, 71384, Note_off_c, 1, 70, 64
2, 71388, Note_on_c, 1, 73, 78
2, 71484, Note_off_c, 1, 73, 0
2, 71488, Note_on_c, 1, 77, 93
2, 71488, Note_on_c, 1, 56, 78
2, 71488, Note_on_c, 1, 44, 75
2, 71500, Note_off_c, 1, 44, 64
2, 71504, Note_off_c, 1, 56, 64
2, 71584, Note_on_c, 1, 68, 70
2, 71684, Note_off_c, 1, 68, 64
2, 71688, Note_off_c, 1, 77, 64
2, 71692, Note_on_c, 1, 56, 68
2, 71692, Note_on_c, 1, 65, 70
2, 71692, Note_on_c, 1, 61, 61
2, 71692, Note_on_c, 1, 73, 70
2, 71700, Note_off_c, 1, 56, 64
2, 71700, Note_off_c, 1, 65, 64
2, 71700, Note_off_c, 1, 61, 64
2, 71780, Note_off_c, 1, 73, 64
2, 71784, Note_on_c, 1, 77, 71
2, 71876, Note_on_c, 1, 41, 71
2, 71876, Note_on_c, 1, 53, 75
2, 71880, Note_on_c, 1, 70, 77
2, 71892, Note_off_c, 1, 77, 64
2, 71900, Note_off_c, 1, 41, 64
2, 71908, Note_off_c, 1, 53, 64
2, 71984, Note_on_c, 1, 73, 71
2, 71996, Note_off_c, 1, 70, 64
2, 72080, Note_off_c, 1, 73, 64
2, 72084, Note_on_c, 1, 77, 85
2, 72084, Note_on_c, 1, 56, 59
2, 72088, Note_on_c, 1, 65, 62
2, 72088, Note_on_c, 1, 61, 46
2, 72096, Note_off_c, 1, 65, 64
2, 72096, Note_off_c, 1, 61, 64
2, 72104, Note_off_c, 1, 56, 64
2, 72184, Note_off_c, 1, 77, 64
2, 72184, Note_on_c, 1, 68, 75
2, 72288, Note_off_c, 1, 68, 64
2, 72288, Note_on_c, 1, 37, 108
2, 72288, Note_on_c, 1, 49, 96
2, 72376, Note_off_c, 1, 37, 64
2, 72376, Note_off_c, 1, 49, 64
2, 72376, Control_c, 1, 64, 127
2, 72384, Note_on_c, 1, 77, 96
2, 72476, Note_on_c, 1, 36, 96
2, 72480, Note_on_c, 1, 48, 90
2, 72480, Note_on_c, 1, 69, 85
2, 72480, Control_c, 1, 64, 0
2, 72484, Note_off_c, 1, 77, 64
2, 72576, Note_on_c, 1, 77, 85
2, 72576, Note_on_c, 1, 75, 80
2, 72576, Control_c, 1, 64, 127
2, 72592, Note_off_c, 1, 36, 64
2, 72592, Note_off_c, 1, 48, 64
2, 72592, Note_off_c, 1, 69, 64
2, 72592, Note_off_c, 1, 75, 64
2, 72596, Note_off_c, 1, 77, 64
2, 72668, Control_c, 1, 64, 0
2, 72680, Note_on_c, 1, 82, 90
2, 72680, Note_on_c, 1, 74, 112
2, 72680, Note_on_c, 1, 70, 108
2, 72684, Note_on_c, 1, 77, 104
2, 72684, Note_on_c, 1, 34, 118
2, 72684, Note_on_c, 1, 46, 122
2, 72688, Note_off_c, 1, 34, 64
2, 72688, Control_c, 1, 64, 127
2, 72692, Note_off_c, 1, 46, 64
2, 72796, Note_off_c, 1, 70, 0
2, 72808, Note_off_c, 1, 74, 0
2, 72808, Note_off_c, 1, 77, 0
2, 72816, Note_off_c, 1, 82, 0
2, 72896, Note_on_c, 1, 68, 96
2, 72900, Note_off_c, 1, 68, 64
2, 72900, Note_on_c, 1, 62, 67
2, 72900, Note_on_c, 1, 58, 60
2, 72904, Note_off_c, 1, 62, 64
2, 72904, Note_off_c, 1, 58, 64
2, 72988, Note_on_c, 1, 82, 93
2, 72988, Note_on_c, 1, 77, 93
2, 72988, Note_on_c, 1, 74, 100
2, 72992, Note_on_c, 1, 72, 96
2, 73044, Control_c, 1, 64, 0
2, 73080, Note_on_c, 1, 38, 85
2, 73084, Note_on_c, 1, 50, 118
2, 73084, Control_c, 1, 64, 127
2, 73092, Note_off_c, 1, 38, 64
2, 73096, Note_off_c, 1, 50, 64
2, 73140, Note_off_c, 1, 77, 64
2, 73140, Note_off_c, 1, 74, 64
2, 73164, Note_off_c, 1, 72, 64
2, 73180, Note_on_c, 1, 74, 85
2, 73184, Note_on_c, 1, 77, 88
2, 73288, Note_on_c, 1, 68, 83
2, 73292, Note_on_c, 1, 72, 93
2, 73292, Note_on_c, 1, 62, 88
2, 73292, Note_on_c, 1, 58, 73
2, 73300, Note_off_c, 1, 68, 64
2, 73300, Note_off_c, 1, 62, 64
2, 73300, Note_off_c, 1, 58, 64
2, 73360, Note_off_c, 1, 74, 64
2, 73364, Note_off_c, 1, 77, 64
2, 73364, Note_off_c, 1, 72, 64
2, 73380, Note_off_c, 1, 82, 64
2, 73476, Control_c, 1, 64, 0
2, 73496, Note_on_c, 1, 82, 96
2, 73500, Note_on_c, 1, 41, 96
2, 73500, Note_on_c, 1, 70, 108
2, 73500, Note_on_c, 1, 53, 118
2, 73500, Note_on_c, 1, 74, 108
2, 73500, Note_on_c, 1, 77, 104
2, 73504, Control_c, 1, 64, 127
2, 73516, Note_off_c, 1, 41, 64
2, 73528, Note_off_c, 1, 53, 64
2, 73604, Note_off_c, 1, 70, 64
2, 73692, Note_off_c, 1, 82, 64
2, 73696, Note_off_c, 1, 74, 64
2, 73696, Note_off_c, 1, 77, 64
2, 73708, Note_on_c, 1, 68, 90
2, 73708, Note_on_c, 1, 58, 90
2, 73712, Note_on_c, 1, 62, 77
2, 73716, Note_off_c, 1, 68, 64
2, 73720, Note_off_c, 1, 58, 64
2, 73720, Note_off_c, 1, 62, 64
2, 73800, Note_on_c, 1, 82, 85
2, 73800, Note_on_c, 1, 74, 104
2, 73800, Note_on_c, 1, 77, 93
2, 73800, Note_on_c, 1, 72, 88
2, 73884, Control_c, 1, 64, 0
2, 73896, Note_on_c, 1, 46, 122
2, 73900, Note_on_c, 1, 58, 104
2, 73904, Control_c, 1, 64, 127
2, 73908, Note_off_c, 1, 46, 64
2, 73916, Note_off_c, 1, 58, 64
2, 73920, Note_off_c, 1, 74, 64
2, 73920, Note_off_c, 1, 77, 64
2, 73960, Note_off_c, 1, 72, 64
2, 73996, Note_on_c, 1, 74, 93
2, 74000, Note_on_c, 1, 77, 90
2, 74036, Note_off_c, 1, 74, 64
2, 74044, Note_off_c, 1, 77, 64
2, 74088, Note_on_c, 1, 72, 85
2, 74100, Note_on_c, 1, 68, 93
2, 74100, Note_on_c, 1, 58, 77
2, 74104, Note_on_c, 1, 62, 90
2, 74108, Note_off_c, 1, 68, 64
2, 74112, Note_off_c, 1, 58, 64
2, 74112, Note_off_c, 1, 62, 64
2, 74180, Note_off_c, 1, 72, 64
2, 74196, Note_on_c, 1, 74, 93
2, 74196, Note_on_c, 1, 77, 88
2, 74276, Note_off_c, 1, 74, 64
2, 74288, Note_off_c, 1, 77, 64
2, 74288, Control_c, 1, 64, 0
2, 74292, Note_on_c, 1, 39, 107
2, 74296, Note_on_c, 1, 51, 111
2, 74300, Note_off_c, 1, 82, 0
2, 74316, Control_c, 1, 64, 127
2, 74344, Note_off_c, 1, 39, 64
2, 74352, Note_off_c, 1, 51, 64
2, 74392, Note_on_c, 1, 75, 66
2, 74408, Note_off_c, 1, 75, 64
2, 74484, Note_on_c, 1, 66, 66
2, 74484, Note_on_c, 1, 58, 70
2, 74484, Control_c, 1, 64, 0
2, 74492, Note_on_c, 1, 63, 67
2, 74504, Note_off_c, 1, 66, 64
2, 74504, Note_on_c, 1, 82, 104
2, 74504, Note_on_c, 1, 70, 104
2, 74508, Note_off_c, 1, 63, 64
2, 74508, Control_c, 1, 64, 127
2, 74532, Note_off_c, 1, 58, 64
2, 74596, Note_off_c, 1, 70, 64
2, 74596, Note_on_c, 1, 75, 78
2, 74620, Note_off_c, 1, 82, 64
2, 74668, Control_c, 1, 64, 0
2, 74688, Note_on_c, 1, 78, 75
2, 74688, Note_on_c, 1, 42, 108
2, 74692, Note_on_c, 1, 54, 88
2, 74696, Note_off_c, 1, 75, 64
2, 74696, Note_off_c, 1, 78, 64
2, 74696, Control_c, 1, 64, 127
2, 74748, Control_c, 1, 64, 0
2, 74780, Control_c, 1, 64, 127
2, 74784, Note_off_c, 1, 42, 64
2, 74788, Note_off_c, 1, 54, 64
2, 74788, Note_on_c, 1, 84, 96
2, 74788, Note_on_c, 1, 72, 96
2, 74884, Note_off_c, 1, 84, 64
2, 74884, Note_off_c, 1, 72, 64
2, 74884, Note_on_c, 1, 66, 83
2, 74892, Note_on_c, 1, 58, 71
2, 74892, Note_on_c, 1, 63, 43
2, 74900, Note_off_c, 1, 66, 64
2, 74900, Note_off_c, 1, 58, 64
2, 74904, Note_off_c, 1, 63, 64
2, 75072, Note_on_c, 1, 39, 70
2, 75072, Control_c, 1, 64, 0
2, 75080, Note_on_c, 1, 51, 80
2, 75084, Note_on_c, 1, 82, 100
2, 75088, Control_c, 1, 64, 127
2, 75096, Note_on_c, 1, 70, 108
2, 75100, Note_off_c, 1, 39, 64
2, 75112, Note_off_c, 1, 51, 64
2, 75188, Note_on_c, 1, 75, 71
2, 75192, Note_off_c, 1, 70, 64
2, 75244, Note_off_c, 1, 82, 64
2, 75272, Note_on_c, 1, 78, 77
2, 75276, Note_on_c, 1, 66, 73
2, 75284, Note_off_c, 1, 75, 64
2, 75284, Note_on_c, 1, 58, 64
2, 75284, Note_on_c, 1, 63, 75
2, 75292, Note_off_c, 1, 78, 64
2, 75292, Note_off_c, 1, 66, 64
2, 75296, Note_off_c, 1, 58, 64
2, 75296, Note_off_c, 1, 63, 64
2, 75368, Note_on_c, 1, 84, 100
2, 75376, Note_on_c, 1, 72, 85
2, 75468, Control_c, 1, 64, 0
2, 75476, Note_on_c, 1, 42, 91
2, 75480, Note_on_c, 1, 54, 88
2, 75480, Control_c, 1, 64, 127
2, 75488, Note_off_c, 1, 42, 64
2, 75500, Note_off_c, 1, 54, 64
2, 75588, Note_off_c, 1, 84, 64
2, 75588, Note_on_c, 1, 75, 78
2, 75592, Note_off_c, 1, 72, 64
2, 75604, Note_off_c, 1, 75, 64
2, 75688, Note_on_c, 1, 82, 93
2, 75692, Note_on_c, 1, 70, 96
2, 75692, Note_on_c, 1, 58, 75
2, 75692, Note_on_c, 1, 66, 75
2, 75692, Control_c, 1, 64, 0
2, 75704, Control_c, 1, 64, 127
2, 75716, Note_off_c, 1, 66, 64
2, 75720, Note_off_c, 1, 58, 64
2, 75744, Note_off_c, 1, 70, 64
2, 75748, Note_off_c, 1, 82, 64
2, 75880, Control_c, 1, 64, 0
2, 75892, Note_on_c, 1, 55, 50
2, 75900, Note_on_c, 1, 85, 75
2, 75904, Note_on_c, 1, 76, 90
2, 75904, Note_on_c, 1, 73, 66
2, 75920, Control_c, 1, 64, 127
2, 75948, Note_off_c, 1, 76, 64
2, 75948, Note_off_c, 1, 73, 64
2, 75952, Note_off_c, 1, 85, 64
2, 75988, Note_off_c, 1, 55, 64
2, 75988, Note_on_c, 1, 58, 67
2, 75992, Note_on_c, 1, 85, 78
2, 75996, Note_on_c, 1, 76, 100
2, 75996, Control_c, 1, 64, 0
2, 76000, Note_on_c, 1, 73, 88
2, 76016, Control_c, 1, 64, 127
2, 76088, Note_off_c, 1, 76, 64
2, 76096, Note_off_c, 1, 85, 64
2, 76096, Note_off_c, 1, 73, 64
2, 76172, Note_off_c, 1, 58, 64
2, 76172, Note_on_c, 1, 85, 75
2, 76176, Note_on_c, 1, 76, 90
2, 76180, Note_on_c, 1, 73, 75
2, 76180, Note_on_c, 1, 61, 61
2, 76180, Control_c, 1, 64, 0
2, 76196, Control_c, 1, 64, 127
2, 76208, Note_off_c, 1, 76, 64
2, 76216, Note_off_c, 1, 73, 64
2, 76220, Note_off_c, 1, 85, 64
2, 76280, Note_off_c, 1, 61, 64
2, 76284, Note_on_c, 1, 84, 80
2, 76284, Note_on_c, 1, 76, 83
2, 76284, Note_on_c, 1, 72, 78
2, 76288, Note_on_c, 1, 64, 69
2, 76288, Control_c, 1, 64, 0
2, 76292, Note_off_c, 1, 64, 64
2, 76356, Note_off_c, 1, 84, 64
2, 76360, Note_off_c, 1, 72, 64
2, 76372, Note_off_c, 1, 76, 64
2, 76376, Note_on_c, 1, 61, 64
2, 76392, Note_off_c, 1, 61, 64
2, 76476, Note_on_c, 1, 58, 66
2, 76476, Note_on_c, 1, 82, 77
2, 76476, Control_c, 1, 64, 127
2, 76480, Note_on_c, 1, 70, 78
2, 76480, Note_on_c, 1, 76, 88
2, 76484, Note_off_c, 1, 58, 64
2, 76548, Note_off_c, 1, 82, 64
2, 76560, Note_off_c, 1, 76, 64
2, 76568, Note_off_c, 1, 70, 64
2, 76572, Note_on_c, 1, 55, 75
2, 76588, Note_off_c, 1, 55, 64
2, 76672, Control_c, 1, 64, 0
2, 76680, Note_on_c, 1, 68, 66
2, 76680, Note_on_c, 1, 77, 96
2, 76680, Note_on_c, 1, 56, 88
2, 76680, Note_on_c, 1, 44, 100
2, 76700, Note_off_c, 1, 44, 64
2, 76716, Note_off_c, 1, 56, 64
2, 76768, Note_on_c, 1, 73, 71
2, 76860, Note_off_c, 1, 77, 64
2, 76864, Note_on_c, 1, 75, 62
2, 76876, Note_off_c, 1, 68, 64
2, 76876, Note_off_c, 1, 73, 64
2, 76876, Note_on_c, 1, 56, 61
2, 76876, Note_on_c, 1, 65, 73
2, 76876, Note_on_c, 1, 61, 66
2, 76884, Note_off_c, 1, 75, 64
2, 76888, Note_off_c, 1, 65, 64
2, 76896, Note_off_c, 1, 61, 64
2, 76904, Note_off_c, 1, 56, 64
2, 76968, Note_on_c, 1, 78, 83
2, 76968, Note_on_c, 1, 70, 80
2, 77064, Note_off_c, 1, 78, 64
2, 77072, Note_off_c, 1, 70, 64
2, 77072, Note_on_c, 1, 46, 85
2, 77072, Note_off_c, 1, 46, 64
2, 77148, Control_c, 1, 64, 127
2, 77164, Note_on_c, 1, 70, 77
2, 77180, Note_off_c, 1, 70, 64
2, 77180, Control_c, 1, 64, 0
2, 77212, Note_on_c, 1, 56, 32
2, 77240, Note_on_c, 1, 58, 35
2, 77252, Note_on_c, 1, 62, 66
2, 77256, Note_off_c, 1, 58, 64
2, 77272, Note_on_c, 1, 77, 100
2, 77272, Note_on_c, 1, 68, 85
2, 77276, Note_off_c, 1, 56, 64
2, 77276, Note_off_c, 1, 62, 64
2, 77276, Control_c, 1, 64, 127
2, 77340, Note_off_c, 1, 68, 64
2, 77344, Note_off_c, 1, 77, 64
2, 77452, Control_c, 1, 64, 0
2, 77456, Note_on_c, 1, 58, 66
2, 77456, Note_on_c, 1, 77, 96
2, 77456, Note_on_c, 1, 67, 83
2, 77460, Note_on_c, 1, 51, 60
2, 77460, Note_on_c, 1, 61, 59
2, 77552, Note_on_c, 1, 73, 70
2, 77560, Control_c, 1, 64, 127
2, 77572, Note_off_c, 1, 58, 64
2, 77572, Note_off_c, 1, 51, 64
2, 77576, Note_off_c, 1, 61, 64
2, 77604, Note_off_c, 1, 77, 64
2, 77648, Note_off_c, 1, 73, 64
2, 77652, Note_on_c, 1, 75, 69
2, 77656, Note_off_c, 1, 67, 64
2, 77656, Note_on_c, 1, 51, 67
2, 77656, Note_on_c, 1, 58, 68
2, 77656, Note_on_c, 1, 61, 57
2, 77656, Control_c, 1, 64, 0
2, 77672, Note_off_c, 1, 75, 64
2, 77756, Note_on_c, 1, 77, 100
2, 77756, Note_on_c, 1, 66, 80
2, 77764, Note_off_c, 1, 58, 64
2, 77764, Control_c, 1, 64, 127
2, 77768, Note_off_c, 1, 51, 64
2, 77768, Note_off_c, 1, 61, 64
2, 77856, Control_c, 1, 64, 0
2, 77860, Note_on_c, 1, 56, 66
2, 77860, Note_on_c, 1, 60, 70
2, 77960, Note_on_c, 1, 72, 78
2, 77964, Control_c, 1, 64, 127
2, 77972, Note_off_c, 1, 77, 0
2, 77972, Note_off_c, 1, 66, 0
2, 77972, Note_off_c, 1, 72, 64
2, 77980, Note_off_c, 1, 56, 0
2, 77984, Note_off_c, 1, 60, 0
2, 78044, Control_c, 1, 64, 0
2, 78056, Note_on_c, 1, 60, 56
2, 78056, Note_on_c, 1, 56, 55
2, 78056, Note_on_c, 1, 66, 73
2, 78060, Note_on_c, 1, 75, 73
2, 78076, Control_c, 1, 64, 127
2, 78100, Note_off_c, 1, 60, 64
2, 78104, Note_off_c, 1, 56, 64
2, 78120, Note_off_c, 1, 66, 64
2, 78136, Control_c, 1, 64, 0
2, 78152, Note_on_c, 1, 73, 41
2, 78152, Note_on_c, 1, 65, 64
2, 78168, Note_off_c, 1, 75, 64
2, 78184, Control_c, 1, 64, 0
2, 78228, Note_off_c, 1, 65, 64
2, 78240, Note_off_c, 1, 73, 64
2, 78248, Note_on_c, 1, 61, 57
2, 78248, Note_on_c, 1, 49, 55
2, 78260, Note_off_c, 1, 49, 64
2, 78276, Note_off_c, 1, 61, 64
2, 78340, Note_on_c, 1, 80, 71
2, 78344, Note_on_c, 1, 68, 77
2, 78424, Note_off_c, 1, 80, 64
2, 78424, Note_off_c, 1, 68, 64
2, 78436, Note_on_c, 1, 56, 71
2, 78444, Note_on_c, 1, 65, 78
2, 78452, Note_off_c, 1, 56, 64
2, 78452, Note_off_c, 1, 65, 64
2, 78524, Note_on_c, 1, 77, 96
2, 78528, Note_on_c, 1, 68, 83
2, 78536, Note_off_c, 1, 77, 64
2, 78540, Note_off_c, 1, 68, 64
2, 78632, Note_on_c, 1, 56, 66
2, 78632, Note_on_c, 1, 80, 104
2, 78632, Note_on_c, 1, 61, 61
2, 78636, Note_on_c, 1, 65, 61
2, 78636, Note_on_c, 1, 68, 93
2, 78640, Note_off_c, 1, 56, 64
2, 78640, Note_off_c, 1, 65, 64
2, 78644, Note_off_c, 1, 61, 64
2, 78644, Note_off_c, 1, 68, 64
2, 78648, Note_off_c, 1, 80, 64
2, 78728, Note_on_c, 1, 77, 104
2, 78732, Note_on_c, 1, 68, 85
2, 78736, Note_off_c, 1, 68, 64
2, 78744, Note_off_c, 1, 77, 64
2, 78824, Note_on_c, 1, 38, 122
2, 78824, Note_on_c, 1, 80, 104
2, 78824, Note_on_c, 1, 50, 122
2, 78824, Note_on_c, 1, 68, 100
2, 78828, Control_c, 1, 64, 127
2, 78836, Note_off_c, 1, 50, 64
2, 78848, Note_off_c, 1, 38, 64
2, 78904, Control_c, 1, 64, 0
2, 78916, Note_off_c, 1, 80, 64
2, 78928, Note_on_c, 1, 77, 96
2, 78944, Note_off_c, 1, 68, 64
2, 78944, Note_off_c, 1, 77, 64
2, 79036, Note_on_c, 1, 39, 122
2, 79036, Note_on_c, 1, 51, 122
2, 79036, Note_on_c, 1, 80, 104
2, 79036, Note_on_c, 1, 72, 113
2, 79036, Note_on_c, 1, 75, 105
2, 79040, Note_off_c, 1, 39, 64
2, 79040, Note_on_c, 1, 68, 113
2, 79048, Note_off_c, 1, 51, 64
2, 79208, Note_off_c, 1, 72, 64
2, 79212, Note_off_c, 1, 80, 64
2, 79212, Note_off_c, 1, 68, 64
2, 79216, Note_off_c, 1, 75, 64
2, 79228, Note_on_c, 1, 66, 103
2, 79236, Note_off_c, 1, 66, 64
2, 79236, Note_on_c, 1, 56, 108
2, 79236, Note_on_c, 1, 60, 85
2, 79236, Control_c, 1, 64, 0
2, 79240, Note_off_c, 1, 56, 64
2, 79240, Note_off_c, 1, 60, 64
2, 79328, Note_on_c, 1, 80, 104
2, 79328, Note_on_c, 1, 75, 117
2, 79328, Note_on_c, 1, 72, 116
2, 79332, Note_on_c, 1, 70, 104
2, 79424, Note_on_c, 1, 42, 112
2, 79424, Note_on_c, 1, 54, 112
2, 79424, Control_c, 1, 64, 127
2, 79432, Note_off_c, 1, 42, 64
2, 79436, Note_off_c, 1, 54, 64
2, 79460, Note_off_c, 1, 75, 0
2, 79460, Note_off_c, 1, 72, 0
2, 79508, Note_off_c, 1, 70, 0
2, 79528, Note_on_c, 1, 75, 80
2, 79528, Note_on_c, 1, 72, 85
2, 79632, Note_off_c, 1, 72, 64
2, 79636, Note_on_c, 1, 66, 78
2, 79640, Note_on_c, 1, 56, 80
2, 79644, Note_off_c, 1, 75, 64
2, 79644, Note_on_c, 1, 70, 93
2, 79644, Note_on_c, 1, 60, 83
2, 79648, Note_off_c, 1, 66, 64
2, 79648, Note_off_c, 1, 56, 64
2, 79648, Note_off_c, 1, 60, 64
2, 79724, Note_off_c, 1, 70, 64
2, 79728, Note_off_c, 1, 80, 64
2, 79796, Control_c, 1, 64, 0
2, 79832, Note_on_c, 1, 80, 88
2, 79840, Note_on_c, 1, 75, 104
2, 79840, Note_on_c, 1, 72, 112
2, 79840, Note_on_c, 1, 68, 122
2, 79844, Note_on_c, 1, 41, 96
2, 79844, Note_on_c, 1, 53, 112
2, 79844, Control_c, 1, 64, 127
2, 79852, Note_off_c, 1, 41, 64
2, 79856, Note_off_c, 1, 53, 64
2, 80028, Note_off_c, 1, 68, 64
2, 80028, Note_off_c, 1, 72, 64
2, 80028, Note_off_c, 1, 75, 64
2, 80036, Note_off_c, 1, 80, 64
2, 80040, Note_on_c, 1, 66, 85
2, 80040, Note_on_c, 1, 56, 96
2, 80040, Note_on_c, 1, 60, 78
2, 80048, Note_off_c, 1, 66, 64
2, 80052, Note_off_c, 1, 56, 64
2, 80052, Note_off_c, 1, 60, 64
2, 80140, Note_on_c, 1, 80, 93
2, 80140, Note_on_c, 1, 75, 96
2, 80140, Note_on_c, 1, 72, 93
2, 80144, Note_on_c, 1, 70, 78
2, 80224, Control_c, 1, 64, 0
2, 80240, Note_on_c, 1, 51, 104
2, 80240, Note_on_c, 1, 39, 122
2, 80248, Note_off_c, 1, 75, 64
2, 80248, Note_off_c, 1, 72, 64
2, 80248, Control_c, 1, 64, 127
2, 80276, Note_off_c, 1, 51, 64
2, 80284, Note_off_c, 1, 39, 64
2, 80296, Note_off_c, 1, 70, 64
2, 80344, Note_on_c, 1, 75, 80
2, 80344, Note_on_c, 1, 72, 93
2, 80436, Note_off_c, 1, 72, 64
2, 80440, Note_off_c, 1, 75, 64
2, 80448, Control_c, 1, 64, 0
2, 80452, Note_on_c, 1, 70, 80
2, 80452, Note_on_c, 1, 36, 104
2, 80452, Note_on_c, 1, 48, 112
2, 80468, Control_c, 1, 64, 127
2, 80508, Note_off_c, 1, 36, 64
2, 80512, Note_off_c, 1, 48, 64
2, 80548, Note_off_c, 1, 70, 64
2, 80568, Note_on_c, 1, 72, 78
2, 80572, Note_on_c, 1, 75, 73
2, 80656, Note_off_c, 1, 72, 64
2, 80660, Note_off_c, 1, 75, 64
2, 80660, Control_c, 1, 64, 0
2, 80664, Note_on_c, 1, 68, 80
2, 80668, Note_on_c, 1, 37, 118
2, 80668, Note_on_c, 1, 49, 118
2, 80672, Note_off_c, 1, 80, 64
2, 80676, Note_off_c, 1, 37, 64
2, 80684, Note_off_c, 1, 49, 64
2, 80776, Note_on_c, 1, 73, 71
2, 80844, Note_off_c, 1, 68, 0
2, 80880, Note_off_c, 1, 73, 0
2, 80880, Note_on_c, 1, 56, 67
2, 80880, Note_on_c, 1, 65, 77
2, 80884, Note_on_c, 1, 70, 70
2, 80892, Note_off_c, 1, 56, 64
2, 80892, Note_off_c, 1, 65, 64
2, 80976, Note_off_c, 1, 70, 64
2, 80976, Note_on_c, 1, 73, 68
2, 81064, Note_off_c, 1, 73, 64
2, 81064, Note_on_c, 1, 56, 104
2, 81064, Note_on_c, 1, 77, 85
2, 81068, Note_on_c, 1, 44, 108
2, 81076, Note_off_c, 1, 56, 64
2, 81076, Note_off_c, 1, 44, 64
2, 81172, Note_on_c, 1, 68, 54
2, 81192, Note_off_c, 1, 77, 64
2, 81264, Note_off_c, 1, 68, 64
2, 81268, Note_on_c, 1, 56, 69
2, 81268, Note_on_c, 1, 65, 77
2, 81268, Note_on_c, 1, 73, 68
2, 81272, Note_on_c, 1, 61, 57
2, 81276, Note_off_c, 1, 56, 64
2, 81276, Note_off_c, 1, 65, 64
2, 81276, Note_off_c, 1, 61, 64
2, 81360, Note_on_c, 1, 77, 71
2, 81368, Note_off_c, 1, 73, 64
2, 81452, Note_on_c, 1, 53, 100
2, 81452, Note_on_c, 1, 41, 85
2, 81460, Note_off_c, 1, 77, 64
2, 81460, Note_on_c, 1, 70, 75
2, 81464, Note_off_c, 1, 41, 64
2, 81468, Note_off_c, 1, 53, 64
2, 81556, Note_on_c, 1, 73, 68
2, 81560, Note_off_c, 1, 70, 64
2, 81652, Note_on_c, 1, 77, 83
2, 81656, Note_off_c, 1, 73, 64
2, 81660, Note_on_c, 1, 56, 65
2, 81664, Note_on_c, 1, 65, 65
2, 81664, Note_on_c, 1, 61, 51
2, 81668, Note_off_c, 1, 65, 64
2, 81672, Note_off_c, 1, 77, 64
2, 81672, Note_off_c, 1, 56, 64
2, 81672, Note_off_c, 1, 61, 64
2, 81752, Note_on_c, 1, 68, 75
2, 81848, Note_on_c, 1, 49, 104
2, 81848, Note_on_c, 1, 37, 112
2, 81852, Control_c, 1, 64, 127
2, 81864, Note_off_c, 1, 68, 64
2, 81884, Control_c, 1, 64, 0
2, 81940, Control_c, 1, 64, 127
2, 81944, Note_off_c, 1, 37, 64
2, 81948, Note_off_c, 1, 49, 64
2, 81948, Note_on_c, 1, 77, 90
2, 81968, Note_off_c, 1, 77, 64
2, 82040, Control_c, 1, 64, 0
2, 82044, Note_on_c, 1, 70, 122
2, 82052, Note_on_c, 1, 38, 96
2, 82052, Note_on_c, 1, 50, 96
2, 82072, Control_c, 1, 64, 127
2, 82132, Note_off_c, 1, 50, 0
2, 82144, Note_off_c, 1, 38, 0
2, 82160, Note_on_c, 1, 77, 88
2, 82164, Note_off_c, 1, 70, 0
2, 82172, Note_off_c, 1, 77, 64
2, 82236, Control_c, 1, 64, 0
2, 82260, Note_on_c, 1, 80, 104
2, 82264, Note_on_c, 1, 72, 118
2, 82264, Note_on_c, 1, 75, 104
2, 82264, Note_on_c, 1, 68, 112
2, 82268, Note_on_c, 1, 39, 118
2, 82268, Note_on_c, 1, 51, 122
2, 82268, Control_c, 1, 64, 127
2, 82272, Note_off_c, 1, 39, 64
2, 82272, Note_off_c, 1, 51, 64
2, 82472, Note_off_c, 1, 80, 64
2, 82472, Note_off_c, 1, 72, 64
2, 82472, Note_off_c, 1, 75, 64
2, 82472, Note_off_c, 1, 68, 64
2, 82480, Note_on_c, 1, 56, 77
2, 82480, Note_on_c, 1, 66, 96
2, 82484, Note_on_c, 1, 60, 69
2, 82492, Note_off_c, 1, 56, 64
2, 82492, Note_off_c, 1, 66, 64
2, 82492, Note_off_c, 1, 60, 64
2, 82580, Note_on_c, 1, 80, 104
2, 82584, Note_on_c, 1, 72, 104
2, 82584, Note_on_c, 1, 75, 100
2, 82584, Note_on_c, 1, 70, 104
2, 82644, Control_c, 1, 64, 0
2, 82680, Control_c, 1, 64, 127
2, 82692, Note_on_c, 1, 42, 118
2, 82692, Note_on_c, 1, 54, 112
2, 82704, Note_off_c, 1, 42, 64
2, 82704, Note_off_c, 1, 54, 64
2, 82728, Note_off_c, 1, 75, 64
2, 82740, Note_off_c, 1, 72, 64
2, 82776, Note_off_c, 1, 70, 64
2, 82804, Note_on_c, 1, 75, 75
2, 82808, Note_on_c, 1, 72, 75
2, 82900, Note_off_c, 1, 72, 64
2, 82904, Note_off_c, 1, 75, 64
2, 82904, Note_on_c, 1, 70, 80
2, 82904, Note_on_c, 1, 66, 83
2, 82908, Note_on_c, 1, 56, 75
2, 82908, Note_on_c, 1, 60, 75
2, 82912, Note_off_c, 1, 66, 64
2, 82912, Note_off_c, 1, 56, 64
2, 82916, Note_off_c, 1, 60, 64
2, 82960, Note_off_c, 1, 70, 64
2, 82964, Note_off_c, 1, 80, 64
2, 83040, Control_c, 1, 64, 0
2, 83104, Note_on_c, 1, 41, 112
2, 83104, Note_on_c, 1, 53, 112
2, 83104, Note_on_c, 1, 80, 100
2, 83104, Note_on_c, 1, 75, 116
2, 83104, Note_on_c, 1, 72, 118
2, 83104, Note_on_c, 1, 68, 116
2, 83112, Control_c, 1, 64, 127
2, 83120, Note_off_c, 1, 41, 64
2, 83120, Note_off_c, 1, 53, 64
2, 83316, Note_off_c, 1, 80, 64
2, 83316, Note_off_c, 1, 75, 64
2, 83316, Note_off_c, 1, 72, 64
2, 83316, Note_off_c, 1, 68, 64
2, 83316, Note_on_c, 1, 66, 93
2, 83316, Note_on_c, 1, 60, 77
2, 83316, Note_on_c, 1, 56, 78
2, 83324, Note_off_c, 1, 66, 64
2, 83328, Note_off_c, 1, 60, 64
2, 83332, Note_off_c, 1, 56, 64
2, 83412, Note_on_c, 1, 75, 100
2, 83412, Control_c, 1, 64, 0
2, 83416, Note_on_c, 1, 72, 104
2, 83420, Note_on_c, 1, 80, 88
2, 83420, Note_on_c, 1, 70, 112
2, 83516, Note_off_c, 1, 75, 0
2, 83516, Note_off_c, 1, 72, 0
2, 83520, Note_on_c, 1, 51, 96
2, 83520, Note_on_c, 1, 39, 100
2, 83524, Control_c, 1, 64, 127
2, 83532, Note_off_c, 1, 70, 0
2, 83536, Note_off_c, 1, 51, 64
2, 83536, Note_off_c, 1, 39, 64
2, 83612, Note_on_c, 1, 75, 77
2, 83616, Note_on_c, 1, 72, 83
2, 83616, Control_c, 1, 64, 0
2, 83704, Note_off_c, 1, 72, 64
2, 83708, Note_off_c, 1, 75, 64
2, 83716, Note_on_c, 1, 48, 104
2, 83716, Note_on_c, 1, 36, 104
2, 83720, Note_on_c, 1, 70, 93
2, 83720, Control_c, 1, 64, 127
2, 83724, Note_off_c, 1, 48, 64
2, 83724, Note_off_c, 1, 36, 64
2, 83808, Note_off_c, 1, 70, 64
2, 83836, Note_on_c, 1, 72, 78
2, 83836, Note_on_c, 1, 75, 73
2, 83836, Control_c, 1, 64, 0
2, 83928, Note_off_c, 1, 72, 64
2, 83932, Note_off_c, 1, 75, 64
2, 83932, Note_on_c, 1, 68, 88
2, 83936, Note_on_c, 1, 49, 118
2, 83936, Note_on_c, 1, 37, 122
2, 83940, Note_off_c, 1, 80, 64
2, 83944, Note_off_c, 1, 49, 64
2, 83944, Note_off_c, 1, 37, 64
2, 84036, Note_on_c, 1, 73, 73
2, 84044, Note_off_c, 1, 68, 64
2, 84140, Note_on_c, 1, 65, 73
2, 84140, Note_on_c, 1, 56, 75
2, 84140, Note_on_c, 1, 61, 69
2, 84140, Note_on_c, 1, 70, 73
2, 84144, Note_off_c, 1, 73, 64
2, 84148, Note_off_c, 1, 65, 64
2, 84148, Note_off_c, 1, 56, 64
2, 84148, Note_off_c, 1, 61, 64
2, 84232, Note_on_c, 1, 73, 77
2, 84252, Note_off_c, 1, 70, 64
2, 84324, Note_off_c, 1, 73, 64
2, 84324, Note_on_c, 1, 77, 88
2, 84332, Note_on_c, 1, 44, 93
2, 84332, Note_on_c, 1, 56, 93
2, 84340, Note_off_c, 1, 44, 64
2, 84340, Note_off_c, 1, 56, 64
2, 84424, Note_off_c, 1, 77, 64
2, 84428, Note_on_c, 1, 68, 71
2, 84512, Note_off_c, 1, 68, 64
2, 84528, Note_on_c, 1, 73, 71
2, 84528, Note_on_c, 1, 65, 68
2, 84528, Note_on_c, 1, 56, 67
2, 84552, Note_off_c, 1, 65, 64
2, 84576, Note_off_c, 1, 56, 64
2, 84608, Note_off_c, 1, 73, 64
2, 84620, Note_on_c, 1, 77, 80
2, 84640, Control_c, 1, 64, 127
2, 84688, Note_off_c, 1, 77, 64
2, 84716, Control_c, 1, 64, 0
2, 84720, Note_on_c, 1, 41, 73
2, 84724, Note_on_c, 1, 53, 80
2, 84724, Note_on_c, 1, 70, 90
2, 84744, Note_off_c, 1, 41, 0
2, 84748, Note_off_c, 1, 53, 0
2, 84792, Note_off_c, 1, 70, 0
2, 84820, Note_on_c, 1, 73, 96
2, 84896, Note_off_c, 1, 73, 64
2, 84912, Note_on_c, 1, 56, 69
2, 84912, Note_on_c, 1, 65, 73
2, 84920, Note_on_c, 1, 61, 60
2, 84920, Note_on_c, 1, 77, 100
2, 84928, Note_off_c, 1, 65, 64
2, 84928, Note_off_c, 1, 61, 64
2, 84928, Control_c, 1, 64, 127
2, 84932, Note_off_c, 1, 56, 64
2, 84972, Note_off_c, 1, 77, 64
2, 85016, Note_on_c, 1, 68, 108
2, 85016, Control_c, 1, 64, 0
2, 85112, Note_on_c, 1, 37, 122
2, 85116, Note_on_c, 1, 49, 112
2, 85116, Control_c, 1, 64, 127
2, 85132, Note_off_c, 1, 68, 64
2, 85204, Note_off_c, 1, 37, 64
2, 85208, Note_off_c, 1, 49, 64
2, 85212, Note_on_c, 1, 77, 93
2, 85244, Note_off_c, 1, 77, 64
2, 85296, Note_on_c, 1, 36, 112
2, 85300, Note_on_c, 1, 69, 93
2, 85304, Note_on_c, 1, 48, 118
2, 85304, Control_c, 1, 64, 0
2, 85396, Control_c, 1, 64, 127
2, 85400, Note_on_c, 1, 77, 88
2, 85400, Note_on_c, 1, 75, 69
2, 85404, Note_off_c, 1, 48, 64
2, 85412, Note_off_c, 1, 36, 64
2, 85412, Note_off_c, 1, 75, 64
2, 85416, Note_off_c, 1, 77, 64
2, 85420, Note_off_c, 1, 69, 64
2, 85480, Control_c, 1, 64, 0
2, 85492, Note_on_c, 1, 82, 112
2, 85492, Note_on_c, 1, 77, 108
2, 85492, Note_on_c, 1, 74, 112
2, 85500, Note_on_c, 1, 70, 118
2, 85500, Note_on_c, 1, 34, 122
2, 85500, Note_on_c, 1, 46, 122
2, 85504, Control_c, 1, 64, 127
2, 85508, Note_off_c, 1, 34, 64
2, 85512, Note_off_c, 1, 46, 64
2, 85652, Note_off_c, 1, 70, 64
2, 85680, Note_off_c, 1, 77, 64
2, 85684, Note_off_c, 1, 82, 64
2, 85684, Note_off_c, 1, 74, 64
2, 85692, Note_on_c, 1, 68, 100
2, 85696, Note_on_c, 1, 62, 85
2, 85696, Note_on_c, 1, 58, 71
2, 85708, Note_off_c, 1, 68, 64
2, 85708, Note_off_c, 1, 62, 64
2, 85708, Note_off_c, 1, 58, 64
2, 85776, Note_on_c, 1, 82, 104
2, 85780, Note_on_c, 1, 77, 104
2, 85784, Note_on_c, 1, 72, 104
2, 85784, Note_on_c, 1, 74, 104
2, 85788, Control_c, 1, 64, 0
2, 85876, Note_on_c, 1, 38, 104
2, 85876, Note_on_c, 1, 50, 122
2, 85888, Note_off_c, 1, 38, 64
2, 85888, Note_off_c, 1, 50, 64
2, 85888, Control_c, 1, 64, 127
2, 85924, Note_off_c, 1, 77, 64
2, 85928, Note_off_c, 1, 74, 64
2, 85944, Note_off_c, 1, 72, 64
2, 85988, Note_on_c, 1, 74, 90
2, 85988, Note_on_c, 1, 77, 88
2, 86080, Note_off_c, 1, 74, 0
2, 86084, Note_on_c, 1, 72, 93
2, 86088, Note_on_c, 1, 68, 108
2, 86088, Note_on_c, 1, 58, 88
2, 86088, Note_on_c, 1, 62, 78
2, 86092, Note_off_c, 1, 77, 0
2, 86100, Note_off_c, 1, 68, 64
2, 86100, Note_off_c, 1, 58, 64
2, 86100, Note_off_c, 1, 62, 64
2, 86164, Note_off_c, 1, 72, 64
2, 86172, Note_off_c, 1, 82, 64
2, 86224, Control_c, 1, 64, 0
2, 86284, Note_on_c, 1, 82, 93
2, 86288, Note_on_c, 1, 41, 112
2, 86288, Note_on_c, 1, 74, 108
2, 86292, Note_on_c, 1, 77, 104
2, 86292, Note_on_c, 1, 70, 112
2, 86292, Note_on_c, 1, 53, 118
2, 86292, Control_c, 1, 64, 127
2, 86300, Note_off_c, 1, 41, 64
2, 86300, Note_off_c, 1, 53, 64
2, 86384, Note_off_c, 1, 70, 64
2, 86432, Note_off_c, 1, 77, 64
2, 86476, Note_off_c, 1, 74, 64
2, 86484, Note_on_c, 1, 58, 75
2, 86484, Note_on_c, 1, 68, 104
2, 86488, Note_off_c, 1, 68, 64
2, 86488, Note_on_c, 1, 62, 88
2, 86488, Note_off_c, 1, 62, 64
2, 86500, Note_off_c, 1, 58, 64
2, 86576, Note_on_c, 1, 74, 100
2, 86576, Note_on_c, 1, 77, 93
2, 86576, Note_on_c, 1, 72, 96
2, 86664, Control_c, 1, 64, 0
2, 86680, Note_on_c, 1, 58, 122
2, 86684, Note_on_c, 1, 46, 122
2, 86684, Control_c, 1, 64, 127
2, 86688, Note_off_c, 1, 46, 64
2, 86696, Note_off_c, 1, 58, 64
2, 86716, Note_off_c, 1, 74, 64
2, 86720, Note_off_c, 1, 77, 64
2, 86748, Note_off_c, 1, 72, 64
2, 86780, Note_on_c, 1, 74, 93
2, 86784, Note_on_c, 1, 77, 88
2, 86868, Note_off_c, 1, 74, 64
2, 86868, Note_off_c, 1, 77, 64
2, 86884, Note_on_c, 1, 58, 78
2, 86884, Note_on_c, 1, 68, 108
2, 86884, Note_on_c, 1, 62, 88
2, 86884, Note_on_c, 1, 72, 100
2, 86892, Note_off_c, 1, 68, 64
2, 86896, Note_off_c, 1, 62, 64
2, 86900, Note_off_c, 1, 58, 64
2, 86972, Note_off_c, 1, 72, 64
2, 86996, Note_on_c, 1, 74, 104
2, 86996, Note_on_c, 1, 77, 100
2, 87020, Note_off_c, 1, 74, 64
2, 87092, Control_c, 1, 64, 0
2, 87104, Note_off_c, 1, 77, 64
2, 87104, Note_on_c, 1, 39, 118
2, 87108, Note_off_c, 1, 82, 64
2, 87108, Note_on_c, 1, 51, 112
2, 87116, Control_c, 1, 64, 127
2, 87152, Note_off_c, 1, 39, 64
2, 87160, Note_off_c, 1, 51, 64
2, 87200, Note_on_c, 1, 75, 80
2, 87220, Note_off_c, 1, 75, 64
2, 87304, Note_on_c, 1, 66, 73
2, 87304, Note_on_c, 1, 58, 73
2, 87312, Note_on_c, 1, 63, 70
2, 87316, Note_off_c, 1, 66, 0
2, 87316, Note_on_c, 1, 82, 108
2, 87320, Note_off_c, 1, 58, 0
2, 87320, Note_off_c, 1, 63, 0
2, 87320, Note_on_c, 1, 70, 108
2, 87412, Note_on_c, 1, 75, 77
2, 87416, Note_off_c, 1, 70, 64
2, 87480, Control_c, 1, 64, 0
2, 87504, Note_off_c, 1, 82, 64
2, 87508, Note_on_c, 1, 78, 83
2, 87508, Note_on_c, 1, 54, 112
2, 87508, Note_on_c, 1, 42, 122
2, 87508, Control_c, 1, 64, 127
2, 87512, Note_off_c, 1, 75, 64
2, 87516, Note_off_c, 1, 42, 64
2, 87520, Note_off_c, 1, 54, 64
2, 87532, Note_off_c, 1, 78, 64
2, 87612, Note_on_c, 1, 84, 104
2, 87612, Note_on_c, 1, 72, 83
2, 87716, Note_on_c, 1, 58, 104
2, 87716, Note_on_c, 1, 66, 100
2, 87720, Note_off_c, 1, 72, 64
2, 87724, Note_off_c, 1, 84, 64
2, 87724, Note_off_c, 1, 58, 64
2, 87724, Note_off_c, 1, 66, 64
2, 87812, Note_on_c, 1, 75, 78
2, 87832, Note_off_c, 1, 75, 64
2, 87908, Control_c, 1, 64, 0
2, 87916, Note_on_c, 1, 51, 108
2, 87920, Note_on_c, 1, 39, 105
2, 87920, Note_on_c, 1, 82, 107
2, 87920, Note_on_c, 1, 70, 93
2, 87920, Control_c, 1, 64, 127
2, 87924, Note_off_c, 1, 51, 64
2, 87924, Note_off_c, 1, 39, 64
2, 88020, Note_off_c, 1, 70, 64
2, 88020, Note_on_c, 1, 75, 78
2, 88044, Note_off_c, 1, 82, 64
2, 88108, Note_on_c, 1, 78, 80
2, 88112, Note_on_c, 1, 58, 96
2, 88116, Note_on_c, 1, 66, 90
2, 88116, Note_on_c, 1, 63, 68
2, 88120, Note_off_c, 1, 75, 64
2, 88124, Note_off_c, 1, 78, 64
2, 88172, Note_off_c, 1, 66, 64
2, 88184, Note_off_c, 1, 63, 64
2, 88200, Note_off_c, 1, 58, 64
2, 88208, Note_on_c, 1, 84, 108
2, 88212, Note_on_c, 1, 72, 85
2, 88304, Control_c, 1, 64, 0
2, 88316, Note_on_c, 1, 54, 100
2, 88320, Note_on_c, 1, 42, 101
2, 88332, Control_c, 1, 64, 127
2, 88372, Note_off_c, 1, 42, 64
2, 88376, Note_off_c, 1, 54, 64
2, 88392, Note_off_c, 1, 84, 64
2, 88392, Note_off_c, 1, 72, 64
2, 88424, Note_on_c, 1, 75, 83
2, 88444, Note_off_c, 1, 75, 64
2, 88536, Note_on_c, 1, 82, 108
2, 88540, Note_on_c, 1, 58, 112
2, 88544, Note_on_c, 1, 63, 93
2, 88544, Note_on_c, 1, 70, 100
2, 88544, Note_on_c, 1, 66, 108
2, 88544, Control_c, 1, 64, 0
2, 88556, Control_c, 1, 64, 127
2, 88580, Note_off_c, 1, 66, 64
2, 88588, Note_off_c, 1, 63, 64
2, 88596, Note_off_c, 1, 58, 64
2, 88604, Note_off_c, 1, 70, 64
2, 88612, Note_off_c, 1, 82, 64
2, 88724, Control_c, 1, 64, 0
2, 88728, Note_on_c, 1, 85, 80
2, 88728, Note_on_c, 1, 73, 96
2, 88732, Note_on_c, 1, 76, 93
2, 88740, Note_on_c, 1, 31, 85
2, 88740, Note_on_c, 1, 43, 88
2, 88744, Note_off_c, 1, 73, 64
2, 88744, Note_off_c, 1, 76, 64
2, 88744, Control_c, 1, 64, 127
2, 88756, Note_off_c, 1, 85, 64
2, 88788, Note_off_c, 1, 43, 64
2, 88792, Note_off_c, 1, 31, 64
2, 88836, Note_on_c, 1, 85, 88
2, 88844, Note_on_c, 1, 34, 104
2, 88844, Note_on_c, 1, 76, 108
2, 88844, Note_on_c, 1, 73, 108
2, 88848, Note_on_c, 1, 46, 112
2, 88848, Control_c, 1, 64, 0
2, 88864, Control_c, 1, 64, 127
2, 88916, Note_off_c, 1, 34, 64
2, 88920, Note_off_c, 1, 46, 64
2, 88948, Note_off_c, 1, 73, 64
2, 88956, Note_off_c, 1, 85, 64
2, 88956, Note_off_c, 1, 76, 64
2, 89036, Control_c, 1, 64, 0
2, 89040, Note_on_c, 1, 76, 96
2, 89040, Note_on_c, 1, 37, 108
2, 89040, Note_on_c, 1, 85, 96
2, 89040, Note_on_c, 1, 49, 118
2, 89044, Note_on_c, 1, 73, 93
2, 89048, Control_c, 1, 64, 127
2, 89060, Note_off_c, 1, 37, 64
2, 89072, Note_off_c, 1, 49, 64
2, 89084, Note_off_c, 1, 73, 64
2, 89100, Note_off_c, 1, 85, 64
2, 89120, Note_off_c, 1, 76, 64
2, 89148, Note_on_c, 1, 84, 108
2, 89152, Note_on_c, 1, 76, 104
2, 89152, Note_on_c, 1, 40, 80
2, 89152, Note_on_c, 1, 72, 96
2, 89152, Note_on_c, 1, 52, 93
2, 89152, Control_c, 1, 64, 0
2, 89164, Control_c, 1, 64, 127
2, 89196, Note_off_c, 1, 40, 64
2, 89196, Note_off_c, 1, 52, 64
2, 89244, Note_off_c, 1, 84, 64
2, 89248, Note_off_c, 1, 72, 64
2, 89256, Note_on_c, 1, 49, 108
2, 89256, Note_on_c, 1, 37, 112
2, 89260, Note_off_c, 1, 76, 64
2, 89288, Note_off_c, 1, 49, 64
2, 89292, Note_off_c, 1, 37, 64
2, 89352, Note_on_c, 1, 82, 93
2, 89352, Note_on_c, 1, 70, 93
2, 89352, Note_on_c, 1, 76, 100
2, 89352, Note_on_c, 1, 46, 112
2, 89352, Note_on_c, 1, 34, 96
2, 89356, Control_c, 1, 64, 0
2, 89364, Control_c, 1, 64, 127
2, 89376, Note_off_c, 1, 34, 64
2, 89380, Note_off_c, 1, 46, 64
2, 89444, Note_off_c, 1, 82, 64
2, 89444, Note_off_c, 1, 76, 64
2, 89448, Note_on_c, 1, 43, 118
2, 89448, Note_on_c, 1, 31, 108
2, 89448, Control_c, 1, 64, 0
2, 89460, Note_off_c, 1, 70, 64
2, 89460, Control_c, 1, 64, 127
2, 89480, Note_off_c, 1, 43, 64
2, 89492, Note_off_c, 1, 31, 64
2, 89560, Note_on_c, 1, 68, 75
2, 89564, Note_on_c, 1, 77, 100
2, 89564, Note_on_c, 1, 44, 122
2, 89564, Note_on_c, 1, 32, 122
2, 89564, Control_c, 1, 64, 0
2, 89572, Control_c, 1, 64, 127
2, 89592, Note_off_c, 1, 32, 64
2, 89596, Note_off_c, 1, 44, 64
2, 89668, Note_on_c, 1, 73, 77
2, 89676, Note_off_c, 1, 77, 64
2, 89772, Note_off_c, 1, 68, 64
2, 89772, Note_on_c, 1, 75, 77
2, 89772, Note_on_c, 1, 56, 80
2, 89776, Note_on_c, 1, 65, 88
2, 89776, Note_on_c, 1, 61, 66
2, 89780, Note_off_c, 1, 73, 64
2, 89784, Note_off_c, 1, 75, 64
2, 89792, Note_off_c, 1, 56, 64
2, 89792, Note_off_c, 1, 65, 64
2, 89800, Note_off_c, 1, 61, 64
2, 89868, Note_on_c, 1, 78, 100
2, 89872, Note_on_c, 1, 70, 85
2, 89960, Control_c, 1, 64, 0
2, 89964, Note_on_c, 1, 46, 111
2, 89964, Note_on_c, 1, 34, 102
2, 89980, Control_c, 1, 64, 127
2, 89988, Note_off_c, 1, 34, 64
2, 89996, Note_off_c, 1, 46, 64
2, 90056, Note_off_c, 1, 70, 0
2, 90060, Note_off_c, 1, 78, 0
2, 90096, Note_on_c, 1, 70, 65
2, 90108, Note_off_c, 1, 70, 64
2, 90188, Note_on_c, 1, 62, 80
2, 90192, Note_on_c, 1, 56, 77
2, 90192, Note_on_c, 1, 58, 78
2, 90192, Note_on_c, 1, 77, 96
2, 90192, Note_on_c, 1, 68, 80
2, 90200, Note_off_c, 1, 62, 64
2, 90200, Note_off_c, 1, 56, 64
2, 90200, Note_off_c, 1, 58, 64
2, 90276, Note_off_c, 1, 68, 64
2, 90284, Note_off_c, 1, 77, 64
2, 90380, Note_on_c, 1, 51, 90
2, 90380, Note_on_c, 1, 39, 85
2, 90380, Control_c, 1, 64, 0
2, 90384, Note_on_c, 1, 77, 90
2, 90388, Note_on_c, 1, 67, 96
2, 90392, Note_off_c, 1, 51, 64
2, 90392, Note_off_c, 1, 39, 64
2, 90392, Control_c, 1, 64, 127
2, 90484, Note_on_c, 1, 70, 73
2, 90572, Note_off_c, 1, 77, 64
2, 90580, Note_off_c, 1, 70, 64
2, 90580, Note_on_c, 1, 75, 75
2, 90580, Note_on_c, 1, 51, 68
2, 90580, Note_on_c, 1, 61, 63
2, 90580, Note_on_c, 1, 58, 68
2, 90592, Note_off_c, 1, 67, 64
2, 90596, Note_off_c, 1, 75, 64
2, 90664, Control_c, 1, 64, 0
2, 90676, Note_on_c, 1, 66, 70
2, 90676, Note_on_c, 1, 77, 93
2, 90676, Control_c, 1, 64, 127
2, 90688, Note_off_c, 1, 51, 64
2, 90688, Note_off_c, 1, 61, 64
2, 90692, Note_off_c, 1, 58, 64
2, 90772, Note_on_c, 1, 56, 73
2, 90772, Note_on_c, 1, 60, 78
2, 90776, Control_c, 1, 64, 0
2, 90788, Control_c, 1, 64, 127
2, 90872, Note_on_c, 1, 72, 77
2, 90880, Note_off_c, 1, 77, 64
2, 90892, Note_off_c, 1, 72, 64
2, 90900, Note_off_c, 1, 66, 64
2, 90900, Note_off_c, 1, 56, 64
2, 90900, Note_off_c, 1, 60, 64
2, 90972, Control_c, 1, 64, 0
2, 90980, Note_on_c, 1, 56, 55
2, 90984, Note_on_c, 1, 60, 60
2, 90984, Note_on_c, 1, 66, 66
2, 90984, Note_on_c, 1, 75, 70
2, 90988, Control_c, 1, 64, 127
2, 91012, Note_off_c, 1, 66, 64
2, 91012, Note_off_c, 1, 75, 64
2, 91052, Note_off_c, 1, 56, 64
2, 91056, Note_off_c, 1, 60, 64
2, 91076, Note_on_c, 1, 73, 57
2, 91080, Note_on_c, 1, 65, 63
2, 91168, Control_c, 1, 64, 0
2, 91172, Control_c, 1, 64, 127
2, 91188, Note_on_c, 1, 61, 60
2, 91192, Note_off_c, 1, 73, 64
2, 91192, Note_off_c, 1, 65, 64
2, 91192, Note_on_c, 1, 49, 64
2, 91196, Note_on_c, 1, 56, 66
2, 91276, Note_off_c, 1, 61, 0
2, 91280, Note_off_c, 1, 56, 0
2, 91288, Note_off_c, 1, 49, 0
2, 91288, Note_on_c, 1, 73, 104
2, 91292, Control_c, 1, 64, 0
2, 91384, Note_on_c, 1, 77, 108
2, 91384, Note_on_c, 1, 56, 96
2, 91384, Note_on_c, 1, 44, 104
2, 91388, Note_off_c, 1, 73, 64
2, 91404, Note_off_c, 1, 56, 64
2, 91412, Note_off_c, 1, 44, 64
2, 91432, Control_c, 1, 64, 127
2, 91476, Note_off_c, 1, 77, 64
2, 91480, Note_on_c, 1, 80, 104
2, 91484, Note_on_c, 1, 77, 71
2, 91484, Control_c, 1, 64, 0
2, 91488, Note_off_c, 1, 77, 64
2, 91500, Note_off_c, 1, 80, 64
2, 91576, Note_on_c, 1, 77, 117
2, 91576, Note_on_c, 1, 85, 108
2, 91576, Note_on_c, 1, 80, 117
2, 91584, Note_on_c, 1, 73, 112
2, 91588, Note_on_c, 1, 37, 118
2, 91588, Note_on_c, 1, 49, 108
2, 91588, Control_c, 1, 64, 127
2, 91596, Note_off_c, 1, 37, 64
2, 91596, Note_off_c, 1, 49, 64
2, 91680, Note_off_c, 1, 73, 64
2, 91684, Note_off_c, 1, 77, 64
2, 91684, Note_off_c, 1, 80, 64
2, 91688, Note_off_c, 1, 85, 64
2, 91716, Control_c, 1, 64, 0
2, 91804, Note_on_c, 1, 48, 122
2, 91804, Note_on_c, 1, 60, 112
2, 91860, Note_off_c, 1, 48, 64
2, 91864, Note_off_c, 1, 60, 64
2, 92020, Note_on_c, 1, 80, 90
2, 92020, Note_on_c, 1, 49, 70
2, 92024, Note_on_c, 1, 68, 93
2, 92024, Note_on_c, 1, 61, 77
2, 92052, Note_off_c, 1, 49, 64
2, 92052, Note_off_c, 1, 61, 64
2, 92140, Note_off_c, 1, 68, 64
2, 92148, Note_off_c, 1, 80, 64
2, 92236, Note_on_c, 1, 61, 52
2, 92236, Note_on_c, 1, 65, 60
2, 92236, Note_on_c, 1, 68, 70
2, 92244, Note_on_c, 1, 56, 49
2, 92244, Note_on_c, 1, 77, 88
2, 92280, Note_off_c, 1, 61, 64
2, 92284, Note_off_c, 1, 65, 64
2, 92284, Note_off_c, 1, 56, 64
2, 92296, Note_off_c, 1, 77, 64
2, 92308, Note_off_c, 1, 68, 64
2, 92444, Note_on_c, 1, 61, 57
2, 92444, Note_on_c, 1, 65, 62
2, 92444, Note_on_c, 1, 80, 88
2, 92448, Note_on_c, 1, 56, 52
2, 92448, Note_on_c, 1, 68, 77
2, 92476, Note_off_c, 1, 65, 64
2, 92480, Note_off_c, 1, 61, 64
2, 92484, Note_off_c, 1, 56, 64
2, 92544, Note_off_c, 1, 80, 0
2, 92544, Note_off_c, 1, 68, 0
2, 92652, Note_on_c, 1, 48, 67
2, 92652, Note_on_c, 1, 60, 66
2, 92652, Note_on_c, 1, 68, 85
2, 92652, Note_on_c, 1, 77, 90
2, 92688, Note_off_c, 1, 60, 64
2, 92696, Note_off_c, 1, 48, 64
2, 92696, Note_off_c, 1, 68, 64
2, 92716, Note_off_c, 1, 77, 64
2, 92840, Note_on_c, 1, 49, 66
2, 92844, Note_on_c, 1, 61, 64
2, 92856, Note_on_c, 1, 80, 64
2, 92856, Note_on_c, 1, 77, 70
2, 92860, Note_off_c, 1, 49, 64
2, 92864, Note_off_c, 1, 61, 64
2, 92988, Note_off_c, 1, 77, 64
2, 93008, Note_off_c, 1, 80, 64
2, 93040, Note_on_c, 1, 82, 68
2, 93044, Note_on_c, 1, 65, 59
2, 93048, Note_on_c, 1, 56, 43
2, 93048, Note_on_c, 1, 61, 40
2, 93052, Note_off_c, 1, 82, 64
2, 93052, Note_on_c, 1, 77, 68
2, 93052, Note_off_c, 1, 77, 64
2, 93072, Note_off_c, 1, 65, 64
2, 93072, Note_off_c, 1, 61, 64
2, 93080, Note_off_c, 1, 56, 64
2, 93144, Note_on_c, 1, 84, 93
2, 93148, Note_on_c, 1, 77, 93
2, 93232, Note_on_c, 1, 58, 63
2, 93236, Note_on_c, 1, 46, 66
2, 93252, Note_off_c, 1, 58, 64
2, 93252, Note_off_c, 1, 46, 64
2, 93340, Note_on_c, 1, 82, 78
2, 93344, Note_off_c, 1, 84, 64
2, 93432, Note_on_c, 1, 47, 66
2, 93436, Note_on_c, 1, 59, 64
2, 93440, Note_off_c, 1, 77, 64
2, 93444, Note_on_c, 1, 80, 75
2, 93448, Note_off_c, 1, 82, 64
2, 93456, Note_off_c, 1, 47, 64
2, 93460, Note_off_c, 1, 59, 64
2, 93536, Note_off_c, 1, 80, 64
2, 93540, Note_on_c, 1, 77, 66
2, 93636, Note_on_c, 1, 60, 54
2, 93636, Note_on_c, 1, 48, 39
2, 93648, Note_off_c, 1, 77, 64
2, 93648, Note_on_c, 1, 75, 63
2, 93652, Control_c, 1, 64, 127
2, 93664, Note_off_c, 1, 48, 64
2, 93676, Note_off_c, 1, 60, 64
2, 93744, Note_off_c, 1, 75, 64
2, 93748, Note_on_c, 1, 77, 63
2, 93848, Note_off_c, 1, 77, 0
2, 93848, Note_on_c, 1, 63, 45
2, 93856, Note_on_c, 1, 56, 38
2, 93856, Note_on_c, 1, 60, 35
2, 93860, Control_c, 1, 64, 0
2, 93868, Note_off_c, 1, 63, 64
2, 93868, Note_off_c, 1, 56, 64
2, 93868, Note_off_c, 1, 60, 64
2, 93940, Note_on_c, 1, 72, 49
2, 93944, Note_on_c, 1, 68, 40
2, 94052, Note_on_c, 1, 56, 45
2, 94072, Note_off_c, 1, 56, 64
2, 94100, Note_off_c, 1, 68, 64
2, 94104, Note_off_c, 1, 72, 64
2, 94240, Note_on_c, 1, 39, 85
2, 94248, Note_on_c, 1, 51, 96
2, 94252, Note_off_c, 1, 39, 64
2, 94252, Note_off_c, 1, 51, 64
2, 94444, Note_on_c, 1, 44, 93
2, 94444, Note_on_c, 1, 56, 85
2, 94456, Note_off_c, 1, 44, 64
2, 94460, Note_off_c, 1, 56, 64
2, 94548, Note_on_c, 1, 75, 60
2, 94600, Note_off_c, 1, 75, 64
2, 94640, Note_on_c, 1, 56, 55
2, 94644, Note_on_c, 1, 51, 38
2, 94644, Note_on_c, 1, 77, 71
2, 94644, Note_on_c, 1, 60, 43
2, 94648, Note_on_c, 1, 68, 59
2, 94656, Note_off_c, 1, 56, 64
2, 94656, Note_off_c, 1, 51, 64
2, 94656, Note_off_c, 1, 60, 64
2, 94740, Note_on_c, 1, 72, 39
2, 94784, Note_off_c, 1, 68, 64
2, 94832, Note_off_c, 1, 77, 64
2, 94832, Note_on_c, 1, 51, 57
2, 94836, Note_on_c, 1, 39, 54
2, 94840, Note_off_c, 1, 72, 64
2, 94840, Note_on_c, 1, 75, 53
2, 94844, Note_off_c, 1, 51, 64
2, 94852, Note_off_c, 1, 39, 64
2, 94852, Note_off_c, 1, 75, 64
2, 94932, Note_on_c, 1, 77, 71
2, 94932, Note_on_c, 1, 68, 59
2, 95024, Note_on_c, 1, 57, 65
2, 95036, Note_on_c, 1, 45, 65
2, 95040, Note_off_c, 1, 68, 64
2, 95052, Note_off_c, 1, 45, 64
2, 95060, Note_off_c, 1, 57, 64
2, 95132, Note_off_c, 1, 77, 0
2, 95132, Note_on_c, 1, 72, 65
2, 95216, Note_on_c, 1, 46, 54
2, 95220, Note_on_c, 1, 58, 39
2, 95224, Note_off_c, 1, 72, 64
2, 95232, Note_off_c, 1, 46, 64
2, 95232, Note_off_c, 1, 58, 64
2, 95236, Note_on_c, 1, 75, 59
2, 95236, Note_on_c, 1, 67, 70
2, 95436, Note_on_c, 1, 61, 54
2, 95436, Note_on_c, 1, 51, 46
2, 95440, Note_on_c, 1, 55, 71
2, 95440, Note_on_c, 1, 77, 78
2, 95444, Note_off_c, 1, 75, 64
2, 95448, Note_off_c, 1, 77, 64
2, 95460, Note_off_c, 1, 67, 64
2, 95464, Note_off_c, 1, 51, 64
2, 95464, Note_off_c, 1, 55, 64
2, 95468, Note_off_c, 1, 61, 64
2, 95532, Note_on_c, 1, 70, 66
2, 95536, Note_on_c, 1, 67, 65
2, 95628, Note_on_c, 1, 39, 68
2, 95636, Note_on_c, 1, 51, 60
2, 95640, Note_off_c, 1, 39, 64
2, 95644, Note_off_c, 1, 51, 64
2, 95708, Note_off_c, 1, 67, 64
2, 95744, Note_off_c, 1, 70, 64
2, 95840, Note_on_c, 1, 45, 93
2, 95840, Note_on_c, 1, 57, 85
2, 95852, Note_off_c, 1, 45, 64
2, 95856, Note_off_c, 1, 57, 64
2, 96044, Note_on_c, 1, 46, 78
2, 96048, Note_off_c, 1, 46, 64
2, 96048, Note_on_c, 1, 58, 83
2, 96056, Note_off_c, 1, 58, 64
2, 96136, Note_on_c, 1, 73, 51
2, 96220, Note_off_c, 1, 73, 64
2, 96232, Note_on_c, 1, 51, 57
2, 96240, Note_on_c, 1, 61, 39
2, 96244, Note_off_c, 1, 51, 64
2, 96248, Note_off_c, 1, 61, 64
2, 96248, Note_on_c, 1, 77, 68
2, 96248, Note_on_c, 1, 67, 64
2, 96340, Note_on_c, 1, 70, 48
2, 96352, Note_off_c, 1, 77, 64
2, 96432, Note_on_c, 1, 73, 59
2, 96432, Note_on_c, 1, 39, 65
2, 96432, Note_on_c, 1, 51, 57
2, 96444, Note_off_c, 1, 70, 0
2, 96444, Note_off_c, 1, 39, 64
2, 96444, Note_off_c, 1, 51, 64
2, 96448, Note_off_c, 1, 67, 0
2, 96448, Note_off_c, 1, 73, 64
2, 96528, Note_on_c, 1, 77, 71
2, 96528, Note_on_c, 1, 67, 64
2, 96616, Note_off_c, 1, 77, 64
2, 96620, Note_off_c, 1, 67, 64
2, 96620, Note_on_c, 1, 55, 64
2, 96624, Note_on_c, 1, 43, 62
2, 96652, Note_off_c, 1, 55, 64
2, 96652, Note_off_c, 1, 43, 64
2, 96716, Note_on_c, 1, 68, 70
2, 96716, Note_on_c, 1, 72, 75
2, 96820, Note_on_c, 1, 44, 54
2, 96824, Note_on_c, 1, 56, 54
2, 96828, Note_off_c, 1, 44, 64
2, 96836, Note_off_c, 1, 56, 64
2, 96932, Note_on_c, 1, 75, 60
2, 96940, Note_off_c, 1, 72, 64
2, 96964, Note_off_c, 1, 75, 64
2, 96972, Note_off_c, 1, 68, 64
2, 97024, Note_on_c, 1, 56, 53
2, 97032, Note_on_c, 1, 60, 50
2, 97032, Note_on_c, 1, 51, 37
2, 97032, Note_on_c, 1, 77, 75
2, 97032, Note_on_c, 1, 68, 62
2, 97040, Note_off_c, 1, 56, 64
2, 97040, Note_off_c, 1, 60, 64
2, 97040, Note_off_c, 1, 51, 64
2, 97132, Note_on_c, 1, 72, 42
2, 97152, Note_off_c, 1, 77, 64
2, 97228, Note_on_c, 1, 75, 54
2, 97228, Note_on_c, 1, 51, 43
2, 97228, Note_on_c, 1, 39, 58
2, 97240, Note_off_c, 1, 72, 64
2, 97244, Note_off_c, 1, 39, 64
2, 97248, Note_off_c, 1, 51, 64
2, 97252, Note_off_c, 1, 68, 64
2, 97252, Note_off_c, 1, 75, 64
2, 97324, Note_on_c, 1, 77, 68
2, 97332, Note_on_c, 1, 68, 58
2, 97428, Note_on_c, 1, 56, 53
2, 97432, Note_off_c, 1, 77, 64
2, 97432, Note_on_c, 1, 60, 44
2, 97432, Note_on_c, 1, 51, 39
2, 97440, Note_off_c, 1, 68, 64
2, 97440, Note_off_c, 1, 60, 64
2, 97452, Note_off_c, 1, 56, 64
2, 97456, Note_off_c, 1, 51, 64
2, 97520, Note_on_c, 1, 72, 68
2, 97520, Note_on_c, 1, 68, 56
2, 97616, Note_on_c, 1, 56, 64
2, 97620, Note_on_c, 1, 44, 67
2, 97632, Note_off_c, 1, 44, 64
2, 97640, Note_off_c, 1, 56, 64
2, 97720, Note_on_c, 1, 75, 68
2, 97728, Note_off_c, 1, 72, 0
2, 97752, Note_off_c, 1, 68, 0
2, 97760, Note_off_c, 1, 75, 64
2, 97824, Note_on_c, 1, 51, 64
2, 97824, Note_on_c, 1, 60, 66
2, 97824, Note_on_c, 1, 56, 63
2, 97828, Note_on_c, 1, 77, 80
2, 97828, Note_on_c, 1, 68, 66
2, 97832, Note_off_c, 1, 56, 64
2, 97836, Note_off_c, 1, 51, 64
2, 97836, Note_off_c, 1, 60, 64
2, 97924, Note_on_c, 1, 72, 73
2, 97944, Control_c, 1, 64, 127
2, 97968, Note_off_c, 1, 68, 64
2, 97976, Note_off_c, 1, 77, 64
2, 98008, Note_off_c, 1, 72, 64
2, 98020, Control_c, 1, 64, 0
2, 98032, Note_on_c, 1, 58, 75
2, 98032, Note_on_c, 1, 75, 73
2, 98032, Note_on_c, 1, 46, 80
2, 98060, Note_off_c, 1, 75, 64
2, 98112, Note_off_c, 1, 58, 64
2, 98112, Note_off_c, 1, 46, 64
2, 98116, Control_c, 1, 64, 127
2, 98132, Note_on_c, 1, 68, 75
2, 98132, Note_on_c, 1, 77, 85
2, 98224, Note_on_c, 1, 48, 96
2, 98224, Control_c, 1, 64, 0
2, 98228, Note_on_c, 1, 60, 88
2, 98232, Note_off_c, 1, 68, 64
2, 98232, Note_off_c, 1, 77, 64
2, 98328, Note_on_c, 1, 75, 80
2, 98328, Control_c, 1, 64, 127
2, 98340, Note_off_c, 1, 60, 64
2, 98344, Note_off_c, 1, 48, 64
2, 98344, Note_off_c, 1, 75, 64
2, 98432, Control_c, 1, 64, 0
2, 98436, Note_on_c, 1, 61, 78
2, 98436, Note_on_c, 1, 49, 77
2, 98436, Note_on_c, 1, 80, 77
2, 98440, Note_on_c, 1, 68, 90
2, 98492, Note_off_c, 1, 49, 64
2, 98500, Note_off_c, 1, 61, 64
2, 98528, Control_c, 1, 64, 127
2, 98544, Control_c, 1, 64, 0
2, 98560, Note_off_c, 1, 80, 64
2, 98560, Note_off_c, 1, 68, 64
2, 98628, Note_on_c, 1, 56, 66
2, 98628, Note_on_c, 1, 65, 75
2, 98636, Note_on_c, 1, 68, 68
2, 98636, Note_on_c, 1, 77, 90
2, 98640, Note_on_c, 1, 61, 61
2, 98712, Note_off_c, 1, 68, 64
2, 98712, Note_off_c, 1, 77, 64
2, 98744, Note_off_c, 1, 61, 64
2, 98748, Note_off_c, 1, 56, 64
2, 98752, Note_off_c, 1, 65, 64
2, 98824, Note_on_c, 1, 80, 78
2, 98828, Note_on_c, 1, 68, 80
2, 98832, Note_on_c, 1, 56, 66
2, 98832, Note_on_c, 1, 65, 77
2, 98832, Note_on_c, 1, 61, 62
2, 98832, Control_c, 1, 64, 127
2, 98856, Note_off_c, 1, 56, 64
2, 98856, Note_off_c, 1, 65, 64
2, 98856, Note_off_c, 1, 61, 64
2, 98944, Note_off_c, 1, 80, 0
2, 98948, Note_off_c, 1, 68, 0
2, 98968, Control_c, 1, 64, 0
2, 99028, Note_on_c, 1, 48, 85
2, 99032, Note_on_c, 1, 60, 78
2, 99032, Note_on_c, 1, 77, 104
2, 99032, Note_on_c, 1, 68, 77
2, 99036, Control_c, 1, 64, 127
2, 99056, Note_off_c, 1, 68, 64
2, 99068, Note_off_c, 1, 77, 64
2, 99092, Note_off_c, 1, 60, 64
2, 99100, Note_off_c, 1, 48, 64
2, 99204, Control_c, 1, 64, 0
2, 99228, Note_on_c, 1, 61, 90
2, 99228, Note_on_c, 1, 49, 93
2, 99232, Note_on_c, 1, 80, 67
2, 99232, Note_on_c, 1, 77, 70
2, 99280, Note_off_c, 1, 49, 64
2, 99284, Note_off_c, 1, 61, 64
2, 99284, Control_c, 1, 64, 127
2, 99396, Control_c, 1, 64, 0
2, 99428, Note_on_c, 1, 82, 75
2, 99432, Note_off_c, 1, 80, 64
2, 99432, Note_on_c, 1, 56, 66
2, 99432, Note_on_c, 1, 65, 68
2, 99432, Note_on_c, 1, 61, 59
2, 99448, Note_off_c, 1, 77, 64
2, 99448, Note_off_c, 1, 82, 64
2, 99532, Note_off_c, 1, 56, 64
2, 99532, Note_off_c, 1, 65, 64
2, 99532, Note_off_c, 1, 61, 64
2, 99532, Note_on_c, 1, 84, 80
2, 99532, Note_on_c, 1, 77, 83
2, 99624, Note_on_c, 1, 58, 67
2, 99624, Note_on_c, 1, 46, 75
2, 99644, Note_off_c, 1, 84, 64
2, 99648, Control_c, 1, 64, 127
2, 99704, Note_off_c, 1, 58, 64
2, 99704, Note_off_c, 1, 46, 64
2, 99728, Note_on_c, 1, 82, 85
2, 99740, Note_off_c, 1, 77, 64
2, 99808, Control_c, 1, 64, 0
2, 99816, Note_on_c, 1, 59, 65
2, 99820, Note_on_c, 1, 47, 67
2, 99828, Note_off_c, 1, 82, 64
2, 99832, Note_on_c, 1, 80, 77
2, 99900, Note_off_c, 1, 47, 64
2, 99912, Note_off_c, 1, 59, 64
2, 99920, Note_off_c, 1, 80, 64
2, 99920, Note_on_c, 1, 77, 78
2, 100024, Note_off_c, 1, 77, 64
2, 100024, Note_on_c, 1, 48, 49
2, 100028, Note_on_c, 1, 60, 49
2, 100028, Note_on_c, 1, 80, 69
2, 100036, Note_off_c, 1, 48, 64
2, 100044, Note_off_c, 1, 60, 64
2, 100224, Note_off_c, 1, 80, 0
2, 100228, Note_on_c, 1, 56, 55
2, 100228, Note_on_c, 1, 77, 77
2, 100228, Note_on_c, 1, 63, 52
2, 100240, Note_on_c, 1, 60, 34
2, 100284, Note_off_c, 1, 77, 64
2, 100300, Note_off_c, 1, 56, 64
2, 100304, Note_off_c, 1, 63, 64
2, 100304, Note_off_c, 1, 60, 64
2, 100424, Note_on_c, 1, 56, 54
2, 100424, Note_on_c, 1, 60, 53
2, 100428, Note_on_c, 1, 75, 68
2, 100432, Note_on_c, 1, 63, 52
2, 100452, Note_off_c, 1, 60, 64
2, 100452, Note_off_c, 1, 75, 64
2, 100452, Note_off_c, 1, 63, 64
2, 100472, Note_off_c, 1, 56, 64
2, 100520, Note_on_c, 1, 80, 70
2, 100612, Note_on_c, 1, 39, 75
2, 100616, Note_off_c, 1, 80, 64
2, 100616, Note_on_c, 1, 51, 73
2, 100628, Note_off_c, 1, 39, 64
2, 100628, Note_off_c, 1, 51, 64
2, 100720, Note_on_c, 1, 72, 71
2, 100720, Note_on_c, 1, 68, 54
2, 100816, Note_on_c, 1, 44, 71
2, 100816, Note_on_c, 1, 56, 68
2, 100828, Note_off_c, 1, 44, 64
2, 100828, Note_off_c, 1, 56, 64
2, 100920, Note_off_c, 1, 72, 64
2, 100920, Note_on_c, 1, 75, 67
2, 100940, Note_off_c, 1, 68, 64
2, 100956, Note_off_c, 1, 75, 64
2, 101008, Note_on_c, 1, 56, 44
2, 101016, Note_on_c, 1, 60, 35
2, 101016, Note_on_c, 1, 51, 38
2, 101028, Note_on_c, 1, 68, 66
2, 101032, Note_off_c, 1, 56, 64
2, 101032, Note_off_c, 1, 60, 64
2, 101036, Note_off_c, 1, 51, 64
2, 101036, Note_on_c, 1, 77, 78
2, 101112, Note_on_c, 1, 72, 77
2, 101124, Note_off_c, 1, 77, 64
2, 101208, Note_on_c, 1, 51, 60
2, 101212, Note_off_c, 1, 68, 64
2, 101212, Note_on_c, 1, 39, 65
2, 101220, Note_off_c, 1, 51, 64
2, 101220, Note_off_c, 1, 39, 64
2, 101220, Note_on_c, 1, 75, 77
2, 101248, Note_off_c, 1, 72, 64
2, 101280, Note_off_c, 1, 75, 64
2, 101316, Note_on_c, 1, 77, 77
2, 101316, Note_on_c, 1, 68, 64
2, 101400, Note_off_c, 1, 68, 64
2, 101400, Note_off_c, 1, 77, 64
2, 101412, Note_on_c, 1, 56, 49
2, 101412, Note_on_c, 1, 51, 35
2, 101424, Note_off_c, 1, 56, 64
2, 101428, Note_off_c, 1, 51, 64
2, 101520, Note_on_c, 1, 68, 62
2, 101520, Note_on_c, 1, 65, 61
2, 101612, Note_on_c, 1, 50, 65
2, 101616, Note_on_c, 1, 38, 62
2, 101708, Note_on_c, 1, 70, 62
2, 101724, Note_off_c, 1, 50, 64
2, 101728, Note_off_c, 1, 68, 64
2, 101728, Note_off_c, 1, 38, 64
2, 101732, Note_off_c, 1, 65, 64
2, 101800, Note_off_c, 1, 70, 64
2, 101816, Note_on_c, 1, 50, 54
2, 101816, Note_on_c, 1, 68, 67
2, 101820, Note_on_c, 1, 38, 39
2, 101820, Note_on_c, 1, 65, 62
2, 101896, Note_off_c, 1, 50, 64
2, 101904, Control_c, 1, 64, 127
2, 101908, Note_off_c, 1, 38, 64
2, 101920, Note_off_c, 1, 65, 64
2, 101940, Control_c, 1, 64, 0
2, 102000, Note_on_c, 1, 37, 56
2, 102004, Note_on_c, 1, 49, 51
2, 102012, Note_on_c, 1, 64, 68
2, 102076, Note_off_c, 1, 64, 64
2, 102088, Note_off_c, 1, 68, 64
2, 102108, Note_on_c, 1, 70, 61
2, 102120, Note_off_c, 1, 37, 64
2, 102128, Note_off_c, 1, 49, 64
2, 102208, Note_off_c, 1, 70, 64
2, 102212, Note_on_c, 1, 37, 43
2, 102212, Note_on_c, 1, 49, 52
2, 102216, Note_on_c, 1, 68, 63
2, 102216, Note_on_c, 1, 63, 64
2, 102232, Control_c, 1, 64, 127
2, 102244, Note_off_c, 1, 37, 64
2, 102248, Note_off_c, 1, 49, 64
2, 102328, Control_c, 1, 64, 0
2, 102416, Note_on_c, 1, 36, 40
2, 102424, Note_on_c, 1, 48, 49
2, 102440, Note_off_c, 1, 36, 64
2, 102440, Control_c, 1, 64, 127
2, 102448, Note_off_c, 1, 48, 64
2, 102504, Note_on_c, 1, 70, 65
2, 102520, Note_off_c, 1, 68, 64
2, 102524, Note_off_c, 1, 63, 64
2, 102552, Note_off_c, 1, 70, 64
2, 102600, Note_on_c, 1, 60, 39
2, 102600, Note_on_c, 1, 51, 38
2, 102600, Note_on_c, 1, 56, 40
2, 102600, Control_c, 1, 64, 0
2, 102612, Note_on_c, 1, 72, 70
2, 102616, Note_on_c, 1, 63, 62
2, 102632, Note_off_c, 1, 60, 64
2, 102656, Note_off_c, 1, 51, 64
2, 102656, Note_off_c, 1, 56, 64
2, 102712, Note_on_c, 1, 68, 66
2, 102728, Note_off_c, 1, 72, 64
2, 102812, Note_on_c, 1, 70, 66
2, 102812, Note_on_c, 1, 36, 67
2, 102816, Note_off_c, 1, 68, 0
2, 102816, Note_on_c, 1, 48, 55
2, 102824, Note_off_c, 1, 63, 0
2, 102824, Note_off_c, 1, 70, 64
2, 102828, Note_off_c, 1, 36, 64
2, 102840, Note_off_c, 1, 48, 64
2, 102844, Control_c, 1, 64, 127
2, 102904, Control_c, 1, 64, 0
2, 102912, Note_on_c, 1, 72, 71
2, 102916, Note_on_c, 1, 63, 64
2, 103016, Note_on_c, 1, 60, 62
2, 103016, Control_c, 1, 64, 127
2, 103024, Note_on_c, 1, 51, 53
2, 103024, Note_on_c, 1, 56, 59
2, 103032, Note_off_c, 1, 60, 64
2, 103036, Note_off_c, 1, 51, 64
2, 103036, Note_off_c, 1, 56, 64
2, 103044, Note_off_c, 1, 63, 64
2, 103056, Note_off_c, 1, 72, 64
2, 103120, Note_on_c, 1, 68, 66
2, 103120, Note_on_c, 1, 62, 67
2, 103120, Control_c, 1, 64, 0
2, 103216, Note_on_c, 1, 41, 61
2, 103216, Note_on_c, 1, 53, 64
2, 103312, Note_on_c, 1, 70, 59
2, 103312, Control_c, 1, 64, 127
2, 103336, Note_off_c, 1, 68, 64
2, 103340, Note_off_c, 1, 53, 64
2, 103352, Note_off_c, 1, 62, 64
2, 103352, Note_off_c, 1, 41, 64
2, 103352, Note_off_c, 1, 70, 64
2, 103412, Note_on_c, 1, 41, 34
2, 103412, Note_on_c, 1, 53, 49
2, 103416, Control_c, 1, 64, 0
2, 103424, Note_on_c, 1, 72, 67
2, 103424, Note_on_c, 1, 62, 64
2, 103488, Control_c, 1, 64, 127
2, 103512, Note_off_c, 1, 41, 64
2, 103512, Note_off_c, 1, 53, 64
2, 103516, Note_on_c, 1, 68, 38
2, 103520, Note_off_c, 1, 72, 64
2, 103600, Note_off_c, 1, 62, 64
2, 103604, Note_off_c, 1, 68, 64
2, 103612, Control_c, 1, 64, 0
2, 103616, Note_on_c, 1, 43, 51
2, 103620, Note_on_c, 1, 55, 55
2, 103708, Note_on_c, 1, 70, 54
2, 103708, Note_on_c, 1, 61, 48
2, 103728, Note_off_c, 1, 43, 64
2, 103728, Note_off_c, 1, 55, 64
2, 103732, Control_c, 1, 64, 127
2, 103816, Control_c, 1, 64, 0
2, 103824, Note_on_c, 1, 43, 49
2, 103824, Note_on_c, 1, 55, 49
2, 103872, Note_off_c, 1, 61, 64
2, 103904, Note_off_c, 1, 55, 64
2, 103908, Note_off_c, 1, 70, 64
2, 103912, Note_off_c, 1, 43, 64
2, 103912, Note_on_c, 1, 63, 50
2, 104020, Note_on_c, 1, 68, 45
2, 104020, Note_on_c, 1, 44, 39
2, 104024, Control_c, 1, 64, 127
2, 104028, Note_off_c, 1, 63, 64
2, 104028, Note_on_c, 1, 56, 46
2, 104028, Note_on_c, 1, 60, 57
2, 104048, Note_off_c, 1, 60, 64
2, 104052, Note_off_c, 1, 44, 64
2, 104056, Note_off_c, 1, 68, 64
2, 104056, Note_off_c, 1, 56, 64
2, 104216, Control_c, 1, 64, 0
2, 104224, Note_on_c, 1, 75, 59
2, 104224, Note_on_c, 1, 63, 66
2, 104224, Note_on_c, 1, 60, 38
2, 104228, Note_on_c, 1, 51, 35
2, 104228, Note_on_c, 1, 56, 35
2, 104288, Control_c, 1, 64, 127
2, 104308, Note_off_c, 1, 60, 64
2, 104312, Note_off_c, 1, 51, 64
2, 104312, Note_off_c, 1, 56, 64
2, 104336, Control_c, 1, 64, 0
2, 104364, Note_off_c, 1, 75, 64
2, 104364, Note_off_c, 1, 63, 64
2, 104420, Note_on_c, 1, 58, 66
2, 104420, Note_on_c, 1, 46, 71
2, 104424, Note_on_c, 1, 75, 64
2, 104428, Note_on_c, 1, 63, 40
2, 104432, Control_c, 1, 64, 127
2, 104496, Note_off_c, 1, 46, 64
2, 104508, Note_off_c, 1, 58, 64
2, 104556, Note_off_c, 1, 63, 64
2, 104556, Note_off_c, 1, 75, 64
2, 104616, Control_c, 1, 64, 0
2, 104624, Note_on_c, 1, 48, 80
2, 104624, Note_on_c, 1, 60, 80
2, 104636, Note_on_c, 1, 75, 66
2, 104636, Note_on_c, 1, 63, 53
2, 104640, Control_c, 1, 64, 127
2, 104688, Note_off_c, 1, 63, 64
2, 104704, Note_off_c, 1, 75, 64
2, 104712, Note_off_c, 1, 60, 64
2, 104720, Note_off_c, 1, 48, 64
2, 104820, Control_c, 1, 64, 0
2, 104824, Note_on_c, 1, 61, 83
2, 104828, Note_on_c, 1, 49, 96
2, 104848, Note_on_c, 1, 68, 50
2, 104848, Note_on_c, 1, 80, 57
2, 104872, Control_c, 1, 64, 127
2, 104892, Note_off_c, 1, 49, 64
2, 104904, Note_off_c, 1, 61, 64
2, 104968, Note_off_c, 1, 68, 64
2, 104980, Note_off_c, 1, 80, 64
2, 105032, Note_on_c, 1, 77, 80
2, 105032, Note_on_c, 1, 65, 73
2, 105036, Note_on_c, 1, 56, 68
2, 105036, Note_on_c, 1, 68, 60
2, 105036, Control_c, 1, 64, 0
2, 105040, Note_on_c, 1, 61, 53
2, 105112, Control_c, 1, 64, 127
2, 105160, Note_off_c, 1, 68, 64
2, 105168, Note_off_c, 1, 77, 64
2, 105168, Note_off_c, 1, 61, 64
2, 105172, Note_off_c, 1, 65, 64
2, 105172, Note_off_c, 1, 56, 64
2, 105216, Control_c, 1, 64, 0
2, 105224, Note_on_c, 1, 80, 73
2, 105232, Note_on_c, 1, 56, 66
2, 105236, Note_on_c, 1, 65, 69
2, 105236, Note_on_c, 1, 61, 59
2, 105236, Note_on_c, 1, 68, 66
2, 105252, Control_c, 1, 64, 127
2, 105268, Note_off_c, 1, 65, 64
2, 105272, Note_off_c, 1, 61, 64
2, 105276, Note_off_c, 1, 56, 64
2, 105356, Note_off_c, 1, 80, 64
2, 105360, Note_off_c, 1, 68, 64
2, 105404, Control_c, 1, 64, 0
2, 105424, Note_on_c, 1, 48, 80
2, 105424, Note_on_c, 1, 60, 80
2, 105424, Note_on_c, 1, 77, 83
2, 105428, Note_on_c, 1, 68, 55
2, 105448, Control_c, 1, 64, 127
2, 105452, Note_off_c, 1, 68, 64
2, 105460, Note_off_c, 1, 77, 64
2, 105512, Note_off_c, 1, 60, 64
2, 105524, Note_off_c, 1, 48, 64
2, 105616, Control_c, 1, 64, 0
2, 105628, Note_on_c, 1, 49, 83
2, 105632, Note_on_c, 1, 61, 78
2, 105632, Note_on_c, 1, 80, 73
2, 105632, Note_on_c, 1, 77, 70
2, 105660, Control_c, 1, 64, 127
2, 105676, Note_off_c, 1, 49, 64
2, 105688, Note_off_c, 1, 61, 64
2, 105756, Note_off_c, 1, 77, 64
2, 105768, Note_off_c, 1, 80, 64
2, 105824, Note_on_c, 1, 56, 57
2, 105828, Note_on_c, 1, 65, 65
2, 105828, Note_on_c, 1, 61, 50
2, 105828, Note_on_c, 1, 82, 61
2, 105828, Control_c, 1, 64, 0
2, 105832, Note_on_c, 1, 77, 71
2, 105848, Note_off_c, 1, 82, 64
2, 105856, Note_off_c, 1, 77, 64
2, 105920, Note_off_c, 1, 65, 64
2, 105924, Note_off_c, 1, 61, 64
2, 105932, Note_off_c, 1, 56, 64
2, 105932, Note_on_c, 1, 84, 73
2, 105936, Note_on_c, 1, 77, 71
2, 106032, Note_off_c, 1, 84, 64
2, 106032, Note_on_c, 1, 58, 55
2, 106032, Note_on_c, 1, 46, 73
2, 106032, Control_c, 1, 64, 127
2, 106056, Note_off_c, 1, 77, 64
2, 106116, Note_off_c, 1, 46, 64
2, 106120, Note_off_c, 1, 58, 64
2, 106124, Note_on_c, 1, 82, 65
2, 106208, Control_c, 1, 64, 0
2, 106216, Note_off_c, 1, 82, 64
2, 106216, Note_on_c, 1, 47, 52
2, 106220, Note_on_c, 1, 59, 57
2, 106244, Note_on_c, 1, 80, 67
2, 106308, Note_off_c, 1, 47, 64
2, 106320, Note_off_c, 1, 59, 64
2, 106332, Note_off_c, 1, 80, 64
2, 106332, Note_on_c, 1, 77, 70
2, 106388, Note_on_c, 1, 48, 49
2, 106420, Note_off_c, 1, 77, 64
2, 106420, Note_on_c, 1, 60, 36
2, 106428, Note_on_c, 1, 75, 63
2, 106448, Note_off_c, 1, 48, 64
2, 106460, Note_off_c, 1, 60, 64
2, 106520, Note_on_c, 1, 77, 66
2, 106528, Note_off_c, 1, 75, 64
2, 106616, Note_off_c, 1, 77, 64
2, 106628, Note_on_c, 1, 56, 40
2, 106632, Note_on_c, 1, 60, 35
2, 106632, Note_on_c, 1, 63, 34
2, 106656, Note_off_c, 1, 56, 0
2, 106656, Note_off_c, 1, 60, 0
2, 106656, Note_off_c, 1, 63, 0
2, 106732, Note_on_c, 1, 68, 54
2, 106736, Note_on_c, 1, 72, 60
2, 106836, Note_on_c, 1, 63, 39
2, 106844, Note_on_c, 1, 56, 37
2, 106844, Note_on_c, 1, 60, 34
2, 106864, Note_off_c, 1, 63, 64
2, 106864, Note_off_c, 1, 60, 64
2, 106880, Note_off_c, 1, 56, 64
2, 107000, Note_off_c, 1, 68, 64
2, 107000, Note_off_c, 1, 72, 64
2, 107032, Note_on_c, 1, 39, 66
2, 107032, Note_on_c, 1, 51, 78
2, 107032, Control_c, 1, 64, 127
2, 107040, Note_off_c, 1, 39, 64
2, 107052, Note_off_c, 1, 51, 64
2, 107172, Note_on_c, 1, 52, 65
2, 107184, Note_on_c, 1, 53, 55
2, 107212, Note_off_c, 1, 53, 64
2, 107212, Note_on_c, 1, 54, 54
2, 107216, Note_off_c, 1, 52, 64
2, 107216, Note_on_c, 1, 55, 60
2, 107228, Note_off_c, 1, 54, 64
2, 107228, Note_off_c, 1, 55, 64
2, 107228, Note_on_c, 1, 56, 38
2, 107240, Note_on_c, 1, 44, 69
2, 107240, Control_c, 1, 64, 0
2, 107320, Note_off_c, 1, 56, 64
2, 107320, Note_off_c, 1, 44, 64
2, 107332, Note_on_c, 1, 75, 71
2, 107408, Note_off_c, 1, 75, 64
2, 107428, Note_on_c, 1, 77, 63
2, 107432, Note_on_c, 1, 68, 61
2, 107440, Note_on_c, 1, 60, 59
2, 107440, Note_on_c, 1, 56, 40
2, 107444, Note_on_c, 1, 51, 35
2, 107480, Note_off_c, 1, 56, 64
2, 107484, Note_off_c, 1, 60, 64
2, 107488, Note_off_c, 1, 51, 64
2, 107528, Note_on_c, 1, 72, 69
2, 107544, Note_off_c, 1, 68, 64
2, 107576, Note_off_c, 1, 77, 64
2, 107632, Note_off_c, 1, 72, 64
2, 107636, Note_on_c, 1, 37, 60
2, 107640, Note_off_c, 1, 37, 64
2, 107640, Note_on_c, 1, 75, 64
2, 107644, Note_on_c, 1, 49, 52
2, 107648, Note_off_c, 1, 49, 64
2, 107660, Note_off_c, 1, 75, 64
2, 107732, Note_on_c, 1, 77, 71
2, 107736, Note_on_c, 1, 68, 59
2, 107832, Note_on_c, 1, 45, 62
2, 107832, Note_on_c, 1, 57, 62
2, 107840, Note_off_c, 1, 77, 64
2, 107840, Note_off_c, 1, 68, 64
2, 107916, Note_off_c, 1, 57, 64
2, 107924, Note_on_c, 1, 72, 70
2, 107928, Note_off_c, 1, 45, 0
2, 107968, Control_c, 1, 64, 127
2, 107984, Note_off_c, 1, 72, 64
2, 108020, Control_c, 1, 64, 0
2, 108024, Note_on_c, 1, 58, 51
2, 108024, Note_on_c, 1, 46, 51
2, 108032, Note_on_c, 1, 75, 62
2, 108032, Note_on_c, 1, 67, 68
2, 108048, Note_off_c, 1, 46, 64
2, 108056, Note_off_c, 1, 58, 64
2, 108212, Note_off_c, 1, 75, 64
2, 108224, Note_on_c, 1, 77, 62
2, 108232, Note_on_c, 1, 51, 55
2, 108232, Note_on_c, 1, 55, 67
2, 108236, Note_on_c, 1, 61, 51
2, 108240, Note_off_c, 1, 77, 64
2, 108244, Note_off_c, 1, 67, 64
2, 108308, Note_off_c, 1, 55, 64
2, 108316, Note_off_c, 1, 61, 64
2, 108316, Note_on_c, 1, 70, 69
2, 108324, Note_off_c, 1, 51, 64
2, 108324, Note_on_c, 1, 67, 62
2, 108424, Note_on_c, 1, 39, 59
2, 108424, Note_on_c, 1, 51, 52
2, 108444, Control_c, 1, 64, 127
2, 108448, Note_off_c, 1, 39, 64
2, 108448, Note_off_c, 1, 51, 64
2, 108500, Note_off_c, 1, 70, 64
2, 108504, Note_off_c, 1, 67, 64
2, 108528, Control_c, 1, 64, 0
2, 108592, Note_on_c, 1, 55, 67
2, 108612, Note_on_c, 1, 56, 64
2, 108616, Note_off_c, 1, 55, 64
2, 108636, Control_c, 1, 64, 127
2, 108640, Note_off_c, 1, 56, 64
2, 108644, Note_on_c, 1, 45, 62
2, 108648, Note_on_c, 1, 57, 57
2, 108668, Note_off_c, 1, 57, 64
2, 108672, Note_off_c, 1, 45, 64
2, 108816, Note_on_c, 1, 58, 62
2, 108820, Note_on_c, 1, 46, 66
2, 108828, Control_c, 1, 64, 0
2, 108840, Control_c, 1, 64, 127
2, 108852, Note_off_c, 1, 46, 64
2, 108868, Note_off_c, 1, 58, 64
2, 108912, Control_c, 1, 64, 0
2, 108916, Note_on_c, 1, 73, 62
2, 108976, Note_off_c, 1, 73, 64
2, 109020, Note_on_c, 1, 51, 54
2, 109020, Note_on_c, 1, 55, 68
2, 109020, Note_on_c, 1, 61, 52
2, 109036, Note_off_c, 1, 51, 64
2, 109044, Note_off_c, 1, 55, 64
2, 109044, Note_off_c, 1, 61, 64
2, 109044, Note_on_c, 1, 67, 69
2, 109044, Note_on_c, 1, 77, 71
2, 109124, Note_on_c, 1, 70, 67
2, 109136, Note_off_c, 1, 77, 64
2, 109216, Note_on_c, 1, 39, 53
2, 109224, Note_on_c, 1, 73, 56
2, 109224, Note_on_c, 1, 51, 40
2, 109232, Note_off_c, 1, 39, 64
2, 109240, Note_off_c, 1, 70, 0
2, 109240, Note_off_c, 1, 51, 64
2, 109252, Note_off_c, 1, 67, 0
2, 109252, Note_off_c, 1, 73, 64
2, 109320, Note_on_c, 1, 77, 71
2, 109320, Note_on_c, 1, 67, 75
2, 109420, Note_off_c, 1, 77, 64
2, 109420, Note_off_c, 1, 67, 64
2, 109420, Note_on_c, 1, 55, 64
2, 109420, Note_on_c, 1, 43, 54
2, 109516, Note_off_c, 1, 55, 64
2, 109516, Note_off_c, 1, 43, 64
2, 109520, Note_on_c, 1, 72, 69
2, 109520, Note_on_c, 1, 68, 56
2, 109620, Note_on_c, 1, 56, 59
2, 109624, Note_on_c, 1, 44, 60
2, 109652, Control_c, 1, 64, 127
2, 109664, Note_off_c, 1, 44, 64
2, 109668, Note_off_c, 1, 56, 64
2, 109716, Note_on_c, 1, 75, 68
2, 109728, Note_off_c, 1, 72, 64
2, 109752, Note_off_c, 1, 68, 64
2, 109752, Note_off_c, 1, 75, 64
2, 109756, Control_c, 1, 64, 0
2, 109812, Note_on_c, 1, 56, 53
2, 109816, Note_on_c, 1, 60, 41
2, 109820, Note_on_c, 1, 51, 37
2, 109824, Note_on_c, 1, 77, 77
2, 109828, Note_off_c, 1, 60, 64
2, 109828, Note_on_c, 1, 68, 61
2, 109840, Note_off_c, 1, 56, 64
2, 109840, Note_off_c, 1, 51, 64
2, 109920, Note_on_c, 1, 72, 66
2, 110024, Note_on_c, 1, 51, 63
2, 110024, Note_on_c, 1, 39, 65
2, 110028, Note_on_c, 1, 75, 68
2, 110032, Note_off_c, 1, 77, 64
2, 110036, Note_off_c, 1, 72, 64
2, 110044, Note_off_c, 1, 51, 64
2, 110044, Note_off_c, 1, 39, 64
2, 110052, Note_off_c, 1, 68, 64
2, 110056, Note_off_c, 1, 75, 64
2, 110124, Note_on_c, 1, 77, 73
2, 110132, Note_on_c, 1, 68, 65
2, 110224, Note_off_c, 1, 77, 64
2, 110228, Note_off_c, 1, 68, 64
2, 110232, Note_on_c, 1, 51, 64
2, 110232, Note_on_c, 1, 60, 73
2, 110232, Note_on_c, 1, 56, 55
2, 110288, Note_off_c, 1, 60, 64
2, 110292, Note_off_c, 1, 56, 64
2, 110300, Note_off_c, 1, 51, 64
2, 110324, Note_on_c, 1, 68, 60
2, 110328, Note_on_c, 1, 72, 71
2, 110424, Note_on_c, 1, 56, 69
2, 110428, Note_on_c, 1, 44, 41
2, 110432, Control_c, 1, 64, 127
2, 110440, Note_off_c, 1, 44, 64
2, 110448, Note_off_c, 1, 56, 64
2, 110512, Note_off_c, 1, 68, 0
2, 110520, Note_off_c, 1, 72, 0
2, 110524, Note_on_c, 1, 75, 75
2, 110560, Note_off_c, 1, 75, 64
2, 110608, Control_c, 1, 64, 0
2, 110620, Note_on_c, 1, 60, 64
2, 110620, Note_on_c, 1, 51, 43
2, 110624, Note_on_c, 1, 56, 60
2, 110628, Note_on_c, 1, 77, 85
2, 110628, Note_on_c, 1, 68, 70
2, 110652, Control_c, 1, 64, 127
2, 110684, Note_off_c, 1, 51, 64
2, 110688, Note_off_c, 1, 56, 64
2, 110696, Note_off_c, 1, 60, 64
2, 110724, Note_on_c, 1, 72, 78
2, 110812, Note_off_c, 1, 77, 64
2, 110816, Control_c, 1, 64, 0
2, 110820, Note_off_c, 1, 68, 64
2, 110820, Note_off_c, 1, 72, 64
2, 110820, Note_on_c, 1, 75, 75
2, 110820, Note_on_c, 1, 46, 90
2, 110820, Note_on_c, 1, 58, 83
2, 110840, Note_off_c, 1, 75, 64
2, 110844, Control_c, 1, 64, 127
2, 110896, Control_c, 1, 64, 0
2, 110916, Control_c, 1, 64, 127
2, 110928, Note_off_c, 1, 46, 64
2, 110928, Note_on_c, 1, 77, 93
2, 110928, Note_on_c, 1, 68, 78
2, 110932, Note_off_c, 1, 58, 64
2, 111020, Control_c, 1, 64, 0
2, 111028, Note_on_c, 1, 48, 90
2, 111028, Note_on_c, 1, 60, 88
2, 111032, Note_off_c, 1, 77, 64
2, 111032, Note_off_c, 1, 68, 64
2, 111124, Note_on_c, 1, 75, 93
2, 111132, Control_c, 1, 64, 127
2, 111144, Note_off_c, 1, 75, 64
2, 111148, Note_off_c, 1, 48, 64
2, 111148, Note_off_c, 1, 60, 64
2, 111252, Note_on_c, 1, 61, 75
2, 111256, Note_on_c, 1, 49, 80
2, 111260, Note_on_c, 1, 80, 90
2, 111260, Note_on_c, 1, 68, 93
2, 111260, Control_c, 1, 64, 0
2, 111324, Note_off_c, 1, 61, 64
2, 111324, Note_off_c, 1, 49, 64
2, 111396, Note_off_c, 1, 80, 64
2, 111400, Note_off_c, 1, 68, 64
2, 111456, Note_on_c, 1, 77, 93
2, 111456, Note_on_c, 1, 65, 78
2, 111460, Note_on_c, 1, 56, 68
2, 111468, Note_on_c, 1, 68, 73
2, 111468, Note_on_c, 1, 61, 53
2, 111560, Note_off_c, 1, 68, 64
2, 111564, Note_off_c, 1, 77, 64
2, 111576, Note_off_c, 1, 65, 64
2, 111576, Note_off_c, 1, 61, 64
2, 111580, Note_off_c, 1, 56, 64
2, 111664, Note_on_c, 1, 80, 83
2, 111664, Note_on_c, 1, 56, 66
2, 111664, Note_on_c, 1, 65, 78
2, 111664, Note_on_c, 1, 68, 93
2, 111668, Note_on_c, 1, 61, 51
2, 111684, Control_c, 1, 64, 127
2, 111700, Note_off_c, 1, 65, 64
2, 111708, Note_off_c, 1, 56, 64
2, 111712, Note_off_c, 1, 61, 64
2, 111780, Note_off_c, 1, 68, 64
2, 111784, Note_off_c, 1, 80, 64
2, 111784, Control_c, 1, 64, 0
2, 111868, Note_on_c, 1, 48, 85
2, 111868, Note_on_c, 1, 60, 83
2, 111872, Note_on_c, 1, 77, 104
2, 111872, Note_on_c, 1, 68, 77
2, 111872, Control_c, 1, 64, 127
2, 111876, Note_off_c, 1, 68, 64
2, 111880, Note_off_c, 1, 77, 64
2, 111960, Note_off_c, 1, 60, 64
2, 111972, Note_off_c, 1, 48, 64
2, 111992, Control_c, 1, 64, 0
2, 112064, Note_on_c, 1, 61, 70
2, 112068, Note_on_c, 1, 49, 80
2, 112068, Note_on_c, 1, 80, 90
2, 112076, Note_on_c, 1, 77, 85
2, 112076, Control_c, 1, 64, 127
2, 112084, Note_off_c, 1, 49, 64
2, 112092, Note_off_c, 1, 61, 64
2, 112196, Note_off_c, 1, 77, 64
2, 112208, Note_off_c, 1, 80, 64
2, 112260, Control_c, 1, 64, 0
2, 112264, Note_on_c, 1, 61, 61
2, 112264, Note_on_c, 1, 82, 86
2, 112264, Note_on_c, 1, 56, 64
2, 112268, Note_on_c, 1, 65, 68
2, 112268, Note_on_c, 1, 77, 77
2, 112280, Note_off_c, 1, 82, 64
2, 112284, Note_off_c, 1, 77, 64
2, 112356, Note_off_c, 1, 61, 64
2, 112356, Note_off_c, 1, 65, 64
2, 112360, Note_off_c, 1, 56, 64
2, 112372, Note_on_c, 1, 84, 88
2, 112372, Note_on_c, 1, 77, 80
2, 112456, Note_on_c, 1, 58, 77
2, 112456, Note_on_c, 1, 46, 88
2, 112464, Control_c, 1, 64, 127
2, 112504, Note_off_c, 1, 46, 64
2, 112512, Note_off_c, 1, 84, 64
2, 112516, Note_off_c, 1, 58, 64
2, 112560, Note_on_c, 1, 82, 86
2, 112656, Note_on_c, 1, 47, 68
2, 112660, Note_on_c, 1, 59, 68
2, 112664, Note_off_c, 1, 82, 64
2, 112664, Note_on_c, 1, 80, 81
2, 112668, Note_off_c, 1, 77, 64
2, 112724, Control_c, 1, 64, 0
2, 112740, Control_c, 1, 64, 127
2, 112764, Note_on_c, 1, 77, 77
2, 112772, Note_off_c, 1, 80, 64
2, 112784, Note_off_c, 1, 47, 64
2, 112796, Note_off_c, 1, 59, 64
2, 112864, Note_on_c, 1, 60, 55
2, 112868, Note_on_c, 1, 48, 60
2, 112872, Note_off_c, 1, 77, 64
2, 112872, Control_c, 1, 64, 0
2, 112880, Note_on_c, 1, 80, 77
2, 112896, Note_off_c, 1, 48, 64
2, 112904, Note_off_c, 1, 60, 64
2, 112980, Note_off_c, 1, 80, 64
2, 113088, Note_on_c, 1, 77, 80
2, 113092, Note_on_c, 1, 63, 37
2, 113096, Note_on_c, 1, 56, 38
2, 113096, Note_on_c, 1, 60, 34
2, 113152, Note_off_c, 1, 63, 0
2, 113152, Note_off_c, 1, 56, 0
2, 113156, Note_off_c, 1, 77, 0
2, 113156, Note_off_c, 1, 60, 0
2, 113296, Note_on_c, 1, 63, 57
2, 113296, Note_on_c, 1, 75, 71
2, 113296, Note_on_c, 1, 56, 40
2, 113308, Note_off_c, 1, 63, 64
2, 113316, Note_off_c, 1, 75, 64
2, 113316, Note_off_c, 1, 56, 64
2, 113392, Note_on_c, 1, 80, 66
2, 113484, Note_off_c, 1, 80, 64
2, 113492, Note_on_c, 1, 39, 66
2, 113492, Note_on_c, 1, 51, 63
2, 113504, Note_off_c, 1, 39, 64
2, 113508, Note_off_c, 1, 51, 64
2, 113592, Note_on_c, 1, 72, 71
2, 113596, Note_on_c, 1, 68, 39
2, 113696, Note_on_c, 1, 44, 63
2, 113696, Note_on_c, 1, 56, 58
2, 113716, Note_off_c, 1, 44, 64
2, 113716, Note_off_c, 1, 56, 64
2, 113732, Control_c, 1, 64, 127
2, 113792, Note_on_c, 1, 75, 66
2, 113800, Note_off_c, 1, 72, 64
2, 113820, Note_off_c, 1, 68, 64
2, 113824, Note_off_c, 1, 75, 64
2, 113832, Control_c, 1, 64, 0
2, 113892, Note_on_c, 1, 56, 35
2, 113896, Note_on_c, 1, 60, 39
2, 113896, Note_on_c, 1, 51, 32
2, 113908, Note_on_c, 1, 68, 62
2, 113908, Note_on_c, 1, 77, 77
2, 113916, Note_off_c, 1, 56, 64
2, 113916, Note_off_c, 1, 60, 64
2, 113920, Note_off_c, 1, 51, 64
2, 114000, Note_on_c, 1, 72, 69
2, 114012, Note_off_c, 1, 77, 64
2, 114104, Note_off_c, 1, 72, 64
2, 114108, Note_on_c, 1, 39, 64
2, 114108, Note_on_c, 1, 51, 59
2, 114108, Note_on_c, 1, 75, 64
2, 114116, Note_off_c, 1, 39, 64
2, 114120, Note_off_c, 1, 68, 64
2, 114120, Note_off_c, 1, 51, 64
2, 114128, Note_off_c, 1, 75, 64
2, 114200, Note_on_c, 1, 77, 67
2, 114204, Note_on_c, 1, 68, 52
2, 114216, Control_c, 1, 64, 127
2, 114292, Note_off_c, 1, 77, 64
2, 114292, Note_off_c, 1, 68, 64
2, 114308, Note_on_c, 1, 56, 48
2, 114316, Note_on_c, 1, 51, 38
2, 114316, Note_on_c, 1, 60, 49
2, 114328, Note_off_c, 1, 60, 64
2, 114332, Note_off_c, 1, 51, 64
2, 114336, Note_off_c, 1, 56, 64
2, 114408, Note_on_c, 1, 68, 63
2, 114412, Note_on_c, 1, 65, 43
2, 114420, Control_c, 1, 64, 0
2, 114504, Control_c, 1, 64, 127
2, 114512, Note_on_c, 1, 50, 52
2, 114512, Note_on_c, 1, 38, 42
2, 114604, Note_off_c, 1, 50, 64
2, 114604, Note_off_c, 1, 38, 64
2, 114604, Note_on_c, 1, 70, 38
2, 114624, Note_off_c, 1, 65, 64
2, 114636, Note_off_c, 1, 68, 64
2, 114716, Note_off_c, 1, 70, 64
2, 114716, Control_c, 1, 64, 0
2, 114724, Note_on_c, 1, 68, 54
2, 114724, Note_on_c, 1, 38, 40
2, 114724, Note_on_c, 1, 50, 48
2, 114724, Note_on_c, 1, 65, 59
2, 114748, Control_c, 1, 64, 127
2, 114808, Note_off_c, 1, 50, 64
2, 114820, Note_off_c, 1, 38, 64
2, 114836, Note_off_c, 1, 65, 64
2, 114924, Note_on_c, 1, 64, 62
2, 114924, Note_on_c, 1, 37, 36
2, 114928, Note_on_c, 1, 49, 39
2, 114928, Control_c, 1, 64, 0
2, 114996, Note_off_c, 1, 64, 64
2, 115004, Control_c, 1, 64, 127
2, 115016, Note_off_c, 1, 68, 64
2, 115036, Note_off_c, 1, 37, 64
2, 115036, Note_on_c, 1, 70, 55
2, 115036, Note_on_c, 1, 65, 62
2, 115044, Note_off_c, 1, 49, 64
2, 115068, Note_off_c, 1, 70, 64
2, 115068, Note_off_c, 1, 65, 64
2, 115156, Note_on_c, 1, 49, 50
2, 115156, Note_on_c, 1, 37, 41
2, 115156, Note_on_c, 1, 68, 59
2, 115156, Note_on_c, 1, 64, 62
2, 115156, Control_c, 1, 64, 0
2, 115192, Control_c, 1, 64, 127
2, 115252, Note_off_c, 1, 49, 64
2, 115272, Note_off_c, 1, 37, 64
2, 115316, Note_off_c, 1, 64, 64
2, 115448, Note_on_c, 1, 36, 60
2, 115468, Control_c, 1, 64, 0
2, 115496, Note_on_c, 1, 48, 57
2, 115500, Control_c, 1, 64, 127
2, 115504, Note_off_c, 1, 36, 64
2, 115504, Note_on_c, 1, 63, 59
2, 115540, Note_off_c, 1, 48, 64
2, 115604, Note_on_c, 1, 70, 67
2, 115620, Note_off_c, 1, 68, 64
2, 115628, Note_off_c, 1, 63, 64
2, 115640, Note_off_c, 1, 70, 64
2, 115700, Note_on_c, 1, 51, 49
2, 115700, Note_on_c, 1, 56, 47
2, 115704, Note_on_c, 1, 60, 40
2, 115712, Note_off_c, 1, 60, 64
2, 115716, Note_off_c, 1, 56, 64
2, 115716, Control_c, 1, 64, 0
2, 115720, Note_on_c, 1, 72, 70
2, 115720, Note_on_c, 1, 63, 61
2, 115732, Note_off_c, 1, 51, 64
2, 115732, Control_c, 1, 64, 127
2, 115816, Note_on_c, 1, 68, 65
2, 115824, Note_off_c, 1, 72, 64
2, 115856, Note_off_c, 1, 63, 64
2, 115872, Note_off_c, 1, 68, 64
2, 115924, Note_on_c, 1, 39, 54
2, 115924, Note_on_c, 1, 70, 70
2, 115928, Note_on_c, 1, 27, 66
2, 115932, Note_on_c, 1, 63, 60
2, 115932, Control_c, 1, 64, 0
2, 115964, Control_c, 1, 64, 127
2, 115972, Note_off_c, 1, 70, 64
2, 115980, Note_off_c, 1, 63, 64
2, 116032, Note_on_c, 1, 72, 68
2, 116040, Note_on_c, 1, 63, 64
2, 116048, Note_off_c, 1, 39, 64
2, 116056, Note_off_c, 1, 27, 64
2, 116132, Note_off_c, 1, 63, 64
2, 116140, Note_off_c, 1, 72, 64
2, 116140, Note_on_c, 1, 28, 77
2, 116140, Note_on_c, 1, 40, 70
2, 116148, Control_c, 1, 64, 0
2, 116220, Control_c, 1, 64, 127
2, 116236, Note_off_c, 1, 28, 64
2, 116252, Note_off_c, 1, 40, 64
2, 116252, Note_on_c, 1, 68, 64
2, 116252, Note_on_c, 1, 62, 71
2, 116356, Note_on_c, 1, 41, 68
2, 116356, Note_on_c, 1, 29, 71
2, 116372, Control_c, 1, 64, 0
2, 116468, Control_c, 1, 64, 127
2, 116472, Note_on_c, 1, 70, 73
2, 116480, Note_off_c, 1, 68, 64
2, 116512, Note_off_c, 1, 62, 64
2, 116516, Note_off_c, 1, 41, 64
2, 116516, Note_off_c, 1, 29, 64
2, 116516, Note_off_c, 1, 70, 64
2, 116596, Note_on_c, 1, 29, 62
2, 116596, Note_on_c, 1, 41, 61
2, 116604, Control_c, 1, 64, 0
2, 116608, Note_on_c, 1, 72, 70
2, 116616, Note_on_c, 1, 62, 69
2, 116724, Control_c, 1, 64, 127
2, 116740, Note_off_c, 1, 72, 64
2, 116740, Note_on_c, 1, 68, 68
2, 116748, Note_off_c, 1, 29, 64
2, 116752, Note_off_c, 1, 62, 64
2, 116760, Note_off_c, 1, 41, 64
2, 116760, Note_off_c, 1, 68, 64
2, 116840, Note_on_c, 1, 31, 42
2, 116840, Note_on_c, 1, 43, 55
2, 116852, Note_on_c, 1, 70, 66
2, 116856, Note_on_c, 1, 61, 60
2, 116856, Control_c, 1, 64, 0
2, 116868, Note_off_c, 1, 70, 64
2, 116888, Note_off_c, 1, 61, 64
2, 116956, Note_on_c, 1, 70, 60
2, 116956, Note_on_c, 1, 61, 60
2, 117044, Note_off_c, 1, 31, 64
2, 117044, Note_off_c, 1, 43, 64
2, 117080, Note_on_c, 1, 43, 54
2, 117080, Note_on_c, 1, 31, 62
2, 117104, Note_off_c, 1, 61, 64
2, 117108, Control_c, 1, 64, 127
2, 117112, Note_off_c, 1, 70, 64
2, 117180, Note_off_c, 1, 43, 64
2, 117180, Note_on_c, 1, 63, 65
2, 117192, Note_off_c, 1, 31, 64
2, 117232, Note_off_c, 1, 63, 64
2, 117308, Control_c, 1, 64, 0
2, 117312, Note_on_c, 1, 68, 60
2, 117316, Note_on_c, 1, 60, 62
2, 117320, Note_on_c, 1, 44, 41
2, 117320, Note_on_c, 1, 32, 37
2, 117320, Control_c, 1, 64, 0
2, 117336, Control_c, 1, 64, 127
2, 117356, Note_off_c, 1, 60, 64
2, 117368, Note_off_c, 1, 68, 0
2, 117388, Note_off_c, 1, 44, 0
2, 117420, Note_off_c, 1, 32, 0
2, 117436, Control_c, 1, 64, 0
2, 117544, Note_on_c, 1, 73, 59
2, 117552, Note_on_c, 1, 27, 46
2, 117552, Note_on_c, 1, 70, 52
2, 117556, Note_on_c, 1, 75, 43
2, 117584, Note_off_c, 1, 70, 64
2, 117588, Note_off_c, 1, 27, 64
2, 117592, Note_off_c, 1, 73, 64
2, 117596, Note_off_c, 1, 75, 64
2, 117832, Note_on_c, 1, 21, 44
2, 117840, Note_on_c, 1, 75, 53
2, 117840, Note_on_c, 1, 68, 49
2, 117844, Note_on_c, 1, 80, 54
2, 117844, Note_on_c, 1, 72, 49
2, 117844, Control_c, 1, 64, 127
2, 117880, Note_off_c, 1, 21, 64
2, 117880, Note_off_c, 1, 68, 64
2, 117888, Note_off_c, 1, 75, 64
2, 117892, Note_off_c, 1, 80, 64
2, 117892, Note_off_c, 1, 72, 64
2, 117992, Control_c, 1, 64, 0
2, 117992, End_track
3, 0, Start_track
3, 0, Title_t, "Alessandro Simonetto, piano"
3, 0, Key_signature, 0, "major"
3, 0, End_track
4, 0, Start_track
4, 0, Title_t, "Info: www.kunstderfuge.com/ragtime.htm!"
4, 0, Key_signature, 0, "major"
4, 0, End_track
5, 0, Start_track
5, 0, Title_t, "All rights reserved,  2003-04"
5, 0, Key_signature, 0, "major"
5, 0, End_track
6, 0, Start_track
6, 0, Key_signature, 0, "major"
6, 0, End_track
7, 0, Start_track
7, 0, Key_signature, 0, "major"
7, 0, End_track
8, 0, Start_track
8, 0, Key_signature, 0, "major"
8, 0, End_track
9, 0, Start_track
9, 0, Key_signature, 0, "major"
9, 0, End_track
10, 0, Start_track
10, 0, Key_signature, 0, "major"
10, 0, End_track
11, 0, Start_track
11, 0, Key_signature, 0, "major"
11, 0, End_track
12, 0, Start_track
12, 0, Key_signature, 0, "major"
12, 0, End_track
13, 0, Start_track
13, 0, Key_signature, 0, "major"
13, 0, End_track
14, 0, Start_track
14, 0, Key_signature, 0, "major"
14, 0, End_track
15, 0, Start_track
15, 0, Key_signature, 0, "major"
15, 0, End_track
16, 0, Start_track
16, 0, Key_signature, 0, "major"
16, 0, End_track
17, 0, Start_track
17, 1, Copyright_t, "___________________________________________________\012\012KUNSTDERFUGE.COM LARGE CLASSICAL MIDI COLLECTION\012ONCLASSICAL BY ALESSANDRO SIMONETTO, PROPRIETOR\012___________________________________________________\012\012! Attention: this file is under copyright !\012\012(c)onclassical, (c)simonetto, 2010\012___________________________________________________\012\012NO ONE MAY REPUBLISH THIS FILE WITHOUT PERMISSION\012COMMERCIAL USES OF THIS FILE IS STRICTLY PROHIBITED\012___________________________________________________\012\012Files & contributor's list: http://kunstderfuge.com/\012Terms and conditions: http://kunstderfuge.com/notes.htm"
17, 1, End_track
0, 0, End_of_file
