0, 0, Header, 1, 8, 192
1, 0, Start_track
1, 0, Title_t, "3269S"
1, 0, Copyright_t, "May NOT be used for commercial purposes."
1, 0, Text_t, "Roll expression/accent tracks, where present, converted to MIDI velocties.\012"
1, 0, Time_signature, 4, 2, 24, 8
1, 0, Key_signature, 0, "major"
1, 0, Tempo, 500000
1, 0, Marker_t, "Standard MIDI:LPI 135:Tempo  70: 05-25-2004"
1, 0, End_track
2, 0, Start_track
2, 0, Title_t, "Milenberg Joys (1925)"
2, 52, Control_c, 0, 64, 127
2, 140, Control_c, 0, 64, 0
2, 272, Note_on_c, 0, 57, 80
2, 272, Note_on_c, 0, 63, 80
2, 272, Note_on_c, 0, 66, 80
2, 274, Note_on_c, 0, 71, 80
2, 382, Note_on_c, 0, 55, 80
2, 382, Note_on_c, 0, 67, 80
2, 382, Note_on_c, 0, 72, 80
2, 384, Note_on_c, 0, 64, 80
2, 385, Note_on_c, 0, 71, 0
2, 385, Note_on_c, 0, 66, 0
2, 385, Note_on_c, 0, 57, 0
2, 385, Note_on_c, 0, 63, 0
2, 420, Note_on_c, 0, 55, 0
2, 420, Note_on_c, 0, 64, 0
2, 420, Note_on_c, 0, 67, 0
2, 420, Note_on_c, 0, 72, 0
2, 489, Note_on_c, 0, 54, 80
2, 489, Note_on_c, 0, 63, 80
2, 489, Note_on_c, 0, 71, 80
2, 491, Note_on_c, 0, 75, 80
2, 595, Note_on_c, 0, 72, 80
2, 597, Note_on_c, 0, 55, 80
2, 597, Note_on_c, 0, 64, 80
2, 597, Note_on_c, 0, 76, 80
2, 599, Note_on_c, 0, 71, 0
2, 600, Note_on_c, 0, 75, 0
2, 600, Note_on_c, 0, 54, 0
2, 600, Note_on_c, 0, 63, 0
2, 635, Note_on_c, 0, 72, 0
2, 635, Note_on_c, 0, 76, 0
2, 635, Note_on_c, 0, 55, 0
2, 635, Note_on_c, 0, 64, 0
2, 704, Note_on_c, 0, 69, 80
2, 704, Note_on_c, 0, 71, 80
2, 704, Note_on_c, 0, 75, 80
2, 704, Note_on_c, 0, 78, 80
2, 731, Note_on_c, 0, 78, 0
2, 731, Note_on_c, 0, 69, 0
2, 731, Note_on_c, 0, 71, 0
2, 733, Note_on_c, 0, 75, 0
2, 775, Note_on_c, 0, 67, 80
2, 775, Note_on_c, 0, 72, 80
2, 775, Note_on_c, 0, 76, 80
2, 775, Note_on_c, 0, 79, 80
2, 836, Note_on_c, 0, 79, 0
2, 836, Note_on_c, 0, 67, 0
2, 836, Note_on_c, 0, 72, 0
2, 836, Note_on_c, 0, 76, 0
2, 878, Control_c, 0, 64, 127
2, 878, Note_on_c, 0, 64, 80
2, 878, Note_on_c, 0, 72, 80
2, 878, Note_on_c, 0, 76, 80
2, 878, Note_on_c, 0, 79, 80
2, 878, Note_on_c, 0, 84, 80
2, 961, Control_c, 0, 64, 0
2, 1080, Note_on_c, 0, 84, 0
2, 1080, Note_on_c, 0, 64, 0
2, 1080, Note_on_c, 0, 76, 0
2, 1080, Note_on_c, 0, 72, 0
2, 1092, Note_on_c, 0, 79, 0
2, 1123, Note_on_c, 0, 66, 80
2, 1125, Note_on_c, 0, 51, 80
2, 1125, Note_on_c, 0, 60, 80
2, 1125, Note_on_c, 0, 71, 80
2, 1125, Note_on_c, 0, 75, 80
2, 1125, Note_on_c, 0, 78, 80
2, 1125, Note_on_c, 0, 83, 80
2, 1149, Note_on_c, 0, 83, 0
2, 1149, Note_on_c, 0, 71, 0
2, 1149, Note_on_c, 0, 78, 0
2, 1151, Note_on_c, 0, 75, 0
2, 1196, Note_on_c, 0, 71, 80
2, 1196, Note_on_c, 0, 75, 80
2, 1196, Note_on_c, 0, 78, 80
2, 1196, Note_on_c, 0, 83, 80
2, 1256, Note_on_c, 0, 83, 0
2, 1256, Note_on_c, 0, 71, 0
2, 1293, Note_on_c, 0, 75, 0
2, 1293, Note_on_c, 0, 60, 0
2, 1293, Note_on_c, 0, 78, 0
2, 1300, Note_on_c, 0, 71, 80
2, 1300, Note_on_c, 0, 83, 80
2, 1337, Note_on_c, 0, 50, 80
2, 1337, Note_on_c, 0, 60, 80
2, 1337, Note_on_c, 0, 65, 80
2, 1337, Note_on_c, 0, 69, 80
2, 1337, Note_on_c, 0, 72, 80
2, 1337, Note_on_c, 0, 77, 80
2, 1337, Note_on_c, 0, 81, 80
2, 1339, Note_on_c, 0, 66, 0
2, 1341, Note_on_c, 0, 83, 0
2, 1341, Note_on_c, 0, 51, 0
2, 1341, Note_on_c, 0, 71, 0
2, 1375, Note_on_c, 0, 50, 0
2, 1375, Note_on_c, 0, 65, 0
2, 1375, Note_on_c, 0, 60, 0
2, 1399, Note_on_c, 0, 77, 0
2, 1399, Note_on_c, 0, 81, 0
2, 1399, Note_on_c, 0, 72, 0
2, 1399, Note_on_c, 0, 69, 0
2, 1407, Note_on_c, 0, 71, 80
2, 1407, Note_on_c, 0, 83, 80
2, 1441, Note_on_c, 0, 50, 80
2, 1441, Note_on_c, 0, 60, 80
2, 1441, Note_on_c, 0, 65, 80
2, 1443, Note_on_c, 0, 69, 80
2, 1443, Note_on_c, 0, 72, 80
2, 1443, Note_on_c, 0, 77, 80
2, 1443, Note_on_c, 0, 81, 80
2, 1445, Note_on_c, 0, 83, 0
2, 1445, Note_on_c, 0, 71, 0
2, 1480, Note_on_c, 0, 60, 0
2, 1480, Note_on_c, 0, 65, 0
2, 1480, Note_on_c, 0, 50, 0
2, 1502, Note_on_c, 0, 77, 0
2, 1502, Note_on_c, 0, 81, 0
2, 1502, Note_on_c, 0, 69, 0
2, 1502, Note_on_c, 0, 72, 0
2, 1510, Note_on_c, 0, 71, 80
2, 1512, Note_on_c, 0, 83, 80
2, 1546, Note_on_c, 0, 43, 80
2, 1546, Note_on_c, 0, 69, 80
2, 1546, Note_on_c, 0, 72, 80
2, 1546, Note_on_c, 0, 77, 80
2, 1548, Note_on_c, 0, 81, 80
2, 1550, Note_on_c, 0, 83, 0
2, 1550, Note_on_c, 0, 71, 0
2, 1621, Note_on_c, 0, 53, 80
2, 1656, Note_on_c, 0, 60, 80
2, 1680, Note_on_c, 0, 60, 0
2, 1680, Note_on_c, 0, 81, 0
2, 1680, Note_on_c, 0, 77, 0
2, 1680, Note_on_c, 0, 72, 0
2, 1680, Note_on_c, 0, 69, 0
2, 1680, Note_on_c, 0, 43, 0
2, 1681, Note_on_c, 0, 53, 0
2, 1687, Control_c, 0, 64, 127
2, 1724, Note_on_c, 0, 43, 80
2, 1724, Note_on_c, 0, 59, 80
2, 1724, Note_on_c, 0, 67, 80
2, 1724, Note_on_c, 0, 71, 80
2, 1724, Note_on_c, 0, 74, 80
2, 1724, Note_on_c, 0, 79, 80
2, 1726, Note_on_c, 0, 53, 80
2, 1807, Control_c, 0, 64, 0
2, 1820, Note_on_c, 0, 53, 0
2, 1820, Note_on_c, 0, 43, 0
2, 1820, Note_on_c, 0, 59, 0
2, 1827, Note_on_c, 0, 32, 80
2, 1827, Note_on_c, 0, 44, 80
2, 1829, Note_on_c, 0, 74, 0
2, 1829, Note_on_c, 0, 79, 0
2, 1829, Note_on_c, 0, 71, 0
2, 1829, Note_on_c, 0, 67, 0
2, 1864, Note_on_c, 0, 33, 80
2, 1864, Note_on_c, 0, 45, 80
2, 1868, Note_on_c, 0, 44, 0
2, 1868, Note_on_c, 0, 32, 0
2, 1924, Note_on_c, 0, 33, 0
2, 1924, Note_on_c, 0, 45, 0
2, 1935, Note_on_c, 0, 35, 80
2, 1935, Note_on_c, 0, 47, 80
2, 1971, Note_on_c, 0, 36, 80
2, 1971, Note_on_c, 0, 48, 80
2, 1973, Note_on_c, 0, 47, 0
2, 1973, Note_on_c, 0, 35, 0
2, 2008, Note_on_c, 0, 36, 0
2, 2008, Note_on_c, 0, 48, 0
2, 2042, Note_on_c, 0, 79, 80
2, 2079, Note_on_c, 0, 55, 80
2, 2079, Note_on_c, 0, 57, 80
2, 2079, Note_on_c, 0, 60, 80
2, 2079, Note_on_c, 0, 64, 80
2, 2079, Note_on_c, 0, 72, 80
2, 2079, Note_on_c, 0, 76, 80
2, 2079, Note_on_c, 0, 81, 80
2, 2081, Note_on_c, 0, 79, 0
2, 2103, Note_on_c, 0, 64, 0
2, 2103, Note_on_c, 0, 55, 0
2, 2103, Note_on_c, 0, 60, 0
2, 2103, Note_on_c, 0, 57, 0
2, 2137, Note_on_c, 0, 81, 0
2, 2137, Note_on_c, 0, 72, 0
2, 2139, Note_on_c, 0, 76, 0
2, 2145, Note_on_c, 0, 79, 80
2, 2182, Note_on_c, 0, 75, 80
2, 2182, Note_on_c, 0, 81, 80
2, 2184, Control_c, 0, 64, 127
2, 2184, Note_on_c, 0, 31, 80
2, 2185, Note_on_c, 0, 79, 0
2, 2220, Note_on_c, 0, 31, 0
2, 2253, Note_on_c, 0, 71, 80
2, 2267, Control_c, 0, 64, 0
2, 2287, Note_on_c, 0, 55, 80
2, 2287, Note_on_c, 0, 59, 80
2, 2287, Note_on_c, 0, 63, 80
2, 2287, Note_on_c, 0, 65, 80
2, 2314, Note_on_c, 0, 65, 0
2, 2314, Note_on_c, 0, 59, 0
2, 2314, Note_on_c, 0, 63, 0
2, 2322, Note_on_c, 0, 54, 80
2, 2324, Note_on_c, 0, 55, 0
2, 2356, Note_on_c, 0, 53, 80
2, 2358, Note_on_c, 0, 71, 0
2, 2358, Note_on_c, 0, 54, 0
2, 2358, Note_on_c, 0, 81, 0
2, 2360, Note_on_c, 0, 75, 0
2, 2389, Note_on_c, 0, 36, 80
2, 2389, Note_on_c, 0, 52, 80
2, 2393, Note_on_c, 0, 53, 0
2, 2431, Note_on_c, 0, 36, 0
2, 2462, Note_on_c, 0, 79, 80
2, 2496, Note_on_c, 0, 72, 80
2, 2496, Note_on_c, 0, 81, 80
2, 2498, Note_on_c, 0, 55, 80
2, 2498, Note_on_c, 0, 57, 80
2, 2498, Note_on_c, 0, 60, 80
2, 2498, Note_on_c, 0, 64, 80
2, 2498, Note_on_c, 0, 76, 80
2, 2500, Note_on_c, 0, 79, 0
2, 2522, Note_on_c, 0, 64, 0
2, 2522, Note_on_c, 0, 60, 0
2, 2522, Note_on_c, 0, 57, 0
2, 2537, Note_on_c, 0, 55, 0
2, 2561, Note_on_c, 0, 81, 0
2, 2561, Note_on_c, 0, 76, 0
2, 2561, Note_on_c, 0, 72, 0
2, 2568, Note_on_c, 0, 79, 80
2, 2605, Note_on_c, 0, 31, 80
2, 2605, Note_on_c, 0, 51, 80
2, 2605, Note_on_c, 0, 75, 80
2, 2605, Note_on_c, 0, 81, 80
2, 2607, Note_on_c, 0, 79, 0
2, 2609, Note_on_c, 0, 52, 0
2, 2643, Note_on_c, 0, 31, 0
2, 2676, Note_on_c, 0, 71, 80
2, 2712, Note_on_c, 0, 55, 80
2, 2712, Note_on_c, 0, 59, 80
2, 2712, Note_on_c, 0, 63, 80
2, 2712, Note_on_c, 0, 65, 80
2, 2739, Note_on_c, 0, 65, 0
2, 2739, Note_on_c, 0, 63, 0
2, 2739, Note_on_c, 0, 55, 0
2, 2739, Note_on_c, 0, 59, 0
2, 2774, Note_on_c, 0, 81, 0
2, 2774, Note_on_c, 0, 71, 0
2, 2774, Note_on_c, 0, 75, 0
2, 2782, Note_on_c, 0, 36, 80
2, 2816, Note_on_c, 0, 52, 80
2, 2818, Note_on_c, 0, 36, 0
2, 2818, Note_on_c, 0, 51, 0
2, 2881, Note_on_c, 0, 75, 80
2, 2894, Note_on_c, 0, 84, 80
2, 2894, Note_on_c, 0, 69, 80
2, 2894, Note_on_c, 0, 76, 80
2, 2896, Note_on_c, 0, 75, 0
2, 2930, Note_on_c, 0, 55, 80
2, 2930, Note_on_c, 0, 57, 80
2, 2930, Note_on_c, 0, 60, 80
2, 2930, Note_on_c, 0, 64, 80
2, 2957, Note_on_c, 0, 64, 0
2, 2957, Note_on_c, 0, 60, 0
2, 2957, Note_on_c, 0, 55, 0
2, 2957, Note_on_c, 0, 84, 0
2, 2957, Note_on_c, 0, 76, 0
2, 2957, Note_on_c, 0, 69, 0
2, 2957, Note_on_c, 0, 57, 0
2, 2992, Note_on_c, 0, 52, 0
2, 3000, Note_on_c, 0, 36, 80
2, 3000, Note_on_c, 0, 75, 80
2, 3000, Note_on_c, 0, 81, 80
2, 3036, Note_on_c, 0, 76, 80
2, 3036, Note_on_c, 0, 79, 80
2, 3038, Control_c, 0, 64, 127
2, 3038, Note_on_c, 0, 48, 80
2, 3040, Note_on_c, 0, 81, 0
2, 3040, Note_on_c, 0, 36, 0
2, 3040, Note_on_c, 0, 75, 0
2, 3062, Note_on_c, 0, 76, 0
2, 3089, Control_c, 0, 64, 0
2, 3101, Note_on_c, 0, 79, 0
2, 3109, Note_on_c, 0, 67, 80
2, 3109, Note_on_c, 0, 76, 80
2, 3111, Note_on_c, 0, 37, 80
2, 3135, Note_on_c, 0, 48, 0
2, 3145, Note_on_c, 0, 49, 80
2, 3145, Note_on_c, 0, 69, 80
2, 3145, Note_on_c, 0, 75, 80
2, 3147, Note_on_c, 0, 67, 0
2, 3147, Note_on_c, 0, 37, 0
2, 3149, Note_on_c, 0, 76, 0
2, 3206, Note_on_c, 0, 69, 0
2, 3208, Note_on_c, 0, 75, 0
2, 3214, Note_on_c, 0, 38, 80
2, 3214, Note_on_c, 0, 70, 80
2, 3214, Note_on_c, 0, 76, 80
2, 3250, Note_on_c, 0, 50, 80
2, 3250, Note_on_c, 0, 71, 80
2, 3250, Note_on_c, 0, 79, 80
2, 3254, Note_on_c, 0, 76, 0
2, 3254, Note_on_c, 0, 70, 0
2, 3254, Note_on_c, 0, 49, 0
2, 3254, Note_on_c, 0, 38, 0
2, 3276, Note_on_c, 0, 79, 0
2, 3276, Note_on_c, 0, 71, 0
2, 3323, Note_on_c, 0, 36, 80
2, 3323, Note_on_c, 0, 69, 80
2, 3323, Note_on_c, 0, 72, 80
2, 3323, Note_on_c, 0, 75, 80
2, 3323, Note_on_c, 0, 78, 80
2, 3325, Note_on_c, 0, 50, 0
2, 3360, Note_on_c, 0, 36, 0
2, 3360, Note_on_c, 0, 48, 80
2, 3420, Note_on_c, 0, 75, 0
2, 3420, Note_on_c, 0, 69, 0
2, 3420, Note_on_c, 0, 72, 0
2, 3420, Note_on_c, 0, 78, 0
2, 3426, Note_on_c, 0, 77, 80
2, 3428, Note_on_c, 0, 35, 80
2, 3428, Note_on_c, 0, 67, 80
2, 3428, Note_on_c, 0, 71, 80
2, 3428, Note_on_c, 0, 74, 80
2, 3430, Note_on_c, 0, 48, 0
2, 3462, Note_on_c, 0, 47, 80
2, 3464, Note_on_c, 0, 35, 0
2, 3521, Note_on_c, 0, 77, 0
2, 3523, Note_on_c, 0, 71, 0
2, 3523, Note_on_c, 0, 67, 0
2, 3523, Note_on_c, 0, 74, 0
2, 3530, Note_on_c, 0, 57, 80
2, 3532, Note_on_c, 0, 37, 80
2, 3556, Note_on_c, 0, 47, 0
2, 3564, Note_on_c, 0, 49, 80
2, 3564, Note_on_c, 0, 52, 80
2, 3564, Note_on_c, 0, 58, 80
2, 3566, Note_on_c, 0, 57, 0
2, 3568, Note_on_c, 0, 37, 0
2, 3590, Note_on_c, 0, 52, 0
2, 3590, Note_on_c, 0, 58, 0
2, 3632, Note_on_c, 0, 38, 80
2, 3632, Note_on_c, 0, 59, 80
2, 3634, Note_on_c, 0, 53, 80
2, 3658, Note_on_c, 0, 49, 0
2, 3666, Note_on_c, 0, 50, 80
2, 3668, Note_on_c, 0, 38, 0
2, 3728, Note_on_c, 0, 50, 0
2, 3728, Note_on_c, 0, 59, 0
2, 3730, Note_on_c, 0, 53, 0
2, 3736, Note_on_c, 0, 79, 80
2, 3772, Note_on_c, 0, 55, 80
2, 3772, Note_on_c, 0, 59, 80
2, 3772, Note_on_c, 0, 62, 80
2, 3772, Note_on_c, 0, 65, 80
2, 3772, Note_on_c, 0, 71, 80
2, 3772, Note_on_c, 0, 77, 80
2, 3772, Note_on_c, 0, 81, 80
2, 3774, Note_on_c, 0, 79, 0
2, 3798, Note_on_c, 0, 65, 0
2, 3798, Note_on_c, 0, 55, 0
2, 3798, Note_on_c, 0, 62, 0
2, 3798, Note_on_c, 0, 59, 0
2, 3835, Note_on_c, 0, 81, 0
2, 3835, Note_on_c, 0, 77, 0
2, 3835, Note_on_c, 0, 71, 0
2, 3842, Note_on_c, 0, 79, 80
2, 3842, Note_on_c, 0, 37, 80
2, 3879, Note_on_c, 0, 49, 80
2, 3879, Note_on_c, 0, 76, 80
2, 3879, Note_on_c, 0, 81, 80
2, 3881, Note_on_c, 0, 37, 0
2, 3881, Note_on_c, 0, 79, 0
2, 3939, Note_on_c, 0, 49, 0
2, 3950, Note_on_c, 0, 70, 80
2, 3983, Note_on_c, 0, 55, 80
2, 3983, Note_on_c, 0, 61, 80
2, 3984, Note_on_c, 0, 58, 80
2, 3984, Note_on_c, 0, 64, 80
2, 4011, Note_on_c, 0, 64, 0
2, 4011, Note_on_c, 0, 61, 0
2, 4011, Note_on_c, 0, 55, 0
2, 4011, Note_on_c, 0, 58, 0
2, 4046, Note_on_c, 0, 81, 0
2, 4046, Note_on_c, 0, 70, 0
2, 4046, Note_on_c, 0, 76, 0
2, 4054, Note_on_c, 0, 38, 80
2, 4054, Note_on_c, 0, 55, 80
2, 4092, Note_on_c, 0, 50, 80
2, 4092, Note_on_c, 0, 53, 80
2, 4092, Note_on_c, 0, 59, 80
2, 4094, Note_on_c, 0, 55, 0
2, 4094, Note_on_c, 0, 38, 0
2, 4157, Note_on_c, 0, 53, 0
2, 4157, Note_on_c, 0, 50, 0
2, 4157, Note_on_c, 0, 59, 0
2, 4165, Note_on_c, 0, 79, 80
2, 4200, Note_on_c, 0, 55, 80
2, 4200, Note_on_c, 0, 59, 80
2, 4200, Note_on_c, 0, 62, 80
2, 4200, Note_on_c, 0, 65, 80
2, 4200, Note_on_c, 0, 71, 80
2, 4200, Note_on_c, 0, 77, 80
2, 4200, Note_on_c, 0, 81, 80
2, 4203, Note_on_c, 0, 79, 0
2, 4225, Note_on_c, 0, 55, 0
2, 4227, Note_on_c, 0, 62, 0
2, 4227, Note_on_c, 0, 65, 0
2, 4227, Note_on_c, 0, 59, 0
2, 4262, Note_on_c, 0, 81, 0
2, 4262, Note_on_c, 0, 77, 0
2, 4262, Note_on_c, 0, 71, 0
2, 4268, Note_on_c, 0, 37, 80
2, 4268, Note_on_c, 0, 79, 80
2, 4304, Note_on_c, 0, 49, 80
2, 4304, Note_on_c, 0, 76, 80
2, 4304, Note_on_c, 0, 81, 80
2, 4308, Note_on_c, 0, 79, 0
2, 4308, Note_on_c, 0, 37, 0
2, 4341, Control_c, 0, 64, 127
2, 4377, Note_on_c, 0, 70, 80
2, 4414, Note_on_c, 0, 55, 80
2, 4414, Note_on_c, 0, 58, 80
2, 4414, Note_on_c, 0, 61, 80
2, 4414, Note_on_c, 0, 64, 80
2, 4428, Control_c, 0, 64, 0
2, 4439, Note_on_c, 0, 64, 0
2, 4439, Note_on_c, 0, 61, 0
2, 4439, Note_on_c, 0, 55, 0
2, 4439, Note_on_c, 0, 58, 0
2, 4463, Note_on_c, 0, 76, 0
2, 4473, Note_on_c, 0, 81, 0
2, 4473, Note_on_c, 0, 70, 0
2, 4481, Note_on_c, 0, 38, 80
2, 4515, Note_on_c, 0, 50, 80
2, 4515, Note_on_c, 0, 72, 80
2, 4515, Note_on_c, 0, 77, 80
2, 4515, Note_on_c, 0, 79, 80
2, 4517, Note_on_c, 0, 38, 0
2, 4517, Note_on_c, 0, 49, 0
2, 4541, Note_on_c, 0, 77, 0
2, 4541, Note_on_c, 0, 72, 0
2, 4541, Note_on_c, 0, 79, 0
2, 4541, Note_on_c, 0, 50, 0
2, 4586, Note_on_c, 0, 69, 80
2, 4586, Note_on_c, 0, 77, 80
2, 4586, Note_on_c, 0, 79, 80
2, 4621, Note_on_c, 0, 62, 80
2, 4621, Note_on_c, 0, 65, 80
2, 4621, Note_on_c, 0, 70, 80
2, 4623, Note_on_c, 0, 60, 80
2, 4625, Note_on_c, 0, 69, 0
2, 4647, Note_on_c, 0, 70, 0
2, 4647, Note_on_c, 0, 79, 0
2, 4647, Note_on_c, 0, 62, 0
2, 4647, Note_on_c, 0, 77, 0
2, 4647, Note_on_c, 0, 60, 0
2, 4647, Note_on_c, 0, 65, 0
2, 4689, Note_on_c, 0, 71, 80
2, 4689, Note_on_c, 0, 77, 80
2, 4689, Note_on_c, 0, 79, 80
2, 4722, Control_c, 0, 64, 127
2, 4722, Note_on_c, 0, 31, 80
2, 4758, Note_on_c, 0, 31, 0
2, 4782, Note_on_c, 0, 71, 0
2, 4782, Note_on_c, 0, 77, 0
2, 4784, Note_on_c, 0, 79, 0
2, 4792, Note_on_c, 0, 81, 80
2, 4804, Control_c, 0, 64, 0
2, 4824, Note_on_c, 0, 55, 80
2, 4824, Note_on_c, 0, 59, 80
2, 4824, Note_on_c, 0, 63, 80
2, 4824, Note_on_c, 0, 65, 80
2, 4824, Note_on_c, 0, 71, 80
2, 4824, Note_on_c, 0, 75, 80
2, 4826, Note_on_c, 0, 53, 80
2, 4828, Note_on_c, 0, 81, 0
2, 4848, Note_on_c, 0, 63, 0
2, 4848, Note_on_c, 0, 55, 0
2, 4848, Note_on_c, 0, 59, 0
2, 4850, Note_on_c, 0, 53, 0
2, 4891, Note_on_c, 0, 36, 80
2, 4925, Note_on_c, 0, 48, 80
2, 4925, Note_on_c, 0, 67, 80
2, 4925, Note_on_c, 0, 69, 80
2, 4925, Note_on_c, 0, 72, 80
2, 4925, Note_on_c, 0, 76, 80
2, 4927, Note_on_c, 0, 36, 0
2, 4929, Note_on_c, 0, 75, 0
2, 4929, Note_on_c, 0, 65, 0
2, 4929, Note_on_c, 0, 71, 0
2, 4994, Note_on_c, 0, 35, 80
2, 4996, Note_on_c, 0, 100, 80
2, 5020, Note_on_c, 0, 48, 0
2, 5031, Note_on_c, 0, 47, 80
2, 5031, Note_on_c, 0, 91, 80
2, 5031, Note_on_c, 0, 98, 80
2, 5033, Note_on_c, 0, 35, 0
2, 5035, Note_on_c, 0, 100, 0
2, 5067, Note_on_c, 0, 96, 80
2, 5071, Note_on_c, 0, 98, 0
2, 5071, Note_on_c, 0, 91, 0
2, 5104, Note_on_c, 0, 33, 80
2, 5104, Note_on_c, 0, 93, 80
2, 5106, Note_on_c, 0, 47, 0
2, 5108, Note_on_c, 0, 96, 0
2, 5138, Note_on_c, 0, 45, 80
2, 5138, Note_on_c, 0, 86, 80
2, 5138, Note_on_c, 0, 91, 80
2, 5140, Note_on_c, 0, 93, 0
2, 5140, Note_on_c, 0, 33, 0
2, 5167, Note_on_c, 0, 91, 0
2, 5167, Note_on_c, 0, 86, 0
2, 5175, Note_on_c, 0, 84, 80
2, 5175, Note_on_c, 0, 88, 80
2, 5204, Note_on_c, 0, 88, 0
2, 5204, Note_on_c, 0, 84, 0
2, 5211, Note_on_c, 0, 31, 80
2, 5213, Note_on_c, 0, 81, 80
2, 5213, Note_on_c, 0, 86, 80
2, 5240, Note_on_c, 0, 86, 0
2, 5240, Note_on_c, 0, 81, 0
2, 5240, Note_on_c, 0, 45, 0
2, 5248, Note_on_c, 0, 43, 80
2, 5250, Note_on_c, 0, 79, 80
2, 5250, Note_on_c, 0, 84, 80
2, 5252, Note_on_c, 0, 69, 0
2, 5252, Note_on_c, 0, 76, 0
2, 5252, Note_on_c, 0, 67, 0
2, 5252, Note_on_c, 0, 72, 0
2, 5252, Note_on_c, 0, 31, 0
2, 5276, Note_on_c, 0, 84, 0
2, 5276, Note_on_c, 0, 79, 0
2, 5283, Note_on_c, 0, 81, 80
2, 5314, Note_on_c, 0, 81, 0
2, 5322, Note_on_c, 0, 79, 80
2, 5324, Note_on_c, 0, 36, 80
2, 5351, Note_on_c, 0, 79, 0
2, 5351, Note_on_c, 0, 43, 0
2, 5358, Note_on_c, 0, 48, 80
2, 5362, Note_on_c, 0, 36, 0
2, 5400, Note_on_c, 0, 48, 0
2, 5433, Note_on_c, 0, 67, 80
2, 5433, Note_on_c, 0, 79, 80
2, 5470, Note_on_c, 0, 55, 80
2, 5470, Note_on_c, 0, 57, 80
2, 5470, Note_on_c, 0, 60, 80
2, 5470, Note_on_c, 0, 69, 80
2, 5470, Note_on_c, 0, 72, 80
2, 5470, Note_on_c, 0, 76, 80
2, 5470, Note_on_c, 0, 81, 80
2, 5472, Note_on_c, 0, 64, 80
2, 5473, Note_on_c, 0, 79, 0
2, 5473, Note_on_c, 0, 67, 0
2, 5497, Note_on_c, 0, 60, 0
2, 5497, Note_on_c, 0, 57, 0
2, 5497, Note_on_c, 0, 64, 0
2, 5497, Note_on_c, 0, 55, 0
2, 5530, Note_on_c, 0, 72, 0
2, 5530, Note_on_c, 0, 81, 0
2, 5530, Note_on_c, 0, 69, 0
2, 5532, Note_on_c, 0, 76, 0
2, 5538, Note_on_c, 0, 67, 80
2, 5538, Note_on_c, 0, 79, 80
2, 5574, Note_on_c, 0, 75, 80
2, 5576, Note_on_c, 0, 31, 80
2, 5576, Note_on_c, 0, 69, 80
2, 5576, Note_on_c, 0, 71, 80
2, 5576, Note_on_c, 0, 81, 80
2, 5578, Note_on_c, 0, 79, 0
2, 5578, Note_on_c, 0, 67, 0
2, 5578, Control_c, 0, 64, 127
2, 5615, Note_on_c, 0, 31, 0
2, 5625, Control_c, 0, 64, 0
2, 5640, Note_on_c, 0, 81, 0
2, 5687, Note_on_c, 0, 55, 80
2, 5687, Note_on_c, 0, 59, 80
2, 5687, Note_on_c, 0, 63, 80
2, 5687, Note_on_c, 0, 65, 80
2, 5687, Note_on_c, 0, 81, 80
2, 5687, Note_on_c, 0, 83, 80
2, 5687, Note_on_c, 0, 87, 80
2, 5687, Note_on_c, 0, 93, 80
2, 5688, Note_on_c, 0, 71, 0
2, 5688, Note_on_c, 0, 69, 0
2, 5690, Note_on_c, 0, 75, 0
2, 5711, Note_on_c, 0, 81, 0
2, 5711, Note_on_c, 0, 55, 0
2, 5711, Note_on_c, 0, 65, 0
2, 5711, Note_on_c, 0, 63, 0
2, 5711, Note_on_c, 0, 93, 0
2, 5711, Note_on_c, 0, 83, 0
2, 5711, Note_on_c, 0, 87, 0
2, 5711, Note_on_c, 0, 59, 0
2, 5756, Note_on_c, 0, 36, 80
2, 5756, Note_on_c, 0, 81, 80
2, 5756, Note_on_c, 0, 84, 80
2, 5756, Note_on_c, 0, 88, 80
2, 5756, Note_on_c, 0, 93, 80
2, 5758, Control_c, 0, 64, 127
2, 5790, Note_on_c, 0, 48, 80
2, 5794, Note_on_c, 0, 36, 0
2, 5827, Note_on_c, 0, 93, 0
2, 5827, Note_on_c, 0, 88, 0
2, 5827, Note_on_c, 0, 81, 0
2, 5827, Note_on_c, 0, 84, 0
2, 5839, Note_on_c, 0, 48, 0
2, 5839, Control_c, 0, 64, 0
2, 5859, Note_on_c, 0, 67, 80
2, 5859, Note_on_c, 0, 79, 80
2, 5892, Note_on_c, 0, 55, 80
2, 5892, Note_on_c, 0, 57, 80
2, 5892, Note_on_c, 0, 60, 80
2, 5892, Note_on_c, 0, 69, 80
2, 5892, Note_on_c, 0, 72, 80
2, 5892, Note_on_c, 0, 76, 80
2, 5892, Note_on_c, 0, 81, 80
2, 5894, Note_on_c, 0, 64, 80
2, 5896, Note_on_c, 0, 67, 0
2, 5898, Note_on_c, 0, 79, 0
2, 5920, Note_on_c, 0, 60, 0
2, 5920, Note_on_c, 0, 57, 0
2, 5920, Note_on_c, 0, 64, 0
2, 5920, Note_on_c, 0, 55, 0
2, 5952, Note_on_c, 0, 72, 0
2, 5952, Note_on_c, 0, 81, 0
2, 5952, Note_on_c, 0, 69, 0
2, 5954, Note_on_c, 0, 76, 0
2, 5960, Note_on_c, 0, 67, 80
2, 5962, Note_on_c, 0, 79, 80
2, 5997, Note_on_c, 0, 81, 80
2, 5999, Note_on_c, 0, 31, 80
2, 5999, Note_on_c, 0, 69, 80
2, 5999, Note_on_c, 0, 71, 80
2, 5999, Note_on_c, 0, 75, 80
2, 6000, Note_on_c, 0, 79, 0
2, 6000, Note_on_c, 0, 67, 0
2, 6035, Note_on_c, 0, 31, 0
2, 6059, Note_on_c, 0, 81, 0
2, 6101, Note_on_c, 0, 55, 80
2, 6101, Note_on_c, 0, 59, 80
2, 6101, Note_on_c, 0, 63, 80
2, 6101, Note_on_c, 0, 65, 80
2, 6101, Note_on_c, 0, 81, 80
2, 6101, Note_on_c, 0, 83, 80
2, 6101, Note_on_c, 0, 87, 80
2, 6101, Note_on_c, 0, 93, 80
2, 6103, Note_on_c, 0, 71, 0
2, 6103, Note_on_c, 0, 69, 0
2, 6105, Note_on_c, 0, 75, 0
2, 6125, Note_on_c, 0, 81, 0
2, 6125, Note_on_c, 0, 55, 0
2, 6125, Note_on_c, 0, 65, 0
2, 6125, Note_on_c, 0, 63, 0
2, 6125, Note_on_c, 0, 93, 0
2, 6125, Note_on_c, 0, 83, 0
2, 6125, Note_on_c, 0, 87, 0
2, 6125, Note_on_c, 0, 59, 0
2, 6172, Note_on_c, 0, 36, 80
2, 6172, Note_on_c, 0, 81, 80
2, 6172, Note_on_c, 0, 82, 80
2, 6172, Note_on_c, 0, 86, 80
2, 6172, Note_on_c, 0, 88, 80
2, 6172, Note_on_c, 0, 93, 80
2, 6207, Note_on_c, 0, 48, 80
2, 6209, Note_on_c, 0, 36, 0
2, 6269, Note_on_c, 0, 48, 0
2, 6271, Note_on_c, 0, 82, 0
2, 6271, Note_on_c, 0, 86, 0
2, 6271, Note_on_c, 0, 81, 0
2, 6271, Note_on_c, 0, 93, 0
2, 6271, Note_on_c, 0, 88, 0
2, 6279, Note_on_c, 0, 60, 80
2, 6279, Note_on_c, 0, 72, 80
2, 6279, Note_on_c, 0, 84, 80
2, 6315, Note_on_c, 0, 59, 80
2, 6315, Note_on_c, 0, 64, 80
2, 6315, Note_on_c, 0, 67, 80
2, 6315, Note_on_c, 0, 71, 80
2, 6315, Note_on_c, 0, 76, 80
2, 6315, Note_on_c, 0, 79, 80
2, 6315, Note_on_c, 0, 83, 80
2, 6317, Note_on_c, 0, 84, 0
2, 6317, Note_on_c, 0, 60, 0
2, 6317, Note_on_c, 0, 72, 0
2, 6341, Note_on_c, 0, 64, 0
2, 6341, Note_on_c, 0, 67, 0
2, 6376, Note_on_c, 0, 76, 0
2, 6376, Note_on_c, 0, 83, 0
2, 6376, Note_on_c, 0, 79, 0
2, 6376, Note_on_c, 0, 71, 0
2, 6376, Note_on_c, 0, 59, 0
2, 6382, Note_on_c, 0, 60, 80
2, 6384, Note_on_c, 0, 72, 80
2, 6384, Note_on_c, 0, 84, 80
2, 6418, Note_on_c, 0, 36, 80
2, 6418, Note_on_c, 0, 58, 80
2, 6420, Note_on_c, 0, 74, 80
2, 6420, Note_on_c, 0, 76, 80
2, 6420, Note_on_c, 0, 79, 80
2, 6420, Note_on_c, 0, 82, 80
2, 6420, Note_on_c, 0, 86, 80
2, 6422, Note_on_c, 0, 84, 0
2, 6422, Note_on_c, 0, 60, 0
2, 6422, Note_on_c, 0, 72, 0
2, 6456, Note_on_c, 0, 36, 0
2, 6483, Note_on_c, 0, 76, 0
2, 6483, Note_on_c, 0, 74, 0
2, 6483, Note_on_c, 0, 86, 0
2, 6483, Note_on_c, 0, 58, 0
2, 6483, Note_on_c, 0, 82, 0
2, 6483, Note_on_c, 0, 79, 0
2, 6491, Note_on_c, 0, 57, 80
2, 6491, Note_on_c, 0, 72, 80
2, 6491, Note_on_c, 0, 84, 80
2, 6528, Note_on_c, 0, 56, 80
2, 6528, Note_on_c, 0, 60, 80
2, 6528, Note_on_c, 0, 64, 80
2, 6528, Note_on_c, 0, 71, 80
2, 6528, Note_on_c, 0, 76, 80
2, 6528, Note_on_c, 0, 83, 80
2, 6531, Note_on_c, 0, 84, 0
2, 6531, Note_on_c, 0, 57, 0
2, 6531, Note_on_c, 0, 72, 0
2, 6555, Note_on_c, 0, 60, 0
2, 6555, Note_on_c, 0, 64, 0
2, 6590, Note_on_c, 0, 56, 0
2, 6590, Note_on_c, 0, 83, 0
2, 6590, Note_on_c, 0, 71, 0
2, 6592, Note_on_c, 0, 76, 0
2, 6596, Note_on_c, 0, 55, 80
2, 6598, Note_on_c, 0, 70, 80
2, 6598, Note_on_c, 0, 82, 80
2, 6636, Note_on_c, 0, 41, 80
2, 6636, Note_on_c, 0, 53, 80
2, 6636, Note_on_c, 0, 69, 80
2, 6636, Note_on_c, 0, 72, 80
2, 6636, Note_on_c, 0, 77, 80
2, 6636, Note_on_c, 0, 81, 80
2, 6638, Note_on_c, 0, 82, 0
2, 6638, Note_on_c, 0, 55, 0
2, 6638, Note_on_c, 0, 70, 0
2, 6707, Note_on_c, 0, 60, 80
2, 6742, Note_on_c, 0, 40, 80
2, 6742, Note_on_c, 0, 52, 80
2, 6742, Note_on_c, 0, 57, 80
2, 6742, Note_on_c, 0, 62, 80
2, 6744, Note_on_c, 0, 60, 0
2, 6744, Note_on_c, 0, 41, 0
2, 6745, Note_on_c, 0, 53, 0
2, 6800, Note_on_c, 0, 62, 0
2, 6800, Note_on_c, 0, 57, 0
2, 6813, Note_on_c, 0, 60, 80
2, 6845, Note_on_c, 0, 62, 80
2, 6847, Note_on_c, 0, 38, 80
2, 6847, Note_on_c, 0, 57, 80
2, 6849, Note_on_c, 0, 60, 0
2, 6849, Note_on_c, 0, 52, 0
2, 6849, Note_on_c, 0, 40, 0
2, 6857, Note_on_c, 0, 50, 80
2, 6910, Note_on_c, 0, 62, 0
2, 6910, Note_on_c, 0, 57, 0
2, 6917, Note_on_c, 0, 64, 80
2, 6952, Note_on_c, 0, 36, 80
2, 6952, Note_on_c, 0, 48, 80
2, 6952, Note_on_c, 0, 57, 80
2, 6952, Note_on_c, 0, 62, 80
2, 6954, Note_on_c, 0, 64, 0
2, 6954, Note_on_c, 0, 50, 0
2, 6954, Note_on_c, 0, 38, 0
2, 7008, Note_on_c, 0, 57, 0
2, 7008, Note_on_c, 0, 81, 0
2, 7008, Note_on_c, 0, 72, 0
2, 7008, Note_on_c, 0, 69, 0
2, 7008, Note_on_c, 0, 62, 0
2, 7008, Note_on_c, 0, 77, 0
2, 7016, Note_on_c, 0, 60, 80
2, 7053, Note_on_c, 0, 41, 80
2, 7055, Note_on_c, 0, 60, 0
2, 7055, Note_on_c, 0, 36, 0
2, 7055, Note_on_c, 0, 48, 0
2, 7055, Note_on_c, 0, 53, 80
2, 7115, Note_on_c, 0, 41, 0
2, 7117, Note_on_c, 0, 53, 0
2, 7125, Note_on_c, 0, 72, 80
2, 7125, Note_on_c, 0, 84, 80
2, 7159, Note_on_c, 0, 57, 80
2, 7159, Note_on_c, 0, 60, 80
2, 7159, Note_on_c, 0, 65, 80
2, 7159, Note_on_c, 0, 71, 80
2, 7159, Note_on_c, 0, 77, 80
2, 7161, Note_on_c, 0, 81, 80
2, 7161, Note_on_c, 0, 83, 80
2, 7163, Note_on_c, 0, 84, 0
2, 7163, Note_on_c, 0, 72, 0
2, 7185, Note_on_c, 0, 60, 0
2, 7185, Note_on_c, 0, 65, 0
2, 7185, Note_on_c, 0, 57, 0
2, 7222, Note_on_c, 0, 81, 0
2, 7222, Note_on_c, 0, 83, 0
2, 7222, Note_on_c, 0, 71, 0
2, 7222, Note_on_c, 0, 77, 0
2, 7229, Note_on_c, 0, 72, 80
2, 7229, Note_on_c, 0, 84, 80
2, 7264, Control_c, 0, 64, 127
2, 7266, Note_on_c, 0, 42, 80
2, 7266, Note_on_c, 0, 54, 80
2, 7266, Note_on_c, 0, 74, 80
2, 7266, Note_on_c, 0, 75, 80
2, 7266, Note_on_c, 0, 78, 80
2, 7266, Note_on_c, 0, 81, 80
2, 7266, Note_on_c, 0, 86, 80
2, 7268, Note_on_c, 0, 84, 0
2, 7268, Note_on_c, 0, 72, 0
2, 7310, Control_c, 0, 64, 0
2, 7324, Note_on_c, 0, 81, 0
2, 7324, Note_on_c, 0, 42, 0
2, 7324, Note_on_c, 0, 54, 0
2, 7324, Note_on_c, 0, 74, 0
2, 7324, Note_on_c, 0, 78, 0
2, 7326, Note_on_c, 0, 86, 0
2, 7326, Note_on_c, 0, 75, 0
2, 7332, Note_on_c, 0, 72, 80
2, 7334, Note_on_c, 0, 84, 80
2, 7368, Note_on_c, 0, 60, 80
2, 7368, Note_on_c, 0, 63, 80
2, 7368, Note_on_c, 0, 66, 80
2, 7368, Note_on_c, 0, 71, 80
2, 7368, Note_on_c, 0, 83, 80
2, 7370, Note_on_c, 0, 84, 0
2, 7370, Note_on_c, 0, 72, 0
2, 7392, Note_on_c, 0, 63, 0
2, 7392, Note_on_c, 0, 66, 0
2, 7392, Note_on_c, 0, 60, 0
2, 7431, Note_on_c, 0, 83, 0
2, 7431, Note_on_c, 0, 71, 0
2, 7437, Note_on_c, 0, 69, 80
2, 7437, Note_on_c, 0, 81, 80
2, 7473, Note_on_c, 0, 43, 80
2, 7473, Note_on_c, 0, 55, 80
2, 7475, Note_on_c, 0, 67, 80
2, 7475, Note_on_c, 0, 72, 80
2, 7475, Note_on_c, 0, 76, 80
2, 7475, Note_on_c, 0, 79, 80
2, 7477, Note_on_c, 0, 81, 0
2, 7477, Note_on_c, 0, 69, 0
2, 7536, Note_on_c, 0, 55, 0
2, 7536, Note_on_c, 0, 67, 0
2, 7536, Note_on_c, 0, 43, 0
2, 7537, Note_on_c, 0, 79, 0
2, 7537, Note_on_c, 0, 76, 0
2, 7537, Note_on_c, 0, 72, 0
2, 7543, Note_on_c, 0, 35, 80
2, 7545, Note_on_c, 0, 57, 80
2, 7545, Note_on_c, 0, 63, 80
2, 7545, Note_on_c, 0, 75, 80
2, 7580, Note_on_c, 0, 34, 80
2, 7582, Note_on_c, 0, 62, 80
2, 7582, Note_on_c, 0, 64, 80
2, 7582, Note_on_c, 0, 68, 80
2, 7582, Note_on_c, 0, 76, 80
2, 7585, Note_on_c, 0, 75, 0
2, 7585, Note_on_c, 0, 63, 0
2, 7585, Note_on_c, 0, 35, 0
2, 7585, Note_on_c, 0, 57, 0
2, 7593, Note_on_c, 0, 56, 80
2, 7608, Note_on_c, 0, 56, 0
2, 7608, Note_on_c, 0, 64, 0
2, 7608, Note_on_c, 0, 34, 0
2, 7608, Note_on_c, 0, 76, 0
2, 7608, Note_on_c, 0, 62, 0
2, 7608, Note_on_c, 0, 68, 0
2, 7650, Note_on_c, 0, 73, 80
2, 7652, Note_on_c, 0, 33, 80
2, 7652, Note_on_c, 0, 55, 80
2, 7652, Note_on_c, 0, 61, 80
2, 7652, Note_on_c, 0, 67, 80
2, 7652, Note_on_c, 0, 76, 80
2, 7652, Note_on_c, 0, 81, 80
2, 7750, Note_on_c, 0, 55, 0
2, 7750, Note_on_c, 0, 33, 0
2, 7752, Note_on_c, 0, 61, 0
2, 7759, Note_on_c, 0, 34, 80
2, 7759, Note_on_c, 0, 46, 80
2, 7796, Note_on_c, 0, 35, 80
2, 7796, Note_on_c, 0, 47, 80
2, 7798, Note_on_c, 0, 46, 0
2, 7798, Note_on_c, 0, 34, 0
2, 7858, Note_on_c, 0, 35, 0
2, 7858, Note_on_c, 0, 81, 0
2, 7858, Note_on_c, 0, 76, 0
2, 7858, Note_on_c, 0, 67, 0
2, 7858, Note_on_c, 0, 73, 0
2, 7858, Note_on_c, 0, 47, 0
2, 7866, Note_on_c, 0, 37, 80
2, 7866, Note_on_c, 0, 49, 80
2, 7900, Note_on_c, 0, 38, 80
2, 7900, Note_on_c, 0, 69, 80
2, 7902, Note_on_c, 0, 50, 80
2, 7902, Note_on_c, 0, 72, 80
2, 7902, Note_on_c, 0, 78, 80
2, 7902, Note_on_c, 0, 81, 80
2, 7904, Note_on_c, 0, 49, 0
2, 7904, Note_on_c, 0, 37, 0
2, 7928, Note_on_c, 0, 72, 0
2, 7928, Note_on_c, 0, 69, 0
2, 7928, Note_on_c, 0, 81, 0
2, 7928, Note_on_c, 0, 78, 0
2, 7941, Note_on_c, 0, 38, 0
2, 7943, Note_on_c, 0, 50, 0
2, 7973, Note_on_c, 0, 69, 80
2, 7973, Note_on_c, 0, 72, 80
2, 7973, Note_on_c, 0, 78, 80
2, 7973, Note_on_c, 0, 81, 80
2, 8010, Note_on_c, 0, 57, 80
2, 8010, Note_on_c, 0, 60, 80
2, 8010, Note_on_c, 0, 62, 80
2, 8010, Note_on_c, 0, 66, 80
2, 8034, Note_on_c, 0, 66, 0
2, 8034, Note_on_c, 0, 69, 0
2, 8034, Note_on_c, 0, 57, 0
2, 8034, Note_on_c, 0, 72, 0
2, 8034, Note_on_c, 0, 78, 0
2, 8034, Note_on_c, 0, 81, 0
2, 8034, Note_on_c, 0, 60, 0
2, 8034, Note_on_c, 0, 62, 0
2, 8076, Note_on_c, 0, 69, 80
2, 8076, Note_on_c, 0, 72, 80
2, 8076, Note_on_c, 0, 78, 80
2, 8076, Note_on_c, 0, 81, 80
2, 8112, Note_on_c, 0, 26, 80
2, 8114, Control_c, 0, 64, 127
2, 8149, Note_on_c, 0, 26, 0
2, 8176, Note_on_c, 0, 78, 0
2, 8176, Note_on_c, 0, 69, 0
2, 8176, Note_on_c, 0, 72, 0
2, 8176, Note_on_c, 0, 81, 0
2, 8184, Note_on_c, 0, 68, 80
2, 8184, Note_on_c, 0, 80, 80
2, 8196, Control_c, 0, 64, 0
2, 8220, Note_on_c, 0, 57, 80
2, 8220, Note_on_c, 0, 60, 80
2, 8220, Note_on_c, 0, 62, 80
2, 8220, Note_on_c, 0, 66, 80
2, 8220, Note_on_c, 0, 69, 80
2, 8220, Note_on_c, 0, 72, 80
2, 8220, Note_on_c, 0, 78, 80
2, 8222, Note_on_c, 0, 81, 80
2, 8224, Note_on_c, 0, 80, 0
2, 8224, Note_on_c, 0, 68, 0
2, 8246, Note_on_c, 0, 60, 0
2, 8246, Note_on_c, 0, 62, 0
2, 8246, Note_on_c, 0, 66, 0
2, 8246, Note_on_c, 0, 57, 0
2, 8282, Note_on_c, 0, 78, 0
2, 8282, Note_on_c, 0, 81, 0
2, 8282, Note_on_c, 0, 69, 0
2, 8282, Note_on_c, 0, 72, 0
2, 8290, Note_on_c, 0, 70, 80
2, 8290, Note_on_c, 0, 82, 80
2, 8327, Note_on_c, 0, 43, 80
2, 8327, Note_on_c, 0, 59, 80
2, 8327, Note_on_c, 0, 71, 80
2, 8327, Note_on_c, 0, 74, 80
2, 8327, Note_on_c, 0, 77, 80
2, 8327, Note_on_c, 0, 79, 80
2, 8327, Note_on_c, 0, 83, 80
2, 8328, Note_on_c, 0, 53, 80
2, 8330, Note_on_c, 0, 82, 0
2, 8330, Note_on_c, 0, 70, 0
2, 8352, Note_on_c, 0, 43, 0
2, 8387, Note_on_c, 0, 59, 0
2, 8389, Note_on_c, 0, 77, 0
2, 8389, Note_on_c, 0, 74, 0
2, 8389, Note_on_c, 0, 53, 0
2, 8389, Note_on_c, 0, 71, 0
2, 8389, Note_on_c, 0, 83, 0
2, 8389, Note_on_c, 0, 79, 0
2, 8397, Note_on_c, 0, 43, 80
2, 8435, Note_on_c, 0, 55, 80
2, 8435, Note_on_c, 0, 67, 80
2, 8435, Note_on_c, 0, 71, 80
2, 8435, Note_on_c, 0, 74, 80
2, 8435, Note_on_c, 0, 77, 80
2, 8435, Note_on_c, 0, 79, 80
2, 8437, Note_on_c, 0, 43, 0
2, 8504, Note_on_c, 0, 42, 80
2, 8539, Note_on_c, 0, 54, 80
2, 8539, Note_on_c, 0, 69, 80
2, 8539, Note_on_c, 0, 72, 80
2, 8539, Note_on_c, 0, 75, 80
2, 8539, Note_on_c, 0, 78, 80
2, 8539, Note_on_c, 0, 81, 80
2, 8541, Note_on_c, 0, 42, 0
2, 8541, Note_on_c, 0, 55, 0
2, 8541, Note_on_c, 0, 67, 0
2, 8543, Note_on_c, 0, 79, 0
2, 8543, Note_on_c, 0, 71, 0
2, 8543, Note_on_c, 0, 74, 0
2, 8543, Note_on_c, 0, 77, 0
2, 8610, Note_on_c, 0, 41, 80
2, 8646, Note_on_c, 0, 53, 80
2, 8646, Note_on_c, 0, 71, 80
2, 8646, Note_on_c, 0, 74, 80
2, 8646, Note_on_c, 0, 77, 80
2, 8646, Note_on_c, 0, 79, 80
2, 8646, Note_on_c, 0, 83, 80
2, 8648, Note_on_c, 0, 41, 0
2, 8648, Note_on_c, 0, 69, 0
2, 8648, Note_on_c, 0, 54, 0
2, 8648, Note_on_c, 0, 72, 0
2, 8648, Note_on_c, 0, 81, 0
2, 8648, Note_on_c, 0, 78, 0
2, 8650, Note_on_c, 0, 75, 0
2, 8705, Note_on_c, 0, 79, 0
2, 8715, Note_on_c, 0, 40, 80
2, 8750, Note_on_c, 0, 72, 80
2, 8750, Note_on_c, 0, 76, 80
2, 8750, Note_on_c, 0, 79, 80
2, 8750, Note_on_c, 0, 84, 80
2, 8752, Note_on_c, 0, 52, 80
2, 8754, Note_on_c, 0, 40, 0
2, 8754, Note_on_c, 0, 83, 0
2, 8754, Note_on_c, 0, 77, 0
2, 8754, Note_on_c, 0, 74, 0
2, 8754, Note_on_c, 0, 71, 0
2, 8756, Note_on_c, 0, 53, 0
2, 8776, Note_on_c, 0, 79, 0
2, 8776, Note_on_c, 0, 84, 0
2, 8776, Note_on_c, 0, 72, 0
2, 8778, Note_on_c, 0, 76, 0
2, 8790, Note_on_c, 0, 52, 0
2, 8825, Note_on_c, 0, 72, 80
2, 8825, Note_on_c, 0, 76, 80
2, 8825, Note_on_c, 0, 79, 80
2, 8825, Note_on_c, 0, 84, 80
2, 8859, Note_on_c, 0, 55, 80
2, 8859, Note_on_c, 0, 57, 80
2, 8859, Note_on_c, 0, 60, 80
2, 8861, Note_on_c, 0, 64, 80
2, 8883, Note_on_c, 0, 72, 0
2, 8885, Note_on_c, 0, 76, 0
2, 8885, Note_on_c, 0, 57, 0
2, 8885, Note_on_c, 0, 79, 0
2, 8885, Note_on_c, 0, 84, 0
2, 8885, Note_on_c, 0, 55, 0
2, 8885, Note_on_c, 0, 60, 0
2, 8885, Note_on_c, 0, 64, 0
2, 8930, Note_on_c, 0, 72, 80
2, 8930, Note_on_c, 0, 76, 80
2, 8930, Note_on_c, 0, 79, 80
2, 8930, Note_on_c, 0, 84, 80
2, 8932, Control_c, 0, 64, 127
2, 8963, Note_on_c, 0, 31, 80
2, 9001, Note_on_c, 0, 31, 0
2, 9014, Control_c, 0, 64, 0
2, 9016, Note_on_c, 0, 76, 0
2, 9024, Note_on_c, 0, 79, 0
2, 9036, Note_on_c, 0, 75, 80
2, 9036, Note_on_c, 0, 81, 80
2, 9071, Note_on_c, 0, 55, 80
2, 9071, Note_on_c, 0, 57, 80
2, 9071, Note_on_c, 0, 60, 80
2, 9071, Note_on_c, 0, 64, 80
2, 9071, Note_on_c, 0, 76, 80
2, 9071, Note_on_c, 0, 79, 80
2, 9074, Note_on_c, 0, 81, 0
2, 9074, Note_on_c, 0, 75, 0
2, 9096, Note_on_c, 0, 55, 0
2, 9096, Note_on_c, 0, 64, 0
2, 9096, Note_on_c, 0, 57, 0
2, 9096, Note_on_c, 0, 79, 0
2, 9096, Note_on_c, 0, 60, 0
2, 9098, Note_on_c, 0, 76, 0
2, 9141, Note_on_c, 0, 36, 80
2, 9141, Note_on_c, 0, 67, 80
2, 9141, Note_on_c, 0, 76, 80
2, 9175, Note_on_c, 0, 48, 80
2, 9177, Note_on_c, 0, 36, 0
2, 9212, Note_on_c, 0, 48, 0
2, 9239, Note_on_c, 0, 67, 0
2, 9239, Note_on_c, 0, 72, 0
2, 9239, Note_on_c, 0, 84, 0
2, 9239, Note_on_c, 0, 76, 0
2, 9271, Note_on_c, 0, 81, 80
2, 9284, Note_on_c, 0, 55, 80
2, 9284, Note_on_c, 0, 60, 80
2, 9284, Note_on_c, 0, 64, 80
2, 9284, Note_on_c, 0, 70, 80
2, 9284, Note_on_c, 0, 82, 80
2, 9286, Note_on_c, 0, 81, 0
2, 9308, Note_on_c, 0, 64, 0
2, 9308, Note_on_c, 0, 55, 0
2, 9308, Note_on_c, 0, 60, 0
2, 9344, Note_on_c, 0, 82, 0
2, 9344, Note_on_c, 0, 70, 0
2, 9352, Note_on_c, 0, 69, 80
2, 9352, Note_on_c, 0, 81, 80
2, 9386, Note_on_c, 0, 31, 80
2, 9386, Note_on_c, 0, 67, 80
2, 9386, Note_on_c, 0, 79, 80
2, 9388, Control_c, 0, 64, 127
2, 9390, Note_on_c, 0, 81, 0
2, 9390, Note_on_c, 0, 69, 0
2, 9427, Note_on_c, 0, 31, 0
2, 9437, Control_c, 0, 64, 0
2, 9452, Note_on_c, 0, 67, 0
2, 9452, Note_on_c, 0, 79, 0
2, 9462, Note_on_c, 0, 75, 80
2, 9495, Note_on_c, 0, 55, 80
2, 9495, Note_on_c, 0, 59, 80
2, 9495, Note_on_c, 0, 65, 80
2, 9495, Note_on_c, 0, 69, 80
2, 9495, Note_on_c, 0, 76, 80
2, 9497, Note_on_c, 0, 64, 80
2, 9497, Note_on_c, 0, 71, 80
2, 9499, Note_on_c, 0, 53, 80
2, 9501, Note_on_c, 0, 75, 0
2, 9521, Note_on_c, 0, 65, 0
2, 9521, Note_on_c, 0, 55, 0
2, 9521, Note_on_c, 0, 59, 0
2, 9521, Note_on_c, 0, 64, 0
2, 9523, Note_on_c, 0, 69, 0
2, 9523, Note_on_c, 0, 53, 0
2, 9523, Note_on_c, 0, 76, 0
2, 9523, Note_on_c, 0, 71, 0
2, 9563, Note_on_c, 0, 36, 80
2, 9565, Note_on_c, 0, 67, 80
2, 9565, Note_on_c, 0, 72, 80
2, 9565, Note_on_c, 0, 76, 80
2, 9565, Note_on_c, 0, 79, 80
2, 9598, Note_on_c, 0, 48, 80
2, 9600, Note_on_c, 0, 36, 0
2, 9626, Note_on_c, 0, 79, 0
2, 9626, Note_on_c, 0, 76, 0
2, 9626, Note_on_c, 0, 67, 0
2, 9626, Note_on_c, 0, 72, 0
2, 9637, Note_on_c, 0, 48, 0
2, 9672, Note_on_c, 0, 67, 80
2, 9672, Note_on_c, 0, 72, 80
2, 9672, Note_on_c, 0, 76, 80
2, 9672, Note_on_c, 0, 79, 80
2, 9706, Note_on_c, 0, 55, 80
2, 9706, Note_on_c, 0, 57, 80
2, 9706, Note_on_c, 0, 60, 80
2, 9706, Note_on_c, 0, 64, 80
2, 9733, Note_on_c, 0, 64, 0
2, 9733, Note_on_c, 0, 60, 0
2, 9733, Note_on_c, 0, 55, 0
2, 9733, Note_on_c, 0, 79, 0
2, 9733, Note_on_c, 0, 57, 0
2, 9768, Note_on_c, 0, 67, 0
2, 9768, Note_on_c, 0, 76, 0
2, 9768, Note_on_c, 0, 72, 0
2, 9775, Note_on_c, 0, 79, 80
2, 9812, Note_on_c, 0, 31, 80
2, 9812, Note_on_c, 0, 71, 80
2, 9812, Note_on_c, 0, 75, 80
2, 9814, Control_c, 0, 64, 127
2, 9850, Note_on_c, 0, 75, 0
2, 9850, Note_on_c, 0, 71, 0
2, 9850, Note_on_c, 0, 31, 0
2, 9861, Control_c, 0, 64, 0
2, 9883, Note_on_c, 0, 67, 80
2, 9919, Note_on_c, 0, 55, 80
2, 9919, Note_on_c, 0, 59, 80
2, 9919, Note_on_c, 0, 63, 80
2, 9919, Note_on_c, 0, 65, 80
2, 9943, Note_on_c, 0, 65, 0
2, 9943, Note_on_c, 0, 79, 0
2, 9943, Note_on_c, 0, 55, 0
2, 9943, Note_on_c, 0, 59, 0
2, 9943, Note_on_c, 0, 63, 0
2, 9965, Note_on_c, 0, 67, 0
2, 9984, Note_on_c, 0, 36, 80
2, 9984, Note_on_c, 0, 79, 80
2, 10020, Note_on_c, 0, 72, 80
2, 10020, Note_on_c, 0, 76, 80
2, 10022, Note_on_c, 0, 48, 80
2, 10024, Note_on_c, 0, 79, 0
2, 10024, Note_on_c, 0, 36, 0
2, 10060, Note_on_c, 0, 48, 0
2, 10084, Note_on_c, 0, 72, 0
2, 10084, Note_on_c, 0, 76, 0
2, 10095, Note_on_c, 0, 67, 80
2, 10129, Note_on_c, 0, 55, 80
2, 10129, Note_on_c, 0, 57, 80
2, 10129, Note_on_c, 0, 60, 80
2, 10129, Note_on_c, 0, 72, 80
2, 10129, Note_on_c, 0, 76, 80
2, 10131, Note_on_c, 0, 64, 80
2, 10133, Note_on_c, 0, 67, 0
2, 10155, Note_on_c, 0, 60, 0
2, 10155, Note_on_c, 0, 55, 0
2, 10157, Note_on_c, 0, 72, 0
2, 10157, Note_on_c, 0, 76, 0
2, 10157, Note_on_c, 0, 64, 0
2, 10157, Note_on_c, 0, 57, 0
2, 10200, Note_on_c, 0, 71, 80
2, 10200, Note_on_c, 0, 75, 80
2, 10200, Note_on_c, 0, 79, 80
2, 10238, Note_on_c, 0, 31, 80
2, 10274, Note_on_c, 0, 31, 0
2, 10301, Note_on_c, 0, 71, 0
2, 10301, Note_on_c, 0, 75, 0
2, 10301, Note_on_c, 0, 79, 0
2, 10309, Note_on_c, 0, 67, 80
2, 10345, Note_on_c, 0, 75, 80
2, 10347, Note_on_c, 0, 55, 80
2, 10347, Note_on_c, 0, 59, 80
2, 10347, Note_on_c, 0, 63, 80
2, 10347, Note_on_c, 0, 65, 80
2, 10347, Note_on_c, 0, 71, 80
2, 10347, Note_on_c, 0, 79, 80
2, 10349, Note_on_c, 0, 67, 0
2, 10373, Note_on_c, 0, 63, 0
2, 10373, Note_on_c, 0, 59, 0
2, 10373, Note_on_c, 0, 55, 0
2, 10373, Note_on_c, 0, 65, 0
2, 10410, Note_on_c, 0, 79, 0
2, 10410, Note_on_c, 0, 75, 0
2, 10410, Note_on_c, 0, 71, 0
2, 10416, Note_on_c, 0, 36, 80
2, 10452, Note_on_c, 0, 48, 80
2, 10454, Note_on_c, 0, 72, 80
2, 10454, Note_on_c, 0, 76, 80
2, 10454, Note_on_c, 0, 79, 80
2, 10454, Note_on_c, 0, 84, 80
2, 10456, Note_on_c, 0, 36, 0
2, 10480, Note_on_c, 0, 72, 0
2, 10480, Note_on_c, 0, 76, 0
2, 10480, Note_on_c, 0, 79, 0
2, 10480, Note_on_c, 0, 84, 0
2, 10504, Note_on_c, 0, 48, 0
2, 10526, Note_on_c, 0, 72, 80
2, 10526, Note_on_c, 0, 76, 80
2, 10526, Note_on_c, 0, 79, 80
2, 10526, Note_on_c, 0, 84, 80
2, 10562, Note_on_c, 0, 55, 80
2, 10562, Note_on_c, 0, 57, 80
2, 10562, Note_on_c, 0, 60, 80
2, 10562, Note_on_c, 0, 64, 80
2, 10589, Note_on_c, 0, 64, 0
2, 10589, Note_on_c, 0, 72, 0
2, 10589, Note_on_c, 0, 55, 0
2, 10589, Note_on_c, 0, 76, 0
2, 10589, Note_on_c, 0, 79, 0
2, 10589, Note_on_c, 0, 84, 0
2, 10589, Note_on_c, 0, 57, 0
2, 10589, Note_on_c, 0, 60, 0
2, 10632, Note_on_c, 0, 76, 80
2, 10632, Note_on_c, 0, 79, 80
2, 10632, Note_on_c, 0, 84, 80
2, 10633, Note_on_c, 0, 72, 80
2, 10670, Note_on_c, 0, 31, 80
2, 10706, Note_on_c, 0, 31, 0
2, 10741, Note_on_c, 0, 40, 80
2, 10741, Note_on_c, 0, 52, 80
2, 10776, Note_on_c, 0, 41, 80
2, 10777, Note_on_c, 0, 53, 80
2, 10779, Note_on_c, 0, 52, 0
2, 10779, Note_on_c, 0, 40, 0
2, 10836, Note_on_c, 0, 41, 0
2, 10838, Note_on_c, 0, 53, 0
2, 10844, Note_on_c, 0, 42, 80
2, 10844, Note_on_c, 0, 54, 80
2, 10880, Note_on_c, 0, 84, 0
2, 10880, Note_on_c, 0, 43, 80
2, 10880, Note_on_c, 0, 55, 80
2, 10882, Note_on_c, 0, 76, 0
2, 10882, Note_on_c, 0, 42, 0
2, 10882, Note_on_c, 0, 79, 0
2, 10882, Note_on_c, 0, 72, 0
2, 10882, Note_on_c, 0, 54, 0
2, 10917, Note_on_c, 0, 55, 0
2, 10919, Note_on_c, 0, 43, 0
2, 10973, Note_on_c, 0, 75, 80
2, 10986, Note_on_c, 0, 76, 80
2, 10986, Note_on_c, 0, 82, 80
2, 10988, Note_on_c, 0, 55, 80
2, 10988, Note_on_c, 0, 58, 80
2, 10988, Note_on_c, 0, 60, 80
2, 10988, Note_on_c, 0, 64, 80
2, 10988, Note_on_c, 0, 70, 80
2, 10992, Note_on_c, 0, 75, 0
2, 11014, Note_on_c, 0, 58, 0
2, 11014, Note_on_c, 0, 60, 0
2, 11014, Note_on_c, 0, 55, 0
2, 11014, Note_on_c, 0, 64, 0
2, 11038, Note_on_c, 0, 70, 0
2, 11038, Note_on_c, 0, 82, 0
2, 11040, Note_on_c, 0, 76, 0
2, 11047, Note_on_c, 0, 40, 80
2, 11047, Note_on_c, 0, 69, 80
2, 11047, Note_on_c, 0, 81, 80
2, 11082, Note_on_c, 0, 55, 80
2, 11082, Note_on_c, 0, 67, 80
2, 11082, Note_on_c, 0, 72, 80
2, 11082, Note_on_c, 0, 76, 80
2, 11082, Note_on_c, 0, 79, 80
2, 11084, Note_on_c, 0, 81, 0
2, 11084, Note_on_c, 0, 69, 0
2, 11086, Note_on_c, 0, 40, 0
2, 11142, Note_on_c, 0, 72, 0
2, 11142, Note_on_c, 0, 67, 0
2, 11142, Note_on_c, 0, 79, 0
2, 11142, Note_on_c, 0, 55, 0
2, 11142, Note_on_c, 0, 76, 0
2, 11150, Note_on_c, 0, 69, 80
2, 11150, Note_on_c, 0, 75, 80
2, 11152, Note_on_c, 0, 37, 80
2, 11188, Note_on_c, 0, 52, 80
2, 11188, Note_on_c, 0, 70, 80
2, 11188, Note_on_c, 0, 76, 80
2, 11192, Note_on_c, 0, 37, 0
2, 11192, Note_on_c, 0, 69, 0
2, 11192, Note_on_c, 0, 75, 0
2, 11214, Note_on_c, 0, 76, 0
2, 11214, Note_on_c, 0, 70, 0
2, 11227, Control_c, 0, 64, 127
2, 11259, Note_on_c, 0, 79, 80
2, 11261, Note_on_c, 0, 38, 80
2, 11261, Note_on_c, 0, 71, 80
2, 11276, Control_c, 0, 64, 0
2, 11298, Note_on_c, 0, 52, 0
2, 11300, Note_on_c, 0, 38, 0
2, 11300, Note_on_c, 0, 53, 80
2, 11360, Note_on_c, 0, 71, 0
2, 11371, Note_on_c, 0, 69, 80
2, 11407, Note_on_c, 0, 65, 80
2, 11407, Note_on_c, 0, 70, 80
2, 11409, Note_on_c, 0, 55, 80
2, 11409, Note_on_c, 0, 59, 80
2, 11409, Note_on_c, 0, 62, 80
2, 11411, Note_on_c, 0, 69, 0
2, 11433, Note_on_c, 0, 62, 0
2, 11433, Note_on_c, 0, 55, 0
2, 11433, Note_on_c, 0, 70, 0
2, 11433, Note_on_c, 0, 65, 0
2, 11433, Note_on_c, 0, 59, 0
2, 11478, Note_on_c, 0, 71, 80
2, 11513, Note_on_c, 0, 31, 80
2, 11553, Note_on_c, 0, 31, 0
2, 11573, Note_on_c, 0, 71, 0
2, 11573, Note_on_c, 0, 79, 0
2, 11575, Note_on_c, 0, 53, 0
2, 11581, Note_on_c, 0, 69, 80
2, 11581, Note_on_c, 0, 72, 80
2, 11581, Note_on_c, 0, 75, 80
2, 11581, Note_on_c, 0, 78, 80
2, 11583, Note_on_c, 0, 39, 80
2, 11617, Note_on_c, 0, 54, 80
2, 11619, Note_on_c, 0, 39, 0
2, 11676, Note_on_c, 0, 78, 0
2, 11678, Note_on_c, 0, 75, 0
2, 11678, Note_on_c, 0, 69, 0
2, 11678, Note_on_c, 0, 72, 0
2, 11684, Note_on_c, 0, 67, 80
2, 11684, Note_on_c, 0, 71, 80
2, 11684, Note_on_c, 0, 74, 80
2, 11684, Note_on_c, 0, 77, 80
2, 11686, Note_on_c, 0, 38, 80
2, 11720, Note_on_c, 0, 53, 80
2, 11722, Note_on_c, 0, 38, 0
2, 11722, Note_on_c, 0, 54, 0
2, 11785, Note_on_c, 0, 79, 80
2, 11822, Note_on_c, 0, 55, 80
2, 11822, Note_on_c, 0, 59, 80
2, 11822, Note_on_c, 0, 62, 80
2, 11822, Note_on_c, 0, 65, 80
2, 11822, Note_on_c, 0, 81, 80
2, 11826, Note_on_c, 0, 79, 0
2, 11833, Note_on_c, 0, 89, 80
2, 11848, Note_on_c, 0, 65, 0
2, 11848, Note_on_c, 0, 59, 0
2, 11848, Note_on_c, 0, 62, 0
2, 11848, Note_on_c, 0, 55, 0
2, 11880, Note_on_c, 0, 89, 0
2, 11882, Note_on_c, 0, 81, 0
2, 11890, Note_on_c, 0, 79, 80
2, 11892, Control_c, 0, 64, 127
2, 11927, Note_on_c, 0, 31, 80
2, 11927, Note_on_c, 0, 83, 80
2, 11927, Note_on_c, 0, 89, 80
2, 11928, Note_on_c, 0, 79, 0
2, 11963, Note_on_c, 0, 81, 80
2, 11965, Note_on_c, 0, 89, 0
2, 11965, Note_on_c, 0, 83, 0
2, 11967, Note_on_c, 0, 31, 0
2, 11977, Control_c, 0, 64, 0
2, 11996, Note_on_c, 0, 79, 80
2, 12000, Note_on_c, 0, 81, 0
2, 12032, Note_on_c, 0, 55, 80
2, 12032, Note_on_c, 0, 59, 80
2, 12032, Note_on_c, 0, 62, 80
2, 12032, Note_on_c, 0, 65, 80
2, 12032, Note_on_c, 0, 83, 80
2, 12032, Note_on_c, 0, 89, 80
2, 12034, Note_on_c, 0, 79, 0
2, 12056, Note_on_c, 0, 65, 0
2, 12056, Note_on_c, 0, 59, 0
2, 12056, Note_on_c, 0, 62, 0
2, 12056, Note_on_c, 0, 55, 0
2, 12064, Note_on_c, 0, 81, 80
2, 12066, Note_on_c, 0, 83, 0
2, 12066, Note_on_c, 0, 89, 0
2, 12090, Note_on_c, 0, 67, 0
2, 12090, Note_on_c, 0, 71, 0
2, 12090, Note_on_c, 0, 74, 0
2, 12090, Note_on_c, 0, 77, 0
2, 12090, Note_on_c, 0, 53, 0
2, 12097, Note_on_c, 0, 79, 80
2, 12101, Note_on_c, 0, 81, 0
2, 12132, Note_on_c, 0, 38, 80
2, 12132, Note_on_c, 0, 77, 80
2, 12132, Note_on_c, 0, 83, 80
2, 12132, Note_on_c, 0, 86, 80
2, 12132, Note_on_c, 0, 89, 80
2, 12134, Note_on_c, 0, 79, 0
2, 12134, Note_on_c, 0, 53, 80
2, 12170, Note_on_c, 0, 77, 0
2, 12170, Note_on_c, 0, 86, 0
2, 12170, Note_on_c, 0, 83, 0
2, 12170, Note_on_c, 0, 38, 0
2, 12170, Note_on_c, 0, 89, 0
2, 12240, Note_on_c, 0, 77, 80
2, 12240, Note_on_c, 0, 86, 80
2, 12241, Note_on_c, 0, 55, 80
2, 12241, Note_on_c, 0, 59, 80
2, 12241, Note_on_c, 0, 62, 80
2, 12241, Note_on_c, 0, 65, 80
2, 12241, Note_on_c, 0, 74, 80
2, 12241, Note_on_c, 0, 83, 80
2, 12268, Note_on_c, 0, 65, 0
2, 12268, Note_on_c, 0, 55, 0
2, 12268, Note_on_c, 0, 62, 0
2, 12268, Note_on_c, 0, 59, 0
2, 12301, Note_on_c, 0, 74, 0
2, 12301, Note_on_c, 0, 86, 0
2, 12301, Note_on_c, 0, 83, 0
2, 12301, Note_on_c, 0, 77, 0
2, 12313, Control_c, 0, 64, 127
2, 12334, Note_on_c, 0, 70, 80
2, 12334, Note_on_c, 0, 82, 80
2, 12346, Note_on_c, 0, 71, 80
2, 12346, Note_on_c, 0, 74, 80
2, 12346, Note_on_c, 0, 77, 80
2, 12346, Note_on_c, 0, 83, 80
2, 12348, Note_on_c, 0, 82, 0
2, 12348, Note_on_c, 0, 31, 80
2, 12350, Note_on_c, 0, 70, 0
2, 12362, Control_c, 0, 64, 0
2, 12375, Note_on_c, 0, 74, 0
2, 12375, Note_on_c, 0, 77, 0
2, 12375, Note_on_c, 0, 71, 0
2, 12375, Note_on_c, 0, 83, 0
2, 12389, Note_on_c, 0, 31, 0
2, 12420, Note_on_c, 0, 79, 80
2, 12422, Note_on_c, 0, 67, 80
2, 12456, Note_on_c, 0, 65, 80
2, 12458, Note_on_c, 0, 55, 80
2, 12458, Note_on_c, 0, 59, 80
2, 12458, Note_on_c, 0, 62, 80
2, 12482, Note_on_c, 0, 62, 0
2, 12482, Note_on_c, 0, 55, 0
2, 12482, Note_on_c, 0, 65, 0
2, 12482, Note_on_c, 0, 59, 0
2, 12517, Note_on_c, 0, 79, 0
2, 12517, Note_on_c, 0, 67, 0
2, 12529, Note_on_c, 0, 43, 80
2, 12540, Note_on_c, 0, 82, 80
2, 12567, Note_on_c, 0, 78, 80
2, 12567, Note_on_c, 0, 83, 80
2, 12569, Note_on_c, 0, 82, 0
2, 12569, Note_on_c, 0, 43, 0
2, 12571, Note_on_c, 0, 53, 0
2, 12578, Note_on_c, 0, 54, 80
2, 12578, Note_on_c, 0, 75, 80
2, 12593, Note_on_c, 0, 83, 0
2, 12593, Note_on_c, 0, 78, 0
2, 12595, Note_on_c, 0, 75, 0
2, 12640, Note_on_c, 0, 78, 80
2, 12640, Note_on_c, 0, 81, 80
2, 12642, Note_on_c, 0, 72, 80
2, 12642, Note_on_c, 0, 75, 80
2, 12678, Note_on_c, 0, 57, 80
2, 12678, Note_on_c, 0, 60, 80
2, 12678, Note_on_c, 0, 63, 80
2, 12678, Note_on_c, 0, 66, 80
2, 12702, Note_on_c, 0, 66, 0
2, 12702, Note_on_c, 0, 63, 0
2, 12702, Note_on_c, 0, 60, 0
2, 12702, Note_on_c, 0, 57, 0
2, 12737, Note_on_c, 0, 78, 0
2, 12737, Note_on_c, 0, 81, 0
2, 12737, Note_on_c, 0, 72, 0
2, 12737, Note_on_c, 0, 75, 0
2, 12739, Note_on_c, 0, 54, 0
2, 12744, Note_on_c, 0, 71, 80
2, 12744, Note_on_c, 0, 74, 80
2, 12744, Note_on_c, 0, 77, 80
2, 12744, Note_on_c, 0, 79, 80
2, 12746, Note_on_c, 0, 53, 80
2, 12781, Note_on_c, 0, 31, 80
2, 12821, Note_on_c, 0, 31, 0
2, 12843, Note_on_c, 0, 74, 0
2, 12843, Note_on_c, 0, 77, 0
2, 12843, Note_on_c, 0, 71, 0
2, 12843, Note_on_c, 0, 79, 0
2, 12851, Note_on_c, 0, 73, 80
2, 12851, Note_on_c, 0, 85, 80
2, 12888, Note_on_c, 0, 86, 80
2, 12889, Note_on_c, 0, 85, 0
2, 12889, Note_on_c, 0, 73, 0
2, 12889, Note_on_c, 0, 55, 80
2, 12889, Note_on_c, 0, 59, 80
2, 12889, Note_on_c, 0, 62, 80
2, 12889, Note_on_c, 0, 65, 80
2, 12889, Note_on_c, 0, 74, 80
2, 12916, Note_on_c, 0, 65, 0
2, 12916, Note_on_c, 0, 59, 0
2, 12916, Note_on_c, 0, 55, 0
2, 12916, Note_on_c, 0, 62, 0
2, 12922, Note_on_c, 0, 75, 80
2, 12922, Note_on_c, 0, 87, 80
2, 12924, Note_on_c, 0, 86, 0
2, 12926, Note_on_c, 0, 74, 0
2, 12953, Note_on_c, 0, 53, 0
2, 12959, Note_on_c, 0, 88, 80
2, 12959, Note_on_c, 0, 38, 80
2, 12959, Note_on_c, 0, 76, 80
2, 12960, Note_on_c, 0, 87, 0
2, 12960, Note_on_c, 0, 75, 0
2, 12993, Note_on_c, 0, 77, 80
2, 12993, Note_on_c, 0, 83, 80
2, 12993, Note_on_c, 0, 86, 80
2, 12993, Note_on_c, 0, 89, 80
2, 12995, Note_on_c, 0, 53, 80
2, 12997, Note_on_c, 0, 76, 0
2, 12997, Note_on_c, 0, 88, 0
2, 12999, Note_on_c, 0, 38, 0
2, 13019, Note_on_c, 0, 89, 0
2, 13021, Note_on_c, 0, 77, 0
2, 13054, Note_on_c, 0, 83, 0
2, 13054, Note_on_c, 0, 86, 0
2, 13064, Note_on_c, 0, 77, 80
2, 13064, Note_on_c, 0, 89, 80
2, 13097, Note_on_c, 0, 86, 80
2, 13099, Note_on_c, 0, 55, 80
2, 13099, Note_on_c, 0, 59, 80
2, 13099, Note_on_c, 0, 62, 80
2, 13099, Note_on_c, 0, 65, 80
2, 13099, Note_on_c, 0, 74, 80
2, 13101, Note_on_c, 0, 89, 0
2, 13101, Note_on_c, 0, 77, 0
2, 13125, Note_on_c, 0, 74, 0
2, 13125, Note_on_c, 0, 62, 0
2, 13125, Note_on_c, 0, 59, 0
2, 13125, Note_on_c, 0, 86, 0
2, 13125, Note_on_c, 0, 65, 0
2, 13125, Note_on_c, 0, 55, 0
2, 13170, Note_on_c, 0, 74, 80
2, 13170, Note_on_c, 0, 86, 80
2, 13206, Note_on_c, 0, 77, 80
2, 13206, Note_on_c, 0, 79, 80
2, 13206, Note_on_c, 0, 83, 80
2, 13208, Note_on_c, 0, 86, 0
2, 13208, Note_on_c, 0, 31, 80
2, 13210, Note_on_c, 0, 74, 0
2, 13232, Note_on_c, 0, 79, 0
2, 13232, Note_on_c, 0, 77, 0
2, 13232, Note_on_c, 0, 83, 0
2, 13243, Control_c, 0, 64, 127
2, 13247, Note_on_c, 0, 31, 0
2, 13279, Note_on_c, 0, 67, 80
2, 13279, Note_on_c, 0, 71, 80
2, 13279, Note_on_c, 0, 74, 80
2, 13279, Note_on_c, 0, 79, 80
2, 13316, Note_on_c, 0, 62, 80
2, 13316, Note_on_c, 0, 65, 80
2, 13318, Note_on_c, 0, 55, 80
2, 13318, Note_on_c, 0, 59, 80
2, 13330, Control_c, 0, 64, 0
2, 13343, Note_on_c, 0, 59, 0
2, 13343, Note_on_c, 0, 65, 0
2, 13343, Note_on_c, 0, 62, 0
2, 13344, Note_on_c, 0, 55, 0
2, 13377, Note_on_c, 0, 79, 0
2, 13377, Note_on_c, 0, 71, 0
2, 13377, Note_on_c, 0, 74, 0
2, 13377, Note_on_c, 0, 67, 0
2, 13385, Note_on_c, 0, 82, 80
2, 13387, Note_on_c, 0, 43, 80
2, 13423, Note_on_c, 0, 54, 80
2, 13423, Note_on_c, 0, 75, 80
2, 13423, Note_on_c, 0, 78, 80
2, 13423, Note_on_c, 0, 83, 80
2, 13425, Note_on_c, 0, 43, 0
2, 13425, Note_on_c, 0, 82, 0
2, 13427, Note_on_c, 0, 53, 0
2, 13447, Note_on_c, 0, 83, 0
2, 13449, Note_on_c, 0, 78, 0
2, 13449, Note_on_c, 0, 75, 0
2, 13494, Note_on_c, 0, 72, 80
2, 13494, Note_on_c, 0, 78, 80
2, 13494, Note_on_c, 0, 81, 80
2, 13496, Note_on_c, 0, 75, 80
2, 13535, Note_on_c, 0, 57, 80
2, 13535, Note_on_c, 0, 60, 80
2, 13535, Note_on_c, 0, 63, 80
2, 13535, Note_on_c, 0, 66, 80
2, 13557, Note_on_c, 0, 60, 0
2, 13559, Note_on_c, 0, 66, 0
2, 13559, Note_on_c, 0, 63, 0
2, 13559, Note_on_c, 0, 57, 0
2, 13593, Note_on_c, 0, 78, 0
2, 13593, Note_on_c, 0, 81, 0
2, 13595, Note_on_c, 0, 54, 0
2, 13595, Note_on_c, 0, 75, 0
2, 13595, Note_on_c, 0, 72, 0
2, 13601, Note_on_c, 0, 74, 80
2, 13601, Note_on_c, 0, 77, 80
2, 13601, Note_on_c, 0, 79, 80
2, 13601, Note_on_c, 0, 71, 80
2, 13603, Note_on_c, 0, 53, 80
2, 13639, Note_on_c, 0, 31, 80
2, 13676, Note_on_c, 0, 31, 0
2, 13698, Note_on_c, 0, 77, 0
2, 13698, Note_on_c, 0, 74, 0
2, 13698, Note_on_c, 0, 79, 0
2, 13700, Note_on_c, 0, 53, 0
2, 13705, Note_on_c, 0, 51, 80
2, 13705, Note_on_c, 0, 63, 80
2, 13705, Note_on_c, 0, 75, 80
2, 13707, Note_on_c, 0, 71, 0
2, 13742, Note_on_c, 0, 76, 80
2, 13744, Note_on_c, 0, 52, 80
2, 13744, Note_on_c, 0, 64, 80
2, 13746, Note_on_c, 0, 75, 0
2, 13746, Note_on_c, 0, 63, 0
2, 13748, Note_on_c, 0, 51, 0
2, 13776, Note_on_c, 0, 65, 80
2, 13776, Note_on_c, 0, 77, 80
2, 13778, Note_on_c, 0, 53, 80
2, 13780, Note_on_c, 0, 76, 0
2, 13782, Note_on_c, 0, 52, 0
2, 13782, Note_on_c, 0, 64, 0
2, 13813, Note_on_c, 0, 54, 80
2, 13813, Note_on_c, 0, 66, 80
2, 13813, Note_on_c, 0, 78, 80
2, 13815, Note_on_c, 0, 77, 0
2, 13817, Note_on_c, 0, 65, 0
2, 13819, Note_on_c, 0, 53, 0
2, 13848, Note_on_c, 0, 55, 80
2, 13848, Note_on_c, 0, 67, 80
2, 13848, Note_on_c, 0, 79, 80
2, 13849, Note_on_c, 0, 78, 0
2, 13851, Note_on_c, 0, 66, 0
2, 13853, Note_on_c, 0, 54, 0
2, 13924, Note_on_c, 0, 31, 80
2, 13924, Note_on_c, 0, 43, 80
2, 13924, Note_on_c, 0, 53, 80
2, 13924, Note_on_c, 0, 59, 80
2, 13961, Note_on_c, 0, 59, 0
2, 13961, Note_on_c, 0, 43, 0
2, 13961, Note_on_c, 0, 31, 0
2, 13961, Note_on_c, 0, 53, 0
2, 14026, Note_on_c, 0, 43, 80
2, 14026, Note_on_c, 0, 59, 80
2, 14028, Note_on_c, 0, 31, 80
2, 14028, Note_on_c, 0, 53, 80
2, 14119, Note_on_c, 0, 59, 0
2, 14119, Note_on_c, 0, 43, 0
2, 14119, Note_on_c, 0, 79, 0
2, 14119, Note_on_c, 0, 67, 0
2, 14119, Note_on_c, 0, 55, 0
2, 14121, Note_on_c, 0, 53, 0
2, 14121, Note_on_c, 0, 31, 0
2, 14127, Note_on_c, 0, 56, 80
2, 14127, Note_on_c, 0, 68, 80
2, 14127, Note_on_c, 0, 80, 80
2, 14161, Note_on_c, 0, 81, 80
2, 14163, Note_on_c, 0, 57, 80
2, 14163, Note_on_c, 0, 69, 80
2, 14165, Note_on_c, 0, 80, 0
2, 14165, Note_on_c, 0, 56, 0
2, 14173, Note_on_c, 0, 68, 0
2, 14189, Note_on_c, 0, 57, 0
2, 14189, Note_on_c, 0, 69, 0
2, 14191, Note_on_c, 0, 81, 0
2, 14232, Note_on_c, 0, 53, 80
2, 14232, Note_on_c, 0, 65, 80
2, 14232, Note_on_c, 0, 77, 80
2, 14331, Note_on_c, 0, 53, 0
2, 14337, Note_on_c, 0, 38, 80
2, 14337, Note_on_c, 0, 60, 80
2, 14374, Note_on_c, 0, 57, 80
2, 14376, Note_on_c, 0, 53, 80
2, 14377, Note_on_c, 0, 60, 0
2, 14377, Note_on_c, 0, 26, 80
2, 14379, Note_on_c, 0, 38, 0
2, 14401, Note_on_c, 0, 57, 0
2, 14403, Note_on_c, 0, 53, 0
2, 14403, Note_on_c, 0, 26, 0
2, 14448, Note_on_c, 0, 31, 80
2, 14448, Note_on_c, 0, 43, 80
2, 14448, Note_on_c, 0, 53, 80
2, 14448, Note_on_c, 0, 59, 80
2, 14450, Control_c, 0, 64, 127
2, 14536, Control_c, 0, 64, 0
2, 14548, Note_on_c, 0, 43, 0
2, 14548, Note_on_c, 0, 31, 0
2, 14559, Note_on_c, 0, 32, 80
2, 14559, Note_on_c, 0, 44, 80
2, 14592, Note_on_c, 0, 45, 80
2, 14593, Note_on_c, 0, 33, 80
2, 14595, Note_on_c, 0, 44, 0
2, 14597, Note_on_c, 0, 32, 0
2, 14648, Note_on_c, 0, 77, 0
2, 14650, Note_on_c, 0, 65, 0
2, 14650, Note_on_c, 0, 59, 0
2, 14652, Note_on_c, 0, 45, 0
2, 14652, Note_on_c, 0, 33, 0
2, 14652, Note_on_c, 0, 53, 0
2, 14660, Note_on_c, 0, 35, 80
2, 14660, Note_on_c, 0, 47, 80
2, 14696, Note_on_c, 0, 36, 80
2, 14696, Note_on_c, 0, 48, 80
2, 14698, Note_on_c, 0, 47, 0
2, 14698, Note_on_c, 0, 35, 0
2, 14800, Note_on_c, 0, 81, 80
2, 14800, Note_on_c, 0, 88, 80
2, 14802, Note_on_c, 0, 72, 80
2, 14804, Note_on_c, 0, 67, 80
2, 14907, Note_on_c, 0, 64, 80
2, 14907, Note_on_c, 0, 69, 80
2, 14907, Note_on_c, 0, 74, 80
2, 14907, Note_on_c, 0, 84, 80
2, 14909, Note_on_c, 0, 67, 0
2, 14909, Note_on_c, 0, 88, 0
2, 14909, Note_on_c, 0, 81, 0
2, 14909, Note_on_c, 0, 72, 0
2, 14968, Note_on_c, 0, 48, 0
2, 14968, Note_on_c, 0, 36, 0
2, 14976, Note_on_c, 0, 31, 80
2, 14976, Note_on_c, 0, 43, 80
2, 15012, Note_on_c, 0, 33, 80
2, 15012, Note_on_c, 0, 45, 80
2, 15014, Note_on_c, 0, 43, 0
2, 15014, Note_on_c, 0, 31, 0
2, 15061, Note_on_c, 0, 33, 0
2, 15073, Note_on_c, 0, 45, 0
2, 15079, Note_on_c, 0, 47, 80
2, 15081, Note_on_c, 0, 35, 80
2, 15114, Note_on_c, 0, 36, 80
2, 15114, Note_on_c, 0, 48, 80
2, 15118, Note_on_c, 0, 35, 0
2, 15118, Note_on_c, 0, 47, 0
2, 15138, Note_on_c, 0, 84, 0
2, 15140, Note_on_c, 0, 69, 0
2, 15140, Note_on_c, 0, 64, 0
2, 15140, Note_on_c, 0, 74, 0
2, 15152, Note_on_c, 0, 36, 0
2, 15152, Note_on_c, 0, 48, 0
2, 15170, Note_on_c, 0, 87, 80
2, 15172, Note_on_c, 0, 75, 80
2, 15185, Note_on_c, 0, 76, 80
2, 15185, Note_on_c, 0, 79, 80
2, 15185, Note_on_c, 0, 84, 80
2, 15185, Note_on_c, 0, 88, 80
2, 15187, Note_on_c, 0, 87, 0
2, 15187, Note_on_c, 0, 31, 80
2, 15189, Note_on_c, 0, 75, 0
2, 15225, Note_on_c, 0, 43, 80
2, 15227, Note_on_c, 0, 31, 0
2, 15282, Note_on_c, 0, 79, 0
2, 15282, Note_on_c, 0, 84, 0
2, 15282, Note_on_c, 0, 88, 0
2, 15284, Note_on_c, 0, 76, 0
2, 15289, Note_on_c, 0, 71, 80
2, 15289, Note_on_c, 0, 83, 80
2, 15291, Note_on_c, 0, 33, 80
2, 15324, Note_on_c, 0, 86, 80
2, 15326, Note_on_c, 0, 74, 80
2, 15328, Note_on_c, 0, 83, 0
2, 15328, Note_on_c, 0, 45, 80
2, 15330, Note_on_c, 0, 33, 0
2, 15330, Note_on_c, 0, 43, 0
2, 15330, Note_on_c, 0, 71, 0
2, 15388, Note_on_c, 0, 86, 0
2, 15390, Note_on_c, 0, 74, 0
2, 15398, Note_on_c, 0, 72, 80
2, 15398, Note_on_c, 0, 84, 80
2, 15400, Note_on_c, 0, 35, 80
2, 15431, Note_on_c, 0, 45, 0
2, 15436, Note_on_c, 0, 69, 80
2, 15436, Note_on_c, 0, 81, 80
2, 15438, Note_on_c, 0, 47, 80
2, 15440, Note_on_c, 0, 72, 0
2, 15440, Note_on_c, 0, 84, 0
2, 15442, Note_on_c, 0, 35, 0
2, 15499, Note_on_c, 0, 81, 0
2, 15501, Note_on_c, 0, 69, 0
2, 15506, Note_on_c, 0, 79, 80
2, 15508, Note_on_c, 0, 67, 80
2, 15510, Note_on_c, 0, 36, 80
2, 15532, Note_on_c, 0, 67, 0
2, 15532, Note_on_c, 0, 79, 0
2, 15534, Note_on_c, 0, 47, 0
2, 15542, Note_on_c, 0, 72, 80
2, 15542, Note_on_c, 0, 76, 80
2, 15542, Note_on_c, 0, 84, 80
2, 15544, Note_on_c, 0, 48, 80
2, 15548, Note_on_c, 0, 36, 0
2, 15568, Note_on_c, 0, 84, 0
2, 15570, Note_on_c, 0, 72, 0
2, 15570, Note_on_c, 0, 76, 0
2, 15584, Note_on_c, 0, 48, 0
2, 15617, Note_on_c, 0, 74, 80
2, 15617, Note_on_c, 0, 84, 80
2, 15653, Note_on_c, 0, 60, 80
2, 15653, Note_on_c, 0, 62, 80
2, 15653, Note_on_c, 0, 65, 80
2, 15653, Note_on_c, 0, 77, 80
2, 15655, Note_on_c, 0, 74, 0
2, 15679, Note_on_c, 0, 60, 0
2, 15679, Note_on_c, 0, 62, 0
2, 15679, Note_on_c, 0, 84, 0
2, 15679, Note_on_c, 0, 77, 0
2, 15679, Note_on_c, 0, 65, 0
2, 15724, Note_on_c, 0, 72, 80
2, 15724, Note_on_c, 0, 76, 80
2, 15724, Note_on_c, 0, 79, 80
2, 15724, Note_on_c, 0, 84, 80
2, 15728, Control_c, 0, 64, 127
2, 15763, Note_on_c, 0, 31, 80
2, 15787, Note_on_c, 0, 72, 0
2, 15803, Note_on_c, 0, 31, 0
2, 15823, Note_on_c, 0, 76, 0
2, 15823, Note_on_c, 0, 79, 0
2, 15834, Note_on_c, 0, 72, 80
2, 15850, Control_c, 0, 64, 0
2, 15870, Note_on_c, 0, 55, 80
2, 15870, Note_on_c, 0, 60, 80
2, 15870, Note_on_c, 0, 62, 80
2, 15870, Note_on_c, 0, 69, 80
2, 15872, Note_on_c, 0, 72, 0
2, 15894, Note_on_c, 0, 60, 0
2, 15894, Note_on_c, 0, 55, 0
2, 15931, Note_on_c, 0, 69, 0
2, 15931, Note_on_c, 0, 62, 0
2, 15936, Note_on_c, 0, 63, 80
2, 15936, Note_on_c, 0, 67, 80
2, 15938, Note_on_c, 0, 36, 80
2, 15971, Note_on_c, 0, 72, 80
2, 15973, Note_on_c, 0, 48, 80
2, 15973, Note_on_c, 0, 64, 80
2, 15975, Note_on_c, 0, 67, 0
2, 15975, Note_on_c, 0, 63, 0
2, 15977, Note_on_c, 0, 36, 0
2, 16009, Note_on_c, 0, 72, 0
2, 16011, Note_on_c, 0, 48, 0
2, 16011, Note_on_c, 0, 64, 0
2, 16035, Note_on_c, 0, 84, 0
2, 16080, Note_on_c, 0, 74, 80
2, 16080, Note_on_c, 0, 82, 80
2, 16082, Note_on_c, 0, 55, 80
2, 16082, Note_on_c, 0, 58, 80
2, 16082, Note_on_c, 0, 60, 80
2, 16082, Note_on_c, 0, 64, 80
2, 16082, Note_on_c, 0, 70, 80
2, 16111, Note_on_c, 0, 64, 0
2, 16111, Note_on_c, 0, 58, 0
2, 16111, Note_on_c, 0, 55, 0
2, 16111, Note_on_c, 0, 60, 0
2, 16131, Note_on_c, 0, 70, 0
2, 16144, Note_on_c, 0, 82, 0
2, 16144, Note_on_c, 0, 74, 0
2, 16152, Note_on_c, 0, 69, 80
2, 16152, Note_on_c, 0, 75, 80
2, 16152, Note_on_c, 0, 81, 80
2, 16186, Note_on_c, 0, 67, 80
2, 16186, Note_on_c, 0, 76, 80
2, 16186, Note_on_c, 0, 79, 80
2, 16188, Note_on_c, 0, 81, 0
2, 16190, Note_on_c, 0, 69, 0
2, 16190, Note_on_c, 0, 75, 0
2, 16190, Control_c, 0, 64, 127
2, 16190, Note_on_c, 0, 31, 80
2, 16226, Note_on_c, 0, 31, 0
2, 16237, Note_on_c, 0, 67, 0
2, 16237, Note_on_c, 0, 76, 0
2, 16237, Control_c, 0, 64, 0
2, 16248, Note_on_c, 0, 79, 0
2, 16255, Note_on_c, 0, 75, 80
2, 16292, Note_on_c, 0, 55, 80
2, 16292, Note_on_c, 0, 59, 80
2, 16292, Note_on_c, 0, 64, 80
2, 16292, Note_on_c, 0, 65, 80
2, 16292, Note_on_c, 0, 69, 80
2, 16292, Note_on_c, 0, 71, 80
2, 16292, Note_on_c, 0, 76, 80
2, 16294, Note_on_c, 0, 53, 80
2, 16296, Note_on_c, 0, 75, 0
2, 16318, Note_on_c, 0, 76, 0
2, 16318, Note_on_c, 0, 65, 0
2, 16318, Note_on_c, 0, 69, 0
2, 16318, Note_on_c, 0, 59, 0
2, 16318, Note_on_c, 0, 64, 0
2, 16318, Note_on_c, 0, 55, 0
2, 16318, Note_on_c, 0, 71, 0
2, 16320, Note_on_c, 0, 53, 0
2, 16360, Note_on_c, 0, 67, 80
2, 16360, Note_on_c, 0, 72, 80
2, 16360, Note_on_c, 0, 76, 80
2, 16360, Note_on_c, 0, 79, 80
2, 16362, Note_on_c, 0, 36, 80
2, 16398, Note_on_c, 0, 48, 80
2, 16400, Note_on_c, 0, 36, 0
2, 16420, Note_on_c, 0, 79, 0
2, 16420, Note_on_c, 0, 76, 0
2, 16420, Note_on_c, 0, 67, 0
2, 16420, Note_on_c, 0, 72, 0
2, 16435, Note_on_c, 0, 48, 0
2, 16467, Note_on_c, 0, 67, 80
2, 16467, Note_on_c, 0, 72, 80
2, 16467, Note_on_c, 0, 76, 80
2, 16467, Note_on_c, 0, 79, 80
2, 16502, Note_on_c, 0, 60, 80
2, 16502, Note_on_c, 0, 64, 80
2, 16504, Note_on_c, 0, 55, 80
2, 16528, Note_on_c, 0, 55, 0
2, 16528, Note_on_c, 0, 60, 0
2, 16528, Note_on_c, 0, 72, 0
2, 16528, Note_on_c, 0, 76, 0
2, 16528, Note_on_c, 0, 67, 0
2, 16528, Note_on_c, 0, 64, 0
2, 16528, Note_on_c, 0, 79, 0
2, 16570, Note_on_c, 0, 76, 80
2, 16570, Note_on_c, 0, 79, 80
2, 16572, Note_on_c, 0, 67, 80
2, 16572, Note_on_c, 0, 72, 80
2, 16576, Control_c, 0, 64, 127
2, 16610, Note_on_c, 0, 31, 80
2, 16632, Note_on_c, 0, 72, 0
2, 16647, Note_on_c, 0, 31, 0
2, 16659, Control_c, 0, 64, 0
2, 16672, Note_on_c, 0, 67, 0
2, 16682, Note_on_c, 0, 72, 80
2, 16717, Note_on_c, 0, 60, 80
2, 16717, Note_on_c, 0, 64, 80
2, 16717, Note_on_c, 0, 69, 80
2, 16719, Note_on_c, 0, 72, 0
2, 16719, Note_on_c, 0, 55, 80
2, 16746, Note_on_c, 0, 55, 0
2, 16746, Note_on_c, 0, 60, 0
2, 16746, Note_on_c, 0, 64, 0
2, 16778, Note_on_c, 0, 76, 0
2, 16778, Note_on_c, 0, 79, 0
2, 16778, Note_on_c, 0, 69, 0
2, 16786, Note_on_c, 0, 67, 80
2, 16788, Note_on_c, 0, 38, 80
2, 16823, Note_on_c, 0, 50, 80
2, 16823, Note_on_c, 0, 72, 80
2, 16823, Note_on_c, 0, 77, 80
2, 16823, Note_on_c, 0, 79, 80
2, 16824, Note_on_c, 0, 67, 0
2, 16839, Note_on_c, 0, 38, 0
2, 16849, Note_on_c, 0, 77, 0
2, 16849, Note_on_c, 0, 72, 0
2, 16849, Note_on_c, 0, 79, 0
2, 16886, Note_on_c, 0, 50, 0
2, 16894, Note_on_c, 0, 72, 80
2, 16894, Note_on_c, 0, 77, 80
2, 16894, Note_on_c, 0, 79, 80
2, 16928, Note_on_c, 0, 57, 80
2, 16928, Note_on_c, 0, 60, 80
2, 16928, Note_on_c, 0, 62, 80
2, 16928, Note_on_c, 0, 65, 80
2, 16928, Note_on_c, 0, 69, 80
2, 16932, Note_on_c, 0, 72, 0
2, 16952, Note_on_c, 0, 60, 0
2, 16952, Note_on_c, 0, 77, 0
2, 16952, Note_on_c, 0, 79, 0
2, 16954, Note_on_c, 0, 57, 0
2, 16954, Note_on_c, 0, 69, 0
2, 16954, Note_on_c, 0, 62, 0
2, 16954, Note_on_c, 0, 65, 0
2, 16999, Note_on_c, 0, 71, 80
2, 16999, Note_on_c, 0, 74, 80
2, 16999, Note_on_c, 0, 77, 80
2, 16999, Note_on_c, 0, 79, 80
2, 17001, Control_c, 0, 64, 127
2, 17036, Note_on_c, 0, 31, 80
2, 17058, Note_on_c, 0, 79, 0
2, 17072, Note_on_c, 0, 31, 0
2, 17085, Control_c, 0, 64, 0
2, 17095, Note_on_c, 0, 77, 0
2, 17095, Note_on_c, 0, 71, 0
2, 17099, Note_on_c, 0, 74, 0
2, 17103, Note_on_c, 0, 79, 80
2, 17139, Note_on_c, 0, 55, 80
2, 17139, Note_on_c, 0, 59, 80
2, 17139, Note_on_c, 0, 63, 80
2, 17139, Note_on_c, 0, 65, 80
2, 17139, Note_on_c, 0, 71, 80
2, 17139, Note_on_c, 0, 75, 80
2, 17139, Note_on_c, 0, 81, 80
2, 17141, Note_on_c, 0, 79, 0
2, 17165, Note_on_c, 0, 65, 0
2, 17165, Note_on_c, 0, 55, 0
2, 17165, Note_on_c, 0, 63, 0
2, 17165, Note_on_c, 0, 59, 0
2, 17198, Note_on_c, 0, 81, 0
2, 17198, Note_on_c, 0, 71, 0
2, 17200, Note_on_c, 0, 75, 0
2, 17206, Note_on_c, 0, 79, 80
2, 17242, Note_on_c, 0, 43, 80
2, 17242, Note_on_c, 0, 52, 80
2, 17242, Note_on_c, 0, 58, 80
2, 17242, Note_on_c, 0, 70, 80
2, 17242, Note_on_c, 0, 76, 80
2, 17242, Note_on_c, 0, 84, 80
2, 17266, Note_on_c, 0, 84, 0
2, 17266, Note_on_c, 0, 70, 0
2, 17266, Note_on_c, 0, 79, 0
2, 17266, Note_on_c, 0, 76, 0
2, 17280, Note_on_c, 0, 43, 0
2, 17311, Note_on_c, 0, 84, 80
2, 17313, Note_on_c, 0, 70, 80
2, 17313, Note_on_c, 0, 76, 80
2, 17313, Note_on_c, 0, 79, 80
2, 17348, Note_on_c, 0, 60, 80
2, 17348, Note_on_c, 0, 64, 80
2, 17348, Note_on_c, 0, 67, 80
2, 17375, Note_on_c, 0, 67, 0
2, 17375, Note_on_c, 0, 70, 0
2, 17375, Note_on_c, 0, 64, 0
2, 17375, Note_on_c, 0, 76, 0
2, 17375, Note_on_c, 0, 60, 0
2, 17375, Note_on_c, 0, 84, 0
2, 17375, Note_on_c, 0, 79, 0
2, 17417, Note_on_c, 0, 69, 80
2, 17417, Note_on_c, 0, 75, 80
2, 17417, Note_on_c, 0, 78, 80
2, 17417, Note_on_c, 0, 84, 80
2, 17419, Note_on_c, 0, 42, 80
2, 17453, Note_on_c, 0, 51, 80
2, 17453, Note_on_c, 0, 57, 80
2, 17455, Note_on_c, 0, 42, 0
2, 17455, Note_on_c, 0, 52, 0
2, 17455, Note_on_c, 0, 58, 0
2, 17519, Note_on_c, 0, 96, 80
2, 17520, Note_on_c, 0, 81, 80
2, 17520, Note_on_c, 0, 87, 80
2, 17520, Note_on_c, 0, 90, 80
2, 17522, Note_on_c, 0, 84, 0
2, 17522, Note_on_c, 0, 78, 0
2, 17522, Note_on_c, 0, 69, 0
2, 17524, Note_on_c, 0, 75, 0
2, 17555, Note_on_c, 0, 60, 80
2, 17555, Note_on_c, 0, 63, 80
2, 17555, Note_on_c, 0, 66, 80
2, 17555, Note_on_c, 0, 69, 80
2, 17579, Note_on_c, 0, 66, 0
2, 17581, Note_on_c, 0, 69, 0
2, 17581, Note_on_c, 0, 60, 0
2, 17581, Note_on_c, 0, 63, 0
2, 17616, Note_on_c, 0, 87, 0
2, 17616, Note_on_c, 0, 90, 0
2, 17616, Note_on_c, 0, 81, 0
2, 17616, Note_on_c, 0, 96, 0
2, 17621, Note_on_c, 0, 93, 80
2, 17623, Note_on_c, 0, 43, 80
2, 17660, Note_on_c, 0, 52, 80
2, 17660, Note_on_c, 0, 58, 80
2, 17660, Note_on_c, 0, 82, 80
2, 17660, Note_on_c, 0, 88, 80
2, 17660, Note_on_c, 0, 91, 80
2, 17660, Note_on_c, 0, 96, 80
2, 17662, Note_on_c, 0, 93, 0
2, 17664, Note_on_c, 0, 43, 0
2, 17664, Note_on_c, 0, 51, 0
2, 17664, Note_on_c, 0, 57, 0
2, 17722, Note_on_c, 0, 82, 0
2, 17722, Note_on_c, 0, 91, 0
2, 17722, Note_on_c, 0, 96, 0
2, 17722, Note_on_c, 0, 88, 0
2, 17722, Note_on_c, 0, 58, 0
2, 17769, Note_on_c, 0, 54, 80
2, 17769, Note_on_c, 0, 58, 80
2, 17769, Note_on_c, 0, 60, 80
2, 17769, Note_on_c, 0, 64, 80
2, 17769, Note_on_c, 0, 72, 80
2, 17769, Note_on_c, 0, 76, 80
2, 17769, Note_on_c, 0, 78, 80
2, 17769, Note_on_c, 0, 84, 80
2, 17773, Note_on_c, 0, 52, 0
2, 17793, Note_on_c, 0, 64, 0
2, 17793, Note_on_c, 0, 84, 0
2, 17793, Note_on_c, 0, 72, 0
2, 17793, Note_on_c, 0, 58, 0
2, 17793, Note_on_c, 0, 60, 0
2, 17793, Note_on_c, 0, 78, 0
2, 17793, Note_on_c, 0, 76, 0
2, 17838, Note_on_c, 0, 74, 80
2, 17838, Note_on_c, 0, 76, 80
2, 17838, Note_on_c, 0, 79, 80
2, 17838, Note_on_c, 0, 82, 80
2, 17838, Note_on_c, 0, 86, 80
2, 17875, Note_on_c, 0, 36, 80
2, 17875, Note_on_c, 0, 55, 80
2, 17877, Note_on_c, 0, 54, 0
2, 17913, Note_on_c, 0, 36, 0
2, 17937, Note_on_c, 0, 86, 0
2, 17937, Note_on_c, 0, 82, 0
2, 17937, Note_on_c, 0, 79, 0
2, 17937, Note_on_c, 0, 74, 0
2, 17937, Note_on_c, 0, 76, 0
2, 17945, Note_on_c, 0, 72, 80
2, 17945, Note_on_c, 0, 84, 80
2, 17981, Note_on_c, 0, 80, 80
2, 17981, Note_on_c, 0, 86, 80
2, 17983, Note_on_c, 0, 56, 80
2, 17983, Note_on_c, 0, 58, 80
2, 17983, Note_on_c, 0, 62, 80
2, 17983, Note_on_c, 0, 64, 80
2, 17983, Note_on_c, 0, 74, 80
2, 17983, Note_on_c, 0, 76, 80
2, 17985, Note_on_c, 0, 84, 0
2, 17985, Note_on_c, 0, 55, 0
2, 17985, Note_on_c, 0, 72, 0
2, 18007, Note_on_c, 0, 64, 0
2, 18007, Note_on_c, 0, 62, 0
2, 18007, Note_on_c, 0, 58, 0
2, 18007, Note_on_c, 0, 56, 0
2, 18042, Note_on_c, 0, 74, 0
2, 18054, Control_c, 0, 64, 127
2, 18087, Note_on_c, 0, 72, 80
2, 18087, Note_on_c, 0, 74, 80
2, 18087, Note_on_c, 0, 77, 80
2, 18087, Note_on_c, 0, 81, 80
2, 18087, Note_on_c, 0, 84, 80
2, 18089, Note_on_c, 0, 86, 0
2, 18089, Note_on_c, 0, 41, 80
2, 18089, Note_on_c, 0, 53, 80
2, 18091, Note_on_c, 0, 80, 0
2, 18091, Note_on_c, 0, 76, 0
2, 18091, Note_on_c, 0, 29, 80
2, 18172, Control_c, 0, 64, 0
2, 18194, Note_on_c, 0, 57, 80
2, 18196, Note_on_c, 0, 33, 80
2, 18196, Note_on_c, 0, 45, 80
2, 18198, Note_on_c, 0, 29, 0
2, 18198, Note_on_c, 0, 53, 0
2, 18198, Note_on_c, 0, 41, 0
2, 18304, Note_on_c, 0, 36, 80
2, 18304, Note_on_c, 0, 48, 80
2, 18304, Note_on_c, 0, 60, 80
2, 18306, Note_on_c, 0, 33, 0
2, 18306, Note_on_c, 0, 57, 0
2, 18306, Note_on_c, 0, 45, 0
2, 18411, Note_on_c, 0, 38, 80
2, 18411, Note_on_c, 0, 50, 80
2, 18411, Note_on_c, 0, 62, 80
2, 18413, Note_on_c, 0, 48, 0
2, 18413, Note_on_c, 0, 36, 0
2, 18413, Note_on_c, 0, 60, 0
2, 18437, Note_on_c, 0, 50, 0
2, 18437, Note_on_c, 0, 38, 0
2, 18437, Note_on_c, 0, 62, 0
2, 18482, Note_on_c, 0, 65, 80
2, 18484, Note_on_c, 0, 41, 80
2, 18484, Note_on_c, 0, 53, 80
2, 18521, Note_on_c, 0, 41, 0
2, 18521, Note_on_c, 0, 65, 0
2, 18523, Note_on_c, 0, 53, 0
2, 18594, Note_on_c, 0, 65, 80
2, 18596, Note_on_c, 0, 41, 80
2, 18598, Note_on_c, 0, 53, 80
2, 18632, Note_on_c, 0, 40, 80
2, 18632, Note_on_c, 0, 52, 80
2, 18632, Note_on_c, 0, 64, 80
2, 18634, Note_on_c, 0, 53, 0
2, 18634, Note_on_c, 0, 41, 0
2, 18634, Note_on_c, 0, 65, 0
2, 18736, Note_on_c, 0, 38, 80
2, 18736, Note_on_c, 0, 50, 80
2, 18736, Note_on_c, 0, 62, 80
2, 18738, Note_on_c, 0, 52, 0
2, 18738, Note_on_c, 0, 40, 0
2, 18738, Note_on_c, 0, 64, 0
2, 18840, Note_on_c, 0, 48, 80
2, 18840, Note_on_c, 0, 60, 80
2, 18841, Note_on_c, 0, 50, 0
2, 18841, Note_on_c, 0, 62, 0
2, 18841, Note_on_c, 0, 36, 80
2, 18843, Note_on_c, 0, 38, 0
2, 18898, Note_on_c, 0, 81, 0
2, 18898, Note_on_c, 0, 77, 0
2, 18898, Note_on_c, 0, 72, 0
2, 18898, Note_on_c, 0, 74, 0
2, 18898, Note_on_c, 0, 84, 0
2, 18943, Note_on_c, 0, 41, 80
2, 18943, Note_on_c, 0, 51, 80
2, 18943, Note_on_c, 0, 57, 80
2, 18943, Note_on_c, 0, 75, 80
2, 18943, Note_on_c, 0, 77, 80
2, 18943, Note_on_c, 0, 81, 80
2, 18943, Note_on_c, 0, 84, 80
2, 18943, Note_on_c, 0, 87, 80
2, 18945, Note_on_c, 0, 36, 0
2, 18945, Note_on_c, 0, 60, 0
2, 18945, Note_on_c, 0, 48, 0
2, 18969, Note_on_c, 0, 84, 0
2, 18969, Note_on_c, 0, 77, 0
2, 18969, Note_on_c, 0, 87, 0
2, 18971, Note_on_c, 0, 81, 0
2, 18971, Note_on_c, 0, 75, 0
2, 19006, Note_on_c, 0, 51, 0
2, 19006, Note_on_c, 0, 41, 0
2, 19006, Note_on_c, 0, 57, 0
2, 19013, Note_on_c, 0, 75, 80
2, 19013, Note_on_c, 0, 77, 80
2, 19013, Note_on_c, 0, 81, 80
2, 19013, Note_on_c, 0, 84, 80
2, 19013, Note_on_c, 0, 87, 80
2, 19050, Note_on_c, 0, 57, 80
2, 19050, Note_on_c, 0, 60, 80
2, 19050, Note_on_c, 0, 63, 80
2, 19050, Note_on_c, 0, 65, 80
2, 19072, Note_on_c, 0, 65, 0
2, 19072, Note_on_c, 0, 84, 0
2, 19072, Note_on_c, 0, 75, 0
2, 19072, Note_on_c, 0, 87, 0
2, 19072, Note_on_c, 0, 77, 0
2, 19072, Note_on_c, 0, 81, 0
2, 19072, Note_on_c, 0, 60, 0
2, 19072, Note_on_c, 0, 57, 0
2, 19072, Note_on_c, 0, 63, 0
2, 19119, Note_on_c, 0, 75, 80
2, 19119, Note_on_c, 0, 77, 80
2, 19119, Note_on_c, 0, 81, 80
2, 19119, Note_on_c, 0, 84, 80
2, 19119, Note_on_c, 0, 87, 80
2, 19153, Note_on_c, 0, 36, 80
2, 19157, Control_c, 0, 64, 127
2, 19181, Note_on_c, 0, 87, 0
2, 19181, Note_on_c, 0, 84, 0
2, 19181, Note_on_c, 0, 81, 0
2, 19181, Note_on_c, 0, 75, 0
2, 19181, Note_on_c, 0, 77, 0
2, 19192, Note_on_c, 0, 36, 0
2, 19226, Note_on_c, 0, 72, 80
2, 19226, Note_on_c, 0, 76, 80
2, 19226, Note_on_c, 0, 79, 80
2, 19226, Note_on_c, 0, 82, 80
2, 19226, Note_on_c, 0, 84, 80
2, 19243, Control_c, 0, 64, 0
2, 19261, Note_on_c, 0, 55, 80
2, 19261, Note_on_c, 0, 58, 80
2, 19261, Note_on_c, 0, 60, 80
2, 19261, Note_on_c, 0, 64, 80
2, 19290, Note_on_c, 0, 64, 0
2, 19290, Note_on_c, 0, 60, 0
2, 19290, Note_on_c, 0, 58, 0
2, 19290, Note_on_c, 0, 55, 0
2, 19324, Note_on_c, 0, 76, 0
2, 19324, Note_on_c, 0, 79, 0
2, 19324, Note_on_c, 0, 82, 0
2, 19324, Note_on_c, 0, 84, 0
2, 19324, Note_on_c, 0, 72, 0
2, 19332, Note_on_c, 0, 86, 80
2, 19332, Note_on_c, 0, 74, 80
2, 19367, Note_on_c, 0, 45, 80
2, 19367, Note_on_c, 0, 60, 80
2, 19367, Note_on_c, 0, 75, 80
2, 19367, Note_on_c, 0, 77, 80
2, 19367, Note_on_c, 0, 81, 80
2, 19367, Note_on_c, 0, 84, 80
2, 19367, Note_on_c, 0, 87, 80
2, 19370, Note_on_c, 0, 74, 0
2, 19370, Note_on_c, 0, 86, 0
2, 19394, Note_on_c, 0, 84, 0
2, 19394, Note_on_c, 0, 77, 0
2, 19394, Note_on_c, 0, 87, 0
2, 19394, Note_on_c, 0, 75, 0
2, 19394, Note_on_c, 0, 81, 0
2, 19407, Note_on_c, 0, 45, 0
2, 19438, Note_on_c, 0, 82, 80
2, 19438, Note_on_c, 0, 87, 80
2, 19440, Note_on_c, 0, 75, 80
2, 19440, Note_on_c, 0, 79, 80
2, 19468, Note_on_c, 0, 60, 0
2, 19476, Note_on_c, 0, 43, 80
2, 19476, Note_on_c, 0, 58, 80
2, 19500, Note_on_c, 0, 82, 0
2, 19502, Note_on_c, 0, 79, 0
2, 19502, Note_on_c, 0, 75, 0
2, 19502, Note_on_c, 0, 87, 0
2, 19514, Note_on_c, 0, 43, 0
2, 19545, Note_on_c, 0, 72, 80
2, 19545, Note_on_c, 0, 78, 80
2, 19545, Note_on_c, 0, 81, 80
2, 19545, Note_on_c, 0, 84, 80
2, 19547, Note_on_c, 0, 75, 80
2, 19582, Note_on_c, 0, 42, 80
2, 19582, Note_on_c, 0, 57, 80
2, 19584, Note_on_c, 0, 58, 0
2, 19620, Note_on_c, 0, 42, 0
2, 19644, Note_on_c, 0, 75, 0
2, 19644, Note_on_c, 0, 84, 0
2, 19644, Note_on_c, 0, 81, 0
2, 19644, Note_on_c, 0, 72, 0
2, 19644, Note_on_c, 0, 78, 0
2, 19652, Note_on_c, 0, 74, 80
2, 19652, Note_on_c, 0, 86, 80
2, 19686, Note_on_c, 0, 72, 80
2, 19686, Note_on_c, 0, 77, 80
2, 19686, Note_on_c, 0, 80, 80
2, 19686, Note_on_c, 0, 84, 80
2, 19688, Note_on_c, 0, 41, 80
2, 19688, Note_on_c, 0, 56, 80
2, 19690, Note_on_c, 0, 86, 0
2, 19690, Note_on_c, 0, 57, 0
2, 19725, Note_on_c, 0, 41, 0
2, 19747, Note_on_c, 0, 84, 0
2, 19747, Note_on_c, 0, 74, 0
2, 19747, Note_on_c, 0, 72, 0
2, 19747, Note_on_c, 0, 77, 0
2, 19747, Note_on_c, 0, 80, 0
2, 19792, Note_on_c, 0, 40, 80
2, 19792, Note_on_c, 0, 55, 80
2, 19792, Note_on_c, 0, 67, 80
2, 19792, Note_on_c, 0, 72, 80
2, 19792, Note_on_c, 0, 76, 80
2, 19792, Note_on_c, 0, 79, 80
2, 19794, Note_on_c, 0, 56, 0
2, 19816, Note_on_c, 0, 72, 0
2, 19816, Note_on_c, 0, 67, 0
2, 19816, Note_on_c, 0, 79, 0
2, 19818, Note_on_c, 0, 40, 0
2, 19818, Note_on_c, 0, 76, 0
2, 19818, Note_on_c, 0, 55, 0
2, 19860, Note_on_c, 0, 67, 80
2, 19860, Note_on_c, 0, 72, 80
2, 19860, Note_on_c, 0, 76, 80
2, 19860, Note_on_c, 0, 79, 80
2, 19898, Note_on_c, 0, 36, 80
2, 19898, Note_on_c, 0, 52, 80
2, 19920, Note_on_c, 0, 79, 0
2, 19920, Note_on_c, 0, 76, 0
2, 19920, Note_on_c, 0, 67, 0
2, 19920, Note_on_c, 0, 72, 0
2, 19931, Note_on_c, 0, 36, 0
2, 19964, Note_on_c, 0, 67, 80
2, 19964, Note_on_c, 0, 71, 80
2, 19964, Note_on_c, 0, 75, 80
2, 19964, Note_on_c, 0, 79, 80
2, 19998, Note_on_c, 0, 35, 80
2, 19998, Note_on_c, 0, 51, 80
2, 20002, Note_on_c, 0, 52, 0
2, 20033, Note_on_c, 0, 35, 0
2, 20055, Note_on_c, 0, 79, 0
2, 20055, Note_on_c, 0, 67, 0
2, 20055, Note_on_c, 0, 71, 0
2, 20057, Note_on_c, 0, 75, 0
2, 20102, Note_on_c, 0, 34, 80
2, 20102, Note_on_c, 0, 50, 80
2, 20102, Note_on_c, 0, 64, 80
2, 20102, Note_on_c, 0, 68, 80
2, 20102, Note_on_c, 0, 74, 80
2, 20102, Note_on_c, 0, 76, 80
2, 20104, Note_on_c, 0, 51, 0
2, 20140, Note_on_c, 0, 34, 0
2, 20162, Note_on_c, 0, 64, 0
2, 20162, Note_on_c, 0, 68, 0
2, 20162, Note_on_c, 0, 74, 0
2, 20164, Note_on_c, 0, 76, 0
2, 20170, Note_on_c, 0, 65, 80
2, 20170, Note_on_c, 0, 77, 80
2, 20207, Note_on_c, 0, 33, 80
2, 20207, Note_on_c, 0, 69, 80
2, 20207, Note_on_c, 0, 73, 80
2, 20207, Note_on_c, 0, 76, 80
2, 20208, Note_on_c, 0, 50, 0
2, 20210, Note_on_c, 0, 65, 0
2, 20210, Note_on_c, 0, 77, 0
2, 20218, Note_on_c, 0, 49, 80
2, 20218, Note_on_c, 0, 81, 80
2, 20232, Note_on_c, 0, 81, 0
2, 20232, Note_on_c, 0, 73, 0
2, 20232, Note_on_c, 0, 69, 0
2, 20234, Note_on_c, 0, 76, 0
2, 20245, Note_on_c, 0, 33, 0
2, 20280, Note_on_c, 0, 69, 80
2, 20280, Note_on_c, 0, 71, 80
2, 20280, Note_on_c, 0, 74, 80
2, 20280, Note_on_c, 0, 81, 80
2, 20306, Note_on_c, 0, 49, 0
2, 20314, Note_on_c, 0, 35, 80
2, 20316, Note_on_c, 0, 50, 80
2, 20340, Note_on_c, 0, 74, 0
2, 20340, Note_on_c, 0, 81, 0
2, 20340, Note_on_c, 0, 69, 0
2, 20340, Note_on_c, 0, 71, 0
2, 20354, Note_on_c, 0, 35, 0
2, 20385, Note_on_c, 0, 69, 80
2, 20385, Note_on_c, 0, 72, 80
2, 20385, Note_on_c, 0, 75, 80
2, 20385, Note_on_c, 0, 81, 80
2, 20424, Note_on_c, 0, 36, 80
2, 20424, Note_on_c, 0, 51, 80
2, 20425, Note_on_c, 0, 50, 0
2, 20462, Note_on_c, 0, 36, 0
2, 20486, Note_on_c, 0, 81, 0
2, 20486, Note_on_c, 0, 69, 0
2, 20486, Note_on_c, 0, 72, 0
2, 20488, Note_on_c, 0, 75, 0
2, 20494, Note_on_c, 0, 70, 80
2, 20494, Note_on_c, 0, 82, 80
2, 20532, Note_on_c, 0, 37, 80
2, 20532, Note_on_c, 0, 52, 80
2, 20532, Note_on_c, 0, 69, 80
2, 20532, Note_on_c, 0, 73, 80
2, 20532, Note_on_c, 0, 76, 80
2, 20532, Note_on_c, 0, 81, 80
2, 20534, Note_on_c, 0, 82, 0
2, 20534, Note_on_c, 0, 51, 0
2, 20534, Note_on_c, 0, 70, 0
2, 20572, Note_on_c, 0, 37, 0
2, 20592, Note_on_c, 0, 69, 0
2, 20592, Note_on_c, 0, 52, 0
2, 20592, Note_on_c, 0, 81, 0
2, 20592, Note_on_c, 0, 76, 0
2, 20592, Note_on_c, 0, 73, 0
2, 20603, Note_on_c, 0, 53, 80
2, 20603, Note_on_c, 0, 68, 80
2, 20603, Note_on_c, 0, 80, 80
2, 20640, Note_on_c, 0, 54, 80
2, 20640, Note_on_c, 0, 69, 80
2, 20640, Note_on_c, 0, 72, 80
2, 20640, Note_on_c, 0, 78, 80
2, 20640, Note_on_c, 0, 81, 80
2, 20641, Note_on_c, 0, 38, 80
2, 20643, Note_on_c, 0, 80, 0
2, 20643, Note_on_c, 0, 53, 0
2, 20643, Note_on_c, 0, 68, 0
2, 20665, Note_on_c, 0, 78, 0
2, 20665, Note_on_c, 0, 81, 0
2, 20665, Note_on_c, 0, 69, 0
2, 20665, Note_on_c, 0, 72, 0
2, 20678, Note_on_c, 0, 38, 0
2, 20712, Note_on_c, 0, 69, 80
2, 20712, Note_on_c, 0, 72, 80
2, 20712, Note_on_c, 0, 78, 80
2, 20712, Note_on_c, 0, 81, 80
2, 20749, Note_on_c, 0, 57, 80
2, 20749, Note_on_c, 0, 60, 80
2, 20749, Note_on_c, 0, 62, 80
2, 20749, Note_on_c, 0, 66, 80
2, 20776, Note_on_c, 0, 60, 0
2, 20776, Note_on_c, 0, 78, 0
2, 20776, Note_on_c, 0, 72, 0
2, 20776, Note_on_c, 0, 81, 0
2, 20778, Note_on_c, 0, 69, 0
2, 20778, Note_on_c, 0, 62, 0
2, 20778, Note_on_c, 0, 66, 0
2, 20778, Note_on_c, 0, 57, 0
2, 20820, Note_on_c, 0, 69, 80
2, 20820, Note_on_c, 0, 72, 80
2, 20820, Note_on_c, 0, 78, 80
2, 20820, Note_on_c, 0, 81, 80
2, 20856, Control_c, 0, 64, 127
2, 20856, Note_on_c, 0, 38, 80
2, 20856, Note_on_c, 0, 50, 80
2, 20858, Note_on_c, 0, 54, 0
2, 20905, Control_c, 0, 64, 0
2, 20907, Note_on_c, 0, 38, 0
2, 20918, Note_on_c, 0, 50, 0
2, 20928, Note_on_c, 0, 40, 80
2, 20928, Note_on_c, 0, 52, 80
2, 20963, Note_on_c, 0, 38, 80
2, 20963, Note_on_c, 0, 50, 80
2, 20967, Note_on_c, 0, 52, 0
2, 20967, Note_on_c, 0, 40, 0
2, 21024, Note_on_c, 0, 50, 0
2, 21024, Note_on_c, 0, 38, 0
2, 21034, Note_on_c, 0, 36, 80
2, 21034, Note_on_c, 0, 48, 80
2, 21069, Note_on_c, 0, 35, 80
2, 21069, Note_on_c, 0, 47, 80
2, 21071, Note_on_c, 0, 48, 0
2, 21071, Note_on_c, 0, 81, 0
2, 21071, Note_on_c, 0, 78, 0
2, 21071, Note_on_c, 0, 72, 0
2, 21071, Note_on_c, 0, 69, 0
2, 21071, Note_on_c, 0, 36, 0
2, 21107, Note_on_c, 0, 47, 0
2, 21107, Note_on_c, 0, 35, 0
2, 21144, Note_on_c, 0, 81, 80
2, 21178, Note_on_c, 0, 55, 80
2, 21180, Note_on_c, 0, 59, 80
2, 21180, Note_on_c, 0, 63, 80
2, 21180, Note_on_c, 0, 65, 80
2, 21180, Note_on_c, 0, 75, 80
2, 21184, Note_on_c, 0, 81, 0
2, 21204, Note_on_c, 0, 65, 0
2, 21204, Note_on_c, 0, 63, 0
2, 21204, Note_on_c, 0, 55, 0
2, 21204, Note_on_c, 0, 59, 0
2, 21240, Note_on_c, 0, 75, 0
2, 21248, Control_c, 0, 64, 127
2, 21248, Note_on_c, 0, 76, 80
2, 21283, Note_on_c, 0, 31, 80
2, 21283, Note_on_c, 0, 77, 80
2, 21285, Note_on_c, 0, 81, 80
2, 21288, Note_on_c, 0, 76, 0
2, 21323, Note_on_c, 0, 31, 0
2, 21331, Control_c, 0, 64, 0
2, 21347, Note_on_c, 0, 77, 0
2, 21347, Note_on_c, 0, 81, 0
2, 21355, Note_on_c, 0, 74, 80
2, 21355, Note_on_c, 0, 79, 80
2, 21389, Note_on_c, 0, 55, 80
2, 21389, Note_on_c, 0, 59, 80
2, 21389, Note_on_c, 0, 63, 80
2, 21389, Note_on_c, 0, 65, 80
2, 21389, Note_on_c, 0, 71, 80
2, 21389, Note_on_c, 0, 75, 80
2, 21391, Note_on_c, 0, 81, 80
2, 21395, Note_on_c, 0, 79, 0
2, 21395, Note_on_c, 0, 74, 0
2, 21417, Note_on_c, 0, 59, 0
2, 21417, Note_on_c, 0, 65, 0
2, 21417, Note_on_c, 0, 55, 0
2, 21417, Note_on_c, 0, 63, 0
2, 21417, Note_on_c, 0, 81, 0
2, 21417, Note_on_c, 0, 71, 0
2, 21417, Note_on_c, 0, 75, 0
2, 21462, Note_on_c, 0, 69, 80
2, 21462, Note_on_c, 0, 76, 80
2, 21462, Note_on_c, 0, 79, 80
2, 21462, Note_on_c, 0, 84, 80
2, 21495, Note_on_c, 0, 48, 80
2, 21495, Note_on_c, 0, 60, 80
2, 21558, Note_on_c, 0, 60, 0
2, 21558, Note_on_c, 0, 48, 0
2, 21603, Note_on_c, 0, 47, 80
2, 21603, Note_on_c, 0, 59, 80
2, 21605, Note_on_c, 0, 79, 0
2, 21605, Note_on_c, 0, 84, 0
2, 21605, Note_on_c, 0, 69, 0
2, 21605, Note_on_c, 0, 76, 0
2, 21674, Note_on_c, 0, 72, 80
2, 21674, Note_on_c, 0, 76, 80
2, 21674, Note_on_c, 0, 79, 80
2, 21674, Note_on_c, 0, 84, 80
2, 21711, Note_on_c, 0, 46, 80
2, 21711, Note_on_c, 0, 58, 80
2, 21713, Note_on_c, 0, 59, 0
2, 21713, Note_on_c, 0, 47, 0
2, 21769, Note_on_c, 0, 84, 0
2, 21769, Note_on_c, 0, 72, 0
2, 21769, Note_on_c, 0, 79, 0
2, 21769, Note_on_c, 0, 58, 0
2, 21769, Note_on_c, 0, 46, 0
2, 21771, Note_on_c, 0, 76, 0
2, 21779, Note_on_c, 0, 74, 80
2, 21779, Note_on_c, 0, 86, 80
2, 21816, Note_on_c, 0, 55, 80
2, 21816, Note_on_c, 0, 58, 80
2, 21816, Note_on_c, 0, 60, 80
2, 21816, Note_on_c, 0, 64, 80
2, 21816, Note_on_c, 0, 75, 80
2, 21817, Note_on_c, 0, 86, 0
2, 21817, Note_on_c, 0, 74, 0
2, 21817, Note_on_c, 0, 87, 80
2, 21841, Note_on_c, 0, 55, 0
2, 21841, Note_on_c, 0, 58, 0
2, 21841, Note_on_c, 0, 60, 0
2, 21841, Note_on_c, 0, 64, 0
2, 21874, Note_on_c, 0, 87, 0
2, 21876, Note_on_c, 0, 75, 0
2, 21882, Note_on_c, 0, 76, 80
2, 21882, Note_on_c, 0, 88, 80
2, 21916, Note_on_c, 0, 45, 80
2, 21916, Note_on_c, 0, 57, 80
2, 21916, Note_on_c, 0, 72, 80
2, 21916, Note_on_c, 0, 77, 80
2, 21916, Note_on_c, 0, 81, 80
2, 21918, Note_on_c, 0, 84, 80
2, 21920, Note_on_c, 0, 88, 0
2, 21920, Note_on_c, 0, 76, 0
2, 21942, Note_on_c, 0, 77, 0
2, 21942, Note_on_c, 0, 84, 0
2, 21942, Note_on_c, 0, 72, 0
2, 21942, Note_on_c, 0, 81, 0
2, 21966, Note_on_c, 0, 57, 0
2, 21966, Note_on_c, 0, 45, 0
2, 21986, Note_on_c, 0, 72, 80
2, 21986, Note_on_c, 0, 77, 80
2, 21986, Note_on_c, 0, 81, 80
2, 21986, Note_on_c, 0, 84, 80
2, 22021, Note_on_c, 0, 57, 80
2, 22021, Note_on_c, 0, 60, 80
2, 22021, Note_on_c, 0, 62, 80
2, 22021, Note_on_c, 0, 65, 80
2, 22050, Note_on_c, 0, 65, 0
2, 22050, Note_on_c, 0, 72, 0
2, 22050, Note_on_c, 0, 57, 0
2, 22050, Note_on_c, 0, 77, 0
2, 22050, Note_on_c, 0, 81, 0
2, 22050, Note_on_c, 0, 84, 0
2, 22050, Note_on_c, 0, 60, 0
2, 22050, Note_on_c, 0, 62, 0
2, 22092, Note_on_c, 0, 72, 80
2, 22092, Note_on_c, 0, 74, 80
2, 22092, Note_on_c, 0, 77, 80
2, 22092, Note_on_c, 0, 80, 80
2, 22092, Note_on_c, 0, 84, 80
2, 22125, Note_on_c, 0, 44, 80
2, 22125, Note_on_c, 0, 56, 80
2, 22127, Control_c, 0, 64, 127
2, 22174, Control_c, 0, 64, 0
2, 22188, Note_on_c, 0, 56, 0
2, 22188, Note_on_c, 0, 44, 0
2, 22230, Note_on_c, 0, 56, 80
2, 22230, Note_on_c, 0, 60, 80
2, 22230, Note_on_c, 0, 62, 80
2, 22230, Note_on_c, 0, 65, 80
2, 22254, Note_on_c, 0, 65, 0
2, 22254, Note_on_c, 0, 62, 0
2, 22254, Note_on_c, 0, 60, 0
2, 22254, Note_on_c, 0, 56, 0
2, 22291, Note_on_c, 0, 84, 0
2, 22291, Note_on_c, 0, 77, 0
2, 22291, Note_on_c, 0, 80, 0
2, 22291, Note_on_c, 0, 74, 0
2, 22291, Note_on_c, 0, 72, 0
2, 22333, Note_on_c, 0, 43, 80
2, 22335, Note_on_c, 0, 72, 80
2, 22335, Note_on_c, 0, 76, 80
2, 22335, Note_on_c, 0, 79, 80
2, 22335, Note_on_c, 0, 84, 80
2, 22347, Note_on_c, 0, 55, 80
2, 22398, Note_on_c, 0, 55, 0
2, 22398, Note_on_c, 0, 72, 0
2, 22398, Note_on_c, 0, 76, 0
2, 22398, Note_on_c, 0, 79, 0
2, 22398, Note_on_c, 0, 84, 0
2, 22409, Note_on_c, 0, 43, 0
2, 22454, Note_on_c, 0, 55, 80
2, 22456, Note_on_c, 0, 57, 80
2, 22456, Note_on_c, 0, 60, 80
2, 22456, Note_on_c, 0, 64, 80
2, 22470, Note_on_c, 0, 64, 0
2, 22470, Note_on_c, 0, 55, 0
2, 22470, Note_on_c, 0, 57, 0
2, 22470, Note_on_c, 0, 60, 0
2, 22512, Note_on_c, 0, 74, 80
2, 22514, Note_on_c, 0, 77, 80
2, 22514, Note_on_c, 0, 81, 80
2, 22514, Note_on_c, 0, 84, 80
2, 22525, Note_on_c, 0, 72, 80
2, 22547, Note_on_c, 0, 41, 80
2, 22549, Note_on_c, 0, 53, 80
2, 22573, Note_on_c, 0, 74, 0
2, 22608, Note_on_c, 0, 41, 0
2, 22609, Note_on_c, 0, 81, 0
2, 22609, Note_on_c, 0, 84, 0
2, 22609, Note_on_c, 0, 77, 0
2, 22609, Note_on_c, 0, 53, 0
2, 22609, Note_on_c, 0, 72, 0
2, 22615, Note_on_c, 0, 74, 80
2, 22615, Note_on_c, 0, 86, 80
2, 22652, Note_on_c, 0, 57, 80
2, 22652, Note_on_c, 0, 60, 80
2, 22654, Note_on_c, 0, 65, 80
2, 22654, Note_on_c, 0, 75, 80
2, 22654, Note_on_c, 0, 87, 80
2, 22656, Note_on_c, 0, 86, 0
2, 22656, Note_on_c, 0, 74, 0
2, 22678, Note_on_c, 0, 60, 0
2, 22678, Note_on_c, 0, 65, 0
2, 22678, Note_on_c, 0, 57, 0
2, 22714, Note_on_c, 0, 87, 0
2, 22714, Note_on_c, 0, 75, 0
2, 22720, Note_on_c, 0, 76, 80
2, 22722, Note_on_c, 0, 88, 80
2, 22756, Note_on_c, 0, 40, 80
2, 22756, Note_on_c, 0, 52, 80
2, 22758, Note_on_c, 0, 72, 80
2, 22758, Note_on_c, 0, 84, 80
2, 22760, Note_on_c, 0, 88, 0
2, 22760, Note_on_c, 0, 76, 0
2, 22784, Note_on_c, 0, 72, 0
2, 22784, Note_on_c, 0, 84, 0
2, 22806, Note_on_c, 0, 52, 0
2, 22806, Note_on_c, 0, 40, 0
2, 22826, Note_on_c, 0, 72, 80
2, 22826, Note_on_c, 0, 76, 80
2, 22826, Note_on_c, 0, 79, 80
2, 22826, Note_on_c, 0, 84, 80
2, 22861, Note_on_c, 0, 55, 80
2, 22861, Note_on_c, 0, 57, 80
2, 22863, Note_on_c, 0, 60, 80
2, 22863, Note_on_c, 0, 64, 80
2, 22887, Note_on_c, 0, 60, 0
2, 22887, Note_on_c, 0, 57, 0
2, 22887, Note_on_c, 0, 55, 0
2, 22889, Note_on_c, 0, 76, 0
2, 22889, Note_on_c, 0, 79, 0
2, 22889, Note_on_c, 0, 84, 0
2, 22889, Note_on_c, 0, 72, 0
2, 22889, Note_on_c, 0, 64, 0
2, 22934, Note_on_c, 0, 72, 80
2, 22934, Note_on_c, 0, 81, 80
2, 22936, Note_on_c, 0, 75, 80
2, 22936, Note_on_c, 0, 78, 80
2, 22936, Note_on_c, 0, 84, 80
2, 22970, Control_c, 0, 64, 127
2, 22970, Note_on_c, 0, 39, 80
2, 22970, Note_on_c, 0, 51, 80
2, 23019, Control_c, 0, 64, 0
2, 23032, Note_on_c, 0, 51, 0
2, 23032, Note_on_c, 0, 39, 0
2, 23034, Note_on_c, 0, 81, 0
2, 23034, Note_on_c, 0, 75, 0
2, 23034, Note_on_c, 0, 72, 0
2, 23034, Note_on_c, 0, 84, 0
2, 23034, Note_on_c, 0, 78, 0
2, 23079, Note_on_c, 0, 57, 80
2, 23079, Note_on_c, 0, 60, 80
2, 23079, Note_on_c, 0, 63, 80
2, 23091, Note_on_c, 0, 66, 80
2, 23106, Note_on_c, 0, 60, 0
2, 23106, Note_on_c, 0, 57, 0
2, 23108, Note_on_c, 0, 63, 0
2, 23108, Note_on_c, 0, 66, 0
2, 23189, Note_on_c, 0, 38, 80
2, 23189, Note_on_c, 0, 74, 80
2, 23189, Note_on_c, 0, 77, 80
2, 23189, Note_on_c, 0, 81, 80
2, 23191, Note_on_c, 0, 84, 80
2, 23204, Note_on_c, 0, 50, 80
2, 23204, Note_on_c, 0, 72, 80
2, 23255, Note_on_c, 0, 72, 0
2, 23255, Note_on_c, 0, 74, 0
2, 23255, Note_on_c, 0, 81, 0
2, 23255, Note_on_c, 0, 77, 0
2, 23255, Note_on_c, 0, 84, 0
2, 23297, Note_on_c, 0, 40, 80
2, 23297, Note_on_c, 0, 52, 80
2, 23299, Note_on_c, 0, 38, 0
2, 23299, Note_on_c, 0, 50, 0
2, 23370, Note_on_c, 0, 72, 80
2, 23370, Note_on_c, 0, 77, 80
2, 23370, Note_on_c, 0, 81, 80
2, 23370, Note_on_c, 0, 84, 80
2, 23394, Note_on_c, 0, 40, 0
2, 23404, Note_on_c, 0, 41, 80
2, 23406, Note_on_c, 0, 53, 80
2, 23408, Note_on_c, 0, 52, 0
2, 23467, Note_on_c, 0, 72, 0
2, 23467, Note_on_c, 0, 77, 0
2, 23467, Note_on_c, 0, 81, 0
2, 23467, Note_on_c, 0, 84, 0
2, 23477, Note_on_c, 0, 74, 80
2, 23477, Note_on_c, 0, 86, 80
2, 23512, Note_on_c, 0, 42, 80
2, 23512, Note_on_c, 0, 54, 80
2, 23514, Note_on_c, 0, 41, 0
2, 23514, Note_on_c, 0, 75, 80
2, 23514, Note_on_c, 0, 87, 80
2, 23516, Note_on_c, 0, 86, 0
2, 23516, Note_on_c, 0, 53, 0
2, 23516, Note_on_c, 0, 74, 0
2, 23574, Note_on_c, 0, 87, 0
2, 23574, Note_on_c, 0, 75, 0
2, 23580, Note_on_c, 0, 76, 80
2, 23580, Note_on_c, 0, 88, 80
2, 23616, Note_on_c, 0, 54, 0
2, 23616, Note_on_c, 0, 42, 0
2, 23616, Note_on_c, 0, 43, 80
2, 23616, Note_on_c, 0, 55, 80
2, 23616, Note_on_c, 0, 77, 80
2, 23616, Note_on_c, 0, 81, 80
2, 23616, Note_on_c, 0, 84, 80
2, 23618, Note_on_c, 0, 76, 0
2, 23618, Note_on_c, 0, 88, 0
2, 23642, Note_on_c, 0, 81, 0
2, 23642, Note_on_c, 0, 77, 0
2, 23642, Note_on_c, 0, 84, 0
2, 23664, Note_on_c, 0, 55, 0
2, 23664, Note_on_c, 0, 43, 0
2, 23685, Note_on_c, 0, 74, 80
2, 23687, Note_on_c, 0, 84, 80
2, 23721, Note_on_c, 0, 57, 80
2, 23721, Note_on_c, 0, 60, 80
2, 23721, Note_on_c, 0, 65, 80
2, 23721, Note_on_c, 0, 75, 80
2, 23725, Note_on_c, 0, 74, 0
2, 23747, Note_on_c, 0, 57, 0
2, 23747, Note_on_c, 0, 60, 0
2, 23747, Note_on_c, 0, 84, 0
2, 23747, Note_on_c, 0, 75, 0
2, 23747, Note_on_c, 0, 65, 0
2, 23789, Note_on_c, 0, 76, 80
2, 23789, Note_on_c, 0, 79, 80
2, 23826, Control_c, 0, 64, 127
2, 23826, Note_on_c, 0, 31, 80
2, 23826, Note_on_c, 0, 43, 80
2, 23862, Note_on_c, 0, 43, 0
2, 23862, Note_on_c, 0, 31, 0
2, 23873, Control_c, 0, 64, 0
2, 23889, Note_on_c, 0, 79, 0
2, 23889, Note_on_c, 0, 76, 0
2, 23895, Note_on_c, 0, 67, 80
2, 23933, Note_on_c, 0, 67, 0
2, 23933, Note_on_c, 0, 55, 80
2, 23933, Note_on_c, 0, 59, 80
2, 23933, Note_on_c, 0, 62, 80
2, 23933, Note_on_c, 0, 65, 80
2, 23933, Note_on_c, 0, 74, 80
2, 23933, Note_on_c, 0, 77, 80
2, 23955, Note_on_c, 0, 59, 0
2, 23957, Note_on_c, 0, 65, 0
2, 23957, Note_on_c, 0, 55, 0
2, 23957, Note_on_c, 0, 62, 0
2, 23992, Note_on_c, 0, 77, 0
2, 23992, Note_on_c, 0, 74, 0
2, 24000, Note_on_c, 0, 67, 80
2, 24036, Note_on_c, 0, 36, 80
2, 24036, Note_on_c, 0, 72, 80
2, 24036, Note_on_c, 0, 76, 80
2, 24038, Note_on_c, 0, 67, 0
2, 24048, Note_on_c, 0, 48, 80
2, 24075, Note_on_c, 0, 48, 0
2, 24075, Note_on_c, 0, 36, 0
2, 24077, Note_on_c, 0, 72, 0
2, 24077, Note_on_c, 0, 76, 0
2, 24108, Note_on_c, 0, 88, 80
2, 24108, Note_on_c, 0, 91, 80
2, 24146, Note_on_c, 0, 55, 80
2, 24146, Note_on_c, 0, 60, 80
2, 24146, Note_on_c, 0, 64, 80
2, 24146, Note_on_c, 0, 87, 80
2, 24146, Note_on_c, 0, 90, 80
2, 24150, Note_on_c, 0, 91, 0
2, 24150, Note_on_c, 0, 88, 0
2, 24172, Note_on_c, 0, 60, 0
2, 24172, Note_on_c, 0, 64, 0
2, 24172, Note_on_c, 0, 55, 0
2, 24207, Note_on_c, 0, 90, 0
2, 24207, Note_on_c, 0, 87, 0
2, 24217, Note_on_c, 0, 88, 80
2, 24217, Note_on_c, 0, 91, 80
2, 24254, Note_on_c, 0, 33, 80
2, 24254, Note_on_c, 0, 45, 80
2, 24256, Note_on_c, 0, 87, 80
2, 24256, Note_on_c, 0, 90, 80
2, 24258, Note_on_c, 0, 91, 0
2, 24258, Note_on_c, 0, 88, 0
2, 24290, Note_on_c, 0, 45, 0
2, 24290, Note_on_c, 0, 33, 0
2, 24317, Note_on_c, 0, 90, 0
2, 24317, Note_on_c, 0, 87, 0
2, 24325, Note_on_c, 0, 88, 80
2, 24325, Note_on_c, 0, 91, 80
2, 24361, Note_on_c, 0, 57, 80
2, 24361, Note_on_c, 0, 60, 80
2, 24361, Note_on_c, 0, 64, 80
2, 24361, Note_on_c, 0, 87, 80
2, 24361, Note_on_c, 0, 90, 80
2, 24365, Note_on_c, 0, 91, 0
2, 24365, Note_on_c, 0, 88, 0
2, 24389, Note_on_c, 0, 60, 0
2, 24389, Note_on_c, 0, 64, 0
2, 24389, Note_on_c, 0, 57, 0
2, 24424, Note_on_c, 0, 90, 0
2, 24424, Note_on_c, 0, 87, 0
2, 24432, Note_on_c, 0, 88, 80
2, 24432, Note_on_c, 0, 91, 80
2, 24466, Note_on_c, 0, 38, 80
2, 24466, Note_on_c, 0, 50, 80
2, 24468, Note_on_c, 0, 86, 80
2, 24468, Note_on_c, 0, 89, 80
2, 24470, Note_on_c, 0, 91, 0
2, 24470, Note_on_c, 0, 88, 0
2, 24503, Note_on_c, 0, 38, 0
2, 24504, Note_on_c, 0, 50, 0
2, 24527, Note_on_c, 0, 86, 0
2, 24527, Note_on_c, 0, 89, 0
2, 24534, Note_on_c, 0, 77, 80
2, 24569, Note_on_c, 0, 57, 80
2, 24569, Note_on_c, 0, 60, 80
2, 24569, Note_on_c, 0, 62, 80
2, 24569, Note_on_c, 0, 65, 80
2, 24569, Note_on_c, 0, 84, 80
2, 24573, Note_on_c, 0, 77, 0
2, 24593, Note_on_c, 0, 65, 0
2, 24593, Note_on_c, 0, 62, 0
2, 24593, Note_on_c, 0, 57, 0
2, 24593, Note_on_c, 0, 60, 0
2, 24603, Control_c, 0, 64, 127
2, 24620, Note_on_c, 0, 84, 0
2, 24638, Note_on_c, 0, 81, 80
2, 24640, Note_on_c, 0, 75, 80
2, 24672, Note_on_c, 0, 31, 80
2, 24672, Note_on_c, 0, 43, 80
2, 24674, Note_on_c, 0, 76, 80
2, 24676, Note_on_c, 0, 79, 80
2, 24678, Note_on_c, 0, 75, 0
2, 24678, Note_on_c, 0, 81, 0
2, 24686, Control_c, 0, 64, 0
2, 24700, Note_on_c, 0, 76, 0
2, 24700, Note_on_c, 0, 79, 0
2, 24711, Note_on_c, 0, 43, 0
2, 24711, Note_on_c, 0, 31, 0
2, 24744, Note_on_c, 0, 71, 80
2, 24744, Note_on_c, 0, 75, 80
2, 24744, Note_on_c, 0, 81, 80
2, 24776, Note_on_c, 0, 55, 80
2, 24776, Note_on_c, 0, 59, 80
2, 24776, Note_on_c, 0, 63, 80
2, 24776, Note_on_c, 0, 65, 80
2, 24803, Note_on_c, 0, 55, 0
2, 24805, Note_on_c, 0, 63, 0
2, 24805, Note_on_c, 0, 59, 0
2, 24805, Note_on_c, 0, 65, 0
2, 24838, Note_on_c, 0, 71, 0
2, 24838, Note_on_c, 0, 81, 0
2, 24838, Note_on_c, 0, 75, 0
2, 24845, Note_on_c, 0, 79, 80
2, 24878, Note_on_c, 0, 36, 80
2, 24878, Note_on_c, 0, 48, 80
2, 24880, Note_on_c, 0, 72, 80
2, 24880, Note_on_c, 0, 76, 80
2, 24880, Note_on_c, 0, 84, 80
2, 24882, Note_on_c, 0, 79, 0
2, 24940, Note_on_c, 0, 36, 0
2, 24940, Note_on_c, 0, 48, 0
2, 24985, Note_on_c, 0, 55, 80
2, 24985, Note_on_c, 0, 60, 80
2, 24985, Note_on_c, 0, 64, 80
2, 24985, Note_on_c, 0, 74, 80
2, 24987, Note_on_c, 0, 81, 80
2, 24987, Note_on_c, 0, 86, 80
2, 24989, Note_on_c, 0, 72, 0
2, 24989, Note_on_c, 0, 84, 0
2, 24989, Note_on_c, 0, 76, 0
2, 25011, Note_on_c, 0, 55, 0
2, 25011, Note_on_c, 0, 60, 0
2, 25011, Note_on_c, 0, 64, 0
2, 25046, Note_on_c, 0, 86, 0
2, 25046, Note_on_c, 0, 74, 0
2, 25046, Note_on_c, 0, 81, 0
2, 25052, Note_on_c, 0, 75, 80
2, 25054, Note_on_c, 0, 82, 80
2, 25054, Note_on_c, 0, 87, 80
2, 25088, Note_on_c, 0, 41, 80
2, 25090, Note_on_c, 0, 53, 80
2, 25090, Note_on_c, 0, 76, 80
2, 25090, Note_on_c, 0, 83, 80
2, 25090, Note_on_c, 0, 88, 80
2, 25092, Note_on_c, 0, 87, 0
2, 25092, Note_on_c, 0, 75, 0
2, 25092, Note_on_c, 0, 82, 0
2, 25114, Note_on_c, 0, 76, 0
2, 25114, Note_on_c, 0, 88, 0
2, 25114, Note_on_c, 0, 83, 0
2, 25147, Note_on_c, 0, 41, 0
2, 25149, Note_on_c, 0, 53, 0
2, 25159, Note_on_c, 0, 79, 80
2, 25159, Note_on_c, 0, 86, 80
2, 25159, Note_on_c, 0, 91, 80
2, 25194, Note_on_c, 0, 55, 80
2, 25194, Note_on_c, 0, 59, 80
2, 25194, Note_on_c, 0, 62, 80
2, 25194, Note_on_c, 0, 65, 80
2, 25221, Note_on_c, 0, 65, 0
2, 25221, Note_on_c, 0, 59, 0
2, 25221, Note_on_c, 0, 55, 0
2, 25221, Note_on_c, 0, 62, 0
2, 25255, Note_on_c, 0, 79, 0
2, 25255, Note_on_c, 0, 91, 0
2, 25255, Note_on_c, 0, 86, 0
2, 25261, Control_c, 0, 64, 127
2, 25301, Note_on_c, 0, 40, 80
2, 25301, Note_on_c, 0, 52, 80
2, 25303, Note_on_c, 0, 91, 80
2, 25303, Note_on_c, 0, 98, 80
2, 25303, Note_on_c, 0, 103, 80
2, 25352, Control_c, 0, 64, 0
2, 25365, Note_on_c, 0, 52, 0
2, 25365, Note_on_c, 0, 40, 0
2, 25367, Note_on_c, 0, 98, 0
2, 25367, Note_on_c, 0, 91, 0
2, 25367, Note_on_c, 0, 103, 0
2, 25374, Note_on_c, 0, 90, 80
2, 25374, Note_on_c, 0, 97, 80
2, 25374, Note_on_c, 0, 102, 80
2, 25409, Note_on_c, 0, 55, 80
2, 25409, Note_on_c, 0, 60, 80
2, 25409, Note_on_c, 0, 64, 80
2, 25409, Note_on_c, 0, 89, 80
2, 25411, Note_on_c, 0, 96, 80
2, 25411, Note_on_c, 0, 101, 80
2, 25413, Note_on_c, 0, 90, 0
2, 25415, Note_on_c, 0, 97, 0
2, 25415, Note_on_c, 0, 102, 0
2, 25435, Note_on_c, 0, 55, 0
2, 25435, Note_on_c, 0, 60, 0
2, 25435, Note_on_c, 0, 64, 0
2, 25473, Note_on_c, 0, 96, 0
2, 25473, Note_on_c, 0, 89, 0
2, 25481, Note_on_c, 0, 87, 80
2, 25481, Note_on_c, 0, 94, 80
2, 25481, Note_on_c, 0, 99, 80
2, 25485, Note_on_c, 0, 101, 0
2, 25515, Note_on_c, 0, 38, 80
2, 25515, Note_on_c, 0, 50, 80
2, 25515, Note_on_c, 0, 88, 80
2, 25517, Note_on_c, 0, 95, 80
2, 25517, Note_on_c, 0, 100, 80
2, 25519, Note_on_c, 0, 87, 0
2, 25519, Note_on_c, 0, 99, 0
2, 25519, Note_on_c, 0, 94, 0
2, 25552, Note_on_c, 0, 38, 0
2, 25554, Note_on_c, 0, 50, 0
2, 25566, Note_on_c, 0, 100, 0
2, 25566, Note_on_c, 0, 95, 0
2, 25566, Note_on_c, 0, 88, 0
2, 25586, Note_on_c, 0, 84, 80
2, 25586, Note_on_c, 0, 91, 80
2, 25586, Note_on_c, 0, 96, 80
2, 25621, Note_on_c, 0, 57, 80
2, 25621, Note_on_c, 0, 60, 80
2, 25621, Note_on_c, 0, 62, 80
2, 25621, Note_on_c, 0, 65, 80
2, 25623, Note_on_c, 0, 89, 80
2, 25623, Note_on_c, 0, 93, 80
2, 25625, Note_on_c, 0, 91, 0
2, 25627, Note_on_c, 0, 96, 0
2, 25647, Note_on_c, 0, 60, 0
2, 25649, Note_on_c, 0, 65, 0
2, 25649, Note_on_c, 0, 57, 0
2, 25649, Note_on_c, 0, 62, 0
2, 25683, Note_on_c, 0, 84, 0
2, 25685, Note_on_c, 0, 89, 0
2, 25685, Note_on_c, 0, 93, 0
2, 25693, Note_on_c, 0, 91, 80
2, 25726, Note_on_c, 0, 36, 80
2, 25726, Note_on_c, 0, 48, 80
2, 25728, Note_on_c, 0, 81, 80
2, 25728, Note_on_c, 0, 88, 80
2, 25728, Note_on_c, 0, 96, 80
2, 25731, Note_on_c, 0, 91, 0
2, 25752, Note_on_c, 0, 81, 0
2, 25766, Note_on_c, 0, 36, 0
2, 25766, Note_on_c, 0, 48, 0
2, 25768, Note_on_c, 0, 96, 0
2, 25768, Note_on_c, 0, 88, 0
2, 25790, Note_on_c, 0, 75, 80
2, 25800, Note_on_c, 0, 69, 80
2, 25802, Note_on_c, 0, 76, 80
2, 25802, Note_on_c, 0, 84, 80
2, 25806, Note_on_c, 0, 75, 0
2, 25835, Control_c, 0, 64, 127
2, 25835, Note_on_c, 0, 40, 80
2, 25835, Note_on_c, 0, 52, 80
2, 25841, Note_on_c, 0, 69, 0
2, 25841, Note_on_c, 0, 84, 0
2, 25843, Note_on_c, 0, 76, 0
2, 25910, Note_on_c, 0, 69, 80
2, 25910, Note_on_c, 0, 74, 80
2, 25910, Note_on_c, 0, 84, 80
2, 25920, Control_c, 0, 64, 0
2, 25944, Note_on_c, 0, 41, 80
2, 25944, Note_on_c, 0, 53, 80
2, 25946, Note_on_c, 0, 40, 0
2, 25948, Note_on_c, 0, 84, 0
2, 25948, Note_on_c, 0, 52, 0
2, 25948, Note_on_c, 0, 74, 0
2, 25948, Note_on_c, 0, 69, 0
2, 26019, Note_on_c, 0, 69, 80
2, 26019, Note_on_c, 0, 84, 80
2, 26021, Note_on_c, 0, 75, 80
2, 26056, Note_on_c, 0, 42, 80
2, 26056, Note_on_c, 0, 54, 80
2, 26058, Note_on_c, 0, 41, 0
2, 26060, Note_on_c, 0, 75, 0
2, 26060, Note_on_c, 0, 53, 0
2, 26060, Note_on_c, 0, 84, 0
2, 26060, Note_on_c, 0, 69, 0
2, 26125, Note_on_c, 0, 69, 80
2, 26125, Note_on_c, 0, 76, 80
2, 26125, Note_on_c, 0, 84, 80
2, 26161, Note_on_c, 0, 54, 0
2, 26161, Note_on_c, 0, 42, 0
2, 26161, Note_on_c, 0, 43, 80
2, 26161, Note_on_c, 0, 55, 80
2, 26188, Note_on_c, 0, 76, 0
2, 26188, Note_on_c, 0, 84, 0
2, 26188, Note_on_c, 0, 69, 0
2, 26223, Note_on_c, 0, 75, 80
2, 26225, Note_on_c, 0, 43, 0
2, 26225, Note_on_c, 0, 55, 0
2, 26232, Note_on_c, 0, 69, 80
2, 26232, Note_on_c, 0, 76, 80
2, 26234, Note_on_c, 0, 84, 80
2, 26236, Note_on_c, 0, 75, 0
2, 26269, Note_on_c, 0, 55, 80
2, 26269, Note_on_c, 0, 60, 80
2, 26269, Note_on_c, 0, 64, 80
2, 26271, Note_on_c, 0, 69, 0
2, 26273, Note_on_c, 0, 84, 0
2, 26275, Note_on_c, 0, 76, 0
2, 26293, Note_on_c, 0, 55, 0
2, 26293, Note_on_c, 0, 60, 0
2, 26293, Note_on_c, 0, 64, 0
2, 26340, Note_on_c, 0, 75, 80
2, 26340, Note_on_c, 0, 77, 80
2, 26340, Note_on_c, 0, 81, 80
2, 26375, Note_on_c, 0, 31, 80
2, 26375, Note_on_c, 0, 76, 80
2, 26375, Note_on_c, 0, 79, 80
2, 26376, Note_on_c, 0, 77, 0
2, 26378, Note_on_c, 0, 75, 0
2, 26378, Note_on_c, 0, 81, 0
2, 26411, Note_on_c, 0, 31, 0
2, 26440, Note_on_c, 0, 76, 0
2, 26440, Note_on_c, 0, 79, 0
2, 26446, Note_on_c, 0, 67, 80
2, 26482, Note_on_c, 0, 55, 80
2, 26482, Note_on_c, 0, 59, 80
2, 26482, Note_on_c, 0, 62, 80
2, 26482, Note_on_c, 0, 65, 80
2, 26482, Note_on_c, 0, 74, 80
2, 26482, Note_on_c, 0, 77, 80
2, 26484, Note_on_c, 0, 67, 0
2, 26506, Note_on_c, 0, 65, 0
2, 26506, Note_on_c, 0, 55, 0
2, 26506, Note_on_c, 0, 62, 0
2, 26506, Note_on_c, 0, 59, 0
2, 26541, Note_on_c, 0, 77, 0
2, 26541, Note_on_c, 0, 74, 0
2, 26548, Note_on_c, 0, 67, 80
2, 26583, Note_on_c, 0, 36, 80
2, 26583, Note_on_c, 0, 48, 80
2, 26585, Note_on_c, 0, 72, 80
2, 26585, Note_on_c, 0, 76, 80
2, 26587, Note_on_c, 0, 67, 0
2, 26609, Note_on_c, 0, 72, 0
2, 26613, Note_on_c, 0, 76, 0
2, 26616, Control_c, 0, 64, 127
2, 26643, Note_on_c, 0, 48, 0
2, 26643, Note_on_c, 0, 36, 0
2, 26654, Note_on_c, 0, 72, 80
2, 26654, Note_on_c, 0, 79, 80
2, 26654, Note_on_c, 0, 84, 80
2, 26666, Control_c, 0, 64, 0
2, 26688, Note_on_c, 0, 55, 80
2, 26688, Note_on_c, 0, 60, 80
2, 26688, Note_on_c, 0, 64, 80
2, 26688, Note_on_c, 0, 74, 80
2, 26688, Note_on_c, 0, 81, 80
2, 26688, Note_on_c, 0, 86, 80
2, 26692, Note_on_c, 0, 84, 0
2, 26692, Note_on_c, 0, 72, 0
2, 26692, Note_on_c, 0, 79, 0
2, 26714, Note_on_c, 0, 55, 0
2, 26714, Note_on_c, 0, 60, 0
2, 26714, Note_on_c, 0, 64, 0
2, 26749, Note_on_c, 0, 86, 0
2, 26749, Note_on_c, 0, 74, 0
2, 26749, Note_on_c, 0, 81, 0
2, 26794, Note_on_c, 0, 41, 80
2, 26796, Note_on_c, 0, 53, 80
2, 26796, Note_on_c, 0, 75, 80
2, 26796, Note_on_c, 0, 82, 80
2, 26796, Note_on_c, 0, 87, 80
2, 26820, Note_on_c, 0, 82, 0
2, 26822, Note_on_c, 0, 75, 0
2, 26822, Note_on_c, 0, 87, 0
2, 26858, Note_on_c, 0, 41, 0
2, 26860, Note_on_c, 0, 53, 0
2, 26868, Note_on_c, 0, 76, 80
2, 26868, Note_on_c, 0, 83, 80
2, 26868, Note_on_c, 0, 88, 80
2, 26906, Note_on_c, 0, 57, 80
2, 26906, Note_on_c, 0, 60, 80
2, 26906, Note_on_c, 0, 65, 80
2, 26930, Note_on_c, 0, 65, 0
2, 26930, Note_on_c, 0, 57, 0
2, 26930, Note_on_c, 0, 60, 0
2, 26945, Note_on_c, 0, 76, 0
2, 26945, Note_on_c, 0, 88, 0
2, 26945, Note_on_c, 0, 83, 0
2, 26977, Note_on_c, 0, 74, 80
2, 26977, Note_on_c, 0, 81, 80
2, 26977, Note_on_c, 0, 86, 80
2, 27012, Note_on_c, 0, 40, 80
2, 27012, Note_on_c, 0, 52, 80
2, 27063, Note_on_c, 0, 40, 0
2, 27077, Note_on_c, 0, 86, 0
2, 27077, Note_on_c, 0, 74, 0
2, 27077, Note_on_c, 0, 81, 0
2, 27077, Note_on_c, 0, 52, 0
2, 27088, Note_on_c, 0, 72, 80
2, 27088, Note_on_c, 0, 79, 80
2, 27088, Note_on_c, 0, 84, 80
2, 27122, Note_on_c, 0, 55, 80
2, 27122, Note_on_c, 0, 60, 80
2, 27122, Note_on_c, 0, 64, 80
2, 27122, Note_on_c, 0, 69, 80
2, 27122, Note_on_c, 0, 76, 80
2, 27122, Note_on_c, 0, 81, 80
2, 27126, Note_on_c, 0, 84, 0
2, 27126, Note_on_c, 0, 72, 0
2, 27126, Note_on_c, 0, 79, 0
2, 27148, Note_on_c, 0, 55, 0
2, 27148, Note_on_c, 0, 60, 0
2, 27148, Note_on_c, 0, 64, 0
2, 27183, Note_on_c, 0, 81, 0
2, 27183, Note_on_c, 0, 69, 0
2, 27187, Note_on_c, 0, 76, 0
2, 27227, Note_on_c, 0, 39, 80
2, 27229, Note_on_c, 0, 51, 80
2, 27229, Note_on_c, 0, 72, 80
2, 27229, Note_on_c, 0, 78, 80
2, 27229, Note_on_c, 0, 84, 80
2, 27256, Note_on_c, 0, 84, 0
2, 27256, Note_on_c, 0, 72, 0
2, 27256, Note_on_c, 0, 78, 0
2, 27278, Note_on_c, 0, 51, 0
2, 27278, Note_on_c, 0, 39, 0
2, 27300, Note_on_c, 0, 72, 80
2, 27300, Note_on_c, 0, 78, 80
2, 27300, Note_on_c, 0, 84, 80
2, 27335, Note_on_c, 0, 57, 80
2, 27335, Note_on_c, 0, 60, 80
2, 27335, Note_on_c, 0, 63, 80
2, 27335, Note_on_c, 0, 66, 80
2, 27335, Note_on_c, 0, 69, 80
2, 27335, Note_on_c, 0, 75, 80
2, 27335, Note_on_c, 0, 81, 80
2, 27338, Note_on_c, 0, 84, 0
2, 27338, Note_on_c, 0, 72, 0
2, 27338, Note_on_c, 0, 78, 0
2, 27360, Note_on_c, 0, 57, 0
2, 27360, Note_on_c, 0, 66, 0
2, 27360, Note_on_c, 0, 60, 0
2, 27360, Note_on_c, 0, 63, 0
2, 27393, Note_on_c, 0, 69, 0
2, 27395, Note_on_c, 0, 81, 0
2, 27395, Note_on_c, 0, 75, 0
2, 27401, Note_on_c, 0, 80, 80
2, 27435, Note_on_c, 0, 38, 80
2, 27435, Note_on_c, 0, 50, 80
2, 27435, Note_on_c, 0, 77, 80
2, 27435, Note_on_c, 0, 81, 80
2, 27437, Note_on_c, 0, 80, 0
2, 27494, Note_on_c, 0, 38, 0
2, 27494, Note_on_c, 0, 50, 0
2, 27496, Note_on_c, 0, 77, 0
2, 27496, Note_on_c, 0, 81, 0
2, 27504, Note_on_c, 0, 71, 80
2, 27538, Note_on_c, 0, 55, 80
2, 27538, Note_on_c, 0, 59, 80
2, 27538, Note_on_c, 0, 62, 80
2, 27538, Note_on_c, 0, 65, 80
2, 27540, Note_on_c, 0, 74, 80
2, 27542, Note_on_c, 0, 71, 0
2, 27562, Note_on_c, 0, 55, 0
2, 27562, Note_on_c, 0, 59, 0
2, 27564, Note_on_c, 0, 62, 0
2, 27564, Note_on_c, 0, 65, 0
2, 27599, Note_on_c, 0, 74, 0
2, 27606, Note_on_c, 0, 77, 80
2, 27606, Note_on_c, 0, 81, 80
2, 27639, Note_on_c, 0, 36, 80
2, 27641, Note_on_c, 0, 48, 80
2, 27641, Note_on_c, 0, 76, 80
2, 27641, Note_on_c, 0, 79, 80
2, 27645, Note_on_c, 0, 81, 0
2, 27645, Note_on_c, 0, 77, 0
2, 27699, Note_on_c, 0, 36, 0
2, 27701, Note_on_c, 0, 48, 0
2, 27701, Note_on_c, 0, 76, 0
2, 27701, Note_on_c, 0, 79, 0
2, 27709, Note_on_c, 0, 69, 80
2, 27744, Note_on_c, 0, 57, 80
2, 27744, Note_on_c, 0, 60, 80
2, 27744, Note_on_c, 0, 63, 80
2, 27744, Note_on_c, 0, 66, 80
2, 27744, Note_on_c, 0, 75, 80
2, 27744, Note_on_c, 0, 78, 80
2, 27745, Note_on_c, 0, 69, 0
2, 27768, Note_on_c, 0, 66, 0
2, 27768, Note_on_c, 0, 57, 0
2, 27768, Note_on_c, 0, 63, 0
2, 27768, Note_on_c, 0, 60, 0
2, 27804, Note_on_c, 0, 78, 0
2, 27804, Note_on_c, 0, 75, 0
2, 27812, Note_on_c, 0, 76, 80
2, 27812, Note_on_c, 0, 79, 80
2, 27846, Note_on_c, 0, 35, 80
2, 27846, Note_on_c, 0, 47, 80
2, 27846, Note_on_c, 0, 74, 80
2, 27846, Note_on_c, 0, 77, 80
2, 27848, Note_on_c, 0, 79, 0
2, 27852, Note_on_c, 0, 76, 0
2, 27887, Note_on_c, 0, 47, 0
2, 27887, Note_on_c, 0, 35, 0
2, 27911, Note_on_c, 0, 77, 0
2, 27911, Note_on_c, 0, 74, 0
2, 27921, Note_on_c, 0, 67, 80
2, 27960, Note_on_c, 0, 55, 80
2, 27960, Note_on_c, 0, 59, 80
2, 27960, Note_on_c, 0, 62, 80
2, 27960, Note_on_c, 0, 65, 80
2, 27960, Note_on_c, 0, 69, 80
2, 27961, Note_on_c, 0, 67, 0
2, 27985, Note_on_c, 0, 65, 0
2, 27985, Note_on_c, 0, 62, 0
2, 27985, Note_on_c, 0, 55, 0
2, 27985, Note_on_c, 0, 59, 0
2, 27993, Control_c, 0, 64, 127
2, 28020, Note_on_c, 0, 69, 0
2, 28028, Note_on_c, 0, 71, 80
2, 28056, Note_on_c, 0, 71, 0
2, 28064, Note_on_c, 0, 31, 80
2, 28064, Note_on_c, 0, 43, 80
2, 28064, Note_on_c, 0, 69, 80
2, 28080, Control_c, 0, 64, 0
2, 28095, Note_on_c, 0, 69, 0
2, 28103, Note_on_c, 0, 71, 80
2, 28106, Note_on_c, 0, 43, 0
2, 28106, Note_on_c, 0, 31, 0
2, 28130, Note_on_c, 0, 71, 0
2, 28141, Note_on_c, 0, 69, 80
2, 28168, Note_on_c, 0, 69, 0
2, 28178, Note_on_c, 0, 62, 80
2, 28178, Note_on_c, 0, 65, 80
2, 28178, Note_on_c, 0, 67, 80
2, 28180, Note_on_c, 0, 55, 80
2, 28180, Note_on_c, 0, 59, 80
2, 28204, Note_on_c, 0, 59, 0
2, 28204, Note_on_c, 0, 65, 0
2, 28204, Note_on_c, 0, 62, 0
2, 28204, Note_on_c, 0, 55, 0
2, 28241, Note_on_c, 0, 67, 0
2, 28283, Note_on_c, 0, 62, 80
2, 28283, Note_on_c, 0, 89, 80
2, 28283, Note_on_c, 0, 93, 80
2, 28285, Note_on_c, 0, 50, 80
2, 28312, Note_on_c, 0, 93, 0
2, 28312, Note_on_c, 0, 89, 0
2, 28348, Note_on_c, 0, 62, 0
2, 28348, Note_on_c, 0, 50, 0
2, 28354, Note_on_c, 0, 89, 80
2, 28354, Note_on_c, 0, 93, 80
2, 28391, Note_on_c, 0, 48, 80
2, 28391, Note_on_c, 0, 60, 80
2, 28391, Note_on_c, 0, 88, 80
2, 28391, Note_on_c, 0, 92, 80
2, 28392, Note_on_c, 0, 93, 0
2, 28392, Note_on_c, 0, 89, 0
2, 28440, Note_on_c, 0, 88, 0
2, 28440, Note_on_c, 0, 92, 0
2, 28460, Note_on_c, 0, 89, 80
2, 28460, Note_on_c, 0, 93, 80
2, 28494, Note_on_c, 0, 47, 80
2, 28494, Note_on_c, 0, 88, 80
2, 28494, Note_on_c, 0, 91, 80
2, 28496, Note_on_c, 0, 59, 80
2, 28498, Note_on_c, 0, 93, 0
2, 28498, Note_on_c, 0, 89, 0
2, 28498, Note_on_c, 0, 48, 0
2, 28498, Note_on_c, 0, 60, 0
2, 28520, Note_on_c, 0, 91, 0
2, 28522, Note_on_c, 0, 88, 0
2, 28567, Note_on_c, 0, 88, 80
2, 28567, Note_on_c, 0, 91, 80
2, 28602, Note_on_c, 0, 87, 80
2, 28602, Note_on_c, 0, 90, 80
2, 28604, Note_on_c, 0, 45, 80
2, 28604, Note_on_c, 0, 57, 80
2, 28606, Note_on_c, 0, 91, 0
2, 28606, Note_on_c, 0, 88, 0
2, 28606, Note_on_c, 0, 47, 0
2, 28606, Note_on_c, 0, 59, 0
2, 28662, Note_on_c, 0, 87, 0
2, 28662, Note_on_c, 0, 90, 0
2, 28668, Note_on_c, 0, 88, 80
2, 28668, Note_on_c, 0, 91, 80
2, 28704, Note_on_c, 0, 43, 80
2, 28704, Note_on_c, 0, 55, 80
2, 28704, Note_on_c, 0, 86, 80
2, 28704, Note_on_c, 0, 89, 80
2, 28706, Note_on_c, 0, 91, 0
2, 28706, Note_on_c, 0, 88, 0
2, 28706, Note_on_c, 0, 45, 0
2, 28706, Note_on_c, 0, 57, 0
2, 28765, Note_on_c, 0, 43, 0
2, 28765, Note_on_c, 0, 89, 0
2, 28765, Note_on_c, 0, 55, 0
2, 28765, Note_on_c, 0, 86, 0
2, 28771, Note_on_c, 0, 81, 80
2, 28809, Note_on_c, 0, 59, 80
2, 28809, Note_on_c, 0, 62, 80
2, 28809, Note_on_c, 0, 65, 80
2, 28809, Note_on_c, 0, 82, 80
2, 28811, Note_on_c, 0, 81, 0
2, 28819, Note_on_c, 0, 55, 80
2, 28833, Note_on_c, 0, 82, 0
2, 28835, Note_on_c, 0, 65, 0
2, 28835, Note_on_c, 0, 59, 0
2, 28835, Note_on_c, 0, 62, 0
2, 28835, Note_on_c, 0, 55, 0
2, 28877, Note_on_c, 0, 79, 80
2, 28877, Note_on_c, 0, 83, 80
2, 28877, Note_on_c, 0, 88, 80
2, 28881, Control_c, 0, 64, 127
2, 28914, Note_on_c, 0, 31, 80
2, 28938, Note_on_c, 0, 88, 0
2, 28938, Note_on_c, 0, 83, 0
2, 28940, Note_on_c, 0, 79, 0
2, 28952, Note_on_c, 0, 31, 0
2, 28960, Control_c, 0, 64, 0
2, 28980, Note_on_c, 0, 77, 80
2, 28980, Note_on_c, 0, 83, 80
2, 28980, Note_on_c, 0, 86, 80
2, 29016, Note_on_c, 0, 55, 80
2, 29016, Note_on_c, 0, 59, 80
2, 29016, Note_on_c, 0, 62, 80
2, 29016, Note_on_c, 0, 65, 80
2, 29043, Note_on_c, 0, 65, 0
2, 29043, Note_on_c, 0, 59, 0
2, 29043, Note_on_c, 0, 62, 0
2, 29054, Note_on_c, 0, 55, 0
2, 29076, Note_on_c, 0, 77, 0
2, 29076, Note_on_c, 0, 83, 0
2, 29076, Note_on_c, 0, 86, 0
2, 29127, Note_on_c, 0, 38, 80
2, 29127, Note_on_c, 0, 50, 80
2, 29127, Note_on_c, 0, 77, 80
2, 29127, Note_on_c, 0, 81, 80
2, 29151, Note_on_c, 0, 81, 0
2, 29151, Note_on_c, 0, 77, 0
2, 29189, Note_on_c, 0, 50, 0
2, 29189, Note_on_c, 0, 38, 0
2, 29195, Note_on_c, 0, 77, 80
2, 29195, Note_on_c, 0, 81, 80
2, 29233, Note_on_c, 0, 81, 0
2, 29233, Note_on_c, 0, 77, 0
2, 29233, Note_on_c, 0, 40, 80
2, 29233, Note_on_c, 0, 52, 80
2, 29233, Note_on_c, 0, 76, 80
2, 29233, Note_on_c, 0, 80, 80
2, 29280, Note_on_c, 0, 80, 0
2, 29280, Note_on_c, 0, 76, 0
2, 29303, Note_on_c, 0, 77, 80
2, 29303, Note_on_c, 0, 81, 80
2, 29337, Note_on_c, 0, 41, 80
2, 29337, Note_on_c, 0, 53, 80
2, 29337, Note_on_c, 0, 76, 80
2, 29337, Note_on_c, 0, 79, 80
2, 29339, Note_on_c, 0, 81, 0
2, 29339, Note_on_c, 0, 77, 0
2, 29339, Note_on_c, 0, 52, 0
2, 29341, Note_on_c, 0, 40, 0
2, 29363, Note_on_c, 0, 79, 0
2, 29363, Note_on_c, 0, 76, 0
2, 29410, Note_on_c, 0, 76, 80
2, 29410, Note_on_c, 0, 79, 80
2, 29445, Note_on_c, 0, 78, 80
2, 29447, Note_on_c, 0, 42, 80
2, 29447, Note_on_c, 0, 54, 80
2, 29447, Note_on_c, 0, 75, 80
2, 29448, Note_on_c, 0, 79, 0
2, 29448, Note_on_c, 0, 76, 0
2, 29448, Note_on_c, 0, 41, 0
2, 29450, Note_on_c, 0, 53, 0
2, 29497, Note_on_c, 0, 78, 0
2, 29510, Note_on_c, 0, 75, 0
2, 29518, Note_on_c, 0, 76, 80
2, 29518, Note_on_c, 0, 79, 80
2, 29552, Note_on_c, 0, 55, 80
2, 29552, Note_on_c, 0, 74, 80
2, 29552, Note_on_c, 0, 77, 80
2, 29554, Note_on_c, 0, 43, 80
2, 29556, Note_on_c, 0, 79, 0
2, 29556, Note_on_c, 0, 76, 0
2, 29556, Note_on_c, 0, 42, 0
2, 29556, Note_on_c, 0, 54, 0
2, 29603, Note_on_c, 0, 55, 0
2, 29605, Note_on_c, 0, 43, 0
2, 29617, Note_on_c, 0, 74, 0
2, 29617, Note_on_c, 0, 77, 0
2, 29625, Note_on_c, 0, 69, 80
2, 29662, Note_on_c, 0, 55, 80
2, 29662, Note_on_c, 0, 59, 80
2, 29662, Note_on_c, 0, 62, 80
2, 29662, Note_on_c, 0, 65, 80
2, 29662, Note_on_c, 0, 70, 80
2, 29665, Note_on_c, 0, 69, 0
2, 29686, Note_on_c, 0, 59, 0
2, 29686, Note_on_c, 0, 62, 0
2, 29686, Note_on_c, 0, 55, 0
2, 29686, Note_on_c, 0, 70, 0
2, 29686, Note_on_c, 0, 65, 0
2, 29733, Note_on_c, 0, 71, 80
2, 29733, Note_on_c, 0, 76, 80
2, 29735, Control_c, 0, 64, 127
2, 29771, Note_on_c, 0, 31, 80
2, 29808, Note_on_c, 0, 31, 0
2, 29822, Control_c, 0, 64, 0
2, 29832, Note_on_c, 0, 71, 0
2, 29834, Note_on_c, 0, 76, 0
2, 29840, Note_on_c, 0, 65, 80
2, 29840, Note_on_c, 0, 74, 80
2, 29875, Note_on_c, 0, 59, 80
2, 29877, Note_on_c, 0, 55, 80
2, 29879, Note_on_c, 0, 53, 80
2, 29903, Note_on_c, 0, 55, 0
2, 29903, Note_on_c, 0, 59, 0
2, 29904, Note_on_c, 0, 53, 0
2, 29935, Note_on_c, 0, 74, 0
2, 29937, Note_on_c, 0, 65, 0
2, 29979, Note_on_c, 0, 86, 80
2, 29979, Note_on_c, 0, 91, 80
2, 29981, Note_on_c, 0, 38, 80
2, 29981, Note_on_c, 0, 50, 80
2, 29981, Note_on_c, 0, 79, 80
2, 30020, Note_on_c, 0, 50, 0
2, 30020, Note_on_c, 0, 38, 0
2, 30040, Note_on_c, 0, 86, 0
2, 30040, Note_on_c, 0, 91, 0
2, 30042, Note_on_c, 0, 79, 0
2, 30082, Note_on_c, 0, 86, 80
2, 30082, Note_on_c, 0, 91, 80
2, 30084, Note_on_c, 0, 79, 80
2, 30086, Note_on_c, 0, 53, 80
2, 30086, Note_on_c, 0, 55, 80
2, 30086, Note_on_c, 0, 59, 80
2, 30086, Note_on_c, 0, 62, 80
2, 30110, Note_on_c, 0, 79, 0
2, 30110, Note_on_c, 0, 86, 0
2, 30110, Note_on_c, 0, 91, 0
2, 30112, Note_on_c, 0, 55, 0
2, 30112, Note_on_c, 0, 53, 0
2, 30112, Note_on_c, 0, 59, 0
2, 30112, Note_on_c, 0, 62, 0
2, 30150, Note_on_c, 0, 79, 80
2, 30150, Note_on_c, 0, 86, 80
2, 30150, Note_on_c, 0, 91, 80
2, 30189, Note_on_c, 0, 36, 80
2, 30189, Note_on_c, 0, 48, 80
2, 30223, Note_on_c, 0, 48, 0
2, 30225, Note_on_c, 0, 36, 0
2, 30245, Note_on_c, 0, 79, 0
2, 30245, Note_on_c, 0, 86, 0
2, 30245, Note_on_c, 0, 91, 0
2, 30253, Note_on_c, 0, 80, 80
2, 30253, Note_on_c, 0, 87, 80
2, 30253, Note_on_c, 0, 92, 80
2, 30288, Note_on_c, 0, 57, 80
2, 30288, Note_on_c, 0, 60, 80
2, 30288, Note_on_c, 0, 62, 80
2, 30288, Note_on_c, 0, 81, 80
2, 30288, Note_on_c, 0, 88, 80
2, 30288, Note_on_c, 0, 93, 80
2, 30289, Note_on_c, 0, 92, 0
2, 30289, Note_on_c, 0, 80, 0
2, 30289, Note_on_c, 0, 87, 0
2, 30291, Note_on_c, 0, 53, 80
2, 30313, Note_on_c, 0, 57, 0
2, 30313, Note_on_c, 0, 60, 0
2, 30313, Note_on_c, 0, 62, 0
2, 30315, Note_on_c, 0, 53, 0
2, 30346, Note_on_c, 0, 93, 0
2, 30346, Note_on_c, 0, 88, 0
2, 30346, Note_on_c, 0, 81, 0
2, 30391, Note_on_c, 0, 86, 80
2, 30391, Note_on_c, 0, 89, 80
2, 30393, Note_on_c, 0, 35, 80
2, 30393, Note_on_c, 0, 47, 80
2, 30393, Note_on_c, 0, 77, 80
2, 30433, Note_on_c, 0, 47, 0
2, 30433, Note_on_c, 0, 35, 0
2, 30452, Note_on_c, 0, 86, 0
2, 30452, Note_on_c, 0, 89, 0
2, 30454, Note_on_c, 0, 77, 0
2, 30501, Note_on_c, 0, 77, 80
2, 30501, Note_on_c, 0, 86, 80
2, 30501, Note_on_c, 0, 89, 80
2, 30503, Note_on_c, 0, 55, 80
2, 30503, Note_on_c, 0, 62, 80
2, 30504, Note_on_c, 0, 53, 80
2, 30504, Note_on_c, 0, 59, 80
2, 30527, Note_on_c, 0, 89, 0
2, 30527, Note_on_c, 0, 77, 0
2, 30527, Note_on_c, 0, 86, 0
2, 30528, Note_on_c, 0, 62, 0
2, 30528, Note_on_c, 0, 55, 0
2, 30528, Note_on_c, 0, 59, 0
2, 30530, Note_on_c, 0, 53, 0
2, 30571, Note_on_c, 0, 77, 80
2, 30571, Note_on_c, 0, 86, 80
2, 30571, Note_on_c, 0, 89, 80
2, 30611, Note_on_c, 0, 31, 80
2, 30611, Note_on_c, 0, 43, 80
2, 30615, Control_c, 0, 64, 127
2, 30649, Note_on_c, 0, 43, 0
2, 30651, Note_on_c, 0, 31, 0
2, 30659, Note_on_c, 0, 86, 0
2, 30670, Note_on_c, 0, 89, 0
2, 30672, Note_on_c, 0, 77, 0
2, 30679, Note_on_c, 0, 90, 80
2, 30681, Note_on_c, 0, 78, 80
2, 30681, Note_on_c, 0, 87, 80
2, 30697, Control_c, 0, 64, 0
2, 30718, Note_on_c, 0, 79, 80
2, 30718, Note_on_c, 0, 88, 80
2, 30718, Note_on_c, 0, 91, 80
2, 30720, Note_on_c, 0, 87, 0
2, 30720, Note_on_c, 0, 90, 0
2, 30720, Note_on_c, 0, 53, 80
2, 30720, Note_on_c, 0, 55, 80
2, 30720, Note_on_c, 0, 59, 80
2, 30721, Note_on_c, 0, 78, 0
2, 30745, Note_on_c, 0, 55, 0
2, 30745, Note_on_c, 0, 59, 0
2, 30747, Note_on_c, 0, 53, 0
2, 30778, Note_on_c, 0, 88, 0
2, 30778, Note_on_c, 0, 91, 0
2, 30780, Note_on_c, 0, 79, 0
2, 30792, Note_on_c, 0, 36, 80
2, 30825, Note_on_c, 0, 52, 80
2, 30825, Note_on_c, 0, 55, 80
2, 30825, Note_on_c, 0, 57, 80
2, 30825, Note_on_c, 0, 60, 80
2, 30827, Note_on_c, 0, 43, 80
2, 30864, Note_on_c, 0, 60, 0
2, 30864, Note_on_c, 0, 57, 0
2, 30865, Note_on_c, 0, 55, 0
2, 30865, Note_on_c, 0, 52, 0
2, 30865, Note_on_c, 0, 43, 0
2, 30867, Note_on_c, 0, 36, 0
2, 30933, Note_on_c, 0, 87, 80
2, 30933, Note_on_c, 0, 95, 80
2, 30933, Note_on_c, 0, 99, 80
2, 30935, Note_on_c, 0, 78, 80
2, 30961, Note_on_c, 0, 78, 0
2, 30961, Note_on_c, 0, 87, 0
2, 30961, Note_on_c, 0, 95, 0
2, 30961, Note_on_c, 0, 99, 0
2, 31007, Note_on_c, 0, 79, 80
2, 31007, Note_on_c, 0, 88, 80
2, 31007, Note_on_c, 0, 96, 80
2, 31007, Note_on_c, 0, 100, 80
2, 31067, Note_on_c, 0, 96, 0
2, 31104, Note_on_c, 0, 100, 0
2, 31105, Note_on_c, 0, 88, 0
2, 31105, Note_on_c, 0, 79, 0
2, 31111, Note_on_c, 0, 84, 80
2, 31111, Note_on_c, 0, 91, 80
2, 31111, Note_on_c, 0, 96, 80
2, 31113, Note_on_c, 0, 76, 80
2, 31150, Note_on_c, 0, 72, 80
2, 31150, Note_on_c, 0, 81, 80
2, 31150, Note_on_c, 0, 88, 80
2, 31150, Note_on_c, 0, 93, 80
2, 31152, Note_on_c, 0, 76, 0
2, 31152, Note_on_c, 0, 96, 0
2, 31152, Note_on_c, 0, 84, 0
2, 31152, Note_on_c, 0, 91, 0
2, 31208, Note_on_c, 0, 72, 0
2, 31208, Note_on_c, 0, 93, 0
2, 31208, Note_on_c, 0, 81, 0
2, 31208, Note_on_c, 0, 88, 0
2, 31253, Note_on_c, 0, 60, 80
2, 31255, Note_on_c, 0, 48, 80
2, 31282, Note_on_c, 0, 60, 0
2, 31319, Note_on_c, 0, 48, 0
2, 31324, Note_on_c, 0, 91, 80
2, 31324, Note_on_c, 0, 100, 80
2, 31326, Note_on_c, 0, 60, 80
2, 31326, Note_on_c, 0, 84, 80
2, 31353, Note_on_c, 0, 60, 0
2, 31364, Note_on_c, 0, 59, 80
2, 31366, Note_on_c, 0, 47, 80
2, 31390, Note_on_c, 0, 59, 0
2, 31422, Note_on_c, 0, 91, 0
2, 31422, Note_on_c, 0, 100, 0
2, 31424, Note_on_c, 0, 84, 0
2, 31426, Note_on_c, 0, 47, 0
2, 31430, Note_on_c, 0, 95, 80
2, 31432, Note_on_c, 0, 59, 80
2, 31463, Note_on_c, 0, 59, 0
2, 31464, Note_on_c, 0, 98, 80
2, 31466, Note_on_c, 0, 91, 80
2, 31468, Note_on_c, 0, 45, 80
2, 31468, Note_on_c, 0, 57, 80
2, 31468, Note_on_c, 0, 84, 80
2, 31470, Note_on_c, 0, 95, 0
2, 31494, Note_on_c, 0, 57, 0
2, 31527, Note_on_c, 0, 98, 0
2, 31529, Note_on_c, 0, 91, 0
2, 31529, Note_on_c, 0, 84, 0
2, 31531, Note_on_c, 0, 45, 0
2, 31538, Note_on_c, 0, 96, 80
2, 31540, Note_on_c, 0, 57, 80
2, 31573, Note_on_c, 0, 93, 80
2, 31575, Note_on_c, 0, 79, 80
2, 31575, Note_on_c, 0, 88, 80
2, 31577, Note_on_c, 0, 96, 0
2, 31577, Note_on_c, 0, 43, 80
2, 31577, Note_on_c, 0, 55, 80
2, 31579, Note_on_c, 0, 57, 0
2, 31601, Note_on_c, 0, 55, 0
2, 31633, Note_on_c, 0, 93, 0
2, 31635, Note_on_c, 0, 79, 0
2, 31635, Note_on_c, 0, 88, 0
2, 31637, Note_on_c, 0, 43, 0
2, 31641, Note_on_c, 0, 91, 80
2, 31645, Note_on_c, 0, 55, 80
2, 31672, Note_on_c, 0, 55, 0
2, 31676, Note_on_c, 0, 96, 80
2, 31678, Note_on_c, 0, 84, 80
2, 31678, Note_on_c, 0, 88, 80
2, 31680, Note_on_c, 0, 48, 80
2, 31683, Note_on_c, 0, 36, 80
2, 31742, Note_on_c, 0, 88, 0
2, 31742, Note_on_c, 0, 84, 0
2, 31742, Note_on_c, 0, 91, 0
2, 31742, Note_on_c, 0, 96, 0
2, 31746, Note_on_c, 0, 36, 0
2, 31746, Note_on_c, 0, 48, 0
2, 31750, Note_on_c, 0, 97, 80
2, 31750, Note_on_c, 0, 85, 80
2, 31784, Note_on_c, 0, 98, 80
2, 31786, Note_on_c, 0, 86, 80
2, 31788, Note_on_c, 0, 52, 80
2, 31790, Note_on_c, 0, 85, 0
2, 31790, Note_on_c, 0, 97, 0
2, 31792, Note_on_c, 0, 40, 80
2, 31845, Note_on_c, 0, 98, 0
2, 31847, Note_on_c, 0, 86, 0
2, 31854, Note_on_c, 0, 99, 80
2, 31856, Note_on_c, 0, 87, 80
2, 31891, Note_on_c, 0, 88, 80
2, 31891, Note_on_c, 0, 100, 80
2, 31893, Note_on_c, 0, 87, 0
2, 31893, Note_on_c, 0, 99, 0
2, 31893, Note_on_c, 0, 53, 80
2, 31895, Note_on_c, 0, 41, 80
2, 31896, Note_on_c, 0, 40, 0
2, 31896, Note_on_c, 0, 52, 0
2, 31951, Note_on_c, 0, 88, 0
2, 31951, Note_on_c, 0, 100, 0
2, 31959, Note_on_c, 0, 91, 80
2, 31959, Note_on_c, 0, 103, 80
2, 31993, Note_on_c, 0, 101, 80
2, 31995, Note_on_c, 0, 89, 80
2, 31997, Note_on_c, 0, 103, 0
2, 31997, Note_on_c, 0, 91, 0
2, 31997, Note_on_c, 0, 54, 80
2, 31999, Note_on_c, 0, 42, 80
2, 32001, Note_on_c, 0, 53, 0
2, 32001, Note_on_c, 0, 41, 0
2, 32056, Note_on_c, 0, 89, 0
2, 32064, Note_on_c, 0, 87, 80
2, 32064, Note_on_c, 0, 99, 80
2, 32065, Note_on_c, 0, 101, 0
2, 32098, Note_on_c, 0, 88, 80
2, 32098, Note_on_c, 0, 100, 80
2, 32102, Note_on_c, 0, 87, 0
2, 32102, Note_on_c, 0, 99, 0
2, 32102, Note_on_c, 0, 43, 80
2, 32102, Note_on_c, 0, 55, 80
2, 32104, Note_on_c, 0, 54, 0
2, 32106, Note_on_c, 0, 42, 0
2, 32160, Note_on_c, 0, 100, 0
2, 32162, Note_on_c, 0, 88, 0
2, 32170, Note_on_c, 0, 84, 80
2, 32170, Note_on_c, 0, 96, 80
2, 32205, Note_on_c, 0, 94, 80
2, 32207, Note_on_c, 0, 82, 80
2, 32208, Note_on_c, 0, 96, 0
2, 32208, Note_on_c, 0, 84, 0
2, 32208, Note_on_c, 0, 42, 80
2, 32208, Note_on_c, 0, 54, 80
2, 32210, Note_on_c, 0, 55, 0
2, 32212, Note_on_c, 0, 43, 0
2, 32265, Note_on_c, 0, 94, 0
2, 32267, Note_on_c, 0, 82, 0
2, 32273, Note_on_c, 0, 93, 80
2, 32275, Note_on_c, 0, 81, 80
2, 32309, Note_on_c, 0, 91, 80
2, 32311, Note_on_c, 0, 79, 80
2, 32313, Note_on_c, 0, 81, 0
2, 32313, Note_on_c, 0, 93, 0
2, 32313, Note_on_c, 0, 43, 80
2, 32313, Note_on_c, 0, 53, 80
2, 32315, Note_on_c, 0, 54, 0
2, 32317, Note_on_c, 0, 42, 0
2, 32350, Note_on_c, 0, 43, 0
2, 32372, Note_on_c, 0, 79, 0
2, 32372, Note_on_c, 0, 91, 0
2, 32379, Note_on_c, 0, 75, 80
2, 32379, Note_on_c, 0, 87, 80
2, 32414, Note_on_c, 0, 76, 80
2, 32414, Note_on_c, 0, 88, 80
2, 32416, Note_on_c, 0, 55, 80
2, 32416, Note_on_c, 0, 59, 80
2, 32416, Note_on_c, 0, 65, 80
2, 32418, Note_on_c, 0, 87, 0
2, 32418, Note_on_c, 0, 75, 0
2, 32442, Note_on_c, 0, 59, 0
2, 32442, Note_on_c, 0, 65, 0
2, 32442, Note_on_c, 0, 55, 0
2, 32474, Note_on_c, 0, 88, 0
2, 32474, Note_on_c, 0, 76, 0
2, 32480, Note_on_c, 0, 79, 80
2, 32480, Note_on_c, 0, 91, 80
2, 32517, Note_on_c, 0, 74, 80
2, 32517, Note_on_c, 0, 86, 80
2, 32519, Note_on_c, 0, 91, 0
2, 32519, Note_on_c, 0, 52, 80
2, 32520, Note_on_c, 0, 79, 0
2, 32520, Note_on_c, 0, 36, 80
2, 32522, Note_on_c, 0, 53, 0
2, 32559, Note_on_c, 0, 36, 0
2, 32577, Note_on_c, 0, 86, 0
2, 32579, Note_on_c, 0, 74, 0
2, 32585, Note_on_c, 0, 84, 80
2, 32587, Note_on_c, 0, 72, 80
2, 32621, Note_on_c, 0, 81, 80
2, 32623, Note_on_c, 0, 84, 0
2, 32623, Note_on_c, 0, 55, 80
2, 32623, Note_on_c, 0, 57, 80
2, 32623, Note_on_c, 0, 60, 80
2, 32623, Note_on_c, 0, 64, 80
2, 32625, Note_on_c, 0, 72, 0
2, 32649, Note_on_c, 0, 60, 0
2, 32649, Note_on_c, 0, 57, 0
2, 32649, Note_on_c, 0, 55, 0
2, 32649, Note_on_c, 0, 64, 0
2, 32682, Note_on_c, 0, 81, 0
2, 32688, Note_on_c, 0, 79, 80
2, 32724, Note_on_c, 0, 72, 80
2, 32724, Note_on_c, 0, 84, 80
2, 32726, Note_on_c, 0, 40, 80
2, 32726, Note_on_c, 0, 55, 80
2, 32728, Note_on_c, 0, 79, 0
2, 32730, Note_on_c, 0, 52, 0
2, 32750, Note_on_c, 0, 84, 0
2, 32752, Note_on_c, 0, 72, 0
2, 32766, Note_on_c, 0, 40, 0
2, 32793, Note_on_c, 0, 72, 80
2, 32793, Note_on_c, 0, 84, 80
2, 32826, Note_on_c, 0, 81, 80
2, 32830, Note_on_c, 0, 38, 80
2, 32830, Note_on_c, 0, 53, 80
2, 32832, Note_on_c, 0, 84, 0
2, 32832, Note_on_c, 0, 72, 0
2, 32833, Note_on_c, 0, 55, 0
2, 32866, Note_on_c, 0, 38, 0
2, 32893, Note_on_c, 0, 81, 0
2, 32895, Note_on_c, 0, 79, 80
2, 32929, Note_on_c, 0, 52, 80
2, 32929, Note_on_c, 0, 69, 80
2, 32929, Note_on_c, 0, 76, 80
2, 32929, Note_on_c, 0, 84, 80
2, 32931, Note_on_c, 0, 36, 80
2, 32937, Note_on_c, 0, 53, 0
2, 32939, Note_on_c, 0, 79, 0
2, 32957, Note_on_c, 0, 69, 0
2, 32957, Note_on_c, 0, 84, 0
2, 32961, Note_on_c, 0, 76, 0
2, 32974, Note_on_c, 0, 36, 0
2, 33004, Note_on_c, 0, 69, 80
2, 33004, Note_on_c, 0, 76, 80
2, 33004, Note_on_c, 0, 84, 80
2, 33043, Note_on_c, 0, 55, 80
2, 33043, Note_on_c, 0, 57, 80
2, 33043, Note_on_c, 0, 60, 80
2, 33043, Note_on_c, 0, 64, 80
2, 33067, Note_on_c, 0, 84, 0
2, 33067, Note_on_c, 0, 69, 0
2, 33069, Note_on_c, 0, 57, 0
2, 33069, Note_on_c, 0, 76, 0
2, 33069, Note_on_c, 0, 55, 0
2, 33069, Note_on_c, 0, 64, 0
2, 33069, Note_on_c, 0, 60, 0
2, 33109, Note_on_c, 0, 88, 80
2, 33111, Note_on_c, 0, 72, 80
2, 33111, Note_on_c, 0, 81, 80
2, 33151, Control_c, 0, 64, 127
2, 33151, Note_on_c, 0, 31, 80
2, 33192, Note_on_c, 0, 31, 0
2, 33202, Control_c, 0, 64, 0
2, 33261, Note_on_c, 0, 55, 80
2, 33261, Note_on_c, 0, 57, 80
2, 33261, Note_on_c, 0, 60, 80
2, 33261, Note_on_c, 0, 64, 80
2, 33285, Note_on_c, 0, 64, 0
2, 33285, Note_on_c, 0, 60, 0
2, 33287, Note_on_c, 0, 55, 0
2, 33287, Note_on_c, 0, 57, 0
2, 33321, Note_on_c, 0, 81, 0
2, 33321, Note_on_c, 0, 72, 0
2, 33321, Note_on_c, 0, 88, 0
2, 33323, Note_on_c, 0, 52, 0
2, 33331, Note_on_c, 0, 43, 80
2, 33365, Note_on_c, 0, 94, 80
2, 33365, Note_on_c, 0, 99, 80
2, 33367, Note_on_c, 0, 52, 80
2, 33367, Note_on_c, 0, 58, 80
2, 33367, Note_on_c, 0, 88, 80
2, 33371, Note_on_c, 0, 43, 0
2, 33428, Note_on_c, 0, 99, 0
2, 33428, Note_on_c, 0, 94, 0
2, 33428, Note_on_c, 0, 88, 0
2, 33435, Note_on_c, 0, 96, 80
2, 33472, Note_on_c, 0, 98, 80
2, 33474, Note_on_c, 0, 88, 80
2, 33474, Note_on_c, 0, 94, 80
2, 33476, Note_on_c, 0, 96, 0
2, 33476, Note_on_c, 0, 60, 80
2, 33476, Note_on_c, 0, 64, 80
2, 33476, Note_on_c, 0, 67, 80
2, 33476, Note_on_c, 0, 70, 80
2, 33500, Note_on_c, 0, 70, 0
2, 33500, Note_on_c, 0, 67, 0
2, 33500, Note_on_c, 0, 64, 0
2, 33500, Note_on_c, 0, 60, 0
2, 33532, Note_on_c, 0, 94, 0
2, 33532, Note_on_c, 0, 98, 0
2, 33532, Note_on_c, 0, 88, 0
2, 33540, Note_on_c, 0, 96, 80
2, 33544, Note_on_c, 0, 42, 80
2, 33575, Note_on_c, 0, 93, 80
2, 33575, Note_on_c, 0, 98, 80
2, 33576, Note_on_c, 0, 87, 80
2, 33578, Note_on_c, 0, 96, 0
2, 33578, Note_on_c, 0, 51, 80
2, 33578, Note_on_c, 0, 57, 80
2, 33580, Note_on_c, 0, 58, 0
2, 33582, Note_on_c, 0, 42, 0
2, 33582, Note_on_c, 0, 52, 0
2, 33600, Note_on_c, 0, 98, 0
2, 33600, Note_on_c, 0, 93, 0
2, 33600, Note_on_c, 0, 87, 0
2, 33646, Note_on_c, 0, 99, 80
2, 33648, Note_on_c, 0, 88, 80
2, 33648, Note_on_c, 0, 94, 80
2, 33649, Note_on_c, 0, 43, 80
2, 33686, Note_on_c, 0, 52, 80
2, 33686, Note_on_c, 0, 58, 80
2, 33688, Note_on_c, 0, 57, 0
2, 33688, Note_on_c, 0, 51, 0
2, 33700, Note_on_c, 0, 43, 0
2, 33743, Note_on_c, 0, 88, 0
2, 33743, Note_on_c, 0, 94, 0
2, 33743, Note_on_c, 0, 99, 0
2, 33744, Note_on_c, 0, 58, 0
2, 33746, Note_on_c, 0, 52, 0
2, 33750, Note_on_c, 0, 96, 80
2, 33785, Note_on_c, 0, 88, 80
2, 33785, Note_on_c, 0, 94, 80
2, 33785, Note_on_c, 0, 98, 80
2, 33789, Note_on_c, 0, 96, 0
2, 33789, Note_on_c, 0, 58, 80
2, 33789, Note_on_c, 0, 60, 80
2, 33789, Note_on_c, 0, 64, 80
2, 33816, Note_on_c, 0, 64, 0
2, 33816, Note_on_c, 0, 58, 0
2, 33816, Note_on_c, 0, 60, 0
2, 33848, Note_on_c, 0, 94, 0
2, 33848, Note_on_c, 0, 98, 0
2, 33859, Note_on_c, 0, 93, 80
2, 33859, Note_on_c, 0, 96, 80
2, 33893, Note_on_c, 0, 94, 80
2, 33893, Note_on_c, 0, 98, 80
2, 33895, Note_on_c, 0, 96, 0
2, 33895, Note_on_c, 0, 93, 0
2, 33897, Note_on_c, 0, 36, 80
2, 33919, Note_on_c, 0, 98, 0
2, 33919, Note_on_c, 0, 94, 0
2, 33921, Note_on_c, 0, 88, 0
2, 33937, Note_on_c, 0, 36, 0
2, 33964, Note_on_c, 0, 88, 80
2, 33964, Note_on_c, 0, 93, 80
2, 33964, Note_on_c, 0, 96, 80
2, 33972, Control_c, 0, 64, 127
2, 34005, Note_on_c, 0, 36, 80
2, 34029, Note_on_c, 0, 88, 0
2, 34043, Note_on_c, 0, 36, 0
2, 34056, Control_c, 0, 64, 0
2, 34066, Note_on_c, 0, 96, 0
2, 34066, Note_on_c, 0, 93, 0
2, 34074, Note_on_c, 0, 88, 80
2, 34074, Note_on_c, 0, 91, 80
2, 34074, Note_on_c, 0, 94, 80
2, 34112, Note_on_c, 0, 58, 80
2, 34112, Note_on_c, 0, 60, 80
2, 34112, Note_on_c, 0, 64, 80
2, 34139, Note_on_c, 0, 64, 0
2, 34139, Note_on_c, 0, 58, 0
2, 34139, Note_on_c, 0, 60, 0
2, 34172, Note_on_c, 0, 88, 0
2, 34172, Note_on_c, 0, 94, 0
2, 34172, Note_on_c, 0, 91, 0
2, 34184, Note_on_c, 0, 41, 80
2, 34217, Note_on_c, 0, 84, 80
2, 34217, Note_on_c, 0, 91, 80
2, 34217, Note_on_c, 0, 96, 80
2, 34219, Note_on_c, 0, 57, 80
2, 34221, Note_on_c, 0, 48, 80
2, 34223, Note_on_c, 0, 41, 0
2, 34281, Note_on_c, 0, 57, 0
2, 34281, Note_on_c, 0, 96, 0
2, 34281, Note_on_c, 0, 84, 0
2, 34281, Note_on_c, 0, 91, 0
2, 34283, Note_on_c, 0, 48, 0
2, 34289, Note_on_c, 0, 89, 80
2, 34327, Note_on_c, 0, 65, 80
2, 34327, Note_on_c, 0, 86, 80
2, 34329, Note_on_c, 0, 89, 0
2, 34329, Note_on_c, 0, 57, 80
2, 34329, Note_on_c, 0, 60, 80
2, 34329, Note_on_c, 0, 62, 80
2, 34353, Note_on_c, 0, 62, 0
2, 34353, Note_on_c, 0, 57, 0
2, 34353, Note_on_c, 0, 60, 0
2, 34353, Note_on_c, 0, 65, 0
2, 34377, Note_on_c, 0, 86, 0
2, 34401, Control_c, 0, 64, 127
2, 34432, Note_on_c, 0, 92, 80
2, 34432, Note_on_c, 0, 96, 80
2, 34432, Note_on_c, 0, 84, 80
2, 34434, Note_on_c, 0, 36, 80
2, 34472, Note_on_c, 0, 36, 0
2, 34485, Control_c, 0, 64, 0
2, 34490, Note_on_c, 0, 92, 0
2, 34490, Note_on_c, 0, 96, 0
2, 34490, Note_on_c, 0, 84, 0
2, 34498, Note_on_c, 0, 88, 80
2, 34535, Note_on_c, 0, 86, 80
2, 34536, Note_on_c, 0, 88, 0
2, 34536, Note_on_c, 0, 58, 80
2, 34536, Note_on_c, 0, 60, 80
2, 34536, Note_on_c, 0, 64, 80
2, 34560, Note_on_c, 0, 60, 0
2, 34562, Note_on_c, 0, 64, 0
2, 34562, Note_on_c, 0, 58, 0
2, 34595, Note_on_c, 0, 86, 0
2, 34640, Note_on_c, 0, 84, 80
2, 34640, Note_on_c, 0, 91, 80
2, 34640, Note_on_c, 0, 96, 80
2, 34642, Note_on_c, 0, 57, 80
2, 34644, Note_on_c, 0, 41, 80
2, 34682, Note_on_c, 0, 41, 0
2, 34701, Note_on_c, 0, 84, 0
2, 34701, Note_on_c, 0, 96, 0
2, 34701, Note_on_c, 0, 91, 0
2, 34711, Note_on_c, 0, 85, 80
2, 34711, Note_on_c, 0, 92, 80
2, 34711, Note_on_c, 0, 97, 80
2, 34744, Note_on_c, 0, 86, 80
2, 34744, Note_on_c, 0, 93, 80
2, 34744, Note_on_c, 0, 98, 80
2, 34746, Note_on_c, 0, 58, 80
2, 34748, Note_on_c, 0, 97, 0
2, 34748, Note_on_c, 0, 92, 0
2, 34748, Note_on_c, 0, 85, 0
2, 34748, Note_on_c, 0, 43, 80
2, 34750, Note_on_c, 0, 57, 0
2, 34782, Note_on_c, 0, 43, 0
2, 34802, Note_on_c, 0, 86, 0
2, 34802, Note_on_c, 0, 93, 0
2, 34802, Note_on_c, 0, 98, 0
2, 34810, Note_on_c, 0, 87, 80
2, 34810, Note_on_c, 0, 92, 80
2, 34812, Note_on_c, 0, 80, 80
2, 34847, Note_on_c, 0, 44, 80
2, 34847, Note_on_c, 0, 59, 80
2, 34847, Note_on_c, 0, 81, 80
2, 34847, Note_on_c, 0, 88, 80
2, 34847, Note_on_c, 0, 93, 80
2, 34848, Note_on_c, 0, 80, 0
2, 34848, Note_on_c, 0, 92, 0
2, 34848, Note_on_c, 0, 87, 0
2, 34850, Note_on_c, 0, 58, 0
2, 34885, Note_on_c, 0, 44, 0
2, 34905, Note_on_c, 0, 93, 0
2, 34907, Note_on_c, 0, 81, 0
2, 34907, Note_on_c, 0, 88, 0
2, 34915, Note_on_c, 0, 77, 80
2, 34915, Note_on_c, 0, 84, 80
2, 34915, Note_on_c, 0, 89, 80
2, 34951, Note_on_c, 0, 45, 80
2, 34951, Note_on_c, 0, 60, 80
2, 34951, Note_on_c, 0, 74, 80
2, 34951, Note_on_c, 0, 81, 80
2, 34951, Note_on_c, 0, 86, 80
2, 34953, Note_on_c, 0, 89, 0
2, 34953, Note_on_c, 0, 84, 0
2, 34953, Note_on_c, 0, 77, 0
2, 34955, Note_on_c, 0, 59, 0
2, 34992, Note_on_c, 0, 45, 0
2, 35012, Note_on_c, 0, 86, 0
2, 35012, Note_on_c, 0, 81, 0
2, 35014, Note_on_c, 0, 60, 0
2, 35014, Note_on_c, 0, 74, 0
2, 35021, Note_on_c, 0, 41, 80
2, 35056, Note_on_c, 0, 75, 80
2, 35056, Note_on_c, 0, 81, 80
2, 35056, Note_on_c, 0, 87, 80
2, 35058, Note_on_c, 0, 51, 80
2, 35058, Note_on_c, 0, 57, 80
2, 35062, Note_on_c, 0, 41, 0
2, 35116, Note_on_c, 0, 87, 0
2, 35116, Note_on_c, 0, 81, 0
2, 35118, Note_on_c, 0, 75, 0
2, 35118, Note_on_c, 0, 51, 0
2, 35118, Note_on_c, 0, 57, 0
2, 35126, Note_on_c, 0, 84, 80
2, 35160, Note_on_c, 0, 74, 80
2, 35160, Note_on_c, 0, 81, 80
2, 35160, Note_on_c, 0, 86, 80
2, 35162, Note_on_c, 0, 57, 80
2, 35162, Note_on_c, 0, 60, 80
2, 35162, Note_on_c, 0, 63, 80
2, 35162, Note_on_c, 0, 65, 80
2, 35164, Note_on_c, 0, 84, 0
2, 35186, Note_on_c, 0, 86, 0
2, 35186, Note_on_c, 0, 81, 0
2, 35188, Note_on_c, 0, 60, 0
2, 35188, Note_on_c, 0, 57, 0
2, 35188, Note_on_c, 0, 65, 0
2, 35188, Note_on_c, 0, 63, 0
2, 35188, Note_on_c, 0, 74, 0
2, 35231, Note_on_c, 0, 72, 80
2, 35231, Note_on_c, 0, 79, 80
2, 35231, Note_on_c, 0, 84, 80
2, 35234, Control_c, 0, 64, 127
2, 35267, Note_on_c, 0, 36, 80
2, 35281, Control_c, 0, 64, 0
2, 35292, Note_on_c, 0, 84, 0
2, 35292, Note_on_c, 0, 72, 0
2, 35292, Note_on_c, 0, 79, 0
2, 35306, Note_on_c, 0, 36, 0
2, 35337, Note_on_c, 0, 76, 80
2, 35337, Note_on_c, 0, 81, 80
2, 35339, Note_on_c, 0, 69, 80
2, 35374, Note_on_c, 0, 52, 80
2, 35374, Note_on_c, 0, 55, 80
2, 35374, Note_on_c, 0, 58, 80
2, 35374, Note_on_c, 0, 60, 80
2, 35400, Note_on_c, 0, 60, 0
2, 35400, Note_on_c, 0, 55, 0
2, 35400, Note_on_c, 0, 52, 0
2, 35400, Note_on_c, 0, 58, 0
2, 35433, Note_on_c, 0, 76, 0
2, 35433, Note_on_c, 0, 69, 0
2, 35433, Note_on_c, 0, 81, 0
2, 35475, Note_on_c, 0, 87, 80
2, 35477, Note_on_c, 0, 75, 80
2, 35477, Note_on_c, 0, 81, 80
2, 35479, Note_on_c, 0, 41, 80
2, 35540, Note_on_c, 0, 81, 0
2, 35540, Note_on_c, 0, 87, 0
2, 35542, Note_on_c, 0, 75, 0
2, 35542, Note_on_c, 0, 41, 0
2, 35547, Note_on_c, 0, 84, 80
2, 35586, Note_on_c, 0, 42, 80
2, 35586, Note_on_c, 0, 74, 80
2, 35586, Note_on_c, 0, 81, 80
2, 35586, Note_on_c, 0, 86, 80
2, 35588, Note_on_c, 0, 84, 0
2, 35612, Note_on_c, 0, 81, 0
2, 35612, Note_on_c, 0, 86, 0
2, 35612, Note_on_c, 0, 74, 0
2, 35650, Note_on_c, 0, 42, 0
2, 35654, Note_on_c, 0, 78, 80
2, 35656, Note_on_c, 0, 72, 80
2, 35656, Note_on_c, 0, 84, 80
2, 35690, Note_on_c, 0, 57, 80
2, 35690, Note_on_c, 0, 60, 80
2, 35690, Note_on_c, 0, 63, 80
2, 35690, Note_on_c, 0, 66, 80
2, 35717, Note_on_c, 0, 66, 0
2, 35717, Note_on_c, 0, 60, 0
2, 35717, Note_on_c, 0, 72, 0
2, 35717, Note_on_c, 0, 84, 0
2, 35717, Note_on_c, 0, 78, 0
2, 35717, Note_on_c, 0, 63, 0
2, 35717, Note_on_c, 0, 57, 0
2, 35764, Note_on_c, 0, 72, 80
2, 35764, Note_on_c, 0, 75, 80
2, 35764, Note_on_c, 0, 78, 80
2, 35764, Note_on_c, 0, 81, 80
2, 35801, Note_on_c, 0, 42, 80
2, 35861, Note_on_c, 0, 81, 0
2, 35863, Note_on_c, 0, 78, 0
2, 35863, Note_on_c, 0, 72, 0
2, 35863, Note_on_c, 0, 75, 0
2, 35871, Note_on_c, 0, 76, 80
2, 35905, Note_on_c, 0, 79, 80
2, 35907, Note_on_c, 0, 43, 80
2, 35907, Note_on_c, 0, 67, 80
2, 35907, Note_on_c, 0, 72, 80
2, 35909, Note_on_c, 0, 42, 0
2, 35933, Note_on_c, 0, 79, 0
2, 35933, Note_on_c, 0, 43, 0
2, 35933, Note_on_c, 0, 76, 0
2, 35933, Note_on_c, 0, 72, 0
2, 35933, Note_on_c, 0, 67, 0
2, 35978, Note_on_c, 0, 67, 80
2, 35978, Note_on_c, 0, 72, 80
2, 35978, Note_on_c, 0, 76, 80
2, 35978, Note_on_c, 0, 79, 80
2, 36013, Note_on_c, 0, 58, 80
2, 36015, Note_on_c, 0, 48, 80
2, 36015, Note_on_c, 0, 64, 80
2, 36042, Note_on_c, 0, 76, 0
2, 36042, Note_on_c, 0, 67, 0
2, 36042, Note_on_c, 0, 72, 0
2, 36052, Note_on_c, 0, 79, 0
2, 36085, Note_on_c, 0, 67, 80
2, 36085, Note_on_c, 0, 71, 80
2, 36085, Note_on_c, 0, 75, 80
2, 36085, Note_on_c, 0, 79, 80
2, 36120, Note_on_c, 0, 57, 80
2, 36120, Note_on_c, 0, 63, 80
2, 36121, Note_on_c, 0, 47, 80
2, 36123, Note_on_c, 0, 64, 0
2, 36123, Note_on_c, 0, 58, 0
2, 36123, Note_on_c, 0, 48, 0
2, 36182, Note_on_c, 0, 67, 0
2, 36182, Note_on_c, 0, 79, 0
2, 36182, Note_on_c, 0, 71, 0
2, 36182, Note_on_c, 0, 75, 0
2, 36224, Note_on_c, 0, 74, 80
2, 36224, Note_on_c, 0, 76, 80
2, 36226, Note_on_c, 0, 46, 80
2, 36226, Note_on_c, 0, 56, 80
2, 36226, Note_on_c, 0, 62, 80
2, 36226, Note_on_c, 0, 64, 80
2, 36226, Note_on_c, 0, 68, 80
2, 36230, Note_on_c, 0, 47, 0
2, 36230, Note_on_c, 0, 63, 0
2, 36230, Note_on_c, 0, 57, 0
2, 36288, Note_on_c, 0, 76, 0
2, 36288, Note_on_c, 0, 64, 0
2, 36288, Note_on_c, 0, 68, 0
2, 36288, Note_on_c, 0, 74, 0
2, 36296, Note_on_c, 0, 67, 80
2, 36296, Note_on_c, 0, 79, 80
2, 36331, Note_on_c, 0, 61, 80
2, 36331, Note_on_c, 0, 69, 80
2, 36331, Note_on_c, 0, 73, 80
2, 36331, Note_on_c, 0, 76, 80
2, 36331, Note_on_c, 0, 81, 80
2, 36333, Note_on_c, 0, 45, 80
2, 36333, Note_on_c, 0, 55, 80
2, 36335, Note_on_c, 0, 79, 0
2, 36335, Note_on_c, 0, 67, 0
2, 36335, Note_on_c, 0, 46, 0
2, 36335, Note_on_c, 0, 62, 0
2, 36335, Note_on_c, 0, 56, 0
2, 36393, Note_on_c, 0, 73, 0
2, 36393, Note_on_c, 0, 76, 0
2, 36393, Note_on_c, 0, 81, 0
2, 36393, Note_on_c, 0, 69, 0
2, 36401, Note_on_c, 0, 70, 80
2, 36401, Note_on_c, 0, 82, 80
2, 36437, Note_on_c, 0, 43, 80
2, 36437, Note_on_c, 0, 59, 80
2, 36437, Note_on_c, 0, 67, 80
2, 36437, Note_on_c, 0, 79, 80
2, 36439, Note_on_c, 0, 82, 0
2, 36439, Note_on_c, 0, 70, 0
2, 36439, Note_on_c, 0, 55, 0
2, 36439, Note_on_c, 0, 61, 0
2, 36439, Note_on_c, 0, 45, 0
2, 36472, Note_on_c, 0, 67, 0
2, 36472, Note_on_c, 0, 79, 0
2, 36472, Note_on_c, 0, 43, 0
2, 36506, Note_on_c, 0, 69, 80
2, 36506, Note_on_c, 0, 71, 80
2, 36506, Note_on_c, 0, 81, 80
2, 36543, Note_on_c, 0, 57, 80
2, 36545, Note_on_c, 0, 42, 80
2, 36547, Note_on_c, 0, 59, 0
2, 36581, Note_on_c, 0, 42, 0
2, 36605, Note_on_c, 0, 71, 0
2, 36616, Note_on_c, 0, 74, 80
2, 36650, Note_on_c, 0, 40, 80
2, 36650, Note_on_c, 0, 55, 80
2, 36650, Note_on_c, 0, 73, 80
2, 36652, Note_on_c, 0, 57, 0
2, 36654, Note_on_c, 0, 74, 0
2, 36687, Note_on_c, 0, 40, 0
2, 36709, Note_on_c, 0, 81, 0
2, 36709, Note_on_c, 0, 69, 0
2, 36709, Note_on_c, 0, 73, 0
2, 36754, Note_on_c, 0, 38, 80
2, 36754, Note_on_c, 0, 54, 80
2, 36756, Note_on_c, 0, 69, 80
2, 36756, Note_on_c, 0, 72, 80
2, 36756, Note_on_c, 0, 78, 80
2, 36756, Note_on_c, 0, 81, 80
2, 36758, Note_on_c, 0, 55, 0
2, 36782, Note_on_c, 0, 78, 0
2, 36782, Note_on_c, 0, 72, 0
2, 36782, Note_on_c, 0, 69, 0
2, 36782, Note_on_c, 0, 81, 0
2, 36794, Note_on_c, 0, 38, 0
2, 36829, Note_on_c, 0, 69, 80
2, 36829, Note_on_c, 0, 72, 80
2, 36829, Note_on_c, 0, 78, 80
2, 36829, Note_on_c, 0, 81, 80
2, 36864, Note_on_c, 0, 57, 80
2, 36864, Note_on_c, 0, 60, 80
2, 36864, Note_on_c, 0, 62, 80
2, 36864, Note_on_c, 0, 66, 80
2, 36890, Note_on_c, 0, 66, 0
2, 36890, Note_on_c, 0, 78, 0
2, 36890, Note_on_c, 0, 62, 0
2, 36890, Note_on_c, 0, 81, 0
2, 36890, Note_on_c, 0, 69, 0
2, 36890, Note_on_c, 0, 72, 0
2, 36890, Note_on_c, 0, 60, 0
2, 36890, Note_on_c, 0, 57, 0
2, 36937, Note_on_c, 0, 69, 80
2, 36937, Note_on_c, 0, 72, 80
2, 36937, Note_on_c, 0, 78, 80
2, 36937, Note_on_c, 0, 81, 80
2, 36972, Control_c, 0, 64, 127
2, 36972, Note_on_c, 0, 38, 80
2, 36972, Note_on_c, 0, 50, 80
2, 36974, Note_on_c, 0, 54, 0
2, 37021, Control_c, 0, 64, 0
2, 37035, Note_on_c, 0, 38, 0
2, 37035, Note_on_c, 0, 50, 0
2, 37043, Note_on_c, 0, 40, 80
2, 37043, Note_on_c, 0, 52, 80
2, 37078, Note_on_c, 0, 38, 80
2, 37078, Note_on_c, 0, 50, 80
2, 37080, Note_on_c, 0, 52, 0
2, 37080, Note_on_c, 0, 40, 0
2, 37140, Note_on_c, 0, 50, 0
2, 37140, Note_on_c, 0, 38, 0
2, 37146, Note_on_c, 0, 36, 80
2, 37146, Note_on_c, 0, 48, 80
2, 37184, Note_on_c, 0, 35, 80
2, 37184, Note_on_c, 0, 47, 80
2, 37186, Note_on_c, 0, 48, 0
2, 37186, Note_on_c, 0, 81, 0
2, 37186, Note_on_c, 0, 78, 0
2, 37186, Note_on_c, 0, 72, 0
2, 37186, Note_on_c, 0, 69, 0
2, 37186, Note_on_c, 0, 36, 0
2, 37221, Note_on_c, 0, 47, 0
2, 37221, Note_on_c, 0, 35, 0
2, 37253, Note_on_c, 0, 77, 80
2, 37255, Note_on_c, 0, 81, 80
2, 37290, Note_on_c, 0, 55, 80
2, 37290, Note_on_c, 0, 59, 80
2, 37290, Note_on_c, 0, 62, 80
2, 37290, Note_on_c, 0, 65, 80
2, 37290, Note_on_c, 0, 74, 80
2, 37312, Note_on_c, 0, 65, 0
2, 37312, Note_on_c, 0, 55, 0
2, 37312, Note_on_c, 0, 59, 0
2, 37314, Note_on_c, 0, 62, 0
2, 37348, Note_on_c, 0, 77, 0
2, 37348, Note_on_c, 0, 81, 0
2, 37348, Note_on_c, 0, 74, 0
2, 37354, Note_on_c, 0, 76, 80
2, 37354, Note_on_c, 0, 79, 80
2, 37391, Note_on_c, 0, 31, 80
2, 37391, Note_on_c, 0, 77, 80
2, 37391, Note_on_c, 0, 81, 80
2, 37394, Note_on_c, 0, 79, 0
2, 37394, Note_on_c, 0, 76, 0
2, 37429, Note_on_c, 0, 31, 0
2, 37453, Note_on_c, 0, 77, 0
2, 37453, Note_on_c, 0, 81, 0
2, 37461, Note_on_c, 0, 74, 80
2, 37461, Note_on_c, 0, 79, 80
2, 37499, Note_on_c, 0, 55, 80
2, 37499, Note_on_c, 0, 59, 80
2, 37499, Note_on_c, 0, 63, 80
2, 37499, Note_on_c, 0, 65, 80
2, 37499, Note_on_c, 0, 71, 80
2, 37499, Note_on_c, 0, 75, 80
2, 37499, Note_on_c, 0, 81, 80
2, 37501, Note_on_c, 0, 79, 0
2, 37501, Note_on_c, 0, 74, 0
2, 37523, Note_on_c, 0, 59, 0
2, 37523, Note_on_c, 0, 65, 0
2, 37523, Note_on_c, 0, 55, 0
2, 37523, Note_on_c, 0, 63, 0
2, 37523, Note_on_c, 0, 71, 0
2, 37525, Note_on_c, 0, 81, 0
2, 37525, Note_on_c, 0, 75, 0
2, 37567, Note_on_c, 0, 72, 80
2, 37567, Note_on_c, 0, 76, 80
2, 37567, Note_on_c, 0, 79, 80
2, 37567, Note_on_c, 0, 84, 80
2, 37600, Note_on_c, 0, 36, 80
2, 37600, Note_on_c, 0, 43, 80
2, 37600, Note_on_c, 0, 52, 80
2, 37663, Note_on_c, 0, 43, 0
2, 37663, Note_on_c, 0, 36, 0
2, 37665, Note_on_c, 0, 52, 0
2, 37707, Note_on_c, 0, 55, 80
2, 37707, Note_on_c, 0, 57, 80
2, 37709, Note_on_c, 0, 60, 80
2, 37709, Note_on_c, 0, 64, 80
2, 37709, Note_on_c, 0, 74, 80
2, 37711, Note_on_c, 0, 79, 0
2, 37711, Note_on_c, 0, 84, 0
2, 37711, Note_on_c, 0, 72, 0
2, 37713, Note_on_c, 0, 76, 0
2, 37731, Note_on_c, 0, 55, 0
2, 37733, Note_on_c, 0, 60, 0
2, 37733, Note_on_c, 0, 64, 0
2, 37733, Note_on_c, 0, 57, 0
2, 37768, Note_on_c, 0, 74, 0
2, 37776, Note_on_c, 0, 75, 80
2, 37814, Control_c, 0, 64, 127
2, 37814, Note_on_c, 0, 31, 80
2, 37816, Note_on_c, 0, 76, 80
2, 37818, Note_on_c, 0, 75, 0
2, 37852, Note_on_c, 0, 31, 0
2, 37863, Control_c, 0, 64, 0
2, 37867, Note_on_c, 0, 76, 0
2, 37889, Note_on_c, 0, 79, 80
2, 37923, Note_on_c, 0, 55, 80
2, 37925, Note_on_c, 0, 57, 80
2, 37925, Note_on_c, 0, 60, 80
2, 37925, Note_on_c, 0, 64, 80
2, 37925, Note_on_c, 0, 76, 80
2, 37925, Note_on_c, 0, 81, 80
2, 37927, Note_on_c, 0, 79, 0
2, 37949, Note_on_c, 0, 60, 0
2, 37949, Note_on_c, 0, 55, 0
2, 37951, Note_on_c, 0, 64, 0
2, 37951, Note_on_c, 0, 57, 0
2, 37986, Note_on_c, 0, 81, 0
2, 37986, Note_on_c, 0, 76, 0
2, 37993, Note_on_c, 0, 79, 80
2, 38028, Note_on_c, 0, 44, 80
2, 38030, Note_on_c, 0, 60, 80
2, 38030, Note_on_c, 0, 72, 80
2, 38030, Note_on_c, 0, 75, 80
2, 38030, Note_on_c, 0, 78, 80
2, 38030, Note_on_c, 0, 80, 80
2, 38030, Note_on_c, 0, 84, 80
2, 38032, Note_on_c, 0, 79, 0
2, 38056, Note_on_c, 0, 84, 0
2, 38056, Note_on_c, 0, 78, 0
2, 38056, Note_on_c, 0, 75, 0
2, 38056, Note_on_c, 0, 72, 0
2, 38056, Note_on_c, 0, 80, 0
2, 38066, Note_on_c, 0, 44, 0
2, 38101, Note_on_c, 0, 72, 80
2, 38101, Note_on_c, 0, 84, 80
2, 38134, Note_on_c, 0, 42, 80
2, 38136, Note_on_c, 0, 58, 80
2, 38137, Note_on_c, 0, 60, 0
2, 38161, Note_on_c, 0, 72, 0
2, 38161, Note_on_c, 0, 84, 0
2, 38184, Note_on_c, 0, 42, 0
2, 38204, Note_on_c, 0, 72, 80
2, 38204, Note_on_c, 0, 84, 80
2, 38238, Note_on_c, 0, 41, 80
2, 38238, Note_on_c, 0, 56, 80
2, 38242, Note_on_c, 0, 58, 0
2, 38277, Note_on_c, 0, 41, 0
2, 38301, Note_on_c, 0, 72, 0
2, 38303, Note_on_c, 0, 84, 0
2, 38310, Note_on_c, 0, 68, 80
2, 38310, Note_on_c, 0, 80, 80
2, 38345, Note_on_c, 0, 39, 80
2, 38347, Note_on_c, 0, 54, 80
2, 38347, Note_on_c, 0, 70, 80
2, 38347, Note_on_c, 0, 72, 80
2, 38347, Note_on_c, 0, 75, 80
2, 38347, Note_on_c, 0, 78, 80
2, 38347, Note_on_c, 0, 82, 80
2, 38349, Note_on_c, 0, 56, 0
2, 38351, Note_on_c, 0, 68, 0
2, 38351, Note_on_c, 0, 80, 0
2, 38383, Note_on_c, 0, 39, 0
2, 38410, Note_on_c, 0, 72, 0
2, 38410, Note_on_c, 0, 70, 0
2, 38410, Note_on_c, 0, 82, 0
2, 38410, Note_on_c, 0, 75, 0
2, 38410, Note_on_c, 0, 78, 0
2, 38418, Note_on_c, 0, 68, 80
2, 38418, Note_on_c, 0, 80, 80
2, 38448, Note_on_c, 0, 37, 80
2, 38452, Note_on_c, 0, 54, 0
2, 38452, Note_on_c, 0, 53, 80
2, 38452, Note_on_c, 0, 73, 80
2, 38452, Note_on_c, 0, 77, 80
2, 38452, Note_on_c, 0, 85, 80
2, 38454, Note_on_c, 0, 68, 0
2, 38454, Note_on_c, 0, 80, 0
2, 38478, Note_on_c, 0, 77, 0
2, 38478, Note_on_c, 0, 73, 0
2, 38478, Note_on_c, 0, 85, 0
2, 38515, Note_on_c, 0, 37, 0
2, 38517, Note_on_c, 0, 53, 0
2, 38524, Note_on_c, 0, 73, 80
2, 38526, Note_on_c, 0, 77, 80
2, 38526, Note_on_c, 0, 85, 80
2, 38563, Note_on_c, 0, 56, 80
2, 38563, Note_on_c, 0, 58, 80
2, 38563, Note_on_c, 0, 61, 80
2, 38563, Note_on_c, 0, 65, 80
2, 38590, Note_on_c, 0, 65, 0
2, 38590, Note_on_c, 0, 58, 0
2, 38590, Note_on_c, 0, 56, 0
2, 38590, Note_on_c, 0, 77, 0
2, 38590, Note_on_c, 0, 73, 0
2, 38590, Note_on_c, 0, 61, 0
2, 38592, Note_on_c, 0, 85, 0
2, 38634, Note_on_c, 0, 73, 80
2, 38634, Note_on_c, 0, 82, 80
2, 38634, Note_on_c, 0, 85, 80
2, 38668, Control_c, 0, 64, 127
2, 38670, Note_on_c, 0, 42, 80
2, 38715, Control_c, 0, 64, 0
2, 38732, Note_on_c, 0, 42, 0
2, 38742, Note_on_c, 0, 75, 80
2, 38779, Note_on_c, 0, 58, 80
2, 38779, Note_on_c, 0, 61, 80
2, 38779, Note_on_c, 0, 64, 80
2, 38779, Note_on_c, 0, 66, 80
2, 38779, Note_on_c, 0, 76, 80
2, 38783, Note_on_c, 0, 75, 0
2, 38805, Note_on_c, 0, 58, 0
2, 38805, Note_on_c, 0, 76, 0
2, 38805, Note_on_c, 0, 61, 0
2, 38805, Note_on_c, 0, 66, 0
2, 38805, Note_on_c, 0, 73, 0
2, 38805, Note_on_c, 0, 64, 0
2, 38807, Note_on_c, 0, 82, 0
2, 38807, Note_on_c, 0, 85, 0
2, 38849, Note_on_c, 0, 73, 80
2, 38849, Note_on_c, 0, 77, 80
2, 38849, Note_on_c, 0, 80, 80
2, 38849, Note_on_c, 0, 85, 80
2, 38885, Note_on_c, 0, 41, 80
2, 38912, Note_on_c, 0, 85, 0
2, 38912, Note_on_c, 0, 80, 0
2, 38912, Note_on_c, 0, 73, 0
2, 38912, Note_on_c, 0, 77, 0
2, 38936, Note_on_c, 0, 41, 0
2, 38956, Note_on_c, 0, 73, 80
2, 38958, Note_on_c, 0, 85, 80
2, 38993, Note_on_c, 0, 56, 80
2, 38993, Note_on_c, 0, 61, 80
2, 38993, Note_on_c, 0, 65, 80
2, 38993, Note_on_c, 0, 71, 80
2, 38993, Note_on_c, 0, 77, 80
2, 38995, Note_on_c, 0, 83, 80
2, 38997, Note_on_c, 0, 85, 0
2, 38997, Note_on_c, 0, 73, 0
2, 39019, Note_on_c, 0, 61, 0
2, 39019, Note_on_c, 0, 65, 0
2, 39019, Note_on_c, 0, 56, 0
2, 39053, Note_on_c, 0, 83, 0
2, 39053, Note_on_c, 0, 77, 0
2, 39053, Note_on_c, 0, 71, 0
2, 39059, Note_on_c, 0, 70, 80
2, 39061, Note_on_c, 0, 82, 80
2, 39094, Note_on_c, 0, 39, 80
2, 39096, Note_on_c, 0, 68, 80
2, 39096, Note_on_c, 0, 80, 80
2, 39097, Note_on_c, 0, 70, 0
2, 39099, Note_on_c, 0, 82, 0
2, 39132, Note_on_c, 0, 39, 0
2, 39154, Note_on_c, 0, 68, 0
2, 39156, Note_on_c, 0, 80, 0
2, 39164, Note_on_c, 0, 70, 80
2, 39164, Note_on_c, 0, 82, 80
2, 39198, Note_on_c, 0, 54, 80
2, 39198, Note_on_c, 0, 56, 80
2, 39198, Note_on_c, 0, 60, 80
2, 39200, Note_on_c, 0, 64, 80
2, 39200, Note_on_c, 0, 76, 80
2, 39202, Note_on_c, 0, 82, 0
2, 39202, Note_on_c, 0, 70, 0
2, 39224, Note_on_c, 0, 56, 0
2, 39224, Note_on_c, 0, 60, 0
2, 39224, Note_on_c, 0, 54, 0
2, 39257, Note_on_c, 0, 64, 0
2, 39259, Note_on_c, 0, 76, 0
2, 39264, Note_on_c, 0, 65, 80
2, 39266, Note_on_c, 0, 77, 80
2, 39299, Note_on_c, 0, 37, 80
2, 39299, Note_on_c, 0, 68, 80
2, 39299, Note_on_c, 0, 73, 80
2, 39301, Note_on_c, 0, 65, 0
2, 39301, Note_on_c, 0, 80, 80
2, 39303, Note_on_c, 0, 77, 0
2, 39327, Note_on_c, 0, 73, 0
2, 39327, Note_on_c, 0, 68, 0
2, 39327, Note_on_c, 0, 80, 0
2, 39361, Note_on_c, 0, 37, 0
2, 39369, Note_on_c, 0, 68, 80
2, 39369, Note_on_c, 0, 73, 80
2, 39371, Note_on_c, 0, 77, 80
2, 39371, Note_on_c, 0, 80, 80
2, 39408, Note_on_c, 0, 56, 80
2, 39408, Note_on_c, 0, 58, 80
2, 39408, Note_on_c, 0, 61, 80
2, 39408, Note_on_c, 0, 65, 80
2, 39434, Note_on_c, 0, 65, 0
2, 39434, Note_on_c, 0, 61, 0
2, 39434, Note_on_c, 0, 56, 0
2, 39434, Note_on_c, 0, 73, 0
2, 39434, Note_on_c, 0, 68, 0
2, 39434, Note_on_c, 0, 58, 0
2, 39436, Note_on_c, 0, 80, 0
2, 39436, Note_on_c, 0, 77, 0
2, 39477, Control_c, 0, 64, 127
2, 39479, Note_on_c, 0, 68, 80
2, 39479, Note_on_c, 0, 73, 80
2, 39480, Note_on_c, 0, 77, 80
2, 39480, Note_on_c, 0, 80, 80
2, 39515, Note_on_c, 0, 34, 80
2, 39553, Note_on_c, 0, 34, 0
2, 39564, Control_c, 0, 64, 0
2, 39566, Note_on_c, 0, 68, 0
2, 39580, Note_on_c, 0, 73, 0
2, 39580, Note_on_c, 0, 77, 0
2, 39580, Note_on_c, 0, 80, 0
2, 39588, Note_on_c, 0, 70, 80
2, 39588, Note_on_c, 0, 82, 80
2, 39624, Note_on_c, 0, 58, 80
2, 39624, Note_on_c, 0, 61, 80
2, 39624, Note_on_c, 0, 65, 80
2, 39624, Note_on_c, 0, 73, 80
2, 39624, Note_on_c, 0, 85, 80
2, 39626, Note_on_c, 0, 70, 0
2, 39628, Note_on_c, 0, 82, 0
2, 39650, Note_on_c, 0, 61, 0
2, 39650, Note_on_c, 0, 65, 0
2, 39650, Note_on_c, 0, 58, 0
2, 39672, Note_on_c, 0, 85, 0
2, 39685, Note_on_c, 0, 73, 0
2, 39693, Note_on_c, 0, 77, 80
2, 39695, Note_on_c, 0, 89, 80
2, 39731, Note_on_c, 0, 39, 80
2, 39731, Note_on_c, 0, 80, 80
2, 39731, Note_on_c, 0, 82, 80
2, 39731, Note_on_c, 0, 85, 80
2, 39733, Note_on_c, 0, 77, 0
2, 39733, Note_on_c, 0, 92, 80
2, 39735, Note_on_c, 0, 89, 0
2, 39780, Note_on_c, 0, 39, 0
2, 39794, Note_on_c, 0, 82, 0
2, 39794, Note_on_c, 0, 80, 0
2, 39794, Note_on_c, 0, 92, 0
2, 39794, Note_on_c, 0, 85, 0
2, 39800, Note_on_c, 0, 79, 80
2, 39802, Note_on_c, 0, 91, 80
2, 39839, Note_on_c, 0, 58, 80
2, 39839, Note_on_c, 0, 61, 80
2, 39839, Note_on_c, 0, 63, 80
2, 39839, Note_on_c, 0, 66, 80
2, 39839, Note_on_c, 0, 78, 80
2, 39839, Note_on_c, 0, 90, 80
2, 39840, Note_on_c, 0, 91, 0
2, 39840, Note_on_c, 0, 79, 0
2, 39861, Note_on_c, 0, 58, 0
2, 39863, Note_on_c, 0, 61, 0
2, 39863, Note_on_c, 0, 63, 0
2, 39863, Note_on_c, 0, 66, 0
2, 39897, Note_on_c, 0, 90, 0
2, 39897, Note_on_c, 0, 78, 0
2, 39903, Note_on_c, 0, 76, 80
2, 39905, Note_on_c, 0, 88, 80
2, 39937, Note_on_c, 0, 32, 80
2, 39939, Note_on_c, 0, 77, 80
2, 39939, Note_on_c, 0, 89, 80
2, 39941, Note_on_c, 0, 88, 0
2, 39941, Note_on_c, 0, 76, 0
2, 39963, Note_on_c, 0, 32, 0
2, 40002, Note_on_c, 0, 77, 0
2, 40002, Note_on_c, 0, 89, 0
2, 40009, Note_on_c, 0, 73, 80
2, 40011, Note_on_c, 0, 85, 80
2, 40046, Note_on_c, 0, 54, 80
2, 40046, Note_on_c, 0, 56, 80
2, 40046, Note_on_c, 0, 60, 80
2, 40046, Note_on_c, 0, 63, 80
2, 40046, Note_on_c, 0, 70, 80
2, 40048, Note_on_c, 0, 73, 0
2, 40048, Note_on_c, 0, 82, 80
2, 40050, Note_on_c, 0, 85, 0
2, 40070, Note_on_c, 0, 56, 0
2, 40070, Note_on_c, 0, 54, 0
2, 40070, Note_on_c, 0, 60, 0
2, 40070, Note_on_c, 0, 63, 0
2, 40106, Note_on_c, 0, 70, 0
2, 40106, Note_on_c, 0, 82, 0
2, 40110, Note_on_c, 0, 37, 80
2, 40147, Note_on_c, 0, 49, 80
2, 40147, Note_on_c, 0, 73, 80
2, 40149, Note_on_c, 0, 37, 0
2, 40149, Note_on_c, 0, 77, 80
2, 40149, Note_on_c, 0, 80, 80
2, 40149, Note_on_c, 0, 85, 80
2, 40176, Note_on_c, 0, 85, 0
2, 40176, Note_on_c, 0, 77, 0
2, 40176, Note_on_c, 0, 80, 0
2, 40176, Note_on_c, 0, 73, 0
2, 40196, Note_on_c, 0, 49, 0
2, 40218, Note_on_c, 0, 73, 80
2, 40218, Note_on_c, 0, 77, 80
2, 40218, Note_on_c, 0, 80, 80
2, 40220, Note_on_c, 0, 85, 80
2, 40252, Note_on_c, 0, 56, 80
2, 40252, Note_on_c, 0, 58, 80
2, 40252, Note_on_c, 0, 61, 80
2, 40252, Note_on_c, 0, 65, 80
2, 40276, Note_on_c, 0, 65, 0
2, 40276, Note_on_c, 0, 61, 0
2, 40276, Note_on_c, 0, 56, 0
2, 40276, Note_on_c, 0, 58, 0
2, 40278, Note_on_c, 0, 73, 0
2, 40278, Note_on_c, 0, 80, 0
2, 40278, Note_on_c, 0, 77, 0
2, 40280, Note_on_c, 0, 85, 0
2, 40317, Control_c, 0, 64, 127
2, 40320, Note_on_c, 0, 73, 80
2, 40320, Note_on_c, 0, 77, 80
2, 40320, Note_on_c, 0, 80, 80
2, 40320, Note_on_c, 0, 85, 80
2, 40355, Note_on_c, 0, 32, 80
2, 40393, Note_on_c, 0, 32, 0
2, 40404, Control_c, 0, 64, 0
2, 40426, Note_on_c, 0, 41, 80
2, 40428, Note_on_c, 0, 53, 80
2, 40463, Note_on_c, 0, 42, 80
2, 40464, Note_on_c, 0, 41, 0
2, 40464, Note_on_c, 0, 54, 80
2, 40466, Note_on_c, 0, 53, 0
2, 40523, Note_on_c, 0, 42, 0
2, 40525, Note_on_c, 0, 54, 0
2, 40531, Note_on_c, 0, 43, 80
2, 40531, Note_on_c, 0, 55, 80
2, 40567, Note_on_c, 0, 44, 80
2, 40569, Note_on_c, 0, 43, 0
2, 40569, Note_on_c, 0, 56, 80
2, 40571, Note_on_c, 0, 85, 0
2, 40571, Note_on_c, 0, 73, 0
2, 40571, Note_on_c, 0, 77, 0
2, 40571, Note_on_c, 0, 80, 0
2, 40571, Note_on_c, 0, 55, 0
2, 40606, Note_on_c, 0, 44, 0
2, 40606, Note_on_c, 0, 56, 0
2, 40664, Note_on_c, 0, 76, 80
2, 40672, Note_on_c, 0, 56, 80
2, 40672, Note_on_c, 0, 59, 80
2, 40672, Note_on_c, 0, 61, 80
2, 40672, Note_on_c, 0, 65, 80
2, 40672, Note_on_c, 0, 71, 80
2, 40672, Note_on_c, 0, 77, 80
2, 40674, Note_on_c, 0, 83, 80
2, 40676, Note_on_c, 0, 76, 0
2, 40698, Note_on_c, 0, 65, 0
2, 40698, Note_on_c, 0, 56, 0
2, 40698, Note_on_c, 0, 61, 0
2, 40698, Note_on_c, 0, 59, 0
2, 40732, Note_on_c, 0, 83, 0
2, 40732, Note_on_c, 0, 77, 0
2, 40732, Note_on_c, 0, 71, 0
2, 40738, Note_on_c, 0, 41, 80
2, 40740, Note_on_c, 0, 70, 80
2, 40740, Note_on_c, 0, 82, 80
2, 40775, Note_on_c, 0, 56, 80
2, 40775, Note_on_c, 0, 68, 80
2, 40775, Note_on_c, 0, 73, 80
2, 40776, Note_on_c, 0, 41, 0
2, 40776, Note_on_c, 0, 77, 80
2, 40776, Note_on_c, 0, 80, 80
2, 40778, Note_on_c, 0, 70, 0
2, 40778, Note_on_c, 0, 82, 0
2, 40835, Note_on_c, 0, 73, 0
2, 40835, Note_on_c, 0, 56, 0
2, 40837, Note_on_c, 0, 77, 0
2, 40837, Note_on_c, 0, 80, 0
2, 40839, Note_on_c, 0, 68, 0
2, 40843, Note_on_c, 0, 38, 80
2, 40845, Note_on_c, 0, 70, 80
2, 40845, Note_on_c, 0, 76, 80
2, 40879, Note_on_c, 0, 53, 80
2, 40879, Note_on_c, 0, 71, 80
2, 40881, Note_on_c, 0, 38, 0
2, 40881, Note_on_c, 0, 77, 80
2, 40883, Note_on_c, 0, 70, 0
2, 40885, Note_on_c, 0, 76, 0
2, 40905, Note_on_c, 0, 77, 0
2, 40905, Note_on_c, 0, 71, 0
2, 40947, Note_on_c, 0, 39, 80
2, 40949, Note_on_c, 0, 72, 80
2, 40949, Note_on_c, 0, 80, 80
2, 40984, Note_on_c, 0, 39, 0
2, 40984, Note_on_c, 0, 54, 80
2, 40988, Note_on_c, 0, 53, 0
2, 41048, Note_on_c, 0, 72, 0
2, 41056, Note_on_c, 0, 70, 80
2, 41092, Note_on_c, 0, 56, 80
2, 41092, Note_on_c, 0, 60, 80
2, 41092, Note_on_c, 0, 63, 80
2, 41092, Note_on_c, 0, 66, 80
2, 41092, Note_on_c, 0, 71, 80
2, 41094, Note_on_c, 0, 70, 0
2, 41118, Note_on_c, 0, 71, 0
2, 41118, Note_on_c, 0, 63, 0
2, 41118, Note_on_c, 0, 60, 0
2, 41118, Note_on_c, 0, 56, 0
2, 41118, Note_on_c, 0, 66, 0
2, 41165, Note_on_c, 0, 72, 80
2, 41200, Note_on_c, 0, 32, 80
2, 41238, Note_on_c, 0, 32, 0
2, 41265, Note_on_c, 0, 80, 0
2, 41265, Note_on_c, 0, 54, 0
2, 41265, Note_on_c, 0, 72, 0
2, 41273, Note_on_c, 0, 40, 80
2, 41273, Note_on_c, 0, 70, 80
2, 41273, Note_on_c, 0, 73, 80
2, 41273, Note_on_c, 0, 76, 80
2, 41273, Note_on_c, 0, 79, 80
2, 41309, Note_on_c, 0, 55, 80
2, 41311, Note_on_c, 0, 40, 0
2, 41372, Note_on_c, 0, 79, 0
2, 41372, Note_on_c, 0, 70, 0
2, 41372, Note_on_c, 0, 73, 0
2, 41374, Note_on_c, 0, 76, 0
2, 41379, Note_on_c, 0, 39, 80
2, 41379, Note_on_c, 0, 68, 80
2, 41379, Note_on_c, 0, 72, 80
2, 41381, Note_on_c, 0, 75, 80
2, 41381, Note_on_c, 0, 78, 80
2, 41418, Note_on_c, 0, 39, 0
2, 41418, Note_on_c, 0, 54, 80
2, 41420, Note_on_c, 0, 55, 0
2, 41489, Note_on_c, 0, 80, 80
2, 41523, Note_on_c, 0, 56, 80
2, 41523, Note_on_c, 0, 60, 80
2, 41523, Note_on_c, 0, 63, 80
2, 41523, Note_on_c, 0, 66, 80
2, 41523, Note_on_c, 0, 82, 80
2, 41523, Note_on_c, 0, 90, 80
2, 41527, Note_on_c, 0, 80, 0
2, 41549, Note_on_c, 0, 66, 0
2, 41549, Note_on_c, 0, 60, 0
2, 41549, Note_on_c, 0, 63, 0
2, 41549, Note_on_c, 0, 56, 0
2, 41584, Note_on_c, 0, 82, 0
2, 41584, Note_on_c, 0, 90, 0
2, 41588, Control_c, 0, 64, 127
2, 41592, Note_on_c, 0, 80, 80
2, 41624, Note_on_c, 0, 32, 80
2, 41626, Note_on_c, 0, 84, 80
2, 41626, Note_on_c, 0, 90, 80
2, 41628, Note_on_c, 0, 80, 0
2, 41661, Note_on_c, 0, 82, 80
2, 41663, Note_on_c, 0, 32, 0
2, 41664, Note_on_c, 0, 84, 0
2, 41666, Note_on_c, 0, 90, 0
2, 41697, Note_on_c, 0, 80, 80
2, 41699, Note_on_c, 0, 82, 0
2, 41705, Control_c, 0, 64, 0
2, 41732, Note_on_c, 0, 56, 80
2, 41732, Note_on_c, 0, 60, 80
2, 41734, Note_on_c, 0, 63, 80
2, 41734, Note_on_c, 0, 66, 80
2, 41734, Note_on_c, 0, 84, 80
2, 41734, Note_on_c, 0, 90, 80
2, 41736, Note_on_c, 0, 80, 0
2, 41758, Note_on_c, 0, 66, 0
2, 41758, Note_on_c, 0, 60, 0
2, 41758, Note_on_c, 0, 63, 0
2, 41758, Note_on_c, 0, 56, 0
2, 41765, Note_on_c, 0, 82, 80
2, 41769, Note_on_c, 0, 84, 0
2, 41769, Note_on_c, 0, 90, 0
2, 41791, Note_on_c, 0, 54, 0
2, 41791, Note_on_c, 0, 68, 0
2, 41791, Note_on_c, 0, 75, 0
2, 41791, Note_on_c, 0, 72, 0
2, 41802, Note_on_c, 0, 80, 80
2, 41806, Note_on_c, 0, 82, 0
2, 41806, Note_on_c, 0, 78, 0
2, 41834, Note_on_c, 0, 39, 80
2, 41836, Note_on_c, 0, 54, 80
2, 41836, Note_on_c, 0, 78, 80
2, 41838, Note_on_c, 0, 84, 80
2, 41838, Note_on_c, 0, 87, 80
2, 41838, Note_on_c, 0, 90, 80
2, 41840, Note_on_c, 0, 80, 0
2, 41873, Note_on_c, 0, 39, 0
2, 41875, Note_on_c, 0, 78, 0
2, 41877, Note_on_c, 0, 84, 0
2, 41877, Note_on_c, 0, 87, 0
2, 41877, Note_on_c, 0, 90, 0
2, 41944, Note_on_c, 0, 56, 80
2, 41944, Note_on_c, 0, 60, 80
2, 41944, Note_on_c, 0, 63, 80
2, 41944, Note_on_c, 0, 66, 80
2, 41946, Note_on_c, 0, 75, 80
2, 41946, Note_on_c, 0, 78, 80
2, 41946, Note_on_c, 0, 84, 80
2, 41946, Note_on_c, 0, 87, 80
2, 41973, Note_on_c, 0, 66, 0
2, 41973, Note_on_c, 0, 63, 0
2, 41973, Note_on_c, 0, 60, 0
2, 41973, Note_on_c, 0, 56, 0
2, 42007, Note_on_c, 0, 87, 0
2, 42007, Note_on_c, 0, 84, 0
2, 42007, Note_on_c, 0, 78, 0
2, 42009, Note_on_c, 0, 75, 0
2, 42040, Note_on_c, 0, 71, 80
2, 42040, Note_on_c, 0, 83, 80
2, 42050, Note_on_c, 0, 32, 80
2, 42052, Note_on_c, 0, 72, 80
2, 42054, Note_on_c, 0, 75, 80
2, 42054, Note_on_c, 0, 78, 80
2, 42054, Note_on_c, 0, 84, 80
2, 42056, Note_on_c, 0, 83, 0
2, 42056, Note_on_c, 0, 71, 0
2, 42078, Note_on_c, 0, 72, 0
2, 42078, Note_on_c, 0, 78, 0
2, 42080, Note_on_c, 0, 84, 0
2, 42080, Note_on_c, 0, 75, 0
2, 42088, Note_on_c, 0, 32, 0
2, 42124, Note_on_c, 0, 68, 80
2, 42124, Note_on_c, 0, 80, 80
2, 42159, Note_on_c, 0, 56, 80
2, 42159, Note_on_c, 0, 60, 80
2, 42159, Note_on_c, 0, 63, 80
2, 42159, Note_on_c, 0, 66, 80
2, 42186, Note_on_c, 0, 60, 0
2, 42186, Note_on_c, 0, 56, 0
2, 42188, Note_on_c, 0, 63, 0
2, 42188, Note_on_c, 0, 66, 0
2, 42220, Note_on_c, 0, 68, 0
2, 42222, Note_on_c, 0, 80, 0
2, 42228, Note_on_c, 0, 44, 80
2, 42230, Note_on_c, 0, 83, 80
2, 42264, Note_on_c, 0, 55, 80
2, 42266, Note_on_c, 0, 44, 0
2, 42266, Note_on_c, 0, 54, 0
2, 42266, Note_on_c, 0, 76, 80
2, 42266, Note_on_c, 0, 79, 80
2, 42266, Note_on_c, 0, 84, 80
2, 42268, Note_on_c, 0, 83, 0
2, 42290, Note_on_c, 0, 79, 0
2, 42290, Note_on_c, 0, 84, 0
2, 42290, Note_on_c, 0, 76, 0
2, 42336, Note_on_c, 0, 73, 80
2, 42336, Note_on_c, 0, 76, 80
2, 42336, Note_on_c, 0, 79, 80
2, 42336, Note_on_c, 0, 82, 80
2, 42370, Note_on_c, 0, 58, 80
2, 42370, Note_on_c, 0, 61, 80
2, 42370, Note_on_c, 0, 64, 80
2, 42370, Note_on_c, 0, 67, 80
2, 42397, Note_on_c, 0, 67, 0
2, 42397, Note_on_c, 0, 64, 0
2, 42397, Note_on_c, 0, 61, 0
2, 42397, Note_on_c, 0, 58, 0
2, 42430, Note_on_c, 0, 55, 0
2, 42432, Note_on_c, 0, 79, 0
2, 42432, Note_on_c, 0, 82, 0
2, 42432, Note_on_c, 0, 76, 0
2, 42432, Note_on_c, 0, 73, 0
2, 42435, Note_on_c, 0, 54, 80
2, 42435, Note_on_c, 0, 72, 80
2, 42439, Note_on_c, 0, 75, 80
2, 42439, Note_on_c, 0, 78, 80
2, 42439, Note_on_c, 0, 80, 80
2, 42468, Control_c, 0, 64, 127
2, 42468, Note_on_c, 0, 32, 80
2, 42506, Note_on_c, 0, 32, 0
2, 42517, Control_c, 0, 64, 0
2, 42533, Note_on_c, 0, 72, 0
2, 42535, Note_on_c, 0, 78, 0
2, 42535, Note_on_c, 0, 80, 0
2, 42535, Note_on_c, 0, 75, 0
2, 42546, Note_on_c, 0, 74, 80
2, 42546, Note_on_c, 0, 86, 80
2, 42578, Note_on_c, 0, 60, 80
2, 42580, Note_on_c, 0, 56, 80
2, 42580, Note_on_c, 0, 63, 80
2, 42580, Note_on_c, 0, 66, 80
2, 42580, Note_on_c, 0, 75, 80
2, 42580, Note_on_c, 0, 87, 80
2, 42582, Note_on_c, 0, 86, 0
2, 42582, Note_on_c, 0, 74, 0
2, 42604, Note_on_c, 0, 56, 0
2, 42604, Note_on_c, 0, 66, 0
2, 42604, Note_on_c, 0, 60, 0
2, 42604, Note_on_c, 0, 63, 0
2, 42615, Note_on_c, 0, 76, 80
2, 42615, Note_on_c, 0, 88, 80
2, 42619, Note_on_c, 0, 87, 0
2, 42619, Note_on_c, 0, 75, 0
2, 42639, Note_on_c, 0, 54, 0
2, 42647, Note_on_c, 0, 39, 80
2, 42650, Note_on_c, 0, 77, 80
2, 42650, Note_on_c, 0, 89, 80
2, 42652, Note_on_c, 0, 76, 0
2, 42652, Note_on_c, 0, 88, 0
2, 42685, Note_on_c, 0, 39, 0
2, 42685, Note_on_c, 0, 54, 80
2, 42685, Note_on_c, 0, 78, 80
2, 42685, Note_on_c, 0, 84, 80
2, 42685, Note_on_c, 0, 87, 80
2, 42687, Note_on_c, 0, 77, 0
2, 42687, Note_on_c, 0, 90, 80
2, 42689, Note_on_c, 0, 89, 0
2, 42713, Note_on_c, 0, 78, 0
2, 42715, Note_on_c, 0, 90, 0
2, 42749, Note_on_c, 0, 87, 0
2, 42749, Note_on_c, 0, 84, 0
2, 42760, Note_on_c, 0, 78, 80
2, 42760, Note_on_c, 0, 90, 80
2, 42794, Note_on_c, 0, 56, 80
2, 42794, Note_on_c, 0, 60, 80
2, 42794, Note_on_c, 0, 63, 80
2, 42794, Note_on_c, 0, 66, 80
2, 42794, Note_on_c, 0, 75, 80
2, 42794, Note_on_c, 0, 87, 80
2, 42796, Note_on_c, 0, 90, 0
2, 42796, Note_on_c, 0, 78, 0
2, 42818, Note_on_c, 0, 60, 0
2, 42818, Note_on_c, 0, 66, 0
2, 42818, Note_on_c, 0, 56, 0
2, 42818, Note_on_c, 0, 63, 0
2, 42822, Note_on_c, 0, 87, 0
2, 42822, Note_on_c, 0, 75, 0
2, 42864, Note_on_c, 0, 75, 80
2, 42866, Note_on_c, 0, 87, 80
2, 42899, Note_on_c, 0, 72, 80
2, 42901, Note_on_c, 0, 78, 80
2, 42901, Note_on_c, 0, 80, 80
2, 42901, Note_on_c, 0, 84, 80
2, 42903, Note_on_c, 0, 87, 0
2, 42903, Note_on_c, 0, 75, 0
2, 42911, Note_on_c, 0, 32, 80
2, 42925, Note_on_c, 0, 80, 0
2, 42925, Note_on_c, 0, 78, 0
2, 42925, Note_on_c, 0, 72, 0
2, 42925, Note_on_c, 0, 84, 0
2, 42936, Note_on_c, 0, 32, 0
2, 42970, Note_on_c, 0, 68, 80
2, 42970, Note_on_c, 0, 72, 80
2, 42970, Note_on_c, 0, 75, 80
2, 42970, Note_on_c, 0, 80, 80
2, 43008, Note_on_c, 0, 56, 80
2, 43008, Note_on_c, 0, 60, 80
2, 43008, Note_on_c, 0, 63, 80
2, 43008, Note_on_c, 0, 66, 80
2, 43032, Note_on_c, 0, 66, 0
2, 43032, Note_on_c, 0, 63, 0
2, 43032, Note_on_c, 0, 60, 0
2, 43032, Note_on_c, 0, 56, 0
2, 43069, Note_on_c, 0, 68, 0
2, 43069, Note_on_c, 0, 72, 0
2, 43069, Note_on_c, 0, 75, 0
2, 43069, Note_on_c, 0, 80, 0
2, 43077, Note_on_c, 0, 44, 80
2, 43077, Note_on_c, 0, 83, 80
2, 43111, Note_on_c, 0, 55, 80
2, 43113, Note_on_c, 0, 44, 0
2, 43113, Note_on_c, 0, 76, 80
2, 43113, Note_on_c, 0, 79, 80
2, 43113, Note_on_c, 0, 84, 80
2, 43115, Note_on_c, 0, 54, 0
2, 43115, Note_on_c, 0, 83, 0
2, 43139, Note_on_c, 0, 76, 0
2, 43139, Note_on_c, 0, 79, 0
2, 43139, Note_on_c, 0, 84, 0
2, 43181, Note_on_c, 0, 73, 80
2, 43181, Note_on_c, 0, 76, 80
2, 43181, Note_on_c, 0, 79, 80
2, 43181, Note_on_c, 0, 82, 80
2, 43216, Note_on_c, 0, 58, 80
2, 43216, Note_on_c, 0, 61, 80
2, 43216, Note_on_c, 0, 64, 80
2, 43216, Note_on_c, 0, 67, 80
2, 43238, Note_on_c, 0, 58, 0
2, 43240, Note_on_c, 0, 67, 0
2, 43240, Note_on_c, 0, 64, 0
2, 43240, Note_on_c, 0, 61, 0
2, 43272, Note_on_c, 0, 55, 0
2, 43274, Note_on_c, 0, 79, 0
2, 43274, Note_on_c, 0, 82, 0
2, 43274, Note_on_c, 0, 76, 0
2, 43274, Note_on_c, 0, 73, 0
2, 43278, Control_c, 0, 64, 127
2, 43278, Note_on_c, 0, 54, 80
2, 43280, Note_on_c, 0, 72, 80
2, 43280, Note_on_c, 0, 75, 80
2, 43280, Note_on_c, 0, 78, 80
2, 43280, Note_on_c, 0, 80, 80
2, 43313, Note_on_c, 0, 32, 80
2, 43342, Note_on_c, 0, 32, 0
2, 43362, Control_c, 0, 64, 0
2, 43376, Note_on_c, 0, 54, 0
2, 43378, Note_on_c, 0, 78, 0
2, 43378, Note_on_c, 0, 80, 0
2, 43378, Note_on_c, 0, 75, 0
2, 43386, Note_on_c, 0, 52, 80
2, 43386, Note_on_c, 0, 64, 80
2, 43386, Note_on_c, 0, 76, 80
2, 43388, Note_on_c, 0, 72, 0
2, 43422, Note_on_c, 0, 53, 80
2, 43422, Note_on_c, 0, 65, 80
2, 43422, Note_on_c, 0, 77, 80
2, 43424, Note_on_c, 0, 52, 0
2, 43424, Note_on_c, 0, 76, 0
2, 43424, Note_on_c, 0, 64, 0
2, 43455, Note_on_c, 0, 54, 80
2, 43455, Note_on_c, 0, 66, 80
2, 43455, Note_on_c, 0, 78, 80
2, 43459, Note_on_c, 0, 53, 0
2, 43459, Note_on_c, 0, 77, 0
2, 43459, Note_on_c, 0, 65, 0
2, 43491, Note_on_c, 0, 55, 80
2, 43491, Note_on_c, 0, 67, 80
2, 43491, Note_on_c, 0, 79, 80
2, 43493, Note_on_c, 0, 54, 0
2, 43493, Note_on_c, 0, 66, 0
2, 43495, Note_on_c, 0, 78, 0
2, 43526, Note_on_c, 0, 56, 80
2, 43526, Note_on_c, 0, 68, 80
2, 43526, Note_on_c, 0, 80, 80
2, 43528, Note_on_c, 0, 55, 0
2, 43528, Note_on_c, 0, 67, 0
2, 43530, Note_on_c, 0, 79, 0
2, 43601, Note_on_c, 0, 44, 80
2, 43601, Note_on_c, 0, 54, 80
2, 43601, Note_on_c, 0, 60, 80
2, 43613, Note_on_c, 0, 32, 80
2, 43640, Note_on_c, 0, 32, 0
2, 43640, Note_on_c, 0, 54, 0
2, 43640, Note_on_c, 0, 44, 0
2, 43640, Note_on_c, 0, 60, 0
2, 43711, Note_on_c, 0, 54, 80
2, 43711, Note_on_c, 0, 60, 80
2, 43713, Note_on_c, 0, 32, 80
2, 43713, Note_on_c, 0, 44, 80
2, 43813, Note_on_c, 0, 44, 0
2, 43813, Note_on_c, 0, 60, 0
2, 43813, Note_on_c, 0, 56, 0
2, 43813, Note_on_c, 0, 80, 0
2, 43813, Note_on_c, 0, 68, 0
2, 43813, Note_on_c, 0, 32, 0
2, 43813, Note_on_c, 0, 54, 0
2, 43821, Note_on_c, 0, 57, 80
2, 43821, Note_on_c, 0, 69, 80
2, 43821, Note_on_c, 0, 81, 80
2, 43859, Note_on_c, 0, 58, 80
2, 43859, Note_on_c, 0, 70, 80
2, 43859, Note_on_c, 0, 82, 80
2, 43861, Note_on_c, 0, 69, 0
2, 43863, Note_on_c, 0, 57, 0
2, 43863, Note_on_c, 0, 81, 0
2, 43885, Note_on_c, 0, 58, 0
2, 43885, Note_on_c, 0, 70, 0
2, 43887, Note_on_c, 0, 82, 0
2, 43932, Note_on_c, 0, 54, 80
2, 43932, Note_on_c, 0, 66, 80
2, 43932, Note_on_c, 0, 78, 80
2, 44034, Note_on_c, 0, 54, 0
2, 44044, Note_on_c, 0, 39, 80
2, 44044, Note_on_c, 0, 61, 80
2, 44079, Note_on_c, 0, 27, 80
2, 44081, Note_on_c, 0, 54, 80
2, 44081, Note_on_c, 0, 58, 80
2, 44083, Note_on_c, 0, 61, 0
2, 44083, Note_on_c, 0, 39, 0
2, 44105, Note_on_c, 0, 27, 0
2, 44107, Note_on_c, 0, 54, 0
2, 44107, Note_on_c, 0, 58, 0
2, 44147, Note_on_c, 0, 44, 80
2, 44147, Note_on_c, 0, 54, 80
2, 44147, Note_on_c, 0, 60, 80
2, 44149, Control_c, 0, 64, 127
2, 44157, Note_on_c, 0, 32, 80
2, 44230, Control_c, 0, 64, 0
2, 44242, Note_on_c, 0, 32, 0
2, 44242, Note_on_c, 0, 44, 0
2, 44253, Note_on_c, 0, 45, 80
2, 44255, Note_on_c, 0, 33, 80
2, 44287, Note_on_c, 0, 34, 80
2, 44287, Note_on_c, 0, 46, 80
2, 44289, Note_on_c, 0, 33, 0
2, 44291, Note_on_c, 0, 45, 0
2, 44348, Note_on_c, 0, 34, 0
2, 44348, Note_on_c, 0, 46, 0
2, 44348, Note_on_c, 0, 60, 0
2, 44348, Note_on_c, 0, 54, 0
2, 44348, Note_on_c, 0, 66, 0
2, 44350, Note_on_c, 0, 78, 0
2, 44355, Note_on_c, 0, 36, 80
2, 44355, Note_on_c, 0, 48, 80
2, 44390, Note_on_c, 0, 37, 80
2, 44392, Note_on_c, 0, 49, 80
2, 44394, Note_on_c, 0, 48, 0
2, 44394, Note_on_c, 0, 36, 0
2, 44501, Note_on_c, 0, 68, 80
2, 44501, Note_on_c, 0, 73, 80
2, 44501, Note_on_c, 0, 82, 80
2, 44501, Note_on_c, 0, 89, 80
2, 44607, Note_on_c, 0, 70, 80
2, 44607, Note_on_c, 0, 75, 80
2, 44607, Note_on_c, 0, 85, 80
2, 44609, Note_on_c, 0, 89, 0
2, 44609, Note_on_c, 0, 82, 0
2, 44609, Note_on_c, 0, 65, 80
2, 44611, Note_on_c, 0, 73, 0
2, 44611, Note_on_c, 0, 68, 0
2, 44671, Note_on_c, 0, 49, 0
2, 44671, Note_on_c, 0, 37, 0
2, 44682, Note_on_c, 0, 32, 80
2, 44682, Note_on_c, 0, 44, 80
2, 44716, Note_on_c, 0, 34, 80
2, 44716, Note_on_c, 0, 46, 80
2, 44718, Note_on_c, 0, 44, 0
2, 44720, Note_on_c, 0, 32, 0
2, 44767, Note_on_c, 0, 34, 0
2, 44780, Note_on_c, 0, 46, 0
2, 44785, Note_on_c, 0, 48, 80
2, 44787, Note_on_c, 0, 36, 80
2, 44820, Note_on_c, 0, 37, 80
2, 44820, Note_on_c, 0, 49, 80
2, 44824, Note_on_c, 0, 36, 0
2, 44824, Note_on_c, 0, 48, 0
2, 44846, Note_on_c, 0, 65, 0
2, 44846, Note_on_c, 0, 70, 0
2, 44846, Note_on_c, 0, 85, 0
2, 44848, Note_on_c, 0, 75, 0
2, 44858, Note_on_c, 0, 37, 0
2, 44858, Note_on_c, 0, 49, 0
2, 44877, Note_on_c, 0, 76, 80
2, 44877, Note_on_c, 0, 88, 80
2, 44889, Note_on_c, 0, 77, 80
2, 44889, Note_on_c, 0, 80, 80
2, 44889, Note_on_c, 0, 85, 80
2, 44889, Note_on_c, 0, 89, 80
2, 44891, Note_on_c, 0, 88, 0
2, 44893, Note_on_c, 0, 76, 0
2, 44893, Note_on_c, 0, 32, 80
2, 44926, Note_on_c, 0, 44, 80
2, 44929, Note_on_c, 0, 32, 0
2, 44984, Note_on_c, 0, 85, 0
2, 44984, Note_on_c, 0, 77, 0
2, 44984, Note_on_c, 0, 80, 0
2, 44984, Note_on_c, 0, 89, 0
2, 44995, Note_on_c, 0, 34, 80
2, 44995, Note_on_c, 0, 72, 80
2, 44995, Note_on_c, 0, 84, 80
2, 45029, Note_on_c, 0, 75, 80
2, 45029, Note_on_c, 0, 87, 80
2, 45031, Note_on_c, 0, 84, 0
2, 45031, Note_on_c, 0, 72, 0
2, 45031, Note_on_c, 0, 46, 80
2, 45033, Note_on_c, 0, 44, 0
2, 45033, Note_on_c, 0, 34, 0
2, 45092, Note_on_c, 0, 87, 0
2, 45094, Note_on_c, 0, 75, 0
2, 45099, Note_on_c, 0, 73, 80
2, 45099, Note_on_c, 0, 85, 80
2, 45101, Note_on_c, 0, 36, 80
2, 45125, Note_on_c, 0, 46, 0
2, 45131, Note_on_c, 0, 82, 80
2, 45133, Note_on_c, 0, 48, 80
2, 45133, Note_on_c, 0, 70, 80
2, 45135, Note_on_c, 0, 73, 0
2, 45135, Note_on_c, 0, 36, 0
2, 45135, Note_on_c, 0, 85, 0
2, 45192, Note_on_c, 0, 82, 0
2, 45192, Note_on_c, 0, 70, 0
2, 45199, Note_on_c, 0, 68, 80
2, 45199, Note_on_c, 0, 80, 80
2, 45201, Note_on_c, 0, 37, 80
2, 45225, Note_on_c, 0, 80, 0
2, 45225, Note_on_c, 0, 68, 0
2, 45227, Note_on_c, 0, 48, 0
2, 45235, Note_on_c, 0, 73, 80
2, 45235, Note_on_c, 0, 77, 80
2, 45235, Note_on_c, 0, 85, 80
2, 45237, Note_on_c, 0, 49, 80
2, 45239, Note_on_c, 0, 37, 0
2, 45261, Note_on_c, 0, 85, 0
2, 45261, Note_on_c, 0, 73, 0
2, 45261, Note_on_c, 0, 77, 0
2, 45275, Note_on_c, 0, 49, 0
2, 45308, Note_on_c, 0, 75, 80
2, 45308, Note_on_c, 0, 85, 80
2, 45342, Note_on_c, 0, 78, 80
2, 45344, Note_on_c, 0, 58, 80
2, 45344, Note_on_c, 0, 61, 80
2, 45344, Note_on_c, 0, 63, 80
2, 45344, Note_on_c, 0, 66, 80
2, 45348, Note_on_c, 0, 75, 0
2, 45368, Note_on_c, 0, 63, 0
2, 45368, Note_on_c, 0, 78, 0
2, 45368, Note_on_c, 0, 85, 0
2, 45368, Note_on_c, 0, 66, 0
2, 45370, Note_on_c, 0, 58, 0
2, 45370, Note_on_c, 0, 61, 0
2, 45412, Note_on_c, 0, 73, 80
2, 45412, Note_on_c, 0, 77, 80
2, 45412, Note_on_c, 0, 80, 80
2, 45412, Note_on_c, 0, 85, 80
2, 45418, Control_c, 0, 64, 127
2, 45451, Note_on_c, 0, 32, 80
2, 45478, Note_on_c, 0, 73, 0
2, 45490, Note_on_c, 0, 32, 0
2, 45503, Control_c, 0, 64, 0
2, 45513, Note_on_c, 0, 77, 0
2, 45513, Note_on_c, 0, 80, 0
2, 45521, Note_on_c, 0, 73, 80
2, 45557, Note_on_c, 0, 63, 80
2, 45557, Note_on_c, 0, 70, 80
2, 45559, Note_on_c, 0, 56, 80
2, 45559, Note_on_c, 0, 58, 80
2, 45559, Note_on_c, 0, 61, 80
2, 45561, Note_on_c, 0, 73, 0
2, 45583, Note_on_c, 0, 61, 0
2, 45585, Note_on_c, 0, 56, 0
2, 45585, Note_on_c, 0, 58, 0
2, 45618, Note_on_c, 0, 63, 0
2, 45618, Note_on_c, 0, 70, 0
2, 45625, Note_on_c, 0, 68, 80
2, 45627, Note_on_c, 0, 37, 80
2, 45627, Note_on_c, 0, 64, 80
2, 45662, Note_on_c, 0, 73, 80
2, 45664, Note_on_c, 0, 68, 0
2, 45664, Note_on_c, 0, 49, 80
2, 45664, Note_on_c, 0, 65, 80
2, 45666, Note_on_c, 0, 64, 0
2, 45666, Note_on_c, 0, 37, 0
2, 45698, Note_on_c, 0, 73, 0
2, 45698, Note_on_c, 0, 65, 0
2, 45700, Note_on_c, 0, 49, 0
2, 45722, Note_on_c, 0, 85, 0
2, 45768, Note_on_c, 0, 61, 80
2, 45768, Note_on_c, 0, 65, 80
2, 45768, Note_on_c, 0, 71, 80
2, 45768, Note_on_c, 0, 75, 80
2, 45768, Note_on_c, 0, 83, 80
2, 45769, Note_on_c, 0, 59, 80
2, 45780, Note_on_c, 0, 56, 80
2, 45792, Note_on_c, 0, 56, 0
2, 45792, Note_on_c, 0, 65, 0
2, 45792, Note_on_c, 0, 61, 0
2, 45792, Note_on_c, 0, 59, 0
2, 45813, Note_on_c, 0, 71, 0
2, 45825, Note_on_c, 0, 83, 0
2, 45827, Note_on_c, 0, 75, 0
2, 45833, Note_on_c, 0, 70, 80
2, 45833, Note_on_c, 0, 76, 80
2, 45833, Note_on_c, 0, 82, 80
2, 45867, Note_on_c, 0, 68, 80
2, 45867, Note_on_c, 0, 77, 80
2, 45867, Note_on_c, 0, 80, 80
2, 45869, Note_on_c, 0, 82, 0
2, 45869, Note_on_c, 0, 32, 80
2, 45871, Note_on_c, 0, 70, 0
2, 45871, Note_on_c, 0, 76, 0
2, 45908, Note_on_c, 0, 32, 0
2, 45915, Note_on_c, 0, 68, 0
2, 45915, Note_on_c, 0, 77, 0
2, 45928, Note_on_c, 0, 80, 0
2, 45936, Note_on_c, 0, 76, 80
2, 45970, Note_on_c, 0, 70, 80
2, 45972, Note_on_c, 0, 54, 80
2, 45972, Note_on_c, 0, 56, 80
2, 45972, Note_on_c, 0, 60, 80
2, 45972, Note_on_c, 0, 65, 80
2, 45972, Note_on_c, 0, 66, 80
2, 45972, Note_on_c, 0, 72, 80
2, 45972, Note_on_c, 0, 77, 80
2, 45974, Note_on_c, 0, 76, 0
2, 45996, Note_on_c, 0, 60, 0
2, 45996, Note_on_c, 0, 77, 0
2, 45996, Note_on_c, 0, 65, 0
2, 45996, Note_on_c, 0, 72, 0
2, 45996, Note_on_c, 0, 70, 0
2, 45996, Note_on_c, 0, 66, 0
2, 45998, Note_on_c, 0, 56, 0
2, 45998, Note_on_c, 0, 54, 0
2, 46038, Note_on_c, 0, 68, 80
2, 46038, Note_on_c, 0, 73, 80
2, 46038, Note_on_c, 0, 77, 80
2, 46038, Note_on_c, 0, 80, 80
2, 46040, Note_on_c, 0, 37, 80
2, 46079, Note_on_c, 0, 49, 80
2, 46080, Note_on_c, 0, 37, 0
2, 46101, Note_on_c, 0, 80, 0
2, 46101, Note_on_c, 0, 77, 0
2, 46101, Note_on_c, 0, 68, 0
2, 46101, Note_on_c, 0, 73, 0
2, 46115, Note_on_c, 0, 49, 0
2, 46146, Note_on_c, 0, 68, 80
2, 46146, Note_on_c, 0, 73, 80
2, 46146, Note_on_c, 0, 77, 80
2, 46146, Note_on_c, 0, 80, 80
2, 46182, Note_on_c, 0, 56, 80
2, 46182, Note_on_c, 0, 58, 80
2, 46182, Note_on_c, 0, 61, 80
2, 46182, Note_on_c, 0, 65, 80
2, 46209, Note_on_c, 0, 65, 0
2, 46209, Note_on_c, 0, 68, 0
2, 46209, Note_on_c, 0, 80, 0
2, 46209, Note_on_c, 0, 77, 0
2, 46209, Note_on_c, 0, 73, 0
2, 46211, Note_on_c, 0, 61, 0
2, 46211, Note_on_c, 0, 56, 0
2, 46211, Note_on_c, 0, 58, 0
2, 46251, Note_on_c, 0, 68, 80
2, 46251, Note_on_c, 0, 73, 80
2, 46251, Note_on_c, 0, 77, 80
2, 46251, Note_on_c, 0, 80, 80
2, 46257, Control_c, 0, 64, 127
2, 46296, Note_on_c, 0, 32, 80
2, 46318, Note_on_c, 0, 73, 0
2, 46332, Note_on_c, 0, 32, 0
2, 46344, Control_c, 0, 64, 0
2, 46355, Note_on_c, 0, 68, 0
2, 46363, Note_on_c, 0, 73, 80
2, 46399, Note_on_c, 0, 61, 80
2, 46399, Note_on_c, 0, 65, 80
2, 46399, Note_on_c, 0, 70, 80
2, 46401, Note_on_c, 0, 56, 80
2, 46401, Note_on_c, 0, 58, 80
2, 46403, Note_on_c, 0, 73, 0
2, 46425, Note_on_c, 0, 65, 0
2, 46427, Note_on_c, 0, 58, 0
2, 46427, Note_on_c, 0, 61, 0
2, 46427, Note_on_c, 0, 56, 0
2, 46462, Note_on_c, 0, 80, 0
2, 46462, Note_on_c, 0, 70, 0
2, 46462, Note_on_c, 0, 77, 0
2, 46472, Note_on_c, 0, 68, 80
2, 46474, Note_on_c, 0, 39, 80
2, 46509, Note_on_c, 0, 51, 80
2, 46509, Note_on_c, 0, 73, 80
2, 46509, Note_on_c, 0, 78, 80
2, 46509, Note_on_c, 0, 80, 80
2, 46511, Note_on_c, 0, 68, 0
2, 46523, Note_on_c, 0, 39, 0
2, 46534, Note_on_c, 0, 78, 0
2, 46534, Note_on_c, 0, 73, 0
2, 46534, Note_on_c, 0, 80, 0
2, 46574, Note_on_c, 0, 51, 0
2, 46582, Note_on_c, 0, 73, 80
2, 46582, Note_on_c, 0, 78, 80
2, 46582, Note_on_c, 0, 80, 80
2, 46616, Note_on_c, 0, 66, 80
2, 46616, Note_on_c, 0, 70, 80
2, 46618, Note_on_c, 0, 58, 80
2, 46618, Note_on_c, 0, 61, 80
2, 46618, Note_on_c, 0, 63, 80
2, 46642, Note_on_c, 0, 70, 0
2, 46642, Note_on_c, 0, 66, 0
2, 46642, Note_on_c, 0, 73, 0
2, 46642, Note_on_c, 0, 80, 0
2, 46642, Note_on_c, 0, 78, 0
2, 46644, Note_on_c, 0, 63, 0
2, 46644, Note_on_c, 0, 61, 0
2, 46644, Note_on_c, 0, 58, 0
2, 46686, Note_on_c, 0, 72, 80
2, 46686, Note_on_c, 0, 75, 80
2, 46686, Note_on_c, 0, 78, 80
2, 46686, Note_on_c, 0, 80, 80
2, 46690, Control_c, 0, 64, 127
2, 46727, Note_on_c, 0, 32, 80
2, 46751, Note_on_c, 0, 80, 0
2, 46767, Note_on_c, 0, 32, 0
2, 46777, Control_c, 0, 64, 0
2, 46785, Note_on_c, 0, 78, 0
2, 46785, Note_on_c, 0, 72, 0
2, 46787, Note_on_c, 0, 75, 0
2, 46795, Note_on_c, 0, 80, 80
2, 46831, Note_on_c, 0, 82, 80
2, 46833, Note_on_c, 0, 56, 80
2, 46833, Note_on_c, 0, 60, 80
2, 46833, Note_on_c, 0, 64, 80
2, 46833, Note_on_c, 0, 66, 80
2, 46833, Note_on_c, 0, 72, 80
2, 46833, Note_on_c, 0, 76, 80
2, 46835, Note_on_c, 0, 80, 0
2, 46857, Note_on_c, 0, 64, 0
2, 46857, Note_on_c, 0, 60, 0
2, 46857, Note_on_c, 0, 56, 0
2, 46857, Note_on_c, 0, 66, 0
2, 46894, Note_on_c, 0, 82, 0
2, 46894, Note_on_c, 0, 72, 0
2, 46897, Note_on_c, 0, 76, 0
2, 46901, Note_on_c, 0, 80, 80
2, 46938, Note_on_c, 0, 59, 80
2, 46938, Note_on_c, 0, 71, 80
2, 46938, Note_on_c, 0, 77, 80
2, 46938, Note_on_c, 0, 85, 80
2, 46942, Note_on_c, 0, 44, 80
2, 46942, Note_on_c, 0, 53, 80
2, 46964, Note_on_c, 0, 85, 0
2, 46964, Note_on_c, 0, 77, 0
2, 46964, Note_on_c, 0, 80, 0
2, 46966, Note_on_c, 0, 71, 0
2, 46978, Note_on_c, 0, 44, 0
2, 47009, Note_on_c, 0, 77, 80
2, 47009, Note_on_c, 0, 80, 80
2, 47009, Note_on_c, 0, 85, 80
2, 47011, Note_on_c, 0, 71, 80
2, 47045, Note_on_c, 0, 61, 80
2, 47045, Note_on_c, 0, 65, 80
2, 47045, Note_on_c, 0, 68, 80
2, 47069, Note_on_c, 0, 71, 0
2, 47069, Note_on_c, 0, 80, 0
2, 47069, Note_on_c, 0, 77, 0
2, 47069, Note_on_c, 0, 85, 0
2, 47071, Note_on_c, 0, 68, 0
2, 47071, Note_on_c, 0, 65, 0
2, 47071, Note_on_c, 0, 61, 0
2, 47112, Note_on_c, 0, 85, 80
2, 47113, Note_on_c, 0, 70, 80
2, 47113, Note_on_c, 0, 76, 80
2, 47113, Note_on_c, 0, 79, 80
2, 47115, Note_on_c, 0, 43, 80
2, 47150, Note_on_c, 0, 52, 80
2, 47150, Note_on_c, 0, 58, 80
2, 47152, Note_on_c, 0, 43, 0
2, 47152, Note_on_c, 0, 59, 0
2, 47154, Note_on_c, 0, 53, 0
2, 47217, Note_on_c, 0, 82, 80
2, 47217, Note_on_c, 0, 88, 80
2, 47217, Note_on_c, 0, 91, 80
2, 47217, Note_on_c, 0, 97, 80
2, 47221, Note_on_c, 0, 79, 0
2, 47221, Note_on_c, 0, 70, 0
2, 47221, Note_on_c, 0, 76, 0
2, 47221, Note_on_c, 0, 85, 0
2, 47254, Note_on_c, 0, 61, 80
2, 47254, Note_on_c, 0, 64, 80
2, 47254, Note_on_c, 0, 67, 80
2, 47254, Note_on_c, 0, 70, 80
2, 47280, Note_on_c, 0, 70, 0
2, 47280, Note_on_c, 0, 67, 0
2, 47282, Note_on_c, 0, 61, 0
2, 47282, Note_on_c, 0, 64, 0
2, 47313, Note_on_c, 0, 82, 0
2, 47313, Note_on_c, 0, 97, 0
2, 47313, Note_on_c, 0, 91, 0
2, 47313, Note_on_c, 0, 88, 0
2, 47321, Note_on_c, 0, 94, 80
2, 47325, Note_on_c, 0, 44, 80
2, 47355, Note_on_c, 0, 89, 80
2, 47355, Note_on_c, 0, 92, 80
2, 47355, Note_on_c, 0, 97, 80
2, 47357, Note_on_c, 0, 83, 80
2, 47359, Note_on_c, 0, 94, 0
2, 47359, Note_on_c, 0, 53, 80
2, 47359, Note_on_c, 0, 59, 80
2, 47361, Note_on_c, 0, 44, 0
2, 47361, Note_on_c, 0, 58, 0
2, 47361, Note_on_c, 0, 52, 0
2, 47418, Note_on_c, 0, 97, 0
2, 47418, Note_on_c, 0, 83, 0
2, 47418, Note_on_c, 0, 89, 0
2, 47418, Note_on_c, 0, 59, 0
2, 47418, Note_on_c, 0, 92, 0
2, 47458, Note_on_c, 0, 77, 80
2, 47458, Note_on_c, 0, 79, 80
2, 47458, Note_on_c, 0, 85, 80
2, 47460, Note_on_c, 0, 65, 80
2, 47460, Note_on_c, 0, 73, 80
2, 47462, Note_on_c, 0, 55, 80
2, 47462, Note_on_c, 0, 59, 80
2, 47462, Note_on_c, 0, 61, 80
2, 47464, Note_on_c, 0, 53, 0
2, 47484, Note_on_c, 0, 85, 0
2, 47484, Note_on_c, 0, 77, 0
2, 47484, Note_on_c, 0, 73, 0
2, 47484, Note_on_c, 0, 79, 0
2, 47486, Note_on_c, 0, 65, 0
2, 47486, Note_on_c, 0, 61, 0
2, 47486, Note_on_c, 0, 59, 0
2, 47528, Note_on_c, 0, 75, 80
2, 47528, Note_on_c, 0, 77, 80
2, 47528, Note_on_c, 0, 80, 80
2, 47528, Note_on_c, 0, 83, 80
2, 47528, Note_on_c, 0, 87, 80
2, 47565, Note_on_c, 0, 56, 80
2, 47567, Note_on_c, 0, 37, 80
2, 47568, Note_on_c, 0, 55, 0
2, 47605, Note_on_c, 0, 37, 0
2, 47625, Note_on_c, 0, 87, 0
2, 47627, Note_on_c, 0, 75, 0
2, 47627, Note_on_c, 0, 80, 0
2, 47627, Note_on_c, 0, 83, 0
2, 47627, Note_on_c, 0, 77, 0
2, 47633, Note_on_c, 0, 85, 80
2, 47635, Note_on_c, 0, 73, 80
2, 47671, Note_on_c, 0, 63, 80
2, 47671, Note_on_c, 0, 65, 80
2, 47671, Note_on_c, 0, 75, 80
2, 47671, Note_on_c, 0, 77, 80
2, 47671, Note_on_c, 0, 81, 80
2, 47671, Note_on_c, 0, 87, 80
2, 47673, Note_on_c, 0, 73, 0
2, 47673, Note_on_c, 0, 85, 0
2, 47673, Note_on_c, 0, 57, 80
2, 47675, Note_on_c, 0, 59, 80
2, 47677, Note_on_c, 0, 56, 0
2, 47699, Note_on_c, 0, 63, 0
2, 47699, Note_on_c, 0, 59, 0
2, 47699, Note_on_c, 0, 57, 0
2, 47699, Note_on_c, 0, 65, 0
2, 47734, Note_on_c, 0, 75, 0
2, 47776, Note_on_c, 0, 82, 80
2, 47776, Note_on_c, 0, 85, 80
2, 47778, Note_on_c, 0, 87, 0
2, 47778, Note_on_c, 0, 54, 80
2, 47778, Note_on_c, 0, 73, 80
2, 47778, Note_on_c, 0, 75, 80
2, 47778, Note_on_c, 0, 78, 80
2, 47780, Note_on_c, 0, 81, 0
2, 47780, Note_on_c, 0, 77, 0
2, 47780, Note_on_c, 0, 42, 80
2, 47782, Note_on_c, 0, 30, 80
2, 47885, Note_on_c, 0, 46, 80
2, 47885, Note_on_c, 0, 58, 80
2, 47887, Note_on_c, 0, 54, 0
2, 47887, Note_on_c, 0, 34, 80
2, 47889, Note_on_c, 0, 42, 0
2, 47891, Note_on_c, 0, 30, 0
2, 47984, Note_on_c, 0, 34, 0
2, 47990, Note_on_c, 0, 61, 80
2, 47992, Note_on_c, 0, 58, 0
2, 47992, Note_on_c, 0, 49, 80
2, 47994, Note_on_c, 0, 46, 0
2, 47994, Note_on_c, 0, 37, 80
2, 48096, Note_on_c, 0, 63, 80
2, 48097, Note_on_c, 0, 61, 0
2, 48097, Note_on_c, 0, 51, 80
2, 48099, Note_on_c, 0, 49, 0
2, 48099, Note_on_c, 0, 39, 80
2, 48101, Note_on_c, 0, 37, 0
2, 48121, Note_on_c, 0, 63, 0
2, 48123, Note_on_c, 0, 51, 0
2, 48123, Note_on_c, 0, 39, 0
2, 48162, Note_on_c, 0, 66, 80
2, 48166, Note_on_c, 0, 42, 80
2, 48166, Note_on_c, 0, 54, 80
2, 48200, Note_on_c, 0, 66, 0
2, 48202, Note_on_c, 0, 54, 0
2, 48204, Note_on_c, 0, 42, 0
2, 48269, Note_on_c, 0, 66, 80
2, 48271, Note_on_c, 0, 42, 80
2, 48271, Note_on_c, 0, 54, 80
2, 48306, Note_on_c, 0, 65, 80
2, 48308, Note_on_c, 0, 66, 0
2, 48308, Note_on_c, 0, 41, 80
2, 48308, Note_on_c, 0, 53, 80
2, 48310, Note_on_c, 0, 54, 0
2, 48310, Note_on_c, 0, 42, 0
2, 48408, Note_on_c, 0, 39, 80
2, 48408, Note_on_c, 0, 51, 80
2, 48408, Note_on_c, 0, 63, 80
2, 48409, Note_on_c, 0, 65, 0
2, 48411, Note_on_c, 0, 41, 0
2, 48411, Note_on_c, 0, 53, 0
2, 48513, Note_on_c, 0, 61, 80
2, 48515, Note_on_c, 0, 63, 0
2, 48515, Note_on_c, 0, 37, 80
2, 48515, Note_on_c, 0, 49, 80
2, 48517, Note_on_c, 0, 39, 0
2, 48517, Note_on_c, 0, 51, 0
2, 48574, Note_on_c, 0, 75, 0
2, 48574, Note_on_c, 0, 73, 0
2, 48574, Note_on_c, 0, 82, 0
2, 48584, Note_on_c, 0, 85, 0
2, 48586, Note_on_c, 0, 78, 0
2, 48615, Note_on_c, 0, 76, 80
2, 48615, Note_on_c, 0, 78, 80
2, 48615, Note_on_c, 0, 82, 80
2, 48615, Note_on_c, 0, 85, 80
2, 48615, Note_on_c, 0, 88, 80
2, 48619, Note_on_c, 0, 58, 80
2, 48621, Note_on_c, 0, 52, 80
2, 48623, Note_on_c, 0, 37, 0
2, 48623, Note_on_c, 0, 61, 0
2, 48623, Note_on_c, 0, 49, 0
2, 48630, Note_on_c, 0, 42, 80
2, 48641, Note_on_c, 0, 88, 0
2, 48641, Note_on_c, 0, 85, 0
2, 48643, Note_on_c, 0, 76, 0
2, 48643, Note_on_c, 0, 78, 0
2, 48643, Note_on_c, 0, 82, 0
2, 48681, Note_on_c, 0, 52, 0
2, 48681, Note_on_c, 0, 58, 0
2, 48683, Note_on_c, 0, 42, 0
2, 48689, Note_on_c, 0, 76, 80
2, 48689, Note_on_c, 0, 78, 80
2, 48689, Note_on_c, 0, 82, 80
2, 48689, Note_on_c, 0, 85, 80
2, 48689, Note_on_c, 0, 88, 80
2, 48727, Note_on_c, 0, 61, 80
2, 48727, Note_on_c, 0, 64, 80
2, 48727, Note_on_c, 0, 66, 80
2, 48729, Note_on_c, 0, 58, 80
2, 48751, Note_on_c, 0, 88, 0
2, 48751, Note_on_c, 0, 85, 0
2, 48751, Note_on_c, 0, 76, 0
2, 48751, Note_on_c, 0, 82, 0
2, 48751, Note_on_c, 0, 78, 0
2, 48753, Note_on_c, 0, 66, 0
2, 48753, Note_on_c, 0, 58, 0
2, 48753, Note_on_c, 0, 61, 0
2, 48753, Note_on_c, 0, 64, 0
2, 48795, Note_on_c, 0, 82, 80
2, 48795, Note_on_c, 0, 85, 80
2, 48795, Note_on_c, 0, 88, 80
2, 48797, Note_on_c, 0, 76, 80
2, 48797, Note_on_c, 0, 78, 80
2, 48805, Control_c, 0, 64, 127
2, 48840, Note_on_c, 0, 37, 80
2, 48860, Note_on_c, 0, 88, 0
2, 48862, Note_on_c, 0, 78, 0
2, 48862, Note_on_c, 0, 82, 0
2, 48862, Note_on_c, 0, 85, 0
2, 48864, Note_on_c, 0, 76, 0
2, 48878, Note_on_c, 0, 37, 0
2, 48907, Note_on_c, 0, 80, 80
2, 48907, Note_on_c, 0, 83, 80
2, 48907, Note_on_c, 0, 85, 80
2, 48909, Note_on_c, 0, 73, 80
2, 48909, Note_on_c, 0, 77, 80
2, 48929, Control_c, 0, 64, 0
2, 48947, Note_on_c, 0, 65, 80
2, 48949, Note_on_c, 0, 56, 80
2, 48949, Note_on_c, 0, 59, 80
2, 48949, Note_on_c, 0, 61, 80
2, 48973, Note_on_c, 0, 61, 0
2, 48973, Note_on_c, 0, 59, 0
2, 48973, Note_on_c, 0, 65, 0
2, 48975, Note_on_c, 0, 56, 0
2, 49008, Note_on_c, 0, 83, 0
2, 49008, Note_on_c, 0, 85, 0
2, 49008, Note_on_c, 0, 73, 0
2, 49008, Note_on_c, 0, 77, 0
2, 49008, Note_on_c, 0, 80, 0
2, 49015, Note_on_c, 0, 75, 80
2, 49015, Note_on_c, 0, 87, 80
2, 49052, Note_on_c, 0, 76, 80
2, 49052, Note_on_c, 0, 78, 80
2, 49052, Note_on_c, 0, 82, 80
2, 49052, Note_on_c, 0, 85, 80
2, 49052, Note_on_c, 0, 88, 80
2, 49054, Note_on_c, 0, 87, 0
2, 49054, Note_on_c, 0, 46, 80
2, 49054, Note_on_c, 0, 61, 80
2, 49056, Note_on_c, 0, 75, 0
2, 49078, Note_on_c, 0, 85, 0
2, 49078, Note_on_c, 0, 78, 0
2, 49078, Note_on_c, 0, 76, 0
2, 49078, Note_on_c, 0, 82, 0
2, 49078, Note_on_c, 0, 88, 0
2, 49092, Note_on_c, 0, 46, 0
2, 49123, Note_on_c, 0, 88, 80
2, 49125, Note_on_c, 0, 76, 80
2, 49125, Note_on_c, 0, 80, 80
2, 49125, Note_on_c, 0, 83, 80
2, 49153, Note_on_c, 0, 61, 0
2, 49161, Note_on_c, 0, 59, 80
2, 49163, Note_on_c, 0, 44, 80
2, 49187, Note_on_c, 0, 80, 0
2, 49187, Note_on_c, 0, 83, 0
2, 49187, Note_on_c, 0, 88, 0
2, 49187, Note_on_c, 0, 76, 0
2, 49201, Note_on_c, 0, 44, 0
2, 49225, Note_on_c, 0, 82, 80
2, 49227, Note_on_c, 0, 79, 80
2, 49227, Note_on_c, 0, 85, 80
2, 49229, Note_on_c, 0, 73, 80
2, 49229, Note_on_c, 0, 76, 80
2, 49266, Note_on_c, 0, 58, 80
2, 49268, Note_on_c, 0, 43, 80
2, 49270, Note_on_c, 0, 59, 0
2, 49306, Note_on_c, 0, 43, 0
2, 49326, Note_on_c, 0, 85, 0
2, 49328, Note_on_c, 0, 79, 0
2, 49328, Note_on_c, 0, 73, 0
2, 49328, Note_on_c, 0, 82, 0
2, 49328, Note_on_c, 0, 76, 0
2, 49336, Note_on_c, 0, 75, 80
2, 49336, Note_on_c, 0, 87, 80
2, 49372, Note_on_c, 0, 73, 80
2, 49372, Note_on_c, 0, 78, 80
2, 49372, Note_on_c, 0, 81, 80
2, 49372, Note_on_c, 0, 85, 80
2, 49374, Note_on_c, 0, 87, 0
2, 49376, Note_on_c, 0, 42, 80
2, 49376, Note_on_c, 0, 57, 80
2, 49378, Note_on_c, 0, 58, 0
2, 49415, Note_on_c, 0, 42, 0
2, 49433, Note_on_c, 0, 85, 0
2, 49433, Note_on_c, 0, 78, 0
2, 49433, Note_on_c, 0, 81, 0
2, 49435, Note_on_c, 0, 75, 0
2, 49435, Note_on_c, 0, 73, 0
2, 49475, Note_on_c, 0, 73, 80
2, 49475, Note_on_c, 0, 77, 80
2, 49475, Note_on_c, 0, 80, 80
2, 49477, Note_on_c, 0, 56, 80
2, 49477, Note_on_c, 0, 68, 80
2, 49479, Note_on_c, 0, 41, 80
2, 49481, Note_on_c, 0, 57, 0
2, 49503, Note_on_c, 0, 80, 0
2, 49503, Note_on_c, 0, 77, 0
2, 49503, Note_on_c, 0, 73, 0
2, 49503, Note_on_c, 0, 68, 0
2, 49505, Note_on_c, 0, 56, 0
2, 49507, Note_on_c, 0, 41, 0
2, 49547, Note_on_c, 0, 80, 80
2, 49549, Note_on_c, 0, 68, 80
2, 49549, Note_on_c, 0, 73, 80
2, 49549, Note_on_c, 0, 77, 80
2, 49585, Note_on_c, 0, 53, 80
2, 49587, Note_on_c, 0, 37, 80
2, 49609, Note_on_c, 0, 77, 0
2, 49609, Note_on_c, 0, 73, 0
2, 49609, Note_on_c, 0, 80, 0
2, 49609, Note_on_c, 0, 68, 0
2, 49624, Note_on_c, 0, 37, 0
2, 49653, Note_on_c, 0, 68, 80
2, 49653, Note_on_c, 0, 72, 80
2, 49653, Note_on_c, 0, 76, 80
2, 49653, Note_on_c, 0, 80, 80
2, 49689, Note_on_c, 0, 52, 80
2, 49691, Note_on_c, 0, 36, 80
2, 49693, Note_on_c, 0, 53, 0
2, 49726, Note_on_c, 0, 36, 0
2, 49748, Note_on_c, 0, 80, 0
2, 49748, Note_on_c, 0, 76, 0
2, 49748, Note_on_c, 0, 68, 0
2, 49748, Note_on_c, 0, 72, 0
2, 49790, Note_on_c, 0, 77, 80
2, 49792, Note_on_c, 0, 51, 80
2, 49792, Note_on_c, 0, 65, 80
2, 49792, Note_on_c, 0, 69, 80
2, 49792, Note_on_c, 0, 75, 80
2, 49794, Note_on_c, 0, 35, 80
2, 49796, Note_on_c, 0, 52, 0
2, 49828, Note_on_c, 0, 35, 0
2, 49848, Note_on_c, 0, 69, 0
2, 49848, Note_on_c, 0, 65, 0
2, 49848, Note_on_c, 0, 77, 0
2, 49848, Note_on_c, 0, 75, 0
2, 49856, Note_on_c, 0, 78, 80
2, 49858, Note_on_c, 0, 66, 80
2, 49893, Note_on_c, 0, 74, 80
2, 49893, Note_on_c, 0, 77, 80
2, 49893, Note_on_c, 0, 82, 80
2, 49895, Note_on_c, 0, 70, 80
2, 49896, Note_on_c, 0, 78, 0
2, 49896, Note_on_c, 0, 34, 80
2, 49896, Note_on_c, 0, 50, 80
2, 49898, Note_on_c, 0, 51, 0
2, 49898, Note_on_c, 0, 66, 0
2, 49919, Note_on_c, 0, 70, 0
2, 49919, Note_on_c, 0, 74, 0
2, 49919, Note_on_c, 0, 77, 0
2, 49919, Note_on_c, 0, 82, 0
2, 49935, Note_on_c, 0, 34, 0
2, 49966, Note_on_c, 0, 70, 80
2, 49966, Note_on_c, 0, 72, 80
2, 49966, Note_on_c, 0, 75, 80
2, 49966, Note_on_c, 0, 82, 80
2, 49996, Note_on_c, 0, 50, 0
2, 50004, Note_on_c, 0, 51, 80
2, 50006, Note_on_c, 0, 36, 80
2, 50028, Note_on_c, 0, 75, 0
2, 50028, Note_on_c, 0, 82, 0
2, 50028, Note_on_c, 0, 70, 0
2, 50028, Note_on_c, 0, 72, 0
2, 50042, Note_on_c, 0, 36, 0
2, 50069, Note_on_c, 0, 70, 80
2, 50069, Note_on_c, 0, 73, 80
2, 50069, Note_on_c, 0, 76, 80
2, 50069, Note_on_c, 0, 82, 80
2, 50108, Note_on_c, 0, 52, 80
2, 50110, Note_on_c, 0, 37, 80
2, 50112, Note_on_c, 0, 51, 0
2, 50148, Note_on_c, 0, 37, 0
2, 50168, Note_on_c, 0, 82, 0
2, 50170, Note_on_c, 0, 76, 0
2, 50170, Note_on_c, 0, 70, 0
2, 50170, Note_on_c, 0, 73, 0
2, 50178, Note_on_c, 0, 71, 80
2, 50178, Note_on_c, 0, 83, 80
2, 50214, Note_on_c, 0, 70, 80
2, 50214, Note_on_c, 0, 74, 80
2, 50214, Note_on_c, 0, 77, 80
2, 50214, Note_on_c, 0, 82, 80
2, 50216, Note_on_c, 0, 83, 0
2, 50216, Note_on_c, 0, 71, 0
2, 50218, Note_on_c, 0, 38, 80
2, 50218, Note_on_c, 0, 53, 80
2, 50220, Note_on_c, 0, 52, 0
2, 50255, Note_on_c, 0, 38, 0
2, 50275, Note_on_c, 0, 77, 0
2, 50275, Note_on_c, 0, 82, 0
2, 50277, Note_on_c, 0, 70, 0
2, 50277, Note_on_c, 0, 74, 0
2, 50277, Note_on_c, 0, 53, 0
2, 50284, Note_on_c, 0, 54, 80
2, 50284, Note_on_c, 0, 69, 80
2, 50284, Note_on_c, 0, 81, 80
2, 50321, Note_on_c, 0, 55, 80
2, 50321, Note_on_c, 0, 70, 80
2, 50321, Note_on_c, 0, 73, 80
2, 50321, Note_on_c, 0, 79, 80
2, 50321, Note_on_c, 0, 82, 80
2, 50323, Note_on_c, 0, 81, 0
2, 50323, Note_on_c, 0, 69, 0
2, 50323, Note_on_c, 0, 39, 80
2, 50325, Note_on_c, 0, 54, 0
2, 50347, Note_on_c, 0, 79, 0
2, 50347, Note_on_c, 0, 82, 0
2, 50347, Note_on_c, 0, 70, 0
2, 50347, Note_on_c, 0, 73, 0
2, 50361, Note_on_c, 0, 39, 0
2, 50390, Note_on_c, 0, 70, 80
2, 50390, Note_on_c, 0, 73, 80
2, 50390, Note_on_c, 0, 79, 80
2, 50390, Note_on_c, 0, 82, 80
2, 50428, Note_on_c, 0, 58, 80
2, 50428, Note_on_c, 0, 61, 80
2, 50428, Note_on_c, 0, 63, 80
2, 50428, Note_on_c, 0, 67, 80
2, 50452, Note_on_c, 0, 67, 0
2, 50452, Note_on_c, 0, 82, 0
2, 50452, Note_on_c, 0, 79, 0
2, 50452, Note_on_c, 0, 73, 0
2, 50452, Note_on_c, 0, 70, 0
2, 50454, Note_on_c, 0, 61, 0
2, 50454, Note_on_c, 0, 63, 0
2, 50454, Note_on_c, 0, 58, 0
2, 50499, Note_on_c, 0, 70, 80
2, 50499, Note_on_c, 0, 73, 80
2, 50499, Note_on_c, 0, 79, 80
2, 50499, Note_on_c, 0, 82, 80
2, 50534, Note_on_c, 0, 39, 80
2, 50534, Note_on_c, 0, 51, 80
2, 50536, Note_on_c, 0, 55, 0
2, 50536, Control_c, 0, 64, 127
2, 50585, Note_on_c, 0, 39, 0
2, 50597, Note_on_c, 0, 51, 0
2, 50605, Note_on_c, 0, 41, 80
2, 50605, Note_on_c, 0, 53, 80
2, 50617, Control_c, 0, 64, 0
2, 50640, Note_on_c, 0, 39, 80
2, 50640, Note_on_c, 0, 51, 80
2, 50641, Note_on_c, 0, 53, 0
2, 50641, Note_on_c, 0, 41, 0
2, 50700, Note_on_c, 0, 51, 0
2, 50700, Note_on_c, 0, 39, 0
2, 50706, Note_on_c, 0, 49, 80
2, 50708, Note_on_c, 0, 37, 80
2, 50740, Note_on_c, 0, 36, 80
2, 50740, Note_on_c, 0, 48, 80
2, 50742, Note_on_c, 0, 37, 0
2, 50742, Note_on_c, 0, 82, 0
2, 50742, Note_on_c, 0, 79, 0
2, 50742, Note_on_c, 0, 73, 0
2, 50742, Note_on_c, 0, 70, 0
2, 50742, Note_on_c, 0, 49, 0
2, 50777, Note_on_c, 0, 48, 0
2, 50777, Note_on_c, 0, 36, 0
2, 50808, Note_on_c, 0, 82, 80
2, 50842, Note_on_c, 0, 76, 80
2, 50844, Note_on_c, 0, 56, 80
2, 50844, Note_on_c, 0, 60, 80
2, 50844, Note_on_c, 0, 64, 80
2, 50844, Note_on_c, 0, 66, 80
2, 50846, Note_on_c, 0, 82, 0
2, 50868, Note_on_c, 0, 64, 0
2, 50868, Note_on_c, 0, 60, 0
2, 50868, Note_on_c, 0, 66, 0
2, 50870, Note_on_c, 0, 56, 0
2, 50880, Control_c, 0, 64, 127
2, 50904, Note_on_c, 0, 76, 0
2, 50912, Note_on_c, 0, 77, 80
2, 50947, Note_on_c, 0, 78, 80
2, 50947, Note_on_c, 0, 82, 80
2, 50949, Note_on_c, 0, 77, 0
2, 50961, Note_on_c, 0, 32, 80
2, 50965, Control_c, 0, 64, 0
2, 50989, Note_on_c, 0, 32, 0
2, 51009, Note_on_c, 0, 82, 0
2, 51009, Note_on_c, 0, 78, 0
2, 51017, Note_on_c, 0, 75, 80
2, 51017, Note_on_c, 0, 80, 80
2, 51053, Note_on_c, 0, 82, 80
2, 51055, Note_on_c, 0, 56, 80
2, 51055, Note_on_c, 0, 60, 80
2, 51055, Note_on_c, 0, 64, 80
2, 51055, Note_on_c, 0, 66, 80
2, 51055, Note_on_c, 0, 72, 80
2, 51055, Note_on_c, 0, 76, 80
2, 51057, Note_on_c, 0, 80, 0
2, 51057, Note_on_c, 0, 75, 0
2, 51077, Note_on_c, 0, 82, 0
2, 51079, Note_on_c, 0, 66, 0
2, 51079, Note_on_c, 0, 64, 0
2, 51079, Note_on_c, 0, 60, 0
2, 51079, Note_on_c, 0, 76, 0
2, 51079, Note_on_c, 0, 56, 0
2, 51079, Note_on_c, 0, 72, 0
2, 51121, Note_on_c, 0, 70, 80
2, 51121, Note_on_c, 0, 77, 80
2, 51121, Note_on_c, 0, 80, 80
2, 51121, Note_on_c, 0, 85, 80
2, 51158, Note_on_c, 0, 61, 80
2, 51160, Note_on_c, 0, 49, 80
2, 51220, Note_on_c, 0, 49, 0
2, 51220, Note_on_c, 0, 61, 0
2, 51265, Note_on_c, 0, 48, 80
2, 51265, Note_on_c, 0, 60, 80
2, 51267, Note_on_c, 0, 80, 0
2, 51267, Note_on_c, 0, 85, 0
2, 51267, Note_on_c, 0, 70, 0
2, 51267, Note_on_c, 0, 77, 0
2, 51336, Note_on_c, 0, 73, 80
2, 51336, Note_on_c, 0, 77, 80
2, 51336, Note_on_c, 0, 80, 80
2, 51336, Note_on_c, 0, 85, 80
2, 51373, Note_on_c, 0, 47, 80
2, 51373, Note_on_c, 0, 59, 80
2, 51375, Note_on_c, 0, 60, 0
2, 51375, Note_on_c, 0, 48, 0
2, 51435, Note_on_c, 0, 85, 0
2, 51435, Note_on_c, 0, 73, 0
2, 51435, Note_on_c, 0, 80, 0
2, 51435, Note_on_c, 0, 59, 0
2, 51435, Note_on_c, 0, 47, 0
2, 51435, Note_on_c, 0, 77, 0
2, 51443, Note_on_c, 0, 75, 80
2, 51443, Note_on_c, 0, 87, 80
2, 51478, Note_on_c, 0, 56, 80
2, 51478, Note_on_c, 0, 59, 80
2, 51478, Note_on_c, 0, 61, 80
2, 51478, Note_on_c, 0, 65, 80
2, 51478, Note_on_c, 0, 76, 80
2, 51478, Note_on_c, 0, 88, 80
2, 51480, Note_on_c, 0, 87, 0
2, 51481, Note_on_c, 0, 75, 0
2, 51504, Note_on_c, 0, 59, 0
2, 51504, Note_on_c, 0, 56, 0
2, 51504, Note_on_c, 0, 61, 0
2, 51504, Note_on_c, 0, 65, 0
2, 51542, Note_on_c, 0, 88, 0
2, 51542, Note_on_c, 0, 76, 0
2, 51550, Note_on_c, 0, 77, 80
2, 51550, Note_on_c, 0, 89, 80
2, 51584, Note_on_c, 0, 73, 80
2, 51584, Note_on_c, 0, 82, 80
2, 51586, Note_on_c, 0, 46, 80
2, 51586, Note_on_c, 0, 58, 80
2, 51586, Note_on_c, 0, 78, 80
2, 51586, Note_on_c, 0, 85, 80
2, 51588, Note_on_c, 0, 89, 0
2, 51588, Note_on_c, 0, 77, 0
2, 51610, Note_on_c, 0, 82, 0
2, 51612, Note_on_c, 0, 73, 0
2, 51612, Note_on_c, 0, 85, 0
2, 51612, Note_on_c, 0, 78, 0
2, 51634, Note_on_c, 0, 58, 0
2, 51634, Note_on_c, 0, 46, 0
2, 51654, Note_on_c, 0, 82, 80
2, 51656, Note_on_c, 0, 73, 80
2, 51656, Note_on_c, 0, 78, 80
2, 51656, Note_on_c, 0, 85, 80
2, 51691, Note_on_c, 0, 58, 80
2, 51691, Note_on_c, 0, 61, 80
2, 51691, Note_on_c, 0, 63, 80
2, 51691, Note_on_c, 0, 66, 80
2, 51718, Note_on_c, 0, 66, 0
2, 51718, Note_on_c, 0, 78, 0
2, 51718, Note_on_c, 0, 82, 0
2, 51720, Note_on_c, 0, 61, 0
2, 51720, Note_on_c, 0, 85, 0
2, 51720, Note_on_c, 0, 58, 0
2, 51720, Note_on_c, 0, 63, 0
2, 51720, Note_on_c, 0, 73, 0
2, 51765, Note_on_c, 0, 73, 80
2, 51765, Note_on_c, 0, 75, 80
2, 51765, Note_on_c, 0, 78, 80
2, 51765, Note_on_c, 0, 81, 80
2, 51765, Note_on_c, 0, 85, 80
2, 51801, Note_on_c, 0, 45, 80
2, 51801, Note_on_c, 0, 57, 80
2, 51803, Control_c, 0, 64, 127
2, 51864, Note_on_c, 0, 57, 0
2, 51864, Note_on_c, 0, 45, 0
2, 51886, Control_c, 0, 64, 0
2, 51908, Note_on_c, 0, 57, 80
2, 51908, Note_on_c, 0, 61, 80
2, 51908, Note_on_c, 0, 63, 80
2, 51908, Note_on_c, 0, 66, 80
2, 51932, Note_on_c, 0, 66, 0
2, 51932, Note_on_c, 0, 63, 0
2, 51932, Note_on_c, 0, 61, 0
2, 51932, Note_on_c, 0, 57, 0
2, 51966, Note_on_c, 0, 85, 0
2, 51966, Note_on_c, 0, 78, 0
2, 51966, Note_on_c, 0, 81, 0
2, 51966, Note_on_c, 0, 75, 0
2, 51966, Note_on_c, 0, 73, 0
2, 52015, Note_on_c, 0, 73, 80
2, 52015, Note_on_c, 0, 77, 80
2, 52015, Note_on_c, 0, 80, 80
2, 52015, Note_on_c, 0, 85, 80
2, 52017, Note_on_c, 0, 44, 80
2, 52028, Note_on_c, 0, 56, 80
2, 52077, Note_on_c, 0, 56, 0
2, 52077, Note_on_c, 0, 77, 0
2, 52077, Note_on_c, 0, 80, 0
2, 52077, Note_on_c, 0, 73, 0
2, 52077, Note_on_c, 0, 44, 0
2, 52077, Note_on_c, 0, 85, 0
2, 52122, Note_on_c, 0, 58, 80
2, 52122, Note_on_c, 0, 61, 80
2, 52122, Note_on_c, 0, 65, 80
2, 52134, Note_on_c, 0, 56, 80
2, 52149, Note_on_c, 0, 56, 0
2, 52149, Note_on_c, 0, 58, 0
2, 52149, Note_on_c, 0, 61, 0
2, 52149, Note_on_c, 0, 65, 0
2, 52191, Note_on_c, 0, 73, 80
2, 52191, Note_on_c, 0, 75, 80
2, 52191, Note_on_c, 0, 78, 80
2, 52191, Note_on_c, 0, 82, 80
2, 52191, Note_on_c, 0, 85, 80
2, 52225, Note_on_c, 0, 42, 80
2, 52225, Note_on_c, 0, 54, 80
2, 52252, Note_on_c, 0, 75, 0
2, 52287, Note_on_c, 0, 42, 0
2, 52287, Note_on_c, 0, 54, 0
2, 52289, Note_on_c, 0, 82, 0
2, 52289, Note_on_c, 0, 73, 0
2, 52289, Note_on_c, 0, 78, 0
2, 52289, Note_on_c, 0, 85, 0
2, 52296, Note_on_c, 0, 75, 80
2, 52296, Note_on_c, 0, 87, 80
2, 52331, Note_on_c, 0, 58, 80
2, 52331, Note_on_c, 0, 61, 80
2, 52331, Note_on_c, 0, 66, 80
2, 52331, Note_on_c, 0, 76, 80
2, 52331, Note_on_c, 0, 88, 80
2, 52333, Note_on_c, 0, 87, 0
2, 52335, Note_on_c, 0, 75, 0
2, 52357, Note_on_c, 0, 61, 0
2, 52357, Note_on_c, 0, 66, 0
2, 52357, Note_on_c, 0, 58, 0
2, 52392, Note_on_c, 0, 88, 0
2, 52392, Note_on_c, 0, 76, 0
2, 52399, Note_on_c, 0, 77, 80
2, 52399, Note_on_c, 0, 89, 80
2, 52432, Note_on_c, 0, 41, 80
2, 52434, Note_on_c, 0, 53, 80
2, 52434, Note_on_c, 0, 73, 80
2, 52434, Note_on_c, 0, 85, 80
2, 52436, Note_on_c, 0, 77, 0
2, 52438, Note_on_c, 0, 89, 0
2, 52462, Note_on_c, 0, 73, 0
2, 52462, Note_on_c, 0, 85, 0
2, 52484, Note_on_c, 0, 41, 0
2, 52486, Note_on_c, 0, 53, 0
2, 52506, Note_on_c, 0, 73, 80
2, 52506, Note_on_c, 0, 77, 80
2, 52506, Note_on_c, 0, 80, 80
2, 52506, Note_on_c, 0, 85, 80
2, 52542, Note_on_c, 0, 65, 80
2, 52544, Note_on_c, 0, 56, 80
2, 52544, Note_on_c, 0, 58, 80
2, 52544, Note_on_c, 0, 61, 80
2, 52568, Note_on_c, 0, 61, 0
2, 52568, Note_on_c, 0, 73, 0
2, 52568, Note_on_c, 0, 65, 0
2, 52568, Note_on_c, 0, 77, 0
2, 52568, Note_on_c, 0, 80, 0
2, 52568, Note_on_c, 0, 85, 0
2, 52568, Note_on_c, 0, 56, 0
2, 52568, Note_on_c, 0, 58, 0
2, 52613, Control_c, 0, 64, 127
2, 52613, Note_on_c, 0, 79, 80
2, 52613, Note_on_c, 0, 85, 80
2, 52615, Note_on_c, 0, 73, 80
2, 52615, Note_on_c, 0, 76, 80
2, 52615, Note_on_c, 0, 82, 80
2, 52648, Note_on_c, 0, 40, 80
2, 52648, Note_on_c, 0, 52, 80
2, 52697, Control_c, 0, 64, 0
2, 52711, Note_on_c, 0, 52, 0
2, 52711, Note_on_c, 0, 40, 0
2, 52713, Note_on_c, 0, 85, 0
2, 52713, Note_on_c, 0, 73, 0
2, 52713, Note_on_c, 0, 79, 0
2, 52713, Note_on_c, 0, 82, 0
2, 52713, Note_on_c, 0, 76, 0
2, 52755, Note_on_c, 0, 58, 80
2, 52755, Note_on_c, 0, 61, 80
2, 52755, Note_on_c, 0, 64, 80
2, 52755, Note_on_c, 0, 67, 80
2, 52784, Note_on_c, 0, 67, 0
2, 52784, Note_on_c, 0, 58, 0
2, 52784, Note_on_c, 0, 61, 0
2, 52784, Note_on_c, 0, 64, 0
2, 52868, Note_on_c, 0, 39, 80
2, 52868, Note_on_c, 0, 51, 80
2, 52868, Note_on_c, 0, 73, 80
2, 52868, Note_on_c, 0, 75, 80
2, 52868, Note_on_c, 0, 78, 80
2, 52868, Note_on_c, 0, 82, 80
2, 52868, Note_on_c, 0, 85, 80
2, 52928, Note_on_c, 0, 78, 0
2, 52928, Note_on_c, 0, 73, 0
2, 52930, Note_on_c, 0, 82, 0
2, 52930, Note_on_c, 0, 75, 0
2, 52930, Note_on_c, 0, 85, 0
2, 52972, Note_on_c, 0, 41, 80
2, 52974, Note_on_c, 0, 39, 0
2, 52974, Note_on_c, 0, 53, 80
2, 52976, Note_on_c, 0, 51, 0
2, 53043, Note_on_c, 0, 73, 80
2, 53043, Note_on_c, 0, 78, 80
2, 53043, Note_on_c, 0, 82, 80
2, 53043, Note_on_c, 0, 85, 80
2, 53067, Note_on_c, 0, 41, 0
2, 53075, Note_on_c, 0, 42, 80
2, 53077, Note_on_c, 0, 54, 80
2, 53081, Note_on_c, 0, 53, 0
2, 53136, Note_on_c, 0, 73, 0
2, 53136, Note_on_c, 0, 78, 0
2, 53136, Note_on_c, 0, 82, 0
2, 53136, Note_on_c, 0, 85, 0
2, 53143, Note_on_c, 0, 75, 80
2, 53143, Note_on_c, 0, 87, 80
2, 53176, Note_on_c, 0, 43, 80
2, 53178, Note_on_c, 0, 55, 80
2, 53180, Note_on_c, 0, 54, 0
2, 53180, Note_on_c, 0, 42, 0
2, 53180, Note_on_c, 0, 76, 80
2, 53180, Note_on_c, 0, 88, 80
2, 53182, Note_on_c, 0, 87, 0
2, 53182, Note_on_c, 0, 75, 0
2, 53238, Note_on_c, 0, 76, 0
2, 53238, Note_on_c, 0, 88, 0
2, 53246, Note_on_c, 0, 77, 80
2, 53248, Note_on_c, 0, 89, 80
2, 53280, Note_on_c, 0, 44, 80
2, 53280, Note_on_c, 0, 56, 80
2, 53280, Note_on_c, 0, 78, 80
2, 53282, Note_on_c, 0, 55, 0
2, 53282, Note_on_c, 0, 43, 0
2, 53282, Note_on_c, 0, 82, 80
2, 53282, Note_on_c, 0, 85, 80
2, 53284, Note_on_c, 0, 89, 0
2, 53284, Note_on_c, 0, 77, 0
2, 53308, Note_on_c, 0, 82, 0
2, 53308, Note_on_c, 0, 78, 0
2, 53308, Note_on_c, 0, 85, 0
2, 53328, Note_on_c, 0, 56, 0
2, 53328, Note_on_c, 0, 44, 0
2, 53352, Note_on_c, 0, 75, 80
2, 53352, Note_on_c, 0, 85, 80
2, 53385, Note_on_c, 0, 58, 80
2, 53385, Note_on_c, 0, 61, 80
2, 53385, Note_on_c, 0, 66, 80
2, 53387, Note_on_c, 0, 76, 80
2, 53391, Note_on_c, 0, 75, 0
2, 53411, Note_on_c, 0, 58, 0
2, 53411, Note_on_c, 0, 61, 0
2, 53411, Note_on_c, 0, 85, 0
2, 53411, Note_on_c, 0, 76, 0
2, 53411, Note_on_c, 0, 66, 0
2, 53456, Note_on_c, 0, 77, 80
2, 53456, Note_on_c, 0, 80, 80
2, 53491, Note_on_c, 0, 44, 80
2, 53501, Note_on_c, 0, 32, 80
2, 53530, Note_on_c, 0, 32, 0
2, 53530, Note_on_c, 0, 44, 0
2, 53557, Note_on_c, 0, 80, 0
2, 53557, Note_on_c, 0, 77, 0
2, 53568, Note_on_c, 0, 68, 80
2, 53602, Note_on_c, 0, 56, 80
2, 53602, Note_on_c, 0, 60, 80
2, 53602, Note_on_c, 0, 63, 80
2, 53602, Note_on_c, 0, 66, 80
2, 53602, Note_on_c, 0, 75, 80
2, 53602, Note_on_c, 0, 78, 80
2, 53606, Note_on_c, 0, 68, 0
2, 53628, Note_on_c, 0, 66, 0
2, 53628, Note_on_c, 0, 56, 0
2, 53628, Note_on_c, 0, 63, 0
2, 53628, Note_on_c, 0, 60, 0
2, 53661, Note_on_c, 0, 78, 0
2, 53663, Note_on_c, 0, 75, 0
2, 53670, Note_on_c, 0, 68, 80
2, 53701, Note_on_c, 0, 49, 80
2, 53703, Note_on_c, 0, 61, 80
2, 53703, Note_on_c, 0, 73, 80
2, 53703, Note_on_c, 0, 77, 80
2, 53705, Note_on_c, 0, 68, 0
2, 53807, Note_on_c, 0, 48, 80
2, 53807, Note_on_c, 0, 60, 80
2, 53808, Note_on_c, 0, 49, 0
2, 53808, Note_on_c, 0, 61, 0
2, 53810, Note_on_c, 0, 77, 0
2, 53810, Note_on_c, 0, 73, 0
2, 53876, Note_on_c, 0, 70, 80
2, 53876, Note_on_c, 0, 77, 80
2, 53876, Note_on_c, 0, 80, 80
2, 53876, Note_on_c, 0, 85, 80
2, 53908, Note_on_c, 0, 47, 80
2, 53910, Note_on_c, 0, 59, 80
2, 53912, Note_on_c, 0, 60, 0
2, 53912, Note_on_c, 0, 48, 0
2, 53971, Note_on_c, 0, 70, 0
2, 53971, Note_on_c, 0, 59, 0
2, 53971, Note_on_c, 0, 47, 0
2, 53973, Note_on_c, 0, 77, 0
2, 53973, Note_on_c, 0, 80, 0
2, 53973, Note_on_c, 0, 85, 0
2, 53980, Note_on_c, 0, 75, 80
2, 53980, Note_on_c, 0, 87, 80
2, 54017, Note_on_c, 0, 56, 80
2, 54017, Note_on_c, 0, 59, 80
2, 54017, Note_on_c, 0, 61, 80
2, 54017, Note_on_c, 0, 65, 80
2, 54017, Note_on_c, 0, 76, 80
2, 54019, Note_on_c, 0, 88, 80
2, 54021, Note_on_c, 0, 87, 0
2, 54021, Note_on_c, 0, 75, 0
2, 54043, Note_on_c, 0, 59, 0
2, 54043, Note_on_c, 0, 56, 0
2, 54043, Note_on_c, 0, 61, 0
2, 54043, Note_on_c, 0, 65, 0
2, 54081, Note_on_c, 0, 76, 0
2, 54083, Note_on_c, 0, 88, 0
2, 54089, Note_on_c, 0, 77, 80
2, 54091, Note_on_c, 0, 89, 80
2, 54123, Note_on_c, 0, 46, 80
2, 54125, Note_on_c, 0, 58, 80
2, 54127, Note_on_c, 0, 73, 80
2, 54127, Note_on_c, 0, 75, 80
2, 54127, Note_on_c, 0, 78, 80
2, 54127, Note_on_c, 0, 82, 80
2, 54127, Note_on_c, 0, 85, 80
2, 54129, Note_on_c, 0, 77, 0
2, 54131, Note_on_c, 0, 89, 0
2, 54153, Note_on_c, 0, 82, 0
2, 54153, Note_on_c, 0, 73, 0
2, 54153, Note_on_c, 0, 78, 0
2, 54155, Note_on_c, 0, 75, 0
2, 54155, Note_on_c, 0, 85, 0
2, 54177, Note_on_c, 0, 58, 0
2, 54188, Note_on_c, 0, 46, 0
2, 54200, Note_on_c, 0, 73, 80
2, 54200, Note_on_c, 0, 75, 80
2, 54202, Note_on_c, 0, 78, 80
2, 54202, Note_on_c, 0, 82, 80
2, 54202, Note_on_c, 0, 85, 80
2, 54239, Note_on_c, 0, 58, 80
2, 54239, Note_on_c, 0, 61, 80
2, 54239, Note_on_c, 0, 63, 80
2, 54239, Note_on_c, 0, 66, 80
2, 54242, Note_on_c, 0, 85, 0
2, 54242, Note_on_c, 0, 82, 0
2, 54242, Note_on_c, 0, 73, 0
2, 54242, Note_on_c, 0, 78, 0
2, 54242, Note_on_c, 0, 75, 0
2, 54264, Note_on_c, 0, 58, 0
2, 54266, Note_on_c, 0, 66, 0
2, 54266, Note_on_c, 0, 63, 0
2, 54266, Note_on_c, 0, 61, 0
2, 54309, Control_c, 0, 64, 127
2, 54312, Note_on_c, 0, 73, 80
2, 54312, Note_on_c, 0, 78, 80
2, 54312, Note_on_c, 0, 81, 80
2, 54312, Note_on_c, 0, 85, 80
2, 54314, Note_on_c, 0, 75, 80
2, 54347, Note_on_c, 0, 45, 80
2, 54347, Note_on_c, 0, 57, 80
2, 54396, Control_c, 0, 64, 0
2, 54408, Note_on_c, 0, 57, 0
2, 54408, Note_on_c, 0, 45, 0
2, 54456, Note_on_c, 0, 57, 80
2, 54456, Note_on_c, 0, 61, 80
2, 54456, Note_on_c, 0, 63, 80
2, 54456, Note_on_c, 0, 66, 80
2, 54480, Note_on_c, 0, 66, 0
2, 54480, Note_on_c, 0, 63, 0
2, 54480, Note_on_c, 0, 61, 0
2, 54480, Note_on_c, 0, 57, 0
2, 54512, Note_on_c, 0, 73, 0
2, 54514, Note_on_c, 0, 85, 0
2, 54514, Note_on_c, 0, 75, 0
2, 54514, Note_on_c, 0, 81, 0
2, 54514, Note_on_c, 0, 78, 0
2, 54556, Note_on_c, 0, 44, 80
2, 54556, Note_on_c, 0, 56, 80
2, 54558, Note_on_c, 0, 70, 80
2, 54558, Note_on_c, 0, 77, 80
2, 54560, Note_on_c, 0, 80, 80
2, 54560, Note_on_c, 0, 85, 80
2, 54617, Note_on_c, 0, 56, 0
2, 54617, Note_on_c, 0, 44, 0
2, 54662, Note_on_c, 0, 56, 80
2, 54662, Note_on_c, 0, 58, 80
2, 54662, Note_on_c, 0, 61, 80
2, 54662, Note_on_c, 0, 65, 80
2, 54666, Note_on_c, 0, 80, 0
2, 54666, Note_on_c, 0, 70, 0
2, 54666, Note_on_c, 0, 77, 0
2, 54666, Note_on_c, 0, 85, 0
2, 54686, Note_on_c, 0, 56, 0
2, 54686, Note_on_c, 0, 65, 0
2, 54686, Note_on_c, 0, 58, 0
2, 54686, Note_on_c, 0, 61, 0
2, 54728, Control_c, 0, 64, 127
2, 54730, Note_on_c, 0, 73, 80
2, 54730, Note_on_c, 0, 75, 80
2, 54730, Note_on_c, 0, 78, 80
2, 54730, Note_on_c, 0, 82, 80
2, 54730, Note_on_c, 0, 85, 80
2, 54767, Note_on_c, 0, 42, 80
2, 54767, Note_on_c, 0, 54, 80
2, 54795, Note_on_c, 0, 75, 0
2, 54812, Control_c, 0, 64, 0
2, 54826, Note_on_c, 0, 42, 0
2, 54828, Note_on_c, 0, 73, 0
2, 54828, Note_on_c, 0, 54, 0
2, 54830, Note_on_c, 0, 82, 0
2, 54830, Note_on_c, 0, 85, 0
2, 54830, Note_on_c, 0, 78, 0
2, 54838, Note_on_c, 0, 75, 80
2, 54838, Note_on_c, 0, 87, 80
2, 54874, Note_on_c, 0, 58, 80
2, 54874, Note_on_c, 0, 61, 80
2, 54874, Note_on_c, 0, 66, 80
2, 54876, Note_on_c, 0, 76, 80
2, 54878, Note_on_c, 0, 88, 80
2, 54880, Note_on_c, 0, 87, 0
2, 54880, Note_on_c, 0, 75, 0
2, 54900, Note_on_c, 0, 61, 0
2, 54900, Note_on_c, 0, 58, 0
2, 54902, Note_on_c, 0, 66, 0
2, 54938, Note_on_c, 0, 76, 0
2, 54938, Note_on_c, 0, 88, 0
2, 54944, Note_on_c, 0, 77, 80
2, 54946, Note_on_c, 0, 89, 80
2, 54981, Note_on_c, 0, 41, 80
2, 54984, Note_on_c, 0, 53, 80
2, 54984, Note_on_c, 0, 70, 80
2, 54984, Note_on_c, 0, 80, 80
2, 54984, Note_on_c, 0, 85, 80
2, 54986, Note_on_c, 0, 77, 0
2, 54988, Note_on_c, 0, 89, 0
2, 55010, Note_on_c, 0, 70, 0
2, 55010, Note_on_c, 0, 80, 0
2, 55012, Note_on_c, 0, 85, 0
2, 55045, Note_on_c, 0, 41, 0
2, 55047, Note_on_c, 0, 53, 0
2, 55055, Note_on_c, 0, 70, 80
2, 55055, Note_on_c, 0, 77, 80
2, 55055, Note_on_c, 0, 80, 80
2, 55056, Note_on_c, 0, 85, 80
2, 55091, Note_on_c, 0, 56, 80
2, 55091, Note_on_c, 0, 58, 80
2, 55091, Note_on_c, 0, 61, 80
2, 55091, Note_on_c, 0, 65, 80
2, 55118, Note_on_c, 0, 65, 0
2, 55118, Note_on_c, 0, 61, 0
2, 55118, Note_on_c, 0, 56, 0
2, 55118, Note_on_c, 0, 58, 0
2, 55120, Note_on_c, 0, 80, 0
2, 55120, Note_on_c, 0, 85, 0
2, 55120, Note_on_c, 0, 77, 0
2, 55120, Note_on_c, 0, 70, 0
2, 55162, Control_c, 0, 64, 127
2, 55164, Note_on_c, 0, 70, 80
2, 55164, Note_on_c, 0, 76, 80
2, 55164, Note_on_c, 0, 79, 80
2, 55164, Note_on_c, 0, 85, 80
2, 55199, Note_on_c, 0, 40, 80
2, 55199, Note_on_c, 0, 52, 80
2, 55244, Control_c, 0, 64, 0
2, 55258, Note_on_c, 0, 40, 0
2, 55260, Note_on_c, 0, 52, 0
2, 55302, Note_on_c, 0, 58, 80
2, 55302, Note_on_c, 0, 61, 80
2, 55302, Note_on_c, 0, 64, 80
2, 55302, Note_on_c, 0, 67, 80
2, 55326, Note_on_c, 0, 67, 0
2, 55326, Note_on_c, 0, 64, 0
2, 55326, Note_on_c, 0, 58, 0
2, 55326, Note_on_c, 0, 61, 0
2, 55328, Note_on_c, 0, 79, 0
2, 55328, Note_on_c, 0, 70, 0
2, 55330, Note_on_c, 0, 76, 0
2, 55330, Note_on_c, 0, 85, 0
2, 55363, Note_on_c, 0, 84, 80
2, 55373, Note_on_c, 0, 73, 80
2, 55373, Note_on_c, 0, 85, 80
2, 55377, Note_on_c, 0, 84, 0
2, 55438, Note_on_c, 0, 85, 0
2, 55438, Note_on_c, 0, 73, 0
2, 55443, Control_c, 0, 64, 127
2, 55478, Note_on_c, 0, 39, 80
2, 55478, Note_on_c, 0, 51, 80
2, 55480, Note_on_c, 0, 73, 80
2, 55482, Note_on_c, 0, 85, 80
2, 55518, Note_on_c, 0, 82, 80
2, 55520, Note_on_c, 0, 85, 0
2, 55520, Note_on_c, 0, 73, 0
2, 55526, Control_c, 0, 64, 0
2, 55586, Note_on_c, 0, 39, 0
2, 55588, Note_on_c, 0, 51, 0
2, 55588, Note_on_c, 0, 80, 80
2, 55590, Note_on_c, 0, 82, 0
2, 55623, Note_on_c, 0, 73, 80
2, 55625, Note_on_c, 0, 85, 80
2, 55627, Note_on_c, 0, 80, 0
2, 55651, Note_on_c, 0, 85, 0
2, 55651, Note_on_c, 0, 73, 0
2, 55656, Control_c, 0, 64, 127
2, 55693, Note_on_c, 0, 41, 80
2, 55697, Note_on_c, 0, 53, 80
2, 55697, Note_on_c, 0, 73, 80
2, 55697, Note_on_c, 0, 85, 80
2, 55729, Note_on_c, 0, 82, 80
2, 55731, Note_on_c, 0, 73, 0
2, 55733, Note_on_c, 0, 85, 0
2, 55737, Control_c, 0, 64, 0
2, 55790, Note_on_c, 0, 82, 0
2, 55798, Note_on_c, 0, 80, 80
2, 55834, Note_on_c, 0, 41, 0
2, 55834, Note_on_c, 0, 73, 80
2, 55836, Note_on_c, 0, 85, 80
2, 55838, Note_on_c, 0, 80, 0
2, 55838, Note_on_c, 0, 53, 0
2, 55860, Note_on_c, 0, 73, 0
2, 55862, Note_on_c, 0, 85, 0
2, 55868, Control_c, 0, 64, 127
2, 55904, Note_on_c, 0, 42, 80
2, 55904, Note_on_c, 0, 54, 80
2, 55906, Note_on_c, 0, 73, 80
2, 55908, Note_on_c, 0, 85, 80
2, 55941, Note_on_c, 0, 82, 80
2, 55943, Note_on_c, 0, 73, 0
2, 55944, Note_on_c, 0, 85, 0
2, 55981, Control_c, 0, 64, 0
2, 55999, Note_on_c, 0, 82, 0
2, 56007, Note_on_c, 0, 80, 80
2, 56041, Note_on_c, 0, 80, 0
2, 56041, Note_on_c, 0, 54, 0
2, 56041, Note_on_c, 0, 42, 0
2, 56041, Note_on_c, 0, 73, 80
2, 56041, Note_on_c, 0, 85, 80
2, 56065, Note_on_c, 0, 85, 0
2, 56065, Note_on_c, 0, 73, 0
2, 56106, Control_c, 0, 64, 127
2, 56108, Note_on_c, 0, 43, 80
2, 56108, Note_on_c, 0, 55, 80
2, 56110, Note_on_c, 0, 73, 80
2, 56110, Note_on_c, 0, 85, 80
2, 56144, Note_on_c, 0, 82, 80
2, 56146, Note_on_c, 0, 73, 0
2, 56148, Note_on_c, 0, 85, 0
2, 56186, Control_c, 0, 64, 0
2, 56205, Note_on_c, 0, 82, 0
2, 56210, Note_on_c, 0, 43, 0
2, 56212, Note_on_c, 0, 55, 0
2, 56212, Note_on_c, 0, 81, 80
2, 56245, Note_on_c, 0, 80, 80
2, 56249, Note_on_c, 0, 81, 0
2, 56305, Note_on_c, 0, 80, 0
2, 56313, Note_on_c, 0, 44, 80
2, 56315, Note_on_c, 0, 79, 80
2, 56350, Note_on_c, 0, 45, 80
2, 56352, Note_on_c, 0, 44, 0
2, 56352, Note_on_c, 0, 78, 80
2, 56353, Note_on_c, 0, 79, 0
2, 56419, Note_on_c, 0, 46, 80
2, 56421, Note_on_c, 0, 45, 0
2, 56421, Note_on_c, 0, 76, 80
2, 56424, Note_on_c, 0, 78, 0
2, 56455, Note_on_c, 0, 77, 80
2, 56459, Note_on_c, 0, 76, 0
2, 56516, Note_on_c, 0, 46, 0
2, 56520, Note_on_c, 0, 77, 0
2, 56523, Note_on_c, 0, 47, 80
2, 56527, Note_on_c, 0, 73, 80
2, 56562, Note_on_c, 0, 48, 80
2, 56562, Note_on_c, 0, 70, 80
2, 56564, Note_on_c, 0, 47, 0
2, 56566, Note_on_c, 0, 73, 0
2, 56626, Note_on_c, 0, 70, 0
2, 56634, Note_on_c, 0, 68, 80
2, 56668, Note_on_c, 0, 49, 80
2, 56670, Note_on_c, 0, 65, 80
2, 56670, Note_on_c, 0, 73, 80
2, 56672, Note_on_c, 0, 48, 0
2, 56674, Note_on_c, 0, 68, 0
2, 56731, Note_on_c, 0, 65, 0
2, 56731, Note_on_c, 0, 49, 0
2, 56733, Note_on_c, 0, 73, 0
2, 56738, Note_on_c, 0, 44, 80
2, 56740, Note_on_c, 0, 70, 80
2, 56773, Note_on_c, 0, 38, 80
2, 56773, Note_on_c, 0, 45, 80
2, 56775, Note_on_c, 0, 44, 0
2, 56775, Note_on_c, 0, 54, 80
2, 56775, Note_on_c, 0, 60, 80
2, 56775, Note_on_c, 0, 64, 80
2, 56779, Note_on_c, 0, 70, 0
2, 56799, Note_on_c, 0, 45, 0
2, 56799, Note_on_c, 0, 38, 0
2, 56801, Note_on_c, 0, 54, 0
2, 56801, Note_on_c, 0, 60, 0
2, 56801, Note_on_c, 0, 64, 0
2, 56843, Control_c, 0, 64, 127
2, 56843, Note_on_c, 0, 37, 80
2, 56843, Note_on_c, 0, 44, 80
2, 56845, Note_on_c, 0, 53, 80
2, 56845, Note_on_c, 0, 58, 80
2, 56845, Note_on_c, 0, 63, 80
2, 57229, Note_on_c, 0, 44, 0
2, 57229, Note_on_c, 0, 37, 0
2, 57231, Note_on_c, 0, 58, 0
2, 57231, Note_on_c, 0, 53, 0
2, 57231, Note_on_c, 0, 63, 0
2, 57322, Control_c, 0, 64, 0
2, 57322, End_track
3, 0, Start_track
3, 0, Title_t, "c/b ""Jelly Roll"" Morton"
3, 0, End_track
4, 0, Start_track
4, 0, Title_t, "p/b J. Lawrence Cook"
4, 0, End_track
5, 0, Start_track
5, 0, Title_t, "QRS # 3269"
5, 0, End_track
6, 0, Start_track
6, 0, Title_t, "Scan of a player piano roll"
6, 0, End_track
7, 0, Start_track
7, 0, Title_t, "by Terry Smythe, Winnipeg, Canada"
7, 0, End_track
8, 0, Start_track
8, 1, Copyright_t, "___________________________________________________\012\012KUNSTDERFUGE.COM LARGE CLASSICAL MIDI COLLECTION\012ONCLASSICAL BY ALESSANDRO SIMONETTO, PROPRIETOR\012___________________________________________________\012\012! Attention: this file is under copyright !\012\012(c)onclassical, (nc)smythe, 2010\012___________________________________________________\012\012NO ONE MAY REPUBLISH THIS FILE WITHOUT PERMISSION\012COMMERCIAL USES OF THIS FILE IS STRICTLY PROHIBITED\012___________________________________________________\012\012Files & contributor's list: http://kunstderfuge.com/\012Terms and conditions: http://kunstderfuge.com/notes.htm"
8, 1, End_track
0, 0, End_of_file
