0, 0, Header, 1, 8, 192
1, 0, Start_track
1, 0, Title_t, "Mr. Jelly Lord"
1, 0, Copyright_t, "May NOT be used for commercial purposes."
1, 0, Text_t, "Roll expression/accent tracks, where present, converted to MIDI velocties.\012"
1, 0, Text_t, "/music_category: Piano_Roll\012"
1, 0, Text_t, "/title: Mr. Jelly Lord\012"
1, 0, Text_t, "/subtitle: \012"
1, 0, Text_t, "/roll_type: 88n\012"
1, 0, Text_t, "/roll_manufacturer: Aeolian\012"
1, 0, Text_t, "/roll_number: 1008\012"
1, 0, Text_t, "/performer: \012"
1, 0, Text_t, "/composer: Morton, Jelly Roll\012"
1, 0, Text_t, "/lyricist: Morton, Jelly Roll\012"
1, 0, Text_t, "/roll_copyright: 1923\012"
1, 0, Text_t, "/roll_date: \012"
1, 0, Text_t, "/scanned_by: Terry Smythe\012"
1, 0, Text_t, "/scan_system: Stibbons Mk3a\012"
1, 0, Text_t, "/date_scanned: 1 Dec 04\012"
1, 0, Text_t, "/owner: Terry Smythe\012"
1, 0, Time_signature, 4, 2, 24, 8
1, 0, Key_signature, 0, "major"
1, 0, Tempo, 500000
1, 0, Marker_t, "Standard MIDI:Standard 88:LPI 120:Tempo  75: 12-01-2004"
1, 0, End_track
2, 0, Start_track
2, 0, Title_t, "Mr. Jelly Lord"
2, 0, Program_c, 0, 0
2, 204, Note_on_c, 0, 81, 60
2, 211, Note_on_c, 0, 69, 60
2, 253, Note_on_c, 0, 81, 0
2, 255, Note_on_c, 0, 69, 0
2, 255, Note_on_c, 0, 70, 60
2, 255, Note_on_c, 0, 82, 60
2, 307, Note_on_c, 0, 82, 0
2, 307, Note_on_c, 0, 70, 0
2, 340, Note_on_c, 0, 83, 60
2, 345, Note_on_c, 0, 71, 60
2, 379, Note_on_c, 0, 83, 0
2, 381, Note_on_c, 0, 71, 0
2, 387, Note_on_c, 0, 84, 60
2, 387, Note_on_c, 0, 72, 60
2, 394, Note_on_c, 0, 39, 60
2, 394, Note_on_c, 0, 51, 60
2, 394, Control_c, 0, 64, 127
2, 417, Note_on_c, 0, 51, 0
2, 419, Note_on_c, 0, 39, 0
2, 424, Note_on_c, 0, 84, 0
2, 426, Note_on_c, 0, 72, 0
2, 466, Note_on_c, 0, 82, 60
2, 468, Note_on_c, 0, 70, 60
2, 501, Note_on_c, 0, 81, 60
2, 503, Note_on_c, 0, 69, 60
2, 503, Note_on_c, 0, 63, 60
2, 509, Note_on_c, 0, 58, 60
2, 511, Note_on_c, 0, 70, 0
2, 511, Note_on_c, 0, 82, 0
2, 515, Control_c, 0, 64, 0
2, 537, Note_on_c, 0, 63, 0
2, 537, Note_on_c, 0, 58, 0
2, 562, Note_on_c, 0, 69, 0
2, 562, Note_on_c, 0, 81, 0
2, 577, Note_on_c, 0, 79, 60
2, 579, Note_on_c, 0, 67, 60
2, 620, Note_on_c, 0, 84, 60
2, 622, Note_on_c, 0, 76, 60
2, 624, Note_on_c, 0, 72, 60
2, 624, Note_on_c, 0, 52, 60
2, 626, Note_on_c, 0, 40, 60
2, 628, Note_on_c, 0, 79, 0
2, 630, Note_on_c, 0, 67, 0
2, 663, Note_on_c, 0, 76, 0
2, 663, Note_on_c, 0, 84, 0
2, 665, Note_on_c, 0, 72, 0
2, 669, Note_on_c, 0, 40, 0
2, 675, Note_on_c, 0, 52, 0
2, 696, Note_on_c, 0, 82, 60
2, 701, Note_on_c, 0, 70, 60
2, 742, Note_on_c, 0, 82, 0
2, 742, Note_on_c, 0, 81, 60
2, 744, Note_on_c, 0, 70, 0
2, 744, Note_on_c, 0, 64, 60
2, 745, Note_on_c, 0, 69, 60
2, 745, Note_on_c, 0, 58, 60
2, 748, Note_on_c, 0, 61, 60
2, 771, Note_on_c, 0, 61, 0
2, 771, Note_on_c, 0, 64, 0
2, 771, Note_on_c, 0, 58, 0
2, 797, Note_on_c, 0, 69, 0
2, 803, Note_on_c, 0, 81, 0
2, 822, Note_on_c, 0, 79, 60
2, 822, Note_on_c, 0, 67, 60
2, 848, Note_on_c, 0, 67, 0
2, 848, Note_on_c, 0, 79, 0
2, 855, Note_on_c, 0, 74, 60
2, 855, Control_c, 0, 64, 127
2, 857, Note_on_c, 0, 77, 60
2, 859, Note_on_c, 0, 65, 60
2, 864, Note_on_c, 0, 53, 60
2, 864, Note_on_c, 0, 41, 60
2, 902, Note_on_c, 0, 77, 0
2, 902, Note_on_c, 0, 74, 0
2, 904, Note_on_c, 0, 53, 0
2, 904, Note_on_c, 0, 41, 0
2, 910, Note_on_c, 0, 65, 0
2, 944, Note_on_c, 0, 73, 60
2, 951, Note_on_c, 0, 61, 60
2, 967, Control_c, 0, 64, 0
2, 979, Note_on_c, 0, 74, 60
2, 989, Note_on_c, 0, 73, 0
2, 989, Note_on_c, 0, 70, 60
2, 991, Note_on_c, 0, 61, 0
2, 991, Note_on_c, 0, 62, 60
2, 991, Note_on_c, 0, 58, 60
2, 995, Note_on_c, 0, 53, 60
2, 1025, Note_on_c, 0, 58, 0
2, 1033, Note_on_c, 0, 62, 0
2, 1033, Note_on_c, 0, 74, 0
2, 1033, Note_on_c, 0, 70, 0
2, 1079, Note_on_c, 0, 69, 60
2, 1079, Note_on_c, 0, 65, 60
2, 1080, Note_on_c, 0, 59, 60
2, 1128, Note_on_c, 0, 38, 60
2, 1215, Note_on_c, 0, 59, 0
2, 1215, Note_on_c, 0, 65, 0
2, 1217, Note_on_c, 0, 53, 0
2, 1228, Note_on_c, 0, 38, 0
2, 1243, Note_on_c, 0, 55, 60
2, 1243, Note_on_c, 0, 62, 60
2, 1243, Note_on_c, 0, 65, 60
2, 1243, Note_on_c, 0, 53, 60
2, 1245, Note_on_c, 0, 59, 60
2, 1277, Note_on_c, 0, 59, 0
2, 1277, Note_on_c, 0, 55, 0
2, 1277, Note_on_c, 0, 62, 0
2, 1277, Note_on_c, 0, 65, 0
2, 1283, Note_on_c, 0, 69, 0
2, 1337, Note_on_c, 0, 79, 60
2, 1339, Note_on_c, 0, 67, 60
2, 1339, Note_on_c, 0, 76, 60
2, 1341, Note_on_c, 0, 36, 60
2, 1356, Note_on_c, 0, 76, 0
2, 1356, Note_on_c, 0, 79, 0
2, 1358, Note_on_c, 0, 53, 0
2, 1379, Note_on_c, 0, 36, 0
2, 1382, Note_on_c, 0, 79, 60
2, 1384, Note_on_c, 0, 67, 0
2, 1384, Note_on_c, 0, 70, 60
2, 1384, Note_on_c, 0, 76, 60
2, 1386, Note_on_c, 0, 82, 60
2, 1388, Note_on_c, 0, 52, 60
2, 1388, Note_on_c, 0, 43, 60
2, 1390, Control_c, 0, 64, 127
2, 1398, Note_on_c, 0, 79, 0
2, 1401, Note_on_c, 0, 76, 0
2, 1414, Note_on_c, 0, 43, 0
2, 1417, Note_on_c, 0, 70, 0
2, 1417, Note_on_c, 0, 82, 0
2, 1424, Note_on_c, 0, 84, 60
2, 1424, Note_on_c, 0, 76, 60
2, 1426, Note_on_c, 0, 79, 60
2, 1428, Note_on_c, 0, 72, 60
2, 1440, Note_on_c, 0, 52, 0
2, 1443, Note_on_c, 0, 79, 0
2, 1443, Note_on_c, 0, 76, 0
2, 1464, Note_on_c, 0, 82, 60
2, 1466, Note_on_c, 0, 84, 0
2, 1466, Note_on_c, 0, 79, 60
2, 1466, Note_on_c, 0, 70, 60
2, 1469, Note_on_c, 0, 72, 0
2, 1469, Note_on_c, 0, 76, 60
2, 1486, Note_on_c, 0, 76, 0
2, 1486, Note_on_c, 0, 79, 0
2, 1492, Control_c, 0, 64, 0
2, 1503, Note_on_c, 0, 82, 0
2, 1503, Note_on_c, 0, 70, 0
2, 1510, Note_on_c, 0, 76, 60
2, 1510, Note_on_c, 0, 79, 60
2, 1510, Note_on_c, 0, 72, 60
2, 1512, Note_on_c, 0, 64, 60
2, 1513, Note_on_c, 0, 67, 60
2, 1513, Note_on_c, 0, 60, 60
2, 1516, Note_on_c, 0, 58, 60
2, 1518, Note_on_c, 0, 55, 60
2, 1546, Note_on_c, 0, 55, 0
2, 1546, Note_on_c, 0, 58, 0
2, 1546, Note_on_c, 0, 64, 0
2, 1546, Note_on_c, 0, 60, 0
2, 1560, Note_on_c, 0, 79, 0
2, 1560, Note_on_c, 0, 67, 0
2, 1560, Note_on_c, 0, 76, 0
2, 1562, Note_on_c, 0, 72, 0
2, 1588, Note_on_c, 0, 66, 60
2, 1593, Note_on_c, 0, 78, 60
2, 1639, Note_on_c, 0, 69, 60
2, 1639, Note_on_c, 0, 77, 60
2, 1639, Note_on_c, 0, 65, 60
2, 1642, Note_on_c, 0, 66, 0
2, 1644, Note_on_c, 0, 53, 60
2, 1644, Note_on_c, 0, 41, 60
2, 1648, Note_on_c, 0, 78, 0
2, 1670, Note_on_c, 0, 41, 0
2, 1674, Note_on_c, 0, 69, 0
2, 1676, Note_on_c, 0, 65, 0
2, 1702, Note_on_c, 0, 77, 0
2, 1716, Note_on_c, 0, 73, 60
2, 1719, Note_on_c, 0, 69, 60
2, 1721, Note_on_c, 0, 65, 60
2, 1721, Note_on_c, 0, 61, 60
2, 1728, Note_on_c, 0, 53, 0
2, 1735, Note_on_c, 0, 65, 0
2, 1768, Note_on_c, 0, 65, 60
2, 1768, Note_on_c, 0, 74, 60
2, 1768, Note_on_c, 0, 63, 60
2, 1770, Note_on_c, 0, 57, 60
2, 1770, Note_on_c, 0, 60, 60
2, 1770, Note_on_c, 0, 53, 60
2, 1776, Note_on_c, 0, 73, 0
2, 1776, Note_on_c, 0, 69, 0
2, 1778, Note_on_c, 0, 61, 0
2, 1821, Note_on_c, 0, 57, 0
2, 1821, Note_on_c, 0, 65, 0
2, 1821, Note_on_c, 0, 60, 0
2, 1821, Note_on_c, 0, 63, 0
2, 1824, Note_on_c, 0, 53, 0
2, 1836, Note_on_c, 0, 74, 0
2, 1855, Note_on_c, 0, 70, 60
2, 1902, Note_on_c, 0, 46, 60
2, 1906, Note_on_c, 0, 58, 60
2, 1906, Control_c, 0, 64, 127
2, 1925, Note_on_c, 0, 58, 0
2, 1925, Note_on_c, 0, 70, 0
2, 1927, Note_on_c, 0, 46, 0
2, 1988, Note_on_c, 0, 77, 60
2, 1988, Note_on_c, 0, 65, 60
2, 2002, Control_c, 0, 64, 0
2, 2030, Note_on_c, 0, 74, 60
2, 2032, Note_on_c, 0, 77, 0
2, 2032, Note_on_c, 0, 79, 60
2, 2035, Note_on_c, 0, 65, 0
2, 2035, Note_on_c, 0, 67, 60
2, 2037, Note_on_c, 0, 45, 60
2, 2037, Note_on_c, 0, 41, 60
2, 2039, Note_on_c, 0, 48, 60
2, 2040, Note_on_c, 0, 53, 60
2, 2088, Note_on_c, 0, 53, 0
2, 2088, Note_on_c, 0, 45, 0
2, 2088, Note_on_c, 0, 41, 0
2, 2094, Note_on_c, 0, 74, 0
2, 2096, Note_on_c, 0, 48, 0
2, 2103, Note_on_c, 0, 67, 0
2, 2103, Note_on_c, 0, 79, 0
2, 2119, Note_on_c, 0, 77, 60
2, 2122, Note_on_c, 0, 65, 60
2, 2147, Note_on_c, 0, 77, 0
2, 2156, Note_on_c, 0, 65, 0
2, 2162, Note_on_c, 0, 74, 60
2, 2169, Note_on_c, 0, 53, 60
2, 2169, Note_on_c, 0, 62, 60
2, 2169, Note_on_c, 0, 46, 60
2, 2171, Note_on_c, 0, 58, 60
2, 2256, Note_on_c, 0, 46, 0
2, 2256, Note_on_c, 0, 53, 0
2, 2262, Note_on_c, 0, 58, 0
2, 2271, Note_on_c, 0, 62, 0
2, 2271, Note_on_c, 0, 74, 0
2, 2292, Note_on_c, 0, 41, 60
2, 2295, Note_on_c, 0, 53, 60
2, 2297, Note_on_c, 0, 77, 60
2, 2297, Note_on_c, 0, 72, 60
2, 2299, Note_on_c, 0, 69, 60
2, 2299, Note_on_c, 0, 75, 60
2, 2299, Note_on_c, 0, 65, 60
2, 2328, Note_on_c, 0, 41, 0
2, 2335, Note_on_c, 0, 69, 0
2, 2335, Note_on_c, 0, 72, 0
2, 2335, Note_on_c, 0, 75, 0
2, 2337, Note_on_c, 0, 53, 0
2, 2344, Note_on_c, 0, 77, 0
2, 2346, Note_on_c, 0, 65, 0
2, 2438, Note_on_c, 0, 50, 60
2, 2438, Note_on_c, 0, 38, 60
2, 2442, Control_c, 0, 64, 127
2, 2525, Note_on_c, 0, 60, 60
2, 2542, Note_on_c, 0, 62, 60
2, 2550, Note_on_c, 0, 63, 60
2, 2559, Note_on_c, 0, 64, 60
2, 2561, Note_on_c, 0, 60, 0
2, 2566, Note_on_c, 0, 65, 60
2, 2568, Note_on_c, 0, 62, 0
2, 2578, Note_on_c, 0, 63, 0
2, 2587, Note_on_c, 0, 64, 0
2, 2593, Control_c, 0, 64, 0
2, 2606, Note_on_c, 0, 65, 0
2, 2651, Note_on_c, 0, 64, 60
2, 2653, Note_on_c, 0, 69, 60
2, 2653, Note_on_c, 0, 57, 60
2, 2672, Note_on_c, 0, 38, 0
2, 2679, Note_on_c, 0, 50, 0
2, 2704, Note_on_c, 0, 49, 60
2, 2704, Note_on_c, 0, 37, 60
2, 2770, Note_on_c, 0, 64, 0
2, 2779, Note_on_c, 0, 69, 0
2, 2781, Note_on_c, 0, 57, 0
2, 2789, Note_on_c, 0, 68, 60
2, 2805, Note_on_c, 0, 68, 0
2, 2832, Note_on_c, 0, 64, 60
2, 2836, Note_on_c, 0, 68, 60
2, 2838, Note_on_c, 0, 58, 60
2, 2877, Note_on_c, 0, 67, 60
2, 2885, Note_on_c, 0, 68, 0
2, 2911, Note_on_c, 0, 64, 0
2, 2918, Note_on_c, 0, 67, 0
2, 2920, Note_on_c, 0, 69, 60
2, 2922, Note_on_c, 0, 58, 0
2, 2928, Note_on_c, 0, 49, 0
2, 2930, Note_on_c, 0, 37, 0
2, 2945, Note_on_c, 0, 69, 0
2, 2950, Note_on_c, 0, 67, 60
2, 2953, Note_on_c, 0, 63, 60
2, 2956, Note_on_c, 0, 57, 60
2, 2956, Note_on_c, 0, 36, 60
2, 2958, Note_on_c, 0, 48, 60
2, 2962, Control_c, 0, 64, 127
2, 3056, Note_on_c, 0, 57, 0
2, 3056, Note_on_c, 0, 63, 0
2, 3060, Note_on_c, 0, 67, 0
2, 3060, Control_c, 0, 64, 0
2, 3088, Note_on_c, 0, 66, 60
2, 3088, Note_on_c, 0, 63, 60
2, 3091, Note_on_c, 0, 57, 60
2, 3116, Note_on_c, 0, 63, 0
2, 3133, Note_on_c, 0, 66, 0
2, 3133, Note_on_c, 0, 57, 0
2, 3163, Note_on_c, 0, 48, 0
2, 3165, Note_on_c, 0, 36, 0
2, 3178, Note_on_c, 0, 65, 60
2, 3178, Note_on_c, 0, 63, 60
2, 3180, Note_on_c, 0, 57, 60
2, 3222, Note_on_c, 0, 48, 60
2, 3227, Note_on_c, 0, 41, 60
2, 3306, Control_c, 0, 64, 127
2, 3312, Note_on_c, 0, 48, 0
2, 3318, Note_on_c, 0, 63, 0
2, 3318, Note_on_c, 0, 65, 0
2, 3323, Note_on_c, 0, 41, 0
2, 3329, Note_on_c, 0, 57, 0
2, 3346, Note_on_c, 0, 53, 60
2, 3351, Note_on_c, 0, 41, 60
2, 3353, Note_on_c, 0, 77, 60
2, 3353, Note_on_c, 0, 65, 60
2, 3353, Note_on_c, 0, 75, 60
2, 3353, Control_c, 0, 64, 0
2, 3355, Note_on_c, 0, 72, 60
2, 3355, Note_on_c, 0, 69, 60
2, 3381, Note_on_c, 0, 53, 0
2, 3383, Note_on_c, 0, 41, 0
2, 3395, Note_on_c, 0, 77, 0
2, 3395, Note_on_c, 0, 75, 0
2, 3395, Note_on_c, 0, 65, 0
2, 3395, Note_on_c, 0, 69, 0
2, 3395, Note_on_c, 0, 72, 0
2, 3479, Note_on_c, 0, 50, 60
2, 3480, Note_on_c, 0, 38, 60
2, 3480, Control_c, 0, 64, 127
2, 3590, Control_c, 0, 64, 0
2, 3617, Note_on_c, 0, 61, 60
2, 3620, Note_on_c, 0, 55, 60
2, 3671, Note_on_c, 0, 61, 0
2, 3672, Note_on_c, 0, 55, 0
2, 3702, Note_on_c, 0, 62, 60
2, 3709, Note_on_c, 0, 38, 0
2, 3716, Note_on_c, 0, 50, 0
2, 3751, Note_on_c, 0, 62, 0
2, 3751, Note_on_c, 0, 49, 60
2, 3754, Note_on_c, 0, 64, 60
2, 3754, Note_on_c, 0, 69, 60
2, 3754, Note_on_c, 0, 37, 60
2, 3758, Note_on_c, 0, 58, 60
2, 3820, Note_on_c, 0, 64, 0
2, 3826, Note_on_c, 0, 69, 0
2, 3828, Note_on_c, 0, 58, 0
2, 3882, Note_on_c, 0, 64, 60
2, 3884, Note_on_c, 0, 58, 60
2, 3886, Note_on_c, 0, 67, 60
2, 3957, Note_on_c, 0, 67, 0
2, 3957, Note_on_c, 0, 64, 0
2, 3959, Note_on_c, 0, 58, 0
2, 3986, Note_on_c, 0, 49, 0
2, 3988, Note_on_c, 0, 37, 0
2, 4012, Note_on_c, 0, 63, 60
2, 4012, Note_on_c, 0, 67, 60
2, 4012, Note_on_c, 0, 57, 60
2, 4014, Note_on_c, 0, 48, 60
2, 4014, Note_on_c, 0, 36, 60
2, 4018, Control_c, 0, 64, 127
2, 4086, Note_on_c, 0, 67, 0
2, 4086, Note_on_c, 0, 63, 0
2, 4089, Note_on_c, 0, 57, 0
2, 4110, Control_c, 0, 64, 0
2, 4131, Note_on_c, 0, 57, 60
2, 4138, Note_on_c, 0, 66, 60
2, 4138, Note_on_c, 0, 63, 60
2, 4174, Note_on_c, 0, 63, 0
2, 4174, Note_on_c, 0, 66, 0
2, 4185, Note_on_c, 0, 57, 0
2, 4225, Note_on_c, 0, 63, 60
2, 4227, Note_on_c, 0, 65, 60
2, 4227, Note_on_c, 0, 57, 60
2, 4234, Note_on_c, 0, 48, 0
2, 4236, Note_on_c, 0, 36, 0
2, 4272, Note_on_c, 0, 48, 60
2, 4272, Note_on_c, 0, 41, 60
2, 4330, Note_on_c, 0, 41, 0
2, 4330, Note_on_c, 0, 48, 0
2, 4344, Note_on_c, 0, 63, 0
2, 4355, Note_on_c, 0, 40, 60
2, 4362, Note_on_c, 0, 65, 0
2, 4364, Note_on_c, 0, 57, 0
2, 4392, Note_on_c, 0, 52, 60
2, 4437, Note_on_c, 0, 40, 0
2, 4492, Note_on_c, 0, 41, 60
2, 4509, Note_on_c, 0, 52, 0
2, 4528, Control_c, 0, 64, 127
2, 4535, Note_on_c, 0, 53, 60
2, 4571, Note_on_c, 0, 41, 0
2, 4620, Note_on_c, 0, 73, 60
2, 4620, Note_on_c, 0, 68, 60
2, 4622, Note_on_c, 0, 61, 60
2, 4624, Note_on_c, 0, 53, 0
2, 4639, Note_on_c, 0, 68, 0
2, 4652, Note_on_c, 0, 74, 60
2, 4658, Note_on_c, 0, 53, 60
2, 4662, Control_c, 0, 64, 0
2, 4665, Note_on_c, 0, 73, 0
2, 4665, Note_on_c, 0, 62, 60
2, 4667, Note_on_c, 0, 61, 0
2, 4667, Note_on_c, 0, 58, 60
2, 4667, Note_on_c, 0, 68, 60
2, 4667, Note_on_c, 0, 56, 60
2, 4688, Note_on_c, 0, 68, 0
2, 4688, Note_on_c, 0, 62, 0
2, 4688, Note_on_c, 0, 74, 0
2, 4733, Note_on_c, 0, 58, 0
2, 4739, Note_on_c, 0, 80, 60
2, 4739, Note_on_c, 0, 74, 60
2, 4748, Note_on_c, 0, 86, 60
2, 4752, Note_on_c, 0, 56, 0
2, 4800, Note_on_c, 0, 34, 60
2, 4829, Note_on_c, 0, 34, 0
2, 4882, Note_on_c, 0, 74, 0
2, 4882, Note_on_c, 0, 80, 0
2, 4891, Note_on_c, 0, 86, 0
2, 4896, Note_on_c, 0, 53, 0
2, 4925, Note_on_c, 0, 85, 60
2, 4927, Note_on_c, 0, 80, 60
2, 4927, Note_on_c, 0, 73, 60
2, 4929, Note_on_c, 0, 62, 60
2, 4931, Note_on_c, 0, 56, 60
2, 4934, Note_on_c, 0, 58, 60
2, 4934, Note_on_c, 0, 53, 60
2, 4964, Note_on_c, 0, 80, 0
2, 4972, Note_on_c, 0, 85, 0
2, 4974, Note_on_c, 0, 73, 0
2, 4983, Note_on_c, 0, 62, 0
2, 4985, Note_on_c, 0, 58, 0
2, 5002, Note_on_c, 0, 56, 0
2, 5016, Note_on_c, 0, 86, 60
2, 5016, Note_on_c, 0, 80, 60
2, 5018, Note_on_c, 0, 74, 60
2, 5023, Note_on_c, 0, 39, 60
2, 5040, Note_on_c, 0, 53, 0
2, 5049, Note_on_c, 0, 39, 0
2, 5055, Note_on_c, 0, 74, 0
2, 5062, Note_on_c, 0, 79, 60
2, 5064, Note_on_c, 0, 80, 0
2, 5064, Note_on_c, 0, 84, 60
2, 5065, Note_on_c, 0, 72, 60
2, 5065, Note_on_c, 0, 55, 60
2, 5068, Note_on_c, 0, 46, 60
2, 5072, Note_on_c, 0, 86, 0
2, 5104, Note_on_c, 0, 46, 0
2, 5109, Control_c, 0, 64, 127
2, 5161, Note_on_c, 0, 79, 0
2, 5164, Note_on_c, 0, 72, 0
2, 5172, Note_on_c, 0, 84, 0
2, 5196, Note_on_c, 0, 71, 60
2, 5196, Note_on_c, 0, 83, 60
2, 5196, Note_on_c, 0, 67, 60
2, 5198, Note_on_c, 0, 63, 60
2, 5203, Note_on_c, 0, 58, 60
2, 5224, Control_c, 0, 64, 0
2, 5234, Note_on_c, 0, 67, 0
2, 5234, Note_on_c, 0, 71, 0
2, 5236, Note_on_c, 0, 63, 0
2, 5236, Note_on_c, 0, 58, 0
2, 5243, Note_on_c, 0, 83, 0
2, 5285, Note_on_c, 0, 79, 60
2, 5287, Note_on_c, 0, 82, 60
2, 5287, Note_on_c, 0, 70, 60
2, 5324, Note_on_c, 0, 55, 0
2, 5326, Note_on_c, 0, 39, 60
2, 5334, Note_on_c, 0, 51, 60
2, 5367, Note_on_c, 0, 51, 0
2, 5369, Note_on_c, 0, 39, 0
2, 5373, Note_on_c, 0, 70, 0
2, 5373, Note_on_c, 0, 82, 0
2, 5373, Note_on_c, 0, 79, 0
2, 5416, Note_on_c, 0, 83, 60
2, 5416, Note_on_c, 0, 79, 60
2, 5420, Note_on_c, 0, 71, 60
2, 5437, Note_on_c, 0, 79, 0
2, 5456, Note_on_c, 0, 71, 0
2, 5456, Note_on_c, 0, 41, 60
2, 5456, Note_on_c, 0, 84, 60
2, 5458, Note_on_c, 0, 79, 60
2, 5460, Note_on_c, 0, 72, 60
2, 5465, Note_on_c, 0, 50, 60
2, 5469, Note_on_c, 0, 83, 0
2, 5496, Note_on_c, 0, 79, 0
2, 5496, Note_on_c, 0, 84, 0
2, 5498, Note_on_c, 0, 72, 0
2, 5507, Note_on_c, 0, 50, 0
2, 5510, Note_on_c, 0, 41, 0
2, 5545, Note_on_c, 0, 79, 60
2, 5548, Note_on_c, 0, 85, 60
2, 5548, Note_on_c, 0, 82, 60
2, 5550, Note_on_c, 0, 73, 60
2, 5554, Note_on_c, 0, 51, 60
2, 5554, Note_on_c, 0, 42, 60
2, 5565, Note_on_c, 0, 82, 0
2, 5565, Note_on_c, 0, 79, 0
2, 5584, Note_on_c, 0, 51, 0
2, 5587, Note_on_c, 0, 42, 0
2, 5589, Note_on_c, 0, 82, 60
2, 5589, Note_on_c, 0, 86, 60
2, 5589, Note_on_c, 0, 79, 60
2, 5591, Note_on_c, 0, 74, 60
2, 5592, Note_on_c, 0, 52, 60
2, 5592, Note_on_c, 0, 43, 60
2, 5599, Note_on_c, 0, 85, 0
2, 5599, Control_c, 0, 64, 127
2, 5601, Note_on_c, 0, 73, 0
2, 5636, Note_on_c, 0, 52, 0
2, 5638, Note_on_c, 0, 43, 0
2, 5676, Note_on_c, 0, 79, 0
2, 5683, Note_on_c, 0, 86, 0
2, 5683, Note_on_c, 0, 82, 0
2, 5685, Note_on_c, 0, 74, 0
2, 5702, Control_c, 0, 64, 0
2, 5718, Note_on_c, 0, 82, 60
2, 5718, Note_on_c, 0, 84, 60
2, 5718, Note_on_c, 0, 79, 60
2, 5721, Note_on_c, 0, 72, 60
2, 5723, Note_on_c, 0, 60, 60
2, 5723, Note_on_c, 0, 64, 60
2, 5723, Note_on_c, 0, 58, 60
2, 5725, Note_on_c, 0, 55, 60
2, 5746, Note_on_c, 0, 64, 0
2, 5746, Note_on_c, 0, 60, 0
2, 5748, Note_on_c, 0, 55, 0
2, 5748, Note_on_c, 0, 58, 0
2, 5753, Note_on_c, 0, 84, 0
2, 5755, Note_on_c, 0, 82, 0
2, 5755, Note_on_c, 0, 79, 0
2, 5755, Note_on_c, 0, 72, 0
2, 5804, Note_on_c, 0, 86, 60
2, 5804, Note_on_c, 0, 82, 60
2, 5806, Note_on_c, 0, 79, 60
2, 5806, Note_on_c, 0, 74, 60
2, 5825, Note_on_c, 0, 79, 0
2, 5825, Note_on_c, 0, 82, 0
2, 5849, Note_on_c, 0, 82, 60
2, 5849, Note_on_c, 0, 84, 60
2, 5849, Note_on_c, 0, 79, 60
2, 5851, Note_on_c, 0, 72, 60
2, 5857, Note_on_c, 0, 36, 60
2, 5859, Note_on_c, 0, 86, 0
2, 5861, Note_on_c, 0, 74, 0
2, 5875, Note_on_c, 0, 79, 0
2, 5875, Note_on_c, 0, 82, 0
2, 5877, Note_on_c, 0, 72, 0
2, 5880, Note_on_c, 0, 36, 0
2, 5882, Note_on_c, 0, 84, 0
2, 5938, Note_on_c, 0, 82, 60
2, 5938, Note_on_c, 0, 76, 60
2, 5940, Note_on_c, 0, 70, 60
2, 5955, Note_on_c, 0, 76, 0
2, 5975, Note_on_c, 0, 70, 0
2, 5975, Note_on_c, 0, 82, 0
2, 5981, Note_on_c, 0, 79, 60
2, 5983, Note_on_c, 0, 76, 60
2, 5983, Note_on_c, 0, 67, 60
2, 5985, Note_on_c, 0, 64, 60
2, 5985, Note_on_c, 0, 60, 60
2, 5992, Note_on_c, 0, 58, 60
2, 5992, Note_on_c, 0, 55, 60
2, 6002, Note_on_c, 0, 64, 0
2, 6004, Note_on_c, 0, 60, 0
2, 6006, Note_on_c, 0, 55, 0
2, 6011, Note_on_c, 0, 76, 0
2, 6011, Note_on_c, 0, 79, 0
2, 6013, Note_on_c, 0, 67, 0
2, 6072, Note_on_c, 0, 81, 60
2, 6074, Note_on_c, 0, 76, 60
2, 6079, Note_on_c, 0, 69, 60
2, 6079, Note_on_c, 0, 48, 60
2, 6094, Note_on_c, 0, 58, 0
2, 6096, Note_on_c, 0, 48, 0
2, 6109, Note_on_c, 0, 76, 0
2, 6111, Note_on_c, 0, 69, 0
2, 6120, Note_on_c, 0, 79, 60
2, 6120, Note_on_c, 0, 75, 60
2, 6121, Note_on_c, 0, 60, 60
2, 6121, Note_on_c, 0, 67, 60
2, 6121, Note_on_c, 0, 57, 60
2, 6128, Note_on_c, 0, 81, 0
2, 6137, Control_c, 0, 64, 127
2, 6188, Note_on_c, 0, 67, 0
2, 6188, Note_on_c, 0, 79, 0
2, 6188, Note_on_c, 0, 75, 0
2, 6190, Note_on_c, 0, 60, 0
2, 6207, Note_on_c, 0, 57, 0
2, 6252, Note_on_c, 0, 62, 60
2, 6252, Note_on_c, 0, 74, 60
2, 6252, Note_on_c, 0, 57, 60
2, 6254, Note_on_c, 0, 71, 60
2, 6254, Note_on_c, 0, 53, 60
2, 6256, Note_on_c, 0, 68, 60
2, 6261, Control_c, 0, 64, 0
2, 6286, Note_on_c, 0, 68, 0
2, 6286, Note_on_c, 0, 71, 0
2, 6288, Note_on_c, 0, 62, 0
2, 6288, Note_on_c, 0, 53, 0
2, 6294, Note_on_c, 0, 74, 0
2, 6339, Note_on_c, 0, 69, 60
2, 6343, Note_on_c, 0, 72, 60
2, 6343, Note_on_c, 0, 75, 60
2, 6343, Note_on_c, 0, 63, 60
2, 6386, Note_on_c, 0, 48, 60
2, 6386, Note_on_c, 0, 41, 60
2, 6423, Note_on_c, 0, 41, 0
2, 6423, Note_on_c, 0, 48, 0
2, 6470, Note_on_c, 0, 69, 0
2, 6470, Note_on_c, 0, 72, 0
2, 6470, Note_on_c, 0, 75, 0
2, 6472, Note_on_c, 0, 57, 0
2, 6472, Note_on_c, 0, 63, 0
2, 6505, Note_on_c, 0, 75, 60
2, 6505, Note_on_c, 0, 63, 60
2, 6508, Note_on_c, 0, 60, 60
2, 6508, Note_on_c, 0, 57, 60
2, 6510, Note_on_c, 0, 53, 60
2, 6512, Note_on_c, 0, 77, 60
2, 6512, Note_on_c, 0, 65, 60
2, 6514, Note_on_c, 0, 72, 60
2, 6514, Note_on_c, 0, 69, 60
2, 6542, Note_on_c, 0, 53, 0
2, 6542, Note_on_c, 0, 60, 0
2, 6549, Note_on_c, 0, 63, 0
2, 6593, Note_on_c, 0, 38, 60
2, 6606, Note_on_c, 0, 72, 0
2, 6606, Note_on_c, 0, 75, 0
2, 6606, Note_on_c, 0, 77, 0
2, 6608, Note_on_c, 0, 65, 0
2, 6608, Note_on_c, 0, 69, 0
2, 6608, Note_on_c, 0, 57, 0
2, 6638, Note_on_c, 0, 38, 0
2, 6640, Control_c, 0, 64, 127
2, 6647, Note_on_c, 0, 58, 60
2, 6647, Note_on_c, 0, 50, 60
2, 6670, Note_on_c, 0, 50, 0
2, 6704, Note_on_c, 0, 58, 0
2, 6717, Control_c, 0, 64, 0
2, 6727, Note_on_c, 0, 70, 60
2, 6730, Note_on_c, 0, 73, 60
2, 6730, Note_on_c, 0, 61, 60
2, 6744, Note_on_c, 0, 70, 0
2, 6770, Note_on_c, 0, 74, 60
2, 6770, Note_on_c, 0, 70, 60
2, 6772, Note_on_c, 0, 61, 0
2, 6772, Note_on_c, 0, 62, 60
2, 6779, Note_on_c, 0, 58, 60
2, 6779, Note_on_c, 0, 53, 60
2, 6781, Note_on_c, 0, 73, 0
2, 6807, Note_on_c, 0, 53, 0
2, 6813, Note_on_c, 0, 70, 0
2, 6813, Note_on_c, 0, 74, 0
2, 6816, Note_on_c, 0, 62, 0
2, 6816, Note_on_c, 0, 58, 0
2, 6854, Note_on_c, 0, 81, 60
2, 6856, Note_on_c, 0, 76, 60
2, 6860, Note_on_c, 0, 69, 60
2, 6903, Note_on_c, 0, 49, 60
2, 6903, Note_on_c, 0, 37, 60
2, 6931, Note_on_c, 0, 37, 0
2, 6943, Note_on_c, 0, 69, 0
2, 6943, Note_on_c, 0, 76, 0
2, 6945, Note_on_c, 0, 49, 0
2, 6952, Note_on_c, 0, 81, 0
2, 6985, Note_on_c, 0, 76, 60
2, 6988, Note_on_c, 0, 80, 60
2, 6992, Note_on_c, 0, 68, 60
2, 7005, Note_on_c, 0, 76, 0
2, 7024, Note_on_c, 0, 80, 0
2, 7027, Note_on_c, 0, 76, 60
2, 7029, Note_on_c, 0, 79, 60
2, 7031, Note_on_c, 0, 68, 0
2, 7031, Note_on_c, 0, 67, 60
2, 7032, Note_on_c, 0, 61, 60
2, 7032, Note_on_c, 0, 58, 60
2, 7034, Note_on_c, 0, 64, 60
2, 7037, Note_on_c, 0, 55, 60
2, 7058, Note_on_c, 0, 55, 0
2, 7058, Note_on_c, 0, 58, 0
2, 7058, Note_on_c, 0, 61, 0
2, 7058, Note_on_c, 0, 64, 0
2, 7065, Note_on_c, 0, 76, 0
2, 7065, Note_on_c, 0, 67, 0
2, 7065, Note_on_c, 0, 79, 0
2, 7116, Note_on_c, 0, 81, 60
2, 7118, Note_on_c, 0, 76, 60
2, 7118, Note_on_c, 0, 69, 60
2, 7123, Note_on_c, 0, 36, 60
2, 7158, Note_on_c, 0, 36, 0
2, 7158, Note_on_c, 0, 79, 60
2, 7161, Note_on_c, 0, 81, 0
2, 7161, Note_on_c, 0, 76, 0
2, 7161, Note_on_c, 0, 67, 60
2, 7163, Note_on_c, 0, 69, 0
2, 7163, Note_on_c, 0, 75, 60
2, 7165, Note_on_c, 0, 48, 60
2, 7167, Control_c, 0, 64, 127
2, 7210, Note_on_c, 0, 48, 0
2, 7259, Control_c, 0, 64, 0
2, 7278, Note_on_c, 0, 79, 0
2, 7280, Note_on_c, 0, 75, 0
2, 7280, Note_on_c, 0, 67, 0
2, 7289, Note_on_c, 0, 57, 60
2, 7291, Note_on_c, 0, 53, 60
2, 7299, Note_on_c, 0, 63, 60
2, 7299, Note_on_c, 0, 60, 60
2, 7334, Note_on_c, 0, 60, 0
2, 7334, Note_on_c, 0, 63, 0
2, 7336, Note_on_c, 0, 53, 0
2, 7336, Note_on_c, 0, 57, 0
2, 7389, Note_on_c, 0, 74, 60
2, 7389, Note_on_c, 0, 62, 60
2, 7430, Note_on_c, 0, 75, 60
2, 7432, Note_on_c, 0, 72, 60
2, 7434, Note_on_c, 0, 62, 0
2, 7434, Note_on_c, 0, 63, 60
2, 7436, Note_on_c, 0, 69, 60
2, 7438, Note_on_c, 0, 29, 60
2, 7442, Note_on_c, 0, 74, 0
2, 7465, Note_on_c, 0, 75, 0
2, 7468, Note_on_c, 0, 63, 0
2, 7468, Note_on_c, 0, 72, 0
2, 7468, Note_on_c, 0, 69, 0
2, 7491, Note_on_c, 0, 29, 0
2, 7519, Note_on_c, 0, 79, 60
2, 7523, Note_on_c, 0, 75, 60
2, 7526, Note_on_c, 0, 72, 60
2, 7528, Note_on_c, 0, 67, 60
2, 7540, Note_on_c, 0, 72, 0
2, 7542, Note_on_c, 0, 75, 0
2, 7549, Note_on_c, 0, 79, 0
2, 7549, Note_on_c, 0, 67, 0
2, 7566, Note_on_c, 0, 77, 60
2, 7568, Note_on_c, 0, 65, 60
2, 7568, Note_on_c, 0, 75, 60
2, 7568, Note_on_c, 0, 63, 60
2, 7570, Note_on_c, 0, 69, 60
2, 7570, Note_on_c, 0, 72, 60
2, 7570, Note_on_c, 0, 57, 60
2, 7575, Note_on_c, 0, 60, 60
2, 7575, Note_on_c, 0, 53, 60
2, 7598, Note_on_c, 0, 53, 0
2, 7598, Note_on_c, 0, 63, 0
2, 7605, Note_on_c, 0, 75, 0
2, 7605, Note_on_c, 0, 77, 0
2, 7607, Note_on_c, 0, 65, 0
2, 7607, Note_on_c, 0, 69, 0
2, 7607, Note_on_c, 0, 60, 0
2, 7607, Note_on_c, 0, 72, 0
2, 7660, Note_on_c, 0, 72, 60
2, 7660, Note_on_c, 0, 75, 60
2, 7660, Note_on_c, 0, 69, 60
2, 7662, Note_on_c, 0, 63, 60
2, 7687, Note_on_c, 0, 57, 0
2, 7703, Note_on_c, 0, 74, 60
2, 7704, Note_on_c, 0, 69, 0
2, 7704, Note_on_c, 0, 63, 0
2, 7704, Note_on_c, 0, 72, 0
2, 7704, Note_on_c, 0, 75, 0
2, 7704, Note_on_c, 0, 70, 60
2, 7704, Note_on_c, 0, 62, 60
2, 7709, Control_c, 0, 64, 127
2, 7709, Note_on_c, 0, 56, 60
2, 7709, Note_on_c, 0, 46, 60
2, 7728, Note_on_c, 0, 70, 0
2, 7732, Note_on_c, 0, 46, 0
2, 7739, Note_on_c, 0, 74, 0
2, 7739, Note_on_c, 0, 62, 0
2, 7790, Note_on_c, 0, 77, 60
2, 7790, Note_on_c, 0, 65, 60
2, 7800, Note_on_c, 0, 56, 0
2, 7807, Note_on_c, 0, 77, 0
2, 7814, Control_c, 0, 64, 0
2, 7818, Note_on_c, 0, 65, 0
2, 7833, Note_on_c, 0, 77, 60
2, 7833, Note_on_c, 0, 80, 60
2, 7833, Note_on_c, 0, 74, 60
2, 7835, Note_on_c, 0, 68, 60
2, 7835, Note_on_c, 0, 62, 60
2, 7837, Note_on_c, 0, 58, 60
2, 7837, Note_on_c, 0, 53, 60
2, 7839, Note_on_c, 0, 56, 60
2, 7860, Note_on_c, 0, 62, 0
2, 7863, Note_on_c, 0, 53, 0
2, 7867, Note_on_c, 0, 68, 0
2, 7867, Note_on_c, 0, 77, 0
2, 7867, Note_on_c, 0, 74, 0
2, 7867, Note_on_c, 0, 80, 0
2, 7869, Note_on_c, 0, 58, 0
2, 7879, Note_on_c, 0, 56, 0
2, 7920, Note_on_c, 0, 80, 60
2, 7920, Note_on_c, 0, 86, 60
2, 7920, Note_on_c, 0, 74, 60
2, 7968, Note_on_c, 0, 41, 60
2, 8001, Note_on_c, 0, 41, 0
2, 8022, Note_on_c, 0, 74, 0
2, 8022, Note_on_c, 0, 80, 0
2, 8031, Note_on_c, 0, 86, 0
2, 8046, Note_on_c, 0, 85, 60
2, 8048, Note_on_c, 0, 73, 60
2, 8088, Note_on_c, 0, 84, 60
2, 8090, Note_on_c, 0, 80, 60
2, 8093, Note_on_c, 0, 53, 60
2, 8093, Note_on_c, 0, 58, 60
2, 8093, Note_on_c, 0, 72, 60
2, 8095, Note_on_c, 0, 62, 60
2, 8097, Note_on_c, 0, 85, 0
2, 8097, Note_on_c, 0, 56, 60
2, 8099, Note_on_c, 0, 73, 0
2, 8118, Note_on_c, 0, 53, 0
2, 8118, Note_on_c, 0, 58, 0
2, 8125, Note_on_c, 0, 80, 0
2, 8125, Note_on_c, 0, 72, 0
2, 8127, Note_on_c, 0, 62, 0
2, 8134, Note_on_c, 0, 84, 0
2, 8137, Note_on_c, 0, 56, 0
2, 8174, Note_on_c, 0, 86, 60
2, 8176, Note_on_c, 0, 74, 60
2, 8179, Note_on_c, 0, 80, 60
2, 8183, Note_on_c, 0, 39, 60
2, 8217, Note_on_c, 0, 39, 0
2, 8217, Note_on_c, 0, 79, 60
2, 8219, Note_on_c, 0, 72, 60
2, 8221, Note_on_c, 0, 80, 0
2, 8221, Note_on_c, 0, 74, 0
2, 8223, Note_on_c, 0, 84, 60
2, 8223, Note_on_c, 0, 55, 60
2, 8228, Note_on_c, 0, 46, 60
2, 8230, Note_on_c, 0, 86, 0
2, 8230, Control_c, 0, 64, 127
2, 8251, Note_on_c, 0, 46, 0
2, 8257, Note_on_c, 0, 55, 0
2, 8289, Note_on_c, 0, 72, 0
2, 8296, Note_on_c, 0, 84, 0
2, 8298, Note_on_c, 0, 79, 0
2, 8324, Control_c, 0, 64, 0
2, 8347, Note_on_c, 0, 83, 60
2, 8349, Note_on_c, 0, 67, 60
2, 8349, Note_on_c, 0, 71, 60
2, 8349, Note_on_c, 0, 63, 60
2, 8352, Note_on_c, 0, 58, 60
2, 8375, Note_on_c, 0, 67, 0
2, 8376, Note_on_c, 0, 63, 0
2, 8376, Note_on_c, 0, 58, 0
2, 8383, Note_on_c, 0, 71, 0
2, 8383, Note_on_c, 0, 83, 0
2, 8436, Note_on_c, 0, 79, 60
2, 8436, Note_on_c, 0, 82, 60
2, 8436, Note_on_c, 0, 70, 60
2, 8436, Note_on_c, 0, 75, 60
2, 8441, Note_on_c, 0, 46, 60
2, 8467, Note_on_c, 0, 46, 0
2, 8472, Note_on_c, 0, 55, 60
2, 8490, Note_on_c, 0, 58, 60
2, 8507, Note_on_c, 0, 70, 0
2, 8526, Note_on_c, 0, 75, 0
2, 8526, Note_on_c, 0, 82, 0
2, 8528, Note_on_c, 0, 58, 0
2, 8528, Note_on_c, 0, 55, 0
2, 8535, Note_on_c, 0, 79, 0
2, 8570, Note_on_c, 0, 81, 60
2, 8573, Note_on_c, 0, 69, 60
2, 8607, Note_on_c, 0, 69, 0
2, 8614, Note_on_c, 0, 82, 60
2, 8616, Note_on_c, 0, 67, 60
2, 8616, Note_on_c, 0, 63, 60
2, 8617, Note_on_c, 0, 70, 60
2, 8620, Note_on_c, 0, 58, 60
2, 8624, Note_on_c, 0, 81, 0
2, 8652, Note_on_c, 0, 63, 0
2, 8652, Note_on_c, 0, 67, 0
2, 8669, Note_on_c, 0, 82, 0
2, 8680, Note_on_c, 0, 70, 0
2, 8680, Note_on_c, 0, 58, 0
2, 8703, Note_on_c, 0, 83, 60
2, 8705, Note_on_c, 0, 71, 60
2, 8737, Control_c, 0, 64, 127
2, 8746, Note_on_c, 0, 79, 60
2, 8748, Note_on_c, 0, 72, 60
2, 8750, Note_on_c, 0, 84, 60
2, 8755, Note_on_c, 0, 51, 60
2, 8757, Note_on_c, 0, 83, 0
2, 8757, Note_on_c, 0, 39, 60
2, 8759, Note_on_c, 0, 71, 0
2, 8784, Note_on_c, 0, 72, 0
2, 8784, Note_on_c, 0, 79, 0
2, 8788, Note_on_c, 0, 39, 0
2, 8793, Note_on_c, 0, 84, 0
2, 8797, Note_on_c, 0, 51, 0
2, 8837, Note_on_c, 0, 82, 60
2, 8837, Note_on_c, 0, 70, 60
2, 8874, Control_c, 0, 64, 0
2, 8876, Note_on_c, 0, 70, 0
2, 8884, Note_on_c, 0, 82, 0
2, 8884, Note_on_c, 0, 81, 60
2, 8886, Note_on_c, 0, 69, 60
2, 8886, Note_on_c, 0, 63, 60
2, 8889, Note_on_c, 0, 58, 60
2, 8904, Note_on_c, 0, 58, 0
2, 8912, Note_on_c, 0, 63, 0
2, 8919, Note_on_c, 0, 81, 0
2, 8921, Note_on_c, 0, 69, 0
2, 8972, Note_on_c, 0, 79, 60
2, 8972, Note_on_c, 0, 67, 60
2, 9006, Note_on_c, 0, 67, 0
2, 9012, Note_on_c, 0, 84, 60
2, 9015, Note_on_c, 0, 79, 0
2, 9015, Note_on_c, 0, 72, 60
2, 9017, Note_on_c, 0, 52, 60
2, 9017, Note_on_c, 0, 40, 60
2, 9048, Note_on_c, 0, 72, 0
2, 9048, Note_on_c, 0, 84, 0
2, 9062, Note_on_c, 0, 52, 0
2, 9062, Note_on_c, 0, 40, 0
2, 9100, Note_on_c, 0, 82, 60
2, 9102, Note_on_c, 0, 70, 60
2, 9141, Note_on_c, 0, 81, 60
2, 9143, Note_on_c, 0, 70, 0
2, 9143, Note_on_c, 0, 69, 60
2, 9143, Note_on_c, 0, 64, 60
2, 9144, Note_on_c, 0, 61, 60
2, 9144, Note_on_c, 0, 58, 60
2, 9151, Note_on_c, 0, 82, 0
2, 9162, Note_on_c, 0, 61, 0
2, 9162, Note_on_c, 0, 64, 0
2, 9162, Note_on_c, 0, 58, 0
2, 9192, Note_on_c, 0, 81, 0
2, 9193, Note_on_c, 0, 69, 0
2, 9226, Note_on_c, 0, 79, 60
2, 9230, Note_on_c, 0, 67, 60
2, 9251, Note_on_c, 0, 67, 0
2, 9266, Note_on_c, 0, 77, 60
2, 9268, Note_on_c, 0, 74, 60
2, 9268, Note_on_c, 0, 65, 60
2, 9273, Note_on_c, 0, 53, 60
2, 9273, Note_on_c, 0, 41, 60
2, 9277, Note_on_c, 0, 79, 0
2, 9286, Control_c, 0, 64, 127
2, 9300, Note_on_c, 0, 77, 0
2, 9303, Note_on_c, 0, 65, 0
2, 9303, Note_on_c, 0, 74, 0
2, 9313, Note_on_c, 0, 53, 0
2, 9331, Note_on_c, 0, 41, 0
2, 9352, Note_on_c, 0, 73, 60
2, 9354, Note_on_c, 0, 61, 60
2, 9388, Note_on_c, 0, 61, 0
2, 9388, Note_on_c, 0, 73, 0
2, 9394, Note_on_c, 0, 70, 60
2, 9396, Note_on_c, 0, 74, 60
2, 9399, Note_on_c, 0, 58, 60
2, 9399, Note_on_c, 0, 62, 60
2, 9399, Note_on_c, 0, 53, 60
2, 9411, Control_c, 0, 64, 0
2, 9431, Note_on_c, 0, 62, 0
2, 9431, Note_on_c, 0, 74, 0
2, 9431, Note_on_c, 0, 70, 0
2, 9441, Note_on_c, 0, 58, 0
2, 9450, Note_on_c, 0, 53, 0
2, 9481, Note_on_c, 0, 81, 60
2, 9481, Note_on_c, 0, 77, 60
2, 9484, Note_on_c, 0, 69, 60
2, 9528, Note_on_c, 0, 50, 60
2, 9533, Note_on_c, 0, 38, 60
2, 9572, Note_on_c, 0, 50, 0
2, 9576, Note_on_c, 0, 38, 0
2, 9650, Note_on_c, 0, 62, 60
2, 9650, Note_on_c, 0, 55, 60
2, 9652, Note_on_c, 0, 59, 60
2, 9659, Note_on_c, 0, 65, 60
2, 9693, Note_on_c, 0, 62, 0
2, 9696, Note_on_c, 0, 59, 0
2, 9696, Note_on_c, 0, 55, 0
2, 9696, Note_on_c, 0, 65, 0
2, 9701, Note_on_c, 0, 77, 0
2, 9701, Note_on_c, 0, 81, 0
2, 9703, Note_on_c, 0, 69, 0
2, 9744, Note_on_c, 0, 36, 60
2, 9748, Note_on_c, 0, 79, 60
2, 9750, Note_on_c, 0, 76, 60
2, 9753, Note_on_c, 0, 67, 60
2, 9769, Note_on_c, 0, 76, 0
2, 9769, Note_on_c, 0, 79, 0
2, 9793, Note_on_c, 0, 36, 0
2, 9793, Control_c, 0, 64, 127
2, 9795, Note_on_c, 0, 82, 60
2, 9797, Note_on_c, 0, 67, 0
2, 9797, Note_on_c, 0, 70, 60
2, 9799, Note_on_c, 0, 52, 60
2, 9799, Note_on_c, 0, 43, 60
2, 9836, Note_on_c, 0, 43, 0
2, 9838, Note_on_c, 0, 84, 60
2, 9838, Note_on_c, 0, 79, 60
2, 9840, Note_on_c, 0, 76, 60
2, 9842, Note_on_c, 0, 70, 0
2, 9842, Note_on_c, 0, 72, 60
2, 9849, Note_on_c, 0, 82, 0
2, 9853, Note_on_c, 0, 52, 0
2, 9860, Note_on_c, 0, 79, 0
2, 9860, Note_on_c, 0, 76, 0
2, 9876, Note_on_c, 0, 84, 0
2, 9879, Note_on_c, 0, 72, 0
2, 9888, Note_on_c, 0, 82, 60
2, 9888, Note_on_c, 0, 70, 60
2, 9902, Control_c, 0, 64, 0
2, 9930, Note_on_c, 0, 79, 60
2, 9930, Note_on_c, 0, 76, 60
2, 9932, Note_on_c, 0, 67, 60
2, 9932, Note_on_c, 0, 64, 60
2, 9934, Note_on_c, 0, 58, 60
2, 9934, Note_on_c, 0, 55, 60
2, 9936, Note_on_c, 0, 60, 60
2, 9940, Note_on_c, 0, 70, 0
2, 9940, Note_on_c, 0, 82, 0
2, 9964, Note_on_c, 0, 76, 0
2, 9966, Note_on_c, 0, 60, 0
2, 9966, Note_on_c, 0, 67, 0
2, 9966, Note_on_c, 0, 64, 0
2, 9968, Note_on_c, 0, 58, 0
2, 9975, Note_on_c, 0, 79, 0
2, 10019, Note_on_c, 0, 78, 60
2, 10022, Note_on_c, 0, 66, 60
2, 10026, Note_on_c, 0, 41, 60
2, 10041, Note_on_c, 0, 55, 0
2, 10062, Note_on_c, 0, 41, 0
2, 10066, Note_on_c, 0, 77, 60
2, 10066, Note_on_c, 0, 65, 60
2, 10068, Note_on_c, 0, 66, 0
2, 10068, Note_on_c, 0, 69, 60
2, 10071, Note_on_c, 0, 57, 60
2, 10071, Note_on_c, 0, 48, 60
2, 10075, Note_on_c, 0, 78, 0
2, 10103, Note_on_c, 0, 77, 0
2, 10104, Note_on_c, 0, 69, 0
2, 10104, Note_on_c, 0, 65, 0
2, 10106, Note_on_c, 0, 48, 0
2, 10160, Note_on_c, 0, 73, 60
2, 10160, Note_on_c, 0, 65, 60
2, 10162, Note_on_c, 0, 69, 60
2, 10169, Note_on_c, 0, 57, 0
2, 10177, Note_on_c, 0, 65, 0
2, 10195, Note_on_c, 0, 73, 0
2, 10202, Note_on_c, 0, 69, 0
2, 10202, Note_on_c, 0, 57, 60
2, 10202, Note_on_c, 0, 63, 60
2, 10202, Note_on_c, 0, 65, 60
2, 10202, Note_on_c, 0, 74, 60
2, 10207, Note_on_c, 0, 60, 60
2, 10207, Note_on_c, 0, 53, 60
2, 10256, Note_on_c, 0, 53, 0
2, 10256, Note_on_c, 0, 60, 0
2, 10265, Note_on_c, 0, 63, 0
2, 10273, Note_on_c, 0, 57, 0
2, 10273, Note_on_c, 0, 65, 0
2, 10273, Note_on_c, 0, 74, 0
2, 10288, Note_on_c, 0, 70, 60
2, 10320, Control_c, 0, 64, 127
2, 10326, Note_on_c, 0, 53, 60
2, 10335, Note_on_c, 0, 58, 60
2, 10335, Note_on_c, 0, 50, 60
2, 10337, Note_on_c, 0, 46, 60
2, 10359, Note_on_c, 0, 70, 0
2, 10361, Note_on_c, 0, 50, 0
2, 10361, Note_on_c, 0, 53, 0
2, 10361, Note_on_c, 0, 58, 0
2, 10361, Note_on_c, 0, 46, 0
2, 10418, Note_on_c, 0, 85, 60
2, 10420, Note_on_c, 0, 79, 60
2, 10436, Note_on_c, 0, 79, 0
2, 10436, Note_on_c, 0, 85, 0
2, 10436, Control_c, 0, 64, 0
2, 10464, Note_on_c, 0, 79, 60
2, 10464, Note_on_c, 0, 82, 60
2, 10464, Note_on_c, 0, 85, 60
2, 10464, Note_on_c, 0, 47, 60
2, 10464, Note_on_c, 0, 52, 60
2, 10464, Note_on_c, 0, 73, 60
2, 10465, Note_on_c, 0, 43, 60
2, 10465, Note_on_c, 0, 40, 60
2, 10497, Note_on_c, 0, 73, 0
2, 10497, Note_on_c, 0, 79, 0
2, 10497, Note_on_c, 0, 85, 0
2, 10497, Note_on_c, 0, 82, 0
2, 10499, Note_on_c, 0, 52, 0
2, 10499, Note_on_c, 0, 47, 0
2, 10502, Note_on_c, 0, 43, 0
2, 10502, Note_on_c, 0, 40, 0
2, 10546, Note_on_c, 0, 85, 60
2, 10548, Note_on_c, 0, 79, 60
2, 10548, Note_on_c, 0, 82, 60
2, 10548, Note_on_c, 0, 73, 60
2, 10551, Note_on_c, 0, 47, 60
2, 10551, Note_on_c, 0, 52, 60
2, 10551, Note_on_c, 0, 43, 60
2, 10551, Note_on_c, 0, 40, 60
2, 10563, Note_on_c, 0, 85, 0
2, 10565, Note_on_c, 0, 73, 0
2, 10565, Note_on_c, 0, 79, 0
2, 10565, Note_on_c, 0, 82, 0
2, 10567, Note_on_c, 0, 47, 0
2, 10567, Note_on_c, 0, 40, 0
2, 10567, Note_on_c, 0, 52, 0
2, 10567, Note_on_c, 0, 43, 0
2, 10589, Note_on_c, 0, 79, 60
2, 10589, Note_on_c, 0, 85, 60
2, 10589, Note_on_c, 0, 73, 60
2, 10591, Note_on_c, 0, 82, 60
2, 10593, Note_on_c, 0, 47, 60
2, 10593, Note_on_c, 0, 52, 60
2, 10593, Note_on_c, 0, 43, 60
2, 10595, Note_on_c, 0, 40, 60
2, 10625, Note_on_c, 0, 52, 0
2, 10625, Note_on_c, 0, 47, 0
2, 10628, Note_on_c, 0, 40, 0
2, 10628, Note_on_c, 0, 43, 0
2, 10632, Note_on_c, 0, 73, 0
2, 10632, Note_on_c, 0, 82, 0
2, 10632, Note_on_c, 0, 85, 0
2, 10632, Note_on_c, 0, 79, 0
2, 10677, Note_on_c, 0, 82, 60
2, 10677, Note_on_c, 0, 85, 60
2, 10677, Note_on_c, 0, 79, 60
2, 10679, Note_on_c, 0, 73, 60
2, 10679, Note_on_c, 0, 43, 60
2, 10680, Note_on_c, 0, 47, 60
2, 10680, Note_on_c, 0, 52, 60
2, 10680, Note_on_c, 0, 40, 60
2, 10696, Note_on_c, 0, 79, 0
2, 10696, Note_on_c, 0, 85, 0
2, 10698, Note_on_c, 0, 52, 0
2, 10698, Note_on_c, 0, 47, 0
2, 10698, Note_on_c, 0, 73, 0
2, 10698, Note_on_c, 0, 43, 0
2, 10698, Note_on_c, 0, 82, 0
2, 10698, Note_on_c, 0, 40, 0
2, 10719, Note_on_c, 0, 82, 60
2, 10719, Note_on_c, 0, 85, 60
2, 10719, Note_on_c, 0, 79, 60
2, 10721, Note_on_c, 0, 73, 60
2, 10724, Note_on_c, 0, 47, 60
2, 10724, Note_on_c, 0, 52, 60
2, 10724, Note_on_c, 0, 43, 60
2, 10726, Note_on_c, 0, 40, 60
2, 10759, Note_on_c, 0, 40, 0
2, 10759, Note_on_c, 0, 43, 0
2, 10759, Note_on_c, 0, 47, 0
2, 10759, Note_on_c, 0, 52, 0
2, 10764, Note_on_c, 0, 85, 0
2, 10766, Note_on_c, 0, 82, 0
2, 10766, Note_on_c, 0, 79, 0
2, 10766, Note_on_c, 0, 73, 0
2, 10806, Note_on_c, 0, 79, 60
2, 10806, Note_on_c, 0, 82, 60
2, 10806, Note_on_c, 0, 85, 60
2, 10806, Note_on_c, 0, 73, 60
2, 10809, Note_on_c, 0, 52, 60
2, 10811, Note_on_c, 0, 43, 60
2, 10811, Note_on_c, 0, 47, 60
2, 10811, Note_on_c, 0, 40, 60
2, 10825, Note_on_c, 0, 82, 0
2, 10841, Note_on_c, 0, 85, 0
2, 10843, Note_on_c, 0, 73, 0
2, 10843, Note_on_c, 0, 79, 0
2, 10845, Note_on_c, 0, 52, 0
2, 10845, Note_on_c, 0, 47, 0
2, 10845, Note_on_c, 0, 40, 0
2, 10845, Note_on_c, 0, 43, 0
2, 10849, Note_on_c, 0, 80, 60
2, 10849, Note_on_c, 0, 82, 60
2, 10849, Note_on_c, 0, 86, 60
2, 10849, Note_on_c, 0, 74, 60
2, 10853, Note_on_c, 0, 53, 60
2, 10853, Note_on_c, 0, 41, 60
2, 10872, Control_c, 0, 64, 127
2, 10902, Note_on_c, 0, 74, 0
2, 10902, Note_on_c, 0, 82, 0
2, 10902, Note_on_c, 0, 80, 0
2, 10905, Note_on_c, 0, 53, 0
2, 10905, Note_on_c, 0, 41, 0
2, 10911, Note_on_c, 0, 86, 0
2, 10935, Note_on_c, 0, 80, 60
2, 10937, Note_on_c, 0, 84, 60
2, 10941, Note_on_c, 0, 72, 60
2, 10963, Control_c, 0, 64, 0
2, 10970, Note_on_c, 0, 74, 60
2, 10982, Note_on_c, 0, 84, 0
2, 10982, Note_on_c, 0, 70, 60
2, 10982, Note_on_c, 0, 65, 60
2, 10984, Note_on_c, 0, 72, 0
2, 10984, Note_on_c, 0, 62, 60
2, 10984, Note_on_c, 0, 82, 60
2, 10984, Note_on_c, 0, 56, 60
2, 10988, Note_on_c, 0, 58, 60
2, 11017, Note_on_c, 0, 82, 0
2, 11017, Note_on_c, 0, 74, 0
2, 11017, Note_on_c, 0, 70, 0
2, 11017, Note_on_c, 0, 80, 0
2, 11020, Note_on_c, 0, 62, 0
2, 11020, Note_on_c, 0, 58, 0
2, 11020, Note_on_c, 0, 56, 0
2, 11020, Note_on_c, 0, 65, 0
2, 11069, Note_on_c, 0, 80, 60
2, 11071, Note_on_c, 0, 84, 60
2, 11071, Note_on_c, 0, 74, 60
2, 11073, Note_on_c, 0, 72, 60
2, 11122, Note_on_c, 0, 34, 60
2, 11201, Note_on_c, 0, 34, 0
2, 11246, Note_on_c, 0, 65, 60
2, 11248, Note_on_c, 0, 62, 60
2, 11251, Note_on_c, 0, 56, 60
2, 11255, Note_on_c, 0, 58, 60
2, 11284, Note_on_c, 0, 58, 0
2, 11284, Note_on_c, 0, 56, 0
2, 11284, Note_on_c, 0, 65, 0
2, 11284, Note_on_c, 0, 62, 0
2, 11328, Note_on_c, 0, 72, 0
2, 11328, Note_on_c, 0, 80, 0
2, 11333, Note_on_c, 0, 84, 0
2, 11335, Note_on_c, 0, 74, 0
2, 11378, Note_on_c, 0, 82, 60
2, 11378, Note_on_c, 0, 86, 60
2, 11378, Note_on_c, 0, 74, 60
2, 11385, Note_on_c, 0, 53, 60
2, 11385, Note_on_c, 0, 41, 60
2, 11387, Control_c, 0, 64, 127
2, 11417, Note_on_c, 0, 82, 0
2, 11424, Note_on_c, 0, 86, 0
2, 11425, Note_on_c, 0, 74, 0
2, 11434, Note_on_c, 0, 53, 0
2, 11455, Note_on_c, 0, 41, 0
2, 11466, Note_on_c, 0, 87, 60
2, 11468, Note_on_c, 0, 82, 60
2, 11468, Note_on_c, 0, 75, 60
2, 11502, Note_on_c, 0, 82, 0
2, 11502, Note_on_c, 0, 72, 60
2, 11502, Note_on_c, 0, 80, 60
2, 11502, Note_on_c, 0, 84, 60
2, 11502, Note_on_c, 0, 65, 60
2, 11504, Note_on_c, 0, 75, 0
2, 11506, Note_on_c, 0, 58, 60
2, 11506, Note_on_c, 0, 62, 60
2, 11506, Note_on_c, 0, 56, 60
2, 11508, Control_c, 0, 64, 0
2, 11511, Note_on_c, 0, 87, 0
2, 11544, Note_on_c, 0, 72, 0
2, 11544, Note_on_c, 0, 65, 0
2, 11544, Note_on_c, 0, 80, 0
2, 11544, Note_on_c, 0, 62, 0
2, 11546, Note_on_c, 0, 56, 0
2, 11546, Note_on_c, 0, 58, 0
2, 11551, Note_on_c, 0, 84, 0
2, 11596, Note_on_c, 0, 86, 60
2, 11598, Note_on_c, 0, 80, 60
2, 11598, Note_on_c, 0, 74, 60
2, 11616, Note_on_c, 0, 80, 0
2, 11630, Note_on_c, 0, 34, 60
2, 11637, Note_on_c, 0, 82, 60
2, 11639, Note_on_c, 0, 74, 0
2, 11640, Note_on_c, 0, 80, 60
2, 11640, Note_on_c, 0, 70, 60
2, 11645, Note_on_c, 0, 86, 0
2, 11681, Note_on_c, 0, 80, 0
2, 11681, Note_on_c, 0, 82, 0
2, 11681, Note_on_c, 0, 70, 0
2, 11705, Note_on_c, 0, 34, 0
2, 11722, Note_on_c, 0, 80, 60
2, 11724, Note_on_c, 0, 83, 60
2, 11724, Note_on_c, 0, 71, 60
2, 11741, Note_on_c, 0, 80, 0
2, 11760, Note_on_c, 0, 71, 0
2, 11766, Note_on_c, 0, 83, 0
2, 11766, Note_on_c, 0, 84, 60
2, 11766, Note_on_c, 0, 65, 60
2, 11769, Note_on_c, 0, 72, 60
2, 11769, Note_on_c, 0, 80, 60
2, 11769, Note_on_c, 0, 56, 60
2, 11773, Note_on_c, 0, 58, 60
2, 11794, Note_on_c, 0, 58, 0
2, 11794, Note_on_c, 0, 65, 0
2, 11794, Note_on_c, 0, 56, 0
2, 11801, Note_on_c, 0, 84, 0
2, 11801, Note_on_c, 0, 80, 0
2, 11801, Note_on_c, 0, 72, 0
2, 11852, Note_on_c, 0, 85, 60
2, 11852, Note_on_c, 0, 79, 60
2, 11854, Note_on_c, 0, 73, 60
2, 11856, Note_on_c, 0, 82, 60
2, 11858, Note_on_c, 0, 39, 60
2, 11867, Control_c, 0, 64, 127
2, 11869, Note_on_c, 0, 82, 0
2, 11869, Note_on_c, 0, 79, 0
2, 11886, Note_on_c, 0, 85, 0
2, 11888, Note_on_c, 0, 73, 0
2, 11892, Note_on_c, 0, 39, 0
2, 11892, Note_on_c, 0, 79, 60
2, 11892, Note_on_c, 0, 86, 60
2, 11895, Note_on_c, 0, 74, 60
2, 11897, Note_on_c, 0, 82, 60
2, 11899, Note_on_c, 0, 51, 60
2, 11946, Note_on_c, 0, 82, 0
2, 11946, Note_on_c, 0, 79, 0
2, 11948, Note_on_c, 0, 74, 0
2, 11950, Note_on_c, 0, 51, 0
2, 11954, Note_on_c, 0, 86, 0
2, 11982, Note_on_c, 0, 84, 60
2, 11982, Note_on_c, 0, 79, 60
2, 11986, Note_on_c, 0, 72, 60
2, 12001, Note_on_c, 0, 79, 0
2, 12001, Control_c, 0, 64, 0
2, 12024, Note_on_c, 0, 82, 60
2, 12026, Note_on_c, 0, 84, 0
2, 12026, Note_on_c, 0, 70, 60
2, 12026, Note_on_c, 0, 79, 60
2, 12026, Note_on_c, 0, 63, 60
2, 12029, Note_on_c, 0, 72, 0
2, 12029, Note_on_c, 0, 58, 60
2, 12031, Note_on_c, 0, 67, 60
2, 12061, Note_on_c, 0, 67, 0
2, 12061, Note_on_c, 0, 79, 0
2, 12063, Note_on_c, 0, 63, 0
2, 12063, Note_on_c, 0, 58, 0
2, 12063, Note_on_c, 0, 70, 0
2, 12070, Note_on_c, 0, 82, 0
2, 12115, Note_on_c, 0, 82, 60
2, 12115, Note_on_c, 0, 84, 60
2, 12115, Note_on_c, 0, 79, 60
2, 12119, Note_on_c, 0, 72, 60
2, 12164, Note_on_c, 0, 34, 60
2, 12192, Note_on_c, 0, 34, 0
2, 12295, Note_on_c, 0, 67, 60
2, 12295, Note_on_c, 0, 63, 60
2, 12300, Note_on_c, 0, 58, 60
2, 12314, Note_on_c, 0, 58, 0
2, 12321, Note_on_c, 0, 67, 0
2, 12323, Note_on_c, 0, 63, 0
2, 12338, Note_on_c, 0, 82, 0
2, 12340, Note_on_c, 0, 72, 0
2, 12347, Note_on_c, 0, 79, 0
2, 12347, Note_on_c, 0, 84, 0
2, 12384, Note_on_c, 0, 82, 60
2, 12389, Note_on_c, 0, 43, 60
2, 12428, Note_on_c, 0, 86, 60
2, 12428, Note_on_c, 0, 79, 60
2, 12432, Note_on_c, 0, 74, 60
2, 12432, Note_on_c, 0, 55, 60
2, 12436, Control_c, 0, 64, 127
2, 12456, Note_on_c, 0, 82, 0
2, 12464, Note_on_c, 0, 86, 0
2, 12466, Note_on_c, 0, 79, 0
2, 12466, Note_on_c, 0, 74, 0
2, 12468, Note_on_c, 0, 55, 0
2, 12471, Note_on_c, 0, 43, 0
2, 12518, Note_on_c, 0, 82, 60
2, 12518, Note_on_c, 0, 79, 60
2, 12520, Note_on_c, 0, 87, 60
2, 12522, Note_on_c, 0, 75, 60
2, 12526, Control_c, 0, 64, 0
2, 12539, Note_on_c, 0, 79, 0
2, 12539, Note_on_c, 0, 82, 0
2, 12564, Note_on_c, 0, 82, 60
2, 12564, Note_on_c, 0, 84, 60
2, 12564, Note_on_c, 0, 79, 60
2, 12569, Note_on_c, 0, 75, 0
2, 12569, Note_on_c, 0, 67, 60
2, 12569, Note_on_c, 0, 72, 60
2, 12569, Note_on_c, 0, 63, 60
2, 12576, Note_on_c, 0, 87, 0
2, 12576, Note_on_c, 0, 58, 60
2, 12592, Note_on_c, 0, 67, 0
2, 12595, Note_on_c, 0, 63, 0
2, 12595, Note_on_c, 0, 58, 0
2, 12600, Note_on_c, 0, 79, 0
2, 12600, Note_on_c, 0, 84, 0
2, 12600, Note_on_c, 0, 82, 0
2, 12602, Note_on_c, 0, 72, 0
2, 12654, Note_on_c, 0, 82, 60
2, 12654, Note_on_c, 0, 79, 60
2, 12656, Note_on_c, 0, 86, 60
2, 12656, Note_on_c, 0, 74, 60
2, 12673, Note_on_c, 0, 82, 0
2, 12675, Note_on_c, 0, 79, 0
2, 12693, Note_on_c, 0, 74, 0
2, 12698, Note_on_c, 0, 82, 60
2, 12701, Note_on_c, 0, 79, 60
2, 12701, Note_on_c, 0, 70, 60
2, 12703, Note_on_c, 0, 54, 60
2, 12705, Note_on_c, 0, 42, 60
2, 12710, Note_on_c, 0, 86, 0
2, 12735, Note_on_c, 0, 82, 0
2, 12735, Note_on_c, 0, 79, 0
2, 12737, Note_on_c, 0, 70, 0
2, 12740, Note_on_c, 0, 54, 0
2, 12740, Note_on_c, 0, 42, 0
2, 12789, Note_on_c, 0, 79, 60
2, 12791, Note_on_c, 0, 83, 60
2, 12791, Note_on_c, 0, 71, 60
2, 12808, Note_on_c, 0, 79, 0
2, 12831, Note_on_c, 0, 79, 60
2, 12833, Note_on_c, 0, 83, 0
2, 12833, Note_on_c, 0, 84, 60
2, 12833, Note_on_c, 0, 72, 60
2, 12836, Note_on_c, 0, 71, 0
2, 12836, Note_on_c, 0, 66, 60
2, 12836, Note_on_c, 0, 69, 60
2, 12836, Note_on_c, 0, 63, 60
2, 12838, Note_on_c, 0, 60, 60
2, 12852, Note_on_c, 0, 66, 0
2, 12855, Note_on_c, 0, 63, 0
2, 12855, Note_on_c, 0, 60, 0
2, 12867, Note_on_c, 0, 84, 0
2, 12869, Note_on_c, 0, 72, 0
2, 12869, Note_on_c, 0, 79, 0
2, 12869, Note_on_c, 0, 69, 0
2, 12918, Note_on_c, 0, 85, 60
2, 12918, Note_on_c, 0, 80, 60
2, 12921, Note_on_c, 0, 73, 60
2, 12925, Note_on_c, 0, 41, 60
2, 12940, Note_on_c, 0, 80, 0
2, 12944, Control_c, 0, 64, 127
2, 12946, Note_on_c, 0, 85, 0
2, 12948, Note_on_c, 0, 73, 0
2, 12961, Note_on_c, 0, 86, 60
2, 12961, Note_on_c, 0, 80, 60
2, 12963, Note_on_c, 0, 74, 60
2, 12967, Note_on_c, 0, 53, 60
2, 12976, Note_on_c, 0, 41, 0
2, 12989, Note_on_c, 0, 80, 0
2, 12991, Note_on_c, 0, 74, 0
2, 12993, Note_on_c, 0, 53, 0
2, 12998, Note_on_c, 0, 86, 0
2, 13049, Note_on_c, 0, 84, 60
2, 13051, Note_on_c, 0, 72, 60
2, 13057, Control_c, 0, 64, 0
2, 13085, Note_on_c, 0, 72, 0
2, 13091, Note_on_c, 0, 77, 60
2, 13094, Note_on_c, 0, 65, 60
2, 13094, Note_on_c, 0, 80, 60
2, 13094, Note_on_c, 0, 62, 60
2, 13096, Note_on_c, 0, 68, 60
2, 13096, Note_on_c, 0, 58, 60
2, 13098, Note_on_c, 0, 56, 60
2, 13102, Note_on_c, 0, 84, 0
2, 13113, Note_on_c, 0, 58, 0
2, 13119, Note_on_c, 0, 56, 0
2, 13119, Note_on_c, 0, 62, 0
2, 13119, Note_on_c, 0, 65, 0
2, 13126, Note_on_c, 0, 77, 0
2, 13126, Note_on_c, 0, 80, 0
2, 13128, Note_on_c, 0, 68, 0
2, 13176, Note_on_c, 0, 79, 60
2, 13178, Note_on_c, 0, 73, 60
2, 13178, Note_on_c, 0, 67, 60
2, 13204, Note_on_c, 0, 79, 0
2, 13206, Note_on_c, 0, 67, 0
2, 13206, Note_on_c, 0, 73, 0
2, 13222, Note_on_c, 0, 77, 60
2, 13224, Note_on_c, 0, 74, 60
2, 13225, Note_on_c, 0, 65, 60
2, 13230, Note_on_c, 0, 34, 60
2, 13249, Note_on_c, 0, 65, 0
2, 13249, Note_on_c, 0, 77, 0
2, 13249, Note_on_c, 0, 74, 0
2, 13281, Note_on_c, 0, 34, 0
2, 13298, Note_on_c, 0, 80, 60
2, 13307, Note_on_c, 0, 84, 60
2, 13309, Note_on_c, 0, 87, 60
2, 13309, Note_on_c, 0, 75, 60
2, 13354, Note_on_c, 0, 65, 60
2, 13356, Note_on_c, 0, 58, 60
2, 13356, Note_on_c, 0, 62, 60
2, 13356, Note_on_c, 0, 56, 60
2, 13375, Note_on_c, 0, 84, 0
2, 13377, Note_on_c, 0, 65, 0
2, 13377, Note_on_c, 0, 80, 0
2, 13377, Note_on_c, 0, 62, 0
2, 13379, Note_on_c, 0, 58, 0
2, 13379, Note_on_c, 0, 56, 0
2, 13403, Note_on_c, 0, 75, 0
2, 13412, Note_on_c, 0, 87, 0
2, 13426, Note_on_c, 0, 80, 60
2, 13433, Note_on_c, 0, 41, 60
2, 13435, Note_on_c, 0, 84, 60
2, 13441, Note_on_c, 0, 72, 60
2, 13454, Control_c, 0, 64, 127
2, 13456, Note_on_c, 0, 80, 0
2, 13473, Note_on_c, 0, 72, 0
2, 13480, Note_on_c, 0, 86, 60
2, 13482, Note_on_c, 0, 84, 0
2, 13482, Note_on_c, 0, 74, 60
2, 13484, Note_on_c, 0, 80, 60
2, 13490, Note_on_c, 0, 56, 60
2, 13492, Note_on_c, 0, 41, 0
2, 13516, Note_on_c, 0, 80, 0
2, 13516, Note_on_c, 0, 86, 0
2, 13518, Note_on_c, 0, 74, 0
2, 13536, Control_c, 0, 64, 0
2, 13569, Note_on_c, 0, 82, 60
2, 13571, Note_on_c, 0, 70, 60
2, 13582, Note_on_c, 0, 56, 0
2, 13599, Note_on_c, 0, 70, 0
2, 13606, Note_on_c, 0, 80, 60
2, 13609, Note_on_c, 0, 58, 60
2, 13609, Note_on_c, 0, 56, 60
2, 13616, Note_on_c, 0, 82, 0
2, 13616, Note_on_c, 0, 71, 60
2, 13616, Note_on_c, 0, 83, 60
2, 13616, Note_on_c, 0, 62, 60
2, 13616, Note_on_c, 0, 65, 60
2, 13651, Note_on_c, 0, 65, 0
2, 13651, Note_on_c, 0, 62, 0
2, 13653, Note_on_c, 0, 58, 0
2, 13653, Note_on_c, 0, 56, 0
2, 13665, Note_on_c, 0, 83, 0
2, 13667, Note_on_c, 0, 71, 0
2, 13667, Note_on_c, 0, 80, 0
2, 13702, Note_on_c, 0, 84, 60
2, 13702, Note_on_c, 0, 80, 60
2, 13705, Note_on_c, 0, 72, 60
2, 13751, Note_on_c, 0, 46, 60
2, 13754, Note_on_c, 0, 53, 60
2, 13785, Note_on_c, 0, 46, 0
2, 13859, Note_on_c, 0, 80, 0
2, 13859, Note_on_c, 0, 84, 0
2, 13862, Note_on_c, 0, 72, 0
2, 13866, Note_on_c, 0, 67, 60
2, 13868, Note_on_c, 0, 79, 60
2, 13868, Note_on_c, 0, 82, 60
2, 13868, Note_on_c, 0, 74, 60
2, 13872, Note_on_c, 0, 53, 0
2, 13874, Note_on_c, 0, 62, 60
2, 13874, Note_on_c, 0, 55, 60
2, 13915, Note_on_c, 0, 67, 0
2, 13949, Note_on_c, 0, 55, 0
2, 13953, Note_on_c, 0, 82, 0
2, 13953, Note_on_c, 0, 79, 0
2, 13962, Note_on_c, 0, 84, 60
2, 13964, Note_on_c, 0, 74, 0
2, 13974, Note_on_c, 0, 62, 0
2, 14002, Note_on_c, 0, 90, 60
2, 14004, Note_on_c, 0, 55, 60
2, 14007, Note_on_c, 0, 84, 0
2, 14007, Note_on_c, 0, 78, 60
2, 14007, Control_c, 0, 64, 127
2, 14009, Note_on_c, 0, 63, 60
2, 14011, Note_on_c, 0, 51, 60
2, 14013, Note_on_c, 0, 58, 60
2, 14045, Note_on_c, 0, 51, 0
2, 14051, Note_on_c, 0, 63, 0
2, 14054, Note_on_c, 0, 55, 0
2, 14054, Note_on_c, 0, 58, 0
2, 14066, Note_on_c, 0, 90, 0
2, 14084, Note_on_c, 0, 78, 0
2, 14089, Note_on_c, 0, 91, 60
2, 14089, Note_on_c, 0, 79, 60
2, 14117, Control_c, 0, 64, 0
2, 14124, Note_on_c, 0, 91, 0
2, 14126, Note_on_c, 0, 79, 0
2, 14135, Note_on_c, 0, 86, 60
2, 14135, Note_on_c, 0, 74, 60
2, 14220, Note_on_c, 0, 89, 60
2, 14222, Note_on_c, 0, 86, 0
2, 14222, Note_on_c, 0, 77, 60
2, 14224, Note_on_c, 0, 74, 0
2, 14348, Note_on_c, 0, 87, 60
2, 14350, Note_on_c, 0, 89, 0
2, 14350, Note_on_c, 0, 75, 60
2, 14352, Note_on_c, 0, 77, 0
2, 14393, Note_on_c, 0, 87, 0
2, 14393, Note_on_c, 0, 77, 60
2, 14395, Note_on_c, 0, 75, 0
2, 14395, Note_on_c, 0, 65, 60
2, 14480, Note_on_c, 0, 78, 60
2, 14482, Note_on_c, 0, 77, 0
2, 14484, Note_on_c, 0, 65, 0
2, 14525, Note_on_c, 0, 79, 60
2, 14529, Note_on_c, 0, 78, 0
2, 14529, Note_on_c, 0, 67, 60
2, 14529, Note_on_c, 0, 75, 60
2, 14529, Control_c, 0, 64, 127
2, 14583, Note_on_c, 0, 75, 0
2, 14583, Note_on_c, 0, 67, 0
2, 14589, Note_on_c, 0, 79, 0
2, 14615, Note_on_c, 0, 86, 60
2, 14615, Note_on_c, 0, 74, 60
2, 14634, Control_c, 0, 64, 0
2, 14740, Note_on_c, 0, 74, 0
2, 14747, Note_on_c, 0, 73, 60
2, 14749, Note_on_c, 0, 86, 0
2, 14749, Note_on_c, 0, 85, 60
2, 14768, Note_on_c, 0, 73, 0
2, 14785, Note_on_c, 0, 85, 0
2, 14794, Note_on_c, 0, 84, 60
2, 14794, Note_on_c, 0, 79, 60
2, 14798, Note_on_c, 0, 72, 60
2, 14841, Note_on_c, 0, 79, 0
2, 14856, Note_on_c, 0, 84, 0
2, 14857, Note_on_c, 0, 72, 0
2, 14871, Note_on_c, 0, 40, 60
2, 14883, Note_on_c, 0, 83, 60
2, 14883, Note_on_c, 0, 71, 60
2, 14922, Note_on_c, 0, 83, 0
2, 14924, Note_on_c, 0, 55, 60
2, 14926, Note_on_c, 0, 79, 60
2, 14928, Note_on_c, 0, 84, 60
2, 14930, Note_on_c, 0, 72, 60
2, 14939, Note_on_c, 0, 71, 0
2, 14943, Note_on_c, 0, 40, 0
2, 14999, Note_on_c, 0, 79, 0
2, 15000, Note_on_c, 0, 72, 0
2, 15007, Note_on_c, 0, 84, 0
2, 15022, Note_on_c, 0, 73, 60
2, 15024, Note_on_c, 0, 41, 60
2, 15030, Note_on_c, 0, 85, 60
2, 15039, Note_on_c, 0, 55, 0
2, 15044, Control_c, 0, 64, 127
2, 15060, Note_on_c, 0, 80, 60
2, 15060, Note_on_c, 0, 86, 60
2, 15060, Note_on_c, 0, 74, 60
2, 15063, Note_on_c, 0, 73, 0
2, 15065, Note_on_c, 0, 56, 60
2, 15069, Note_on_c, 0, 85, 0
2, 15101, Note_on_c, 0, 41, 0
2, 15116, Note_on_c, 0, 74, 0
2, 15116, Note_on_c, 0, 80, 0
2, 15124, Note_on_c, 0, 86, 0
2, 15145, Note_on_c, 0, 56, 0
2, 15150, Note_on_c, 0, 82, 60
2, 15154, Note_on_c, 0, 70, 60
2, 15169, Control_c, 0, 64, 0
2, 15187, Note_on_c, 0, 70, 0
2, 15187, Note_on_c, 0, 82, 0
2, 15192, Note_on_c, 0, 80, 60
2, 15192, Note_on_c, 0, 83, 60
2, 15192, Note_on_c, 0, 68, 60
2, 15194, Note_on_c, 0, 71, 60
2, 15194, Note_on_c, 0, 65, 60
2, 15197, Note_on_c, 0, 62, 60
2, 15197, Note_on_c, 0, 58, 60
2, 15231, Note_on_c, 0, 71, 0
2, 15231, Note_on_c, 0, 83, 0
2, 15231, Note_on_c, 0, 80, 0
2, 15233, Note_on_c, 0, 65, 0
2, 15233, Note_on_c, 0, 62, 0
2, 15233, Note_on_c, 0, 58, 0
2, 15233, Note_on_c, 0, 68, 0
2, 15276, Note_on_c, 0, 80, 60
2, 15276, Note_on_c, 0, 74, 60
2, 15285, Note_on_c, 0, 84, 60
2, 15288, Note_on_c, 0, 72, 60
2, 15334, Note_on_c, 0, 34, 60
2, 15428, Note_on_c, 0, 34, 0
2, 15457, Note_on_c, 0, 65, 60
2, 15457, Note_on_c, 0, 62, 60
2, 15459, Note_on_c, 0, 68, 60
2, 15461, Note_on_c, 0, 58, 60
2, 15491, Note_on_c, 0, 68, 0
2, 15494, Note_on_c, 0, 58, 0
2, 15494, Note_on_c, 0, 65, 0
2, 15494, Note_on_c, 0, 62, 0
2, 15552, Note_on_c, 0, 84, 0
2, 15552, Note_on_c, 0, 80, 0
2, 15553, Note_on_c, 0, 74, 0
2, 15553, Note_on_c, 0, 72, 0
2, 15583, Note_on_c, 0, 92, 60
2, 15585, Note_on_c, 0, 86, 60
2, 15585, Note_on_c, 0, 89, 60
2, 15585, Note_on_c, 0, 80, 60
2, 15587, Note_on_c, 0, 56, 60
2, 15592, Note_on_c, 0, 41, 60
2, 15609, Control_c, 0, 64, 127
2, 15634, Note_on_c, 0, 92, 0
2, 15636, Note_on_c, 0, 80, 0
2, 15641, Note_on_c, 0, 56, 0
2, 15641, Note_on_c, 0, 41, 0
2, 15645, Note_on_c, 0, 86, 0
2, 15645, Note_on_c, 0, 89, 0
2, 15671, Note_on_c, 0, 94, 60
2, 15671, Note_on_c, 0, 92, 60
2, 15672, Note_on_c, 0, 86, 60
2, 15674, Note_on_c, 0, 82, 60
2, 15707, Control_c, 0, 64, 0
2, 15716, Note_on_c, 0, 77, 60
2, 15716, Note_on_c, 0, 68, 60
2, 15718, Note_on_c, 0, 74, 60
2, 15720, Note_on_c, 0, 70, 60
2, 15767, Note_on_c, 0, 92, 0
2, 15770, Note_on_c, 0, 77, 0
2, 15775, Note_on_c, 0, 94, 0
2, 15777, Note_on_c, 0, 82, 0
2, 15777, Note_on_c, 0, 86, 0
2, 15779, Note_on_c, 0, 70, 0
2, 15788, Note_on_c, 0, 68, 0
2, 15788, Note_on_c, 0, 74, 0
2, 15803, Note_on_c, 0, 89, 60
2, 15803, Note_on_c, 0, 85, 60
2, 15805, Note_on_c, 0, 77, 60
2, 15843, Note_on_c, 0, 91, 60
2, 15847, Note_on_c, 0, 77, 0
2, 15847, Note_on_c, 0, 79, 60
2, 15847, Note_on_c, 0, 86, 60
2, 15847, Note_on_c, 0, 70, 60
2, 15850, Note_on_c, 0, 62, 60
2, 15850, Note_on_c, 0, 65, 60
2, 15850, Note_on_c, 0, 58, 60
2, 15856, Note_on_c, 0, 89, 0
2, 15856, Note_on_c, 0, 85, 0
2, 15897, Note_on_c, 0, 86, 0
2, 15897, Note_on_c, 0, 91, 0
2, 15897, Note_on_c, 0, 79, 0
2, 15908, Note_on_c, 0, 62, 0
2, 15908, Note_on_c, 0, 65, 0
2, 15908, Note_on_c, 0, 70, 0
2, 15910, Note_on_c, 0, 58, 0
2, 15931, Note_on_c, 0, 89, 60
2, 15933, Note_on_c, 0, 77, 60
2, 15965, Note_on_c, 0, 91, 60
2, 15967, Note_on_c, 0, 74, 60
2, 15967, Note_on_c, 0, 68, 60
2, 15969, Note_on_c, 0, 86, 60
2, 15969, Note_on_c, 0, 79, 60
2, 15971, Note_on_c, 0, 70, 60
2, 15978, Note_on_c, 0, 89, 0
2, 16018, Note_on_c, 0, 79, 0
2, 16018, Note_on_c, 0, 86, 0
2, 16018, Note_on_c, 0, 91, 0
2, 16029, Note_on_c, 0, 70, 0
2, 16039, Note_on_c, 0, 68, 0
2, 16048, Note_on_c, 0, 77, 0
2, 16048, Note_on_c, 0, 74, 0
2, 16055, Note_on_c, 0, 82, 60
2, 16055, Note_on_c, 0, 70, 60
2, 16061, Note_on_c, 0, 94, 60
2, 16080, Note_on_c, 0, 94, 0
2, 16084, Note_on_c, 0, 70, 0
2, 16102, Note_on_c, 0, 82, 0
2, 16108, Note_on_c, 0, 98, 60
2, 16108, Note_on_c, 0, 91, 60
2, 16112, Note_on_c, 0, 79, 60
2, 16112, Note_on_c, 0, 86, 60
2, 16112, Note_on_c, 0, 94, 60
2, 16112, Note_on_c, 0, 70, 60
2, 16119, Control_c, 0, 64, 127
2, 16159, Note_on_c, 0, 91, 0
2, 16159, Note_on_c, 0, 98, 0
2, 16168, Note_on_c, 0, 94, 0
2, 16170, Note_on_c, 0, 86, 0
2, 16178, Control_c, 0, 64, 0
2, 16193, Note_on_c, 0, 96, 60
2, 16193, Note_on_c, 0, 91, 60
2, 16196, Note_on_c, 0, 84, 60
2, 16212, Note_on_c, 0, 91, 0
2, 16229, Note_on_c, 0, 96, 0
2, 16238, Note_on_c, 0, 94, 60
2, 16238, Note_on_c, 0, 91, 60
2, 16240, Note_on_c, 0, 82, 60
2, 16243, Note_on_c, 0, 84, 0
2, 16281, Note_on_c, 0, 94, 0
2, 16283, Note_on_c, 0, 91, 0
2, 16283, Note_on_c, 0, 82, 0
2, 16294, Note_on_c, 0, 79, 0
2, 16323, Note_on_c, 0, 96, 60
2, 16327, Note_on_c, 0, 84, 60
2, 16327, Note_on_c, 0, 91, 60
2, 16327, Note_on_c, 0, 94, 60
2, 16327, Note_on_c, 0, 79, 60
2, 16330, Note_on_c, 0, 75, 60
2, 16430, Note_on_c, 0, 94, 0
2, 16430, Note_on_c, 0, 96, 0
2, 16440, Note_on_c, 0, 91, 0
2, 16442, Note_on_c, 0, 79, 0
2, 16442, Note_on_c, 0, 84, 0
2, 16442, Note_on_c, 0, 75, 0
2, 16456, Note_on_c, 0, 99, 60
2, 16460, Note_on_c, 0, 87, 60
2, 16468, Note_on_c, 0, 70, 0
2, 16500, Note_on_c, 0, 86, 60
2, 16500, Note_on_c, 0, 98, 60
2, 16500, Note_on_c, 0, 78, 60
2, 16503, Note_on_c, 0, 74, 60
2, 16503, Note_on_c, 0, 69, 60
2, 16507, Note_on_c, 0, 99, 0
2, 16509, Note_on_c, 0, 87, 0
2, 16566, Note_on_c, 0, 98, 0
2, 16580, Note_on_c, 0, 86, 0
2, 16584, Note_on_c, 0, 99, 60
2, 16585, Note_on_c, 0, 87, 60
2, 16588, Note_on_c, 0, 78, 0
2, 16590, Note_on_c, 0, 69, 0
2, 16590, Note_on_c, 0, 74, 0
2, 16624, Note_on_c, 0, 75, 60
2, 16627, Note_on_c, 0, 97, 60
2, 16631, Note_on_c, 0, 85, 60
2, 16631, Note_on_c, 0, 79, 60
2, 16632, Control_c, 0, 64, 127
2, 16637, Note_on_c, 0, 99, 0
2, 16639, Note_on_c, 0, 87, 0
2, 16684, Note_on_c, 0, 79, 0
2, 16686, Note_on_c, 0, 75, 0
2, 16690, Note_on_c, 0, 97, 0
2, 16692, Note_on_c, 0, 85, 0
2, 16716, Note_on_c, 0, 94, 60
2, 16718, Note_on_c, 0, 82, 60
2, 16737, Control_c, 0, 64, 0
2, 16758, Note_on_c, 0, 89, 60
2, 16761, Note_on_c, 0, 85, 60
2, 16761, Note_on_c, 0, 77, 60
2, 16763, Note_on_c, 0, 82, 0
2, 16769, Note_on_c, 0, 94, 0
2, 16797, Note_on_c, 0, 85, 0
2, 16797, Note_on_c, 0, 89, 0
2, 16800, Note_on_c, 0, 77, 0
2, 16846, Note_on_c, 0, 90, 60
2, 16848, Note_on_c, 0, 85, 60
2, 16850, Note_on_c, 0, 78, 60
2, 16865, Note_on_c, 0, 85, 0
2, 16887, Note_on_c, 0, 78, 0
2, 16893, Note_on_c, 0, 90, 0
2, 16893, Note_on_c, 0, 91, 60
2, 16893, Note_on_c, 0, 85, 60
2, 16896, Note_on_c, 0, 79, 60
2, 16897, Note_on_c, 0, 70, 60
2, 16897, Note_on_c, 0, 63, 60
2, 16901, Note_on_c, 0, 67, 60
2, 16927, Note_on_c, 0, 85, 0
2, 16927, Note_on_c, 0, 91, 0
2, 16929, Note_on_c, 0, 79, 0
2, 16968, Note_on_c, 0, 70, 0
2, 16968, Note_on_c, 0, 67, 0
2, 16969, Note_on_c, 0, 63, 0
2, 16980, Note_on_c, 0, 89, 60
2, 16983, Note_on_c, 0, 84, 60
2, 16983, Note_on_c, 0, 77, 60
2, 17021, Note_on_c, 0, 77, 0
2, 17025, Note_on_c, 0, 87, 60
2, 17027, Note_on_c, 0, 84, 0
2, 17027, Note_on_c, 0, 89, 0
2, 17030, Note_on_c, 0, 70, 60
2, 17030, Note_on_c, 0, 63, 60
2, 17032, Note_on_c, 0, 75, 60
2, 17032, Note_on_c, 0, 67, 60
2, 17064, Note_on_c, 0, 87, 0
2, 17065, Note_on_c, 0, 75, 0
2, 17102, Note_on_c, 0, 70, 0
2, 17102, Note_on_c, 0, 67, 0
2, 17104, Note_on_c, 0, 63, 0
2, 17117, Note_on_c, 0, 85, 60
2, 17119, Note_on_c, 0, 73, 60
2, 17153, Note_on_c, 0, 73, 0
2, 17153, Control_c, 0, 64, 127
2, 17160, Note_on_c, 0, 84, 60
2, 17161, Note_on_c, 0, 80, 60
2, 17161, Note_on_c, 0, 68, 60
2, 17164, Note_on_c, 0, 63, 60
2, 17164, Note_on_c, 0, 72, 60
2, 17164, Note_on_c, 0, 56, 60
2, 17170, Note_on_c, 0, 85, 0
2, 17236, Note_on_c, 0, 84, 0
2, 17238, Note_on_c, 0, 80, 0
2, 17238, Note_on_c, 0, 72, 0
2, 17247, Control_c, 0, 64, 0
2, 17281, Note_on_c, 0, 80, 60
2, 17290, Note_on_c, 0, 83, 60
2, 17292, Note_on_c, 0, 71, 60
2, 17328, Note_on_c, 0, 71, 0
2, 17334, Note_on_c, 0, 83, 0
2, 17337, Note_on_c, 0, 80, 0
2, 17379, Note_on_c, 0, 84, 60
2, 17386, Note_on_c, 0, 56, 0
2, 17386, Note_on_c, 0, 72, 60
2, 17390, Note_on_c, 0, 68, 0
2, 17392, Note_on_c, 0, 63, 0
2, 17418, Note_on_c, 0, 72, 0
2, 17422, Note_on_c, 0, 86, 60
2, 17422, Note_on_c, 0, 81, 60
2, 17424, Note_on_c, 0, 84, 0
2, 17424, Note_on_c, 0, 78, 60
2, 17424, Note_on_c, 0, 74, 60
2, 17426, Note_on_c, 0, 66, 60
2, 17426, Note_on_c, 0, 57, 60
2, 17503, Note_on_c, 0, 81, 0
2, 17505, Note_on_c, 0, 74, 0
2, 17512, Note_on_c, 0, 86, 0
2, 17514, Note_on_c, 0, 78, 0
2, 17554, Note_on_c, 0, 84, 60
2, 17556, Note_on_c, 0, 78, 60
2, 17561, Note_on_c, 0, 72, 60
2, 17594, Note_on_c, 0, 72, 0
2, 17601, Note_on_c, 0, 84, 0
2, 17603, Note_on_c, 0, 78, 0
2, 17644, Note_on_c, 0, 86, 60
2, 17646, Note_on_c, 0, 82, 60
2, 17646, Note_on_c, 0, 79, 60
2, 17648, Note_on_c, 0, 74, 60
2, 17659, Note_on_c, 0, 57, 0
2, 17659, Note_on_c, 0, 66, 0
2, 17665, Note_on_c, 0, 79, 0
2, 17665, Note_on_c, 0, 82, 0
2, 17683, Note_on_c, 0, 86, 0
2, 17685, Note_on_c, 0, 74, 0
2, 17690, Note_on_c, 0, 79, 60
2, 17693, Note_on_c, 0, 82, 60
2, 17693, Note_on_c, 0, 87, 60
2, 17693, Note_on_c, 0, 75, 60
2, 17697, Note_on_c, 0, 67, 60
2, 17697, Note_on_c, 0, 58, 60
2, 17702, Control_c, 0, 64, 127
2, 17708, Note_on_c, 0, 82, 0
2, 17710, Note_on_c, 0, 79, 0
2, 17716, Note_on_c, 0, 87, 0
2, 17729, Note_on_c, 0, 75, 0
2, 17729, Note_on_c, 0, 67, 0
2, 17732, Note_on_c, 0, 58, 0
2, 17734, Note_on_c, 0, 89, 60
2, 17736, Note_on_c, 0, 77, 60
2, 17737, Note_on_c, 0, 82, 60
2, 17737, Note_on_c, 0, 79, 60
2, 17755, Note_on_c, 0, 79, 0
2, 17755, Note_on_c, 0, 82, 0
2, 17770, Note_on_c, 0, 89, 0
2, 17772, Note_on_c, 0, 77, 0
2, 17776, Note_on_c, 0, 82, 60
2, 17779, Note_on_c, 0, 87, 60
2, 17779, Note_on_c, 0, 79, 60
2, 17783, Note_on_c, 0, 75, 60
2, 17814, Note_on_c, 0, 65, 60
2, 17814, Note_on_c, 0, 71, 60
2, 17814, Note_on_c, 0, 77, 60
2, 17814, Note_on_c, 0, 83, 60
2, 17814, Control_c, 0, 64, 0
2, 17817, Note_on_c, 0, 75, 0
2, 17817, Note_on_c, 0, 74, 60
2, 17817, Note_on_c, 0, 55, 60
2, 17819, Note_on_c, 0, 62, 60
2, 17823, Note_on_c, 0, 79, 0
2, 17823, Note_on_c, 0, 82, 0
2, 17823, Note_on_c, 0, 87, 0
2, 17857, Note_on_c, 0, 74, 0
2, 17857, Note_on_c, 0, 77, 0
2, 17866, Note_on_c, 0, 71, 0
2, 17875, Note_on_c, 0, 83, 0
2, 17894, Note_on_c, 0, 62, 0
2, 17896, Note_on_c, 0, 55, 0
2, 17904, Note_on_c, 0, 65, 0
2, 17908, Note_on_c, 0, 84, 60
2, 17908, Note_on_c, 0, 82, 60
2, 17910, Note_on_c, 0, 76, 60
2, 17910, Note_on_c, 0, 79, 60
2, 17910, Note_on_c, 0, 72, 60
2, 17955, Note_on_c, 0, 64, 60
2, 17955, Note_on_c, 0, 70, 60
2, 17955, Note_on_c, 0, 60, 60
2, 17957, Note_on_c, 0, 67, 60
2, 18015, Note_on_c, 0, 67, 0
2, 18017, Note_on_c, 0, 70, 0
2, 18017, Note_on_c, 0, 64, 0
2, 18024, Note_on_c, 0, 79, 0
2, 18024, Note_on_c, 0, 84, 0
2, 18024, Note_on_c, 0, 76, 0
2, 18024, Note_on_c, 0, 82, 0
2, 18025, Note_on_c, 0, 60, 0
2, 18025, Note_on_c, 0, 72, 0
2, 18086, Note_on_c, 0, 67, 60
2, 18090, Note_on_c, 0, 58, 60
2, 18139, Note_on_c, 0, 67, 0
2, 18141, Note_on_c, 0, 58, 0
2, 18177, Note_on_c, 0, 68, 60
2, 18182, Note_on_c, 0, 59, 60
2, 18212, Note_on_c, 0, 68, 0
2, 18214, Note_on_c, 0, 59, 0
2, 18216, Note_on_c, 0, 87, 60
2, 18220, Note_on_c, 0, 75, 60
2, 18220, Note_on_c, 0, 81, 60
2, 18220, Note_on_c, 0, 69, 60
2, 18224, Note_on_c, 0, 60, 60
2, 18226, Control_c, 0, 64, 127
2, 18237, Note_on_c, 0, 81, 0
2, 18247, Note_on_c, 0, 75, 0
2, 18254, Note_on_c, 0, 87, 0
2, 18261, Note_on_c, 0, 89, 60
2, 18263, Note_on_c, 0, 81, 60
2, 18263, Note_on_c, 0, 84, 60
2, 18263, Note_on_c, 0, 77, 60
2, 18280, Note_on_c, 0, 84, 0
2, 18280, Note_on_c, 0, 81, 0
2, 18297, Note_on_c, 0, 89, 0
2, 18299, Note_on_c, 0, 77, 0
2, 18301, Note_on_c, 0, 84, 60
2, 18303, Note_on_c, 0, 87, 60
2, 18305, Note_on_c, 0, 81, 60
2, 18312, Note_on_c, 0, 75, 60
2, 18322, Note_on_c, 0, 84, 0
2, 18324, Note_on_c, 0, 81, 0
2, 18339, Note_on_c, 0, 87, 0
2, 18341, Note_on_c, 0, 75, 0
2, 18348, Note_on_c, 0, 81, 60
2, 18348, Note_on_c, 0, 84, 60
2, 18348, Note_on_c, 0, 77, 60
2, 18350, Note_on_c, 0, 72, 60
2, 18359, Control_c, 0, 64, 0
2, 18416, Note_on_c, 0, 77, 0
2, 18416, Note_on_c, 0, 84, 0
2, 18416, Note_on_c, 0, 81, 0
2, 18418, Note_on_c, 0, 72, 0
2, 18420, Note_on_c, 0, 83, 60
2, 18423, Note_on_c, 0, 71, 60
2, 18435, Note_on_c, 0, 69, 0
2, 18435, Note_on_c, 0, 60, 0
2, 18467, Note_on_c, 0, 71, 0
2, 18476, Note_on_c, 0, 83, 0
2, 18476, Note_on_c, 0, 80, 60
2, 18476, Note_on_c, 0, 70, 60
2, 18478, Note_on_c, 0, 65, 60
2, 18478, Note_on_c, 0, 68, 60
2, 18478, Note_on_c, 0, 74, 60
2, 18478, Note_on_c, 0, 82, 60
2, 18478, Note_on_c, 0, 62, 60
2, 18486, Note_on_c, 0, 58, 60
2, 18519, Note_on_c, 0, 82, 0
2, 18519, Note_on_c, 0, 80, 0
2, 18521, Note_on_c, 0, 62, 0
2, 18521, Note_on_c, 0, 74, 0
2, 18521, Note_on_c, 0, 68, 0
2, 18521, Note_on_c, 0, 70, 0
2, 18521, Note_on_c, 0, 65, 0
2, 18523, Note_on_c, 0, 58, 0
2, 18554, Note_on_c, 0, 74, 60
2, 18554, Note_on_c, 0, 70, 60
2, 18561, Note_on_c, 0, 78, 60
2, 18582, Note_on_c, 0, 74, 0
2, 18606, Note_on_c, 0, 79, 60
2, 18608, Note_on_c, 0, 78, 0
2, 18610, Note_on_c, 0, 74, 60
2, 18612, Note_on_c, 0, 53, 60
2, 18612, Note_on_c, 0, 58, 60
2, 18612, Note_on_c, 0, 46, 60
2, 18647, Note_on_c, 0, 70, 0
2, 18650, Note_on_c, 0, 79, 0
2, 18653, Note_on_c, 0, 74, 0
2, 18683, Note_on_c, 0, 53, 0
2, 18683, Note_on_c, 0, 46, 0
2, 18694, Note_on_c, 0, 79, 60
2, 18696, Note_on_c, 0, 70, 60
2, 18697, Note_on_c, 0, 75, 60
2, 18700, Note_on_c, 0, 58, 0
2, 18730, Control_c, 0, 64, 127
2, 18743, Note_on_c, 0, 63, 60
2, 18744, Note_on_c, 0, 55, 60
2, 18744, Note_on_c, 0, 51, 60
2, 18749, Note_on_c, 0, 58, 60
2, 18768, Note_on_c, 0, 63, 0
2, 18770, Note_on_c, 0, 51, 0
2, 18770, Note_on_c, 0, 55, 0
2, 18770, Note_on_c, 0, 58, 0
2, 18774, Note_on_c, 0, 70, 0
2, 18774, Note_on_c, 0, 79, 0
2, 18777, Note_on_c, 0, 75, 0
2, 18823, Note_on_c, 0, 79, 60
2, 18826, Note_on_c, 0, 76, 60
2, 18826, Note_on_c, 0, 82, 60
2, 18826, Note_on_c, 0, 70, 60
2, 18828, Note_on_c, 0, 73, 60
2, 18828, Note_on_c, 0, 47, 60
2, 18830, Note_on_c, 0, 43, 60
2, 18830, Note_on_c, 0, 52, 60
2, 18830, Note_on_c, 0, 40, 60
2, 18845, Note_on_c, 0, 73, 0
2, 18845, Note_on_c, 0, 70, 0
2, 18845, Note_on_c, 0, 79, 0
2, 18845, Note_on_c, 0, 82, 0
2, 18845, Note_on_c, 0, 76, 0
2, 18847, Note_on_c, 0, 52, 0
2, 18847, Note_on_c, 0, 47, 0
2, 18849, Note_on_c, 0, 43, 0
2, 18849, Note_on_c, 0, 40, 0
2, 18860, Control_c, 0, 64, 0
2, 18868, Note_on_c, 0, 82, 60
2, 18868, Note_on_c, 0, 79, 60
2, 18870, Note_on_c, 0, 73, 60
2, 18870, Note_on_c, 0, 76, 60
2, 18870, Note_on_c, 0, 70, 60
2, 18875, Note_on_c, 0, 43, 60
2, 18875, Note_on_c, 0, 47, 60
2, 18875, Note_on_c, 0, 52, 60
2, 18875, Note_on_c, 0, 40, 60
2, 18907, Note_on_c, 0, 52, 0
2, 18909, Note_on_c, 0, 40, 0
2, 18909, Note_on_c, 0, 47, 0
2, 18909, Note_on_c, 0, 43, 0
2, 18912, Note_on_c, 0, 82, 0
2, 18912, Note_on_c, 0, 79, 0
2, 18912, Note_on_c, 0, 76, 0
2, 18913, Note_on_c, 0, 73, 0
2, 18913, Note_on_c, 0, 70, 0
2, 18954, Note_on_c, 0, 79, 60
2, 18956, Note_on_c, 0, 76, 60
2, 18958, Note_on_c, 0, 73, 60
2, 18958, Note_on_c, 0, 82, 60
2, 18958, Note_on_c, 0, 70, 60
2, 18960, Note_on_c, 0, 52, 60
2, 18962, Note_on_c, 0, 43, 60
2, 18962, Note_on_c, 0, 47, 60
2, 18962, Note_on_c, 0, 40, 60
2, 18977, Note_on_c, 0, 70, 0
2, 18977, Note_on_c, 0, 82, 0
2, 18977, Note_on_c, 0, 79, 0
2, 18977, Note_on_c, 0, 73, 0
2, 18977, Note_on_c, 0, 76, 0
2, 18982, Note_on_c, 0, 47, 0
2, 18982, Note_on_c, 0, 40, 0
2, 18982, Note_on_c, 0, 52, 0
2, 18982, Note_on_c, 0, 43, 0
2, 19001, Note_on_c, 0, 79, 60
2, 19001, Note_on_c, 0, 76, 60
2, 19003, Note_on_c, 0, 70, 60
2, 19005, Note_on_c, 0, 73, 60
2, 19005, Note_on_c, 0, 82, 60
2, 19005, Note_on_c, 0, 47, 60
2, 19008, Note_on_c, 0, 43, 60
2, 19009, Note_on_c, 0, 52, 60
2, 19009, Note_on_c, 0, 40, 60
2, 19039, Note_on_c, 0, 52, 0
2, 19039, Note_on_c, 0, 47, 0
2, 19041, Note_on_c, 0, 40, 0
2, 19041, Note_on_c, 0, 43, 0
2, 19043, Note_on_c, 0, 79, 0
2, 19043, Note_on_c, 0, 76, 0
2, 19046, Note_on_c, 0, 73, 0
2, 19046, Note_on_c, 0, 70, 0
2, 19052, Note_on_c, 0, 82, 0
2, 19086, Note_on_c, 0, 79, 60
2, 19086, Note_on_c, 0, 82, 60
2, 19086, Note_on_c, 0, 76, 60
2, 19088, Note_on_c, 0, 73, 60
2, 19090, Note_on_c, 0, 52, 60
2, 19090, Note_on_c, 0, 70, 60
2, 19090, Note_on_c, 0, 43, 60
2, 19092, Note_on_c, 0, 47, 60
2, 19092, Note_on_c, 0, 40, 60
2, 19104, Note_on_c, 0, 79, 0
2, 19105, Note_on_c, 0, 76, 0
2, 19107, Note_on_c, 0, 40, 0
2, 19109, Note_on_c, 0, 43, 0
2, 19109, Note_on_c, 0, 47, 0
2, 19109, Note_on_c, 0, 52, 0
2, 19123, Note_on_c, 0, 73, 0
2, 19130, Note_on_c, 0, 79, 60
2, 19133, Note_on_c, 0, 76, 60
2, 19133, Note_on_c, 0, 84, 60
2, 19133, Note_on_c, 0, 72, 60
2, 19135, Note_on_c, 0, 47, 60
2, 19135, Note_on_c, 0, 40, 60
2, 19137, Note_on_c, 0, 43, 60
2, 19142, Note_on_c, 0, 70, 0
2, 19142, Note_on_c, 0, 82, 0
2, 19142, Note_on_c, 0, 52, 60
2, 19161, Note_on_c, 0, 52, 0
2, 19163, Note_on_c, 0, 40, 0
2, 19163, Note_on_c, 0, 43, 0
2, 19163, Note_on_c, 0, 47, 0
2, 19165, Note_on_c, 0, 84, 0
2, 19167, Note_on_c, 0, 76, 0
2, 19167, Note_on_c, 0, 79, 0
2, 19167, Note_on_c, 0, 72, 0
2, 19219, Note_on_c, 0, 76, 60
2, 19219, Note_on_c, 0, 79, 60
2, 19219, Note_on_c, 0, 70, 60
2, 19221, Note_on_c, 0, 82, 60
2, 19223, Note_on_c, 0, 52, 60
2, 19223, Note_on_c, 0, 47, 60
2, 19224, Note_on_c, 0, 43, 60
2, 19224, Note_on_c, 0, 40, 60
2, 19248, Note_on_c, 0, 47, 0
2, 19248, Note_on_c, 0, 52, 0
2, 19250, Note_on_c, 0, 40, 0
2, 19250, Note_on_c, 0, 43, 0
2, 19252, Note_on_c, 0, 76, 0
2, 19252, Note_on_c, 0, 79, 0
2, 19254, Note_on_c, 0, 70, 0
2, 19261, Note_on_c, 0, 80, 60
2, 19261, Note_on_c, 0, 86, 60
2, 19261, Note_on_c, 0, 74, 60
2, 19263, Note_on_c, 0, 82, 0
2, 19270, Note_on_c, 0, 41, 60
2, 19272, Note_on_c, 0, 53, 60
2, 19280, Control_c, 0, 64, 127
2, 19301, Note_on_c, 0, 53, 0
2, 19303, Note_on_c, 0, 41, 0
2, 19315, Note_on_c, 0, 80, 0
2, 19317, Note_on_c, 0, 74, 0
2, 19322, Note_on_c, 0, 86, 0
2, 19346, Note_on_c, 0, 84, 60
2, 19346, Note_on_c, 0, 80, 60
2, 19353, Note_on_c, 0, 72, 60
2, 19368, Note_on_c, 0, 80, 0
2, 19383, Control_c, 0, 64, 0
2, 19389, Note_on_c, 0, 82, 60
2, 19389, Note_on_c, 0, 80, 60
2, 19392, Note_on_c, 0, 70, 60
2, 19392, Note_on_c, 0, 65, 60
2, 19393, Note_on_c, 0, 72, 0
2, 19393, Note_on_c, 0, 62, 60
2, 19395, Note_on_c, 0, 58, 60
2, 19399, Note_on_c, 0, 84, 0
2, 19399, Note_on_c, 0, 56, 60
2, 19427, Note_on_c, 0, 70, 0
2, 19430, Note_on_c, 0, 58, 0
2, 19430, Note_on_c, 0, 65, 0
2, 19430, Note_on_c, 0, 62, 0
2, 19430, Note_on_c, 0, 56, 0
2, 19436, Note_on_c, 0, 80, 0
2, 19436, Note_on_c, 0, 82, 0
2, 19468, Note_on_c, 0, 84, 60
2, 19468, Note_on_c, 0, 80, 60
2, 19481, Note_on_c, 0, 72, 60
2, 19532, Note_on_c, 0, 34, 60
2, 19579, Note_on_c, 0, 80, 0
2, 19581, Note_on_c, 0, 72, 0
2, 19585, Note_on_c, 0, 34, 0
2, 19587, Note_on_c, 0, 84, 0
2, 19605, Note_on_c, 0, 80, 60
2, 19610, Note_on_c, 0, 92, 60
2, 19610, Note_on_c, 0, 89, 60
2, 19613, Note_on_c, 0, 82, 60
2, 19657, Note_on_c, 0, 65, 60
2, 19660, Note_on_c, 0, 62, 60
2, 19662, Note_on_c, 0, 56, 60
2, 19666, Note_on_c, 0, 58, 60
2, 19685, Note_on_c, 0, 56, 0
2, 19690, Note_on_c, 0, 82, 0
2, 19692, Note_on_c, 0, 65, 0
2, 19692, Note_on_c, 0, 62, 0
2, 19694, Note_on_c, 0, 58, 0
2, 19699, Note_on_c, 0, 80, 0
2, 19704, Note_on_c, 0, 92, 0
2, 19706, Note_on_c, 0, 89, 0
2, 19743, Note_on_c, 0, 84, 60
2, 19748, Note_on_c, 0, 72, 60
2, 19750, Note_on_c, 0, 41, 60
2, 19771, Note_on_c, 0, 84, 0
2, 19773, Note_on_c, 0, 72, 0
2, 19779, Control_c, 0, 64, 127
2, 19788, Note_on_c, 0, 86, 60
2, 19788, Note_on_c, 0, 82, 60
2, 19790, Note_on_c, 0, 74, 60
2, 19799, Note_on_c, 0, 56, 60
2, 19811, Note_on_c, 0, 41, 0
2, 19828, Note_on_c, 0, 56, 0
2, 19833, Note_on_c, 0, 86, 0
2, 19833, Note_on_c, 0, 82, 0
2, 19835, Note_on_c, 0, 74, 0
2, 19877, Note_on_c, 0, 87, 60
2, 19879, Note_on_c, 0, 75, 60
2, 19896, Control_c, 0, 64, 0
2, 19922, Note_on_c, 0, 84, 60
2, 19922, Note_on_c, 0, 80, 60
2, 19924, Note_on_c, 0, 75, 0
2, 19924, Note_on_c, 0, 72, 60
2, 19924, Note_on_c, 0, 65, 60
2, 19926, Note_on_c, 0, 62, 60
2, 19929, Note_on_c, 0, 58, 60
2, 19933, Note_on_c, 0, 87, 0
2, 19961, Note_on_c, 0, 62, 0
2, 19961, Note_on_c, 0, 65, 0
2, 19961, Note_on_c, 0, 58, 0
2, 19968, Note_on_c, 0, 84, 0
2, 19969, Note_on_c, 0, 72, 0
2, 19969, Note_on_c, 0, 80, 0
2, 20018, Note_on_c, 0, 86, 60
2, 20018, Note_on_c, 0, 74, 60
2, 20048, Note_on_c, 0, 74, 0
2, 20052, Note_on_c, 0, 82, 60
2, 20052, Note_on_c, 0, 80, 60
2, 20055, Note_on_c, 0, 86, 0
2, 20057, Note_on_c, 0, 70, 60
2, 20061, Note_on_c, 0, 34, 60
2, 20088, Note_on_c, 0, 34, 0
2, 20090, Note_on_c, 0, 82, 0
2, 20090, Note_on_c, 0, 80, 0
2, 20090, Note_on_c, 0, 70, 0
2, 20144, Note_on_c, 0, 83, 60
2, 20144, Note_on_c, 0, 80, 60
2, 20148, Note_on_c, 0, 71, 60
2, 20172, Note_on_c, 0, 71, 0
2, 20179, Note_on_c, 0, 84, 60
2, 20183, Note_on_c, 0, 65, 60
2, 20183, Note_on_c, 0, 72, 60
2, 20183, Note_on_c, 0, 62, 60
2, 20186, Note_on_c, 0, 58, 60
2, 20189, Note_on_c, 0, 83, 0
2, 20225, Note_on_c, 0, 72, 0
2, 20225, Note_on_c, 0, 80, 0
2, 20225, Note_on_c, 0, 84, 0
2, 20228, Note_on_c, 0, 65, 0
2, 20228, Note_on_c, 0, 58, 0
2, 20228, Note_on_c, 0, 62, 0
2, 20275, Note_on_c, 0, 39, 60
2, 20277, Note_on_c, 0, 82, 60
2, 20279, Note_on_c, 0, 79, 60
2, 20279, Note_on_c, 0, 85, 60
2, 20279, Note_on_c, 0, 73, 60
2, 20296, Note_on_c, 0, 82, 0
2, 20298, Note_on_c, 0, 79, 0
2, 20313, Note_on_c, 0, 73, 0
2, 20313, Control_c, 0, 64, 127
2, 20315, Note_on_c, 0, 55, 60
2, 20319, Note_on_c, 0, 86, 60
2, 20321, Note_on_c, 0, 85, 0
2, 20321, Note_on_c, 0, 79, 60
2, 20321, Note_on_c, 0, 82, 60
2, 20321, Note_on_c, 0, 74, 60
2, 20326, Note_on_c, 0, 46, 60
2, 20328, Note_on_c, 0, 39, 0
2, 20347, Note_on_c, 0, 82, 0
2, 20347, Note_on_c, 0, 86, 0
2, 20347, Note_on_c, 0, 74, 0
2, 20355, Note_on_c, 0, 79, 0
2, 20385, Note_on_c, 0, 46, 0
2, 20394, Note_on_c, 0, 55, 0
2, 20404, Note_on_c, 0, 84, 60
2, 20406, Note_on_c, 0, 79, 60
2, 20409, Note_on_c, 0, 72, 60
2, 20425, Note_on_c, 0, 79, 0
2, 20425, Control_c, 0, 64, 0
2, 20449, Note_on_c, 0, 82, 60
2, 20451, Note_on_c, 0, 84, 0
2, 20451, Note_on_c, 0, 79, 60
2, 20451, Note_on_c, 0, 67, 60
2, 20453, Note_on_c, 0, 72, 0
2, 20453, Note_on_c, 0, 70, 60
2, 20453, Note_on_c, 0, 63, 60
2, 20458, Note_on_c, 0, 58, 60
2, 20490, Note_on_c, 0, 63, 0
2, 20490, Note_on_c, 0, 67, 0
2, 20492, Note_on_c, 0, 58, 0
2, 20505, Note_on_c, 0, 82, 0
2, 20505, Note_on_c, 0, 70, 0
2, 20505, Note_on_c, 0, 79, 0
2, 20539, Note_on_c, 0, 84, 60
2, 20541, Note_on_c, 0, 79, 60
2, 20544, Note_on_c, 0, 72, 60
2, 20590, Note_on_c, 0, 34, 60
2, 20661, Note_on_c, 0, 34, 0
2, 20671, Note_on_c, 0, 82, 60
2, 20680, Note_on_c, 0, 84, 0
2, 20718, Note_on_c, 0, 67, 60
2, 20718, Note_on_c, 0, 63, 60
2, 20722, Note_on_c, 0, 58, 60
2, 20736, Note_on_c, 0, 58, 0
2, 20741, Note_on_c, 0, 67, 0
2, 20743, Note_on_c, 0, 63, 0
2, 20769, Note_on_c, 0, 82, 0
2, 20769, Note_on_c, 0, 72, 0
2, 20769, Note_on_c, 0, 79, 0
2, 20806, Note_on_c, 0, 82, 60
2, 20848, Note_on_c, 0, 74, 60
2, 20851, Note_on_c, 0, 79, 60
2, 20853, Note_on_c, 0, 86, 60
2, 20853, Note_on_c, 0, 55, 60
2, 20856, Note_on_c, 0, 46, 60
2, 20856, Control_c, 0, 64, 127
2, 20893, Note_on_c, 0, 86, 0
2, 20893, Note_on_c, 0, 79, 0
2, 20893, Note_on_c, 0, 82, 0
2, 20895, Note_on_c, 0, 74, 0
2, 20929, Note_on_c, 0, 55, 0
2, 20931, Note_on_c, 0, 82, 60
2, 20933, Note_on_c, 0, 87, 60
2, 20933, Note_on_c, 0, 75, 60
2, 20935, Note_on_c, 0, 79, 60
2, 20940, Note_on_c, 0, 46, 0
2, 20952, Note_on_c, 0, 82, 0
2, 20952, Note_on_c, 0, 79, 0
2, 20961, Control_c, 0, 64, 0
2, 20970, Note_on_c, 0, 87, 0
2, 20972, Note_on_c, 0, 75, 0
2, 20978, Note_on_c, 0, 84, 60
2, 20978, Note_on_c, 0, 82, 60
2, 20980, Note_on_c, 0, 72, 60
2, 20980, Note_on_c, 0, 79, 60
2, 20980, Note_on_c, 0, 63, 60
2, 20982, Note_on_c, 0, 67, 60
2, 20982, Note_on_c, 0, 58, 60
2, 21015, Note_on_c, 0, 67, 0
2, 21015, Note_on_c, 0, 72, 0
2, 21015, Note_on_c, 0, 82, 0
2, 21015, Note_on_c, 0, 84, 0
2, 21015, Note_on_c, 0, 79, 0
2, 21017, Note_on_c, 0, 58, 0
2, 21017, Note_on_c, 0, 63, 0
2, 21064, Note_on_c, 0, 79, 60
2, 21066, Note_on_c, 0, 86, 60
2, 21066, Note_on_c, 0, 74, 60
2, 21104, Note_on_c, 0, 74, 0
2, 21108, Note_on_c, 0, 82, 60
2, 21111, Note_on_c, 0, 86, 0
2, 21111, Note_on_c, 0, 79, 0
2, 21111, Note_on_c, 0, 70, 60
2, 21115, Note_on_c, 0, 54, 60
2, 21117, Note_on_c, 0, 46, 60
2, 21144, Note_on_c, 0, 70, 0
2, 21144, Note_on_c, 0, 82, 0
2, 21198, Note_on_c, 0, 83, 60
2, 21198, Note_on_c, 0, 79, 60
2, 21200, Note_on_c, 0, 71, 60
2, 21211, Note_on_c, 0, 54, 0
2, 21213, Note_on_c, 0, 46, 0
2, 21232, Note_on_c, 0, 79, 0
2, 21235, Note_on_c, 0, 71, 0
2, 21240, Note_on_c, 0, 83, 0
2, 21240, Note_on_c, 0, 84, 60
2, 21240, Note_on_c, 0, 72, 60
2, 21242, Note_on_c, 0, 66, 60
2, 21242, Note_on_c, 0, 69, 60
2, 21242, Note_on_c, 0, 63, 60
2, 21251, Note_on_c, 0, 60, 60
2, 21262, Note_on_c, 0, 60, 0
2, 21268, Note_on_c, 0, 72, 0
2, 21268, Note_on_c, 0, 66, 0
2, 21268, Note_on_c, 0, 69, 0
2, 21270, Note_on_c, 0, 63, 0
2, 21277, Note_on_c, 0, 84, 0
2, 21322, Note_on_c, 0, 80, 60
2, 21331, Note_on_c, 0, 85, 60
2, 21331, Note_on_c, 0, 73, 60
2, 21347, Note_on_c, 0, 80, 0
2, 21354, Note_on_c, 0, 85, 0
2, 21356, Note_on_c, 0, 73, 0
2, 21356, Control_c, 0, 64, 127
2, 21371, Note_on_c, 0, 86, 60
2, 21371, Note_on_c, 0, 80, 60
2, 21373, Note_on_c, 0, 74, 60
2, 21377, Note_on_c, 0, 44, 60
2, 21382, Note_on_c, 0, 53, 60
2, 21396, Note_on_c, 0, 80, 0
2, 21405, Note_on_c, 0, 74, 0
2, 21413, Note_on_c, 0, 86, 0
2, 21446, Note_on_c, 0, 44, 0
2, 21458, Note_on_c, 0, 84, 60
2, 21458, Note_on_c, 0, 80, 60
2, 21462, Note_on_c, 0, 72, 60
2, 21469, Control_c, 0, 64, 0
2, 21486, Note_on_c, 0, 72, 0
2, 21488, Note_on_c, 0, 53, 0
2, 21492, Note_on_c, 0, 84, 0
2, 21501, Note_on_c, 0, 74, 60
2, 21505, Note_on_c, 0, 65, 60
2, 21505, Note_on_c, 0, 62, 60
2, 21507, Note_on_c, 0, 68, 60
2, 21507, Note_on_c, 0, 56, 60
2, 21509, Note_on_c, 0, 58, 60
2, 21528, Note_on_c, 0, 68, 0
2, 21528, Note_on_c, 0, 74, 0
2, 21528, Note_on_c, 0, 80, 0
2, 21530, Note_on_c, 0, 56, 0
2, 21530, Note_on_c, 0, 62, 0
2, 21530, Note_on_c, 0, 58, 0
2, 21530, Note_on_c, 0, 65, 0
2, 21588, Note_on_c, 0, 79, 60
2, 21591, Note_on_c, 0, 73, 60
2, 21595, Note_on_c, 0, 67, 60
2, 21616, Note_on_c, 0, 67, 0
2, 21616, Note_on_c, 0, 73, 0
2, 21623, Note_on_c, 0, 79, 0
2, 21631, Note_on_c, 0, 77, 60
2, 21631, Note_on_c, 0, 74, 60
2, 21633, Note_on_c, 0, 65, 60
2, 21638, Note_on_c, 0, 34, 60
2, 21657, Note_on_c, 0, 34, 0
2, 21684, Note_on_c, 0, 77, 0
2, 21684, Note_on_c, 0, 74, 0
2, 21687, Note_on_c, 0, 65, 0
2, 21719, Note_on_c, 0, 80, 60
2, 21720, Note_on_c, 0, 84, 60
2, 21720, Note_on_c, 0, 87, 60
2, 21720, Note_on_c, 0, 75, 60
2, 21766, Note_on_c, 0, 65, 60
2, 21768, Note_on_c, 0, 58, 60
2, 21769, Note_on_c, 0, 62, 60
2, 21772, Note_on_c, 0, 56, 60
2, 21799, Note_on_c, 0, 62, 0
2, 21799, Note_on_c, 0, 65, 0
2, 21802, Note_on_c, 0, 56, 0
2, 21802, Note_on_c, 0, 58, 0
2, 21815, Note_on_c, 0, 80, 0
2, 21815, Note_on_c, 0, 84, 0
2, 21816, Note_on_c, 0, 75, 0
2, 21823, Note_on_c, 0, 87, 0
2, 21849, Note_on_c, 0, 84, 60
2, 21851, Note_on_c, 0, 72, 60
2, 21883, Control_c, 0, 64, 127
2, 21891, Note_on_c, 0, 86, 60
2, 21891, Note_on_c, 0, 80, 60
2, 21893, Note_on_c, 0, 72, 0
2, 21893, Note_on_c, 0, 74, 60
2, 21895, Note_on_c, 0, 50, 60
2, 21898, Note_on_c, 0, 41, 60
2, 21902, Note_on_c, 0, 84, 0
2, 21928, Note_on_c, 0, 80, 0
2, 21936, Note_on_c, 0, 74, 0
2, 21936, Note_on_c, 0, 86, 0
2, 21958, Note_on_c, 0, 41, 0
2, 21964, Note_on_c, 0, 50, 0
2, 21977, Note_on_c, 0, 82, 60
2, 21979, Note_on_c, 0, 70, 60
2, 21998, Control_c, 0, 64, 0
2, 22015, Note_on_c, 0, 82, 0
2, 22017, Note_on_c, 0, 70, 0
2, 22022, Note_on_c, 0, 83, 60
2, 22024, Note_on_c, 0, 71, 60
2, 22024, Note_on_c, 0, 80, 60
2, 22024, Note_on_c, 0, 65, 60
2, 22028, Note_on_c, 0, 62, 60
2, 22028, Note_on_c, 0, 58, 60
2, 22030, Note_on_c, 0, 56, 60
2, 22052, Note_on_c, 0, 62, 0
2, 22052, Note_on_c, 0, 65, 0
2, 22054, Note_on_c, 0, 58, 0
2, 22054, Note_on_c, 0, 56, 0
2, 22057, Note_on_c, 0, 83, 0
2, 22060, Note_on_c, 0, 80, 0
2, 22060, Note_on_c, 0, 71, 0
2, 22113, Note_on_c, 0, 80, 60
2, 22113, Note_on_c, 0, 84, 60
2, 22113, Note_on_c, 0, 72, 60
2, 22160, Note_on_c, 0, 58, 60
2, 22162, Note_on_c, 0, 46, 60
2, 22192, Note_on_c, 0, 72, 0
2, 22192, Note_on_c, 0, 80, 0
2, 22197, Note_on_c, 0, 46, 0
2, 22199, Note_on_c, 0, 84, 0
2, 22244, Note_on_c, 0, 82, 60
2, 22246, Note_on_c, 0, 70, 60
2, 22256, Note_on_c, 0, 58, 0
2, 22277, Note_on_c, 0, 84, 60
2, 22277, Note_on_c, 0, 72, 60
2, 22279, Note_on_c, 0, 70, 0
2, 22279, Note_on_c, 0, 65, 60
2, 22282, Note_on_c, 0, 62, 60
2, 22282, Note_on_c, 0, 80, 60
2, 22282, Note_on_c, 0, 58, 60
2, 22288, Note_on_c, 0, 82, 0
2, 22288, Note_on_c, 0, 56, 60
2, 22324, Note_on_c, 0, 62, 0
2, 22324, Note_on_c, 0, 58, 0
2, 22331, Note_on_c, 0, 65, 0
2, 22337, Note_on_c, 0, 84, 0
2, 22340, Note_on_c, 0, 72, 0
2, 22340, Note_on_c, 0, 80, 0
2, 22369, Note_on_c, 0, 70, 60
2, 22373, Note_on_c, 0, 82, 60
2, 22373, Note_on_c, 0, 39, 60
2, 22391, Note_on_c, 0, 82, 0
2, 22394, Note_on_c, 0, 56, 0
2, 22410, Note_on_c, 0, 70, 0
2, 22412, Note_on_c, 0, 55, 60
2, 22416, Note_on_c, 0, 87, 60
2, 22416, Note_on_c, 0, 82, 60
2, 22418, Note_on_c, 0, 75, 60
2, 22418, Note_on_c, 0, 79, 60
2, 22418, Control_c, 0, 64, 127
2, 22429, Note_on_c, 0, 46, 60
2, 22444, Note_on_c, 0, 75, 0
2, 22444, Note_on_c, 0, 82, 0
2, 22448, Note_on_c, 0, 55, 0
2, 22448, Note_on_c, 0, 46, 0
2, 22450, Note_on_c, 0, 39, 0
2, 22452, Note_on_c, 0, 79, 0
2, 22452, Note_on_c, 0, 87, 0
2, 22510, Note_on_c, 0, 55, 60
2, 22510, Note_on_c, 0, 43, 60
2, 22532, Control_c, 0, 64, 0
2, 22600, Note_on_c, 0, 43, 0
2, 22606, Note_on_c, 0, 55, 0
2, 22642, Note_on_c, 0, 54, 60
2, 22649, Note_on_c, 0, 42, 60
2, 22661, Note_on_c, 0, 42, 0
2, 22670, Note_on_c, 0, 54, 0
2, 22687, Note_on_c, 0, 55, 60
2, 22689, Note_on_c, 0, 43, 60
2, 22724, Note_on_c, 0, 55, 0
2, 22726, Note_on_c, 0, 43, 0
2, 22768, Note_on_c, 0, 57, 60
2, 22771, Note_on_c, 0, 45, 60
2, 22860, Note_on_c, 0, 45, 0
2, 22869, Note_on_c, 0, 57, 0
2, 22902, Note_on_c, 0, 57, 60
2, 22902, Note_on_c, 0, 45, 60
2, 22947, Note_on_c, 0, 57, 0
2, 22949, Note_on_c, 0, 45, 0
2, 22958, Note_on_c, 0, 46, 60
2, 22960, Note_on_c, 0, 58, 60
2, 22970, Control_c, 0, 64, 127
2, 23003, Note_on_c, 0, 46, 0
2, 23009, Note_on_c, 0, 58, 0
2, 23050, Note_on_c, 0, 57, 60
2, 23050, Note_on_c, 0, 45, 60
2, 23073, Note_on_c, 0, 45, 0
2, 23090, Note_on_c, 0, 57, 0
2, 23092, Note_on_c, 0, 46, 60
2, 23094, Note_on_c, 0, 58, 60
2, 23120, Control_c, 0, 64, 0
2, 23133, Note_on_c, 0, 58, 0
2, 23136, Note_on_c, 0, 46, 0
2, 23180, Note_on_c, 0, 48, 60
2, 23182, Note_on_c, 0, 60, 60
2, 23265, Note_on_c, 0, 48, 0
2, 23274, Note_on_c, 0, 60, 0
2, 23310, Note_on_c, 0, 58, 60
2, 23314, Note_on_c, 0, 46, 60
2, 23338, Note_on_c, 0, 46, 0
2, 23344, Note_on_c, 0, 58, 0
2, 23344, Note_on_c, 0, 55, 60
2, 23344, Note_on_c, 0, 43, 60
2, 23391, Note_on_c, 0, 43, 0
2, 23404, Note_on_c, 0, 55, 0
2, 23440, Note_on_c, 0, 54, 60
2, 23443, Note_on_c, 0, 42, 60
2, 23472, Control_c, 0, 64, 127
2, 23474, Note_on_c, 0, 54, 0
2, 23476, Note_on_c, 0, 42, 0
2, 23478, Note_on_c, 0, 80, 60
2, 23478, Note_on_c, 0, 86, 60
2, 23478, Note_on_c, 0, 74, 60
2, 23485, Note_on_c, 0, 53, 60
2, 23485, Note_on_c, 0, 41, 60
2, 23527, Note_on_c, 0, 41, 0
2, 23532, Note_on_c, 0, 74, 0
2, 23532, Note_on_c, 0, 80, 0
2, 23536, Note_on_c, 0, 86, 0
2, 23543, Note_on_c, 0, 53, 0
2, 23555, Control_c, 0, 64, 0
2, 23564, Note_on_c, 0, 80, 60
2, 23564, Note_on_c, 0, 84, 60
2, 23564, Note_on_c, 0, 72, 60
2, 23600, Note_on_c, 0, 74, 60
2, 23609, Note_on_c, 0, 84, 0
2, 23609, Note_on_c, 0, 65, 60
2, 23611, Note_on_c, 0, 72, 0
2, 23611, Note_on_c, 0, 58, 60
2, 23611, Note_on_c, 0, 56, 60
2, 23613, Note_on_c, 0, 70, 60
2, 23613, Note_on_c, 0, 62, 60
2, 23642, Note_on_c, 0, 62, 0
2, 23642, Note_on_c, 0, 74, 0
2, 23642, Note_on_c, 0, 80, 0
2, 23642, Note_on_c, 0, 65, 0
2, 23642, Note_on_c, 0, 70, 0
2, 23645, Note_on_c, 0, 58, 0
2, 23645, Note_on_c, 0, 56, 0
2, 23694, Note_on_c, 0, 80, 60
2, 23696, Note_on_c, 0, 83, 60
2, 23696, Note_on_c, 0, 71, 60
2, 23703, Note_on_c, 0, 34, 60
2, 23715, Note_on_c, 0, 80, 0
2, 23728, Note_on_c, 0, 83, 0
2, 23731, Note_on_c, 0, 71, 0
2, 23736, Note_on_c, 0, 80, 60
2, 23736, Note_on_c, 0, 72, 60
2, 23738, Note_on_c, 0, 84, 60
2, 23754, Note_on_c, 0, 34, 0
2, 23871, Note_on_c, 0, 65, 60
2, 23873, Note_on_c, 0, 62, 60
2, 23873, Note_on_c, 0, 56, 60
2, 23878, Note_on_c, 0, 58, 60
2, 23905, Note_on_c, 0, 58, 0
2, 23905, Note_on_c, 0, 65, 0
2, 23905, Note_on_c, 0, 62, 0
2, 23907, Note_on_c, 0, 56, 0
2, 23920, Note_on_c, 0, 84, 0
2, 23923, Note_on_c, 0, 72, 0
2, 23923, Note_on_c, 0, 80, 0
2, 23954, Note_on_c, 0, 82, 60
2, 23954, Note_on_c, 0, 41, 60
2, 24000, Note_on_c, 0, 81, 60
2, 24001, Note_on_c, 0, 82, 0
2, 24005, Note_on_c, 0, 56, 60
2, 24010, Control_c, 0, 64, 127
2, 24033, Note_on_c, 0, 41, 0
2, 24072, Note_on_c, 0, 81, 0
2, 24089, Note_on_c, 0, 82, 60
2, 24099, Note_on_c, 0, 56, 0
2, 24112, Control_c, 0, 64, 0
2, 24122, Note_on_c, 0, 80, 60
2, 24122, Note_on_c, 0, 65, 60
2, 24125, Note_on_c, 0, 62, 60
2, 24125, Note_on_c, 0, 68, 60
2, 24125, Note_on_c, 0, 58, 60
2, 24131, Note_on_c, 0, 82, 0
2, 24155, Note_on_c, 0, 82, 60
2, 24157, Note_on_c, 0, 80, 0
2, 24166, Note_on_c, 0, 68, 0
2, 24166, Note_on_c, 0, 65, 0
2, 24168, Note_on_c, 0, 62, 0
2, 24168, Note_on_c, 0, 58, 0
2, 24189, Note_on_c, 0, 80, 60
2, 24199, Note_on_c, 0, 82, 0
2, 24225, Note_on_c, 0, 77, 60
2, 24236, Note_on_c, 0, 80, 0
2, 24268, Note_on_c, 0, 34, 60
2, 24272, Note_on_c, 0, 77, 0
2, 24274, Note_on_c, 0, 74, 60
2, 24289, Note_on_c, 0, 74, 0
2, 24295, Note_on_c, 0, 77, 60
2, 24304, Note_on_c, 0, 34, 0
2, 24323, Note_on_c, 0, 74, 60
2, 24340, Note_on_c, 0, 77, 0
2, 24360, Note_on_c, 0, 72, 60
2, 24368, Note_on_c, 0, 74, 0
2, 24391, Note_on_c, 0, 80, 60
2, 24391, Note_on_c, 0, 82, 60
2, 24391, Note_on_c, 0, 77, 60
2, 24394, Note_on_c, 0, 72, 0
2, 24394, Note_on_c, 0, 70, 60
2, 24394, Note_on_c, 0, 74, 60
2, 24394, Note_on_c, 0, 65, 60
2, 24396, Note_on_c, 0, 62, 60
2, 24400, Note_on_c, 0, 58, 60
2, 24428, Note_on_c, 0, 58, 0
2, 24428, Note_on_c, 0, 62, 0
2, 24428, Note_on_c, 0, 65, 0
2, 24443, Note_on_c, 0, 82, 0
2, 24443, Note_on_c, 0, 80, 0
2, 24443, Note_on_c, 0, 70, 0
2, 24443, Note_on_c, 0, 74, 0
2, 24443, Note_on_c, 0, 77, 0
2, 24475, Note_on_c, 0, 80, 60
2, 24475, Note_on_c, 0, 77, 60
2, 24477, Note_on_c, 0, 74, 60
2, 24480, Note_on_c, 0, 68, 60
2, 24481, Note_on_c, 0, 39, 60
2, 24513, Note_on_c, 0, 55, 60
2, 24515, Note_on_c, 0, 39, 0
2, 24522, Note_on_c, 0, 68, 0
2, 24522, Note_on_c, 0, 74, 0
2, 24526, Note_on_c, 0, 46, 60
2, 24530, Note_on_c, 0, 80, 0
2, 24530, Note_on_c, 0, 77, 0
2, 24545, Control_c, 0, 64, 127
2, 24586, Note_on_c, 0, 46, 0
2, 24592, Note_on_c, 0, 55, 0
2, 24607, Note_on_c, 0, 74, 60
2, 24609, Note_on_c, 0, 86, 60
2, 24644, Control_c, 0, 64, 0
2, 24649, Note_on_c, 0, 84, 60
2, 24652, Note_on_c, 0, 86, 0
2, 24652, Note_on_c, 0, 79, 60
2, 24652, Note_on_c, 0, 72, 60
2, 24654, Note_on_c, 0, 74, 0
2, 24654, Note_on_c, 0, 67, 60
2, 24654, Note_on_c, 0, 82, 60
2, 24654, Note_on_c, 0, 63, 60
2, 24656, Note_on_c, 0, 58, 60
2, 24679, Note_on_c, 0, 58, 0
2, 24686, Note_on_c, 0, 79, 0
2, 24686, Note_on_c, 0, 84, 0
2, 24686, Note_on_c, 0, 67, 0
2, 24688, Note_on_c, 0, 72, 0
2, 24688, Note_on_c, 0, 63, 0
2, 24695, Note_on_c, 0, 82, 0
2, 24740, Note_on_c, 0, 82, 60
2, 24740, Note_on_c, 0, 79, 60
2, 24742, Note_on_c, 0, 70, 60
2, 24756, Note_on_c, 0, 79, 0
2, 24773, Note_on_c, 0, 70, 0
2, 24780, Note_on_c, 0, 84, 60
2, 24780, Note_on_c, 0, 79, 60
2, 24782, Note_on_c, 0, 82, 0
2, 24784, Note_on_c, 0, 72, 60
2, 24789, Note_on_c, 0, 58, 60
2, 24789, Note_on_c, 0, 46, 60
2, 24829, Note_on_c, 0, 46, 0
2, 24883, Note_on_c, 0, 58, 0
2, 24916, Note_on_c, 0, 63, 60
2, 24918, Note_on_c, 0, 67, 60
2, 24918, Note_on_c, 0, 58, 60
2, 24942, Note_on_c, 0, 67, 0
2, 24944, Note_on_c, 0, 63, 0
2, 24961, Note_on_c, 0, 72, 0
2, 24967, Note_on_c, 0, 84, 0
2, 24970, Note_on_c, 0, 79, 0
2, 25000, Note_on_c, 0, 46, 60
2, 25002, Note_on_c, 0, 82, 60
2, 25002, Note_on_c, 0, 79, 60
2, 25004, Note_on_c, 0, 70, 60
2, 25021, Note_on_c, 0, 79, 0
2, 25021, Note_on_c, 0, 82, 0
2, 25025, Note_on_c, 0, 58, 0
2, 25032, Note_on_c, 0, 70, 0
2, 25036, Control_c, 0, 64, 127
2, 25044, Note_on_c, 0, 82, 60
2, 25044, Note_on_c, 0, 79, 60
2, 25047, Note_on_c, 0, 86, 60
2, 25047, Note_on_c, 0, 74, 60
2, 25049, Note_on_c, 0, 55, 60
2, 25079, Note_on_c, 0, 46, 0
2, 25082, Note_on_c, 0, 74, 0
2, 25082, Note_on_c, 0, 86, 0
2, 25082, Note_on_c, 0, 82, 0
2, 25082, Note_on_c, 0, 79, 0
2, 25134, Note_on_c, 0, 79, 60
2, 25134, Note_on_c, 0, 82, 60
2, 25134, Note_on_c, 0, 87, 60
2, 25134, Note_on_c, 0, 75, 60
2, 25152, Control_c, 0, 64, 0
2, 25153, Note_on_c, 0, 82, 0
2, 25153, Note_on_c, 0, 79, 0
2, 25155, Note_on_c, 0, 55, 0
2, 25176, Note_on_c, 0, 79, 60
2, 25178, Note_on_c, 0, 84, 60
2, 25178, Note_on_c, 0, 82, 60
2, 25181, Note_on_c, 0, 75, 0
2, 25181, Note_on_c, 0, 72, 60
2, 25181, Note_on_c, 0, 63, 60
2, 25183, Note_on_c, 0, 60, 60
2, 25187, Note_on_c, 0, 87, 0
2, 25215, Note_on_c, 0, 72, 0
2, 25215, Note_on_c, 0, 84, 0
2, 25215, Note_on_c, 0, 82, 0
2, 25215, Note_on_c, 0, 79, 0
2, 25217, Note_on_c, 0, 60, 0
2, 25217, Note_on_c, 0, 63, 0
2, 25269, Note_on_c, 0, 82, 60
2, 25269, Note_on_c, 0, 86, 60
2, 25269, Note_on_c, 0, 79, 60
2, 25271, Note_on_c, 0, 74, 60
2, 25288, Note_on_c, 0, 82, 0
2, 25290, Note_on_c, 0, 79, 0
2, 25313, Note_on_c, 0, 82, 60
2, 25316, Note_on_c, 0, 79, 60
2, 25318, Note_on_c, 0, 70, 60
2, 25320, Note_on_c, 0, 39, 60
2, 25324, Note_on_c, 0, 86, 0
2, 25326, Note_on_c, 0, 74, 0
2, 25356, Note_on_c, 0, 39, 0
2, 25360, Note_on_c, 0, 79, 0
2, 25360, Note_on_c, 0, 82, 0
2, 25363, Note_on_c, 0, 70, 0
2, 25407, Note_on_c, 0, 87, 60
2, 25407, Note_on_c, 0, 75, 60
2, 25447, Note_on_c, 0, 86, 60
2, 25447, Note_on_c, 0, 79, 60
2, 25450, Note_on_c, 0, 87, 0
2, 25452, Note_on_c, 0, 75, 0
2, 25452, Note_on_c, 0, 74, 60
2, 25452, Note_on_c, 0, 62, 60
2, 25459, Note_on_c, 0, 58, 60
2, 25486, Note_on_c, 0, 74, 0
2, 25486, Note_on_c, 0, 79, 0
2, 25488, Note_on_c, 0, 58, 0
2, 25488, Note_on_c, 0, 62, 0
2, 25494, Note_on_c, 0, 86, 0
2, 25537, Note_on_c, 0, 85, 60
2, 25537, Note_on_c, 0, 79, 60
2, 25539, Note_on_c, 0, 73, 60
2, 25582, Note_on_c, 0, 85, 0
2, 25582, Note_on_c, 0, 84, 60
2, 25582, Note_on_c, 0, 80, 60
2, 25584, Note_on_c, 0, 73, 0
2, 25584, Note_on_c, 0, 79, 0
2, 25586, Note_on_c, 0, 56, 60
2, 25588, Note_on_c, 0, 72, 60
2, 25588, Note_on_c, 0, 44, 60
2, 25590, Control_c, 0, 64, 127
2, 25623, Note_on_c, 0, 44, 0
2, 25663, Note_on_c, 0, 80, 0
2, 25663, Note_on_c, 0, 72, 0
2, 25670, Control_c, 0, 64, 0
2, 25672, Note_on_c, 0, 84, 0
2, 25682, Note_on_c, 0, 56, 0
2, 25712, Note_on_c, 0, 80, 60
2, 25714, Note_on_c, 0, 83, 60
2, 25714, Note_on_c, 0, 71, 60
2, 25716, Note_on_c, 0, 60, 60
2, 25716, Note_on_c, 0, 51, 60
2, 25719, Note_on_c, 0, 56, 60
2, 25751, Note_on_c, 0, 60, 0
2, 25752, Note_on_c, 0, 51, 0
2, 25757, Note_on_c, 0, 80, 0
2, 25761, Note_on_c, 0, 56, 0
2, 25776, Note_on_c, 0, 71, 0
2, 25785, Note_on_c, 0, 83, 0
2, 25791, Note_on_c, 0, 84, 60
2, 25796, Note_on_c, 0, 72, 60
2, 25843, Note_on_c, 0, 81, 60
2, 25845, Note_on_c, 0, 84, 0
2, 25845, Note_on_c, 0, 78, 60
2, 25845, Note_on_c, 0, 86, 60
2, 25845, Note_on_c, 0, 74, 60
2, 25847, Note_on_c, 0, 72, 0
2, 25848, Note_on_c, 0, 57, 60
2, 25848, Note_on_c, 0, 45, 60
2, 25876, Note_on_c, 0, 45, 0
2, 25925, Note_on_c, 0, 74, 0
2, 25925, Note_on_c, 0, 81, 0
2, 25932, Note_on_c, 0, 86, 0
2, 25934, Note_on_c, 0, 78, 0
2, 25944, Note_on_c, 0, 57, 0
2, 25977, Note_on_c, 0, 78, 60
2, 25977, Note_on_c, 0, 81, 60
2, 25977, Note_on_c, 0, 84, 60
2, 25977, Note_on_c, 0, 72, 60
2, 25979, Note_on_c, 0, 57, 60
2, 25979, Note_on_c, 0, 60, 60
2, 25979, Note_on_c, 0, 54, 60
2, 25981, Note_on_c, 0, 51, 60
2, 26011, Note_on_c, 0, 60, 0
2, 26011, Note_on_c, 0, 57, 0
2, 26013, Note_on_c, 0, 51, 0
2, 26013, Note_on_c, 0, 54, 0
2, 26017, Note_on_c, 0, 81, 0
2, 26019, Note_on_c, 0, 72, 0
2, 26026, Note_on_c, 0, 84, 0
2, 26028, Note_on_c, 0, 78, 0
2, 26060, Note_on_c, 0, 86, 60
2, 26062, Note_on_c, 0, 77, 60
2, 26064, Note_on_c, 0, 74, 60
2, 26081, Note_on_c, 0, 77, 0
2, 26094, Control_c, 0, 64, 127
2, 26096, Note_on_c, 0, 86, 0
2, 26098, Note_on_c, 0, 74, 0
2, 26103, Note_on_c, 0, 87, 60
2, 26103, Note_on_c, 0, 79, 60
2, 26105, Note_on_c, 0, 75, 60
2, 26109, Note_on_c, 0, 46, 60
2, 26115, Note_on_c, 0, 58, 60
2, 26136, Note_on_c, 0, 82, 60
2, 26136, Note_on_c, 0, 77, 60
2, 26138, Note_on_c, 0, 79, 0
2, 26138, Note_on_c, 0, 87, 0
2, 26141, Note_on_c, 0, 75, 0
2, 26145, Note_on_c, 0, 89, 60
2, 26164, Note_on_c, 0, 82, 0
2, 26169, Note_on_c, 0, 46, 0
2, 26173, Control_c, 0, 64, 0
2, 26182, Note_on_c, 0, 89, 0
2, 26184, Note_on_c, 0, 77, 0
2, 26185, Note_on_c, 0, 58, 0
2, 26190, Note_on_c, 0, 79, 60
2, 26190, Note_on_c, 0, 82, 60
2, 26190, Note_on_c, 0, 75, 60
2, 26192, Note_on_c, 0, 87, 60
2, 26232, Note_on_c, 0, 83, 60
2, 26234, Note_on_c, 0, 87, 0
2, 26234, Note_on_c, 0, 82, 0
2, 26234, Note_on_c, 0, 79, 0
2, 26234, Note_on_c, 0, 77, 60
2, 26234, Note_on_c, 0, 86, 60
2, 26234, Note_on_c, 0, 74, 60
2, 26237, Note_on_c, 0, 75, 0
2, 26239, Note_on_c, 0, 50, 60
2, 26239, Note_on_c, 0, 43, 60
2, 26241, Note_on_c, 0, 59, 60
2, 26280, Note_on_c, 0, 74, 0
2, 26286, Note_on_c, 0, 86, 0
2, 26286, Note_on_c, 0, 83, 0
2, 26288, Note_on_c, 0, 77, 0
2, 26307, Note_on_c, 0, 43, 0
2, 26314, Note_on_c, 0, 50, 0
2, 26318, Note_on_c, 0, 79, 60
2, 26318, Note_on_c, 0, 82, 60
2, 26318, Note_on_c, 0, 84, 60
2, 26318, Note_on_c, 0, 72, 60
2, 26320, Note_on_c, 0, 76, 60
2, 26323, Note_on_c, 0, 59, 0
2, 26365, Note_on_c, 0, 52, 60
2, 26365, Note_on_c, 0, 43, 60
2, 26367, Note_on_c, 0, 36, 60
2, 26487, Note_on_c, 0, 60, 60
2, 26487, Note_on_c, 0, 55, 60
2, 26489, Note_on_c, 0, 64, 60
2, 26489, Note_on_c, 0, 58, 60
2, 26506, Note_on_c, 0, 43, 0
2, 26512, Note_on_c, 0, 52, 0
2, 26515, Note_on_c, 0, 36, 0
2, 26520, Note_on_c, 0, 55, 0
2, 26520, Note_on_c, 0, 60, 0
2, 26520, Note_on_c, 0, 64, 0
2, 26520, Note_on_c, 0, 58, 0
2, 26527, Note_on_c, 0, 76, 0
2, 26527, Note_on_c, 0, 84, 0
2, 26527, Note_on_c, 0, 79, 0
2, 26527, Note_on_c, 0, 82, 0
2, 26529, Note_on_c, 0, 72, 0
2, 26572, Note_on_c, 0, 74, 60
2, 26578, Note_on_c, 0, 41, 60
2, 26580, Note_on_c, 0, 86, 60
2, 26623, Note_on_c, 0, 84, 60
2, 26623, Note_on_c, 0, 87, 60
2, 26623, Note_on_c, 0, 81, 60
2, 26625, Note_on_c, 0, 86, 0
2, 26627, Note_on_c, 0, 74, 0
2, 26627, Note_on_c, 0, 75, 60
2, 26627, Note_on_c, 0, 57, 60
2, 26630, Note_on_c, 0, 48, 60
2, 26632, Control_c, 0, 64, 127
2, 26642, Note_on_c, 0, 84, 0
2, 26642, Note_on_c, 0, 81, 0
2, 26655, Note_on_c, 0, 41, 0
2, 26655, Note_on_c, 0, 48, 0
2, 26660, Note_on_c, 0, 87, 0
2, 26660, Note_on_c, 0, 75, 0
2, 26664, Note_on_c, 0, 89, 60
2, 26665, Note_on_c, 0, 84, 60
2, 26665, Note_on_c, 0, 77, 60
2, 26668, Note_on_c, 0, 81, 60
2, 26688, Note_on_c, 0, 81, 0
2, 26688, Note_on_c, 0, 84, 0
2, 26695, Note_on_c, 0, 77, 0
2, 26702, Control_c, 0, 64, 0
2, 26704, Note_on_c, 0, 89, 0
2, 26711, Note_on_c, 0, 87, 60
2, 26711, Note_on_c, 0, 84, 60
2, 26712, Note_on_c, 0, 81, 60
2, 26714, Note_on_c, 0, 75, 60
2, 26726, Note_on_c, 0, 57, 0
2, 26730, Note_on_c, 0, 84, 0
2, 26732, Note_on_c, 0, 81, 0
2, 26747, Note_on_c, 0, 87, 0
2, 26749, Note_on_c, 0, 75, 0
2, 26756, Note_on_c, 0, 84, 60
2, 26756, Note_on_c, 0, 81, 60
2, 26758, Note_on_c, 0, 72, 60
2, 26758, Note_on_c, 0, 63, 60
2, 26760, Note_on_c, 0, 57, 60
2, 26761, Note_on_c, 0, 60, 60
2, 26764, Note_on_c, 0, 53, 60
2, 26791, Note_on_c, 0, 81, 0
2, 26794, Note_on_c, 0, 60, 0
2, 26794, Note_on_c, 0, 63, 0
2, 26794, Note_on_c, 0, 53, 0
2, 26836, Note_on_c, 0, 84, 0
2, 26838, Note_on_c, 0, 72, 0
2, 26845, Note_on_c, 0, 77, 60
2, 26845, Note_on_c, 0, 83, 60
2, 26845, Note_on_c, 0, 71, 60
2, 26849, Note_on_c, 0, 46, 60
2, 26864, Note_on_c, 0, 77, 0
2, 26864, Note_on_c, 0, 57, 0
2, 26887, Note_on_c, 0, 74, 60
2, 26887, Note_on_c, 0, 77, 60
2, 26887, Note_on_c, 0, 80, 60
2, 26887, Note_on_c, 0, 70, 60
2, 26890, Note_on_c, 0, 71, 0
2, 26890, Note_on_c, 0, 82, 60
2, 26894, Note_on_c, 0, 58, 60
2, 26896, Note_on_c, 0, 83, 0
2, 26920, Note_on_c, 0, 46, 0
2, 26941, Note_on_c, 0, 70, 0
2, 26941, Note_on_c, 0, 80, 0
2, 26941, Note_on_c, 0, 77, 0
2, 26941, Note_on_c, 0, 74, 0
2, 26941, Note_on_c, 0, 82, 0
2, 26971, Note_on_c, 0, 74, 60
2, 26971, Note_on_c, 0, 70, 60
2, 26976, Note_on_c, 0, 78, 60
2, 26992, Note_on_c, 0, 70, 0
2, 26992, Note_on_c, 0, 74, 0
2, 26995, Note_on_c, 0, 58, 0
2, 27011, Note_on_c, 0, 78, 0
2, 27018, Note_on_c, 0, 79, 60
2, 27020, Note_on_c, 0, 74, 60
2, 27020, Note_on_c, 0, 70, 60
2, 27022, Note_on_c, 0, 56, 60
2, 27022, Note_on_c, 0, 58, 60
2, 27022, Note_on_c, 0, 53, 60
2, 27024, Note_on_c, 0, 62, 60
2, 27073, Note_on_c, 0, 70, 0
2, 27073, Note_on_c, 0, 74, 0
2, 27079, Note_on_c, 0, 79, 0
2, 27091, Note_on_c, 0, 53, 0
2, 27098, Note_on_c, 0, 56, 0
2, 27098, Note_on_c, 0, 58, 0
2, 27107, Note_on_c, 0, 62, 0
2, 27107, Note_on_c, 0, 75, 60
2, 27140, Control_c, 0, 64, 127
2, 27148, Note_on_c, 0, 79, 60
2, 27150, Note_on_c, 0, 70, 60
2, 27152, Note_on_c, 0, 58, 60
2, 27152, Note_on_c, 0, 63, 60
2, 27152, Note_on_c, 0, 51, 60
2, 27154, Note_on_c, 0, 55, 60
2, 27184, Note_on_c, 0, 70, 0
2, 27184, Note_on_c, 0, 75, 0
2, 27184, Note_on_c, 0, 79, 0
2, 27187, Note_on_c, 0, 63, 0
2, 27187, Note_on_c, 0, 58, 0
2, 27187, Note_on_c, 0, 55, 0
2, 27189, Note_on_c, 0, 51, 0
2, 27220, Control_c, 0, 64, 0
2, 27417, Note_on_c, 0, 87, 60
2, 27417, Note_on_c, 0, 79, 60
2, 27419, Note_on_c, 0, 82, 60
2, 27419, Note_on_c, 0, 75, 60
2, 27423, Note_on_c, 0, 51, 60
2, 27425, Note_on_c, 0, 39, 60
2, 27526, Note_on_c, 0, 39, 0
2, 27526, Note_on_c, 0, 51, 0
2, 27538, Note_on_c, 0, 87, 0
2, 27538, Note_on_c, 0, 82, 0
2, 27538, Note_on_c, 0, 79, 0
2, 27540, Note_on_c, 0, 75, 0
2, 27679, Note_on_c, 0, 38, 60
2, 27679, Control_c, 0, 64, 127
2, 27686, Note_on_c, 0, 50, 60
2, 27775, Note_on_c, 0, 60, 60
2, 27796, Note_on_c, 0, 62, 60
2, 27798, Note_on_c, 0, 63, 60
2, 27809, Note_on_c, 0, 60, 0
2, 27809, Note_on_c, 0, 64, 60
2, 27817, Note_on_c, 0, 62, 0
2, 27817, Note_on_c, 0, 65, 60
2, 27822, Control_c, 0, 64, 0
2, 27826, Note_on_c, 0, 63, 0
2, 27826, Note_on_c, 0, 64, 0
2, 27843, Note_on_c, 0, 65, 0
2, 27908, Note_on_c, 0, 64, 60
2, 27910, Note_on_c, 0, 69, 60
2, 27912, Note_on_c, 0, 38, 0
2, 27912, Note_on_c, 0, 57, 60
2, 27918, Note_on_c, 0, 50, 0
2, 27955, Note_on_c, 0, 49, 60
2, 27957, Note_on_c, 0, 37, 60
2, 28023, Note_on_c, 0, 69, 0
2, 28023, Note_on_c, 0, 57, 0
2, 28023, Note_on_c, 0, 64, 0
2, 28042, Note_on_c, 0, 68, 60
2, 28056, Note_on_c, 0, 68, 0
2, 28086, Note_on_c, 0, 64, 60
2, 28086, Note_on_c, 0, 68, 60
2, 28086, Note_on_c, 0, 58, 60
2, 28121, Note_on_c, 0, 68, 0
2, 28128, Note_on_c, 0, 67, 60
2, 28163, Note_on_c, 0, 67, 0
2, 28163, Note_on_c, 0, 64, 0
2, 28166, Note_on_c, 0, 58, 0
2, 28172, Note_on_c, 0, 69, 60
2, 28176, Note_on_c, 0, 37, 0
2, 28182, Note_on_c, 0, 49, 0
2, 28210, Note_on_c, 0, 36, 60
2, 28217, Note_on_c, 0, 69, 0
2, 28217, Note_on_c, 0, 63, 60
2, 28217, Note_on_c, 0, 67, 60
2, 28217, Note_on_c, 0, 57, 60
2, 28221, Note_on_c, 0, 48, 60
2, 28229, Control_c, 0, 64, 127
2, 28308, Note_on_c, 0, 67, 0
2, 28311, Note_on_c, 0, 57, 0
2, 28311, Note_on_c, 0, 63, 0
2, 28325, Control_c, 0, 64, 0
2, 28336, Note_on_c, 0, 57, 60
2, 28344, Note_on_c, 0, 66, 60
2, 28346, Note_on_c, 0, 63, 60
2, 28379, Note_on_c, 0, 63, 0
2, 28381, Note_on_c, 0, 57, 0
2, 28388, Note_on_c, 0, 66, 0
2, 28411, Note_on_c, 0, 36, 0
2, 28428, Note_on_c, 0, 48, 0
2, 28432, Note_on_c, 0, 63, 60
2, 28432, Note_on_c, 0, 65, 60
2, 28432, Note_on_c, 0, 57, 60
2, 28479, Note_on_c, 0, 48, 60
2, 28479, Note_on_c, 0, 41, 60
2, 28571, Note_on_c, 0, 63, 0
2, 28573, Note_on_c, 0, 48, 0
2, 28573, Note_on_c, 0, 41, 0
2, 28577, Note_on_c, 0, 65, 0
2, 28580, Note_on_c, 0, 57, 0
2, 28594, Note_on_c, 0, 69, 60
2, 28596, Note_on_c, 0, 53, 60
2, 28599, Note_on_c, 0, 41, 60
2, 28601, Note_on_c, 0, 77, 60
2, 28603, Note_on_c, 0, 72, 60
2, 28603, Note_on_c, 0, 65, 60
2, 28605, Note_on_c, 0, 75, 60
2, 28639, Note_on_c, 0, 41, 0
2, 28639, Note_on_c, 0, 53, 0
2, 28646, Note_on_c, 0, 65, 0
2, 28646, Note_on_c, 0, 69, 0
2, 28646, Note_on_c, 0, 72, 0
2, 28646, Note_on_c, 0, 75, 0
2, 28654, Note_on_c, 0, 77, 0
2, 28739, Note_on_c, 0, 38, 60
2, 28742, Note_on_c, 0, 50, 60
2, 28750, Control_c, 0, 64, 127
2, 28840, Control_c, 0, 64, 0
2, 28870, Note_on_c, 0, 61, 60
2, 28870, Note_on_c, 0, 55, 60
2, 28929, Note_on_c, 0, 55, 0
2, 28929, Note_on_c, 0, 61, 0
2, 28955, Note_on_c, 0, 62, 60
2, 28957, Note_on_c, 0, 38, 0
2, 28966, Note_on_c, 0, 50, 0
2, 28992, Note_on_c, 0, 62, 0
2, 28999, Note_on_c, 0, 69, 60
2, 28999, Note_on_c, 0, 64, 60
2, 29002, Note_on_c, 0, 49, 60
2, 29002, Note_on_c, 0, 37, 60
2, 29004, Note_on_c, 0, 58, 60
2, 29070, Note_on_c, 0, 64, 0
2, 29079, Note_on_c, 0, 69, 0
2, 29081, Note_on_c, 0, 58, 0
2, 29132, Note_on_c, 0, 67, 60
2, 29132, Note_on_c, 0, 64, 60
2, 29136, Note_on_c, 0, 58, 60
2, 29207, Note_on_c, 0, 67, 0
2, 29208, Note_on_c, 0, 64, 0
2, 29208, Note_on_c, 0, 58, 0
2, 29228, Note_on_c, 0, 49, 0
2, 29249, Note_on_c, 0, 37, 0
2, 29256, Control_c, 0, 64, 127
2, 29256, Note_on_c, 0, 36, 60
2, 29257, Note_on_c, 0, 63, 60
2, 29260, Note_on_c, 0, 67, 60
2, 29260, Note_on_c, 0, 57, 60
2, 29264, Note_on_c, 0, 48, 60
2, 29345, Note_on_c, 0, 67, 0
2, 29348, Note_on_c, 0, 57, 0
2, 29348, Note_on_c, 0, 63, 0
2, 29371, Control_c, 0, 64, 0
2, 29390, Note_on_c, 0, 66, 60
2, 29390, Note_on_c, 0, 57, 60
2, 29392, Note_on_c, 0, 63, 60
2, 29441, Note_on_c, 0, 63, 0
2, 29441, Note_on_c, 0, 66, 0
2, 29444, Note_on_c, 0, 57, 0
2, 29475, Note_on_c, 0, 63, 60
2, 29475, Note_on_c, 0, 65, 60
2, 29475, Note_on_c, 0, 57, 60
2, 29488, Note_on_c, 0, 48, 0
2, 29491, Note_on_c, 0, 36, 0
2, 29496, Note_on_c, 0, 57, 0
2, 29522, Note_on_c, 0, 48, 60
2, 29524, Note_on_c, 0, 57, 60
2, 29524, Note_on_c, 0, 41, 60
2, 29575, Note_on_c, 0, 48, 0
2, 29582, Note_on_c, 0, 63, 0
2, 29584, Note_on_c, 0, 41, 0
2, 29591, Note_on_c, 0, 57, 0
2, 29599, Note_on_c, 0, 65, 0
2, 29655, Note_on_c, 0, 40, 60
2, 29657, Note_on_c, 0, 52, 60
2, 29688, Note_on_c, 0, 40, 0
2, 29744, Note_on_c, 0, 41, 60
2, 29760, Note_on_c, 0, 52, 0
2, 29789, Note_on_c, 0, 53, 60
2, 29791, Control_c, 0, 64, 127
2, 29823, Note_on_c, 0, 41, 0
2, 29872, Note_on_c, 0, 73, 60
2, 29875, Note_on_c, 0, 68, 60
2, 29875, Note_on_c, 0, 61, 60
2, 29882, Note_on_c, 0, 53, 0
2, 29889, Note_on_c, 0, 68, 0
2, 29904, Control_c, 0, 64, 0
2, 29906, Note_on_c, 0, 61, 0
2, 29906, Note_on_c, 0, 74, 60
2, 29906, Note_on_c, 0, 56, 60
2, 29908, Note_on_c, 0, 62, 60
2, 29908, Note_on_c, 0, 58, 60
2, 29913, Note_on_c, 0, 53, 60
2, 29915, Note_on_c, 0, 68, 60
2, 29917, Note_on_c, 0, 73, 0
2, 29949, Note_on_c, 0, 74, 0
2, 29949, Note_on_c, 0, 68, 0
2, 29952, Note_on_c, 0, 62, 0
2, 29985, Note_on_c, 0, 58, 0
2, 30002, Note_on_c, 0, 86, 60
2, 30002, Note_on_c, 0, 74, 60
2, 30004, Note_on_c, 0, 80, 60
2, 30024, Note_on_c, 0, 56, 0
2, 30025, Note_on_c, 0, 53, 0
2, 30051, Note_on_c, 0, 34, 60
2, 30098, Note_on_c, 0, 34, 0
2, 30126, Note_on_c, 0, 74, 0
2, 30135, Note_on_c, 0, 86, 0
2, 30135, Note_on_c, 0, 80, 0
2, 30177, Note_on_c, 0, 80, 60
2, 30179, Note_on_c, 0, 85, 60
2, 30179, Note_on_c, 0, 73, 60
2, 30182, Note_on_c, 0, 58, 60
2, 30182, Note_on_c, 0, 56, 60
2, 30184, Note_on_c, 0, 62, 60
2, 30186, Note_on_c, 0, 53, 60
2, 30212, Note_on_c, 0, 85, 0
2, 30214, Note_on_c, 0, 80, 0
2, 30214, Note_on_c, 0, 73, 0
2, 30216, Note_on_c, 0, 58, 0
2, 30224, Note_on_c, 0, 62, 0
2, 30233, Note_on_c, 0, 56, 0
2, 30266, Note_on_c, 0, 80, 60
2, 30266, Note_on_c, 0, 86, 60
2, 30266, Note_on_c, 0, 74, 60
2, 30273, Note_on_c, 0, 39, 60
2, 30280, Note_on_c, 0, 53, 0
2, 30294, Note_on_c, 0, 74, 0
2, 30297, Note_on_c, 0, 39, 0
2, 30308, Control_c, 0, 64, 127
2, 30310, Note_on_c, 0, 84, 60
2, 30310, Note_on_c, 0, 79, 60
2, 30312, Note_on_c, 0, 80, 0
2, 30312, Note_on_c, 0, 72, 60
2, 30313, Note_on_c, 0, 55, 60
2, 30313, Note_on_c, 0, 82, 60
2, 30313, Note_on_c, 0, 46, 60
2, 30320, Note_on_c, 0, 86, 0
2, 30341, Note_on_c, 0, 46, 0
2, 30390, Note_on_c, 0, 79, 0
2, 30390, Note_on_c, 0, 84, 0
2, 30393, Note_on_c, 0, 72, 0
2, 30401, Note_on_c, 0, 82, 0
2, 30435, Control_c, 0, 64, 0
2, 30444, Note_on_c, 0, 83, 60
2, 30444, Note_on_c, 0, 71, 60
2, 30446, Note_on_c, 0, 58, 60
2, 30448, Note_on_c, 0, 67, 60
2, 30448, Note_on_c, 0, 63, 60
2, 30472, Note_on_c, 0, 67, 0
2, 30474, Note_on_c, 0, 58, 0
2, 30474, Note_on_c, 0, 63, 0
2, 30480, Note_on_c, 0, 83, 0
2, 30480, Note_on_c, 0, 71, 0
2, 30510, Note_on_c, 0, 55, 0
2, 30533, Note_on_c, 0, 82, 60
2, 30535, Note_on_c, 0, 79, 60
2, 30535, Note_on_c, 0, 70, 60
2, 30580, Note_on_c, 0, 51, 60
2, 30582, Note_on_c, 0, 39, 60
2, 30606, Note_on_c, 0, 70, 0
2, 30617, Note_on_c, 0, 51, 0
2, 30617, Note_on_c, 0, 39, 0
2, 30624, Note_on_c, 0, 79, 0
2, 30624, Note_on_c, 0, 82, 0
2, 30668, Note_on_c, 0, 71, 60
2, 30670, Note_on_c, 0, 83, 60
2, 30670, Note_on_c, 0, 79, 60
2, 30687, Note_on_c, 0, 79, 0
2, 30708, Note_on_c, 0, 41, 60
2, 30713, Note_on_c, 0, 83, 0
2, 30713, Note_on_c, 0, 71, 0
2, 30713, Note_on_c, 0, 72, 60
2, 30713, Note_on_c, 0, 79, 60
2, 30713, Note_on_c, 0, 84, 60
2, 30715, Note_on_c, 0, 50, 60
2, 30730, Note_on_c, 0, 84, 0
2, 30734, Note_on_c, 0, 41, 0
2, 30734, Note_on_c, 0, 50, 0
2, 30739, Note_on_c, 0, 79, 0
2, 30741, Note_on_c, 0, 72, 0
2, 30798, Note_on_c, 0, 85, 60
2, 30800, Note_on_c, 0, 79, 60
2, 30802, Note_on_c, 0, 82, 60
2, 30802, Note_on_c, 0, 73, 60
2, 30804, Note_on_c, 0, 51, 60
2, 30804, Note_on_c, 0, 42, 60
2, 30807, Control_c, 0, 64, 127
2, 30819, Note_on_c, 0, 82, 0
2, 30819, Note_on_c, 0, 79, 0
2, 30830, Note_on_c, 0, 51, 0
2, 30830, Note_on_c, 0, 42, 0
2, 30835, Note_on_c, 0, 85, 0
2, 30837, Note_on_c, 0, 73, 0
2, 30839, Note_on_c, 0, 52, 60
2, 30840, Note_on_c, 0, 79, 60
2, 30840, Note_on_c, 0, 74, 60
2, 30842, Note_on_c, 0, 86, 60
2, 30842, Note_on_c, 0, 82, 60
2, 30845, Note_on_c, 0, 43, 60
2, 30873, Note_on_c, 0, 43, 0
2, 30889, Note_on_c, 0, 52, 0
2, 30903, Control_c, 0, 64, 0
2, 30912, Note_on_c, 0, 82, 0
2, 30913, Note_on_c, 0, 74, 0
2, 30919, Note_on_c, 0, 86, 0
2, 30922, Note_on_c, 0, 79, 0
2, 30971, Note_on_c, 0, 82, 60
2, 30971, Note_on_c, 0, 79, 60
2, 30973, Note_on_c, 0, 84, 60
2, 30973, Note_on_c, 0, 72, 60
2, 30975, Note_on_c, 0, 60, 60
2, 30975, Note_on_c, 0, 55, 60
2, 30977, Note_on_c, 0, 64, 60
2, 30977, Note_on_c, 0, 58, 60
2, 30992, Note_on_c, 0, 58, 0
2, 30992, Note_on_c, 0, 64, 0
2, 30992, Note_on_c, 0, 60, 0
2, 30992, Note_on_c, 0, 55, 0
2, 31008, Note_on_c, 0, 82, 0
2, 31008, Note_on_c, 0, 84, 0
2, 31008, Note_on_c, 0, 79, 0
2, 31009, Note_on_c, 0, 72, 0
2, 31050, Note_on_c, 0, 74, 60
2, 31056, Note_on_c, 0, 86, 60
2, 31058, Note_on_c, 0, 79, 60
2, 31062, Note_on_c, 0, 82, 60
2, 31076, Note_on_c, 0, 82, 0
2, 31076, Note_on_c, 0, 79, 0
2, 31095, Note_on_c, 0, 74, 0
2, 31101, Note_on_c, 0, 79, 60
2, 31101, Note_on_c, 0, 82, 60
2, 31101, Note_on_c, 0, 84, 60
2, 31101, Note_on_c, 0, 72, 60
2, 31105, Note_on_c, 0, 36, 60
2, 31109, Note_on_c, 0, 86, 0
2, 31127, Note_on_c, 0, 79, 0
2, 31128, Note_on_c, 0, 72, 0
2, 31128, Note_on_c, 0, 82, 0
2, 31144, Note_on_c, 0, 84, 0
2, 31150, Note_on_c, 0, 36, 0
2, 31188, Note_on_c, 0, 76, 60
2, 31191, Note_on_c, 0, 82, 60
2, 31193, Note_on_c, 0, 70, 60
2, 31207, Note_on_c, 0, 76, 0
2, 31224, Note_on_c, 0, 70, 0
2, 31231, Note_on_c, 0, 79, 60
2, 31231, Note_on_c, 0, 76, 60
2, 31233, Note_on_c, 0, 67, 60
2, 31233, Note_on_c, 0, 64, 60
2, 31235, Note_on_c, 0, 60, 60
2, 31235, Note_on_c, 0, 58, 60
2, 31238, Note_on_c, 0, 55, 60
2, 31242, Note_on_c, 0, 82, 0
2, 31261, Note_on_c, 0, 55, 0
2, 31261, Note_on_c, 0, 64, 0
2, 31261, Note_on_c, 0, 60, 0
2, 31268, Note_on_c, 0, 79, 0
2, 31268, Note_on_c, 0, 76, 0
2, 31270, Note_on_c, 0, 67, 0
2, 31319, Note_on_c, 0, 81, 60
2, 31319, Note_on_c, 0, 76, 60
2, 31320, Note_on_c, 0, 69, 60
2, 31325, Note_on_c, 0, 48, 60
2, 31340, Note_on_c, 0, 58, 0
2, 31357, Note_on_c, 0, 69, 0
2, 31357, Note_on_c, 0, 81, 0
2, 31357, Note_on_c, 0, 76, 0
2, 31359, Note_on_c, 0, 48, 0
2, 31364, Note_on_c, 0, 79, 60
2, 31366, Note_on_c, 0, 67, 60
2, 31366, Note_on_c, 0, 75, 60
2, 31366, Note_on_c, 0, 57, 60
2, 31368, Note_on_c, 0, 60, 60
2, 31380, Control_c, 0, 64, 127
2, 31416, Note_on_c, 0, 60, 0
2, 31425, Note_on_c, 0, 79, 0
2, 31425, Note_on_c, 0, 75, 0
2, 31425, Note_on_c, 0, 67, 0
2, 31453, Note_on_c, 0, 57, 0
2, 31485, Note_on_c, 0, 57, 60
2, 31488, Note_on_c, 0, 74, 60
2, 31493, Note_on_c, 0, 71, 60
2, 31495, Note_on_c, 0, 62, 60
2, 31498, Note_on_c, 0, 68, 60
2, 31498, Note_on_c, 0, 53, 60
2, 31502, Control_c, 0, 64, 0
2, 31530, Note_on_c, 0, 68, 0
2, 31530, Note_on_c, 0, 62, 0
2, 31530, Note_on_c, 0, 71, 0
2, 31530, Note_on_c, 0, 74, 0
2, 31532, Note_on_c, 0, 53, 0
2, 31584, Note_on_c, 0, 75, 60
2, 31584, Note_on_c, 0, 72, 60
2, 31585, Note_on_c, 0, 69, 60
2, 31585, Note_on_c, 0, 63, 60
2, 31624, Note_on_c, 0, 48, 60
2, 31624, Note_on_c, 0, 41, 60
2, 31657, Note_on_c, 0, 41, 0
2, 31657, Note_on_c, 0, 48, 0
2, 31706, Note_on_c, 0, 75, 0
2, 31706, Note_on_c, 0, 72, 0
2, 31706, Note_on_c, 0, 69, 0
2, 31709, Note_on_c, 0, 57, 0
2, 31709, Note_on_c, 0, 63, 0
2, 31758, Note_on_c, 0, 77, 60
2, 31758, Note_on_c, 0, 75, 60
2, 31760, Note_on_c, 0, 60, 60
2, 31760, Note_on_c, 0, 63, 60
2, 31760, Note_on_c, 0, 65, 60
2, 31760, Note_on_c, 0, 72, 60
2, 31760, Note_on_c, 0, 57, 60
2, 31762, Note_on_c, 0, 69, 60
2, 31767, Note_on_c, 0, 53, 60
2, 31786, Note_on_c, 0, 63, 0
2, 31786, Note_on_c, 0, 60, 0
2, 31788, Note_on_c, 0, 53, 0
2, 31848, Note_on_c, 0, 38, 60
2, 31854, Note_on_c, 0, 72, 0
2, 31854, Note_on_c, 0, 77, 0
2, 31854, Note_on_c, 0, 75, 0
2, 31854, Note_on_c, 0, 65, 0
2, 31854, Note_on_c, 0, 69, 0
2, 31854, Note_on_c, 0, 57, 0
2, 31869, Control_c, 0, 64, 127
2, 31884, Note_on_c, 0, 38, 0
2, 31891, Note_on_c, 0, 50, 60
2, 31893, Note_on_c, 0, 58, 60
2, 31916, Note_on_c, 0, 50, 0
2, 31942, Note_on_c, 0, 58, 0
2, 31978, Note_on_c, 0, 70, 60
2, 31980, Note_on_c, 0, 61, 60
2, 31982, Note_on_c, 0, 73, 60
2, 31994, Control_c, 0, 64, 0
2, 32010, Note_on_c, 0, 74, 60
2, 32020, Note_on_c, 0, 73, 0
2, 32022, Note_on_c, 0, 61, 0
2, 32022, Note_on_c, 0, 58, 60
2, 32022, Note_on_c, 0, 62, 60
2, 32022, Note_on_c, 0, 53, 60
2, 32046, Note_on_c, 0, 62, 0
2, 32046, Note_on_c, 0, 70, 0
2, 32046, Note_on_c, 0, 74, 0
2, 32048, Note_on_c, 0, 58, 0
2, 32057, Note_on_c, 0, 53, 0
2, 32095, Note_on_c, 0, 81, 60
2, 32097, Note_on_c, 0, 69, 60
2, 32104, Note_on_c, 0, 76, 60
2, 32153, Note_on_c, 0, 49, 60
2, 32155, Note_on_c, 0, 37, 60
2, 32191, Note_on_c, 0, 76, 0
2, 32195, Note_on_c, 0, 37, 0
2, 32208, Note_on_c, 0, 81, 0
2, 32208, Note_on_c, 0, 69, 0
2, 32212, Note_on_c, 0, 49, 0
2, 32233, Note_on_c, 0, 80, 60
2, 32240, Note_on_c, 0, 76, 60
2, 32240, Note_on_c, 0, 68, 60
2, 32256, Note_on_c, 0, 76, 0
2, 32277, Note_on_c, 0, 79, 60
2, 32279, Note_on_c, 0, 76, 60
2, 32280, Note_on_c, 0, 68, 0
2, 32280, Note_on_c, 0, 80, 0
2, 32282, Note_on_c, 0, 58, 60
2, 32282, Note_on_c, 0, 61, 60
2, 32282, Note_on_c, 0, 64, 60
2, 32282, Note_on_c, 0, 67, 60
2, 32282, Note_on_c, 0, 55, 60
2, 32308, Note_on_c, 0, 64, 0
2, 32308, Note_on_c, 0, 61, 0
2, 32310, Note_on_c, 0, 58, 0
2, 32310, Note_on_c, 0, 55, 0
2, 32315, Note_on_c, 0, 76, 0
2, 32317, Note_on_c, 0, 67, 0
2, 32317, Note_on_c, 0, 79, 0
2, 32368, Note_on_c, 0, 81, 60
2, 32368, Note_on_c, 0, 76, 60
2, 32371, Note_on_c, 0, 69, 60
2, 32373, Note_on_c, 0, 36, 60
2, 32406, Note_on_c, 0, 69, 0
2, 32409, Note_on_c, 0, 36, 0
2, 32411, Note_on_c, 0, 79, 60
2, 32413, Note_on_c, 0, 75, 60
2, 32413, Note_on_c, 0, 67, 60
2, 32415, Note_on_c, 0, 48, 60
2, 32420, Control_c, 0, 64, 127
2, 32422, Note_on_c, 0, 76, 0
2, 32422, Note_on_c, 0, 81, 0
2, 32460, Note_on_c, 0, 48, 0
2, 32488, Control_c, 0, 64, 0
2, 32518, Note_on_c, 0, 75, 0
2, 32518, Note_on_c, 0, 67, 0
2, 32526, Note_on_c, 0, 79, 0
2, 32537, Note_on_c, 0, 57, 60
2, 32539, Note_on_c, 0, 53, 60
2, 32545, Note_on_c, 0, 63, 60
2, 32545, Note_on_c, 0, 60, 60
2, 32573, Note_on_c, 0, 60, 0
2, 32573, Note_on_c, 0, 63, 0
2, 32573, Note_on_c, 0, 57, 0
2, 32575, Note_on_c, 0, 53, 0
2, 32637, Note_on_c, 0, 74, 60
2, 32641, Note_on_c, 0, 62, 60
2, 32678, Note_on_c, 0, 75, 60
2, 32682, Note_on_c, 0, 62, 0
2, 32682, Note_on_c, 0, 63, 60
2, 32682, Note_on_c, 0, 69, 60
2, 32682, Note_on_c, 0, 72, 60
2, 32684, Note_on_c, 0, 29, 60
2, 32690, Note_on_c, 0, 74, 0
2, 32724, Note_on_c, 0, 72, 0
2, 32724, Note_on_c, 0, 69, 0
2, 32724, Note_on_c, 0, 75, 0
2, 32724, Note_on_c, 0, 63, 0
2, 32737, Note_on_c, 0, 29, 0
2, 32765, Note_on_c, 0, 75, 60
2, 32767, Note_on_c, 0, 79, 60
2, 32769, Note_on_c, 0, 72, 60
2, 32774, Note_on_c, 0, 67, 60
2, 32801, Note_on_c, 0, 65, 60
2, 32804, Note_on_c, 0, 63, 60
2, 32804, Note_on_c, 0, 77, 60
2, 32804, Note_on_c, 0, 60, 60
2, 32808, Note_on_c, 0, 57, 60
2, 32808, Note_on_c, 0, 53, 60
2, 32812, Note_on_c, 0, 67, 0
2, 32812, Note_on_c, 0, 79, 0
2, 32837, Note_on_c, 0, 60, 0
2, 32837, Note_on_c, 0, 75, 0
2, 32837, Note_on_c, 0, 65, 0
2, 32837, Note_on_c, 0, 63, 0
2, 32839, Note_on_c, 0, 53, 0
2, 32846, Note_on_c, 0, 77, 0
2, 32846, Note_on_c, 0, 72, 0
2, 32891, Note_on_c, 0, 72, 60
2, 32893, Note_on_c, 0, 69, 60
2, 32893, Note_on_c, 0, 75, 60
2, 32893, Note_on_c, 0, 63, 60
2, 32912, Note_on_c, 0, 57, 0
2, 32935, Note_on_c, 0, 75, 0
2, 32935, Note_on_c, 0, 69, 0
2, 32938, Note_on_c, 0, 63, 0
2, 32942, Note_on_c, 0, 74, 60
2, 32942, Control_c, 0, 64, 127
2, 32944, Note_on_c, 0, 72, 0
2, 32944, Note_on_c, 0, 70, 60
2, 32944, Note_on_c, 0, 62, 60
2, 32949, Note_on_c, 0, 56, 60
2, 32949, Note_on_c, 0, 46, 60
2, 32972, Note_on_c, 0, 70, 0
2, 32974, Note_on_c, 0, 46, 0
2, 32980, Note_on_c, 0, 74, 0
2, 32980, Note_on_c, 0, 62, 0
2, 33031, Note_on_c, 0, 77, 60
2, 33034, Note_on_c, 0, 65, 60
2, 33045, Note_on_c, 0, 56, 0
2, 33053, Note_on_c, 0, 77, 0
2, 33062, Note_on_c, 0, 65, 0
2, 33068, Control_c, 0, 64, 0
2, 33074, Note_on_c, 0, 77, 60
2, 33076, Note_on_c, 0, 80, 60
2, 33078, Note_on_c, 0, 62, 60
2, 33081, Note_on_c, 0, 68, 60
2, 33081, Note_on_c, 0, 74, 60
2, 33081, Note_on_c, 0, 53, 60
2, 33083, Note_on_c, 0, 58, 60
2, 33085, Note_on_c, 0, 56, 60
2, 33102, Note_on_c, 0, 62, 0
2, 33104, Note_on_c, 0, 56, 0
2, 33104, Note_on_c, 0, 53, 0
2, 33104, Note_on_c, 0, 58, 0
2, 33111, Note_on_c, 0, 68, 0
2, 33111, Note_on_c, 0, 74, 0
2, 33111, Note_on_c, 0, 80, 0
2, 33111, Note_on_c, 0, 77, 0
2, 33155, Note_on_c, 0, 80, 60
2, 33158, Note_on_c, 0, 74, 60
2, 33162, Note_on_c, 0, 86, 60
2, 33213, Note_on_c, 0, 41, 60
2, 33270, Note_on_c, 0, 74, 0
2, 33275, Note_on_c, 0, 41, 0
2, 33279, Note_on_c, 0, 86, 0
2, 33281, Note_on_c, 0, 80, 0
2, 33294, Note_on_c, 0, 85, 60
2, 33296, Note_on_c, 0, 73, 60
2, 33338, Note_on_c, 0, 84, 60
2, 33341, Note_on_c, 0, 73, 0
2, 33341, Note_on_c, 0, 80, 60
2, 33341, Note_on_c, 0, 62, 60
2, 33343, Note_on_c, 0, 56, 60
2, 33343, Note_on_c, 0, 58, 60
2, 33343, Note_on_c, 0, 72, 60
2, 33343, Note_on_c, 0, 53, 60
2, 33347, Note_on_c, 0, 85, 0
2, 33360, Note_on_c, 0, 53, 0
2, 33360, Note_on_c, 0, 62, 0
2, 33366, Note_on_c, 0, 72, 0
2, 33369, Note_on_c, 0, 56, 0
2, 33369, Note_on_c, 0, 58, 0
2, 33373, Note_on_c, 0, 84, 0
2, 33375, Note_on_c, 0, 80, 0
2, 33418, Note_on_c, 0, 80, 60
2, 33418, Note_on_c, 0, 74, 60
2, 33422, Note_on_c, 0, 39, 60
2, 33427, Note_on_c, 0, 86, 60
2, 33462, Note_on_c, 0, 74, 0
2, 33467, Note_on_c, 0, 39, 0
2, 33467, Note_on_c, 0, 79, 60
2, 33471, Note_on_c, 0, 72, 60
2, 33471, Note_on_c, 0, 84, 60
2, 33471, Note_on_c, 0, 55, 60
2, 33473, Note_on_c, 0, 46, 60
2, 33478, Note_on_c, 0, 80, 0
2, 33478, Note_on_c, 0, 86, 0
2, 33481, Control_c, 0, 64, 127
2, 33499, Note_on_c, 0, 46, 0
2, 33514, Note_on_c, 0, 55, 0
2, 33548, Note_on_c, 0, 72, 0
2, 33548, Note_on_c, 0, 79, 0
2, 33548, Note_on_c, 0, 84, 0
2, 33574, Control_c, 0, 64, 0
2, 33600, Note_on_c, 0, 83, 60
2, 33601, Note_on_c, 0, 71, 60
2, 33603, Note_on_c, 0, 63, 60
2, 33603, Note_on_c, 0, 67, 60
2, 33603, Note_on_c, 0, 58, 60
2, 33626, Note_on_c, 0, 67, 0
2, 33631, Note_on_c, 0, 63, 0
2, 33631, Note_on_c, 0, 58, 0
2, 33638, Note_on_c, 0, 71, 0
2, 33646, Note_on_c, 0, 83, 0
2, 33689, Note_on_c, 0, 79, 60
2, 33691, Note_on_c, 0, 75, 60
2, 33691, Note_on_c, 0, 82, 60
2, 33691, Note_on_c, 0, 70, 60
2, 33696, Note_on_c, 0, 46, 60
2, 33727, Note_on_c, 0, 46, 0
2, 33736, Note_on_c, 0, 55, 60
2, 33738, Note_on_c, 0, 58, 60
2, 33768, Note_on_c, 0, 70, 0
2, 33769, Note_on_c, 0, 55, 0
2, 33774, Note_on_c, 0, 82, 0
2, 33774, Note_on_c, 0, 79, 0
2, 33776, Note_on_c, 0, 75, 0
2, 33776, Note_on_c, 0, 58, 0
2, 33816, Note_on_c, 0, 81, 60
2, 33818, Note_on_c, 0, 69, 60
2, 33855, Note_on_c, 0, 70, 60
2, 33857, Note_on_c, 0, 69, 0
2, 33862, Note_on_c, 0, 82, 60
2, 33864, Note_on_c, 0, 81, 0
2, 33864, Note_on_c, 0, 58, 60
2, 33868, Note_on_c, 0, 67, 60
2, 33870, Note_on_c, 0, 63, 60
2, 33902, Note_on_c, 0, 63, 0
2, 33909, Note_on_c, 0, 67, 0
2, 33926, Note_on_c, 0, 82, 0
2, 33934, Note_on_c, 0, 70, 0
2, 33936, Note_on_c, 0, 58, 0
2, 33949, Note_on_c, 0, 83, 60
2, 33953, Note_on_c, 0, 71, 60
2, 33985, Control_c, 0, 64, 127
2, 33991, Note_on_c, 0, 84, 60
2, 33991, Note_on_c, 0, 79, 60
2, 33994, Note_on_c, 0, 72, 60
2, 33998, Note_on_c, 0, 39, 60
2, 34003, Note_on_c, 0, 83, 0
2, 34003, Note_on_c, 0, 51, 60
2, 34005, Note_on_c, 0, 71, 0
2, 34026, Note_on_c, 0, 39, 0
2, 34036, Note_on_c, 0, 84, 0
2, 34038, Note_on_c, 0, 79, 0
2, 34038, Note_on_c, 0, 72, 0
2, 34049, Note_on_c, 0, 51, 0
2, 34073, Control_c, 0, 64, 0
2, 34080, Note_on_c, 0, 82, 60
2, 34083, Note_on_c, 0, 70, 60
2, 34120, Note_on_c, 0, 70, 0
2, 34126, Note_on_c, 0, 81, 60
2, 34128, Note_on_c, 0, 82, 0
2, 34130, Note_on_c, 0, 69, 60
2, 34130, Note_on_c, 0, 63, 60
2, 34132, Note_on_c, 0, 58, 60
2, 34148, Note_on_c, 0, 58, 0
2, 34156, Note_on_c, 0, 63, 0
2, 34164, Note_on_c, 0, 69, 0
2, 34164, Note_on_c, 0, 81, 0
2, 34216, Note_on_c, 0, 79, 60
2, 34220, Note_on_c, 0, 67, 60
2, 34260, Note_on_c, 0, 67, 0
2, 34260, Note_on_c, 0, 79, 0
2, 34263, Note_on_c, 0, 72, 60
2, 34263, Note_on_c, 0, 84, 60
2, 34263, Note_on_c, 0, 52, 60
2, 34265, Note_on_c, 0, 40, 60
2, 34296, Note_on_c, 0, 72, 0
2, 34298, Note_on_c, 0, 40, 0
2, 34303, Note_on_c, 0, 84, 0
2, 34307, Note_on_c, 0, 52, 0
2, 34350, Note_on_c, 0, 82, 60
2, 34350, Note_on_c, 0, 70, 60
2, 34399, Note_on_c, 0, 82, 0
2, 34399, Note_on_c, 0, 81, 60
2, 34401, Note_on_c, 0, 70, 0
2, 34401, Note_on_c, 0, 69, 60
2, 34401, Note_on_c, 0, 64, 60
2, 34406, Note_on_c, 0, 61, 60
2, 34406, Note_on_c, 0, 58, 60
2, 34425, Note_on_c, 0, 58, 0
2, 34425, Note_on_c, 0, 64, 0
2, 34425, Note_on_c, 0, 61, 0
2, 34440, Note_on_c, 0, 81, 0
2, 34441, Note_on_c, 0, 69, 0
2, 34471, Note_on_c, 0, 79, 60
2, 34476, Note_on_c, 0, 74, 60
2, 34476, Note_on_c, 0, 67, 60
2, 34493, Note_on_c, 0, 74, 0
2, 34508, Note_on_c, 0, 79, 0
2, 34516, Note_on_c, 0, 74, 60
2, 34518, Note_on_c, 0, 77, 60
2, 34521, Note_on_c, 0, 65, 60
2, 34521, Note_on_c, 0, 41, 60
2, 34523, Note_on_c, 0, 53, 60
2, 34525, Control_c, 0, 64, 127
2, 34527, Note_on_c, 0, 67, 0
2, 34542, Note_on_c, 0, 74, 0
2, 34544, Note_on_c, 0, 65, 0
2, 34546, Note_on_c, 0, 53, 0
2, 34555, Note_on_c, 0, 77, 0
2, 34574, Note_on_c, 0, 41, 0
2, 34604, Note_on_c, 0, 73, 60
2, 34606, Note_on_c, 0, 61, 60
2, 34630, Control_c, 0, 64, 0
2, 34636, Note_on_c, 0, 74, 60
2, 34638, Note_on_c, 0, 70, 60
2, 34640, Note_on_c, 0, 61, 0
2, 34640, Note_on_c, 0, 58, 60
2, 34640, Note_on_c, 0, 62, 60
2, 34640, Note_on_c, 0, 53, 60
2, 34647, Note_on_c, 0, 73, 0
2, 34680, Note_on_c, 0, 70, 0
2, 34682, Note_on_c, 0, 62, 0
2, 34689, Note_on_c, 0, 74, 0
2, 34691, Note_on_c, 0, 53, 0
2, 34700, Note_on_c, 0, 58, 0
2, 34729, Note_on_c, 0, 77, 60
2, 34729, Note_on_c, 0, 81, 60
2, 34729, Note_on_c, 0, 69, 60
2, 34776, Note_on_c, 0, 50, 60
2, 34778, Note_on_c, 0, 38, 60
2, 34830, Note_on_c, 0, 50, 0
2, 34841, Note_on_c, 0, 38, 0
2, 34900, Note_on_c, 0, 55, 60
2, 34907, Note_on_c, 0, 65, 60
2, 34909, Note_on_c, 0, 62, 60
2, 34909, Note_on_c, 0, 59, 60
2, 34951, Note_on_c, 0, 59, 0
2, 34951, Note_on_c, 0, 62, 0
2, 34954, Note_on_c, 0, 55, 0
2, 34958, Note_on_c, 0, 77, 0
2, 34958, Note_on_c, 0, 81, 0
2, 34960, Note_on_c, 0, 69, 0
2, 34960, Note_on_c, 0, 65, 0
2, 34992, Note_on_c, 0, 79, 60
2, 34992, Note_on_c, 0, 36, 60
2, 34994, Note_on_c, 0, 76, 60
2, 34994, Note_on_c, 0, 67, 60
2, 35012, Note_on_c, 0, 76, 0
2, 35012, Note_on_c, 0, 79, 0
2, 35028, Note_on_c, 0, 67, 0
2, 35035, Note_on_c, 0, 82, 60
2, 35037, Note_on_c, 0, 70, 60
2, 35037, Control_c, 0, 64, 127
2, 35040, Note_on_c, 0, 79, 60
2, 35045, Note_on_c, 0, 36, 0
2, 35045, Note_on_c, 0, 43, 60
2, 35045, Note_on_c, 0, 52, 60
2, 35059, Note_on_c, 0, 79, 0
2, 35061, Note_on_c, 0, 43, 0
2, 35073, Note_on_c, 0, 82, 0
2, 35075, Note_on_c, 0, 70, 0
2, 35080, Note_on_c, 0, 79, 60
2, 35082, Note_on_c, 0, 84, 60
2, 35082, Note_on_c, 0, 76, 60
2, 35086, Note_on_c, 0, 52, 0
2, 35086, Note_on_c, 0, 72, 60
2, 35101, Note_on_c, 0, 79, 0
2, 35101, Note_on_c, 0, 76, 0
2, 35112, Note_on_c, 0, 84, 0
2, 35112, Note_on_c, 0, 72, 0
2, 35127, Note_on_c, 0, 82, 60
2, 35129, Note_on_c, 0, 79, 60
2, 35129, Note_on_c, 0, 76, 60
2, 35133, Note_on_c, 0, 70, 60
2, 35137, Control_c, 0, 64, 0
2, 35146, Note_on_c, 0, 79, 0
2, 35148, Note_on_c, 0, 76, 0
2, 35165, Note_on_c, 0, 82, 0
2, 35165, Note_on_c, 0, 70, 0
2, 35167, Note_on_c, 0, 55, 60
2, 35174, Note_on_c, 0, 79, 60
2, 35174, Note_on_c, 0, 76, 60
2, 35176, Note_on_c, 0, 64, 60
2, 35176, Note_on_c, 0, 60, 60
2, 35178, Note_on_c, 0, 67, 60
2, 35178, Note_on_c, 0, 58, 60
2, 35193, Note_on_c, 0, 64, 0
2, 35195, Note_on_c, 0, 60, 0
2, 35195, Note_on_c, 0, 55, 0
2, 35195, Note_on_c, 0, 58, 0
2, 35201, Note_on_c, 0, 79, 0
2, 35201, Note_on_c, 0, 76, 0
2, 35204, Note_on_c, 0, 67, 0
2, 35261, Note_on_c, 0, 41, 60
2, 35263, Note_on_c, 0, 78, 60
2, 35263, Note_on_c, 0, 66, 60
2, 35295, Note_on_c, 0, 41, 0
2, 35300, Note_on_c, 0, 66, 0
2, 35300, Note_on_c, 0, 78, 0
2, 35305, Note_on_c, 0, 77, 60
2, 35308, Note_on_c, 0, 65, 60
2, 35308, Note_on_c, 0, 69, 60
2, 35308, Note_on_c, 0, 57, 60
2, 35310, Note_on_c, 0, 48, 60
2, 35335, Note_on_c, 0, 69, 0
2, 35338, Note_on_c, 0, 48, 0
2, 35342, Note_on_c, 0, 77, 0
2, 35344, Note_on_c, 0, 65, 0
2, 35398, Note_on_c, 0, 73, 60
2, 35398, Note_on_c, 0, 65, 60
2, 35400, Note_on_c, 0, 57, 0
2, 35400, Note_on_c, 0, 69, 60
2, 35415, Note_on_c, 0, 65, 0
2, 35431, Note_on_c, 0, 73, 0
2, 35434, Note_on_c, 0, 69, 0
2, 35440, Note_on_c, 0, 74, 60
2, 35440, Note_on_c, 0, 65, 60
2, 35443, Note_on_c, 0, 63, 60
2, 35443, Note_on_c, 0, 60, 60
2, 35445, Note_on_c, 0, 53, 60
2, 35447, Note_on_c, 0, 57, 60
2, 35513, Note_on_c, 0, 60, 0
2, 35515, Note_on_c, 0, 53, 0
2, 35521, Note_on_c, 0, 74, 0
2, 35523, Note_on_c, 0, 65, 0
2, 35523, Note_on_c, 0, 57, 0
2, 35523, Note_on_c, 0, 63, 0
2, 35530, Note_on_c, 0, 70, 60
2, 35572, Control_c, 0, 64, 127
2, 35577, Note_on_c, 0, 50, 60
2, 35577, Note_on_c, 0, 53, 60
2, 35577, Note_on_c, 0, 58, 60
2, 35577, Note_on_c, 0, 46, 60
2, 35611, Note_on_c, 0, 58, 0
2, 35611, Note_on_c, 0, 50, 0
2, 35613, Note_on_c, 0, 46, 0
2, 35613, Note_on_c, 0, 53, 0
2, 35617, Note_on_c, 0, 70, 0
2, 35658, Note_on_c, 0, 85, 60
2, 35658, Note_on_c, 0, 82, 60
2, 35660, Note_on_c, 0, 79, 60
2, 35660, Note_on_c, 0, 73, 60
2, 35662, Note_on_c, 0, 47, 60
2, 35662, Note_on_c, 0, 52, 60
2, 35662, Note_on_c, 0, 43, 60
2, 35664, Note_on_c, 0, 40, 60
2, 35677, Note_on_c, 0, 73, 0
2, 35677, Note_on_c, 0, 79, 0
2, 35677, Note_on_c, 0, 85, 0
2, 35677, Note_on_c, 0, 82, 0
2, 35681, Note_on_c, 0, 47, 0
2, 35681, Note_on_c, 0, 40, 0
2, 35681, Note_on_c, 0, 52, 0
2, 35681, Note_on_c, 0, 43, 0
2, 35686, Control_c, 0, 64, 0
2, 35700, Note_on_c, 0, 79, 60
2, 35703, Note_on_c, 0, 85, 60
2, 35703, Note_on_c, 0, 82, 60
2, 35705, Note_on_c, 0, 73, 60
2, 35707, Note_on_c, 0, 43, 60
2, 35707, Note_on_c, 0, 47, 60
2, 35707, Note_on_c, 0, 52, 60
2, 35707, Note_on_c, 0, 40, 60
2, 35736, Note_on_c, 0, 85, 0
2, 35738, Note_on_c, 0, 73, 0
2, 35738, Note_on_c, 0, 79, 0
2, 35738, Note_on_c, 0, 82, 0
2, 35741, Note_on_c, 0, 52, 0
2, 35741, Note_on_c, 0, 47, 0
2, 35743, Note_on_c, 0, 40, 0
2, 35743, Note_on_c, 0, 43, 0
2, 35785, Note_on_c, 0, 79, 60
2, 35788, Note_on_c, 0, 82, 60
2, 35790, Note_on_c, 0, 85, 60
2, 35792, Note_on_c, 0, 52, 60
2, 35792, Note_on_c, 0, 73, 60
2, 35792, Note_on_c, 0, 47, 60
2, 35794, Note_on_c, 0, 43, 60
2, 35796, Note_on_c, 0, 40, 60
2, 35808, Note_on_c, 0, 85, 0
2, 35809, Note_on_c, 0, 73, 0
2, 35809, Note_on_c, 0, 79, 0
2, 35809, Note_on_c, 0, 82, 0
2, 35811, Note_on_c, 0, 52, 0
2, 35811, Note_on_c, 0, 47, 0
2, 35813, Note_on_c, 0, 43, 0
2, 35813, Note_on_c, 0, 40, 0
2, 35832, Note_on_c, 0, 82, 60
2, 35832, Note_on_c, 0, 85, 60
2, 35832, Note_on_c, 0, 79, 60
2, 35834, Note_on_c, 0, 73, 60
2, 35837, Note_on_c, 0, 52, 60
2, 35839, Note_on_c, 0, 43, 60
2, 35839, Note_on_c, 0, 47, 60
2, 35839, Note_on_c, 0, 40, 60
2, 35873, Note_on_c, 0, 40, 0
2, 35873, Note_on_c, 0, 47, 0
2, 35873, Note_on_c, 0, 52, 0
2, 35873, Note_on_c, 0, 43, 0
2, 35878, Note_on_c, 0, 79, 0
2, 35878, Note_on_c, 0, 73, 0
2, 35878, Note_on_c, 0, 85, 0
2, 35878, Note_on_c, 0, 82, 0
2, 35920, Note_on_c, 0, 85, 60
2, 35920, Note_on_c, 0, 82, 60
2, 35923, Note_on_c, 0, 79, 60
2, 35923, Note_on_c, 0, 73, 60
2, 35925, Note_on_c, 0, 52, 60
2, 35925, Note_on_c, 0, 47, 60
2, 35927, Note_on_c, 0, 43, 60
2, 35928, Note_on_c, 0, 40, 60
2, 35937, Note_on_c, 0, 79, 0
2, 35937, Note_on_c, 0, 85, 0
2, 35939, Note_on_c, 0, 82, 0
2, 35961, Note_on_c, 0, 85, 60
2, 35961, Note_on_c, 0, 79, 60
2, 35963, Note_on_c, 0, 82, 60
2, 35986, Note_on_c, 0, 43, 0
2, 35986, Note_on_c, 0, 40, 0
2, 35986, Note_on_c, 0, 52, 0
2, 35986, Note_on_c, 0, 47, 0
2, 36000, Note_on_c, 0, 79, 0
2, 36000, Note_on_c, 0, 82, 0
2, 36000, Note_on_c, 0, 85, 0
2, 36001, Note_on_c, 0, 73, 0
2, 36050, Note_on_c, 0, 82, 60
2, 36050, Note_on_c, 0, 79, 60
2, 36052, Note_on_c, 0, 76, 60
2, 36054, Note_on_c, 0, 70, 60
2, 36057, Note_on_c, 0, 47, 60
2, 36057, Note_on_c, 0, 43, 60
2, 36059, Note_on_c, 0, 40, 60
2, 36061, Note_on_c, 0, 52, 60
2, 36089, Note_on_c, 0, 70, 0
2, 36091, Note_on_c, 0, 52, 0
2, 36091, Note_on_c, 0, 47, 0
2, 36093, Note_on_c, 0, 43, 0
2, 36093, Note_on_c, 0, 40, 0
2, 36093, Note_on_c, 0, 80, 60
2, 36096, Note_on_c, 0, 86, 60
2, 36096, Note_on_c, 0, 74, 60
2, 36097, Note_on_c, 0, 82, 0
2, 36097, Note_on_c, 0, 79, 0
2, 36097, Note_on_c, 0, 76, 0
2, 36099, Note_on_c, 0, 53, 60
2, 36101, Note_on_c, 0, 41, 60
2, 36120, Control_c, 0, 64, 127
2, 36136, Note_on_c, 0, 41, 0
2, 36148, Note_on_c, 0, 80, 0
2, 36157, Note_on_c, 0, 86, 0
2, 36159, Note_on_c, 0, 74, 0
2, 36161, Note_on_c, 0, 53, 0
2, 36183, Note_on_c, 0, 84, 60
2, 36183, Note_on_c, 0, 80, 60
2, 36185, Note_on_c, 0, 72, 60
2, 36202, Note_on_c, 0, 80, 0
2, 36221, Control_c, 0, 64, 0
2, 36227, Note_on_c, 0, 82, 60
2, 36227, Note_on_c, 0, 80, 60
2, 36230, Note_on_c, 0, 72, 0
2, 36230, Note_on_c, 0, 65, 60
2, 36232, Note_on_c, 0, 62, 60
2, 36232, Note_on_c, 0, 70, 60
2, 36232, Note_on_c, 0, 56, 60
2, 36236, Note_on_c, 0, 58, 60
2, 36238, Note_on_c, 0, 84, 0
2, 36262, Note_on_c, 0, 82, 0
2, 36264, Note_on_c, 0, 62, 0
2, 36264, Note_on_c, 0, 80, 0
2, 36264, Note_on_c, 0, 65, 0
2, 36264, Note_on_c, 0, 70, 0
2, 36265, Note_on_c, 0, 56, 0
2, 36265, Note_on_c, 0, 58, 0
2, 36304, Note_on_c, 0, 80, 60
2, 36312, Note_on_c, 0, 84, 60
2, 36314, Note_on_c, 0, 72, 60
2, 36366, Note_on_c, 0, 34, 60
2, 36413, Note_on_c, 0, 34, 0
2, 36413, Note_on_c, 0, 84, 0
2, 36415, Note_on_c, 0, 72, 0
2, 36415, Note_on_c, 0, 80, 0
2, 36447, Note_on_c, 0, 89, 60
2, 36449, Note_on_c, 0, 80, 60
2, 36452, Note_on_c, 0, 92, 60
2, 36452, Note_on_c, 0, 82, 60
2, 36494, Note_on_c, 0, 65, 60
2, 36496, Note_on_c, 0, 62, 60
2, 36496, Note_on_c, 0, 56, 60
2, 36501, Note_on_c, 0, 58, 60
2, 36522, Note_on_c, 0, 58, 0
2, 36522, Note_on_c, 0, 56, 0
2, 36522, Note_on_c, 0, 65, 0
2, 36522, Note_on_c, 0, 62, 0
2, 36524, Note_on_c, 0, 92, 0
2, 36528, Note_on_c, 0, 82, 0
2, 36528, Note_on_c, 0, 80, 0
2, 36545, Note_on_c, 0, 89, 0
2, 36579, Note_on_c, 0, 84, 60
2, 36583, Note_on_c, 0, 72, 60
2, 36586, Note_on_c, 0, 41, 60
2, 36616, Note_on_c, 0, 72, 0
2, 36616, Note_on_c, 0, 84, 0
2, 36616, Control_c, 0, 64, 127
2, 36622, Note_on_c, 0, 86, 60
2, 36622, Note_on_c, 0, 82, 60
2, 36624, Note_on_c, 0, 74, 60
2, 36628, Note_on_c, 0, 56, 60
2, 36646, Note_on_c, 0, 41, 0
2, 36677, Note_on_c, 0, 74, 0
2, 36684, Note_on_c, 0, 86, 0
2, 36684, Note_on_c, 0, 82, 0
2, 36695, Note_on_c, 0, 56, 0
2, 36707, Note_on_c, 0, 87, 60
2, 36710, Note_on_c, 0, 75, 60
2, 36729, Control_c, 0, 64, 0
2, 36752, Note_on_c, 0, 84, 60
2, 36752, Note_on_c, 0, 80, 60
2, 36754, Note_on_c, 0, 72, 60
2, 36754, Note_on_c, 0, 65, 60
2, 36756, Note_on_c, 0, 62, 60
2, 36756, Note_on_c, 0, 58, 60
2, 36761, Note_on_c, 0, 87, 0
2, 36763, Note_on_c, 0, 75, 0
2, 36791, Note_on_c, 0, 58, 0
2, 36791, Note_on_c, 0, 62, 0
2, 36794, Note_on_c, 0, 84, 0
2, 36797, Note_on_c, 0, 80, 0
2, 36797, Note_on_c, 0, 72, 0
2, 36799, Note_on_c, 0, 65, 0
2, 36840, Note_on_c, 0, 80, 60
2, 36840, Note_on_c, 0, 74, 60
2, 36841, Note_on_c, 0, 86, 60
2, 36859, Note_on_c, 0, 80, 0
2, 36883, Note_on_c, 0, 82, 60
2, 36883, Note_on_c, 0, 34, 60
2, 36885, Note_on_c, 0, 86, 0
2, 36885, Note_on_c, 0, 80, 60
2, 36887, Note_on_c, 0, 74, 0
2, 36887, Note_on_c, 0, 70, 60
2, 36916, Note_on_c, 0, 34, 0
2, 36918, Note_on_c, 0, 80, 0
2, 36918, Note_on_c, 0, 82, 0
2, 36921, Note_on_c, 0, 70, 0
2, 36970, Note_on_c, 0, 80, 60
2, 36970, Note_on_c, 0, 83, 60
2, 36970, Note_on_c, 0, 71, 60
2, 37004, Note_on_c, 0, 84, 60
2, 37006, Note_on_c, 0, 72, 60
2, 37006, Note_on_c, 0, 62, 60
2, 37008, Note_on_c, 0, 65, 60
2, 37008, Note_on_c, 0, 58, 60
2, 37012, Note_on_c, 0, 83, 0
2, 37014, Note_on_c, 0, 71, 0
2, 37033, Note_on_c, 0, 58, 0
2, 37038, Note_on_c, 0, 80, 0
2, 37040, Note_on_c, 0, 72, 0
2, 37040, Note_on_c, 0, 62, 0
2, 37047, Note_on_c, 0, 84, 0
2, 37049, Note_on_c, 0, 65, 0
2, 37096, Note_on_c, 0, 85, 60
2, 37096, Note_on_c, 0, 39, 60
2, 37098, Note_on_c, 0, 82, 60
2, 37100, Note_on_c, 0, 79, 60
2, 37100, Note_on_c, 0, 73, 60
2, 37117, Note_on_c, 0, 82, 0
2, 37119, Note_on_c, 0, 79, 0
2, 37134, Control_c, 0, 64, 127
2, 37136, Note_on_c, 0, 73, 0
2, 37140, Note_on_c, 0, 39, 0
2, 37140, Note_on_c, 0, 55, 60
2, 37140, Note_on_c, 0, 86, 60
2, 37143, Note_on_c, 0, 82, 60
2, 37143, Note_on_c, 0, 74, 60
2, 37145, Note_on_c, 0, 79, 60
2, 37152, Note_on_c, 0, 85, 0
2, 37152, Note_on_c, 0, 46, 60
2, 37176, Note_on_c, 0, 74, 0
2, 37176, Note_on_c, 0, 82, 0
2, 37176, Note_on_c, 0, 79, 0
2, 37183, Note_on_c, 0, 86, 0
2, 37196, Note_on_c, 0, 46, 0
2, 37215, Note_on_c, 0, 55, 0
2, 37217, Note_on_c, 0, 84, 60
2, 37230, Note_on_c, 0, 72, 60
2, 37243, Control_c, 0, 64, 0
2, 37269, Note_on_c, 0, 82, 60
2, 37269, Note_on_c, 0, 79, 60
2, 37271, Note_on_c, 0, 67, 60
2, 37272, Note_on_c, 0, 72, 0
2, 37272, Note_on_c, 0, 70, 60
2, 37272, Note_on_c, 0, 63, 60
2, 37277, Note_on_c, 0, 58, 60
2, 37279, Note_on_c, 0, 84, 0
2, 37305, Note_on_c, 0, 67, 0
2, 37309, Note_on_c, 0, 63, 0
2, 37309, Note_on_c, 0, 58, 0
2, 37316, Note_on_c, 0, 70, 0
2, 37324, Note_on_c, 0, 82, 0
2, 37324, Note_on_c, 0, 79, 0
2, 37358, Note_on_c, 0, 84, 60
2, 37358, Note_on_c, 0, 79, 60
2, 37360, Note_on_c, 0, 72, 60
2, 37414, Note_on_c, 0, 34, 60
2, 37475, Note_on_c, 0, 34, 0
2, 37497, Note_on_c, 0, 82, 60
2, 37503, Note_on_c, 0, 84, 0
2, 37539, Note_on_c, 0, 63, 60
2, 37541, Note_on_c, 0, 67, 60
2, 37548, Note_on_c, 0, 58, 60
2, 37567, Note_on_c, 0, 58, 0
2, 37567, Note_on_c, 0, 63, 0
2, 37574, Note_on_c, 0, 67, 0
2, 37582, Note_on_c, 0, 72, 0
2, 37588, Note_on_c, 0, 79, 0
2, 37588, Note_on_c, 0, 82, 0
2, 37625, Note_on_c, 0, 82, 60
2, 37667, Note_on_c, 0, 86, 60
2, 37670, Note_on_c, 0, 79, 60
2, 37672, Note_on_c, 0, 74, 60
2, 37674, Note_on_c, 0, 55, 60
2, 37676, Note_on_c, 0, 46, 60
2, 37680, Control_c, 0, 64, 127
2, 37716, Note_on_c, 0, 79, 0
2, 37719, Note_on_c, 0, 74, 0
2, 37725, Note_on_c, 0, 82, 0
2, 37725, Note_on_c, 0, 86, 0
2, 37757, Note_on_c, 0, 55, 0
2, 37759, Note_on_c, 0, 87, 60
2, 37761, Note_on_c, 0, 79, 60
2, 37761, Note_on_c, 0, 75, 60
2, 37763, Note_on_c, 0, 82, 60
2, 37768, Note_on_c, 0, 46, 0
2, 37778, Note_on_c, 0, 79, 0
2, 37780, Note_on_c, 0, 82, 0
2, 37789, Note_on_c, 0, 75, 0
2, 37789, Control_c, 0, 64, 0
2, 37804, Note_on_c, 0, 84, 60
2, 37804, Note_on_c, 0, 79, 60
2, 37808, Note_on_c, 0, 67, 60
2, 37808, Note_on_c, 0, 72, 60
2, 37808, Note_on_c, 0, 82, 60
2, 37808, Note_on_c, 0, 63, 60
2, 37810, Note_on_c, 0, 58, 60
2, 37815, Note_on_c, 0, 87, 0
2, 37840, Note_on_c, 0, 84, 0
2, 37840, Note_on_c, 0, 82, 0
2, 37840, Note_on_c, 0, 79, 0
2, 37843, Note_on_c, 0, 72, 0
2, 37843, Note_on_c, 0, 67, 0
2, 37843, Note_on_c, 0, 63, 0
2, 37845, Note_on_c, 0, 58, 0
2, 37892, Note_on_c, 0, 86, 60
2, 37892, Note_on_c, 0, 82, 60
2, 37894, Note_on_c, 0, 79, 60
2, 37896, Note_on_c, 0, 74, 60
2, 37913, Note_on_c, 0, 82, 0
2, 37936, Note_on_c, 0, 82, 60
2, 37939, Note_on_c, 0, 70, 60
2, 37943, Note_on_c, 0, 54, 60
2, 37943, Note_on_c, 0, 46, 60
2, 37946, Note_on_c, 0, 86, 0
2, 37946, Note_on_c, 0, 74, 0
2, 37946, Note_on_c, 0, 79, 0
2, 37972, Note_on_c, 0, 82, 0
2, 37974, Note_on_c, 0, 70, 0
2, 38021, Note_on_c, 0, 46, 0
2, 38023, Note_on_c, 0, 83, 60
2, 38026, Note_on_c, 0, 71, 60
2, 38030, Note_on_c, 0, 54, 0
2, 38073, Note_on_c, 0, 71, 0
2, 38073, Note_on_c, 0, 84, 60
2, 38075, Note_on_c, 0, 63, 60
2, 38075, Note_on_c, 0, 66, 60
2, 38075, Note_on_c, 0, 69, 60
2, 38075, Note_on_c, 0, 60, 60
2, 38077, Note_on_c, 0, 72, 60
2, 38081, Note_on_c, 0, 83, 0
2, 38100, Note_on_c, 0, 69, 0
2, 38100, Note_on_c, 0, 66, 0
2, 38103, Note_on_c, 0, 63, 0
2, 38103, Note_on_c, 0, 60, 0
2, 38107, Note_on_c, 0, 84, 0
2, 38109, Note_on_c, 0, 72, 0
2, 38158, Note_on_c, 0, 85, 60
2, 38160, Note_on_c, 0, 80, 60
2, 38160, Note_on_c, 0, 73, 60
2, 38180, Note_on_c, 0, 80, 0
2, 38194, Control_c, 0, 64, 127
2, 38201, Note_on_c, 0, 86, 60
2, 38203, Note_on_c, 0, 85, 0
2, 38203, Note_on_c, 0, 80, 60
2, 38203, Note_on_c, 0, 74, 60
2, 38205, Note_on_c, 0, 73, 0
2, 38208, Note_on_c, 0, 53, 60
2, 38209, Note_on_c, 0, 44, 60
2, 38248, Note_on_c, 0, 74, 0
2, 38248, Note_on_c, 0, 80, 0
2, 38256, Note_on_c, 0, 86, 0
2, 38278, Note_on_c, 0, 44, 0
2, 38290, Note_on_c, 0, 84, 60
2, 38290, Note_on_c, 0, 80, 60
2, 38292, Note_on_c, 0, 72, 60
2, 38301, Note_on_c, 0, 53, 0
2, 38305, Control_c, 0, 64, 0
2, 38323, Note_on_c, 0, 74, 60
2, 38333, Note_on_c, 0, 84, 0
2, 38335, Note_on_c, 0, 72, 0
2, 38335, Note_on_c, 0, 58, 60
2, 38335, Note_on_c, 0, 62, 60
2, 38335, Note_on_c, 0, 65, 60
2, 38335, Note_on_c, 0, 68, 60
2, 38335, Note_on_c, 0, 56, 60
2, 38354, Note_on_c, 0, 56, 0
2, 38354, Note_on_c, 0, 58, 0
2, 38354, Note_on_c, 0, 65, 0
2, 38363, Note_on_c, 0, 62, 0
2, 38369, Note_on_c, 0, 74, 0
2, 38369, Note_on_c, 0, 80, 0
2, 38369, Note_on_c, 0, 68, 0
2, 38414, Note_on_c, 0, 73, 60
2, 38416, Note_on_c, 0, 67, 60
2, 38423, Note_on_c, 0, 79, 60
2, 38465, Note_on_c, 0, 77, 60
2, 38465, Note_on_c, 0, 74, 60
2, 38468, Note_on_c, 0, 67, 0
2, 38468, Note_on_c, 0, 65, 60
2, 38472, Note_on_c, 0, 34, 60
2, 38476, Note_on_c, 0, 73, 0
2, 38476, Note_on_c, 0, 79, 0
2, 38515, Note_on_c, 0, 34, 0
2, 38517, Note_on_c, 0, 77, 0
2, 38517, Note_on_c, 0, 74, 0
2, 38519, Note_on_c, 0, 65, 0
2, 38548, Note_on_c, 0, 84, 60
2, 38548, Note_on_c, 0, 87, 60
2, 38548, Note_on_c, 0, 80, 60
2, 38550, Note_on_c, 0, 75, 60
2, 38595, Note_on_c, 0, 65, 60
2, 38597, Note_on_c, 0, 62, 60
2, 38597, Note_on_c, 0, 58, 60
2, 38602, Note_on_c, 0, 56, 60
2, 38623, Note_on_c, 0, 58, 0
2, 38632, Note_on_c, 0, 56, 0
2, 38632, Note_on_c, 0, 65, 0
2, 38632, Note_on_c, 0, 62, 0
2, 38649, Note_on_c, 0, 80, 0
2, 38649, Note_on_c, 0, 75, 0
2, 38655, Note_on_c, 0, 87, 0
2, 38655, Note_on_c, 0, 84, 0
2, 38683, Note_on_c, 0, 84, 60
2, 38683, Note_on_c, 0, 80, 60
2, 38688, Note_on_c, 0, 72, 60
2, 38702, Note_on_c, 0, 80, 0
2, 38721, Note_on_c, 0, 72, 0
2, 38728, Note_on_c, 0, 80, 60
2, 38728, Note_on_c, 0, 86, 60
2, 38728, Control_c, 0, 64, 127
2, 38730, Note_on_c, 0, 74, 60
2, 38732, Note_on_c, 0, 50, 60
2, 38736, Note_on_c, 0, 41, 60
2, 38738, Note_on_c, 0, 84, 0
2, 38764, Note_on_c, 0, 74, 0
2, 38764, Note_on_c, 0, 80, 0
2, 38772, Note_on_c, 0, 86, 0
2, 38794, Note_on_c, 0, 41, 0
2, 38813, Note_on_c, 0, 82, 60
2, 38813, Note_on_c, 0, 80, 60
2, 38815, Note_on_c, 0, 70, 60
2, 38828, Note_on_c, 0, 50, 0
2, 38832, Control_c, 0, 64, 0
2, 38856, Note_on_c, 0, 83, 60
2, 38856, Note_on_c, 0, 71, 60
2, 38857, Note_on_c, 0, 82, 0
2, 38860, Note_on_c, 0, 70, 0
2, 38860, Note_on_c, 0, 65, 60
2, 38860, Note_on_c, 0, 56, 60
2, 38862, Note_on_c, 0, 62, 60
2, 38862, Note_on_c, 0, 58, 60
2, 38896, Note_on_c, 0, 62, 0
2, 38896, Note_on_c, 0, 65, 0
2, 38899, Note_on_c, 0, 56, 0
2, 38899, Note_on_c, 0, 58, 0
2, 38903, Note_on_c, 0, 71, 0
2, 38903, Note_on_c, 0, 83, 0
2, 38903, Note_on_c, 0, 80, 0
2, 38945, Note_on_c, 0, 84, 60
2, 38948, Note_on_c, 0, 80, 60
2, 38950, Note_on_c, 0, 72, 60
2, 39000, Note_on_c, 0, 58, 60
2, 39000, Note_on_c, 0, 46, 60
2, 39024, Note_on_c, 0, 46, 0
2, 39028, Note_on_c, 0, 72, 0
2, 39044, Note_on_c, 0, 84, 0
2, 39046, Note_on_c, 0, 80, 0
2, 39079, Note_on_c, 0, 82, 60
2, 39079, Note_on_c, 0, 70, 60
2, 39093, Note_on_c, 0, 58, 0
2, 39107, Note_on_c, 0, 70, 0
2, 39107, Note_on_c, 0, 82, 0
2, 39116, Note_on_c, 0, 80, 60
2, 39122, Note_on_c, 0, 84, 60
2, 39124, Note_on_c, 0, 72, 60
2, 39124, Note_on_c, 0, 65, 60
2, 39126, Note_on_c, 0, 62, 60
2, 39126, Note_on_c, 0, 56, 60
2, 39129, Note_on_c, 0, 58, 60
2, 39161, Note_on_c, 0, 58, 0
2, 39161, Note_on_c, 0, 65, 0
2, 39161, Note_on_c, 0, 62, 0
2, 39168, Note_on_c, 0, 72, 0
2, 39168, Note_on_c, 0, 80, 0
2, 39175, Note_on_c, 0, 84, 0
2, 39201, Note_on_c, 0, 70, 60
2, 39206, Note_on_c, 0, 39, 60
2, 39210, Note_on_c, 0, 82, 60
2, 39229, Note_on_c, 0, 82, 0
2, 39231, Note_on_c, 0, 56, 0
2, 39252, Note_on_c, 0, 87, 60
2, 39252, Note_on_c, 0, 79, 60
2, 39255, Note_on_c, 0, 75, 60
2, 39255, Control_c, 0, 64, 127
2, 39257, Note_on_c, 0, 70, 0
2, 39257, Note_on_c, 0, 82, 60
2, 39259, Note_on_c, 0, 46, 60
2, 39261, Note_on_c, 0, 55, 60
2, 39285, Note_on_c, 0, 55, 0
2, 39285, Note_on_c, 0, 39, 0
2, 39285, Note_on_c, 0, 46, 0
2, 39287, Note_on_c, 0, 87, 0
2, 39288, Note_on_c, 0, 79, 0
2, 39288, Note_on_c, 0, 75, 0
2, 39288, Note_on_c, 0, 82, 0
2, 39344, Note_on_c, 0, 55, 60
2, 39344, Note_on_c, 0, 43, 60
2, 39376, Control_c, 0, 64, 0
2, 39459, Note_on_c, 0, 43, 0
2, 39466, Note_on_c, 0, 55, 0
2, 39475, Note_on_c, 0, 54, 60
2, 39477, Note_on_c, 0, 42, 60
2, 39515, Note_on_c, 0, 55, 60
2, 39517, Note_on_c, 0, 54, 0
2, 39517, Note_on_c, 0, 43, 60
2, 39519, Note_on_c, 0, 42, 0
2, 39576, Note_on_c, 0, 55, 0
2, 39578, Note_on_c, 0, 43, 0
2, 39594, Note_on_c, 0, 57, 60
2, 39598, Note_on_c, 0, 45, 60
2, 39681, Note_on_c, 0, 45, 0
2, 39696, Note_on_c, 0, 57, 0
2, 39724, Note_on_c, 0, 57, 60
2, 39732, Note_on_c, 0, 45, 60
2, 39767, Note_on_c, 0, 57, 0
2, 39768, Note_on_c, 0, 45, 0
2, 39777, Note_on_c, 0, 58, 60
2, 39779, Note_on_c, 0, 46, 60
2, 39788, Control_c, 0, 64, 127
2, 39812, Note_on_c, 0, 46, 0
2, 39820, Note_on_c, 0, 58, 0
2, 39861, Note_on_c, 0, 57, 60
2, 39863, Note_on_c, 0, 45, 60
2, 39890, Note_on_c, 0, 45, 0
2, 39908, Note_on_c, 0, 57, 0
2, 39912, Note_on_c, 0, 46, 60
2, 39913, Note_on_c, 0, 58, 60
2, 39939, Control_c, 0, 64, 0
2, 39960, Note_on_c, 0, 58, 0
2, 39962, Note_on_c, 0, 46, 0
2, 39999, Note_on_c, 0, 60, 60
2, 39999, Note_on_c, 0, 48, 60
2, 40086, Note_on_c, 0, 60, 0
2, 40089, Note_on_c, 0, 48, 0
2, 40131, Note_on_c, 0, 58, 60
2, 40133, Note_on_c, 0, 46, 60
2, 40161, Note_on_c, 0, 46, 0
2, 40168, Note_on_c, 0, 58, 0
2, 40168, Note_on_c, 0, 55, 60
2, 40170, Note_on_c, 0, 43, 60
2, 40221, Note_on_c, 0, 55, 0
2, 40224, Note_on_c, 0, 43, 0
2, 40255, Note_on_c, 0, 54, 60
2, 40257, Note_on_c, 0, 42, 60
2, 40296, Note_on_c, 0, 80, 60
2, 40302, Note_on_c, 0, 42, 0
2, 40302, Note_on_c, 0, 54, 0
2, 40302, Note_on_c, 0, 41, 60
2, 40304, Note_on_c, 0, 74, 60
2, 40311, Note_on_c, 0, 86, 60
2, 40311, Note_on_c, 0, 53, 60
2, 40315, Control_c, 0, 64, 127
2, 40339, Note_on_c, 0, 41, 0
2, 40351, Note_on_c, 0, 80, 0
2, 40351, Note_on_c, 0, 74, 0
2, 40358, Note_on_c, 0, 86, 0
2, 40364, Note_on_c, 0, 53, 0
2, 40377, Control_c, 0, 64, 0
2, 40392, Note_on_c, 0, 84, 60
2, 40393, Note_on_c, 0, 80, 60
2, 40393, Note_on_c, 0, 72, 60
2, 40413, Note_on_c, 0, 80, 0
2, 40439, Note_on_c, 0, 84, 0
2, 40439, Note_on_c, 0, 74, 60
2, 40439, Note_on_c, 0, 80, 60
2, 40439, Note_on_c, 0, 70, 60
2, 40440, Note_on_c, 0, 72, 0
2, 40440, Note_on_c, 0, 65, 60
2, 40440, Note_on_c, 0, 58, 60
2, 40440, Note_on_c, 0, 62, 60
2, 40440, Note_on_c, 0, 56, 60
2, 40470, Note_on_c, 0, 74, 0
2, 40470, Note_on_c, 0, 70, 0
2, 40470, Note_on_c, 0, 80, 0
2, 40473, Note_on_c, 0, 58, 0
2, 40473, Note_on_c, 0, 65, 0
2, 40473, Note_on_c, 0, 62, 0
2, 40475, Note_on_c, 0, 56, 0
2, 40526, Note_on_c, 0, 80, 60
2, 40526, Note_on_c, 0, 71, 60
2, 40528, Note_on_c, 0, 83, 60
2, 40545, Note_on_c, 0, 80, 0
2, 40566, Note_on_c, 0, 84, 60
2, 40566, Note_on_c, 0, 80, 60
2, 40571, Note_on_c, 0, 72, 60
2, 40575, Note_on_c, 0, 34, 60
2, 40580, Note_on_c, 0, 83, 0
2, 40580, Note_on_c, 0, 71, 0
2, 40611, Note_on_c, 0, 34, 0
2, 40704, Note_on_c, 0, 65, 60
2, 40705, Note_on_c, 0, 58, 60
2, 40705, Note_on_c, 0, 56, 60
2, 40707, Note_on_c, 0, 62, 60
2, 40728, Note_on_c, 0, 62, 0
2, 40730, Note_on_c, 0, 58, 0
2, 40730, Note_on_c, 0, 56, 0
2, 40748, Note_on_c, 0, 65, 0
2, 40754, Note_on_c, 0, 80, 0
2, 40754, Note_on_c, 0, 72, 0
2, 40763, Note_on_c, 0, 84, 0
2, 40788, Note_on_c, 0, 82, 60
2, 40791, Note_on_c, 0, 41, 60
2, 40814, Note_on_c, 0, 82, 0
2, 40829, Control_c, 0, 64, 127
2, 40831, Note_on_c, 0, 81, 60
2, 40833, Note_on_c, 0, 56, 60
2, 40852, Note_on_c, 0, 41, 0
2, 40884, Note_on_c, 0, 56, 0
2, 40893, Note_on_c, 0, 81, 0
2, 40917, Note_on_c, 0, 82, 60
2, 40936, Control_c, 0, 64, 0
2, 40955, Note_on_c, 0, 82, 0
2, 40955, Note_on_c, 0, 80, 60
2, 40966, Note_on_c, 0, 65, 60
2, 40968, Note_on_c, 0, 62, 60
2, 40968, Note_on_c, 0, 58, 60
2, 40969, Note_on_c, 0, 68, 60
2, 40983, Note_on_c, 0, 80, 0
2, 40993, Note_on_c, 0, 82, 60
2, 40999, Note_on_c, 0, 68, 0
2, 41002, Note_on_c, 0, 58, 0
2, 41002, Note_on_c, 0, 65, 0
2, 41002, Note_on_c, 0, 62, 0
2, 41023, Note_on_c, 0, 80, 60
2, 41034, Note_on_c, 0, 82, 0
2, 41051, Note_on_c, 0, 77, 60
2, 41060, Note_on_c, 0, 80, 0
2, 41088, Note_on_c, 0, 77, 0
2, 41102, Note_on_c, 0, 34, 60
2, 41104, Note_on_c, 0, 74, 60
2, 41121, Note_on_c, 0, 74, 0
2, 41130, Note_on_c, 0, 77, 60
2, 41136, Note_on_c, 0, 34, 0
2, 41158, Note_on_c, 0, 74, 60
2, 41166, Note_on_c, 0, 77, 0
2, 41185, Note_on_c, 0, 72, 60
2, 41194, Note_on_c, 0, 74, 0
2, 41222, Note_on_c, 0, 72, 0
2, 41228, Note_on_c, 0, 77, 60
2, 41230, Note_on_c, 0, 70, 60
2, 41230, Note_on_c, 0, 74, 60
2, 41230, Note_on_c, 0, 80, 60
2, 41230, Note_on_c, 0, 82, 60
2, 41230, Note_on_c, 0, 58, 60
2, 41230, Note_on_c, 0, 62, 60
2, 41230, Note_on_c, 0, 65, 60
2, 41264, Note_on_c, 0, 65, 0
2, 41264, Note_on_c, 0, 62, 0
2, 41264, Note_on_c, 0, 58, 0
2, 41273, Note_on_c, 0, 74, 0
2, 41280, Note_on_c, 0, 80, 0
2, 41280, Note_on_c, 0, 82, 0
2, 41280, Note_on_c, 0, 77, 0
2, 41281, Note_on_c, 0, 70, 0
2, 41315, Note_on_c, 0, 80, 60
2, 41315, Note_on_c, 0, 77, 60
2, 41318, Note_on_c, 0, 74, 60
2, 41320, Note_on_c, 0, 68, 60
2, 41322, Note_on_c, 0, 39, 60
2, 41353, Note_on_c, 0, 55, 60
2, 41356, Note_on_c, 0, 39, 0
2, 41360, Note_on_c, 0, 68, 0
2, 41360, Note_on_c, 0, 74, 0
2, 41360, Note_on_c, 0, 77, 0
2, 41360, Control_c, 0, 64, 127
2, 41364, Note_on_c, 0, 46, 60
2, 41369, Note_on_c, 0, 80, 0
2, 41422, Note_on_c, 0, 46, 0
2, 41439, Note_on_c, 0, 55, 0
2, 41444, Note_on_c, 0, 86, 60
2, 41444, Note_on_c, 0, 74, 60
2, 41446, Note_on_c, 0, 79, 60
2, 41460, Note_on_c, 0, 79, 0
2, 41479, Note_on_c, 0, 74, 0
2, 41479, Control_c, 0, 64, 0
2, 41484, Note_on_c, 0, 84, 60
2, 41484, Note_on_c, 0, 79, 60
2, 41486, Note_on_c, 0, 86, 0
2, 41486, Note_on_c, 0, 82, 60
2, 41486, Note_on_c, 0, 72, 60
2, 41488, Note_on_c, 0, 67, 60
2, 41488, Note_on_c, 0, 63, 60
2, 41491, Note_on_c, 0, 58, 60
2, 41520, Note_on_c, 0, 82, 0
2, 41520, Note_on_c, 0, 84, 0
2, 41520, Note_on_c, 0, 79, 0
2, 41522, Note_on_c, 0, 67, 0
2, 41522, Note_on_c, 0, 72, 0
2, 41522, Note_on_c, 0, 63, 0
2, 41524, Note_on_c, 0, 58, 0
2, 41568, Note_on_c, 0, 70, 60
2, 41573, Note_on_c, 0, 82, 60
2, 41578, Note_on_c, 0, 79, 60
2, 41592, Note_on_c, 0, 79, 0
2, 41612, Note_on_c, 0, 70, 0
2, 41618, Note_on_c, 0, 84, 60
2, 41620, Note_on_c, 0, 82, 0
2, 41620, Note_on_c, 0, 79, 60
2, 41622, Note_on_c, 0, 72, 60
2, 41625, Note_on_c, 0, 58, 60
2, 41627, Note_on_c, 0, 46, 60
2, 41650, Note_on_c, 0, 46, 0
2, 41708, Note_on_c, 0, 58, 0
2, 41748, Note_on_c, 0, 63, 60
2, 41751, Note_on_c, 0, 67, 60
2, 41751, Note_on_c, 0, 58, 60
2, 41776, Note_on_c, 0, 67, 0
2, 41779, Note_on_c, 0, 63, 0
2, 41791, Note_on_c, 0, 84, 0
2, 41793, Note_on_c, 0, 79, 0
2, 41793, Note_on_c, 0, 72, 0
2, 41833, Note_on_c, 0, 79, 60
2, 41836, Note_on_c, 0, 82, 60
2, 41836, Note_on_c, 0, 70, 60
2, 41842, Note_on_c, 0, 46, 60
2, 41851, Note_on_c, 0, 82, 0
2, 41853, Note_on_c, 0, 79, 0
2, 41857, Note_on_c, 0, 58, 0
2, 41870, Control_c, 0, 64, 127
2, 41872, Note_on_c, 0, 70, 0
2, 41879, Note_on_c, 0, 82, 60
2, 41879, Note_on_c, 0, 79, 60
2, 41880, Note_on_c, 0, 86, 60
2, 41882, Note_on_c, 0, 74, 60
2, 41882, Note_on_c, 0, 55, 60
2, 41910, Note_on_c, 0, 46, 0
2, 41913, Note_on_c, 0, 86, 0
2, 41915, Note_on_c, 0, 74, 0
2, 41915, Note_on_c, 0, 82, 0
2, 41915, Note_on_c, 0, 79, 0
2, 41962, Note_on_c, 0, 55, 0
2, 41964, Note_on_c, 0, 87, 60
2, 41964, Note_on_c, 0, 82, 60
2, 41966, Note_on_c, 0, 75, 60
2, 41983, Note_on_c, 0, 82, 0
2, 41985, Control_c, 0, 64, 0
2, 41992, Note_on_c, 0, 87, 0
2, 41994, Note_on_c, 0, 75, 0
2, 42002, Note_on_c, 0, 63, 60
2, 42002, Note_on_c, 0, 60, 60
2, 42006, Note_on_c, 0, 84, 60
2, 42006, Note_on_c, 0, 82, 60
2, 42009, Note_on_c, 0, 72, 60
2, 42011, Note_on_c, 0, 79, 60
2, 42043, Note_on_c, 0, 79, 0
2, 42043, Note_on_c, 0, 84, 0
2, 42045, Note_on_c, 0, 82, 0
2, 42045, Note_on_c, 0, 72, 0
2, 42048, Note_on_c, 0, 60, 0
2, 42048, Note_on_c, 0, 63, 0
2, 42094, Note_on_c, 0, 79, 60
2, 42094, Note_on_c, 0, 82, 60
2, 42094, Note_on_c, 0, 86, 60
2, 42094, Note_on_c, 0, 74, 60
2, 42113, Note_on_c, 0, 82, 0
2, 42113, Note_on_c, 0, 79, 0
2, 42130, Note_on_c, 0, 74, 0
2, 42135, Note_on_c, 0, 82, 60
2, 42137, Note_on_c, 0, 79, 60
2, 42137, Note_on_c, 0, 70, 60
2, 42145, Note_on_c, 0, 86, 0
2, 42145, Note_on_c, 0, 39, 60
2, 42170, Note_on_c, 0, 82, 0
2, 42170, Note_on_c, 0, 79, 0
2, 42173, Note_on_c, 0, 70, 0
2, 42179, Note_on_c, 0, 39, 0
2, 42226, Note_on_c, 0, 75, 60
2, 42231, Note_on_c, 0, 87, 60
2, 42269, Note_on_c, 0, 87, 0
2, 42269, Note_on_c, 0, 86, 60
2, 42269, Note_on_c, 0, 79, 60
2, 42271, Note_on_c, 0, 75, 0
2, 42271, Note_on_c, 0, 74, 60
2, 42273, Note_on_c, 0, 62, 60
2, 42273, Note_on_c, 0, 58, 60
2, 42292, Note_on_c, 0, 58, 0
2, 42301, Note_on_c, 0, 62, 0
2, 42305, Note_on_c, 0, 79, 0
2, 42308, Note_on_c, 0, 74, 0
2, 42313, Note_on_c, 0, 86, 0
2, 42357, Note_on_c, 0, 85, 60
2, 42357, Note_on_c, 0, 79, 60
2, 42359, Note_on_c, 0, 73, 60
2, 42399, Note_on_c, 0, 80, 60
2, 42401, Note_on_c, 0, 79, 0
2, 42401, Note_on_c, 0, 84, 60
2, 42404, Note_on_c, 0, 73, 0
2, 42404, Note_on_c, 0, 72, 60
2, 42406, Note_on_c, 0, 44, 60
2, 42409, Note_on_c, 0, 85, 0
2, 42409, Note_on_c, 0, 56, 60
2, 42409, Control_c, 0, 64, 127
2, 42439, Note_on_c, 0, 44, 0
2, 42489, Note_on_c, 0, 80, 0
2, 42491, Note_on_c, 0, 72, 0
2, 42497, Note_on_c, 0, 84, 0
2, 42505, Control_c, 0, 64, 0
2, 42523, Note_on_c, 0, 80, 60
2, 42529, Note_on_c, 0, 51, 60
2, 42533, Note_on_c, 0, 71, 60
2, 42535, Note_on_c, 0, 83, 60
2, 42535, Note_on_c, 0, 60, 60
2, 42563, Note_on_c, 0, 51, 0
2, 42572, Note_on_c, 0, 56, 0
2, 42572, Note_on_c, 0, 60, 0
2, 42589, Note_on_c, 0, 80, 0
2, 42589, Note_on_c, 0, 71, 0
2, 42589, Note_on_c, 0, 83, 0
2, 42615, Note_on_c, 0, 84, 60
2, 42617, Note_on_c, 0, 72, 60
2, 42653, Note_on_c, 0, 72, 0
2, 42668, Note_on_c, 0, 81, 60
2, 42668, Note_on_c, 0, 74, 60
2, 42670, Note_on_c, 0, 78, 60
2, 42670, Note_on_c, 0, 86, 60
2, 42670, Note_on_c, 0, 57, 60
2, 42674, Note_on_c, 0, 45, 60
2, 42676, Note_on_c, 0, 84, 0
2, 42696, Note_on_c, 0, 45, 0
2, 42744, Note_on_c, 0, 74, 0
2, 42751, Note_on_c, 0, 86, 0
2, 42753, Note_on_c, 0, 81, 0
2, 42753, Note_on_c, 0, 78, 0
2, 42764, Note_on_c, 0, 57, 0
2, 42798, Note_on_c, 0, 84, 60
2, 42798, Note_on_c, 0, 78, 60
2, 42800, Note_on_c, 0, 81, 60
2, 42802, Note_on_c, 0, 57, 60
2, 42802, Note_on_c, 0, 72, 60
2, 42802, Note_on_c, 0, 54, 60
2, 42804, Note_on_c, 0, 60, 60
2, 42804, Note_on_c, 0, 51, 60
2, 42832, Note_on_c, 0, 84, 0
2, 42837, Note_on_c, 0, 51, 0
2, 42837, Note_on_c, 0, 54, 0
2, 42837, Note_on_c, 0, 57, 0
2, 42837, Note_on_c, 0, 60, 0
2, 42845, Note_on_c, 0, 78, 0
2, 42845, Note_on_c, 0, 72, 0
2, 42845, Note_on_c, 0, 81, 0
2, 42886, Note_on_c, 0, 79, 60
2, 42888, Note_on_c, 0, 82, 60
2, 42888, Note_on_c, 0, 86, 60
2, 42888, Note_on_c, 0, 74, 60
2, 42907, Note_on_c, 0, 82, 0
2, 42907, Note_on_c, 0, 79, 0
2, 42922, Note_on_c, 0, 86, 0
2, 42924, Note_on_c, 0, 74, 0
2, 42924, Control_c, 0, 64, 127
2, 42928, Note_on_c, 0, 87, 60
2, 42928, Note_on_c, 0, 82, 60
2, 42931, Note_on_c, 0, 79, 60
2, 42933, Note_on_c, 0, 75, 60
2, 42935, Note_on_c, 0, 58, 60
2, 42938, Note_on_c, 0, 46, 60
2, 42952, Note_on_c, 0, 79, 0
2, 42952, Note_on_c, 0, 82, 0
2, 42969, Note_on_c, 0, 87, 0
2, 42971, Note_on_c, 0, 75, 0
2, 42975, Note_on_c, 0, 82, 60
2, 42975, Note_on_c, 0, 89, 60
2, 42975, Note_on_c, 0, 79, 60
2, 42977, Note_on_c, 0, 77, 60
2, 42994, Note_on_c, 0, 79, 0
2, 42994, Note_on_c, 0, 82, 0
2, 43008, Note_on_c, 0, 46, 0
2, 43011, Note_on_c, 0, 89, 0
2, 43013, Note_on_c, 0, 77, 0
2, 43020, Note_on_c, 0, 82, 60
2, 43020, Note_on_c, 0, 87, 60
2, 43020, Note_on_c, 0, 79, 60
2, 43022, Note_on_c, 0, 75, 60
2, 43024, Note_on_c, 0, 58, 0
2, 43046, Control_c, 0, 64, 0
2, 43062, Note_on_c, 0, 83, 60
2, 43062, Note_on_c, 0, 86, 60
2, 43062, Note_on_c, 0, 74, 60
2, 43065, Note_on_c, 0, 79, 0
2, 43065, Note_on_c, 0, 75, 0
2, 43065, Note_on_c, 0, 82, 0
2, 43065, Note_on_c, 0, 77, 60
2, 43067, Note_on_c, 0, 59, 60
2, 43069, Note_on_c, 0, 50, 60
2, 43069, Note_on_c, 0, 43, 60
2, 43071, Note_on_c, 0, 87, 0
2, 43116, Note_on_c, 0, 86, 0
2, 43116, Note_on_c, 0, 83, 0
2, 43118, Note_on_c, 0, 74, 0
2, 43118, Note_on_c, 0, 77, 0
2, 43137, Note_on_c, 0, 59, 0
2, 43137, Note_on_c, 0, 50, 0
2, 43139, Note_on_c, 0, 43, 0
2, 43148, Note_on_c, 0, 84, 60
2, 43150, Note_on_c, 0, 79, 60
2, 43150, Note_on_c, 0, 82, 60
2, 43150, Note_on_c, 0, 76, 60
2, 43154, Note_on_c, 0, 72, 60
2, 43193, Note_on_c, 0, 36, 60
2, 43200, Note_on_c, 0, 52, 60
2, 43200, Note_on_c, 0, 43, 60
2, 43317, Note_on_c, 0, 64, 60
2, 43319, Note_on_c, 0, 58, 60
2, 43319, Note_on_c, 0, 55, 60
2, 43322, Note_on_c, 0, 60, 60
2, 43344, Note_on_c, 0, 43, 0
2, 43346, Note_on_c, 0, 36, 0
2, 43357, Note_on_c, 0, 82, 0
2, 43357, Note_on_c, 0, 84, 0
2, 43357, Note_on_c, 0, 76, 0
2, 43357, Note_on_c, 0, 79, 0
2, 43359, Note_on_c, 0, 72, 0
2, 43359, Note_on_c, 0, 64, 0
2, 43359, Note_on_c, 0, 55, 0
2, 43359, Note_on_c, 0, 58, 0
2, 43359, Note_on_c, 0, 60, 0
2, 43361, Note_on_c, 0, 52, 0
2, 43406, Note_on_c, 0, 41, 60
2, 43411, Note_on_c, 0, 74, 60
2, 43413, Note_on_c, 0, 86, 60
2, 43444, Control_c, 0, 64, 127
2, 43446, Note_on_c, 0, 86, 0
2, 43449, Note_on_c, 0, 74, 0
2, 43451, Note_on_c, 0, 48, 60
2, 43457, Note_on_c, 0, 75, 60
2, 43457, Note_on_c, 0, 81, 60
2, 43457, Note_on_c, 0, 87, 60
2, 43457, Note_on_c, 0, 57, 60
2, 43474, Note_on_c, 0, 81, 0
2, 43479, Note_on_c, 0, 41, 0
2, 43483, Note_on_c, 0, 75, 0
2, 43488, Note_on_c, 0, 48, 0
2, 43491, Note_on_c, 0, 87, 0
2, 43498, Note_on_c, 0, 89, 60
2, 43498, Note_on_c, 0, 84, 60
2, 43500, Note_on_c, 0, 81, 60
2, 43500, Note_on_c, 0, 77, 60
2, 43517, Note_on_c, 0, 84, 0
2, 43519, Note_on_c, 0, 81, 0
2, 43536, Note_on_c, 0, 77, 0
2, 43542, Note_on_c, 0, 81, 60
2, 43545, Note_on_c, 0, 89, 0
2, 43545, Note_on_c, 0, 75, 60
2, 43545, Note_on_c, 0, 87, 60
2, 43545, Control_c, 0, 64, 0
2, 43558, Note_on_c, 0, 57, 0
2, 43566, Note_on_c, 0, 81, 0
2, 43589, Note_on_c, 0, 84, 60
2, 43589, Note_on_c, 0, 81, 60
2, 43591, Note_on_c, 0, 87, 0
2, 43594, Note_on_c, 0, 75, 0
2, 43594, Note_on_c, 0, 63, 60
2, 43594, Note_on_c, 0, 72, 60
2, 43594, Note_on_c, 0, 57, 60
2, 43596, Note_on_c, 0, 60, 60
2, 43600, Note_on_c, 0, 53, 60
2, 43628, Note_on_c, 0, 60, 0
2, 43630, Note_on_c, 0, 53, 0
2, 43634, Note_on_c, 0, 81, 0
2, 43636, Note_on_c, 0, 63, 0
2, 43677, Note_on_c, 0, 84, 0
2, 43677, Note_on_c, 0, 83, 60
2, 43677, Note_on_c, 0, 77, 60
2, 43680, Note_on_c, 0, 72, 0
2, 43680, Note_on_c, 0, 71, 60
2, 43683, Note_on_c, 0, 46, 60
2, 43696, Note_on_c, 0, 77, 0
2, 43699, Note_on_c, 0, 57, 0
2, 43720, Note_on_c, 0, 83, 0
2, 43720, Note_on_c, 0, 77, 60
2, 43720, Note_on_c, 0, 80, 60
2, 43720, Note_on_c, 0, 74, 60
2, 43722, Note_on_c, 0, 71, 0
2, 43722, Note_on_c, 0, 82, 60
2, 43722, Note_on_c, 0, 70, 60
2, 43724, Note_on_c, 0, 58, 60
2, 43745, Note_on_c, 0, 46, 0
2, 43767, Note_on_c, 0, 70, 0
2, 43776, Note_on_c, 0, 82, 0
2, 43776, Note_on_c, 0, 74, 0
2, 43776, Note_on_c, 0, 80, 0
2, 43776, Note_on_c, 0, 77, 0
2, 43809, Note_on_c, 0, 78, 60
2, 43822, Note_on_c, 0, 58, 0
2, 43852, Note_on_c, 0, 79, 60
2, 43856, Note_on_c, 0, 74, 60
2, 43856, Note_on_c, 0, 70, 60
2, 43860, Note_on_c, 0, 62, 60
2, 43860, Note_on_c, 0, 53, 60
2, 43863, Note_on_c, 0, 58, 60
2, 43863, Note_on_c, 0, 56, 60
2, 43865, Note_on_c, 0, 78, 0
2, 43916, Note_on_c, 0, 74, 0
2, 43924, Note_on_c, 0, 79, 0
2, 43926, Note_on_c, 0, 70, 0
2, 43935, Note_on_c, 0, 62, 0
2, 43935, Note_on_c, 0, 58, 0
2, 43937, Note_on_c, 0, 56, 0
2, 43937, Note_on_c, 0, 53, 0
2, 43944, Note_on_c, 0, 75, 60
2, 43978, Control_c, 0, 64, 127
2, 43987, Note_on_c, 0, 79, 60
2, 43989, Note_on_c, 0, 63, 60
2, 43989, Note_on_c, 0, 70, 60
2, 43989, Note_on_c, 0, 55, 60
2, 43991, Note_on_c, 0, 58, 60
2, 43991, Note_on_c, 0, 51, 60
2, 44012, Note_on_c, 0, 70, 0
2, 44012, Note_on_c, 0, 79, 0
2, 44012, Note_on_c, 0, 75, 0
2, 44014, Note_on_c, 0, 55, 0
2, 44014, Note_on_c, 0, 63, 0
2, 44014, Note_on_c, 0, 58, 0
2, 44016, Note_on_c, 0, 51, 0
2, 44055, Control_c, 0, 64, 0
2, 44069, Note_on_c, 0, 87, 60
2, 44071, Note_on_c, 0, 75, 60
2, 44080, Note_on_c, 0, 39, 60
2, 44118, Note_on_c, 0, 51, 60
2, 44121, Note_on_c, 0, 43, 60
2, 44123, Note_on_c, 0, 39, 0
2, 44170, Note_on_c, 0, 87, 0
2, 44170, Note_on_c, 0, 75, 0
2, 44193, Note_on_c, 0, 43, 0
2, 44204, Note_on_c, 0, 87, 60
2, 44206, Note_on_c, 0, 75, 60
2, 44208, Note_on_c, 0, 51, 0
2, 44210, Note_on_c, 0, 41, 60
2, 44247, Note_on_c, 0, 86, 60
2, 44249, Note_on_c, 0, 74, 60
2, 44253, Note_on_c, 0, 41, 0
2, 44253, Note_on_c, 0, 53, 60
2, 44257, Note_on_c, 0, 87, 0
2, 44259, Note_on_c, 0, 75, 0
2, 44321, Note_on_c, 0, 53, 0
2, 44340, Note_on_c, 0, 42, 60
2, 44362, Note_on_c, 0, 74, 0
2, 44371, Note_on_c, 0, 86, 0
2, 44375, Note_on_c, 0, 42, 0
2, 44378, Note_on_c, 0, 75, 60
2, 44381, Note_on_c, 0, 87, 60
2, 44381, Note_on_c, 0, 54, 60
2, 44383, Note_on_c, 0, 45, 60
2, 44439, Note_on_c, 0, 75, 0
2, 44448, Note_on_c, 0, 87, 0
2, 44449, Note_on_c, 0, 45, 0
2, 44458, Note_on_c, 0, 54, 0
2, 44462, Note_on_c, 0, 85, 60
2, 44464, Note_on_c, 0, 73, 60
2, 44469, Note_on_c, 0, 39, 60
2, 44481, Control_c, 0, 64, 127
2, 44507, Note_on_c, 0, 39, 0
2, 44516, Note_on_c, 0, 55, 60
2, 44516, Note_on_c, 0, 46, 60
2, 44541, Note_on_c, 0, 46, 0
2, 44556, Note_on_c, 0, 55, 0
2, 44586, Control_c, 0, 64, 0
2, 44640, Note_on_c, 0, 67, 60
2, 44641, Note_on_c, 0, 63, 60
2, 44643, Note_on_c, 0, 61, 60
2, 44643, Note_on_c, 0, 58, 60
2, 44659, Note_on_c, 0, 61, 0
2, 44659, Note_on_c, 0, 63, 0
2, 44659, Note_on_c, 0, 67, 0
2, 44661, Note_on_c, 0, 58, 0
2, 44705, Note_on_c, 0, 85, 0
2, 44708, Note_on_c, 0, 73, 0
2, 44769, Note_on_c, 0, 77, 60
2, 44769, Note_on_c, 0, 73, 60
2, 44771, Note_on_c, 0, 65, 60
2, 44776, Note_on_c, 0, 39, 60
2, 44793, Note_on_c, 0, 39, 0
2, 44797, Note_on_c, 0, 77, 0
2, 44797, Note_on_c, 0, 73, 0
2, 44799, Note_on_c, 0, 65, 0
2, 44858, Note_on_c, 0, 78, 60
2, 44861, Note_on_c, 0, 73, 60
2, 44861, Note_on_c, 0, 66, 60
2, 44905, Note_on_c, 0, 61, 60
2, 44905, Note_on_c, 0, 55, 60
2, 44908, Note_on_c, 0, 58, 60
2, 44908, Note_on_c, 0, 51, 60
2, 44938, Note_on_c, 0, 66, 0
2, 44940, Note_on_c, 0, 55, 0
2, 44940, Note_on_c, 0, 51, 0
2, 44944, Note_on_c, 0, 78, 0
2, 44947, Note_on_c, 0, 73, 0
2, 44947, Note_on_c, 0, 61, 0
2, 44949, Note_on_c, 0, 58, 0
2, 44987, Note_on_c, 0, 79, 60
2, 44989, Note_on_c, 0, 73, 60
2, 44991, Note_on_c, 0, 67, 60
2, 45038, Note_on_c, 0, 58, 60
2, 45040, Note_on_c, 0, 46, 60
2, 45057, Control_c, 0, 64, 127
2, 45068, Note_on_c, 0, 67, 0
2, 45068, Note_on_c, 0, 79, 0
2, 45068, Note_on_c, 0, 73, 0
2, 45070, Note_on_c, 0, 46, 0
2, 45120, Note_on_c, 0, 84, 60
2, 45121, Note_on_c, 0, 79, 60
2, 45121, Note_on_c, 0, 72, 60
2, 45132, Note_on_c, 0, 58, 0
2, 45136, Control_c, 0, 64, 0
2, 45146, Note_on_c, 0, 84, 0
2, 45149, Note_on_c, 0, 72, 0
2, 45155, Note_on_c, 0, 79, 0
2, 45160, Note_on_c, 0, 55, 60
2, 45160, Note_on_c, 0, 51, 60
2, 45162, Note_on_c, 0, 58, 60
2, 45164, Note_on_c, 0, 83, 60
2, 45164, Note_on_c, 0, 61, 60
2, 45168, Note_on_c, 0, 71, 60
2, 45193, Note_on_c, 0, 55, 0
2, 45196, Note_on_c, 0, 51, 0
2, 45200, Note_on_c, 0, 83, 0
2, 45202, Note_on_c, 0, 58, 0
2, 45202, Note_on_c, 0, 71, 0
2, 45202, Note_on_c, 0, 61, 0
2, 45256, Note_on_c, 0, 79, 60
2, 45258, Note_on_c, 0, 84, 60
2, 45258, Note_on_c, 0, 72, 60
2, 45289, Note_on_c, 0, 72, 0
2, 45296, Note_on_c, 0, 84, 0
2, 45296, Note_on_c, 0, 79, 0
2, 45296, Note_on_c, 0, 82, 60
2, 45298, Note_on_c, 0, 70, 60
2, 45305, Note_on_c, 0, 39, 60
2, 45336, Note_on_c, 0, 39, 0
2, 45350, Note_on_c, 0, 70, 0
2, 45350, Note_on_c, 0, 82, 0
2, 45385, Note_on_c, 0, 79, 60
2, 45388, Note_on_c, 0, 73, 60
2, 45394, Note_on_c, 0, 67, 60
2, 45424, Note_on_c, 0, 61, 60
2, 45424, Note_on_c, 0, 58, 60
2, 45427, Note_on_c, 0, 55, 60
2, 45427, Note_on_c, 0, 51, 60
2, 45465, Note_on_c, 0, 67, 0
2, 45467, Note_on_c, 0, 58, 0
2, 45467, Note_on_c, 0, 61, 0
2, 45467, Note_on_c, 0, 55, 0
2, 45469, Note_on_c, 0, 51, 0
2, 45473, Note_on_c, 0, 73, 0
2, 45473, Note_on_c, 0, 79, 0
2, 45518, Note_on_c, 0, 77, 60
2, 45518, Note_on_c, 0, 72, 60
2, 45520, Note_on_c, 0, 65, 60
2, 45554, Control_c, 0, 64, 127
2, 45558, Note_on_c, 0, 44, 60
2, 45565, Note_on_c, 0, 56, 60
2, 45593, Note_on_c, 0, 44, 0
2, 45650, Note_on_c, 0, 56, 0
2, 45663, Control_c, 0, 64, 0
2, 45691, Note_on_c, 0, 60, 60
2, 45693, Note_on_c, 0, 56, 60
2, 45696, Note_on_c, 0, 51, 60
2, 45720, Note_on_c, 0, 51, 0
2, 45727, Note_on_c, 0, 72, 0
2, 45727, Note_on_c, 0, 77, 0
2, 45727, Note_on_c, 0, 65, 0
2, 45727, Note_on_c, 0, 60, 0
2, 45746, Note_on_c, 0, 56, 0
2, 45780, Note_on_c, 0, 75, 60
2, 45780, Note_on_c, 0, 63, 60
2, 45818, Note_on_c, 0, 63, 0
2, 45825, Note_on_c, 0, 72, 60
2, 45825, Note_on_c, 0, 77, 60
2, 45825, Note_on_c, 0, 65, 60
2, 45830, Note_on_c, 0, 39, 60
2, 45834, Note_on_c, 0, 75, 0
2, 45851, Note_on_c, 0, 77, 0
2, 45853, Note_on_c, 0, 65, 0
2, 45855, Note_on_c, 0, 39, 0
2, 45862, Note_on_c, 0, 72, 0
2, 45907, Note_on_c, 0, 67, 60
2, 45911, Note_on_c, 0, 79, 60
2, 45942, Note_on_c, 0, 67, 0
2, 45951, Note_on_c, 0, 79, 0
2, 45958, Note_on_c, 0, 80, 60
2, 45958, Note_on_c, 0, 68, 60
2, 45961, Note_on_c, 0, 60, 60
2, 45961, Note_on_c, 0, 56, 60
2, 45964, Note_on_c, 0, 51, 60
2, 45985, Note_on_c, 0, 60, 0
2, 45987, Note_on_c, 0, 56, 0
2, 45987, Note_on_c, 0, 51, 0
2, 46003, Note_on_c, 0, 68, 0
2, 46003, Note_on_c, 0, 80, 0
2, 46043, Note_on_c, 0, 36, 60
2, 46047, Note_on_c, 0, 82, 60
2, 46047, Note_on_c, 0, 70, 60
2, 46071, Control_c, 0, 64, 127
2, 46080, Note_on_c, 0, 36, 0
2, 46090, Note_on_c, 0, 84, 60
2, 46090, Note_on_c, 0, 80, 60
2, 46094, Note_on_c, 0, 70, 0
2, 46096, Note_on_c, 0, 60, 60
2, 46096, Note_on_c, 0, 72, 60
2, 46096, Note_on_c, 0, 48, 60
2, 46101, Note_on_c, 0, 82, 0
2, 46130, Note_on_c, 0, 48, 0
2, 46134, Note_on_c, 0, 80, 0
2, 46134, Note_on_c, 0, 84, 0
2, 46137, Note_on_c, 0, 72, 0
2, 46177, Note_on_c, 0, 80, 60
2, 46179, Note_on_c, 0, 68, 60
2, 46190, Note_on_c, 0, 60, 0
2, 46214, Control_c, 0, 64, 0
2, 46224, Note_on_c, 0, 63, 60
2, 46224, Note_on_c, 0, 56, 60
2, 46226, Note_on_c, 0, 60, 60
2, 46252, Note_on_c, 0, 56, 0
2, 46252, Note_on_c, 0, 63, 0
2, 46275, Note_on_c, 0, 80, 0
2, 46277, Note_on_c, 0, 68, 0
2, 46310, Note_on_c, 0, 77, 60
2, 46310, Note_on_c, 0, 73, 60
2, 46312, Note_on_c, 0, 65, 60
2, 46312, Note_on_c, 0, 50, 60
2, 46331, Note_on_c, 0, 60, 0
2, 46337, Note_on_c, 0, 77, 0
2, 46340, Note_on_c, 0, 65, 0
2, 46348, Note_on_c, 0, 73, 0
2, 46352, Note_on_c, 0, 79, 60
2, 46354, Note_on_c, 0, 74, 60
2, 46361, Note_on_c, 0, 67, 60
2, 46361, Note_on_c, 0, 59, 60
2, 46368, Note_on_c, 0, 50, 0
2, 46416, Note_on_c, 0, 67, 0
2, 46416, Note_on_c, 0, 74, 0
2, 46422, Note_on_c, 0, 79, 0
2, 46436, Note_on_c, 0, 59, 0
2, 46476, Note_on_c, 0, 74, 60
2, 46483, Note_on_c, 0, 59, 60
2, 46483, Note_on_c, 0, 53, 60
2, 46485, Note_on_c, 0, 77, 60
2, 46487, Note_on_c, 0, 65, 60
2, 46487, Note_on_c, 0, 62, 60
2, 46488, Note_on_c, 0, 56, 60
2, 46506, Note_on_c, 0, 56, 0
2, 46508, Note_on_c, 0, 53, 0
2, 46514, Note_on_c, 0, 65, 0
2, 46514, Note_on_c, 0, 62, 0
2, 46521, Note_on_c, 0, 74, 0
2, 46521, Note_on_c, 0, 77, 0
2, 46570, Note_on_c, 0, 79, 60
2, 46572, Note_on_c, 0, 74, 60
2, 46581, Note_on_c, 0, 67, 60
2, 46593, Note_on_c, 0, 59, 0
2, 46614, Note_on_c, 0, 79, 0
2, 46614, Note_on_c, 0, 73, 60
2, 46614, Note_on_c, 0, 77, 60
2, 46614, Control_c, 0, 64, 127
2, 46617, Note_on_c, 0, 74, 0
2, 46617, Note_on_c, 0, 67, 0
2, 46617, Note_on_c, 0, 65, 60
2, 46621, Note_on_c, 0, 46, 60
2, 46625, Note_on_c, 0, 58, 60
2, 46651, Note_on_c, 0, 65, 0
2, 46651, Note_on_c, 0, 77, 0
2, 46651, Note_on_c, 0, 73, 0
2, 46656, Note_on_c, 0, 46, 0
2, 46702, Note_on_c, 0, 73, 60
2, 46706, Note_on_c, 0, 61, 60
2, 46715, Note_on_c, 0, 58, 0
2, 46749, Note_on_c, 0, 55, 60
2, 46753, Note_on_c, 0, 51, 60
2, 46753, Note_on_c, 0, 58, 60
2, 46753, Control_c, 0, 64, 0
2, 46775, Note_on_c, 0, 55, 0
2, 46776, Note_on_c, 0, 51, 0
2, 46783, Note_on_c, 0, 61, 0
2, 46802, Note_on_c, 0, 73, 0
2, 46804, Note_on_c, 0, 58, 0
2, 46834, Note_on_c, 0, 82, 60
2, 46836, Note_on_c, 0, 79, 60
2, 46836, Note_on_c, 0, 73, 60
2, 46839, Note_on_c, 0, 70, 60
2, 46881, Note_on_c, 0, 39, 60
2, 46932, Note_on_c, 0, 39, 0
2, 47009, Note_on_c, 0, 55, 60
2, 47009, Note_on_c, 0, 61, 60
2, 47009, Note_on_c, 0, 51, 60
2, 47014, Note_on_c, 0, 58, 60
2, 47035, Note_on_c, 0, 58, 0
2, 47035, Note_on_c, 0, 55, 0
2, 47041, Note_on_c, 0, 61, 0
2, 47063, Note_on_c, 0, 51, 0
2, 47092, Note_on_c, 0, 79, 0
2, 47094, Note_on_c, 0, 70, 0
2, 47094, Note_on_c, 0, 73, 0
2, 47097, Note_on_c, 0, 43, 60
2, 47101, Note_on_c, 0, 82, 0
2, 47127, Control_c, 0, 64, 127
2, 47133, Note_on_c, 0, 55, 60
2, 47137, Note_on_c, 0, 73, 60
2, 47137, Note_on_c, 0, 75, 60
2, 47137, Note_on_c, 0, 63, 60
2, 47169, Note_on_c, 0, 43, 0
2, 47174, Note_on_c, 0, 75, 0
2, 47174, Note_on_c, 0, 63, 0
2, 47174, Note_on_c, 0, 73, 0
2, 47223, Note_on_c, 0, 77, 60
2, 47225, Note_on_c, 0, 73, 60
2, 47225, Note_on_c, 0, 65, 60
2, 47235, Note_on_c, 0, 55, 0
2, 47263, Note_on_c, 0, 55, 60
2, 47267, Control_c, 0, 64, 0
2, 47270, Note_on_c, 0, 58, 60
2, 47270, Note_on_c, 0, 61, 60
2, 47270, Note_on_c, 0, 51, 60
2, 47302, Note_on_c, 0, 61, 0
2, 47302, Note_on_c, 0, 73, 0
2, 47304, Note_on_c, 0, 58, 0
2, 47304, Note_on_c, 0, 55, 0
2, 47304, Note_on_c, 0, 51, 0
2, 47310, Note_on_c, 0, 65, 0
2, 47310, Note_on_c, 0, 77, 0
2, 47351, Note_on_c, 0, 85, 60
2, 47352, Note_on_c, 0, 79, 60
2, 47354, Note_on_c, 0, 82, 60
2, 47354, Note_on_c, 0, 73, 60
2, 47401, Note_on_c, 0, 39, 60
2, 47438, Note_on_c, 0, 39, 0
2, 47523, Note_on_c, 0, 51, 60
2, 47525, Note_on_c, 0, 58, 60
2, 47525, Note_on_c, 0, 61, 60
2, 47525, Note_on_c, 0, 55, 60
2, 47564, Note_on_c, 0, 55, 0
2, 47564, Note_on_c, 0, 61, 0
2, 47564, Note_on_c, 0, 58, 0
2, 47566, Note_on_c, 0, 51, 0
2, 47593, Note_on_c, 0, 82, 0
2, 47593, Note_on_c, 0, 85, 0
2, 47593, Note_on_c, 0, 79, 0
2, 47596, Note_on_c, 0, 73, 0
2, 47613, Control_c, 0, 64, 127
2, 47651, Note_on_c, 0, 80, 60
2, 47658, Note_on_c, 0, 83, 60
2, 47660, Note_on_c, 0, 71, 60
2, 47664, Note_on_c, 0, 56, 60
2, 47664, Note_on_c, 0, 44, 60
2, 47688, Note_on_c, 0, 44, 0
2, 47696, Note_on_c, 0, 80, 0
2, 47705, Note_on_c, 0, 83, 0
2, 47705, Note_on_c, 0, 71, 0
2, 47747, Note_on_c, 0, 84, 60
2, 47750, Note_on_c, 0, 80, 60
2, 47752, Note_on_c, 0, 72, 60
2, 47760, Note_on_c, 0, 56, 0
2, 47782, Control_c, 0, 64, 0
2, 47788, Note_on_c, 0, 60, 60
2, 47790, Note_on_c, 0, 56, 60
2, 47790, Note_on_c, 0, 51, 60
2, 47820, Note_on_c, 0, 60, 0
2, 47822, Note_on_c, 0, 51, 0
2, 47827, Note_on_c, 0, 84, 0
2, 47829, Note_on_c, 0, 72, 0
2, 47829, Note_on_c, 0, 80, 0
2, 47850, Note_on_c, 0, 56, 0
2, 47881, Note_on_c, 0, 77, 60
2, 47881, Note_on_c, 0, 65, 60
2, 47884, Note_on_c, 0, 72, 60
2, 47930, Note_on_c, 0, 39, 60
2, 47956, Note_on_c, 0, 39, 0
2, 48063, Note_on_c, 0, 56, 60
2, 48063, Note_on_c, 0, 51, 60
2, 48068, Note_on_c, 0, 60, 60
2, 48096, Note_on_c, 0, 60, 0
2, 48096, Note_on_c, 0, 56, 0
2, 48096, Note_on_c, 0, 51, 0
2, 48155, Note_on_c, 0, 72, 0
2, 48157, Note_on_c, 0, 65, 0
2, 48164, Note_on_c, 0, 77, 0
2, 48189, Control_c, 0, 64, 127
2, 48193, Note_on_c, 0, 60, 60
2, 48195, Note_on_c, 0, 48, 60
2, 48221, Note_on_c, 0, 48, 0
2, 48274, Note_on_c, 0, 84, 60
2, 48274, Note_on_c, 0, 80, 60
2, 48276, Note_on_c, 0, 72, 60
2, 48288, Note_on_c, 0, 60, 0
2, 48319, Note_on_c, 0, 84, 0
2, 48319, Note_on_c, 0, 83, 60
2, 48319, Note_on_c, 0, 71, 60
2, 48321, Note_on_c, 0, 72, 0
2, 48321, Note_on_c, 0, 63, 60
2, 48321, Note_on_c, 0, 60, 60
2, 48323, Note_on_c, 0, 56, 60
2, 48328, Control_c, 0, 64, 0
2, 48356, Note_on_c, 0, 60, 0
2, 48356, Note_on_c, 0, 63, 0
2, 48356, Note_on_c, 0, 80, 0
2, 48358, Note_on_c, 0, 56, 0
2, 48361, Note_on_c, 0, 83, 0
2, 48364, Note_on_c, 0, 71, 0
2, 48408, Note_on_c, 0, 84, 60
2, 48410, Note_on_c, 0, 80, 60
2, 48413, Note_on_c, 0, 72, 60
2, 48438, Note_on_c, 0, 72, 0
2, 48449, Note_on_c, 0, 59, 60
2, 48449, Note_on_c, 0, 47, 60
2, 48454, Note_on_c, 0, 87, 60
2, 48456, Note_on_c, 0, 80, 0
2, 48456, Note_on_c, 0, 84, 0
2, 48456, Note_on_c, 0, 75, 60
2, 48494, Note_on_c, 0, 47, 0
2, 48494, Note_on_c, 0, 59, 0
2, 48501, Note_on_c, 0, 75, 0
2, 48506, Note_on_c, 0, 87, 0
2, 48543, Note_on_c, 0, 86, 60
2, 48545, Note_on_c, 0, 74, 60
2, 48590, Note_on_c, 0, 62, 60
2, 48592, Note_on_c, 0, 56, 60
2, 48592, Note_on_c, 0, 53, 60
2, 48595, Note_on_c, 0, 59, 60
2, 48624, Note_on_c, 0, 62, 0
2, 48624, Note_on_c, 0, 74, 0
2, 48626, Note_on_c, 0, 56, 0
2, 48626, Note_on_c, 0, 53, 0
2, 48630, Note_on_c, 0, 86, 0
2, 48644, Note_on_c, 0, 59, 0
2, 48675, Note_on_c, 0, 82, 60
2, 48675, Note_on_c, 0, 85, 60
2, 48675, Note_on_c, 0, 79, 60
2, 48677, Note_on_c, 0, 73, 60
2, 48710, Control_c, 0, 64, 127
2, 48724, Note_on_c, 0, 46, 60
2, 48726, Note_on_c, 0, 58, 60
2, 48761, Note_on_c, 0, 46, 0
2, 48797, Control_c, 0, 64, 0
2, 48820, Note_on_c, 0, 58, 0
2, 48844, Note_on_c, 0, 55, 60
2, 48846, Note_on_c, 0, 61, 60
2, 48846, Note_on_c, 0, 51, 60
2, 48850, Note_on_c, 0, 58, 60
2, 48878, Note_on_c, 0, 58, 0
2, 48878, Note_on_c, 0, 61, 0
2, 48880, Note_on_c, 0, 55, 0
2, 48880, Note_on_c, 0, 51, 0
2, 48918, Note_on_c, 0, 82, 0
2, 48921, Note_on_c, 0, 73, 0
2, 48927, Note_on_c, 0, 79, 0
2, 48927, Note_on_c, 0, 85, 0
2, 48983, Note_on_c, 0, 81, 60
2, 48984, Note_on_c, 0, 78, 60
2, 48984, Note_on_c, 0, 69, 60
2, 48989, Note_on_c, 0, 46, 60
2, 48991, Note_on_c, 0, 39, 60
2, 49004, Note_on_c, 0, 69, 0
2, 49004, Note_on_c, 0, 81, 0
2, 49008, Note_on_c, 0, 39, 0
2, 49010, Note_on_c, 0, 78, 0
2, 49017, Note_on_c, 0, 46, 0
2, 49072, Note_on_c, 0, 84, 60
2, 49072, Note_on_c, 0, 79, 60
2, 49077, Note_on_c, 0, 72, 60
2, 49119, Note_on_c, 0, 61, 60
2, 49119, Note_on_c, 0, 58, 60
2, 49121, Note_on_c, 0, 55, 60
2, 49124, Note_on_c, 0, 51, 60
2, 49143, Note_on_c, 0, 61, 0
2, 49145, Note_on_c, 0, 55, 0
2, 49145, Note_on_c, 0, 58, 0
2, 49145, Note_on_c, 0, 51, 0
2, 49157, Note_on_c, 0, 84, 0
2, 49157, Note_on_c, 0, 79, 0
2, 49159, Note_on_c, 0, 72, 0
2, 49200, Note_on_c, 0, 82, 60
2, 49200, Note_on_c, 0, 79, 60
2, 49204, Note_on_c, 0, 70, 60
2, 49243, Control_c, 0, 64, 127
2, 49248, Note_on_c, 0, 55, 60
2, 49253, Note_on_c, 0, 46, 60
2, 49286, Note_on_c, 0, 46, 0
2, 49344, Note_on_c, 0, 55, 0
2, 49347, Control_c, 0, 64, 0
2, 49368, Note_on_c, 0, 55, 60
2, 49377, Note_on_c, 0, 61, 60
2, 49377, Note_on_c, 0, 51, 60
2, 49382, Note_on_c, 0, 58, 60
2, 49407, Note_on_c, 0, 79, 0
2, 49409, Note_on_c, 0, 61, 0
2, 49409, Note_on_c, 0, 82, 0
2, 49409, Note_on_c, 0, 70, 0
2, 49412, Note_on_c, 0, 55, 0
2, 49412, Note_on_c, 0, 58, 0
2, 49412, Note_on_c, 0, 51, 0
2, 49503, Note_on_c, 0, 77, 60
2, 49505, Note_on_c, 0, 73, 60
2, 49505, Note_on_c, 0, 65, 60
2, 49508, Note_on_c, 0, 39, 60
2, 49510, Note_on_c, 0, 51, 60
2, 49533, Note_on_c, 0, 51, 0
2, 49536, Note_on_c, 0, 39, 0
2, 49548, Note_on_c, 0, 77, 0
2, 49548, Note_on_c, 0, 73, 0
2, 49550, Note_on_c, 0, 65, 0
2, 49595, Note_on_c, 0, 79, 60
2, 49595, Note_on_c, 0, 73, 60
2, 49597, Note_on_c, 0, 67, 60
2, 49637, Note_on_c, 0, 58, 60
2, 49637, Note_on_c, 0, 61, 60
2, 49637, Note_on_c, 0, 51, 60
2, 49653, Note_on_c, 0, 79, 0
2, 49663, Note_on_c, 0, 58, 0
2, 49663, Note_on_c, 0, 73, 0
2, 49663, Note_on_c, 0, 67, 0
2, 49665, Note_on_c, 0, 51, 0
2, 49723, Note_on_c, 0, 77, 60
2, 49725, Note_on_c, 0, 65, 60
2, 49728, Note_on_c, 0, 72, 60
2, 49735, Note_on_c, 0, 61, 0
2, 49749, Control_c, 0, 64, 127
2, 49772, Note_on_c, 0, 48, 60
2, 49776, Note_on_c, 0, 60, 60
2, 49836, Note_on_c, 0, 60, 0
2, 49868, Control_c, 0, 64, 0
2, 49896, Note_on_c, 0, 56, 60
2, 49897, Note_on_c, 0, 60, 60
2, 49897, Note_on_c, 0, 51, 60
2, 49921, Note_on_c, 0, 48, 0
2, 49927, Note_on_c, 0, 56, 0
2, 49927, Note_on_c, 0, 60, 0
2, 49930, Note_on_c, 0, 51, 0
2, 49936, Note_on_c, 0, 72, 0
2, 49936, Note_on_c, 0, 77, 0
2, 49939, Note_on_c, 0, 65, 0
2, 49979, Note_on_c, 0, 70, 60
2, 49981, Note_on_c, 0, 64, 60
2, 49981, Note_on_c, 0, 66, 60
2, 49981, Note_on_c, 0, 54, 60
2, 49983, Note_on_c, 0, 49, 60
2, 49983, Note_on_c, 0, 58, 60
2, 49983, Note_on_c, 0, 42, 60
2, 50092, Note_on_c, 0, 58, 0
2, 50092, Note_on_c, 0, 70, 0
2, 50092, Note_on_c, 0, 64, 0
2, 50092, Note_on_c, 0, 66, 0
2, 50105, Note_on_c, 0, 60, 60
2, 50107, Note_on_c, 0, 72, 60
2, 50185, Note_on_c, 0, 60, 0
2, 50194, Note_on_c, 0, 72, 0
2, 50208, Note_on_c, 0, 42, 0
2, 50215, Note_on_c, 0, 49, 0
2, 50232, Note_on_c, 0, 54, 0
2, 50232, Note_on_c, 0, 57, 60
2, 50241, Note_on_c, 0, 65, 60
2, 50241, Note_on_c, 0, 69, 60
2, 50241, Note_on_c, 0, 63, 60
2, 50280, Control_c, 0, 64, 127
2, 50286, Note_on_c, 0, 48, 60
2, 50286, Note_on_c, 0, 53, 60
2, 50286, Note_on_c, 0, 41, 60
2, 50330, Note_on_c, 0, 41, 0
2, 50330, Note_on_c, 0, 48, 0
2, 50337, Note_on_c, 0, 63, 0
2, 50337, Note_on_c, 0, 65, 0
2, 50339, Note_on_c, 0, 57, 0
2, 50339, Note_on_c, 0, 53, 0
2, 50346, Note_on_c, 0, 69, 0
2, 50400, Control_c, 0, 64, 0
2, 50407, Note_on_c, 0, 77, 60
2, 50407, Note_on_c, 0, 75, 60
2, 50410, Note_on_c, 0, 65, 60
2, 50410, Note_on_c, 0, 69, 60
2, 50410, Note_on_c, 0, 72, 60
2, 50410, Note_on_c, 0, 63, 60
2, 50412, Note_on_c, 0, 57, 60
2, 50414, Note_on_c, 0, 60, 60
2, 50414, Note_on_c, 0, 53, 60
2, 50444, Note_on_c, 0, 60, 0
2, 50444, Note_on_c, 0, 57, 0
2, 50444, Note_on_c, 0, 69, 0
2, 50444, Note_on_c, 0, 72, 0
2, 50444, Note_on_c, 0, 75, 0
2, 50444, Note_on_c, 0, 65, 0
2, 50444, Note_on_c, 0, 77, 0
2, 50444, Note_on_c, 0, 63, 0
2, 50448, Note_on_c, 0, 53, 0
2, 50503, Note_on_c, 0, 76, 60
2, 50510, Note_on_c, 0, 72, 60
2, 50510, Note_on_c, 0, 64, 60
2, 50525, Note_on_c, 0, 72, 0
2, 50548, Note_on_c, 0, 36, 60
2, 50553, Note_on_c, 0, 72, 60
2, 50555, Note_on_c, 0, 48, 60
2, 50589, Note_on_c, 0, 72, 0
2, 50589, Note_on_c, 0, 64, 0
2, 50592, Note_on_c, 0, 36, 0
2, 50595, Note_on_c, 0, 76, 0
2, 50599, Note_on_c, 0, 48, 0
2, 50638, Note_on_c, 0, 72, 60
2, 50640, Note_on_c, 0, 77, 60
2, 50642, Note_on_c, 0, 69, 60
2, 50642, Note_on_c, 0, 65, 60
2, 50657, Note_on_c, 0, 72, 0
2, 50665, Note_on_c, 0, 77, 0
2, 50670, Note_on_c, 0, 65, 0
2, 50679, Note_on_c, 0, 57, 60
2, 50679, Note_on_c, 0, 60, 60
2, 50679, Note_on_c, 0, 75, 60
2, 50679, Note_on_c, 0, 53, 60
2, 50688, Note_on_c, 0, 72, 60
2, 50688, Note_on_c, 0, 63, 60
2, 50711, Note_on_c, 0, 60, 0
2, 50712, Note_on_c, 0, 53, 0
2, 50721, Note_on_c, 0, 72, 0
2, 50721, Note_on_c, 0, 63, 0
2, 50728, Note_on_c, 0, 75, 0
2, 50730, Note_on_c, 0, 57, 0
2, 50730, Note_on_c, 0, 69, 0
2, 50770, Note_on_c, 0, 74, 60
2, 50770, Note_on_c, 0, 62, 60
2, 50781, Control_c, 0, 64, 127
2, 50805, Note_on_c, 0, 70, 60
2, 50807, Note_on_c, 0, 65, 60
2, 50808, Note_on_c, 0, 61, 60
2, 50810, Note_on_c, 0, 49, 60
2, 50810, Note_on_c, 0, 37, 60
2, 50813, Note_on_c, 0, 73, 60
2, 50815, Note_on_c, 0, 62, 0
2, 50815, Note_on_c, 0, 74, 0
2, 50830, Note_on_c, 0, 70, 0
2, 50834, Note_on_c, 0, 61, 0
2, 50843, Note_on_c, 0, 65, 0
2, 50845, Note_on_c, 0, 37, 0
2, 50849, Note_on_c, 0, 73, 0
2, 50860, Note_on_c, 0, 49, 0
2, 50894, Control_c, 0, 64, 0
2, 50903, Note_on_c, 0, 77, 60
2, 50904, Note_on_c, 0, 65, 60
2, 50922, Note_on_c, 0, 65, 0
2, 50922, Note_on_c, 0, 77, 0
2, 50945, Note_on_c, 0, 82, 60
2, 50945, Note_on_c, 0, 77, 60
2, 50948, Note_on_c, 0, 70, 60
2, 50948, Note_on_c, 0, 65, 60
2, 50950, Note_on_c, 0, 58, 60
2, 50956, Note_on_c, 0, 61, 60
2, 50976, Note_on_c, 0, 70, 0
2, 50977, Note_on_c, 0, 58, 0
2, 50977, Note_on_c, 0, 61, 0
2, 50983, Note_on_c, 0, 77, 0
2, 50983, Note_on_c, 0, 82, 0
2, 50986, Note_on_c, 0, 65, 0
2, 51037, Note_on_c, 0, 81, 60
2, 51039, Note_on_c, 0, 69, 60
2, 51082, Note_on_c, 0, 80, 60
2, 51084, Note_on_c, 0, 83, 60
2, 51084, Note_on_c, 0, 71, 60
2, 51086, Note_on_c, 0, 69, 0
2, 51086, Note_on_c, 0, 77, 60
2, 51086, Note_on_c, 0, 38, 60
2, 51091, Note_on_c, 0, 50, 60
2, 51095, Note_on_c, 0, 81, 0
2, 51120, Note_on_c, 0, 77, 0
2, 51120, Note_on_c, 0, 71, 0
2, 51120, Note_on_c, 0, 80, 0
2, 51122, Note_on_c, 0, 50, 0
2, 51124, Note_on_c, 0, 38, 0
2, 51126, Note_on_c, 0, 83, 0
2, 51169, Note_on_c, 0, 82, 60
2, 51173, Note_on_c, 0, 70, 60
2, 51210, Note_on_c, 0, 70, 0
2, 51216, Note_on_c, 0, 80, 60
2, 51218, Note_on_c, 0, 82, 0
2, 51218, Note_on_c, 0, 59, 60
2, 51218, Note_on_c, 0, 68, 60
2, 51218, Note_on_c, 0, 56, 60
2, 51220, Note_on_c, 0, 62, 60
2, 51227, Note_on_c, 0, 53, 60
2, 51244, Note_on_c, 0, 68, 0
2, 51246, Note_on_c, 0, 59, 0
2, 51246, Note_on_c, 0, 56, 0
2, 51246, Note_on_c, 0, 62, 0
2, 51246, Note_on_c, 0, 53, 0
2, 51252, Note_on_c, 0, 80, 0
2, 51306, Note_on_c, 0, 77, 60
2, 51308, Note_on_c, 0, 65, 60
2, 51340, Control_c, 0, 64, 127
2, 51342, Note_on_c, 0, 75, 60
2, 51342, Note_on_c, 0, 51, 60
2, 51344, Note_on_c, 0, 67, 60
2, 51344, Note_on_c, 0, 39, 60
2, 51348, Note_on_c, 0, 79, 60
2, 51351, Note_on_c, 0, 77, 0
2, 51353, Note_on_c, 0, 65, 0
2, 51353, Note_on_c, 0, 72, 60
2, 51376, Note_on_c, 0, 72, 0
2, 51376, Note_on_c, 0, 79, 0
2, 51376, Note_on_c, 0, 67, 0
2, 51376, Note_on_c, 0, 75, 0
2, 51381, Note_on_c, 0, 51, 0
2, 51381, Note_on_c, 0, 39, 0
2, 51436, Note_on_c, 0, 77, 60
2, 51438, Note_on_c, 0, 72, 60
2, 51438, Note_on_c, 0, 65, 60
2, 51456, Control_c, 0, 64, 0
2, 51482, Note_on_c, 0, 63, 60
2, 51485, Note_on_c, 0, 56, 60
2, 51487, Note_on_c, 0, 60, 60
2, 51515, Note_on_c, 0, 77, 0
2, 51517, Note_on_c, 0, 65, 0
2, 51517, Note_on_c, 0, 63, 0
2, 51517, Note_on_c, 0, 72, 0
2, 51517, Note_on_c, 0, 60, 0
2, 51519, Note_on_c, 0, 56, 0
2, 51568, Note_on_c, 0, 75, 60
2, 51568, Note_on_c, 0, 69, 60
2, 51571, Note_on_c, 0, 63, 60
2, 51573, Note_on_c, 0, 72, 60
2, 51615, Note_on_c, 0, 57, 60
2, 51615, Note_on_c, 0, 48, 60
2, 51617, Note_on_c, 0, 41, 60
2, 51649, Note_on_c, 0, 41, 0
2, 51649, Note_on_c, 0, 48, 0
2, 51700, Note_on_c, 0, 63, 0
2, 51700, Note_on_c, 0, 57, 0
2, 51744, Note_on_c, 0, 57, 60
2, 51744, Note_on_c, 0, 60, 60
2, 51744, Note_on_c, 0, 63, 60
2, 51744, Note_on_c, 0, 53, 60
2, 51777, Note_on_c, 0, 53, 0
2, 51782, Note_on_c, 0, 72, 0
2, 51784, Note_on_c, 0, 60, 0
2, 51784, Note_on_c, 0, 63, 0
2, 51790, Note_on_c, 0, 75, 0
2, 51792, Note_on_c, 0, 69, 0
2, 51826, Note_on_c, 0, 77, 60
2, 51826, Note_on_c, 0, 68, 60
2, 51828, Note_on_c, 0, 74, 60
2, 51831, Note_on_c, 0, 80, 60
2, 51833, Note_on_c, 0, 41, 60
2, 51854, Note_on_c, 0, 57, 0
2, 51864, Control_c, 0, 64, 127
2, 51875, Note_on_c, 0, 56, 60
2, 51890, Note_on_c, 0, 41, 0
2, 51950, Note_on_c, 0, 56, 0
2, 51952, Control_c, 0, 64, 0
2, 52001, Note_on_c, 0, 56, 60
2, 52001, Note_on_c, 0, 62, 60
2, 52001, Note_on_c, 0, 53, 60
2, 52008, Note_on_c, 0, 58, 60
2, 52032, Note_on_c, 0, 80, 0
2, 52033, Note_on_c, 0, 58, 0
2, 52033, Note_on_c, 0, 74, 0
2, 52033, Note_on_c, 0, 68, 0
2, 52033, Note_on_c, 0, 62, 0
2, 52035, Note_on_c, 0, 53, 0
2, 52035, Note_on_c, 0, 56, 0
2, 52042, Note_on_c, 0, 77, 0
2, 52076, Note_on_c, 0, 80, 60
2, 52080, Note_on_c, 0, 74, 60
2, 52082, Note_on_c, 0, 77, 60
2, 52084, Note_on_c, 0, 68, 60
2, 52121, Note_on_c, 0, 74, 0
2, 52125, Note_on_c, 0, 79, 60
2, 52128, Note_on_c, 0, 80, 0
2, 52128, Note_on_c, 0, 77, 0
2, 52128, Note_on_c, 0, 73, 60
2, 52129, Note_on_c, 0, 68, 0
2, 52129, Note_on_c, 0, 51, 60
2, 52131, Note_on_c, 0, 67, 60
2, 52131, Note_on_c, 0, 39, 60
2, 52154, Note_on_c, 0, 67, 0
2, 52154, Note_on_c, 0, 73, 0
2, 52154, Note_on_c, 0, 79, 0
2, 52157, Note_on_c, 0, 51, 0
2, 52159, Note_on_c, 0, 39, 0
2, 52217, Note_on_c, 0, 80, 60
2, 52219, Note_on_c, 0, 68, 60
2, 52221, Note_on_c, 0, 53, 60
2, 52224, Note_on_c, 0, 41, 60
2, 52248, Note_on_c, 0, 41, 0
2, 52257, Note_on_c, 0, 53, 0
2, 52262, Note_on_c, 0, 82, 60
2, 52262, Note_on_c, 0, 70, 60
2, 52264, Note_on_c, 0, 55, 60
2, 52264, Note_on_c, 0, 43, 60
2, 52272, Note_on_c, 0, 68, 0
2, 52272, Note_on_c, 0, 80, 0
2, 52302, Note_on_c, 0, 43, 0
2, 52317, Note_on_c, 0, 70, 0
2, 52320, Note_on_c, 0, 55, 0
2, 52323, Note_on_c, 0, 82, 0
2, 52349, Note_on_c, 0, 80, 60
2, 52351, Note_on_c, 0, 75, 60
2, 52353, Note_on_c, 0, 68, 60
2, 52353, Note_on_c, 0, 72, 60
2, 52353, Note_on_c, 0, 56, 60
2, 52355, Note_on_c, 0, 51, 60
2, 52355, Note_on_c, 0, 44, 60
2, 52385, Control_c, 0, 64, 127
2, 52468, Note_on_c, 0, 72, 0
2, 52468, Note_on_c, 0, 68, 0
2, 52470, Note_on_c, 0, 56, 0
2, 52473, Note_on_c, 0, 51, 0
2, 52477, Note_on_c, 0, 80, 0
2, 52477, Note_on_c, 0, 75, 0
2, 52494, Control_c, 0, 64, 0
2, 52507, Note_on_c, 0, 44, 0
2, 52522, Note_on_c, 0, 81, 60
2, 52522, Note_on_c, 0, 69, 60
2, 52524, Note_on_c, 0, 60, 60
2, 52526, Note_on_c, 0, 48, 60
2, 52560, Note_on_c, 0, 48, 0
2, 52573, Note_on_c, 0, 81, 0
2, 52575, Note_on_c, 0, 69, 0
2, 52609, Note_on_c, 0, 82, 60
2, 52611, Note_on_c, 0, 60, 0
2, 52611, Note_on_c, 0, 70, 60
2, 52637, Note_on_c, 0, 70, 0
2, 52650, Note_on_c, 0, 71, 60
2, 52652, Note_on_c, 0, 82, 0
2, 52652, Note_on_c, 0, 83, 60
2, 52656, Note_on_c, 0, 59, 60
2, 52658, Note_on_c, 0, 47, 60
2, 52692, Note_on_c, 0, 47, 0
2, 52699, Note_on_c, 0, 59, 0
2, 52704, Note_on_c, 0, 83, 0
2, 52707, Note_on_c, 0, 71, 0
2, 52739, Note_on_c, 0, 84, 60
2, 52739, Note_on_c, 0, 72, 60
2, 52776, Note_on_c, 0, 72, 0
2, 52776, Note_on_c, 0, 84, 0
2, 52782, Note_on_c, 0, 87, 60
2, 52788, Note_on_c, 0, 56, 60
2, 52788, Note_on_c, 0, 59, 60
2, 52788, Note_on_c, 0, 53, 60
2, 52795, Note_on_c, 0, 75, 60
2, 52823, Note_on_c, 0, 53, 0
2, 52823, Note_on_c, 0, 56, 0
2, 52831, Note_on_c, 0, 59, 0
2, 52838, Note_on_c, 0, 75, 0
2, 52846, Note_on_c, 0, 87, 0
2, 52872, Note_on_c, 0, 86, 60
2, 52873, Note_on_c, 0, 74, 60
2, 52889, Control_c, 0, 64, 127
2, 52910, Note_on_c, 0, 74, 0
2, 52915, Note_on_c, 0, 82, 60
2, 52917, Note_on_c, 0, 85, 60
2, 52917, Note_on_c, 0, 79, 60
2, 52919, Note_on_c, 0, 73, 60
2, 52920, Note_on_c, 0, 58, 60
2, 52920, Note_on_c, 0, 46, 60
2, 52925, Note_on_c, 0, 86, 0
2, 52957, Note_on_c, 0, 46, 0
2, 52972, Note_on_c, 0, 58, 0
2, 53004, Control_c, 0, 64, 0
2, 53051, Note_on_c, 0, 55, 60
2, 53053, Note_on_c, 0, 58, 60
2, 53053, Note_on_c, 0, 61, 60
2, 53053, Note_on_c, 0, 51, 60
2, 53076, Note_on_c, 0, 51, 0
2, 53083, Note_on_c, 0, 61, 0
2, 53085, Note_on_c, 0, 55, 0
2, 53102, Note_on_c, 0, 58, 0
2, 53134, Note_on_c, 0, 82, 0
2, 53134, Note_on_c, 0, 79, 0
2, 53134, Note_on_c, 0, 85, 0
2, 53136, Note_on_c, 0, 73, 0
2, 53179, Note_on_c, 0, 81, 60
2, 53181, Note_on_c, 0, 69, 60
2, 53187, Note_on_c, 0, 39, 60
2, 53222, Note_on_c, 0, 39, 0
2, 53226, Note_on_c, 0, 69, 0
2, 53226, Note_on_c, 0, 81, 0
2, 53268, Note_on_c, 0, 79, 60
2, 53271, Note_on_c, 0, 84, 60
2, 53271, Note_on_c, 0, 72, 60
2, 53318, Note_on_c, 0, 61, 60
2, 53318, Note_on_c, 0, 55, 60
2, 53320, Note_on_c, 0, 58, 60
2, 53320, Note_on_c, 0, 51, 60
2, 53343, Note_on_c, 0, 55, 0
2, 53343, Note_on_c, 0, 61, 0
2, 53345, Note_on_c, 0, 51, 0
2, 53367, Note_on_c, 0, 72, 0
2, 53373, Note_on_c, 0, 79, 0
2, 53373, Note_on_c, 0, 84, 0
2, 53379, Note_on_c, 0, 58, 0
2, 53400, Note_on_c, 0, 82, 60
2, 53400, Note_on_c, 0, 79, 60
2, 53402, Note_on_c, 0, 70, 60
2, 53441, Note_on_c, 0, 55, 60
2, 53444, Control_c, 0, 64, 127
2, 53449, Note_on_c, 0, 43, 60
2, 53477, Note_on_c, 0, 43, 0
2, 53516, Note_on_c, 0, 70, 0
2, 53522, Note_on_c, 0, 82, 0
2, 53522, Note_on_c, 0, 79, 0
2, 53537, Note_on_c, 0, 55, 0
2, 53569, Control_c, 0, 64, 0
2, 53580, Note_on_c, 0, 76, 60
2, 53582, Note_on_c, 0, 73, 60
2, 53582, Note_on_c, 0, 64, 60
2, 53584, Note_on_c, 0, 49, 60
2, 53587, Note_on_c, 0, 61, 60
2, 53618, Note_on_c, 0, 49, 0
2, 53633, Note_on_c, 0, 73, 0
2, 53633, Note_on_c, 0, 76, 0
2, 53636, Note_on_c, 0, 64, 0
2, 53667, Note_on_c, 0, 77, 60
2, 53667, Note_on_c, 0, 73, 60
2, 53671, Note_on_c, 0, 65, 60
2, 53688, Note_on_c, 0, 73, 0
2, 53690, Note_on_c, 0, 61, 0
2, 53714, Note_on_c, 0, 78, 60
2, 53716, Note_on_c, 0, 65, 0
2, 53716, Note_on_c, 0, 66, 60
2, 53718, Note_on_c, 0, 60, 60
2, 53718, Note_on_c, 0, 73, 60
2, 53718, Note_on_c, 0, 48, 60
2, 53725, Note_on_c, 0, 77, 0
2, 53753, Note_on_c, 0, 48, 0
2, 53760, Note_on_c, 0, 73, 0
2, 53760, Note_on_c, 0, 66, 0
2, 53767, Note_on_c, 0, 78, 0
2, 53802, Note_on_c, 0, 79, 60
2, 53806, Note_on_c, 0, 67, 60
2, 53821, Note_on_c, 0, 60, 0
2, 53838, Note_on_c, 0, 67, 0
2, 53840, Note_on_c, 0, 58, 60
2, 53842, Note_on_c, 0, 46, 60
2, 53847, Note_on_c, 0, 79, 0
2, 53847, Note_on_c, 0, 84, 60
2, 53847, Note_on_c, 0, 72, 60
2, 53877, Note_on_c, 0, 46, 0
2, 53891, Note_on_c, 0, 72, 0
2, 53900, Note_on_c, 0, 84, 0
2, 53934, Note_on_c, 0, 79, 60
2, 53938, Note_on_c, 0, 67, 60
2, 53947, Note_on_c, 0, 58, 0
2, 53971, Note_on_c, 0, 79, 0
2, 53976, Note_on_c, 0, 82, 60
2, 53976, Control_c, 0, 64, 127
2, 53978, Note_on_c, 0, 70, 60
2, 53983, Note_on_c, 0, 44, 60
2, 53985, Note_on_c, 0, 56, 60
2, 53990, Note_on_c, 0, 67, 0
2, 54009, Note_on_c, 0, 44, 0
2, 54015, Note_on_c, 0, 70, 0
2, 54022, Note_on_c, 0, 82, 0
2, 54034, Note_on_c, 0, 56, 0
2, 54055, Note_on_c, 0, 80, 60
2, 54064, Note_on_c, 0, 72, 60
2, 54067, Note_on_c, 0, 75, 60
2, 54069, Note_on_c, 0, 68, 60
2, 54090, Control_c, 0, 64, 0
2, 54109, Note_on_c, 0, 56, 60
2, 54113, Note_on_c, 0, 51, 60
2, 54116, Note_on_c, 0, 60, 60
2, 54145, Note_on_c, 0, 60, 0
2, 54147, Note_on_c, 0, 51, 0
2, 54151, Note_on_c, 0, 72, 0
2, 54151, Note_on_c, 0, 75, 0
2, 54151, Note_on_c, 0, 80, 0
2, 54151, Note_on_c, 0, 68, 0
2, 54163, Note_on_c, 0, 56, 0
2, 54194, Note_on_c, 0, 77, 60
2, 54196, Note_on_c, 0, 75, 60
2, 54196, Note_on_c, 0, 65, 60
2, 54198, Note_on_c, 0, 72, 60
2, 54247, Note_on_c, 0, 39, 60
2, 54271, Note_on_c, 0, 39, 0
2, 54369, Note_on_c, 0, 56, 60
2, 54371, Note_on_c, 0, 60, 60
2, 54371, Note_on_c, 0, 51, 60
2, 54395, Note_on_c, 0, 60, 0
2, 54397, Note_on_c, 0, 56, 0
2, 54397, Note_on_c, 0, 51, 0
2, 54486, Control_c, 0, 64, 127
2, 54500, Note_on_c, 0, 48, 60
2, 54500, Note_on_c, 0, 36, 60
2, 54533, Note_on_c, 0, 72, 0
2, 54538, Note_on_c, 0, 36, 0
2, 54542, Note_on_c, 0, 65, 0
2, 54542, Note_on_c, 0, 77, 0
2, 54542, Note_on_c, 0, 75, 0
2, 54561, Note_on_c, 0, 48, 0
2, 54585, Note_on_c, 0, 72, 60
2, 54585, Note_on_c, 0, 75, 60
2, 54585, Note_on_c, 0, 63, 60
2, 54601, Control_c, 0, 64, 0
2, 54604, Note_on_c, 0, 72, 0
2, 54624, Note_on_c, 0, 63, 0
2, 54629, Note_on_c, 0, 64, 60
2, 54631, Note_on_c, 0, 60, 60
2, 54631, Note_on_c, 0, 72, 60
2, 54631, Note_on_c, 0, 76, 60
2, 54631, Note_on_c, 0, 56, 60
2, 54636, Note_on_c, 0, 51, 60
2, 54638, Note_on_c, 0, 75, 0
2, 54666, Note_on_c, 0, 72, 0
2, 54666, Note_on_c, 0, 64, 0
2, 54666, Note_on_c, 0, 60, 0
2, 54668, Note_on_c, 0, 51, 0
2, 54668, Note_on_c, 0, 56, 0
2, 54672, Note_on_c, 0, 76, 0
2, 54717, Note_on_c, 0, 77, 60
2, 54721, Note_on_c, 0, 65, 60
2, 54736, Note_on_c, 0, 77, 0
2, 54746, Note_on_c, 0, 47, 60
2, 54749, Note_on_c, 0, 35, 60
2, 54755, Note_on_c, 0, 65, 0
2, 54760, Note_on_c, 0, 77, 60
2, 54760, Note_on_c, 0, 82, 60
2, 54760, Note_on_c, 0, 74, 60
2, 54762, Note_on_c, 0, 70, 60
2, 54779, Note_on_c, 0, 70, 0
2, 54788, Note_on_c, 0, 82, 0
2, 54790, Note_on_c, 0, 77, 0
2, 54790, Note_on_c, 0, 74, 0
2, 54809, Note_on_c, 0, 47, 0
2, 54811, Note_on_c, 0, 35, 0
2, 54847, Note_on_c, 0, 77, 60
2, 54849, Note_on_c, 0, 68, 60
2, 54851, Note_on_c, 0, 80, 60
2, 54851, Note_on_c, 0, 74, 60
2, 54894, Note_on_c, 0, 62, 60
2, 54896, Note_on_c, 0, 53, 60
2, 54900, Note_on_c, 0, 59, 60
2, 54900, Note_on_c, 0, 56, 60
2, 54928, Note_on_c, 0, 80, 0
2, 54928, Note_on_c, 0, 77, 0
2, 54931, Note_on_c, 0, 62, 0
2, 54931, Note_on_c, 0, 68, 0
2, 54931, Note_on_c, 0, 74, 0
2, 54933, Note_on_c, 0, 59, 0
2, 54933, Note_on_c, 0, 56, 0
2, 54933, Note_on_c, 0, 53, 0
2, 54977, Note_on_c, 0, 77, 60
2, 54982, Note_on_c, 0, 65, 60
2, 54985, Note_on_c, 0, 34, 60
2, 55005, Control_c, 0, 64, 127
2, 55013, Note_on_c, 0, 77, 0
2, 55015, Note_on_c, 0, 65, 0
2, 55022, Note_on_c, 0, 79, 60
2, 55024, Note_on_c, 0, 73, 60
2, 55027, Note_on_c, 0, 67, 60
2, 55029, Note_on_c, 0, 46, 60
2, 55050, Note_on_c, 0, 67, 0
2, 55050, Note_on_c, 0, 73, 0
2, 55050, Note_on_c, 0, 79, 0
2, 55056, Note_on_c, 0, 34, 0
2, 55062, Note_on_c, 0, 46, 0
2, 55109, Note_on_c, 0, 73, 60
2, 55114, Note_on_c, 0, 61, 60
2, 55127, Control_c, 0, 64, 0
2, 55148, Note_on_c, 0, 55, 60
2, 55150, Note_on_c, 0, 58, 60
2, 55150, Note_on_c, 0, 51, 60
2, 55172, Note_on_c, 0, 61, 0
2, 55172, Note_on_c, 0, 73, 0
2, 55174, Note_on_c, 0, 58, 0
2, 55174, Note_on_c, 0, 55, 0
2, 55174, Note_on_c, 0, 51, 0
2, 55231, Note_on_c, 0, 70, 60
2, 55233, Note_on_c, 0, 73, 60
2, 55235, Note_on_c, 0, 67, 60
2, 55291, Note_on_c, 0, 39, 60
2, 55322, Note_on_c, 0, 39, 0
2, 55416, Note_on_c, 0, 58, 60
2, 55416, Note_on_c, 0, 55, 60
2, 55418, Note_on_c, 0, 51, 60
2, 55421, Note_on_c, 0, 61, 60
2, 55442, Note_on_c, 0, 51, 0
2, 55451, Note_on_c, 0, 58, 0
2, 55451, Note_on_c, 0, 55, 0
2, 55509, Note_on_c, 0, 61, 0
2, 55519, Note_on_c, 0, 67, 0
2, 55519, Note_on_c, 0, 73, 0
2, 55519, Note_on_c, 0, 70, 0
2, 55542, Note_on_c, 0, 76, 60
2, 55545, Note_on_c, 0, 64, 60
2, 55545, Note_on_c, 0, 73, 60
2, 55545, Note_on_c, 0, 55, 60
2, 55547, Note_on_c, 0, 43, 60
2, 55553, Control_c, 0, 64, 127
2, 55570, Note_on_c, 0, 64, 0
2, 55579, Note_on_c, 0, 76, 0
2, 55579, Note_on_c, 0, 73, 0
2, 55584, Note_on_c, 0, 43, 0
2, 55630, Note_on_c, 0, 77, 60
2, 55632, Note_on_c, 0, 73, 60
2, 55634, Note_on_c, 0, 65, 60
2, 55643, Note_on_c, 0, 55, 0
2, 55656, Control_c, 0, 64, 0
2, 55668, Note_on_c, 0, 55, 60
2, 55677, Note_on_c, 0, 61, 60
2, 55677, Note_on_c, 0, 58, 60
2, 55680, Note_on_c, 0, 51, 60
2, 55709, Note_on_c, 0, 61, 0
2, 55709, Note_on_c, 0, 77, 0
2, 55709, Note_on_c, 0, 65, 0
2, 55709, Note_on_c, 0, 73, 0
2, 55711, Note_on_c, 0, 55, 0
2, 55711, Note_on_c, 0, 51, 0
2, 55711, Note_on_c, 0, 58, 0
2, 55758, Note_on_c, 0, 79, 60
2, 55760, Note_on_c, 0, 73, 60
2, 55760, Note_on_c, 0, 67, 60
2, 55762, Note_on_c, 0, 75, 60
2, 55811, Note_on_c, 0, 39, 60
2, 55848, Note_on_c, 0, 39, 0
2, 55933, Note_on_c, 0, 61, 60
2, 55933, Note_on_c, 0, 55, 60
2, 55935, Note_on_c, 0, 51, 60
2, 55940, Note_on_c, 0, 58, 60
2, 55968, Note_on_c, 0, 61, 0
2, 55973, Note_on_c, 0, 67, 0
2, 55973, Note_on_c, 0, 79, 0
2, 55973, Note_on_c, 0, 75, 0
2, 55973, Note_on_c, 0, 73, 0
2, 55975, Note_on_c, 0, 58, 0
2, 55975, Note_on_c, 0, 55, 0
2, 55978, Note_on_c, 0, 51, 0
2, 56027, Note_on_c, 0, 77, 60
2, 56027, Note_on_c, 0, 65, 60
2, 56029, Note_on_c, 0, 56, 60
2, 56029, Note_on_c, 0, 72, 60
2, 56029, Note_on_c, 0, 44, 60
2, 56061, Control_c, 0, 64, 127
2, 56090, Note_on_c, 0, 44, 0
2, 56099, Note_on_c, 0, 56, 0
2, 56163, Note_on_c, 0, 51, 60
2, 56165, Note_on_c, 0, 39, 60
2, 56176, Control_c, 0, 64, 0
2, 56200, Note_on_c, 0, 51, 0
2, 56202, Note_on_c, 0, 39, 0
2, 56210, Note_on_c, 0, 53, 60
2, 56210, Note_on_c, 0, 41, 60
2, 56253, Note_on_c, 0, 41, 0
2, 56253, Note_on_c, 0, 53, 0
2, 56291, Note_on_c, 0, 55, 60
2, 56298, Note_on_c, 0, 43, 60
2, 56334, Note_on_c, 0, 43, 0
2, 56340, Note_on_c, 0, 55, 0
2, 56340, Note_on_c, 0, 56, 60
2, 56343, Note_on_c, 0, 44, 60
2, 56366, Note_on_c, 0, 56, 0
2, 56368, Note_on_c, 0, 44, 0
2, 56422, Note_on_c, 0, 58, 60
2, 56422, Note_on_c, 0, 46, 60
2, 56518, Note_on_c, 0, 46, 0
2, 56526, Note_on_c, 0, 58, 0
2, 56563, Note_on_c, 0, 59, 60
2, 56563, Note_on_c, 0, 47, 60
2, 56594, Note_on_c, 0, 59, 0
2, 56596, Note_on_c, 0, 47, 0
2, 56605, Note_on_c, 0, 48, 60
2, 56609, Note_on_c, 0, 60, 60
2, 56609, Control_c, 0, 64, 127
2, 56647, Note_on_c, 0, 48, 0
2, 56654, Note_on_c, 0, 60, 0
2, 56690, Note_on_c, 0, 59, 60
2, 56690, Note_on_c, 0, 47, 60
2, 56703, Control_c, 0, 64, 0
2, 56722, Note_on_c, 0, 59, 0
2, 56724, Note_on_c, 0, 47, 0
2, 56731, Note_on_c, 0, 60, 60
2, 56733, Note_on_c, 0, 48, 60
2, 56769, Note_on_c, 0, 48, 0
2, 56776, Note_on_c, 0, 72, 0
2, 56776, Note_on_c, 0, 60, 0
2, 56776, Note_on_c, 0, 65, 0
2, 56784, Note_on_c, 0, 77, 0
2, 56818, Note_on_c, 0, 63, 60
2, 56820, Note_on_c, 0, 51, 60
2, 56942, Note_on_c, 0, 75, 60
2, 56949, Note_on_c, 0, 87, 60
2, 56952, Note_on_c, 0, 51, 0
2, 56952, Note_on_c, 0, 63, 0
2, 56987, Note_on_c, 0, 75, 0
2, 56993, Note_on_c, 0, 87, 0
2, 56993, Note_on_c, 0, 86, 60
2, 56993, Note_on_c, 0, 74, 60
2, 56996, Note_on_c, 0, 62, 60
2, 56998, Note_on_c, 0, 50, 60
2, 57038, Note_on_c, 0, 50, 0
2, 57047, Note_on_c, 0, 74, 0
2, 57048, Note_on_c, 0, 62, 0
2, 57055, Note_on_c, 0, 86, 0
2, 57078, Note_on_c, 0, 87, 60
2, 57081, Note_on_c, 0, 75, 60
2, 57087, Note_on_c, 0, 61, 60
2, 57087, Note_on_c, 0, 49, 60
2, 57117, Note_on_c, 0, 82, 60
2, 57123, Note_on_c, 0, 85, 60
2, 57123, Control_c, 0, 64, 127
2, 57125, Note_on_c, 0, 87, 0
2, 57125, Note_on_c, 0, 79, 60
2, 57127, Note_on_c, 0, 75, 0
2, 57127, Note_on_c, 0, 73, 60
2, 57190, Note_on_c, 0, 49, 0
2, 57207, Note_on_c, 0, 61, 0
2, 57216, Note_on_c, 0, 55, 60
2, 57230, Control_c, 0, 64, 0
2, 57256, Note_on_c, 0, 58, 60
2, 57256, Note_on_c, 0, 51, 60
2, 57258, Note_on_c, 0, 61, 60
2, 57292, Note_on_c, 0, 61, 0
2, 57292, Note_on_c, 0, 51, 0
2, 57292, Note_on_c, 0, 55, 0
2, 57292, Note_on_c, 0, 58, 0
2, 57331, Note_on_c, 0, 79, 0
2, 57331, Note_on_c, 0, 82, 0
2, 57333, Note_on_c, 0, 73, 0
2, 57338, Note_on_c, 0, 85, 0
2, 57384, Note_on_c, 0, 81, 60
2, 57390, Note_on_c, 0, 39, 60
2, 57396, Note_on_c, 0, 69, 60
2, 57443, Note_on_c, 0, 69, 0
2, 57450, Note_on_c, 0, 81, 0
2, 57465, Note_on_c, 0, 39, 0
2, 57476, Note_on_c, 0, 84, 60
2, 57476, Note_on_c, 0, 79, 60
2, 57480, Note_on_c, 0, 72, 60
2, 57525, Note_on_c, 0, 55, 60
2, 57525, Note_on_c, 0, 51, 60
2, 57528, Note_on_c, 0, 61, 60
2, 57528, Note_on_c, 0, 58, 60
2, 57550, Note_on_c, 0, 55, 0
2, 57552, Note_on_c, 0, 51, 0
2, 57556, Note_on_c, 0, 84, 0
2, 57558, Note_on_c, 0, 61, 0
2, 57558, Note_on_c, 0, 58, 0
2, 57565, Note_on_c, 0, 79, 0
2, 57567, Note_on_c, 0, 72, 0
2, 57607, Note_on_c, 0, 82, 60
2, 57607, Note_on_c, 0, 79, 60
2, 57610, Note_on_c, 0, 70, 60
2, 57640, Control_c, 0, 64, 127
2, 57646, Note_on_c, 0, 55, 60
2, 57657, Note_on_c, 0, 43, 60
2, 57731, Note_on_c, 0, 43, 0
2, 57748, Note_on_c, 0, 55, 0
2, 57769, Control_c, 0, 64, 0
2, 57783, Note_on_c, 0, 58, 60
2, 57783, Note_on_c, 0, 46, 60
2, 57834, Note_on_c, 0, 46, 0
2, 57840, Note_on_c, 0, 58, 0
2, 57865, Note_on_c, 0, 55, 60
2, 57870, Note_on_c, 0, 43, 60
2, 57936, Note_on_c, 0, 43, 0
2, 57942, Note_on_c, 0, 55, 0
2, 57951, Note_on_c, 0, 82, 0
2, 57951, Note_on_c, 0, 79, 0
2, 57951, Note_on_c, 0, 70, 0
2, 57996, Note_on_c, 0, 73, 60
2, 57996, Note_on_c, 0, 79, 60
2, 57996, Note_on_c, 0, 67, 60
2, 57998, Note_on_c, 0, 51, 60
2, 57998, Note_on_c, 0, 39, 60
2, 58010, Note_on_c, 0, 73, 0
2, 58024, Note_on_c, 0, 51, 0
2, 58026, Note_on_c, 0, 39, 0
2, 58034, Note_on_c, 0, 78, 60
2, 58034, Note_on_c, 0, 41, 60
2, 58036, Note_on_c, 0, 67, 0
2, 58038, Note_on_c, 0, 73, 60
2, 58038, Note_on_c, 0, 66, 60
2, 58043, Note_on_c, 0, 53, 60
2, 58045, Note_on_c, 0, 79, 0
2, 58083, Note_on_c, 0, 41, 0
2, 58083, Note_on_c, 0, 53, 0
2, 58090, Note_on_c, 0, 73, 0
2, 58090, Note_on_c, 0, 78, 0
2, 58092, Note_on_c, 0, 66, 0
2, 58118, Note_on_c, 0, 55, 60
2, 58120, Note_on_c, 0, 79, 60
2, 58126, Note_on_c, 0, 73, 60
2, 58128, Note_on_c, 0, 67, 60
2, 58130, Note_on_c, 0, 43, 60
2, 58158, Note_on_c, 0, 43, 0
2, 58160, Note_on_c, 0, 77, 60
2, 58162, Note_on_c, 0, 73, 0
2, 58162, Note_on_c, 0, 72, 60
2, 58162, Note_on_c, 0, 65, 60
2, 58164, Note_on_c, 0, 55, 0
2, 58164, Note_on_c, 0, 44, 60
2, 58169, Note_on_c, 0, 79, 0
2, 58169, Note_on_c, 0, 56, 60
2, 58171, Note_on_c, 0, 67, 0
2, 58186, Control_c, 0, 64, 127
2, 58244, Note_on_c, 0, 44, 0
2, 58269, Note_on_c, 0, 56, 0
2, 58282, Control_c, 0, 64, 0
2, 58303, Note_on_c, 0, 56, 60
2, 58303, Note_on_c, 0, 44, 60
2, 58307, Note_on_c, 0, 60, 60
2, 58310, Note_on_c, 0, 51, 60
2, 58326, Note_on_c, 0, 60, 0
2, 58326, Note_on_c, 0, 72, 0
2, 58326, Note_on_c, 0, 56, 0
2, 58329, Note_on_c, 0, 44, 0
2, 58329, Note_on_c, 0, 51, 0
2, 58335, Note_on_c, 0, 77, 0
2, 58337, Note_on_c, 0, 65, 0
2, 58391, Note_on_c, 0, 64, 60
2, 58391, Note_on_c, 0, 66, 60
2, 58391, Note_on_c, 0, 70, 60
2, 58391, Note_on_c, 0, 54, 60
2, 58392, Note_on_c, 0, 49, 60
2, 58392, Note_on_c, 0, 42, 60
2, 58394, Note_on_c, 0, 58, 60
2, 58483, Note_on_c, 0, 42, 0
2, 58483, Note_on_c, 0, 49, 0
2, 58488, Note_on_c, 0, 66, 0
2, 58488, Note_on_c, 0, 64, 0
2, 58488, Note_on_c, 0, 58, 0
2, 58490, Note_on_c, 0, 54, 0
2, 58497, Note_on_c, 0, 70, 0
2, 58527, Note_on_c, 0, 72, 60
2, 58527, Note_on_c, 0, 60, 60
2, 58570, Note_on_c, 0, 54, 60
2, 58572, Note_on_c, 0, 42, 60
2, 58606, Note_on_c, 0, 72, 0
2, 58623, Note_on_c, 0, 60, 0
2, 58657, Note_on_c, 0, 63, 60
2, 58657, Note_on_c, 0, 65, 60
2, 58657, Note_on_c, 0, 57, 60
2, 58661, Note_on_c, 0, 69, 60
2, 58668, Note_on_c, 0, 54, 0
2, 58668, Note_on_c, 0, 42, 0
2, 58698, Control_c, 0, 64, 127
2, 58704, Note_on_c, 0, 48, 60
2, 58706, Note_on_c, 0, 41, 60
2, 58708, Note_on_c, 0, 53, 60
2, 58749, Note_on_c, 0, 48, 0
2, 58755, Note_on_c, 0, 63, 0
2, 58755, Note_on_c, 0, 57, 0
2, 58755, Note_on_c, 0, 53, 0
2, 58757, Note_on_c, 0, 41, 0
2, 58762, Note_on_c, 0, 69, 0
2, 58764, Note_on_c, 0, 65, 0
2, 58790, Note_on_c, 0, 77, 60
2, 58792, Note_on_c, 0, 65, 60
2, 58806, Control_c, 0, 64, 0
2, 58834, Note_on_c, 0, 76, 60
2, 58834, Note_on_c, 0, 64, 60
2, 58836, Note_on_c, 0, 65, 0
2, 58836, Note_on_c, 0, 77, 0
2, 58836, Note_on_c, 0, 54, 60
2, 58841, Note_on_c, 0, 58, 60
2, 58843, Note_on_c, 0, 61, 60
2, 58872, Note_on_c, 0, 61, 0
2, 58881, Note_on_c, 0, 64, 0
2, 58881, Note_on_c, 0, 58, 0
2, 58890, Note_on_c, 0, 54, 0
2, 58921, Note_on_c, 0, 77, 60
2, 58921, Note_on_c, 0, 72, 60
2, 58924, Note_on_c, 0, 76, 0
2, 58924, Note_on_c, 0, 65, 60
2, 58941, Note_on_c, 0, 72, 0
2, 58960, Note_on_c, 0, 55, 60
2, 58967, Note_on_c, 0, 72, 60
2, 58968, Note_on_c, 0, 69, 60
2, 58968, Note_on_c, 0, 75, 60
2, 58968, Note_on_c, 0, 63, 60
2, 58973, Note_on_c, 0, 48, 60
2, 58975, Note_on_c, 0, 77, 0
2, 58977, Note_on_c, 0, 65, 0
2, 59001, Note_on_c, 0, 72, 0
2, 59001, Note_on_c, 0, 75, 0
2, 59003, Note_on_c, 0, 69, 0
2, 59003, Note_on_c, 0, 63, 0
2, 59005, Note_on_c, 0, 48, 0
2, 59056, Note_on_c, 0, 82, 60
2, 59056, Note_on_c, 0, 70, 60
2, 59059, Note_on_c, 0, 55, 0
2, 59097, Note_on_c, 0, 81, 60
2, 59099, Note_on_c, 0, 82, 0
2, 59101, Note_on_c, 0, 70, 0
2, 59101, Note_on_c, 0, 60, 60
2, 59101, Note_on_c, 0, 69, 60
2, 59101, Note_on_c, 0, 57, 60
2, 59103, Note_on_c, 0, 63, 60
2, 59105, Note_on_c, 0, 53, 60
2, 59127, Note_on_c, 0, 63, 0
2, 59127, Note_on_c, 0, 60, 0
2, 59129, Note_on_c, 0, 53, 0
2, 59137, Note_on_c, 0, 57, 0
2, 59152, Note_on_c, 0, 69, 0
2, 59152, Note_on_c, 0, 81, 0
2, 59186, Note_on_c, 0, 82, 60
2, 59186, Note_on_c, 0, 77, 60
2, 59188, Note_on_c, 0, 70, 60
2, 59206, Note_on_c, 0, 77, 0
2, 59227, Control_c, 0, 64, 127
2, 59229, Note_on_c, 0, 80, 60
2, 59233, Note_on_c, 0, 70, 0
2, 59233, Note_on_c, 0, 82, 0
2, 59233, Note_on_c, 0, 77, 60
2, 59235, Note_on_c, 0, 68, 60
2, 59244, Note_on_c, 0, 49, 60
2, 59244, Note_on_c, 0, 37, 60
2, 59270, Note_on_c, 0, 37, 0
2, 59270, Note_on_c, 0, 49, 0
2, 59316, Note_on_c, 0, 80, 0
2, 59319, Note_on_c, 0, 68, 0
2, 59319, Note_on_c, 0, 77, 0
2, 59331, Control_c, 0, 64, 0
2, 59361, Note_on_c, 0, 79, 60
2, 59363, Note_on_c, 0, 67, 60
2, 59366, Note_on_c, 0, 58, 60
2, 59368, Note_on_c, 0, 61, 60
2, 59389, Note_on_c, 0, 61, 0
2, 59408, Note_on_c, 0, 58, 0
2, 59412, Note_on_c, 0, 67, 0
2, 59421, Note_on_c, 0, 79, 0
2, 59448, Note_on_c, 0, 77, 60
2, 59450, Note_on_c, 0, 65, 60
2, 59485, Note_on_c, 0, 77, 0
2, 59487, Note_on_c, 0, 65, 0
2, 59494, Note_on_c, 0, 70, 60
2, 59496, Note_on_c, 0, 82, 60
2, 59496, Note_on_c, 0, 50, 60
2, 59497, Note_on_c, 0, 38, 60
2, 59515, Note_on_c, 0, 38, 0
2, 59515, Note_on_c, 0, 50, 0
2, 59530, Note_on_c, 0, 82, 0
2, 59549, Note_on_c, 0, 70, 0
2, 59581, Note_on_c, 0, 80, 60
2, 59583, Note_on_c, 0, 68, 60
2, 59607, Note_on_c, 0, 80, 0
2, 59609, Note_on_c, 0, 68, 0
2, 59623, Note_on_c, 0, 79, 60
2, 59626, Note_on_c, 0, 67, 60
2, 59628, Note_on_c, 0, 62, 60
2, 59630, Note_on_c, 0, 56, 60
2, 59630, Note_on_c, 0, 53, 60
2, 59632, Note_on_c, 0, 59, 60
2, 59660, Note_on_c, 0, 62, 0
2, 59662, Note_on_c, 0, 53, 0
2, 59662, Note_on_c, 0, 56, 0
2, 59662, Note_on_c, 0, 59, 0
2, 59677, Note_on_c, 0, 67, 0
2, 59686, Note_on_c, 0, 79, 0
2, 59712, Note_on_c, 0, 77, 60
2, 59713, Note_on_c, 0, 65, 60
2, 59750, Note_on_c, 0, 65, 0
2, 59756, Note_on_c, 0, 72, 60
2, 59758, Note_on_c, 0, 77, 0
2, 59760, Note_on_c, 0, 68, 60
2, 59760, Note_on_c, 0, 75, 60
2, 59760, Note_on_c, 0, 80, 60
2, 59760, Note_on_c, 0, 60, 60
2, 59762, Note_on_c, 0, 51, 60
2, 59764, Control_c, 0, 64, 127
2, 59818, Note_on_c, 0, 60, 0
2, 59829, Note_on_c, 0, 51, 0
2, 59834, Note_on_c, 0, 75, 0
2, 59834, Note_on_c, 0, 80, 0
2, 59834, Note_on_c, 0, 72, 0
2, 59843, Note_on_c, 0, 68, 0
2, 59858, Control_c, 0, 64, 0
2, 59886, Note_on_c, 0, 79, 60
2, 59888, Note_on_c, 0, 75, 60
2, 59888, Note_on_c, 0, 72, 60
2, 59892, Note_on_c, 0, 67, 60
2, 59892, Note_on_c, 0, 49, 60
2, 59895, Note_on_c, 0, 58, 60
2, 59923, Note_on_c, 0, 67, 0
2, 59923, Note_on_c, 0, 75, 0
2, 59923, Note_on_c, 0, 79, 0
2, 59925, Note_on_c, 0, 72, 0
2, 59969, Note_on_c, 0, 49, 0
2, 59972, Note_on_c, 0, 77, 60
2, 59974, Note_on_c, 0, 72, 60
2, 59976, Note_on_c, 0, 58, 0
2, 59976, Note_on_c, 0, 65, 60
2, 59976, Note_on_c, 0, 75, 60
2, 60019, Note_on_c, 0, 57, 60
2, 60024, Note_on_c, 0, 48, 60
2, 60091, Note_on_c, 0, 48, 0
2, 60097, Note_on_c, 0, 57, 0
2, 60140, Note_on_c, 0, 57, 60
2, 60146, Note_on_c, 0, 63, 60
2, 60148, Note_on_c, 0, 60, 60
2, 60155, Note_on_c, 0, 53, 60
2, 60166, Note_on_c, 0, 60, 0
2, 60168, Note_on_c, 0, 53, 0
2, 60172, Note_on_c, 0, 77, 0
2, 60174, Note_on_c, 0, 65, 0
2, 60174, Note_on_c, 0, 75, 0
2, 60174, Note_on_c, 0, 57, 0
2, 60174, Note_on_c, 0, 63, 0
2, 60174, Note_on_c, 0, 72, 0
2, 60238, Note_on_c, 0, 61, 60
2, 60238, Note_on_c, 0, 49, 60
2, 60268, Note_on_c, 0, 82, 60
2, 60268, Note_on_c, 0, 74, 60
2, 60270, Note_on_c, 0, 61, 0
2, 60272, Note_on_c, 0, 49, 0
2, 60272, Note_on_c, 0, 50, 60
2, 60272, Note_on_c, 0, 62, 60
2, 60272, Note_on_c, 0, 70, 60
2, 60276, Note_on_c, 0, 77, 60
2, 60288, Control_c, 0, 64, 127
2, 60304, Note_on_c, 0, 82, 0
2, 60312, Note_on_c, 0, 70, 0
2, 60312, Note_on_c, 0, 74, 0
2, 60312, Note_on_c, 0, 77, 0
2, 60364, Note_on_c, 0, 77, 60
2, 60364, Note_on_c, 0, 80, 60
2, 60364, Note_on_c, 0, 74, 60
2, 60366, Note_on_c, 0, 68, 60
2, 60368, Note_on_c, 0, 50, 0
2, 60375, Note_on_c, 0, 62, 0
2, 60408, Note_on_c, 0, 62, 60
2, 60410, Note_on_c, 0, 58, 60
2, 60413, Note_on_c, 0, 53, 60
2, 60424, Control_c, 0, 64, 0
2, 60441, Note_on_c, 0, 80, 0
2, 60441, Note_on_c, 0, 77, 0
2, 60443, Note_on_c, 0, 68, 0
2, 60449, Note_on_c, 0, 74, 0
2, 60492, Note_on_c, 0, 73, 60
2, 60492, Note_on_c, 0, 77, 60
2, 60492, Note_on_c, 0, 65, 60
2, 60494, Note_on_c, 0, 58, 0
2, 60494, Note_on_c, 0, 62, 0
2, 60494, Note_on_c, 0, 53, 0
2, 60509, Note_on_c, 0, 73, 0
2, 60532, Note_on_c, 0, 73, 60
2, 60534, Note_on_c, 0, 77, 0
2, 60534, Note_on_c, 0, 63, 60
2, 60537, Note_on_c, 0, 65, 0
2, 60537, Note_on_c, 0, 75, 60
2, 60537, Note_on_c, 0, 55, 60
2, 60539, Note_on_c, 0, 58, 60
2, 60541, Note_on_c, 0, 61, 60
2, 60541, Note_on_c, 0, 51, 60
2, 60577, Note_on_c, 0, 61, 0
2, 60579, Note_on_c, 0, 55, 0
2, 60579, Note_on_c, 0, 63, 0
2, 60579, Note_on_c, 0, 51, 0
2, 60583, Note_on_c, 0, 75, 0
2, 60586, Note_on_c, 0, 58, 0
2, 60586, Note_on_c, 0, 73, 0
2, 60620, Note_on_c, 0, 76, 60
2, 60622, Note_on_c, 0, 64, 60
2, 60660, Note_on_c, 0, 77, 60
2, 60660, Note_on_c, 0, 73, 60
2, 60663, Note_on_c, 0, 64, 0
2, 60663, Note_on_c, 0, 76, 0
2, 60663, Note_on_c, 0, 65, 60
2, 60665, Note_on_c, 0, 51, 60
2, 60665, Note_on_c, 0, 43, 60
2, 60667, Note_on_c, 0, 46, 60
2, 60705, Note_on_c, 0, 65, 0
2, 60705, Note_on_c, 0, 73, 0
2, 60705, Note_on_c, 0, 77, 0
2, 60720, Note_on_c, 0, 43, 0
2, 60726, Note_on_c, 0, 46, 0
2, 60726, Note_on_c, 0, 51, 0
2, 60740, Note_on_c, 0, 75, 60
2, 60744, Note_on_c, 0, 67, 60
2, 60750, Note_on_c, 0, 79, 60
2, 60761, Note_on_c, 0, 75, 0
2, 60780, Note_on_c, 0, 67, 0
2, 60784, Note_on_c, 0, 80, 60
2, 60792, Note_on_c, 0, 68, 60
2, 60792, Note_on_c, 0, 78, 60
2, 60792, Control_c, 0, 64, 127
2, 60794, Note_on_c, 0, 79, 0
2, 60794, Note_on_c, 0, 75, 60
2, 60794, Note_on_c, 0, 72, 60
2, 60797, Note_on_c, 0, 56, 60
2, 60797, Note_on_c, 0, 51, 60
2, 60799, Note_on_c, 0, 44, 60
2, 60803, Note_on_c, 0, 48, 60
2, 60844, Note_on_c, 0, 48, 0
2, 60848, Note_on_c, 0, 72, 0
2, 60848, Note_on_c, 0, 75, 0
2, 60850, Note_on_c, 0, 56, 0
2, 60850, Note_on_c, 0, 44, 0
2, 60850, Note_on_c, 0, 51, 0
2, 60855, Note_on_c, 0, 78, 0
2, 60855, Note_on_c, 0, 80, 0
2, 60857, Note_on_c, 0, 68, 0
2, 60880, Note_on_c, 0, 80, 60
2, 60885, Note_on_c, 0, 54, 60
2, 60885, Note_on_c, 0, 42, 60
2, 60908, Control_c, 0, 64, 0
2, 60912, Note_on_c, 0, 42, 0
2, 60925, Note_on_c, 0, 85, 60
2, 60925, Note_on_c, 0, 79, 60
2, 60927, Note_on_c, 0, 80, 0
2, 60927, Note_on_c, 0, 73, 60
2, 60929, Note_on_c, 0, 54, 0
2, 60929, Note_on_c, 0, 47, 60
2, 60929, Note_on_c, 0, 52, 60
2, 60929, Note_on_c, 0, 44, 60
2, 60932, Note_on_c, 0, 40, 60
2, 60963, Note_on_c, 0, 44, 0
2, 60963, Note_on_c, 0, 47, 0
2, 60963, Note_on_c, 0, 52, 0
2, 60965, Note_on_c, 0, 40, 0
2, 60967, Note_on_c, 0, 85, 0
2, 60970, Note_on_c, 0, 79, 0
2, 60970, Note_on_c, 0, 73, 0
2, 61014, Note_on_c, 0, 85, 60
2, 61014, Note_on_c, 0, 79, 60
2, 61017, Note_on_c, 0, 82, 60
2, 61017, Note_on_c, 0, 73, 60
2, 61019, Note_on_c, 0, 44, 60
2, 61019, Note_on_c, 0, 47, 60
2, 61019, Note_on_c, 0, 52, 60
2, 61019, Note_on_c, 0, 40, 60
2, 61032, Note_on_c, 0, 82, 0
2, 61032, Note_on_c, 0, 85, 0
2, 61033, Note_on_c, 0, 73, 0
2, 61033, Note_on_c, 0, 79, 0
2, 61036, Note_on_c, 0, 44, 0
2, 61036, Note_on_c, 0, 52, 0
2, 61036, Note_on_c, 0, 47, 0
2, 61038, Note_on_c, 0, 40, 0
2, 61059, Note_on_c, 0, 82, 60
2, 61059, Note_on_c, 0, 85, 60
2, 61059, Note_on_c, 0, 79, 60
2, 61061, Note_on_c, 0, 73, 60
2, 61063, Note_on_c, 0, 47, 60
2, 61063, Note_on_c, 0, 44, 60
2, 61066, Note_on_c, 0, 52, 60
2, 61066, Note_on_c, 0, 40, 60
2, 61096, Note_on_c, 0, 79, 0
2, 61096, Note_on_c, 0, 85, 0
2, 61098, Note_on_c, 0, 73, 0
2, 61098, Note_on_c, 0, 82, 0
2, 61100, Note_on_c, 0, 47, 0
2, 61100, Note_on_c, 0, 52, 0
2, 61100, Note_on_c, 0, 44, 0
2, 61102, Note_on_c, 0, 40, 0
2, 61149, Note_on_c, 0, 85, 60
2, 61149, Note_on_c, 0, 79, 60
2, 61152, Note_on_c, 0, 82, 60
2, 61153, Note_on_c, 0, 47, 60
2, 61155, Note_on_c, 0, 44, 60
2, 61155, Note_on_c, 0, 73, 60
2, 61155, Note_on_c, 0, 40, 60
2, 61159, Note_on_c, 0, 52, 60
2, 61168, Note_on_c, 0, 82, 0
2, 61168, Note_on_c, 0, 85, 0
2, 61168, Note_on_c, 0, 79, 0
2, 61171, Note_on_c, 0, 44, 0
2, 61171, Note_on_c, 0, 73, 0
2, 61173, Note_on_c, 0, 52, 0
2, 61173, Note_on_c, 0, 47, 0
2, 61173, Note_on_c, 0, 40, 0
2, 61194, Note_on_c, 0, 79, 60
2, 61196, Note_on_c, 0, 82, 60
2, 61196, Note_on_c, 0, 85, 60
2, 61196, Note_on_c, 0, 73, 60
2, 61198, Note_on_c, 0, 47, 60
2, 61200, Note_on_c, 0, 44, 60
2, 61200, Note_on_c, 0, 52, 60
2, 61200, Note_on_c, 0, 40, 60
2, 61228, Note_on_c, 0, 85, 0
2, 61230, Note_on_c, 0, 73, 0
2, 61230, Note_on_c, 0, 79, 0
2, 61230, Note_on_c, 0, 82, 0
2, 61232, Note_on_c, 0, 47, 0
2, 61232, Note_on_c, 0, 52, 0
2, 61232, Note_on_c, 0, 44, 0
2, 61234, Note_on_c, 0, 40, 0
2, 61279, Note_on_c, 0, 85, 60
2, 61281, Note_on_c, 0, 82, 60
2, 61281, Note_on_c, 0, 79, 60
2, 61283, Note_on_c, 0, 73, 60
2, 61286, Note_on_c, 0, 47, 60
2, 61286, Note_on_c, 0, 52, 60
2, 61286, Note_on_c, 0, 44, 60
2, 61288, Note_on_c, 0, 40, 60
2, 61298, Note_on_c, 0, 82, 0
2, 61318, Note_on_c, 0, 79, 0
2, 61318, Note_on_c, 0, 74, 60
2, 61320, Note_on_c, 0, 73, 0
2, 61320, Note_on_c, 0, 80, 60
2, 61321, Note_on_c, 0, 44, 0
2, 61321, Note_on_c, 0, 47, 0
2, 61321, Note_on_c, 0, 52, 0
2, 61321, Note_on_c, 0, 86, 60
2, 61321, Note_on_c, 0, 41, 60
2, 61324, Note_on_c, 0, 40, 0
2, 61324, Note_on_c, 0, 53, 60
2, 61324, Note_on_c, 0, 82, 60
2, 61335, Note_on_c, 0, 85, 0
2, 61351, Control_c, 0, 64, 127
2, 61368, Note_on_c, 0, 80, 0
2, 61377, Note_on_c, 0, 74, 0
2, 61377, Note_on_c, 0, 86, 0
2, 61377, Note_on_c, 0, 82, 0
2, 61382, Note_on_c, 0, 53, 0
2, 61382, Note_on_c, 0, 41, 0
2, 61405, Note_on_c, 0, 80, 60
2, 61414, Note_on_c, 0, 84, 60
2, 61417, Note_on_c, 0, 72, 60
2, 61441, Control_c, 0, 64, 0
2, 61452, Note_on_c, 0, 72, 0
2, 61452, Note_on_c, 0, 70, 60
2, 61454, Note_on_c, 0, 56, 60
2, 61459, Note_on_c, 0, 84, 0
2, 61459, Note_on_c, 0, 82, 60
2, 61459, Note_on_c, 0, 58, 60
2, 61461, Note_on_c, 0, 65, 60
2, 61463, Note_on_c, 0, 62, 60
2, 61486, Note_on_c, 0, 65, 0
2, 61486, Note_on_c, 0, 70, 0
2, 61488, Note_on_c, 0, 58, 0
2, 61488, Note_on_c, 0, 56, 0
2, 61494, Note_on_c, 0, 82, 0
2, 61494, Note_on_c, 0, 80, 0
2, 61497, Note_on_c, 0, 62, 0
2, 61548, Note_on_c, 0, 84, 60
2, 61550, Note_on_c, 0, 80, 60
2, 61550, Note_on_c, 0, 72, 60
2, 61597, Note_on_c, 0, 34, 60
2, 61642, Note_on_c, 0, 34, 0
2, 61728, Note_on_c, 0, 56, 60
2, 61729, Note_on_c, 0, 65, 60
2, 61729, Note_on_c, 0, 62, 60
2, 61731, Note_on_c, 0, 58, 60
2, 61759, Note_on_c, 0, 65, 0
2, 61761, Note_on_c, 0, 62, 0
2, 61761, Note_on_c, 0, 56, 0
2, 61761, Note_on_c, 0, 58, 0
2, 61801, Note_on_c, 0, 72, 0
2, 61812, Note_on_c, 0, 80, 0
2, 61812, Note_on_c, 0, 84, 0
2, 61815, Note_on_c, 0, 45, 60
2, 61843, Note_on_c, 0, 45, 0
2, 61853, Note_on_c, 0, 82, 60
2, 61853, Control_c, 0, 64, 127
2, 61857, Note_on_c, 0, 50, 60
2, 61859, Note_on_c, 0, 86, 60
2, 61859, Note_on_c, 0, 74, 60
2, 61862, Note_on_c, 0, 41, 60
2, 61881, Note_on_c, 0, 74, 0
2, 61881, Note_on_c, 0, 82, 0
2, 61883, Note_on_c, 0, 41, 0
2, 61894, Note_on_c, 0, 50, 0
2, 61897, Note_on_c, 0, 86, 0
2, 61941, Note_on_c, 0, 82, 60
2, 61941, Note_on_c, 0, 75, 60
2, 61943, Note_on_c, 0, 87, 60
2, 61974, Note_on_c, 0, 80, 60
2, 61974, Control_c, 0, 64, 0
2, 61977, Note_on_c, 0, 58, 60
2, 61979, Note_on_c, 0, 56, 60
2, 61983, Note_on_c, 0, 87, 0
2, 61983, Note_on_c, 0, 84, 60
2, 61985, Note_on_c, 0, 82, 0
2, 61985, Note_on_c, 0, 75, 0
2, 61985, Note_on_c, 0, 65, 60
2, 61985, Note_on_c, 0, 72, 60
2, 61985, Note_on_c, 0, 62, 60
2, 62017, Note_on_c, 0, 80, 0
2, 62017, Note_on_c, 0, 84, 0
2, 62021, Note_on_c, 0, 72, 0
2, 62021, Note_on_c, 0, 58, 0
2, 62021, Note_on_c, 0, 56, 0
2, 62021, Note_on_c, 0, 62, 0
2, 62021, Note_on_c, 0, 65, 0
2, 62070, Note_on_c, 0, 74, 60
2, 62073, Note_on_c, 0, 86, 60
2, 62073, Note_on_c, 0, 80, 60
2, 62092, Note_on_c, 0, 80, 0
2, 62115, Note_on_c, 0, 82, 60
2, 62115, Note_on_c, 0, 80, 60
2, 62117, Note_on_c, 0, 70, 60
2, 62122, Note_on_c, 0, 34, 60
2, 62126, Note_on_c, 0, 86, 0
2, 62126, Note_on_c, 0, 74, 0
2, 62158, Note_on_c, 0, 34, 0
2, 62160, Note_on_c, 0, 80, 0
2, 62160, Note_on_c, 0, 70, 0
2, 62160, Note_on_c, 0, 82, 0
2, 62203, Note_on_c, 0, 80, 60
2, 62203, Note_on_c, 0, 83, 60
2, 62203, Note_on_c, 0, 71, 60
2, 62222, Note_on_c, 0, 80, 0
2, 62239, Note_on_c, 0, 71, 0
2, 62243, Note_on_c, 0, 84, 60
2, 62243, Note_on_c, 0, 80, 60
2, 62250, Note_on_c, 0, 65, 60
2, 62250, Note_on_c, 0, 72, 60
2, 62250, Note_on_c, 0, 62, 60
2, 62252, Note_on_c, 0, 58, 60
2, 62254, Note_on_c, 0, 56, 60
2, 62256, Note_on_c, 0, 83, 0
2, 62281, Note_on_c, 0, 80, 0
2, 62284, Note_on_c, 0, 58, 0
2, 62284, Note_on_c, 0, 56, 0
2, 62284, Note_on_c, 0, 65, 0
2, 62284, Note_on_c, 0, 72, 0
2, 62284, Note_on_c, 0, 62, 0
2, 62290, Note_on_c, 0, 84, 0
2, 62335, Note_on_c, 0, 79, 60
2, 62335, Note_on_c, 0, 82, 60
2, 62335, Note_on_c, 0, 85, 60
2, 62335, Note_on_c, 0, 73, 60
2, 62352, Note_on_c, 0, 82, 0
2, 62352, Note_on_c, 0, 79, 0
2, 62372, Note_on_c, 0, 73, 0
2, 62377, Note_on_c, 0, 79, 60
2, 62377, Note_on_c, 0, 82, 60
2, 62377, Note_on_c, 0, 74, 60
2, 62382, Note_on_c, 0, 86, 60
2, 62382, Note_on_c, 0, 51, 60
2, 62384, Note_on_c, 0, 39, 60
2, 62386, Note_on_c, 0, 85, 0
2, 62395, Control_c, 0, 64, 127
2, 62414, Note_on_c, 0, 74, 0
2, 62423, Note_on_c, 0, 79, 0
2, 62423, Note_on_c, 0, 86, 0
2, 62423, Note_on_c, 0, 82, 0
2, 62426, Note_on_c, 0, 39, 0
2, 62426, Note_on_c, 0, 51, 0
2, 62468, Note_on_c, 0, 84, 60
2, 62468, Note_on_c, 0, 79, 60
2, 62470, Note_on_c, 0, 72, 60
2, 62473, Control_c, 0, 64, 0
2, 62484, Note_on_c, 0, 79, 0
2, 62493, Note_on_c, 0, 84, 0
2, 62496, Note_on_c, 0, 72, 0
2, 62508, Note_on_c, 0, 79, 60
2, 62510, Note_on_c, 0, 82, 60
2, 62510, Note_on_c, 0, 63, 60
2, 62512, Note_on_c, 0, 70, 60
2, 62512, Note_on_c, 0, 67, 60
2, 62515, Note_on_c, 0, 58, 60
2, 62527, Note_on_c, 0, 70, 0
2, 62536, Note_on_c, 0, 67, 0
2, 62538, Note_on_c, 0, 63, 0
2, 62538, Note_on_c, 0, 58, 0
2, 62546, Note_on_c, 0, 79, 0
2, 62546, Note_on_c, 0, 82, 0
2, 62595, Note_on_c, 0, 82, 60
2, 62595, Note_on_c, 0, 84, 60
2, 62595, Note_on_c, 0, 79, 60
2, 62599, Note_on_c, 0, 72, 60
2, 62646, Note_on_c, 0, 46, 60
2, 62649, Note_on_c, 0, 58, 60
2, 62721, Note_on_c, 0, 62, 60
2, 62723, Note_on_c, 0, 50, 60
2, 62730, Note_on_c, 0, 58, 0
2, 62732, Note_on_c, 0, 46, 0
2, 62817, Note_on_c, 0, 50, 0
2, 62841, Note_on_c, 0, 62, 0
2, 62856, Note_on_c, 0, 63, 60
2, 62862, Note_on_c, 0, 51, 60
2, 62883, Note_on_c, 0, 63, 0
2, 62885, Note_on_c, 0, 51, 0
2, 62901, Note_on_c, 0, 66, 60
2, 62901, Note_on_c, 0, 54, 60
2, 62924, Note_on_c, 0, 66, 0
2, 62924, Note_on_c, 0, 72, 0
2, 62924, Note_on_c, 0, 82, 0
2, 62926, Note_on_c, 0, 54, 0
2, 62934, Note_on_c, 0, 84, 0
2, 62934, Note_on_c, 0, 79, 0
2, 62983, Note_on_c, 0, 87, 60
2, 62983, Note_on_c, 0, 79, 60
2, 62986, Note_on_c, 0, 82, 60
2, 62986, Note_on_c, 0, 75, 60
2, 62990, Note_on_c, 0, 55, 60
2, 62992, Note_on_c, 0, 67, 60
2, 63065, Note_on_c, 0, 67, 0
2, 63067, Note_on_c, 0, 55, 0
2, 63072, Note_on_c, 0, 82, 0
2, 63072, Note_on_c, 0, 87, 0
2, 63072, Note_on_c, 0, 79, 0
2, 63072, Note_on_c, 0, 75, 0
2, 63112, Note_on_c, 0, 79, 60
2, 63116, Note_on_c, 0, 82, 60
2, 63118, Note_on_c, 0, 72, 60
2, 63118, Note_on_c, 0, 63, 60
2, 63120, Note_on_c, 0, 84, 60
2, 63120, Note_on_c, 0, 51, 60
2, 63133, Note_on_c, 0, 79, 0
2, 63144, Note_on_c, 0, 63, 0
2, 63144, Note_on_c, 0, 72, 0
2, 63145, Note_on_c, 0, 51, 0
2, 63152, Note_on_c, 0, 74, 60
2, 63152, Note_on_c, 0, 50, 60
2, 63156, Note_on_c, 0, 62, 60
2, 63159, Note_on_c, 0, 79, 60
2, 63161, Note_on_c, 0, 84, 0
2, 63161, Note_on_c, 0, 86, 60
2, 63192, Note_on_c, 0, 79, 0
2, 63201, Note_on_c, 0, 74, 0
2, 63201, Note_on_c, 0, 82, 0
2, 63201, Note_on_c, 0, 86, 0
2, 63236, Note_on_c, 0, 75, 60
2, 63244, Note_on_c, 0, 87, 60
2, 63248, Note_on_c, 0, 50, 0
2, 63248, Note_on_c, 0, 62, 0
2, 63280, Note_on_c, 0, 74, 60
2, 63283, Note_on_c, 0, 75, 0
2, 63287, Note_on_c, 0, 86, 60
2, 63287, Note_on_c, 0, 79, 60
2, 63288, Note_on_c, 0, 87, 0
2, 63288, Note_on_c, 0, 82, 60
2, 63290, Note_on_c, 0, 60, 60
2, 63290, Note_on_c, 0, 48, 60
2, 63323, Note_on_c, 0, 82, 0
2, 63323, Note_on_c, 0, 74, 0
2, 63323, Note_on_c, 0, 79, 0
2, 63323, Note_on_c, 0, 86, 0
2, 63379, Note_on_c, 0, 84, 60
2, 63379, Note_on_c, 0, 72, 60
2, 63391, Note_on_c, 0, 48, 0
2, 63391, Note_on_c, 0, 60, 0
2, 63417, Note_on_c, 0, 72, 0
2, 63423, Note_on_c, 0, 84, 0
2, 63423, Note_on_c, 0, 74, 60
2, 63423, Note_on_c, 0, 80, 60
2, 63423, Note_on_c, 0, 86, 60
2, 63423, Control_c, 0, 64, 127
2, 63430, Note_on_c, 0, 41, 60
2, 63433, Note_on_c, 0, 53, 60
2, 63468, Note_on_c, 0, 86, 0
2, 63468, Note_on_c, 0, 74, 0
2, 63468, Note_on_c, 0, 80, 0
2, 63475, Note_on_c, 0, 41, 0
2, 63475, Note_on_c, 0, 53, 0
2, 63513, Note_on_c, 0, 84, 60
2, 63513, Note_on_c, 0, 80, 60
2, 63515, Note_on_c, 0, 72, 60
2, 63529, Note_on_c, 0, 80, 0
2, 63529, Control_c, 0, 64, 0
2, 63549, Note_on_c, 0, 72, 0
2, 63555, Note_on_c, 0, 80, 60
2, 63555, Note_on_c, 0, 74, 60
2, 63557, Note_on_c, 0, 65, 60
2, 63557, Note_on_c, 0, 68, 60
2, 63557, Note_on_c, 0, 62, 60
2, 63559, Note_on_c, 0, 58, 60
2, 63562, Note_on_c, 0, 56, 60
2, 63564, Note_on_c, 0, 84, 0
2, 63585, Note_on_c, 0, 56, 0
2, 63585, Note_on_c, 0, 62, 0
2, 63585, Note_on_c, 0, 65, 0
2, 63585, Note_on_c, 0, 58, 0
2, 63600, Note_on_c, 0, 80, 0
2, 63600, Note_on_c, 0, 68, 0
2, 63600, Note_on_c, 0, 74, 0
2, 63641, Note_on_c, 0, 79, 60
2, 63648, Note_on_c, 0, 67, 60
2, 63683, Note_on_c, 0, 67, 0
2, 63690, Note_on_c, 0, 77, 60
2, 63690, Note_on_c, 0, 74, 60
2, 63694, Note_on_c, 0, 65, 60
2, 63696, Note_on_c, 0, 56, 60
2, 63698, Note_on_c, 0, 34, 60
2, 63702, Note_on_c, 0, 79, 0
2, 63724, Note_on_c, 0, 34, 0
2, 63730, Note_on_c, 0, 56, 0
2, 63745, Note_on_c, 0, 77, 0
2, 63745, Note_on_c, 0, 74, 0
2, 63745, Note_on_c, 0, 65, 0
2, 63782, Note_on_c, 0, 82, 60
2, 63784, Note_on_c, 0, 70, 60
2, 63824, Note_on_c, 0, 87, 60
2, 63826, Note_on_c, 0, 80, 60
2, 63828, Note_on_c, 0, 70, 0
2, 63828, Note_on_c, 0, 82, 0
2, 63828, Note_on_c, 0, 65, 60
2, 63828, Note_on_c, 0, 75, 60
2, 63828, Note_on_c, 0, 62, 60
2, 63833, Note_on_c, 0, 56, 60
2, 63837, Note_on_c, 0, 58, 60
2, 63852, Note_on_c, 0, 75, 0
2, 63852, Note_on_c, 0, 80, 0
2, 63854, Note_on_c, 0, 65, 0
2, 63854, Note_on_c, 0, 62, 0
2, 63854, Note_on_c, 0, 56, 0
2, 63854, Note_on_c, 0, 58, 0
2, 63869, Note_on_c, 0, 87, 0
2, 63916, Note_on_c, 0, 84, 60
2, 63916, Note_on_c, 0, 72, 60
2, 63948, Note_on_c, 0, 74, 60
2, 63948, Note_on_c, 0, 80, 60
2, 63948, Control_c, 0, 64, 127
2, 63950, Note_on_c, 0, 72, 0
2, 63952, Note_on_c, 0, 50, 60
2, 63952, Note_on_c, 0, 41, 60
2, 63957, Note_on_c, 0, 84, 0
2, 63957, Note_on_c, 0, 86, 60
2, 63982, Note_on_c, 0, 86, 0
2, 63982, Note_on_c, 0, 80, 0
2, 63984, Note_on_c, 0, 74, 0
2, 63986, Note_on_c, 0, 41, 0
2, 64006, Note_on_c, 0, 50, 0
2, 64018, Control_c, 0, 64, 0
2, 64044, Note_on_c, 0, 82, 60
2, 64046, Note_on_c, 0, 70, 60
2, 64082, Note_on_c, 0, 70, 0
2, 64089, Note_on_c, 0, 71, 60
2, 64091, Note_on_c, 0, 80, 60
2, 64091, Note_on_c, 0, 65, 60
2, 64093, Note_on_c, 0, 62, 60
2, 64093, Note_on_c, 0, 83, 60
2, 64093, Note_on_c, 0, 58, 60
2, 64100, Note_on_c, 0, 82, 0
2, 64100, Note_on_c, 0, 56, 60
2, 64125, Note_on_c, 0, 71, 0
2, 64125, Note_on_c, 0, 83, 0
2, 64125, Note_on_c, 0, 80, 0
2, 64128, Note_on_c, 0, 62, 0
2, 64128, Note_on_c, 0, 65, 0
2, 64128, Note_on_c, 0, 56, 0
2, 64128, Note_on_c, 0, 58, 0
2, 64178, Note_on_c, 0, 84, 60
2, 64180, Note_on_c, 0, 80, 60
2, 64180, Note_on_c, 0, 74, 60
2, 64182, Note_on_c, 0, 72, 60
2, 64225, Note_on_c, 0, 58, 60
2, 64225, Note_on_c, 0, 46, 60
2, 64259, Note_on_c, 0, 46, 0
2, 64317, Note_on_c, 0, 58, 0
2, 64351, Note_on_c, 0, 65, 60
2, 64353, Note_on_c, 0, 62, 60
2, 64355, Note_on_c, 0, 56, 60
2, 64360, Note_on_c, 0, 58, 60
2, 64385, Note_on_c, 0, 58, 0
2, 64385, Note_on_c, 0, 62, 0
2, 64385, Note_on_c, 0, 65, 0
2, 64445, Note_on_c, 0, 84, 0
2, 64445, Note_on_c, 0, 80, 0
2, 64447, Note_on_c, 0, 72, 0
2, 64449, Note_on_c, 0, 56, 0
2, 64456, Note_on_c, 0, 74, 0
2, 64468, Note_on_c, 0, 82, 60
2, 64470, Note_on_c, 0, 87, 60
2, 64470, Note_on_c, 0, 79, 60
2, 64473, Note_on_c, 0, 63, 60
2, 64475, Note_on_c, 0, 75, 60
2, 64475, Note_on_c, 0, 55, 60
2, 64477, Note_on_c, 0, 51, 60
2, 64479, Control_c, 0, 64, 127
2, 64541, Note_on_c, 0, 51, 0
2, 64545, Note_on_c, 0, 87, 0
2, 64547, Note_on_c, 0, 75, 0
2, 64547, Note_on_c, 0, 82, 0
2, 64547, Note_on_c, 0, 79, 0
2, 64550, Note_on_c, 0, 63, 0
2, 64550, Note_on_c, 0, 55, 0
2, 64592, Control_c, 0, 64, 0
2, 64704, Note_on_c, 0, 66, 60
2, 64704, Note_on_c, 0, 57, 60
2, 64742, Note_on_c, 0, 57, 0
2, 64742, Note_on_c, 0, 66, 0
2, 64752, Note_on_c, 0, 67, 60
2, 64752, Note_on_c, 0, 58, 60
2, 64810, Note_on_c, 0, 58, 0
2, 64810, Note_on_c, 0, 67, 0
2, 64835, Note_on_c, 0, 66, 60
2, 64838, Note_on_c, 0, 57, 60
2, 64880, Note_on_c, 0, 57, 0
2, 64880, Note_on_c, 0, 66, 0
2, 64884, Note_on_c, 0, 67, 60
2, 64884, Note_on_c, 0, 58, 60
2, 64992, Note_on_c, 0, 67, 0
2, 64993, Note_on_c, 0, 58, 0
2, 65008, Note_on_c, 0, 69, 60
2, 65011, Note_on_c, 0, 63, 60
2, 65016, Control_c, 0, 64, 127
2, 65018, Note_on_c, 0, 60, 60
2, 65049, Note_on_c, 0, 63, 0
2, 65055, Note_on_c, 0, 69, 0
2, 65057, Note_on_c, 0, 60, 0
2, 65098, Note_on_c, 0, 63, 60
2, 65098, Note_on_c, 0, 70, 60
2, 65098, Control_c, 0, 64, 0
2, 65102, Note_on_c, 0, 61, 60
2, 65181, Note_on_c, 0, 70, 0
2, 65184, Note_on_c, 0, 61, 0
2, 65194, Note_on_c, 0, 63, 0
2, 65232, Note_on_c, 0, 57, 60
2, 65275, Note_on_c, 0, 67, 60
2, 65275, Note_on_c, 0, 58, 60
2, 65283, Note_on_c, 0, 57, 0
2, 65326, Note_on_c, 0, 58, 0
2, 65343, Note_on_c, 0, 67, 0
2, 65364, Note_on_c, 0, 57, 60
2, 65397, Note_on_c, 0, 57, 0
2, 65407, Note_on_c, 0, 67, 60
2, 65407, Note_on_c, 0, 58, 60
2, 65491, Note_on_c, 0, 67, 0
2, 65493, Note_on_c, 0, 58, 0
2, 65531, Note_on_c, 0, 74, 60
2, 65531, Note_on_c, 0, 80, 60
2, 65531, Control_c, 0, 64, 127
2, 65533, Note_on_c, 0, 86, 60
2, 65537, Note_on_c, 0, 41, 60
2, 65542, Note_on_c, 0, 53, 60
2, 65571, Note_on_c, 0, 41, 0
2, 65575, Note_on_c, 0, 80, 0
2, 65591, Note_on_c, 0, 74, 0
2, 65594, Note_on_c, 0, 53, 0
2, 65599, Note_on_c, 0, 86, 0
2, 65614, Note_on_c, 0, 84, 60
2, 65614, Note_on_c, 0, 80, 60
2, 65616, Note_on_c, 0, 72, 60
2, 65636, Note_on_c, 0, 80, 0
2, 65636, Control_c, 0, 64, 0
2, 65652, Note_on_c, 0, 72, 0
2, 65659, Note_on_c, 0, 84, 0
2, 65659, Note_on_c, 0, 80, 60
2, 65661, Note_on_c, 0, 82, 60
2, 65661, Note_on_c, 0, 65, 60
2, 65664, Note_on_c, 0, 70, 60
2, 65664, Note_on_c, 0, 58, 60
2, 65665, Note_on_c, 0, 62, 60
2, 65665, Note_on_c, 0, 56, 60
2, 65687, Note_on_c, 0, 70, 0
2, 65687, Note_on_c, 0, 82, 0
2, 65688, Note_on_c, 0, 65, 0
2, 65688, Note_on_c, 0, 58, 0
2, 65688, Note_on_c, 0, 56, 0
2, 65695, Note_on_c, 0, 80, 0
2, 65697, Note_on_c, 0, 62, 0
2, 65746, Note_on_c, 0, 83, 60
2, 65748, Note_on_c, 0, 71, 60
2, 65776, Note_on_c, 0, 71, 0
2, 65789, Note_on_c, 0, 84, 60
2, 65791, Note_on_c, 0, 83, 0
2, 65791, Note_on_c, 0, 80, 60
2, 65791, Note_on_c, 0, 74, 60
2, 65793, Note_on_c, 0, 72, 60
2, 65800, Note_on_c, 0, 34, 60
2, 65825, Note_on_c, 0, 34, 0
2, 65919, Note_on_c, 0, 65, 60
2, 65921, Note_on_c, 0, 62, 60
2, 65924, Note_on_c, 0, 58, 60
2, 65929, Note_on_c, 0, 56, 60
2, 65955, Note_on_c, 0, 62, 0
2, 65955, Note_on_c, 0, 65, 0
2, 65957, Note_on_c, 0, 56, 0
2, 65957, Note_on_c, 0, 58, 0
2, 66006, Note_on_c, 0, 74, 0
2, 66006, Note_on_c, 0, 80, 0
2, 66009, Note_on_c, 0, 72, 0
2, 66013, Note_on_c, 0, 41, 60
2, 66015, Note_on_c, 0, 84, 0
2, 66049, Note_on_c, 0, 86, 60
2, 66049, Note_on_c, 0, 82, 60
2, 66051, Note_on_c, 0, 74, 60
2, 66055, Note_on_c, 0, 56, 60
2, 66058, Control_c, 0, 64, 127
2, 66083, Note_on_c, 0, 41, 0
2, 66086, Note_on_c, 0, 82, 0
2, 66088, Note_on_c, 0, 74, 0
2, 66094, Note_on_c, 0, 86, 0
2, 66135, Note_on_c, 0, 56, 0
2, 66141, Note_on_c, 0, 87, 60
2, 66144, Note_on_c, 0, 82, 60
2, 66144, Note_on_c, 0, 75, 60
2, 66158, Control_c, 0, 64, 0
2, 66175, Note_on_c, 0, 80, 60
2, 66177, Note_on_c, 0, 75, 0
2, 66177, Note_on_c, 0, 87, 0
2, 66177, Note_on_c, 0, 82, 0
2, 66182, Note_on_c, 0, 84, 60
2, 66186, Note_on_c, 0, 65, 60
2, 66186, Note_on_c, 0, 72, 60
2, 66186, Note_on_c, 0, 62, 60
2, 66190, Note_on_c, 0, 58, 60
2, 66214, Note_on_c, 0, 62, 0
2, 66220, Note_on_c, 0, 84, 0
2, 66220, Note_on_c, 0, 80, 0
2, 66222, Note_on_c, 0, 72, 0
2, 66222, Note_on_c, 0, 58, 0
2, 66222, Note_on_c, 0, 65, 0
2, 66273, Note_on_c, 0, 80, 60
2, 66273, Note_on_c, 0, 86, 60
2, 66273, Note_on_c, 0, 74, 60
2, 66292, Note_on_c, 0, 80, 0
2, 66316, Note_on_c, 0, 82, 60
2, 66316, Note_on_c, 0, 80, 60
2, 66320, Note_on_c, 0, 70, 60
2, 66327, Note_on_c, 0, 86, 0
2, 66327, Note_on_c, 0, 34, 60
2, 66329, Note_on_c, 0, 74, 0
2, 66355, Note_on_c, 0, 70, 0
2, 66355, Note_on_c, 0, 80, 0
2, 66355, Note_on_c, 0, 82, 0
2, 66360, Note_on_c, 0, 34, 0
2, 66408, Note_on_c, 0, 83, 60
2, 66408, Note_on_c, 0, 80, 60
2, 66409, Note_on_c, 0, 71, 60
2, 66427, Note_on_c, 0, 80, 0
2, 66451, Note_on_c, 0, 84, 60
2, 66451, Note_on_c, 0, 80, 60
2, 66453, Note_on_c, 0, 71, 0
2, 66453, Note_on_c, 0, 65, 60
2, 66455, Note_on_c, 0, 72, 60
2, 66455, Note_on_c, 0, 62, 60
2, 66463, Note_on_c, 0, 83, 0
2, 66463, Note_on_c, 0, 58, 60
2, 66486, Note_on_c, 0, 84, 0
2, 66489, Note_on_c, 0, 72, 0
2, 66489, Note_on_c, 0, 65, 0
2, 66489, Note_on_c, 0, 80, 0
2, 66491, Note_on_c, 0, 58, 0
2, 66491, Note_on_c, 0, 62, 0
2, 66540, Note_on_c, 0, 70, 60
2, 66542, Note_on_c, 0, 82, 60
2, 66549, Note_on_c, 0, 39, 60
2, 66559, Note_on_c, 0, 82, 0
2, 66578, Note_on_c, 0, 70, 0
2, 66582, Note_on_c, 0, 86, 60
2, 66582, Note_on_c, 0, 79, 60
2, 66585, Note_on_c, 0, 74, 60
2, 66585, Note_on_c, 0, 82, 60
2, 66585, Control_c, 0, 64, 127
2, 66587, Note_on_c, 0, 55, 60
2, 66591, Note_on_c, 0, 46, 60
2, 66624, Note_on_c, 0, 46, 0
2, 66624, Note_on_c, 0, 39, 0
2, 66625, Note_on_c, 0, 86, 0
2, 66627, Note_on_c, 0, 82, 0
2, 66627, Note_on_c, 0, 74, 0
2, 66627, Note_on_c, 0, 79, 0
2, 66640, Note_on_c, 0, 55, 0
2, 66670, Note_on_c, 0, 84, 60
2, 66670, Note_on_c, 0, 79, 60
2, 66674, Note_on_c, 0, 72, 60
2, 66689, Note_on_c, 0, 79, 0
2, 66689, Control_c, 0, 64, 0
2, 66715, Note_on_c, 0, 82, 60
2, 66717, Note_on_c, 0, 72, 0
2, 66717, Note_on_c, 0, 70, 60
2, 66717, Note_on_c, 0, 67, 60
2, 66720, Note_on_c, 0, 79, 60
2, 66720, Note_on_c, 0, 63, 60
2, 66723, Note_on_c, 0, 84, 0
2, 66723, Note_on_c, 0, 58, 60
2, 66751, Note_on_c, 0, 67, 0
2, 66751, Note_on_c, 0, 70, 0
2, 66753, Note_on_c, 0, 63, 0
2, 66753, Note_on_c, 0, 58, 0
2, 66760, Note_on_c, 0, 82, 0
2, 66760, Note_on_c, 0, 79, 0
2, 66804, Note_on_c, 0, 79, 60
2, 66807, Note_on_c, 0, 84, 60
2, 66809, Note_on_c, 0, 72, 60
2, 66854, Note_on_c, 0, 34, 60
2, 66881, Note_on_c, 0, 34, 0
2, 66892, Note_on_c, 0, 72, 0
2, 66892, Note_on_c, 0, 79, 0
2, 66900, Note_on_c, 0, 84, 0
2, 66943, Note_on_c, 0, 79, 60
2, 66952, Note_on_c, 0, 80, 60
2, 66962, Note_on_c, 0, 81, 60
2, 66973, Note_on_c, 0, 79, 0
2, 66973, Note_on_c, 0, 83, 60
2, 66977, Note_on_c, 0, 84, 60
2, 66982, Note_on_c, 0, 80, 0
2, 66982, Note_on_c, 0, 63, 60
2, 66985, Note_on_c, 0, 67, 60
2, 66988, Note_on_c, 0, 58, 60
2, 66990, Note_on_c, 0, 81, 0
2, 66999, Note_on_c, 0, 83, 0
2, 67009, Note_on_c, 0, 63, 0
2, 67009, Note_on_c, 0, 58, 0
2, 67015, Note_on_c, 0, 67, 0
2, 67041, Note_on_c, 0, 84, 0
2, 67095, Control_c, 0, 64, 127
2, 67114, Note_on_c, 0, 82, 60
2, 67114, Note_on_c, 0, 79, 60
2, 67116, Note_on_c, 0, 87, 60
2, 67116, Note_on_c, 0, 75, 60
2, 67118, Note_on_c, 0, 55, 60
2, 67118, Note_on_c, 0, 46, 60
2, 67152, Note_on_c, 0, 46, 0
2, 67152, Note_on_c, 0, 55, 0
2, 67182, Note_on_c, 0, 75, 0
2, 67197, Note_on_c, 0, 82, 0
2, 67197, Note_on_c, 0, 79, 0
2, 67205, Note_on_c, 0, 87, 0
2, 67226, Control_c, 0, 64, 0
2, 67240, Note_on_c, 0, 86, 60
2, 67242, Note_on_c, 0, 82, 60
2, 67242, Note_on_c, 0, 79, 60
2, 67244, Note_on_c, 0, 74, 60
2, 67246, Note_on_c, 0, 61, 60
2, 67246, Note_on_c, 0, 63, 60
2, 67246, Note_on_c, 0, 58, 60
2, 67248, Note_on_c, 0, 67, 60
2, 67278, Note_on_c, 0, 67, 0
2, 67278, Note_on_c, 0, 63, 0
2, 67278, Note_on_c, 0, 61, 0
2, 67280, Note_on_c, 0, 58, 0
2, 67287, Note_on_c, 0, 74, 0
2, 67293, Note_on_c, 0, 86, 0
2, 67293, Note_on_c, 0, 82, 0
2, 67293, Note_on_c, 0, 79, 0
2, 67329, Note_on_c, 0, 82, 60
2, 67331, Note_on_c, 0, 79, 60
2, 67331, Note_on_c, 0, 75, 60
2, 67334, Note_on_c, 0, 87, 60
2, 67348, Note_on_c, 0, 79, 0
2, 67348, Note_on_c, 0, 82, 0
2, 67372, Note_on_c, 0, 84, 60
2, 67374, Note_on_c, 0, 82, 60
2, 67374, Note_on_c, 0, 79, 60
2, 67376, Note_on_c, 0, 75, 0
2, 67376, Note_on_c, 0, 72, 60
2, 67383, Note_on_c, 0, 87, 0
2, 67383, Note_on_c, 0, 51, 60
2, 67383, Note_on_c, 0, 39, 60
2, 67397, Note_on_c, 0, 39, 0
2, 67397, Note_on_c, 0, 51, 0
2, 67408, Note_on_c, 0, 82, 0
2, 67408, Note_on_c, 0, 79, 0
2, 67408, Note_on_c, 0, 84, 0
2, 67411, Note_on_c, 0, 72, 0
2, 67457, Note_on_c, 0, 87, 60
2, 67462, Note_on_c, 0, 75, 60
2, 67465, Note_on_c, 0, 53, 60
2, 67468, Note_on_c, 0, 41, 60
2, 67493, Note_on_c, 0, 41, 0
2, 67493, Note_on_c, 0, 53, 0
2, 67509, Note_on_c, 0, 55, 60
2, 67511, Note_on_c, 0, 43, 60
2, 67514, Note_on_c, 0, 75, 0
2, 67534, Note_on_c, 0, 55, 0
2, 67536, Note_on_c, 0, 43, 0
2, 67556, Note_on_c, 0, 87, 0
2, 67591, Note_on_c, 0, 84, 60
2, 67591, Note_on_c, 0, 80, 60
2, 67596, Note_on_c, 0, 72, 60
2, 67596, Note_on_c, 0, 55, 60
2, 67598, Note_on_c, 0, 43, 60
2, 67610, Note_on_c, 0, 84, 0
2, 67613, Note_on_c, 0, 80, 0
2, 67626, Note_on_c, 0, 43, 0
2, 67634, Note_on_c, 0, 87, 60
2, 67636, Note_on_c, 0, 84, 60
2, 67636, Note_on_c, 0, 75, 60
2, 67641, Note_on_c, 0, 55, 0
2, 67641, Note_on_c, 0, 56, 60
2, 67641, Note_on_c, 0, 80, 60
2, 67641, Note_on_c, 0, 44, 60
2, 67645, Control_c, 0, 64, 127
2, 67647, Note_on_c, 0, 72, 0
2, 67675, Note_on_c, 0, 56, 0
2, 67675, Note_on_c, 0, 44, 0
2, 67703, Note_on_c, 0, 56, 60
2, 67704, Note_on_c, 0, 51, 60
2, 67706, Note_on_c, 0, 60, 60
2, 67724, Note_on_c, 0, 80, 0
2, 67726, Note_on_c, 0, 51, 0
2, 67726, Note_on_c, 0, 56, 0
2, 67726, Note_on_c, 0, 60, 0
2, 67730, Note_on_c, 0, 87, 0
2, 67730, Note_on_c, 0, 84, 0
2, 67732, Note_on_c, 0, 75, 0
2, 67741, Control_c, 0, 64, 0
2, 67762, Note_on_c, 0, 84, 60
2, 67764, Note_on_c, 0, 72, 60
2, 67767, Note_on_c, 0, 80, 60
2, 67771, Note_on_c, 0, 39, 60
2, 67800, Note_on_c, 0, 80, 0
2, 67807, Note_on_c, 0, 39, 0
2, 67828, Note_on_c, 0, 60, 60
2, 67830, Note_on_c, 0, 56, 60
2, 67833, Note_on_c, 0, 51, 60
2, 67835, Note_on_c, 0, 84, 0
2, 67837, Note_on_c, 0, 72, 0
2, 67837, Note_on_c, 0, 80, 60
2, 67848, Note_on_c, 0, 51, 0
2, 67848, Note_on_c, 0, 81, 60
2, 67854, Note_on_c, 0, 56, 0
2, 67854, Note_on_c, 0, 60, 0
2, 67863, Note_on_c, 0, 80, 0
2, 67869, Note_on_c, 0, 82, 60
2, 67872, Note_on_c, 0, 81, 0
2, 67886, Note_on_c, 0, 83, 60
2, 67895, Note_on_c, 0, 84, 60
2, 67896, Note_on_c, 0, 82, 0
2, 67901, Note_on_c, 0, 44, 60
2, 67903, Note_on_c, 0, 56, 60
2, 67905, Note_on_c, 0, 83, 0
2, 67918, Note_on_c, 0, 56, 0
2, 67918, Note_on_c, 0, 44, 0
2, 67920, Note_on_c, 0, 87, 60
2, 67922, Note_on_c, 0, 84, 0
2, 67922, Note_on_c, 0, 75, 60
2, 67956, Note_on_c, 0, 51, 60
2, 67961, Note_on_c, 0, 56, 60
2, 67963, Note_on_c, 0, 60, 60
2, 67968, Note_on_c, 0, 87, 0
2, 67969, Note_on_c, 0, 75, 0
2, 67980, Note_on_c, 0, 51, 0
2, 67982, Note_on_c, 0, 84, 60
2, 67987, Note_on_c, 0, 60, 0
2, 67987, Note_on_c, 0, 72, 60
2, 67989, Note_on_c, 0, 56, 0
2, 68022, Note_on_c, 0, 72, 0
2, 68025, Note_on_c, 0, 87, 60
2, 68027, Note_on_c, 0, 84, 0
2, 68027, Note_on_c, 0, 81, 60
2, 68029, Note_on_c, 0, 78, 60
2, 68029, Note_on_c, 0, 75, 60
2, 68031, Note_on_c, 0, 57, 60
2, 68036, Note_on_c, 0, 45, 60
2, 68048, Note_on_c, 0, 45, 0
2, 68057, Note_on_c, 0, 57, 0
2, 68064, Note_on_c, 0, 87, 0
2, 68064, Note_on_c, 0, 81, 0
2, 68065, Note_on_c, 0, 78, 0
2, 68065, Note_on_c, 0, 75, 0
2, 68087, Note_on_c, 0, 81, 60
2, 68087, Note_on_c, 0, 78, 60
2, 68088, Note_on_c, 0, 72, 60
2, 68090, Note_on_c, 0, 84, 60
2, 68093, Note_on_c, 0, 57, 60
2, 68093, Note_on_c, 0, 60, 60
2, 68093, Note_on_c, 0, 54, 60
2, 68095, Note_on_c, 0, 51, 60
2, 68116, Note_on_c, 0, 54, 0
2, 68116, Note_on_c, 0, 60, 0
2, 68116, Note_on_c, 0, 57, 0
2, 68118, Note_on_c, 0, 51, 0
2, 68121, Note_on_c, 0, 78, 0
2, 68121, Note_on_c, 0, 84, 0
2, 68121, Note_on_c, 0, 81, 0
2, 68125, Note_on_c, 0, 72, 0
2, 68148, Control_c, 0, 64, 127
2, 68155, Note_on_c, 0, 87, 60
2, 68155, Note_on_c, 0, 79, 60
2, 68157, Note_on_c, 0, 82, 60
2, 68160, Note_on_c, 0, 75, 60
2, 68161, Note_on_c, 0, 58, 60
2, 68165, Note_on_c, 0, 46, 60
2, 68186, Note_on_c, 0, 58, 0
2, 68189, Note_on_c, 0, 46, 0
2, 68217, Note_on_c, 0, 67, 60
2, 68217, Note_on_c, 0, 63, 60
2, 68221, Note_on_c, 0, 58, 60
2, 68223, Note_on_c, 0, 87, 0
2, 68228, Note_on_c, 0, 75, 0
2, 68228, Note_on_c, 0, 79, 0
2, 68228, Note_on_c, 0, 82, 0
2, 68244, Note_on_c, 0, 58, 0
2, 68244, Note_on_c, 0, 67, 0
2, 68244, Note_on_c, 0, 63, 0
2, 68272, Control_c, 0, 64, 0
2, 68285, Note_on_c, 0, 83, 60
2, 68287, Note_on_c, 0, 77, 60
2, 68287, Note_on_c, 0, 86, 60
2, 68287, Note_on_c, 0, 74, 60
2, 68291, Note_on_c, 0, 43, 60
2, 68294, Note_on_c, 0, 55, 60
2, 68317, Note_on_c, 0, 55, 0
2, 68319, Note_on_c, 0, 43, 0
2, 68349, Note_on_c, 0, 65, 60
2, 68349, Note_on_c, 0, 62, 60
2, 68352, Note_on_c, 0, 59, 60
2, 68355, Note_on_c, 0, 55, 60
2, 68357, Note_on_c, 0, 83, 0
2, 68357, Note_on_c, 0, 86, 0
2, 68357, Note_on_c, 0, 77, 0
2, 68359, Note_on_c, 0, 74, 0
2, 68373, Note_on_c, 0, 84, 60
2, 68373, Note_on_c, 0, 79, 60
2, 68375, Note_on_c, 0, 76, 60
2, 68376, Note_on_c, 0, 65, 0
2, 68376, Note_on_c, 0, 62, 0
2, 68376, Note_on_c, 0, 55, 0
2, 68376, Note_on_c, 0, 59, 0
2, 68376, Note_on_c, 0, 72, 60
2, 68376, Note_on_c, 0, 82, 60
2, 68422, Note_on_c, 0, 52, 60
2, 68424, Note_on_c, 0, 40, 60
2, 68449, Note_on_c, 0, 40, 0
2, 68458, Note_on_c, 0, 52, 0
2, 68469, Note_on_c, 0, 84, 0
2, 68471, Note_on_c, 0, 72, 0
2, 68477, Note_on_c, 0, 76, 0
2, 68477, Note_on_c, 0, 79, 0
2, 68488, Note_on_c, 0, 82, 0
2, 68502, Note_on_c, 0, 84, 60
2, 68537, Note_on_c, 0, 87, 60
2, 68541, Note_on_c, 0, 84, 0
2, 68541, Note_on_c, 0, 75, 60
2, 68544, Note_on_c, 0, 55, 60
2, 68547, Note_on_c, 0, 43, 60
2, 68568, Note_on_c, 0, 55, 0
2, 68573, Note_on_c, 0, 43, 0
2, 68614, Note_on_c, 0, 75, 0
2, 68616, Note_on_c, 0, 56, 60
2, 68617, Note_on_c, 0, 44, 60
2, 68620, Note_on_c, 0, 87, 0
2, 68635, Note_on_c, 0, 44, 0
2, 68635, Note_on_c, 0, 56, 0
2, 68641, Note_on_c, 0, 72, 60
2, 68678, Note_on_c, 0, 72, 0
2, 68678, Control_c, 0, 64, 127
2, 68684, Note_on_c, 0, 81, 60
2, 68684, Note_on_c, 0, 84, 60
2, 68684, Note_on_c, 0, 75, 60
2, 68688, Note_on_c, 0, 87, 60
2, 68688, Note_on_c, 0, 57, 60
2, 68690, Note_on_c, 0, 45, 60
2, 68701, Note_on_c, 0, 84, 0
2, 68703, Note_on_c, 0, 81, 0
2, 68705, Note_on_c, 0, 57, 0
2, 68708, Note_on_c, 0, 45, 0
2, 68712, Note_on_c, 0, 75, 0
2, 68729, Note_on_c, 0, 87, 0
2, 68741, Note_on_c, 0, 57, 60
2, 68743, Note_on_c, 0, 84, 60
2, 68748, Note_on_c, 0, 72, 60
2, 68748, Note_on_c, 0, 63, 60
2, 68750, Note_on_c, 0, 60, 60
2, 68750, Note_on_c, 0, 53, 60
2, 68765, Note_on_c, 0, 84, 0
2, 68769, Note_on_c, 0, 63, 0
2, 68776, Note_on_c, 0, 60, 0
2, 68776, Note_on_c, 0, 57, 0
2, 68778, Note_on_c, 0, 53, 0
2, 68782, Note_on_c, 0, 72, 0
2, 68799, Control_c, 0, 64, 0
2, 68814, Note_on_c, 0, 87, 60
2, 68814, Note_on_c, 0, 75, 60
2, 68816, Note_on_c, 0, 81, 60
2, 68818, Note_on_c, 0, 84, 60
2, 68823, Note_on_c, 0, 41, 60
2, 68839, Note_on_c, 0, 84, 0
2, 68856, Note_on_c, 0, 41, 0
2, 68858, Note_on_c, 0, 81, 0
2, 68861, Note_on_c, 0, 75, 0
2, 68867, Note_on_c, 0, 87, 0
2, 68876, Note_on_c, 0, 84, 60
2, 68876, Note_on_c, 0, 72, 60
2, 68880, Note_on_c, 0, 57, 60
2, 68880, Note_on_c, 0, 60, 60
2, 68880, Note_on_c, 0, 63, 60
2, 68880, Note_on_c, 0, 53, 60
2, 68905, Note_on_c, 0, 63, 0
2, 68905, Note_on_c, 0, 60, 0
2, 68905, Note_on_c, 0, 57, 0
2, 68908, Note_on_c, 0, 53, 0
2, 68914, Note_on_c, 0, 72, 0
2, 68921, Note_on_c, 0, 84, 0
2, 68947, Note_on_c, 0, 87, 60
2, 68949, Note_on_c, 0, 75, 60
2, 68949, Note_on_c, 0, 80, 60
2, 68949, Note_on_c, 0, 62, 60
2, 68951, Note_on_c, 0, 50, 60
2, 68978, Note_on_c, 0, 50, 0
2, 68982, Note_on_c, 0, 80, 0
2, 68985, Note_on_c, 0, 62, 0
2, 68991, Note_on_c, 0, 87, 0
2, 68993, Note_on_c, 0, 75, 0
2, 69008, Note_on_c, 0, 84, 60
2, 69012, Note_on_c, 0, 72, 60
2, 69012, Note_on_c, 0, 65, 60
2, 69015, Note_on_c, 0, 56, 60
2, 69017, Note_on_c, 0, 62, 60
2, 69017, Note_on_c, 0, 58, 60
2, 69036, Note_on_c, 0, 84, 0
2, 69038, Note_on_c, 0, 62, 0
2, 69038, Note_on_c, 0, 65, 0
2, 69040, Note_on_c, 0, 58, 0
2, 69040, Note_on_c, 0, 56, 0
2, 69047, Note_on_c, 0, 72, 0
2, 69081, Note_on_c, 0, 82, 60
2, 69083, Note_on_c, 0, 87, 60
2, 69083, Note_on_c, 0, 75, 60
2, 69087, Note_on_c, 0, 58, 60
2, 69087, Note_on_c, 0, 46, 60
2, 69100, Note_on_c, 0, 82, 0
2, 69102, Note_on_c, 0, 58, 0
2, 69104, Note_on_c, 0, 46, 0
2, 69141, Note_on_c, 0, 72, 60
2, 69143, Note_on_c, 0, 75, 0
2, 69143, Note_on_c, 0, 84, 60
2, 69144, Note_on_c, 0, 58, 60
2, 69144, Note_on_c, 0, 62, 60
2, 69144, Note_on_c, 0, 65, 60
2, 69144, Note_on_c, 0, 56, 60
2, 69151, Note_on_c, 0, 87, 0
2, 69170, Note_on_c, 0, 62, 0
2, 69170, Note_on_c, 0, 65, 0
2, 69172, Note_on_c, 0, 58, 0
2, 69172, Note_on_c, 0, 56, 0
2, 69179, Note_on_c, 0, 72, 0
2, 69185, Note_on_c, 0, 84, 0
2, 69211, Note_on_c, 0, 82, 60
2, 69211, Note_on_c, 0, 87, 60
2, 69211, Note_on_c, 0, 79, 60
2, 69216, Note_on_c, 0, 63, 60
2, 69216, Note_on_c, 0, 75, 60
2, 69216, Note_on_c, 0, 51, 60
2, 69219, Control_c, 0, 64, 127
2, 69242, Note_on_c, 0, 51, 0
2, 69242, Note_on_c, 0, 63, 0
2, 69247, Note_on_c, 0, 79, 0
2, 69247, Note_on_c, 0, 82, 0
2, 69249, Note_on_c, 0, 75, 0
2, 69256, Note_on_c, 0, 87, 0
2, 69273, Note_on_c, 0, 83, 60
2, 69275, Note_on_c, 0, 71, 60
2, 69275, Note_on_c, 0, 63, 60
2, 69279, Note_on_c, 0, 67, 60
2, 69281, Note_on_c, 0, 58, 60
2, 69300, Note_on_c, 0, 67, 0
2, 69303, Note_on_c, 0, 63, 0
2, 69303, Note_on_c, 0, 58, 0
2, 69307, Note_on_c, 0, 83, 0
2, 69309, Note_on_c, 0, 71, 0
2, 69336, Control_c, 0, 64, 0
2, 69343, Note_on_c, 0, 82, 60
2, 69343, Note_on_c, 0, 84, 60
2, 69343, Note_on_c, 0, 79, 60
2, 69345, Note_on_c, 0, 72, 60
2, 69347, Note_on_c, 0, 58, 60
2, 69350, Note_on_c, 0, 46, 60
2, 69380, Note_on_c, 0, 72, 0
2, 69380, Note_on_c, 0, 79, 0
2, 69382, Note_on_c, 0, 58, 0
2, 69384, Note_on_c, 0, 46, 0
2, 69385, Note_on_c, 0, 84, 0
2, 69388, Note_on_c, 0, 82, 0
2, 69405, Note_on_c, 0, 83, 60
2, 69405, Note_on_c, 0, 71, 60
2, 69408, Note_on_c, 0, 67, 60
2, 69408, Note_on_c, 0, 63, 60
2, 69434, Note_on_c, 0, 67, 0
2, 69437, Note_on_c, 0, 63, 0
2, 69450, Note_on_c, 0, 83, 0
2, 69452, Note_on_c, 0, 71, 0
2, 69476, Note_on_c, 0, 79, 60
2, 69478, Note_on_c, 0, 84, 60
2, 69478, Note_on_c, 0, 72, 60
2, 69480, Note_on_c, 0, 63, 60
2, 69481, Note_on_c, 0, 51, 60
2, 69514, Note_on_c, 0, 63, 0
2, 69518, Note_on_c, 0, 51, 0
2, 69520, Note_on_c, 0, 84, 0
2, 69523, Note_on_c, 0, 72, 0
2, 69530, Note_on_c, 0, 79, 0
2, 69535, Note_on_c, 0, 78, 60
2, 69539, Note_on_c, 0, 71, 60
2, 69539, Note_on_c, 0, 83, 60
2, 69539, Note_on_c, 0, 62, 60
2, 69542, Note_on_c, 0, 50, 60
2, 69561, Note_on_c, 0, 84, 60
2, 69561, Note_on_c, 0, 79, 60
2, 69563, Note_on_c, 0, 82, 60
2, 69563, Note_on_c, 0, 72, 60
2, 69572, Note_on_c, 0, 83, 0
2, 69574, Note_on_c, 0, 78, 0
2, 69574, Note_on_c, 0, 71, 0
2, 69576, Note_on_c, 0, 62, 0
2, 69577, Note_on_c, 0, 50, 0
2, 69612, Note_on_c, 0, 48, 60
2, 69616, Note_on_c, 0, 52, 60
2, 69635, Note_on_c, 0, 87, 60
2, 69635, Note_on_c, 0, 75, 60
2, 69640, Note_on_c, 0, 48, 0
2, 69644, Note_on_c, 0, 79, 0
2, 69644, Note_on_c, 0, 82, 0
2, 69644, Note_on_c, 0, 84, 0
2, 69646, Note_on_c, 0, 72, 0
2, 69648, Note_on_c, 0, 52, 0
2, 69676, Note_on_c, 0, 46, 60
2, 69680, Note_on_c, 0, 75, 0
2, 69680, Note_on_c, 0, 58, 60
2, 69689, Note_on_c, 0, 87, 0
2, 69696, Note_on_c, 0, 84, 60
2, 69699, Note_on_c, 0, 72, 60
2, 69710, Note_on_c, 0, 58, 0
2, 69710, Note_on_c, 0, 46, 0
2, 69725, Note_on_c, 0, 72, 0
2, 69740, Note_on_c, 0, 79, 60
2, 69742, Note_on_c, 0, 84, 0
2, 69742, Note_on_c, 0, 82, 60
2, 69742, Note_on_c, 0, 87, 60
2, 69742, Note_on_c, 0, 75, 60
2, 69744, Control_c, 0, 64, 127
2, 69746, Note_on_c, 0, 63, 60
2, 69746, Note_on_c, 0, 51, 60
2, 69753, Note_on_c, 0, 58, 60
2, 69769, Note_on_c, 0, 75, 0
2, 69772, Note_on_c, 0, 51, 0
2, 69772, Note_on_c, 0, 58, 0
2, 69776, Note_on_c, 0, 79, 0
2, 69778, Note_on_c, 0, 63, 0
2, 69785, Note_on_c, 0, 87, 0
2, 69787, Note_on_c, 0, 82, 0
2, 69799, Note_on_c, 0, 79, 60
2, 69802, Note_on_c, 0, 84, 60
2, 69802, Control_c, 0, 64, 0
2, 69806, Note_on_c, 0, 72, 60
2, 69806, Note_on_c, 0, 58, 60
2, 69808, Note_on_c, 0, 46, 60
2, 69830, Note_on_c, 0, 84, 0
2, 69830, Note_on_c, 0, 79, 0
2, 69834, Note_on_c, 0, 58, 0
2, 69834, Note_on_c, 0, 46, 0
2, 69840, Note_on_c, 0, 72, 0
2, 69865, Note_on_c, 0, 57, 60
2, 69872, Note_on_c, 0, 82, 60
2, 69872, Note_on_c, 0, 85, 60
2, 69872, Note_on_c, 0, 79, 60
2, 69874, Note_on_c, 0, 73, 60
2, 69876, Note_on_c, 0, 45, 60
2, 69902, Note_on_c, 0, 73, 0
2, 69902, Note_on_c, 0, 82, 0
2, 69904, Note_on_c, 0, 57, 0
2, 69904, Note_on_c, 0, 45, 0
2, 69909, Note_on_c, 0, 79, 0
2, 69909, Note_on_c, 0, 85, 0
2, 69934, Note_on_c, 0, 84, 60
2, 69938, Note_on_c, 0, 72, 60
2, 69940, Note_on_c, 0, 56, 60
2, 69942, Note_on_c, 0, 44, 60
2, 69970, Note_on_c, 0, 84, 0
2, 69975, Note_on_c, 0, 72, 0
2, 69977, Note_on_c, 0, 56, 0
2, 69977, Note_on_c, 0, 44, 0
2, 70007, Note_on_c, 0, 79, 60
2, 70010, Note_on_c, 0, 55, 60
2, 70013, Note_on_c, 0, 46, 60
2, 70034, Note_on_c, 0, 79, 0
2, 70036, Note_on_c, 0, 55, 0
2, 70041, Note_on_c, 0, 82, 60
2, 70043, Note_on_c, 0, 70, 60
2, 70064, Note_on_c, 0, 79, 60
2, 70064, Note_on_c, 0, 84, 60
2, 70064, Note_on_c, 0, 72, 60
2, 70077, Note_on_c, 0, 82, 0
2, 70080, Note_on_c, 0, 70, 0
2, 70094, Note_on_c, 0, 79, 0
2, 70099, Note_on_c, 0, 46, 0
2, 70099, Note_on_c, 0, 58, 60
2, 70120, Note_on_c, 0, 72, 0
2, 70132, Note_on_c, 0, 79, 60
2, 70134, Note_on_c, 0, 84, 0
2, 70137, Note_on_c, 0, 75, 60
2, 70137, Note_on_c, 0, 73, 60
2, 70141, Note_on_c, 0, 51, 60
2, 70141, Note_on_c, 0, 67, 60
2, 70141, Note_on_c, 0, 39, 60
2, 70148, Note_on_c, 0, 58, 0
2, 70248, Control_c, 0, 64, 127
2, 70368, Control_c, 0, 64, 0
2, 70387, Note_on_c, 0, 73, 0
2, 70387, Note_on_c, 0, 75, 0
2, 70387, Note_on_c, 0, 67, 0
2, 70389, Note_on_c, 0, 51, 0
2, 70391, Note_on_c, 0, 39, 0
2, 70394, Note_on_c, 0, 79, 0
2, 70394, End_track
3, 0, Start_track
3, 0, Title_t, ""
3, 0, End_track
4, 0, Start_track
4, 0, Title_t, ""
4, 0, End_track
5, 0, Start_track
5, 0, Title_t, ""
5, 0, End_track
6, 0, Start_track
6, 0, Title_t, "Scan of a player piano roll"
6, 0, End_track
7, 0, Start_track
7, 0, Title_t, "by Terry Smythe, Winnipeg, Canada"
7, 0, End_track
8, 0, Start_track
8, 1, Copyright_t, "___________________________________________________\012\012KUNSTDERFUGE.COM LARGE CLASSICAL MIDI COLLECTION\012ONCLASSICAL BY ALESSANDRO SIMONETTO, PROPRIETOR\012___________________________________________________\012\012! Attention: this file is under copyright !\012\012(c)onclassical, (nc)smythe, 2010\012___________________________________________________\012\012NO ONE MAY REPUBLISH THIS FILE WITHOUT PERMISSION\012COMMERCIAL USES OF THIS FILE IS STRICTLY PROHIBITED\012___________________________________________________\012\012Files & contributor's list: http://kunstderfuge.com/\012Terms and conditions: http://kunstderfuge.com/notes.htm"
8, 1, End_track
0, 0, End_of_file
