0, 0, Header, 1, 8, 192
1, 0, Start_track
1, 0, Title_t, "159S"
1, 0, Copyright_t, "May NOT be used for commercial purposes."
1, 0, Text_t, "Roll expression/accent tracks, where present, converted to MIDI velocties.\012"
1, 0, Time_signature, 4, 2, 24, 8
1, 0, Key_signature, 0, "major"
1, 0, Tempo, 500000
1, 0, Marker_t, "Standard MIDI:LPI 117:Tempo  70: 12-04-2003"
1, 0, End_track
2, 0, Start_track
2, 0, Title_t, "Mr. Jelly Lord (1924)"
2, 14, Control_c, 0, 64, 127
2, 35, Control_c, 0, 64, 0
2, 98, Note_on_c, 0, 69, 80
2, 98, Note_on_c, 0, 81, 80
2, 141, Note_on_c, 0, 81, 0
2, 143, Note_on_c, 0, 69, 0
2, 149, Note_on_c, 0, 70, 80
2, 149, Note_on_c, 0, 82, 80
2, 206, Note_on_c, 0, 82, 0
2, 206, Note_on_c, 0, 70, 0
2, 250, Note_on_c, 0, 71, 80
2, 252, Note_on_c, 0, 83, 80
2, 294, Note_on_c, 0, 83, 0
2, 294, Note_on_c, 0, 71, 0
2, 299, Control_c, 0, 64, 127
2, 299, Note_on_c, 0, 39, 80
2, 301, Note_on_c, 0, 51, 80
2, 301, Note_on_c, 0, 72, 80
2, 303, Note_on_c, 0, 84, 80
2, 340, Note_on_c, 0, 39, 0
2, 342, Note_on_c, 0, 72, 0
2, 344, Note_on_c, 0, 84, 0
2, 377, Control_c, 0, 64, 0
2, 400, Note_on_c, 0, 70, 80
2, 402, Note_on_c, 0, 82, 80
2, 444, Note_on_c, 0, 70, 0
2, 446, Note_on_c, 0, 82, 0
2, 451, Note_on_c, 0, 58, 80
2, 451, Note_on_c, 0, 63, 80
2, 451, Note_on_c, 0, 69, 80
2, 491, Note_on_c, 0, 81, 80
2, 493, Note_on_c, 0, 58, 0
2, 495, Note_on_c, 0, 63, 0
2, 521, Note_on_c, 0, 81, 0
2, 521, Note_on_c, 0, 69, 0
2, 553, Note_on_c, 0, 67, 80
2, 570, Note_on_c, 0, 51, 0
2, 596, Note_on_c, 0, 67, 0
2, 602, Note_on_c, 0, 40, 80
2, 602, Note_on_c, 0, 52, 80
2, 604, Note_on_c, 0, 76, 80
2, 604, Note_on_c, 0, 84, 80
2, 645, Note_on_c, 0, 40, 0
2, 647, Note_on_c, 0, 84, 0
2, 647, Note_on_c, 0, 76, 0
2, 707, Note_on_c, 0, 70, 80
2, 707, Note_on_c, 0, 82, 80
2, 740, Note_on_c, 0, 70, 0
2, 742, Note_on_c, 0, 82, 0
2, 758, Note_on_c, 0, 58, 80
2, 758, Note_on_c, 0, 61, 80
2, 758, Note_on_c, 0, 64, 80
2, 758, Note_on_c, 0, 69, 80
2, 758, Note_on_c, 0, 81, 80
2, 789, Note_on_c, 0, 61, 0
2, 789, Note_on_c, 0, 58, 0
2, 791, Note_on_c, 0, 64, 0
2, 842, Note_on_c, 0, 69, 0
2, 844, Note_on_c, 0, 81, 0
2, 861, Note_on_c, 0, 67, 80
2, 861, Note_on_c, 0, 74, 80
2, 863, Note_on_c, 0, 79, 80
2, 877, Note_on_c, 0, 52, 0
2, 882, Note_on_c, 0, 74, 0
2, 896, Note_on_c, 0, 79, 0
2, 908, Control_c, 0, 64, 127
2, 910, Note_on_c, 0, 41, 80
2, 912, Note_on_c, 0, 53, 80
2, 912, Note_on_c, 0, 65, 80
2, 913, Note_on_c, 0, 74, 80
2, 913, Note_on_c, 0, 77, 80
2, 918, Note_on_c, 0, 67, 0
2, 956, Note_on_c, 0, 41, 0
2, 967, Note_on_c, 0, 74, 0
2, 967, Note_on_c, 0, 65, 0
2, 967, Note_on_c, 0, 77, 0
2, 977, Control_c, 0, 64, 0
2, 1009, Note_on_c, 0, 53, 0
2, 1016, Note_on_c, 0, 61, 80
2, 1028, Note_on_c, 0, 73, 80
2, 1047, Note_on_c, 0, 61, 0
2, 1049, Note_on_c, 0, 73, 0
2, 1070, Note_on_c, 0, 53, 80
2, 1070, Note_on_c, 0, 58, 80
2, 1070, Note_on_c, 0, 62, 80
2, 1070, Note_on_c, 0, 70, 80
2, 1070, Note_on_c, 0, 74, 80
2, 1101, Note_on_c, 0, 74, 0
2, 1101, Note_on_c, 0, 62, 0
2, 1101, Note_on_c, 0, 70, 0
2, 1115, Note_on_c, 0, 58, 0
2, 1174, Note_on_c, 0, 59, 80
2, 1174, Note_on_c, 0, 65, 80
2, 1174, Note_on_c, 0, 69, 80
2, 1223, Note_on_c, 0, 38, 80
2, 1267, Note_on_c, 0, 38, 0
2, 1319, Note_on_c, 0, 53, 0
2, 1319, Note_on_c, 0, 59, 0
2, 1320, Note_on_c, 0, 65, 0
2, 1377, Note_on_c, 0, 53, 80
2, 1377, Note_on_c, 0, 55, 80
2, 1377, Note_on_c, 0, 59, 80
2, 1377, Note_on_c, 0, 62, 80
2, 1377, Note_on_c, 0, 65, 80
2, 1421, Note_on_c, 0, 59, 0
2, 1421, Note_on_c, 0, 55, 0
2, 1423, Note_on_c, 0, 62, 0
2, 1423, Note_on_c, 0, 69, 0
2, 1423, Note_on_c, 0, 65, 0
2, 1477, Note_on_c, 0, 36, 80
2, 1477, Note_on_c, 0, 67, 80
2, 1477, Note_on_c, 0, 76, 80
2, 1477, Note_on_c, 0, 79, 80
2, 1496, Note_on_c, 0, 76, 0
2, 1496, Note_on_c, 0, 53, 0
2, 1498, Note_on_c, 0, 79, 0
2, 1519, Note_on_c, 0, 36, 0
2, 1521, Note_on_c, 0, 67, 0
2, 1528, Note_on_c, 0, 43, 80
2, 1528, Note_on_c, 0, 52, 80
2, 1528, Note_on_c, 0, 70, 80
2, 1528, Note_on_c, 0, 76, 80
2, 1528, Note_on_c, 0, 79, 80
2, 1528, Note_on_c, 0, 82, 80
2, 1547, Note_on_c, 0, 79, 0
2, 1547, Note_on_c, 0, 76, 0
2, 1570, Note_on_c, 0, 70, 0
2, 1570, Note_on_c, 0, 43, 0
2, 1572, Note_on_c, 0, 82, 0
2, 1577, Control_c, 0, 64, 127
2, 1579, Note_on_c, 0, 76, 80
2, 1579, Note_on_c, 0, 79, 80
2, 1579, Note_on_c, 0, 84, 80
2, 1598, Note_on_c, 0, 79, 0
2, 1598, Note_on_c, 0, 76, 0
2, 1624, Note_on_c, 0, 84, 0
2, 1631, Note_on_c, 0, 70, 80
2, 1631, Note_on_c, 0, 76, 80
2, 1632, Note_on_c, 0, 79, 80
2, 1632, Note_on_c, 0, 82, 80
2, 1644, Control_c, 0, 64, 0
2, 1646, Note_on_c, 0, 76, 0
2, 1648, Note_on_c, 0, 79, 0
2, 1671, Note_on_c, 0, 70, 0
2, 1673, Note_on_c, 0, 82, 0
2, 1680, Note_on_c, 0, 55, 80
2, 1680, Note_on_c, 0, 58, 80
2, 1680, Note_on_c, 0, 60, 80
2, 1680, Note_on_c, 0, 64, 80
2, 1680, Note_on_c, 0, 67, 80
2, 1680, Note_on_c, 0, 76, 80
2, 1680, Note_on_c, 0, 79, 80
2, 1705, Note_on_c, 0, 67, 0
2, 1705, Note_on_c, 0, 60, 0
2, 1705, Note_on_c, 0, 58, 0
2, 1705, Note_on_c, 0, 55, 0
2, 1705, Note_on_c, 0, 64, 0
2, 1720, Note_on_c, 0, 79, 0
2, 1720, Note_on_c, 0, 76, 0
2, 1780, Note_on_c, 0, 66, 80
2, 1782, Note_on_c, 0, 78, 80
2, 1813, Note_on_c, 0, 52, 0
2, 1827, Note_on_c, 0, 78, 0
2, 1827, Note_on_c, 0, 66, 0
2, 1834, Note_on_c, 0, 41, 80
2, 1834, Note_on_c, 0, 53, 80
2, 1834, Note_on_c, 0, 65, 80
2, 1834, Note_on_c, 0, 69, 80
2, 1834, Note_on_c, 0, 77, 80
2, 1874, Note_on_c, 0, 41, 0
2, 1902, Note_on_c, 0, 69, 0
2, 1902, Note_on_c, 0, 77, 0
2, 1902, Note_on_c, 0, 65, 0
2, 1935, Note_on_c, 0, 61, 80
2, 1935, Note_on_c, 0, 65, 80
2, 1935, Note_on_c, 0, 69, 80
2, 1935, Note_on_c, 0, 73, 80
2, 1940, Note_on_c, 0, 53, 0
2, 1951, Note_on_c, 0, 65, 0
2, 1974, Note_on_c, 0, 73, 0
2, 1974, Note_on_c, 0, 61, 0
2, 1976, Note_on_c, 0, 69, 0
2, 1983, Note_on_c, 0, 53, 80
2, 1983, Note_on_c, 0, 60, 80
2, 1983, Note_on_c, 0, 63, 80
2, 1983, Note_on_c, 0, 65, 80
2, 1985, Note_on_c, 0, 74, 80
2, 2053, Note_on_c, 0, 74, 0
2, 2053, Note_on_c, 0, 63, 0
2, 2053, Note_on_c, 0, 53, 0
2, 2053, Note_on_c, 0, 60, 0
2, 2053, Note_on_c, 0, 65, 0
2, 2086, Note_on_c, 0, 70, 80
2, 2135, Control_c, 0, 64, 127
2, 2136, Note_on_c, 0, 46, 80
2, 2143, Note_on_c, 0, 58, 80
2, 2164, Note_on_c, 0, 46, 0
2, 2166, Note_on_c, 0, 58, 0
2, 2166, Note_on_c, 0, 70, 0
2, 2189, Control_c, 0, 64, 0
2, 2236, Note_on_c, 0, 65, 80
2, 2238, Note_on_c, 0, 77, 80
2, 2266, Note_on_c, 0, 77, 0
2, 2266, Note_on_c, 0, 65, 0
2, 2287, Note_on_c, 0, 41, 80
2, 2287, Note_on_c, 0, 45, 80
2, 2287, Note_on_c, 0, 48, 80
2, 2287, Note_on_c, 0, 53, 80
2, 2287, Note_on_c, 0, 67, 80
2, 2287, Note_on_c, 0, 74, 80
2, 2287, Note_on_c, 0, 79, 80
2, 2355, Note_on_c, 0, 79, 0
2, 2355, Note_on_c, 0, 67, 0
2, 2355, Note_on_c, 0, 45, 0
2, 2355, Note_on_c, 0, 48, 0
2, 2355, Note_on_c, 0, 41, 0
2, 2355, Note_on_c, 0, 74, 0
2, 2355, Note_on_c, 0, 53, 0
2, 2388, Note_on_c, 0, 65, 80
2, 2388, Note_on_c, 0, 77, 80
2, 2435, Note_on_c, 0, 77, 0
2, 2435, Note_on_c, 0, 65, 0
2, 2442, Note_on_c, 0, 46, 80
2, 2442, Note_on_c, 0, 53, 80
2, 2442, Note_on_c, 0, 58, 80
2, 2442, Note_on_c, 0, 62, 80
2, 2442, Note_on_c, 0, 74, 80
2, 2533, Note_on_c, 0, 58, 0
2, 2533, Note_on_c, 0, 46, 0
2, 2535, Note_on_c, 0, 53, 0
2, 2535, Note_on_c, 0, 62, 0
2, 2535, Note_on_c, 0, 74, 0
2, 2593, Note_on_c, 0, 41, 80
2, 2595, Note_on_c, 0, 53, 80
2, 2595, Note_on_c, 0, 65, 80
2, 2595, Note_on_c, 0, 69, 80
2, 2595, Note_on_c, 0, 75, 80
2, 2595, Note_on_c, 0, 77, 80
2, 2626, Note_on_c, 0, 77, 0
2, 2626, Note_on_c, 0, 69, 0
2, 2626, Note_on_c, 0, 53, 0
2, 2626, Note_on_c, 0, 75, 0
2, 2638, Note_on_c, 0, 41, 0
2, 2638, Note_on_c, 0, 65, 0
2, 2753, Control_c, 0, 64, 127
2, 2753, Note_on_c, 0, 38, 80
2, 2753, Note_on_c, 0, 50, 80
2, 2856, Note_on_c, 0, 60, 80
2, 2870, Note_on_c, 0, 62, 80
2, 2875, Note_on_c, 0, 60, 0
2, 2884, Note_on_c, 0, 63, 80
2, 2889, Note_on_c, 0, 62, 0
2, 2896, Note_on_c, 0, 64, 80
2, 2903, Note_on_c, 0, 63, 0
2, 2907, Note_on_c, 0, 65, 80
2, 2912, Note_on_c, 0, 64, 0
2, 2950, Control_c, 0, 64, 0
2, 2952, Note_on_c, 0, 65, 0
2, 3010, Note_on_c, 0, 64, 80
2, 3010, Note_on_c, 0, 69, 80
2, 3026, Note_on_c, 0, 50, 0
2, 3026, Note_on_c, 0, 38, 0
2, 3059, Note_on_c, 0, 37, 80
2, 3059, Note_on_c, 0, 49, 80
2, 3059, Note_on_c, 0, 57, 80
2, 3129, Note_on_c, 0, 57, 0
2, 3129, Note_on_c, 0, 69, 0
2, 3129, Note_on_c, 0, 64, 0
2, 3165, Note_on_c, 0, 68, 80
2, 3184, Note_on_c, 0, 68, 0
2, 3216, Note_on_c, 0, 58, 80
2, 3216, Note_on_c, 0, 64, 80
2, 3216, Note_on_c, 0, 68, 80
2, 3247, Note_on_c, 0, 68, 0
2, 3268, Note_on_c, 0, 67, 80
2, 3296, Note_on_c, 0, 67, 0
2, 3296, Note_on_c, 0, 64, 0
2, 3298, Note_on_c, 0, 58, 0
2, 3317, Note_on_c, 0, 69, 80
2, 3334, Note_on_c, 0, 37, 0
2, 3336, Note_on_c, 0, 49, 0
2, 3361, Note_on_c, 0, 69, 0
2, 3366, Control_c, 0, 64, 127
2, 3368, Note_on_c, 0, 36, 80
2, 3368, Note_on_c, 0, 48, 80
2, 3368, Note_on_c, 0, 57, 80
2, 3368, Note_on_c, 0, 63, 80
2, 3368, Note_on_c, 0, 67, 80
2, 3479, Note_on_c, 0, 67, 0
2, 3479, Note_on_c, 0, 57, 0
2, 3479, Note_on_c, 0, 63, 0
2, 3514, Control_c, 0, 64, 0
2, 3521, Note_on_c, 0, 57, 80
2, 3523, Note_on_c, 0, 63, 80
2, 3523, Note_on_c, 0, 66, 80
2, 3553, Note_on_c, 0, 63, 0
2, 3568, Note_on_c, 0, 57, 0
2, 3568, Note_on_c, 0, 66, 0
2, 3603, Note_on_c, 0, 48, 0
2, 3603, Note_on_c, 0, 36, 0
2, 3624, Note_on_c, 0, 57, 80
2, 3624, Note_on_c, 0, 63, 80
2, 3624, Note_on_c, 0, 65, 80
2, 3678, Note_on_c, 0, 41, 80
2, 3678, Note_on_c, 0, 48, 80
2, 3772, Note_on_c, 0, 48, 0
2, 3772, Note_on_c, 0, 65, 0
2, 3772, Note_on_c, 0, 57, 0
2, 3772, Note_on_c, 0, 63, 0
2, 3772, Note_on_c, 0, 41, 0
2, 3833, Note_on_c, 0, 41, 80
2, 3835, Note_on_c, 0, 53, 80
2, 3835, Note_on_c, 0, 65, 80
2, 3835, Note_on_c, 0, 69, 80
2, 3835, Note_on_c, 0, 72, 80
2, 3835, Note_on_c, 0, 75, 80
2, 3835, Note_on_c, 0, 77, 80
2, 3865, Note_on_c, 0, 77, 0
2, 3865, Note_on_c, 0, 72, 0
2, 3865, Note_on_c, 0, 69, 0
2, 3865, Note_on_c, 0, 53, 0
2, 3865, Note_on_c, 0, 41, 0
2, 3865, Note_on_c, 0, 75, 0
2, 3880, Note_on_c, 0, 65, 0
2, 3990, Control_c, 0, 64, 127
2, 3990, Note_on_c, 0, 38, 80
2, 4002, Note_on_c, 0, 50, 80
2, 4046, Control_c, 0, 64, 0
2, 4149, Note_on_c, 0, 55, 80
2, 4149, Note_on_c, 0, 61, 80
2, 4214, Note_on_c, 0, 61, 0
2, 4225, Note_on_c, 0, 55, 0
2, 4248, Note_on_c, 0, 62, 80
2, 4263, Note_on_c, 0, 50, 0
2, 4263, Note_on_c, 0, 38, 0
2, 4289, Note_on_c, 0, 62, 0
2, 4296, Note_on_c, 0, 37, 80
2, 4296, Note_on_c, 0, 49, 80
2, 4297, Note_on_c, 0, 58, 80
2, 4297, Note_on_c, 0, 64, 80
2, 4297, Note_on_c, 0, 69, 80
2, 4393, Note_on_c, 0, 69, 0
2, 4393, Note_on_c, 0, 58, 0
2, 4393, Note_on_c, 0, 64, 0
2, 4452, Note_on_c, 0, 58, 80
2, 4452, Note_on_c, 0, 64, 80
2, 4452, Note_on_c, 0, 67, 80
2, 4546, Note_on_c, 0, 67, 0
2, 4546, Note_on_c, 0, 58, 0
2, 4546, Note_on_c, 0, 64, 0
2, 4586, Note_on_c, 0, 49, 0
2, 4586, Note_on_c, 0, 37, 0
2, 4603, Control_c, 0, 64, 127
2, 4603, Note_on_c, 0, 36, 80
2, 4603, Note_on_c, 0, 48, 80
2, 4605, Note_on_c, 0, 57, 80
2, 4605, Note_on_c, 0, 63, 80
2, 4605, Note_on_c, 0, 67, 80
2, 4696, Note_on_c, 0, 57, 0
2, 4698, Note_on_c, 0, 63, 0
2, 4698, Note_on_c, 0, 67, 0
2, 4721, Control_c, 0, 64, 0
2, 4753, Note_on_c, 0, 57, 80
2, 4755, Note_on_c, 0, 63, 80
2, 4755, Note_on_c, 0, 66, 80
2, 4796, Note_on_c, 0, 57, 0
2, 4798, Note_on_c, 0, 63, 0
2, 4798, Note_on_c, 0, 66, 0
2, 4856, Note_on_c, 0, 57, 80
2, 4856, Note_on_c, 0, 63, 80
2, 4856, Note_on_c, 0, 65, 80
2, 4861, Note_on_c, 0, 48, 0
2, 4861, Note_on_c, 0, 36, 0
2, 4908, Note_on_c, 0, 41, 80
2, 4908, Note_on_c, 0, 48, 80
2, 4988, Note_on_c, 0, 48, 0
2, 4988, Note_on_c, 0, 57, 0
2, 4988, Note_on_c, 0, 41, 0
2, 4990, Note_on_c, 0, 63, 0
2, 4990, Note_on_c, 0, 65, 0
2, 5058, Note_on_c, 0, 40, 80
2, 5058, Note_on_c, 0, 52, 80
2, 5090, Note_on_c, 0, 40, 0
2, 5163, Note_on_c, 0, 41, 80
2, 5180, Note_on_c, 0, 52, 0
2, 5215, Note_on_c, 0, 53, 80
2, 5227, Control_c, 0, 64, 127
2, 5259, Note_on_c, 0, 41, 0
2, 5313, Note_on_c, 0, 53, 0
2, 5323, Note_on_c, 0, 61, 80
2, 5323, Note_on_c, 0, 68, 80
2, 5323, Note_on_c, 0, 73, 80
2, 5325, Control_c, 0, 64, 0
2, 5339, Note_on_c, 0, 68, 0
2, 5351, Note_on_c, 0, 73, 0
2, 5351, Note_on_c, 0, 61, 0
2, 5372, Note_on_c, 0, 53, 80
2, 5372, Note_on_c, 0, 56, 80
2, 5372, Note_on_c, 0, 58, 80
2, 5372, Note_on_c, 0, 68, 80
2, 5372, Note_on_c, 0, 74, 80
2, 5383, Note_on_c, 0, 62, 80
2, 5402, Note_on_c, 0, 62, 0
2, 5402, Note_on_c, 0, 68, 0
2, 5402, Note_on_c, 0, 74, 0
2, 5456, Note_on_c, 0, 58, 0
2, 5472, Note_on_c, 0, 74, 80
2, 5472, Note_on_c, 0, 86, 80
2, 5474, Note_on_c, 0, 80, 80
2, 5476, Note_on_c, 0, 56, 0
2, 5619, Note_on_c, 0, 86, 0
2, 5619, Note_on_c, 0, 80, 0
2, 5619, Note_on_c, 0, 74, 0
2, 5631, Note_on_c, 0, 53, 0
2, 5680, Note_on_c, 0, 53, 80
2, 5680, Note_on_c, 0, 56, 80
2, 5680, Note_on_c, 0, 58, 80
2, 5680, Note_on_c, 0, 62, 80
2, 5680, Note_on_c, 0, 73, 80
2, 5680, Note_on_c, 0, 80, 80
2, 5680, Note_on_c, 0, 85, 80
2, 5711, Note_on_c, 0, 85, 0
2, 5711, Note_on_c, 0, 73, 0
2, 5711, Note_on_c, 0, 80, 0
2, 5736, Note_on_c, 0, 62, 0
2, 5748, Note_on_c, 0, 58, 0
2, 5748, Note_on_c, 0, 56, 0
2, 5781, Note_on_c, 0, 39, 80
2, 5781, Note_on_c, 0, 74, 80
2, 5781, Note_on_c, 0, 80, 80
2, 5781, Note_on_c, 0, 86, 80
2, 5800, Note_on_c, 0, 53, 0
2, 5823, Note_on_c, 0, 39, 0
2, 5825, Note_on_c, 0, 74, 0
2, 5827, Note_on_c, 0, 80, 0
2, 5827, Note_on_c, 0, 86, 0
2, 5829, Control_c, 0, 64, 127
2, 5831, Note_on_c, 0, 46, 80
2, 5831, Note_on_c, 0, 55, 80
2, 5831, Note_on_c, 0, 79, 80
2, 5831, Note_on_c, 0, 82, 80
2, 5831, Note_on_c, 0, 84, 80
2, 5845, Note_on_c, 0, 72, 80
2, 5873, Note_on_c, 0, 46, 0
2, 5922, Control_c, 0, 64, 0
2, 5927, Note_on_c, 0, 84, 0
2, 5927, Note_on_c, 0, 82, 0
2, 5927, Note_on_c, 0, 72, 0
2, 5928, Note_on_c, 0, 79, 0
2, 5985, Note_on_c, 0, 58, 80
2, 5985, Note_on_c, 0, 63, 80
2, 5985, Note_on_c, 0, 67, 80
2, 5985, Note_on_c, 0, 71, 80
2, 5985, Note_on_c, 0, 83, 80
2, 6027, Note_on_c, 0, 83, 0
2, 6027, Note_on_c, 0, 58, 0
2, 6027, Note_on_c, 0, 63, 0
2, 6027, Note_on_c, 0, 67, 0
2, 6027, Note_on_c, 0, 71, 0
2, 6088, Note_on_c, 0, 70, 80
2, 6088, Note_on_c, 0, 79, 80
2, 6090, Note_on_c, 0, 82, 80
2, 6118, Note_on_c, 0, 55, 0
2, 6139, Note_on_c, 0, 39, 80
2, 6139, Note_on_c, 0, 51, 80
2, 6186, Note_on_c, 0, 51, 0
2, 6186, Note_on_c, 0, 39, 0
2, 6200, Note_on_c, 0, 82, 0
2, 6200, Note_on_c, 0, 79, 0
2, 6200, Note_on_c, 0, 70, 0
2, 6249, Note_on_c, 0, 71, 80
2, 6249, Note_on_c, 0, 79, 80
2, 6249, Note_on_c, 0, 83, 80
2, 6268, Note_on_c, 0, 79, 0
2, 6299, Note_on_c, 0, 41, 80
2, 6299, Note_on_c, 0, 50, 80
2, 6299, Note_on_c, 0, 72, 80
2, 6299, Note_on_c, 0, 79, 80
2, 6299, Note_on_c, 0, 84, 80
2, 6304, Note_on_c, 0, 71, 0
2, 6306, Note_on_c, 0, 83, 0
2, 6341, Note_on_c, 0, 79, 0
2, 6341, Note_on_c, 0, 72, 0
2, 6341, Note_on_c, 0, 84, 0
2, 6353, Note_on_c, 0, 50, 0
2, 6353, Note_on_c, 0, 41, 0
2, 6402, Note_on_c, 0, 42, 80
2, 6402, Note_on_c, 0, 51, 80
2, 6402, Note_on_c, 0, 73, 80
2, 6402, Note_on_c, 0, 79, 80
2, 6402, Note_on_c, 0, 82, 80
2, 6402, Note_on_c, 0, 85, 80
2, 6421, Note_on_c, 0, 82, 0
2, 6421, Note_on_c, 0, 79, 0
2, 6431, Note_on_c, 0, 51, 0
2, 6431, Note_on_c, 0, 42, 0
2, 6432, Note_on_c, 0, 85, 0
2, 6432, Note_on_c, 0, 73, 0
2, 6454, Control_c, 0, 64, 127
2, 6454, Note_on_c, 0, 43, 80
2, 6454, Note_on_c, 0, 52, 80
2, 6454, Note_on_c, 0, 74, 80
2, 6456, Note_on_c, 0, 79, 80
2, 6456, Note_on_c, 0, 82, 80
2, 6456, Note_on_c, 0, 86, 80
2, 6481, Note_on_c, 0, 43, 0
2, 6517, Control_c, 0, 64, 0
2, 6533, Note_on_c, 0, 74, 0
2, 6533, Note_on_c, 0, 79, 0
2, 6533, Note_on_c, 0, 82, 0
2, 6533, Note_on_c, 0, 86, 0
2, 6606, Note_on_c, 0, 55, 80
2, 6606, Note_on_c, 0, 58, 80
2, 6606, Note_on_c, 0, 60, 80
2, 6606, Note_on_c, 0, 64, 80
2, 6606, Note_on_c, 0, 72, 80
2, 6606, Note_on_c, 0, 79, 80
2, 6606, Note_on_c, 0, 82, 80
2, 6606, Note_on_c, 0, 84, 80
2, 6634, Note_on_c, 0, 64, 0
2, 6634, Note_on_c, 0, 60, 0
2, 6634, Note_on_c, 0, 58, 0
2, 6634, Note_on_c, 0, 55, 0
2, 6636, Note_on_c, 0, 72, 0
2, 6636, Note_on_c, 0, 82, 0
2, 6636, Note_on_c, 0, 84, 0
2, 6636, Note_on_c, 0, 79, 0
2, 6709, Note_on_c, 0, 74, 80
2, 6709, Note_on_c, 0, 79, 80
2, 6709, Note_on_c, 0, 82, 80
2, 6709, Note_on_c, 0, 86, 80
2, 6725, Note_on_c, 0, 79, 0
2, 6727, Note_on_c, 0, 82, 0
2, 6737, Note_on_c, 0, 74, 0
2, 6739, Note_on_c, 0, 86, 0
2, 6755, Note_on_c, 0, 36, 80
2, 6757, Note_on_c, 0, 72, 80
2, 6757, Note_on_c, 0, 82, 80
2, 6757, Note_on_c, 0, 84, 80
2, 6759, Note_on_c, 0, 79, 80
2, 6785, Note_on_c, 0, 36, 0
2, 6787, Note_on_c, 0, 72, 0
2, 6787, Note_on_c, 0, 82, 0
2, 6787, Note_on_c, 0, 84, 0
2, 6787, Note_on_c, 0, 79, 0
2, 6862, Note_on_c, 0, 70, 80
2, 6862, Note_on_c, 0, 76, 80
2, 6862, Note_on_c, 0, 82, 80
2, 6881, Note_on_c, 0, 76, 0
2, 6892, Note_on_c, 0, 70, 0
2, 6894, Note_on_c, 0, 82, 0
2, 6911, Note_on_c, 0, 55, 80
2, 6911, Note_on_c, 0, 58, 80
2, 6911, Note_on_c, 0, 60, 80
2, 6911, Note_on_c, 0, 64, 80
2, 6911, Note_on_c, 0, 67, 80
2, 6911, Note_on_c, 0, 76, 80
2, 6912, Note_on_c, 0, 79, 80
2, 6938, Note_on_c, 0, 55, 0
2, 6938, Note_on_c, 0, 52, 0
2, 6940, Note_on_c, 0, 67, 0
2, 6940, Note_on_c, 0, 60, 0
2, 6940, Note_on_c, 0, 64, 0
2, 6940, Note_on_c, 0, 79, 0
2, 6940, Note_on_c, 0, 76, 0
2, 7008, Note_on_c, 0, 48, 80
2, 7010, Note_on_c, 0, 69, 80
2, 7010, Note_on_c, 0, 76, 80
2, 7010, Note_on_c, 0, 81, 80
2, 7036, Note_on_c, 0, 76, 0
2, 7036, Note_on_c, 0, 48, 0
2, 7036, Note_on_c, 0, 58, 0
2, 7038, Note_on_c, 0, 69, 0
2, 7038, Note_on_c, 0, 81, 0
2, 7057, Control_c, 0, 64, 127
2, 7057, Note_on_c, 0, 57, 80
2, 7059, Note_on_c, 0, 60, 80
2, 7059, Note_on_c, 0, 67, 80
2, 7059, Note_on_c, 0, 75, 80
2, 7059, Note_on_c, 0, 79, 80
2, 7123, Control_c, 0, 64, 0
2, 7125, Note_on_c, 0, 67, 0
2, 7125, Note_on_c, 0, 60, 0
2, 7127, Note_on_c, 0, 79, 0
2, 7127, Note_on_c, 0, 75, 0
2, 7164, Note_on_c, 0, 57, 0
2, 7213, Note_on_c, 0, 53, 80
2, 7213, Note_on_c, 0, 57, 80
2, 7213, Note_on_c, 0, 62, 80
2, 7213, Note_on_c, 0, 68, 80
2, 7213, Note_on_c, 0, 71, 80
2, 7213, Note_on_c, 0, 74, 80
2, 7253, Note_on_c, 0, 62, 0
2, 7255, Note_on_c, 0, 53, 0
2, 7255, Note_on_c, 0, 68, 0
2, 7255, Note_on_c, 0, 71, 0
2, 7255, Note_on_c, 0, 74, 0
2, 7319, Note_on_c, 0, 63, 80
2, 7319, Note_on_c, 0, 69, 80
2, 7319, Note_on_c, 0, 72, 80
2, 7319, Note_on_c, 0, 75, 80
2, 7368, Note_on_c, 0, 41, 80
2, 7369, Note_on_c, 0, 48, 80
2, 7392, Note_on_c, 0, 41, 0
2, 7394, Note_on_c, 0, 48, 0
2, 7446, Note_on_c, 0, 63, 0
2, 7446, Note_on_c, 0, 57, 0
2, 7446, Note_on_c, 0, 72, 0
2, 7448, Note_on_c, 0, 69, 0
2, 7448, Note_on_c, 0, 75, 0
2, 7521, Note_on_c, 0, 53, 80
2, 7521, Note_on_c, 0, 57, 80
2, 7521, Note_on_c, 0, 60, 80
2, 7521, Note_on_c, 0, 63, 80
2, 7521, Note_on_c, 0, 65, 80
2, 7521, Note_on_c, 0, 69, 80
2, 7521, Note_on_c, 0, 72, 80
2, 7521, Note_on_c, 0, 75, 80
2, 7521, Note_on_c, 0, 77, 80
2, 7549, Note_on_c, 0, 63, 0
2, 7549, Note_on_c, 0, 53, 0
2, 7551, Note_on_c, 0, 60, 0
2, 7608, Note_on_c, 0, 72, 0
2, 7609, Note_on_c, 0, 69, 0
2, 7609, Note_on_c, 0, 65, 0
2, 7609, Note_on_c, 0, 77, 0
2, 7609, Note_on_c, 0, 57, 0
2, 7609, Note_on_c, 0, 75, 0
2, 7614, Note_on_c, 0, 38, 80
2, 7645, Note_on_c, 0, 38, 0
2, 7664, Control_c, 0, 64, 127
2, 7664, Note_on_c, 0, 50, 80
2, 7664, Note_on_c, 0, 58, 80
2, 7746, Control_c, 0, 64, 0
2, 7757, Note_on_c, 0, 58, 0
2, 7764, Note_on_c, 0, 61, 80
2, 7764, Note_on_c, 0, 70, 80
2, 7764, Note_on_c, 0, 73, 80
2, 7783, Note_on_c, 0, 70, 0
2, 7809, Note_on_c, 0, 61, 0
2, 7816, Note_on_c, 0, 53, 80
2, 7816, Note_on_c, 0, 58, 80
2, 7816, Note_on_c, 0, 62, 80
2, 7816, Note_on_c, 0, 70, 80
2, 7816, Note_on_c, 0, 74, 80
2, 7823, Note_on_c, 0, 73, 0
2, 7860, Note_on_c, 0, 70, 0
2, 7862, Note_on_c, 0, 53, 0
2, 7862, Note_on_c, 0, 58, 0
2, 7862, Note_on_c, 0, 62, 0
2, 7862, Note_on_c, 0, 74, 0
2, 7920, Note_on_c, 0, 69, 80
2, 7922, Note_on_c, 0, 76, 80
2, 7922, Note_on_c, 0, 81, 80
2, 7937, Note_on_c, 0, 50, 0
2, 7972, Note_on_c, 0, 37, 80
2, 7972, Note_on_c, 0, 49, 80
2, 8000, Note_on_c, 0, 37, 0
2, 8019, Note_on_c, 0, 69, 0
2, 8019, Note_on_c, 0, 81, 0
2, 8019, Note_on_c, 0, 76, 0
2, 8078, Note_on_c, 0, 68, 80
2, 8078, Note_on_c, 0, 76, 80
2, 8080, Note_on_c, 0, 80, 80
2, 8099, Note_on_c, 0, 76, 0
2, 8109, Note_on_c, 0, 68, 0
2, 8111, Note_on_c, 0, 80, 0
2, 8130, Note_on_c, 0, 55, 80
2, 8130, Note_on_c, 0, 58, 80
2, 8130, Note_on_c, 0, 61, 80
2, 8130, Note_on_c, 0, 64, 80
2, 8130, Note_on_c, 0, 67, 80
2, 8130, Note_on_c, 0, 76, 80
2, 8130, Note_on_c, 0, 79, 80
2, 8158, Note_on_c, 0, 67, 0
2, 8158, Note_on_c, 0, 61, 0
2, 8158, Note_on_c, 0, 55, 0
2, 8158, Note_on_c, 0, 64, 0
2, 8160, Note_on_c, 0, 76, 0
2, 8160, Note_on_c, 0, 79, 0
2, 8160, Note_on_c, 0, 58, 0
2, 8230, Note_on_c, 0, 36, 80
2, 8232, Note_on_c, 0, 69, 80
2, 8232, Note_on_c, 0, 76, 80
2, 8232, Note_on_c, 0, 81, 80
2, 8248, Note_on_c, 0, 49, 0
2, 8279, Note_on_c, 0, 76, 0
2, 8279, Note_on_c, 0, 81, 0
2, 8279, Note_on_c, 0, 69, 0
2, 8279, Control_c, 0, 64, 127
2, 8283, Note_on_c, 0, 48, 80
2, 8285, Note_on_c, 0, 67, 80
2, 8285, Note_on_c, 0, 75, 80
2, 8285, Note_on_c, 0, 79, 80
2, 8287, Note_on_c, 0, 36, 0
2, 8348, Control_c, 0, 64, 0
2, 8418, Note_on_c, 0, 75, 0
2, 8418, Note_on_c, 0, 79, 0
2, 8418, Note_on_c, 0, 67, 0
2, 8437, Note_on_c, 0, 53, 80
2, 8437, Note_on_c, 0, 57, 80
2, 8437, Note_on_c, 0, 60, 80
2, 8437, Note_on_c, 0, 63, 80
2, 8468, Note_on_c, 0, 63, 0
2, 8468, Note_on_c, 0, 57, 0
2, 8468, Note_on_c, 0, 60, 0
2, 8468, Note_on_c, 0, 53, 0
2, 8547, Note_on_c, 0, 62, 80
2, 8547, Note_on_c, 0, 74, 80
2, 8590, Note_on_c, 0, 74, 0
2, 8590, Note_on_c, 0, 62, 0
2, 8599, Note_on_c, 0, 63, 80
2, 8599, Note_on_c, 0, 69, 80
2, 8599, Note_on_c, 0, 72, 80
2, 8599, Note_on_c, 0, 75, 80
2, 8609, Note_on_c, 0, 29, 80
2, 8640, Note_on_c, 0, 29, 0
2, 8641, Note_on_c, 0, 48, 0
2, 8641, Note_on_c, 0, 63, 0
2, 8643, Note_on_c, 0, 72, 0
2, 8643, Note_on_c, 0, 75, 0
2, 8643, Note_on_c, 0, 69, 0
2, 8704, Note_on_c, 0, 67, 80
2, 8704, Note_on_c, 0, 72, 80
2, 8706, Note_on_c, 0, 75, 80
2, 8706, Note_on_c, 0, 79, 80
2, 8748, Note_on_c, 0, 67, 0
2, 8750, Note_on_c, 0, 79, 0
2, 8752, Note_on_c, 0, 60, 80
2, 8754, Note_on_c, 0, 53, 80
2, 8754, Note_on_c, 0, 57, 80
2, 8754, Note_on_c, 0, 63, 80
2, 8754, Note_on_c, 0, 65, 80
2, 8754, Note_on_c, 0, 69, 80
2, 8754, Note_on_c, 0, 77, 80
2, 8798, Note_on_c, 0, 53, 0
2, 8798, Note_on_c, 0, 60, 0
2, 8798, Note_on_c, 0, 72, 0
2, 8800, Note_on_c, 0, 65, 0
2, 8800, Note_on_c, 0, 75, 0
2, 8800, Note_on_c, 0, 77, 0
2, 8800, Note_on_c, 0, 63, 0
2, 8802, Note_on_c, 0, 69, 0
2, 8858, Note_on_c, 0, 63, 80
2, 8858, Note_on_c, 0, 69, 80
2, 8858, Note_on_c, 0, 72, 80
2, 8858, Note_on_c, 0, 75, 80
2, 8863, Note_on_c, 0, 57, 0
2, 8889, Note_on_c, 0, 63, 0
2, 8891, Note_on_c, 0, 72, 0
2, 8891, Note_on_c, 0, 69, 0
2, 8891, Note_on_c, 0, 75, 0
2, 8907, Control_c, 0, 64, 127
2, 8909, Note_on_c, 0, 46, 80
2, 8909, Note_on_c, 0, 56, 80
2, 8909, Note_on_c, 0, 62, 80
2, 8909, Note_on_c, 0, 70, 80
2, 8909, Note_on_c, 0, 74, 80
2, 8940, Note_on_c, 0, 62, 0
2, 8940, Note_on_c, 0, 46, 0
2, 8942, Note_on_c, 0, 74, 0
2, 8942, Note_on_c, 0, 70, 0
2, 8977, Control_c, 0, 64, 0
2, 9015, Note_on_c, 0, 77, 80
2, 9017, Note_on_c, 0, 65, 80
2, 9019, Note_on_c, 0, 56, 0
2, 9033, Note_on_c, 0, 77, 0
2, 9059, Note_on_c, 0, 65, 0
2, 9064, Note_on_c, 0, 53, 80
2, 9064, Note_on_c, 0, 56, 80
2, 9064, Note_on_c, 0, 58, 80
2, 9066, Note_on_c, 0, 62, 80
2, 9066, Note_on_c, 0, 68, 80
2, 9066, Note_on_c, 0, 74, 80
2, 9066, Note_on_c, 0, 77, 80
2, 9066, Note_on_c, 0, 80, 80
2, 9085, Note_on_c, 0, 62, 0
2, 9095, Note_on_c, 0, 53, 0
2, 9096, Note_on_c, 0, 74, 0
2, 9096, Note_on_c, 0, 58, 0
2, 9096, Note_on_c, 0, 68, 0
2, 9096, Note_on_c, 0, 80, 0
2, 9096, Note_on_c, 0, 77, 0
2, 9169, Note_on_c, 0, 74, 80
2, 9169, Note_on_c, 0, 80, 80
2, 9169, Note_on_c, 0, 86, 80
2, 9218, Note_on_c, 0, 41, 80
2, 9261, Note_on_c, 0, 41, 0
2, 9263, Note_on_c, 0, 80, 0
2, 9263, Note_on_c, 0, 86, 0
2, 9263, Note_on_c, 0, 74, 0
2, 9319, Note_on_c, 0, 73, 80
2, 9319, Note_on_c, 0, 85, 80
2, 9350, Note_on_c, 0, 73, 0
2, 9352, Note_on_c, 0, 85, 0
2, 9368, Note_on_c, 0, 53, 80
2, 9368, Note_on_c, 0, 58, 80
2, 9368, Note_on_c, 0, 62, 80
2, 9370, Note_on_c, 0, 72, 80
2, 9370, Note_on_c, 0, 80, 80
2, 9370, Note_on_c, 0, 84, 80
2, 9389, Note_on_c, 0, 62, 0
2, 9399, Note_on_c, 0, 53, 0
2, 9399, Note_on_c, 0, 72, 0
2, 9399, Note_on_c, 0, 58, 0
2, 9399, Note_on_c, 0, 84, 0
2, 9401, Note_on_c, 0, 80, 0
2, 9469, Note_on_c, 0, 39, 80
2, 9471, Note_on_c, 0, 74, 80
2, 9473, Note_on_c, 0, 80, 80
2, 9473, Note_on_c, 0, 86, 80
2, 9487, Note_on_c, 0, 56, 0
2, 9499, Note_on_c, 0, 39, 0
2, 9501, Note_on_c, 0, 74, 0
2, 9503, Note_on_c, 0, 80, 0
2, 9503, Note_on_c, 0, 86, 0
2, 9519, Note_on_c, 0, 46, 80
2, 9519, Note_on_c, 0, 55, 80
2, 9521, Note_on_c, 0, 72, 80
2, 9521, Note_on_c, 0, 79, 80
2, 9521, Note_on_c, 0, 84, 80
2, 9549, Note_on_c, 0, 46, 0
2, 9553, Control_c, 0, 64, 127
2, 9602, Note_on_c, 0, 79, 0
2, 9602, Note_on_c, 0, 84, 0
2, 9602, Note_on_c, 0, 72, 0
2, 9651, Control_c, 0, 64, 0
2, 9677, Note_on_c, 0, 58, 80
2, 9677, Note_on_c, 0, 63, 80
2, 9677, Note_on_c, 0, 67, 80
2, 9677, Note_on_c, 0, 71, 80
2, 9677, Note_on_c, 0, 83, 80
2, 9705, Note_on_c, 0, 83, 0
2, 9705, Note_on_c, 0, 58, 0
2, 9705, Note_on_c, 0, 63, 0
2, 9705, Note_on_c, 0, 67, 0
2, 9705, Note_on_c, 0, 71, 0
2, 9757, Note_on_c, 0, 55, 0
2, 9776, Note_on_c, 0, 46, 80
2, 9778, Note_on_c, 0, 70, 80
2, 9778, Note_on_c, 0, 75, 80
2, 9778, Note_on_c, 0, 79, 80
2, 9780, Note_on_c, 0, 82, 80
2, 9820, Note_on_c, 0, 46, 0
2, 9827, Note_on_c, 0, 55, 80
2, 9827, Note_on_c, 0, 58, 80
2, 9848, Note_on_c, 0, 70, 0
2, 9860, Note_on_c, 0, 82, 0
2, 9860, Note_on_c, 0, 79, 0
2, 9860, Note_on_c, 0, 75, 0
2, 9886, Note_on_c, 0, 58, 0
2, 9933, Note_on_c, 0, 69, 80
2, 9933, Note_on_c, 0, 81, 80
2, 9977, Note_on_c, 0, 69, 0
2, 9979, Note_on_c, 0, 81, 0
2, 9984, Note_on_c, 0, 58, 80
2, 9984, Note_on_c, 0, 63, 80
2, 9984, Note_on_c, 0, 67, 80
2, 9984, Note_on_c, 0, 70, 80
2, 9985, Note_on_c, 0, 82, 80
2, 10028, Note_on_c, 0, 67, 0
2, 10028, Note_on_c, 0, 63, 0
2, 10039, Note_on_c, 0, 82, 0
2, 10054, Note_on_c, 0, 58, 0
2, 10056, Note_on_c, 0, 70, 0
2, 10088, Note_on_c, 0, 71, 80
2, 10090, Note_on_c, 0, 83, 80
2, 10104, Note_on_c, 0, 55, 0
2, 10130, Note_on_c, 0, 71, 0
2, 10132, Note_on_c, 0, 83, 0
2, 10134, Control_c, 0, 64, 127
2, 10136, Note_on_c, 0, 39, 80
2, 10136, Note_on_c, 0, 51, 80
2, 10138, Note_on_c, 0, 72, 80
2, 10138, Note_on_c, 0, 79, 80
2, 10138, Note_on_c, 0, 84, 80
2, 10166, Note_on_c, 0, 79, 0
2, 10168, Note_on_c, 0, 72, 0
2, 10168, Note_on_c, 0, 84, 0
2, 10177, Note_on_c, 0, 39, 0
2, 10203, Control_c, 0, 64, 0
2, 10239, Note_on_c, 0, 70, 80
2, 10239, Note_on_c, 0, 82, 80
2, 10270, Note_on_c, 0, 82, 0
2, 10270, Note_on_c, 0, 70, 0
2, 10291, Note_on_c, 0, 58, 80
2, 10291, Note_on_c, 0, 69, 80
2, 10293, Note_on_c, 0, 63, 80
2, 10293, Note_on_c, 0, 81, 80
2, 10319, Note_on_c, 0, 81, 0
2, 10319, Note_on_c, 0, 69, 0
2, 10319, Note_on_c, 0, 63, 0
2, 10320, Note_on_c, 0, 58, 0
2, 10391, Note_on_c, 0, 67, 80
2, 10391, Note_on_c, 0, 79, 80
2, 10407, Note_on_c, 0, 51, 0
2, 10433, Note_on_c, 0, 79, 0
2, 10433, Note_on_c, 0, 67, 0
2, 10438, Note_on_c, 0, 40, 80
2, 10438, Note_on_c, 0, 52, 80
2, 10438, Note_on_c, 0, 72, 80
2, 10440, Note_on_c, 0, 84, 80
2, 10480, Note_on_c, 0, 72, 0
2, 10480, Note_on_c, 0, 40, 0
2, 10482, Note_on_c, 0, 84, 0
2, 10538, Note_on_c, 0, 70, 80
2, 10540, Note_on_c, 0, 82, 80
2, 10584, Note_on_c, 0, 82, 0
2, 10584, Note_on_c, 0, 70, 0
2, 10591, Note_on_c, 0, 58, 80
2, 10591, Note_on_c, 0, 61, 80
2, 10591, Note_on_c, 0, 64, 80
2, 10591, Note_on_c, 0, 69, 80
2, 10591, Note_on_c, 0, 81, 80
2, 10622, Note_on_c, 0, 64, 0
2, 10622, Note_on_c, 0, 61, 0
2, 10622, Note_on_c, 0, 58, 0
2, 10636, Note_on_c, 0, 69, 0
2, 10638, Note_on_c, 0, 81, 0
2, 10692, Note_on_c, 0, 67, 80
2, 10692, Note_on_c, 0, 74, 80
2, 10692, Note_on_c, 0, 79, 80
2, 10708, Note_on_c, 0, 52, 0
2, 10710, Note_on_c, 0, 74, 0
2, 10722, Note_on_c, 0, 67, 0
2, 10727, Note_on_c, 0, 79, 0
2, 10743, Control_c, 0, 64, 127
2, 10745, Note_on_c, 0, 41, 80
2, 10747, Note_on_c, 0, 53, 80
2, 10747, Note_on_c, 0, 65, 80
2, 10747, Note_on_c, 0, 74, 80
2, 10747, Note_on_c, 0, 77, 80
2, 10775, Note_on_c, 0, 77, 0
2, 10775, Note_on_c, 0, 65, 0
2, 10775, Note_on_c, 0, 74, 0
2, 10786, Note_on_c, 0, 41, 0
2, 10822, Control_c, 0, 64, 0
2, 10838, Note_on_c, 0, 53, 0
2, 10849, Note_on_c, 0, 61, 80
2, 10849, Note_on_c, 0, 73, 80
2, 10880, Note_on_c, 0, 73, 0
2, 10880, Note_on_c, 0, 61, 0
2, 10901, Note_on_c, 0, 53, 80
2, 10901, Note_on_c, 0, 58, 80
2, 10901, Note_on_c, 0, 62, 80
2, 10901, Note_on_c, 0, 70, 80
2, 10901, Note_on_c, 0, 74, 80
2, 10920, Note_on_c, 0, 62, 0
2, 10932, Note_on_c, 0, 70, 0
2, 10932, Note_on_c, 0, 74, 0
2, 10958, Note_on_c, 0, 58, 0
2, 11007, Note_on_c, 0, 69, 80
2, 11009, Note_on_c, 0, 77, 80
2, 11009, Note_on_c, 0, 81, 80
2, 11011, Note_on_c, 0, 53, 0
2, 11058, Note_on_c, 0, 38, 80
2, 11058, Note_on_c, 0, 50, 80
2, 11100, Note_on_c, 0, 38, 0
2, 11212, Note_on_c, 0, 55, 80
2, 11212, Note_on_c, 0, 59, 80
2, 11214, Note_on_c, 0, 62, 80
2, 11214, Note_on_c, 0, 65, 80
2, 11235, Note_on_c, 0, 62, 0
2, 11242, Note_on_c, 0, 65, 0
2, 11242, Note_on_c, 0, 55, 0
2, 11242, Note_on_c, 0, 81, 0
2, 11242, Note_on_c, 0, 59, 0
2, 11244, Note_on_c, 0, 77, 0
2, 11244, Note_on_c, 0, 69, 0
2, 11317, Note_on_c, 0, 36, 80
2, 11322, Note_on_c, 0, 67, 80
2, 11322, Note_on_c, 0, 76, 80
2, 11322, Note_on_c, 0, 79, 80
2, 11338, Note_on_c, 0, 50, 0
2, 11340, Note_on_c, 0, 76, 0
2, 11340, Note_on_c, 0, 79, 0
2, 11350, Note_on_c, 0, 67, 0
2, 11361, Note_on_c, 0, 36, 0
2, 11368, Control_c, 0, 64, 127
2, 11368, Note_on_c, 0, 43, 80
2, 11370, Note_on_c, 0, 52, 80
2, 11370, Note_on_c, 0, 70, 80
2, 11372, Note_on_c, 0, 76, 80
2, 11372, Note_on_c, 0, 79, 80
2, 11372, Note_on_c, 0, 82, 80
2, 11391, Note_on_c, 0, 79, 0
2, 11391, Note_on_c, 0, 76, 0
2, 11400, Note_on_c, 0, 43, 0
2, 11402, Note_on_c, 0, 70, 0
2, 11402, Note_on_c, 0, 82, 0
2, 11422, Note_on_c, 0, 72, 80
2, 11424, Note_on_c, 0, 76, 80
2, 11424, Note_on_c, 0, 79, 80
2, 11424, Note_on_c, 0, 84, 80
2, 11440, Note_on_c, 0, 79, 0
2, 11440, Note_on_c, 0, 76, 0
2, 11449, Control_c, 0, 64, 0
2, 11451, Note_on_c, 0, 72, 0
2, 11453, Note_on_c, 0, 84, 0
2, 11474, Note_on_c, 0, 70, 80
2, 11474, Note_on_c, 0, 76, 80
2, 11474, Note_on_c, 0, 82, 80
2, 11496, Note_on_c, 0, 76, 0
2, 11505, Note_on_c, 0, 52, 0
2, 11507, Note_on_c, 0, 70, 0
2, 11507, Note_on_c, 0, 82, 0
2, 11523, Note_on_c, 0, 58, 80
2, 11525, Note_on_c, 0, 55, 80
2, 11525, Note_on_c, 0, 60, 80
2, 11525, Note_on_c, 0, 64, 80
2, 11525, Note_on_c, 0, 67, 80
2, 11525, Note_on_c, 0, 76, 80
2, 11525, Note_on_c, 0, 79, 80
2, 11556, Note_on_c, 0, 79, 0
2, 11556, Note_on_c, 0, 67, 0
2, 11556, Note_on_c, 0, 58, 0
2, 11556, Note_on_c, 0, 60, 0
2, 11556, Note_on_c, 0, 64, 0
2, 11556, Note_on_c, 0, 76, 0
2, 11626, Note_on_c, 0, 41, 80
2, 11628, Note_on_c, 0, 66, 80
2, 11628, Note_on_c, 0, 78, 80
2, 11659, Note_on_c, 0, 55, 0
2, 11670, Note_on_c, 0, 41, 0
2, 11670, Note_on_c, 0, 66, 0
2, 11672, Note_on_c, 0, 78, 0
2, 11679, Note_on_c, 0, 48, 80
2, 11679, Note_on_c, 0, 57, 80
2, 11679, Note_on_c, 0, 65, 80
2, 11679, Note_on_c, 0, 69, 80
2, 11679, Note_on_c, 0, 77, 80
2, 11721, Note_on_c, 0, 77, 0
2, 11721, Note_on_c, 0, 65, 0
2, 11721, Note_on_c, 0, 69, 0
2, 11721, Note_on_c, 0, 48, 0
2, 11782, Note_on_c, 0, 65, 80
2, 11782, Note_on_c, 0, 69, 80
2, 11782, Note_on_c, 0, 73, 80
2, 11786, Note_on_c, 0, 57, 0
2, 11801, Note_on_c, 0, 65, 0
2, 11824, Note_on_c, 0, 69, 0
2, 11824, Note_on_c, 0, 73, 0
2, 11831, Note_on_c, 0, 53, 80
2, 11831, Note_on_c, 0, 57, 80
2, 11831, Note_on_c, 0, 60, 80
2, 11831, Note_on_c, 0, 63, 80
2, 11831, Note_on_c, 0, 65, 80
2, 11831, Note_on_c, 0, 74, 80
2, 11899, Note_on_c, 0, 74, 0
2, 11899, Note_on_c, 0, 57, 0
2, 11899, Note_on_c, 0, 60, 0
2, 11899, Note_on_c, 0, 53, 0
2, 11899, Note_on_c, 0, 65, 0
2, 11899, Note_on_c, 0, 63, 0
2, 11931, Note_on_c, 0, 70, 80
2, 11980, Control_c, 0, 64, 127
2, 11982, Note_on_c, 0, 46, 80
2, 11982, Note_on_c, 0, 50, 80
2, 11982, Note_on_c, 0, 53, 80
2, 11982, Note_on_c, 0, 58, 80
2, 12026, Note_on_c, 0, 58, 0
2, 12026, Note_on_c, 0, 50, 0
2, 12026, Note_on_c, 0, 53, 0
2, 12026, Note_on_c, 0, 46, 0
2, 12028, Note_on_c, 0, 70, 0
2, 12033, Control_c, 0, 64, 0
2, 12082, Note_on_c, 0, 43, 80
2, 12082, Note_on_c, 0, 47, 80
2, 12082, Note_on_c, 0, 52, 80
2, 12082, Note_on_c, 0, 73, 80
2, 12084, Note_on_c, 0, 79, 80
2, 12084, Note_on_c, 0, 82, 80
2, 12084, Note_on_c, 0, 85, 80
2, 12096, Note_on_c, 0, 47, 0
2, 12097, Note_on_c, 0, 73, 0
2, 12097, Note_on_c, 0, 43, 0
2, 12097, Note_on_c, 0, 52, 0
2, 12099, Note_on_c, 0, 85, 0
2, 12099, Note_on_c, 0, 79, 0
2, 12099, Note_on_c, 0, 82, 0
2, 12130, Note_on_c, 0, 43, 80
2, 12130, Note_on_c, 0, 52, 80
2, 12132, Note_on_c, 0, 73, 80
2, 12132, Note_on_c, 0, 79, 80
2, 12132, Note_on_c, 0, 82, 80
2, 12132, Note_on_c, 0, 85, 80
2, 12142, Note_on_c, 0, 40, 80
2, 12142, Note_on_c, 0, 47, 80
2, 12161, Note_on_c, 0, 40, 0
2, 12161, Note_on_c, 0, 43, 0
2, 12161, Note_on_c, 0, 52, 0
2, 12161, Note_on_c, 0, 73, 0
2, 12163, Note_on_c, 0, 82, 0
2, 12163, Note_on_c, 0, 47, 0
2, 12163, Note_on_c, 0, 85, 0
2, 12163, Note_on_c, 0, 79, 0
2, 12231, Note_on_c, 0, 43, 80
2, 12231, Note_on_c, 0, 47, 80
2, 12231, Note_on_c, 0, 52, 80
2, 12233, Note_on_c, 0, 79, 80
2, 12233, Note_on_c, 0, 82, 80
2, 12233, Note_on_c, 0, 85, 80
2, 12249, Note_on_c, 0, 52, 0
2, 12249, Note_on_c, 0, 43, 0
2, 12249, Note_on_c, 0, 47, 0
2, 12251, Note_on_c, 0, 79, 0
2, 12251, Note_on_c, 0, 85, 0
2, 12253, Note_on_c, 0, 82, 0
2, 12281, Note_on_c, 0, 43, 80
2, 12281, Note_on_c, 0, 47, 80
2, 12283, Note_on_c, 0, 52, 80
2, 12283, Note_on_c, 0, 73, 80
2, 12283, Note_on_c, 0, 79, 80
2, 12283, Note_on_c, 0, 82, 80
2, 12283, Note_on_c, 0, 85, 80
2, 12292, Note_on_c, 0, 40, 80
2, 12312, Note_on_c, 0, 52, 0
2, 12312, Note_on_c, 0, 43, 0
2, 12312, Note_on_c, 0, 47, 0
2, 12313, Note_on_c, 0, 82, 0
2, 12313, Note_on_c, 0, 79, 0
2, 12313, Note_on_c, 0, 40, 0
2, 12313, Note_on_c, 0, 85, 0
2, 12313, Note_on_c, 0, 73, 0
2, 12386, Note_on_c, 0, 43, 80
2, 12386, Note_on_c, 0, 47, 80
2, 12386, Note_on_c, 0, 52, 80
2, 12386, Note_on_c, 0, 73, 80
2, 12386, Note_on_c, 0, 85, 80
2, 12388, Note_on_c, 0, 79, 80
2, 12388, Note_on_c, 0, 82, 80
2, 12405, Note_on_c, 0, 73, 0
2, 12405, Note_on_c, 0, 52, 0
2, 12405, Note_on_c, 0, 43, 0
2, 12405, Note_on_c, 0, 47, 0
2, 12407, Note_on_c, 0, 82, 0
2, 12407, Note_on_c, 0, 85, 0
2, 12407, Note_on_c, 0, 79, 0
2, 12434, Note_on_c, 0, 43, 80
2, 12434, Note_on_c, 0, 47, 80
2, 12434, Note_on_c, 0, 52, 80
2, 12436, Note_on_c, 0, 73, 80
2, 12436, Note_on_c, 0, 79, 80
2, 12436, Note_on_c, 0, 82, 80
2, 12436, Note_on_c, 0, 85, 80
2, 12448, Note_on_c, 0, 40, 80
2, 12464, Note_on_c, 0, 40, 0
2, 12464, Note_on_c, 0, 52, 0
2, 12464, Note_on_c, 0, 43, 0
2, 12464, Note_on_c, 0, 47, 0
2, 12466, Note_on_c, 0, 79, 0
2, 12466, Note_on_c, 0, 73, 0
2, 12466, Note_on_c, 0, 82, 0
2, 12466, Note_on_c, 0, 85, 0
2, 12534, Note_on_c, 0, 43, 80
2, 12536, Note_on_c, 0, 47, 80
2, 12536, Note_on_c, 0, 52, 80
2, 12536, Note_on_c, 0, 73, 80
2, 12536, Note_on_c, 0, 79, 80
2, 12536, Note_on_c, 0, 82, 80
2, 12536, Note_on_c, 0, 85, 80
2, 12548, Note_on_c, 0, 40, 80
2, 12557, Note_on_c, 0, 82, 0
2, 12567, Note_on_c, 0, 73, 0
2, 12569, Note_on_c, 0, 79, 0
2, 12569, Note_on_c, 0, 85, 0
2, 12580, Note_on_c, 0, 52, 0
2, 12580, Note_on_c, 0, 40, 0
2, 12580, Note_on_c, 0, 47, 0
2, 12580, Note_on_c, 0, 43, 0
2, 12587, Control_c, 0, 64, 127
2, 12587, Note_on_c, 0, 41, 80
2, 12589, Note_on_c, 0, 53, 80
2, 12589, Note_on_c, 0, 74, 80
2, 12589, Note_on_c, 0, 80, 80
2, 12589, Note_on_c, 0, 82, 80
2, 12589, Note_on_c, 0, 86, 80
2, 12629, Note_on_c, 0, 41, 0
2, 12631, Note_on_c, 0, 74, 0
2, 12631, Note_on_c, 0, 80, 0
2, 12631, Note_on_c, 0, 82, 0
2, 12631, Note_on_c, 0, 86, 0
2, 12657, Control_c, 0, 64, 0
2, 12690, Note_on_c, 0, 72, 80
2, 12690, Note_on_c, 0, 80, 80
2, 12692, Note_on_c, 0, 84, 80
2, 12711, Note_on_c, 0, 80, 0
2, 12722, Note_on_c, 0, 84, 0
2, 12722, Note_on_c, 0, 72, 0
2, 12744, Note_on_c, 0, 56, 80
2, 12744, Note_on_c, 0, 58, 80
2, 12744, Note_on_c, 0, 65, 80
2, 12744, Note_on_c, 0, 70, 80
2, 12744, Note_on_c, 0, 74, 80
2, 12744, Note_on_c, 0, 80, 80
2, 12744, Note_on_c, 0, 82, 80
2, 12750, Note_on_c, 0, 62, 80
2, 12771, Note_on_c, 0, 62, 0
2, 12771, Note_on_c, 0, 74, 0
2, 12771, Note_on_c, 0, 65, 0
2, 12771, Note_on_c, 0, 58, 0
2, 12771, Note_on_c, 0, 56, 0
2, 12771, Note_on_c, 0, 70, 0
2, 12773, Note_on_c, 0, 82, 0
2, 12773, Note_on_c, 0, 80, 0
2, 12843, Note_on_c, 0, 72, 80
2, 12843, Note_on_c, 0, 74, 80
2, 12843, Note_on_c, 0, 80, 80
2, 12843, Note_on_c, 0, 84, 80
2, 12892, Note_on_c, 0, 34, 80
2, 12933, Note_on_c, 0, 34, 0
2, 13045, Note_on_c, 0, 56, 80
2, 13045, Note_on_c, 0, 58, 80
2, 13045, Note_on_c, 0, 62, 80
2, 13045, Note_on_c, 0, 65, 80
2, 13071, Note_on_c, 0, 62, 0
2, 13071, Note_on_c, 0, 58, 0
2, 13071, Note_on_c, 0, 56, 0
2, 13073, Note_on_c, 0, 65, 0
2, 13073, Note_on_c, 0, 53, 0
2, 13125, Note_on_c, 0, 80, 0
2, 13125, Note_on_c, 0, 84, 0
2, 13125, Note_on_c, 0, 74, 0
2, 13125, Note_on_c, 0, 72, 0
2, 13195, Control_c, 0, 64, 127
2, 13197, Note_on_c, 0, 41, 80
2, 13197, Note_on_c, 0, 53, 80
2, 13197, Note_on_c, 0, 74, 80
2, 13197, Note_on_c, 0, 82, 80
2, 13197, Note_on_c, 0, 86, 80
2, 13224, Note_on_c, 0, 86, 0
2, 13224, Note_on_c, 0, 74, 0
2, 13224, Note_on_c, 0, 82, 0
2, 13236, Note_on_c, 0, 41, 0
2, 13273, Control_c, 0, 64, 0
2, 13296, Note_on_c, 0, 75, 80
2, 13296, Note_on_c, 0, 82, 80
2, 13296, Note_on_c, 0, 87, 80
2, 13329, Note_on_c, 0, 87, 0
2, 13329, Note_on_c, 0, 82, 0
2, 13329, Note_on_c, 0, 75, 0
2, 13350, Note_on_c, 0, 56, 80
2, 13350, Note_on_c, 0, 58, 80
2, 13350, Note_on_c, 0, 62, 80
2, 13350, Note_on_c, 0, 65, 80
2, 13350, Note_on_c, 0, 72, 80
2, 13350, Note_on_c, 0, 80, 80
2, 13350, Note_on_c, 0, 84, 80
2, 13378, Note_on_c, 0, 72, 0
2, 13378, Note_on_c, 0, 62, 0
2, 13378, Note_on_c, 0, 58, 0
2, 13378, Note_on_c, 0, 56, 0
2, 13378, Note_on_c, 0, 65, 0
2, 13380, Note_on_c, 0, 84, 0
2, 13380, Note_on_c, 0, 80, 0
2, 13455, Note_on_c, 0, 74, 80
2, 13455, Note_on_c, 0, 80, 80
2, 13455, Note_on_c, 0, 86, 80
2, 13474, Note_on_c, 0, 80, 0
2, 13486, Note_on_c, 0, 86, 0
2, 13486, Note_on_c, 0, 74, 0
2, 13505, Note_on_c, 0, 34, 80
2, 13507, Note_on_c, 0, 70, 80
2, 13507, Note_on_c, 0, 80, 80
2, 13507, Note_on_c, 0, 82, 80
2, 13539, Note_on_c, 0, 82, 0
2, 13539, Note_on_c, 0, 70, 0
2, 13539, Note_on_c, 0, 80, 0
2, 13539, Note_on_c, 0, 34, 0
2, 13614, Note_on_c, 0, 71, 80
2, 13614, Note_on_c, 0, 80, 80
2, 13614, Note_on_c, 0, 83, 80
2, 13633, Note_on_c, 0, 80, 0
2, 13648, Note_on_c, 0, 83, 0
2, 13648, Note_on_c, 0, 71, 0
2, 13667, Note_on_c, 0, 56, 80
2, 13667, Note_on_c, 0, 58, 80
2, 13667, Note_on_c, 0, 65, 80
2, 13667, Note_on_c, 0, 72, 80
2, 13669, Note_on_c, 0, 80, 80
2, 13669, Note_on_c, 0, 84, 80
2, 13697, Note_on_c, 0, 84, 0
2, 13697, Note_on_c, 0, 56, 0
2, 13697, Note_on_c, 0, 65, 0
2, 13697, Note_on_c, 0, 58, 0
2, 13697, Note_on_c, 0, 72, 0
2, 13699, Note_on_c, 0, 80, 0
2, 13772, Note_on_c, 0, 39, 80
2, 13772, Note_on_c, 0, 73, 80
2, 13772, Note_on_c, 0, 79, 80
2, 13772, Note_on_c, 0, 82, 80
2, 13772, Note_on_c, 0, 85, 80
2, 13791, Note_on_c, 0, 53, 0
2, 13793, Note_on_c, 0, 82, 0
2, 13793, Note_on_c, 0, 79, 0
2, 13816, Note_on_c, 0, 39, 0
2, 13818, Note_on_c, 0, 85, 0
2, 13818, Note_on_c, 0, 73, 0
2, 13823, Control_c, 0, 64, 127
2, 13823, Note_on_c, 0, 51, 80
2, 13823, Note_on_c, 0, 74, 80
2, 13823, Note_on_c, 0, 79, 80
2, 13823, Note_on_c, 0, 86, 80
2, 13824, Note_on_c, 0, 82, 80
2, 13878, Note_on_c, 0, 82, 0
2, 13878, Note_on_c, 0, 79, 0
2, 13878, Note_on_c, 0, 86, 0
2, 13878, Note_on_c, 0, 74, 0
2, 13901, Control_c, 0, 64, 0
2, 13924, Note_on_c, 0, 72, 80
2, 13924, Note_on_c, 0, 79, 80
2, 13924, Note_on_c, 0, 84, 80
2, 13945, Note_on_c, 0, 79, 0
2, 13955, Note_on_c, 0, 84, 0
2, 13957, Note_on_c, 0, 72, 0
2, 13976, Note_on_c, 0, 58, 80
2, 13978, Note_on_c, 0, 63, 80
2, 13978, Note_on_c, 0, 67, 80
2, 13978, Note_on_c, 0, 70, 80
2, 13978, Note_on_c, 0, 79, 80
2, 13978, Note_on_c, 0, 82, 80
2, 14020, Note_on_c, 0, 67, 0
2, 14022, Note_on_c, 0, 79, 0
2, 14022, Note_on_c, 0, 70, 0
2, 14022, Note_on_c, 0, 63, 0
2, 14022, Note_on_c, 0, 82, 0
2, 14037, Note_on_c, 0, 58, 0
2, 14084, Note_on_c, 0, 72, 80
2, 14084, Note_on_c, 0, 79, 80
2, 14084, Note_on_c, 0, 82, 80
2, 14084, Note_on_c, 0, 84, 80
2, 14133, Note_on_c, 0, 34, 80
2, 14175, Note_on_c, 0, 34, 0
2, 14287, Note_on_c, 0, 58, 80
2, 14287, Note_on_c, 0, 63, 80
2, 14287, Note_on_c, 0, 67, 80
2, 14329, Note_on_c, 0, 67, 0
2, 14329, Note_on_c, 0, 58, 0
2, 14331, Note_on_c, 0, 63, 0
2, 14343, Note_on_c, 0, 82, 0
2, 14343, Note_on_c, 0, 72, 0
2, 14345, Note_on_c, 0, 79, 0
2, 14345, Note_on_c, 0, 84, 0
2, 14389, Note_on_c, 0, 82, 80
2, 14417, Note_on_c, 0, 51, 0
2, 14438, Control_c, 0, 64, 127
2, 14438, Note_on_c, 0, 43, 80
2, 14440, Note_on_c, 0, 55, 80
2, 14440, Note_on_c, 0, 74, 80
2, 14440, Note_on_c, 0, 79, 80
2, 14440, Note_on_c, 0, 86, 80
2, 14482, Note_on_c, 0, 86, 0
2, 14482, Note_on_c, 0, 74, 0
2, 14482, Note_on_c, 0, 43, 0
2, 14482, Note_on_c, 0, 82, 0
2, 14482, Note_on_c, 0, 79, 0
2, 14522, Control_c, 0, 64, 0
2, 14542, Note_on_c, 0, 75, 80
2, 14542, Note_on_c, 0, 79, 80
2, 14542, Note_on_c, 0, 82, 80
2, 14542, Note_on_c, 0, 87, 80
2, 14563, Note_on_c, 0, 82, 0
2, 14563, Note_on_c, 0, 79, 0
2, 14582, Note_on_c, 0, 72, 80
2, 14587, Note_on_c, 0, 87, 0
2, 14587, Note_on_c, 0, 75, 0
2, 14593, Note_on_c, 0, 58, 80
2, 14593, Note_on_c, 0, 63, 80
2, 14593, Note_on_c, 0, 67, 80
2, 14593, Note_on_c, 0, 82, 80
2, 14593, Note_on_c, 0, 84, 80
2, 14595, Note_on_c, 0, 79, 80
2, 14633, Note_on_c, 0, 67, 0
2, 14633, Note_on_c, 0, 63, 0
2, 14633, Note_on_c, 0, 58, 0
2, 14635, Note_on_c, 0, 72, 0
2, 14635, Note_on_c, 0, 82, 0
2, 14635, Note_on_c, 0, 79, 0
2, 14635, Note_on_c, 0, 84, 0
2, 14693, Note_on_c, 0, 74, 80
2, 14693, Note_on_c, 0, 86, 80
2, 14695, Note_on_c, 0, 79, 80
2, 14695, Note_on_c, 0, 82, 80
2, 14714, Note_on_c, 0, 82, 0
2, 14714, Note_on_c, 0, 79, 0
2, 14726, Note_on_c, 0, 74, 0
2, 14728, Note_on_c, 0, 86, 0
2, 14730, Note_on_c, 0, 55, 0
2, 14746, Note_on_c, 0, 42, 80
2, 14746, Note_on_c, 0, 54, 80
2, 14746, Note_on_c, 0, 70, 80
2, 14746, Note_on_c, 0, 79, 80
2, 14746, Note_on_c, 0, 82, 80
2, 14777, Note_on_c, 0, 42, 0
2, 14779, Note_on_c, 0, 79, 0
2, 14779, Note_on_c, 0, 82, 0
2, 14779, Note_on_c, 0, 70, 0
2, 14849, Note_on_c, 0, 71, 80
2, 14851, Note_on_c, 0, 79, 80
2, 14851, Note_on_c, 0, 83, 80
2, 14870, Note_on_c, 0, 79, 0
2, 14893, Note_on_c, 0, 83, 0
2, 14893, Note_on_c, 0, 71, 0
2, 14903, Note_on_c, 0, 60, 80
2, 14903, Note_on_c, 0, 63, 80
2, 14903, Note_on_c, 0, 66, 80
2, 14903, Note_on_c, 0, 69, 80
2, 14903, Note_on_c, 0, 72, 80
2, 14903, Note_on_c, 0, 79, 80
2, 14903, Note_on_c, 0, 84, 80
2, 14928, Note_on_c, 0, 84, 0
2, 14928, Note_on_c, 0, 79, 0
2, 14928, Note_on_c, 0, 69, 0
2, 14928, Note_on_c, 0, 60, 0
2, 14928, Note_on_c, 0, 63, 0
2, 14928, Note_on_c, 0, 66, 0
2, 14928, Note_on_c, 0, 72, 0
2, 15003, Note_on_c, 0, 41, 80
2, 15003, Note_on_c, 0, 73, 80
2, 15005, Note_on_c, 0, 80, 80
2, 15005, Note_on_c, 0, 85, 80
2, 15010, Note_on_c, 0, 54, 0
2, 15024, Note_on_c, 0, 80, 0
2, 15048, Note_on_c, 0, 41, 0
2, 15048, Note_on_c, 0, 73, 0
2, 15048, Note_on_c, 0, 85, 0
2, 15052, Control_c, 0, 64, 127
2, 15052, Note_on_c, 0, 53, 80
2, 15054, Note_on_c, 0, 74, 80
2, 15054, Note_on_c, 0, 80, 80
2, 15054, Note_on_c, 0, 86, 80
2, 15095, Note_on_c, 0, 86, 0
2, 15095, Note_on_c, 0, 74, 0
2, 15096, Note_on_c, 0, 80, 0
2, 15134, Control_c, 0, 64, 0
2, 15157, Note_on_c, 0, 72, 80
2, 15157, Note_on_c, 0, 80, 80
2, 15157, Note_on_c, 0, 84, 80
2, 15176, Note_on_c, 0, 80, 0
2, 15202, Note_on_c, 0, 84, 0
2, 15202, Note_on_c, 0, 72, 0
2, 15209, Note_on_c, 0, 56, 80
2, 15209, Note_on_c, 0, 58, 80
2, 15209, Note_on_c, 0, 65, 80
2, 15209, Note_on_c, 0, 68, 80
2, 15209, Note_on_c, 0, 77, 80
2, 15209, Note_on_c, 0, 80, 80
2, 15211, Note_on_c, 0, 62, 80
2, 15248, Note_on_c, 0, 58, 0
2, 15248, Note_on_c, 0, 56, 0
2, 15250, Note_on_c, 0, 62, 0
2, 15250, Note_on_c, 0, 68, 0
2, 15250, Note_on_c, 0, 65, 0
2, 15250, Note_on_c, 0, 77, 0
2, 15252, Note_on_c, 0, 80, 0
2, 15309, Note_on_c, 0, 67, 80
2, 15311, Note_on_c, 0, 73, 80
2, 15311, Note_on_c, 0, 79, 80
2, 15351, Note_on_c, 0, 73, 0
2, 15351, Note_on_c, 0, 67, 0
2, 15353, Note_on_c, 0, 79, 0
2, 15360, Note_on_c, 0, 34, 80
2, 15360, Note_on_c, 0, 65, 80
2, 15360, Note_on_c, 0, 74, 80
2, 15360, Note_on_c, 0, 77, 80
2, 15404, Note_on_c, 0, 74, 0
2, 15404, Note_on_c, 0, 34, 0
2, 15406, Note_on_c, 0, 77, 0
2, 15406, Note_on_c, 0, 65, 0
2, 15466, Note_on_c, 0, 75, 80
2, 15466, Note_on_c, 0, 80, 80
2, 15466, Note_on_c, 0, 84, 80
2, 15466, Note_on_c, 0, 87, 80
2, 15518, Note_on_c, 0, 56, 80
2, 15518, Note_on_c, 0, 58, 80
2, 15518, Note_on_c, 0, 62, 80
2, 15518, Note_on_c, 0, 65, 80
2, 15534, Note_on_c, 0, 62, 0
2, 15544, Note_on_c, 0, 65, 0
2, 15544, Note_on_c, 0, 58, 0
2, 15544, Note_on_c, 0, 56, 0
2, 15558, Note_on_c, 0, 75, 0
2, 15558, Note_on_c, 0, 80, 0
2, 15558, Note_on_c, 0, 84, 0
2, 15558, Note_on_c, 0, 87, 0
2, 15619, Note_on_c, 0, 41, 80
2, 15619, Note_on_c, 0, 72, 80
2, 15619, Note_on_c, 0, 80, 80
2, 15619, Note_on_c, 0, 84, 80
2, 15635, Note_on_c, 0, 53, 0
2, 15637, Note_on_c, 0, 80, 0
2, 15647, Note_on_c, 0, 84, 0
2, 15647, Note_on_c, 0, 72, 0
2, 15661, Note_on_c, 0, 41, 0
2, 15668, Control_c, 0, 64, 127
2, 15668, Note_on_c, 0, 56, 80
2, 15668, Note_on_c, 0, 80, 80
2, 15668, Note_on_c, 0, 86, 80
2, 15670, Note_on_c, 0, 74, 80
2, 15700, Note_on_c, 0, 74, 0
2, 15700, Note_on_c, 0, 86, 0
2, 15700, Note_on_c, 0, 80, 0
2, 15764, Control_c, 0, 64, 0
2, 15770, Note_on_c, 0, 70, 80
2, 15770, Note_on_c, 0, 82, 80
2, 15775, Note_on_c, 0, 56, 0
2, 15801, Note_on_c, 0, 82, 0
2, 15801, Note_on_c, 0, 70, 0
2, 15820, Note_on_c, 0, 56, 80
2, 15820, Note_on_c, 0, 58, 80
2, 15820, Note_on_c, 0, 62, 80
2, 15820, Note_on_c, 0, 65, 80
2, 15820, Note_on_c, 0, 71, 80
2, 15820, Note_on_c, 0, 80, 80
2, 15820, Note_on_c, 0, 83, 80
2, 15863, Note_on_c, 0, 65, 0
2, 15863, Note_on_c, 0, 62, 0
2, 15863, Note_on_c, 0, 58, 0
2, 15874, Note_on_c, 0, 83, 0
2, 15874, Note_on_c, 0, 80, 0
2, 15888, Note_on_c, 0, 71, 0
2, 15924, Note_on_c, 0, 72, 80
2, 15924, Note_on_c, 0, 80, 80
2, 15924, Note_on_c, 0, 84, 80
2, 15943, Note_on_c, 0, 56, 0
2, 15974, Note_on_c, 0, 46, 80
2, 15974, Note_on_c, 0, 53, 80
2, 16014, Note_on_c, 0, 46, 0
2, 16082, Note_on_c, 0, 72, 0
2, 16082, Note_on_c, 0, 84, 0
2, 16082, Note_on_c, 0, 80, 0
2, 16094, Note_on_c, 0, 53, 0
2, 16129, Note_on_c, 0, 55, 80
2, 16129, Note_on_c, 0, 62, 80
2, 16129, Note_on_c, 0, 67, 80
2, 16129, Note_on_c, 0, 74, 80
2, 16129, Note_on_c, 0, 79, 80
2, 16129, Note_on_c, 0, 82, 80
2, 16172, Note_on_c, 0, 67, 0
2, 16224, Note_on_c, 0, 79, 0
2, 16224, Note_on_c, 0, 74, 0
2, 16224, Note_on_c, 0, 82, 0
2, 16230, Note_on_c, 0, 84, 80
2, 16237, Note_on_c, 0, 55, 0
2, 16251, Note_on_c, 0, 62, 0
2, 16263, Note_on_c, 0, 84, 0
2, 16284, Control_c, 0, 64, 127
2, 16286, Note_on_c, 0, 51, 80
2, 16286, Note_on_c, 0, 55, 80
2, 16286, Note_on_c, 0, 58, 80
2, 16286, Note_on_c, 0, 63, 80
2, 16286, Note_on_c, 0, 78, 80
2, 16286, Note_on_c, 0, 90, 80
2, 16326, Note_on_c, 0, 63, 0
2, 16326, Note_on_c, 0, 58, 0
2, 16326, Note_on_c, 0, 51, 0
2, 16326, Note_on_c, 0, 55, 0
2, 16367, Note_on_c, 0, 90, 0
2, 16381, Note_on_c, 0, 78, 0
2, 16381, Control_c, 0, 64, 0
2, 16388, Note_on_c, 0, 79, 80
2, 16388, Note_on_c, 0, 91, 80
2, 16432, Note_on_c, 0, 91, 0
2, 16434, Note_on_c, 0, 79, 0
2, 16440, Note_on_c, 0, 74, 80
2, 16440, Note_on_c, 0, 86, 80
2, 16539, Note_on_c, 0, 86, 0
2, 16539, Note_on_c, 0, 74, 0
2, 16549, Note_on_c, 0, 77, 80
2, 16549, Note_on_c, 0, 89, 80
2, 16699, Note_on_c, 0, 89, 0
2, 16699, Note_on_c, 0, 77, 0
2, 16705, Note_on_c, 0, 75, 80
2, 16705, Note_on_c, 0, 87, 80
2, 16748, Note_on_c, 0, 87, 0
2, 16748, Note_on_c, 0, 75, 0
2, 16757, Note_on_c, 0, 65, 80
2, 16757, Note_on_c, 0, 77, 80
2, 16858, Note_on_c, 0, 77, 0
2, 16858, Note_on_c, 0, 65, 0
2, 16865, Note_on_c, 0, 78, 80
2, 16909, Note_on_c, 0, 78, 0
2, 16914, Control_c, 0, 64, 127
2, 16914, Note_on_c, 0, 67, 80
2, 16916, Note_on_c, 0, 75, 80
2, 16916, Note_on_c, 0, 79, 80
2, 16997, Note_on_c, 0, 79, 0
2, 16997, Note_on_c, 0, 75, 0
2, 16997, Note_on_c, 0, 67, 0
2, 16997, Control_c, 0, 64, 0
2, 17016, Note_on_c, 0, 74, 80
2, 17016, Note_on_c, 0, 86, 80
2, 17166, Note_on_c, 0, 86, 0
2, 17166, Note_on_c, 0, 74, 0
2, 17173, Note_on_c, 0, 73, 80
2, 17173, Note_on_c, 0, 85, 80
2, 17204, Note_on_c, 0, 85, 0
2, 17204, Note_on_c, 0, 73, 0
2, 17225, Note_on_c, 0, 72, 80
2, 17225, Note_on_c, 0, 79, 80
2, 17225, Note_on_c, 0, 84, 80
2, 17281, Note_on_c, 0, 79, 0
2, 17293, Note_on_c, 0, 84, 0
2, 17293, Note_on_c, 0, 72, 0
2, 17326, Note_on_c, 0, 40, 80
2, 17326, Note_on_c, 0, 71, 80
2, 17328, Note_on_c, 0, 83, 80
2, 17368, Note_on_c, 0, 83, 0
2, 17368, Note_on_c, 0, 71, 0
2, 17375, Note_on_c, 0, 79, 80
2, 17375, Note_on_c, 0, 84, 80
2, 17376, Note_on_c, 0, 55, 80
2, 17376, Note_on_c, 0, 72, 80
2, 17417, Note_on_c, 0, 40, 0
2, 17443, Note_on_c, 0, 79, 0
2, 17445, Note_on_c, 0, 72, 0
2, 17445, Note_on_c, 0, 84, 0
2, 17477, Note_on_c, 0, 41, 80
2, 17477, Note_on_c, 0, 73, 80
2, 17477, Note_on_c, 0, 85, 80
2, 17510, Note_on_c, 0, 55, 0
2, 17517, Control_c, 0, 64, 127
2, 17519, Note_on_c, 0, 85, 0
2, 17519, Note_on_c, 0, 73, 0
2, 17525, Note_on_c, 0, 56, 80
2, 17525, Note_on_c, 0, 74, 80
2, 17525, Note_on_c, 0, 80, 80
2, 17525, Note_on_c, 0, 86, 80
2, 17572, Note_on_c, 0, 41, 0
2, 17579, Note_on_c, 0, 74, 0
2, 17581, Note_on_c, 0, 86, 0
2, 17581, Note_on_c, 0, 80, 0
2, 17592, Control_c, 0, 64, 0
2, 17628, Note_on_c, 0, 70, 80
2, 17628, Note_on_c, 0, 82, 80
2, 17670, Note_on_c, 0, 82, 0
2, 17670, Note_on_c, 0, 70, 0
2, 17677, Note_on_c, 0, 71, 80
2, 17679, Note_on_c, 0, 58, 80
2, 17679, Note_on_c, 0, 62, 80
2, 17679, Note_on_c, 0, 65, 80
2, 17679, Note_on_c, 0, 68, 80
2, 17679, Note_on_c, 0, 80, 80
2, 17679, Note_on_c, 0, 83, 80
2, 17719, Note_on_c, 0, 83, 0
2, 17719, Note_on_c, 0, 80, 0
2, 17719, Note_on_c, 0, 65, 0
2, 17719, Note_on_c, 0, 71, 0
2, 17719, Note_on_c, 0, 58, 0
2, 17719, Note_on_c, 0, 62, 0
2, 17719, Note_on_c, 0, 68, 0
2, 17783, Note_on_c, 0, 72, 80
2, 17783, Note_on_c, 0, 74, 80
2, 17783, Note_on_c, 0, 80, 80
2, 17783, Note_on_c, 0, 84, 80
2, 17832, Note_on_c, 0, 34, 80
2, 17876, Note_on_c, 0, 34, 0
2, 17988, Note_on_c, 0, 58, 80
2, 17988, Note_on_c, 0, 62, 80
2, 17988, Note_on_c, 0, 65, 80
2, 17988, Note_on_c, 0, 68, 80
2, 18019, Note_on_c, 0, 68, 0
2, 18019, Note_on_c, 0, 65, 0
2, 18019, Note_on_c, 0, 62, 0
2, 18019, Note_on_c, 0, 58, 0
2, 18068, Note_on_c, 0, 56, 0
2, 18070, Note_on_c, 0, 80, 0
2, 18070, Note_on_c, 0, 84, 0
2, 18070, Note_on_c, 0, 74, 0
2, 18070, Note_on_c, 0, 72, 0
2, 18144, Control_c, 0, 64, 127
2, 18144, Note_on_c, 0, 41, 80
2, 18144, Note_on_c, 0, 56, 80
2, 18144, Note_on_c, 0, 80, 80
2, 18144, Note_on_c, 0, 86, 80
2, 18144, Note_on_c, 0, 89, 80
2, 18144, Note_on_c, 0, 92, 80
2, 18187, Note_on_c, 0, 92, 0
2, 18187, Note_on_c, 0, 86, 0
2, 18187, Note_on_c, 0, 80, 0
2, 18187, Note_on_c, 0, 89, 0
2, 18198, Note_on_c, 0, 41, 0
2, 18203, Note_on_c, 0, 56, 0
2, 18229, Control_c, 0, 64, 0
2, 18248, Note_on_c, 0, 82, 80
2, 18248, Note_on_c, 0, 86, 80
2, 18248, Note_on_c, 0, 92, 80
2, 18248, Note_on_c, 0, 94, 80
2, 18300, Note_on_c, 0, 68, 80
2, 18300, Note_on_c, 0, 70, 80
2, 18300, Note_on_c, 0, 74, 80
2, 18300, Note_on_c, 0, 77, 80
2, 18337, Note_on_c, 0, 77, 0
2, 18337, Note_on_c, 0, 82, 0
2, 18337, Note_on_c, 0, 94, 0
2, 18337, Note_on_c, 0, 92, 0
2, 18337, Note_on_c, 0, 86, 0
2, 18363, Note_on_c, 0, 74, 0
2, 18363, Note_on_c, 0, 68, 0
2, 18363, Note_on_c, 0, 70, 0
2, 18396, Note_on_c, 0, 77, 80
2, 18396, Note_on_c, 0, 89, 80
2, 18398, Note_on_c, 0, 85, 80
2, 18429, Note_on_c, 0, 89, 0
2, 18429, Note_on_c, 0, 77, 0
2, 18448, Note_on_c, 0, 58, 80
2, 18448, Note_on_c, 0, 62, 80
2, 18448, Note_on_c, 0, 65, 80
2, 18448, Note_on_c, 0, 70, 80
2, 18448, Note_on_c, 0, 79, 80
2, 18448, Note_on_c, 0, 86, 80
2, 18448, Note_on_c, 0, 91, 80
2, 18453, Note_on_c, 0, 85, 0
2, 18488, Note_on_c, 0, 91, 0
2, 18488, Note_on_c, 0, 79, 0
2, 18488, Note_on_c, 0, 86, 0
2, 18514, Note_on_c, 0, 70, 0
2, 18514, Note_on_c, 0, 62, 0
2, 18528, Note_on_c, 0, 58, 0
2, 18528, Note_on_c, 0, 65, 0
2, 18548, Note_on_c, 0, 77, 80
2, 18548, Note_on_c, 0, 89, 80
2, 18567, Note_on_c, 0, 77, 0
2, 18581, Note_on_c, 0, 89, 0
2, 18600, Note_on_c, 0, 68, 80
2, 18600, Note_on_c, 0, 70, 80
2, 18600, Note_on_c, 0, 74, 80
2, 18600, Note_on_c, 0, 77, 80
2, 18600, Note_on_c, 0, 79, 80
2, 18600, Note_on_c, 0, 86, 80
2, 18600, Note_on_c, 0, 91, 80
2, 18631, Note_on_c, 0, 91, 0
2, 18631, Note_on_c, 0, 79, 0
2, 18631, Note_on_c, 0, 86, 0
2, 18643, Note_on_c, 0, 70, 0
2, 18669, Note_on_c, 0, 68, 0
2, 18669, Note_on_c, 0, 74, 0
2, 18669, Note_on_c, 0, 77, 0
2, 18701, Note_on_c, 0, 70, 80
2, 18701, Note_on_c, 0, 94, 80
2, 18703, Note_on_c, 0, 82, 80
2, 18720, Note_on_c, 0, 94, 0
2, 18720, Note_on_c, 0, 70, 0
2, 18731, Note_on_c, 0, 82, 0
2, 18750, Note_on_c, 0, 70, 80
2, 18750, Note_on_c, 0, 79, 80
2, 18750, Note_on_c, 0, 86, 80
2, 18750, Note_on_c, 0, 91, 80
2, 18750, Note_on_c, 0, 94, 80
2, 18762, Control_c, 0, 64, 127
2, 18762, Note_on_c, 0, 98, 80
2, 18804, Note_on_c, 0, 98, 0
2, 18804, Note_on_c, 0, 91, 0
2, 18804, Note_on_c, 0, 86, 0
2, 18804, Note_on_c, 0, 94, 0
2, 18851, Note_on_c, 0, 84, 80
2, 18851, Note_on_c, 0, 91, 80
2, 18851, Note_on_c, 0, 96, 80
2, 18867, Note_on_c, 0, 91, 0
2, 18867, Control_c, 0, 64, 0
2, 18879, Note_on_c, 0, 96, 0
2, 18881, Note_on_c, 0, 84, 0
2, 18900, Note_on_c, 0, 91, 80
2, 18900, Note_on_c, 0, 94, 80
2, 18902, Note_on_c, 0, 82, 80
2, 18956, Note_on_c, 0, 82, 0
2, 18956, Note_on_c, 0, 79, 0
2, 18970, Note_on_c, 0, 94, 0
2, 18972, Note_on_c, 0, 91, 0
2, 19005, Note_on_c, 0, 75, 80
2, 19005, Note_on_c, 0, 79, 80
2, 19005, Note_on_c, 0, 84, 80
2, 19005, Note_on_c, 0, 91, 80
2, 19005, Note_on_c, 0, 94, 80
2, 19005, Note_on_c, 0, 96, 80
2, 19101, Note_on_c, 0, 94, 0
2, 19124, Note_on_c, 0, 91, 0
2, 19124, Note_on_c, 0, 75, 0
2, 19124, Note_on_c, 0, 79, 0
2, 19124, Note_on_c, 0, 84, 0
2, 19124, Note_on_c, 0, 96, 0
2, 19161, Note_on_c, 0, 87, 80
2, 19161, Note_on_c, 0, 99, 80
2, 19180, Note_on_c, 0, 70, 0
2, 19192, Note_on_c, 0, 99, 0
2, 19192, Note_on_c, 0, 87, 0
2, 19213, Note_on_c, 0, 69, 80
2, 19213, Note_on_c, 0, 74, 80
2, 19213, Note_on_c, 0, 78, 80
2, 19213, Note_on_c, 0, 86, 80
2, 19213, Note_on_c, 0, 98, 80
2, 19283, Note_on_c, 0, 98, 0
2, 19283, Note_on_c, 0, 86, 0
2, 19297, Note_on_c, 0, 78, 0
2, 19297, Note_on_c, 0, 74, 0
2, 19312, Note_on_c, 0, 69, 0
2, 19321, Note_on_c, 0, 87, 80
2, 19321, Note_on_c, 0, 99, 80
2, 19352, Note_on_c, 0, 99, 0
2, 19354, Note_on_c, 0, 87, 0
2, 19375, Note_on_c, 0, 75, 80
2, 19375, Note_on_c, 0, 85, 80
2, 19375, Note_on_c, 0, 97, 80
2, 19377, Note_on_c, 0, 79, 80
2, 19384, Control_c, 0, 64, 127
2, 19431, Note_on_c, 0, 97, 0
2, 19431, Note_on_c, 0, 75, 0
2, 19431, Note_on_c, 0, 85, 0
2, 19433, Note_on_c, 0, 79, 0
2, 19477, Note_on_c, 0, 82, 80
2, 19477, Note_on_c, 0, 94, 80
2, 19482, Control_c, 0, 64, 0
2, 19519, Note_on_c, 0, 94, 0
2, 19519, Note_on_c, 0, 82, 0
2, 19529, Note_on_c, 0, 77, 80
2, 19529, Note_on_c, 0, 85, 80
2, 19529, Note_on_c, 0, 89, 80
2, 19573, Note_on_c, 0, 77, 0
2, 19575, Note_on_c, 0, 89, 0
2, 19575, Note_on_c, 0, 85, 0
2, 19635, Note_on_c, 0, 78, 80
2, 19635, Note_on_c, 0, 85, 80
2, 19635, Note_on_c, 0, 90, 80
2, 19655, Note_on_c, 0, 85, 0
2, 19666, Note_on_c, 0, 90, 0
2, 19666, Note_on_c, 0, 78, 0
2, 19685, Note_on_c, 0, 63, 80
2, 19685, Note_on_c, 0, 67, 80
2, 19685, Note_on_c, 0, 70, 80
2, 19685, Note_on_c, 0, 79, 80
2, 19685, Note_on_c, 0, 85, 80
2, 19685, Note_on_c, 0, 91, 80
2, 19716, Note_on_c, 0, 91, 0
2, 19716, Note_on_c, 0, 79, 0
2, 19716, Note_on_c, 0, 85, 0
2, 19768, Note_on_c, 0, 63, 0
2, 19768, Note_on_c, 0, 70, 0
2, 19770, Note_on_c, 0, 67, 0
2, 19789, Note_on_c, 0, 77, 80
2, 19789, Note_on_c, 0, 84, 80
2, 19789, Note_on_c, 0, 89, 80
2, 19817, Note_on_c, 0, 89, 0
2, 19817, Note_on_c, 0, 77, 0
2, 19819, Note_on_c, 0, 84, 0
2, 19838, Note_on_c, 0, 67, 80
2, 19840, Note_on_c, 0, 63, 80
2, 19840, Note_on_c, 0, 70, 80
2, 19840, Note_on_c, 0, 75, 80
2, 19840, Note_on_c, 0, 87, 80
2, 19882, Note_on_c, 0, 87, 0
2, 19884, Note_on_c, 0, 75, 0
2, 19920, Note_on_c, 0, 67, 0
2, 19920, Note_on_c, 0, 63, 0
2, 19920, Note_on_c, 0, 70, 0
2, 19941, Note_on_c, 0, 73, 80
2, 19941, Note_on_c, 0, 85, 80
2, 19968, Note_on_c, 0, 73, 0
2, 19970, Note_on_c, 0, 85, 0
2, 19992, Note_on_c, 0, 56, 80
2, 19992, Note_on_c, 0, 63, 80
2, 19992, Note_on_c, 0, 68, 80
2, 19992, Note_on_c, 0, 72, 80
2, 19992, Note_on_c, 0, 80, 80
2, 19992, Note_on_c, 0, 84, 80
2, 20003, Control_c, 0, 64, 127
2, 20068, Note_on_c, 0, 84, 0
2, 20068, Note_on_c, 0, 72, 0
2, 20070, Note_on_c, 0, 80, 0
2, 20117, Control_c, 0, 64, 0
2, 20138, Note_on_c, 0, 71, 80
2, 20138, Note_on_c, 0, 80, 80
2, 20138, Note_on_c, 0, 83, 80
2, 20181, Note_on_c, 0, 83, 0
2, 20181, Note_on_c, 0, 80, 0
2, 20195, Note_on_c, 0, 71, 0
2, 20235, Note_on_c, 0, 63, 0
2, 20235, Note_on_c, 0, 56, 0
2, 20237, Note_on_c, 0, 68, 0
2, 20244, Note_on_c, 0, 72, 80
2, 20244, Note_on_c, 0, 84, 80
2, 20275, Note_on_c, 0, 84, 0
2, 20275, Note_on_c, 0, 72, 0
2, 20296, Note_on_c, 0, 57, 80
2, 20296, Note_on_c, 0, 66, 80
2, 20296, Note_on_c, 0, 74, 80
2, 20296, Note_on_c, 0, 78, 80
2, 20296, Note_on_c, 0, 81, 80
2, 20296, Note_on_c, 0, 86, 80
2, 20390, Note_on_c, 0, 86, 0
2, 20390, Note_on_c, 0, 78, 0
2, 20390, Note_on_c, 0, 74, 0
2, 20390, Note_on_c, 0, 81, 0
2, 20448, Note_on_c, 0, 72, 80
2, 20448, Note_on_c, 0, 78, 80
2, 20450, Note_on_c, 0, 84, 80
2, 20493, Note_on_c, 0, 84, 0
2, 20493, Note_on_c, 0, 72, 0
2, 20493, Note_on_c, 0, 78, 0
2, 20553, Note_on_c, 0, 74, 80
2, 20553, Note_on_c, 0, 79, 80
2, 20553, Note_on_c, 0, 86, 80
2, 20555, Note_on_c, 0, 82, 80
2, 20557, Note_on_c, 0, 57, 0
2, 20559, Note_on_c, 0, 66, 0
2, 20573, Note_on_c, 0, 79, 0
2, 20573, Note_on_c, 0, 82, 0
2, 20585, Note_on_c, 0, 74, 0
2, 20585, Note_on_c, 0, 86, 0
2, 20590, Control_c, 0, 64, 127
2, 20604, Note_on_c, 0, 58, 80
2, 20604, Note_on_c, 0, 67, 80
2, 20604, Note_on_c, 0, 75, 80
2, 20604, Note_on_c, 0, 79, 80
2, 20604, Note_on_c, 0, 82, 80
2, 20604, Note_on_c, 0, 87, 80
2, 20625, Note_on_c, 0, 82, 0
2, 20625, Note_on_c, 0, 79, 0
2, 20635, Note_on_c, 0, 75, 0
2, 20635, Note_on_c, 0, 87, 0
2, 20649, Note_on_c, 0, 58, 0
2, 20649, Note_on_c, 0, 67, 0
2, 20654, Note_on_c, 0, 79, 80
2, 20656, Note_on_c, 0, 77, 80
2, 20656, Note_on_c, 0, 82, 80
2, 20656, Note_on_c, 0, 89, 80
2, 20675, Note_on_c, 0, 82, 0
2, 20675, Note_on_c, 0, 79, 0
2, 20687, Note_on_c, 0, 77, 0
2, 20687, Note_on_c, 0, 89, 0
2, 20701, Control_c, 0, 64, 0
2, 20711, Note_on_c, 0, 75, 80
2, 20711, Note_on_c, 0, 79, 80
2, 20711, Note_on_c, 0, 82, 80
2, 20711, Note_on_c, 0, 87, 80
2, 20738, Note_on_c, 0, 87, 0
2, 20738, Note_on_c, 0, 75, 0
2, 20738, Note_on_c, 0, 79, 0
2, 20738, Note_on_c, 0, 82, 0
2, 20760, Note_on_c, 0, 55, 80
2, 20760, Note_on_c, 0, 62, 80
2, 20760, Note_on_c, 0, 65, 80
2, 20760, Note_on_c, 0, 71, 80
2, 20760, Note_on_c, 0, 74, 80
2, 20760, Note_on_c, 0, 77, 80
2, 20760, Note_on_c, 0, 83, 80
2, 20818, Note_on_c, 0, 83, 0
2, 20818, Note_on_c, 0, 74, 0
2, 20818, Note_on_c, 0, 71, 0
2, 20818, Note_on_c, 0, 77, 0
2, 20858, Note_on_c, 0, 55, 0
2, 20858, Note_on_c, 0, 65, 0
2, 20858, Note_on_c, 0, 62, 0
2, 20865, Note_on_c, 0, 72, 80
2, 20865, Note_on_c, 0, 76, 80
2, 20865, Note_on_c, 0, 79, 80
2, 20865, Note_on_c, 0, 82, 80
2, 20865, Note_on_c, 0, 84, 80
2, 20914, Note_on_c, 0, 60, 80
2, 20914, Note_on_c, 0, 64, 80
2, 20914, Note_on_c, 0, 67, 80
2, 20914, Note_on_c, 0, 70, 80
2, 20996, Note_on_c, 0, 70, 0
2, 20996, Note_on_c, 0, 82, 0
2, 20996, Note_on_c, 0, 72, 0
2, 20996, Note_on_c, 0, 84, 0
2, 20996, Note_on_c, 0, 76, 0
2, 20996, Note_on_c, 0, 79, 0
2, 20996, Note_on_c, 0, 64, 0
2, 20996, Note_on_c, 0, 60, 0
2, 20996, Note_on_c, 0, 67, 0
2, 21069, Note_on_c, 0, 67, 80
2, 21071, Note_on_c, 0, 58, 80
2, 21150, Note_on_c, 0, 58, 0
2, 21150, Note_on_c, 0, 67, 0
2, 21171, Note_on_c, 0, 59, 80
2, 21171, Note_on_c, 0, 68, 80
2, 21214, Note_on_c, 0, 68, 0
2, 21214, Note_on_c, 0, 59, 0
2, 21218, Control_c, 0, 64, 127
2, 21218, Note_on_c, 0, 81, 80
2, 21218, Note_on_c, 0, 84, 80
2, 21218, Note_on_c, 0, 87, 80
2, 21220, Note_on_c, 0, 60, 80
2, 21220, Note_on_c, 0, 69, 80
2, 21220, Note_on_c, 0, 75, 80
2, 21240, Note_on_c, 0, 84, 0
2, 21240, Note_on_c, 0, 81, 0
2, 21263, Note_on_c, 0, 87, 0
2, 21263, Note_on_c, 0, 75, 0
2, 21269, Note_on_c, 0, 77, 80
2, 21269, Note_on_c, 0, 81, 80
2, 21269, Note_on_c, 0, 84, 80
2, 21269, Note_on_c, 0, 89, 80
2, 21288, Note_on_c, 0, 84, 0
2, 21288, Note_on_c, 0, 81, 0
2, 21310, Note_on_c, 0, 77, 0
2, 21310, Note_on_c, 0, 89, 0
2, 21316, Note_on_c, 0, 75, 80
2, 21316, Note_on_c, 0, 87, 80
2, 21318, Note_on_c, 0, 81, 80
2, 21318, Note_on_c, 0, 84, 80
2, 21333, Control_c, 0, 64, 0
2, 21335, Note_on_c, 0, 84, 0
2, 21335, Note_on_c, 0, 81, 0
2, 21346, Note_on_c, 0, 75, 0
2, 21346, Note_on_c, 0, 87, 0
2, 21365, Note_on_c, 0, 72, 80
2, 21365, Note_on_c, 0, 77, 80
2, 21365, Note_on_c, 0, 81, 80
2, 21365, Note_on_c, 0, 84, 80
2, 21433, Note_on_c, 0, 84, 0
2, 21433, Note_on_c, 0, 77, 0
2, 21433, Note_on_c, 0, 72, 0
2, 21433, Note_on_c, 0, 81, 0
2, 21466, Note_on_c, 0, 71, 80
2, 21466, Note_on_c, 0, 83, 80
2, 21471, Note_on_c, 0, 60, 0
2, 21471, Note_on_c, 0, 69, 0
2, 21508, Note_on_c, 0, 71, 0
2, 21508, Note_on_c, 0, 83, 0
2, 21515, Note_on_c, 0, 58, 80
2, 21515, Note_on_c, 0, 62, 80
2, 21515, Note_on_c, 0, 65, 80
2, 21515, Note_on_c, 0, 68, 80
2, 21515, Note_on_c, 0, 70, 80
2, 21515, Note_on_c, 0, 74, 80
2, 21515, Note_on_c, 0, 80, 80
2, 21515, Note_on_c, 0, 82, 80
2, 21567, Note_on_c, 0, 74, 0
2, 21569, Note_on_c, 0, 58, 0
2, 21569, Note_on_c, 0, 70, 0
2, 21569, Note_on_c, 0, 62, 0
2, 21569, Note_on_c, 0, 65, 0
2, 21569, Note_on_c, 0, 68, 0
2, 21569, Note_on_c, 0, 80, 0
2, 21569, Note_on_c, 0, 82, 0
2, 21616, Note_on_c, 0, 70, 80
2, 21616, Note_on_c, 0, 74, 80
2, 21616, Note_on_c, 0, 78, 80
2, 21632, Note_on_c, 0, 74, 0
2, 21648, Note_on_c, 0, 78, 0
2, 21668, Note_on_c, 0, 46, 80
2, 21670, Note_on_c, 0, 53, 80
2, 21670, Note_on_c, 0, 58, 80
2, 21670, Note_on_c, 0, 74, 80
2, 21670, Note_on_c, 0, 79, 80
2, 21712, Note_on_c, 0, 79, 0
2, 21712, Note_on_c, 0, 70, 0
2, 21712, Note_on_c, 0, 74, 0
2, 21744, Note_on_c, 0, 70, 80
2, 21749, Note_on_c, 0, 46, 0
2, 21751, Note_on_c, 0, 58, 0
2, 21751, Note_on_c, 0, 53, 0
2, 21770, Note_on_c, 0, 75, 80
2, 21770, Note_on_c, 0, 79, 80
2, 21822, Control_c, 0, 64, 127
2, 21822, Note_on_c, 0, 51, 80
2, 21822, Note_on_c, 0, 55, 80
2, 21822, Note_on_c, 0, 58, 80
2, 21822, Note_on_c, 0, 63, 80
2, 21853, Note_on_c, 0, 58, 0
2, 21853, Note_on_c, 0, 51, 0
2, 21853, Note_on_c, 0, 70, 0
2, 21853, Note_on_c, 0, 55, 0
2, 21855, Note_on_c, 0, 75, 0
2, 21855, Note_on_c, 0, 63, 0
2, 21855, Note_on_c, 0, 79, 0
2, 21925, Note_on_c, 0, 40, 80
2, 21925, Note_on_c, 0, 43, 80
2, 21925, Note_on_c, 0, 47, 80
2, 21925, Note_on_c, 0, 52, 80
2, 21925, Note_on_c, 0, 70, 80
2, 21925, Note_on_c, 0, 73, 80
2, 21925, Note_on_c, 0, 76, 80
2, 21925, Note_on_c, 0, 82, 80
2, 21927, Note_on_c, 0, 79, 80
2, 21934, Control_c, 0, 64, 0
2, 21945, Note_on_c, 0, 52, 0
2, 21947, Note_on_c, 0, 70, 0
2, 21947, Note_on_c, 0, 40, 0
2, 21947, Note_on_c, 0, 73, 0
2, 21947, Note_on_c, 0, 43, 0
2, 21947, Note_on_c, 0, 47, 0
2, 21947, Note_on_c, 0, 82, 0
2, 21947, Note_on_c, 0, 76, 0
2, 21947, Note_on_c, 0, 79, 0
2, 21978, Note_on_c, 0, 40, 80
2, 21978, Note_on_c, 0, 43, 80
2, 21978, Note_on_c, 0, 47, 80
2, 21978, Note_on_c, 0, 52, 80
2, 21978, Note_on_c, 0, 70, 80
2, 21978, Note_on_c, 0, 73, 80
2, 21978, Note_on_c, 0, 76, 80
2, 21978, Note_on_c, 0, 79, 80
2, 21978, Note_on_c, 0, 82, 80
2, 22013, Note_on_c, 0, 82, 0
2, 22013, Note_on_c, 0, 79, 0
2, 22013, Note_on_c, 0, 76, 0
2, 22013, Note_on_c, 0, 70, 0
2, 22013, Note_on_c, 0, 73, 0
2, 22025, Note_on_c, 0, 47, 0
2, 22025, Note_on_c, 0, 52, 0
2, 22025, Note_on_c, 0, 43, 0
2, 22025, Note_on_c, 0, 40, 0
2, 22085, Note_on_c, 0, 40, 80
2, 22085, Note_on_c, 0, 43, 80
2, 22085, Note_on_c, 0, 47, 80
2, 22085, Note_on_c, 0, 52, 80
2, 22085, Note_on_c, 0, 70, 80
2, 22085, Note_on_c, 0, 73, 80
2, 22085, Note_on_c, 0, 76, 80
2, 22085, Note_on_c, 0, 79, 80
2, 22085, Note_on_c, 0, 82, 80
2, 22102, Note_on_c, 0, 47, 0
2, 22104, Note_on_c, 0, 70, 0
2, 22104, Note_on_c, 0, 40, 0
2, 22104, Note_on_c, 0, 73, 0
2, 22104, Note_on_c, 0, 43, 0
2, 22104, Note_on_c, 0, 52, 0
2, 22104, Note_on_c, 0, 79, 0
2, 22104, Note_on_c, 0, 76, 0
2, 22104, Note_on_c, 0, 82, 0
2, 22134, Note_on_c, 0, 52, 80
2, 22134, Note_on_c, 0, 73, 80
2, 22136, Note_on_c, 0, 40, 80
2, 22136, Note_on_c, 0, 43, 80
2, 22136, Note_on_c, 0, 47, 80
2, 22136, Note_on_c, 0, 70, 80
2, 22136, Note_on_c, 0, 76, 80
2, 22136, Note_on_c, 0, 79, 80
2, 22136, Note_on_c, 0, 82, 80
2, 22169, Note_on_c, 0, 82, 0
2, 22169, Note_on_c, 0, 70, 0
2, 22169, Note_on_c, 0, 73, 0
2, 22171, Note_on_c, 0, 79, 0
2, 22171, Note_on_c, 0, 76, 0
2, 22182, Note_on_c, 0, 43, 0
2, 22182, Note_on_c, 0, 47, 0
2, 22182, Note_on_c, 0, 40, 0
2, 22184, Note_on_c, 0, 52, 0
2, 22241, Note_on_c, 0, 40, 80
2, 22241, Note_on_c, 0, 43, 80
2, 22241, Note_on_c, 0, 47, 80
2, 22241, Note_on_c, 0, 52, 80
2, 22241, Note_on_c, 0, 70, 80
2, 22241, Note_on_c, 0, 73, 80
2, 22241, Note_on_c, 0, 76, 80
2, 22241, Note_on_c, 0, 79, 80
2, 22241, Note_on_c, 0, 82, 80
2, 22257, Note_on_c, 0, 76, 0
2, 22257, Note_on_c, 0, 52, 0
2, 22259, Note_on_c, 0, 40, 0
2, 22259, Note_on_c, 0, 79, 0
2, 22259, Note_on_c, 0, 47, 0
2, 22259, Note_on_c, 0, 43, 0
2, 22271, Note_on_c, 0, 82, 0
2, 22271, Note_on_c, 0, 73, 0
2, 22290, Note_on_c, 0, 40, 80
2, 22290, Note_on_c, 0, 43, 80
2, 22290, Note_on_c, 0, 47, 80
2, 22290, Note_on_c, 0, 52, 80
2, 22290, Note_on_c, 0, 72, 80
2, 22290, Note_on_c, 0, 76, 80
2, 22290, Note_on_c, 0, 79, 80
2, 22290, Note_on_c, 0, 84, 80
2, 22296, Note_on_c, 0, 70, 0
2, 22322, Note_on_c, 0, 72, 0
2, 22324, Note_on_c, 0, 84, 0
2, 22324, Note_on_c, 0, 79, 0
2, 22324, Note_on_c, 0, 76, 0
2, 22336, Note_on_c, 0, 47, 0
2, 22336, Note_on_c, 0, 40, 0
2, 22336, Note_on_c, 0, 43, 0
2, 22336, Note_on_c, 0, 52, 0
2, 22399, Note_on_c, 0, 40, 80
2, 22399, Note_on_c, 0, 43, 80
2, 22399, Note_on_c, 0, 47, 80
2, 22399, Note_on_c, 0, 52, 80
2, 22399, Note_on_c, 0, 70, 80
2, 22399, Note_on_c, 0, 76, 80
2, 22399, Note_on_c, 0, 79, 80
2, 22399, Note_on_c, 0, 82, 80
2, 22441, Note_on_c, 0, 82, 0
2, 22441, Note_on_c, 0, 40, 0
2, 22441, Note_on_c, 0, 70, 0
2, 22441, Note_on_c, 0, 43, 0
2, 22441, Note_on_c, 0, 47, 0
2, 22441, Note_on_c, 0, 52, 0
2, 22441, Note_on_c, 0, 76, 0
2, 22441, Note_on_c, 0, 79, 0
2, 22448, Control_c, 0, 64, 127
2, 22448, Note_on_c, 0, 41, 80
2, 22448, Note_on_c, 0, 53, 80
2, 22448, Note_on_c, 0, 74, 80
2, 22448, Note_on_c, 0, 86, 80
2, 22450, Note_on_c, 0, 80, 80
2, 22492, Note_on_c, 0, 41, 0
2, 22502, Note_on_c, 0, 86, 0
2, 22502, Note_on_c, 0, 80, 0
2, 22502, Note_on_c, 0, 74, 0
2, 22549, Note_on_c, 0, 72, 80
2, 22549, Note_on_c, 0, 80, 80
2, 22549, Note_on_c, 0, 84, 80
2, 22554, Control_c, 0, 64, 0
2, 22568, Note_on_c, 0, 80, 0
2, 22580, Note_on_c, 0, 84, 0
2, 22580, Note_on_c, 0, 72, 0
2, 22601, Note_on_c, 0, 56, 80
2, 22601, Note_on_c, 0, 58, 80
2, 22601, Note_on_c, 0, 62, 80
2, 22601, Note_on_c, 0, 65, 80
2, 22601, Note_on_c, 0, 70, 80
2, 22601, Note_on_c, 0, 80, 80
2, 22601, Note_on_c, 0, 82, 80
2, 22633, Note_on_c, 0, 82, 0
2, 22633, Note_on_c, 0, 80, 0
2, 22633, Note_on_c, 0, 70, 0
2, 22645, Note_on_c, 0, 56, 0
2, 22645, Note_on_c, 0, 58, 0
2, 22645, Note_on_c, 0, 62, 0
2, 22645, Note_on_c, 0, 65, 0
2, 22705, Note_on_c, 0, 72, 80
2, 22705, Note_on_c, 0, 80, 80
2, 22705, Note_on_c, 0, 84, 80
2, 22754, Note_on_c, 0, 34, 80
2, 22799, Note_on_c, 0, 34, 0
2, 22813, Note_on_c, 0, 80, 0
2, 22813, Note_on_c, 0, 84, 0
2, 22813, Note_on_c, 0, 72, 0
2, 22857, Note_on_c, 0, 80, 80
2, 22857, Note_on_c, 0, 82, 80
2, 22857, Note_on_c, 0, 89, 80
2, 22857, Note_on_c, 0, 92, 80
2, 22906, Note_on_c, 0, 56, 80
2, 22906, Note_on_c, 0, 58, 80
2, 22906, Note_on_c, 0, 62, 80
2, 22906, Note_on_c, 0, 65, 80
2, 22950, Note_on_c, 0, 65, 0
2, 22950, Note_on_c, 0, 62, 0
2, 22950, Note_on_c, 0, 58, 0
2, 22950, Note_on_c, 0, 56, 0
2, 22962, Note_on_c, 0, 80, 0
2, 22962, Note_on_c, 0, 82, 0
2, 22962, Note_on_c, 0, 89, 0
2, 22962, Note_on_c, 0, 92, 0
2, 23011, Note_on_c, 0, 41, 80
2, 23011, Note_on_c, 0, 72, 80
2, 23011, Note_on_c, 0, 84, 80
2, 23016, Note_on_c, 0, 53, 0
2, 23056, Note_on_c, 0, 41, 0
2, 23058, Note_on_c, 0, 72, 0
2, 23058, Note_on_c, 0, 84, 0
2, 23064, Control_c, 0, 64, 127
2, 23064, Note_on_c, 0, 56, 80
2, 23064, Note_on_c, 0, 74, 80
2, 23064, Note_on_c, 0, 82, 80
2, 23064, Note_on_c, 0, 86, 80
2, 23123, Note_on_c, 0, 86, 0
2, 23123, Note_on_c, 0, 82, 0
2, 23123, Note_on_c, 0, 74, 0
2, 23167, Note_on_c, 0, 75, 80
2, 23167, Note_on_c, 0, 87, 80
2, 23198, Control_c, 0, 64, 0
2, 23212, Note_on_c, 0, 87, 0
2, 23212, Note_on_c, 0, 75, 0
2, 23222, Note_on_c, 0, 58, 80
2, 23222, Note_on_c, 0, 65, 80
2, 23222, Note_on_c, 0, 72, 80
2, 23222, Note_on_c, 0, 80, 80
2, 23222, Note_on_c, 0, 84, 80
2, 23224, Note_on_c, 0, 62, 80
2, 23264, Note_on_c, 0, 84, 0
2, 23264, Note_on_c, 0, 72, 0
2, 23264, Note_on_c, 0, 58, 0
2, 23264, Note_on_c, 0, 65, 0
2, 23264, Note_on_c, 0, 80, 0
2, 23266, Note_on_c, 0, 62, 0
2, 23327, Note_on_c, 0, 74, 80
2, 23327, Note_on_c, 0, 80, 80
2, 23327, Note_on_c, 0, 86, 80
2, 23348, Note_on_c, 0, 80, 0
2, 23357, Note_on_c, 0, 86, 0
2, 23357, Note_on_c, 0, 74, 0
2, 23376, Note_on_c, 0, 34, 80
2, 23376, Note_on_c, 0, 70, 80
2, 23376, Note_on_c, 0, 80, 80
2, 23378, Note_on_c, 0, 82, 80
2, 23409, Note_on_c, 0, 82, 0
2, 23409, Note_on_c, 0, 70, 0
2, 23409, Note_on_c, 0, 80, 0
2, 23424, Note_on_c, 0, 34, 0
2, 23480, Note_on_c, 0, 71, 80
2, 23480, Note_on_c, 0, 80, 80
2, 23480, Note_on_c, 0, 83, 80
2, 23501, Note_on_c, 0, 80, 0
2, 23524, Note_on_c, 0, 71, 0
2, 23534, Note_on_c, 0, 58, 80
2, 23534, Note_on_c, 0, 62, 80
2, 23534, Note_on_c, 0, 65, 80
2, 23534, Note_on_c, 0, 72, 80
2, 23534, Note_on_c, 0, 80, 80
2, 23534, Note_on_c, 0, 84, 80
2, 23539, Note_on_c, 0, 83, 0
2, 23574, Note_on_c, 0, 84, 0
2, 23574, Note_on_c, 0, 62, 0
2, 23574, Note_on_c, 0, 58, 0
2, 23576, Note_on_c, 0, 65, 0
2, 23576, Note_on_c, 0, 80, 0
2, 23576, Note_on_c, 0, 72, 0
2, 23633, Note_on_c, 0, 39, 80
2, 23633, Note_on_c, 0, 73, 80
2, 23633, Note_on_c, 0, 79, 80
2, 23644, Note_on_c, 0, 85, 80
2, 23651, Note_on_c, 0, 79, 0
2, 23661, Note_on_c, 0, 73, 0
2, 23661, Note_on_c, 0, 56, 0
2, 23663, Note_on_c, 0, 85, 0
2, 23669, Control_c, 0, 64, 127
2, 23674, Note_on_c, 0, 39, 0
2, 23681, Note_on_c, 0, 46, 80
2, 23681, Note_on_c, 0, 55, 80
2, 23681, Note_on_c, 0, 74, 80
2, 23681, Note_on_c, 0, 79, 80
2, 23681, Note_on_c, 0, 86, 80
2, 23695, Note_on_c, 0, 82, 80
2, 23712, Note_on_c, 0, 86, 0
2, 23712, Note_on_c, 0, 79, 0
2, 23712, Note_on_c, 0, 74, 0
2, 23713, Note_on_c, 0, 82, 0
2, 23749, Note_on_c, 0, 46, 0
2, 23782, Note_on_c, 0, 72, 80
2, 23782, Note_on_c, 0, 79, 80
2, 23782, Note_on_c, 0, 84, 80
2, 23798, Control_c, 0, 64, 0
2, 23803, Note_on_c, 0, 79, 0
2, 23824, Note_on_c, 0, 72, 0
2, 23826, Note_on_c, 0, 84, 0
2, 23831, Note_on_c, 0, 58, 80
2, 23831, Note_on_c, 0, 63, 80
2, 23831, Note_on_c, 0, 67, 80
2, 23831, Note_on_c, 0, 70, 80
2, 23831, Note_on_c, 0, 79, 80
2, 23831, Note_on_c, 0, 82, 80
2, 23871, Note_on_c, 0, 67, 0
2, 23871, Note_on_c, 0, 58, 0
2, 23873, Note_on_c, 0, 63, 0
2, 23873, Note_on_c, 0, 70, 0
2, 23873, Note_on_c, 0, 79, 0
2, 23873, Note_on_c, 0, 82, 0
2, 23929, Note_on_c, 0, 72, 80
2, 23929, Note_on_c, 0, 79, 80
2, 23929, Note_on_c, 0, 84, 80
2, 23981, Note_on_c, 0, 34, 80
2, 24022, Note_on_c, 0, 34, 0
2, 24062, Note_on_c, 0, 84, 0
2, 24081, Note_on_c, 0, 82, 80
2, 24133, Note_on_c, 0, 58, 80
2, 24133, Note_on_c, 0, 63, 80
2, 24133, Note_on_c, 0, 67, 80
2, 24164, Note_on_c, 0, 67, 0
2, 24164, Note_on_c, 0, 58, 0
2, 24164, Note_on_c, 0, 63, 0
2, 24178, Note_on_c, 0, 79, 0
2, 24178, Note_on_c, 0, 82, 0
2, 24178, Note_on_c, 0, 72, 0
2, 24218, Note_on_c, 0, 55, 0
2, 24240, Note_on_c, 0, 82, 80
2, 24291, Control_c, 0, 64, 127
2, 24291, Note_on_c, 0, 46, 80
2, 24291, Note_on_c, 0, 55, 80
2, 24291, Note_on_c, 0, 74, 80
2, 24291, Note_on_c, 0, 79, 80
2, 24291, Note_on_c, 0, 86, 80
2, 24334, Note_on_c, 0, 86, 0
2, 24334, Note_on_c, 0, 74, 0
2, 24334, Note_on_c, 0, 82, 0
2, 24334, Note_on_c, 0, 79, 0
2, 24394, Note_on_c, 0, 75, 80
2, 24394, Note_on_c, 0, 79, 80
2, 24394, Note_on_c, 0, 82, 80
2, 24394, Note_on_c, 0, 87, 80
2, 24399, Note_on_c, 0, 46, 0
2, 24399, Control_c, 0, 64, 0
2, 24413, Note_on_c, 0, 82, 0
2, 24413, Note_on_c, 0, 79, 0
2, 24428, Note_on_c, 0, 75, 0
2, 24428, Note_on_c, 0, 87, 0
2, 24449, Note_on_c, 0, 58, 80
2, 24449, Note_on_c, 0, 63, 80
2, 24449, Note_on_c, 0, 67, 80
2, 24449, Note_on_c, 0, 72, 80
2, 24449, Note_on_c, 0, 79, 80
2, 24449, Note_on_c, 0, 82, 80
2, 24449, Note_on_c, 0, 84, 80
2, 24480, Note_on_c, 0, 84, 0
2, 24480, Note_on_c, 0, 82, 0
2, 24480, Note_on_c, 0, 72, 0
2, 24480, Note_on_c, 0, 58, 0
2, 24480, Note_on_c, 0, 63, 0
2, 24480, Note_on_c, 0, 67, 0
2, 24480, Note_on_c, 0, 79, 0
2, 24550, Note_on_c, 0, 74, 80
2, 24552, Note_on_c, 0, 79, 80
2, 24552, Note_on_c, 0, 86, 80
2, 24571, Note_on_c, 0, 79, 0
2, 24580, Note_on_c, 0, 55, 0
2, 24580, Note_on_c, 0, 74, 0
2, 24580, Note_on_c, 0, 86, 0
2, 24601, Note_on_c, 0, 46, 80
2, 24603, Note_on_c, 0, 54, 80
2, 24603, Note_on_c, 0, 70, 80
2, 24603, Note_on_c, 0, 82, 80
2, 24634, Note_on_c, 0, 82, 0
2, 24634, Note_on_c, 0, 70, 0
2, 24704, Note_on_c, 0, 71, 80
2, 24704, Note_on_c, 0, 79, 80
2, 24706, Note_on_c, 0, 83, 80
2, 24708, Note_on_c, 0, 46, 0
2, 24724, Note_on_c, 0, 79, 0
2, 24750, Note_on_c, 0, 83, 0
2, 24750, Note_on_c, 0, 71, 0
2, 24755, Note_on_c, 0, 60, 80
2, 24755, Note_on_c, 0, 63, 80
2, 24755, Note_on_c, 0, 66, 80
2, 24755, Note_on_c, 0, 72, 80
2, 24757, Note_on_c, 0, 69, 80
2, 24757, Note_on_c, 0, 84, 80
2, 24799, Note_on_c, 0, 84, 0
2, 24799, Note_on_c, 0, 72, 0
2, 24799, Note_on_c, 0, 60, 0
2, 24799, Note_on_c, 0, 63, 0
2, 24799, Note_on_c, 0, 66, 0
2, 24799, Note_on_c, 0, 69, 0
2, 24860, Note_on_c, 0, 73, 80
2, 24862, Note_on_c, 0, 80, 80
2, 24862, Note_on_c, 0, 85, 80
2, 24878, Note_on_c, 0, 54, 0
2, 24880, Note_on_c, 0, 80, 0
2, 24891, Note_on_c, 0, 73, 0
2, 24891, Note_on_c, 0, 85, 0
2, 24911, Note_on_c, 0, 53, 80
2, 24911, Note_on_c, 0, 74, 80
2, 24911, Note_on_c, 0, 86, 80
2, 24912, Note_on_c, 0, 80, 80
2, 24922, Control_c, 0, 64, 127
2, 24922, Note_on_c, 0, 44, 80
2, 24955, Note_on_c, 0, 80, 0
2, 24955, Note_on_c, 0, 86, 0
2, 24955, Note_on_c, 0, 74, 0
2, 25011, Note_on_c, 0, 72, 80
2, 25011, Note_on_c, 0, 80, 80
2, 25011, Note_on_c, 0, 84, 80
2, 25013, Note_on_c, 0, 44, 0
2, 25023, Control_c, 0, 64, 0
2, 25030, Note_on_c, 0, 80, 0
2, 25039, Note_on_c, 0, 72, 0
2, 25044, Note_on_c, 0, 84, 0
2, 25063, Note_on_c, 0, 56, 80
2, 25063, Note_on_c, 0, 58, 80
2, 25063, Note_on_c, 0, 62, 80
2, 25063, Note_on_c, 0, 65, 80
2, 25063, Note_on_c, 0, 74, 80
2, 25065, Note_on_c, 0, 68, 80
2, 25065, Note_on_c, 0, 80, 80
2, 25093, Note_on_c, 0, 80, 0
2, 25093, Note_on_c, 0, 68, 0
2, 25093, Note_on_c, 0, 74, 0
2, 25104, Note_on_c, 0, 56, 0
2, 25104, Note_on_c, 0, 58, 0
2, 25104, Note_on_c, 0, 62, 0
2, 25106, Note_on_c, 0, 65, 0
2, 25165, Note_on_c, 0, 67, 80
2, 25165, Note_on_c, 0, 73, 80
2, 25165, Note_on_c, 0, 79, 80
2, 25196, Note_on_c, 0, 73, 0
2, 25207, Note_on_c, 0, 67, 0
2, 25209, Note_on_c, 0, 79, 0
2, 25211, Note_on_c, 0, 34, 80
2, 25213, Note_on_c, 0, 65, 80
2, 25213, Note_on_c, 0, 74, 80
2, 25213, Note_on_c, 0, 77, 80
2, 25253, Note_on_c, 0, 34, 0
2, 25268, Note_on_c, 0, 65, 0
2, 25270, Note_on_c, 0, 77, 0
2, 25270, Note_on_c, 0, 74, 0
2, 25314, Note_on_c, 0, 75, 80
2, 25316, Note_on_c, 0, 80, 80
2, 25316, Note_on_c, 0, 84, 80
2, 25316, Note_on_c, 0, 87, 80
2, 25368, Note_on_c, 0, 56, 80
2, 25368, Note_on_c, 0, 58, 80
2, 25368, Note_on_c, 0, 62, 80
2, 25369, Note_on_c, 0, 65, 80
2, 25410, Note_on_c, 0, 65, 0
2, 25410, Note_on_c, 0, 80, 0
2, 25410, Note_on_c, 0, 62, 0
2, 25410, Note_on_c, 0, 84, 0
2, 25410, Note_on_c, 0, 58, 0
2, 25410, Note_on_c, 0, 56, 0
2, 25412, Note_on_c, 0, 75, 0
2, 25412, Note_on_c, 0, 87, 0
2, 25465, Note_on_c, 0, 72, 80
2, 25467, Note_on_c, 0, 84, 80
2, 25484, Note_on_c, 0, 53, 0
2, 25500, Note_on_c, 0, 84, 0
2, 25500, Note_on_c, 0, 72, 0
2, 25521, Control_c, 0, 64, 127
2, 25521, Note_on_c, 0, 41, 80
2, 25521, Note_on_c, 0, 50, 80
2, 25521, Note_on_c, 0, 74, 80
2, 25523, Note_on_c, 0, 80, 80
2, 25523, Note_on_c, 0, 86, 80
2, 25554, Note_on_c, 0, 86, 0
2, 25556, Note_on_c, 0, 74, 0
2, 25556, Note_on_c, 0, 80, 0
2, 25591, Note_on_c, 0, 41, 0
2, 25627, Note_on_c, 0, 70, 80
2, 25629, Note_on_c, 0, 80, 80
2, 25629, Note_on_c, 0, 82, 80
2, 25645, Control_c, 0, 64, 0
2, 25647, Note_on_c, 0, 80, 0
2, 25658, Note_on_c, 0, 82, 0
2, 25658, Note_on_c, 0, 70, 0
2, 25678, Note_on_c, 0, 56, 80
2, 25678, Note_on_c, 0, 58, 80
2, 25678, Note_on_c, 0, 62, 80
2, 25678, Note_on_c, 0, 65, 80
2, 25678, Note_on_c, 0, 71, 80
2, 25678, Note_on_c, 0, 83, 80
2, 25680, Note_on_c, 0, 80, 80
2, 25705, Note_on_c, 0, 50, 0
2, 25707, Note_on_c, 0, 56, 0
2, 25707, Note_on_c, 0, 71, 0
2, 25707, Note_on_c, 0, 58, 0
2, 25707, Note_on_c, 0, 62, 0
2, 25707, Note_on_c, 0, 65, 0
2, 25707, Note_on_c, 0, 83, 0
2, 25707, Note_on_c, 0, 80, 0
2, 25782, Note_on_c, 0, 72, 80
2, 25784, Note_on_c, 0, 80, 80
2, 25784, Note_on_c, 0, 84, 80
2, 25836, Note_on_c, 0, 46, 80
2, 25836, Note_on_c, 0, 58, 80
2, 25864, Note_on_c, 0, 46, 0
2, 25864, Note_on_c, 0, 80, 0
2, 25864, Note_on_c, 0, 72, 0
2, 25878, Note_on_c, 0, 84, 0
2, 25939, Note_on_c, 0, 70, 80
2, 25939, Note_on_c, 0, 82, 80
2, 25944, Note_on_c, 0, 58, 0
2, 25969, Note_on_c, 0, 82, 0
2, 25969, Note_on_c, 0, 70, 0
2, 25989, Note_on_c, 0, 56, 80
2, 25989, Note_on_c, 0, 58, 80
2, 25989, Note_on_c, 0, 72, 80
2, 25991, Note_on_c, 0, 62, 80
2, 25991, Note_on_c, 0, 65, 80
2, 25991, Note_on_c, 0, 80, 80
2, 25991, Note_on_c, 0, 84, 80
2, 26031, Note_on_c, 0, 62, 0
2, 26033, Note_on_c, 0, 65, 0
2, 26033, Note_on_c, 0, 58, 0
2, 26047, Note_on_c, 0, 80, 0
2, 26047, Note_on_c, 0, 72, 0
2, 26047, Note_on_c, 0, 84, 0
2, 26089, Note_on_c, 0, 39, 80
2, 26091, Note_on_c, 0, 70, 80
2, 26091, Note_on_c, 0, 82, 80
2, 26111, Note_on_c, 0, 82, 0
2, 26122, Note_on_c, 0, 56, 0
2, 26124, Note_on_c, 0, 70, 0
2, 26140, Control_c, 0, 64, 127
2, 26142, Note_on_c, 0, 46, 80
2, 26142, Note_on_c, 0, 55, 80
2, 26142, Note_on_c, 0, 75, 80
2, 26142, Note_on_c, 0, 79, 80
2, 26144, Note_on_c, 0, 82, 80
2, 26144, Note_on_c, 0, 87, 80
2, 26182, Note_on_c, 0, 46, 0
2, 26182, Note_on_c, 0, 39, 0
2, 26184, Note_on_c, 0, 55, 0
2, 26184, Note_on_c, 0, 79, 0
2, 26184, Note_on_c, 0, 75, 0
2, 26184, Note_on_c, 0, 87, 0
2, 26184, Note_on_c, 0, 82, 0
2, 26232, Control_c, 0, 64, 0
2, 26244, Note_on_c, 0, 43, 80
2, 26244, Note_on_c, 0, 55, 80
2, 26361, Note_on_c, 0, 55, 0
2, 26361, Note_on_c, 0, 43, 0
2, 26392, Note_on_c, 0, 42, 80
2, 26392, Note_on_c, 0, 54, 80
2, 26436, Note_on_c, 0, 42, 0
2, 26438, Note_on_c, 0, 54, 0
2, 26448, Note_on_c, 0, 43, 80
2, 26448, Note_on_c, 0, 55, 80
2, 26501, Note_on_c, 0, 43, 0
2, 26503, Note_on_c, 0, 55, 0
2, 26550, Note_on_c, 0, 45, 80
2, 26550, Note_on_c, 0, 57, 80
2, 26658, Note_on_c, 0, 57, 0
2, 26658, Note_on_c, 0, 45, 0
2, 26705, Note_on_c, 0, 45, 80
2, 26707, Note_on_c, 0, 57, 80
2, 26747, Note_on_c, 0, 57, 0
2, 26747, Note_on_c, 0, 45, 0
2, 26754, Note_on_c, 0, 46, 80
2, 26756, Note_on_c, 0, 58, 80
2, 26791, Control_c, 0, 64, 127
2, 26812, Note_on_c, 0, 58, 0
2, 26812, Note_on_c, 0, 46, 0
2, 26859, Note_on_c, 0, 45, 80
2, 26859, Note_on_c, 0, 57, 80
2, 26900, Note_on_c, 0, 57, 0
2, 26900, Note_on_c, 0, 45, 0
2, 26906, Note_on_c, 0, 46, 80
2, 26906, Note_on_c, 0, 58, 80
2, 26949, Control_c, 0, 64, 0
2, 26976, Note_on_c, 0, 46, 0
2, 26978, Note_on_c, 0, 58, 0
2, 27009, Note_on_c, 0, 48, 80
2, 27011, Note_on_c, 0, 60, 80
2, 27114, Note_on_c, 0, 60, 0
2, 27114, Note_on_c, 0, 48, 0
2, 27161, Note_on_c, 0, 46, 80
2, 27163, Note_on_c, 0, 58, 80
2, 27205, Note_on_c, 0, 46, 0
2, 27207, Note_on_c, 0, 58, 0
2, 27214, Note_on_c, 0, 43, 80
2, 27214, Note_on_c, 0, 55, 80
2, 27270, Note_on_c, 0, 43, 0
2, 27272, Note_on_c, 0, 55, 0
2, 27316, Note_on_c, 0, 42, 80
2, 27316, Note_on_c, 0, 54, 80
2, 27359, Note_on_c, 0, 54, 0
2, 27359, Note_on_c, 0, 42, 0
2, 27363, Control_c, 0, 64, 127
2, 27365, Note_on_c, 0, 41, 80
2, 27367, Note_on_c, 0, 53, 80
2, 27367, Note_on_c, 0, 74, 80
2, 27369, Note_on_c, 0, 80, 80
2, 27369, Note_on_c, 0, 86, 80
2, 27426, Note_on_c, 0, 86, 0
2, 27426, Note_on_c, 0, 74, 0
2, 27426, Note_on_c, 0, 80, 0
2, 27435, Note_on_c, 0, 41, 0
2, 27473, Note_on_c, 0, 72, 80
2, 27473, Note_on_c, 0, 80, 80
2, 27475, Note_on_c, 0, 84, 80
2, 27491, Note_on_c, 0, 80, 0
2, 27514, Note_on_c, 0, 72, 0
2, 27516, Note_on_c, 0, 84, 0
2, 27521, Note_on_c, 0, 56, 80
2, 27521, Note_on_c, 0, 58, 80
2, 27521, Note_on_c, 0, 62, 80
2, 27521, Note_on_c, 0, 65, 80
2, 27521, Note_on_c, 0, 70, 80
2, 27521, Note_on_c, 0, 74, 80
2, 27523, Note_on_c, 0, 80, 80
2, 27523, Note_on_c, 0, 82, 80
2, 27534, Control_c, 0, 64, 0
2, 27562, Note_on_c, 0, 74, 0
2, 27562, Note_on_c, 0, 62, 0
2, 27562, Note_on_c, 0, 58, 0
2, 27562, Note_on_c, 0, 56, 0
2, 27562, Note_on_c, 0, 65, 0
2, 27564, Note_on_c, 0, 80, 0
2, 27564, Note_on_c, 0, 82, 0
2, 27564, Note_on_c, 0, 70, 0
2, 27624, Note_on_c, 0, 71, 80
2, 27626, Note_on_c, 0, 80, 80
2, 27626, Note_on_c, 0, 83, 80
2, 27646, Note_on_c, 0, 80, 0
2, 27648, Note_on_c, 0, 34, 80
2, 27669, Note_on_c, 0, 71, 0
2, 27671, Note_on_c, 0, 83, 0
2, 27677, Note_on_c, 0, 72, 80
2, 27677, Note_on_c, 0, 80, 80
2, 27677, Note_on_c, 0, 84, 80
2, 27692, Note_on_c, 0, 34, 0
2, 27833, Note_on_c, 0, 56, 80
2, 27833, Note_on_c, 0, 58, 80
2, 27833, Note_on_c, 0, 62, 80
2, 27833, Note_on_c, 0, 65, 80
2, 27875, Note_on_c, 0, 65, 0
2, 27875, Note_on_c, 0, 62, 0
2, 27875, Note_on_c, 0, 56, 0
2, 27875, Note_on_c, 0, 53, 0
2, 27875, Note_on_c, 0, 58, 0
2, 27877, Note_on_c, 0, 80, 0
2, 27877, Note_on_c, 0, 84, 0
2, 27877, Note_on_c, 0, 72, 0
2, 27937, Note_on_c, 0, 41, 80
2, 27939, Note_on_c, 0, 82, 80
2, 27984, Note_on_c, 0, 82, 0
2, 27985, Control_c, 0, 64, 127
2, 27987, Note_on_c, 0, 56, 80
2, 27989, Note_on_c, 0, 81, 80
2, 28030, Note_on_c, 0, 41, 0
2, 28060, Note_on_c, 0, 81, 0
2, 28080, Note_on_c, 0, 82, 80
2, 28124, Note_on_c, 0, 82, 0
2, 28130, Control_c, 0, 64, 0
2, 28142, Note_on_c, 0, 58, 80
2, 28142, Note_on_c, 0, 65, 80
2, 28142, Note_on_c, 0, 68, 80
2, 28144, Note_on_c, 0, 62, 80
2, 28144, Note_on_c, 0, 80, 80
2, 28175, Note_on_c, 0, 80, 0
2, 28175, Note_on_c, 0, 58, 0
2, 28175, Note_on_c, 0, 65, 0
2, 28175, Note_on_c, 0, 68, 0
2, 28175, Note_on_c, 0, 62, 0
2, 28181, Note_on_c, 0, 82, 80
2, 28214, Note_on_c, 0, 82, 0
2, 28221, Note_on_c, 0, 80, 80
2, 28253, Note_on_c, 0, 80, 0
2, 28258, Note_on_c, 0, 77, 80
2, 28291, Note_on_c, 0, 77, 0
2, 28293, Note_on_c, 0, 34, 80
2, 28297, Note_on_c, 0, 74, 80
2, 28330, Note_on_c, 0, 74, 0
2, 28337, Note_on_c, 0, 77, 80
2, 28339, Note_on_c, 0, 34, 0
2, 28367, Note_on_c, 0, 77, 0
2, 28376, Note_on_c, 0, 74, 80
2, 28407, Note_on_c, 0, 74, 0
2, 28414, Note_on_c, 0, 72, 80
2, 28441, Note_on_c, 0, 72, 0
2, 28448, Note_on_c, 0, 58, 80
2, 28448, Note_on_c, 0, 65, 80
2, 28450, Note_on_c, 0, 70, 80
2, 28450, Note_on_c, 0, 74, 80
2, 28450, Note_on_c, 0, 77, 80
2, 28450, Note_on_c, 0, 80, 80
2, 28450, Note_on_c, 0, 82, 80
2, 28460, Note_on_c, 0, 62, 80
2, 28490, Note_on_c, 0, 58, 0
2, 28492, Note_on_c, 0, 62, 0
2, 28492, Note_on_c, 0, 65, 0
2, 28502, Note_on_c, 0, 74, 0
2, 28502, Note_on_c, 0, 70, 0
2, 28502, Note_on_c, 0, 77, 0
2, 28504, Note_on_c, 0, 82, 0
2, 28504, Note_on_c, 0, 80, 0
2, 28541, Note_on_c, 0, 56, 0
2, 28548, Note_on_c, 0, 39, 80
2, 28550, Note_on_c, 0, 68, 80
2, 28552, Note_on_c, 0, 74, 80
2, 28552, Note_on_c, 0, 77, 80
2, 28552, Note_on_c, 0, 80, 80
2, 28578, Note_on_c, 0, 39, 0
2, 28597, Control_c, 0, 64, 127
2, 28599, Note_on_c, 0, 46, 80
2, 28599, Note_on_c, 0, 55, 80
2, 28606, Note_on_c, 0, 68, 0
2, 28606, Note_on_c, 0, 74, 0
2, 28608, Note_on_c, 0, 80, 0
2, 28608, Note_on_c, 0, 77, 0
2, 28666, Note_on_c, 0, 46, 0
2, 28702, Note_on_c, 0, 74, 80
2, 28704, Note_on_c, 0, 79, 80
2, 28704, Note_on_c, 0, 82, 80
2, 28704, Note_on_c, 0, 86, 80
2, 28718, Control_c, 0, 64, 0
2, 28720, Note_on_c, 0, 82, 0
2, 28720, Note_on_c, 0, 79, 0
2, 28746, Note_on_c, 0, 86, 0
2, 28746, Note_on_c, 0, 74, 0
2, 28752, Note_on_c, 0, 58, 80
2, 28752, Note_on_c, 0, 63, 80
2, 28752, Note_on_c, 0, 67, 80
2, 28752, Note_on_c, 0, 72, 80
2, 28752, Note_on_c, 0, 79, 80
2, 28752, Note_on_c, 0, 82, 80
2, 28752, Note_on_c, 0, 84, 80
2, 28795, Note_on_c, 0, 72, 0
2, 28795, Note_on_c, 0, 67, 0
2, 28795, Note_on_c, 0, 58, 0
2, 28797, Note_on_c, 0, 63, 0
2, 28797, Note_on_c, 0, 79, 0
2, 28797, Note_on_c, 0, 84, 0
2, 28797, Note_on_c, 0, 82, 0
2, 28844, Note_on_c, 0, 55, 0
2, 28855, Note_on_c, 0, 70, 80
2, 28855, Note_on_c, 0, 79, 80
2, 28855, Note_on_c, 0, 82, 80
2, 28874, Note_on_c, 0, 79, 0
2, 28900, Note_on_c, 0, 82, 0
2, 28900, Note_on_c, 0, 70, 0
2, 28905, Note_on_c, 0, 58, 80
2, 28907, Note_on_c, 0, 72, 80
2, 28907, Note_on_c, 0, 79, 80
2, 28907, Note_on_c, 0, 84, 80
2, 29027, Note_on_c, 0, 58, 0
2, 29060, Note_on_c, 0, 58, 80
2, 29060, Note_on_c, 0, 67, 80
2, 29062, Note_on_c, 0, 63, 80
2, 29089, Note_on_c, 0, 63, 0
2, 29089, Note_on_c, 0, 67, 0
2, 29101, Note_on_c, 0, 72, 0
2, 29103, Note_on_c, 0, 84, 0
2, 29103, Note_on_c, 0, 79, 0
2, 29157, Note_on_c, 0, 46, 80
2, 29159, Note_on_c, 0, 79, 80
2, 29160, Note_on_c, 0, 82, 80
2, 29177, Note_on_c, 0, 82, 0
2, 29177, Note_on_c, 0, 79, 0
2, 29186, Note_on_c, 0, 58, 0
2, 29206, Control_c, 0, 64, 127
2, 29208, Note_on_c, 0, 55, 80
2, 29208, Note_on_c, 0, 74, 80
2, 29209, Note_on_c, 0, 79, 80
2, 29209, Note_on_c, 0, 82, 80
2, 29209, Note_on_c, 0, 86, 80
2, 29235, Note_on_c, 0, 46, 0
2, 29237, Note_on_c, 0, 82, 0
2, 29237, Note_on_c, 0, 74, 0
2, 29239, Note_on_c, 0, 86, 0
2, 29239, Note_on_c, 0, 79, 0
2, 29309, Control_c, 0, 64, 0
2, 29309, Note_on_c, 0, 75, 80
2, 29309, Note_on_c, 0, 79, 80
2, 29309, Note_on_c, 0, 82, 80
2, 29309, Note_on_c, 0, 87, 80
2, 29328, Note_on_c, 0, 79, 0
2, 29330, Note_on_c, 0, 82, 0
2, 29340, Note_on_c, 0, 87, 0
2, 29340, Note_on_c, 0, 75, 0
2, 29359, Note_on_c, 0, 63, 80
2, 29361, Note_on_c, 0, 79, 80
2, 29361, Note_on_c, 0, 82, 80
2, 29361, Note_on_c, 0, 84, 80
2, 29363, Note_on_c, 0, 60, 80
2, 29403, Note_on_c, 0, 60, 0
2, 29403, Note_on_c, 0, 63, 0
2, 29403, Note_on_c, 0, 79, 0
2, 29405, Note_on_c, 0, 84, 0
2, 29405, Note_on_c, 0, 82, 0
2, 29462, Note_on_c, 0, 74, 80
2, 29462, Note_on_c, 0, 79, 80
2, 29464, Note_on_c, 0, 82, 80
2, 29464, Note_on_c, 0, 86, 80
2, 29480, Note_on_c, 0, 82, 0
2, 29480, Note_on_c, 0, 79, 0
2, 29490, Note_on_c, 0, 74, 0
2, 29492, Note_on_c, 0, 86, 0
2, 29511, Note_on_c, 0, 39, 80
2, 29513, Note_on_c, 0, 70, 80
2, 29513, Note_on_c, 0, 79, 80
2, 29515, Note_on_c, 0, 82, 80
2, 29552, Note_on_c, 0, 39, 0
2, 29554, Note_on_c, 0, 79, 0
2, 29554, Note_on_c, 0, 82, 0
2, 29554, Note_on_c, 0, 70, 0
2, 29613, Note_on_c, 0, 75, 80
2, 29615, Note_on_c, 0, 87, 80
2, 29655, Note_on_c, 0, 87, 0
2, 29655, Note_on_c, 0, 75, 0
2, 29660, Note_on_c, 0, 58, 80
2, 29662, Note_on_c, 0, 62, 80
2, 29662, Note_on_c, 0, 74, 80
2, 29662, Note_on_c, 0, 79, 80
2, 29662, Note_on_c, 0, 86, 80
2, 29704, Note_on_c, 0, 74, 0
2, 29706, Note_on_c, 0, 79, 0
2, 29706, Note_on_c, 0, 62, 0
2, 29706, Note_on_c, 0, 86, 0
2, 29715, Note_on_c, 0, 58, 0
2, 29760, Note_on_c, 0, 73, 80
2, 29761, Note_on_c, 0, 79, 80
2, 29761, Note_on_c, 0, 85, 80
2, 29778, Note_on_c, 0, 55, 0
2, 29804, Note_on_c, 0, 73, 0
2, 29804, Note_on_c, 0, 85, 0
2, 29806, Note_on_c, 0, 79, 0
2, 29806, Control_c, 0, 64, 127
2, 29808, Note_on_c, 0, 44, 80
2, 29809, Note_on_c, 0, 56, 80
2, 29809, Note_on_c, 0, 72, 80
2, 29809, Note_on_c, 0, 84, 80
2, 29811, Note_on_c, 0, 80, 80
2, 29852, Note_on_c, 0, 44, 0
2, 29894, Note_on_c, 0, 72, 0
2, 29905, Note_on_c, 0, 80, 0
2, 29907, Note_on_c, 0, 84, 0
2, 29914, Control_c, 0, 64, 0
2, 29916, Note_on_c, 0, 56, 0
2, 29965, Note_on_c, 0, 51, 80
2, 29965, Note_on_c, 0, 56, 80
2, 29965, Note_on_c, 0, 60, 80
2, 29965, Note_on_c, 0, 71, 80
2, 29967, Note_on_c, 0, 80, 80
2, 29967, Note_on_c, 0, 83, 80
2, 30009, Note_on_c, 0, 60, 0
2, 30009, Note_on_c, 0, 51, 0
2, 30011, Note_on_c, 0, 80, 0
2, 30023, Note_on_c, 0, 71, 0
2, 30023, Note_on_c, 0, 83, 0
2, 30070, Note_on_c, 0, 72, 80
2, 30070, Note_on_c, 0, 84, 80
2, 30086, Note_on_c, 0, 56, 0
2, 30114, Note_on_c, 0, 84, 0
2, 30114, Note_on_c, 0, 72, 0
2, 30120, Note_on_c, 0, 45, 80
2, 30120, Note_on_c, 0, 57, 80
2, 30120, Note_on_c, 0, 74, 80
2, 30122, Note_on_c, 0, 78, 80
2, 30122, Note_on_c, 0, 81, 80
2, 30122, Note_on_c, 0, 86, 80
2, 30163, Note_on_c, 0, 45, 0
2, 30216, Note_on_c, 0, 74, 0
2, 30216, Note_on_c, 0, 78, 0
2, 30216, Note_on_c, 0, 81, 0
2, 30216, Note_on_c, 0, 86, 0
2, 30226, Note_on_c, 0, 57, 0
2, 30273, Note_on_c, 0, 51, 80
2, 30275, Note_on_c, 0, 54, 80
2, 30275, Note_on_c, 0, 57, 80
2, 30275, Note_on_c, 0, 60, 80
2, 30275, Note_on_c, 0, 72, 80
2, 30275, Note_on_c, 0, 78, 80
2, 30275, Note_on_c, 0, 84, 80
2, 30287, Note_on_c, 0, 81, 80
2, 30303, Note_on_c, 0, 60, 0
2, 30303, Note_on_c, 0, 54, 0
2, 30303, Note_on_c, 0, 51, 0
2, 30317, Note_on_c, 0, 81, 0
2, 30317, Note_on_c, 0, 72, 0
2, 30317, Note_on_c, 0, 78, 0
2, 30334, Note_on_c, 0, 84, 0
2, 30378, Note_on_c, 0, 74, 80
2, 30378, Note_on_c, 0, 86, 80
2, 30394, Note_on_c, 0, 57, 0
2, 30408, Note_on_c, 0, 86, 0
2, 30408, Note_on_c, 0, 74, 0
2, 30410, Control_c, 0, 64, 127
2, 30427, Note_on_c, 0, 46, 80
2, 30427, Note_on_c, 0, 58, 80
2, 30429, Note_on_c, 0, 75, 80
2, 30429, Note_on_c, 0, 79, 80
2, 30429, Note_on_c, 0, 87, 80
2, 30461, Note_on_c, 0, 79, 0
2, 30461, Note_on_c, 0, 75, 0
2, 30476, Note_on_c, 0, 87, 0
2, 30480, Note_on_c, 0, 77, 80
2, 30480, Note_on_c, 0, 82, 80
2, 30480, Note_on_c, 0, 89, 80
2, 30500, Note_on_c, 0, 82, 0
2, 30506, Note_on_c, 0, 46, 0
2, 30511, Note_on_c, 0, 89, 0
2, 30511, Note_on_c, 0, 77, 0
2, 30523, Note_on_c, 0, 58, 0
2, 30529, Note_on_c, 0, 75, 80
2, 30544, Note_on_c, 0, 82, 80
2, 30544, Note_on_c, 0, 87, 80
2, 30546, Control_c, 0, 64, 0
2, 30546, Note_on_c, 0, 79, 80
2, 30574, Note_on_c, 0, 79, 0
2, 30574, Note_on_c, 0, 75, 0
2, 30576, Note_on_c, 0, 87, 0
2, 30576, Note_on_c, 0, 82, 0
2, 30577, Note_on_c, 0, 43, 80
2, 30579, Note_on_c, 0, 50, 80
2, 30579, Note_on_c, 0, 59, 80
2, 30579, Note_on_c, 0, 74, 80
2, 30581, Note_on_c, 0, 77, 80
2, 30581, Note_on_c, 0, 83, 80
2, 30581, Note_on_c, 0, 86, 80
2, 30638, Note_on_c, 0, 83, 0
2, 30638, Note_on_c, 0, 74, 0
2, 30640, Note_on_c, 0, 77, 0
2, 30640, Note_on_c, 0, 86, 0
2, 30672, Note_on_c, 0, 43, 0
2, 30672, Note_on_c, 0, 59, 0
2, 30672, Note_on_c, 0, 50, 0
2, 30684, Note_on_c, 0, 72, 80
2, 30684, Note_on_c, 0, 76, 80
2, 30684, Note_on_c, 0, 79, 80
2, 30684, Note_on_c, 0, 82, 80
2, 30684, Note_on_c, 0, 84, 80
2, 30728, Note_on_c, 0, 36, 80
2, 30730, Note_on_c, 0, 43, 80
2, 30730, Note_on_c, 0, 52, 80
2, 30880, Note_on_c, 0, 55, 80
2, 30882, Note_on_c, 0, 58, 80
2, 30882, Note_on_c, 0, 60, 80
2, 30882, Note_on_c, 0, 64, 80
2, 30922, Note_on_c, 0, 55, 0
2, 30922, Note_on_c, 0, 52, 0
2, 30922, Note_on_c, 0, 43, 0
2, 30922, Note_on_c, 0, 36, 0
2, 30924, Note_on_c, 0, 79, 0
2, 30924, Note_on_c, 0, 58, 0
2, 30924, Note_on_c, 0, 84, 0
2, 30924, Note_on_c, 0, 64, 0
2, 30924, Note_on_c, 0, 60, 0
2, 30924, Note_on_c, 0, 76, 0
2, 30924, Note_on_c, 0, 72, 0
2, 30929, Note_on_c, 0, 82, 0
2, 30983, Note_on_c, 0, 41, 80
2, 30984, Note_on_c, 0, 74, 80
2, 30984, Note_on_c, 0, 86, 80
2, 31032, Note_on_c, 0, 74, 0
2, 31033, Note_on_c, 0, 86, 0
2, 31035, Control_c, 0, 64, 127
2, 31037, Note_on_c, 0, 48, 80
2, 31037, Note_on_c, 0, 57, 80
2, 31039, Note_on_c, 0, 75, 80
2, 31039, Note_on_c, 0, 84, 80
2, 31054, Note_on_c, 0, 87, 80
2, 31060, Note_on_c, 0, 84, 0
2, 31081, Note_on_c, 0, 48, 0
2, 31081, Note_on_c, 0, 41, 0
2, 31083, Note_on_c, 0, 75, 0
2, 31090, Note_on_c, 0, 77, 80
2, 31090, Note_on_c, 0, 84, 80
2, 31097, Note_on_c, 0, 87, 0
2, 31104, Note_on_c, 0, 89, 80
2, 31110, Note_on_c, 0, 84, 0
2, 31133, Note_on_c, 0, 89, 0
2, 31135, Note_on_c, 0, 77, 0
2, 31140, Note_on_c, 0, 75, 80
2, 31140, Note_on_c, 0, 84, 80
2, 31140, Note_on_c, 0, 87, 80
2, 31142, Note_on_c, 0, 57, 0
2, 31158, Note_on_c, 0, 84, 0
2, 31173, Control_c, 0, 64, 0
2, 31184, Note_on_c, 0, 75, 0
2, 31191, Note_on_c, 0, 53, 80
2, 31191, Note_on_c, 0, 57, 80
2, 31191, Note_on_c, 0, 60, 80
2, 31191, Note_on_c, 0, 63, 80
2, 31191, Note_on_c, 0, 72, 80
2, 31191, Note_on_c, 0, 84, 80
2, 31198, Note_on_c, 0, 87, 0
2, 31204, Note_on_c, 0, 81, 80
2, 31221, Note_on_c, 0, 63, 0
2, 31221, Note_on_c, 0, 53, 0
2, 31221, Note_on_c, 0, 60, 0
2, 31223, Note_on_c, 0, 81, 0
2, 31272, Note_on_c, 0, 72, 0
2, 31273, Note_on_c, 0, 84, 0
2, 31293, Note_on_c, 0, 46, 80
2, 31295, Note_on_c, 0, 71, 80
2, 31295, Note_on_c, 0, 77, 80
2, 31295, Note_on_c, 0, 83, 80
2, 31311, Note_on_c, 0, 57, 0
2, 31313, Note_on_c, 0, 77, 0
2, 31336, Note_on_c, 0, 83, 0
2, 31336, Note_on_c, 0, 71, 0
2, 31343, Note_on_c, 0, 58, 80
2, 31343, Note_on_c, 0, 74, 80
2, 31344, Note_on_c, 0, 70, 80
2, 31344, Note_on_c, 0, 77, 80
2, 31344, Note_on_c, 0, 80, 80
2, 31344, Note_on_c, 0, 82, 80
2, 31372, Note_on_c, 0, 46, 0
2, 31387, Note_on_c, 0, 77, 0
2, 31387, Note_on_c, 0, 74, 0
2, 31387, Note_on_c, 0, 70, 0
2, 31387, Note_on_c, 0, 80, 0
2, 31389, Note_on_c, 0, 82, 0
2, 31445, Note_on_c, 0, 70, 80
2, 31447, Note_on_c, 0, 74, 80
2, 31447, Note_on_c, 0, 78, 80
2, 31464, Note_on_c, 0, 74, 0
2, 31464, Note_on_c, 0, 58, 0
2, 31465, Note_on_c, 0, 70, 0
2, 31475, Note_on_c, 0, 78, 0
2, 31496, Note_on_c, 0, 53, 80
2, 31496, Note_on_c, 0, 56, 80
2, 31496, Note_on_c, 0, 58, 80
2, 31496, Note_on_c, 0, 70, 80
2, 31498, Note_on_c, 0, 74, 80
2, 31498, Note_on_c, 0, 79, 80
2, 31508, Note_on_c, 0, 62, 80
2, 31566, Note_on_c, 0, 79, 0
2, 31566, Note_on_c, 0, 70, 0
2, 31566, Note_on_c, 0, 74, 0
2, 31576, Note_on_c, 0, 53, 0
2, 31578, Note_on_c, 0, 56, 0
2, 31578, Note_on_c, 0, 58, 0
2, 31578, Note_on_c, 0, 62, 0
2, 31599, Note_on_c, 0, 75, 80
2, 31630, Control_c, 0, 64, 127
2, 31646, Note_on_c, 0, 51, 80
2, 31648, Note_on_c, 0, 55, 80
2, 31648, Note_on_c, 0, 58, 80
2, 31648, Note_on_c, 0, 63, 80
2, 31648, Note_on_c, 0, 70, 80
2, 31648, Note_on_c, 0, 79, 80
2, 31676, Note_on_c, 0, 63, 0
2, 31676, Note_on_c, 0, 55, 0
2, 31676, Note_on_c, 0, 51, 0
2, 31678, Note_on_c, 0, 58, 0
2, 31678, Note_on_c, 0, 75, 0
2, 31678, Note_on_c, 0, 70, 0
2, 31678, Note_on_c, 0, 79, 0
2, 31710, Control_c, 0, 64, 0
2, 31954, Note_on_c, 0, 39, 80
2, 31956, Note_on_c, 0, 51, 80
2, 31956, Note_on_c, 0, 75, 80
2, 31956, Note_on_c, 0, 79, 80
2, 31958, Note_on_c, 0, 82, 80
2, 31958, Note_on_c, 0, 87, 80
2, 32023, Note_on_c, 0, 51, 0
2, 32023, Note_on_c, 0, 39, 0
2, 32080, Note_on_c, 0, 82, 0
2, 32080, Note_on_c, 0, 75, 0
2, 32080, Note_on_c, 0, 87, 0
2, 32082, Note_on_c, 0, 79, 0
2, 32267, Control_c, 0, 64, 127
2, 32269, Note_on_c, 0, 38, 80
2, 32269, Note_on_c, 0, 50, 80
2, 32372, Note_on_c, 0, 60, 80
2, 32386, Note_on_c, 0, 62, 80
2, 32391, Note_on_c, 0, 60, 0
2, 32398, Note_on_c, 0, 63, 80
2, 32402, Note_on_c, 0, 62, 0
2, 32409, Note_on_c, 0, 64, 80
2, 32416, Note_on_c, 0, 63, 0
2, 32423, Note_on_c, 0, 65, 80
2, 32427, Note_on_c, 0, 64, 0
2, 32463, Control_c, 0, 64, 0
2, 32465, Note_on_c, 0, 65, 0
2, 32523, Note_on_c, 0, 57, 80
2, 32523, Note_on_c, 0, 64, 80
2, 32523, Note_on_c, 0, 69, 80
2, 32540, Note_on_c, 0, 38, 0
2, 32542, Note_on_c, 0, 50, 0
2, 32569, Note_on_c, 0, 37, 80
2, 32569, Note_on_c, 0, 49, 80
2, 32635, Note_on_c, 0, 64, 0
2, 32635, Note_on_c, 0, 69, 0
2, 32635, Note_on_c, 0, 57, 0
2, 32670, Note_on_c, 0, 68, 80
2, 32689, Note_on_c, 0, 68, 0
2, 32720, Note_on_c, 0, 58, 80
2, 32720, Note_on_c, 0, 64, 80
2, 32722, Note_on_c, 0, 68, 80
2, 32753, Note_on_c, 0, 68, 0
2, 32772, Note_on_c, 0, 67, 80
2, 32805, Note_on_c, 0, 67, 0
2, 32805, Note_on_c, 0, 64, 0
2, 32805, Note_on_c, 0, 58, 0
2, 32824, Note_on_c, 0, 69, 80
2, 32840, Note_on_c, 0, 37, 0
2, 32840, Note_on_c, 0, 49, 0
2, 32868, Note_on_c, 0, 69, 0
2, 32873, Control_c, 0, 64, 127
2, 32873, Note_on_c, 0, 36, 80
2, 32875, Note_on_c, 0, 48, 80
2, 32875, Note_on_c, 0, 57, 80
2, 32875, Note_on_c, 0, 63, 80
2, 32875, Note_on_c, 0, 67, 80
2, 32982, Note_on_c, 0, 67, 0
2, 32982, Note_on_c, 0, 57, 0
2, 32982, Note_on_c, 0, 63, 0
2, 33020, Control_c, 0, 64, 0
2, 33026, Note_on_c, 0, 57, 80
2, 33026, Note_on_c, 0, 66, 80
2, 33028, Note_on_c, 0, 63, 80
2, 33056, Note_on_c, 0, 63, 0
2, 33072, Note_on_c, 0, 57, 0
2, 33072, Note_on_c, 0, 66, 0
2, 33108, Note_on_c, 0, 36, 0
2, 33110, Note_on_c, 0, 48, 0
2, 33131, Note_on_c, 0, 57, 80
2, 33131, Note_on_c, 0, 63, 80
2, 33131, Note_on_c, 0, 65, 80
2, 33185, Note_on_c, 0, 41, 80
2, 33185, Note_on_c, 0, 48, 80
2, 33281, Note_on_c, 0, 48, 0
2, 33281, Note_on_c, 0, 65, 0
2, 33281, Note_on_c, 0, 57, 0
2, 33281, Note_on_c, 0, 63, 0
2, 33281, Note_on_c, 0, 41, 0
2, 33339, Note_on_c, 0, 41, 80
2, 33341, Note_on_c, 0, 53, 80
2, 33341, Note_on_c, 0, 65, 80
2, 33341, Note_on_c, 0, 69, 80
2, 33341, Note_on_c, 0, 72, 80
2, 33341, Note_on_c, 0, 75, 80
2, 33341, Note_on_c, 0, 77, 80
2, 33372, Note_on_c, 0, 53, 0
2, 33374, Note_on_c, 0, 75, 0
2, 33374, Note_on_c, 0, 72, 0
2, 33374, Note_on_c, 0, 69, 0
2, 33374, Note_on_c, 0, 41, 0
2, 33374, Note_on_c, 0, 77, 0
2, 33385, Note_on_c, 0, 65, 0
2, 33501, Control_c, 0, 64, 127
2, 33501, Note_on_c, 0, 38, 80
2, 33501, Note_on_c, 0, 50, 80
2, 33554, Control_c, 0, 64, 0
2, 33657, Note_on_c, 0, 55, 80
2, 33657, Note_on_c, 0, 61, 80
2, 33722, Note_on_c, 0, 61, 0
2, 33732, Note_on_c, 0, 55, 0
2, 33753, Note_on_c, 0, 62, 80
2, 33769, Note_on_c, 0, 38, 0
2, 33771, Note_on_c, 0, 50, 0
2, 33797, Note_on_c, 0, 62, 0
2, 33804, Note_on_c, 0, 37, 80
2, 33806, Note_on_c, 0, 49, 80
2, 33806, Note_on_c, 0, 58, 80
2, 33806, Note_on_c, 0, 64, 80
2, 33806, Note_on_c, 0, 69, 80
2, 33900, Note_on_c, 0, 37, 0
2, 33902, Note_on_c, 0, 64, 0
2, 33902, Note_on_c, 0, 58, 0
2, 33904, Note_on_c, 0, 69, 0
2, 33920, Note_on_c, 0, 37, 80
2, 33960, Note_on_c, 0, 58, 80
2, 33960, Note_on_c, 0, 64, 80
2, 33960, Note_on_c, 0, 67, 80
2, 34055, Note_on_c, 0, 64, 0
2, 34055, Note_on_c, 0, 58, 0
2, 34056, Note_on_c, 0, 67, 0
2, 34094, Note_on_c, 0, 37, 0
2, 34094, Note_on_c, 0, 49, 0
2, 34110, Control_c, 0, 64, 127
2, 34115, Note_on_c, 0, 36, 80
2, 34115, Note_on_c, 0, 48, 80
2, 34115, Note_on_c, 0, 57, 80
2, 34115, Note_on_c, 0, 63, 80
2, 34115, Note_on_c, 0, 67, 80
2, 34209, Note_on_c, 0, 67, 0
2, 34209, Note_on_c, 0, 57, 0
2, 34209, Note_on_c, 0, 63, 0
2, 34235, Control_c, 0, 64, 0
2, 34271, Note_on_c, 0, 57, 80
2, 34271, Note_on_c, 0, 66, 80
2, 34272, Note_on_c, 0, 63, 80
2, 34315, Note_on_c, 0, 63, 0
2, 34315, Note_on_c, 0, 57, 0
2, 34315, Note_on_c, 0, 66, 0
2, 34371, Note_on_c, 0, 57, 80
2, 34371, Note_on_c, 0, 63, 80
2, 34376, Note_on_c, 0, 65, 80
2, 34381, Note_on_c, 0, 48, 0
2, 34381, Note_on_c, 0, 36, 0
2, 34425, Note_on_c, 0, 41, 80
2, 34425, Note_on_c, 0, 48, 80
2, 34507, Note_on_c, 0, 48, 0
2, 34507, Note_on_c, 0, 63, 0
2, 34507, Note_on_c, 0, 65, 0
2, 34507, Note_on_c, 0, 57, 0
2, 34507, Note_on_c, 0, 41, 0
2, 34584, Note_on_c, 0, 40, 80
2, 34584, Note_on_c, 0, 52, 80
2, 34615, Note_on_c, 0, 40, 0
2, 34688, Note_on_c, 0, 41, 80
2, 34704, Note_on_c, 0, 52, 0
2, 34737, Control_c, 0, 64, 127
2, 34739, Note_on_c, 0, 53, 80
2, 34783, Note_on_c, 0, 41, 0
2, 34832, Note_on_c, 0, 53, 0
2, 34839, Note_on_c, 0, 61, 80
2, 34839, Note_on_c, 0, 68, 80
2, 34839, Note_on_c, 0, 73, 80
2, 34844, Control_c, 0, 64, 0
2, 34858, Note_on_c, 0, 68, 0
2, 34872, Note_on_c, 0, 73, 0
2, 34872, Note_on_c, 0, 61, 0
2, 34892, Note_on_c, 0, 53, 80
2, 34892, Note_on_c, 0, 74, 80
2, 34894, Note_on_c, 0, 56, 80
2, 34894, Note_on_c, 0, 58, 80
2, 34894, Note_on_c, 0, 62, 80
2, 34894, Note_on_c, 0, 68, 80
2, 34913, Note_on_c, 0, 62, 0
2, 34922, Note_on_c, 0, 68, 0
2, 34924, Note_on_c, 0, 74, 0
2, 34973, Note_on_c, 0, 58, 0
2, 34994, Note_on_c, 0, 74, 80
2, 34994, Note_on_c, 0, 80, 80
2, 34999, Note_on_c, 0, 56, 0
2, 35009, Note_on_c, 0, 86, 80
2, 35046, Note_on_c, 0, 34, 80
2, 35088, Note_on_c, 0, 34, 0
2, 35137, Note_on_c, 0, 74, 0
2, 35152, Note_on_c, 0, 80, 0
2, 35152, Note_on_c, 0, 53, 0
2, 35152, Note_on_c, 0, 86, 0
2, 35201, Note_on_c, 0, 53, 80
2, 35201, Note_on_c, 0, 56, 80
2, 35201, Note_on_c, 0, 58, 80
2, 35201, Note_on_c, 0, 73, 80
2, 35201, Note_on_c, 0, 80, 80
2, 35201, Note_on_c, 0, 85, 80
2, 35212, Note_on_c, 0, 62, 80
2, 35229, Note_on_c, 0, 73, 0
2, 35231, Note_on_c, 0, 85, 0
2, 35242, Note_on_c, 0, 80, 0
2, 35256, Note_on_c, 0, 62, 0
2, 35268, Note_on_c, 0, 56, 0
2, 35268, Note_on_c, 0, 58, 0
2, 35299, Note_on_c, 0, 80, 80
2, 35299, Note_on_c, 0, 86, 80
2, 35301, Note_on_c, 0, 39, 80
2, 35301, Note_on_c, 0, 74, 80
2, 35317, Note_on_c, 0, 53, 0
2, 35343, Note_on_c, 0, 39, 0
2, 35343, Note_on_c, 0, 80, 0
2, 35343, Note_on_c, 0, 86, 0
2, 35343, Note_on_c, 0, 74, 0
2, 35350, Control_c, 0, 64, 127
2, 35350, Note_on_c, 0, 46, 80
2, 35352, Note_on_c, 0, 55, 80
2, 35352, Note_on_c, 0, 79, 80
2, 35352, Note_on_c, 0, 82, 80
2, 35352, Note_on_c, 0, 84, 80
2, 35363, Note_on_c, 0, 72, 80
2, 35391, Note_on_c, 0, 46, 0
2, 35443, Note_on_c, 0, 79, 0
2, 35443, Note_on_c, 0, 82, 0
2, 35443, Note_on_c, 0, 72, 0
2, 35443, Control_c, 0, 64, 0
2, 35445, Note_on_c, 0, 84, 0
2, 35501, Note_on_c, 0, 58, 80
2, 35501, Note_on_c, 0, 63, 80
2, 35501, Note_on_c, 0, 67, 80
2, 35501, Note_on_c, 0, 71, 80
2, 35501, Note_on_c, 0, 83, 80
2, 35545, Note_on_c, 0, 71, 0
2, 35545, Note_on_c, 0, 67, 0
2, 35547, Note_on_c, 0, 63, 0
2, 35547, Note_on_c, 0, 58, 0
2, 35547, Note_on_c, 0, 83, 0
2, 35601, Note_on_c, 0, 70, 80
2, 35601, Note_on_c, 0, 79, 80
2, 35601, Note_on_c, 0, 82, 80
2, 35634, Note_on_c, 0, 55, 0
2, 35655, Note_on_c, 0, 39, 80
2, 35655, Note_on_c, 0, 51, 80
2, 35699, Note_on_c, 0, 51, 0
2, 35699, Note_on_c, 0, 39, 0
2, 35713, Note_on_c, 0, 82, 0
2, 35713, Note_on_c, 0, 79, 0
2, 35713, Note_on_c, 0, 70, 0
2, 35758, Note_on_c, 0, 71, 80
2, 35758, Note_on_c, 0, 79, 80
2, 35758, Note_on_c, 0, 83, 80
2, 35779, Note_on_c, 0, 79, 0
2, 35809, Note_on_c, 0, 41, 80
2, 35809, Note_on_c, 0, 50, 80
2, 35809, Note_on_c, 0, 72, 80
2, 35809, Note_on_c, 0, 79, 80
2, 35809, Note_on_c, 0, 84, 80
2, 35814, Note_on_c, 0, 83, 0
2, 35814, Note_on_c, 0, 71, 0
2, 35852, Note_on_c, 0, 79, 0
2, 35854, Note_on_c, 0, 72, 0
2, 35854, Note_on_c, 0, 84, 0
2, 35863, Note_on_c, 0, 41, 0
2, 35865, Note_on_c, 0, 50, 0
2, 35912, Note_on_c, 0, 73, 80
2, 35912, Note_on_c, 0, 79, 80
2, 35912, Note_on_c, 0, 85, 80
2, 35914, Note_on_c, 0, 51, 80
2, 35926, Note_on_c, 0, 42, 80
2, 35932, Note_on_c, 0, 79, 0
2, 35942, Note_on_c, 0, 73, 0
2, 35942, Note_on_c, 0, 85, 0
2, 35944, Note_on_c, 0, 51, 0
2, 35944, Note_on_c, 0, 42, 0
2, 35963, Control_c, 0, 64, 127
2, 35963, Note_on_c, 0, 43, 80
2, 35963, Note_on_c, 0, 52, 80
2, 35963, Note_on_c, 0, 74, 80
2, 35963, Note_on_c, 0, 79, 80
2, 35963, Note_on_c, 0, 82, 80
2, 35963, Note_on_c, 0, 86, 80
2, 35996, Note_on_c, 0, 43, 0
2, 36033, Control_c, 0, 64, 0
2, 36048, Note_on_c, 0, 74, 0
2, 36048, Note_on_c, 0, 79, 0
2, 36048, Note_on_c, 0, 82, 0
2, 36048, Note_on_c, 0, 86, 0
2, 36122, Note_on_c, 0, 55, 80
2, 36122, Note_on_c, 0, 58, 80
2, 36122, Note_on_c, 0, 60, 80
2, 36122, Note_on_c, 0, 64, 80
2, 36122, Note_on_c, 0, 72, 80
2, 36122, Note_on_c, 0, 79, 80
2, 36122, Note_on_c, 0, 82, 80
2, 36122, Note_on_c, 0, 84, 80
2, 36150, Note_on_c, 0, 84, 0
2, 36150, Note_on_c, 0, 60, 0
2, 36150, Note_on_c, 0, 82, 0
2, 36150, Note_on_c, 0, 64, 0
2, 36150, Note_on_c, 0, 55, 0
2, 36150, Note_on_c, 0, 58, 0
2, 36150, Note_on_c, 0, 79, 0
2, 36150, Note_on_c, 0, 72, 0
2, 36225, Note_on_c, 0, 74, 80
2, 36225, Note_on_c, 0, 79, 80
2, 36225, Note_on_c, 0, 86, 80
2, 36244, Note_on_c, 0, 79, 0
2, 36256, Note_on_c, 0, 86, 0
2, 36256, Note_on_c, 0, 74, 0
2, 36275, Note_on_c, 0, 36, 80
2, 36275, Note_on_c, 0, 72, 80
2, 36275, Note_on_c, 0, 79, 80
2, 36275, Note_on_c, 0, 82, 80
2, 36275, Note_on_c, 0, 84, 80
2, 36308, Note_on_c, 0, 84, 0
2, 36308, Note_on_c, 0, 79, 0
2, 36308, Note_on_c, 0, 72, 0
2, 36308, Note_on_c, 0, 82, 0
2, 36310, Note_on_c, 0, 36, 0
2, 36383, Note_on_c, 0, 70, 80
2, 36383, Note_on_c, 0, 76, 80
2, 36383, Note_on_c, 0, 82, 80
2, 36402, Note_on_c, 0, 76, 0
2, 36413, Note_on_c, 0, 70, 0
2, 36415, Note_on_c, 0, 82, 0
2, 36434, Note_on_c, 0, 55, 80
2, 36434, Note_on_c, 0, 58, 80
2, 36434, Note_on_c, 0, 60, 80
2, 36434, Note_on_c, 0, 64, 80
2, 36434, Note_on_c, 0, 67, 80
2, 36434, Note_on_c, 0, 76, 80
2, 36434, Note_on_c, 0, 79, 80
2, 36462, Note_on_c, 0, 76, 0
2, 36464, Note_on_c, 0, 52, 0
2, 36464, Note_on_c, 0, 64, 0
2, 36464, Note_on_c, 0, 79, 0
2, 36464, Note_on_c, 0, 55, 0
2, 36464, Note_on_c, 0, 60, 0
2, 36464, Note_on_c, 0, 67, 0
2, 36537, Note_on_c, 0, 48, 80
2, 36537, Note_on_c, 0, 69, 80
2, 36537, Note_on_c, 0, 76, 80
2, 36537, Note_on_c, 0, 81, 80
2, 36568, Note_on_c, 0, 81, 0
2, 36568, Note_on_c, 0, 69, 0
2, 36568, Note_on_c, 0, 58, 0
2, 36568, Note_on_c, 0, 48, 0
2, 36568, Note_on_c, 0, 76, 0
2, 36591, Control_c, 0, 64, 127
2, 36591, Note_on_c, 0, 57, 80
2, 36591, Note_on_c, 0, 60, 80
2, 36591, Note_on_c, 0, 67, 80
2, 36591, Note_on_c, 0, 75, 80
2, 36591, Note_on_c, 0, 79, 80
2, 36661, Note_on_c, 0, 75, 0
2, 36661, Note_on_c, 0, 67, 0
2, 36663, Note_on_c, 0, 79, 0
2, 36663, Note_on_c, 0, 60, 0
2, 36663, Control_c, 0, 64, 0
2, 36700, Note_on_c, 0, 57, 0
2, 36744, Note_on_c, 0, 57, 80
2, 36744, Note_on_c, 0, 62, 80
2, 36744, Note_on_c, 0, 68, 80
2, 36744, Note_on_c, 0, 71, 80
2, 36744, Note_on_c, 0, 74, 80
2, 36746, Note_on_c, 0, 53, 80
2, 36789, Note_on_c, 0, 53, 0
2, 36789, Note_on_c, 0, 62, 0
2, 36789, Note_on_c, 0, 68, 0
2, 36789, Note_on_c, 0, 71, 0
2, 36789, Note_on_c, 0, 74, 0
2, 36847, Note_on_c, 0, 63, 80
2, 36847, Note_on_c, 0, 69, 80
2, 36847, Note_on_c, 0, 72, 80
2, 36847, Note_on_c, 0, 75, 80
2, 36901, Note_on_c, 0, 41, 80
2, 36901, Note_on_c, 0, 48, 80
2, 36932, Note_on_c, 0, 48, 0
2, 36932, Note_on_c, 0, 41, 0
2, 36979, Note_on_c, 0, 72, 0
2, 36979, Note_on_c, 0, 75, 0
2, 36981, Note_on_c, 0, 57, 0
2, 36981, Note_on_c, 0, 69, 0
2, 36981, Note_on_c, 0, 63, 0
2, 37049, Note_on_c, 0, 63, 80
2, 37049, Note_on_c, 0, 65, 80
2, 37049, Note_on_c, 0, 69, 80
2, 37049, Note_on_c, 0, 72, 80
2, 37049, Note_on_c, 0, 75, 80
2, 37049, Note_on_c, 0, 77, 80
2, 37051, Note_on_c, 0, 53, 80
2, 37051, Note_on_c, 0, 57, 80
2, 37051, Note_on_c, 0, 60, 80
2, 37079, Note_on_c, 0, 60, 0
2, 37079, Note_on_c, 0, 53, 0
2, 37079, Note_on_c, 0, 63, 0
2, 37142, Note_on_c, 0, 77, 0
2, 37142, Note_on_c, 0, 69, 0
2, 37142, Note_on_c, 0, 72, 0
2, 37142, Note_on_c, 0, 57, 0
2, 37142, Note_on_c, 0, 65, 0
2, 37142, Note_on_c, 0, 75, 0
2, 37152, Note_on_c, 0, 38, 80
2, 37182, Note_on_c, 0, 38, 0
2, 37199, Note_on_c, 0, 50, 80
2, 37199, Note_on_c, 0, 58, 80
2, 37200, Control_c, 0, 64, 127
2, 37280, Control_c, 0, 64, 0
2, 37296, Note_on_c, 0, 58, 0
2, 37301, Note_on_c, 0, 73, 80
2, 37303, Note_on_c, 0, 61, 80
2, 37303, Note_on_c, 0, 70, 80
2, 37320, Note_on_c, 0, 70, 0
2, 37347, Note_on_c, 0, 61, 0
2, 37352, Note_on_c, 0, 70, 80
2, 37352, Note_on_c, 0, 74, 80
2, 37354, Note_on_c, 0, 53, 80
2, 37354, Note_on_c, 0, 58, 80
2, 37354, Note_on_c, 0, 62, 80
2, 37359, Note_on_c, 0, 73, 0
2, 37396, Note_on_c, 0, 58, 0
2, 37396, Note_on_c, 0, 70, 0
2, 37396, Note_on_c, 0, 74, 0
2, 37396, Note_on_c, 0, 53, 0
2, 37396, Note_on_c, 0, 62, 0
2, 37455, Note_on_c, 0, 69, 80
2, 37455, Note_on_c, 0, 76, 80
2, 37455, Note_on_c, 0, 81, 80
2, 37474, Note_on_c, 0, 50, 0
2, 37507, Note_on_c, 0, 37, 80
2, 37507, Note_on_c, 0, 49, 80
2, 37537, Note_on_c, 0, 37, 0
2, 37549, Note_on_c, 0, 81, 0
2, 37549, Note_on_c, 0, 76, 0
2, 37551, Note_on_c, 0, 69, 0
2, 37611, Note_on_c, 0, 68, 80
2, 37611, Note_on_c, 0, 76, 80
2, 37611, Note_on_c, 0, 80, 80
2, 37631, Note_on_c, 0, 76, 0
2, 37642, Note_on_c, 0, 80, 0
2, 37642, Note_on_c, 0, 68, 0
2, 37663, Note_on_c, 0, 55, 80
2, 37663, Note_on_c, 0, 58, 80
2, 37663, Note_on_c, 0, 61, 80
2, 37663, Note_on_c, 0, 64, 80
2, 37663, Note_on_c, 0, 67, 80
2, 37663, Note_on_c, 0, 79, 80
2, 37665, Note_on_c, 0, 76, 80
2, 37691, Note_on_c, 0, 76, 0
2, 37691, Note_on_c, 0, 79, 0
2, 37691, Note_on_c, 0, 67, 0
2, 37693, Note_on_c, 0, 55, 0
2, 37693, Note_on_c, 0, 58, 0
2, 37693, Note_on_c, 0, 61, 0
2, 37693, Note_on_c, 0, 64, 0
2, 37768, Note_on_c, 0, 36, 80
2, 37768, Note_on_c, 0, 69, 80
2, 37768, Note_on_c, 0, 76, 80
2, 37768, Note_on_c, 0, 81, 80
2, 37787, Note_on_c, 0, 49, 0
2, 37813, Note_on_c, 0, 76, 0
2, 37813, Note_on_c, 0, 81, 0
2, 37813, Note_on_c, 0, 69, 0
2, 37820, Note_on_c, 0, 67, 80
2, 37820, Note_on_c, 0, 75, 80
2, 37820, Note_on_c, 0, 79, 80
2, 37820, Control_c, 0, 64, 127
2, 37820, Note_on_c, 0, 48, 80
2, 37822, Note_on_c, 0, 36, 0
2, 37885, Control_c, 0, 64, 0
2, 37948, Note_on_c, 0, 79, 0
2, 37948, Note_on_c, 0, 67, 0
2, 37948, Note_on_c, 0, 75, 0
2, 37969, Note_on_c, 0, 53, 80
2, 37969, Note_on_c, 0, 57, 80
2, 37969, Note_on_c, 0, 60, 80
2, 37969, Note_on_c, 0, 63, 80
2, 37997, Note_on_c, 0, 63, 0
2, 37997, Note_on_c, 0, 57, 0
2, 37997, Note_on_c, 0, 60, 0
2, 37997, Note_on_c, 0, 53, 0
2, 38082, Note_on_c, 0, 74, 80
2, 38084, Note_on_c, 0, 62, 80
2, 38100, Note_on_c, 0, 62, 0
2, 38112, Note_on_c, 0, 74, 0
2, 38118, Note_on_c, 0, 63, 80
2, 38118, Note_on_c, 0, 69, 80
2, 38118, Note_on_c, 0, 72, 80
2, 38118, Note_on_c, 0, 75, 80
2, 38133, Note_on_c, 0, 29, 80
2, 38160, Note_on_c, 0, 29, 0
2, 38160, Note_on_c, 0, 63, 0
2, 38160, Note_on_c, 0, 69, 0
2, 38160, Note_on_c, 0, 48, 0
2, 38160, Note_on_c, 0, 75, 0
2, 38160, Note_on_c, 0, 72, 0
2, 38219, Note_on_c, 0, 67, 80
2, 38219, Note_on_c, 0, 72, 80
2, 38219, Note_on_c, 0, 75, 80
2, 38219, Note_on_c, 0, 79, 80
2, 38261, Note_on_c, 0, 79, 0
2, 38261, Note_on_c, 0, 67, 0
2, 38266, Note_on_c, 0, 53, 80
2, 38266, Note_on_c, 0, 57, 80
2, 38266, Note_on_c, 0, 60, 80
2, 38266, Note_on_c, 0, 63, 80
2, 38266, Note_on_c, 0, 65, 80
2, 38266, Note_on_c, 0, 69, 80
2, 38266, Note_on_c, 0, 77, 80
2, 38308, Note_on_c, 0, 75, 0
2, 38310, Note_on_c, 0, 60, 0
2, 38310, Note_on_c, 0, 77, 0
2, 38310, Note_on_c, 0, 63, 0
2, 38310, Note_on_c, 0, 53, 0
2, 38310, Note_on_c, 0, 72, 0
2, 38310, Note_on_c, 0, 69, 0
2, 38310, Note_on_c, 0, 65, 0
2, 38364, Note_on_c, 0, 63, 80
2, 38364, Note_on_c, 0, 69, 80
2, 38364, Note_on_c, 0, 72, 80
2, 38364, Note_on_c, 0, 75, 80
2, 38371, Note_on_c, 0, 57, 0
2, 38394, Note_on_c, 0, 72, 0
2, 38394, Note_on_c, 0, 63, 0
2, 38394, Note_on_c, 0, 69, 0
2, 38394, Note_on_c, 0, 75, 0
2, 38415, Note_on_c, 0, 46, 80
2, 38415, Note_on_c, 0, 56, 80
2, 38415, Note_on_c, 0, 62, 80
2, 38415, Note_on_c, 0, 70, 80
2, 38415, Note_on_c, 0, 74, 80
2, 38417, Control_c, 0, 64, 127
2, 38445, Note_on_c, 0, 74, 0
2, 38445, Note_on_c, 0, 62, 0
2, 38445, Note_on_c, 0, 70, 0
2, 38445, Note_on_c, 0, 46, 0
2, 38487, Control_c, 0, 64, 0
2, 38522, Note_on_c, 0, 65, 80
2, 38522, Note_on_c, 0, 77, 80
2, 38527, Note_on_c, 0, 56, 0
2, 38539, Note_on_c, 0, 77, 0
2, 38565, Note_on_c, 0, 65, 0
2, 38574, Note_on_c, 0, 58, 80
2, 38574, Note_on_c, 0, 74, 80
2, 38574, Note_on_c, 0, 77, 80
2, 38574, Note_on_c, 0, 80, 80
2, 38576, Note_on_c, 0, 53, 80
2, 38576, Note_on_c, 0, 56, 80
2, 38576, Note_on_c, 0, 62, 80
2, 38576, Note_on_c, 0, 68, 80
2, 38604, Note_on_c, 0, 68, 0
2, 38604, Note_on_c, 0, 58, 0
2, 38604, Note_on_c, 0, 74, 0
2, 38604, Note_on_c, 0, 62, 0
2, 38604, Note_on_c, 0, 77, 0
2, 38604, Note_on_c, 0, 80, 0
2, 38604, Note_on_c, 0, 53, 0
2, 38679, Note_on_c, 0, 74, 80
2, 38679, Note_on_c, 0, 86, 80
2, 38681, Note_on_c, 0, 80, 80
2, 38730, Note_on_c, 0, 41, 80
2, 38774, Note_on_c, 0, 41, 0
2, 38774, Note_on_c, 0, 86, 0
2, 38774, Note_on_c, 0, 74, 0
2, 38776, Note_on_c, 0, 80, 0
2, 38834, Note_on_c, 0, 73, 80
2, 38834, Note_on_c, 0, 85, 80
2, 38865, Note_on_c, 0, 85, 0
2, 38865, Note_on_c, 0, 73, 0
2, 38888, Note_on_c, 0, 53, 80
2, 38888, Note_on_c, 0, 58, 80
2, 38888, Note_on_c, 0, 62, 80
2, 38888, Note_on_c, 0, 72, 80
2, 38888, Note_on_c, 0, 80, 80
2, 38888, Note_on_c, 0, 84, 80
2, 38916, Note_on_c, 0, 80, 0
2, 38916, Note_on_c, 0, 58, 0
2, 38916, Note_on_c, 0, 72, 0
2, 38918, Note_on_c, 0, 62, 0
2, 38918, Note_on_c, 0, 84, 0
2, 38918, Note_on_c, 0, 53, 0
2, 38988, Note_on_c, 0, 86, 80
2, 38990, Note_on_c, 0, 39, 80
2, 38990, Note_on_c, 0, 74, 80
2, 38990, Note_on_c, 0, 80, 80
2, 39011, Note_on_c, 0, 56, 0
2, 39023, Note_on_c, 0, 74, 0
2, 39023, Note_on_c, 0, 86, 0
2, 39023, Note_on_c, 0, 39, 0
2, 39023, Note_on_c, 0, 80, 0
2, 39044, Note_on_c, 0, 46, 80
2, 39044, Note_on_c, 0, 55, 80
2, 39044, Note_on_c, 0, 72, 80
2, 39044, Note_on_c, 0, 79, 80
2, 39044, Note_on_c, 0, 84, 80
2, 39074, Note_on_c, 0, 46, 0
2, 39081, Control_c, 0, 64, 127
2, 39125, Note_on_c, 0, 79, 0
2, 39125, Note_on_c, 0, 84, 0
2, 39127, Note_on_c, 0, 72, 0
2, 39179, Control_c, 0, 64, 0
2, 39200, Note_on_c, 0, 58, 80
2, 39200, Note_on_c, 0, 63, 80
2, 39200, Note_on_c, 0, 67, 80
2, 39200, Note_on_c, 0, 71, 80
2, 39200, Note_on_c, 0, 83, 80
2, 39231, Note_on_c, 0, 83, 0
2, 39231, Note_on_c, 0, 67, 0
2, 39233, Note_on_c, 0, 63, 0
2, 39233, Note_on_c, 0, 71, 0
2, 39233, Note_on_c, 0, 58, 0
2, 39285, Note_on_c, 0, 55, 0
2, 39304, Note_on_c, 0, 46, 80
2, 39304, Note_on_c, 0, 70, 80
2, 39304, Note_on_c, 0, 75, 80
2, 39304, Note_on_c, 0, 79, 80
2, 39304, Note_on_c, 0, 82, 80
2, 39344, Note_on_c, 0, 46, 0
2, 39354, Note_on_c, 0, 55, 80
2, 39354, Note_on_c, 0, 58, 80
2, 39373, Note_on_c, 0, 70, 0
2, 39383, Note_on_c, 0, 82, 0
2, 39383, Note_on_c, 0, 75, 0
2, 39384, Note_on_c, 0, 79, 0
2, 39410, Note_on_c, 0, 58, 0
2, 39459, Note_on_c, 0, 69, 80
2, 39459, Note_on_c, 0, 81, 80
2, 39502, Note_on_c, 0, 81, 0
2, 39504, Note_on_c, 0, 69, 0
2, 39508, Note_on_c, 0, 58, 80
2, 39508, Note_on_c, 0, 63, 80
2, 39508, Note_on_c, 0, 67, 80
2, 39508, Note_on_c, 0, 70, 80
2, 39508, Note_on_c, 0, 82, 80
2, 39552, Note_on_c, 0, 67, 0
2, 39552, Note_on_c, 0, 63, 0
2, 39564, Note_on_c, 0, 82, 0
2, 39578, Note_on_c, 0, 58, 0
2, 39578, Note_on_c, 0, 70, 0
2, 39611, Note_on_c, 0, 71, 80
2, 39611, Note_on_c, 0, 83, 80
2, 39627, Note_on_c, 0, 55, 0
2, 39655, Note_on_c, 0, 83, 0
2, 39655, Note_on_c, 0, 71, 0
2, 39662, Control_c, 0, 64, 127
2, 39662, Note_on_c, 0, 39, 80
2, 39662, Note_on_c, 0, 51, 80
2, 39662, Note_on_c, 0, 72, 80
2, 39662, Note_on_c, 0, 79, 80
2, 39662, Note_on_c, 0, 84, 80
2, 39693, Note_on_c, 0, 84, 0
2, 39693, Note_on_c, 0, 72, 0
2, 39693, Note_on_c, 0, 79, 0
2, 39707, Note_on_c, 0, 39, 0
2, 39730, Control_c, 0, 64, 0
2, 39766, Note_on_c, 0, 70, 80
2, 39766, Note_on_c, 0, 82, 80
2, 39796, Note_on_c, 0, 82, 0
2, 39796, Note_on_c, 0, 70, 0
2, 39817, Note_on_c, 0, 58, 80
2, 39817, Note_on_c, 0, 63, 80
2, 39817, Note_on_c, 0, 69, 80
2, 39817, Note_on_c, 0, 81, 80
2, 39848, Note_on_c, 0, 81, 0
2, 39848, Note_on_c, 0, 63, 0
2, 39848, Note_on_c, 0, 69, 0
2, 39848, Note_on_c, 0, 58, 0
2, 39921, Note_on_c, 0, 67, 80
2, 39921, Note_on_c, 0, 79, 80
2, 39937, Note_on_c, 0, 51, 0
2, 39963, Note_on_c, 0, 79, 0
2, 39963, Note_on_c, 0, 67, 0
2, 39970, Note_on_c, 0, 40, 80
2, 39970, Note_on_c, 0, 52, 80
2, 39970, Note_on_c, 0, 72, 80
2, 39970, Note_on_c, 0, 84, 80
2, 40012, Note_on_c, 0, 84, 0
2, 40012, Note_on_c, 0, 72, 0
2, 40012, Note_on_c, 0, 40, 0
2, 40073, Note_on_c, 0, 70, 80
2, 40073, Note_on_c, 0, 82, 80
2, 40104, Note_on_c, 0, 82, 0
2, 40104, Note_on_c, 0, 70, 0
2, 40125, Note_on_c, 0, 81, 80
2, 40127, Note_on_c, 0, 58, 80
2, 40127, Note_on_c, 0, 61, 80
2, 40127, Note_on_c, 0, 64, 80
2, 40127, Note_on_c, 0, 69, 80
2, 40154, Note_on_c, 0, 64, 0
2, 40154, Note_on_c, 0, 61, 0
2, 40154, Note_on_c, 0, 58, 0
2, 40169, Note_on_c, 0, 81, 0
2, 40171, Note_on_c, 0, 69, 0
2, 40227, Note_on_c, 0, 67, 80
2, 40227, Note_on_c, 0, 74, 80
2, 40227, Note_on_c, 0, 79, 80
2, 40244, Note_on_c, 0, 52, 0
2, 40246, Note_on_c, 0, 74, 0
2, 40257, Note_on_c, 0, 67, 0
2, 40257, Note_on_c, 0, 79, 0
2, 40278, Note_on_c, 0, 41, 80
2, 40278, Note_on_c, 0, 53, 80
2, 40278, Note_on_c, 0, 65, 80
2, 40278, Note_on_c, 0, 77, 80
2, 40280, Control_c, 0, 64, 127
2, 40280, Note_on_c, 0, 74, 80
2, 40308, Note_on_c, 0, 74, 0
2, 40308, Note_on_c, 0, 65, 0
2, 40308, Note_on_c, 0, 77, 0
2, 40322, Note_on_c, 0, 41, 0
2, 40365, Control_c, 0, 64, 0
2, 40376, Note_on_c, 0, 53, 0
2, 40383, Note_on_c, 0, 61, 80
2, 40383, Note_on_c, 0, 73, 80
2, 40414, Note_on_c, 0, 73, 0
2, 40414, Note_on_c, 0, 61, 0
2, 40435, Note_on_c, 0, 53, 80
2, 40435, Note_on_c, 0, 58, 80
2, 40435, Note_on_c, 0, 70, 80
2, 40435, Note_on_c, 0, 74, 80
2, 40437, Note_on_c, 0, 62, 80
2, 40460, Note_on_c, 0, 62, 0
2, 40462, Note_on_c, 0, 70, 0
2, 40462, Note_on_c, 0, 74, 0
2, 40489, Note_on_c, 0, 58, 0
2, 40536, Note_on_c, 0, 69, 80
2, 40536, Note_on_c, 0, 77, 80
2, 40536, Note_on_c, 0, 81, 80
2, 40541, Note_on_c, 0, 53, 0
2, 40588, Note_on_c, 0, 38, 80
2, 40588, Note_on_c, 0, 50, 80
2, 40632, Note_on_c, 0, 38, 0
2, 40738, Note_on_c, 0, 55, 80
2, 40738, Note_on_c, 0, 65, 80
2, 40740, Note_on_c, 0, 59, 80
2, 40740, Note_on_c, 0, 62, 80
2, 40768, Note_on_c, 0, 62, 0
2, 40768, Note_on_c, 0, 59, 0
2, 40768, Note_on_c, 0, 69, 0
2, 40768, Note_on_c, 0, 77, 0
2, 40768, Note_on_c, 0, 81, 0
2, 40768, Note_on_c, 0, 65, 0
2, 40770, Note_on_c, 0, 55, 0
2, 40840, Note_on_c, 0, 36, 80
2, 40840, Note_on_c, 0, 67, 80
2, 40840, Note_on_c, 0, 76, 80
2, 40842, Note_on_c, 0, 79, 80
2, 40858, Note_on_c, 0, 79, 0
2, 40858, Note_on_c, 0, 50, 0
2, 40858, Note_on_c, 0, 76, 0
2, 40870, Note_on_c, 0, 67, 0
2, 40881, Note_on_c, 0, 36, 0
2, 40888, Note_on_c, 0, 43, 80
2, 40888, Note_on_c, 0, 52, 80
2, 40888, Note_on_c, 0, 70, 80
2, 40888, Note_on_c, 0, 76, 80
2, 40888, Note_on_c, 0, 82, 80
2, 40890, Control_c, 0, 64, 127
2, 40890, Note_on_c, 0, 79, 80
2, 40906, Note_on_c, 0, 79, 0
2, 40906, Note_on_c, 0, 76, 0
2, 40916, Note_on_c, 0, 70, 0
2, 40916, Note_on_c, 0, 43, 0
2, 40918, Note_on_c, 0, 82, 0
2, 40937, Note_on_c, 0, 72, 80
2, 40937, Note_on_c, 0, 76, 80
2, 40937, Note_on_c, 0, 79, 80
2, 40937, Note_on_c, 0, 84, 80
2, 40956, Note_on_c, 0, 79, 0
2, 40956, Note_on_c, 0, 76, 0
2, 40966, Control_c, 0, 64, 0
2, 40968, Note_on_c, 0, 84, 0
2, 40968, Note_on_c, 0, 72, 0
2, 40987, Note_on_c, 0, 70, 80
2, 40987, Note_on_c, 0, 76, 80
2, 40987, Note_on_c, 0, 82, 80
2, 41003, Note_on_c, 0, 76, 0
2, 41015, Note_on_c, 0, 82, 0
2, 41015, Note_on_c, 0, 70, 0
2, 41016, Note_on_c, 0, 52, 0
2, 41038, Note_on_c, 0, 55, 80
2, 41038, Note_on_c, 0, 60, 80
2, 41038, Note_on_c, 0, 64, 80
2, 41038, Note_on_c, 0, 67, 80
2, 41038, Note_on_c, 0, 76, 80
2, 41038, Note_on_c, 0, 79, 80
2, 41049, Note_on_c, 0, 58, 80
2, 41065, Note_on_c, 0, 76, 0
2, 41065, Note_on_c, 0, 67, 0
2, 41065, Note_on_c, 0, 64, 0
2, 41065, Note_on_c, 0, 60, 0
2, 41067, Note_on_c, 0, 79, 0
2, 41067, Note_on_c, 0, 58, 0
2, 41136, Note_on_c, 0, 41, 80
2, 41136, Note_on_c, 0, 66, 80
2, 41136, Note_on_c, 0, 78, 80
2, 41168, Note_on_c, 0, 55, 0
2, 41180, Note_on_c, 0, 41, 0
2, 41182, Note_on_c, 0, 66, 0
2, 41182, Note_on_c, 0, 78, 0
2, 41188, Note_on_c, 0, 48, 80
2, 41188, Note_on_c, 0, 57, 80
2, 41188, Note_on_c, 0, 65, 80
2, 41188, Note_on_c, 0, 69, 80
2, 41188, Note_on_c, 0, 77, 80
2, 41232, Note_on_c, 0, 77, 0
2, 41232, Note_on_c, 0, 65, 0
2, 41232, Note_on_c, 0, 69, 0
2, 41232, Note_on_c, 0, 48, 0
2, 41293, Note_on_c, 0, 65, 80
2, 41293, Note_on_c, 0, 69, 80
2, 41293, Note_on_c, 0, 73, 80
2, 41298, Note_on_c, 0, 57, 0
2, 41314, Note_on_c, 0, 65, 0
2, 41337, Note_on_c, 0, 69, 0
2, 41337, Note_on_c, 0, 73, 0
2, 41342, Note_on_c, 0, 57, 80
2, 41342, Note_on_c, 0, 63, 80
2, 41342, Note_on_c, 0, 65, 80
2, 41342, Note_on_c, 0, 74, 80
2, 41344, Note_on_c, 0, 53, 80
2, 41344, Note_on_c, 0, 60, 80
2, 41412, Note_on_c, 0, 60, 0
2, 41412, Note_on_c, 0, 63, 0
2, 41412, Note_on_c, 0, 65, 0
2, 41412, Note_on_c, 0, 57, 0
2, 41412, Note_on_c, 0, 53, 0
2, 41412, Note_on_c, 0, 74, 0
2, 41449, Note_on_c, 0, 70, 80
2, 41501, Control_c, 0, 64, 127
2, 41501, Note_on_c, 0, 46, 80
2, 41501, Note_on_c, 0, 50, 80
2, 41501, Note_on_c, 0, 53, 80
2, 41501, Note_on_c, 0, 58, 80
2, 41548, Note_on_c, 0, 58, 0
2, 41548, Note_on_c, 0, 50, 0
2, 41548, Note_on_c, 0, 70, 0
2, 41548, Note_on_c, 0, 46, 0
2, 41548, Note_on_c, 0, 53, 0
2, 41571, Control_c, 0, 64, 0
2, 41602, Note_on_c, 0, 43, 80
2, 41602, Note_on_c, 0, 47, 80
2, 41602, Note_on_c, 0, 52, 80
2, 41607, Note_on_c, 0, 73, 80
2, 41607, Note_on_c, 0, 79, 80
2, 41607, Note_on_c, 0, 82, 80
2, 41607, Note_on_c, 0, 85, 80
2, 41623, Note_on_c, 0, 52, 0
2, 41623, Note_on_c, 0, 43, 0
2, 41625, Note_on_c, 0, 82, 0
2, 41625, Note_on_c, 0, 73, 0
2, 41625, Note_on_c, 0, 47, 0
2, 41625, Note_on_c, 0, 85, 0
2, 41625, Note_on_c, 0, 79, 0
2, 41656, Note_on_c, 0, 40, 80
2, 41656, Note_on_c, 0, 43, 80
2, 41656, Note_on_c, 0, 47, 80
2, 41656, Note_on_c, 0, 52, 80
2, 41656, Note_on_c, 0, 73, 80
2, 41656, Note_on_c, 0, 85, 80
2, 41658, Note_on_c, 0, 79, 80
2, 41658, Note_on_c, 0, 82, 80
2, 41688, Note_on_c, 0, 73, 0
2, 41688, Note_on_c, 0, 52, 0
2, 41688, Note_on_c, 0, 40, 0
2, 41688, Note_on_c, 0, 47, 0
2, 41688, Note_on_c, 0, 43, 0
2, 41690, Note_on_c, 0, 82, 0
2, 41690, Note_on_c, 0, 79, 0
2, 41690, Note_on_c, 0, 85, 0
2, 41760, Note_on_c, 0, 40, 80
2, 41760, Note_on_c, 0, 43, 80
2, 41760, Note_on_c, 0, 47, 80
2, 41760, Note_on_c, 0, 52, 80
2, 41760, Note_on_c, 0, 73, 80
2, 41760, Note_on_c, 0, 79, 80
2, 41760, Note_on_c, 0, 82, 80
2, 41760, Note_on_c, 0, 85, 80
2, 41777, Note_on_c, 0, 73, 0
2, 41777, Note_on_c, 0, 40, 0
2, 41779, Note_on_c, 0, 79, 0
2, 41779, Note_on_c, 0, 47, 0
2, 41779, Note_on_c, 0, 52, 0
2, 41779, Note_on_c, 0, 85, 0
2, 41779, Note_on_c, 0, 82, 0
2, 41779, Note_on_c, 0, 43, 0
2, 41809, Note_on_c, 0, 40, 80
2, 41809, Note_on_c, 0, 43, 80
2, 41809, Note_on_c, 0, 47, 80
2, 41809, Note_on_c, 0, 52, 80
2, 41809, Note_on_c, 0, 73, 80
2, 41809, Note_on_c, 0, 82, 80
2, 41809, Note_on_c, 0, 85, 80
2, 41811, Note_on_c, 0, 79, 80
2, 41842, Note_on_c, 0, 43, 0
2, 41844, Note_on_c, 0, 40, 0
2, 41844, Note_on_c, 0, 82, 0
2, 41844, Note_on_c, 0, 47, 0
2, 41844, Note_on_c, 0, 52, 0
2, 41844, Note_on_c, 0, 73, 0
2, 41844, Note_on_c, 0, 85, 0
2, 41844, Note_on_c, 0, 79, 0
2, 41914, Note_on_c, 0, 43, 80
2, 41916, Note_on_c, 0, 40, 80
2, 41916, Note_on_c, 0, 47, 80
2, 41916, Note_on_c, 0, 52, 80
2, 41916, Note_on_c, 0, 73, 80
2, 41916, Note_on_c, 0, 79, 80
2, 41916, Note_on_c, 0, 82, 80
2, 41916, Note_on_c, 0, 85, 80
2, 41932, Note_on_c, 0, 43, 0
2, 41934, Note_on_c, 0, 40, 0
2, 41934, Note_on_c, 0, 79, 0
2, 41934, Note_on_c, 0, 47, 0
2, 41934, Note_on_c, 0, 52, 0
2, 41934, Note_on_c, 0, 73, 0
2, 41934, Note_on_c, 0, 82, 0
2, 41934, Note_on_c, 0, 85, 0
2, 41972, Note_on_c, 0, 40, 80
2, 41972, Note_on_c, 0, 43, 80
2, 41972, Note_on_c, 0, 47, 80
2, 41972, Note_on_c, 0, 52, 80
2, 41972, Note_on_c, 0, 73, 80
2, 41972, Note_on_c, 0, 79, 80
2, 41972, Note_on_c, 0, 82, 80
2, 41972, Note_on_c, 0, 85, 80
2, 42002, Note_on_c, 0, 47, 0
2, 42002, Note_on_c, 0, 40, 0
2, 42002, Note_on_c, 0, 43, 0
2, 42004, Note_on_c, 0, 79, 0
2, 42004, Note_on_c, 0, 73, 0
2, 42004, Note_on_c, 0, 85, 0
2, 42004, Note_on_c, 0, 82, 0
2, 42004, Note_on_c, 0, 52, 0
2, 42072, Note_on_c, 0, 52, 80
2, 42077, Note_on_c, 0, 40, 80
2, 42077, Note_on_c, 0, 43, 80
2, 42077, Note_on_c, 0, 47, 80
2, 42077, Note_on_c, 0, 73, 80
2, 42077, Note_on_c, 0, 79, 80
2, 42077, Note_on_c, 0, 82, 80
2, 42077, Note_on_c, 0, 85, 80
2, 42105, Note_on_c, 0, 85, 0
2, 42105, Note_on_c, 0, 82, 0
2, 42105, Note_on_c, 0, 73, 0
2, 42105, Note_on_c, 0, 79, 0
2, 42117, Note_on_c, 0, 43, 0
2, 42117, Note_on_c, 0, 47, 0
2, 42117, Note_on_c, 0, 40, 0
2, 42117, Note_on_c, 0, 52, 0
2, 42126, Control_c, 0, 64, 127
2, 42126, Note_on_c, 0, 41, 80
2, 42126, Note_on_c, 0, 53, 80
2, 42126, Note_on_c, 0, 74, 80
2, 42126, Note_on_c, 0, 80, 80
2, 42126, Note_on_c, 0, 86, 80
2, 42168, Note_on_c, 0, 41, 0
2, 42183, Note_on_c, 0, 80, 0
2, 42183, Note_on_c, 0, 86, 0
2, 42183, Note_on_c, 0, 74, 0
2, 42227, Note_on_c, 0, 72, 80
2, 42227, Note_on_c, 0, 80, 80
2, 42227, Note_on_c, 0, 84, 80
2, 42229, Control_c, 0, 64, 0
2, 42245, Note_on_c, 0, 80, 0
2, 42257, Note_on_c, 0, 84, 0
2, 42257, Note_on_c, 0, 72, 0
2, 42276, Note_on_c, 0, 56, 80
2, 42276, Note_on_c, 0, 58, 80
2, 42276, Note_on_c, 0, 65, 80
2, 42276, Note_on_c, 0, 70, 80
2, 42276, Note_on_c, 0, 82, 80
2, 42278, Note_on_c, 0, 62, 80
2, 42278, Note_on_c, 0, 80, 80
2, 42306, Note_on_c, 0, 80, 0
2, 42306, Note_on_c, 0, 82, 0
2, 42306, Note_on_c, 0, 70, 0
2, 42317, Note_on_c, 0, 56, 0
2, 42317, Note_on_c, 0, 58, 0
2, 42317, Note_on_c, 0, 65, 0
2, 42317, Note_on_c, 0, 62, 0
2, 42376, Note_on_c, 0, 72, 80
2, 42376, Note_on_c, 0, 80, 80
2, 42376, Note_on_c, 0, 84, 80
2, 42425, Note_on_c, 0, 34, 80
2, 42467, Note_on_c, 0, 34, 0
2, 42479, Note_on_c, 0, 72, 0
2, 42480, Note_on_c, 0, 84, 0
2, 42480, Note_on_c, 0, 80, 0
2, 42525, Note_on_c, 0, 80, 80
2, 42525, Note_on_c, 0, 82, 80
2, 42525, Note_on_c, 0, 89, 80
2, 42525, Note_on_c, 0, 92, 80
2, 42574, Note_on_c, 0, 56, 80
2, 42574, Note_on_c, 0, 58, 80
2, 42576, Note_on_c, 0, 62, 80
2, 42576, Note_on_c, 0, 65, 80
2, 42616, Note_on_c, 0, 65, 0
2, 42616, Note_on_c, 0, 62, 0
2, 42616, Note_on_c, 0, 58, 0
2, 42616, Note_on_c, 0, 56, 0
2, 42627, Note_on_c, 0, 80, 0
2, 42627, Note_on_c, 0, 82, 0
2, 42627, Note_on_c, 0, 89, 0
2, 42627, Note_on_c, 0, 92, 0
2, 42672, Note_on_c, 0, 41, 80
2, 42673, Note_on_c, 0, 72, 80
2, 42673, Note_on_c, 0, 84, 80
2, 42678, Note_on_c, 0, 53, 0
2, 42716, Note_on_c, 0, 41, 0
2, 42718, Note_on_c, 0, 72, 0
2, 42718, Note_on_c, 0, 84, 0
2, 42722, Control_c, 0, 64, 127
2, 42722, Note_on_c, 0, 56, 80
2, 42722, Note_on_c, 0, 74, 80
2, 42724, Note_on_c, 0, 82, 80
2, 42724, Note_on_c, 0, 86, 80
2, 42778, Note_on_c, 0, 74, 0
2, 42780, Note_on_c, 0, 86, 0
2, 42780, Note_on_c, 0, 82, 0
2, 42827, Note_on_c, 0, 75, 80
2, 42829, Note_on_c, 0, 87, 80
2, 42857, Control_c, 0, 64, 0
2, 42873, Note_on_c, 0, 87, 0
2, 42873, Note_on_c, 0, 75, 0
2, 42878, Note_on_c, 0, 58, 80
2, 42878, Note_on_c, 0, 62, 80
2, 42878, Note_on_c, 0, 65, 80
2, 42878, Note_on_c, 0, 72, 80
2, 42878, Note_on_c, 0, 80, 80
2, 42878, Note_on_c, 0, 84, 80
2, 42922, Note_on_c, 0, 62, 0
2, 42922, Note_on_c, 0, 58, 0
2, 42924, Note_on_c, 0, 80, 0
2, 42924, Note_on_c, 0, 65, 0
2, 42924, Note_on_c, 0, 72, 0
2, 42924, Note_on_c, 0, 84, 0
2, 42984, Note_on_c, 0, 74, 80
2, 42984, Note_on_c, 0, 80, 80
2, 42984, Note_on_c, 0, 86, 80
2, 43004, Note_on_c, 0, 80, 0
2, 43015, Note_on_c, 0, 86, 0
2, 43015, Note_on_c, 0, 74, 0
2, 43038, Note_on_c, 0, 34, 80
2, 43038, Note_on_c, 0, 70, 80
2, 43040, Note_on_c, 0, 80, 80
2, 43040, Note_on_c, 0, 82, 80
2, 43068, Note_on_c, 0, 82, 0
2, 43068, Note_on_c, 0, 70, 0
2, 43068, Note_on_c, 0, 80, 0
2, 43082, Note_on_c, 0, 34, 0
2, 43143, Note_on_c, 0, 71, 80
2, 43143, Note_on_c, 0, 83, 80
2, 43145, Note_on_c, 0, 80, 80
2, 43164, Note_on_c, 0, 80, 0
2, 43185, Note_on_c, 0, 71, 0
2, 43192, Note_on_c, 0, 58, 80
2, 43192, Note_on_c, 0, 65, 80
2, 43192, Note_on_c, 0, 72, 80
2, 43192, Note_on_c, 0, 80, 80
2, 43192, Note_on_c, 0, 84, 80
2, 43197, Note_on_c, 0, 62, 80
2, 43199, Note_on_c, 0, 83, 0
2, 43231, Note_on_c, 0, 58, 0
2, 43233, Note_on_c, 0, 84, 0
2, 43233, Note_on_c, 0, 62, 0
2, 43233, Note_on_c, 0, 65, 0
2, 43233, Note_on_c, 0, 72, 0
2, 43233, Note_on_c, 0, 80, 0
2, 43290, Note_on_c, 0, 39, 80
2, 43292, Note_on_c, 0, 73, 80
2, 43292, Note_on_c, 0, 79, 80
2, 43292, Note_on_c, 0, 82, 80
2, 43292, Note_on_c, 0, 85, 80
2, 43313, Note_on_c, 0, 82, 0
2, 43313, Note_on_c, 0, 79, 0
2, 43322, Note_on_c, 0, 73, 0
2, 43322, Note_on_c, 0, 56, 0
2, 43324, Note_on_c, 0, 85, 0
2, 43326, Control_c, 0, 64, 127
2, 43333, Note_on_c, 0, 39, 0
2, 43340, Note_on_c, 0, 46, 80
2, 43340, Note_on_c, 0, 55, 80
2, 43340, Note_on_c, 0, 74, 80
2, 43340, Note_on_c, 0, 79, 80
2, 43342, Note_on_c, 0, 82, 80
2, 43342, Note_on_c, 0, 86, 80
2, 43369, Note_on_c, 0, 79, 0
2, 43369, Note_on_c, 0, 74, 0
2, 43371, Note_on_c, 0, 82, 0
2, 43371, Note_on_c, 0, 86, 0
2, 43404, Note_on_c, 0, 46, 0
2, 43440, Note_on_c, 0, 72, 80
2, 43440, Note_on_c, 0, 79, 80
2, 43441, Note_on_c, 0, 84, 80
2, 43456, Control_c, 0, 64, 0
2, 43461, Note_on_c, 0, 79, 0
2, 43482, Note_on_c, 0, 84, 0
2, 43482, Note_on_c, 0, 72, 0
2, 43488, Note_on_c, 0, 58, 80
2, 43488, Note_on_c, 0, 63, 80
2, 43488, Note_on_c, 0, 67, 80
2, 43488, Note_on_c, 0, 70, 80
2, 43488, Note_on_c, 0, 82, 80
2, 43490, Note_on_c, 0, 79, 80
2, 43531, Note_on_c, 0, 79, 0
2, 43531, Note_on_c, 0, 70, 0
2, 43531, Note_on_c, 0, 58, 0
2, 43531, Note_on_c, 0, 63, 0
2, 43531, Note_on_c, 0, 67, 0
2, 43531, Note_on_c, 0, 82, 0
2, 43587, Note_on_c, 0, 72, 80
2, 43587, Note_on_c, 0, 79, 80
2, 43589, Note_on_c, 0, 84, 80
2, 43636, Note_on_c, 0, 34, 80
2, 43677, Note_on_c, 0, 34, 0
2, 43721, Note_on_c, 0, 84, 0
2, 43740, Note_on_c, 0, 82, 80
2, 43789, Note_on_c, 0, 58, 80
2, 43789, Note_on_c, 0, 63, 80
2, 43789, Note_on_c, 0, 67, 80
2, 43820, Note_on_c, 0, 67, 0
2, 43820, Note_on_c, 0, 58, 0
2, 43820, Note_on_c, 0, 63, 0
2, 43834, Note_on_c, 0, 79, 0
2, 43834, Note_on_c, 0, 82, 0
2, 43834, Note_on_c, 0, 72, 0
2, 43872, Note_on_c, 0, 55, 0
2, 43895, Note_on_c, 0, 82, 80
2, 43942, Control_c, 0, 64, 127
2, 43944, Note_on_c, 0, 46, 80
2, 43944, Note_on_c, 0, 55, 80
2, 43945, Note_on_c, 0, 74, 80
2, 43945, Note_on_c, 0, 86, 80
2, 43950, Note_on_c, 0, 79, 80
2, 43988, Note_on_c, 0, 79, 0
2, 43988, Note_on_c, 0, 74, 0
2, 43988, Note_on_c, 0, 82, 0
2, 43988, Note_on_c, 0, 86, 0
2, 44046, Note_on_c, 0, 75, 80
2, 44046, Note_on_c, 0, 79, 80
2, 44046, Note_on_c, 0, 82, 80
2, 44051, Control_c, 0, 64, 0
2, 44051, Note_on_c, 0, 87, 80
2, 44053, Note_on_c, 0, 46, 0
2, 44067, Note_on_c, 0, 79, 0
2, 44069, Note_on_c, 0, 82, 0
2, 44079, Note_on_c, 0, 75, 0
2, 44079, Note_on_c, 0, 87, 0
2, 44100, Note_on_c, 0, 58, 80
2, 44100, Note_on_c, 0, 63, 80
2, 44102, Note_on_c, 0, 67, 80
2, 44102, Note_on_c, 0, 72, 80
2, 44102, Note_on_c, 0, 79, 80
2, 44102, Note_on_c, 0, 82, 80
2, 44102, Note_on_c, 0, 84, 80
2, 44128, Note_on_c, 0, 72, 0
2, 44128, Note_on_c, 0, 67, 0
2, 44128, Note_on_c, 0, 63, 0
2, 44128, Note_on_c, 0, 58, 0
2, 44130, Note_on_c, 0, 82, 0
2, 44130, Note_on_c, 0, 84, 0
2, 44130, Note_on_c, 0, 79, 0
2, 44203, Note_on_c, 0, 74, 80
2, 44203, Note_on_c, 0, 86, 80
2, 44205, Note_on_c, 0, 79, 80
2, 44235, Note_on_c, 0, 55, 0
2, 44237, Note_on_c, 0, 74, 0
2, 44237, Note_on_c, 0, 86, 0
2, 44237, Note_on_c, 0, 79, 0
2, 44254, Note_on_c, 0, 46, 80
2, 44256, Note_on_c, 0, 54, 80
2, 44256, Note_on_c, 0, 70, 80
2, 44256, Note_on_c, 0, 82, 80
2, 44288, Note_on_c, 0, 82, 0
2, 44288, Note_on_c, 0, 70, 0
2, 44358, Note_on_c, 0, 71, 80
2, 44358, Note_on_c, 0, 79, 80
2, 44358, Note_on_c, 0, 83, 80
2, 44360, Note_on_c, 0, 46, 0
2, 44386, Note_on_c, 0, 79, 0
2, 44402, Note_on_c, 0, 83, 0
2, 44402, Note_on_c, 0, 71, 0
2, 44409, Note_on_c, 0, 60, 80
2, 44409, Note_on_c, 0, 63, 80
2, 44409, Note_on_c, 0, 66, 80
2, 44409, Note_on_c, 0, 69, 80
2, 44409, Note_on_c, 0, 72, 80
2, 44411, Note_on_c, 0, 84, 80
2, 44451, Note_on_c, 0, 60, 0
2, 44453, Note_on_c, 0, 72, 0
2, 44453, Note_on_c, 0, 63, 0
2, 44453, Note_on_c, 0, 66, 0
2, 44453, Note_on_c, 0, 69, 0
2, 44453, Note_on_c, 0, 84, 0
2, 44514, Note_on_c, 0, 73, 80
2, 44516, Note_on_c, 0, 80, 80
2, 44516, Note_on_c, 0, 85, 80
2, 44530, Note_on_c, 0, 54, 0
2, 44532, Note_on_c, 0, 80, 0
2, 44544, Note_on_c, 0, 73, 0
2, 44544, Note_on_c, 0, 85, 0
2, 44565, Note_on_c, 0, 44, 80
2, 44565, Note_on_c, 0, 53, 80
2, 44567, Note_on_c, 0, 74, 80
2, 44567, Note_on_c, 0, 80, 80
2, 44567, Note_on_c, 0, 86, 80
2, 44573, Control_c, 0, 64, 127
2, 44609, Note_on_c, 0, 86, 0
2, 44609, Note_on_c, 0, 74, 0
2, 44609, Note_on_c, 0, 80, 0
2, 44667, Note_on_c, 0, 72, 80
2, 44669, Note_on_c, 0, 44, 0
2, 44669, Note_on_c, 0, 80, 80
2, 44669, Note_on_c, 0, 84, 80
2, 44681, Control_c, 0, 64, 0
2, 44688, Note_on_c, 0, 80, 0
2, 44697, Note_on_c, 0, 72, 0
2, 44699, Note_on_c, 0, 84, 0
2, 44715, Note_on_c, 0, 56, 80
2, 44715, Note_on_c, 0, 58, 80
2, 44717, Note_on_c, 0, 62, 80
2, 44717, Note_on_c, 0, 65, 80
2, 44717, Note_on_c, 0, 68, 80
2, 44717, Note_on_c, 0, 74, 80
2, 44719, Note_on_c, 0, 80, 80
2, 44747, Note_on_c, 0, 74, 0
2, 44747, Note_on_c, 0, 68, 0
2, 44749, Note_on_c, 0, 80, 0
2, 44759, Note_on_c, 0, 65, 0
2, 44759, Note_on_c, 0, 58, 0
2, 44759, Note_on_c, 0, 62, 0
2, 44759, Note_on_c, 0, 56, 0
2, 44822, Note_on_c, 0, 67, 80
2, 44822, Note_on_c, 0, 73, 80
2, 44822, Note_on_c, 0, 79, 80
2, 44853, Note_on_c, 0, 73, 0
2, 44864, Note_on_c, 0, 67, 0
2, 44866, Note_on_c, 0, 79, 0
2, 44868, Note_on_c, 0, 34, 80
2, 44870, Note_on_c, 0, 65, 80
2, 44872, Note_on_c, 0, 74, 80
2, 44872, Note_on_c, 0, 77, 80
2, 44909, Note_on_c, 0, 34, 0
2, 44928, Note_on_c, 0, 65, 0
2, 44930, Note_on_c, 0, 77, 0
2, 44930, Note_on_c, 0, 74, 0
2, 44975, Note_on_c, 0, 75, 80
2, 44975, Note_on_c, 0, 80, 80
2, 44975, Note_on_c, 0, 84, 80
2, 44975, Note_on_c, 0, 87, 80
2, 45022, Note_on_c, 0, 56, 80
2, 45022, Note_on_c, 0, 58, 80
2, 45022, Note_on_c, 0, 62, 80
2, 45022, Note_on_c, 0, 65, 80
2, 45066, Note_on_c, 0, 65, 0
2, 45066, Note_on_c, 0, 62, 0
2, 45066, Note_on_c, 0, 58, 0
2, 45066, Note_on_c, 0, 56, 0
2, 45068, Note_on_c, 0, 75, 0
2, 45068, Note_on_c, 0, 80, 0
2, 45068, Note_on_c, 0, 84, 0
2, 45068, Note_on_c, 0, 87, 0
2, 45126, Note_on_c, 0, 72, 80
2, 45128, Note_on_c, 0, 84, 80
2, 45143, Note_on_c, 0, 53, 0
2, 45157, Note_on_c, 0, 84, 0
2, 45157, Note_on_c, 0, 72, 0
2, 45173, Control_c, 0, 64, 127
2, 45178, Note_on_c, 0, 41, 80
2, 45178, Note_on_c, 0, 50, 80
2, 45178, Note_on_c, 0, 74, 80
2, 45180, Note_on_c, 0, 80, 80
2, 45180, Note_on_c, 0, 86, 80
2, 45208, Note_on_c, 0, 86, 0
2, 45208, Note_on_c, 0, 74, 0
2, 45210, Note_on_c, 0, 80, 0
2, 45245, Note_on_c, 0, 41, 0
2, 45278, Note_on_c, 0, 70, 80
2, 45278, Note_on_c, 0, 80, 80
2, 45278, Note_on_c, 0, 82, 80
2, 45292, Control_c, 0, 64, 0
2, 45297, Note_on_c, 0, 80, 0
2, 45307, Note_on_c, 0, 82, 0
2, 45307, Note_on_c, 0, 70, 0
2, 45330, Note_on_c, 0, 56, 80
2, 45330, Note_on_c, 0, 58, 80
2, 45330, Note_on_c, 0, 62, 80
2, 45330, Note_on_c, 0, 65, 80
2, 45330, Note_on_c, 0, 71, 80
2, 45332, Note_on_c, 0, 80, 80
2, 45332, Note_on_c, 0, 83, 80
2, 45355, Note_on_c, 0, 56, 0
2, 45355, Note_on_c, 0, 50, 0
2, 45357, Note_on_c, 0, 71, 0
2, 45357, Note_on_c, 0, 58, 0
2, 45357, Note_on_c, 0, 65, 0
2, 45357, Note_on_c, 0, 83, 0
2, 45357, Note_on_c, 0, 80, 0
2, 45357, Note_on_c, 0, 62, 0
2, 45432, Note_on_c, 0, 72, 80
2, 45432, Note_on_c, 0, 80, 80
2, 45432, Note_on_c, 0, 84, 80
2, 45479, Note_on_c, 0, 46, 80
2, 45479, Note_on_c, 0, 58, 80
2, 45509, Note_on_c, 0, 46, 0
2, 45509, Note_on_c, 0, 80, 0
2, 45509, Note_on_c, 0, 72, 0
2, 45524, Note_on_c, 0, 84, 0
2, 45582, Note_on_c, 0, 70, 80
2, 45582, Note_on_c, 0, 82, 80
2, 45587, Note_on_c, 0, 58, 0
2, 45613, Note_on_c, 0, 82, 0
2, 45613, Note_on_c, 0, 70, 0
2, 45634, Note_on_c, 0, 56, 80
2, 45634, Note_on_c, 0, 58, 80
2, 45634, Note_on_c, 0, 65, 80
2, 45636, Note_on_c, 0, 62, 80
2, 45636, Note_on_c, 0, 72, 80
2, 45636, Note_on_c, 0, 80, 80
2, 45636, Note_on_c, 0, 84, 80
2, 45676, Note_on_c, 0, 62, 0
2, 45676, Note_on_c, 0, 65, 0
2, 45676, Note_on_c, 0, 58, 0
2, 45688, Note_on_c, 0, 72, 0
2, 45688, Note_on_c, 0, 84, 0
2, 45690, Note_on_c, 0, 80, 0
2, 45734, Note_on_c, 0, 39, 80
2, 45734, Note_on_c, 0, 70, 80
2, 45736, Note_on_c, 0, 82, 80
2, 45755, Note_on_c, 0, 82, 0
2, 45765, Note_on_c, 0, 70, 0
2, 45765, Note_on_c, 0, 56, 0
2, 45786, Control_c, 0, 64, 127
2, 45788, Note_on_c, 0, 46, 80
2, 45788, Note_on_c, 0, 55, 80
2, 45790, Note_on_c, 0, 75, 80
2, 45790, Note_on_c, 0, 79, 80
2, 45790, Note_on_c, 0, 82, 80
2, 45790, Note_on_c, 0, 87, 80
2, 45830, Note_on_c, 0, 55, 0
2, 45830, Note_on_c, 0, 39, 0
2, 45830, Note_on_c, 0, 46, 0
2, 45832, Note_on_c, 0, 79, 0
2, 45832, Note_on_c, 0, 75, 0
2, 45832, Note_on_c, 0, 82, 0
2, 45832, Note_on_c, 0, 87, 0
2, 45881, Control_c, 0, 64, 0
2, 45890, Note_on_c, 0, 43, 80
2, 45890, Note_on_c, 0, 55, 80
2, 46012, Note_on_c, 0, 43, 0
2, 46014, Note_on_c, 0, 55, 0
2, 46050, Note_on_c, 0, 42, 80
2, 46052, Note_on_c, 0, 54, 80
2, 46096, Note_on_c, 0, 54, 0
2, 46096, Note_on_c, 0, 42, 0
2, 46105, Note_on_c, 0, 43, 80
2, 46105, Note_on_c, 0, 55, 80
2, 46162, Note_on_c, 0, 55, 0
2, 46162, Note_on_c, 0, 43, 0
2, 46206, Note_on_c, 0, 45, 80
2, 46208, Note_on_c, 0, 57, 80
2, 46311, Note_on_c, 0, 45, 0
2, 46313, Note_on_c, 0, 57, 0
2, 46357, Note_on_c, 0, 45, 80
2, 46359, Note_on_c, 0, 57, 80
2, 46399, Note_on_c, 0, 57, 0
2, 46399, Note_on_c, 0, 45, 0
2, 46404, Note_on_c, 0, 46, 80
2, 46406, Note_on_c, 0, 58, 80
2, 46441, Control_c, 0, 64, 127
2, 46461, Note_on_c, 0, 58, 0
2, 46461, Note_on_c, 0, 46, 0
2, 46508, Note_on_c, 0, 45, 80
2, 46508, Note_on_c, 0, 57, 80
2, 46550, Note_on_c, 0, 45, 0
2, 46552, Note_on_c, 0, 57, 0
2, 46557, Note_on_c, 0, 46, 80
2, 46557, Note_on_c, 0, 58, 80
2, 46599, Control_c, 0, 64, 0
2, 46622, Note_on_c, 0, 58, 0
2, 46622, Note_on_c, 0, 46, 0
2, 46655, Note_on_c, 0, 48, 80
2, 46655, Note_on_c, 0, 60, 80
2, 46760, Note_on_c, 0, 48, 0
2, 46762, Note_on_c, 0, 60, 0
2, 46806, Note_on_c, 0, 46, 80
2, 46808, Note_on_c, 0, 58, 80
2, 46852, Note_on_c, 0, 46, 0
2, 46854, Note_on_c, 0, 58, 0
2, 46859, Note_on_c, 0, 43, 80
2, 46859, Note_on_c, 0, 55, 80
2, 46916, Note_on_c, 0, 55, 0
2, 46916, Note_on_c, 0, 43, 0
2, 46963, Note_on_c, 0, 42, 80
2, 46965, Note_on_c, 0, 54, 80
2, 47007, Note_on_c, 0, 42, 0
2, 47012, Note_on_c, 0, 54, 0
2, 47016, Control_c, 0, 64, 127
2, 47018, Note_on_c, 0, 41, 80
2, 47018, Note_on_c, 0, 53, 80
2, 47020, Note_on_c, 0, 74, 80
2, 47020, Note_on_c, 0, 80, 80
2, 47020, Note_on_c, 0, 86, 80
2, 47077, Note_on_c, 0, 86, 0
2, 47077, Note_on_c, 0, 74, 0
2, 47077, Note_on_c, 0, 80, 0
2, 47087, Note_on_c, 0, 41, 0
2, 47122, Note_on_c, 0, 72, 80
2, 47124, Note_on_c, 0, 80, 80
2, 47124, Note_on_c, 0, 84, 80
2, 47143, Note_on_c, 0, 80, 0
2, 47169, Note_on_c, 0, 84, 0
2, 47169, Note_on_c, 0, 72, 0
2, 47174, Note_on_c, 0, 56, 80
2, 47174, Note_on_c, 0, 58, 80
2, 47179, Note_on_c, 0, 62, 80
2, 47179, Note_on_c, 0, 65, 80
2, 47179, Note_on_c, 0, 70, 80
2, 47179, Note_on_c, 0, 74, 80
2, 47181, Note_on_c, 0, 80, 80
2, 47181, Note_on_c, 0, 82, 80
2, 47190, Control_c, 0, 64, 0
2, 47218, Note_on_c, 0, 80, 0
2, 47218, Note_on_c, 0, 74, 0
2, 47218, Note_on_c, 0, 62, 0
2, 47218, Note_on_c, 0, 65, 0
2, 47218, Note_on_c, 0, 56, 0
2, 47218, Note_on_c, 0, 58, 0
2, 47218, Note_on_c, 0, 70, 0
2, 47220, Note_on_c, 0, 82, 0
2, 47279, Note_on_c, 0, 71, 80
2, 47279, Note_on_c, 0, 80, 80
2, 47280, Note_on_c, 0, 83, 80
2, 47302, Note_on_c, 0, 80, 0
2, 47302, Note_on_c, 0, 34, 80
2, 47323, Note_on_c, 0, 71, 0
2, 47325, Note_on_c, 0, 83, 0
2, 47329, Note_on_c, 0, 72, 80
2, 47331, Note_on_c, 0, 80, 80
2, 47331, Note_on_c, 0, 84, 80
2, 47343, Note_on_c, 0, 34, 0
2, 47484, Note_on_c, 0, 56, 80
2, 47484, Note_on_c, 0, 58, 80
2, 47484, Note_on_c, 0, 62, 80
2, 47484, Note_on_c, 0, 65, 80
2, 47528, Note_on_c, 0, 65, 0
2, 47528, Note_on_c, 0, 62, 0
2, 47528, Note_on_c, 0, 56, 0
2, 47528, Note_on_c, 0, 72, 0
2, 47528, Note_on_c, 0, 53, 0
2, 47528, Note_on_c, 0, 58, 0
2, 47530, Note_on_c, 0, 80, 0
2, 47530, Note_on_c, 0, 84, 0
2, 47582, Note_on_c, 0, 41, 80
2, 47587, Note_on_c, 0, 82, 80
2, 47634, Note_on_c, 0, 82, 0
2, 47634, Control_c, 0, 64, 127
2, 47639, Note_on_c, 0, 56, 80
2, 47640, Note_on_c, 0, 81, 80
2, 47678, Note_on_c, 0, 41, 0
2, 47709, Note_on_c, 0, 81, 0
2, 47730, Note_on_c, 0, 82, 80
2, 47770, Note_on_c, 0, 82, 0
2, 47775, Control_c, 0, 64, 0
2, 47786, Note_on_c, 0, 58, 80
2, 47786, Note_on_c, 0, 62, 80
2, 47786, Note_on_c, 0, 65, 80
2, 47786, Note_on_c, 0, 68, 80
2, 47788, Note_on_c, 0, 80, 80
2, 47816, Note_on_c, 0, 68, 0
2, 47816, Note_on_c, 0, 65, 0
2, 47816, Note_on_c, 0, 62, 0
2, 47816, Note_on_c, 0, 58, 0
2, 47818, Note_on_c, 0, 80, 0
2, 47825, Note_on_c, 0, 82, 80
2, 47856, Note_on_c, 0, 82, 0
2, 47865, Note_on_c, 0, 80, 80
2, 47896, Note_on_c, 0, 80, 0
2, 47903, Note_on_c, 0, 77, 80
2, 47933, Note_on_c, 0, 77, 0
2, 47940, Note_on_c, 0, 34, 80
2, 47945, Note_on_c, 0, 74, 80
2, 47976, Note_on_c, 0, 74, 0
2, 47982, Note_on_c, 0, 34, 0
2, 47982, Note_on_c, 0, 77, 80
2, 48015, Note_on_c, 0, 77, 0
2, 48020, Note_on_c, 0, 74, 80
2, 48050, Note_on_c, 0, 74, 0
2, 48057, Note_on_c, 0, 72, 80
2, 48090, Note_on_c, 0, 72, 0
2, 48096, Note_on_c, 0, 58, 80
2, 48096, Note_on_c, 0, 62, 80
2, 48096, Note_on_c, 0, 65, 80
2, 48096, Note_on_c, 0, 70, 80
2, 48096, Note_on_c, 0, 74, 80
2, 48096, Note_on_c, 0, 77, 80
2, 48096, Note_on_c, 0, 80, 80
2, 48098, Note_on_c, 0, 82, 80
2, 48139, Note_on_c, 0, 62, 0
2, 48139, Note_on_c, 0, 58, 0
2, 48141, Note_on_c, 0, 65, 0
2, 48152, Note_on_c, 0, 77, 0
2, 48152, Note_on_c, 0, 70, 0
2, 48152, Note_on_c, 0, 74, 0
2, 48154, Note_on_c, 0, 82, 0
2, 48154, Note_on_c, 0, 80, 0
2, 48192, Note_on_c, 0, 56, 0
2, 48196, Note_on_c, 0, 39, 80
2, 48198, Note_on_c, 0, 74, 80
2, 48198, Note_on_c, 0, 77, 80
2, 48200, Note_on_c, 0, 68, 80
2, 48200, Note_on_c, 0, 80, 80
2, 48226, Note_on_c, 0, 39, 0
2, 48245, Control_c, 0, 64, 127
2, 48247, Note_on_c, 0, 46, 80
2, 48249, Note_on_c, 0, 55, 80
2, 48254, Note_on_c, 0, 68, 0
2, 48254, Note_on_c, 0, 80, 0
2, 48254, Note_on_c, 0, 74, 0
2, 48254, Note_on_c, 0, 77, 0
2, 48317, Note_on_c, 0, 46, 0
2, 48353, Note_on_c, 0, 74, 80
2, 48353, Note_on_c, 0, 79, 80
2, 48355, Note_on_c, 0, 82, 80
2, 48355, Note_on_c, 0, 86, 80
2, 48366, Control_c, 0, 64, 0
2, 48373, Note_on_c, 0, 82, 0
2, 48373, Note_on_c, 0, 79, 0
2, 48396, Note_on_c, 0, 74, 0
2, 48398, Note_on_c, 0, 86, 0
2, 48403, Note_on_c, 0, 58, 80
2, 48403, Note_on_c, 0, 63, 80
2, 48403, Note_on_c, 0, 67, 80
2, 48403, Note_on_c, 0, 72, 80
2, 48403, Note_on_c, 0, 79, 80
2, 48403, Note_on_c, 0, 82, 80
2, 48403, Note_on_c, 0, 84, 80
2, 48443, Note_on_c, 0, 58, 0
2, 48445, Note_on_c, 0, 72, 0
2, 48445, Note_on_c, 0, 79, 0
2, 48445, Note_on_c, 0, 63, 0
2, 48445, Note_on_c, 0, 67, 0
2, 48445, Note_on_c, 0, 82, 0
2, 48447, Note_on_c, 0, 84, 0
2, 48494, Note_on_c, 0, 55, 0
2, 48501, Note_on_c, 0, 70, 80
2, 48503, Note_on_c, 0, 79, 80
2, 48503, Note_on_c, 0, 82, 80
2, 48519, Note_on_c, 0, 79, 0
2, 48545, Note_on_c, 0, 70, 0
2, 48547, Note_on_c, 0, 82, 0
2, 48552, Note_on_c, 0, 58, 80
2, 48552, Note_on_c, 0, 72, 80
2, 48553, Note_on_c, 0, 79, 80
2, 48553, Note_on_c, 0, 84, 80
2, 48671, Note_on_c, 0, 58, 0
2, 48703, Note_on_c, 0, 58, 80
2, 48703, Note_on_c, 0, 63, 80
2, 48703, Note_on_c, 0, 67, 80
2, 48731, Note_on_c, 0, 63, 0
2, 48733, Note_on_c, 0, 67, 0
2, 48744, Note_on_c, 0, 72, 0
2, 48746, Note_on_c, 0, 84, 0
2, 48746, Note_on_c, 0, 79, 0
2, 48803, Note_on_c, 0, 46, 80
2, 48805, Note_on_c, 0, 79, 80
2, 48805, Note_on_c, 0, 82, 80
2, 48826, Note_on_c, 0, 82, 0
2, 48826, Note_on_c, 0, 79, 0
2, 48836, Note_on_c, 0, 58, 0
2, 48852, Control_c, 0, 64, 127
2, 48854, Note_on_c, 0, 55, 80
2, 48856, Note_on_c, 0, 74, 80
2, 48856, Note_on_c, 0, 79, 80
2, 48856, Note_on_c, 0, 82, 80
2, 48858, Note_on_c, 0, 86, 80
2, 48884, Note_on_c, 0, 46, 0
2, 48886, Note_on_c, 0, 74, 0
2, 48888, Note_on_c, 0, 79, 0
2, 48888, Note_on_c, 0, 82, 0
2, 48888, Note_on_c, 0, 86, 0
2, 48958, Control_c, 0, 64, 0
2, 48958, Note_on_c, 0, 75, 80
2, 48958, Note_on_c, 0, 79, 80
2, 48958, Note_on_c, 0, 82, 80
2, 48958, Note_on_c, 0, 87, 80
2, 48977, Note_on_c, 0, 82, 0
2, 48977, Note_on_c, 0, 79, 0
2, 48986, Note_on_c, 0, 75, 0
2, 48988, Note_on_c, 0, 87, 0
2, 49009, Note_on_c, 0, 60, 80
2, 49009, Note_on_c, 0, 63, 80
2, 49011, Note_on_c, 0, 79, 80
2, 49011, Note_on_c, 0, 82, 80
2, 49011, Note_on_c, 0, 84, 80
2, 49052, Note_on_c, 0, 63, 0
2, 49052, Note_on_c, 0, 60, 0
2, 49056, Note_on_c, 0, 79, 0
2, 49056, Note_on_c, 0, 82, 0
2, 49056, Note_on_c, 0, 84, 0
2, 49115, Note_on_c, 0, 74, 80
2, 49117, Note_on_c, 0, 79, 80
2, 49117, Note_on_c, 0, 82, 80
2, 49117, Note_on_c, 0, 86, 80
2, 49133, Note_on_c, 0, 82, 0
2, 49133, Note_on_c, 0, 79, 0
2, 49145, Note_on_c, 0, 86, 0
2, 49145, Note_on_c, 0, 74, 0
2, 49159, Note_on_c, 0, 39, 80
2, 49166, Note_on_c, 0, 70, 80
2, 49166, Note_on_c, 0, 79, 80
2, 49166, Note_on_c, 0, 82, 80
2, 49203, Note_on_c, 0, 39, 0
2, 49205, Note_on_c, 0, 82, 0
2, 49205, Note_on_c, 0, 70, 0
2, 49207, Note_on_c, 0, 79, 0
2, 49266, Note_on_c, 0, 75, 80
2, 49266, Note_on_c, 0, 87, 80
2, 49308, Note_on_c, 0, 87, 0
2, 49308, Note_on_c, 0, 75, 0
2, 49313, Note_on_c, 0, 58, 80
2, 49315, Note_on_c, 0, 62, 80
2, 49315, Note_on_c, 0, 74, 80
2, 49317, Note_on_c, 0, 79, 80
2, 49317, Note_on_c, 0, 86, 80
2, 49357, Note_on_c, 0, 86, 0
2, 49357, Note_on_c, 0, 62, 0
2, 49357, Note_on_c, 0, 74, 0
2, 49359, Note_on_c, 0, 79, 0
2, 49368, Note_on_c, 0, 58, 0
2, 49416, Note_on_c, 0, 73, 80
2, 49416, Note_on_c, 0, 79, 80
2, 49417, Note_on_c, 0, 85, 80
2, 49434, Note_on_c, 0, 55, 0
2, 49457, Note_on_c, 0, 73, 0
2, 49459, Note_on_c, 0, 79, 0
2, 49459, Note_on_c, 0, 85, 0
2, 49459, Control_c, 0, 64, 127
2, 49461, Note_on_c, 0, 44, 80
2, 49463, Note_on_c, 0, 56, 80
2, 49463, Note_on_c, 0, 72, 80
2, 49463, Note_on_c, 0, 80, 80
2, 49463, Note_on_c, 0, 84, 80
2, 49503, Note_on_c, 0, 44, 0
2, 49543, Note_on_c, 0, 72, 0
2, 49560, Note_on_c, 0, 84, 0
2, 49560, Note_on_c, 0, 80, 0
2, 49564, Control_c, 0, 64, 0
2, 49566, Note_on_c, 0, 56, 0
2, 49610, Note_on_c, 0, 51, 80
2, 49610, Note_on_c, 0, 56, 80
2, 49612, Note_on_c, 0, 60, 80
2, 49612, Note_on_c, 0, 71, 80
2, 49614, Note_on_c, 0, 80, 80
2, 49614, Note_on_c, 0, 83, 80
2, 49655, Note_on_c, 0, 60, 0
2, 49655, Note_on_c, 0, 51, 0
2, 49656, Note_on_c, 0, 80, 0
2, 49668, Note_on_c, 0, 71, 0
2, 49668, Note_on_c, 0, 83, 0
2, 49715, Note_on_c, 0, 72, 80
2, 49717, Note_on_c, 0, 84, 80
2, 49731, Note_on_c, 0, 56, 0
2, 49759, Note_on_c, 0, 72, 0
2, 49761, Note_on_c, 0, 84, 0
2, 49763, Note_on_c, 0, 45, 80
2, 49765, Note_on_c, 0, 57, 80
2, 49765, Note_on_c, 0, 74, 80
2, 49765, Note_on_c, 0, 78, 80
2, 49765, Note_on_c, 0, 81, 80
2, 49765, Note_on_c, 0, 86, 80
2, 49807, Note_on_c, 0, 45, 0
2, 49861, Note_on_c, 0, 74, 0
2, 49861, Note_on_c, 0, 78, 0
2, 49861, Note_on_c, 0, 81, 0
2, 49861, Note_on_c, 0, 86, 0
2, 49872, Note_on_c, 0, 57, 0
2, 49920, Note_on_c, 0, 51, 80
2, 49920, Note_on_c, 0, 54, 80
2, 49920, Note_on_c, 0, 57, 80
2, 49920, Note_on_c, 0, 60, 80
2, 49920, Note_on_c, 0, 72, 80
2, 49920, Note_on_c, 0, 81, 80
2, 49921, Note_on_c, 0, 84, 80
2, 49936, Note_on_c, 0, 78, 80
2, 49950, Note_on_c, 0, 60, 0
2, 49950, Note_on_c, 0, 54, 0
2, 49950, Note_on_c, 0, 51, 0
2, 49967, Note_on_c, 0, 78, 0
2, 49967, Note_on_c, 0, 72, 0
2, 49967, Note_on_c, 0, 84, 0
2, 49968, Note_on_c, 0, 81, 0
2, 50027, Note_on_c, 0, 74, 80
2, 50027, Note_on_c, 0, 86, 80
2, 50041, Note_on_c, 0, 57, 0
2, 50061, Note_on_c, 0, 86, 0
2, 50061, Note_on_c, 0, 74, 0
2, 50075, Control_c, 0, 64, 127
2, 50077, Note_on_c, 0, 46, 80
2, 50077, Note_on_c, 0, 58, 80
2, 50079, Note_on_c, 0, 75, 80
2, 50079, Note_on_c, 0, 79, 80
2, 50079, Note_on_c, 0, 82, 80
2, 50079, Note_on_c, 0, 87, 80
2, 50100, Note_on_c, 0, 82, 0
2, 50110, Note_on_c, 0, 75, 0
2, 50112, Note_on_c, 0, 79, 0
2, 50112, Note_on_c, 0, 87, 0
2, 50131, Note_on_c, 0, 77, 80
2, 50131, Note_on_c, 0, 82, 80
2, 50131, Note_on_c, 0, 89, 80
2, 50152, Note_on_c, 0, 82, 0
2, 50159, Note_on_c, 0, 46, 0
2, 50163, Note_on_c, 0, 89, 0
2, 50163, Note_on_c, 0, 77, 0
2, 50175, Note_on_c, 0, 58, 0
2, 50184, Note_on_c, 0, 75, 80
2, 50184, Note_on_c, 0, 79, 80
2, 50184, Note_on_c, 0, 82, 80
2, 50184, Note_on_c, 0, 87, 80
2, 50199, Control_c, 0, 64, 0
2, 50215, Note_on_c, 0, 75, 0
2, 50217, Note_on_c, 0, 79, 0
2, 50217, Note_on_c, 0, 82, 0
2, 50217, Note_on_c, 0, 87, 0
2, 50233, Note_on_c, 0, 43, 80
2, 50233, Note_on_c, 0, 50, 80
2, 50233, Note_on_c, 0, 59, 80
2, 50233, Note_on_c, 0, 74, 80
2, 50233, Note_on_c, 0, 77, 80
2, 50235, Note_on_c, 0, 83, 80
2, 50235, Note_on_c, 0, 86, 80
2, 50292, Note_on_c, 0, 86, 0
2, 50292, Note_on_c, 0, 77, 0
2, 50292, Note_on_c, 0, 74, 0
2, 50292, Note_on_c, 0, 83, 0
2, 50328, Note_on_c, 0, 43, 0
2, 50328, Note_on_c, 0, 50, 0
2, 50329, Note_on_c, 0, 59, 0
2, 50336, Note_on_c, 0, 72, 80
2, 50336, Note_on_c, 0, 76, 80
2, 50338, Note_on_c, 0, 79, 80
2, 50338, Note_on_c, 0, 82, 80
2, 50338, Note_on_c, 0, 84, 80
2, 50387, Note_on_c, 0, 36, 80
2, 50387, Note_on_c, 0, 43, 80
2, 50387, Note_on_c, 0, 52, 80
2, 50540, Note_on_c, 0, 55, 80
2, 50540, Note_on_c, 0, 58, 80
2, 50540, Note_on_c, 0, 60, 80
2, 50540, Note_on_c, 0, 64, 80
2, 50580, Note_on_c, 0, 43, 0
2, 50580, Note_on_c, 0, 36, 0
2, 50582, Note_on_c, 0, 55, 0
2, 50582, Note_on_c, 0, 60, 0
2, 50582, Note_on_c, 0, 52, 0
2, 50582, Note_on_c, 0, 72, 0
2, 50582, Note_on_c, 0, 76, 0
2, 50582, Note_on_c, 0, 58, 0
2, 50582, Note_on_c, 0, 64, 0
2, 50584, Note_on_c, 0, 84, 0
2, 50584, Note_on_c, 0, 82, 0
2, 50584, Note_on_c, 0, 79, 0
2, 50640, Note_on_c, 0, 41, 80
2, 50642, Note_on_c, 0, 74, 80
2, 50642, Note_on_c, 0, 86, 80
2, 50689, Note_on_c, 0, 86, 0
2, 50689, Note_on_c, 0, 74, 0
2, 50689, Control_c, 0, 64, 127
2, 50694, Note_on_c, 0, 48, 80
2, 50694, Note_on_c, 0, 57, 80
2, 50696, Note_on_c, 0, 75, 80
2, 50696, Note_on_c, 0, 81, 80
2, 50696, Note_on_c, 0, 84, 80
2, 50696, Note_on_c, 0, 87, 80
2, 50715, Note_on_c, 0, 84, 0
2, 50715, Note_on_c, 0, 81, 0
2, 50738, Note_on_c, 0, 48, 0
2, 50738, Note_on_c, 0, 41, 0
2, 50740, Note_on_c, 0, 75, 0
2, 50740, Note_on_c, 0, 87, 0
2, 50747, Note_on_c, 0, 77, 80
2, 50747, Note_on_c, 0, 81, 80
2, 50747, Note_on_c, 0, 84, 80
2, 50747, Note_on_c, 0, 89, 80
2, 50766, Note_on_c, 0, 81, 0
2, 50768, Note_on_c, 0, 84, 0
2, 50791, Note_on_c, 0, 89, 0
2, 50791, Note_on_c, 0, 77, 0
2, 50798, Note_on_c, 0, 75, 80
2, 50798, Note_on_c, 0, 81, 80
2, 50798, Note_on_c, 0, 84, 80
2, 50798, Note_on_c, 0, 87, 80
2, 50800, Note_on_c, 0, 57, 0
2, 50816, Note_on_c, 0, 84, 0
2, 50816, Note_on_c, 0, 81, 0
2, 50821, Control_c, 0, 64, 0
2, 50842, Note_on_c, 0, 75, 0
2, 50842, Note_on_c, 0, 87, 0
2, 50847, Note_on_c, 0, 53, 80
2, 50847, Note_on_c, 0, 57, 80
2, 50847, Note_on_c, 0, 60, 80
2, 50847, Note_on_c, 0, 63, 80
2, 50849, Note_on_c, 0, 72, 80
2, 50849, Note_on_c, 0, 81, 80
2, 50849, Note_on_c, 0, 84, 80
2, 50880, Note_on_c, 0, 60, 0
2, 50880, Note_on_c, 0, 53, 0
2, 50881, Note_on_c, 0, 63, 0
2, 50881, Note_on_c, 0, 81, 0
2, 50933, Note_on_c, 0, 72, 0
2, 50935, Note_on_c, 0, 84, 0
2, 50952, Note_on_c, 0, 46, 80
2, 50953, Note_on_c, 0, 71, 80
2, 50953, Note_on_c, 0, 77, 80
2, 50953, Note_on_c, 0, 83, 80
2, 50970, Note_on_c, 0, 57, 0
2, 50975, Note_on_c, 0, 77, 0
2, 50998, Note_on_c, 0, 83, 0
2, 50998, Note_on_c, 0, 71, 0
2, 51002, Note_on_c, 0, 58, 80
2, 51004, Note_on_c, 0, 70, 80
2, 51004, Note_on_c, 0, 74, 80
2, 51004, Note_on_c, 0, 77, 80
2, 51004, Note_on_c, 0, 80, 80
2, 51004, Note_on_c, 0, 82, 80
2, 51032, Note_on_c, 0, 46, 0
2, 51047, Note_on_c, 0, 77, 0
2, 51047, Note_on_c, 0, 74, 0
2, 51047, Note_on_c, 0, 70, 0
2, 51048, Note_on_c, 0, 80, 0
2, 51048, Note_on_c, 0, 82, 0
2, 51107, Note_on_c, 0, 70, 80
2, 51107, Note_on_c, 0, 74, 80
2, 51109, Note_on_c, 0, 78, 80
2, 51128, Note_on_c, 0, 74, 0
2, 51128, Note_on_c, 0, 70, 0
2, 51138, Note_on_c, 0, 58, 0
2, 51140, Note_on_c, 0, 78, 0
2, 51161, Note_on_c, 0, 53, 80
2, 51161, Note_on_c, 0, 56, 80
2, 51161, Note_on_c, 0, 58, 80
2, 51161, Note_on_c, 0, 62, 80
2, 51161, Note_on_c, 0, 70, 80
2, 51161, Note_on_c, 0, 74, 80
2, 51163, Note_on_c, 0, 79, 80
2, 51231, Note_on_c, 0, 79, 0
2, 51231, Note_on_c, 0, 70, 0
2, 51231, Note_on_c, 0, 74, 0
2, 51240, Note_on_c, 0, 53, 0
2, 51240, Note_on_c, 0, 56, 0
2, 51242, Note_on_c, 0, 58, 0
2, 51242, Note_on_c, 0, 62, 0
2, 51262, Note_on_c, 0, 75, 80
2, 51299, Control_c, 0, 64, 127
2, 51315, Note_on_c, 0, 51, 80
2, 51315, Note_on_c, 0, 55, 80
2, 51315, Note_on_c, 0, 58, 80
2, 51315, Note_on_c, 0, 63, 80
2, 51315, Note_on_c, 0, 70, 80
2, 51315, Note_on_c, 0, 79, 80
2, 51356, Note_on_c, 0, 63, 0
2, 51356, Note_on_c, 0, 58, 0
2, 51356, Note_on_c, 0, 51, 0
2, 51358, Note_on_c, 0, 70, 0
2, 51358, Note_on_c, 0, 75, 0
2, 51358, Note_on_c, 0, 79, 0
2, 51358, Note_on_c, 0, 55, 0
2, 51418, Note_on_c, 0, 39, 80
2, 51420, Note_on_c, 0, 75, 80
2, 51420, Note_on_c, 0, 87, 80
2, 51422, Control_c, 0, 64, 0
2, 51459, Note_on_c, 0, 39, 0
2, 51469, Note_on_c, 0, 43, 80
2, 51469, Note_on_c, 0, 51, 80
2, 51513, Note_on_c, 0, 75, 0
2, 51515, Note_on_c, 0, 87, 0
2, 51552, Note_on_c, 0, 43, 0
2, 51552, Note_on_c, 0, 51, 0
2, 51572, Note_on_c, 0, 41, 80
2, 51574, Note_on_c, 0, 75, 80
2, 51574, Note_on_c, 0, 87, 80
2, 51604, Note_on_c, 0, 87, 0
2, 51604, Note_on_c, 0, 75, 0
2, 51614, Note_on_c, 0, 41, 0
2, 51624, Note_on_c, 0, 53, 80
2, 51624, Note_on_c, 0, 74, 80
2, 51625, Note_on_c, 0, 86, 80
2, 51691, Note_on_c, 0, 53, 0
2, 51723, Note_on_c, 0, 42, 80
2, 51743, Note_on_c, 0, 74, 0
2, 51744, Note_on_c, 0, 86, 0
2, 51764, Note_on_c, 0, 42, 0
2, 51773, Note_on_c, 0, 45, 80
2, 51773, Note_on_c, 0, 54, 80
2, 51775, Note_on_c, 0, 75, 80
2, 51777, Note_on_c, 0, 87, 80
2, 51842, Note_on_c, 0, 54, 0
2, 51844, Note_on_c, 0, 87, 0
2, 51844, Note_on_c, 0, 75, 0
2, 51872, Note_on_c, 0, 39, 80
2, 51874, Note_on_c, 0, 73, 80
2, 51876, Note_on_c, 0, 85, 80
2, 51878, Note_on_c, 0, 45, 0
2, 51913, Note_on_c, 0, 39, 0
2, 51920, Control_c, 0, 64, 127
2, 51922, Note_on_c, 0, 46, 80
2, 51922, Note_on_c, 0, 55, 80
2, 51964, Note_on_c, 0, 46, 0
2, 52011, Control_c, 0, 64, 0
2, 52075, Note_on_c, 0, 58, 80
2, 52075, Note_on_c, 0, 61, 80
2, 52075, Note_on_c, 0, 63, 80
2, 52075, Note_on_c, 0, 67, 80
2, 52105, Note_on_c, 0, 67, 0
2, 52105, Note_on_c, 0, 61, 0
2, 52105, Note_on_c, 0, 58, 0
2, 52105, Note_on_c, 0, 63, 0
2, 52157, Note_on_c, 0, 73, 0
2, 52157, Note_on_c, 0, 85, 0
2, 52225, Note_on_c, 0, 39, 80
2, 52225, Note_on_c, 0, 65, 80
2, 52225, Note_on_c, 0, 73, 80
2, 52225, Note_on_c, 0, 77, 80
2, 52258, Note_on_c, 0, 77, 0
2, 52258, Note_on_c, 0, 65, 0
2, 52258, Note_on_c, 0, 73, 0
2, 52268, Note_on_c, 0, 39, 0
2, 52328, Note_on_c, 0, 66, 80
2, 52328, Note_on_c, 0, 73, 80
2, 52330, Note_on_c, 0, 78, 80
2, 52344, Note_on_c, 0, 55, 0
2, 52375, Note_on_c, 0, 51, 80
2, 52375, Note_on_c, 0, 55, 80
2, 52375, Note_on_c, 0, 58, 80
2, 52375, Note_on_c, 0, 61, 80
2, 52406, Note_on_c, 0, 66, 0
2, 52406, Note_on_c, 0, 78, 0
2, 52406, Note_on_c, 0, 73, 0
2, 52416, Note_on_c, 0, 55, 0
2, 52416, Note_on_c, 0, 51, 0
2, 52416, Note_on_c, 0, 58, 0
2, 52416, Note_on_c, 0, 61, 0
2, 52479, Note_on_c, 0, 73, 80
2, 52481, Note_on_c, 0, 79, 80
2, 52492, Note_on_c, 0, 67, 80
2, 52533, Note_on_c, 0, 46, 80
2, 52533, Note_on_c, 0, 58, 80
2, 52563, Note_on_c, 0, 67, 0
2, 52563, Note_on_c, 0, 73, 0
2, 52565, Note_on_c, 0, 79, 0
2, 52577, Note_on_c, 0, 46, 0
2, 52584, Control_c, 0, 64, 127
2, 52637, Note_on_c, 0, 72, 80
2, 52637, Note_on_c, 0, 79, 80
2, 52637, Note_on_c, 0, 84, 80
2, 52656, Note_on_c, 0, 58, 0
2, 52668, Note_on_c, 0, 72, 0
2, 52668, Note_on_c, 0, 79, 0
2, 52668, Note_on_c, 0, 84, 0
2, 52678, Control_c, 0, 64, 0
2, 52689, Note_on_c, 0, 51, 80
2, 52689, Note_on_c, 0, 55, 80
2, 52689, Note_on_c, 0, 58, 80
2, 52689, Note_on_c, 0, 61, 80
2, 52689, Note_on_c, 0, 71, 80
2, 52691, Note_on_c, 0, 83, 80
2, 52719, Note_on_c, 0, 83, 0
2, 52719, Note_on_c, 0, 71, 0
2, 52730, Note_on_c, 0, 55, 0
2, 52730, Note_on_c, 0, 51, 0
2, 52730, Note_on_c, 0, 61, 0
2, 52794, Note_on_c, 0, 72, 80
2, 52794, Note_on_c, 0, 79, 80
2, 52794, Note_on_c, 0, 84, 80
2, 52824, Note_on_c, 0, 84, 0
2, 52824, Note_on_c, 0, 79, 0
2, 52824, Note_on_c, 0, 72, 0
2, 52844, Note_on_c, 0, 39, 80
2, 52844, Note_on_c, 0, 70, 80
2, 52846, Note_on_c, 0, 82, 80
2, 52888, Note_on_c, 0, 82, 0
2, 52888, Note_on_c, 0, 70, 0
2, 52888, Note_on_c, 0, 39, 0
2, 52951, Note_on_c, 0, 67, 80
2, 52951, Note_on_c, 0, 73, 80
2, 52953, Note_on_c, 0, 79, 80
2, 52958, Note_on_c, 0, 58, 0
2, 53005, Note_on_c, 0, 51, 80
2, 53005, Note_on_c, 0, 55, 80
2, 53005, Note_on_c, 0, 58, 80
2, 53005, Note_on_c, 0, 61, 80
2, 53036, Note_on_c, 0, 67, 0
2, 53036, Note_on_c, 0, 79, 0
2, 53036, Note_on_c, 0, 73, 0
2, 53050, Note_on_c, 0, 55, 0
2, 53050, Note_on_c, 0, 51, 0
2, 53050, Note_on_c, 0, 58, 0
2, 53050, Note_on_c, 0, 61, 0
2, 53111, Note_on_c, 0, 65, 80
2, 53111, Note_on_c, 0, 72, 80
2, 53111, Note_on_c, 0, 77, 80
2, 53160, Control_c, 0, 64, 127
2, 53161, Note_on_c, 0, 44, 80
2, 53161, Note_on_c, 0, 56, 80
2, 53204, Note_on_c, 0, 44, 0
2, 53267, Note_on_c, 0, 56, 0
2, 53267, Control_c, 0, 64, 0
2, 53314, Note_on_c, 0, 51, 80
2, 53314, Note_on_c, 0, 56, 80
2, 53314, Note_on_c, 0, 60, 80
2, 53342, Note_on_c, 0, 51, 0
2, 53342, Note_on_c, 0, 65, 0
2, 53342, Note_on_c, 0, 72, 0
2, 53344, Note_on_c, 0, 77, 0
2, 53344, Note_on_c, 0, 60, 0
2, 53414, Note_on_c, 0, 63, 80
2, 53414, Note_on_c, 0, 75, 80
2, 53458, Note_on_c, 0, 75, 0
2, 53458, Note_on_c, 0, 63, 0
2, 53463, Note_on_c, 0, 39, 80
2, 53463, Note_on_c, 0, 65, 80
2, 53463, Note_on_c, 0, 72, 80
2, 53465, Note_on_c, 0, 77, 80
2, 53507, Note_on_c, 0, 77, 0
2, 53507, Note_on_c, 0, 65, 0
2, 53507, Note_on_c, 0, 72, 0
2, 53507, Note_on_c, 0, 39, 0
2, 53568, Note_on_c, 0, 67, 80
2, 53568, Note_on_c, 0, 79, 80
2, 53569, Note_on_c, 0, 56, 0
2, 53595, Note_on_c, 0, 67, 0
2, 53597, Note_on_c, 0, 79, 0
2, 53616, Note_on_c, 0, 51, 80
2, 53616, Note_on_c, 0, 56, 80
2, 53616, Note_on_c, 0, 60, 80
2, 53616, Note_on_c, 0, 68, 80
2, 53616, Note_on_c, 0, 80, 80
2, 53649, Note_on_c, 0, 80, 0
2, 53649, Note_on_c, 0, 60, 0
2, 53649, Note_on_c, 0, 51, 0
2, 53649, Note_on_c, 0, 56, 0
2, 53649, Note_on_c, 0, 68, 0
2, 53724, Note_on_c, 0, 36, 80
2, 53724, Note_on_c, 0, 70, 80
2, 53724, Note_on_c, 0, 82, 80
2, 53750, Control_c, 0, 64, 127
2, 53755, Note_on_c, 0, 82, 0
2, 53755, Note_on_c, 0, 70, 0
2, 53755, Note_on_c, 0, 36, 0
2, 53776, Note_on_c, 0, 72, 80
2, 53776, Note_on_c, 0, 84, 80
2, 53778, Note_on_c, 0, 48, 80
2, 53778, Note_on_c, 0, 60, 80
2, 53778, Note_on_c, 0, 80, 80
2, 53804, Note_on_c, 0, 72, 0
2, 53806, Note_on_c, 0, 84, 0
2, 53806, Note_on_c, 0, 80, 0
2, 53806, Note_on_c, 0, 48, 0
2, 53880, Note_on_c, 0, 68, 80
2, 53880, Note_on_c, 0, 80, 80
2, 53882, Note_on_c, 0, 60, 0
2, 53882, Control_c, 0, 64, 0
2, 53931, Note_on_c, 0, 56, 80
2, 53931, Note_on_c, 0, 60, 80
2, 53931, Note_on_c, 0, 63, 80
2, 53974, Note_on_c, 0, 63, 0
2, 53974, Note_on_c, 0, 56, 0
2, 53990, Note_on_c, 0, 68, 0
2, 53990, Note_on_c, 0, 80, 0
2, 54034, Note_on_c, 0, 50, 80
2, 54034, Note_on_c, 0, 65, 80
2, 54034, Note_on_c, 0, 73, 80
2, 54034, Note_on_c, 0, 77, 80
2, 54050, Note_on_c, 0, 60, 0
2, 54076, Note_on_c, 0, 73, 0
2, 54076, Note_on_c, 0, 77, 0
2, 54076, Note_on_c, 0, 65, 0
2, 54088, Note_on_c, 0, 59, 80
2, 54088, Note_on_c, 0, 67, 80
2, 54088, Note_on_c, 0, 74, 80
2, 54088, Note_on_c, 0, 79, 80
2, 54130, Note_on_c, 0, 50, 0
2, 54179, Note_on_c, 0, 74, 0
2, 54179, Note_on_c, 0, 79, 0
2, 54179, Note_on_c, 0, 67, 0
2, 54205, Note_on_c, 0, 59, 0
2, 54238, Note_on_c, 0, 53, 80
2, 54238, Note_on_c, 0, 56, 80
2, 54238, Note_on_c, 0, 59, 80
2, 54238, Note_on_c, 0, 62, 80
2, 54238, Note_on_c, 0, 65, 80
2, 54238, Note_on_c, 0, 74, 80
2, 54238, Note_on_c, 0, 77, 80
2, 54280, Note_on_c, 0, 77, 0
2, 54280, Note_on_c, 0, 65, 0
2, 54280, Note_on_c, 0, 62, 0
2, 54280, Note_on_c, 0, 56, 0
2, 54280, Note_on_c, 0, 53, 0
2, 54280, Note_on_c, 0, 74, 0
2, 54340, Note_on_c, 0, 67, 80
2, 54340, Note_on_c, 0, 74, 80
2, 54340, Note_on_c, 0, 79, 80
2, 54371, Note_on_c, 0, 79, 0
2, 54371, Note_on_c, 0, 59, 0
2, 54371, Note_on_c, 0, 67, 0
2, 54371, Note_on_c, 0, 74, 0
2, 54392, Note_on_c, 0, 46, 80
2, 54392, Note_on_c, 0, 58, 80
2, 54392, Note_on_c, 0, 65, 80
2, 54392, Note_on_c, 0, 73, 80
2, 54392, Note_on_c, 0, 77, 80
2, 54407, Control_c, 0, 64, 127
2, 54437, Note_on_c, 0, 77, 0
2, 54437, Note_on_c, 0, 65, 0
2, 54437, Note_on_c, 0, 73, 0
2, 54437, Note_on_c, 0, 46, 0
2, 54494, Note_on_c, 0, 61, 80
2, 54494, Note_on_c, 0, 73, 80
2, 54501, Note_on_c, 0, 58, 0
2, 54524, Control_c, 0, 64, 0
2, 54540, Note_on_c, 0, 58, 80
2, 54542, Note_on_c, 0, 51, 80
2, 54544, Note_on_c, 0, 55, 80
2, 54584, Note_on_c, 0, 55, 0
2, 54584, Note_on_c, 0, 51, 0
2, 54596, Note_on_c, 0, 61, 0
2, 54596, Note_on_c, 0, 73, 0
2, 54645, Note_on_c, 0, 70, 80
2, 54645, Note_on_c, 0, 73, 80
2, 54645, Note_on_c, 0, 79, 80
2, 54645, Note_on_c, 0, 82, 80
2, 54694, Note_on_c, 0, 39, 80
2, 54736, Note_on_c, 0, 39, 0
2, 54811, Note_on_c, 0, 58, 0
2, 54846, Note_on_c, 0, 51, 80
2, 54846, Note_on_c, 0, 55, 80
2, 54846, Note_on_c, 0, 58, 80
2, 54846, Note_on_c, 0, 61, 80
2, 54887, Note_on_c, 0, 51, 0
2, 54888, Note_on_c, 0, 61, 0
2, 54888, Note_on_c, 0, 55, 0
2, 54888, Note_on_c, 0, 58, 0
2, 54924, Note_on_c, 0, 82, 0
2, 54924, Note_on_c, 0, 79, 0
2, 54924, Note_on_c, 0, 73, 0
2, 54926, Note_on_c, 0, 70, 0
2, 54945, Note_on_c, 0, 43, 80
2, 54997, Note_on_c, 0, 73, 80
2, 54997, Note_on_c, 0, 75, 80
2, 55002, Control_c, 0, 64, 127
2, 55002, Note_on_c, 0, 55, 80
2, 55002, Note_on_c, 0, 63, 80
2, 55034, Note_on_c, 0, 63, 0
2, 55034, Note_on_c, 0, 43, 0
2, 55034, Note_on_c, 0, 75, 0
2, 55034, Note_on_c, 0, 73, 0
2, 55095, Note_on_c, 0, 65, 80
2, 55095, Note_on_c, 0, 73, 80
2, 55095, Note_on_c, 0, 77, 80
2, 55114, Note_on_c, 0, 55, 0
2, 55147, Note_on_c, 0, 51, 80
2, 55147, Note_on_c, 0, 55, 80
2, 55147, Note_on_c, 0, 58, 80
2, 55147, Note_on_c, 0, 61, 80
2, 55163, Control_c, 0, 64, 0
2, 55186, Note_on_c, 0, 61, 0
2, 55186, Note_on_c, 0, 73, 0
2, 55186, Note_on_c, 0, 77, 0
2, 55188, Note_on_c, 0, 51, 0
2, 55188, Note_on_c, 0, 65, 0
2, 55188, Note_on_c, 0, 58, 0
2, 55245, Note_on_c, 0, 73, 80
2, 55247, Note_on_c, 0, 79, 80
2, 55247, Note_on_c, 0, 82, 80
2, 55247, Note_on_c, 0, 85, 80
2, 55296, Note_on_c, 0, 39, 80
2, 55340, Note_on_c, 0, 39, 0
2, 55400, Note_on_c, 0, 55, 0
2, 55444, Note_on_c, 0, 51, 80
2, 55444, Note_on_c, 0, 55, 80
2, 55444, Note_on_c, 0, 58, 80
2, 55444, Note_on_c, 0, 61, 80
2, 55477, Note_on_c, 0, 61, 0
2, 55477, Note_on_c, 0, 58, 0
2, 55477, Note_on_c, 0, 51, 0
2, 55477, Note_on_c, 0, 55, 0
2, 55526, Note_on_c, 0, 85, 0
2, 55526, Note_on_c, 0, 82, 0
2, 55526, Note_on_c, 0, 73, 0
2, 55528, Note_on_c, 0, 79, 0
2, 55596, Note_on_c, 0, 71, 80
2, 55596, Note_on_c, 0, 80, 80
2, 55596, Note_on_c, 0, 83, 80
2, 55598, Note_on_c, 0, 44, 80
2, 55598, Note_on_c, 0, 56, 80
2, 55600, Control_c, 0, 64, 127
2, 55640, Note_on_c, 0, 44, 0
2, 55640, Note_on_c, 0, 83, 0
2, 55640, Note_on_c, 0, 71, 0
2, 55640, Note_on_c, 0, 80, 0
2, 55699, Note_on_c, 0, 72, 80
2, 55699, Note_on_c, 0, 80, 80
2, 55699, Note_on_c, 0, 84, 80
2, 55708, Note_on_c, 0, 56, 0
2, 55749, Control_c, 0, 64, 0
2, 55753, Note_on_c, 0, 51, 80
2, 55753, Note_on_c, 0, 56, 80
2, 55753, Note_on_c, 0, 60, 80
2, 55784, Note_on_c, 0, 72, 0
2, 55784, Note_on_c, 0, 80, 0
2, 55786, Note_on_c, 0, 84, 0
2, 55798, Note_on_c, 0, 51, 0
2, 55798, Note_on_c, 0, 60, 0
2, 55854, Note_on_c, 0, 72, 80
2, 55856, Note_on_c, 0, 65, 80
2, 55856, Note_on_c, 0, 77, 80
2, 55913, Note_on_c, 0, 39, 80
2, 55955, Note_on_c, 0, 39, 0
2, 56020, Note_on_c, 0, 56, 0
2, 56064, Note_on_c, 0, 51, 80
2, 56064, Note_on_c, 0, 56, 80
2, 56064, Note_on_c, 0, 60, 80
2, 56105, Note_on_c, 0, 60, 0
2, 56105, Note_on_c, 0, 56, 0
2, 56107, Note_on_c, 0, 51, 0
2, 56167, Note_on_c, 0, 77, 0
2, 56169, Note_on_c, 0, 65, 0
2, 56169, Note_on_c, 0, 72, 0
2, 56218, Control_c, 0, 64, 127
2, 56218, Note_on_c, 0, 48, 80
2, 56218, Note_on_c, 0, 60, 80
2, 56262, Note_on_c, 0, 48, 0
2, 56316, Note_on_c, 0, 72, 80
2, 56316, Note_on_c, 0, 80, 80
2, 56316, Note_on_c, 0, 84, 80
2, 56323, Note_on_c, 0, 60, 0
2, 56337, Note_on_c, 0, 80, 0
2, 56349, Control_c, 0, 64, 0
2, 56358, Note_on_c, 0, 84, 0
2, 56360, Note_on_c, 0, 72, 0
2, 56367, Note_on_c, 0, 56, 80
2, 56367, Note_on_c, 0, 63, 80
2, 56367, Note_on_c, 0, 71, 80
2, 56367, Note_on_c, 0, 80, 80
2, 56367, Note_on_c, 0, 83, 80
2, 56369, Note_on_c, 0, 60, 80
2, 56411, Note_on_c, 0, 83, 0
2, 56411, Note_on_c, 0, 80, 0
2, 56411, Note_on_c, 0, 71, 0
2, 56411, Note_on_c, 0, 56, 0
2, 56411, Note_on_c, 0, 63, 0
2, 56470, Note_on_c, 0, 72, 80
2, 56470, Note_on_c, 0, 80, 80
2, 56470, Note_on_c, 0, 84, 80
2, 56500, Note_on_c, 0, 60, 0
2, 56512, Note_on_c, 0, 84, 0
2, 56512, Note_on_c, 0, 80, 0
2, 56514, Note_on_c, 0, 72, 0
2, 56520, Note_on_c, 0, 47, 80
2, 56520, Note_on_c, 0, 59, 80
2, 56520, Note_on_c, 0, 75, 80
2, 56520, Note_on_c, 0, 87, 80
2, 56565, Note_on_c, 0, 47, 0
2, 56574, Note_on_c, 0, 87, 0
2, 56574, Note_on_c, 0, 75, 0
2, 56623, Note_on_c, 0, 74, 80
2, 56623, Note_on_c, 0, 86, 80
2, 56642, Note_on_c, 0, 59, 0
2, 56675, Note_on_c, 0, 56, 80
2, 56677, Note_on_c, 0, 53, 80
2, 56677, Note_on_c, 0, 59, 80
2, 56677, Note_on_c, 0, 62, 80
2, 56708, Note_on_c, 0, 86, 0
2, 56708, Note_on_c, 0, 74, 0
2, 56719, Note_on_c, 0, 56, 0
2, 56721, Note_on_c, 0, 53, 0
2, 56721, Note_on_c, 0, 62, 0
2, 56778, Note_on_c, 0, 73, 80
2, 56778, Note_on_c, 0, 79, 80
2, 56778, Note_on_c, 0, 82, 80
2, 56778, Note_on_c, 0, 85, 80
2, 56808, Note_on_c, 0, 59, 0
2, 56830, Note_on_c, 0, 58, 80
2, 56832, Control_c, 0, 64, 127
2, 56832, Note_on_c, 0, 46, 80
2, 56876, Note_on_c, 0, 46, 0
2, 56941, Control_c, 0, 64, 0
2, 56952, Note_on_c, 0, 58, 0
2, 56985, Note_on_c, 0, 51, 80
2, 56985, Note_on_c, 0, 55, 80
2, 56985, Note_on_c, 0, 58, 80
2, 56985, Note_on_c, 0, 61, 80
2, 57013, Note_on_c, 0, 61, 0
2, 57015, Note_on_c, 0, 55, 0
2, 57015, Note_on_c, 0, 51, 0
2, 57064, Note_on_c, 0, 73, 0
2, 57064, Note_on_c, 0, 82, 0
2, 57064, Note_on_c, 0, 85, 0
2, 57064, Note_on_c, 0, 79, 0
2, 57139, Note_on_c, 0, 69, 80
2, 57139, Note_on_c, 0, 81, 80
2, 57141, Note_on_c, 0, 39, 80
2, 57141, Note_on_c, 0, 46, 80
2, 57181, Note_on_c, 0, 46, 0
2, 57181, Note_on_c, 0, 81, 0
2, 57181, Note_on_c, 0, 69, 0
2, 57183, Note_on_c, 0, 39, 0
2, 57240, Note_on_c, 0, 72, 80
2, 57240, Note_on_c, 0, 79, 80
2, 57240, Note_on_c, 0, 84, 80
2, 57261, Note_on_c, 0, 58, 0
2, 57293, Note_on_c, 0, 51, 80
2, 57293, Note_on_c, 0, 55, 80
2, 57293, Note_on_c, 0, 58, 80
2, 57293, Note_on_c, 0, 61, 80
2, 57334, Note_on_c, 0, 61, 0
2, 57334, Note_on_c, 0, 55, 0
2, 57336, Note_on_c, 0, 51, 0
2, 57345, Note_on_c, 0, 72, 0
2, 57345, Note_on_c, 0, 84, 0
2, 57345, Note_on_c, 0, 79, 0
2, 57392, Note_on_c, 0, 70, 80
2, 57392, Note_on_c, 0, 79, 80
2, 57392, Note_on_c, 0, 82, 80
2, 57428, Note_on_c, 0, 58, 0
2, 57444, Note_on_c, 0, 46, 80
2, 57444, Note_on_c, 0, 55, 80
2, 57446, Control_c, 0, 64, 127
2, 57486, Note_on_c, 0, 46, 0
2, 57538, Note_on_c, 0, 55, 0
2, 57552, Control_c, 0, 64, 0
2, 57597, Note_on_c, 0, 51, 80
2, 57597, Note_on_c, 0, 55, 80
2, 57597, Note_on_c, 0, 58, 80
2, 57597, Note_on_c, 0, 61, 80
2, 57641, Note_on_c, 0, 82, 0
2, 57643, Note_on_c, 0, 58, 0
2, 57643, Note_on_c, 0, 79, 0
2, 57643, Note_on_c, 0, 51, 0
2, 57643, Note_on_c, 0, 70, 0
2, 57643, Note_on_c, 0, 61, 0
2, 57750, Note_on_c, 0, 65, 80
2, 57750, Note_on_c, 0, 73, 80
2, 57750, Note_on_c, 0, 77, 80
2, 57752, Note_on_c, 0, 39, 80
2, 57752, Note_on_c, 0, 51, 80
2, 57794, Note_on_c, 0, 51, 0
2, 57794, Note_on_c, 0, 39, 0
2, 57804, Note_on_c, 0, 73, 0
2, 57806, Note_on_c, 0, 77, 0
2, 57806, Note_on_c, 0, 65, 0
2, 57855, Note_on_c, 0, 67, 80
2, 57855, Note_on_c, 0, 73, 80
2, 57855, Note_on_c, 0, 79, 80
2, 57871, Note_on_c, 0, 55, 0
2, 57904, Note_on_c, 0, 51, 80
2, 57904, Note_on_c, 0, 58, 80
2, 57904, Note_on_c, 0, 61, 80
2, 57935, Note_on_c, 0, 67, 0
2, 57935, Note_on_c, 0, 79, 0
2, 57935, Note_on_c, 0, 73, 0
2, 57946, Note_on_c, 0, 58, 0
2, 57948, Note_on_c, 0, 51, 0
2, 58005, Note_on_c, 0, 65, 80
2, 58005, Note_on_c, 0, 72, 80
2, 58005, Note_on_c, 0, 77, 80
2, 58037, Note_on_c, 0, 61, 0
2, 58058, Note_on_c, 0, 48, 80
2, 58058, Note_on_c, 0, 60, 80
2, 58060, Control_c, 0, 64, 127
2, 58150, Note_on_c, 0, 60, 0
2, 58201, Control_c, 0, 64, 0
2, 58208, Note_on_c, 0, 51, 80
2, 58208, Note_on_c, 0, 56, 80
2, 58208, Note_on_c, 0, 60, 80
2, 58248, Note_on_c, 0, 60, 0
2, 58248, Note_on_c, 0, 77, 0
2, 58248, Note_on_c, 0, 72, 0
2, 58248, Note_on_c, 0, 56, 0
2, 58250, Note_on_c, 0, 65, 0
2, 58250, Note_on_c, 0, 48, 0
2, 58250, Note_on_c, 0, 51, 0
2, 58311, Note_on_c, 0, 49, 80
2, 58311, Note_on_c, 0, 54, 80
2, 58311, Note_on_c, 0, 58, 80
2, 58311, Note_on_c, 0, 64, 80
2, 58311, Note_on_c, 0, 66, 80
2, 58313, Note_on_c, 0, 42, 80
2, 58322, Note_on_c, 0, 70, 80
2, 58425, Note_on_c, 0, 66, 0
2, 58430, Note_on_c, 0, 64, 0
2, 58430, Note_on_c, 0, 70, 0
2, 58441, Note_on_c, 0, 58, 0
2, 58463, Note_on_c, 0, 72, 80
2, 58464, Note_on_c, 0, 60, 80
2, 58572, Note_on_c, 0, 72, 0
2, 58574, Note_on_c, 0, 60, 0
2, 58597, Note_on_c, 0, 42, 0
2, 58597, Note_on_c, 0, 54, 0
2, 58597, Note_on_c, 0, 49, 0
2, 58616, Note_on_c, 0, 57, 80
2, 58616, Note_on_c, 0, 63, 80
2, 58616, Note_on_c, 0, 65, 80
2, 58616, Note_on_c, 0, 69, 80
2, 58670, Note_on_c, 0, 41, 80
2, 58670, Note_on_c, 0, 48, 80
2, 58670, Note_on_c, 0, 53, 80
2, 58672, Control_c, 0, 64, 127
2, 58740, Note_on_c, 0, 69, 0
2, 58740, Note_on_c, 0, 65, 0
2, 58740, Note_on_c, 0, 57, 0
2, 58740, Note_on_c, 0, 63, 0
2, 58742, Note_on_c, 0, 53, 0
2, 58742, Note_on_c, 0, 41, 0
2, 58742, Note_on_c, 0, 48, 0
2, 58786, Control_c, 0, 64, 0
2, 58807, Note_on_c, 0, 53, 80
2, 58807, Note_on_c, 0, 57, 80
2, 58807, Note_on_c, 0, 60, 80
2, 58807, Note_on_c, 0, 63, 80
2, 58807, Note_on_c, 0, 65, 80
2, 58807, Note_on_c, 0, 69, 80
2, 58807, Note_on_c, 0, 72, 80
2, 58807, Note_on_c, 0, 75, 80
2, 58807, Note_on_c, 0, 77, 80
2, 58849, Note_on_c, 0, 77, 0
2, 58849, Note_on_c, 0, 63, 0
2, 58849, Note_on_c, 0, 53, 0
2, 58849, Note_on_c, 0, 65, 0
2, 58849, Note_on_c, 0, 57, 0
2, 58849, Note_on_c, 0, 60, 0
2, 58849, Note_on_c, 0, 72, 0
2, 58849, Note_on_c, 0, 69, 0
2, 58849, Note_on_c, 0, 75, 0
2, 58913, Note_on_c, 0, 64, 80
2, 58913, Note_on_c, 0, 72, 80
2, 58913, Note_on_c, 0, 76, 80
2, 58971, Note_on_c, 0, 36, 80
2, 58971, Note_on_c, 0, 48, 80
2, 58997, Note_on_c, 0, 76, 0
2, 58999, Note_on_c, 0, 64, 0
2, 58999, Note_on_c, 0, 72, 0
2, 59014, Note_on_c, 0, 36, 0
2, 59067, Note_on_c, 0, 72, 80
2, 59067, Note_on_c, 0, 77, 80
2, 59069, Note_on_c, 0, 65, 80
2, 59069, Note_on_c, 0, 69, 80
2, 59086, Note_on_c, 0, 69, 0
2, 59086, Note_on_c, 0, 72, 0
2, 59112, Note_on_c, 0, 77, 0
2, 59113, Note_on_c, 0, 65, 0
2, 59118, Note_on_c, 0, 72, 80
2, 59118, Note_on_c, 0, 75, 80
2, 59120, Note_on_c, 0, 53, 80
2, 59120, Note_on_c, 0, 57, 80
2, 59120, Note_on_c, 0, 60, 80
2, 59120, Note_on_c, 0, 63, 80
2, 59120, Note_on_c, 0, 69, 80
2, 59160, Note_on_c, 0, 69, 0
2, 59160, Note_on_c, 0, 63, 0
2, 59160, Note_on_c, 0, 72, 0
2, 59160, Note_on_c, 0, 75, 0
2, 59160, Note_on_c, 0, 57, 0
2, 59162, Note_on_c, 0, 60, 0
2, 59162, Note_on_c, 0, 53, 0
2, 59221, Note_on_c, 0, 74, 80
2, 59223, Note_on_c, 0, 62, 80
2, 59242, Note_on_c, 0, 48, 0
2, 59256, Note_on_c, 0, 74, 0
2, 59268, Note_on_c, 0, 62, 0
2, 59275, Note_on_c, 0, 37, 80
2, 59275, Note_on_c, 0, 49, 80
2, 59275, Note_on_c, 0, 61, 80
2, 59275, Note_on_c, 0, 65, 80
2, 59275, Note_on_c, 0, 70, 80
2, 59275, Note_on_c, 0, 73, 80
2, 59277, Control_c, 0, 64, 127
2, 59303, Note_on_c, 0, 73, 0
2, 59304, Note_on_c, 0, 70, 0
2, 59316, Note_on_c, 0, 61, 0
2, 59316, Note_on_c, 0, 65, 0
2, 59316, Note_on_c, 0, 37, 0
2, 59376, Note_on_c, 0, 65, 80
2, 59376, Note_on_c, 0, 77, 80
2, 59383, Control_c, 0, 64, 0
2, 59395, Note_on_c, 0, 77, 0
2, 59395, Note_on_c, 0, 65, 0
2, 59430, Note_on_c, 0, 58, 80
2, 59430, Note_on_c, 0, 61, 80
2, 59430, Note_on_c, 0, 65, 80
2, 59430, Note_on_c, 0, 70, 80
2, 59430, Note_on_c, 0, 77, 80
2, 59430, Note_on_c, 0, 82, 80
2, 59458, Note_on_c, 0, 82, 0
2, 59458, Note_on_c, 0, 70, 0
2, 59458, Note_on_c, 0, 61, 0
2, 59458, Note_on_c, 0, 77, 0
2, 59472, Note_on_c, 0, 65, 0
2, 59474, Note_on_c, 0, 58, 0
2, 59531, Note_on_c, 0, 69, 80
2, 59531, Note_on_c, 0, 81, 80
2, 59550, Note_on_c, 0, 49, 0
2, 59573, Note_on_c, 0, 81, 0
2, 59573, Note_on_c, 0, 69, 0
2, 59580, Note_on_c, 0, 71, 80
2, 59580, Note_on_c, 0, 77, 80
2, 59580, Note_on_c, 0, 80, 80
2, 59580, Note_on_c, 0, 83, 80
2, 59582, Note_on_c, 0, 38, 80
2, 59582, Note_on_c, 0, 50, 80
2, 59624, Note_on_c, 0, 83, 0
2, 59624, Note_on_c, 0, 80, 0
2, 59624, Note_on_c, 0, 71, 0
2, 59624, Note_on_c, 0, 77, 0
2, 59626, Note_on_c, 0, 38, 0
2, 59685, Note_on_c, 0, 70, 80
2, 59685, Note_on_c, 0, 82, 80
2, 59729, Note_on_c, 0, 82, 0
2, 59729, Note_on_c, 0, 70, 0
2, 59736, Note_on_c, 0, 56, 80
2, 59736, Note_on_c, 0, 59, 80
2, 59736, Note_on_c, 0, 62, 80
2, 59736, Note_on_c, 0, 68, 80
2, 59736, Note_on_c, 0, 80, 80
2, 59737, Note_on_c, 0, 53, 80
2, 59778, Note_on_c, 0, 80, 0
2, 59780, Note_on_c, 0, 68, 0
2, 59780, Note_on_c, 0, 56, 0
2, 59780, Note_on_c, 0, 59, 0
2, 59780, Note_on_c, 0, 62, 0
2, 59780, Note_on_c, 0, 53, 0
2, 59838, Note_on_c, 0, 77, 80
2, 59840, Note_on_c, 0, 65, 80
2, 59856, Note_on_c, 0, 50, 0
2, 59880, Control_c, 0, 64, 127
2, 59881, Note_on_c, 0, 65, 0
2, 59881, Note_on_c, 0, 77, 0
2, 59886, Note_on_c, 0, 72, 80
2, 59886, Note_on_c, 0, 75, 80
2, 59886, Note_on_c, 0, 79, 80
2, 59888, Note_on_c, 0, 39, 80
2, 59888, Note_on_c, 0, 51, 80
2, 59930, Note_on_c, 0, 79, 0
2, 59930, Note_on_c, 0, 72, 0
2, 59930, Note_on_c, 0, 75, 0
2, 59932, Note_on_c, 0, 39, 0
2, 59984, Control_c, 0, 64, 0
2, 59989, Note_on_c, 0, 77, 80
2, 59991, Note_on_c, 0, 65, 80
2, 60000, Note_on_c, 0, 72, 80
2, 60043, Note_on_c, 0, 56, 80
2, 60043, Note_on_c, 0, 60, 80
2, 60043, Note_on_c, 0, 63, 80
2, 60083, Note_on_c, 0, 60, 0
2, 60083, Note_on_c, 0, 72, 0
2, 60083, Note_on_c, 0, 77, 0
2, 60083, Note_on_c, 0, 56, 0
2, 60085, Note_on_c, 0, 65, 0
2, 60085, Note_on_c, 0, 63, 0
2, 60144, Note_on_c, 0, 63, 80
2, 60144, Note_on_c, 0, 69, 80
2, 60144, Note_on_c, 0, 72, 80
2, 60144, Note_on_c, 0, 75, 80
2, 60163, Note_on_c, 0, 51, 0
2, 60193, Note_on_c, 0, 41, 80
2, 60193, Note_on_c, 0, 48, 80
2, 60193, Note_on_c, 0, 57, 80
2, 60234, Note_on_c, 0, 41, 0
2, 60236, Note_on_c, 0, 48, 0
2, 60285, Note_on_c, 0, 63, 0
2, 60287, Note_on_c, 0, 57, 0
2, 60347, Note_on_c, 0, 60, 80
2, 60347, Note_on_c, 0, 63, 80
2, 60349, Note_on_c, 0, 53, 80
2, 60349, Note_on_c, 0, 57, 80
2, 60389, Note_on_c, 0, 72, 0
2, 60391, Note_on_c, 0, 63, 0
2, 60391, Note_on_c, 0, 69, 0
2, 60391, Note_on_c, 0, 60, 0
2, 60391, Note_on_c, 0, 75, 0
2, 60391, Note_on_c, 0, 53, 0
2, 60450, Note_on_c, 0, 41, 80
2, 60450, Note_on_c, 0, 68, 80
2, 60450, Note_on_c, 0, 74, 80
2, 60450, Note_on_c, 0, 77, 80
2, 60450, Note_on_c, 0, 80, 80
2, 60469, Note_on_c, 0, 57, 0
2, 60490, Control_c, 0, 64, 127
2, 60502, Note_on_c, 0, 56, 80
2, 60546, Note_on_c, 0, 41, 0
2, 60598, Control_c, 0, 64, 0
2, 60624, Note_on_c, 0, 56, 0
2, 60656, Note_on_c, 0, 53, 80
2, 60656, Note_on_c, 0, 56, 80
2, 60656, Note_on_c, 0, 58, 80
2, 60656, Note_on_c, 0, 62, 80
2, 60698, Note_on_c, 0, 62, 0
2, 60698, Note_on_c, 0, 74, 0
2, 60698, Note_on_c, 0, 53, 0
2, 60698, Note_on_c, 0, 80, 0
2, 60698, Note_on_c, 0, 68, 0
2, 60698, Note_on_c, 0, 77, 0
2, 60698, Note_on_c, 0, 56, 0
2, 60698, Note_on_c, 0, 58, 0
2, 60759, Note_on_c, 0, 68, 80
2, 60759, Note_on_c, 0, 74, 80
2, 60759, Note_on_c, 0, 77, 80
2, 60759, Note_on_c, 0, 80, 80
2, 60806, Note_on_c, 0, 80, 0
2, 60806, Note_on_c, 0, 68, 0
2, 60806, Note_on_c, 0, 74, 0
2, 60806, Note_on_c, 0, 77, 0
2, 60811, Note_on_c, 0, 67, 80
2, 60811, Note_on_c, 0, 73, 80
2, 60811, Note_on_c, 0, 79, 80
2, 60813, Note_on_c, 0, 39, 80
2, 60813, Note_on_c, 0, 51, 80
2, 60855, Note_on_c, 0, 79, 0
2, 60855, Note_on_c, 0, 73, 0
2, 60857, Note_on_c, 0, 67, 0
2, 60857, Note_on_c, 0, 39, 0
2, 60857, Note_on_c, 0, 51, 0
2, 60911, Note_on_c, 0, 41, 80
2, 60911, Note_on_c, 0, 68, 80
2, 60911, Note_on_c, 0, 80, 80
2, 60912, Note_on_c, 0, 53, 80
2, 60953, Note_on_c, 0, 53, 0
2, 60953, Note_on_c, 0, 41, 0
2, 60953, Note_on_c, 0, 68, 0
2, 60953, Note_on_c, 0, 80, 0
2, 60960, Note_on_c, 0, 43, 80
2, 60960, Note_on_c, 0, 55, 80
2, 60960, Note_on_c, 0, 70, 80
2, 60960, Note_on_c, 0, 82, 80
2, 61016, Note_on_c, 0, 70, 0
2, 61016, Note_on_c, 0, 43, 0
2, 61016, Note_on_c, 0, 55, 0
2, 61018, Note_on_c, 0, 82, 0
2, 61062, Note_on_c, 0, 44, 80
2, 61062, Note_on_c, 0, 51, 80
2, 61062, Note_on_c, 0, 56, 80
2, 61062, Note_on_c, 0, 68, 80
2, 61062, Note_on_c, 0, 72, 80
2, 61062, Note_on_c, 0, 75, 80
2, 61062, Note_on_c, 0, 80, 80
2, 61085, Control_c, 0, 64, 127
2, 61188, Control_c, 0, 64, 0
2, 61200, Note_on_c, 0, 80, 0
2, 61200, Note_on_c, 0, 72, 0
2, 61200, Note_on_c, 0, 51, 0
2, 61200, Note_on_c, 0, 56, 0
2, 61200, Note_on_c, 0, 44, 0
2, 61200, Note_on_c, 0, 75, 0
2, 61200, Note_on_c, 0, 68, 0
2, 61260, Note_on_c, 0, 48, 80
2, 61260, Note_on_c, 0, 60, 80
2, 61260, Note_on_c, 0, 69, 80
2, 61260, Note_on_c, 0, 81, 80
2, 61307, Note_on_c, 0, 48, 0
2, 61319, Note_on_c, 0, 81, 0
2, 61328, Note_on_c, 0, 69, 0
2, 61361, Note_on_c, 0, 70, 80
2, 61361, Note_on_c, 0, 82, 80
2, 61380, Note_on_c, 0, 60, 0
2, 61408, Note_on_c, 0, 82, 0
2, 61408, Note_on_c, 0, 70, 0
2, 61415, Note_on_c, 0, 47, 80
2, 61415, Note_on_c, 0, 59, 80
2, 61415, Note_on_c, 0, 71, 80
2, 61415, Note_on_c, 0, 83, 80
2, 61459, Note_on_c, 0, 47, 0
2, 61473, Note_on_c, 0, 83, 0
2, 61473, Note_on_c, 0, 71, 0
2, 61522, Note_on_c, 0, 72, 80
2, 61522, Note_on_c, 0, 84, 80
2, 61555, Note_on_c, 0, 84, 0
2, 61555, Note_on_c, 0, 72, 0
2, 61574, Note_on_c, 0, 53, 80
2, 61574, Note_on_c, 0, 56, 80
2, 61574, Note_on_c, 0, 75, 80
2, 61574, Note_on_c, 0, 87, 80
2, 61621, Note_on_c, 0, 87, 0
2, 61621, Note_on_c, 0, 56, 0
2, 61621, Note_on_c, 0, 75, 0
2, 61621, Note_on_c, 0, 53, 0
2, 61680, Note_on_c, 0, 74, 80
2, 61680, Note_on_c, 0, 86, 80
2, 61712, Note_on_c, 0, 59, 0
2, 61724, Note_on_c, 0, 86, 0
2, 61724, Note_on_c, 0, 74, 0
2, 61733, Control_c, 0, 64, 127
2, 61733, Note_on_c, 0, 73, 80
2, 61733, Note_on_c, 0, 79, 80
2, 61735, Note_on_c, 0, 46, 80
2, 61735, Note_on_c, 0, 58, 80
2, 61735, Note_on_c, 0, 82, 80
2, 61735, Note_on_c, 0, 85, 80
2, 61777, Note_on_c, 0, 46, 0
2, 61864, Control_c, 0, 64, 0
2, 61887, Note_on_c, 0, 51, 80
2, 61887, Note_on_c, 0, 55, 80
2, 61887, Note_on_c, 0, 61, 80
2, 61929, Note_on_c, 0, 61, 0
2, 61929, Note_on_c, 0, 55, 0
2, 61929, Note_on_c, 0, 51, 0
2, 61967, Note_on_c, 0, 73, 0
2, 61968, Note_on_c, 0, 79, 0
2, 61968, Note_on_c, 0, 82, 0
2, 61968, Note_on_c, 0, 85, 0
2, 62037, Note_on_c, 0, 39, 80
2, 62037, Note_on_c, 0, 69, 80
2, 62037, Note_on_c, 0, 81, 80
2, 62081, Note_on_c, 0, 39, 0
2, 62092, Note_on_c, 0, 81, 0
2, 62092, Note_on_c, 0, 69, 0
2, 62139, Note_on_c, 0, 72, 80
2, 62139, Note_on_c, 0, 79, 80
2, 62141, Note_on_c, 0, 84, 80
2, 62193, Note_on_c, 0, 51, 80
2, 62193, Note_on_c, 0, 55, 80
2, 62193, Note_on_c, 0, 61, 80
2, 62235, Note_on_c, 0, 61, 0
2, 62235, Note_on_c, 0, 51, 0
2, 62240, Note_on_c, 0, 55, 0
2, 62250, Note_on_c, 0, 79, 0
2, 62250, Note_on_c, 0, 84, 0
2, 62250, Note_on_c, 0, 72, 0
2, 62294, Note_on_c, 0, 70, 80
2, 62294, Note_on_c, 0, 79, 80
2, 62294, Note_on_c, 0, 82, 80
2, 62325, Note_on_c, 0, 58, 0
2, 62346, Control_c, 0, 64, 127
2, 62346, Note_on_c, 0, 43, 80
2, 62346, Note_on_c, 0, 55, 80
2, 62388, Note_on_c, 0, 43, 0
2, 62414, Note_on_c, 0, 70, 0
2, 62414, Note_on_c, 0, 82, 0
2, 62416, Note_on_c, 0, 79, 0
2, 62439, Note_on_c, 0, 55, 0
2, 62474, Control_c, 0, 64, 0
2, 62500, Note_on_c, 0, 49, 80
2, 62500, Note_on_c, 0, 61, 80
2, 62500, Note_on_c, 0, 64, 80
2, 62500, Note_on_c, 0, 73, 80
2, 62500, Note_on_c, 0, 76, 80
2, 62541, Note_on_c, 0, 73, 0
2, 62541, Note_on_c, 0, 64, 0
2, 62541, Note_on_c, 0, 49, 0
2, 62543, Note_on_c, 0, 76, 0
2, 62603, Note_on_c, 0, 65, 80
2, 62603, Note_on_c, 0, 73, 80
2, 62603, Note_on_c, 0, 77, 80
2, 62624, Note_on_c, 0, 73, 0
2, 62624, Note_on_c, 0, 61, 0
2, 62647, Note_on_c, 0, 77, 0
2, 62649, Note_on_c, 0, 65, 0
2, 62656, Note_on_c, 0, 48, 80
2, 62656, Note_on_c, 0, 60, 80
2, 62656, Note_on_c, 0, 73, 80
2, 62656, Note_on_c, 0, 78, 80
2, 62700, Note_on_c, 0, 78, 0
2, 62700, Note_on_c, 0, 73, 0
2, 62700, Note_on_c, 0, 48, 0
2, 62759, Note_on_c, 0, 67, 80
2, 62759, Note_on_c, 0, 79, 80
2, 62775, Note_on_c, 0, 60, 0
2, 62798, Note_on_c, 0, 67, 0
2, 62800, Note_on_c, 0, 79, 0
2, 62807, Note_on_c, 0, 46, 80
2, 62807, Note_on_c, 0, 58, 80
2, 62807, Note_on_c, 0, 84, 80
2, 62821, Note_on_c, 0, 72, 80
2, 62852, Note_on_c, 0, 46, 0
2, 62866, Note_on_c, 0, 72, 0
2, 62866, Note_on_c, 0, 84, 0
2, 62913, Note_on_c, 0, 67, 80
2, 62913, Note_on_c, 0, 79, 80
2, 62941, Note_on_c, 0, 58, 0
2, 62955, Note_on_c, 0, 79, 0
2, 62955, Note_on_c, 0, 67, 0
2, 62960, Control_c, 0, 64, 127
2, 62960, Note_on_c, 0, 44, 80
2, 62962, Note_on_c, 0, 56, 80
2, 62962, Note_on_c, 0, 70, 80
2, 62962, Note_on_c, 0, 82, 80
2, 63004, Note_on_c, 0, 82, 0
2, 63004, Note_on_c, 0, 70, 0
2, 63004, Note_on_c, 0, 44, 0
2, 63065, Control_c, 0, 64, 0
2, 63065, Note_on_c, 0, 68, 80
2, 63065, Note_on_c, 0, 72, 80
2, 63065, Note_on_c, 0, 75, 80
2, 63065, Note_on_c, 0, 80, 80
2, 63114, Note_on_c, 0, 51, 80
2, 63114, Note_on_c, 0, 60, 80
2, 63158, Note_on_c, 0, 60, 0
2, 63158, Note_on_c, 0, 80, 0
2, 63158, Note_on_c, 0, 68, 0
2, 63158, Note_on_c, 0, 51, 0
2, 63160, Note_on_c, 0, 72, 0
2, 63160, Note_on_c, 0, 75, 0
2, 63216, Note_on_c, 0, 65, 80
2, 63216, Note_on_c, 0, 72, 80
2, 63216, Note_on_c, 0, 75, 80
2, 63216, Note_on_c, 0, 77, 80
2, 63265, Note_on_c, 0, 39, 80
2, 63308, Note_on_c, 0, 39, 0
2, 63387, Note_on_c, 0, 56, 0
2, 63420, Note_on_c, 0, 51, 80
2, 63420, Note_on_c, 0, 56, 80
2, 63420, Note_on_c, 0, 60, 80
2, 63460, Note_on_c, 0, 51, 0
2, 63462, Note_on_c, 0, 56, 0
2, 63462, Note_on_c, 0, 60, 0
2, 63553, Control_c, 0, 64, 127
2, 63570, Note_on_c, 0, 48, 80
2, 63600, Note_on_c, 0, 65, 0
2, 63600, Note_on_c, 0, 75, 0
2, 63600, Note_on_c, 0, 72, 0
2, 63602, Note_on_c, 0, 77, 0
2, 63672, Note_on_c, 0, 63, 80
2, 63672, Note_on_c, 0, 72, 80
2, 63672, Note_on_c, 0, 75, 80
2, 63674, Control_c, 0, 64, 0
2, 63694, Note_on_c, 0, 72, 0
2, 63703, Note_on_c, 0, 75, 0
2, 63703, Note_on_c, 0, 63, 0
2, 63724, Note_on_c, 0, 51, 80
2, 63724, Note_on_c, 0, 56, 80
2, 63724, Note_on_c, 0, 60, 80
2, 63724, Note_on_c, 0, 64, 80
2, 63726, Note_on_c, 0, 72, 80
2, 63726, Note_on_c, 0, 76, 80
2, 63754, Note_on_c, 0, 72, 0
2, 63754, Note_on_c, 0, 60, 0
2, 63754, Note_on_c, 0, 51, 0
2, 63754, Note_on_c, 0, 56, 0
2, 63754, Note_on_c, 0, 64, 0
2, 63756, Note_on_c, 0, 76, 0
2, 63829, Note_on_c, 0, 65, 80
2, 63829, Note_on_c, 0, 77, 80
2, 63843, Note_on_c, 0, 48, 0
2, 63845, Note_on_c, 0, 77, 0
2, 63855, Note_on_c, 0, 65, 0
2, 63876, Note_on_c, 0, 35, 80
2, 63876, Note_on_c, 0, 47, 80
2, 63876, Note_on_c, 0, 70, 80
2, 63878, Note_on_c, 0, 74, 80
2, 63878, Note_on_c, 0, 77, 80
2, 63878, Note_on_c, 0, 82, 80
2, 63906, Note_on_c, 0, 82, 0
2, 63906, Note_on_c, 0, 74, 0
2, 63906, Note_on_c, 0, 70, 0
2, 63906, Note_on_c, 0, 77, 0
2, 63915, Note_on_c, 0, 35, 0
2, 63979, Note_on_c, 0, 68, 80
2, 63979, Note_on_c, 0, 74, 80
2, 63979, Note_on_c, 0, 77, 80
2, 63979, Note_on_c, 0, 80, 80
2, 64028, Note_on_c, 0, 53, 80
2, 64028, Note_on_c, 0, 56, 80
2, 64028, Note_on_c, 0, 59, 80
2, 64030, Note_on_c, 0, 62, 80
2, 64057, Note_on_c, 0, 62, 0
2, 64057, Note_on_c, 0, 68, 0
2, 64057, Note_on_c, 0, 59, 0
2, 64057, Note_on_c, 0, 77, 0
2, 64057, Note_on_c, 0, 56, 0
2, 64057, Note_on_c, 0, 53, 0
2, 64059, Note_on_c, 0, 74, 0
2, 64059, Note_on_c, 0, 80, 0
2, 64128, Note_on_c, 0, 65, 80
2, 64128, Note_on_c, 0, 77, 80
2, 64129, Note_on_c, 0, 47, 0
2, 64155, Note_on_c, 0, 77, 0
2, 64155, Note_on_c, 0, 65, 0
2, 64178, Note_on_c, 0, 46, 80
2, 64178, Note_on_c, 0, 67, 80
2, 64180, Note_on_c, 0, 73, 80
2, 64180, Note_on_c, 0, 79, 80
2, 64187, Note_on_c, 0, 34, 80
2, 64197, Control_c, 0, 64, 127
2, 64208, Note_on_c, 0, 67, 0
2, 64210, Note_on_c, 0, 79, 0
2, 64210, Note_on_c, 0, 73, 0
2, 64229, Note_on_c, 0, 46, 0
2, 64229, Note_on_c, 0, 34, 0
2, 64252, Control_c, 0, 64, 0
2, 64280, Note_on_c, 0, 61, 80
2, 64282, Note_on_c, 0, 73, 80
2, 64331, Note_on_c, 0, 51, 80
2, 64331, Note_on_c, 0, 55, 80
2, 64333, Note_on_c, 0, 58, 80
2, 64377, Note_on_c, 0, 58, 0
2, 64377, Note_on_c, 0, 51, 0
2, 64377, Note_on_c, 0, 55, 0
2, 64379, Note_on_c, 0, 73, 0
2, 64440, Note_on_c, 0, 67, 80
2, 64440, Note_on_c, 0, 70, 80
2, 64440, Note_on_c, 0, 73, 80
2, 64488, Note_on_c, 0, 39, 80
2, 64547, Note_on_c, 0, 39, 0
2, 64604, Note_on_c, 0, 61, 0
2, 64604, Note_on_c, 0, 67, 0
2, 64648, Note_on_c, 0, 51, 80
2, 64650, Note_on_c, 0, 58, 80
2, 64650, Note_on_c, 0, 61, 80
2, 64652, Note_on_c, 0, 55, 80
2, 64692, Note_on_c, 0, 55, 0
2, 64692, Note_on_c, 0, 51, 0
2, 64692, Note_on_c, 0, 58, 0
2, 64757, Note_on_c, 0, 61, 0
2, 64759, Note_on_c, 0, 70, 0
2, 64759, Note_on_c, 0, 73, 0
2, 64800, Control_c, 0, 64, 127
2, 64804, Note_on_c, 0, 43, 80
2, 64804, Note_on_c, 0, 55, 80
2, 64806, Note_on_c, 0, 64, 80
2, 64806, Note_on_c, 0, 73, 80
2, 64806, Note_on_c, 0, 76, 80
2, 64847, Note_on_c, 0, 43, 0
2, 64848, Note_on_c, 0, 73, 0
2, 64848, Note_on_c, 0, 76, 0
2, 64848, Note_on_c, 0, 64, 0
2, 64896, Control_c, 0, 64, 0
2, 64910, Note_on_c, 0, 65, 80
2, 64910, Note_on_c, 0, 73, 80
2, 64912, Note_on_c, 0, 55, 0
2, 64912, Note_on_c, 0, 77, 80
2, 64956, Note_on_c, 0, 51, 80
2, 64961, Note_on_c, 0, 55, 80
2, 64961, Note_on_c, 0, 58, 80
2, 64961, Note_on_c, 0, 61, 80
2, 65001, Note_on_c, 0, 51, 0
2, 65003, Note_on_c, 0, 58, 0
2, 65003, Note_on_c, 0, 65, 0
2, 65003, Note_on_c, 0, 61, 0
2, 65005, Note_on_c, 0, 73, 0
2, 65005, Note_on_c, 0, 77, 0
2, 65059, Note_on_c, 0, 67, 80
2, 65061, Note_on_c, 0, 73, 80
2, 65061, Note_on_c, 0, 75, 80
2, 65061, Note_on_c, 0, 79, 80
2, 65110, Note_on_c, 0, 39, 80
2, 65152, Note_on_c, 0, 39, 0
2, 65262, Note_on_c, 0, 51, 80
2, 65262, Note_on_c, 0, 58, 80
2, 65262, Note_on_c, 0, 61, 80
2, 65304, Note_on_c, 0, 61, 0
2, 65304, Note_on_c, 0, 58, 0
2, 65304, Note_on_c, 0, 55, 0
2, 65304, Note_on_c, 0, 51, 0
2, 65306, Note_on_c, 0, 75, 0
2, 65306, Note_on_c, 0, 79, 0
2, 65306, Note_on_c, 0, 73, 0
2, 65306, Note_on_c, 0, 67, 0
2, 65365, Note_on_c, 0, 44, 80
2, 65365, Note_on_c, 0, 56, 80
2, 65367, Note_on_c, 0, 65, 80
2, 65367, Note_on_c, 0, 72, 80
2, 65367, Note_on_c, 0, 77, 80
2, 65414, Control_c, 0, 64, 127
2, 65461, Note_on_c, 0, 56, 0
2, 65461, Note_on_c, 0, 44, 0
2, 65520, Note_on_c, 0, 39, 80
2, 65521, Note_on_c, 0, 51, 80
2, 65547, Control_c, 0, 64, 0
2, 65564, Note_on_c, 0, 51, 0
2, 65564, Note_on_c, 0, 39, 0
2, 65570, Note_on_c, 0, 41, 80
2, 65572, Note_on_c, 0, 53, 80
2, 65626, Note_on_c, 0, 53, 0
2, 65626, Note_on_c, 0, 41, 0
2, 65670, Note_on_c, 0, 43, 80
2, 65675, Note_on_c, 0, 55, 80
2, 65715, Note_on_c, 0, 55, 0
2, 65715, Note_on_c, 0, 43, 0
2, 65720, Note_on_c, 0, 44, 80
2, 65722, Note_on_c, 0, 56, 80
2, 65762, Note_on_c, 0, 44, 0
2, 65764, Note_on_c, 0, 56, 0
2, 65823, Note_on_c, 0, 46, 80
2, 65825, Note_on_c, 0, 58, 80
2, 65928, Note_on_c, 0, 46, 0
2, 65929, Note_on_c, 0, 58, 0
2, 65972, Note_on_c, 0, 47, 80
2, 65974, Note_on_c, 0, 59, 80
2, 66014, Note_on_c, 0, 47, 0
2, 66016, Note_on_c, 0, 59, 0
2, 66018, Control_c, 0, 64, 127
2, 66023, Note_on_c, 0, 48, 80
2, 66024, Note_on_c, 0, 60, 80
2, 66081, Note_on_c, 0, 48, 0
2, 66083, Note_on_c, 0, 60, 0
2, 66127, Note_on_c, 0, 47, 80
2, 66129, Note_on_c, 0, 59, 80
2, 66141, Control_c, 0, 64, 0
2, 66171, Note_on_c, 0, 47, 0
2, 66173, Note_on_c, 0, 59, 0
2, 66180, Note_on_c, 0, 48, 80
2, 66180, Note_on_c, 0, 60, 80
2, 66234, Note_on_c, 0, 60, 0
2, 66234, Note_on_c, 0, 48, 0
2, 66236, Note_on_c, 0, 72, 0
2, 66236, Note_on_c, 0, 65, 0
2, 66238, Note_on_c, 0, 77, 0
2, 66287, Note_on_c, 0, 51, 80
2, 66287, Note_on_c, 0, 63, 80
2, 66441, Note_on_c, 0, 75, 80
2, 66441, Note_on_c, 0, 87, 80
2, 66443, Note_on_c, 0, 63, 0
2, 66443, Note_on_c, 0, 51, 0
2, 66485, Note_on_c, 0, 75, 0
2, 66485, Note_on_c, 0, 87, 0
2, 66487, Note_on_c, 0, 50, 80
2, 66489, Note_on_c, 0, 62, 80
2, 66491, Note_on_c, 0, 74, 80
2, 66493, Note_on_c, 0, 86, 80
2, 66547, Note_on_c, 0, 62, 0
2, 66547, Note_on_c, 0, 50, 0
2, 66549, Note_on_c, 0, 74, 0
2, 66549, Note_on_c, 0, 86, 0
2, 66591, Note_on_c, 0, 49, 80
2, 66593, Note_on_c, 0, 61, 80
2, 66593, Note_on_c, 0, 75, 80
2, 66595, Note_on_c, 0, 87, 80
2, 66635, Note_on_c, 0, 75, 0
2, 66635, Control_c, 0, 64, 127
2, 66637, Note_on_c, 0, 87, 0
2, 66642, Note_on_c, 0, 73, 80
2, 66642, Note_on_c, 0, 79, 80
2, 66642, Note_on_c, 0, 82, 80
2, 66642, Note_on_c, 0, 85, 80
2, 66717, Note_on_c, 0, 61, 0
2, 66717, Note_on_c, 0, 49, 0
2, 66733, Note_on_c, 0, 55, 80
2, 66759, Control_c, 0, 64, 0
2, 66785, Note_on_c, 0, 51, 80
2, 66787, Note_on_c, 0, 58, 80
2, 66787, Note_on_c, 0, 61, 80
2, 66827, Note_on_c, 0, 51, 0
2, 66827, Note_on_c, 0, 55, 0
2, 66829, Note_on_c, 0, 61, 0
2, 66829, Note_on_c, 0, 58, 0
2, 66864, Note_on_c, 0, 73, 0
2, 66869, Note_on_c, 0, 79, 0
2, 66869, Note_on_c, 0, 85, 0
2, 66871, Note_on_c, 0, 82, 0
2, 66932, Note_on_c, 0, 39, 80
2, 66938, Note_on_c, 0, 69, 80
2, 66938, Note_on_c, 0, 81, 80
2, 66979, Note_on_c, 0, 39, 0
2, 67000, Note_on_c, 0, 81, 0
2, 67011, Note_on_c, 0, 69, 0
2, 67047, Note_on_c, 0, 72, 80
2, 67049, Note_on_c, 0, 79, 80
2, 67049, Note_on_c, 0, 84, 80
2, 67093, Note_on_c, 0, 51, 80
2, 67095, Note_on_c, 0, 55, 80
2, 67095, Note_on_c, 0, 58, 80
2, 67095, Note_on_c, 0, 61, 80
2, 67135, Note_on_c, 0, 61, 0
2, 67135, Note_on_c, 0, 55, 0
2, 67135, Note_on_c, 0, 51, 0
2, 67135, Note_on_c, 0, 58, 0
2, 67137, Note_on_c, 0, 72, 0
2, 67142, Note_on_c, 0, 84, 0
2, 67142, Note_on_c, 0, 79, 0
2, 67200, Note_on_c, 0, 70, 80
2, 67202, Note_on_c, 0, 79, 80
2, 67202, Note_on_c, 0, 82, 80
2, 67247, Control_c, 0, 64, 127
2, 67251, Note_on_c, 0, 43, 80
2, 67253, Note_on_c, 0, 55, 80
2, 67347, Note_on_c, 0, 43, 0
2, 67349, Note_on_c, 0, 55, 0
2, 67372, Control_c, 0, 64, 0
2, 67408, Note_on_c, 0, 46, 80
2, 67410, Note_on_c, 0, 58, 80
2, 67475, Note_on_c, 0, 46, 0
2, 67491, Note_on_c, 0, 58, 0
2, 67511, Note_on_c, 0, 43, 80
2, 67511, Note_on_c, 0, 55, 80
2, 67592, Note_on_c, 0, 55, 0
2, 67592, Note_on_c, 0, 43, 0
2, 67597, Note_on_c, 0, 70, 0
2, 67597, Note_on_c, 0, 79, 0
2, 67599, Note_on_c, 0, 82, 0
2, 67664, Note_on_c, 0, 39, 80
2, 67666, Note_on_c, 0, 51, 80
2, 67668, Note_on_c, 0, 73, 80
2, 67668, Note_on_c, 0, 79, 80
2, 67680, Note_on_c, 0, 67, 80
2, 67686, Note_on_c, 0, 73, 0
2, 67693, Note_on_c, 0, 39, 0
2, 67693, Note_on_c, 0, 51, 0
2, 67698, Note_on_c, 0, 79, 0
2, 67698, Note_on_c, 0, 67, 0
2, 67717, Note_on_c, 0, 53, 80
2, 67717, Note_on_c, 0, 66, 80
2, 67719, Note_on_c, 0, 73, 80
2, 67719, Note_on_c, 0, 78, 80
2, 67728, Note_on_c, 0, 41, 80
2, 67756, Note_on_c, 0, 41, 0
2, 67758, Note_on_c, 0, 53, 0
2, 67758, Note_on_c, 0, 66, 0
2, 67760, Note_on_c, 0, 73, 0
2, 67760, Note_on_c, 0, 78, 0
2, 67812, Note_on_c, 0, 43, 80
2, 67817, Note_on_c, 0, 55, 80
2, 67817, Note_on_c, 0, 67, 80
2, 67819, Note_on_c, 0, 73, 80
2, 67819, Note_on_c, 0, 79, 80
2, 67856, Note_on_c, 0, 43, 0
2, 67861, Note_on_c, 0, 73, 0
2, 67861, Note_on_c, 0, 55, 0
2, 67861, Note_on_c, 0, 67, 0
2, 67861, Control_c, 0, 64, 127
2, 67863, Note_on_c, 0, 79, 0
2, 67865, Note_on_c, 0, 56, 80
2, 67867, Note_on_c, 0, 77, 80
2, 67876, Note_on_c, 0, 44, 80
2, 67878, Note_on_c, 0, 65, 80
2, 67974, Note_on_c, 0, 56, 0
2, 67993, Control_c, 0, 64, 0
2, 68019, Note_on_c, 0, 51, 80
2, 68019, Note_on_c, 0, 56, 80
2, 68021, Note_on_c, 0, 60, 80
2, 68057, Note_on_c, 0, 44, 0
2, 68059, Note_on_c, 0, 56, 0
2, 68059, Note_on_c, 0, 51, 0
2, 68059, Note_on_c, 0, 60, 0
2, 68061, Note_on_c, 0, 65, 0
2, 68061, Note_on_c, 0, 77, 0
2, 68117, Note_on_c, 0, 42, 80
2, 68119, Note_on_c, 0, 49, 80
2, 68119, Note_on_c, 0, 54, 80
2, 68119, Note_on_c, 0, 58, 80
2, 68121, Note_on_c, 0, 64, 80
2, 68121, Note_on_c, 0, 66, 80
2, 68121, Note_on_c, 0, 70, 80
2, 68222, Note_on_c, 0, 49, 0
2, 68222, Note_on_c, 0, 42, 0
2, 68224, Note_on_c, 0, 54, 0
2, 68224, Note_on_c, 0, 64, 0
2, 68224, Note_on_c, 0, 58, 0
2, 68224, Note_on_c, 0, 70, 0
2, 68224, Note_on_c, 0, 66, 0
2, 68271, Note_on_c, 0, 60, 80
2, 68285, Note_on_c, 0, 72, 80
2, 68323, Note_on_c, 0, 42, 80
2, 68325, Note_on_c, 0, 54, 80
2, 68381, Note_on_c, 0, 72, 0
2, 68381, Note_on_c, 0, 60, 0
2, 68425, Note_on_c, 0, 63, 80
2, 68425, Note_on_c, 0, 65, 80
2, 68425, Note_on_c, 0, 69, 80
2, 68440, Note_on_c, 0, 42, 0
2, 68442, Note_on_c, 0, 54, 0
2, 68470, Control_c, 0, 64, 127
2, 68472, Note_on_c, 0, 41, 80
2, 68473, Note_on_c, 0, 53, 80
2, 68473, Note_on_c, 0, 57, 80
2, 68483, Note_on_c, 0, 48, 80
2, 68525, Note_on_c, 0, 48, 0
2, 68525, Note_on_c, 0, 41, 0
2, 68527, Note_on_c, 0, 63, 0
2, 68527, Note_on_c, 0, 65, 0
2, 68527, Note_on_c, 0, 53, 0
2, 68527, Note_on_c, 0, 57, 0
2, 68529, Note_on_c, 0, 69, 0
2, 68573, Note_on_c, 0, 65, 80
2, 68575, Note_on_c, 0, 77, 80
2, 68598, Control_c, 0, 64, 0
2, 68619, Note_on_c, 0, 77, 0
2, 68619, Note_on_c, 0, 65, 0
2, 68624, Note_on_c, 0, 54, 80
2, 68624, Note_on_c, 0, 58, 80
2, 68624, Note_on_c, 0, 61, 80
2, 68624, Note_on_c, 0, 64, 80
2, 68626, Note_on_c, 0, 76, 80
2, 68668, Note_on_c, 0, 61, 0
2, 68691, Note_on_c, 0, 54, 0
2, 68693, Note_on_c, 0, 58, 0
2, 68693, Note_on_c, 0, 64, 0
2, 68708, Note_on_c, 0, 76, 0
2, 68727, Note_on_c, 0, 65, 80
2, 68727, Note_on_c, 0, 72, 80
2, 68727, Note_on_c, 0, 77, 80
2, 68746, Note_on_c, 0, 72, 0
2, 68772, Note_on_c, 0, 77, 0
2, 68779, Note_on_c, 0, 48, 80
2, 68779, Note_on_c, 0, 55, 80
2, 68779, Note_on_c, 0, 63, 80
2, 68781, Note_on_c, 0, 69, 80
2, 68781, Note_on_c, 0, 72, 80
2, 68781, Note_on_c, 0, 75, 80
2, 68785, Note_on_c, 0, 65, 0
2, 68821, Note_on_c, 0, 48, 0
2, 68823, Note_on_c, 0, 63, 0
2, 68823, Note_on_c, 0, 69, 0
2, 68823, Note_on_c, 0, 72, 0
2, 68825, Note_on_c, 0, 75, 0
2, 68885, Note_on_c, 0, 70, 80
2, 68900, Note_on_c, 0, 82, 80
2, 68916, Note_on_c, 0, 55, 0
2, 68928, Note_on_c, 0, 70, 0
2, 68929, Note_on_c, 0, 82, 0
2, 68934, Note_on_c, 0, 53, 80
2, 68934, Note_on_c, 0, 57, 80
2, 68934, Note_on_c, 0, 60, 80
2, 68934, Note_on_c, 0, 63, 80
2, 68934, Note_on_c, 0, 69, 80
2, 68981, Note_on_c, 0, 63, 0
2, 68981, Note_on_c, 0, 60, 0
2, 68981, Note_on_c, 0, 53, 0
2, 68981, Note_on_c, 0, 57, 0
2, 68996, Note_on_c, 0, 69, 0
2, 69043, Note_on_c, 0, 70, 80
2, 69043, Note_on_c, 0, 77, 80
2, 69043, Note_on_c, 0, 82, 80
2, 69066, Note_on_c, 0, 77, 0
2, 69089, Note_on_c, 0, 70, 0
2, 69089, Control_c, 0, 64, 127
2, 69091, Note_on_c, 0, 82, 0
2, 69091, Note_on_c, 0, 37, 80
2, 69093, Note_on_c, 0, 49, 80
2, 69095, Note_on_c, 0, 68, 80
2, 69095, Note_on_c, 0, 77, 80
2, 69095, Note_on_c, 0, 80, 80
2, 69135, Note_on_c, 0, 37, 0
2, 69187, Note_on_c, 0, 68, 0
2, 69192, Note_on_c, 0, 77, 0
2, 69193, Note_on_c, 0, 80, 0
2, 69216, Control_c, 0, 64, 0
2, 69244, Note_on_c, 0, 58, 80
2, 69246, Note_on_c, 0, 61, 80
2, 69246, Note_on_c, 0, 67, 80
2, 69246, Note_on_c, 0, 79, 80
2, 69287, Note_on_c, 0, 61, 0
2, 69287, Note_on_c, 0, 58, 0
2, 69298, Note_on_c, 0, 67, 0
2, 69300, Note_on_c, 0, 79, 0
2, 69344, Note_on_c, 0, 65, 80
2, 69344, Note_on_c, 0, 77, 80
2, 69372, Note_on_c, 0, 49, 0
2, 69386, Note_on_c, 0, 65, 0
2, 69388, Note_on_c, 0, 77, 0
2, 69390, Note_on_c, 0, 38, 80
2, 69392, Note_on_c, 0, 50, 80
2, 69392, Note_on_c, 0, 70, 80
2, 69394, Note_on_c, 0, 82, 80
2, 69432, Note_on_c, 0, 38, 0
2, 69462, Note_on_c, 0, 82, 0
2, 69462, Note_on_c, 0, 70, 0
2, 69495, Note_on_c, 0, 68, 80
2, 69495, Note_on_c, 0, 80, 80
2, 69537, Note_on_c, 0, 68, 0
2, 69539, Note_on_c, 0, 80, 0
2, 69541, Note_on_c, 0, 53, 80
2, 69541, Note_on_c, 0, 56, 80
2, 69543, Note_on_c, 0, 59, 80
2, 69543, Note_on_c, 0, 62, 80
2, 69543, Note_on_c, 0, 67, 80
2, 69543, Note_on_c, 0, 79, 80
2, 69583, Note_on_c, 0, 62, 0
2, 69583, Note_on_c, 0, 59, 0
2, 69583, Note_on_c, 0, 53, 0
2, 69585, Note_on_c, 0, 56, 0
2, 69597, Note_on_c, 0, 67, 0
2, 69599, Note_on_c, 0, 79, 0
2, 69639, Note_on_c, 0, 65, 80
2, 69641, Note_on_c, 0, 77, 80
2, 69657, Note_on_c, 0, 50, 0
2, 69685, Note_on_c, 0, 77, 0
2, 69687, Note_on_c, 0, 65, 0
2, 69687, Control_c, 0, 64, 127
2, 69689, Note_on_c, 0, 51, 80
2, 69689, Note_on_c, 0, 60, 80
2, 69691, Note_on_c, 0, 68, 80
2, 69691, Note_on_c, 0, 72, 80
2, 69691, Note_on_c, 0, 75, 80
2, 69691, Note_on_c, 0, 80, 80
2, 69770, Note_on_c, 0, 60, 0
2, 69770, Note_on_c, 0, 51, 0
2, 69775, Note_on_c, 0, 75, 0
2, 69775, Note_on_c, 0, 72, 0
2, 69775, Note_on_c, 0, 80, 0
2, 69775, Note_on_c, 0, 68, 0
2, 69794, Control_c, 0, 64, 0
2, 69841, Note_on_c, 0, 49, 80
2, 69846, Note_on_c, 0, 58, 80
2, 69846, Note_on_c, 0, 67, 80
2, 69846, Note_on_c, 0, 72, 80
2, 69848, Note_on_c, 0, 75, 80
2, 69848, Note_on_c, 0, 79, 80
2, 69876, Note_on_c, 0, 79, 0
2, 69876, Note_on_c, 0, 72, 0
2, 69876, Note_on_c, 0, 67, 0
2, 69876, Note_on_c, 0, 75, 0
2, 69941, Note_on_c, 0, 49, 0
2, 69943, Note_on_c, 0, 58, 0
2, 69950, Note_on_c, 0, 65, 80
2, 69950, Note_on_c, 0, 72, 80
2, 69950, Note_on_c, 0, 75, 80
2, 69950, Note_on_c, 0, 77, 80
2, 70002, Note_on_c, 0, 48, 80
2, 70002, Note_on_c, 0, 57, 80
2, 70083, Note_on_c, 0, 57, 0
2, 70083, Note_on_c, 0, 48, 0
2, 70161, Note_on_c, 0, 53, 80
2, 70161, Note_on_c, 0, 57, 80
2, 70161, Note_on_c, 0, 60, 80
2, 70161, Note_on_c, 0, 63, 80
2, 70201, Note_on_c, 0, 53, 0
2, 70203, Note_on_c, 0, 65, 0
2, 70203, Note_on_c, 0, 57, 0
2, 70203, Note_on_c, 0, 72, 0
2, 70203, Note_on_c, 0, 77, 0
2, 70203, Note_on_c, 0, 75, 0
2, 70203, Note_on_c, 0, 60, 0
2, 70203, Note_on_c, 0, 63, 0
2, 70262, Note_on_c, 0, 49, 80
2, 70262, Note_on_c, 0, 61, 80
2, 70304, Note_on_c, 0, 49, 0
2, 70306, Note_on_c, 0, 61, 0
2, 70308, Control_c, 0, 64, 127
2, 70313, Note_on_c, 0, 50, 80
2, 70315, Note_on_c, 0, 62, 80
2, 70315, Note_on_c, 0, 70, 80
2, 70315, Note_on_c, 0, 74, 80
2, 70315, Note_on_c, 0, 77, 80
2, 70315, Note_on_c, 0, 82, 80
2, 70352, Note_on_c, 0, 70, 0
2, 70354, Note_on_c, 0, 77, 0
2, 70354, Note_on_c, 0, 74, 0
2, 70354, Note_on_c, 0, 82, 0
2, 70415, Note_on_c, 0, 68, 80
2, 70415, Note_on_c, 0, 74, 80
2, 70415, Note_on_c, 0, 77, 80
2, 70415, Note_on_c, 0, 80, 80
2, 70416, Note_on_c, 0, 50, 0
2, 70418, Note_on_c, 0, 62, 0
2, 70425, Control_c, 0, 64, 0
2, 70463, Note_on_c, 0, 53, 80
2, 70463, Note_on_c, 0, 58, 80
2, 70464, Note_on_c, 0, 62, 80
2, 70492, Note_on_c, 0, 77, 0
2, 70492, Note_on_c, 0, 68, 0
2, 70492, Note_on_c, 0, 74, 0
2, 70492, Note_on_c, 0, 80, 0
2, 70546, Note_on_c, 0, 62, 0
2, 70546, Note_on_c, 0, 53, 0
2, 70546, Note_on_c, 0, 58, 0
2, 70565, Note_on_c, 0, 65, 80
2, 70565, Note_on_c, 0, 73, 80
2, 70567, Note_on_c, 0, 77, 80
2, 70584, Note_on_c, 0, 73, 0
2, 70609, Note_on_c, 0, 65, 0
2, 70611, Note_on_c, 0, 77, 0
2, 70616, Note_on_c, 0, 51, 80
2, 70616, Note_on_c, 0, 55, 80
2, 70616, Note_on_c, 0, 58, 80
2, 70618, Note_on_c, 0, 61, 80
2, 70618, Note_on_c, 0, 63, 80
2, 70618, Note_on_c, 0, 73, 80
2, 70618, Note_on_c, 0, 75, 80
2, 70672, Note_on_c, 0, 73, 0
2, 70672, Note_on_c, 0, 61, 0
2, 70672, Note_on_c, 0, 55, 0
2, 70672, Note_on_c, 0, 58, 0
2, 70672, Note_on_c, 0, 51, 0
2, 70672, Note_on_c, 0, 63, 0
2, 70674, Note_on_c, 0, 75, 0
2, 70721, Note_on_c, 0, 64, 80
2, 70721, Note_on_c, 0, 73, 80
2, 70721, Note_on_c, 0, 76, 80
2, 70742, Note_on_c, 0, 73, 0
2, 70752, Note_on_c, 0, 64, 0
2, 70753, Note_on_c, 0, 76, 0
2, 70773, Note_on_c, 0, 39, 80
2, 70773, Note_on_c, 0, 43, 80
2, 70773, Note_on_c, 0, 46, 80
2, 70773, Note_on_c, 0, 51, 80
2, 70775, Note_on_c, 0, 65, 80
2, 70775, Note_on_c, 0, 73, 80
2, 70775, Note_on_c, 0, 77, 80
2, 70828, Note_on_c, 0, 77, 0
2, 70828, Note_on_c, 0, 65, 0
2, 70828, Note_on_c, 0, 73, 0
2, 70854, Note_on_c, 0, 39, 0
2, 70854, Note_on_c, 0, 43, 0
2, 70856, Note_on_c, 0, 46, 0
2, 70856, Note_on_c, 0, 51, 0
2, 70875, Note_on_c, 0, 67, 80
2, 70877, Note_on_c, 0, 75, 80
2, 70877, Note_on_c, 0, 79, 80
2, 70898, Note_on_c, 0, 75, 0
2, 70908, Note_on_c, 0, 67, 0
2, 70913, Note_on_c, 0, 79, 0
2, 70924, Control_c, 0, 64, 127
2, 70924, Note_on_c, 0, 75, 80
2, 70926, Note_on_c, 0, 44, 80
2, 70926, Note_on_c, 0, 48, 80
2, 70926, Note_on_c, 0, 51, 80
2, 70928, Note_on_c, 0, 68, 80
2, 70928, Note_on_c, 0, 78, 80
2, 70928, Note_on_c, 0, 80, 80
2, 70940, Note_on_c, 0, 56, 80
2, 70942, Note_on_c, 0, 72, 80
2, 70969, Note_on_c, 0, 72, 0
2, 70969, Note_on_c, 0, 80, 0
2, 70969, Note_on_c, 0, 75, 0
2, 70969, Note_on_c, 0, 68, 0
2, 70969, Note_on_c, 0, 78, 0
2, 70981, Note_on_c, 0, 51, 0
2, 70981, Note_on_c, 0, 56, 0
2, 70981, Note_on_c, 0, 48, 0
2, 70981, Note_on_c, 0, 44, 0
2, 71023, Note_on_c, 0, 42, 80
2, 71025, Note_on_c, 0, 54, 80
2, 71025, Note_on_c, 0, 80, 80
2, 71037, Control_c, 0, 64, 0
2, 71051, Note_on_c, 0, 54, 0
2, 71051, Note_on_c, 0, 42, 0
2, 71053, Note_on_c, 0, 80, 0
2, 71072, Note_on_c, 0, 40, 80
2, 71072, Note_on_c, 0, 44, 80
2, 71072, Note_on_c, 0, 47, 80
2, 71072, Note_on_c, 0, 52, 80
2, 71074, Note_on_c, 0, 73, 80
2, 71074, Note_on_c, 0, 79, 80
2, 71074, Note_on_c, 0, 82, 80
2, 71074, Note_on_c, 0, 85, 80
2, 71114, Note_on_c, 0, 52, 0
2, 71114, Note_on_c, 0, 47, 0
2, 71114, Note_on_c, 0, 40, 0
2, 71114, Note_on_c, 0, 44, 0
2, 71116, Note_on_c, 0, 73, 0
2, 71116, Note_on_c, 0, 82, 0
2, 71116, Note_on_c, 0, 79, 0
2, 71118, Note_on_c, 0, 85, 0
2, 71170, Note_on_c, 0, 40, 80
2, 71170, Note_on_c, 0, 44, 80
2, 71172, Note_on_c, 0, 47, 80
2, 71172, Note_on_c, 0, 52, 80
2, 71172, Note_on_c, 0, 73, 80
2, 71172, Note_on_c, 0, 79, 80
2, 71174, Note_on_c, 0, 82, 80
2, 71174, Note_on_c, 0, 85, 80
2, 71190, Note_on_c, 0, 73, 0
2, 71190, Note_on_c, 0, 47, 0
2, 71190, Note_on_c, 0, 40, 0
2, 71190, Note_on_c, 0, 44, 0
2, 71192, Note_on_c, 0, 52, 0
2, 71192, Note_on_c, 0, 85, 0
2, 71192, Note_on_c, 0, 79, 0
2, 71194, Note_on_c, 0, 82, 0
2, 71217, Note_on_c, 0, 40, 80
2, 71219, Note_on_c, 0, 44, 80
2, 71219, Note_on_c, 0, 47, 80
2, 71219, Note_on_c, 0, 52, 80
2, 71219, Note_on_c, 0, 73, 80
2, 71221, Note_on_c, 0, 79, 80
2, 71221, Note_on_c, 0, 82, 80
2, 71221, Note_on_c, 0, 85, 80
2, 71265, Note_on_c, 0, 73, 0
2, 71265, Note_on_c, 0, 52, 0
2, 71265, Note_on_c, 0, 40, 0
2, 71265, Note_on_c, 0, 47, 0
2, 71265, Note_on_c, 0, 44, 0
2, 71267, Note_on_c, 0, 85, 0
2, 71267, Note_on_c, 0, 82, 0
2, 71267, Note_on_c, 0, 79, 0
2, 71321, Note_on_c, 0, 40, 80
2, 71321, Note_on_c, 0, 44, 80
2, 71321, Note_on_c, 0, 47, 80
2, 71321, Note_on_c, 0, 52, 80
2, 71323, Note_on_c, 0, 73, 80
2, 71325, Note_on_c, 0, 79, 80
2, 71325, Note_on_c, 0, 82, 80
2, 71325, Note_on_c, 0, 85, 80
2, 71339, Note_on_c, 0, 40, 0
2, 71341, Note_on_c, 0, 73, 0
2, 71341, Note_on_c, 0, 44, 0
2, 71341, Note_on_c, 0, 52, 0
2, 71341, Note_on_c, 0, 47, 0
2, 71343, Note_on_c, 0, 85, 0
2, 71343, Note_on_c, 0, 82, 0
2, 71343, Note_on_c, 0, 79, 0
2, 71371, Note_on_c, 0, 40, 80
2, 71371, Note_on_c, 0, 44, 80
2, 71371, Note_on_c, 0, 47, 80
2, 71371, Note_on_c, 0, 52, 80
2, 71376, Note_on_c, 0, 73, 80
2, 71376, Note_on_c, 0, 79, 80
2, 71376, Note_on_c, 0, 82, 80
2, 71376, Note_on_c, 0, 85, 80
2, 71416, Note_on_c, 0, 47, 0
2, 71416, Note_on_c, 0, 40, 0
2, 71416, Note_on_c, 0, 44, 0
2, 71418, Note_on_c, 0, 52, 0
2, 71418, Note_on_c, 0, 73, 0
2, 71420, Note_on_c, 0, 85, 0
2, 71420, Note_on_c, 0, 82, 0
2, 71420, Note_on_c, 0, 79, 0
2, 71476, Note_on_c, 0, 40, 80
2, 71476, Note_on_c, 0, 44, 80
2, 71476, Note_on_c, 0, 47, 80
2, 71476, Note_on_c, 0, 52, 80
2, 71476, Note_on_c, 0, 73, 80
2, 71481, Note_on_c, 0, 79, 80
2, 71481, Note_on_c, 0, 82, 80
2, 71481, Note_on_c, 0, 85, 80
2, 71500, Note_on_c, 0, 82, 0
2, 71521, Note_on_c, 0, 47, 0
2, 71523, Note_on_c, 0, 73, 0
2, 71523, Note_on_c, 0, 40, 0
2, 71523, Note_on_c, 0, 44, 0
2, 71525, Note_on_c, 0, 85, 0
2, 71525, Note_on_c, 0, 79, 0
2, 71527, Control_c, 0, 64, 127
2, 71529, Note_on_c, 0, 41, 80
2, 71529, Note_on_c, 0, 53, 80
2, 71531, Note_on_c, 0, 74, 80
2, 71533, Note_on_c, 0, 52, 0
2, 71533, Note_on_c, 0, 80, 80
2, 71533, Note_on_c, 0, 82, 80
2, 71533, Note_on_c, 0, 86, 80
2, 71573, Note_on_c, 0, 41, 0
2, 71590, Note_on_c, 0, 82, 0
2, 71590, Note_on_c, 0, 80, 0
2, 71590, Note_on_c, 0, 74, 0
2, 71590, Note_on_c, 0, 86, 0
2, 71639, Note_on_c, 0, 72, 80
2, 71639, Note_on_c, 0, 80, 80
2, 71639, Note_on_c, 0, 84, 80
2, 71640, Control_c, 0, 64, 0
2, 71660, Note_on_c, 0, 80, 0
2, 71683, Note_on_c, 0, 84, 0
2, 71683, Note_on_c, 0, 72, 0
2, 71689, Note_on_c, 0, 56, 80
2, 71689, Note_on_c, 0, 58, 80
2, 71689, Note_on_c, 0, 62, 80
2, 71689, Note_on_c, 0, 65, 80
2, 71689, Note_on_c, 0, 70, 80
2, 71689, Note_on_c, 0, 80, 80
2, 71689, Note_on_c, 0, 82, 80
2, 71732, Note_on_c, 0, 65, 0
2, 71732, Note_on_c, 0, 62, 0
2, 71732, Note_on_c, 0, 58, 0
2, 71732, Note_on_c, 0, 56, 0
2, 71734, Note_on_c, 0, 80, 0
2, 71734, Note_on_c, 0, 82, 0
2, 71734, Note_on_c, 0, 70, 0
2, 71794, Note_on_c, 0, 72, 80
2, 71794, Note_on_c, 0, 80, 80
2, 71794, Note_on_c, 0, 84, 80
2, 71846, Note_on_c, 0, 34, 80
2, 71890, Note_on_c, 0, 34, 0
2, 72000, Note_on_c, 0, 56, 80
2, 72000, Note_on_c, 0, 58, 80
2, 72000, Note_on_c, 0, 62, 80
2, 72000, Note_on_c, 0, 65, 80
2, 72041, Note_on_c, 0, 65, 0
2, 72041, Note_on_c, 0, 62, 0
2, 72041, Note_on_c, 0, 56, 0
2, 72041, Note_on_c, 0, 58, 0
2, 72093, Note_on_c, 0, 84, 0
2, 72093, Note_on_c, 0, 80, 0
2, 72093, Note_on_c, 0, 72, 0
2, 72099, Note_on_c, 0, 45, 80
2, 72104, Note_on_c, 0, 53, 0
2, 72142, Note_on_c, 0, 45, 0
2, 72146, Control_c, 0, 64, 127
2, 72148, Note_on_c, 0, 41, 80
2, 72148, Note_on_c, 0, 50, 80
2, 72148, Note_on_c, 0, 74, 80
2, 72148, Note_on_c, 0, 82, 80
2, 72148, Note_on_c, 0, 86, 80
2, 72189, Note_on_c, 0, 41, 0
2, 72191, Note_on_c, 0, 82, 0
2, 72191, Note_on_c, 0, 86, 0
2, 72191, Note_on_c, 0, 74, 0
2, 72251, Note_on_c, 0, 75, 80
2, 72251, Note_on_c, 0, 82, 80
2, 72251, Note_on_c, 0, 87, 80
2, 72265, Control_c, 0, 64, 0
2, 72296, Note_on_c, 0, 87, 0
2, 72296, Note_on_c, 0, 82, 0
2, 72296, Note_on_c, 0, 75, 0
2, 72301, Note_on_c, 0, 56, 80
2, 72301, Note_on_c, 0, 58, 80
2, 72301, Note_on_c, 0, 62, 80
2, 72301, Note_on_c, 0, 65, 80
2, 72301, Note_on_c, 0, 72, 80
2, 72303, Note_on_c, 0, 80, 80
2, 72303, Note_on_c, 0, 84, 80
2, 72343, Note_on_c, 0, 84, 0
2, 72343, Note_on_c, 0, 80, 0
2, 72343, Note_on_c, 0, 65, 0
2, 72343, Note_on_c, 0, 56, 0
2, 72343, Note_on_c, 0, 58, 0
2, 72343, Note_on_c, 0, 62, 0
2, 72343, Note_on_c, 0, 72, 0
2, 72402, Note_on_c, 0, 74, 80
2, 72402, Note_on_c, 0, 80, 80
2, 72402, Note_on_c, 0, 86, 80
2, 72423, Note_on_c, 0, 80, 0
2, 72446, Note_on_c, 0, 86, 0
2, 72448, Note_on_c, 0, 74, 0
2, 72453, Note_on_c, 0, 34, 80
2, 72455, Note_on_c, 0, 70, 80
2, 72455, Note_on_c, 0, 80, 80
2, 72455, Note_on_c, 0, 82, 80
2, 72497, Note_on_c, 0, 82, 0
2, 72497, Note_on_c, 0, 70, 0
2, 72497, Note_on_c, 0, 80, 0
2, 72497, Note_on_c, 0, 34, 0
2, 72555, Note_on_c, 0, 80, 80
2, 72555, Note_on_c, 0, 83, 80
2, 72572, Note_on_c, 0, 71, 80
2, 72576, Note_on_c, 0, 80, 0
2, 72602, Note_on_c, 0, 71, 0
2, 72602, Note_on_c, 0, 83, 0
2, 72607, Note_on_c, 0, 58, 80
2, 72607, Note_on_c, 0, 65, 80
2, 72607, Note_on_c, 0, 72, 80
2, 72607, Note_on_c, 0, 80, 80
2, 72609, Note_on_c, 0, 56, 80
2, 72609, Note_on_c, 0, 62, 80
2, 72609, Note_on_c, 0, 84, 80
2, 72649, Note_on_c, 0, 84, 0
2, 72649, Note_on_c, 0, 80, 0
2, 72651, Note_on_c, 0, 56, 0
2, 72651, Note_on_c, 0, 58, 0
2, 72651, Note_on_c, 0, 65, 0
2, 72651, Note_on_c, 0, 72, 0
2, 72651, Note_on_c, 0, 62, 0
2, 72710, Note_on_c, 0, 73, 80
2, 72710, Note_on_c, 0, 79, 80
2, 72710, Note_on_c, 0, 82, 80
2, 72710, Note_on_c, 0, 85, 80
2, 72731, Note_on_c, 0, 82, 0
2, 72743, Note_on_c, 0, 79, 0
2, 72743, Note_on_c, 0, 50, 0
2, 72757, Note_on_c, 0, 73, 0
2, 72759, Note_on_c, 0, 85, 0
2, 72764, Note_on_c, 0, 74, 80
2, 72764, Note_on_c, 0, 79, 80
2, 72764, Note_on_c, 0, 82, 80
2, 72764, Note_on_c, 0, 86, 80
2, 72766, Control_c, 0, 64, 127
2, 72766, Note_on_c, 0, 39, 80
2, 72766, Note_on_c, 0, 51, 80
2, 72806, Note_on_c, 0, 39, 0
2, 72806, Note_on_c, 0, 86, 0
2, 72806, Note_on_c, 0, 82, 0
2, 72806, Note_on_c, 0, 74, 0
2, 72806, Note_on_c, 0, 79, 0
2, 72864, Note_on_c, 0, 72, 80
2, 72864, Note_on_c, 0, 79, 80
2, 72864, Note_on_c, 0, 84, 80
2, 72869, Control_c, 0, 64, 0
2, 72886, Note_on_c, 0, 79, 0
2, 72907, Note_on_c, 0, 84, 0
2, 72909, Note_on_c, 0, 72, 0
2, 72918, Note_on_c, 0, 58, 80
2, 72918, Note_on_c, 0, 63, 80
2, 72918, Note_on_c, 0, 67, 80
2, 72918, Note_on_c, 0, 70, 80
2, 72918, Note_on_c, 0, 79, 80
2, 72918, Note_on_c, 0, 82, 80
2, 72960, Note_on_c, 0, 82, 0
2, 72960, Note_on_c, 0, 67, 0
2, 72960, Note_on_c, 0, 58, 0
2, 72960, Note_on_c, 0, 79, 0
2, 72962, Note_on_c, 0, 51, 0
2, 72962, Note_on_c, 0, 70, 0
2, 72962, Note_on_c, 0, 63, 0
2, 73023, Note_on_c, 0, 72, 80
2, 73023, Note_on_c, 0, 79, 80
2, 73023, Note_on_c, 0, 82, 80
2, 73023, Note_on_c, 0, 84, 80
2, 73075, Note_on_c, 0, 58, 80
2, 73077, Note_on_c, 0, 46, 80
2, 73177, Note_on_c, 0, 50, 80
2, 73177, Note_on_c, 0, 62, 80
2, 73182, Note_on_c, 0, 46, 0
2, 73182, Note_on_c, 0, 58, 0
2, 73285, Note_on_c, 0, 62, 0
2, 73285, Note_on_c, 0, 50, 0
2, 73329, Note_on_c, 0, 51, 80
2, 73329, Note_on_c, 0, 63, 80
2, 73362, Note_on_c, 0, 63, 0
2, 73362, Note_on_c, 0, 51, 0
2, 73383, Note_on_c, 0, 66, 80
2, 73385, Control_c, 0, 64, 127
2, 73385, Note_on_c, 0, 54, 80
2, 73416, Note_on_c, 0, 54, 0
2, 73416, Note_on_c, 0, 79, 0
2, 73416, Note_on_c, 0, 82, 0
2, 73416, Note_on_c, 0, 84, 0
2, 73416, Note_on_c, 0, 66, 0
2, 73416, Note_on_c, 0, 72, 0
2, 73488, Note_on_c, 0, 67, 80
2, 73488, Note_on_c, 0, 75, 80
2, 73488, Note_on_c, 0, 79, 80
2, 73488, Note_on_c, 0, 82, 80
2, 73488, Note_on_c, 0, 87, 80
2, 73490, Note_on_c, 0, 55, 80
2, 73492, Control_c, 0, 64, 0
2, 73593, Note_on_c, 0, 55, 0
2, 73593, Note_on_c, 0, 75, 0
2, 73593, Note_on_c, 0, 79, 0
2, 73593, Note_on_c, 0, 67, 0
2, 73593, Note_on_c, 0, 87, 0
2, 73593, Note_on_c, 0, 82, 0
2, 73640, Note_on_c, 0, 51, 80
2, 73640, Note_on_c, 0, 63, 80
2, 73640, Note_on_c, 0, 72, 80
2, 73640, Note_on_c, 0, 79, 80
2, 73640, Note_on_c, 0, 82, 80
2, 73640, Note_on_c, 0, 84, 80
2, 73656, Note_on_c, 0, 82, 0
2, 73658, Note_on_c, 0, 79, 0
2, 73684, Note_on_c, 0, 72, 0
2, 73684, Note_on_c, 0, 51, 0
2, 73684, Note_on_c, 0, 84, 0
2, 73684, Note_on_c, 0, 63, 0
2, 73689, Note_on_c, 0, 86, 80
2, 73691, Note_on_c, 0, 50, 80
2, 73691, Note_on_c, 0, 74, 80
2, 73691, Note_on_c, 0, 79, 80
2, 73691, Note_on_c, 0, 82, 80
2, 73707, Note_on_c, 0, 62, 80
2, 73733, Note_on_c, 0, 82, 0
2, 73735, Note_on_c, 0, 79, 0
2, 73735, Note_on_c, 0, 74, 0
2, 73737, Note_on_c, 0, 86, 0
2, 73789, Note_on_c, 0, 75, 80
2, 73789, Note_on_c, 0, 87, 80
2, 73796, Note_on_c, 0, 62, 0
2, 73798, Note_on_c, 0, 50, 0
2, 73833, Note_on_c, 0, 75, 0
2, 73833, Note_on_c, 0, 87, 0
2, 73840, Note_on_c, 0, 79, 80
2, 73840, Note_on_c, 0, 82, 80
2, 73840, Note_on_c, 0, 86, 80
2, 73842, Note_on_c, 0, 48, 80
2, 73842, Note_on_c, 0, 60, 80
2, 73842, Note_on_c, 0, 74, 80
2, 73884, Note_on_c, 0, 74, 0
2, 73884, Note_on_c, 0, 82, 0
2, 73884, Note_on_c, 0, 79, 0
2, 73884, Note_on_c, 0, 86, 0
2, 73947, Note_on_c, 0, 72, 80
2, 73947, Note_on_c, 0, 84, 80
2, 73952, Note_on_c, 0, 48, 0
2, 73952, Note_on_c, 0, 60, 0
2, 73988, Control_c, 0, 64, 127
2, 73990, Note_on_c, 0, 72, 0
2, 73990, Note_on_c, 0, 84, 0
2, 73994, Note_on_c, 0, 86, 80
2, 73996, Note_on_c, 0, 53, 80
2, 73996, Note_on_c, 0, 74, 80
2, 73996, Note_on_c, 0, 80, 80
2, 73998, Note_on_c, 0, 41, 80
2, 74042, Note_on_c, 0, 41, 0
2, 74052, Note_on_c, 0, 86, 0
2, 74054, Note_on_c, 0, 80, 0
2, 74054, Note_on_c, 0, 74, 0
2, 74096, Control_c, 0, 64, 0
2, 74098, Note_on_c, 0, 84, 80
2, 74100, Note_on_c, 0, 72, 80
2, 74100, Note_on_c, 0, 80, 80
2, 74121, Note_on_c, 0, 80, 0
2, 74147, Note_on_c, 0, 72, 0
2, 74154, Note_on_c, 0, 56, 80
2, 74154, Note_on_c, 0, 62, 80
2, 74154, Note_on_c, 0, 65, 80
2, 74154, Note_on_c, 0, 68, 80
2, 74154, Note_on_c, 0, 74, 80
2, 74154, Note_on_c, 0, 80, 80
2, 74156, Note_on_c, 0, 58, 80
2, 74158, Note_on_c, 0, 84, 0
2, 74198, Note_on_c, 0, 65, 0
2, 74198, Note_on_c, 0, 62, 0
2, 74198, Note_on_c, 0, 56, 0
2, 74200, Note_on_c, 0, 58, 0
2, 74209, Note_on_c, 0, 80, 0
2, 74209, Note_on_c, 0, 68, 0
2, 74209, Note_on_c, 0, 74, 0
2, 74254, Note_on_c, 0, 79, 80
2, 74256, Note_on_c, 0, 67, 80
2, 74300, Note_on_c, 0, 67, 0
2, 74300, Note_on_c, 0, 79, 0
2, 74304, Note_on_c, 0, 74, 80
2, 74304, Note_on_c, 0, 77, 80
2, 74306, Note_on_c, 0, 34, 80
2, 74306, Note_on_c, 0, 56, 80
2, 74306, Note_on_c, 0, 65, 80
2, 74349, Note_on_c, 0, 56, 0
2, 74351, Note_on_c, 0, 34, 0
2, 74362, Note_on_c, 0, 77, 0
2, 74362, Note_on_c, 0, 74, 0
2, 74364, Note_on_c, 0, 65, 0
2, 74408, Note_on_c, 0, 70, 80
2, 74408, Note_on_c, 0, 82, 80
2, 74450, Note_on_c, 0, 82, 0
2, 74450, Note_on_c, 0, 70, 0
2, 74455, Note_on_c, 0, 65, 80
2, 74455, Note_on_c, 0, 75, 80
2, 74455, Note_on_c, 0, 80, 80
2, 74455, Note_on_c, 0, 87, 80
2, 74457, Note_on_c, 0, 56, 80
2, 74457, Note_on_c, 0, 58, 80
2, 74457, Note_on_c, 0, 62, 80
2, 74499, Note_on_c, 0, 62, 0
2, 74499, Note_on_c, 0, 56, 0
2, 74499, Note_on_c, 0, 80, 0
2, 74499, Note_on_c, 0, 65, 0
2, 74499, Note_on_c, 0, 75, 0
2, 74499, Note_on_c, 0, 87, 0
2, 74501, Note_on_c, 0, 58, 0
2, 74558, Note_on_c, 0, 72, 80
2, 74558, Note_on_c, 0, 84, 80
2, 74577, Note_on_c, 0, 53, 0
2, 74589, Note_on_c, 0, 84, 0
2, 74589, Note_on_c, 0, 72, 0
2, 74610, Note_on_c, 0, 74, 80
2, 74610, Note_on_c, 0, 80, 80
2, 74610, Note_on_c, 0, 86, 80
2, 74612, Note_on_c, 0, 41, 80
2, 74612, Note_on_c, 0, 50, 80
2, 74614, Control_c, 0, 64, 127
2, 74637, Note_on_c, 0, 86, 0
2, 74639, Note_on_c, 0, 74, 0
2, 74639, Note_on_c, 0, 80, 0
2, 74655, Note_on_c, 0, 41, 0
2, 74707, Note_on_c, 0, 82, 80
2, 74712, Note_on_c, 0, 70, 80
2, 74731, Control_c, 0, 64, 0
2, 74752, Note_on_c, 0, 82, 0
2, 74754, Note_on_c, 0, 70, 0
2, 74759, Note_on_c, 0, 62, 80
2, 74759, Note_on_c, 0, 65, 80
2, 74759, Note_on_c, 0, 71, 80
2, 74759, Note_on_c, 0, 80, 80
2, 74759, Note_on_c, 0, 83, 80
2, 74763, Note_on_c, 0, 56, 80
2, 74763, Note_on_c, 0, 58, 80
2, 74801, Note_on_c, 0, 83, 0
2, 74801, Note_on_c, 0, 71, 0
2, 74801, Note_on_c, 0, 65, 0
2, 74801, Note_on_c, 0, 62, 0
2, 74801, Note_on_c, 0, 80, 0
2, 74803, Note_on_c, 0, 58, 0
2, 74803, Note_on_c, 0, 50, 0
2, 74803, Note_on_c, 0, 56, 0
2, 74861, Note_on_c, 0, 72, 80
2, 74861, Note_on_c, 0, 74, 80
2, 74861, Note_on_c, 0, 80, 80
2, 74861, Note_on_c, 0, 84, 80
2, 74910, Note_on_c, 0, 58, 80
2, 74912, Note_on_c, 0, 46, 80
2, 74950, Note_on_c, 0, 46, 0
2, 75013, Note_on_c, 0, 58, 0
2, 75060, Note_on_c, 0, 58, 80
2, 75060, Note_on_c, 0, 62, 80
2, 75060, Note_on_c, 0, 65, 80
2, 75062, Note_on_c, 0, 56, 80
2, 75104, Note_on_c, 0, 65, 0
2, 75104, Note_on_c, 0, 62, 0
2, 75104, Note_on_c, 0, 58, 0
2, 75165, Note_on_c, 0, 80, 0
2, 75165, Note_on_c, 0, 84, 0
2, 75165, Note_on_c, 0, 72, 0
2, 75165, Note_on_c, 0, 74, 0
2, 75179, Note_on_c, 0, 56, 0
2, 75212, Note_on_c, 0, 63, 80
2, 75212, Note_on_c, 0, 75, 80
2, 75212, Note_on_c, 0, 79, 80
2, 75212, Note_on_c, 0, 82, 80
2, 75212, Note_on_c, 0, 87, 80
2, 75214, Note_on_c, 0, 51, 80
2, 75214, Note_on_c, 0, 55, 80
2, 75218, Control_c, 0, 64, 127
2, 75303, Note_on_c, 0, 87, 0
2, 75303, Note_on_c, 0, 82, 0
2, 75303, Note_on_c, 0, 79, 0
2, 75303, Note_on_c, 0, 75, 0
2, 75305, Note_on_c, 0, 63, 0
2, 75305, Note_on_c, 0, 55, 0
2, 75305, Note_on_c, 0, 51, 0
2, 75331, Control_c, 0, 64, 0
2, 75464, Note_on_c, 0, 57, 80
2, 75464, Note_on_c, 0, 66, 80
2, 75511, Note_on_c, 0, 66, 0
2, 75511, Note_on_c, 0, 57, 0
2, 75518, Note_on_c, 0, 58, 80
2, 75518, Note_on_c, 0, 67, 80
2, 75600, Note_on_c, 0, 67, 0
2, 75600, Note_on_c, 0, 58, 0
2, 75621, Note_on_c, 0, 57, 80
2, 75621, Note_on_c, 0, 66, 80
2, 75665, Note_on_c, 0, 66, 0
2, 75667, Note_on_c, 0, 57, 0
2, 75673, Note_on_c, 0, 58, 80
2, 75673, Note_on_c, 0, 67, 80
2, 75786, Note_on_c, 0, 67, 0
2, 75788, Note_on_c, 0, 58, 0
2, 75832, Note_on_c, 0, 60, 80
2, 75832, Note_on_c, 0, 63, 80
2, 75832, Note_on_c, 0, 69, 80
2, 75834, Control_c, 0, 64, 127
2, 75890, Note_on_c, 0, 69, 0
2, 75890, Note_on_c, 0, 63, 0
2, 75890, Note_on_c, 0, 60, 0
2, 75890, Control_c, 0, 64, 0
2, 75937, Note_on_c, 0, 70, 80
2, 75939, Note_on_c, 0, 61, 80
2, 75939, Note_on_c, 0, 63, 80
2, 76050, Note_on_c, 0, 63, 0
2, 76050, Note_on_c, 0, 61, 0
2, 76050, Note_on_c, 0, 70, 0
2, 76094, Note_on_c, 0, 57, 80
2, 76138, Note_on_c, 0, 57, 0
2, 76145, Note_on_c, 0, 58, 80
2, 76145, Note_on_c, 0, 67, 80
2, 76226, Note_on_c, 0, 67, 0
2, 76226, Note_on_c, 0, 58, 0
2, 76249, Note_on_c, 0, 57, 80
2, 76292, Note_on_c, 0, 57, 0
2, 76298, Note_on_c, 0, 58, 80
2, 76298, Note_on_c, 0, 67, 80
2, 76406, Note_on_c, 0, 67, 0
2, 76406, Note_on_c, 0, 58, 0
2, 76446, Control_c, 0, 64, 127
2, 76453, Note_on_c, 0, 74, 80
2, 76453, Note_on_c, 0, 80, 80
2, 76453, Note_on_c, 0, 82, 80
2, 76453, Note_on_c, 0, 86, 80
2, 76455, Note_on_c, 0, 41, 80
2, 76455, Note_on_c, 0, 53, 80
2, 76497, Note_on_c, 0, 41, 0
2, 76507, Note_on_c, 0, 86, 0
2, 76507, Note_on_c, 0, 82, 0
2, 76507, Note_on_c, 0, 74, 0
2, 76507, Note_on_c, 0, 80, 0
2, 76551, Note_on_c, 0, 80, 80
2, 76551, Note_on_c, 0, 84, 80
2, 76553, Note_on_c, 0, 72, 80
2, 76560, Control_c, 0, 64, 0
2, 76569, Note_on_c, 0, 80, 0
2, 76595, Note_on_c, 0, 72, 0
2, 76595, Note_on_c, 0, 84, 0
2, 76602, Note_on_c, 0, 70, 80
2, 76602, Note_on_c, 0, 80, 80
2, 76602, Note_on_c, 0, 82, 80
2, 76604, Note_on_c, 0, 56, 80
2, 76604, Note_on_c, 0, 58, 80
2, 76604, Note_on_c, 0, 62, 80
2, 76604, Note_on_c, 0, 65, 80
2, 76644, Note_on_c, 0, 82, 0
2, 76646, Note_on_c, 0, 65, 0
2, 76646, Note_on_c, 0, 58, 0
2, 76646, Note_on_c, 0, 70, 0
2, 76646, Note_on_c, 0, 80, 0
2, 76646, Note_on_c, 0, 56, 0
2, 76646, Note_on_c, 0, 62, 0
2, 76704, Note_on_c, 0, 71, 80
2, 76704, Note_on_c, 0, 83, 80
2, 76747, Note_on_c, 0, 83, 0
2, 76747, Note_on_c, 0, 71, 0
2, 76756, Note_on_c, 0, 72, 80
2, 76756, Note_on_c, 0, 74, 80
2, 76756, Note_on_c, 0, 80, 80
2, 76756, Note_on_c, 0, 84, 80
2, 76758, Note_on_c, 0, 34, 80
2, 76802, Note_on_c, 0, 34, 0
2, 76910, Note_on_c, 0, 56, 80
2, 76910, Note_on_c, 0, 58, 80
2, 76910, Note_on_c, 0, 62, 80
2, 76910, Note_on_c, 0, 65, 80
2, 76952, Note_on_c, 0, 65, 0
2, 76952, Note_on_c, 0, 62, 0
2, 76952, Note_on_c, 0, 58, 0
2, 76952, Note_on_c, 0, 56, 0
2, 76990, Note_on_c, 0, 84, 0
2, 76990, Note_on_c, 0, 74, 0
2, 76990, Note_on_c, 0, 80, 0
2, 76990, Note_on_c, 0, 72, 0
2, 77011, Note_on_c, 0, 41, 80
2, 77030, Note_on_c, 0, 53, 0
2, 77061, Note_on_c, 0, 56, 80
2, 77061, Note_on_c, 0, 74, 80
2, 77061, Note_on_c, 0, 82, 80
2, 77061, Note_on_c, 0, 86, 80
2, 77067, Control_c, 0, 64, 127
2, 77088, Note_on_c, 0, 86, 0
2, 77088, Note_on_c, 0, 82, 0
2, 77090, Note_on_c, 0, 74, 0
2, 77107, Note_on_c, 0, 41, 0
2, 77160, Note_on_c, 0, 87, 80
2, 77162, Note_on_c, 0, 75, 80
2, 77162, Note_on_c, 0, 82, 80
2, 77172, Control_c, 0, 64, 0
2, 77193, Note_on_c, 0, 82, 0
2, 77193, Note_on_c, 0, 75, 0
2, 77193, Note_on_c, 0, 87, 0
2, 77214, Note_on_c, 0, 65, 80
2, 77214, Note_on_c, 0, 72, 80
2, 77214, Note_on_c, 0, 80, 80
2, 77214, Note_on_c, 0, 84, 80
2, 77216, Note_on_c, 0, 58, 80
2, 77216, Note_on_c, 0, 62, 80
2, 77244, Note_on_c, 0, 62, 0
2, 77244, Note_on_c, 0, 65, 0
2, 77244, Note_on_c, 0, 72, 0
2, 77244, Note_on_c, 0, 84, 0
2, 77246, Note_on_c, 0, 58, 0
2, 77246, Note_on_c, 0, 80, 0
2, 77316, Note_on_c, 0, 80, 80
2, 77316, Note_on_c, 0, 86, 80
2, 77318, Note_on_c, 0, 74, 80
2, 77334, Note_on_c, 0, 80, 0
2, 77349, Note_on_c, 0, 74, 0
2, 77349, Note_on_c, 0, 86, 0
2, 77368, Note_on_c, 0, 80, 80
2, 77368, Note_on_c, 0, 82, 80
2, 77373, Note_on_c, 0, 70, 80
2, 77375, Note_on_c, 0, 34, 80
2, 77400, Note_on_c, 0, 70, 0
2, 77400, Note_on_c, 0, 82, 0
2, 77402, Note_on_c, 0, 80, 0
2, 77419, Note_on_c, 0, 34, 0
2, 77472, Note_on_c, 0, 71, 80
2, 77472, Note_on_c, 0, 80, 80
2, 77472, Note_on_c, 0, 83, 80
2, 77494, Note_on_c, 0, 80, 0
2, 77503, Note_on_c, 0, 83, 0
2, 77505, Note_on_c, 0, 71, 0
2, 77526, Note_on_c, 0, 72, 80
2, 77526, Note_on_c, 0, 80, 80
2, 77526, Note_on_c, 0, 84, 80
2, 77528, Note_on_c, 0, 58, 80
2, 77528, Note_on_c, 0, 62, 80
2, 77528, Note_on_c, 0, 65, 80
2, 77551, Note_on_c, 0, 62, 0
2, 77556, Note_on_c, 0, 80, 0
2, 77556, Note_on_c, 0, 84, 0
2, 77558, Note_on_c, 0, 58, 0
2, 77558, Note_on_c, 0, 65, 0
2, 77558, Note_on_c, 0, 72, 0
2, 77631, Note_on_c, 0, 70, 80
2, 77633, Note_on_c, 0, 39, 80
2, 77633, Note_on_c, 0, 82, 80
2, 77649, Note_on_c, 0, 82, 0
2, 77649, Note_on_c, 0, 56, 0
2, 77672, Note_on_c, 0, 70, 0
2, 77679, Note_on_c, 0, 74, 80
2, 77679, Note_on_c, 0, 79, 80
2, 77679, Note_on_c, 0, 82, 80
2, 77679, Note_on_c, 0, 86, 80
2, 77681, Note_on_c, 0, 46, 80
2, 77681, Note_on_c, 0, 55, 80
2, 77686, Control_c, 0, 64, 127
2, 77718, Note_on_c, 0, 86, 0
2, 77718, Note_on_c, 0, 82, 0
2, 77718, Note_on_c, 0, 79, 0
2, 77718, Note_on_c, 0, 74, 0
2, 77723, Note_on_c, 0, 39, 0
2, 77723, Note_on_c, 0, 46, 0
2, 77782, Note_on_c, 0, 72, 80
2, 77782, Note_on_c, 0, 79, 80
2, 77782, Note_on_c, 0, 84, 80
2, 77798, Note_on_c, 0, 79, 0
2, 77803, Control_c, 0, 64, 0
2, 77809, Note_on_c, 0, 72, 0
2, 77826, Note_on_c, 0, 84, 0
2, 77831, Note_on_c, 0, 63, 80
2, 77831, Note_on_c, 0, 67, 80
2, 77831, Note_on_c, 0, 70, 80
2, 77831, Note_on_c, 0, 79, 80
2, 77831, Note_on_c, 0, 82, 80
2, 77832, Note_on_c, 0, 58, 80
2, 77870, Note_on_c, 0, 82, 0
2, 77870, Note_on_c, 0, 79, 0
2, 77872, Note_on_c, 0, 63, 0
2, 77872, Note_on_c, 0, 67, 0
2, 77872, Note_on_c, 0, 70, 0
2, 77872, Note_on_c, 0, 58, 0
2, 77924, Note_on_c, 0, 84, 80
2, 77926, Note_on_c, 0, 72, 80
2, 77926, Note_on_c, 0, 79, 80
2, 77979, Note_on_c, 0, 34, 80
2, 78020, Note_on_c, 0, 79, 0
2, 78020, Note_on_c, 0, 72, 0
2, 78020, Note_on_c, 0, 84, 0
2, 78024, Note_on_c, 0, 34, 0
2, 78081, Note_on_c, 0, 79, 80
2, 78093, Note_on_c, 0, 80, 80
2, 78114, Note_on_c, 0, 79, 0
2, 78116, Note_on_c, 0, 83, 80
2, 78122, Note_on_c, 0, 80, 0
2, 78132, Note_on_c, 0, 67, 80
2, 78132, Note_on_c, 0, 84, 80
2, 78134, Note_on_c, 0, 58, 80
2, 78134, Note_on_c, 0, 63, 80
2, 78150, Note_on_c, 0, 83, 0
2, 78162, Note_on_c, 0, 55, 0
2, 78176, Note_on_c, 0, 58, 0
2, 78176, Note_on_c, 0, 67, 0
2, 78176, Note_on_c, 0, 63, 0
2, 78199, Note_on_c, 0, 84, 0
2, 78232, Note_on_c, 0, 72, 80
2, 78232, Note_on_c, 0, 79, 80
2, 78232, Note_on_c, 0, 82, 80
2, 78253, Note_on_c, 0, 82, 0
2, 78253, Note_on_c, 0, 79, 0
2, 78279, Note_on_c, 0, 72, 0
2, 78284, Note_on_c, 0, 55, 80
2, 78284, Note_on_c, 0, 75, 80
2, 78284, Note_on_c, 0, 79, 80
2, 78284, Note_on_c, 0, 82, 80
2, 78284, Note_on_c, 0, 87, 80
2, 78288, Note_on_c, 0, 46, 80
2, 78290, Control_c, 0, 64, 127
2, 78328, Note_on_c, 0, 46, 0
2, 78354, Note_on_c, 0, 75, 0
2, 78377, Note_on_c, 0, 82, 0
2, 78377, Note_on_c, 0, 87, 0
2, 78377, Note_on_c, 0, 79, 0
2, 78409, Control_c, 0, 64, 0
2, 78440, Note_on_c, 0, 86, 80
2, 78442, Note_on_c, 0, 58, 80
2, 78442, Note_on_c, 0, 61, 80
2, 78442, Note_on_c, 0, 63, 80
2, 78442, Note_on_c, 0, 67, 80
2, 78442, Note_on_c, 0, 74, 80
2, 78442, Note_on_c, 0, 79, 80
2, 78442, Note_on_c, 0, 82, 80
2, 78486, Note_on_c, 0, 67, 0
2, 78486, Note_on_c, 0, 61, 0
2, 78486, Note_on_c, 0, 58, 0
2, 78486, Note_on_c, 0, 63, 0
2, 78486, Note_on_c, 0, 55, 0
2, 78496, Note_on_c, 0, 86, 0
2, 78498, Note_on_c, 0, 79, 0
2, 78498, Note_on_c, 0, 74, 0
2, 78498, Note_on_c, 0, 82, 0
2, 78547, Note_on_c, 0, 75, 80
2, 78547, Note_on_c, 0, 79, 80
2, 78547, Note_on_c, 0, 82, 80
2, 78547, Note_on_c, 0, 87, 80
2, 78568, Note_on_c, 0, 82, 0
2, 78568, Note_on_c, 0, 79, 0
2, 78577, Note_on_c, 0, 87, 0
2, 78579, Note_on_c, 0, 75, 0
2, 78599, Note_on_c, 0, 79, 80
2, 78599, Note_on_c, 0, 82, 80
2, 78599, Note_on_c, 0, 84, 80
2, 78600, Note_on_c, 0, 51, 80
2, 78600, Note_on_c, 0, 72, 80
2, 78602, Note_on_c, 0, 39, 80
2, 78630, Note_on_c, 0, 39, 0
2, 78630, Note_on_c, 0, 82, 0
2, 78630, Note_on_c, 0, 84, 0
2, 78630, Note_on_c, 0, 79, 0
2, 78630, Note_on_c, 0, 72, 0
2, 78630, Note_on_c, 0, 51, 0
2, 78703, Note_on_c, 0, 75, 80
2, 78703, Note_on_c, 0, 87, 80
2, 78705, Note_on_c, 0, 41, 80
2, 78705, Note_on_c, 0, 53, 80
2, 78738, Note_on_c, 0, 53, 0
2, 78738, Note_on_c, 0, 41, 0
2, 78757, Note_on_c, 0, 43, 80
2, 78757, Note_on_c, 0, 55, 80
2, 78788, Note_on_c, 0, 55, 0
2, 78790, Note_on_c, 0, 43, 0
2, 78811, Note_on_c, 0, 87, 0
2, 78811, Note_on_c, 0, 75, 0
2, 78855, Note_on_c, 0, 84, 80
2, 78860, Note_on_c, 0, 43, 80
2, 78860, Note_on_c, 0, 55, 80
2, 78860, Note_on_c, 0, 72, 80
2, 78860, Note_on_c, 0, 80, 80
2, 78876, Note_on_c, 0, 80, 0
2, 78876, Note_on_c, 0, 84, 0
2, 78888, Note_on_c, 0, 72, 0
2, 78889, Note_on_c, 0, 43, 0
2, 78891, Note_on_c, 0, 55, 0
2, 78908, Note_on_c, 0, 56, 80
2, 78908, Note_on_c, 0, 75, 80
2, 78908, Note_on_c, 0, 80, 80
2, 78908, Note_on_c, 0, 84, 80
2, 78908, Note_on_c, 0, 87, 80
2, 78910, Control_c, 0, 64, 127
2, 78910, Note_on_c, 0, 44, 80
2, 78937, Note_on_c, 0, 44, 0
2, 78937, Note_on_c, 0, 56, 0
2, 78984, Note_on_c, 0, 51, 80
2, 78984, Note_on_c, 0, 56, 80
2, 78984, Note_on_c, 0, 60, 80
2, 78991, Note_on_c, 0, 84, 0
2, 78991, Note_on_c, 0, 87, 0
2, 78991, Note_on_c, 0, 75, 0
2, 78991, Note_on_c, 0, 80, 0
2, 79003, Note_on_c, 0, 60, 0
2, 79005, Note_on_c, 0, 51, 0
2, 79005, Note_on_c, 0, 56, 0
2, 79005, Control_c, 0, 64, 0
2, 79061, Note_on_c, 0, 72, 80
2, 79061, Note_on_c, 0, 80, 80
2, 79061, Note_on_c, 0, 84, 80
2, 79063, Note_on_c, 0, 39, 80
2, 79107, Note_on_c, 0, 39, 0
2, 79117, Note_on_c, 0, 72, 0
2, 79117, Note_on_c, 0, 80, 0
2, 79117, Note_on_c, 0, 84, 0
2, 79140, Note_on_c, 0, 51, 80
2, 79140, Note_on_c, 0, 56, 80
2, 79140, Note_on_c, 0, 60, 80
2, 79152, Note_on_c, 0, 80, 80
2, 79158, Note_on_c, 0, 60, 0
2, 79158, Note_on_c, 0, 51, 0
2, 79158, Note_on_c, 0, 56, 0
2, 79160, Note_on_c, 0, 81, 80
2, 79175, Note_on_c, 0, 82, 80
2, 79184, Note_on_c, 0, 80, 0
2, 79189, Note_on_c, 0, 83, 80
2, 79196, Note_on_c, 0, 81, 0
2, 79207, Note_on_c, 0, 82, 0
2, 79214, Note_on_c, 0, 44, 80
2, 79214, Note_on_c, 0, 56, 80
2, 79214, Note_on_c, 0, 84, 80
2, 79219, Note_on_c, 0, 83, 0
2, 79233, Note_on_c, 0, 56, 0
2, 79252, Note_on_c, 0, 75, 80
2, 79252, Note_on_c, 0, 87, 80
2, 79262, Note_on_c, 0, 44, 0
2, 79262, Note_on_c, 0, 84, 0
2, 79293, Note_on_c, 0, 56, 80
2, 79293, Note_on_c, 0, 60, 80
2, 79295, Note_on_c, 0, 51, 80
2, 79296, Note_on_c, 0, 87, 0
2, 79301, Note_on_c, 0, 75, 0
2, 79313, Note_on_c, 0, 60, 0
2, 79313, Note_on_c, 0, 56, 0
2, 79313, Note_on_c, 0, 51, 0
2, 79329, Note_on_c, 0, 72, 80
2, 79329, Note_on_c, 0, 84, 80
2, 79360, Note_on_c, 0, 84, 0
2, 79360, Note_on_c, 0, 72, 0
2, 79367, Note_on_c, 0, 78, 80
2, 79367, Note_on_c, 0, 81, 80
2, 79367, Note_on_c, 0, 87, 80
2, 79371, Note_on_c, 0, 45, 80
2, 79371, Note_on_c, 0, 57, 80
2, 79371, Note_on_c, 0, 75, 80
2, 79388, Note_on_c, 0, 57, 0
2, 79388, Note_on_c, 0, 81, 0
2, 79388, Note_on_c, 0, 78, 0
2, 79399, Note_on_c, 0, 87, 0
2, 79399, Note_on_c, 0, 75, 0
2, 79414, Note_on_c, 0, 45, 0
2, 79446, Note_on_c, 0, 51, 80
2, 79446, Note_on_c, 0, 54, 80
2, 79446, Note_on_c, 0, 57, 80
2, 79446, Note_on_c, 0, 60, 80
2, 79446, Note_on_c, 0, 72, 80
2, 79446, Note_on_c, 0, 78, 80
2, 79446, Note_on_c, 0, 81, 80
2, 79446, Note_on_c, 0, 84, 80
2, 79465, Note_on_c, 0, 60, 0
2, 79465, Note_on_c, 0, 57, 0
2, 79465, Note_on_c, 0, 51, 0
2, 79465, Note_on_c, 0, 54, 0
2, 79477, Note_on_c, 0, 72, 0
2, 79477, Note_on_c, 0, 84, 0
2, 79477, Note_on_c, 0, 78, 0
2, 79477, Note_on_c, 0, 81, 0
2, 79519, Note_on_c, 0, 46, 80
2, 79519, Note_on_c, 0, 58, 80
2, 79519, Note_on_c, 0, 75, 80
2, 79519, Note_on_c, 0, 79, 80
2, 79519, Note_on_c, 0, 82, 80
2, 79519, Note_on_c, 0, 87, 80
2, 79534, Control_c, 0, 64, 127
2, 79538, Note_on_c, 0, 58, 0
2, 79561, Note_on_c, 0, 46, 0
2, 79587, Note_on_c, 0, 87, 0
2, 79589, Note_on_c, 0, 79, 0
2, 79589, Note_on_c, 0, 82, 0
2, 79589, Note_on_c, 0, 75, 0
2, 79594, Note_on_c, 0, 67, 80
2, 79596, Note_on_c, 0, 58, 80
2, 79596, Note_on_c, 0, 63, 80
2, 79615, Note_on_c, 0, 67, 0
2, 79617, Note_on_c, 0, 63, 0
2, 79617, Note_on_c, 0, 58, 0
2, 79666, Control_c, 0, 64, 0
2, 79668, Note_on_c, 0, 86, 80
2, 79670, Note_on_c, 0, 43, 80
2, 79670, Note_on_c, 0, 55, 80
2, 79670, Note_on_c, 0, 74, 80
2, 79670, Note_on_c, 0, 77, 80
2, 79670, Note_on_c, 0, 83, 80
2, 79689, Note_on_c, 0, 55, 0
2, 79715, Note_on_c, 0, 43, 0
2, 79727, Note_on_c, 0, 74, 0
2, 79727, Note_on_c, 0, 86, 0
2, 79727, Note_on_c, 0, 83, 0
2, 79727, Note_on_c, 0, 77, 0
2, 79743, Note_on_c, 0, 55, 80
2, 79743, Note_on_c, 0, 59, 80
2, 79743, Note_on_c, 0, 62, 80
2, 79743, Note_on_c, 0, 65, 80
2, 79759, Note_on_c, 0, 59, 0
2, 79759, Note_on_c, 0, 55, 0
2, 79764, Note_on_c, 0, 62, 0
2, 79764, Note_on_c, 0, 65, 0
2, 79780, Note_on_c, 0, 84, 80
2, 79782, Note_on_c, 0, 72, 80
2, 79782, Note_on_c, 0, 76, 80
2, 79782, Note_on_c, 0, 79, 80
2, 79782, Note_on_c, 0, 82, 80
2, 79824, Note_on_c, 0, 40, 80
2, 79824, Note_on_c, 0, 52, 80
2, 79867, Note_on_c, 0, 52, 0
2, 79867, Note_on_c, 0, 82, 0
2, 79867, Note_on_c, 0, 72, 0
2, 79867, Note_on_c, 0, 76, 0
2, 79867, Note_on_c, 0, 84, 0
2, 79867, Note_on_c, 0, 40, 0
2, 79867, Note_on_c, 0, 79, 0
2, 79897, Note_on_c, 0, 58, 80
2, 79902, Note_on_c, 0, 55, 80
2, 79902, Note_on_c, 0, 60, 80
2, 79902, Note_on_c, 0, 64, 80
2, 79919, Note_on_c, 0, 64, 0
2, 79919, Note_on_c, 0, 58, 0
2, 79919, Note_on_c, 0, 55, 0
2, 79919, Note_on_c, 0, 60, 0
2, 79940, Note_on_c, 0, 72, 80
2, 79940, Note_on_c, 0, 84, 80
2, 79980, Note_on_c, 0, 43, 80
2, 79980, Note_on_c, 0, 55, 80
2, 79980, Note_on_c, 0, 87, 80
2, 79982, Note_on_c, 0, 75, 80
2, 79987, Note_on_c, 0, 84, 0
2, 79987, Note_on_c, 0, 72, 0
2, 80013, Note_on_c, 0, 55, 0
2, 80013, Note_on_c, 0, 43, 0
2, 80053, Note_on_c, 0, 75, 0
2, 80053, Note_on_c, 0, 87, 0
2, 80063, Note_on_c, 0, 44, 80
2, 80063, Note_on_c, 0, 56, 80
2, 80090, Note_on_c, 0, 56, 0
2, 80090, Note_on_c, 0, 44, 0
2, 80097, Note_on_c, 0, 72, 80
2, 80097, Note_on_c, 0, 84, 80
2, 80118, Note_on_c, 0, 72, 0
2, 80137, Note_on_c, 0, 45, 80
2, 80137, Note_on_c, 0, 57, 80
2, 80137, Note_on_c, 0, 75, 80
2, 80137, Note_on_c, 0, 81, 80
2, 80137, Note_on_c, 0, 87, 80
2, 80152, Control_c, 0, 64, 127
2, 80157, Note_on_c, 0, 57, 0
2, 80157, Note_on_c, 0, 84, 0
2, 80159, Note_on_c, 0, 81, 0
2, 80170, Note_on_c, 0, 75, 0
2, 80170, Note_on_c, 0, 87, 0
2, 80182, Note_on_c, 0, 45, 0
2, 80212, Note_on_c, 0, 53, 80
2, 80212, Note_on_c, 0, 57, 80
2, 80212, Note_on_c, 0, 60, 80
2, 80212, Note_on_c, 0, 63, 80
2, 80212, Note_on_c, 0, 72, 80
2, 80212, Note_on_c, 0, 84, 80
2, 80233, Note_on_c, 0, 63, 0
2, 80233, Note_on_c, 0, 60, 0
2, 80233, Note_on_c, 0, 53, 0
2, 80233, Note_on_c, 0, 57, 0
2, 80245, Note_on_c, 0, 84, 0
2, 80245, Note_on_c, 0, 72, 0
2, 80287, Note_on_c, 0, 41, 80
2, 80287, Note_on_c, 0, 75, 80
2, 80287, Note_on_c, 0, 81, 80
2, 80287, Note_on_c, 0, 84, 80
2, 80287, Note_on_c, 0, 87, 80
2, 80294, Control_c, 0, 64, 0
2, 80305, Note_on_c, 0, 84, 0
2, 80317, Note_on_c, 0, 81, 0
2, 80317, Note_on_c, 0, 87, 0
2, 80319, Note_on_c, 0, 75, 0
2, 80330, Note_on_c, 0, 41, 0
2, 80366, Note_on_c, 0, 72, 80
2, 80368, Note_on_c, 0, 53, 80
2, 80368, Note_on_c, 0, 57, 80
2, 80368, Note_on_c, 0, 60, 80
2, 80368, Note_on_c, 0, 63, 80
2, 80368, Note_on_c, 0, 84, 80
2, 80384, Note_on_c, 0, 63, 0
2, 80384, Note_on_c, 0, 60, 0
2, 80384, Note_on_c, 0, 57, 0
2, 80384, Note_on_c, 0, 53, 0
2, 80396, Note_on_c, 0, 72, 0
2, 80396, Note_on_c, 0, 84, 0
2, 80443, Note_on_c, 0, 50, 80
2, 80443, Note_on_c, 0, 62, 80
2, 80443, Note_on_c, 0, 75, 80
2, 80443, Note_on_c, 0, 80, 80
2, 80443, Note_on_c, 0, 87, 80
2, 80462, Note_on_c, 0, 62, 0
2, 80488, Note_on_c, 0, 80, 0
2, 80488, Note_on_c, 0, 50, 0
2, 80488, Note_on_c, 0, 75, 0
2, 80488, Note_on_c, 0, 87, 0
2, 80516, Note_on_c, 0, 58, 80
2, 80518, Note_on_c, 0, 56, 80
2, 80518, Note_on_c, 0, 62, 80
2, 80518, Note_on_c, 0, 65, 80
2, 80518, Note_on_c, 0, 72, 80
2, 80518, Note_on_c, 0, 84, 80
2, 80537, Note_on_c, 0, 65, 0
2, 80537, Note_on_c, 0, 62, 0
2, 80537, Note_on_c, 0, 58, 0
2, 80537, Note_on_c, 0, 56, 0
2, 80548, Note_on_c, 0, 84, 0
2, 80548, Note_on_c, 0, 72, 0
2, 80595, Note_on_c, 0, 46, 80
2, 80595, Note_on_c, 0, 58, 80
2, 80595, Note_on_c, 0, 75, 80
2, 80595, Note_on_c, 0, 82, 80
2, 80595, Note_on_c, 0, 87, 80
2, 80615, Note_on_c, 0, 82, 0
2, 80638, Note_on_c, 0, 58, 0
2, 80638, Note_on_c, 0, 46, 0
2, 80649, Note_on_c, 0, 75, 0
2, 80649, Note_on_c, 0, 87, 0
2, 80670, Note_on_c, 0, 56, 80
2, 80670, Note_on_c, 0, 58, 80
2, 80670, Note_on_c, 0, 62, 80
2, 80670, Note_on_c, 0, 65, 80
2, 80696, Note_on_c, 0, 56, 0
2, 80698, Note_on_c, 0, 58, 0
2, 80698, Note_on_c, 0, 62, 0
2, 80698, Note_on_c, 0, 65, 0
2, 80703, Note_on_c, 0, 72, 80
2, 80705, Note_on_c, 0, 84, 80
2, 80736, Note_on_c, 0, 72, 0
2, 80737, Note_on_c, 0, 84, 0
2, 80742, Note_on_c, 0, 51, 80
2, 80742, Note_on_c, 0, 63, 80
2, 80742, Note_on_c, 0, 75, 80
2, 80742, Note_on_c, 0, 79, 80
2, 80742, Note_on_c, 0, 82, 80
2, 80742, Note_on_c, 0, 87, 80
2, 80757, Control_c, 0, 64, 127
2, 80763, Note_on_c, 0, 63, 0
2, 80786, Note_on_c, 0, 82, 0
2, 80786, Note_on_c, 0, 87, 0
2, 80788, Note_on_c, 0, 51, 0
2, 80788, Note_on_c, 0, 79, 0
2, 80788, Note_on_c, 0, 75, 0
2, 80819, Note_on_c, 0, 58, 80
2, 80819, Note_on_c, 0, 63, 80
2, 80819, Note_on_c, 0, 67, 80
2, 80819, Note_on_c, 0, 71, 80
2, 80819, Note_on_c, 0, 83, 80
2, 80835, Note_on_c, 0, 63, 0
2, 80837, Note_on_c, 0, 58, 0
2, 80837, Note_on_c, 0, 67, 0
2, 80863, Note_on_c, 0, 71, 0
2, 80863, Note_on_c, 0, 83, 0
2, 80889, Control_c, 0, 64, 0
2, 80896, Note_on_c, 0, 46, 80
2, 80896, Note_on_c, 0, 58, 80
2, 80896, Note_on_c, 0, 72, 80
2, 80896, Note_on_c, 0, 79, 80
2, 80896, Note_on_c, 0, 82, 80
2, 80896, Note_on_c, 0, 84, 80
2, 80938, Note_on_c, 0, 82, 0
2, 80938, Note_on_c, 0, 79, 0
2, 80938, Note_on_c, 0, 72, 0
2, 80938, Note_on_c, 0, 46, 0
2, 80938, Note_on_c, 0, 58, 0
2, 80940, Note_on_c, 0, 84, 0
2, 80973, Note_on_c, 0, 63, 80
2, 80973, Note_on_c, 0, 67, 80
2, 80973, Note_on_c, 0, 71, 80
2, 80973, Note_on_c, 0, 83, 80
2, 80994, Note_on_c, 0, 67, 0
2, 80994, Note_on_c, 0, 63, 0
2, 81003, Note_on_c, 0, 71, 0
2, 81005, Note_on_c, 0, 83, 0
2, 81049, Note_on_c, 0, 51, 80
2, 81049, Note_on_c, 0, 63, 80
2, 81049, Note_on_c, 0, 72, 80
2, 81051, Note_on_c, 0, 79, 80
2, 81051, Note_on_c, 0, 84, 80
2, 81096, Note_on_c, 0, 84, 0
2, 81096, Note_on_c, 0, 72, 0
2, 81096, Note_on_c, 0, 51, 0
2, 81096, Note_on_c, 0, 63, 0
2, 81096, Note_on_c, 0, 79, 0
2, 81126, Note_on_c, 0, 50, 80
2, 81126, Note_on_c, 0, 71, 80
2, 81126, Note_on_c, 0, 78, 80
2, 81126, Note_on_c, 0, 83, 80
2, 81133, Note_on_c, 0, 62, 80
2, 81154, Note_on_c, 0, 62, 0
2, 81154, Note_on_c, 0, 78, 0
2, 81154, Note_on_c, 0, 50, 0
2, 81154, Note_on_c, 0, 71, 0
2, 81154, Note_on_c, 0, 83, 0
2, 81161, Note_on_c, 0, 72, 80
2, 81163, Note_on_c, 0, 79, 80
2, 81163, Note_on_c, 0, 84, 80
2, 81200, Note_on_c, 0, 48, 80
2, 81200, Note_on_c, 0, 52, 80
2, 81200, Note_on_c, 0, 60, 80
2, 81228, Note_on_c, 0, 60, 0
2, 81228, Note_on_c, 0, 79, 0
2, 81228, Note_on_c, 0, 84, 0
2, 81228, Note_on_c, 0, 48, 0
2, 81228, Note_on_c, 0, 52, 0
2, 81230, Note_on_c, 0, 72, 0
2, 81274, Note_on_c, 0, 46, 80
2, 81274, Note_on_c, 0, 58, 80
2, 81274, Note_on_c, 0, 75, 80
2, 81274, Note_on_c, 0, 87, 80
2, 81305, Note_on_c, 0, 75, 0
2, 81305, Note_on_c, 0, 46, 0
2, 81305, Note_on_c, 0, 58, 0
2, 81307, Note_on_c, 0, 87, 0
2, 81312, Note_on_c, 0, 72, 80
2, 81313, Note_on_c, 0, 84, 80
2, 81354, Control_c, 0, 64, 127
2, 81354, Note_on_c, 0, 51, 80
2, 81354, Note_on_c, 0, 58, 80
2, 81354, Note_on_c, 0, 63, 80
2, 81354, Note_on_c, 0, 75, 80
2, 81354, Note_on_c, 0, 79, 80
2, 81354, Note_on_c, 0, 82, 80
2, 81354, Note_on_c, 0, 87, 80
2, 81359, Note_on_c, 0, 84, 0
2, 81359, Note_on_c, 0, 72, 0
2, 81382, Note_on_c, 0, 82, 0
2, 81382, Note_on_c, 0, 79, 0
2, 81393, Note_on_c, 0, 51, 0
2, 81393, Note_on_c, 0, 63, 0
2, 81393, Note_on_c, 0, 58, 0
2, 81393, Note_on_c, 0, 75, 0
2, 81395, Note_on_c, 0, 87, 0
2, 81428, Note_on_c, 0, 46, 80
2, 81428, Note_on_c, 0, 58, 80
2, 81428, Note_on_c, 0, 72, 80
2, 81428, Note_on_c, 0, 79, 80
2, 81428, Note_on_c, 0, 82, 80
2, 81428, Note_on_c, 0, 84, 80
2, 81456, Control_c, 0, 64, 0
2, 81457, Note_on_c, 0, 82, 0
2, 81457, Note_on_c, 0, 79, 0
2, 81483, Note_on_c, 0, 72, 0
2, 81483, Note_on_c, 0, 46, 0
2, 81483, Note_on_c, 0, 84, 0
2, 81483, Note_on_c, 0, 58, 0
2, 81503, Note_on_c, 0, 45, 80
2, 81504, Note_on_c, 0, 57, 80
2, 81504, Note_on_c, 0, 73, 80
2, 81504, Note_on_c, 0, 79, 80
2, 81506, Note_on_c, 0, 82, 80
2, 81506, Note_on_c, 0, 85, 80
2, 81534, Note_on_c, 0, 73, 0
2, 81534, Note_on_c, 0, 57, 0
2, 81536, Note_on_c, 0, 79, 0
2, 81536, Note_on_c, 0, 82, 0
2, 81536, Note_on_c, 0, 85, 0
2, 81546, Note_on_c, 0, 45, 0
2, 81578, Note_on_c, 0, 44, 80
2, 81578, Note_on_c, 0, 56, 80
2, 81578, Note_on_c, 0, 72, 80
2, 81583, Note_on_c, 0, 84, 80
2, 81624, Note_on_c, 0, 44, 0
2, 81625, Note_on_c, 0, 56, 0
2, 81625, Note_on_c, 0, 72, 0
2, 81625, Note_on_c, 0, 84, 0
2, 81661, Note_on_c, 0, 46, 80
2, 81661, Note_on_c, 0, 55, 80
2, 81661, Note_on_c, 0, 70, 80
2, 81661, Note_on_c, 0, 79, 80
2, 81663, Note_on_c, 0, 82, 80
2, 81682, Note_on_c, 0, 82, 0
2, 81682, Note_on_c, 0, 79, 0
2, 81703, Note_on_c, 0, 82, 80
2, 81705, Note_on_c, 0, 55, 0
2, 81741, Note_on_c, 0, 58, 80
2, 81741, Note_on_c, 0, 72, 80
2, 81745, Note_on_c, 0, 79, 80
2, 81745, Note_on_c, 0, 84, 80
2, 81750, Note_on_c, 0, 82, 0
2, 81750, Note_on_c, 0, 70, 0
2, 81788, Note_on_c, 0, 46, 0
2, 81790, Note_on_c, 0, 79, 0
2, 81816, Note_on_c, 0, 84, 0
2, 81816, Note_on_c, 0, 72, 0
2, 81822, Note_on_c, 0, 39, 80
2, 81822, Note_on_c, 0, 51, 80
2, 81822, Note_on_c, 0, 67, 80
2, 81822, Note_on_c, 0, 73, 80
2, 81822, Note_on_c, 0, 75, 80
2, 81824, Note_on_c, 0, 79, 80
2, 81829, Note_on_c, 0, 58, 0
2, 81960, Control_c, 0, 64, 127
2, 82087, Control_c, 0, 64, 0
2, 82104, Note_on_c, 0, 67, 0
2, 82105, Note_on_c, 0, 75, 0
2, 82105, Note_on_c, 0, 73, 0
2, 82105, Note_on_c, 0, 79, 0
2, 82115, Note_on_c, 0, 39, 0
2, 82115, Note_on_c, 0, 51, 0
2, 82115, End_track
3, 0, Start_track
3, 0, Title_t, "c/b Jelly Roll Morton"
3, 0, End_track
4, 0, Start_track
4, 0, Title_t, "p/b Jelly Roll Morton"
4, 0, End_track
5, 0, Start_track
5, 0, Title_t, "QRS # 159 (Vocalstyle # 12973)"
5, 0, End_track
6, 0, Start_track
6, 0, Title_t, "Scan of a player piano roll"
6, 0, End_track
7, 0, Start_track
7, 0, Title_t, "by Terry Smythe, Winnipeg, Canada"
7, 0, End_track
8, 0, Start_track
8, 1, Copyright_t, "___________________________________________________\012\012KUNSTDERFUGE.COM LARGE CLASSICAL MIDI COLLECTION\012ONCLASSICAL BY ALESSANDRO SIMONETTO, PROPRIETOR\012___________________________________________________\012\012! Attention: this file is under copyright !\012\012(c)onclassical, (nc)smythe, 2010\012___________________________________________________\012\012NO ONE MAY REPUBLISH THIS FILE WITHOUT PERMISSION\012COMMERCIAL USES OF THIS FILE IS STRICTLY PROHIBITED\012___________________________________________________\012\012Files & contributor's list: http://kunstderfuge.com/\012Terms and conditions: http://kunstderfuge.com/notes.htm"
8, 1, End_track
0, 0, End_of_file
