0, 0, Header, 1, 8, 192
1, 0, Start_track
1, 0, Title_t, "1109S"
1, 0, Copyright_t, "May NOT be used for commercial purposes."
1, 0, Text_t, "Roll expression/accent tracks, where present, converted to MIDI velocties.\012"
1, 0, Time_signature, 4, 2, 24, 8
1, 0, Key_signature, 0, "major"
1, 0, Tempo, 500000
1, 0, Marker_t, "Standard MIDI:LPI 126:Tempo  70: 02-26-2004"
1, 0, End_track
2, 0, Start_track
2, 0, Title_t, "New Era Rag (1919)"
2, 94, Control_c, 0, 64, 127
2, 178, Control_c, 0, 64, 0
2, 204, Note_on_c, 0, 76, 80
2, 206, Note_on_c, 0, 64, 80
2, 208, Note_on_c, 0, 88, 80
2, 242, Note_on_c, 0, 88, 0
2, 242, Note_on_c, 0, 76, 0
2, 247, Note_on_c, 0, 64, 0
2, 261, Note_on_c, 0, 67, 80
2, 261, Note_on_c, 0, 91, 80
2, 263, Note_on_c, 0, 79, 80
2, 297, Note_on_c, 0, 79, 0
2, 297, Note_on_c, 0, 91, 0
2, 297, Note_on_c, 0, 67, 0
2, 314, Note_on_c, 0, 86, 80
2, 316, Note_on_c, 0, 62, 90
2, 316, Note_on_c, 0, 74, 80
2, 349, Note_on_c, 0, 86, 0
2, 351, Note_on_c, 0, 74, 0
2, 356, Note_on_c, 0, 62, 0
2, 369, Note_on_c, 0, 88, 80
2, 371, Note_on_c, 0, 64, 80
2, 371, Note_on_c, 0, 76, 80
2, 404, Note_on_c, 0, 76, 0
2, 406, Note_on_c, 0, 88, 0
2, 410, Note_on_c, 0, 64, 0
2, 415, Control_c, 0, 67, 127
2, 431, Note_on_c, 0, 60, 90
2, 431, Note_on_c, 0, 72, 80
2, 431, Note_on_c, 0, 84, 80
2, 455, Control_c, 0, 67, 0
2, 482, Note_on_c, 0, 72, 0
2, 487, Note_on_c, 0, 84, 0
2, 487, Note_on_c, 0, 60, 0
2, 650, Note_on_c, 0, 52, 90
2, 650, Note_on_c, 0, 64, 80
2, 650, Note_on_c, 0, 76, 80
2, 685, Note_on_c, 0, 76, 0
2, 685, Note_on_c, 0, 52, 0
2, 698, Note_on_c, 0, 64, 0
2, 705, Note_on_c, 0, 67, 80
2, 707, Note_on_c, 0, 55, 90
2, 707, Note_on_c, 0, 79, 80
2, 744, Note_on_c, 0, 79, 0
2, 744, Note_on_c, 0, 55, 0
2, 751, Note_on_c, 0, 67, 0
2, 762, Note_on_c, 0, 50, 90
2, 762, Note_on_c, 0, 74, 80
2, 764, Note_on_c, 0, 62, 90
2, 796, Note_on_c, 0, 62, 0
2, 796, Note_on_c, 0, 74, 0
2, 798, Note_on_c, 0, 50, 0
2, 824, Note_on_c, 0, 52, 90
2, 824, Note_on_c, 0, 64, 80
2, 824, Note_on_c, 0, 76, 80
2, 862, Note_on_c, 0, 76, 0
2, 862, Note_on_c, 0, 64, 0
2, 862, Note_on_c, 0, 52, 0
2, 868, Control_c, 0, 67, 127
2, 877, Note_on_c, 0, 60, 90
2, 877, Note_on_c, 0, 72, 80
2, 879, Note_on_c, 0, 48, 90
2, 901, Control_c, 0, 67, 0
2, 932, Note_on_c, 0, 48, 0
2, 932, Note_on_c, 0, 72, 0
2, 932, Note_on_c, 0, 60, 0
2, 1084, Control_c, 0, 67, 127
2, 1093, Note_on_c, 0, 64, 80
2, 1095, Note_on_c, 0, 52, 90
2, 1123, Control_c, 0, 67, 0
2, 1131, Note_on_c, 0, 52, 0
2, 1131, Note_on_c, 0, 64, 0
2, 1147, Note_on_c, 0, 55, 90
2, 1147, Note_on_c, 0, 67, 80
2, 1181, Note_on_c, 0, 67, 0
2, 1183, Note_on_c, 0, 55, 0
2, 1183, Control_c, 0, 67, 127
2, 1194, Note_on_c, 0, 50, 90
2, 1199, Note_on_c, 0, 62, 90
2, 1224, Control_c, 0, 67, 0
2, 1231, Note_on_c, 0, 62, 0
2, 1231, Note_on_c, 0, 50, 0
2, 1247, Note_on_c, 0, 52, 90
2, 1247, Note_on_c, 0, 64, 80
2, 1269, Control_c, 0, 64, 127
2, 1284, Note_on_c, 0, 64, 0
2, 1284, Note_on_c, 0, 52, 0
2, 1295, Control_c, 0, 67, 127
2, 1301, Note_on_c, 0, 48, 90
2, 1301, Note_on_c, 0, 60, 90
2, 1332, Control_c, 0, 67, 0
2, 1341, Note_on_c, 0, 60, 0
2, 1341, Note_on_c, 0, 48, 0
2, 1358, Note_on_c, 0, 43, 90
2, 1358, Note_on_c, 0, 55, 90
2, 1375, Control_c, 0, 64, 0
2, 1394, Note_on_c, 0, 55, 0
2, 1394, Note_on_c, 0, 43, 0
2, 1399, Control_c, 0, 67, 127
2, 1410, Note_on_c, 0, 50, 90
2, 1415, Note_on_c, 0, 38, 90
2, 1439, Control_c, 0, 67, 0
2, 1445, Note_on_c, 0, 50, 0
2, 1447, Note_on_c, 0, 38, 0
2, 1464, Note_on_c, 0, 52, 90
2, 1464, Note_on_c, 0, 40, 90
2, 1502, Note_on_c, 0, 40, 0
2, 1502, Note_on_c, 0, 52, 0
2, 1507, Control_c, 0, 67, 127
2, 1515, Note_on_c, 0, 36, 90
2, 1515, Note_on_c, 0, 48, 90
2, 1548, Control_c, 0, 67, 0
2, 1565, Note_on_c, 0, 48, 0
2, 1565, Note_on_c, 0, 36, 0
2, 1709, Note_on_c, 0, 79, 80
2, 1725, Control_c, 0, 67, 127
2, 1735, Note_on_c, 0, 60, 90
2, 1735, Note_on_c, 0, 64, 80
2, 1735, Note_on_c, 0, 67, 80
2, 1735, Note_on_c, 0, 72, 80
2, 1735, Note_on_c, 0, 84, 80
2, 1737, Note_on_c, 0, 36, 90
2, 1737, Note_on_c, 0, 48, 90
2, 1761, Control_c, 0, 67, 0
2, 1776, Note_on_c, 0, 64, 0
2, 1778, Note_on_c, 0, 67, 0
2, 1778, Note_on_c, 0, 60, 0
2, 1780, Note_on_c, 0, 79, 0
2, 1780, Note_on_c, 0, 72, 0
2, 1780, Note_on_c, 0, 84, 0
2, 1789, Note_on_c, 0, 36, 0
2, 1794, Note_on_c, 0, 48, 0
2, 1909, Note_on_c, 0, 72, 80
2, 1920, Note_on_c, 0, 73, 80
2, 1926, Note_on_c, 0, 74, 80
2, 1937, Note_on_c, 0, 75, 80
2, 1939, Note_on_c, 0, 43, 80
2, 1944, Note_on_c, 0, 72, 0
2, 1950, Note_on_c, 0, 76, 80
2, 1955, Note_on_c, 0, 73, 0
2, 1960, Note_on_c, 0, 55, 80
2, 1965, Note_on_c, 0, 74, 0
2, 1975, Note_on_c, 0, 75, 0
2, 1986, Note_on_c, 0, 76, 0
2, 1999, Note_on_c, 0, 70, 80
2, 1999, Note_on_c, 0, 82, 80
2, 2025, Note_on_c, 0, 55, 0
2, 2032, Note_on_c, 0, 82, 0
2, 2034, Note_on_c, 0, 70, 0
2, 2049, Note_on_c, 0, 76, 80
2, 2051, Note_on_c, 0, 55, 80
2, 2051, Note_on_c, 0, 58, 80
2, 2051, Note_on_c, 0, 60, 80
2, 2051, Note_on_c, 0, 62, 80
2, 2051, Note_on_c, 0, 64, 80
2, 2056, Note_on_c, 0, 74, 80
2, 2069, Note_on_c, 0, 43, 0
2, 2087, Note_on_c, 0, 74, 0
2, 2087, Note_on_c, 0, 76, 0
2, 2087, Note_on_c, 0, 62, 0
2, 2100, Note_on_c, 0, 60, 0
2, 2100, Note_on_c, 0, 64, 0
2, 2100, Note_on_c, 0, 55, 0
2, 2105, Note_on_c, 0, 58, 0
2, 2105, Note_on_c, 0, 70, 80
2, 2110, Note_on_c, 0, 82, 80
2, 2140, Note_on_c, 0, 36, 80
2, 2145, Note_on_c, 0, 82, 0
2, 2145, Note_on_c, 0, 70, 0
2, 2164, Note_on_c, 0, 60, 80
2, 2164, Note_on_c, 0, 72, 80
2, 2166, Note_on_c, 0, 64, 80
2, 2166, Note_on_c, 0, 76, 80
2, 2173, Note_on_c, 0, 48, 80
2, 2219, Note_on_c, 0, 76, 0
2, 2219, Note_on_c, 0, 72, 0
2, 2224, Note_on_c, 0, 64, 0
2, 2224, Note_on_c, 0, 60, 0
2, 2261, Note_on_c, 0, 36, 0
2, 2266, Note_on_c, 0, 55, 80
2, 2266, Note_on_c, 0, 58, 80
2, 2266, Note_on_c, 0, 60, 80
2, 2266, Note_on_c, 0, 64, 80
2, 2283, Note_on_c, 0, 48, 0
2, 2316, Note_on_c, 0, 60, 0
2, 2316, Note_on_c, 0, 55, 0
2, 2316, Note_on_c, 0, 64, 0
2, 2321, Note_on_c, 0, 58, 0
2, 2338, Note_on_c, 0, 84, 80
2, 2352, Note_on_c, 0, 85, 80
2, 2358, Note_on_c, 0, 86, 80
2, 2367, Note_on_c, 0, 43, 80
2, 2369, Note_on_c, 0, 87, 80
2, 2371, Note_on_c, 0, 84, 0
2, 2379, Note_on_c, 0, 88, 80
2, 2381, Note_on_c, 0, 76, 80
2, 2383, Note_on_c, 0, 85, 0
2, 2388, Note_on_c, 0, 55, 80
2, 2390, Note_on_c, 0, 86, 0
2, 2403, Note_on_c, 0, 87, 0
2, 2412, Note_on_c, 0, 88, 0
2, 2419, Note_on_c, 0, 76, 0
2, 2436, Note_on_c, 0, 82, 80
2, 2436, Note_on_c, 0, 94, 80
2, 2458, Note_on_c, 0, 55, 0
2, 2473, Note_on_c, 0, 94, 0
2, 2473, Note_on_c, 0, 82, 0
2, 2489, Note_on_c, 0, 55, 80
2, 2491, Note_on_c, 0, 60, 80
2, 2491, Note_on_c, 0, 86, 80
2, 2493, Note_on_c, 0, 58, 80
2, 2493, Note_on_c, 0, 64, 80
2, 2493, Note_on_c, 0, 74, 80
2, 2493, Note_on_c, 0, 76, 80
2, 2493, Note_on_c, 0, 88, 80
2, 2506, Note_on_c, 0, 43, 0
2, 2523, Note_on_c, 0, 88, 0
2, 2523, Note_on_c, 0, 86, 0
2, 2528, Note_on_c, 0, 76, 0
2, 2528, Note_on_c, 0, 74, 0
2, 2535, Note_on_c, 0, 58, 0
2, 2535, Note_on_c, 0, 55, 0
2, 2535, Note_on_c, 0, 60, 0
2, 2535, Note_on_c, 0, 64, 0
2, 2542, Note_on_c, 0, 94, 80
2, 2544, Note_on_c, 0, 82, 80
2, 2578, Note_on_c, 0, 94, 0
2, 2580, Note_on_c, 0, 82, 0
2, 2585, Note_on_c, 0, 43, 80
2, 2598, Note_on_c, 0, 76, 80
2, 2598, Note_on_c, 0, 88, 80
2, 2603, Note_on_c, 0, 72, 80
2, 2603, Note_on_c, 0, 84, 80
2, 2610, Note_on_c, 0, 55, 80
2, 2658, Note_on_c, 0, 84, 0
2, 2658, Note_on_c, 0, 88, 0
2, 2663, Note_on_c, 0, 72, 0
2, 2663, Note_on_c, 0, 76, 0
2, 2687, Note_on_c, 0, 43, 0
2, 2695, Note_on_c, 0, 55, 0
2, 2706, Note_on_c, 0, 44, 80
2, 2725, Note_on_c, 0, 56, 80
2, 2777, Note_on_c, 0, 77, 80
2, 2792, Note_on_c, 0, 45, 80
2, 2792, Note_on_c, 0, 78, 80
2, 2799, Note_on_c, 0, 44, 0
2, 2804, Note_on_c, 0, 79, 80
2, 2808, Note_on_c, 0, 56, 0
2, 2815, Note_on_c, 0, 77, 0
2, 2820, Note_on_c, 0, 80, 80
2, 2822, Note_on_c, 0, 69, 80
2, 2822, Note_on_c, 0, 81, 80
2, 2827, Note_on_c, 0, 78, 0
2, 2835, Note_on_c, 0, 56, 80
2, 2837, Note_on_c, 0, 79, 0
2, 2844, Note_on_c, 0, 80, 0
2, 2866, Note_on_c, 0, 81, 0
2, 2871, Note_on_c, 0, 69, 0
2, 2876, Note_on_c, 0, 74, 80
2, 2876, Note_on_c, 0, 86, 80
2, 2908, Note_on_c, 0, 86, 0
2, 2908, Note_on_c, 0, 74, 0
2, 2926, Note_on_c, 0, 45, 0
2, 2928, Note_on_c, 0, 65, 80
2, 2928, Note_on_c, 0, 69, 80
2, 2928, Note_on_c, 0, 77, 80
2, 2928, Note_on_c, 0, 81, 80
2, 2929, Note_on_c, 0, 57, 80
2, 2931, Note_on_c, 0, 60, 80
2, 2945, Note_on_c, 0, 56, 0
2, 2964, Note_on_c, 0, 81, 0
2, 2964, Note_on_c, 0, 77, 0
2, 2969, Note_on_c, 0, 69, 0
2, 2977, Note_on_c, 0, 65, 0
2, 2977, Note_on_c, 0, 60, 0
2, 2977, Note_on_c, 0, 57, 0
2, 2988, Note_on_c, 0, 74, 80
2, 2988, Note_on_c, 0, 86, 80
2, 3023, Note_on_c, 0, 86, 0
2, 3027, Note_on_c, 0, 74, 0
2, 3045, Note_on_c, 0, 36, 80
2, 3045, Note_on_c, 0, 64, 80
2, 3045, Note_on_c, 0, 69, 80
2, 3045, Note_on_c, 0, 76, 80
2, 3045, Note_on_c, 0, 81, 80
2, 3053, Note_on_c, 0, 48, 80
2, 3077, Note_on_c, 0, 81, 0
2, 3082, Note_on_c, 0, 76, 0
2, 3082, Note_on_c, 0, 69, 0
2, 3082, Note_on_c, 0, 64, 0
2, 3097, Note_on_c, 0, 86, 80
2, 3099, Note_on_c, 0, 74, 80
2, 3130, Note_on_c, 0, 74, 0
2, 3137, Note_on_c, 0, 86, 0
2, 3152, Note_on_c, 0, 69, 80
2, 3154, Note_on_c, 0, 60, 80
2, 3156, Note_on_c, 0, 36, 0
2, 3156, Note_on_c, 0, 57, 80
2, 3156, Note_on_c, 0, 65, 80
2, 3156, Note_on_c, 0, 74, 80
2, 3156, Note_on_c, 0, 81, 80
2, 3169, Note_on_c, 0, 48, 0
2, 3187, Note_on_c, 0, 81, 0
2, 3193, Note_on_c, 0, 69, 0
2, 3200, Note_on_c, 0, 60, 0
2, 3200, Note_on_c, 0, 65, 0
2, 3200, Note_on_c, 0, 86, 80
2, 3202, Note_on_c, 0, 57, 0
2, 3233, Note_on_c, 0, 86, 0
2, 3238, Note_on_c, 0, 74, 0
2, 3264, Note_on_c, 0, 48, 80
2, 3268, Note_on_c, 0, 86, 80
2, 3270, Note_on_c, 0, 60, 80
2, 3270, Note_on_c, 0, 74, 80
2, 3270, Note_on_c, 0, 76, 80
2, 3270, Note_on_c, 0, 79, 80
2, 3294, Note_on_c, 0, 74, 0
2, 3294, Note_on_c, 0, 86, 0
2, 3305, Note_on_c, 0, 76, 0
2, 3313, Note_on_c, 0, 46, 80
2, 3318, Note_on_c, 0, 48, 0
2, 3318, Note_on_c, 0, 60, 0
2, 3318, Note_on_c, 0, 79, 0
2, 3323, Note_on_c, 0, 86, 80
2, 3325, Note_on_c, 0, 74, 80
2, 3330, Note_on_c, 0, 80, 80
2, 3335, Note_on_c, 0, 58, 80
2, 3391, Note_on_c, 0, 80, 0
2, 3393, Note_on_c, 0, 46, 0
2, 3395, Note_on_c, 0, 86, 0
2, 3395, Note_on_c, 0, 74, 0
2, 3408, Note_on_c, 0, 58, 0
2, 3413, Note_on_c, 0, 72, 80
2, 3427, Note_on_c, 0, 45, 80
2, 3435, Note_on_c, 0, 81, 80
2, 3449, Note_on_c, 0, 57, 80
2, 3459, Note_on_c, 0, 84, 80
2, 3559, Note_on_c, 0, 72, 0
2, 3561, Note_on_c, 0, 45, 0
2, 3572, Note_on_c, 0, 81, 0
2, 3576, Note_on_c, 0, 57, 0
2, 3581, Note_on_c, 0, 84, 0
2, 3586, Note_on_c, 0, 44, 80
2, 3612, Note_on_c, 0, 56, 80
2, 3667, Note_on_c, 0, 72, 80
2, 3677, Note_on_c, 0, 73, 80
2, 3679, Note_on_c, 0, 56, 0
2, 3679, Note_on_c, 0, 44, 0
2, 3684, Note_on_c, 0, 74, 80
2, 3695, Note_on_c, 0, 75, 80
2, 3696, Note_on_c, 0, 72, 0
2, 3696, Note_on_c, 0, 43, 80
2, 3703, Note_on_c, 0, 64, 80
2, 3703, Note_on_c, 0, 76, 80
2, 3714, Note_on_c, 0, 73, 0
2, 3719, Note_on_c, 0, 55, 80
2, 3720, Note_on_c, 0, 74, 0
2, 3731, Note_on_c, 0, 75, 0
2, 3753, Note_on_c, 0, 76, 0
2, 3755, Note_on_c, 0, 64, 0
2, 3757, Note_on_c, 0, 70, 80
2, 3757, Note_on_c, 0, 82, 80
2, 3783, Note_on_c, 0, 55, 0
2, 3790, Note_on_c, 0, 82, 0
2, 3794, Note_on_c, 0, 70, 0
2, 3810, Note_on_c, 0, 55, 80
2, 3810, Note_on_c, 0, 58, 80
2, 3810, Note_on_c, 0, 60, 80
2, 3810, Note_on_c, 0, 62, 80
2, 3810, Note_on_c, 0, 64, 80
2, 3810, Note_on_c, 0, 74, 80
2, 3810, Note_on_c, 0, 76, 80
2, 3823, Note_on_c, 0, 43, 0
2, 3845, Note_on_c, 0, 76, 0
2, 3845, Note_on_c, 0, 62, 0
2, 3845, Note_on_c, 0, 74, 0
2, 3859, Note_on_c, 0, 60, 0
2, 3859, Note_on_c, 0, 55, 0
2, 3859, Note_on_c, 0, 58, 0
2, 3859, Note_on_c, 0, 64, 0
2, 3864, Note_on_c, 0, 70, 80
2, 3864, Note_on_c, 0, 82, 80
2, 3896, Note_on_c, 0, 82, 0
2, 3898, Note_on_c, 0, 70, 0
2, 3907, Note_on_c, 0, 36, 80
2, 3913, Note_on_c, 0, 76, 80
2, 3915, Note_on_c, 0, 60, 80
2, 3915, Note_on_c, 0, 64, 80
2, 3915, Note_on_c, 0, 72, 80
2, 3929, Note_on_c, 0, 48, 80
2, 3984, Note_on_c, 0, 76, 0
2, 3988, Note_on_c, 0, 72, 0
2, 3988, Note_on_c, 0, 64, 0
2, 3988, Note_on_c, 0, 60, 0
2, 4021, Note_on_c, 0, 55, 80
2, 4021, Note_on_c, 0, 58, 80
2, 4021, Note_on_c, 0, 60, 80
2, 4021, Note_on_c, 0, 64, 80
2, 4028, Note_on_c, 0, 36, 0
2, 4038, Note_on_c, 0, 48, 0
2, 4066, Note_on_c, 0, 60, 0
2, 4066, Note_on_c, 0, 58, 0
2, 4071, Note_on_c, 0, 64, 0
2, 4071, Note_on_c, 0, 55, 0
2, 4086, Note_on_c, 0, 84, 80
2, 4105, Note_on_c, 0, 85, 80
2, 4114, Note_on_c, 0, 86, 80
2, 4123, Note_on_c, 0, 84, 0
2, 4123, Note_on_c, 0, 43, 80
2, 4125, Note_on_c, 0, 87, 80
2, 4133, Note_on_c, 0, 76, 80
2, 4133, Note_on_c, 0, 88, 80
2, 4135, Note_on_c, 0, 85, 0
2, 4142, Note_on_c, 0, 55, 80
2, 4147, Note_on_c, 0, 86, 0
2, 4160, Note_on_c, 0, 87, 0
2, 4171, Note_on_c, 0, 76, 0
2, 4173, Note_on_c, 0, 88, 0
2, 4181, Note_on_c, 0, 82, 80
2, 4181, Note_on_c, 0, 94, 80
2, 4212, Note_on_c, 0, 55, 0
2, 4217, Note_on_c, 0, 94, 0
2, 4219, Note_on_c, 0, 82, 0
2, 4234, Note_on_c, 0, 55, 80
2, 4234, Note_on_c, 0, 60, 80
2, 4234, Note_on_c, 0, 76, 80
2, 4239, Note_on_c, 0, 58, 80
2, 4239, Note_on_c, 0, 64, 80
2, 4239, Note_on_c, 0, 74, 80
2, 4239, Note_on_c, 0, 86, 80
2, 4239, Note_on_c, 0, 88, 80
2, 4249, Note_on_c, 0, 43, 0
2, 4269, Note_on_c, 0, 86, 0
2, 4269, Note_on_c, 0, 76, 0
2, 4271, Note_on_c, 0, 88, 0
2, 4272, Note_on_c, 0, 74, 0
2, 4281, Note_on_c, 0, 64, 0
2, 4281, Note_on_c, 0, 55, 0
2, 4283, Note_on_c, 0, 60, 0
2, 4283, Note_on_c, 0, 58, 0
2, 4288, Note_on_c, 0, 82, 80
2, 4288, Note_on_c, 0, 94, 80
2, 4325, Note_on_c, 0, 94, 0
2, 4325, Note_on_c, 0, 82, 0
2, 4339, Note_on_c, 0, 43, 80
2, 4345, Note_on_c, 0, 72, 80
2, 4345, Note_on_c, 0, 76, 80
2, 4345, Note_on_c, 0, 84, 80
2, 4345, Note_on_c, 0, 88, 80
2, 4359, Note_on_c, 0, 55, 80
2, 4414, Note_on_c, 0, 88, 0
2, 4414, Note_on_c, 0, 84, 0
2, 4418, Note_on_c, 0, 76, 0
2, 4418, Note_on_c, 0, 72, 0
2, 4427, Note_on_c, 0, 43, 0
2, 4438, Note_on_c, 0, 55, 0
2, 4444, Note_on_c, 0, 44, 80
2, 4466, Note_on_c, 0, 56, 80
2, 4521, Note_on_c, 0, 77, 80
2, 4532, Note_on_c, 0, 44, 0
2, 4534, Note_on_c, 0, 78, 80
2, 4542, Note_on_c, 0, 45, 80
2, 4544, Note_on_c, 0, 79, 80
2, 4546, Note_on_c, 0, 56, 0
2, 4553, Note_on_c, 0, 77, 0
2, 4555, Note_on_c, 0, 80, 80
2, 4561, Note_on_c, 0, 78, 0
2, 4563, Note_on_c, 0, 69, 80
2, 4563, Note_on_c, 0, 81, 80
2, 4572, Note_on_c, 0, 57, 80
2, 4574, Note_on_c, 0, 79, 0
2, 4581, Note_on_c, 0, 80, 0
2, 4596, Note_on_c, 0, 81, 0
2, 4601, Note_on_c, 0, 69, 0
2, 4618, Note_on_c, 0, 74, 80
2, 4620, Note_on_c, 0, 86, 80
2, 4646, Note_on_c, 0, 57, 0
2, 4653, Note_on_c, 0, 86, 0
2, 4655, Note_on_c, 0, 74, 0
2, 4670, Note_on_c, 0, 77, 80
2, 4670, Note_on_c, 0, 81, 80
2, 4672, Note_on_c, 0, 57, 80
2, 4672, Note_on_c, 0, 60, 80
2, 4672, Note_on_c, 0, 65, 80
2, 4672, Note_on_c, 0, 69, 80
2, 4691, Note_on_c, 0, 45, 0
2, 4704, Note_on_c, 0, 81, 0
2, 4704, Note_on_c, 0, 77, 0
2, 4704, Note_on_c, 0, 69, 0
2, 4715, Note_on_c, 0, 57, 0
2, 4715, Note_on_c, 0, 60, 0
2, 4720, Note_on_c, 0, 65, 0
2, 4722, Note_on_c, 0, 74, 80
2, 4722, Note_on_c, 0, 86, 80
2, 4754, Note_on_c, 0, 74, 0
2, 4759, Note_on_c, 0, 86, 0
2, 4764, Note_on_c, 0, 36, 80
2, 4773, Note_on_c, 0, 76, 80
2, 4775, Note_on_c, 0, 64, 80
2, 4775, Note_on_c, 0, 69, 80
2, 4775, Note_on_c, 0, 81, 80
2, 4783, Note_on_c, 0, 48, 80
2, 4805, Note_on_c, 0, 81, 0
2, 4810, Note_on_c, 0, 69, 0
2, 4810, Note_on_c, 0, 76, 0
2, 4812, Note_on_c, 0, 64, 0
2, 4825, Note_on_c, 0, 74, 80
2, 4827, Note_on_c, 0, 86, 80
2, 4853, Note_on_c, 0, 74, 0
2, 4860, Note_on_c, 0, 86, 0
2, 4875, Note_on_c, 0, 60, 80
2, 4880, Note_on_c, 0, 57, 80
2, 4880, Note_on_c, 0, 65, 80
2, 4880, Note_on_c, 0, 69, 80
2, 4880, Note_on_c, 0, 74, 80
2, 4880, Note_on_c, 0, 81, 80
2, 4887, Note_on_c, 0, 36, 0
2, 4894, Note_on_c, 0, 48, 0
2, 4916, Note_on_c, 0, 81, 0
2, 4920, Note_on_c, 0, 69, 0
2, 4920, Note_on_c, 0, 74, 0
2, 4934, Note_on_c, 0, 57, 0
2, 4934, Note_on_c, 0, 65, 0
2, 4934, Note_on_c, 0, 60, 0
2, 4941, Note_on_c, 0, 86, 80
2, 4943, Note_on_c, 0, 74, 80
2, 4967, Note_on_c, 0, 86, 0
2, 4971, Note_on_c, 0, 74, 0
2, 4997, Note_on_c, 0, 76, 80
2, 4997, Note_on_c, 0, 79, 80
2, 4997, Note_on_c, 0, 86, 80
2, 4999, Note_on_c, 0, 48, 80
2, 4999, Note_on_c, 0, 60, 80
2, 5023, Note_on_c, 0, 86, 0
2, 5032, Note_on_c, 0, 80, 80
2, 5040, Note_on_c, 0, 76, 0
2, 5040, Note_on_c, 0, 60, 0
2, 5040, Note_on_c, 0, 79, 0
2, 5040, Note_on_c, 0, 46, 80
2, 5042, Note_on_c, 0, 48, 0
2, 5049, Note_on_c, 0, 74, 80
2, 5056, Note_on_c, 0, 86, 80
2, 5061, Note_on_c, 0, 58, 80
2, 5124, Note_on_c, 0, 86, 0
2, 5124, Note_on_c, 0, 74, 0
2, 5124, Note_on_c, 0, 80, 0
2, 5126, Note_on_c, 0, 46, 0
2, 5136, Note_on_c, 0, 58, 0
2, 5141, Note_on_c, 0, 81, 80
2, 5157, Note_on_c, 0, 45, 80
2, 5163, Note_on_c, 0, 72, 80
2, 5174, Note_on_c, 0, 57, 80
2, 5189, Note_on_c, 0, 84, 80
2, 5285, Note_on_c, 0, 72, 0
2, 5290, Note_on_c, 0, 45, 0
2, 5292, Note_on_c, 0, 81, 0
2, 5297, Note_on_c, 0, 57, 0
2, 5302, Note_on_c, 0, 84, 0
2, 5312, Note_on_c, 0, 43, 80
2, 5334, Note_on_c, 0, 55, 80
2, 5377, Control_c, 0, 64, 127
2, 5386, Note_on_c, 0, 77, 80
2, 5397, Note_on_c, 0, 43, 0
2, 5403, Note_on_c, 0, 55, 0
2, 5403, Note_on_c, 0, 78, 80
2, 5412, Note_on_c, 0, 79, 80
2, 5414, Note_on_c, 0, 42, 80
2, 5421, Note_on_c, 0, 80, 80
2, 5423, Note_on_c, 0, 77, 0
2, 5431, Note_on_c, 0, 69, 80
2, 5431, Note_on_c, 0, 81, 80
2, 5433, Note_on_c, 0, 78, 0
2, 5440, Note_on_c, 0, 54, 80
2, 5445, Note_on_c, 0, 79, 0
2, 5453, Note_on_c, 0, 80, 0
2, 5477, Note_on_c, 0, 69, 0
2, 5482, Note_on_c, 0, 81, 0
2, 5487, Control_c, 0, 64, 0
2, 5487, Note_on_c, 0, 72, 80
2, 5492, Note_on_c, 0, 84, 80
2, 5505, Note_on_c, 0, 42, 0
2, 5516, Note_on_c, 0, 54, 0
2, 5524, Note_on_c, 0, 72, 0
2, 5524, Note_on_c, 0, 84, 0
2, 5538, Note_on_c, 0, 81, 80
2, 5540, Note_on_c, 0, 50, 80
2, 5540, Note_on_c, 0, 54, 80
2, 5540, Note_on_c, 0, 57, 80
2, 5540, Note_on_c, 0, 66, 80
2, 5540, Note_on_c, 0, 76, 80
2, 5542, Note_on_c, 0, 69, 80
2, 5542, Note_on_c, 0, 78, 80
2, 5544, Note_on_c, 0, 60, 80
2, 5574, Note_on_c, 0, 78, 0
2, 5574, Note_on_c, 0, 69, 0
2, 5574, Note_on_c, 0, 81, 0
2, 5574, Note_on_c, 0, 66, 0
2, 5574, Note_on_c, 0, 76, 0
2, 5588, Note_on_c, 0, 57, 0
2, 5588, Note_on_c, 0, 60, 0
2, 5588, Note_on_c, 0, 54, 0
2, 5588, Note_on_c, 0, 50, 0
2, 5594, Note_on_c, 0, 84, 80
2, 5596, Note_on_c, 0, 72, 80
2, 5631, Note_on_c, 0, 84, 0
2, 5636, Note_on_c, 0, 72, 0
2, 5644, Note_on_c, 0, 38, 80
2, 5651, Note_on_c, 0, 66, 80
2, 5651, Note_on_c, 0, 74, 80
2, 5656, Note_on_c, 0, 69, 80
2, 5656, Note_on_c, 0, 78, 80
2, 5656, Note_on_c, 0, 81, 80
2, 5664, Note_on_c, 0, 50, 80
2, 5723, Note_on_c, 0, 81, 0
2, 5723, Note_on_c, 0, 69, 0
2, 5723, Note_on_c, 0, 66, 0
2, 5723, Note_on_c, 0, 78, 0
2, 5728, Note_on_c, 0, 74, 0
2, 5736, Note_on_c, 0, 50, 0
2, 5767, Note_on_c, 0, 57, 80
2, 5769, Note_on_c, 0, 50, 80
2, 5769, Note_on_c, 0, 54, 80
2, 5769, Note_on_c, 0, 60, 80
2, 5788, Note_on_c, 0, 38, 0
2, 5814, Note_on_c, 0, 54, 0
2, 5814, Note_on_c, 0, 57, 0
2, 5814, Note_on_c, 0, 60, 0
2, 5816, Note_on_c, 0, 50, 0
2, 5838, Note_on_c, 0, 89, 80
2, 5847, Note_on_c, 0, 90, 80
2, 5857, Note_on_c, 0, 91, 80
2, 5866, Note_on_c, 0, 92, 80
2, 5868, Note_on_c, 0, 89, 0
2, 5873, Note_on_c, 0, 42, 80
2, 5880, Note_on_c, 0, 81, 80
2, 5880, Note_on_c, 0, 93, 80
2, 5881, Note_on_c, 0, 90, 0
2, 5888, Note_on_c, 0, 54, 80
2, 5893, Note_on_c, 0, 91, 0
2, 5904, Note_on_c, 0, 92, 0
2, 5926, Note_on_c, 0, 81, 0
2, 5926, Note_on_c, 0, 93, 0
2, 5936, Note_on_c, 0, 84, 80
2, 5936, Note_on_c, 0, 96, 80
2, 5958, Note_on_c, 0, 54, 0
2, 5972, Note_on_c, 0, 96, 0
2, 5972, Note_on_c, 0, 84, 0
2, 5991, Note_on_c, 0, 81, 80
2, 5991, Note_on_c, 0, 88, 80
2, 5991, Note_on_c, 0, 90, 80
2, 5991, Note_on_c, 0, 93, 80
2, 5993, Note_on_c, 0, 50, 80
2, 5993, Note_on_c, 0, 54, 80
2, 5993, Note_on_c, 0, 57, 80
2, 5993, Note_on_c, 0, 60, 80
2, 5993, Note_on_c, 0, 78, 80
2, 6006, Note_on_c, 0, 42, 0
2, 6022, Note_on_c, 0, 93, 0
2, 6026, Note_on_c, 0, 81, 0
2, 6026, Note_on_c, 0, 90, 0
2, 6026, Note_on_c, 0, 88, 0
2, 6028, Note_on_c, 0, 78, 0
2, 6035, Note_on_c, 0, 60, 0
2, 6035, Note_on_c, 0, 57, 0
2, 6035, Note_on_c, 0, 54, 0
2, 6035, Note_on_c, 0, 50, 0
2, 6046, Note_on_c, 0, 84, 80
2, 6046, Note_on_c, 0, 96, 80
2, 6076, Note_on_c, 0, 84, 0
2, 6078, Note_on_c, 0, 96, 0
2, 6087, Note_on_c, 0, 38, 80
2, 6096, Note_on_c, 0, 93, 80
2, 6097, Note_on_c, 0, 78, 80
2, 6097, Note_on_c, 0, 81, 80
2, 6097, Note_on_c, 0, 86, 80
2, 6097, Note_on_c, 0, 90, 80
2, 6106, Note_on_c, 0, 50, 80
2, 6156, Note_on_c, 0, 93, 0
2, 6161, Note_on_c, 0, 86, 0
2, 6161, Note_on_c, 0, 81, 0
2, 6161, Note_on_c, 0, 78, 0
2, 6163, Note_on_c, 0, 90, 0
2, 6171, Note_on_c, 0, 50, 0
2, 6197, Note_on_c, 0, 50, 80
2, 6197, Note_on_c, 0, 57, 80
2, 6197, Note_on_c, 0, 60, 80
2, 6202, Note_on_c, 0, 54, 80
2, 6216, Note_on_c, 0, 38, 0
2, 6243, Note_on_c, 0, 60, 0
2, 6248, Note_on_c, 0, 50, 0
2, 6248, Note_on_c, 0, 57, 0
2, 6248, Note_on_c, 0, 54, 0
2, 6300, Note_on_c, 0, 34, 80
2, 6309, Note_on_c, 0, 70, 80
2, 6311, Note_on_c, 0, 82, 80
2, 6319, Note_on_c, 0, 46, 80
2, 6345, Note_on_c, 0, 82, 0
2, 6350, Note_on_c, 0, 70, 0
2, 6360, Note_on_c, 0, 81, 80
2, 6362, Note_on_c, 0, 69, 80
2, 6400, Note_on_c, 0, 69, 0
2, 6400, Note_on_c, 0, 81, 0
2, 6415, Note_on_c, 0, 55, 80
2, 6415, Note_on_c, 0, 58, 80
2, 6415, Note_on_c, 0, 62, 80
2, 6415, Note_on_c, 0, 70, 80
2, 6420, Note_on_c, 0, 82, 80
2, 6427, Note_on_c, 0, 34, 0
2, 6433, Note_on_c, 0, 46, 0
2, 6451, Note_on_c, 0, 70, 0
2, 6453, Note_on_c, 0, 82, 0
2, 6466, Note_on_c, 0, 58, 0
2, 6466, Note_on_c, 0, 55, 0
2, 6466, Note_on_c, 0, 62, 0
2, 6473, Note_on_c, 0, 76, 80
2, 6473, Note_on_c, 0, 79, 80
2, 6473, Note_on_c, 0, 88, 80
2, 6481, Note_on_c, 0, 82, 80
2, 6514, Note_on_c, 0, 43, 80
2, 6529, Note_on_c, 0, 55, 80
2, 6543, Note_on_c, 0, 88, 0
2, 6548, Note_on_c, 0, 82, 0
2, 6552, Note_on_c, 0, 76, 0
2, 6552, Note_on_c, 0, 79, 0
2, 6587, Note_on_c, 0, 75, 80
2, 6587, Note_on_c, 0, 87, 80
2, 6615, Note_on_c, 0, 87, 0
2, 6615, Note_on_c, 0, 75, 0
2, 6625, Note_on_c, 0, 62, 80
2, 6627, Note_on_c, 0, 76, 80
2, 6627, Note_on_c, 0, 82, 80
2, 6627, Note_on_c, 0, 88, 80
2, 6629, Note_on_c, 0, 58, 80
2, 6631, Note_on_c, 0, 79, 80
2, 6642, Note_on_c, 0, 43, 0
2, 6670, Control_c, 0, 64, 127
2, 6674, Note_on_c, 0, 55, 0
2, 6674, Note_on_c, 0, 62, 0
2, 6674, Note_on_c, 0, 58, 0
2, 6683, Note_on_c, 0, 82, 0
2, 6683, Note_on_c, 0, 88, 0
2, 6688, Note_on_c, 0, 79, 0
2, 6688, Note_on_c, 0, 76, 0
2, 6736, Note_on_c, 0, 55, 80
2, 6741, Note_on_c, 0, 82, 80
2, 6741, Note_on_c, 0, 86, 80
2, 6743, Note_on_c, 0, 43, 80
2, 6767, Note_on_c, 0, 86, 0
2, 6767, Note_on_c, 0, 82, 0
2, 6775, Note_on_c, 0, 79, 80
2, 6777, Note_on_c, 0, 74, 80
2, 6779, Control_c, 0, 64, 0
2, 6786, Note_on_c, 0, 43, 0
2, 6791, Note_on_c, 0, 55, 0
2, 6795, Note_on_c, 0, 57, 80
2, 6797, Note_on_c, 0, 79, 0
2, 6797, Note_on_c, 0, 45, 80
2, 6797, Note_on_c, 0, 82, 80
2, 6797, Note_on_c, 0, 86, 80
2, 6799, Note_on_c, 0, 74, 0
2, 6821, Note_on_c, 0, 82, 0
2, 6821, Note_on_c, 0, 86, 0
2, 6826, Note_on_c, 0, 74, 80
2, 6833, Note_on_c, 0, 79, 80
2, 6843, Note_on_c, 0, 57, 0
2, 6845, Note_on_c, 0, 58, 80
2, 6847, Note_on_c, 0, 45, 0
2, 6849, Note_on_c, 0, 46, 80
2, 6849, Note_on_c, 0, 82, 80
2, 6849, Note_on_c, 0, 86, 80
2, 6854, Note_on_c, 0, 79, 0
2, 6856, Note_on_c, 0, 74, 0
2, 6873, Note_on_c, 0, 82, 0
2, 6873, Note_on_c, 0, 86, 0
2, 6880, Note_on_c, 0, 74, 80
2, 6885, Note_on_c, 0, 79, 80
2, 6889, Note_on_c, 0, 50, 80
2, 6898, Note_on_c, 0, 58, 0
2, 6900, Note_on_c, 0, 46, 0
2, 6900, Note_on_c, 0, 82, 80
2, 6905, Note_on_c, 0, 86, 80
2, 6907, Note_on_c, 0, 79, 0
2, 6909, Note_on_c, 0, 74, 0
2, 6913, Note_on_c, 0, 62, 80
2, 6931, Note_on_c, 0, 86, 0
2, 6931, Note_on_c, 0, 82, 0
2, 6933, Note_on_c, 0, 74, 80
2, 6933, Note_on_c, 0, 79, 80
2, 6957, Note_on_c, 0, 82, 80
2, 6957, Note_on_c, 0, 86, 80
2, 6959, Note_on_c, 0, 79, 0
2, 6959, Note_on_c, 0, 74, 0
2, 6978, Note_on_c, 0, 82, 0
2, 6978, Note_on_c, 0, 86, 0
2, 6986, Note_on_c, 0, 74, 80
2, 6988, Note_on_c, 0, 79, 80
2, 7014, Note_on_c, 0, 79, 0
2, 7014, Note_on_c, 0, 74, 0
2, 7014, Note_on_c, 0, 82, 80
2, 7021, Note_on_c, 0, 86, 80
2, 7028, Note_on_c, 0, 50, 0
2, 7036, Note_on_c, 0, 62, 0
2, 7038, Note_on_c, 0, 82, 0
2, 7043, Note_on_c, 0, 86, 0
2, 7043, Note_on_c, 0, 74, 80
2, 7043, Note_on_c, 0, 79, 80
2, 7069, Note_on_c, 0, 79, 0
2, 7069, Note_on_c, 0, 74, 0
2, 7167, Note_on_c, 0, 34, 80
2, 7176, Note_on_c, 0, 86, 80
2, 7177, Note_on_c, 0, 74, 80
2, 7191, Note_on_c, 0, 46, 80
2, 7215, Note_on_c, 0, 74, 0
2, 7215, Note_on_c, 0, 86, 0
2, 7230, Note_on_c, 0, 73, 80
2, 7230, Note_on_c, 0, 85, 80
2, 7263, Note_on_c, 0, 85, 0
2, 7263, Note_on_c, 0, 73, 0
2, 7280, Note_on_c, 0, 55, 80
2, 7280, Note_on_c, 0, 62, 80
2, 7282, Note_on_c, 0, 86, 80
2, 7284, Note_on_c, 0, 58, 80
2, 7284, Note_on_c, 0, 74, 80
2, 7291, Note_on_c, 0, 34, 0
2, 7297, Note_on_c, 0, 46, 0
2, 7315, Note_on_c, 0, 86, 0
2, 7320, Note_on_c, 0, 74, 0
2, 7328, Note_on_c, 0, 62, 0
2, 7328, Note_on_c, 0, 55, 0
2, 7333, Note_on_c, 0, 58, 0
2, 7335, Note_on_c, 0, 91, 80
2, 7340, Note_on_c, 0, 79, 80
2, 7340, Note_on_c, 0, 82, 80
2, 7346, Note_on_c, 0, 86, 80
2, 7379, Note_on_c, 0, 43, 80
2, 7390, Note_on_c, 0, 86, 0
2, 7394, Note_on_c, 0, 82, 0
2, 7394, Note_on_c, 0, 91, 0
2, 7394, Note_on_c, 0, 79, 0
2, 7405, Note_on_c, 0, 55, 80
2, 7442, Note_on_c, 0, 77, 80
2, 7442, Note_on_c, 0, 89, 80
2, 7462, Note_on_c, 0, 43, 0
2, 7468, Note_on_c, 0, 55, 0
2, 7475, Note_on_c, 0, 89, 0
2, 7480, Note_on_c, 0, 77, 0
2, 7487, Note_on_c, 0, 44, 80
2, 7495, Note_on_c, 0, 76, 80
2, 7500, Note_on_c, 0, 88, 80
2, 7509, Note_on_c, 0, 56, 80
2, 7535, Note_on_c, 0, 88, 0
2, 7535, Note_on_c, 0, 76, 0
2, 7554, Note_on_c, 0, 74, 80
2, 7554, Note_on_c, 0, 86, 80
2, 7567, Note_on_c, 0, 44, 0
2, 7578, Note_on_c, 0, 56, 0
2, 7586, Note_on_c, 0, 86, 0
2, 7588, Note_on_c, 0, 74, 0
2, 7597, Note_on_c, 0, 45, 80
2, 7606, Note_on_c, 0, 81, 80
2, 7606, Note_on_c, 0, 89, 80
2, 7608, Note_on_c, 0, 77, 80
2, 7608, Note_on_c, 0, 84, 80
2, 7616, Note_on_c, 0, 57, 80
2, 7632, Note_on_c, 0, 84, 0
2, 7632, Note_on_c, 0, 81, 0
2, 7640, Note_on_c, 0, 89, 0
2, 7651, Note_on_c, 0, 77, 0
2, 7659, Note_on_c, 0, 76, 80
2, 7659, Note_on_c, 0, 81, 80
2, 7659, Note_on_c, 0, 84, 80
2, 7659, Note_on_c, 0, 88, 80
2, 7675, Note_on_c, 0, 45, 0
2, 7685, Note_on_c, 0, 57, 0
2, 7701, Note_on_c, 0, 43, 80
2, 7716, Note_on_c, 0, 84, 0
2, 7716, Note_on_c, 0, 76, 0
2, 7716, Note_on_c, 0, 81, 0
2, 7716, Note_on_c, 0, 88, 0
2, 7723, Note_on_c, 0, 55, 80
2, 7755, Note_on_c, 0, 74, 80
2, 7771, Note_on_c, 0, 81, 80
2, 7777, Note_on_c, 0, 84, 80
2, 7784, Note_on_c, 0, 43, 0
2, 7789, Note_on_c, 0, 86, 80
2, 7791, Note_on_c, 0, 55, 0
2, 7810, Note_on_c, 0, 42, 80
2, 7825, Note_on_c, 0, 54, 80
2, 7865, Note_on_c, 0, 74, 0
2, 7875, Note_on_c, 0, 81, 0
2, 7886, Note_on_c, 0, 42, 0
2, 7886, Note_on_c, 0, 84, 0
2, 7896, Note_on_c, 0, 86, 0
2, 7910, Note_on_c, 0, 54, 0
2, 7951, Control_c, 0, 64, 127
2, 7997, Note_on_c, 0, 72, 80
2, 8006, Note_on_c, 0, 73, 80
2, 8016, Note_on_c, 0, 74, 80
2, 8025, Note_on_c, 0, 75, 80
2, 8027, Note_on_c, 0, 43, 80
2, 8032, Note_on_c, 0, 72, 0
2, 8037, Note_on_c, 0, 64, 80
2, 8041, Note_on_c, 0, 76, 80
2, 8043, Note_on_c, 0, 73, 0
2, 8045, Note_on_c, 0, 55, 80
2, 8052, Note_on_c, 0, 74, 0
2, 8057, Control_c, 0, 64, 0
2, 8064, Note_on_c, 0, 75, 0
2, 8072, Note_on_c, 0, 76, 0
2, 8077, Note_on_c, 0, 64, 0
2, 8092, Note_on_c, 0, 72, 80
2, 8092, Note_on_c, 0, 84, 80
2, 8116, Note_on_c, 0, 55, 0
2, 8123, Note_on_c, 0, 84, 0
2, 8128, Note_on_c, 0, 72, 0
2, 8143, Note_on_c, 0, 55, 80
2, 8143, Note_on_c, 0, 60, 80
2, 8148, Note_on_c, 0, 64, 80
2, 8148, Note_on_c, 0, 70, 80
2, 8148, Note_on_c, 0, 76, 80
2, 8148, Note_on_c, 0, 82, 80
2, 8150, Note_on_c, 0, 58, 80
2, 8150, Note_on_c, 0, 74, 80
2, 8160, Note_on_c, 0, 43, 0
2, 8183, Note_on_c, 0, 74, 0
2, 8183, Note_on_c, 0, 70, 0
2, 8183, Note_on_c, 0, 76, 0
2, 8183, Note_on_c, 0, 82, 0
2, 8191, Note_on_c, 0, 60, 0
2, 8196, Note_on_c, 0, 58, 0
2, 8196, Note_on_c, 0, 64, 0
2, 8196, Note_on_c, 0, 55, 0
2, 8205, Note_on_c, 0, 84, 80
2, 8207, Note_on_c, 0, 72, 80
2, 8239, Note_on_c, 0, 84, 0
2, 8244, Note_on_c, 0, 36, 80
2, 8261, Note_on_c, 0, 69, 80
2, 8261, Note_on_c, 0, 76, 80
2, 8261, Note_on_c, 0, 81, 80
2, 8272, Note_on_c, 0, 48, 80
2, 8287, Note_on_c, 0, 76, 0
2, 8296, Note_on_c, 0, 81, 0
2, 8301, Note_on_c, 0, 69, 0
2, 8301, Note_on_c, 0, 72, 0
2, 8316, Note_on_c, 0, 67, 80
2, 8316, Note_on_c, 0, 70, 80
2, 8316, Note_on_c, 0, 76, 80
2, 8321, Note_on_c, 0, 79, 80
2, 8369, Note_on_c, 0, 55, 80
2, 8374, Note_on_c, 0, 70, 0
2, 8374, Note_on_c, 0, 67, 0
2, 8374, Note_on_c, 0, 58, 80
2, 8374, Note_on_c, 0, 60, 80
2, 8374, Note_on_c, 0, 64, 80
2, 8376, Note_on_c, 0, 36, 0
2, 8376, Note_on_c, 0, 79, 0
2, 8377, Note_on_c, 0, 76, 0
2, 8386, Note_on_c, 0, 48, 0
2, 8419, Note_on_c, 0, 55, 0
2, 8424, Note_on_c, 0, 60, 0
2, 8424, Note_on_c, 0, 64, 0
2, 8424, Note_on_c, 0, 58, 0
2, 8432, Note_on_c, 0, 65, 80
2, 8432, Note_on_c, 0, 72, 80
2, 8439, Note_on_c, 0, 69, 80
2, 8439, Note_on_c, 0, 77, 80
2, 8489, Note_on_c, 0, 41, 80
2, 8508, Note_on_c, 0, 41, 0
2, 8515, Note_on_c, 0, 53, 80
2, 8537, Note_on_c, 0, 41, 80
2, 8545, Note_on_c, 0, 53, 0
2, 8545, Note_on_c, 0, 69, 0
2, 8545, Note_on_c, 0, 77, 0
2, 8545, Note_on_c, 0, 65, 0
2, 8545, Note_on_c, 0, 72, 0
2, 8565, Note_on_c, 0, 41, 0
2, 8573, Note_on_c, 0, 53, 80
2, 8587, Note_on_c, 0, 84, 80
2, 8589, Note_on_c, 0, 41, 80
2, 8589, Note_on_c, 0, 72, 80
2, 8597, Note_on_c, 0, 53, 0
2, 8615, Note_on_c, 0, 84, 0
2, 8619, Note_on_c, 0, 41, 0
2, 8619, Note_on_c, 0, 72, 0
2, 8626, Note_on_c, 0, 53, 80
2, 8645, Note_on_c, 0, 41, 80
2, 8647, Note_on_c, 0, 72, 80
2, 8647, Note_on_c, 0, 84, 80
2, 8654, Note_on_c, 0, 53, 0
2, 8669, Note_on_c, 0, 84, 0
2, 8669, Note_on_c, 0, 72, 0
2, 8671, Note_on_c, 0, 41, 0
2, 8678, Note_on_c, 0, 53, 80
2, 8702, Note_on_c, 0, 41, 80
2, 8707, Note_on_c, 0, 53, 0
2, 8707, Note_on_c, 0, 72, 80
2, 8707, Note_on_c, 0, 84, 80
2, 8729, Note_on_c, 0, 41, 0
2, 8736, Note_on_c, 0, 53, 80
2, 8746, Note_on_c, 0, 84, 0
2, 8751, Note_on_c, 0, 72, 0
2, 8760, Note_on_c, 0, 41, 80
2, 8764, Note_on_c, 0, 53, 0
2, 8784, Note_on_c, 0, 41, 0
2, 8790, Note_on_c, 0, 53, 80
2, 8804, Note_on_c, 0, 42, 80
2, 8810, Note_on_c, 0, 93, 90
2, 8812, Note_on_c, 0, 84, 90
2, 8812, Note_on_c, 0, 96, 90
2, 8814, Note_on_c, 0, 87, 90
2, 8816, Note_on_c, 0, 53, 0
2, 8816, Note_on_c, 0, 54, 80
2, 8851, Note_on_c, 0, 93, 0
2, 8851, Note_on_c, 0, 87, 0
2, 8856, Note_on_c, 0, 84, 0
2, 8856, Note_on_c, 0, 96, 0
2, 8886, Note_on_c, 0, 54, 0
2, 8888, Note_on_c, 0, 42, 0
2, 8904, Control_c, 0, 64, 127
2, 8912, Note_on_c, 0, 43, 80
2, 8912, Note_on_c, 0, 84, 80
2, 8914, Note_on_c, 0, 96, 80
2, 8923, Note_on_c, 0, 55, 80
2, 8949, Note_on_c, 0, 96, 0
2, 8949, Note_on_c, 0, 84, 0
2, 8964, Note_on_c, 0, 94, 80
2, 8969, Note_on_c, 0, 82, 80
2, 8984, Control_c, 0, 64, 0
2, 8991, Note_on_c, 0, 55, 0
2, 9000, Note_on_c, 0, 82, 0
2, 9000, Note_on_c, 0, 94, 0
2, 9025, Note_on_c, 0, 55, 80
2, 9025, Note_on_c, 0, 60, 80
2, 9027, Note_on_c, 0, 64, 80
2, 9027, Note_on_c, 0, 91, 80
2, 9029, Note_on_c, 0, 58, 80
2, 9029, Note_on_c, 0, 79, 80
2, 9038, Note_on_c, 0, 43, 0
2, 9062, Note_on_c, 0, 91, 0
2, 9062, Note_on_c, 0, 79, 0
2, 9075, Note_on_c, 0, 64, 0
2, 9075, Note_on_c, 0, 55, 0
2, 9075, Note_on_c, 0, 60, 0
2, 9075, Note_on_c, 0, 58, 0
2, 9082, Note_on_c, 0, 76, 80
2, 9082, Note_on_c, 0, 88, 80
2, 9115, Note_on_c, 0, 88, 0
2, 9120, Note_on_c, 0, 76, 0
2, 9124, Note_on_c, 0, 36, 80
2, 9138, Note_on_c, 0, 72, 80
2, 9138, Note_on_c, 0, 84, 80
2, 9146, Note_on_c, 0, 48, 80
2, 9170, Note_on_c, 0, 84, 0
2, 9170, Note_on_c, 0, 72, 0
2, 9190, Note_on_c, 0, 70, 80
2, 9190, Note_on_c, 0, 82, 80
2, 9227, Note_on_c, 0, 82, 0
2, 9227, Note_on_c, 0, 70, 0
2, 9244, Note_on_c, 0, 55, 80
2, 9244, Note_on_c, 0, 58, 80
2, 9244, Note_on_c, 0, 60, 80
2, 9244, Note_on_c, 0, 64, 80
2, 9244, Note_on_c, 0, 67, 80
2, 9246, Note_on_c, 0, 36, 0
2, 9246, Note_on_c, 0, 79, 80
2, 9257, Note_on_c, 0, 48, 0
2, 9270, Note_on_c, 0, 64, 0
2, 9281, Note_on_c, 0, 67, 0
2, 9281, Note_on_c, 0, 79, 0
2, 9289, Note_on_c, 0, 58, 0
2, 9289, Note_on_c, 0, 55, 0
2, 9294, Note_on_c, 0, 60, 0
2, 9301, Note_on_c, 0, 64, 80
2, 9301, Note_on_c, 0, 76, 80
2, 9338, Note_on_c, 0, 76, 0
2, 9340, Note_on_c, 0, 64, 0
2, 9347, Note_on_c, 0, 41, 80
2, 9356, Note_on_c, 0, 84, 80
2, 9358, Note_on_c, 0, 77, 80
2, 9358, Note_on_c, 0, 81, 80
2, 9360, Note_on_c, 0, 74, 80
2, 9366, Note_on_c, 0, 53, 80
2, 9375, Note_on_c, 0, 84, 0
2, 9380, Note_on_c, 0, 77, 0
2, 9384, Note_on_c, 0, 81, 0
2, 9384, Note_on_c, 0, 74, 0
2, 9408, Note_on_c, 0, 74, 80
2, 9408, Note_on_c, 0, 77, 80
2, 9408, Note_on_c, 0, 81, 80
2, 9408, Note_on_c, 0, 84, 80
2, 9463, Note_on_c, 0, 57, 80
2, 9463, Note_on_c, 0, 65, 80
2, 9468, Note_on_c, 0, 60, 80
2, 9475, Note_on_c, 0, 77, 0
2, 9477, Note_on_c, 0, 41, 0
2, 9479, Note_on_c, 0, 53, 0
2, 9479, Note_on_c, 0, 81, 0
2, 9479, Note_on_c, 0, 74, 0
2, 9479, Note_on_c, 0, 84, 0
2, 9511, Note_on_c, 0, 60, 0
2, 9511, Note_on_c, 0, 65, 0
2, 9511, Note_on_c, 0, 57, 0
2, 9518, Note_on_c, 0, 81, 80
2, 9523, Note_on_c, 0, 77, 80
2, 9523, Note_on_c, 0, 84, 80
2, 9525, Note_on_c, 0, 74, 80
2, 9566, Note_on_c, 0, 41, 80
2, 9585, Note_on_c, 0, 84, 0
2, 9585, Note_on_c, 0, 81, 0
2, 9590, Note_on_c, 0, 77, 0
2, 9590, Note_on_c, 0, 53, 80
2, 9595, Note_on_c, 0, 74, 0
2, 9636, Note_on_c, 0, 72, 80
2, 9636, Note_on_c, 0, 84, 80
2, 9658, Note_on_c, 0, 84, 0
2, 9658, Note_on_c, 0, 72, 0
2, 9658, Note_on_c, 0, 81, 80
2, 9660, Note_on_c, 0, 41, 0
2, 9669, Note_on_c, 0, 53, 0
2, 9677, Note_on_c, 0, 42, 80
2, 9684, Note_on_c, 0, 72, 80
2, 9689, Note_on_c, 0, 84, 80
2, 9694, Note_on_c, 0, 75, 80
2, 9702, Note_on_c, 0, 54, 80
2, 9742, Note_on_c, 0, 81, 0
2, 9744, Note_on_c, 0, 84, 0
2, 9745, Note_on_c, 0, 75, 0
2, 9745, Note_on_c, 0, 72, 0
2, 9768, Note_on_c, 0, 42, 0
2, 9778, Note_on_c, 0, 54, 0
2, 9783, Note_on_c, 0, 43, 80
2, 9792, Note_on_c, 0, 76, 80
2, 9796, Note_on_c, 0, 72, 80
2, 9796, Note_on_c, 0, 82, 80
2, 9796, Note_on_c, 0, 84, 80
2, 9810, Note_on_c, 0, 55, 80
2, 9820, Note_on_c, 0, 84, 0
2, 9820, Note_on_c, 0, 72, 0
2, 9825, Note_on_c, 0, 82, 0
2, 9825, Note_on_c, 0, 76, 0
2, 9853, Note_on_c, 0, 72, 80
2, 9853, Note_on_c, 0, 76, 80
2, 9853, Note_on_c, 0, 82, 80
2, 9853, Note_on_c, 0, 84, 80
2, 9881, Note_on_c, 0, 55, 0
2, 9905, Note_on_c, 0, 55, 80
2, 9905, Note_on_c, 0, 60, 80
2, 9905, Note_on_c, 0, 64, 80
2, 9910, Note_on_c, 0, 58, 80
2, 9920, Note_on_c, 0, 82, 0
2, 9920, Note_on_c, 0, 76, 0
2, 9920, Note_on_c, 0, 84, 0
2, 9925, Note_on_c, 0, 72, 0
2, 9927, Note_on_c, 0, 43, 0
2, 9951, Note_on_c, 0, 60, 0
2, 9951, Note_on_c, 0, 55, 0
2, 9956, Note_on_c, 0, 64, 0
2, 9956, Note_on_c, 0, 58, 0
2, 9960, Note_on_c, 0, 72, 80
2, 9965, Note_on_c, 0, 76, 80
2, 9965, Note_on_c, 0, 82, 80
2, 9965, Note_on_c, 0, 84, 80
2, 10003, Note_on_c, 0, 43, 80
2, 10009, Note_on_c, 0, 76, 0
2, 10009, Note_on_c, 0, 72, 0
2, 10018, Note_on_c, 0, 82, 0
2, 10032, Note_on_c, 0, 84, 0
2, 10032, Note_on_c, 0, 55, 80
2, 10078, Note_on_c, 0, 74, 80
2, 10078, Note_on_c, 0, 86, 80
2, 10093, Note_on_c, 0, 83, 80
2, 10098, Note_on_c, 0, 43, 0
2, 10103, Note_on_c, 0, 86, 0
2, 10103, Note_on_c, 0, 74, 0
2, 10113, Note_on_c, 0, 55, 0
2, 10113, Note_on_c, 0, 44, 80
2, 10128, Note_on_c, 0, 74, 80
2, 10128, Note_on_c, 0, 77, 80
2, 10128, Note_on_c, 0, 86, 80
2, 10133, Note_on_c, 0, 56, 80
2, 10185, Note_on_c, 0, 83, 0
2, 10192, Note_on_c, 0, 86, 0
2, 10192, Note_on_c, 0, 77, 0
2, 10192, Note_on_c, 0, 74, 0
2, 10205, Note_on_c, 0, 44, 0
2, 10212, Note_on_c, 0, 56, 0
2, 10217, Control_c, 0, 64, 127
2, 10224, Note_on_c, 0, 45, 80
2, 10228, Note_on_c, 0, 77, 80
2, 10228, Note_on_c, 0, 81, 80
2, 10233, Note_on_c, 0, 74, 80
2, 10235, Note_on_c, 0, 86, 80
2, 10240, Note_on_c, 0, 57, 80
2, 10257, Note_on_c, 0, 86, 0
2, 10257, Note_on_c, 0, 74, 0
2, 10257, Note_on_c, 0, 81, 0
2, 10257, Note_on_c, 0, 77, 0
2, 10283, Note_on_c, 0, 74, 80
2, 10283, Note_on_c, 0, 77, 80
2, 10283, Note_on_c, 0, 81, 80
2, 10283, Note_on_c, 0, 86, 80
2, 10288, Control_c, 0, 64, 0
2, 10307, Note_on_c, 0, 57, 0
2, 10333, Note_on_c, 0, 81, 0
2, 10333, Note_on_c, 0, 86, 0
2, 10333, Note_on_c, 0, 60, 80
2, 10338, Note_on_c, 0, 74, 0
2, 10338, Note_on_c, 0, 77, 0
2, 10338, Note_on_c, 0, 57, 80
2, 10338, Note_on_c, 0, 65, 80
2, 10351, Note_on_c, 0, 45, 0
2, 10379, Note_on_c, 0, 60, 0
2, 10384, Note_on_c, 0, 57, 0
2, 10384, Note_on_c, 0, 65, 0
2, 10391, Note_on_c, 0, 77, 80
2, 10391, Note_on_c, 0, 81, 80
2, 10392, Note_on_c, 0, 74, 80
2, 10392, Note_on_c, 0, 86, 80
2, 10430, Note_on_c, 0, 48, 80
2, 10445, Note_on_c, 0, 86, 0
2, 10445, Note_on_c, 0, 81, 0
2, 10445, Note_on_c, 0, 77, 0
2, 10447, Note_on_c, 0, 74, 0
2, 10447, Note_on_c, 0, 60, 80
2, 10497, Note_on_c, 0, 72, 80
2, 10497, Note_on_c, 0, 84, 80
2, 10519, Note_on_c, 0, 48, 0
2, 10528, Note_on_c, 0, 60, 0
2, 10528, Note_on_c, 0, 72, 0
2, 10528, Note_on_c, 0, 84, 0
2, 10536, Note_on_c, 0, 45, 80
2, 10543, Note_on_c, 0, 77, 80
2, 10548, Note_on_c, 0, 89, 80
2, 10553, Note_on_c, 0, 57, 80
2, 10584, Note_on_c, 0, 77, 0
2, 10588, Note_on_c, 0, 89, 0
2, 10606, Note_on_c, 0, 81, 80
2, 10606, Note_on_c, 0, 93, 80
2, 10632, Note_on_c, 0, 45, 0
2, 10633, Note_on_c, 0, 93, 0
2, 10638, Note_on_c, 0, 81, 0
2, 10638, Note_on_c, 0, 57, 0
2, 10647, Note_on_c, 0, 43, 80
2, 10657, Note_on_c, 0, 84, 80
2, 10657, Note_on_c, 0, 96, 80
2, 10673, Note_on_c, 0, 55, 80
2, 10697, Note_on_c, 0, 96, 0
2, 10702, Note_on_c, 0, 84, 0
2, 10719, Note_on_c, 0, 82, 80
2, 10719, Note_on_c, 0, 94, 80
2, 10745, Note_on_c, 0, 55, 0
2, 10753, Note_on_c, 0, 94, 0
2, 10760, Note_on_c, 0, 82, 0
2, 10771, Note_on_c, 0, 58, 80
2, 10771, Note_on_c, 0, 60, 80
2, 10771, Note_on_c, 0, 64, 80
2, 10773, Note_on_c, 0, 55, 80
2, 10775, Note_on_c, 0, 79, 80
2, 10775, Note_on_c, 0, 91, 80
2, 10790, Note_on_c, 0, 43, 0
2, 10807, Note_on_c, 0, 91, 0
2, 10809, Note_on_c, 0, 79, 0
2, 10820, Note_on_c, 0, 60, 0
2, 10822, Note_on_c, 0, 58, 0
2, 10822, Note_on_c, 0, 64, 0
2, 10822, Note_on_c, 0, 55, 0
2, 10824, Note_on_c, 0, 76, 80
2, 10828, Note_on_c, 0, 88, 80
2, 10863, Note_on_c, 0, 88, 0
2, 10863, Note_on_c, 0, 76, 0
2, 10865, Note_on_c, 0, 36, 80
2, 10880, Note_on_c, 0, 72, 80
2, 10880, Note_on_c, 0, 84, 80
2, 10891, Note_on_c, 0, 48, 80
2, 10913, Note_on_c, 0, 84, 0
2, 10920, Note_on_c, 0, 72, 0
2, 10937, Note_on_c, 0, 70, 80
2, 10937, Note_on_c, 0, 82, 80
2, 10974, Note_on_c, 0, 82, 0
2, 10974, Note_on_c, 0, 70, 0
2, 10992, Note_on_c, 0, 55, 80
2, 10992, Note_on_c, 0, 58, 80
2, 10992, Note_on_c, 0, 60, 80
2, 10992, Note_on_c, 0, 64, 80
2, 10996, Note_on_c, 0, 67, 80
2, 10996, Note_on_c, 0, 79, 80
2, 10998, Note_on_c, 0, 36, 0
2, 11012, Note_on_c, 0, 48, 0
2, 11018, Note_on_c, 0, 64, 0
2, 11029, Note_on_c, 0, 67, 0
2, 11034, Note_on_c, 0, 79, 0
2, 11042, Note_on_c, 0, 60, 0
2, 11047, Note_on_c, 0, 55, 0
2, 11047, Note_on_c, 0, 58, 0
2, 11047, Note_on_c, 0, 64, 80
2, 11052, Note_on_c, 0, 76, 80
2, 11087, Note_on_c, 0, 64, 0
2, 11091, Note_on_c, 0, 76, 0
2, 11100, Note_on_c, 0, 41, 80
2, 11107, Note_on_c, 0, 74, 80
2, 11107, Note_on_c, 0, 81, 80
2, 11112, Note_on_c, 0, 77, 80
2, 11112, Note_on_c, 0, 84, 80
2, 11116, Note_on_c, 0, 53, 80
2, 11134, Note_on_c, 0, 84, 0
2, 11134, Note_on_c, 0, 77, 0
2, 11134, Note_on_c, 0, 81, 0
2, 11134, Note_on_c, 0, 74, 0
2, 11160, Note_on_c, 0, 81, 80
2, 11161, Note_on_c, 0, 77, 80
2, 11161, Note_on_c, 0, 84, 80
2, 11163, Note_on_c, 0, 74, 80
2, 11215, Note_on_c, 0, 57, 80
2, 11215, Note_on_c, 0, 60, 80
2, 11215, Note_on_c, 0, 65, 80
2, 11220, Note_on_c, 0, 74, 0
2, 11220, Note_on_c, 0, 77, 0
2, 11220, Note_on_c, 0, 81, 0
2, 11220, Note_on_c, 0, 84, 0
2, 11220, Note_on_c, 0, 41, 0
2, 11231, Note_on_c, 0, 53, 0
2, 11261, Note_on_c, 0, 60, 0
2, 11266, Note_on_c, 0, 57, 0
2, 11266, Note_on_c, 0, 65, 0
2, 11273, Note_on_c, 0, 74, 80
2, 11286, Note_on_c, 0, 77, 80
2, 11295, Note_on_c, 0, 81, 80
2, 11305, Note_on_c, 0, 86, 80
2, 11316, Note_on_c, 0, 38, 80
2, 11333, Note_on_c, 0, 50, 80
2, 11385, Note_on_c, 0, 74, 0
2, 11392, Note_on_c, 0, 77, 0
2, 11392, Note_on_c, 0, 81, 0
2, 11400, Note_on_c, 0, 86, 0
2, 11400, Note_on_c, 0, 38, 0
2, 11400, Note_on_c, 0, 89, 80
2, 11414, Note_on_c, 0, 50, 0
2, 11421, Note_on_c, 0, 35, 80
2, 11434, Note_on_c, 0, 77, 80
2, 11434, Note_on_c, 0, 81, 80
2, 11434, Note_on_c, 0, 84, 80
2, 11441, Note_on_c, 0, 47, 80
2, 11473, Control_c, 0, 64, 127
2, 11489, Note_on_c, 0, 84, 0
2, 11489, Note_on_c, 0, 77, 0
2, 11494, Note_on_c, 0, 81, 0
2, 11494, Note_on_c, 0, 89, 0
2, 11511, Note_on_c, 0, 35, 0
2, 11521, Note_on_c, 0, 47, 0
2, 11535, Note_on_c, 0, 40, 80
2, 11545, Note_on_c, 0, 84, 80
2, 11547, Note_on_c, 0, 76, 80
2, 11547, Note_on_c, 0, 81, 80
2, 11547, Note_on_c, 0, 88, 80
2, 11549, Control_c, 0, 64, 0
2, 11556, Note_on_c, 0, 52, 80
2, 11569, Note_on_c, 0, 88, 0
2, 11569, Note_on_c, 0, 76, 0
2, 11569, Note_on_c, 0, 84, 0
2, 11574, Note_on_c, 0, 81, 0
2, 11600, Note_on_c, 0, 76, 80
2, 11600, Note_on_c, 0, 84, 80
2, 11609, Note_on_c, 0, 81, 80
2, 11614, Note_on_c, 0, 40, 0
2, 11620, Note_on_c, 0, 52, 0
2, 11627, Note_on_c, 0, 88, 80
2, 11636, Note_on_c, 0, 40, 80
2, 11660, Note_on_c, 0, 52, 80
2, 11716, Note_on_c, 0, 40, 0
2, 11716, Note_on_c, 0, 84, 0
2, 11727, Note_on_c, 0, 88, 0
2, 11727, Note_on_c, 0, 81, 0
2, 11727, Note_on_c, 0, 52, 0
2, 11727, Note_on_c, 0, 76, 0
2, 11744, Note_on_c, 0, 40, 80
2, 11758, Note_on_c, 0, 76, 80
2, 11760, Note_on_c, 0, 88, 80
2, 11761, Note_on_c, 0, 74, 80
2, 11763, Note_on_c, 0, 52, 80
2, 11768, Note_on_c, 0, 83, 80
2, 11782, Note_on_c, 0, 74, 0
2, 11782, Note_on_c, 0, 88, 0
2, 11782, Note_on_c, 0, 76, 0
2, 11788, Note_on_c, 0, 83, 0
2, 11808, Note_on_c, 0, 74, 80
2, 11808, Note_on_c, 0, 76, 80
2, 11808, Note_on_c, 0, 80, 80
2, 11814, Note_on_c, 0, 83, 80
2, 11821, Note_on_c, 0, 40, 0
2, 11830, Note_on_c, 0, 88, 80
2, 11836, Note_on_c, 0, 52, 0
2, 11847, Note_on_c, 0, 40, 80
2, 11869, Note_on_c, 0, 52, 80
2, 11921, Note_on_c, 0, 40, 0
2, 11921, Note_on_c, 0, 80, 0
2, 11921, Note_on_c, 0, 60, 80
2, 11926, Note_on_c, 0, 76, 0
2, 11926, Note_on_c, 0, 74, 0
2, 11939, Note_on_c, 0, 83, 0
2, 11939, Note_on_c, 0, 88, 0
2, 11939, Note_on_c, 0, 52, 0
2, 11939, Note_on_c, 0, 59, 80
2, 11946, Note_on_c, 0, 58, 80
2, 11968, Note_on_c, 0, 57, 80
2, 11968, Note_on_c, 0, 69, 80
2, 11968, Note_on_c, 0, 81, 80
2, 11970, Note_on_c, 0, 33, 80
2, 11975, Note_on_c, 0, 60, 0
2, 11981, Note_on_c, 0, 59, 0
2, 11990, Note_on_c, 0, 84, 80
2, 11992, Note_on_c, 0, 72, 80
2, 11994, Note_on_c, 0, 33, 0
2, 11996, Note_on_c, 0, 58, 0
2, 12000, Note_on_c, 0, 81, 0
2, 12007, Note_on_c, 0, 69, 0
2, 12007, Note_on_c, 0, 45, 80
2, 12023, Note_on_c, 0, 33, 80
2, 12024, Note_on_c, 0, 76, 80
2, 12026, Note_on_c, 0, 84, 0
2, 12028, Note_on_c, 0, 88, 80
2, 12030, Note_on_c, 0, 72, 0
2, 12035, Note_on_c, 0, 45, 0
2, 12048, Note_on_c, 0, 33, 0
2, 12050, Note_on_c, 0, 81, 80
2, 12050, Note_on_c, 0, 93, 80
2, 12059, Note_on_c, 0, 88, 0
2, 12061, Note_on_c, 0, 45, 80
2, 12063, Note_on_c, 0, 76, 0
2, 12078, Note_on_c, 0, 93, 0
2, 12080, Note_on_c, 0, 33, 80
2, 12082, Note_on_c, 0, 69, 80
2, 12089, Note_on_c, 0, 45, 0
2, 12108, Note_on_c, 0, 33, 0
2, 12113, Note_on_c, 0, 45, 80
2, 12113, Note_on_c, 0, 72, 80
2, 12115, Note_on_c, 0, 81, 0
2, 12117, Note_on_c, 0, 84, 80
2, 12119, Note_on_c, 0, 69, 0
2, 12134, Note_on_c, 0, 33, 80
2, 12139, Note_on_c, 0, 45, 0
2, 12152, Note_on_c, 0, 76, 80
2, 12157, Note_on_c, 0, 88, 80
2, 12159, Note_on_c, 0, 84, 0
2, 12159, Note_on_c, 0, 33, 0
2, 12159, Note_on_c, 0, 72, 0
2, 12166, Note_on_c, 0, 45, 80
2, 12188, Note_on_c, 0, 33, 80
2, 12190, Note_on_c, 0, 88, 0
2, 12190, Note_on_c, 0, 81, 80
2, 12190, Note_on_c, 0, 93, 80
2, 12194, Note_on_c, 0, 76, 0
2, 12196, Note_on_c, 0, 45, 0
2, 12216, Note_on_c, 0, 33, 0
2, 12222, Note_on_c, 0, 45, 80
2, 12240, Note_on_c, 0, 33, 80
2, 12244, Note_on_c, 0, 81, 0
2, 12244, Note_on_c, 0, 93, 0
2, 12253, Note_on_c, 0, 45, 0
2, 12270, Note_on_c, 0, 33, 0
2, 12284, Note_on_c, 0, 45, 80
2, 12286, Note_on_c, 0, 42, 80
2, 12292, Note_on_c, 0, 57, 0
2, 12294, Note_on_c, 0, 72, 80
2, 12294, Note_on_c, 0, 81, 80
2, 12296, Note_on_c, 0, 87, 80
2, 12298, Note_on_c, 0, 45, 0
2, 12298, Note_on_c, 0, 75, 80
2, 12298, Note_on_c, 0, 84, 80
2, 12298, Note_on_c, 0, 96, 80
2, 12307, Note_on_c, 0, 54, 90
2, 12350, Note_on_c, 0, 84, 0
2, 12350, Note_on_c, 0, 87, 0
2, 12350, Note_on_c, 0, 75, 0
2, 12350, Note_on_c, 0, 72, 0
2, 12352, Note_on_c, 0, 96, 0
2, 12354, Note_on_c, 0, 81, 0
2, 12378, Note_on_c, 0, 42, 0
2, 12391, Note_on_c, 0, 54, 0
2, 12396, Note_on_c, 0, 43, 80
2, 12396, Control_c, 0, 67, 127
2, 12405, Note_on_c, 0, 96, 80
2, 12407, Note_on_c, 0, 84, 80
2, 12415, Note_on_c, 0, 55, 90
2, 12434, Control_c, 0, 67, 0
2, 12445, Note_on_c, 0, 96, 0
2, 12447, Note_on_c, 0, 84, 0
2, 12457, Note_on_c, 0, 94, 80
2, 12459, Note_on_c, 0, 82, 80
2, 12485, Note_on_c, 0, 55, 0
2, 12501, Note_on_c, 0, 94, 0
2, 12505, Note_on_c, 0, 82, 0
2, 12514, Note_on_c, 0, 55, 90
2, 12514, Note_on_c, 0, 58, 90
2, 12514, Note_on_c, 0, 60, 90
2, 12514, Note_on_c, 0, 64, 80
2, 12516, Note_on_c, 0, 91, 80
2, 12521, Note_on_c, 0, 79, 80
2, 12531, Note_on_c, 0, 43, 0
2, 12557, Note_on_c, 0, 91, 0
2, 12557, Note_on_c, 0, 79, 0
2, 12562, Note_on_c, 0, 60, 0
2, 12562, Note_on_c, 0, 55, 0
2, 12562, Note_on_c, 0, 58, 0
2, 12562, Note_on_c, 0, 64, 0
2, 12567, Note_on_c, 0, 88, 80
2, 12569, Note_on_c, 0, 76, 80
2, 12608, Note_on_c, 0, 36, 80
2, 12610, Note_on_c, 0, 88, 0
2, 12612, Control_c, 0, 67, 127
2, 12617, Note_on_c, 0, 76, 0
2, 12622, Note_on_c, 0, 84, 80
2, 12624, Note_on_c, 0, 72, 80
2, 12632, Note_on_c, 0, 48, 90
2, 12649, Control_c, 0, 67, 0
2, 12667, Note_on_c, 0, 84, 0
2, 12672, Note_on_c, 0, 72, 0
2, 12678, Note_on_c, 0, 70, 80
2, 12678, Note_on_c, 0, 82, 80
2, 12721, Note_on_c, 0, 70, 0
2, 12723, Note_on_c, 0, 82, 0
2, 12728, Note_on_c, 0, 55, 90
2, 12728, Note_on_c, 0, 58, 90
2, 12728, Note_on_c, 0, 60, 90
2, 12728, Note_on_c, 0, 64, 80
2, 12728, Note_on_c, 0, 67, 80
2, 12728, Note_on_c, 0, 79, 80
2, 12730, Note_on_c, 0, 36, 0
2, 12741, Note_on_c, 0, 48, 0
2, 12763, Note_on_c, 0, 64, 0
2, 12768, Control_c, 0, 64, 127
2, 12769, Note_on_c, 0, 55, 0
2, 12769, Note_on_c, 0, 60, 0
2, 12769, Note_on_c, 0, 79, 0
2, 12769, Note_on_c, 0, 67, 0
2, 12769, Note_on_c, 0, 58, 0
2, 12774, Note_on_c, 0, 76, 80
2, 12788, Note_on_c, 0, 64, 80
2, 12825, Note_on_c, 0, 64, 0
2, 12827, Note_on_c, 0, 41, 80
2, 12827, Control_c, 0, 67, 127
2, 12829, Note_on_c, 0, 76, 0
2, 12831, Note_on_c, 0, 74, 80
2, 12831, Note_on_c, 0, 77, 80
2, 12831, Note_on_c, 0, 81, 80
2, 12831, Note_on_c, 0, 84, 80
2, 12836, Note_on_c, 0, 72, 80
2, 12842, Note_on_c, 0, 53, 80
2, 12856, Note_on_c, 0, 72, 0
2, 12856, Note_on_c, 0, 81, 0
2, 12856, Note_on_c, 0, 77, 0
2, 12856, Note_on_c, 0, 84, 0
2, 12858, Note_on_c, 0, 74, 0
2, 12858, Control_c, 0, 64, 0
2, 12863, Control_c, 0, 67, 0
2, 12888, Note_on_c, 0, 72, 80
2, 12888, Note_on_c, 0, 74, 80
2, 12888, Note_on_c, 0, 77, 80
2, 12888, Note_on_c, 0, 81, 80
2, 12888, Note_on_c, 0, 84, 80
2, 12938, Note_on_c, 0, 60, 90
2, 12940, Note_on_c, 0, 57, 90
2, 12940, Note_on_c, 0, 65, 80
2, 12942, Note_on_c, 0, 84, 0
2, 12942, Note_on_c, 0, 74, 0
2, 12942, Note_on_c, 0, 72, 0
2, 12942, Note_on_c, 0, 81, 0
2, 12942, Note_on_c, 0, 77, 0
2, 12953, Note_on_c, 0, 41, 0
2, 12953, Note_on_c, 0, 53, 0
2, 12979, Note_on_c, 0, 60, 0
2, 12984, Note_on_c, 0, 65, 0
2, 12984, Note_on_c, 0, 57, 0
2, 12988, Note_on_c, 0, 77, 80
2, 12990, Note_on_c, 0, 72, 80
2, 12990, Note_on_c, 0, 74, 80
2, 12990, Note_on_c, 0, 81, 80
2, 12997, Note_on_c, 0, 84, 80
2, 13036, Note_on_c, 0, 41, 90
2, 13036, Control_c, 0, 67, 127
2, 13043, Note_on_c, 0, 84, 0
2, 13048, Note_on_c, 0, 81, 0
2, 13048, Note_on_c, 0, 74, 0
2, 13048, Note_on_c, 0, 77, 0
2, 13048, Note_on_c, 0, 72, 0
2, 13055, Note_on_c, 0, 53, 90
2, 13072, Control_c, 0, 67, 0
2, 13103, Note_on_c, 0, 72, 80
2, 13103, Note_on_c, 0, 84, 80
2, 13113, Note_on_c, 0, 41, 0
2, 13124, Note_on_c, 0, 81, 80
2, 13126, Note_on_c, 0, 53, 0
2, 13126, Note_on_c, 0, 72, 0
2, 13130, Note_on_c, 0, 84, 0
2, 13152, Note_on_c, 0, 42, 80
2, 13154, Control_c, 0, 67, 127
2, 13163, Note_on_c, 0, 75, 80
2, 13165, Note_on_c, 0, 72, 80
2, 13167, Note_on_c, 0, 84, 80
2, 13172, Note_on_c, 0, 54, 90
2, 13187, Control_c, 0, 67, 0
2, 13213, Note_on_c, 0, 84, 0
2, 13215, Note_on_c, 0, 72, 0
2, 13215, Note_on_c, 0, 75, 0
2, 13215, Note_on_c, 0, 81, 0
2, 13243, Note_on_c, 0, 42, 0
2, 13251, Note_on_c, 0, 54, 0
2, 13258, Note_on_c, 0, 43, 80
2, 13265, Control_c, 0, 67, 127
2, 13267, Note_on_c, 0, 84, 80
2, 13273, Note_on_c, 0, 76, 80
2, 13273, Note_on_c, 0, 82, 80
2, 13275, Note_on_c, 0, 72, 80
2, 13277, Note_on_c, 0, 55, 90
2, 13293, Note_on_c, 0, 84, 0
2, 13293, Control_c, 0, 67, 0
2, 13295, Note_on_c, 0, 72, 0
2, 13296, Note_on_c, 0, 82, 0
2, 13296, Note_on_c, 0, 76, 0
2, 13320, Note_on_c, 0, 72, 80
2, 13325, Note_on_c, 0, 76, 80
2, 13325, Note_on_c, 0, 82, 80
2, 13330, Note_on_c, 0, 84, 80
2, 13352, Note_on_c, 0, 55, 0
2, 13378, Note_on_c, 0, 84, 0
2, 13378, Note_on_c, 0, 55, 90
2, 13378, Note_on_c, 0, 60, 90
2, 13383, Note_on_c, 0, 76, 0
2, 13383, Note_on_c, 0, 82, 0
2, 13383, Note_on_c, 0, 72, 0
2, 13383, Note_on_c, 0, 58, 80
2, 13383, Note_on_c, 0, 64, 80
2, 13396, Note_on_c, 0, 43, 0
2, 13424, Note_on_c, 0, 60, 0
2, 13424, Note_on_c, 0, 55, 0
2, 13429, Note_on_c, 0, 58, 0
2, 13429, Note_on_c, 0, 64, 0
2, 13434, Note_on_c, 0, 82, 80
2, 13440, Note_on_c, 0, 72, 80
2, 13440, Note_on_c, 0, 76, 80
2, 13440, Note_on_c, 0, 84, 80
2, 13475, Note_on_c, 0, 43, 90
2, 13482, Control_c, 0, 67, 127
2, 13490, Note_on_c, 0, 84, 0
2, 13490, Note_on_c, 0, 76, 0
2, 13490, Note_on_c, 0, 82, 0
2, 13490, Note_on_c, 0, 72, 0
2, 13504, Note_on_c, 0, 55, 80
2, 13514, Control_c, 0, 67, 0
2, 13542, Note_on_c, 0, 74, 80
2, 13551, Note_on_c, 0, 86, 80
2, 13568, Note_on_c, 0, 74, 0
2, 13568, Note_on_c, 0, 43, 0
2, 13573, Note_on_c, 0, 86, 0
2, 13580, Note_on_c, 0, 55, 0
2, 13586, Note_on_c, 0, 44, 80
2, 13593, Control_c, 0, 67, 127
2, 13595, Note_on_c, 0, 83, 80
2, 13597, Note_on_c, 0, 77, 80
2, 13602, Note_on_c, 0, 86, 80
2, 13604, Note_on_c, 0, 74, 80
2, 13606, Note_on_c, 0, 56, 90
2, 13625, Control_c, 0, 67, 0
2, 13656, Note_on_c, 0, 74, 0
2, 13656, Note_on_c, 0, 86, 0
2, 13660, Note_on_c, 0, 77, 0
2, 13665, Note_on_c, 0, 83, 0
2, 13680, Note_on_c, 0, 44, 0
2, 13689, Note_on_c, 0, 56, 0
2, 13700, Note_on_c, 0, 45, 90
2, 13702, Control_c, 0, 67, 127
2, 13706, Note_on_c, 0, 77, 80
2, 13711, Note_on_c, 0, 81, 80
2, 13711, Note_on_c, 0, 86, 80
2, 13713, Note_on_c, 0, 74, 80
2, 13715, Note_on_c, 0, 57, 90
2, 13732, Note_on_c, 0, 74, 0
2, 13732, Note_on_c, 0, 86, 0
2, 13732, Note_on_c, 0, 81, 0
2, 13732, Note_on_c, 0, 77, 0
2, 13734, Control_c, 0, 67, 0
2, 13758, Note_on_c, 0, 81, 80
2, 13763, Note_on_c, 0, 74, 80
2, 13763, Note_on_c, 0, 77, 80
2, 13765, Note_on_c, 0, 86, 80
2, 13789, Note_on_c, 0, 57, 0
2, 13815, Note_on_c, 0, 57, 80
2, 13815, Note_on_c, 0, 60, 80
2, 13820, Note_on_c, 0, 81, 0
2, 13820, Note_on_c, 0, 77, 0
2, 13820, Note_on_c, 0, 74, 0
2, 13820, Note_on_c, 0, 86, 0
2, 13820, Note_on_c, 0, 65, 80
2, 13833, Note_on_c, 0, 45, 0
2, 13859, Note_on_c, 0, 60, 0
2, 13866, Note_on_c, 0, 65, 0
2, 13871, Note_on_c, 0, 57, 0
2, 13875, Note_on_c, 0, 81, 80
2, 13875, Note_on_c, 0, 86, 80
2, 13877, Note_on_c, 0, 74, 80
2, 13877, Note_on_c, 0, 77, 80
2, 13919, Note_on_c, 0, 48, 80
2, 13923, Control_c, 0, 67, 127
2, 13930, Note_on_c, 0, 86, 0
2, 13930, Note_on_c, 0, 81, 0
2, 13935, Note_on_c, 0, 77, 0
2, 13935, Note_on_c, 0, 74, 0
2, 13940, Note_on_c, 0, 60, 80
2, 13957, Control_c, 0, 67, 0
2, 13990, Note_on_c, 0, 77, 80
2, 13992, Note_on_c, 0, 89, 80
2, 14019, Note_on_c, 0, 48, 0
2, 14026, Note_on_c, 0, 60, 0
2, 14026, Note_on_c, 0, 77, 0
2, 14026, Note_on_c, 0, 89, 0
2, 14035, Note_on_c, 0, 45, 80
2, 14035, Control_c, 0, 67, 127
2, 14040, Note_on_c, 0, 81, 80
2, 14044, Note_on_c, 0, 93, 80
2, 14053, Note_on_c, 0, 57, 90
2, 14068, Control_c, 0, 67, 0
2, 14073, Note_on_c, 0, 93, 0
2, 14078, Note_on_c, 0, 81, 0
2, 14087, Control_c, 0, 64, 127
2, 14100, Note_on_c, 0, 84, 80
2, 14100, Note_on_c, 0, 96, 80
2, 14126, Note_on_c, 0, 45, 0
2, 14133, Note_on_c, 0, 96, 0
2, 14135, Note_on_c, 0, 84, 0
2, 14139, Note_on_c, 0, 57, 0
2, 14146, Note_on_c, 0, 41, 80
2, 14148, Control_c, 0, 67, 127
2, 14155, Note_on_c, 0, 89, 80
2, 14155, Note_on_c, 0, 77, 80
2, 14163, Note_on_c, 0, 53, 80
2, 14168, Control_c, 0, 64, 0
2, 14179, Control_c, 0, 67, 0
2, 14187, Note_on_c, 0, 89, 0
2, 14192, Note_on_c, 0, 77, 0
2, 14209, Note_on_c, 0, 75, 80
2, 14209, Note_on_c, 0, 87, 80
2, 14232, Note_on_c, 0, 53, 0
2, 14242, Note_on_c, 0, 87, 0
2, 14242, Note_on_c, 0, 75, 0
2, 14257, Note_on_c, 0, 53, 90
2, 14257, Note_on_c, 0, 57, 90
2, 14257, Note_on_c, 0, 63, 90
2, 14264, Note_on_c, 0, 96, 80
2, 14266, Note_on_c, 0, 84, 80
2, 14277, Note_on_c, 0, 41, 0
2, 14294, Note_on_c, 0, 84, 0
2, 14299, Note_on_c, 0, 96, 0
2, 14307, Note_on_c, 0, 53, 0
2, 14307, Note_on_c, 0, 57, 0
2, 14307, Note_on_c, 0, 63, 0
2, 14314, Note_on_c, 0, 81, 80
2, 14319, Note_on_c, 0, 93, 80
2, 14347, Note_on_c, 0, 93, 0
2, 14352, Note_on_c, 0, 81, 0
2, 14358, Note_on_c, 0, 43, 90
2, 14360, Control_c, 0, 67, 127
2, 14369, Note_on_c, 0, 77, 80
2, 14369, Note_on_c, 0, 89, 80
2, 14376, Note_on_c, 0, 55, 90
2, 14395, Control_c, 0, 67, 0
2, 14400, Note_on_c, 0, 89, 0
2, 14404, Note_on_c, 0, 77, 0
2, 14424, Note_on_c, 0, 75, 80
2, 14428, Note_on_c, 0, 87, 80
2, 14452, Note_on_c, 0, 43, 0
2, 14459, Note_on_c, 0, 75, 0
2, 14461, Note_on_c, 0, 87, 0
2, 14466, Note_on_c, 0, 55, 0
2, 14471, Note_on_c, 0, 45, 80
2, 14472, Control_c, 0, 67, 127
2, 14481, Note_on_c, 0, 84, 80
2, 14483, Note_on_c, 0, 72, 80
2, 14490, Note_on_c, 0, 57, 90
2, 14509, Control_c, 0, 67, 0
2, 14516, Note_on_c, 0, 72, 0
2, 14518, Note_on_c, 0, 84, 0
2, 14533, Note_on_c, 0, 69, 80
2, 14538, Note_on_c, 0, 81, 80
2, 14564, Note_on_c, 0, 45, 0
2, 14570, Note_on_c, 0, 57, 0
2, 14575, Note_on_c, 0, 69, 0
2, 14575, Note_on_c, 0, 81, 0
2, 14580, Note_on_c, 0, 34, 90
2, 14580, Control_c, 0, 67, 127
2, 14589, Note_on_c, 0, 91, 80
2, 14591, Note_on_c, 0, 82, 80
2, 14595, Note_on_c, 0, 79, 80
2, 14595, Note_on_c, 0, 86, 80
2, 14604, Note_on_c, 0, 46, 90
2, 14615, Note_on_c, 0, 86, 0
2, 14615, Note_on_c, 0, 79, 0
2, 14615, Note_on_c, 0, 82, 0
2, 14615, Note_on_c, 0, 91, 0
2, 14616, Control_c, 0, 67, 0
2, 14621, Note_on_c, 0, 58, 80
2, 14640, Note_on_c, 0, 82, 80
2, 14640, Note_on_c, 0, 91, 80
2, 14645, Note_on_c, 0, 79, 80
2, 14645, Note_on_c, 0, 86, 80
2, 14669, Note_on_c, 0, 58, 0
2, 14697, Note_on_c, 0, 91, 0
2, 14697, Note_on_c, 0, 79, 0
2, 14697, Note_on_c, 0, 53, 80
2, 14697, Note_on_c, 0, 58, 80
2, 14697, Note_on_c, 0, 62, 80
2, 14699, Note_on_c, 0, 34, 0
2, 14701, Note_on_c, 0, 86, 0
2, 14701, Note_on_c, 0, 82, 0
2, 14710, Note_on_c, 0, 46, 0
2, 14742, Note_on_c, 0, 62, 0
2, 14742, Note_on_c, 0, 58, 0
2, 14747, Note_on_c, 0, 53, 0
2, 14747, Note_on_c, 0, 82, 80
2, 14747, Note_on_c, 0, 86, 80
2, 14747, Note_on_c, 0, 91, 80
2, 14754, Note_on_c, 0, 79, 80
2, 14793, Note_on_c, 0, 34, 80
2, 14798, Control_c, 0, 67, 127
2, 14805, Note_on_c, 0, 91, 0
2, 14805, Note_on_c, 0, 82, 0
2, 14805, Note_on_c, 0, 86, 0
2, 14807, Note_on_c, 0, 79, 0
2, 14817, Note_on_c, 0, 46, 80
2, 14839, Control_c, 0, 67, 0
2, 14858, Note_on_c, 0, 77, 80
2, 14860, Note_on_c, 0, 65, 80
2, 14886, Note_on_c, 0, 34, 0
2, 14897, Note_on_c, 0, 46, 0
2, 14897, Note_on_c, 0, 77, 0
2, 14897, Note_on_c, 0, 65, 0
2, 14904, Note_on_c, 0, 35, 80
2, 14905, Control_c, 0, 67, 127
2, 14916, Note_on_c, 0, 67, 80
2, 14916, Note_on_c, 0, 79, 80
2, 14925, Note_on_c, 0, 47, 90
2, 14942, Control_c, 0, 67, 0
2, 14947, Note_on_c, 0, 79, 0
2, 14952, Note_on_c, 0, 67, 0
2, 14967, Note_on_c, 0, 80, 80
2, 14972, Note_on_c, 0, 68, 80
2, 14982, Note_on_c, 0, 35, 0
2, 15006, Note_on_c, 0, 47, 0
2, 15006, Note_on_c, 0, 80, 0
2, 15006, Note_on_c, 0, 68, 0
2, 15011, Note_on_c, 0, 36, 80
2, 15016, Control_c, 0, 67, 127
2, 15026, Note_on_c, 0, 69, 80
2, 15026, Note_on_c, 0, 81, 80
2, 15031, Note_on_c, 0, 48, 80
2, 15057, Control_c, 0, 67, 0
2, 15071, Note_on_c, 0, 81, 0
2, 15072, Note_on_c, 0, 69, 0
2, 15077, Note_on_c, 0, 72, 80
2, 15079, Note_on_c, 0, 84, 80
2, 15110, Note_on_c, 0, 72, 0
2, 15115, Note_on_c, 0, 84, 0
2, 15128, Note_on_c, 0, 57, 90
2, 15128, Note_on_c, 0, 60, 90
2, 15133, Note_on_c, 0, 36, 0
2, 15133, Note_on_c, 0, 65, 80
2, 15133, Note_on_c, 0, 76, 80
2, 15133, Note_on_c, 0, 88, 80
2, 15148, Note_on_c, 0, 48, 0
2, 15166, Note_on_c, 0, 88, 0
2, 15176, Note_on_c, 0, 60, 0
2, 15176, Note_on_c, 0, 57, 0
2, 15178, Note_on_c, 0, 65, 0
2, 15183, Note_on_c, 0, 82, 80
2, 15183, Note_on_c, 0, 86, 80
2, 15220, Note_on_c, 0, 36, 80
2, 15227, Control_c, 0, 67, 127
2, 15236, Note_on_c, 0, 86, 0
2, 15236, Note_on_c, 0, 76, 0
2, 15236, Note_on_c, 0, 82, 0
2, 15240, Note_on_c, 0, 72, 80
2, 15242, Note_on_c, 0, 84, 80
2, 15247, Note_on_c, 0, 48, 80
2, 15261, Note_on_c, 0, 72, 0
2, 15265, Note_on_c, 0, 84, 0
2, 15267, Control_c, 0, 67, 0
2, 15291, Note_on_c, 0, 76, 80
2, 15291, Note_on_c, 0, 82, 80
2, 15291, Note_on_c, 0, 86, 80
2, 15346, Note_on_c, 0, 86, 0
2, 15346, Note_on_c, 0, 76, 0
2, 15346, Note_on_c, 0, 82, 0
2, 15346, Note_on_c, 0, 55, 90
2, 15346, Note_on_c, 0, 58, 90
2, 15346, Note_on_c, 0, 60, 90
2, 15348, Note_on_c, 0, 36, 0
2, 15350, Note_on_c, 0, 64, 80
2, 15357, Note_on_c, 0, 48, 0
2, 15391, Note_on_c, 0, 60, 0
2, 15391, Note_on_c, 0, 58, 0
2, 15391, Note_on_c, 0, 55, 0
2, 15391, Note_on_c, 0, 64, 0
2, 15393, Control_c, 0, 64, 127
2, 15441, Note_on_c, 0, 41, 90
2, 15443, Control_c, 0, 67, 127
2, 15448, Note_on_c, 0, 65, 80
2, 15453, Note_on_c, 0, 69, 80
2, 15453, Note_on_c, 0, 72, 80
2, 15453, Note_on_c, 0, 77, 80
2, 15455, Note_on_c, 0, 53, 90
2, 15474, Control_c, 0, 67, 0
2, 15482, Control_c, 0, 64, 0
2, 15498, Note_on_c, 0, 72, 0
2, 15498, Note_on_c, 0, 69, 0
2, 15500, Note_on_c, 0, 77, 0
2, 15502, Note_on_c, 0, 65, 0
2, 15512, Note_on_c, 0, 41, 0
2, 15523, Note_on_c, 0, 53, 0
2, 15538, Note_on_c, 0, 36, 80
2, 15560, Note_on_c, 0, 48, 90
2, 15621, Note_on_c, 0, 36, 0
2, 15638, Note_on_c, 0, 48, 0
2, 15660, Control_c, 0, 67, 127
2, 15662, Note_on_c, 0, 41, 90
2, 15667, Note_on_c, 0, 69, 80
2, 15667, Note_on_c, 0, 77, 80
2, 15667, Note_on_c, 0, 81, 80
2, 15667, Note_on_c, 0, 89, 80
2, 15669, Note_on_c, 0, 60, 90
2, 15669, Note_on_c, 0, 65, 80
2, 15673, Note_on_c, 0, 84, 80
2, 15675, Note_on_c, 0, 53, 90
2, 15697, Control_c, 0, 67, 0
2, 15721, Note_on_c, 0, 84, 0
2, 15721, Note_on_c, 0, 81, 0
2, 15726, Note_on_c, 0, 89, 0
2, 15726, Note_on_c, 0, 60, 0
2, 15726, Note_on_c, 0, 69, 0
2, 15726, Note_on_c, 0, 77, 0
2, 15726, Note_on_c, 0, 65, 0
2, 15748, Note_on_c, 0, 41, 0
2, 15753, Note_on_c, 0, 53, 0
2, 15849, Note_on_c, 0, 72, 80
2, 15856, Note_on_c, 0, 73, 80
2, 15871, Note_on_c, 0, 74, 80
2, 15880, Note_on_c, 0, 43, 80
2, 15882, Note_on_c, 0, 75, 80
2, 15884, Note_on_c, 0, 72, 0
2, 15890, Note_on_c, 0, 76, 80
2, 15892, Note_on_c, 0, 73, 0
2, 15901, Note_on_c, 0, 55, 80
2, 15906, Note_on_c, 0, 74, 0
2, 15921, Note_on_c, 0, 75, 0
2, 15930, Note_on_c, 0, 76, 0
2, 15947, Note_on_c, 0, 70, 80
2, 15947, Note_on_c, 0, 82, 80
2, 15973, Note_on_c, 0, 55, 0
2, 15980, Note_on_c, 0, 82, 0
2, 15984, Note_on_c, 0, 70, 0
2, 16000, Note_on_c, 0, 55, 80
2, 16000, Note_on_c, 0, 58, 80
2, 16000, Note_on_c, 0, 60, 80
2, 16000, Note_on_c, 0, 62, 80
2, 16000, Note_on_c, 0, 64, 80
2, 16000, Note_on_c, 0, 74, 80
2, 16000, Note_on_c, 0, 76, 80
2, 16015, Note_on_c, 0, 43, 0
2, 16037, Note_on_c, 0, 76, 0
2, 16037, Note_on_c, 0, 62, 0
2, 16037, Note_on_c, 0, 74, 0
2, 16044, Note_on_c, 0, 55, 0
2, 16046, Note_on_c, 0, 60, 0
2, 16046, Note_on_c, 0, 58, 0
2, 16046, Note_on_c, 0, 64, 0
2, 16051, Note_on_c, 0, 82, 80
2, 16053, Note_on_c, 0, 70, 80
2, 16087, Note_on_c, 0, 36, 80
2, 16089, Note_on_c, 0, 82, 0
2, 16091, Note_on_c, 0, 70, 0
2, 16110, Note_on_c, 0, 60, 80
2, 16110, Note_on_c, 0, 64, 80
2, 16115, Note_on_c, 0, 72, 80
2, 16115, Note_on_c, 0, 76, 80
2, 16120, Note_on_c, 0, 48, 80
2, 16168, Note_on_c, 0, 76, 0
2, 16168, Note_on_c, 0, 72, 0
2, 16173, Note_on_c, 0, 64, 0
2, 16173, Note_on_c, 0, 60, 0
2, 16214, Note_on_c, 0, 36, 0
2, 16221, Note_on_c, 0, 55, 80
2, 16221, Note_on_c, 0, 60, 80
2, 16225, Note_on_c, 0, 58, 80
2, 16225, Note_on_c, 0, 64, 80
2, 16241, Note_on_c, 0, 48, 0
2, 16265, Note_on_c, 0, 60, 0
2, 16270, Note_on_c, 0, 55, 0
2, 16270, Note_on_c, 0, 58, 0
2, 16270, Note_on_c, 0, 64, 0
2, 16289, Note_on_c, 0, 84, 80
2, 16297, Note_on_c, 0, 85, 80
2, 16313, Note_on_c, 0, 86, 80
2, 16320, Note_on_c, 0, 43, 80
2, 16321, Note_on_c, 0, 87, 80
2, 16323, Note_on_c, 0, 84, 0
2, 16332, Note_on_c, 0, 85, 0
2, 16334, Note_on_c, 0, 76, 80
2, 16334, Note_on_c, 0, 88, 80
2, 16339, Note_on_c, 0, 55, 80
2, 16344, Note_on_c, 0, 86, 0
2, 16352, Note_on_c, 0, 87, 0
2, 16369, Note_on_c, 0, 88, 0
2, 16369, Note_on_c, 0, 76, 0
2, 16389, Note_on_c, 0, 82, 80
2, 16393, Note_on_c, 0, 94, 80
2, 16413, Note_on_c, 0, 55, 0
2, 16419, Note_on_c, 0, 94, 0
2, 16424, Note_on_c, 0, 82, 0
2, 16443, Note_on_c, 0, 55, 80
2, 16443, Note_on_c, 0, 58, 80
2, 16445, Note_on_c, 0, 60, 80
2, 16445, Note_on_c, 0, 64, 80
2, 16447, Note_on_c, 0, 76, 80
2, 16447, Note_on_c, 0, 86, 80
2, 16447, Note_on_c, 0, 88, 80
2, 16449, Note_on_c, 0, 74, 80
2, 16458, Note_on_c, 0, 43, 0
2, 16480, Note_on_c, 0, 88, 0
2, 16485, Note_on_c, 0, 74, 0
2, 16485, Note_on_c, 0, 76, 0
2, 16485, Note_on_c, 0, 86, 0
2, 16491, Note_on_c, 0, 60, 0
2, 16491, Note_on_c, 0, 64, 0
2, 16491, Note_on_c, 0, 55, 0
2, 16496, Note_on_c, 0, 58, 0
2, 16503, Note_on_c, 0, 82, 80
2, 16503, Note_on_c, 0, 94, 80
2, 16536, Note_on_c, 0, 94, 0
2, 16540, Note_on_c, 0, 82, 0
2, 16542, Note_on_c, 0, 43, 80
2, 16556, Note_on_c, 0, 84, 80
2, 16560, Note_on_c, 0, 72, 80
2, 16560, Note_on_c, 0, 76, 80
2, 16560, Note_on_c, 0, 88, 80
2, 16565, Note_on_c, 0, 55, 80
2, 16613, Note_on_c, 0, 88, 0
2, 16613, Note_on_c, 0, 76, 0
2, 16613, Note_on_c, 0, 84, 0
2, 16618, Note_on_c, 0, 72, 0
2, 16635, Note_on_c, 0, 43, 0
2, 16649, Note_on_c, 0, 55, 0
2, 16656, Note_on_c, 0, 44, 80
2, 16678, Note_on_c, 0, 56, 80
2, 16732, Note_on_c, 0, 77, 80
2, 16746, Note_on_c, 0, 45, 80
2, 16746, Note_on_c, 0, 78, 80
2, 16751, Note_on_c, 0, 44, 0
2, 16755, Note_on_c, 0, 79, 80
2, 16757, Note_on_c, 0, 56, 0
2, 16764, Note_on_c, 0, 80, 80
2, 16766, Note_on_c, 0, 77, 0
2, 16776, Note_on_c, 0, 78, 0
2, 16776, Note_on_c, 0, 69, 80
2, 16776, Note_on_c, 0, 81, 80
2, 16783, Note_on_c, 0, 56, 80
2, 16788, Note_on_c, 0, 79, 0
2, 16801, Note_on_c, 0, 80, 0
2, 16819, Note_on_c, 0, 69, 0
2, 16824, Note_on_c, 0, 81, 0
2, 16825, Note_on_c, 0, 74, 80
2, 16825, Note_on_c, 0, 86, 80
2, 16863, Note_on_c, 0, 86, 0
2, 16863, Note_on_c, 0, 74, 0
2, 16876, Note_on_c, 0, 45, 0
2, 16878, Note_on_c, 0, 60, 80
2, 16883, Note_on_c, 0, 57, 80
2, 16883, Note_on_c, 0, 65, 80
2, 16883, Note_on_c, 0, 69, 80
2, 16883, Note_on_c, 0, 77, 80
2, 16883, Note_on_c, 0, 81, 80
2, 16892, Note_on_c, 0, 56, 0
2, 16914, Note_on_c, 0, 81, 0
2, 16916, Note_on_c, 0, 69, 0
2, 16916, Note_on_c, 0, 77, 0
2, 16924, Note_on_c, 0, 60, 0
2, 16924, Note_on_c, 0, 65, 0
2, 16924, Note_on_c, 0, 57, 0
2, 16933, Note_on_c, 0, 74, 80
2, 16935, Note_on_c, 0, 86, 80
2, 16969, Note_on_c, 0, 86, 0
2, 16969, Note_on_c, 0, 74, 0
2, 16985, Note_on_c, 0, 36, 80
2, 16990, Note_on_c, 0, 69, 80
2, 16990, Note_on_c, 0, 76, 80
2, 16990, Note_on_c, 0, 81, 80
2, 16992, Note_on_c, 0, 64, 80
2, 17005, Note_on_c, 0, 48, 80
2, 17020, Note_on_c, 0, 81, 0
2, 17025, Note_on_c, 0, 64, 0
2, 17025, Note_on_c, 0, 76, 0
2, 17025, Note_on_c, 0, 69, 0
2, 17044, Note_on_c, 0, 74, 80
2, 17044, Note_on_c, 0, 86, 80
2, 17070, Note_on_c, 0, 74, 0
2, 17077, Note_on_c, 0, 86, 0
2, 17094, Note_on_c, 0, 60, 80
2, 17096, Note_on_c, 0, 36, 0
2, 17096, Note_on_c, 0, 69, 80
2, 17096, Note_on_c, 0, 81, 80
2, 17098, Note_on_c, 0, 57, 80
2, 17098, Note_on_c, 0, 65, 80
2, 17098, Note_on_c, 0, 74, 80
2, 17112, Note_on_c, 0, 48, 0
2, 17129, Note_on_c, 0, 69, 0
2, 17134, Note_on_c, 0, 81, 0
2, 17138, Note_on_c, 0, 86, 80
2, 17145, Note_on_c, 0, 57, 0
2, 17145, Note_on_c, 0, 60, 0
2, 17145, Note_on_c, 0, 65, 0
2, 17173, Note_on_c, 0, 86, 0
2, 17175, Note_on_c, 0, 74, 0
2, 17206, Note_on_c, 0, 48, 80
2, 17206, Note_on_c, 0, 60, 80
2, 17208, Note_on_c, 0, 86, 80
2, 17209, Note_on_c, 0, 74, 80
2, 17209, Note_on_c, 0, 76, 80
2, 17209, Note_on_c, 0, 79, 80
2, 17233, Note_on_c, 0, 74, 0
2, 17233, Note_on_c, 0, 86, 0
2, 17244, Note_on_c, 0, 76, 0
2, 17249, Note_on_c, 0, 48, 0
2, 17249, Note_on_c, 0, 60, 0
2, 17249, Note_on_c, 0, 46, 80
2, 17254, Note_on_c, 0, 79, 0
2, 17260, Note_on_c, 0, 80, 80
2, 17265, Note_on_c, 0, 74, 80
2, 17267, Note_on_c, 0, 86, 80
2, 17280, Note_on_c, 0, 58, 80
2, 17332, Note_on_c, 0, 86, 0
2, 17332, Note_on_c, 0, 80, 0
2, 17337, Note_on_c, 0, 46, 0
2, 17342, Note_on_c, 0, 74, 0
2, 17351, Note_on_c, 0, 58, 0
2, 17359, Note_on_c, 0, 72, 80
2, 17368, Note_on_c, 0, 45, 80
2, 17378, Note_on_c, 0, 81, 80
2, 17389, Note_on_c, 0, 57, 80
2, 17398, Note_on_c, 0, 84, 80
2, 17496, Note_on_c, 0, 72, 0
2, 17500, Note_on_c, 0, 45, 0
2, 17511, Note_on_c, 0, 57, 0
2, 17511, Note_on_c, 0, 81, 0
2, 17520, Note_on_c, 0, 84, 0
2, 17528, Note_on_c, 0, 44, 80
2, 17550, Note_on_c, 0, 56, 80
2, 17607, Note_on_c, 0, 72, 80
2, 17614, Note_on_c, 0, 73, 80
2, 17618, Note_on_c, 0, 56, 0
2, 17618, Note_on_c, 0, 44, 0
2, 17625, Note_on_c, 0, 74, 80
2, 17634, Note_on_c, 0, 72, 0
2, 17634, Note_on_c, 0, 43, 80
2, 17636, Note_on_c, 0, 75, 80
2, 17644, Note_on_c, 0, 64, 80
2, 17644, Note_on_c, 0, 76, 80
2, 17649, Note_on_c, 0, 73, 0
2, 17651, Note_on_c, 0, 55, 80
2, 17656, Note_on_c, 0, 74, 0
2, 17664, Note_on_c, 0, 75, 0
2, 17688, Note_on_c, 0, 64, 0
2, 17688, Note_on_c, 0, 76, 0
2, 17695, Note_on_c, 0, 70, 80
2, 17695, Note_on_c, 0, 82, 80
2, 17721, Note_on_c, 0, 55, 0
2, 17732, Note_on_c, 0, 82, 0
2, 17732, Note_on_c, 0, 70, 0
2, 17751, Note_on_c, 0, 76, 80
2, 17753, Note_on_c, 0, 55, 80
2, 17753, Note_on_c, 0, 58, 80
2, 17753, Note_on_c, 0, 60, 80
2, 17753, Note_on_c, 0, 62, 80
2, 17753, Note_on_c, 0, 64, 80
2, 17753, Note_on_c, 0, 74, 80
2, 17763, Note_on_c, 0, 43, 0
2, 17781, Note_on_c, 0, 62, 0
2, 17785, Note_on_c, 0, 74, 0
2, 17785, Note_on_c, 0, 76, 0
2, 17799, Note_on_c, 0, 60, 0
2, 17799, Note_on_c, 0, 64, 0
2, 17799, Note_on_c, 0, 58, 0
2, 17799, Note_on_c, 0, 55, 0
2, 17804, Note_on_c, 0, 82, 80
2, 17806, Note_on_c, 0, 70, 80
2, 17843, Note_on_c, 0, 70, 0
2, 17843, Note_on_c, 0, 82, 0
2, 17852, Note_on_c, 0, 36, 80
2, 17860, Note_on_c, 0, 72, 80
2, 17860, Note_on_c, 0, 76, 80
2, 17862, Note_on_c, 0, 60, 80
2, 17862, Note_on_c, 0, 64, 80
2, 17869, Note_on_c, 0, 48, 80
2, 17924, Note_on_c, 0, 64, 0
2, 17924, Note_on_c, 0, 60, 0
2, 17928, Note_on_c, 0, 76, 0
2, 17928, Note_on_c, 0, 72, 0
2, 17963, Note_on_c, 0, 55, 80
2, 17965, Note_on_c, 0, 58, 80
2, 17967, Note_on_c, 0, 36, 0
2, 17967, Note_on_c, 0, 60, 80
2, 17967, Note_on_c, 0, 64, 80
2, 17976, Note_on_c, 0, 48, 0
2, 18010, Note_on_c, 0, 60, 0
2, 18010, Note_on_c, 0, 58, 0
2, 18010, Note_on_c, 0, 55, 0
2, 18010, Note_on_c, 0, 64, 0
2, 18029, Note_on_c, 0, 84, 80
2, 18045, Note_on_c, 0, 85, 80
2, 18053, Note_on_c, 0, 86, 80
2, 18062, Note_on_c, 0, 84, 0
2, 18064, Note_on_c, 0, 87, 80
2, 18072, Note_on_c, 0, 85, 0
2, 18072, Note_on_c, 0, 76, 80
2, 18072, Note_on_c, 0, 88, 80
2, 18086, Note_on_c, 0, 86, 0
2, 18096, Note_on_c, 0, 87, 0
2, 18096, Note_on_c, 0, 43, 80
2, 18107, Note_on_c, 0, 76, 0
2, 18120, Note_on_c, 0, 88, 0
2, 18129, Note_on_c, 0, 82, 80
2, 18129, Note_on_c, 0, 94, 80
2, 18162, Note_on_c, 0, 94, 0
2, 18162, Note_on_c, 0, 82, 0
2, 18181, Note_on_c, 0, 55, 80
2, 18181, Note_on_c, 0, 64, 80
2, 18181, Note_on_c, 0, 76, 80
2, 18183, Note_on_c, 0, 58, 80
2, 18183, Note_on_c, 0, 60, 80
2, 18185, Note_on_c, 0, 74, 80
2, 18185, Note_on_c, 0, 86, 80
2, 18185, Note_on_c, 0, 88, 80
2, 18195, Note_on_c, 0, 43, 0
2, 18215, Note_on_c, 0, 76, 0
2, 18215, Note_on_c, 0, 88, 0
2, 18215, Note_on_c, 0, 86, 0
2, 18215, Note_on_c, 0, 74, 0
2, 18223, Note_on_c, 0, 58, 0
2, 18223, Note_on_c, 0, 55, 0
2, 18223, Note_on_c, 0, 64, 0
2, 18223, Note_on_c, 0, 60, 0
2, 18230, Note_on_c, 0, 82, 80
2, 18230, Note_on_c, 0, 94, 80
2, 18269, Note_on_c, 0, 94, 0
2, 18269, Note_on_c, 0, 82, 0
2, 18283, Note_on_c, 0, 43, 80
2, 18289, Note_on_c, 0, 76, 80
2, 18294, Note_on_c, 0, 72, 80
2, 18294, Note_on_c, 0, 84, 80
2, 18294, Note_on_c, 0, 88, 80
2, 18303, Note_on_c, 0, 55, 80
2, 18353, Note_on_c, 0, 84, 0
2, 18355, Note_on_c, 0, 88, 0
2, 18355, Note_on_c, 0, 72, 0
2, 18360, Note_on_c, 0, 76, 0
2, 18370, Note_on_c, 0, 43, 0
2, 18381, Note_on_c, 0, 55, 0
2, 18387, Note_on_c, 0, 44, 80
2, 18411, Note_on_c, 0, 56, 80
2, 18466, Note_on_c, 0, 77, 80
2, 18477, Note_on_c, 0, 78, 80
2, 18481, Note_on_c, 0, 44, 0
2, 18486, Note_on_c, 0, 45, 80
2, 18491, Note_on_c, 0, 79, 80
2, 18493, Note_on_c, 0, 56, 0
2, 18498, Note_on_c, 0, 80, 80
2, 18500, Note_on_c, 0, 77, 0
2, 18508, Note_on_c, 0, 69, 80
2, 18508, Note_on_c, 0, 81, 80
2, 18510, Note_on_c, 0, 78, 0
2, 18517, Note_on_c, 0, 57, 80
2, 18522, Note_on_c, 0, 79, 0
2, 18527, Note_on_c, 0, 80, 0
2, 18544, Note_on_c, 0, 81, 0
2, 18549, Note_on_c, 0, 69, 0
2, 18564, Note_on_c, 0, 74, 80
2, 18569, Note_on_c, 0, 86, 80
2, 18593, Note_on_c, 0, 57, 0
2, 18600, Note_on_c, 0, 86, 0
2, 18600, Note_on_c, 0, 74, 0
2, 18617, Note_on_c, 0, 57, 80
2, 18617, Note_on_c, 0, 69, 80
2, 18617, Note_on_c, 0, 77, 80
2, 18617, Note_on_c, 0, 81, 80
2, 18622, Note_on_c, 0, 60, 80
2, 18622, Note_on_c, 0, 65, 80
2, 18639, Note_on_c, 0, 45, 0
2, 18656, Note_on_c, 0, 81, 0
2, 18658, Note_on_c, 0, 77, 0
2, 18660, Note_on_c, 0, 69, 0
2, 18669, Note_on_c, 0, 57, 0
2, 18669, Note_on_c, 0, 65, 0
2, 18669, Note_on_c, 0, 60, 0
2, 18675, Note_on_c, 0, 86, 80
2, 18677, Note_on_c, 0, 74, 80
2, 18710, Note_on_c, 0, 86, 0
2, 18715, Note_on_c, 0, 74, 0
2, 18723, Note_on_c, 0, 36, 80
2, 18730, Note_on_c, 0, 76, 80
2, 18730, Note_on_c, 0, 81, 80
2, 18735, Note_on_c, 0, 64, 80
2, 18735, Note_on_c, 0, 69, 80
2, 18744, Note_on_c, 0, 48, 80
2, 18768, Note_on_c, 0, 64, 0
2, 18768, Note_on_c, 0, 81, 0
2, 18768, Note_on_c, 0, 76, 0
2, 18772, Note_on_c, 0, 69, 0
2, 18788, Note_on_c, 0, 74, 80
2, 18788, Note_on_c, 0, 86, 80
2, 18812, Note_on_c, 0, 74, 0
2, 18820, Note_on_c, 0, 86, 0
2, 18838, Note_on_c, 0, 48, 0
2, 18838, Note_on_c, 0, 36, 0
2, 18853, Note_on_c, 0, 74, 80
2, 18858, Note_on_c, 0, 86, 80
2, 18880, Note_on_c, 0, 74, 0
2, 18885, Note_on_c, 0, 86, 0
2, 18911, Note_on_c, 0, 48, 80
2, 18915, Note_on_c, 0, 60, 80
2, 18915, Note_on_c, 0, 76, 80
2, 18917, Note_on_c, 0, 86, 80
2, 18919, Note_on_c, 0, 79, 80
2, 18941, Note_on_c, 0, 86, 0
2, 18943, Note_on_c, 0, 80, 80
2, 18957, Note_on_c, 0, 79, 0
2, 18957, Note_on_c, 0, 46, 80
2, 18961, Note_on_c, 0, 76, 0
2, 18961, Note_on_c, 0, 60, 0
2, 18963, Note_on_c, 0, 48, 0
2, 18968, Note_on_c, 0, 86, 80
2, 18970, Note_on_c, 0, 74, 80
2, 18977, Note_on_c, 0, 58, 80
2, 19033, Note_on_c, 0, 46, 0
2, 19033, Note_on_c, 0, 80, 0
2, 19035, Note_on_c, 0, 86, 0
2, 19037, Note_on_c, 0, 74, 0
2, 19042, Note_on_c, 0, 58, 0
2, 19057, Note_on_c, 0, 81, 80
2, 19066, Note_on_c, 0, 45, 80
2, 19077, Note_on_c, 0, 72, 80
2, 19079, Note_on_c, 0, 57, 80
2, 19096, Note_on_c, 0, 84, 80
2, 19194, Note_on_c, 0, 72, 0
2, 19199, Note_on_c, 0, 45, 0
2, 19203, Note_on_c, 0, 81, 0
2, 19208, Note_on_c, 0, 57, 0
2, 19210, Note_on_c, 0, 84, 0
2, 19219, Note_on_c, 0, 43, 80
2, 19238, Note_on_c, 0, 55, 80
2, 19281, Control_c, 0, 64, 127
2, 19292, Note_on_c, 0, 77, 80
2, 19298, Note_on_c, 0, 43, 0
2, 19303, Note_on_c, 0, 78, 80
2, 19310, Note_on_c, 0, 55, 0
2, 19317, Note_on_c, 0, 79, 80
2, 19319, Note_on_c, 0, 42, 80
2, 19325, Note_on_c, 0, 77, 0
2, 19325, Note_on_c, 0, 80, 80
2, 19336, Note_on_c, 0, 69, 80
2, 19336, Note_on_c, 0, 81, 80
2, 19338, Note_on_c, 0, 78, 0
2, 19344, Note_on_c, 0, 54, 80
2, 19349, Note_on_c, 0, 79, 0
2, 19356, Note_on_c, 0, 80, 0
2, 19380, Note_on_c, 0, 69, 0
2, 19380, Note_on_c, 0, 81, 0
2, 19380, Control_c, 0, 64, 0
2, 19391, Note_on_c, 0, 72, 80
2, 19391, Note_on_c, 0, 84, 80
2, 19404, Note_on_c, 0, 42, 0
2, 19413, Note_on_c, 0, 54, 0
2, 19426, Note_on_c, 0, 72, 0
2, 19426, Note_on_c, 0, 84, 0
2, 19443, Note_on_c, 0, 50, 80
2, 19443, Note_on_c, 0, 54, 80
2, 19443, Note_on_c, 0, 57, 80
2, 19443, Note_on_c, 0, 60, 80
2, 19443, Note_on_c, 0, 66, 80
2, 19443, Note_on_c, 0, 69, 80
2, 19443, Note_on_c, 0, 76, 80
2, 19443, Note_on_c, 0, 78, 80
2, 19443, Note_on_c, 0, 81, 80
2, 19478, Note_on_c, 0, 81, 0
2, 19478, Note_on_c, 0, 78, 0
2, 19478, Note_on_c, 0, 76, 0
2, 19478, Note_on_c, 0, 66, 0
2, 19483, Note_on_c, 0, 69, 0
2, 19491, Note_on_c, 0, 57, 0
2, 19491, Note_on_c, 0, 60, 0
2, 19491, Note_on_c, 0, 54, 0
2, 19491, Note_on_c, 0, 50, 0
2, 19496, Note_on_c, 0, 84, 80
2, 19498, Note_on_c, 0, 72, 80
2, 19529, Note_on_c, 0, 84, 0
2, 19534, Note_on_c, 0, 72, 0
2, 19538, Note_on_c, 0, 38, 80
2, 19547, Note_on_c, 0, 78, 80
2, 19547, Note_on_c, 0, 81, 80
2, 19549, Note_on_c, 0, 66, 80
2, 19549, Note_on_c, 0, 69, 80
2, 19549, Note_on_c, 0, 74, 80
2, 19551, Note_on_c, 0, 50, 80
2, 19611, Note_on_c, 0, 81, 0
2, 19616, Note_on_c, 0, 69, 0
2, 19616, Note_on_c, 0, 78, 0
2, 19616, Note_on_c, 0, 74, 0
2, 19618, Note_on_c, 0, 66, 0
2, 19627, Note_on_c, 0, 50, 0
2, 19651, Note_on_c, 0, 50, 80
2, 19651, Note_on_c, 0, 54, 80
2, 19651, Note_on_c, 0, 57, 80
2, 19656, Note_on_c, 0, 60, 80
2, 19669, Note_on_c, 0, 38, 0
2, 19704, Note_on_c, 0, 54, 0
2, 19705, Note_on_c, 0, 50, 0
2, 19707, Note_on_c, 0, 60, 0
2, 19707, Note_on_c, 0, 57, 0
2, 19727, Note_on_c, 0, 89, 80
2, 19744, Note_on_c, 0, 90, 80
2, 19751, Note_on_c, 0, 91, 80
2, 19764, Note_on_c, 0, 92, 80
2, 19766, Note_on_c, 0, 89, 0
2, 19766, Note_on_c, 0, 42, 80
2, 19771, Note_on_c, 0, 93, 80
2, 19773, Note_on_c, 0, 81, 80
2, 19781, Note_on_c, 0, 90, 0
2, 19781, Note_on_c, 0, 54, 80
2, 19788, Note_on_c, 0, 91, 0
2, 19795, Note_on_c, 0, 92, 0
2, 19817, Note_on_c, 0, 93, 0
2, 19817, Note_on_c, 0, 81, 0
2, 19827, Note_on_c, 0, 84, 80
2, 19827, Note_on_c, 0, 96, 80
2, 19851, Note_on_c, 0, 54, 0
2, 19862, Note_on_c, 0, 96, 0
2, 19864, Note_on_c, 0, 84, 0
2, 19883, Note_on_c, 0, 54, 80
2, 19885, Note_on_c, 0, 60, 80
2, 19885, Note_on_c, 0, 78, 80
2, 19885, Note_on_c, 0, 81, 80
2, 19885, Note_on_c, 0, 88, 80
2, 19885, Note_on_c, 0, 90, 80
2, 19885, Note_on_c, 0, 93, 80
2, 19887, Note_on_c, 0, 50, 80
2, 19887, Note_on_c, 0, 57, 80
2, 19897, Note_on_c, 0, 42, 0
2, 19911, Note_on_c, 0, 93, 0
2, 19916, Note_on_c, 0, 81, 0
2, 19916, Note_on_c, 0, 90, 0
2, 19916, Note_on_c, 0, 88, 0
2, 19920, Note_on_c, 0, 78, 0
2, 19925, Note_on_c, 0, 54, 0
2, 19930, Note_on_c, 0, 60, 0
2, 19930, Note_on_c, 0, 57, 0
2, 19930, Note_on_c, 0, 50, 0
2, 19939, Note_on_c, 0, 84, 80
2, 19939, Note_on_c, 0, 96, 80
2, 19976, Note_on_c, 0, 96, 0
2, 19976, Note_on_c, 0, 84, 0
2, 19987, Note_on_c, 0, 38, 80
2, 19997, Note_on_c, 0, 81, 80
2, 19997, Note_on_c, 0, 86, 80
2, 19997, Note_on_c, 0, 90, 80
2, 19997, Note_on_c, 0, 93, 80
2, 19999, Note_on_c, 0, 78, 80
2, 20008, Note_on_c, 0, 50, 80
2, 20063, Note_on_c, 0, 78, 0
2, 20063, Note_on_c, 0, 86, 0
2, 20063, Note_on_c, 0, 81, 0
2, 20063, Note_on_c, 0, 93, 0
2, 20067, Note_on_c, 0, 90, 0
2, 20076, Note_on_c, 0, 50, 0
2, 20107, Note_on_c, 0, 50, 80
2, 20107, Note_on_c, 0, 54, 80
2, 20107, Note_on_c, 0, 57, 80
2, 20107, Note_on_c, 0, 60, 80
2, 20117, Note_on_c, 0, 38, 0
2, 20150, Note_on_c, 0, 60, 0
2, 20150, Note_on_c, 0, 54, 0
2, 20152, Note_on_c, 0, 50, 0
2, 20152, Note_on_c, 0, 57, 0
2, 20207, Note_on_c, 0, 34, 80
2, 20211, Note_on_c, 0, 70, 80
2, 20211, Note_on_c, 0, 82, 80
2, 20220, Note_on_c, 0, 46, 80
2, 20246, Note_on_c, 0, 82, 0
2, 20251, Note_on_c, 0, 70, 0
2, 20266, Note_on_c, 0, 81, 80
2, 20268, Note_on_c, 0, 69, 80
2, 20299, Note_on_c, 0, 81, 0
2, 20301, Note_on_c, 0, 69, 0
2, 20318, Note_on_c, 0, 70, 80
2, 20320, Note_on_c, 0, 55, 80
2, 20320, Note_on_c, 0, 58, 80
2, 20320, Note_on_c, 0, 62, 80
2, 20322, Note_on_c, 0, 82, 80
2, 20324, Note_on_c, 0, 34, 0
2, 20332, Note_on_c, 0, 46, 0
2, 20356, Note_on_c, 0, 70, 0
2, 20356, Note_on_c, 0, 82, 0
2, 20365, Note_on_c, 0, 55, 0
2, 20365, Note_on_c, 0, 58, 0
2, 20367, Note_on_c, 0, 62, 0
2, 20367, Note_on_c, 0, 88, 80
2, 20369, Note_on_c, 0, 76, 80
2, 20376, Note_on_c, 0, 79, 80
2, 20380, Note_on_c, 0, 82, 80
2, 20411, Note_on_c, 0, 43, 80
2, 20435, Note_on_c, 0, 55, 80
2, 20444, Note_on_c, 0, 79, 0
2, 20446, Note_on_c, 0, 82, 0
2, 20448, Note_on_c, 0, 88, 0
2, 20448, Note_on_c, 0, 76, 0
2, 20475, Note_on_c, 0, 75, 80
2, 20475, Note_on_c, 0, 87, 80
2, 20506, Note_on_c, 0, 55, 0
2, 20513, Note_on_c, 0, 87, 0
2, 20513, Note_on_c, 0, 75, 0
2, 20539, Note_on_c, 0, 76, 80
2, 20539, Note_on_c, 0, 82, 80
2, 20539, Note_on_c, 0, 88, 80
2, 20541, Note_on_c, 0, 55, 80
2, 20541, Note_on_c, 0, 58, 80
2, 20541, Note_on_c, 0, 62, 80
2, 20543, Note_on_c, 0, 79, 80
2, 20549, Note_on_c, 0, 43, 0
2, 20577, Control_c, 0, 64, 127
2, 20582, Note_on_c, 0, 62, 0
2, 20584, Note_on_c, 0, 55, 0
2, 20584, Note_on_c, 0, 58, 0
2, 20591, Note_on_c, 0, 88, 0
2, 20591, Note_on_c, 0, 79, 0
2, 20591, Note_on_c, 0, 82, 0
2, 20595, Note_on_c, 0, 76, 0
2, 20641, Note_on_c, 0, 55, 80
2, 20643, Note_on_c, 0, 43, 80
2, 20643, Note_on_c, 0, 86, 80
2, 20645, Note_on_c, 0, 82, 80
2, 20664, Note_on_c, 0, 82, 0
2, 20664, Note_on_c, 0, 86, 0
2, 20671, Note_on_c, 0, 74, 80
2, 20676, Note_on_c, 0, 79, 80
2, 20678, Control_c, 0, 64, 0
2, 20687, Note_on_c, 0, 43, 0
2, 20687, Note_on_c, 0, 55, 0
2, 20697, Note_on_c, 0, 79, 0
2, 20697, Note_on_c, 0, 45, 80
2, 20697, Note_on_c, 0, 57, 80
2, 20699, Note_on_c, 0, 82, 80
2, 20699, Note_on_c, 0, 86, 80
2, 20701, Note_on_c, 0, 74, 0
2, 20718, Note_on_c, 0, 86, 0
2, 20723, Note_on_c, 0, 82, 0
2, 20728, Note_on_c, 0, 74, 80
2, 20730, Note_on_c, 0, 79, 80
2, 20740, Note_on_c, 0, 57, 0
2, 20745, Note_on_c, 0, 45, 0
2, 20750, Note_on_c, 0, 46, 80
2, 20750, Note_on_c, 0, 58, 80
2, 20750, Note_on_c, 0, 82, 80
2, 20750, Note_on_c, 0, 86, 80
2, 20752, Note_on_c, 0, 79, 0
2, 20757, Note_on_c, 0, 74, 0
2, 20774, Note_on_c, 0, 82, 0
2, 20774, Note_on_c, 0, 86, 0
2, 20783, Note_on_c, 0, 74, 80
2, 20784, Note_on_c, 0, 79, 80
2, 20791, Note_on_c, 0, 50, 80
2, 20796, Note_on_c, 0, 58, 0
2, 20796, Note_on_c, 0, 46, 0
2, 20805, Note_on_c, 0, 79, 0
2, 20805, Note_on_c, 0, 74, 0
2, 20805, Note_on_c, 0, 82, 80
2, 20805, Note_on_c, 0, 86, 80
2, 20813, Note_on_c, 0, 62, 80
2, 20827, Note_on_c, 0, 82, 0
2, 20832, Note_on_c, 0, 86, 0
2, 20838, Note_on_c, 0, 74, 80
2, 20838, Note_on_c, 0, 79, 80
2, 20857, Note_on_c, 0, 82, 80
2, 20857, Note_on_c, 0, 86, 80
2, 20859, Note_on_c, 0, 79, 0
2, 20859, Note_on_c, 0, 74, 0
2, 20879, Note_on_c, 0, 82, 0
2, 20883, Note_on_c, 0, 86, 0
2, 20890, Note_on_c, 0, 74, 80
2, 20895, Note_on_c, 0, 79, 80
2, 20910, Note_on_c, 0, 82, 80
2, 20910, Note_on_c, 0, 86, 80
2, 20917, Note_on_c, 0, 79, 0
2, 20917, Note_on_c, 0, 74, 0
2, 20926, Note_on_c, 0, 50, 0
2, 20936, Note_on_c, 0, 86, 0
2, 20936, Note_on_c, 0, 82, 0
2, 20941, Note_on_c, 0, 62, 0
2, 20943, Note_on_c, 0, 74, 80
2, 20948, Note_on_c, 0, 79, 80
2, 20974, Note_on_c, 0, 79, 0
2, 20974, Note_on_c, 0, 74, 0
2, 21072, Note_on_c, 0, 34, 80
2, 21080, Note_on_c, 0, 74, 80
2, 21080, Note_on_c, 0, 86, 80
2, 21089, Note_on_c, 0, 46, 80
2, 21113, Note_on_c, 0, 86, 0
2, 21118, Note_on_c, 0, 74, 0
2, 21133, Note_on_c, 0, 73, 80
2, 21138, Note_on_c, 0, 85, 80
2, 21170, Note_on_c, 0, 85, 0
2, 21170, Note_on_c, 0, 73, 0
2, 21184, Note_on_c, 0, 55, 80
2, 21184, Note_on_c, 0, 62, 80
2, 21184, Note_on_c, 0, 74, 80
2, 21186, Note_on_c, 0, 86, 80
2, 21188, Note_on_c, 0, 58, 80
2, 21194, Note_on_c, 0, 34, 0
2, 21201, Note_on_c, 0, 46, 0
2, 21218, Note_on_c, 0, 86, 0
2, 21220, Note_on_c, 0, 74, 0
2, 21231, Note_on_c, 0, 62, 0
2, 21231, Note_on_c, 0, 55, 0
2, 21231, Note_on_c, 0, 58, 0
2, 21236, Note_on_c, 0, 79, 80
2, 21238, Note_on_c, 0, 91, 80
2, 21240, Note_on_c, 0, 82, 80
2, 21253, Note_on_c, 0, 86, 80
2, 21284, Note_on_c, 0, 43, 80
2, 21292, Note_on_c, 0, 86, 0
2, 21292, Note_on_c, 0, 82, 0
2, 21292, Note_on_c, 0, 79, 0
2, 21292, Note_on_c, 0, 91, 0
2, 21301, Note_on_c, 0, 55, 80
2, 21351, Note_on_c, 0, 77, 80
2, 21356, Note_on_c, 0, 89, 80
2, 21366, Note_on_c, 0, 43, 0
2, 21377, Note_on_c, 0, 55, 0
2, 21387, Note_on_c, 0, 77, 0
2, 21387, Note_on_c, 0, 89, 0
2, 21392, Note_on_c, 0, 44, 80
2, 21408, Note_on_c, 0, 76, 80
2, 21408, Note_on_c, 0, 88, 80
2, 21414, Note_on_c, 0, 56, 80
2, 21442, Note_on_c, 0, 88, 0
2, 21442, Note_on_c, 0, 76, 0
2, 21459, Note_on_c, 0, 86, 80
2, 21464, Note_on_c, 0, 74, 80
2, 21475, Note_on_c, 0, 44, 0
2, 21485, Note_on_c, 0, 56, 0
2, 21494, Note_on_c, 0, 86, 0
2, 21496, Note_on_c, 0, 74, 0
2, 21503, Note_on_c, 0, 45, 80
2, 21509, Note_on_c, 0, 81, 80
2, 21509, Note_on_c, 0, 89, 80
2, 21511, Note_on_c, 0, 77, 80
2, 21516, Note_on_c, 0, 84, 80
2, 21525, Note_on_c, 0, 57, 80
2, 21535, Note_on_c, 0, 81, 0
2, 21540, Note_on_c, 0, 84, 0
2, 21549, Note_on_c, 0, 89, 0
2, 21559, Note_on_c, 0, 77, 0
2, 21566, Note_on_c, 0, 84, 80
2, 21568, Note_on_c, 0, 76, 80
2, 21568, Note_on_c, 0, 81, 80
2, 21568, Note_on_c, 0, 88, 80
2, 21583, Note_on_c, 0, 45, 0
2, 21590, Note_on_c, 0, 57, 0
2, 21609, Note_on_c, 0, 43, 80
2, 21618, Note_on_c, 0, 81, 0
2, 21618, Note_on_c, 0, 84, 0
2, 21618, Note_on_c, 0, 88, 0
2, 21626, Note_on_c, 0, 76, 0
2, 21628, Note_on_c, 0, 55, 80
2, 21666, Note_on_c, 0, 74, 80
2, 21676, Note_on_c, 0, 81, 80
2, 21685, Note_on_c, 0, 84, 80
2, 21687, Note_on_c, 0, 43, 0
2, 21696, Note_on_c, 0, 86, 80
2, 21702, Note_on_c, 0, 55, 0
2, 21721, Note_on_c, 0, 42, 80
2, 21739, Note_on_c, 0, 54, 80
2, 21778, Note_on_c, 0, 74, 0
2, 21780, Note_on_c, 0, 81, 0
2, 21793, Note_on_c, 0, 84, 0
2, 21800, Note_on_c, 0, 42, 0
2, 21807, Note_on_c, 0, 86, 0
2, 21820, Note_on_c, 0, 54, 0
2, 21860, Control_c, 0, 64, 127
2, 21910, Note_on_c, 0, 72, 80
2, 21918, Note_on_c, 0, 73, 80
2, 21932, Note_on_c, 0, 74, 80
2, 21938, Note_on_c, 0, 75, 80
2, 21940, Note_on_c, 0, 72, 0
2, 21940, Note_on_c, 0, 43, 80
2, 21947, Note_on_c, 0, 64, 80
2, 21947, Note_on_c, 0, 76, 80
2, 21952, Note_on_c, 0, 73, 0
2, 21959, Note_on_c, 0, 55, 80
2, 21963, Note_on_c, 0, 74, 0
2, 21968, Control_c, 0, 64, 0
2, 21970, Note_on_c, 0, 75, 0
2, 21984, Note_on_c, 0, 64, 0
2, 21988, Note_on_c, 0, 76, 0
2, 22002, Note_on_c, 0, 84, 80
2, 22004, Note_on_c, 0, 72, 80
2, 22028, Note_on_c, 0, 55, 0
2, 22034, Note_on_c, 0, 72, 0
2, 22039, Note_on_c, 0, 84, 0
2, 22056, Note_on_c, 0, 55, 80
2, 22056, Note_on_c, 0, 58, 80
2, 22056, Note_on_c, 0, 60, 80
2, 22056, Note_on_c, 0, 64, 80
2, 22058, Note_on_c, 0, 70, 80
2, 22058, Note_on_c, 0, 74, 80
2, 22058, Note_on_c, 0, 76, 80
2, 22058, Note_on_c, 0, 82, 80
2, 22074, Note_on_c, 0, 43, 0
2, 22089, Note_on_c, 0, 82, 0
2, 22089, Note_on_c, 0, 70, 0
2, 22094, Note_on_c, 0, 76, 0
2, 22094, Note_on_c, 0, 74, 0
2, 22101, Note_on_c, 0, 60, 0
2, 22101, Note_on_c, 0, 64, 0
2, 22101, Note_on_c, 0, 55, 0
2, 22107, Note_on_c, 0, 58, 0
2, 22107, Note_on_c, 0, 84, 80
2, 22109, Note_on_c, 0, 72, 80
2, 22144, Note_on_c, 0, 84, 0
2, 22149, Note_on_c, 0, 72, 0
2, 22157, Note_on_c, 0, 36, 80
2, 22171, Note_on_c, 0, 81, 80
2, 22173, Note_on_c, 0, 69, 80
2, 22173, Note_on_c, 0, 76, 80
2, 22177, Note_on_c, 0, 72, 80
2, 22186, Note_on_c, 0, 48, 80
2, 22201, Note_on_c, 0, 76, 0
2, 22210, Note_on_c, 0, 72, 0
2, 22210, Note_on_c, 0, 81, 0
2, 22215, Note_on_c, 0, 69, 0
2, 22224, Note_on_c, 0, 76, 80
2, 22225, Note_on_c, 0, 67, 80
2, 22225, Note_on_c, 0, 70, 80
2, 22225, Note_on_c, 0, 79, 80
2, 22273, Note_on_c, 0, 55, 80
2, 22273, Note_on_c, 0, 60, 80
2, 22278, Note_on_c, 0, 79, 0
2, 22278, Note_on_c, 0, 67, 0
2, 22278, Note_on_c, 0, 76, 0
2, 22278, Note_on_c, 0, 36, 0
2, 22278, Note_on_c, 0, 70, 0
2, 22278, Note_on_c, 0, 58, 80
2, 22278, Note_on_c, 0, 64, 80
2, 22294, Note_on_c, 0, 48, 0
2, 22326, Note_on_c, 0, 58, 0
2, 22326, Note_on_c, 0, 55, 0
2, 22326, Note_on_c, 0, 60, 0
2, 22326, Note_on_c, 0, 64, 0
2, 22333, Note_on_c, 0, 72, 80
2, 22335, Note_on_c, 0, 65, 80
2, 22342, Note_on_c, 0, 69, 80
2, 22342, Note_on_c, 0, 77, 80
2, 22379, Note_on_c, 0, 41, 80
2, 22394, Note_on_c, 0, 53, 80
2, 22418, Note_on_c, 0, 69, 0
2, 22420, Note_on_c, 0, 72, 0
2, 22420, Note_on_c, 0, 65, 0
2, 22442, Note_on_c, 0, 65, 80
2, 22458, Note_on_c, 0, 41, 0
2, 22468, Note_on_c, 0, 53, 0
2, 22482, Note_on_c, 0, 36, 80
2, 22490, Note_on_c, 0, 77, 0
2, 22490, Note_on_c, 0, 65, 0
2, 22497, Note_on_c, 0, 69, 80
2, 22497, Note_on_c, 0, 81, 80
2, 22504, Note_on_c, 0, 48, 80
2, 22538, Note_on_c, 0, 81, 0
2, 22543, Note_on_c, 0, 69, 0
2, 22552, Note_on_c, 0, 72, 80
2, 22552, Note_on_c, 0, 84, 80
2, 22565, Note_on_c, 0, 36, 0
2, 22579, Note_on_c, 0, 48, 0
2, 22594, Note_on_c, 0, 41, 80
2, 22599, Note_on_c, 0, 72, 0
2, 22599, Note_on_c, 0, 84, 0
2, 22606, Note_on_c, 0, 65, 80
2, 22606, Note_on_c, 0, 77, 80
2, 22606, Note_on_c, 0, 81, 80
2, 22608, Note_on_c, 0, 60, 80
2, 22609, Note_on_c, 0, 89, 80
2, 22616, Note_on_c, 0, 53, 80
2, 22657, Note_on_c, 0, 89, 0
2, 22659, Note_on_c, 0, 77, 0
2, 22659, Note_on_c, 0, 81, 0
2, 22661, Note_on_c, 0, 60, 0
2, 22666, Note_on_c, 0, 65, 0
2, 22675, Note_on_c, 0, 41, 0
2, 22688, Note_on_c, 0, 53, 0
2, 22827, Note_on_c, 0, 46, 80
2, 22827, Note_on_c, 0, 58, 80
2, 22827, Note_on_c, 0, 65, 80
2, 22827, Note_on_c, 0, 70, 80
2, 22827, Note_on_c, 0, 77, 80
2, 22832, Note_on_c, 0, 74, 80
2, 22872, Note_on_c, 0, 58, 0
2, 22872, Note_on_c, 0, 46, 0
2, 22880, Note_on_c, 0, 57, 80
2, 22885, Note_on_c, 0, 45, 80
2, 22926, Note_on_c, 0, 57, 0
2, 22931, Note_on_c, 0, 45, 0
2, 22933, Note_on_c, 0, 44, 80
2, 22933, Note_on_c, 0, 56, 80
2, 22957, Note_on_c, 0, 65, 0
2, 22957, Note_on_c, 0, 77, 0
2, 22957, Note_on_c, 0, 70, 0
2, 22957, Note_on_c, 0, 74, 0
2, 22976, Note_on_c, 0, 56, 0
2, 22978, Note_on_c, 0, 44, 0
2, 22980, Note_on_c, 0, 43, 80
2, 22991, Note_on_c, 0, 82, 80
2, 22992, Note_on_c, 0, 70, 80
2, 22992, Note_on_c, 0, 73, 80
2, 22992, Note_on_c, 0, 76, 80
2, 23001, Note_on_c, 0, 55, 80
2, 23056, Note_on_c, 0, 43, 0
2, 23071, Note_on_c, 0, 55, 0
2, 23093, Note_on_c, 0, 70, 0
2, 23100, Note_on_c, 0, 73, 0
2, 23100, Note_on_c, 0, 54, 80
2, 23102, Note_on_c, 0, 42, 80
2, 23111, Note_on_c, 0, 76, 0
2, 23121, Note_on_c, 0, 82, 0
2, 23138, Note_on_c, 0, 54, 0
2, 23143, Note_on_c, 0, 41, 80
2, 23148, Note_on_c, 0, 42, 0
2, 23163, Note_on_c, 0, 53, 80
2, 23220, Note_on_c, 0, 41, 0
2, 23231, Note_on_c, 0, 53, 0
2, 23235, Note_on_c, 0, 74, 80
2, 23259, Note_on_c, 0, 40, 80
2, 23261, Note_on_c, 0, 52, 80
2, 23261, Note_on_c, 0, 67, 80
2, 23261, Note_on_c, 0, 70, 80
2, 23266, Note_on_c, 0, 79, 80
2, 23305, Note_on_c, 0, 40, 0
2, 23310, Note_on_c, 0, 52, 0
2, 23315, Note_on_c, 0, 39, 80
2, 23315, Note_on_c, 0, 51, 80
2, 23356, Note_on_c, 0, 51, 0
2, 23356, Note_on_c, 0, 39, 0
2, 23363, Note_on_c, 0, 50, 80
2, 23368, Note_on_c, 0, 38, 80
2, 23387, Note_on_c, 0, 70, 0
2, 23387, Note_on_c, 0, 67, 0
2, 23387, Note_on_c, 0, 79, 0
2, 23392, Note_on_c, 0, 74, 0
2, 23394, Note_on_c, 0, 76, 80
2, 23407, Note_on_c, 0, 50, 0
2, 23407, Note_on_c, 0, 37, 80
2, 23412, Note_on_c, 0, 38, 0
2, 23417, Note_on_c, 0, 67, 80
2, 23422, Note_on_c, 0, 81, 80
2, 23426, Note_on_c, 0, 49, 80
2, 23433, Note_on_c, 0, 69, 80
2, 23440, Note_on_c, 0, 73, 80
2, 23486, Note_on_c, 0, 37, 0
2, 23501, Note_on_c, 0, 49, 0
2, 23525, Note_on_c, 0, 36, 80
2, 23525, Note_on_c, 0, 48, 80
2, 23539, Note_on_c, 0, 76, 0
2, 23541, Note_on_c, 0, 73, 0
2, 23549, Note_on_c, 0, 67, 0
2, 23549, Note_on_c, 0, 69, 0
2, 23549, Note_on_c, 0, 81, 0
2, 23568, Note_on_c, 0, 48, 0
2, 23568, Note_on_c, 0, 36, 0
2, 23568, Note_on_c, 0, 35, 80
2, 23588, Note_on_c, 0, 47, 80
2, 23642, Note_on_c, 0, 35, 0
2, 23656, Note_on_c, 0, 47, 0
2, 23658, Note_on_c, 0, 74, 80
2, 23686, Note_on_c, 0, 46, 80
2, 23686, Note_on_c, 0, 58, 80
2, 23686, Note_on_c, 0, 65, 80
2, 23686, Note_on_c, 0, 77, 80
2, 23690, Note_on_c, 0, 68, 80
2, 23734, Note_on_c, 0, 46, 0
2, 23738, Note_on_c, 0, 58, 0
2, 23745, Note_on_c, 0, 57, 80
2, 23747, Note_on_c, 0, 45, 80
2, 23793, Note_on_c, 0, 45, 0
2, 23793, Note_on_c, 0, 57, 0
2, 23802, Note_on_c, 0, 44, 80
2, 23802, Note_on_c, 0, 56, 80
2, 23828, Note_on_c, 0, 82, 80
2, 23830, Note_on_c, 0, 77, 0
2, 23830, Note_on_c, 0, 65, 0
2, 23830, Note_on_c, 0, 74, 0
2, 23830, Note_on_c, 0, 68, 0
2, 23845, Note_on_c, 0, 43, 80
2, 23850, Note_on_c, 0, 56, 0
2, 23850, Note_on_c, 0, 44, 0
2, 23856, Note_on_c, 0, 70, 80
2, 23856, Note_on_c, 0, 73, 80
2, 23856, Note_on_c, 0, 76, 80
2, 23865, Note_on_c, 0, 55, 80
2, 23922, Note_on_c, 0, 43, 0
2, 23932, Note_on_c, 0, 55, 0
2, 23965, Note_on_c, 0, 42, 80
2, 23965, Note_on_c, 0, 54, 80
2, 24008, Note_on_c, 0, 54, 0
2, 24008, Note_on_c, 0, 41, 80
2, 24013, Note_on_c, 0, 42, 0
2, 24028, Note_on_c, 0, 73, 0
2, 24028, Note_on_c, 0, 53, 80
2, 24044, Note_on_c, 0, 82, 0
2, 24044, Note_on_c, 0, 70, 0
2, 24046, Note_on_c, 0, 76, 0
2, 24072, Note_on_c, 0, 76, 80
2, 24076, Note_on_c, 0, 73, 80
2, 24076, Note_on_c, 0, 85, 80
2, 24092, Note_on_c, 0, 41, 0
2, 24098, Note_on_c, 0, 53, 0
2, 24114, Note_on_c, 0, 40, 80
2, 24140, Note_on_c, 0, 52, 80
2, 24194, Note_on_c, 0, 40, 0
2, 24201, Note_on_c, 0, 52, 0
2, 24215, Note_on_c, 0, 85, 0
2, 24219, Note_on_c, 0, 76, 0
2, 24219, Note_on_c, 0, 73, 0
2, 24233, Note_on_c, 0, 46, 80
2, 24238, Note_on_c, 0, 34, 80
2, 24284, Note_on_c, 0, 34, 0
2, 24284, Note_on_c, 0, 46, 0
2, 24290, Note_on_c, 0, 37, 80
2, 24290, Note_on_c, 0, 49, 80
2, 24342, Note_on_c, 0, 49, 0
2, 24342, Note_on_c, 0, 37, 0
2, 24349, Note_on_c, 0, 40, 80
2, 24349, Note_on_c, 0, 52, 80
2, 24399, Note_on_c, 0, 52, 0
2, 24399, Note_on_c, 0, 40, 0
2, 24406, Note_on_c, 0, 43, 80
2, 24406, Note_on_c, 0, 55, 80
2, 24452, Note_on_c, 0, 55, 0
2, 24452, Note_on_c, 0, 43, 0
2, 24458, Note_on_c, 0, 46, 80
2, 24458, Note_on_c, 0, 58, 80
2, 24506, Note_on_c, 0, 46, 0
2, 24511, Note_on_c, 0, 58, 0
2, 24513, Note_on_c, 0, 49, 80
2, 24513, Note_on_c, 0, 61, 80
2, 24556, Note_on_c, 0, 38, 80
2, 24561, Note_on_c, 0, 61, 0
2, 24561, Note_on_c, 0, 49, 0
2, 24568, Note_on_c, 0, 62, 80
2, 24581, Note_on_c, 0, 50, 80
2, 24616, Note_on_c, 0, 62, 0
2, 24626, Note_on_c, 0, 73, 80
2, 24631, Note_on_c, 0, 85, 80
2, 24669, Note_on_c, 0, 85, 0
2, 24669, Note_on_c, 0, 73, 0
2, 24688, Note_on_c, 0, 53, 80
2, 24688, Note_on_c, 0, 58, 80
2, 24688, Note_on_c, 0, 62, 80
2, 24688, Note_on_c, 0, 74, 80
2, 24688, Note_on_c, 0, 77, 80
2, 24688, Note_on_c, 0, 86, 80
2, 24688, Note_on_c, 0, 89, 80
2, 24695, Note_on_c, 0, 38, 0
2, 24701, Note_on_c, 0, 50, 0
2, 24717, Note_on_c, 0, 89, 0
2, 24719, Note_on_c, 0, 86, 0
2, 24719, Note_on_c, 0, 74, 0
2, 24723, Note_on_c, 0, 77, 0
2, 24732, Note_on_c, 0, 58, 0
2, 24732, Note_on_c, 0, 53, 0
2, 24732, Note_on_c, 0, 62, 0
2, 24741, Note_on_c, 0, 73, 80
2, 24741, Note_on_c, 0, 85, 80
2, 24773, Note_on_c, 0, 85, 0
2, 24775, Note_on_c, 0, 73, 0
2, 24786, Note_on_c, 0, 41, 80
2, 24791, Note_on_c, 0, 77, 80
2, 24792, Note_on_c, 0, 74, 80
2, 24794, Note_on_c, 0, 86, 80
2, 24794, Note_on_c, 0, 89, 80
2, 24808, Note_on_c, 0, 53, 80
2, 24825, Note_on_c, 0, 89, 0
2, 24825, Note_on_c, 0, 86, 0
2, 24830, Note_on_c, 0, 74, 0
2, 24830, Note_on_c, 0, 77, 0
2, 24847, Note_on_c, 0, 72, 80
2, 24849, Note_on_c, 0, 76, 80
2, 24849, Note_on_c, 0, 84, 80
2, 24849, Note_on_c, 0, 88, 80
2, 24864, Note_on_c, 0, 41, 0
2, 24884, Note_on_c, 0, 53, 0
2, 24890, Note_on_c, 0, 42, 80
2, 24899, Note_on_c, 0, 84, 0
2, 24899, Note_on_c, 0, 72, 0
2, 24901, Note_on_c, 0, 88, 0
2, 24903, Note_on_c, 0, 76, 0
2, 24912, Note_on_c, 0, 54, 80
2, 24942, Note_on_c, 0, 70, 80
2, 24956, Note_on_c, 0, 86, 80
2, 24969, Note_on_c, 0, 74, 80
2, 24974, Note_on_c, 0, 42, 0
2, 24976, Note_on_c, 0, 86, 0
2, 24983, Note_on_c, 0, 82, 80
2, 24989, Note_on_c, 0, 54, 0
2, 24998, Note_on_c, 0, 43, 80
2, 25008, Note_on_c, 0, 82, 0
2, 25008, Note_on_c, 0, 86, 80
2, 25017, Note_on_c, 0, 55, 80
2, 25031, Note_on_c, 0, 86, 0
2, 25041, Note_on_c, 0, 82, 80
2, 25060, Note_on_c, 0, 86, 80
2, 25065, Note_on_c, 0, 82, 0
2, 25080, Note_on_c, 0, 86, 0
2, 25085, Note_on_c, 0, 55, 0
2, 25092, Note_on_c, 0, 82, 80
2, 25118, Note_on_c, 0, 82, 0
2, 25118, Note_on_c, 0, 55, 80
2, 25118, Note_on_c, 0, 58, 80
2, 25118, Note_on_c, 0, 62, 80
2, 25125, Note_on_c, 0, 86, 80
2, 25131, Note_on_c, 0, 43, 0
2, 25145, Note_on_c, 0, 86, 0
2, 25147, Note_on_c, 0, 82, 80
2, 25162, Note_on_c, 0, 55, 0
2, 25162, Note_on_c, 0, 62, 0
2, 25167, Note_on_c, 0, 58, 0
2, 25176, Note_on_c, 0, 86, 80
2, 25184, Note_on_c, 0, 70, 0
2, 25184, Note_on_c, 0, 85, 80
2, 25191, Note_on_c, 0, 82, 0
2, 25193, Note_on_c, 0, 84, 80
2, 25200, Note_on_c, 0, 74, 0
2, 25200, Note_on_c, 0, 83, 80
2, 25206, Note_on_c, 0, 86, 0
2, 25215, Note_on_c, 0, 40, 80
2, 25220, Note_on_c, 0, 85, 0
2, 25222, Note_on_c, 0, 94, 80
2, 25224, Note_on_c, 0, 82, 80
2, 25225, Note_on_c, 0, 84, 0
2, 25227, Note_on_c, 0, 88, 80
2, 25238, Note_on_c, 0, 52, 80
2, 25240, Note_on_c, 0, 83, 0
2, 25245, Note_on_c, 0, 82, 0
2, 25255, Note_on_c, 0, 76, 80
2, 25279, Note_on_c, 0, 82, 80
2, 25281, Note_on_c, 0, 76, 0
2, 25300, Note_on_c, 0, 82, 0
2, 25307, Note_on_c, 0, 76, 80
2, 25326, Note_on_c, 0, 82, 80
2, 25328, Note_on_c, 0, 55, 80
2, 25328, Note_on_c, 0, 58, 80
2, 25328, Note_on_c, 0, 64, 80
2, 25333, Note_on_c, 0, 76, 0
2, 25333, Note_on_c, 0, 40, 0
2, 25346, Note_on_c, 0, 52, 0
2, 25353, Note_on_c, 0, 82, 0
2, 25364, Note_on_c, 0, 76, 80
2, 25377, Note_on_c, 0, 55, 0
2, 25382, Note_on_c, 0, 64, 0
2, 25382, Note_on_c, 0, 58, 0
2, 25384, Note_on_c, 0, 82, 80
2, 25403, Note_on_c, 0, 94, 0
2, 25408, Note_on_c, 0, 88, 0
2, 25408, Note_on_c, 0, 76, 0
2, 25408, Note_on_c, 0, 82, 0
2, 25434, Note_on_c, 0, 33, 80
2, 25466, Note_on_c, 0, 45, 80
2, 25506, Note_on_c, 0, 80, 80
2, 25506, Note_on_c, 0, 92, 80
2, 25540, Note_on_c, 0, 80, 0
2, 25542, Note_on_c, 0, 92, 0
2, 25558, Note_on_c, 0, 55, 80
2, 25558, Note_on_c, 0, 57, 80
2, 25558, Note_on_c, 0, 61, 80
2, 25562, Note_on_c, 0, 33, 0
2, 25562, Note_on_c, 0, 64, 80
2, 25562, Note_on_c, 0, 81, 80
2, 25562, Note_on_c, 0, 93, 80
2, 25573, Note_on_c, 0, 45, 0
2, 25588, Note_on_c, 0, 81, 0
2, 25588, Note_on_c, 0, 93, 0
2, 25602, Note_on_c, 0, 61, 0
2, 25602, Note_on_c, 0, 64, 0
2, 25602, Note_on_c, 0, 55, 0
2, 25607, Note_on_c, 0, 57, 0
2, 25607, Note_on_c, 0, 92, 80
2, 25608, Note_on_c, 0, 80, 80
2, 25641, Note_on_c, 0, 80, 0
2, 25641, Note_on_c, 0, 92, 0
2, 25655, Note_on_c, 0, 40, 80
2, 25663, Note_on_c, 0, 81, 80
2, 25663, Note_on_c, 0, 93, 80
2, 25672, Note_on_c, 0, 52, 80
2, 25698, Note_on_c, 0, 93, 0
2, 25715, Note_on_c, 0, 91, 80
2, 25717, Note_on_c, 0, 88, 80
2, 25722, Note_on_c, 0, 85, 80
2, 25724, Note_on_c, 0, 79, 80
2, 25770, Note_on_c, 0, 57, 80
2, 25772, Note_on_c, 0, 85, 0
2, 25772, Note_on_c, 0, 88, 0
2, 25772, Note_on_c, 0, 55, 80
2, 25772, Note_on_c, 0, 61, 80
2, 25772, Note_on_c, 0, 64, 80
2, 25774, Note_on_c, 0, 91, 0
2, 25774, Note_on_c, 0, 81, 0
2, 25774, Note_on_c, 0, 79, 0
2, 25776, Note_on_c, 0, 40, 0
2, 25782, Note_on_c, 0, 65, 80
2, 25787, Note_on_c, 0, 52, 0
2, 25789, Note_on_c, 0, 66, 80
2, 25804, Note_on_c, 0, 67, 80
2, 25806, Note_on_c, 0, 64, 0
2, 25817, Note_on_c, 0, 55, 0
2, 25817, Note_on_c, 0, 61, 0
2, 25817, Note_on_c, 0, 68, 80
2, 25819, Note_on_c, 0, 57, 0
2, 25819, Note_on_c, 0, 65, 0
2, 25825, Note_on_c, 0, 69, 80
2, 25825, Note_on_c, 0, 89, 80
2, 25827, Note_on_c, 0, 66, 0
2, 25827, Note_on_c, 0, 86, 80
2, 25829, Note_on_c, 0, 74, 80
2, 25831, Note_on_c, 0, 77, 80
2, 25840, Note_on_c, 0, 67, 0
2, 25848, Note_on_c, 0, 89, 0
2, 25848, Note_on_c, 0, 69, 0
2, 25848, Note_on_c, 0, 68, 0
2, 25850, Note_on_c, 0, 86, 0
2, 25864, Note_on_c, 0, 38, 80
2, 25872, Note_on_c, 0, 86, 80
2, 25872, Note_on_c, 0, 89, 80
2, 25874, Note_on_c, 0, 69, 80
2, 25883, Note_on_c, 0, 50, 80
2, 25894, Note_on_c, 0, 89, 0
2, 25898, Note_on_c, 0, 86, 0
2, 25898, Note_on_c, 0, 69, 0
2, 25929, Note_on_c, 0, 86, 80
2, 25931, Note_on_c, 0, 69, 80
2, 25933, Note_on_c, 0, 89, 80
2, 25948, Note_on_c, 0, 69, 0
2, 25950, Note_on_c, 0, 38, 0
2, 25952, Note_on_c, 0, 86, 0
2, 25957, Note_on_c, 0, 89, 0
2, 25962, Note_on_c, 0, 50, 0
2, 25968, Note_on_c, 0, 37, 80
2, 25982, Note_on_c, 0, 86, 80
2, 25982, Note_on_c, 0, 89, 80
2, 25984, Note_on_c, 0, 69, 80
2, 25992, Note_on_c, 0, 49, 80
2, 26003, Note_on_c, 0, 69, 0
2, 26003, Note_on_c, 0, 89, 0
2, 26008, Note_on_c, 0, 86, 0
2, 26036, Note_on_c, 0, 69, 80
2, 26036, Note_on_c, 0, 86, 80
2, 26036, Note_on_c, 0, 89, 80
2, 26051, Note_on_c, 0, 37, 0
2, 26053, Note_on_c, 0, 74, 0
2, 26058, Note_on_c, 0, 69, 0
2, 26058, Note_on_c, 0, 49, 0
2, 26058, Note_on_c, 0, 77, 0
2, 26058, Note_on_c, 0, 89, 0
2, 26063, Note_on_c, 0, 86, 0
2, 26078, Note_on_c, 0, 36, 80
2, 26088, Note_on_c, 0, 69, 80
2, 26088, Note_on_c, 0, 77, 80
2, 26088, Note_on_c, 0, 81, 80
2, 26088, Note_on_c, 0, 89, 80
2, 26093, Note_on_c, 0, 87, 80
2, 26102, Note_on_c, 0, 48, 80
2, 26112, Note_on_c, 0, 69, 0
2, 26135, Note_on_c, 0, 89, 0
2, 26135, Note_on_c, 0, 81, 0
2, 26135, Note_on_c, 0, 87, 0
2, 26136, Note_on_c, 0, 77, 0
2, 26143, Note_on_c, 0, 69, 80
2, 26154, Note_on_c, 0, 36, 0
2, 26164, Note_on_c, 0, 69, 0
2, 26166, Note_on_c, 0, 48, 0
2, 26190, Note_on_c, 0, 41, 80
2, 26197, Note_on_c, 0, 87, 80
2, 26197, Note_on_c, 0, 89, 80
2, 26199, Note_on_c, 0, 69, 80
2, 26199, Note_on_c, 0, 77, 80
2, 26199, Note_on_c, 0, 81, 80
2, 26206, Note_on_c, 0, 53, 80
2, 26223, Note_on_c, 0, 69, 0
2, 26240, Note_on_c, 0, 77, 0
2, 26240, Note_on_c, 0, 87, 0
2, 26240, Note_on_c, 0, 89, 0
2, 26240, Note_on_c, 0, 81, 0
2, 26254, Note_on_c, 0, 69, 80
2, 26271, Note_on_c, 0, 41, 0
2, 26281, Note_on_c, 0, 53, 0
2, 26283, Note_on_c, 0, 69, 0
2, 26316, Note_on_c, 0, 46, 80
2, 26316, Note_on_c, 0, 58, 80
2, 26316, Note_on_c, 0, 65, 80
2, 26316, Note_on_c, 0, 70, 80
2, 26316, Note_on_c, 0, 74, 80
2, 26316, Note_on_c, 0, 77, 80
2, 26362, Note_on_c, 0, 58, 0
2, 26362, Note_on_c, 0, 46, 0
2, 26367, Note_on_c, 0, 57, 80
2, 26372, Note_on_c, 0, 45, 80
2, 26415, Note_on_c, 0, 44, 80
2, 26415, Note_on_c, 0, 56, 80
2, 26417, Note_on_c, 0, 45, 0
2, 26417, Note_on_c, 0, 57, 0
2, 26434, Note_on_c, 0, 70, 0
2, 26443, Note_on_c, 0, 74, 0
2, 26448, Note_on_c, 0, 65, 0
2, 26448, Note_on_c, 0, 77, 0
2, 26463, Note_on_c, 0, 43, 80
2, 26465, Note_on_c, 0, 70, 80
2, 26467, Note_on_c, 0, 56, 0
2, 26467, Note_on_c, 0, 44, 0
2, 26472, Note_on_c, 0, 73, 80
2, 26472, Note_on_c, 0, 76, 80
2, 26472, Note_on_c, 0, 82, 80
2, 26485, Note_on_c, 0, 55, 80
2, 26544, Note_on_c, 0, 43, 0
2, 26563, Note_on_c, 0, 55, 0
2, 26576, Note_on_c, 0, 70, 0
2, 26585, Note_on_c, 0, 73, 0
2, 26585, Note_on_c, 0, 42, 80
2, 26585, Note_on_c, 0, 54, 80
2, 26602, Note_on_c, 0, 76, 0
2, 26609, Note_on_c, 0, 82, 0
2, 26633, Note_on_c, 0, 41, 80
2, 26635, Note_on_c, 0, 42, 0
2, 26635, Note_on_c, 0, 54, 0
2, 26652, Note_on_c, 0, 53, 80
2, 26704, Note_on_c, 0, 74, 80
2, 26711, Note_on_c, 0, 41, 0
2, 26721, Note_on_c, 0, 53, 0
2, 26745, Note_on_c, 0, 40, 80
2, 26745, Note_on_c, 0, 52, 80
2, 26750, Note_on_c, 0, 70, 80
2, 26752, Note_on_c, 0, 67, 80
2, 26760, Note_on_c, 0, 79, 80
2, 26793, Note_on_c, 0, 40, 0
2, 26798, Note_on_c, 0, 52, 0
2, 26807, Note_on_c, 0, 39, 80
2, 26807, Note_on_c, 0, 51, 80
2, 26848, Note_on_c, 0, 39, 0
2, 26853, Note_on_c, 0, 51, 0
2, 26853, Note_on_c, 0, 50, 80
2, 26857, Note_on_c, 0, 38, 80
2, 26864, Note_on_c, 0, 74, 0
2, 26878, Note_on_c, 0, 67, 0
2, 26878, Note_on_c, 0, 70, 0
2, 26882, Note_on_c, 0, 79, 0
2, 26900, Note_on_c, 0, 37, 80
2, 26904, Note_on_c, 0, 38, 0
2, 26904, Note_on_c, 0, 50, 0
2, 26911, Note_on_c, 0, 67, 80
2, 26911, Note_on_c, 0, 69, 80
2, 26911, Note_on_c, 0, 76, 80
2, 26911, Note_on_c, 0, 81, 80
2, 26922, Note_on_c, 0, 49, 80
2, 26922, Note_on_c, 0, 73, 80
2, 26974, Note_on_c, 0, 37, 0
2, 26984, Note_on_c, 0, 49, 0
2, 27010, Note_on_c, 0, 36, 80
2, 27010, Note_on_c, 0, 48, 80
2, 27034, Note_on_c, 0, 69, 0
2, 27034, Note_on_c, 0, 81, 0
2, 27034, Note_on_c, 0, 67, 0
2, 27034, Note_on_c, 0, 76, 0
2, 27034, Note_on_c, 0, 73, 0
2, 27053, Note_on_c, 0, 36, 0
2, 27053, Note_on_c, 0, 35, 80
2, 27060, Note_on_c, 0, 48, 0
2, 27073, Note_on_c, 0, 47, 80
2, 27147, Note_on_c, 0, 35, 0
2, 27154, Note_on_c, 0, 74, 80
2, 27156, Note_on_c, 0, 47, 0
2, 27187, Note_on_c, 0, 77, 80
2, 27189, Note_on_c, 0, 46, 80
2, 27189, Note_on_c, 0, 58, 80
2, 27189, Note_on_c, 0, 65, 80
2, 27199, Note_on_c, 0, 68, 80
2, 27234, Note_on_c, 0, 58, 0
2, 27234, Note_on_c, 0, 46, 0
2, 27236, Note_on_c, 0, 57, 80
2, 27244, Note_on_c, 0, 45, 80
2, 27288, Note_on_c, 0, 45, 0
2, 27288, Note_on_c, 0, 57, 0
2, 27289, Note_on_c, 0, 44, 80
2, 27289, Note_on_c, 0, 56, 80
2, 27296, Note_on_c, 0, 74, 0
2, 27313, Note_on_c, 0, 77, 0
2, 27315, Note_on_c, 0, 68, 0
2, 27315, Note_on_c, 0, 65, 0
2, 27326, Note_on_c, 0, 70, 80
2, 27333, Note_on_c, 0, 43, 80
2, 27337, Note_on_c, 0, 56, 0
2, 27337, Note_on_c, 0, 44, 0
2, 27344, Note_on_c, 0, 73, 80
2, 27351, Note_on_c, 0, 55, 80
2, 27368, Note_on_c, 0, 76, 80
2, 27387, Note_on_c, 0, 82, 80
2, 27413, Note_on_c, 0, 43, 0
2, 27424, Note_on_c, 0, 55, 0
2, 27452, Note_on_c, 0, 54, 80
2, 27454, Note_on_c, 0, 42, 80
2, 27467, Note_on_c, 0, 70, 0
2, 27491, Note_on_c, 0, 73, 0
2, 27496, Note_on_c, 0, 54, 0
2, 27501, Note_on_c, 0, 41, 80
2, 27505, Note_on_c, 0, 42, 0
2, 27510, Note_on_c, 0, 76, 0
2, 27517, Note_on_c, 0, 53, 80
2, 27534, Note_on_c, 0, 82, 0
2, 27562, Note_on_c, 0, 73, 80
2, 27562, Note_on_c, 0, 76, 80
2, 27562, Note_on_c, 0, 85, 80
2, 27577, Note_on_c, 0, 41, 0
2, 27584, Note_on_c, 0, 53, 0
2, 27603, Note_on_c, 0, 40, 80
2, 27625, Note_on_c, 0, 52, 80
2, 27677, Note_on_c, 0, 76, 0
2, 27677, Note_on_c, 0, 85, 0
2, 27677, Note_on_c, 0, 73, 0
2, 27686, Note_on_c, 0, 40, 0
2, 27701, Note_on_c, 0, 52, 0
2, 27725, Note_on_c, 0, 46, 80
2, 27727, Note_on_c, 0, 34, 80
2, 27775, Note_on_c, 0, 34, 0
2, 27775, Note_on_c, 0, 46, 0
2, 27782, Note_on_c, 0, 49, 80
2, 27784, Note_on_c, 0, 37, 80
2, 27827, Note_on_c, 0, 37, 0
2, 27827, Note_on_c, 0, 49, 0
2, 27829, Note_on_c, 0, 40, 80
2, 27834, Note_on_c, 0, 52, 80
2, 27882, Note_on_c, 0, 52, 0
2, 27882, Note_on_c, 0, 40, 0
2, 27890, Note_on_c, 0, 43, 80
2, 27890, Note_on_c, 0, 55, 80
2, 27940, Note_on_c, 0, 55, 0
2, 27940, Note_on_c, 0, 43, 0
2, 27951, Note_on_c, 0, 46, 80
2, 27951, Note_on_c, 0, 58, 80
2, 27999, Note_on_c, 0, 58, 0
2, 27999, Note_on_c, 0, 46, 0
2, 28001, Note_on_c, 0, 61, 80
2, 28003, Note_on_c, 0, 49, 80
2, 28046, Note_on_c, 0, 38, 80
2, 28048, Note_on_c, 0, 49, 0
2, 28048, Note_on_c, 0, 61, 0
2, 28056, Note_on_c, 0, 62, 80
2, 28065, Note_on_c, 0, 50, 80
2, 28103, Note_on_c, 0, 62, 0
2, 28111, Note_on_c, 0, 73, 80
2, 28111, Note_on_c, 0, 85, 80
2, 28144, Note_on_c, 0, 85, 0
2, 28149, Note_on_c, 0, 73, 0
2, 28162, Note_on_c, 0, 86, 80
2, 28162, Note_on_c, 0, 89, 80
2, 28164, Note_on_c, 0, 53, 80
2, 28164, Note_on_c, 0, 58, 80
2, 28164, Note_on_c, 0, 74, 80
2, 28164, Note_on_c, 0, 77, 80
2, 28166, Note_on_c, 0, 62, 80
2, 28176, Note_on_c, 0, 50, 0
2, 28176, Note_on_c, 0, 38, 0
2, 28196, Note_on_c, 0, 77, 0
2, 28196, Note_on_c, 0, 86, 0
2, 28196, Note_on_c, 0, 89, 0
2, 28196, Note_on_c, 0, 74, 0
2, 28209, Note_on_c, 0, 62, 0
2, 28209, Note_on_c, 0, 53, 0
2, 28209, Note_on_c, 0, 58, 0
2, 28216, Note_on_c, 0, 72, 80
2, 28216, Note_on_c, 0, 84, 80
2, 28248, Note_on_c, 0, 84, 0
2, 28248, Note_on_c, 0, 72, 0
2, 28262, Note_on_c, 0, 41, 80
2, 28269, Note_on_c, 0, 74, 80
2, 28269, Note_on_c, 0, 77, 80
2, 28269, Note_on_c, 0, 89, 80
2, 28271, Note_on_c, 0, 86, 80
2, 28279, Note_on_c, 0, 53, 80
2, 28301, Note_on_c, 0, 86, 0
2, 28301, Note_on_c, 0, 89, 0
2, 28301, Note_on_c, 0, 77, 0
2, 28306, Note_on_c, 0, 74, 0
2, 28317, Note_on_c, 0, 76, 80
2, 28321, Note_on_c, 0, 72, 80
2, 28321, Note_on_c, 0, 84, 80
2, 28321, Note_on_c, 0, 88, 80
2, 28337, Note_on_c, 0, 41, 0
2, 28344, Note_on_c, 0, 53, 0
2, 28368, Note_on_c, 0, 42, 80
2, 28376, Note_on_c, 0, 72, 0
2, 28376, Note_on_c, 0, 88, 0
2, 28381, Note_on_c, 0, 76, 0
2, 28381, Note_on_c, 0, 84, 0
2, 28390, Note_on_c, 0, 54, 80
2, 28431, Note_on_c, 0, 70, 80
2, 28431, Note_on_c, 0, 74, 80
2, 28436, Note_on_c, 0, 82, 80
2, 28436, Note_on_c, 0, 86, 80
2, 28458, Note_on_c, 0, 54, 0
2, 28458, Note_on_c, 0, 42, 0
2, 28477, Note_on_c, 0, 43, 80
2, 28494, Note_on_c, 0, 55, 80
2, 28510, Note_on_c, 0, 82, 0
2, 28516, Note_on_c, 0, 86, 0
2, 28521, Note_on_c, 0, 70, 0
2, 28526, Note_on_c, 0, 74, 0
2, 28535, Note_on_c, 0, 82, 80
2, 28535, Note_on_c, 0, 94, 80
2, 28554, Note_on_c, 0, 43, 0
2, 28564, Note_on_c, 0, 55, 0
2, 28571, Note_on_c, 0, 94, 0
2, 28573, Note_on_c, 0, 82, 0
2, 28578, Note_on_c, 0, 38, 80
2, 28588, Note_on_c, 0, 92, 80
2, 28593, Note_on_c, 0, 80, 80
2, 28598, Note_on_c, 0, 50, 80
2, 28620, Note_on_c, 0, 80, 0
2, 28627, Note_on_c, 0, 92, 0
2, 28644, Note_on_c, 0, 86, 80
2, 28646, Note_on_c, 0, 74, 80
2, 28659, Note_on_c, 0, 38, 0
2, 28670, Note_on_c, 0, 50, 0
2, 28679, Note_on_c, 0, 86, 0
2, 28683, Note_on_c, 0, 74, 0
2, 28688, Note_on_c, 0, 39, 80
2, 28699, Note_on_c, 0, 77, 80
2, 28699, Note_on_c, 0, 89, 80
2, 28714, Note_on_c, 0, 51, 80
2, 28738, Note_on_c, 0, 89, 0
2, 28738, Note_on_c, 0, 77, 0
2, 28762, Note_on_c, 0, 75, 80
2, 28762, Note_on_c, 0, 87, 80
2, 28777, Note_on_c, 0, 39, 0
2, 28791, Note_on_c, 0, 51, 0
2, 28798, Note_on_c, 0, 75, 0
2, 28798, Note_on_c, 0, 87, 0
2, 28802, Note_on_c, 0, 40, 80
2, 28811, Note_on_c, 0, 82, 80
2, 28816, Note_on_c, 0, 67, 80
2, 28816, Note_on_c, 0, 70, 80
2, 28816, Note_on_c, 0, 79, 80
2, 28824, Note_on_c, 0, 52, 80
2, 28848, Note_on_c, 0, 79, 0
2, 28848, Note_on_c, 0, 67, 0
2, 28848, Note_on_c, 0, 82, 0
2, 28853, Note_on_c, 0, 70, 0
2, 28869, Note_on_c, 0, 72, 80
2, 28869, Note_on_c, 0, 84, 80
2, 28882, Note_on_c, 0, 40, 0
2, 28893, Note_on_c, 0, 52, 0
2, 28899, Note_on_c, 0, 84, 0
2, 28901, Note_on_c, 0, 72, 0
2, 28912, Note_on_c, 0, 41, 80
2, 28917, Note_on_c, 0, 82, 80
2, 28923, Note_on_c, 0, 70, 80
2, 28923, Note_on_c, 0, 86, 80
2, 28925, Note_on_c, 0, 74, 80
2, 28932, Note_on_c, 0, 53, 80
2, 28956, Note_on_c, 0, 74, 0
2, 28956, Note_on_c, 0, 86, 0
2, 28956, Note_on_c, 0, 82, 0
2, 28961, Note_on_c, 0, 70, 0
2, 28974, Note_on_c, 0, 73, 80
2, 28979, Note_on_c, 0, 85, 80
2, 28994, Note_on_c, 0, 41, 0
2, 29005, Note_on_c, 0, 53, 0
2, 29012, Note_on_c, 0, 85, 0
2, 29016, Note_on_c, 0, 73, 0
2, 29027, Note_on_c, 0, 77, 80
2, 29032, Note_on_c, 0, 62, 80
2, 29032, Note_on_c, 0, 74, 80
2, 29032, Note_on_c, 0, 89, 80
2, 29034, Note_on_c, 0, 86, 80
2, 29036, Note_on_c, 0, 53, 80
2, 29036, Note_on_c, 0, 58, 80
2, 29055, Note_on_c, 0, 77, 0
2, 29062, Note_on_c, 0, 89, 0
2, 29066, Note_on_c, 0, 86, 0
2, 29071, Note_on_c, 0, 74, 0
2, 29080, Note_on_c, 0, 62, 0
2, 29080, Note_on_c, 0, 58, 0
2, 29082, Note_on_c, 0, 53, 0
2, 29087, Note_on_c, 0, 65, 80
2, 29087, Note_on_c, 0, 77, 80
2, 29124, Note_on_c, 0, 77, 0
2, 29124, Note_on_c, 0, 65, 0
2, 29129, Note_on_c, 0, 43, 80
2, 29144, Note_on_c, 0, 74, 80
2, 29144, Note_on_c, 0, 76, 80
2, 29144, Note_on_c, 0, 82, 80
2, 29144, Note_on_c, 0, 86, 80
2, 29151, Note_on_c, 0, 55, 80
2, 29175, Note_on_c, 0, 86, 0
2, 29175, Note_on_c, 0, 82, 0
2, 29175, Note_on_c, 0, 76, 0
2, 29180, Note_on_c, 0, 74, 0
2, 29195, Note_on_c, 0, 75, 80
2, 29195, Note_on_c, 0, 81, 80
2, 29195, Note_on_c, 0, 84, 80
2, 29200, Note_on_c, 0, 72, 80
2, 29210, Note_on_c, 0, 43, 0
2, 29221, Note_on_c, 0, 55, 0
2, 29240, Note_on_c, 0, 45, 80
2, 29251, Note_on_c, 0, 84, 0
2, 29251, Note_on_c, 0, 81, 0
2, 29253, Note_on_c, 0, 75, 0
2, 29253, Note_on_c, 0, 72, 0
2, 29263, Note_on_c, 0, 57, 80
2, 29303, Note_on_c, 0, 70, 80
2, 29304, Note_on_c, 0, 82, 80
2, 29306, Note_on_c, 0, 74, 80
2, 29306, Note_on_c, 0, 77, 80
2, 29320, Note_on_c, 0, 45, 0
2, 29330, Note_on_c, 0, 57, 0
2, 29346, Note_on_c, 0, 46, 80
2, 29368, Note_on_c, 0, 58, 80
2, 29409, Note_on_c, 0, 82, 0
2, 29409, Control_c, 0, 64, 127
2, 29414, Note_on_c, 0, 74, 0
2, 29414, Note_on_c, 0, 70, 0
2, 29416, Note_on_c, 0, 77, 0
2, 29426, Note_on_c, 0, 46, 0
2, 29431, Note_on_c, 0, 81, 80
2, 29438, Note_on_c, 0, 58, 0
2, 29457, Note_on_c, 0, 41, 80
2, 29464, Note_on_c, 0, 77, 80
2, 29466, Note_on_c, 0, 89, 80
2, 29471, Note_on_c, 0, 53, 80
2, 29501, Control_c, 0, 64, 0
2, 29519, Note_on_c, 0, 81, 0
2, 29523, Note_on_c, 0, 89, 0
2, 29523, Note_on_c, 0, 77, 0
2, 29532, Note_on_c, 0, 41, 0
2, 29545, Note_on_c, 0, 53, 0
2, 29554, Note_on_c, 0, 89, 80
2, 29568, Note_on_c, 0, 43, 80
2, 29581, Note_on_c, 0, 82, 80
2, 29586, Note_on_c, 0, 77, 80
2, 29591, Note_on_c, 0, 55, 80
2, 29625, Note_on_c, 0, 77, 0
2, 29625, Note_on_c, 0, 89, 0
2, 29630, Note_on_c, 0, 82, 0
2, 29654, Note_on_c, 0, 43, 0
2, 29659, Note_on_c, 0, 87, 80
2, 29665, Note_on_c, 0, 55, 0
2, 29685, Note_on_c, 0, 45, 80
2, 29689, Note_on_c, 0, 89, 80
2, 29694, Note_on_c, 0, 77, 80
2, 29694, Note_on_c, 0, 84, 80
2, 29703, Note_on_c, 0, 57, 80
2, 29744, Note_on_c, 0, 84, 0
2, 29749, Note_on_c, 0, 77, 0
2, 29749, Note_on_c, 0, 89, 0
2, 29749, Note_on_c, 0, 87, 0
2, 29762, Note_on_c, 0, 45, 0
2, 29780, Note_on_c, 0, 57, 0
2, 29806, Note_on_c, 0, 46, 80
2, 29806, Note_on_c, 0, 58, 80
2, 29806, Note_on_c, 0, 65, 80
2, 29806, Note_on_c, 0, 70, 80
2, 29806, Note_on_c, 0, 74, 80
2, 29806, Note_on_c, 0, 77, 80
2, 29852, Note_on_c, 0, 58, 0
2, 29856, Note_on_c, 0, 46, 0
2, 29861, Note_on_c, 0, 57, 80
2, 29866, Note_on_c, 0, 45, 80
2, 29912, Note_on_c, 0, 57, 0
2, 29914, Note_on_c, 0, 56, 80
2, 29916, Note_on_c, 0, 45, 0
2, 29918, Note_on_c, 0, 44, 80
2, 29942, Note_on_c, 0, 70, 0
2, 29942, Note_on_c, 0, 77, 0
2, 29947, Note_on_c, 0, 74, 0
2, 29947, Note_on_c, 0, 65, 0
2, 29960, Note_on_c, 0, 43, 80
2, 29967, Note_on_c, 0, 56, 0
2, 29969, Note_on_c, 0, 44, 0
2, 29971, Note_on_c, 0, 70, 80
2, 29979, Note_on_c, 0, 55, 80
2, 29984, Note_on_c, 0, 73, 80
2, 29991, Note_on_c, 0, 76, 80
2, 30004, Note_on_c, 0, 82, 80
2, 30039, Note_on_c, 0, 43, 0
2, 30046, Note_on_c, 0, 55, 0
2, 30068, Note_on_c, 0, 70, 0
2, 30072, Note_on_c, 0, 54, 80
2, 30074, Note_on_c, 0, 42, 80
2, 30079, Note_on_c, 0, 73, 0
2, 30090, Note_on_c, 0, 76, 0
2, 30098, Note_on_c, 0, 82, 0
2, 30120, Note_on_c, 0, 54, 0
2, 30120, Note_on_c, 0, 41, 80
2, 30125, Note_on_c, 0, 42, 0
2, 30139, Note_on_c, 0, 53, 80
2, 30197, Note_on_c, 0, 41, 0
2, 30208, Note_on_c, 0, 74, 80
2, 30213, Note_on_c, 0, 53, 0
2, 30237, Note_on_c, 0, 40, 80
2, 30239, Note_on_c, 0, 52, 80
2, 30239, Note_on_c, 0, 67, 80
2, 30239, Note_on_c, 0, 70, 80
2, 30239, Note_on_c, 0, 79, 80
2, 30285, Note_on_c, 0, 52, 0
2, 30287, Note_on_c, 0, 40, 0
2, 30293, Note_on_c, 0, 39, 80
2, 30293, Note_on_c, 0, 51, 80
2, 30339, Note_on_c, 0, 51, 0
2, 30339, Note_on_c, 0, 39, 0
2, 30341, Note_on_c, 0, 38, 80
2, 30341, Note_on_c, 0, 50, 80
2, 30369, Note_on_c, 0, 70, 0
2, 30369, Note_on_c, 0, 67, 0
2, 30369, Note_on_c, 0, 74, 0
2, 30369, Note_on_c, 0, 79, 0
2, 30380, Note_on_c, 0, 76, 80
2, 30388, Note_on_c, 0, 37, 80
2, 30390, Note_on_c, 0, 50, 0
2, 30390, Note_on_c, 0, 38, 0
2, 30404, Note_on_c, 0, 67, 80
2, 30404, Note_on_c, 0, 81, 80
2, 30417, Note_on_c, 0, 49, 80
2, 30419, Note_on_c, 0, 69, 80
2, 30428, Note_on_c, 0, 73, 80
2, 30469, Note_on_c, 0, 37, 0
2, 30484, Note_on_c, 0, 49, 0
2, 30510, Note_on_c, 0, 36, 80
2, 30510, Note_on_c, 0, 48, 80
2, 30521, Note_on_c, 0, 76, 0
2, 30526, Note_on_c, 0, 73, 0
2, 30532, Note_on_c, 0, 81, 0
2, 30532, Note_on_c, 0, 69, 0
2, 30537, Note_on_c, 0, 67, 0
2, 30552, Note_on_c, 0, 36, 0
2, 30552, Note_on_c, 0, 35, 80
2, 30557, Note_on_c, 0, 48, 0
2, 30573, Note_on_c, 0, 47, 80
2, 30588, Control_c, 0, 64, 127
2, 30631, Note_on_c, 0, 35, 0
2, 30642, Note_on_c, 0, 74, 80
2, 30648, Note_on_c, 0, 47, 0
2, 30672, Note_on_c, 0, 46, 80
2, 30672, Note_on_c, 0, 58, 80
2, 30672, Note_on_c, 0, 65, 80
2, 30672, Note_on_c, 0, 77, 80
2, 30683, Control_c, 0, 64, 0
2, 30683, Note_on_c, 0, 68, 80
2, 30722, Note_on_c, 0, 46, 0
2, 30727, Note_on_c, 0, 58, 0
2, 30729, Note_on_c, 0, 45, 80
2, 30729, Note_on_c, 0, 57, 80
2, 30772, Note_on_c, 0, 45, 0
2, 30777, Note_on_c, 0, 57, 0
2, 30782, Note_on_c, 0, 44, 80
2, 30782, Note_on_c, 0, 56, 80
2, 30804, Note_on_c, 0, 77, 0
2, 30804, Note_on_c, 0, 65, 0
2, 30804, Note_on_c, 0, 68, 0
2, 30804, Note_on_c, 0, 82, 80
2, 30806, Note_on_c, 0, 74, 0
2, 30823, Note_on_c, 0, 56, 0
2, 30823, Note_on_c, 0, 44, 0
2, 30823, Note_on_c, 0, 43, 80
2, 30828, Note_on_c, 0, 70, 80
2, 30828, Note_on_c, 0, 73, 80
2, 30833, Note_on_c, 0, 76, 80
2, 30841, Note_on_c, 0, 55, 80
2, 30900, Note_on_c, 0, 43, 0
2, 30911, Note_on_c, 0, 55, 0
2, 30941, Note_on_c, 0, 42, 80
2, 30941, Note_on_c, 0, 54, 80
2, 30987, Note_on_c, 0, 54, 0
2, 30989, Note_on_c, 0, 41, 80
2, 30991, Note_on_c, 0, 42, 0
2, 31007, Note_on_c, 0, 53, 80
2, 31008, Note_on_c, 0, 73, 0
2, 31019, Note_on_c, 0, 82, 0
2, 31019, Note_on_c, 0, 76, 0
2, 31024, Note_on_c, 0, 70, 0
2, 31052, Note_on_c, 0, 73, 80
2, 31052, Note_on_c, 0, 76, 80
2, 31052, Note_on_c, 0, 85, 80
2, 31067, Note_on_c, 0, 41, 0
2, 31080, Note_on_c, 0, 53, 0
2, 31096, Note_on_c, 0, 40, 80
2, 31115, Note_on_c, 0, 52, 80
2, 31163, Note_on_c, 0, 73, 0
2, 31165, Note_on_c, 0, 85, 0
2, 31167, Note_on_c, 0, 76, 0
2, 31176, Note_on_c, 0, 40, 0
2, 31189, Note_on_c, 0, 52, 0
2, 31220, Note_on_c, 0, 34, 80
2, 31224, Note_on_c, 0, 46, 80
2, 31272, Note_on_c, 0, 46, 0
2, 31274, Note_on_c, 0, 34, 0
2, 31276, Note_on_c, 0, 37, 80
2, 31276, Note_on_c, 0, 49, 80
2, 31326, Note_on_c, 0, 49, 0
2, 31326, Note_on_c, 0, 37, 0
2, 31328, Note_on_c, 0, 40, 80
2, 31333, Note_on_c, 0, 52, 80
2, 31374, Note_on_c, 0, 52, 0
2, 31374, Note_on_c, 0, 40, 0
2, 31376, Note_on_c, 0, 55, 80
2, 31378, Note_on_c, 0, 43, 80
2, 31430, Note_on_c, 0, 43, 0
2, 31430, Note_on_c, 0, 55, 0
2, 31435, Note_on_c, 0, 46, 80
2, 31440, Note_on_c, 0, 58, 80
2, 31488, Note_on_c, 0, 58, 0
2, 31488, Note_on_c, 0, 46, 0
2, 31496, Note_on_c, 0, 49, 80
2, 31496, Note_on_c, 0, 61, 80
2, 31539, Note_on_c, 0, 61, 0
2, 31539, Note_on_c, 0, 49, 0
2, 31539, Note_on_c, 0, 38, 80
2, 31548, Note_on_c, 0, 62, 80
2, 31559, Note_on_c, 0, 50, 80
2, 31593, Note_on_c, 0, 62, 0
2, 31593, Note_on_c, 0, 73, 80
2, 31593, Note_on_c, 0, 85, 80
2, 31628, Note_on_c, 0, 85, 0
2, 31630, Note_on_c, 0, 73, 0
2, 31643, Note_on_c, 0, 77, 80
2, 31643, Note_on_c, 0, 89, 80
2, 31645, Note_on_c, 0, 53, 80
2, 31645, Note_on_c, 0, 58, 80
2, 31645, Note_on_c, 0, 62, 80
2, 31645, Note_on_c, 0, 74, 80
2, 31645, Note_on_c, 0, 86, 80
2, 31650, Note_on_c, 0, 38, 0
2, 31656, Note_on_c, 0, 50, 0
2, 31676, Note_on_c, 0, 89, 0
2, 31676, Note_on_c, 0, 74, 0
2, 31676, Note_on_c, 0, 86, 0
2, 31676, Note_on_c, 0, 77, 0
2, 31689, Note_on_c, 0, 62, 0
2, 31689, Note_on_c, 0, 53, 0
2, 31689, Note_on_c, 0, 58, 0
2, 31696, Note_on_c, 0, 73, 80
2, 31701, Note_on_c, 0, 85, 80
2, 31735, Note_on_c, 0, 85, 0
2, 31735, Note_on_c, 0, 73, 0
2, 31746, Note_on_c, 0, 41, 80
2, 31751, Note_on_c, 0, 86, 80
2, 31751, Note_on_c, 0, 89, 80
2, 31752, Note_on_c, 0, 77, 80
2, 31757, Note_on_c, 0, 74, 80
2, 31764, Note_on_c, 0, 53, 80
2, 31788, Note_on_c, 0, 86, 0
2, 31790, Note_on_c, 0, 74, 0
2, 31790, Note_on_c, 0, 77, 0
2, 31790, Note_on_c, 0, 89, 0
2, 31807, Note_on_c, 0, 76, 80
2, 31807, Note_on_c, 0, 84, 80
2, 31809, Note_on_c, 0, 72, 80
2, 31811, Note_on_c, 0, 88, 80
2, 31826, Note_on_c, 0, 41, 0
2, 31846, Note_on_c, 0, 53, 0
2, 31852, Note_on_c, 0, 42, 80
2, 31861, Note_on_c, 0, 84, 0
2, 31863, Note_on_c, 0, 72, 0
2, 31865, Note_on_c, 0, 76, 0
2, 31865, Note_on_c, 0, 88, 0
2, 31870, Note_on_c, 0, 54, 80
2, 31878, Control_c, 0, 64, 127
2, 31902, Note_on_c, 0, 70, 80
2, 31913, Note_on_c, 0, 86, 80
2, 31926, Note_on_c, 0, 74, 80
2, 31928, Note_on_c, 0, 42, 0
2, 31935, Note_on_c, 0, 86, 0
2, 31945, Note_on_c, 0, 82, 80
2, 31952, Note_on_c, 0, 54, 0
2, 31959, Note_on_c, 0, 43, 80
2, 31968, Note_on_c, 0, 86, 80
2, 31969, Note_on_c, 0, 82, 0
2, 31974, Control_c, 0, 64, 0
2, 31979, Note_on_c, 0, 55, 80
2, 31990, Note_on_c, 0, 86, 0
2, 32000, Note_on_c, 0, 82, 80
2, 32026, Note_on_c, 0, 86, 80
2, 32028, Note_on_c, 0, 82, 0
2, 32047, Note_on_c, 0, 86, 0
2, 32054, Note_on_c, 0, 55, 0
2, 32064, Note_on_c, 0, 82, 80
2, 32084, Note_on_c, 0, 55, 80
2, 32086, Note_on_c, 0, 58, 80
2, 32086, Note_on_c, 0, 62, 80
2, 32088, Note_on_c, 0, 82, 0
2, 32088, Note_on_c, 0, 86, 80
2, 32098, Note_on_c, 0, 43, 0
2, 32107, Note_on_c, 0, 86, 0
2, 32113, Note_on_c, 0, 82, 80
2, 32127, Note_on_c, 0, 58, 0
2, 32127, Note_on_c, 0, 55, 0
2, 32127, Note_on_c, 0, 62, 0
2, 32134, Note_on_c, 0, 86, 80
2, 32144, Note_on_c, 0, 85, 80
2, 32151, Note_on_c, 0, 70, 0
2, 32158, Note_on_c, 0, 74, 0
2, 32158, Note_on_c, 0, 82, 0
2, 32158, Note_on_c, 0, 84, 80
2, 32160, Note_on_c, 0, 83, 80
2, 32168, Note_on_c, 0, 86, 0
2, 32177, Note_on_c, 0, 85, 0
2, 32177, Note_on_c, 0, 40, 80
2, 32184, Note_on_c, 0, 84, 0
2, 32185, Note_on_c, 0, 82, 80
2, 32185, Note_on_c, 0, 94, 80
2, 32187, Note_on_c, 0, 88, 80
2, 32198, Note_on_c, 0, 52, 80
2, 32200, Note_on_c, 0, 83, 0
2, 32210, Note_on_c, 0, 82, 0
2, 32221, Note_on_c, 0, 76, 80
2, 32238, Note_on_c, 0, 82, 80
2, 32245, Note_on_c, 0, 76, 0
2, 32264, Note_on_c, 0, 82, 0
2, 32275, Note_on_c, 0, 76, 80
2, 32294, Note_on_c, 0, 55, 80
2, 32294, Note_on_c, 0, 64, 80
2, 32294, Note_on_c, 0, 82, 80
2, 32296, Note_on_c, 0, 76, 0
2, 32296, Note_on_c, 0, 58, 80
2, 32301, Note_on_c, 0, 40, 0
2, 32307, Note_on_c, 0, 52, 0
2, 32318, Note_on_c, 0, 82, 0
2, 32325, Note_on_c, 0, 76, 80
2, 32342, Note_on_c, 0, 64, 0
2, 32342, Note_on_c, 0, 58, 0
2, 32342, Note_on_c, 0, 55, 0
2, 32349, Note_on_c, 0, 82, 80
2, 32373, Note_on_c, 0, 82, 0
2, 32373, Note_on_c, 0, 94, 0
2, 32373, Note_on_c, 0, 88, 0
2, 32377, Note_on_c, 0, 76, 0
2, 32393, Note_on_c, 0, 33, 80
2, 32421, Note_on_c, 0, 45, 80
2, 32458, Note_on_c, 0, 92, 80
2, 32463, Note_on_c, 0, 80, 80
2, 32494, Note_on_c, 0, 80, 0
2, 32498, Note_on_c, 0, 92, 0
2, 32514, Note_on_c, 0, 57, 80
2, 32516, Note_on_c, 0, 93, 80
2, 32518, Note_on_c, 0, 33, 0
2, 32518, Note_on_c, 0, 55, 80
2, 32522, Note_on_c, 0, 61, 80
2, 32522, Note_on_c, 0, 64, 80
2, 32522, Note_on_c, 0, 81, 80
2, 32536, Note_on_c, 0, 45, 0
2, 32551, Note_on_c, 0, 93, 0
2, 32556, Note_on_c, 0, 81, 0
2, 32565, Note_on_c, 0, 61, 0
2, 32565, Note_on_c, 0, 55, 0
2, 32569, Note_on_c, 0, 57, 0
2, 32569, Note_on_c, 0, 64, 0
2, 32576, Note_on_c, 0, 80, 80
2, 32576, Note_on_c, 0, 92, 80
2, 32609, Note_on_c, 0, 80, 0
2, 32614, Note_on_c, 0, 92, 0
2, 32622, Note_on_c, 0, 40, 80
2, 32636, Note_on_c, 0, 81, 80
2, 32636, Note_on_c, 0, 93, 80
2, 32646, Note_on_c, 0, 52, 80
2, 32665, Note_on_c, 0, 93, 0
2, 32665, Note_on_c, 0, 81, 0
2, 32689, Note_on_c, 0, 79, 80
2, 32689, Note_on_c, 0, 81, 80
2, 32689, Note_on_c, 0, 85, 80
2, 32689, Note_on_c, 0, 88, 80
2, 32689, Note_on_c, 0, 91, 80
2, 32737, Note_on_c, 0, 55, 80
2, 32737, Note_on_c, 0, 57, 80
2, 32737, Note_on_c, 0, 61, 80
2, 32737, Note_on_c, 0, 64, 80
2, 32742, Note_on_c, 0, 91, 0
2, 32742, Note_on_c, 0, 81, 0
2, 32742, Note_on_c, 0, 79, 0
2, 32742, Note_on_c, 0, 88, 0
2, 32742, Note_on_c, 0, 40, 0
2, 32742, Note_on_c, 0, 85, 0
2, 32753, Note_on_c, 0, 65, 80
2, 32755, Note_on_c, 0, 52, 0
2, 32761, Note_on_c, 0, 66, 80
2, 32775, Note_on_c, 0, 64, 0
2, 32775, Note_on_c, 0, 67, 80
2, 32788, Note_on_c, 0, 55, 0
2, 32788, Note_on_c, 0, 61, 0
2, 32788, Note_on_c, 0, 57, 0
2, 32788, Note_on_c, 0, 65, 0
2, 32790, Note_on_c, 0, 68, 80
2, 32797, Note_on_c, 0, 86, 80
2, 32799, Note_on_c, 0, 69, 80
2, 32799, Note_on_c, 0, 89, 80
2, 32801, Note_on_c, 0, 66, 0
2, 32801, Note_on_c, 0, 74, 80
2, 32809, Note_on_c, 0, 67, 0
2, 32809, Note_on_c, 0, 77, 80
2, 32818, Note_on_c, 0, 68, 0
2, 32818, Note_on_c, 0, 86, 0
2, 32818, Note_on_c, 0, 89, 0
2, 32823, Note_on_c, 0, 69, 0
2, 32840, Note_on_c, 0, 38, 80
2, 32856, Note_on_c, 0, 69, 80
2, 32856, Note_on_c, 0, 86, 80
2, 32856, Note_on_c, 0, 89, 80
2, 32864, Note_on_c, 0, 50, 80
2, 32875, Note_on_c, 0, 89, 0
2, 32875, Note_on_c, 0, 86, 0
2, 32880, Note_on_c, 0, 69, 0
2, 32905, Note_on_c, 0, 86, 80
2, 32910, Note_on_c, 0, 89, 80
2, 32915, Note_on_c, 0, 69, 80
2, 32930, Note_on_c, 0, 89, 0
2, 32930, Note_on_c, 0, 86, 0
2, 32935, Note_on_c, 0, 38, 0
2, 32935, Note_on_c, 0, 69, 0
2, 32944, Note_on_c, 0, 50, 0
2, 32951, Note_on_c, 0, 37, 80
2, 32961, Note_on_c, 0, 86, 80
2, 32963, Note_on_c, 0, 89, 80
2, 32965, Note_on_c, 0, 69, 80
2, 32970, Note_on_c, 0, 49, 80
2, 32983, Note_on_c, 0, 86, 0
2, 32985, Note_on_c, 0, 89, 0
2, 32985, Note_on_c, 0, 69, 0
2, 33011, Note_on_c, 0, 86, 80
2, 33016, Note_on_c, 0, 69, 80
2, 33016, Note_on_c, 0, 89, 80
2, 33029, Note_on_c, 0, 74, 0
2, 33031, Note_on_c, 0, 37, 0
2, 33033, Note_on_c, 0, 86, 0
2, 33038, Note_on_c, 0, 89, 0
2, 33040, Note_on_c, 0, 69, 0
2, 33040, Note_on_c, 0, 77, 0
2, 33042, Note_on_c, 0, 49, 0
2, 33059, Note_on_c, 0, 36, 80
2, 33066, Note_on_c, 0, 77, 80
2, 33071, Note_on_c, 0, 89, 80
2, 33072, Note_on_c, 0, 87, 80
2, 33074, Note_on_c, 0, 69, 80
2, 33074, Note_on_c, 0, 81, 80
2, 33079, Note_on_c, 0, 48, 80
2, 33095, Note_on_c, 0, 69, 0
2, 33117, Note_on_c, 0, 87, 0
2, 33117, Note_on_c, 0, 77, 0
2, 33117, Note_on_c, 0, 89, 0
2, 33117, Note_on_c, 0, 81, 0
2, 33123, Note_on_c, 0, 69, 80
2, 33141, Note_on_c, 0, 36, 0
2, 33149, Note_on_c, 0, 69, 0
2, 33151, Note_on_c, 0, 48, 0
2, 33173, Note_on_c, 0, 41, 80
2, 33182, Note_on_c, 0, 69, 80
2, 33182, Note_on_c, 0, 77, 80
2, 33182, Note_on_c, 0, 81, 80
2, 33182, Note_on_c, 0, 87, 80
2, 33182, Note_on_c, 0, 89, 80
2, 33195, Note_on_c, 0, 53, 80
2, 33202, Control_c, 0, 64, 127
2, 33204, Note_on_c, 0, 69, 0
2, 33226, Note_on_c, 0, 81, 0
2, 33228, Note_on_c, 0, 77, 0
2, 33228, Note_on_c, 0, 87, 0
2, 33228, Note_on_c, 0, 89, 0
2, 33235, Note_on_c, 0, 69, 80
2, 33245, Note_on_c, 0, 41, 0
2, 33256, Note_on_c, 0, 69, 0
2, 33256, Note_on_c, 0, 53, 0
2, 33280, Note_on_c, 0, 46, 80
2, 33280, Note_on_c, 0, 58, 80
2, 33280, Note_on_c, 0, 65, 80
2, 33282, Note_on_c, 0, 70, 80
2, 33282, Note_on_c, 0, 74, 80
2, 33282, Note_on_c, 0, 77, 80
2, 33288, Control_c, 0, 64, 0
2, 33328, Note_on_c, 0, 46, 0
2, 33330, Note_on_c, 0, 58, 0
2, 33332, Note_on_c, 0, 57, 80
2, 33340, Note_on_c, 0, 45, 80
2, 33380, Note_on_c, 0, 45, 0
2, 33380, Note_on_c, 0, 57, 0
2, 33382, Note_on_c, 0, 44, 80
2, 33382, Note_on_c, 0, 56, 80
2, 33401, Note_on_c, 0, 70, 0
2, 33409, Note_on_c, 0, 65, 0
2, 33409, Note_on_c, 0, 77, 0
2, 33411, Note_on_c, 0, 74, 0
2, 33429, Note_on_c, 0, 44, 0
2, 33429, Note_on_c, 0, 56, 0
2, 33429, Note_on_c, 0, 43, 80
2, 33429, Note_on_c, 0, 70, 80
2, 33446, Note_on_c, 0, 55, 80
2, 33451, Note_on_c, 0, 73, 80
2, 33451, Note_on_c, 0, 76, 80
2, 33459, Note_on_c, 0, 82, 80
2, 33509, Note_on_c, 0, 43, 0
2, 33528, Note_on_c, 0, 55, 0
2, 33535, Note_on_c, 0, 70, 0
2, 33544, Note_on_c, 0, 54, 80
2, 33549, Note_on_c, 0, 42, 80
2, 33553, Note_on_c, 0, 73, 0
2, 33562, Note_on_c, 0, 76, 0
2, 33569, Note_on_c, 0, 82, 0
2, 33593, Note_on_c, 0, 54, 0
2, 33598, Note_on_c, 0, 42, 0
2, 33600, Note_on_c, 0, 41, 80
2, 33617, Note_on_c, 0, 53, 80
2, 33673, Note_on_c, 0, 74, 80
2, 33675, Note_on_c, 0, 41, 0
2, 33689, Note_on_c, 0, 53, 0
2, 33720, Note_on_c, 0, 40, 80
2, 33720, Note_on_c, 0, 52, 80
2, 33721, Note_on_c, 0, 67, 80
2, 33721, Note_on_c, 0, 70, 80
2, 33735, Note_on_c, 0, 79, 80
2, 33768, Note_on_c, 0, 40, 0
2, 33772, Note_on_c, 0, 52, 0
2, 33772, Note_on_c, 0, 39, 80
2, 33772, Note_on_c, 0, 51, 80
2, 33820, Note_on_c, 0, 51, 0
2, 33820, Note_on_c, 0, 39, 0
2, 33827, Note_on_c, 0, 38, 80
2, 33827, Note_on_c, 0, 50, 80
2, 33834, Note_on_c, 0, 74, 0
2, 33851, Note_on_c, 0, 79, 0
2, 33853, Note_on_c, 0, 70, 0
2, 33855, Note_on_c, 0, 67, 0
2, 33874, Note_on_c, 0, 50, 0
2, 33874, Note_on_c, 0, 38, 0
2, 33874, Note_on_c, 0, 37, 80
2, 33881, Note_on_c, 0, 67, 80
2, 33881, Note_on_c, 0, 69, 80
2, 33881, Note_on_c, 0, 76, 80
2, 33886, Note_on_c, 0, 81, 80
2, 33894, Note_on_c, 0, 49, 80
2, 33894, Note_on_c, 0, 73, 80
2, 33951, Note_on_c, 0, 37, 0
2, 33961, Note_on_c, 0, 49, 0
2, 33992, Note_on_c, 0, 36, 80
2, 33992, Note_on_c, 0, 48, 80
2, 34011, Note_on_c, 0, 81, 0
2, 34016, Note_on_c, 0, 69, 0
2, 34016, Note_on_c, 0, 67, 0
2, 34016, Note_on_c, 0, 76, 0
2, 34016, Note_on_c, 0, 73, 0
2, 34032, Note_on_c, 0, 35, 80
2, 34036, Note_on_c, 0, 36, 0
2, 34038, Note_on_c, 0, 48, 0
2, 34052, Note_on_c, 0, 47, 80
2, 34110, Note_on_c, 0, 35, 0
2, 34119, Note_on_c, 0, 47, 0
2, 34121, Note_on_c, 0, 74, 80
2, 34152, Note_on_c, 0, 58, 80
2, 34152, Note_on_c, 0, 77, 80
2, 34153, Note_on_c, 0, 46, 80
2, 34153, Note_on_c, 0, 65, 80
2, 34169, Note_on_c, 0, 68, 80
2, 34195, Note_on_c, 0, 58, 0
2, 34200, Note_on_c, 0, 46, 0
2, 34206, Note_on_c, 0, 45, 80
2, 34206, Note_on_c, 0, 57, 80
2, 34249, Note_on_c, 0, 57, 0
2, 34251, Note_on_c, 0, 44, 80
2, 34251, Note_on_c, 0, 56, 80
2, 34253, Note_on_c, 0, 45, 0
2, 34260, Note_on_c, 0, 74, 0
2, 34279, Note_on_c, 0, 77, 0
2, 34284, Note_on_c, 0, 65, 0
2, 34284, Note_on_c, 0, 68, 0
2, 34286, Note_on_c, 0, 70, 80
2, 34296, Note_on_c, 0, 43, 80
2, 34301, Note_on_c, 0, 56, 0
2, 34306, Note_on_c, 0, 44, 0
2, 34311, Note_on_c, 0, 73, 80
2, 34320, Note_on_c, 0, 55, 80
2, 34330, Note_on_c, 0, 76, 80
2, 34347, Note_on_c, 0, 82, 80
2, 34375, Note_on_c, 0, 43, 0
2, 34384, Note_on_c, 0, 55, 0
2, 34415, Note_on_c, 0, 42, 80
2, 34416, Note_on_c, 0, 54, 80
2, 34427, Note_on_c, 0, 70, 0
2, 34451, Note_on_c, 0, 73, 0
2, 34460, Note_on_c, 0, 41, 80
2, 34464, Note_on_c, 0, 42, 0
2, 34464, Note_on_c, 0, 54, 0
2, 34471, Note_on_c, 0, 76, 0
2, 34482, Note_on_c, 0, 53, 80
2, 34492, Note_on_c, 0, 82, 0
2, 34494, Control_c, 0, 64, 127
2, 34529, Note_on_c, 0, 76, 80
2, 34534, Note_on_c, 0, 73, 80
2, 34534, Note_on_c, 0, 85, 80
2, 34544, Note_on_c, 0, 41, 0
2, 34555, Note_on_c, 0, 53, 0
2, 34570, Note_on_c, 0, 40, 80
2, 34587, Control_c, 0, 64, 0
2, 34589, Note_on_c, 0, 52, 80
2, 34632, Note_on_c, 0, 85, 0
2, 34637, Note_on_c, 0, 73, 0
2, 34637, Note_on_c, 0, 76, 0
2, 34644, Note_on_c, 0, 40, 0
2, 34659, Note_on_c, 0, 52, 0
2, 34685, Note_on_c, 0, 34, 80
2, 34687, Note_on_c, 0, 46, 80
2, 34735, Note_on_c, 0, 46, 0
2, 34735, Note_on_c, 0, 34, 0
2, 34742, Note_on_c, 0, 37, 80
2, 34744, Note_on_c, 0, 49, 80
2, 34792, Note_on_c, 0, 49, 0
2, 34792, Note_on_c, 0, 37, 0
2, 34800, Note_on_c, 0, 40, 80
2, 34800, Note_on_c, 0, 52, 80
2, 34847, Note_on_c, 0, 52, 0
2, 34847, Note_on_c, 0, 40, 0
2, 34853, Note_on_c, 0, 43, 80
2, 34853, Note_on_c, 0, 55, 80
2, 34899, Note_on_c, 0, 55, 0
2, 34899, Note_on_c, 0, 43, 0
2, 34906, Note_on_c, 0, 46, 80
2, 34906, Note_on_c, 0, 58, 80
2, 34956, Note_on_c, 0, 46, 0
2, 34958, Note_on_c, 0, 58, 0
2, 34965, Note_on_c, 0, 49, 80
2, 34965, Note_on_c, 0, 61, 80
2, 35006, Note_on_c, 0, 38, 80
2, 35008, Note_on_c, 0, 61, 0
2, 35013, Note_on_c, 0, 49, 0
2, 35017, Note_on_c, 0, 62, 80
2, 35026, Note_on_c, 0, 50, 80
2, 35069, Note_on_c, 0, 73, 80
2, 35071, Note_on_c, 0, 62, 0
2, 35076, Note_on_c, 0, 85, 80
2, 35107, Note_on_c, 0, 73, 0
2, 35112, Note_on_c, 0, 85, 0
2, 35125, Note_on_c, 0, 53, 80
2, 35127, Note_on_c, 0, 58, 80
2, 35127, Note_on_c, 0, 62, 80
2, 35129, Note_on_c, 0, 77, 80
2, 35129, Note_on_c, 0, 86, 80
2, 35129, Note_on_c, 0, 89, 80
2, 35131, Note_on_c, 0, 74, 80
2, 35144, Note_on_c, 0, 50, 0
2, 35144, Note_on_c, 0, 38, 0
2, 35160, Note_on_c, 0, 89, 0
2, 35161, Note_on_c, 0, 77, 0
2, 35161, Note_on_c, 0, 86, 0
2, 35166, Note_on_c, 0, 74, 0
2, 35171, Note_on_c, 0, 62, 0
2, 35176, Note_on_c, 0, 53, 0
2, 35176, Note_on_c, 0, 58, 0
2, 35183, Note_on_c, 0, 72, 80
2, 35187, Note_on_c, 0, 84, 80
2, 35218, Note_on_c, 0, 84, 0
2, 35218, Note_on_c, 0, 72, 0
2, 35229, Note_on_c, 0, 41, 80
2, 35242, Note_on_c, 0, 74, 80
2, 35242, Note_on_c, 0, 77, 80
2, 35242, Note_on_c, 0, 86, 80
2, 35242, Note_on_c, 0, 89, 80
2, 35256, Note_on_c, 0, 53, 80
2, 35271, Note_on_c, 0, 89, 0
2, 35276, Note_on_c, 0, 86, 0
2, 35276, Note_on_c, 0, 77, 0
2, 35280, Note_on_c, 0, 74, 0
2, 35300, Note_on_c, 0, 76, 80
2, 35300, Note_on_c, 0, 84, 80
2, 35300, Note_on_c, 0, 88, 80
2, 35302, Note_on_c, 0, 72, 80
2, 35315, Note_on_c, 0, 41, 0
2, 35326, Note_on_c, 0, 53, 0
2, 35353, Note_on_c, 0, 42, 80
2, 35355, Note_on_c, 0, 84, 0
2, 35360, Note_on_c, 0, 88, 0
2, 35360, Note_on_c, 0, 72, 0
2, 35365, Note_on_c, 0, 76, 0
2, 35372, Note_on_c, 0, 54, 80
2, 35418, Note_on_c, 0, 70, 80
2, 35418, Note_on_c, 0, 74, 80
2, 35418, Note_on_c, 0, 82, 80
2, 35418, Note_on_c, 0, 86, 80
2, 35440, Note_on_c, 0, 54, 0
2, 35440, Note_on_c, 0, 42, 0
2, 35453, Note_on_c, 0, 43, 80
2, 35477, Note_on_c, 0, 55, 80
2, 35495, Note_on_c, 0, 82, 0
2, 35503, Note_on_c, 0, 86, 0
2, 35505, Note_on_c, 0, 70, 0
2, 35507, Note_on_c, 0, 74, 0
2, 35522, Note_on_c, 0, 82, 80
2, 35524, Note_on_c, 0, 94, 80
2, 35535, Note_on_c, 0, 43, 0
2, 35545, Note_on_c, 0, 55, 0
2, 35556, Note_on_c, 0, 82, 0
2, 35556, Note_on_c, 0, 94, 0
2, 35569, Note_on_c, 0, 38, 80
2, 35580, Note_on_c, 0, 80, 80
2, 35580, Note_on_c, 0, 92, 80
2, 35589, Note_on_c, 0, 50, 80
2, 35611, Note_on_c, 0, 92, 0
2, 35611, Note_on_c, 0, 80, 0
2, 35633, Note_on_c, 0, 86, 80
2, 35635, Note_on_c, 0, 74, 80
2, 35645, Note_on_c, 0, 38, 0
2, 35654, Note_on_c, 0, 50, 0
2, 35667, Note_on_c, 0, 86, 0
2, 35667, Note_on_c, 0, 74, 0
2, 35681, Note_on_c, 0, 39, 80
2, 35688, Note_on_c, 0, 77, 80
2, 35688, Note_on_c, 0, 89, 80
2, 35698, Note_on_c, 0, 51, 80
2, 35722, Note_on_c, 0, 89, 0
2, 35722, Note_on_c, 0, 77, 0
2, 35739, Note_on_c, 0, 87, 80
2, 35741, Note_on_c, 0, 75, 80
2, 35755, Note_on_c, 0, 39, 0
2, 35761, Note_on_c, 0, 51, 0
2, 35775, Note_on_c, 0, 87, 0
2, 35775, Note_on_c, 0, 75, 0
2, 35777, Note_on_c, 0, 40, 80
2, 35792, Note_on_c, 0, 67, 80
2, 35792, Note_on_c, 0, 70, 80
2, 35792, Note_on_c, 0, 79, 80
2, 35792, Note_on_c, 0, 82, 80
2, 35803, Note_on_c, 0, 52, 80
2, 35825, Note_on_c, 0, 70, 0
2, 35827, Note_on_c, 0, 82, 0
2, 35827, Note_on_c, 0, 79, 0
2, 35827, Note_on_c, 0, 67, 0
2, 35844, Note_on_c, 0, 84, 80
2, 35846, Note_on_c, 0, 72, 80
2, 35859, Note_on_c, 0, 40, 0
2, 35866, Note_on_c, 0, 52, 0
2, 35880, Note_on_c, 0, 84, 0
2, 35884, Note_on_c, 0, 72, 0
2, 35895, Note_on_c, 0, 41, 80
2, 35902, Note_on_c, 0, 70, 80
2, 35902, Note_on_c, 0, 82, 80
2, 35902, Note_on_c, 0, 86, 80
2, 35904, Note_on_c, 0, 74, 80
2, 35912, Note_on_c, 0, 53, 80
2, 35931, Note_on_c, 0, 86, 0
2, 35936, Note_on_c, 0, 74, 0
2, 35936, Note_on_c, 0, 82, 0
2, 35936, Note_on_c, 0, 70, 0
2, 35955, Note_on_c, 0, 73, 80
2, 35955, Note_on_c, 0, 85, 80
2, 35969, Note_on_c, 0, 41, 0
2, 35976, Note_on_c, 0, 53, 0
2, 35989, Note_on_c, 0, 73, 0
2, 35989, Note_on_c, 0, 85, 0
2, 36002, Note_on_c, 0, 62, 80
2, 36007, Note_on_c, 0, 53, 80
2, 36007, Note_on_c, 0, 58, 80
2, 36007, Note_on_c, 0, 74, 80
2, 36007, Note_on_c, 0, 77, 80
2, 36007, Note_on_c, 0, 86, 80
2, 36007, Note_on_c, 0, 89, 80
2, 36026, Note_on_c, 0, 77, 0
2, 36033, Note_on_c, 0, 89, 0
2, 36038, Note_on_c, 0, 86, 0
2, 36043, Note_on_c, 0, 74, 0
2, 36051, Note_on_c, 0, 58, 0
2, 36051, Note_on_c, 0, 62, 0
2, 36056, Note_on_c, 0, 53, 0
2, 36063, Note_on_c, 0, 77, 80
2, 36065, Note_on_c, 0, 65, 80
2, 36097, Note_on_c, 0, 77, 0
2, 36102, Note_on_c, 0, 65, 0
2, 36107, Note_on_c, 0, 43, 80
2, 36112, Note_on_c, 0, 76, 80
2, 36114, Note_on_c, 0, 82, 80
2, 36116, Note_on_c, 0, 74, 80
2, 36118, Note_on_c, 0, 86, 80
2, 36122, Note_on_c, 0, 55, 80
2, 36146, Note_on_c, 0, 82, 0
2, 36151, Note_on_c, 0, 86, 0
2, 36151, Note_on_c, 0, 74, 0
2, 36151, Note_on_c, 0, 76, 0
2, 36177, Note_on_c, 0, 75, 80
2, 36177, Note_on_c, 0, 81, 80
2, 36179, Note_on_c, 0, 72, 80
2, 36179, Note_on_c, 0, 84, 80
2, 36192, Note_on_c, 0, 43, 0
2, 36199, Note_on_c, 0, 55, 0
2, 36218, Note_on_c, 0, 45, 80
2, 36227, Note_on_c, 0, 81, 0
2, 36227, Note_on_c, 0, 84, 0
2, 36232, Note_on_c, 0, 75, 0
2, 36232, Note_on_c, 0, 72, 0
2, 36234, Note_on_c, 0, 57, 80
2, 36247, Control_c, 0, 64, 127
2, 36278, Note_on_c, 0, 77, 80
2, 36278, Note_on_c, 0, 82, 80
2, 36280, Note_on_c, 0, 70, 80
2, 36280, Note_on_c, 0, 74, 80
2, 36293, Note_on_c, 0, 45, 0
2, 36304, Note_on_c, 0, 57, 0
2, 36323, Note_on_c, 0, 46, 80
2, 36336, Control_c, 0, 64, 0
2, 36347, Note_on_c, 0, 58, 80
2, 36369, Note_on_c, 0, 70, 0
2, 36369, Note_on_c, 0, 82, 0
2, 36369, Note_on_c, 0, 74, 0
2, 36386, Note_on_c, 0, 89, 80
2, 36402, Note_on_c, 0, 46, 0
2, 36415, Note_on_c, 0, 58, 0
2, 36424, Note_on_c, 0, 89, 0
2, 36426, Note_on_c, 0, 77, 0
2, 36434, Note_on_c, 0, 41, 80
2, 36445, Note_on_c, 0, 87, 80
2, 36445, Note_on_c, 0, 93, 80
2, 36447, Note_on_c, 0, 81, 80
2, 36456, Note_on_c, 0, 53, 80
2, 36480, Note_on_c, 0, 81, 0
2, 36480, Note_on_c, 0, 93, 0
2, 36480, Note_on_c, 0, 87, 0
2, 36499, Note_on_c, 0, 77, 80
2, 36499, Note_on_c, 0, 89, 80
2, 36514, Note_on_c, 0, 41, 0
2, 36525, Note_on_c, 0, 53, 0
2, 36531, Note_on_c, 0, 89, 0
2, 36540, Note_on_c, 0, 34, 80
2, 36553, Note_on_c, 0, 86, 80
2, 36555, Note_on_c, 0, 74, 80
2, 36566, Note_on_c, 0, 46, 80
2, 36609, Note_on_c, 0, 86, 0
2, 36609, Note_on_c, 0, 77, 0
2, 36614, Note_on_c, 0, 74, 0
2, 36624, Note_on_c, 0, 34, 0
2, 36631, Note_on_c, 0, 46, 0
2, 36767, Note_on_c, 0, 76, 90
2, 36768, Note_on_c, 0, 64, 90
2, 36770, Note_on_c, 0, 88, 90
2, 36801, Note_on_c, 0, 88, 0
2, 36801, Note_on_c, 0, 64, 0
2, 36803, Note_on_c, 0, 76, 0
2, 36818, Note_on_c, 0, 67, 80
2, 36820, Note_on_c, 0, 91, 80
2, 36822, Note_on_c, 0, 79, 80
2, 36850, Note_on_c, 0, 79, 0
2, 36850, Note_on_c, 0, 91, 0
2, 36855, Note_on_c, 0, 67, 0
2, 36870, Note_on_c, 0, 62, 90
2, 36870, Note_on_c, 0, 74, 80
2, 36870, Note_on_c, 0, 86, 80
2, 36908, Note_on_c, 0, 86, 0
2, 36910, Note_on_c, 0, 74, 0
2, 36912, Note_on_c, 0, 62, 0
2, 36925, Note_on_c, 0, 88, 80
2, 36927, Note_on_c, 0, 64, 80
2, 36927, Note_on_c, 0, 76, 80
2, 36961, Note_on_c, 0, 76, 0
2, 36961, Note_on_c, 0, 64, 0
2, 36961, Note_on_c, 0, 88, 0
2, 36979, Control_c, 0, 67, 127
2, 36987, Note_on_c, 0, 60, 90
2, 36987, Note_on_c, 0, 72, 80
2, 36987, Note_on_c, 0, 84, 80
2, 37015, Control_c, 0, 67, 0
2, 37039, Note_on_c, 0, 84, 0
2, 37039, Note_on_c, 0, 72, 0
2, 37041, Note_on_c, 0, 60, 0
2, 37198, Note_on_c, 0, 52, 90
2, 37198, Note_on_c, 0, 64, 80
2, 37198, Note_on_c, 0, 76, 80
2, 37235, Note_on_c, 0, 76, 0
2, 37240, Note_on_c, 0, 52, 0
2, 37247, Note_on_c, 0, 64, 0
2, 37253, Note_on_c, 0, 67, 80
2, 37255, Note_on_c, 0, 55, 90
2, 37257, Note_on_c, 0, 79, 80
2, 37290, Note_on_c, 0, 79, 0
2, 37290, Note_on_c, 0, 55, 0
2, 37290, Note_on_c, 0, 67, 0
2, 37312, Note_on_c, 0, 50, 90
2, 37312, Note_on_c, 0, 62, 90
2, 37312, Note_on_c, 0, 74, 80
2, 37346, Note_on_c, 0, 74, 0
2, 37346, Note_on_c, 0, 62, 0
2, 37346, Note_on_c, 0, 50, 0
2, 37360, Note_on_c, 0, 52, 90
2, 37360, Note_on_c, 0, 64, 80
2, 37360, Note_on_c, 0, 76, 80
2, 37397, Note_on_c, 0, 76, 0
2, 37397, Note_on_c, 0, 64, 0
2, 37397, Note_on_c, 0, 52, 0
2, 37404, Control_c, 0, 67, 127
2, 37413, Note_on_c, 0, 60, 90
2, 37417, Note_on_c, 0, 48, 90
2, 37417, Note_on_c, 0, 72, 80
2, 37443, Control_c, 0, 67, 0
2, 37469, Note_on_c, 0, 72, 0
2, 37469, Note_on_c, 0, 60, 0
2, 37471, Note_on_c, 0, 48, 0
2, 37591, Control_c, 0, 64, 127
2, 37624, Control_c, 0, 67, 127
2, 37632, Note_on_c, 0, 52, 90
2, 37632, Note_on_c, 0, 64, 80
2, 37663, Control_c, 0, 67, 0
2, 37670, Note_on_c, 0, 64, 0
2, 37670, Note_on_c, 0, 52, 0
2, 37687, Note_on_c, 0, 67, 80
2, 37689, Note_on_c, 0, 55, 90
2, 37706, Control_c, 0, 64, 0
2, 37724, Note_on_c, 0, 55, 0
2, 37728, Note_on_c, 0, 67, 0
2, 37733, Control_c, 0, 67, 127
2, 37744, Note_on_c, 0, 50, 90
2, 37744, Note_on_c, 0, 62, 90
2, 37770, Control_c, 0, 67, 0
2, 37778, Note_on_c, 0, 62, 0
2, 37780, Note_on_c, 0, 50, 0
2, 37802, Note_on_c, 0, 52, 90
2, 37802, Note_on_c, 0, 64, 80
2, 37840, Note_on_c, 0, 64, 0
2, 37840, Note_on_c, 0, 52, 0
2, 37845, Control_c, 0, 67, 127
2, 37858, Note_on_c, 0, 48, 90
2, 37858, Note_on_c, 0, 60, 90
2, 37889, Control_c, 0, 67, 0
2, 37891, Note_on_c, 0, 60, 0
2, 37891, Note_on_c, 0, 48, 0
2, 37915, Note_on_c, 0, 43, 90
2, 37915, Note_on_c, 0, 55, 90
2, 37949, Note_on_c, 0, 55, 0
2, 37951, Note_on_c, 0, 43, 0
2, 37960, Control_c, 0, 67, 127
2, 37967, Note_on_c, 0, 38, 90
2, 37971, Note_on_c, 0, 50, 90
2, 37999, Control_c, 0, 67, 0
2, 38008, Note_on_c, 0, 50, 0
2, 38010, Note_on_c, 0, 38, 0
2, 38020, Note_on_c, 0, 40, 90
2, 38025, Note_on_c, 0, 52, 90
2, 38058, Note_on_c, 0, 40, 0
2, 38064, Note_on_c, 0, 36, 80
2, 38066, Note_on_c, 0, 52, 0
2, 38068, Control_c, 0, 67, 127
2, 38092, Note_on_c, 0, 48, 90
2, 38108, Control_c, 0, 67, 0
2, 38142, Note_on_c, 0, 36, 0
2, 38156, Note_on_c, 0, 48, 0
2, 38184, Note_on_c, 0, 84, 80
2, 38185, Note_on_c, 0, 72, 80
2, 38208, Note_on_c, 0, 84, 0
2, 38209, Note_on_c, 0, 72, 0
2, 38237, Note_on_c, 0, 72, 80
2, 38237, Note_on_c, 0, 84, 80
2, 38259, Note_on_c, 0, 72, 0
2, 38264, Note_on_c, 0, 84, 0
2, 38295, Note_on_c, 0, 72, 80
2, 38295, Note_on_c, 0, 84, 80
2, 38338, Note_on_c, 0, 84, 0
2, 38338, Note_on_c, 0, 72, 0
2, 38388, Note_on_c, 0, 42, 80
2, 38401, Note_on_c, 0, 87, 90
2, 38401, Note_on_c, 0, 96, 90
2, 38403, Note_on_c, 0, 84, 90
2, 38412, Note_on_c, 0, 54, 80
2, 38453, Note_on_c, 0, 84, 0
2, 38453, Note_on_c, 0, 96, 0
2, 38453, Note_on_c, 0, 87, 0
2, 38467, Note_on_c, 0, 42, 0
2, 38473, Note_on_c, 0, 54, 0
2, 38496, Control_c, 0, 64, 127
2, 38504, Note_on_c, 0, 96, 80
2, 38506, Note_on_c, 0, 43, 80
2, 38506, Note_on_c, 0, 84, 80
2, 38515, Note_on_c, 0, 55, 80
2, 38539, Note_on_c, 0, 84, 0
2, 38539, Note_on_c, 0, 96, 0
2, 38558, Note_on_c, 0, 82, 80
2, 38558, Note_on_c, 0, 94, 80
2, 38571, Control_c, 0, 64, 0
2, 38587, Note_on_c, 0, 55, 0
2, 38592, Note_on_c, 0, 94, 0
2, 38593, Note_on_c, 0, 82, 0
2, 38616, Note_on_c, 0, 55, 80
2, 38616, Note_on_c, 0, 60, 80
2, 38617, Note_on_c, 0, 64, 80
2, 38617, Note_on_c, 0, 91, 80
2, 38619, Note_on_c, 0, 58, 80
2, 38621, Note_on_c, 0, 79, 80
2, 38628, Note_on_c, 0, 43, 0
2, 38654, Note_on_c, 0, 91, 0
2, 38654, Note_on_c, 0, 79, 0
2, 38663, Note_on_c, 0, 55, 0
2, 38663, Note_on_c, 0, 60, 0
2, 38664, Note_on_c, 0, 58, 0
2, 38666, Note_on_c, 0, 64, 0
2, 38671, Note_on_c, 0, 88, 80
2, 38673, Note_on_c, 0, 76, 80
2, 38701, Note_on_c, 0, 88, 0
2, 38710, Note_on_c, 0, 76, 0
2, 38714, Note_on_c, 0, 36, 80
2, 38725, Note_on_c, 0, 72, 80
2, 38725, Note_on_c, 0, 84, 80
2, 38734, Note_on_c, 0, 48, 80
2, 38758, Note_on_c, 0, 84, 0
2, 38758, Note_on_c, 0, 72, 0
2, 38777, Note_on_c, 0, 70, 80
2, 38777, Note_on_c, 0, 82, 80
2, 38814, Note_on_c, 0, 82, 0
2, 38814, Note_on_c, 0, 70, 0
2, 38833, Note_on_c, 0, 55, 80
2, 38833, Note_on_c, 0, 58, 80
2, 38833, Note_on_c, 0, 60, 80
2, 38833, Note_on_c, 0, 64, 80
2, 38833, Note_on_c, 0, 67, 80
2, 38840, Note_on_c, 0, 79, 80
2, 38847, Note_on_c, 0, 36, 0
2, 38847, Note_on_c, 0, 48, 0
2, 38862, Note_on_c, 0, 64, 0
2, 38869, Note_on_c, 0, 79, 0
2, 38869, Note_on_c, 0, 67, 0
2, 38882, Note_on_c, 0, 58, 0
2, 38882, Note_on_c, 0, 60, 0
2, 38882, Note_on_c, 0, 55, 0
2, 38889, Note_on_c, 0, 64, 80
2, 38889, Note_on_c, 0, 76, 80
2, 38924, Note_on_c, 0, 41, 80
2, 38926, Note_on_c, 0, 76, 0
2, 38926, Note_on_c, 0, 64, 0
2, 38945, Note_on_c, 0, 74, 80
2, 38945, Note_on_c, 0, 77, 80
2, 38947, Note_on_c, 0, 84, 80
2, 38949, Note_on_c, 0, 81, 80
2, 38953, Note_on_c, 0, 53, 80
2, 38971, Note_on_c, 0, 81, 0
2, 38971, Note_on_c, 0, 84, 0
2, 38971, Note_on_c, 0, 77, 0
2, 38971, Note_on_c, 0, 74, 0
2, 38997, Note_on_c, 0, 74, 80
2, 38997, Note_on_c, 0, 77, 80
2, 38997, Note_on_c, 0, 81, 80
2, 38997, Note_on_c, 0, 84, 80
2, 39053, Note_on_c, 0, 57, 80
2, 39053, Note_on_c, 0, 60, 80
2, 39053, Note_on_c, 0, 65, 80
2, 39060, Note_on_c, 0, 77, 0
2, 39062, Note_on_c, 0, 84, 0
2, 39064, Note_on_c, 0, 81, 0
2, 39064, Note_on_c, 0, 53, 0
2, 39064, Note_on_c, 0, 74, 0
2, 39064, Note_on_c, 0, 41, 0
2, 39095, Note_on_c, 0, 60, 0
2, 39095, Note_on_c, 0, 57, 0
2, 39095, Note_on_c, 0, 65, 0
2, 39101, Note_on_c, 0, 74, 80
2, 39101, Note_on_c, 0, 77, 80
2, 39101, Note_on_c, 0, 81, 80
2, 39103, Note_on_c, 0, 84, 80
2, 39149, Note_on_c, 0, 41, 80
2, 39165, Note_on_c, 0, 84, 0
2, 39165, Note_on_c, 0, 81, 0
2, 39169, Note_on_c, 0, 77, 0
2, 39169, Note_on_c, 0, 53, 80
2, 39174, Note_on_c, 0, 74, 0
2, 39217, Note_on_c, 0, 72, 80
2, 39217, Note_on_c, 0, 84, 80
2, 39237, Note_on_c, 0, 81, 80
2, 39239, Note_on_c, 0, 72, 0
2, 39240, Note_on_c, 0, 41, 0
2, 39242, Note_on_c, 0, 84, 0
2, 39256, Note_on_c, 0, 53, 0
2, 39256, Note_on_c, 0, 42, 80
2, 39266, Note_on_c, 0, 75, 80
2, 39266, Note_on_c, 0, 84, 80
2, 39268, Note_on_c, 0, 72, 80
2, 39277, Note_on_c, 0, 54, 80
2, 39320, Note_on_c, 0, 72, 0
2, 39320, Note_on_c, 0, 84, 0
2, 39320, Note_on_c, 0, 75, 0
2, 39320, Note_on_c, 0, 81, 0
2, 39344, Note_on_c, 0, 42, 0
2, 39358, Note_on_c, 0, 54, 0
2, 39366, Note_on_c, 0, 43, 80
2, 39375, Note_on_c, 0, 82, 80
2, 39377, Note_on_c, 0, 72, 80
2, 39377, Note_on_c, 0, 76, 80
2, 39377, Note_on_c, 0, 84, 80
2, 39385, Note_on_c, 0, 55, 80
2, 39401, Note_on_c, 0, 84, 0
2, 39401, Note_on_c, 0, 76, 0
2, 39401, Note_on_c, 0, 72, 0
2, 39401, Note_on_c, 0, 82, 0
2, 39432, Note_on_c, 0, 72, 80
2, 39432, Note_on_c, 0, 76, 80
2, 39432, Note_on_c, 0, 82, 80
2, 39436, Note_on_c, 0, 84, 80
2, 39462, Note_on_c, 0, 55, 0
2, 39486, Note_on_c, 0, 55, 80
2, 39486, Note_on_c, 0, 58, 80
2, 39486, Note_on_c, 0, 60, 80
2, 39486, Note_on_c, 0, 64, 80
2, 39497, Note_on_c, 0, 84, 0
2, 39499, Note_on_c, 0, 43, 0
2, 39499, Note_on_c, 0, 72, 0
2, 39501, Note_on_c, 0, 76, 0
2, 39501, Note_on_c, 0, 82, 0
2, 39528, Note_on_c, 0, 58, 0
2, 39528, Note_on_c, 0, 60, 0
2, 39528, Note_on_c, 0, 55, 0
2, 39533, Note_on_c, 0, 64, 0
2, 39538, Note_on_c, 0, 72, 80
2, 39538, Note_on_c, 0, 76, 80
2, 39538, Note_on_c, 0, 82, 80
2, 39538, Note_on_c, 0, 84, 80
2, 39576, Note_on_c, 0, 43, 80
2, 39582, Note_on_c, 0, 76, 0
2, 39582, Note_on_c, 0, 72, 0
2, 39589, Note_on_c, 0, 82, 0
2, 39602, Note_on_c, 0, 84, 0
2, 39602, Note_on_c, 0, 55, 80
2, 39644, Note_on_c, 0, 74, 80
2, 39644, Note_on_c, 0, 86, 80
2, 39668, Note_on_c, 0, 86, 0
2, 39668, Note_on_c, 0, 74, 0
2, 39670, Note_on_c, 0, 43, 0
2, 39670, Note_on_c, 0, 83, 80
2, 39680, Note_on_c, 0, 55, 0
2, 39687, Note_on_c, 0, 44, 80
2, 39697, Note_on_c, 0, 86, 80
2, 39699, Note_on_c, 0, 74, 80
2, 39699, Note_on_c, 0, 77, 80
2, 39708, Note_on_c, 0, 56, 80
2, 39760, Note_on_c, 0, 77, 0
2, 39762, Note_on_c, 0, 74, 0
2, 39762, Note_on_c, 0, 86, 0
2, 39762, Note_on_c, 0, 83, 0
2, 39777, Note_on_c, 0, 44, 0
2, 39784, Note_on_c, 0, 56, 0
2, 39789, Control_c, 0, 64, 127
2, 39791, Note_on_c, 0, 45, 80
2, 39797, Note_on_c, 0, 77, 80
2, 39797, Note_on_c, 0, 81, 80
2, 39797, Note_on_c, 0, 86, 80
2, 39804, Note_on_c, 0, 74, 80
2, 39811, Note_on_c, 0, 57, 80
2, 39821, Note_on_c, 0, 86, 0
2, 39821, Note_on_c, 0, 81, 0
2, 39826, Note_on_c, 0, 74, 0
2, 39826, Note_on_c, 0, 77, 0
2, 39850, Note_on_c, 0, 74, 80
2, 39850, Note_on_c, 0, 77, 80
2, 39850, Note_on_c, 0, 81, 80
2, 39850, Note_on_c, 0, 86, 80
2, 39852, Control_c, 0, 64, 0
2, 39876, Note_on_c, 0, 57, 0
2, 39902, Note_on_c, 0, 81, 0
2, 39902, Note_on_c, 0, 86, 0
2, 39904, Note_on_c, 0, 57, 80
2, 39904, Note_on_c, 0, 60, 80
2, 39904, Note_on_c, 0, 65, 80
2, 39906, Note_on_c, 0, 77, 0
2, 39911, Note_on_c, 0, 74, 0
2, 39919, Note_on_c, 0, 45, 0
2, 39950, Note_on_c, 0, 57, 0
2, 39950, Note_on_c, 0, 65, 0
2, 39950, Note_on_c, 0, 60, 0
2, 39959, Note_on_c, 0, 86, 80
2, 39960, Note_on_c, 0, 74, 80
2, 39960, Note_on_c, 0, 77, 80
2, 39960, Note_on_c, 0, 81, 80
2, 40002, Note_on_c, 0, 48, 80
2, 40012, Note_on_c, 0, 81, 0
2, 40012, Note_on_c, 0, 86, 0
2, 40019, Note_on_c, 0, 77, 0
2, 40024, Note_on_c, 0, 74, 0
2, 40026, Note_on_c, 0, 60, 80
2, 40072, Note_on_c, 0, 72, 80
2, 40072, Note_on_c, 0, 84, 80
2, 40094, Note_on_c, 0, 48, 0
2, 40103, Note_on_c, 0, 84, 0
2, 40107, Note_on_c, 0, 72, 0
2, 40107, Note_on_c, 0, 60, 0
2, 40114, Note_on_c, 0, 45, 80
2, 40123, Note_on_c, 0, 89, 80
2, 40125, Note_on_c, 0, 77, 80
2, 40135, Note_on_c, 0, 57, 80
2, 40159, Note_on_c, 0, 77, 0
2, 40159, Note_on_c, 0, 89, 0
2, 40181, Note_on_c, 0, 81, 80
2, 40183, Note_on_c, 0, 93, 80
2, 40209, Note_on_c, 0, 45, 0
2, 40211, Note_on_c, 0, 93, 0
2, 40218, Note_on_c, 0, 57, 0
2, 40220, Note_on_c, 0, 81, 0
2, 40230, Note_on_c, 0, 43, 80
2, 40239, Note_on_c, 0, 84, 80
2, 40239, Note_on_c, 0, 96, 80
2, 40252, Note_on_c, 0, 55, 80
2, 40278, Note_on_c, 0, 96, 0
2, 40278, Note_on_c, 0, 84, 0
2, 40294, Note_on_c, 0, 82, 80
2, 40300, Note_on_c, 0, 94, 80
2, 40326, Note_on_c, 0, 55, 0
2, 40328, Note_on_c, 0, 94, 0
2, 40333, Note_on_c, 0, 82, 0
2, 40348, Note_on_c, 0, 91, 80
2, 40353, Note_on_c, 0, 55, 80
2, 40353, Note_on_c, 0, 58, 80
2, 40353, Note_on_c, 0, 60, 80
2, 40353, Note_on_c, 0, 64, 80
2, 40358, Note_on_c, 0, 79, 80
2, 40368, Note_on_c, 0, 43, 0
2, 40386, Note_on_c, 0, 91, 0
2, 40386, Note_on_c, 0, 79, 0
2, 40399, Note_on_c, 0, 60, 0
2, 40399, Note_on_c, 0, 58, 0
2, 40399, Note_on_c, 0, 55, 0
2, 40399, Note_on_c, 0, 64, 0
2, 40408, Note_on_c, 0, 76, 80
2, 40408, Note_on_c, 0, 88, 80
2, 40445, Note_on_c, 0, 88, 0
2, 40445, Note_on_c, 0, 76, 0
2, 40454, Note_on_c, 0, 36, 80
2, 40464, Note_on_c, 0, 72, 80
2, 40466, Note_on_c, 0, 84, 80
2, 40477, Note_on_c, 0, 48, 80
2, 40496, Note_on_c, 0, 84, 0
2, 40501, Note_on_c, 0, 72, 0
2, 40518, Note_on_c, 0, 70, 80
2, 40523, Note_on_c, 0, 82, 80
2, 40558, Note_on_c, 0, 82, 0
2, 40558, Note_on_c, 0, 70, 0
2, 40577, Note_on_c, 0, 64, 80
2, 40577, Note_on_c, 0, 67, 80
2, 40579, Note_on_c, 0, 36, 0
2, 40579, Note_on_c, 0, 55, 80
2, 40579, Note_on_c, 0, 58, 80
2, 40579, Note_on_c, 0, 60, 80
2, 40581, Note_on_c, 0, 79, 80
2, 40596, Note_on_c, 0, 48, 0
2, 40605, Note_on_c, 0, 64, 0
2, 40611, Note_on_c, 0, 79, 0
2, 40616, Note_on_c, 0, 67, 0
2, 40625, Note_on_c, 0, 55, 0
2, 40625, Note_on_c, 0, 60, 0
2, 40625, Note_on_c, 0, 58, 0
2, 40632, Note_on_c, 0, 64, 80
2, 40632, Note_on_c, 0, 76, 80
2, 40671, Note_on_c, 0, 76, 0
2, 40671, Note_on_c, 0, 64, 0
2, 40676, Note_on_c, 0, 41, 80
2, 40686, Note_on_c, 0, 74, 80
2, 40686, Note_on_c, 0, 77, 80
2, 40686, Note_on_c, 0, 81, 80
2, 40695, Note_on_c, 0, 84, 80
2, 40700, Note_on_c, 0, 53, 80
2, 40713, Note_on_c, 0, 81, 0
2, 40713, Note_on_c, 0, 74, 0
2, 40718, Note_on_c, 0, 77, 0
2, 40720, Note_on_c, 0, 84, 0
2, 40742, Note_on_c, 0, 81, 80
2, 40742, Note_on_c, 0, 84, 80
2, 40744, Note_on_c, 0, 74, 80
2, 40744, Note_on_c, 0, 77, 80
2, 40796, Note_on_c, 0, 84, 0
2, 40798, Note_on_c, 0, 57, 80
2, 40798, Note_on_c, 0, 65, 80
2, 40800, Note_on_c, 0, 74, 0
2, 40800, Note_on_c, 0, 41, 0
2, 40800, Note_on_c, 0, 77, 0
2, 40800, Note_on_c, 0, 60, 80
2, 40804, Note_on_c, 0, 81, 0
2, 40811, Note_on_c, 0, 53, 0
2, 40844, Note_on_c, 0, 65, 0
2, 40844, Note_on_c, 0, 57, 0
2, 40844, Note_on_c, 0, 60, 0
2, 40850, Note_on_c, 0, 74, 80
2, 40861, Note_on_c, 0, 77, 80
2, 40870, Note_on_c, 0, 81, 80
2, 40885, Note_on_c, 0, 86, 80
2, 40894, Note_on_c, 0, 38, 80
2, 40909, Note_on_c, 0, 50, 80
2, 40957, Note_on_c, 0, 74, 0
2, 40966, Note_on_c, 0, 81, 0
2, 40970, Note_on_c, 0, 77, 0
2, 40975, Note_on_c, 0, 89, 80
2, 40977, Note_on_c, 0, 86, 0
2, 40977, Note_on_c, 0, 38, 0
2, 40986, Note_on_c, 0, 50, 0
2, 40996, Note_on_c, 0, 35, 80
2, 41003, Note_on_c, 0, 77, 80
2, 41003, Note_on_c, 0, 81, 80
2, 41008, Note_on_c, 0, 84, 80
2, 41016, Note_on_c, 0, 47, 80
2, 41049, Control_c, 0, 64, 127
2, 41060, Note_on_c, 0, 84, 0
2, 41060, Note_on_c, 0, 77, 0
2, 41060, Note_on_c, 0, 89, 0
2, 41064, Note_on_c, 0, 81, 0
2, 41087, Note_on_c, 0, 35, 0
2, 41102, Note_on_c, 0, 47, 0
2, 41109, Note_on_c, 0, 40, 80
2, 41119, Control_c, 0, 64, 0
2, 41119, Note_on_c, 0, 76, 80
2, 41119, Note_on_c, 0, 88, 80
2, 41126, Note_on_c, 0, 84, 80
2, 41128, Note_on_c, 0, 52, 80
2, 41128, Note_on_c, 0, 81, 80
2, 41143, Note_on_c, 0, 88, 0
2, 41143, Note_on_c, 0, 76, 0
2, 41145, Note_on_c, 0, 84, 0
2, 41145, Note_on_c, 0, 81, 0
2, 41169, Note_on_c, 0, 76, 80
2, 41169, Note_on_c, 0, 84, 80
2, 41183, Note_on_c, 0, 81, 80
2, 41184, Note_on_c, 0, 40, 0
2, 41198, Note_on_c, 0, 52, 0
2, 41200, Note_on_c, 0, 88, 80
2, 41210, Note_on_c, 0, 40, 80
2, 41232, Note_on_c, 0, 52, 80
2, 41287, Note_on_c, 0, 84, 0
2, 41289, Note_on_c, 0, 40, 0
2, 41300, Note_on_c, 0, 88, 0
2, 41300, Note_on_c, 0, 81, 0
2, 41300, Note_on_c, 0, 52, 0
2, 41300, Note_on_c, 0, 76, 0
2, 41319, Note_on_c, 0, 40, 80
2, 41326, Note_on_c, 0, 80, 80
2, 41328, Note_on_c, 0, 76, 80
2, 41328, Note_on_c, 0, 88, 80
2, 41332, Note_on_c, 0, 74, 80
2, 41332, Note_on_c, 0, 83, 80
2, 41337, Note_on_c, 0, 52, 80
2, 41354, Note_on_c, 0, 74, 0
2, 41354, Note_on_c, 0, 88, 0
2, 41354, Note_on_c, 0, 76, 0
2, 41354, Note_on_c, 0, 80, 0
2, 41359, Note_on_c, 0, 83, 0
2, 41381, Note_on_c, 0, 80, 80
2, 41386, Note_on_c, 0, 74, 80
2, 41386, Note_on_c, 0, 76, 80
2, 41391, Note_on_c, 0, 83, 80
2, 41398, Note_on_c, 0, 40, 0
2, 41411, Note_on_c, 0, 88, 80
2, 41416, Note_on_c, 0, 52, 0
2, 41426, Note_on_c, 0, 40, 80
2, 41448, Note_on_c, 0, 52, 80
2, 41500, Note_on_c, 0, 80, 0
2, 41502, Note_on_c, 0, 40, 0
2, 41502, Note_on_c, 0, 60, 80
2, 41504, Note_on_c, 0, 76, 0
2, 41506, Note_on_c, 0, 74, 0
2, 41513, Note_on_c, 0, 88, 0
2, 41513, Note_on_c, 0, 59, 80
2, 41520, Note_on_c, 0, 52, 0
2, 41520, Note_on_c, 0, 58, 80
2, 41521, Note_on_c, 0, 83, 0
2, 41544, Note_on_c, 0, 60, 0
2, 41545, Note_on_c, 0, 69, 80
2, 41545, Note_on_c, 0, 81, 80
2, 41547, Note_on_c, 0, 33, 80
2, 41547, Note_on_c, 0, 57, 80
2, 41558, Note_on_c, 0, 59, 0
2, 41568, Note_on_c, 0, 72, 80
2, 41568, Note_on_c, 0, 84, 80
2, 41570, Note_on_c, 0, 58, 0
2, 41572, Note_on_c, 0, 33, 0
2, 41579, Note_on_c, 0, 45, 80
2, 41581, Note_on_c, 0, 81, 0
2, 41581, Note_on_c, 0, 69, 0
2, 41598, Note_on_c, 0, 33, 80
2, 41598, Note_on_c, 0, 76, 80
2, 41598, Note_on_c, 0, 88, 80
2, 41600, Note_on_c, 0, 72, 0
2, 41600, Note_on_c, 0, 84, 0
2, 41605, Note_on_c, 0, 45, 0
2, 41622, Note_on_c, 0, 33, 0
2, 41627, Note_on_c, 0, 81, 80
2, 41627, Note_on_c, 0, 93, 80
2, 41636, Note_on_c, 0, 88, 0
2, 41636, Note_on_c, 0, 76, 0
2, 41636, Note_on_c, 0, 45, 80
2, 41653, Note_on_c, 0, 33, 80
2, 41655, Note_on_c, 0, 93, 0
2, 41655, Note_on_c, 0, 69, 80
2, 41662, Note_on_c, 0, 45, 0
2, 41681, Note_on_c, 0, 33, 0
2, 41689, Note_on_c, 0, 45, 80
2, 41689, Note_on_c, 0, 72, 80
2, 41689, Note_on_c, 0, 84, 80
2, 41691, Note_on_c, 0, 69, 0
2, 41691, Note_on_c, 0, 81, 0
2, 41709, Note_on_c, 0, 33, 80
2, 41717, Note_on_c, 0, 45, 0
2, 41731, Note_on_c, 0, 84, 0
2, 41736, Note_on_c, 0, 33, 0
2, 41736, Note_on_c, 0, 76, 80
2, 41736, Note_on_c, 0, 88, 80
2, 41737, Note_on_c, 0, 72, 0
2, 41746, Note_on_c, 0, 45, 80
2, 41765, Note_on_c, 0, 33, 80
2, 41770, Note_on_c, 0, 81, 80
2, 41770, Note_on_c, 0, 93, 80
2, 41772, Note_on_c, 0, 45, 0
2, 41772, Note_on_c, 0, 88, 0
2, 41772, Note_on_c, 0, 76, 0
2, 41794, Note_on_c, 0, 33, 0
2, 41803, Note_on_c, 0, 45, 80
2, 41822, Note_on_c, 0, 93, 0
2, 41822, Note_on_c, 0, 81, 0
2, 41822, Note_on_c, 0, 33, 80
2, 41829, Note_on_c, 0, 45, 0
2, 41848, Note_on_c, 0, 33, 0
2, 41858, Note_on_c, 0, 45, 80
2, 41867, Note_on_c, 0, 42, 80
2, 41872, Note_on_c, 0, 57, 0
2, 41880, Note_on_c, 0, 96, 80
2, 41882, Note_on_c, 0, 72, 80
2, 41882, Note_on_c, 0, 75, 80
2, 41882, Note_on_c, 0, 81, 80
2, 41882, Note_on_c, 0, 84, 80
2, 41882, Note_on_c, 0, 87, 80
2, 41884, Note_on_c, 0, 45, 0
2, 41895, Note_on_c, 0, 54, 90
2, 41936, Note_on_c, 0, 84, 0
2, 41936, Note_on_c, 0, 96, 0
2, 41936, Note_on_c, 0, 81, 0
2, 41941, Note_on_c, 0, 87, 0
2, 41941, Note_on_c, 0, 72, 0
2, 41941, Note_on_c, 0, 75, 0
2, 41965, Note_on_c, 0, 42, 0
2, 41970, Note_on_c, 0, 54, 0
2, 41978, Note_on_c, 0, 43, 90
2, 41985, Control_c, 0, 67, 127
2, 41992, Note_on_c, 0, 84, 80
2, 41992, Note_on_c, 0, 96, 80
2, 41997, Note_on_c, 0, 55, 90
2, 42016, Control_c, 0, 67, 0
2, 42033, Note_on_c, 0, 96, 0
2, 42033, Note_on_c, 0, 84, 0
2, 42044, Note_on_c, 0, 82, 80
2, 42044, Note_on_c, 0, 94, 80
2, 42068, Note_on_c, 0, 55, 0
2, 42087, Note_on_c, 0, 94, 0
2, 42092, Note_on_c, 0, 82, 0
2, 42094, Note_on_c, 0, 55, 90
2, 42094, Note_on_c, 0, 58, 90
2, 42094, Note_on_c, 0, 64, 80
2, 42096, Note_on_c, 0, 60, 90
2, 42096, Note_on_c, 0, 91, 80
2, 42100, Note_on_c, 0, 79, 80
2, 42111, Note_on_c, 0, 43, 0
2, 42139, Note_on_c, 0, 91, 0
2, 42139, Note_on_c, 0, 60, 0
2, 42139, Note_on_c, 0, 79, 0
2, 42144, Note_on_c, 0, 55, 0
2, 42144, Note_on_c, 0, 64, 0
2, 42144, Note_on_c, 0, 58, 0
2, 42150, Note_on_c, 0, 76, 80
2, 42150, Note_on_c, 0, 88, 80
2, 42192, Note_on_c, 0, 36, 80
2, 42196, Note_on_c, 0, 88, 0
2, 42196, Note_on_c, 0, 76, 0
2, 42198, Control_c, 0, 67, 127
2, 42203, Note_on_c, 0, 84, 80
2, 42208, Note_on_c, 0, 72, 80
2, 42213, Note_on_c, 0, 48, 90
2, 42230, Control_c, 0, 67, 0
2, 42247, Note_on_c, 0, 72, 0
2, 42252, Note_on_c, 0, 84, 0
2, 42257, Note_on_c, 0, 82, 80
2, 42259, Note_on_c, 0, 70, 80
2, 42302, Note_on_c, 0, 82, 0
2, 42307, Note_on_c, 0, 70, 0
2, 42307, Note_on_c, 0, 55, 90
2, 42307, Note_on_c, 0, 58, 90
2, 42309, Note_on_c, 0, 36, 0
2, 42309, Note_on_c, 0, 60, 90
2, 42309, Note_on_c, 0, 64, 80
2, 42313, Note_on_c, 0, 67, 80
2, 42313, Note_on_c, 0, 79, 80
2, 42324, Note_on_c, 0, 48, 0
2, 42341, Note_on_c, 0, 64, 0
2, 42350, Control_c, 0, 64, 127
2, 42352, Note_on_c, 0, 55, 0
2, 42352, Note_on_c, 0, 60, 0
2, 42352, Note_on_c, 0, 58, 0
2, 42352, Note_on_c, 0, 79, 0
2, 42354, Note_on_c, 0, 67, 0
2, 42360, Note_on_c, 0, 76, 80
2, 42371, Note_on_c, 0, 64, 80
2, 42399, Note_on_c, 0, 41, 80
2, 42401, Control_c, 0, 67, 127
2, 42403, Note_on_c, 0, 76, 0
2, 42408, Note_on_c, 0, 64, 0
2, 42408, Note_on_c, 0, 77, 80
2, 42408, Note_on_c, 0, 81, 80
2, 42409, Note_on_c, 0, 72, 80
2, 42409, Note_on_c, 0, 84, 80
2, 42411, Note_on_c, 0, 74, 80
2, 42420, Note_on_c, 0, 53, 80
2, 42431, Note_on_c, 0, 74, 0
2, 42431, Note_on_c, 0, 81, 0
2, 42431, Note_on_c, 0, 77, 0
2, 42431, Note_on_c, 0, 84, 0
2, 42432, Note_on_c, 0, 72, 0
2, 42434, Control_c, 0, 67, 0
2, 42436, Control_c, 0, 64, 0
2, 42460, Note_on_c, 0, 72, 80
2, 42460, Note_on_c, 0, 74, 80
2, 42460, Note_on_c, 0, 77, 80
2, 42460, Note_on_c, 0, 81, 80
2, 42460, Note_on_c, 0, 84, 80
2, 42508, Note_on_c, 0, 57, 90
2, 42508, Note_on_c, 0, 60, 90
2, 42513, Note_on_c, 0, 84, 0
2, 42513, Note_on_c, 0, 81, 0
2, 42513, Note_on_c, 0, 77, 0
2, 42513, Note_on_c, 0, 65, 80
2, 42518, Note_on_c, 0, 74, 0
2, 42518, Note_on_c, 0, 72, 0
2, 42527, Note_on_c, 0, 41, 0
2, 42528, Note_on_c, 0, 53, 0
2, 42559, Note_on_c, 0, 60, 0
2, 42559, Note_on_c, 0, 57, 0
2, 42564, Note_on_c, 0, 65, 0
2, 42566, Note_on_c, 0, 72, 80
2, 42566, Note_on_c, 0, 77, 80
2, 42566, Note_on_c, 0, 84, 80
2, 42568, Note_on_c, 0, 81, 80
2, 42570, Note_on_c, 0, 74, 80
2, 42607, Control_c, 0, 67, 127
2, 42609, Note_on_c, 0, 41, 90
2, 42620, Note_on_c, 0, 72, 0
2, 42622, Note_on_c, 0, 81, 0
2, 42622, Note_on_c, 0, 77, 0
2, 42622, Note_on_c, 0, 84, 0
2, 42626, Note_on_c, 0, 74, 0
2, 42628, Note_on_c, 0, 53, 90
2, 42650, Control_c, 0, 67, 0
2, 42674, Note_on_c, 0, 72, 80
2, 42681, Note_on_c, 0, 84, 80
2, 42690, Note_on_c, 0, 41, 0
2, 42700, Note_on_c, 0, 72, 0
2, 42702, Note_on_c, 0, 81, 80
2, 42704, Note_on_c, 0, 53, 0
2, 42709, Note_on_c, 0, 84, 0
2, 42728, Note_on_c, 0, 42, 80
2, 42730, Control_c, 0, 67, 127
2, 42739, Note_on_c, 0, 72, 80
2, 42739, Note_on_c, 0, 75, 80
2, 42739, Note_on_c, 0, 84, 80
2, 42745, Note_on_c, 0, 54, 90
2, 42763, Control_c, 0, 67, 0
2, 42789, Note_on_c, 0, 84, 0
2, 42789, Note_on_c, 0, 81, 0
2, 42793, Note_on_c, 0, 75, 0
2, 42793, Note_on_c, 0, 72, 0
2, 42813, Note_on_c, 0, 42, 0
2, 42821, Note_on_c, 0, 54, 0
2, 42828, Note_on_c, 0, 43, 80
2, 42833, Control_c, 0, 67, 127
2, 42841, Note_on_c, 0, 72, 80
2, 42841, Note_on_c, 0, 76, 80
2, 42841, Note_on_c, 0, 82, 80
2, 42843, Note_on_c, 0, 84, 80
2, 42854, Note_on_c, 0, 55, 90
2, 42863, Note_on_c, 0, 84, 0
2, 42863, Note_on_c, 0, 82, 0
2, 42863, Note_on_c, 0, 72, 0
2, 42867, Note_on_c, 0, 76, 0
2, 42872, Control_c, 0, 67, 0
2, 42900, Note_on_c, 0, 72, 80
2, 42900, Note_on_c, 0, 76, 80
2, 42900, Note_on_c, 0, 82, 80
2, 42900, Note_on_c, 0, 84, 80
2, 42919, Note_on_c, 0, 55, 0
2, 42952, Note_on_c, 0, 84, 0
2, 42954, Note_on_c, 0, 76, 0
2, 42954, Note_on_c, 0, 82, 0
2, 42956, Note_on_c, 0, 72, 0
2, 42956, Note_on_c, 0, 55, 80
2, 42956, Note_on_c, 0, 58, 80
2, 42956, Note_on_c, 0, 60, 80
2, 42956, Note_on_c, 0, 64, 80
2, 42962, Note_on_c, 0, 43, 0
2, 42995, Note_on_c, 0, 60, 0
2, 43000, Note_on_c, 0, 55, 0
2, 43000, Note_on_c, 0, 58, 0
2, 43000, Note_on_c, 0, 64, 0
2, 43008, Note_on_c, 0, 76, 80
2, 43008, Note_on_c, 0, 82, 80
2, 43010, Note_on_c, 0, 72, 80
2, 43012, Note_on_c, 0, 84, 80
2, 43050, Note_on_c, 0, 43, 90
2, 43056, Control_c, 0, 67, 127
2, 43065, Note_on_c, 0, 82, 0
2, 43067, Note_on_c, 0, 84, 0
2, 43067, Note_on_c, 0, 76, 0
2, 43067, Note_on_c, 0, 72, 0
2, 43074, Note_on_c, 0, 55, 80
2, 43089, Control_c, 0, 67, 0
2, 43117, Note_on_c, 0, 86, 80
2, 43119, Note_on_c, 0, 74, 80
2, 43138, Note_on_c, 0, 74, 0
2, 43138, Note_on_c, 0, 86, 0
2, 43138, Note_on_c, 0, 43, 0
2, 43149, Note_on_c, 0, 55, 0
2, 43159, Note_on_c, 0, 44, 80
2, 43164, Control_c, 0, 67, 127
2, 43171, Note_on_c, 0, 77, 80
2, 43176, Note_on_c, 0, 74, 80
2, 43176, Note_on_c, 0, 83, 80
2, 43176, Note_on_c, 0, 86, 80
2, 43180, Note_on_c, 0, 56, 90
2, 43198, Control_c, 0, 67, 0
2, 43225, Note_on_c, 0, 86, 0
2, 43230, Note_on_c, 0, 83, 0
2, 43230, Note_on_c, 0, 74, 0
2, 43230, Note_on_c, 0, 77, 0
2, 43252, Note_on_c, 0, 44, 0
2, 43263, Note_on_c, 0, 56, 0
2, 43268, Control_c, 0, 67, 127
2, 43270, Note_on_c, 0, 45, 80
2, 43278, Note_on_c, 0, 77, 80
2, 43278, Note_on_c, 0, 81, 80
2, 43280, Note_on_c, 0, 86, 80
2, 43285, Note_on_c, 0, 74, 80
2, 43290, Note_on_c, 0, 57, 90
2, 43305, Note_on_c, 0, 86, 0
2, 43305, Note_on_c, 0, 81, 0
2, 43307, Control_c, 0, 67, 0
2, 43309, Note_on_c, 0, 74, 0
2, 43309, Note_on_c, 0, 77, 0
2, 43331, Note_on_c, 0, 77, 80
2, 43331, Note_on_c, 0, 81, 80
2, 43340, Note_on_c, 0, 74, 80
2, 43340, Note_on_c, 0, 86, 80
2, 43362, Note_on_c, 0, 57, 0
2, 43390, Note_on_c, 0, 57, 80
2, 43390, Note_on_c, 0, 60, 80
2, 43390, Note_on_c, 0, 65, 80
2, 43394, Note_on_c, 0, 77, 0
2, 43394, Note_on_c, 0, 74, 0
2, 43394, Note_on_c, 0, 81, 0
2, 43394, Note_on_c, 0, 86, 0
2, 43408, Note_on_c, 0, 45, 0
2, 43436, Note_on_c, 0, 60, 0
2, 43438, Note_on_c, 0, 57, 0
2, 43438, Note_on_c, 0, 65, 0
2, 43440, Note_on_c, 0, 77, 80
2, 43444, Note_on_c, 0, 81, 80
2, 43449, Note_on_c, 0, 86, 80
2, 43451, Note_on_c, 0, 74, 80
2, 43490, Note_on_c, 0, 48, 90
2, 43492, Control_c, 0, 67, 127
2, 43501, Note_on_c, 0, 86, 0
2, 43501, Note_on_c, 0, 81, 0
2, 43503, Note_on_c, 0, 74, 0
2, 43505, Note_on_c, 0, 77, 0
2, 43513, Note_on_c, 0, 60, 80
2, 43529, Control_c, 0, 67, 0
2, 43560, Note_on_c, 0, 77, 80
2, 43560, Note_on_c, 0, 89, 80
2, 43590, Note_on_c, 0, 48, 0
2, 43599, Note_on_c, 0, 60, 0
2, 43599, Note_on_c, 0, 77, 0
2, 43599, Note_on_c, 0, 89, 0
2, 43606, Note_on_c, 0, 45, 90
2, 43606, Control_c, 0, 67, 127
2, 43612, Note_on_c, 0, 81, 80
2, 43617, Note_on_c, 0, 93, 80
2, 43626, Note_on_c, 0, 57, 90
2, 43645, Control_c, 0, 67, 0
2, 43650, Note_on_c, 0, 93, 0
2, 43655, Note_on_c, 0, 81, 0
2, 43655, Control_c, 0, 64, 127
2, 43665, Note_on_c, 0, 96, 80
2, 43670, Note_on_c, 0, 84, 80
2, 43694, Note_on_c, 0, 45, 0
2, 43701, Note_on_c, 0, 84, 0
2, 43701, Note_on_c, 0, 96, 0
2, 43705, Note_on_c, 0, 57, 0
2, 43710, Note_on_c, 0, 41, 80
2, 43712, Control_c, 0, 67, 127
2, 43726, Note_on_c, 0, 77, 80
2, 43726, Note_on_c, 0, 89, 80
2, 43736, Note_on_c, 0, 53, 80
2, 43738, Control_c, 0, 64, 0
2, 43753, Control_c, 0, 67, 0
2, 43758, Note_on_c, 0, 89, 0
2, 43758, Note_on_c, 0, 77, 0
2, 43780, Note_on_c, 0, 87, 80
2, 43785, Note_on_c, 0, 75, 80
2, 43807, Note_on_c, 0, 53, 0
2, 43814, Note_on_c, 0, 75, 0
2, 43819, Note_on_c, 0, 87, 0
2, 43834, Note_on_c, 0, 53, 90
2, 43834, Note_on_c, 0, 57, 90
2, 43834, Note_on_c, 0, 63, 90
2, 43836, Note_on_c, 0, 84, 80
2, 43836, Note_on_c, 0, 96, 80
2, 43851, Note_on_c, 0, 41, 0
2, 43871, Note_on_c, 0, 84, 0
2, 43871, Note_on_c, 0, 96, 0
2, 43886, Note_on_c, 0, 57, 0
2, 43888, Note_on_c, 0, 81, 80
2, 43888, Note_on_c, 0, 93, 80
2, 43890, Note_on_c, 0, 63, 0
2, 43890, Note_on_c, 0, 53, 0
2, 43916, Note_on_c, 0, 93, 0
2, 43920, Note_on_c, 0, 81, 0
2, 43925, Note_on_c, 0, 43, 80
2, 43930, Control_c, 0, 67, 127
2, 43941, Note_on_c, 0, 77, 80
2, 43943, Note_on_c, 0, 89, 80
2, 43956, Note_on_c, 0, 55, 90
2, 43971, Control_c, 0, 67, 0
2, 43976, Note_on_c, 0, 89, 0
2, 43983, Note_on_c, 0, 77, 0
2, 43990, Note_on_c, 0, 75, 80
2, 43994, Note_on_c, 0, 87, 80
2, 44016, Note_on_c, 0, 43, 0
2, 44027, Note_on_c, 0, 55, 0
2, 44032, Note_on_c, 0, 75, 0
2, 44032, Note_on_c, 0, 87, 0
2, 44045, Control_c, 0, 67, 127
2, 44054, Note_on_c, 0, 45, 90
2, 44056, Note_on_c, 0, 84, 80
2, 44058, Note_on_c, 0, 72, 80
2, 44068, Note_on_c, 0, 57, 90
2, 44082, Control_c, 0, 67, 0
2, 44090, Note_on_c, 0, 84, 0
2, 44095, Note_on_c, 0, 72, 0
2, 44112, Note_on_c, 0, 81, 80
2, 44114, Note_on_c, 0, 69, 80
2, 44138, Note_on_c, 0, 45, 0
2, 44145, Note_on_c, 0, 57, 0
2, 44145, Note_on_c, 0, 81, 0
2, 44145, Note_on_c, 0, 69, 0
2, 44150, Note_on_c, 0, 34, 90
2, 44152, Control_c, 0, 67, 127
2, 44159, Note_on_c, 0, 82, 80
2, 44159, Note_on_c, 0, 91, 80
2, 44160, Note_on_c, 0, 79, 80
2, 44160, Note_on_c, 0, 86, 80
2, 44171, Note_on_c, 0, 46, 90
2, 44180, Note_on_c, 0, 86, 0
2, 44180, Note_on_c, 0, 91, 0
2, 44180, Note_on_c, 0, 82, 0
2, 44182, Control_c, 0, 67, 0
2, 44184, Note_on_c, 0, 79, 0
2, 44188, Note_on_c, 0, 58, 80
2, 44210, Note_on_c, 0, 82, 80
2, 44210, Note_on_c, 0, 86, 80
2, 44210, Note_on_c, 0, 91, 80
2, 44215, Note_on_c, 0, 79, 80
2, 44234, Note_on_c, 0, 58, 0
2, 44260, Note_on_c, 0, 62, 80
2, 44262, Note_on_c, 0, 53, 80
2, 44262, Note_on_c, 0, 58, 80
2, 44264, Note_on_c, 0, 91, 0
2, 44264, Note_on_c, 0, 86, 0
2, 44264, Note_on_c, 0, 82, 0
2, 44264, Note_on_c, 0, 79, 0
2, 44269, Note_on_c, 0, 34, 0
2, 44276, Note_on_c, 0, 46, 0
2, 44310, Note_on_c, 0, 58, 0
2, 44315, Note_on_c, 0, 62, 0
2, 44315, Note_on_c, 0, 53, 0
2, 44320, Note_on_c, 0, 79, 80
2, 44320, Note_on_c, 0, 82, 80
2, 44320, Note_on_c, 0, 86, 80
2, 44320, Note_on_c, 0, 91, 80
2, 44370, Note_on_c, 0, 34, 80
2, 44372, Control_c, 0, 67, 127
2, 44378, Note_on_c, 0, 91, 0
2, 44378, Note_on_c, 0, 86, 0
2, 44378, Note_on_c, 0, 79, 0
2, 44378, Note_on_c, 0, 82, 0
2, 44389, Note_on_c, 0, 46, 80
2, 44406, Control_c, 0, 67, 0
2, 44430, Note_on_c, 0, 77, 80
2, 44432, Note_on_c, 0, 65, 80
2, 44460, Note_on_c, 0, 34, 0
2, 44467, Note_on_c, 0, 46, 0
2, 44467, Note_on_c, 0, 77, 0
2, 44472, Note_on_c, 0, 65, 0
2, 44473, Note_on_c, 0, 35, 80
2, 44473, Control_c, 0, 67, 127
2, 44487, Note_on_c, 0, 67, 80
2, 44492, Note_on_c, 0, 79, 80
2, 44496, Note_on_c, 0, 47, 90
2, 44516, Control_c, 0, 67, 0
2, 44520, Note_on_c, 0, 79, 0
2, 44527, Note_on_c, 0, 67, 0
2, 44543, Note_on_c, 0, 80, 80
2, 44544, Note_on_c, 0, 68, 80
2, 44558, Note_on_c, 0, 35, 0
2, 44577, Note_on_c, 0, 47, 0
2, 44577, Note_on_c, 0, 80, 0
2, 44582, Note_on_c, 0, 68, 0
2, 44584, Note_on_c, 0, 36, 80
2, 44591, Control_c, 0, 67, 127
2, 44599, Note_on_c, 0, 69, 80
2, 44599, Note_on_c, 0, 81, 80
2, 44610, Note_on_c, 0, 48, 80
2, 44623, Control_c, 0, 67, 0
2, 44645, Note_on_c, 0, 81, 0
2, 44650, Note_on_c, 0, 69, 0
2, 44655, Note_on_c, 0, 72, 80
2, 44657, Note_on_c, 0, 84, 80
2, 44689, Note_on_c, 0, 84, 0
2, 44691, Note_on_c, 0, 72, 0
2, 44707, Note_on_c, 0, 36, 0
2, 44709, Note_on_c, 0, 57, 90
2, 44709, Note_on_c, 0, 60, 90
2, 44711, Note_on_c, 0, 65, 80
2, 44711, Note_on_c, 0, 76, 80
2, 44711, Note_on_c, 0, 88, 80
2, 44726, Note_on_c, 0, 48, 0
2, 44739, Note_on_c, 0, 88, 0
2, 44753, Note_on_c, 0, 60, 0
2, 44758, Note_on_c, 0, 57, 0
2, 44758, Note_on_c, 0, 65, 0
2, 44762, Note_on_c, 0, 82, 80
2, 44762, Note_on_c, 0, 86, 80
2, 44802, Control_c, 0, 67, 127
2, 44804, Note_on_c, 0, 36, 80
2, 44810, Note_on_c, 0, 72, 80
2, 44810, Note_on_c, 0, 84, 80
2, 44815, Note_on_c, 0, 86, 0
2, 44815, Note_on_c, 0, 76, 0
2, 44815, Note_on_c, 0, 82, 0
2, 44824, Note_on_c, 0, 48, 80
2, 44834, Note_on_c, 0, 84, 0
2, 44839, Note_on_c, 0, 72, 0
2, 44841, Control_c, 0, 67, 0
2, 44867, Note_on_c, 0, 76, 80
2, 44867, Note_on_c, 0, 82, 80
2, 44867, Note_on_c, 0, 86, 80
2, 44917, Note_on_c, 0, 55, 90
2, 44917, Note_on_c, 0, 58, 90
2, 44917, Note_on_c, 0, 60, 90
2, 44917, Note_on_c, 0, 64, 80
2, 44919, Note_on_c, 0, 36, 0
2, 44921, Note_on_c, 0, 86, 0
2, 44921, Note_on_c, 0, 82, 0
2, 44921, Note_on_c, 0, 76, 0
2, 44929, Note_on_c, 0, 48, 0
2, 44962, Note_on_c, 0, 64, 0
2, 44962, Note_on_c, 0, 60, 0
2, 44962, Note_on_c, 0, 58, 0
2, 44962, Note_on_c, 0, 55, 0
2, 44969, Control_c, 0, 64, 127
2, 45010, Control_c, 0, 67, 127
2, 45015, Note_on_c, 0, 41, 90
2, 45020, Note_on_c, 0, 77, 80
2, 45022, Note_on_c, 0, 65, 80
2, 45022, Note_on_c, 0, 69, 80
2, 45022, Note_on_c, 0, 72, 80
2, 45032, Note_on_c, 0, 53, 90
2, 45054, Control_c, 0, 67, 0
2, 45059, Control_c, 0, 64, 0
2, 45076, Note_on_c, 0, 72, 0
2, 45076, Note_on_c, 0, 69, 0
2, 45076, Note_on_c, 0, 65, 0
2, 45076, Note_on_c, 0, 77, 0
2, 45092, Note_on_c, 0, 41, 0
2, 45105, Note_on_c, 0, 53, 0
2, 45119, Note_on_c, 0, 36, 90
2, 45143, Note_on_c, 0, 48, 90
2, 45201, Note_on_c, 0, 36, 0
2, 45218, Note_on_c, 0, 48, 0
2, 45234, Control_c, 0, 67, 127
2, 45236, Note_on_c, 0, 41, 90
2, 45242, Note_on_c, 0, 65, 80
2, 45242, Note_on_c, 0, 69, 80
2, 45242, Note_on_c, 0, 77, 80
2, 45242, Note_on_c, 0, 81, 80
2, 45242, Note_on_c, 0, 84, 80
2, 45242, Note_on_c, 0, 89, 80
2, 45244, Note_on_c, 0, 60, 90
2, 45253, Note_on_c, 0, 53, 90
2, 45266, Control_c, 0, 67, 0
2, 45294, Note_on_c, 0, 89, 0
2, 45294, Note_on_c, 0, 84, 0
2, 45294, Note_on_c, 0, 81, 0
2, 45299, Note_on_c, 0, 60, 0
2, 45299, Note_on_c, 0, 77, 0
2, 45299, Note_on_c, 0, 69, 0
2, 45299, Note_on_c, 0, 65, 0
2, 45316, Note_on_c, 0, 53, 0
2, 45318, Note_on_c, 0, 41, 0
2, 45318, End_track
3, 0, Start_track
3, 0, Title_t, "c/b James Scott"
3, 0, End_track
4, 0, Start_track
4, 0, Title_t, "p/b James Scott"
4, 0, End_track
5, 0, Start_track
5, 0, Title_t, "Golden Age # 1169"
5, 0, End_track
6, 0, Start_track
6, 0, Title_t, "Scan of a player piano roll"
6, 0, End_track
7, 0, Start_track
7, 0, Title_t, "by Terry Smythe, Winnipeg, Canada"
7, 0, End_track
8, 0, Start_track
8, 1, Copyright_t, "___________________________________________________\012\012KUNSTDERFUGE.COM LARGE CLASSICAL MIDI COLLECTION\012ONCLASSICAL BY ALESSANDRO SIMONETTO, PROPRIETOR\012___________________________________________________\012\012! Attention: this file is under copyright !\012\012(c)onclassical, (nc)smythe, 2010\012___________________________________________________\012\012NO ONE MAY REPUBLISH THIS FILE WITHOUT PERMISSION\012COMMERCIAL USES OF THIS FILE IS STRICTLY PROHIBITED\012___________________________________________________\012\012Files & contributor's list: http://kunstderfuge.com/\012Terms and conditions: http://kunstderfuge.com/notes.htm"
8, 1, End_track
0, 0, End_of_file
