0, 0, Header, 1, 7, 192
1, 0, Start_track
1, 0, Title_t, "9857S"
1, 0, Copyright_t, "May NOT be used for commercial purposes."
1, 0, Text_t, "Roll expression/accent tracks, where present, converted to MIDI velocties.\012"
1, 0, Time_signature, 4, 2, 24, 8
1, 0, Key_signature, 0, "major"
1, 0, Tempo, 500000
1, 0, Marker_t, "Standard MIDI:LPI 126:Tempo  85: 12-05-2003"
1, 0, End_track
2, 0, Start_track
2, 0, Title_t, "Scott Joplin Rags (Entertainer, Joplin's New Rag)"
2, 1, Control_c, 0, 64, 127
2, 105, Control_c, 0, 64, 0
2, 150, Control_c, 0, 64, 127
2, 157, Control_c, 0, 64, 0
2, 171, Note_on_c, 0, 73, 80
2, 171, Note_on_c, 0, 85, 80
2, 173, Note_on_c, 0, 97, 80
2, 247, Note_on_c, 0, 97, 0
2, 247, Note_on_c, 0, 85, 0
2, 247, Note_on_c, 0, 73, 0
2, 256, Note_on_c, 0, 75, 80
2, 256, Note_on_c, 0, 87, 80
2, 256, Note_on_c, 0, 99, 80
2, 291, Note_on_c, 0, 99, 0
2, 291, Note_on_c, 0, 87, 0
2, 291, Note_on_c, 0, 75, 0
2, 298, Note_on_c, 0, 71, 80
2, 300, Note_on_c, 0, 83, 80
2, 300, Note_on_c, 0, 95, 80
2, 333, Note_on_c, 0, 83, 0
2, 333, Note_on_c, 0, 71, 0
2, 345, Note_on_c, 0, 95, 0
2, 370, Control_c, 0, 64, 127
2, 381, Note_on_c, 0, 68, 80
2, 383, Note_on_c, 0, 80, 80
2, 383, Note_on_c, 0, 92, 80
2, 501, Note_on_c, 0, 92, 0
2, 501, Note_on_c, 0, 80, 0
2, 501, Note_on_c, 0, 68, 0
2, 506, Note_on_c, 0, 70, 80
2, 506, Note_on_c, 0, 82, 80
2, 506, Note_on_c, 0, 94, 80
2, 510, Control_c, 0, 64, 0
2, 543, Note_on_c, 0, 82, 0
2, 543, Note_on_c, 0, 70, 0
2, 545, Note_on_c, 0, 94, 0
2, 551, Note_on_c, 0, 66, 80
2, 551, Note_on_c, 0, 78, 80
2, 551, Note_on_c, 0, 90, 80
2, 596, Note_on_c, 0, 90, 0
2, 596, Note_on_c, 0, 78, 0
2, 596, Note_on_c, 0, 66, 0
2, 691, Note_on_c, 0, 61, 80
2, 691, Note_on_c, 0, 73, 80
2, 691, Note_on_c, 0, 85, 80
2, 765, Note_on_c, 0, 85, 0
2, 765, Note_on_c, 0, 73, 0
2, 765, Note_on_c, 0, 61, 0
2, 775, Note_on_c, 0, 63, 80
2, 775, Note_on_c, 0, 75, 80
2, 775, Note_on_c, 0, 87, 80
2, 808, Note_on_c, 0, 87, 0
2, 808, Note_on_c, 0, 75, 0
2, 808, Note_on_c, 0, 63, 0
2, 814, Note_on_c, 0, 59, 80
2, 814, Note_on_c, 0, 71, 80
2, 814, Note_on_c, 0, 83, 80
2, 847, Note_on_c, 0, 83, 0
2, 847, Note_on_c, 0, 71, 0
2, 847, Note_on_c, 0, 59, 0
2, 899, Note_on_c, 0, 56, 80
2, 899, Note_on_c, 0, 68, 80
2, 899, Note_on_c, 0, 80, 80
2, 1014, Note_on_c, 0, 82, 80
2, 1016, Note_on_c, 0, 80, 0
2, 1016, Note_on_c, 0, 56, 0
2, 1016, Note_on_c, 0, 68, 0
2, 1022, Note_on_c, 0, 58, 80
2, 1022, Note_on_c, 0, 70, 80
2, 1056, Note_on_c, 0, 66, 80
2, 1057, Note_on_c, 0, 70, 0
2, 1057, Note_on_c, 0, 58, 0
2, 1059, Note_on_c, 0, 82, 0
2, 1065, Note_on_c, 0, 54, 80
2, 1065, Note_on_c, 0, 78, 80
2, 1099, Note_on_c, 0, 78, 0
2, 1099, Note_on_c, 0, 54, 0
2, 1109, Note_on_c, 0, 66, 0
2, 1179, Note_on_c, 0, 49, 80
2, 1179, Note_on_c, 0, 61, 80
2, 1179, Note_on_c, 0, 73, 80
2, 1253, Note_on_c, 0, 73, 0
2, 1253, Note_on_c, 0, 61, 0
2, 1253, Note_on_c, 0, 49, 0
2, 1260, Note_on_c, 0, 51, 80
2, 1260, Note_on_c, 0, 63, 80
2, 1260, Note_on_c, 0, 75, 80
2, 1293, Control_c, 0, 64, 127
2, 1295, Note_on_c, 0, 75, 0
2, 1295, Note_on_c, 0, 63, 0
2, 1295, Note_on_c, 0, 51, 0
2, 1300, Note_on_c, 0, 71, 80
2, 1302, Note_on_c, 0, 47, 80
2, 1302, Note_on_c, 0, 59, 80
2, 1335, Note_on_c, 0, 59, 0
2, 1335, Note_on_c, 0, 47, 0
2, 1335, Note_on_c, 0, 71, 0
2, 1385, Note_on_c, 0, 44, 80
2, 1387, Note_on_c, 0, 56, 80
2, 1387, Note_on_c, 0, 68, 80
2, 1428, Control_c, 0, 64, 0
2, 1500, Note_on_c, 0, 68, 0
2, 1500, Note_on_c, 0, 56, 0
2, 1500, Note_on_c, 0, 44, 0
2, 1507, Note_on_c, 0, 46, 80
2, 1507, Note_on_c, 0, 58, 80
2, 1509, Note_on_c, 0, 70, 80
2, 1541, Note_on_c, 0, 70, 0
2, 1541, Note_on_c, 0, 58, 0
2, 1541, Note_on_c, 0, 46, 0
2, 1548, Note_on_c, 0, 68, 80
2, 1550, Note_on_c, 0, 44, 80
2, 1550, Note_on_c, 0, 56, 80
2, 1614, Note_on_c, 0, 44, 0
2, 1625, Note_on_c, 0, 68, 0
2, 1627, Note_on_c, 0, 56, 0
2, 1632, Note_on_c, 0, 43, 80
2, 1632, Note_on_c, 0, 55, 80
2, 1632, Note_on_c, 0, 67, 80
2, 1666, Note_on_c, 0, 67, 0
2, 1666, Note_on_c, 0, 55, 0
2, 1666, Note_on_c, 0, 43, 0
2, 1672, Note_on_c, 0, 42, 80
2, 1674, Note_on_c, 0, 54, 80
2, 1674, Note_on_c, 0, 66, 80
2, 1717, Note_on_c, 0, 66, 0
2, 1717, Note_on_c, 0, 54, 0
2, 1717, Note_on_c, 0, 42, 0
2, 1798, Note_on_c, 0, 37, 80
2, 1884, Note_on_c, 0, 73, 80
2, 1896, Note_on_c, 0, 73, 0
2, 1907, Note_on_c, 0, 75, 80
2, 1916, Note_on_c, 0, 76, 80
2, 1918, Note_on_c, 0, 37, 0
2, 1924, Note_on_c, 0, 30, 80
2, 1926, Note_on_c, 0, 76, 0
2, 1926, Note_on_c, 0, 42, 80
2, 1926, Note_on_c, 0, 70, 80
2, 1926, Note_on_c, 0, 73, 80
2, 1926, Note_on_c, 0, 78, 80
2, 1928, Note_on_c, 0, 75, 0
2, 1928, Note_on_c, 0, 66, 80
2, 1961, Note_on_c, 0, 30, 0
2, 1969, Note_on_c, 0, 78, 0
2, 1969, Note_on_c, 0, 73, 0
2, 1969, Note_on_c, 0, 70, 0
2, 1969, Note_on_c, 0, 66, 0
2, 1969, Note_on_c, 0, 42, 0
2, 2056, Note_on_c, 0, 61, 80
2, 2056, Note_on_c, 0, 73, 80
2, 2118, Note_on_c, 0, 73, 0
2, 2118, Note_on_c, 0, 61, 0
2, 2139, Note_on_c, 0, 62, 80
2, 2139, Note_on_c, 0, 74, 80
2, 2173, Note_on_c, 0, 74, 0
2, 2173, Note_on_c, 0, 62, 0
2, 2180, Note_on_c, 0, 35, 80
2, 2180, Note_on_c, 0, 47, 80
2, 2180, Note_on_c, 0, 63, 80
2, 2180, Note_on_c, 0, 66, 80
2, 2180, Note_on_c, 0, 71, 80
2, 2182, Note_on_c, 0, 75, 80
2, 2214, Note_on_c, 0, 75, 0
2, 2214, Note_on_c, 0, 66, 0
2, 2214, Note_on_c, 0, 63, 0
2, 2214, Note_on_c, 0, 71, 0
2, 2225, Note_on_c, 0, 35, 0
2, 2225, Note_on_c, 0, 47, 0
2, 2264, Note_on_c, 0, 71, 80
2, 2277, Note_on_c, 0, 83, 80
2, 2314, Note_on_c, 0, 51, 80
2, 2314, Note_on_c, 0, 54, 80
2, 2316, Note_on_c, 0, 59, 80
2, 2328, Note_on_c, 0, 59, 0
2, 2328, Note_on_c, 0, 51, 0
2, 2328, Note_on_c, 0, 54, 0
2, 2382, Note_on_c, 0, 83, 0
2, 2382, Note_on_c, 0, 71, 0
2, 2388, Note_on_c, 0, 63, 80
2, 2400, Note_on_c, 0, 75, 80
2, 2424, Note_on_c, 0, 75, 0
2, 2424, Note_on_c, 0, 63, 0
2, 2429, Note_on_c, 0, 54, 80
2, 2429, Note_on_c, 0, 71, 80
2, 2442, Note_on_c, 0, 42, 80
2, 2442, Note_on_c, 0, 83, 80
2, 2474, Note_on_c, 0, 42, 0
2, 2474, Note_on_c, 0, 54, 0
2, 2508, Note_on_c, 0, 71, 0
2, 2510, Note_on_c, 0, 83, 0
2, 2562, Note_on_c, 0, 51, 80
2, 2562, Note_on_c, 0, 54, 80
2, 2562, Note_on_c, 0, 57, 80
2, 2562, Note_on_c, 0, 59, 80
2, 2562, Note_on_c, 0, 63, 80
2, 2562, Note_on_c, 0, 75, 80
2, 2582, Control_c, 0, 64, 127
2, 2584, Note_on_c, 0, 51, 0
2, 2586, Note_on_c, 0, 54, 0
2, 2586, Note_on_c, 0, 57, 0
2, 2594, Note_on_c, 0, 59, 0
2, 2594, Note_on_c, 0, 63, 0
2, 2594, Note_on_c, 0, 75, 0
2, 2646, Note_on_c, 0, 71, 80
2, 2646, Note_on_c, 0, 83, 80
2, 2686, Note_on_c, 0, 40, 80
2, 2686, Note_on_c, 0, 52, 80
2, 2733, Note_on_c, 0, 52, 0
2, 2733, Note_on_c, 0, 40, 0
2, 2753, Control_c, 0, 64, 0
2, 2774, Note_on_c, 0, 61, 80
2, 2813, Note_on_c, 0, 59, 80
2, 2813, Note_on_c, 0, 64, 80
2, 2813, Note_on_c, 0, 68, 80
2, 2817, Note_on_c, 0, 61, 0
2, 2838, Note_on_c, 0, 64, 0
2, 2838, Note_on_c, 0, 68, 0
2, 2898, Note_on_c, 0, 56, 80
2, 2900, Note_on_c, 0, 59, 0
2, 2932, Note_on_c, 0, 56, 0
2, 2941, Note_on_c, 0, 39, 80
2, 2941, Note_on_c, 0, 51, 80
2, 2941, Note_on_c, 0, 59, 80
2, 2975, Note_on_c, 0, 83, 0
2, 2975, Note_on_c, 0, 71, 0
2, 2983, Note_on_c, 0, 51, 0
2, 2985, Note_on_c, 0, 39, 0
2, 3016, Note_on_c, 0, 59, 0
2, 3023, Note_on_c, 0, 71, 80
2, 3023, Note_on_c, 0, 75, 80
2, 3023, Note_on_c, 0, 83, 80
2, 3056, Note_on_c, 0, 83, 0
2, 3056, Note_on_c, 0, 75, 0
2, 3056, Note_on_c, 0, 71, 0
2, 3062, Note_on_c, 0, 51, 80
2, 3062, Note_on_c, 0, 54, 80
2, 3062, Note_on_c, 0, 59, 80
2, 3062, Note_on_c, 0, 73, 80
2, 3062, Note_on_c, 0, 76, 80
2, 3062, Note_on_c, 0, 85, 80
2, 3087, Note_on_c, 0, 59, 0
2, 3087, Note_on_c, 0, 51, 0
2, 3087, Note_on_c, 0, 54, 0
2, 3137, Note_on_c, 0, 73, 0
2, 3137, Note_on_c, 0, 76, 0
2, 3137, Note_on_c, 0, 85, 0
2, 3143, Note_on_c, 0, 74, 80
2, 3143, Note_on_c, 0, 77, 80
2, 3143, Note_on_c, 0, 86, 80
2, 3159, Note_on_c, 0, 42, 80
2, 3159, Note_on_c, 0, 54, 80
2, 3159, Note_on_c, 0, 75, 80
2, 3159, Note_on_c, 0, 78, 80
2, 3159, Note_on_c, 0, 87, 80
2, 3168, Note_on_c, 0, 86, 0
2, 3168, Note_on_c, 0, 74, 0
2, 3168, Note_on_c, 0, 77, 0
2, 3207, Note_on_c, 0, 75, 0
2, 3219, Note_on_c, 0, 54, 0
2, 3219, Note_on_c, 0, 42, 0
2, 3240, Note_on_c, 0, 78, 0
2, 3252, Note_on_c, 0, 87, 0
2, 3259, Note_on_c, 0, 71, 80
2, 3259, Note_on_c, 0, 75, 80
2, 3261, Note_on_c, 0, 83, 80
2, 3293, Note_on_c, 0, 75, 0
2, 3293, Note_on_c, 0, 71, 0
2, 3295, Note_on_c, 0, 83, 0
2, 3301, Note_on_c, 0, 76, 80
2, 3301, Note_on_c, 0, 85, 80
2, 3303, Note_on_c, 0, 51, 80
2, 3303, Note_on_c, 0, 54, 80
2, 3303, Note_on_c, 0, 59, 80
2, 3303, Note_on_c, 0, 73, 80
2, 3326, Note_on_c, 0, 59, 0
2, 3326, Note_on_c, 0, 54, 0
2, 3326, Note_on_c, 0, 51, 0
2, 3336, Note_on_c, 0, 76, 0
2, 3336, Note_on_c, 0, 73, 0
2, 3347, Note_on_c, 0, 85, 0
2, 3386, Note_on_c, 0, 75, 80
2, 3386, Note_on_c, 0, 78, 80
2, 3386, Note_on_c, 0, 87, 80
2, 3430, Note_on_c, 0, 30, 80
2, 3432, Note_on_c, 0, 42, 80
2, 3477, Note_on_c, 0, 42, 0
2, 3477, Note_on_c, 0, 30, 0
2, 3498, Note_on_c, 0, 75, 0
2, 3498, Note_on_c, 0, 78, 0
2, 3518, Note_on_c, 0, 70, 80
2, 3518, Note_on_c, 0, 73, 80
2, 3518, Note_on_c, 0, 82, 80
2, 3522, Note_on_c, 0, 87, 0
2, 3530, Note_on_c, 0, 73, 0
2, 3553, Note_on_c, 0, 70, 0
2, 3553, Note_on_c, 0, 82, 0
2, 3559, Note_on_c, 0, 76, 80
2, 3561, Note_on_c, 0, 52, 80
2, 3561, Note_on_c, 0, 54, 80
2, 3561, Note_on_c, 0, 58, 80
2, 3561, Note_on_c, 0, 73, 80
2, 3561, Note_on_c, 0, 85, 80
2, 3582, Note_on_c, 0, 58, 0
2, 3582, Note_on_c, 0, 54, 0
2, 3582, Note_on_c, 0, 52, 0
2, 3681, Note_on_c, 0, 76, 0
2, 3683, Note_on_c, 0, 73, 0
2, 3683, Note_on_c, 0, 85, 0
2, 3690, Note_on_c, 0, 35, 80
2, 3690, Note_on_c, 0, 47, 80
2, 3690, Note_on_c, 0, 71, 80
2, 3690, Note_on_c, 0, 75, 80
2, 3690, Note_on_c, 0, 83, 80
2, 3817, Note_on_c, 0, 54, 80
2, 3817, Note_on_c, 0, 59, 80
2, 3817, Note_on_c, 0, 63, 80
2, 3839, Note_on_c, 0, 63, 0
2, 3839, Note_on_c, 0, 59, 0
2, 3839, Note_on_c, 0, 54, 0
2, 3936, Note_on_c, 0, 54, 80
2, 3936, Note_on_c, 0, 59, 80
2, 3936, Note_on_c, 0, 63, 80
2, 3959, Note_on_c, 0, 63, 0
2, 3959, Note_on_c, 0, 59, 0
2, 3959, Note_on_c, 0, 54, 0
2, 4008, Note_on_c, 0, 75, 0
2, 4008, Note_on_c, 0, 71, 0
2, 4008, Note_on_c, 0, 35, 0
2, 4008, Note_on_c, 0, 47, 0
2, 4010, Note_on_c, 0, 83, 0
2, 4058, Note_on_c, 0, 30, 80
2, 4060, Note_on_c, 0, 42, 80
2, 4060, Note_on_c, 0, 61, 80
2, 4060, Note_on_c, 0, 73, 80
2, 4132, Note_on_c, 0, 73, 0
2, 4132, Note_on_c, 0, 30, 0
2, 4132, Note_on_c, 0, 42, 0
2, 4132, Note_on_c, 0, 61, 0
2, 4139, Note_on_c, 0, 62, 80
2, 4139, Note_on_c, 0, 74, 80
2, 4173, Note_on_c, 0, 74, 0
2, 4175, Note_on_c, 0, 62, 0
2, 4180, Note_on_c, 0, 63, 80
2, 4180, Note_on_c, 0, 66, 80
2, 4180, Note_on_c, 0, 71, 80
2, 4180, Note_on_c, 0, 75, 80
2, 4182, Note_on_c, 0, 35, 80
2, 4182, Note_on_c, 0, 47, 80
2, 4216, Note_on_c, 0, 75, 0
2, 4216, Note_on_c, 0, 71, 0
2, 4216, Note_on_c, 0, 63, 0
2, 4216, Note_on_c, 0, 66, 0
2, 4224, Note_on_c, 0, 47, 0
2, 4224, Note_on_c, 0, 35, 0
2, 4264, Note_on_c, 0, 71, 80
2, 4266, Note_on_c, 0, 83, 80
2, 4309, Note_on_c, 0, 51, 80
2, 4309, Note_on_c, 0, 54, 80
2, 4309, Note_on_c, 0, 59, 80
2, 4332, Note_on_c, 0, 59, 0
2, 4332, Note_on_c, 0, 51, 0
2, 4332, Note_on_c, 0, 54, 0
2, 4377, Note_on_c, 0, 83, 0
2, 4377, Note_on_c, 0, 71, 0
2, 4395, Control_c, 0, 64, 127
2, 4395, Note_on_c, 0, 63, 80
2, 4395, Note_on_c, 0, 75, 80
2, 4431, Note_on_c, 0, 75, 0
2, 4431, Note_on_c, 0, 63, 0
2, 4440, Note_on_c, 0, 42, 80
2, 4440, Note_on_c, 0, 54, 80
2, 4440, Note_on_c, 0, 71, 80
2, 4440, Note_on_c, 0, 83, 80
2, 4485, Note_on_c, 0, 83, 0
2, 4485, Note_on_c, 0, 42, 0
2, 4485, Note_on_c, 0, 54, 0
2, 4485, Note_on_c, 0, 71, 0
2, 4506, Control_c, 0, 64, 0
2, 4565, Note_on_c, 0, 51, 80
2, 4565, Note_on_c, 0, 54, 80
2, 4565, Note_on_c, 0, 57, 80
2, 4565, Note_on_c, 0, 59, 80
2, 4565, Note_on_c, 0, 63, 80
2, 4565, Note_on_c, 0, 75, 80
2, 4588, Note_on_c, 0, 59, 0
2, 4588, Note_on_c, 0, 54, 0
2, 4588, Note_on_c, 0, 51, 0
2, 4590, Note_on_c, 0, 57, 0
2, 4599, Note_on_c, 0, 75, 0
2, 4599, Note_on_c, 0, 63, 0
2, 4653, Note_on_c, 0, 71, 80
2, 4653, Note_on_c, 0, 83, 80
2, 4696, Note_on_c, 0, 40, 80
2, 4696, Note_on_c, 0, 52, 80
2, 4778, Note_on_c, 0, 61, 80
2, 4811, Note_on_c, 0, 61, 0
2, 4811, Note_on_c, 0, 40, 0
2, 4811, Note_on_c, 0, 52, 0
2, 4820, Note_on_c, 0, 64, 80
2, 4820, Note_on_c, 0, 68, 80
2, 4822, Note_on_c, 0, 59, 80
2, 4843, Note_on_c, 0, 68, 0
2, 4843, Note_on_c, 0, 64, 0
2, 4895, Note_on_c, 0, 59, 0
2, 4903, Note_on_c, 0, 56, 80
2, 4937, Note_on_c, 0, 56, 0
2, 4943, Note_on_c, 0, 39, 80
2, 4943, Note_on_c, 0, 51, 80
2, 4943, Note_on_c, 0, 59, 80
2, 5017, Note_on_c, 0, 59, 0
2, 5017, Note_on_c, 0, 39, 0
2, 5017, Note_on_c, 0, 71, 0
2, 5017, Note_on_c, 0, 83, 0
2, 5017, Note_on_c, 0, 51, 0
2, 5065, Note_on_c, 0, 38, 80
2, 5065, Note_on_c, 0, 68, 80
2, 5067, Note_on_c, 0, 50, 80
2, 5067, Note_on_c, 0, 71, 80
2, 5067, Note_on_c, 0, 80, 80
2, 5098, Note_on_c, 0, 71, 0
2, 5139, Note_on_c, 0, 68, 0
2, 5139, Note_on_c, 0, 80, 0
2, 5148, Note_on_c, 0, 66, 80
2, 5148, Note_on_c, 0, 71, 80
2, 5148, Note_on_c, 0, 78, 80
2, 5159, Note_on_c, 0, 71, 0
2, 5180, Note_on_c, 0, 66, 0
2, 5180, Note_on_c, 0, 38, 0
2, 5180, Note_on_c, 0, 50, 0
2, 5180, Note_on_c, 0, 78, 0
2, 5188, Note_on_c, 0, 37, 80
2, 5188, Note_on_c, 0, 49, 80
2, 5188, Note_on_c, 0, 65, 80
2, 5188, Note_on_c, 0, 71, 80
2, 5188, Note_on_c, 0, 77, 80
2, 5233, Note_on_c, 0, 49, 0
2, 5233, Note_on_c, 0, 37, 0
2, 5254, Note_on_c, 0, 71, 0
2, 5254, Note_on_c, 0, 65, 0
2, 5254, Note_on_c, 0, 77, 0
2, 5272, Note_on_c, 0, 68, 80
2, 5272, Note_on_c, 0, 80, 80
2, 5304, Note_on_c, 0, 80, 0
2, 5304, Note_on_c, 0, 68, 0
2, 5311, Note_on_c, 0, 49, 80
2, 5311, Note_on_c, 0, 59, 80
2, 5311, Note_on_c, 0, 71, 80
2, 5313, Note_on_c, 0, 56, 80
2, 5313, Note_on_c, 0, 83, 80
2, 5336, Note_on_c, 0, 56, 0
2, 5336, Note_on_c, 0, 59, 0
2, 5336, Note_on_c, 0, 49, 0
2, 5345, Note_on_c, 0, 71, 0
2, 5345, Note_on_c, 0, 83, 0
2, 5366, Control_c, 0, 64, 127
2, 5395, Note_on_c, 0, 75, 80
2, 5395, Note_on_c, 0, 77, 80
2, 5395, Note_on_c, 0, 80, 80
2, 5395, Note_on_c, 0, 83, 80
2, 5395, Note_on_c, 0, 87, 80
2, 5436, Note_on_c, 0, 41, 80
2, 5448, Note_on_c, 0, 53, 80
2, 5470, Control_c, 0, 64, 0
2, 5480, Note_on_c, 0, 53, 0
2, 5480, Note_on_c, 0, 41, 0
2, 5500, Note_on_c, 0, 77, 0
2, 5500, Note_on_c, 0, 80, 0
2, 5500, Note_on_c, 0, 75, 0
2, 5500, Note_on_c, 0, 87, 0
2, 5500, Note_on_c, 0, 83, 0
2, 5521, Note_on_c, 0, 73, 80
2, 5521, Note_on_c, 0, 85, 80
2, 5554, Note_on_c, 0, 85, 0
2, 5556, Note_on_c, 0, 73, 0
2, 5563, Note_on_c, 0, 49, 80
2, 5563, Note_on_c, 0, 53, 80
2, 5563, Note_on_c, 0, 56, 80
2, 5563, Note_on_c, 0, 59, 80
2, 5563, Note_on_c, 0, 71, 80
2, 5563, Note_on_c, 0, 83, 80
2, 5586, Note_on_c, 0, 59, 0
2, 5586, Note_on_c, 0, 56, 0
2, 5586, Note_on_c, 0, 49, 0
2, 5586, Note_on_c, 0, 53, 0
2, 5627, Note_on_c, 0, 71, 0
2, 5638, Note_on_c, 0, 83, 0
2, 5644, Note_on_c, 0, 68, 80
2, 5644, Note_on_c, 0, 80, 80
2, 5680, Note_on_c, 0, 80, 0
2, 5680, Note_on_c, 0, 68, 0
2, 5688, Note_on_c, 0, 54, 80
2, 5688, Note_on_c, 0, 73, 80
2, 5688, Note_on_c, 0, 76, 80
2, 5688, Note_on_c, 0, 85, 80
2, 5690, Note_on_c, 0, 42, 80
2, 5732, Note_on_c, 0, 42, 0
2, 5732, Note_on_c, 0, 54, 0
2, 5771, Note_on_c, 0, 68, 80
2, 5805, Note_on_c, 0, 68, 0
2, 5810, Note_on_c, 0, 30, 80
2, 5810, Note_on_c, 0, 42, 80
2, 5810, Note_on_c, 0, 56, 80
2, 5810, Note_on_c, 0, 59, 80
2, 5810, Note_on_c, 0, 61, 80
2, 5844, Note_on_c, 0, 61, 0
2, 5844, Note_on_c, 0, 59, 0
2, 5844, Note_on_c, 0, 56, 0
2, 5900, Note_on_c, 0, 52, 80
2, 5900, Note_on_c, 0, 58, 80
2, 5900, Note_on_c, 0, 66, 80
2, 5914, Note_on_c, 0, 30, 0
2, 5914, Note_on_c, 0, 42, 0
2, 5941, Note_on_c, 0, 32, 80
2, 5941, Note_on_c, 0, 44, 80
2, 6003, Note_on_c, 0, 58, 0
2, 6003, Note_on_c, 0, 66, 0
2, 6003, Note_on_c, 0, 76, 0
2, 6003, Note_on_c, 0, 52, 0
2, 6003, Note_on_c, 0, 85, 0
2, 6003, Note_on_c, 0, 73, 0
2, 6036, Note_on_c, 0, 32, 0
2, 6056, Note_on_c, 0, 44, 0
2, 6067, Note_on_c, 0, 34, 80
2, 6067, Note_on_c, 0, 46, 80
2, 6067, Note_on_c, 0, 61, 80
2, 6067, Note_on_c, 0, 73, 80
2, 6129, Note_on_c, 0, 61, 0
2, 6140, Note_on_c, 0, 73, 0
2, 6145, Note_on_c, 0, 74, 80
2, 6147, Note_on_c, 0, 62, 80
2, 6181, Note_on_c, 0, 62, 0
2, 6181, Note_on_c, 0, 34, 0
2, 6181, Note_on_c, 0, 46, 0
2, 6181, Note_on_c, 0, 74, 0
2, 6187, Note_on_c, 0, 75, 80
2, 6189, Note_on_c, 0, 35, 80
2, 6189, Note_on_c, 0, 47, 80
2, 6189, Note_on_c, 0, 63, 80
2, 6189, Note_on_c, 0, 66, 80
2, 6189, Note_on_c, 0, 71, 80
2, 6222, Note_on_c, 0, 71, 0
2, 6222, Note_on_c, 0, 63, 0
2, 6222, Note_on_c, 0, 75, 0
2, 6222, Note_on_c, 0, 66, 0
2, 6231, Note_on_c, 0, 35, 0
2, 6233, Note_on_c, 0, 47, 0
2, 6272, Note_on_c, 0, 71, 80
2, 6283, Note_on_c, 0, 83, 80
2, 6313, Note_on_c, 0, 51, 80
2, 6315, Note_on_c, 0, 54, 80
2, 6317, Note_on_c, 0, 59, 80
2, 6337, Note_on_c, 0, 59, 0
2, 6337, Note_on_c, 0, 51, 0
2, 6337, Note_on_c, 0, 54, 0
2, 6366, Control_c, 0, 64, 127
2, 6379, Note_on_c, 0, 83, 0
2, 6379, Note_on_c, 0, 71, 0
2, 6399, Note_on_c, 0, 63, 80
2, 6399, Note_on_c, 0, 75, 80
2, 6432, Note_on_c, 0, 75, 0
2, 6432, Note_on_c, 0, 63, 0
2, 6439, Control_c, 0, 64, 0
2, 6441, Note_on_c, 0, 42, 80
2, 6441, Note_on_c, 0, 54, 80
2, 6441, Note_on_c, 0, 71, 80
2, 6443, Note_on_c, 0, 83, 80
2, 6486, Note_on_c, 0, 83, 0
2, 6486, Note_on_c, 0, 42, 0
2, 6486, Note_on_c, 0, 54, 0
2, 6486, Note_on_c, 0, 71, 0
2, 6497, Control_c, 0, 64, 127
2, 6509, Control_c, 0, 64, 0
2, 6574, Note_on_c, 0, 51, 80
2, 6574, Note_on_c, 0, 54, 80
2, 6574, Note_on_c, 0, 57, 80
2, 6574, Note_on_c, 0, 59, 80
2, 6574, Note_on_c, 0, 63, 80
2, 6574, Note_on_c, 0, 75, 80
2, 6597, Note_on_c, 0, 59, 0
2, 6597, Note_on_c, 0, 51, 0
2, 6599, Note_on_c, 0, 54, 0
2, 6599, Note_on_c, 0, 57, 0
2, 6605, Note_on_c, 0, 63, 0
2, 6607, Note_on_c, 0, 75, 0
2, 6654, Note_on_c, 0, 71, 80
2, 6654, Note_on_c, 0, 83, 80
2, 6697, Note_on_c, 0, 40, 80
2, 6697, Note_on_c, 0, 52, 80
2, 6743, Note_on_c, 0, 52, 0
2, 6743, Note_on_c, 0, 40, 0
2, 6778, Note_on_c, 0, 61, 80
2, 6811, Note_on_c, 0, 61, 0
2, 6819, Note_on_c, 0, 68, 80
2, 6821, Note_on_c, 0, 59, 80
2, 6821, Note_on_c, 0, 64, 80
2, 6844, Note_on_c, 0, 64, 0
2, 6844, Note_on_c, 0, 68, 0
2, 6898, Note_on_c, 0, 59, 0
2, 6909, Note_on_c, 0, 56, 80
2, 6941, Note_on_c, 0, 56, 0
2, 6948, Note_on_c, 0, 39, 80
2, 6948, Note_on_c, 0, 51, 80
2, 6948, Note_on_c, 0, 59, 80
2, 6982, Note_on_c, 0, 83, 0
2, 6982, Note_on_c, 0, 71, 0
2, 6992, Note_on_c, 0, 51, 0
2, 6992, Note_on_c, 0, 39, 0
2, 7026, Note_on_c, 0, 59, 0
2, 7032, Note_on_c, 0, 71, 80
2, 7032, Note_on_c, 0, 75, 80
2, 7032, Note_on_c, 0, 83, 80
2, 7068, Note_on_c, 0, 83, 0
2, 7068, Note_on_c, 0, 75, 0
2, 7068, Note_on_c, 0, 71, 0
2, 7075, Note_on_c, 0, 51, 80
2, 7075, Note_on_c, 0, 54, 80
2, 7075, Note_on_c, 0, 59, 80
2, 7075, Note_on_c, 0, 73, 80
2, 7075, Note_on_c, 0, 76, 80
2, 7075, Note_on_c, 0, 85, 80
2, 7100, Note_on_c, 0, 59, 0
2, 7100, Note_on_c, 0, 51, 0
2, 7100, Note_on_c, 0, 54, 0
2, 7150, Note_on_c, 0, 73, 0
2, 7150, Note_on_c, 0, 76, 0
2, 7156, Note_on_c, 0, 74, 80
2, 7156, Note_on_c, 0, 77, 80
2, 7156, Note_on_c, 0, 86, 80
2, 7162, Note_on_c, 0, 85, 0
2, 7189, Note_on_c, 0, 74, 0
2, 7189, Note_on_c, 0, 77, 0
2, 7196, Note_on_c, 0, 75, 80
2, 7196, Note_on_c, 0, 78, 80
2, 7196, Note_on_c, 0, 87, 80
2, 7198, Note_on_c, 0, 42, 80
2, 7198, Note_on_c, 0, 54, 80
2, 7201, Note_on_c, 0, 86, 0
2, 7230, Note_on_c, 0, 75, 0
2, 7241, Note_on_c, 0, 42, 0
2, 7241, Note_on_c, 0, 54, 0
2, 7259, Note_on_c, 0, 78, 0
2, 7275, Note_on_c, 0, 71, 80
2, 7275, Note_on_c, 0, 75, 80
2, 7275, Note_on_c, 0, 83, 80
2, 7277, Note_on_c, 0, 87, 0
2, 7298, Note_on_c, 0, 75, 0
2, 7309, Note_on_c, 0, 71, 0
2, 7309, Note_on_c, 0, 83, 0
2, 7318, Note_on_c, 0, 51, 80
2, 7318, Note_on_c, 0, 54, 80
2, 7318, Note_on_c, 0, 59, 80
2, 7318, Note_on_c, 0, 73, 80
2, 7318, Note_on_c, 0, 76, 80
2, 7318, Note_on_c, 0, 85, 80
2, 7341, Note_on_c, 0, 59, 0
2, 7341, Note_on_c, 0, 51, 0
2, 7341, Note_on_c, 0, 54, 0
2, 7349, Note_on_c, 0, 73, 0
2, 7349, Note_on_c, 0, 76, 0
2, 7362, Note_on_c, 0, 85, 0
2, 7368, Control_c, 0, 64, 127
2, 7401, Note_on_c, 0, 75, 80
2, 7401, Note_on_c, 0, 78, 80
2, 7401, Note_on_c, 0, 87, 80
2, 7442, Note_on_c, 0, 42, 80
2, 7444, Note_on_c, 0, 30, 80
2, 7486, Note_on_c, 0, 30, 0
2, 7486, Note_on_c, 0, 42, 0
2, 7514, Note_on_c, 0, 75, 0
2, 7514, Note_on_c, 0, 78, 0
2, 7514, Note_on_c, 0, 87, 0
2, 7521, Note_on_c, 0, 70, 80
2, 7525, Note_on_c, 0, 82, 80
2, 7536, Control_c, 0, 64, 0
2, 7556, Note_on_c, 0, 82, 0
2, 7556, Note_on_c, 0, 70, 0
2, 7562, Note_on_c, 0, 54, 80
2, 7562, Note_on_c, 0, 64, 80
2, 7562, Note_on_c, 0, 73, 80
2, 7564, Note_on_c, 0, 61, 80
2, 7564, Note_on_c, 0, 76, 80
2, 7564, Note_on_c, 0, 85, 80
2, 7566, Note_on_c, 0, 58, 80
2, 7587, Note_on_c, 0, 58, 0
2, 7587, Note_on_c, 0, 64, 0
2, 7587, Note_on_c, 0, 54, 0
2, 7587, Note_on_c, 0, 61, 0
2, 7680, Note_on_c, 0, 76, 0
2, 7682, Note_on_c, 0, 73, 0
2, 7688, Note_on_c, 0, 71, 80
2, 7688, Note_on_c, 0, 78, 80
2, 7688, Note_on_c, 0, 83, 80
2, 7690, Note_on_c, 0, 47, 80
2, 7690, Note_on_c, 0, 59, 80
2, 7690, Note_on_c, 0, 75, 80
2, 7694, Note_on_c, 0, 85, 0
2, 7764, Note_on_c, 0, 59, 0
2, 7773, Note_on_c, 0, 44, 80
2, 7773, Note_on_c, 0, 56, 80
2, 7775, Note_on_c, 0, 47, 0
2, 7807, Note_on_c, 0, 44, 0
2, 7807, Note_on_c, 0, 56, 0
2, 7814, Note_on_c, 0, 42, 80
2, 7814, Note_on_c, 0, 54, 80
2, 7848, Note_on_c, 0, 54, 0
2, 7848, Note_on_c, 0, 42, 0
2, 7897, Note_on_c, 0, 35, 80
2, 7897, Note_on_c, 0, 47, 80
2, 8014, Note_on_c, 0, 78, 0
2, 8014, Note_on_c, 0, 83, 0
2, 8014, Note_on_c, 0, 75, 0
2, 8016, Note_on_c, 0, 71, 0
2, 8016, Note_on_c, 0, 35, 0
2, 8016, Note_on_c, 0, 47, 0
2, 8024, Note_on_c, 0, 42, 80
2, 8024, Note_on_c, 0, 54, 80
2, 8058, Note_on_c, 0, 54, 0
2, 8058, Note_on_c, 0, 42, 0
2, 8064, Note_on_c, 0, 44, 80
2, 8064, Note_on_c, 0, 71, 80
2, 8064, Note_on_c, 0, 83, 80
2, 8075, Note_on_c, 0, 56, 80
2, 8131, Note_on_c, 0, 56, 0
2, 8131, Note_on_c, 0, 44, 0
2, 8131, Note_on_c, 0, 71, 0
2, 8139, Note_on_c, 0, 83, 0
2, 8148, Note_on_c, 0, 46, 80
2, 8148, Note_on_c, 0, 58, 80
2, 8148, Note_on_c, 0, 73, 80
2, 8148, Note_on_c, 0, 85, 80
2, 8182, Note_on_c, 0, 85, 0
2, 8182, Note_on_c, 0, 46, 0
2, 8182, Note_on_c, 0, 58, 0
2, 8182, Note_on_c, 0, 73, 0
2, 8188, Note_on_c, 0, 47, 80
2, 8188, Note_on_c, 0, 59, 80
2, 8188, Note_on_c, 0, 75, 80
2, 8188, Note_on_c, 0, 78, 80
2, 8188, Note_on_c, 0, 83, 80
2, 8188, Note_on_c, 0, 87, 80
2, 8222, Note_on_c, 0, 83, 0
2, 8222, Note_on_c, 0, 78, 0
2, 8222, Note_on_c, 0, 75, 0
2, 8231, Note_on_c, 0, 47, 0
2, 8231, Note_on_c, 0, 87, 0
2, 8232, Note_on_c, 0, 59, 0
2, 8270, Note_on_c, 0, 71, 80
2, 8270, Note_on_c, 0, 83, 80
2, 8304, Note_on_c, 0, 83, 0
2, 8304, Note_on_c, 0, 71, 0
2, 8310, Note_on_c, 0, 63, 80
2, 8310, Note_on_c, 0, 73, 80
2, 8310, Note_on_c, 0, 85, 80
2, 8312, Note_on_c, 0, 54, 80
2, 8312, Note_on_c, 0, 59, 80
2, 8333, Note_on_c, 0, 63, 0
2, 8333, Control_c, 0, 64, 127
2, 8335, Note_on_c, 0, 54, 0
2, 8337, Note_on_c, 0, 59, 0
2, 8344, Note_on_c, 0, 73, 0
2, 8354, Note_on_c, 0, 85, 0
2, 8392, Note_on_c, 0, 75, 80
2, 8392, Note_on_c, 0, 87, 80
2, 8431, Note_on_c, 0, 57, 80
2, 8444, Note_on_c, 0, 45, 80
2, 8465, Control_c, 0, 64, 0
2, 8475, Note_on_c, 0, 45, 0
2, 8475, Note_on_c, 0, 57, 0
2, 8508, Note_on_c, 0, 75, 0
2, 8515, Note_on_c, 0, 71, 80
2, 8515, Note_on_c, 0, 83, 80
2, 8519, Note_on_c, 0, 87, 0
2, 8549, Note_on_c, 0, 83, 0
2, 8549, Note_on_c, 0, 71, 0
2, 8558, Note_on_c, 0, 54, 80
2, 8558, Note_on_c, 0, 57, 80
2, 8558, Note_on_c, 0, 59, 80
2, 8558, Note_on_c, 0, 63, 80
2, 8558, Note_on_c, 0, 73, 80
2, 8558, Note_on_c, 0, 85, 80
2, 8579, Note_on_c, 0, 63, 0
2, 8581, Note_on_c, 0, 59, 0
2, 8581, Note_on_c, 0, 54, 0
2, 8581, Note_on_c, 0, 57, 0
2, 8631, Note_on_c, 0, 73, 0
2, 8638, Note_on_c, 0, 71, 80
2, 8638, Note_on_c, 0, 83, 80
2, 8640, Note_on_c, 0, 85, 0
2, 8650, Note_on_c, 0, 83, 0
2, 8673, Note_on_c, 0, 71, 0
2, 8679, Note_on_c, 0, 75, 80
2, 8679, Note_on_c, 0, 80, 80
2, 8679, Note_on_c, 0, 83, 80
2, 8679, Note_on_c, 0, 87, 80
2, 8681, Note_on_c, 0, 44, 80
2, 8681, Note_on_c, 0, 56, 80
2, 8713, Note_on_c, 0, 87, 0
2, 8715, Note_on_c, 0, 83, 0
2, 8715, Note_on_c, 0, 75, 0
2, 8715, Note_on_c, 0, 80, 0
2, 8726, Note_on_c, 0, 56, 0
2, 8726, Note_on_c, 0, 44, 0
2, 8765, Note_on_c, 0, 71, 80
2, 8765, Note_on_c, 0, 83, 80
2, 8801, Note_on_c, 0, 83, 0
2, 8801, Note_on_c, 0, 71, 0
2, 8807, Note_on_c, 0, 64, 80
2, 8807, Note_on_c, 0, 73, 80
2, 8807, Note_on_c, 0, 85, 80
2, 8808, Note_on_c, 0, 56, 80
2, 8808, Note_on_c, 0, 59, 80
2, 8832, Note_on_c, 0, 59, 0
2, 8832, Note_on_c, 0, 64, 0
2, 8832, Note_on_c, 0, 56, 0
2, 8842, Note_on_c, 0, 73, 0
2, 8853, Note_on_c, 0, 85, 0
2, 8892, Note_on_c, 0, 75, 80
2, 8892, Note_on_c, 0, 79, 80
2, 8892, Note_on_c, 0, 83, 80
2, 8892, Note_on_c, 0, 87, 80
2, 8894, Control_c, 0, 64, 127
2, 8937, Note_on_c, 0, 43, 80
2, 8937, Note_on_c, 0, 55, 80
2, 8980, Note_on_c, 0, 83, 0
2, 8982, Note_on_c, 0, 43, 0
2, 8982, Note_on_c, 0, 55, 0
2, 9002, Control_c, 0, 64, 0
2, 9013, Note_on_c, 0, 79, 0
2, 9013, Note_on_c, 0, 75, 0
2, 9022, Note_on_c, 0, 71, 80
2, 9022, Note_on_c, 0, 83, 80
2, 9024, Note_on_c, 0, 87, 0
2, 9056, Note_on_c, 0, 71, 0
2, 9067, Note_on_c, 0, 55, 80
2, 9067, Note_on_c, 0, 59, 80
2, 9067, Note_on_c, 0, 61, 80
2, 9067, Note_on_c, 0, 64, 80
2, 9067, Note_on_c, 0, 73, 80
2, 9069, Note_on_c, 0, 83, 0
2, 9075, Note_on_c, 0, 85, 80
2, 9088, Note_on_c, 0, 55, 0
2, 9088, Note_on_c, 0, 59, 0
2, 9090, Note_on_c, 0, 61, 0
2, 9098, Note_on_c, 0, 64, 0
2, 9144, Note_on_c, 0, 73, 0
2, 9152, Note_on_c, 0, 71, 80
2, 9152, Note_on_c, 0, 83, 80
2, 9154, Note_on_c, 0, 85, 0
2, 9188, Note_on_c, 0, 71, 0
2, 9193, Note_on_c, 0, 75, 80
2, 9193, Note_on_c, 0, 78, 80
2, 9193, Note_on_c, 0, 87, 80
2, 9193, Note_on_c, 0, 42, 80
2, 9193, Note_on_c, 0, 54, 80
2, 9227, Note_on_c, 0, 78, 0
2, 9227, Note_on_c, 0, 75, 0
2, 9229, Note_on_c, 0, 83, 0
2, 9238, Note_on_c, 0, 87, 0
2, 9240, Note_on_c, 0, 54, 0
2, 9240, Note_on_c, 0, 42, 0
2, 9281, Note_on_c, 0, 71, 80
2, 9281, Note_on_c, 0, 75, 80
2, 9281, Note_on_c, 0, 83, 80
2, 9314, Note_on_c, 0, 83, 0
2, 9316, Note_on_c, 0, 75, 0
2, 9316, Note_on_c, 0, 71, 0
2, 9322, Note_on_c, 0, 85, 80
2, 9324, Note_on_c, 0, 51, 80
2, 9324, Note_on_c, 0, 54, 80
2, 9324, Note_on_c, 0, 59, 80
2, 9324, Note_on_c, 0, 73, 80
2, 9324, Note_on_c, 0, 76, 80
2, 9347, Note_on_c, 0, 59, 0
2, 9347, Note_on_c, 0, 54, 0
2, 9347, Note_on_c, 0, 51, 0
2, 9358, Note_on_c, 0, 76, 0
2, 9358, Note_on_c, 0, 73, 0
2, 9366, Note_on_c, 0, 85, 0
2, 9377, Control_c, 0, 64, 127
2, 9406, Note_on_c, 0, 75, 80
2, 9406, Note_on_c, 0, 78, 80
2, 9406, Note_on_c, 0, 87, 80
2, 9447, Note_on_c, 0, 30, 80
2, 9447, Note_on_c, 0, 42, 80
2, 9488, Note_on_c, 0, 42, 0
2, 9490, Note_on_c, 0, 30, 0
2, 9511, Control_c, 0, 64, 0
2, 9518, Note_on_c, 0, 75, 0
2, 9518, Note_on_c, 0, 78, 0
2, 9518, Note_on_c, 0, 87, 0
2, 9525, Note_on_c, 0, 70, 80
2, 9525, Note_on_c, 0, 73, 80
2, 9525, Note_on_c, 0, 82, 80
2, 9539, Note_on_c, 0, 73, 0
2, 9560, Note_on_c, 0, 70, 0
2, 9566, Note_on_c, 0, 85, 80
2, 9568, Note_on_c, 0, 54, 80
2, 9568, Note_on_c, 0, 58, 80
2, 9568, Note_on_c, 0, 61, 80
2, 9568, Note_on_c, 0, 64, 80
2, 9568, Note_on_c, 0, 73, 80
2, 9568, Note_on_c, 0, 76, 80
2, 9570, Note_on_c, 0, 82, 0
2, 9590, Note_on_c, 0, 61, 0
2, 9590, Note_on_c, 0, 58, 0
2, 9590, Note_on_c, 0, 54, 0
2, 9590, Note_on_c, 0, 64, 0
2, 9681, Note_on_c, 0, 76, 0
2, 9681, Note_on_c, 0, 73, 0
2, 9688, Note_on_c, 0, 71, 80
2, 9688, Note_on_c, 0, 75, 80
2, 9688, Note_on_c, 0, 78, 80
2, 9688, Note_on_c, 0, 83, 80
2, 9690, Note_on_c, 0, 47, 80
2, 9690, Note_on_c, 0, 59, 80
2, 9692, Note_on_c, 0, 85, 0
2, 9762, Note_on_c, 0, 47, 0
2, 9762, Note_on_c, 0, 59, 0
2, 9768, Note_on_c, 0, 41, 80
2, 9768, Note_on_c, 0, 53, 80
2, 9802, Note_on_c, 0, 53, 0
2, 9802, Note_on_c, 0, 41, 0
2, 9809, Note_on_c, 0, 42, 80
2, 9809, Note_on_c, 0, 54, 80
2, 9846, Note_on_c, 0, 54, 0
2, 9846, Note_on_c, 0, 42, 0
2, 9896, Note_on_c, 0, 35, 80
2, 9896, Note_on_c, 0, 47, 80
2, 9941, Note_on_c, 0, 83, 0
2, 9962, Note_on_c, 0, 75, 0
2, 10014, Note_on_c, 0, 78, 0
2, 10014, Note_on_c, 0, 71, 0
2, 10014, Note_on_c, 0, 47, 0
2, 10014, Note_on_c, 0, 35, 0
2, 10020, Note_on_c, 0, 87, 80
2, 10022, Note_on_c, 0, 75, 80
2, 10022, Note_on_c, 0, 83, 80
2, 10057, Note_on_c, 0, 83, 0
2, 10057, Note_on_c, 0, 75, 0
2, 10064, Note_on_c, 0, 85, 80
2, 10066, Note_on_c, 0, 76, 80
2, 10066, Note_on_c, 0, 88, 80
2, 10068, Note_on_c, 0, 87, 0
2, 10143, Note_on_c, 0, 88, 0
2, 10149, Note_on_c, 0, 86, 80
2, 10149, Note_on_c, 0, 89, 80
2, 10151, Note_on_c, 0, 77, 80
2, 10152, Note_on_c, 0, 76, 0
2, 10154, Note_on_c, 0, 85, 0
2, 10185, Note_on_c, 0, 89, 0
2, 10185, Note_on_c, 0, 86, 0
2, 10185, Note_on_c, 0, 77, 0
2, 10194, Note_on_c, 0, 35, 80
2, 10194, Note_on_c, 0, 47, 80
2, 10194, Note_on_c, 0, 90, 80
2, 10204, Note_on_c, 0, 78, 80
2, 10204, Note_on_c, 0, 87, 80
2, 10267, Note_on_c, 0, 78, 0
2, 10269, Note_on_c, 0, 90, 0
2, 10269, Note_on_c, 0, 87, 0
2, 10269, Note_on_c, 0, 47, 0
2, 10277, Note_on_c, 0, 35, 0
2, 10304, Note_on_c, 0, 87, 80
2, 10304, Note_on_c, 0, 92, 80
2, 10313, Note_on_c, 0, 54, 80
2, 10313, Note_on_c, 0, 59, 80
2, 10315, Note_on_c, 0, 63, 80
2, 10315, Note_on_c, 0, 80, 80
2, 10327, Note_on_c, 0, 63, 0
2, 10338, Note_on_c, 0, 59, 0
2, 10338, Note_on_c, 0, 54, 0
2, 10346, Note_on_c, 0, 87, 0
2, 10346, Note_on_c, 0, 80, 0
2, 10346, Note_on_c, 0, 92, 0
2, 10384, Note_on_c, 0, 87, 80
2, 10384, Note_on_c, 0, 90, 80
2, 10394, Note_on_c, 0, 78, 80
2, 10436, Note_on_c, 0, 42, 80
2, 10438, Note_on_c, 0, 54, 80
2, 10468, Note_on_c, 0, 87, 0
2, 10477, Note_on_c, 0, 42, 0
2, 10477, Note_on_c, 0, 54, 0
2, 10506, Note_on_c, 0, 78, 0
2, 10506, Note_on_c, 0, 90, 0
2, 10512, Note_on_c, 0, 75, 80
2, 10512, Note_on_c, 0, 83, 80
2, 10512, Note_on_c, 0, 87, 80
2, 10545, Note_on_c, 0, 87, 0
2, 10545, Note_on_c, 0, 83, 0
2, 10545, Note_on_c, 0, 75, 0
2, 10552, Note_on_c, 0, 54, 80
2, 10552, Note_on_c, 0, 59, 80
2, 10552, Note_on_c, 0, 63, 80
2, 10552, Note_on_c, 0, 76, 80
2, 10552, Note_on_c, 0, 85, 80
2, 10552, Note_on_c, 0, 88, 80
2, 10575, Note_on_c, 0, 63, 0
2, 10577, Note_on_c, 0, 54, 0
2, 10577, Note_on_c, 0, 59, 0
2, 10624, Note_on_c, 0, 76, 0
2, 10624, Note_on_c, 0, 85, 0
2, 10631, Note_on_c, 0, 77, 80
2, 10631, Note_on_c, 0, 86, 80
2, 10631, Note_on_c, 0, 89, 80
2, 10634, Note_on_c, 0, 88, 0
2, 10668, Note_on_c, 0, 77, 0
2, 10668, Note_on_c, 0, 86, 0
2, 10668, Note_on_c, 0, 89, 0
2, 10674, Note_on_c, 0, 35, 80
2, 10674, Note_on_c, 0, 47, 80
2, 10674, Note_on_c, 0, 78, 80
2, 10674, Note_on_c, 0, 87, 80
2, 10674, Note_on_c, 0, 90, 80
2, 10719, Note_on_c, 0, 90, 0
2, 10719, Note_on_c, 0, 35, 0
2, 10719, Note_on_c, 0, 78, 0
2, 10719, Note_on_c, 0, 47, 0
2, 10728, Note_on_c, 0, 87, 0
2, 10802, Note_on_c, 0, 54, 80
2, 10802, Note_on_c, 0, 80, 80
2, 10802, Note_on_c, 0, 87, 80
2, 10802, Note_on_c, 0, 92, 80
2, 10804, Note_on_c, 0, 59, 80
2, 10804, Note_on_c, 0, 63, 80
2, 10825, Note_on_c, 0, 63, 0
2, 10825, Note_on_c, 0, 54, 0
2, 10825, Note_on_c, 0, 59, 0
2, 10846, Note_on_c, 0, 87, 0
2, 10846, Note_on_c, 0, 92, 0
2, 10848, Note_on_c, 0, 80, 0
2, 10887, Note_on_c, 0, 78, 80
2, 10887, Note_on_c, 0, 90, 80
2, 10889, Note_on_c, 0, 87, 80
2, 10891, Control_c, 0, 64, 127
2, 10930, Note_on_c, 0, 30, 80
2, 10930, Note_on_c, 0, 42, 80
2, 10975, Note_on_c, 0, 42, 0
2, 10975, Note_on_c, 0, 87, 0
2, 10975, Note_on_c, 0, 30, 0
2, 11008, Note_on_c, 0, 78, 0
2, 11015, Note_on_c, 0, 75, 80
2, 11015, Note_on_c, 0, 87, 80
2, 11016, Note_on_c, 0, 90, 0
2, 11029, Control_c, 0, 64, 0
2, 11050, Note_on_c, 0, 75, 0
2, 11059, Note_on_c, 0, 54, 80
2, 11059, Note_on_c, 0, 59, 80
2, 11059, Note_on_c, 0, 63, 80
2, 11059, Note_on_c, 0, 71, 80
2, 11059, Note_on_c, 0, 83, 80
2, 11061, Note_on_c, 0, 87, 0
2, 11082, Note_on_c, 0, 63, 0
2, 11082, Note_on_c, 0, 54, 0
2, 11082, Note_on_c, 0, 59, 0
2, 11125, Note_on_c, 0, 71, 0
2, 11136, Note_on_c, 0, 83, 0
2, 11141, Note_on_c, 0, 78, 80
2, 11143, Note_on_c, 0, 66, 80
2, 11179, Note_on_c, 0, 66, 0
2, 11179, Note_on_c, 0, 78, 0
2, 11189, Note_on_c, 0, 40, 80
2, 11189, Note_on_c, 0, 68, 80
2, 11189, Note_on_c, 0, 71, 80
2, 11189, Note_on_c, 0, 76, 80
2, 11189, Note_on_c, 0, 80, 80
2, 11198, Note_on_c, 0, 28, 80
2, 11231, Note_on_c, 0, 28, 0
2, 11231, Note_on_c, 0, 40, 0
2, 11259, Note_on_c, 0, 76, 0
2, 11261, Note_on_c, 0, 68, 0
2, 11261, Note_on_c, 0, 71, 0
2, 11261, Note_on_c, 0, 80, 0
2, 11270, Note_on_c, 0, 70, 80
2, 11270, Note_on_c, 0, 82, 80
2, 11303, Note_on_c, 0, 82, 0
2, 11303, Note_on_c, 0, 70, 0
2, 11311, Note_on_c, 0, 56, 80
2, 11311, Note_on_c, 0, 59, 80
2, 11311, Note_on_c, 0, 64, 80
2, 11311, Note_on_c, 0, 71, 80
2, 11311, Note_on_c, 0, 76, 80
2, 11311, Note_on_c, 0, 80, 80
2, 11311, Note_on_c, 0, 83, 80
2, 11336, Note_on_c, 0, 64, 0
2, 11336, Note_on_c, 0, 56, 0
2, 11336, Note_on_c, 0, 59, 0
2, 11384, Note_on_c, 0, 76, 0
2, 11384, Note_on_c, 0, 71, 0
2, 11384, Note_on_c, 0, 80, 0
2, 11384, Note_on_c, 0, 83, 0
2, 11390, Note_on_c, 0, 85, 80
2, 11392, Note_on_c, 0, 73, 80
2, 11427, Note_on_c, 0, 73, 0
2, 11433, Note_on_c, 0, 40, 80
2, 11433, Note_on_c, 0, 52, 80
2, 11433, Note_on_c, 0, 75, 80
2, 11433, Note_on_c, 0, 87, 80
2, 11435, Note_on_c, 0, 80, 80
2, 11435, Note_on_c, 0, 83, 80
2, 11437, Note_on_c, 0, 85, 0
2, 11478, Note_on_c, 0, 40, 0
2, 11478, Note_on_c, 0, 52, 0
2, 11507, Note_on_c, 0, 87, 0
2, 11507, Note_on_c, 0, 75, 0
2, 11507, Note_on_c, 0, 80, 0
2, 11507, Note_on_c, 0, 83, 0
2, 11514, Note_on_c, 0, 73, 80
2, 11514, Note_on_c, 0, 85, 80
2, 11549, Note_on_c, 0, 85, 0
2, 11549, Note_on_c, 0, 73, 0
2, 11556, Note_on_c, 0, 64, 80
2, 11556, Note_on_c, 0, 71, 80
2, 11556, Note_on_c, 0, 76, 80
2, 11556, Note_on_c, 0, 79, 80
2, 11556, Note_on_c, 0, 83, 80
2, 11558, Note_on_c, 0, 55, 80
2, 11558, Note_on_c, 0, 59, 80
2, 11558, Note_on_c, 0, 61, 80
2, 11579, Note_on_c, 0, 61, 0
2, 11579, Note_on_c, 0, 59, 0
2, 11579, Note_on_c, 0, 64, 0
2, 11579, Note_on_c, 0, 55, 0
2, 11618, Note_on_c, 0, 76, 0
2, 11620, Note_on_c, 0, 83, 0
2, 11620, Note_on_c, 0, 79, 0
2, 11620, Note_on_c, 0, 71, 0
2, 11637, Note_on_c, 0, 73, 80
2, 11637, Note_on_c, 0, 85, 80
2, 11670, Note_on_c, 0, 85, 0
2, 11670, Note_on_c, 0, 73, 0
2, 11677, Note_on_c, 0, 39, 80
2, 11677, Note_on_c, 0, 51, 80
2, 11677, Note_on_c, 0, 66, 80
2, 11677, Note_on_c, 0, 71, 80
2, 11677, Note_on_c, 0, 75, 80
2, 11677, Note_on_c, 0, 78, 80
2, 11710, Note_on_c, 0, 75, 0
2, 11720, Note_on_c, 0, 51, 0
2, 11722, Note_on_c, 0, 39, 0
2, 11751, Note_on_c, 0, 71, 0
2, 11751, Note_on_c, 0, 78, 0
2, 11751, Note_on_c, 0, 66, 0
2, 11758, Note_on_c, 0, 75, 80
2, 11758, Note_on_c, 0, 87, 80
2, 11790, Note_on_c, 0, 76, 80
2, 11794, Note_on_c, 0, 87, 0
2, 11794, Note_on_c, 0, 75, 0
2, 11801, Note_on_c, 0, 54, 80
2, 11801, Note_on_c, 0, 59, 80
2, 11801, Note_on_c, 0, 63, 80
2, 11801, Note_on_c, 0, 88, 80
2, 11824, Note_on_c, 0, 63, 0
2, 11824, Note_on_c, 0, 59, 0
2, 11826, Note_on_c, 0, 54, 0
2, 11855, Control_c, 0, 64, 127
2, 11865, Note_on_c, 0, 76, 0
2, 11885, Note_on_c, 0, 78, 80
2, 11885, Note_on_c, 0, 90, 80
2, 11889, Note_on_c, 0, 88, 0
2, 11920, Note_on_c, 0, 90, 0
2, 11920, Note_on_c, 0, 78, 0
2, 11927, Note_on_c, 0, 80, 80
2, 11927, Note_on_c, 0, 92, 80
2, 11928, Note_on_c, 0, 30, 80
2, 11928, Note_on_c, 0, 42, 80
2, 11974, Note_on_c, 0, 42, 0
2, 11974, Note_on_c, 0, 30, 0
2, 12004, Note_on_c, 0, 80, 0
2, 12011, Note_on_c, 0, 90, 80
2, 12013, Note_on_c, 0, 78, 80
2, 12015, Note_on_c, 0, 92, 0
2, 12025, Control_c, 0, 64, 0
2, 12047, Note_on_c, 0, 78, 0
2, 12053, Note_on_c, 0, 63, 80
2, 12053, Note_on_c, 0, 75, 80
2, 12053, Note_on_c, 0, 87, 80
2, 12055, Note_on_c, 0, 54, 80
2, 12055, Note_on_c, 0, 59, 80
2, 12057, Note_on_c, 0, 90, 0
2, 12078, Note_on_c, 0, 63, 0
2, 12078, Note_on_c, 0, 59, 0
2, 12080, Note_on_c, 0, 54, 0
2, 12134, Note_on_c, 0, 75, 0
2, 12141, Note_on_c, 0, 76, 80
2, 12141, Note_on_c, 0, 88, 80
2, 12143, Note_on_c, 0, 87, 0
2, 12175, Note_on_c, 0, 76, 0
2, 12182, Note_on_c, 0, 78, 80
2, 12182, Note_on_c, 0, 87, 80
2, 12182, Note_on_c, 0, 90, 80
2, 12184, Note_on_c, 0, 35, 80
2, 12184, Note_on_c, 0, 47, 80
2, 12186, Note_on_c, 0, 88, 0
2, 12227, Note_on_c, 0, 87, 0
2, 12227, Note_on_c, 0, 90, 0
2, 12227, Note_on_c, 0, 78, 0
2, 12227, Note_on_c, 0, 47, 0
2, 12227, Note_on_c, 0, 35, 0
2, 12308, Note_on_c, 0, 87, 80
2, 12308, Note_on_c, 0, 92, 80
2, 12310, Note_on_c, 0, 54, 80
2, 12310, Note_on_c, 0, 59, 80
2, 12310, Note_on_c, 0, 63, 80
2, 12310, Note_on_c, 0, 80, 80
2, 12333, Note_on_c, 0, 63, 0
2, 12333, Note_on_c, 0, 59, 0
2, 12335, Note_on_c, 0, 54, 0
2, 12341, Note_on_c, 0, 87, 0
2, 12341, Note_on_c, 0, 80, 0
2, 12341, Note_on_c, 0, 92, 0
2, 12391, Note_on_c, 0, 78, 80
2, 12391, Note_on_c, 0, 87, 80
2, 12391, Note_on_c, 0, 90, 80
2, 12432, Note_on_c, 0, 42, 80
2, 12432, Note_on_c, 0, 54, 80
2, 12466, Note_on_c, 0, 87, 0
2, 12477, Note_on_c, 0, 42, 0
2, 12477, Note_on_c, 0, 54, 0
2, 12507, Note_on_c, 0, 78, 0
2, 12509, Note_on_c, 0, 90, 0
2, 12513, Note_on_c, 0, 75, 80
2, 12513, Note_on_c, 0, 87, 80
2, 12515, Note_on_c, 0, 83, 80
2, 12548, Note_on_c, 0, 83, 0
2, 12548, Note_on_c, 0, 87, 0
2, 12548, Note_on_c, 0, 75, 0
2, 12554, Note_on_c, 0, 54, 80
2, 12554, Note_on_c, 0, 59, 80
2, 12554, Note_on_c, 0, 63, 80
2, 12554, Note_on_c, 0, 85, 80
2, 12554, Note_on_c, 0, 88, 80
2, 12556, Note_on_c, 0, 76, 80
2, 12577, Note_on_c, 0, 63, 0
2, 12579, Note_on_c, 0, 54, 0
2, 12579, Note_on_c, 0, 59, 0
2, 12629, Note_on_c, 0, 76, 0
2, 12636, Note_on_c, 0, 77, 80
2, 12636, Note_on_c, 0, 86, 80
2, 12636, Note_on_c, 0, 89, 80
2, 12640, Note_on_c, 0, 88, 0
2, 12640, Note_on_c, 0, 85, 0
2, 12671, Note_on_c, 0, 86, 0
2, 12671, Note_on_c, 0, 77, 0
2, 12671, Note_on_c, 0, 89, 0
2, 12677, Note_on_c, 0, 78, 80
2, 12677, Note_on_c, 0, 87, 80
2, 12677, Note_on_c, 0, 90, 80
2, 12679, Note_on_c, 0, 35, 80
2, 12679, Note_on_c, 0, 47, 80
2, 12720, Note_on_c, 0, 90, 0
2, 12720, Note_on_c, 0, 78, 0
2, 12720, Note_on_c, 0, 87, 0
2, 12722, Note_on_c, 0, 35, 0
2, 12722, Note_on_c, 0, 47, 0
2, 12799, Note_on_c, 0, 92, 80
2, 12801, Note_on_c, 0, 54, 80
2, 12801, Note_on_c, 0, 59, 80
2, 12801, Note_on_c, 0, 63, 80
2, 12801, Note_on_c, 0, 80, 80
2, 12801, Note_on_c, 0, 87, 80
2, 12822, Note_on_c, 0, 63, 0
2, 12824, Note_on_c, 0, 59, 0
2, 12824, Note_on_c, 0, 54, 0
2, 12833, Note_on_c, 0, 92, 0
2, 12833, Note_on_c, 0, 80, 0
2, 12833, Note_on_c, 0, 87, 0
2, 12854, Control_c, 0, 64, 127
2, 12883, Note_on_c, 0, 87, 80
2, 12883, Note_on_c, 0, 90, 80
2, 12885, Note_on_c, 0, 78, 80
2, 12926, Note_on_c, 0, 39, 80
2, 12926, Note_on_c, 0, 51, 80
2, 12960, Control_c, 0, 64, 0
2, 12961, Note_on_c, 0, 78, 0
2, 12961, Note_on_c, 0, 90, 0
2, 13003, Note_on_c, 0, 87, 0
2, 13011, Note_on_c, 0, 78, 80
2, 13011, Note_on_c, 0, 90, 80
2, 13047, Note_on_c, 0, 90, 0
2, 13047, Note_on_c, 0, 78, 0
2, 13049, Note_on_c, 0, 51, 0
2, 13049, Note_on_c, 0, 39, 0
2, 13056, Note_on_c, 0, 38, 80
2, 13056, Note_on_c, 0, 50, 80
2, 13056, Note_on_c, 0, 80, 80
2, 13056, Note_on_c, 0, 92, 80
2, 13130, Note_on_c, 0, 92, 0
2, 13130, Note_on_c, 0, 80, 0
2, 13132, Note_on_c, 0, 50, 0
2, 13132, Note_on_c, 0, 38, 0
2, 13139, Note_on_c, 0, 81, 80
2, 13139, Note_on_c, 0, 93, 80
2, 13173, Note_on_c, 0, 93, 0
2, 13173, Note_on_c, 0, 81, 0
2, 13181, Note_on_c, 0, 37, 80
2, 13181, Note_on_c, 0, 49, 80
2, 13181, Note_on_c, 0, 58, 80
2, 13181, Note_on_c, 0, 82, 80
2, 13181, Note_on_c, 0, 85, 80
2, 13181, Note_on_c, 0, 90, 80
2, 13181, Note_on_c, 0, 94, 80
2, 13215, Note_on_c, 0, 94, 0
2, 13215, Note_on_c, 0, 85, 0
2, 13215, Note_on_c, 0, 82, 0
2, 13215, Note_on_c, 0, 90, 0
2, 13225, Note_on_c, 0, 37, 0
2, 13225, Note_on_c, 0, 49, 0
2, 13263, Note_on_c, 0, 90, 80
2, 13263, Note_on_c, 0, 94, 80
2, 13265, Note_on_c, 0, 82, 80
2, 13265, Note_on_c, 0, 85, 80
2, 13308, Note_on_c, 0, 61, 80
2, 13308, Note_on_c, 0, 66, 80
2, 13308, Note_on_c, 0, 70, 80
2, 13328, Note_on_c, 0, 94, 0
2, 13330, Note_on_c, 0, 70, 0
2, 13330, Note_on_c, 0, 66, 0
2, 13332, Note_on_c, 0, 61, 0
2, 13341, Note_on_c, 0, 82, 0
2, 13341, Note_on_c, 0, 85, 0
2, 13341, Note_on_c, 0, 90, 0
2, 13386, Note_on_c, 0, 58, 0
2, 13392, Note_on_c, 0, 82, 80
2, 13392, Note_on_c, 0, 89, 80
2, 13392, Note_on_c, 0, 94, 80
2, 13392, Note_on_c, 0, 85, 80
2, 13394, Note_on_c, 0, 61, 80
2, 13436, Note_on_c, 0, 37, 80
2, 13436, Note_on_c, 0, 49, 80
2, 13481, Note_on_c, 0, 49, 0
2, 13481, Note_on_c, 0, 37, 0
2, 13512, Note_on_c, 0, 89, 0
2, 13512, Note_on_c, 0, 94, 0
2, 13512, Note_on_c, 0, 82, 0
2, 13512, Note_on_c, 0, 85, 0
2, 13513, Note_on_c, 0, 61, 0
2, 13520, Note_on_c, 0, 92, 80
2, 13522, Note_on_c, 0, 80, 80
2, 13553, Note_on_c, 0, 92, 0
2, 13555, Note_on_c, 0, 80, 0
2, 13561, Note_on_c, 0, 89, 80
2, 13563, Note_on_c, 0, 59, 80
2, 13563, Note_on_c, 0, 61, 80
2, 13563, Note_on_c, 0, 77, 80
2, 13563, Note_on_c, 0, 83, 80
2, 13565, Note_on_c, 0, 65, 80
2, 13588, Note_on_c, 0, 65, 0
2, 13588, Note_on_c, 0, 61, 0
2, 13638, Note_on_c, 0, 77, 0
2, 13638, Note_on_c, 0, 83, 0
2, 13638, Note_on_c, 0, 89, 0
2, 13644, Note_on_c, 0, 85, 80
2, 13646, Note_on_c, 0, 73, 80
2, 13664, Note_on_c, 0, 85, 0
2, 13680, Note_on_c, 0, 73, 0
2, 13680, Note_on_c, 0, 59, 0
2, 13687, Note_on_c, 0, 52, 80
2, 13687, Note_on_c, 0, 58, 80
2, 13687, Note_on_c, 0, 78, 80
2, 13687, Note_on_c, 0, 82, 80
2, 13687, Note_on_c, 0, 85, 80
2, 13687, Note_on_c, 0, 90, 80
2, 13689, Note_on_c, 0, 42, 80
2, 13800, Note_on_c, 0, 42, 0
2, 13800, Note_on_c, 0, 52, 0
2, 13800, Note_on_c, 0, 58, 0
2, 13809, Note_on_c, 0, 40, 80
2, 13809, Note_on_c, 0, 56, 80
2, 13811, Note_on_c, 0, 85, 0
2, 13811, Note_on_c, 0, 90, 0
2, 13811, Note_on_c, 0, 82, 0
2, 13811, Note_on_c, 0, 78, 0
2, 13924, Note_on_c, 0, 56, 0
2, 13924, Note_on_c, 0, 40, 0
2, 13933, Note_on_c, 0, 39, 80
2, 13933, Note_on_c, 0, 54, 80
2, 14017, Note_on_c, 0, 75, 80
2, 14017, Note_on_c, 0, 83, 80
2, 14017, Note_on_c, 0, 87, 80
2, 14042, Note_on_c, 0, 39, 0
2, 14051, Note_on_c, 0, 87, 0
2, 14051, Note_on_c, 0, 75, 0
2, 14053, Note_on_c, 0, 54, 0
2, 14053, Note_on_c, 0, 83, 0
2, 14059, Note_on_c, 0, 37, 80
2, 14059, Note_on_c, 0, 52, 80
2, 14059, Note_on_c, 0, 76, 80
2, 14059, Note_on_c, 0, 88, 80
2, 14061, Note_on_c, 0, 85, 80
2, 14131, Note_on_c, 0, 85, 0
2, 14131, Note_on_c, 0, 76, 0
2, 14131, Note_on_c, 0, 88, 0
2, 14139, Note_on_c, 0, 77, 80
2, 14139, Note_on_c, 0, 86, 80
2, 14139, Note_on_c, 0, 89, 80
2, 14173, Note_on_c, 0, 89, 0
2, 14173, Note_on_c, 0, 77, 0
2, 14173, Note_on_c, 0, 37, 0
2, 14173, Note_on_c, 0, 52, 0
2, 14173, Note_on_c, 0, 86, 0
2, 14180, Note_on_c, 0, 35, 80
2, 14180, Note_on_c, 0, 42, 80
2, 14180, Note_on_c, 0, 51, 80
2, 14180, Note_on_c, 0, 78, 80
2, 14180, Note_on_c, 0, 87, 80
2, 14180, Note_on_c, 0, 90, 80
2, 14223, Note_on_c, 0, 90, 0
2, 14223, Note_on_c, 0, 42, 0
2, 14223, Note_on_c, 0, 51, 0
2, 14223, Note_on_c, 0, 35, 0
2, 14223, Note_on_c, 0, 87, 0
2, 14223, Note_on_c, 0, 78, 0
2, 14307, Note_on_c, 0, 54, 80
2, 14307, Note_on_c, 0, 56, 80
2, 14307, Note_on_c, 0, 59, 80
2, 14307, Note_on_c, 0, 63, 80
2, 14307, Note_on_c, 0, 80, 80
2, 14307, Note_on_c, 0, 87, 80
2, 14307, Note_on_c, 0, 92, 80
2, 14330, Note_on_c, 0, 63, 0
2, 14330, Note_on_c, 0, 59, 0
2, 14330, Note_on_c, 0, 54, 0
2, 14330, Note_on_c, 0, 56, 0
2, 14341, Note_on_c, 0, 92, 0
2, 14341, Note_on_c, 0, 87, 0
2, 14343, Note_on_c, 0, 80, 0
2, 14395, Note_on_c, 0, 78, 80
2, 14395, Note_on_c, 0, 87, 80
2, 14395, Note_on_c, 0, 90, 80
2, 14434, Note_on_c, 0, 42, 80
2, 14434, Note_on_c, 0, 54, 80
2, 14468, Note_on_c, 0, 87, 0
2, 14476, Note_on_c, 0, 42, 0
2, 14505, Note_on_c, 0, 78, 0
2, 14505, Note_on_c, 0, 90, 0
2, 14514, Note_on_c, 0, 75, 80
2, 14514, Note_on_c, 0, 83, 80
2, 14514, Note_on_c, 0, 87, 80
2, 14549, Note_on_c, 0, 87, 0
2, 14549, Note_on_c, 0, 54, 0
2, 14549, Note_on_c, 0, 75, 0
2, 14549, Note_on_c, 0, 83, 0
2, 14556, Note_on_c, 0, 88, 80
2, 14558, Note_on_c, 0, 42, 80
2, 14558, Note_on_c, 0, 52, 80
2, 14558, Note_on_c, 0, 76, 80
2, 14558, Note_on_c, 0, 85, 80
2, 14601, Note_on_c, 0, 42, 0
2, 14630, Note_on_c, 0, 76, 0
2, 14636, Note_on_c, 0, 77, 80
2, 14636, Note_on_c, 0, 86, 80
2, 14636, Note_on_c, 0, 89, 80
2, 14638, Note_on_c, 0, 88, 0
2, 14638, Note_on_c, 0, 85, 0
2, 14659, Note_on_c, 0, 52, 0
2, 14667, Note_on_c, 0, 77, 0
2, 14667, Note_on_c, 0, 86, 0
2, 14667, Note_on_c, 0, 89, 0
2, 14676, Note_on_c, 0, 35, 80
2, 14676, Note_on_c, 0, 42, 80
2, 14676, Note_on_c, 0, 78, 80
2, 14676, Note_on_c, 0, 87, 80
2, 14676, Note_on_c, 0, 90, 80
2, 14678, Note_on_c, 0, 51, 80
2, 14721, Note_on_c, 0, 51, 0
2, 14721, Note_on_c, 0, 42, 0
2, 14721, Note_on_c, 0, 78, 0
2, 14721, Note_on_c, 0, 35, 0
2, 14721, Note_on_c, 0, 90, 0
2, 14721, Note_on_c, 0, 87, 0
2, 14802, Note_on_c, 0, 54, 80
2, 14802, Note_on_c, 0, 56, 80
2, 14802, Note_on_c, 0, 59, 80
2, 14802, Note_on_c, 0, 80, 80
2, 14802, Note_on_c, 0, 92, 80
2, 14804, Note_on_c, 0, 63, 80
2, 14804, Note_on_c, 0, 87, 80
2, 14825, Note_on_c, 0, 63, 0
2, 14825, Note_on_c, 0, 54, 0
2, 14825, Note_on_c, 0, 56, 0
2, 14825, Note_on_c, 0, 59, 0
2, 14835, Note_on_c, 0, 87, 0
2, 14835, Note_on_c, 0, 92, 0
2, 14837, Note_on_c, 0, 80, 0
2, 14885, Note_on_c, 0, 78, 80
2, 14885, Note_on_c, 0, 87, 80
2, 14885, Note_on_c, 0, 90, 80
2, 14927, Note_on_c, 0, 47, 80
2, 14927, Note_on_c, 0, 59, 80
2, 14959, Note_on_c, 0, 87, 0
2, 14968, Note_on_c, 0, 47, 0
2, 14988, Note_on_c, 0, 90, 0
2, 14990, Note_on_c, 0, 78, 0
2, 15004, Note_on_c, 0, 87, 80
2, 15006, Note_on_c, 0, 75, 80
2, 15037, Note_on_c, 0, 75, 0
2, 15037, Note_on_c, 0, 87, 0
2, 15039, Note_on_c, 0, 59, 0
2, 15048, Note_on_c, 0, 47, 80
2, 15048, Note_on_c, 0, 57, 80
2, 15048, Note_on_c, 0, 71, 80
2, 15048, Note_on_c, 0, 83, 80
2, 15091, Note_on_c, 0, 47, 0
2, 15120, Note_on_c, 0, 83, 0
2, 15121, Note_on_c, 0, 71, 0
2, 15128, Note_on_c, 0, 66, 80
2, 15128, Note_on_c, 0, 78, 80
2, 15161, Note_on_c, 0, 78, 0
2, 15163, Note_on_c, 0, 66, 0
2, 15165, Note_on_c, 0, 57, 0
2, 15170, Note_on_c, 0, 68, 80
2, 15170, Note_on_c, 0, 71, 80
2, 15170, Note_on_c, 0, 76, 80
2, 15170, Note_on_c, 0, 80, 80
2, 15172, Note_on_c, 0, 40, 80
2, 15172, Note_on_c, 0, 47, 80
2, 15172, Note_on_c, 0, 56, 80
2, 15216, Note_on_c, 0, 56, 0
2, 15216, Note_on_c, 0, 40, 0
2, 15216, Note_on_c, 0, 71, 0
2, 15216, Note_on_c, 0, 76, 0
2, 15216, Note_on_c, 0, 68, 0
2, 15216, Note_on_c, 0, 47, 0
2, 15216, Note_on_c, 0, 80, 0
2, 15255, Note_on_c, 0, 70, 80
2, 15255, Note_on_c, 0, 82, 80
2, 15290, Note_on_c, 0, 82, 0
2, 15290, Note_on_c, 0, 70, 0
2, 15297, Note_on_c, 0, 56, 80
2, 15297, Note_on_c, 0, 59, 80
2, 15297, Note_on_c, 0, 64, 80
2, 15297, Note_on_c, 0, 71, 80
2, 15297, Note_on_c, 0, 83, 80
2, 15320, Note_on_c, 0, 64, 0
2, 15322, Note_on_c, 0, 56, 0
2, 15322, Note_on_c, 0, 59, 0
2, 15374, Note_on_c, 0, 71, 0
2, 15374, Note_on_c, 0, 83, 0
2, 15383, Note_on_c, 0, 73, 80
2, 15383, Note_on_c, 0, 85, 80
2, 15418, Note_on_c, 0, 73, 0
2, 15425, Note_on_c, 0, 75, 80
2, 15425, Note_on_c, 0, 79, 80
2, 15425, Note_on_c, 0, 83, 80
2, 15425, Note_on_c, 0, 87, 80
2, 15427, Note_on_c, 0, 40, 80
2, 15427, Note_on_c, 0, 47, 80
2, 15427, Note_on_c, 0, 55, 80
2, 15429, Note_on_c, 0, 85, 0
2, 15472, Note_on_c, 0, 55, 0
2, 15472, Note_on_c, 0, 40, 0
2, 15472, Note_on_c, 0, 47, 0
2, 15504, Note_on_c, 0, 75, 0
2, 15504, Note_on_c, 0, 83, 0
2, 15504, Note_on_c, 0, 79, 0
2, 15511, Note_on_c, 0, 73, 80
2, 15511, Note_on_c, 0, 85, 80
2, 15513, Note_on_c, 0, 87, 0
2, 15547, Note_on_c, 0, 73, 0
2, 15552, Note_on_c, 0, 76, 80
2, 15552, Note_on_c, 0, 83, 80
2, 15554, Note_on_c, 0, 55, 80
2, 15554, Note_on_c, 0, 59, 80
2, 15554, Note_on_c, 0, 64, 80
2, 15554, Note_on_c, 0, 71, 80
2, 15554, Note_on_c, 0, 79, 80
2, 15556, Note_on_c, 0, 61, 80
2, 15558, Note_on_c, 0, 85, 0
2, 15578, Note_on_c, 0, 61, 0
2, 15578, Note_on_c, 0, 59, 0
2, 15578, Note_on_c, 0, 55, 0
2, 15578, Note_on_c, 0, 64, 0
2, 15620, Note_on_c, 0, 71, 0
2, 15620, Note_on_c, 0, 79, 0
2, 15630, Note_on_c, 0, 83, 0
2, 15630, Note_on_c, 0, 76, 0
2, 15637, Note_on_c, 0, 85, 80
2, 15639, Note_on_c, 0, 73, 80
2, 15674, Note_on_c, 0, 73, 0
2, 15683, Note_on_c, 0, 42, 80
2, 15683, Note_on_c, 0, 54, 80
2, 15683, Note_on_c, 0, 71, 80
2, 15683, Note_on_c, 0, 75, 80
2, 15683, Note_on_c, 0, 78, 80
2, 15683, Note_on_c, 0, 83, 80
2, 15685, Note_on_c, 0, 85, 0
2, 15728, Note_on_c, 0, 42, 0
2, 15728, Note_on_c, 0, 54, 0
2, 15769, Note_on_c, 0, 74, 80
2, 15771, Note_on_c, 0, 75, 0
2, 15771, Note_on_c, 0, 83, 0
2, 15771, Note_on_c, 0, 71, 0
2, 15771, Note_on_c, 0, 78, 0
2, 15813, Note_on_c, 0, 59, 80
2, 15813, Note_on_c, 0, 63, 80
2, 15813, Note_on_c, 0, 75, 80
2, 15815, Note_on_c, 0, 54, 80
2, 15816, Note_on_c, 0, 74, 0
2, 15823, Note_on_c, 0, 56, 80
2, 15834, Note_on_c, 0, 56, 0
2, 15836, Note_on_c, 0, 54, 0
2, 15846, Note_on_c, 0, 59, 0
2, 15846, Note_on_c, 0, 63, 0
2, 15855, Note_on_c, 0, 75, 0
2, 15865, Control_c, 0, 64, 127
2, 15894, Note_on_c, 0, 75, 80
2, 15907, Note_on_c, 0, 83, 80
2, 15934, Note_on_c, 0, 47, 80
2, 15946, Note_on_c, 0, 35, 80
2, 15946, Note_on_c, 0, 69, 80
2, 15979, Note_on_c, 0, 35, 0
2, 15979, Note_on_c, 0, 47, 0
2, 15999, Control_c, 0, 64, 0
2, 16001, Note_on_c, 0, 69, 0
2, 16011, Note_on_c, 0, 83, 0
2, 16011, Note_on_c, 0, 75, 0
2, 16017, Note_on_c, 0, 66, 80
2, 16026, Note_on_c, 0, 78, 80
2, 16058, Note_on_c, 0, 63, 80
2, 16060, Note_on_c, 0, 57, 80
2, 16060, Note_on_c, 0, 59, 80
2, 16060, Note_on_c, 0, 65, 80
2, 16060, Note_on_c, 0, 77, 80
2, 16062, Note_on_c, 0, 78, 0
2, 16062, Note_on_c, 0, 66, 0
2, 16080, Note_on_c, 0, 59, 0
2, 16080, Note_on_c, 0, 63, 0
2, 16082, Note_on_c, 0, 57, 0
2, 16132, Note_on_c, 0, 77, 0
2, 16132, Note_on_c, 0, 65, 0
2, 16139, Note_on_c, 0, 78, 80
2, 16141, Note_on_c, 0, 66, 80
2, 16174, Note_on_c, 0, 66, 0
2, 16174, Note_on_c, 0, 78, 0
2, 16182, Note_on_c, 0, 40, 80
2, 16182, Note_on_c, 0, 47, 80
2, 16182, Note_on_c, 0, 56, 80
2, 16182, Note_on_c, 0, 71, 80
2, 16182, Note_on_c, 0, 76, 80
2, 16182, Note_on_c, 0, 80, 80
2, 16182, Note_on_c, 0, 83, 80
2, 16224, Note_on_c, 0, 83, 0
2, 16224, Note_on_c, 0, 76, 0
2, 16224, Note_on_c, 0, 71, 0
2, 16224, Note_on_c, 0, 80, 0
2, 16225, Note_on_c, 0, 40, 0
2, 16225, Note_on_c, 0, 56, 0
2, 16225, Note_on_c, 0, 47, 0
2, 16308, Note_on_c, 0, 56, 80
2, 16308, Note_on_c, 0, 59, 80
2, 16308, Note_on_c, 0, 64, 80
2, 16308, Note_on_c, 0, 68, 80
2, 16308, Note_on_c, 0, 80, 80
2, 16331, Note_on_c, 0, 64, 0
2, 16333, Note_on_c, 0, 56, 0
2, 16333, Note_on_c, 0, 59, 0
2, 16344, Note_on_c, 0, 68, 0
2, 16354, Note_on_c, 0, 80, 0
2, 16392, Note_on_c, 0, 77, 80
2, 16393, Note_on_c, 0, 71, 80
2, 16393, Note_on_c, 0, 74, 80
2, 16404, Note_on_c, 0, 83, 80
2, 16435, Note_on_c, 0, 41, 80
2, 16435, Note_on_c, 0, 50, 80
2, 16437, Note_on_c, 0, 56, 80
2, 16509, Note_on_c, 0, 71, 0
2, 16511, Note_on_c, 0, 83, 0
2, 16511, Note_on_c, 0, 56, 0
2, 16517, Note_on_c, 0, 68, 80
2, 16517, Note_on_c, 0, 80, 80
2, 16519, Note_on_c, 0, 74, 0
2, 16519, Note_on_c, 0, 77, 0
2, 16552, Note_on_c, 0, 68, 0
2, 16560, Note_on_c, 0, 56, 80
2, 16560, Note_on_c, 0, 62, 80
2, 16560, Note_on_c, 0, 65, 80
2, 16560, Note_on_c, 0, 71, 80
2, 16562, Note_on_c, 0, 59, 80
2, 16564, Note_on_c, 0, 80, 0
2, 16571, Note_on_c, 0, 83, 80
2, 16584, Note_on_c, 0, 62, 0
2, 16584, Note_on_c, 0, 56, 0
2, 16584, Note_on_c, 0, 65, 0
2, 16594, Note_on_c, 0, 59, 0
2, 16648, Note_on_c, 0, 71, 0
2, 16648, Note_on_c, 0, 80, 80
2, 16650, Note_on_c, 0, 83, 0
2, 16656, Note_on_c, 0, 68, 80
2, 16680, Note_on_c, 0, 68, 0
2, 16680, Note_on_c, 0, 41, 0
2, 16680, Note_on_c, 0, 50, 0
2, 16685, Note_on_c, 0, 42, 80
2, 16685, Note_on_c, 0, 51, 80
2, 16685, Note_on_c, 0, 66, 80
2, 16685, Note_on_c, 0, 71, 80
2, 16685, Note_on_c, 0, 75, 80
2, 16691, Note_on_c, 0, 80, 0
2, 16698, Note_on_c, 0, 78, 80
2, 16721, Note_on_c, 0, 71, 0
2, 16731, Note_on_c, 0, 42, 0
2, 16762, Note_on_c, 0, 75, 0
2, 16762, Note_on_c, 0, 66, 0
2, 16762, Note_on_c, 0, 78, 0
2, 16769, Note_on_c, 0, 71, 80
2, 16771, Note_on_c, 0, 83, 80
2, 16806, Note_on_c, 0, 83, 0
2, 16806, Note_on_c, 0, 71, 0
2, 16813, Note_on_c, 0, 54, 80
2, 16813, Note_on_c, 0, 59, 80
2, 16813, Note_on_c, 0, 63, 80
2, 16813, Note_on_c, 0, 75, 80
2, 16813, Note_on_c, 0, 87, 80
2, 16834, Note_on_c, 0, 63, 0
2, 16834, Note_on_c, 0, 59, 0
2, 16834, Note_on_c, 0, 54, 0
2, 16845, Note_on_c, 0, 75, 0
2, 16855, Note_on_c, 0, 87, 0
2, 16862, Control_c, 0, 64, 127
2, 16891, Note_on_c, 0, 90, 80
2, 16901, Note_on_c, 0, 78, 80
2, 16932, Note_on_c, 0, 30, 80
2, 16971, Note_on_c, 0, 30, 0
2, 17013, Note_on_c, 0, 78, 0
2, 17013, Note_on_c, 0, 90, 0
2, 17013, Note_on_c, 0, 75, 80
2, 17021, Note_on_c, 0, 87, 80
2, 17023, Control_c, 0, 64, 0
2, 17044, Note_on_c, 0, 75, 0
2, 17050, Note_on_c, 0, 63, 80
2, 17050, Note_on_c, 0, 71, 80
2, 17052, Note_on_c, 0, 54, 80
2, 17052, Note_on_c, 0, 59, 80
2, 17052, Note_on_c, 0, 83, 80
2, 17054, Note_on_c, 0, 87, 0
2, 17074, Note_on_c, 0, 54, 0
2, 17074, Note_on_c, 0, 63, 0
2, 17074, Note_on_c, 0, 59, 0
2, 17124, Note_on_c, 0, 83, 0
2, 17124, Note_on_c, 0, 71, 0
2, 17131, Note_on_c, 0, 66, 80
2, 17131, Note_on_c, 0, 78, 80
2, 17164, Note_on_c, 0, 78, 0
2, 17164, Note_on_c, 0, 66, 0
2, 17164, Note_on_c, 0, 51, 0
2, 17173, Note_on_c, 0, 49, 80
2, 17173, Note_on_c, 0, 59, 80
2, 17173, Note_on_c, 0, 65, 80
2, 17173, Note_on_c, 0, 68, 80
2, 17173, Note_on_c, 0, 71, 80
2, 17173, Note_on_c, 0, 77, 80
2, 17173, Note_on_c, 0, 80, 80
2, 17216, Note_on_c, 0, 77, 0
2, 17218, Note_on_c, 0, 68, 0
2, 17218, Note_on_c, 0, 59, 0
2, 17218, Note_on_c, 0, 65, 0
2, 17218, Note_on_c, 0, 49, 0
2, 17218, Note_on_c, 0, 71, 0
2, 17227, Note_on_c, 0, 80, 0
2, 17299, Note_on_c, 0, 77, 80
2, 17301, Note_on_c, 0, 49, 80
2, 17301, Note_on_c, 0, 59, 80
2, 17301, Note_on_c, 0, 65, 80
2, 17301, Note_on_c, 0, 71, 80
2, 17301, Note_on_c, 0, 80, 80
2, 17301, Note_on_c, 0, 83, 80
2, 17419, Note_on_c, 0, 83, 0
2, 17419, Note_on_c, 0, 71, 0
2, 17419, Note_on_c, 0, 49, 0
2, 17419, Note_on_c, 0, 59, 0
2, 17419, Note_on_c, 0, 77, 0
2, 17419, Note_on_c, 0, 80, 0
2, 17419, Note_on_c, 0, 65, 0
2, 17425, Note_on_c, 0, 54, 80
2, 17425, Note_on_c, 0, 64, 80
2, 17425, Note_on_c, 0, 70, 80
2, 17425, Note_on_c, 0, 75, 80
2, 17425, Note_on_c, 0, 78, 80
2, 17425, Note_on_c, 0, 82, 80
2, 17425, Note_on_c, 0, 87, 80
2, 17458, Note_on_c, 0, 87, 0
2, 17458, Note_on_c, 0, 78, 0
2, 17458, Note_on_c, 0, 64, 0
2, 17458, Note_on_c, 0, 70, 0
2, 17458, Note_on_c, 0, 54, 0
2, 17458, Note_on_c, 0, 82, 0
2, 17458, Note_on_c, 0, 75, 0
2, 17512, Note_on_c, 0, 54, 80
2, 17512, Note_on_c, 0, 64, 80
2, 17512, Note_on_c, 0, 70, 80
2, 17512, Note_on_c, 0, 73, 80
2, 17512, Note_on_c, 0, 76, 80
2, 17514, Note_on_c, 0, 82, 80
2, 17514, Note_on_c, 0, 85, 80
2, 17591, Note_on_c, 0, 82, 0
2, 17591, Note_on_c, 0, 70, 0
2, 17591, Note_on_c, 0, 64, 0
2, 17591, Note_on_c, 0, 54, 0
2, 17591, Note_on_c, 0, 76, 0
2, 17592, Note_on_c, 0, 73, 0
2, 17603, Note_on_c, 0, 85, 0
2, 17642, Note_on_c, 0, 78, 80
2, 17644, Note_on_c, 0, 47, 80
2, 17644, Note_on_c, 0, 54, 80
2, 17644, Note_on_c, 0, 63, 80
2, 17644, Note_on_c, 0, 71, 80
2, 17644, Note_on_c, 0, 75, 80
2, 17644, Note_on_c, 0, 83, 80
2, 17762, Note_on_c, 0, 63, 0
2, 17762, Note_on_c, 0, 54, 0
2, 17762, Note_on_c, 0, 47, 0
2, 17769, Note_on_c, 0, 41, 80
2, 17769, Note_on_c, 0, 53, 80
2, 17802, Note_on_c, 0, 41, 0
2, 17804, Note_on_c, 0, 53, 0
2, 17810, Note_on_c, 0, 42, 80
2, 17810, Note_on_c, 0, 54, 80
2, 17885, Note_on_c, 0, 54, 0
2, 17885, Note_on_c, 0, 42, 0
2, 17892, Note_on_c, 0, 39, 80
2, 17892, Note_on_c, 0, 51, 80
2, 17925, Note_on_c, 0, 51, 0
2, 17925, Note_on_c, 0, 39, 0
2, 17935, Note_on_c, 0, 35, 80
2, 17935, Note_on_c, 0, 47, 80
2, 18009, Note_on_c, 0, 47, 0
2, 18009, Note_on_c, 0, 75, 0
2, 18009, Note_on_c, 0, 71, 0
2, 18009, Note_on_c, 0, 78, 0
2, 18009, Note_on_c, 0, 35, 0
2, 18009, Note_on_c, 0, 83, 0
2, 18061, Note_on_c, 0, 73, 80
2, 18140, Note_on_c, 0, 73, 0
2, 18146, Note_on_c, 0, 74, 80
2, 18182, Note_on_c, 0, 74, 0
2, 18189, Note_on_c, 0, 47, 80
2, 18189, Note_on_c, 0, 59, 80
2, 18189, Note_on_c, 0, 75, 80
2, 18222, Note_on_c, 0, 75, 0
2, 18265, Note_on_c, 0, 59, 0
2, 18265, Note_on_c, 0, 47, 0
2, 18272, Note_on_c, 0, 78, 80
2, 18274, Note_on_c, 0, 71, 80
2, 18274, Note_on_c, 0, 83, 80
2, 18312, Note_on_c, 0, 46, 80
2, 18312, Note_on_c, 0, 58, 80
2, 18313, Note_on_c, 0, 78, 0
2, 18315, Note_on_c, 0, 71, 0
2, 18315, Note_on_c, 0, 83, 0
2, 18396, Note_on_c, 0, 75, 80
2, 18430, Note_on_c, 0, 75, 0
2, 18430, Note_on_c, 0, 46, 0
2, 18430, Note_on_c, 0, 58, 0
2, 18436, Note_on_c, 0, 45, 80
2, 18436, Note_on_c, 0, 57, 80
2, 18436, Note_on_c, 0, 71, 80
2, 18436, Note_on_c, 0, 78, 80
2, 18438, Note_on_c, 0, 83, 80
2, 18483, Note_on_c, 0, 78, 0
2, 18483, Note_on_c, 0, 71, 0
2, 18483, Note_on_c, 0, 45, 0
2, 18483, Note_on_c, 0, 57, 0
2, 18485, Note_on_c, 0, 83, 0
2, 18568, Note_on_c, 0, 54, 80
2, 18568, Note_on_c, 0, 57, 80
2, 18568, Note_on_c, 0, 59, 80
2, 18568, Note_on_c, 0, 63, 80
2, 18568, Note_on_c, 0, 75, 80
2, 18588, Note_on_c, 0, 63, 0
2, 18588, Note_on_c, 0, 59, 0
2, 18590, Note_on_c, 0, 54, 0
2, 18590, Note_on_c, 0, 57, 0
2, 18599, Note_on_c, 0, 75, 0
2, 18647, Note_on_c, 0, 83, 80
2, 18648, Control_c, 0, 64, 127
2, 18650, Note_on_c, 0, 73, 80
2, 18650, Note_on_c, 0, 74, 80
2, 18690, Note_on_c, 0, 44, 80
2, 18690, Note_on_c, 0, 56, 80
2, 18765, Note_on_c, 0, 56, 0
2, 18765, Note_on_c, 0, 74, 0
2, 18765, Note_on_c, 0, 83, 0
2, 18765, Note_on_c, 0, 73, 0
2, 18765, Note_on_c, 0, 44, 0
2, 18771, Note_on_c, 0, 71, 80
2, 18784, Control_c, 0, 64, 0
2, 18804, Note_on_c, 0, 71, 0
2, 18811, Note_on_c, 0, 56, 80
2, 18813, Note_on_c, 0, 59, 80
2, 18813, Note_on_c, 0, 64, 80
2, 18813, Note_on_c, 0, 73, 80
2, 18815, Note_on_c, 0, 61, 80
2, 18838, Note_on_c, 0, 61, 0
2, 18838, Note_on_c, 0, 56, 0
2, 18838, Note_on_c, 0, 64, 0
2, 18838, Note_on_c, 0, 59, 0
2, 18846, Note_on_c, 0, 73, 0
2, 18898, Note_on_c, 0, 71, 80
2, 18937, Note_on_c, 0, 43, 80
2, 18937, Note_on_c, 0, 55, 80
2, 18971, Note_on_c, 0, 71, 0
2, 19002, Note_on_c, 0, 55, 0
2, 19002, Note_on_c, 0, 43, 0
2, 19022, Note_on_c, 0, 71, 80
2, 19022, Note_on_c, 0, 83, 80
2, 19057, Note_on_c, 0, 83, 0
2, 19057, Note_on_c, 0, 71, 0
2, 19064, Note_on_c, 0, 55, 80
2, 19064, Note_on_c, 0, 64, 80
2, 19064, Note_on_c, 0, 73, 80
2, 19066, Note_on_c, 0, 59, 80
2, 19066, Note_on_c, 0, 61, 80
2, 19066, Note_on_c, 0, 85, 80
2, 19086, Note_on_c, 0, 61, 0
2, 19086, Note_on_c, 0, 59, 0
2, 19086, Note_on_c, 0, 64, 0
2, 19086, Note_on_c, 0, 55, 0
2, 19140, Note_on_c, 0, 85, 0
2, 19140, Note_on_c, 0, 73, 0
2, 19146, Note_on_c, 0, 74, 80
2, 19146, Note_on_c, 0, 86, 80
2, 19179, Note_on_c, 0, 86, 0
2, 19179, Note_on_c, 0, 74, 0
2, 19186, Note_on_c, 0, 75, 80
2, 19186, Note_on_c, 0, 78, 80
2, 19186, Note_on_c, 0, 87, 80
2, 19188, Note_on_c, 0, 42, 80
2, 19188, Note_on_c, 0, 54, 80
2, 19229, Note_on_c, 0, 87, 0
2, 19229, Note_on_c, 0, 75, 0
2, 19229, Note_on_c, 0, 78, 0
2, 19231, Note_on_c, 0, 42, 0
2, 19231, Note_on_c, 0, 54, 0
2, 19271, Note_on_c, 0, 71, 80
2, 19271, Note_on_c, 0, 83, 80
2, 19304, Note_on_c, 0, 83, 0
2, 19304, Note_on_c, 0, 71, 0
2, 19311, Note_on_c, 0, 54, 80
2, 19311, Note_on_c, 0, 59, 80
2, 19311, Note_on_c, 0, 63, 80
2, 19311, Note_on_c, 0, 73, 80
2, 19311, Note_on_c, 0, 85, 80
2, 19332, Control_c, 0, 64, 127
2, 19334, Note_on_c, 0, 63, 0
2, 19334, Note_on_c, 0, 54, 0
2, 19334, Note_on_c, 0, 59, 0
2, 19344, Note_on_c, 0, 73, 0
2, 19344, Note_on_c, 0, 85, 0
2, 19394, Note_on_c, 0, 75, 80
2, 19394, Note_on_c, 0, 78, 80
2, 19394, Note_on_c, 0, 87, 80
2, 19434, Note_on_c, 0, 30, 80
2, 19434, Note_on_c, 0, 42, 80
2, 19475, Note_on_c, 0, 30, 0
2, 19477, Note_on_c, 0, 42, 0
2, 19495, Note_on_c, 0, 75, 0
2, 19495, Note_on_c, 0, 78, 0
2, 19513, Note_on_c, 0, 70, 80
2, 19513, Note_on_c, 0, 73, 80
2, 19513, Note_on_c, 0, 82, 80
2, 19519, Note_on_c, 0, 87, 0
2, 19528, Note_on_c, 0, 73, 0
2, 19528, Control_c, 0, 64, 0
2, 19548, Note_on_c, 0, 82, 0
2, 19550, Note_on_c, 0, 70, 0
2, 19556, Note_on_c, 0, 76, 80
2, 19556, Note_on_c, 0, 85, 80
2, 19558, Note_on_c, 0, 54, 80
2, 19558, Note_on_c, 0, 61, 80
2, 19558, Note_on_c, 0, 64, 80
2, 19558, Note_on_c, 0, 73, 80
2, 19560, Note_on_c, 0, 58, 80
2, 19581, Note_on_c, 0, 58, 0
2, 19581, Note_on_c, 0, 64, 0
2, 19583, Note_on_c, 0, 61, 0
2, 19583, Note_on_c, 0, 54, 0
2, 19642, Note_on_c, 0, 47, 80
2, 19642, Note_on_c, 0, 59, 80
2, 19676, Note_on_c, 0, 76, 0
2, 19676, Note_on_c, 0, 73, 0
2, 19681, Note_on_c, 0, 71, 80
2, 19681, Note_on_c, 0, 75, 80
2, 19681, Note_on_c, 0, 78, 80
2, 19681, Note_on_c, 0, 83, 80
2, 19687, Note_on_c, 0, 85, 0
2, 19687, Note_on_c, 0, 59, 0
2, 19687, Note_on_c, 0, 47, 0
2, 19766, Note_on_c, 0, 59, 80
2, 19768, Note_on_c, 0, 47, 80
2, 19801, Note_on_c, 0, 47, 0
2, 19801, Note_on_c, 0, 59, 0
2, 19808, Note_on_c, 0, 46, 80
2, 19808, Note_on_c, 0, 58, 80
2, 19810, Note_on_c, 0, 71, 0
2, 19810, Note_on_c, 0, 75, 0
2, 19810, Note_on_c, 0, 78, 0
2, 19812, Note_on_c, 0, 83, 0
2, 19928, Note_on_c, 0, 46, 0
2, 19928, Note_on_c, 0, 58, 0
2, 19937, Note_on_c, 0, 44, 80
2, 19937, Note_on_c, 0, 56, 80
2, 20057, Note_on_c, 0, 56, 0
2, 20057, Note_on_c, 0, 44, 0
2, 20064, Note_on_c, 0, 42, 80
2, 20064, Note_on_c, 0, 54, 80
2, 20064, Note_on_c, 0, 73, 80
2, 20138, Note_on_c, 0, 73, 0
2, 20138, Note_on_c, 0, 54, 0
2, 20138, Note_on_c, 0, 42, 0
2, 20145, Note_on_c, 0, 74, 80
2, 20181, Note_on_c, 0, 74, 0
2, 20187, Note_on_c, 0, 47, 80
2, 20187, Note_on_c, 0, 75, 80
2, 20189, Note_on_c, 0, 59, 80
2, 20222, Note_on_c, 0, 75, 0
2, 20232, Note_on_c, 0, 59, 0
2, 20232, Note_on_c, 0, 47, 0
2, 20272, Note_on_c, 0, 71, 80
2, 20272, Note_on_c, 0, 78, 80
2, 20272, Note_on_c, 0, 83, 80
2, 20315, Note_on_c, 0, 46, 80
2, 20315, Note_on_c, 0, 58, 80
2, 20317, Note_on_c, 0, 83, 0
2, 20317, Note_on_c, 0, 71, 0
2, 20317, Note_on_c, 0, 78, 0
2, 20398, Note_on_c, 0, 75, 80
2, 20433, Note_on_c, 0, 75, 0
2, 20433, Note_on_c, 0, 46, 0
2, 20433, Note_on_c, 0, 58, 0
2, 20437, Note_on_c, 0, 78, 80
2, 20439, Note_on_c, 0, 45, 80
2, 20439, Note_on_c, 0, 71, 80
2, 20441, Note_on_c, 0, 57, 80
2, 20441, Note_on_c, 0, 83, 80
2, 20515, Note_on_c, 0, 83, 0
2, 20515, Note_on_c, 0, 78, 0
2, 20515, Note_on_c, 0, 71, 0
2, 20515, Note_on_c, 0, 45, 0
2, 20517, Note_on_c, 0, 57, 0
2, 20565, Note_on_c, 0, 54, 80
2, 20565, Note_on_c, 0, 57, 80
2, 20565, Note_on_c, 0, 59, 80
2, 20565, Note_on_c, 0, 63, 80
2, 20565, Note_on_c, 0, 75, 80
2, 20588, Note_on_c, 0, 63, 0
2, 20588, Note_on_c, 0, 59, 0
2, 20588, Note_on_c, 0, 54, 0
2, 20590, Note_on_c, 0, 57, 0
2, 20598, Note_on_c, 0, 75, 0
2, 20648, Note_on_c, 0, 74, 80
2, 20650, Note_on_c, 0, 73, 80
2, 20650, Note_on_c, 0, 83, 80
2, 20691, Note_on_c, 0, 40, 80
2, 20691, Note_on_c, 0, 56, 80
2, 20693, Note_on_c, 0, 73, 0
2, 20735, Note_on_c, 0, 40, 0
2, 20767, Note_on_c, 0, 74, 0
2, 20774, Note_on_c, 0, 71, 80
2, 20808, Note_on_c, 0, 71, 0
2, 20813, Note_on_c, 0, 59, 80
2, 20813, Note_on_c, 0, 64, 80
2, 20813, Note_on_c, 0, 68, 80
2, 20813, Note_on_c, 0, 73, 80
2, 20836, Note_on_c, 0, 68, 0
2, 20836, Note_on_c, 0, 64, 0
2, 20838, Note_on_c, 0, 59, 0
2, 20849, Note_on_c, 0, 73, 0
2, 20896, Note_on_c, 0, 71, 80
2, 20933, Note_on_c, 0, 56, 0
2, 20940, Note_on_c, 0, 39, 80
2, 20940, Note_on_c, 0, 54, 80
2, 20974, Note_on_c, 0, 71, 0
2, 20974, Note_on_c, 0, 83, 0
2, 21015, Note_on_c, 0, 54, 0
2, 21058, Note_on_c, 0, 39, 0
2, 21065, Note_on_c, 0, 38, 80
2, 21065, Note_on_c, 0, 54, 80
2, 21065, Note_on_c, 0, 68, 80
2, 21065, Note_on_c, 0, 71, 80
2, 21065, Note_on_c, 0, 74, 80
2, 21065, Note_on_c, 0, 80, 80
2, 21137, Note_on_c, 0, 74, 0
2, 21139, Note_on_c, 0, 71, 0
2, 21139, Note_on_c, 0, 68, 0
2, 21139, Note_on_c, 0, 80, 0
2, 21145, Note_on_c, 0, 66, 80
2, 21145, Note_on_c, 0, 78, 80
2, 21178, Note_on_c, 0, 78, 0
2, 21178, Note_on_c, 0, 66, 0
2, 21180, Note_on_c, 0, 38, 0
2, 21180, Note_on_c, 0, 54, 0
2, 21186, Note_on_c, 0, 37, 80
2, 21186, Note_on_c, 0, 53, 80
2, 21186, Note_on_c, 0, 65, 80
2, 21186, Note_on_c, 0, 71, 80
2, 21186, Note_on_c, 0, 73, 80
2, 21186, Note_on_c, 0, 77, 80
2, 21261, Note_on_c, 0, 77, 0
2, 21261, Note_on_c, 0, 71, 0
2, 21261, Note_on_c, 0, 65, 0
2, 21261, Note_on_c, 0, 73, 0
2, 21269, Note_on_c, 0, 68, 80
2, 21269, Note_on_c, 0, 80, 80
2, 21303, Note_on_c, 0, 80, 0
2, 21303, Note_on_c, 0, 68, 0
2, 21310, Note_on_c, 0, 59, 80
2, 21310, Note_on_c, 0, 61, 80
2, 21310, Note_on_c, 0, 65, 80
2, 21310, Note_on_c, 0, 71, 80
2, 21310, Note_on_c, 0, 83, 80
2, 21343, Note_on_c, 0, 83, 0
2, 21343, Note_on_c, 0, 65, 0
2, 21343, Note_on_c, 0, 61, 0
2, 21343, Note_on_c, 0, 59, 0
2, 21343, Note_on_c, 0, 71, 0
2, 21403, Note_on_c, 0, 59, 80
2, 21403, Note_on_c, 0, 63, 80
2, 21403, Note_on_c, 0, 65, 80
2, 21403, Note_on_c, 0, 70, 80
2, 21403, Note_on_c, 0, 75, 80
2, 21403, Note_on_c, 0, 87, 80
2, 21475, Note_on_c, 0, 70, 0
2, 21475, Note_on_c, 0, 63, 0
2, 21475, Note_on_c, 0, 59, 0
2, 21475, Note_on_c, 0, 65, 0
2, 21507, Note_on_c, 0, 75, 0
2, 21516, Note_on_c, 0, 87, 0
2, 21523, Note_on_c, 0, 70, 80
2, 21525, Note_on_c, 0, 59, 80
2, 21525, Note_on_c, 0, 63, 80
2, 21525, Note_on_c, 0, 65, 80
2, 21525, Note_on_c, 0, 73, 80
2, 21525, Note_on_c, 0, 85, 80
2, 21533, Note_on_c, 0, 59, 0
2, 21537, Note_on_c, 0, 65, 0
2, 21557, Note_on_c, 0, 70, 0
2, 21557, Note_on_c, 0, 73, 0
2, 21563, Note_on_c, 0, 71, 80
2, 21563, Note_on_c, 0, 83, 80
2, 21565, Note_on_c, 0, 59, 80
2, 21565, Note_on_c, 0, 61, 80
2, 21565, Note_on_c, 0, 65, 80
2, 21565, Note_on_c, 0, 68, 80
2, 21567, Note_on_c, 0, 63, 0
2, 21567, Note_on_c, 0, 85, 0
2, 21596, Note_on_c, 0, 68, 0
2, 21635, Note_on_c, 0, 71, 0
2, 21637, Note_on_c, 0, 83, 0
2, 21637, Note_on_c, 0, 65, 0
2, 21637, Note_on_c, 0, 61, 0
2, 21637, Note_on_c, 0, 59, 0
2, 21643, Note_on_c, 0, 68, 80
2, 21643, Note_on_c, 0, 80, 80
2, 21676, Note_on_c, 0, 80, 0
2, 21676, Note_on_c, 0, 53, 0
2, 21676, Note_on_c, 0, 37, 0
2, 21676, Note_on_c, 0, 68, 0
2, 21682, Note_on_c, 0, 73, 80
2, 21682, Note_on_c, 0, 76, 80
2, 21682, Note_on_c, 0, 85, 80
2, 21684, Note_on_c, 0, 42, 80
2, 21684, Note_on_c, 0, 52, 80
2, 21684, Note_on_c, 0, 58, 80
2, 21758, Note_on_c, 0, 58, 0
2, 21758, Note_on_c, 0, 42, 0
2, 21758, Note_on_c, 0, 52, 0
2, 21767, Note_on_c, 0, 61, 80
2, 21799, Note_on_c, 0, 61, 0
2, 21808, Note_on_c, 0, 37, 80
2, 21808, Note_on_c, 0, 49, 80
2, 21808, Note_on_c, 0, 59, 80
2, 21808, Note_on_c, 0, 64, 80
2, 21808, Note_on_c, 0, 68, 80
2, 21841, Note_on_c, 0, 68, 0
2, 21841, Note_on_c, 0, 64, 0
2, 21841, Note_on_c, 0, 49, 0
2, 21841, Note_on_c, 0, 37, 0
2, 21841, Note_on_c, 0, 59, 0
2, 21893, Note_on_c, 0, 66, 80
2, 21895, Note_on_c, 0, 30, 80
2, 21895, Note_on_c, 0, 42, 80
2, 21895, Note_on_c, 0, 61, 80
2, 21897, Note_on_c, 0, 58, 80
2, 21969, Note_on_c, 0, 42, 0
2, 22008, Note_on_c, 0, 58, 0
2, 22008, Note_on_c, 0, 76, 0
2, 22008, Note_on_c, 0, 66, 0
2, 22010, Note_on_c, 0, 30, 0
2, 22010, Note_on_c, 0, 73, 0
2, 22010, Note_on_c, 0, 61, 0
2, 22017, Note_on_c, 0, 42, 80
2, 22017, Note_on_c, 0, 54, 80
2, 22019, Note_on_c, 0, 85, 0
2, 22056, Note_on_c, 0, 54, 0
2, 22056, Note_on_c, 0, 42, 0
2, 22063, Note_on_c, 0, 73, 80
2, 22065, Note_on_c, 0, 44, 80
2, 22065, Note_on_c, 0, 56, 80
2, 22148, Note_on_c, 0, 56, 0
2, 22148, Note_on_c, 0, 44, 0
2, 22148, Note_on_c, 0, 73, 0
2, 22156, Note_on_c, 0, 46, 80
2, 22156, Note_on_c, 0, 58, 80
2, 22156, Note_on_c, 0, 74, 80
2, 22190, Note_on_c, 0, 74, 0
2, 22190, Note_on_c, 0, 58, 0
2, 22192, Note_on_c, 0, 46, 0
2, 22199, Note_on_c, 0, 47, 80
2, 22199, Note_on_c, 0, 59, 80
2, 22199, Note_on_c, 0, 75, 80
2, 22231, Note_on_c, 0, 75, 0
2, 22242, Note_on_c, 0, 59, 0
2, 22242, Note_on_c, 0, 47, 0
2, 22281, Note_on_c, 0, 71, 80
2, 22281, Note_on_c, 0, 78, 80
2, 22281, Note_on_c, 0, 83, 80
2, 22324, Note_on_c, 0, 46, 80
2, 22324, Note_on_c, 0, 58, 80
2, 22326, Note_on_c, 0, 83, 0
2, 22326, Note_on_c, 0, 71, 0
2, 22326, Note_on_c, 0, 78, 0
2, 22411, Note_on_c, 0, 75, 80
2, 22444, Note_on_c, 0, 75, 0
2, 22444, Note_on_c, 0, 46, 0
2, 22444, Note_on_c, 0, 58, 0
2, 22451, Note_on_c, 0, 57, 80
2, 22451, Note_on_c, 0, 71, 80
2, 22451, Note_on_c, 0, 78, 80
2, 22451, Note_on_c, 0, 83, 80
2, 22453, Note_on_c, 0, 45, 80
2, 22525, Note_on_c, 0, 45, 0
2, 22525, Note_on_c, 0, 78, 0
2, 22525, Note_on_c, 0, 57, 0
2, 22525, Note_on_c, 0, 71, 0
2, 22525, Note_on_c, 0, 83, 0
2, 22575, Note_on_c, 0, 59, 80
2, 22577, Note_on_c, 0, 54, 80
2, 22577, Note_on_c, 0, 57, 80
2, 22577, Note_on_c, 0, 63, 80
2, 22577, Note_on_c, 0, 75, 80
2, 22597, Note_on_c, 0, 63, 0
2, 22599, Note_on_c, 0, 57, 0
2, 22599, Note_on_c, 0, 54, 0
2, 22609, Note_on_c, 0, 59, 0
2, 22620, Note_on_c, 0, 75, 0
2, 22659, Note_on_c, 0, 73, 80
2, 22661, Note_on_c, 0, 74, 80
2, 22661, Note_on_c, 0, 83, 80
2, 22703, Note_on_c, 0, 44, 80
2, 22703, Note_on_c, 0, 56, 80
2, 22704, Note_on_c, 0, 83, 0
2, 22704, Note_on_c, 0, 73, 0
2, 22704, Note_on_c, 0, 74, 0
2, 22789, Note_on_c, 0, 73, 80
2, 22789, Note_on_c, 0, 74, 80
2, 22789, Note_on_c, 0, 83, 80
2, 22812, Note_on_c, 0, 56, 0
2, 22821, Note_on_c, 0, 44, 0
2, 22829, Note_on_c, 0, 52, 80
2, 22831, Note_on_c, 0, 74, 0
2, 22831, Note_on_c, 0, 83, 0
2, 22831, Note_on_c, 0, 73, 0
2, 22831, Note_on_c, 0, 40, 80
2, 22914, Note_on_c, 0, 73, 80
2, 22935, Note_on_c, 0, 40, 0
2, 22935, Note_on_c, 0, 52, 0
2, 22945, Note_on_c, 0, 73, 0
2, 22956, Note_on_c, 0, 39, 80
2, 22956, Note_on_c, 0, 51, 80
2, 22956, Note_on_c, 0, 71, 80
2, 22989, Note_on_c, 0, 71, 0
2, 22989, Note_on_c, 0, 51, 0
2, 22989, Note_on_c, 0, 39, 0
2, 23040, Note_on_c, 0, 39, 80
2, 23040, Note_on_c, 0, 51, 80
2, 23040, Note_on_c, 0, 71, 80
2, 23042, Note_on_c, 0, 83, 80
2, 23073, Note_on_c, 0, 71, 0
2, 23073, Note_on_c, 0, 51, 0
2, 23075, Note_on_c, 0, 39, 0
2, 23081, Note_on_c, 0, 40, 80
2, 23083, Note_on_c, 0, 52, 80
2, 23083, Note_on_c, 0, 73, 80
2, 23083, Note_on_c, 0, 85, 80
2, 23087, Note_on_c, 0, 83, 0
2, 23149, Note_on_c, 0, 73, 0
2, 23149, Note_on_c, 0, 40, 0
2, 23161, Note_on_c, 0, 52, 0
2, 23165, Note_on_c, 0, 41, 80
2, 23167, Note_on_c, 0, 53, 80
2, 23167, Note_on_c, 0, 74, 80
2, 23169, Note_on_c, 0, 85, 0
2, 23176, Note_on_c, 0, 86, 80
2, 23203, Note_on_c, 0, 41, 0
2, 23203, Note_on_c, 0, 53, 0
2, 23208, Note_on_c, 0, 42, 80
2, 23208, Note_on_c, 0, 54, 80
2, 23208, Note_on_c, 0, 75, 80
2, 23212, Note_on_c, 0, 74, 0
2, 23212, Note_on_c, 0, 86, 0
2, 23219, Note_on_c, 0, 78, 80
2, 23219, Note_on_c, 0, 87, 80
2, 23244, Note_on_c, 0, 54, 0
2, 23244, Note_on_c, 0, 42, 0
2, 23253, Note_on_c, 0, 75, 0
2, 23253, Note_on_c, 0, 78, 0
2, 23253, Note_on_c, 0, 87, 0
2, 23292, Note_on_c, 0, 71, 80
2, 23292, Note_on_c, 0, 75, 80
2, 23292, Note_on_c, 0, 83, 80
2, 23323, Note_on_c, 0, 71, 0
2, 23329, Note_on_c, 0, 76, 80
2, 23331, Note_on_c, 0, 54, 80
2, 23331, Note_on_c, 0, 59, 80
2, 23331, Note_on_c, 0, 63, 80
2, 23331, Note_on_c, 0, 73, 80
2, 23331, Note_on_c, 0, 85, 80
2, 23333, Note_on_c, 0, 75, 0
2, 23335, Note_on_c, 0, 83, 0
2, 23355, Note_on_c, 0, 54, 0
2, 23355, Note_on_c, 0, 63, 0
2, 23364, Note_on_c, 0, 59, 0
2, 23364, Note_on_c, 0, 76, 0
2, 23366, Note_on_c, 0, 73, 0
2, 23373, Note_on_c, 0, 85, 0
2, 23373, Control_c, 0, 64, 127
2, 23414, Note_on_c, 0, 75, 80
2, 23414, Note_on_c, 0, 78, 80
2, 23414, Note_on_c, 0, 87, 80
2, 23453, Note_on_c, 0, 30, 80
2, 23455, Note_on_c, 0, 42, 80
2, 23498, Note_on_c, 0, 42, 0
2, 23498, Note_on_c, 0, 30, 0
2, 23519, Note_on_c, 0, 75, 0
2, 23519, Note_on_c, 0, 78, 0
2, 23519, Note_on_c, 0, 87, 0
2, 23539, Note_on_c, 0, 70, 80
2, 23539, Note_on_c, 0, 73, 80
2, 23539, Note_on_c, 0, 82, 80
2, 23541, Control_c, 0, 64, 0
2, 23547, Note_on_c, 0, 73, 0
2, 23570, Note_on_c, 0, 82, 0
2, 23570, Note_on_c, 0, 70, 0
2, 23577, Note_on_c, 0, 52, 80
2, 23577, Note_on_c, 0, 54, 80
2, 23577, Note_on_c, 0, 58, 80
2, 23577, Note_on_c, 0, 61, 80
2, 23577, Note_on_c, 0, 73, 80
2, 23577, Note_on_c, 0, 76, 80
2, 23577, Note_on_c, 0, 85, 80
2, 23600, Note_on_c, 0, 61, 0
2, 23600, Note_on_c, 0, 58, 0
2, 23600, Note_on_c, 0, 52, 0
2, 23600, Note_on_c, 0, 54, 0
2, 23693, Note_on_c, 0, 85, 0
2, 23693, Note_on_c, 0, 73, 0
2, 23693, Note_on_c, 0, 76, 0
2, 23702, Note_on_c, 0, 35, 80
2, 23702, Note_on_c, 0, 42, 80
2, 23702, Note_on_c, 0, 51, 80
2, 23702, Note_on_c, 0, 71, 80
2, 23702, Note_on_c, 0, 75, 80
2, 23702, Note_on_c, 0, 78, 80
2, 23702, Note_on_c, 0, 83, 80
2, 23747, Note_on_c, 0, 51, 0
2, 23747, Note_on_c, 0, 35, 0
2, 23747, Note_on_c, 0, 42, 0
2, 23778, Note_on_c, 0, 75, 0
2, 23778, Note_on_c, 0, 71, 0
2, 23778, Note_on_c, 0, 78, 0
2, 23778, Note_on_c, 0, 83, 0
2, 23786, Note_on_c, 0, 73, 80
2, 23809, Note_on_c, 0, 73, 0
2, 23828, Note_on_c, 0, 54, 80
2, 23828, Note_on_c, 0, 59, 80
2, 23828, Note_on_c, 0, 63, 80
2, 23828, Note_on_c, 0, 74, 80
2, 23851, Note_on_c, 0, 63, 0
2, 23853, Note_on_c, 0, 54, 0
2, 23853, Note_on_c, 0, 59, 0
2, 23861, Note_on_c, 0, 74, 0
2, 23870, Control_c, 0, 64, 127
2, 23911, Note_on_c, 0, 68, 80
2, 23911, Note_on_c, 0, 75, 80
2, 23911, Note_on_c, 0, 83, 80
2, 23952, Note_on_c, 0, 30, 80
2, 23998, Note_on_c, 0, 30, 0
2, 24028, Note_on_c, 0, 68, 0
2, 24028, Note_on_c, 0, 75, 0
2, 24028, Note_on_c, 0, 83, 0
2, 24039, Control_c, 0, 64, 0
2, 24080, Note_on_c, 0, 54, 80
2, 24080, Note_on_c, 0, 56, 80
2, 24080, Note_on_c, 0, 59, 80
2, 24080, Note_on_c, 0, 63, 80
2, 24080, Note_on_c, 0, 71, 80
2, 24080, Note_on_c, 0, 83, 80
2, 24101, Note_on_c, 0, 63, 0
2, 24103, Note_on_c, 0, 59, 0
2, 24103, Note_on_c, 0, 54, 0
2, 24103, Note_on_c, 0, 56, 0
2, 24155, Note_on_c, 0, 83, 0
2, 24155, Note_on_c, 0, 71, 0
2, 24162, Note_on_c, 0, 73, 80
2, 24162, Note_on_c, 0, 85, 80
2, 24197, Note_on_c, 0, 73, 0
2, 24203, Note_on_c, 0, 75, 80
2, 24203, Note_on_c, 0, 78, 80
2, 24203, Note_on_c, 0, 83, 80
2, 24203, Note_on_c, 0, 87, 80
2, 24205, Note_on_c, 0, 47, 80
2, 24205, Note_on_c, 0, 59, 80
2, 24207, Note_on_c, 0, 85, 0
2, 24236, Note_on_c, 0, 87, 0
2, 24236, Note_on_c, 0, 75, 0
2, 24236, Note_on_c, 0, 78, 0
2, 24238, Note_on_c, 0, 83, 0
2, 24285, Note_on_c, 0, 71, 80
2, 24285, Note_on_c, 0, 83, 80
2, 24322, Note_on_c, 0, 83, 0
2, 24322, Note_on_c, 0, 47, 0
2, 24322, Note_on_c, 0, 59, 0
2, 24322, Note_on_c, 0, 71, 0
2, 24328, Note_on_c, 0, 85, 80
2, 24330, Note_on_c, 0, 46, 80
2, 24330, Note_on_c, 0, 58, 80
2, 24330, Note_on_c, 0, 73, 80
2, 24363, Note_on_c, 0, 73, 0
2, 24363, Note_on_c, 0, 85, 0
2, 24411, Note_on_c, 0, 78, 80
2, 24411, Note_on_c, 0, 81, 80
2, 24411, Note_on_c, 0, 87, 80
2, 24413, Note_on_c, 0, 75, 80
2, 24446, Note_on_c, 0, 58, 0
2, 24448, Note_on_c, 0, 46, 0
2, 24456, Note_on_c, 0, 45, 80
2, 24456, Note_on_c, 0, 57, 80
2, 24528, Note_on_c, 0, 87, 0
2, 24528, Note_on_c, 0, 78, 0
2, 24528, Note_on_c, 0, 81, 0
2, 24528, Note_on_c, 0, 75, 0
2, 24530, Note_on_c, 0, 57, 0
2, 24530, Note_on_c, 0, 45, 0
2, 24539, Note_on_c, 0, 71, 80
2, 24539, Note_on_c, 0, 83, 80
2, 24573, Note_on_c, 0, 83, 0
2, 24573, Note_on_c, 0, 71, 0
2, 24579, Note_on_c, 0, 63, 80
2, 24579, Note_on_c, 0, 73, 80
2, 24579, Note_on_c, 0, 85, 80
2, 24581, Note_on_c, 0, 54, 80
2, 24581, Note_on_c, 0, 57, 80
2, 24581, Note_on_c, 0, 59, 80
2, 24602, Note_on_c, 0, 59, 0
2, 24602, Note_on_c, 0, 63, 0
2, 24604, Note_on_c, 0, 54, 0
2, 24604, Note_on_c, 0, 57, 0
2, 24658, Note_on_c, 0, 73, 0
2, 24665, Note_on_c, 0, 71, 80
2, 24665, Note_on_c, 0, 83, 80
2, 24667, Note_on_c, 0, 85, 0
2, 24679, Note_on_c, 0, 83, 0
2, 24702, Note_on_c, 0, 71, 0
2, 24708, Note_on_c, 0, 44, 80
2, 24708, Note_on_c, 0, 75, 80
2, 24708, Note_on_c, 0, 80, 80
2, 24708, Note_on_c, 0, 87, 80
2, 24710, Note_on_c, 0, 56, 80
2, 24710, Note_on_c, 0, 83, 80
2, 24744, Note_on_c, 0, 83, 0
2, 24774, Note_on_c, 0, 56, 0
2, 24783, Note_on_c, 0, 80, 0
2, 24783, Note_on_c, 0, 44, 0
2, 24783, Note_on_c, 0, 75, 0
2, 24783, Note_on_c, 0, 87, 0
2, 24790, Note_on_c, 0, 71, 80
2, 24790, Note_on_c, 0, 83, 80
2, 24825, Note_on_c, 0, 83, 0
2, 24825, Note_on_c, 0, 71, 0
2, 24834, Note_on_c, 0, 56, 80
2, 24834, Note_on_c, 0, 59, 80
2, 24834, Note_on_c, 0, 61, 80
2, 24834, Note_on_c, 0, 64, 80
2, 24834, Note_on_c, 0, 73, 80
2, 24834, Note_on_c, 0, 85, 80
2, 24859, Note_on_c, 0, 64, 0
2, 24859, Note_on_c, 0, 61, 0
2, 24859, Note_on_c, 0, 56, 0
2, 24859, Note_on_c, 0, 59, 0
2, 24869, Note_on_c, 0, 85, 0
2, 24869, Note_on_c, 0, 73, 0
2, 24921, Note_on_c, 0, 75, 80
2, 24921, Note_on_c, 0, 79, 80
2, 24921, Note_on_c, 0, 87, 80
2, 24923, Note_on_c, 0, 83, 80
2, 24966, Note_on_c, 0, 43, 80
2, 24966, Note_on_c, 0, 55, 80
2, 24989, Note_on_c, 0, 83, 0
2, 25037, Note_on_c, 0, 79, 0
2, 25037, Note_on_c, 0, 87, 0
2, 25037, Note_on_c, 0, 75, 0
2, 25037, Note_on_c, 0, 55, 0
2, 25037, Note_on_c, 0, 43, 0
2, 25044, Note_on_c, 0, 71, 80
2, 25046, Note_on_c, 0, 83, 80
2, 25080, Note_on_c, 0, 83, 0
2, 25080, Note_on_c, 0, 71, 0
2, 25086, Note_on_c, 0, 55, 80
2, 25086, Note_on_c, 0, 59, 80
2, 25086, Note_on_c, 0, 61, 80
2, 25086, Note_on_c, 0, 64, 80
2, 25086, Note_on_c, 0, 73, 80
2, 25086, Note_on_c, 0, 85, 80
2, 25109, Note_on_c, 0, 64, 0
2, 25109, Note_on_c, 0, 61, 0
2, 25109, Note_on_c, 0, 55, 0
2, 25109, Note_on_c, 0, 59, 0
2, 25149, Note_on_c, 0, 73, 0
2, 25159, Note_on_c, 0, 85, 0
2, 25166, Note_on_c, 0, 71, 80
2, 25166, Note_on_c, 0, 83, 80
2, 25182, Note_on_c, 0, 83, 0
2, 25202, Note_on_c, 0, 71, 0
2, 25208, Note_on_c, 0, 42, 80
2, 25208, Note_on_c, 0, 54, 80
2, 25208, Note_on_c, 0, 75, 80
2, 25208, Note_on_c, 0, 78, 80
2, 25208, Note_on_c, 0, 83, 80
2, 25208, Note_on_c, 0, 87, 80
2, 25241, Note_on_c, 0, 78, 0
2, 25243, Note_on_c, 0, 75, 0
2, 25243, Note_on_c, 0, 42, 0
2, 25243, Note_on_c, 0, 54, 0
2, 25251, Note_on_c, 0, 87, 0
2, 25253, Note_on_c, 0, 83, 0
2, 25291, Note_on_c, 0, 71, 80
2, 25291, Note_on_c, 0, 75, 80
2, 25291, Note_on_c, 0, 83, 80
2, 25323, Note_on_c, 0, 83, 0
2, 25323, Note_on_c, 0, 75, 0
2, 25323, Note_on_c, 0, 71, 0
2, 25329, Note_on_c, 0, 73, 80
2, 25329, Note_on_c, 0, 76, 80
2, 25329, Note_on_c, 0, 85, 80
2, 25331, Note_on_c, 0, 54, 80
2, 25331, Note_on_c, 0, 59, 80
2, 25331, Note_on_c, 0, 63, 80
2, 25352, Note_on_c, 0, 63, 0
2, 25354, Note_on_c, 0, 54, 0
2, 25354, Note_on_c, 0, 59, 0
2, 25363, Note_on_c, 0, 76, 0
2, 25365, Note_on_c, 0, 73, 0
2, 25373, Note_on_c, 0, 85, 0
2, 25406, Control_c, 0, 64, 127
2, 25413, Note_on_c, 0, 75, 80
2, 25413, Note_on_c, 0, 78, 80
2, 25413, Note_on_c, 0, 87, 80
2, 25456, Note_on_c, 0, 30, 80
2, 25456, Note_on_c, 0, 42, 80
2, 25497, Note_on_c, 0, 42, 0
2, 25497, Note_on_c, 0, 30, 0
2, 25515, Note_on_c, 0, 75, 0
2, 25515, Note_on_c, 0, 78, 0
2, 25515, Note_on_c, 0, 87, 0
2, 25528, Control_c, 0, 64, 0
2, 25535, Note_on_c, 0, 70, 80
2, 25535, Note_on_c, 0, 73, 80
2, 25535, Note_on_c, 0, 82, 80
2, 25549, Note_on_c, 0, 73, 0
2, 25567, Note_on_c, 0, 82, 0
2, 25567, Note_on_c, 0, 70, 0
2, 25574, Note_on_c, 0, 73, 80
2, 25574, Note_on_c, 0, 85, 80
2, 25576, Note_on_c, 0, 54, 80
2, 25576, Note_on_c, 0, 58, 80
2, 25576, Note_on_c, 0, 61, 80
2, 25576, Note_on_c, 0, 64, 80
2, 25576, Note_on_c, 0, 76, 80
2, 25596, Note_on_c, 0, 64, 0
2, 25596, Note_on_c, 0, 58, 0
2, 25596, Note_on_c, 0, 54, 0
2, 25596, Note_on_c, 0, 61, 0
2, 25687, Note_on_c, 0, 73, 0
2, 25687, Note_on_c, 0, 76, 0
2, 25687, Note_on_c, 0, 85, 0
2, 25694, Note_on_c, 0, 47, 80
2, 25694, Note_on_c, 0, 54, 80
2, 25694, Note_on_c, 0, 63, 80
2, 25694, Note_on_c, 0, 71, 80
2, 25694, Note_on_c, 0, 75, 80
2, 25694, Note_on_c, 0, 78, 80
2, 25694, Note_on_c, 0, 83, 80
2, 25771, Note_on_c, 0, 83, 0
2, 25771, Note_on_c, 0, 75, 0
2, 25771, Note_on_c, 0, 54, 0
2, 25771, Note_on_c, 0, 63, 0
2, 25771, Note_on_c, 0, 47, 0
2, 25771, Note_on_c, 0, 78, 0
2, 25771, Note_on_c, 0, 71, 0
2, 25777, Note_on_c, 0, 73, 80
2, 25813, Note_on_c, 0, 73, 0
2, 25820, Note_on_c, 0, 42, 80
2, 25820, Note_on_c, 0, 54, 80
2, 25820, Note_on_c, 0, 74, 80
2, 25820, Note_on_c, 0, 80, 80
2, 25852, Note_on_c, 0, 74, 0
2, 25863, Note_on_c, 0, 80, 0
2, 25900, Note_on_c, 0, 68, 80
2, 25900, Note_on_c, 0, 75, 80
2, 25900, Note_on_c, 0, 78, 80
2, 25902, Note_on_c, 0, 83, 80
2, 25923, Note_on_c, 0, 42, 0
2, 25934, Note_on_c, 0, 54, 0
2, 25941, Note_on_c, 0, 35, 80
2, 25941, Note_on_c, 0, 47, 80
2, 26015, Note_on_c, 0, 78, 0
2, 26015, Note_on_c, 0, 68, 0
2, 26015, Note_on_c, 0, 75, 0
2, 26015, Note_on_c, 0, 83, 0
2, 26016, Note_on_c, 0, 47, 0
2, 26016, Note_on_c, 0, 35, 0
2, 26025, Note_on_c, 0, 37, 80
2, 26025, Note_on_c, 0, 49, 80
2, 26058, Note_on_c, 0, 49, 0
2, 26058, Note_on_c, 0, 37, 0
2, 26064, Note_on_c, 0, 38, 80
2, 26064, Note_on_c, 0, 50, 80
2, 26141, Note_on_c, 0, 50, 0
2, 26141, Note_on_c, 0, 38, 0
2, 26147, Note_on_c, 0, 39, 80
2, 26147, Note_on_c, 0, 51, 80
2, 26181, Note_on_c, 0, 51, 0
2, 26183, Note_on_c, 0, 39, 0
2, 26186, Note_on_c, 0, 80, 80
2, 26188, Note_on_c, 0, 40, 80
2, 26188, Note_on_c, 0, 52, 80
2, 26188, Note_on_c, 0, 76, 80
2, 26233, Note_on_c, 0, 52, 0
2, 26233, Note_on_c, 0, 40, 0
2, 26264, Note_on_c, 0, 80, 0
2, 26264, Note_on_c, 0, 76, 0
2, 26273, Note_on_c, 0, 75, 80
2, 26273, Note_on_c, 0, 79, 80
2, 26306, Note_on_c, 0, 79, 0
2, 26306, Note_on_c, 0, 75, 0
2, 26315, Note_on_c, 0, 56, 80
2, 26315, Note_on_c, 0, 59, 80
2, 26315, Note_on_c, 0, 64, 80
2, 26315, Note_on_c, 0, 76, 80
2, 26315, Note_on_c, 0, 80, 80
2, 26338, Note_on_c, 0, 64, 0
2, 26338, Note_on_c, 0, 56, 0
2, 26338, Note_on_c, 0, 59, 0
2, 26358, Control_c, 0, 64, 127
2, 26443, Note_on_c, 0, 47, 80
2, 26445, Note_on_c, 0, 35, 80
2, 26488, Note_on_c, 0, 35, 0
2, 26488, Note_on_c, 0, 47, 0
2, 26517, Note_on_c, 0, 76, 0
2, 26517, Note_on_c, 0, 80, 0
2, 26531, Control_c, 0, 64, 0
2, 26570, Note_on_c, 0, 76, 80
2, 26570, Note_on_c, 0, 80, 80
2, 26570, Note_on_c, 0, 83, 80
2, 26572, Note_on_c, 0, 56, 80
2, 26572, Note_on_c, 0, 59, 80
2, 26572, Note_on_c, 0, 64, 80
2, 26595, Note_on_c, 0, 64, 0
2, 26595, Note_on_c, 0, 56, 0
2, 26595, Note_on_c, 0, 59, 0
2, 26645, Note_on_c, 0, 76, 0
2, 26647, Note_on_c, 0, 83, 0
2, 26647, Note_on_c, 0, 80, 0
2, 26695, Note_on_c, 0, 81, 80
2, 26695, Note_on_c, 0, 85, 80
2, 26697, Note_on_c, 0, 33, 80
2, 26697, Note_on_c, 0, 45, 80
2, 26697, Note_on_c, 0, 76, 80
2, 26740, Note_on_c, 0, 45, 0
2, 26740, Note_on_c, 0, 33, 0
2, 26819, Note_on_c, 0, 69, 80
2, 26821, Note_on_c, 0, 64, 80
2, 26823, Note_on_c, 0, 57, 80
2, 26823, Note_on_c, 0, 61, 80
2, 26846, Note_on_c, 0, 61, 0
2, 26846, Note_on_c, 0, 64, 0
2, 26883, Note_on_c, 0, 81, 0
2, 26896, Note_on_c, 0, 69, 0
2, 26896, Note_on_c, 0, 57, 0
2, 26903, Note_on_c, 0, 56, 80
2, 26903, Note_on_c, 0, 68, 80
2, 26911, Note_on_c, 0, 81, 80
2, 26938, Note_on_c, 0, 68, 0
2, 26940, Note_on_c, 0, 56, 0
2, 26946, Note_on_c, 0, 52, 80
2, 26946, Note_on_c, 0, 57, 80
2, 26946, Note_on_c, 0, 69, 80
2, 26948, Note_on_c, 0, 40, 80
2, 26991, Note_on_c, 0, 40, 0
2, 26991, Note_on_c, 0, 52, 0
2, 27020, Note_on_c, 0, 69, 0
2, 27022, Note_on_c, 0, 57, 0
2, 27028, Note_on_c, 0, 59, 80
2, 27028, Note_on_c, 0, 71, 80
2, 27061, Note_on_c, 0, 71, 0
2, 27063, Note_on_c, 0, 59, 0
2, 27070, Note_on_c, 0, 61, 80
2, 27070, Note_on_c, 0, 64, 80
2, 27070, Note_on_c, 0, 69, 80
2, 27070, Note_on_c, 0, 73, 80
2, 27095, Note_on_c, 0, 69, 0
2, 27095, Note_on_c, 0, 64, 0
2, 27144, Note_on_c, 0, 85, 0
2, 27144, Note_on_c, 0, 81, 0
2, 27144, Note_on_c, 0, 76, 0
2, 27146, Note_on_c, 0, 61, 0
2, 27146, Note_on_c, 0, 73, 0
2, 27194, Note_on_c, 0, 37, 80
2, 27194, Note_on_c, 0, 49, 80
2, 27194, Note_on_c, 0, 73, 80
2, 27194, Note_on_c, 0, 76, 80
2, 27240, Note_on_c, 0, 49, 0
2, 27240, Note_on_c, 0, 37, 0
2, 27270, Note_on_c, 0, 76, 0
2, 27272, Note_on_c, 0, 73, 0
2, 27278, Note_on_c, 0, 72, 80
2, 27280, Note_on_c, 0, 75, 80
2, 27313, Note_on_c, 0, 75, 0
2, 27313, Note_on_c, 0, 72, 0
2, 27319, Note_on_c, 0, 76, 80
2, 27321, Note_on_c, 0, 56, 80
2, 27321, Note_on_c, 0, 61, 80
2, 27321, Note_on_c, 0, 64, 80
2, 27321, Note_on_c, 0, 73, 80
2, 27346, Note_on_c, 0, 64, 0
2, 27346, Note_on_c, 0, 61, 0
2, 27346, Note_on_c, 0, 56, 0
2, 27366, Control_c, 0, 64, 127
2, 27449, Note_on_c, 0, 32, 80
2, 27449, Note_on_c, 0, 44, 80
2, 27494, Note_on_c, 0, 44, 0
2, 27494, Note_on_c, 0, 32, 0
2, 27523, Note_on_c, 0, 76, 0
2, 27525, Note_on_c, 0, 73, 0
2, 27535, Control_c, 0, 64, 0
2, 27575, Note_on_c, 0, 64, 80
2, 27575, Note_on_c, 0, 73, 80
2, 27576, Note_on_c, 0, 56, 80
2, 27576, Note_on_c, 0, 61, 80
2, 27576, Note_on_c, 0, 76, 80
2, 27576, Note_on_c, 0, 80, 80
2, 27598, Note_on_c, 0, 61, 0
2, 27598, Note_on_c, 0, 56, 0
2, 27598, Note_on_c, 0, 64, 0
2, 27651, Note_on_c, 0, 73, 0
2, 27682, Note_on_c, 0, 76, 0
2, 27682, Note_on_c, 0, 80, 0
2, 27700, Note_on_c, 0, 73, 80
2, 27700, Note_on_c, 0, 78, 80
2, 27700, Note_on_c, 0, 81, 80
2, 27702, Note_on_c, 0, 30, 80
2, 27702, Note_on_c, 0, 42, 80
2, 27747, Note_on_c, 0, 42, 0
2, 27747, Note_on_c, 0, 30, 0
2, 27830, Note_on_c, 0, 54, 80
2, 27830, Note_on_c, 0, 57, 80
2, 27830, Note_on_c, 0, 61, 80
2, 27830, Note_on_c, 0, 66, 80
2, 27851, Note_on_c, 0, 61, 0
2, 27851, Note_on_c, 0, 57, 0
2, 27905, Note_on_c, 0, 54, 0
2, 27905, Note_on_c, 0, 66, 0
2, 27913, Note_on_c, 0, 53, 80
2, 27913, Note_on_c, 0, 65, 80
2, 27946, Note_on_c, 0, 65, 0
2, 27946, Note_on_c, 0, 53, 0
2, 27953, Note_on_c, 0, 37, 80
2, 27953, Note_on_c, 0, 49, 80
2, 27953, Note_on_c, 0, 54, 80
2, 27953, Note_on_c, 0, 66, 80
2, 27996, Note_on_c, 0, 49, 0
2, 27996, Note_on_c, 0, 37, 0
2, 28016, Note_on_c, 0, 66, 0
2, 28029, Note_on_c, 0, 54, 0
2, 28034, Note_on_c, 0, 68, 80
2, 28036, Note_on_c, 0, 56, 80
2, 28069, Note_on_c, 0, 68, 0
2, 28071, Note_on_c, 0, 56, 0
2, 28077, Note_on_c, 0, 66, 80
2, 28077, Note_on_c, 0, 69, 80
2, 28079, Note_on_c, 0, 57, 80
2, 28079, Note_on_c, 0, 61, 80
2, 28100, Note_on_c, 0, 61, 0
2, 28100, Note_on_c, 0, 66, 0
2, 28110, Note_on_c, 0, 78, 0
2, 28152, Note_on_c, 0, 69, 0
2, 28152, Note_on_c, 0, 73, 0
2, 28152, Note_on_c, 0, 81, 0
2, 28153, Note_on_c, 0, 57, 0
2, 28157, Note_on_c, 0, 78, 80
2, 28157, Note_on_c, 0, 90, 80
2, 28195, Note_on_c, 0, 90, 0
2, 28195, Note_on_c, 0, 78, 0
2, 28201, Note_on_c, 0, 45, 80
2, 28201, Note_on_c, 0, 73, 80
2, 28201, Note_on_c, 0, 76, 80
2, 28201, Note_on_c, 0, 81, 80
2, 28201, Note_on_c, 0, 85, 80
2, 28203, Note_on_c, 0, 57, 80
2, 28247, Note_on_c, 0, 85, 0
2, 28247, Note_on_c, 0, 81, 0
2, 28247, Note_on_c, 0, 76, 0
2, 28247, Note_on_c, 0, 73, 0
2, 28248, Note_on_c, 0, 45, 0
2, 28248, Note_on_c, 0, 57, 0
2, 28327, Note_on_c, 0, 52, 80
2, 28327, Note_on_c, 0, 57, 80
2, 28327, Note_on_c, 0, 61, 80
2, 28327, Note_on_c, 0, 78, 80
2, 28327, Note_on_c, 0, 90, 80
2, 28340, Control_c, 0, 64, 127
2, 28352, Note_on_c, 0, 61, 0
2, 28352, Note_on_c, 0, 52, 0
2, 28352, Note_on_c, 0, 57, 0
2, 28361, Note_on_c, 0, 78, 0
2, 28369, Note_on_c, 0, 90, 0
2, 28411, Note_on_c, 0, 76, 80
2, 28411, Note_on_c, 0, 85, 80
2, 28413, Note_on_c, 0, 73, 80
2, 28413, Note_on_c, 0, 81, 80
2, 28452, Note_on_c, 0, 42, 80
2, 28452, Note_on_c, 0, 54, 80
2, 28495, Control_c, 0, 64, 0
2, 28515, Note_on_c, 0, 81, 0
2, 28515, Note_on_c, 0, 73, 0
2, 28515, Note_on_c, 0, 76, 0
2, 28515, Note_on_c, 0, 85, 0
2, 28536, Note_on_c, 0, 78, 80
2, 28536, Note_on_c, 0, 90, 80
2, 28559, Note_on_c, 0, 42, 0
2, 28567, Note_on_c, 0, 54, 0
2, 28567, Note_on_c, 0, 78, 0
2, 28567, Note_on_c, 0, 90, 0
2, 28574, Note_on_c, 0, 76, 80
2, 28576, Note_on_c, 0, 73, 80
2, 28576, Note_on_c, 0, 79, 80
2, 28576, Note_on_c, 0, 82, 80
2, 28578, Note_on_c, 0, 43, 80
2, 28578, Note_on_c, 0, 55, 80
2, 28578, Note_on_c, 0, 85, 80
2, 28652, Note_on_c, 0, 76, 0
2, 28691, Note_on_c, 0, 82, 0
2, 28691, Note_on_c, 0, 85, 0
2, 28693, Note_on_c, 0, 43, 0
2, 28693, Note_on_c, 0, 73, 0
2, 28693, Note_on_c, 0, 79, 0
2, 28695, Note_on_c, 0, 55, 0
2, 28702, Note_on_c, 0, 44, 80
2, 28702, Note_on_c, 0, 56, 80
2, 28702, Note_on_c, 0, 71, 80
2, 28702, Note_on_c, 0, 76, 80
2, 28702, Note_on_c, 0, 80, 80
2, 28702, Note_on_c, 0, 83, 80
2, 28743, Note_on_c, 0, 56, 0
2, 28743, Note_on_c, 0, 44, 0
2, 28827, Note_on_c, 0, 56, 80
2, 28827, Note_on_c, 0, 59, 80
2, 28827, Note_on_c, 0, 64, 80
2, 28829, Note_on_c, 0, 80, 0
2, 28829, Note_on_c, 0, 71, 0
2, 28829, Note_on_c, 0, 76, 0
2, 28829, Note_on_c, 0, 83, 0
2, 28850, Note_on_c, 0, 64, 0
2, 28850, Note_on_c, 0, 56, 0
2, 28850, Note_on_c, 0, 59, 0
2, 28911, Note_on_c, 0, 76, 80
2, 28911, Note_on_c, 0, 80, 80
2, 28911, Note_on_c, 0, 85, 80
2, 28911, Note_on_c, 0, 88, 80
2, 28954, Note_on_c, 0, 37, 80
2, 28954, Note_on_c, 0, 49, 80
2, 28997, Note_on_c, 0, 49, 0
2, 28997, Note_on_c, 0, 37, 0
2, 29080, Note_on_c, 0, 56, 80
2, 29080, Note_on_c, 0, 64, 80
2, 29082, Note_on_c, 0, 61, 80
2, 29103, Note_on_c, 0, 61, 0
2, 29103, Note_on_c, 0, 56, 0
2, 29103, Note_on_c, 0, 64, 0
2, 29155, Note_on_c, 0, 85, 0
2, 29155, Note_on_c, 0, 76, 0
2, 29157, Note_on_c, 0, 80, 0
2, 29165, Note_on_c, 0, 88, 0
2, 29207, Note_on_c, 0, 82, 80
2, 29208, Note_on_c, 0, 39, 80
2, 29208, Note_on_c, 0, 49, 80
2, 29208, Note_on_c, 0, 55, 80
2, 29208, Note_on_c, 0, 75, 80
2, 29208, Note_on_c, 0, 79, 80
2, 29210, Note_on_c, 0, 87, 80
2, 29243, Note_on_c, 0, 79, 0
2, 29282, Note_on_c, 0, 75, 0
2, 29282, Note_on_c, 0, 82, 0
2, 29282, Note_on_c, 0, 87, 0
2, 29289, Note_on_c, 0, 79, 80
2, 29289, Note_on_c, 0, 91, 80
2, 29325, Note_on_c, 0, 91, 0
2, 29327, Note_on_c, 0, 39, 0
2, 29327, Note_on_c, 0, 49, 0
2, 29327, Note_on_c, 0, 55, 0
2, 29327, Note_on_c, 0, 79, 0
2, 29333, Note_on_c, 0, 41, 80
2, 29333, Note_on_c, 0, 56, 80
2, 29333, Note_on_c, 0, 82, 80
2, 29333, Note_on_c, 0, 94, 80
2, 29335, Note_on_c, 0, 50, 80
2, 29380, Note_on_c, 0, 94, 0
2, 29380, Note_on_c, 0, 82, 0
2, 29420, Note_on_c, 0, 87, 80
2, 29420, Note_on_c, 0, 91, 80
2, 29420, Note_on_c, 0, 94, 80
2, 29420, Note_on_c, 0, 99, 80
2, 29452, Note_on_c, 0, 41, 0
2, 29452, Note_on_c, 0, 50, 0
2, 29452, Note_on_c, 0, 56, 0
2, 29461, Note_on_c, 0, 43, 80
2, 29461, Note_on_c, 0, 51, 80
2, 29461, Note_on_c, 0, 58, 80
2, 29535, Note_on_c, 0, 99, 0
2, 29535, Note_on_c, 0, 87, 0
2, 29535, Note_on_c, 0, 94, 0
2, 29544, Note_on_c, 0, 85, 80
2, 29544, Note_on_c, 0, 97, 80
2, 29545, Note_on_c, 0, 91, 0
2, 29567, Note_on_c, 0, 43, 0
2, 29577, Note_on_c, 0, 58, 0
2, 29579, Note_on_c, 0, 51, 0
2, 29585, Note_on_c, 0, 46, 80
2, 29585, Note_on_c, 0, 55, 80
2, 29585, Note_on_c, 0, 61, 80
2, 29585, Note_on_c, 0, 82, 80
2, 29585, Note_on_c, 0, 94, 80
2, 29589, Note_on_c, 0, 97, 0
2, 29589, Note_on_c, 0, 85, 0
2, 29661, Note_on_c, 0, 94, 0
2, 29663, Note_on_c, 0, 82, 0
2, 29671, Note_on_c, 0, 83, 80
2, 29671, Note_on_c, 0, 95, 80
2, 29684, Note_on_c, 0, 83, 0
2, 29704, Note_on_c, 0, 55, 0
2, 29704, Note_on_c, 0, 61, 0
2, 29704, Note_on_c, 0, 46, 0
2, 29711, Note_on_c, 0, 44, 80
2, 29711, Note_on_c, 0, 51, 80
2, 29711, Note_on_c, 0, 59, 80
2, 29711, Note_on_c, 0, 80, 80
2, 29711, Note_on_c, 0, 83, 80
2, 29711, Note_on_c, 0, 87, 80
2, 29711, Note_on_c, 0, 92, 80
2, 29712, Note_on_c, 0, 95, 0
2, 29783, Note_on_c, 0, 80, 0
2, 29783, Note_on_c, 0, 83, 0
2, 29783, Note_on_c, 0, 51, 0
2, 29783, Note_on_c, 0, 59, 0
2, 29783, Note_on_c, 0, 44, 0
2, 29783, Note_on_c, 0, 87, 0
2, 29789, Note_on_c, 0, 91, 80
2, 29791, Note_on_c, 0, 79, 80
2, 29793, Note_on_c, 0, 92, 0
2, 29826, Note_on_c, 0, 79, 0
2, 29832, Note_on_c, 0, 41, 80
2, 29832, Note_on_c, 0, 50, 80
2, 29832, Note_on_c, 0, 56, 80
2, 29832, Note_on_c, 0, 80, 80
2, 29832, Note_on_c, 0, 83, 80
2, 29832, Note_on_c, 0, 86, 80
2, 29832, Note_on_c, 0, 92, 80
2, 29834, Note_on_c, 0, 91, 0
2, 29863, Note_on_c, 0, 92, 0
2, 29863, Note_on_c, 0, 83, 0
2, 29863, Note_on_c, 0, 86, 0
2, 29865, Note_on_c, 0, 80, 0
2, 29913, Note_on_c, 0, 90, 80
2, 29913, Note_on_c, 0, 95, 80
2, 29915, Note_on_c, 0, 87, 80
2, 29917, Note_on_c, 0, 83, 80
2, 29950, Note_on_c, 0, 41, 0
2, 29950, Note_on_c, 0, 56, 0
2, 29950, Note_on_c, 0, 50, 0
2, 29956, Note_on_c, 0, 51, 80
2, 29958, Note_on_c, 0, 42, 80
2, 29958, Note_on_c, 0, 57, 80
2, 30032, Note_on_c, 0, 57, 0
2, 30032, Note_on_c, 0, 87, 0
2, 30032, Note_on_c, 0, 95, 0
2, 30032, Note_on_c, 0, 83, 0
2, 30032, Note_on_c, 0, 90, 0
2, 30032, Note_on_c, 0, 51, 0
2, 30039, Note_on_c, 0, 63, 80
2, 30039, Note_on_c, 0, 71, 80
2, 30062, Note_on_c, 0, 42, 0
2, 30072, Note_on_c, 0, 71, 0
2, 30072, Note_on_c, 0, 63, 0
2, 30081, Note_on_c, 0, 41, 80
2, 30081, Note_on_c, 0, 51, 80
2, 30081, Note_on_c, 0, 57, 80
2, 30081, Note_on_c, 0, 59, 80
2, 30081, Note_on_c, 0, 67, 80
2, 30158, Note_on_c, 0, 67, 0
2, 30160, Note_on_c, 0, 59, 0
2, 30203, Note_on_c, 0, 41, 0
2, 30203, Note_on_c, 0, 51, 0
2, 30203, Note_on_c, 0, 57, 0
2, 30210, Note_on_c, 0, 47, 80
2, 30210, Note_on_c, 0, 76, 80
2, 30210, Note_on_c, 0, 80, 80
2, 30212, Note_on_c, 0, 40, 80
2, 30212, Note_on_c, 0, 56, 80
2, 30255, Note_on_c, 0, 56, 0
2, 30255, Note_on_c, 0, 47, 0
2, 30255, Note_on_c, 0, 40, 0
2, 30276, Note_on_c, 0, 76, 0
2, 30287, Note_on_c, 0, 80, 0
2, 30293, Note_on_c, 0, 75, 80
2, 30293, Note_on_c, 0, 79, 80
2, 30329, Note_on_c, 0, 75, 0
2, 30336, Note_on_c, 0, 56, 80
2, 30336, Note_on_c, 0, 59, 80
2, 30336, Note_on_c, 0, 64, 80
2, 30336, Note_on_c, 0, 76, 80
2, 30336, Note_on_c, 0, 80, 80
2, 30339, Note_on_c, 0, 79, 0
2, 30360, Note_on_c, 0, 64, 0
2, 30360, Note_on_c, 0, 56, 0
2, 30360, Note_on_c, 0, 59, 0
2, 30378, Control_c, 0, 64, 127
2, 30462, Note_on_c, 0, 35, 80
2, 30462, Note_on_c, 0, 47, 80
2, 30505, Note_on_c, 0, 47, 0
2, 30505, Note_on_c, 0, 35, 0
2, 30534, Note_on_c, 0, 80, 0
2, 30534, Note_on_c, 0, 76, 0
2, 30545, Control_c, 0, 64, 0
2, 30582, Note_on_c, 0, 56, 80
2, 30582, Note_on_c, 0, 59, 80
2, 30582, Note_on_c, 0, 64, 80
2, 30582, Note_on_c, 0, 76, 80
2, 30582, Note_on_c, 0, 80, 80
2, 30582, Note_on_c, 0, 83, 80
2, 30603, Note_on_c, 0, 64, 0
2, 30603, Note_on_c, 0, 56, 0
2, 30603, Note_on_c, 0, 59, 0
2, 30651, Note_on_c, 0, 76, 0
2, 30651, Note_on_c, 0, 80, 0
2, 30651, Note_on_c, 0, 83, 0
2, 30699, Note_on_c, 0, 45, 80
2, 30699, Note_on_c, 0, 76, 80
2, 30699, Note_on_c, 0, 81, 80
2, 30699, Note_on_c, 0, 85, 80
2, 30701, Note_on_c, 0, 33, 80
2, 30743, Note_on_c, 0, 33, 0
2, 30743, Note_on_c, 0, 45, 0
2, 30821, Note_on_c, 0, 69, 80
2, 30823, Note_on_c, 0, 57, 80
2, 30823, Note_on_c, 0, 61, 80
2, 30823, Note_on_c, 0, 64, 80
2, 30844, Note_on_c, 0, 64, 0
2, 30844, Note_on_c, 0, 61, 0
2, 30896, Note_on_c, 0, 69, 0
2, 30896, Note_on_c, 0, 57, 0
2, 30905, Note_on_c, 0, 56, 80
2, 30905, Note_on_c, 0, 68, 80
2, 30938, Note_on_c, 0, 68, 0
2, 30938, Note_on_c, 0, 56, 0
2, 30945, Note_on_c, 0, 40, 80
2, 30945, Note_on_c, 0, 52, 80
2, 30945, Note_on_c, 0, 57, 80
2, 30945, Note_on_c, 0, 69, 80
2, 30978, Note_on_c, 0, 52, 0
2, 30990, Note_on_c, 0, 40, 0
2, 31010, Note_on_c, 0, 69, 0
2, 31023, Note_on_c, 0, 57, 0
2, 31027, Note_on_c, 0, 71, 80
2, 31031, Note_on_c, 0, 59, 80
2, 31064, Note_on_c, 0, 59, 0
2, 31064, Note_on_c, 0, 71, 0
2, 31070, Note_on_c, 0, 69, 80
2, 31072, Note_on_c, 0, 64, 80
2, 31072, Note_on_c, 0, 73, 80
2, 31074, Note_on_c, 0, 61, 80
2, 31097, Note_on_c, 0, 64, 0
2, 31097, Note_on_c, 0, 69, 0
2, 31149, Note_on_c, 0, 76, 0
2, 31149, Note_on_c, 0, 81, 0
2, 31149, Note_on_c, 0, 85, 0
2, 31149, Note_on_c, 0, 73, 0
2, 31151, Note_on_c, 0, 61, 0
2, 31202, Note_on_c, 0, 76, 80
2, 31204, Note_on_c, 0, 37, 80
2, 31204, Note_on_c, 0, 49, 80
2, 31204, Note_on_c, 0, 73, 80
2, 31231, Note_on_c, 0, 49, 0
2, 31231, Note_on_c, 0, 37, 0
2, 31248, Note_on_c, 0, 76, 0
2, 31248, Note_on_c, 0, 73, 0
2, 31268, Note_on_c, 0, 72, 80
2, 31268, Note_on_c, 0, 75, 80
2, 31305, Note_on_c, 0, 75, 0
2, 31305, Note_on_c, 0, 72, 0
2, 31312, Note_on_c, 0, 56, 80
2, 31312, Note_on_c, 0, 64, 80
2, 31312, Note_on_c, 0, 73, 80
2, 31312, Note_on_c, 0, 76, 80
2, 31314, Note_on_c, 0, 61, 80
2, 31324, Control_c, 0, 64, 127
2, 31337, Note_on_c, 0, 61, 0
2, 31337, Note_on_c, 0, 56, 0
2, 31337, Note_on_c, 0, 64, 0
2, 31442, Note_on_c, 0, 32, 80
2, 31442, Note_on_c, 0, 44, 80
2, 31486, Note_on_c, 0, 44, 0
2, 31486, Note_on_c, 0, 32, 0
2, 31496, Control_c, 0, 64, 0
2, 31517, Note_on_c, 0, 76, 0
2, 31519, Note_on_c, 0, 73, 0
2, 31569, Note_on_c, 0, 56, 80
2, 31569, Note_on_c, 0, 61, 80
2, 31569, Note_on_c, 0, 64, 80
2, 31569, Note_on_c, 0, 73, 80
2, 31569, Note_on_c, 0, 76, 80
2, 31569, Note_on_c, 0, 80, 80
2, 31592, Note_on_c, 0, 64, 0
2, 31592, Note_on_c, 0, 56, 0
2, 31592, Note_on_c, 0, 61, 0
2, 31640, Note_on_c, 0, 73, 0
2, 31681, Note_on_c, 0, 76, 0
2, 31681, Note_on_c, 0, 80, 0
2, 31688, Note_on_c, 0, 30, 80
2, 31688, Note_on_c, 0, 42, 80
2, 31688, Note_on_c, 0, 73, 80
2, 31688, Note_on_c, 0, 78, 80
2, 31688, Note_on_c, 0, 81, 80
2, 31731, Note_on_c, 0, 30, 0
2, 31733, Note_on_c, 0, 42, 0
2, 31812, Note_on_c, 0, 54, 80
2, 31812, Note_on_c, 0, 66, 80
2, 31814, Note_on_c, 0, 57, 80
2, 31814, Note_on_c, 0, 61, 80
2, 31835, Note_on_c, 0, 61, 0
2, 31835, Note_on_c, 0, 57, 0
2, 31874, Note_on_c, 0, 66, 0
2, 31887, Note_on_c, 0, 54, 0
2, 31894, Note_on_c, 0, 53, 80
2, 31894, Note_on_c, 0, 65, 80
2, 31926, Note_on_c, 0, 65, 0
2, 31928, Note_on_c, 0, 53, 0
2, 31934, Note_on_c, 0, 37, 80
2, 31934, Note_on_c, 0, 49, 80
2, 31934, Note_on_c, 0, 54, 80
2, 31934, Note_on_c, 0, 66, 80
2, 31977, Note_on_c, 0, 49, 0
2, 31977, Note_on_c, 0, 37, 0
2, 31997, Note_on_c, 0, 66, 0
2, 32008, Note_on_c, 0, 54, 0
2, 32015, Note_on_c, 0, 56, 80
2, 32015, Note_on_c, 0, 68, 80
2, 32048, Note_on_c, 0, 68, 0
2, 32048, Note_on_c, 0, 56, 0
2, 32055, Note_on_c, 0, 57, 80
2, 32055, Note_on_c, 0, 61, 80
2, 32055, Note_on_c, 0, 66, 80
2, 32055, Note_on_c, 0, 69, 80
2, 32057, Note_on_c, 0, 78, 0
2, 32078, Note_on_c, 0, 66, 0
2, 32087, Note_on_c, 0, 61, 0
2, 32117, Note_on_c, 0, 69, 0
2, 32128, Note_on_c, 0, 81, 0
2, 32128, Note_on_c, 0, 57, 0
2, 32136, Note_on_c, 0, 78, 80
2, 32136, Note_on_c, 0, 90, 80
2, 32140, Note_on_c, 0, 73, 0
2, 32171, Note_on_c, 0, 90, 0
2, 32171, Note_on_c, 0, 78, 0
2, 32180, Note_on_c, 0, 45, 80
2, 32180, Note_on_c, 0, 73, 80
2, 32180, Note_on_c, 0, 76, 80
2, 32180, Note_on_c, 0, 81, 80
2, 32180, Note_on_c, 0, 85, 80
2, 32182, Note_on_c, 0, 57, 80
2, 32225, Note_on_c, 0, 57, 0
2, 32225, Note_on_c, 0, 73, 0
2, 32225, Note_on_c, 0, 76, 0
2, 32225, Note_on_c, 0, 45, 0
2, 32225, Note_on_c, 0, 85, 0
2, 32225, Note_on_c, 0, 81, 0
2, 32307, Note_on_c, 0, 52, 80
2, 32307, Note_on_c, 0, 78, 80
2, 32307, Note_on_c, 0, 90, 80
2, 32309, Note_on_c, 0, 57, 80
2, 32309, Note_on_c, 0, 61, 80
2, 32330, Note_on_c, 0, 52, 0
2, 32332, Note_on_c, 0, 57, 0
2, 32332, Note_on_c, 0, 61, 0
2, 32345, Note_on_c, 0, 90, 0
2, 32345, Note_on_c, 0, 78, 0
2, 32386, Control_c, 0, 64, 127
2, 32397, Note_on_c, 0, 73, 80
2, 32397, Note_on_c, 0, 76, 80
2, 32397, Note_on_c, 0, 81, 80
2, 32397, Note_on_c, 0, 85, 80
2, 32436, Note_on_c, 0, 42, 80
2, 32436, Note_on_c, 0, 54, 80
2, 32498, Note_on_c, 0, 76, 0
2, 32500, Note_on_c, 0, 85, 0
2, 32500, Note_on_c, 0, 73, 0
2, 32500, Note_on_c, 0, 81, 0
2, 32519, Control_c, 0, 64, 0
2, 32519, Note_on_c, 0, 78, 80
2, 32519, Note_on_c, 0, 90, 80
2, 32551, Note_on_c, 0, 90, 0
2, 32551, Note_on_c, 0, 42, 0
2, 32551, Note_on_c, 0, 54, 0
2, 32551, Note_on_c, 0, 78, 0
2, 32557, Note_on_c, 0, 73, 80
2, 32557, Note_on_c, 0, 76, 80
2, 32557, Note_on_c, 0, 79, 80
2, 32557, Note_on_c, 0, 85, 80
2, 32559, Note_on_c, 0, 43, 80
2, 32559, Note_on_c, 0, 55, 80
2, 32559, Note_on_c, 0, 82, 80
2, 32631, Note_on_c, 0, 76, 0
2, 32672, Note_on_c, 0, 43, 0
2, 32672, Note_on_c, 0, 55, 0
2, 32679, Note_on_c, 0, 44, 80
2, 32679, Note_on_c, 0, 56, 80
2, 32679, Note_on_c, 0, 71, 80
2, 32679, Note_on_c, 0, 76, 80
2, 32679, Note_on_c, 0, 80, 80
2, 32681, Note_on_c, 0, 83, 80
2, 32683, Note_on_c, 0, 85, 0
2, 32683, Note_on_c, 0, 82, 0
2, 32683, Note_on_c, 0, 73, 0
2, 32683, Note_on_c, 0, 79, 0
2, 32755, Note_on_c, 0, 44, 0
2, 32757, Note_on_c, 0, 56, 0
2, 32762, Note_on_c, 0, 40, 80
2, 32762, Note_on_c, 0, 52, 80
2, 32795, Note_on_c, 0, 52, 0
2, 32795, Note_on_c, 0, 40, 0
2, 32802, Note_on_c, 0, 39, 80
2, 32802, Note_on_c, 0, 51, 80
2, 32874, Note_on_c, 0, 51, 0
2, 32874, Note_on_c, 0, 76, 0
2, 32874, Note_on_c, 0, 80, 0
2, 32874, Note_on_c, 0, 83, 0
2, 32874, Note_on_c, 0, 71, 0
2, 32876, Note_on_c, 0, 39, 0
2, 32884, Note_on_c, 0, 37, 80
2, 32884, Note_on_c, 0, 49, 80
2, 32917, Note_on_c, 0, 49, 0
2, 32917, Note_on_c, 0, 37, 0
2, 32924, Note_on_c, 0, 36, 80
2, 32924, Note_on_c, 0, 48, 80
2, 32924, Note_on_c, 0, 76, 80
2, 32924, Note_on_c, 0, 79, 80
2, 32924, Note_on_c, 0, 82, 80
2, 32924, Note_on_c, 0, 88, 80
2, 33031, Note_on_c, 0, 76, 0
2, 33049, Note_on_c, 0, 52, 80
2, 33049, Note_on_c, 0, 55, 80
2, 33049, Note_on_c, 0, 58, 80
2, 33049, Note_on_c, 0, 60, 80
2, 33049, Note_on_c, 0, 76, 80
2, 33070, Note_on_c, 0, 60, 0
2, 33070, Note_on_c, 0, 58, 0
2, 33070, Note_on_c, 0, 55, 0
2, 33070, Note_on_c, 0, 52, 0
2, 33082, Note_on_c, 0, 76, 0
2, 33082, Note_on_c, 0, 88, 0
2, 33107, Note_on_c, 0, 48, 0
2, 33125, Note_on_c, 0, 79, 0
2, 33125, Note_on_c, 0, 82, 0
2, 33125, Note_on_c, 0, 48, 80
2, 33134, Note_on_c, 0, 76, 80
2, 33134, Note_on_c, 0, 88, 80
2, 33168, Note_on_c, 0, 88, 0
2, 33168, Note_on_c, 0, 36, 0
2, 33168, Note_on_c, 0, 48, 0
2, 33168, Note_on_c, 0, 76, 0
2, 33174, Note_on_c, 0, 35, 80
2, 33176, Note_on_c, 0, 47, 80
2, 33176, Note_on_c, 0, 80, 80
2, 33176, Note_on_c, 0, 83, 80
2, 33176, Note_on_c, 0, 92, 80
2, 33212, Note_on_c, 0, 92, 0
2, 33212, Note_on_c, 0, 80, 0
2, 33212, Note_on_c, 0, 83, 0
2, 33220, Note_on_c, 0, 35, 0
2, 33222, Note_on_c, 0, 47, 0
2, 33265, Note_on_c, 0, 83, 80
2, 33265, Note_on_c, 0, 95, 80
2, 33309, Note_on_c, 0, 56, 80
2, 33309, Note_on_c, 0, 59, 80
2, 33309, Note_on_c, 0, 64, 80
2, 33332, Note_on_c, 0, 64, 0
2, 33332, Note_on_c, 0, 56, 0
2, 33332, Note_on_c, 0, 59, 0
2, 33387, Note_on_c, 0, 95, 0
2, 33387, Note_on_c, 0, 83, 0
2, 33394, Note_on_c, 0, 78, 80
2, 33394, Note_on_c, 0, 81, 80
2, 33394, Note_on_c, 0, 87, 80
2, 33394, Note_on_c, 0, 90, 80
2, 33437, Note_on_c, 0, 47, 80
2, 33437, Note_on_c, 0, 59, 80
2, 33502, Note_on_c, 0, 59, 0
2, 33502, Note_on_c, 0, 81, 0
2, 33502, Note_on_c, 0, 87, 0
2, 33502, Note_on_c, 0, 78, 0
2, 33502, Note_on_c, 0, 90, 0
2, 33510, Note_on_c, 0, 47, 0
2, 33519, Note_on_c, 0, 71, 80
2, 33519, Note_on_c, 0, 83, 80
2, 33554, Note_on_c, 0, 83, 0
2, 33554, Note_on_c, 0, 71, 0
2, 33561, Note_on_c, 0, 35, 80
2, 33561, Note_on_c, 0, 47, 80
2, 33561, Note_on_c, 0, 73, 80
2, 33561, Note_on_c, 0, 78, 80
2, 33561, Note_on_c, 0, 81, 80
2, 33561, Note_on_c, 0, 85, 80
2, 33635, Note_on_c, 0, 85, 0
2, 33635, Note_on_c, 0, 78, 0
2, 33637, Note_on_c, 0, 73, 0
2, 33637, Note_on_c, 0, 81, 0
2, 33644, Note_on_c, 0, 75, 80
2, 33644, Note_on_c, 0, 87, 80
2, 33679, Note_on_c, 0, 87, 0
2, 33679, Note_on_c, 0, 35, 0
2, 33679, Note_on_c, 0, 47, 0
2, 33679, Note_on_c, 0, 75, 0
2, 33686, Note_on_c, 0, 40, 80
2, 33686, Note_on_c, 0, 52, 80
2, 33686, Note_on_c, 0, 76, 80
2, 33686, Note_on_c, 0, 80, 80
2, 33686, Note_on_c, 0, 83, 80
2, 33686, Note_on_c, 0, 88, 80
2, 33729, Note_on_c, 0, 76, 0
2, 33731, Note_on_c, 0, 52, 0
2, 33731, Note_on_c, 0, 80, 0
2, 33731, Note_on_c, 0, 40, 0
2, 33731, Note_on_c, 0, 88, 0
2, 33731, Note_on_c, 0, 83, 0
2, 33814, Note_on_c, 0, 35, 80
2, 33814, Note_on_c, 0, 47, 80
2, 33900, Note_on_c, 0, 95, 80
2, 33918, Note_on_c, 0, 97, 80
2, 33929, Note_on_c, 0, 99, 80
2, 33933, Note_on_c, 0, 47, 0
2, 33933, Note_on_c, 0, 35, 0
2, 33939, Note_on_c, 0, 28, 80
2, 33939, Note_on_c, 0, 40, 80
2, 33939, Note_on_c, 0, 88, 80
2, 33939, Note_on_c, 0, 92, 80
2, 33939, Note_on_c, 0, 100, 80
2, 33943, Note_on_c, 0, 97, 0
2, 33952, Note_on_c, 0, 99, 0
2, 33981, Note_on_c, 0, 28, 0
2, 33981, Note_on_c, 0, 40, 0
2, 33991, Note_on_c, 0, 88, 0
2, 33991, Note_on_c, 0, 100, 0
2, 33991, Note_on_c, 0, 92, 0
2, 33991, Note_on_c, 0, 95, 0
2, 34192, Note_on_c, 0, 39, 80
2, 34192, Note_on_c, 0, 51, 80
2, 34192, Note_on_c, 0, 59, 80
2, 34192, Note_on_c, 0, 71, 80
2, 34256, Note_on_c, 0, 39, 0
2, 34265, Note_on_c, 0, 51, 0
2, 34265, Note_on_c, 0, 59, 0
2, 34265, Note_on_c, 0, 71, 0
2, 34273, Note_on_c, 0, 52, 80
2, 34273, Note_on_c, 0, 73, 80
2, 34275, Note_on_c, 0, 40, 80
2, 34275, Note_on_c, 0, 61, 80
2, 34308, Note_on_c, 0, 61, 0
2, 34308, Note_on_c, 0, 52, 0
2, 34308, Note_on_c, 0, 73, 0
2, 34308, Note_on_c, 0, 40, 0
2, 34315, Note_on_c, 0, 42, 80
2, 34315, Note_on_c, 0, 54, 80
2, 34315, Note_on_c, 0, 63, 80
2, 34315, Note_on_c, 0, 75, 80
2, 34348, Note_on_c, 0, 75, 0
2, 34348, Note_on_c, 0, 42, 0
2, 34348, Note_on_c, 0, 54, 0
2, 34348, Note_on_c, 0, 63, 0
2, 34357, Control_c, 0, 64, 127
2, 34398, Note_on_c, 0, 44, 80
2, 34398, Note_on_c, 0, 56, 80
2, 34398, Note_on_c, 0, 64, 80
2, 34398, Note_on_c, 0, 76, 80
2, 34513, Note_on_c, 0, 76, 0
2, 34513, Note_on_c, 0, 44, 0
2, 34513, Note_on_c, 0, 56, 0
2, 34513, Note_on_c, 0, 64, 0
2, 34520, Note_on_c, 0, 46, 80
2, 34520, Note_on_c, 0, 58, 80
2, 34520, Note_on_c, 0, 66, 80
2, 34520, Note_on_c, 0, 78, 80
2, 34522, Control_c, 0, 64, 0
2, 34555, Note_on_c, 0, 78, 0
2, 34555, Note_on_c, 0, 46, 0
2, 34555, Note_on_c, 0, 58, 0
2, 34555, Note_on_c, 0, 66, 0
2, 34561, Note_on_c, 0, 47, 80
2, 34563, Note_on_c, 0, 59, 80
2, 34563, Note_on_c, 0, 68, 80
2, 34563, Note_on_c, 0, 80, 80
2, 34637, Note_on_c, 0, 68, 0
2, 34637, Note_on_c, 0, 59, 0
2, 34639, Note_on_c, 0, 47, 0
2, 34646, Note_on_c, 0, 70, 80
2, 34646, Note_on_c, 0, 82, 80
2, 34648, Note_on_c, 0, 49, 80
2, 34648, Note_on_c, 0, 61, 80
2, 34650, Note_on_c, 0, 80, 0
2, 34680, Note_on_c, 0, 70, 0
2, 34680, Note_on_c, 0, 61, 0
2, 34680, Note_on_c, 0, 82, 0
2, 34682, Note_on_c, 0, 49, 0
2, 34689, Note_on_c, 0, 51, 80
2, 34689, Note_on_c, 0, 63, 80
2, 34689, Note_on_c, 0, 71, 80
2, 34689, Note_on_c, 0, 83, 80
2, 34766, Note_on_c, 0, 83, 0
2, 34766, Note_on_c, 0, 51, 0
2, 34766, Note_on_c, 0, 63, 0
2, 34766, Note_on_c, 0, 71, 0
2, 34773, Note_on_c, 0, 49, 80
2, 34773, Note_on_c, 0, 70, 80
2, 34775, Note_on_c, 0, 61, 80
2, 34775, Note_on_c, 0, 82, 80
2, 34807, Note_on_c, 0, 82, 0
2, 34807, Note_on_c, 0, 49, 0
2, 34807, Note_on_c, 0, 70, 0
2, 34807, Note_on_c, 0, 61, 0
2, 34814, Note_on_c, 0, 47, 80
2, 34814, Note_on_c, 0, 59, 80
2, 34814, Note_on_c, 0, 68, 80
2, 34814, Note_on_c, 0, 80, 80
2, 34843, Note_on_c, 0, 80, 0
2, 34843, Note_on_c, 0, 47, 0
2, 34843, Note_on_c, 0, 59, 0
2, 34843, Note_on_c, 0, 68, 0
2, 34893, Note_on_c, 0, 46, 80
2, 34893, Note_on_c, 0, 58, 80
2, 34893, Note_on_c, 0, 66, 80
2, 34893, Note_on_c, 0, 78, 80
2, 35006, Note_on_c, 0, 58, 0
2, 35008, Note_on_c, 0, 46, 0
2, 35008, Note_on_c, 0, 66, 0
2, 35008, Note_on_c, 0, 78, 0
2, 35015, Note_on_c, 0, 44, 80
2, 35015, Note_on_c, 0, 56, 80
2, 35015, Note_on_c, 0, 64, 80
2, 35016, Note_on_c, 0, 76, 80
2, 35049, Note_on_c, 0, 76, 0
2, 35049, Note_on_c, 0, 44, 0
2, 35049, Note_on_c, 0, 56, 0
2, 35049, Note_on_c, 0, 64, 0
2, 35058, Note_on_c, 0, 42, 80
2, 35058, Note_on_c, 0, 54, 80
2, 35058, Note_on_c, 0, 63, 80
2, 35058, Note_on_c, 0, 75, 80
2, 35101, Note_on_c, 0, 75, 0
2, 35101, Note_on_c, 0, 42, 0
2, 35101, Note_on_c, 0, 54, 0
2, 35101, Note_on_c, 0, 63, 0
2, 35167, Control_c, 0, 64, 127
2, 35184, Note_on_c, 0, 49, 80
2, 35184, Note_on_c, 0, 58, 80
2, 35184, Note_on_c, 0, 64, 80
2, 35184, Note_on_c, 0, 70, 80
2, 35184, Note_on_c, 0, 76, 80
2, 35184, Note_on_c, 0, 78, 80
2, 35229, Note_on_c, 0, 49, 0
2, 35239, Note_on_c, 0, 76, 0
2, 35239, Note_on_c, 0, 70, 0
2, 35239, Note_on_c, 0, 58, 0
2, 35239, Note_on_c, 0, 64, 0
2, 35239, Control_c, 0, 64, 0
2, 35262, Note_on_c, 0, 78, 0
2, 35268, Note_on_c, 0, 80, 80
2, 35304, Note_on_c, 0, 80, 0
2, 35310, Note_on_c, 0, 64, 80
2, 35310, Note_on_c, 0, 70, 80
2, 35310, Note_on_c, 0, 76, 80
2, 35310, Note_on_c, 0, 78, 80
2, 35312, Note_on_c, 0, 49, 80
2, 35312, Note_on_c, 0, 58, 80
2, 35386, Note_on_c, 0, 78, 0
2, 35386, Note_on_c, 0, 76, 0
2, 35395, Note_on_c, 0, 77, 80
2, 35428, Note_on_c, 0, 77, 0
2, 35428, Note_on_c, 0, 70, 0
2, 35428, Note_on_c, 0, 64, 0
2, 35428, Note_on_c, 0, 58, 0
2, 35428, Note_on_c, 0, 49, 0
2, 35434, Note_on_c, 0, 69, 80
2, 35434, Note_on_c, 0, 75, 80
2, 35436, Note_on_c, 0, 48, 80
2, 35438, Note_on_c, 0, 57, 80
2, 35438, Note_on_c, 0, 63, 80
2, 35438, Note_on_c, 0, 78, 80
2, 35481, Note_on_c, 0, 63, 0
2, 35481, Note_on_c, 0, 57, 0
2, 35481, Note_on_c, 0, 48, 0
2, 35481, Note_on_c, 0, 69, 0
2, 35481, Note_on_c, 0, 75, 0
2, 35502, Note_on_c, 0, 78, 0
2, 35523, Note_on_c, 0, 80, 80
2, 35557, Note_on_c, 0, 80, 0
2, 35564, Note_on_c, 0, 48, 80
2, 35564, Note_on_c, 0, 63, 80
2, 35564, Note_on_c, 0, 69, 80
2, 35566, Note_on_c, 0, 57, 80
2, 35566, Note_on_c, 0, 75, 80
2, 35566, Note_on_c, 0, 78, 80
2, 35640, Note_on_c, 0, 78, 0
2, 35649, Note_on_c, 0, 77, 80
2, 35682, Note_on_c, 0, 77, 0
2, 35682, Note_on_c, 0, 63, 0
2, 35682, Note_on_c, 0, 48, 0
2, 35684, Note_on_c, 0, 57, 0
2, 35684, Note_on_c, 0, 75, 0
2, 35684, Note_on_c, 0, 69, 0
2, 35690, Note_on_c, 0, 49, 80
2, 35692, Note_on_c, 0, 64, 80
2, 35692, Note_on_c, 0, 76, 80
2, 35692, Note_on_c, 0, 78, 80
2, 35694, Note_on_c, 0, 58, 80
2, 35694, Note_on_c, 0, 70, 80
2, 35725, Note_on_c, 0, 70, 0
2, 35725, Note_on_c, 0, 64, 0
2, 35725, Note_on_c, 0, 76, 0
2, 35725, Note_on_c, 0, 49, 0
2, 35725, Note_on_c, 0, 58, 0
2, 35725, Note_on_c, 0, 78, 0
2, 35781, Note_on_c, 0, 51, 80
2, 35820, Note_on_c, 0, 63, 80
2, 35820, Note_on_c, 0, 66, 80
2, 35820, Note_on_c, 0, 70, 80
2, 35820, Note_on_c, 0, 75, 80
2, 35820, Note_on_c, 0, 78, 80
2, 35897, Note_on_c, 0, 51, 0
2, 35904, Note_on_c, 0, 50, 80
2, 35937, Note_on_c, 0, 66, 0
2, 35937, Note_on_c, 0, 75, 0
2, 35937, Note_on_c, 0, 70, 0
2, 35937, Note_on_c, 0, 63, 0
2, 35937, Note_on_c, 0, 78, 0
2, 35946, Note_on_c, 0, 62, 80
2, 35946, Note_on_c, 0, 65, 80
2, 35946, Note_on_c, 0, 68, 80
2, 35946, Note_on_c, 0, 71, 80
2, 35946, Note_on_c, 0, 74, 80
2, 35946, Note_on_c, 0, 77, 80
2, 36021, Note_on_c, 0, 50, 0
2, 36027, Note_on_c, 0, 49, 80
2, 36058, Note_on_c, 0, 74, 0
2, 36058, Note_on_c, 0, 71, 0
2, 36058, Note_on_c, 0, 62, 0
2, 36058, Note_on_c, 0, 68, 0
2, 36058, Note_on_c, 0, 77, 0
2, 36060, Note_on_c, 0, 65, 0
2, 36066, Note_on_c, 0, 66, 80
2, 36066, Note_on_c, 0, 70, 80
2, 36068, Note_on_c, 0, 61, 80
2, 36068, Note_on_c, 0, 64, 80
2, 36068, Note_on_c, 0, 73, 80
2, 36068, Note_on_c, 0, 76, 80
2, 36142, Note_on_c, 0, 66, 0
2, 36142, Note_on_c, 0, 49, 0
2, 36148, Note_on_c, 0, 47, 80
2, 36184, Note_on_c, 0, 70, 0
2, 36184, Note_on_c, 0, 73, 0
2, 36184, Note_on_c, 0, 64, 0
2, 36184, Note_on_c, 0, 61, 0
2, 36184, Note_on_c, 0, 76, 0
2, 36191, Note_on_c, 0, 59, 80
2, 36191, Note_on_c, 0, 63, 80
2, 36191, Note_on_c, 0, 66, 80
2, 36191, Note_on_c, 0, 71, 80
2, 36191, Note_on_c, 0, 75, 80
2, 36232, Note_on_c, 0, 63, 0
2, 36234, Note_on_c, 0, 59, 0
2, 36234, Note_on_c, 0, 66, 0
2, 36234, Note_on_c, 0, 47, 0
2, 36234, Note_on_c, 0, 75, 0
2, 36234, Note_on_c, 0, 71, 0
2, 36314, Note_on_c, 0, 54, 80
2, 36314, Note_on_c, 0, 59, 80
2, 36314, Note_on_c, 0, 63, 80
2, 36337, Note_on_c, 0, 63, 0
2, 36337, Note_on_c, 0, 59, 0
2, 36337, Note_on_c, 0, 54, 0
2, 36400, Note_on_c, 0, 75, 80
2, 36432, Note_on_c, 0, 75, 0
2, 36443, Note_on_c, 0, 42, 80
2, 36443, Note_on_c, 0, 54, 80
2, 36443, Note_on_c, 0, 71, 80
2, 36443, Note_on_c, 0, 74, 80
2, 36484, Note_on_c, 0, 54, 0
2, 36484, Note_on_c, 0, 42, 0
2, 36524, Note_on_c, 0, 75, 80
2, 36526, Note_on_c, 0, 71, 0
2, 36526, Note_on_c, 0, 74, 0
2, 36556, Note_on_c, 0, 75, 0
2, 36563, Note_on_c, 0, 78, 80
2, 36565, Note_on_c, 0, 54, 80
2, 36565, Note_on_c, 0, 59, 80
2, 36565, Note_on_c, 0, 63, 80
2, 36588, Note_on_c, 0, 63, 0
2, 36588, Note_on_c, 0, 59, 0
2, 36588, Note_on_c, 0, 54, 0
2, 36599, Note_on_c, 0, 78, 0
2, 36650, Note_on_c, 0, 71, 80
2, 36650, Note_on_c, 0, 75, 80
2, 36650, Note_on_c, 0, 78, 80
2, 36650, Note_on_c, 0, 83, 80
2, 36672, Control_c, 0, 64, 127
2, 36682, Control_c, 0, 64, 0
2, 36691, Note_on_c, 0, 35, 80
2, 36691, Note_on_c, 0, 47, 80
2, 36732, Control_c, 0, 64, 127
2, 36734, Note_on_c, 0, 47, 0
2, 36734, Note_on_c, 0, 35, 0
2, 36767, Note_on_c, 0, 78, 0
2, 36767, Note_on_c, 0, 71, 0
2, 36767, Note_on_c, 0, 75, 0
2, 36767, Note_on_c, 0, 83, 0
2, 36773, Control_c, 0, 64, 0
2, 36773, Note_on_c, 0, 82, 80
2, 36806, Note_on_c, 0, 82, 0
2, 36813, Note_on_c, 0, 59, 80
2, 36815, Note_on_c, 0, 54, 80
2, 36815, Note_on_c, 0, 80, 80
2, 36816, Note_on_c, 0, 63, 80
2, 36816, Note_on_c, 0, 75, 80
2, 36837, Note_on_c, 0, 63, 0
2, 36839, Note_on_c, 0, 54, 0
2, 36839, Note_on_c, 0, 59, 0
2, 36892, Note_on_c, 0, 80, 0
2, 36892, Note_on_c, 0, 75, 0
2, 36940, Note_on_c, 0, 35, 80
2, 36940, Note_on_c, 0, 47, 80
2, 36940, Note_on_c, 0, 74, 80
2, 36942, Note_on_c, 0, 80, 80
2, 36975, Note_on_c, 0, 80, 0
2, 36975, Note_on_c, 0, 74, 0
2, 36984, Note_on_c, 0, 47, 0
2, 36984, Note_on_c, 0, 35, 0
2, 37021, Note_on_c, 0, 75, 80
2, 37021, Note_on_c, 0, 78, 80
2, 37062, Note_on_c, 0, 54, 80
2, 37062, Note_on_c, 0, 59, 80
2, 37062, Note_on_c, 0, 63, 80
2, 37095, Note_on_c, 0, 63, 0
2, 37095, Note_on_c, 0, 59, 0
2, 37097, Note_on_c, 0, 54, 0
2, 37134, Note_on_c, 0, 78, 0
2, 37134, Note_on_c, 0, 75, 0
2, 37181, Note_on_c, 0, 35, 80
2, 37181, Note_on_c, 0, 66, 80
2, 37181, Note_on_c, 0, 71, 80
2, 37181, Note_on_c, 0, 75, 80
2, 37183, Note_on_c, 0, 47, 80
2, 37226, Note_on_c, 0, 47, 0
2, 37226, Note_on_c, 0, 71, 0
2, 37226, Note_on_c, 0, 35, 0
2, 37226, Note_on_c, 0, 66, 0
2, 37226, Note_on_c, 0, 75, 0
2, 37307, Note_on_c, 0, 54, 80
2, 37307, Note_on_c, 0, 59, 80
2, 37307, Note_on_c, 0, 63, 80
2, 37328, Note_on_c, 0, 63, 0
2, 37328, Note_on_c, 0, 59, 0
2, 37328, Note_on_c, 0, 54, 0
2, 37389, Note_on_c, 0, 71, 80
2, 37389, Note_on_c, 0, 75, 80
2, 37422, Note_on_c, 0, 75, 0
2, 37422, Note_on_c, 0, 71, 0
2, 37429, Note_on_c, 0, 36, 80
2, 37429, Note_on_c, 0, 48, 80
2, 37429, Note_on_c, 0, 69, 80
2, 37429, Note_on_c, 0, 74, 80
2, 37493, Note_on_c, 0, 69, 0
2, 37506, Note_on_c, 0, 74, 0
2, 37514, Note_on_c, 0, 75, 80
2, 37548, Note_on_c, 0, 75, 0
2, 37557, Note_on_c, 0, 54, 80
2, 37557, Note_on_c, 0, 57, 80
2, 37557, Note_on_c, 0, 60, 80
2, 37557, Note_on_c, 0, 63, 80
2, 37557, Note_on_c, 0, 69, 80
2, 37557, Note_on_c, 0, 78, 80
2, 37580, Note_on_c, 0, 63, 0
2, 37580, Note_on_c, 0, 60, 0
2, 37582, Note_on_c, 0, 57, 0
2, 37582, Note_on_c, 0, 54, 0
2, 37630, Note_on_c, 0, 78, 0
2, 37640, Note_on_c, 0, 75, 80
2, 37674, Note_on_c, 0, 75, 0
2, 37674, Note_on_c, 0, 69, 0
2, 37674, Note_on_c, 0, 36, 0
2, 37674, Note_on_c, 0, 48, 0
2, 37682, Note_on_c, 0, 37, 80
2, 37684, Note_on_c, 0, 49, 80
2, 37684, Note_on_c, 0, 70, 80
2, 37684, Note_on_c, 0, 76, 80
2, 37729, Note_on_c, 0, 37, 0
2, 37731, Note_on_c, 0, 49, 0
2, 37742, Note_on_c, 0, 70, 0
2, 37742, Note_on_c, 0, 76, 0
2, 37819, Note_on_c, 0, 52, 80
2, 37819, Note_on_c, 0, 54, 80
2, 37819, Note_on_c, 0, 58, 80
2, 37819, Note_on_c, 0, 61, 80
2, 37819, Note_on_c, 0, 70, 80
2, 37819, Note_on_c, 0, 76, 80
2, 37842, Note_on_c, 0, 61, 0
2, 37842, Note_on_c, 0, 58, 0
2, 37842, Note_on_c, 0, 52, 0
2, 37842, Note_on_c, 0, 54, 0
2, 37894, Note_on_c, 0, 76, 0
2, 37894, Note_on_c, 0, 70, 0
2, 37902, Note_on_c, 0, 75, 80
2, 37936, Note_on_c, 0, 75, 0
2, 37944, Note_on_c, 0, 30, 80
2, 37944, Note_on_c, 0, 42, 80
2, 37944, Note_on_c, 0, 70, 80
2, 37944, Note_on_c, 0, 73, 80
2, 37986, Note_on_c, 0, 42, 0
2, 37988, Note_on_c, 0, 30, 0
2, 38018, Note_on_c, 0, 70, 0
2, 38018, Note_on_c, 0, 73, 0
2, 38025, Note_on_c, 0, 85, 80
2, 38068, Note_on_c, 0, 52, 80
2, 38068, Note_on_c, 0, 54, 80
2, 38068, Note_on_c, 0, 61, 80
2, 38068, Note_on_c, 0, 73, 80
2, 38070, Note_on_c, 0, 85, 0
2, 38070, Note_on_c, 0, 58, 80
2, 38093, Note_on_c, 0, 58, 0
2, 38093, Note_on_c, 0, 52, 0
2, 38093, Note_on_c, 0, 61, 0
2, 38093, Note_on_c, 0, 54, 0
2, 38143, Note_on_c, 0, 73, 0
2, 38150, Note_on_c, 0, 74, 80
2, 38184, Note_on_c, 0, 74, 0
2, 38190, Note_on_c, 0, 71, 80
2, 38190, Note_on_c, 0, 75, 80
2, 38192, Note_on_c, 0, 35, 80
2, 38192, Note_on_c, 0, 47, 80
2, 38233, Note_on_c, 0, 47, 0
2, 38233, Note_on_c, 0, 71, 0
2, 38233, Note_on_c, 0, 75, 0
2, 38233, Note_on_c, 0, 35, 0
2, 38316, Note_on_c, 0, 54, 80
2, 38316, Note_on_c, 0, 59, 80
2, 38316, Note_on_c, 0, 63, 80
2, 38339, Note_on_c, 0, 63, 0
2, 38339, Note_on_c, 0, 54, 0
2, 38350, Note_on_c, 0, 59, 0
2, 38401, Note_on_c, 0, 75, 80
2, 38432, Note_on_c, 0, 75, 0
2, 38441, Note_on_c, 0, 71, 80
2, 38441, Note_on_c, 0, 74, 80
2, 38443, Note_on_c, 0, 30, 80
2, 38443, Note_on_c, 0, 42, 80
2, 38486, Note_on_c, 0, 42, 0
2, 38486, Note_on_c, 0, 30, 0
2, 38517, Note_on_c, 0, 74, 0
2, 38517, Note_on_c, 0, 71, 0
2, 38523, Note_on_c, 0, 75, 80
2, 38557, Note_on_c, 0, 75, 0
2, 38564, Note_on_c, 0, 54, 80
2, 38564, Note_on_c, 0, 59, 80
2, 38564, Note_on_c, 0, 63, 80
2, 38564, Note_on_c, 0, 78, 80
2, 38587, Note_on_c, 0, 63, 0
2, 38589, Note_on_c, 0, 54, 0
2, 38589, Note_on_c, 0, 59, 0
2, 38599, Note_on_c, 0, 78, 0
2, 38640, Control_c, 0, 64, 127
2, 38649, Note_on_c, 0, 71, 80
2, 38649, Note_on_c, 0, 75, 80
2, 38649, Note_on_c, 0, 78, 80
2, 38649, Note_on_c, 0, 83, 80
2, 38690, Note_on_c, 0, 35, 80
2, 38690, Note_on_c, 0, 47, 80
2, 38734, Note_on_c, 0, 47, 0
2, 38734, Note_on_c, 0, 35, 0
2, 38742, Control_c, 0, 64, 0
2, 38755, Note_on_c, 0, 78, 0
2, 38755, Note_on_c, 0, 71, 0
2, 38755, Note_on_c, 0, 75, 0
2, 38755, Note_on_c, 0, 83, 0
2, 38775, Note_on_c, 0, 82, 80
2, 38808, Note_on_c, 0, 82, 0
2, 38814, Note_on_c, 0, 75, 80
2, 38814, Note_on_c, 0, 80, 80
2, 38816, Note_on_c, 0, 54, 80
2, 38816, Note_on_c, 0, 59, 80
2, 38816, Note_on_c, 0, 63, 80
2, 38837, Note_on_c, 0, 63, 0
2, 38839, Note_on_c, 0, 54, 0
2, 38839, Note_on_c, 0, 59, 0
2, 38880, Note_on_c, 0, 75, 0
2, 38891, Note_on_c, 0, 80, 0
2, 38941, Note_on_c, 0, 30, 80
2, 38941, Note_on_c, 0, 42, 80
2, 38941, Note_on_c, 0, 74, 80
2, 38941, Note_on_c, 0, 80, 80
2, 38953, Control_c, 0, 64, 127
2, 38975, Note_on_c, 0, 74, 0
2, 38987, Note_on_c, 0, 30, 0
2, 38987, Note_on_c, 0, 42, 0
2, 38987, Note_on_c, 0, 80, 0
2, 39024, Note_on_c, 0, 75, 80
2, 39024, Note_on_c, 0, 78, 80
2, 39026, Control_c, 0, 64, 0
2, 39064, Note_on_c, 0, 63, 80
2, 39066, Note_on_c, 0, 54, 80
2, 39066, Note_on_c, 0, 59, 80
2, 39087, Note_on_c, 0, 59, 0
2, 39087, Note_on_c, 0, 63, 0
2, 39087, Note_on_c, 0, 54, 0
2, 39128, Note_on_c, 0, 78, 0
2, 39128, Note_on_c, 0, 75, 0
2, 39188, Note_on_c, 0, 74, 80
2, 39188, Note_on_c, 0, 80, 80
2, 39190, Note_on_c, 0, 41, 80
2, 39190, Note_on_c, 0, 50, 80
2, 39190, Note_on_c, 0, 56, 80
2, 39190, Note_on_c, 0, 83, 80
2, 39233, Note_on_c, 0, 56, 0
2, 39233, Note_on_c, 0, 50, 0
2, 39233, Note_on_c, 0, 41, 0
2, 39265, Note_on_c, 0, 74, 0
2, 39265, Note_on_c, 0, 83, 0
2, 39265, Note_on_c, 0, 80, 0
2, 39272, Note_on_c, 0, 77, 80
2, 39305, Note_on_c, 0, 77, 0
2, 39312, Note_on_c, 0, 56, 80
2, 39312, Note_on_c, 0, 58, 80
2, 39312, Note_on_c, 0, 62, 80
2, 39312, Note_on_c, 0, 65, 80
2, 39312, Note_on_c, 0, 80, 80
2, 39335, Note_on_c, 0, 62, 0
2, 39335, Note_on_c, 0, 58, 0
2, 39336, Note_on_c, 0, 56, 0
2, 39336, Note_on_c, 0, 65, 0
2, 39345, Note_on_c, 0, 80, 0
2, 39393, Note_on_c, 0, 70, 80
2, 39393, Note_on_c, 0, 74, 80
2, 39393, Note_on_c, 0, 77, 80
2, 39393, Note_on_c, 0, 82, 80
2, 39438, Note_on_c, 0, 34, 80
2, 39438, Note_on_c, 0, 46, 80
2, 39478, Note_on_c, 0, 46, 0
2, 39478, Note_on_c, 0, 34, 0
2, 39506, Note_on_c, 0, 77, 0
2, 39506, Note_on_c, 0, 82, 0
2, 39508, Note_on_c, 0, 74, 0
2, 39508, Note_on_c, 0, 70, 0
2, 39515, Note_on_c, 0, 71, 80
2, 39515, Note_on_c, 0, 83, 80
2, 39549, Note_on_c, 0, 71, 0
2, 39555, Note_on_c, 0, 56, 80
2, 39555, Note_on_c, 0, 58, 80
2, 39555, Note_on_c, 0, 62, 80
2, 39555, Note_on_c, 0, 65, 80
2, 39555, Note_on_c, 0, 70, 80
2, 39555, Note_on_c, 0, 74, 80
2, 39555, Note_on_c, 0, 77, 80
2, 39555, Note_on_c, 0, 82, 80
2, 39559, Note_on_c, 0, 83, 0
2, 39580, Note_on_c, 0, 65, 0
2, 39580, Note_on_c, 0, 56, 0
2, 39580, Note_on_c, 0, 62, 0
2, 39580, Note_on_c, 0, 58, 0
2, 39628, Note_on_c, 0, 82, 0
2, 39672, Note_on_c, 0, 74, 0
2, 39672, Note_on_c, 0, 70, 0
2, 39672, Note_on_c, 0, 77, 0
2, 39678, Note_on_c, 0, 39, 80
2, 39678, Note_on_c, 0, 46, 80
2, 39678, Note_on_c, 0, 54, 80
2, 39678, Note_on_c, 0, 75, 80
2, 39678, Note_on_c, 0, 78, 80
2, 39678, Note_on_c, 0, 82, 80
2, 39678, Note_on_c, 0, 87, 80
2, 39691, Control_c, 0, 64, 127
2, 39711, Note_on_c, 0, 87, 0
2, 39711, Note_on_c, 0, 78, 0
2, 39711, Note_on_c, 0, 82, 0
2, 39713, Note_on_c, 0, 54, 0
2, 39713, Note_on_c, 0, 39, 0
2, 39713, Note_on_c, 0, 46, 0
2, 39713, Note_on_c, 0, 75, 0
2, 39767, Note_on_c, 0, 51, 80
2, 39806, Note_on_c, 0, 66, 80
2, 39808, Note_on_c, 0, 63, 80
2, 39808, Note_on_c, 0, 70, 80
2, 39808, Note_on_c, 0, 75, 80
2, 39808, Note_on_c, 0, 78, 80
2, 39831, Control_c, 0, 64, 0
2, 39881, Note_on_c, 0, 51, 0
2, 39889, Note_on_c, 0, 50, 80
2, 39922, Note_on_c, 0, 63, 0
2, 39922, Note_on_c, 0, 75, 0
2, 39922, Note_on_c, 0, 70, 0
2, 39922, Note_on_c, 0, 66, 0
2, 39922, Note_on_c, 0, 78, 0
2, 39929, Note_on_c, 0, 62, 80
2, 39929, Note_on_c, 0, 65, 80
2, 39929, Note_on_c, 0, 68, 80
2, 39929, Note_on_c, 0, 71, 80
2, 39929, Note_on_c, 0, 74, 80
2, 39929, Note_on_c, 0, 77, 80
2, 40008, Note_on_c, 0, 50, 0
2, 40013, Note_on_c, 0, 49, 80
2, 40047, Note_on_c, 0, 74, 0
2, 40047, Note_on_c, 0, 71, 0
2, 40047, Note_on_c, 0, 65, 0
2, 40047, Note_on_c, 0, 68, 0
2, 40047, Note_on_c, 0, 62, 0
2, 40047, Note_on_c, 0, 77, 0
2, 40054, Note_on_c, 0, 61, 80
2, 40054, Note_on_c, 0, 64, 80
2, 40054, Note_on_c, 0, 66, 80
2, 40054, Note_on_c, 0, 70, 80
2, 40054, Note_on_c, 0, 73, 80
2, 40054, Note_on_c, 0, 76, 80
2, 40128, Note_on_c, 0, 66, 0
2, 40130, Note_on_c, 0, 49, 0
2, 40137, Note_on_c, 0, 47, 80
2, 40170, Note_on_c, 0, 70, 0
2, 40170, Note_on_c, 0, 76, 0
2, 40172, Note_on_c, 0, 73, 0
2, 40172, Note_on_c, 0, 61, 0
2, 40172, Note_on_c, 0, 64, 0
2, 40177, Note_on_c, 0, 66, 80
2, 40177, Note_on_c, 0, 71, 80
2, 40177, Note_on_c, 0, 75, 80
2, 40179, Note_on_c, 0, 59, 80
2, 40190, Note_on_c, 0, 63, 80
2, 40223, Note_on_c, 0, 75, 0
2, 40224, Note_on_c, 0, 66, 0
2, 40224, Note_on_c, 0, 71, 0
2, 40224, Note_on_c, 0, 59, 0
2, 40224, Note_on_c, 0, 63, 0
2, 40235, Note_on_c, 0, 47, 0
2, 40310, Note_on_c, 0, 54, 80
2, 40310, Note_on_c, 0, 59, 80
2, 40310, Note_on_c, 0, 63, 80
2, 40333, Note_on_c, 0, 63, 0
2, 40335, Note_on_c, 0, 59, 0
2, 40335, Note_on_c, 0, 54, 0
2, 40385, Control_c, 0, 64, 127
2, 40392, Note_on_c, 0, 75, 80
2, 40425, Note_on_c, 0, 75, 0
2, 40434, Note_on_c, 0, 30, 80
2, 40434, Note_on_c, 0, 42, 80
2, 40434, Note_on_c, 0, 71, 80
2, 40434, Note_on_c, 0, 74, 80
2, 40481, Note_on_c, 0, 42, 0
2, 40481, Note_on_c, 0, 30, 0
2, 40489, Control_c, 0, 64, 0
2, 40511, Note_on_c, 0, 71, 0
2, 40511, Note_on_c, 0, 74, 0
2, 40523, Note_on_c, 0, 75, 80
2, 40557, Note_on_c, 0, 75, 0
2, 40567, Note_on_c, 0, 54, 80
2, 40567, Note_on_c, 0, 59, 80
2, 40567, Note_on_c, 0, 63, 80
2, 40567, Note_on_c, 0, 78, 80
2, 40590, Note_on_c, 0, 63, 0
2, 40590, Note_on_c, 0, 54, 0
2, 40590, Note_on_c, 0, 59, 0
2, 40599, Note_on_c, 0, 78, 0
2, 40647, Note_on_c, 0, 71, 80
2, 40647, Note_on_c, 0, 75, 80
2, 40647, Note_on_c, 0, 78, 80
2, 40649, Note_on_c, 0, 83, 80
2, 40688, Note_on_c, 0, 47, 80
2, 40690, Note_on_c, 0, 35, 80
2, 40729, Note_on_c, 0, 35, 0
2, 40729, Note_on_c, 0, 47, 0
2, 40760, Note_on_c, 0, 78, 0
2, 40760, Note_on_c, 0, 71, 0
2, 40760, Note_on_c, 0, 75, 0
2, 40760, Note_on_c, 0, 83, 0
2, 40769, Note_on_c, 0, 82, 80
2, 40801, Note_on_c, 0, 82, 0
2, 40810, Note_on_c, 0, 54, 80
2, 40810, Note_on_c, 0, 59, 80
2, 40810, Note_on_c, 0, 63, 80
2, 40810, Note_on_c, 0, 71, 80
2, 40810, Note_on_c, 0, 75, 80
2, 40810, Note_on_c, 0, 80, 80
2, 40833, Note_on_c, 0, 63, 0
2, 40835, Note_on_c, 0, 54, 0
2, 40844, Note_on_c, 0, 59, 0
2, 40883, Note_on_c, 0, 75, 0
2, 40885, Note_on_c, 0, 80, 0
2, 40885, Note_on_c, 0, 71, 0
2, 40935, Note_on_c, 0, 35, 80
2, 40935, Note_on_c, 0, 47, 80
2, 40935, Note_on_c, 0, 74, 80
2, 40935, Note_on_c, 0, 80, 80
2, 40968, Note_on_c, 0, 80, 0
2, 40968, Note_on_c, 0, 74, 0
2, 40980, Note_on_c, 0, 47, 0
2, 40980, Note_on_c, 0, 35, 0
2, 41017, Note_on_c, 0, 75, 80
2, 41017, Note_on_c, 0, 78, 80
2, 41059, Note_on_c, 0, 54, 80
2, 41061, Note_on_c, 0, 59, 80
2, 41061, Note_on_c, 0, 63, 80
2, 41082, Note_on_c, 0, 63, 0
2, 41082, Note_on_c, 0, 59, 0
2, 41086, Note_on_c, 0, 54, 0
2, 41127, Note_on_c, 0, 78, 0
2, 41127, Note_on_c, 0, 75, 0
2, 41147, Note_on_c, 0, 46, 80
2, 41186, Note_on_c, 0, 58, 80
2, 41186, Note_on_c, 0, 73, 80
2, 41186, Note_on_c, 0, 79, 80
2, 41186, Note_on_c, 0, 82, 80
2, 41186, Note_on_c, 0, 85, 80
2, 41230, Note_on_c, 0, 85, 0
2, 41230, Note_on_c, 0, 82, 0
2, 41232, Note_on_c, 0, 73, 0
2, 41232, Note_on_c, 0, 46, 0
2, 41232, Note_on_c, 0, 58, 0
2, 41232, Note_on_c, 0, 79, 0
2, 41273, Note_on_c, 0, 39, 80
2, 41312, Note_on_c, 0, 51, 80
2, 41312, Note_on_c, 0, 75, 80
2, 41312, Note_on_c, 0, 79, 80
2, 41312, Note_on_c, 0, 82, 80
2, 41312, Note_on_c, 0, 87, 80
2, 41316, Note_on_c, 0, 39, 0
2, 41341, Note_on_c, 0, 75, 0
2, 41341, Note_on_c, 0, 79, 0
2, 41341, Note_on_c, 0, 82, 0
2, 41341, Note_on_c, 0, 87, 0
2, 41393, Note_on_c, 0, 41, 80
2, 41393, Note_on_c, 0, 73, 80
2, 41393, Note_on_c, 0, 79, 80
2, 41393, Note_on_c, 0, 82, 80
2, 41393, Note_on_c, 0, 85, 80
2, 41426, Note_on_c, 0, 51, 0
2, 41433, Note_on_c, 0, 53, 80
2, 41435, Note_on_c, 0, 41, 0
2, 41505, Note_on_c, 0, 73, 0
2, 41505, Note_on_c, 0, 82, 0
2, 41505, Note_on_c, 0, 85, 0
2, 41514, Note_on_c, 0, 43, 80
2, 41518, Note_on_c, 0, 79, 0
2, 41548, Note_on_c, 0, 53, 0
2, 41554, Note_on_c, 0, 55, 80
2, 41554, Note_on_c, 0, 75, 80
2, 41554, Note_on_c, 0, 79, 80
2, 41554, Note_on_c, 0, 82, 80
2, 41554, Note_on_c, 0, 87, 80
2, 41560, Note_on_c, 0, 43, 0
2, 41628, Note_on_c, 0, 82, 0
2, 41630, Note_on_c, 0, 79, 0
2, 41630, Note_on_c, 0, 75, 0
2, 41630, Note_on_c, 0, 87, 0
2, 41636, Note_on_c, 0, 44, 80
2, 41636, Note_on_c, 0, 73, 80
2, 41636, Note_on_c, 0, 85, 80
2, 41661, Note_on_c, 0, 55, 0
2, 41667, Note_on_c, 0, 85, 0
2, 41669, Note_on_c, 0, 73, 0
2, 41676, Note_on_c, 0, 71, 80
2, 41676, Note_on_c, 0, 75, 80
2, 41676, Note_on_c, 0, 80, 80
2, 41676, Note_on_c, 0, 83, 80
2, 41678, Note_on_c, 0, 56, 80
2, 41717, Note_on_c, 0, 75, 0
2, 41719, Note_on_c, 0, 71, 0
2, 41719, Note_on_c, 0, 80, 0
2, 41719, Note_on_c, 0, 44, 0
2, 41719, Note_on_c, 0, 56, 0
2, 41719, Note_on_c, 0, 83, 0
2, 41759, Note_on_c, 0, 87, 80
2, 41791, Note_on_c, 0, 87, 0
2, 41798, Note_on_c, 0, 83, 80
2, 41873, Note_on_c, 0, 83, 0
2, 41880, Note_on_c, 0, 80, 80
2, 41913, Note_on_c, 0, 80, 0
2, 41922, Note_on_c, 0, 75, 80
2, 41997, Note_on_c, 0, 75, 0
2, 42005, Note_on_c, 0, 71, 80
2, 42038, Note_on_c, 0, 71, 0
2, 42047, Note_on_c, 0, 68, 80
2, 42131, Note_on_c, 0, 63, 80
2, 42133, Note_on_c, 0, 68, 0
2, 42166, Note_on_c, 0, 63, 0
2, 42172, Note_on_c, 0, 37, 80
2, 42172, Note_on_c, 0, 49, 80
2, 42172, Note_on_c, 0, 64, 80
2, 42172, Note_on_c, 0, 68, 80
2, 42172, Note_on_c, 0, 73, 80
2, 42172, Note_on_c, 0, 76, 80
2, 42216, Note_on_c, 0, 49, 0
2, 42216, Note_on_c, 0, 37, 0
2, 42249, Note_on_c, 0, 73, 0
2, 42249, Note_on_c, 0, 68, 0
2, 42249, Note_on_c, 0, 76, 0
2, 42249, Note_on_c, 0, 64, 0
2, 42303, Note_on_c, 0, 52, 80
2, 42303, Note_on_c, 0, 56, 80
2, 42303, Note_on_c, 0, 61, 80
2, 42303, Note_on_c, 0, 66, 80
2, 42303, Note_on_c, 0, 78, 80
2, 42326, Note_on_c, 0, 61, 0
2, 42326, Note_on_c, 0, 52, 0
2, 42326, Note_on_c, 0, 56, 0
2, 42335, Note_on_c, 0, 78, 0
2, 42336, Note_on_c, 0, 66, 0
2, 42386, Note_on_c, 0, 80, 80
2, 42388, Note_on_c, 0, 68, 80
2, 42388, Note_on_c, 0, 73, 80
2, 42388, Note_on_c, 0, 76, 80
2, 42432, Note_on_c, 0, 40, 80
2, 42432, Note_on_c, 0, 52, 80
2, 42473, Note_on_c, 0, 52, 0
2, 42473, Note_on_c, 0, 40, 0
2, 42504, Note_on_c, 0, 76, 0
2, 42505, Note_on_c, 0, 80, 0
2, 42505, Note_on_c, 0, 68, 0
2, 42505, Note_on_c, 0, 73, 0
2, 42514, Note_on_c, 0, 70, 80
2, 42514, Note_on_c, 0, 82, 80
2, 42547, Note_on_c, 0, 82, 0
2, 42547, Note_on_c, 0, 70, 0
2, 42555, Note_on_c, 0, 52, 80
2, 42555, Note_on_c, 0, 56, 80
2, 42555, Note_on_c, 0, 61, 80
2, 42555, Note_on_c, 0, 71, 80
2, 42555, Note_on_c, 0, 76, 80
2, 42555, Note_on_c, 0, 80, 80
2, 42555, Note_on_c, 0, 83, 80
2, 42578, Note_on_c, 0, 61, 0
2, 42578, Note_on_c, 0, 52, 0
2, 42578, Note_on_c, 0, 56, 0
2, 42628, Note_on_c, 0, 76, 0
2, 42628, Note_on_c, 0, 83, 0
2, 42628, Note_on_c, 0, 80, 0
2, 42630, Note_on_c, 0, 71, 0
2, 42680, Note_on_c, 0, 41, 80
2, 42680, Note_on_c, 0, 53, 80
2, 42680, Note_on_c, 0, 68, 80
2, 42680, Note_on_c, 0, 71, 80
2, 42680, Note_on_c, 0, 74, 80
2, 42680, Note_on_c, 0, 77, 80
2, 42680, Note_on_c, 0, 80, 80
2, 42804, Note_on_c, 0, 56, 80
2, 42804, Note_on_c, 0, 59, 80
2, 42804, Note_on_c, 0, 62, 80
2, 42804, Note_on_c, 0, 65, 80
2, 42825, Note_on_c, 0, 65, 0
2, 42825, Note_on_c, 0, 56, 0
2, 42825, Note_on_c, 0, 62, 0
2, 42825, Note_on_c, 0, 59, 0
2, 42836, Note_on_c, 0, 71, 0
2, 42877, Note_on_c, 0, 77, 0
2, 42877, Note_on_c, 0, 74, 0
2, 42877, Note_on_c, 0, 68, 0
2, 42877, Note_on_c, 0, 80, 0
2, 42889, Note_on_c, 0, 66, 80
2, 42889, Note_on_c, 0, 71, 80
2, 42889, Note_on_c, 0, 75, 80
2, 42889, Note_on_c, 0, 78, 80
2, 42922, Note_on_c, 0, 41, 0
2, 42922, Note_on_c, 0, 53, 0
2, 42931, Note_on_c, 0, 42, 80
2, 42931, Note_on_c, 0, 54, 80
2, 43006, Note_on_c, 0, 54, 0
2, 43006, Note_on_c, 0, 42, 0
2, 43016, Note_on_c, 0, 46, 80
2, 43016, Note_on_c, 0, 58, 80
2, 43049, Note_on_c, 0, 58, 0
2, 43051, Note_on_c, 0, 46, 0
2, 43057, Note_on_c, 0, 44, 80
2, 43057, Note_on_c, 0, 56, 80
2, 43059, Note_on_c, 0, 78, 0
2, 43080, Note_on_c, 0, 78, 80
2, 43132, Note_on_c, 0, 44, 0
2, 43134, Note_on_c, 0, 56, 0
2, 43134, Note_on_c, 0, 66, 0
2, 43134, Note_on_c, 0, 71, 0
2, 43134, Note_on_c, 0, 78, 0
2, 43134, Note_on_c, 0, 75, 0
2, 43141, Note_on_c, 0, 43, 80
2, 43141, Note_on_c, 0, 55, 80
2, 43178, Note_on_c, 0, 55, 0
2, 43178, Note_on_c, 0, 43, 0
2, 43185, Note_on_c, 0, 42, 80
2, 43185, Note_on_c, 0, 54, 80
2, 43185, Note_on_c, 0, 70, 80
2, 43185, Note_on_c, 0, 76, 80
2, 43185, Note_on_c, 0, 80, 80
2, 43219, Note_on_c, 0, 80, 0
2, 43219, Note_on_c, 0, 70, 0
2, 43219, Note_on_c, 0, 76, 0
2, 43271, Note_on_c, 0, 70, 80
2, 43271, Note_on_c, 0, 76, 80
2, 43271, Note_on_c, 0, 78, 80
2, 43294, Note_on_c, 0, 54, 0
2, 43294, Note_on_c, 0, 42, 0
2, 43314, Note_on_c, 0, 44, 80
2, 43314, Note_on_c, 0, 56, 80
2, 43339, Note_on_c, 0, 76, 0
2, 43339, Note_on_c, 0, 78, 0
2, 43339, Note_on_c, 0, 70, 0
2, 43399, Note_on_c, 0, 70, 80
2, 43399, Note_on_c, 0, 76, 80
2, 43399, Note_on_c, 0, 78, 80
2, 43422, Note_on_c, 0, 44, 0
2, 43424, Note_on_c, 0, 56, 0
2, 43442, Note_on_c, 0, 46, 80
2, 43442, Note_on_c, 0, 58, 80
2, 43505, Note_on_c, 0, 76, 0
2, 43505, Note_on_c, 0, 78, 0
2, 43505, Note_on_c, 0, 70, 0
2, 43525, Note_on_c, 0, 80, 80
2, 43556, Note_on_c, 0, 80, 0
2, 43556, Note_on_c, 0, 46, 0
2, 43556, Note_on_c, 0, 58, 0
2, 43566, Note_on_c, 0, 42, 80
2, 43566, Note_on_c, 0, 54, 80
2, 43566, Note_on_c, 0, 70, 80
2, 43566, Note_on_c, 0, 76, 80
2, 43566, Note_on_c, 0, 78, 80
2, 43636, Note_on_c, 0, 78, 0
2, 43636, Note_on_c, 0, 70, 0
2, 43636, Note_on_c, 0, 76, 0
2, 43669, Note_on_c, 0, 54, 0
2, 43669, Note_on_c, 0, 42, 0
2, 43687, Note_on_c, 0, 47, 80
2, 43687, Note_on_c, 0, 59, 80
2, 43687, Note_on_c, 0, 71, 80
2, 43687, Note_on_c, 0, 75, 80
2, 43687, Note_on_c, 0, 78, 80
2, 43689, Note_on_c, 0, 83, 80
2, 43732, Note_on_c, 0, 83, 0
2, 43732, Note_on_c, 0, 59, 0
2, 43732, Note_on_c, 0, 71, 0
2, 43732, Note_on_c, 0, 47, 0
2, 43732, Note_on_c, 0, 78, 0
2, 43732, Note_on_c, 0, 75, 0
2, 43811, Note_on_c, 0, 63, 80
2, 43811, Note_on_c, 0, 75, 80
2, 43811, Note_on_c, 0, 87, 80
2, 43847, Note_on_c, 0, 75, 0
2, 43847, Note_on_c, 0, 63, 0
2, 43855, Control_c, 0, 64, 127
2, 43857, Note_on_c, 0, 87, 0
2, 43893, Note_on_c, 0, 64, 80
2, 43893, Note_on_c, 0, 76, 80
2, 43893, Note_on_c, 0, 88, 80
2, 43957, Control_c, 0, 64, 0
2, 43992, Note_on_c, 0, 76, 0
2, 43994, Note_on_c, 0, 64, 0
2, 44013, Note_on_c, 0, 62, 80
2, 44013, Note_on_c, 0, 74, 80
2, 44013, Note_on_c, 0, 86, 80
2, 44016, Note_on_c, 0, 88, 0
2, 44043, Note_on_c, 0, 62, 0
2, 44043, Note_on_c, 0, 74, 0
2, 44043, Note_on_c, 0, 86, 0
2, 44049, Note_on_c, 0, 87, 80
2, 44051, Note_on_c, 0, 63, 80
2, 44051, Note_on_c, 0, 75, 80
2, 44125, Note_on_c, 0, 75, 0
2, 44125, Note_on_c, 0, 63, 0
2, 44134, Note_on_c, 0, 87, 0
2, 44177, Note_on_c, 0, 51, 80
2, 44177, Note_on_c, 0, 63, 80
2, 44177, Note_on_c, 0, 67, 80
2, 44177, Note_on_c, 0, 70, 80
2, 44177, Note_on_c, 0, 75, 80
2, 44249, Note_on_c, 0, 70, 0
2, 44251, Note_on_c, 0, 67, 0
2, 44251, Note_on_c, 0, 75, 0
2, 44257, Note_on_c, 0, 65, 80
2, 44257, Note_on_c, 0, 77, 80
2, 44290, Note_on_c, 0, 77, 0
2, 44290, Note_on_c, 0, 51, 0
2, 44290, Note_on_c, 0, 63, 0
2, 44292, Note_on_c, 0, 65, 0
2, 44298, Note_on_c, 0, 67, 80
2, 44298, Note_on_c, 0, 79, 80
2, 44300, Note_on_c, 0, 49, 80
2, 44300, Note_on_c, 0, 61, 80
2, 44364, Note_on_c, 0, 79, 0
2, 44373, Note_on_c, 0, 67, 0
2, 44381, Note_on_c, 0, 68, 80
2, 44381, Note_on_c, 0, 80, 80
2, 44415, Note_on_c, 0, 80, 0
2, 44415, Note_on_c, 0, 61, 0
2, 44415, Note_on_c, 0, 49, 0
2, 44415, Note_on_c, 0, 68, 0
2, 44424, Note_on_c, 0, 47, 80
2, 44424, Note_on_c, 0, 59, 80
2, 44424, Note_on_c, 0, 70, 80
2, 44424, Note_on_c, 0, 82, 80
2, 44498, Note_on_c, 0, 82, 0
2, 44498, Note_on_c, 0, 70, 0
2, 44505, Note_on_c, 0, 71, 80
2, 44507, Note_on_c, 0, 83, 80
2, 44541, Note_on_c, 0, 71, 0
2, 44541, Note_on_c, 0, 47, 0
2, 44541, Note_on_c, 0, 59, 0
2, 44546, Note_on_c, 0, 46, 80
2, 44546, Note_on_c, 0, 58, 80
2, 44546, Note_on_c, 0, 73, 80
2, 44546, Note_on_c, 0, 85, 80
2, 44550, Note_on_c, 0, 83, 0
2, 44625, Note_on_c, 0, 73, 0
2, 44631, Note_on_c, 0, 75, 80
2, 44631, Note_on_c, 0, 87, 80
2, 44635, Note_on_c, 0, 85, 0
2, 44647, Note_on_c, 0, 75, 0
2, 44668, Note_on_c, 0, 46, 0
2, 44668, Note_on_c, 0, 58, 0
2, 44674, Note_on_c, 0, 75, 80
2, 44674, Note_on_c, 0, 80, 80
2, 44674, Note_on_c, 0, 85, 80
2, 44676, Note_on_c, 0, 44, 80
2, 44676, Note_on_c, 0, 56, 80
2, 44678, Note_on_c, 0, 87, 0
2, 44721, Note_on_c, 0, 44, 0
2, 44721, Note_on_c, 0, 56, 0
2, 44752, Note_on_c, 0, 75, 0
2, 44762, Note_on_c, 0, 80, 0
2, 44762, Note_on_c, 0, 85, 0
2, 44762, Note_on_c, 0, 83, 80
2, 44796, Note_on_c, 0, 83, 0
2, 44803, Note_on_c, 0, 51, 80
2, 44803, Note_on_c, 0, 82, 80
2, 44805, Note_on_c, 0, 56, 80
2, 44805, Note_on_c, 0, 59, 80
2, 44828, Note_on_c, 0, 59, 0
2, 44828, Note_on_c, 0, 56, 0
2, 44828, Note_on_c, 0, 51, 0
2, 44836, Note_on_c, 0, 82, 0
2, 44890, Note_on_c, 0, 75, 80
2, 44890, Note_on_c, 0, 80, 80
2, 44890, Note_on_c, 0, 83, 80
2, 44935, Note_on_c, 0, 39, 80
2, 44935, Note_on_c, 0, 51, 80
2, 44976, Note_on_c, 0, 51, 0
2, 44978, Note_on_c, 0, 39, 0
2, 45007, Note_on_c, 0, 75, 0
2, 45007, Note_on_c, 0, 80, 0
2, 45007, Note_on_c, 0, 83, 0
2, 45018, Note_on_c, 0, 73, 80
2, 45018, Note_on_c, 0, 82, 80
2, 45050, Note_on_c, 0, 82, 0
2, 45050, Note_on_c, 0, 73, 0
2, 45059, Note_on_c, 0, 71, 80
2, 45059, Note_on_c, 0, 75, 80
2, 45059, Note_on_c, 0, 80, 80
2, 45061, Note_on_c, 0, 51, 80
2, 45061, Note_on_c, 0, 56, 80
2, 45061, Note_on_c, 0, 59, 80
2, 45082, Note_on_c, 0, 59, 0
2, 45084, Note_on_c, 0, 51, 0
2, 45084, Note_on_c, 0, 56, 0
2, 45136, Note_on_c, 0, 71, 0
2, 45136, Note_on_c, 0, 80, 0
2, 45136, Note_on_c, 0, 75, 0
2, 45186, Note_on_c, 0, 79, 80
2, 45188, Note_on_c, 0, 34, 80
2, 45188, Note_on_c, 0, 46, 80
2, 45188, Note_on_c, 0, 73, 80
2, 45188, Note_on_c, 0, 83, 80
2, 45231, Note_on_c, 0, 46, 0
2, 45231, Note_on_c, 0, 34, 0
2, 45268, Note_on_c, 0, 82, 80
2, 45272, Note_on_c, 0, 79, 0
2, 45272, Note_on_c, 0, 83, 0
2, 45272, Note_on_c, 0, 73, 0
2, 45305, Note_on_c, 0, 82, 0
2, 45311, Note_on_c, 0, 81, 80
2, 45312, Note_on_c, 0, 51, 80
2, 45312, Note_on_c, 0, 55, 80
2, 45312, Note_on_c, 0, 61, 80
2, 45337, Note_on_c, 0, 61, 0
2, 45337, Note_on_c, 0, 55, 0
2, 45337, Note_on_c, 0, 51, 0
2, 45346, Note_on_c, 0, 81, 0
2, 45387, Control_c, 0, 64, 127
2, 45396, Note_on_c, 0, 73, 80
2, 45396, Note_on_c, 0, 79, 80
2, 45396, Note_on_c, 0, 82, 80
2, 45437, Note_on_c, 0, 27, 80
2, 45439, Note_on_c, 0, 39, 80
2, 45482, Note_on_c, 0, 39, 0
2, 45482, Note_on_c, 0, 27, 0
2, 45511, Note_on_c, 0, 73, 0
2, 45511, Note_on_c, 0, 79, 0
2, 45511, Note_on_c, 0, 82, 0
2, 45520, Note_on_c, 0, 71, 80
2, 45520, Note_on_c, 0, 80, 80
2, 45524, Control_c, 0, 64, 0
2, 45552, Note_on_c, 0, 80, 0
2, 45552, Note_on_c, 0, 71, 0
2, 45559, Note_on_c, 0, 51, 80
2, 45559, Note_on_c, 0, 55, 80
2, 45559, Note_on_c, 0, 61, 80
2, 45559, Note_on_c, 0, 70, 80
2, 45559, Note_on_c, 0, 79, 80
2, 45582, Note_on_c, 0, 61, 0
2, 45582, Note_on_c, 0, 51, 0
2, 45584, Note_on_c, 0, 55, 0
2, 45632, Note_on_c, 0, 79, 0
2, 45632, Note_on_c, 0, 70, 0
2, 45682, Note_on_c, 0, 32, 80
2, 45682, Note_on_c, 0, 44, 80
2, 45682, Note_on_c, 0, 71, 80
2, 45682, Note_on_c, 0, 75, 80
2, 45682, Note_on_c, 0, 82, 80
2, 45725, Note_on_c, 0, 44, 0
2, 45727, Note_on_c, 0, 32, 0
2, 45756, Note_on_c, 0, 75, 0
2, 45756, Note_on_c, 0, 71, 0
2, 45756, Note_on_c, 0, 82, 0
2, 45765, Note_on_c, 0, 80, 80
2, 45806, Note_on_c, 0, 79, 80
2, 45808, Note_on_c, 0, 51, 80
2, 45808, Note_on_c, 0, 56, 80
2, 45808, Note_on_c, 0, 59, 80
2, 45820, Note_on_c, 0, 80, 0
2, 45831, Note_on_c, 0, 51, 0
2, 45833, Note_on_c, 0, 56, 0
2, 45841, Note_on_c, 0, 59, 0
2, 45850, Note_on_c, 0, 79, 0
2, 45889, Note_on_c, 0, 71, 80
2, 45889, Note_on_c, 0, 75, 80
2, 45889, Note_on_c, 0, 80, 80
2, 45931, Note_on_c, 0, 35, 80
2, 45931, Note_on_c, 0, 47, 80
2, 45976, Note_on_c, 0, 35, 0
2, 45986, Note_on_c, 0, 47, 0
2, 46008, Note_on_c, 0, 71, 0
2, 46008, Note_on_c, 0, 75, 0
2, 46008, Note_on_c, 0, 80, 0
2, 46014, Note_on_c, 0, 74, 80
2, 46048, Note_on_c, 0, 74, 0
2, 46055, Note_on_c, 0, 51, 80
2, 46055, Note_on_c, 0, 56, 80
2, 46055, Note_on_c, 0, 59, 80
2, 46055, Note_on_c, 0, 75, 80
2, 46080, Note_on_c, 0, 59, 0
2, 46080, Note_on_c, 0, 51, 0
2, 46080, Note_on_c, 0, 56, 0
2, 46121, Note_on_c, 0, 75, 0
2, 46180, Note_on_c, 0, 63, 80
2, 46180, Note_on_c, 0, 67, 80
2, 46180, Note_on_c, 0, 70, 80
2, 46180, Note_on_c, 0, 75, 80
2, 46182, Note_on_c, 0, 51, 80
2, 46254, Note_on_c, 0, 75, 0
2, 46254, Note_on_c, 0, 70, 0
2, 46254, Note_on_c, 0, 67, 0
2, 46263, Note_on_c, 0, 65, 80
2, 46263, Note_on_c, 0, 77, 80
2, 46296, Note_on_c, 0, 77, 0
2, 46296, Note_on_c, 0, 51, 0
2, 46296, Note_on_c, 0, 63, 0
2, 46296, Note_on_c, 0, 65, 0
2, 46302, Note_on_c, 0, 79, 80
2, 46304, Note_on_c, 0, 49, 80
2, 46304, Note_on_c, 0, 61, 80
2, 46304, Note_on_c, 0, 67, 80
2, 46376, Note_on_c, 0, 67, 0
2, 46383, Note_on_c, 0, 68, 80
2, 46383, Note_on_c, 0, 80, 80
2, 46387, Note_on_c, 0, 79, 0
2, 46417, Note_on_c, 0, 68, 0
2, 46417, Note_on_c, 0, 61, 0
2, 46419, Note_on_c, 0, 49, 0
2, 46423, Note_on_c, 0, 47, 80
2, 46423, Note_on_c, 0, 59, 80
2, 46423, Note_on_c, 0, 70, 80
2, 46423, Note_on_c, 0, 82, 80
2, 46427, Note_on_c, 0, 80, 0
2, 46499, Note_on_c, 0, 70, 0
2, 46499, Note_on_c, 0, 82, 0
2, 46506, Note_on_c, 0, 83, 80
2, 46508, Note_on_c, 0, 71, 80
2, 46540, Note_on_c, 0, 71, 0
2, 46540, Note_on_c, 0, 83, 0
2, 46542, Note_on_c, 0, 59, 0
2, 46542, Note_on_c, 0, 47, 0
2, 46548, Note_on_c, 0, 73, 80
2, 46548, Note_on_c, 0, 85, 80
2, 46550, Note_on_c, 0, 46, 80
2, 46550, Note_on_c, 0, 58, 80
2, 46614, Note_on_c, 0, 85, 0
2, 46623, Note_on_c, 0, 73, 0
2, 46633, Note_on_c, 0, 75, 80
2, 46633, Note_on_c, 0, 87, 80
2, 46646, Note_on_c, 0, 75, 0
2, 46667, Note_on_c, 0, 87, 0
2, 46669, Note_on_c, 0, 46, 0
2, 46669, Note_on_c, 0, 58, 0
2, 46675, Note_on_c, 0, 44, 80
2, 46675, Note_on_c, 0, 56, 80
2, 46675, Note_on_c, 0, 75, 80
2, 46675, Note_on_c, 0, 80, 80
2, 46675, Note_on_c, 0, 85, 80
2, 46722, Note_on_c, 0, 56, 0
2, 46722, Note_on_c, 0, 44, 0
2, 46742, Note_on_c, 0, 85, 0
2, 46752, Note_on_c, 0, 75, 0
2, 46752, Note_on_c, 0, 80, 0
2, 46759, Note_on_c, 0, 83, 80
2, 46784, Note_on_c, 0, 83, 0
2, 46800, Note_on_c, 0, 82, 80
2, 46802, Note_on_c, 0, 51, 80
2, 46802, Note_on_c, 0, 56, 80
2, 46802, Note_on_c, 0, 59, 80
2, 46829, Note_on_c, 0, 59, 0
2, 46829, Note_on_c, 0, 56, 0
2, 46829, Note_on_c, 0, 51, 0
2, 46838, Note_on_c, 0, 82, 0
2, 46888, Note_on_c, 0, 75, 80
2, 46888, Note_on_c, 0, 80, 80
2, 46888, Note_on_c, 0, 83, 80
2, 46933, Note_on_c, 0, 27, 80
2, 46933, Note_on_c, 0, 39, 80
2, 46978, Note_on_c, 0, 39, 0
2, 46978, Note_on_c, 0, 27, 0
2, 47009, Note_on_c, 0, 75, 0
2, 47009, Note_on_c, 0, 80, 0
2, 47009, Note_on_c, 0, 83, 0
2, 47016, Note_on_c, 0, 82, 80
2, 47017, Note_on_c, 0, 73, 80
2, 47050, Note_on_c, 0, 73, 0
2, 47050, Note_on_c, 0, 82, 0
2, 47056, Note_on_c, 0, 75, 80
2, 47056, Note_on_c, 0, 80, 80
2, 47058, Note_on_c, 0, 51, 80
2, 47058, Note_on_c, 0, 56, 80
2, 47058, Note_on_c, 0, 59, 80
2, 47058, Note_on_c, 0, 71, 80
2, 47085, Note_on_c, 0, 59, 0
2, 47085, Note_on_c, 0, 56, 0
2, 47085, Note_on_c, 0, 51, 0
2, 47120, Note_on_c, 0, 75, 0
2, 47122, Note_on_c, 0, 71, 0
2, 47131, Note_on_c, 0, 80, 0
2, 47181, Note_on_c, 0, 56, 80
2, 47181, Note_on_c, 0, 68, 80
2, 47181, Note_on_c, 0, 74, 80
2, 47181, Note_on_c, 0, 77, 80
2, 47181, Note_on_c, 0, 80, 80
2, 47195, Note_on_c, 0, 41, 80
2, 47228, Note_on_c, 0, 41, 0
2, 47244, Note_on_c, 0, 77, 0
2, 47244, Note_on_c, 0, 74, 0
2, 47244, Note_on_c, 0, 80, 0
2, 47246, Note_on_c, 0, 68, 0
2, 47264, Note_on_c, 0, 71, 80
2, 47264, Note_on_c, 0, 83, 80
2, 47297, Note_on_c, 0, 83, 0
2, 47297, Note_on_c, 0, 71, 0
2, 47297, Note_on_c, 0, 56, 0
2, 47305, Note_on_c, 0, 39, 80
2, 47305, Note_on_c, 0, 54, 80
2, 47305, Note_on_c, 0, 70, 80
2, 47305, Note_on_c, 0, 82, 80
2, 47339, Note_on_c, 0, 82, 0
2, 47339, Note_on_c, 0, 70, 0
2, 47352, Note_on_c, 0, 39, 0
2, 47389, Note_on_c, 0, 68, 80
2, 47389, Note_on_c, 0, 74, 80
2, 47389, Note_on_c, 0, 77, 80
2, 47389, Note_on_c, 0, 80, 80
2, 47423, Note_on_c, 0, 54, 0
2, 47431, Note_on_c, 0, 38, 80
2, 47431, Note_on_c, 0, 53, 80
2, 47474, Note_on_c, 0, 53, 0
2, 47474, Note_on_c, 0, 38, 0
2, 47505, Note_on_c, 0, 80, 0
2, 47505, Note_on_c, 0, 68, 0
2, 47505, Note_on_c, 0, 74, 0
2, 47505, Note_on_c, 0, 77, 0
2, 47514, Note_on_c, 0, 70, 80
2, 47514, Note_on_c, 0, 82, 80
2, 47547, Note_on_c, 0, 82, 0
2, 47547, Note_on_c, 0, 70, 0
2, 47554, Note_on_c, 0, 53, 80
2, 47554, Note_on_c, 0, 62, 80
2, 47554, Note_on_c, 0, 68, 80
2, 47554, Note_on_c, 0, 74, 80
2, 47554, Note_on_c, 0, 77, 80
2, 47556, Note_on_c, 0, 56, 80
2, 47556, Note_on_c, 0, 58, 80
2, 47556, Note_on_c, 0, 80, 80
2, 47579, Note_on_c, 0, 58, 0
2, 47579, Note_on_c, 0, 53, 0
2, 47579, Note_on_c, 0, 62, 0
2, 47579, Note_on_c, 0, 56, 0
2, 47664, Note_on_c, 0, 77, 0
2, 47664, Note_on_c, 0, 74, 0
2, 47674, Note_on_c, 0, 68, 0
2, 47674, Note_on_c, 0, 80, 0
2, 47681, Note_on_c, 0, 46, 80
2, 47681, Note_on_c, 0, 55, 80
2, 47681, Note_on_c, 0, 70, 80
2, 47681, Note_on_c, 0, 75, 80
2, 47681, Note_on_c, 0, 79, 80
2, 47681, Note_on_c, 0, 82, 80
2, 47683, Note_on_c, 0, 39, 80
2, 47745, Note_on_c, 0, 39, 0
2, 47745, Note_on_c, 0, 55, 0
2, 47756, Note_on_c, 0, 70, 0
2, 47756, Note_on_c, 0, 75, 0
2, 47756, Note_on_c, 0, 46, 0
2, 47756, Note_on_c, 0, 82, 0
2, 47766, Note_on_c, 0, 79, 0
2, 47804, Note_on_c, 0, 51, 80
2, 47804, Note_on_c, 0, 63, 80
2, 47804, Note_on_c, 0, 75, 80
2, 47837, Note_on_c, 0, 75, 0
2, 47837, Note_on_c, 0, 63, 0
2, 47837, Note_on_c, 0, 51, 0
2, 47887, Note_on_c, 0, 64, 80
2, 47887, Note_on_c, 0, 76, 80
2, 47889, Note_on_c, 0, 52, 80
2, 47997, Note_on_c, 0, 76, 0
2, 47999, Note_on_c, 0, 52, 0
2, 48009, Note_on_c, 0, 64, 0
2, 48016, Note_on_c, 0, 50, 80
2, 48016, Note_on_c, 0, 62, 80
2, 48016, Note_on_c, 0, 74, 80
2, 48048, Note_on_c, 0, 74, 0
2, 48048, Note_on_c, 0, 62, 0
2, 48048, Note_on_c, 0, 50, 0
2, 48055, Note_on_c, 0, 51, 80
2, 48057, Note_on_c, 0, 63, 80
2, 48057, Note_on_c, 0, 75, 80
2, 48100, Note_on_c, 0, 75, 0
2, 48100, Note_on_c, 0, 63, 0
2, 48100, Control_c, 0, 64, 127
2, 48102, Note_on_c, 0, 51, 0
2, 48183, Note_on_c, 0, 51, 80
2, 48183, Note_on_c, 0, 63, 80
2, 48183, Note_on_c, 0, 67, 80
2, 48183, Note_on_c, 0, 70, 80
2, 48183, Note_on_c, 0, 75, 80
2, 48206, Control_c, 0, 64, 0
2, 48256, Note_on_c, 0, 75, 0
2, 48256, Note_on_c, 0, 67, 0
2, 48256, Note_on_c, 0, 70, 0
2, 48264, Note_on_c, 0, 65, 80
2, 48264, Note_on_c, 0, 77, 80
2, 48297, Note_on_c, 0, 77, 0
2, 48297, Note_on_c, 0, 51, 0
2, 48297, Note_on_c, 0, 63, 0
2, 48297, Note_on_c, 0, 65, 0
2, 48304, Note_on_c, 0, 67, 80
2, 48304, Note_on_c, 0, 79, 80
2, 48306, Note_on_c, 0, 49, 80
2, 48306, Note_on_c, 0, 61, 80
2, 48368, Note_on_c, 0, 67, 0
2, 48379, Note_on_c, 0, 79, 0
2, 48385, Note_on_c, 0, 68, 80
2, 48385, Note_on_c, 0, 80, 80
2, 48419, Note_on_c, 0, 80, 0
2, 48421, Note_on_c, 0, 61, 0
2, 48421, Note_on_c, 0, 49, 0
2, 48421, Note_on_c, 0, 68, 0
2, 48428, Note_on_c, 0, 59, 80
2, 48428, Note_on_c, 0, 70, 80
2, 48428, Note_on_c, 0, 82, 80
2, 48430, Note_on_c, 0, 47, 80
2, 48504, Note_on_c, 0, 82, 0
2, 48504, Note_on_c, 0, 70, 0
2, 48513, Note_on_c, 0, 71, 80
2, 48513, Note_on_c, 0, 83, 80
2, 48547, Note_on_c, 0, 83, 0
2, 48547, Note_on_c, 0, 47, 0
2, 48547, Note_on_c, 0, 59, 0
2, 48547, Note_on_c, 0, 71, 0
2, 48553, Note_on_c, 0, 46, 80
2, 48553, Note_on_c, 0, 58, 80
2, 48553, Note_on_c, 0, 73, 80
2, 48553, Note_on_c, 0, 85, 80
2, 48616, Note_on_c, 0, 85, 0
2, 48618, Note_on_c, 0, 73, 0
2, 48636, Note_on_c, 0, 87, 80
2, 48672, Note_on_c, 0, 87, 0
2, 48672, Note_on_c, 0, 58, 0
2, 48672, Note_on_c, 0, 46, 0
2, 48677, Note_on_c, 0, 56, 80
2, 48677, Note_on_c, 0, 75, 80
2, 48677, Note_on_c, 0, 80, 80
2, 48677, Note_on_c, 0, 85, 80
2, 48679, Note_on_c, 0, 44, 80
2, 48720, Note_on_c, 0, 44, 0
2, 48722, Note_on_c, 0, 56, 0
2, 48751, Note_on_c, 0, 75, 0
2, 48751, Note_on_c, 0, 80, 0
2, 48751, Note_on_c, 0, 85, 0
2, 48760, Note_on_c, 0, 83, 80
2, 48792, Note_on_c, 0, 83, 0
2, 48803, Note_on_c, 0, 51, 80
2, 48803, Note_on_c, 0, 56, 80
2, 48803, Note_on_c, 0, 59, 80
2, 48803, Note_on_c, 0, 82, 80
2, 48824, Note_on_c, 0, 59, 0
2, 48824, Note_on_c, 0, 51, 0
2, 48826, Note_on_c, 0, 56, 0
2, 48835, Note_on_c, 0, 82, 0
2, 48887, Note_on_c, 0, 75, 80
2, 48887, Note_on_c, 0, 80, 80
2, 48887, Note_on_c, 0, 83, 80
2, 48910, Control_c, 0, 64, 127
2, 48928, Note_on_c, 0, 39, 80
2, 48928, Note_on_c, 0, 51, 80
2, 48971, Note_on_c, 0, 39, 0
2, 48980, Note_on_c, 0, 51, 0
2, 49008, Control_c, 0, 64, 0
2, 49008, Note_on_c, 0, 73, 80
2, 49008, Note_on_c, 0, 82, 80
2, 49010, Note_on_c, 0, 75, 0
2, 49010, Note_on_c, 0, 83, 0
2, 49010, Note_on_c, 0, 80, 0
2, 49043, Note_on_c, 0, 73, 0
2, 49043, Note_on_c, 0, 82, 0
2, 49050, Note_on_c, 0, 51, 80
2, 49050, Note_on_c, 0, 56, 80
2, 49050, Note_on_c, 0, 71, 80
2, 49050, Note_on_c, 0, 80, 80
2, 49054, Note_on_c, 0, 59, 80
2, 49075, Note_on_c, 0, 59, 0
2, 49075, Note_on_c, 0, 51, 0
2, 49075, Note_on_c, 0, 56, 0
2, 49116, Note_on_c, 0, 71, 0
2, 49116, Note_on_c, 0, 80, 0
2, 49176, Note_on_c, 0, 46, 80
2, 49176, Note_on_c, 0, 73, 80
2, 49176, Note_on_c, 0, 79, 80
2, 49176, Note_on_c, 0, 83, 80
2, 49177, Note_on_c, 0, 34, 80
2, 49221, Note_on_c, 0, 34, 0
2, 49221, Note_on_c, 0, 46, 0
2, 49242, Note_on_c, 0, 73, 0
2, 49242, Note_on_c, 0, 79, 0
2, 49242, Note_on_c, 0, 83, 0
2, 49260, Note_on_c, 0, 82, 80
2, 49296, Note_on_c, 0, 82, 0
2, 49301, Note_on_c, 0, 81, 80
2, 49303, Note_on_c, 0, 51, 80
2, 49303, Note_on_c, 0, 55, 80
2, 49303, Note_on_c, 0, 61, 80
2, 49326, Note_on_c, 0, 61, 0
2, 49328, Note_on_c, 0, 55, 0
2, 49328, Note_on_c, 0, 51, 0
2, 49335, Note_on_c, 0, 81, 0
2, 49387, Note_on_c, 0, 73, 80
2, 49387, Note_on_c, 0, 79, 80
2, 49387, Note_on_c, 0, 82, 80
2, 49410, Control_c, 0, 64, 127
2, 49430, Note_on_c, 0, 27, 80
2, 49430, Note_on_c, 0, 39, 80
2, 49477, Note_on_c, 0, 39, 0
2, 49477, Note_on_c, 0, 27, 0
2, 49495, Note_on_c, 0, 82, 0
2, 49497, Note_on_c, 0, 73, 0
2, 49515, Note_on_c, 0, 71, 80
2, 49515, Note_on_c, 0, 80, 80
2, 49517, Control_c, 0, 64, 0
2, 49519, Note_on_c, 0, 79, 0
2, 49552, Note_on_c, 0, 71, 0
2, 49558, Note_on_c, 0, 55, 80
2, 49560, Note_on_c, 0, 51, 80
2, 49560, Note_on_c, 0, 61, 80
2, 49560, Note_on_c, 0, 70, 80
2, 49560, Note_on_c, 0, 79, 80
2, 49561, Note_on_c, 0, 80, 0
2, 49583, Note_on_c, 0, 55, 0
2, 49583, Note_on_c, 0, 51, 0
2, 49593, Note_on_c, 0, 61, 0
2, 49647, Note_on_c, 0, 70, 0
2, 49647, Note_on_c, 0, 79, 0
2, 49686, Note_on_c, 0, 32, 80
2, 49686, Note_on_c, 0, 44, 80
2, 49686, Note_on_c, 0, 71, 80
2, 49686, Note_on_c, 0, 75, 80
2, 49686, Note_on_c, 0, 82, 80
2, 49729, Note_on_c, 0, 44, 0
2, 49731, Note_on_c, 0, 32, 0
2, 49752, Note_on_c, 0, 71, 0
2, 49765, Note_on_c, 0, 75, 0
2, 49765, Note_on_c, 0, 82, 0
2, 49772, Note_on_c, 0, 80, 80
2, 49807, Note_on_c, 0, 80, 0
2, 49814, Note_on_c, 0, 51, 80
2, 49814, Note_on_c, 0, 56, 80
2, 49814, Note_on_c, 0, 59, 80
2, 49814, Note_on_c, 0, 79, 80
2, 49839, Note_on_c, 0, 59, 0
2, 49839, Note_on_c, 0, 51, 0
2, 49839, Note_on_c, 0, 56, 0
2, 49848, Note_on_c, 0, 79, 0
2, 49896, Note_on_c, 0, 71, 80
2, 49896, Note_on_c, 0, 75, 80
2, 49897, Note_on_c, 0, 80, 80
2, 49939, Note_on_c, 0, 47, 80
2, 49939, Note_on_c, 0, 59, 80
2, 49969, Note_on_c, 0, 80, 0
2, 50009, Note_on_c, 0, 75, 0
2, 50011, Note_on_c, 0, 59, 0
2, 50011, Note_on_c, 0, 71, 0
2, 50017, Note_on_c, 0, 80, 80
2, 50021, Note_on_c, 0, 47, 0
2, 50028, Note_on_c, 0, 80, 0
2, 50057, Note_on_c, 0, 51, 80
2, 50061, Note_on_c, 0, 63, 80
2, 50061, Note_on_c, 0, 71, 80
2, 50061, Note_on_c, 0, 75, 80
2, 50061, Note_on_c, 0, 80, 80
2, 50131, Note_on_c, 0, 80, 0
2, 50131, Note_on_c, 0, 71, 0
2, 50131, Note_on_c, 0, 51, 0
2, 50131, Note_on_c, 0, 63, 0
2, 50131, Note_on_c, 0, 75, 0
2, 50179, Note_on_c, 0, 49, 80
2, 50179, Note_on_c, 0, 61, 80
2, 50179, Note_on_c, 0, 80, 80
2, 50179, Note_on_c, 0, 85, 80
2, 50179, Note_on_c, 0, 88, 80
2, 50179, Note_on_c, 0, 92, 80
2, 50224, Note_on_c, 0, 88, 0
2, 50224, Note_on_c, 0, 61, 0
2, 50224, Note_on_c, 0, 49, 0
2, 50255, Note_on_c, 0, 92, 0
2, 50256, Note_on_c, 0, 80, 0
2, 50262, Note_on_c, 0, 76, 80
2, 50264, Note_on_c, 0, 88, 80
2, 50266, Note_on_c, 0, 85, 0
2, 50299, Note_on_c, 0, 76, 0
2, 50305, Note_on_c, 0, 64, 80
2, 50307, Note_on_c, 0, 56, 80
2, 50307, Note_on_c, 0, 61, 80
2, 50307, Note_on_c, 0, 73, 80
2, 50307, Note_on_c, 0, 85, 80
2, 50309, Note_on_c, 0, 88, 0
2, 50330, Note_on_c, 0, 61, 0
2, 50330, Note_on_c, 0, 64, 0
2, 50330, Note_on_c, 0, 56, 0
2, 50343, Note_on_c, 0, 73, 0
2, 50353, Note_on_c, 0, 85, 0
2, 50380, Control_c, 0, 64, 127
2, 50393, Note_on_c, 0, 68, 80
2, 50393, Note_on_c, 0, 80, 80
2, 50432, Note_on_c, 0, 51, 80
2, 50432, Note_on_c, 0, 63, 80
2, 50507, Note_on_c, 0, 80, 0
2, 50507, Note_on_c, 0, 68, 0
2, 50516, Note_on_c, 0, 73, 80
2, 50516, Note_on_c, 0, 85, 80
2, 50518, Note_on_c, 0, 63, 0
2, 50520, Note_on_c, 0, 51, 0
2, 50548, Control_c, 0, 64, 0
2, 50550, Note_on_c, 0, 73, 0
2, 50550, Note_on_c, 0, 85, 0
2, 50557, Note_on_c, 0, 49, 80
2, 50557, Note_on_c, 0, 61, 80
2, 50557, Note_on_c, 0, 76, 80
2, 50557, Note_on_c, 0, 88, 80
2, 50632, Note_on_c, 0, 76, 0
2, 50640, Note_on_c, 0, 88, 0
2, 50671, Note_on_c, 0, 61, 0
2, 50671, Note_on_c, 0, 49, 0
2, 50682, Note_on_c, 0, 51, 80
2, 50682, Note_on_c, 0, 63, 80
2, 50682, Note_on_c, 0, 75, 80
2, 50682, Note_on_c, 0, 80, 80
2, 50682, Note_on_c, 0, 83, 80
2, 50682, Note_on_c, 0, 87, 80
2, 50714, Note_on_c, 0, 83, 0
2, 50723, Note_on_c, 0, 63, 0
2, 50723, Note_on_c, 0, 51, 0
2, 50754, Note_on_c, 0, 80, 0
2, 50754, Note_on_c, 0, 87, 0
2, 50754, Note_on_c, 0, 75, 0
2, 50764, Note_on_c, 0, 71, 80
2, 50764, Note_on_c, 0, 83, 80
2, 50798, Note_on_c, 0, 83, 0
2, 50798, Note_on_c, 0, 71, 0
2, 50804, Note_on_c, 0, 51, 80
2, 50804, Note_on_c, 0, 56, 80
2, 50804, Note_on_c, 0, 59, 80
2, 50804, Note_on_c, 0, 68, 80
2, 50804, Note_on_c, 0, 80, 80
2, 50837, Note_on_c, 0, 80, 0
2, 50837, Note_on_c, 0, 59, 0
2, 50837, Note_on_c, 0, 51, 0
2, 50837, Note_on_c, 0, 56, 0
2, 50837, Note_on_c, 0, 68, 0
2, 50848, Control_c, 0, 64, 127
2, 50885, Note_on_c, 0, 63, 80
2, 50885, Note_on_c, 0, 75, 80
2, 50925, Note_on_c, 0, 49, 80
2, 50925, Note_on_c, 0, 61, 80
2, 50976, Control_c, 0, 64, 0
2, 50985, Note_on_c, 0, 75, 0
2, 50996, Note_on_c, 0, 63, 0
2, 51002, Note_on_c, 0, 64, 80
2, 51002, Note_on_c, 0, 76, 80
2, 51035, Note_on_c, 0, 76, 0
2, 51035, Note_on_c, 0, 64, 0
2, 51035, Note_on_c, 0, 61, 0
2, 51037, Note_on_c, 0, 49, 0
2, 51044, Note_on_c, 0, 47, 80
2, 51044, Note_on_c, 0, 59, 80
2, 51044, Note_on_c, 0, 63, 80
2, 51044, Note_on_c, 0, 75, 80
2, 51118, Note_on_c, 0, 75, 0
2, 51118, Note_on_c, 0, 63, 0
2, 51161, Note_on_c, 0, 59, 0
2, 51167, Note_on_c, 0, 46, 80
2, 51167, Note_on_c, 0, 58, 80
2, 51167, Note_on_c, 0, 73, 80
2, 51167, Note_on_c, 0, 75, 80
2, 51167, Note_on_c, 0, 79, 80
2, 51167, Note_on_c, 0, 85, 80
2, 51170, Note_on_c, 0, 47, 0
2, 51214, Note_on_c, 0, 46, 0
2, 51214, Note_on_c, 0, 58, 0
2, 51234, Note_on_c, 0, 85, 0
2, 51246, Note_on_c, 0, 73, 0
2, 51246, Note_on_c, 0, 79, 0
2, 51246, Note_on_c, 0, 75, 0
2, 51252, Note_on_c, 0, 71, 80
2, 51252, Note_on_c, 0, 83, 80
2, 51286, Note_on_c, 0, 83, 0
2, 51286, Note_on_c, 0, 71, 0
2, 51291, Note_on_c, 0, 51, 80
2, 51291, Note_on_c, 0, 70, 80
2, 51293, Note_on_c, 0, 55, 80
2, 51293, Note_on_c, 0, 61, 80
2, 51293, Note_on_c, 0, 82, 80
2, 51318, Note_on_c, 0, 61, 0
2, 51318, Note_on_c, 0, 55, 0
2, 51318, Note_on_c, 0, 51, 0
2, 51327, Note_on_c, 0, 70, 0
2, 51327, Note_on_c, 0, 82, 0
2, 51381, Note_on_c, 0, 75, 80
2, 51381, Note_on_c, 0, 79, 80
2, 51381, Note_on_c, 0, 82, 80
2, 51381, Note_on_c, 0, 87, 80
2, 51418, Note_on_c, 0, 39, 80
2, 51418, Note_on_c, 0, 51, 80
2, 51463, Note_on_c, 0, 51, 0
2, 51463, Note_on_c, 0, 39, 0
2, 51494, Note_on_c, 0, 75, 0
2, 51494, Note_on_c, 0, 82, 0
2, 51494, Note_on_c, 0, 79, 0
2, 51501, Note_on_c, 0, 73, 80
2, 51501, Note_on_c, 0, 85, 80
2, 51504, Note_on_c, 0, 87, 0
2, 51537, Note_on_c, 0, 73, 0
2, 51543, Note_on_c, 0, 51, 80
2, 51543, Note_on_c, 0, 71, 80
2, 51545, Note_on_c, 0, 55, 80
2, 51545, Note_on_c, 0, 61, 80
2, 51545, Note_on_c, 0, 83, 80
2, 51549, Note_on_c, 0, 85, 0
2, 51567, Note_on_c, 0, 51, 0
2, 51569, Note_on_c, 0, 61, 0
2, 51569, Note_on_c, 0, 55, 0
2, 51623, Note_on_c, 0, 83, 0
2, 51623, Note_on_c, 0, 71, 0
2, 51631, Note_on_c, 0, 70, 80
2, 51631, Note_on_c, 0, 82, 80
2, 51667, Note_on_c, 0, 82, 0
2, 51667, Note_on_c, 0, 70, 0
2, 51673, Note_on_c, 0, 44, 80
2, 51673, Note_on_c, 0, 56, 80
2, 51673, Note_on_c, 0, 68, 80
2, 51673, Note_on_c, 0, 71, 80
2, 51673, Note_on_c, 0, 75, 80
2, 51673, Note_on_c, 0, 80, 80
2, 51738, Note_on_c, 0, 44, 0
2, 51740, Note_on_c, 0, 56, 0
2, 51799, Note_on_c, 0, 51, 80
2, 51799, Note_on_c, 0, 56, 80
2, 51799, Note_on_c, 0, 59, 80
2, 51801, Note_on_c, 0, 75, 0
2, 51801, Note_on_c, 0, 71, 0
2, 51801, Note_on_c, 0, 68, 0
2, 51803, Note_on_c, 0, 80, 0
2, 51824, Note_on_c, 0, 59, 0
2, 51824, Note_on_c, 0, 56, 0
2, 51824, Note_on_c, 0, 51, 0
2, 51884, Note_on_c, 0, 68, 80
2, 51884, Note_on_c, 0, 80, 80
2, 51917, Note_on_c, 0, 80, 0
2, 51917, Note_on_c, 0, 68, 0
2, 51924, Note_on_c, 0, 42, 80
2, 51924, Note_on_c, 0, 54, 80
2, 51924, Note_on_c, 0, 70, 80
2, 51924, Note_on_c, 0, 73, 80
2, 51924, Note_on_c, 0, 76, 80
2, 51926, Note_on_c, 0, 82, 80
2, 51969, Note_on_c, 0, 54, 0
2, 51969, Note_on_c, 0, 42, 0
2, 51989, Note_on_c, 0, 76, 0
2, 51989, Note_on_c, 0, 73, 0
2, 51989, Note_on_c, 0, 70, 0
2, 52002, Note_on_c, 0, 82, 0
2, 52008, Note_on_c, 0, 71, 80
2, 52009, Note_on_c, 0, 83, 80
2, 52043, Note_on_c, 0, 83, 0
2, 52043, Note_on_c, 0, 71, 0
2, 52050, Note_on_c, 0, 54, 80
2, 52050, Note_on_c, 0, 58, 80
2, 52050, Note_on_c, 0, 61, 80
2, 52050, Note_on_c, 0, 64, 80
2, 52050, Note_on_c, 0, 73, 80
2, 52050, Note_on_c, 0, 76, 80
2, 52050, Note_on_c, 0, 82, 80
2, 52050, Note_on_c, 0, 85, 80
2, 52073, Note_on_c, 0, 64, 0
2, 52073, Note_on_c, 0, 61, 0
2, 52073, Note_on_c, 0, 54, 0
2, 52073, Note_on_c, 0, 58, 0
2, 52121, Note_on_c, 0, 76, 0
2, 52123, Note_on_c, 0, 82, 0
2, 52123, Note_on_c, 0, 73, 0
2, 52128, Note_on_c, 0, 74, 80
2, 52128, Note_on_c, 0, 86, 80
2, 52132, Note_on_c, 0, 85, 0
2, 52165, Note_on_c, 0, 86, 0
2, 52165, Note_on_c, 0, 74, 0
2, 52172, Note_on_c, 0, 35, 80
2, 52172, Note_on_c, 0, 47, 80
2, 52172, Note_on_c, 0, 75, 80
2, 52172, Note_on_c, 0, 78, 80
2, 52172, Note_on_c, 0, 83, 80
2, 52172, Note_on_c, 0, 87, 80
2, 52215, Note_on_c, 0, 47, 0
2, 52215, Note_on_c, 0, 35, 0
2, 52292, Note_on_c, 0, 51, 80
2, 52294, Note_on_c, 0, 75, 0
2, 52294, Note_on_c, 0, 78, 0
2, 52294, Note_on_c, 0, 87, 0
2, 52294, Note_on_c, 0, 54, 80
2, 52294, Note_on_c, 0, 59, 80
2, 52296, Note_on_c, 0, 83, 0
2, 52316, Note_on_c, 0, 51, 0
2, 52316, Note_on_c, 0, 54, 0
2, 52316, Note_on_c, 0, 59, 0
2, 52376, Note_on_c, 0, 75, 80
2, 52376, Note_on_c, 0, 87, 80
2, 52412, Note_on_c, 0, 87, 0
2, 52412, Note_on_c, 0, 75, 0
2, 52417, Note_on_c, 0, 42, 80
2, 52417, Note_on_c, 0, 54, 80
2, 52419, Note_on_c, 0, 74, 80
2, 52419, Note_on_c, 0, 78, 80
2, 52419, Note_on_c, 0, 83, 80
2, 52419, Note_on_c, 0, 86, 80
2, 52463, Note_on_c, 0, 54, 0
2, 52463, Note_on_c, 0, 42, 0
2, 52496, Note_on_c, 0, 78, 0
2, 52496, Note_on_c, 0, 74, 0
2, 52498, Note_on_c, 0, 86, 0
2, 52498, Note_on_c, 0, 83, 0
2, 52505, Note_on_c, 0, 75, 80
2, 52505, Note_on_c, 0, 87, 80
2, 52540, Note_on_c, 0, 87, 0
2, 52540, Note_on_c, 0, 75, 0
2, 52549, Note_on_c, 0, 51, 80
2, 52549, Note_on_c, 0, 54, 80
2, 52549, Note_on_c, 0, 59, 80
2, 52549, Note_on_c, 0, 78, 80
2, 52549, Note_on_c, 0, 90, 80
2, 52572, Note_on_c, 0, 59, 0
2, 52572, Note_on_c, 0, 51, 0
2, 52572, Note_on_c, 0, 54, 0
2, 52583, Note_on_c, 0, 78, 0
2, 52583, Note_on_c, 0, 90, 0
2, 52636, Note_on_c, 0, 83, 80
2, 52636, Note_on_c, 0, 87, 80
2, 52636, Note_on_c, 0, 90, 80
2, 52636, Note_on_c, 0, 95, 80
2, 52680, Note_on_c, 0, 35, 80
2, 52680, Note_on_c, 0, 47, 80
2, 52721, Note_on_c, 0, 47, 0
2, 52721, Note_on_c, 0, 35, 0
2, 52754, Note_on_c, 0, 90, 0
2, 52754, Note_on_c, 0, 83, 0
2, 52754, Note_on_c, 0, 87, 0
2, 52754, Note_on_c, 0, 95, 0
2, 52760, Note_on_c, 0, 82, 80
2, 52760, Note_on_c, 0, 94, 80
2, 52796, Note_on_c, 0, 94, 0
2, 52796, Note_on_c, 0, 82, 0
2, 52802, Note_on_c, 0, 51, 80
2, 52802, Note_on_c, 0, 54, 80
2, 52802, Note_on_c, 0, 59, 80
2, 52802, Note_on_c, 0, 80, 80
2, 52802, Note_on_c, 0, 83, 80
2, 52802, Note_on_c, 0, 87, 80
2, 52802, Note_on_c, 0, 92, 80
2, 52825, Note_on_c, 0, 59, 0
2, 52825, Note_on_c, 0, 51, 0
2, 52825, Note_on_c, 0, 54, 0
2, 52877, Note_on_c, 0, 83, 0
2, 52877, Note_on_c, 0, 80, 0
2, 52877, Note_on_c, 0, 87, 0
2, 52877, Note_on_c, 0, 92, 0
2, 52925, Note_on_c, 0, 30, 80
2, 52925, Note_on_c, 0, 82, 80
2, 52927, Note_on_c, 0, 42, 80
2, 52927, Note_on_c, 0, 86, 80
2, 52927, Note_on_c, 0, 92, 80
2, 52938, Note_on_c, 0, 80, 80
2, 52959, Note_on_c, 0, 80, 0
2, 52959, Note_on_c, 0, 86, 0
2, 52959, Note_on_c, 0, 82, 0
2, 52959, Note_on_c, 0, 92, 0
2, 52969, Note_on_c, 0, 30, 0
2, 52971, Note_on_c, 0, 42, 0
2, 53009, Note_on_c, 0, 83, 80
2, 53009, Note_on_c, 0, 87, 80
2, 53009, Note_on_c, 0, 90, 80
2, 53019, Note_on_c, 0, 78, 80
2, 53048, Note_on_c, 0, 51, 80
2, 53050, Note_on_c, 0, 54, 80
2, 53050, Note_on_c, 0, 59, 80
2, 53083, Note_on_c, 0, 59, 0
2, 53083, Note_on_c, 0, 51, 0
2, 53083, Note_on_c, 0, 54, 0
2, 53124, Note_on_c, 0, 90, 0
2, 53124, Note_on_c, 0, 78, 0
2, 53124, Note_on_c, 0, 87, 0
2, 53126, Note_on_c, 0, 83, 0
2, 53176, Note_on_c, 0, 35, 80
2, 53176, Note_on_c, 0, 47, 80
2, 53176, Note_on_c, 0, 75, 80
2, 53176, Note_on_c, 0, 78, 80
2, 53176, Note_on_c, 0, 83, 80
2, 53176, Note_on_c, 0, 87, 80
2, 53219, Note_on_c, 0, 47, 0
2, 53219, Note_on_c, 0, 35, 0
2, 53294, Note_on_c, 0, 51, 80
2, 53296, Note_on_c, 0, 54, 80
2, 53296, Note_on_c, 0, 59, 80
2, 53298, Note_on_c, 0, 78, 0
2, 53298, Note_on_c, 0, 87, 0
2, 53300, Note_on_c, 0, 83, 0
2, 53300, Note_on_c, 0, 75, 0
2, 53316, Note_on_c, 0, 54, 0
2, 53316, Note_on_c, 0, 59, 0
2, 53316, Note_on_c, 0, 51, 0
2, 53380, Note_on_c, 0, 75, 80
2, 53380, Note_on_c, 0, 87, 80
2, 53414, Note_on_c, 0, 87, 0
2, 53414, Note_on_c, 0, 75, 0
2, 53423, Note_on_c, 0, 36, 80
2, 53423, Note_on_c, 0, 48, 80
2, 53423, Note_on_c, 0, 74, 80
2, 53423, Note_on_c, 0, 77, 80
2, 53423, Note_on_c, 0, 81, 80
2, 53423, Note_on_c, 0, 86, 80
2, 53499, Note_on_c, 0, 86, 0
2, 53499, Note_on_c, 0, 77, 0
2, 53499, Note_on_c, 0, 74, 0
2, 53499, Note_on_c, 0, 81, 0
2, 53506, Note_on_c, 0, 75, 80
2, 53506, Note_on_c, 0, 87, 80
2, 53540, Note_on_c, 0, 87, 0
2, 53540, Note_on_c, 0, 75, 0
2, 53546, Note_on_c, 0, 78, 80
2, 53548, Note_on_c, 0, 54, 80
2, 53548, Note_on_c, 0, 57, 80
2, 53548, Note_on_c, 0, 60, 80
2, 53548, Note_on_c, 0, 63, 80
2, 53548, Note_on_c, 0, 90, 80
2, 53563, Note_on_c, 0, 63, 0
2, 53563, Note_on_c, 0, 54, 0
2, 53563, Note_on_c, 0, 57, 0
2, 53563, Note_on_c, 0, 60, 0
2, 53598, Note_on_c, 0, 78, 0
2, 53611, Note_on_c, 0, 90, 0
2, 53616, Note_on_c, 0, 87, 80
2, 53618, Note_on_c, 0, 75, 80
2, 53652, Note_on_c, 0, 75, 0
2, 53652, Note_on_c, 0, 48, 0
2, 53652, Note_on_c, 0, 36, 0
2, 53652, Note_on_c, 0, 87, 0
2, 53661, Note_on_c, 0, 37, 80
2, 53661, Note_on_c, 0, 49, 80
2, 53661, Note_on_c, 0, 76, 80
2, 53661, Note_on_c, 0, 80, 80
2, 53661, Note_on_c, 0, 82, 80
2, 53661, Note_on_c, 0, 88, 80
2, 53694, Note_on_c, 0, 37, 0
2, 53703, Note_on_c, 0, 76, 0
2, 53703, Note_on_c, 0, 82, 0
2, 53703, Note_on_c, 0, 88, 0
2, 53705, Note_on_c, 0, 49, 0
2, 53705, Note_on_c, 0, 80, 0
2, 53787, Note_on_c, 0, 54, 80
2, 53787, Note_on_c, 0, 58, 80
2, 53787, Note_on_c, 0, 61, 80
2, 53787, Note_on_c, 0, 64, 80
2, 53787, Note_on_c, 0, 76, 80
2, 53787, Note_on_c, 0, 80, 80
2, 53787, Note_on_c, 0, 82, 80
2, 53787, Note_on_c, 0, 88, 80
2, 53812, Note_on_c, 0, 64, 0
2, 53812, Note_on_c, 0, 61, 0
2, 53812, Note_on_c, 0, 54, 0
2, 53812, Note_on_c, 0, 58, 0
2, 53859, Control_c, 0, 64, 127
2, 53863, Note_on_c, 0, 76, 0
2, 53863, Note_on_c, 0, 88, 0
2, 53863, Note_on_c, 0, 82, 0
2, 53865, Note_on_c, 0, 80, 0
2, 53871, Note_on_c, 0, 75, 80
2, 53871, Note_on_c, 0, 78, 80
2, 53871, Note_on_c, 0, 87, 80
2, 53906, Note_on_c, 0, 87, 0
2, 53906, Note_on_c, 0, 78, 0
2, 53906, Note_on_c, 0, 75, 0
2, 53913, Note_on_c, 0, 30, 80
2, 53913, Note_on_c, 0, 42, 80
2, 53913, Note_on_c, 0, 73, 80
2, 53915, Note_on_c, 0, 76, 80
2, 53915, Note_on_c, 0, 85, 80
2, 53958, Note_on_c, 0, 30, 0
2, 53960, Note_on_c, 0, 42, 0
2, 53981, Note_on_c, 0, 76, 0
2, 53981, Note_on_c, 0, 73, 0
2, 53981, Note_on_c, 0, 85, 0
2, 54000, Note_on_c, 0, 97, 80
2, 54001, Control_c, 0, 64, 0
2, 54035, Note_on_c, 0, 97, 0
2, 54044, Note_on_c, 0, 54, 80
2, 54044, Note_on_c, 0, 58, 80
2, 54044, Note_on_c, 0, 61, 80
2, 54044, Note_on_c, 0, 64, 80
2, 54044, Note_on_c, 0, 85, 80
2, 54067, Note_on_c, 0, 64, 0
2, 54067, Note_on_c, 0, 61, 0
2, 54067, Note_on_c, 0, 54, 0
2, 54067, Note_on_c, 0, 58, 0
2, 54120, Note_on_c, 0, 85, 0
2, 54129, Note_on_c, 0, 86, 80
2, 54162, Note_on_c, 0, 86, 0
2, 54170, Note_on_c, 0, 35, 80
2, 54170, Note_on_c, 0, 47, 80
2, 54170, Note_on_c, 0, 75, 80
2, 54170, Note_on_c, 0, 78, 80
2, 54170, Note_on_c, 0, 83, 80
2, 54170, Note_on_c, 0, 87, 80
2, 54214, Note_on_c, 0, 35, 0
2, 54224, Note_on_c, 0, 47, 0
2, 54294, Note_on_c, 0, 51, 80
2, 54294, Note_on_c, 0, 54, 80
2, 54294, Note_on_c, 0, 59, 80
2, 54298, Note_on_c, 0, 83, 0
2, 54298, Note_on_c, 0, 75, 0
2, 54298, Note_on_c, 0, 78, 0
2, 54298, Note_on_c, 0, 87, 0
2, 54318, Note_on_c, 0, 59, 0
2, 54318, Note_on_c, 0, 51, 0
2, 54318, Note_on_c, 0, 54, 0
2, 54381, Note_on_c, 0, 75, 80
2, 54381, Note_on_c, 0, 87, 80
2, 54413, Note_on_c, 0, 87, 0
2, 54413, Note_on_c, 0, 75, 0
2, 54420, Note_on_c, 0, 42, 80
2, 54420, Note_on_c, 0, 54, 80
2, 54420, Note_on_c, 0, 74, 80
2, 54420, Note_on_c, 0, 78, 80
2, 54420, Note_on_c, 0, 83, 80
2, 54420, Note_on_c, 0, 86, 80
2, 54465, Note_on_c, 0, 54, 0
2, 54465, Note_on_c, 0, 42, 0
2, 54494, Note_on_c, 0, 83, 0
2, 54494, Note_on_c, 0, 78, 0
2, 54494, Note_on_c, 0, 86, 0
2, 54494, Note_on_c, 0, 74, 0
2, 54501, Note_on_c, 0, 87, 80
2, 54503, Note_on_c, 0, 75, 80
2, 54536, Note_on_c, 0, 75, 0
2, 54536, Note_on_c, 0, 87, 0
2, 54542, Note_on_c, 0, 90, 80
2, 54544, Note_on_c, 0, 51, 80
2, 54544, Note_on_c, 0, 54, 80
2, 54544, Note_on_c, 0, 59, 80
2, 54544, Note_on_c, 0, 78, 80
2, 54565, Note_on_c, 0, 51, 0
2, 54567, Note_on_c, 0, 59, 0
2, 54567, Note_on_c, 0, 54, 0
2, 54576, Note_on_c, 0, 90, 0
2, 54576, Note_on_c, 0, 78, 0
2, 54584, Control_c, 0, 64, 127
2, 54624, Note_on_c, 0, 87, 80
2, 54624, Note_on_c, 0, 90, 80
2, 54624, Note_on_c, 0, 95, 80
2, 54625, Note_on_c, 0, 83, 80
2, 54663, Note_on_c, 0, 35, 80
2, 54663, Note_on_c, 0, 47, 80
2, 54708, Note_on_c, 0, 47, 0
2, 54708, Note_on_c, 0, 35, 0
2, 54739, Note_on_c, 0, 95, 0
2, 54739, Note_on_c, 0, 87, 0
2, 54739, Note_on_c, 0, 90, 0
2, 54739, Note_on_c, 0, 83, 0
2, 54747, Note_on_c, 0, 82, 80
2, 54747, Note_on_c, 0, 94, 80
2, 54749, Control_c, 0, 64, 0
2, 54780, Note_on_c, 0, 94, 0
2, 54780, Note_on_c, 0, 82, 0
2, 54791, Note_on_c, 0, 51, 80
2, 54791, Note_on_c, 0, 54, 80
2, 54791, Note_on_c, 0, 80, 80
2, 54791, Note_on_c, 0, 87, 80
2, 54792, Note_on_c, 0, 59, 80
2, 54792, Note_on_c, 0, 83, 80
2, 54792, Note_on_c, 0, 92, 80
2, 54814, Note_on_c, 0, 59, 0
2, 54814, Note_on_c, 0, 54, 0
2, 54814, Note_on_c, 0, 51, 0
2, 54864, Note_on_c, 0, 83, 0
2, 54864, Note_on_c, 0, 87, 0
2, 54864, Note_on_c, 0, 92, 0
2, 54864, Note_on_c, 0, 80, 0
2, 54915, Note_on_c, 0, 30, 80
2, 54915, Note_on_c, 0, 42, 80
2, 54915, Note_on_c, 0, 80, 80
2, 54915, Note_on_c, 0, 82, 80
2, 54915, Note_on_c, 0, 86, 80
2, 54915, Note_on_c, 0, 92, 80
2, 54949, Note_on_c, 0, 92, 0
2, 54949, Note_on_c, 0, 82, 0
2, 54949, Note_on_c, 0, 86, 0
2, 54951, Note_on_c, 0, 80, 0
2, 54960, Note_on_c, 0, 42, 0
2, 54960, Note_on_c, 0, 30, 0
2, 55003, Note_on_c, 0, 78, 80
2, 55003, Note_on_c, 0, 83, 80
2, 55003, Note_on_c, 0, 87, 80
2, 55003, Note_on_c, 0, 90, 80
2, 55046, Note_on_c, 0, 51, 80
2, 55046, Note_on_c, 0, 54, 80
2, 55046, Note_on_c, 0, 59, 80
2, 55069, Note_on_c, 0, 59, 0
2, 55069, Note_on_c, 0, 51, 0
2, 55069, Note_on_c, 0, 54, 0
2, 55119, Note_on_c, 0, 90, 0
2, 55121, Note_on_c, 0, 78, 0
2, 55121, Note_on_c, 0, 83, 0
2, 55121, Note_on_c, 0, 87, 0
2, 55169, Note_on_c, 0, 53, 80
2, 55169, Note_on_c, 0, 62, 80
2, 55169, Note_on_c, 0, 68, 80
2, 55169, Note_on_c, 0, 83, 80
2, 55169, Note_on_c, 0, 86, 80
2, 55169, Note_on_c, 0, 89, 80
2, 55171, Note_on_c, 0, 95, 80
2, 55201, Note_on_c, 0, 89, 0
2, 55241, Note_on_c, 0, 86, 0
2, 55241, Note_on_c, 0, 95, 0
2, 55243, Note_on_c, 0, 83, 0
2, 55251, Note_on_c, 0, 77, 80
2, 55251, Note_on_c, 0, 89, 80
2, 55284, Note_on_c, 0, 77, 0
2, 55284, Note_on_c, 0, 53, 0
2, 55284, Note_on_c, 0, 62, 0
2, 55286, Note_on_c, 0, 68, 0
2, 55286, Note_on_c, 0, 89, 0
2, 55292, Note_on_c, 0, 51, 80
2, 55292, Note_on_c, 0, 60, 80
2, 55292, Note_on_c, 0, 66, 80
2, 55292, Note_on_c, 0, 78, 80
2, 55294, Note_on_c, 0, 90, 80
2, 55324, Note_on_c, 0, 90, 0
2, 55324, Note_on_c, 0, 78, 0
2, 55372, Note_on_c, 0, 82, 80
2, 55372, Note_on_c, 0, 86, 80
2, 55372, Note_on_c, 0, 89, 80
2, 55372, Note_on_c, 0, 94, 80
2, 55403, Note_on_c, 0, 66, 0
2, 55403, Note_on_c, 0, 60, 0
2, 55405, Note_on_c, 0, 51, 0
2, 55411, Note_on_c, 0, 50, 80
2, 55411, Note_on_c, 0, 58, 80
2, 55411, Note_on_c, 0, 65, 80
2, 55481, Note_on_c, 0, 86, 0
2, 55481, Note_on_c, 0, 94, 0
2, 55483, Note_on_c, 0, 58, 0
2, 55483, Note_on_c, 0, 89, 0
2, 55483, Note_on_c, 0, 82, 0
2, 55483, Note_on_c, 0, 65, 0
2, 55483, Note_on_c, 0, 50, 0
2, 55488, Note_on_c, 0, 95, 80
2, 55490, Note_on_c, 0, 83, 80
2, 55523, Note_on_c, 0, 95, 0
2, 55525, Note_on_c, 0, 83, 0
2, 55531, Note_on_c, 0, 94, 80
2, 55533, Note_on_c, 0, 58, 80
2, 55533, Note_on_c, 0, 62, 80
2, 55533, Note_on_c, 0, 65, 80
2, 55533, Note_on_c, 0, 68, 80
2, 55533, Note_on_c, 0, 82, 80
2, 55533, Note_on_c, 0, 86, 80
2, 55533, Note_on_c, 0, 89, 80
2, 55554, Note_on_c, 0, 68, 0
2, 55554, Note_on_c, 0, 65, 0
2, 55554, Note_on_c, 0, 62, 0
2, 55554, Note_on_c, 0, 58, 0
2, 55604, Note_on_c, 0, 94, 0
2, 55645, Note_on_c, 0, 86, 0
2, 55645, Note_on_c, 0, 82, 0
2, 55645, Note_on_c, 0, 89, 0
2, 55654, Note_on_c, 0, 87, 80
2, 55654, Note_on_c, 0, 90, 80
2, 55654, Note_on_c, 0, 94, 80
2, 55654, Note_on_c, 0, 99, 80
2, 55656, Note_on_c, 0, 51, 80
2, 55656, Note_on_c, 0, 58, 80
2, 55656, Note_on_c, 0, 66, 80
2, 55729, Note_on_c, 0, 99, 0
2, 55729, Note_on_c, 0, 94, 0
2, 55729, Note_on_c, 0, 90, 0
2, 55731, Note_on_c, 0, 87, 0
2, 55738, Note_on_c, 0, 81, 80
2, 55738, Note_on_c, 0, 93, 80
2, 55772, Note_on_c, 0, 93, 0
2, 55774, Note_on_c, 0, 66, 0
2, 55774, Note_on_c, 0, 51, 0
2, 55774, Note_on_c, 0, 58, 0
2, 55774, Note_on_c, 0, 81, 0
2, 55780, Note_on_c, 0, 50, 80
2, 55780, Note_on_c, 0, 59, 80
2, 55780, Note_on_c, 0, 65, 80
2, 55780, Note_on_c, 0, 82, 80
2, 55780, Note_on_c, 0, 94, 80
2, 55816, Note_on_c, 0, 94, 0
2, 55816, Note_on_c, 0, 82, 0
2, 55866, Note_on_c, 0, 85, 80
2, 55866, Note_on_c, 0, 88, 80
2, 55866, Note_on_c, 0, 92, 80
2, 55868, Note_on_c, 0, 80, 80
2, 55868, Note_on_c, 0, 82, 80
2, 55891, Note_on_c, 0, 50, 0
2, 55891, Note_on_c, 0, 65, 0
2, 55891, Note_on_c, 0, 59, 0
2, 55901, Note_on_c, 0, 49, 80
2, 55910, Note_on_c, 0, 58, 80
2, 55910, Note_on_c, 0, 64, 80
2, 55985, Note_on_c, 0, 85, 0
2, 55985, Note_on_c, 0, 82, 0
2, 55985, Note_on_c, 0, 88, 0
2, 55985, Note_on_c, 0, 92, 0
2, 55987, Note_on_c, 0, 80, 0
2, 55987, Note_on_c, 0, 64, 0
2, 55987, Note_on_c, 0, 49, 0
2, 55987, Note_on_c, 0, 58, 0
2, 55993, Note_on_c, 0, 78, 80
2, 55993, Note_on_c, 0, 90, 80
2, 56027, Note_on_c, 0, 90, 0
2, 56029, Note_on_c, 0, 78, 0
2, 56036, Note_on_c, 0, 85, 80
2, 56038, Note_on_c, 0, 42, 80
2, 56038, Note_on_c, 0, 54, 80
2, 56038, Note_on_c, 0, 73, 80
2, 56106, Note_on_c, 0, 73, 0
2, 56106, Note_on_c, 0, 85, 0
2, 56122, Note_on_c, 0, 74, 80
2, 56122, Note_on_c, 0, 86, 80
2, 56158, Note_on_c, 0, 86, 0
2, 56158, Note_on_c, 0, 42, 0
2, 56158, Note_on_c, 0, 54, 0
2, 56158, Note_on_c, 0, 74, 0
2, 56163, Note_on_c, 0, 87, 80
2, 56167, Note_on_c, 0, 35, 80
2, 56167, Note_on_c, 0, 47, 80
2, 56167, Note_on_c, 0, 75, 80
2, 56167, Note_on_c, 0, 78, 80
2, 56167, Note_on_c, 0, 83, 80
2, 56212, Note_on_c, 0, 35, 0
2, 56214, Note_on_c, 0, 47, 0
2, 56284, Note_on_c, 0, 87, 0
2, 56284, Note_on_c, 0, 78, 0
2, 56286, Note_on_c, 0, 83, 0
2, 56286, Note_on_c, 0, 75, 0
2, 56295, Note_on_c, 0, 51, 80
2, 56295, Note_on_c, 0, 54, 80
2, 56295, Note_on_c, 0, 59, 80
2, 56318, Note_on_c, 0, 59, 0
2, 56318, Note_on_c, 0, 54, 0
2, 56318, Note_on_c, 0, 51, 0
2, 56378, Note_on_c, 0, 75, 80
2, 56378, Note_on_c, 0, 87, 80
2, 56412, Note_on_c, 0, 87, 0
2, 56412, Note_on_c, 0, 75, 0
2, 56419, Note_on_c, 0, 74, 80
2, 56419, Note_on_c, 0, 78, 80
2, 56419, Note_on_c, 0, 83, 80
2, 56419, Note_on_c, 0, 86, 80
2, 56421, Note_on_c, 0, 42, 80
2, 56421, Note_on_c, 0, 54, 80
2, 56460, Note_on_c, 0, 54, 0
2, 56462, Note_on_c, 0, 42, 0
2, 56493, Note_on_c, 0, 83, 0
2, 56493, Note_on_c, 0, 74, 0
2, 56493, Note_on_c, 0, 78, 0
2, 56493, Note_on_c, 0, 86, 0
2, 56498, Note_on_c, 0, 75, 80
2, 56498, Note_on_c, 0, 87, 80
2, 56532, Note_on_c, 0, 87, 0
2, 56532, Note_on_c, 0, 75, 0
2, 56538, Note_on_c, 0, 78, 80
2, 56538, Note_on_c, 0, 90, 80
2, 56542, Note_on_c, 0, 51, 80
2, 56542, Note_on_c, 0, 54, 80
2, 56542, Note_on_c, 0, 59, 80
2, 56565, Note_on_c, 0, 59, 0
2, 56565, Note_on_c, 0, 51, 0
2, 56565, Note_on_c, 0, 54, 0
2, 56573, Note_on_c, 0, 90, 0
2, 56573, Note_on_c, 0, 78, 0
2, 56590, Control_c, 0, 64, 127
2, 56623, Note_on_c, 0, 83, 80
2, 56623, Note_on_c, 0, 87, 80
2, 56623, Note_on_c, 0, 90, 80
2, 56623, Note_on_c, 0, 95, 80
2, 56663, Note_on_c, 0, 35, 80
2, 56663, Note_on_c, 0, 47, 80
2, 56706, Note_on_c, 0, 47, 0
2, 56706, Note_on_c, 0, 35, 0
2, 56714, Control_c, 0, 64, 0
2, 56725, Note_on_c, 0, 83, 0
2, 56734, Note_on_c, 0, 87, 0
2, 56734, Note_on_c, 0, 90, 0
2, 56734, Note_on_c, 0, 95, 0
2, 56742, Note_on_c, 0, 94, 80
2, 56744, Note_on_c, 0, 82, 80
2, 56778, Note_on_c, 0, 82, 0
2, 56778, Note_on_c, 0, 94, 0
2, 56784, Note_on_c, 0, 51, 80
2, 56784, Note_on_c, 0, 54, 80
2, 56784, Note_on_c, 0, 80, 80
2, 56784, Note_on_c, 0, 83, 80
2, 56784, Note_on_c, 0, 87, 80
2, 56784, Note_on_c, 0, 92, 80
2, 56786, Note_on_c, 0, 59, 80
2, 56808, Note_on_c, 0, 59, 0
2, 56808, Note_on_c, 0, 51, 0
2, 56808, Note_on_c, 0, 54, 0
2, 56859, Note_on_c, 0, 87, 0
2, 56859, Note_on_c, 0, 92, 0
2, 56861, Note_on_c, 0, 80, 0
2, 56861, Note_on_c, 0, 83, 0
2, 56909, Note_on_c, 0, 30, 80
2, 56909, Note_on_c, 0, 42, 80
2, 56909, Note_on_c, 0, 80, 80
2, 56909, Note_on_c, 0, 82, 80
2, 56909, Note_on_c, 0, 86, 80
2, 56909, Note_on_c, 0, 92, 80
2, 56943, Note_on_c, 0, 92, 0
2, 56943, Note_on_c, 0, 82, 0
2, 56943, Note_on_c, 0, 80, 0
2, 56943, Note_on_c, 0, 86, 0
2, 56953, Note_on_c, 0, 30, 0
2, 56953, Note_on_c, 0, 42, 0
2, 56991, Note_on_c, 0, 78, 80
2, 56991, Note_on_c, 0, 83, 80
2, 56991, Note_on_c, 0, 87, 80
2, 56991, Note_on_c, 0, 90, 80
2, 57034, Note_on_c, 0, 51, 80
2, 57034, Note_on_c, 0, 54, 80
2, 57034, Note_on_c, 0, 59, 80
2, 57057, Note_on_c, 0, 59, 0
2, 57057, Note_on_c, 0, 51, 0
2, 57057, Note_on_c, 0, 54, 0
2, 57109, Note_on_c, 0, 78, 0
2, 57109, Note_on_c, 0, 90, 0
2, 57111, Note_on_c, 0, 83, 0
2, 57123, Note_on_c, 0, 87, 0
2, 57161, Note_on_c, 0, 99, 80
2, 57163, Note_on_c, 0, 46, 80
2, 57163, Note_on_c, 0, 55, 80
2, 57163, Note_on_c, 0, 61, 80
2, 57163, Note_on_c, 0, 87, 80
2, 57163, Note_on_c, 0, 91, 80
2, 57163, Note_on_c, 0, 94, 80
2, 57233, Note_on_c, 0, 99, 0
2, 57235, Note_on_c, 0, 55, 0
2, 57235, Note_on_c, 0, 87, 0
2, 57235, Note_on_c, 0, 61, 0
2, 57235, Note_on_c, 0, 46, 0
2, 57235, Note_on_c, 0, 94, 0
2, 57243, Note_on_c, 0, 91, 0
2, 57281, Note_on_c, 0, 91, 80
2, 57281, Note_on_c, 0, 94, 80
2, 57281, Note_on_c, 0, 99, 80
2, 57283, Note_on_c, 0, 39, 80
2, 57283, Note_on_c, 0, 46, 80
2, 57283, Note_on_c, 0, 55, 80
2, 57283, Note_on_c, 0, 87, 80
2, 57318, Note_on_c, 0, 87, 0
2, 57318, Note_on_c, 0, 94, 0
2, 57318, Note_on_c, 0, 91, 0
2, 57318, Note_on_c, 0, 99, 0
2, 57365, Note_on_c, 0, 85, 80
2, 57365, Note_on_c, 0, 92, 80
2, 57376, Note_on_c, 0, 89, 80
2, 57376, Note_on_c, 0, 97, 80
2, 57380, Note_on_c, 0, 39, 0
2, 57388, Note_on_c, 0, 55, 0
2, 57388, Note_on_c, 0, 46, 0
2, 57397, Note_on_c, 0, 49, 80
2, 57406, Note_on_c, 0, 56, 80
2, 57408, Note_on_c, 0, 41, 80
2, 57480, Note_on_c, 0, 92, 0
2, 57480, Note_on_c, 0, 97, 0
2, 57481, Note_on_c, 0, 85, 0
2, 57481, Note_on_c, 0, 89, 0
2, 57488, Note_on_c, 0, 87, 80
2, 57488, Note_on_c, 0, 99, 80
2, 57521, Note_on_c, 0, 99, 0
2, 57521, Note_on_c, 0, 87, 0
2, 57523, Note_on_c, 0, 56, 0
2, 57523, Note_on_c, 0, 49, 0
2, 57523, Note_on_c, 0, 41, 0
2, 57528, Note_on_c, 0, 85, 80
2, 57528, Note_on_c, 0, 91, 80
2, 57528, Note_on_c, 0, 94, 80
2, 57530, Note_on_c, 0, 43, 80
2, 57530, Note_on_c, 0, 51, 80
2, 57530, Note_on_c, 0, 58, 80
2, 57530, Note_on_c, 0, 97, 80
2, 57604, Note_on_c, 0, 51, 0
2, 57644, Note_on_c, 0, 58, 0
2, 57644, Note_on_c, 0, 85, 0
2, 57644, Note_on_c, 0, 94, 0
2, 57644, Note_on_c, 0, 97, 0
2, 57646, Note_on_c, 0, 43, 0
2, 57651, Note_on_c, 0, 87, 80
2, 57651, Note_on_c, 0, 92, 80
2, 57651, Note_on_c, 0, 95, 80
2, 57653, Note_on_c, 0, 44, 80
2, 57653, Note_on_c, 0, 51, 80
2, 57653, Note_on_c, 0, 59, 80
2, 57653, Note_on_c, 0, 83, 80
2, 57655, Note_on_c, 0, 91, 0
2, 57686, Note_on_c, 0, 83, 0
2, 57686, Note_on_c, 0, 51, 0
2, 57686, Note_on_c, 0, 92, 0
2, 57686, Note_on_c, 0, 87, 0
2, 57686, Note_on_c, 0, 44, 0
2, 57686, Note_on_c, 0, 59, 0
2, 57696, Note_on_c, 0, 95, 0
2, 57736, Note_on_c, 0, 75, 80
2, 57736, Note_on_c, 0, 99, 80
2, 57769, Note_on_c, 0, 99, 0
2, 57771, Note_on_c, 0, 75, 0
2, 57778, Note_on_c, 0, 71, 80
2, 57778, Note_on_c, 0, 95, 80
2, 57855, Note_on_c, 0, 71, 0
2, 57861, Note_on_c, 0, 92, 80
2, 57863, Note_on_c, 0, 68, 80
2, 57864, Note_on_c, 0, 95, 0
2, 57895, Note_on_c, 0, 92, 0
2, 57897, Note_on_c, 0, 68, 0
2, 57906, Note_on_c, 0, 63, 80
2, 57906, Note_on_c, 0, 87, 80
2, 57984, Note_on_c, 0, 87, 0
2, 57984, Note_on_c, 0, 63, 0
2, 57993, Note_on_c, 0, 59, 80
2, 57993, Note_on_c, 0, 83, 80
2, 58027, Note_on_c, 0, 83, 0
2, 58027, Note_on_c, 0, 59, 0
2, 58033, Note_on_c, 0, 56, 80
2, 58033, Note_on_c, 0, 80, 80
2, 58110, Control_c, 0, 64, 127
2, 58112, Note_on_c, 0, 80, 0
2, 58112, Note_on_c, 0, 56, 0
2, 58119, Note_on_c, 0, 51, 80
2, 58119, Note_on_c, 0, 75, 80
2, 58152, Note_on_c, 0, 75, 0
2, 58152, Note_on_c, 0, 51, 0
2, 58161, Note_on_c, 0, 76, 80
2, 58161, Note_on_c, 0, 85, 80
2, 58161, Note_on_c, 0, 88, 80
2, 58163, Note_on_c, 0, 49, 80
2, 58163, Note_on_c, 0, 80, 80
2, 58165, Note_on_c, 0, 37, 80
2, 58208, Note_on_c, 0, 37, 0
2, 58208, Note_on_c, 0, 49, 0
2, 58215, Control_c, 0, 64, 0
2, 58240, Note_on_c, 0, 76, 0
2, 58240, Note_on_c, 0, 80, 0
2, 58248, Note_on_c, 0, 88, 0
2, 58248, Note_on_c, 0, 85, 0
2, 58288, Note_on_c, 0, 78, 80
2, 58288, Note_on_c, 0, 90, 80
2, 58290, Note_on_c, 0, 52, 80
2, 58290, Note_on_c, 0, 56, 80
2, 58290, Note_on_c, 0, 61, 80
2, 58313, Note_on_c, 0, 61, 0
2, 58313, Note_on_c, 0, 52, 0
2, 58313, Note_on_c, 0, 56, 0
2, 58323, Note_on_c, 0, 90, 0
2, 58323, Note_on_c, 0, 78, 0
2, 58370, Note_on_c, 0, 88, 80
2, 58372, Note_on_c, 0, 80, 80
2, 58372, Note_on_c, 0, 85, 80
2, 58372, Note_on_c, 0, 92, 80
2, 58416, Note_on_c, 0, 40, 80
2, 58416, Note_on_c, 0, 52, 80
2, 58459, Note_on_c, 0, 52, 0
2, 58459, Note_on_c, 0, 40, 0
2, 58480, Note_on_c, 0, 85, 0
2, 58480, Note_on_c, 0, 92, 0
2, 58480, Note_on_c, 0, 80, 0
2, 58498, Note_on_c, 0, 94, 80
2, 58500, Note_on_c, 0, 82, 80
2, 58502, Note_on_c, 0, 88, 0
2, 58533, Note_on_c, 0, 82, 0
2, 58533, Note_on_c, 0, 94, 0
2, 58541, Note_on_c, 0, 56, 80
2, 58541, Note_on_c, 0, 61, 80
2, 58541, Note_on_c, 0, 83, 80
2, 58541, Note_on_c, 0, 95, 80
2, 58543, Note_on_c, 0, 52, 80
2, 58564, Note_on_c, 0, 52, 0
2, 58564, Note_on_c, 0, 56, 0
2, 58564, Note_on_c, 0, 61, 0
2, 58583, Control_c, 0, 64, 127
2, 58615, Note_on_c, 0, 95, 0
2, 58617, Note_on_c, 0, 83, 0
2, 58667, Note_on_c, 0, 80, 80
2, 58667, Note_on_c, 0, 86, 80
2, 58667, Note_on_c, 0, 89, 80
2, 58667, Note_on_c, 0, 92, 80
2, 58669, Note_on_c, 0, 41, 80
2, 58669, Note_on_c, 0, 53, 80
2, 58710, Note_on_c, 0, 53, 0
2, 58710, Note_on_c, 0, 41, 0
2, 58723, Control_c, 0, 64, 0
2, 58787, Note_on_c, 0, 56, 80
2, 58787, Note_on_c, 0, 59, 80
2, 58787, Note_on_c, 0, 62, 80
2, 58787, Note_on_c, 0, 65, 80
2, 58812, Note_on_c, 0, 65, 0
2, 58812, Note_on_c, 0, 62, 0
2, 58812, Note_on_c, 0, 56, 0
2, 58812, Note_on_c, 0, 59, 0
2, 58823, Note_on_c, 0, 92, 0
2, 58823, Note_on_c, 0, 89, 0
2, 58823, Note_on_c, 0, 86, 0
2, 58823, Note_on_c, 0, 80, 0
2, 58876, Note_on_c, 0, 78, 80
2, 58876, Note_on_c, 0, 83, 80
2, 58876, Note_on_c, 0, 90, 80
2, 58878, Note_on_c, 0, 87, 80
2, 58921, Note_on_c, 0, 42, 80
2, 58921, Note_on_c, 0, 54, 80
2, 58968, Note_on_c, 0, 54, 0
2, 58968, Note_on_c, 0, 42, 0
2, 59045, Note_on_c, 0, 54, 80
2, 59045, Note_on_c, 0, 59, 80
2, 59045, Note_on_c, 0, 63, 80
2, 59066, Note_on_c, 0, 63, 0
2, 59066, Note_on_c, 0, 54, 0
2, 59066, Note_on_c, 0, 59, 0
2, 59118, Note_on_c, 0, 87, 0
2, 59118, Note_on_c, 0, 90, 0
2, 59118, Note_on_c, 0, 78, 0
2, 59120, Note_on_c, 0, 83, 0
2, 59168, Note_on_c, 0, 42, 80
2, 59168, Note_on_c, 0, 54, 80
2, 59168, Note_on_c, 0, 80, 80
2, 59168, Note_on_c, 0, 82, 80
2, 59168, Note_on_c, 0, 85, 80
2, 59168, Note_on_c, 0, 88, 80
2, 59168, Note_on_c, 0, 92, 80
2, 59201, Note_on_c, 0, 92, 0
2, 59201, Note_on_c, 0, 85, 0
2, 59201, Note_on_c, 0, 82, 0
2, 59201, Note_on_c, 0, 88, 0
2, 59203, Note_on_c, 0, 80, 0
2, 59248, Note_on_c, 0, 82, 80
2, 59248, Note_on_c, 0, 85, 80
2, 59248, Note_on_c, 0, 90, 80
2, 59250, Note_on_c, 0, 78, 80
2, 59273, Note_on_c, 0, 54, 0
2, 59273, Note_on_c, 0, 42, 0
2, 59291, Note_on_c, 0, 44, 80
2, 59291, Note_on_c, 0, 56, 80
2, 59325, Note_on_c, 0, 90, 0
2, 59325, Note_on_c, 0, 82, 0
2, 59325, Note_on_c, 0, 85, 0
2, 59325, Note_on_c, 0, 78, 0
2, 59375, Note_on_c, 0, 78, 80
2, 59375, Note_on_c, 0, 82, 80
2, 59375, Note_on_c, 0, 85, 80
2, 59375, Note_on_c, 0, 88, 80
2, 59375, Note_on_c, 0, 90, 80
2, 59407, Note_on_c, 0, 56, 0
2, 59407, Note_on_c, 0, 44, 0
2, 59416, Note_on_c, 0, 46, 80
2, 59416, Note_on_c, 0, 58, 80
2, 59490, Note_on_c, 0, 78, 0
2, 59490, Note_on_c, 0, 82, 0
2, 59490, Note_on_c, 0, 85, 0
2, 59490, Note_on_c, 0, 90, 0
2, 59496, Note_on_c, 0, 92, 80
2, 59497, Note_on_c, 0, 80, 80
2, 59499, Note_on_c, 0, 88, 0
2, 59524, Note_on_c, 0, 46, 0
2, 59524, Note_on_c, 0, 58, 0
2, 59531, Note_on_c, 0, 92, 0
2, 59533, Note_on_c, 0, 80, 0
2, 59540, Note_on_c, 0, 42, 80
2, 59540, Note_on_c, 0, 54, 80
2, 59540, Note_on_c, 0, 78, 80
2, 59540, Note_on_c, 0, 82, 80
2, 59540, Note_on_c, 0, 85, 80
2, 59540, Note_on_c, 0, 88, 80
2, 59540, Note_on_c, 0, 90, 80
2, 59615, Note_on_c, 0, 90, 0
2, 59615, Note_on_c, 0, 85, 0
2, 59615, Note_on_c, 0, 82, 0
2, 59615, Note_on_c, 0, 78, 0
2, 59615, Note_on_c, 0, 88, 0
2, 59616, Note_on_c, 0, 42, 0
2, 59616, Note_on_c, 0, 54, 0
2, 59668, Note_on_c, 0, 47, 80
2, 59668, Note_on_c, 0, 59, 80
2, 59668, Note_on_c, 0, 83, 80
2, 59668, Note_on_c, 0, 87, 80
2, 59668, Note_on_c, 0, 90, 80
2, 59668, Note_on_c, 0, 95, 80
2, 59712, Note_on_c, 0, 90, 0
2, 59712, Note_on_c, 0, 87, 0
2, 59712, Note_on_c, 0, 83, 0
2, 59712, Note_on_c, 0, 47, 0
2, 59712, Note_on_c, 0, 59, 0
2, 59722, Note_on_c, 0, 95, 0
2, 59792, Note_on_c, 0, 78, 80
2, 59796, Note_on_c, 0, 54, 80
2, 59796, Note_on_c, 0, 66, 80
2, 59829, Note_on_c, 0, 66, 0
2, 59829, Note_on_c, 0, 54, 0
2, 59829, Note_on_c, 0, 78, 0
2, 59879, Note_on_c, 0, 54, 80
2, 59879, Note_on_c, 0, 66, 80
2, 59879, Note_on_c, 0, 78, 80
2, 59891, Note_on_c, 0, 78, 0
2, 59891, Note_on_c, 0, 54, 0
2, 59893, Note_on_c, 0, 66, 0
2, 59920, Note_on_c, 0, 54, 80
2, 59920, Note_on_c, 0, 66, 80
2, 59920, Note_on_c, 0, 78, 80
2, 59963, Note_on_c, 0, 78, 0
2, 59963, Note_on_c, 0, 66, 0
2, 59963, Note_on_c, 0, 54, 0
2, 60044, Note_on_c, 0, 45, 80
2, 60044, Note_on_c, 0, 57, 80
2, 60044, Note_on_c, 0, 66, 80
2, 60044, Note_on_c, 0, 69, 80
2, 60044, Note_on_c, 0, 72, 80
2, 60044, Note_on_c, 0, 75, 80
2, 60044, Note_on_c, 0, 78, 80
2, 60083, Note_on_c, 0, 78, 0
2, 60083, Note_on_c, 0, 72, 0
2, 60083, Note_on_c, 0, 75, 0
2, 60085, Note_on_c, 0, 66, 0
2, 60085, Note_on_c, 0, 69, 0
2, 60157, Note_on_c, 0, 57, 0
2, 60157, Note_on_c, 0, 45, 0
2, 60163, Note_on_c, 0, 66, 80
2, 60163, Note_on_c, 0, 70, 80
2, 60163, Note_on_c, 0, 73, 80
2, 60163, Note_on_c, 0, 76, 80
2, 60163, Note_on_c, 0, 78, 80
2, 60165, Note_on_c, 0, 46, 80
2, 60165, Note_on_c, 0, 58, 80
2, 60195, Note_on_c, 0, 78, 0
2, 60195, Note_on_c, 0, 76, 0
2, 60195, Note_on_c, 0, 70, 0
2, 60197, Note_on_c, 0, 46, 0
2, 60197, Note_on_c, 0, 66, 0
2, 60197, Note_on_c, 0, 58, 0
2, 60197, Note_on_c, 0, 73, 0
2, 60239, Control_c, 0, 64, 127
2, 60247, Note_on_c, 0, 76, 80
2, 60267, Note_on_c, 0, 73, 80
2, 60271, Note_on_c, 0, 76, 0
2, 60280, Note_on_c, 0, 70, 80
2, 60288, Note_on_c, 0, 58, 80
2, 60288, Note_on_c, 0, 64, 80
2, 60288, Note_on_c, 0, 66, 80
2, 60290, Note_on_c, 0, 54, 80
2, 60290, Note_on_c, 0, 61, 80
2, 60292, Note_on_c, 0, 73, 0
2, 60312, Note_on_c, 0, 64, 0
2, 60312, Note_on_c, 0, 58, 0
2, 60314, Note_on_c, 0, 61, 0
2, 60314, Note_on_c, 0, 54, 0
2, 60323, Note_on_c, 0, 70, 0
2, 60323, Note_on_c, 0, 66, 0
2, 60346, Control_c, 0, 64, 0
2, 60373, Note_on_c, 0, 66, 80
2, 60373, Note_on_c, 0, 70, 80
2, 60373, Note_on_c, 0, 73, 80
2, 60414, Note_on_c, 0, 42, 80
2, 60414, Note_on_c, 0, 54, 80
2, 60468, Note_on_c, 0, 66, 0
2, 60479, Note_on_c, 0, 70, 0
2, 60479, Note_on_c, 0, 73, 0
2, 60487, Note_on_c, 0, 78, 80
2, 60523, Note_on_c, 0, 78, 0
2, 60523, Note_on_c, 0, 42, 0
2, 60523, Note_on_c, 0, 54, 0
2, 60529, Note_on_c, 0, 40, 80
2, 60529, Note_on_c, 0, 70, 80
2, 60531, Note_on_c, 0, 52, 80
2, 60531, Note_on_c, 0, 66, 80
2, 60531, Note_on_c, 0, 73, 80
2, 60575, Note_on_c, 0, 73, 0
2, 60575, Note_on_c, 0, 70, 0
2, 60575, Note_on_c, 0, 66, 0
2, 60649, Note_on_c, 0, 52, 0
2, 60649, Note_on_c, 0, 40, 0
2, 60655, Note_on_c, 0, 51, 80
2, 60655, Note_on_c, 0, 66, 80
2, 60655, Note_on_c, 0, 71, 80
2, 60655, Note_on_c, 0, 75, 80
2, 60655, Note_on_c, 0, 78, 80
2, 60659, Note_on_c, 0, 39, 80
2, 60692, Note_on_c, 0, 78, 0
2, 60692, Note_on_c, 0, 75, 0
2, 60692, Note_on_c, 0, 71, 0
2, 60692, Note_on_c, 0, 51, 0
2, 60692, Note_on_c, 0, 66, 0
2, 60694, Note_on_c, 0, 39, 0
2, 60744, Note_on_c, 0, 78, 80
2, 60765, Note_on_c, 0, 75, 80
2, 60775, Note_on_c, 0, 71, 80
2, 60784, Note_on_c, 0, 66, 80
2, 60786, Note_on_c, 0, 54, 80
2, 60786, Note_on_c, 0, 59, 80
2, 60786, Note_on_c, 0, 63, 80
2, 60809, Note_on_c, 0, 63, 0
2, 60809, Note_on_c, 0, 54, 0
2, 60809, Note_on_c, 0, 59, 0
2, 60817, Note_on_c, 0, 71, 0
2, 60817, Note_on_c, 0, 78, 0
2, 60817, Note_on_c, 0, 75, 0
2, 60817, Note_on_c, 0, 66, 0
2, 60869, Note_on_c, 0, 66, 80
2, 60869, Note_on_c, 0, 71, 80
2, 60869, Note_on_c, 0, 75, 80
2, 60869, Note_on_c, 0, 78, 80
2, 60909, Note_on_c, 0, 63, 80
2, 60911, Note_on_c, 0, 51, 80
2, 60941, Note_on_c, 0, 78, 0
2, 60941, Note_on_c, 0, 66, 0
2, 60970, Note_on_c, 0, 71, 0
2, 60970, Note_on_c, 0, 75, 0
2, 60990, Note_on_c, 0, 66, 80
2, 60990, Note_on_c, 0, 78, 80
2, 61019, Note_on_c, 0, 49, 80
2, 61023, Note_on_c, 0, 78, 0
2, 61023, Note_on_c, 0, 66, 0
2, 61023, Note_on_c, 0, 63, 0
2, 61023, Note_on_c, 0, 51, 0
2, 61029, Note_on_c, 0, 61, 80
2, 61029, Note_on_c, 0, 67, 80
2, 61029, Note_on_c, 0, 73, 80
2, 61029, Note_on_c, 0, 75, 80
2, 61029, Note_on_c, 0, 79, 80
2, 61104, Note_on_c, 0, 75, 0
2, 61143, Note_on_c, 0, 79, 0
2, 61145, Note_on_c, 0, 67, 0
2, 61145, Note_on_c, 0, 49, 0
2, 61145, Note_on_c, 0, 61, 0
2, 61145, Note_on_c, 0, 73, 0
2, 61153, Note_on_c, 0, 48, 80
2, 61153, Note_on_c, 0, 60, 80
2, 61153, Note_on_c, 0, 68, 80
2, 61153, Note_on_c, 0, 72, 80
2, 61153, Note_on_c, 0, 75, 80
2, 61153, Note_on_c, 0, 80, 80
2, 61186, Note_on_c, 0, 80, 0
2, 61186, Note_on_c, 0, 60, 0
2, 61186, Note_on_c, 0, 68, 0
2, 61186, Note_on_c, 0, 48, 0
2, 61186, Note_on_c, 0, 75, 0
2, 61186, Note_on_c, 0, 72, 0
2, 61238, Note_on_c, 0, 78, 80
2, 61258, Note_on_c, 0, 75, 80
2, 61271, Note_on_c, 0, 72, 80
2, 61279, Note_on_c, 0, 51, 80
2, 61279, Note_on_c, 0, 54, 80
2, 61279, Note_on_c, 0, 56, 80
2, 61279, Note_on_c, 0, 60, 80
2, 61279, Note_on_c, 0, 68, 80
2, 61302, Note_on_c, 0, 60, 0
2, 61302, Note_on_c, 0, 51, 0
2, 61302, Note_on_c, 0, 54, 0
2, 61302, Note_on_c, 0, 56, 0
2, 61313, Note_on_c, 0, 72, 0
2, 61313, Note_on_c, 0, 78, 0
2, 61313, Note_on_c, 0, 75, 0
2, 61315, Note_on_c, 0, 68, 0
2, 61363, Note_on_c, 0, 72, 80
2, 61365, Note_on_c, 0, 68, 80
2, 61365, Note_on_c, 0, 75, 80
2, 61408, Note_on_c, 0, 44, 80
2, 61408, Note_on_c, 0, 56, 80
2, 61470, Note_on_c, 0, 75, 0
2, 61470, Note_on_c, 0, 72, 0
2, 61472, Note_on_c, 0, 68, 0
2, 61488, Note_on_c, 0, 80, 80
2, 61522, Note_on_c, 0, 80, 0
2, 61522, Note_on_c, 0, 56, 0
2, 61522, Note_on_c, 0, 44, 0
2, 61529, Note_on_c, 0, 42, 80
2, 61529, Note_on_c, 0, 54, 80
2, 61529, Note_on_c, 0, 68, 80
2, 61529, Note_on_c, 0, 72, 80
2, 61529, Note_on_c, 0, 75, 80
2, 61574, Note_on_c, 0, 75, 0
2, 61574, Note_on_c, 0, 68, 0
2, 61574, Note_on_c, 0, 72, 0
2, 61649, Note_on_c, 0, 54, 0
2, 61649, Note_on_c, 0, 42, 0
2, 61656, Note_on_c, 0, 40, 80
2, 61656, Note_on_c, 0, 76, 80
2, 61657, Note_on_c, 0, 52, 80
2, 61657, Note_on_c, 0, 68, 80
2, 61657, Note_on_c, 0, 73, 80
2, 61659, Note_on_c, 0, 80, 80
2, 61692, Note_on_c, 0, 80, 0
2, 61692, Note_on_c, 0, 76, 0
2, 61692, Note_on_c, 0, 52, 0
2, 61692, Note_on_c, 0, 40, 0
2, 61692, Note_on_c, 0, 73, 0
2, 61692, Note_on_c, 0, 68, 0
2, 61742, Note_on_c, 0, 80, 80
2, 61765, Note_on_c, 0, 76, 80
2, 61774, Note_on_c, 0, 73, 80
2, 61782, Note_on_c, 0, 52, 80
2, 61782, Note_on_c, 0, 56, 80
2, 61782, Note_on_c, 0, 61, 80
2, 61782, Note_on_c, 0, 68, 80
2, 61807, Note_on_c, 0, 61, 0
2, 61807, Note_on_c, 0, 52, 0
2, 61807, Note_on_c, 0, 56, 0
2, 61816, Note_on_c, 0, 73, 0
2, 61816, Note_on_c, 0, 80, 0
2, 61816, Note_on_c, 0, 76, 0
2, 61816, Note_on_c, 0, 68, 0
2, 61866, Note_on_c, 0, 68, 80
2, 61866, Note_on_c, 0, 73, 80
2, 61866, Note_on_c, 0, 76, 80
2, 61866, Note_on_c, 0, 80, 80
2, 61907, Note_on_c, 0, 49, 80
2, 61907, Note_on_c, 0, 61, 80
2, 61938, Note_on_c, 0, 80, 0
2, 61938, Note_on_c, 0, 68, 0
2, 61979, Note_on_c, 0, 49, 0
2, 61979, Note_on_c, 0, 73, 0
2, 61979, Note_on_c, 0, 61, 0
2, 61979, Note_on_c, 0, 76, 0
2, 61986, Note_on_c, 0, 68, 80
2, 61986, Note_on_c, 0, 80, 80
2, 61996, Note_on_c, 0, 80, 0
2, 62019, Note_on_c, 0, 68, 0
2, 62026, Note_on_c, 0, 48, 80
2, 62026, Note_on_c, 0, 60, 80
2, 62026, Note_on_c, 0, 69, 80
2, 62026, Note_on_c, 0, 72, 80
2, 62026, Note_on_c, 0, 75, 80
2, 62026, Note_on_c, 0, 80, 80
2, 62100, Note_on_c, 0, 80, 0
2, 62139, Note_on_c, 0, 60, 0
2, 62139, Note_on_c, 0, 69, 0
2, 62139, Note_on_c, 0, 48, 0
2, 62139, Note_on_c, 0, 75, 0
2, 62139, Note_on_c, 0, 72, 0
2, 62145, Note_on_c, 0, 70, 80
2, 62145, Note_on_c, 0, 76, 80
2, 62147, Note_on_c, 0, 49, 80
2, 62147, Note_on_c, 0, 61, 80
2, 62147, Note_on_c, 0, 68, 80
2, 62147, Note_on_c, 0, 73, 80
2, 62147, Note_on_c, 0, 80, 80
2, 62190, Note_on_c, 0, 80, 0
2, 62190, Note_on_c, 0, 68, 0
2, 62190, Note_on_c, 0, 76, 0
2, 62190, Note_on_c, 0, 70, 0
2, 62190, Note_on_c, 0, 73, 0
2, 62192, Note_on_c, 0, 61, 0
2, 62192, Note_on_c, 0, 49, 0
2, 62271, Note_on_c, 0, 54, 80
2, 62271, Note_on_c, 0, 58, 80
2, 62271, Note_on_c, 0, 61, 80
2, 62271, Note_on_c, 0, 64, 80
2, 62294, Note_on_c, 0, 64, 0
2, 62294, Note_on_c, 0, 54, 0
2, 62294, Note_on_c, 0, 58, 0
2, 62294, Note_on_c, 0, 61, 0
2, 62350, Note_on_c, 0, 69, 80
2, 62382, Note_on_c, 0, 69, 0
2, 62389, Note_on_c, 0, 42, 80
2, 62389, Note_on_c, 0, 54, 80
2, 62389, Note_on_c, 0, 70, 80
2, 62422, Note_on_c, 0, 70, 0
2, 62434, Note_on_c, 0, 54, 0
2, 62434, Note_on_c, 0, 42, 0
2, 62473, Note_on_c, 0, 70, 80
2, 62473, Note_on_c, 0, 76, 80
2, 62473, Note_on_c, 0, 78, 80
2, 62515, Note_on_c, 0, 54, 80
2, 62515, Note_on_c, 0, 58, 80
2, 62515, Note_on_c, 0, 61, 80
2, 62515, Note_on_c, 0, 64, 80
2, 62538, Note_on_c, 0, 64, 0
2, 62538, Note_on_c, 0, 58, 0
2, 62538, Note_on_c, 0, 54, 0
2, 62538, Note_on_c, 0, 61, 0
2, 62548, Note_on_c, 0, 70, 0
2, 62579, Note_on_c, 0, 78, 0
2, 62579, Note_on_c, 0, 76, 0
2, 62599, Note_on_c, 0, 70, 80
2, 62633, Note_on_c, 0, 70, 0
2, 62640, Note_on_c, 0, 49, 80
2, 62640, Note_on_c, 0, 61, 80
2, 62641, Note_on_c, 0, 76, 80
2, 62641, Note_on_c, 0, 80, 80
2, 62685, Note_on_c, 0, 61, 0
2, 62685, Note_on_c, 0, 49, 0
2, 62715, Note_on_c, 0, 76, 0
2, 62715, Note_on_c, 0, 80, 0
2, 62724, Note_on_c, 0, 69, 80
2, 62757, Note_on_c, 0, 69, 0
2, 62767, Note_on_c, 0, 54, 80
2, 62767, Note_on_c, 0, 58, 80
2, 62767, Note_on_c, 0, 61, 80
2, 62767, Note_on_c, 0, 64, 80
2, 62767, Note_on_c, 0, 70, 80
2, 62790, Note_on_c, 0, 64, 0
2, 62790, Note_on_c, 0, 61, 0
2, 62790, Note_on_c, 0, 54, 0
2, 62790, Note_on_c, 0, 58, 0
2, 62799, Note_on_c, 0, 70, 0
2, 62853, Note_on_c, 0, 70, 80
2, 62853, Note_on_c, 0, 76, 80
2, 62853, Note_on_c, 0, 78, 80
2, 62894, Note_on_c, 0, 42, 80
2, 62894, Note_on_c, 0, 54, 80
2, 62939, Note_on_c, 0, 54, 0
2, 62939, Note_on_c, 0, 42, 0
2, 62966, Note_on_c, 0, 78, 0
2, 62966, Note_on_c, 0, 76, 0
2, 62968, Note_on_c, 0, 70, 0
2, 62976, Note_on_c, 0, 66, 80
2, 63009, Note_on_c, 0, 66, 0
2, 63018, Note_on_c, 0, 78, 80
2, 63020, Note_on_c, 0, 46, 80
2, 63020, Note_on_c, 0, 58, 80
2, 63020, Note_on_c, 0, 73, 80
2, 63020, Note_on_c, 0, 76, 80
2, 63061, Note_on_c, 0, 76, 0
2, 63061, Note_on_c, 0, 78, 0
2, 63063, Note_on_c, 0, 73, 0
2, 63137, Note_on_c, 0, 58, 0
2, 63137, Note_on_c, 0, 46, 0
2, 63144, Note_on_c, 0, 47, 80
2, 63144, Note_on_c, 0, 59, 80
2, 63144, Note_on_c, 0, 68, 80
2, 63144, Note_on_c, 0, 71, 80
2, 63144, Note_on_c, 0, 75, 80
2, 63144, Note_on_c, 0, 80, 80
2, 63187, Note_on_c, 0, 75, 0
2, 63191, Note_on_c, 0, 59, 0
2, 63191, Note_on_c, 0, 68, 0
2, 63191, Note_on_c, 0, 47, 0
2, 63191, Note_on_c, 0, 80, 0
2, 63191, Note_on_c, 0, 71, 0
2, 63277, Note_on_c, 0, 54, 80
2, 63277, Note_on_c, 0, 59, 80
2, 63277, Note_on_c, 0, 63, 80
2, 63298, Note_on_c, 0, 63, 0
2, 63300, Note_on_c, 0, 59, 0
2, 63300, Note_on_c, 0, 54, 0
2, 63360, Note_on_c, 0, 70, 80
2, 63396, Note_on_c, 0, 70, 0
2, 63405, Note_on_c, 0, 39, 80
2, 63405, Note_on_c, 0, 51, 80
2, 63405, Note_on_c, 0, 71, 80
2, 63438, Note_on_c, 0, 71, 0
2, 63451, Note_on_c, 0, 51, 0
2, 63451, Note_on_c, 0, 39, 0
2, 63486, Note_on_c, 0, 78, 80
2, 63490, Note_on_c, 0, 75, 80
2, 63531, Note_on_c, 0, 54, 80
2, 63531, Note_on_c, 0, 59, 80
2, 63531, Note_on_c, 0, 63, 80
2, 63552, Note_on_c, 0, 63, 0
2, 63554, Note_on_c, 0, 54, 0
2, 63554, Note_on_c, 0, 59, 0
2, 63594, Note_on_c, 0, 75, 0
2, 63594, Note_on_c, 0, 78, 0
2, 63614, Note_on_c, 0, 71, 80
2, 63628, Note_on_c, 0, 71, 0
2, 63657, Note_on_c, 0, 42, 80
2, 63657, Note_on_c, 0, 54, 80
2, 63657, Note_on_c, 0, 71, 80
2, 63657, Note_on_c, 0, 75, 80
2, 63657, Note_on_c, 0, 80, 80
2, 63702, Note_on_c, 0, 54, 0
2, 63702, Note_on_c, 0, 42, 0
2, 63731, Note_on_c, 0, 75, 0
2, 63731, Note_on_c, 0, 71, 0
2, 63731, Note_on_c, 0, 80, 0
2, 63738, Note_on_c, 0, 70, 80
2, 63775, Note_on_c, 0, 70, 0
2, 63782, Note_on_c, 0, 51, 80
2, 63782, Note_on_c, 0, 54, 80
2, 63782, Note_on_c, 0, 59, 80
2, 63782, Note_on_c, 0, 71, 80
2, 63803, Note_on_c, 0, 59, 0
2, 63803, Note_on_c, 0, 51, 0
2, 63805, Note_on_c, 0, 54, 0
2, 63814, Note_on_c, 0, 71, 0
2, 63864, Note_on_c, 0, 71, 80
2, 63864, Note_on_c, 0, 75, 80
2, 63864, Note_on_c, 0, 78, 80
2, 63903, Note_on_c, 0, 47, 80
2, 63905, Note_on_c, 0, 59, 80
2, 63948, Note_on_c, 0, 59, 0
2, 63948, Note_on_c, 0, 47, 0
2, 63979, Note_on_c, 0, 71, 0
2, 63979, Note_on_c, 0, 75, 0
2, 63979, Note_on_c, 0, 78, 0
2, 64027, Note_on_c, 0, 45, 80
2, 64027, Note_on_c, 0, 66, 80
2, 64027, Note_on_c, 0, 72, 80
2, 64027, Note_on_c, 0, 75, 80
2, 64027, Note_on_c, 0, 78, 80
2, 64029, Note_on_c, 0, 57, 80
2, 64101, Note_on_c, 0, 78, 0
2, 64101, Note_on_c, 0, 66, 0
2, 64131, Note_on_c, 0, 75, 0
2, 64131, Note_on_c, 0, 72, 0
2, 64144, Note_on_c, 0, 45, 0
2, 64144, Note_on_c, 0, 57, 0
2, 64150, Note_on_c, 0, 66, 80
2, 64150, Note_on_c, 0, 70, 80
2, 64150, Note_on_c, 0, 76, 80
2, 64150, Note_on_c, 0, 78, 80
2, 64152, Note_on_c, 0, 46, 80
2, 64152, Note_on_c, 0, 58, 80
2, 64184, Note_on_c, 0, 78, 0
2, 64184, Note_on_c, 0, 76, 0
2, 64184, Note_on_c, 0, 66, 0
2, 64184, Note_on_c, 0, 70, 0
2, 64186, Note_on_c, 0, 58, 0
2, 64186, Note_on_c, 0, 46, 0
2, 64234, Note_on_c, 0, 78, 80
2, 64257, Note_on_c, 0, 76, 80
2, 64266, Note_on_c, 0, 70, 80
2, 64276, Note_on_c, 0, 52, 80
2, 64276, Note_on_c, 0, 66, 80
2, 64278, Note_on_c, 0, 49, 80
2, 64278, Note_on_c, 0, 54, 80
2, 64278, Note_on_c, 0, 58, 80
2, 64298, Note_on_c, 0, 58, 0
2, 64298, Note_on_c, 0, 54, 0
2, 64298, Note_on_c, 0, 52, 0
2, 64300, Note_on_c, 0, 49, 0
2, 64309, Note_on_c, 0, 78, 0
2, 64309, Note_on_c, 0, 70, 0
2, 64309, Note_on_c, 0, 76, 0
2, 64311, Note_on_c, 0, 66, 0
2, 64350, Control_c, 0, 64, 127
2, 64359, Note_on_c, 0, 70, 80
2, 64361, Note_on_c, 0, 66, 80
2, 64361, Note_on_c, 0, 76, 80
2, 64361, Note_on_c, 0, 78, 80
2, 64400, Note_on_c, 0, 42, 80
2, 64400, Note_on_c, 0, 54, 80
2, 64433, Note_on_c, 0, 78, 0
2, 64445, Note_on_c, 0, 42, 0
2, 64445, Note_on_c, 0, 54, 0
2, 64454, Control_c, 0, 64, 0
2, 64463, Note_on_c, 0, 66, 0
2, 64473, Note_on_c, 0, 76, 0
2, 64473, Note_on_c, 0, 70, 0
2, 64482, Note_on_c, 0, 78, 80
2, 64514, Note_on_c, 0, 78, 0
2, 64523, Note_on_c, 0, 70, 80
2, 64525, Note_on_c, 0, 40, 80
2, 64525, Note_on_c, 0, 52, 80
2, 64525, Note_on_c, 0, 66, 80
2, 64525, Note_on_c, 0, 73, 80
2, 64566, Note_on_c, 0, 73, 0
2, 64566, Note_on_c, 0, 70, 0
2, 64566, Note_on_c, 0, 66, 0
2, 64632, Note_on_c, 0, 52, 0
2, 64632, Note_on_c, 0, 40, 0
2, 64647, Note_on_c, 0, 51, 80
2, 64647, Note_on_c, 0, 66, 80
2, 64647, Note_on_c, 0, 71, 80
2, 64649, Note_on_c, 0, 39, 80
2, 64681, Note_on_c, 0, 71, 0
2, 64681, Note_on_c, 0, 66, 0
2, 64690, Note_on_c, 0, 51, 0
2, 64690, Note_on_c, 0, 39, 0
2, 64729, Note_on_c, 0, 78, 80
2, 64773, Note_on_c, 0, 54, 80
2, 64773, Note_on_c, 0, 59, 80
2, 64773, Note_on_c, 0, 63, 80
2, 64796, Note_on_c, 0, 63, 0
2, 64796, Note_on_c, 0, 59, 0
2, 64796, Note_on_c, 0, 54, 0
2, 64804, Note_on_c, 0, 78, 0
2, 64854, Note_on_c, 0, 78, 80
2, 64856, Note_on_c, 0, 66, 80
2, 64856, Note_on_c, 0, 71, 80
2, 64856, Note_on_c, 0, 75, 80
2, 64899, Note_on_c, 0, 51, 80
2, 64899, Note_on_c, 0, 63, 80
2, 64933, Note_on_c, 0, 66, 0
2, 64933, Note_on_c, 0, 78, 0
2, 64974, Note_on_c, 0, 75, 0
2, 64974, Note_on_c, 0, 71, 0
2, 64983, Note_on_c, 0, 66, 80
2, 64983, Note_on_c, 0, 78, 80
2, 65016, Note_on_c, 0, 78, 0
2, 65016, Note_on_c, 0, 51, 0
2, 65016, Note_on_c, 0, 63, 0
2, 65016, Note_on_c, 0, 66, 0
2, 65023, Note_on_c, 0, 49, 80
2, 65023, Note_on_c, 0, 61, 80
2, 65023, Note_on_c, 0, 67, 80
2, 65023, Note_on_c, 0, 73, 80
2, 65023, Note_on_c, 0, 75, 80
2, 65023, Note_on_c, 0, 79, 80
2, 65102, Note_on_c, 0, 75, 0
2, 65145, Note_on_c, 0, 61, 0
2, 65145, Note_on_c, 0, 67, 0
2, 65145, Note_on_c, 0, 49, 0
2, 65145, Note_on_c, 0, 79, 0
2, 65145, Note_on_c, 0, 73, 0
2, 65152, Note_on_c, 0, 48, 80
2, 65152, Note_on_c, 0, 60, 80
2, 65152, Note_on_c, 0, 68, 80
2, 65152, Note_on_c, 0, 72, 80
2, 65152, Note_on_c, 0, 75, 80
2, 65152, Note_on_c, 0, 80, 80
2, 65197, Note_on_c, 0, 75, 0
2, 65197, Note_on_c, 0, 72, 0
2, 65197, Note_on_c, 0, 68, 0
2, 65197, Note_on_c, 0, 48, 0
2, 65197, Note_on_c, 0, 60, 0
2, 65236, Note_on_c, 0, 78, 80
2, 65257, Note_on_c, 0, 75, 80
2, 65266, Note_on_c, 0, 72, 80
2, 65279, Note_on_c, 0, 54, 80
2, 65279, Note_on_c, 0, 56, 80
2, 65279, Note_on_c, 0, 60, 80
2, 65279, Note_on_c, 0, 63, 80
2, 65279, Note_on_c, 0, 68, 80
2, 65287, Control_c, 0, 64, 127
2, 65300, Note_on_c, 0, 63, 0
2, 65302, Note_on_c, 0, 60, 0
2, 65302, Note_on_c, 0, 56, 0
2, 65302, Note_on_c, 0, 54, 0
2, 65310, Note_on_c, 0, 78, 0
2, 65310, Note_on_c, 0, 75, 0
2, 65310, Note_on_c, 0, 68, 0
2, 65310, Note_on_c, 0, 80, 0
2, 65310, Note_on_c, 0, 72, 0
2, 65364, Note_on_c, 0, 68, 80
2, 65407, Note_on_c, 0, 44, 80
2, 65407, Note_on_c, 0, 56, 80
2, 65428, Control_c, 0, 64, 0
2, 65482, Note_on_c, 0, 68, 0
2, 65488, Note_on_c, 0, 72, 80
2, 65490, Note_on_c, 0, 75, 80
2, 65490, Note_on_c, 0, 80, 80
2, 65515, Note_on_c, 0, 56, 0
2, 65515, Note_on_c, 0, 44, 0
2, 65523, Note_on_c, 0, 72, 0
2, 65525, Note_on_c, 0, 75, 0
2, 65525, Note_on_c, 0, 80, 0
2, 65531, Note_on_c, 0, 42, 80
2, 65531, Note_on_c, 0, 54, 80
2, 65531, Note_on_c, 0, 68, 80
2, 65576, Note_on_c, 0, 68, 0
2, 65639, Note_on_c, 0, 42, 0
2, 65649, Note_on_c, 0, 54, 0
2, 65656, Note_on_c, 0, 40, 80
2, 65656, Note_on_c, 0, 68, 80
2, 65656, Note_on_c, 0, 73, 80
2, 65660, Note_on_c, 0, 52, 80
2, 65688, Note_on_c, 0, 68, 0
2, 65690, Note_on_c, 0, 73, 0
2, 65701, Note_on_c, 0, 40, 0
2, 65701, Note_on_c, 0, 52, 0
2, 65742, Note_on_c, 0, 80, 80
2, 65782, Note_on_c, 0, 52, 80
2, 65782, Note_on_c, 0, 56, 80
2, 65782, Note_on_c, 0, 61, 80
2, 65805, Note_on_c, 0, 61, 0
2, 65805, Note_on_c, 0, 56, 0
2, 65805, Note_on_c, 0, 52, 0
2, 65815, Note_on_c, 0, 80, 0
2, 65865, Note_on_c, 0, 68, 80
2, 65865, Note_on_c, 0, 76, 80
2, 65865, Note_on_c, 0, 80, 80
2, 65906, Note_on_c, 0, 37, 80
2, 65906, Note_on_c, 0, 49, 80
2, 65939, Note_on_c, 0, 76, 0
2, 65978, Note_on_c, 0, 37, 0
2, 65978, Note_on_c, 0, 68, 0
2, 65980, Note_on_c, 0, 80, 0
2, 65980, Note_on_c, 0, 49, 0
2, 65987, Note_on_c, 0, 76, 80
2, 66021, Note_on_c, 0, 76, 0
2, 66029, Note_on_c, 0, 40, 80
2, 66029, Note_on_c, 0, 52, 80
2, 66029, Note_on_c, 0, 68, 80
2, 66029, Note_on_c, 0, 73, 80
2, 66029, Note_on_c, 0, 80, 80
2, 66072, Note_on_c, 0, 80, 0
2, 66072, Note_on_c, 0, 68, 0
2, 66072, Note_on_c, 0, 73, 0
2, 66144, Note_on_c, 0, 52, 0
2, 66144, Note_on_c, 0, 40, 0
2, 66151, Note_on_c, 0, 41, 80
2, 66151, Note_on_c, 0, 53, 80
2, 66151, Note_on_c, 0, 68, 80
2, 66151, Note_on_c, 0, 71, 80
2, 66151, Note_on_c, 0, 74, 80
2, 66151, Note_on_c, 0, 77, 80
2, 66151, Note_on_c, 0, 80, 80
2, 66194, Note_on_c, 0, 80, 0
2, 66194, Note_on_c, 0, 74, 0
2, 66194, Note_on_c, 0, 53, 0
2, 66194, Note_on_c, 0, 68, 0
2, 66194, Note_on_c, 0, 41, 0
2, 66194, Note_on_c, 0, 77, 0
2, 66194, Note_on_c, 0, 71, 0
2, 66277, Note_on_c, 0, 42, 80
2, 66277, Note_on_c, 0, 54, 80
2, 66361, Note_on_c, 0, 65, 80
2, 66361, Note_on_c, 0, 77, 80
2, 66395, Note_on_c, 0, 77, 0
2, 66395, Note_on_c, 0, 42, 0
2, 66395, Note_on_c, 0, 54, 0
2, 66395, Note_on_c, 0, 65, 0
2, 66402, Note_on_c, 0, 44, 80
2, 66402, Note_on_c, 0, 56, 80
2, 66402, Note_on_c, 0, 62, 80
2, 66402, Note_on_c, 0, 74, 80
2, 66474, Note_on_c, 0, 74, 0
2, 66476, Note_on_c, 0, 62, 0
2, 66481, Note_on_c, 0, 77, 80
2, 66483, Note_on_c, 0, 65, 80
2, 66496, Note_on_c, 0, 77, 0
2, 66506, Note_on_c, 0, 56, 0
2, 66515, Note_on_c, 0, 44, 0
2, 66517, Note_on_c, 0, 65, 0
2, 66523, Note_on_c, 0, 41, 80
2, 66525, Note_on_c, 0, 53, 80
2, 66525, Note_on_c, 0, 68, 80
2, 66525, Note_on_c, 0, 71, 80
2, 66525, Note_on_c, 0, 74, 80
2, 66525, Note_on_c, 0, 77, 80
2, 66525, Note_on_c, 0, 80, 80
2, 66599, Note_on_c, 0, 71, 0
2, 66634, Note_on_c, 0, 74, 0
2, 66634, Note_on_c, 0, 77, 0
2, 66636, Note_on_c, 0, 68, 0
2, 66636, Note_on_c, 0, 41, 0
2, 66636, Note_on_c, 0, 53, 0
2, 66636, Note_on_c, 0, 80, 0
2, 66642, Note_on_c, 0, 75, 80
2, 66642, Note_on_c, 0, 78, 80
2, 66644, Note_on_c, 0, 42, 80
2, 66644, Note_on_c, 0, 54, 80
2, 66644, Note_on_c, 0, 66, 80
2, 66644, Note_on_c, 0, 71, 80
2, 66687, Note_on_c, 0, 71, 0
2, 66687, Note_on_c, 0, 78, 0
2, 66687, Note_on_c, 0, 42, 0
2, 66687, Note_on_c, 0, 75, 0
2, 66687, Note_on_c, 0, 66, 0
2, 66687, Note_on_c, 0, 54, 0
2, 66768, Note_on_c, 0, 54, 80
2, 66768, Note_on_c, 0, 59, 80
2, 66768, Note_on_c, 0, 63, 80
2, 66768, Note_on_c, 0, 68, 80
2, 66768, Note_on_c, 0, 71, 80
2, 66768, Note_on_c, 0, 75, 80
2, 66768, Note_on_c, 0, 80, 80
2, 66789, Note_on_c, 0, 63, 0
2, 66789, Note_on_c, 0, 54, 0
2, 66789, Note_on_c, 0, 59, 0
2, 66797, Note_on_c, 0, 75, 0
2, 66799, Note_on_c, 0, 68, 0
2, 66799, Note_on_c, 0, 71, 0
2, 66799, Note_on_c, 0, 80, 0
2, 66808, Control_c, 0, 64, 127
2, 66849, Note_on_c, 0, 75, 80
2, 66849, Note_on_c, 0, 78, 80
2, 66851, Note_on_c, 0, 66, 80
2, 66851, Note_on_c, 0, 71, 80
2, 66890, Note_on_c, 0, 39, 80
2, 66890, Note_on_c, 0, 51, 80
2, 66923, Note_on_c, 0, 66, 0
2, 66944, Control_c, 0, 64, 0
2, 66964, Note_on_c, 0, 78, 0
2, 66964, Note_on_c, 0, 71, 0
2, 66964, Note_on_c, 0, 75, 0
2, 66964, Note_on_c, 0, 51, 0
2, 66966, Note_on_c, 0, 39, 0
2, 66973, Note_on_c, 0, 66, 80
2, 67014, Note_on_c, 0, 36, 80
2, 67014, Note_on_c, 0, 48, 80
2, 67014, Note_on_c, 0, 69, 80
2, 67014, Note_on_c, 0, 75, 80
2, 67014, Note_on_c, 0, 78, 80
2, 67086, Note_on_c, 0, 78, 0
2, 67086, Note_on_c, 0, 69, 0
2, 67086, Note_on_c, 0, 75, 0
2, 67088, Note_on_c, 0, 66, 0
2, 67131, Note_on_c, 0, 48, 0
2, 67131, Note_on_c, 0, 36, 0
2, 67137, Note_on_c, 0, 37, 80
2, 67137, Note_on_c, 0, 64, 80
2, 67137, Note_on_c, 0, 68, 80
2, 67137, Note_on_c, 0, 76, 80
2, 67139, Note_on_c, 0, 49, 80
2, 67139, Note_on_c, 0, 73, 80
2, 67184, Note_on_c, 0, 73, 0
2, 67184, Note_on_c, 0, 64, 0
2, 67184, Note_on_c, 0, 68, 0
2, 67184, Note_on_c, 0, 37, 0
2, 67184, Note_on_c, 0, 76, 0
2, 67186, Note_on_c, 0, 49, 0
2, 67271, Note_on_c, 0, 52, 80
2, 67271, Note_on_c, 0, 56, 80
2, 67271, Note_on_c, 0, 61, 80
2, 67271, Note_on_c, 0, 73, 80
2, 67296, Note_on_c, 0, 61, 0
2, 67296, Note_on_c, 0, 52, 0
2, 67296, Note_on_c, 0, 56, 0
2, 67345, Note_on_c, 0, 73, 0
2, 67354, Note_on_c, 0, 71, 80
2, 67388, Note_on_c, 0, 71, 0
2, 67394, Note_on_c, 0, 42, 80
2, 67394, Note_on_c, 0, 54, 80
2, 67394, Note_on_c, 0, 70, 80
2, 67441, Note_on_c, 0, 54, 0
2, 67441, Note_on_c, 0, 42, 0
2, 67470, Note_on_c, 0, 70, 0
2, 67479, Note_on_c, 0, 73, 80
2, 67512, Note_on_c, 0, 73, 0
2, 67518, Note_on_c, 0, 49, 80
2, 67518, Note_on_c, 0, 54, 80
2, 67518, Note_on_c, 0, 58, 80
2, 67518, Note_on_c, 0, 68, 80
2, 67543, Note_on_c, 0, 58, 0
2, 67543, Note_on_c, 0, 49, 0
2, 67543, Note_on_c, 0, 54, 0
2, 67583, Note_on_c, 0, 68, 0
2, 67601, Note_on_c, 0, 70, 80
2, 67634, Note_on_c, 0, 70, 0
2, 67640, Note_on_c, 0, 47, 80
2, 67640, Note_on_c, 0, 54, 80
2, 67640, Note_on_c, 0, 59, 80
2, 67640, Note_on_c, 0, 63, 80
2, 67640, Note_on_c, 0, 71, 80
2, 67685, Note_on_c, 0, 71, 0
2, 67685, Note_on_c, 0, 63, 0
2, 67685, Control_c, 0, 64, 127
2, 67687, Note_on_c, 0, 47, 0
2, 67687, Note_on_c, 0, 54, 0
2, 67687, Note_on_c, 0, 59, 0
2, 67770, Note_on_c, 0, 47, 80
2, 67770, Note_on_c, 0, 59, 80
2, 67770, Note_on_c, 0, 71, 80
2, 67770, Note_on_c, 0, 75, 80
2, 67770, Note_on_c, 0, 78, 80
2, 67770, Note_on_c, 0, 83, 80
2, 67856, Control_c, 0, 64, 0
2, 67971, Note_on_c, 0, 78, 0
2, 67973, Note_on_c, 0, 59, 0
2, 67973, Note_on_c, 0, 71, 0
2, 67973, Note_on_c, 0, 75, 0
2, 67973, Note_on_c, 0, 83, 0
2, 67986, Note_on_c, 0, 47, 0
2, 68025, Note_on_c, 0, 44, 80
2, 68025, Note_on_c, 0, 56, 80
2, 68025, Note_on_c, 0, 71, 80
2, 68025, Note_on_c, 0, 75, 80
2, 68025, Note_on_c, 0, 77, 80
2, 68025, Note_on_c, 0, 83, 80
2, 68100, Note_on_c, 0, 77, 0
2, 68141, Note_on_c, 0, 75, 0
2, 68141, Note_on_c, 0, 44, 0
2, 68143, Note_on_c, 0, 56, 0
2, 68143, Note_on_c, 0, 83, 0
2, 68143, Note_on_c, 0, 71, 0
2, 68150, Note_on_c, 0, 46, 80
2, 68150, Note_on_c, 0, 50, 80
2, 68150, Note_on_c, 0, 53, 80
2, 68152, Note_on_c, 0, 58, 80
2, 68152, Note_on_c, 0, 70, 80
2, 68152, Note_on_c, 0, 74, 80
2, 68152, Note_on_c, 0, 77, 80
2, 68152, Note_on_c, 0, 82, 80
2, 68226, Note_on_c, 0, 82, 0
2, 68226, Note_on_c, 0, 46, 0
2, 68226, Note_on_c, 0, 70, 0
2, 68226, Note_on_c, 0, 50, 0
2, 68226, Note_on_c, 0, 53, 0
2, 68226, Note_on_c, 0, 58, 0
2, 68226, Note_on_c, 0, 74, 0
2, 68226, Note_on_c, 0, 77, 0
2, 68278, Note_on_c, 0, 53, 80
2, 68278, Note_on_c, 0, 77, 80
2, 68310, Note_on_c, 0, 77, 0
2, 68310, Note_on_c, 0, 53, 0
2, 68364, Note_on_c, 0, 58, 80
2, 68364, Note_on_c, 0, 82, 80
2, 68477, Note_on_c, 0, 82, 0
2, 68477, Note_on_c, 0, 58, 0
2, 68484, Note_on_c, 0, 89, 80
2, 68486, Note_on_c, 0, 65, 80
2, 68519, Note_on_c, 0, 65, 0
2, 68519, Note_on_c, 0, 89, 0
2, 68527, Note_on_c, 0, 70, 80
2, 68527, Note_on_c, 0, 94, 80
2, 68572, Note_on_c, 0, 94, 0
2, 68572, Note_on_c, 0, 70, 0
2, 68653, Note_on_c, 0, 71, 80
2, 68653, Note_on_c, 0, 75, 80
2, 68655, Note_on_c, 0, 47, 80
2, 68655, Note_on_c, 0, 68, 80
2, 68655, Note_on_c, 0, 77, 80
2, 68655, Note_on_c, 0, 80, 80
2, 68657, Note_on_c, 0, 59, 80
2, 68696, Note_on_c, 0, 59, 0
2, 68696, Note_on_c, 0, 77, 0
2, 68696, Note_on_c, 0, 68, 0
2, 68696, Note_on_c, 0, 75, 0
2, 68696, Note_on_c, 0, 71, 0
2, 68696, Note_on_c, 0, 80, 0
2, 68707, Note_on_c, 0, 47, 0
2, 68777, Note_on_c, 0, 44, 80
2, 68777, Note_on_c, 0, 56, 80
2, 68777, Note_on_c, 0, 71, 80
2, 68777, Note_on_c, 0, 77, 80
2, 68781, Note_on_c, 0, 75, 80
2, 68781, Note_on_c, 0, 80, 80
2, 68781, Note_on_c, 0, 83, 80
2, 68942, Note_on_c, 0, 83, 0
2, 68942, Note_on_c, 0, 75, 0
2, 68942, Note_on_c, 0, 44, 0
2, 68942, Note_on_c, 0, 71, 0
2, 68942, Note_on_c, 0, 77, 0
2, 68942, Note_on_c, 0, 80, 0
2, 68944, Note_on_c, 0, 56, 0
2, 69021, Note_on_c, 0, 44, 80
2, 69023, Note_on_c, 0, 56, 80
2, 69023, Note_on_c, 0, 71, 80
2, 69023, Note_on_c, 0, 75, 80
2, 69023, Note_on_c, 0, 77, 80
2, 69023, Note_on_c, 0, 80, 80
2, 69023, Note_on_c, 0, 83, 80
2, 69097, Note_on_c, 0, 77, 0
2, 69139, Note_on_c, 0, 80, 0
2, 69139, Note_on_c, 0, 56, 0
2, 69139, Note_on_c, 0, 71, 0
2, 69139, Note_on_c, 0, 44, 0
2, 69139, Note_on_c, 0, 83, 0
2, 69139, Note_on_c, 0, 75, 0
2, 69144, Note_on_c, 0, 46, 80
2, 69144, Note_on_c, 0, 70, 80
2, 69144, Note_on_c, 0, 82, 80
2, 69146, Note_on_c, 0, 50, 80
2, 69146, Note_on_c, 0, 53, 80
2, 69146, Note_on_c, 0, 58, 80
2, 69146, Note_on_c, 0, 74, 80
2, 69146, Note_on_c, 0, 77, 80
2, 69220, Note_on_c, 0, 77, 0
2, 69220, Note_on_c, 0, 46, 0
2, 69220, Note_on_c, 0, 53, 0
2, 69220, Note_on_c, 0, 70, 0
2, 69220, Note_on_c, 0, 82, 0
2, 69220, Note_on_c, 0, 50, 0
2, 69220, Note_on_c, 0, 58, 0
2, 69220, Note_on_c, 0, 74, 0
2, 69270, Note_on_c, 0, 58, 80
2, 69270, Note_on_c, 0, 82, 80
2, 69344, Note_on_c, 0, 82, 0
2, 69344, Note_on_c, 0, 58, 0
2, 69351, Note_on_c, 0, 57, 80
2, 69351, Note_on_c, 0, 81, 80
2, 69384, Note_on_c, 0, 81, 0
2, 69384, Note_on_c, 0, 57, 0
2, 69393, Note_on_c, 0, 58, 80
2, 69393, Note_on_c, 0, 82, 80
2, 69438, Note_on_c, 0, 82, 0
2, 69438, Note_on_c, 0, 58, 0
2, 69521, Note_on_c, 0, 87, 80
2, 69523, Note_on_c, 0, 75, 80
2, 69597, Note_on_c, 0, 75, 0
2, 69597, Note_on_c, 0, 87, 0
2, 69605, Note_on_c, 0, 77, 80
2, 69605, Note_on_c, 0, 89, 80
2, 69639, Note_on_c, 0, 89, 0
2, 69639, Note_on_c, 0, 77, 0
2, 69645, Note_on_c, 0, 51, 80
2, 69645, Note_on_c, 0, 78, 80
2, 69645, Note_on_c, 0, 90, 80
2, 69647, Note_on_c, 0, 54, 80
2, 69647, Note_on_c, 0, 58, 80
2, 69690, Note_on_c, 0, 58, 0
2, 69690, Note_on_c, 0, 51, 0
2, 69690, Note_on_c, 0, 54, 0
2, 69720, Note_on_c, 0, 90, 0
2, 69720, Note_on_c, 0, 78, 0
2, 69727, Note_on_c, 0, 89, 80
2, 69729, Note_on_c, 0, 77, 80
2, 69765, Note_on_c, 0, 89, 0
2, 69767, Note_on_c, 0, 77, 0
2, 69772, Note_on_c, 0, 51, 80
2, 69772, Note_on_c, 0, 54, 80
2, 69772, Note_on_c, 0, 58, 80
2, 69772, Note_on_c, 0, 76, 80
2, 69774, Note_on_c, 0, 88, 80
2, 69803, Note_on_c, 0, 88, 0
2, 69803, Note_on_c, 0, 76, 0
2, 69816, Note_on_c, 0, 51, 0
2, 69816, Note_on_c, 0, 54, 0
2, 69816, Note_on_c, 0, 58, 0
2, 69846, Control_c, 0, 64, 127
2, 69853, Note_on_c, 0, 75, 80
2, 69853, Note_on_c, 0, 87, 80
2, 69894, Note_on_c, 0, 51, 80
2, 69894, Note_on_c, 0, 54, 80
2, 69894, Note_on_c, 0, 57, 80
2, 69894, Note_on_c, 0, 60, 80
2, 69971, Note_on_c, 0, 87, 0
2, 69971, Note_on_c, 0, 75, 0
2, 69982, Control_c, 0, 64, 0
2, 69982, Note_on_c, 0, 72, 80
2, 69982, Note_on_c, 0, 84, 80
2, 70014, Note_on_c, 0, 84, 0
2, 70014, Note_on_c, 0, 72, 0
2, 70023, Note_on_c, 0, 70, 80
2, 70025, Note_on_c, 0, 82, 80
2, 70097, Note_on_c, 0, 82, 0
2, 70099, Note_on_c, 0, 51, 0
2, 70099, Note_on_c, 0, 54, 0
2, 70099, Note_on_c, 0, 70, 0
2, 70105, Note_on_c, 0, 81, 80
2, 70109, Note_on_c, 0, 69, 80
2, 70142, Note_on_c, 0, 69, 0
2, 70142, Note_on_c, 0, 57, 0
2, 70142, Note_on_c, 0, 60, 0
2, 70142, Note_on_c, 0, 81, 0
2, 70151, Note_on_c, 0, 51, 80
2, 70151, Note_on_c, 0, 54, 80
2, 70151, Note_on_c, 0, 56, 80
2, 70151, Note_on_c, 0, 59, 80
2, 70151, Note_on_c, 0, 68, 80
2, 70151, Note_on_c, 0, 80, 80
2, 70215, Note_on_c, 0, 68, 0
2, 70217, Note_on_c, 0, 80, 0
2, 70233, Note_on_c, 0, 70, 80
2, 70233, Note_on_c, 0, 82, 80
2, 70269, Note_on_c, 0, 82, 0
2, 70269, Note_on_c, 0, 70, 0
2, 70275, Note_on_c, 0, 71, 80
2, 70275, Note_on_c, 0, 83, 80
2, 70350, Note_on_c, 0, 83, 0
2, 70350, Note_on_c, 0, 59, 0
2, 70350, Note_on_c, 0, 56, 0
2, 70350, Note_on_c, 0, 71, 0
2, 70357, Note_on_c, 0, 68, 80
2, 70357, Note_on_c, 0, 80, 80
2, 70391, Note_on_c, 0, 80, 0
2, 70391, Note_on_c, 0, 54, 0
2, 70391, Note_on_c, 0, 51, 0
2, 70391, Note_on_c, 0, 68, 0
2, 70399, Note_on_c, 0, 50, 80
2, 70399, Note_on_c, 0, 53, 80
2, 70399, Note_on_c, 0, 56, 80
2, 70399, Note_on_c, 0, 59, 80
2, 70399, Note_on_c, 0, 71, 80
2, 70399, Note_on_c, 0, 83, 80
2, 70471, Note_on_c, 0, 83, 0
2, 70471, Note_on_c, 0, 71, 0
2, 70478, Note_on_c, 0, 74, 80
2, 70478, Note_on_c, 0, 86, 80
2, 70512, Note_on_c, 0, 86, 0
2, 70512, Note_on_c, 0, 74, 0
2, 70518, Note_on_c, 0, 77, 80
2, 70518, Note_on_c, 0, 89, 80
2, 70588, Note_on_c, 0, 89, 0
2, 70588, Note_on_c, 0, 53, 0
2, 70588, Note_on_c, 0, 56, 0
2, 70588, Note_on_c, 0, 50, 0
2, 70588, Note_on_c, 0, 77, 0
2, 70588, Note_on_c, 0, 59, 0
2, 70642, Note_on_c, 0, 51, 80
2, 70642, Note_on_c, 0, 54, 80
2, 70642, Note_on_c, 0, 58, 80
2, 70642, Note_on_c, 0, 90, 80
2, 70644, Note_on_c, 0, 78, 80
2, 70685, Note_on_c, 0, 58, 0
2, 70685, Note_on_c, 0, 51, 0
2, 70685, Note_on_c, 0, 54, 0
2, 70718, Note_on_c, 0, 90, 0
2, 70718, Note_on_c, 0, 78, 0
2, 70725, Note_on_c, 0, 77, 80
2, 70725, Note_on_c, 0, 89, 80
2, 70760, Note_on_c, 0, 89, 0
2, 70760, Note_on_c, 0, 77, 0
2, 70767, Note_on_c, 0, 51, 80
2, 70767, Note_on_c, 0, 54, 80
2, 70767, Note_on_c, 0, 58, 80
2, 70767, Note_on_c, 0, 76, 80
2, 70767, Note_on_c, 0, 88, 80
2, 70800, Control_c, 0, 64, 127
2, 70801, Note_on_c, 0, 88, 0
2, 70812, Note_on_c, 0, 76, 0
2, 70823, Note_on_c, 0, 51, 0
2, 70823, Note_on_c, 0, 54, 0
2, 70823, Note_on_c, 0, 58, 0
2, 70855, Note_on_c, 0, 75, 80
2, 70855, Note_on_c, 0, 87, 80
2, 70898, Note_on_c, 0, 51, 80
2, 70898, Note_on_c, 0, 54, 80
2, 70898, Note_on_c, 0, 57, 80
2, 70898, Note_on_c, 0, 60, 80
2, 70973, Note_on_c, 0, 87, 0
2, 70973, Note_on_c, 0, 75, 0
2, 70980, Note_on_c, 0, 84, 80
2, 70982, Note_on_c, 0, 72, 80
2, 70986, Control_c, 0, 64, 0
2, 71015, Note_on_c, 0, 72, 0
2, 71016, Note_on_c, 0, 84, 0
2, 71025, Note_on_c, 0, 70, 80
2, 71025, Note_on_c, 0, 82, 80
2, 71097, Note_on_c, 0, 70, 0
2, 71099, Note_on_c, 0, 51, 0
2, 71099, Note_on_c, 0, 82, 0
2, 71105, Note_on_c, 0, 69, 80
2, 71107, Note_on_c, 0, 81, 80
2, 71139, Note_on_c, 0, 81, 0
2, 71139, Note_on_c, 0, 54, 0
2, 71139, Note_on_c, 0, 57, 0
2, 71139, Note_on_c, 0, 60, 0
2, 71139, Note_on_c, 0, 69, 0
2, 71145, Note_on_c, 0, 51, 80
2, 71147, Note_on_c, 0, 56, 80
2, 71147, Note_on_c, 0, 59, 80
2, 71147, Note_on_c, 0, 68, 80
2, 71147, Note_on_c, 0, 80, 80
2, 71211, Note_on_c, 0, 80, 0
2, 71211, Note_on_c, 0, 68, 0
2, 71232, Note_on_c, 0, 70, 80
2, 71232, Note_on_c, 0, 82, 80
2, 71264, Note_on_c, 0, 82, 0
2, 71264, Note_on_c, 0, 70, 0
2, 71271, Note_on_c, 0, 71, 80
2, 71273, Note_on_c, 0, 83, 80
2, 71347, Note_on_c, 0, 83, 0
2, 71347, Note_on_c, 0, 59, 0
2, 71347, Note_on_c, 0, 71, 0
2, 71347, Note_on_c, 0, 56, 0
2, 71355, Note_on_c, 0, 68, 80
2, 71355, Note_on_c, 0, 80, 80
2, 71389, Note_on_c, 0, 80, 0
2, 71389, Note_on_c, 0, 68, 0
2, 71389, Note_on_c, 0, 51, 0
2, 71396, Note_on_c, 0, 50, 80
2, 71396, Note_on_c, 0, 56, 80
2, 71396, Note_on_c, 0, 59, 80
2, 71396, Note_on_c, 0, 65, 80
2, 71396, Note_on_c, 0, 77, 80
2, 71451, Note_on_c, 0, 77, 0
2, 71451, Note_on_c, 0, 59, 0
2, 71451, Note_on_c, 0, 50, 0
2, 71451, Note_on_c, 0, 56, 0
2, 71451, Note_on_c, 0, 65, 0
2, 71505, Control_c, 0, 64, 127
2, 71525, Note_on_c, 0, 65, 80
2, 71525, Note_on_c, 0, 80, 80
2, 71599, Note_on_c, 0, 80, 0
2, 71601, Note_on_c, 0, 65, 0
2, 71607, Note_on_c, 0, 82, 80
2, 71609, Note_on_c, 0, 66, 80
2, 71640, Note_on_c, 0, 66, 0
2, 71640, Note_on_c, 0, 82, 0
2, 71648, Note_on_c, 0, 68, 80
2, 71648, Note_on_c, 0, 83, 80
2, 71669, Control_c, 0, 64, 0
2, 71690, Note_on_c, 0, 68, 0
2, 71692, Note_on_c, 0, 83, 0
2, 71773, Note_on_c, 0, 62, 80
2, 71773, Note_on_c, 0, 77, 80
2, 71847, Note_on_c, 0, 77, 0
2, 71847, Note_on_c, 0, 62, 0
2, 71856, Note_on_c, 0, 63, 80
2, 71856, Note_on_c, 0, 78, 80
2, 71888, Note_on_c, 0, 78, 0
2, 71890, Note_on_c, 0, 63, 0
2, 71897, Note_on_c, 0, 65, 80
2, 71897, Note_on_c, 0, 80, 80
2, 71944, Note_on_c, 0, 80, 0
2, 71944, Note_on_c, 0, 65, 0
2, 72024, Note_on_c, 0, 74, 80
2, 72026, Note_on_c, 0, 59, 80
2, 72100, Note_on_c, 0, 59, 0
2, 72100, Note_on_c, 0, 74, 0
2, 72107, Note_on_c, 0, 60, 80
2, 72109, Note_on_c, 0, 75, 80
2, 72143, Note_on_c, 0, 75, 0
2, 72143, Note_on_c, 0, 60, 0
2, 72149, Note_on_c, 0, 62, 80
2, 72149, Note_on_c, 0, 77, 80
2, 72191, Note_on_c, 0, 77, 0
2, 72191, Note_on_c, 0, 62, 0
2, 72277, Note_on_c, 0, 56, 80
2, 72277, Note_on_c, 0, 71, 80
2, 72352, Note_on_c, 0, 71, 0
2, 72352, Note_on_c, 0, 56, 0
2, 72359, Note_on_c, 0, 58, 80
2, 72359, Note_on_c, 0, 73, 80
2, 72394, Note_on_c, 0, 73, 0
2, 72394, Note_on_c, 0, 58, 0
2, 72401, Note_on_c, 0, 74, 80
2, 72403, Note_on_c, 0, 59, 80
2, 72446, Note_on_c, 0, 59, 0
2, 72446, Note_on_c, 0, 74, 0
2, 72527, Note_on_c, 0, 53, 80
2, 72527, Note_on_c, 0, 68, 80
2, 72601, Note_on_c, 0, 68, 0
2, 72601, Note_on_c, 0, 53, 0
2, 72608, Note_on_c, 0, 54, 80
2, 72608, Note_on_c, 0, 70, 80
2, 72644, Note_on_c, 0, 70, 0
2, 72646, Note_on_c, 0, 54, 0
2, 72652, Note_on_c, 0, 56, 80
2, 72652, Note_on_c, 0, 71, 80
2, 72686, Note_on_c, 0, 71, 0
2, 72686, Note_on_c, 0, 56, 0
2, 72781, Note_on_c, 0, 53, 80
2, 72781, Note_on_c, 0, 68, 80
2, 72855, Note_on_c, 0, 68, 0
2, 72855, Note_on_c, 0, 53, 0
2, 72864, Note_on_c, 0, 70, 80
2, 72865, Note_on_c, 0, 54, 80
2, 72898, Note_on_c, 0, 54, 0
2, 72898, Note_on_c, 0, 70, 0
2, 72907, Note_on_c, 0, 56, 80
2, 72907, Note_on_c, 0, 71, 80
2, 72939, Note_on_c, 0, 71, 0
2, 72939, Note_on_c, 0, 56, 0
2, 73029, Note_on_c, 0, 44, 80
2, 73029, Note_on_c, 0, 56, 80
2, 73029, Note_on_c, 0, 71, 80
2, 73029, Note_on_c, 0, 75, 80
2, 73029, Note_on_c, 0, 77, 80
2, 73031, Note_on_c, 0, 83, 80
2, 73101, Note_on_c, 0, 77, 0
2, 73142, Note_on_c, 0, 56, 0
2, 73142, Note_on_c, 0, 71, 0
2, 73142, Note_on_c, 0, 44, 0
2, 73142, Note_on_c, 0, 83, 0
2, 73142, Note_on_c, 0, 75, 0
2, 73151, Note_on_c, 0, 82, 80
2, 73152, Note_on_c, 0, 46, 80
2, 73152, Note_on_c, 0, 50, 80
2, 73152, Note_on_c, 0, 53, 80
2, 73152, Note_on_c, 0, 58, 80
2, 73152, Note_on_c, 0, 70, 80
2, 73152, Note_on_c, 0, 74, 80
2, 73152, Note_on_c, 0, 77, 80
2, 73194, Note_on_c, 0, 77, 0
2, 73194, Note_on_c, 0, 82, 0
2, 73194, Note_on_c, 0, 58, 0
2, 73194, Note_on_c, 0, 46, 0
2, 73194, Note_on_c, 0, 50, 0
2, 73194, Note_on_c, 0, 53, 0
2, 73194, Note_on_c, 0, 70, 0
2, 73194, Note_on_c, 0, 74, 0
2, 73276, Note_on_c, 0, 70, 80
2, 73280, Note_on_c, 0, 58, 80
2, 73355, Note_on_c, 0, 70, 0
2, 73357, Note_on_c, 0, 58, 0
2, 73364, Note_on_c, 0, 57, 80
2, 73364, Note_on_c, 0, 69, 80
2, 73397, Note_on_c, 0, 69, 0
2, 73399, Note_on_c, 0, 57, 0
2, 73405, Note_on_c, 0, 58, 80
2, 73405, Note_on_c, 0, 70, 80
2, 73453, Note_on_c, 0, 70, 0
2, 73453, Note_on_c, 0, 58, 0
2, 73536, Note_on_c, 0, 75, 80
2, 73536, Note_on_c, 0, 87, 80
2, 73600, Note_on_c, 0, 75, 0
2, 73610, Note_on_c, 0, 87, 0
2, 73617, Note_on_c, 0, 77, 80
2, 73617, Note_on_c, 0, 89, 80
2, 73650, Note_on_c, 0, 89, 0
2, 73650, Note_on_c, 0, 77, 0
2, 73656, Note_on_c, 0, 51, 80
2, 73658, Note_on_c, 0, 54, 80
2, 73658, Note_on_c, 0, 58, 80
2, 73658, Note_on_c, 0, 78, 80
2, 73658, Note_on_c, 0, 90, 80
2, 73700, Note_on_c, 0, 58, 0
2, 73700, Note_on_c, 0, 51, 0
2, 73700, Note_on_c, 0, 54, 0
2, 73732, Note_on_c, 0, 78, 0
2, 73732, Note_on_c, 0, 90, 0
2, 73739, Note_on_c, 0, 77, 80
2, 73739, Note_on_c, 0, 89, 80
2, 73773, Note_on_c, 0, 89, 0
2, 73773, Note_on_c, 0, 77, 0
2, 73778, Note_on_c, 0, 51, 80
2, 73778, Note_on_c, 0, 54, 80
2, 73778, Note_on_c, 0, 58, 80
2, 73780, Note_on_c, 0, 76, 80
2, 73780, Note_on_c, 0, 88, 80
2, 73813, Note_on_c, 0, 76, 0
2, 73820, Control_c, 0, 64, 127
2, 73822, Note_on_c, 0, 58, 0
2, 73822, Note_on_c, 0, 51, 0
2, 73822, Note_on_c, 0, 54, 0
2, 73822, Note_on_c, 0, 88, 0
2, 73859, Note_on_c, 0, 75, 80
2, 73859, Note_on_c, 0, 87, 80
2, 73898, Note_on_c, 0, 51, 80
2, 73898, Note_on_c, 0, 57, 80
2, 73898, Note_on_c, 0, 60, 80
2, 73902, Note_on_c, 0, 54, 80
2, 73947, Control_c, 0, 64, 0
2, 73968, Note_on_c, 0, 87, 0
2, 73968, Note_on_c, 0, 75, 0
2, 73977, Note_on_c, 0, 72, 80
2, 73977, Note_on_c, 0, 84, 80
2, 74010, Note_on_c, 0, 84, 0
2, 74010, Note_on_c, 0, 72, 0
2, 74018, Note_on_c, 0, 70, 80
2, 74018, Note_on_c, 0, 82, 80
2, 74092, Note_on_c, 0, 82, 0
2, 74092, Note_on_c, 0, 54, 0
2, 74092, Note_on_c, 0, 51, 0
2, 74092, Note_on_c, 0, 70, 0
2, 74101, Note_on_c, 0, 69, 80
2, 74101, Note_on_c, 0, 81, 80
2, 74135, Note_on_c, 0, 81, 0
2, 74136, Note_on_c, 0, 60, 0
2, 74136, Note_on_c, 0, 57, 0
2, 74136, Note_on_c, 0, 69, 0
2, 74143, Note_on_c, 0, 51, 80
2, 74143, Note_on_c, 0, 54, 80
2, 74143, Note_on_c, 0, 56, 80
2, 74143, Note_on_c, 0, 59, 80
2, 74143, Note_on_c, 0, 68, 80
2, 74143, Note_on_c, 0, 80, 80
2, 74217, Note_on_c, 0, 80, 0
2, 74217, Note_on_c, 0, 68, 0
2, 74226, Note_on_c, 0, 70, 80
2, 74226, Note_on_c, 0, 82, 80
2, 74261, Note_on_c, 0, 82, 0
2, 74261, Note_on_c, 0, 70, 0
2, 74270, Note_on_c, 0, 71, 80
2, 74270, Note_on_c, 0, 83, 80
2, 74347, Note_on_c, 0, 83, 0
2, 74347, Note_on_c, 0, 59, 0
2, 74347, Note_on_c, 0, 56, 0
2, 74347, Note_on_c, 0, 71, 0
2, 74357, Note_on_c, 0, 68, 80
2, 74357, Note_on_c, 0, 80, 80
2, 74391, Note_on_c, 0, 80, 0
2, 74391, Note_on_c, 0, 54, 0
2, 74391, Note_on_c, 0, 51, 0
2, 74391, Note_on_c, 0, 68, 0
2, 74400, Note_on_c, 0, 50, 80
2, 74400, Note_on_c, 0, 53, 80
2, 74400, Note_on_c, 0, 56, 80
2, 74400, Note_on_c, 0, 59, 80
2, 74400, Note_on_c, 0, 71, 80
2, 74400, Note_on_c, 0, 83, 80
2, 74464, Note_on_c, 0, 71, 0
2, 74474, Note_on_c, 0, 83, 0
2, 74481, Note_on_c, 0, 74, 80
2, 74481, Note_on_c, 0, 86, 80
2, 74519, Note_on_c, 0, 86, 0
2, 74519, Note_on_c, 0, 74, 0
2, 74525, Note_on_c, 0, 77, 80
2, 74525, Note_on_c, 0, 89, 80
2, 74602, Note_on_c, 0, 89, 0
2, 74602, Note_on_c, 0, 59, 0
2, 74602, Note_on_c, 0, 77, 0
2, 74604, Note_on_c, 0, 50, 0
2, 74604, Note_on_c, 0, 56, 0
2, 74615, Note_on_c, 0, 53, 0
2, 74654, Note_on_c, 0, 90, 80
2, 74656, Note_on_c, 0, 51, 80
2, 74656, Note_on_c, 0, 54, 80
2, 74656, Note_on_c, 0, 58, 80
2, 74656, Note_on_c, 0, 78, 80
2, 74701, Note_on_c, 0, 58, 0
2, 74701, Note_on_c, 0, 54, 0
2, 74701, Note_on_c, 0, 51, 0
2, 74734, Note_on_c, 0, 90, 0
2, 74734, Note_on_c, 0, 78, 0
2, 74742, Note_on_c, 0, 77, 80
2, 74742, Note_on_c, 0, 89, 80
2, 74775, Note_on_c, 0, 89, 0
2, 74775, Note_on_c, 0, 77, 0
2, 74782, Note_on_c, 0, 51, 80
2, 74782, Note_on_c, 0, 54, 80
2, 74782, Note_on_c, 0, 58, 80
2, 74782, Note_on_c, 0, 76, 80
2, 74782, Note_on_c, 0, 88, 80
2, 74815, Note_on_c, 0, 88, 0
2, 74815, Note_on_c, 0, 76, 0
2, 74824, Note_on_c, 0, 58, 0
2, 74826, Note_on_c, 0, 54, 0
2, 74826, Note_on_c, 0, 51, 0
2, 74865, Note_on_c, 0, 75, 80
2, 74865, Note_on_c, 0, 87, 80
2, 74892, Control_c, 0, 64, 127
2, 74906, Note_on_c, 0, 60, 80
2, 74908, Note_on_c, 0, 51, 80
2, 74908, Note_on_c, 0, 54, 80
2, 74908, Note_on_c, 0, 57, 80
2, 74982, Note_on_c, 0, 87, 0
2, 74982, Note_on_c, 0, 75, 0
2, 74991, Note_on_c, 0, 72, 80
2, 74991, Note_on_c, 0, 84, 80
2, 74993, Control_c, 0, 64, 0
2, 75024, Note_on_c, 0, 84, 0
2, 75024, Note_on_c, 0, 72, 0
2, 75034, Note_on_c, 0, 70, 80
2, 75034, Note_on_c, 0, 82, 80
2, 75106, Note_on_c, 0, 82, 0
2, 75106, Note_on_c, 0, 51, 0
2, 75106, Note_on_c, 0, 70, 0
2, 75113, Note_on_c, 0, 69, 80
2, 75113, Note_on_c, 0, 81, 80
2, 75146, Note_on_c, 0, 81, 0
2, 75146, Note_on_c, 0, 60, 0
2, 75146, Note_on_c, 0, 69, 0
2, 75146, Note_on_c, 0, 54, 0
2, 75148, Note_on_c, 0, 57, 0
2, 75155, Note_on_c, 0, 51, 80
2, 75155, Note_on_c, 0, 56, 80
2, 75155, Note_on_c, 0, 59, 80
2, 75155, Note_on_c, 0, 68, 80
2, 75155, Note_on_c, 0, 80, 80
2, 75230, Note_on_c, 0, 80, 0
2, 75230, Note_on_c, 0, 68, 0
2, 75239, Note_on_c, 0, 70, 80
2, 75239, Note_on_c, 0, 82, 80
2, 75262, Note_on_c, 0, 70, 0
2, 75272, Note_on_c, 0, 82, 0
2, 75281, Note_on_c, 0, 71, 80
2, 75281, Note_on_c, 0, 83, 80
2, 75351, Note_on_c, 0, 59, 0
2, 75353, Note_on_c, 0, 71, 0
2, 75353, Note_on_c, 0, 83, 0
2, 75353, Note_on_c, 0, 56, 0
2, 75361, Note_on_c, 0, 68, 80
2, 75361, Note_on_c, 0, 80, 80
2, 75394, Note_on_c, 0, 80, 0
2, 75394, Note_on_c, 0, 68, 0
2, 75394, Note_on_c, 0, 51, 0
2, 75403, Note_on_c, 0, 50, 80
2, 75403, Note_on_c, 0, 56, 80
2, 75403, Note_on_c, 0, 59, 80
2, 75403, Note_on_c, 0, 65, 80
2, 75403, Note_on_c, 0, 77, 80
2, 75448, Note_on_c, 0, 77, 0
2, 75448, Note_on_c, 0, 59, 0
2, 75448, Note_on_c, 0, 50, 0
2, 75448, Note_on_c, 0, 56, 0
2, 75448, Note_on_c, 0, 65, 0
2, 75618, Note_on_c, 0, 62, 80
2, 75618, Note_on_c, 0, 68, 80
2, 75618, Note_on_c, 0, 71, 80
2, 75618, Note_on_c, 0, 77, 80
2, 75638, Note_on_c, 0, 63, 80
2, 75638, Note_on_c, 0, 69, 80
2, 75638, Note_on_c, 0, 72, 80
2, 75638, Note_on_c, 0, 78, 80
2, 75642, Note_on_c, 0, 77, 0
2, 75642, Note_on_c, 0, 71, 0
2, 75642, Note_on_c, 0, 62, 0
2, 75642, Note_on_c, 0, 68, 0
2, 75650, Note_on_c, 0, 64, 80
2, 75650, Note_on_c, 0, 70, 80
2, 75650, Note_on_c, 0, 73, 80
2, 75650, Note_on_c, 0, 79, 80
2, 75659, Note_on_c, 0, 65, 80
2, 75659, Note_on_c, 0, 71, 80
2, 75659, Note_on_c, 0, 74, 80
2, 75659, Note_on_c, 0, 80, 80
2, 75663, Note_on_c, 0, 63, 0
2, 75663, Note_on_c, 0, 72, 0
2, 75663, Note_on_c, 0, 78, 0
2, 75663, Note_on_c, 0, 69, 0
2, 75670, Note_on_c, 0, 79, 0
2, 75670, Note_on_c, 0, 64, 0
2, 75670, Note_on_c, 0, 73, 0
2, 75670, Note_on_c, 0, 70, 0
2, 75732, Note_on_c, 0, 80, 0
2, 75732, Note_on_c, 0, 74, 0
2, 75732, Note_on_c, 0, 71, 0
2, 75734, Note_on_c, 0, 65, 0
2, 75741, Note_on_c, 0, 73, 80
2, 75741, Note_on_c, 0, 79, 80
2, 75743, Note_on_c, 0, 64, 80
2, 75743, Note_on_c, 0, 70, 80
2, 75775, Note_on_c, 0, 70, 0
2, 75775, Note_on_c, 0, 73, 0
2, 75775, Note_on_c, 0, 79, 0
2, 75775, Note_on_c, 0, 64, 0
2, 75784, Note_on_c, 0, 69, 80
2, 75784, Note_on_c, 0, 72, 80
2, 75786, Note_on_c, 0, 63, 80
2, 75786, Note_on_c, 0, 78, 80
2, 75816, Note_on_c, 0, 78, 0
2, 75816, Note_on_c, 0, 69, 0
2, 75816, Note_on_c, 0, 72, 0
2, 75816, Note_on_c, 0, 63, 0
2, 75864, Note_on_c, 0, 62, 80
2, 75864, Note_on_c, 0, 68, 80
2, 75864, Note_on_c, 0, 71, 80
2, 75864, Note_on_c, 0, 77, 80
2, 75980, Note_on_c, 0, 77, 0
2, 75980, Note_on_c, 0, 62, 0
2, 75980, Note_on_c, 0, 68, 0
2, 75980, Note_on_c, 0, 71, 0
2, 75985, Note_on_c, 0, 67, 80
2, 75985, Note_on_c, 0, 70, 80
2, 75987, Note_on_c, 0, 61, 80
2, 75987, Note_on_c, 0, 76, 80
2, 76020, Note_on_c, 0, 76, 0
2, 76020, Note_on_c, 0, 67, 0
2, 76020, Note_on_c, 0, 70, 0
2, 76020, Note_on_c, 0, 61, 0
2, 76026, Note_on_c, 0, 75, 80
2, 76028, Note_on_c, 0, 60, 80
2, 76028, Note_on_c, 0, 66, 80
2, 76028, Note_on_c, 0, 69, 80
2, 76100, Note_on_c, 0, 69, 0
2, 76100, Note_on_c, 0, 75, 0
2, 76100, Note_on_c, 0, 60, 0
2, 76100, Note_on_c, 0, 66, 0
2, 76110, Note_on_c, 0, 59, 80
2, 76110, Note_on_c, 0, 65, 80
2, 76110, Note_on_c, 0, 68, 80
2, 76110, Note_on_c, 0, 74, 80
2, 76143, Note_on_c, 0, 74, 0
2, 76143, Note_on_c, 0, 59, 0
2, 76143, Note_on_c, 0, 65, 0
2, 76143, Note_on_c, 0, 68, 0
2, 76152, Note_on_c, 0, 58, 80
2, 76152, Note_on_c, 0, 64, 80
2, 76152, Note_on_c, 0, 67, 80
2, 76152, Note_on_c, 0, 73, 80
2, 76222, Note_on_c, 0, 73, 0
2, 76222, Note_on_c, 0, 58, 0
2, 76222, Note_on_c, 0, 64, 0
2, 76222, Note_on_c, 0, 67, 0
2, 76230, Note_on_c, 0, 66, 80
2, 76230, Note_on_c, 0, 72, 80
2, 76232, Note_on_c, 0, 57, 80
2, 76232, Note_on_c, 0, 63, 80
2, 76263, Note_on_c, 0, 63, 0
2, 76263, Note_on_c, 0, 66, 0
2, 76263, Note_on_c, 0, 72, 0
2, 76263, Note_on_c, 0, 57, 0
2, 76269, Note_on_c, 0, 62, 80
2, 76269, Note_on_c, 0, 65, 80
2, 76272, Note_on_c, 0, 56, 80
2, 76272, Note_on_c, 0, 71, 80
2, 76305, Note_on_c, 0, 71, 0
2, 76305, Note_on_c, 0, 62, 0
2, 76305, Note_on_c, 0, 65, 0
2, 76305, Note_on_c, 0, 56, 0
2, 76355, Note_on_c, 0, 61, 80
2, 76355, Note_on_c, 0, 64, 80
2, 76355, Note_on_c, 0, 70, 80
2, 76359, Note_on_c, 0, 55, 80
2, 76475, Note_on_c, 0, 70, 0
2, 76475, Note_on_c, 0, 61, 0
2, 76475, Note_on_c, 0, 64, 0
2, 76477, Note_on_c, 0, 55, 0
2, 76486, Note_on_c, 0, 60, 80
2, 76486, Note_on_c, 0, 63, 80
2, 76486, Note_on_c, 0, 69, 80
2, 76488, Note_on_c, 0, 54, 80
2, 76518, Note_on_c, 0, 54, 0
2, 76518, Note_on_c, 0, 60, 0
2, 76518, Note_on_c, 0, 63, 0
2, 76518, Note_on_c, 0, 69, 0
2, 76529, Note_on_c, 0, 68, 80
2, 76531, Note_on_c, 0, 53, 80
2, 76531, Note_on_c, 0, 59, 80
2, 76531, Note_on_c, 0, 62, 80
2, 76603, Note_on_c, 0, 68, 0
2, 76609, Note_on_c, 0, 67, 80
2, 76645, Note_on_c, 0, 67, 0
2, 76645, Note_on_c, 0, 62, 0
2, 76645, Note_on_c, 0, 59, 0
2, 76645, Note_on_c, 0, 53, 0
2, 76654, Note_on_c, 0, 42, 80
2, 76654, Note_on_c, 0, 54, 80
2, 76654, Note_on_c, 0, 58, 80
2, 76654, Note_on_c, 0, 61, 80
2, 76654, Note_on_c, 0, 64, 80
2, 76654, Note_on_c, 0, 66, 80
2, 76699, Note_on_c, 0, 66, 0
2, 76699, Note_on_c, 0, 54, 0
2, 76699, Note_on_c, 0, 58, 0
2, 76699, Note_on_c, 0, 42, 0
2, 76699, Note_on_c, 0, 64, 0
2, 76699, Note_on_c, 0, 61, 0
2, 76779, Note_on_c, 0, 66, 80
2, 76781, Note_on_c, 0, 78, 80
2, 76790, Note_on_c, 0, 90, 80
2, 76844, Note_on_c, 0, 66, 0
2, 76854, Note_on_c, 0, 90, 0
2, 76854, Note_on_c, 0, 78, 0
2, 76861, Note_on_c, 0, 89, 80
2, 76863, Note_on_c, 0, 65, 80
2, 76863, Note_on_c, 0, 77, 80
2, 76896, Note_on_c, 0, 77, 0
2, 76896, Note_on_c, 0, 65, 0
2, 76896, Note_on_c, 0, 89, 0
2, 76902, Note_on_c, 0, 78, 80
2, 76902, Note_on_c, 0, 90, 80
2, 76904, Note_on_c, 0, 66, 80
2, 76947, Note_on_c, 0, 66, 0
2, 76947, Note_on_c, 0, 90, 0
2, 76947, Note_on_c, 0, 78, 0
2, 77034, Note_on_c, 0, 54, 80
2, 77034, Note_on_c, 0, 66, 80
2, 77034, Note_on_c, 0, 78, 80
2, 77100, Note_on_c, 0, 78, 0
2, 77100, Note_on_c, 0, 66, 0
2, 77109, Note_on_c, 0, 54, 0
2, 77115, Note_on_c, 0, 53, 80
2, 77115, Note_on_c, 0, 65, 80
2, 77115, Note_on_c, 0, 77, 80
2, 77140, Note_on_c, 0, 53, 0
2, 77147, Note_on_c, 0, 77, 0
2, 77149, Note_on_c, 0, 65, 0
2, 77155, Note_on_c, 0, 54, 80
2, 77155, Note_on_c, 0, 66, 80
2, 77155, Note_on_c, 0, 78, 80
2, 77200, Note_on_c, 0, 78, 0
2, 77202, Note_on_c, 0, 66, 0
2, 77202, Note_on_c, 0, 54, 0
2, 77288, Note_on_c, 0, 82, 80
2, 77290, Note_on_c, 0, 39, 80
2, 77290, Note_on_c, 0, 51, 80
2, 77290, Note_on_c, 0, 78, 80
2, 77290, Note_on_c, 0, 87, 80
2, 77290, Note_on_c, 0, 90, 80
2, 77403, Note_on_c, 0, 90, 0
2, 77403, Note_on_c, 0, 39, 0
2, 77403, Note_on_c, 0, 51, 0
2, 77403, Note_on_c, 0, 82, 0
2, 77403, Note_on_c, 0, 87, 0
2, 77403, Note_on_c, 0, 78, 0
2, 77409, Note_on_c, 0, 38, 80
2, 77411, Note_on_c, 0, 50, 80
2, 77411, Note_on_c, 0, 77, 80
2, 77411, Note_on_c, 0, 80, 80
2, 77411, Note_on_c, 0, 83, 80
2, 77411, Note_on_c, 0, 86, 80
2, 77411, Note_on_c, 0, 89, 80
2, 77522, Note_on_c, 0, 89, 0
2, 77522, Note_on_c, 0, 77, 0
2, 77522, Note_on_c, 0, 86, 0
2, 77524, Note_on_c, 0, 80, 0
2, 77524, Note_on_c, 0, 38, 0
2, 77524, Note_on_c, 0, 50, 0
2, 77524, Note_on_c, 0, 83, 0
2, 77528, Note_on_c, 0, 37, 80
2, 77528, Note_on_c, 0, 76, 80
2, 77528, Note_on_c, 0, 85, 80
2, 77530, Note_on_c, 0, 49, 80
2, 77530, Note_on_c, 0, 82, 80
2, 77530, Note_on_c, 0, 88, 80
2, 77532, Note_on_c, 0, 78, 80
2, 77602, Note_on_c, 0, 78, 0
2, 77641, Note_on_c, 0, 49, 0
2, 77641, Note_on_c, 0, 37, 0
2, 77641, Note_on_c, 0, 76, 0
2, 77641, Note_on_c, 0, 82, 0
2, 77650, Note_on_c, 0, 35, 80
2, 77650, Note_on_c, 0, 47, 80
2, 77650, Note_on_c, 0, 75, 80
2, 77650, Note_on_c, 0, 78, 80
2, 77650, Note_on_c, 0, 83, 80
2, 77650, Note_on_c, 0, 87, 80
2, 77652, Note_on_c, 0, 88, 0
2, 77652, Note_on_c, 0, 85, 0
2, 77693, Note_on_c, 0, 47, 0
2, 77693, Note_on_c, 0, 35, 0
2, 77772, Note_on_c, 0, 51, 80
2, 77772, Note_on_c, 0, 54, 80
2, 77772, Note_on_c, 0, 59, 80
2, 77774, Note_on_c, 0, 75, 0
2, 77774, Note_on_c, 0, 83, 0
2, 77774, Note_on_c, 0, 87, 0
2, 77774, Note_on_c, 0, 78, 0
2, 77797, Note_on_c, 0, 59, 0
2, 77797, Note_on_c, 0, 51, 0
2, 77797, Note_on_c, 0, 54, 0
2, 77859, Note_on_c, 0, 75, 80
2, 77859, Note_on_c, 0, 87, 80
2, 77895, Note_on_c, 0, 87, 0
2, 77895, Note_on_c, 0, 75, 0
2, 77901, Note_on_c, 0, 74, 80
2, 77901, Note_on_c, 0, 78, 80
2, 77903, Note_on_c, 0, 42, 80
2, 77903, Note_on_c, 0, 54, 80
2, 77903, Note_on_c, 0, 83, 80
2, 77903, Note_on_c, 0, 86, 80
2, 77950, Note_on_c, 0, 54, 0
2, 77950, Note_on_c, 0, 42, 0
2, 77982, Note_on_c, 0, 83, 0
2, 77982, Note_on_c, 0, 74, 0
2, 77982, Note_on_c, 0, 86, 0
2, 77982, Note_on_c, 0, 78, 0
2, 77989, Note_on_c, 0, 75, 80
2, 77989, Note_on_c, 0, 87, 80
2, 78023, Note_on_c, 0, 87, 0
2, 78023, Note_on_c, 0, 75, 0
2, 78033, Note_on_c, 0, 51, 80
2, 78033, Note_on_c, 0, 78, 80
2, 78035, Note_on_c, 0, 54, 80
2, 78035, Note_on_c, 0, 59, 80
2, 78035, Note_on_c, 0, 90, 80
2, 78056, Note_on_c, 0, 59, 0
2, 78056, Note_on_c, 0, 54, 0
2, 78056, Note_on_c, 0, 51, 0
2, 78069, Note_on_c, 0, 78, 0
2, 78069, Note_on_c, 0, 90, 0
2, 78117, Note_on_c, 0, 90, 80
2, 78117, Note_on_c, 0, 95, 80
2, 78119, Note_on_c, 0, 83, 80
2, 78119, Note_on_c, 0, 87, 80
2, 78158, Note_on_c, 0, 35, 80
2, 78158, Note_on_c, 0, 47, 80
2, 78201, Note_on_c, 0, 47, 0
2, 78201, Note_on_c, 0, 35, 0
2, 78234, Note_on_c, 0, 90, 0
2, 78234, Note_on_c, 0, 87, 0
2, 78236, Note_on_c, 0, 83, 0
2, 78241, Note_on_c, 0, 94, 80
2, 78243, Note_on_c, 0, 82, 80
2, 78245, Note_on_c, 0, 95, 0
2, 78278, Note_on_c, 0, 82, 0
2, 78278, Note_on_c, 0, 94, 0
2, 78285, Note_on_c, 0, 51, 80
2, 78285, Note_on_c, 0, 54, 80
2, 78285, Note_on_c, 0, 59, 80
2, 78285, Note_on_c, 0, 80, 80
2, 78285, Note_on_c, 0, 83, 80
2, 78285, Note_on_c, 0, 87, 80
2, 78285, Note_on_c, 0, 92, 80
2, 78308, Note_on_c, 0, 59, 0
2, 78308, Note_on_c, 0, 51, 0
2, 78308, Note_on_c, 0, 54, 0
2, 78360, Note_on_c, 0, 83, 0
2, 78360, Note_on_c, 0, 80, 0
2, 78360, Note_on_c, 0, 87, 0
2, 78360, Note_on_c, 0, 92, 0
2, 78408, Note_on_c, 0, 30, 80
2, 78408, Note_on_c, 0, 42, 80
2, 78408, Note_on_c, 0, 80, 80
2, 78408, Note_on_c, 0, 82, 80
2, 78408, Note_on_c, 0, 86, 80
2, 78408, Note_on_c, 0, 92, 80
2, 78440, Note_on_c, 0, 92, 0
2, 78440, Note_on_c, 0, 82, 0
2, 78440, Note_on_c, 0, 80, 0
2, 78440, Note_on_c, 0, 86, 0
2, 78453, Note_on_c, 0, 30, 0
2, 78453, Note_on_c, 0, 42, 0
2, 78490, Note_on_c, 0, 78, 80
2, 78490, Note_on_c, 0, 87, 80
2, 78490, Note_on_c, 0, 90, 80
2, 78492, Note_on_c, 0, 83, 80
2, 78533, Note_on_c, 0, 51, 80
2, 78533, Note_on_c, 0, 54, 80
2, 78533, Note_on_c, 0, 59, 80
2, 78553, Note_on_c, 0, 59, 0
2, 78553, Note_on_c, 0, 51, 0
2, 78553, Note_on_c, 0, 54, 0
2, 78603, Note_on_c, 0, 90, 0
2, 78603, Note_on_c, 0, 78, 0
2, 78603, Note_on_c, 0, 87, 0
2, 78603, Note_on_c, 0, 83, 0
2, 78653, Note_on_c, 0, 35, 80
2, 78653, Note_on_c, 0, 47, 80
2, 78653, Note_on_c, 0, 75, 80
2, 78653, Note_on_c, 0, 78, 80
2, 78653, Note_on_c, 0, 83, 80
2, 78653, Note_on_c, 0, 87, 80
2, 78698, Note_on_c, 0, 47, 0
2, 78698, Note_on_c, 0, 35, 0
2, 78777, Note_on_c, 0, 51, 80
2, 78777, Note_on_c, 0, 54, 80
2, 78777, Note_on_c, 0, 59, 80
2, 78779, Note_on_c, 0, 78, 0
2, 78779, Note_on_c, 0, 87, 0
2, 78781, Note_on_c, 0, 83, 0
2, 78781, Note_on_c, 0, 75, 0
2, 78802, Note_on_c, 0, 54, 0
2, 78802, Note_on_c, 0, 59, 0
2, 78802, Note_on_c, 0, 51, 0
2, 78863, Note_on_c, 0, 87, 80
2, 78864, Note_on_c, 0, 75, 80
2, 78898, Note_on_c, 0, 75, 0
2, 78898, Note_on_c, 0, 87, 0
2, 78905, Note_on_c, 0, 77, 80
2, 78905, Note_on_c, 0, 81, 80
2, 78907, Note_on_c, 0, 36, 80
2, 78907, Note_on_c, 0, 48, 80
2, 78907, Note_on_c, 0, 74, 80
2, 78907, Note_on_c, 0, 86, 80
2, 78975, Note_on_c, 0, 75, 80
2, 78975, Note_on_c, 0, 87, 80
2, 78977, Note_on_c, 0, 86, 0
2, 78977, Note_on_c, 0, 81, 0
2, 78977, Note_on_c, 0, 77, 0
2, 78977, Note_on_c, 0, 74, 0
2, 79016, Note_on_c, 0, 75, 0
2, 79016, Note_on_c, 0, 87, 0
2, 79023, Note_on_c, 0, 78, 80
2, 79023, Note_on_c, 0, 90, 80
2, 79025, Note_on_c, 0, 54, 80
2, 79025, Note_on_c, 0, 57, 80
2, 79025, Note_on_c, 0, 60, 80
2, 79025, Note_on_c, 0, 63, 80
2, 79046, Note_on_c, 0, 63, 0
2, 79048, Note_on_c, 0, 60, 0
2, 79048, Note_on_c, 0, 54, 0
2, 79048, Note_on_c, 0, 57, 0
2, 79089, Note_on_c, 0, 78, 0
2, 79102, Note_on_c, 0, 90, 0
2, 79108, Note_on_c, 0, 75, 80
2, 79108, Note_on_c, 0, 87, 80
2, 79142, Note_on_c, 0, 87, 0
2, 79142, Note_on_c, 0, 48, 0
2, 79142, Note_on_c, 0, 36, 0
2, 79142, Note_on_c, 0, 75, 0
2, 79149, Note_on_c, 0, 37, 80
2, 79149, Note_on_c, 0, 49, 80
2, 79149, Note_on_c, 0, 76, 80
2, 79149, Note_on_c, 0, 80, 80
2, 79149, Note_on_c, 0, 82, 80
2, 79149, Note_on_c, 0, 88, 80
2, 79194, Note_on_c, 0, 88, 0
2, 79194, Note_on_c, 0, 49, 0
2, 79194, Note_on_c, 0, 76, 0
2, 79194, Note_on_c, 0, 37, 0
2, 79194, Note_on_c, 0, 82, 0
2, 79194, Note_on_c, 0, 80, 0
2, 79276, Note_on_c, 0, 64, 80
2, 79276, Note_on_c, 0, 76, 80
2, 79276, Note_on_c, 0, 88, 80
2, 79278, Note_on_c, 0, 54, 80
2, 79278, Note_on_c, 0, 58, 80
2, 79278, Note_on_c, 0, 61, 80
2, 79278, Note_on_c, 0, 80, 80
2, 79278, Note_on_c, 0, 82, 80
2, 79299, Note_on_c, 0, 61, 0
2, 79299, Note_on_c, 0, 54, 0
2, 79299, Note_on_c, 0, 64, 0
2, 79299, Note_on_c, 0, 58, 0
2, 79349, Note_on_c, 0, 76, 0
2, 79349, Note_on_c, 0, 82, 0
2, 79349, Note_on_c, 0, 88, 0
2, 79349, Note_on_c, 0, 80, 0
2, 79349, Control_c, 0, 64, 127
2, 79356, Note_on_c, 0, 75, 80
2, 79356, Note_on_c, 0, 78, 80
2, 79356, Note_on_c, 0, 87, 80
2, 79390, Note_on_c, 0, 87, 0
2, 79390, Note_on_c, 0, 78, 0
2, 79390, Note_on_c, 0, 75, 0
2, 79395, Note_on_c, 0, 30, 80
2, 79397, Note_on_c, 0, 42, 80
2, 79397, Note_on_c, 0, 73, 80
2, 79397, Note_on_c, 0, 76, 80
2, 79397, Note_on_c, 0, 85, 80
2, 79439, Note_on_c, 0, 42, 0
2, 79439, Note_on_c, 0, 30, 0
2, 79457, Note_on_c, 0, 76, 0
2, 79459, Note_on_c, 0, 73, 0
2, 79467, Note_on_c, 0, 85, 0
2, 79476, Note_on_c, 0, 97, 80
2, 79478, Control_c, 0, 64, 0
2, 79519, Note_on_c, 0, 97, 0
2, 79519, Note_on_c, 0, 54, 80
2, 79519, Note_on_c, 0, 58, 80
2, 79519, Note_on_c, 0, 61, 80
2, 79519, Note_on_c, 0, 64, 80
2, 79519, Note_on_c, 0, 85, 80
2, 79539, Note_on_c, 0, 64, 0
2, 79539, Note_on_c, 0, 61, 0
2, 79539, Note_on_c, 0, 54, 0
2, 79539, Note_on_c, 0, 58, 0
2, 79591, Note_on_c, 0, 85, 0
2, 79602, Note_on_c, 0, 86, 80
2, 79635, Note_on_c, 0, 86, 0
2, 79642, Note_on_c, 0, 35, 80
2, 79642, Note_on_c, 0, 47, 80
2, 79642, Note_on_c, 0, 75, 80
2, 79642, Note_on_c, 0, 78, 80
2, 79642, Note_on_c, 0, 83, 80
2, 79642, Note_on_c, 0, 87, 80
2, 79685, Note_on_c, 0, 35, 0
2, 79694, Note_on_c, 0, 47, 0
2, 79764, Note_on_c, 0, 51, 80
2, 79766, Note_on_c, 0, 54, 80
2, 79766, Note_on_c, 0, 59, 80
2, 79768, Note_on_c, 0, 83, 0
2, 79768, Note_on_c, 0, 75, 0
2, 79768, Note_on_c, 0, 78, 0
2, 79768, Note_on_c, 0, 87, 0
2, 79788, Note_on_c, 0, 59, 0
2, 79788, Note_on_c, 0, 51, 0
2, 79788, Note_on_c, 0, 54, 0
2, 79850, Note_on_c, 0, 87, 80
2, 79852, Note_on_c, 0, 75, 80
2, 79886, Note_on_c, 0, 75, 0
2, 79886, Note_on_c, 0, 87, 0
2, 79893, Note_on_c, 0, 74, 80
2, 79893, Note_on_c, 0, 78, 80
2, 79893, Note_on_c, 0, 83, 80
2, 79893, Note_on_c, 0, 86, 80
2, 79895, Note_on_c, 0, 42, 80
2, 79895, Note_on_c, 0, 54, 80
2, 79938, Note_on_c, 0, 54, 0
2, 79940, Note_on_c, 0, 42, 0
2, 79970, Note_on_c, 0, 83, 0
2, 79970, Note_on_c, 0, 74, 0
2, 79970, Note_on_c, 0, 78, 0
2, 79970, Note_on_c, 0, 86, 0
2, 79977, Note_on_c, 0, 75, 80
2, 79979, Note_on_c, 0, 87, 80
2, 80013, Note_on_c, 0, 87, 0
2, 80013, Note_on_c, 0, 75, 0
2, 80021, Note_on_c, 0, 51, 80
2, 80021, Note_on_c, 0, 54, 80
2, 80021, Note_on_c, 0, 59, 80
2, 80021, Note_on_c, 0, 78, 80
2, 80023, Note_on_c, 0, 90, 80
2, 80044, Note_on_c, 0, 59, 0
2, 80044, Note_on_c, 0, 51, 0
2, 80044, Note_on_c, 0, 54, 0
2, 80055, Note_on_c, 0, 78, 0
2, 80057, Note_on_c, 0, 90, 0
2, 80064, Control_c, 0, 64, 127
2, 80111, Note_on_c, 0, 87, 80
2, 80111, Note_on_c, 0, 90, 80
2, 80112, Note_on_c, 0, 83, 80
2, 80112, Note_on_c, 0, 95, 80
2, 80150, Note_on_c, 0, 35, 80
2, 80150, Note_on_c, 0, 47, 80
2, 80195, Note_on_c, 0, 47, 0
2, 80195, Note_on_c, 0, 35, 0
2, 80228, Note_on_c, 0, 87, 0
2, 80228, Note_on_c, 0, 83, 0
2, 80228, Note_on_c, 0, 90, 0
2, 80233, Note_on_c, 0, 94, 80
2, 80235, Note_on_c, 0, 82, 80
2, 80237, Note_on_c, 0, 95, 0
2, 80237, Control_c, 0, 64, 0
2, 80268, Note_on_c, 0, 94, 0
2, 80270, Note_on_c, 0, 82, 0
2, 80277, Note_on_c, 0, 51, 80
2, 80277, Note_on_c, 0, 54, 80
2, 80277, Note_on_c, 0, 59, 80
2, 80277, Note_on_c, 0, 80, 80
2, 80277, Note_on_c, 0, 92, 80
2, 80279, Note_on_c, 0, 83, 80
2, 80279, Note_on_c, 0, 87, 80
2, 80300, Note_on_c, 0, 59, 0
2, 80300, Note_on_c, 0, 51, 0
2, 80300, Note_on_c, 0, 54, 0
2, 80352, Note_on_c, 0, 92, 0
2, 80352, Note_on_c, 0, 80, 0
2, 80352, Note_on_c, 0, 83, 0
2, 80352, Note_on_c, 0, 87, 0
2, 80401, Note_on_c, 0, 82, 80
2, 80401, Note_on_c, 0, 86, 80
2, 80401, Note_on_c, 0, 92, 80
2, 80403, Note_on_c, 0, 30, 80
2, 80403, Note_on_c, 0, 42, 80
2, 80403, Note_on_c, 0, 80, 80
2, 80434, Note_on_c, 0, 80, 0
2, 80434, Note_on_c, 0, 86, 0
2, 80434, Note_on_c, 0, 82, 0
2, 80434, Note_on_c, 0, 92, 0
2, 80445, Note_on_c, 0, 30, 0
2, 80445, Note_on_c, 0, 42, 0
2, 80484, Note_on_c, 0, 90, 80
2, 80486, Note_on_c, 0, 78, 80
2, 80486, Note_on_c, 0, 83, 80
2, 80486, Note_on_c, 0, 87, 80
2, 80525, Note_on_c, 0, 59, 80
2, 80527, Note_on_c, 0, 51, 80
2, 80527, Note_on_c, 0, 54, 80
2, 80548, Note_on_c, 0, 54, 0
2, 80548, Note_on_c, 0, 59, 0
2, 80548, Note_on_c, 0, 51, 0
2, 80596, Note_on_c, 0, 83, 0
2, 80596, Note_on_c, 0, 90, 0
2, 80596, Note_on_c, 0, 78, 0
2, 80596, Note_on_c, 0, 87, 0
2, 80644, Note_on_c, 0, 86, 80
2, 80644, Note_on_c, 0, 89, 80
2, 80644, Note_on_c, 0, 95, 80
2, 80646, Note_on_c, 0, 53, 80
2, 80646, Note_on_c, 0, 62, 80
2, 80646, Note_on_c, 0, 68, 80
2, 80646, Note_on_c, 0, 83, 80
2, 80677, Note_on_c, 0, 89, 0
2, 80716, Note_on_c, 0, 95, 0
2, 80716, Note_on_c, 0, 86, 0
2, 80716, Note_on_c, 0, 83, 0
2, 80723, Note_on_c, 0, 77, 80
2, 80723, Note_on_c, 0, 89, 80
2, 80754, Note_on_c, 0, 89, 0
2, 80754, Note_on_c, 0, 68, 0
2, 80754, Note_on_c, 0, 77, 0
2, 80754, Note_on_c, 0, 62, 0
2, 80756, Note_on_c, 0, 53, 0
2, 80761, Note_on_c, 0, 51, 80
2, 80761, Note_on_c, 0, 60, 80
2, 80761, Note_on_c, 0, 66, 80
2, 80761, Note_on_c, 0, 78, 80
2, 80761, Note_on_c, 0, 90, 80
2, 80794, Note_on_c, 0, 90, 0
2, 80794, Note_on_c, 0, 78, 0
2, 80841, Note_on_c, 0, 82, 80
2, 80841, Note_on_c, 0, 86, 80
2, 80841, Note_on_c, 0, 89, 80
2, 80841, Note_on_c, 0, 94, 80
2, 80872, Note_on_c, 0, 51, 0
2, 80872, Note_on_c, 0, 66, 0
2, 80872, Note_on_c, 0, 60, 0
2, 80880, Note_on_c, 0, 50, 80
2, 80880, Note_on_c, 0, 58, 80
2, 80880, Note_on_c, 0, 65, 80
2, 80954, Note_on_c, 0, 65, 0
2, 80954, Note_on_c, 0, 50, 0
2, 80954, Note_on_c, 0, 89, 0
2, 80954, Note_on_c, 0, 94, 0
2, 80954, Note_on_c, 0, 82, 0
2, 80954, Note_on_c, 0, 58, 0
2, 80954, Note_on_c, 0, 86, 0
2, 80963, Note_on_c, 0, 83, 80
2, 80963, Note_on_c, 0, 95, 80
2, 80997, Note_on_c, 0, 95, 0
2, 80997, Note_on_c, 0, 83, 0
2, 81005, Note_on_c, 0, 58, 80
2, 81005, Note_on_c, 0, 62, 80
2, 81005, Note_on_c, 0, 65, 80
2, 81005, Note_on_c, 0, 68, 80
2, 81005, Note_on_c, 0, 82, 80
2, 81005, Note_on_c, 0, 86, 80
2, 81005, Note_on_c, 0, 89, 80
2, 81005, Note_on_c, 0, 94, 80
2, 81028, Note_on_c, 0, 68, 0
2, 81028, Note_on_c, 0, 65, 0
2, 81028, Note_on_c, 0, 58, 0
2, 81028, Note_on_c, 0, 62, 0
2, 81078, Note_on_c, 0, 94, 0
2, 81121, Note_on_c, 0, 89, 0
2, 81121, Note_on_c, 0, 86, 0
2, 81121, Note_on_c, 0, 82, 0
2, 81127, Note_on_c, 0, 99, 80
2, 81129, Note_on_c, 0, 51, 80
2, 81129, Note_on_c, 0, 58, 80
2, 81129, Note_on_c, 0, 66, 80
2, 81129, Note_on_c, 0, 87, 80
2, 81129, Note_on_c, 0, 90, 80
2, 81129, Note_on_c, 0, 94, 80
2, 81203, Note_on_c, 0, 99, 0
2, 81205, Note_on_c, 0, 90, 0
2, 81205, Note_on_c, 0, 87, 0
2, 81205, Note_on_c, 0, 94, 0
2, 81212, Note_on_c, 0, 81, 80
2, 81212, Note_on_c, 0, 93, 80
2, 81245, Note_on_c, 0, 93, 0
2, 81247, Note_on_c, 0, 51, 0
2, 81247, Note_on_c, 0, 58, 0
2, 81247, Note_on_c, 0, 66, 0
2, 81247, Note_on_c, 0, 81, 0
2, 81254, Note_on_c, 0, 50, 80
2, 81254, Note_on_c, 0, 59, 80
2, 81254, Note_on_c, 0, 65, 80
2, 81254, Note_on_c, 0, 82, 80
2, 81254, Note_on_c, 0, 94, 80
2, 81289, Note_on_c, 0, 94, 0
2, 81289, Note_on_c, 0, 82, 0
2, 81337, Note_on_c, 0, 82, 80
2, 81337, Note_on_c, 0, 85, 80
2, 81337, Note_on_c, 0, 88, 80
2, 81337, Note_on_c, 0, 92, 80
2, 81339, Note_on_c, 0, 80, 80
2, 81362, Note_on_c, 0, 50, 0
2, 81362, Note_on_c, 0, 65, 0
2, 81362, Note_on_c, 0, 59, 0
2, 81371, Note_on_c, 0, 49, 80
2, 81382, Note_on_c, 0, 58, 80
2, 81382, Note_on_c, 0, 64, 80
2, 81454, Note_on_c, 0, 64, 0
2, 81454, Note_on_c, 0, 80, 0
2, 81454, Note_on_c, 0, 88, 0
2, 81454, Note_on_c, 0, 92, 0
2, 81454, Note_on_c, 0, 85, 0
2, 81454, Note_on_c, 0, 82, 0
2, 81454, Note_on_c, 0, 49, 0
2, 81454, Note_on_c, 0, 58, 0
2, 81462, Note_on_c, 0, 78, 80
2, 81462, Note_on_c, 0, 90, 80
2, 81496, Note_on_c, 0, 90, 0
2, 81496, Note_on_c, 0, 78, 0
2, 81503, Note_on_c, 0, 85, 80
2, 81506, Note_on_c, 0, 73, 80
2, 81508, Note_on_c, 0, 42, 80
2, 81508, Note_on_c, 0, 54, 80
2, 81573, Note_on_c, 0, 73, 0
2, 81573, Note_on_c, 0, 85, 0
2, 81589, Note_on_c, 0, 74, 80
2, 81589, Note_on_c, 0, 86, 80
2, 81624, Note_on_c, 0, 86, 0
2, 81624, Note_on_c, 0, 74, 0
2, 81628, Note_on_c, 0, 42, 0
2, 81628, Note_on_c, 0, 54, 0
2, 81634, Note_on_c, 0, 83, 80
2, 81634, Note_on_c, 0, 87, 80
2, 81636, Note_on_c, 0, 35, 80
2, 81636, Note_on_c, 0, 47, 80
2, 81636, Note_on_c, 0, 75, 80
2, 81636, Note_on_c, 0, 78, 80
2, 81681, Note_on_c, 0, 47, 0
2, 81681, Note_on_c, 0, 35, 0
2, 81751, Note_on_c, 0, 75, 0
2, 81751, Note_on_c, 0, 83, 0
2, 81751, Note_on_c, 0, 78, 0
2, 81751, Note_on_c, 0, 87, 0
2, 81762, Note_on_c, 0, 51, 80
2, 81762, Note_on_c, 0, 54, 80
2, 81762, Note_on_c, 0, 59, 80
2, 81787, Note_on_c, 0, 59, 0
2, 81787, Note_on_c, 0, 54, 0
2, 81787, Note_on_c, 0, 51, 0
2, 81844, Note_on_c, 0, 75, 80
2, 81844, Note_on_c, 0, 87, 80
2, 81878, Note_on_c, 0, 87, 0
2, 81878, Note_on_c, 0, 75, 0
2, 81885, Note_on_c, 0, 42, 80
2, 81885, Note_on_c, 0, 54, 80
2, 81885, Note_on_c, 0, 74, 80
2, 81885, Note_on_c, 0, 78, 80
2, 81885, Note_on_c, 0, 83, 80
2, 81885, Note_on_c, 0, 86, 80
2, 81928, Note_on_c, 0, 54, 0
2, 81928, Note_on_c, 0, 42, 0
2, 81959, Note_on_c, 0, 83, 0
2, 81959, Note_on_c, 0, 78, 0
2, 81959, Note_on_c, 0, 86, 0
2, 81959, Note_on_c, 0, 74, 0
2, 81967, Note_on_c, 0, 75, 80
2, 81967, Note_on_c, 0, 87, 80
2, 82001, Note_on_c, 0, 87, 0
2, 82001, Note_on_c, 0, 75, 0
2, 82008, Note_on_c, 0, 51, 80
2, 82008, Note_on_c, 0, 78, 80
2, 82008, Note_on_c, 0, 90, 80
2, 82009, Note_on_c, 0, 54, 80
2, 82009, Note_on_c, 0, 59, 80
2, 82032, Note_on_c, 0, 59, 0
2, 82032, Note_on_c, 0, 51, 0
2, 82032, Note_on_c, 0, 54, 0
2, 82051, Note_on_c, 0, 90, 0
2, 82051, Note_on_c, 0, 78, 0
2, 82053, Control_c, 0, 64, 127
2, 82092, Note_on_c, 0, 87, 80
2, 82092, Note_on_c, 0, 95, 80
2, 82094, Note_on_c, 0, 83, 80
2, 82094, Note_on_c, 0, 90, 80
2, 82135, Note_on_c, 0, 35, 80
2, 82135, Note_on_c, 0, 47, 80
2, 82178, Note_on_c, 0, 47, 0
2, 82178, Note_on_c, 0, 35, 0
2, 82189, Control_c, 0, 64, 0
2, 82198, Note_on_c, 0, 83, 0
2, 82208, Note_on_c, 0, 87, 0
2, 82208, Note_on_c, 0, 95, 0
2, 82208, Note_on_c, 0, 90, 0
2, 82217, Note_on_c, 0, 82, 80
2, 82217, Note_on_c, 0, 94, 80
2, 82248, Note_on_c, 0, 94, 0
2, 82249, Note_on_c, 0, 82, 0
2, 82256, Note_on_c, 0, 87, 80
2, 82256, Note_on_c, 0, 92, 80
2, 82260, Note_on_c, 0, 51, 80
2, 82260, Note_on_c, 0, 54, 80
2, 82260, Note_on_c, 0, 59, 80
2, 82260, Note_on_c, 0, 80, 80
2, 82260, Note_on_c, 0, 83, 80
2, 82281, Note_on_c, 0, 59, 0
2, 82283, Note_on_c, 0, 54, 0
2, 82283, Note_on_c, 0, 51, 0
2, 82330, Note_on_c, 0, 92, 0
2, 82332, Note_on_c, 0, 87, 0
2, 82332, Note_on_c, 0, 83, 0
2, 82332, Note_on_c, 0, 80, 0
2, 82382, Note_on_c, 0, 86, 80
2, 82382, Note_on_c, 0, 92, 80
2, 82384, Note_on_c, 0, 30, 80
2, 82384, Note_on_c, 0, 42, 80
2, 82384, Note_on_c, 0, 80, 80
2, 82384, Note_on_c, 0, 82, 80
2, 82416, Note_on_c, 0, 82, 0
2, 82416, Note_on_c, 0, 86, 0
2, 82416, Note_on_c, 0, 92, 0
2, 82418, Note_on_c, 0, 80, 0
2, 82429, Note_on_c, 0, 30, 0
2, 82429, Note_on_c, 0, 42, 0
2, 82466, Note_on_c, 0, 78, 80
2, 82466, Note_on_c, 0, 87, 80
2, 82466, Note_on_c, 0, 90, 80
2, 82468, Note_on_c, 0, 83, 80
2, 82508, Note_on_c, 0, 51, 80
2, 82508, Note_on_c, 0, 59, 80
2, 82512, Note_on_c, 0, 54, 80
2, 82532, Note_on_c, 0, 54, 0
2, 82532, Note_on_c, 0, 51, 0
2, 82532, Note_on_c, 0, 59, 0
2, 82582, Note_on_c, 0, 78, 0
2, 82582, Note_on_c, 0, 90, 0
2, 82582, Note_on_c, 0, 87, 0
2, 82584, Note_on_c, 0, 83, 0
2, 82632, Note_on_c, 0, 46, 80
2, 82632, Note_on_c, 0, 87, 80
2, 82632, Note_on_c, 0, 91, 80
2, 82632, Note_on_c, 0, 94, 80
2, 82632, Note_on_c, 0, 99, 80
2, 82633, Note_on_c, 0, 55, 80
2, 82633, Note_on_c, 0, 61, 80
2, 82707, Note_on_c, 0, 61, 0
2, 82707, Note_on_c, 0, 99, 0
2, 82707, Note_on_c, 0, 87, 0
2, 82707, Note_on_c, 0, 91, 0
2, 82707, Note_on_c, 0, 46, 0
2, 82707, Note_on_c, 0, 55, 0
2, 82707, Note_on_c, 0, 94, 0
2, 82757, Note_on_c, 0, 39, 80
2, 82757, Note_on_c, 0, 46, 80
2, 82757, Note_on_c, 0, 55, 80
2, 82757, Note_on_c, 0, 87, 80
2, 82757, Note_on_c, 0, 91, 80
2, 82757, Note_on_c, 0, 94, 80
2, 82757, Note_on_c, 0, 99, 80
2, 82790, Note_on_c, 0, 99, 0
2, 82790, Note_on_c, 0, 94, 0
2, 82792, Note_on_c, 0, 87, 0
2, 82792, Note_on_c, 0, 91, 0
2, 82840, Note_on_c, 0, 85, 80
2, 82840, Note_on_c, 0, 89, 80
2, 82840, Note_on_c, 0, 92, 80
2, 82840, Note_on_c, 0, 97, 80
2, 82863, Note_on_c, 0, 39, 0
2, 82863, Note_on_c, 0, 46, 0
2, 82863, Note_on_c, 0, 55, 0
2, 82873, Note_on_c, 0, 49, 80
2, 82882, Note_on_c, 0, 41, 80
2, 82882, Note_on_c, 0, 56, 80
2, 82954, Note_on_c, 0, 89, 0
2, 82954, Note_on_c, 0, 97, 0
2, 82954, Note_on_c, 0, 85, 0
2, 82954, Note_on_c, 0, 92, 0
2, 82961, Note_on_c, 0, 99, 80
2, 82965, Note_on_c, 0, 87, 80
2, 82995, Note_on_c, 0, 99, 0
2, 82997, Note_on_c, 0, 56, 0
2, 82997, Note_on_c, 0, 41, 0
2, 82997, Note_on_c, 0, 49, 0
2, 82997, Note_on_c, 0, 87, 0
2, 83003, Note_on_c, 0, 85, 80
2, 83003, Note_on_c, 0, 91, 80
2, 83003, Note_on_c, 0, 94, 80
2, 83003, Note_on_c, 0, 97, 80
2, 83005, Note_on_c, 0, 43, 80
2, 83005, Note_on_c, 0, 51, 80
2, 83005, Note_on_c, 0, 58, 80
2, 83080, Note_on_c, 0, 51, 0
2, 83119, Note_on_c, 0, 43, 0
2, 83119, Note_on_c, 0, 91, 0
2, 83119, Note_on_c, 0, 94, 0
2, 83119, Note_on_c, 0, 85, 0
2, 83119, Note_on_c, 0, 58, 0
2, 83119, Note_on_c, 0, 97, 0
2, 83126, Note_on_c, 0, 44, 80
2, 83126, Note_on_c, 0, 51, 80
2, 83126, Note_on_c, 0, 59, 80
2, 83126, Note_on_c, 0, 83, 80
2, 83126, Note_on_c, 0, 87, 80
2, 83126, Note_on_c, 0, 92, 80
2, 83126, Note_on_c, 0, 95, 80
2, 83160, Note_on_c, 0, 95, 0
2, 83160, Note_on_c, 0, 87, 0
2, 83160, Note_on_c, 0, 51, 0
2, 83160, Note_on_c, 0, 59, 0
2, 83160, Note_on_c, 0, 44, 0
2, 83160, Note_on_c, 0, 92, 0
2, 83160, Note_on_c, 0, 83, 0
2, 83208, Note_on_c, 0, 99, 80
2, 83209, Note_on_c, 0, 75, 80
2, 83240, Note_on_c, 0, 99, 0
2, 83244, Note_on_c, 0, 75, 0
2, 83251, Note_on_c, 0, 95, 80
2, 83253, Note_on_c, 0, 71, 80
2, 83329, Note_on_c, 0, 71, 0
2, 83336, Note_on_c, 0, 92, 80
2, 83338, Note_on_c, 0, 95, 0
2, 83338, Note_on_c, 0, 68, 80
2, 83371, Note_on_c, 0, 92, 0
2, 83373, Note_on_c, 0, 68, 0
2, 83379, Note_on_c, 0, 87, 80
2, 83381, Note_on_c, 0, 63, 80
2, 83458, Note_on_c, 0, 63, 0
2, 83458, Note_on_c, 0, 87, 0
2, 83465, Note_on_c, 0, 83, 80
2, 83467, Note_on_c, 0, 59, 80
2, 83502, Note_on_c, 0, 59, 0
2, 83502, Note_on_c, 0, 83, 0
2, 83509, Note_on_c, 0, 80, 80
2, 83511, Note_on_c, 0, 56, 80
2, 83586, Control_c, 0, 64, 127
2, 83588, Note_on_c, 0, 56, 0
2, 83588, Note_on_c, 0, 80, 0
2, 83594, Note_on_c, 0, 51, 80
2, 83594, Note_on_c, 0, 75, 80
2, 83628, Note_on_c, 0, 75, 0
2, 83628, Note_on_c, 0, 51, 0
2, 83635, Note_on_c, 0, 76, 80
2, 83635, Note_on_c, 0, 88, 80
2, 83637, Note_on_c, 0, 37, 80
2, 83637, Note_on_c, 0, 49, 80
2, 83637, Note_on_c, 0, 80, 80
2, 83637, Note_on_c, 0, 85, 80
2, 83682, Note_on_c, 0, 49, 0
2, 83682, Note_on_c, 0, 37, 0
2, 83690, Control_c, 0, 64, 0
2, 83713, Note_on_c, 0, 80, 0
2, 83713, Note_on_c, 0, 76, 0
2, 83713, Note_on_c, 0, 85, 0
2, 83713, Note_on_c, 0, 88, 0
2, 83765, Note_on_c, 0, 90, 80
2, 83767, Note_on_c, 0, 52, 80
2, 83767, Note_on_c, 0, 56, 80
2, 83767, Note_on_c, 0, 61, 80
2, 83767, Note_on_c, 0, 78, 80
2, 83788, Note_on_c, 0, 61, 0
2, 83788, Note_on_c, 0, 52, 0
2, 83790, Note_on_c, 0, 56, 0
2, 83799, Note_on_c, 0, 90, 0
2, 83799, Note_on_c, 0, 78, 0
2, 83851, Note_on_c, 0, 80, 80
2, 83851, Note_on_c, 0, 85, 80
2, 83851, Note_on_c, 0, 88, 80
2, 83851, Note_on_c, 0, 92, 80
2, 83892, Note_on_c, 0, 40, 80
2, 83892, Note_on_c, 0, 52, 80
2, 83937, Note_on_c, 0, 52, 0
2, 83937, Note_on_c, 0, 40, 0
2, 83955, Note_on_c, 0, 85, 0
2, 83955, Note_on_c, 0, 80, 0
2, 83955, Note_on_c, 0, 92, 0
2, 83968, Note_on_c, 0, 88, 0
2, 83974, Note_on_c, 0, 94, 80
2, 83977, Note_on_c, 0, 82, 80
2, 84008, Note_on_c, 0, 82, 0
2, 84008, Note_on_c, 0, 94, 0
2, 84015, Note_on_c, 0, 95, 80
2, 84019, Note_on_c, 0, 52, 80
2, 84019, Note_on_c, 0, 56, 80
2, 84019, Note_on_c, 0, 61, 80
2, 84019, Note_on_c, 0, 83, 80
2, 84039, Note_on_c, 0, 61, 0
2, 84039, Note_on_c, 0, 52, 0
2, 84041, Note_on_c, 0, 56, 0
2, 84061, Control_c, 0, 64, 127
2, 84090, Note_on_c, 0, 83, 0
2, 84100, Note_on_c, 0, 95, 0
2, 84140, Note_on_c, 0, 41, 80
2, 84140, Note_on_c, 0, 80, 80
2, 84140, Note_on_c, 0, 86, 80
2, 84140, Note_on_c, 0, 89, 80
2, 84140, Note_on_c, 0, 92, 80
2, 84150, Note_on_c, 0, 53, 80
2, 84183, Note_on_c, 0, 53, 0
2, 84183, Note_on_c, 0, 41, 0
2, 84192, Control_c, 0, 64, 0
2, 84264, Note_on_c, 0, 56, 80
2, 84264, Note_on_c, 0, 59, 80
2, 84264, Note_on_c, 0, 62, 80
2, 84264, Note_on_c, 0, 65, 80
2, 84287, Note_on_c, 0, 65, 0
2, 84287, Note_on_c, 0, 62, 0
2, 84287, Note_on_c, 0, 59, 0
2, 84288, Note_on_c, 0, 56, 0
2, 84295, Note_on_c, 0, 92, 0
2, 84295, Note_on_c, 0, 89, 0
2, 84295, Note_on_c, 0, 86, 0
2, 84297, Note_on_c, 0, 80, 0
2, 84345, Note_on_c, 0, 87, 80
2, 84345, Note_on_c, 0, 90, 80
2, 84347, Note_on_c, 0, 78, 80
2, 84347, Note_on_c, 0, 83, 80
2, 84390, Note_on_c, 0, 42, 80
2, 84390, Note_on_c, 0, 54, 80
2, 84433, Note_on_c, 0, 54, 0
2, 84433, Note_on_c, 0, 42, 0
2, 84518, Note_on_c, 0, 54, 80
2, 84518, Note_on_c, 0, 59, 80
2, 84518, Note_on_c, 0, 63, 80
2, 84539, Note_on_c, 0, 63, 0
2, 84539, Note_on_c, 0, 54, 0
2, 84539, Note_on_c, 0, 59, 0
2, 84591, Note_on_c, 0, 78, 0
2, 84591, Note_on_c, 0, 87, 0
2, 84591, Note_on_c, 0, 90, 0
2, 84593, Note_on_c, 0, 83, 0
2, 84641, Note_on_c, 0, 92, 80
2, 84643, Note_on_c, 0, 42, 80
2, 84643, Note_on_c, 0, 54, 80
2, 84643, Note_on_c, 0, 80, 80
2, 84643, Note_on_c, 0, 82, 80
2, 84643, Note_on_c, 0, 85, 80
2, 84643, Note_on_c, 0, 88, 80
2, 84675, Note_on_c, 0, 88, 0
2, 84675, Note_on_c, 0, 82, 0
2, 84675, Note_on_c, 0, 80, 0
2, 84675, Note_on_c, 0, 92, 0
2, 84675, Note_on_c, 0, 85, 0
2, 84725, Note_on_c, 0, 78, 80
2, 84725, Note_on_c, 0, 82, 80
2, 84725, Note_on_c, 0, 85, 80
2, 84725, Note_on_c, 0, 90, 80
2, 84748, Note_on_c, 0, 42, 0
2, 84748, Note_on_c, 0, 54, 0
2, 84768, Note_on_c, 0, 44, 80
2, 84768, Note_on_c, 0, 56, 80
2, 84801, Note_on_c, 0, 85, 0
2, 84801, Note_on_c, 0, 78, 0
2, 84801, Note_on_c, 0, 82, 0
2, 84801, Note_on_c, 0, 90, 0
2, 84849, Note_on_c, 0, 78, 80
2, 84849, Note_on_c, 0, 85, 80
2, 84849, Note_on_c, 0, 88, 80
2, 84849, Note_on_c, 0, 90, 80
2, 84851, Note_on_c, 0, 82, 80
2, 84882, Note_on_c, 0, 56, 0
2, 84882, Note_on_c, 0, 44, 0
2, 84888, Note_on_c, 0, 46, 80
2, 84892, Note_on_c, 0, 58, 80
2, 84962, Note_on_c, 0, 90, 0
2, 84964, Note_on_c, 0, 82, 0
2, 84964, Note_on_c, 0, 85, 0
2, 84964, Note_on_c, 0, 88, 0
2, 84964, Note_on_c, 0, 78, 0
2, 84970, Note_on_c, 0, 80, 80
2, 84970, Note_on_c, 0, 92, 80
2, 84995, Note_on_c, 0, 58, 0
2, 84995, Note_on_c, 0, 46, 0
2, 85004, Note_on_c, 0, 80, 0
2, 85004, Note_on_c, 0, 92, 0
2, 85009, Note_on_c, 0, 90, 80
2, 85013, Note_on_c, 0, 42, 80
2, 85013, Note_on_c, 0, 54, 80
2, 85013, Note_on_c, 0, 78, 80
2, 85013, Note_on_c, 0, 82, 80
2, 85013, Note_on_c, 0, 85, 80
2, 85013, Note_on_c, 0, 88, 80
2, 85087, Note_on_c, 0, 88, 0
2, 85087, Note_on_c, 0, 82, 0
2, 85087, Note_on_c, 0, 42, 0
2, 85087, Note_on_c, 0, 54, 0
2, 85087, Note_on_c, 0, 90, 0
2, 85087, Note_on_c, 0, 85, 0
2, 85087, Note_on_c, 0, 78, 0
2, 85137, Note_on_c, 0, 63, 80
2, 85137, Note_on_c, 0, 95, 80
2, 85139, Note_on_c, 0, 47, 80
2, 85139, Note_on_c, 0, 54, 80
2, 85139, Note_on_c, 0, 71, 80
2, 85139, Note_on_c, 0, 75, 80
2, 85139, Note_on_c, 0, 78, 80
2, 85139, Note_on_c, 0, 83, 80
2, 85207, Note_on_c, 0, 95, 0
2, 85211, Note_on_c, 0, 63, 0
2, 85211, Note_on_c, 0, 75, 0
2, 85211, Note_on_c, 0, 47, 0
2, 85211, Note_on_c, 0, 54, 0
2, 85211, Note_on_c, 0, 71, 0
2, 85211, Note_on_c, 0, 78, 0
2, 85211, Note_on_c, 0, 83, 0
2, 85218, Note_on_c, 0, 58, 80
2, 85218, Note_on_c, 0, 70, 80
2, 85218, Note_on_c, 0, 82, 80
2, 85250, Note_on_c, 0, 82, 0
2, 85252, Note_on_c, 0, 70, 0
2, 85252, Note_on_c, 0, 58, 0
2, 85261, Note_on_c, 0, 57, 80
2, 85261, Note_on_c, 0, 69, 80
2, 85261, Note_on_c, 0, 81, 80
2, 85294, Note_on_c, 0, 81, 0
2, 85294, Note_on_c, 0, 69, 0
2, 85296, Note_on_c, 0, 57, 0
2, 85345, Note_on_c, 0, 56, 80
2, 85345, Note_on_c, 0, 68, 80
2, 85345, Note_on_c, 0, 80, 80
2, 85464, Note_on_c, 0, 80, 0
2, 85464, Note_on_c, 0, 68, 0
2, 85464, Note_on_c, 0, 56, 0
2, 85469, Note_on_c, 0, 67, 80
2, 85469, Note_on_c, 0, 79, 80
2, 85471, Note_on_c, 0, 55, 80
2, 85504, Note_on_c, 0, 55, 0
2, 85504, Note_on_c, 0, 79, 0
2, 85504, Note_on_c, 0, 67, 0
2, 85511, Note_on_c, 0, 66, 80
2, 85511, Note_on_c, 0, 78, 80
2, 85512, Note_on_c, 0, 54, 80
2, 85577, Note_on_c, 0, 54, 0
2, 85577, Note_on_c, 0, 66, 0
2, 85585, Note_on_c, 0, 78, 0
2, 85594, Note_on_c, 0, 65, 80
2, 85594, Note_on_c, 0, 77, 80
2, 85596, Note_on_c, 0, 53, 80
2, 85627, Note_on_c, 0, 77, 0
2, 85631, Note_on_c, 0, 53, 0
2, 85631, Note_on_c, 0, 65, 0
2, 85636, Note_on_c, 0, 76, 80
2, 85638, Note_on_c, 0, 52, 80
2, 85638, Note_on_c, 0, 64, 80
2, 85715, Note_on_c, 0, 64, 0
2, 85715, Note_on_c, 0, 76, 0
2, 85717, Note_on_c, 0, 52, 0
2, 85723, Note_on_c, 0, 51, 80
2, 85723, Note_on_c, 0, 75, 80
2, 85725, Note_on_c, 0, 63, 80
2, 85758, Note_on_c, 0, 63, 0
2, 85758, Note_on_c, 0, 75, 0
2, 85758, Note_on_c, 0, 51, 0
2, 85765, Note_on_c, 0, 50, 80
2, 85765, Note_on_c, 0, 62, 80
2, 85765, Note_on_c, 0, 74, 80
2, 85800, Note_on_c, 0, 74, 0
2, 85800, Note_on_c, 0, 62, 0
2, 85800, Note_on_c, 0, 50, 0
2, 85852, Note_on_c, 0, 49, 80
2, 85852, Note_on_c, 0, 61, 80
2, 85852, Note_on_c, 0, 73, 80
2, 85968, Note_on_c, 0, 73, 0
2, 85968, Note_on_c, 0, 61, 0
2, 85968, Note_on_c, 0, 49, 0
2, 85976, Note_on_c, 0, 51, 80
2, 85976, Note_on_c, 0, 63, 80
2, 85976, Note_on_c, 0, 75, 80
2, 86010, Note_on_c, 0, 75, 0
2, 86010, Note_on_c, 0, 63, 0
2, 86010, Note_on_c, 0, 51, 0
2, 86016, Note_on_c, 0, 52, 80
2, 86016, Note_on_c, 0, 64, 80
2, 86016, Note_on_c, 0, 76, 80
2, 86060, Note_on_c, 0, 76, 0
2, 86060, Control_c, 0, 64, 127
2, 86062, Note_on_c, 0, 64, 0
2, 86062, Note_on_c, 0, 52, 0
2, 86140, Note_on_c, 0, 37, 80
2, 86140, Note_on_c, 0, 49, 80
2, 86140, Note_on_c, 0, 68, 80
2, 86140, Note_on_c, 0, 73, 80
2, 86140, Note_on_c, 0, 76, 80
2, 86140, Note_on_c, 0, 80, 80
2, 86163, Control_c, 0, 64, 0
2, 86182, Note_on_c, 0, 80, 0
2, 86182, Note_on_c, 0, 73, 0
2, 86182, Note_on_c, 0, 68, 0
2, 86182, Note_on_c, 0, 76, 0
2, 86184, Note_on_c, 0, 37, 0
2, 86184, Note_on_c, 0, 49, 0
2, 86268, Note_on_c, 0, 39, 80
2, 86268, Note_on_c, 0, 51, 80
2, 86302, Note_on_c, 0, 51, 0
2, 86302, Note_on_c, 0, 39, 0
2, 86312, Control_c, 0, 64, 127
2, 86353, Note_on_c, 0, 40, 80
2, 86353, Note_on_c, 0, 52, 80
2, 86384, Control_c, 0, 64, 0
2, 86458, Note_on_c, 0, 52, 0
2, 86458, Note_on_c, 0, 40, 0
2, 86476, Note_on_c, 0, 37, 80
2, 86478, Note_on_c, 0, 49, 80
2, 86512, Note_on_c, 0, 49, 0
2, 86512, Note_on_c, 0, 37, 0
2, 86520, Note_on_c, 0, 42, 80
2, 86520, Note_on_c, 0, 54, 80
2, 86520, Note_on_c, 0, 70, 80
2, 86520, Note_on_c, 0, 73, 80
2, 86520, Note_on_c, 0, 76, 80
2, 86520, Note_on_c, 0, 82, 80
2, 86636, Note_on_c, 0, 76, 0
2, 86638, Note_on_c, 0, 54, 0
2, 86638, Note_on_c, 0, 70, 0
2, 86638, Note_on_c, 0, 42, 0
2, 86638, Note_on_c, 0, 82, 0
2, 86638, Note_on_c, 0, 73, 0
2, 86648, Note_on_c, 0, 47, 80
2, 86648, Note_on_c, 0, 59, 80
2, 86648, Note_on_c, 0, 75, 80
2, 86648, Note_on_c, 0, 78, 80
2, 86648, Note_on_c, 0, 83, 80
2, 86654, Note_on_c, 0, 71, 80
2, 86688, Note_on_c, 0, 71, 0
2, 86688, Note_on_c, 0, 78, 0
2, 86688, Note_on_c, 0, 75, 0
2, 86688, Note_on_c, 0, 83, 0
2, 86689, Note_on_c, 0, 59, 0
2, 86700, Note_on_c, 0, 47, 0
2, 86770, Note_on_c, 0, 42, 80
2, 86772, Note_on_c, 0, 54, 80
2, 86849, Note_on_c, 0, 90, 80
2, 86863, Note_on_c, 0, 90, 0
2, 86870, Note_on_c, 0, 92, 80
2, 86880, Note_on_c, 0, 94, 80
2, 86882, Note_on_c, 0, 54, 0
2, 86884, Note_on_c, 0, 42, 0
2, 86890, Note_on_c, 0, 35, 80
2, 86890, Note_on_c, 0, 47, 80
2, 86890, Note_on_c, 0, 83, 80
2, 86890, Note_on_c, 0, 87, 80
2, 86890, Note_on_c, 0, 90, 80
2, 86890, Note_on_c, 0, 95, 80
2, 86894, Note_on_c, 0, 92, 0
2, 86901, Note_on_c, 0, 94, 0
2, 86934, Note_on_c, 0, 47, 0
2, 86934, Note_on_c, 0, 83, 0
2, 86934, Note_on_c, 0, 90, 0
2, 86943, Note_on_c, 0, 95, 0
2, 86943, Note_on_c, 0, 87, 0
2, 86943, Note_on_c, 0, 35, 0
2, 86943, End_track
3, 0, Start_track
3, 0, Title_t, "c/b Scott Joplin"
3, 0, End_track
4, 0, Start_track
4, 0, Title_t, "p/b J. Lawrence Cook"
4, 0, End_track
5, 0, Start_track
5, 0, Title_t, "QRS # 9857"
5, 0, End_track
6, 0, Start_track
6, 0, Title_t, "Scan of a player piano roll"
6, 0, End_track
7, 0, Start_track
7, 1, Copyright_t, "___________________________________________________\012\012KUNSTDERFUGE.COM LARGE CLASSICAL MIDI COLLECTION\012ONCLASSICAL BY ALESSANDRO SIMONETTO, PROPRIETOR\012___________________________________________________\012\012! Attention: this file is under copyright !\012\012(c)onclassical, (nc)smythe, 2010\012___________________________________________________\012\012NO ONE MAY REPUBLISH THIS FILE WITHOUT PERMISSION\012COMMERCIAL USES OF THIS FILE IS STRICTLY PROHIBITED\012___________________________________________________\012\012Files & contributor's list: http://kunstderfuge.com/\012Terms and conditions: http://kunstderfuge.com/notes.htm"
7, 1, End_track
0, 0, End_of_file
