0, 0, Header, 1, 3, 384
1, 0, Start_track
1, 0, Title_t, "Ole Miss Rag"
1, 0, Text_t, "/music_category: Piano_Roll\012"
1, 0, Text_t, "/title: Ole Miss Rag\012"
1, 0, Text_t, "/subtitle: \012"
1, 0, Text_t, "/roll_type: 88n\012"
1, 0, Text_t, "/roll_manufacturer: QRS\012"
1, 0, Text_t, "/roll_number: ?\012"
1, 0, Text_t, "/original roll #: ?\012"
1, 0, Text_t, "/original manufacturer: Connorized\012"
1, 0, Text_t, "/performer: Joplin, Scott\012"
1, 0, Text_t, "/composer: Joplin, Scott\012"
1, 0, Text_t, "/lyricist: \012"
1, 0, Text_t, "/copyright: 1916\012"
1, 0, Text_t, "/scanned_by:  Mick Hamer\012"
1, 0, Text_t, "/scan_system:  Ampico Vorsetzer - Disklavier\012"
1, 0, Text_t, "/date_scanned: 2005\012"
1, 0, Text_t, "/owner: Mick Hamer\012"
1, 0, Time_signature, 4, 2, 24, 8
1, 0, Key_signature, 0, "major"
1, 0, Tempo, 512821
1, 0, End_track
2, 0, Start_track
2, 0, Title_t, "Ole Miss Rag"
2, 0, Control_c, 0, 64, 0
2, 748, Note_on_c, 0, 53, 64
2, 752, Note_on_c, 0, 69, 69
2, 752, Note_on_c, 0, 77, 68
2, 752, Note_on_c, 0, 48, 65
2, 760, Note_on_c, 0, 41, 62
2, 819, Note_on_c, 0, 69, 0
2, 837, Note_on_c, 0, 77, 0
2, 841, Note_on_c, 0, 53, 0
2, 844, Note_on_c, 0, 41, 0
2, 868, Note_on_c, 0, 48, 0
2, 881, Note_on_c, 0, 69, 75
2, 977, Note_on_c, 0, 69, 0
2, 1019, Note_on_c, 0, 53, 66
2, 1019, Note_on_c, 0, 48, 66
2, 1024, Note_on_c, 0, 72, 74
2, 1031, Note_on_c, 0, 41, 62
2, 1085, Note_on_c, 0, 72, 0
2, 1088, Note_on_c, 0, 53, 0
2, 1113, Note_on_c, 0, 48, 0
2, 1113, Note_on_c, 0, 41, 0
2, 1150, Note_on_c, 0, 69, 67
2, 1150, Note_on_c, 0, 72, 69
2, 1150, Note_on_c, 0, 79, 62
2, 1283, Note_on_c, 0, 69, 0
2, 1283, Note_on_c, 0, 48, 67
2, 1283, Note_on_c, 0, 53, 67
2, 1303, Note_on_c, 0, 79, 0
2, 1303, Note_on_c, 0, 72, 0
2, 1312, Note_on_c, 0, 41, 65
2, 1381, Note_on_c, 0, 41, 0
2, 1381, Note_on_c, 0, 53, 0
2, 1406, Note_on_c, 0, 48, 0
2, 1421, Note_on_c, 0, 72, 75
2, 1509, Note_on_c, 0, 72, 0
2, 1547, Note_on_c, 0, 81, 70
2, 1547, Note_on_c, 0, 72, 65
2, 1551, Note_on_c, 0, 48, 66
2, 1551, Note_on_c, 0, 53, 65
2, 1559, Note_on_c, 0, 41, 62
2, 1596, Note_on_c, 0, 72, 0
2, 1643, Note_on_c, 0, 53, 0
2, 1669, Note_on_c, 0, 41, 0
2, 1669, Note_on_c, 0, 48, 0
2, 1685, Note_on_c, 0, 81, 0
2, 1689, Note_on_c, 0, 72, 74
2, 1824, Note_on_c, 0, 72, 0
2, 1824, Note_on_c, 0, 48, 68
2, 1824, Note_on_c, 0, 40, 63
2, 1958, Note_on_c, 0, 72, 75
2, 2086, Note_on_c, 0, 81, 73
2, 2090, Note_on_c, 0, 72, 0
2, 2224, Note_on_c, 0, 81, 0
2, 2228, Note_on_c, 0, 72, 74
2, 2268, Note_on_c, 0, 72, 0
2, 2361, Note_on_c, 0, 72, 75
2, 2400, Note_on_c, 0, 72, 0
2, 2487, Note_on_c, 0, 81, 70
2, 2497, Note_on_c, 0, 72, 72
2, 2608, Note_on_c, 0, 40, 0
2, 2632, Note_on_c, 0, 48, 0
2, 2801, Note_on_c, 0, 81, 0
2, 2824, Note_on_c, 0, 72, 0
2, 2892, Note_on_c, 0, 69, 70
2, 2892, Note_on_c, 0, 79, 67
2, 2892, Note_on_c, 0, 48, 66
2, 2892, Note_on_c, 0, 51, 62
2, 2902, Note_on_c, 0, 39, 59
2, 2959, Note_on_c, 0, 69, 0
2, 2966, Note_on_c, 0, 39, 0
2, 2983, Note_on_c, 0, 79, 0
2, 2983, Note_on_c, 0, 51, 0
2, 2989, Note_on_c, 0, 48, 0
2, 3020, Note_on_c, 0, 69, 76
2, 3155, Note_on_c, 0, 48, 67
2, 3155, Note_on_c, 0, 72, 73
2, 3155, Note_on_c, 0, 51, 62
2, 3160, Note_on_c, 0, 69, 0
2, 3160, Note_on_c, 0, 39, 61
2, 3252, Note_on_c, 0, 39, 0
2, 3274, Note_on_c, 0, 51, 0
2, 3281, Note_on_c, 0, 48, 0
2, 3291, Note_on_c, 0, 69, 69
2, 3300, Note_on_c, 0, 77, 67
2, 3313, Note_on_c, 0, 72, 0
2, 3431, Note_on_c, 0, 48, 66
2, 3431, Note_on_c, 0, 51, 62
2, 3438, Note_on_c, 0, 39, 61
2, 3504, Note_on_c, 0, 39, 0
2, 3521, Note_on_c, 0, 51, 0
2, 3526, Note_on_c, 0, 48, 0
2, 3701, Note_on_c, 0, 48, 67
2, 3701, Note_on_c, 0, 51, 63
2, 3706, Note_on_c, 0, 39, 61
2, 3767, Note_on_c, 0, 69, 0
2, 3774, Note_on_c, 0, 39, 0
2, 3790, Note_on_c, 0, 77, 0
2, 3790, Note_on_c, 0, 51, 0
2, 3819, Note_on_c, 0, 48, 0
2, 3969, Note_on_c, 0, 50, 62
2, 3974, Note_on_c, 0, 38, 62
2, 4103, Note_on_c, 0, 70, 74
2, 4175, Note_on_c, 0, 70, 0
2, 4238, Note_on_c, 0, 70, 74
2, 4238, Note_on_c, 0, 79, 67
2, 4305, Note_on_c, 0, 70, 0
2, 4368, Note_on_c, 0, 70, 72
2, 4368, Note_on_c, 0, 74, 68
2, 4371, Note_on_c, 0, 79, 0
2, 4415, Note_on_c, 0, 70, 0
2, 4501, Note_on_c, 0, 70, 68
2, 4506, Note_on_c, 0, 74, 0
2, 4506, Note_on_c, 0, 77, 68
2, 4552, Note_on_c, 0, 70, 0
2, 4570, Note_on_c, 0, 77, 0
2, 4636, Note_on_c, 0, 70, 70
2, 4636, Note_on_c, 0, 79, 68
2, 4839, Note_on_c, 0, 50, 0
2, 4844, Note_on_c, 0, 38, 0
2, 4947, Note_on_c, 0, 79, 0
2, 4950, Note_on_c, 0, 70, 0
2, 5031, Note_on_c, 0, 65, 63
2, 5042, Note_on_c, 0, 49, 64
2, 5042, Note_on_c, 0, 77, 66
2, 5042, Note_on_c, 0, 37, 63
2, 5042, Note_on_c, 0, 71, 64
2, 5146, Note_on_c, 0, 49, 0
2, 5153, Note_on_c, 0, 37, 0
2, 5303, Note_on_c, 0, 49, 66
2, 5303, Note_on_c, 0, 37, 64
2, 5341, Note_on_c, 0, 77, 0
2, 5346, Note_on_c, 0, 71, 0
2, 5346, Note_on_c, 0, 65, 0
2, 5369, Note_on_c, 0, 37, 0
2, 5390, Note_on_c, 0, 49, 0
2, 5434, Note_on_c, 0, 74, 62
2, 5434, Note_on_c, 0, 67, 60
2, 5439, Note_on_c, 0, 71, 61
2, 5439, Note_on_c, 0, 79, 60
2, 5456, Note_on_c, 0, 71, 0
2, 5518, Note_on_c, 0, 74, 0
2, 5518, Note_on_c, 0, 71, 64
2, 5564, Note_on_c, 0, 37, 64
2, 5564, Note_on_c, 0, 49, 66
2, 5603, Note_on_c, 0, 79, 0
2, 5603, Note_on_c, 0, 74, 70
2, 5652, Note_on_c, 0, 49, 0
2, 5655, Note_on_c, 0, 37, 0
2, 5696, Note_on_c, 0, 79, 70
2, 5784, Note_on_c, 0, 67, 0
2, 5834, Note_on_c, 0, 49, 67
2, 5838, Note_on_c, 0, 37, 64
2, 5878, Note_on_c, 0, 71, 0
2, 5900, Note_on_c, 0, 37, 0
2, 5919, Note_on_c, 0, 74, 0
2, 5919, Note_on_c, 0, 49, 0
2, 5983, Note_on_c, 0, 79, 0
2, 6093, Note_on_c, 0, 81, 65
2, 6098, Note_on_c, 0, 48, 66
2, 6102, Note_on_c, 0, 69, 64
2, 6110, Note_on_c, 0, 72, 68
2, 6110, Note_on_c, 0, 36, 59
2, 6164, Note_on_c, 0, 69, 0
2, 6183, Note_on_c, 0, 72, 0
2, 6183, Note_on_c, 0, 81, 0
2, 6227, Note_on_c, 0, 65, 63
2, 6227, Note_on_c, 0, 69, 70
2, 6235, Note_on_c, 0, 77, 66
2, 6293, Note_on_c, 0, 77, 0
2, 6293, Note_on_c, 0, 69, 0
2, 6298, Note_on_c, 0, 65, 0
2, 6364, Note_on_c, 0, 70, 67
2, 6364, Note_on_c, 0, 79, 64
2, 6367, Note_on_c, 0, 67, 66
2, 6452, Note_on_c, 0, 67, 0
2, 6452, Note_on_c, 0, 79, 0
2, 6459, Note_on_c, 0, 70, 0
2, 6499, Note_on_c, 0, 81, 67
2, 6504, Note_on_c, 0, 48, 0
2, 6504, Note_on_c, 0, 69, 67
2, 6509, Note_on_c, 0, 72, 69
2, 6553, Note_on_c, 0, 36, 0
2, 6562, Note_on_c, 0, 81, 0
2, 6562, Note_on_c, 0, 69, 0
2, 6562, Note_on_c, 0, 72, 0
2, 6626, Note_on_c, 0, 65, 63
2, 6631, Note_on_c, 0, 53, 65
2, 6631, Note_on_c, 0, 69, 70
2, 6636, Note_on_c, 0, 77, 66
2, 6640, Note_on_c, 0, 41, 62
2, 6675, Note_on_c, 0, 65, 0
2, 6694, Note_on_c, 0, 77, 0
2, 6694, Note_on_c, 0, 69, 0
2, 6763, Note_on_c, 0, 65, 62
2, 6768, Note_on_c, 0, 77, 66
2, 6768, Note_on_c, 0, 69, 68
2, 6988, Note_on_c, 0, 53, 0
2, 7031, Note_on_c, 0, 77, 0
2, 7031, Note_on_c, 0, 69, 0
2, 7036, Note_on_c, 0, 41, 0
2, 7058, Note_on_c, 0, 65, 0
2, 7159, Note_on_c, 0, 81, 67
2, 7166, Note_on_c, 0, 71, 65
2, 7166, Note_on_c, 0, 55, 62
2, 7166, Note_on_c, 0, 77, 67
2, 7176, Note_on_c, 0, 43, 62
2, 7234, Note_on_c, 0, 77, 0
2, 7261, Note_on_c, 0, 71, 0
2, 7274, Note_on_c, 0, 81, 0
2, 7298, Note_on_c, 0, 77, 75
2, 7325, Note_on_c, 0, 43, 0
2, 7344, Note_on_c, 0, 55, 0
2, 7386, Note_on_c, 0, 77, 0
2, 7435, Note_on_c, 0, 79, 67
2, 7435, Note_on_c, 0, 62, 67
2, 7439, Note_on_c, 0, 71, 69
2, 7442, Note_on_c, 0, 50, 62
2, 7522, Note_on_c, 0, 79, 0
2, 7552, Note_on_c, 0, 71, 0
2, 7588, Note_on_c, 0, 81, 75
2, 7595, Note_on_c, 0, 62, 0
2, 7598, Note_on_c, 0, 50, 0
2, 7679, Note_on_c, 0, 81, 0
2, 7705, Note_on_c, 0, 67, 64
2, 7708, Note_on_c, 0, 59, 65
2, 7708, Note_on_c, 0, 74, 67
2, 7712, Note_on_c, 0, 77, 66
2, 7722, Note_on_c, 0, 47, 62
2, 7795, Note_on_c, 0, 67, 0
2, 7813, Note_on_c, 0, 77, 0
2, 7820, Note_on_c, 0, 74, 0
2, 7837, Note_on_c, 0, 79, 72
2, 7879, Note_on_c, 0, 59, 0
2, 7879, Note_on_c, 0, 47, 0
2, 7923, Note_on_c, 0, 79, 0
2, 7967, Note_on_c, 0, 81, 70
2, 7973, Note_on_c, 0, 71, 69
2, 7981, Note_on_c, 0, 55, 63
2, 7988, Note_on_c, 0, 43, 62
2, 8035, Note_on_c, 0, 81, 0
2, 8064, Note_on_c, 0, 71, 0
2, 8112, Note_on_c, 0, 77, 73
2, 8129, Note_on_c, 0, 43, 0
2, 8195, Note_on_c, 0, 55, 0
2, 8215, Note_on_c, 0, 77, 0
2, 8237, Note_on_c, 0, 81, 66
2, 8237, Note_on_c, 0, 48, 66
2, 8246, Note_on_c, 0, 72, 68
2, 8246, Note_on_c, 0, 76, 66
2, 8251, Note_on_c, 0, 36, 59
2, 8303, Note_on_c, 0, 76, 0
2, 8322, Note_on_c, 0, 81, 0
2, 8342, Note_on_c, 0, 72, 0
2, 8371, Note_on_c, 0, 79, 63
2, 8371, Note_on_c, 0, 70, 68
2, 8371, Note_on_c, 0, 76, 69
2, 8503, Note_on_c, 0, 58, 65
2, 8507, Note_on_c, 0, 60, 61
2, 8507, Note_on_c, 0, 55, 58
2, 8530, Note_on_c, 0, 64, 62
2, 8563, Note_on_c, 0, 64, 0
2, 8563, Note_on_c, 0, 60, 0
2, 8563, Note_on_c, 0, 58, 0
2, 8586, Note_on_c, 0, 55, 0
2, 8634, Note_on_c, 0, 48, 0
2, 8651, Note_on_c, 0, 79, 0
2, 8654, Note_on_c, 0, 76, 0
2, 8654, Note_on_c, 0, 70, 0
2, 8661, Note_on_c, 0, 36, 0
2, 8768, Note_on_c, 0, 53, 64
2, 8768, Note_on_c, 0, 69, 66
2, 8768, Note_on_c, 0, 65, 63
2, 8771, Note_on_c, 0, 48, 65
2, 8775, Note_on_c, 0, 77, 66
2, 8775, Note_on_c, 0, 41, 61
2, 9158, Note_on_c, 0, 77, 0
2, 9162, Note_on_c, 0, 69, 0
2, 9162, Note_on_c, 0, 53, 0
2, 9165, Note_on_c, 0, 48, 0
2, 9165, Note_on_c, 0, 41, 0
2, 9165, Note_on_c, 0, 65, 0
2, 9304, Note_on_c, 0, 60, 65
2, 9304, Note_on_c, 0, 48, 67
2, 9313, Note_on_c, 0, 40, 61
2, 9369, Note_on_c, 0, 60, 0
2, 9372, Note_on_c, 0, 40, 0
2, 9416, Note_on_c, 0, 48, 0
2, 9433, Note_on_c, 0, 61, 66
2, 9440, Note_on_c, 0, 49, 66
2, 9498, Note_on_c, 0, 49, 0
2, 9498, Note_on_c, 0, 61, 0
2, 9576, Note_on_c, 0, 58, 63
2, 9576, Note_on_c, 0, 60, 62
2, 9583, Note_on_c, 0, 50, 56
2, 9583, Note_on_c, 0, 55, 58
2, 9586, Note_on_c, 0, 62, 61
2, 9640, Note_on_c, 0, 62, 0
2, 9640, Note_on_c, 0, 58, 0
2, 9640, Note_on_c, 0, 50, 0
2, 9640, Note_on_c, 0, 60, 0
2, 9683, Note_on_c, 0, 55, 0
2, 9708, Note_on_c, 0, 63, 68
2, 9713, Note_on_c, 0, 51, 63
2, 9791, Note_on_c, 0, 63, 0
2, 9839, Note_on_c, 0, 51, 0
2, 9844, Note_on_c, 0, 64, 64
2, 9847, Note_on_c, 0, 55, 63
2, 9854, Note_on_c, 0, 43, 61
2, 9904, Note_on_c, 0, 64, 0
2, 9931, Note_on_c, 0, 43, 0
2, 9949, Note_on_c, 0, 55, 0
2, 9977, Note_on_c, 0, 60, 67
2, 9980, Note_on_c, 0, 64, 64
2, 9980, Note_on_c, 0, 72, 74
2, 10041, Note_on_c, 0, 60, 0
2, 10111, Note_on_c, 0, 60, 68
2, 10116, Note_on_c, 0, 58, 65
2, 10119, Note_on_c, 0, 55, 61
2, 10174, Note_on_c, 0, 58, 0
2, 10174, Note_on_c, 0, 60, 0
2, 10194, Note_on_c, 0, 55, 0
2, 10257, Note_on_c, 0, 72, 0
2, 10260, Note_on_c, 0, 64, 0
2, 10372, Note_on_c, 0, 70, 70
2, 10378, Note_on_c, 0, 48, 63
2, 10378, Note_on_c, 0, 72, 72
2, 10378, Note_on_c, 0, 60, 64
2, 10378, Note_on_c, 0, 64, 63
2, 10396, Note_on_c, 0, 36, 58
2, 10457, Note_on_c, 0, 72, 0
2, 10466, Note_on_c, 0, 70, 0
2, 10466, Note_on_c, 0, 67, 71
2, 10471, Note_on_c, 0, 36, 0
2, 10493, Note_on_c, 0, 48, 0
2, 10517, Note_on_c, 0, 49, 64
2, 10525, Note_on_c, 0, 37, 62
2, 10541, Control_c, 0, 64, 127
2, 10576, Note_on_c, 0, 70, 73
2, 10581, Control_c, 0, 64, 0
2, 10597, Note_on_c, 0, 49, 0
2, 10600, Note_on_c, 0, 37, 0
2, 10648, Note_on_c, 0, 72, 73
2, 10651, Note_on_c, 0, 50, 60
2, 10656, Note_on_c, 0, 38, 61
2, 10729, Note_on_c, 0, 50, 0
2, 10733, Note_on_c, 0, 38, 0
2, 10780, Note_on_c, 0, 51, 63
2, 10785, Note_on_c, 0, 39, 62
2, 10843, Note_on_c, 0, 39, 0
2, 10882, Note_on_c, 0, 64, 0
2, 10882, Note_on_c, 0, 67, 0
2, 10882, Note_on_c, 0, 51, 0
2, 10913, Note_on_c, 0, 40, 66
2, 10954, Note_on_c, 0, 60, 0
2, 11001, Note_on_c, 0, 40, 0
2, 11044, Note_on_c, 0, 48, 67
2, 11047, Note_on_c, 0, 60, 67
2, 11173, Note_on_c, 0, 70, 0
2, 11284, Note_on_c, 0, 60, 0
2, 11291, Note_on_c, 0, 48, 0
2, 11323, Note_on_c, 0, 72, 0
2, 11437, Note_on_c, 0, 65, 71
2, 11440, Note_on_c, 0, 53, 66
2, 11449, Control_c, 0, 64, 127
2, 11449, Note_on_c, 0, 33, 59
2, 11485, Control_c, 0, 64, 0
2, 11527, Note_on_c, 0, 53, 0
2, 11527, Note_on_c, 0, 65, 0
2, 11576, Note_on_c, 0, 66, 72
2, 11605, Note_on_c, 0, 54, 64
2, 11639, Note_on_c, 0, 66, 0
2, 11643, Note_on_c, 0, 54, 0
2, 11711, Note_on_c, 0, 67, 71
2, 11714, Note_on_c, 0, 60, 63
2, 11714, Note_on_c, 0, 57, 60
2, 11714, Note_on_c, 0, 53, 62
2, 11718, Note_on_c, 0, 55, 59
2, 11793, Note_on_c, 0, 53, 0
2, 11793, Note_on_c, 0, 57, 0
2, 11793, Note_on_c, 0, 67, 0
2, 11796, Note_on_c, 0, 60, 0
2, 11799, Note_on_c, 0, 55, 0
2, 11840, Note_on_c, 0, 68, 73
2, 11844, Note_on_c, 0, 56, 64
2, 11867, Note_on_c, 0, 33, 0
2, 11907, Note_on_c, 0, 56, 0
2, 11907, Note_on_c, 0, 68, 0
2, 11980, Note_on_c, 0, 69, 73
2, 11985, Note_on_c, 0, 57, 66
2, 11997, Note_on_c, 0, 36, 61
2, 12021, Note_on_c, 0, 69, 0
2, 12063, Note_on_c, 0, 57, 0
2, 12111, Note_on_c, 0, 65, 63
2, 12114, Note_on_c, 0, 69, 68
2, 12119, Note_on_c, 0, 77, 66
2, 12251, Note_on_c, 0, 60, 64
2, 12251, Note_on_c, 0, 53, 63
2, 12251, Note_on_c, 0, 57, 61
2, 12308, Note_on_c, 0, 57, 0
2, 12308, Note_on_c, 0, 53, 0
2, 12336, Note_on_c, 0, 60, 0
2, 12400, Note_on_c, 0, 69, 0
2, 12400, Note_on_c, 0, 77, 0
2, 12406, Note_on_c, 0, 65, 0
2, 12409, Note_on_c, 0, 36, 0
2, 12515, Note_on_c, 0, 65, 63
2, 12521, Note_on_c, 0, 53, 67
2, 12521, Note_on_c, 0, 77, 64
2, 12532, Note_on_c, 0, 72, 69
2, 12532, Note_on_c, 0, 41, 63
2, 12557, Control_c, 0, 64, 127
2, 12581, Note_on_c, 0, 53, 0
2, 12581, Control_c, 0, 64, 0
2, 12601, Note_on_c, 0, 72, 0
2, 12605, Note_on_c, 0, 41, 0
2, 12605, Note_on_c, 0, 69, 72
2, 12637, Note_on_c, 0, 42, 62
2, 12664, Note_on_c, 0, 54, 63
2, 12668, Note_on_c, 0, 77, 0
2, 12675, Note_on_c, 0, 72, 71
2, 12716, Note_on_c, 0, 42, 0
2, 12716, Note_on_c, 0, 54, 0
2, 12791, Note_on_c, 0, 77, 70
2, 12802, Note_on_c, 0, 55, 62
2, 12808, Note_on_c, 0, 43, 62
2, 12854, Note_on_c, 0, 43, 0
2, 12874, Note_on_c, 0, 55, 0
2, 12927, Note_on_c, 0, 56, 62
2, 12934, Note_on_c, 0, 44, 62
2, 12985, Note_on_c, 0, 56, 0
2, 12990, Note_on_c, 0, 44, 0
2, 13060, Note_on_c, 0, 57, 64
2, 13070, Note_on_c, 0, 45, 62
2, 13096, Note_on_c, 0, 65, 0
2, 13114, Note_on_c, 0, 57, 0
2, 13118, Note_on_c, 0, 45, 0
2, 13184, Note_on_c, 0, 65, 69
2, 13193, Note_on_c, 0, 53, 67
2, 13435, Note_on_c, 0, 53, 0
2, 13435, Note_on_c, 0, 65, 0
2, 13476, Note_on_c, 0, 69, 0
2, 13476, Note_on_c, 0, 77, 0
2, 13476, Note_on_c, 0, 72, 0
2, 13597, Note_on_c, 0, 70, 71
2, 13597, Note_on_c, 0, 74, 71
2, 13604, Note_on_c, 0, 55, 63
2, 13610, Note_on_c, 0, 43, 62
2, 13663, Note_on_c, 0, 43, 0
2, 13663, Note_on_c, 0, 70, 0
2, 13663, Note_on_c, 0, 74, 0
2, 13686, Note_on_c, 0, 55, 0
2, 13738, Note_on_c, 0, 58, 67
2, 13747, Note_on_c, 0, 46, 62
2, 13766, Note_on_c, 0, 64, 65
2, 13820, Note_on_c, 0, 58, 0
2, 13824, Note_on_c, 0, 46, 0
2, 13849, Note_on_c, 0, 48, 67
2, 13868, Note_on_c, 0, 60, 67
2, 13926, Note_on_c, 0, 60, 0
2, 13926, Note_on_c, 0, 64, 0
2, 13974, Note_on_c, 0, 48, 0
2, 13996, Note_on_c, 0, 70, 71
2, 13996, Note_on_c, 0, 74, 70
2, 13999, Note_on_c, 0, 58, 67
2, 14003, Note_on_c, 0, 46, 66
2, 14063, Note_on_c, 0, 58, 0
2, 14083, Note_on_c, 0, 70, 0
2, 14083, Note_on_c, 0, 74, 0
2, 14110, Note_on_c, 0, 46, 0
2, 14134, Note_on_c, 0, 64, 67
2, 14138, Note_on_c, 0, 40, 63
2, 14218, Note_on_c, 0, 40, 0
2, 14262, Note_on_c, 0, 53, 67
2, 14272, Note_on_c, 0, 41, 63
2, 14322, Note_on_c, 0, 53, 0
2, 14348, Note_on_c, 0, 41, 0
2, 14348, Note_on_c, 0, 64, 0
2, 14394, Note_on_c, 0, 74, 70
2, 14394, Note_on_c, 0, 70, 71
2, 14406, Note_on_c, 0, 55, 62
2, 14406, Note_on_c, 0, 43, 63
2, 14481, Note_on_c, 0, 70, 0
2, 14481, Note_on_c, 0, 74, 0
2, 14484, Note_on_c, 0, 43, 0
2, 14503, Note_on_c, 0, 55, 0
2, 14532, Note_on_c, 0, 64, 65
2, 14532, Note_on_c, 0, 50, 60
2, 14547, Note_on_c, 0, 38, 61
2, 14641, Note_on_c, 0, 50, 0
2, 14646, Note_on_c, 0, 38, 0
2, 14670, Note_on_c, 0, 48, 66
2, 14684, Note_on_c, 0, 36, 60
2, 14696, Control_c, 0, 64, 127
2, 14742, Control_c, 0, 64, 0
2, 14747, Note_on_c, 0, 64, 0
2, 14750, Note_on_c, 0, 36, 0
2, 14750, Note_on_c, 0, 48, 0
2, 14797, Note_on_c, 0, 50, 61
2, 14797, Note_on_c, 0, 70, 70
2, 14797, Note_on_c, 0, 74, 69
2, 14807, Note_on_c, 0, 38, 61
2, 14860, Note_on_c, 0, 74, 0
2, 14860, Note_on_c, 0, 50, 0
2, 14860, Note_on_c, 0, 70, 0
2, 14865, Note_on_c, 0, 38, 0
2, 14935, Note_on_c, 0, 64, 67
2, 14938, Note_on_c, 0, 40, 63
2, 15015, Note_on_c, 0, 40, 0
2, 15066, Note_on_c, 0, 50, 62
2, 15070, Note_on_c, 0, 38, 63
2, 15126, Note_on_c, 0, 50, 0
2, 15130, Note_on_c, 0, 38, 0
2, 15193, Note_on_c, 0, 64, 0
2, 15193, Note_on_c, 0, 70, 71
2, 15193, Note_on_c, 0, 74, 71
2, 15205, Note_on_c, 0, 31, 61
2, 15205, Note_on_c, 0, 43, 63
2, 15283, Note_on_c, 0, 43, 0
2, 15283, Note_on_c, 0, 70, 0
2, 15283, Note_on_c, 0, 74, 0
2, 15288, Note_on_c, 0, 31, 0
2, 15331, Note_on_c, 0, 58, 67
2, 15331, Note_on_c, 0, 64, 66
2, 15464, Note_on_c, 0, 48, 67
2, 15488, Note_on_c, 0, 36, 60
2, 15553, Note_on_c, 0, 36, 0
2, 15553, Note_on_c, 0, 48, 0
2, 15623, Note_on_c, 0, 58, 0
2, 15644, Note_on_c, 0, 64, 0
2, 15733, Note_on_c, 0, 74, 70
2, 15733, Note_on_c, 0, 53, 64
2, 15736, Note_on_c, 0, 69, 70
2, 15750, Note_on_c, 0, 41, 63
2, 15815, Note_on_c, 0, 41, 0
2, 15815, Note_on_c, 0, 74, 0
2, 15815, Note_on_c, 0, 53, 0
2, 15815, Note_on_c, 0, 69, 0
2, 15829, Control_c, 0, 64, 127
2, 15861, Note_on_c, 0, 65, 73
2, 15875, Control_c, 0, 64, 0
2, 16008, Note_on_c, 0, 45, 63
2, 16008, Note_on_c, 0, 57, 63
2, 16085, Note_on_c, 0, 57, 0
2, 16088, Note_on_c, 0, 45, 0
2, 16088, Note_on_c, 0, 65, 0
2, 16128, Note_on_c, 0, 74, 70
2, 16135, Note_on_c, 0, 69, 70
2, 16140, Note_on_c, 0, 50, 61
2, 16145, Note_on_c, 0, 38, 62
2, 16191, Note_on_c, 0, 69, 0
2, 16196, Note_on_c, 0, 74, 0
2, 16196, Note_on_c, 0, 50, 0
2, 16200, Note_on_c, 0, 38, 0
2, 16259, Note_on_c, 0, 65, 73
2, 16265, Note_on_c, 0, 48, 67
2, 16292, Note_on_c, 0, 36, 61
2, 16376, Note_on_c, 0, 36, 0
2, 16376, Note_on_c, 0, 48, 0
2, 16403, Note_on_c, 0, 50, 64
2, 16432, Note_on_c, 0, 38, 64
2, 16490, Note_on_c, 0, 65, 0
2, 16494, Note_on_c, 0, 38, 0
2, 16494, Note_on_c, 0, 50, 0
2, 16537, Note_on_c, 0, 53, 65
2, 16537, Note_on_c, 0, 74, 71
2, 16537, Note_on_c, 0, 69, 70
2, 16552, Note_on_c, 0, 41, 63
2, 16595, Note_on_c, 0, 69, 0
2, 16595, Note_on_c, 0, 53, 0
2, 16641, Note_on_c, 0, 74, 0
2, 16641, Note_on_c, 0, 41, 0
2, 16658, Note_on_c, 0, 65, 73
2, 16667, Note_on_c, 0, 50, 64
2, 16701, Note_on_c, 0, 38, 64
2, 16752, Note_on_c, 0, 50, 0
2, 16756, Note_on_c, 0, 38, 0
2, 16802, Note_on_c, 0, 33, 61
2, 16802, Note_on_c, 0, 45, 63
2, 16824, Control_c, 0, 64, 127
2, 16863, Note_on_c, 0, 45, 0
2, 16863, Note_on_c, 0, 33, 0
2, 16863, Control_c, 0, 64, 0
2, 16882, Note_on_c, 0, 65, 0
2, 16913, Note_on_c, 0, 35, 61
2, 16928, Note_on_c, 0, 74, 70
2, 16928, Note_on_c, 0, 69, 69
2, 16942, Note_on_c, 0, 47, 61
2, 16976, Note_on_c, 0, 35, 0
2, 16992, Note_on_c, 0, 47, 0
2, 16992, Note_on_c, 0, 69, 0
2, 16995, Note_on_c, 0, 74, 0
2, 17055, Note_on_c, 0, 65, 73
2, 17062, Note_on_c, 0, 48, 67
2, 17081, Note_on_c, 0, 36, 61
2, 17149, Note_on_c, 0, 36, 0
2, 17149, Note_on_c, 0, 48, 0
2, 17197, Note_on_c, 0, 50, 62
2, 17201, Note_on_c, 0, 38, 63
2, 17278, Note_on_c, 0, 65, 0
2, 17281, Note_on_c, 0, 38, 0
2, 17281, Note_on_c, 0, 50, 0
2, 17322, Note_on_c, 0, 74, 71
2, 17322, Note_on_c, 0, 53, 66
2, 17322, Note_on_c, 0, 69, 70
2, 17333, Note_on_c, 0, 41, 63
2, 17382, Note_on_c, 0, 69, 0
2, 17410, Note_on_c, 0, 74, 0
2, 17456, Note_on_c, 0, 65, 68
2, 17459, Note_on_c, 0, 69, 71
2, 17637, Note_on_c, 0, 53, 0
2, 17637, Note_on_c, 0, 41, 0
2, 17677, Note_on_c, 0, 69, 0
2, 17704, Note_on_c, 0, 65, 0
2, 17858, Note_on_c, 0, 60, 65
2, 17858, Note_on_c, 0, 48, 64
2, 17865, Note_on_c, 0, 40, 60
2, 17881, Control_c, 0, 64, 127
2, 17922, Control_c, 0, 64, 0
2, 17927, Note_on_c, 0, 60, 0
2, 17930, Note_on_c, 0, 40, 0
2, 17953, Note_on_c, 0, 48, 0
2, 17994, Note_on_c, 0, 61, 65
2, 18002, Note_on_c, 0, 49, 63
2, 18054, Note_on_c, 0, 61, 0
2, 18057, Note_on_c, 0, 49, 0
2, 18131, Note_on_c, 0, 58, 62
2, 18131, Note_on_c, 0, 62, 62
2, 18134, Note_on_c, 0, 50, 56
2, 18134, Note_on_c, 0, 60, 61
2, 18139, Note_on_c, 0, 55, 56
2, 18213, Note_on_c, 0, 60, 0
2, 18213, Note_on_c, 0, 58, 0
2, 18225, Note_on_c, 0, 50, 0
2, 18235, Note_on_c, 0, 55, 0
2, 18241, Note_on_c, 0, 62, 0
2, 18261, Note_on_c, 0, 63, 67
2, 18266, Note_on_c, 0, 51, 62
2, 18349, Note_on_c, 0, 63, 0
2, 18374, Note_on_c, 0, 51, 0
2, 18409, Note_on_c, 0, 55, 62
2, 18415, Note_on_c, 0, 43, 60
2, 18431, Note_on_c, 0, 64, 65
2, 18482, Note_on_c, 0, 64, 0
2, 18486, Note_on_c, 0, 43, 0
2, 18505, Note_on_c, 0, 55, 0
2, 18534, Note_on_c, 0, 60, 67
2, 18537, Note_on_c, 0, 72, 74
2, 18542, Note_on_c, 0, 64, 62
2, 18595, Note_on_c, 0, 60, 0
2, 18669, Note_on_c, 0, 60, 65
2, 18669, Note_on_c, 0, 58, 64
2, 18688, Note_on_c, 0, 55, 63
2, 18731, Note_on_c, 0, 58, 0
2, 18731, Note_on_c, 0, 60, 0
2, 18753, Note_on_c, 0, 55, 0
2, 18772, Note_on_c, 0, 72, 0
2, 18777, Note_on_c, 0, 64, 0
2, 18938, Note_on_c, 0, 70, 68
2, 18938, Note_on_c, 0, 72, 70
2, 18938, Note_on_c, 0, 60, 63
2, 18938, Note_on_c, 0, 48, 62
2, 18945, Note_on_c, 0, 64, 60
2, 18956, Control_c, 0, 64, 127
2, 18956, Note_on_c, 0, 36, 56
2, 18995, Note_on_c, 0, 70, 0
2, 19000, Note_on_c, 0, 36, 0
2, 19000, Control_c, 0, 64, 0
2, 19014, Note_on_c, 0, 72, 0
2, 19021, Note_on_c, 0, 67, 70
2, 19024, Note_on_c, 0, 48, 0
2, 19059, Note_on_c, 0, 37, 62
2, 19077, Note_on_c, 0, 49, 64
2, 19110, Note_on_c, 0, 70, 74
2, 19129, Note_on_c, 0, 49, 0
2, 19129, Note_on_c, 0, 37, 0
2, 19177, Note_on_c, 0, 60, 0
2, 19208, Note_on_c, 0, 50, 61
2, 19208, Note_on_c, 0, 72, 74
2, 19213, Note_on_c, 0, 38, 62
2, 19270, Note_on_c, 0, 38, 0
2, 19270, Note_on_c, 0, 50, 0
2, 19338, Note_on_c, 0, 51, 63
2, 19349, Note_on_c, 0, 39, 61
2, 19352, Note_on_c, 0, 67, 0
2, 19422, Note_on_c, 0, 39, 0
2, 19462, Note_on_c, 0, 51, 0
2, 19462, Note_on_c, 0, 70, 0
2, 19469, Note_on_c, 0, 52, 66
2, 19498, Note_on_c, 0, 40, 63
2, 19554, Note_on_c, 0, 40, 0
2, 19554, Note_on_c, 0, 52, 0
2, 19580, Note_on_c, 0, 60, 67
2, 19608, Note_on_c, 0, 48, 67
2, 19839, Note_on_c, 0, 60, 0
2, 19864, Note_on_c, 0, 48, 0
2, 19879, Note_on_c, 0, 72, 0
2, 19882, Note_on_c, 0, 64, 0
2, 19992, Note_on_c, 0, 65, 72
2, 19999, Note_on_c, 0, 53, 66
2, 19999, Note_on_c, 0, 33, 60
2, 20006, Control_c, 0, 64, 127
2, 20042, Control_c, 0, 64, 0
2, 20059, Note_on_c, 0, 53, 0
2, 20059, Note_on_c, 0, 65, 0
2, 20123, Note_on_c, 0, 66, 72
2, 20131, Note_on_c, 0, 54, 63
2, 20190, Note_on_c, 0, 54, 0
2, 20190, Note_on_c, 0, 66, 0
2, 20259, Note_on_c, 0, 67, 71
2, 20267, Note_on_c, 0, 60, 63
2, 20267, Note_on_c, 0, 53, 63
2, 20267, Note_on_c, 0, 57, 59
2, 20272, Note_on_c, 0, 55, 58
2, 20320, Note_on_c, 0, 57, 0
2, 20320, Note_on_c, 0, 53, 0
2, 20320, Note_on_c, 0, 60, 0
2, 20320, Note_on_c, 0, 67, 0
2, 20365, Note_on_c, 0, 55, 0
2, 20386, Note_on_c, 0, 68, 73
2, 20394, Note_on_c, 0, 56, 63
2, 20454, Note_on_c, 0, 56, 0
2, 20454, Note_on_c, 0, 68, 0
2, 20504, Note_on_c, 0, 33, 0
2, 20518, Note_on_c, 0, 36, 61
2, 20518, Note_on_c, 0, 69, 73
2, 20528, Note_on_c, 0, 57, 64
2, 20587, Note_on_c, 0, 57, 0
2, 20587, Note_on_c, 0, 69, 0
2, 20652, Note_on_c, 0, 65, 63
2, 20657, Note_on_c, 0, 69, 68
2, 20664, Note_on_c, 0, 77, 66
2, 20798, Note_on_c, 0, 53, 63
2, 20798, Note_on_c, 0, 57, 61
2, 20798, Note_on_c, 0, 60, 63
2, 20851, Note_on_c, 0, 57, 0
2, 20857, Note_on_c, 0, 53, 0
2, 20857, Note_on_c, 0, 60, 0
2, 20920, Note_on_c, 0, 69, 0
2, 20941, Note_on_c, 0, 77, 0
2, 20946, Note_on_c, 0, 65, 0
2, 21044, Note_on_c, 0, 36, 0
2, 21054, Note_on_c, 0, 65, 64
2, 21063, Note_on_c, 0, 53, 65
2, 21068, Note_on_c, 0, 77, 66
2, 21068, Note_on_c, 0, 41, 62
2, 21068, Note_on_c, 0, 72, 69
2, 21104, Control_c, 0, 64, 127
2, 21152, Note_on_c, 0, 69, 71
2, 21168, Note_on_c, 0, 72, 0
2, 21171, Note_on_c, 0, 77, 0
2, 21175, Note_on_c, 0, 41, 0
2, 21175, Note_on_c, 0, 53, 0
2, 21178, Control_c, 0, 64, 0
2, 21204, Note_on_c, 0, 42, 59
2, 21204, Note_on_c, 0, 54, 61
2, 21235, Note_on_c, 0, 72, 75
2, 21285, Note_on_c, 0, 54, 0
2, 21285, Note_on_c, 0, 42, 0
2, 21328, Note_on_c, 0, 65, 0
2, 21331, Note_on_c, 0, 77, 71
2, 21336, Note_on_c, 0, 55, 67
2, 21336, Note_on_c, 0, 43, 63
2, 21417, Note_on_c, 0, 43, 0
2, 21417, Note_on_c, 0, 55, 0
2, 21465, Note_on_c, 0, 56, 62
2, 21469, Note_on_c, 0, 44, 62
2, 21551, Note_on_c, 0, 56, 0
2, 21556, Note_on_c, 0, 44, 0
2, 21575, Note_on_c, 0, 69, 0
2, 21599, Note_on_c, 0, 57, 65
2, 21606, Note_on_c, 0, 45, 62
2, 21686, Note_on_c, 0, 57, 0
2, 21689, Note_on_c, 0, 45, 0
2, 21727, Note_on_c, 0, 65, 71
2, 21727, Note_on_c, 0, 53, 68
2, 21746, Note_on_c, 0, 72, 0
2, 21997, Note_on_c, 0, 77, 0
2, 22004, Note_on_c, 0, 65, 0
2, 22004, Note_on_c, 0, 53, 0
2, 22133, Note_on_c, 0, 72, 74
2, 22133, Note_on_c, 0, 60, 65
2, 22136, Note_on_c, 0, 50, 59
2, 22142, Note_on_c, 0, 38, 60
2, 22174, Note_on_c, 0, 72, 0
2, 22174, Control_c, 0, 64, 127
2, 22179, Note_on_c, 0, 60, 0
2, 22204, Control_c, 0, 64, 0
2, 22248, Note_on_c, 0, 50, 0
2, 22248, Note_on_c, 0, 38, 0
2, 22264, Note_on_c, 0, 74, 73
2, 22269, Note_on_c, 0, 62, 67
2, 22295, Note_on_c, 0, 40, 63
2, 22314, Note_on_c, 0, 74, 0
2, 22317, Note_on_c, 0, 62, 0
2, 22362, Note_on_c, 0, 40, 0
2, 22393, Note_on_c, 0, 81, 69
2, 22398, Note_on_c, 0, 69, 70
2, 22405, Note_on_c, 0, 42, 60
2, 22405, Note_on_c, 0, 54, 62
2, 22446, Note_on_c, 0, 69, 0
2, 22465, Note_on_c, 0, 81, 0
2, 22465, Note_on_c, 0, 54, 0
2, 22470, Note_on_c, 0, 42, 0
2, 22531, Note_on_c, 0, 72, 74
2, 22531, Note_on_c, 0, 55, 62
2, 22531, Note_on_c, 0, 60, 65
2, 22543, Note_on_c, 0, 43, 60
2, 22575, Note_on_c, 0, 72, 0
2, 22582, Note_on_c, 0, 60, 0
2, 22608, Note_on_c, 0, 43, 0
2, 22648, Note_on_c, 0, 55, 0
2, 22660, Note_on_c, 0, 74, 74
2, 22665, Note_on_c, 0, 62, 66
2, 22665, Note_on_c, 0, 57, 63
2, 22668, Note_on_c, 0, 45, 61
2, 22713, Note_on_c, 0, 74, 0
2, 22718, Note_on_c, 0, 62, 0
2, 22736, Note_on_c, 0, 57, 0
2, 22762, Note_on_c, 0, 45, 0
2, 22798, Note_on_c, 0, 78, 60
2, 22798, Note_on_c, 0, 81, 63
2, 22803, Note_on_c, 0, 69, 62
2, 22806, Note_on_c, 0, 72, 64
2, 22934, Note_on_c, 0, 53, 61
2, 22934, Note_on_c, 0, 60, 60
2, 22934, Note_on_c, 0, 57, 58
2, 22939, Note_on_c, 0, 62, 61
2, 22939, Note_on_c, 0, 50, 55
2, 22958, Note_on_c, 0, 69, 0
2, 22958, Note_on_c, 0, 78, 0
2, 22980, Note_on_c, 0, 72, 0
2, 22980, Note_on_c, 0, 81, 0
2, 23001, Note_on_c, 0, 57, 0
2, 23001, Note_on_c, 0, 53, 0
2, 23001, Note_on_c, 0, 60, 0
2, 23006, Note_on_c, 0, 62, 0
2, 23006, Note_on_c, 0, 50, 0
2, 23201, Note_on_c, 0, 55, 63
2, 23206, Note_on_c, 0, 43, 63
2, 23206, Control_c, 0, 64, 127
2, 23228, Control_c, 0, 64, 0
2, 23272, Note_on_c, 0, 43, 0
2, 23290, Note_on_c, 0, 55, 0
2, 23330, Note_on_c, 0, 59, 67
2, 23330, Note_on_c, 0, 71, 70
2, 23380, Note_on_c, 0, 59, 0
2, 23384, Note_on_c, 0, 71, 0
2, 23466, Note_on_c, 0, 74, 74
2, 23466, Note_on_c, 0, 59, 63
2, 23471, Note_on_c, 0, 55, 62
2, 23471, Note_on_c, 0, 62, 65
2, 23520, Note_on_c, 0, 74, 0
2, 23539, Note_on_c, 0, 59, 0
2, 23539, Note_on_c, 0, 55, 0
2, 23546, Note_on_c, 0, 62, 0
2, 23601, Note_on_c, 0, 65, 68
2, 23601, Note_on_c, 0, 77, 70
2, 23646, Note_on_c, 0, 77, 0
2, 23654, Note_on_c, 0, 65, 0
2, 23734, Note_on_c, 0, 59, 65
2, 23734, Note_on_c, 0, 71, 71
2, 23740, Note_on_c, 0, 50, 60
2, 23746, Note_on_c, 0, 38, 60
2, 23785, Note_on_c, 0, 59, 0
2, 23790, Note_on_c, 0, 71, 0
2, 23837, Note_on_c, 0, 50, 0
2, 23837, Note_on_c, 0, 38, 0
2, 23873, Note_on_c, 0, 81, 62
2, 23877, Note_on_c, 0, 69, 61
2, 23877, Note_on_c, 0, 77, 60
2, 23882, Note_on_c, 0, 71, 60
2, 24010, Note_on_c, 0, 59, 63
2, 24010, Note_on_c, 0, 62, 65
2, 24015, Note_on_c, 0, 55, 60
2, 24051, Note_on_c, 0, 77, 0
2, 24051, Note_on_c, 0, 81, 0
2, 24051, Note_on_c, 0, 69, 0
2, 24058, Note_on_c, 0, 71, 0
2, 24092, Note_on_c, 0, 59, 0
2, 24096, Note_on_c, 0, 55, 0
2, 24099, Note_on_c, 0, 62, 0
2, 24277, Note_on_c, 0, 48, 67
2, 24287, Note_on_c, 0, 36, 60
2, 24296, Control_c, 0, 64, 127
2, 24332, Control_c, 0, 64, 0
2, 24374, Note_on_c, 0, 36, 0
2, 24396, Note_on_c, 0, 48, 0
2, 24408, Note_on_c, 0, 70, 73
2, 24408, Note_on_c, 0, 58, 68
2, 24456, Note_on_c, 0, 70, 0
2, 24460, Note_on_c, 0, 58, 0
2, 24541, Note_on_c, 0, 58, 65
2, 24541, Note_on_c, 0, 60, 67
2, 24546, Note_on_c, 0, 72, 74
2, 24586, Note_on_c, 0, 72, 0
2, 24594, Note_on_c, 0, 64, 65
2, 24610, Note_on_c, 0, 64, 0
2, 24636, Note_on_c, 0, 60, 0
2, 24636, Note_on_c, 0, 58, 0
2, 24677, Note_on_c, 0, 64, 59
2, 24681, Note_on_c, 0, 76, 73
2, 24726, Note_on_c, 0, 76, 0
2, 24726, Note_on_c, 0, 64, 0
2, 24810, Note_on_c, 0, 81, 66
2, 24814, Note_on_c, 0, 70, 67
2, 24814, Note_on_c, 0, 48, 67
2, 24822, Note_on_c, 0, 76, 67
2, 24829, Note_on_c, 0, 36, 59
2, 24857, Note_on_c, 0, 81, 0
2, 24862, Note_on_c, 0, 76, 0
2, 24862, Note_on_c, 0, 70, 0
2, 24933, Note_on_c, 0, 48, 0
2, 24933, Note_on_c, 0, 36, 0
2, 24947, Note_on_c, 0, 81, 66
2, 24954, Note_on_c, 0, 70, 67
2, 24954, Note_on_c, 0, 76, 67
2, 25085, Note_on_c, 0, 60, 64
2, 25085, Note_on_c, 0, 58, 64
2, 25092, Note_on_c, 0, 64, 62
2, 25126, Note_on_c, 0, 81, 0
2, 25131, Note_on_c, 0, 70, 0
2, 25131, Note_on_c, 0, 76, 0
2, 25152, Note_on_c, 0, 58, 0
2, 25175, Note_on_c, 0, 64, 0
2, 25178, Note_on_c, 0, 60, 0
2, 25299, Note_on_c, 0, 41, 65
2, 25311, Note_on_c, 0, 48, 67
2, 25352, Control_c, 0, 64, 127
2, 25352, Note_on_c, 0, 81, 65
2, 25358, Note_on_c, 0, 53, 66
2, 25361, Note_on_c, 0, 89, 64
2, 25365, Note_on_c, 0, 77, 63
2, 25401, Control_c, 0, 64, 0
2, 25444, Note_on_c, 0, 89, 0
2, 25463, Note_on_c, 0, 81, 0
2, 25467, Note_on_c, 0, 77, 0
2, 25491, Note_on_c, 0, 88, 70
2, 25491, Note_on_c, 0, 76, 71
2, 25574, Note_on_c, 0, 76, 0
2, 25574, Note_on_c, 0, 53, 0
2, 25574, Note_on_c, 0, 88, 0
2, 25577, Note_on_c, 0, 41, 0
2, 25619, Note_on_c, 0, 74, 70
2, 25627, Note_on_c, 0, 86, 67
2, 25648, Note_on_c, 0, 48, 0
2, 25708, Note_on_c, 0, 74, 0
2, 25727, Note_on_c, 0, 86, 0
2, 25753, Note_on_c, 0, 84, 68
2, 25760, Note_on_c, 0, 72, 72
2, 25838, Note_on_c, 0, 72, 0
2, 25838, Note_on_c, 0, 84, 0
2, 25886, Note_on_c, 0, 74, 71
2, 25892, Note_on_c, 0, 86, 68
2, 25975, Note_on_c, 0, 74, 0
2, 25988, Note_on_c, 0, 86, 0
2, 26014, Note_on_c, 0, 84, 70
2, 26020, Note_on_c, 0, 72, 73
2, 26096, Note_on_c, 0, 72, 0
2, 26096, Note_on_c, 0, 84, 0
2, 26142, Note_on_c, 0, 81, 71
2, 26147, Note_on_c, 0, 69, 70
2, 26234, Note_on_c, 0, 69, 0
2, 26253, Note_on_c, 0, 81, 0
2, 26277, Note_on_c, 0, 65, 68
2, 26286, Note_on_c, 0, 77, 69
2, 26369, Note_on_c, 0, 65, 0
2, 26386, Note_on_c, 0, 77, 0
2, 26410, Note_on_c, 0, 60, 67
2, 26410, Note_on_c, 0, 72, 74
2, 26416, Note_on_c, 0, 40, 62
2, 26431, Control_c, 0, 64, 127
2, 26478, Control_c, 0, 64, 0
2, 26500, Note_on_c, 0, 60, 0
2, 26504, Note_on_c, 0, 40, 0
2, 26514, Note_on_c, 0, 72, 0
2, 26538, Note_on_c, 0, 73, 73
2, 26543, Note_on_c, 0, 61, 67
2, 26632, Note_on_c, 0, 73, 0
2, 26654, Note_on_c, 0, 61, 0
2, 26678, Note_on_c, 0, 74, 73
2, 26682, Note_on_c, 0, 58, 64
2, 26682, Note_on_c, 0, 60, 63
2, 26687, Note_on_c, 0, 62, 63
2, 26691, Note_on_c, 0, 55, 58
2, 26748, Note_on_c, 0, 55, 0
2, 26748, Note_on_c, 0, 74, 0
2, 26748, Note_on_c, 0, 60, 0
2, 26748, Note_on_c, 0, 58, 0
2, 26772, Note_on_c, 0, 62, 0
2, 26812, Note_on_c, 0, 75, 74
2, 26812, Note_on_c, 0, 63, 69
2, 26912, Note_on_c, 0, 75, 0
2, 26917, Note_on_c, 0, 63, 0
2, 26943, Note_on_c, 0, 76, 73
2, 26943, Note_on_c, 0, 64, 63
2, 26952, Note_on_c, 0, 55, 61
2, 26959, Note_on_c, 0, 43, 60
2, 26986, Note_on_c, 0, 76, 0
2, 27031, Note_on_c, 0, 64, 0
2, 27037, Note_on_c, 0, 43, 0
2, 27056, Note_on_c, 0, 55, 0
2, 27085, Note_on_c, 0, 84, 65
2, 27089, Note_on_c, 0, 72, 69
2, 27089, Note_on_c, 0, 76, 68
2, 27218, Note_on_c, 0, 60, 64
2, 27218, Note_on_c, 0, 58, 64
2, 27222, Note_on_c, 0, 55, 61
2, 27277, Note_on_c, 0, 58, 0
2, 27281, Note_on_c, 0, 60, 0
2, 27298, Note_on_c, 0, 55, 0
2, 27317, Note_on_c, 0, 84, 0
2, 27317, Note_on_c, 0, 72, 0
2, 27327, Note_on_c, 0, 76, 0
2, 27480, Note_on_c, 0, 48, 67
2, 27483, Note_on_c, 0, 82, 61
2, 27488, Note_on_c, 0, 76, 61
2, 27492, Note_on_c, 0, 84, 61
2, 27495, Note_on_c, 0, 72, 63
2, 27495, Note_on_c, 0, 36, 59
2, 27499, Control_c, 0, 64, 127
2, 27546, Note_on_c, 0, 82, 0
2, 27551, Note_on_c, 0, 36, 0
2, 27573, Note_on_c, 0, 48, 0
2, 27573, Note_on_c, 0, 79, 68
2, 27592, Control_c, 0, 64, 0
2, 27643, Note_on_c, 0, 49, 68
2, 27648, Note_on_c, 0, 37, 65
2, 27655, Note_on_c, 0, 84, 0
2, 27665, Note_on_c, 0, 82, 74
2, 27681, Note_on_c, 0, 37, 0
2, 27701, Note_on_c, 0, 49, 0
2, 27748, Note_on_c, 0, 84, 72
2, 27753, Note_on_c, 0, 50, 63
2, 27764, Note_on_c, 0, 38, 61
2, 27814, Note_on_c, 0, 38, 0
2, 27814, Note_on_c, 0, 50, 0
2, 27887, Note_on_c, 0, 51, 63
2, 27892, Note_on_c, 0, 39, 61
2, 27970, Note_on_c, 0, 39, 0
2, 27989, Note_on_c, 0, 51, 0
2, 28024, Note_on_c, 0, 40, 64
2, 28105, Note_on_c, 0, 40, 0
2, 28154, Note_on_c, 0, 60, 65
2, 28157, Note_on_c, 0, 48, 66
2, 28388, Note_on_c, 0, 48, 0
2, 28388, Note_on_c, 0, 60, 0
2, 28429, Note_on_c, 0, 84, 0
2, 28429, Note_on_c, 0, 82, 0
2, 28433, Note_on_c, 0, 79, 0
2, 28433, Note_on_c, 0, 76, 0
2, 28519, Note_on_c, 0, 72, 0
2, 28545, Note_on_c, 0, 65, 67
2, 28552, Note_on_c, 0, 33, 62
2, 28552, Note_on_c, 0, 77, 67
2, 28556, Control_c, 0, 64, 127
2, 28597, Control_c, 0, 64, 0
2, 28635, Note_on_c, 0, 77, 0
2, 28635, Note_on_c, 0, 65, 0
2, 28682, Note_on_c, 0, 66, 69
2, 28682, Note_on_c, 0, 78, 67
2, 28745, Note_on_c, 0, 66, 0
2, 28750, Note_on_c, 0, 78, 0
2, 28807, Note_on_c, 0, 53, 64
2, 28807, Note_on_c, 0, 67, 67
2, 28811, Note_on_c, 0, 79, 67
2, 28811, Note_on_c, 0, 57, 62
2, 28814, Note_on_c, 0, 60, 63
2, 28869, Note_on_c, 0, 57, 0
2, 28869, Note_on_c, 0, 79, 0
2, 28869, Note_on_c, 0, 67, 0
2, 28873, Note_on_c, 0, 53, 0
2, 28873, Note_on_c, 0, 60, 0
2, 28942, Note_on_c, 0, 68, 70
2, 28942, Note_on_c, 0, 80, 68
2, 28991, Note_on_c, 0, 33, 0
2, 29008, Note_on_c, 0, 80, 0
2, 29031, Note_on_c, 0, 68, 0
2, 29069, Note_on_c, 0, 36, 62
2, 29076, Note_on_c, 0, 81, 70
2, 29079, Note_on_c, 0, 69, 70
2, 29138, Note_on_c, 0, 69, 0
2, 29159, Note_on_c, 0, 81, 0
2, 29204, Note_on_c, 0, 81, 62
2, 29208, Note_on_c, 0, 89, 68
2, 29208, Note_on_c, 0, 77, 67
2, 29338, Note_on_c, 0, 53, 63
2, 29345, Note_on_c, 0, 60, 64
2, 29348, Note_on_c, 0, 57, 60
2, 29400, Note_on_c, 0, 57, 0
2, 29400, Note_on_c, 0, 53, 0
2, 29404, Note_on_c, 0, 60, 0
2, 29490, Note_on_c, 0, 81, 0
2, 29490, Note_on_c, 0, 77, 0
2, 29494, Note_on_c, 0, 89, 0
2, 29501, Note_on_c, 0, 36, 0
2, 29605, Note_on_c, 0, 89, 67
2, 29605, Note_on_c, 0, 53, 65
2, 29608, Note_on_c, 0, 84, 66
2, 29608, Note_on_c, 0, 77, 65
2, 29621, Note_on_c, 0, 41, 63
2, 29629, Control_c, 0, 64, 127
2, 29674, Control_c, 0, 64, 0
2, 29688, Note_on_c, 0, 84, 0
2, 29692, Note_on_c, 0, 53, 0
2, 29692, Note_on_c, 0, 81, 72
2, 29695, Note_on_c, 0, 41, 0
2, 29746, Note_on_c, 0, 54, 63
2, 29749, Note_on_c, 0, 42, 60
2, 29782, Note_on_c, 0, 89, 0
2, 29786, Note_on_c, 0, 84, 73
2, 29805, Note_on_c, 0, 54, 0
2, 29805, Note_on_c, 0, 42, 0
2, 29876, Note_on_c, 0, 89, 72
2, 29879, Note_on_c, 0, 55, 63
2, 29890, Note_on_c, 0, 43, 61
2, 29963, Note_on_c, 0, 43, 0
2, 29982, Note_on_c, 0, 55, 0
2, 30015, Note_on_c, 0, 56, 62
2, 30020, Note_on_c, 0, 44, 62
2, 30063, Note_on_c, 0, 56, 0
2, 30070, Note_on_c, 0, 44, 0
2, 30145, Note_on_c, 0, 57, 64
2, 30145, Note_on_c, 0, 45, 63
2, 30221, Note_on_c, 0, 57, 0
2, 30225, Note_on_c, 0, 45, 0
2, 30265, Note_on_c, 0, 65, 69
2, 30270, Note_on_c, 0, 53, 67
2, 30492, Note_on_c, 0, 53, 0
2, 30518, Note_on_c, 0, 65, 0
2, 30534, Note_on_c, 0, 81, 0
2, 30534, Note_on_c, 0, 84, 0
2, 30534, Note_on_c, 0, 77, 0
2, 30537, Note_on_c, 0, 89, 0
2, 30675, Note_on_c, 0, 82, 67
2, 30675, Note_on_c, 0, 98, 68
2, 30678, Note_on_c, 0, 55, 63
2, 30682, Note_on_c, 0, 86, 62
2, 30685, Note_on_c, 0, 43, 62
2, 30690, Control_c, 0, 64, 127
2, 30727, Control_c, 0, 64, 0
2, 30755, Note_on_c, 0, 86, 0
2, 30758, Note_on_c, 0, 55, 0
2, 30758, Note_on_c, 0, 82, 0
2, 30762, Note_on_c, 0, 43, 0
2, 30784, Note_on_c, 0, 98, 0
2, 30810, Note_on_c, 0, 88, 69
2, 30810, Note_on_c, 0, 57, 64
2, 30814, Note_on_c, 0, 76, 70
2, 30814, Note_on_c, 0, 45, 62
2, 30873, Note_on_c, 0, 45, 0
2, 30873, Note_on_c, 0, 57, 0
2, 30948, Note_on_c, 0, 48, 67
2, 30948, Note_on_c, 0, 60, 66
2, 31031, Note_on_c, 0, 60, 0
2, 31031, Note_on_c, 0, 88, 0
2, 31031, Note_on_c, 0, 76, 0
2, 31031, Note_on_c, 0, 48, 0
2, 31078, Note_on_c, 0, 82, 67
2, 31078, Note_on_c, 0, 98, 70
2, 31083, Note_on_c, 0, 55, 63
2, 31083, Note_on_c, 0, 86, 64
2, 31087, Note_on_c, 0, 43, 63
2, 31156, Note_on_c, 0, 86, 0
2, 31160, Note_on_c, 0, 82, 0
2, 31160, Note_on_c, 0, 43, 0
2, 31184, Note_on_c, 0, 55, 0
2, 31184, Note_on_c, 0, 98, 0
2, 31207, Note_on_c, 0, 88, 70
2, 31207, Note_on_c, 0, 40, 64
2, 31214, Note_on_c, 0, 76, 71
2, 31300, Note_on_c, 0, 40, 0
2, 31346, Note_on_c, 0, 53, 66
2, 31360, Note_on_c, 0, 41, 63
2, 31408, Note_on_c, 0, 41, 0
2, 31408, Note_on_c, 0, 53, 0
2, 31408, Note_on_c, 0, 88, 0
2, 31478, Note_on_c, 0, 76, 0
2, 31478, Note_on_c, 0, 98, 68
2, 31478, Note_on_c, 0, 82, 67
2, 31487, Note_on_c, 0, 86, 63
2, 31487, Note_on_c, 0, 55, 63
2, 31490, Note_on_c, 0, 43, 63
2, 31565, Note_on_c, 0, 43, 0
2, 31584, Note_on_c, 0, 82, 0
2, 31584, Note_on_c, 0, 98, 0
2, 31584, Note_on_c, 0, 55, 0
2, 31605, Note_on_c, 0, 86, 0
2, 31610, Note_on_c, 0, 88, 70
2, 31613, Note_on_c, 0, 50, 61
2, 31613, Note_on_c, 0, 76, 71
2, 31620, Note_on_c, 0, 38, 62
2, 31702, Note_on_c, 0, 38, 0
2, 31707, Note_on_c, 0, 50, 0
2, 31747, Note_on_c, 0, 48, 66
2, 31756, Note_on_c, 0, 36, 59
2, 31770, Control_c, 0, 64, 127
2, 31822, Control_c, 0, 64, 0
2, 31831, Note_on_c, 0, 88, 0
2, 31854, Note_on_c, 0, 76, 0
2, 31857, Note_on_c, 0, 48, 0
2, 31857, Note_on_c, 0, 36, 0
2, 31876, Note_on_c, 0, 98, 69
2, 31876, Note_on_c, 0, 82, 68
2, 31880, Note_on_c, 0, 50, 61
2, 31880, Note_on_c, 0, 86, 63
2, 31883, Note_on_c, 0, 38, 62
2, 31956, Note_on_c, 0, 86, 0
2, 31960, Note_on_c, 0, 82, 0
2, 31960, Note_on_c, 0, 98, 0
2, 31963, Note_on_c, 0, 50, 0
2, 31967, Note_on_c, 0, 38, 0
2, 32005, Note_on_c, 0, 88, 72
2, 32005, Note_on_c, 0, 40, 64
2, 32005, Note_on_c, 0, 76, 71
2, 32075, Note_on_c, 0, 40, 0
2, 32224, Note_on_c, 0, 76, 0
2, 32224, Note_on_c, 0, 88, 0
2, 32262, Note_on_c, 0, 98, 70
2, 32268, Note_on_c, 0, 82, 68
2, 32271, Note_on_c, 0, 86, 63
2, 32271, Note_on_c, 0, 31, 61
2, 32276, Note_on_c, 0, 43, 63
2, 32336, Note_on_c, 0, 82, 0
2, 32336, Note_on_c, 0, 98, 0
2, 32339, Note_on_c, 0, 43, 0
2, 32343, Note_on_c, 0, 31, 0
2, 32376, Note_on_c, 0, 86, 0
2, 32398, Note_on_c, 0, 88, 67
2, 32398, Note_on_c, 0, 70, 67
2, 32405, Note_on_c, 0, 76, 68
2, 32536, Note_on_c, 0, 48, 67
2, 32546, Note_on_c, 0, 36, 61
2, 32609, Note_on_c, 0, 36, 0
2, 32630, Note_on_c, 0, 48, 0
2, 32717, Note_on_c, 0, 88, 0
2, 32717, Note_on_c, 0, 70, 0
2, 32720, Note_on_c, 0, 76, 0
2, 32800, Note_on_c, 0, 81, 67
2, 32800, Note_on_c, 0, 98, 70
2, 32800, Note_on_c, 0, 53, 66
2, 32811, Note_on_c, 0, 86, 63
2, 32814, Note_on_c, 0, 41, 63
2, 32814, Control_c, 0, 64, 127
2, 32870, Note_on_c, 0, 86, 0
2, 32870, Note_on_c, 0, 53, 0
2, 32879, Note_on_c, 0, 41, 0
2, 32893, Note_on_c, 0, 81, 0
2, 32898, Note_on_c, 0, 98, 0
2, 32898, Control_c, 0, 64, 0
2, 32942, Note_on_c, 0, 89, 70
2, 32942, Note_on_c, 0, 77, 68
2, 33072, Note_on_c, 0, 57, 64
2, 33077, Note_on_c, 0, 45, 63
2, 33138, Note_on_c, 0, 57, 0
2, 33138, Note_on_c, 0, 77, 0
2, 33144, Note_on_c, 0, 45, 0
2, 33163, Note_on_c, 0, 89, 0
2, 33203, Note_on_c, 0, 81, 67
2, 33203, Note_on_c, 0, 98, 70
2, 33212, Note_on_c, 0, 50, 62
2, 33212, Note_on_c, 0, 86, 65
2, 33212, Note_on_c, 0, 38, 63
2, 33295, Note_on_c, 0, 86, 0
2, 33299, Note_on_c, 0, 50, 0
2, 33299, Note_on_c, 0, 98, 0
2, 33302, Note_on_c, 0, 38, 0
2, 33318, Note_on_c, 0, 81, 0
2, 33342, Note_on_c, 0, 77, 69
2, 33342, Note_on_c, 0, 89, 71
2, 33342, Note_on_c, 0, 48, 67
2, 33354, Note_on_c, 0, 36, 60
2, 33438, Note_on_c, 0, 36, 0
2, 33459, Note_on_c, 0, 48, 0
2, 33482, Note_on_c, 0, 50, 62
2, 33482, Note_on_c, 0, 38, 63
2, 33544, Note_on_c, 0, 50, 0
2, 33548, Note_on_c, 0, 38, 0
2, 33564, Note_on_c, 0, 77, 0
2, 33567, Note_on_c, 0, 89, 0
2, 33609, Note_on_c, 0, 81, 69
2, 33609, Note_on_c, 0, 98, 71
2, 33609, Note_on_c, 0, 53, 67
2, 33614, Note_on_c, 0, 86, 65
2, 33621, Note_on_c, 0, 41, 63
2, 33679, Note_on_c, 0, 86, 0
2, 33679, Note_on_c, 0, 53, 0
2, 33684, Note_on_c, 0, 41, 0
2, 33684, Note_on_c, 0, 98, 0
2, 33703, Note_on_c, 0, 81, 0
2, 33750, Note_on_c, 0, 89, 72
2, 33750, Note_on_c, 0, 50, 62
2, 33754, Note_on_c, 0, 38, 63
2, 33754, Note_on_c, 0, 77, 69
2, 33820, Note_on_c, 0, 38, 0
2, 33820, Note_on_c, 0, 50, 0
2, 33883, Note_on_c, 0, 33, 61
2, 33883, Note_on_c, 0, 45, 63
2, 33895, Control_c, 0, 64, 127
2, 33970, Note_on_c, 0, 45, 0
2, 33970, Note_on_c, 0, 89, 0
2, 33973, Note_on_c, 0, 33, 0
2, 33973, Control_c, 0, 64, 0
2, 34008, Note_on_c, 0, 81, 66
2, 34008, Note_on_c, 0, 98, 68
2, 34013, Note_on_c, 0, 77, 0
2, 34017, Note_on_c, 0, 35, 60
2, 34017, Note_on_c, 0, 47, 62
2, 34024, Note_on_c, 0, 86, 63
2, 34081, Note_on_c, 0, 86, 0
2, 34081, Note_on_c, 0, 47, 0
2, 34085, Note_on_c, 0, 35, 0
2, 34085, Note_on_c, 0, 98, 0
2, 34104, Note_on_c, 0, 81, 0
2, 34151, Note_on_c, 0, 89, 70
2, 34151, Note_on_c, 0, 48, 68
2, 34151, Note_on_c, 0, 77, 69
2, 34160, Note_on_c, 0, 36, 59
2, 34223, Note_on_c, 0, 36, 0
2, 34223, Note_on_c, 0, 48, 0
2, 34284, Note_on_c, 0, 50, 63
2, 34289, Note_on_c, 0, 38, 63
2, 34347, Note_on_c, 0, 77, 0
2, 34347, Note_on_c, 0, 89, 0
2, 34352, Note_on_c, 0, 50, 0
2, 34352, Note_on_c, 0, 38, 0
2, 34409, Note_on_c, 0, 81, 70
2, 34413, Note_on_c, 0, 53, 66
2, 34416, Note_on_c, 0, 86, 67
2, 34422, Note_on_c, 0, 41, 63
2, 34437, Note_on_c, 0, 98, 76
2, 34524, Note_on_c, 0, 86, 0
2, 34530, Note_on_c, 0, 98, 0
2, 34551, Note_on_c, 0, 93, 73
2, 34551, Note_on_c, 0, 77, 70
2, 34793, Note_on_c, 0, 53, 0
2, 34797, Note_on_c, 0, 41, 0
2, 34837, Note_on_c, 0, 77, 0
2, 34840, Note_on_c, 0, 93, 0
2, 34858, Note_on_c, 0, 81, 0
2, 34950, Note_on_c, 0, 60, 66
2, 34950, Note_on_c, 0, 72, 74
2, 34957, Note_on_c, 0, 40, 62
2, 34969, Control_c, 0, 64, 127
2, 35011, Control_c, 0, 64, 0
2, 35034, Note_on_c, 0, 72, 0
2, 35039, Note_on_c, 0, 40, 0
2, 35039, Note_on_c, 0, 60, 0
2, 35074, Note_on_c, 0, 73, 73
2, 35078, Note_on_c, 0, 61, 66
2, 35144, Note_on_c, 0, 61, 0
2, 35144, Note_on_c, 0, 73, 0
2, 35212, Note_on_c, 0, 74, 73
2, 35212, Note_on_c, 0, 58, 64
2, 35217, Note_on_c, 0, 60, 63
2, 35221, Note_on_c, 0, 62, 63
2, 35221, Note_on_c, 0, 55, 58
2, 35299, Note_on_c, 0, 55, 0
2, 35299, Note_on_c, 0, 60, 0
2, 35303, Note_on_c, 0, 74, 0
2, 35303, Note_on_c, 0, 58, 0
2, 35303, Note_on_c, 0, 62, 0
2, 35341, Note_on_c, 0, 63, 68
2, 35341, Note_on_c, 0, 75, 74
2, 35408, Note_on_c, 0, 75, 0
2, 35408, Note_on_c, 0, 63, 0
2, 35481, Note_on_c, 0, 76, 73
2, 35484, Note_on_c, 0, 55, 61
2, 35491, Note_on_c, 0, 43, 61
2, 35507, Note_on_c, 0, 64, 63
2, 35547, Note_on_c, 0, 76, 0
2, 35568, Note_on_c, 0, 55, 0
2, 35568, Note_on_c, 0, 64, 0
2, 35574, Note_on_c, 0, 43, 0
2, 35617, Note_on_c, 0, 76, 68
2, 35621, Note_on_c, 0, 84, 66
2, 35621, Note_on_c, 0, 72, 69
2, 35750, Note_on_c, 0, 58, 66
2, 35750, Note_on_c, 0, 60, 65
2, 35757, Note_on_c, 0, 55, 61
2, 35816, Note_on_c, 0, 58, 0
2, 35837, Note_on_c, 0, 60, 0
2, 35837, Note_on_c, 0, 55, 0
2, 35898, Note_on_c, 0, 84, 0
2, 35921, Note_on_c, 0, 72, 0
2, 35928, Note_on_c, 0, 76, 0
2, 36016, Note_on_c, 0, 48, 67
2, 36019, Note_on_c, 0, 82, 63
2, 36019, Note_on_c, 0, 84, 61
2, 36022, Note_on_c, 0, 76, 61
2, 36026, Note_on_c, 0, 72, 64
2, 36026, Note_on_c, 0, 36, 59
2, 36029, Control_c, 0, 64, 127
2, 36082, Note_on_c, 0, 82, 0
2, 36105, Note_on_c, 0, 79, 68
2, 36108, Note_on_c, 0, 48, 0
2, 36108, Note_on_c, 0, 36, 0
2, 36126, Control_c, 0, 64, 0
2, 36133, Note_on_c, 0, 37, 63
2, 36152, Note_on_c, 0, 49, 67
2, 36166, Note_on_c, 0, 84, 0
2, 36189, Note_on_c, 0, 82, 75
2, 36237, Note_on_c, 0, 49, 0
2, 36243, Note_on_c, 0, 37, 0
2, 36281, Note_on_c, 0, 84, 73
2, 36285, Note_on_c, 0, 38, 65
2, 36285, Note_on_c, 0, 50, 66
2, 36372, Note_on_c, 0, 38, 0
2, 36393, Note_on_c, 0, 50, 0
2, 36412, Note_on_c, 0, 51, 63
2, 36421, Note_on_c, 0, 39, 61
2, 36507, Note_on_c, 0, 39, 0
2, 36526, Note_on_c, 0, 51, 0
2, 36556, Note_on_c, 0, 40, 64
2, 36620, Note_on_c, 0, 40, 0
2, 36683, Note_on_c, 0, 48, 67
2, 36690, Note_on_c, 0, 60, 65
2, 36884, Note_on_c, 0, 60, 0
2, 36884, Note_on_c, 0, 48, 0
2, 36993, Note_on_c, 0, 84, 0
2, 36993, Note_on_c, 0, 79, 0
2, 36993, Note_on_c, 0, 82, 0
2, 37001, Note_on_c, 0, 76, 0
2, 37038, Note_on_c, 0, 72, 0
2, 37077, Control_c, 0, 64, 127
2, 37077, Note_on_c, 0, 65, 66
2, 37089, Note_on_c, 0, 33, 61
2, 37089, Note_on_c, 0, 77, 67
2, 37147, Note_on_c, 0, 77, 0
2, 37173, Note_on_c, 0, 65, 0
2, 37211, Note_on_c, 0, 78, 67
2, 37217, Note_on_c, 0, 66, 70
2, 37264, Control_c, 0, 64, 0
2, 37285, Note_on_c, 0, 66, 0
2, 37288, Note_on_c, 0, 78, 0
2, 37348, Note_on_c, 0, 79, 68
2, 37351, Note_on_c, 0, 67, 70
2, 37351, Note_on_c, 0, 53, 67
2, 37351, Note_on_c, 0, 57, 67
2, 37351, Note_on_c, 0, 60, 68
2, 37416, Note_on_c, 0, 67, 0
2, 37416, Note_on_c, 0, 79, 0
2, 37420, Note_on_c, 0, 53, 0
2, 37420, Note_on_c, 0, 57, 0
2, 37420, Note_on_c, 0, 60, 0
2, 37483, Note_on_c, 0, 68, 69
2, 37483, Note_on_c, 0, 80, 67
2, 37511, Note_on_c, 0, 33, 0
2, 37549, Note_on_c, 0, 80, 0
2, 37549, Note_on_c, 0, 68, 0
2, 37614, Note_on_c, 0, 81, 70
2, 37614, Note_on_c, 0, 69, 68
2, 37624, Note_on_c, 0, 36, 62
2, 37684, Note_on_c, 0, 69, 0
2, 37705, Note_on_c, 0, 81, 0
2, 37747, Note_on_c, 0, 81, 59
2, 37752, Note_on_c, 0, 77, 65
2, 37752, Note_on_c, 0, 89, 67
2, 37880, Note_on_c, 0, 53, 63
2, 37880, Note_on_c, 0, 57, 61
2, 37883, Note_on_c, 0, 60, 63
2, 37943, Note_on_c, 0, 60, 0
2, 37943, Note_on_c, 0, 53, 0
2, 37943, Note_on_c, 0, 57, 0
2, 37985, Note_on_c, 0, 77, 0
2, 37985, Note_on_c, 0, 81, 0
2, 37988, Note_on_c, 0, 89, 0
2, 37995, Note_on_c, 0, 36, 0
2, 38139, Note_on_c, 0, 53, 65
2, 38142, Note_on_c, 0, 89, 66
2, 38142, Note_on_c, 0, 84, 63
2, 38149, Note_on_c, 0, 77, 63
2, 38149, Note_on_c, 0, 41, 62
2, 38164, Control_c, 0, 64, 127
2, 38206, Control_c, 0, 64, 0
2, 38223, Note_on_c, 0, 84, 0
2, 38223, Note_on_c, 0, 81, 70
2, 38227, Note_on_c, 0, 53, 0
2, 38230, Note_on_c, 0, 41, 0
2, 38274, Note_on_c, 0, 42, 60
2, 38277, Note_on_c, 0, 54, 63
2, 38314, Note_on_c, 0, 84, 70
2, 38318, Note_on_c, 0, 89, 0
2, 38361, Note_on_c, 0, 54, 0
2, 38361, Note_on_c, 0, 42, 0
2, 38407, Note_on_c, 0, 89, 70
2, 38412, Note_on_c, 0, 55, 62
2, 38412, Note_on_c, 0, 43, 62
2, 38475, Note_on_c, 0, 43, 0
2, 38475, Note_on_c, 0, 55, 0
2, 38545, Note_on_c, 0, 56, 62
2, 38552, Note_on_c, 0, 44, 62
2, 38612, Note_on_c, 0, 44, 0
2, 38629, Note_on_c, 0, 56, 0
2, 38680, Note_on_c, 0, 57, 63
2, 38684, Note_on_c, 0, 45, 62
2, 38742, Note_on_c, 0, 45, 0
2, 38742, Note_on_c, 0, 57, 0
2, 38813, Note_on_c, 0, 65, 68
2, 38813, Note_on_c, 0, 53, 67
2, 39050, Note_on_c, 0, 77, 0
2, 39050, Note_on_c, 0, 84, 0
2, 39053, Note_on_c, 0, 89, 0
2, 39074, Note_on_c, 0, 81, 0
2, 39099, Note_on_c, 0, 53, 0
2, 39099, Note_on_c, 0, 65, 0
2, 39215, Note_on_c, 0, 84, 69
2, 39218, Note_on_c, 0, 50, 61
2, 39218, Note_on_c, 0, 72, 70
2, 39225, Note_on_c, 0, 38, 61
2, 39236, Control_c, 0, 64, 127
2, 39255, Note_on_c, 0, 72, 0
2, 39255, Note_on_c, 0, 84, 0
2, 39306, Note_on_c, 0, 50, 0
2, 39306, Control_c, 0, 64, 0
2, 39309, Note_on_c, 0, 38, 0
2, 39353, Note_on_c, 0, 74, 69
2, 39358, Note_on_c, 0, 86, 66
2, 39418, Note_on_c, 0, 74, 0
2, 39432, Note_on_c, 0, 86, 0
2, 39476, Note_on_c, 0, 81, 69
2, 39485, Note_on_c, 0, 93, 72
2, 39492, Note_on_c, 0, 54, 62
2, 39492, Note_on_c, 0, 42, 59
2, 39527, Note_on_c, 0, 93, 0
2, 39544, Note_on_c, 0, 81, 0
2, 39544, Note_on_c, 0, 54, 0
2, 39544, Note_on_c, 0, 42, 0
2, 39620, Note_on_c, 0, 84, 69
2, 39623, Note_on_c, 0, 72, 71
2, 39679, Note_on_c, 0, 72, 0
2, 39679, Note_on_c, 0, 84, 0
2, 39749, Note_on_c, 0, 74, 69
2, 39753, Note_on_c, 0, 57, 64
2, 39762, Note_on_c, 0, 45, 62
2, 39767, Note_on_c, 0, 86, 68
2, 39795, Note_on_c, 0, 74, 0
2, 39811, Note_on_c, 0, 57, 0
2, 39811, Note_on_c, 0, 86, 0
2, 39818, Note_on_c, 0, 45, 0
2, 39885, Note_on_c, 0, 81, 63
2, 39888, Note_on_c, 0, 93, 67
2, 39888, Note_on_c, 0, 90, 67
2, 39892, Note_on_c, 0, 84, 62
2, 40020, Note_on_c, 0, 57, 58
2, 40020, Note_on_c, 0, 62, 61
2, 40023, Note_on_c, 0, 50, 55
2, 40023, Note_on_c, 0, 54, 57
2, 40027, Note_on_c, 0, 60, 59
2, 40030, Note_on_c, 0, 90, 0
2, 40055, Note_on_c, 0, 84, 0
2, 40055, Note_on_c, 0, 81, 0
2, 40062, Note_on_c, 0, 93, 0
2, 40079, Note_on_c, 0, 60, 0
2, 40079, Note_on_c, 0, 57, 0
2, 40085, Note_on_c, 0, 54, 0
2, 40092, Note_on_c, 0, 50, 0
2, 40111, Note_on_c, 0, 62, 0
2, 40290, Note_on_c, 0, 55, 63
2, 40293, Note_on_c, 0, 43, 63
2, 40309, Control_c, 0, 64, 127
2, 40351, Note_on_c, 0, 43, 0
2, 40351, Control_c, 0, 64, 0
2, 40395, Note_on_c, 0, 55, 0
2, 40423, Note_on_c, 0, 71, 66
2, 40423, Note_on_c, 0, 83, 67
2, 40464, Note_on_c, 0, 71, 0
2, 40479, Note_on_c, 0, 83, 0
2, 40551, Note_on_c, 0, 74, 68
2, 40551, Note_on_c, 0, 59, 63
2, 40557, Note_on_c, 0, 62, 65
2, 40560, Note_on_c, 0, 86, 67
2, 40564, Note_on_c, 0, 55, 61
2, 40586, Note_on_c, 0, 86, 0
2, 40597, Note_on_c, 0, 74, 0
2, 40636, Note_on_c, 0, 59, 0
2, 40641, Note_on_c, 0, 62, 0
2, 40660, Note_on_c, 0, 55, 0
2, 40685, Note_on_c, 0, 89, 70
2, 40685, Note_on_c, 0, 77, 67
2, 40725, Note_on_c, 0, 77, 0
2, 40730, Note_on_c, 0, 89, 0
2, 40823, Note_on_c, 0, 50, 61
2, 40823, Note_on_c, 0, 83, 69
2, 40823, Note_on_c, 0, 71, 67
2, 40830, Note_on_c, 0, 38, 62
2, 40864, Note_on_c, 0, 71, 0
2, 40874, Note_on_c, 0, 83, 0
2, 40902, Note_on_c, 0, 50, 0
2, 40906, Note_on_c, 0, 38, 0
2, 40943, Note_on_c, 0, 81, 62
2, 40950, Note_on_c, 0, 83, 61
2, 40950, Note_on_c, 0, 93, 67
2, 40950, Note_on_c, 0, 89, 62
2, 41082, Note_on_c, 0, 59, 62
2, 41082, Note_on_c, 0, 62, 64
2, 41085, Note_on_c, 0, 55, 60
2, 41090, Note_on_c, 0, 81, 0
2, 41094, Note_on_c, 0, 89, 0
2, 41097, Note_on_c, 0, 93, 0
2, 41113, Note_on_c, 0, 83, 0
2, 41136, Note_on_c, 0, 59, 0
2, 41143, Note_on_c, 0, 62, 0
2, 41208, Note_on_c, 0, 55, 0
2, 41352, Note_on_c, 0, 48, 67
2, 41364, Note_on_c, 0, 36, 59
2, 41368, Control_c, 0, 64, 127
2, 41415, Control_c, 0, 64, 0
2, 41440, Note_on_c, 0, 36, 0
2, 41459, Note_on_c, 0, 48, 0
2, 41484, Note_on_c, 0, 82, 69
2, 41484, Note_on_c, 0, 70, 67
2, 41517, Note_on_c, 0, 82, 0
2, 41522, Note_on_c, 0, 70, 0
2, 41614, Note_on_c, 0, 58, 66
2, 41617, Note_on_c, 0, 60, 64
2, 41617, Note_on_c, 0, 84, 68
2, 41621, Note_on_c, 0, 72, 70
2, 41645, Note_on_c, 0, 64, 63
2, 41653, Note_on_c, 0, 72, 0
2, 41658, Note_on_c, 0, 84, 0
2, 41679, Note_on_c, 0, 64, 0
2, 41682, Note_on_c, 0, 60, 0
2, 41682, Note_on_c, 0, 58, 0
2, 41747, Note_on_c, 0, 88, 70
2, 41753, Note_on_c, 0, 76, 70
2, 41790, Note_on_c, 0, 76, 0
2, 41790, Note_on_c, 0, 88, 0
2, 41876, Note_on_c, 0, 93, 70
2, 41881, Note_on_c, 0, 48, 67
2, 41881, Note_on_c, 0, 88, 66
2, 41884, Note_on_c, 0, 82, 68
2, 41895, Note_on_c, 0, 36, 60
2, 41918, Note_on_c, 0, 82, 0
2, 41918, Note_on_c, 0, 88, 0
2, 41923, Note_on_c, 0, 93, 0
2, 41976, Note_on_c, 0, 36, 0
2, 41992, Note_on_c, 0, 48, 0
2, 42015, Note_on_c, 0, 82, 67
2, 42015, Note_on_c, 0, 93, 72
2, 42018, Note_on_c, 0, 88, 67
2, 42153, Note_on_c, 0, 60, 63
2, 42153, Note_on_c, 0, 58, 64
2, 42160, Note_on_c, 0, 64, 61
2, 42169, Note_on_c, 0, 88, 0
2, 42169, Note_on_c, 0, 82, 0
2, 42175, Note_on_c, 0, 93, 0
2, 42217, Note_on_c, 0, 60, 0
2, 42217, Note_on_c, 0, 64, 0
2, 42217, Note_on_c, 0, 58, 0
2, 42377, Control_c, 0, 64, 127
2, 42389, Note_on_c, 0, 41, 63
2, 42401, Note_on_c, 0, 48, 65
2, 42424, Note_on_c, 0, 81, 65
2, 42424, Note_on_c, 0, 89, 65
2, 42424, Note_on_c, 0, 53, 63
2, 42430, Note_on_c, 0, 77, 62
2, 42484, Note_on_c, 0, 77, 0
2, 42484, Note_on_c, 0, 81, 0
2, 42488, Note_on_c, 0, 89, 0
2, 42644, Note_on_c, 0, 89, 77
2, 42665, Control_c, 0, 64, 0
2, 42690, Note_on_c, 0, 53, 0
2, 42690, Note_on_c, 0, 41, 0
2, 42690, Note_on_c, 0, 81, 66
2, 42700, Note_on_c, 0, 84, 64
2, 42700, Note_on_c, 0, 69, 66
2, 42700, Note_on_c, 0, 87, 63
2, 42714, Note_on_c, 0, 48, 0
2, 42736, Note_on_c, 0, 89, 0
2, 42774, Note_on_c, 0, 84, 0
2, 42774, Note_on_c, 0, 87, 0
2, 42885, Note_on_c, 0, 81, 0
2, 42913, Note_on_c, 0, 89, 74
2, 42950, Note_on_c, 0, 69, 0
2, 42961, Note_on_c, 0, 67, 58
2, 42961, Note_on_c, 0, 87, 61
2, 42968, Note_on_c, 0, 84, 63
2, 42968, Note_on_c, 0, 79, 57
2, 42998, Note_on_c, 0, 89, 0
2, 43038, Note_on_c, 0, 84, 0
2, 43038, Note_on_c, 0, 87, 0
2, 43177, Note_on_c, 0, 67, 0
2, 43177, Note_on_c, 0, 79, 0
2, 43182, Note_on_c, 0, 89, 73
2, 43228, Note_on_c, 0, 65, 60
2, 43232, Note_on_c, 0, 87, 63
2, 43232, Note_on_c, 0, 77, 61
2, 43239, Note_on_c, 0, 84, 64
2, 43267, Note_on_c, 0, 89, 0
2, 43307, Note_on_c, 0, 84, 0
2, 43307, Note_on_c, 0, 87, 0
2, 43374, Note_on_c, 0, 77, 0
2, 43447, Note_on_c, 0, 65, 0
2, 43457, Note_on_c, 0, 29, 62
2, 43487, Note_on_c, 0, 74, 74
2, 43496, Note_on_c, 0, 62, 67
2, 43506, Note_on_c, 0, 41, 63
2, 43547, Note_on_c, 0, 47, 62
2, 43714, Note_on_c, 0, 47, 0
2, 43718, Note_on_c, 0, 29, 0
2, 43721, Note_on_c, 0, 41, 0
2, 43758, Note_on_c, 0, 74, 0
2, 43763, Note_on_c, 0, 62, 0
2, 43763, Note_on_c, 0, 49, 64
2, 43767, Note_on_c, 0, 37, 62
2, 43823, Note_on_c, 0, 37, 0
2, 43823, Note_on_c, 0, 49, 0
2, 43894, Note_on_c, 0, 50, 62
2, 43901, Note_on_c, 0, 38, 63
2, 43961, Note_on_c, 0, 50, 0
2, 43964, Note_on_c, 0, 38, 0
2, 44031, Note_on_c, 0, 53, 60
2, 44031, Note_on_c, 0, 58, 61
2, 44038, Note_on_c, 0, 50, 57
2, 44038, Note_on_c, 0, 46, 59
2, 44038, Note_on_c, 0, 41, 57
2, 44223, Note_on_c, 0, 58, 0
2, 44223, Note_on_c, 0, 53, 0
2, 44228, Note_on_c, 0, 46, 0
2, 44228, Note_on_c, 0, 50, 0
2, 44228, Note_on_c, 0, 41, 0
2, 44288, Note_on_c, 0, 61, 65
2, 44294, Note_on_c, 0, 49, 65
2, 44353, Note_on_c, 0, 49, 0
2, 44353, Note_on_c, 0, 61, 0
2, 44427, Note_on_c, 0, 50, 63
2, 44427, Note_on_c, 0, 62, 68
2, 44496, Note_on_c, 0, 62, 0
2, 44519, Note_on_c, 0, 50, 0
2, 44554, Note_on_c, 0, 65, 67
2, 44558, Note_on_c, 0, 70, 70
2, 44561, Note_on_c, 0, 58, 64
2, 44565, Note_on_c, 0, 62, 67
2, 44570, Note_on_c, 0, 41, 61
2, 44612, Note_on_c, 0, 46, 64
2, 44737, Note_on_c, 0, 62, 0
2, 44737, Note_on_c, 0, 65, 0
2, 44760, Note_on_c, 0, 58, 0
2, 44760, Note_on_c, 0, 70, 0
2, 44760, Note_on_c, 0, 46, 0
2, 44766, Note_on_c, 0, 41, 0
2, 44822, Note_on_c, 0, 73, 74
2, 44822, Note_on_c, 0, 61, 67
2, 44915, Note_on_c, 0, 61, 0
2, 44915, Note_on_c, 0, 73, 0
2, 44958, Note_on_c, 0, 74, 74
2, 44958, Note_on_c, 0, 62, 70
2, 45030, Note_on_c, 0, 74, 0
2, 45035, Note_on_c, 0, 62, 0
2, 45097, Note_on_c, 0, 68, 61
2, 45097, Note_on_c, 0, 80, 60
2, 45100, Note_on_c, 0, 74, 65
2, 45106, Note_on_c, 0, 41, 65
2, 45109, Note_on_c, 0, 77, 60
2, 45136, Note_on_c, 0, 77, 0
2, 45143, Note_on_c, 0, 74, 0
2, 45146, Note_on_c, 0, 46, 66
2, 45181, Note_on_c, 0, 68, 0
2, 45181, Note_on_c, 0, 80, 0
2, 45231, Note_on_c, 0, 67, 59
2, 45231, Note_on_c, 0, 74, 61
2, 45236, Note_on_c, 0, 77, 61
2, 45241, Note_on_c, 0, 79, 59
2, 45278, Note_on_c, 0, 41, 0
2, 45324, Note_on_c, 0, 46, 0
2, 45368, Note_on_c, 0, 41, 63
2, 45412, Note_on_c, 0, 46, 63
2, 45495, Note_on_c, 0, 77, 0
2, 45495, Note_on_c, 0, 67, 0
2, 45495, Note_on_c, 0, 79, 0
2, 45500, Note_on_c, 0, 74, 0
2, 45523, Note_on_c, 0, 41, 0
2, 45595, Note_on_c, 0, 46, 0
2, 45631, Note_on_c, 0, 65, 59
2, 45638, Note_on_c, 0, 48, 66
2, 45643, Note_on_c, 0, 69, 61
2, 45643, Note_on_c, 0, 41, 65
2, 45646, Note_on_c, 0, 77, 62
2, 45646, Note_on_c, 0, 72, 64
2, 45682, Note_on_c, 0, 53, 64
2, 45853, Note_on_c, 0, 77, 0
2, 45853, Note_on_c, 0, 69, 0
2, 45858, Note_on_c, 0, 65, 0
2, 45874, Note_on_c, 0, 72, 0
2, 45905, Note_on_c, 0, 56, 61
2, 45911, Note_on_c, 0, 44, 62
2, 45986, Note_on_c, 0, 56, 0
2, 45993, Note_on_c, 0, 44, 0
2, 46041, Note_on_c, 0, 57, 63
2, 46045, Note_on_c, 0, 45, 62
2, 46057, Note_on_c, 0, 53, 0
2, 46099, Note_on_c, 0, 57, 0
2, 46104, Note_on_c, 0, 45, 0
2, 46164, Note_on_c, 0, 65, 71
2, 46170, Note_on_c, 0, 53, 64
2, 46173, Note_on_c, 0, 57, 64
2, 46173, Note_on_c, 0, 60, 63
2, 46284, Note_on_c, 0, 41, 0
2, 46309, Note_on_c, 0, 48, 0
2, 46448, Note_on_c, 0, 51, 63
2, 46453, Note_on_c, 0, 39, 61
2, 46490, Note_on_c, 0, 53, 0
2, 46510, Note_on_c, 0, 57, 0
2, 46534, Note_on_c, 0, 65, 0
2, 46534, Note_on_c, 0, 60, 0
2, 46624, Note_on_c, 0, 39, 0
2, 46643, Note_on_c, 0, 51, 0
2, 46673, Note_on_c, 0, 38, 65
2, 46714, Note_on_c, 0, 50, 64
2, 46777, Note_on_c, 0, 50, 0
2, 46844, Note_on_c, 0, 59, 66
2, 46855, Note_on_c, 0, 47, 63
2, 46909, Note_on_c, 0, 47, 0
2, 46909, Note_on_c, 0, 59, 0
2, 46978, Note_on_c, 0, 62, 68
2, 46978, Note_on_c, 0, 50, 63
2, 47064, Note_on_c, 0, 62, 0
2, 47101, Note_on_c, 0, 65, 72
2, 47105, Note_on_c, 0, 53, 67
2, 47170, Note_on_c, 0, 53, 0
2, 47170, Note_on_c, 0, 65, 0
2, 47239, Note_on_c, 0, 68, 73
2, 47239, Note_on_c, 0, 56, 63
2, 47299, Note_on_c, 0, 56, 0
2, 47302, Note_on_c, 0, 68, 0
2, 47366, Note_on_c, 0, 65, 67
2, 47369, Note_on_c, 0, 59, 64
2, 47369, Note_on_c, 0, 67, 68
2, 47374, Note_on_c, 0, 55, 62
2, 47609, Note_on_c, 0, 67, 0
2, 47609, Note_on_c, 0, 59, 0
2, 47612, Note_on_c, 0, 65, 0
2, 47616, Note_on_c, 0, 38, 0
2, 47633, Note_on_c, 0, 55, 0
2, 47640, Note_on_c, 0, 50, 0
2, 47760, Note_on_c, 0, 67, 72
2, 47764, Note_on_c, 0, 48, 64
2, 47764, Note_on_c, 0, 58, 63
2, 47783, Note_on_c, 0, 36, 57
2, 47797, Note_on_c, 0, 64, 62
2, 48040, Note_on_c, 0, 36, 0
2, 48040, Note_on_c, 0, 48, 0
2, 48040, Note_on_c, 0, 46, 63
2, 48186, Note_on_c, 0, 67, 0
2, 48186, Note_on_c, 0, 64, 0
2, 48192, Note_on_c, 0, 58, 0
2, 48299, Note_on_c, 0, 65, 71
2, 48310, Note_on_c, 0, 46, 0
2, 48310, Note_on_c, 0, 62, 63
2, 48310, Note_on_c, 0, 57, 60
2, 48310, Note_on_c, 0, 33, 56
2, 48317, Note_on_c, 0, 45, 59
2, 48370, Note_on_c, 0, 57, 0
2, 48370, Note_on_c, 0, 65, 0
2, 48373, Note_on_c, 0, 62, 0
2, 48440, Note_on_c, 0, 61, 64
2, 48444, Note_on_c, 0, 64, 64
2, 48449, Note_on_c, 0, 55, 61
2, 48699, Note_on_c, 0, 61, 0
2, 48725, Note_on_c, 0, 64, 0
2, 48725, Note_on_c, 0, 55, 0
2, 48801, Note_on_c, 0, 45, 0
2, 48819, Note_on_c, 0, 33, 0
2, 48836, Note_on_c, 0, 65, 71
2, 48842, Note_on_c, 0, 50, 59
2, 48847, Note_on_c, 0, 57, 61
2, 48847, Note_on_c, 0, 62, 64
2, 48852, Note_on_c, 0, 38, 60
2, 49062, Note_on_c, 0, 38, 0
2, 49062, Note_on_c, 0, 50, 0
2, 49111, Note_on_c, 0, 40, 64
2, 49257, Note_on_c, 0, 57, 0
2, 49286, Note_on_c, 0, 62, 0
2, 49289, Note_on_c, 0, 65, 0
2, 49305, Note_on_c, 0, 40, 0
2, 49367, Note_on_c, 0, 65, 67
2, 49367, Note_on_c, 0, 68, 70
2, 49370, Note_on_c, 0, 62, 66
2, 49370, Note_on_c, 0, 53, 64
2, 49382, Note_on_c, 0, 41, 62
2, 49409, Note_on_c, 0, 68, 0
2, 49412, Note_on_c, 0, 65, 0
2, 49412, Note_on_c, 0, 62, 0
2, 49501, Note_on_c, 0, 65, 67
2, 49501, Note_on_c, 0, 68, 70
2, 49504, Note_on_c, 0, 62, 68
2, 49763, Note_on_c, 0, 53, 0
2, 49784, Note_on_c, 0, 68, 0
2, 49784, Note_on_c, 0, 65, 0
2, 49789, Note_on_c, 0, 41, 0
2, 49789, Note_on_c, 0, 62, 0
2, 49904, Note_on_c, 0, 60, 66
2, 49904, Note_on_c, 0, 72, 74
2, 49907, Note_on_c, 0, 40, 63
2, 50032, Note_on_c, 0, 69, 72
2, 50036, Note_on_c, 0, 64, 65
2, 50048, Note_on_c, 0, 60, 0
2, 50068, Note_on_c, 0, 69, 0
2, 50068, Note_on_c, 0, 64, 0
2, 50163, Note_on_c, 0, 69, 72
2, 50163, Note_on_c, 0, 60, 65
2, 50166, Note_on_c, 0, 57, 61
2, 50166, Note_on_c, 0, 64, 60
2, 50202, Note_on_c, 0, 69, 0
2, 50205, Note_on_c, 0, 64, 0
2, 50242, Note_on_c, 0, 57, 0
2, 50247, Note_on_c, 0, 60, 0
2, 50295, Note_on_c, 0, 40, 0
2, 50295, Note_on_c, 0, 69, 72
2, 50300, Note_on_c, 0, 64, 67
2, 50334, Note_on_c, 0, 69, 0
2, 50339, Note_on_c, 0, 64, 0
2, 50353, Note_on_c, 0, 72, 0
2, 50360, Note_on_c, 0, 40, 66
2, 50425, Note_on_c, 0, 59, 67
2, 50434, Note_on_c, 0, 71, 71
2, 50554, Note_on_c, 0, 68, 73
2, 50557, Note_on_c, 0, 62, 69
2, 50571, Note_on_c, 0, 59, 0
2, 50596, Note_on_c, 0, 68, 0
2, 50605, Note_on_c, 0, 62, 0
2, 50690, Note_on_c, 0, 68, 72
2, 50697, Note_on_c, 0, 62, 65
2, 50697, Note_on_c, 0, 59, 64
2, 50697, Note_on_c, 0, 56, 59
2, 50734, Note_on_c, 0, 68, 0
2, 50741, Note_on_c, 0, 62, 0
2, 50774, Note_on_c, 0, 59, 0
2, 50799, Note_on_c, 0, 56, 0
2, 50822, Note_on_c, 0, 68, 72
2, 50822, Note_on_c, 0, 62, 68
2, 50866, Note_on_c, 0, 68, 0
2, 50871, Note_on_c, 0, 62, 0
2, 50871, Note_on_c, 0, 40, 0
2, 50913, Note_on_c, 0, 71, 0
2, 50920, Note_on_c, 0, 45, 65
2, 50959, Note_on_c, 0, 69, 72
2, 50963, Note_on_c, 0, 57, 61
2, 50968, Note_on_c, 0, 64, 62
2, 50968, Note_on_c, 0, 60, 63
2, 51063, Note_on_c, 0, 57, 0
2, 51063, Note_on_c, 0, 69, 0
2, 51066, Note_on_c, 0, 45, 0
2, 51070, Note_on_c, 0, 60, 0
2, 51091, Note_on_c, 0, 64, 0
2, 51188, Note_on_c, 0, 77, 72
2, 51229, Note_on_c, 0, 75, 65
2, 51229, Note_on_c, 0, 57, 66
2, 51234, Note_on_c, 0, 69, 65
2, 51237, Note_on_c, 0, 72, 67
2, 51266, Note_on_c, 0, 77, 0
2, 51302, Note_on_c, 0, 75, 0
2, 51302, Note_on_c, 0, 72, 0
2, 51438, Note_on_c, 0, 57, 0
2, 51438, Note_on_c, 0, 69, 0
2, 51472, Note_on_c, 0, 77, 68
2, 51491, Note_on_c, 0, 67, 62
2, 51496, Note_on_c, 0, 55, 65
2, 51502, Note_on_c, 0, 75, 67
2, 51505, Note_on_c, 0, 72, 67
2, 51524, Note_on_c, 0, 77, 0
2, 51565, Note_on_c, 0, 75, 0
2, 51590, Note_on_c, 0, 72, 0
2, 51695, Note_on_c, 0, 67, 0
2, 51720, Note_on_c, 0, 55, 0
2, 51731, Note_on_c, 0, 77, 67
2, 51746, Note_on_c, 0, 65, 62
2, 51755, Note_on_c, 0, 72, 67
2, 51755, Note_on_c, 0, 53, 66
2, 51755, Note_on_c, 0, 75, 68
2, 51783, Note_on_c, 0, 77, 0
2, 51822, Note_on_c, 0, 75, 0
2, 51822, Note_on_c, 0, 72, 0
2, 51967, Note_on_c, 0, 53, 0
2, 51988, Note_on_c, 0, 65, 0
2, 51988, Note_on_c, 0, 41, 64
2, 52021, Note_on_c, 0, 62, 65
2, 52021, Note_on_c, 0, 50, 58
2, 52021, Note_on_c, 0, 46, 63
2, 52240, Note_on_c, 0, 50, 0
2, 52284, Note_on_c, 0, 46, 0
2, 52284, Note_on_c, 0, 41, 0
2, 52287, Note_on_c, 0, 62, 0
2, 52298, Note_on_c, 0, 49, 64
2, 52298, Note_on_c, 0, 37, 62
2, 52347, Note_on_c, 0, 37, 0
2, 52368, Note_on_c, 0, 49, 0
2, 52421, Note_on_c, 0, 50, 63
2, 52426, Note_on_c, 0, 38, 63
2, 52483, Note_on_c, 0, 38, 0
2, 52486, Note_on_c, 0, 50, 0
2, 52553, Note_on_c, 0, 53, 59
2, 52557, Note_on_c, 0, 58, 59
2, 52560, Note_on_c, 0, 50, 58
2, 52565, Note_on_c, 0, 46, 60
2, 52571, Note_on_c, 0, 41, 58
2, 52765, Note_on_c, 0, 58, 0
2, 52765, Note_on_c, 0, 53, 0
2, 52770, Note_on_c, 0, 41, 0
2, 52770, Note_on_c, 0, 50, 0
2, 52794, Note_on_c, 0, 46, 0
2, 52814, Note_on_c, 0, 61, 65
2, 52824, Note_on_c, 0, 49, 66
2, 52875, Note_on_c, 0, 49, 0
2, 52897, Note_on_c, 0, 61, 0
2, 52951, Note_on_c, 0, 62, 69
2, 52951, Note_on_c, 0, 50, 63
2, 53013, Note_on_c, 0, 50, 0
2, 53013, Note_on_c, 0, 62, 0
2, 53075, Note_on_c, 0, 65, 67
2, 53082, Note_on_c, 0, 62, 69
2, 53082, Note_on_c, 0, 70, 70
2, 53087, Note_on_c, 0, 58, 63
2, 53103, Note_on_c, 0, 41, 63
2, 53136, Note_on_c, 0, 46, 65
2, 53270, Note_on_c, 0, 41, 0
2, 53270, Note_on_c, 0, 58, 0
2, 53270, Note_on_c, 0, 70, 0
2, 53270, Note_on_c, 0, 65, 0
2, 53274, Note_on_c, 0, 62, 0
2, 53333, Note_on_c, 0, 73, 74
2, 53341, Note_on_c, 0, 61, 67
2, 53360, Note_on_c, 0, 46, 0
2, 53422, Note_on_c, 0, 61, 0
2, 53422, Note_on_c, 0, 73, 0
2, 53469, Note_on_c, 0, 74, 74
2, 53469, Note_on_c, 0, 62, 70
2, 53534, Note_on_c, 0, 74, 0
2, 53538, Note_on_c, 0, 62, 0
2, 53601, Note_on_c, 0, 80, 59
2, 53605, Note_on_c, 0, 68, 61
2, 53605, Note_on_c, 0, 74, 65
2, 53608, Note_on_c, 0, 41, 66
2, 53615, Note_on_c, 0, 77, 59
2, 53636, Note_on_c, 0, 77, 0
2, 53642, Note_on_c, 0, 74, 0
2, 53647, Note_on_c, 0, 46, 67
2, 53659, Note_on_c, 0, 80, 0
2, 53684, Note_on_c, 0, 68, 0
2, 53737, Note_on_c, 0, 74, 62
2, 53737, Note_on_c, 0, 67, 60
2, 53737, Note_on_c, 0, 79, 58
2, 53742, Note_on_c, 0, 77, 61
2, 53777, Note_on_c, 0, 41, 0
2, 53848, Note_on_c, 0, 46, 0
2, 53867, Note_on_c, 0, 41, 63
2, 53908, Note_on_c, 0, 46, 67
2, 54038, Note_on_c, 0, 79, 0
2, 54038, Note_on_c, 0, 67, 0
2, 54038, Note_on_c, 0, 77, 0
2, 54043, Note_on_c, 0, 74, 0
2, 54070, Note_on_c, 0, 41, 0
2, 54131, Note_on_c, 0, 46, 0
2, 54131, Control_c, 0, 64, 127
2, 54131, Note_on_c, 0, 41, 68
2, 54131, Note_on_c, 0, 81, 61
2, 54140, Note_on_c, 0, 89, 63
2, 54140, Note_on_c, 0, 77, 61
2, 54144, Note_on_c, 0, 84, 61
2, 54179, Note_on_c, 0, 48, 65
2, 54225, Note_on_c, 0, 53, 66
2, 54346, Note_on_c, 0, 84, 0
2, 54346, Note_on_c, 0, 77, 0
2, 54346, Note_on_c, 0, 81, 0
2, 54350, Note_on_c, 0, 89, 0
2, 54390, Note_on_c, 0, 68, 77
2, 54399, Note_on_c, 0, 56, 69
2, 54459, Note_on_c, 0, 56, 0
2, 54459, Note_on_c, 0, 68, 0
2, 54463, Control_c, 0, 64, 0
2, 54510, Note_on_c, 0, 57, 70
2, 54533, Note_on_c, 0, 69, 75
2, 54589, Note_on_c, 0, 69, 0
2, 54589, Note_on_c, 0, 57, 0
2, 54665, Note_on_c, 0, 69, 62
2, 54665, Note_on_c, 0, 65, 59
2, 54672, Note_on_c, 0, 77, 61
2, 54676, Note_on_c, 0, 72, 64
2, 54769, Note_on_c, 0, 53, 0
2, 54773, Note_on_c, 0, 41, 0
2, 54797, Note_on_c, 0, 48, 0
2, 54889, Note_on_c, 0, 41, 67
2, 54931, Note_on_c, 0, 49, 66
2, 54973, Note_on_c, 0, 53, 67
2, 55060, Note_on_c, 0, 41, 0
2, 55077, Note_on_c, 0, 72, 0
2, 55077, Note_on_c, 0, 69, 0
2, 55077, Note_on_c, 0, 77, 0
2, 55083, Note_on_c, 0, 65, 0
2, 55104, Note_on_c, 0, 53, 0
2, 55104, Note_on_c, 0, 49, 0
2, 55146, Note_on_c, 0, 48, 67
2, 55157, Note_on_c, 0, 41, 63
2, 55194, Note_on_c, 0, 53, 67
2, 55320, Note_on_c, 0, 65, 68
2, 55324, Note_on_c, 0, 67, 69
2, 55327, Note_on_c, 0, 55, 64
2, 55368, Note_on_c, 0, 65, 0
2, 55435, Note_on_c, 0, 67, 0
2, 55435, Note_on_c, 0, 55, 0
2, 55458, Note_on_c, 0, 65, 67
2, 55458, Note_on_c, 0, 69, 70
2, 55461, Note_on_c, 0, 57, 64
2, 55521, Note_on_c, 0, 69, 0
2, 55525, Note_on_c, 0, 65, 0
2, 55544, Note_on_c, 0, 57, 0
2, 55585, Note_on_c, 0, 65, 63
2, 55590, Note_on_c, 0, 69, 68
2, 55590, Note_on_c, 0, 60, 67
2, 55597, Note_on_c, 0, 72, 67
2, 55625, Note_on_c, 0, 72, 0
2, 55629, Note_on_c, 0, 69, 0
2, 55634, Note_on_c, 0, 65, 0
2, 55655, Note_on_c, 0, 60, 0
2, 55720, Note_on_c, 0, 63, 67
2, 55720, Note_on_c, 0, 65, 60
2, 55729, Note_on_c, 0, 69, 62
2, 55729, Note_on_c, 0, 75, 64
2, 55729, Note_on_c, 0, 72, 65
2, 55782, Note_on_c, 0, 72, 0
2, 55782, Note_on_c, 0, 75, 0
2, 55785, Note_on_c, 0, 63, 0
2, 55785, Note_on_c, 0, 69, 0
2, 55789, Note_on_c, 0, 65, 0
2, 55858, Note_on_c, 0, 69, 63
2, 55858, Note_on_c, 0, 62, 68
2, 55858, Note_on_c, 0, 65, 62
2, 55865, Note_on_c, 0, 74, 62
2, 55865, Note_on_c, 0, 72, 63
2, 56118, Note_on_c, 0, 69, 0
2, 56118, Note_on_c, 0, 53, 0
2, 56124, Note_on_c, 0, 41, 0
2, 56138, Note_on_c, 0, 72, 0
2, 56143, Note_on_c, 0, 65, 0
2, 56143, Note_on_c, 0, 48, 0
2, 56143, Note_on_c, 0, 74, 0
2, 56147, Note_on_c, 0, 62, 0
2, 56221, Note_on_c, 0, 36, 62
2, 56236, Control_c, 0, 64, 127
2, 56252, Note_on_c, 0, 48, 67
2, 56252, Note_on_c, 0, 70, 69
2, 56252, Note_on_c, 0, 74, 70
2, 56261, Note_on_c, 0, 64, 63
2, 56511, Note_on_c, 0, 64, 0
2, 56511, Note_on_c, 0, 74, 0
2, 56515, Note_on_c, 0, 70, 0
2, 56520, Note_on_c, 0, 51, 67
2, 56520, Note_on_c, 0, 54, 67
2, 56605, Note_on_c, 0, 54, 0
2, 56624, Note_on_c, 0, 51, 0
2, 56654, Note_on_c, 0, 55, 70
2, 56714, Note_on_c, 0, 55, 0
2, 56779, Note_on_c, 0, 58, 71
2, 56779, Note_on_c, 0, 55, 71
2, 57043, Note_on_c, 0, 58, 0
2, 57043, Note_on_c, 0, 66, 75
2, 57047, Note_on_c, 0, 63, 71
2, 57070, Note_on_c, 0, 55, 0
2, 57107, Control_c, 0, 64, 0
2, 57124, Note_on_c, 0, 63, 0
2, 57129, Note_on_c, 0, 66, 0
2, 57173, Note_on_c, 0, 67, 75
2, 57179, Note_on_c, 0, 64, 70
2, 57218, Note_on_c, 0, 64, 0
2, 57239, Note_on_c, 0, 67, 0
2, 57307, Note_on_c, 0, 73, 68
2, 57314, Note_on_c, 0, 70, 70
2, 57314, Note_on_c, 0, 64, 66
2, 57512, Note_on_c, 0, 36, 0
2, 57531, Note_on_c, 0, 48, 0
2, 57547, Note_on_c, 0, 70, 0
2, 57547, Note_on_c, 0, 73, 0
2, 57547, Note_on_c, 0, 64, 0
2, 57809, Note_on_c, 0, 36, 63
2, 57843, Note_on_c, 0, 70, 69
2, 57843, Note_on_c, 0, 48, 66
2, 57846, Note_on_c, 0, 64, 64
2, 57850, Note_on_c, 0, 72, 71
2, 57897, Note_on_c, 0, 72, 0
2, 57901, Note_on_c, 0, 64, 0
2, 57904, Note_on_c, 0, 70, 0
2, 57964, Note_on_c, 0, 70, 73
2, 57970, Note_on_c, 0, 64, 70
2, 57975, Note_on_c, 0, 72, 70
2, 58255, Note_on_c, 0, 72, 0
2, 58260, Note_on_c, 0, 70, 0
2, 58260, Note_on_c, 0, 64, 0
2, 58260, Note_on_c, 0, 48, 0
2, 58266, Note_on_c, 0, 36, 0
2, 58333, Note_on_c, 0, 41, 64
2, 58338, Control_c, 0, 64, 127
2, 58343, Note_on_c, 0, 48, 66
2, 58368, Note_on_c, 0, 65, 70
2, 58373, Note_on_c, 0, 53, 62
2, 58373, Note_on_c, 0, 57, 60
2, 58377, Note_on_c, 0, 60, 61
2, 58414, Control_c, 0, 64, 0
2, 58759, Note_on_c, 0, 60, 0
2, 58759, Note_on_c, 0, 53, 0
2, 58759, Note_on_c, 0, 65, 0
2, 58759, Note_on_c, 0, 57, 0
2, 58762, Note_on_c, 0, 41, 0
2, 58762, Note_on_c, 0, 48, 0
2, 58891, Note_on_c, 0, 67, 72
2, 58894, Note_on_c, 0, 58, 67
2, 58905, Note_on_c, 0, 41, 64
2, 58946, Note_on_c, 0, 49, 63
2, 58954, Note_on_c, 0, 67, 0
2, 58960, Note_on_c, 0, 58, 0
2, 58963, Note_on_c, 0, 53, 67
2, 59021, Note_on_c, 0, 65, 72
2, 59025, Note_on_c, 0, 58, 71
2, 59285, Note_on_c, 0, 41, 0
2, 59305, Note_on_c, 0, 65, 0
2, 59305, Note_on_c, 0, 49, 0
2, 59305, Note_on_c, 0, 53, 0
2, 59305, Note_on_c, 0, 58, 0
2, 59391, Note_on_c, 0, 48, 66
2, 59402, Note_on_c, 0, 41, 60
2, 59407, Note_on_c, 0, 65, 71
2, 59418, Note_on_c, 0, 53, 63
2, 59418, Note_on_c, 0, 57, 59
2, 59421, Note_on_c, 0, 60, 62
2, 59426, Control_c, 0, 64, 127
2, 59463, Control_c, 0, 64, 0
2, 59625, Note_on_c, 0, 53, 0
2, 59647, Note_on_c, 0, 57, 0
2, 59647, Note_on_c, 0, 60, 0
2, 59673, Note_on_c, 0, 65, 0
2, 59678, Note_on_c, 0, 41, 0
2, 59682, Note_on_c, 0, 48, 0
2, 59932, Note_on_c, 0, 65, 73
2, 60025, Note_on_c, 0, 65, 0
2, 60069, Note_on_c, 0, 72, 74
2, 60172, Note_on_c, 0, 72, 0
2, 60196, Note_on_c, 0, 69, 74
2, 60261, Note_on_c, 0, 69, 0
2, 60314, Note_on_c, 0, 65, 73
2, 60439, Note_on_c, 0, 65, 0
2, 60459, Note_on_c, 0, 48, 66
2, 60464, Note_on_c, 0, 60, 65
2, 60464, Note_on_c, 0, 40, 61
2, 60483, Control_c, 0, 64, 127
2, 60531, Control_c, 0, 64, 0
2, 60550, Note_on_c, 0, 40, 0
2, 60550, Note_on_c, 0, 60, 0
2, 60550, Note_on_c, 0, 48, 0
2, 60592, Note_on_c, 0, 61, 65
2, 60596, Note_on_c, 0, 49, 65
2, 60658, Note_on_c, 0, 49, 0
2, 60677, Note_on_c, 0, 61, 0
2, 60725, Note_on_c, 0, 58, 63
2, 60725, Note_on_c, 0, 60, 63
2, 60730, Note_on_c, 0, 62, 63
2, 60733, Note_on_c, 0, 50, 55
2, 60733, Note_on_c, 0, 55, 58
2, 60809, Note_on_c, 0, 55, 0
2, 60809, Note_on_c, 0, 60, 0
2, 60813, Note_on_c, 0, 58, 0
2, 60813, Note_on_c, 0, 62, 0
2, 60816, Note_on_c, 0, 50, 0
2, 60857, Note_on_c, 0, 63, 67
2, 60860, Note_on_c, 0, 51, 65
2, 60918, Note_on_c, 0, 63, 0
2, 60945, Note_on_c, 0, 51, 0
2, 60991, Note_on_c, 0, 55, 64
2, 61012, Note_on_c, 0, 64, 64
2, 61022, Note_on_c, 0, 43, 62
2, 61054, Note_on_c, 0, 64, 0
2, 61073, Note_on_c, 0, 43, 0
2, 61073, Note_on_c, 0, 55, 0
2, 61119, Note_on_c, 0, 60, 67
2, 61119, Note_on_c, 0, 72, 74
2, 61119, Note_on_c, 0, 64, 67
2, 61246, Note_on_c, 0, 58, 67
2, 61246, Note_on_c, 0, 55, 63
2, 61315, Note_on_c, 0, 58, 0
2, 61336, Note_on_c, 0, 60, 0
2, 61336, Note_on_c, 0, 55, 0
2, 61401, Note_on_c, 0, 64, 0
2, 61442, Note_on_c, 0, 72, 0
2, 61510, Note_on_c, 0, 70, 69
2, 61510, Note_on_c, 0, 72, 71
2, 61510, Note_on_c, 0, 64, 65
2, 61510, Note_on_c, 0, 48, 65
2, 61523, Note_on_c, 0, 36, 58
2, 61535, Control_c, 0, 64, 127
2, 61577, Control_c, 0, 64, 0
2, 61597, Note_on_c, 0, 72, 0
2, 61600, Note_on_c, 0, 67, 69
2, 61604, Note_on_c, 0, 48, 0
2, 61604, Note_on_c, 0, 70, 0
2, 61609, Note_on_c, 0, 36, 0
2, 61630, Note_on_c, 0, 37, 63
2, 61651, Note_on_c, 0, 49, 66
2, 61665, Note_on_c, 0, 70, 75
2, 61711, Note_on_c, 0, 49, 0
2, 61715, Note_on_c, 0, 37, 0
2, 61774, Note_on_c, 0, 64, 0
2, 61774, Note_on_c, 0, 72, 74
2, 61780, Note_on_c, 0, 50, 61
2, 61780, Note_on_c, 0, 38, 62
2, 61845, Note_on_c, 0, 38, 0
2, 61864, Note_on_c, 0, 50, 0
2, 61907, Note_on_c, 0, 51, 63
2, 61910, Note_on_c, 0, 39, 61
2, 61922, Note_on_c, 0, 67, 0
2, 61998, Note_on_c, 0, 39, 0
2, 62016, Note_on_c, 0, 70, 0
2, 62016, Note_on_c, 0, 51, 0
2, 62040, Note_on_c, 0, 40, 65
2, 62107, Note_on_c, 0, 40, 0
2, 62164, Note_on_c, 0, 60, 67
2, 62164, Note_on_c, 0, 48, 67
2, 62405, Note_on_c, 0, 48, 0
2, 62405, Note_on_c, 0, 60, 0
2, 62442, Note_on_c, 0, 72, 0
2, 62548, Note_on_c, 0, 65, 71
2, 62553, Note_on_c, 0, 53, 67
2, 62560, Note_on_c, 0, 33, 60
2, 62571, Control_c, 0, 64, 127
2, 62618, Control_c, 0, 64, 0
2, 62641, Note_on_c, 0, 53, 0
2, 62664, Note_on_c, 0, 65, 0
2, 62682, Note_on_c, 0, 66, 72
2, 62692, Note_on_c, 0, 54, 64
2, 62771, Note_on_c, 0, 54, 0
2, 62771, Note_on_c, 0, 66, 0
2, 62817, Note_on_c, 0, 67, 71
2, 62817, Note_on_c, 0, 53, 63
2, 62821, Note_on_c, 0, 60, 63
2, 62821, Note_on_c, 0, 55, 59
2, 62826, Note_on_c, 0, 57, 60
2, 62882, Note_on_c, 0, 57, 0
2, 62882, Note_on_c, 0, 67, 0
2, 62882, Note_on_c, 0, 53, 0
2, 62889, Note_on_c, 0, 60, 0
2, 62907, Note_on_c, 0, 55, 0
2, 62942, Note_on_c, 0, 68, 73
2, 62949, Note_on_c, 0, 56, 64
2, 62997, Note_on_c, 0, 33, 0
2, 63034, Note_on_c, 0, 68, 0
2, 63057, Note_on_c, 0, 56, 0
2, 63081, Note_on_c, 0, 69, 73
2, 63085, Note_on_c, 0, 57, 65
2, 63094, Note_on_c, 0, 36, 60
2, 63143, Note_on_c, 0, 57, 0
2, 63143, Note_on_c, 0, 69, 0
2, 63208, Note_on_c, 0, 65, 64
2, 63208, Note_on_c, 0, 69, 69
2, 63217, Note_on_c, 0, 77, 65
2, 63342, Note_on_c, 0, 57, 61
2, 63342, Note_on_c, 0, 60, 63
2, 63346, Note_on_c, 0, 53, 63
2, 63404, Note_on_c, 0, 53, 0
2, 63404, Note_on_c, 0, 57, 0
2, 63407, Note_on_c, 0, 60, 0
2, 63492, Note_on_c, 0, 69, 0
2, 63492, Note_on_c, 0, 77, 0
2, 63499, Note_on_c, 0, 65, 0
2, 63502, Note_on_c, 0, 36, 0
2, 63605, Note_on_c, 0, 65, 63
2, 63608, Note_on_c, 0, 53, 65
2, 63612, Note_on_c, 0, 77, 64
2, 63612, Note_on_c, 0, 72, 67
2, 63615, Note_on_c, 0, 41, 62
2, 63633, Control_c, 0, 64, 127
2, 63686, Control_c, 0, 64, 0
2, 63689, Note_on_c, 0, 53, 0
2, 63694, Note_on_c, 0, 41, 0
2, 63694, Note_on_c, 0, 69, 72
2, 63710, Note_on_c, 0, 72, 0
2, 63742, Note_on_c, 0, 42, 60
2, 63747, Note_on_c, 0, 54, 62
2, 63775, Note_on_c, 0, 77, 0
2, 63779, Note_on_c, 0, 72, 73
2, 63825, Note_on_c, 0, 42, 0
2, 63825, Note_on_c, 0, 54, 0
2, 63876, Note_on_c, 0, 77, 70
2, 63879, Note_on_c, 0, 55, 63
2, 63885, Note_on_c, 0, 43, 62
2, 63960, Note_on_c, 0, 43, 0
2, 63980, Note_on_c, 0, 55, 0
2, 64010, Note_on_c, 0, 56, 62
2, 64017, Note_on_c, 0, 44, 62
2, 64084, Note_on_c, 0, 56, 0
2, 64091, Note_on_c, 0, 44, 0
2, 64137, Note_on_c, 0, 57, 64
2, 64140, Note_on_c, 0, 45, 63
2, 64211, Note_on_c, 0, 65, 0
2, 64216, Note_on_c, 0, 57, 0
2, 64221, Note_on_c, 0, 45, 0
2, 64267, Note_on_c, 0, 53, 68
2, 64267, Note_on_c, 0, 65, 67
2, 64503, Note_on_c, 0, 53, 0
2, 64506, Note_on_c, 0, 65, 0
2, 64584, Note_on_c, 0, 72, 0
2, 64589, Note_on_c, 0, 69, 0
2, 64630, Note_on_c, 0, 77, 0
2, 64658, Note_on_c, 0, 70, 70
2, 64663, Note_on_c, 0, 74, 70
2, 64667, Note_on_c, 0, 55, 63
2, 64667, Note_on_c, 0, 43, 63
2, 64690, Control_c, 0, 64, 127
2, 64732, Control_c, 0, 64, 0
2, 64744, Note_on_c, 0, 43, 0
2, 64744, Note_on_c, 0, 70, 0
2, 64744, Note_on_c, 0, 74, 0
2, 64764, Note_on_c, 0, 55, 0
2, 64795, Note_on_c, 0, 57, 63
2, 64795, Note_on_c, 0, 64, 63
2, 64795, Note_on_c, 0, 45, 61
2, 64871, Note_on_c, 0, 57, 0
2, 64878, Note_on_c, 0, 45, 0
2, 64920, Note_on_c, 0, 60, 67
2, 64920, Note_on_c, 0, 48, 67
2, 65026, Note_on_c, 0, 60, 0
2, 65026, Note_on_c, 0, 64, 0
2, 65030, Note_on_c, 0, 48, 0
2, 65049, Note_on_c, 0, 70, 70
2, 65049, Note_on_c, 0, 74, 70
2, 65049, Note_on_c, 0, 58, 67
2, 65058, Note_on_c, 0, 46, 63
2, 65114, Note_on_c, 0, 58, 0
2, 65134, Note_on_c, 0, 70, 0
2, 65134, Note_on_c, 0, 74, 0
2, 65137, Note_on_c, 0, 46, 0
2, 65185, Note_on_c, 0, 64, 67
2, 65185, Note_on_c, 0, 40, 63
2, 65269, Note_on_c, 0, 40, 0
2, 65310, Note_on_c, 0, 53, 67
2, 65317, Note_on_c, 0, 41, 63
2, 65371, Note_on_c, 0, 41, 0
2, 65371, Note_on_c, 0, 53, 0
2, 65371, Note_on_c, 0, 64, 0
2, 65438, Note_on_c, 0, 70, 71
2, 65438, Note_on_c, 0, 74, 71
2, 65445, Note_on_c, 0, 55, 64
2, 65452, Note_on_c, 0, 43, 63
2, 65526, Note_on_c, 0, 43, 0
2, 65526, Note_on_c, 0, 70, 0
2, 65526, Note_on_c, 0, 74, 0
2, 65526, Note_on_c, 0, 55, 0
2, 65574, Note_on_c, 0, 64, 65
2, 65574, Note_on_c, 0, 50, 60
2, 65579, Note_on_c, 0, 38, 61
2, 65657, Note_on_c, 0, 50, 0
2, 65660, Note_on_c, 0, 38, 0
2, 65703, Note_on_c, 0, 48, 67
2, 65715, Note_on_c, 0, 36, 60
2, 65725, Control_c, 0, 64, 127
2, 65773, Control_c, 0, 64, 0
2, 65787, Note_on_c, 0, 64, 0
2, 65791, Note_on_c, 0, 48, 0
2, 65794, Note_on_c, 0, 36, 0
2, 65833, Note_on_c, 0, 70, 70
2, 65833, Note_on_c, 0, 74, 70
2, 65838, Note_on_c, 0, 50, 62
2, 65845, Note_on_c, 0, 38, 62
2, 65898, Note_on_c, 0, 74, 0
2, 65898, Note_on_c, 0, 70, 0
2, 65902, Note_on_c, 0, 50, 0
2, 65905, Note_on_c, 0, 38, 0
2, 65974, Note_on_c, 0, 40, 63
2, 65974, Note_on_c, 0, 64, 67
2, 66053, Note_on_c, 0, 40, 0
2, 66101, Note_on_c, 0, 50, 62
2, 66104, Note_on_c, 0, 38, 63
2, 66164, Note_on_c, 0, 38, 0
2, 66164, Note_on_c, 0, 50, 0
2, 66227, Note_on_c, 0, 64, 0
2, 66227, Note_on_c, 0, 70, 71
2, 66231, Note_on_c, 0, 74, 71
2, 66236, Note_on_c, 0, 31, 61
2, 66245, Note_on_c, 0, 43, 62
2, 66298, Note_on_c, 0, 43, 0
2, 66298, Note_on_c, 0, 74, 0
2, 66338, Note_on_c, 0, 70, 0
2, 66342, Note_on_c, 0, 31, 0
2, 66345, Note_on_c, 0, 64, 67
2, 66361, Note_on_c, 0, 58, 64
2, 66372, Note_on_c, 0, 46, 62
2, 66449, Note_on_c, 0, 46, 0
2, 66493, Note_on_c, 0, 48, 67
2, 66504, Note_on_c, 0, 36, 60
2, 66576, Note_on_c, 0, 36, 0
2, 66580, Note_on_c, 0, 48, 0
2, 66663, Note_on_c, 0, 64, 0
2, 66668, Note_on_c, 0, 58, 0
2, 66751, Note_on_c, 0, 74, 70
2, 66751, Note_on_c, 0, 53, 67
2, 66758, Note_on_c, 0, 69, 70
2, 66766, Note_on_c, 0, 41, 63
2, 66788, Control_c, 0, 64, 127
2, 66833, Note_on_c, 0, 69, 0
2, 66833, Note_on_c, 0, 53, 0
2, 66837, Note_on_c, 0, 74, 0
2, 66837, Note_on_c, 0, 41, 0
2, 66846, Control_c, 0, 64, 0
2, 66874, Note_on_c, 0, 65, 72
2, 67015, Note_on_c, 0, 57, 66
2, 67022, Note_on_c, 0, 45, 63
2, 67076, Note_on_c, 0, 57, 0
2, 67080, Note_on_c, 0, 45, 0
2, 67124, Note_on_c, 0, 65, 0
2, 67145, Note_on_c, 0, 74, 71
2, 67150, Note_on_c, 0, 69, 71
2, 67233, Note_on_c, 0, 69, 0
2, 67233, Note_on_c, 0, 74, 0
2, 67274, Note_on_c, 0, 65, 73
2, 67277, Note_on_c, 0, 48, 67
2, 67291, Note_on_c, 0, 36, 60
2, 67348, Note_on_c, 0, 36, 0
2, 67388, Note_on_c, 0, 48, 0
2, 67496, Note_on_c, 0, 65, 0
2, 67536, Note_on_c, 0, 69, 70
2, 67536, Note_on_c, 0, 74, 71
2, 67543, Note_on_c, 0, 53, 66
2, 67550, Note_on_c, 0, 41, 63
2, 67600, Note_on_c, 0, 69, 0
2, 67603, Note_on_c, 0, 74, 0
2, 67603, Note_on_c, 0, 53, 0
2, 67607, Note_on_c, 0, 41, 0
2, 67667, Note_on_c, 0, 65, 74
2, 67807, Note_on_c, 0, 33, 60
2, 67807, Note_on_c, 0, 45, 63
2, 67818, Control_c, 0, 64, 127
2, 67889, Note_on_c, 0, 45, 0
2, 67889, Note_on_c, 0, 33, 0
2, 67889, Note_on_c, 0, 65, 0
2, 67897, Control_c, 0, 64, 0
2, 67931, Note_on_c, 0, 69, 70
2, 67931, Note_on_c, 0, 74, 71
2, 68012, Note_on_c, 0, 69, 0
2, 68015, Note_on_c, 0, 74, 0
2, 68052, Note_on_c, 0, 65, 73
2, 68058, Note_on_c, 0, 48, 67
2, 68073, Note_on_c, 0, 36, 60
2, 68153, Note_on_c, 0, 36, 0
2, 68174, Note_on_c, 0, 48, 0
2, 68299, Note_on_c, 0, 65, 0
2, 68317, Note_on_c, 0, 53, 66
2, 68320, Note_on_c, 0, 74, 71
2, 68320, Note_on_c, 0, 69, 70
2, 68327, Note_on_c, 0, 41, 63
2, 68355, Note_on_c, 0, 69, 0
2, 68383, Note_on_c, 0, 74, 0
2, 68440, Note_on_c, 0, 65, 69
2, 68443, Note_on_c, 0, 69, 71
2, 68641, Note_on_c, 0, 53, 0
2, 68641, Note_on_c, 0, 41, 0
2, 68681, Note_on_c, 0, 69, 0
2, 68686, Note_on_c, 0, 65, 0
2, 68834, Note_on_c, 0, 60, 65
2, 68838, Note_on_c, 0, 48, 64
2, 68838, Note_on_c, 0, 40, 61
2, 68854, Control_c, 0, 64, 127
2, 68907, Control_c, 0, 64, 0
2, 68924, Note_on_c, 0, 40, 0
2, 68951, Note_on_c, 0, 60, 0
2, 68967, Note_on_c, 0, 48, 0
2, 68967, Note_on_c, 0, 61, 64
2, 68970, Note_on_c, 0, 49, 65
2, 69049, Note_on_c, 0, 49, 0
2, 69049, Note_on_c, 0, 61, 0
2, 69099, Note_on_c, 0, 58, 63
2, 69099, Note_on_c, 0, 62, 63
2, 69099, Note_on_c, 0, 60, 63
2, 69106, Note_on_c, 0, 50, 56
2, 69106, Note_on_c, 0, 55, 57
2, 69183, Note_on_c, 0, 62, 0
2, 69183, Note_on_c, 0, 58, 0
2, 69203, Note_on_c, 0, 55, 0
2, 69206, Note_on_c, 0, 60, 0
2, 69206, Note_on_c, 0, 50, 0
2, 69224, Note_on_c, 0, 63, 66
2, 69229, Note_on_c, 0, 51, 63
2, 69287, Note_on_c, 0, 63, 0
2, 69312, Note_on_c, 0, 51, 0
2, 69361, Note_on_c, 0, 55, 63
2, 69368, Note_on_c, 0, 43, 61
2, 69388, Note_on_c, 0, 64, 66
2, 69421, Note_on_c, 0, 64, 0
2, 69444, Note_on_c, 0, 43, 0
2, 69444, Note_on_c, 0, 55, 0
2, 69488, Note_on_c, 0, 60, 67
2, 69488, Note_on_c, 0, 64, 68
2, 69488, Note_on_c, 0, 72, 74
2, 69551, Note_on_c, 0, 60, 0
2, 69618, Note_on_c, 0, 60, 67
2, 69618, Note_on_c, 0, 58, 65
2, 69629, Note_on_c, 0, 55, 61
2, 69701, Note_on_c, 0, 55, 0
2, 69701, Note_on_c, 0, 60, 0
2, 69701, Note_on_c, 0, 58, 0
2, 69742, Note_on_c, 0, 72, 0
2, 69747, Note_on_c, 0, 64, 0
2, 69874, Note_on_c, 0, 70, 69
2, 69881, Note_on_c, 0, 64, 63
2, 69881, Note_on_c, 0, 48, 63
2, 69881, Note_on_c, 0, 60, 63
2, 69881, Note_on_c, 0, 72, 71
2, 69893, Note_on_c, 0, 36, 56
2, 69905, Control_c, 0, 64, 127
2, 69955, Note_on_c, 0, 72, 0
2, 69958, Control_c, 0, 64, 0
2, 69964, Note_on_c, 0, 48, 0
2, 69964, Note_on_c, 0, 70, 0
2, 69964, Note_on_c, 0, 67, 69
2, 69967, Note_on_c, 0, 36, 0
2, 70038, Note_on_c, 0, 37, 63
2, 70038, Note_on_c, 0, 49, 67
2, 70050, Note_on_c, 0, 70, 74
2, 70094, Note_on_c, 0, 49, 0
2, 70097, Note_on_c, 0, 37, 0
2, 70136, Note_on_c, 0, 67, 0
2, 70143, Note_on_c, 0, 72, 74
2, 70143, Note_on_c, 0, 50, 61
2, 70150, Note_on_c, 0, 38, 62
2, 70201, Note_on_c, 0, 67, 74
2, 70226, Note_on_c, 0, 38, 0
2, 70226, Note_on_c, 0, 50, 0
2, 70270, Note_on_c, 0, 51, 62
2, 70275, Note_on_c, 0, 39, 61
2, 70353, Note_on_c, 0, 39, 0
2, 70370, Note_on_c, 0, 51, 0
2, 70400, Note_on_c, 0, 40, 63
2, 70462, Note_on_c, 0, 60, 0
2, 70504, Note_on_c, 0, 40, 0
2, 70525, Note_on_c, 0, 60, 65
2, 70525, Note_on_c, 0, 48, 66
2, 70761, Note_on_c, 0, 60, 0
2, 70786, Note_on_c, 0, 48, 0
2, 70800, Note_on_c, 0, 64, 0
2, 70800, Note_on_c, 0, 67, 0
2, 70804, Note_on_c, 0, 70, 0
2, 70823, Note_on_c, 0, 72, 0
2, 70908, Note_on_c, 0, 65, 72
2, 70916, Note_on_c, 0, 53, 67
2, 70916, Note_on_c, 0, 33, 60
2, 70925, Control_c, 0, 64, 127
2, 70973, Control_c, 0, 64, 0
2, 70982, Note_on_c, 0, 53, 0
2, 71005, Note_on_c, 0, 65, 0
2, 71043, Note_on_c, 0, 66, 72
2, 71050, Note_on_c, 0, 54, 65
2, 71108, Note_on_c, 0, 54, 0
2, 71108, Note_on_c, 0, 66, 0
2, 71175, Note_on_c, 0, 67, 72
2, 71179, Note_on_c, 0, 57, 60
2, 71179, Note_on_c, 0, 53, 63
2, 71179, Note_on_c, 0, 55, 58
2, 71179, Note_on_c, 0, 60, 62
2, 71237, Note_on_c, 0, 53, 0
2, 71237, Note_on_c, 0, 57, 0
2, 71258, Note_on_c, 0, 67, 0
2, 71262, Note_on_c, 0, 60, 0
2, 71262, Note_on_c, 0, 55, 0
2, 71300, Note_on_c, 0, 68, 73
2, 71308, Note_on_c, 0, 56, 64
2, 71364, Note_on_c, 0, 56, 0
2, 71364, Note_on_c, 0, 68, 0
2, 71429, Note_on_c, 0, 69, 73
2, 71434, Note_on_c, 0, 33, 0
2, 71434, Note_on_c, 0, 57, 63
2, 71440, Note_on_c, 0, 36, 60
2, 71492, Note_on_c, 0, 57, 0
2, 71492, Note_on_c, 0, 69, 0
2, 71563, Note_on_c, 0, 69, 68
2, 71563, Note_on_c, 0, 65, 64
2, 71570, Note_on_c, 0, 77, 65
2, 71688, Note_on_c, 0, 53, 63
2, 71688, Note_on_c, 0, 60, 63
2, 71692, Note_on_c, 0, 57, 61
2, 71751, Note_on_c, 0, 57, 0
2, 71751, Note_on_c, 0, 53, 0
2, 71755, Note_on_c, 0, 60, 0
2, 71834, Note_on_c, 0, 69, 0
2, 71834, Note_on_c, 0, 77, 0
2, 71838, Note_on_c, 0, 65, 0
2, 71889, Note_on_c, 0, 36, 0
2, 71943, Note_on_c, 0, 65, 64
2, 71950, Note_on_c, 0, 53, 66
2, 71956, Note_on_c, 0, 77, 65
2, 71956, Note_on_c, 0, 72, 67
2, 71959, Note_on_c, 0, 41, 62
2, 71972, Control_c, 0, 64, 127
2, 72012, Note_on_c, 0, 77, 0
2, 72016, Note_on_c, 0, 53, 0
2, 72019, Note_on_c, 0, 41, 0
2, 72024, Control_c, 0, 64, 0
2, 72037, Note_on_c, 0, 72, 0
2, 72037, Note_on_c, 0, 69, 72
2, 72088, Note_on_c, 0, 54, 63
2, 72088, Note_on_c, 0, 42, 60
2, 72125, Note_on_c, 0, 72, 73
2, 72167, Note_on_c, 0, 42, 0
2, 72167, Note_on_c, 0, 54, 0
2, 72188, Note_on_c, 0, 65, 0
2, 72213, Note_on_c, 0, 77, 71
2, 72213, Note_on_c, 0, 55, 63
2, 72218, Note_on_c, 0, 43, 62
2, 72297, Note_on_c, 0, 43, 0
2, 72317, Note_on_c, 0, 55, 0
2, 72342, Note_on_c, 0, 56, 62
2, 72349, Note_on_c, 0, 44, 62
2, 72421, Note_on_c, 0, 56, 0
2, 72428, Note_on_c, 0, 44, 0
2, 72467, Note_on_c, 0, 69, 0
2, 72470, Note_on_c, 0, 57, 64
2, 72475, Note_on_c, 0, 45, 63
2, 72530, Note_on_c, 0, 57, 0
2, 72534, Note_on_c, 0, 45, 0
2, 72569, Note_on_c, 0, 72, 0
2, 72585, Note_on_c, 0, 65, 73
2, 72592, Note_on_c, 0, 53, 68
2, 72877, Note_on_c, 0, 77, 0
2, 72881, Note_on_c, 0, 53, 0
2, 72884, Note_on_c, 0, 65, 0
2, 72990, Note_on_c, 0, 60, 66
2, 72990, Note_on_c, 0, 72, 74
2, 72990, Note_on_c, 0, 50, 61
2, 72990, Control_c, 0, 64, 127
2, 73018, Note_on_c, 0, 38, 62
2, 73025, Note_on_c, 0, 72, 0
2, 73030, Note_on_c, 0, 60, 0
2, 73050, Control_c, 0, 64, 0
2, 73053, Note_on_c, 0, 50, 0
2, 73053, Note_on_c, 0, 38, 0
2, 73115, Note_on_c, 0, 74, 74
2, 73122, Note_on_c, 0, 62, 69
2, 73162, Note_on_c, 0, 62, 0
2, 73162, Note_on_c, 0, 74, 0
2, 73249, Note_on_c, 0, 81, 70
2, 73249, Note_on_c, 0, 69, 70
2, 73256, Note_on_c, 0, 54, 63
2, 73256, Note_on_c, 0, 42, 61
2, 73289, Note_on_c, 0, 69, 0
2, 73309, Note_on_c, 0, 81, 0
2, 73312, Note_on_c, 0, 54, 0
2, 73312, Note_on_c, 0, 42, 0
2, 73379, Note_on_c, 0, 60, 69
2, 73383, Note_on_c, 0, 72, 74
2, 73420, Note_on_c, 0, 72, 0
2, 73420, Note_on_c, 0, 60, 0
2, 73509, Note_on_c, 0, 74, 74
2, 73515, Note_on_c, 0, 62, 66
2, 73515, Note_on_c, 0, 45, 61
2, 73515, Note_on_c, 0, 57, 63
2, 73552, Note_on_c, 0, 74, 0
2, 73555, Note_on_c, 0, 62, 0
2, 73592, Note_on_c, 0, 57, 0
2, 73596, Note_on_c, 0, 45, 0
2, 73641, Note_on_c, 0, 81, 62
2, 73641, Note_on_c, 0, 78, 60
2, 73647, Note_on_c, 0, 69, 62
2, 73647, Note_on_c, 0, 72, 64
2, 73770, Note_on_c, 0, 57, 59
2, 73775, Note_on_c, 0, 62, 62
2, 73775, Note_on_c, 0, 60, 60
2, 73775, Note_on_c, 0, 50, 55
2, 73779, Note_on_c, 0, 81, 0
2, 73779, Note_on_c, 0, 53, 61
2, 73782, Note_on_c, 0, 72, 0
2, 73782, Note_on_c, 0, 69, 0
2, 73786, Note_on_c, 0, 78, 0
2, 73826, Note_on_c, 0, 57, 0
2, 73830, Note_on_c, 0, 60, 0
2, 73830, Note_on_c, 0, 53, 0
2, 73830, Note_on_c, 0, 50, 0
2, 73833, Note_on_c, 0, 62, 0
2, 74031, Note_on_c, 0, 55, 63
2, 74040, Note_on_c, 0, 43, 63
2, 74040, Control_c, 0, 64, 127
2, 74112, Note_on_c, 0, 43, 0
2, 74112, Note_on_c, 0, 55, 0
2, 74112, Control_c, 0, 64, 0
2, 74161, Note_on_c, 0, 71, 71
2, 74161, Note_on_c, 0, 59, 66
2, 74198, Note_on_c, 0, 59, 0
2, 74202, Note_on_c, 0, 71, 0
2, 74284, Note_on_c, 0, 59, 63
2, 74288, Note_on_c, 0, 74, 73
2, 74288, Note_on_c, 0, 62, 66
2, 74293, Note_on_c, 0, 55, 61
2, 74332, Note_on_c, 0, 74, 0
2, 74369, Note_on_c, 0, 59, 0
2, 74369, Note_on_c, 0, 55, 0
2, 74374, Note_on_c, 0, 62, 0
2, 74409, Note_on_c, 0, 65, 69
2, 74415, Note_on_c, 0, 77, 70
2, 74452, Note_on_c, 0, 77, 0
2, 74457, Note_on_c, 0, 65, 0
2, 74536, Note_on_c, 0, 59, 65
2, 74536, Note_on_c, 0, 71, 72
2, 74542, Note_on_c, 0, 50, 60
2, 74542, Note_on_c, 0, 38, 61
2, 74580, Note_on_c, 0, 59, 0
2, 74584, Note_on_c, 0, 71, 0
2, 74628, Note_on_c, 0, 50, 0
2, 74628, Note_on_c, 0, 38, 0
2, 74667, Note_on_c, 0, 81, 63
2, 74672, Note_on_c, 0, 69, 63
2, 74675, Note_on_c, 0, 71, 60
2, 74675, Note_on_c, 0, 77, 62
2, 74797, Note_on_c, 0, 59, 63
2, 74797, Note_on_c, 0, 62, 65
2, 74804, Note_on_c, 0, 55, 60
2, 74839, Note_on_c, 0, 77, 0
2, 74839, Note_on_c, 0, 69, 0
2, 74839, Note_on_c, 0, 81, 0
2, 74846, Note_on_c, 0, 71, 0
2, 74882, Note_on_c, 0, 55, 0
2, 74882, Note_on_c, 0, 59, 0
2, 74889, Note_on_c, 0, 62, 0
2, 75056, Note_on_c, 0, 48, 67
2, 75068, Note_on_c, 0, 36, 61
2, 75084, Control_c, 0, 64, 127
2, 75126, Control_c, 0, 64, 0
2, 75176, Note_on_c, 0, 36, 0
2, 75176, Note_on_c, 0, 48, 0
2, 75188, Note_on_c, 0, 70, 73
2, 75192, Note_on_c, 0, 58, 67
2, 75236, Note_on_c, 0, 58, 0
2, 75259, Note_on_c, 0, 70, 0
2, 75315, Note_on_c, 0, 58, 65
2, 75315, Note_on_c, 0, 60, 66
2, 75322, Note_on_c, 0, 72, 74
2, 75362, Note_on_c, 0, 72, 0
2, 75387, Note_on_c, 0, 58, 0
2, 75429, Note_on_c, 0, 60, 0
2, 75451, Note_on_c, 0, 76, 74
2, 75495, Note_on_c, 0, 76, 0
2, 75576, Note_on_c, 0, 48, 67
2, 75576, Note_on_c, 0, 70, 66
2, 75579, Note_on_c, 0, 81, 67
2, 75586, Note_on_c, 0, 76, 66
2, 75590, Note_on_c, 0, 36, 60
2, 75620, Note_on_c, 0, 81, 0
2, 75623, Note_on_c, 0, 76, 0
2, 75623, Note_on_c, 0, 70, 0
2, 75688, Note_on_c, 0, 48, 0
2, 75692, Note_on_c, 0, 36, 0
2, 75704, Note_on_c, 0, 70, 66
2, 75704, Note_on_c, 0, 81, 66
2, 75715, Note_on_c, 0, 76, 67
2, 75836, Note_on_c, 0, 58, 67
2, 75840, Note_on_c, 0, 60, 65
2, 75866, Note_on_c, 0, 64, 64
2, 75880, Note_on_c, 0, 81, 0
2, 75884, Note_on_c, 0, 70, 0
2, 75884, Note_on_c, 0, 76, 0
2, 75905, Note_on_c, 0, 58, 0
2, 75905, Note_on_c, 0, 60, 0
2, 75926, Note_on_c, 0, 64, 0
2, 76058, Note_on_c, 0, 41, 67
2, 76093, Note_on_c, 0, 48, 67
2, 76093, Note_on_c, 0, 65, 62
2, 76099, Note_on_c, 0, 69, 67
2, 76102, Note_on_c, 0, 77, 64
2, 76102, Control_c, 0, 64, 127
2, 76141, Note_on_c, 0, 53, 65
2, 76152, Control_c, 0, 64, 0
2, 76160, Note_on_c, 0, 77, 0
2, 76160, Note_on_c, 0, 69, 0
2, 76164, Note_on_c, 0, 41, 0
2, 76185, Note_on_c, 0, 65, 0
2, 76231, Note_on_c, 0, 48, 0
2, 76252, Note_on_c, 0, 53, 0
2, 76615, Note_on_c, 0, 65, 72
2, 76618, Note_on_c, 0, 63, 63
2, 76624, Note_on_c, 0, 53, 62
2, 76624, Note_on_c, 0, 60, 63
2, 76624, Note_on_c, 0, 57, 61
2, 76837, Note_on_c, 0, 57, 0
2, 76837, Note_on_c, 0, 53, 0
2, 76840, Note_on_c, 0, 60, 0
2, 76858, Note_on_c, 0, 63, 0
2, 76865, Note_on_c, 0, 65, 0
2, 77143, Note_on_c, 0, 70, 65
2, 77147, Note_on_c, 0, 62, 64
2, 77147, Note_on_c, 0, 65, 63
2, 77150, Note_on_c, 0, 46, 62
2, 77150, Note_on_c, 0, 74, 66
2, 77171, Control_c, 0, 64, 127
2, 77212, Note_on_c, 0, 46, 0
2, 77212, Control_c, 0, 64, 0
2, 77319, Note_on_c, 0, 62, 0
2, 77400, Note_on_c, 0, 58, 67
2, 77404, Note_on_c, 0, 53, 64
2, 77404, Note_on_c, 0, 62, 64
2, 77467, Note_on_c, 0, 53, 0
2, 77467, Note_on_c, 0, 58, 0
2, 77471, Note_on_c, 0, 62, 0
2, 77552, Note_on_c, 0, 65, 0
2, 77552, Note_on_c, 0, 74, 0
2, 77555, Note_on_c, 0, 70, 0
2, 77654, Note_on_c, 0, 65, 66
2, 77654, Note_on_c, 0, 73, 67
2, 77659, Note_on_c, 0, 53, 65
2, 77659, Note_on_c, 0, 70, 68
2, 77659, Note_on_c, 0, 61, 63
2, 77670, Note_on_c, 0, 41, 61
2, 77719, Note_on_c, 0, 61, 0
2, 77719, Note_on_c, 0, 73, 0
2, 77723, Note_on_c, 0, 70, 0
2, 77723, Note_on_c, 0, 65, 0
2, 77723, Note_on_c, 0, 41, 0
2, 77723, Note_on_c, 0, 53, 0
2, 77786, Note_on_c, 0, 70, 72
2, 77786, Note_on_c, 0, 62, 70
2, 77786, Note_on_c, 0, 65, 67
2, 77790, Note_on_c, 0, 74, 69
2, 77830, Note_on_c, 0, 62, 0
2, 77917, Note_on_c, 0, 53, 64
2, 77917, Note_on_c, 0, 58, 65
2, 77917, Note_on_c, 0, 62, 64
2, 77978, Note_on_c, 0, 58, 0
2, 77978, Note_on_c, 0, 53, 0
2, 77982, Note_on_c, 0, 62, 0
2, 78068, Note_on_c, 0, 74, 0
2, 78068, Note_on_c, 0, 70, 0
2, 78068, Note_on_c, 0, 65, 0
2, 78174, Note_on_c, 0, 65, 64
2, 78174, Note_on_c, 0, 53, 65
2, 78179, Note_on_c, 0, 69, 67
2, 78179, Note_on_c, 0, 77, 64
2, 78183, Note_on_c, 0, 41, 62
2, 78197, Control_c, 0, 64, 127
2, 78241, Note_on_c, 0, 41, 0
2, 78241, Note_on_c, 0, 53, 0
2, 78249, Control_c, 0, 64, 0
2, 78433, Note_on_c, 0, 53, 64
2, 78433, Note_on_c, 0, 60, 63
2, 78436, Note_on_c, 0, 57, 62
2, 78498, Note_on_c, 0, 57, 0
2, 78498, Note_on_c, 0, 53, 0
2, 78501, Note_on_c, 0, 60, 0
2, 78586, Note_on_c, 0, 77, 0
2, 78586, Note_on_c, 0, 69, 0
2, 78589, Note_on_c, 0, 65, 0
2, 78686, Note_on_c, 0, 65, 64
2, 78692, Note_on_c, 0, 68, 67
2, 78692, Note_on_c, 0, 46, 64
2, 78700, Note_on_c, 0, 76, 67
2, 78755, Note_on_c, 0, 76, 0
2, 78755, Note_on_c, 0, 68, 0
2, 78762, Note_on_c, 0, 65, 0
2, 78780, Note_on_c, 0, 46, 0
2, 78818, Note_on_c, 0, 68, 71
2, 78818, Note_on_c, 0, 65, 63
2, 78829, Note_on_c, 0, 77, 67
2, 78951, Note_on_c, 0, 58, 65
2, 78954, Note_on_c, 0, 53, 62
2, 78954, Note_on_c, 0, 62, 63
2, 78958, Note_on_c, 0, 56, 57
2, 79014, Note_on_c, 0, 56, 0
2, 79014, Note_on_c, 0, 53, 0
2, 79017, Note_on_c, 0, 58, 0
2, 79023, Note_on_c, 0, 62, 0
2, 79102, Note_on_c, 0, 68, 0
2, 79102, Note_on_c, 0, 77, 0
2, 79106, Note_on_c, 0, 65, 0
2, 79192, Note_on_c, 0, 39, 62
2, 79206, Control_c, 0, 64, 127
2, 79213, Note_on_c, 0, 63, 65
2, 79213, Note_on_c, 0, 67, 63
2, 79213, Note_on_c, 0, 51, 62
2, 79217, Note_on_c, 0, 70, 66
2, 79217, Note_on_c, 0, 75, 67
2, 79254, Control_c, 0, 64, 0
2, 79386, Note_on_c, 0, 51, 0
2, 79474, Note_on_c, 0, 58, 67
2, 79479, Note_on_c, 0, 51, 60
2, 79479, Note_on_c, 0, 55, 61
2, 79558, Note_on_c, 0, 55, 0
2, 79564, Note_on_c, 0, 58, 0
2, 79581, Note_on_c, 0, 51, 0
2, 79618, Note_on_c, 0, 75, 0
2, 79643, Note_on_c, 0, 67, 0
2, 79643, Note_on_c, 0, 63, 0
2, 79648, Note_on_c, 0, 70, 0
2, 79729, Note_on_c, 0, 70, 70
2, 79729, Note_on_c, 0, 67, 68
2, 79736, Note_on_c, 0, 55, 62
2, 79736, Note_on_c, 0, 51, 62
2, 79736, Note_on_c, 0, 58, 65
2, 79798, Note_on_c, 0, 70, 0
2, 79814, Note_on_c, 0, 67, 0
2, 79817, Note_on_c, 0, 58, 0
2, 79837, Note_on_c, 0, 51, 0
2, 79837, Note_on_c, 0, 55, 0
2, 79859, Note_on_c, 0, 70, 70
2, 79859, Note_on_c, 0, 66, 65
2, 79859, Note_on_c, 0, 60, 68
2, 79868, Note_on_c, 0, 72, 67
2, 79881, Note_on_c, 0, 39, 0
2, 79988, Note_on_c, 0, 51, 64
2, 79993, Note_on_c, 0, 39, 63
2, 80138, Note_on_c, 0, 66, 0
2, 80141, Note_on_c, 0, 39, 0
2, 80157, Note_on_c, 0, 72, 0
2, 80161, Note_on_c, 0, 70, 0
2, 80161, Note_on_c, 0, 60, 0
2, 80180, Note_on_c, 0, 51, 0
2, 80240, Note_on_c, 0, 65, 63
2, 80245, Note_on_c, 0, 70, 67
2, 80245, Note_on_c, 0, 74, 67
2, 80245, Note_on_c, 0, 62, 64
2, 80249, Note_on_c, 0, 46, 62
2, 80263, Note_on_c, 0, 70, 0
2, 80273, Control_c, 0, 64, 127
2, 80316, Control_c, 0, 64, 0
2, 80330, Note_on_c, 0, 74, 0
2, 80330, Note_on_c, 0, 70, 66
2, 80333, Note_on_c, 0, 46, 0
2, 80384, Note_on_c, 0, 35, 61
2, 80384, Note_on_c, 0, 47, 63
2, 80414, Note_on_c, 0, 74, 74
2, 80435, Note_on_c, 0, 47, 0
2, 80439, Note_on_c, 0, 35, 0
2, 80502, Note_on_c, 0, 48, 67
2, 80518, Note_on_c, 0, 36, 60
2, 80589, Note_on_c, 0, 36, 0
2, 80589, Note_on_c, 0, 48, 0
2, 80631, Note_on_c, 0, 49, 66
2, 80635, Note_on_c, 0, 37, 63
2, 80689, Note_on_c, 0, 49, 0
2, 80693, Note_on_c, 0, 37, 0
2, 80761, Note_on_c, 0, 50, 62
2, 80786, Note_on_c, 0, 38, 63
2, 80869, Note_on_c, 0, 38, 0
2, 80869, Note_on_c, 0, 50, 0
2, 80883, Note_on_c, 0, 58, 67
2, 80892, Note_on_c, 0, 46, 63
2, 81103, Note_on_c, 0, 62, 0
2, 81142, Note_on_c, 0, 58, 0
2, 81142, Note_on_c, 0, 74, 0
2, 81145, Note_on_c, 0, 70, 0
2, 81166, Note_on_c, 0, 46, 0
2, 81166, Note_on_c, 0, 65, 0
2, 81269, Note_on_c, 0, 67, 67
2, 81272, Control_c, 0, 64, 127
2, 81272, Note_on_c, 0, 63, 63
2, 81272, Note_on_c, 0, 51, 60
2, 81272, Note_on_c, 0, 39, 59
2, 81272, Note_on_c, 0, 60, 63
2, 81279, Note_on_c, 0, 72, 70
2, 81325, Control_c, 0, 64, 0
2, 81330, Control_c, 0, 64, 0
2, 81357, Note_on_c, 0, 51, 0
2, 81533, Note_on_c, 0, 58, 67
2, 81536, Note_on_c, 0, 51, 63
2, 81542, Note_on_c, 0, 55, 61
2, 81596, Note_on_c, 0, 58, 0
2, 81614, Note_on_c, 0, 55, 0
2, 81614, Note_on_c, 0, 51, 0
2, 81639, Note_on_c, 0, 39, 0
2, 81676, Note_on_c, 0, 67, 0
2, 81676, Note_on_c, 0, 63, 0
2, 81676, Note_on_c, 0, 72, 0
2, 81681, Note_on_c, 0, 60, 0
2, 81781, Note_on_c, 0, 67, 73
2, 81788, Note_on_c, 0, 63, 67
2, 81792, Note_on_c, 0, 55, 60
2, 81792, Note_on_c, 0, 51, 60
2, 81792, Note_on_c, 0, 39, 60
2, 81848, Note_on_c, 0, 63, 0
2, 81848, Note_on_c, 0, 67, 0
2, 81871, Note_on_c, 0, 51, 0
2, 81871, Note_on_c, 0, 55, 0
2, 81913, Note_on_c, 0, 67, 70
2, 81917, Note_on_c, 0, 63, 69
2, 81917, Note_on_c, 0, 60, 67
2, 81922, Note_on_c, 0, 72, 71
2, 82049, Note_on_c, 0, 58, 65
2, 82049, Note_on_c, 0, 51, 62
2, 82052, Note_on_c, 0, 55, 61
2, 82107, Note_on_c, 0, 58, 0
2, 82123, Note_on_c, 0, 55, 0
2, 82123, Note_on_c, 0, 51, 0
2, 82188, Note_on_c, 0, 67, 0
2, 82188, Note_on_c, 0, 63, 0
2, 82192, Note_on_c, 0, 60, 0
2, 82229, Note_on_c, 0, 72, 0
2, 82237, Note_on_c, 0, 39, 0
2, 82294, Note_on_c, 0, 70, 71
2, 82294, Note_on_c, 0, 65, 68
2, 82303, Note_on_c, 0, 62, 64
2, 82303, Note_on_c, 0, 58, 63
2, 82308, Note_on_c, 0, 46, 60
2, 82329, Control_c, 0, 64, 127
2, 82366, Note_on_c, 0, 46, 0
2, 82366, Control_c, 0, 64, 0
2, 82454, Note_on_c, 0, 58, 0
2, 82555, Note_on_c, 0, 58, 67
2, 82555, Note_on_c, 0, 53, 66
2, 82616, Note_on_c, 0, 53, 0
2, 82620, Note_on_c, 0, 58, 0
2, 82702, Note_on_c, 0, 62, 0
2, 82702, Note_on_c, 0, 65, 0
2, 82702, Note_on_c, 0, 70, 0
2, 82810, Note_on_c, 0, 65, 64
2, 82810, Note_on_c, 0, 70, 67
2, 82813, Note_on_c, 0, 53, 62
2, 82813, Note_on_c, 0, 60, 63
2, 82813, Note_on_c, 0, 62, 66
2, 82817, Note_on_c, 0, 72, 68
2, 82824, Note_on_c, 0, 41, 59
2, 82870, Note_on_c, 0, 53, 0
2, 82873, Note_on_c, 0, 62, 0
2, 82873, Note_on_c, 0, 65, 0
2, 82873, Note_on_c, 0, 70, 0
2, 82876, Note_on_c, 0, 60, 0
2, 82876, Note_on_c, 0, 41, 0
2, 82912, Note_on_c, 0, 72, 0
2, 82933, Note_on_c, 0, 65, 65
2, 82933, Note_on_c, 0, 70, 73
2, 82937, Note_on_c, 0, 62, 71
2, 82940, Note_on_c, 0, 74, 68
2, 83065, Note_on_c, 0, 58, 67
2, 83069, Note_on_c, 0, 53, 65
2, 83125, Note_on_c, 0, 53, 0
2, 83125, Note_on_c, 0, 58, 0
2, 83257, Note_on_c, 0, 70, 0
2, 83257, Note_on_c, 0, 65, 0
2, 83257, Note_on_c, 0, 74, 0
2, 83261, Note_on_c, 0, 62, 0
2, 83317, Note_on_c, 0, 70, 74
2, 83321, Note_on_c, 0, 74, 72
2, 83324, Note_on_c, 0, 62, 68
2, 83328, Note_on_c, 0, 55, 59
2, 83333, Note_on_c, 0, 43, 57
2, 83333, Control_c, 0, 64, 127
2, 83351, Control_c, 0, 64, 0
2, 83351, Note_on_c, 0, 64, 63
2, 83402, Note_on_c, 0, 55, 0
2, 83405, Note_on_c, 0, 43, 0
2, 83574, Note_on_c, 0, 58, 67
2, 83578, Note_on_c, 0, 60, 64
2, 83581, Note_on_c, 0, 55, 61
2, 83655, Note_on_c, 0, 60, 0
2, 83655, Note_on_c, 0, 58, 0
2, 83675, Note_on_c, 0, 55, 0
2, 83699, Note_on_c, 0, 70, 0
2, 83742, Note_on_c, 0, 74, 0
2, 83742, Note_on_c, 0, 64, 0
2, 83745, Note_on_c, 0, 62, 0
2, 83819, Note_on_c, 0, 70, 70
2, 83825, Note_on_c, 0, 73, 70
2, 83832, Note_on_c, 0, 61, 62
2, 83832, Note_on_c, 0, 64, 62
2, 83835, Note_on_c, 0, 48, 63
2, 83847, Note_on_c, 0, 36, 57
2, 83890, Note_on_c, 0, 64, 0
2, 83897, Note_on_c, 0, 70, 0
2, 83907, Note_on_c, 0, 73, 0
2, 83907, Note_on_c, 0, 61, 0
2, 83914, Note_on_c, 0, 36, 0
2, 83914, Note_on_c, 0, 48, 0
2, 83948, Note_on_c, 0, 70, 70
2, 83953, Note_on_c, 0, 62, 69
2, 83953, Note_on_c, 0, 74, 72
2, 83958, Note_on_c, 0, 64, 68
2, 84085, Note_on_c, 0, 58, 65
2, 84091, Note_on_c, 0, 55, 61
2, 84091, Note_on_c, 0, 60, 63
2, 84147, Note_on_c, 0, 60, 0
2, 84147, Note_on_c, 0, 55, 0
2, 84150, Note_on_c, 0, 58, 0
2, 84217, Note_on_c, 0, 74, 0
2, 84217, Note_on_c, 0, 70, 0
2, 84240, Note_on_c, 0, 62, 0
2, 84240, Note_on_c, 0, 64, 0
2, 84346, Note_on_c, 0, 65, 62
2, 84346, Note_on_c, 0, 53, 63
2, 84353, Note_on_c, 0, 69, 64
2, 84353, Note_on_c, 0, 60, 64
2, 84357, Note_on_c, 0, 72, 66
2, 84360, Note_on_c, 0, 41, 61
2, 84367, Note_on_c, 0, 69, 0
2, 84379, Control_c, 0, 64, 127
2, 84422, Control_c, 0, 64, 0
2, 84427, Note_on_c, 0, 72, 0
2, 84432, Note_on_c, 0, 53, 0
2, 84432, Note_on_c, 0, 41, 0
2, 84432, Note_on_c, 0, 69, 59
2, 84482, Note_on_c, 0, 54, 62
2, 84482, Note_on_c, 0, 42, 59
2, 84497, Note_on_c, 0, 72, 73
2, 84561, Note_on_c, 0, 42, 0
2, 84561, Note_on_c, 0, 54, 0
2, 84608, Note_on_c, 0, 55, 63
2, 84621, Note_on_c, 0, 43, 63
2, 84689, Note_on_c, 0, 43, 0
2, 84689, Note_on_c, 0, 55, 0
2, 84739, Note_on_c, 0, 56, 61
2, 84744, Note_on_c, 0, 44, 62
2, 84792, Note_on_c, 0, 56, 0
2, 84797, Note_on_c, 0, 44, 0
2, 84862, Note_on_c, 0, 57, 64
2, 84866, Note_on_c, 0, 45, 63
2, 84880, Note_on_c, 0, 65, 0
2, 84962, Note_on_c, 0, 57, 0
2, 84968, Note_on_c, 0, 45, 0
2, 84987, Note_on_c, 0, 65, 72
2, 84992, Note_on_c, 0, 53, 67
2, 85204, Note_on_c, 0, 53, 0
2, 85221, Note_on_c, 0, 65, 0
2, 85241, Note_on_c, 0, 69, 0
2, 85244, Note_on_c, 0, 60, 0
2, 85260, Note_on_c, 0, 72, 0
2, 85376, Note_on_c, 0, 70, 68
2, 85376, Note_on_c, 0, 65, 66
2, 85376, Note_on_c, 0, 74, 67
2, 85380, Note_on_c, 0, 62, 65
2, 85385, Note_on_c, 0, 46, 62
2, 85410, Control_c, 0, 64, 127
2, 85452, Control_c, 0, 64, 0
2, 85565, Note_on_c, 0, 46, 0
2, 85630, Note_on_c, 0, 58, 67
2, 85630, Note_on_c, 0, 46, 69
2, 85780, Note_on_c, 0, 58, 0
2, 85780, Note_on_c, 0, 70, 0
2, 85780, Note_on_c, 0, 74, 0
2, 85780, Note_on_c, 0, 65, 0
2, 85785, Note_on_c, 0, 62, 0
2, 85803, Note_on_c, 0, 46, 0
2, 85882, Note_on_c, 0, 65, 66
2, 85885, Note_on_c, 0, 73, 67
2, 85885, Note_on_c, 0, 61, 64
2, 85885, Note_on_c, 0, 70, 69
2, 85891, Note_on_c, 0, 57, 63
2, 85896, Note_on_c, 0, 45, 61
2, 85947, Note_on_c, 0, 61, 0
2, 85947, Note_on_c, 0, 73, 0
2, 85952, Note_on_c, 0, 70, 0
2, 85952, Note_on_c, 0, 65, 0
2, 86009, Note_on_c, 0, 65, 62
2, 86012, Note_on_c, 0, 70, 72
2, 86019, Note_on_c, 0, 62, 69
2, 86019, Note_on_c, 0, 74, 69
2, 86058, Note_on_c, 0, 45, 0
2, 86058, Note_on_c, 0, 57, 0
2, 86151, Note_on_c, 0, 56, 62
2, 86158, Note_on_c, 0, 44, 63
2, 86289, Note_on_c, 0, 56, 0
2, 86294, Note_on_c, 0, 74, 0
2, 86294, Note_on_c, 0, 65, 0
2, 86294, Note_on_c, 0, 70, 0
2, 86294, Note_on_c, 0, 44, 0
2, 86294, Note_on_c, 0, 62, 0
2, 86400, Note_on_c, 0, 65, 65
2, 86403, Note_on_c, 0, 55, 63
2, 86409, Note_on_c, 0, 71, 64
2, 86412, Note_on_c, 0, 77, 65
2, 86416, Note_on_c, 0, 43, 62
2, 86424, Control_c, 0, 64, 127
2, 86461, Control_c, 0, 64, 0
2, 86465, Note_on_c, 0, 43, 0
2, 86507, Note_on_c, 0, 55, 0
2, 86664, Note_on_c, 0, 59, 63
2, 86664, Note_on_c, 0, 62, 66
2, 86669, Note_on_c, 0, 55, 62
2, 86717, Note_on_c, 0, 59, 0
2, 86724, Note_on_c, 0, 62, 0
2, 86740, Note_on_c, 0, 55, 0
2, 86801, Note_on_c, 0, 77, 0
2, 86807, Note_on_c, 0, 71, 0
2, 86807, Note_on_c, 0, 65, 0
2, 86918, Note_on_c, 0, 71, 69
2, 86918, Note_on_c, 0, 64, 63
2, 86918, Note_on_c, 0, 76, 70
2, 86923, Note_on_c, 0, 31, 60
2, 86923, Note_on_c, 0, 43, 62
2, 86974, Note_on_c, 0, 76, 0
2, 86974, Note_on_c, 0, 64, 0
2, 86978, Note_on_c, 0, 43, 0
2, 86978, Note_on_c, 0, 71, 0
2, 87006, Note_on_c, 0, 31, 0
2, 87036, Note_on_c, 0, 65, 65
2, 87045, Note_on_c, 0, 71, 68
2, 87050, Note_on_c, 0, 77, 68
2, 87171, Note_on_c, 0, 59, 63
2, 87171, Note_on_c, 0, 62, 66
2, 87178, Note_on_c, 0, 55, 61
2, 87231, Note_on_c, 0, 59, 0
2, 87237, Note_on_c, 0, 62, 0
2, 87254, Note_on_c, 0, 55, 0
2, 87316, Note_on_c, 0, 77, 0
2, 87321, Note_on_c, 0, 71, 0
2, 87321, Note_on_c, 0, 65, 0
2, 87425, Note_on_c, 0, 70, 66
2, 87425, Note_on_c, 0, 63, 64
2, 87425, Note_on_c, 0, 48, 64
2, 87425, Note_on_c, 0, 67, 63
2, 87430, Note_on_c, 0, 75, 67
2, 87443, Note_on_c, 0, 36, 58
2, 87450, Control_c, 0, 64, 127
2, 87487, Control_c, 0, 64, 0
2, 87573, Note_on_c, 0, 67, 0
2, 87578, Note_on_c, 0, 48, 0
2, 87578, Note_on_c, 0, 70, 0
2, 87584, Note_on_c, 0, 36, 0
2, 87592, Note_on_c, 0, 75, 0
2, 87659, Note_on_c, 0, 63, 0
2, 87682, Note_on_c, 0, 70, 71
2, 87682, Note_on_c, 0, 67, 69
2, 87686, Note_on_c, 0, 58, 66
2, 87691, Note_on_c, 0, 50, 58
2, 87696, Note_on_c, 0, 38, 60
2, 87830, Note_on_c, 0, 67, 0
2, 87835, Note_on_c, 0, 50, 0
2, 87835, Note_on_c, 0, 38, 0
2, 87855, Note_on_c, 0, 58, 0
2, 87855, Note_on_c, 0, 70, 0
2, 87941, Note_on_c, 0, 70, 65
2, 87945, Note_on_c, 0, 67, 65
2, 87945, Note_on_c, 0, 60, 64
2, 87945, Note_on_c, 0, 51, 61
2, 87952, Note_on_c, 0, 72, 68
2, 87952, Note_on_c, 0, 39, 59
2, 88089, Note_on_c, 0, 51, 0
2, 88089, Note_on_c, 0, 67, 0
2, 88089, Note_on_c, 0, 70, 0
2, 88094, Note_on_c, 0, 39, 0
2, 88114, Note_on_c, 0, 60, 0
2, 88149, Note_on_c, 0, 72, 0
2, 88198, Note_on_c, 0, 73, 65
2, 88198, Note_on_c, 0, 67, 65
2, 88198, Note_on_c, 0, 61, 63
2, 88204, Note_on_c, 0, 70, 68
2, 88204, Note_on_c, 0, 51, 62
2, 88211, Note_on_c, 0, 39, 60
2, 88392, Note_on_c, 0, 39, 0
2, 88408, Note_on_c, 0, 61, 0
2, 88411, Note_on_c, 0, 51, 0
2, 88450, Note_on_c, 0, 73, 0
2, 88450, Note_on_c, 0, 67, 0
2, 88461, Note_on_c, 0, 70, 0
2, 88461, Note_on_c, 0, 74, 61
2, 88461, Note_on_c, 0, 62, 67
2, 88464, Note_on_c, 0, 66, 61
2, 88464, Note_on_c, 0, 69, 57
2, 88468, Note_on_c, 0, 50, 59
2, 88471, Note_on_c, 0, 38, 60
2, 88478, Note_on_c, 0, 69, 0
2, 88491, Control_c, 0, 64, 127
2, 88528, Control_c, 0, 64, 0
2, 88542, Note_on_c, 0, 50, 0
2, 88542, Note_on_c, 0, 74, 0
2, 88547, Note_on_c, 0, 69, 61
2, 88588, Note_on_c, 0, 51, 63
2, 88588, Note_on_c, 0, 39, 62
2, 88609, Note_on_c, 0, 38, 0
2, 88628, Note_on_c, 0, 74, 72
2, 88646, Note_on_c, 0, 39, 0
2, 88665, Note_on_c, 0, 51, 0
2, 88714, Note_on_c, 0, 52, 64
2, 88714, Note_on_c, 0, 40, 62
2, 88795, Note_on_c, 0, 40, 0
2, 88795, Note_on_c, 0, 52, 0
2, 88845, Note_on_c, 0, 53, 66
2, 88852, Note_on_c, 0, 41, 63
2, 88901, Note_on_c, 0, 41, 0
2, 88901, Note_on_c, 0, 53, 0
2, 88977, Note_on_c, 0, 42, 61
2, 88977, Note_on_c, 0, 54, 63
2, 89014, Note_on_c, 0, 62, 0
2, 89051, Note_on_c, 0, 42, 0
2, 89051, Note_on_c, 0, 54, 0
2, 89097, Note_on_c, 0, 62, 67
2, 89104, Note_on_c, 0, 50, 62
2, 89338, Note_on_c, 0, 66, 0
2, 89338, Note_on_c, 0, 69, 0
2, 89341, Note_on_c, 0, 50, 0
2, 89341, Note_on_c, 0, 74, 0
2, 89368, Note_on_c, 0, 62, 0
2, 89477, Note_on_c, 0, 67, 63
2, 89477, Note_on_c, 0, 70, 67
2, 89477, Note_on_c, 0, 60, 65
2, 89477, Note_on_c, 0, 51, 61
2, 89482, Note_on_c, 0, 72, 67
2, 89488, Note_on_c, 0, 39, 59
2, 89495, Control_c, 0, 64, 127
2, 89548, Control_c, 0, 64, 0
2, 89572, Note_on_c, 0, 51, 0
2, 89724, Note_on_c, 0, 58, 67
2, 89724, Note_on_c, 0, 51, 63
2, 89731, Note_on_c, 0, 55, 61
2, 89805, Note_on_c, 0, 55, 0
2, 89805, Note_on_c, 0, 58, 0
2, 89826, Note_on_c, 0, 51, 0
2, 89868, Note_on_c, 0, 67, 0
2, 89868, Note_on_c, 0, 60, 0
2, 89873, Note_on_c, 0, 39, 0
2, 89873, Note_on_c, 0, 70, 0
2, 89888, Note_on_c, 0, 72, 0
2, 89983, Note_on_c, 0, 67, 73
2, 89986, Note_on_c, 0, 51, 63
2, 89991, Note_on_c, 0, 39, 62
2, 89991, Note_on_c, 0, 55, 62
2, 90037, Note_on_c, 0, 67, 0
2, 90060, Note_on_c, 0, 55, 0
2, 90065, Note_on_c, 0, 39, 0
2, 90085, Note_on_c, 0, 51, 0
2, 90106, Note_on_c, 0, 67, 67
2, 90106, Note_on_c, 0, 70, 67
2, 90109, Note_on_c, 0, 60, 68
2, 90115, Note_on_c, 0, 72, 69
2, 90243, Note_on_c, 0, 40, 64
2, 90300, Note_on_c, 0, 40, 0
2, 90379, Note_on_c, 0, 67, 0
2, 90384, Note_on_c, 0, 70, 0
2, 90384, Note_on_c, 0, 60, 0
2, 90400, Note_on_c, 0, 72, 0
2, 90486, Note_on_c, 0, 70, 74
2, 90490, Note_on_c, 0, 62, 66
2, 90497, Note_on_c, 0, 58, 63
2, 90497, Note_on_c, 0, 53, 62
2, 90504, Note_on_c, 0, 41, 59
2, 90530, Control_c, 0, 64, 127
2, 90567, Note_on_c, 0, 53, 0
2, 90567, Control_c, 0, 64, 0
2, 90596, Note_on_c, 0, 41, 0
2, 90656, Note_on_c, 0, 58, 0
2, 90745, Note_on_c, 0, 58, 66
2, 90754, Note_on_c, 0, 53, 65
2, 90802, Note_on_c, 0, 53, 0
2, 90802, Note_on_c, 0, 58, 0
2, 90892, Note_on_c, 0, 62, 0
2, 90892, Note_on_c, 0, 70, 0
2, 90997, Note_on_c, 0, 70, 66
2, 91004, Note_on_c, 0, 60, 64
2, 91004, Note_on_c, 0, 67, 64
2, 91004, Note_on_c, 0, 72, 68
2, 91004, Note_on_c, 0, 64, 61
2, 91011, Note_on_c, 0, 55, 59
2, 91034, Note_on_c, 0, 64, 0
2, 91057, Note_on_c, 0, 67, 0
2, 91057, Note_on_c, 0, 43, 62
2, 91061, Note_on_c, 0, 70, 0
2, 91061, Note_on_c, 0, 60, 0
2, 91073, Note_on_c, 0, 72, 0
2, 91124, Note_on_c, 0, 73, 70
2, 91124, Note_on_c, 0, 70, 74
2, 91128, Note_on_c, 0, 61, 66
2, 91131, Note_on_c, 0, 64, 65
2, 91200, Note_on_c, 0, 43, 0
2, 91223, Note_on_c, 0, 55, 0
2, 91260, Note_on_c, 0, 42, 60
2, 91267, Note_on_c, 0, 54, 62
2, 91390, Note_on_c, 0, 61, 0
2, 91394, Note_on_c, 0, 73, 0
2, 91394, Note_on_c, 0, 64, 0
2, 91397, Note_on_c, 0, 70, 0
2, 91459, Note_on_c, 0, 42, 0
2, 91459, Note_on_c, 0, 54, 0
2, 91508, Note_on_c, 0, 70, 68
2, 91508, Note_on_c, 0, 65, 62
2, 91512, Note_on_c, 0, 62, 66
2, 91512, Note_on_c, 0, 53, 63
2, 91512, Note_on_c, 0, 74, 67
2, 91524, Note_on_c, 0, 41, 60
2, 91566, Control_c, 0, 64, 127
2, 91619, Control_c, 0, 64, 0
2, 91668, Note_on_c, 0, 62, 0
2, 91668, Note_on_c, 0, 70, 0
2, 91690, Note_on_c, 0, 53, 0
2, 91690, Note_on_c, 0, 65, 0
2, 91690, Note_on_c, 0, 74, 0
2, 91695, Note_on_c, 0, 41, 0
2, 91756, Note_on_c, 0, 70, 73
2, 91763, Note_on_c, 0, 58, 66
2, 91763, Note_on_c, 0, 62, 66
2, 91772, Note_on_c, 0, 55, 61
2, 91818, Note_on_c, 0, 43, 63
2, 91948, Note_on_c, 0, 70, 0
2, 91968, Note_on_c, 0, 58, 0
2, 91968, Note_on_c, 0, 43, 0
2, 91984, Note_on_c, 0, 55, 0
2, 91996, Note_on_c, 0, 62, 0
2, 92010, Note_on_c, 0, 70, 74
2, 92015, Note_on_c, 0, 67, 68
2, 92026, Note_on_c, 0, 64, 62
2, 92033, Note_on_c, 0, 48, 63
2, 92037, Note_on_c, 0, 58, 67
2, 92068, Note_on_c, 0, 36, 59
2, 92088, Note_on_c, 0, 64, 0
2, 92088, Note_on_c, 0, 67, 0
2, 92091, Note_on_c, 0, 70, 0
2, 92091, Note_on_c, 0, 58, 0
2, 92146, Note_on_c, 0, 60, 67
2, 92146, Note_on_c, 0, 63, 67
2, 92146, Note_on_c, 0, 69, 68
2, 92151, Note_on_c, 0, 72, 71
2, 92223, Note_on_c, 0, 36, 0
2, 92223, Note_on_c, 0, 48, 0
2, 92276, Note_on_c, 0, 53, 64
2, 92292, Note_on_c, 0, 41, 64
2, 92406, Note_on_c, 0, 69, 0
2, 92426, Note_on_c, 0, 63, 0
2, 92426, Note_on_c, 0, 72, 0
2, 92433, Note_on_c, 0, 60, 0
2, 92470, Note_on_c, 0, 53, 0
2, 92470, Note_on_c, 0, 41, 0
2, 92516, Note_on_c, 0, 70, 74
2, 92523, Note_on_c, 0, 58, 64
2, 92523, Note_on_c, 0, 62, 65
2, 92528, Note_on_c, 0, 46, 61
2, 92549, Control_c, 0, 64, 127
2, 92591, Control_c, 0, 64, 0
2, 92598, Note_on_c, 0, 58, 0
2, 92602, Note_on_c, 0, 70, 0
2, 92602, Note_on_c, 0, 62, 0
2, 92641, Note_on_c, 0, 65, 67
2, 92653, Note_on_c, 0, 77, 68
2, 92697, Note_on_c, 0, 77, 0
2, 92702, Note_on_c, 0, 46, 0
2, 92746, Note_on_c, 0, 65, 0
2, 92768, Note_on_c, 0, 64, 68
2, 92768, Note_on_c, 0, 76, 73
2, 92843, Note_on_c, 0, 76, 0
2, 92843, Note_on_c, 0, 64, 0
2, 92893, Note_on_c, 0, 77, 70
2, 92893, Note_on_c, 0, 65, 70
2, 92944, Note_on_c, 0, 77, 0
2, 92993, Note_on_c, 0, 65, 0
2, 93012, Note_on_c, 0, 67, 69
2, 93016, Note_on_c, 0, 79, 68
2, 93092, Note_on_c, 0, 79, 0
2, 93092, Note_on_c, 0, 67, 0
2, 93136, Note_on_c, 0, 81, 71
2, 93143, Note_on_c, 0, 69, 71
2, 93199, Note_on_c, 0, 69, 0
2, 93199, Note_on_c, 0, 81, 0
2, 93271, Note_on_c, 0, 70, 71
2, 93271, Note_on_c, 0, 82, 71
2, 93354, Note_on_c, 0, 70, 0
2, 93372, Note_on_c, 0, 82, 0
2, 93398, Note_on_c, 0, 84, 70
2, 93405, Note_on_c, 0, 72, 73
2, 93453, Note_on_c, 0, 84, 0
2, 93497, Note_on_c, 0, 72, 0
2, 93528, Note_on_c, 0, 82, 66
2, 93528, Note_on_c, 0, 74, 63
2, 93532, Note_on_c, 0, 46, 64
2, 93532, Note_on_c, 0, 77, 61
2, 93536, Note_on_c, 0, 86, 58
2, 93541, Control_c, 0, 64, 127
2, 93585, Control_c, 0, 64, 0
2, 93613, Note_on_c, 0, 46, 0
2, 93791, Note_on_c, 0, 62, 66
2, 93791, Note_on_c, 0, 53, 64
2, 93791, Note_on_c, 0, 58, 65
2, 93842, Note_on_c, 0, 58, 0
2, 93863, Note_on_c, 0, 62, 0
2, 93863, Note_on_c, 0, 53, 0
2, 93942, Note_on_c, 0, 86, 0
2, 93946, Note_on_c, 0, 77, 0
2, 93946, Note_on_c, 0, 82, 0
2, 93992, Note_on_c, 0, 74, 0
2, 94041, Note_on_c, 0, 73, 62
2, 94041, Note_on_c, 0, 85, 58
2, 94041, Note_on_c, 0, 53, 66
2, 94046, Note_on_c, 0, 82, 66
2, 94050, Note_on_c, 0, 77, 63
2, 94055, Note_on_c, 0, 41, 63
2, 94097, Note_on_c, 0, 77, 0
2, 94097, Note_on_c, 0, 82, 0
2, 94097, Note_on_c, 0, 85, 0
2, 94101, Note_on_c, 0, 53, 0
2, 94120, Note_on_c, 0, 73, 0
2, 94124, Note_on_c, 0, 41, 0
2, 94168, Note_on_c, 0, 82, 69
2, 94171, Note_on_c, 0, 74, 67
2, 94171, Note_on_c, 0, 77, 67
2, 94212, Note_on_c, 0, 86, 71
2, 94295, Note_on_c, 0, 58, 67
2, 94302, Note_on_c, 0, 53, 63
2, 94302, Note_on_c, 0, 62, 66
2, 94351, Note_on_c, 0, 53, 0
2, 94355, Note_on_c, 0, 58, 0
2, 94378, Note_on_c, 0, 62, 0
2, 94436, Note_on_c, 0, 77, 0
2, 94436, Note_on_c, 0, 86, 0
2, 94436, Note_on_c, 0, 82, 0
2, 94441, Note_on_c, 0, 74, 0
2, 94550, Note_on_c, 0, 81, 70
2, 94555, Note_on_c, 0, 53, 65
2, 94555, Note_on_c, 0, 77, 68
2, 94573, Note_on_c, 0, 41, 64
2, 94578, Control_c, 0, 64, 127
2, 94578, Note_on_c, 0, 89, 71
2, 94608, Note_on_c, 0, 41, 0
2, 94608, Note_on_c, 0, 53, 0
2, 94621, Control_c, 0, 64, 0
2, 94790, Note_on_c, 0, 57, 63
2, 94790, Note_on_c, 0, 53, 64
2, 94793, Note_on_c, 0, 60, 63
2, 94835, Note_on_c, 0, 53, 0
2, 94835, Note_on_c, 0, 57, 0
2, 94839, Note_on_c, 0, 60, 0
2, 94941, Note_on_c, 0, 77, 0
2, 94941, Note_on_c, 0, 81, 0
2, 94945, Note_on_c, 0, 89, 0
2, 95059, Note_on_c, 0, 88, 67
2, 95059, Note_on_c, 0, 46, 65
2, 95059, Note_on_c, 0, 80, 66
2, 95064, Note_on_c, 0, 77, 67
2, 95116, Note_on_c, 0, 77, 0
2, 95116, Note_on_c, 0, 80, 0
2, 95116, Note_on_c, 0, 88, 0
2, 95119, Note_on_c, 0, 46, 0
2, 95184, Note_on_c, 0, 77, 69
2, 95184, Note_on_c, 0, 80, 68
2, 95190, Note_on_c, 0, 89, 70
2, 95313, Note_on_c, 0, 53, 63
2, 95313, Note_on_c, 0, 62, 65
2, 95316, Note_on_c, 0, 58, 63
2, 95320, Note_on_c, 0, 56, 57
2, 95364, Note_on_c, 0, 56, 0
2, 95367, Note_on_c, 0, 53, 0
2, 95371, Note_on_c, 0, 62, 0
2, 95371, Note_on_c, 0, 58, 0
2, 95454, Note_on_c, 0, 77, 0
2, 95454, Note_on_c, 0, 89, 0
2, 95454, Note_on_c, 0, 80, 0
2, 95568, Note_on_c, 0, 82, 62
2, 95568, Note_on_c, 0, 51, 63
2, 95572, Note_on_c, 0, 75, 62
2, 95575, Note_on_c, 0, 87, 58
2, 95575, Note_on_c, 0, 79, 56
2, 95582, Note_on_c, 0, 39, 61
2, 95593, Control_c, 0, 64, 127
2, 95640, Control_c, 0, 64, 0
2, 95644, Note_on_c, 0, 51, 0
2, 95672, Note_on_c, 0, 58, 68
2, 95750, Note_on_c, 0, 58, 0
2, 95815, Note_on_c, 0, 58, 70
2, 95822, Note_on_c, 0, 51, 62
2, 95825, Note_on_c, 0, 55, 62
2, 95875, Note_on_c, 0, 58, 0
2, 95894, Note_on_c, 0, 55, 0
2, 95894, Note_on_c, 0, 51, 0
2, 95977, Note_on_c, 0, 79, 0
2, 95977, Note_on_c, 0, 87, 0
2, 95977, Note_on_c, 0, 75, 0
2, 96028, Note_on_c, 0, 82, 0
2, 96061, Note_on_c, 0, 82, 57
2, 96070, Note_on_c, 0, 58, 66
2, 96070, Note_on_c, 0, 70, 68
2, 96074, Note_on_c, 0, 51, 61
2, 96074, Note_on_c, 0, 79, 63
2, 96081, Note_on_c, 0, 55, 61
2, 96107, Note_on_c, 0, 82, 0
2, 96128, Note_on_c, 0, 70, 0
2, 96128, Note_on_c, 0, 58, 0
2, 96128, Note_on_c, 0, 79, 0
2, 96172, Note_on_c, 0, 55, 0
2, 96172, Note_on_c, 0, 51, 0
2, 96197, Note_on_c, 0, 78, 60
2, 96201, Note_on_c, 0, 82, 64
2, 96201, Note_on_c, 0, 84, 60
2, 96211, Note_on_c, 0, 72, 64
2, 96241, Note_on_c, 0, 39, 0
2, 96326, Note_on_c, 0, 51, 64
2, 96335, Note_on_c, 0, 39, 59
2, 96412, Note_on_c, 0, 39, 0
2, 96428, Note_on_c, 0, 51, 0
2, 96490, Note_on_c, 0, 72, 0
2, 96490, Note_on_c, 0, 84, 0
2, 96495, Note_on_c, 0, 78, 0
2, 96514, Note_on_c, 0, 82, 0
2, 96585, Note_on_c, 0, 82, 65
2, 96585, Control_c, 0, 64, 127
2, 96585, Note_on_c, 0, 74, 60
2, 96585, Note_on_c, 0, 46, 64
2, 96590, Note_on_c, 0, 86, 57
2, 96590, Note_on_c, 0, 77, 58
2, 96597, Note_on_c, 0, 82, 0
2, 96639, Control_c, 0, 64, 0
2, 96660, Note_on_c, 0, 86, 0
2, 96660, Note_on_c, 0, 82, 58
2, 96667, Note_on_c, 0, 46, 0
2, 96715, Note_on_c, 0, 47, 63
2, 96715, Note_on_c, 0, 35, 62
2, 96752, Note_on_c, 0, 86, 69
2, 96768, Note_on_c, 0, 47, 0
2, 96775, Note_on_c, 0, 35, 0
2, 96835, Note_on_c, 0, 48, 67
2, 96851, Note_on_c, 0, 36, 61
2, 96923, Note_on_c, 0, 36, 0
2, 96944, Note_on_c, 0, 48, 0
2, 96969, Note_on_c, 0, 49, 66
2, 96976, Note_on_c, 0, 37, 63
2, 97027, Note_on_c, 0, 37, 0
2, 97027, Note_on_c, 0, 49, 0
2, 97101, Note_on_c, 0, 50, 62
2, 97104, Note_on_c, 0, 38, 63
2, 97221, Note_on_c, 0, 38, 0
2, 97221, Note_on_c, 0, 58, 65
2, 97226, Note_on_c, 0, 50, 0
2, 97226, Note_on_c, 0, 46, 63
2, 97457, Note_on_c, 0, 58, 0
2, 97474, Note_on_c, 0, 77, 0
2, 97478, Note_on_c, 0, 46, 0
2, 97492, Note_on_c, 0, 86, 0
2, 97501, Note_on_c, 0, 74, 0
2, 97516, Note_on_c, 0, 82, 0
2, 97603, Note_on_c, 0, 51, 63
2, 97603, Note_on_c, 0, 79, 58
2, 97606, Note_on_c, 0, 75, 63
2, 97606, Note_on_c, 0, 84, 61
2, 97606, Note_on_c, 0, 39, 61
2, 97612, Control_c, 0, 64, 127
2, 97612, Note_on_c, 0, 72, 63
2, 97654, Control_c, 0, 64, 0
2, 97686, Note_on_c, 0, 39, 0
2, 97703, Note_on_c, 0, 51, 0
2, 97728, Note_on_c, 0, 60, 67
2, 97789, Note_on_c, 0, 60, 0
2, 97860, Note_on_c, 0, 51, 63
2, 97860, Note_on_c, 0, 58, 66
2, 97865, Note_on_c, 0, 55, 61
2, 97920, Note_on_c, 0, 55, 0
2, 97920, Note_on_c, 0, 58, 0
2, 97941, Note_on_c, 0, 51, 0
2, 97978, Note_on_c, 0, 75, 0
2, 97981, Note_on_c, 0, 79, 0
2, 98041, Note_on_c, 0, 84, 0
2, 98064, Note_on_c, 0, 72, 0
2, 98112, Note_on_c, 0, 75, 69
2, 98112, Note_on_c, 0, 51, 63
2, 98112, Note_on_c, 0, 67, 65
2, 98112, Note_on_c, 0, 79, 64
2, 98122, Note_on_c, 0, 39, 61
2, 98166, Note_on_c, 0, 75, 0
2, 98170, Note_on_c, 0, 79, 0
2, 98191, Note_on_c, 0, 67, 0
2, 98198, Note_on_c, 0, 39, 0
2, 98214, Note_on_c, 0, 51, 0
2, 98239, Note_on_c, 0, 75, 66
2, 98239, Note_on_c, 0, 79, 62
2, 98244, Note_on_c, 0, 84, 62
2, 98247, Note_on_c, 0, 72, 65
2, 98369, Note_on_c, 0, 58, 66
2, 98369, Note_on_c, 0, 51, 62
2, 98373, Note_on_c, 0, 55, 61
2, 98448, Note_on_c, 0, 55, 0
2, 98448, Note_on_c, 0, 58, 0
2, 98469, Note_on_c, 0, 51, 0
2, 98506, Note_on_c, 0, 84, 0
2, 98506, Note_on_c, 0, 75, 0
2, 98510, Note_on_c, 0, 79, 0
2, 98572, Note_on_c, 0, 72, 0
2, 98614, Note_on_c, 0, 82, 64
2, 98617, Note_on_c, 0, 77, 59
2, 98617, Note_on_c, 0, 46, 64
2, 98617, Note_on_c, 0, 74, 63
2, 98617, Note_on_c, 0, 70, 63
2, 98621, Control_c, 0, 64, 127
2, 98658, Control_c, 0, 64, 0
2, 98700, Note_on_c, 0, 46, 0
2, 98741, Note_on_c, 0, 50, 64
2, 98829, Note_on_c, 0, 50, 0
2, 98862, Note_on_c, 0, 58, 68
2, 98867, Note_on_c, 0, 53, 66
2, 98927, Note_on_c, 0, 53, 0
2, 98931, Note_on_c, 0, 58, 0
2, 99008, Note_on_c, 0, 82, 0
2, 99008, Note_on_c, 0, 77, 0
2, 99015, Note_on_c, 0, 74, 0
2, 99015, Note_on_c, 0, 70, 0
2, 99118, Note_on_c, 0, 82, 63
2, 99118, Note_on_c, 0, 53, 65
2, 99118, Note_on_c, 0, 74, 60
2, 99123, Note_on_c, 0, 84, 57
2, 99126, Note_on_c, 0, 72, 61
2, 99126, Note_on_c, 0, 77, 58
2, 99126, Note_on_c, 0, 41, 62
2, 99176, Note_on_c, 0, 77, 0
2, 99176, Note_on_c, 0, 82, 0
2, 99179, Note_on_c, 0, 53, 0
2, 99179, Note_on_c, 0, 74, 0
2, 99202, Note_on_c, 0, 84, 0
2, 99202, Note_on_c, 0, 72, 0
2, 99202, Note_on_c, 0, 41, 0
2, 99244, Note_on_c, 0, 82, 69
2, 99244, Note_on_c, 0, 74, 64
2, 99248, Note_on_c, 0, 77, 64
2, 99255, Note_on_c, 0, 86, 60
2, 99378, Note_on_c, 0, 58, 67
2, 99382, Note_on_c, 0, 53, 65
2, 99438, Note_on_c, 0, 53, 0
2, 99438, Note_on_c, 0, 58, 0
2, 99519, Note_on_c, 0, 77, 0
2, 99523, Note_on_c, 0, 74, 0
2, 99540, Note_on_c, 0, 82, 0
2, 99540, Note_on_c, 0, 86, 0
2, 99630, Note_on_c, 0, 82, 63
2, 99635, Note_on_c, 0, 74, 64
2, 99635, Note_on_c, 0, 55, 62
2, 99635, Note_on_c, 0, 86, 59
2, 99639, Note_on_c, 0, 76, 60
2, 99643, Note_on_c, 0, 43, 62
2, 99657, Control_c, 0, 64, 127
2, 99704, Control_c, 0, 64, 0
2, 99713, Note_on_c, 0, 43, 0
2, 99734, Note_on_c, 0, 55, 0
2, 99761, Note_on_c, 0, 60, 67
2, 99820, Note_on_c, 0, 60, 0
2, 99886, Note_on_c, 0, 60, 67
2, 99886, Note_on_c, 0, 58, 66
2, 99893, Note_on_c, 0, 55, 61
2, 99942, Note_on_c, 0, 58, 0
2, 99942, Note_on_c, 0, 60, 0
2, 99963, Note_on_c, 0, 55, 0
2, 100030, Note_on_c, 0, 76, 0
2, 100034, Note_on_c, 0, 74, 0
2, 100044, Note_on_c, 0, 86, 0
2, 100051, Note_on_c, 0, 82, 0
2, 100132, Note_on_c, 0, 82, 63
2, 100139, Note_on_c, 0, 73, 62
2, 100139, Note_on_c, 0, 85, 59
2, 100139, Note_on_c, 0, 48, 66
2, 100145, Note_on_c, 0, 76, 63
2, 100157, Note_on_c, 0, 36, 61
2, 100192, Note_on_c, 0, 85, 0
2, 100192, Note_on_c, 0, 73, 0
2, 100196, Note_on_c, 0, 82, 0
2, 100196, Note_on_c, 0, 76, 0
2, 100196, Note_on_c, 0, 36, 0
2, 100240, Note_on_c, 0, 48, 0
2, 100259, Note_on_c, 0, 74, 68
2, 100259, Note_on_c, 0, 82, 72
2, 100266, Note_on_c, 0, 76, 69
2, 100294, Note_on_c, 0, 86, 73
2, 100393, Note_on_c, 0, 58, 66
2, 100393, Note_on_c, 0, 60, 64
2, 100405, Note_on_c, 0, 55, 60
2, 100467, Note_on_c, 0, 60, 0
2, 100467, Note_on_c, 0, 58, 0
2, 100486, Note_on_c, 0, 55, 0
2, 100546, Note_on_c, 0, 86, 0
2, 100550, Note_on_c, 0, 82, 0
2, 100553, Note_on_c, 0, 76, 0
2, 100592, Note_on_c, 0, 74, 0
2, 100643, Note_on_c, 0, 53, 67
2, 100643, Note_on_c, 0, 41, 59
2, 100650, Note_on_c, 0, 81, 44
2, 100654, Note_on_c, 0, 77, 59
2, 100657, Note_on_c, 0, 84, 61
2, 100661, Note_on_c, 0, 72, 65
2, 100666, Control_c, 0, 64, 127
2, 100675, Note_on_c, 0, 81, 0
2, 100703, Control_c, 0, 64, 0
2, 100717, Note_on_c, 0, 84, 0
2, 100721, Note_on_c, 0, 53, 0
2, 100721, Note_on_c, 0, 41, 0
2, 100724, Note_on_c, 0, 81, 71
2, 100791, Note_on_c, 0, 54, 62
2, 100809, Note_on_c, 0, 42, 60
2, 100821, Note_on_c, 0, 84, 70
2, 100828, Note_on_c, 0, 42, 0
2, 100828, Note_on_c, 0, 54, 0
2, 100913, Note_on_c, 0, 55, 66
2, 100913, Note_on_c, 0, 43, 66
2, 100995, Note_on_c, 0, 43, 0
2, 100995, Note_on_c, 0, 55, 0
2, 101041, Note_on_c, 0, 56, 62
2, 101048, Note_on_c, 0, 44, 62
2, 101075, Note_on_c, 0, 56, 0
2, 101082, Note_on_c, 0, 44, 0
2, 101187, Note_on_c, 0, 57, 66
2, 101187, Note_on_c, 0, 45, 63
2, 101267, Note_on_c, 0, 45, 0
2, 101267, Note_on_c, 0, 57, 0
2, 101286, Note_on_c, 0, 65, 63
2, 101293, Note_on_c, 0, 53, 67
2, 101497, Note_on_c, 0, 53, 0
2, 101497, Note_on_c, 0, 65, 0
2, 101517, Note_on_c, 0, 84, 0
2, 101559, Note_on_c, 0, 72, 0
2, 101559, Note_on_c, 0, 77, 0
2, 101578, Note_on_c, 0, 81, 0
2, 101652, Note_on_c, 0, 74, 66
2, 101652, Note_on_c, 0, 82, 68
2, 101652, Note_on_c, 0, 86, 67
2, 101663, Note_on_c, 0, 77, 66
2, 101668, Note_on_c, 0, 46, 65
2, 101705, Control_c, 0, 64, 127
2, 101709, Control_c, 0, 64, 0
2, 101834, Note_on_c, 0, 46, 0
2, 101917, Note_on_c, 0, 58, 68
2, 101917, Note_on_c, 0, 46, 67
2, 102017, Note_on_c, 0, 86, 0
2, 102017, Note_on_c, 0, 82, 0
2, 102021, Note_on_c, 0, 77, 0
2, 102021, Note_on_c, 0, 74, 0
2, 102059, Note_on_c, 0, 46, 0
2, 102059, Note_on_c, 0, 58, 0
2, 102156, Note_on_c, 0, 73, 62
2, 102156, Note_on_c, 0, 77, 62
2, 102165, Note_on_c, 0, 82, 65
2, 102165, Note_on_c, 0, 85, 59
2, 102170, Note_on_c, 0, 57, 65
2, 102170, Note_on_c, 0, 45, 67
2, 102205, Note_on_c, 0, 82, 0
2, 102205, Note_on_c, 0, 73, 0
2, 102205, Note_on_c, 0, 77, 0
2, 102251, Note_on_c, 0, 85, 0
2, 102278, Note_on_c, 0, 77, 66
2, 102287, Note_on_c, 0, 74, 67
2, 102287, Note_on_c, 0, 82, 68
2, 102287, Note_on_c, 0, 86, 70
2, 102331, Note_on_c, 0, 57, 0
2, 102331, Note_on_c, 0, 45, 0
2, 102426, Note_on_c, 0, 56, 61
2, 102426, Note_on_c, 0, 44, 63
2, 102542, Note_on_c, 0, 82, 0
2, 102542, Note_on_c, 0, 77, 0
2, 102542, Note_on_c, 0, 86, 0
2, 102545, Note_on_c, 0, 74, 0
2, 102579, Note_on_c, 0, 56, 0
2, 102579, Note_on_c, 0, 44, 0
2, 102663, Note_on_c, 0, 77, 66
2, 102667, Note_on_c, 0, 89, 67
2, 102667, Note_on_c, 0, 83, 66
2, 102679, Note_on_c, 0, 55, 64
2, 102679, Note_on_c, 0, 43, 67
2, 102711, Control_c, 0, 64, 127
2, 102732, Note_on_c, 0, 55, 0
2, 102764, Control_c, 0, 64, 0
2, 102917, Note_on_c, 0, 59, 64
2, 102917, Note_on_c, 0, 55, 67
2, 102917, Note_on_c, 0, 62, 67
2, 102958, Note_on_c, 0, 55, 0
2, 102958, Note_on_c, 0, 59, 0
2, 102981, Note_on_c, 0, 43, 0
2, 102988, Note_on_c, 0, 62, 0
2, 103065, Note_on_c, 0, 77, 0
2, 103084, Note_on_c, 0, 83, 0
2, 103111, Note_on_c, 0, 89, 0
2, 103167, Note_on_c, 0, 88, 66
2, 103167, Note_on_c, 0, 76, 70
2, 103167, Note_on_c, 0, 43, 70
2, 103170, Note_on_c, 0, 31, 70
2, 103170, Note_on_c, 0, 83, 64
2, 103218, Note_on_c, 0, 83, 0
2, 103227, Note_on_c, 0, 43, 0
2, 103227, Note_on_c, 0, 31, 0
2, 103232, Note_on_c, 0, 76, 0
2, 103232, Note_on_c, 0, 88, 0
2, 103298, Note_on_c, 0, 77, 65
2, 103298, Note_on_c, 0, 89, 67
2, 103308, Note_on_c, 0, 83, 69
2, 103417, Note_on_c, 0, 59, 70
2, 103417, Note_on_c, 0, 62, 69
2, 103417, Note_on_c, 0, 55, 70
2, 103460, Note_on_c, 0, 55, 0
2, 103460, Note_on_c, 0, 59, 0
2, 103484, Note_on_c, 0, 62, 0
2, 103546, Note_on_c, 0, 83, 0
2, 103549, Note_on_c, 0, 77, 0
2, 103553, Note_on_c, 0, 89, 0
2, 103671, Note_on_c, 0, 82, 68
2, 103671, Note_on_c, 0, 87, 70
2, 103671, Note_on_c, 0, 36, 68
2, 103674, Note_on_c, 0, 48, 68
2, 103674, Note_on_c, 0, 75, 70
2, 103685, Note_on_c, 0, 79, 67
2, 103798, Note_on_c, 0, 79, 0
2, 103801, Note_on_c, 0, 87, 0
2, 103801, Note_on_c, 0, 82, 0
2, 103801, Note_on_c, 0, 48, 0
2, 103807, Note_on_c, 0, 75, 0
2, 103821, Note_on_c, 0, 36, 0
2, 103918, Note_on_c, 0, 79, 61
2, 103923, Note_on_c, 0, 82, 67
2, 103928, Note_on_c, 0, 70, 67
2, 103933, Note_on_c, 0, 50, 63
2, 103933, Note_on_c, 0, 38, 64
2, 103948, Control_c, 0, 64, 127
2, 103995, Control_c, 0, 64, 0
2, 104052, Note_on_c, 0, 70, 0
2, 104052, Note_on_c, 0, 79, 0
2, 104055, Note_on_c, 0, 50, 0
2, 104076, Note_on_c, 0, 82, 0
2, 104118, Note_on_c, 0, 38, 0
2, 104173, Note_on_c, 0, 51, 65
2, 104173, Note_on_c, 0, 39, 63
2, 104173, Note_on_c, 0, 82, 64
2, 104177, Note_on_c, 0, 79, 59
2, 104177, Note_on_c, 0, 84, 61
2, 104184, Note_on_c, 0, 72, 64
2, 104303, Note_on_c, 0, 72, 0
2, 104303, Note_on_c, 0, 79, 0
2, 104307, Note_on_c, 0, 82, 0
2, 104326, Note_on_c, 0, 51, 0
2, 104326, Note_on_c, 0, 39, 0
2, 104346, Note_on_c, 0, 84, 0
2, 104416, Note_on_c, 0, 73, 62
2, 104420, Note_on_c, 0, 85, 59
2, 104420, Note_on_c, 0, 82, 65
2, 104420, Note_on_c, 0, 51, 62
2, 104420, Note_on_c, 0, 79, 59
2, 104428, Note_on_c, 0, 39, 62
2, 104559, Note_on_c, 0, 79, 0
2, 104599, Note_on_c, 0, 82, 0
2, 104599, Note_on_c, 0, 73, 0
2, 104603, Note_on_c, 0, 39, 0
2, 104622, Note_on_c, 0, 85, 0
2, 104642, Note_on_c, 0, 51, 0
2, 104664, Note_on_c, 0, 81, 63
2, 104670, Note_on_c, 0, 78, 62
2, 104673, Note_on_c, 0, 74, 62
2, 104673, Note_on_c, 0, 50, 60
2, 104679, Note_on_c, 0, 81, 0
2, 104691, Note_on_c, 0, 38, 62
2, 104691, Note_on_c, 0, 86, 67
2, 104709, Control_c, 0, 64, 127
2, 104733, Note_on_c, 0, 50, 0
2, 104746, Note_on_c, 0, 81, 59
2, 104756, Control_c, 0, 64, 0
2, 104761, Note_on_c, 0, 86, 0
2, 104770, Note_on_c, 0, 38, 0
2, 104820, Note_on_c, 0, 51, 63
2, 104832, Note_on_c, 0, 39, 62
2, 104837, Note_on_c, 0, 86, 68
2, 104871, Note_on_c, 0, 39, 0
2, 104888, Note_on_c, 0, 51, 0
2, 104925, Note_on_c, 0, 40, 66
2, 104973, Note_on_c, 0, 40, 0
2, 105043, Note_on_c, 0, 53, 67
2, 105070, Note_on_c, 0, 41, 64
2, 105094, Note_on_c, 0, 53, 0
2, 105119, Note_on_c, 0, 41, 0
2, 105172, Note_on_c, 0, 54, 63
2, 105181, Note_on_c, 0, 42, 60
2, 105288, Note_on_c, 0, 42, 0
2, 105288, Note_on_c, 0, 54, 0
2, 105297, Note_on_c, 0, 50, 60
2, 105297, Note_on_c, 0, 62, 67
2, 105559, Note_on_c, 0, 81, 0
2, 105559, Note_on_c, 0, 86, 0
2, 105566, Note_on_c, 0, 78, 0
2, 105566, Note_on_c, 0, 50, 0
2, 105566, Note_on_c, 0, 62, 0
2, 105607, Note_on_c, 0, 74, 0
2, 105672, Note_on_c, 0, 51, 63
2, 105676, Note_on_c, 0, 82, 63
2, 105676, Note_on_c, 0, 79, 57
2, 105676, Note_on_c, 0, 84, 61
2, 105681, Note_on_c, 0, 39, 61
2, 105681, Note_on_c, 0, 72, 63
2, 105691, Control_c, 0, 64, 127
2, 105744, Control_c, 0, 64, 0
2, 105771, Note_on_c, 0, 51, 0
2, 105797, Note_on_c, 0, 58, 67
2, 105855, Note_on_c, 0, 58, 0
2, 105919, Note_on_c, 0, 58, 70
2, 105924, Note_on_c, 0, 51, 63
2, 105927, Note_on_c, 0, 55, 61
2, 105984, Note_on_c, 0, 55, 0
2, 105987, Note_on_c, 0, 58, 0
2, 106007, Note_on_c, 0, 51, 0
2, 106026, Note_on_c, 0, 84, 0
2, 106026, Note_on_c, 0, 82, 0
2, 106031, Note_on_c, 0, 39, 0
2, 106107, Note_on_c, 0, 72, 0
2, 106111, Note_on_c, 0, 79, 0
2, 106172, Note_on_c, 0, 79, 70
2, 106172, Note_on_c, 0, 67, 69
2, 106172, Note_on_c, 0, 51, 64
2, 106181, Note_on_c, 0, 39, 63
2, 106234, Note_on_c, 0, 79, 0
2, 106255, Note_on_c, 0, 67, 0
2, 106304, Note_on_c, 0, 82, 64
2, 106304, Note_on_c, 0, 79, 62
2, 106308, Note_on_c, 0, 84, 62
2, 106313, Note_on_c, 0, 72, 65
2, 106320, Note_on_c, 0, 39, 0
2, 106340, Note_on_c, 0, 51, 0
2, 106437, Note_on_c, 0, 40, 66
2, 106570, Note_on_c, 0, 79, 0
2, 106576, Note_on_c, 0, 40, 0
2, 106592, Note_on_c, 0, 84, 0
2, 106592, Note_on_c, 0, 72, 0
2, 106595, Note_on_c, 0, 82, 0
2, 106681, Note_on_c, 0, 70, 65
2, 106681, Note_on_c, 0, 53, 66
2, 106681, Note_on_c, 0, 74, 67
2, 106681, Note_on_c, 0, 82, 67
2, 106690, Note_on_c, 0, 41, 63
2, 106711, Control_c, 0, 64, 127
2, 106759, Note_on_c, 0, 53, 0
2, 106759, Control_c, 0, 64, 0
2, 106762, Note_on_c, 0, 41, 0
2, 106805, Note_on_c, 0, 58, 69
2, 106847, Note_on_c, 0, 58, 0
2, 106930, Note_on_c, 0, 58, 66
2, 106933, Note_on_c, 0, 53, 66
2, 107013, Note_on_c, 0, 53, 0
2, 107013, Note_on_c, 0, 58, 0
2, 107099, Note_on_c, 0, 70, 0
2, 107099, Note_on_c, 0, 74, 0
2, 107124, Note_on_c, 0, 82, 0
2, 107182, Note_on_c, 0, 82, 64
2, 107190, Note_on_c, 0, 79, 53
2, 107190, Note_on_c, 0, 55, 63
2, 107190, Note_on_c, 0, 84, 58
2, 107196, Note_on_c, 0, 72, 60
2, 107196, Note_on_c, 0, 43, 62
2, 107199, Note_on_c, 0, 76, 59
2, 107264, Note_on_c, 0, 76, 0
2, 107264, Note_on_c, 0, 82, 0
2, 107264, Note_on_c, 0, 79, 0
2, 107284, Note_on_c, 0, 72, 0
2, 107284, Note_on_c, 0, 84, 0
2, 107307, Note_on_c, 0, 82, 60
2, 107307, Note_on_c, 0, 73, 63
2, 107310, Note_on_c, 0, 85, 61
2, 107319, Note_on_c, 0, 76, 60
2, 107326, Note_on_c, 0, 43, 0
2, 107345, Note_on_c, 0, 55, 0
2, 107441, Note_on_c, 0, 54, 63
2, 107446, Note_on_c, 0, 42, 61
2, 107578, Note_on_c, 0, 42, 0
2, 107578, Note_on_c, 0, 54, 0
2, 107597, Note_on_c, 0, 85, 0
2, 107597, Note_on_c, 0, 82, 0
2, 107601, Note_on_c, 0, 76, 0
2, 107636, Note_on_c, 0, 73, 0
2, 107677, Note_on_c, 0, 82, 64
2, 107680, Note_on_c, 0, 53, 65
2, 107685, Note_on_c, 0, 74, 62
2, 107685, Note_on_c, 0, 86, 59
2, 107689, Note_on_c, 0, 41, 63
2, 107689, Note_on_c, 0, 77, 59
2, 107712, Control_c, 0, 64, 127
2, 107779, Control_c, 0, 64, 0
2, 107826, Note_on_c, 0, 77, 0
2, 107826, Note_on_c, 0, 53, 0
2, 107826, Note_on_c, 0, 82, 0
2, 107826, Note_on_c, 0, 41, 0
2, 107830, Note_on_c, 0, 74, 0
2, 107847, Note_on_c, 0, 86, 0
2, 107929, Note_on_c, 0, 82, 70
2, 107932, Note_on_c, 0, 70, 71
2, 107932, Note_on_c, 0, 74, 70
2, 107936, Note_on_c, 0, 55, 68
2, 107939, Note_on_c, 0, 43, 65
2, 108073, Note_on_c, 0, 43, 0
2, 108076, Note_on_c, 0, 74, 0
2, 108076, Note_on_c, 0, 70, 0
2, 108094, Note_on_c, 0, 82, 0
2, 108094, Note_on_c, 0, 55, 0
2, 108177, Note_on_c, 0, 70, 62
2, 108177, Note_on_c, 0, 48, 67
2, 108184, Note_on_c, 0, 82, 65
2, 108184, Note_on_c, 0, 79, 59
2, 108187, Note_on_c, 0, 76, 63
2, 108196, Note_on_c, 0, 36, 60
2, 108240, Note_on_c, 0, 79, 0
2, 108246, Note_on_c, 0, 70, 0
2, 108260, Note_on_c, 0, 82, 0
2, 108263, Note_on_c, 0, 76, 0
2, 108307, Note_on_c, 0, 75, 64
2, 108307, Note_on_c, 0, 84, 63
2, 108307, Note_on_c, 0, 72, 64
2, 108328, Note_on_c, 0, 81, 69
2, 108334, Note_on_c, 0, 36, 0
2, 108349, Note_on_c, 0, 48, 0
2, 108431, Note_on_c, 0, 53, 66
2, 108438, Note_on_c, 0, 41, 63
2, 108571, Note_on_c, 0, 75, 0
2, 108571, Note_on_c, 0, 81, 0
2, 108575, Note_on_c, 0, 72, 0
2, 108575, Note_on_c, 0, 53, 0
2, 108578, Note_on_c, 0, 41, 0
2, 108578, Note_on_c, 0, 84, 0
2, 108642, Note_on_c, 0, 46, 67
2, 108681, Note_on_c, 0, 82, 67
2, 108681, Note_on_c, 0, 74, 66
2, 108681, Control_c, 0, 64, 127
2, 108681, Note_on_c, 0, 53, 67
2, 108688, Note_on_c, 0, 70, 67
2, 108725, Note_on_c, 0, 58, 67
2, 108730, Control_c, 0, 64, 0
2, 108744, Note_on_c, 0, 70, 0
2, 108744, Note_on_c, 0, 82, 0
2, 108748, Note_on_c, 0, 74, 0
2, 108954, Note_on_c, 0, 58, 0
2, 108954, Note_on_c, 0, 53, 0
2, 108975, Note_on_c, 0, 46, 0
2, 109176, Note_on_c, 0, 94, 70
2, 109184, Note_on_c, 0, 82, 68
2, 109184, Note_on_c, 0, 86, 63
2, 109184, Note_on_c, 0, 46, 65
2, 109187, Note_on_c, 0, 34, 63
2, 109206, Note_on_c, 0, 89, 72
2, 109264, Note_on_c, 0, 86, 0
2, 109264, Note_on_c, 0, 94, 0
2, 109267, Note_on_c, 0, 46, 0
2, 109267, Note_on_c, 0, 34, 0
2, 109267, Note_on_c, 0, 89, 0
2, 109290, Note_on_c, 0, 82, 0
2, 109290, End_track
3, 0, Start_track
3, 1, Copyright_t, "___________________________________________________\012\012KUNSTDERFUGE.COM LARGE CLASSICAL MIDI COLLECTION\012ONCLASSICAL BY ALESSANDRO SIMONETTO, PROPRIETOR\012___________________________________________________\012\012! Attention: this file is under copyright !\012\012(c)onclassical, (nc)smythe, 2010\012___________________________________________________\012\012NO ONE MAY REPUBLISH THIS FILE WITHOUT PERMISSION\012COMMERCIAL USES OF THIS FILE IS STRICTLY PROHIBITED\012___________________________________________________\012\012Files & contributor's list: http://kunstderfuge.com/\012Terms and conditions: http://kunstderfuge.com/notes.htm"
3, 1, End_track
0, 0, End_of_file
