0, 0, Header, 1, 17, 384
1, 0, Start_track
1, 0, Time_signature, 4, 2, 96, 8
1, 0, Sequencer_specific, 3, 0, 0, 65
1, 0, Tempo, 500000
1, 0, End_track
2, 0, Start_track
2, 0, Title_t, "Scott Joplin's Rag-Time performance"
2, 0, Key_signature, 0, "major"
2, 1844, Note_on_c, 1, 58, 51
2, 1844, Note_on_c, 1, 94, 62
2, 1844, Note_on_c, 1, 70, 55
2, 1844, Control_c, 1, 121, 127
2, 1848, Note_on_c, 1, 82, 66
2, 1848, Control_c, 1, 64, 127
2, 1872, Note_off_c, 1, 58, 64
2, 1896, Note_off_c, 1, 82, 64
2, 1904, Note_off_c, 1, 70, 64
2, 1928, Note_off_c, 1, 94, 64
2, 1940, Note_on_c, 1, 83, 68
2, 1948, Note_on_c, 1, 95, 49
2, 1948, Note_on_c, 1, 71, 61
2, 1956, Note_on_c, 1, 59, 62
2, 1960, Control_c, 1, 64, 0
2, 2028, Note_off_c, 1, 71, 64
2, 2032, Note_off_c, 1, 83, 64
2, 2032, Note_off_c, 1, 95, 64
2, 2040, Note_off_c, 1, 59, 64
2, 2136, Note_on_c, 1, 94, 70
2, 2136, Note_on_c, 1, 58, 68
2, 2136, Note_on_c, 1, 82, 71
2, 2140, Note_on_c, 1, 70, 60
2, 2140, Control_c, 1, 64, 127
2, 2188, Note_off_c, 1, 58, 64
2, 2188, Note_off_c, 1, 82, 64
2, 2196, Note_off_c, 1, 70, 64
2, 2208, Note_off_c, 1, 94, 64
2, 2248, Note_on_c, 1, 59, 71
2, 2248, Note_on_c, 1, 83, 80
2, 2248, Note_on_c, 1, 95, 78
2, 2248, Note_on_c, 1, 71, 64
2, 2256, Control_c, 1, 64, 0
2, 2280, Control_c, 1, 64, 127
2, 2324, Note_off_c, 1, 71, 64
2, 2328, Note_off_c, 1, 83, 64
2, 2328, Note_off_c, 1, 95, 64
2, 2340, Note_off_c, 1, 59, 64
2, 2372, Control_c, 1, 64, 0
2, 2448, Note_on_c, 1, 94, 80
2, 2448, Note_on_c, 1, 82, 85
2, 2448, Note_on_c, 1, 58, 71
2, 2448, Note_on_c, 1, 70, 60
2, 2484, Note_off_c, 1, 58, 64
2, 2492, Note_off_c, 1, 94, 64
2, 2492, Note_off_c, 1, 82, 64
2, 2492, Note_off_c, 1, 70, 64
2, 2540, Note_on_c, 1, 95, 80
2, 2540, Note_on_c, 1, 83, 80
2, 2540, Note_on_c, 1, 59, 77
2, 2540, Note_on_c, 1, 71, 68
2, 2556, Note_off_c, 1, 95, 64
2, 2556, Note_off_c, 1, 83, 64
2, 2560, Note_off_c, 1, 71, 64
2, 2564, Note_off_c, 1, 59, 64
2, 2596, Control_c, 1, 64, 0
2, 2648, Note_on_c, 1, 78, 85
2, 2648, Note_on_c, 1, 90, 75
2, 2652, Note_on_c, 1, 54, 75
2, 2652, Note_on_c, 1, 66, 71
2, 2660, Control_c, 1, 64, 127
2, 2692, Note_off_c, 1, 54, 64
2, 2708, Note_off_c, 1, 78, 64
2, 2708, Note_off_c, 1, 66, 64
2, 2712, Note_off_c, 1, 90, 64
2, 2744, Note_on_c, 1, 91, 78
2, 2748, Note_on_c, 1, 55, 73
2, 2748, Note_on_c, 1, 79, 80
2, 2752, Note_on_c, 1, 67, 73
2, 2760, Control_c, 1, 64, 0
2, 2820, Note_off_c, 1, 91, 64
2, 2820, Note_off_c, 1, 79, 64
2, 2820, Note_off_c, 1, 67, 64
2, 2828, Note_off_c, 1, 55, 64
2, 2964, Note_on_c, 1, 52, 71
2, 2964, Note_on_c, 1, 88, 88
2, 2964, Note_on_c, 1, 64, 70
2, 2968, Note_on_c, 1, 76, 85
2, 2968, Control_c, 1, 64, 127
2, 3024, Note_off_c, 1, 76, 64
2, 3028, Note_off_c, 1, 88, 64
2, 3052, Note_off_c, 1, 52, 64
2, 3052, Note_off_c, 1, 64, 64
2, 3256, Control_c, 1, 64, 0
2, 3476, Note_on_c, 1, 66, 44
2, 3480, Note_on_c, 1, 78, 58
2, 3480, Note_on_c, 1, 54, 53
2, 3480, Note_on_c, 1, 90, 38
2, 3488, Control_c, 1, 64, 127
2, 3532, Note_off_c, 1, 78, 64
2, 3540, Note_off_c, 1, 66, 64
2, 3540, Note_off_c, 1, 54, 64
2, 3560, Note_off_c, 1, 90, 64
2, 3584, Note_on_c, 1, 67, 49
2, 3584, Note_on_c, 1, 79, 66
2, 3584, Note_on_c, 1, 91, 64
2, 3588, Note_on_c, 1, 55, 40
2, 3664, Note_off_c, 1, 67, 64
2, 3664, Note_off_c, 1, 55, 64
2, 3668, Note_off_c, 1, 79, 64
2, 3668, Note_off_c, 1, 91, 64
2, 3684, Control_c, 1, 64, 0
2, 3772, Note_on_c, 1, 54, 58
2, 3772, Note_on_c, 1, 66, 55
2, 3776, Note_on_c, 1, 78, 75
2, 3776, Note_on_c, 1, 90, 73
2, 3780, Control_c, 1, 64, 127
2, 3824, Note_off_c, 1, 54, 64
2, 3824, Note_off_c, 1, 78, 64
2, 3832, Note_off_c, 1, 66, 64
2, 3840, Note_off_c, 1, 90, 64
2, 3872, Control_c, 1, 64, 0
2, 3880, Note_on_c, 1, 55, 66
2, 3880, Note_on_c, 1, 67, 65
2, 3880, Note_on_c, 1, 79, 78
2, 3880, Note_on_c, 1, 91, 80
2, 3916, Control_c, 1, 64, 127
2, 3956, Note_off_c, 1, 67, 64
2, 3960, Note_off_c, 1, 79, 64
2, 3960, Note_off_c, 1, 91, 64
2, 3964, Note_off_c, 1, 55, 64
2, 3996, Control_c, 1, 64, 0
2, 4064, Control_c, 1, 64, 127
2, 4068, Note_on_c, 1, 54, 68
2, 4068, Note_on_c, 1, 66, 65
2, 4072, Note_on_c, 1, 78, 75
2, 4072, Note_on_c, 1, 90, 78
2, 4096, Note_off_c, 1, 54, 64
2, 4096, Note_off_c, 1, 78, 64
2, 4104, Note_off_c, 1, 66, 64
2, 4108, Note_off_c, 1, 90, 64
2, 4168, Note_on_c, 1, 91, 85
2, 4172, Note_on_c, 1, 79, 78
2, 4172, Note_on_c, 1, 55, 68
2, 4176, Note_on_c, 1, 67, 61
2, 4188, Note_off_c, 1, 91, 64
2, 4192, Note_off_c, 1, 79, 64
2, 4192, Note_off_c, 1, 67, 64
2, 4196, Note_off_c, 1, 55, 64
2, 4208, Control_c, 1, 64, 0
2, 4268, Note_on_c, 1, 73, 78
2, 4272, Note_on_c, 1, 85, 68
2, 4272, Note_on_c, 1, 61, 68
2, 4280, Note_on_c, 1, 49, 75
2, 4284, Control_c, 1, 64, 127
2, 4320, Note_off_c, 1, 49, 64
2, 4324, Note_off_c, 1, 61, 64
2, 4336, Note_off_c, 1, 73, 64
2, 4344, Note_off_c, 1, 85, 64
2, 4372, Note_on_c, 1, 50, 85
2, 4372, Note_on_c, 1, 86, 85
2, 4372, Note_on_c, 1, 74, 78
2, 4372, Note_on_c, 1, 62, 73
2, 4384, Control_c, 1, 64, 0
2, 4404, Note_off_c, 1, 62, 64
2, 4408, Note_off_c, 1, 50, 64
2, 4416, Note_off_c, 1, 86, 64
2, 4424, Note_off_c, 1, 74, 64
2, 4584, Note_on_c, 1, 83, 93
2, 4584, Note_on_c, 1, 47, 71
2, 4584, Note_on_c, 1, 71, 88
2, 4584, Note_on_c, 1, 59, 71
2, 4588, Control_c, 1, 64, 127
2, 4600, Note_off_c, 1, 71, 64
2, 4612, Note_off_c, 1, 47, 64
2, 4612, Note_off_c, 1, 59, 64
2, 4616, Note_off_c, 1, 83, 64
2, 4904, Control_c, 1, 64, 0
2, 5104, Note_on_c, 1, 76, 65
2, 5112, Note_on_c, 1, 69, 78
2, 5112, Note_on_c, 1, 72, 61
2, 5112, Note_on_c, 1, 84, 66
2, 5116, Control_c, 1, 64, 127
2, 5140, Note_off_c, 1, 76, 64
2, 5144, Note_off_c, 1, 72, 64
2, 5144, Note_off_c, 1, 84, 64
2, 5180, Note_off_c, 1, 69, 64
2, 5208, Note_on_c, 1, 76, 66
2, 5208, Note_on_c, 1, 69, 80
2, 5216, Note_on_c, 1, 84, 67
2, 5216, Note_on_c, 1, 72, 62
2, 5220, Control_c, 1, 64, 0
2, 5332, Note_off_c, 1, 76, 64
2, 5332, Note_off_c, 1, 72, 64
2, 5340, Note_off_c, 1, 84, 64
2, 5356, Note_off_c, 1, 69, 64
2, 5416, Note_on_c, 1, 69, 68
2, 5416, Note_on_c, 1, 76, 68
2, 5424, Note_on_c, 1, 84, 68
2, 5424, Note_on_c, 1, 72, 65
2, 5424, Control_c, 1, 64, 127
2, 5460, Note_off_c, 1, 76, 64
2, 5464, Note_off_c, 1, 84, 64
2, 5464, Note_off_c, 1, 72, 64
2, 5492, Note_off_c, 1, 69, 64
2, 5532, Note_on_c, 1, 67, 73
2, 5532, Note_on_c, 1, 72, 73
2, 5536, Note_on_c, 1, 75, 75
2, 5536, Note_on_c, 1, 84, 77
2, 5536, Control_c, 1, 64, 0
2, 5624, Note_off_c, 1, 72, 64
2, 5628, Note_off_c, 1, 75, 64
2, 5628, Note_off_c, 1, 84, 64
2, 5644, Note_off_c, 1, 67, 64
2, 5740, Note_on_c, 1, 75, 78
2, 5744, Note_on_c, 1, 84, 80
2, 5744, Note_on_c, 1, 67, 65
2, 5744, Note_on_c, 1, 72, 73
2, 5748, Control_c, 1, 64, 127
2, 5812, Note_off_c, 1, 84, 64
2, 5812, Note_off_c, 1, 67, 64
2, 5812, Note_off_c, 1, 72, 64
2, 5816, Note_off_c, 1, 75, 64
2, 5860, Control_c, 1, 64, 0
2, 5952, Note_on_c, 1, 84, 77
2, 5952, Control_c, 1, 64, 127
2, 5956, Note_on_c, 1, 74, 77
2, 5956, Note_on_c, 1, 66, 66
2, 5960, Note_on_c, 1, 72, 73
2, 5980, Note_off_c, 1, 84, 64
2, 5980, Note_off_c, 1, 74, 64
2, 5980, Note_off_c, 1, 72, 64
2, 5984, Note_off_c, 1, 66, 64
2, 6140, Note_on_c, 1, 56, 58
2, 6140, Note_on_c, 1, 68, 77
2, 6168, Note_on_c, 1, 57, 73
2, 6168, Note_on_c, 1, 69, 93
2, 6172, Control_c, 1, 64, 0
2, 6180, Note_off_c, 1, 56, 64
2, 6184, Note_off_c, 1, 68, 64
2, 6192, Note_off_c, 1, 57, 64
2, 6196, Note_off_c, 1, 69, 64
2, 6372, Note_on_c, 1, 50, 67
2, 6372, Note_on_c, 1, 62, 85
2, 6380, Control_c, 1, 64, 127
2, 6400, Note_off_c, 1, 50, 64
2, 6404, Note_off_c, 1, 62, 64
2, 6604, Control_c, 1, 64, 0
2, 6844, Note_on_c, 1, 64, 60
2, 6844, Control_c, 1, 64, 127
2, 6852, Note_on_c, 1, 72, 49
2, 6852, Note_on_c, 1, 57, 50
2, 6852, Note_on_c, 1, 60, 43
2, 6888, Note_off_c, 1, 64, 64
2, 6888, Note_off_c, 1, 72, 64
2, 6888, Note_off_c, 1, 60, 64
2, 6900, Note_off_c, 1, 57, 64
2, 6956, Note_on_c, 1, 72, 65
2, 6956, Note_on_c, 1, 57, 64
2, 6956, Note_on_c, 1, 64, 65
2, 6956, Note_on_c, 1, 60, 57
2, 7072, Note_off_c, 1, 64, 64
2, 7072, Note_off_c, 1, 60, 64
2, 7076, Note_off_c, 1, 72, 64
2, 7100, Note_off_c, 1, 57, 64
2, 7156, Control_c, 1, 64, 0
2, 7164, Note_on_c, 1, 57, 69
2, 7164, Note_on_c, 1, 64, 70
2, 7164, Note_on_c, 1, 72, 66
2, 7168, Note_on_c, 1, 60, 66
2, 7192, Control_c, 1, 64, 127
2, 7212, Note_off_c, 1, 64, 64
2, 7220, Note_off_c, 1, 60, 64
2, 7224, Note_off_c, 1, 72, 64
2, 7260, Note_off_c, 1, 57, 64
2, 7280, Control_c, 1, 64, 0
2, 7288, Note_on_c, 1, 72, 69
2, 7288, Note_on_c, 1, 60, 66
2, 7288, Note_on_c, 1, 63, 70
2, 7292, Note_on_c, 1, 55, 75
2, 7364, Control_c, 1, 64, 127
2, 7396, Control_c, 1, 64, 0
2, 7400, Note_off_c, 1, 63, 64
2, 7408, Note_off_c, 1, 72, 64
2, 7408, Note_off_c, 1, 60, 64
2, 7428, Note_off_c, 1, 55, 64
2, 7504, Note_on_c, 1, 63, 70
2, 7504, Note_on_c, 1, 72, 73
2, 7508, Note_on_c, 1, 55, 71
2, 7508, Note_on_c, 1, 60, 67
2, 7508, Control_c, 1, 64, 127
2, 7596, Note_off_c, 1, 72, 64
2, 7596, Note_off_c, 1, 55, 64
2, 7600, Note_off_c, 1, 60, 64
2, 7612, Note_off_c, 1, 63, 64
2, 7640, Control_c, 1, 64, 0
2, 7740, Note_on_c, 1, 54, 69
2, 7740, Note_on_c, 1, 72, 78
2, 7740, Note_on_c, 1, 62, 70
2, 7740, Note_on_c, 1, 60, 69
2, 7740, Control_c, 1, 64, 127
2, 7768, Note_off_c, 1, 54, 64
2, 7800, Note_off_c, 1, 72, 64
2, 7800, Note_off_c, 1, 62, 64
2, 7800, Note_off_c, 1, 60, 64
2, 7844, Control_c, 1, 64, 0
2, 7964, Note_on_c, 1, 45, 88
2, 7972, Note_on_c, 1, 57, 93
2, 7992, Note_off_c, 1, 45, 64
2, 7992, Note_off_c, 1, 57, 64
2, 8248, Note_on_c, 1, 50, 104
2, 8248, Note_on_c, 1, 38, 93
2, 8384, Note_off_c, 1, 38, 64
2, 8396, Note_on_c, 1, 74, 90
2, 8404, Note_off_c, 1, 50, 64
2, 8520, Note_off_c, 1, 74, 64
2, 8528, Note_on_c, 1, 79, 93
2, 8628, Note_off_c, 1, 79, 64
2, 8648, Note_on_c, 1, 83, 96
2, 8744, Note_off_c, 1, 83, 64
2, 8764, Note_on_c, 1, 55, 71
2, 8792, Note_off_c, 1, 55, 64
2, 8792, Note_on_c, 1, 86, 85
2, 8796, Note_on_c, 1, 74, 71
2, 8888, Note_on_c, 1, 79, 71
2, 8892, Note_off_c, 1, 86, 64
2, 8984, Note_on_c, 1, 62, 64
2, 8996, Note_off_c, 1, 79, 64
2, 8996, Note_on_c, 1, 83, 77
2, 8996, Note_on_c, 1, 59, 63
2, 9008, Note_off_c, 1, 74, 64
2, 9012, Note_off_c, 1, 59, 64
2, 9016, Note_off_c, 1, 83, 64
2, 9020, Note_off_c, 1, 62, 64
2, 9092, Note_on_c, 1, 86, 77
2, 9092, Note_on_c, 1, 74, 73
2, 9176, Note_on_c, 1, 50, 73
2, 9200, Note_off_c, 1, 50, 64
2, 9276, Note_on_c, 1, 83, 75
2, 9280, Note_off_c, 1, 86, 64
2, 9288, Note_off_c, 1, 74, 64
2, 9304, Note_off_c, 1, 83, 64
2, 9376, Note_on_c, 1, 62, 66
2, 9376, Note_on_c, 1, 86, 75
2, 9376, Note_on_c, 1, 59, 69
2, 9376, Note_on_c, 1, 74, 78
2, 9396, Note_off_c, 1, 62, 64
2, 9396, Note_off_c, 1, 59, 64
2, 9480, Note_off_c, 1, 86, 64
2, 9480, Note_on_c, 1, 83, 66
2, 9500, Note_off_c, 1, 74, 64
2, 9500, Note_off_c, 1, 83, 64
2, 9564, Note_on_c, 1, 55, 69
2, 9580, Note_on_c, 1, 74, 80
2, 9580, Note_on_c, 1, 86, 83
2, 9592, Note_off_c, 1, 55, 64
2, 9676, Note_on_c, 1, 79, 77
2, 9680, Note_off_c, 1, 86, 64
2, 9756, Note_off_c, 1, 79, 64
2, 9772, Note_on_c, 1, 83, 73
2, 9772, Note_on_c, 1, 59, 63
2, 9772, Note_on_c, 1, 62, 62
2, 9788, Note_off_c, 1, 59, 64
2, 9796, Note_off_c, 1, 62, 64
2, 9800, Note_off_c, 1, 74, 64
2, 9800, Note_off_c, 1, 83, 64
2, 9884, Note_on_c, 1, 86, 70
2, 9884, Note_on_c, 1, 74, 85
2, 9972, Note_on_c, 1, 50, 75
2, 9988, Note_off_c, 1, 50, 64
2, 10068, Note_off_c, 1, 86, 64
2, 10072, Note_on_c, 1, 83, 71
2, 10104, Note_off_c, 1, 74, 64
2, 10104, Note_off_c, 1, 83, 64
2, 10168, Note_on_c, 1, 62, 67
2, 10172, Note_on_c, 1, 86, 78
2, 10172, Note_on_c, 1, 59, 68
2, 10172, Note_on_c, 1, 74, 90
2, 10188, Note_off_c, 1, 59, 64
2, 10192, Note_off_c, 1, 62, 64
2, 10276, Note_off_c, 1, 86, 64
2, 10276, Note_on_c, 1, 83, 77
2, 10288, Note_off_c, 1, 74, 64
2, 10308, Note_off_c, 1, 83, 64
2, 10372, Note_on_c, 1, 48, 77
2, 10380, Note_on_c, 1, 88, 93
2, 10380, Note_on_c, 1, 60, 64
2, 10380, Note_on_c, 1, 76, 83
2, 10392, Note_off_c, 1, 48, 64
2, 10404, Note_off_c, 1, 60, 64
2, 10412, Note_off_c, 1, 88, 64
2, 10412, Note_off_c, 1, 76, 64
2, 10468, Note_on_c, 1, 88, 80
2, 10472, Note_on_c, 1, 76, 78
2, 10532, Note_off_c, 1, 88, 64
2, 10580, Note_on_c, 1, 55, 78
2, 10580, Note_on_c, 1, 64, 70
2, 10584, Note_on_c, 1, 60, 68
2, 10592, Note_off_c, 1, 60, 64
2, 10600, Note_off_c, 1, 55, 64
2, 10604, Note_off_c, 1, 76, 64
2, 10604, Note_off_c, 1, 64, 64
2, 10680, Note_on_c, 1, 79, 80
2, 10680, Note_on_c, 1, 76, 70
2, 10700, Note_off_c, 1, 79, 64
2, 10708, Note_off_c, 1, 76, 64
2, 10780, Note_on_c, 1, 48, 69
2, 10788, Note_on_c, 1, 81, 94
2, 10788, Note_on_c, 1, 60, 61
2, 10792, Note_on_c, 1, 76, 80
2, 10800, Note_off_c, 1, 48, 64
2, 10804, Note_off_c, 1, 60, 64
2, 10828, Note_off_c, 1, 76, 64
2, 10836, Note_off_c, 1, 81, 64
2, 10888, Note_on_c, 1, 79, 78
2, 10888, Note_on_c, 1, 76, 71
2, 10908, Note_off_c, 1, 79, 64
2, 10908, Note_off_c, 1, 76, 64
2, 10992, Note_on_c, 1, 81, 93
2, 10992, Note_on_c, 1, 55, 88
2, 10992, Note_on_c, 1, 75, 80
2, 10992, Note_on_c, 1, 63, 65
2, 10992, Note_on_c, 1, 60, 75
2, 11012, Note_off_c, 1, 81, 64
2, 11012, Note_off_c, 1, 55, 64
2, 11012, Note_off_c, 1, 75, 64
2, 11012, Note_off_c, 1, 63, 64
2, 11012, Note_off_c, 1, 60, 64
2, 11196, Note_on_c, 1, 43, 90
2, 11196, Note_on_c, 1, 83, 96
2, 11204, Note_on_c, 1, 55, 80
2, 11204, Note_on_c, 1, 74, 90
2, 11216, Note_off_c, 1, 43, 64
2, 11220, Note_off_c, 1, 55, 64
2, 11412, Note_on_c, 1, 62, 78
2, 11412, Note_on_c, 1, 59, 83
2, 11412, Note_on_c, 1, 55, 83
2, 11416, Note_off_c, 1, 83, 64
2, 11416, Note_off_c, 1, 74, 64
2, 11428, Note_off_c, 1, 62, 64
2, 11428, Note_off_c, 1, 59, 64
2, 11428, Note_off_c, 1, 55, 64
2, 11620, Note_on_c, 1, 50, 96
2, 11692, Note_off_c, 1, 50, 64
2, 11732, Note_on_c, 1, 74, 70
2, 11824, Note_on_c, 1, 79, 77
2, 11832, Note_off_c, 1, 74, 64
2, 11916, Note_on_c, 1, 83, 88
2, 11928, Note_off_c, 1, 79, 64
2, 11976, Note_on_c, 1, 55, 75
2, 12000, Note_off_c, 1, 55, 64
2, 12008, Note_off_c, 1, 83, 64
2, 12016, Note_on_c, 1, 86, 80
2, 12016, Note_on_c, 1, 74, 78
2, 12104, Note_off_c, 1, 86, 64
2, 12112, Note_on_c, 1, 79, 62
2, 12196, Note_off_c, 1, 79, 64
2, 12204, Note_on_c, 1, 59, 64
2, 12204, Note_on_c, 1, 62, 62
2, 12208, Note_on_c, 1, 83, 75
2, 12220, Note_off_c, 1, 59, 64
2, 12224, Note_off_c, 1, 74, 64
2, 12224, Note_off_c, 1, 62, 64
2, 12224, Note_off_c, 1, 83, 64
2, 12316, Note_on_c, 1, 74, 75
2, 12316, Note_on_c, 1, 86, 77
2, 12408, Note_on_c, 1, 50, 78
2, 12428, Note_off_c, 1, 50, 64
2, 12512, Note_off_c, 1, 86, 64
2, 12512, Note_on_c, 1, 83, 75
2, 12532, Note_off_c, 1, 74, 64
2, 12536, Note_off_c, 1, 83, 64
2, 12612, Note_on_c, 1, 86, 78
2, 12612, Note_on_c, 1, 59, 75
2, 12612, Note_on_c, 1, 62, 71
2, 12612, Note_on_c, 1, 74, 71
2, 12624, Note_off_c, 1, 59, 64
2, 12624, Note_off_c, 1, 62, 64
2, 12708, Note_off_c, 1, 86, 64
2, 12720, Note_on_c, 1, 83, 75
2, 12740, Note_off_c, 1, 74, 64
2, 12748, Note_off_c, 1, 83, 64
2, 12816, Note_on_c, 1, 55, 71
2, 12824, Note_on_c, 1, 86, 75
2, 12824, Note_on_c, 1, 74, 78
2, 12840, Note_off_c, 1, 55, 64
2, 12920, Note_on_c, 1, 79, 73
2, 12936, Note_off_c, 1, 86, 64
2, 13016, Note_off_c, 1, 79, 64
2, 13028, Note_on_c, 1, 59, 66
2, 13028, Note_on_c, 1, 83, 77
2, 13028, Note_on_c, 1, 62, 65
2, 13044, Note_off_c, 1, 74, 64
2, 13044, Note_off_c, 1, 59, 64
2, 13048, Note_off_c, 1, 83, 64
2, 13048, Note_off_c, 1, 62, 64
2, 13132, Note_on_c, 1, 86, 78
2, 13136, Note_on_c, 1, 74, 85
2, 13232, Note_on_c, 1, 50, 78
2, 13296, Note_off_c, 1, 86, 64
2, 13296, Note_off_c, 1, 50, 64
2, 13332, Note_on_c, 1, 83, 77
2, 13348, Note_off_c, 1, 74, 64
2, 13360, Note_off_c, 1, 83, 64
2, 13444, Note_on_c, 1, 59, 65
2, 13444, Note_on_c, 1, 62, 66
2, 13448, Note_on_c, 1, 86, 85
2, 13452, Note_on_c, 1, 74, 90
2, 13460, Note_off_c, 1, 59, 64
2, 13460, Note_off_c, 1, 62, 64
2, 13468, Note_off_c, 1, 86, 64
2, 13468, Note_off_c, 1, 74, 64
2, 13548, Note_on_c, 1, 83, 72
2, 13556, Note_off_c, 1, 83, 64
2, 13652, Note_on_c, 1, 73, 88
2, 13652, Note_on_c, 1, 52, 80
2, 13652, Note_on_c, 1, 83, 74
2, 13664, Note_off_c, 1, 73, 64
2, 13664, Note_off_c, 1, 83, 64
2, 13668, Note_off_c, 1, 52, 64
2, 13852, Note_on_c, 1, 55, 74
2, 13852, Note_on_c, 1, 81, 86
2, 13852, Note_on_c, 1, 57, 78
2, 13852, Note_on_c, 1, 73, 57
2, 13856, Note_on_c, 1, 61, 60
2, 13860, Note_off_c, 1, 55, 64
2, 13860, Note_off_c, 1, 57, 64
2, 13872, Note_off_c, 1, 61, 64
2, 14056, Note_off_c, 1, 73, 64
2, 14064, Note_off_c, 1, 81, 64
2, 14076, Note_on_c, 1, 45, 93
2, 14084, Note_off_c, 1, 45, 64
2, 14268, Note_on_c, 1, 61, 67
2, 14272, Note_on_c, 1, 80, 77
2, 14272, Note_on_c, 1, 55, 80
2, 14272, Note_on_c, 1, 57, 90
2, 14272, Note_on_c, 1, 73, 75
2, 14300, Note_off_c, 1, 73, 64
2, 14308, Note_off_c, 1, 80, 64
2, 14360, Note_off_c, 1, 55, 64
2, 14368, Note_off_c, 1, 61, 64
2, 14368, Note_off_c, 1, 57, 64
2, 14368, Note_on_c, 1, 73, 69
2, 14368, Note_on_c, 1, 81, 87
2, 14428, Note_off_c, 1, 73, 64
2, 14456, Note_off_c, 1, 81, 64
2, 14460, Note_on_c, 1, 83, 77
2, 14464, Note_on_c, 1, 72, 80
2, 14464, Note_on_c, 1, 50, 90
2, 14520, Note_off_c, 1, 72, 64
2, 14528, Note_off_c, 1, 83, 64
2, 14540, Note_off_c, 1, 50, 64
2, 14564, Note_on_c, 1, 81, 85
2, 14564, Note_on_c, 1, 72, 75
2, 14568, Note_on_c, 1, 54, 78
2, 14652, Note_off_c, 1, 81, 64
2, 14680, Note_off_c, 1, 72, 64
2, 14684, Note_off_c, 1, 54, 64
2, 14768, Note_on_c, 1, 78, 85
2, 14768, Note_on_c, 1, 57, 78
2, 14772, Note_on_c, 1, 72, 73
2, 14792, Note_off_c, 1, 78, 64
2, 14800, Note_off_c, 1, 72, 64
2, 14820, Note_off_c, 1, 57, 64
2, 14884, Note_on_c, 1, 76, 80
2, 14884, Note_on_c, 1, 55, 85
2, 14884, Note_on_c, 1, 72, 71
2, 14912, Note_off_c, 1, 76, 64
2, 14912, Note_off_c, 1, 72, 64
2, 14936, Note_off_c, 1, 55, 64
2, 15084, Note_on_c, 1, 74, 80
2, 15088, Note_on_c, 1, 54, 73
2, 15088, Note_on_c, 1, 72, 66
2, 15100, Note_off_c, 1, 74, 64
2, 15100, Note_off_c, 1, 72, 64
2, 15128, Note_off_c, 1, 54, 64
2, 15284, Note_on_c, 1, 55, 96
2, 15296, Note_on_c, 1, 86, 77
2, 15296, Note_on_c, 1, 74, 78
2, 15304, Note_off_c, 1, 55, 64
2, 15356, Note_off_c, 1, 86, 64
2, 15392, Note_on_c, 1, 79, 68
2, 15488, Note_off_c, 1, 79, 64
2, 15492, Note_on_c, 1, 59, 69
2, 15492, Note_on_c, 1, 62, 66
2, 15492, Note_on_c, 1, 83, 73
2, 15508, Note_off_c, 1, 74, 64
2, 15508, Note_off_c, 1, 59, 64
2, 15512, Note_off_c, 1, 62, 64
2, 15512, Note_off_c, 1, 83, 64
2, 15600, Note_on_c, 1, 74, 80
2, 15600, Note_on_c, 1, 86, 75
2, 15676, Note_on_c, 1, 50, 83
2, 15692, Note_off_c, 1, 50, 64
2, 15788, Note_off_c, 1, 86, 64
2, 15792, Note_on_c, 1, 83, 71
2, 15804, Note_off_c, 1, 74, 64
2, 15816, Note_off_c, 1, 83, 64
2, 15888, Note_on_c, 1, 86, 83
2, 15888, Note_on_c, 1, 62, 73
2, 15892, Note_on_c, 1, 59, 78
2, 15892, Note_on_c, 1, 74, 93
2, 15904, Note_off_c, 1, 59, 64
2, 15908, Note_off_c, 1, 62, 64
2, 15992, Note_off_c, 1, 86, 64
2, 15996, Note_on_c, 1, 83, 73
2, 16016, Note_off_c, 1, 74, 64
2, 16016, Note_off_c, 1, 83, 64
2, 16096, Note_on_c, 1, 55, 80
2, 16096, Note_on_c, 1, 86, 88
2, 16100, Note_on_c, 1, 74, 93
2, 16116, Note_off_c, 1, 55, 64
2, 16200, Note_off_c, 1, 86, 64
2, 16200, Note_on_c, 1, 79, 71
2, 16280, Note_off_c, 1, 79, 64
2, 16296, Note_on_c, 1, 83, 80
2, 16300, Note_on_c, 1, 59, 65
2, 16304, Note_on_c, 1, 62, 62
2, 16316, Note_off_c, 1, 59, 64
2, 16328, Note_off_c, 1, 74, 64
2, 16328, Note_off_c, 1, 83, 64
2, 16332, Note_off_c, 1, 62, 64
2, 16404, Note_on_c, 1, 86, 85
2, 16404, Note_on_c, 1, 74, 93
2, 16508, Note_on_c, 1, 50, 90
2, 16528, Note_off_c, 1, 50, 64
2, 16608, Note_off_c, 1, 86, 64
2, 16608, Note_on_c, 1, 83, 83
2, 16632, Note_off_c, 1, 74, 64
2, 16640, Note_off_c, 1, 83, 64
2, 16716, Note_on_c, 1, 86, 94
2, 16716, Note_on_c, 1, 62, 75
2, 16716, Note_on_c, 1, 59, 78
2, 16716, Note_on_c, 1, 74, 98
2, 16728, Note_off_c, 1, 62, 64
2, 16732, Note_off_c, 1, 59, 64
2, 16808, Note_off_c, 1, 86, 64
2, 16808, Note_on_c, 1, 83, 80
2, 16840, Note_off_c, 1, 74, 64
2, 16848, Note_off_c, 1, 83, 64
2, 16912, Note_on_c, 1, 48, 80
2, 16916, Note_on_c, 1, 60, 68
2, 16916, Note_on_c, 1, 88, 100
2, 16916, Note_on_c, 1, 76, 93
2, 16924, Note_off_c, 1, 48, 64
2, 16936, Note_off_c, 1, 76, 64
2, 16940, Note_off_c, 1, 88, 64
2, 16944, Note_off_c, 1, 60, 64
2, 17012, Note_on_c, 1, 88, 93
2, 17012, Note_on_c, 1, 76, 90
2, 17084, Note_off_c, 1, 88, 64
2, 17124, Note_on_c, 1, 55, 83
2, 17124, Note_on_c, 1, 64, 78
2, 17124, Note_on_c, 1, 60, 77
2, 17136, Note_off_c, 1, 60, 64
2, 17144, Note_off_c, 1, 76, 64
2, 17144, Note_off_c, 1, 55, 64
2, 17144, Note_off_c, 1, 64, 64
2, 17220, Note_on_c, 1, 79, 93
2, 17220, Note_on_c, 1, 76, 77
2, 17244, Note_off_c, 1, 79, 64
2, 17248, Note_off_c, 1, 76, 64
2, 17328, Note_on_c, 1, 81, 105
2, 17328, Note_on_c, 1, 48, 77
2, 17328, Note_on_c, 1, 60, 71
2, 17328, Note_on_c, 1, 76, 104
2, 17336, Note_off_c, 1, 48, 64
2, 17352, Note_off_c, 1, 60, 64
2, 17364, Note_off_c, 1, 76, 64
2, 17372, Note_off_c, 1, 81, 64
2, 17428, Note_on_c, 1, 79, 96
2, 17428, Note_on_c, 1, 76, 85
2, 17480, Note_off_c, 1, 76, 64
2, 17484, Note_off_c, 1, 79, 64
2, 17536, Note_on_c, 1, 81, 112
2, 17536, Note_on_c, 1, 76, 93
2, 17536, Note_on_c, 1, 55, 80
2, 17536, Note_on_c, 1, 64, 69
2, 17548, Note_off_c, 1, 55, 64
2, 17548, Note_off_c, 1, 64, 64
2, 17588, Note_off_c, 1, 76, 64
2, 17604, Note_off_c, 1, 81, 64
2, 17720, Note_on_c, 1, 83, 103
2, 17724, Note_on_c, 1, 75, 103
2, 17728, Note_on_c, 1, 47, 85
2, 17736, Note_off_c, 1, 47, 64
2, 17924, Note_on_c, 1, 57, 93
2, 17928, Note_on_c, 1, 54, 78
2, 17928, Note_on_c, 1, 59, 88
2, 17936, Note_off_c, 1, 57, 64
2, 17936, Note_off_c, 1, 54, 64
2, 17940, Note_off_c, 1, 59, 64
2, 18020, Note_off_c, 1, 75, 64
2, 18024, Note_off_c, 1, 83, 64
2, 18132, Note_on_c, 1, 54, 93
2, 18132, Note_on_c, 1, 57, 97
2, 18132, Note_on_c, 1, 59, 98
2, 18160, Note_off_c, 1, 59, 64
2, 18184, Note_off_c, 1, 57, 64
2, 18200, Note_off_c, 1, 54, 64
2, 18348, Note_on_c, 1, 83, 100
2, 18348, Note_on_c, 1, 71, 93
2, 18360, Note_off_c, 1, 71, 64
2, 18364, Note_off_c, 1, 83, 64
2, 18536, Note_on_c, 1, 56, 90
2, 18536, Note_on_c, 1, 44, 88
2, 18540, Note_on_c, 1, 88, 93
2, 18540, Note_on_c, 1, 76, 93
2, 18540, Control_c, 1, 64, 127
2, 18552, Note_off_c, 1, 44, 64
2, 18556, Note_off_c, 1, 56, 64
2, 18556, Note_off_c, 1, 88, 64
2, 18556, Note_off_c, 1, 76, 64
2, 18640, Note_on_c, 1, 86, 93
2, 18640, Note_on_c, 1, 74, 96
2, 18708, Note_off_c, 1, 86, 64
2, 18716, Note_off_c, 1, 74, 64
2, 18732, Note_on_c, 1, 52, 67
2, 18732, Note_on_c, 1, 62, 70
2, 18732, Note_on_c, 1, 56, 70
2, 18732, Control_c, 1, 64, 0
2, 18748, Note_off_c, 1, 52, 64
2, 18748, Note_off_c, 1, 62, 64
2, 18748, Note_off_c, 1, 56, 64
2, 18840, Note_on_c, 1, 71, 80
2, 18840, Note_on_c, 1, 83, 93
2, 18852, Note_off_c, 1, 71, 64
2, 18864, Note_off_c, 1, 83, 64
2, 18936, Note_on_c, 1, 40, 80
2, 18944, Note_on_c, 1, 84, 90
2, 18944, Note_on_c, 1, 72, 80
2, 18956, Note_off_c, 1, 40, 64
2, 18960, Note_off_c, 1, 84, 64
2, 18960, Note_off_c, 1, 72, 64
2, 19144, Note_on_c, 1, 83, 93
2, 19152, Note_on_c, 1, 71, 90
2, 19152, Note_on_c, 1, 62, 69
2, 19156, Note_on_c, 1, 52, 63
2, 19156, Note_on_c, 1, 56, 66
2, 19164, Note_off_c, 1, 83, 64
2, 19164, Note_off_c, 1, 71, 64
2, 19164, Note_off_c, 1, 62, 64
2, 19164, Note_off_c, 1, 52, 64
2, 19164, Note_off_c, 1, 56, 64
2, 19352, Note_on_c, 1, 45, 75
2, 19356, Note_on_c, 1, 83, 104
2, 19356, Control_c, 1, 64, 127
2, 19360, Note_off_c, 1, 45, 64
2, 19360, Note_on_c, 1, 71, 93
2, 19376, Note_off_c, 1, 83, 64
2, 19376, Note_off_c, 1, 71, 64
2, 19460, Note_on_c, 1, 69, 88
2, 19460, Note_on_c, 1, 81, 96
2, 19480, Control_c, 1, 64, 0
2, 19552, Note_off_c, 1, 81, 64
2, 19560, Note_off_c, 1, 69, 64
2, 19564, Note_on_c, 1, 64, 69
2, 19568, Note_on_c, 1, 57, 66
2, 19572, Note_off_c, 1, 64, 64
2, 19572, Note_off_c, 1, 57, 64
2, 19652, Note_on_c, 1, 76, 80
2, 19656, Note_on_c, 1, 64, 83
2, 19664, Note_off_c, 1, 64, 64
2, 19668, Note_off_c, 1, 76, 64
2, 19752, Note_on_c, 1, 48, 69
2, 19756, Note_on_c, 1, 83, 104
2, 19756, Control_c, 1, 64, 127
2, 19764, Note_off_c, 1, 48, 64
2, 19764, Note_on_c, 1, 71, 83
2, 19776, Note_off_c, 1, 83, 64
2, 19776, Note_off_c, 1, 71, 64
2, 19808, Control_c, 1, 64, 0
2, 19964, Note_on_c, 1, 57, 75
2, 19968, Note_on_c, 1, 63, 56
2, 19968, Note_on_c, 1, 60, 66
2, 19968, Note_on_c, 1, 69, 88
2, 19968, Note_on_c, 1, 81, 100
2, 19972, Control_c, 1, 64, 127
2, 19984, Note_off_c, 1, 60, 64
2, 19988, Note_off_c, 1, 57, 64
2, 19988, Note_off_c, 1, 63, 64
2, 19988, Note_off_c, 1, 69, 64
2, 19988, Note_off_c, 1, 81, 64
2, 20076, Control_c, 1, 64, 0
2, 20168, Note_on_c, 1, 50, 71
2, 20184, Control_c, 1, 64, 127
2, 20188, Note_on_c, 1, 83, 93
2, 20196, Note_on_c, 1, 71, 78
2, 20208, Note_off_c, 1, 83, 64
2, 20208, Note_off_c, 1, 71, 64
2, 20284, Note_on_c, 1, 81, 93
2, 20292, Note_on_c, 1, 69, 80
2, 20324, Control_c, 1, 64, 0
2, 20380, Note_on_c, 1, 55, 66
2, 20380, Note_on_c, 1, 59, 66
2, 20384, Note_on_c, 1, 62, 67
2, 20388, Note_off_c, 1, 81, 64
2, 20388, Note_off_c, 1, 69, 64
2, 20456, Control_c, 1, 64, 127
2, 20476, Note_off_c, 1, 55, 64
2, 20480, Note_off_c, 1, 50, 64
2, 20480, Note_off_c, 1, 59, 64
2, 20484, Note_off_c, 1, 62, 64
2, 20484, Note_on_c, 1, 83, 96
2, 20484, Note_on_c, 1, 71, 70
2, 20496, Note_off_c, 1, 71, 64
2, 20500, Note_off_c, 1, 83, 64
2, 20572, Note_on_c, 1, 50, 71
2, 20576, Control_c, 1, 64, 0
2, 20580, Note_on_c, 1, 72, 75
2, 20580, Note_on_c, 1, 76, 88
2, 20588, Note_on_c, 1, 84, 90
2, 20600, Note_off_c, 1, 72, 64
2, 20600, Note_off_c, 1, 76, 64
2, 20600, Note_off_c, 1, 84, 64
2, 20680, Note_on_c, 1, 83, 85
2, 20680, Note_on_c, 1, 71, 75
2, 20680, Note_on_c, 1, 74, 85
2, 20692, Note_off_c, 1, 83, 64
2, 20692, Note_off_c, 1, 71, 64
2, 20692, Note_off_c, 1, 74, 64
2, 20784, Note_on_c, 1, 81, 93
2, 20784, Note_on_c, 1, 54, 66
2, 20788, Note_on_c, 1, 72, 85
2, 20788, Note_on_c, 1, 69, 80
2, 20844, Control_c, 1, 64, 127
2, 20852, Note_off_c, 1, 50, 64
2, 20852, Note_off_c, 1, 54, 64
2, 20852, Note_off_c, 1, 72, 64
2, 20864, Note_off_c, 1, 81, 64
2, 20864, Note_off_c, 1, 69, 64
2, 20904, Control_c, 1, 64, 0
2, 20992, Note_on_c, 1, 79, 96
2, 20996, Note_on_c, 1, 71, 96
2, 20996, Note_on_c, 1, 67, 90
2, 21000, Note_on_c, 1, 55, 73
2, 21000, Note_on_c, 1, 43, 71
2, 21060, Control_c, 1, 64, 127
2, 21112, Note_off_c, 1, 67, 64
2, 21136, Note_off_c, 1, 71, 64
2, 21164, Note_off_c, 1, 79, 64
2, 21208, Note_off_c, 1, 55, 64
2, 21236, Note_off_c, 1, 43, 64
2, 21248, Control_c, 1, 64, 0
2, 21420, Note_on_c, 1, 38, 98
2, 21420, Note_on_c, 1, 50, 95
2, 21524, Note_on_c, 1, 74, 95
2, 21540, Note_off_c, 1, 38, 64
2, 21556, Note_off_c, 1, 50, 64
2, 21556, Control_c, 1, 64, 127
2, 21596, Control_c, 1, 64, 0
2, 21636, Note_on_c, 1, 79, 86
2, 21732, Note_on_c, 1, 83, 89
2, 21740, Note_off_c, 1, 79, 64
2, 21800, Note_off_c, 1, 74, 64
2, 21812, Note_on_c, 1, 55, 63
2, 21824, Note_off_c, 1, 83, 64
2, 21848, Note_on_c, 1, 86, 76
2, 21852, Note_on_c, 1, 74, 85
2, 21872, Note_off_c, 1, 55, 64
2, 21948, Note_off_c, 1, 86, 64
2, 21956, Note_on_c, 1, 79, 73
2, 22044, Note_off_c, 1, 79, 64
2, 22052, Note_on_c, 1, 83, 71
2, 22052, Note_on_c, 1, 62, 57
2, 22056, Note_on_c, 1, 59, 59
2, 22112, Note_off_c, 1, 74, 64
2, 22112, Note_off_c, 1, 83, 64
2, 22160, Note_off_c, 1, 59, 64
2, 22160, Note_on_c, 1, 86, 71
2, 22164, Note_on_c, 1, 74, 71
2, 22168, Note_off_c, 1, 62, 64
2, 22256, Note_on_c, 1, 50, 78
2, 22356, Note_off_c, 1, 86, 64
2, 22360, Note_on_c, 1, 83, 73
2, 22408, Note_off_c, 1, 74, 64
2, 22416, Note_off_c, 1, 83, 64
2, 22460, Note_on_c, 1, 62, 59
2, 22468, Note_on_c, 1, 59, 63
2, 22472, Note_on_c, 1, 86, 70
2, 22476, Note_on_c, 1, 74, 83
2, 22568, Note_off_c, 1, 86, 64
2, 22568, Note_on_c, 1, 83, 76
2, 22584, Control_c, 1, 64, 127
2, 22628, Note_off_c, 1, 74, 64
2, 22632, Note_off_c, 1, 83, 64
2, 22644, Note_off_c, 1, 59, 64
2, 22656, Note_off_c, 1, 50, 64
2, 22660, Note_off_c, 1, 62, 64
2, 22676, Note_on_c, 1, 55, 70
2, 22680, Note_on_c, 1, 86, 81
2, 22680, Control_c, 1, 64, 0
2, 22684, Note_on_c, 1, 74, 86
2, 22776, Note_off_c, 1, 86, 64
2, 22780, Note_on_c, 1, 79, 76
2, 22796, Control_c, 1, 64, 127
2, 22868, Note_off_c, 1, 79, 64
2, 22868, Control_c, 1, 64, 0
2, 22876, Note_on_c, 1, 62, 71
2, 22880, Note_on_c, 1, 59, 73
2, 22944, Note_off_c, 1, 74, 64
2, 22996, Note_on_c, 1, 86, 78
2, 22996, Note_on_c, 1, 74, 85
2, 23064, Note_off_c, 1, 62, 64
2, 23068, Note_off_c, 1, 55, 64
2, 23068, Note_off_c, 1, 59, 64
2, 23080, Note_on_c, 1, 50, 73
2, 23176, Note_off_c, 1, 86, 64
2, 23180, Note_on_c, 1, 83, 71
2, 23180, Control_c, 1, 64, 127
2, 23212, Note_off_c, 1, 74, 64
2, 23232, Note_off_c, 1, 83, 64
2, 23284, Control_c, 1, 64, 0
2, 23292, Note_on_c, 1, 62, 61
2, 23296, Note_on_c, 1, 86, 83
2, 23296, Note_on_c, 1, 59, 59
2, 23296, Note_on_c, 1, 74, 89
2, 23364, Control_c, 1, 64, 127
2, 23380, Note_off_c, 1, 62, 64
2, 23380, Note_off_c, 1, 59, 64
2, 23388, Note_off_c, 1, 50, 64
2, 23396, Note_off_c, 1, 86, 64
2, 23396, Note_on_c, 1, 83, 78
2, 23444, Note_off_c, 1, 74, 64
2, 23452, Note_off_c, 1, 83, 64
2, 23496, Control_c, 1, 64, 0
2, 23500, Note_on_c, 1, 48, 89
2, 23500, Note_on_c, 1, 60, 81
2, 23504, Note_on_c, 1, 88, 91
2, 23504, Note_on_c, 1, 76, 89
2, 23536, Control_c, 1, 64, 127
2, 23560, Note_off_c, 1, 88, 64
2, 23564, Note_off_c, 1, 48, 64
2, 23564, Note_off_c, 1, 76, 64
2, 23572, Note_off_c, 1, 60, 64
2, 23600, Note_on_c, 1, 88, 70
2, 23600, Note_on_c, 1, 76, 76
2, 23636, Note_off_c, 1, 88, 64
2, 23680, Note_off_c, 1, 76, 64
2, 23696, Control_c, 1, 64, 0
2, 23704, Note_on_c, 1, 55, 71
2, 23712, Note_on_c, 1, 64, 66
2, 23712, Note_on_c, 1, 60, 66
2, 23724, Note_off_c, 1, 55, 64
2, 23724, Note_off_c, 1, 64, 64
2, 23728, Note_off_c, 1, 60, 64
2, 23808, Note_on_c, 1, 79, 71
2, 23808, Note_on_c, 1, 76, 70
2, 23832, Note_off_c, 1, 79, 64
2, 23836, Note_off_c, 1, 76, 64
2, 23916, Note_on_c, 1, 81, 97
2, 23916, Note_on_c, 1, 48, 68
2, 23920, Note_on_c, 1, 76, 83
2, 23920, Note_on_c, 1, 60, 61
2, 23940, Note_off_c, 1, 48, 64
2, 23952, Note_off_c, 1, 60, 64
2, 23968, Note_off_c, 1, 76, 64
2, 23992, Note_off_c, 1, 81, 64
2, 24020, Note_on_c, 1, 79, 73
2, 24024, Note_on_c, 1, 76, 68
2, 24044, Note_off_c, 1, 79, 64
2, 24044, Note_off_c, 1, 76, 64
2, 24116, Note_on_c, 1, 55, 81
2, 24120, Note_on_c, 1, 81, 86
2, 24124, Note_on_c, 1, 75, 83
2, 24124, Note_on_c, 1, 63, 52
2, 24124, Note_on_c, 1, 60, 64
2, 24140, Note_off_c, 1, 60, 64
2, 24148, Note_off_c, 1, 55, 64
2, 24148, Note_off_c, 1, 63, 64
2, 24208, Note_off_c, 1, 75, 64
2, 24212, Note_off_c, 1, 81, 64
2, 24320, Note_on_c, 1, 83, 76
2, 24320, Note_on_c, 1, 74, 81
2, 24324, Note_on_c, 1, 43, 71
2, 24324, Note_on_c, 1, 55, 73
2, 24344, Note_off_c, 1, 43, 64
2, 24352, Control_c, 1, 64, 127
2, 24356, Note_off_c, 1, 55, 64
2, 24508, Control_c, 1, 64, 0
2, 24540, Note_on_c, 1, 62, 73
2, 24540, Note_on_c, 1, 55, 73
2, 24540, Note_on_c, 1, 59, 68
2, 24556, Control_c, 1, 64, 127
2, 24564, Note_off_c, 1, 59, 64
2, 24592, Note_off_c, 1, 62, 64
2, 24596, Note_off_c, 1, 55, 64
2, 24636, Note_off_c, 1, 74, 64
2, 24640, Note_off_c, 1, 83, 64
2, 24740, Note_on_c, 1, 50, 82
2, 24744, Control_c, 1, 64, 0
2, 24840, Note_on_c, 1, 74, 86
2, 24868, Note_off_c, 1, 50, 64
2, 24936, Note_on_c, 1, 79, 91
2, 25028, Note_off_c, 1, 79, 64
2, 25036, Note_on_c, 1, 83, 73
2, 25100, Note_off_c, 1, 74, 64
2, 25108, Note_on_c, 1, 55, 45
2, 25120, Note_off_c, 1, 83, 64
2, 25144, Note_on_c, 1, 86, 64
2, 25148, Note_off_c, 1, 55, 64
2, 25148, Note_on_c, 1, 74, 73
2, 25236, Note_on_c, 1, 79, 53
2, 25260, Note_off_c, 1, 86, 64
2, 25336, Note_on_c, 1, 62, 36
2, 25344, Note_off_c, 1, 79, 64
2, 25344, Note_on_c, 1, 59, 40
2, 25344, Note_on_c, 1, 83, 59
2, 25368, Note_off_c, 1, 83, 64
2, 25380, Note_off_c, 1, 74, 64
2, 25440, Note_on_c, 1, 86, 64
2, 25444, Note_on_c, 1, 74, 66
2, 25460, Note_off_c, 1, 59, 64
2, 25468, Note_off_c, 1, 62, 64
2, 25536, Note_on_c, 1, 50, 56
2, 25628, Note_off_c, 1, 86, 64
2, 25636, Note_on_c, 1, 83, 54
2, 25676, Note_off_c, 1, 74, 64
2, 25680, Note_off_c, 1, 83, 64
2, 25720, Note_on_c, 1, 59, 55
2, 25724, Note_on_c, 1, 62, 54
2, 25752, Note_off_c, 1, 50, 64
2, 25752, Note_on_c, 1, 86, 68
2, 25752, Note_on_c, 1, 74, 70
2, 25848, Note_off_c, 1, 86, 64
2, 25852, Note_on_c, 1, 83, 58
2, 25868, Control_c, 1, 64, 127
2, 25896, Note_off_c, 1, 74, 64
2, 25904, Note_off_c, 1, 83, 64
2, 25920, Note_off_c, 1, 59, 64
2, 25928, Note_off_c, 1, 62, 64
2, 25928, Control_c, 1, 64, 0
2, 25936, Note_on_c, 1, 55, 50
2, 25956, Note_on_c, 1, 86, 73
2, 25956, Note_on_c, 1, 74, 80
2, 26048, Note_off_c, 1, 86, 64
2, 26048, Note_on_c, 1, 79, 62
2, 26100, Note_off_c, 1, 74, 64
2, 26104, Note_off_c, 1, 79, 64
2, 26144, Note_on_c, 1, 62, 48
2, 26144, Note_on_c, 1, 59, 58
2, 26156, Note_on_c, 1, 83, 77
2, 26160, Note_on_c, 1, 74, 71
2, 26208, Note_off_c, 1, 83, 64
2, 26208, Note_off_c, 1, 74, 64
2, 26260, Note_on_c, 1, 86, 73
2, 26264, Note_on_c, 1, 74, 77
2, 26356, Note_off_c, 1, 55, 64
2, 26356, Note_off_c, 1, 59, 64
2, 26360, Note_off_c, 1, 62, 64
2, 26360, Note_on_c, 1, 50, 67
2, 26452, Note_off_c, 1, 86, 64
2, 26452, Note_on_c, 1, 83, 66
2, 26452, Control_c, 1, 64, 127
2, 26496, Note_off_c, 1, 74, 64
2, 26512, Note_off_c, 1, 83, 64
2, 26544, Control_c, 1, 64, 0
2, 26560, Note_on_c, 1, 62, 53
2, 26560, Note_on_c, 1, 59, 55
2, 26568, Note_on_c, 1, 86, 70
2, 26568, Control_c, 1, 64, 127
2, 26572, Note_on_c, 1, 74, 78
2, 26612, Note_off_c, 1, 50, 64
2, 26624, Note_off_c, 1, 62, 64
2, 26628, Note_off_c, 1, 59, 64
2, 26660, Note_off_c, 1, 86, 64
2, 26660, Note_on_c, 1, 83, 78
2, 26680, Note_off_c, 1, 74, 64
2, 26680, Note_off_c, 1, 83, 64
2, 26756, Note_on_c, 1, 52, 53
2, 26780, Note_on_c, 1, 83, 71
2, 26780, Note_on_c, 1, 73, 65
2, 26780, Control_c, 1, 64, 0
2, 26912, Note_off_c, 1, 52, 64
2, 26920, Note_off_c, 1, 73, 64
2, 26928, Note_off_c, 1, 83, 64
2, 26968, Note_on_c, 1, 55, 62
2, 26968, Note_on_c, 1, 61, 54
2, 26968, Note_on_c, 1, 81, 85
2, 26972, Note_on_c, 1, 57, 57
2, 26972, Note_on_c, 1, 73, 64
2, 26992, Note_off_c, 1, 61, 64
2, 26992, Note_off_c, 1, 57, 64
2, 26996, Note_off_c, 1, 55, 64
2, 27176, Note_on_c, 1, 45, 88
2, 27188, Note_off_c, 1, 45, 64
2, 27188, Control_c, 1, 64, 127
2, 27300, Note_off_c, 1, 73, 64
2, 27320, Note_off_c, 1, 81, 64
2, 27380, Note_on_c, 1, 55, 78
2, 27384, Note_on_c, 1, 61, 59
2, 27388, Note_on_c, 1, 57, 77
2, 27388, Note_on_c, 1, 80, 73
2, 27388, Note_on_c, 1, 73, 66
2, 27388, Control_c, 1, 64, 0
2, 27436, Note_off_c, 1, 73, 64
2, 27452, Note_off_c, 1, 80, 64
2, 27476, Note_on_c, 1, 81, 85
2, 27476, Note_on_c, 1, 73, 67
2, 27484, Control_c, 1, 64, 127
2, 27540, Note_off_c, 1, 55, 64
2, 27540, Note_off_c, 1, 73, 64
2, 27544, Note_off_c, 1, 61, 64
2, 27564, Note_on_c, 1, 50, 63
2, 27568, Note_off_c, 1, 57, 64
2, 27568, Note_off_c, 1, 81, 64
2, 27572, Note_on_c, 1, 83, 66
2, 27572, Note_on_c, 1, 72, 80
2, 27588, Control_c, 1, 64, 0
2, 27644, Note_off_c, 1, 83, 64
2, 27648, Note_off_c, 1, 72, 64
2, 27676, Note_on_c, 1, 81, 81
2, 27680, Note_on_c, 1, 72, 68
2, 27680, Note_on_c, 1, 54, 66
2, 27688, Note_off_c, 1, 50, 64
2, 27796, Note_off_c, 1, 81, 64
2, 27804, Note_off_c, 1, 72, 64
2, 27812, Note_off_c, 1, 54, 64
2, 27872, Note_on_c, 1, 78, 73
2, 27876, Note_on_c, 1, 72, 68
2, 27884, Note_on_c, 1, 57, 44
2, 27888, Control_c, 1, 64, 127
2, 27904, Note_off_c, 1, 78, 64
2, 27932, Note_off_c, 1, 72, 64
2, 27932, Note_off_c, 1, 57, 64
2, 27952, Control_c, 1, 64, 0
2, 27984, Note_on_c, 1, 55, 64
2, 27988, Note_on_c, 1, 76, 67
2, 27988, Note_on_c, 1, 72, 63
2, 28012, Control_c, 1, 64, 127
2, 28084, Note_off_c, 1, 72, 64
2, 28084, Control_c, 1, 64, 0
2, 28088, Note_off_c, 1, 76, 64
2, 28120, Note_off_c, 1, 55, 64
2, 28200, Note_on_c, 1, 74, 65
2, 28200, Note_on_c, 1, 72, 58
2, 28204, Note_on_c, 1, 54, 54
2, 28208, Control_c, 1, 64, 127
2, 28224, Note_off_c, 1, 72, 64
2, 28228, Note_off_c, 1, 74, 64
2, 28260, Note_off_c, 1, 54, 64
2, 28384, Note_on_c, 1, 55, 39
2, 28400, Control_c, 1, 64, 0
2, 28408, Note_on_c, 1, 86, 77
2, 28412, Note_on_c, 1, 74, 77
2, 28504, Note_on_c, 1, 79, 54
2, 28588, Note_off_c, 1, 55, 64
2, 28596, Note_on_c, 1, 83, 67
2, 28600, Control_c, 1, 64, 127
2, 28604, Note_off_c, 1, 86, 64
2, 28612, Note_off_c, 1, 79, 64
2, 28612, Note_on_c, 1, 59, 51
2, 28612, Note_on_c, 1, 62, 49
2, 28636, Note_off_c, 1, 74, 64
2, 28636, Note_off_c, 1, 83, 64
2, 28672, Control_c, 1, 64, 0
2, 28696, Note_on_c, 1, 86, 82
2, 28696, Note_on_c, 1, 74, 85
2, 28772, Note_off_c, 1, 59, 64
2, 28772, Note_off_c, 1, 62, 64
2, 28788, Note_on_c, 1, 50, 40
2, 28868, Control_c, 1, 64, 127
2, 28888, Note_on_c, 1, 83, 66
2, 28900, Note_off_c, 1, 86, 64
2, 28904, Note_off_c, 1, 74, 64
2, 28904, Note_off_c, 1, 83, 64
2, 28988, Control_c, 1, 64, 0
2, 28992, Note_on_c, 1, 59, 56
2, 28992, Note_on_c, 1, 62, 54
2, 28992, Note_on_c, 1, 86, 78
2, 28992, Note_on_c, 1, 74, 89
2, 29084, Control_c, 1, 64, 127
2, 29096, Note_off_c, 1, 50, 64
2, 29100, Note_off_c, 1, 59, 64
2, 29104, Note_on_c, 1, 83, 61
2, 29108, Note_off_c, 1, 62, 64
2, 29112, Note_off_c, 1, 86, 64
2, 29120, Note_off_c, 1, 83, 64
2, 29128, Note_off_c, 1, 74, 64
2, 29196, Control_c, 1, 64, 0
2, 29200, Note_on_c, 1, 86, 83
2, 29200, Note_on_c, 1, 55, 66
2, 29204, Note_on_c, 1, 74, 91
2, 29296, Note_on_c, 1, 79, 67
2, 29400, Note_on_c, 1, 83, 69
2, 29404, Note_off_c, 1, 79, 64
2, 29408, Note_on_c, 1, 59, 58
2, 29408, Note_on_c, 1, 62, 63
2, 29408, Control_c, 1, 64, 127
2, 29416, Note_off_c, 1, 86, 64
2, 29428, Note_off_c, 1, 74, 64
2, 29428, Note_off_c, 1, 83, 64
2, 29508, Note_on_c, 1, 86, 84
2, 29508, Note_on_c, 1, 74, 98
2, 29576, Note_off_c, 1, 55, 64
2, 29584, Note_off_c, 1, 59, 64
2, 29592, Note_off_c, 1, 62, 64
2, 29596, Control_c, 1, 64, 0
2, 29616, Note_on_c, 1, 50, 87
2, 29684, Control_c, 1, 64, 127
2, 29708, Note_on_c, 1, 83, 79
2, 29712, Note_off_c, 1, 86, 64
2, 29724, Note_off_c, 1, 74, 64
2, 29736, Note_off_c, 1, 83, 64
2, 29816, Control_c, 1, 64, 0
2, 29824, Note_on_c, 1, 59, 78
2, 29828, Note_on_c, 1, 86, 98
2, 29828, Note_on_c, 1, 74, 87
2, 29828, Note_on_c, 1, 62, 77
2, 29848, Control_c, 1, 64, 127
2, 29868, Note_off_c, 1, 59, 64
2, 29868, Note_off_c, 1, 62, 64
2, 29872, Note_off_c, 1, 50, 64
2, 29924, Note_on_c, 1, 83, 88
2, 29928, Note_off_c, 1, 86, 64
2, 29940, Note_off_c, 1, 74, 64
2, 29944, Note_off_c, 1, 83, 64
2, 30024, Note_on_c, 1, 48, 76
2, 30024, Note_on_c, 1, 60, 74
2, 30032, Control_c, 1, 64, 0
2, 30052, Note_off_c, 1, 48, 64
2, 30060, Note_on_c, 1, 76, 78
2, 30060, Note_on_c, 1, 88, 87
2, 30060, Control_c, 1, 64, 127
2, 30064, Note_off_c, 1, 60, 64
2, 30096, Note_off_c, 1, 76, 64
2, 30096, Note_off_c, 1, 88, 64
2, 30144, Note_on_c, 1, 88, 77
2, 30144, Note_on_c, 1, 76, 73
2, 30176, Note_off_c, 1, 88, 64
2, 30240, Note_on_c, 1, 55, 72
2, 30240, Note_on_c, 1, 64, 71
2, 30248, Note_on_c, 1, 60, 67
2, 30268, Note_off_c, 1, 76, 64
2, 30268, Note_off_c, 1, 60, 64
2, 30272, Note_off_c, 1, 55, 64
2, 30272, Note_off_c, 1, 64, 64
2, 30340, Note_on_c, 1, 79, 82
2, 30344, Note_on_c, 1, 76, 77
2, 30368, Note_off_c, 1, 79, 64
2, 30372, Note_off_c, 1, 76, 64
2, 30392, Control_c, 1, 64, 0
2, 30436, Note_on_c, 1, 48, 77
2, 30444, Note_on_c, 1, 60, 71
2, 30444, Note_on_c, 1, 81, 87
2, 30444, Note_on_c, 1, 76, 71
2, 30452, Note_off_c, 1, 48, 64
2, 30452, Control_c, 1, 64, 127
2, 30472, Note_off_c, 1, 60, 64
2, 30496, Note_off_c, 1, 76, 64
2, 30504, Note_off_c, 1, 81, 64
2, 30520, Control_c, 1, 64, 0
2, 30536, Note_on_c, 1, 79, 77
2, 30544, Note_on_c, 1, 76, 69
2, 30568, Note_off_c, 1, 79, 64
2, 30580, Note_off_c, 1, 76, 64
2, 30636, Note_on_c, 1, 55, 68
2, 30636, Note_on_c, 1, 81, 83
2, 30652, Note_on_c, 1, 76, 75
2, 30652, Note_on_c, 1, 64, 49
2, 30652, Control_c, 1, 64, 127
2, 30672, Note_off_c, 1, 64, 64
2, 30688, Note_off_c, 1, 55, 64
2, 30696, Note_off_c, 1, 81, 64
2, 30696, Note_off_c, 1, 76, 64
2, 30748, Control_c, 1, 64, 0
2, 30836, Note_on_c, 1, 47, 59
2, 30836, Control_c, 1, 64, 127
2, 30844, Note_on_c, 1, 83, 78
2, 30844, Note_on_c, 1, 75, 69
2, 30864, Note_off_c, 1, 47, 64
2, 31036, Note_on_c, 1, 54, 54
2, 31040, Control_c, 1, 64, 0
2, 31044, Note_on_c, 1, 57, 58
2, 31048, Note_on_c, 1, 59, 59
2, 31064, Note_off_c, 1, 54, 64
2, 31064, Note_off_c, 1, 57, 64
2, 31068, Note_off_c, 1, 59, 64
2, 31240, Note_off_c, 1, 83, 64
2, 31240, Note_off_c, 1, 75, 64
2, 31240, Note_on_c, 1, 54, 60
2, 31244, Note_on_c, 1, 57, 62
2, 31248, Note_on_c, 1, 59, 61
2, 31272, Note_off_c, 1, 54, 64
2, 31272, Note_off_c, 1, 57, 64
2, 31276, Note_off_c, 1, 59, 64
2, 31436, Control_c, 1, 64, 127
2, 31452, Note_on_c, 1, 71, 78
2, 31460, Note_on_c, 1, 83, 90
2, 31472, Note_off_c, 1, 71, 64
2, 31476, Note_off_c, 1, 83, 64
2, 31616, Control_c, 1, 64, 0
2, 31664, Control_c, 1, 64, 127
2, 31668, Note_on_c, 1, 44, 80
2, 31672, Note_on_c, 1, 88, 90
2, 31672, Note_on_c, 1, 76, 93
2, 31680, Note_off_c, 1, 44, 64
2, 31684, Note_off_c, 1, 88, 64
2, 31684, Note_off_c, 1, 76, 64
2, 31768, Note_on_c, 1, 86, 68
2, 31776, Note_on_c, 1, 74, 69
2, 31848, Note_off_c, 1, 86, 64
2, 31848, Note_off_c, 1, 74, 64
2, 31860, Note_on_c, 1, 52, 68
2, 31864, Control_c, 1, 64, 0
2, 31868, Note_on_c, 1, 62, 67
2, 31868, Note_on_c, 1, 56, 58
2, 31872, Note_off_c, 1, 52, 64
2, 31880, Note_off_c, 1, 62, 64
2, 31880, Note_off_c, 1, 56, 64
2, 31956, Note_on_c, 1, 83, 78
2, 31960, Note_on_c, 1, 71, 66
2, 31976, Note_off_c, 1, 83, 64
2, 31976, Note_off_c, 1, 71, 64
2, 32056, Note_on_c, 1, 40, 73
2, 32064, Note_on_c, 1, 84, 77
2, 32064, Note_on_c, 1, 72, 88
2, 32064, Control_c, 1, 64, 127
2, 32072, Note_off_c, 1, 40, 64
2, 32080, Note_off_c, 1, 84, 64
2, 32080, Note_off_c, 1, 72, 64
2, 32272, Note_on_c, 1, 52, 66
2, 32272, Note_on_c, 1, 83, 78
2, 32272, Note_on_c, 1, 56, 52
2, 32272, Note_on_c, 1, 62, 51
2, 32272, Note_on_c, 1, 71, 62
2, 32272, Control_c, 1, 64, 0
2, 32280, Note_off_c, 1, 62, 64
2, 32288, Note_off_c, 1, 52, 64
2, 32288, Note_off_c, 1, 56, 64
2, 32308, Note_off_c, 1, 83, 64
2, 32308, Note_off_c, 1, 71, 64
2, 32456, Note_on_c, 1, 45, 71
2, 32468, Control_c, 1, 64, 127
2, 32472, Note_off_c, 1, 45, 64
2, 32476, Note_on_c, 1, 83, 90
2, 32476, Note_on_c, 1, 71, 83
2, 32492, Note_off_c, 1, 83, 64
2, 32492, Note_off_c, 1, 71, 64
2, 32572, Note_on_c, 1, 81, 62
2, 32580, Note_on_c, 1, 69, 62
2, 32592, Note_off_c, 1, 81, 64
2, 32600, Note_off_c, 1, 69, 64
2, 32668, Note_on_c, 1, 57, 71
2, 32668, Note_on_c, 1, 64, 62
2, 32668, Note_on_c, 1, 60, 66
2, 32676, Note_off_c, 1, 57, 64
2, 32676, Note_off_c, 1, 64, 64
2, 32676, Note_off_c, 1, 60, 64
2, 32684, Control_c, 1, 64, 0
2, 32760, Note_on_c, 1, 64, 71
2, 32760, Note_on_c, 1, 76, 78
2, 32772, Note_off_c, 1, 64, 64
2, 32776, Note_off_c, 1, 76, 64
2, 32860, Note_on_c, 1, 48, 77
2, 32868, Control_c, 1, 64, 127
2, 32876, Note_off_c, 1, 48, 64
2, 32876, Note_on_c, 1, 83, 90
2, 32876, Note_on_c, 1, 71, 83
2, 32908, Note_off_c, 1, 83, 64
2, 32908, Note_off_c, 1, 71, 64
2, 33056, Control_c, 1, 64, 0
2, 33072, Note_on_c, 1, 81, 88
2, 33072, Note_on_c, 1, 63, 54
2, 33076, Note_on_c, 1, 69, 75
2, 33076, Note_on_c, 1, 57, 62
2, 33076, Note_on_c, 1, 60, 61
2, 33100, Control_c, 1, 64, 127
2, 33104, Note_off_c, 1, 57, 64
2, 33104, Note_off_c, 1, 60, 64
2, 33108, Note_off_c, 1, 63, 64
2, 33124, Note_off_c, 1, 69, 64
2, 33128, Note_off_c, 1, 81, 64
2, 33268, Note_on_c, 1, 50, 73
2, 33276, Control_c, 1, 64, 0
2, 33292, Note_on_c, 1, 83, 83
2, 33292, Note_on_c, 1, 71, 78
2, 33336, Note_off_c, 1, 71, 64
2, 33340, Note_off_c, 1, 83, 64
2, 33392, Note_on_c, 1, 69, 77
2, 33396, Note_on_c, 1, 81, 90
2, 33400, Control_c, 1, 64, 127
2, 33480, Note_off_c, 1, 69, 64
2, 33484, Note_on_c, 1, 59, 67
2, 33484, Note_on_c, 1, 62, 71
2, 33484, Note_on_c, 1, 55, 61
2, 33488, Note_off_c, 1, 81, 64
2, 33500, Note_off_c, 1, 59, 64
2, 33500, Note_off_c, 1, 62, 64
2, 33504, Note_off_c, 1, 55, 64
2, 33528, Note_off_c, 1, 50, 64
2, 33576, Note_on_c, 1, 83, 83
2, 33576, Note_on_c, 1, 71, 71
2, 33600, Note_off_c, 1, 83, 64
2, 33600, Note_off_c, 1, 71, 64
2, 33660, Control_c, 1, 64, 0
2, 33668, Note_on_c, 1, 38, 68
2, 33672, Note_on_c, 1, 50, 70
2, 33676, Note_on_c, 1, 76, 64
2, 33680, Note_on_c, 1, 84, 66
2, 33680, Note_on_c, 1, 72, 51
2, 33688, Control_c, 1, 64, 127
2, 33692, Note_off_c, 1, 76, 64
2, 33692, Note_off_c, 1, 72, 64
2, 33700, Note_off_c, 1, 38, 64
2, 33700, Note_off_c, 1, 50, 64
2, 33704, Note_off_c, 1, 84, 64
2, 33764, Note_on_c, 1, 40, 73
2, 33768, Note_on_c, 1, 83, 80
2, 33768, Note_on_c, 1, 52, 63
2, 33768, Note_on_c, 1, 74, 69
2, 33768, Note_on_c, 1, 71, 62
2, 33780, Note_off_c, 1, 40, 64
2, 33780, Note_off_c, 1, 52, 64
2, 33780, Note_off_c, 1, 74, 64
2, 33780, Note_off_c, 1, 71, 64
2, 33792, Note_off_c, 1, 83, 64
2, 33884, Note_on_c, 1, 81, 90
2, 33888, Note_on_c, 1, 54, 78
2, 33888, Note_on_c, 1, 69, 73
2, 33888, Note_on_c, 1, 42, 71
2, 33892, Note_on_c, 1, 72, 73
2, 33892, Control_c, 1, 64, 0
2, 33956, Note_off_c, 1, 72, 64
2, 33964, Note_off_c, 1, 42, 64
2, 33968, Note_off_c, 1, 81, 64
2, 33968, Note_off_c, 1, 69, 64
2, 33976, Note_off_c, 1, 54, 64
2, 34124, Note_on_c, 1, 71, 88
2, 34124, Note_on_c, 1, 67, 80
2, 34128, Note_on_c, 1, 55, 85
2, 34128, Note_on_c, 1, 43, 85
2, 34128, Note_on_c, 1, 50, 80
2, 34128, Control_c, 1, 64, 127
2, 34184, Note_off_c, 1, 67, 64
2, 34196, Note_off_c, 1, 55, 64
2, 34196, Note_off_c, 1, 50, 64
2, 34200, Note_off_c, 1, 71, 64
2, 34220, Note_off_c, 1, 43, 64
2, 34408, Control_c, 1, 64, 0
2, 34600, Note_on_c, 1, 91, 104
2, 34600, Note_on_c, 1, 83, 104
2, 34600, Note_on_c, 1, 38, 106
2, 34604, Note_on_c, 1, 79, 111
2, 34604, Note_on_c, 1, 86, 113
2, 34604, Note_on_c, 1, 31, 90
2, 34604, Note_on_c, 1, 43, 103
2, 34604, Control_c, 1, 64, 127
2, 34640, Note_off_c, 1, 38, 64
2, 34644, Note_off_c, 1, 43, 64
2, 34648, Note_off_c, 1, 31, 64
2, 34656, Note_off_c, 1, 79, 64
2, 34664, Note_off_c, 1, 91, 64
2, 34668, Note_off_c, 1, 83, 64
2, 34668, Note_off_c, 1, 86, 64
2, 34832, Control_c, 1, 64, 0
2, 35092, Note_on_c, 1, 78, 88
2, 35092, Note_on_c, 1, 82, 88
2, 35180, Note_off_c, 1, 78, 64
2, 35180, Note_on_c, 1, 83, 67
2, 35180, Note_on_c, 1, 79, 69
2, 35188, Note_off_c, 1, 82, 64
2, 35200, Note_off_c, 1, 79, 64
2, 35212, Note_off_c, 1, 83, 64
2, 35380, Note_on_c, 1, 78, 88
2, 35384, Note_on_c, 1, 82, 88
2, 35488, Note_off_c, 1, 78, 64
2, 35492, Note_off_c, 1, 82, 64
2, 35492, Note_on_c, 1, 83, 64
2, 35492, Note_on_c, 1, 79, 69
2, 35508, Note_off_c, 1, 79, 64
2, 35516, Note_off_c, 1, 83, 64
2, 35696, Note_on_c, 1, 78, 88
2, 35696, Note_on_c, 1, 82, 89
2, 35792, Note_on_c, 1, 83, 69
2, 35800, Note_off_c, 1, 78, 64
2, 35800, Note_off_c, 1, 82, 64
2, 35804, Note_on_c, 1, 79, 73
2, 35816, Note_off_c, 1, 79, 64
2, 35820, Note_off_c, 1, 83, 64
2, 35896, Note_on_c, 1, 48, 86
2, 35896, Note_on_c, 1, 60, 76
2, 35908, Note_on_c, 1, 78, 78
2, 35908, Note_on_c, 1, 75, 86
2, 35912, Note_off_c, 1, 48, 64
2, 35912, Note_off_c, 1, 60, 64
2, 35980, Note_off_c, 1, 75, 64
2, 35984, Note_off_c, 1, 78, 64
2, 36004, Note_on_c, 1, 79, 62
2, 36004, Note_on_c, 1, 76, 69
2, 36064, Note_off_c, 1, 79, 64
2, 36064, Note_off_c, 1, 76, 64
2, 36092, Note_on_c, 1, 55, 68
2, 36100, Note_off_c, 1, 55, 64
2, 36196, Note_on_c, 1, 76, 67
2, 36204, Note_on_c, 1, 72, 61
2, 36288, Note_on_c, 1, 48, 68
2, 36292, Note_on_c, 1, 60, 62
2, 36308, Note_off_c, 1, 48, 64
2, 36312, Note_off_c, 1, 60, 64
2, 36496, Note_on_c, 1, 55, 71
2, 36496, Note_on_c, 1, 64, 63
2, 36500, Note_on_c, 1, 60, 60
2, 36512, Note_off_c, 1, 60, 64
2, 36516, Note_off_c, 1, 55, 64
2, 36516, Note_off_c, 1, 64, 64
2, 36580, Note_off_c, 1, 72, 64
2, 36604, Note_off_c, 1, 76, 64
2, 36704, Note_on_c, 1, 48, 86
2, 36708, Note_on_c, 1, 78, 79
2, 36708, Note_on_c, 1, 75, 84
2, 36724, Note_off_c, 1, 48, 64
2, 36800, Note_off_c, 1, 78, 64
2, 36804, Note_on_c, 1, 79, 71
2, 36812, Note_off_c, 1, 75, 64
2, 36820, Note_on_c, 1, 76, 58
2, 36856, Note_off_c, 1, 79, 64
2, 36856, Note_off_c, 1, 76, 64
2, 36908, Note_on_c, 1, 64, 69
2, 36908, Note_on_c, 1, 55, 73
2, 36908, Note_on_c, 1, 60, 57
2, 36920, Note_off_c, 1, 60, 64
2, 36924, Note_off_c, 1, 64, 64
2, 36924, Note_off_c, 1, 55, 64
2, 37004, Note_on_c, 1, 78, 86
2, 37004, Note_on_c, 1, 75, 87
2, 37112, Note_off_c, 1, 78, 64
2, 37112, Note_off_c, 1, 75, 64
2, 37112, Note_on_c, 1, 48, 76
2, 37112, Note_on_c, 1, 79, 83
2, 37112, Note_on_c, 1, 76, 71
2, 37124, Note_off_c, 1, 48, 64
2, 37132, Note_off_c, 1, 79, 64
2, 37132, Note_off_c, 1, 76, 64
2, 37316, Note_on_c, 1, 75, 85
2, 37316, Note_on_c, 1, 78, 82
2, 37316, Note_on_c, 1, 64, 71
2, 37316, Note_on_c, 1, 55, 78
2, 37324, Note_on_c, 1, 60, 71
2, 37336, Note_off_c, 1, 60, 64
2, 37340, Note_off_c, 1, 64, 64
2, 37340, Note_off_c, 1, 55, 64
2, 37420, Note_off_c, 1, 75, 64
2, 37420, Note_off_c, 1, 78, 64
2, 37420, Note_on_c, 1, 79, 73
2, 37424, Note_on_c, 1, 76, 76
2, 37436, Note_off_c, 1, 76, 64
2, 37440, Note_off_c, 1, 79, 64
2, 37516, Note_on_c, 1, 55, 78
2, 37520, Note_on_c, 1, 73, 78
2, 37520, Note_on_c, 1, 70, 81
2, 37532, Note_off_c, 1, 55, 64
2, 37608, Note_off_c, 1, 70, 64
2, 37612, Note_on_c, 1, 74, 47
2, 37624, Note_off_c, 1, 73, 64
2, 37632, Note_on_c, 1, 71, 35
2, 37676, Note_off_c, 1, 74, 64
2, 37676, Note_off_c, 1, 71, 64
2, 37720, Note_on_c, 1, 59, 64
2, 37724, Note_on_c, 1, 62, 63
2, 37736, Note_off_c, 1, 59, 64
2, 37736, Note_off_c, 1, 62, 64
2, 37824, Note_on_c, 1, 71, 71
2, 37828, Note_on_c, 1, 67, 64
2, 37916, Note_on_c, 1, 50, 73
2, 37936, Note_off_c, 1, 50, 64
2, 38128, Note_on_c, 1, 59, 63
2, 38128, Note_on_c, 1, 62, 61
2, 38132, Note_off_c, 1, 67, 64
2, 38148, Note_off_c, 1, 71, 64
2, 38152, Control_c, 1, 64, 127
2, 38176, Note_off_c, 1, 59, 64
2, 38180, Note_off_c, 1, 62, 64
2, 38336, Note_on_c, 1, 70, 88
2, 38336, Control_c, 1, 64, 0
2, 38340, Note_on_c, 1, 73, 87
2, 38340, Note_on_c, 1, 55, 67
2, 38436, Note_on_c, 1, 74, 56
2, 38452, Note_off_c, 1, 73, 64
2, 38452, Note_on_c, 1, 71, 61
2, 38460, Note_off_c, 1, 70, 64
2, 38524, Note_off_c, 1, 74, 64
2, 38528, Note_off_c, 1, 71, 64
2, 38540, Note_on_c, 1, 62, 65
2, 38544, Note_on_c, 1, 59, 62
2, 38636, Note_on_c, 1, 73, 86
2, 38636, Note_on_c, 1, 70, 81
2, 38740, Note_off_c, 1, 73, 64
2, 38740, Note_off_c, 1, 70, 64
2, 38744, Note_on_c, 1, 74, 76
2, 38744, Note_on_c, 1, 71, 66
2, 38752, Note_off_c, 1, 62, 64
2, 38752, Note_off_c, 1, 59, 64
2, 38752, Note_on_c, 1, 50, 52
2, 38760, Note_off_c, 1, 55, 0
2, 38868, Note_off_c, 1, 74, 64
2, 38876, Note_off_c, 1, 71, 64
2, 38944, Note_on_c, 1, 62, 65
2, 38948, Note_on_c, 1, 59, 64
2, 38948, Note_on_c, 1, 73, 91
2, 38952, Note_on_c, 1, 70, 86
2, 38972, Note_off_c, 1, 62, 64
2, 38972, Note_off_c, 1, 59, 64
2, 38976, Note_off_c, 1, 50, 64
2, 38976, Control_c, 1, 64, 127
2, 39036, Note_off_c, 1, 70, 64
2, 39040, Note_off_c, 1, 73, 64
2, 39040, Note_on_c, 1, 74, 71
2, 39044, Note_on_c, 1, 71, 43
2, 39060, Note_off_c, 1, 74, 64
2, 39068, Note_off_c, 1, 71, 64
2, 39152, Note_on_c, 1, 55, 64
2, 39152, Note_on_c, 1, 71, 75
2, 39152, Note_on_c, 1, 67, 70
2, 39156, Control_c, 1, 64, 0
2, 39208, Note_off_c, 1, 71, 64
2, 39276, Note_off_c, 1, 67, 64
2, 39288, Note_off_c, 1, 55, 64
2, 39344, Note_on_c, 1, 54, 67
2, 39360, Note_on_c, 1, 71, 68
2, 39424, Note_off_c, 1, 71, 64
2, 39448, Note_off_c, 1, 54, 64
2, 39456, Note_on_c, 1, 67, 66
2, 39548, Note_on_c, 1, 52, 76
2, 39552, Note_off_c, 1, 67, 64
2, 39648, Note_on_c, 1, 71, 64
2, 39668, Note_off_c, 1, 52, 64
2, 39740, Note_off_c, 1, 71, 64
2, 39756, Note_on_c, 1, 67, 66
2, 39760, Note_on_c, 1, 50, 76
2, 39788, Note_off_c, 1, 67, 64
2, 39896, Note_off_c, 1, 50, 0
2, 39964, Note_on_c, 1, 70, 69
2, 39964, Note_on_c, 1, 73, 65
2, 39964, Note_on_c, 1, 55, 86
2, 40064, Note_on_c, 1, 74, 67
2, 40068, Note_off_c, 1, 70, 64
2, 40068, Note_on_c, 1, 71, 62
2, 40072, Note_off_c, 1, 73, 64
2, 40156, Note_off_c, 1, 74, 64
2, 40160, Note_off_c, 1, 71, 64
2, 40172, Note_on_c, 1, 62, 68
2, 40176, Note_on_c, 1, 59, 71
2, 40268, Note_off_c, 1, 62, 64
2, 40268, Note_off_c, 1, 59, 64
2, 40268, Note_on_c, 1, 73, 76
2, 40268, Note_on_c, 1, 70, 71
2, 40372, Note_off_c, 1, 73, 64
2, 40372, Note_off_c, 1, 70, 64
2, 40372, Note_on_c, 1, 50, 72
2, 40376, Note_on_c, 1, 74, 67
2, 40376, Note_on_c, 1, 71, 63
2, 40396, Note_off_c, 1, 74, 64
2, 40404, Note_off_c, 1, 71, 64
2, 40408, Note_off_c, 1, 55, 64
2, 40572, Note_on_c, 1, 59, 78
2, 40572, Note_on_c, 1, 73, 62
2, 40572, Note_on_c, 1, 62, 76
2, 40572, Note_on_c, 1, 70, 58
2, 40632, Note_off_c, 1, 62, 64
2, 40648, Note_off_c, 1, 59, 64
2, 40664, Note_off_c, 1, 73, 64
2, 40668, Note_off_c, 1, 70, 64
2, 40672, Note_on_c, 1, 74, 52
2, 40672, Note_on_c, 1, 71, 55
2, 40720, Note_off_c, 1, 71, 64
2, 40724, Note_off_c, 1, 74, 64
2, 40772, Note_on_c, 1, 55, 69
2, 40780, Note_on_c, 1, 67, 67
2, 40780, Note_on_c, 1, 71, 66
2, 40816, Note_off_c, 1, 71, 64
2, 40844, Note_off_c, 1, 50, 64
2, 40888, Note_off_c, 1, 67, 64
2, 40916, Note_off_c, 1, 55, 64
2, 40972, Note_on_c, 1, 54, 75
2, 40992, Note_on_c, 1, 71, 61
2, 41016, Note_off_c, 1, 71, 64
2, 41072, Note_on_c, 1, 67, 63
2, 41092, Note_off_c, 1, 54, 64
2, 41180, Note_off_c, 1, 67, 64
2, 41180, Note_on_c, 1, 52, 87
2, 41280, Note_on_c, 1, 71, 64
2, 41312, Note_off_c, 1, 52, 0
2, 41316, Note_off_c, 1, 71, 64
2, 41404, Note_on_c, 1, 67, 65
2, 41408, Note_on_c, 1, 50, 91
2, 41420, Note_off_c, 1, 67, 64
2, 41424, Control_c, 1, 64, 127
2, 41512, Note_off_c, 1, 50, 64
2, 41628, Note_on_c, 1, 55, 97
2, 41632, Note_on_c, 1, 82, 78
2, 41632, Note_on_c, 1, 78, 71
2, 41640, Control_c, 1, 64, 0
2, 41724, Note_off_c, 1, 82, 64
2, 41728, Note_off_c, 1, 78, 64
2, 41728, Note_on_c, 1, 83, 76
2, 41728, Note_on_c, 1, 79, 68
2, 41756, Note_off_c, 1, 55, 64
2, 41792, Note_off_c, 1, 83, 64
2, 41792, Note_off_c, 1, 79, 64
2, 41828, Note_on_c, 1, 62, 71
2, 41828, Note_on_c, 1, 59, 78
2, 41888, Note_off_c, 1, 62, 64
2, 41892, Note_off_c, 1, 59, 64
2, 41916, Note_on_c, 1, 82, 78
2, 41916, Note_on_c, 1, 78, 76
2, 42020, Note_off_c, 1, 82, 64
2, 42020, Note_on_c, 1, 83, 83
2, 42020, Note_on_c, 1, 79, 81
2, 42024, Note_on_c, 1, 50, 73
2, 42032, Note_off_c, 1, 78, 64
2, 42056, Note_off_c, 1, 50, 64
2, 42136, Note_off_c, 1, 83, 64
2, 42144, Note_off_c, 1, 79, 64
2, 42212, Note_on_c, 1, 62, 69
2, 42212, Note_on_c, 1, 82, 87
2, 42216, Note_on_c, 1, 59, 75
2, 42216, Note_on_c, 1, 78, 86
2, 42228, Note_off_c, 1, 62, 64
2, 42228, Note_off_c, 1, 59, 64
2, 42308, Note_off_c, 1, 82, 64
2, 42308, Note_off_c, 1, 78, 64
2, 42308, Note_on_c, 1, 83, 69
2, 42308, Note_on_c, 1, 79, 86
2, 42336, Note_off_c, 1, 83, 64
2, 42336, Note_off_c, 1, 79, 64
2, 42412, Note_on_c, 1, 48, 83
2, 42412, Note_on_c, 1, 78, 81
2, 42412, Note_on_c, 1, 60, 75
2, 42412, Note_on_c, 1, 75, 78
2, 42428, Note_off_c, 1, 48, 64
2, 42436, Note_off_c, 1, 60, 64
2, 42492, Note_off_c, 1, 78, 64
2, 42492, Note_off_c, 1, 75, 64
2, 42504, Note_on_c, 1, 79, 71
2, 42508, Note_on_c, 1, 76, 76
2, 42616, Note_off_c, 1, 79, 0
2, 42616, Note_off_c, 1, 76, 0
2, 42616, Note_on_c, 1, 60, 71
2, 42616, Note_on_c, 1, 64, 69
2, 42616, Note_on_c, 1, 55, 68
2, 42628, Note_off_c, 1, 60, 64
2, 42628, Note_off_c, 1, 64, 64
2, 42632, Note_off_c, 1, 55, 64
2, 42712, Note_on_c, 1, 76, 71
2, 42720, Note_on_c, 1, 72, 68
2, 42820, Note_on_c, 1, 48, 86
2, 42820, Note_on_c, 1, 60, 75
2, 42836, Note_off_c, 1, 48, 64
2, 42840, Note_off_c, 1, 60, 64
2, 43024, Note_on_c, 1, 55, 81
2, 43024, Note_on_c, 1, 60, 75
2, 43024, Note_on_c, 1, 64, 69
2, 43032, Note_off_c, 1, 72, 64
2, 43036, Note_off_c, 1, 55, 64
2, 43040, Note_off_c, 1, 60, 64
2, 43040, Note_off_c, 1, 64, 64
2, 43044, Note_off_c, 1, 76, 64
2, 43224, Note_on_c, 1, 48, 83
2, 43224, Note_on_c, 1, 75, 88
2, 43232, Note_on_c, 1, 78, 83
2, 43232, Note_on_c, 1, 60, 78
2, 43244, Note_off_c, 1, 48, 64
2, 43256, Note_off_c, 1, 60, 64
2, 43328, Note_off_c, 1, 75, 64
2, 43328, Note_off_c, 1, 78, 64
2, 43328, Note_on_c, 1, 79, 66
2, 43332, Note_on_c, 1, 76, 68
2, 43356, Note_off_c, 1, 79, 64
2, 43372, Note_off_c, 1, 76, 64
2, 43424, Note_on_c, 1, 55, 76
2, 43424, Note_on_c, 1, 64, 69
2, 43428, Note_on_c, 1, 60, 71
2, 43440, Note_off_c, 1, 60, 64
2, 43444, Note_off_c, 1, 64, 64
2, 43448, Note_off_c, 1, 55, 64
2, 43524, Note_on_c, 1, 78, 83
2, 43524, Note_on_c, 1, 75, 88
2, 43624, Note_off_c, 1, 78, 64
2, 43624, Note_off_c, 1, 75, 64
2, 43628, Note_on_c, 1, 48, 83
2, 43628, Note_on_c, 1, 76, 68
2, 43632, Note_on_c, 1, 60, 71
2, 43632, Note_on_c, 1, 79, 71
2, 43644, Note_off_c, 1, 48, 64
2, 43648, Note_off_c, 1, 60, 64
2, 43656, Note_off_c, 1, 76, 64
2, 43656, Note_off_c, 1, 79, 64
2, 43832, Note_on_c, 1, 55, 78
2, 43832, Note_on_c, 1, 64, 75
2, 43836, Note_on_c, 1, 78, 86
2, 43836, Note_on_c, 1, 75, 91
2, 43836, Note_on_c, 1, 60, 75
2, 43844, Note_off_c, 1, 64, 64
2, 43844, Note_off_c, 1, 60, 64
2, 43848, Note_off_c, 1, 55, 64
2, 43912, Note_off_c, 1, 78, 0
2, 43912, Note_off_c, 1, 75, 0
2, 43928, Note_on_c, 1, 79, 68
2, 43928, Note_on_c, 1, 76, 71
2, 43944, Note_off_c, 1, 79, 64
2, 43952, Note_off_c, 1, 76, 64
2, 44032, Note_on_c, 1, 55, 81
2, 44036, Note_on_c, 1, 70, 85
2, 44036, Note_on_c, 1, 73, 81
2, 44048, Note_off_c, 1, 55, 64
2, 44132, Note_on_c, 1, 74, 67
2, 44140, Note_off_c, 1, 70, 64
2, 44140, Note_on_c, 1, 71, 58
2, 44152, Note_off_c, 1, 73, 64
2, 44220, Note_off_c, 1, 71, 64
2, 44232, Note_off_c, 1, 74, 64
2, 44240, Note_on_c, 1, 59, 78
2, 44240, Note_on_c, 1, 62, 71
2, 44312, Note_off_c, 1, 59, 64
2, 44320, Note_off_c, 1, 62, 64
2, 44344, Note_on_c, 1, 71, 69
2, 44344, Note_on_c, 1, 67, 69
2, 44448, Note_on_c, 1, 50, 86
2, 44460, Control_c, 1, 64, 127
2, 44520, Note_off_c, 1, 50, 64
2, 44548, Control_c, 1, 64, 0
2, 44656, Note_off_c, 1, 67, 64
2, 44660, Note_off_c, 1, 71, 64
2, 44660, Control_c, 1, 64, 127
2, 44668, Note_on_c, 1, 59, 78
2, 44668, Note_on_c, 1, 62, 75
2, 44688, Note_off_c, 1, 59, 64
2, 44696, Note_off_c, 1, 62, 64
2, 44860, Note_on_c, 1, 69, 69
2, 44868, Note_on_c, 1, 67, 63
2, 44868, Note_on_c, 1, 48, 51
2, 44872, Note_on_c, 1, 60, 59
2, 44876, Note_on_c, 1, 64, 36
2, 44876, Control_c, 1, 64, 0
2, 44888, Note_off_c, 1, 69, 64
2, 44888, Note_off_c, 1, 67, 64
2, 44888, Note_off_c, 1, 64, 64
2, 44964, Note_on_c, 1, 69, 69
2, 44968, Note_on_c, 1, 67, 67
2, 44968, Note_on_c, 1, 64, 65
2, 45064, Note_off_c, 1, 67, 64
2, 45064, Note_off_c, 1, 64, 64
2, 45072, Note_off_c, 1, 69, 64
2, 45156, Note_on_c, 1, 69, 78
2, 45156, Note_on_c, 1, 67, 81
2, 45156, Note_on_c, 1, 64, 69
2, 45156, Control_c, 1, 64, 127
2, 45172, Note_off_c, 1, 48, 64
2, 45172, Note_off_c, 1, 60, 64
2, 45176, Note_off_c, 1, 69, 64
2, 45176, Note_off_c, 1, 67, 64
2, 45176, Note_off_c, 1, 64, 64
2, 45264, Note_on_c, 1, 76, 78
2, 45264, Note_on_c, 1, 61, 78
2, 45264, Note_on_c, 1, 49, 78
2, 45264, Note_on_c, 1, 67, 73
2, 45268, Note_on_c, 1, 70, 60
2, 45268, Control_c, 1, 64, 0
2, 45360, Note_off_c, 1, 70, 64
2, 45364, Note_off_c, 1, 76, 64
2, 45364, Note_off_c, 1, 67, 64
2, 45464, Note_on_c, 1, 76, 76
2, 45464, Note_on_c, 1, 70, 67
2, 45472, Note_on_c, 1, 67, 76
2, 45476, Control_c, 1, 64, 127
2, 45500, Note_off_c, 1, 61, 64
2, 45500, Note_off_c, 1, 49, 64
2, 45528, Note_off_c, 1, 70, 64
2, 45540, Note_off_c, 1, 67, 64
2, 45548, Note_off_c, 1, 76, 64
2, 45640, Note_on_c, 1, 50, 66
2, 45680, Control_c, 1, 64, 0
2, 45688, Note_on_c, 1, 74, 83
2, 45688, Note_on_c, 1, 71, 69
2, 45696, Note_on_c, 1, 67, 67
2, 45720, Note_off_c, 1, 74, 64
2, 45720, Note_off_c, 1, 71, 64
2, 45796, Note_on_c, 1, 79, 89
2, 45804, Note_off_c, 1, 67, 64
2, 45908, Note_on_c, 1, 55, 56
2, 45908, Note_on_c, 1, 59, 54
2, 45912, Note_off_c, 1, 50, 64
2, 45912, Note_on_c, 1, 62, 63
2, 46000, Note_on_c, 1, 76, 83
2, 46008, Note_off_c, 1, 55, 64
2, 46008, Note_off_c, 1, 59, 64
2, 46016, Note_off_c, 1, 79, 64
2, 46016, Note_off_c, 1, 62, 64
2, 46096, Note_on_c, 1, 55, 59
2, 46096, Note_on_c, 1, 59, 60
2, 46104, Note_on_c, 1, 62, 58
2, 46124, Note_off_c, 1, 76, 64
2, 46124, Note_on_c, 1, 74, 91
2, 46204, Note_off_c, 1, 55, 64
2, 46204, Note_off_c, 1, 59, 64
2, 46204, Note_off_c, 1, 62, 64
2, 46204, Note_on_c, 1, 71, 81
2, 46216, Note_off_c, 1, 74, 64
2, 46296, Control_c, 1, 64, 127
2, 46300, Note_off_c, 1, 71, 64
2, 46304, Note_on_c, 1, 55, 64
2, 46304, Note_on_c, 1, 59, 65
2, 46304, Note_on_c, 1, 67, 88
2, 46308, Note_on_c, 1, 62, 63
2, 46324, Note_off_c, 1, 55, 64
2, 46324, Note_off_c, 1, 59, 64
2, 46328, Note_off_c, 1, 67, 64
2, 46328, Note_off_c, 1, 62, 64
2, 46400, Control_c, 1, 64, 0
2, 46504, Note_on_c, 1, 69, 69
2, 46508, Note_on_c, 1, 45, 49
2, 46508, Note_on_c, 1, 57, 44
2, 46512, Note_on_c, 1, 60, 38
2, 46524, Control_c, 1, 64, 127
2, 46532, Control_c, 1, 64, 0
2, 46536, Note_off_c, 1, 69, 64
2, 46536, Note_off_c, 1, 60, 64
2, 46608, Note_on_c, 1, 71, 68
2, 46608, Note_on_c, 1, 62, 66
2, 46632, Note_off_c, 1, 62, 64
2, 46640, Note_off_c, 1, 71, 64
2, 46700, Note_on_c, 1, 72, 60
2, 46712, Note_on_c, 1, 64, 65
2, 46720, Control_c, 1, 64, 127
2, 46744, Note_off_c, 1, 64, 64
2, 46748, Note_off_c, 1, 72, 64
2, 46780, Control_c, 1, 64, 0
2, 46812, Note_off_c, 1, 57, 0
2, 46812, Note_on_c, 1, 62, 64
2, 46820, Note_on_c, 1, 71, 68
2, 46832, Note_off_c, 1, 45, 0
2, 46928, Note_on_c, 1, 50, 54
2, 46928, Control_c, 1, 64, 127
2, 46936, Note_on_c, 1, 38, 51
2, 46944, Note_off_c, 1, 62, 64
2, 46984, Control_c, 1, 64, 0
2, 47008, Note_off_c, 1, 71, 64
2, 47020, Note_on_c, 1, 69, 71
2, 47020, Note_on_c, 1, 60, 58
2, 47104, Control_c, 1, 64, 127
2, 47120, Note_off_c, 1, 60, 64
2, 47148, Note_off_c, 1, 38, 64
2, 47152, Note_off_c, 1, 50, 64
2, 47160, Note_off_c, 1, 69, 64
2, 47224, Note_on_c, 1, 71, 60
2, 47228, Note_on_c, 1, 62, 60
2, 47252, Note_off_c, 1, 62, 64
2, 47256, Note_off_c, 1, 71, 64
2, 47296, Control_c, 1, 64, 0
2, 47324, Note_on_c, 1, 55, 54
2, 47324, Note_on_c, 1, 67, 66
2, 47328, Note_on_c, 1, 43, 51
2, 47328, Note_on_c, 1, 59, 51
2, 47352, Control_c, 1, 64, 127
2, 47376, Note_off_c, 1, 59, 64
2, 47384, Note_off_c, 1, 67, 64
2, 47388, Note_off_c, 1, 55, 64
2, 47404, Note_off_c, 1, 43, 64
2, 47612, Control_c, 1, 64, 0
2, 47772, Note_on_c, 1, 79, 64
2, 47776, Note_on_c, 1, 31, 39
2, 47780, Note_on_c, 1, 71, 41
2, 47780, Note_on_c, 1, 43, 50
2, 47780, Note_on_c, 1, 67, 38
2, 47788, Note_on_c, 1, 74, 33
2, 47856, Control_c, 1, 64, 127
2, 47900, Note_off_c, 1, 31, 64
2, 47900, Note_off_c, 1, 43, 64
2, 47904, Note_off_c, 1, 67, 64
2, 47908, Note_off_c, 1, 74, 64
2, 47912, Note_off_c, 1, 71, 64
2, 47940, Note_off_c, 1, 79, 64
2, 48080, Control_c, 1, 64, 0
2, 48180, Note_on_c, 1, 82, 62
2, 48184, Note_on_c, 1, 78, 64
2, 48304, Note_on_c, 1, 79, 37
2, 48312, Note_on_c, 1, 83, 38
2, 48316, Note_off_c, 1, 78, 64
2, 48320, Note_off_c, 1, 82, 64
2, 48348, Note_off_c, 1, 83, 64
2, 48356, Note_off_c, 1, 79, 64
2, 48492, Note_on_c, 1, 82, 68
2, 48492, Note_on_c, 1, 78, 67
2, 48612, Note_on_c, 1, 79, 51
2, 48620, Note_off_c, 1, 78, 64
2, 48628, Note_off_c, 1, 82, 64
2, 48648, Note_off_c, 1, 79, 64
2, 48804, Note_on_c, 1, 78, 65
2, 48808, Note_on_c, 1, 82, 64
2, 48896, Control_c, 1, 64, 127
2, 48904, Note_on_c, 1, 83, 40
2, 48904, Note_on_c, 1, 79, 52
2, 48916, Note_off_c, 1, 78, 64
2, 48916, Note_off_c, 1, 82, 64
2, 48924, Note_off_c, 1, 83, 64
2, 48924, Note_off_c, 1, 79, 64
2, 48992, Note_on_c, 1, 48, 62
2, 48996, Note_on_c, 1, 60, 49
2, 48996, Control_c, 1, 64, 0
2, 49000, Note_on_c, 1, 78, 62
2, 49000, Note_on_c, 1, 75, 55
2, 49008, Control_c, 1, 64, 127
2, 49016, Note_off_c, 1, 48, 64
2, 49028, Note_off_c, 1, 60, 64
2, 49076, Note_off_c, 1, 75, 64
2, 49080, Note_off_c, 1, 78, 64
2, 49100, Note_on_c, 1, 79, 58
2, 49108, Note_on_c, 1, 76, 66
2, 49132, Control_c, 1, 64, 0
2, 49184, Note_off_c, 1, 79, 64
2, 49184, Note_on_c, 1, 64, 59
2, 49184, Note_on_c, 1, 60, 59
2, 49188, Note_on_c, 1, 55, 57
2, 49196, Note_off_c, 1, 76, 64
2, 49212, Note_off_c, 1, 64, 64
2, 49212, Note_off_c, 1, 60, 64
2, 49232, Note_off_c, 1, 55, 64
2, 49296, Note_on_c, 1, 72, 46
2, 49296, Note_on_c, 1, 76, 63
2, 49392, Note_on_c, 1, 48, 57
2, 49400, Note_on_c, 1, 60, 49
2, 49400, Control_c, 1, 64, 127
2, 49416, Note_off_c, 1, 48, 64
2, 49424, Note_off_c, 1, 60, 64
2, 49596, Control_c, 1, 64, 0
2, 49612, Note_on_c, 1, 55, 54
2, 49612, Note_on_c, 1, 60, 52
2, 49612, Note_on_c, 1, 64, 57
2, 49652, Control_c, 1, 64, 127
2, 49668, Note_off_c, 1, 60, 64
2, 49668, Note_off_c, 1, 64, 64
2, 49676, Note_off_c, 1, 55, 64
2, 49748, Note_off_c, 1, 76, 0
2, 49768, Note_off_c, 1, 72, 0
2, 49808, Note_on_c, 1, 48, 63
2, 49812, Note_on_c, 1, 60, 58
2, 49812, Control_c, 1, 64, 0
2, 49828, Note_on_c, 1, 78, 62
2, 49828, Note_on_c, 1, 75, 53
2, 49848, Control_c, 1, 64, 127
2, 49860, Note_off_c, 1, 48, 64
2, 49872, Note_off_c, 1, 60, 64
2, 49924, Note_off_c, 1, 75, 64
2, 49924, Note_on_c, 1, 79, 58
2, 49928, Note_off_c, 1, 78, 64
2, 49928, Note_on_c, 1, 76, 48
2, 50016, Note_off_c, 1, 79, 64
2, 50016, Note_on_c, 1, 55, 62
2, 50016, Control_c, 1, 64, 0
2, 50020, Note_on_c, 1, 64, 49
2, 50020, Note_on_c, 1, 60, 58
2, 50024, Note_off_c, 1, 76, 64
2, 50044, Control_c, 1, 64, 127
2, 50068, Note_off_c, 1, 64, 64
2, 50068, Note_off_c, 1, 60, 64
2, 50076, Note_off_c, 1, 55, 64
2, 50112, Note_on_c, 1, 78, 55
2, 50116, Note_on_c, 1, 75, 53
2, 50192, Control_c, 1, 64, 0
2, 50212, Note_on_c, 1, 60, 57
2, 50212, Note_on_c, 1, 52, 60
2, 50220, Note_off_c, 1, 78, 64
2, 50220, Note_off_c, 1, 75, 64
2, 50224, Note_on_c, 1, 76, 42
2, 50232, Note_on_c, 1, 79, 35
2, 50232, Control_c, 1, 64, 127
2, 50236, Note_off_c, 1, 52, 64
2, 50252, Note_off_c, 1, 60, 64
2, 50376, Note_off_c, 1, 79, 64
2, 50388, Note_off_c, 1, 76, 64
2, 50416, Note_on_c, 1, 64, 64
2, 50420, Note_on_c, 1, 60, 53
2, 50420, Note_on_c, 1, 55, 42
2, 50420, Note_on_c, 1, 75, 61
2, 50420, Note_on_c, 1, 78, 64
2, 50424, Control_c, 1, 64, 0
2, 50440, Control_c, 1, 64, 127
2, 50484, Note_off_c, 1, 64, 64
2, 50484, Note_off_c, 1, 60, 64
2, 50484, Note_off_c, 1, 55, 64
2, 50520, Note_off_c, 1, 75, 64
2, 50528, Note_off_c, 1, 78, 64
2, 50528, Note_on_c, 1, 79, 57
2, 50532, Note_on_c, 1, 76, 39
2, 50540, Note_off_c, 1, 79, 64
2, 50556, Note_off_c, 1, 76, 64
2, 50620, Note_on_c, 1, 55, 52
2, 50620, Note_on_c, 1, 73, 58
2, 50624, Control_c, 1, 64, 0
2, 50636, Note_on_c, 1, 70, 31
2, 50684, Note_off_c, 1, 70, 0
2, 50688, Note_off_c, 1, 73, 0
2, 50696, Control_c, 1, 64, 127
2, 50712, Note_on_c, 1, 74, 67
2, 50712, Note_on_c, 1, 71, 64
2, 50744, Note_off_c, 1, 74, 64
2, 50744, Note_off_c, 1, 71, 64
2, 50828, Note_on_c, 1, 62, 55
2, 50868, Note_off_c, 1, 55, 0
2, 50868, Note_on_c, 1, 59, 51
2, 50888, Note_off_c, 1, 59, 64
2, 50900, Note_off_c, 1, 62, 64
2, 50924, Note_on_c, 1, 71, 64
2, 50924, Note_on_c, 1, 67, 49
2, 51012, Control_c, 1, 64, 0
2, 51016, Note_on_c, 1, 50, 64
2, 51064, Control_c, 1, 64, 127
2, 51112, Note_off_c, 1, 67, 64
2, 51120, Note_off_c, 1, 71, 64
2, 51224, Control_c, 1, 64, 0
2, 51228, Note_on_c, 1, 59, 59
2, 51228, Note_on_c, 1, 62, 58
2, 51264, Control_c, 1, 64, 127
2, 51320, Note_off_c, 1, 50, 64
2, 51320, Note_off_c, 1, 59, 64
2, 51320, Note_off_c, 1, 62, 64
2, 51428, Note_on_c, 1, 55, 50
2, 51444, Note_on_c, 1, 73, 65
2, 51444, Control_c, 1, 64, 0
2, 51448, Note_on_c, 1, 70, 62
2, 51544, Note_off_c, 1, 73, 64
2, 51548, Note_off_c, 1, 70, 64
2, 51548, Note_on_c, 1, 74, 58
2, 51556, Note_on_c, 1, 71, 58
2, 51560, Control_c, 1, 64, 127
2, 51644, Note_on_c, 1, 62, 57
2, 51644, Control_c, 1, 64, 0
2, 51652, Note_on_c, 1, 59, 56
2, 51672, Note_off_c, 1, 74, 64
2, 51680, Note_off_c, 1, 71, 64
2, 51716, Control_c, 1, 64, 127
2, 51744, Note_on_c, 1, 73, 57
2, 51748, Note_off_c, 1, 55, 64
2, 51748, Note_off_c, 1, 59, 64
2, 51748, Note_on_c, 1, 70, 49
2, 51760, Note_off_c, 1, 62, 64
2, 51844, Note_off_c, 1, 73, 64
2, 51848, Note_off_c, 1, 70, 64
2, 51848, Control_c, 1, 64, 0
2, 51856, Note_on_c, 1, 74, 67
2, 51856, Note_on_c, 1, 50, 47
2, 51856, Note_on_c, 1, 71, 54
2, 51888, Control_c, 1, 64, 127
2, 51968, Note_off_c, 1, 74, 64
2, 51968, Note_off_c, 1, 71, 64
2, 52040, Note_on_c, 1, 62, 59
2, 52048, Note_on_c, 1, 70, 62
2, 52048, Note_on_c, 1, 73, 53
2, 52052, Note_on_c, 1, 59, 36
2, 52052, Control_c, 1, 64, 0
2, 52076, Control_c, 1, 64, 127
2, 52088, Note_off_c, 1, 62, 64
2, 52124, Note_off_c, 1, 59, 64
2, 52140, Note_off_c, 1, 50, 0
2, 52140, Note_off_c, 1, 70, 64
2, 52144, Note_off_c, 1, 73, 64
2, 52144, Note_on_c, 1, 74, 66
2, 52156, Note_on_c, 1, 71, 55
2, 52164, Note_off_c, 1, 71, 64
2, 52172, Note_off_c, 1, 74, 64
2, 52260, Note_on_c, 1, 55, 46
2, 52260, Note_on_c, 1, 71, 64
2, 52264, Note_on_c, 1, 67, 39
2, 52264, Control_c, 1, 64, 0
2, 52312, Control_c, 1, 64, 127
2, 52348, Note_off_c, 1, 71, 64
2, 52380, Note_off_c, 1, 55, 64
2, 52444, Note_on_c, 1, 54, 51
2, 52452, Note_on_c, 1, 71, 54
2, 52452, Control_c, 1, 64, 0
2, 52472, Note_off_c, 1, 67, 64
2, 52496, Note_off_c, 1, 71, 64
2, 52564, Note_on_c, 1, 67, 78
2, 52572, Control_c, 1, 64, 127
2, 52608, Note_off_c, 1, 54, 64
2, 52668, Note_on_c, 1, 52, 61
2, 52668, Control_c, 1, 64, 0
2, 52688, Control_c, 1, 64, 127
2, 52736, Note_off_c, 1, 67, 64
2, 52768, Note_on_c, 1, 71, 69
2, 52772, Note_off_c, 1, 52, 64
2, 52800, Note_off_c, 1, 71, 64
2, 52864, Control_c, 1, 64, 0
2, 52868, Note_on_c, 1, 50, 68
2, 52888, Note_on_c, 1, 67, 78
2, 52896, Control_c, 1, 64, 127
2, 52956, Note_off_c, 1, 50, 64
2, 52956, Note_off_c, 1, 67, 64
2, 53072, Note_on_c, 1, 55, 69
2, 53088, Control_c, 1, 64, 0
2, 53100, Note_on_c, 1, 73, 55
2, 53112, Note_on_c, 1, 70, 33
2, 53188, Note_off_c, 1, 70, 64
2, 53192, Note_on_c, 1, 74, 65
2, 53200, Note_on_c, 1, 71, 53
2, 53204, Control_c, 1, 64, 127
2, 53208, Note_off_c, 1, 73, 64
2, 53276, Note_on_c, 1, 62, 60
2, 53280, Note_on_c, 1, 59, 52
2, 53284, Note_off_c, 1, 74, 64
2, 53284, Note_off_c, 1, 71, 64
2, 53284, Control_c, 1, 64, 0
2, 53288, Control_c, 1, 64, 127
2, 53376, Note_on_c, 1, 73, 57
2, 53384, Note_on_c, 1, 70, 48
2, 53416, Note_off_c, 1, 59, 0
2, 53420, Note_off_c, 1, 55, 0
2, 53420, Note_off_c, 1, 62, 0
2, 53476, Note_on_c, 1, 50, 76
2, 53488, Note_off_c, 1, 70, 64
2, 53492, Note_on_c, 1, 74, 65
2, 53496, Note_off_c, 1, 73, 64
2, 53500, Note_on_c, 1, 71, 38
2, 53500, Control_c, 1, 64, 0
2, 53604, Note_off_c, 1, 74, 64
2, 53616, Note_off_c, 1, 71, 64
2, 53680, Note_on_c, 1, 62, 63
2, 53680, Control_c, 1, 64, 127
2, 53684, Note_on_c, 1, 73, 58
2, 53684, Note_on_c, 1, 59, 51
2, 53688, Note_on_c, 1, 70, 50
2, 53708, Note_off_c, 1, 62, 64
2, 53724, Note_off_c, 1, 59, 64
2, 53744, Note_off_c, 1, 50, 64
2, 53768, Note_off_c, 1, 70, 64
2, 53772, Note_on_c, 1, 74, 60
2, 53776, Note_off_c, 1, 73, 64
2, 53780, Note_on_c, 1, 71, 57
2, 53800, Note_off_c, 1, 71, 64
2, 53840, Note_off_c, 1, 74, 64
2, 53880, Note_on_c, 1, 55, 69
2, 53892, Note_on_c, 1, 67, 55
2, 53892, Note_on_c, 1, 71, 64
2, 53892, Control_c, 1, 64, 0
2, 53932, Note_off_c, 1, 71, 64
2, 53932, Control_c, 1, 64, 127
2, 53988, Note_off_c, 1, 55, 64
2, 54064, Note_off_c, 1, 67, 64
2, 54080, Note_on_c, 1, 54, 75
2, 54084, Note_on_c, 1, 71, 64
2, 54096, Control_c, 1, 64, 0
2, 54136, Note_off_c, 1, 71, 64
2, 54164, Control_c, 1, 64, 127
2, 54192, Note_on_c, 1, 67, 76
2, 54204, Note_off_c, 1, 54, 64
2, 54296, Note_on_c, 1, 52, 82
2, 54296, Control_c, 1, 64, 0
2, 54348, Note_off_c, 1, 67, 64
2, 54352, Control_c, 1, 64, 127
2, 54404, Note_on_c, 1, 71, 68
2, 54408, Note_off_c, 1, 52, 64
2, 54500, Note_off_c, 1, 71, 64
2, 54508, Note_on_c, 1, 50, 91
2, 54520, Note_on_c, 1, 67, 69
2, 54520, Control_c, 1, 64, 0
2, 54532, Control_c, 1, 64, 127
2, 54536, Note_off_c, 1, 67, 64
2, 54624, Note_off_c, 1, 50, 64
2, 54712, Note_on_c, 1, 55, 88
2, 54716, Note_on_c, 1, 82, 79
2, 54716, Note_on_c, 1, 78, 77
2, 54736, Control_c, 1, 64, 0
2, 54816, Note_off_c, 1, 78, 64
2, 54816, Note_on_c, 1, 83, 67
2, 54824, Note_on_c, 1, 79, 75
2, 54828, Note_off_c, 1, 82, 64
2, 54844, Note_off_c, 1, 55, 64
2, 54920, Note_on_c, 1, 59, 86
2, 54920, Note_on_c, 1, 62, 78
2, 54932, Note_off_c, 1, 83, 64
2, 54932, Note_off_c, 1, 79, 64
2, 55012, Control_c, 1, 64, 127
2, 55020, Note_on_c, 1, 82, 78
2, 55024, Note_on_c, 1, 78, 76
2, 55036, Note_off_c, 1, 59, 64
2, 55036, Note_off_c, 1, 62, 64
2, 55120, Note_off_c, 1, 82, 64
2, 55124, Note_off_c, 1, 78, 64
2, 55128, Note_on_c, 1, 50, 92
2, 55128, Note_on_c, 1, 83, 78
2, 55128, Note_on_c, 1, 79, 73
2, 55128, Control_c, 1, 64, 0
2, 55256, Note_off_c, 1, 83, 64
2, 55264, Note_off_c, 1, 79, 64
2, 55324, Note_on_c, 1, 62, 68
2, 55324, Note_on_c, 1, 59, 76
2, 55332, Note_on_c, 1, 82, 94
2, 55332, Note_on_c, 1, 78, 86
2, 55332, Control_c, 1, 64, 127
2, 55344, Note_off_c, 1, 62, 64
2, 55344, Note_off_c, 1, 59, 64
2, 55352, Note_off_c, 1, 50, 64
2, 55420, Note_off_c, 1, 78, 64
2, 55420, Note_on_c, 1, 83, 71
2, 55428, Note_off_c, 1, 82, 64
2, 55428, Note_on_c, 1, 79, 81
2, 55444, Note_off_c, 1, 79, 64
2, 55448, Note_off_c, 1, 83, 64
2, 55528, Note_on_c, 1, 78, 76
2, 55528, Note_on_c, 1, 75, 76
2, 55528, Note_on_c, 1, 48, 91
2, 55528, Note_on_c, 1, 60, 76
2, 55536, Control_c, 1, 64, 0
2, 55588, Note_off_c, 1, 75, 64
2, 55592, Note_off_c, 1, 48, 64
2, 55596, Note_off_c, 1, 78, 64
2, 55604, Note_off_c, 1, 60, 64
2, 55620, Control_c, 1, 64, 127
2, 55624, Note_on_c, 1, 76, 75
2, 55624, Note_on_c, 1, 79, 76
2, 55732, Note_off_c, 1, 76, 64
2, 55736, Note_on_c, 1, 64, 71
2, 55740, Note_off_c, 1, 79, 64
2, 55740, Note_on_c, 1, 55, 81
2, 55740, Note_on_c, 1, 60, 76
2, 55740, Control_c, 1, 64, 0
2, 55804, Note_off_c, 1, 64, 64
2, 55804, Note_off_c, 1, 60, 64
2, 55812, Note_off_c, 1, 55, 64
2, 55836, Note_on_c, 1, 76, 81
2, 55836, Note_on_c, 1, 72, 81
2, 55936, Note_on_c, 1, 60, 78
2, 55936, Note_on_c, 1, 48, 81
2, 55936, Control_c, 1, 64, 127
2, 55956, Note_off_c, 1, 48, 64
2, 55960, Note_off_c, 1, 60, 64
2, 56104, Control_c, 1, 64, 0
2, 56144, Note_on_c, 1, 64, 76
2, 56144, Note_on_c, 1, 55, 78
2, 56144, Note_on_c, 1, 60, 78
2, 56160, Control_c, 1, 64, 127
2, 56164, Note_off_c, 1, 64, 64
2, 56164, Note_off_c, 1, 55, 64
2, 56164, Note_off_c, 1, 60, 64
2, 56260, Note_off_c, 1, 72, 0
2, 56264, Note_off_c, 1, 76, 0
2, 56284, Control_c, 1, 64, 0
2, 56348, Note_on_c, 1, 36, 78
2, 56348, Note_on_c, 1, 75, 91
2, 56348, Note_on_c, 1, 48, 68
2, 56348, Note_on_c, 1, 78, 88
2, 56352, Note_off_c, 1, 36, 64
2, 56356, Control_c, 1, 64, 127
2, 56360, Note_off_c, 1, 48, 64
2, 56444, Note_off_c, 1, 75, 64
2, 56444, Note_off_c, 1, 78, 64
2, 56444, Note_on_c, 1, 79, 78
2, 56448, Note_on_c, 1, 76, 75
2, 56552, Note_on_c, 1, 64, 67
2, 56556, Note_on_c, 1, 55, 81
2, 56556, Note_on_c, 1, 60, 68
2, 56564, Note_off_c, 1, 64, 64
2, 56564, Note_off_c, 1, 60, 64
2, 56568, Note_off_c, 1, 55, 64
2, 56572, Note_off_c, 1, 79, 64
2, 56580, Note_off_c, 1, 76, 64
2, 56652, Note_on_c, 1, 78, 91
2, 56652, Note_on_c, 1, 75, 83
2, 56676, Control_c, 1, 64, 0
2, 56760, Note_off_c, 1, 78, 64
2, 56760, Note_off_c, 1, 75, 64
2, 56760, Note_on_c, 1, 79, 85
2, 56760, Note_on_c, 1, 52, 88
2, 56764, Note_on_c, 1, 76, 78
2, 56764, Note_on_c, 1, 40, 86
2, 56764, Control_c, 1, 64, 127
2, 56772, Note_off_c, 1, 40, 64
2, 56780, Note_off_c, 1, 52, 64
2, 56916, Note_off_c, 1, 79, 64
2, 56924, Note_off_c, 1, 76, 64
2, 56972, Note_on_c, 1, 55, 81
2, 56972, Note_on_c, 1, 64, 67
2, 56972, Note_on_c, 1, 60, 68
2, 56972, Note_on_c, 1, 78, 76
2, 56976, Note_on_c, 1, 75, 86
2, 56980, Note_off_c, 1, 64, 64
2, 56984, Note_off_c, 1, 60, 64
2, 56988, Note_off_c, 1, 55, 64
2, 57068, Note_off_c, 1, 78, 64
2, 57068, Note_off_c, 1, 75, 64
2, 57068, Note_on_c, 1, 79, 78
2, 57068, Note_on_c, 1, 76, 71
2, 57092, Note_off_c, 1, 76, 64
2, 57100, Note_off_c, 1, 79, 64
2, 57168, Note_on_c, 1, 43, 81
2, 57168, Note_on_c, 1, 55, 88
2, 57172, Note_on_c, 1, 73, 63
2, 57172, Note_on_c, 1, 70, 67
2, 57180, Control_c, 1, 64, 0
2, 57228, Note_off_c, 1, 43, 64
2, 57244, Note_off_c, 1, 55, 64
2, 57252, Control_c, 1, 64, 127
2, 57260, Note_off_c, 1, 73, 64
2, 57260, Note_off_c, 1, 70, 64
2, 57264, Note_on_c, 1, 74, 73
2, 57272, Note_on_c, 1, 71, 67
2, 57348, Note_off_c, 1, 71, 64
2, 57372, Note_off_c, 1, 74, 0
2, 57372, Note_on_c, 1, 59, 62
2, 57372, Note_on_c, 1, 55, 61
2, 57372, Note_on_c, 1, 62, 62
2, 57412, Note_off_c, 1, 59, 64
2, 57412, Note_off_c, 1, 55, 64
2, 57416, Note_off_c, 1, 62, 64
2, 57472, Note_on_c, 1, 71, 73
2, 57476, Note_on_c, 1, 67, 71
2, 57548, Control_c, 1, 64, 0
2, 57580, Note_on_c, 1, 50, 78
2, 57592, Control_c, 1, 64, 127
2, 57704, Note_off_c, 1, 67, 64
2, 57712, Note_off_c, 1, 71, 64
2, 57788, Note_on_c, 1, 59, 67
2, 57788, Note_on_c, 1, 55, 63
2, 57792, Note_on_c, 1, 62, 63
2, 57804, Note_off_c, 1, 59, 64
2, 57808, Note_off_c, 1, 55, 64
2, 57808, Note_off_c, 1, 62, 64
2, 57816, Note_off_c, 1, 50, 64
2, 57988, Note_on_c, 1, 48, 54
2, 57992, Note_on_c, 1, 60, 52
2, 57992, Note_on_c, 1, 69, 64
2, 57992, Note_on_c, 1, 67, 64
2, 57992, Note_on_c, 1, 64, 49
2, 58004, Control_c, 1, 64, 0
2, 58024, Note_off_c, 1, 64, 64
2, 58032, Note_off_c, 1, 67, 64
2, 58036, Note_off_c, 1, 69, 64
2, 58056, Control_c, 1, 64, 127
2, 58084, Note_on_c, 1, 67, 64
2, 58084, Note_on_c, 1, 69, 66
2, 58092, Note_on_c, 1, 64, 65
2, 58112, Note_off_c, 1, 64, 64
2, 58152, Note_off_c, 1, 67, 64
2, 58152, Note_off_c, 1, 69, 64
2, 58288, Note_off_c, 1, 60, 64
2, 58288, Note_on_c, 1, 69, 86
2, 58288, Note_on_c, 1, 67, 76
2, 58292, Note_on_c, 1, 64, 69
2, 58300, Note_off_c, 1, 48, 64
2, 58308, Note_off_c, 1, 67, 64
2, 58308, Note_off_c, 1, 64, 64
2, 58312, Note_off_c, 1, 69, 64
2, 58396, Note_on_c, 1, 76, 77
2, 58396, Note_on_c, 1, 61, 73
2, 58400, Note_on_c, 1, 67, 76
2, 58400, Note_on_c, 1, 70, 65
2, 58404, Note_on_c, 1, 49, 83
2, 58408, Control_c, 1, 64, 0
2, 58444, Control_c, 1, 64, 127
2, 58492, Note_off_c, 1, 70, 64
2, 58500, Note_off_c, 1, 76, 64
2, 58504, Note_off_c, 1, 67, 64
2, 58596, Note_on_c, 1, 76, 83
2, 58600, Note_on_c, 1, 70, 68
2, 58600, Note_on_c, 1, 67, 81
2, 58624, Note_off_c, 1, 61, 64
2, 58624, Note_off_c, 1, 49, 64
2, 58672, Note_off_c, 1, 70, 64
2, 58684, Note_off_c, 1, 67, 64
2, 58732, Note_off_c, 1, 76, 0
2, 58780, Note_on_c, 1, 50, 76
2, 58824, Note_on_c, 1, 74, 83
2, 58824, Note_on_c, 1, 71, 76
2, 58828, Note_on_c, 1, 67, 73
2, 58828, Control_c, 1, 64, 0
2, 58940, Note_on_c, 1, 79, 84
2, 58952, Note_off_c, 1, 74, 64
2, 58956, Control_c, 1, 64, 127
2, 58984, Note_off_c, 1, 71, 64
2, 59044, Note_on_c, 1, 59, 69
2, 59048, Note_on_c, 1, 55, 66
2, 59048, Note_on_c, 1, 62, 66
2, 59068, Control_c, 1, 64, 0
2, 59132, Control_c, 1, 64, 127
2, 59140, Note_off_c, 1, 79, 64
2, 59140, Note_on_c, 1, 76, 87
2, 59160, Note_off_c, 1, 55, 64
2, 59164, Note_off_c, 1, 59, 64
2, 59164, Note_off_c, 1, 62, 64
2, 59232, Note_on_c, 1, 59, 64
2, 59236, Note_on_c, 1, 55, 65
2, 59236, Note_on_c, 1, 62, 64
2, 59236, Control_c, 1, 64, 0
2, 59256, Note_off_c, 1, 76, 64
2, 59256, Note_on_c, 1, 74, 88
2, 59316, Note_off_c, 1, 67, 64
2, 59348, Note_on_c, 1, 71, 81
2, 59352, Note_off_c, 1, 59, 64
2, 59352, Note_off_c, 1, 55, 64
2, 59356, Note_off_c, 1, 62, 64
2, 59356, Note_off_c, 1, 74, 64
2, 59440, Note_off_c, 1, 71, 64
2, 59440, Note_on_c, 1, 62, 64
2, 59440, Control_c, 1, 64, 127
2, 59448, Note_on_c, 1, 67, 77
2, 59448, Note_on_c, 1, 55, 63
2, 59452, Note_on_c, 1, 59, 63
2, 59464, Note_off_c, 1, 62, 64
2, 59468, Note_off_c, 1, 67, 64
2, 59468, Note_off_c, 1, 59, 64
2, 59472, Note_off_c, 1, 55, 64
2, 59488, Note_off_c, 1, 50, 64
2, 59608, Control_c, 1, 64, 0
2, 59636, Note_on_c, 1, 45, 75
2, 59636, Note_on_c, 1, 57, 63
2, 59636, Note_on_c, 1, 69, 76
2, 59636, Note_on_c, 1, 60, 65
2, 59648, Control_c, 1, 64, 127
2, 59664, Note_off_c, 1, 45, 64
2, 59664, Note_off_c, 1, 57, 64
2, 59668, Note_off_c, 1, 60, 64
2, 59676, Note_off_c, 1, 69, 64
2, 59740, Note_on_c, 1, 43, 65
2, 59740, Note_on_c, 1, 71, 71
2, 59740, Note_on_c, 1, 55, 60
2, 59740, Note_on_c, 1, 62, 75
2, 59760, Note_off_c, 1, 55, 64
2, 59772, Note_off_c, 1, 43, 64
2, 59772, Note_off_c, 1, 71, 64
2, 59772, Note_off_c, 1, 62, 64
2, 59848, Note_on_c, 1, 72, 76
2, 59848, Note_on_c, 1, 64, 69
2, 59852, Note_on_c, 1, 41, 61
2, 59852, Note_on_c, 1, 53, 56
2, 59868, Note_off_c, 1, 72, 64
2, 59868, Note_off_c, 1, 64, 64
2, 59868, Note_off_c, 1, 41, 64
2, 59868, Note_off_c, 1, 53, 64
2, 59912, Control_c, 1, 64, 0
2, 59932, Control_c, 1, 64, 127
2, 59952, Note_on_c, 1, 71, 75
2, 59952, Note_on_c, 1, 51, 57
2, 59952, Note_on_c, 1, 39, 66
2, 59956, Note_on_c, 1, 62, 69
2, 59976, Note_off_c, 1, 39, 64
2, 59988, Note_off_c, 1, 51, 64
2, 60072, Note_on_c, 1, 38, 76
2, 60072, Note_on_c, 1, 50, 82
2, 60076, Control_c, 1, 64, 0
2, 60084, Note_off_c, 1, 62, 64
2, 60152, Note_off_c, 1, 71, 0
2, 60196, Note_on_c, 1, 60, 68
2, 60196, Note_on_c, 1, 69, 73
2, 60196, Control_c, 1, 64, 127
2, 60276, Note_off_c, 1, 60, 64
2, 60300, Control_c, 1, 64, 0
2, 60312, Note_off_c, 1, 69, 64
2, 60364, Control_c, 1, 64, 127
2, 60376, Note_off_c, 1, 38, 0
2, 60380, Note_off_c, 1, 50, 0
2, 60396, Note_on_c, 1, 71, 76
2, 60400, Note_on_c, 1, 62, 65
2, 60428, Note_off_c, 1, 62, 64
2, 60496, Note_off_c, 1, 71, 64
2, 60508, Control_c, 1, 64, 0
2, 60512, Note_on_c, 1, 55, 64
2, 60520, Note_on_c, 1, 67, 66
2, 60520, Note_on_c, 1, 43, 63
2, 60520, Note_on_c, 1, 59, 65
2, 60540, Control_c, 1, 64, 127
2, 60552, Note_off_c, 1, 59, 64
2, 60560, Note_off_c, 1, 55, 64
2, 60568, Note_off_c, 1, 67, 64
2, 60568, Note_off_c, 1, 43, 64
2, 60732, Control_c, 1, 64, 0
2, 60928, Note_on_c, 1, 31, 40
2, 60936, Note_on_c, 1, 79, 66
2, 60940, Note_on_c, 1, 43, 42
2, 60940, Note_on_c, 1, 71, 64
2, 60940, Note_on_c, 1, 67, 49
2, 60940, Note_on_c, 1, 74, 66
2, 60940, Control_c, 1, 64, 127
2, 61020, Note_off_c, 1, 67, 64
2, 61020, Note_off_c, 1, 74, 64
2, 61032, Note_off_c, 1, 71, 64
2, 61060, Note_off_c, 1, 79, 64
2, 61096, Note_off_c, 1, 43, 64
2, 61104, Note_off_c, 1, 31, 64
2, 61236, Control_c, 1, 64, 0
2, 61312, Note_on_c, 1, 48, 68
2, 61340, Note_off_c, 1, 48, 64
2, 61348, Note_on_c, 1, 79, 89
2, 61348, Control_c, 1, 64, 127
2, 61456, Note_on_c, 1, 81, 94
2, 61460, Note_off_c, 1, 79, 0
2, 61472, Control_c, 1, 64, 0
2, 61536, Note_on_c, 1, 55, 62
2, 61544, Note_on_c, 1, 60, 59
2, 61544, Note_on_c, 1, 64, 65
2, 61556, Note_on_c, 1, 79, 92
2, 61560, Note_off_c, 1, 60, 64
2, 61560, Note_off_c, 1, 64, 64
2, 61564, Note_off_c, 1, 81, 64
2, 61572, Note_off_c, 1, 55, 64
2, 61652, Note_on_c, 1, 76, 87
2, 61660, Note_off_c, 1, 79, 64
2, 61736, Note_on_c, 1, 50, 64
2, 61748, Note_off_c, 1, 76, 64
2, 61756, Note_off_c, 1, 50, 64
2, 61756, Note_on_c, 1, 77, 89
2, 61832, Note_off_c, 1, 77, 64
2, 61848, Note_on_c, 1, 74, 81
2, 61940, Note_on_c, 1, 65, 65
2, 61940, Note_on_c, 1, 59, 73
2, 61940, Note_on_c, 1, 55, 66
2, 61956, Note_off_c, 1, 65, 64
2, 61960, Note_off_c, 1, 59, 64
2, 61960, Note_off_c, 1, 55, 64
2, 62028, Note_off_c, 1, 74, 64
2, 62044, Note_on_c, 1, 76, 91
2, 62132, Note_on_c, 1, 43, 81
2, 62148, Note_off_c, 1, 76, 64
2, 62152, Note_off_c, 1, 43, 64
2, 62152, Note_on_c, 1, 77, 91
2, 62248, Note_on_c, 1, 79, 94
2, 62256, Note_off_c, 1, 77, 64
2, 62340, Note_on_c, 1, 55, 46
2, 62340, Note_on_c, 1, 65, 47
2, 62340, Note_on_c, 1, 59, 59
2, 62348, Note_off_c, 1, 79, 64
2, 62348, Note_on_c, 1, 81, 91
2, 62356, Note_off_c, 1, 55, 64
2, 62356, Note_off_c, 1, 65, 64
2, 62360, Note_off_c, 1, 59, 64
2, 62440, Note_off_c, 1, 81, 64
2, 62448, Note_on_c, 1, 76, 83
2, 62544, Note_on_c, 1, 50, 59
2, 62552, Note_off_c, 1, 76, 64
2, 62564, Note_off_c, 1, 50, 64
2, 62564, Note_on_c, 1, 77, 91
2, 62648, Note_off_c, 1, 77, 64
2, 62656, Note_on_c, 1, 74, 86
2, 62756, Note_on_c, 1, 55, 69
2, 62760, Note_on_c, 1, 65, 67
2, 62760, Note_on_c, 1, 59, 73
2, 62768, Note_off_c, 1, 59, 64
2, 62772, Note_off_c, 1, 55, 64
2, 62772, Note_off_c, 1, 65, 64
2, 62844, Note_off_c, 1, 74, 0
2, 62852, Note_on_c, 1, 76, 86
2, 62952, Note_off_c, 1, 76, 64
2, 62952, Note_on_c, 1, 48, 64
2, 62952, Control_c, 1, 64, 127
2, 62968, Note_on_c, 1, 72, 68
2, 62972, Note_off_c, 1, 48, 64
2, 63068, Note_on_c, 1, 76, 81
2, 63140, Control_c, 1, 64, 0
2, 63152, Note_off_c, 1, 76, 64
2, 63152, Note_on_c, 1, 60, 59
2, 63152, Note_on_c, 1, 55, 63
2, 63152, Note_on_c, 1, 79, 81
2, 63156, Note_on_c, 1, 64, 55
2, 63176, Note_off_c, 1, 72, 64
2, 63176, Note_off_c, 1, 60, 64
2, 63180, Note_off_c, 1, 64, 64
2, 63188, Note_off_c, 1, 55, 64
2, 63244, Note_on_c, 1, 72, 58
2, 63260, Note_off_c, 1, 79, 64
2, 63280, Note_on_c, 1, 76, 76
2, 63340, Note_on_c, 1, 81, 76
2, 63368, Control_c, 1, 64, 0
2, 63400, Note_on_c, 1, 43, 68
2, 63408, Control_c, 1, 64, 127
2, 63420, Note_off_c, 1, 43, 64
2, 63572, Control_c, 1, 64, 0
2, 63608, Note_on_c, 1, 64, 60
2, 63612, Note_on_c, 1, 55, 60
2, 63612, Note_on_c, 1, 60, 58
2, 63612, Control_c, 1, 64, 0
2, 63624, Note_off_c, 1, 64, 64
2, 63624, Note_off_c, 1, 60, 64
2, 63632, Note_off_c, 1, 55, 64
2, 63756, Note_off_c, 1, 72, 64
2, 63768, Note_off_c, 1, 76, 64
2, 63796, Note_off_c, 1, 81, 64
2, 63812, Note_on_c, 1, 48, 63
2, 63820, Note_off_c, 1, 48, 64
2, 63904, Note_on_c, 1, 72, 58
2, 64012, Note_on_c, 1, 55, 39
2, 64020, Note_on_c, 1, 60, 39
2, 64020, Note_on_c, 1, 64, 61
2, 64020, Note_on_c, 1, 76, 69
2, 64028, Note_off_c, 1, 60, 64
2, 64032, Note_off_c, 1, 55, 64
2, 64032, Note_off_c, 1, 64, 64
2, 64052, Note_off_c, 1, 76, 64
2, 64112, Note_on_c, 1, 79, 81
2, 64128, Note_off_c, 1, 79, 64
2, 64208, Note_on_c, 1, 52, 68
2, 64228, Note_on_c, 1, 81, 83
2, 64236, Note_off_c, 1, 72, 64
2, 64320, Note_on_c, 1, 79, 86
2, 64412, Note_off_c, 1, 79, 64
2, 64420, Note_on_c, 1, 64, 63
2, 64420, Note_on_c, 1, 60, 39
2, 64424, Note_on_c, 1, 76, 88
2, 64428, Note_off_c, 1, 52, 64
2, 64428, Note_off_c, 1, 60, 64
2, 64432, Note_off_c, 1, 64, 64
2, 64432, Control_c, 1, 64, 127
2, 64508, Note_off_c, 1, 76, 64
2, 64524, Note_on_c, 1, 72, 91
2, 64556, Note_off_c, 1, 72, 64
2, 64596, Note_on_c, 1, 50, 65
2, 64632, Note_on_c, 1, 71, 88
2, 64636, Control_c, 1, 64, 0
2, 64724, Note_off_c, 1, 81, 64
2, 64724, Note_off_c, 1, 50, 64
2, 64728, Note_on_c, 1, 74, 91
2, 64820, Note_on_c, 1, 59, 66
2, 64820, Note_on_c, 1, 55, 64
2, 64820, Note_on_c, 1, 65, 54
2, 64828, Note_on_c, 1, 77, 78
2, 64828, Control_c, 1, 64, 127
2, 64840, Note_off_c, 1, 74, 64
2, 64840, Note_off_c, 1, 65, 64
2, 64844, Note_off_c, 1, 59, 64
2, 64852, Note_off_c, 1, 55, 64
2, 64860, Note_off_c, 1, 71, 64
2, 64904, Note_on_c, 1, 71, 70
2, 64908, Note_off_c, 1, 77, 64
2, 64948, Note_on_c, 1, 74, 77
2, 64976, Control_c, 1, 64, 0
2, 65020, Note_on_c, 1, 43, 55
2, 65052, Note_off_c, 1, 43, 64
2, 65056, Note_on_c, 1, 81, 76
2, 65064, Control_c, 1, 64, 127
2, 65252, Control_c, 1, 64, 0
2, 65256, Note_on_c, 1, 65, 58
2, 65264, Note_on_c, 1, 55, 51
2, 65276, Note_off_c, 1, 55, 64
2, 65280, Note_off_c, 1, 65, 64
2, 65300, Control_c, 1, 64, 127
2, 65348, Control_c, 1, 64, 0
2, 65436, Note_on_c, 1, 50, 73
2, 65452, Note_off_c, 1, 50, 64
2, 65464, Note_off_c, 1, 71, 0
2, 65496, Note_off_c, 1, 74, 0
2, 65524, Note_off_c, 1, 81, 0
2, 65540, Note_on_c, 1, 71, 69
2, 65636, Note_on_c, 1, 55, 63
2, 65640, Note_on_c, 1, 65, 51
2, 65640, Note_on_c, 1, 74, 66
2, 65656, Note_off_c, 1, 55, 64
2, 65656, Note_off_c, 1, 65, 64
2, 65700, Note_off_c, 1, 74, 64
2, 65732, Note_on_c, 1, 77, 71
2, 65764, Note_off_c, 1, 77, 64
2, 65820, Note_on_c, 1, 43, 65
2, 65840, Note_off_c, 1, 43, 64
2, 65840, Control_c, 1, 64, 127
2, 65856, Note_on_c, 1, 81, 69
2, 65944, Note_off_c, 1, 71, 64
2, 65944, Note_on_c, 1, 77, 75
2, 66036, Note_on_c, 1, 55, 59
2, 66036, Note_on_c, 1, 65, 57
2, 66036, Note_on_c, 1, 59, 63
2, 66036, Control_c, 1, 64, 0
2, 66040, Note_off_c, 1, 77, 64
2, 66056, Note_off_c, 1, 65, 64
2, 66056, Note_on_c, 1, 74, 86
2, 66056, Control_c, 1, 64, 127
2, 66064, Note_off_c, 1, 59, 64
2, 66076, Note_off_c, 1, 55, 64
2, 66128, Note_off_c, 1, 74, 64
2, 66148, Note_on_c, 1, 71, 81
2, 66208, Note_off_c, 1, 71, 64
2, 66212, Note_on_c, 1, 48, 68
2, 66236, Control_c, 1, 64, 0
2, 66248, Note_on_c, 1, 72, 88
2, 66268, Control_c, 1, 64, 127
2, 66276, Note_off_c, 1, 48, 64
2, 66304, Note_off_c, 1, 81, 64
2, 66344, Note_on_c, 1, 76, 86
2, 66420, Control_c, 1, 64, 0
2, 66432, Note_off_c, 1, 76, 64
2, 66436, Note_on_c, 1, 79, 86
2, 66444, Note_on_c, 1, 60, 64
2, 66444, Note_on_c, 1, 55, 75
2, 66444, Note_on_c, 1, 64, 68
2, 66480, Note_off_c, 1, 64, 64
2, 66488, Note_off_c, 1, 55, 64
2, 66492, Note_off_c, 1, 79, 64
2, 66496, Note_off_c, 1, 60, 64
2, 66500, Control_c, 1, 64, 127
2, 66516, Note_off_c, 1, 72, 64
2, 66544, Note_on_c, 1, 84, 86
2, 66544, Note_on_c, 1, 76, 86
2, 66548, Note_on_c, 1, 72, 76
2, 66568, Note_off_c, 1, 76, 64
2, 66572, Note_off_c, 1, 72, 64
2, 66584, Note_off_c, 1, 84, 64
2, 66664, Note_on_c, 1, 83, 86
2, 66664, Note_on_c, 1, 75, 81
2, 66664, Note_on_c, 1, 71, 78
2, 66664, Note_on_c, 1, 54, 73
2, 66664, Note_on_c, 1, 60, 76
2, 66668, Note_on_c, 1, 63, 62
2, 66668, Control_c, 1, 64, 0
2, 66728, Control_c, 1, 64, 127
2, 66752, Note_off_c, 1, 83, 64
2, 66752, Note_off_c, 1, 71, 64
2, 66760, Note_off_c, 1, 75, 64
2, 66792, Note_off_c, 1, 54, 64
2, 66796, Note_off_c, 1, 63, 64
2, 66804, Note_off_c, 1, 60, 64
2, 66880, Control_c, 1, 64, 0
2, 66884, Note_on_c, 1, 75, 67
2, 66888, Note_on_c, 1, 81, 88
2, 66888, Note_on_c, 1, 69, 88
2, 66888, Note_on_c, 1, 54, 75
2, 66888, Note_on_c, 1, 60, 71
2, 66896, Note_on_c, 1, 63, 62
2, 66916, Control_c, 1, 64, 127
2, 66960, Note_off_c, 1, 54, 64
2, 66968, Note_off_c, 1, 81, 64
2, 66972, Note_off_c, 1, 69, 64
2, 66972, Note_off_c, 1, 63, 64
2, 66976, Note_off_c, 1, 75, 64
2, 66980, Note_off_c, 1, 60, 64
2, 67100, Note_on_c, 1, 64, 68
2, 67104, Note_on_c, 1, 55, 67
2, 67104, Note_on_c, 1, 60, 61
2, 67104, Note_on_c, 1, 79, 83
2, 67104, Control_c, 1, 64, 0
2, 67112, Note_on_c, 1, 76, 86
2, 67112, Note_on_c, 1, 67, 76
2, 67120, Note_off_c, 1, 55, 64
2, 67120, Note_off_c, 1, 60, 64
2, 67128, Control_c, 1, 64, 127
2, 67136, Note_off_c, 1, 64, 64
2, 67168, Note_off_c, 1, 76, 64
2, 67172, Note_off_c, 1, 79, 64
2, 67184, Note_off_c, 1, 67, 64
2, 67208, Note_on_c, 1, 66, 58
2, 67220, Control_c, 1, 64, 0
2, 67232, Note_off_c, 1, 66, 64
2, 67260, Note_on_c, 1, 67, 59
2, 67300, Note_off_c, 1, 67, 64
2, 67312, Note_on_c, 1, 69, 76
2, 67420, Note_off_c, 1, 69, 64
2, 67420, Note_on_c, 1, 71, 86
2, 67516, Note_off_c, 1, 71, 64
2, 67524, Note_on_c, 1, 72, 91
2, 67632, Note_off_c, 1, 72, 64
2, 67632, Note_on_c, 1, 74, 91
2, 67748, Note_off_c, 1, 74, 64
2, 67752, Note_on_c, 1, 76, 81
2, 67840, Note_off_c, 1, 76, 64
2, 67852, Note_on_c, 1, 77, 73
2, 67932, Note_on_c, 1, 48, 64
2, 67956, Note_off_c, 1, 48, 64
2, 67964, Note_off_c, 1, 77, 64
2, 67968, Note_on_c, 1, 79, 76
2, 68072, Note_on_c, 1, 81, 75
2, 68080, Note_off_c, 1, 79, 0
2, 68160, Note_off_c, 1, 81, 64
2, 68164, Note_on_c, 1, 55, 64
2, 68172, Note_on_c, 1, 60, 60
2, 68172, Note_on_c, 1, 64, 64
2, 68172, Note_on_c, 1, 79, 76
2, 68184, Note_off_c, 1, 55, 64
2, 68184, Note_off_c, 1, 60, 64
2, 68188, Note_off_c, 1, 64, 64
2, 68268, Note_off_c, 1, 79, 64
2, 68272, Note_on_c, 1, 76, 78
2, 68364, Note_on_c, 1, 50, 68
2, 68380, Note_off_c, 1, 76, 64
2, 68380, Note_on_c, 1, 77, 69
2, 68384, Note_off_c, 1, 50, 64
2, 68452, Note_off_c, 1, 77, 64
2, 68480, Note_on_c, 1, 74, 73
2, 68576, Note_on_c, 1, 65, 58
2, 68580, Note_on_c, 1, 55, 64
2, 68584, Note_on_c, 1, 59, 60
2, 68596, Note_off_c, 1, 65, 64
2, 68596, Note_off_c, 1, 55, 64
2, 68600, Note_off_c, 1, 59, 64
2, 68600, Control_c, 1, 64, 127
2, 68640, Control_c, 1, 64, 0
2, 68664, Control_c, 1, 64, 127
2, 68676, Note_off_c, 1, 74, 64
2, 68676, Note_on_c, 1, 76, 83
2, 68692, Control_c, 1, 64, 0
2, 68776, Note_on_c, 1, 43, 76
2, 68788, Note_off_c, 1, 76, 64
2, 68788, Note_off_c, 1, 43, 64
2, 68800, Note_on_c, 1, 77, 86
2, 68876, Note_off_c, 1, 77, 64
2, 68884, Note_on_c, 1, 79, 83
2, 68960, Control_c, 1, 64, 127
2, 68972, Note_off_c, 1, 79, 64
2, 68972, Note_on_c, 1, 81, 75
2, 68984, Note_on_c, 1, 55, 62
2, 68988, Note_on_c, 1, 59, 68
2, 68988, Note_on_c, 1, 65, 61
2, 68996, Note_off_c, 1, 65, 64
2, 69000, Note_off_c, 1, 55, 64
2, 69004, Note_off_c, 1, 59, 64
2, 69084, Note_off_c, 1, 81, 64
2, 69088, Note_on_c, 1, 76, 83
2, 69180, Note_on_c, 1, 50, 67
2, 69188, Control_c, 1, 64, 0
2, 69192, Note_off_c, 1, 76, 64
2, 69204, Note_off_c, 1, 50, 64
2, 69204, Note_on_c, 1, 77, 78
2, 69276, Note_off_c, 1, 77, 64
2, 69292, Note_on_c, 1, 74, 71
2, 69380, Control_c, 1, 64, 127
2, 69388, Control_c, 1, 64, 127
2, 69396, Note_on_c, 1, 55, 62
2, 69400, Note_on_c, 1, 59, 68
2, 69400, Note_on_c, 1, 65, 61
2, 69416, Note_off_c, 1, 55, 64
2, 69420, Note_off_c, 1, 59, 64
2, 69420, Note_off_c, 1, 65, 64
2, 69496, Note_off_c, 1, 74, 0
2, 69496, Note_on_c, 1, 76, 83
2, 69588, Note_off_c, 1, 76, 64
2, 69592, Note_on_c, 1, 48, 58
2, 69596, Note_on_c, 1, 72, 69
2, 69604, Control_c, 1, 64, 0
2, 69608, Note_off_c, 1, 48, 64
2, 69696, Note_on_c, 1, 76, 71
2, 69788, Note_off_c, 1, 76, 64
2, 69788, Note_on_c, 1, 55, 58
2, 69792, Note_on_c, 1, 79, 75
2, 69796, Note_on_c, 1, 64, 57
2, 69812, Note_off_c, 1, 55, 64
2, 69812, Note_off_c, 1, 64, 64
2, 69820, Note_off_c, 1, 72, 64
2, 69820, Note_off_c, 1, 79, 64
2, 69900, Note_on_c, 1, 81, 76
2, 69900, Note_on_c, 1, 72, 66
2, 69908, Note_on_c, 1, 76, 63
2, 69992, Note_on_c, 1, 43, 81
2, 70004, Note_off_c, 1, 43, 64
2, 70204, Control_c, 1, 64, 127
2, 70208, Note_on_c, 1, 55, 60
2, 70208, Note_on_c, 1, 60, 64
2, 70208, Note_on_c, 1, 64, 52
2, 70216, Note_off_c, 1, 60, 64
2, 70216, Note_off_c, 1, 64, 64
2, 70232, Note_off_c, 1, 55, 64
2, 70400, Control_c, 1, 64, 0
2, 70416, Note_on_c, 1, 48, 83
2, 70420, Control_c, 1, 64, 127
2, 70432, Note_off_c, 1, 48, 64
2, 70464, Note_off_c, 1, 76, 64
2, 70472, Note_off_c, 1, 81, 64
2, 70472, Note_off_c, 1, 72, 64
2, 70600, Control_c, 1, 64, 0
2, 70628, Note_on_c, 1, 55, 69
2, 70628, Note_on_c, 1, 84, 86
2, 70628, Note_on_c, 1, 72, 83
2, 70628, Note_on_c, 1, 64, 67
2, 70628, Note_on_c, 1, 60, 63
2, 70656, Control_c, 1, 64, 127
2, 70660, Note_off_c, 1, 60, 64
2, 70664, Note_off_c, 1, 55, 0
2, 70668, Note_off_c, 1, 64, 0
2, 70668, Note_off_c, 1, 72, 0
2, 70668, Note_off_c, 1, 84, 0
2, 70680, Control_c, 1, 64, 0
2, 70816, Note_on_c, 1, 83, 81
2, 70820, Note_on_c, 1, 71, 78
2, 70824, Note_on_c, 1, 55, 68
2, 70824, Note_on_c, 1, 60, 63
2, 70824, Note_on_c, 1, 64, 65
2, 70844, Note_off_c, 1, 83, 64
2, 70844, Note_off_c, 1, 71, 64
2, 70852, Note_off_c, 1, 55, 64
2, 70856, Note_off_c, 1, 60, 64
2, 70868, Note_off_c, 1, 64, 64
2, 71024, Note_on_c, 1, 55, 64
2, 71024, Note_on_c, 1, 64, 59
2, 71024, Note_on_c, 1, 60, 51
2, 71028, Control_c, 1, 64, 127
2, 71032, Note_on_c, 1, 82, 75
2, 71040, Note_on_c, 1, 70, 62
2, 71052, Note_off_c, 1, 55, 64
2, 71052, Note_off_c, 1, 64, 64
2, 71052, Note_off_c, 1, 60, 64
2, 71148, Note_off_c, 1, 70, 64
2, 71152, Note_off_c, 1, 82, 64
2, 71224, Note_on_c, 1, 45, 88
2, 71224, Control_c, 1, 64, 0
2, 71252, Note_on_c, 1, 69, 76
2, 71268, Control_c, 1, 64, 127
2, 71284, Note_off_c, 1, 45, 64
2, 71332, Note_on_c, 1, 73, 69
2, 71416, Note_off_c, 1, 73, 64
2, 71424, Note_on_c, 1, 76, 76
2, 71424, Note_on_c, 1, 57, 76
2, 71424, Note_on_c, 1, 61, 62
2, 71428, Note_on_c, 1, 67, 66
2, 71428, Control_c, 1, 64, 0
2, 71472, Note_off_c, 1, 69, 64
2, 71476, Note_off_c, 1, 76, 64
2, 71484, Control_c, 1, 64, 127
2, 71516, Note_on_c, 1, 69, 76
2, 71516, Note_on_c, 1, 81, 83
2, 71540, Note_off_c, 1, 57, 64
2, 71540, Note_off_c, 1, 61, 64
2, 71540, Note_off_c, 1, 69, 64
2, 71540, Note_off_c, 1, 81, 64
2, 71548, Note_off_c, 1, 67, 64
2, 71624, Note_on_c, 1, 82, 88
2, 71624, Note_on_c, 1, 70, 86
2, 71624, Note_on_c, 1, 73, 88
2, 71628, Note_on_c, 1, 57, 81
2, 71632, Control_c, 1, 64, 0
2, 71692, Control_c, 1, 64, 127
2, 71720, Note_off_c, 1, 70, 64
2, 71728, Note_off_c, 1, 82, 64
2, 71820, Note_on_c, 1, 69, 71
2, 71828, Note_on_c, 1, 81, 81
2, 71832, Note_off_c, 1, 73, 64
2, 71832, Note_on_c, 1, 67, 64
2, 71836, Note_on_c, 1, 61, 52
2, 71840, Note_off_c, 1, 69, 64
2, 71844, Note_off_c, 1, 67, 64
2, 71848, Note_off_c, 1, 81, 64
2, 71848, Note_off_c, 1, 61, 64
2, 71860, Note_off_c, 1, 57, 64
2, 71984, Control_c, 1, 64, 0
2, 72028, Note_on_c, 1, 50, 82
2, 72032, Note_on_c, 1, 74, 89
2, 72048, Note_off_c, 1, 50, 64
2, 72048, Control_c, 1, 64, 127
2, 72124, Note_on_c, 1, 77, 76
2, 72220, Note_off_c, 1, 77, 64
2, 72228, Note_on_c, 1, 81, 86
2, 72232, Note_on_c, 1, 57, 68
2, 72236, Note_on_c, 1, 62, 75
2, 72236, Note_on_c, 1, 65, 65
2, 72244, Note_off_c, 1, 57, 64
2, 72256, Note_off_c, 1, 65, 64
2, 72260, Note_off_c, 1, 62, 64
2, 72276, Note_off_c, 1, 81, 64
2, 72288, Note_off_c, 1, 74, 64
2, 72324, Note_on_c, 1, 86, 88
2, 72324, Note_on_c, 1, 74, 75
2, 72336, Note_off_c, 1, 74, 64
2, 72352, Note_off_c, 1, 86, 64
2, 72440, Note_on_c, 1, 53, 76
2, 72444, Note_on_c, 1, 77, 80
2, 72444, Note_on_c, 1, 76, 89
2, 72444, Note_on_c, 1, 88, 84
2, 72444, Control_c, 1, 64, 0
2, 72484, Control_c, 1, 64, 127
2, 72568, Note_off_c, 1, 88, 64
2, 72576, Note_off_c, 1, 77, 64
2, 72576, Note_off_c, 1, 76, 64
2, 72652, Note_on_c, 1, 74, 89
2, 72652, Note_on_c, 1, 62, 66
2, 72652, Note_on_c, 1, 86, 87
2, 72652, Note_on_c, 1, 65, 68
2, 72656, Note_on_c, 1, 57, 43
2, 72668, Note_off_c, 1, 74, 64
2, 72672, Note_off_c, 1, 53, 64
2, 72672, Note_off_c, 1, 62, 64
2, 72680, Note_off_c, 1, 86, 64
2, 72680, Note_off_c, 1, 65, 64
2, 72680, Note_off_c, 1, 57, 64
2, 72840, Note_on_c, 1, 55, 78
2, 72844, Control_c, 1, 64, 0
2, 72848, Note_on_c, 1, 84, 88
2, 72856, Note_on_c, 1, 72, 83
2, 72876, Control_c, 1, 64, 127
2, 72880, Note_off_c, 1, 84, 64
2, 72948, Note_on_c, 1, 76, 69
2, 72964, Control_c, 1, 64, 0
2, 73032, Note_off_c, 1, 76, 64
2, 73044, Note_on_c, 1, 75, 81
2, 73044, Note_on_c, 1, 64, 69
2, 73048, Note_on_c, 1, 60, 67
2, 73048, Control_c, 1, 64, 127
2, 73056, Control_c, 1, 64, 0
2, 73060, Note_off_c, 1, 64, 64
2, 73060, Note_off_c, 1, 60, 64
2, 73068, Note_off_c, 1, 55, 64
2, 73076, Control_c, 1, 64, 127
2, 73136, Note_off_c, 1, 75, 64
2, 73136, Note_on_c, 1, 76, 81
2, 73196, Note_off_c, 1, 76, 64
2, 73200, Note_off_c, 1, 72, 64
2, 73228, Note_on_c, 1, 43, 59
2, 73248, Control_c, 1, 64, 0
2, 73264, Note_on_c, 1, 77, 69
2, 73268, Note_on_c, 1, 81, 73
2, 73268, Note_on_c, 1, 71, 64
2, 73272, Note_off_c, 1, 43, 64
2, 73280, Control_c, 1, 64, 127
2, 73352, Note_off_c, 1, 81, 0
2, 73356, Note_off_c, 1, 77, 0
2, 73356, Note_off_c, 1, 71, 0
2, 73448, Control_c, 1, 64, 0
2, 73468, Note_on_c, 1, 77, 67
2, 73468, Note_on_c, 1, 79, 71
2, 73468, Note_on_c, 1, 71, 61
2, 73472, Note_on_c, 1, 55, 51
2, 73472, Note_on_c, 1, 65, 57
2, 73472, Note_on_c, 1, 59, 59
2, 73484, Control_c, 1, 64, 127
2, 73500, Note_off_c, 1, 65, 64
2, 73504, Note_off_c, 1, 77, 64
2, 73504, Note_off_c, 1, 79, 64
2, 73508, Note_off_c, 1, 71, 64
2, 73512, Note_off_c, 1, 55, 64
2, 73512, Note_off_c, 1, 59, 64
2, 73604, Control_c, 1, 64, 0
2, 73668, Control_c, 1, 64, 127
2, 73672, Note_on_c, 1, 67, 65
2, 73680, Note_on_c, 1, 72, 71
2, 73680, Note_on_c, 1, 60, 52
2, 73680, Note_on_c, 1, 64, 63
2, 73700, Note_off_c, 1, 60, 64
2, 73708, Note_off_c, 1, 67, 64
2, 73708, Note_off_c, 1, 72, 64
2, 73708, Note_off_c, 1, 64, 64
2, 73752, Control_c, 1, 64, 0
2, 73876, Note_on_c, 1, 71, 67
2, 73880, Note_on_c, 1, 79, 69
2, 73880, Note_on_c, 1, 74, 68
2, 73888, Note_on_c, 1, 67, 64
2, 73888, Note_on_c, 1, 55, 71
2, 73888, Control_c, 1, 64, 127
2, 73900, Note_off_c, 1, 67, 64
2, 73904, Note_off_c, 1, 71, 64
2, 73904, Note_off_c, 1, 79, 64
2, 73904, Note_off_c, 1, 74, 64
2, 73904, Control_c, 1, 64, 0
2, 73908, Note_off_c, 1, 55, 64
2, 74100, Control_c, 1, 64, 127
2, 74108, Note_on_c, 1, 48, 57
2, 74108, Note_on_c, 1, 76, 65
2, 74108, Note_on_c, 1, 84, 66
2, 74112, Note_on_c, 1, 72, 60
2, 74112, Note_on_c, 1, 79, 68
2, 74204, Note_off_c, 1, 72, 64
2, 74212, Note_off_c, 1, 76, 64
2, 74216, Note_off_c, 1, 79, 64
2, 74224, Note_off_c, 1, 84, 64
2, 74384, Note_off_c, 1, 48, 64
2, 74420, Control_c, 1, 64, 0
2, 74544, Control_c, 1, 64, 127
2, 74552, Note_on_c, 1, 48, 105
2, 74552, Note_on_c, 1, 36, 101
2, 74552, Note_on_c, 1, 79, 105
2, 74572, Note_off_c, 1, 48, 64
2, 74572, Note_off_c, 1, 36, 64
2, 74692, Note_off_c, 1, 79, 64
2, 74696, Note_on_c, 1, 81, 105
2, 74816, Note_off_c, 1, 81, 0
2, 74816, Note_on_c, 1, 55, 76
2, 74820, Note_on_c, 1, 60, 75
2, 74820, Note_on_c, 1, 64, 64
2, 74828, Note_off_c, 1, 64, 64
2, 74828, Note_on_c, 1, 79, 105
2, 74828, Control_c, 1, 64, 0
2, 74832, Note_off_c, 1, 60, 64
2, 74840, Note_off_c, 1, 55, 64
2, 74932, Note_off_c, 1, 79, 64
2, 74944, Note_on_c, 1, 76, 101
2, 75028, Note_off_c, 1, 76, 64
2, 75056, Note_on_c, 1, 38, 91
2, 75056, Note_on_c, 1, 77, 104
2, 75060, Note_on_c, 1, 50, 83
2, 75068, Control_c, 1, 64, 127
2, 75080, Note_off_c, 1, 38, 64
2, 75084, Note_off_c, 1, 50, 64
2, 75176, Note_off_c, 1, 77, 64
2, 75188, Note_on_c, 1, 74, 102
2, 75284, Note_on_c, 1, 65, 68
2, 75292, Note_on_c, 1, 55, 71
2, 75292, Note_on_c, 1, 59, 83
2, 75296, Note_off_c, 1, 65, 64
2, 75296, Control_c, 1, 64, 0
2, 75304, Note_off_c, 1, 55, 64
2, 75304, Note_off_c, 1, 59, 64
2, 75388, Note_off_c, 1, 74, 64
2, 75396, Note_on_c, 1, 76, 99
2, 75488, Note_off_c, 1, 76, 64
2, 75500, Note_on_c, 1, 31, 98
2, 75504, Note_on_c, 1, 43, 86
2, 75508, Note_on_c, 1, 77, 101
2, 75524, Note_off_c, 1, 31, 64
2, 75532, Note_off_c, 1, 43, 64
2, 75600, Note_off_c, 1, 77, 64
2, 75612, Note_on_c, 1, 79, 98
2, 75712, Note_off_c, 1, 79, 64
2, 75716, Note_on_c, 1, 55, 78
2, 75716, Note_on_c, 1, 81, 95
2, 75716, Note_on_c, 1, 65, 76
2, 75716, Note_on_c, 1, 59, 81
2, 75724, Note_off_c, 1, 65, 64
2, 75732, Note_off_c, 1, 55, 64
2, 75732, Note_off_c, 1, 59, 64
2, 75812, Note_off_c, 1, 81, 64
2, 75820, Note_on_c, 1, 76, 98
2, 75908, Note_off_c, 1, 76, 64
2, 75928, Note_on_c, 1, 38, 81
2, 75928, Control_c, 1, 64, 127
2, 75932, Note_on_c, 1, 50, 81
2, 75932, Note_on_c, 1, 77, 108
2, 75940, Note_off_c, 1, 38, 64
2, 75952, Note_off_c, 1, 50, 64
2, 76024, Note_off_c, 1, 77, 64
2, 76032, Note_on_c, 1, 74, 105
2, 76148, Note_on_c, 1, 55, 83
2, 76148, Note_on_c, 1, 65, 78
2, 76148, Note_on_c, 1, 59, 88
2, 76156, Note_off_c, 1, 65, 64
2, 76156, Control_c, 1, 64, 0
2, 76164, Note_off_c, 1, 55, 64
2, 76164, Note_off_c, 1, 59, 64
2, 76248, Note_off_c, 1, 74, 64
2, 76256, Note_on_c, 1, 76, 105
2, 76352, Note_off_c, 1, 76, 0
2, 76356, Note_on_c, 1, 36, 101
2, 76356, Note_on_c, 1, 48, 91
2, 76360, Note_on_c, 1, 72, 107
2, 76364, Control_c, 1, 64, 127
2, 76376, Note_off_c, 1, 36, 64
2, 76384, Note_off_c, 1, 48, 64
2, 76480, Note_on_c, 1, 76, 91
2, 76572, Note_off_c, 1, 76, 64
2, 76576, Note_on_c, 1, 55, 86
2, 76576, Note_on_c, 1, 79, 94
2, 76584, Note_on_c, 1, 64, 66
2, 76584, Note_on_c, 1, 60, 68
2, 76592, Note_off_c, 1, 64, 64
2, 76592, Note_off_c, 1, 60, 64
2, 76600, Note_off_c, 1, 72, 64
2, 76600, Note_off_c, 1, 55, 64
2, 76608, Note_off_c, 1, 79, 64
2, 76676, Control_c, 1, 64, 0
2, 76700, Note_on_c, 1, 81, 101
2, 76700, Note_on_c, 1, 72, 91
2, 76704, Note_on_c, 1, 76, 105
2, 76804, Note_on_c, 1, 43, 86
2, 76804, Control_c, 1, 64, 127
2, 76812, Note_off_c, 1, 43, 64
2, 77020, Note_on_c, 1, 64, 78
2, 77020, Note_on_c, 1, 55, 83
2, 77024, Note_on_c, 1, 60, 75
2, 77032, Note_off_c, 1, 64, 64
2, 77032, Note_off_c, 1, 55, 64
2, 77032, Note_off_c, 1, 60, 64
2, 77040, Control_c, 1, 64, 0
2, 77112, Note_off_c, 1, 72, 64
2, 77228, Note_on_c, 1, 48, 105
2, 77236, Control_c, 1, 64, 127
2, 77248, Note_off_c, 1, 48, 64
2, 77284, Control_c, 1, 64, 0
2, 77292, Note_off_c, 1, 76, 64
2, 77324, Note_off_c, 1, 81, 64
2, 77336, Note_on_c, 1, 72, 90
2, 77432, Note_on_c, 1, 55, 68
2, 77440, Note_off_c, 1, 55, 64
2, 77440, Note_on_c, 1, 76, 92
2, 77460, Note_off_c, 1, 76, 64
2, 77536, Note_on_c, 1, 79, 95
2, 77632, Note_on_c, 1, 52, 75
2, 77636, Note_off_c, 1, 79, 64
2, 77644, Note_on_c, 1, 81, 88
2, 77648, Note_off_c, 1, 52, 0
2, 77740, Note_off_c, 1, 81, 0
2, 77740, Note_on_c, 1, 79, 83
2, 77804, Note_off_c, 1, 72, 0
2, 77840, Note_on_c, 1, 55, 69
2, 77844, Note_on_c, 1, 64, 67
2, 77844, Note_on_c, 1, 60, 65
2, 77852, Note_on_c, 1, 76, 105
2, 77856, Note_off_c, 1, 64, 64
2, 77856, Note_off_c, 1, 60, 64
2, 77860, Note_off_c, 1, 55, 64
2, 77924, Note_off_c, 1, 76, 64
2, 77944, Note_on_c, 1, 72, 98
2, 77956, Control_c, 1, 64, 127
2, 78016, Note_off_c, 1, 72, 64
2, 78040, Note_on_c, 1, 50, 71
2, 78056, Note_off_c, 1, 79, 64
2, 78056, Control_c, 1, 64, 0
2, 78060, Note_on_c, 1, 71, 109
2, 78080, Note_off_c, 1, 50, 64
2, 78160, Note_on_c, 1, 74, 76
2, 78252, Note_off_c, 1, 74, 64
2, 78252, Note_on_c, 1, 59, 75
2, 78256, Note_on_c, 1, 55, 66
2, 78256, Note_on_c, 1, 65, 61
2, 78256, Note_on_c, 1, 77, 78
2, 78268, Note_off_c, 1, 65, 64
2, 78272, Note_off_c, 1, 59, 64
2, 78272, Note_off_c, 1, 55, 64
2, 78280, Note_off_c, 1, 71, 64
2, 78284, Note_off_c, 1, 77, 64
2, 78368, Note_on_c, 1, 81, 94
2, 78368, Note_on_c, 1, 74, 98
2, 78368, Note_on_c, 1, 71, 86
2, 78476, Note_on_c, 1, 43, 91
2, 78480, Control_c, 1, 64, 127
2, 78488, Note_off_c, 1, 43, 64
2, 78688, Note_on_c, 1, 55, 81
2, 78688, Note_on_c, 1, 65, 81
2, 78688, Note_on_c, 1, 59, 88
2, 78720, Note_off_c, 1, 65, 64
2, 78724, Note_off_c, 1, 59, 64
2, 78732, Note_off_c, 1, 55, 64
2, 78904, Note_on_c, 1, 50, 105
2, 78916, Control_c, 1, 64, 0
2, 78924, Note_off_c, 1, 50, 64
2, 78940, Note_off_c, 1, 71, 64
2, 78980, Note_off_c, 1, 74, 64
2, 79004, Note_off_c, 1, 81, 64
2, 79004, Note_on_c, 1, 71, 78
2, 79116, Note_on_c, 1, 55, 76
2, 79116, Note_on_c, 1, 74, 91
2, 79116, Note_on_c, 1, 65, 67
2, 79116, Note_on_c, 1, 59, 66
2, 79128, Note_off_c, 1, 55, 64
2, 79132, Note_off_c, 1, 74, 64
2, 79132, Note_off_c, 1, 65, 64
2, 79136, Note_off_c, 1, 59, 64
2, 79208, Note_on_c, 1, 77, 101
2, 79308, Note_on_c, 1, 43, 81
2, 79324, Note_off_c, 1, 77, 64
2, 79328, Note_off_c, 1, 43, 64
2, 79328, Note_on_c, 1, 81, 94
2, 79424, Note_off_c, 1, 81, 64
2, 79424, Note_on_c, 1, 77, 86
2, 79508, Note_off_c, 1, 71, 0
2, 79524, Note_on_c, 1, 55, 75
2, 79524, Note_on_c, 1, 65, 66
2, 79528, Note_on_c, 1, 74, 91
2, 79528, Note_on_c, 1, 59, 63
2, 79532, Control_c, 1, 64, 127
2, 79536, Note_off_c, 1, 55, 64
2, 79536, Note_off_c, 1, 65, 64
2, 79536, Note_off_c, 1, 59, 64
2, 79616, Note_off_c, 1, 74, 64
2, 79636, Note_on_c, 1, 71, 78
2, 79672, Note_off_c, 1, 71, 64
2, 79732, Note_off_c, 1, 77, 64
2, 79736, Note_on_c, 1, 48, 98
2, 79736, Control_c, 1, 64, 0
2, 79748, Note_on_c, 1, 48, 73
2, 79764, Note_off_c, 1, 48, 64
2, 79764, Note_off_c, 1, 48, 64
2, 79768, Note_on_c, 1, 72, 101
2, 79768, Control_c, 1, 64, 127
2, 79860, Note_on_c, 1, 76, 91
2, 79936, Note_off_c, 1, 76, 64
2, 79936, Control_c, 1, 64, 0
2, 79956, Note_on_c, 1, 79, 98
2, 79960, Note_on_c, 1, 55, 67
2, 79960, Note_on_c, 1, 64, 66
2, 79968, Note_on_c, 1, 60, 64
2, 80000, Note_off_c, 1, 79, 64
2, 80004, Note_off_c, 1, 72, 64
2, 80052, Note_off_c, 1, 55, 64
2, 80052, Note_on_c, 1, 72, 91
2, 80052, Note_on_c, 1, 76, 94
2, 80052, Note_on_c, 1, 84, 88
2, 80052, Control_c, 1, 64, 127
2, 80064, Note_off_c, 1, 64, 64
2, 80068, Note_off_c, 1, 60, 64
2, 80076, Note_off_c, 1, 72, 64
2, 80076, Note_off_c, 1, 76, 64
2, 80092, Note_off_c, 1, 84, 64
2, 80160, Note_on_c, 1, 71, 83
2, 80160, Control_c, 1, 64, 0
2, 80164, Note_on_c, 1, 75, 91
2, 80168, Note_on_c, 1, 83, 105
2, 80168, Note_on_c, 1, 60, 83
2, 80168, Note_on_c, 1, 54, 88
2, 80172, Note_on_c, 1, 63, 76
2, 80224, Control_c, 1, 64, 127
2, 80244, Note_off_c, 1, 83, 64
2, 80248, Note_off_c, 1, 71, 64
2, 80260, Note_off_c, 1, 75, 0
2, 80280, Note_off_c, 1, 54, 0
2, 80292, Note_off_c, 1, 60, 0
2, 80292, Note_off_c, 1, 63, 0
2, 80292, Control_c, 1, 64, 0
2, 80368, Note_on_c, 1, 75, 78
2, 80368, Note_on_c, 1, 81, 101
2, 80372, Note_on_c, 1, 69, 88
2, 80372, Note_on_c, 1, 60, 78
2, 80376, Note_on_c, 1, 54, 78
2, 80376, Note_on_c, 1, 63, 71
2, 80380, Control_c, 1, 64, 127
2, 80436, Note_off_c, 1, 54, 64
2, 80440, Note_off_c, 1, 81, 64
2, 80448, Note_off_c, 1, 63, 64
2, 80452, Note_off_c, 1, 75, 64
2, 80452, Note_off_c, 1, 60, 64
2, 80460, Note_off_c, 1, 69, 64
2, 80576, Control_c, 1, 64, 0
2, 80580, Note_on_c, 1, 55, 73
2, 80584, Note_on_c, 1, 64, 71
2, 80588, Note_on_c, 1, 79, 94
2, 80588, Note_on_c, 1, 76, 94
2, 80588, Note_on_c, 1, 67, 91
2, 80588, Note_on_c, 1, 60, 67
2, 80604, Note_off_c, 1, 55, 64
2, 80604, Note_off_c, 1, 60, 64
2, 80608, Note_off_c, 1, 64, 64
2, 80624, Control_c, 1, 64, 127
2, 80648, Note_off_c, 1, 76, 64
2, 80656, Control_c, 1, 64, 0
2, 80664, Note_off_c, 1, 79, 64
2, 80672, Note_off_c, 1, 67, 64
2, 80676, Note_on_c, 1, 66, 69
2, 80704, Note_off_c, 1, 66, 64
2, 80732, Note_on_c, 1, 67, 78
2, 80760, Note_off_c, 1, 67, 64
2, 80788, Note_on_c, 1, 69, 86
2, 80892, Note_off_c, 1, 69, 64
2, 80904, Note_on_c, 1, 71, 73
2, 80996, Note_off_c, 1, 71, 64
2, 81012, Note_on_c, 1, 72, 76
2, 81108, Note_off_c, 1, 72, 64
2, 81120, Note_on_c, 1, 74, 76
2, 81220, Note_off_c, 1, 74, 64
2, 81224, Note_on_c, 1, 76, 76
2, 81324, Note_off_c, 1, 76, 64
2, 81332, Note_on_c, 1, 77, 67
2, 81416, Note_on_c, 1, 48, 69
2, 81428, Note_off_c, 1, 77, 64
2, 81436, Note_off_c, 1, 48, 64
2, 81448, Note_on_c, 1, 79, 81
2, 81548, Note_on_c, 1, 81, 76
2, 81552, Note_off_c, 1, 79, 64
2, 81640, Note_off_c, 1, 81, 0
2, 81644, Note_on_c, 1, 64, 60
2, 81648, Note_on_c, 1, 55, 51
2, 81648, Note_on_c, 1, 79, 76
2, 81652, Note_on_c, 1, 60, 40
2, 81664, Note_off_c, 1, 60, 64
2, 81672, Note_off_c, 1, 64, 64
2, 81672, Note_off_c, 1, 55, 64
2, 81744, Note_off_c, 1, 79, 64
2, 81748, Note_on_c, 1, 76, 78
2, 81836, Note_on_c, 1, 50, 71
2, 81848, Note_off_c, 1, 76, 64
2, 81856, Note_off_c, 1, 50, 64
2, 81856, Note_on_c, 1, 77, 76
2, 81932, Note_off_c, 1, 77, 64
2, 81952, Note_on_c, 1, 74, 69
2, 82036, Control_c, 1, 64, 127
2, 82052, Note_on_c, 1, 65, 64
2, 82052, Note_on_c, 1, 55, 60
2, 82052, Note_on_c, 1, 59, 66
2, 82068, Note_off_c, 1, 65, 64
2, 82068, Note_off_c, 1, 55, 64
2, 82072, Note_off_c, 1, 59, 64
2, 82148, Note_off_c, 1, 74, 64
2, 82156, Note_on_c, 1, 76, 81
2, 82252, Note_on_c, 1, 43, 69
2, 82264, Control_c, 1, 64, 0
2, 82272, Note_off_c, 1, 76, 64
2, 82272, Note_off_c, 1, 43, 64
2, 82272, Note_on_c, 1, 77, 71
2, 82360, Note_off_c, 1, 77, 64
2, 82368, Note_on_c, 1, 79, 76
2, 82464, Note_off_c, 1, 79, 64
2, 82468, Note_on_c, 1, 81, 78
2, 82472, Note_on_c, 1, 59, 60
2, 82472, Note_on_c, 1, 55, 54
2, 82472, Note_on_c, 1, 65, 59
2, 82488, Note_off_c, 1, 59, 64
2, 82488, Note_off_c, 1, 55, 64
2, 82492, Note_off_c, 1, 65, 64
2, 82576, Note_off_c, 1, 81, 64
2, 82576, Note_on_c, 1, 76, 76
2, 82676, Note_on_c, 1, 50, 64
2, 82680, Note_off_c, 1, 76, 64
2, 82692, Note_on_c, 1, 77, 76
2, 82700, Note_off_c, 1, 50, 64
2, 82764, Note_off_c, 1, 77, 64
2, 82788, Note_on_c, 1, 74, 68
2, 82884, Control_c, 1, 64, 127
2, 82896, Note_on_c, 1, 55, 62
2, 82896, Note_on_c, 1, 65, 64
2, 82896, Note_on_c, 1, 59, 71
2, 82916, Note_off_c, 1, 55, 64
2, 82916, Note_off_c, 1, 65, 64
2, 82916, Note_off_c, 1, 59, 64
2, 82988, Note_off_c, 1, 74, 0
2, 83000, Note_on_c, 1, 76, 73
2, 83104, Note_off_c, 1, 76, 64
2, 83104, Note_on_c, 1, 48, 71
2, 83116, Note_off_c, 1, 48, 64
2, 83116, Note_on_c, 1, 72, 67
2, 83116, Control_c, 1, 64, 0
2, 83204, Note_on_c, 1, 76, 66
2, 83308, Note_off_c, 1, 76, 64
2, 83308, Note_on_c, 1, 55, 66
2, 83312, Note_on_c, 1, 64, 56
2, 83312, Note_on_c, 1, 60, 52
2, 83316, Note_on_c, 1, 79, 76
2, 83320, Note_off_c, 1, 64, 64
2, 83328, Note_off_c, 1, 55, 64
2, 83328, Note_off_c, 1, 60, 64
2, 83340, Note_off_c, 1, 79, 64
2, 83344, Note_off_c, 1, 72, 64
2, 83428, Note_on_c, 1, 81, 81
2, 83428, Note_on_c, 1, 72, 69
2, 83428, Note_on_c, 1, 76, 65
2, 83512, Note_on_c, 1, 43, 76
2, 83524, Note_off_c, 1, 43, 64
2, 83524, Control_c, 1, 64, 127
2, 83728, Note_on_c, 1, 64, 61
2, 83728, Note_on_c, 1, 60, 64
2, 83740, Note_off_c, 1, 64, 64
2, 83748, Note_off_c, 1, 60, 64
2, 83928, Control_c, 1, 64, 0
2, 83944, Note_on_c, 1, 48, 63
2, 83968, Note_off_c, 1, 48, 64
2, 83968, Control_c, 1, 64, 127
2, 84024, Note_off_c, 1, 81, 64
2, 84024, Note_off_c, 1, 72, 64
2, 84032, Note_off_c, 1, 76, 64
2, 84148, Note_on_c, 1, 84, 73
2, 84148, Note_on_c, 1, 72, 67
2, 84160, Note_on_c, 1, 64, 56
2, 84160, Note_on_c, 1, 60, 45
2, 84160, Note_on_c, 1, 55, 59
2, 84292, Note_off_c, 1, 64, 64
2, 84292, Note_off_c, 1, 55, 64
2, 84296, Note_off_c, 1, 60, 64
2, 84304, Note_off_c, 1, 84, 64
2, 84324, Note_off_c, 1, 72, 64
2, 84364, Note_on_c, 1, 83, 79
2, 84364, Note_on_c, 1, 71, 71
2, 84364, Note_on_c, 1, 60, 38
2, 84368, Note_on_c, 1, 64, 48
2, 84368, Note_on_c, 1, 55, 52
2, 84456, Note_off_c, 1, 71, 64
2, 84480, Note_off_c, 1, 55, 64
2, 84484, Note_off_c, 1, 60, 64
2, 84488, Note_off_c, 1, 64, 64
2, 84560, Note_on_c, 1, 82, 83
2, 84564, Note_on_c, 1, 55, 58
2, 84572, Note_on_c, 1, 60, 52
2, 84572, Note_on_c, 1, 64, 54
2, 84572, Note_on_c, 1, 70, 65
2, 84576, Note_off_c, 1, 83, 64
2, 84588, Note_off_c, 1, 60, 64
2, 84588, Note_off_c, 1, 64, 64
2, 84592, Note_off_c, 1, 55, 64
2, 84616, Note_off_c, 1, 82, 64
2, 84624, Note_off_c, 1, 70, 64
2, 84676, Control_c, 1, 64, 0
2, 84768, Note_on_c, 1, 45, 63
2, 84776, Control_c, 1, 64, 127
2, 84780, Note_on_c, 1, 69, 65
2, 84788, Note_off_c, 1, 45, 64
2, 84864, Note_on_c, 1, 73, 59
2, 84880, Control_c, 1, 64, 0
2, 84972, Note_off_c, 1, 73, 64
2, 84976, Note_on_c, 1, 57, 58
2, 84976, Note_on_c, 1, 67, 60
2, 84976, Note_on_c, 1, 76, 75
2, 84976, Control_c, 1, 64, 127
2, 84984, Note_on_c, 1, 61, 43
2, 85000, Note_off_c, 1, 67, 64
2, 85000, Note_off_c, 1, 61, 64
2, 85004, Note_off_c, 1, 57, 64
2, 85012, Note_off_c, 1, 76, 64
2, 85016, Note_off_c, 1, 69, 64
2, 85072, Note_on_c, 1, 69, 76
2, 85076, Note_on_c, 1, 81, 79
2, 85096, Note_off_c, 1, 69, 64
2, 85096, Note_off_c, 1, 81, 64
2, 85164, Control_c, 1, 64, 0
2, 85188, Note_on_c, 1, 45, 76
2, 85188, Note_on_c, 1, 82, 85
2, 85188, Note_on_c, 1, 73, 82
2, 85188, Note_on_c, 1, 70, 76
2, 85196, Control_c, 1, 64, 127
2, 85200, Note_off_c, 1, 45, 64
2, 85312, Note_off_c, 1, 70, 64
2, 85316, Note_off_c, 1, 82, 64
2, 85392, Note_on_c, 1, 57, 66
2, 85392, Note_on_c, 1, 67, 60
2, 85396, Note_on_c, 1, 81, 83
2, 85396, Note_on_c, 1, 69, 75
2, 85396, Note_on_c, 1, 61, 58
2, 85408, Note_off_c, 1, 73, 64
2, 85408, Note_off_c, 1, 57, 64
2, 85412, Note_off_c, 1, 67, 64
2, 85412, Note_off_c, 1, 61, 64
2, 85416, Note_off_c, 1, 81, 64
2, 85416, Note_off_c, 1, 69, 64
2, 85428, Control_c, 1, 64, 0
2, 85600, Note_on_c, 1, 50, 85
2, 85604, Control_c, 1, 64, 127
2, 85612, Note_off_c, 1, 50, 64
2, 85612, Note_on_c, 1, 74, 88
2, 85696, Note_on_c, 1, 77, 67
2, 85800, Note_on_c, 1, 57, 60
2, 85804, Note_on_c, 1, 81, 73
2, 85804, Note_on_c, 1, 65, 63
2, 85804, Note_on_c, 1, 62, 67
2, 85816, Note_off_c, 1, 77, 0
2, 85816, Note_off_c, 1, 57, 64
2, 85820, Note_off_c, 1, 62, 64
2, 85824, Note_off_c, 1, 65, 64
2, 85880, Note_off_c, 1, 74, 0
2, 85880, Note_off_c, 1, 81, 64
2, 85908, Note_on_c, 1, 74, 68
2, 85912, Note_on_c, 1, 86, 76
2, 85928, Note_off_c, 1, 74, 64
2, 85928, Note_off_c, 1, 86, 64
2, 86028, Note_on_c, 1, 53, 63
2, 86032, Control_c, 1, 64, 0
2, 86040, Note_on_c, 1, 77, 82
2, 86040, Note_on_c, 1, 88, 87
2, 86044, Note_on_c, 1, 76, 85
2, 86068, Control_c, 1, 64, 127
2, 86124, Note_off_c, 1, 88, 64
2, 86136, Note_off_c, 1, 77, 64
2, 86148, Note_off_c, 1, 76, 64
2, 86244, Note_on_c, 1, 56, 51
2, 86244, Note_on_c, 1, 65, 59
2, 86248, Note_on_c, 1, 86, 78
2, 86252, Note_on_c, 1, 74, 73
2, 86264, Note_off_c, 1, 53, 64
2, 86268, Note_off_c, 1, 56, 64
2, 86268, Note_off_c, 1, 86, 64
2, 86268, Note_off_c, 1, 74, 64
2, 86276, Note_off_c, 1, 65, 64
2, 86428, Note_on_c, 1, 55, 69
2, 86428, Control_c, 1, 64, 0
2, 86456, Note_on_c, 1, 84, 71
2, 86456, Note_on_c, 1, 72, 75
2, 86464, Control_c, 1, 64, 127
2, 86476, Note_off_c, 1, 84, 64
2, 86572, Note_on_c, 1, 76, 76
2, 86644, Note_off_c, 1, 76, 64
2, 86660, Note_on_c, 1, 64, 51
2, 86660, Note_on_c, 1, 60, 48
2, 86660, Note_on_c, 1, 75, 76
2, 86676, Note_off_c, 1, 64, 64
2, 86676, Note_off_c, 1, 60, 64
2, 86700, Note_off_c, 1, 55, 64
2, 86756, Note_off_c, 1, 75, 64
2, 86764, Note_on_c, 1, 76, 78
2, 86772, Note_off_c, 1, 72, 64
2, 86788, Note_off_c, 1, 76, 64
2, 86852, Note_on_c, 1, 43, 64
2, 86860, Control_c, 1, 64, 0
2, 86872, Note_on_c, 1, 77, 69
2, 86872, Note_on_c, 1, 81, 78
2, 86876, Note_on_c, 1, 71, 66
2, 86884, Note_off_c, 1, 43, 64
2, 86888, Control_c, 1, 64, 127
2, 86968, Note_off_c, 1, 81, 64
2, 86976, Note_off_c, 1, 77, 64
2, 86976, Note_off_c, 1, 71, 64
2, 87076, Note_on_c, 1, 59, 64
2, 87080, Note_on_c, 1, 55, 61
2, 87080, Note_on_c, 1, 71, 66
2, 87080, Note_on_c, 1, 79, 78
2, 87088, Note_on_c, 1, 77, 76
2, 87088, Note_on_c, 1, 65, 61
2, 87088, Control_c, 1, 64, 0
2, 87088, Control_c, 1, 64, 127
2, 87096, Note_off_c, 1, 59, 0
2, 87100, Note_off_c, 1, 55, 0
2, 87100, Note_off_c, 1, 79, 0
2, 87104, Note_off_c, 1, 71, 0
2, 87104, Note_off_c, 1, 77, 0
2, 87104, Note_off_c, 1, 65, 0
2, 87308, Note_on_c, 1, 67, 64
2, 87308, Note_on_c, 1, 72, 73
2, 87312, Note_on_c, 1, 64, 65
2, 87312, Note_on_c, 1, 60, 61
2, 87316, Control_c, 1, 64, 0
2, 87336, Note_off_c, 1, 67, 64
2, 87340, Note_off_c, 1, 72, 64
2, 87340, Note_off_c, 1, 64, 64
2, 87340, Note_off_c, 1, 60, 64
2, 87340, Control_c, 1, 64, 127
2, 87384, Control_c, 1, 64, 0
2, 87516, Note_on_c, 1, 55, 71
2, 87520, Note_on_c, 1, 79, 86
2, 87520, Note_on_c, 1, 74, 75
2, 87524, Note_on_c, 1, 71, 71
2, 87524, Note_on_c, 1, 67, 63
2, 87528, Note_off_c, 1, 55, 64
2, 87532, Note_off_c, 1, 74, 64
2, 87532, Note_off_c, 1, 71, 64
2, 87532, Note_off_c, 1, 67, 64
2, 87544, Note_off_c, 1, 79, 64
2, 87752, Note_on_c, 1, 72, 85
2, 87752, Note_on_c, 1, 79, 90
2, 87752, Note_on_c, 1, 48, 66
2, 87756, Note_on_c, 1, 76, 96
2, 87756, Note_on_c, 1, 36, 83
2, 87756, Note_on_c, 1, 84, 83
2, 87760, Control_c, 1, 64, 127
2, 87764, Note_off_c, 1, 48, 64
2, 87772, Note_off_c, 1, 36, 64
2, 87796, Note_off_c, 1, 79, 64
2, 87796, Note_off_c, 1, 76, 64
2, 87808, Note_off_c, 1, 72, 64
2, 87816, Note_off_c, 1, 84, 64
2, 87936, Control_c, 1, 64, 0
2, 88152, Note_on_c, 1, 69, 81
2, 88156, Note_on_c, 1, 76, 88
2, 88156, Note_on_c, 1, 84, 83
2, 88160, Note_on_c, 1, 72, 71
2, 88164, Note_off_c, 1, 69, 64
2, 88176, Control_c, 1, 64, 127
2, 88184, Control_c, 1, 64, 0
2, 88216, Note_off_c, 1, 72, 64
2, 88224, Note_off_c, 1, 76, 64
2, 88224, Note_off_c, 1, 84, 64
2, 88260, Note_on_c, 1, 84, 78
2, 88260, Note_on_c, 1, 69, 91
2, 88268, Note_on_c, 1, 76, 81
2, 88268, Note_on_c, 1, 72, 71
2, 88268, Control_c, 1, 64, 127
2, 88284, Note_off_c, 1, 69, 64
2, 88368, Control_c, 1, 64, 0
2, 88376, Note_off_c, 1, 76, 64
2, 88376, Note_off_c, 1, 72, 64
2, 88384, Note_off_c, 1, 84, 64
2, 88464, Note_on_c, 1, 69, 88
2, 88464, Note_on_c, 1, 84, 83
2, 88468, Note_on_c, 1, 76, 83
2, 88468, Note_on_c, 1, 72, 65
2, 88480, Note_off_c, 1, 69, 0
2, 88488, Note_off_c, 1, 76, 0
2, 88488, Note_off_c, 1, 72, 0
2, 88492, Note_off_c, 1, 84, 0
2, 88572, Note_on_c, 1, 75, 88
2, 88572, Note_on_c, 1, 67, 83
2, 88576, Note_on_c, 1, 84, 86
2, 88576, Note_on_c, 1, 72, 73
2, 88676, Note_off_c, 1, 75, 64
2, 88676, Note_off_c, 1, 67, 64
2, 88676, Note_off_c, 1, 84, 64
2, 88684, Note_off_c, 1, 72, 64
2, 88784, Note_on_c, 1, 67, 88
2, 88784, Note_on_c, 1, 75, 75
2, 88784, Note_on_c, 1, 84, 83
2, 88784, Note_on_c, 1, 72, 69
2, 88800, Control_c, 1, 64, 127
2, 88868, Note_off_c, 1, 84, 64
2, 88872, Note_off_c, 1, 75, 64
2, 88872, Note_off_c, 1, 72, 64
2, 88888, Control_c, 1, 64, 0
2, 88904, Note_off_c, 1, 67, 64
2, 88988, Note_on_c, 1, 66, 80
2, 88992, Note_on_c, 1, 84, 77
2, 88996, Note_on_c, 1, 74, 79
2, 88996, Note_on_c, 1, 72, 77
2, 88996, Control_c, 1, 64, 127
2, 89004, Note_off_c, 1, 66, 64
2, 89008, Note_off_c, 1, 84, 64
2, 89008, Note_off_c, 1, 74, 64
2, 89012, Note_off_c, 1, 72, 64
2, 89100, Control_c, 1, 64, 0
2, 89184, Note_on_c, 1, 68, 76
2, 89192, Note_on_c, 1, 56, 76
2, 89192, Note_on_c, 1, 69, 64
2, 89196, Note_on_c, 1, 57, 56
2, 89200, Note_off_c, 1, 68, 64
2, 89216, Note_off_c, 1, 56, 64
2, 89236, Note_off_c, 1, 57, 64
2, 89276, Note_off_c, 1, 69, 64
2, 89416, Note_on_c, 1, 50, 69
2, 89420, Control_c, 1, 64, 127
2, 89424, Note_on_c, 1, 62, 88
2, 89432, Note_off_c, 1, 50, 64
2, 89444, Note_off_c, 1, 62, 64
2, 89728, Control_c, 1, 64, 0
2, 89880, Note_on_c, 1, 64, 58
2, 89880, Note_on_c, 1, 60, 53
2, 89880, Note_on_c, 1, 57, 49
2, 89884, Control_c, 1, 64, 127
2, 89888, Note_on_c, 1, 72, 38
2, 89896, Note_off_c, 1, 60, 0
2, 89904, Note_off_c, 1, 64, 0
2, 89904, Note_off_c, 1, 72, 0
2, 89916, Note_off_c, 1, 57, 0
2, 89956, Control_c, 1, 64, 0
2, 89988, Note_on_c, 1, 72, 59
2, 89988, Note_on_c, 1, 64, 59
2, 89992, Note_on_c, 1, 57, 56
2, 89992, Note_on_c, 1, 60, 42
2, 90112, Note_off_c, 1, 64, 64
2, 90116, Note_off_c, 1, 72, 64
2, 90116, Note_off_c, 1, 57, 64
2, 90120, Note_off_c, 1, 60, 64
2, 90204, Note_on_c, 1, 57, 64
2, 90204, Note_on_c, 1, 72, 71
2, 90208, Control_c, 1, 64, 127
2, 90212, Note_on_c, 1, 64, 68
2, 90212, Note_on_c, 1, 60, 62
2, 90224, Note_off_c, 1, 64, 64
2, 90224, Note_off_c, 1, 60, 64
2, 90236, Note_off_c, 1, 57, 64
2, 90240, Note_off_c, 1, 72, 64
2, 90328, Control_c, 1, 64, 0
2, 90332, Note_on_c, 1, 63, 65
2, 90332, Note_on_c, 1, 72, 66
2, 90332, Note_on_c, 1, 60, 63
2, 90336, Note_on_c, 1, 55, 66
2, 90392, Note_off_c, 1, 63, 64
2, 90392, Note_off_c, 1, 72, 64
2, 90396, Note_off_c, 1, 60, 64
2, 90400, Note_off_c, 1, 55, 64
2, 90552, Note_on_c, 1, 72, 78
2, 90552, Note_on_c, 1, 55, 68
2, 90552, Note_on_c, 1, 63, 67
2, 90552, Note_on_c, 1, 60, 64
2, 90580, Note_off_c, 1, 63, 64
2, 90584, Note_off_c, 1, 72, 64
2, 90584, Note_off_c, 1, 55, 64
2, 90592, Note_off_c, 1, 60, 64
2, 90796, Note_on_c, 1, 54, 67
2, 90796, Note_on_c, 1, 62, 68
2, 90796, Note_on_c, 1, 60, 64
2, 90796, Note_on_c, 1, 72, 76
2, 90808, Note_off_c, 1, 60, 64
2, 90816, Note_off_c, 1, 62, 64
2, 90820, Note_off_c, 1, 54, 64
2, 90820, Note_off_c, 1, 72, 64
2, 91024, Note_on_c, 1, 45, 76
2, 91028, Note_on_c, 1, 57, 68
2, 91044, Note_off_c, 1, 45, 64
2, 91044, Note_off_c, 1, 57, 64
2, 91296, Note_on_c, 1, 38, 81
2, 91300, Note_on_c, 1, 50, 83
2, 91424, Note_off_c, 1, 38, 0
2, 91432, Note_on_c, 1, 74, 90
2, 91436, Note_off_c, 1, 50, 0
2, 91552, Note_on_c, 1, 79, 93
2, 91644, Note_off_c, 1, 79, 64
2, 91652, Note_on_c, 1, 83, 94
2, 91684, Control_c, 1, 64, 127
2, 91724, Note_off_c, 1, 74, 64
2, 91752, Note_on_c, 1, 55, 75
2, 91760, Control_c, 1, 64, 0
2, 91764, Note_off_c, 1, 83, 64
2, 91764, Note_off_c, 1, 55, 64
2, 91772, Note_on_c, 1, 86, 75
2, 91780, Note_on_c, 1, 74, 75
2, 91868, Note_off_c, 1, 86, 64
2, 91872, Note_on_c, 1, 79, 73
2, 91952, Note_off_c, 1, 79, 64
2, 91964, Note_on_c, 1, 62, 59
2, 91964, Note_on_c, 1, 59, 63
2, 91968, Note_on_c, 1, 83, 73
2, 91980, Note_off_c, 1, 59, 64
2, 91984, Note_off_c, 1, 62, 64
2, 91996, Note_off_c, 1, 74, 64
2, 92004, Note_off_c, 1, 83, 64
2, 92084, Note_on_c, 1, 86, 76
2, 92084, Note_on_c, 1, 74, 76
2, 92180, Note_on_c, 1, 50, 75
2, 92280, Note_off_c, 1, 86, 64
2, 92292, Note_on_c, 1, 83, 77
2, 92336, Note_off_c, 1, 74, 64
2, 92352, Note_off_c, 1, 83, 64
2, 92372, Note_off_c, 1, 50, 64
2, 92384, Note_on_c, 1, 62, 52
2, 92388, Note_on_c, 1, 59, 59
2, 92400, Note_on_c, 1, 86, 79
2, 92400, Note_on_c, 1, 74, 86
2, 92492, Note_off_c, 1, 86, 64
2, 92492, Note_on_c, 1, 83, 83
2, 92548, Note_off_c, 1, 74, 64
2, 92548, Note_off_c, 1, 83, 64
2, 92568, Note_off_c, 1, 59, 64
2, 92576, Note_off_c, 1, 62, 64
2, 92588, Note_on_c, 1, 55, 65
2, 92588, Note_on_c, 1, 86, 82
2, 92596, Note_on_c, 1, 74, 91
2, 92672, Note_off_c, 1, 55, 64
2, 92680, Note_off_c, 1, 86, 64
2, 92688, Note_on_c, 1, 79, 83
2, 92776, Note_off_c, 1, 79, 0
2, 92788, Note_on_c, 1, 59, 64
2, 92788, Note_on_c, 1, 83, 83
2, 92792, Note_on_c, 1, 62, 48
2, 92832, Note_off_c, 1, 74, 0
2, 92836, Note_off_c, 1, 83, 64
2, 92896, Note_off_c, 1, 59, 64
2, 92896, Note_on_c, 1, 86, 87
2, 92900, Note_on_c, 1, 74, 88
2, 92904, Note_off_c, 1, 62, 64
2, 92996, Note_on_c, 1, 50, 83
2, 93080, Note_off_c, 1, 86, 64
2, 93092, Note_on_c, 1, 83, 86
2, 93112, Note_off_c, 1, 74, 64
2, 93120, Note_off_c, 1, 83, 64
2, 93124, Note_off_c, 1, 50, 64
2, 93200, Note_on_c, 1, 62, 71
2, 93200, Note_on_c, 1, 59, 71
2, 93200, Note_on_c, 1, 86, 92
2, 93204, Note_on_c, 1, 74, 88
2, 93204, Control_c, 1, 64, 127
2, 93208, Note_off_c, 1, 62, 64
2, 93208, Note_off_c, 1, 59, 64
2, 93292, Control_c, 1, 64, 0
2, 93300, Note_off_c, 1, 86, 64
2, 93300, Note_on_c, 1, 83, 83
2, 93328, Note_off_c, 1, 74, 64
2, 93384, Note_off_c, 1, 83, 64
2, 93400, Note_on_c, 1, 76, 86
2, 93400, Note_on_c, 1, 48, 95
2, 93400, Note_on_c, 1, 88, 96
2, 93400, Note_on_c, 1, 60, 76
2, 93416, Note_off_c, 1, 48, 64
2, 93416, Note_off_c, 1, 60, 64
2, 93420, Note_off_c, 1, 76, 64
2, 93420, Note_off_c, 1, 88, 64
2, 93504, Note_on_c, 1, 88, 76
2, 93508, Note_on_c, 1, 76, 73
2, 93560, Note_off_c, 1, 88, 64
2, 93600, Note_on_c, 1, 64, 71
2, 93608, Note_on_c, 1, 60, 73
2, 93608, Note_on_c, 1, 55, 71
2, 93612, Note_off_c, 1, 64, 64
2, 93612, Note_off_c, 1, 60, 64
2, 93616, Note_off_c, 1, 55, 64
2, 93644, Note_off_c, 1, 76, 64
2, 93704, Note_on_c, 1, 76, 71
2, 93704, Note_on_c, 1, 79, 75
2, 93720, Note_off_c, 1, 79, 64
2, 93724, Note_off_c, 1, 76, 64
2, 93800, Note_on_c, 1, 48, 76
2, 93808, Note_on_c, 1, 81, 91
2, 93808, Note_on_c, 1, 76, 73
2, 93808, Control_c, 1, 64, 127
2, 93812, Note_off_c, 1, 48, 64
2, 93848, Note_off_c, 1, 76, 64
2, 93876, Note_off_c, 1, 81, 64
2, 93908, Note_on_c, 1, 79, 89
2, 93908, Note_on_c, 1, 76, 76
2, 93916, Control_c, 1, 64, 0
2, 93928, Note_off_c, 1, 76, 64
2, 93932, Note_off_c, 1, 79, 64
2, 94012, Note_on_c, 1, 55, 78
2, 94012, Note_on_c, 1, 81, 94
2, 94012, Note_on_c, 1, 75, 83
2, 94016, Note_on_c, 1, 63, 74
2, 94016, Note_on_c, 1, 60, 71
2, 94024, Note_off_c, 1, 55, 64
2, 94024, Note_off_c, 1, 63, 64
2, 94028, Note_off_c, 1, 60, 64
2, 94136, Note_off_c, 1, 75, 0
2, 94156, Note_off_c, 1, 81, 0
2, 94208, Note_on_c, 1, 43, 91
2, 94208, Note_on_c, 1, 83, 76
2, 94212, Note_on_c, 1, 74, 94
2, 94216, Note_on_c, 1, 55, 73
2, 94224, Note_off_c, 1, 43, 64
2, 94224, Note_off_c, 1, 55, 64
2, 94420, Note_on_c, 1, 59, 86
2, 94420, Note_on_c, 1, 62, 76
2, 94428, Note_on_c, 1, 55, 78
2, 94436, Note_off_c, 1, 59, 64
2, 94436, Note_off_c, 1, 62, 64
2, 94436, Note_off_c, 1, 55, 64
2, 94532, Note_off_c, 1, 83, 64
2, 94532, Note_off_c, 1, 74, 64
2, 94632, Note_on_c, 1, 50, 89
2, 94724, Note_on_c, 1, 74, 85
2, 94736, Note_off_c, 1, 50, 64
2, 94828, Note_on_c, 1, 79, 90
2, 94904, Note_off_c, 1, 79, 64
2, 94920, Note_on_c, 1, 83, 86
2, 94956, Note_off_c, 1, 74, 64
2, 94988, Note_on_c, 1, 55, 61
2, 95012, Note_off_c, 1, 83, 64
2, 95024, Note_on_c, 1, 86, 76
2, 95028, Note_on_c, 1, 74, 91
2, 95032, Note_off_c, 1, 55, 64
2, 95116, Note_off_c, 1, 86, 64
2, 95120, Note_on_c, 1, 79, 73
2, 95208, Note_off_c, 1, 79, 64
2, 95224, Note_on_c, 1, 59, 62
2, 95224, Note_on_c, 1, 62, 60
2, 95228, Note_on_c, 1, 83, 71
2, 95248, Note_off_c, 1, 83, 64
2, 95256, Note_off_c, 1, 74, 64
2, 95328, Note_off_c, 1, 59, 64
2, 95332, Note_off_c, 1, 62, 64
2, 95332, Note_on_c, 1, 86, 81
2, 95332, Note_on_c, 1, 74, 88
2, 95440, Note_on_c, 1, 50, 68
2, 95532, Note_off_c, 1, 86, 0
2, 95536, Note_on_c, 1, 83, 75
2, 95568, Note_off_c, 1, 74, 0
2, 95568, Note_off_c, 1, 50, 64
2, 95568, Note_off_c, 1, 83, 64
2, 95648, Note_on_c, 1, 86, 88
2, 95652, Note_on_c, 1, 62, 65
2, 95652, Note_on_c, 1, 74, 88
2, 95652, Note_on_c, 1, 59, 66
2, 95664, Note_off_c, 1, 62, 64
2, 95664, Note_off_c, 1, 59, 64
2, 95748, Note_on_c, 1, 83, 73
2, 95756, Note_off_c, 1, 86, 64
2, 95772, Note_off_c, 1, 74, 64
2, 95772, Note_off_c, 1, 83, 64
2, 95844, Note_on_c, 1, 55, 69
2, 95848, Note_on_c, 1, 86, 83
2, 95848, Note_on_c, 1, 74, 98
2, 95864, Note_off_c, 1, 55, 64
2, 95948, Note_off_c, 1, 86, 64
2, 95956, Note_on_c, 1, 79, 83
2, 96032, Note_off_c, 1, 79, 64
2, 96048, Note_on_c, 1, 83, 78
2, 96052, Note_on_c, 1, 59, 65
2, 96056, Note_on_c, 1, 62, 64
2, 96080, Note_off_c, 1, 74, 64
2, 96080, Note_off_c, 1, 83, 64
2, 96156, Note_off_c, 1, 59, 64
2, 96164, Note_off_c, 1, 62, 64
2, 96168, Note_on_c, 1, 86, 88
2, 96168, Note_on_c, 1, 74, 91
2, 96268, Note_on_c, 1, 50, 76
2, 96288, Note_off_c, 1, 74, 64
2, 96292, Note_off_c, 1, 86, 64
2, 96360, Note_on_c, 1, 83, 101
2, 96376, Note_off_c, 1, 83, 64
2, 96460, Note_off_c, 1, 50, 64
2, 96468, Note_on_c, 1, 59, 73
2, 96468, Note_on_c, 1, 62, 69
2, 96472, Note_on_c, 1, 86, 94
2, 96484, Note_off_c, 1, 59, 64
2, 96484, Note_off_c, 1, 62, 64
2, 96568, Note_on_c, 1, 83, 75
2, 96592, Note_off_c, 1, 83, 64
2, 96600, Note_off_c, 1, 86, 64
2, 96668, Note_on_c, 1, 52, 83
2, 96668, Note_on_c, 1, 83, 94
2, 96668, Note_on_c, 1, 73, 91
2, 96716, Note_off_c, 1, 52, 64
2, 96736, Note_off_c, 1, 73, 0
2, 96740, Note_off_c, 1, 83, 0
2, 96876, Note_on_c, 1, 73, 71
2, 96876, Note_on_c, 1, 81, 81
2, 96876, Note_on_c, 1, 55, 81
2, 96880, Note_on_c, 1, 61, 59
2, 96880, Note_on_c, 1, 57, 68
2, 96888, Note_off_c, 1, 57, 64
2, 96892, Note_off_c, 1, 55, 64
2, 96892, Note_off_c, 1, 61, 64
2, 97092, Note_on_c, 1, 45, 91
2, 97108, Note_off_c, 1, 45, 64
2, 97112, Note_off_c, 1, 73, 64
2, 97112, Note_off_c, 1, 81, 64
2, 97300, Note_on_c, 1, 55, 73
2, 97304, Note_on_c, 1, 61, 62
2, 97304, Note_on_c, 1, 80, 73
2, 97304, Note_on_c, 1, 57, 83
2, 97304, Note_on_c, 1, 73, 88
2, 97352, Note_off_c, 1, 73, 64
2, 97376, Note_off_c, 1, 80, 64
2, 97396, Note_off_c, 1, 55, 64
2, 97396, Note_on_c, 1, 73, 73
2, 97396, Note_on_c, 1, 81, 88
2, 97408, Note_off_c, 1, 61, 64
2, 97416, Note_off_c, 1, 57, 64
2, 97476, Note_off_c, 1, 73, 64
2, 97500, Note_off_c, 1, 81, 64
2, 97500, Note_on_c, 1, 83, 81
2, 97500, Note_on_c, 1, 50, 91
2, 97504, Note_on_c, 1, 72, 81
2, 97552, Note_off_c, 1, 72, 64
2, 97560, Note_off_c, 1, 83, 64
2, 97580, Note_off_c, 1, 50, 64
2, 97592, Note_on_c, 1, 81, 81
2, 97592, Note_on_c, 1, 72, 83
2, 97596, Note_on_c, 1, 54, 76
2, 97668, Note_off_c, 1, 81, 64
2, 97680, Note_off_c, 1, 72, 64
2, 97704, Note_off_c, 1, 54, 64
2, 97800, Note_on_c, 1, 57, 78
2, 97800, Note_on_c, 1, 78, 83
2, 97804, Note_on_c, 1, 72, 78
2, 97820, Note_off_c, 1, 78, 64
2, 97828, Note_off_c, 1, 57, 64
2, 97832, Note_off_c, 1, 72, 64
2, 97904, Note_on_c, 1, 55, 88
2, 97908, Note_on_c, 1, 76, 88
2, 97916, Note_on_c, 1, 72, 66
2, 97932, Note_off_c, 1, 76, 64
2, 97936, Note_off_c, 1, 72, 64
2, 97952, Note_off_c, 1, 55, 64
2, 98112, Note_on_c, 1, 74, 78
2, 98112, Control_c, 1, 64, 127
2, 98116, Note_on_c, 1, 54, 83
2, 98116, Note_on_c, 1, 72, 67
2, 98128, Note_off_c, 1, 54, 64
2, 98136, Note_off_c, 1, 74, 64
2, 98136, Note_off_c, 1, 72, 64
2, 98248, Note_on_c, 1, 74, 62
2, 98280, Note_on_c, 1, 79, 57
2, 98308, Note_off_c, 1, 74, 64
2, 98308, Note_on_c, 1, 83, 71
2, 98316, Note_off_c, 1, 79, 64
2, 98328, Note_off_c, 1, 83, 64
2, 98340, Note_on_c, 1, 55, 91
2, 98340, Note_on_c, 1, 86, 83
2, 98348, Note_on_c, 1, 74, 88
2, 98352, Control_c, 1, 64, 0
2, 98436, Note_off_c, 1, 86, 64
2, 98436, Note_on_c, 1, 79, 76
2, 98516, Note_off_c, 1, 79, 64
2, 98536, Note_on_c, 1, 83, 76
2, 98536, Note_on_c, 1, 62, 71
2, 98536, Note_on_c, 1, 59, 73
2, 98556, Note_off_c, 1, 74, 64
2, 98556, Note_off_c, 1, 83, 64
2, 98616, Note_off_c, 1, 55, 64
2, 98620, Note_off_c, 1, 59, 64
2, 98632, Note_off_c, 1, 62, 64
2, 98632, Note_on_c, 1, 74, 91
2, 98636, Note_on_c, 1, 86, 98
2, 98740, Note_on_c, 1, 50, 91
2, 98824, Note_off_c, 1, 86, 64
2, 98832, Note_on_c, 1, 83, 83
2, 98856, Note_off_c, 1, 74, 64
2, 98864, Note_off_c, 1, 83, 64
2, 98928, Note_off_c, 1, 50, 64
2, 98932, Note_on_c, 1, 59, 83
2, 98932, Note_on_c, 1, 62, 73
2, 98936, Note_on_c, 1, 86, 91
2, 98940, Note_on_c, 1, 74, 91
2, 99028, Note_off_c, 1, 86, 64
2, 99028, Note_on_c, 1, 83, 78
2, 99072, Note_off_c, 1, 74, 64
2, 99080, Note_off_c, 1, 83, 64
2, 99092, Note_off_c, 1, 59, 64
2, 99100, Note_off_c, 1, 62, 64
2, 99136, Note_on_c, 1, 55, 86
2, 99140, Note_on_c, 1, 74, 91
2, 99140, Note_on_c, 1, 86, 88
2, 99236, Note_on_c, 1, 79, 76
2, 99256, Note_off_c, 1, 86, 64
2, 99308, Note_off_c, 1, 79, 64
2, 99316, Note_off_c, 1, 74, 64
2, 99324, Note_on_c, 1, 59, 76
2, 99324, Note_on_c, 1, 62, 73
2, 99348, Note_on_c, 1, 83, 88
2, 99376, Note_off_c, 1, 83, 64
2, 99440, Note_on_c, 1, 86, 88
2, 99440, Note_on_c, 1, 74, 89
2, 99536, Note_off_c, 1, 55, 0
2, 99540, Note_off_c, 1, 59, 0
2, 99540, Note_off_c, 1, 62, 0
2, 99540, Note_on_c, 1, 50, 94
2, 99644, Note_off_c, 1, 86, 64
2, 99644, Note_on_c, 1, 83, 83
2, 99644, Control_c, 1, 64, 127
2, 99660, Note_off_c, 1, 74, 64
2, 99688, Note_off_c, 1, 83, 64
2, 99740, Control_c, 1, 64, 0
2, 99748, Note_on_c, 1, 86, 83
2, 99748, Note_on_c, 1, 74, 84
2, 99748, Note_on_c, 1, 62, 90
2, 99748, Note_on_c, 1, 59, 86
2, 99748, Control_c, 1, 64, 127
2, 99760, Note_off_c, 1, 59, 64
2, 99768, Note_off_c, 1, 62, 64
2, 99772, Note_off_c, 1, 50, 64
2, 99852, Note_off_c, 1, 86, 64
2, 99852, Note_on_c, 1, 83, 88
2, 99864, Note_off_c, 1, 74, 64
2, 99924, Note_off_c, 1, 83, 64
2, 99944, Note_on_c, 1, 48, 81
2, 99944, Control_c, 1, 64, 0
2, 99952, Note_on_c, 1, 88, 91
2, 99952, Note_on_c, 1, 60, 86
2, 99952, Note_on_c, 1, 76, 94
2, 99960, Note_off_c, 1, 48, 64
2, 99968, Note_off_c, 1, 60, 64
2, 100008, Note_off_c, 1, 76, 64
2, 100012, Note_off_c, 1, 88, 64
2, 100052, Note_on_c, 1, 88, 91
2, 100052, Note_on_c, 1, 76, 88
2, 100112, Note_off_c, 1, 88, 64
2, 100156, Note_on_c, 1, 55, 78
2, 100160, Note_on_c, 1, 64, 81
2, 100160, Note_on_c, 1, 60, 71
2, 100160, Control_c, 1, 64, 127
2, 100168, Note_off_c, 1, 64, 64
2, 100168, Note_off_c, 1, 60, 64
2, 100172, Note_off_c, 1, 55, 64
2, 100180, Note_off_c, 1, 76, 64
2, 100228, Control_c, 1, 64, 0
2, 100260, Note_on_c, 1, 79, 91
2, 100264, Note_on_c, 1, 76, 71
2, 100296, Note_off_c, 1, 79, 64
2, 100296, Note_off_c, 1, 76, 64
2, 100356, Note_on_c, 1, 48, 76
2, 100356, Note_on_c, 1, 81, 105
2, 100356, Note_on_c, 1, 60, 65
2, 100356, Note_on_c, 1, 76, 91
2, 100368, Note_off_c, 1, 48, 64
2, 100368, Control_c, 1, 64, 127
2, 100380, Note_off_c, 1, 60, 64
2, 100388, Note_off_c, 1, 76, 64
2, 100408, Note_off_c, 1, 81, 64
2, 100456, Note_on_c, 1, 79, 91
2, 100456, Note_on_c, 1, 76, 86
2, 100484, Note_off_c, 1, 76, 64
2, 100488, Note_off_c, 1, 79, 64
2, 100512, Control_c, 1, 64, 0
2, 100560, Note_on_c, 1, 55, 78
2, 100560, Note_on_c, 1, 81, 105
2, 100564, Note_on_c, 1, 64, 71
2, 100564, Note_on_c, 1, 76, 88
2, 100564, Note_on_c, 1, 60, 63
2, 100572, Note_off_c, 1, 60, 64
2, 100580, Note_off_c, 1, 64, 64
2, 100584, Note_off_c, 1, 55, 64
2, 100616, Control_c, 1, 64, 127
2, 100620, Note_off_c, 1, 76, 64
2, 100640, Note_off_c, 1, 81, 64
2, 100664, Control_c, 1, 64, 0
2, 100776, Note_on_c, 1, 83, 101
2, 100780, Note_on_c, 1, 75, 105
2, 100780, Note_on_c, 1, 47, 83
2, 100780, Control_c, 1, 64, 127
2, 100796, Note_off_c, 1, 47, 64
2, 100972, Control_c, 1, 64, 0
2, 100984, Note_on_c, 1, 54, 86
2, 100984, Note_on_c, 1, 57, 94
2, 100984, Note_on_c, 1, 59, 81
2, 100996, Note_off_c, 1, 54, 64
2, 100996, Note_off_c, 1, 57, 64
2, 101000, Note_off_c, 1, 59, 64
2, 101176, Note_off_c, 1, 83, 64
2, 101176, Note_off_c, 1, 75, 64
2, 101192, Note_on_c, 1, 54, 98
2, 101192, Note_on_c, 1, 57, 98
2, 101192, Note_on_c, 1, 59, 86
2, 101264, Note_off_c, 1, 59, 64
2, 101300, Note_off_c, 1, 57, 64
2, 101392, Note_on_c, 1, 71, 95
2, 101392, Note_on_c, 1, 83, 101
2, 101392, Control_c, 1, 64, 127
2, 101412, Note_off_c, 1, 71, 64
2, 101416, Note_off_c, 1, 54, 64
2, 101416, Note_off_c, 1, 83, 64
2, 101500, Control_c, 1, 64, 0
2, 101600, Note_on_c, 1, 76, 91
2, 101608, Note_on_c, 1, 88, 100
2, 101608, Note_on_c, 1, 44, 97
2, 101608, Note_on_c, 1, 56, 75
2, 101608, Control_c, 1, 64, 127
2, 101620, Note_off_c, 1, 76, 64
2, 101624, Note_off_c, 1, 88, 64
2, 101624, Note_off_c, 1, 44, 64
2, 101632, Note_off_c, 1, 56, 64
2, 101712, Note_on_c, 1, 86, 88
2, 101720, Note_on_c, 1, 74, 91
2, 101792, Note_off_c, 1, 86, 64
2, 101792, Note_off_c, 1, 74, 64
2, 101808, Note_on_c, 1, 52, 76
2, 101812, Note_on_c, 1, 62, 68
2, 101812, Note_on_c, 1, 56, 67
2, 101824, Note_off_c, 1, 52, 64
2, 101824, Note_off_c, 1, 62, 64
2, 101824, Note_off_c, 1, 56, 64
2, 101828, Control_c, 1, 64, 0
2, 101908, Note_on_c, 1, 71, 78
2, 101908, Note_on_c, 1, 83, 91
2, 101932, Note_off_c, 1, 71, 64
2, 101932, Note_off_c, 1, 83, 64
2, 102016, Note_on_c, 1, 40, 86
2, 102020, Note_on_c, 1, 84, 94
2, 102020, Note_on_c, 1, 72, 91
2, 102020, Control_c, 1, 64, 127
2, 102024, Note_off_c, 1, 40, 64
2, 102108, Note_off_c, 1, 84, 0
2, 102108, Note_off_c, 1, 72, 0
2, 102216, Note_on_c, 1, 62, 69
2, 102216, Note_on_c, 1, 52, 78
2, 102216, Note_on_c, 1, 56, 67
2, 102216, Note_on_c, 1, 71, 83
2, 102220, Note_on_c, 1, 83, 101
2, 102228, Note_off_c, 1, 62, 64
2, 102228, Control_c, 1, 64, 0
2, 102232, Note_off_c, 1, 52, 64
2, 102232, Note_off_c, 1, 56, 64
2, 102352, Note_off_c, 1, 71, 64
2, 102356, Note_off_c, 1, 83, 64
2, 102420, Note_on_c, 1, 33, 86
2, 102420, Control_c, 1, 64, 127
2, 102428, Note_off_c, 1, 33, 64
2, 102428, Note_on_c, 1, 83, 101
2, 102428, Note_on_c, 1, 45, 73
2, 102428, Note_on_c, 1, 71, 91
2, 102444, Note_off_c, 1, 45, 64
2, 102476, Note_off_c, 1, 83, 64
2, 102480, Note_off_c, 1, 71, 64
2, 102536, Note_on_c, 1, 69, 76
2, 102536, Note_on_c, 1, 81, 88
2, 102604, Note_off_c, 1, 81, 64
2, 102612, Note_off_c, 1, 69, 64
2, 102624, Note_on_c, 1, 57, 78
2, 102628, Note_on_c, 1, 64, 71
2, 102636, Note_off_c, 1, 57, 64
2, 102636, Note_off_c, 1, 64, 64
2, 102716, Note_on_c, 1, 76, 83
2, 102720, Note_on_c, 1, 64, 78
2, 102736, Note_off_c, 1, 64, 64
2, 102740, Note_off_c, 1, 76, 64
2, 102808, Note_on_c, 1, 36, 94
2, 102808, Control_c, 1, 64, 0
2, 102844, Note_off_c, 1, 36, 64
2, 102844, Note_on_c, 1, 71, 81
2, 102844, Note_on_c, 1, 83, 94
2, 102844, Control_c, 1, 64, 127
2, 102960, Note_off_c, 1, 71, 64
2, 102960, Note_off_c, 1, 83, 64
2, 103028, Note_on_c, 1, 63, 62
2, 103036, Note_on_c, 1, 57, 76
2, 103040, Note_on_c, 1, 60, 62
2, 103040, Note_on_c, 1, 81, 101
2, 103040, Note_on_c, 1, 69, 83
2, 103048, Note_off_c, 1, 60, 64
2, 103052, Note_off_c, 1, 63, 64
2, 103052, Note_off_c, 1, 57, 64
2, 103116, Note_off_c, 1, 69, 64
2, 103128, Note_off_c, 1, 81, 64
2, 103228, Note_on_c, 1, 50, 91
2, 103248, Control_c, 1, 64, 0
2, 103260, Note_on_c, 1, 83, 94
2, 103264, Note_on_c, 1, 71, 81
2, 103320, Control_c, 1, 64, 127
2, 103328, Note_off_c, 1, 83, 64
2, 103328, Note_off_c, 1, 71, 64
2, 103364, Note_on_c, 1, 69, 88
2, 103364, Note_on_c, 1, 81, 83
2, 103444, Note_off_c, 1, 69, 0
2, 103448, Note_on_c, 1, 55, 62
2, 103448, Note_on_c, 1, 59, 68
2, 103456, Note_on_c, 1, 62, 68
2, 103460, Note_off_c, 1, 81, 0
2, 103476, Note_off_c, 1, 59, 64
2, 103476, Note_off_c, 1, 62, 64
2, 103488, Note_off_c, 1, 55, 64
2, 103516, Note_off_c, 1, 50, 0
2, 103556, Note_on_c, 1, 83, 73
2, 103560, Note_on_c, 1, 71, 76
2, 103572, Note_off_c, 1, 71, 64
2, 103580, Note_off_c, 1, 83, 64
2, 103660, Note_on_c, 1, 38, 87
2, 103664, Note_on_c, 1, 50, 83
2, 103672, Note_on_c, 1, 72, 73
2, 103672, Note_on_c, 1, 84, 105
2, 103672, Note_on_c, 1, 76, 88
2, 103672, Control_c, 1, 64, 0
2, 103716, Control_c, 1, 64, 127
2, 103720, Note_off_c, 1, 72, 64
2, 103720, Note_off_c, 1, 84, 64
2, 103720, Note_off_c, 1, 76, 64
2, 103724, Note_off_c, 1, 38, 64
2, 103732, Note_off_c, 1, 50, 64
2, 103732, Control_c, 1, 64, 0
2, 103768, Note_on_c, 1, 40, 83
2, 103768, Note_on_c, 1, 52, 88
2, 103768, Note_on_c, 1, 83, 88
2, 103768, Note_on_c, 1, 74, 86
2, 103768, Note_on_c, 1, 71, 78
2, 103788, Note_off_c, 1, 52, 64
2, 103804, Note_off_c, 1, 40, 64
2, 103804, Note_off_c, 1, 83, 64
2, 103804, Note_off_c, 1, 74, 64
2, 103804, Note_off_c, 1, 71, 64
2, 103868, Note_on_c, 1, 81, 101
2, 103868, Note_on_c, 1, 69, 98
2, 103872, Note_on_c, 1, 72, 91
2, 103872, Note_on_c, 1, 54, 98
2, 103872, Note_on_c, 1, 42, 98
2, 103928, Control_c, 1, 64, 127
2, 103952, Note_off_c, 1, 42, 64
2, 103956, Note_off_c, 1, 81, 64
2, 103956, Note_off_c, 1, 72, 64
2, 103960, Note_off_c, 1, 69, 64
2, 103960, Note_off_c, 1, 54, 64
2, 103960, Control_c, 1, 64, 0
2, 104104, Note_on_c, 1, 43, 83
2, 104108, Note_on_c, 1, 55, 91
2, 104108, Note_on_c, 1, 67, 105
2, 104108, Note_on_c, 1, 79, 109
2, 104108, Note_on_c, 1, 50, 101
2, 104108, Note_on_c, 1, 71, 109
2, 104108, Control_c, 1, 64, 127
2, 104172, Note_off_c, 1, 67, 64
2, 104192, Note_off_c, 1, 71, 64
2, 104200, Note_off_c, 1, 79, 64
2, 104232, Note_off_c, 1, 55, 64
2, 104236, Note_off_c, 1, 50, 64
2, 104240, Note_off_c, 1, 43, 64
2, 104372, Control_c, 1, 64, 0
2, 104584, Note_on_c, 1, 38, 105
2, 104588, Note_on_c, 1, 91, 115
2, 104588, Note_on_c, 1, 43, 105
2, 104588, Note_on_c, 1, 31, 105
2, 104588, Note_on_c, 1, 83, 115
2, 104592, Note_on_c, 1, 86, 113
2, 104592, Note_on_c, 1, 79, 116
2, 104592, Control_c, 1, 64, 127
2, 104656, Note_off_c, 1, 91, 64
2, 104660, Note_off_c, 1, 86, 64
2, 104660, Note_off_c, 1, 79, 64
2, 104672, Note_off_c, 1, 83, 64
2, 104684, Note_off_c, 1, 38, 64
2, 104684, Note_off_c, 1, 31, 64
2, 104688, Note_off_c, 1, 43, 64
2, 104892, Control_c, 1, 64, 0
2, 105120, Note_on_c, 1, 52, 86
2, 105124, Note_on_c, 1, 81, 105
2, 105124, Note_on_c, 1, 73, 109
2, 105128, Note_on_c, 1, 69, 105
2, 105128, Control_c, 1, 64, 127
2, 105136, Note_off_c, 1, 52, 64
2, 105220, Note_off_c, 1, 69, 64
2, 105324, Note_off_c, 1, 73, 0
2, 105344, Note_on_c, 1, 61, 59
2, 105344, Note_on_c, 1, 55, 88
2, 105348, Note_on_c, 1, 57, 76
2, 105348, Control_c, 1, 64, 0
2, 105356, Note_off_c, 1, 81, 0
2, 105356, Note_off_c, 1, 61, 64
2, 105356, Note_on_c, 1, 71, 101
2, 105360, Note_off_c, 1, 55, 64
2, 105360, Note_off_c, 1, 57, 64
2, 105448, Note_on_c, 1, 73, 88
2, 105452, Note_off_c, 1, 71, 64
2, 105544, Note_on_c, 1, 45, 88
2, 105548, Control_c, 1, 64, 127
2, 105556, Note_off_c, 1, 45, 64
2, 105640, Note_off_c, 1, 73, 64
2, 105644, Note_on_c, 1, 81, 83
2, 105728, Note_off_c, 1, 81, 64
2, 105748, Note_on_c, 1, 61, 59
2, 105748, Note_on_c, 1, 79, 94
2, 105756, Note_on_c, 1, 73, 81
2, 105756, Note_on_c, 1, 55, 88
2, 105756, Note_on_c, 1, 57, 86
2, 105756, Note_on_c, 1, 69, 88
2, 105768, Note_off_c, 1, 61, 64
2, 105768, Note_off_c, 1, 55, 64
2, 105768, Note_off_c, 1, 57, 64
2, 105768, Control_c, 1, 64, 0
2, 105772, Note_off_c, 1, 73, 64
2, 105776, Note_off_c, 1, 69, 64
2, 105792, Note_off_c, 1, 79, 64
2, 105972, Note_on_c, 1, 81, 109
2, 105972, Note_on_c, 1, 73, 105
2, 105972, Note_on_c, 1, 69, 105
2, 105976, Note_on_c, 1, 52, 83
2, 105976, Control_c, 1, 64, 127
2, 105992, Note_off_c, 1, 52, 64
2, 106032, Note_off_c, 1, 69, 64
2, 106072, Note_off_c, 1, 73, 64
2, 106172, Note_on_c, 1, 61, 63
2, 106180, Note_off_c, 1, 81, 64
2, 106180, Note_on_c, 1, 55, 88
2, 106184, Note_on_c, 1, 71, 91
2, 106184, Note_on_c, 1, 57, 83
2, 106192, Note_off_c, 1, 61, 64
2, 106192, Note_off_c, 1, 55, 64
2, 106192, Note_off_c, 1, 57, 64
2, 106196, Control_c, 1, 64, 0
2, 106272, Note_off_c, 1, 71, 64
2, 106280, Note_on_c, 1, 73, 83
2, 106380, Note_on_c, 1, 45, 88
2, 106380, Control_c, 1, 64, 127
2, 106388, Note_off_c, 1, 45, 64
2, 106476, Note_off_c, 1, 73, 64
2, 106480, Note_on_c, 1, 81, 81
2, 106556, Note_off_c, 1, 81, 64
2, 106580, Note_on_c, 1, 61, 62
2, 106584, Note_on_c, 1, 79, 81
2, 106584, Note_on_c, 1, 73, 75
2, 106584, Note_on_c, 1, 69, 81
2, 106584, Note_on_c, 1, 55, 83
2, 106588, Note_on_c, 1, 57, 86
2, 106592, Control_c, 1, 64, 0
2, 106696, Control_c, 1, 64, 127
2, 106760, Note_off_c, 1, 61, 0
2, 106776, Note_off_c, 1, 55, 0
2, 106776, Note_off_c, 1, 57, 64
2, 106788, Note_off_c, 1, 69, 0
2, 106792, Note_off_c, 1, 73, 0
2, 106792, Note_on_c, 1, 50, 101
2, 106796, Note_off_c, 1, 79, 0
2, 106796, Note_on_c, 1, 62, 101
2, 106804, Control_c, 1, 64, 0
2, 106808, Note_off_c, 1, 50, 64
2, 106808, Note_off_c, 1, 62, 64
2, 106996, Note_on_c, 1, 52, 60
2, 107004, Note_on_c, 1, 64, 61
2, 107012, Note_off_c, 1, 52, 64
2, 107012, Note_on_c, 1, 81, 86
2, 107012, Note_on_c, 1, 74, 78
2, 107020, Note_off_c, 1, 64, 64
2, 107080, Note_off_c, 1, 74, 64
2, 107108, Note_on_c, 1, 69, 59
2, 107184, Note_off_c, 1, 69, 64
2, 107192, Note_off_c, 1, 81, 64
2, 107196, Note_on_c, 1, 66, 69
2, 107196, Note_on_c, 1, 54, 68
2, 107220, Note_off_c, 1, 54, 64
2, 107224, Note_off_c, 1, 66, 64
2, 107396, Note_on_c, 1, 52, 68
2, 107400, Note_on_c, 1, 64, 59
2, 107408, Note_off_c, 1, 52, 64
2, 107408, Note_on_c, 1, 74, 78
2, 107408, Note_on_c, 1, 81, 88
2, 107412, Note_off_c, 1, 64, 64
2, 107488, Note_off_c, 1, 74, 64
2, 107504, Note_on_c, 1, 69, 69
2, 107580, Note_off_c, 1, 69, 64
2, 107588, Note_off_c, 1, 81, 64
2, 107612, Note_on_c, 1, 50, 64
2, 107612, Note_on_c, 1, 62, 66
2, 107640, Note_off_c, 1, 50, 64
2, 107640, Note_off_c, 1, 62, 64
2, 107704, Note_on_c, 1, 81, 94
2, 107708, Note_on_c, 1, 74, 91
2, 107720, Note_off_c, 1, 74, 64
2, 107732, Note_off_c, 1, 81, 64
2, 107808, Note_on_c, 1, 61, 75
2, 107816, Note_on_c, 1, 49, 53
2, 107828, Note_off_c, 1, 61, 64
2, 107828, Note_off_c, 1, 49, 64
2, 107912, Note_on_c, 1, 69, 88
2, 107928, Note_off_c, 1, 69, 0
2, 108020, Note_on_c, 1, 47, 83
2, 108020, Note_on_c, 1, 59, 88
2, 108020, Note_on_c, 1, 81, 91
2, 108020, Note_on_c, 1, 74, 68
2, 108028, Note_off_c, 1, 74, 64
2, 108036, Note_off_c, 1, 47, 64
2, 108036, Note_off_c, 1, 59, 64
2, 108040, Note_off_c, 1, 81, 64
2, 108228, Note_on_c, 1, 69, 83
2, 108232, Note_on_c, 1, 57, 83
2, 108232, Note_on_c, 1, 45, 72
2, 108232, Note_on_c, 1, 43, 48
2, 108236, Note_off_c, 1, 43, 64
2, 108244, Note_off_c, 1, 45, 64
2, 108248, Note_off_c, 1, 57, 64
2, 108252, Note_off_c, 1, 69, 64
2, 108452, Note_on_c, 1, 83, 115
2, 108452, Control_c, 1, 64, 127
2, 108456, Note_on_c, 1, 71, 105
2, 108456, Note_on_c, 1, 47, 101
2, 108456, Note_on_c, 1, 75, 109
2, 108472, Note_off_c, 1, 47, 64
2, 108528, Note_off_c, 1, 75, 64
2, 108572, Note_off_c, 1, 71, 64
2, 108656, Note_on_c, 1, 54, 73
2, 108660, Note_on_c, 1, 73, 86
2, 108668, Note_on_c, 1, 57, 69
2, 108676, Note_off_c, 1, 54, 64
2, 108676, Note_off_c, 1, 57, 64
2, 108696, Note_off_c, 1, 73, 64
2, 108708, Control_c, 1, 64, 0
2, 108768, Note_on_c, 1, 75, 109
2, 108772, Note_off_c, 1, 83, 64
2, 108864, Note_on_c, 1, 51, 78
2, 108864, Control_c, 1, 64, 127
2, 108880, Note_off_c, 1, 51, 64
2, 108952, Note_off_c, 1, 75, 64
2, 108956, Note_on_c, 1, 83, 88
2, 109044, Note_off_c, 1, 83, 64
2, 109068, Note_on_c, 1, 54, 78
2, 109068, Note_on_c, 1, 75, 78
2, 109068, Note_on_c, 1, 81, 94
2, 109072, Note_on_c, 1, 63, 60
2, 109072, Note_on_c, 1, 71, 78
2, 109072, Note_on_c, 1, 57, 71
2, 109076, Note_on_c, 1, 59, 69
2, 109084, Note_off_c, 1, 57, 64
2, 109084, Note_off_c, 1, 59, 64
2, 109088, Note_off_c, 1, 63, 64
2, 109092, Note_off_c, 1, 54, 64
2, 109092, Note_off_c, 1, 75, 64
2, 109096, Note_off_c, 1, 71, 64
2, 109096, Control_c, 1, 64, 0
2, 109100, Note_off_c, 1, 81, 64
2, 109276, Note_on_c, 1, 47, 91
2, 109280, Note_on_c, 1, 83, 115
2, 109280, Note_on_c, 1, 75, 109
2, 109280, Note_on_c, 1, 71, 101
2, 109280, Control_c, 1, 64, 127
2, 109288, Note_off_c, 1, 47, 0
2, 109324, Note_off_c, 1, 75, 0
2, 109356, Note_off_c, 1, 71, 0
2, 109472, Note_on_c, 1, 54, 75
2, 109484, Note_on_c, 1, 63, 53
2, 109484, Note_on_c, 1, 73, 86
2, 109492, Note_off_c, 1, 54, 64
2, 109496, Note_off_c, 1, 63, 64
2, 109508, Note_off_c, 1, 73, 64
2, 109576, Note_on_c, 1, 75, 98
2, 109600, Note_off_c, 1, 83, 0
2, 109676, Note_on_c, 1, 51, 76
2, 109680, Control_c, 1, 64, 0
2, 109768, Note_on_c, 1, 83, 86
2, 109776, Note_off_c, 1, 75, 64
2, 109864, Note_off_c, 1, 83, 64
2, 109876, Note_on_c, 1, 63, 71
2, 109880, Note_on_c, 1, 57, 84
2, 109880, Note_on_c, 1, 75, 91
2, 109880, Note_on_c, 1, 59, 91
2, 109884, Note_on_c, 1, 81, 101
2, 109884, Note_on_c, 1, 71, 86
2, 109884, Control_c, 1, 64, 127
2, 109916, Note_off_c, 1, 51, 64
2, 109932, Note_off_c, 1, 57, 64
2, 109932, Note_off_c, 1, 59, 64
2, 109940, Note_off_c, 1, 63, 64
2, 110072, Note_off_c, 1, 75, 64
2, 110088, Note_off_c, 1, 71, 64
2, 110088, Note_on_c, 1, 52, 105
2, 110092, Note_off_c, 1, 81, 64
2, 110092, Note_on_c, 1, 64, 98
2, 110096, Control_c, 1, 64, 0
2, 110144, Note_off_c, 1, 52, 64
2, 110144, Note_off_c, 1, 64, 64
2, 110292, Note_on_c, 1, 54, 76
2, 110300, Note_on_c, 1, 66, 64
2, 110304, Note_on_c, 1, 83, 86
2, 110308, Note_on_c, 1, 76, 81
2, 110316, Note_off_c, 1, 54, 64
2, 110320, Note_off_c, 1, 66, 64
2, 110380, Note_off_c, 1, 76, 64
2, 110400, Note_on_c, 1, 71, 75
2, 110468, Note_off_c, 1, 83, 64
2, 110472, Note_off_c, 1, 71, 64
2, 110500, Note_on_c, 1, 67, 73
2, 110504, Note_on_c, 1, 55, 78
2, 110608, Note_off_c, 1, 67, 64
2, 110616, Note_off_c, 1, 55, 64
2, 110708, Note_on_c, 1, 66, 69
2, 110712, Note_on_c, 1, 83, 91
2, 110712, Note_on_c, 1, 54, 65
2, 110712, Note_on_c, 1, 76, 81
2, 110732, Note_off_c, 1, 66, 64
2, 110736, Note_off_c, 1, 54, 64
2, 110792, Note_off_c, 1, 76, 64
2, 110812, Note_on_c, 1, 71, 79
2, 110880, Note_off_c, 1, 71, 64
2, 110896, Note_off_c, 1, 83, 64
2, 110912, Note_on_c, 1, 52, 74
2, 110920, Note_on_c, 1, 64, 81
2, 111012, Note_off_c, 1, 52, 64
2, 111012, Note_off_c, 1, 64, 64
2, 111016, Note_on_c, 1, 76, 92
2, 111016, Note_on_c, 1, 83, 92
2, 111112, Note_off_c, 1, 76, 64
2, 111112, Note_off_c, 1, 83, 64
2, 111120, Note_on_c, 1, 50, 85
2, 111124, Note_on_c, 1, 62, 80
2, 111220, Note_off_c, 1, 62, 64
2, 111220, Note_on_c, 1, 71, 87
2, 111236, Note_off_c, 1, 50, 64
2, 111248, Note_off_c, 1, 71, 64
2, 111328, Note_on_c, 1, 83, 92
2, 111332, Note_on_c, 1, 61, 84
2, 111332, Note_on_c, 1, 76, 98
2, 111336, Note_on_c, 1, 49, 87
2, 111344, Control_c, 1, 64, 127
2, 111388, Note_off_c, 1, 61, 64
2, 111432, Note_off_c, 1, 49, 64
2, 111444, Note_off_c, 1, 76, 64
2, 111460, Note_off_c, 1, 83, 64
2, 111504, Control_c, 1, 64, 0
2, 111536, Note_on_c, 1, 71, 94
2, 111544, Note_on_c, 1, 47, 88
2, 111544, Note_on_c, 1, 59, 84
2, 111544, Control_c, 1, 64, 127
2, 111572, Note_off_c, 1, 71, 64
2, 111576, Note_off_c, 1, 47, 64
2, 111580, Note_off_c, 1, 59, 64
2, 111708, Control_c, 1, 64, 0
2, 111768, Note_on_c, 1, 52, 88
2, 111772, Note_on_c, 1, 85, 76
2, 111772, Note_on_c, 1, 73, 101
2, 111772, Note_on_c, 1, 79, 101
2, 111780, Control_c, 1, 64, 127
2, 111788, Note_off_c, 1, 52, 64
2, 111848, Note_off_c, 1, 73, 64
2, 111856, Note_off_c, 1, 85, 64
2, 111892, Note_on_c, 1, 84, 83
2, 111892, Note_on_c, 1, 72, 88
2, 111920, Note_off_c, 1, 72, 64
2, 111932, Note_off_c, 1, 84, 64
2, 111968, Note_on_c, 1, 67, 65
2, 111968, Note_on_c, 1, 57, 75
2, 111972, Note_on_c, 1, 61, 54
2, 111984, Note_off_c, 1, 67, 64
2, 111984, Note_off_c, 1, 61, 64
2, 111988, Note_on_c, 1, 85, 91
2, 111996, Note_off_c, 1, 57, 64
2, 111996, Note_on_c, 1, 73, 78
2, 112012, Note_off_c, 1, 73, 0
2, 112020, Note_off_c, 1, 85, 0
2, 112092, Note_on_c, 1, 88, 91
2, 112092, Note_on_c, 1, 76, 78
2, 112096, Control_c, 1, 64, 0
2, 112196, Note_on_c, 1, 45, 99
2, 112200, Note_off_c, 1, 88, 64
2, 112208, Control_c, 1, 64, 127
2, 112212, Note_off_c, 1, 76, 64
2, 112216, Note_off_c, 1, 45, 64
2, 112308, Note_on_c, 1, 85, 86
2, 112312, Note_on_c, 1, 73, 98
2, 112368, Note_off_c, 1, 85, 64
2, 112372, Note_off_c, 1, 73, 64
2, 112388, Note_off_c, 1, 79, 0
2, 112408, Note_on_c, 1, 67, 73
2, 112408, Note_on_c, 1, 57, 86
2, 112416, Note_on_c, 1, 61, 57
2, 112424, Note_off_c, 1, 67, 64
2, 112424, Note_off_c, 1, 61, 64
2, 112428, Note_off_c, 1, 57, 64
2, 112508, Note_on_c, 1, 81, 88
2, 112508, Note_on_c, 1, 69, 81
2, 112592, Control_c, 1, 64, 0
2, 112608, Note_off_c, 1, 69, 64
2, 112616, Note_off_c, 1, 81, 64
2, 112616, Note_on_c, 1, 52, 94
2, 112624, Control_c, 1, 64, 127
2, 112636, Note_off_c, 1, 52, 64
2, 112716, Note_on_c, 1, 83, 104
2, 112716, Note_on_c, 1, 79, 97
2, 112716, Note_on_c, 1, 71, 88
2, 112820, Note_off_c, 1, 83, 64
2, 112824, Note_off_c, 1, 71, 64
2, 112832, Note_on_c, 1, 67, 76
2, 112832, Note_on_c, 1, 61, 61
2, 112840, Note_on_c, 1, 57, 81
2, 112848, Note_off_c, 1, 67, 64
2, 112848, Note_off_c, 1, 61, 64
2, 112848, Note_off_c, 1, 57, 64
2, 112940, Note_on_c, 1, 82, 81
2, 112940, Note_on_c, 1, 70, 91
2, 112968, Note_off_c, 1, 70, 64
2, 112976, Note_off_c, 1, 82, 64
2, 113024, Note_off_c, 1, 79, 64
2, 113052, Note_on_c, 1, 79, 101
2, 113052, Note_on_c, 1, 45, 83
2, 113052, Note_on_c, 1, 83, 94
2, 113052, Control_c, 1, 64, 0
2, 113056, Note_on_c, 1, 71, 83
2, 113076, Control_c, 1, 64, 127
2, 113084, Note_off_c, 1, 45, 64
2, 113276, Note_on_c, 1, 57, 92
2, 113276, Note_on_c, 1, 67, 88
2, 113276, Note_on_c, 1, 61, 95
2, 113300, Note_off_c, 1, 61, 64
2, 113304, Note_off_c, 1, 57, 64
2, 113304, Note_off_c, 1, 67, 64
2, 113384, Note_off_c, 1, 83, 64
2, 113384, Note_off_c, 1, 71, 64
2, 113388, Note_off_c, 1, 79, 64
2, 113484, Note_on_c, 1, 50, 91
2, 113496, Note_off_c, 1, 50, 64
2, 113496, Note_on_c, 1, 83, 105
2, 113496, Note_on_c, 1, 78, 93
2, 113496, Note_on_c, 1, 71, 92
2, 113508, Control_c, 1, 64, 0
2, 113536, Note_off_c, 1, 71, 64
2, 113552, Note_off_c, 1, 83, 64
2, 113600, Note_on_c, 1, 82, 85
2, 113600, Note_on_c, 1, 70, 75
2, 113644, Note_off_c, 1, 70, 64
2, 113672, Note_off_c, 1, 82, 64
2, 113696, Note_on_c, 1, 66, 64
2, 113696, Note_on_c, 1, 83, 85
2, 113700, Note_on_c, 1, 57, 86
2, 113700, Note_on_c, 1, 62, 76
2, 113700, Note_on_c, 1, 71, 88
2, 113712, Note_off_c, 1, 66, 64
2, 113712, Note_off_c, 1, 62, 64
2, 113720, Note_off_c, 1, 57, 64
2, 113724, Note_off_c, 1, 71, 64
2, 113732, Note_off_c, 1, 83, 64
2, 113812, Note_on_c, 1, 86, 92
2, 113816, Note_on_c, 1, 74, 81
2, 113904, Note_on_c, 1, 45, 90
2, 113904, Control_c, 1, 64, 127
2, 113928, Note_off_c, 1, 86, 64
2, 113928, Note_off_c, 1, 74, 64
2, 113928, Note_off_c, 1, 45, 64
2, 114020, Note_on_c, 1, 83, 93
2, 114020, Note_on_c, 1, 71, 82
2, 114112, Note_off_c, 1, 83, 64
2, 114120, Note_off_c, 1, 71, 64
2, 114124, Note_on_c, 1, 66, 64
2, 114128, Note_off_c, 1, 78, 64
2, 114132, Note_on_c, 1, 57, 86
2, 114132, Note_on_c, 1, 62, 81
2, 114148, Note_off_c, 1, 66, 64
2, 114148, Note_off_c, 1, 57, 64
2, 114148, Note_off_c, 1, 62, 64
2, 114228, Note_on_c, 1, 78, 83
2, 114236, Note_on_c, 1, 66, 78
2, 114296, Control_c, 1, 64, 0
2, 114344, Note_off_c, 1, 66, 64
2, 114344, Control_c, 1, 64, 127
2, 114348, Note_on_c, 1, 50, 94
2, 114356, Note_off_c, 1, 78, 64
2, 114364, Note_on_c, 1, 78, 60
2, 114372, Note_off_c, 1, 50, 64
2, 114376, Note_off_c, 1, 78, 64
2, 114452, Note_on_c, 1, 81, 98
2, 114452, Note_on_c, 1, 78, 85
2, 114452, Note_on_c, 1, 69, 88
2, 114520, Note_off_c, 1, 69, 64
2, 114544, Note_off_c, 1, 81, 64
2, 114568, Note_off_c, 1, 78, 64
2, 114572, Note_on_c, 1, 66, 69
2, 114576, Note_on_c, 1, 62, 81
2, 114576, Note_on_c, 1, 57, 83
2, 114576, Note_on_c, 1, 56, 64
2, 114580, Note_off_c, 1, 56, 64
2, 114588, Note_off_c, 1, 62, 64
2, 114596, Note_off_c, 1, 66, 64
2, 114596, Note_off_c, 1, 57, 64
2, 114664, Note_on_c, 1, 80, 71
2, 114664, Note_on_c, 1, 68, 81
2, 114692, Note_off_c, 1, 68, 64
2, 114716, Note_off_c, 1, 80, 64
2, 114764, Control_c, 1, 64, 0
2, 114772, Note_on_c, 1, 45, 98
2, 114784, Note_on_c, 1, 78, 86
2, 114784, Note_on_c, 1, 81, 101
2, 114784, Note_on_c, 1, 69, 91
2, 114792, Note_off_c, 1, 45, 64
2, 114792, Control_c, 1, 64, 127
2, 114904, Note_off_c, 1, 78, 0
2, 114904, Note_off_c, 1, 81, 0
2, 114904, Note_off_c, 1, 69, 0
2, 114992, Note_on_c, 1, 78, 105
2, 114992, Note_on_c, 1, 57, 83
2, 114996, Note_on_c, 1, 66, 65
2, 114996, Note_on_c, 1, 69, 88
2, 114996, Note_on_c, 1, 62, 75
2, 115016, Note_off_c, 1, 57, 64
2, 115024, Note_off_c, 1, 66, 64
2, 115024, Note_off_c, 1, 62, 64
2, 115116, Note_off_c, 1, 69, 64
2, 115156, Note_off_c, 1, 78, 64
2, 115204, Note_on_c, 1, 67, 94
2, 115204, Note_on_c, 1, 55, 101
2, 115208, Note_on_c, 1, 76, 98
2, 115208, Note_on_c, 1, 71, 94
2, 115208, Control_c, 1, 64, 0
2, 115272, Control_c, 1, 64, 127
2, 115304, Note_off_c, 1, 67, 64
2, 115304, Note_off_c, 1, 71, 64
2, 115308, Note_off_c, 1, 76, 64
2, 115316, Note_off_c, 1, 55, 64
2, 115328, Control_c, 1, 64, 0
2, 115420, Note_on_c, 1, 78, 105
2, 115420, Note_on_c, 1, 66, 91
2, 115424, Note_on_c, 1, 54, 98
2, 115424, Note_on_c, 1, 71, 91
2, 115424, Control_c, 1, 64, 127
2, 115484, Note_off_c, 1, 78, 64
2, 115484, Note_off_c, 1, 66, 64
2, 115496, Note_off_c, 1, 54, 64
2, 115496, Note_off_c, 1, 71, 64
2, 115628, Note_on_c, 1, 52, 73
2, 115628, Control_c, 1, 64, 0
2, 115636, Note_on_c, 1, 64, 64
2, 115636, Note_on_c, 1, 79, 101
2, 115640, Note_on_c, 1, 71, 73
2, 115660, Note_off_c, 1, 79, 64
2, 115664, Note_off_c, 1, 71, 64
2, 115748, Note_on_c, 1, 83, 98
2, 115748, Note_on_c, 1, 71, 86
2, 115752, Note_off_c, 1, 52, 64
2, 115760, Note_off_c, 1, 64, 64
2, 115848, Note_off_c, 1, 83, 64
2, 115848, Note_off_c, 1, 71, 64
2, 115852, Note_on_c, 1, 59, 83
2, 115852, Note_on_c, 1, 55, 83
2, 115856, Note_on_c, 1, 64, 81
2, 115880, Note_off_c, 1, 59, 64
2, 115880, Note_off_c, 1, 64, 64
2, 115884, Note_off_c, 1, 55, 64
2, 115952, Note_on_c, 1, 79, 98
2, 115960, Note_on_c, 1, 71, 69
2, 115964, Note_off_c, 1, 79, 64
2, 115964, Note_off_c, 1, 71, 64
2, 116068, Note_on_c, 1, 45, 98
2, 116068, Note_on_c, 1, 78, 105
2, 116076, Note_on_c, 1, 69, 91
2, 116076, Control_c, 1, 64, 127
2, 116084, Note_off_c, 1, 45, 64
2, 116148, Note_off_c, 1, 69, 64
2, 116160, Note_off_c, 1, 78, 64
2, 116288, Note_on_c, 1, 66, 64
2, 116292, Note_on_c, 1, 57, 69
2, 116292, Note_on_c, 1, 77, 86
2, 116292, Note_on_c, 1, 62, 76
2, 116292, Note_on_c, 1, 68, 78
2, 116304, Note_off_c, 1, 66, 64
2, 116304, Note_off_c, 1, 57, 64
2, 116304, Note_off_c, 1, 62, 64
2, 116336, Note_off_c, 1, 68, 64
2, 116368, Note_off_c, 1, 77, 64
2, 116388, Note_on_c, 1, 78, 75
2, 116396, Note_on_c, 1, 69, 91
2, 116404, Control_c, 1, 64, 0
2, 116464, Note_off_c, 1, 69, 64
2, 116480, Note_off_c, 1, 78, 64
2, 116480, Note_on_c, 1, 45, 81
2, 116508, Note_off_c, 1, 45, 64
2, 116508, Control_c, 1, 64, 127
2, 116512, Note_on_c, 1, 79, 91
2, 116512, Note_on_c, 1, 71, 86
2, 116560, Note_off_c, 1, 71, 64
2, 116572, Note_off_c, 1, 79, 64
2, 116604, Note_on_c, 1, 78, 81
2, 116604, Note_on_c, 1, 69, 88
2, 116640, Note_off_c, 1, 78, 64
2, 116652, Note_off_c, 1, 69, 64
2, 116696, Note_on_c, 1, 61, 60
2, 116704, Note_on_c, 1, 57, 61
2, 116716, Note_on_c, 1, 76, 86
2, 116716, Control_c, 1, 64, 0
2, 116720, Note_on_c, 1, 67, 91
2, 116724, Note_off_c, 1, 61, 64
2, 116728, Note_off_c, 1, 57, 64
2, 116792, Note_off_c, 1, 76, 64
2, 116804, Note_off_c, 1, 67, 64
2, 116912, Note_on_c, 1, 74, 88
2, 116916, Note_on_c, 1, 62, 78
2, 116916, Note_on_c, 1, 66, 86
2, 116916, Note_on_c, 1, 50, 91
2, 116920, Control_c, 1, 64, 127
2, 116940, Note_off_c, 1, 62, 64
2, 116960, Note_off_c, 1, 74, 64
2, 116960, Note_off_c, 1, 66, 64
2, 116972, Note_off_c, 1, 50, 64
2, 117116, Note_on_c, 1, 45, 76
2, 117120, Note_on_c, 1, 69, 101
2, 117120, Note_on_c, 1, 57, 83
2, 117124, Control_c, 1, 64, 0
2, 117152, Control_c, 1, 64, 127
2, 117204, Note_off_c, 1, 57, 64
2, 117216, Note_off_c, 1, 45, 64
2, 117332, Note_off_c, 1, 69, 64
2, 117340, Note_on_c, 1, 71, 98
2, 117340, Note_on_c, 1, 47, 81
2, 117340, Note_on_c, 1, 59, 75
2, 117364, Control_c, 1, 64, 0
2, 117420, Note_off_c, 1, 59, 64
2, 117424, Note_off_c, 1, 47, 64
2, 117448, Note_on_c, 1, 69, 102
2, 117452, Note_on_c, 1, 57, 71
2, 117452, Note_on_c, 1, 45, 98
2, 117456, Note_off_c, 1, 71, 64
2, 117460, Control_c, 1, 64, 127
2, 117520, Note_off_c, 1, 57, 64
2, 117540, Note_off_c, 1, 45, 64
2, 117656, Note_off_c, 1, 69, 0
2, 117656, Note_on_c, 1, 54, 88
2, 117656, Note_on_c, 1, 42, 68
2, 117656, Note_on_c, 1, 66, 96
2, 117676, Note_off_c, 1, 54, 64
2, 117680, Note_off_c, 1, 42, 64
2, 117760, Note_off_c, 1, 66, 64
2, 117764, Note_on_c, 1, 62, 95
2, 117764, Note_on_c, 1, 38, 105
2, 117772, Note_on_c, 1, 50, 83
2, 117780, Control_c, 1, 64, 0
2, 117820, Control_c, 1, 64, 127
2, 117856, Note_off_c, 1, 62, 64
2, 117876, Note_off_c, 1, 38, 64
2, 117884, Note_off_c, 1, 50, 64
2, 118152, Note_on_c, 1, 57, 69
2, 118156, Note_on_c, 1, 69, 81
2, 118176, Note_on_c, 1, 59, 65
2, 118188, Note_off_c, 1, 69, 64
2, 118188, Note_on_c, 1, 71, 75
2, 118192, Note_on_c, 1, 61, 75
2, 118208, Note_on_c, 1, 73, 88
2, 118216, Note_off_c, 1, 57, 64
2, 118216, Note_off_c, 1, 61, 64
2, 118216, Note_on_c, 1, 62, 93
2, 118216, Note_on_c, 1, 74, 103
2, 118216, Control_c, 1, 64, 0
2, 118232, Note_off_c, 1, 71, 64
2, 118232, Note_off_c, 1, 73, 64
2, 118332, Note_off_c, 1, 59, 64
2, 118332, Control_c, 1, 64, 127
2, 118348, Note_off_c, 1, 74, 64
2, 118360, Note_off_c, 1, 62, 64
2, 118476, Control_c, 1, 64, 0
2, 118760, Note_on_c, 1, 40, 104
2, 118760, Note_on_c, 1, 52, 107
2, 118764, Note_on_c, 1, 81, 109
2, 118764, Note_on_c, 1, 73, 109
2, 118768, Note_on_c, 1, 69, 115
2, 118768, Control_c, 1, 64, 127
2, 118784, Note_off_c, 1, 52, 64
2, 118792, Note_off_c, 1, 40, 64
2, 118816, Note_off_c, 1, 69, 0
2, 118860, Note_off_c, 1, 73, 0
2, 118964, Note_off_c, 1, 81, 0
2, 118992, Note_on_c, 1, 61, 79
2, 118996, Note_on_c, 1, 55, 94
2, 118996, Note_on_c, 1, 57, 88
2, 119000, Note_on_c, 1, 71, 105
2, 119004, Note_off_c, 1, 57, 64
2, 119012, Note_off_c, 1, 61, 64
2, 119016, Note_off_c, 1, 55, 64
2, 119092, Note_off_c, 1, 71, 64
2, 119104, Control_c, 1, 64, 0
2, 119108, Note_on_c, 1, 73, 101
2, 119216, Note_on_c, 1, 33, 91
2, 119220, Note_on_c, 1, 45, 105
2, 119220, Control_c, 1, 64, 127
2, 119236, Note_off_c, 1, 33, 64
2, 119240, Note_off_c, 1, 45, 64
2, 119332, Note_off_c, 1, 73, 64
2, 119336, Note_on_c, 1, 81, 91
2, 119420, Note_off_c, 1, 81, 64
2, 119440, Note_on_c, 1, 79, 91
2, 119440, Note_on_c, 1, 57, 88
2, 119440, Note_on_c, 1, 73, 86
2, 119440, Note_on_c, 1, 61, 79
2, 119444, Note_on_c, 1, 69, 86
2, 119452, Note_on_c, 1, 55, 80
2, 119468, Note_off_c, 1, 61, 64
2, 119472, Note_off_c, 1, 55, 64
2, 119476, Note_off_c, 1, 57, 64
2, 119476, Control_c, 1, 64, 0
2, 119504, Note_off_c, 1, 69, 64
2, 119512, Note_off_c, 1, 79, 64
2, 119512, Note_off_c, 1, 73, 64
2, 119660, Note_on_c, 1, 52, 81
2, 119660, Note_on_c, 1, 40, 90
2, 119660, Note_on_c, 1, 73, 100
2, 119660, Control_c, 1, 64, 127
2, 119664, Note_on_c, 1, 81, 110
2, 119664, Note_on_c, 1, 69, 106
2, 119672, Note_off_c, 1, 40, 64
2, 119680, Note_off_c, 1, 52, 64
2, 119728, Note_off_c, 1, 69, 64
2, 119780, Note_off_c, 1, 73, 64
2, 119812, Note_off_c, 1, 81, 64
2, 119868, Note_on_c, 1, 61, 61
2, 119868, Note_on_c, 1, 55, 86
2, 119872, Note_on_c, 1, 57, 86
2, 119872, Note_on_c, 1, 71, 102
2, 119884, Note_off_c, 1, 61, 64
2, 119884, Note_off_c, 1, 55, 64
2, 119888, Note_off_c, 1, 57, 64
2, 119928, Control_c, 1, 64, 0
2, 119968, Note_off_c, 1, 71, 64
2, 119972, Note_on_c, 1, 73, 107
2, 120080, Note_on_c, 1, 21, 105
2, 120080, Note_on_c, 1, 33, 101
2, 120084, Control_c, 1, 64, 127
2, 120092, Note_off_c, 1, 21, 64
2, 120096, Note_off_c, 1, 33, 64
2, 120180, Note_off_c, 1, 73, 64
2, 120184, Note_on_c, 1, 81, 86
2, 120264, Note_off_c, 1, 81, 0
2, 120280, Note_on_c, 1, 61, 64
2, 120288, Note_on_c, 1, 73, 98
2, 120292, Note_on_c, 1, 79, 105
2, 120292, Note_on_c, 1, 69, 88
2, 120292, Note_on_c, 1, 55, 86
2, 120292, Note_on_c, 1, 57, 81
2, 120300, Note_off_c, 1, 61, 64
2, 120300, Note_off_c, 1, 57, 64
2, 120304, Note_off_c, 1, 55, 64
2, 120484, Note_off_c, 1, 73, 64
2, 120488, Note_off_c, 1, 69, 64
2, 120500, Note_off_c, 1, 79, 64
2, 120504, Note_on_c, 1, 26, 65
2, 120508, Note_on_c, 1, 38, 77
2, 120512, Control_c, 1, 64, 0
2, 120636, Note_off_c, 1, 38, 64
2, 120656, Note_off_c, 1, 26, 64
2, 120708, Note_on_c, 1, 28, 65
2, 120712, Note_on_c, 1, 40, 79
2, 120720, Note_on_c, 1, 81, 80
2, 120720, Note_on_c, 1, 74, 73
2, 120804, Note_off_c, 1, 40, 64
2, 120804, Note_off_c, 1, 74, 64
2, 120820, Note_on_c, 1, 69, 68
2, 120836, Note_off_c, 1, 28, 64
2, 120916, Note_off_c, 1, 81, 64
2, 120916, Note_off_c, 1, 69, 64
2, 120928, Note_on_c, 1, 30, 74
2, 120928, Note_on_c, 1, 42, 85
2, 121004, Control_c, 1, 64, 127
2, 121048, Note_off_c, 1, 42, 64
2, 121080, Note_off_c, 1, 30, 64
2, 121132, Control_c, 1, 64, 0
2, 121140, Note_on_c, 1, 40, 88
2, 121140, Note_on_c, 1, 28, 82
2, 121140, Note_on_c, 1, 81, 90
2, 121148, Note_on_c, 1, 74, 83
2, 121212, Control_c, 1, 64, 127
2, 121224, Note_off_c, 1, 28, 64
2, 121236, Note_on_c, 1, 69, 69
2, 121240, Note_off_c, 1, 40, 64
2, 121300, Note_off_c, 1, 74, 64
2, 121300, Note_off_c, 1, 69, 64
2, 121328, Note_off_c, 1, 81, 64
2, 121336, Note_on_c, 1, 26, 95
2, 121344, Note_on_c, 1, 38, 101
2, 121348, Control_c, 1, 64, 0
2, 121444, Note_on_c, 1, 93, 91
2, 121444, Note_on_c, 1, 86, 81
2, 121460, Note_off_c, 1, 38, 64
2, 121480, Note_off_c, 1, 26, 64
2, 121532, Note_off_c, 1, 86, 64
2, 121544, Note_off_c, 1, 93, 64
2, 121544, Note_on_c, 1, 37, 112
2, 121544, Note_on_c, 1, 25, 108
2, 121628, Control_c, 1, 64, 127
2, 121640, Note_off_c, 1, 37, 0
2, 121640, Note_on_c, 1, 81, 105
2, 121664, Note_off_c, 1, 25, 0
2, 121676, Note_off_c, 1, 81, 64
2, 121756, Note_on_c, 1, 93, 98
2, 121756, Note_on_c, 1, 86, 101
2, 121756, Note_on_c, 1, 23, 109
2, 121760, Note_on_c, 1, 35, 94
2, 121760, Control_c, 1, 64, 0
2, 121828, Control_c, 1, 64, 127
2, 121840, Note_off_c, 1, 23, 64
2, 121844, Note_off_c, 1, 35, 64
2, 121856, Note_off_c, 1, 86, 64
2, 121860, Note_off_c, 1, 93, 64
2, 121968, Note_on_c, 1, 81, 105
2, 121968, Note_on_c, 1, 33, 91
2, 121968, Note_on_c, 1, 45, 98
2, 121988, Note_off_c, 1, 81, 64
2, 122048, Note_off_c, 1, 33, 64
2, 122056, Note_off_c, 1, 45, 64
2, 122116, Control_c, 1, 64, 0
2, 122184, Note_on_c, 1, 35, 105
2, 122184, Note_on_c, 1, 75, 102
2, 122184, Note_on_c, 1, 83, 108
2, 122188, Note_on_c, 1, 71, 101
2, 122188, Note_on_c, 1, 47, 88
2, 122188, Control_c, 1, 64, 127
2, 122208, Note_off_c, 1, 35, 64
2, 122212, Note_off_c, 1, 47, 64
2, 122260, Note_off_c, 1, 75, 64
2, 122408, Note_on_c, 1, 63, 55
2, 122408, Note_on_c, 1, 57, 81
2, 122412, Note_on_c, 1, 73, 104
2, 122412, Note_on_c, 1, 59, 76
2, 122420, Note_off_c, 1, 83, 64
2, 122420, Note_off_c, 1, 59, 64
2, 122424, Note_off_c, 1, 63, 64
2, 122424, Note_off_c, 1, 57, 64
2, 122432, Control_c, 1, 64, 0
2, 122464, Note_off_c, 1, 73, 64
2, 122512, Note_on_c, 1, 75, 109
2, 122620, Note_off_c, 1, 75, 64
2, 122620, Note_on_c, 1, 39, 94
2, 122620, Note_on_c, 1, 51, 105
2, 122620, Control_c, 1, 64, 127
2, 122628, Note_off_c, 1, 39, 64
2, 122636, Note_off_c, 1, 51, 64
2, 122728, Note_on_c, 1, 83, 91
2, 122752, Note_off_c, 1, 71, 64
2, 122796, Note_off_c, 1, 83, 64
2, 122832, Note_on_c, 1, 63, 69
2, 122836, Note_on_c, 1, 81, 101
2, 122836, Note_on_c, 1, 57, 88
2, 122836, Note_on_c, 1, 75, 91
2, 122840, Note_on_c, 1, 71, 88
2, 122840, Note_on_c, 1, 59, 91
2, 122848, Note_off_c, 1, 63, 64
2, 122848, Note_off_c, 1, 57, 64
2, 122848, Note_off_c, 1, 59, 64
2, 122860, Control_c, 1, 64, 0
2, 122892, Note_off_c, 1, 75, 64
2, 122904, Note_off_c, 1, 71, 64
2, 122908, Note_off_c, 1, 81, 64
2, 123048, Note_on_c, 1, 35, 101
2, 123048, Note_on_c, 1, 83, 108
2, 123048, Note_on_c, 1, 75, 110
2, 123052, Note_on_c, 1, 47, 101
2, 123052, Note_on_c, 1, 71, 105
2, 123052, Control_c, 1, 64, 127
2, 123064, Note_off_c, 1, 35, 64
2, 123072, Note_off_c, 1, 47, 64
2, 123092, Note_off_c, 1, 75, 64
2, 123244, Note_off_c, 1, 83, 64
2, 123260, Note_on_c, 1, 63, 59
2, 123264, Note_on_c, 1, 57, 86
2, 123268, Note_on_c, 1, 73, 101
2, 123268, Note_on_c, 1, 59, 86
2, 123268, Control_c, 1, 64, 0
2, 123276, Note_off_c, 1, 63, 64
2, 123284, Note_off_c, 1, 57, 64
2, 123288, Note_off_c, 1, 59, 64
2, 123340, Note_off_c, 1, 73, 64
2, 123372, Note_on_c, 1, 75, 101
2, 123480, Note_off_c, 1, 75, 64
2, 123480, Note_on_c, 1, 39, 92
2, 123480, Note_on_c, 1, 51, 86
2, 123480, Control_c, 1, 64, 127
2, 123492, Note_off_c, 1, 39, 64
2, 123496, Note_off_c, 1, 51, 64
2, 123576, Note_off_c, 1, 71, 64
2, 123576, Note_on_c, 1, 83, 101
2, 123640, Note_off_c, 1, 83, 64
2, 123680, Note_on_c, 1, 63, 76
2, 123684, Note_on_c, 1, 57, 88
2, 123684, Note_on_c, 1, 81, 101
2, 123684, Note_on_c, 1, 75, 105
2, 123684, Note_on_c, 1, 71, 94
2, 123688, Note_on_c, 1, 59, 101
2, 123696, Control_c, 1, 64, 0
2, 123716, Control_c, 1, 64, 127
2, 123744, Note_off_c, 1, 63, 64
2, 123748, Note_off_c, 1, 57, 64
2, 123748, Note_off_c, 1, 59, 64
2, 123784, Note_off_c, 1, 75, 64
2, 123872, Note_off_c, 1, 81, 64
2, 123872, Note_off_c, 1, 71, 64
2, 123884, Note_on_c, 1, 28, 64
2, 123892, Note_on_c, 1, 40, 75
2, 123896, Control_c, 1, 64, 0
2, 123980, Control_c, 1, 64, 127
2, 124016, Note_off_c, 1, 40, 64
2, 124028, Note_off_c, 1, 28, 64
2, 124096, Note_on_c, 1, 30, 69
2, 124096, Control_c, 1, 64, 0
2, 124100, Note_on_c, 1, 42, 81
2, 124104, Note_on_c, 1, 83, 83
2, 124108, Note_on_c, 1, 76, 67
2, 124120, Note_off_c, 1, 76, 64
2, 124164, Note_off_c, 1, 83, 64
2, 124176, Control_c, 1, 64, 127
2, 124196, Note_on_c, 1, 71, 66
2, 124236, Note_off_c, 1, 42, 64
2, 124240, Note_off_c, 1, 30, 64
2, 124308, Note_off_c, 1, 71, 64
2, 124316, Note_on_c, 1, 43, 87
2, 124316, Note_on_c, 1, 31, 77
2, 124316, Control_c, 1, 64, 0
2, 124404, Control_c, 1, 64, 127
2, 124424, Control_c, 1, 64, 0
2, 124440, Control_c, 1, 64, 127
2, 124464, Control_c, 1, 64, 0
2, 124476, Note_off_c, 1, 43, 0
2, 124500, Note_off_c, 1, 31, 0
2, 124504, Note_on_c, 1, 42, 75
2, 124504, Note_on_c, 1, 30, 83
2, 124528, Note_on_c, 1, 83, 94
2, 124528, Note_on_c, 1, 76, 86
2, 124604, Note_off_c, 1, 30, 64
2, 124620, Note_off_c, 1, 76, 64
2, 124620, Control_c, 1, 64, 127
2, 124644, Note_on_c, 1, 71, 76
2, 124680, Note_off_c, 1, 71, 64
2, 124688, Note_off_c, 1, 83, 64
2, 124696, Note_off_c, 1, 42, 64
2, 124752, Note_on_c, 1, 40, 92
2, 124752, Note_on_c, 1, 28, 86
2, 124756, Control_c, 1, 64, 0
2, 124852, Note_on_c, 1, 95, 88
2, 124852, Note_on_c, 1, 88, 83
2, 124872, Control_c, 1, 64, 127
2, 124908, Note_off_c, 1, 28, 64
2, 124912, Note_off_c, 1, 40, 64
2, 124952, Note_off_c, 1, 88, 64
2, 124956, Control_c, 1, 64, 0
2, 124960, Note_off_c, 1, 95, 64
2, 124960, Note_on_c, 1, 26, 93
2, 124964, Note_on_c, 1, 38, 94
2, 125056, Note_on_c, 1, 83, 98
2, 125056, Control_c, 1, 64, 127
2, 125080, Note_off_c, 1, 38, 64
2, 125100, Note_off_c, 1, 26, 64
2, 125140, Note_off_c, 1, 83, 64
2, 125176, Note_on_c, 1, 25, 100
2, 125176, Note_on_c, 1, 37, 106
2, 125176, Control_c, 1, 64, 0
2, 125180, Note_on_c, 1, 95, 94
2, 125180, Note_on_c, 1, 88, 81
2, 125232, Control_c, 1, 64, 127
2, 125248, Note_off_c, 1, 37, 64
2, 125264, Note_off_c, 1, 25, 64
2, 125296, Note_off_c, 1, 88, 64
2, 125364, Note_off_c, 1, 95, 64
2, 125380, Control_c, 1, 64, 0
2, 125396, Note_on_c, 1, 23, 95
2, 125404, Note_on_c, 1, 83, 106
2, 125404, Note_on_c, 1, 35, 92
2, 125416, Control_c, 1, 64, 127
2, 125420, Note_off_c, 1, 83, 64
2, 125468, Note_off_c, 1, 23, 64
2, 125472, Note_off_c, 1, 35, 64
2, 125584, Control_c, 1, 64, 0
2, 125660, Note_on_c, 1, 40, 91
2, 125660, Note_on_c, 1, 85, 96
2, 125660, Note_on_c, 1, 52, 91
2, 125664, Note_on_c, 1, 73, 85
2, 125664, Note_on_c, 1, 79, 90
2, 125664, Control_c, 1, 64, 127
2, 125684, Note_off_c, 1, 40, 64
2, 125692, Note_off_c, 1, 52, 64
2, 125736, Note_off_c, 1, 73, 64
2, 125740, Note_off_c, 1, 85, 64
2, 125756, Note_on_c, 1, 84, 89
2, 125764, Note_on_c, 1, 72, 75
2, 125792, Note_off_c, 1, 72, 64
2, 125800, Note_off_c, 1, 84, 64
2, 125868, Note_on_c, 1, 67, 69
2, 125872, Note_on_c, 1, 57, 75
2, 125872, Note_on_c, 1, 61, 60
2, 125872, Note_on_c, 1, 85, 84
2, 125872, Note_on_c, 1, 73, 72
2, 125880, Note_off_c, 1, 67, 64
2, 125880, Note_off_c, 1, 61, 64
2, 125888, Note_off_c, 1, 57, 64
2, 125900, Note_off_c, 1, 73, 64
2, 125900, Control_c, 1, 64, 0
2, 125924, Note_off_c, 1, 85, 64
2, 125972, Note_on_c, 1, 88, 74
2, 125980, Note_on_c, 1, 76, 69
2, 126064, Note_on_c, 1, 33, 81
2, 126072, Note_on_c, 1, 45, 71
2, 126080, Note_off_c, 1, 88, 0
2, 126080, Control_c, 1, 64, 127
2, 126084, Note_off_c, 1, 76, 0
2, 126084, Note_off_c, 1, 33, 64
2, 126092, Note_off_c, 1, 45, 64
2, 126176, Note_on_c, 1, 85, 75
2, 126180, Note_on_c, 1, 73, 94
2, 126276, Note_off_c, 1, 85, 64
2, 126284, Note_off_c, 1, 73, 64
2, 126288, Note_off_c, 1, 79, 0
2, 126288, Note_on_c, 1, 67, 71
2, 126292, Note_on_c, 1, 57, 71
2, 126292, Note_on_c, 1, 61, 56
2, 126308, Note_off_c, 1, 67, 64
2, 126308, Note_off_c, 1, 57, 64
2, 126308, Note_off_c, 1, 61, 64
2, 126388, Note_on_c, 1, 69, 71
2, 126388, Note_on_c, 1, 81, 86
2, 126456, Control_c, 1, 64, 0
2, 126500, Note_on_c, 1, 40, 83
2, 126504, Note_off_c, 1, 69, 64
2, 126504, Note_on_c, 1, 52, 71
2, 126504, Control_c, 1, 64, 127
2, 126516, Note_off_c, 1, 81, 64
2, 126516, Note_off_c, 1, 40, 64
2, 126516, Note_off_c, 1, 52, 64
2, 126608, Note_on_c, 1, 83, 76
2, 126616, Note_on_c, 1, 71, 73
2, 126628, Note_on_c, 1, 71, 67
2, 126628, Note_on_c, 1, 83, 67
2, 126704, Note_off_c, 1, 71, 64
2, 126704, Note_off_c, 1, 71, 64
2, 126712, Note_off_c, 1, 83, 64
2, 126712, Note_off_c, 1, 83, 64
2, 126716, Note_on_c, 1, 57, 66
2, 126716, Note_on_c, 1, 67, 67
2, 126720, Note_on_c, 1, 61, 51
2, 126736, Note_off_c, 1, 67, 64
2, 126740, Note_off_c, 1, 57, 64
2, 126744, Note_off_c, 1, 61, 64
2, 126828, Note_on_c, 1, 82, 67
2, 126828, Note_on_c, 1, 70, 65
2, 126852, Note_off_c, 1, 82, 64
2, 126852, Note_off_c, 1, 70, 64
2, 126928, Control_c, 1, 64, 0
2, 126932, Note_on_c, 1, 83, 75
2, 126932, Note_on_c, 1, 52, 69
2, 126936, Note_on_c, 1, 71, 59
2, 126956, Note_off_c, 1, 52, 64
2, 126956, Control_c, 1, 64, 127
2, 127152, Note_on_c, 1, 67, 64
2, 127152, Note_on_c, 1, 57, 64
2, 127160, Note_on_c, 1, 61, 36
2, 127180, Note_off_c, 1, 67, 64
2, 127188, Note_off_c, 1, 57, 64
2, 127188, Note_off_c, 1, 61, 64
2, 127224, Note_off_c, 1, 71, 64
2, 127228, Note_off_c, 1, 83, 64
2, 127316, Control_c, 1, 64, 0
2, 127348, Note_on_c, 1, 50, 64
2, 127360, Control_c, 1, 64, 127
2, 127372, Note_off_c, 1, 50, 64
2, 127384, Note_on_c, 1, 83, 76
2, 127384, Note_on_c, 1, 78, 66
2, 127388, Note_on_c, 1, 71, 65
2, 127416, Note_off_c, 1, 71, 64
2, 127428, Note_off_c, 1, 83, 0
2, 127476, Note_on_c, 1, 82, 68
2, 127488, Note_on_c, 1, 70, 65
2, 127524, Note_off_c, 1, 70, 64
2, 127540, Note_off_c, 1, 82, 64
2, 127576, Note_on_c, 1, 57, 73
2, 127576, Note_on_c, 1, 66, 61
2, 127584, Note_on_c, 1, 62, 65
2, 127592, Note_off_c, 1, 62, 64
2, 127592, Note_on_c, 1, 83, 64
2, 127596, Note_off_c, 1, 66, 64
2, 127596, Note_on_c, 1, 71, 59
2, 127600, Note_off_c, 1, 57, 64
2, 127620, Note_off_c, 1, 83, 64
2, 127628, Note_off_c, 1, 71, 64
2, 127696, Note_on_c, 1, 86, 64
2, 127696, Note_on_c, 1, 74, 53
2, 127704, Control_c, 1, 64, 0
2, 127788, Control_c, 1, 64, 127
2, 127796, Note_on_c, 1, 45, 78
2, 127812, Note_off_c, 1, 86, 64
2, 127812, Note_off_c, 1, 74, 64
2, 127812, Note_off_c, 1, 45, 64
2, 127912, Note_on_c, 1, 83, 69
2, 127920, Note_on_c, 1, 71, 53
2, 127976, Note_off_c, 1, 83, 64
2, 127984, Note_off_c, 1, 71, 64
2, 127988, Note_off_c, 1, 78, 0
2, 128012, Note_on_c, 1, 57, 60
2, 128012, Note_on_c, 1, 66, 64
2, 128012, Note_on_c, 1, 62, 60
2, 128024, Note_off_c, 1, 57, 64
2, 128032, Note_off_c, 1, 62, 64
2, 128036, Note_off_c, 1, 66, 64
2, 128116, Note_on_c, 1, 66, 63
2, 128116, Note_on_c, 1, 78, 75
2, 128188, Control_c, 1, 64, 0
2, 128224, Control_c, 1, 64, 127
2, 128228, Note_off_c, 1, 66, 64
2, 128228, Note_off_c, 1, 78, 64
2, 128228, Note_on_c, 1, 50, 68
2, 128248, Note_off_c, 1, 50, 64
2, 128332, Note_on_c, 1, 81, 81
2, 128332, Note_on_c, 1, 78, 64
2, 128332, Note_on_c, 1, 69, 69
2, 128432, Note_off_c, 1, 81, 64
2, 128436, Note_off_c, 1, 69, 64
2, 128440, Note_off_c, 1, 78, 64
2, 128444, Note_on_c, 1, 66, 62
2, 128444, Note_on_c, 1, 57, 66
2, 128444, Note_on_c, 1, 62, 69
2, 128468, Note_off_c, 1, 66, 64
2, 128472, Note_off_c, 1, 57, 64
2, 128472, Note_off_c, 1, 62, 64
2, 128540, Note_on_c, 1, 68, 65
2, 128540, Note_on_c, 1, 80, 69
2, 128560, Note_off_c, 1, 68, 64
2, 128588, Note_off_c, 1, 80, 64
2, 128628, Control_c, 1, 64, 0
2, 128648, Note_on_c, 1, 45, 69
2, 128656, Note_on_c, 1, 81, 75
2, 128660, Note_on_c, 1, 78, 64
2, 128660, Control_c, 1, 64, 127
2, 128664, Note_on_c, 1, 69, 62
2, 128672, Note_off_c, 1, 45, 64
2, 128756, Note_off_c, 1, 78, 64
2, 128768, Note_off_c, 1, 81, 64
2, 128768, Note_off_c, 1, 69, 64
2, 128868, Note_on_c, 1, 57, 81
2, 128868, Note_on_c, 1, 66, 63
2, 128868, Note_on_c, 1, 62, 71
2, 128868, Note_on_c, 1, 78, 76
2, 128876, Note_on_c, 1, 69, 73
2, 128884, Control_c, 1, 64, 0
2, 128892, Control_c, 1, 64, 127
2, 128928, Note_off_c, 1, 57, 64
2, 128960, Note_off_c, 1, 66, 64
2, 128960, Note_off_c, 1, 69, 64
2, 128976, Note_off_c, 1, 62, 64
2, 128980, Note_off_c, 1, 78, 64
2, 129084, Note_on_c, 1, 55, 69
2, 129084, Control_c, 1, 64, 0
2, 129092, Note_on_c, 1, 67, 64
2, 129096, Note_on_c, 1, 76, 76
2, 129100, Note_on_c, 1, 71, 68
2, 129124, Note_off_c, 1, 76, 64
2, 129132, Note_off_c, 1, 71, 64
2, 129144, Note_off_c, 1, 67, 64
2, 129156, Note_off_c, 1, 55, 64
2, 129300, Note_on_c, 1, 66, 75
2, 129300, Note_on_c, 1, 78, 64
2, 129300, Note_on_c, 1, 54, 71
2, 129308, Note_on_c, 1, 71, 68
2, 129328, Note_off_c, 1, 66, 64
2, 129332, Note_off_c, 1, 78, 64
2, 129332, Note_off_c, 1, 54, 64
2, 129332, Note_off_c, 1, 71, 64
2, 129504, Note_on_c, 1, 52, 66
2, 129508, Note_on_c, 1, 64, 62
2, 129508, Note_on_c, 1, 79, 71
2, 129516, Note_on_c, 1, 71, 60
2, 129532, Note_off_c, 1, 79, 64
2, 129536, Note_off_c, 1, 71, 64
2, 129596, Note_off_c, 1, 52, 64
2, 129608, Note_off_c, 1, 64, 64
2, 129628, Note_on_c, 1, 83, 78
2, 129636, Note_on_c, 1, 71, 73
2, 129688, Note_off_c, 1, 83, 64
2, 129708, Note_off_c, 1, 71, 64
2, 129728, Note_on_c, 1, 55, 69
2, 129728, Note_on_c, 1, 59, 71
2, 129732, Note_on_c, 1, 64, 68
2, 129752, Note_off_c, 1, 59, 64
2, 129752, Note_off_c, 1, 64, 64
2, 129764, Note_off_c, 1, 55, 64
2, 129824, Note_on_c, 1, 79, 68
2, 129824, Note_on_c, 1, 71, 66
2, 129844, Note_off_c, 1, 79, 64
2, 129844, Note_off_c, 1, 71, 64
2, 129936, Note_on_c, 1, 45, 88
2, 129944, Note_on_c, 1, 78, 73
2, 129944, Note_on_c, 1, 69, 73
2, 129944, Control_c, 1, 64, 127
2, 129952, Note_off_c, 1, 45, 64
2, 130028, Note_off_c, 1, 78, 64
2, 130036, Note_off_c, 1, 69, 64
2, 130144, Note_on_c, 1, 57, 73
2, 130156, Note_on_c, 1, 62, 67
2, 130156, Note_on_c, 1, 66, 61
2, 130156, Note_on_c, 1, 68, 64
2, 130156, Note_on_c, 1, 77, 81
2, 130160, Control_c, 1, 64, 0
2, 130168, Note_off_c, 1, 62, 64
2, 130172, Note_off_c, 1, 57, 64
2, 130180, Note_off_c, 1, 66, 64
2, 130204, Note_off_c, 1, 68, 0
2, 130228, Note_off_c, 1, 77, 0
2, 130248, Note_on_c, 1, 78, 73
2, 130252, Note_on_c, 1, 69, 73
2, 130320, Note_off_c, 1, 69, 64
2, 130340, Note_off_c, 1, 78, 64
2, 130340, Note_on_c, 1, 45, 66
2, 130360, Note_off_c, 1, 45, 64
2, 130368, Note_on_c, 1, 79, 75
2, 130368, Note_on_c, 1, 71, 66
2, 130368, Control_c, 1, 64, 127
2, 130404, Note_off_c, 1, 71, 64
2, 130412, Note_off_c, 1, 79, 64
2, 130452, Note_on_c, 1, 78, 65
2, 130452, Control_c, 1, 64, 0
2, 130460, Note_on_c, 1, 69, 65
2, 130492, Note_off_c, 1, 78, 64
2, 130496, Note_off_c, 1, 69, 64
2, 130560, Note_on_c, 1, 57, 76
2, 130560, Note_on_c, 1, 61, 62
2, 130564, Note_on_c, 1, 76, 63
2, 130568, Note_on_c, 1, 67, 64
2, 130584, Note_off_c, 1, 61, 64
2, 130588, Note_off_c, 1, 57, 64
2, 130588, Control_c, 1, 64, 127
2, 130620, Note_off_c, 1, 76, 64
2, 130636, Note_off_c, 1, 67, 64
2, 130680, Control_c, 1, 64, 0
2, 130788, Note_on_c, 1, 50, 56
2, 130788, Note_on_c, 1, 74, 73
2, 130788, Note_on_c, 1, 62, 60
2, 130788, Note_on_c, 1, 66, 60
2, 130800, Control_c, 1, 64, 127
2, 130824, Note_off_c, 1, 74, 64
2, 130828, Note_off_c, 1, 66, 64
2, 130868, Note_off_c, 1, 62, 64
2, 130884, Note_off_c, 1, 50, 64
2, 130992, Control_c, 1, 64, 0
2, 131004, Note_on_c, 1, 45, 68
2, 131008, Note_on_c, 1, 69, 76
2, 131008, Note_on_c, 1, 57, 60
2, 131036, Control_c, 1, 64, 127
2, 131064, Note_off_c, 1, 45, 64
2, 131068, Note_off_c, 1, 69, 64
2, 131068, Note_off_c, 1, 57, 64
2, 131188, Note_on_c, 1, 70, 60
2, 131192, Note_on_c, 1, 58, 59
2, 131192, Note_on_c, 1, 46, 57
2, 131204, Note_on_c, 1, 71, 64
2, 131216, Note_off_c, 1, 70, 64
2, 131224, Note_off_c, 1, 58, 64
2, 131224, Control_c, 1, 64, 0
2, 131228, Note_off_c, 1, 46, 64
2, 131232, Note_on_c, 1, 47, 71
2, 131240, Note_on_c, 1, 59, 45
2, 131284, Note_off_c, 1, 47, 64
2, 131284, Note_off_c, 1, 59, 64
2, 131336, Note_on_c, 1, 57, 69
2, 131344, Note_off_c, 1, 71, 64
2, 131344, Note_on_c, 1, 45, 78
2, 131344, Note_on_c, 1, 69, 81
2, 131376, Control_c, 1, 64, 127
2, 131424, Note_off_c, 1, 57, 64
2, 131432, Note_off_c, 1, 45, 64
2, 131460, Control_c, 1, 64, 0
2, 131536, Note_on_c, 1, 54, 64
2, 131540, Note_on_c, 1, 42, 64
2, 131552, Note_on_c, 1, 66, 66
2, 131564, Note_off_c, 1, 54, 64
2, 131564, Note_off_c, 1, 42, 64
2, 131568, Note_off_c, 1, 69, 64
2, 131584, Note_off_c, 1, 66, 64
2, 131680, Note_on_c, 1, 62, 63
2, 131680, Note_on_c, 1, 38, 40
2, 131688, Control_c, 1, 64, 127
2, 131700, Note_on_c, 1, 50, 58
2, 131728, Note_off_c, 1, 62, 64
2, 131740, Note_off_c, 1, 38, 64
2, 131740, Note_off_c, 1, 50, 64
2, 132048, Note_on_c, 1, 57, 35
2, 132052, Note_on_c, 1, 69, 64
2, 132084, Note_on_c, 1, 59, 41
2, 132084, Note_on_c, 1, 71, 59
2, 132092, Control_c, 1, 64, 0
2, 132096, Note_off_c, 1, 69, 64
2, 132096, Note_on_c, 1, 73, 63
2, 132108, Note_off_c, 1, 57, 64
2, 132124, Note_off_c, 1, 71, 64
2, 132124, Note_on_c, 1, 61, 34
2, 132136, Note_off_c, 1, 59, 64
2, 132136, Note_on_c, 1, 74, 88
2, 132140, Note_off_c, 1, 61, 64
2, 132140, Note_on_c, 1, 62, 42
2, 132156, Note_off_c, 1, 73, 64
2, 132220, Control_c, 1, 64, 127
2, 132248, Note_off_c, 1, 74, 64
2, 132272, Note_off_c, 1, 62, 64
2, 132440, Control_c, 1, 64, 0
2, 132620, Note_on_c, 1, 45, 61
2, 132620, Control_c, 1, 64, 127
2, 132624, Note_on_c, 1, 70, 81
2, 132644, Note_off_c, 1, 45, 64
2, 132692, Note_off_c, 1, 70, 64
2, 132732, Note_on_c, 1, 74, 60
2, 132732, Note_on_c, 1, 71, 49
2, 132772, Note_off_c, 1, 71, 64
2, 132784, Note_off_c, 1, 74, 64
2, 132820, Note_on_c, 1, 50, 68
2, 132824, Note_on_c, 1, 54, 64
2, 132828, Note_on_c, 1, 60, 59
2, 132828, Control_c, 1, 64, 0
2, 132844, Note_off_c, 1, 50, 64
2, 132848, Note_off_c, 1, 54, 64
2, 132852, Note_off_c, 1, 60, 64
2, 132924, Note_on_c, 1, 66, 76
2, 133028, Control_c, 1, 64, 127
2, 133032, Note_on_c, 1, 38, 62
2, 133040, Note_on_c, 1, 72, 67
2, 133044, Note_off_c, 1, 38, 64
2, 133044, Note_on_c, 1, 69, 62
2, 133048, Note_off_c, 1, 66, 64
2, 133060, Note_off_c, 1, 69, 64
2, 133064, Note_off_c, 1, 72, 64
2, 133212, Control_c, 1, 64, 0
2, 133244, Note_on_c, 1, 70, 80
2, 133248, Note_on_c, 1, 60, 52
2, 133252, Note_on_c, 1, 54, 58
2, 133260, Note_on_c, 1, 50, 59
2, 133276, Note_off_c, 1, 54, 64
2, 133280, Note_off_c, 1, 60, 64
2, 133280, Note_off_c, 1, 50, 64
2, 133360, Note_on_c, 1, 74, 58
2, 133364, Note_on_c, 1, 71, 35
2, 133372, Note_off_c, 1, 70, 0
2, 133440, Note_off_c, 1, 71, 64
2, 133448, Note_off_c, 1, 74, 64
2, 133448, Control_c, 1, 64, 127
2, 133452, Note_on_c, 1, 45, 76
2, 133464, Note_off_c, 1, 45, 64
2, 133548, Note_on_c, 1, 66, 73
2, 133596, Control_c, 1, 64, 0
2, 133644, Note_off_c, 1, 66, 64
2, 133656, Note_on_c, 1, 50, 64
2, 133660, Note_on_c, 1, 54, 58
2, 133660, Note_on_c, 1, 60, 55
2, 133660, Note_on_c, 1, 72, 71
2, 133660, Note_on_c, 1, 69, 57
2, 133676, Control_c, 1, 64, 0
2, 133680, Note_off_c, 1, 50, 64
2, 133680, Note_off_c, 1, 54, 64
2, 133680, Note_off_c, 1, 60, 64
2, 133704, Note_off_c, 1, 69, 64
2, 133764, Note_off_c, 1, 72, 64
2, 133764, Note_on_c, 1, 70, 71
2, 133832, Note_off_c, 1, 70, 64
2, 133872, Note_on_c, 1, 38, 58
2, 133872, Note_on_c, 1, 74, 80
2, 133872, Control_c, 1, 64, 127
2, 133880, Note_on_c, 1, 71, 76
2, 133888, Note_off_c, 1, 38, 64
2, 134004, Note_off_c, 1, 71, 64
2, 134008, Note_off_c, 1, 74, 64
2, 134084, Note_on_c, 1, 54, 57
2, 134088, Note_on_c, 1, 60, 57
2, 134092, Note_on_c, 1, 50, 53
2, 134092, Note_on_c, 1, 69, 83
2, 134092, Note_on_c, 1, 72, 83
2, 134104, Note_off_c, 1, 54, 64
2, 134104, Note_off_c, 1, 60, 64
2, 134104, Note_off_c, 1, 50, 64
2, 134156, Note_off_c, 1, 69, 64
2, 134164, Note_off_c, 1, 72, 64
2, 134296, Note_on_c, 1, 43, 71
2, 134308, Note_on_c, 1, 70, 85
2, 134308, Control_c, 1, 64, 0
2, 134316, Note_off_c, 1, 43, 64
2, 134408, Note_on_c, 1, 74, 55
2, 134408, Note_on_c, 1, 71, 57
2, 134456, Note_off_c, 1, 70, 64
2, 134472, Note_off_c, 1, 71, 64
2, 134492, Note_off_c, 1, 74, 64
2, 134512, Note_on_c, 1, 50, 66
2, 134512, Note_on_c, 1, 59, 59
2, 134524, Note_off_c, 1, 59, 64
2, 134532, Note_off_c, 1, 50, 64
2, 134604, Note_on_c, 1, 62, 70
2, 134704, Note_on_c, 1, 38, 53
2, 134712, Note_on_c, 1, 67, 47
2, 134716, Note_off_c, 1, 38, 64
2, 134716, Note_on_c, 1, 71, 60
2, 134716, Control_c, 1, 64, 127
2, 134728, Note_off_c, 1, 62, 0
2, 134748, Note_off_c, 1, 67, 64
2, 134772, Note_off_c, 1, 71, 64
2, 134892, Control_c, 1, 64, 0
2, 134896, Note_on_c, 1, 70, 74
2, 134900, Note_on_c, 1, 55, 60
2, 134908, Note_on_c, 1, 50, 60
2, 134908, Note_on_c, 1, 59, 48
2, 134940, Control_c, 1, 64, 127
2, 134948, Note_off_c, 1, 50, 64
2, 134948, Note_off_c, 1, 59, 64
2, 134952, Note_off_c, 1, 55, 64
2, 135000, Note_off_c, 1, 70, 64
2, 135008, Note_on_c, 1, 74, 64
2, 135008, Note_on_c, 1, 71, 59
2, 135068, Note_off_c, 1, 71, 64
2, 135084, Note_off_c, 1, 74, 64
2, 135104, Control_c, 1, 64, 0
2, 135108, Note_on_c, 1, 43, 60
2, 135168, Control_c, 1, 64, 127
2, 135204, Note_off_c, 1, 43, 64
2, 135212, Note_on_c, 1, 62, 62
2, 135312, Control_c, 1, 64, 0
2, 135316, Note_on_c, 1, 67, 58
2, 135320, Note_on_c, 1, 55, 55
2, 135320, Note_on_c, 1, 50, 52
2, 135352, Note_off_c, 1, 55, 64
2, 135360, Note_off_c, 1, 50, 64
2, 135412, Note_on_c, 1, 69, 65
2, 135416, Note_off_c, 1, 67, 64
2, 135520, Note_on_c, 1, 38, 51
2, 135532, Note_off_c, 1, 69, 64
2, 135532, Note_on_c, 1, 71, 69
2, 135536, Control_c, 1, 64, 127
2, 135544, Note_off_c, 1, 38, 64
2, 135616, Note_off_c, 1, 71, 64
2, 135628, Note_on_c, 1, 69, 75
2, 135704, Control_c, 1, 64, 0
2, 135708, Note_on_c, 1, 50, 58
2, 135720, Note_on_c, 1, 55, 51
2, 135720, Note_on_c, 1, 59, 57
2, 135736, Note_off_c, 1, 69, 64
2, 135736, Note_on_c, 1, 67, 80
2, 135744, Note_off_c, 1, 62, 64
2, 135764, Control_c, 1, 64, 127
2, 135768, Note_off_c, 1, 59, 64
2, 135772, Note_off_c, 1, 55, 64
2, 135784, Note_off_c, 1, 50, 64
2, 135832, Note_on_c, 1, 62, 81
2, 135924, Note_off_c, 1, 62, 64
2, 135928, Note_off_c, 1, 67, 64
2, 135928, Note_on_c, 1, 45, 93
2, 135940, Note_off_c, 1, 45, 64
2, 135940, Control_c, 1, 64, 0
2, 136144, Note_on_c, 1, 54, 60
2, 136144, Note_on_c, 1, 78, 75
2, 136148, Note_on_c, 1, 60, 58
2, 136148, Note_on_c, 1, 66, 94
2, 136148, Note_on_c, 1, 50, 48
2, 136160, Note_off_c, 1, 60, 64
2, 136164, Note_off_c, 1, 54, 64
2, 136172, Note_off_c, 1, 50, 64
2, 136348, Note_on_c, 1, 38, 78
2, 136364, Note_off_c, 1, 38, 64
2, 136456, Note_on_c, 1, 72, 66
2, 136484, Note_off_c, 1, 78, 64
2, 136548, Note_off_c, 1, 72, 64
2, 136552, Note_on_c, 1, 74, 76
2, 136556, Note_off_c, 1, 66, 64
2, 136556, Note_on_c, 1, 50, 62
2, 136556, Note_on_c, 1, 54, 56
2, 136560, Note_off_c, 1, 74, 64
2, 136584, Note_off_c, 1, 50, 64
2, 136584, Note_off_c, 1, 54, 64
2, 136652, Note_on_c, 1, 78, 75
2, 136652, Note_on_c, 1, 66, 69
2, 136676, Note_off_c, 1, 78, 64
2, 136676, Note_off_c, 1, 66, 64
2, 136756, Note_on_c, 1, 45, 86
2, 136768, Note_off_c, 1, 45, 64
2, 136856, Note_on_c, 1, 66, 64
2, 136956, Note_on_c, 1, 72, 66
2, 136956, Note_on_c, 1, 50, 63
2, 136964, Note_on_c, 1, 54, 53
2, 136984, Note_off_c, 1, 50, 64
2, 136984, Note_off_c, 1, 54, 64
2, 137044, Note_off_c, 1, 72, 64
2, 137072, Note_on_c, 1, 74, 71
2, 137140, Note_on_c, 1, 38, 59
2, 137164, Note_off_c, 1, 66, 64
2, 137164, Note_off_c, 1, 74, 64
2, 137164, Note_off_c, 1, 38, 64
2, 137180, Note_on_c, 1, 78, 74
2, 137272, Note_on_c, 1, 74, 76
2, 137280, Note_off_c, 1, 78, 64
2, 137372, Note_off_c, 1, 74, 0
2, 137372, Note_on_c, 1, 54, 61
2, 137372, Note_on_c, 1, 50, 66
2, 137376, Note_on_c, 1, 72, 68
2, 137392, Note_off_c, 1, 54, 64
2, 137400, Note_off_c, 1, 50, 64
2, 137480, Note_on_c, 1, 69, 61
2, 137564, Note_on_c, 1, 43, 81
2, 137572, Control_c, 1, 64, 127
2, 137576, Note_off_c, 1, 72, 64
2, 137584, Note_off_c, 1, 43, 64
2, 137588, Note_off_c, 1, 69, 64
2, 137776, Note_on_c, 1, 50, 60
2, 137776, Note_on_c, 1, 59, 67
2, 137776, Note_on_c, 1, 55, 61
2, 137776, Note_on_c, 1, 76, 75
2, 137776, Note_on_c, 1, 67, 76
2, 137776, Control_c, 1, 64, 0
2, 137784, Note_off_c, 1, 50, 64
2, 137784, Note_off_c, 1, 59, 64
2, 137784, Note_on_c, 1, 71, 60
2, 137788, Note_off_c, 1, 55, 64
2, 137988, Note_on_c, 1, 38, 69
2, 137992, Note_off_c, 1, 71, 64
2, 138000, Note_off_c, 1, 38, 64
2, 138092, Note_on_c, 1, 71, 71
2, 138096, Note_off_c, 1, 76, 64
2, 138188, Note_on_c, 1, 50, 64
2, 138196, Note_on_c, 1, 55, 64
2, 138200, Note_off_c, 1, 71, 64
2, 138200, Note_on_c, 1, 59, 60
2, 138212, Note_off_c, 1, 50, 64
2, 138212, Note_off_c, 1, 55, 64
2, 138212, Note_on_c, 1, 74, 69
2, 138220, Note_off_c, 1, 59, 64
2, 138228, Note_off_c, 1, 74, 64
2, 138316, Note_on_c, 1, 76, 71
2, 138396, Note_on_c, 1, 43, 69
2, 138400, Control_c, 1, 64, 127
2, 138412, Note_off_c, 1, 67, 64
2, 138412, Note_off_c, 1, 43, 64
2, 138424, Note_off_c, 1, 76, 64
2, 138504, Note_on_c, 1, 67, 66
2, 138600, Note_on_c, 1, 50, 65
2, 138608, Note_on_c, 1, 71, 64
2, 138608, Note_on_c, 1, 55, 64
2, 138608, Note_on_c, 1, 59, 63
2, 138616, Control_c, 1, 64, 0
2, 138628, Note_off_c, 1, 50, 64
2, 138632, Note_off_c, 1, 55, 64
2, 138632, Note_off_c, 1, 59, 64
2, 138660, Note_off_c, 1, 71, 0
2, 138712, Note_on_c, 1, 74, 71
2, 138804, Note_on_c, 1, 38, 69
2, 138820, Note_off_c, 1, 74, 64
2, 138820, Note_on_c, 1, 76, 76
2, 138820, Control_c, 1, 64, 127
2, 138828, Note_off_c, 1, 38, 64
2, 138912, Note_off_c, 1, 76, 64
2, 138920, Note_on_c, 1, 74, 81
2, 139008, Note_on_c, 1, 50, 62
2, 139012, Note_on_c, 1, 59, 62
2, 139012, Note_on_c, 1, 55, 63
2, 139032, Note_off_c, 1, 50, 64
2, 139032, Note_off_c, 1, 59, 64
2, 139032, Note_off_c, 1, 55, 64
2, 139036, Note_off_c, 1, 67, 0
2, 139040, Note_on_c, 1, 71, 76
2, 139120, Note_off_c, 1, 71, 64
2, 139128, Note_on_c, 1, 67, 82
2, 139208, Note_off_c, 1, 67, 64
2, 139212, Note_off_c, 1, 74, 64
2, 139220, Note_on_c, 1, 45, 64
2, 139244, Control_c, 1, 64, 0
2, 139252, Note_on_c, 1, 70, 66
2, 139364, Note_on_c, 1, 71, 65
2, 139364, Note_on_c, 1, 74, 75
2, 139380, Note_off_c, 1, 70, 64
2, 139380, Control_c, 1, 64, 127
2, 139432, Note_off_c, 1, 71, 64
2, 139432, Note_off_c, 1, 74, 64
2, 139460, Note_on_c, 1, 50, 60
2, 139464, Note_on_c, 1, 54, 57
2, 139472, Note_on_c, 1, 60, 54
2, 139488, Note_off_c, 1, 54, 64
2, 139488, Note_off_c, 1, 60, 64
2, 139492, Note_off_c, 1, 50, 64
2, 139508, Note_off_c, 1, 45, 64
2, 139552, Note_on_c, 1, 66, 65
2, 139584, Control_c, 1, 64, 0
2, 139644, Note_on_c, 1, 38, 65
2, 139656, Note_off_c, 1, 66, 64
2, 139660, Control_c, 1, 64, 127
2, 139664, Note_off_c, 1, 38, 64
2, 139664, Note_on_c, 1, 72, 64
2, 139668, Note_on_c, 1, 69, 69
2, 139716, Note_off_c, 1, 69, 64
2, 139724, Note_off_c, 1, 72, 64
2, 139844, Note_on_c, 1, 54, 54
2, 139844, Note_on_c, 1, 50, 56
2, 139848, Note_on_c, 1, 60, 56
2, 139852, Note_on_c, 1, 70, 71
2, 139864, Note_off_c, 1, 60, 64
2, 139872, Note_off_c, 1, 54, 64
2, 139872, Control_c, 1, 64, 0
2, 139876, Note_off_c, 1, 50, 64
2, 139956, Note_off_c, 1, 70, 64
2, 139956, Note_on_c, 1, 74, 64
2, 139956, Note_on_c, 1, 71, 64
2, 140036, Note_off_c, 1, 71, 0
2, 140040, Note_off_c, 1, 74, 0
2, 140048, Note_on_c, 1, 45, 64
2, 140048, Control_c, 1, 64, 127
2, 140072, Note_off_c, 1, 45, 64
2, 140148, Note_on_c, 1, 66, 64
2, 140240, Note_off_c, 1, 66, 64
2, 140252, Note_on_c, 1, 54, 50
2, 140252, Note_on_c, 1, 72, 67
2, 140252, Note_on_c, 1, 50, 55
2, 140252, Note_on_c, 1, 69, 67
2, 140260, Note_on_c, 1, 60, 58
2, 140264, Control_c, 1, 64, 0
2, 140272, Note_off_c, 1, 69, 64
2, 140272, Note_off_c, 1, 60, 64
2, 140280, Note_off_c, 1, 54, 64
2, 140280, Note_off_c, 1, 72, 64
2, 140280, Note_off_c, 1, 50, 64
2, 140348, Note_on_c, 1, 70, 81
2, 140452, Note_off_c, 1, 70, 64
2, 140456, Note_on_c, 1, 38, 64
2, 140464, Note_on_c, 1, 74, 71
2, 140464, Note_on_c, 1, 71, 67
2, 140464, Control_c, 1, 64, 127
2, 140476, Note_off_c, 1, 38, 64
2, 140580, Note_off_c, 1, 71, 64
2, 140600, Note_off_c, 1, 74, 64
2, 140672, Note_on_c, 1, 60, 60
2, 140676, Note_on_c, 1, 50, 63
2, 140676, Note_on_c, 1, 54, 48
2, 140676, Note_on_c, 1, 69, 81
2, 140676, Note_on_c, 1, 72, 69
2, 140692, Note_off_c, 1, 60, 64
2, 140696, Note_off_c, 1, 50, 64
2, 140696, Note_off_c, 1, 54, 64
2, 140724, Note_off_c, 1, 69, 64
2, 140744, Note_off_c, 1, 72, 64
2, 140860, Control_c, 1, 64, 0
2, 140880, Note_on_c, 1, 70, 78
2, 140880, Note_on_c, 1, 43, 81
2, 140904, Note_off_c, 1, 43, 64
2, 140904, Control_c, 1, 64, 127
2, 140984, Note_on_c, 1, 71, 64
2, 140984, Note_on_c, 1, 74, 38
2, 140996, Note_off_c, 1, 70, 64
2, 141024, Note_off_c, 1, 71, 64
2, 141032, Note_off_c, 1, 74, 64
2, 141088, Note_on_c, 1, 50, 62
2, 141088, Note_on_c, 1, 55, 60
2, 141088, Control_c, 1, 64, 0
2, 141092, Note_on_c, 1, 59, 65
2, 141104, Note_off_c, 1, 55, 64
2, 141112, Note_off_c, 1, 50, 64
2, 141112, Note_off_c, 1, 59, 64
2, 141200, Note_on_c, 1, 62, 76
2, 141296, Note_on_c, 1, 38, 63
2, 141304, Note_on_c, 1, 67, 60
2, 141304, Control_c, 1, 64, 127
2, 141312, Note_off_c, 1, 38, 64
2, 141312, Note_on_c, 1, 71, 58
2, 141320, Note_off_c, 1, 62, 64
2, 141340, Note_off_c, 1, 67, 0
2, 141348, Note_off_c, 1, 71, 0
2, 141496, Note_on_c, 1, 50, 63
2, 141504, Note_on_c, 1, 55, 63
2, 141504, Note_on_c, 1, 59, 63
2, 141504, Note_on_c, 1, 70, 86
2, 141504, Control_c, 1, 64, 0
2, 141516, Note_off_c, 1, 55, 64
2, 141516, Note_off_c, 1, 59, 64
2, 141528, Note_off_c, 1, 50, 64
2, 141604, Note_off_c, 1, 70, 64
2, 141608, Note_on_c, 1, 71, 59
2, 141616, Note_on_c, 1, 74, 55
2, 141700, Note_off_c, 1, 71, 64
2, 141700, Note_on_c, 1, 43, 76
2, 141716, Note_off_c, 1, 74, 64
2, 141724, Note_off_c, 1, 43, 64
2, 141732, Control_c, 1, 64, 127
2, 141816, Note_on_c, 1, 62, 53
2, 141816, Control_c, 1, 64, 0
2, 141904, Note_on_c, 1, 67, 61
2, 141912, Note_on_c, 1, 50, 48
2, 141912, Note_on_c, 1, 55, 62
2, 141916, Note_on_c, 1, 59, 63
2, 141928, Note_off_c, 1, 67, 64
2, 141928, Note_off_c, 1, 55, 64
2, 141932, Note_off_c, 1, 59, 64
2, 141936, Note_off_c, 1, 50, 64
2, 142012, Note_on_c, 1, 69, 81
2, 142112, Note_off_c, 1, 69, 64
2, 142112, Note_on_c, 1, 38, 63
2, 142116, Note_on_c, 1, 71, 66
2, 142128, Note_off_c, 1, 38, 64
2, 142204, Note_on_c, 1, 69, 69
2, 142216, Note_off_c, 1, 71, 64
2, 142220, Note_off_c, 1, 62, 64
2, 142240, Note_off_c, 1, 69, 64
2, 142320, Note_on_c, 1, 50, 59
2, 142324, Note_on_c, 1, 55, 64
2, 142324, Note_on_c, 1, 67, 70
2, 142324, Note_on_c, 1, 59, 63
2, 142324, Control_c, 1, 64, 127
2, 142340, Note_off_c, 1, 50, 64
2, 142340, Note_off_c, 1, 55, 64
2, 142340, Note_off_c, 1, 59, 64
2, 142408, Note_off_c, 1, 67, 64
2, 142416, Note_on_c, 1, 62, 75
2, 142500, Control_c, 1, 64, 0
2, 142520, Note_on_c, 1, 44, 64
2, 142536, Note_off_c, 1, 62, 64
2, 142536, Note_off_c, 1, 44, 64
2, 142540, Note_on_c, 1, 76, 73
2, 142644, Note_off_c, 1, 76, 64
2, 142644, Note_on_c, 1, 75, 66
2, 142732, Note_off_c, 1, 75, 0
2, 142736, Note_on_c, 1, 59, 59
2, 142736, Note_on_c, 1, 62, 61
2, 142740, Note_on_c, 1, 52, 47
2, 142748, Note_on_c, 1, 74, 58
2, 142756, Note_off_c, 1, 62, 64
2, 142760, Note_off_c, 1, 59, 64
2, 142760, Note_off_c, 1, 52, 64
2, 142840, Note_off_c, 1, 74, 64
2, 142844, Note_on_c, 1, 73, 76
2, 142932, Note_on_c, 1, 45, 64
2, 142944, Control_c, 1, 64, 127
2, 142952, Note_on_c, 1, 72, 61
2, 142956, Note_off_c, 1, 73, 64
2, 142956, Note_off_c, 1, 45, 64
2, 143044, Note_off_c, 1, 72, 64
2, 143044, Note_on_c, 1, 71, 65
2, 143128, Control_c, 1, 64, 0
2, 143152, Note_on_c, 1, 70, 68
2, 143156, Note_on_c, 1, 57, 62
2, 143156, Note_on_c, 1, 52, 58
2, 143156, Note_on_c, 1, 60, 57
2, 143164, Note_off_c, 1, 71, 64
2, 143164, Control_c, 1, 64, 127
2, 143212, Note_off_c, 1, 57, 64
2, 143212, Note_off_c, 1, 60, 64
2, 143220, Note_off_c, 1, 52, 64
2, 143248, Note_off_c, 1, 70, 64
2, 143252, Note_on_c, 1, 69, 58
2, 143336, Note_on_c, 1, 42, 63
2, 143352, Control_c, 1, 64, 0
2, 143368, Note_off_c, 1, 69, 64
2, 143376, Note_on_c, 1, 74, 76
2, 143428, Note_off_c, 1, 42, 64
2, 143468, Note_on_c, 1, 73, 63
2, 143476, Note_off_c, 1, 74, 64
2, 143560, Note_off_c, 1, 73, 64
2, 143568, Note_on_c, 1, 57, 62
2, 143568, Note_on_c, 1, 72, 60
2, 143568, Note_on_c, 1, 54, 54
2, 143588, Note_off_c, 1, 57, 64
2, 143588, Note_off_c, 1, 54, 64
2, 143660, Note_off_c, 1, 72, 64
2, 143664, Note_on_c, 1, 71, 76
2, 143768, Note_on_c, 1, 43, 64
2, 143768, Note_on_c, 1, 70, 64
2, 143780, Note_off_c, 1, 43, 64
2, 143784, Note_off_c, 1, 71, 64
2, 143872, Note_off_c, 1, 70, 64
2, 143872, Note_on_c, 1, 69, 62
2, 143972, Note_on_c, 1, 50, 60
2, 143976, Note_on_c, 1, 68, 71
2, 143984, Note_off_c, 1, 69, 64
2, 143984, Note_on_c, 1, 55, 51
2, 143984, Note_on_c, 1, 59, 56
2, 144000, Note_off_c, 1, 50, 64
2, 144004, Note_off_c, 1, 55, 64
2, 144012, Note_off_c, 1, 59, 0
2, 144080, Note_on_c, 1, 67, 67
2, 144088, Note_off_c, 1, 68, 0
2, 144144, Note_on_c, 1, 48, 52
2, 144168, Note_off_c, 1, 67, 64
2, 144180, Note_on_c, 1, 64, 73
2, 144284, Note_off_c, 1, 64, 64
2, 144284, Note_on_c, 1, 67, 69
2, 144388, Note_on_c, 1, 57, 58
2, 144388, Note_on_c, 1, 60, 59
2, 144388, Note_on_c, 1, 52, 55
2, 144392, Control_c, 1, 64, 127
2, 144412, Note_off_c, 1, 57, 64
2, 144416, Note_off_c, 1, 60, 64
2, 144428, Note_off_c, 1, 52, 64
2, 144444, Note_off_c, 1, 48, 64
2, 144476, Note_off_c, 1, 67, 64
2, 144480, Note_on_c, 1, 64, 83
2, 144568, Note_on_c, 1, 50, 69
2, 144580, Note_off_c, 1, 64, 64
2, 144580, Control_c, 1, 64, 0
2, 144600, Note_on_c, 1, 62, 76
2, 144688, Note_on_c, 1, 67, 76
2, 144776, Note_off_c, 1, 67, 64
2, 144788, Note_on_c, 1, 55, 55
2, 144792, Note_on_c, 1, 59, 55
2, 144792, Note_on_c, 1, 71, 86
2, 144804, Note_off_c, 1, 55, 64
2, 144804, Note_off_c, 1, 59, 64
2, 144808, Control_c, 1, 64, 127
2, 144812, Note_off_c, 1, 50, 64
2, 144868, Note_off_c, 1, 62, 64
2, 144868, Note_off_c, 1, 71, 64
2, 144880, Note_on_c, 1, 74, 65
2, 144896, Note_on_c, 1, 62, 65
2, 144908, Note_off_c, 1, 74, 64
2, 144924, Note_off_c, 1, 62, 64
2, 144988, Note_on_c, 1, 70, 67
2, 144992, Note_on_c, 1, 45, 71
2, 144992, Note_on_c, 1, 71, 75
2, 144996, Note_on_c, 1, 61, 64
2, 144996, Note_on_c, 1, 57, 62
2, 145000, Control_c, 1, 64, 0
2, 145020, Note_off_c, 1, 70, 64
2, 145052, Note_off_c, 1, 57, 64
2, 145064, Note_off_c, 1, 45, 64
2, 145108, Note_off_c, 1, 71, 64
2, 145108, Note_on_c, 1, 67, 71
2, 145140, Note_off_c, 1, 61, 64
2, 145144, Note_off_c, 1, 67, 64
2, 145204, Note_on_c, 1, 69, 71
2, 145204, Note_on_c, 1, 60, 68
2, 145204, Note_on_c, 1, 38, 65
2, 145208, Note_on_c, 1, 50, 52
2, 145244, Note_off_c, 1, 50, 64
2, 145264, Note_off_c, 1, 38, 64
2, 145308, Note_off_c, 1, 69, 64
2, 145316, Note_on_c, 1, 62, 66
2, 145320, Note_off_c, 1, 60, 64
2, 145332, Note_off_c, 1, 62, 64
2, 145444, Note_on_c, 1, 67, 67
2, 145448, Note_on_c, 1, 62, 67
2, 145452, Note_on_c, 1, 31, 40
2, 145452, Note_on_c, 1, 43, 52
2, 145456, Note_on_c, 1, 59, 64
2, 145456, Control_c, 1, 64, 127
2, 145484, Note_off_c, 1, 59, 64
2, 145492, Note_off_c, 1, 31, 64
2, 145492, Note_off_c, 1, 43, 64
2, 145508, Note_off_c, 1, 62, 64
2, 145524, Note_off_c, 1, 67, 64
2, 145800, Control_c, 1, 64, 0
2, 145916, Note_on_c, 1, 33, 84
2, 145916, Note_on_c, 1, 21, 75
2, 145924, Note_on_c, 1, 70, 102
2, 145944, Note_off_c, 1, 33, 64
2, 145948, Note_off_c, 1, 21, 64
2, 146048, Note_on_c, 1, 74, 76
2, 146048, Note_on_c, 1, 71, 59
2, 146068, Note_off_c, 1, 70, 64
2, 146108, Note_off_c, 1, 71, 64
2, 146112, Note_off_c, 1, 74, 64
2, 146160, Note_on_c, 1, 54, 55
2, 146160, Note_on_c, 1, 60, 68
2, 146168, Note_on_c, 1, 50, 71
2, 146180, Note_off_c, 1, 60, 64
2, 146184, Note_off_c, 1, 54, 64
2, 146184, Control_c, 1, 64, 0
2, 146192, Note_off_c, 1, 50, 64
2, 146292, Note_on_c, 1, 66, 80
2, 146404, Note_on_c, 1, 26, 86
2, 146404, Control_c, 1, 64, 127
2, 146408, Note_on_c, 1, 38, 76
2, 146412, Note_on_c, 1, 72, 84
2, 146412, Note_on_c, 1, 69, 85
2, 146420, Note_off_c, 1, 26, 64
2, 146420, Note_off_c, 1, 38, 64
2, 146428, Note_off_c, 1, 66, 64
2, 146488, Note_off_c, 1, 69, 64
2, 146500, Note_off_c, 1, 72, 64
2, 146652, Note_on_c, 1, 50, 69
2, 146652, Note_on_c, 1, 54, 71
2, 146656, Note_on_c, 1, 60, 69
2, 146656, Note_on_c, 1, 70, 92
2, 146664, Note_off_c, 1, 60, 64
2, 146668, Note_off_c, 1, 50, 64
2, 146668, Note_off_c, 1, 54, 64
2, 146680, Control_c, 1, 64, 0
2, 146772, Note_on_c, 1, 71, 76
2, 146780, Note_on_c, 1, 74, 86
2, 146788, Note_off_c, 1, 70, 64
2, 146900, Note_on_c, 1, 33, 83
2, 146900, Note_on_c, 1, 45, 80
2, 146900, Control_c, 1, 64, 127
2, 146912, Note_off_c, 1, 71, 64
2, 146920, Note_off_c, 1, 33, 64
2, 146924, Note_off_c, 1, 74, 64
2, 146928, Note_off_c, 1, 45, 64
2, 147012, Note_on_c, 1, 66, 78
2, 147116, Note_off_c, 1, 66, 0
2, 147136, Note_on_c, 1, 54, 71
2, 147140, Note_on_c, 1, 50, 78
2, 147140, Note_on_c, 1, 60, 69
2, 147140, Note_on_c, 1, 72, 81
2, 147140, Note_on_c, 1, 69, 81
2, 147164, Note_off_c, 1, 60, 64
2, 147168, Note_off_c, 1, 54, 64
2, 147168, Note_off_c, 1, 50, 64
2, 147168, Control_c, 1, 64, 0
2, 147208, Note_off_c, 1, 69, 64
2, 147244, Note_off_c, 1, 72, 64
2, 147252, Note_on_c, 1, 70, 72
2, 147324, Note_off_c, 1, 70, 64
2, 147360, Note_on_c, 1, 71, 78
2, 147360, Note_on_c, 1, 74, 85
2, 147364, Note_on_c, 1, 38, 76
2, 147364, Control_c, 1, 64, 127
2, 147364, Control_c, 1, 64, 127
2, 147384, Note_off_c, 1, 38, 64
2, 147544, Note_off_c, 1, 71, 64
2, 147568, Note_off_c, 1, 74, 64
2, 147576, Note_on_c, 1, 50, 72
2, 147580, Note_on_c, 1, 54, 67
2, 147592, Note_on_c, 1, 60, 56
2, 147592, Note_on_c, 1, 69, 78
2, 147592, Note_on_c, 1, 72, 66
2, 147600, Note_off_c, 1, 54, 64
2, 147600, Note_off_c, 1, 60, 64
2, 147608, Note_off_c, 1, 50, 64
2, 147632, Note_off_c, 1, 69, 64
2, 147668, Note_off_c, 1, 72, 64
2, 147788, Note_on_c, 1, 43, 73
2, 147804, Control_c, 1, 64, 0
2, 147808, Note_on_c, 1, 70, 66
2, 147864, Note_off_c, 1, 43, 64
2, 147908, Note_on_c, 1, 74, 68
2, 147916, Note_on_c, 1, 71, 67
2, 147940, Note_off_c, 1, 70, 64
2, 148000, Note_off_c, 1, 71, 64
2, 148012, Note_on_c, 1, 50, 65
2, 148020, Note_on_c, 1, 55, 61
2, 148024, Note_on_c, 1, 59, 58
2, 148040, Note_off_c, 1, 55, 64
2, 148040, Note_off_c, 1, 59, 64
2, 148052, Note_off_c, 1, 50, 64
2, 148100, Note_off_c, 1, 74, 64
2, 148124, Note_on_c, 1, 62, 63
2, 148228, Note_on_c, 1, 38, 69
2, 148228, Note_on_c, 1, 71, 63
2, 148228, Note_on_c, 1, 67, 63
2, 148236, Note_off_c, 1, 38, 64
2, 148236, Control_c, 1, 64, 127
2, 148320, Note_off_c, 1, 62, 64
2, 148320, Note_off_c, 1, 67, 64
2, 148324, Note_off_c, 1, 71, 64
2, 148416, Note_on_c, 1, 55, 61
2, 148416, Note_on_c, 1, 59, 60
2, 148420, Note_on_c, 1, 50, 53
2, 148420, Note_on_c, 1, 70, 55
2, 148432, Note_off_c, 1, 55, 0
2, 148436, Note_off_c, 1, 59, 0
2, 148444, Note_off_c, 1, 50, 0
2, 148448, Control_c, 1, 64, 0
2, 148516, Note_off_c, 1, 70, 64
2, 148528, Note_on_c, 1, 71, 46
2, 148532, Note_on_c, 1, 74, 51
2, 148624, Note_on_c, 1, 43, 57
2, 148624, Control_c, 1, 64, 127
2, 148628, Note_off_c, 1, 71, 64
2, 148636, Note_off_c, 1, 74, 64
2, 148652, Note_off_c, 1, 43, 64
2, 148732, Note_on_c, 1, 62, 64
2, 148836, Note_on_c, 1, 50, 42
2, 148844, Note_on_c, 1, 59, 58
2, 148844, Note_on_c, 1, 55, 42
2, 148848, Note_on_c, 1, 67, 59
2, 148868, Note_off_c, 1, 50, 64
2, 148868, Note_off_c, 1, 59, 64
2, 148868, Note_off_c, 1, 55, 64
2, 148876, Control_c, 1, 64, 0
2, 148932, Note_off_c, 1, 67, 64
2, 148952, Note_on_c, 1, 69, 69
2, 149076, Note_off_c, 1, 69, 64
2, 149076, Note_on_c, 1, 40, 51
2, 149076, Note_on_c, 1, 71, 69
2, 149084, Note_on_c, 1, 38, 69
2, 149100, Note_off_c, 1, 40, 64
2, 149100, Note_off_c, 1, 38, 64
2, 149176, Note_off_c, 1, 71, 64
2, 149176, Note_on_c, 1, 69, 69
2, 149284, Note_off_c, 1, 69, 64
2, 149288, Note_off_c, 1, 62, 64
2, 149288, Note_on_c, 1, 50, 67
2, 149288, Note_on_c, 1, 67, 69
2, 149288, Note_on_c, 1, 55, 66
2, 149292, Note_on_c, 1, 59, 56
2, 149304, Note_off_c, 1, 50, 64
2, 149304, Note_off_c, 1, 55, 64
2, 149308, Note_off_c, 1, 59, 64
2, 149388, Note_on_c, 1, 62, 67
2, 149512, Note_on_c, 1, 45, 102
2, 149524, Note_off_c, 1, 67, 64
2, 149524, Note_off_c, 1, 62, 64
2, 149552, Note_off_c, 1, 45, 64
2, 149736, Note_on_c, 1, 57, 56
2, 149744, Note_on_c, 1, 78, 86
2, 149744, Note_on_c, 1, 66, 84
2, 149748, Note_off_c, 1, 57, 64
2, 149940, Note_on_c, 1, 38, 81
2, 149956, Note_off_c, 1, 38, 64
2, 150044, Note_on_c, 1, 72, 78
2, 150096, Note_off_c, 1, 78, 0
2, 150140, Note_off_c, 1, 72, 64
2, 150140, Note_on_c, 1, 74, 88
2, 150144, Note_off_c, 1, 66, 64
2, 150144, Note_on_c, 1, 54, 62
2, 150148, Note_on_c, 1, 60, 64
2, 150148, Note_on_c, 1, 50, 44
2, 150160, Note_off_c, 1, 74, 64
2, 150164, Note_off_c, 1, 54, 64
2, 150164, Note_off_c, 1, 60, 64
2, 150172, Note_off_c, 1, 50, 64
2, 150252, Note_on_c, 1, 78, 83
2, 150252, Note_on_c, 1, 66, 73
2, 150352, Note_on_c, 1, 45, 75
2, 150364, Control_c, 1, 64, 127
2, 150380, Note_off_c, 1, 45, 64
2, 150416, Note_off_c, 1, 66, 64
2, 150464, Note_on_c, 1, 66, 73
2, 150480, Control_c, 1, 64, 0
2, 150568, Note_on_c, 1, 54, 34
2, 150568, Note_on_c, 1, 60, 38
2, 150572, Note_off_c, 1, 78, 64
2, 150572, Note_on_c, 1, 72, 78
2, 150584, Note_off_c, 1, 60, 64
2, 150588, Note_off_c, 1, 66, 64
2, 150588, Note_off_c, 1, 54, 64
2, 150600, Note_off_c, 1, 72, 64
2, 150672, Note_on_c, 1, 74, 88
2, 150768, Note_on_c, 1, 38, 63
2, 150780, Note_on_c, 1, 78, 76
2, 150784, Note_off_c, 1, 74, 64
2, 150784, Note_off_c, 1, 38, 64
2, 150888, Note_on_c, 1, 74, 57
2, 150980, Note_off_c, 1, 74, 64
2, 150984, Note_on_c, 1, 50, 63
2, 150988, Note_on_c, 1, 54, 52
2, 150988, Note_on_c, 1, 60, 57
2, 150992, Note_on_c, 1, 72, 64
2, 151008, Note_off_c, 1, 50, 64
2, 151008, Note_off_c, 1, 54, 64
2, 151008, Note_off_c, 1, 60, 64
2, 151008, Control_c, 1, 64, 127
2, 151088, Note_off_c, 1, 72, 64
2, 151092, Note_on_c, 1, 69, 69
2, 151200, Note_off_c, 1, 78, 64
2, 151216, Note_on_c, 1, 43, 94
2, 151220, Note_off_c, 1, 69, 64
2, 151224, Control_c, 1, 64, 0
2, 151228, Note_off_c, 1, 43, 64
2, 151436, Note_on_c, 1, 50, 64
2, 151436, Note_on_c, 1, 59, 60
2, 151440, Note_on_c, 1, 55, 60
2, 151444, Note_on_c, 1, 67, 78
2, 151444, Note_on_c, 1, 76, 86
2, 151444, Note_on_c, 1, 71, 63
2, 151448, Note_off_c, 1, 59, 64
2, 151452, Note_off_c, 1, 55, 64
2, 151456, Note_off_c, 1, 50, 64
2, 151656, Note_off_c, 1, 71, 64
2, 151656, Note_on_c, 1, 38, 75
2, 151676, Note_off_c, 1, 38, 64
2, 151744, Note_off_c, 1, 76, 64
2, 151764, Note_on_c, 1, 71, 64
2, 151868, Note_off_c, 1, 71, 64
2, 151872, Note_on_c, 1, 50, 66
2, 151880, Note_on_c, 1, 74, 76
2, 151880, Note_on_c, 1, 59, 67
2, 151880, Note_on_c, 1, 55, 62
2, 151892, Note_off_c, 1, 55, 64
2, 151896, Note_off_c, 1, 50, 64
2, 151896, Note_off_c, 1, 74, 64
2, 151896, Note_off_c, 1, 59, 64
2, 151920, Note_off_c, 1, 67, 64
2, 151984, Note_on_c, 1, 76, 69
2, 152080, Note_on_c, 1, 43, 76
2, 152080, Control_c, 1, 64, 127
2, 152092, Note_off_c, 1, 43, 64
2, 152176, Note_off_c, 1, 76, 64
2, 152180, Note_on_c, 1, 67, 75
2, 152288, Note_on_c, 1, 50, 69
2, 152292, Note_on_c, 1, 59, 66
2, 152292, Note_on_c, 1, 55, 67
2, 152296, Note_on_c, 1, 71, 83
2, 152296, Control_c, 1, 64, 0
2, 152324, Note_off_c, 1, 71, 64
2, 152340, Note_off_c, 1, 59, 64
2, 152344, Note_off_c, 1, 55, 64
2, 152356, Note_off_c, 1, 50, 64
2, 152396, Note_on_c, 1, 74, 91
2, 152492, Note_on_c, 1, 38, 65
2, 152508, Note_off_c, 1, 38, 64
2, 152512, Note_off_c, 1, 74, 64
2, 152520, Note_on_c, 1, 76, 88
2, 152532, Control_c, 1, 64, 127
2, 152604, Note_off_c, 1, 67, 0
2, 152612, Note_on_c, 1, 74, 86
2, 152704, Note_off_c, 1, 74, 64
2, 152708, Note_on_c, 1, 59, 69
2, 152712, Note_on_c, 1, 50, 64
2, 152712, Note_on_c, 1, 55, 66
2, 152716, Note_on_c, 1, 71, 83
2, 152720, Note_off_c, 1, 55, 64
2, 152724, Note_off_c, 1, 59, 64
2, 152728, Note_off_c, 1, 50, 64
2, 152804, Note_off_c, 1, 71, 64
2, 152812, Note_on_c, 1, 67, 88
2, 152896, Note_off_c, 1, 76, 0
2, 152912, Note_off_c, 1, 67, 64
2, 152912, Note_on_c, 1, 45, 105
2, 152928, Note_on_c, 1, 70, 75
2, 152928, Control_c, 1, 64, 0
2, 153020, Note_off_c, 1, 70, 64
2, 153024, Note_on_c, 1, 71, 67
2, 153032, Note_on_c, 1, 74, 78
2, 153052, Control_c, 1, 64, 127
2, 153116, Note_off_c, 1, 71, 64
2, 153116, Note_off_c, 1, 74, 64
2, 153144, Note_on_c, 1, 60, 68
2, 153144, Note_on_c, 1, 50, 73
2, 153144, Note_on_c, 1, 54, 76
2, 153160, Note_off_c, 1, 60, 64
2, 153160, Note_off_c, 1, 50, 64
2, 153164, Note_off_c, 1, 54, 64
2, 153168, Note_off_c, 1, 45, 64
2, 153248, Note_on_c, 1, 66, 78
2, 153272, Control_c, 1, 64, 0
2, 153352, Note_off_c, 1, 66, 64
2, 153352, Note_on_c, 1, 38, 81
2, 153368, Note_on_c, 1, 69, 68
2, 153368, Note_on_c, 1, 72, 69
2, 153372, Note_off_c, 1, 38, 64
2, 153372, Control_c, 1, 64, 127
2, 153464, Note_off_c, 1, 69, 64
2, 153476, Note_off_c, 1, 72, 64
2, 153576, Note_on_c, 1, 50, 73
2, 153576, Note_on_c, 1, 60, 66
2, 153580, Note_on_c, 1, 54, 64
2, 153580, Note_on_c, 1, 70, 92
2, 153580, Control_c, 1, 64, 0
2, 153596, Note_off_c, 1, 60, 64
2, 153596, Control_c, 1, 64, 127
2, 153600, Note_off_c, 1, 50, 64
2, 153600, Note_off_c, 1, 54, 64
2, 153676, Note_off_c, 1, 70, 64
2, 153688, Note_on_c, 1, 71, 64
2, 153688, Note_on_c, 1, 74, 69
2, 153780, Control_c, 1, 64, 0
2, 153784, Note_off_c, 1, 71, 64
2, 153796, Note_off_c, 1, 74, 64
2, 153796, Note_on_c, 1, 45, 83
2, 153812, Control_c, 1, 64, 127
2, 153828, Note_off_c, 1, 45, 64
2, 153896, Note_on_c, 1, 66, 87
2, 153988, Note_off_c, 1, 66, 64
2, 154000, Note_on_c, 1, 72, 83
2, 154004, Note_on_c, 1, 50, 79
2, 154004, Note_on_c, 1, 54, 58
2, 154008, Note_on_c, 1, 69, 69
2, 154008, Note_on_c, 1, 60, 54
2, 154012, Note_off_c, 1, 69, 64
2, 154020, Note_off_c, 1, 72, 0
2, 154020, Note_off_c, 1, 54, 64
2, 154020, Note_off_c, 1, 60, 64
2, 154024, Note_off_c, 1, 50, 64
2, 154104, Note_on_c, 1, 70, 85
2, 154124, Control_c, 1, 64, 0
2, 154204, Note_off_c, 1, 70, 64
2, 154220, Note_on_c, 1, 38, 88
2, 154220, Note_on_c, 1, 74, 86
2, 154220, Note_on_c, 1, 71, 76
2, 154224, Control_c, 1, 64, 127
2, 154236, Note_off_c, 1, 38, 64
2, 154236, Note_off_c, 1, 74, 64
2, 154240, Note_off_c, 1, 71, 64
2, 154432, Note_on_c, 1, 50, 91
2, 154432, Note_on_c, 1, 54, 69
2, 154436, Note_on_c, 1, 60, 73
2, 154440, Note_on_c, 1, 72, 80
2, 154440, Note_on_c, 1, 69, 77
2, 154444, Note_off_c, 1, 54, 64
2, 154444, Note_off_c, 1, 60, 64
2, 154448, Note_off_c, 1, 50, 64
2, 154504, Note_off_c, 1, 69, 64
2, 154524, Note_off_c, 1, 72, 64
2, 154648, Note_on_c, 1, 43, 101
2, 154652, Note_on_c, 1, 70, 67
2, 154652, Control_c, 1, 64, 0
2, 154656, Note_off_c, 1, 43, 64
2, 154748, Note_off_c, 1, 70, 64
2, 154768, Note_on_c, 1, 71, 45
2, 154772, Note_on_c, 1, 74, 69
2, 154852, Note_off_c, 1, 71, 64
2, 154864, Note_on_c, 1, 50, 76
2, 154868, Note_off_c, 1, 74, 64
2, 154868, Note_on_c, 1, 55, 75
2, 154868, Note_on_c, 1, 59, 69
2, 154876, Note_off_c, 1, 50, 64
2, 154884, Note_off_c, 1, 55, 64
2, 154884, Note_off_c, 1, 59, 64
2, 154976, Note_on_c, 1, 62, 66
2, 155072, Note_on_c, 1, 38, 69
2, 155076, Note_off_c, 1, 62, 64
2, 155080, Note_on_c, 1, 67, 60
2, 155092, Note_off_c, 1, 38, 64
2, 155092, Note_on_c, 1, 71, 67
2, 155188, Note_off_c, 1, 67, 64
2, 155196, Note_off_c, 1, 71, 64
2, 155280, Note_on_c, 1, 50, 76
2, 155288, Note_on_c, 1, 55, 66
2, 155292, Note_on_c, 1, 59, 60
2, 155292, Note_on_c, 1, 70, 82
2, 155296, Note_off_c, 1, 50, 64
2, 155296, Note_off_c, 1, 55, 64
2, 155304, Note_off_c, 1, 59, 64
2, 155384, Note_off_c, 1, 70, 0
2, 155396, Note_on_c, 1, 74, 66
2, 155396, Note_on_c, 1, 71, 64
2, 155480, Note_off_c, 1, 71, 64
2, 155492, Note_off_c, 1, 74, 64
2, 155496, Note_on_c, 1, 43, 88
2, 155512, Note_off_c, 1, 43, 64
2, 155604, Note_on_c, 1, 62, 68
2, 155704, Note_on_c, 1, 67, 76
2, 155712, Note_on_c, 1, 50, 60
2, 155712, Note_on_c, 1, 55, 64
2, 155716, Note_off_c, 1, 50, 64
2, 155716, Note_on_c, 1, 59, 59
2, 155724, Note_off_c, 1, 55, 64
2, 155728, Note_off_c, 1, 59, 64
2, 155744, Note_off_c, 1, 67, 64
2, 155816, Note_on_c, 1, 69, 83
2, 155900, Note_on_c, 1, 38, 83
2, 155916, Control_c, 1, 64, 127
2, 155924, Note_off_c, 1, 38, 64
2, 155936, Note_off_c, 1, 69, 64
2, 155936, Note_on_c, 1, 71, 71
2, 155964, Note_off_c, 1, 62, 64
2, 156024, Note_on_c, 1, 69, 78
2, 156108, Note_off_c, 1, 69, 64
2, 156116, Note_on_c, 1, 50, 67
2, 156116, Note_on_c, 1, 55, 67
2, 156124, Note_on_c, 1, 67, 80
2, 156128, Note_on_c, 1, 59, 64
2, 156128, Note_off_c, 1, 59, 64
2, 156132, Note_off_c, 1, 55, 64
2, 156136, Note_off_c, 1, 50, 64
2, 156212, Note_off_c, 1, 67, 64
2, 156216, Note_off_c, 1, 71, 64
2, 156220, Note_on_c, 1, 62, 76
2, 156324, Note_off_c, 1, 62, 64
2, 156324, Note_on_c, 1, 32, 59
2, 156324, Control_c, 1, 64, 127
2, 156352, Note_off_c, 1, 32, 64
2, 156360, Note_on_c, 1, 88, 58
2, 156436, Note_off_c, 1, 88, 64
2, 156436, Note_on_c, 1, 87, 62
2, 156508, Note_off_c, 1, 87, 64
2, 156508, Note_on_c, 1, 86, 66
2, 156548, Control_c, 1, 64, 0
2, 156580, Note_on_c, 1, 52, 64
2, 156580, Note_on_c, 1, 59, 63
2, 156580, Note_on_c, 1, 85, 69
2, 156584, Note_on_c, 1, 62, 60
2, 156588, Note_off_c, 1, 86, 64
2, 156600, Note_off_c, 1, 59, 64
2, 156600, Note_off_c, 1, 62, 64
2, 156616, Note_off_c, 1, 52, 64
2, 156640, Note_off_c, 1, 85, 64
2, 156652, Note_on_c, 1, 84, 71
2, 156708, Note_off_c, 1, 84, 64
2, 156712, Note_on_c, 1, 83, 73
2, 156776, Note_on_c, 1, 45, 69
2, 156788, Note_off_c, 1, 83, 64
2, 156788, Note_on_c, 1, 82, 71
2, 156792, Note_off_c, 1, 45, 64
2, 156852, Note_off_c, 1, 82, 64
2, 156856, Note_on_c, 1, 81, 73
2, 156908, Note_on_c, 1, 80, 76
2, 156912, Note_off_c, 1, 81, 64
2, 156972, Note_off_c, 1, 80, 64
2, 156976, Note_on_c, 1, 79, 78
2, 156988, Note_on_c, 1, 52, 65
2, 156988, Note_on_c, 1, 57, 62
2, 156988, Note_on_c, 1, 60, 57
2, 157008, Note_off_c, 1, 57, 64
2, 157016, Note_off_c, 1, 52, 64
2, 157016, Note_off_c, 1, 60, 64
2, 157052, Note_on_c, 1, 78, 78
2, 157056, Note_off_c, 1, 79, 0
2, 157116, Note_off_c, 1, 78, 64
2, 157116, Note_on_c, 1, 77, 82
2, 157188, Note_on_c, 1, 42, 64
2, 157196, Note_off_c, 1, 77, 64
2, 157200, Note_on_c, 1, 76, 77
2, 157212, Control_c, 1, 64, 127
2, 157224, Note_off_c, 1, 42, 64
2, 157268, Note_on_c, 1, 75, 77
2, 157284, Note_off_c, 1, 76, 64
2, 157332, Note_on_c, 1, 74, 75
2, 157336, Note_off_c, 1, 75, 64
2, 157344, Control_c, 1, 64, 0
2, 157404, Note_on_c, 1, 73, 75
2, 157408, Note_on_c, 1, 50, 61
2, 157412, Note_off_c, 1, 74, 64
2, 157412, Note_on_c, 1, 57, 56
2, 157412, Note_on_c, 1, 60, 48
2, 157440, Note_off_c, 1, 57, 64
2, 157444, Note_off_c, 1, 60, 64
2, 157456, Note_off_c, 1, 50, 64
2, 157464, Note_off_c, 1, 73, 64
2, 157472, Note_on_c, 1, 72, 75
2, 157532, Note_off_c, 1, 72, 64
2, 157544, Note_on_c, 1, 71, 77
2, 157608, Note_on_c, 1, 43, 67
2, 157612, Note_on_c, 1, 70, 78
2, 157620, Control_c, 1, 64, 127
2, 157624, Note_off_c, 1, 71, 64
2, 157644, Note_off_c, 1, 43, 64
2, 157680, Note_off_c, 1, 70, 64
2, 157684, Note_on_c, 1, 69, 81
2, 157752, Note_on_c, 1, 68, 79
2, 157760, Note_off_c, 1, 69, 64
2, 157808, Control_c, 1, 64, 0
2, 157824, Note_off_c, 1, 68, 64
2, 157824, Note_on_c, 1, 67, 79
2, 157836, Note_on_c, 1, 50, 52
2, 157844, Note_on_c, 1, 59, 60
2, 157844, Note_on_c, 1, 55, 64
2, 157864, Control_c, 1, 64, 127
2, 157892, Note_off_c, 1, 50, 64
2, 157908, Note_on_c, 1, 66, 78
2, 157916, Note_off_c, 1, 67, 64
2, 157920, Note_off_c, 1, 59, 64
2, 157924, Note_off_c, 1, 55, 64
2, 157980, Note_on_c, 1, 65, 75
2, 157996, Note_off_c, 1, 66, 64
2, 158056, Note_on_c, 1, 48, 63
2, 158076, Control_c, 1, 64, 0
2, 158088, Note_off_c, 1, 65, 64
2, 158092, Note_on_c, 1, 64, 78
2, 158204, Note_off_c, 1, 64, 64
2, 158204, Note_on_c, 1, 67, 76
2, 158316, Note_on_c, 1, 57, 62
2, 158320, Note_on_c, 1, 60, 62
2, 158324, Note_on_c, 1, 52, 51
2, 158356, Control_c, 1, 64, 127
2, 158420, Note_off_c, 1, 48, 64
2, 158420, Note_on_c, 1, 64, 75
2, 158424, Note_off_c, 1, 52, 64
2, 158496, Note_off_c, 1, 57, 0
2, 158504, Note_off_c, 1, 60, 0
2, 158520, Note_on_c, 1, 50, 69
2, 158540, Note_off_c, 1, 67, 0
2, 158540, Note_off_c, 1, 64, 0
2, 158552, Note_on_c, 1, 62, 75
2, 158552, Control_c, 1, 64, 0
2, 158640, Note_on_c, 1, 67, 68
2, 158720, Note_off_c, 1, 62, 64
2, 158744, Note_off_c, 1, 67, 64
2, 158756, Note_on_c, 1, 62, 61
2, 158756, Note_on_c, 1, 71, 78
2, 158764, Note_on_c, 1, 55, 66
2, 158764, Note_on_c, 1, 59, 64
2, 158764, Control_c, 1, 64, 127
2, 158788, Note_off_c, 1, 59, 64
2, 158796, Note_off_c, 1, 62, 64
2, 158804, Note_off_c, 1, 55, 64
2, 158824, Note_off_c, 1, 50, 64
2, 158856, Note_off_c, 1, 71, 64
2, 158880, Note_on_c, 1, 74, 71
2, 158896, Note_off_c, 1, 74, 64
2, 158984, Note_on_c, 1, 45, 69
2, 158996, Note_on_c, 1, 57, 63
2, 159000, Control_c, 1, 64, 0
2, 159008, Note_on_c, 1, 71, 68
2, 159016, Note_on_c, 1, 61, 68
2, 159032, Control_c, 1, 64, 127
2, 159036, Note_off_c, 1, 57, 64
2, 159064, Note_off_c, 1, 45, 64
2, 159124, Note_off_c, 1, 71, 64
2, 159124, Note_on_c, 1, 67, 73
2, 159148, Note_off_c, 1, 67, 64
2, 159152, Note_off_c, 1, 61, 64
2, 159244, Note_on_c, 1, 69, 69
2, 159248, Note_on_c, 1, 38, 54
2, 159248, Note_on_c, 1, 60, 72
2, 159252, Note_on_c, 1, 50, 55
2, 159256, Control_c, 1, 64, 0
2, 159284, Control_c, 1, 64, 127
2, 159312, Note_off_c, 1, 50, 64
2, 159324, Note_off_c, 1, 38, 64
2, 159376, Note_off_c, 1, 69, 64
2, 159376, Note_off_c, 1, 60, 64
2, 159384, Note_on_c, 1, 62, 58
2, 159412, Note_off_c, 1, 62, 64
2, 159672, Note_on_c, 1, 67, 53
2, 159672, Note_on_c, 1, 59, 59
2, 159676, Note_on_c, 1, 21, 42
2, 159676, Note_on_c, 1, 31, 52
2, 159676, Note_on_c, 1, 62, 41
2, 159692, Control_c, 1, 64, 0
2, 159724, Note_off_c, 1, 31, 64
2, 159732, Note_off_c, 1, 21, 64
2, 159864, Note_off_c, 1, 59, 64
2, 159864, Note_off_c, 1, 67, 64
2, 159880, Note_off_c, 1, 62, 64
2, 159880, End_track
3, 0, Start_track
3, 0, Title_t, "Alessandro Simonetto, piano"
3, 0, Key_signature, 0, "major"
3, 0, End_track
4, 0, Start_track
4, 0, Title_t, "Info: www.kunstderfuge.com/ragtime.htm!"
4, 0, Key_signature, 0, "major"
4, 0, End_track
5, 0, Start_track
5, 0, Title_t, "All rights reserved,  2003-04"
5, 0, Key_signature, 0, "major"
5, 0, End_track
6, 0, Start_track
6, 0, Key_signature, 0, "major"
6, 0, End_track
7, 0, Start_track
7, 0, Key_signature, 0, "major"
7, 0, End_track
8, 0, Start_track
8, 0, Key_signature, 0, "major"
8, 0, End_track
9, 0, Start_track
9, 0, Key_signature, 0, "major"
9, 0, End_track
10, 0, Start_track
10, 0, Key_signature, 0, "major"
10, 0, End_track
11, 0, Start_track
11, 0, Key_signature, 0, "major"
11, 0, End_track
12, 0, Start_track
12, 0, Key_signature, 0, "major"
12, 0, End_track
13, 0, Start_track
13, 0, Key_signature, 0, "major"
13, 0, End_track
14, 0, Start_track
14, 0, Key_signature, 0, "major"
14, 0, End_track
15, 0, Start_track
15, 0, Key_signature, 0, "major"
15, 0, End_track
16, 0, Start_track
16, 0, Key_signature, 0, "major"
16, 0, End_track
17, 0, Start_track
17, 1, Copyright_t, "___________________________________________________\012\012KUNSTDERFUGE.COM LARGE CLASSICAL MIDI COLLECTION\012ONCLASSICAL BY ALESSANDRO SIMONETTO, PROPRIETOR\012___________________________________________________\012\012! Attention: this file is under copyright !\012\012(c)onclassical, (c)simonetto, 2010\012___________________________________________________\012\012NO ONE MAY REPUBLISH THIS FILE WITHOUT PERMISSION\012COMMERCIAL USES OF THIS FILE IS STRICTLY PROHIBITED\012___________________________________________________\012\012Files & contributor's list: http://kunstderfuge.com/\012Terms and conditions: http://kunstderfuge.com/notes.htm"
17, 1, End_track
0, 0, End_of_file
