0, 0, Header, 1, 8, 192
1, 0, Start_track
1, 0, Title_t, "Patricia Rag (1916)"
1, 0, Copyright_t, "May NOT be used for commercial purposes."
1, 0, Text_t, "Roll expression/accent tracks, where present, converted to MIDI velocties.\012"
1, 0, Time_signature, 4, 2, 24, 8
1, 0, Key_signature, 0, "major"
1, 0, Tempo, 500000
1, 0, Marker_t, "Standard MIDI:LPI 116:Tempo  75: 10-29-2003"
1, 0, End_track
2, 0, Start_track
2, 0, Title_t, "Patricia Rag (1916)"
2, 156, Note_on_c, 0, 34, 80
2, 158, Note_on_c, 0, 46, 80
2, 255, Note_on_c, 0, 46, 0
2, 260, Note_on_c, 0, 34, 0
2, 288, Note_on_c, 0, 51, 80
2, 290, Note_on_c, 0, 39, 80
2, 363, Note_on_c, 0, 82, 80
2, 381, Note_on_c, 0, 39, 0
2, 394, Note_on_c, 0, 51, 0
2, 421, Note_on_c, 0, 58, 80
2, 421, Note_on_c, 0, 63, 80
2, 423, Note_on_c, 0, 67, 80
2, 425, Note_on_c, 0, 82, 0
2, 427, Note_on_c, 0, 79, 80
2, 484, Note_on_c, 0, 75, 80
2, 491, Note_on_c, 0, 79, 0
2, 520, Note_on_c, 0, 58, 0
2, 525, Note_on_c, 0, 67, 0
2, 525, Note_on_c, 0, 63, 0
2, 547, Note_on_c, 0, 43, 80
2, 547, Note_on_c, 0, 55, 80
2, 549, Note_on_c, 0, 72, 80
2, 557, Note_on_c, 0, 75, 0
2, 619, Note_on_c, 0, 70, 80
2, 624, Note_on_c, 0, 72, 0
2, 644, Note_on_c, 0, 43, 0
2, 650, Note_on_c, 0, 55, 0
2, 674, Note_on_c, 0, 42, 80
2, 679, Note_on_c, 0, 54, 80
2, 679, Note_on_c, 0, 72, 80
2, 688, Note_on_c, 0, 70, 0
2, 747, Note_on_c, 0, 73, 80
2, 754, Note_on_c, 0, 72, 0
2, 776, Note_on_c, 0, 54, 0
2, 778, Note_on_c, 0, 42, 0
2, 807, Note_on_c, 0, 41, 80
2, 809, Note_on_c, 0, 53, 80
2, 811, Note_on_c, 0, 68, 80
2, 811, Note_on_c, 0, 74, 80
2, 816, Note_on_c, 0, 73, 0
2, 851, Note_on_c, 0, 68, 0
2, 853, Note_on_c, 0, 74, 0
2, 868, Note_on_c, 0, 72, 80
2, 877, Note_on_c, 0, 68, 80
2, 899, Note_on_c, 0, 41, 0
2, 906, Note_on_c, 0, 53, 0
2, 935, Note_on_c, 0, 65, 80
2, 939, Note_on_c, 0, 56, 80
2, 939, Note_on_c, 0, 60, 80
2, 977, Note_on_c, 0, 72, 0
2, 977, Note_on_c, 0, 68, 0
2, 1004, Note_on_c, 0, 68, 80
2, 1004, Note_on_c, 0, 70, 80
2, 1032, Note_on_c, 0, 65, 0
2, 1034, Note_on_c, 0, 56, 0
2, 1036, Note_on_c, 0, 60, 0
2, 1060, Note_on_c, 0, 65, 80
2, 1062, Note_on_c, 0, 56, 80
2, 1069, Note_on_c, 0, 62, 80
2, 1155, Note_on_c, 0, 62, 0
2, 1160, Note_on_c, 0, 65, 0
2, 1160, Note_on_c, 0, 56, 0
2, 1176, Note_on_c, 0, 34, 80
2, 1180, Note_on_c, 0, 46, 80
2, 1273, Note_on_c, 0, 46, 0
2, 1275, Note_on_c, 0, 34, 0
2, 1277, Note_on_c, 0, 70, 0
2, 1284, Note_on_c, 0, 68, 0
2, 1301, Note_on_c, 0, 51, 80
2, 1303, Note_on_c, 0, 39, 80
2, 1376, Note_on_c, 0, 82, 80
2, 1396, Note_on_c, 0, 39, 0
2, 1407, Note_on_c, 0, 51, 0
2, 1436, Note_on_c, 0, 63, 80
2, 1438, Note_on_c, 0, 58, 80
2, 1438, Note_on_c, 0, 67, 80
2, 1440, Note_on_c, 0, 79, 80
2, 1441, Note_on_c, 0, 82, 0
2, 1501, Note_on_c, 0, 75, 80
2, 1510, Note_on_c, 0, 79, 0
2, 1538, Note_on_c, 0, 67, 0
2, 1538, Note_on_c, 0, 58, 0
2, 1540, Note_on_c, 0, 63, 0
2, 1560, Note_on_c, 0, 43, 80
2, 1560, Note_on_c, 0, 55, 80
2, 1565, Note_on_c, 0, 72, 80
2, 1570, Note_on_c, 0, 75, 0
2, 1632, Note_on_c, 0, 70, 80
2, 1640, Note_on_c, 0, 72, 0
2, 1662, Note_on_c, 0, 43, 0
2, 1664, Note_on_c, 0, 55, 0
2, 1691, Note_on_c, 0, 42, 80
2, 1698, Note_on_c, 0, 54, 80
2, 1698, Note_on_c, 0, 72, 80
2, 1703, Note_on_c, 0, 70, 0
2, 1767, Note_on_c, 0, 73, 80
2, 1772, Note_on_c, 0, 72, 0
2, 1796, Note_on_c, 0, 42, 0
2, 1796, Note_on_c, 0, 54, 0
2, 1826, Note_on_c, 0, 41, 80
2, 1831, Note_on_c, 0, 53, 80
2, 1840, Note_on_c, 0, 68, 80
2, 1840, Note_on_c, 0, 74, 80
2, 1845, Note_on_c, 0, 73, 0
2, 1875, Note_on_c, 0, 68, 0
2, 1877, Note_on_c, 0, 74, 0
2, 1899, Note_on_c, 0, 72, 80
2, 1904, Note_on_c, 0, 68, 80
2, 1926, Note_on_c, 0, 41, 0
2, 1933, Note_on_c, 0, 53, 0
2, 1962, Note_on_c, 0, 65, 80
2, 1964, Note_on_c, 0, 56, 80
2, 1966, Note_on_c, 0, 60, 80
2, 2005, Note_on_c, 0, 72, 0
2, 2005, Note_on_c, 0, 68, 0
2, 2029, Note_on_c, 0, 70, 80
2, 2031, Note_on_c, 0, 68, 80
2, 2062, Note_on_c, 0, 65, 0
2, 2066, Note_on_c, 0, 60, 0
2, 2066, Note_on_c, 0, 56, 0
2, 2088, Note_on_c, 0, 56, 80
2, 2093, Note_on_c, 0, 65, 80
2, 2095, Note_on_c, 0, 62, 80
2, 2185, Note_on_c, 0, 62, 0
2, 2192, Note_on_c, 0, 56, 0
2, 2194, Note_on_c, 0, 65, 0
2, 2208, Note_on_c, 0, 34, 80
2, 2214, Note_on_c, 0, 46, 80
2, 2311, Note_on_c, 0, 46, 0
2, 2311, Note_on_c, 0, 34, 0
2, 2318, Note_on_c, 0, 70, 0
2, 2323, Note_on_c, 0, 68, 0
2, 2338, Note_on_c, 0, 51, 80
2, 2340, Note_on_c, 0, 39, 80
2, 2411, Note_on_c, 0, 82, 80
2, 2431, Note_on_c, 0, 39, 0
2, 2442, Note_on_c, 0, 51, 0
2, 2469, Note_on_c, 0, 58, 80
2, 2469, Note_on_c, 0, 63, 80
2, 2473, Note_on_c, 0, 67, 80
2, 2475, Note_on_c, 0, 79, 80
2, 2482, Note_on_c, 0, 82, 0
2, 2537, Note_on_c, 0, 75, 80
2, 2544, Note_on_c, 0, 79, 0
2, 2570, Note_on_c, 0, 67, 0
2, 2570, Note_on_c, 0, 58, 0
2, 2572, Note_on_c, 0, 63, 0
2, 2596, Note_on_c, 0, 43, 80
2, 2596, Note_on_c, 0, 55, 80
2, 2598, Note_on_c, 0, 72, 80
2, 2607, Note_on_c, 0, 75, 0
2, 2666, Note_on_c, 0, 70, 80
2, 2675, Note_on_c, 0, 72, 0
2, 2688, Note_on_c, 0, 43, 0
2, 2695, Note_on_c, 0, 55, 0
2, 2715, Note_on_c, 0, 42, 80
2, 2724, Note_on_c, 0, 54, 80
2, 2726, Note_on_c, 0, 72, 80
2, 2733, Note_on_c, 0, 70, 0
2, 2794, Note_on_c, 0, 73, 80
2, 2801, Note_on_c, 0, 72, 0
2, 2821, Note_on_c, 0, 54, 0
2, 2826, Note_on_c, 0, 42, 0
2, 2848, Note_on_c, 0, 41, 80
2, 2853, Note_on_c, 0, 53, 80
2, 2857, Note_on_c, 0, 70, 80
2, 2862, Note_on_c, 0, 74, 80
2, 2867, Note_on_c, 0, 73, 0
2, 2925, Note_on_c, 0, 75, 80
2, 2931, Note_on_c, 0, 74, 0
2, 2945, Note_on_c, 0, 41, 0
2, 2953, Note_on_c, 0, 53, 0
2, 2980, Note_on_c, 0, 53, 80
2, 2985, Note_on_c, 0, 58, 80
2, 2987, Note_on_c, 0, 62, 80
2, 2987, Note_on_c, 0, 76, 80
2, 2992, Note_on_c, 0, 75, 0
2, 3027, Note_on_c, 0, 70, 0
2, 3049, Note_on_c, 0, 74, 80
2, 3051, Note_on_c, 0, 70, 80
2, 3053, Note_on_c, 0, 77, 80
2, 3055, Note_on_c, 0, 76, 0
2, 3079, Note_on_c, 0, 58, 0
2, 3084, Note_on_c, 0, 53, 0
2, 3084, Note_on_c, 0, 62, 0
2, 3111, Note_on_c, 0, 38, 80
2, 3113, Note_on_c, 0, 50, 80
2, 3150, Note_on_c, 0, 77, 0
2, 3155, Note_on_c, 0, 70, 0
2, 3155, Note_on_c, 0, 74, 0
2, 3182, Note_on_c, 0, 70, 80
2, 3182, Note_on_c, 0, 76, 80
2, 3189, Note_on_c, 0, 81, 80
2, 3206, Note_on_c, 0, 38, 0
2, 3213, Note_on_c, 0, 50, 0
2, 3237, Note_on_c, 0, 49, 80
2, 3283, Note_on_c, 0, 81, 0
2, 3310, Note_on_c, 0, 79, 80
2, 3336, Note_on_c, 0, 49, 0
2, 3343, Note_on_c, 0, 76, 0
2, 3345, Note_on_c, 0, 70, 0
2, 3350, Note_on_c, 0, 79, 0
2, 3370, Note_on_c, 0, 36, 80
2, 3372, Note_on_c, 0, 48, 80
2, 3377, Note_on_c, 0, 69, 80
2, 3377, Note_on_c, 0, 75, 80
2, 3382, Note_on_c, 0, 77, 80
2, 3446, Note_on_c, 0, 77, 0
2, 3451, Note_on_c, 0, 79, 80
2, 3464, Note_on_c, 0, 36, 0
2, 3466, Note_on_c, 0, 48, 0
2, 3502, Note_on_c, 0, 57, 80
2, 3506, Note_on_c, 0, 53, 80
2, 3506, Note_on_c, 0, 63, 80
2, 3511, Note_on_c, 0, 80, 80
2, 3516, Note_on_c, 0, 79, 0
2, 3547, Note_on_c, 0, 75, 0
2, 3547, Note_on_c, 0, 69, 0
2, 3569, Note_on_c, 0, 69, 80
2, 3569, Note_on_c, 0, 75, 80
2, 3571, Note_on_c, 0, 81, 80
2, 3577, Note_on_c, 0, 80, 0
2, 3598, Note_on_c, 0, 53, 0
2, 3602, Note_on_c, 0, 57, 0
2, 3607, Note_on_c, 0, 63, 0
2, 3624, Note_on_c, 0, 41, 80
2, 3624, Note_on_c, 0, 53, 80
2, 3664, Note_on_c, 0, 75, 0
2, 3669, Note_on_c, 0, 69, 0
2, 3673, Note_on_c, 0, 81, 0
2, 3696, Note_on_c, 0, 75, 80
2, 3696, Note_on_c, 0, 81, 80
2, 3700, Note_on_c, 0, 86, 80
2, 3718, Note_on_c, 0, 41, 0
2, 3724, Note_on_c, 0, 53, 0
2, 3751, Note_on_c, 0, 57, 80
2, 3756, Note_on_c, 0, 63, 80
2, 3756, Note_on_c, 0, 65, 80
2, 3795, Note_on_c, 0, 86, 0
2, 3824, Note_on_c, 0, 84, 80
2, 3853, Note_on_c, 0, 57, 0
2, 3853, Note_on_c, 0, 65, 0
2, 3855, Note_on_c, 0, 63, 0
2, 3855, Note_on_c, 0, 84, 0
2, 3860, Note_on_c, 0, 81, 0
2, 3860, Note_on_c, 0, 75, 0
2, 3880, Note_on_c, 0, 46, 80
2, 3885, Note_on_c, 0, 58, 80
2, 3885, Note_on_c, 0, 74, 80
2, 3889, Note_on_c, 0, 80, 80
2, 3889, Note_on_c, 0, 82, 80
2, 3954, Note_on_c, 0, 84, 80
2, 3956, Note_on_c, 0, 82, 0
2, 3973, Note_on_c, 0, 46, 0
2, 3975, Note_on_c, 0, 58, 0
2, 4010, Note_on_c, 0, 58, 80
2, 4012, Note_on_c, 0, 62, 80
2, 4014, Note_on_c, 0, 68, 80
2, 4014, Note_on_c, 0, 85, 80
2, 4019, Note_on_c, 0, 84, 0
2, 4052, Note_on_c, 0, 80, 0
2, 4054, Note_on_c, 0, 74, 0
2, 4074, Note_on_c, 0, 74, 80
2, 4080, Note_on_c, 0, 85, 0
2, 4080, Note_on_c, 0, 80, 80
2, 4082, Note_on_c, 0, 86, 80
2, 4106, Note_on_c, 0, 62, 0
2, 4106, Note_on_c, 0, 58, 0
2, 4117, Note_on_c, 0, 68, 0
2, 4128, Note_on_c, 0, 41, 80
2, 4134, Note_on_c, 0, 53, 80
2, 4178, Note_on_c, 0, 80, 0
2, 4180, Note_on_c, 0, 74, 0
2, 4180, Note_on_c, 0, 86, 0
2, 4207, Note_on_c, 0, 80, 80
2, 4207, Note_on_c, 0, 91, 80
2, 4212, Note_on_c, 0, 86, 80
2, 4229, Note_on_c, 0, 41, 0
2, 4238, Note_on_c, 0, 53, 0
2, 4262, Note_on_c, 0, 58, 80
2, 4271, Note_on_c, 0, 68, 80
2, 4272, Note_on_c, 0, 62, 80
2, 4310, Note_on_c, 0, 91, 0
2, 4337, Note_on_c, 0, 89, 80
2, 4359, Note_on_c, 0, 58, 0
2, 4364, Note_on_c, 0, 62, 0
2, 4368, Note_on_c, 0, 80, 0
2, 4373, Note_on_c, 0, 86, 0
2, 4373, Note_on_c, 0, 68, 0
2, 4378, Note_on_c, 0, 89, 0
2, 4383, Note_on_c, 0, 39, 80
2, 4390, Note_on_c, 0, 51, 80
2, 4469, Note_on_c, 0, 82, 80
2, 4489, Note_on_c, 0, 39, 0
2, 4498, Note_on_c, 0, 51, 0
2, 4525, Note_on_c, 0, 58, 80
2, 4530, Note_on_c, 0, 63, 80
2, 4532, Note_on_c, 0, 67, 80
2, 4538, Note_on_c, 0, 79, 80
2, 4540, Note_on_c, 0, 82, 0
2, 4593, Note_on_c, 0, 75, 80
2, 4600, Note_on_c, 0, 79, 0
2, 4624, Note_on_c, 0, 58, 0
2, 4626, Note_on_c, 0, 67, 0
2, 4631, Note_on_c, 0, 63, 0
2, 4651, Note_on_c, 0, 43, 80
2, 4651, Note_on_c, 0, 55, 80
2, 4651, Note_on_c, 0, 72, 80
2, 4661, Note_on_c, 0, 75, 0
2, 4721, Note_on_c, 0, 70, 80
2, 4726, Note_on_c, 0, 72, 0
2, 4746, Note_on_c, 0, 43, 0
2, 4752, Note_on_c, 0, 55, 0
2, 4781, Note_on_c, 0, 42, 80
2, 4781, Note_on_c, 0, 54, 80
2, 4786, Note_on_c, 0, 72, 80
2, 4793, Note_on_c, 0, 70, 0
2, 4854, Note_on_c, 0, 73, 80
2, 4859, Note_on_c, 0, 72, 0
2, 4879, Note_on_c, 0, 42, 0
2, 4884, Note_on_c, 0, 54, 0
2, 4904, Note_on_c, 0, 41, 80
2, 4911, Note_on_c, 0, 53, 80
2, 4916, Note_on_c, 0, 68, 80
2, 4918, Note_on_c, 0, 74, 80
2, 4926, Note_on_c, 0, 73, 0
2, 4957, Note_on_c, 0, 68, 0
2, 4957, Note_on_c, 0, 74, 0
2, 4977, Note_on_c, 0, 72, 80
2, 4986, Note_on_c, 0, 68, 80
2, 5010, Note_on_c, 0, 41, 0
2, 5016, Note_on_c, 0, 53, 0
2, 5039, Note_on_c, 0, 56, 80
2, 5039, Note_on_c, 0, 60, 80
2, 5047, Note_on_c, 0, 65, 80
2, 5089, Note_on_c, 0, 72, 0
2, 5112, Note_on_c, 0, 70, 80
2, 5147, Note_on_c, 0, 56, 0
2, 5152, Note_on_c, 0, 65, 0
2, 5152, Note_on_c, 0, 60, 0
2, 5172, Note_on_c, 0, 56, 80
2, 5179, Note_on_c, 0, 65, 80
2, 5181, Note_on_c, 0, 62, 80
2, 5271, Note_on_c, 0, 56, 0
2, 5278, Note_on_c, 0, 65, 0
2, 5280, Note_on_c, 0, 62, 0
2, 5290, Note_on_c, 0, 34, 80
2, 5299, Note_on_c, 0, 46, 80
2, 5394, Note_on_c, 0, 46, 0
2, 5394, Note_on_c, 0, 34, 0
2, 5404, Note_on_c, 0, 68, 0
2, 5404, Note_on_c, 0, 70, 0
2, 5428, Note_on_c, 0, 39, 80
2, 5428, Note_on_c, 0, 51, 80
2, 5503, Note_on_c, 0, 82, 80
2, 5520, Note_on_c, 0, 39, 0
2, 5534, Note_on_c, 0, 51, 0
2, 5561, Note_on_c, 0, 58, 80
2, 5561, Note_on_c, 0, 63, 80
2, 5566, Note_on_c, 0, 67, 80
2, 5570, Note_on_c, 0, 82, 0
2, 5570, Note_on_c, 0, 79, 80
2, 5628, Note_on_c, 0, 75, 80
2, 5635, Note_on_c, 0, 79, 0
2, 5655, Note_on_c, 0, 58, 0
2, 5662, Note_on_c, 0, 63, 0
2, 5664, Note_on_c, 0, 67, 0
2, 5686, Note_on_c, 0, 43, 80
2, 5686, Note_on_c, 0, 72, 80
2, 5688, Note_on_c, 0, 55, 80
2, 5696, Note_on_c, 0, 75, 0
2, 5756, Note_on_c, 0, 70, 80
2, 5764, Note_on_c, 0, 72, 0
2, 5784, Note_on_c, 0, 43, 0
2, 5789, Note_on_c, 0, 55, 0
2, 5816, Note_on_c, 0, 42, 80
2, 5821, Note_on_c, 0, 54, 80
2, 5821, Note_on_c, 0, 72, 80
2, 5830, Note_on_c, 0, 70, 0
2, 5887, Note_on_c, 0, 73, 80
2, 5892, Note_on_c, 0, 72, 0
2, 5916, Note_on_c, 0, 42, 0
2, 5918, Note_on_c, 0, 54, 0
2, 5945, Note_on_c, 0, 41, 80
2, 5947, Note_on_c, 0, 53, 80
2, 5952, Note_on_c, 0, 68, 80
2, 5953, Note_on_c, 0, 74, 80
2, 5958, Note_on_c, 0, 73, 0
2, 5991, Note_on_c, 0, 68, 0
2, 5991, Note_on_c, 0, 74, 0
2, 6011, Note_on_c, 0, 72, 80
2, 6013, Note_on_c, 0, 68, 80
2, 6040, Note_on_c, 0, 41, 0
2, 6045, Note_on_c, 0, 53, 0
2, 6075, Note_on_c, 0, 60, 80
2, 6075, Note_on_c, 0, 65, 80
2, 6077, Note_on_c, 0, 56, 80
2, 6117, Note_on_c, 0, 72, 0
2, 6117, Note_on_c, 0, 68, 0
2, 6141, Note_on_c, 0, 68, 80
2, 6141, Note_on_c, 0, 70, 80
2, 6173, Note_on_c, 0, 60, 0
2, 6175, Note_on_c, 0, 56, 0
2, 6175, Note_on_c, 0, 65, 0
2, 6195, Note_on_c, 0, 65, 80
2, 6197, Note_on_c, 0, 56, 80
2, 6204, Note_on_c, 0, 62, 80
2, 6299, Note_on_c, 0, 62, 0
2, 6299, Note_on_c, 0, 65, 0
2, 6299, Note_on_c, 0, 56, 0
2, 6316, Note_on_c, 0, 46, 80
2, 6318, Note_on_c, 0, 34, 80
2, 6413, Note_on_c, 0, 46, 0
2, 6418, Note_on_c, 0, 34, 0
2, 6427, Note_on_c, 0, 68, 0
2, 6429, Note_on_c, 0, 70, 0
2, 6442, Note_on_c, 0, 39, 80
2, 6444, Note_on_c, 0, 51, 80
2, 6515, Note_on_c, 0, 82, 80
2, 6537, Note_on_c, 0, 39, 0
2, 6542, Note_on_c, 0, 51, 0
2, 6569, Note_on_c, 0, 51, 80
2, 6574, Note_on_c, 0, 58, 80
2, 6576, Note_on_c, 0, 61, 80
2, 6580, Note_on_c, 0, 79, 80
2, 6582, Note_on_c, 0, 82, 0
2, 6644, Note_on_c, 0, 75, 80
2, 6650, Note_on_c, 0, 79, 0
2, 6668, Note_on_c, 0, 61, 0
2, 6672, Note_on_c, 0, 58, 0
2, 6674, Note_on_c, 0, 51, 0
2, 6695, Note_on_c, 0, 46, 80
2, 6699, Note_on_c, 0, 58, 80
2, 6706, Note_on_c, 0, 73, 80
2, 6708, Note_on_c, 0, 75, 0
2, 6772, Note_on_c, 0, 84, 80
2, 6794, Note_on_c, 0, 46, 0
2, 6799, Note_on_c, 0, 58, 0
2, 6826, Note_on_c, 0, 47, 80
2, 6831, Note_on_c, 0, 59, 80
2, 6868, Note_on_c, 0, 73, 0
2, 6875, Note_on_c, 0, 84, 0
2, 6897, Note_on_c, 0, 70, 80
2, 6899, Note_on_c, 0, 75, 80
2, 6899, Note_on_c, 0, 82, 80
2, 6926, Note_on_c, 0, 47, 0
2, 6936, Note_on_c, 0, 59, 0
2, 6957, Note_on_c, 0, 60, 80
2, 6970, Note_on_c, 0, 48, 80
2, 7030, Note_on_c, 0, 80, 80
2, 7034, Note_on_c, 0, 82, 0
2, 7056, Note_on_c, 0, 48, 0
2, 7061, Note_on_c, 0, 60, 0
2, 7068, Note_on_c, 0, 75, 0
2, 7090, Note_on_c, 0, 56, 80
2, 7090, Note_on_c, 0, 60, 80
2, 7090, Note_on_c, 0, 63, 80
2, 7095, Note_on_c, 0, 75, 80
2, 7104, Note_on_c, 0, 80, 0
2, 7128, Note_on_c, 0, 70, 0
2, 7160, Note_on_c, 0, 68, 80
2, 7162, Note_on_c, 0, 75, 0
2, 7191, Note_on_c, 0, 56, 0
2, 7193, Note_on_c, 0, 60, 0
2, 7193, Note_on_c, 0, 63, 0
2, 7217, Note_on_c, 0, 47, 80
2, 7219, Note_on_c, 0, 59, 80
2, 7287, Note_on_c, 0, 75, 80
2, 7314, Note_on_c, 0, 47, 0
2, 7322, Note_on_c, 0, 59, 0
2, 7346, Note_on_c, 0, 59, 80
2, 7351, Note_on_c, 0, 56, 80
2, 7351, Note_on_c, 0, 63, 80
2, 7356, Note_on_c, 0, 77, 80
2, 7361, Note_on_c, 0, 75, 0
2, 7422, Note_on_c, 0, 77, 0
2, 7424, Note_on_c, 0, 78, 80
2, 7453, Note_on_c, 0, 56, 0
2, 7453, Note_on_c, 0, 63, 0
2, 7453, Note_on_c, 0, 59, 0
2, 7475, Note_on_c, 0, 46, 80
2, 7482, Note_on_c, 0, 58, 80
2, 7487, Note_on_c, 0, 67, 80
2, 7487, Note_on_c, 0, 79, 80
2, 7488, Note_on_c, 0, 68, 0
2, 7488, Note_on_c, 0, 78, 0
2, 7488, Note_on_c, 0, 75, 80
2, 7524, Note_on_c, 0, 79, 0
2, 7553, Note_on_c, 0, 82, 80
2, 7575, Note_on_c, 0, 46, 0
2, 7580, Note_on_c, 0, 58, 0
2, 7607, Note_on_c, 0, 55, 80
2, 7611, Note_on_c, 0, 63, 80
2, 7613, Note_on_c, 0, 58, 80
2, 7651, Note_on_c, 0, 75, 0
2, 7651, Note_on_c, 0, 82, 0
2, 7651, Note_on_c, 0, 67, 0
2, 7675, Note_on_c, 0, 70, 80
2, 7707, Note_on_c, 0, 58, 0
2, 7709, Note_on_c, 0, 55, 0
2, 7711, Note_on_c, 0, 63, 0
2, 7733, Note_on_c, 0, 46, 80
2, 7733, Note_on_c, 0, 58, 80
2, 7808, Note_on_c, 0, 70, 0
2, 7808, Note_on_c, 0, 79, 80
2, 7825, Note_on_c, 0, 46, 0
2, 7836, Note_on_c, 0, 58, 0
2, 7843, Note_on_c, 0, 79, 0
2, 7863, Note_on_c, 0, 56, 80
2, 7863, Note_on_c, 0, 58, 80
2, 7863, Note_on_c, 0, 74, 80
2, 7865, Note_on_c, 0, 62, 80
2, 7867, Note_on_c, 0, 77, 80
2, 7869, Note_on_c, 0, 68, 80
2, 7959, Note_on_c, 0, 58, 0
2, 7961, Note_on_c, 0, 77, 0
2, 7961, Note_on_c, 0, 62, 0
2, 7961, Note_on_c, 0, 56, 0
2, 7969, Note_on_c, 0, 68, 0
2, 7969, Note_on_c, 0, 74, 0
2, 7985, Note_on_c, 0, 51, 80
2, 7990, Note_on_c, 0, 58, 80
2, 7990, Note_on_c, 0, 67, 80
2, 7992, Note_on_c, 0, 75, 80
2, 8085, Note_on_c, 0, 58, 0
2, 8089, Note_on_c, 0, 51, 0
2, 8094, Note_on_c, 0, 67, 0
2, 8094, Note_on_c, 0, 75, 0
2, 8101, Note_on_c, 0, 81, 80
2, 8121, Note_on_c, 0, 70, 80
2, 8130, Note_on_c, 0, 82, 80
2, 8147, Note_on_c, 0, 81, 0
2, 8224, Note_on_c, 0, 82, 0
2, 8224, Note_on_c, 0, 70, 0
2, 8231, Note_on_c, 0, 57, 80
2, 8253, Note_on_c, 0, 58, 80
2, 8273, Note_on_c, 0, 57, 0
2, 8352, Note_on_c, 0, 58, 0
2, 8375, Note_on_c, 0, 34, 80
2, 8379, Note_on_c, 0, 46, 80
2, 8474, Note_on_c, 0, 46, 0
2, 8476, Note_on_c, 0, 34, 0
2, 8503, Note_on_c, 0, 39, 80
2, 8503, Note_on_c, 0, 51, 80
2, 8574, Note_on_c, 0, 82, 80
2, 8598, Note_on_c, 0, 39, 0
2, 8609, Note_on_c, 0, 51, 0
2, 8638, Note_on_c, 0, 58, 80
2, 8638, Note_on_c, 0, 63, 80
2, 8638, Note_on_c, 0, 67, 80
2, 8638, Note_on_c, 0, 79, 80
2, 8646, Note_on_c, 0, 82, 0
2, 8697, Note_on_c, 0, 75, 80
2, 8706, Note_on_c, 0, 79, 0
2, 8730, Note_on_c, 0, 67, 0
2, 8730, Note_on_c, 0, 58, 0
2, 8732, Note_on_c, 0, 63, 0
2, 8752, Note_on_c, 0, 43, 80
2, 8754, Note_on_c, 0, 55, 80
2, 8754, Note_on_c, 0, 72, 80
2, 8760, Note_on_c, 0, 75, 0
2, 8818, Note_on_c, 0, 70, 80
2, 8832, Note_on_c, 0, 72, 0
2, 8854, Note_on_c, 0, 43, 0
2, 8854, Note_on_c, 0, 55, 0
2, 8878, Note_on_c, 0, 42, 80
2, 8882, Note_on_c, 0, 54, 80
2, 8882, Note_on_c, 0, 72, 80
2, 8889, Note_on_c, 0, 70, 0
2, 8951, Note_on_c, 0, 73, 80
2, 8955, Note_on_c, 0, 72, 0
2, 8979, Note_on_c, 0, 42, 0
2, 8981, Note_on_c, 0, 54, 0
2, 9008, Note_on_c, 0, 41, 80
2, 9013, Note_on_c, 0, 53, 80
2, 9013, Note_on_c, 0, 68, 80
2, 9013, Note_on_c, 0, 74, 80
2, 9020, Note_on_c, 0, 73, 0
2, 9052, Note_on_c, 0, 68, 0
2, 9052, Note_on_c, 0, 74, 0
2, 9070, Note_on_c, 0, 72, 80
2, 9076, Note_on_c, 0, 68, 80
2, 9100, Note_on_c, 0, 41, 0
2, 9107, Note_on_c, 0, 53, 0
2, 9131, Note_on_c, 0, 60, 80
2, 9133, Note_on_c, 0, 56, 80
2, 9138, Note_on_c, 0, 65, 80
2, 9170, Note_on_c, 0, 68, 0
2, 9175, Note_on_c, 0, 72, 0
2, 9199, Note_on_c, 0, 68, 80
2, 9199, Note_on_c, 0, 70, 80
2, 9232, Note_on_c, 0, 60, 0
2, 9234, Note_on_c, 0, 56, 0
2, 9236, Note_on_c, 0, 65, 0
2, 9260, Note_on_c, 0, 56, 80
2, 9260, Note_on_c, 0, 65, 80
2, 9262, Note_on_c, 0, 62, 80
2, 9359, Note_on_c, 0, 62, 0
2, 9363, Note_on_c, 0, 56, 0
2, 9363, Note_on_c, 0, 65, 0
2, 9384, Note_on_c, 0, 34, 80
2, 9385, Note_on_c, 0, 46, 80
2, 9482, Note_on_c, 0, 46, 0
2, 9482, Note_on_c, 0, 34, 0
2, 9493, Note_on_c, 0, 68, 0
2, 9493, Note_on_c, 0, 70, 0
2, 9508, Note_on_c, 0, 51, 80
2, 9510, Note_on_c, 0, 39, 80
2, 9583, Note_on_c, 0, 82, 80
2, 9612, Note_on_c, 0, 39, 0
2, 9617, Note_on_c, 0, 51, 0
2, 9644, Note_on_c, 0, 58, 80
2, 9644, Note_on_c, 0, 63, 80
2, 9648, Note_on_c, 0, 67, 80
2, 9653, Note_on_c, 0, 82, 0
2, 9653, Note_on_c, 0, 79, 80
2, 9720, Note_on_c, 0, 75, 80
2, 9724, Note_on_c, 0, 79, 0
2, 9746, Note_on_c, 0, 58, 0
2, 9751, Note_on_c, 0, 67, 0
2, 9753, Note_on_c, 0, 63, 0
2, 9780, Note_on_c, 0, 72, 80
2, 9782, Note_on_c, 0, 43, 80
2, 9782, Note_on_c, 0, 55, 80
2, 9787, Note_on_c, 0, 75, 0
2, 9855, Note_on_c, 0, 72, 0
2, 9855, Note_on_c, 0, 70, 80
2, 9879, Note_on_c, 0, 43, 0
2, 9886, Note_on_c, 0, 55, 0
2, 9908, Note_on_c, 0, 42, 80
2, 9912, Note_on_c, 0, 54, 80
2, 9914, Note_on_c, 0, 72, 80
2, 9916, Note_on_c, 0, 70, 0
2, 9983, Note_on_c, 0, 73, 80
2, 9987, Note_on_c, 0, 72, 0
2, 10011, Note_on_c, 0, 42, 0
2, 10016, Note_on_c, 0, 54, 0
2, 10038, Note_on_c, 0, 41, 80
2, 10045, Note_on_c, 0, 53, 80
2, 10045, Note_on_c, 0, 74, 80
2, 10050, Note_on_c, 0, 73, 0
2, 10050, Note_on_c, 0, 68, 80
2, 10082, Note_on_c, 0, 68, 0
2, 10087, Note_on_c, 0, 74, 0
2, 10107, Note_on_c, 0, 72, 80
2, 10112, Note_on_c, 0, 68, 80
2, 10139, Note_on_c, 0, 41, 0
2, 10146, Note_on_c, 0, 53, 0
2, 10168, Note_on_c, 0, 56, 80
2, 10173, Note_on_c, 0, 60, 80
2, 10173, Note_on_c, 0, 65, 80
2, 10212, Note_on_c, 0, 68, 0
2, 10217, Note_on_c, 0, 72, 0
2, 10234, Note_on_c, 0, 68, 80
2, 10239, Note_on_c, 0, 70, 80
2, 10272, Note_on_c, 0, 56, 0
2, 10273, Note_on_c, 0, 60, 0
2, 10275, Note_on_c, 0, 65, 0
2, 10296, Note_on_c, 0, 56, 80
2, 10296, Note_on_c, 0, 65, 80
2, 10300, Note_on_c, 0, 62, 80
2, 10399, Note_on_c, 0, 62, 0
2, 10399, Note_on_c, 0, 56, 0
2, 10404, Note_on_c, 0, 65, 0
2, 10419, Note_on_c, 0, 34, 80
2, 10424, Note_on_c, 0, 46, 80
2, 10523, Note_on_c, 0, 46, 0
2, 10523, Note_on_c, 0, 34, 0
2, 10532, Note_on_c, 0, 68, 0
2, 10536, Note_on_c, 0, 70, 0
2, 10560, Note_on_c, 0, 51, 80
2, 10565, Note_on_c, 0, 39, 80
2, 10640, Note_on_c, 0, 82, 80
2, 10664, Note_on_c, 0, 39, 0
2, 10673, Note_on_c, 0, 51, 0
2, 10697, Note_on_c, 0, 63, 80
2, 10699, Note_on_c, 0, 58, 80
2, 10704, Note_on_c, 0, 82, 0
2, 10704, Note_on_c, 0, 67, 80
2, 10704, Note_on_c, 0, 79, 80
2, 10763, Note_on_c, 0, 75, 80
2, 10772, Note_on_c, 0, 79, 0
2, 10799, Note_on_c, 0, 67, 0
2, 10799, Note_on_c, 0, 58, 0
2, 10800, Note_on_c, 0, 63, 0
2, 10818, Note_on_c, 0, 43, 80
2, 10818, Note_on_c, 0, 72, 80
2, 10820, Note_on_c, 0, 55, 80
2, 10826, Note_on_c, 0, 75, 0
2, 10888, Note_on_c, 0, 70, 80
2, 10896, Note_on_c, 0, 72, 0
2, 10917, Note_on_c, 0, 55, 0
2, 10917, Note_on_c, 0, 43, 0
2, 10945, Note_on_c, 0, 42, 80
2, 10945, Note_on_c, 0, 54, 80
2, 10945, Note_on_c, 0, 72, 80
2, 10956, Note_on_c, 0, 70, 0
2, 11014, Note_on_c, 0, 72, 0
2, 11014, Note_on_c, 0, 73, 80
2, 11042, Note_on_c, 0, 54, 0
2, 11042, Note_on_c, 0, 42, 0
2, 11069, Note_on_c, 0, 41, 80
2, 11069, Note_on_c, 0, 53, 80
2, 11069, Note_on_c, 0, 74, 80
2, 11074, Note_on_c, 0, 70, 80
2, 11079, Note_on_c, 0, 73, 0
2, 11136, Note_on_c, 0, 75, 80
2, 11145, Note_on_c, 0, 74, 0
2, 11162, Note_on_c, 0, 41, 0
2, 11169, Note_on_c, 0, 53, 0
2, 11198, Note_on_c, 0, 53, 80
2, 11198, Note_on_c, 0, 58, 80
2, 11203, Note_on_c, 0, 75, 0
2, 11203, Note_on_c, 0, 62, 80
2, 11203, Note_on_c, 0, 76, 80
2, 11233, Note_on_c, 0, 70, 0
2, 11262, Note_on_c, 0, 70, 80
2, 11262, Note_on_c, 0, 74, 80
2, 11262, Note_on_c, 0, 77, 80
2, 11267, Note_on_c, 0, 76, 0
2, 11294, Note_on_c, 0, 53, 0
2, 11296, Note_on_c, 0, 62, 0
2, 11298, Note_on_c, 0, 58, 0
2, 11318, Note_on_c, 0, 38, 80
2, 11325, Note_on_c, 0, 50, 80
2, 11362, Note_on_c, 0, 77, 0
2, 11364, Note_on_c, 0, 70, 0
2, 11366, Note_on_c, 0, 74, 0
2, 11388, Note_on_c, 0, 70, 80
2, 11390, Note_on_c, 0, 76, 80
2, 11390, Note_on_c, 0, 81, 80
2, 11421, Note_on_c, 0, 38, 0
2, 11425, Note_on_c, 0, 50, 0
2, 11448, Note_on_c, 0, 49, 80
2, 11461, Note_on_c, 0, 37, 80
2, 11494, Note_on_c, 0, 81, 0
2, 11520, Note_on_c, 0, 79, 80
2, 11547, Note_on_c, 0, 37, 0
2, 11552, Note_on_c, 0, 49, 0
2, 11554, Note_on_c, 0, 76, 0
2, 11561, Note_on_c, 0, 70, 0
2, 11561, Note_on_c, 0, 79, 0
2, 11578, Note_on_c, 0, 36, 80
2, 11583, Note_on_c, 0, 77, 80
2, 11588, Note_on_c, 0, 75, 80
2, 11592, Note_on_c, 0, 48, 80
2, 11592, Note_on_c, 0, 69, 80
2, 11652, Note_on_c, 0, 77, 0
2, 11654, Note_on_c, 0, 79, 80
2, 11674, Note_on_c, 0, 36, 0
2, 11681, Note_on_c, 0, 48, 0
2, 11708, Note_on_c, 0, 57, 80
2, 11712, Note_on_c, 0, 53, 80
2, 11712, Note_on_c, 0, 63, 80
2, 11717, Note_on_c, 0, 80, 80
2, 11724, Note_on_c, 0, 79, 0
2, 11755, Note_on_c, 0, 69, 0
2, 11755, Note_on_c, 0, 75, 0
2, 11779, Note_on_c, 0, 81, 80
2, 11781, Note_on_c, 0, 69, 80
2, 11781, Note_on_c, 0, 75, 80
2, 11785, Note_on_c, 0, 80, 0
2, 11814, Note_on_c, 0, 53, 0
2, 11814, Note_on_c, 0, 57, 0
2, 11814, Note_on_c, 0, 63, 0
2, 11834, Note_on_c, 0, 41, 80
2, 11836, Note_on_c, 0, 53, 80
2, 11882, Note_on_c, 0, 75, 0
2, 11882, Note_on_c, 0, 69, 0
2, 11884, Note_on_c, 0, 81, 0
2, 11904, Note_on_c, 0, 75, 80
2, 11904, Note_on_c, 0, 81, 80
2, 11909, Note_on_c, 0, 86, 80
2, 11938, Note_on_c, 0, 41, 0
2, 11945, Note_on_c, 0, 53, 0
2, 11967, Note_on_c, 0, 57, 80
2, 11972, Note_on_c, 0, 63, 80
2, 11972, Note_on_c, 0, 65, 80
2, 12011, Note_on_c, 0, 86, 0
2, 12040, Note_on_c, 0, 84, 80
2, 12072, Note_on_c, 0, 63, 0
2, 12072, Note_on_c, 0, 57, 0
2, 12072, Note_on_c, 0, 65, 0
2, 12074, Note_on_c, 0, 84, 0
2, 12074, Note_on_c, 0, 75, 0
2, 12076, Note_on_c, 0, 81, 0
2, 12096, Note_on_c, 0, 46, 80
2, 12096, Note_on_c, 0, 58, 80
2, 12101, Note_on_c, 0, 74, 80
2, 12101, Note_on_c, 0, 80, 80
2, 12106, Note_on_c, 0, 82, 80
2, 12166, Note_on_c, 0, 84, 80
2, 12170, Note_on_c, 0, 82, 0
2, 12194, Note_on_c, 0, 46, 0
2, 12203, Note_on_c, 0, 58, 0
2, 12232, Note_on_c, 0, 58, 80
2, 12234, Note_on_c, 0, 62, 80
2, 12234, Note_on_c, 0, 68, 80
2, 12236, Note_on_c, 0, 84, 0
2, 12236, Note_on_c, 0, 85, 80
2, 12266, Note_on_c, 0, 80, 0
2, 12268, Note_on_c, 0, 74, 0
2, 12290, Note_on_c, 0, 74, 80
2, 12295, Note_on_c, 0, 80, 80
2, 12295, Note_on_c, 0, 86, 80
2, 12300, Note_on_c, 0, 85, 0
2, 12324, Note_on_c, 0, 62, 0
2, 12326, Note_on_c, 0, 58, 0
2, 12331, Note_on_c, 0, 68, 0
2, 12353, Note_on_c, 0, 41, 80
2, 12358, Note_on_c, 0, 53, 80
2, 12395, Note_on_c, 0, 80, 0
2, 12400, Note_on_c, 0, 86, 0
2, 12400, Note_on_c, 0, 74, 0
2, 12424, Note_on_c, 0, 80, 80
2, 12424, Note_on_c, 0, 86, 80
2, 12424, Note_on_c, 0, 91, 80
2, 12453, Note_on_c, 0, 41, 0
2, 12455, Note_on_c, 0, 53, 0
2, 12483, Note_on_c, 0, 58, 80
2, 12485, Note_on_c, 0, 62, 80
2, 12490, Note_on_c, 0, 68, 80
2, 12534, Note_on_c, 0, 91, 0
2, 12554, Note_on_c, 0, 89, 80
2, 12583, Note_on_c, 0, 58, 0
2, 12585, Note_on_c, 0, 62, 0
2, 12587, Note_on_c, 0, 86, 0
2, 12592, Note_on_c, 0, 68, 0
2, 12592, Note_on_c, 0, 89, 0
2, 12592, Note_on_c, 0, 80, 0
2, 12616, Note_on_c, 0, 51, 80
2, 12618, Note_on_c, 0, 39, 80
2, 12689, Note_on_c, 0, 82, 80
2, 12718, Note_on_c, 0, 39, 0
2, 12722, Note_on_c, 0, 51, 0
2, 12751, Note_on_c, 0, 58, 80
2, 12751, Note_on_c, 0, 63, 80
2, 12751, Note_on_c, 0, 67, 80
2, 12751, Note_on_c, 0, 79, 80
2, 12756, Note_on_c, 0, 82, 0
2, 12816, Note_on_c, 0, 75, 80
2, 12824, Note_on_c, 0, 79, 0
2, 12851, Note_on_c, 0, 67, 0
2, 12851, Note_on_c, 0, 58, 0
2, 12856, Note_on_c, 0, 63, 0
2, 12878, Note_on_c, 0, 43, 80
2, 12878, Note_on_c, 0, 55, 80
2, 12883, Note_on_c, 0, 75, 0
2, 12883, Note_on_c, 0, 72, 80
2, 12949, Note_on_c, 0, 70, 80
2, 12958, Note_on_c, 0, 72, 0
2, 12982, Note_on_c, 0, 43, 0
2, 12986, Note_on_c, 0, 55, 0
2, 13013, Note_on_c, 0, 42, 80
2, 13013, Note_on_c, 0, 72, 80
2, 13015, Note_on_c, 0, 54, 80
2, 13024, Note_on_c, 0, 70, 0
2, 13085, Note_on_c, 0, 72, 0
2, 13085, Note_on_c, 0, 73, 80
2, 13112, Note_on_c, 0, 42, 0
2, 13117, Note_on_c, 0, 54, 0
2, 13139, Note_on_c, 0, 41, 80
2, 13139, Note_on_c, 0, 53, 80
2, 13144, Note_on_c, 0, 74, 80
2, 13149, Note_on_c, 0, 68, 80
2, 13153, Note_on_c, 0, 73, 0
2, 13182, Note_on_c, 0, 68, 0
2, 13184, Note_on_c, 0, 74, 0
2, 13204, Note_on_c, 0, 72, 80
2, 13211, Note_on_c, 0, 68, 80
2, 13242, Note_on_c, 0, 41, 0
2, 13244, Note_on_c, 0, 53, 0
2, 13271, Note_on_c, 0, 56, 80
2, 13272, Note_on_c, 0, 60, 80
2, 13272, Note_on_c, 0, 65, 80
2, 13310, Note_on_c, 0, 72, 0
2, 13332, Note_on_c, 0, 70, 80
2, 13369, Note_on_c, 0, 60, 0
2, 13369, Note_on_c, 0, 65, 0
2, 13369, Note_on_c, 0, 56, 0
2, 13390, Note_on_c, 0, 65, 80
2, 13392, Note_on_c, 0, 56, 80
2, 13393, Note_on_c, 0, 62, 80
2, 13487, Note_on_c, 0, 62, 0
2, 13493, Note_on_c, 0, 56, 0
2, 13495, Note_on_c, 0, 65, 0
2, 13511, Note_on_c, 0, 34, 80
2, 13517, Note_on_c, 0, 46, 80
2, 13608, Note_on_c, 0, 46, 0
2, 13612, Note_on_c, 0, 34, 0
2, 13619, Note_on_c, 0, 70, 0
2, 13621, Note_on_c, 0, 68, 0
2, 13636, Note_on_c, 0, 39, 80
2, 13636, Note_on_c, 0, 51, 80
2, 13709, Note_on_c, 0, 82, 80
2, 13738, Note_on_c, 0, 39, 0
2, 13745, Note_on_c, 0, 51, 0
2, 13772, Note_on_c, 0, 58, 80
2, 13774, Note_on_c, 0, 63, 80
2, 13776, Note_on_c, 0, 67, 80
2, 13776, Note_on_c, 0, 79, 80
2, 13780, Note_on_c, 0, 82, 0
2, 13840, Note_on_c, 0, 75, 80
2, 13845, Note_on_c, 0, 79, 0
2, 13873, Note_on_c, 0, 58, 0
2, 13878, Note_on_c, 0, 67, 0
2, 13878, Note_on_c, 0, 63, 0
2, 13902, Note_on_c, 0, 43, 80
2, 13907, Note_on_c, 0, 75, 0
2, 13907, Note_on_c, 0, 55, 80
2, 13907, Note_on_c, 0, 72, 80
2, 13968, Note_on_c, 0, 70, 80
2, 13973, Note_on_c, 0, 72, 0
2, 14000, Note_on_c, 0, 43, 0
2, 14009, Note_on_c, 0, 55, 0
2, 14029, Note_on_c, 0, 42, 80
2, 14034, Note_on_c, 0, 54, 80
2, 14034, Note_on_c, 0, 72, 80
2, 14042, Note_on_c, 0, 70, 0
2, 14100, Note_on_c, 0, 73, 80
2, 14102, Note_on_c, 0, 72, 0
2, 14129, Note_on_c, 0, 42, 0
2, 14134, Note_on_c, 0, 54, 0
2, 14158, Note_on_c, 0, 41, 80
2, 14160, Note_on_c, 0, 53, 80
2, 14166, Note_on_c, 0, 73, 0
2, 14166, Note_on_c, 0, 68, 80
2, 14166, Note_on_c, 0, 74, 80
2, 14199, Note_on_c, 0, 74, 0
2, 14199, Note_on_c, 0, 68, 0
2, 14221, Note_on_c, 0, 72, 80
2, 14226, Note_on_c, 0, 68, 80
2, 14255, Note_on_c, 0, 41, 0
2, 14261, Note_on_c, 0, 53, 0
2, 14288, Note_on_c, 0, 56, 80
2, 14288, Note_on_c, 0, 60, 80
2, 14288, Note_on_c, 0, 65, 80
2, 14324, Note_on_c, 0, 72, 0
2, 14326, Note_on_c, 0, 68, 0
2, 14350, Note_on_c, 0, 70, 80
2, 14352, Note_on_c, 0, 68, 80
2, 14387, Note_on_c, 0, 60, 0
2, 14387, Note_on_c, 0, 65, 0
2, 14387, Note_on_c, 0, 56, 0
2, 14411, Note_on_c, 0, 56, 80
2, 14411, Note_on_c, 0, 65, 80
2, 14422, Note_on_c, 0, 62, 80
2, 14510, Note_on_c, 0, 62, 0
2, 14510, Note_on_c, 0, 65, 0
2, 14512, Note_on_c, 0, 56, 0
2, 14534, Note_on_c, 0, 46, 80
2, 14536, Note_on_c, 0, 34, 80
2, 14633, Note_on_c, 0, 34, 0
2, 14635, Note_on_c, 0, 46, 0
2, 14641, Note_on_c, 0, 70, 0
2, 14643, Note_on_c, 0, 68, 0
2, 14659, Note_on_c, 0, 51, 80
2, 14664, Note_on_c, 0, 39, 80
2, 14735, Note_on_c, 0, 82, 80
2, 14763, Note_on_c, 0, 39, 0
2, 14768, Note_on_c, 0, 51, 0
2, 14788, Note_on_c, 0, 51, 80
2, 14793, Note_on_c, 0, 58, 80
2, 14793, Note_on_c, 0, 61, 80
2, 14798, Note_on_c, 0, 79, 80
2, 14805, Note_on_c, 0, 82, 0
2, 14862, Note_on_c, 0, 75, 80
2, 14871, Note_on_c, 0, 79, 0
2, 14888, Note_on_c, 0, 61, 0
2, 14893, Note_on_c, 0, 51, 0
2, 14898, Note_on_c, 0, 58, 0
2, 14922, Note_on_c, 0, 46, 80
2, 14927, Note_on_c, 0, 58, 80
2, 14931, Note_on_c, 0, 75, 0
2, 14931, Note_on_c, 0, 73, 80
2, 14996, Note_on_c, 0, 84, 80
2, 15026, Note_on_c, 0, 58, 0
2, 15026, Note_on_c, 0, 46, 0
2, 15053, Note_on_c, 0, 47, 80
2, 15058, Note_on_c, 0, 59, 80
2, 15096, Note_on_c, 0, 73, 0
2, 15100, Note_on_c, 0, 84, 0
2, 15122, Note_on_c, 0, 70, 80
2, 15127, Note_on_c, 0, 75, 80
2, 15127, Note_on_c, 0, 82, 80
2, 15154, Note_on_c, 0, 47, 0
2, 15159, Note_on_c, 0, 59, 0
2, 15188, Note_on_c, 0, 60, 80
2, 15196, Note_on_c, 0, 48, 80
2, 15258, Note_on_c, 0, 80, 80
2, 15264, Note_on_c, 0, 82, 0
2, 15285, Note_on_c, 0, 48, 0
2, 15289, Note_on_c, 0, 60, 0
2, 15296, Note_on_c, 0, 75, 0
2, 15316, Note_on_c, 0, 60, 80
2, 15316, Note_on_c, 0, 56, 80
2, 15318, Note_on_c, 0, 63, 80
2, 15323, Note_on_c, 0, 75, 80
2, 15330, Note_on_c, 0, 80, 0
2, 15360, Note_on_c, 0, 70, 0
2, 15389, Note_on_c, 0, 68, 80
2, 15391, Note_on_c, 0, 75, 0
2, 15418, Note_on_c, 0, 56, 0
2, 15423, Note_on_c, 0, 60, 0
2, 15425, Note_on_c, 0, 63, 0
2, 15447, Note_on_c, 0, 47, 80
2, 15452, Note_on_c, 0, 59, 80
2, 15520, Note_on_c, 0, 75, 80
2, 15547, Note_on_c, 0, 47, 0
2, 15553, Note_on_c, 0, 59, 0
2, 15577, Note_on_c, 0, 56, 80
2, 15582, Note_on_c, 0, 59, 80
2, 15582, Note_on_c, 0, 63, 80
2, 15582, Note_on_c, 0, 77, 80
2, 15587, Note_on_c, 0, 75, 0
2, 15648, Note_on_c, 0, 77, 0
2, 15648, Note_on_c, 0, 78, 80
2, 15679, Note_on_c, 0, 59, 0
2, 15681, Note_on_c, 0, 63, 0
2, 15681, Note_on_c, 0, 56, 0
2, 15703, Note_on_c, 0, 46, 80
2, 15708, Note_on_c, 0, 58, 80
2, 15708, Note_on_c, 0, 67, 80
2, 15708, Note_on_c, 0, 75, 80
2, 15713, Note_on_c, 0, 68, 0
2, 15713, Note_on_c, 0, 78, 0
2, 15713, Note_on_c, 0, 79, 80
2, 15744, Note_on_c, 0, 79, 0
2, 15776, Note_on_c, 0, 82, 80
2, 15796, Note_on_c, 0, 46, 0
2, 15801, Note_on_c, 0, 58, 0
2, 15825, Note_on_c, 0, 55, 80
2, 15825, Note_on_c, 0, 58, 80
2, 15834, Note_on_c, 0, 63, 80
2, 15864, Note_on_c, 0, 75, 0
2, 15864, Note_on_c, 0, 67, 0
2, 15869, Note_on_c, 0, 82, 0
2, 15896, Note_on_c, 0, 70, 80
2, 15925, Note_on_c, 0, 58, 0
2, 15927, Note_on_c, 0, 55, 0
2, 15929, Note_on_c, 0, 63, 0
2, 15953, Note_on_c, 0, 46, 80
2, 15953, Note_on_c, 0, 58, 80
2, 16024, Note_on_c, 0, 79, 80
2, 16046, Note_on_c, 0, 46, 0
2, 16051, Note_on_c, 0, 58, 0
2, 16057, Note_on_c, 0, 70, 0
2, 16059, Note_on_c, 0, 79, 0
2, 16083, Note_on_c, 0, 56, 80
2, 16088, Note_on_c, 0, 58, 80
2, 16088, Note_on_c, 0, 68, 80
2, 16088, Note_on_c, 0, 74, 80
2, 16088, Note_on_c, 0, 77, 80
2, 16090, Note_on_c, 0, 62, 80
2, 16183, Note_on_c, 0, 58, 0
2, 16185, Note_on_c, 0, 77, 0
2, 16185, Note_on_c, 0, 62, 0
2, 16190, Note_on_c, 0, 68, 0
2, 16190, Note_on_c, 0, 56, 0
2, 16195, Note_on_c, 0, 74, 0
2, 16210, Note_on_c, 0, 51, 80
2, 16215, Note_on_c, 0, 58, 80
2, 16222, Note_on_c, 0, 67, 80
2, 16222, Note_on_c, 0, 75, 80
2, 16319, Note_on_c, 0, 58, 0
2, 16319, Note_on_c, 0, 51, 0
2, 16323, Note_on_c, 0, 67, 0
2, 16323, Note_on_c, 0, 75, 0
2, 16354, Note_on_c, 0, 82, 80
2, 16418, Note_on_c, 0, 70, 80
2, 16420, Note_on_c, 0, 82, 0
2, 16517, Note_on_c, 0, 70, 0
2, 16544, Note_on_c, 0, 70, 80
2, 16610, Note_on_c, 0, 58, 80
2, 16610, Note_on_c, 0, 67, 80
2, 16615, Note_on_c, 0, 70, 0
2, 16702, Note_on_c, 0, 58, 0
2, 16708, Note_on_c, 0, 67, 0
2, 16730, Note_on_c, 0, 44, 80
2, 16732, Note_on_c, 0, 60, 80
2, 16739, Note_on_c, 0, 67, 80
2, 16768, Note_on_c, 0, 67, 0
2, 16792, Note_on_c, 0, 65, 80
2, 16824, Note_on_c, 0, 44, 0
2, 16853, Note_on_c, 0, 56, 80
2, 16886, Note_on_c, 0, 60, 0
2, 16895, Note_on_c, 0, 65, 0
2, 16917, Note_on_c, 0, 60, 80
2, 16921, Note_on_c, 0, 68, 80
2, 16950, Note_on_c, 0, 56, 0
2, 16979, Note_on_c, 0, 41, 80
2, 17018, Note_on_c, 0, 68, 0
2, 17049, Note_on_c, 0, 67, 80
2, 17078, Note_on_c, 0, 41, 0
2, 17085, Note_on_c, 0, 67, 0
2, 17107, Note_on_c, 0, 53, 80
2, 17117, Note_on_c, 0, 68, 80
2, 17153, Note_on_c, 0, 68, 0
2, 17180, Note_on_c, 0, 70, 80
2, 17212, Note_on_c, 0, 53, 0
2, 17212, Note_on_c, 0, 60, 0
2, 17214, Note_on_c, 0, 70, 0
2, 17236, Note_on_c, 0, 46, 80
2, 17236, Note_on_c, 0, 58, 80
2, 17241, Note_on_c, 0, 71, 80
2, 17277, Note_on_c, 0, 71, 0
2, 17304, Note_on_c, 0, 72, 80
2, 17334, Note_on_c, 0, 46, 0
2, 17339, Note_on_c, 0, 58, 0
2, 17366, Note_on_c, 0, 56, 80
2, 17366, Note_on_c, 0, 58, 80
2, 17371, Note_on_c, 0, 62, 80
2, 17408, Note_on_c, 0, 72, 0
2, 17432, Note_on_c, 0, 74, 80
2, 17437, Note_on_c, 0, 68, 80
2, 17461, Note_on_c, 0, 58, 0
2, 17466, Note_on_c, 0, 62, 0
2, 17466, Note_on_c, 0, 56, 0
2, 17495, Note_on_c, 0, 53, 80
2, 17496, Note_on_c, 0, 41, 80
2, 17534, Note_on_c, 0, 74, 0
2, 17565, Note_on_c, 0, 79, 80
2, 17587, Note_on_c, 0, 41, 0
2, 17597, Note_on_c, 0, 53, 0
2, 17599, Note_on_c, 0, 68, 0
2, 17604, Note_on_c, 0, 79, 0
2, 17621, Note_on_c, 0, 56, 80
2, 17626, Note_on_c, 0, 58, 80
2, 17626, Note_on_c, 0, 68, 80
2, 17626, Note_on_c, 0, 74, 80
2, 17628, Note_on_c, 0, 62, 80
2, 17628, Note_on_c, 0, 77, 80
2, 17718, Note_on_c, 0, 58, 0
2, 17723, Note_on_c, 0, 62, 0
2, 17723, Note_on_c, 0, 56, 0
2, 17728, Note_on_c, 0, 74, 0
2, 17728, Note_on_c, 0, 77, 0
2, 17728, Note_on_c, 0, 68, 0
2, 17748, Note_on_c, 0, 39, 80
2, 17748, Note_on_c, 0, 74, 80
2, 17750, Note_on_c, 0, 51, 80
2, 17752, Note_on_c, 0, 67, 80
2, 17794, Note_on_c, 0, 74, 0
2, 17823, Note_on_c, 0, 75, 80
2, 17850, Note_on_c, 0, 39, 0
2, 17858, Note_on_c, 0, 51, 0
2, 17882, Note_on_c, 0, 58, 80
2, 17884, Note_on_c, 0, 55, 80
2, 17886, Note_on_c, 0, 63, 80
2, 17919, Note_on_c, 0, 67, 0
2, 17919, Note_on_c, 0, 75, 0
2, 17943, Note_on_c, 0, 67, 80
2, 17948, Note_on_c, 0, 75, 80
2, 17952, Note_on_c, 0, 79, 80
2, 18043, Note_on_c, 0, 58, 0
2, 18049, Note_on_c, 0, 63, 0
2, 18049, Note_on_c, 0, 55, 0
2, 18073, Note_on_c, 0, 39, 80
2, 18075, Note_on_c, 0, 51, 80
2, 18135, Note_on_c, 0, 38, 80
2, 18140, Note_on_c, 0, 39, 0
2, 18140, Note_on_c, 0, 50, 80
2, 18144, Note_on_c, 0, 51, 0
2, 18204, Note_on_c, 0, 38, 0
2, 18204, Note_on_c, 0, 49, 80
2, 18211, Note_on_c, 0, 50, 0
2, 18216, Note_on_c, 0, 37, 80
2, 18264, Note_on_c, 0, 36, 80
2, 18269, Note_on_c, 0, 37, 0
2, 18271, Note_on_c, 0, 49, 0
2, 18276, Note_on_c, 0, 48, 80
2, 18298, Note_on_c, 0, 67, 0
2, 18312, Note_on_c, 0, 79, 0
2, 18312, Note_on_c, 0, 75, 0
2, 18338, Note_on_c, 0, 78, 80
2, 18367, Note_on_c, 0, 36, 0
2, 18367, Note_on_c, 0, 48, 0
2, 18374, Note_on_c, 0, 78, 0
2, 18398, Note_on_c, 0, 55, 80
2, 18398, Note_on_c, 0, 58, 80
2, 18398, Note_on_c, 0, 60, 80
2, 18398, Note_on_c, 0, 64, 80
2, 18403, Note_on_c, 0, 79, 80
2, 18442, Note_on_c, 0, 79, 0
2, 18462, Note_on_c, 0, 70, 80
2, 18464, Note_on_c, 0, 80, 80
2, 18466, Note_on_c, 0, 76, 80
2, 18495, Note_on_c, 0, 55, 0
2, 18497, Note_on_c, 0, 64, 0
2, 18497, Note_on_c, 0, 58, 0
2, 18502, Note_on_c, 0, 60, 0
2, 18522, Note_on_c, 0, 40, 80
2, 18530, Note_on_c, 0, 52, 80
2, 18561, Note_on_c, 0, 76, 0
2, 18566, Note_on_c, 0, 70, 0
2, 18568, Note_on_c, 0, 80, 0
2, 18592, Note_on_c, 0, 76, 80
2, 18619, Note_on_c, 0, 52, 0
2, 18619, Note_on_c, 0, 40, 0
2, 18629, Note_on_c, 0, 76, 0
2, 18649, Note_on_c, 0, 60, 80
2, 18654, Note_on_c, 0, 55, 80
2, 18654, Note_on_c, 0, 58, 80
2, 18654, Note_on_c, 0, 64, 80
2, 18654, Note_on_c, 0, 76, 80
2, 18659, Note_on_c, 0, 70, 80
2, 18659, Note_on_c, 0, 79, 80
2, 18749, Note_on_c, 0, 58, 0
2, 18749, Note_on_c, 0, 60, 0
2, 18754, Note_on_c, 0, 76, 0
2, 18754, Note_on_c, 0, 64, 0
2, 18754, Note_on_c, 0, 55, 0
2, 18759, Note_on_c, 0, 79, 0
2, 18759, Note_on_c, 0, 70, 0
2, 18786, Note_on_c, 0, 48, 80
2, 18786, Note_on_c, 0, 76, 80
2, 18821, Note_on_c, 0, 76, 0
2, 18843, Note_on_c, 0, 75, 80
2, 18848, Note_on_c, 0, 77, 80
2, 18855, Note_on_c, 0, 69, 80
2, 18879, Note_on_c, 0, 48, 0
2, 18908, Note_on_c, 0, 57, 80
2, 18912, Note_on_c, 0, 53, 80
2, 18912, Note_on_c, 0, 63, 80
2, 18948, Note_on_c, 0, 77, 0
2, 18953, Note_on_c, 0, 69, 0
2, 18953, Note_on_c, 0, 75, 0
2, 18975, Note_on_c, 0, 75, 80
2, 18980, Note_on_c, 0, 69, 80
2, 18980, Note_on_c, 0, 79, 80
2, 19008, Note_on_c, 0, 57, 0
2, 19008, Note_on_c, 0, 53, 0
2, 19013, Note_on_c, 0, 63, 0
2, 19037, Note_on_c, 0, 41, 80
2, 19136, Note_on_c, 0, 41, 0
2, 19147, Note_on_c, 0, 75, 0
2, 19149, Note_on_c, 0, 79, 0
2, 19149, Note_on_c, 0, 69, 0
2, 19166, Note_on_c, 0, 53, 80
2, 19166, Note_on_c, 0, 57, 80
2, 19166, Note_on_c, 0, 63, 80
2, 19168, Note_on_c, 0, 69, 80
2, 19173, Note_on_c, 0, 75, 80
2, 19173, Note_on_c, 0, 77, 80
2, 19266, Note_on_c, 0, 53, 0
2, 19268, Note_on_c, 0, 77, 0
2, 19270, Note_on_c, 0, 63, 0
2, 19272, Note_on_c, 0, 57, 0
2, 19272, Note_on_c, 0, 69, 0
2, 19272, Note_on_c, 0, 75, 0
2, 19292, Note_on_c, 0, 34, 80
2, 19292, Note_on_c, 0, 46, 80
2, 19296, Note_on_c, 0, 81, 80
2, 19339, Note_on_c, 0, 81, 0
2, 19366, Note_on_c, 0, 74, 80
2, 19366, Note_on_c, 0, 80, 80
2, 19366, Note_on_c, 0, 82, 80
2, 19392, Note_on_c, 0, 46, 0
2, 19399, Note_on_c, 0, 34, 0
2, 19423, Note_on_c, 0, 56, 80
2, 19423, Note_on_c, 0, 58, 80
2, 19428, Note_on_c, 0, 62, 80
2, 19464, Note_on_c, 0, 82, 0
2, 19465, Note_on_c, 0, 80, 0
2, 19465, Note_on_c, 0, 74, 0
2, 19489, Note_on_c, 0, 74, 80
2, 19491, Note_on_c, 0, 80, 80
2, 19491, Note_on_c, 0, 84, 80
2, 19520, Note_on_c, 0, 58, 0
2, 19522, Note_on_c, 0, 56, 0
2, 19522, Note_on_c, 0, 62, 0
2, 19546, Note_on_c, 0, 41, 80
2, 19551, Note_on_c, 0, 53, 80
2, 19644, Note_on_c, 0, 41, 0
2, 19646, Note_on_c, 0, 53, 0
2, 19648, Note_on_c, 0, 84, 0
2, 19650, Note_on_c, 0, 80, 0
2, 19655, Note_on_c, 0, 74, 0
2, 19670, Note_on_c, 0, 62, 80
2, 19672, Note_on_c, 0, 56, 80
2, 19672, Note_on_c, 0, 58, 80
2, 19674, Note_on_c, 0, 74, 80
2, 19676, Note_on_c, 0, 80, 80
2, 19676, Note_on_c, 0, 82, 80
2, 19766, Note_on_c, 0, 58, 0
2, 19768, Note_on_c, 0, 62, 0
2, 19768, Note_on_c, 0, 56, 0
2, 19773, Note_on_c, 0, 82, 0
2, 19777, Note_on_c, 0, 74, 0
2, 19779, Note_on_c, 0, 80, 0
2, 19793, Note_on_c, 0, 39, 80
2, 19798, Note_on_c, 0, 51, 80
2, 19893, Note_on_c, 0, 39, 0
2, 19899, Note_on_c, 0, 51, 0
2, 19921, Note_on_c, 0, 55, 80
2, 19923, Note_on_c, 0, 58, 80
2, 19925, Note_on_c, 0, 63, 80
2, 19925, Note_on_c, 0, 87, 80
2, 19930, Note_on_c, 0, 79, 80
2, 19994, Note_on_c, 0, 91, 80
2, 19999, Note_on_c, 0, 87, 0
2, 20023, Note_on_c, 0, 55, 0
2, 20025, Note_on_c, 0, 58, 0
2, 20027, Note_on_c, 0, 63, 0
2, 20034, Note_on_c, 0, 79, 0
2, 20049, Note_on_c, 0, 34, 80
2, 20051, Note_on_c, 0, 46, 80
2, 20058, Note_on_c, 0, 79, 80
2, 20058, Note_on_c, 0, 86, 80
2, 20064, Note_on_c, 0, 91, 0
2, 20119, Note_on_c, 0, 91, 80
2, 20128, Note_on_c, 0, 86, 0
2, 20150, Note_on_c, 0, 46, 0
2, 20157, Note_on_c, 0, 34, 0
2, 20163, Note_on_c, 0, 79, 0
2, 20184, Note_on_c, 0, 55, 80
2, 20190, Note_on_c, 0, 58, 80
2, 20190, Note_on_c, 0, 63, 80
2, 20190, Note_on_c, 0, 84, 80
2, 20195, Note_on_c, 0, 79, 80
2, 20197, Note_on_c, 0, 91, 0
2, 20258, Note_on_c, 0, 84, 0
2, 20258, Note_on_c, 0, 91, 80
2, 20285, Note_on_c, 0, 58, 0
2, 20290, Note_on_c, 0, 55, 0
2, 20299, Note_on_c, 0, 63, 0
2, 20301, Note_on_c, 0, 79, 0
2, 20318, Note_on_c, 0, 39, 80
2, 20318, Note_on_c, 0, 51, 80
2, 20323, Note_on_c, 0, 79, 80
2, 20328, Note_on_c, 0, 82, 80
2, 20329, Note_on_c, 0, 91, 0
2, 20394, Note_on_c, 0, 84, 80
2, 20399, Note_on_c, 0, 82, 0
2, 20400, Note_on_c, 0, 79, 0
2, 20423, Note_on_c, 0, 39, 0
2, 20427, Note_on_c, 0, 51, 0
2, 20451, Note_on_c, 0, 55, 80
2, 20451, Note_on_c, 0, 63, 80
2, 20453, Note_on_c, 0, 58, 80
2, 20458, Note_on_c, 0, 82, 80
2, 20463, Note_on_c, 0, 84, 0
2, 20524, Note_on_c, 0, 82, 0
2, 20524, Note_on_c, 0, 79, 80
2, 20584, Note_on_c, 0, 75, 80
2, 20592, Note_on_c, 0, 79, 0
2, 20647, Note_on_c, 0, 72, 80
2, 20654, Note_on_c, 0, 75, 0
2, 20712, Note_on_c, 0, 70, 80
2, 20716, Note_on_c, 0, 72, 0
2, 20778, Note_on_c, 0, 67, 80
2, 20780, Note_on_c, 0, 70, 0
2, 20804, Note_on_c, 0, 58, 0
2, 20806, Note_on_c, 0, 55, 0
2, 20810, Note_on_c, 0, 63, 0
2, 20834, Note_on_c, 0, 44, 80
2, 20839, Note_on_c, 0, 60, 80
2, 20929, Note_on_c, 0, 44, 0
2, 20940, Note_on_c, 0, 67, 0
2, 20964, Note_on_c, 0, 56, 80
2, 20969, Note_on_c, 0, 65, 80
2, 21000, Note_on_c, 0, 65, 0
2, 21004, Note_on_c, 0, 60, 0
2, 21026, Note_on_c, 0, 60, 80
2, 21037, Note_on_c, 0, 68, 80
2, 21066, Note_on_c, 0, 56, 0
2, 21093, Note_on_c, 0, 41, 80
2, 21135, Note_on_c, 0, 68, 0
2, 21162, Note_on_c, 0, 67, 80
2, 21186, Note_on_c, 0, 41, 0
2, 21194, Note_on_c, 0, 67, 0
2, 21221, Note_on_c, 0, 53, 80
2, 21223, Note_on_c, 0, 68, 80
2, 21261, Note_on_c, 0, 68, 0
2, 21285, Note_on_c, 0, 70, 80
2, 21320, Note_on_c, 0, 53, 0
2, 21320, Note_on_c, 0, 60, 0
2, 21325, Note_on_c, 0, 70, 0
2, 21352, Note_on_c, 0, 46, 80
2, 21352, Note_on_c, 0, 58, 80
2, 21357, Note_on_c, 0, 71, 80
2, 21389, Note_on_c, 0, 71, 0
2, 21413, Note_on_c, 0, 72, 80
2, 21446, Note_on_c, 0, 46, 0
2, 21451, Note_on_c, 0, 58, 0
2, 21483, Note_on_c, 0, 56, 80
2, 21483, Note_on_c, 0, 58, 80
2, 21485, Note_on_c, 0, 62, 80
2, 21521, Note_on_c, 0, 72, 0
2, 21550, Note_on_c, 0, 68, 80
2, 21550, Note_on_c, 0, 74, 80
2, 21580, Note_on_c, 0, 56, 0
2, 21580, Note_on_c, 0, 62, 0
2, 21580, Note_on_c, 0, 58, 0
2, 21604, Note_on_c, 0, 41, 80
2, 21611, Note_on_c, 0, 53, 80
2, 21650, Note_on_c, 0, 74, 0
2, 21681, Note_on_c, 0, 79, 80
2, 21705, Note_on_c, 0, 41, 0
2, 21712, Note_on_c, 0, 53, 0
2, 21712, Note_on_c, 0, 68, 0
2, 21717, Note_on_c, 0, 79, 0
2, 21734, Note_on_c, 0, 56, 80
2, 21739, Note_on_c, 0, 58, 80
2, 21744, Note_on_c, 0, 62, 80
2, 21744, Note_on_c, 0, 68, 80
2, 21744, Note_on_c, 0, 74, 80
2, 21744, Note_on_c, 0, 77, 80
2, 21837, Note_on_c, 0, 58, 0
2, 21837, Note_on_c, 0, 56, 0
2, 21839, Note_on_c, 0, 62, 0
2, 21839, Note_on_c, 0, 68, 0
2, 21839, Note_on_c, 0, 77, 0
2, 21843, Note_on_c, 0, 74, 0
2, 21859, Note_on_c, 0, 39, 80
2, 21864, Note_on_c, 0, 51, 80
2, 21868, Note_on_c, 0, 67, 80
2, 21868, Note_on_c, 0, 74, 80
2, 21906, Note_on_c, 0, 74, 0
2, 21933, Note_on_c, 0, 75, 80
2, 21955, Note_on_c, 0, 39, 0
2, 21963, Note_on_c, 0, 51, 0
2, 21990, Note_on_c, 0, 58, 80
2, 21995, Note_on_c, 0, 63, 80
2, 21997, Note_on_c, 0, 55, 80
2, 22028, Note_on_c, 0, 67, 0
2, 22030, Note_on_c, 0, 75, 0
2, 22052, Note_on_c, 0, 67, 80
2, 22054, Note_on_c, 0, 75, 80
2, 22056, Note_on_c, 0, 79, 80
2, 22142, Note_on_c, 0, 58, 0
2, 22144, Note_on_c, 0, 55, 0
2, 22149, Note_on_c, 0, 63, 0
2, 22166, Note_on_c, 0, 39, 80
2, 22171, Note_on_c, 0, 51, 80
2, 22198, Note_on_c, 0, 39, 0
2, 22211, Note_on_c, 0, 51, 0
2, 22233, Note_on_c, 0, 50, 80
2, 22238, Note_on_c, 0, 38, 80
2, 22265, Note_on_c, 0, 38, 0
2, 22272, Note_on_c, 0, 50, 0
2, 22298, Note_on_c, 0, 49, 80
2, 22309, Note_on_c, 0, 37, 80
2, 22331, Note_on_c, 0, 37, 0
2, 22338, Note_on_c, 0, 49, 0
2, 22360, Note_on_c, 0, 36, 80
2, 22370, Note_on_c, 0, 48, 80
2, 22403, Note_on_c, 0, 67, 0
2, 22408, Note_on_c, 0, 79, 0
2, 22408, Note_on_c, 0, 75, 0
2, 22437, Note_on_c, 0, 78, 80
2, 22459, Note_on_c, 0, 36, 0
2, 22464, Note_on_c, 0, 48, 0
2, 22477, Note_on_c, 0, 78, 0
2, 22494, Note_on_c, 0, 55, 80
2, 22494, Note_on_c, 0, 64, 80
2, 22496, Note_on_c, 0, 60, 80
2, 22498, Note_on_c, 0, 58, 80
2, 22498, Note_on_c, 0, 79, 80
2, 22537, Note_on_c, 0, 79, 0
2, 22564, Note_on_c, 0, 70, 80
2, 22564, Note_on_c, 0, 76, 80
2, 22564, Note_on_c, 0, 80, 80
2, 22595, Note_on_c, 0, 60, 0
2, 22595, Note_on_c, 0, 55, 0
2, 22597, Note_on_c, 0, 58, 0
2, 22599, Note_on_c, 0, 64, 0
2, 22623, Note_on_c, 0, 40, 80
2, 22623, Note_on_c, 0, 52, 80
2, 22667, Note_on_c, 0, 80, 0
2, 22669, Note_on_c, 0, 76, 0
2, 22674, Note_on_c, 0, 70, 0
2, 22698, Note_on_c, 0, 76, 80
2, 22725, Note_on_c, 0, 40, 0
2, 22727, Note_on_c, 0, 52, 0
2, 22733, Note_on_c, 0, 76, 0
2, 22757, Note_on_c, 0, 58, 80
2, 22757, Note_on_c, 0, 60, 80
2, 22759, Note_on_c, 0, 55, 80
2, 22761, Note_on_c, 0, 64, 80
2, 22761, Note_on_c, 0, 70, 80
2, 22766, Note_on_c, 0, 76, 80
2, 22766, Note_on_c, 0, 79, 80
2, 22859, Note_on_c, 0, 55, 0
2, 22859, Note_on_c, 0, 58, 0
2, 22859, Note_on_c, 0, 60, 0
2, 22864, Note_on_c, 0, 64, 0
2, 22864, Note_on_c, 0, 76, 0
2, 22866, Note_on_c, 0, 70, 0
2, 22868, Note_on_c, 0, 79, 0
2, 22888, Note_on_c, 0, 76, 80
2, 22890, Note_on_c, 0, 48, 80
2, 22927, Note_on_c, 0, 76, 0
2, 22960, Note_on_c, 0, 69, 80
2, 22960, Note_on_c, 0, 75, 80
2, 22960, Note_on_c, 0, 77, 80
2, 22984, Note_on_c, 0, 48, 0
2, 23016, Note_on_c, 0, 53, 80
2, 23016, Note_on_c, 0, 57, 80
2, 23021, Note_on_c, 0, 63, 80
2, 23057, Note_on_c, 0, 77, 0
2, 23089, Note_on_c, 0, 79, 80
2, 23118, Note_on_c, 0, 57, 0
2, 23120, Note_on_c, 0, 53, 0
2, 23120, Note_on_c, 0, 63, 0
2, 23140, Note_on_c, 0, 41, 80
2, 23239, Note_on_c, 0, 41, 0
2, 23250, Note_on_c, 0, 79, 0
2, 23250, Note_on_c, 0, 75, 0
2, 23250, Note_on_c, 0, 69, 0
2, 23267, Note_on_c, 0, 53, 80
2, 23267, Note_on_c, 0, 57, 80
2, 23272, Note_on_c, 0, 63, 80
2, 23272, Note_on_c, 0, 69, 80
2, 23272, Note_on_c, 0, 75, 80
2, 23272, Note_on_c, 0, 77, 80
2, 23371, Note_on_c, 0, 53, 0
2, 23373, Note_on_c, 0, 77, 0
2, 23375, Note_on_c, 0, 57, 0
2, 23375, Note_on_c, 0, 63, 0
2, 23376, Note_on_c, 0, 69, 0
2, 23376, Note_on_c, 0, 75, 0
2, 23397, Note_on_c, 0, 34, 80
2, 23399, Note_on_c, 0, 46, 80
2, 23405, Note_on_c, 0, 81, 80
2, 23448, Note_on_c, 0, 81, 0
2, 23468, Note_on_c, 0, 80, 80
2, 23468, Note_on_c, 0, 82, 80
2, 23472, Note_on_c, 0, 74, 80
2, 23495, Note_on_c, 0, 46, 0
2, 23499, Note_on_c, 0, 34, 0
2, 23530, Note_on_c, 0, 56, 80
2, 23530, Note_on_c, 0, 58, 80
2, 23535, Note_on_c, 0, 62, 80
2, 23570, Note_on_c, 0, 82, 0
2, 23601, Note_on_c, 0, 84, 80
2, 23628, Note_on_c, 0, 58, 0
2, 23630, Note_on_c, 0, 62, 0
2, 23632, Note_on_c, 0, 56, 0
2, 23649, Note_on_c, 0, 41, 80
2, 23658, Note_on_c, 0, 53, 80
2, 23746, Note_on_c, 0, 41, 0
2, 23757, Note_on_c, 0, 53, 0
2, 23759, Note_on_c, 0, 80, 0
2, 23759, Note_on_c, 0, 84, 0
2, 23763, Note_on_c, 0, 74, 0
2, 23779, Note_on_c, 0, 62, 80
2, 23781, Note_on_c, 0, 56, 80
2, 23781, Note_on_c, 0, 58, 80
2, 23785, Note_on_c, 0, 74, 80
2, 23785, Note_on_c, 0, 80, 80
2, 23790, Note_on_c, 0, 82, 80
2, 23874, Note_on_c, 0, 62, 0
2, 23876, Note_on_c, 0, 58, 0
2, 23880, Note_on_c, 0, 56, 0
2, 23880, Note_on_c, 0, 82, 0
2, 23885, Note_on_c, 0, 74, 0
2, 23885, Note_on_c, 0, 80, 0
2, 23901, Note_on_c, 0, 51, 80
2, 23903, Note_on_c, 0, 39, 80
2, 23904, Note_on_c, 0, 75, 80
2, 23909, Note_on_c, 0, 87, 80
2, 23911, Note_on_c, 0, 79, 80
2, 24001, Note_on_c, 0, 39, 0
2, 24006, Note_on_c, 0, 51, 0
2, 24033, Note_on_c, 0, 57, 80
2, 24099, Note_on_c, 0, 58, 80
2, 24101, Note_on_c, 0, 57, 0
2, 24192, Note_on_c, 0, 58, 0
2, 24224, Note_on_c, 0, 54, 80
2, 24290, Note_on_c, 0, 55, 80
2, 24295, Note_on_c, 0, 54, 0
2, 24394, Note_on_c, 0, 55, 0
2, 24414, Note_on_c, 0, 51, 80
2, 24516, Note_on_c, 0, 51, 0
2, 24521, Note_on_c, 0, 87, 0
2, 24521, Note_on_c, 0, 75, 0
2, 24526, Note_on_c, 0, 79, 0
2, 24548, Note_on_c, 0, 82, 80
2, 24612, Note_on_c, 0, 70, 80
2, 24621, Note_on_c, 0, 82, 0
2, 24711, Note_on_c, 0, 70, 0
2, 24738, Note_on_c, 0, 70, 80
2, 24799, Note_on_c, 0, 58, 80
2, 24804, Note_on_c, 0, 67, 80
2, 24809, Note_on_c, 0, 70, 0
2, 24897, Note_on_c, 0, 67, 0
2, 24897, Note_on_c, 0, 58, 0
2, 24926, Note_on_c, 0, 44, 80
2, 24926, Note_on_c, 0, 60, 80
2, 24931, Note_on_c, 0, 67, 80
2, 24961, Note_on_c, 0, 67, 0
2, 24992, Note_on_c, 0, 65, 80
2, 25023, Note_on_c, 0, 44, 0
2, 25056, Note_on_c, 0, 56, 80
2, 25093, Note_on_c, 0, 60, 0
2, 25095, Note_on_c, 0, 65, 0
2, 25119, Note_on_c, 0, 60, 80
2, 25121, Note_on_c, 0, 68, 80
2, 25153, Note_on_c, 0, 56, 0
2, 25180, Note_on_c, 0, 41, 80
2, 25223, Note_on_c, 0, 68, 0
2, 25249, Note_on_c, 0, 67, 80
2, 25276, Note_on_c, 0, 41, 0
2, 25285, Note_on_c, 0, 67, 0
2, 25312, Note_on_c, 0, 53, 80
2, 25319, Note_on_c, 0, 68, 80
2, 25358, Note_on_c, 0, 68, 0
2, 25380, Note_on_c, 0, 70, 80
2, 25413, Note_on_c, 0, 53, 0
2, 25413, Note_on_c, 0, 60, 0
2, 25421, Note_on_c, 0, 70, 0
2, 25441, Note_on_c, 0, 46, 80
2, 25446, Note_on_c, 0, 58, 80
2, 25446, Note_on_c, 0, 71, 80
2, 25482, Note_on_c, 0, 71, 0
2, 25506, Note_on_c, 0, 72, 80
2, 25541, Note_on_c, 0, 46, 0
2, 25543, Note_on_c, 0, 58, 0
2, 25574, Note_on_c, 0, 56, 80
2, 25579, Note_on_c, 0, 62, 80
2, 25581, Note_on_c, 0, 58, 80
2, 25613, Note_on_c, 0, 72, 0
2, 25646, Note_on_c, 0, 68, 80
2, 25646, Note_on_c, 0, 74, 80
2, 25670, Note_on_c, 0, 58, 0
2, 25677, Note_on_c, 0, 56, 0
2, 25677, Note_on_c, 0, 62, 0
2, 25701, Note_on_c, 0, 41, 80
2, 25703, Note_on_c, 0, 53, 80
2, 25747, Note_on_c, 0, 74, 0
2, 25774, Note_on_c, 0, 79, 80
2, 25800, Note_on_c, 0, 41, 0
2, 25802, Note_on_c, 0, 53, 0
2, 25813, Note_on_c, 0, 68, 0
2, 25813, Note_on_c, 0, 79, 0
2, 25833, Note_on_c, 0, 56, 80
2, 25833, Note_on_c, 0, 58, 80
2, 25835, Note_on_c, 0, 62, 80
2, 25837, Note_on_c, 0, 68, 80
2, 25837, Note_on_c, 0, 74, 80
2, 25839, Note_on_c, 0, 77, 80
2, 25927, Note_on_c, 0, 58, 0
2, 25929, Note_on_c, 0, 56, 0
2, 25929, Note_on_c, 0, 62, 0
2, 25934, Note_on_c, 0, 68, 0
2, 25934, Note_on_c, 0, 74, 0
2, 25934, Note_on_c, 0, 77, 0
2, 25947, Note_on_c, 0, 39, 80
2, 25954, Note_on_c, 0, 51, 80
2, 25956, Note_on_c, 0, 67, 80
2, 25956, Note_on_c, 0, 74, 80
2, 25992, Note_on_c, 0, 74, 0
2, 26018, Note_on_c, 0, 75, 80
2, 26045, Note_on_c, 0, 39, 0
2, 26054, Note_on_c, 0, 51, 0
2, 26078, Note_on_c, 0, 55, 80
2, 26078, Note_on_c, 0, 63, 80
2, 26080, Note_on_c, 0, 58, 80
2, 26112, Note_on_c, 0, 67, 0
2, 26117, Note_on_c, 0, 75, 0
2, 26144, Note_on_c, 0, 67, 80
2, 26149, Note_on_c, 0, 75, 80
2, 26149, Note_on_c, 0, 79, 80
2, 26235, Note_on_c, 0, 58, 0
2, 26237, Note_on_c, 0, 55, 0
2, 26242, Note_on_c, 0, 63, 0
2, 26262, Note_on_c, 0, 51, 80
2, 26267, Note_on_c, 0, 39, 80
2, 26328, Note_on_c, 0, 39, 0
2, 26328, Note_on_c, 0, 38, 80
2, 26328, Note_on_c, 0, 50, 80
2, 26333, Note_on_c, 0, 51, 0
2, 26393, Note_on_c, 0, 38, 0
2, 26393, Note_on_c, 0, 49, 80
2, 26400, Note_on_c, 0, 50, 0
2, 26404, Note_on_c, 0, 37, 80
2, 26455, Note_on_c, 0, 37, 0
2, 26455, Note_on_c, 0, 36, 80
2, 26462, Note_on_c, 0, 49, 0
2, 26467, Note_on_c, 0, 48, 80
2, 26497, Note_on_c, 0, 67, 0
2, 26499, Note_on_c, 0, 79, 0
2, 26501, Note_on_c, 0, 75, 0
2, 26525, Note_on_c, 0, 78, 80
2, 26554, Note_on_c, 0, 36, 0
2, 26559, Note_on_c, 0, 48, 0
2, 26566, Note_on_c, 0, 78, 0
2, 26592, Note_on_c, 0, 55, 80
2, 26592, Note_on_c, 0, 58, 80
2, 26592, Note_on_c, 0, 60, 80
2, 26597, Note_on_c, 0, 64, 80
2, 26597, Note_on_c, 0, 79, 80
2, 26641, Note_on_c, 0, 79, 0
2, 26662, Note_on_c, 0, 80, 80
2, 26664, Note_on_c, 0, 70, 80
2, 26665, Note_on_c, 0, 76, 80
2, 26692, Note_on_c, 0, 58, 0
2, 26694, Note_on_c, 0, 64, 0
2, 26694, Note_on_c, 0, 55, 0
2, 26694, Note_on_c, 0, 60, 0
2, 26718, Note_on_c, 0, 40, 80
2, 26723, Note_on_c, 0, 52, 80
2, 26762, Note_on_c, 0, 76, 0
2, 26762, Note_on_c, 0, 70, 0
2, 26762, Note_on_c, 0, 80, 0
2, 26791, Note_on_c, 0, 76, 80
2, 26818, Note_on_c, 0, 40, 0
2, 26825, Note_on_c, 0, 52, 0
2, 26832, Note_on_c, 0, 76, 0
2, 26854, Note_on_c, 0, 55, 80
2, 26854, Note_on_c, 0, 60, 80
2, 26856, Note_on_c, 0, 58, 80
2, 26856, Note_on_c, 0, 64, 80
2, 26856, Note_on_c, 0, 70, 80
2, 26856, Note_on_c, 0, 76, 80
2, 26856, Note_on_c, 0, 79, 80
2, 26949, Note_on_c, 0, 60, 0
2, 26951, Note_on_c, 0, 58, 0
2, 26955, Note_on_c, 0, 64, 0
2, 26957, Note_on_c, 0, 70, 0
2, 26957, Note_on_c, 0, 55, 0
2, 26959, Note_on_c, 0, 76, 0
2, 26961, Note_on_c, 0, 79, 0
2, 26978, Note_on_c, 0, 76, 80
2, 26983, Note_on_c, 0, 48, 80
2, 27016, Note_on_c, 0, 76, 0
2, 27045, Note_on_c, 0, 69, 80
2, 27045, Note_on_c, 0, 75, 80
2, 27047, Note_on_c, 0, 77, 80
2, 27073, Note_on_c, 0, 48, 0
2, 27104, Note_on_c, 0, 53, 80
2, 27104, Note_on_c, 0, 57, 80
2, 27109, Note_on_c, 0, 63, 80
2, 27140, Note_on_c, 0, 77, 0
2, 27144, Note_on_c, 0, 69, 0
2, 27144, Note_on_c, 0, 75, 0
2, 27168, Note_on_c, 0, 69, 80
2, 27168, Note_on_c, 0, 75, 80
2, 27170, Note_on_c, 0, 79, 80
2, 27201, Note_on_c, 0, 53, 0
2, 27201, Note_on_c, 0, 57, 0
2, 27206, Note_on_c, 0, 63, 0
2, 27223, Note_on_c, 0, 41, 80
2, 27322, Note_on_c, 0, 41, 0
2, 27331, Note_on_c, 0, 75, 0
2, 27331, Note_on_c, 0, 79, 0
2, 27331, Note_on_c, 0, 69, 0
2, 27353, Note_on_c, 0, 53, 80
2, 27353, Note_on_c, 0, 57, 80
2, 27353, Note_on_c, 0, 77, 80
2, 27355, Note_on_c, 0, 75, 80
2, 27357, Note_on_c, 0, 63, 80
2, 27357, Note_on_c, 0, 69, 80
2, 27452, Note_on_c, 0, 53, 0
2, 27456, Note_on_c, 0, 63, 0
2, 27456, Note_on_c, 0, 57, 0
2, 27456, Note_on_c, 0, 77, 0
2, 27461, Note_on_c, 0, 69, 0
2, 27463, Note_on_c, 0, 75, 0
2, 27477, Note_on_c, 0, 34, 80
2, 27481, Note_on_c, 0, 46, 80
2, 27490, Note_on_c, 0, 81, 80
2, 27523, Note_on_c, 0, 81, 0
2, 27547, Note_on_c, 0, 74, 80
2, 27549, Note_on_c, 0, 80, 80
2, 27549, Note_on_c, 0, 82, 80
2, 27577, Note_on_c, 0, 46, 0
2, 27577, Note_on_c, 0, 34, 0
2, 27608, Note_on_c, 0, 56, 80
2, 27608, Note_on_c, 0, 58, 80
2, 27610, Note_on_c, 0, 62, 80
2, 27648, Note_on_c, 0, 80, 0
2, 27648, Note_on_c, 0, 82, 0
2, 27648, Note_on_c, 0, 74, 0
2, 27674, Note_on_c, 0, 74, 80
2, 27679, Note_on_c, 0, 80, 80
2, 27681, Note_on_c, 0, 84, 80
2, 27705, Note_on_c, 0, 58, 0
2, 27710, Note_on_c, 0, 56, 0
2, 27710, Note_on_c, 0, 62, 0
2, 27732, Note_on_c, 0, 41, 80
2, 27737, Note_on_c, 0, 53, 80
2, 27834, Note_on_c, 0, 41, 0
2, 27840, Note_on_c, 0, 84, 0
2, 27840, Note_on_c, 0, 53, 0
2, 27845, Note_on_c, 0, 80, 0
2, 27845, Note_on_c, 0, 74, 0
2, 27863, Note_on_c, 0, 56, 80
2, 27864, Note_on_c, 0, 58, 80
2, 27869, Note_on_c, 0, 74, 80
2, 27871, Note_on_c, 0, 62, 80
2, 27873, Note_on_c, 0, 80, 80
2, 27873, Note_on_c, 0, 82, 80
2, 27961, Note_on_c, 0, 58, 0
2, 27963, Note_on_c, 0, 62, 0
2, 27965, Note_on_c, 0, 56, 0
2, 27970, Note_on_c, 0, 74, 0
2, 27970, Note_on_c, 0, 82, 0
2, 27975, Note_on_c, 0, 80, 0
2, 27995, Note_on_c, 0, 51, 80
2, 27997, Note_on_c, 0, 39, 80
2, 28094, Note_on_c, 0, 39, 0
2, 28099, Note_on_c, 0, 51, 0
2, 28126, Note_on_c, 0, 58, 80
2, 28128, Note_on_c, 0, 55, 80
2, 28134, Note_on_c, 0, 63, 80
2, 28134, Note_on_c, 0, 79, 80
2, 28134, Note_on_c, 0, 87, 80
2, 28202, Note_on_c, 0, 91, 80
2, 28204, Note_on_c, 0, 87, 0
2, 28228, Note_on_c, 0, 58, 0
2, 28230, Note_on_c, 0, 55, 0
2, 28232, Note_on_c, 0, 63, 0
2, 28237, Note_on_c, 0, 79, 0
2, 28254, Note_on_c, 0, 34, 80
2, 28254, Note_on_c, 0, 46, 80
2, 28268, Note_on_c, 0, 91, 0
2, 28268, Note_on_c, 0, 79, 80
2, 28268, Note_on_c, 0, 86, 80
2, 28325, Note_on_c, 0, 91, 80
2, 28330, Note_on_c, 0, 86, 0
2, 28354, Note_on_c, 0, 46, 0
2, 28359, Note_on_c, 0, 34, 0
2, 28366, Note_on_c, 0, 79, 0
2, 28381, Note_on_c, 0, 55, 80
2, 28383, Note_on_c, 0, 63, 80
2, 28388, Note_on_c, 0, 58, 80
2, 28388, Note_on_c, 0, 84, 80
2, 28392, Note_on_c, 0, 79, 80
2, 28399, Note_on_c, 0, 91, 0
2, 28454, Note_on_c, 0, 91, 80
2, 28459, Note_on_c, 0, 84, 0
2, 28481, Note_on_c, 0, 58, 0
2, 28488, Note_on_c, 0, 55, 0
2, 28489, Note_on_c, 0, 63, 0
2, 28489, Note_on_c, 0, 79, 0
2, 28507, Note_on_c, 0, 39, 80
2, 28512, Note_on_c, 0, 51, 80
2, 28518, Note_on_c, 0, 79, 80
2, 28518, Note_on_c, 0, 82, 80
2, 28523, Note_on_c, 0, 91, 0
2, 28581, Note_on_c, 0, 84, 80
2, 28585, Note_on_c, 0, 82, 0
2, 28590, Note_on_c, 0, 79, 0
2, 28606, Note_on_c, 0, 39, 0
2, 28612, Note_on_c, 0, 51, 0
2, 28639, Note_on_c, 0, 55, 80
2, 28644, Note_on_c, 0, 63, 80
2, 28646, Note_on_c, 0, 58, 80
2, 28651, Note_on_c, 0, 84, 0
2, 28651, Note_on_c, 0, 82, 80
2, 28717, Note_on_c, 0, 82, 0
2, 28717, Note_on_c, 0, 79, 80
2, 28778, Note_on_c, 0, 75, 80
2, 28783, Note_on_c, 0, 79, 0
2, 28838, Note_on_c, 0, 72, 80
2, 28851, Note_on_c, 0, 75, 0
2, 28909, Note_on_c, 0, 70, 80
2, 28914, Note_on_c, 0, 72, 0
2, 28968, Note_on_c, 0, 67, 80
2, 28979, Note_on_c, 0, 70, 0
2, 28999, Note_on_c, 0, 58, 0
2, 29006, Note_on_c, 0, 55, 0
2, 29006, Note_on_c, 0, 63, 0
2, 29043, Note_on_c, 0, 44, 80
2, 29043, Note_on_c, 0, 60, 80
2, 29140, Note_on_c, 0, 44, 0
2, 29145, Note_on_c, 0, 67, 0
2, 29172, Note_on_c, 0, 56, 80
2, 29172, Note_on_c, 0, 65, 80
2, 29208, Note_on_c, 0, 65, 0
2, 29208, Note_on_c, 0, 60, 0
2, 29234, Note_on_c, 0, 60, 80
2, 29236, Note_on_c, 0, 68, 80
2, 29274, Note_on_c, 0, 56, 0
2, 29296, Note_on_c, 0, 41, 80
2, 29340, Note_on_c, 0, 68, 0
2, 29367, Note_on_c, 0, 67, 80
2, 29394, Note_on_c, 0, 41, 0
2, 29402, Note_on_c, 0, 67, 0
2, 29426, Note_on_c, 0, 53, 80
2, 29433, Note_on_c, 0, 68, 80
2, 29466, Note_on_c, 0, 68, 0
2, 29498, Note_on_c, 0, 70, 80
2, 29527, Note_on_c, 0, 53, 0
2, 29529, Note_on_c, 0, 70, 0
2, 29529, Note_on_c, 0, 60, 0
2, 29553, Note_on_c, 0, 46, 80
2, 29558, Note_on_c, 0, 58, 80
2, 29563, Note_on_c, 0, 71, 80
2, 29602, Note_on_c, 0, 71, 0
2, 29619, Note_on_c, 0, 72, 80
2, 29652, Note_on_c, 0, 46, 0
2, 29657, Note_on_c, 0, 58, 0
2, 29684, Note_on_c, 0, 56, 80
2, 29684, Note_on_c, 0, 58, 80
2, 29688, Note_on_c, 0, 62, 80
2, 29728, Note_on_c, 0, 72, 0
2, 29750, Note_on_c, 0, 68, 80
2, 29750, Note_on_c, 0, 74, 80
2, 29779, Note_on_c, 0, 62, 0
2, 29781, Note_on_c, 0, 58, 0
2, 29785, Note_on_c, 0, 56, 0
2, 29812, Note_on_c, 0, 41, 80
2, 29812, Note_on_c, 0, 53, 80
2, 29852, Note_on_c, 0, 74, 0
2, 29882, Note_on_c, 0, 79, 80
2, 29909, Note_on_c, 0, 41, 0
2, 29911, Note_on_c, 0, 53, 0
2, 29916, Note_on_c, 0, 68, 0
2, 29921, Note_on_c, 0, 79, 0
2, 29938, Note_on_c, 0, 62, 80
2, 29940, Note_on_c, 0, 56, 80
2, 29940, Note_on_c, 0, 58, 80
2, 29945, Note_on_c, 0, 68, 80
2, 29945, Note_on_c, 0, 74, 80
2, 29945, Note_on_c, 0, 77, 80
2, 30028, Note_on_c, 0, 58, 0
2, 30030, Note_on_c, 0, 56, 0
2, 30035, Note_on_c, 0, 68, 0
2, 30035, Note_on_c, 0, 62, 0
2, 30035, Note_on_c, 0, 74, 0
2, 30037, Note_on_c, 0, 77, 0
2, 30057, Note_on_c, 0, 39, 80
2, 30057, Note_on_c, 0, 51, 80
2, 30062, Note_on_c, 0, 74, 80
2, 30064, Note_on_c, 0, 67, 80
2, 30096, Note_on_c, 0, 74, 0
2, 30129, Note_on_c, 0, 75, 80
2, 30149, Note_on_c, 0, 39, 0
2, 30158, Note_on_c, 0, 51, 0
2, 30185, Note_on_c, 0, 55, 80
2, 30187, Note_on_c, 0, 58, 80
2, 30189, Note_on_c, 0, 63, 80
2, 30221, Note_on_c, 0, 75, 0
2, 30223, Note_on_c, 0, 67, 0
2, 30247, Note_on_c, 0, 75, 80
2, 30252, Note_on_c, 0, 67, 80
2, 30252, Note_on_c, 0, 79, 80
2, 30345, Note_on_c, 0, 58, 0
2, 30345, Note_on_c, 0, 55, 0
2, 30352, Note_on_c, 0, 63, 0
2, 30369, Note_on_c, 0, 51, 80
2, 30371, Note_on_c, 0, 39, 80
2, 30402, Note_on_c, 0, 39, 0
2, 30415, Note_on_c, 0, 51, 0
2, 30437, Note_on_c, 0, 38, 80
2, 30442, Note_on_c, 0, 50, 80
2, 30471, Note_on_c, 0, 38, 0
2, 30473, Note_on_c, 0, 50, 0
2, 30505, Note_on_c, 0, 49, 80
2, 30514, Note_on_c, 0, 37, 80
2, 30534, Note_on_c, 0, 37, 0
2, 30539, Note_on_c, 0, 49, 0
2, 30568, Note_on_c, 0, 36, 80
2, 30576, Note_on_c, 0, 48, 80
2, 30612, Note_on_c, 0, 67, 0
2, 30617, Note_on_c, 0, 75, 0
2, 30619, Note_on_c, 0, 79, 0
2, 30646, Note_on_c, 0, 78, 80
2, 30672, Note_on_c, 0, 36, 0
2, 30679, Note_on_c, 0, 48, 0
2, 30686, Note_on_c, 0, 78, 0
2, 30708, Note_on_c, 0, 55, 80
2, 30708, Note_on_c, 0, 58, 80
2, 30713, Note_on_c, 0, 60, 80
2, 30713, Note_on_c, 0, 64, 80
2, 30713, Note_on_c, 0, 79, 80
2, 30752, Note_on_c, 0, 79, 0
2, 30776, Note_on_c, 0, 70, 80
2, 30776, Note_on_c, 0, 76, 80
2, 30776, Note_on_c, 0, 80, 80
2, 30807, Note_on_c, 0, 58, 0
2, 30809, Note_on_c, 0, 64, 0
2, 30809, Note_on_c, 0, 55, 0
2, 30814, Note_on_c, 0, 60, 0
2, 30831, Note_on_c, 0, 40, 80
2, 30838, Note_on_c, 0, 52, 80
2, 30875, Note_on_c, 0, 76, 0
2, 30880, Note_on_c, 0, 70, 0
2, 30882, Note_on_c, 0, 80, 0
2, 30904, Note_on_c, 0, 76, 80
2, 30931, Note_on_c, 0, 52, 0
2, 30931, Note_on_c, 0, 40, 0
2, 30939, Note_on_c, 0, 76, 0
2, 30963, Note_on_c, 0, 55, 80
2, 30963, Note_on_c, 0, 58, 80
2, 30963, Note_on_c, 0, 60, 80
2, 30968, Note_on_c, 0, 64, 80
2, 30968, Note_on_c, 0, 70, 80
2, 30968, Note_on_c, 0, 76, 80
2, 30968, Note_on_c, 0, 79, 80
2, 31058, Note_on_c, 0, 58, 0
2, 31060, Note_on_c, 0, 64, 0
2, 31060, Note_on_c, 0, 55, 0
2, 31065, Note_on_c, 0, 70, 0
2, 31065, Note_on_c, 0, 60, 0
2, 31065, Note_on_c, 0, 76, 0
2, 31072, Note_on_c, 0, 79, 0
2, 31089, Note_on_c, 0, 48, 80
2, 31089, Note_on_c, 0, 76, 80
2, 31122, Note_on_c, 0, 76, 0
2, 31151, Note_on_c, 0, 75, 80
2, 31151, Note_on_c, 0, 77, 80
2, 31155, Note_on_c, 0, 69, 80
2, 31182, Note_on_c, 0, 48, 0
2, 31211, Note_on_c, 0, 53, 80
2, 31211, Note_on_c, 0, 57, 80
2, 31211, Note_on_c, 0, 63, 80
2, 31250, Note_on_c, 0, 75, 0
2, 31250, Note_on_c, 0, 69, 0
2, 31250, Note_on_c, 0, 77, 0
2, 31272, Note_on_c, 0, 69, 80
2, 31277, Note_on_c, 0, 75, 80
2, 31277, Note_on_c, 0, 79, 80
2, 31306, Note_on_c, 0, 53, 0
2, 31311, Note_on_c, 0, 63, 0
2, 31316, Note_on_c, 0, 57, 0
2, 31336, Note_on_c, 0, 41, 80
2, 31433, Note_on_c, 0, 41, 0
2, 31443, Note_on_c, 0, 69, 0
2, 31443, Note_on_c, 0, 75, 0
2, 31448, Note_on_c, 0, 79, 0
2, 31465, Note_on_c, 0, 53, 80
2, 31465, Note_on_c, 0, 57, 80
2, 31470, Note_on_c, 0, 63, 80
2, 31472, Note_on_c, 0, 69, 80
2, 31472, Note_on_c, 0, 75, 80
2, 31472, Note_on_c, 0, 77, 80
2, 31569, Note_on_c, 0, 53, 0
2, 31574, Note_on_c, 0, 63, 0
2, 31574, Note_on_c, 0, 57, 0
2, 31574, Note_on_c, 0, 77, 0
2, 31579, Note_on_c, 0, 69, 0
2, 31579, Note_on_c, 0, 75, 0
2, 31594, Note_on_c, 0, 34, 80
2, 31599, Note_on_c, 0, 46, 80
2, 31604, Note_on_c, 0, 81, 80
2, 31648, Note_on_c, 0, 81, 0
2, 31668, Note_on_c, 0, 74, 80
2, 31668, Note_on_c, 0, 80, 80
2, 31668, Note_on_c, 0, 82, 80
2, 31695, Note_on_c, 0, 46, 0
2, 31700, Note_on_c, 0, 34, 0
2, 31728, Note_on_c, 0, 58, 80
2, 31730, Note_on_c, 0, 56, 80
2, 31735, Note_on_c, 0, 62, 80
2, 31766, Note_on_c, 0, 82, 0
2, 31771, Note_on_c, 0, 80, 0
2, 31771, Note_on_c, 0, 74, 0
2, 31795, Note_on_c, 0, 74, 80
2, 31800, Note_on_c, 0, 80, 80
2, 31801, Note_on_c, 0, 84, 80
2, 31830, Note_on_c, 0, 58, 0
2, 31830, Note_on_c, 0, 62, 0
2, 31835, Note_on_c, 0, 56, 0
2, 31859, Note_on_c, 0, 41, 80
2, 31861, Note_on_c, 0, 53, 80
2, 31956, Note_on_c, 0, 41, 0
2, 31963, Note_on_c, 0, 84, 0
2, 31963, Note_on_c, 0, 53, 0
2, 31968, Note_on_c, 0, 80, 0
2, 31968, Note_on_c, 0, 74, 0
2, 31988, Note_on_c, 0, 56, 80
2, 31990, Note_on_c, 0, 58, 80
2, 31990, Note_on_c, 0, 74, 80
2, 31992, Note_on_c, 0, 62, 80
2, 31992, Note_on_c, 0, 80, 80
2, 31992, Note_on_c, 0, 82, 80
2, 32087, Note_on_c, 0, 58, 0
2, 32088, Note_on_c, 0, 74, 0
2, 32088, Note_on_c, 0, 62, 0
2, 32088, Note_on_c, 0, 56, 0
2, 32088, Note_on_c, 0, 82, 0
2, 32088, Note_on_c, 0, 80, 0
2, 32106, Note_on_c, 0, 39, 80
2, 32108, Note_on_c, 0, 51, 80
2, 32112, Note_on_c, 0, 75, 80
2, 32114, Note_on_c, 0, 79, 80
2, 32114, Note_on_c, 0, 87, 80
2, 32201, Note_on_c, 0, 39, 0
2, 32214, Note_on_c, 0, 51, 0
2, 32238, Note_on_c, 0, 57, 80
2, 32304, Note_on_c, 0, 58, 80
2, 32309, Note_on_c, 0, 57, 0
2, 32398, Note_on_c, 0, 58, 0
2, 32426, Note_on_c, 0, 54, 80
2, 32493, Note_on_c, 0, 54, 0
2, 32493, Note_on_c, 0, 55, 80
2, 32592, Note_on_c, 0, 55, 0
2, 32616, Note_on_c, 0, 51, 80
2, 32717, Note_on_c, 0, 51, 0
2, 32722, Note_on_c, 0, 79, 0
2, 32722, Note_on_c, 0, 75, 0
2, 32722, Note_on_c, 0, 87, 0
2, 32737, Note_on_c, 0, 34, 80
2, 32739, Note_on_c, 0, 46, 80
2, 32838, Note_on_c, 0, 46, 0
2, 32840, Note_on_c, 0, 34, 0
2, 32867, Note_on_c, 0, 36, 80
2, 32872, Note_on_c, 0, 48, 80
2, 32965, Note_on_c, 0, 36, 0
2, 32972, Note_on_c, 0, 48, 0
2, 33000, Note_on_c, 0, 38, 80
2, 33000, Note_on_c, 0, 50, 80
2, 33099, Note_on_c, 0, 38, 0
2, 33101, Note_on_c, 0, 50, 0
2, 33121, Note_on_c, 0, 39, 80
2, 33121, Note_on_c, 0, 51, 80
2, 33194, Note_on_c, 0, 82, 80
2, 33221, Note_on_c, 0, 39, 0
2, 33228, Note_on_c, 0, 51, 0
2, 33257, Note_on_c, 0, 58, 80
2, 33257, Note_on_c, 0, 63, 80
2, 33257, Note_on_c, 0, 67, 80
2, 33262, Note_on_c, 0, 79, 80
2, 33266, Note_on_c, 0, 82, 0
2, 33324, Note_on_c, 0, 75, 80
2, 33331, Note_on_c, 0, 79, 0
2, 33353, Note_on_c, 0, 58, 0
2, 33355, Note_on_c, 0, 67, 0
2, 33357, Note_on_c, 0, 63, 0
2, 33381, Note_on_c, 0, 43, 80
2, 33381, Note_on_c, 0, 55, 80
2, 33381, Note_on_c, 0, 72, 80
2, 33394, Note_on_c, 0, 75, 0
2, 33425, Note_on_c, 0, 72, 0
2, 33427, Note_on_c, 0, 70, 80
2, 33444, Note_on_c, 0, 55, 0
2, 33446, Note_on_c, 0, 43, 0
2, 33466, Note_on_c, 0, 42, 80
2, 33473, Note_on_c, 0, 54, 80
2, 33473, Note_on_c, 0, 72, 80
2, 33486, Note_on_c, 0, 70, 0
2, 33541, Note_on_c, 0, 73, 80
2, 33546, Note_on_c, 0, 72, 0
2, 33573, Note_on_c, 0, 42, 0
2, 33577, Note_on_c, 0, 54, 0
2, 33598, Note_on_c, 0, 41, 80
2, 33604, Note_on_c, 0, 53, 80
2, 33606, Note_on_c, 0, 74, 80
2, 33611, Note_on_c, 0, 68, 80
2, 33616, Note_on_c, 0, 73, 0
2, 33647, Note_on_c, 0, 74, 0
2, 33647, Note_on_c, 0, 68, 0
2, 33669, Note_on_c, 0, 72, 80
2, 33673, Note_on_c, 0, 68, 80
2, 33700, Note_on_c, 0, 41, 0
2, 33707, Note_on_c, 0, 53, 0
2, 33734, Note_on_c, 0, 60, 80
2, 33736, Note_on_c, 0, 56, 80
2, 33738, Note_on_c, 0, 65, 80
2, 33780, Note_on_c, 0, 72, 0
2, 33780, Note_on_c, 0, 68, 0
2, 33807, Note_on_c, 0, 68, 80
2, 33809, Note_on_c, 0, 70, 80
2, 33846, Note_on_c, 0, 56, 0
2, 33846, Note_on_c, 0, 65, 0
2, 33846, Note_on_c, 0, 60, 0
2, 33866, Note_on_c, 0, 56, 80
2, 33868, Note_on_c, 0, 65, 80
2, 33873, Note_on_c, 0, 62, 80
2, 33970, Note_on_c, 0, 62, 0
2, 33970, Note_on_c, 0, 56, 0
2, 33972, Note_on_c, 0, 65, 0
2, 33992, Note_on_c, 0, 34, 80
2, 33997, Note_on_c, 0, 46, 80
2, 34090, Note_on_c, 0, 46, 0
2, 34095, Note_on_c, 0, 34, 0
2, 34102, Note_on_c, 0, 70, 0
2, 34104, Note_on_c, 0, 68, 0
2, 34114, Note_on_c, 0, 51, 80
2, 34119, Note_on_c, 0, 39, 80
2, 34187, Note_on_c, 0, 82, 80
2, 34211, Note_on_c, 0, 39, 0
2, 34220, Note_on_c, 0, 51, 0
2, 34248, Note_on_c, 0, 58, 80
2, 34248, Note_on_c, 0, 63, 80
2, 34248, Note_on_c, 0, 67, 80
2, 34253, Note_on_c, 0, 79, 80
2, 34258, Note_on_c, 0, 82, 0
2, 34309, Note_on_c, 0, 75, 80
2, 34318, Note_on_c, 0, 79, 0
2, 34342, Note_on_c, 0, 58, 0
2, 34344, Note_on_c, 0, 67, 0
2, 34345, Note_on_c, 0, 63, 0
2, 34363, Note_on_c, 0, 43, 80
2, 34368, Note_on_c, 0, 72, 80
2, 34372, Note_on_c, 0, 55, 80
2, 34383, Note_on_c, 0, 75, 0
2, 34434, Note_on_c, 0, 70, 80
2, 34442, Note_on_c, 0, 72, 0
2, 34469, Note_on_c, 0, 43, 0
2, 34474, Note_on_c, 0, 55, 0
2, 34494, Note_on_c, 0, 42, 80
2, 34494, Note_on_c, 0, 72, 80
2, 34499, Note_on_c, 0, 54, 80
2, 34506, Note_on_c, 0, 70, 0
2, 34572, Note_on_c, 0, 73, 80
2, 34574, Note_on_c, 0, 72, 0
2, 34598, Note_on_c, 0, 42, 0
2, 34600, Note_on_c, 0, 54, 0
2, 34627, Note_on_c, 0, 41, 80
2, 34632, Note_on_c, 0, 73, 0
2, 34632, Note_on_c, 0, 53, 80
2, 34632, Note_on_c, 0, 74, 80
2, 34636, Note_on_c, 0, 68, 80
2, 34672, Note_on_c, 0, 68, 0
2, 34672, Note_on_c, 0, 74, 0
2, 34692, Note_on_c, 0, 72, 80
2, 34699, Note_on_c, 0, 68, 80
2, 34723, Note_on_c, 0, 41, 0
2, 34733, Note_on_c, 0, 53, 0
2, 34757, Note_on_c, 0, 56, 80
2, 34757, Note_on_c, 0, 60, 80
2, 34757, Note_on_c, 0, 65, 80
2, 34797, Note_on_c, 0, 72, 0
2, 34827, Note_on_c, 0, 70, 80
2, 34856, Note_on_c, 0, 60, 0
2, 34856, Note_on_c, 0, 56, 0
2, 34865, Note_on_c, 0, 65, 0
2, 34885, Note_on_c, 0, 56, 80
2, 34885, Note_on_c, 0, 65, 80
2, 34890, Note_on_c, 0, 62, 80
2, 34985, Note_on_c, 0, 62, 0
2, 34985, Note_on_c, 0, 56, 0
2, 34985, Note_on_c, 0, 65, 0
2, 35002, Note_on_c, 0, 34, 80
2, 35004, Note_on_c, 0, 46, 80
2, 35106, Note_on_c, 0, 46, 0
2, 35106, Note_on_c, 0, 34, 0
2, 35108, Note_on_c, 0, 70, 0
2, 35110, Note_on_c, 0, 68, 0
2, 35127, Note_on_c, 0, 39, 80
2, 35127, Note_on_c, 0, 51, 80
2, 35193, Note_on_c, 0, 82, 80
2, 35224, Note_on_c, 0, 39, 0
2, 35226, Note_on_c, 0, 51, 0
2, 35253, Note_on_c, 0, 58, 80
2, 35253, Note_on_c, 0, 63, 80
2, 35257, Note_on_c, 0, 67, 80
2, 35257, Note_on_c, 0, 79, 80
2, 35262, Note_on_c, 0, 82, 0
2, 35320, Note_on_c, 0, 75, 80
2, 35328, Note_on_c, 0, 79, 0
2, 35352, Note_on_c, 0, 67, 0
2, 35352, Note_on_c, 0, 58, 0
2, 35357, Note_on_c, 0, 63, 0
2, 35379, Note_on_c, 0, 43, 80
2, 35381, Note_on_c, 0, 72, 80
2, 35383, Note_on_c, 0, 55, 80
2, 35390, Note_on_c, 0, 75, 0
2, 35454, Note_on_c, 0, 70, 80
2, 35459, Note_on_c, 0, 72, 0
2, 35486, Note_on_c, 0, 43, 0
2, 35488, Note_on_c, 0, 55, 0
2, 35508, Note_on_c, 0, 42, 80
2, 35513, Note_on_c, 0, 72, 80
2, 35515, Note_on_c, 0, 54, 80
2, 35528, Note_on_c, 0, 70, 0
2, 35581, Note_on_c, 0, 73, 80
2, 35588, Note_on_c, 0, 72, 0
2, 35612, Note_on_c, 0, 42, 0
2, 35616, Note_on_c, 0, 54, 0
2, 35643, Note_on_c, 0, 41, 80
2, 35645, Note_on_c, 0, 53, 80
2, 35650, Note_on_c, 0, 73, 0
2, 35650, Note_on_c, 0, 74, 80
2, 35652, Note_on_c, 0, 70, 80
2, 35713, Note_on_c, 0, 75, 80
2, 35720, Note_on_c, 0, 74, 0
2, 35740, Note_on_c, 0, 41, 0
2, 35751, Note_on_c, 0, 53, 0
2, 35771, Note_on_c, 0, 53, 80
2, 35776, Note_on_c, 0, 58, 80
2, 35776, Note_on_c, 0, 76, 80
2, 35778, Note_on_c, 0, 62, 80
2, 35784, Note_on_c, 0, 75, 0
2, 35815, Note_on_c, 0, 70, 0
2, 35842, Note_on_c, 0, 70, 80
2, 35842, Note_on_c, 0, 77, 80
2, 35844, Note_on_c, 0, 74, 80
2, 35846, Note_on_c, 0, 76, 0
2, 35873, Note_on_c, 0, 53, 0
2, 35873, Note_on_c, 0, 62, 0
2, 35875, Note_on_c, 0, 58, 0
2, 35902, Note_on_c, 0, 38, 80
2, 35902, Note_on_c, 0, 50, 80
2, 35941, Note_on_c, 0, 77, 0
2, 35943, Note_on_c, 0, 74, 0
2, 35967, Note_on_c, 0, 76, 80
2, 35972, Note_on_c, 0, 81, 80
2, 35994, Note_on_c, 0, 38, 0
2, 36004, Note_on_c, 0, 50, 0
2, 36024, Note_on_c, 0, 49, 80
2, 36040, Note_on_c, 0, 37, 80
2, 36075, Note_on_c, 0, 81, 0
2, 36099, Note_on_c, 0, 79, 80
2, 36126, Note_on_c, 0, 37, 0
2, 36131, Note_on_c, 0, 49, 0
2, 36133, Note_on_c, 0, 76, 0
2, 36135, Note_on_c, 0, 70, 0
2, 36142, Note_on_c, 0, 79, 0
2, 36152, Note_on_c, 0, 36, 80
2, 36152, Note_on_c, 0, 75, 80
2, 36152, Note_on_c, 0, 77, 80
2, 36157, Note_on_c, 0, 48, 80
2, 36157, Note_on_c, 0, 69, 80
2, 36225, Note_on_c, 0, 79, 80
2, 36227, Note_on_c, 0, 77, 0
2, 36254, Note_on_c, 0, 48, 0
2, 36254, Note_on_c, 0, 36, 0
2, 36281, Note_on_c, 0, 53, 80
2, 36281, Note_on_c, 0, 57, 80
2, 36281, Note_on_c, 0, 63, 80
2, 36288, Note_on_c, 0, 80, 80
2, 36294, Note_on_c, 0, 79, 0
2, 36323, Note_on_c, 0, 75, 0
2, 36323, Note_on_c, 0, 69, 0
2, 36345, Note_on_c, 0, 69, 80
2, 36345, Note_on_c, 0, 75, 80
2, 36350, Note_on_c, 0, 81, 80
2, 36355, Note_on_c, 0, 80, 0
2, 36384, Note_on_c, 0, 53, 0
2, 36384, Note_on_c, 0, 63, 0
2, 36388, Note_on_c, 0, 57, 0
2, 36406, Note_on_c, 0, 41, 80
2, 36410, Note_on_c, 0, 53, 80
2, 36450, Note_on_c, 0, 75, 0
2, 36452, Note_on_c, 0, 69, 0
2, 36452, Note_on_c, 0, 81, 0
2, 36474, Note_on_c, 0, 75, 80
2, 36479, Note_on_c, 0, 81, 80
2, 36479, Note_on_c, 0, 86, 80
2, 36505, Note_on_c, 0, 41, 0
2, 36512, Note_on_c, 0, 53, 0
2, 36541, Note_on_c, 0, 57, 80
2, 36541, Note_on_c, 0, 63, 80
2, 36541, Note_on_c, 0, 65, 80
2, 36578, Note_on_c, 0, 86, 0
2, 36609, Note_on_c, 0, 84, 80
2, 36640, Note_on_c, 0, 84, 0
2, 36640, Note_on_c, 0, 65, 0
2, 36640, Note_on_c, 0, 57, 0
2, 36640, Note_on_c, 0, 63, 0
2, 36645, Note_on_c, 0, 75, 0
2, 36649, Note_on_c, 0, 81, 0
2, 36667, Note_on_c, 0, 46, 80
2, 36667, Note_on_c, 0, 58, 80
2, 36669, Note_on_c, 0, 74, 80
2, 36673, Note_on_c, 0, 80, 80
2, 36673, Note_on_c, 0, 82, 80
2, 36738, Note_on_c, 0, 84, 80
2, 36740, Note_on_c, 0, 82, 0
2, 36767, Note_on_c, 0, 58, 0
2, 36767, Note_on_c, 0, 46, 0
2, 36799, Note_on_c, 0, 58, 80
2, 36799, Note_on_c, 0, 68, 80
2, 36801, Note_on_c, 0, 62, 80
2, 36801, Note_on_c, 0, 85, 80
2, 36806, Note_on_c, 0, 84, 0
2, 36837, Note_on_c, 0, 74, 0
2, 36841, Note_on_c, 0, 80, 0
2, 36865, Note_on_c, 0, 85, 0
2, 36865, Note_on_c, 0, 74, 80
2, 36865, Note_on_c, 0, 80, 80
2, 36870, Note_on_c, 0, 86, 80
2, 36897, Note_on_c, 0, 58, 0
2, 36897, Note_on_c, 0, 62, 0
2, 36902, Note_on_c, 0, 68, 0
2, 36924, Note_on_c, 0, 41, 80
2, 36926, Note_on_c, 0, 53, 80
2, 36965, Note_on_c, 0, 74, 0
2, 36965, Note_on_c, 0, 80, 0
2, 36967, Note_on_c, 0, 86, 0
2, 36998, Note_on_c, 0, 80, 80
2, 36998, Note_on_c, 0, 86, 80
2, 36998, Note_on_c, 0, 91, 80
2, 37022, Note_on_c, 0, 41, 0
2, 37029, Note_on_c, 0, 53, 0
2, 37056, Note_on_c, 0, 58, 80
2, 37057, Note_on_c, 0, 62, 80
2, 37059, Note_on_c, 0, 68, 80
2, 37099, Note_on_c, 0, 91, 0
2, 37123, Note_on_c, 0, 89, 80
2, 37150, Note_on_c, 0, 62, 0
2, 37150, Note_on_c, 0, 58, 0
2, 37154, Note_on_c, 0, 80, 0
2, 37154, Note_on_c, 0, 68, 0
2, 37159, Note_on_c, 0, 86, 0
2, 37164, Note_on_c, 0, 89, 0
2, 37171, Note_on_c, 0, 39, 80
2, 37176, Note_on_c, 0, 51, 80
2, 37247, Note_on_c, 0, 82, 80
2, 37269, Note_on_c, 0, 39, 0
2, 37275, Note_on_c, 0, 51, 0
2, 37302, Note_on_c, 0, 58, 80
2, 37307, Note_on_c, 0, 63, 80
2, 37309, Note_on_c, 0, 67, 80
2, 37309, Note_on_c, 0, 79, 80
2, 37311, Note_on_c, 0, 82, 0
2, 37368, Note_on_c, 0, 75, 80
2, 37377, Note_on_c, 0, 79, 0
2, 37401, Note_on_c, 0, 58, 0
2, 37403, Note_on_c, 0, 67, 0
2, 37408, Note_on_c, 0, 63, 0
2, 37428, Note_on_c, 0, 43, 80
2, 37428, Note_on_c, 0, 55, 80
2, 37430, Note_on_c, 0, 72, 80
2, 37437, Note_on_c, 0, 75, 0
2, 37498, Note_on_c, 0, 70, 80
2, 37507, Note_on_c, 0, 72, 0
2, 37529, Note_on_c, 0, 43, 0
2, 37534, Note_on_c, 0, 55, 0
2, 37558, Note_on_c, 0, 42, 80
2, 37558, Note_on_c, 0, 72, 80
2, 37562, Note_on_c, 0, 54, 80
2, 37564, Note_on_c, 0, 70, 0
2, 37624, Note_on_c, 0, 73, 80
2, 37626, Note_on_c, 0, 72, 0
2, 37655, Note_on_c, 0, 42, 0
2, 37659, Note_on_c, 0, 54, 0
2, 37683, Note_on_c, 0, 41, 80
2, 37688, Note_on_c, 0, 53, 80
2, 37690, Note_on_c, 0, 73, 0
2, 37690, Note_on_c, 0, 68, 80
2, 37690, Note_on_c, 0, 74, 80
2, 37729, Note_on_c, 0, 74, 0
2, 37729, Note_on_c, 0, 68, 0
2, 37752, Note_on_c, 0, 72, 80
2, 37753, Note_on_c, 0, 68, 80
2, 37782, Note_on_c, 0, 41, 0
2, 37789, Note_on_c, 0, 53, 0
2, 37816, Note_on_c, 0, 60, 80
2, 37821, Note_on_c, 0, 56, 80
2, 37821, Note_on_c, 0, 65, 80
2, 37860, Note_on_c, 0, 72, 0
2, 37860, Note_on_c, 0, 68, 0
2, 37884, Note_on_c, 0, 70, 80
2, 37886, Note_on_c, 0, 68, 80
2, 37915, Note_on_c, 0, 56, 0
2, 37915, Note_on_c, 0, 60, 0
2, 37945, Note_on_c, 0, 56, 80
2, 37945, Note_on_c, 0, 62, 80
2, 38040, Note_on_c, 0, 62, 0
2, 38042, Note_on_c, 0, 56, 0
2, 38044, Note_on_c, 0, 65, 0
2, 38064, Note_on_c, 0, 34, 80
2, 38064, Note_on_c, 0, 46, 80
2, 38160, Note_on_c, 0, 46, 0
2, 38166, Note_on_c, 0, 34, 0
2, 38173, Note_on_c, 0, 68, 0
2, 38173, Note_on_c, 0, 70, 0
2, 38186, Note_on_c, 0, 39, 80
2, 38188, Note_on_c, 0, 51, 80
2, 38256, Note_on_c, 0, 82, 80
2, 38285, Note_on_c, 0, 39, 0
2, 38287, Note_on_c, 0, 51, 0
2, 38314, Note_on_c, 0, 58, 80
2, 38314, Note_on_c, 0, 63, 80
2, 38321, Note_on_c, 0, 67, 80
2, 38321, Note_on_c, 0, 79, 80
2, 38328, Note_on_c, 0, 82, 0
2, 38382, Note_on_c, 0, 75, 80
2, 38391, Note_on_c, 0, 79, 0
2, 38418, Note_on_c, 0, 67, 0
2, 38418, Note_on_c, 0, 58, 0
2, 38420, Note_on_c, 0, 63, 0
2, 38440, Note_on_c, 0, 43, 80
2, 38445, Note_on_c, 0, 55, 80
2, 38445, Note_on_c, 0, 72, 80
2, 38453, Note_on_c, 0, 75, 0
2, 38513, Note_on_c, 0, 70, 80
2, 38521, Note_on_c, 0, 72, 0
2, 38542, Note_on_c, 0, 43, 0
2, 38552, Note_on_c, 0, 55, 0
2, 38576, Note_on_c, 0, 42, 80
2, 38576, Note_on_c, 0, 54, 80
2, 38576, Note_on_c, 0, 72, 80
2, 38587, Note_on_c, 0, 70, 0
2, 38648, Note_on_c, 0, 73, 80
2, 38650, Note_on_c, 0, 72, 0
2, 38677, Note_on_c, 0, 42, 0
2, 38682, Note_on_c, 0, 54, 0
2, 38704, Note_on_c, 0, 41, 80
2, 38706, Note_on_c, 0, 53, 80
2, 38712, Note_on_c, 0, 73, 0
2, 38712, Note_on_c, 0, 68, 80
2, 38712, Note_on_c, 0, 74, 80
2, 38750, Note_on_c, 0, 74, 0
2, 38750, Note_on_c, 0, 68, 0
2, 38774, Note_on_c, 0, 72, 80
2, 38779, Note_on_c, 0, 68, 80
2, 38806, Note_on_c, 0, 41, 0
2, 38812, Note_on_c, 0, 53, 0
2, 38836, Note_on_c, 0, 56, 80
2, 38836, Note_on_c, 0, 60, 80
2, 38836, Note_on_c, 0, 65, 80
2, 38880, Note_on_c, 0, 72, 0
2, 38880, Note_on_c, 0, 68, 0
2, 38903, Note_on_c, 0, 70, 80
2, 38909, Note_on_c, 0, 68, 80
2, 38938, Note_on_c, 0, 60, 0
2, 38938, Note_on_c, 0, 56, 0
2, 38940, Note_on_c, 0, 65, 0
2, 38964, Note_on_c, 0, 56, 80
2, 38964, Note_on_c, 0, 65, 80
2, 38966, Note_on_c, 0, 62, 80
2, 39063, Note_on_c, 0, 62, 0
2, 39063, Note_on_c, 0, 65, 0
2, 39065, Note_on_c, 0, 56, 0
2, 39085, Note_on_c, 0, 34, 80
2, 39087, Note_on_c, 0, 46, 80
2, 39184, Note_on_c, 0, 46, 0
2, 39186, Note_on_c, 0, 34, 0
2, 39192, Note_on_c, 0, 68, 0
2, 39197, Note_on_c, 0, 70, 0
2, 39208, Note_on_c, 0, 39, 80
2, 39208, Note_on_c, 0, 51, 80
2, 39276, Note_on_c, 0, 82, 80
2, 39303, Note_on_c, 0, 39, 0
2, 39312, Note_on_c, 0, 51, 0
2, 39332, Note_on_c, 0, 51, 80
2, 39334, Note_on_c, 0, 61, 80
2, 39340, Note_on_c, 0, 58, 80
2, 39340, Note_on_c, 0, 79, 80
2, 39345, Note_on_c, 0, 82, 0
2, 39409, Note_on_c, 0, 75, 80
2, 39416, Note_on_c, 0, 79, 0
2, 39432, Note_on_c, 0, 61, 0
2, 39436, Note_on_c, 0, 58, 0
2, 39438, Note_on_c, 0, 51, 0
2, 39467, Note_on_c, 0, 46, 80
2, 39467, Note_on_c, 0, 58, 80
2, 39472, Note_on_c, 0, 73, 80
2, 39477, Note_on_c, 0, 75, 0
2, 39541, Note_on_c, 0, 84, 80
2, 39568, Note_on_c, 0, 46, 0
2, 39568, Note_on_c, 0, 58, 0
2, 39599, Note_on_c, 0, 47, 80
2, 39599, Note_on_c, 0, 59, 80
2, 39638, Note_on_c, 0, 73, 0
2, 39638, Note_on_c, 0, 84, 0
2, 39662, Note_on_c, 0, 70, 80
2, 39664, Note_on_c, 0, 75, 80
2, 39666, Note_on_c, 0, 82, 80
2, 39693, Note_on_c, 0, 47, 0
2, 39697, Note_on_c, 0, 59, 0
2, 39724, Note_on_c, 0, 60, 80
2, 39729, Note_on_c, 0, 48, 80
2, 39791, Note_on_c, 0, 80, 80
2, 39795, Note_on_c, 0, 82, 0
2, 39819, Note_on_c, 0, 48, 0
2, 39826, Note_on_c, 0, 60, 0
2, 39828, Note_on_c, 0, 75, 0
2, 39850, Note_on_c, 0, 56, 80
2, 39850, Note_on_c, 0, 60, 80
2, 39850, Note_on_c, 0, 75, 80
2, 39852, Note_on_c, 0, 63, 80
2, 39859, Note_on_c, 0, 80, 0
2, 39889, Note_on_c, 0, 70, 0
2, 39916, Note_on_c, 0, 70, 80
2, 39925, Note_on_c, 0, 75, 0
2, 39952, Note_on_c, 0, 56, 0
2, 39954, Note_on_c, 0, 60, 0
2, 39954, Note_on_c, 0, 63, 0
2, 39976, Note_on_c, 0, 47, 80
2, 39976, Note_on_c, 0, 59, 80
2, 40047, Note_on_c, 0, 75, 80
2, 40074, Note_on_c, 0, 47, 0
2, 40082, Note_on_c, 0, 59, 0
2, 40106, Note_on_c, 0, 59, 80
2, 40106, Note_on_c, 0, 77, 80
2, 40108, Note_on_c, 0, 63, 80
2, 40110, Note_on_c, 0, 56, 80
2, 40112, Note_on_c, 0, 75, 0
2, 40174, Note_on_c, 0, 77, 0
2, 40174, Note_on_c, 0, 78, 80
2, 40204, Note_on_c, 0, 56, 0
2, 40206, Note_on_c, 0, 63, 0
2, 40208, Note_on_c, 0, 59, 0
2, 40230, Note_on_c, 0, 46, 80
2, 40230, Note_on_c, 0, 58, 80
2, 40235, Note_on_c, 0, 67, 80
2, 40235, Note_on_c, 0, 75, 80
2, 40235, Note_on_c, 0, 79, 80
2, 40240, Note_on_c, 0, 70, 0
2, 40240, Note_on_c, 0, 78, 0
2, 40275, Note_on_c, 0, 79, 0
2, 40297, Note_on_c, 0, 82, 80
2, 40324, Note_on_c, 0, 46, 0
2, 40333, Note_on_c, 0, 58, 0
2, 40355, Note_on_c, 0, 58, 80
2, 40355, Note_on_c, 0, 63, 80
2, 40357, Note_on_c, 0, 55, 80
2, 40394, Note_on_c, 0, 67, 0
2, 40394, Note_on_c, 0, 82, 0
2, 40399, Note_on_c, 0, 75, 0
2, 40423, Note_on_c, 0, 70, 80
2, 40456, Note_on_c, 0, 58, 0
2, 40456, Note_on_c, 0, 55, 0
2, 40463, Note_on_c, 0, 63, 0
2, 40483, Note_on_c, 0, 58, 80
2, 40488, Note_on_c, 0, 46, 80
2, 40552, Note_on_c, 0, 79, 80
2, 40581, Note_on_c, 0, 46, 0
2, 40585, Note_on_c, 0, 58, 0
2, 40587, Note_on_c, 0, 70, 0
2, 40589, Note_on_c, 0, 79, 0
2, 40611, Note_on_c, 0, 74, 80
2, 40611, Note_on_c, 0, 77, 80
2, 40616, Note_on_c, 0, 58, 80
2, 40618, Note_on_c, 0, 56, 80
2, 40618, Note_on_c, 0, 62, 80
2, 40623, Note_on_c, 0, 68, 80
2, 40706, Note_on_c, 0, 62, 0
2, 40708, Note_on_c, 0, 58, 0
2, 40713, Note_on_c, 0, 56, 0
2, 40713, Note_on_c, 0, 77, 0
2, 40715, Note_on_c, 0, 74, 0
2, 40715, Note_on_c, 0, 68, 0
2, 40735, Note_on_c, 0, 51, 80
2, 40735, Note_on_c, 0, 58, 80
2, 40740, Note_on_c, 0, 75, 80
2, 40745, Note_on_c, 0, 67, 80
2, 40838, Note_on_c, 0, 58, 0
2, 40838, Note_on_c, 0, 51, 0
2, 40840, Note_on_c, 0, 75, 0
2, 40842, Note_on_c, 0, 67, 0
2, 40994, Note_on_c, 0, 39, 80
2, 40994, Note_on_c, 0, 51, 80
2, 40999, Note_on_c, 0, 75, 80
2, 41004, Note_on_c, 0, 79, 80
2, 41004, Note_on_c, 0, 82, 80
2, 41004, Note_on_c, 0, 87, 80
2, 41090, Note_on_c, 0, 39, 0
2, 41099, Note_on_c, 0, 51, 0
2, 41104, Note_on_c, 0, 82, 0
2, 41104, Note_on_c, 0, 75, 0
2, 41104, Note_on_c, 0, 87, 0
2, 41109, Note_on_c, 0, 79, 0
2, 41255, Note_on_c, 0, 63, 80
2, 41256, Note_on_c, 0, 75, 80
2, 41316, Note_on_c, 0, 65, 80
2, 41323, Note_on_c, 0, 77, 80
2, 41328, Note_on_c, 0, 75, 0
2, 41329, Note_on_c, 0, 63, 0
2, 41384, Note_on_c, 0, 77, 0
2, 41384, Note_on_c, 0, 63, 80
2, 41384, Note_on_c, 0, 75, 80
2, 41391, Note_on_c, 0, 65, 0
2, 41448, Note_on_c, 0, 61, 80
2, 41455, Note_on_c, 0, 73, 80
2, 41457, Note_on_c, 0, 75, 0
2, 41457, Note_on_c, 0, 63, 0
2, 41574, Note_on_c, 0, 70, 80
2, 41581, Note_on_c, 0, 61, 0
2, 41581, Note_on_c, 0, 73, 0
2, 41581, Note_on_c, 0, 58, 80
2, 41642, Note_on_c, 0, 58, 0
2, 41642, Note_on_c, 0, 55, 80
2, 41642, Note_on_c, 0, 67, 80
2, 41649, Note_on_c, 0, 70, 0
2, 41746, Note_on_c, 0, 67, 0
2, 41746, Note_on_c, 0, 55, 0
2, 41773, Note_on_c, 0, 53, 80
2, 41773, Note_on_c, 0, 65, 80
2, 41907, Note_on_c, 0, 52, 80
2, 41907, Note_on_c, 0, 64, 80
2, 41912, Note_on_c, 0, 65, 0
2, 41912, Note_on_c, 0, 53, 0
2, 41965, Note_on_c, 0, 51, 80
2, 41970, Note_on_c, 0, 52, 0
2, 41970, Note_on_c, 0, 64, 0
2, 41970, Note_on_c, 0, 63, 80
2, 42065, Note_on_c, 0, 51, 0
2, 42070, Note_on_c, 0, 63, 0
2, 42098, Note_on_c, 0, 61, 80
2, 42158, Note_on_c, 0, 61, 0
2, 42158, Note_on_c, 0, 63, 80
2, 42219, Note_on_c, 0, 65, 80
2, 42228, Note_on_c, 0, 63, 0
2, 42288, Note_on_c, 0, 67, 80
2, 42289, Note_on_c, 0, 65, 0
2, 42384, Note_on_c, 0, 67, 0
2, 42407, Note_on_c, 0, 46, 80
2, 42407, Note_on_c, 0, 51, 80
2, 42407, Note_on_c, 0, 61, 80
2, 42413, Note_on_c, 0, 67, 80
2, 42502, Note_on_c, 0, 46, 0
2, 42508, Note_on_c, 0, 67, 0
2, 42508, Note_on_c, 0, 61, 0
2, 42513, Note_on_c, 0, 51, 0
2, 42535, Note_on_c, 0, 46, 80
2, 42535, Note_on_c, 0, 53, 80
2, 42540, Note_on_c, 0, 61, 80
2, 42542, Note_on_c, 0, 68, 80
2, 42635, Note_on_c, 0, 46, 0
2, 42637, Note_on_c, 0, 61, 0
2, 42642, Note_on_c, 0, 53, 0
2, 42644, Note_on_c, 0, 68, 0
2, 42661, Note_on_c, 0, 46, 80
2, 42668, Note_on_c, 0, 61, 80
2, 42670, Note_on_c, 0, 54, 80
2, 42670, Note_on_c, 0, 69, 80
2, 42760, Note_on_c, 0, 46, 0
2, 42762, Note_on_c, 0, 61, 0
2, 42762, Note_on_c, 0, 54, 0
2, 42770, Note_on_c, 0, 69, 0
2, 42791, Note_on_c, 0, 46, 80
2, 42792, Note_on_c, 0, 55, 80
2, 42792, Note_on_c, 0, 61, 80
2, 42794, Note_on_c, 0, 63, 80
2, 42794, Note_on_c, 0, 70, 80
2, 42947, Note_on_c, 0, 61, 0
2, 42956, Note_on_c, 0, 63, 0
2, 42956, Note_on_c, 0, 70, 0
2, 42980, Note_on_c, 0, 70, 80
2, 42984, Note_on_c, 0, 61, 80
2, 42984, Note_on_c, 0, 67, 80
2, 42984, Note_on_c, 0, 75, 80
2, 43011, Note_on_c, 0, 46, 0
2, 43018, Note_on_c, 0, 55, 0
2, 43038, Note_on_c, 0, 39, 80
2, 43076, Note_on_c, 0, 61, 0
2, 43080, Note_on_c, 0, 70, 0
2, 43082, Note_on_c, 0, 75, 0
2, 43082, Note_on_c, 0, 67, 0
2, 43115, Note_on_c, 0, 62, 80
2, 43139, Note_on_c, 0, 62, 0
2, 43170, Note_on_c, 0, 51, 80
2, 43172, Note_on_c, 0, 63, 80
2, 43204, Note_on_c, 0, 63, 0
2, 43233, Note_on_c, 0, 64, 80
2, 43262, Note_on_c, 0, 39, 0
2, 43269, Note_on_c, 0, 64, 0
2, 43273, Note_on_c, 0, 51, 0
2, 43291, Note_on_c, 0, 65, 80
2, 43297, Note_on_c, 0, 44, 80
2, 43297, Note_on_c, 0, 60, 80
2, 43359, Note_on_c, 0, 60, 0
2, 43364, Note_on_c, 0, 65, 0
2, 43364, Note_on_c, 0, 63, 80
2, 43388, Note_on_c, 0, 44, 0
2, 43425, Note_on_c, 0, 51, 80
2, 43425, Note_on_c, 0, 60, 80
2, 43430, Note_on_c, 0, 63, 0
2, 43489, Note_on_c, 0, 56, 80
2, 43494, Note_on_c, 0, 60, 0
2, 43525, Note_on_c, 0, 51, 0
2, 43552, Note_on_c, 0, 39, 80
2, 43591, Note_on_c, 0, 56, 0
2, 43618, Note_on_c, 0, 50, 80
2, 43647, Note_on_c, 0, 39, 0
2, 43682, Note_on_c, 0, 51, 80
2, 43687, Note_on_c, 0, 50, 0
2, 43687, Note_on_c, 0, 48, 80
2, 43747, Note_on_c, 0, 52, 80
2, 43752, Note_on_c, 0, 51, 0
2, 43782, Note_on_c, 0, 48, 0
2, 43813, Note_on_c, 0, 44, 80
2, 43813, Note_on_c, 0, 53, 80
2, 43815, Note_on_c, 0, 52, 0
2, 43822, Note_on_c, 0, 37, 80
2, 43874, Note_on_c, 0, 56, 80
2, 43881, Note_on_c, 0, 53, 0
2, 43941, Note_on_c, 0, 44, 0
2, 43941, Note_on_c, 0, 46, 80
2, 43941, Note_on_c, 0, 52, 80
2, 43945, Note_on_c, 0, 56, 0
2, 44003, Note_on_c, 0, 56, 80
2, 44008, Note_on_c, 0, 52, 0
2, 44037, Note_on_c, 0, 37, 0
2, 44041, Note_on_c, 0, 46, 0
2, 44062, Note_on_c, 0, 36, 80
2, 44066, Note_on_c, 0, 51, 80
2, 44075, Note_on_c, 0, 56, 0
2, 44075, Note_on_c, 0, 48, 80
2, 44136, Note_on_c, 0, 53, 80
2, 44138, Note_on_c, 0, 51, 0
2, 44205, Note_on_c, 0, 56, 80
2, 44207, Note_on_c, 0, 53, 0
2, 44273, Note_on_c, 0, 58, 80
2, 44278, Note_on_c, 0, 56, 0
2, 44302, Note_on_c, 0, 36, 0
2, 44304, Note_on_c, 0, 48, 0
2, 44330, Note_on_c, 0, 60, 80
2, 44337, Note_on_c, 0, 58, 0
2, 44395, Note_on_c, 0, 63, 80
2, 44400, Note_on_c, 0, 60, 0
2, 44459, Note_on_c, 0, 65, 80
2, 44470, Note_on_c, 0, 63, 0
2, 44531, Note_on_c, 0, 65, 0
2, 44531, Note_on_c, 0, 68, 80
2, 44592, Note_on_c, 0, 70, 80
2, 44597, Note_on_c, 0, 68, 0
2, 44657, Note_on_c, 0, 72, 80
2, 44659, Note_on_c, 0, 70, 0
2, 44720, Note_on_c, 0, 75, 80
2, 44722, Note_on_c, 0, 72, 0
2, 44782, Note_on_c, 0, 77, 80
2, 44786, Note_on_c, 0, 75, 0
2, 44839, Note_on_c, 0, 44, 80
2, 44844, Note_on_c, 0, 56, 80
2, 44844, Note_on_c, 0, 72, 80
2, 44846, Note_on_c, 0, 77, 0
2, 44846, Note_on_c, 0, 79, 80
2, 44905, Note_on_c, 0, 75, 80
2, 44914, Note_on_c, 0, 79, 0
2, 44936, Note_on_c, 0, 44, 0
2, 44943, Note_on_c, 0, 56, 0
2, 44963, Note_on_c, 0, 51, 80
2, 44963, Note_on_c, 0, 56, 80
2, 44972, Note_on_c, 0, 75, 0
2, 44972, Note_on_c, 0, 60, 80
2, 44972, Note_on_c, 0, 79, 80
2, 45009, Note_on_c, 0, 72, 0
2, 45031, Note_on_c, 0, 72, 80
2, 45036, Note_on_c, 0, 68, 80
2, 45036, Note_on_c, 0, 77, 80
2, 45043, Note_on_c, 0, 79, 0
2, 45065, Note_on_c, 0, 56, 0
2, 45067, Note_on_c, 0, 51, 0
2, 45072, Note_on_c, 0, 60, 0
2, 45092, Note_on_c, 0, 44, 80
2, 45094, Note_on_c, 0, 56, 80
2, 45133, Note_on_c, 0, 77, 0
2, 45164, Note_on_c, 0, 79, 80
2, 45191, Note_on_c, 0, 44, 0
2, 45195, Note_on_c, 0, 56, 0
2, 45200, Note_on_c, 0, 79, 0
2, 45200, Note_on_c, 0, 68, 0
2, 45202, Note_on_c, 0, 72, 0
2, 45224, Note_on_c, 0, 45, 80
2, 45224, Note_on_c, 0, 57, 80
2, 45224, Note_on_c, 0, 72, 80
2, 45226, Note_on_c, 0, 66, 80
2, 45228, Note_on_c, 0, 77, 80
2, 45316, Note_on_c, 0, 45, 0
2, 45323, Note_on_c, 0, 66, 0
2, 45325, Note_on_c, 0, 57, 0
2, 45325, Note_on_c, 0, 72, 0
2, 45325, Note_on_c, 0, 77, 0
2, 45345, Note_on_c, 0, 46, 80
2, 45347, Note_on_c, 0, 58, 80
2, 45349, Note_on_c, 0, 77, 80
2, 45351, Note_on_c, 0, 67, 80
2, 45351, Note_on_c, 0, 73, 80
2, 45415, Note_on_c, 0, 75, 80
2, 45420, Note_on_c, 0, 77, 0
2, 45447, Note_on_c, 0, 46, 0
2, 45447, Note_on_c, 0, 58, 0
2, 45476, Note_on_c, 0, 51, 80
2, 45482, Note_on_c, 0, 55, 80
2, 45484, Note_on_c, 0, 61, 80
2, 45515, Note_on_c, 0, 67, 0
2, 45515, Note_on_c, 0, 73, 0
2, 45548, Note_on_c, 0, 75, 0
2, 45548, Note_on_c, 0, 67, 80
2, 45548, Note_on_c, 0, 72, 80
2, 45575, Note_on_c, 0, 61, 0
2, 45579, Note_on_c, 0, 55, 0
2, 45581, Note_on_c, 0, 51, 0
2, 45599, Note_on_c, 0, 39, 80
2, 45603, Note_on_c, 0, 51, 80
2, 45646, Note_on_c, 0, 72, 0
2, 45674, Note_on_c, 0, 75, 80
2, 45696, Note_on_c, 0, 39, 0
2, 45701, Note_on_c, 0, 67, 0
2, 45703, Note_on_c, 0, 51, 0
2, 45705, Note_on_c, 0, 75, 0
2, 45732, Note_on_c, 0, 49, 80
2, 45734, Note_on_c, 0, 67, 80
2, 45734, Note_on_c, 0, 70, 80
2, 45744, Note_on_c, 0, 37, 80
2, 45824, Note_on_c, 0, 37, 0
2, 45829, Note_on_c, 0, 49, 0
2, 45834, Note_on_c, 0, 67, 0
2, 45836, Note_on_c, 0, 70, 0
2, 45853, Note_on_c, 0, 36, 80
2, 45860, Note_on_c, 0, 63, 80
2, 45862, Note_on_c, 0, 48, 80
2, 45862, Note_on_c, 0, 68, 80
2, 45916, Note_on_c, 0, 72, 80
2, 45927, Note_on_c, 0, 68, 0
2, 45947, Note_on_c, 0, 36, 0
2, 45952, Note_on_c, 0, 48, 0
2, 45979, Note_on_c, 0, 51, 80
2, 45979, Note_on_c, 0, 56, 80
2, 45979, Note_on_c, 0, 60, 80
2, 45984, Note_on_c, 0, 75, 80
2, 45988, Note_on_c, 0, 72, 0
2, 46021, Note_on_c, 0, 63, 0
2, 46043, Note_on_c, 0, 65, 80
2, 46045, Note_on_c, 0, 72, 80
2, 46050, Note_on_c, 0, 75, 0
2, 46050, Note_on_c, 0, 68, 80
2, 46050, Note_on_c, 0, 77, 80
2, 46077, Note_on_c, 0, 60, 0
2, 46081, Note_on_c, 0, 56, 0
2, 46081, Note_on_c, 0, 51, 0
2, 46104, Note_on_c, 0, 36, 80
2, 46110, Note_on_c, 0, 48, 80
2, 46148, Note_on_c, 0, 77, 0
2, 46175, Note_on_c, 0, 78, 80
2, 46199, Note_on_c, 0, 36, 0
2, 46203, Note_on_c, 0, 48, 0
2, 46212, Note_on_c, 0, 68, 0
2, 46214, Note_on_c, 0, 72, 0
2, 46214, Note_on_c, 0, 65, 0
2, 46231, Note_on_c, 0, 35, 80
2, 46231, Note_on_c, 0, 47, 80
2, 46238, Note_on_c, 0, 69, 80
2, 46238, Note_on_c, 0, 75, 80
2, 46240, Note_on_c, 0, 66, 80
2, 46330, Note_on_c, 0, 47, 0
2, 46330, Note_on_c, 0, 35, 0
2, 46337, Note_on_c, 0, 66, 0
2, 46342, Note_on_c, 0, 75, 0
2, 46342, Note_on_c, 0, 69, 0
2, 46344, Note_on_c, 0, 78, 0
2, 46354, Note_on_c, 0, 34, 80
2, 46359, Note_on_c, 0, 46, 80
2, 46359, Note_on_c, 0, 67, 80
2, 46361, Note_on_c, 0, 70, 80
2, 46363, Note_on_c, 0, 75, 80
2, 46368, Note_on_c, 0, 79, 80
2, 46394, Note_on_c, 0, 67, 0
2, 46399, Note_on_c, 0, 70, 0
2, 46404, Note_on_c, 0, 75, 0
2, 46428, Note_on_c, 0, 75, 80
2, 46435, Note_on_c, 0, 79, 0
2, 46459, Note_on_c, 0, 46, 0
2, 46459, Note_on_c, 0, 34, 0
2, 46491, Note_on_c, 0, 55, 80
2, 46491, Note_on_c, 0, 58, 80
2, 46491, Note_on_c, 0, 63, 80
2, 46491, Note_on_c, 0, 70, 80
2, 46500, Note_on_c, 0, 75, 0
2, 46560, Note_on_c, 0, 67, 80
2, 46566, Note_on_c, 0, 70, 0
2, 46590, Note_on_c, 0, 58, 0
2, 46595, Note_on_c, 0, 55, 0
2, 46597, Note_on_c, 0, 63, 0
2, 46621, Note_on_c, 0, 34, 80
2, 46626, Note_on_c, 0, 46, 80
2, 46661, Note_on_c, 0, 67, 0
2, 46701, Note_on_c, 0, 79, 80
2, 46723, Note_on_c, 0, 46, 0
2, 46723, Note_on_c, 0, 34, 0
2, 46736, Note_on_c, 0, 79, 0
2, 46753, Note_on_c, 0, 56, 80
2, 46753, Note_on_c, 0, 58, 80
2, 46758, Note_on_c, 0, 62, 80
2, 46760, Note_on_c, 0, 68, 80
2, 46760, Note_on_c, 0, 74, 80
2, 46760, Note_on_c, 0, 77, 80
2, 46855, Note_on_c, 0, 62, 0
2, 46855, Note_on_c, 0, 56, 0
2, 46857, Note_on_c, 0, 77, 0
2, 46864, Note_on_c, 0, 68, 0
2, 46866, Note_on_c, 0, 74, 0
2, 46879, Note_on_c, 0, 51, 80
2, 46888, Note_on_c, 0, 67, 80
2, 46888, Note_on_c, 0, 75, 80
2, 46920, Note_on_c, 0, 67, 0
2, 46953, Note_on_c, 0, 73, 80
2, 46958, Note_on_c, 0, 75, 0
2, 47013, Note_on_c, 0, 70, 80
2, 47017, Note_on_c, 0, 73, 0
2, 47077, Note_on_c, 0, 67, 80
2, 47084, Note_on_c, 0, 70, 0
2, 47112, Note_on_c, 0, 58, 0
2, 47117, Note_on_c, 0, 51, 0
2, 47139, Note_on_c, 0, 63, 80
2, 47150, Note_on_c, 0, 67, 0
2, 47209, Note_on_c, 0, 62, 80
2, 47247, Note_on_c, 0, 63, 0
2, 47269, Note_on_c, 0, 51, 80
2, 47269, Note_on_c, 0, 63, 80
2, 47274, Note_on_c, 0, 62, 0
2, 47335, Note_on_c, 0, 64, 80
2, 47344, Note_on_c, 0, 63, 0
2, 47373, Note_on_c, 0, 51, 0
2, 47395, Note_on_c, 0, 65, 80
2, 47397, Note_on_c, 0, 44, 80
2, 47397, Note_on_c, 0, 60, 80
2, 47399, Note_on_c, 0, 64, 0
2, 47460, Note_on_c, 0, 63, 80
2, 47465, Note_on_c, 0, 60, 0
2, 47467, Note_on_c, 0, 65, 0
2, 47494, Note_on_c, 0, 44, 0
2, 47520, Note_on_c, 0, 51, 80
2, 47522, Note_on_c, 0, 60, 80
2, 47531, Note_on_c, 0, 63, 0
2, 47584, Note_on_c, 0, 56, 80
2, 47592, Note_on_c, 0, 60, 0
2, 47619, Note_on_c, 0, 51, 0
2, 47640, Note_on_c, 0, 39, 80
2, 47684, Note_on_c, 0, 56, 0
2, 47706, Note_on_c, 0, 50, 80
2, 47738, Note_on_c, 0, 39, 0
2, 47767, Note_on_c, 0, 51, 80
2, 47776, Note_on_c, 0, 50, 0
2, 47778, Note_on_c, 0, 48, 80
2, 47832, Note_on_c, 0, 52, 80
2, 47837, Note_on_c, 0, 51, 0
2, 47866, Note_on_c, 0, 48, 0
2, 47897, Note_on_c, 0, 44, 80
2, 47899, Note_on_c, 0, 53, 80
2, 47901, Note_on_c, 0, 52, 0
2, 47905, Note_on_c, 0, 37, 80
2, 47960, Note_on_c, 0, 56, 80
2, 47965, Note_on_c, 0, 53, 0
2, 48024, Note_on_c, 0, 44, 0
2, 48024, Note_on_c, 0, 46, 80
2, 48024, Note_on_c, 0, 52, 80
2, 48031, Note_on_c, 0, 56, 0
2, 48089, Note_on_c, 0, 52, 0
2, 48094, Note_on_c, 0, 56, 80
2, 48118, Note_on_c, 0, 37, 0
2, 48120, Note_on_c, 0, 46, 0
2, 48152, Note_on_c, 0, 36, 80
2, 48154, Note_on_c, 0, 51, 80
2, 48163, Note_on_c, 0, 56, 0
2, 48163, Note_on_c, 0, 48, 80
2, 48224, Note_on_c, 0, 51, 0
2, 48226, Note_on_c, 0, 53, 80
2, 48284, Note_on_c, 0, 56, 80
2, 48292, Note_on_c, 0, 53, 0
2, 48350, Note_on_c, 0, 58, 80
2, 48355, Note_on_c, 0, 56, 0
2, 48377, Note_on_c, 0, 36, 0
2, 48379, Note_on_c, 0, 48, 0
2, 48409, Note_on_c, 0, 60, 80
2, 48411, Note_on_c, 0, 58, 0
2, 48476, Note_on_c, 0, 60, 0
2, 48476, Note_on_c, 0, 63, 80
2, 48535, Note_on_c, 0, 65, 80
2, 48542, Note_on_c, 0, 63, 0
2, 48600, Note_on_c, 0, 68, 80
2, 48601, Note_on_c, 0, 65, 0
2, 48659, Note_on_c, 0, 70, 80
2, 48664, Note_on_c, 0, 68, 0
2, 48717, Note_on_c, 0, 72, 80
2, 48730, Note_on_c, 0, 70, 0
2, 48783, Note_on_c, 0, 75, 80
2, 48792, Note_on_c, 0, 72, 0
2, 48849, Note_on_c, 0, 77, 80
2, 48856, Note_on_c, 0, 75, 0
2, 48913, Note_on_c, 0, 44, 80
2, 48913, Note_on_c, 0, 56, 80
2, 48913, Note_on_c, 0, 72, 80
2, 48922, Note_on_c, 0, 77, 0
2, 48922, Note_on_c, 0, 79, 80
2, 48984, Note_on_c, 0, 75, 80
2, 48990, Note_on_c, 0, 79, 0
2, 49014, Note_on_c, 0, 44, 0
2, 49016, Note_on_c, 0, 56, 0
2, 49038, Note_on_c, 0, 51, 80
2, 49043, Note_on_c, 0, 56, 80
2, 49043, Note_on_c, 0, 60, 80
2, 49052, Note_on_c, 0, 75, 0
2, 49052, Note_on_c, 0, 79, 80
2, 49082, Note_on_c, 0, 72, 0
2, 49109, Note_on_c, 0, 72, 80
2, 49114, Note_on_c, 0, 68, 80
2, 49114, Note_on_c, 0, 77, 80
2, 49121, Note_on_c, 0, 79, 0
2, 49148, Note_on_c, 0, 60, 0
2, 49148, Note_on_c, 0, 51, 0
2, 49170, Note_on_c, 0, 44, 80
2, 49216, Note_on_c, 0, 77, 0
2, 49247, Note_on_c, 0, 79, 80
2, 49269, Note_on_c, 0, 44, 0
2, 49277, Note_on_c, 0, 56, 0
2, 49279, Note_on_c, 0, 68, 0
2, 49284, Note_on_c, 0, 72, 0
2, 49284, Note_on_c, 0, 79, 0
2, 49306, Note_on_c, 0, 45, 80
2, 49306, Note_on_c, 0, 57, 80
2, 49306, Note_on_c, 0, 72, 80
2, 49311, Note_on_c, 0, 66, 80
2, 49311, Note_on_c, 0, 77, 80
2, 49399, Note_on_c, 0, 45, 0
2, 49408, Note_on_c, 0, 66, 0
2, 49408, Note_on_c, 0, 57, 0
2, 49413, Note_on_c, 0, 72, 0
2, 49423, Note_on_c, 0, 46, 80
2, 49423, Note_on_c, 0, 73, 80
2, 49428, Note_on_c, 0, 58, 80
2, 49428, Note_on_c, 0, 67, 80
2, 49492, Note_on_c, 0, 75, 80
2, 49497, Note_on_c, 0, 77, 0
2, 49517, Note_on_c, 0, 46, 0
2, 49522, Note_on_c, 0, 58, 0
2, 49551, Note_on_c, 0, 51, 80
2, 49553, Note_on_c, 0, 61, 80
2, 49558, Note_on_c, 0, 55, 80
2, 49590, Note_on_c, 0, 73, 0
2, 49592, Note_on_c, 0, 67, 0
2, 49616, Note_on_c, 0, 72, 80
2, 49618, Note_on_c, 0, 67, 80
2, 49625, Note_on_c, 0, 75, 0
2, 49647, Note_on_c, 0, 61, 0
2, 49652, Note_on_c, 0, 55, 0
2, 49654, Note_on_c, 0, 51, 0
2, 49671, Note_on_c, 0, 39, 80
2, 49676, Note_on_c, 0, 51, 80
2, 49720, Note_on_c, 0, 72, 0
2, 49749, Note_on_c, 0, 75, 80
2, 49776, Note_on_c, 0, 39, 0
2, 49784, Note_on_c, 0, 51, 0
2, 49784, Note_on_c, 0, 67, 0
2, 49789, Note_on_c, 0, 75, 0
2, 49813, Note_on_c, 0, 49, 80
2, 49813, Note_on_c, 0, 67, 80
2, 49813, Note_on_c, 0, 70, 80
2, 49824, Note_on_c, 0, 37, 80
2, 49900, Note_on_c, 0, 37, 0
2, 49911, Note_on_c, 0, 49, 0
2, 49911, Note_on_c, 0, 67, 0
2, 49916, Note_on_c, 0, 70, 0
2, 49931, Note_on_c, 0, 36, 80
2, 49938, Note_on_c, 0, 48, 80
2, 49938, Note_on_c, 0, 63, 80
2, 49943, Note_on_c, 0, 68, 80
2, 50000, Note_on_c, 0, 72, 80
2, 50009, Note_on_c, 0, 68, 0
2, 50026, Note_on_c, 0, 36, 0
2, 50035, Note_on_c, 0, 48, 0
2, 50064, Note_on_c, 0, 51, 80
2, 50068, Note_on_c, 0, 56, 80
2, 50068, Note_on_c, 0, 60, 80
2, 50073, Note_on_c, 0, 75, 80
2, 50078, Note_on_c, 0, 72, 0
2, 50109, Note_on_c, 0, 63, 0
2, 50131, Note_on_c, 0, 65, 80
2, 50136, Note_on_c, 0, 68, 80
2, 50136, Note_on_c, 0, 77, 80
2, 50137, Note_on_c, 0, 73, 80
2, 50139, Note_on_c, 0, 75, 0
2, 50166, Note_on_c, 0, 51, 0
2, 50166, Note_on_c, 0, 56, 0
2, 50168, Note_on_c, 0, 60, 0
2, 50190, Note_on_c, 0, 49, 80
2, 50201, Note_on_c, 0, 37, 80
2, 50284, Note_on_c, 0, 37, 0
2, 50291, Note_on_c, 0, 77, 0
2, 50291, Note_on_c, 0, 49, 0
2, 50296, Note_on_c, 0, 73, 0
2, 50296, Note_on_c, 0, 65, 0
2, 50296, Note_on_c, 0, 68, 0
2, 50313, Note_on_c, 0, 50, 80
2, 50318, Note_on_c, 0, 59, 80
2, 50323, Note_on_c, 0, 68, 80
2, 50323, Note_on_c, 0, 71, 80
2, 50323, Note_on_c, 0, 77, 80
2, 50325, Note_on_c, 0, 62, 80
2, 50413, Note_on_c, 0, 50, 0
2, 50415, Note_on_c, 0, 62, 0
2, 50417, Note_on_c, 0, 77, 0
2, 50422, Note_on_c, 0, 59, 0
2, 50422, Note_on_c, 0, 68, 0
2, 50422, Note_on_c, 0, 71, 0
2, 50432, Note_on_c, 0, 51, 80
2, 50437, Note_on_c, 0, 60, 80
2, 50442, Note_on_c, 0, 72, 80
2, 50447, Note_on_c, 0, 63, 80
2, 50447, Note_on_c, 0, 68, 80
2, 50447, Note_on_c, 0, 77, 80
2, 50482, Note_on_c, 0, 68, 0
2, 50482, Note_on_c, 0, 72, 0
2, 50509, Note_on_c, 0, 75, 80
2, 50514, Note_on_c, 0, 77, 0
2, 50571, Note_on_c, 0, 72, 80
2, 50578, Note_on_c, 0, 75, 0
2, 50642, Note_on_c, 0, 68, 80
2, 50647, Note_on_c, 0, 72, 0
2, 50674, Note_on_c, 0, 60, 0
2, 50674, Note_on_c, 0, 51, 0
2, 50676, Note_on_c, 0, 63, 0
2, 50703, Note_on_c, 0, 63, 80
2, 50749, Note_on_c, 0, 68, 0
2, 50769, Note_on_c, 0, 72, 80
2, 50811, Note_on_c, 0, 72, 0
2, 50811, Note_on_c, 0, 63, 0
2, 50832, Note_on_c, 0, 51, 80
2, 50836, Note_on_c, 0, 61, 80
2, 50836, Note_on_c, 0, 67, 80
2, 50836, Note_on_c, 0, 70, 80
2, 50931, Note_on_c, 0, 61, 0
2, 50933, Note_on_c, 0, 51, 0
2, 50933, Note_on_c, 0, 67, 0
2, 50935, Note_on_c, 0, 70, 0
2, 50959, Note_on_c, 0, 44, 80
2, 50961, Note_on_c, 0, 51, 80
2, 50963, Note_on_c, 0, 60, 80
2, 50965, Note_on_c, 0, 68, 80
2, 51060, Note_on_c, 0, 60, 0
2, 51062, Note_on_c, 0, 68, 0
2, 51086, Note_on_c, 0, 75, 80
2, 51147, Note_on_c, 0, 63, 80
2, 51152, Note_on_c, 0, 75, 0
2, 51179, Note_on_c, 0, 44, 0
2, 51184, Note_on_c, 0, 51, 0
2, 51206, Note_on_c, 0, 39, 80
2, 51248, Note_on_c, 0, 63, 0
2, 51277, Note_on_c, 0, 62, 80
2, 51301, Note_on_c, 0, 39, 0
2, 51334, Note_on_c, 0, 51, 80
2, 51336, Note_on_c, 0, 62, 0
2, 51337, Note_on_c, 0, 63, 80
2, 51404, Note_on_c, 0, 64, 80
2, 51408, Note_on_c, 0, 63, 0
2, 51435, Note_on_c, 0, 51, 0
2, 51457, Note_on_c, 0, 44, 80
2, 51457, Note_on_c, 0, 60, 80
2, 51462, Note_on_c, 0, 65, 80
2, 51471, Note_on_c, 0, 64, 0
2, 51528, Note_on_c, 0, 65, 0
2, 51528, Note_on_c, 0, 63, 80
2, 51530, Note_on_c, 0, 60, 0
2, 51552, Note_on_c, 0, 44, 0
2, 51583, Note_on_c, 0, 51, 80
2, 51585, Note_on_c, 0, 60, 80
2, 51596, Note_on_c, 0, 63, 0
2, 51653, Note_on_c, 0, 60, 0
2, 51653, Note_on_c, 0, 56, 80
2, 51686, Note_on_c, 0, 51, 0
2, 51713, Note_on_c, 0, 39, 80
2, 51757, Note_on_c, 0, 56, 0
2, 51779, Note_on_c, 0, 50, 80
2, 51815, Note_on_c, 0, 39, 0
2, 51845, Note_on_c, 0, 51, 80
2, 51852, Note_on_c, 0, 50, 0
2, 51852, Note_on_c, 0, 48, 80
2, 51913, Note_on_c, 0, 52, 80
2, 51951, Note_on_c, 0, 48, 0
2, 51951, Note_on_c, 0, 51, 0
2, 51978, Note_on_c, 0, 44, 80
2, 51978, Note_on_c, 0, 53, 80
2, 51980, Note_on_c, 0, 52, 0
2, 51984, Note_on_c, 0, 37, 80
2, 52044, Note_on_c, 0, 56, 80
2, 52049, Note_on_c, 0, 53, 0
2, 52108, Note_on_c, 0, 44, 0
2, 52108, Note_on_c, 0, 46, 80
2, 52108, Note_on_c, 0, 52, 80
2, 52117, Note_on_c, 0, 56, 0
2, 52175, Note_on_c, 0, 52, 0
2, 52175, Note_on_c, 0, 56, 80
2, 52207, Note_on_c, 0, 46, 0
2, 52207, Note_on_c, 0, 37, 0
2, 52238, Note_on_c, 0, 36, 80
2, 52243, Note_on_c, 0, 48, 80
2, 52243, Note_on_c, 0, 51, 80
2, 52245, Note_on_c, 0, 56, 0
2, 52302, Note_on_c, 0, 53, 80
2, 52307, Note_on_c, 0, 51, 0
2, 52365, Note_on_c, 0, 56, 80
2, 52371, Note_on_c, 0, 53, 0
2, 52429, Note_on_c, 0, 58, 80
2, 52434, Note_on_c, 0, 56, 0
2, 52456, Note_on_c, 0, 36, 0
2, 52461, Note_on_c, 0, 48, 0
2, 52488, Note_on_c, 0, 60, 80
2, 52492, Note_on_c, 0, 58, 0
2, 52554, Note_on_c, 0, 63, 80
2, 52559, Note_on_c, 0, 60, 0
2, 52616, Note_on_c, 0, 65, 80
2, 52625, Note_on_c, 0, 63, 0
2, 52684, Note_on_c, 0, 68, 80
2, 52686, Note_on_c, 0, 65, 0
2, 52746, Note_on_c, 0, 70, 80
2, 52754, Note_on_c, 0, 68, 0
2, 52805, Note_on_c, 0, 72, 80
2, 52816, Note_on_c, 0, 70, 0
2, 52882, Note_on_c, 0, 72, 0
2, 52882, Note_on_c, 0, 75, 80
2, 52946, Note_on_c, 0, 77, 80
2, 52951, Note_on_c, 0, 75, 0
2, 53006, Note_on_c, 0, 44, 80
2, 53006, Note_on_c, 0, 56, 80
2, 53011, Note_on_c, 0, 77, 0
2, 53011, Note_on_c, 0, 72, 80
2, 53016, Note_on_c, 0, 79, 80
2, 53073, Note_on_c, 0, 75, 80
2, 53082, Note_on_c, 0, 79, 0
2, 53099, Note_on_c, 0, 44, 0
2, 53108, Note_on_c, 0, 56, 0
2, 53132, Note_on_c, 0, 51, 80
2, 53134, Note_on_c, 0, 56, 80
2, 53134, Note_on_c, 0, 60, 80
2, 53138, Note_on_c, 0, 79, 80
2, 53143, Note_on_c, 0, 75, 0
2, 53198, Note_on_c, 0, 77, 80
2, 53203, Note_on_c, 0, 68, 80
2, 53208, Note_on_c, 0, 79, 0
2, 53234, Note_on_c, 0, 60, 0
2, 53234, Note_on_c, 0, 56, 0
2, 53234, Note_on_c, 0, 51, 0
2, 53255, Note_on_c, 0, 44, 80
2, 53255, Note_on_c, 0, 56, 80
2, 53292, Note_on_c, 0, 77, 0
2, 53323, Note_on_c, 0, 79, 80
2, 53352, Note_on_c, 0, 44, 0
2, 53353, Note_on_c, 0, 56, 0
2, 53358, Note_on_c, 0, 68, 0
2, 53363, Note_on_c, 0, 72, 0
2, 53363, Note_on_c, 0, 79, 0
2, 53380, Note_on_c, 0, 45, 80
2, 53382, Note_on_c, 0, 57, 80
2, 53382, Note_on_c, 0, 66, 80
2, 53382, Note_on_c, 0, 72, 80
2, 53387, Note_on_c, 0, 77, 80
2, 53482, Note_on_c, 0, 45, 0
2, 53484, Note_on_c, 0, 66, 0
2, 53489, Note_on_c, 0, 57, 0
2, 53489, Note_on_c, 0, 72, 0
2, 53489, Note_on_c, 0, 77, 0
2, 53509, Note_on_c, 0, 46, 80
2, 53509, Note_on_c, 0, 58, 80
2, 53511, Note_on_c, 0, 67, 80
2, 53511, Note_on_c, 0, 77, 80
2, 53513, Note_on_c, 0, 73, 80
2, 53574, Note_on_c, 0, 75, 80
2, 53579, Note_on_c, 0, 77, 0
2, 53608, Note_on_c, 0, 58, 0
2, 53608, Note_on_c, 0, 46, 0
2, 53632, Note_on_c, 0, 51, 80
2, 53634, Note_on_c, 0, 61, 80
2, 53639, Note_on_c, 0, 55, 80
2, 53676, Note_on_c, 0, 67, 0
2, 53676, Note_on_c, 0, 73, 0
2, 53676, Note_on_c, 0, 75, 0
2, 53698, Note_on_c, 0, 72, 80
2, 53705, Note_on_c, 0, 67, 80
2, 53729, Note_on_c, 0, 61, 0
2, 53737, Note_on_c, 0, 51, 0
2, 53737, Note_on_c, 0, 55, 0
2, 53758, Note_on_c, 0, 51, 80
2, 53760, Note_on_c, 0, 39, 80
2, 53804, Note_on_c, 0, 72, 0
2, 53831, Note_on_c, 0, 75, 80
2, 53859, Note_on_c, 0, 39, 0
2, 53864, Note_on_c, 0, 67, 0
2, 53864, Note_on_c, 0, 51, 0
2, 53864, Note_on_c, 0, 75, 0
2, 53893, Note_on_c, 0, 49, 80
2, 53893, Note_on_c, 0, 67, 80
2, 53893, Note_on_c, 0, 70, 80
2, 53908, Note_on_c, 0, 37, 80
2, 53983, Note_on_c, 0, 37, 0
2, 53985, Note_on_c, 0, 49, 0
2, 53985, Note_on_c, 0, 67, 0
2, 53987, Note_on_c, 0, 70, 0
2, 54004, Note_on_c, 0, 36, 80
2, 54013, Note_on_c, 0, 68, 80
2, 54015, Note_on_c, 0, 48, 80
2, 54015, Note_on_c, 0, 63, 80
2, 54072, Note_on_c, 0, 72, 80
2, 54079, Note_on_c, 0, 68, 0
2, 54103, Note_on_c, 0, 36, 0
2, 54103, Note_on_c, 0, 48, 0
2, 54134, Note_on_c, 0, 51, 80
2, 54134, Note_on_c, 0, 56, 80
2, 54136, Note_on_c, 0, 60, 80
2, 54143, Note_on_c, 0, 75, 80
2, 54149, Note_on_c, 0, 72, 0
2, 54176, Note_on_c, 0, 63, 0
2, 54198, Note_on_c, 0, 72, 80
2, 54203, Note_on_c, 0, 65, 80
2, 54205, Note_on_c, 0, 68, 80
2, 54205, Note_on_c, 0, 77, 80
2, 54214, Note_on_c, 0, 75, 0
2, 54236, Note_on_c, 0, 60, 0
2, 54238, Note_on_c, 0, 56, 0
2, 54238, Note_on_c, 0, 51, 0
2, 54258, Note_on_c, 0, 36, 80
2, 54268, Note_on_c, 0, 48, 80
2, 54299, Note_on_c, 0, 77, 0
2, 54332, Note_on_c, 0, 78, 80
2, 54359, Note_on_c, 0, 36, 0
2, 54359, Note_on_c, 0, 48, 0
2, 54365, Note_on_c, 0, 72, 0
2, 54365, Note_on_c, 0, 65, 0
2, 54367, Note_on_c, 0, 68, 0
2, 54387, Note_on_c, 0, 35, 80
2, 54387, Note_on_c, 0, 47, 80
2, 54392, Note_on_c, 0, 66, 80
2, 54392, Note_on_c, 0, 75, 80
2, 54397, Note_on_c, 0, 69, 80
2, 54487, Note_on_c, 0, 47, 0
2, 54494, Note_on_c, 0, 35, 0
2, 54496, Note_on_c, 0, 66, 0
2, 54501, Note_on_c, 0, 75, 0
2, 54501, Note_on_c, 0, 69, 0
2, 54505, Note_on_c, 0, 78, 0
2, 54523, Note_on_c, 0, 34, 80
2, 54523, Note_on_c, 0, 46, 80
2, 54525, Note_on_c, 0, 75, 80
2, 54529, Note_on_c, 0, 67, 80
2, 54529, Note_on_c, 0, 70, 80
2, 54529, Note_on_c, 0, 79, 80
2, 54565, Note_on_c, 0, 70, 0
2, 54567, Note_on_c, 0, 67, 0
2, 54572, Note_on_c, 0, 75, 0
2, 54600, Note_on_c, 0, 75, 80
2, 54605, Note_on_c, 0, 79, 0
2, 54627, Note_on_c, 0, 46, 0
2, 54632, Note_on_c, 0, 34, 0
2, 54661, Note_on_c, 0, 55, 80
2, 54661, Note_on_c, 0, 58, 80
2, 54661, Note_on_c, 0, 63, 80
2, 54661, Note_on_c, 0, 70, 80
2, 54670, Note_on_c, 0, 75, 0
2, 54731, Note_on_c, 0, 70, 0
2, 54731, Note_on_c, 0, 67, 80
2, 54760, Note_on_c, 0, 58, 0
2, 54762, Note_on_c, 0, 55, 0
2, 54764, Note_on_c, 0, 63, 0
2, 54786, Note_on_c, 0, 46, 80
2, 54788, Note_on_c, 0, 34, 80
2, 54827, Note_on_c, 0, 67, 0
2, 54860, Note_on_c, 0, 79, 80
2, 54884, Note_on_c, 0, 46, 0
2, 54888, Note_on_c, 0, 34, 0
2, 54897, Note_on_c, 0, 79, 0
2, 54914, Note_on_c, 0, 56, 80
2, 54914, Note_on_c, 0, 58, 80
2, 54919, Note_on_c, 0, 77, 80
2, 54921, Note_on_c, 0, 74, 80
2, 54923, Note_on_c, 0, 68, 80
2, 54925, Note_on_c, 0, 62, 80
2, 55008, Note_on_c, 0, 62, 0
2, 55010, Note_on_c, 0, 56, 0
2, 55010, Note_on_c, 0, 58, 0
2, 55015, Note_on_c, 0, 77, 0
2, 55015, Note_on_c, 0, 68, 0
2, 55020, Note_on_c, 0, 74, 0
2, 55033, Note_on_c, 0, 51, 80
2, 55038, Note_on_c, 0, 58, 80
2, 55043, Note_on_c, 0, 67, 80
2, 55043, Note_on_c, 0, 75, 80
2, 55076, Note_on_c, 0, 67, 0
2, 55104, Note_on_c, 0, 73, 80
2, 55113, Note_on_c, 0, 75, 0
2, 55166, Note_on_c, 0, 70, 80
2, 55173, Note_on_c, 0, 73, 0
2, 55232, Note_on_c, 0, 67, 80
2, 55239, Note_on_c, 0, 70, 0
2, 55259, Note_on_c, 0, 58, 0
2, 55261, Note_on_c, 0, 51, 0
2, 55298, Note_on_c, 0, 67, 0
2, 55298, Note_on_c, 0, 63, 80
2, 55367, Note_on_c, 0, 62, 80
2, 55402, Note_on_c, 0, 63, 0
2, 55426, Note_on_c, 0, 51, 80
2, 55426, Note_on_c, 0, 63, 80
2, 55435, Note_on_c, 0, 62, 0
2, 55494, Note_on_c, 0, 64, 80
2, 55499, Note_on_c, 0, 63, 0
2, 55528, Note_on_c, 0, 51, 0
2, 55555, Note_on_c, 0, 44, 80
2, 55555, Note_on_c, 0, 60, 80
2, 55560, Note_on_c, 0, 65, 80
2, 55564, Note_on_c, 0, 64, 0
2, 55617, Note_on_c, 0, 63, 80
2, 55626, Note_on_c, 0, 65, 0
2, 55626, Note_on_c, 0, 60, 0
2, 55653, Note_on_c, 0, 44, 0
2, 55681, Note_on_c, 0, 51, 80
2, 55683, Note_on_c, 0, 60, 80
2, 55692, Note_on_c, 0, 63, 0
2, 55747, Note_on_c, 0, 56, 80
2, 55753, Note_on_c, 0, 60, 0
2, 55786, Note_on_c, 0, 51, 0
2, 55806, Note_on_c, 0, 39, 80
2, 55844, Note_on_c, 0, 56, 0
2, 55871, Note_on_c, 0, 50, 80
2, 55903, Note_on_c, 0, 39, 0
2, 55941, Note_on_c, 0, 48, 80
2, 55941, Note_on_c, 0, 51, 80
2, 55943, Note_on_c, 0, 50, 0
2, 55997, Note_on_c, 0, 52, 80
2, 56002, Note_on_c, 0, 51, 0
2, 56029, Note_on_c, 0, 48, 0
2, 56060, Note_on_c, 0, 44, 80
2, 56064, Note_on_c, 0, 53, 80
2, 56066, Note_on_c, 0, 52, 0
2, 56073, Note_on_c, 0, 37, 80
2, 56131, Note_on_c, 0, 53, 0
2, 56133, Note_on_c, 0, 56, 80
2, 56190, Note_on_c, 0, 46, 80
2, 56195, Note_on_c, 0, 44, 0
2, 56195, Note_on_c, 0, 52, 80
2, 56204, Note_on_c, 0, 56, 0
2, 56256, Note_on_c, 0, 52, 0
2, 56256, Note_on_c, 0, 56, 80
2, 56287, Note_on_c, 0, 37, 0
2, 56287, Note_on_c, 0, 46, 0
2, 56318, Note_on_c, 0, 36, 80
2, 56323, Note_on_c, 0, 51, 80
2, 56325, Note_on_c, 0, 56, 0
2, 56325, Note_on_c, 0, 48, 80
2, 56382, Note_on_c, 0, 53, 80
2, 56387, Note_on_c, 0, 51, 0
2, 56447, Note_on_c, 0, 53, 0
2, 56447, Note_on_c, 0, 56, 80
2, 56506, Note_on_c, 0, 58, 80
2, 56515, Note_on_c, 0, 56, 0
2, 56535, Note_on_c, 0, 36, 0
2, 56540, Note_on_c, 0, 48, 0
2, 56572, Note_on_c, 0, 58, 0
2, 56572, Note_on_c, 0, 60, 80
2, 56632, Note_on_c, 0, 63, 80
2, 56637, Note_on_c, 0, 60, 0
2, 56696, Note_on_c, 0, 65, 80
2, 56698, Note_on_c, 0, 63, 0
2, 56758, Note_on_c, 0, 68, 80
2, 56766, Note_on_c, 0, 65, 0
2, 56821, Note_on_c, 0, 70, 80
2, 56828, Note_on_c, 0, 68, 0
2, 56880, Note_on_c, 0, 72, 80
2, 56887, Note_on_c, 0, 70, 0
2, 56949, Note_on_c, 0, 75, 80
2, 56957, Note_on_c, 0, 72, 0
2, 57015, Note_on_c, 0, 77, 80
2, 57024, Note_on_c, 0, 75, 0
2, 57078, Note_on_c, 0, 72, 80
2, 57083, Note_on_c, 0, 44, 80
2, 57085, Note_on_c, 0, 56, 80
2, 57087, Note_on_c, 0, 77, 0
2, 57087, Note_on_c, 0, 79, 80
2, 57146, Note_on_c, 0, 75, 80
2, 57155, Note_on_c, 0, 79, 0
2, 57175, Note_on_c, 0, 44, 0
2, 57184, Note_on_c, 0, 56, 0
2, 57206, Note_on_c, 0, 51, 80
2, 57211, Note_on_c, 0, 56, 80
2, 57211, Note_on_c, 0, 60, 80
2, 57217, Note_on_c, 0, 79, 80
2, 57219, Note_on_c, 0, 75, 0
2, 57252, Note_on_c, 0, 72, 0
2, 57274, Note_on_c, 0, 72, 80
2, 57283, Note_on_c, 0, 68, 80
2, 57283, Note_on_c, 0, 77, 80
2, 57288, Note_on_c, 0, 79, 0
2, 57312, Note_on_c, 0, 51, 0
2, 57312, Note_on_c, 0, 56, 0
2, 57312, Note_on_c, 0, 60, 0
2, 57338, Note_on_c, 0, 44, 80
2, 57338, Note_on_c, 0, 56, 80
2, 57374, Note_on_c, 0, 77, 0
2, 57409, Note_on_c, 0, 79, 80
2, 57436, Note_on_c, 0, 44, 0
2, 57441, Note_on_c, 0, 56, 0
2, 57441, Note_on_c, 0, 72, 0
2, 57446, Note_on_c, 0, 68, 0
2, 57451, Note_on_c, 0, 79, 0
2, 57468, Note_on_c, 0, 66, 80
2, 57470, Note_on_c, 0, 45, 80
2, 57470, Note_on_c, 0, 57, 80
2, 57470, Note_on_c, 0, 72, 80
2, 57472, Note_on_c, 0, 77, 80
2, 57562, Note_on_c, 0, 45, 0
2, 57564, Note_on_c, 0, 66, 0
2, 57566, Note_on_c, 0, 77, 0
2, 57568, Note_on_c, 0, 57, 0
2, 57568, Note_on_c, 0, 72, 0
2, 57588, Note_on_c, 0, 46, 80
2, 57593, Note_on_c, 0, 58, 80
2, 57593, Note_on_c, 0, 67, 80
2, 57593, Note_on_c, 0, 73, 80
2, 57593, Note_on_c, 0, 77, 80
2, 57652, Note_on_c, 0, 75, 80
2, 57657, Note_on_c, 0, 77, 0
2, 57686, Note_on_c, 0, 46, 0
2, 57691, Note_on_c, 0, 58, 0
2, 57718, Note_on_c, 0, 51, 80
2, 57720, Note_on_c, 0, 61, 80
2, 57724, Note_on_c, 0, 55, 80
2, 57755, Note_on_c, 0, 67, 0
2, 57757, Note_on_c, 0, 73, 0
2, 57784, Note_on_c, 0, 72, 80
2, 57789, Note_on_c, 0, 67, 80
2, 57795, Note_on_c, 0, 75, 0
2, 57817, Note_on_c, 0, 61, 0
2, 57822, Note_on_c, 0, 51, 0
2, 57824, Note_on_c, 0, 55, 0
2, 57846, Note_on_c, 0, 51, 80
2, 57848, Note_on_c, 0, 39, 80
2, 57897, Note_on_c, 0, 72, 0
2, 57921, Note_on_c, 0, 75, 80
2, 57945, Note_on_c, 0, 39, 0
2, 57956, Note_on_c, 0, 67, 0
2, 57956, Note_on_c, 0, 51, 0
2, 57958, Note_on_c, 0, 75, 0
2, 57982, Note_on_c, 0, 49, 80
2, 57982, Note_on_c, 0, 67, 80
2, 57982, Note_on_c, 0, 70, 80
2, 57988, Note_on_c, 0, 37, 80
2, 58070, Note_on_c, 0, 37, 0
2, 58083, Note_on_c, 0, 49, 0
2, 58083, Note_on_c, 0, 67, 0
2, 58083, Note_on_c, 0, 70, 0
2, 58105, Note_on_c, 0, 36, 80
2, 58112, Note_on_c, 0, 63, 80
2, 58112, Note_on_c, 0, 68, 80
2, 58114, Note_on_c, 0, 48, 80
2, 58176, Note_on_c, 0, 72, 80
2, 58186, Note_on_c, 0, 68, 0
2, 58203, Note_on_c, 0, 36, 0
2, 58205, Note_on_c, 0, 48, 0
2, 58238, Note_on_c, 0, 51, 80
2, 58238, Note_on_c, 0, 60, 80
2, 58243, Note_on_c, 0, 56, 80
2, 58243, Note_on_c, 0, 75, 80
2, 58251, Note_on_c, 0, 72, 0
2, 58282, Note_on_c, 0, 63, 0
2, 58304, Note_on_c, 0, 65, 80
2, 58304, Note_on_c, 0, 68, 80
2, 58304, Note_on_c, 0, 73, 80
2, 58309, Note_on_c, 0, 77, 80
2, 58314, Note_on_c, 0, 75, 0
2, 58338, Note_on_c, 0, 51, 0
2, 58338, Note_on_c, 0, 60, 0
2, 58338, Note_on_c, 0, 56, 0
2, 58362, Note_on_c, 0, 49, 80
2, 58372, Note_on_c, 0, 37, 80
2, 58454, Note_on_c, 0, 37, 0
2, 58461, Note_on_c, 0, 49, 0
2, 58463, Note_on_c, 0, 77, 0
2, 58463, Note_on_c, 0, 73, 0
2, 58467, Note_on_c, 0, 68, 0
2, 58467, Note_on_c, 0, 65, 0
2, 58489, Note_on_c, 0, 50, 80
2, 58489, Note_on_c, 0, 59, 80
2, 58494, Note_on_c, 0, 68, 80
2, 58494, Note_on_c, 0, 71, 80
2, 58494, Note_on_c, 0, 77, 80
2, 58496, Note_on_c, 0, 62, 80
2, 58591, Note_on_c, 0, 77, 0
2, 58591, Note_on_c, 0, 50, 0
2, 58596, Note_on_c, 0, 71, 0
2, 58596, Note_on_c, 0, 59, 0
2, 58596, Note_on_c, 0, 62, 0
2, 58613, Note_on_c, 0, 51, 80
2, 58615, Note_on_c, 0, 60, 80
2, 58617, Note_on_c, 0, 63, 80
2, 58617, Note_on_c, 0, 72, 80
2, 58619, Note_on_c, 0, 77, 80
2, 58655, Note_on_c, 0, 68, 0
2, 58659, Note_on_c, 0, 72, 0
2, 58681, Note_on_c, 0, 77, 0
2, 58681, Note_on_c, 0, 75, 80
2, 58739, Note_on_c, 0, 72, 80
2, 58748, Note_on_c, 0, 75, 0
2, 58807, Note_on_c, 0, 68, 80
2, 58814, Note_on_c, 0, 72, 0
2, 58836, Note_on_c, 0, 51, 0
2, 58845, Note_on_c, 0, 63, 0
2, 58845, Note_on_c, 0, 60, 0
2, 58872, Note_on_c, 0, 63, 80
2, 58909, Note_on_c, 0, 68, 0
2, 58933, Note_on_c, 0, 72, 80
2, 58977, Note_on_c, 0, 72, 0
2, 58977, Note_on_c, 0, 63, 0
2, 58994, Note_on_c, 0, 51, 80
2, 58996, Note_on_c, 0, 61, 80
2, 58996, Note_on_c, 0, 70, 80
2, 59001, Note_on_c, 0, 67, 80
2, 59094, Note_on_c, 0, 61, 0
2, 59099, Note_on_c, 0, 67, 0
2, 59099, Note_on_c, 0, 70, 0
2, 59121, Note_on_c, 0, 44, 80
2, 59126, Note_on_c, 0, 60, 80
2, 59126, Note_on_c, 0, 68, 80
2, 59216, Note_on_c, 0, 44, 0
2, 59221, Note_on_c, 0, 51, 0
2, 59223, Note_on_c, 0, 60, 0
2, 59228, Note_on_c, 0, 68, 0
2, 59243, Note_on_c, 0, 44, 80
2, 59245, Note_on_c, 0, 56, 80
2, 59245, Note_on_c, 0, 72, 80
2, 59250, Note_on_c, 0, 68, 80
2, 59252, Note_on_c, 0, 80, 80
2, 59340, Note_on_c, 0, 44, 0
2, 59347, Note_on_c, 0, 68, 0
2, 59347, Note_on_c, 0, 56, 0
2, 59347, Note_on_c, 0, 72, 0
2, 59349, Note_on_c, 0, 80, 0
2, 59373, Note_on_c, 0, 46, 80
2, 59375, Note_on_c, 0, 58, 80
2, 59376, Note_on_c, 0, 68, 80
2, 59376, Note_on_c, 0, 73, 80
2, 59376, Note_on_c, 0, 80, 80
2, 59467, Note_on_c, 0, 46, 0
2, 59469, Note_on_c, 0, 58, 0
2, 59473, Note_on_c, 0, 73, 0
2, 59475, Note_on_c, 0, 68, 0
2, 59475, Note_on_c, 0, 80, 0
2, 59499, Note_on_c, 0, 60, 80
2, 59501, Note_on_c, 0, 48, 80
2, 59501, Note_on_c, 0, 68, 80
2, 59501, Note_on_c, 0, 80, 80
2, 59506, Note_on_c, 0, 75, 80
2, 59596, Note_on_c, 0, 48, 0
2, 59603, Note_on_c, 0, 60, 0
2, 59603, Note_on_c, 0, 68, 0
2, 59605, Note_on_c, 0, 80, 0
2, 59605, Note_on_c, 0, 75, 0
2, 59622, Note_on_c, 0, 49, 80
2, 59624, Note_on_c, 0, 61, 80
2, 59626, Note_on_c, 0, 73, 80
2, 59628, Note_on_c, 0, 68, 80
2, 59628, Note_on_c, 0, 77, 80
2, 59633, Note_on_c, 0, 80, 80
2, 59719, Note_on_c, 0, 61, 0
2, 59724, Note_on_c, 0, 49, 0
2, 59753, Note_on_c, 0, 44, 80
2, 59755, Note_on_c, 0, 56, 80
2, 59854, Note_on_c, 0, 56, 0
2, 59854, Note_on_c, 0, 44, 0
2, 59880, Note_on_c, 0, 46, 80
2, 59882, Note_on_c, 0, 58, 80
2, 59977, Note_on_c, 0, 46, 0
2, 59982, Note_on_c, 0, 58, 0
2, 60011, Note_on_c, 0, 60, 80
2, 60013, Note_on_c, 0, 48, 80
2, 60108, Note_on_c, 0, 48, 0
2, 60110, Note_on_c, 0, 60, 0
2, 60137, Note_on_c, 0, 61, 80
2, 60142, Note_on_c, 0, 49, 80
2, 60177, Note_on_c, 0, 77, 0
2, 60177, Note_on_c, 0, 73, 0
2, 60184, Note_on_c, 0, 80, 0
2, 60189, Note_on_c, 0, 68, 0
2, 60211, Note_on_c, 0, 80, 80
2, 60241, Note_on_c, 0, 49, 0
2, 60241, Note_on_c, 0, 61, 0
2, 60268, Note_on_c, 0, 44, 80
2, 60273, Note_on_c, 0, 56, 80
2, 60278, Note_on_c, 0, 68, 80
2, 60278, Note_on_c, 0, 77, 80
2, 60280, Note_on_c, 0, 73, 80
2, 60366, Note_on_c, 0, 44, 0
2, 60371, Note_on_c, 0, 56, 0
2, 60373, Note_on_c, 0, 68, 0
2, 60373, Note_on_c, 0, 77, 0
2, 60375, Note_on_c, 0, 73, 0
2, 60377, Note_on_c, 0, 80, 0
2, 60399, Note_on_c, 0, 46, 80
2, 60401, Note_on_c, 0, 58, 80
2, 60401, Note_on_c, 0, 77, 80
2, 60406, Note_on_c, 0, 70, 80
2, 60406, Note_on_c, 0, 73, 80
2, 60406, Note_on_c, 0, 82, 80
2, 60436, Note_on_c, 0, 73, 0
2, 60436, Note_on_c, 0, 77, 0
2, 60438, Note_on_c, 0, 70, 0
2, 60438, Note_on_c, 0, 82, 0
2, 60465, Note_on_c, 0, 68, 80
2, 60470, Note_on_c, 0, 73, 80
2, 60470, Note_on_c, 0, 77, 80
2, 60470, Note_on_c, 0, 80, 80
2, 60497, Note_on_c, 0, 46, 0
2, 60499, Note_on_c, 0, 58, 0
2, 60526, Note_on_c, 0, 47, 80
2, 60526, Note_on_c, 0, 59, 80
2, 60568, Note_on_c, 0, 77, 0
2, 60568, Note_on_c, 0, 73, 0
2, 60570, Note_on_c, 0, 68, 0
2, 60572, Note_on_c, 0, 80, 0
2, 60596, Note_on_c, 0, 72, 80
2, 60596, Note_on_c, 0, 75, 80
2, 60598, Note_on_c, 0, 63, 80
2, 60600, Note_on_c, 0, 68, 80
2, 60624, Note_on_c, 0, 47, 0
2, 60632, Note_on_c, 0, 59, 0
2, 60652, Note_on_c, 0, 60, 80
2, 60659, Note_on_c, 0, 48, 80
2, 60690, Note_on_c, 0, 75, 0
2, 60695, Note_on_c, 0, 63, 0
2, 60695, Note_on_c, 0, 72, 0
2, 60695, Note_on_c, 0, 68, 0
2, 60719, Note_on_c, 0, 77, 80
2, 60749, Note_on_c, 0, 48, 0
2, 60751, Note_on_c, 0, 60, 0
2, 60778, Note_on_c, 0, 39, 80
2, 60783, Note_on_c, 0, 51, 80
2, 60783, Note_on_c, 0, 72, 80
2, 60785, Note_on_c, 0, 65, 80
2, 60787, Note_on_c, 0, 68, 80
2, 60877, Note_on_c, 0, 39, 0
2, 60882, Note_on_c, 0, 51, 0
2, 60884, Note_on_c, 0, 77, 0
2, 60884, Note_on_c, 0, 68, 0
2, 60888, Note_on_c, 0, 72, 0
2, 60888, Note_on_c, 0, 65, 0
2, 60909, Note_on_c, 0, 41, 80
2, 60909, Note_on_c, 0, 53, 80
2, 60917, Note_on_c, 0, 75, 80
2, 60977, Note_on_c, 0, 72, 80
2, 60979, Note_on_c, 0, 63, 80
2, 60984, Note_on_c, 0, 68, 80
2, 61008, Note_on_c, 0, 41, 0
2, 61016, Note_on_c, 0, 53, 0
2, 61040, Note_on_c, 0, 43, 80
2, 61042, Note_on_c, 0, 55, 80
2, 61078, Note_on_c, 0, 63, 0
2, 61080, Note_on_c, 0, 75, 0
2, 61080, Note_on_c, 0, 68, 0
2, 61081, Note_on_c, 0, 72, 0
2, 61105, Note_on_c, 0, 77, 80
2, 61138, Note_on_c, 0, 43, 0
2, 61138, Note_on_c, 0, 55, 0
2, 61162, Note_on_c, 0, 44, 80
2, 61167, Note_on_c, 0, 56, 80
2, 61167, Note_on_c, 0, 72, 80
2, 61169, Note_on_c, 0, 65, 80
2, 61169, Note_on_c, 0, 68, 80
2, 61259, Note_on_c, 0, 56, 0
2, 61259, Note_on_c, 0, 44, 0
2, 61264, Note_on_c, 0, 77, 0
2, 61266, Note_on_c, 0, 72, 0
2, 61266, Note_on_c, 0, 68, 0
2, 61266, Note_on_c, 0, 65, 0
2, 61286, Note_on_c, 0, 39, 80
2, 61286, Note_on_c, 0, 51, 80
2, 61293, Note_on_c, 0, 75, 80
2, 61352, Note_on_c, 0, 72, 80
2, 61354, Note_on_c, 0, 63, 80
2, 61359, Note_on_c, 0, 68, 80
2, 61383, Note_on_c, 0, 39, 0
2, 61388, Note_on_c, 0, 51, 0
2, 61418, Note_on_c, 0, 41, 80
2, 61418, Note_on_c, 0, 53, 80
2, 61454, Note_on_c, 0, 72, 0
2, 61454, Note_on_c, 0, 68, 0
2, 61456, Note_on_c, 0, 63, 0
2, 61456, Note_on_c, 0, 75, 0
2, 61487, Note_on_c, 0, 75, 80
2, 61511, Note_on_c, 0, 41, 0
2, 61517, Note_on_c, 0, 53, 0
2, 61539, Note_on_c, 0, 42, 80
2, 61544, Note_on_c, 0, 72, 80
2, 61549, Note_on_c, 0, 54, 80
2, 61549, Note_on_c, 0, 63, 80
2, 61551, Note_on_c, 0, 69, 80
2, 61641, Note_on_c, 0, 42, 0
2, 61643, Note_on_c, 0, 54, 0
2, 61648, Note_on_c, 0, 72, 0
2, 61650, Note_on_c, 0, 69, 0
2, 61672, Note_on_c, 0, 43, 80
2, 61674, Note_on_c, 0, 55, 80
2, 61674, Note_on_c, 0, 70, 80
2, 61676, Note_on_c, 0, 73, 80
2, 61769, Note_on_c, 0, 43, 0
2, 61774, Note_on_c, 0, 55, 0
2, 61800, Note_on_c, 0, 51, 80
2, 61802, Note_on_c, 0, 58, 80
2, 61802, Note_on_c, 0, 61, 80
2, 61835, Note_on_c, 0, 73, 0
2, 61837, Note_on_c, 0, 63, 0
2, 61837, Note_on_c, 0, 75, 0
2, 61837, Note_on_c, 0, 70, 0
2, 61861, Note_on_c, 0, 73, 80
2, 61866, Note_on_c, 0, 67, 80
2, 61871, Note_on_c, 0, 79, 80
2, 61895, Note_on_c, 0, 61, 0
2, 61896, Note_on_c, 0, 58, 0
2, 61898, Note_on_c, 0, 51, 0
2, 61920, Note_on_c, 0, 51, 80
2, 61922, Note_on_c, 0, 39, 80
2, 61967, Note_on_c, 0, 79, 0
2, 61991, Note_on_c, 0, 77, 80
2, 62015, Note_on_c, 0, 39, 0
2, 62021, Note_on_c, 0, 51, 0
2, 62023, Note_on_c, 0, 67, 0
2, 62025, Note_on_c, 0, 73, 0
2, 62042, Note_on_c, 0, 51, 80
2, 62047, Note_on_c, 0, 58, 80
2, 62049, Note_on_c, 0, 61, 80
2, 62054, Note_on_c, 0, 67, 80
2, 62142, Note_on_c, 0, 61, 0
2, 62144, Note_on_c, 0, 58, 0
2, 62146, Note_on_c, 0, 67, 0
2, 62148, Note_on_c, 0, 51, 0
2, 62148, Note_on_c, 0, 77, 0
2, 62175, Note_on_c, 0, 46, 80
2, 62177, Note_on_c, 0, 58, 80
2, 62177, Note_on_c, 0, 67, 80
2, 62182, Note_on_c, 0, 75, 80
2, 62212, Note_on_c, 0, 67, 0
2, 62219, Note_on_c, 0, 75, 0
2, 62241, Note_on_c, 0, 65, 80
2, 62246, Note_on_c, 0, 73, 80
2, 62275, Note_on_c, 0, 46, 0
2, 62277, Note_on_c, 0, 58, 0
2, 62305, Note_on_c, 0, 51, 80
2, 62305, Note_on_c, 0, 55, 80
2, 62310, Note_on_c, 0, 61, 80
2, 62346, Note_on_c, 0, 65, 0
2, 62351, Note_on_c, 0, 73, 0
2, 62375, Note_on_c, 0, 63, 80
2, 62375, Note_on_c, 0, 72, 80
2, 62410, Note_on_c, 0, 61, 0
2, 62410, Note_on_c, 0, 51, 0
2, 62412, Note_on_c, 0, 55, 0
2, 62432, Note_on_c, 0, 39, 80
2, 62432, Note_on_c, 0, 51, 80
2, 62534, Note_on_c, 0, 39, 0
2, 62543, Note_on_c, 0, 51, 0
2, 62544, Note_on_c, 0, 63, 0
2, 62546, Note_on_c, 0, 72, 0
2, 62564, Note_on_c, 0, 51, 80
2, 62568, Note_on_c, 0, 55, 80
2, 62568, Note_on_c, 0, 61, 80
2, 62568, Note_on_c, 0, 70, 80
2, 62667, Note_on_c, 0, 61, 0
2, 62672, Note_on_c, 0, 51, 0
2, 62672, Note_on_c, 0, 55, 0
2, 62677, Note_on_c, 0, 70, 0
2, 62694, Note_on_c, 0, 32, 80
2, 62694, Note_on_c, 0, 44, 80
2, 62694, Note_on_c, 0, 60, 80
2, 62703, Note_on_c, 0, 68, 80
2, 62738, Note_on_c, 0, 68, 0
2, 62760, Note_on_c, 0, 72, 80
2, 62781, Note_on_c, 0, 60, 0
2, 62785, Note_on_c, 0, 32, 0
2, 62790, Note_on_c, 0, 44, 0
2, 62821, Note_on_c, 0, 51, 80
2, 62821, Note_on_c, 0, 56, 80
2, 62821, Note_on_c, 0, 60, 80
2, 62885, Note_on_c, 0, 63, 80
2, 62890, Note_on_c, 0, 75, 80
2, 62895, Note_on_c, 0, 68, 80
2, 62924, Note_on_c, 0, 60, 0
2, 62924, Note_on_c, 0, 56, 0
2, 62924, Note_on_c, 0, 51, 0
2, 62952, Note_on_c, 0, 60, 80
2, 62961, Note_on_c, 0, 48, 80
2, 62992, Note_on_c, 0, 63, 0
2, 62992, Note_on_c, 0, 68, 0
2, 62997, Note_on_c, 0, 72, 0
2, 62997, Note_on_c, 0, 75, 0
2, 63019, Note_on_c, 0, 70, 80
2, 63019, Note_on_c, 0, 77, 80
2, 63021, Note_on_c, 0, 67, 80
2, 63045, Note_on_c, 0, 48, 0
2, 63051, Note_on_c, 0, 60, 0
2, 63080, Note_on_c, 0, 49, 80
2, 63080, Note_on_c, 0, 61, 80
2, 63120, Note_on_c, 0, 77, 0
2, 63146, Note_on_c, 0, 75, 80
2, 63179, Note_on_c, 0, 49, 0
2, 63179, Note_on_c, 0, 61, 0
2, 63179, Note_on_c, 0, 67, 0
2, 63181, Note_on_c, 0, 70, 0
2, 63183, Note_on_c, 0, 75, 0
2, 63205, Note_on_c, 0, 60, 80
2, 63205, Note_on_c, 0, 72, 80
2, 63210, Note_on_c, 0, 48, 80
2, 63210, Note_on_c, 0, 68, 80
2, 63210, Note_on_c, 0, 75, 80
2, 63210, Note_on_c, 0, 80, 80
2, 63303, Note_on_c, 0, 48, 0
2, 63310, Note_on_c, 0, 60, 0
2, 63312, Note_on_c, 0, 68, 0
2, 63312, Note_on_c, 0, 80, 0
2, 63318, Note_on_c, 0, 72, 0
2, 63318, Note_on_c, 0, 75, 0
2, 63340, Note_on_c, 0, 44, 80
2, 63340, Note_on_c, 0, 56, 80
2, 63340, Note_on_c, 0, 72, 80
2, 63345, Note_on_c, 0, 68, 80
2, 63347, Note_on_c, 0, 80, 80
2, 63437, Note_on_c, 0, 44, 0
2, 63442, Note_on_c, 0, 56, 0
2, 63447, Note_on_c, 0, 68, 0
2, 63452, Note_on_c, 0, 72, 0
2, 63452, Note_on_c, 0, 80, 0
2, 63472, Note_on_c, 0, 46, 80
2, 63474, Note_on_c, 0, 58, 80
2, 63479, Note_on_c, 0, 68, 80
2, 63479, Note_on_c, 0, 73, 80
2, 63479, Note_on_c, 0, 80, 80
2, 63567, Note_on_c, 0, 46, 0
2, 63572, Note_on_c, 0, 58, 0
2, 63576, Note_on_c, 0, 73, 0
2, 63581, Note_on_c, 0, 68, 0
2, 63581, Note_on_c, 0, 80, 0
2, 63601, Note_on_c, 0, 48, 80
2, 63601, Note_on_c, 0, 60, 80
2, 63603, Note_on_c, 0, 68, 80
2, 63603, Note_on_c, 0, 80, 80
2, 63608, Note_on_c, 0, 75, 80
2, 63695, Note_on_c, 0, 48, 0
2, 63699, Note_on_c, 0, 68, 0
2, 63701, Note_on_c, 0, 60, 0
2, 63703, Note_on_c, 0, 75, 0
2, 63703, Note_on_c, 0, 80, 0
2, 63717, Note_on_c, 0, 49, 80
2, 63719, Note_on_c, 0, 61, 80
2, 63719, Note_on_c, 0, 77, 80
2, 63723, Note_on_c, 0, 68, 80
2, 63723, Note_on_c, 0, 73, 80
2, 63723, Note_on_c, 0, 80, 80
2, 63814, Note_on_c, 0, 49, 0
2, 63816, Note_on_c, 0, 61, 0
2, 63842, Note_on_c, 0, 44, 80
2, 63847, Note_on_c, 0, 56, 80
2, 63942, Note_on_c, 0, 56, 0
2, 63942, Note_on_c, 0, 44, 0
2, 63971, Note_on_c, 0, 46, 80
2, 63973, Note_on_c, 0, 58, 80
2, 64068, Note_on_c, 0, 46, 0
2, 64073, Note_on_c, 0, 58, 0
2, 64100, Note_on_c, 0, 60, 80
2, 64108, Note_on_c, 0, 48, 80
2, 64203, Note_on_c, 0, 48, 0
2, 64208, Note_on_c, 0, 60, 0
2, 64237, Note_on_c, 0, 49, 80
2, 64237, Note_on_c, 0, 61, 80
2, 64274, Note_on_c, 0, 68, 0
2, 64274, Note_on_c, 0, 73, 0
2, 64274, Note_on_c, 0, 77, 0
2, 64279, Note_on_c, 0, 80, 0
2, 64303, Note_on_c, 0, 80, 80
2, 64332, Note_on_c, 0, 61, 0
2, 64334, Note_on_c, 0, 49, 0
2, 64361, Note_on_c, 0, 44, 80
2, 64366, Note_on_c, 0, 77, 80
2, 64368, Note_on_c, 0, 73, 80
2, 64369, Note_on_c, 0, 68, 80
2, 64458, Note_on_c, 0, 44, 0
2, 64464, Note_on_c, 0, 77, 0
2, 64466, Note_on_c, 0, 73, 0
2, 64468, Note_on_c, 0, 68, 0
2, 64468, Note_on_c, 0, 80, 0
2, 64486, Note_on_c, 0, 46, 80
2, 64486, Note_on_c, 0, 58, 80
2, 64490, Note_on_c, 0, 70, 80
2, 64490, Note_on_c, 0, 73, 80
2, 64490, Note_on_c, 0, 77, 80
2, 64495, Note_on_c, 0, 82, 80
2, 64526, Note_on_c, 0, 77, 0
2, 64528, Note_on_c, 0, 73, 0
2, 64528, Note_on_c, 0, 82, 0
2, 64530, Note_on_c, 0, 70, 0
2, 64554, Note_on_c, 0, 68, 80
2, 64554, Note_on_c, 0, 77, 80
2, 64559, Note_on_c, 0, 73, 80
2, 64559, Note_on_c, 0, 80, 80
2, 64585, Note_on_c, 0, 58, 0
2, 64585, Note_on_c, 0, 46, 0
2, 64616, Note_on_c, 0, 47, 80
2, 64616, Note_on_c, 0, 59, 80
2, 64654, Note_on_c, 0, 73, 0
2, 64654, Note_on_c, 0, 77, 0
2, 64658, Note_on_c, 0, 68, 0
2, 64658, Note_on_c, 0, 80, 0
2, 64676, Note_on_c, 0, 63, 80
2, 64676, Note_on_c, 0, 72, 80
2, 64680, Note_on_c, 0, 75, 80
2, 64682, Note_on_c, 0, 68, 80
2, 64706, Note_on_c, 0, 47, 0
2, 64713, Note_on_c, 0, 59, 0
2, 64737, Note_on_c, 0, 60, 80
2, 64748, Note_on_c, 0, 48, 80
2, 64775, Note_on_c, 0, 68, 0
2, 64779, Note_on_c, 0, 63, 0
2, 64779, Note_on_c, 0, 72, 0
2, 64779, Note_on_c, 0, 75, 0
2, 64803, Note_on_c, 0, 77, 80
2, 64830, Note_on_c, 0, 48, 0
2, 64839, Note_on_c, 0, 60, 0
2, 64861, Note_on_c, 0, 39, 80
2, 64866, Note_on_c, 0, 51, 80
2, 64866, Note_on_c, 0, 72, 80
2, 64868, Note_on_c, 0, 65, 80
2, 64872, Note_on_c, 0, 68, 80
2, 64963, Note_on_c, 0, 39, 0
2, 64969, Note_on_c, 0, 77, 0
2, 64971, Note_on_c, 0, 65, 0
2, 64973, Note_on_c, 0, 72, 0
2, 64973, Note_on_c, 0, 68, 0
2, 64973, Note_on_c, 0, 51, 0
2, 64993, Note_on_c, 0, 41, 80
2, 65000, Note_on_c, 0, 53, 80
2, 65000, Note_on_c, 0, 75, 80
2, 65062, Note_on_c, 0, 72, 80
2, 65068, Note_on_c, 0, 63, 80
2, 65068, Note_on_c, 0, 68, 80
2, 65092, Note_on_c, 0, 41, 0
2, 65103, Note_on_c, 0, 53, 0
2, 65127, Note_on_c, 0, 43, 80
2, 65134, Note_on_c, 0, 55, 80
2, 65164, Note_on_c, 0, 63, 0
2, 65164, Note_on_c, 0, 68, 0
2, 65166, Note_on_c, 0, 72, 0
2, 65168, Note_on_c, 0, 75, 0
2, 65195, Note_on_c, 0, 77, 80
2, 65224, Note_on_c, 0, 43, 0
2, 65231, Note_on_c, 0, 77, 0
2, 65231, Note_on_c, 0, 55, 0
2, 65246, Note_on_c, 0, 44, 80
2, 65246, Note_on_c, 0, 56, 80
2, 65253, Note_on_c, 0, 65, 80
2, 65255, Note_on_c, 0, 72, 80
2, 65256, Note_on_c, 0, 68, 80
2, 65256, Note_on_c, 0, 77, 80
2, 65343, Note_on_c, 0, 44, 0
2, 65350, Note_on_c, 0, 56, 0
2, 65356, Note_on_c, 0, 65, 0
2, 65358, Note_on_c, 0, 77, 0
2, 65358, Note_on_c, 0, 68, 0
2, 65360, Note_on_c, 0, 72, 0
2, 65374, Note_on_c, 0, 39, 80
2, 65374, Note_on_c, 0, 51, 80
2, 65382, Note_on_c, 0, 75, 80
2, 65440, Note_on_c, 0, 72, 80
2, 65445, Note_on_c, 0, 63, 80
2, 65451, Note_on_c, 0, 68, 80
2, 65469, Note_on_c, 0, 39, 0
2, 65479, Note_on_c, 0, 51, 0
2, 65503, Note_on_c, 0, 41, 80
2, 65505, Note_on_c, 0, 53, 80
2, 65544, Note_on_c, 0, 63, 0
2, 65549, Note_on_c, 0, 68, 0
2, 65551, Note_on_c, 0, 72, 0
2, 65597, Note_on_c, 0, 41, 0
2, 65608, Note_on_c, 0, 53, 0
2, 65628, Note_on_c, 0, 42, 80
2, 65637, Note_on_c, 0, 54, 80
2, 65637, Note_on_c, 0, 63, 80
2, 65637, Note_on_c, 0, 72, 80
2, 65641, Note_on_c, 0, 69, 80
2, 65728, Note_on_c, 0, 42, 0
2, 65733, Note_on_c, 0, 54, 0
2, 65737, Note_on_c, 0, 63, 0
2, 65737, Note_on_c, 0, 69, 0
2, 65744, Note_on_c, 0, 75, 0
2, 65744, Note_on_c, 0, 72, 0
2, 65780, Note_on_c, 0, 43, 80
2, 65780, Note_on_c, 0, 55, 80
2, 65780, Note_on_c, 0, 63, 80
2, 65780, Note_on_c, 0, 70, 80
2, 65780, Note_on_c, 0, 73, 80
2, 65780, Note_on_c, 0, 75, 80
2, 65873, Note_on_c, 0, 55, 0
2, 65873, Note_on_c, 0, 43, 0
2, 65902, Note_on_c, 0, 51, 80
2, 65904, Note_on_c, 0, 61, 80
2, 65905, Note_on_c, 0, 58, 80
2, 65941, Note_on_c, 0, 73, 0
2, 65943, Note_on_c, 0, 70, 0
2, 65943, Note_on_c, 0, 63, 0
2, 65945, Note_on_c, 0, 75, 0
2, 65969, Note_on_c, 0, 73, 80
2, 65971, Note_on_c, 0, 67, 80
2, 65976, Note_on_c, 0, 79, 80
2, 66002, Note_on_c, 0, 58, 0
2, 66002, Note_on_c, 0, 61, 0
2, 66007, Note_on_c, 0, 51, 0
2, 66029, Note_on_c, 0, 39, 80
2, 66029, Note_on_c, 0, 51, 80
2, 66073, Note_on_c, 0, 79, 0
2, 66096, Note_on_c, 0, 77, 80
2, 66122, Note_on_c, 0, 39, 0
2, 66129, Note_on_c, 0, 67, 0
2, 66131, Note_on_c, 0, 51, 0
2, 66131, Note_on_c, 0, 73, 0
2, 66153, Note_on_c, 0, 51, 80
2, 66155, Note_on_c, 0, 58, 80
2, 66155, Note_on_c, 0, 61, 80
2, 66162, Note_on_c, 0, 67, 80
2, 66255, Note_on_c, 0, 58, 0
2, 66257, Note_on_c, 0, 61, 0
2, 66257, Note_on_c, 0, 77, 0
2, 66259, Note_on_c, 0, 51, 0
2, 66259, Note_on_c, 0, 67, 0
2, 66283, Note_on_c, 0, 46, 80
2, 66285, Note_on_c, 0, 58, 80
2, 66285, Note_on_c, 0, 67, 80
2, 66285, Note_on_c, 0, 75, 80
2, 66320, Note_on_c, 0, 67, 0
2, 66325, Note_on_c, 0, 75, 0
2, 66349, Note_on_c, 0, 65, 80
2, 66349, Note_on_c, 0, 73, 80
2, 66373, Note_on_c, 0, 46, 0
2, 66380, Note_on_c, 0, 58, 0
2, 66408, Note_on_c, 0, 51, 80
2, 66410, Note_on_c, 0, 55, 80
2, 66410, Note_on_c, 0, 61, 80
2, 66446, Note_on_c, 0, 73, 0
2, 66451, Note_on_c, 0, 65, 0
2, 66473, Note_on_c, 0, 72, 80
2, 66475, Note_on_c, 0, 63, 80
2, 66510, Note_on_c, 0, 55, 0
2, 66510, Note_on_c, 0, 61, 0
2, 66510, Note_on_c, 0, 51, 0
2, 66534, Note_on_c, 0, 51, 80
2, 66539, Note_on_c, 0, 39, 80
2, 66638, Note_on_c, 0, 39, 0
2, 66645, Note_on_c, 0, 63, 0
2, 66645, Note_on_c, 0, 72, 0
2, 66645, Note_on_c, 0, 51, 0
2, 66669, Note_on_c, 0, 51, 80
2, 66673, Note_on_c, 0, 55, 80
2, 66673, Note_on_c, 0, 61, 80
2, 66673, Note_on_c, 0, 70, 80
2, 66770, Note_on_c, 0, 61, 0
2, 66772, Note_on_c, 0, 55, 0
2, 66774, Note_on_c, 0, 51, 0
2, 66774, Note_on_c, 0, 70, 0
2, 66794, Note_on_c, 0, 44, 80
2, 66796, Note_on_c, 0, 60, 80
2, 66803, Note_on_c, 0, 68, 80
2, 66861, Note_on_c, 0, 50, 80
2, 66920, Note_on_c, 0, 51, 80
2, 66929, Note_on_c, 0, 50, 0
2, 66986, Note_on_c, 0, 52, 80
2, 66997, Note_on_c, 0, 51, 0
2, 67050, Note_on_c, 0, 52, 0
2, 67052, Note_on_c, 0, 53, 80
2, 67106, Note_on_c, 0, 54, 80
2, 67117, Note_on_c, 0, 53, 0
2, 67148, Note_on_c, 0, 60, 0
2, 67150, Note_on_c, 0, 68, 0
2, 67170, Note_on_c, 0, 55, 80
2, 67170, Note_on_c, 0, 61, 80
2, 67175, Note_on_c, 0, 54, 0
2, 67175, Note_on_c, 0, 63, 80
2, 67236, Note_on_c, 0, 51, 80
2, 67243, Note_on_c, 0, 55, 0
2, 67273, Note_on_c, 0, 61, 0
2, 67280, Note_on_c, 0, 63, 0
2, 67300, Note_on_c, 0, 60, 80
2, 67302, Note_on_c, 0, 56, 80
2, 67307, Note_on_c, 0, 68, 80
2, 67312, Note_on_c, 0, 51, 0
2, 67400, Note_on_c, 0, 44, 0
2, 67405, Note_on_c, 0, 56, 0
2, 67407, Note_on_c, 0, 60, 0
2, 67414, Note_on_c, 0, 68, 0
2, 67434, Note_on_c, 0, 44, 80
2, 67434, Note_on_c, 0, 56, 80
2, 67434, Note_on_c, 0, 68, 80
2, 67434, Note_on_c, 0, 72, 80
2, 67442, Note_on_c, 0, 80, 80
2, 67529, Note_on_c, 0, 44, 0
2, 67534, Note_on_c, 0, 56, 0
2, 67540, Note_on_c, 0, 72, 0
2, 67540, Note_on_c, 0, 80, 0
2, 67545, Note_on_c, 0, 68, 0
2, 67560, Note_on_c, 0, 46, 80
2, 67565, Note_on_c, 0, 58, 80
2, 67565, Note_on_c, 0, 68, 80
2, 67567, Note_on_c, 0, 73, 80
2, 67567, Note_on_c, 0, 80, 80
2, 67654, Note_on_c, 0, 58, 0
2, 67656, Note_on_c, 0, 46, 0
2, 67662, Note_on_c, 0, 73, 0
2, 67667, Note_on_c, 0, 68, 0
2, 67667, Note_on_c, 0, 80, 0
2, 67689, Note_on_c, 0, 60, 80
2, 67689, Note_on_c, 0, 68, 80
2, 67689, Note_on_c, 0, 75, 80
2, 67689, Note_on_c, 0, 80, 80
2, 67694, Note_on_c, 0, 48, 80
2, 67780, Note_on_c, 0, 48, 0
2, 67789, Note_on_c, 0, 80, 0
2, 67791, Note_on_c, 0, 60, 0
2, 67793, Note_on_c, 0, 75, 0
2, 67793, Note_on_c, 0, 68, 0
2, 67813, Note_on_c, 0, 61, 80
2, 67815, Note_on_c, 0, 49, 80
2, 67815, Note_on_c, 0, 68, 80
2, 67815, Note_on_c, 0, 77, 80
2, 67817, Note_on_c, 0, 80, 80
2, 67819, Note_on_c, 0, 73, 80
2, 67909, Note_on_c, 0, 61, 0
2, 67911, Note_on_c, 0, 49, 0
2, 67935, Note_on_c, 0, 44, 80
2, 67935, Note_on_c, 0, 56, 80
2, 68037, Note_on_c, 0, 44, 0
2, 68041, Note_on_c, 0, 56, 0
2, 68065, Note_on_c, 0, 46, 80
2, 68070, Note_on_c, 0, 58, 80
2, 68169, Note_on_c, 0, 58, 0
2, 68169, Note_on_c, 0, 46, 0
2, 68202, Note_on_c, 0, 60, 80
2, 68208, Note_on_c, 0, 48, 80
2, 68299, Note_on_c, 0, 48, 0
2, 68307, Note_on_c, 0, 60, 0
2, 68328, Note_on_c, 0, 61, 80
2, 68332, Note_on_c, 0, 49, 80
2, 68368, Note_on_c, 0, 77, 0
2, 68368, Note_on_c, 0, 73, 0
2, 68373, Note_on_c, 0, 68, 0
2, 68425, Note_on_c, 0, 61, 0
2, 68436, Note_on_c, 0, 49, 0
2, 68458, Note_on_c, 0, 44, 80
2, 68458, Note_on_c, 0, 56, 80
2, 68458, Note_on_c, 0, 68, 80
2, 68463, Note_on_c, 0, 73, 80
2, 68463, Note_on_c, 0, 77, 80
2, 68553, Note_on_c, 0, 44, 0
2, 68555, Note_on_c, 0, 77, 0
2, 68557, Note_on_c, 0, 56, 0
2, 68559, Note_on_c, 0, 73, 0
2, 68559, Note_on_c, 0, 80, 0
2, 68561, Note_on_c, 0, 68, 0
2, 68581, Note_on_c, 0, 46, 80
2, 68586, Note_on_c, 0, 58, 80
2, 68591, Note_on_c, 0, 70, 80
2, 68591, Note_on_c, 0, 73, 80
2, 68591, Note_on_c, 0, 77, 80
2, 68591, Note_on_c, 0, 82, 80
2, 68626, Note_on_c, 0, 70, 0
2, 68628, Note_on_c, 0, 77, 0
2, 68628, Note_on_c, 0, 73, 0
2, 68628, Note_on_c, 0, 82, 0
2, 68655, Note_on_c, 0, 68, 80
2, 68655, Note_on_c, 0, 73, 80
2, 68655, Note_on_c, 0, 77, 80
2, 68655, Note_on_c, 0, 80, 80
2, 68682, Note_on_c, 0, 46, 0
2, 68687, Note_on_c, 0, 58, 0
2, 68711, Note_on_c, 0, 47, 80
2, 68715, Note_on_c, 0, 59, 80
2, 68751, Note_on_c, 0, 77, 0
2, 68753, Note_on_c, 0, 73, 0
2, 68755, Note_on_c, 0, 80, 0
2, 68757, Note_on_c, 0, 68, 0
2, 68777, Note_on_c, 0, 63, 80
2, 68779, Note_on_c, 0, 72, 80
2, 68781, Note_on_c, 0, 68, 80
2, 68781, Note_on_c, 0, 75, 80
2, 68805, Note_on_c, 0, 47, 0
2, 68813, Note_on_c, 0, 59, 0
2, 68835, Note_on_c, 0, 60, 80
2, 68844, Note_on_c, 0, 48, 80
2, 68880, Note_on_c, 0, 68, 0
2, 68880, Note_on_c, 0, 72, 0
2, 68880, Note_on_c, 0, 63, 0
2, 68881, Note_on_c, 0, 75, 0
2, 68908, Note_on_c, 0, 77, 80
2, 68935, Note_on_c, 0, 48, 0
2, 68940, Note_on_c, 0, 60, 0
2, 68971, Note_on_c, 0, 39, 80
2, 68971, Note_on_c, 0, 51, 80
2, 68971, Note_on_c, 0, 72, 80
2, 68973, Note_on_c, 0, 65, 80
2, 68977, Note_on_c, 0, 68, 80
2, 69068, Note_on_c, 0, 39, 0
2, 69072, Note_on_c, 0, 51, 0
2, 69077, Note_on_c, 0, 77, 0
2, 69079, Note_on_c, 0, 65, 0
2, 69081, Note_on_c, 0, 68, 0
2, 69081, Note_on_c, 0, 72, 0
2, 69098, Note_on_c, 0, 41, 80
2, 69105, Note_on_c, 0, 53, 80
2, 69110, Note_on_c, 0, 75, 80
2, 69168, Note_on_c, 0, 72, 80
2, 69169, Note_on_c, 0, 63, 80
2, 69171, Note_on_c, 0, 68, 80
2, 69195, Note_on_c, 0, 41, 0
2, 69197, Note_on_c, 0, 53, 0
2, 69230, Note_on_c, 0, 43, 80
2, 69230, Note_on_c, 0, 55, 80
2, 69263, Note_on_c, 0, 72, 0
2, 69264, Note_on_c, 0, 63, 0
2, 69269, Note_on_c, 0, 75, 0
2, 69269, Note_on_c, 0, 68, 0
2, 69293, Note_on_c, 0, 77, 80
2, 69320, Note_on_c, 0, 43, 0
2, 69331, Note_on_c, 0, 55, 0
2, 69346, Note_on_c, 0, 44, 80
2, 69346, Note_on_c, 0, 56, 80
2, 69351, Note_on_c, 0, 72, 80
2, 69353, Note_on_c, 0, 65, 80
2, 69353, Note_on_c, 0, 68, 80
2, 69446, Note_on_c, 0, 44, 0
2, 69451, Note_on_c, 0, 56, 0
2, 69451, Note_on_c, 0, 77, 0
2, 69451, Note_on_c, 0, 65, 0
2, 69451, Note_on_c, 0, 68, 0
2, 69453, Note_on_c, 0, 72, 0
2, 69475, Note_on_c, 0, 39, 80
2, 69475, Note_on_c, 0, 51, 80
2, 69481, Note_on_c, 0, 75, 80
2, 69539, Note_on_c, 0, 63, 80
2, 69539, Note_on_c, 0, 72, 80
2, 69544, Note_on_c, 0, 68, 80
2, 69571, Note_on_c, 0, 39, 0
2, 69576, Note_on_c, 0, 51, 0
2, 69602, Note_on_c, 0, 41, 80
2, 69604, Note_on_c, 0, 53, 80
2, 69642, Note_on_c, 0, 63, 0
2, 69644, Note_on_c, 0, 75, 0
2, 69646, Note_on_c, 0, 72, 0
2, 69646, Note_on_c, 0, 68, 0
2, 69668, Note_on_c, 0, 75, 80
2, 69696, Note_on_c, 0, 41, 0
2, 69707, Note_on_c, 0, 53, 0
2, 69729, Note_on_c, 0, 42, 80
2, 69731, Note_on_c, 0, 54, 80
2, 69731, Note_on_c, 0, 72, 80
2, 69738, Note_on_c, 0, 63, 80
2, 69738, Note_on_c, 0, 69, 80
2, 69833, Note_on_c, 0, 54, 0
2, 69833, Note_on_c, 0, 42, 0
2, 69843, Note_on_c, 0, 72, 0
2, 69843, Note_on_c, 0, 69, 0
2, 69859, Note_on_c, 0, 55, 80
2, 69861, Note_on_c, 0, 43, 80
2, 69865, Note_on_c, 0, 70, 80
2, 69865, Note_on_c, 0, 73, 80
2, 69962, Note_on_c, 0, 43, 0
2, 69962, Note_on_c, 0, 55, 0
2, 69993, Note_on_c, 0, 51, 80
2, 69993, Note_on_c, 0, 58, 80
2, 69993, Note_on_c, 0, 61, 80
2, 70026, Note_on_c, 0, 73, 0
2, 70031, Note_on_c, 0, 75, 0
2, 70031, Note_on_c, 0, 63, 0
2, 70031, Note_on_c, 0, 70, 0
2, 70055, Note_on_c, 0, 67, 80
2, 70059, Note_on_c, 0, 73, 80
2, 70059, Note_on_c, 0, 79, 80
2, 70086, Note_on_c, 0, 61, 0
2, 70088, Note_on_c, 0, 58, 0
2, 70093, Note_on_c, 0, 51, 0
2, 70110, Note_on_c, 0, 39, 80
2, 70115, Note_on_c, 0, 51, 80
2, 70151, Note_on_c, 0, 79, 0
2, 70181, Note_on_c, 0, 77, 80
2, 70203, Note_on_c, 0, 39, 0
2, 70212, Note_on_c, 0, 67, 0
2, 70214, Note_on_c, 0, 51, 0
2, 70214, Note_on_c, 0, 73, 0
2, 70234, Note_on_c, 0, 51, 80
2, 70241, Note_on_c, 0, 58, 80
2, 70241, Note_on_c, 0, 61, 80
2, 70248, Note_on_c, 0, 67, 80
2, 70334, Note_on_c, 0, 58, 0
2, 70336, Note_on_c, 0, 61, 0
2, 70338, Note_on_c, 0, 51, 0
2, 70343, Note_on_c, 0, 77, 0
2, 70360, Note_on_c, 0, 58, 80
2, 70365, Note_on_c, 0, 46, 80
2, 70365, Note_on_c, 0, 75, 80
2, 70395, Note_on_c, 0, 67, 0
2, 70402, Note_on_c, 0, 75, 0
2, 70422, Note_on_c, 0, 65, 80
2, 70429, Note_on_c, 0, 73, 80
2, 70453, Note_on_c, 0, 46, 0
2, 70458, Note_on_c, 0, 58, 0
2, 70482, Note_on_c, 0, 51, 80
2, 70492, Note_on_c, 0, 55, 80
2, 70492, Note_on_c, 0, 61, 80
2, 70530, Note_on_c, 0, 73, 0
2, 70532, Note_on_c, 0, 65, 0
2, 70554, Note_on_c, 0, 72, 80
2, 70556, Note_on_c, 0, 63, 80
2, 70591, Note_on_c, 0, 55, 0
2, 70591, Note_on_c, 0, 61, 0
2, 70593, Note_on_c, 0, 51, 0
2, 70615, Note_on_c, 0, 51, 80
2, 70617, Note_on_c, 0, 39, 80
2, 70721, Note_on_c, 0, 39, 0
2, 70728, Note_on_c, 0, 63, 0
2, 70732, Note_on_c, 0, 72, 0
2, 70754, Note_on_c, 0, 61, 80
2, 70756, Note_on_c, 0, 55, 80
2, 70758, Note_on_c, 0, 70, 80
2, 70848, Note_on_c, 0, 61, 0
2, 70853, Note_on_c, 0, 55, 0
2, 70855, Note_on_c, 0, 51, 0
2, 70862, Note_on_c, 0, 70, 0
2, 70875, Note_on_c, 0, 32, 80
2, 70880, Note_on_c, 0, 44, 80
2, 70880, Note_on_c, 0, 60, 80
2, 70887, Note_on_c, 0, 68, 80
2, 70926, Note_on_c, 0, 68, 0
2, 70946, Note_on_c, 0, 72, 80
2, 70975, Note_on_c, 0, 32, 0
2, 70980, Note_on_c, 0, 44, 0
2, 70991, Note_on_c, 0, 60, 0
2, 71011, Note_on_c, 0, 51, 80
2, 71011, Note_on_c, 0, 56, 80
2, 71011, Note_on_c, 0, 60, 80
2, 71057, Note_on_c, 0, 72, 0
2, 71079, Note_on_c, 0, 72, 80
2, 71084, Note_on_c, 0, 63, 80
2, 71084, Note_on_c, 0, 68, 80
2, 71086, Note_on_c, 0, 75, 80
2, 71112, Note_on_c, 0, 60, 0
2, 71114, Note_on_c, 0, 51, 0
2, 71114, Note_on_c, 0, 56, 0
2, 71143, Note_on_c, 0, 60, 80
2, 71148, Note_on_c, 0, 48, 80
2, 71179, Note_on_c, 0, 63, 0
2, 71184, Note_on_c, 0, 68, 0
2, 71185, Note_on_c, 0, 75, 0
2, 71185, Note_on_c, 0, 72, 0
2, 71206, Note_on_c, 0, 70, 80
2, 71208, Note_on_c, 0, 67, 80
2, 71212, Note_on_c, 0, 77, 80
2, 71234, Note_on_c, 0, 48, 0
2, 71243, Note_on_c, 0, 60, 0
2, 71263, Note_on_c, 0, 49, 80
2, 71270, Note_on_c, 0, 61, 80
2, 71309, Note_on_c, 0, 77, 0
2, 71340, Note_on_c, 0, 75, 80
2, 71367, Note_on_c, 0, 61, 0
2, 71372, Note_on_c, 0, 49, 0
2, 71372, Note_on_c, 0, 67, 0
2, 71376, Note_on_c, 0, 70, 0
2, 71381, Note_on_c, 0, 75, 0
2, 71397, Note_on_c, 0, 60, 80
2, 71397, Note_on_c, 0, 72, 80
2, 71401, Note_on_c, 0, 48, 80
2, 71401, Note_on_c, 0, 68, 80
2, 71401, Note_on_c, 0, 75, 80
2, 71401, Note_on_c, 0, 80, 80
2, 71498, Note_on_c, 0, 60, 0
2, 71500, Note_on_c, 0, 48, 0
2, 71500, Note_on_c, 0, 80, 0
2, 71502, Note_on_c, 0, 72, 0
2, 71507, Note_on_c, 0, 75, 0
2, 71507, Note_on_c, 0, 68, 0
2, 71524, Note_on_c, 0, 44, 80
2, 71524, Note_on_c, 0, 72, 80
2, 71526, Note_on_c, 0, 56, 80
2, 71528, Note_on_c, 0, 68, 80
2, 71528, Note_on_c, 0, 80, 80
2, 71621, Note_on_c, 0, 44, 0
2, 71630, Note_on_c, 0, 68, 0
2, 71632, Note_on_c, 0, 72, 0
2, 71632, Note_on_c, 0, 56, 0
2, 71632, Note_on_c, 0, 80, 0
2, 71654, Note_on_c, 0, 46, 80
2, 71654, Note_on_c, 0, 58, 80
2, 71654, Note_on_c, 0, 73, 80
2, 71654, Note_on_c, 0, 80, 80
2, 71661, Note_on_c, 0, 68, 80
2, 71747, Note_on_c, 0, 58, 0
2, 71747, Note_on_c, 0, 46, 0
2, 71754, Note_on_c, 0, 68, 0
2, 71754, Note_on_c, 0, 73, 0
2, 71760, Note_on_c, 0, 80, 0
2, 71783, Note_on_c, 0, 60, 80
2, 71784, Note_on_c, 0, 48, 80
2, 71784, Note_on_c, 0, 68, 80
2, 71784, Note_on_c, 0, 75, 80
2, 71784, Note_on_c, 0, 80, 80
2, 71871, Note_on_c, 0, 48, 0
2, 71881, Note_on_c, 0, 60, 0
2, 71883, Note_on_c, 0, 75, 0
2, 71883, Note_on_c, 0, 68, 0
2, 71883, Note_on_c, 0, 80, 0
2, 71905, Note_on_c, 0, 49, 80
2, 71907, Note_on_c, 0, 61, 80
2, 71909, Note_on_c, 0, 68, 80
2, 71909, Note_on_c, 0, 73, 80
2, 71909, Note_on_c, 0, 77, 80
2, 71909, Note_on_c, 0, 80, 80
2, 72000, Note_on_c, 0, 49, 0
2, 72001, Note_on_c, 0, 61, 0
2, 72028, Note_on_c, 0, 44, 80
2, 72028, Note_on_c, 0, 56, 80
2, 72130, Note_on_c, 0, 44, 0
2, 72139, Note_on_c, 0, 56, 0
2, 72163, Note_on_c, 0, 46, 80
2, 72168, Note_on_c, 0, 58, 80
2, 72261, Note_on_c, 0, 46, 0
2, 72265, Note_on_c, 0, 58, 0
2, 72296, Note_on_c, 0, 60, 80
2, 72303, Note_on_c, 0, 48, 80
2, 72391, Note_on_c, 0, 48, 0
2, 72398, Note_on_c, 0, 60, 0
2, 72420, Note_on_c, 0, 49, 80
2, 72425, Note_on_c, 0, 61, 80
2, 72457, Note_on_c, 0, 77, 0
2, 72457, Note_on_c, 0, 80, 0
2, 72459, Note_on_c, 0, 73, 0
2, 72461, Note_on_c, 0, 68, 0
2, 72488, Note_on_c, 0, 80, 80
2, 72517, Note_on_c, 0, 61, 0
2, 72517, Note_on_c, 0, 49, 0
2, 72548, Note_on_c, 0, 44, 80
2, 72548, Note_on_c, 0, 56, 80
2, 72548, Note_on_c, 0, 68, 80
2, 72550, Note_on_c, 0, 77, 80
2, 72552, Note_on_c, 0, 73, 80
2, 72638, Note_on_c, 0, 44, 0
2, 72643, Note_on_c, 0, 77, 0
2, 72645, Note_on_c, 0, 80, 0
2, 72645, Note_on_c, 0, 56, 0
2, 72645, Note_on_c, 0, 73, 0
2, 72647, Note_on_c, 0, 68, 0
2, 72664, Note_on_c, 0, 46, 80
2, 72669, Note_on_c, 0, 58, 80
2, 72669, Note_on_c, 0, 70, 80
2, 72673, Note_on_c, 0, 73, 80
2, 72673, Note_on_c, 0, 77, 80
2, 72673, Note_on_c, 0, 82, 80
2, 72706, Note_on_c, 0, 77, 0
2, 72706, Note_on_c, 0, 70, 0
2, 72708, Note_on_c, 0, 73, 0
2, 72708, Note_on_c, 0, 82, 0
2, 72730, Note_on_c, 0, 73, 80
2, 72730, Note_on_c, 0, 77, 80
2, 72735, Note_on_c, 0, 68, 80
2, 72735, Note_on_c, 0, 80, 80
2, 72759, Note_on_c, 0, 46, 0
2, 72764, Note_on_c, 0, 58, 0
2, 72792, Note_on_c, 0, 47, 80
2, 72794, Note_on_c, 0, 59, 80
2, 72827, Note_on_c, 0, 77, 0
2, 72827, Note_on_c, 0, 73, 0
2, 72829, Note_on_c, 0, 68, 0
2, 72829, Note_on_c, 0, 80, 0
2, 72851, Note_on_c, 0, 72, 80
2, 72853, Note_on_c, 0, 63, 80
2, 72855, Note_on_c, 0, 68, 80
2, 72857, Note_on_c, 0, 75, 80
2, 72884, Note_on_c, 0, 47, 0
2, 72890, Note_on_c, 0, 59, 0
2, 72919, Note_on_c, 0, 60, 80
2, 72926, Note_on_c, 0, 48, 80
2, 72961, Note_on_c, 0, 68, 0
2, 72961, Note_on_c, 0, 72, 0
2, 72961, Note_on_c, 0, 63, 0
2, 72961, Note_on_c, 0, 75, 0
2, 72990, Note_on_c, 0, 77, 80
2, 73017, Note_on_c, 0, 48, 0
2, 73024, Note_on_c, 0, 60, 0
2, 73053, Note_on_c, 0, 39, 80
2, 73053, Note_on_c, 0, 51, 80
2, 73053, Note_on_c, 0, 65, 80
2, 73053, Note_on_c, 0, 72, 80
2, 73057, Note_on_c, 0, 68, 80
2, 73144, Note_on_c, 0, 39, 0
2, 73157, Note_on_c, 0, 77, 0
2, 73157, Note_on_c, 0, 51, 0
2, 73159, Note_on_c, 0, 65, 0
2, 73159, Note_on_c, 0, 68, 0
2, 73164, Note_on_c, 0, 72, 0
2, 73179, Note_on_c, 0, 41, 80
2, 73181, Note_on_c, 0, 53, 80
2, 73188, Note_on_c, 0, 75, 80
2, 73248, Note_on_c, 0, 72, 80
2, 73252, Note_on_c, 0, 63, 80
2, 73252, Note_on_c, 0, 68, 80
2, 73274, Note_on_c, 0, 41, 0
2, 73283, Note_on_c, 0, 53, 0
2, 73307, Note_on_c, 0, 43, 80
2, 73312, Note_on_c, 0, 55, 80
2, 73347, Note_on_c, 0, 63, 0
2, 73347, Note_on_c, 0, 72, 0
2, 73352, Note_on_c, 0, 68, 0
2, 73357, Note_on_c, 0, 75, 0
2, 73381, Note_on_c, 0, 77, 80
2, 73410, Note_on_c, 0, 43, 0
2, 73412, Note_on_c, 0, 55, 0
2, 73418, Note_on_c, 0, 77, 0
2, 73436, Note_on_c, 0, 72, 80
2, 73440, Note_on_c, 0, 44, 80
2, 73440, Note_on_c, 0, 56, 80
2, 73440, Note_on_c, 0, 68, 80
2, 73440, Note_on_c, 0, 77, 80
2, 73442, Note_on_c, 0, 65, 80
2, 73537, Note_on_c, 0, 44, 0
2, 73539, Note_on_c, 0, 77, 0
2, 73541, Note_on_c, 0, 65, 0
2, 73543, Note_on_c, 0, 56, 0
2, 73543, Note_on_c, 0, 72, 0
2, 73545, Note_on_c, 0, 68, 0
2, 73565, Note_on_c, 0, 39, 80
2, 73565, Note_on_c, 0, 51, 80
2, 73570, Note_on_c, 0, 75, 80
2, 73632, Note_on_c, 0, 63, 80
2, 73633, Note_on_c, 0, 72, 80
2, 73638, Note_on_c, 0, 68, 80
2, 73662, Note_on_c, 0, 39, 0
2, 73667, Note_on_c, 0, 51, 0
2, 73698, Note_on_c, 0, 41, 80
2, 73698, Note_on_c, 0, 53, 80
2, 73735, Note_on_c, 0, 63, 0
2, 73742, Note_on_c, 0, 72, 0
2, 73742, Note_on_c, 0, 68, 0
2, 73744, Note_on_c, 0, 75, 0
2, 73771, Note_on_c, 0, 75, 80
2, 73793, Note_on_c, 0, 41, 0
2, 73806, Note_on_c, 0, 53, 0
2, 73835, Note_on_c, 0, 42, 80
2, 73835, Note_on_c, 0, 54, 80
2, 73835, Note_on_c, 0, 63, 80
2, 73835, Note_on_c, 0, 69, 80
2, 73835, Note_on_c, 0, 72, 80
2, 73934, Note_on_c, 0, 54, 0
2, 73934, Note_on_c, 0, 42, 0
2, 73941, Note_on_c, 0, 63, 0
2, 73941, Note_on_c, 0, 75, 0
2, 73941, Note_on_c, 0, 72, 0
2, 73941, Note_on_c, 0, 69, 0
2, 73963, Note_on_c, 0, 43, 80
2, 73963, Note_on_c, 0, 55, 80
2, 73963, Note_on_c, 0, 63, 80
2, 73968, Note_on_c, 0, 70, 80
2, 73968, Note_on_c, 0, 75, 80
2, 73969, Note_on_c, 0, 73, 80
2, 74056, Note_on_c, 0, 43, 0
2, 74064, Note_on_c, 0, 55, 0
2, 74087, Note_on_c, 0, 51, 80
2, 74091, Note_on_c, 0, 58, 80
2, 74091, Note_on_c, 0, 61, 80
2, 74124, Note_on_c, 0, 70, 0
2, 74129, Note_on_c, 0, 63, 0
2, 74131, Note_on_c, 0, 75, 0
2, 74131, Note_on_c, 0, 73, 0
2, 74158, Note_on_c, 0, 67, 80
2, 74158, Note_on_c, 0, 73, 80
2, 74160, Note_on_c, 0, 79, 80
2, 74188, Note_on_c, 0, 58, 0
2, 74190, Note_on_c, 0, 61, 0
2, 74192, Note_on_c, 0, 51, 0
2, 74214, Note_on_c, 0, 39, 80
2, 74214, Note_on_c, 0, 51, 80
2, 74260, Note_on_c, 0, 79, 0
2, 74282, Note_on_c, 0, 77, 80
2, 74303, Note_on_c, 0, 39, 0
2, 74311, Note_on_c, 0, 51, 0
2, 74318, Note_on_c, 0, 67, 0
2, 74318, Note_on_c, 0, 73, 0
2, 74333, Note_on_c, 0, 51, 80
2, 74338, Note_on_c, 0, 58, 80
2, 74338, Note_on_c, 0, 61, 80
2, 74340, Note_on_c, 0, 67, 80
2, 74430, Note_on_c, 0, 61, 0
2, 74435, Note_on_c, 0, 58, 0
2, 74440, Note_on_c, 0, 77, 0
2, 74440, Note_on_c, 0, 51, 0
2, 74440, Note_on_c, 0, 67, 0
2, 74462, Note_on_c, 0, 58, 80
2, 74467, Note_on_c, 0, 46, 80
2, 74467, Note_on_c, 0, 67, 80
2, 74467, Note_on_c, 0, 75, 80
2, 74502, Note_on_c, 0, 67, 0
2, 74504, Note_on_c, 0, 75, 0
2, 74531, Note_on_c, 0, 73, 80
2, 74533, Note_on_c, 0, 65, 80
2, 74557, Note_on_c, 0, 46, 0
2, 74566, Note_on_c, 0, 58, 0
2, 74592, Note_on_c, 0, 51, 80
2, 74592, Note_on_c, 0, 55, 80
2, 74597, Note_on_c, 0, 61, 80
2, 74630, Note_on_c, 0, 73, 0
2, 74630, Note_on_c, 0, 65, 0
2, 74659, Note_on_c, 0, 72, 80
2, 74664, Note_on_c, 0, 63, 80
2, 74690, Note_on_c, 0, 61, 0
2, 74695, Note_on_c, 0, 55, 0
2, 74700, Note_on_c, 0, 51, 0
2, 74720, Note_on_c, 0, 39, 80
2, 74727, Note_on_c, 0, 51, 80
2, 74820, Note_on_c, 0, 39, 0
2, 74831, Note_on_c, 0, 63, 0
2, 74831, Note_on_c, 0, 72, 0
2, 74859, Note_on_c, 0, 55, 80
2, 74859, Note_on_c, 0, 61, 80
2, 74864, Note_on_c, 0, 70, 80
2, 74954, Note_on_c, 0, 61, 0
2, 74954, Note_on_c, 0, 51, 0
2, 74954, Note_on_c, 0, 55, 0
2, 74959, Note_on_c, 0, 70, 0
2, 74979, Note_on_c, 0, 44, 80
2, 74984, Note_on_c, 0, 60, 80
2, 74993, Note_on_c, 0, 68, 80
2, 75050, Note_on_c, 0, 50, 80
2, 75110, Note_on_c, 0, 51, 80
2, 75117, Note_on_c, 0, 50, 0
2, 75176, Note_on_c, 0, 52, 80
2, 75181, Note_on_c, 0, 51, 0
2, 75240, Note_on_c, 0, 53, 80
2, 75242, Note_on_c, 0, 52, 0
2, 75302, Note_on_c, 0, 54, 80
2, 75309, Note_on_c, 0, 53, 0
2, 75339, Note_on_c, 0, 60, 0
2, 75346, Note_on_c, 0, 68, 0
2, 75370, Note_on_c, 0, 54, 0
2, 75370, Note_on_c, 0, 55, 80
2, 75370, Note_on_c, 0, 61, 80
2, 75370, Note_on_c, 0, 63, 80
2, 75432, Note_on_c, 0, 51, 80
2, 75438, Note_on_c, 0, 55, 0
2, 75471, Note_on_c, 0, 61, 0
2, 75473, Note_on_c, 0, 63, 0
2, 75493, Note_on_c, 0, 60, 80
2, 75495, Note_on_c, 0, 56, 80
2, 75495, Note_on_c, 0, 68, 80
2, 75502, Note_on_c, 0, 51, 0
2, 75588, Note_on_c, 0, 44, 0
2, 75593, Note_on_c, 0, 56, 0
2, 75617, Note_on_c, 0, 39, 80
2, 75619, Note_on_c, 0, 51, 80
2, 75705, Note_on_c, 0, 39, 0
2, 75714, Note_on_c, 0, 51, 0
2, 75716, Note_on_c, 0, 60, 0
2, 75718, Note_on_c, 0, 68, 0
2, 75731, Note_on_c, 0, 32, 80
2, 75742, Note_on_c, 0, 44, 80
2, 75742, Note_on_c, 0, 72, 80
2, 75746, Note_on_c, 0, 68, 80
2, 75746, Note_on_c, 0, 75, 80
2, 75746, Note_on_c, 0, 80, 80
2, 75833, Note_on_c, 0, 32, 0
2, 75835, Note_on_c, 0, 44, 0
2, 75843, Note_on_c, 0, 75, 0
2, 75843, Note_on_c, 0, 68, 0
2, 75843, Note_on_c, 0, 80, 0
2, 75843, Note_on_c, 0, 72, 0
2, 75843, End_track
3, 0, Start_track
3, 0, Title_t, "c/b Joseph Lamb"
3, 0, End_track
4, 0, Start_track
4, 0, Title_t, "p/b Joseph Lamb"
4, 0, End_track
5, 0, Start_track
5, 0, Title_t, "Jazz Classics # ?"
5, 0, End_track
6, 0, Start_track
6, 0, Title_t, "Scan of a player piano roll"
6, 0, End_track
7, 0, Start_track
7, 0, Title_t, "by Terry Smythe, Winnipeg, Canada"
7, 0, End_track
8, 0, Start_track
8, 1, Copyright_t, "___________________________________________________\012\012KUNSTDERFUGE.COM LARGE CLASSICAL MIDI COLLECTION\012ONCLASSICAL BY ALESSANDRO SIMONETTO, PROPRIETOR\012___________________________________________________\012\012! Attention: this file is under copyright !\012\012(c)onclassical, (nc)smythe, 2010\012___________________________________________________\012\012NO ONE MAY REPUBLISH THIS FILE WITHOUT PERMISSION\012COMMERCIAL USES OF THIS FILE IS STRICTLY PROHIBITED\012___________________________________________________\012\012Files & contributor's list: http://kunstderfuge.com/\012Terms and conditions: http://kunstderfuge.com/notes.htm"
8, 1, End_track
0, 0, End_of_file
