0, 0, Header, 1, 18, 384
1, 0, Start_track
1, 0, Time_signature, 4, 2, 96, 8
1, 0, Sequencer_specific, 3, 0, 0, 65
1, 0, Tempo, 500000
1, 0, End_track
2, 0, Start_track
2, 0, Title_t, "Scott Joplin's Rag-Time performance"
2, 0, Key_signature, 0, "major"
2, 1472, Note_on_c, 1, 75, 71
2, 1472, Note_on_c, 1, 51, 52
2, 1472, Control_c, 1, 121, 127
2, 1580, Note_on_c, 1, 77, 71
2, 1588, Note_on_c, 1, 53, 54
2, 1592, Note_off_c, 1, 75, 64
2, 1596, Note_off_c, 1, 51, 64
2, 1672, Note_off_c, 1, 53, 64
2, 1672, Note_on_c, 1, 79, 72
2, 1680, Note_off_c, 1, 77, 64
2, 1688, Note_on_c, 1, 55, 55
2, 1780, Note_on_c, 1, 53, 51
2, 1784, Note_off_c, 1, 79, 64
2, 1784, Note_off_c, 1, 55, 64
2, 1784, Note_on_c, 1, 77, 67
2, 2100, Note_on_c, 1, 70, 54
2, 2108, Note_on_c, 1, 46, 32
2, 2128, Note_off_c, 1, 77, 64
2, 2144, Note_off_c, 1, 53, 64
2, 2148, Note_off_c, 1, 46, 64
2, 2160, Control_c, 1, 64, 127
2, 2164, Note_off_c, 1, 70, 64
2, 2208, Control_c, 1, 64, 0
2, 2300, Note_on_c, 1, 53, 59
2, 2312, Note_on_c, 1, 77, 71
2, 2404, Note_on_c, 1, 79, 75
2, 2408, Note_off_c, 1, 53, 64
2, 2412, Note_off_c, 1, 77, 64
2, 2412, Note_on_c, 1, 55, 56
2, 2504, Note_off_c, 1, 55, 64
2, 2508, Note_off_c, 1, 79, 64
2, 2508, Note_on_c, 1, 80, 77
2, 2508, Note_on_c, 1, 56, 54
2, 2596, Note_off_c, 1, 56, 64
2, 2608, Note_off_c, 1, 80, 64
2, 2608, Note_on_c, 1, 55, 46
2, 2608, Note_on_c, 1, 79, 70
2, 2700, Control_c, 1, 64, 127
2, 2716, Note_off_c, 1, 55, 64
2, 2716, Note_off_c, 1, 79, 64
2, 2928, Note_on_c, 1, 46, 49
2, 2928, Note_on_c, 1, 70, 66
2, 2932, Control_c, 1, 64, 0
2, 3136, Note_on_c, 1, 72, 70
2, 3140, Note_off_c, 1, 46, 64
2, 3140, Note_off_c, 1, 70, 64
2, 3140, Note_on_c, 1, 48, 54
2, 3168, Note_off_c, 1, 72, 64
2, 3172, Note_off_c, 1, 48, 64
2, 3260, Note_on_c, 1, 72, 74
2, 3260, Note_on_c, 1, 48, 62
2, 3440, Note_off_c, 1, 48, 64
2, 3444, Note_off_c, 1, 72, 64
2, 3444, Note_on_c, 1, 71, 79
2, 3444, Note_on_c, 1, 47, 50
2, 3552, Note_off_c, 1, 47, 64
2, 3552, Note_on_c, 1, 48, 57
2, 3556, Note_on_c, 1, 72, 83
2, 3560, Note_off_c, 1, 71, 64
2, 3648, Note_off_c, 1, 48, 64
2, 3652, Note_on_c, 1, 74, 87
2, 3656, Note_off_c, 1, 72, 64
2, 3656, Note_on_c, 1, 50, 62
2, 3748, Note_off_c, 1, 50, 64
2, 3760, Note_on_c, 1, 75, 79
2, 3764, Note_off_c, 1, 74, 64
2, 3768, Note_on_c, 1, 51, 48
2, 3952, Note_on_c, 1, 70, 60
2, 3964, Note_on_c, 1, 46, 43
2, 3980, Note_off_c, 1, 75, 64
2, 3980, Note_off_c, 1, 51, 64
2, 3992, Note_off_c, 1, 70, 64
2, 4004, Note_off_c, 1, 46, 64
2, 4168, Note_on_c, 1, 70, 78
2, 4168, Control_c, 1, 64, 127
2, 4176, Note_on_c, 1, 46, 50
2, 4188, Note_off_c, 1, 70, 64
2, 4356, Note_off_c, 1, 46, 64
2, 4480, Note_on_c, 1, 67, 77
2, 4536, Control_c, 1, 64, 0
2, 4600, Note_on_c, 1, 68, 73
2, 4620, Note_off_c, 1, 67, 64
2, 4684, Note_on_c, 1, 69, 71
2, 4692, Note_off_c, 1, 68, 64
2, 4796, Note_on_c, 1, 51, 53
2, 4800, Note_on_c, 1, 70, 69
2, 4812, Note_off_c, 1, 69, 64
2, 4836, Note_off_c, 1, 70, 64
2, 4856, Note_off_c, 1, 51, 64
2, 4992, Note_on_c, 1, 55, 56
2, 4992, Note_on_c, 1, 63, 56
2, 4992, Note_on_c, 1, 75, 69
2, 5000, Note_on_c, 1, 67, 61
2, 5012, Note_off_c, 1, 55, 64
2, 5012, Note_off_c, 1, 63, 64
2, 5020, Note_off_c, 1, 75, 64
2, 5024, Note_off_c, 1, 67, 64
2, 5204, Note_on_c, 1, 46, 53
2, 5204, Note_on_c, 1, 74, 78
2, 5204, Note_on_c, 1, 67, 59
2, 5224, Note_off_c, 1, 46, 64
2, 5232, Note_off_c, 1, 74, 64
2, 5236, Note_off_c, 1, 67, 64
2, 5408, Note_on_c, 1, 55, 66
2, 5412, Note_on_c, 1, 72, 68
2, 5412, Note_on_c, 1, 63, 53
2, 5412, Note_on_c, 1, 67, 63
2, 5432, Note_off_c, 1, 55, 64
2, 5432, Note_off_c, 1, 72, 64
2, 5436, Note_off_c, 1, 63, 64
2, 5436, Note_off_c, 1, 67, 64
2, 5616, Note_on_c, 1, 51, 57
2, 5624, Note_on_c, 1, 67, 62
2, 5628, Note_on_c, 1, 70, 50
2, 5636, Note_off_c, 1, 70, 64
2, 5648, Note_off_c, 1, 67, 64
2, 5668, Note_off_c, 1, 51, 64
2, 5720, Note_on_c, 1, 75, 70
2, 5724, Note_on_c, 1, 67, 65
2, 5824, Note_on_c, 1, 63, 54
2, 5828, Note_off_c, 1, 75, 64
2, 5828, Note_on_c, 1, 55, 51
2, 5828, Note_on_c, 1, 58, 48
2, 5836, Note_off_c, 1, 67, 64
2, 5840, Note_off_c, 1, 63, 64
2, 5844, Note_off_c, 1, 55, 64
2, 5844, Note_off_c, 1, 58, 64
2, 5928, Note_on_c, 1, 67, 61
2, 5928, Note_on_c, 1, 74, 78
2, 6032, Note_on_c, 1, 46, 57
2, 6052, Note_off_c, 1, 46, 64
2, 6140, Note_off_c, 1, 74, 64
2, 6144, Note_on_c, 1, 72, 71
2, 6192, Note_off_c, 1, 67, 64
2, 6248, Note_on_c, 1, 55, 60
2, 6256, Note_on_c, 1, 63, 49
2, 6256, Note_on_c, 1, 70, 68
2, 6260, Note_off_c, 1, 72, 64
2, 6260, Note_on_c, 1, 58, 38
2, 6324, Note_off_c, 1, 58, 64
2, 6328, Note_off_c, 1, 70, 64
2, 6340, Note_off_c, 1, 55, 64
2, 6340, Note_off_c, 1, 63, 64
2, 6352, Note_on_c, 1, 67, 70
2, 6392, Note_off_c, 1, 67, 64
2, 6452, Note_on_c, 1, 51, 54
2, 6464, Note_on_c, 1, 70, 64
2, 6468, Note_on_c, 1, 67, 66
2, 6476, Note_off_c, 1, 51, 64
2, 6512, Note_off_c, 1, 70, 64
2, 6524, Note_off_c, 1, 67, 64
2, 6676, Note_on_c, 1, 55, 61
2, 6676, Note_on_c, 1, 58, 53
2, 6680, Note_on_c, 1, 63, 45
2, 6680, Note_on_c, 1, 75, 67
2, 6680, Note_on_c, 1, 67, 73
2, 6696, Note_off_c, 1, 55, 64
2, 6696, Note_off_c, 1, 58, 64
2, 6700, Note_off_c, 1, 63, 64
2, 6716, Note_off_c, 1, 67, 64
2, 6720, Note_off_c, 1, 75, 64
2, 6884, Note_on_c, 1, 46, 66
2, 6892, Note_on_c, 1, 74, 75
2, 6892, Note_on_c, 1, 67, 69
2, 6900, Note_off_c, 1, 46, 64
2, 6920, Note_off_c, 1, 74, 64
2, 6924, Note_off_c, 1, 67, 64
2, 7104, Note_on_c, 1, 67, 70
2, 7104, Note_on_c, 1, 55, 64
2, 7104, Note_on_c, 1, 72, 69
2, 7104, Note_on_c, 1, 63, 53
2, 7108, Note_on_c, 1, 58, 40
2, 7120, Control_c, 1, 64, 127
2, 7128, Note_off_c, 1, 58, 64
2, 7132, Note_off_c, 1, 55, 64
2, 7132, Note_off_c, 1, 63, 64
2, 7140, Note_off_c, 1, 72, 64
2, 7152, Note_off_c, 1, 67, 64
2, 7308, Note_on_c, 1, 70, 66
2, 7308, Control_c, 1, 64, 0
2, 7316, Note_on_c, 1, 53, 34
2, 7320, Note_on_c, 1, 68, 55
2, 7332, Note_off_c, 1, 68, 64
2, 7340, Note_off_c, 1, 70, 64
2, 7412, Note_off_c, 1, 53, 64
2, 7412, Note_on_c, 1, 68, 53
2, 7412, Note_on_c, 1, 74, 78
2, 7504, Note_off_c, 1, 74, 64
2, 7508, Note_off_c, 1, 68, 64
2, 7512, Note_on_c, 1, 56, 50
2, 7512, Note_on_c, 1, 62, 61
2, 7512, Note_on_c, 1, 58, 54
2, 7524, Note_off_c, 1, 58, 64
2, 7528, Note_off_c, 1, 56, 64
2, 7528, Note_off_c, 1, 62, 64
2, 7616, Note_on_c, 1, 72, 69
2, 7624, Note_on_c, 1, 68, 59
2, 7724, Note_on_c, 1, 46, 54
2, 7728, Note_off_c, 1, 68, 64
2, 7728, Note_off_c, 1, 72, 64
2, 7728, Control_c, 1, 64, 127
2, 7736, Note_off_c, 1, 46, 64
2, 7828, Note_on_c, 1, 70, 56
2, 7828, Control_c, 1, 64, 0
2, 7924, Note_on_c, 1, 56, 50
2, 7928, Note_off_c, 1, 70, 64
2, 7928, Note_on_c, 1, 62, 54
2, 7940, Note_on_c, 1, 65, 67
2, 7940, Note_on_c, 1, 58, 36
2, 7984, Note_off_c, 1, 65, 64
2, 8024, Control_c, 1, 64, 127
2, 8040, Note_on_c, 1, 67, 69
2, 8044, Note_off_c, 1, 58, 64
2, 8048, Note_off_c, 1, 56, 64
2, 8048, Note_off_c, 1, 62, 64
2, 8080, Note_off_c, 1, 67, 64
2, 8132, Control_c, 1, 64, 0
2, 8140, Note_on_c, 1, 53, 43
2, 8144, Note_on_c, 1, 68, 61
2, 8156, Note_off_c, 1, 68, 64
2, 8352, Note_on_c, 1, 68, 61
2, 8352, Note_on_c, 1, 74, 69
2, 8352, Note_on_c, 1, 56, 54
2, 8352, Note_on_c, 1, 62, 54
2, 8360, Note_on_c, 1, 58, 38
2, 8368, Note_off_c, 1, 62, 64
2, 8368, Note_off_c, 1, 58, 64
2, 8372, Note_off_c, 1, 53, 64
2, 8372, Note_off_c, 1, 68, 64
2, 8376, Note_off_c, 1, 74, 64
2, 8376, Note_off_c, 1, 56, 64
2, 8560, Note_on_c, 1, 46, 63
2, 8564, Note_on_c, 1, 72, 69
2, 8568, Note_on_c, 1, 68, 59
2, 8580, Note_off_c, 1, 46, 64
2, 8584, Note_off_c, 1, 68, 64
2, 8588, Note_off_c, 1, 72, 64
2, 8772, Note_on_c, 1, 70, 70
2, 8776, Note_on_c, 1, 56, 41
2, 8784, Note_on_c, 1, 68, 57
2, 8784, Note_on_c, 1, 62, 46
2, 8804, Note_off_c, 1, 70, 64
2, 8804, Note_off_c, 1, 56, 64
2, 8804, Note_off_c, 1, 68, 64
2, 8820, Note_off_c, 1, 62, 64
2, 8968, Note_on_c, 1, 68, 60
2, 8976, Note_on_c, 1, 53, 43
2, 8996, Note_off_c, 1, 68, 64
2, 9072, Note_off_c, 1, 53, 64
2, 9080, Note_on_c, 1, 68, 61
2, 9080, Note_on_c, 1, 74, 73
2, 9172, Note_off_c, 1, 68, 64
2, 9172, Note_off_c, 1, 74, 64
2, 9176, Note_on_c, 1, 56, 52
2, 9176, Note_on_c, 1, 62, 62
2, 9184, Note_on_c, 1, 58, 39
2, 9184, Control_c, 1, 64, 127
2, 9188, Note_off_c, 1, 58, 64
2, 9192, Control_c, 1, 64, 0
2, 9196, Note_off_c, 1, 56, 64
2, 9196, Note_off_c, 1, 62, 64
2, 9280, Note_on_c, 1, 72, 64
2, 9280, Note_on_c, 1, 68, 58
2, 9368, Note_off_c, 1, 68, 64
2, 9368, Note_on_c, 1, 46, 64
2, 9380, Note_off_c, 1, 72, 64
2, 9380, Control_c, 1, 64, 127
2, 9464, Note_off_c, 1, 46, 64
2, 9488, Note_on_c, 1, 70, 79
2, 9596, Note_on_c, 1, 62, 67
2, 9604, Note_off_c, 1, 70, 64
2, 9604, Note_on_c, 1, 56, 52
2, 9604, Note_on_c, 1, 74, 82
2, 9604, Note_on_c, 1, 58, 44
2, 9688, Note_off_c, 1, 74, 64
2, 9700, Note_on_c, 1, 77, 88
2, 9728, Note_off_c, 1, 77, 64
2, 9796, Note_off_c, 1, 56, 64
2, 9796, Note_off_c, 1, 58, 64
2, 9800, Note_off_c, 1, 62, 64
2, 9804, Note_on_c, 1, 53, 71
2, 9808, Note_on_c, 1, 80, 70
2, 9808, Control_c, 1, 64, 0
2, 9812, Note_on_c, 1, 68, 77
2, 9812, Note_on_c, 1, 74, 83
2, 9880, Control_c, 1, 64, 127
2, 9896, Note_off_c, 1, 68, 64
2, 9904, Note_off_c, 1, 80, 64
2, 9904, Note_off_c, 1, 74, 64
2, 10004, Control_c, 1, 64, 0
2, 10012, Note_on_c, 1, 80, 69
2, 10012, Note_on_c, 1, 68, 85
2, 10012, Note_on_c, 1, 74, 90
2, 10012, Note_on_c, 1, 62, 57
2, 10012, Note_on_c, 1, 58, 48
2, 10036, Control_c, 1, 64, 127
2, 10068, Note_off_c, 1, 53, 64
2, 10068, Note_off_c, 1, 58, 64
2, 10072, Note_off_c, 1, 62, 64
2, 10224, Note_on_c, 1, 54, 85
2, 10224, Control_c, 1, 64, 0
2, 10276, Control_c, 1, 64, 127
2, 10304, Note_off_c, 1, 68, 64
2, 10304, Note_off_c, 1, 74, 64
2, 10312, Note_off_c, 1, 80, 64
2, 10428, Control_c, 1, 64, 0
2, 10436, Note_on_c, 1, 81, 93
2, 10436, Note_on_c, 1, 75, 70
2, 10436, Note_on_c, 1, 69, 78
2, 10436, Note_on_c, 1, 60, 77
2, 10444, Note_on_c, 1, 63, 65
2, 10452, Control_c, 1, 64, 127
2, 10516, Note_off_c, 1, 54, 64
2, 10520, Note_off_c, 1, 81, 64
2, 10520, Note_off_c, 1, 69, 64
2, 10528, Note_off_c, 1, 75, 64
2, 10648, Note_off_c, 1, 63, 64
2, 10652, Note_off_c, 1, 60, 64
2, 10660, Note_on_c, 1, 55, 85
2, 10660, Note_on_c, 1, 82, 85
2, 10660, Note_on_c, 1, 75, 80
2, 10660, Note_on_c, 1, 70, 78
2, 10672, Control_c, 1, 64, 0
2, 10724, Control_c, 1, 64, 127
2, 10756, Note_off_c, 1, 70, 64
2, 10756, Note_off_c, 1, 75, 64
2, 10856, Note_on_c, 1, 75, 75
2, 10860, Note_on_c, 1, 63, 53
2, 10864, Note_on_c, 1, 58, 52
2, 10868, Control_c, 1, 64, 0
2, 10884, Control_c, 1, 64, 127
2, 10932, Note_off_c, 1, 75, 64
2, 10948, Note_off_c, 1, 58, 64
2, 10952, Note_off_c, 1, 63, 64
2, 10952, Note_on_c, 1, 77, 69
2, 11044, Note_off_c, 1, 77, 64
2, 11060, Note_on_c, 1, 79, 73
2, 11064, Note_off_c, 1, 82, 64
2, 11064, Note_on_c, 1, 63, 50
2, 11064, Note_on_c, 1, 58, 39
2, 11072, Note_off_c, 1, 79, 64
2, 11156, Note_off_c, 1, 63, 64
2, 11156, Note_on_c, 1, 67, 73
2, 11164, Note_off_c, 1, 58, 64
2, 11168, Note_off_c, 1, 55, 64
2, 11268, Note_on_c, 1, 68, 75
2, 11280, Note_off_c, 1, 67, 64
2, 11332, Control_c, 1, 64, 0
2, 11364, Note_off_c, 1, 68, 64
2, 11364, Note_on_c, 1, 69, 73
2, 11464, Note_on_c, 1, 70, 69
2, 11468, Note_on_c, 1, 51, 73
2, 11484, Note_off_c, 1, 69, 64
2, 11488, Note_off_c, 1, 70, 64
2, 11520, Note_off_c, 1, 51, 64
2, 11676, Note_on_c, 1, 75, 66
2, 11676, Note_on_c, 1, 63, 60
2, 11680, Note_on_c, 1, 55, 69
2, 11688, Note_on_c, 1, 58, 60
2, 11688, Note_on_c, 1, 67, 66
2, 11700, Note_off_c, 1, 63, 64
2, 11700, Note_off_c, 1, 55, 64
2, 11700, Note_off_c, 1, 58, 64
2, 11704, Note_off_c, 1, 67, 64
2, 11708, Note_off_c, 1, 75, 64
2, 11892, Note_on_c, 1, 46, 73
2, 11892, Note_on_c, 1, 74, 80
2, 11896, Note_on_c, 1, 67, 65
2, 11916, Note_off_c, 1, 46, 64
2, 11960, Note_off_c, 1, 74, 64
2, 11960, Note_off_c, 1, 67, 64
2, 12100, Note_on_c, 1, 67, 67
2, 12100, Note_on_c, 1, 72, 73
2, 12100, Note_on_c, 1, 55, 68
2, 12104, Note_on_c, 1, 63, 55
2, 12128, Note_off_c, 1, 55, 64
2, 12128, Note_off_c, 1, 63, 64
2, 12132, Note_off_c, 1, 67, 64
2, 12148, Note_off_c, 1, 72, 64
2, 12304, Note_on_c, 1, 51, 65
2, 12304, Note_on_c, 1, 70, 63
2, 12312, Note_on_c, 1, 67, 65
2, 12332, Note_off_c, 1, 70, 64
2, 12336, Note_off_c, 1, 67, 64
2, 12408, Note_off_c, 1, 51, 64
2, 12408, Note_on_c, 1, 75, 73
2, 12420, Note_on_c, 1, 67, 69
2, 12516, Note_off_c, 1, 75, 64
2, 12516, Note_on_c, 1, 55, 73
2, 12520, Note_on_c, 1, 63, 55
2, 12524, Note_off_c, 1, 67, 64
2, 12544, Note_off_c, 1, 55, 64
2, 12544, Note_off_c, 1, 63, 64
2, 12628, Note_on_c, 1, 74, 77
2, 12628, Note_on_c, 1, 67, 68
2, 12728, Note_on_c, 1, 46, 70
2, 12732, Control_c, 1, 64, 127
2, 12740, Note_off_c, 1, 46, 64
2, 12820, Note_off_c, 1, 74, 64
2, 12828, Note_on_c, 1, 72, 78
2, 12932, Note_on_c, 1, 58, 60
2, 12936, Note_on_c, 1, 63, 54
2, 12936, Note_on_c, 1, 70, 81
2, 12952, Note_off_c, 1, 67, 64
2, 12952, Note_off_c, 1, 72, 64
2, 12952, Note_off_c, 1, 58, 64
2, 12956, Note_off_c, 1, 63, 64
2, 13040, Note_off_c, 1, 70, 64
2, 13040, Note_on_c, 1, 67, 84
2, 13116, Note_off_c, 1, 67, 64
2, 13132, Control_c, 1, 64, 0
2, 13136, Note_on_c, 1, 47, 78
2, 13156, Note_on_c, 1, 67, 83
2, 13156, Note_on_c, 1, 79, 88
2, 13156, Control_c, 1, 64, 127
2, 13164, Note_off_c, 1, 47, 64
2, 13244, Note_off_c, 1, 79, 64
2, 13256, Note_off_c, 1, 67, 64
2, 13348, Note_on_c, 1, 55, 82
2, 13348, Note_on_c, 1, 62, 72
2, 13348, Note_on_c, 1, 79, 88
2, 13348, Note_on_c, 1, 71, 77
2, 13356, Note_on_c, 1, 65, 59
2, 13356, Note_on_c, 1, 67, 77
2, 13368, Note_off_c, 1, 55, 64
2, 13368, Note_off_c, 1, 62, 64
2, 13368, Note_off_c, 1, 65, 64
2, 13460, Control_c, 1, 64, 0
2, 13556, Note_on_c, 1, 43, 93
2, 13560, Control_c, 1, 64, 127
2, 13576, Note_off_c, 1, 43, 64
2, 13656, Note_off_c, 1, 79, 64
2, 13668, Note_off_c, 1, 71, 64
2, 13676, Note_off_c, 1, 67, 64
2, 13772, Note_on_c, 1, 62, 66
2, 13772, Note_on_c, 1, 65, 68
2, 13772, Note_on_c, 1, 55, 80
2, 13772, Note_on_c, 1, 77, 85
2, 13780, Note_on_c, 1, 71, 77
2, 13784, Note_on_c, 1, 67, 78
2, 13796, Note_off_c, 1, 62, 64
2, 13796, Note_off_c, 1, 65, 64
2, 13800, Note_off_c, 1, 55, 64
2, 13852, Note_off_c, 1, 71, 64
2, 13868, Note_off_c, 1, 77, 64
2, 13872, Note_off_c, 1, 67, 64
2, 13972, Control_c, 1, 64, 0
2, 13988, Note_on_c, 1, 48, 88
2, 13992, Note_on_c, 1, 75, 73
2, 13996, Note_on_c, 1, 67, 77
2, 13996, Note_on_c, 1, 72, 77
2, 14004, Control_c, 1, 64, 127
2, 14012, Note_off_c, 1, 48, 64
2, 14056, Note_off_c, 1, 67, 64
2, 14060, Note_off_c, 1, 72, 64
2, 14068, Note_off_c, 1, 75, 64
2, 14196, Note_on_c, 1, 63, 64
2, 14196, Note_on_c, 1, 55, 75
2, 14196, Note_on_c, 1, 84, 85
2, 14196, Note_on_c, 1, 60, 66
2, 14236, Note_off_c, 1, 84, 64
2, 14296, Note_off_c, 1, 55, 64
2, 14300, Note_on_c, 1, 86, 90
2, 14304, Note_off_c, 1, 63, 64
2, 14304, Note_off_c, 1, 60, 64
2, 14396, Note_off_c, 1, 86, 64
2, 14400, Note_on_c, 1, 63, 66
2, 14404, Note_on_c, 1, 87, 75
2, 14404, Note_on_c, 1, 55, 85
2, 14404, Note_on_c, 1, 60, 67
2, 14424, Note_off_c, 1, 63, 64
2, 14424, Note_off_c, 1, 87, 64
2, 14424, Note_off_c, 1, 55, 64
2, 14424, Note_off_c, 1, 60, 64
2, 14612, Control_c, 1, 64, 0
2, 14616, Note_on_c, 1, 72, 71
2, 14664, Control_c, 1, 64, 127
2, 14728, Note_off_c, 1, 72, 64
2, 14828, Note_on_c, 1, 77, 83
2, 14828, Note_on_c, 1, 44, 65
2, 14836, Note_on_c, 1, 56, 64
2, 14836, Note_on_c, 1, 72, 77
2, 14836, Note_on_c, 1, 75, 66
2, 14836, Control_c, 1, 64, 0
2, 14904, Note_off_c, 1, 77, 64
2, 14904, Note_off_c, 1, 72, 64
2, 14904, Note_off_c, 1, 75, 64
2, 15040, Note_on_c, 1, 77, 83
2, 15048, Note_on_c, 1, 75, 66
2, 15048, Note_on_c, 1, 72, 77
2, 15060, Control_c, 1, 64, 127
2, 15096, Note_off_c, 1, 75, 64
2, 15100, Note_off_c, 1, 44, 64
2, 15100, Note_off_c, 1, 72, 64
2, 15108, Note_off_c, 1, 56, 64
2, 15108, Note_off_c, 1, 77, 64
2, 15240, Note_on_c, 1, 78, 80
2, 15248, Note_on_c, 1, 75, 75
2, 15248, Note_on_c, 1, 72, 80
2, 15248, Note_on_c, 1, 45, 70
2, 15248, Note_on_c, 1, 57, 65
2, 15248, Control_c, 1, 64, 0
2, 15300, Note_off_c, 1, 75, 64
2, 15304, Note_off_c, 1, 78, 64
2, 15304, Note_off_c, 1, 72, 64
2, 15448, Control_c, 1, 64, 127
2, 15452, Note_on_c, 1, 78, 77
2, 15456, Note_on_c, 1, 75, 68
2, 15456, Note_on_c, 1, 72, 77
2, 15472, Note_off_c, 1, 45, 64
2, 15472, Note_off_c, 1, 57, 64
2, 15484, Note_off_c, 1, 75, 64
2, 15488, Note_off_c, 1, 78, 64
2, 15488, Note_off_c, 1, 72, 64
2, 15648, Note_on_c, 1, 46, 77
2, 15656, Note_on_c, 1, 75, 75
2, 15656, Note_on_c, 1, 58, 63
2, 15656, Note_on_c, 1, 70, 65
2, 15656, Note_on_c, 1, 79, 78
2, 15660, Control_c, 1, 64, 0
2, 15684, Note_off_c, 1, 46, 64
2, 15684, Note_off_c, 1, 75, 64
2, 15688, Note_off_c, 1, 70, 64
2, 15688, Note_off_c, 1, 79, 64
2, 15696, Note_off_c, 1, 58, 64
2, 15760, Note_on_c, 1, 79, 85
2, 15760, Note_on_c, 1, 75, 66
2, 15760, Note_on_c, 1, 70, 56
2, 15844, Note_off_c, 1, 75, 64
2, 15848, Note_off_c, 1, 70, 64
2, 15848, Note_on_c, 1, 55, 78
2, 15852, Note_off_c, 1, 79, 64
2, 15852, Note_on_c, 1, 58, 66
2, 15856, Note_on_c, 1, 63, 63
2, 15880, Note_off_c, 1, 55, 64
2, 15884, Note_off_c, 1, 58, 64
2, 15884, Note_off_c, 1, 63, 64
2, 15940, Control_c, 1, 64, 127
2, 15944, Note_on_c, 1, 82, 77
2, 15948, Note_on_c, 1, 79, 80
2, 15948, Note_on_c, 1, 75, 67
2, 15956, Note_on_c, 1, 70, 58
2, 15964, Note_off_c, 1, 79, 64
2, 15964, Note_off_c, 1, 75, 64
2, 15968, Note_off_c, 1, 70, 64
2, 15972, Note_off_c, 1, 82, 64
2, 15988, Control_c, 1, 64, 0
2, 16060, Note_on_c, 1, 48, 78
2, 16064, Note_on_c, 1, 80, 77
2, 16064, Note_on_c, 1, 72, 85
2, 16064, Note_on_c, 1, 70, 67
2, 16068, Note_on_c, 1, 76, 77
2, 16068, Control_c, 1, 64, 127
2, 16084, Note_off_c, 1, 48, 64
2, 16156, Note_off_c, 1, 80, 64
2, 16156, Note_off_c, 1, 72, 64
2, 16156, Note_off_c, 1, 70, 64
2, 16160, Note_off_c, 1, 76, 64
2, 16276, Note_on_c, 1, 58, 64
2, 16276, Note_on_c, 1, 72, 85
2, 16280, Note_on_c, 1, 76, 73
2, 16280, Note_on_c, 1, 79, 83
2, 16280, Note_on_c, 1, 60, 69
2, 16280, Note_on_c, 1, 70, 69
2, 16280, Note_on_c, 1, 64, 68
2, 16280, Control_c, 1, 64, 0
2, 16308, Control_c, 1, 64, 127
2, 16312, Note_off_c, 1, 58, 64
2, 16324, Note_off_c, 1, 60, 64
2, 16324, Note_off_c, 1, 64, 64
2, 16360, Note_off_c, 1, 70, 64
2, 16372, Note_off_c, 1, 79, 64
2, 16376, Note_off_c, 1, 72, 64
2, 16392, Note_off_c, 1, 76, 64
2, 16492, Note_on_c, 1, 60, 54
2, 16496, Note_on_c, 1, 53, 78
2, 16496, Note_on_c, 1, 63, 45
2, 16500, Note_on_c, 1, 79, 83
2, 16500, Control_c, 1, 64, 0
2, 16508, Note_on_c, 1, 69, 71
2, 16520, Note_off_c, 1, 69, 64
2, 16524, Note_off_c, 1, 79, 64
2, 16604, Note_on_c, 1, 79, 73
2, 16604, Note_on_c, 1, 69, 77
2, 16624, Note_off_c, 1, 53, 64
2, 16652, Note_off_c, 1, 60, 64
2, 16652, Note_off_c, 1, 63, 64
2, 16700, Note_on_c, 1, 53, 85
2, 16704, Note_on_c, 1, 60, 75
2, 16712, Note_on_c, 1, 63, 63
2, 16720, Note_off_c, 1, 69, 64
2, 16724, Note_off_c, 1, 79, 64
2, 16792, Control_c, 1, 64, 127
2, 16812, Note_on_c, 1, 75, 66
2, 16812, Note_on_c, 1, 69, 77
2, 16828, Note_off_c, 1, 63, 64
2, 16828, Note_off_c, 1, 75, 64
2, 16836, Note_off_c, 1, 69, 64
2, 16844, Note_off_c, 1, 53, 64
2, 16852, Note_off_c, 1, 60, 64
2, 16908, Note_on_c, 1, 58, 70
2, 16912, Note_on_c, 1, 62, 75
2, 16912, Note_on_c, 1, 77, 83
2, 16912, Note_on_c, 1, 68, 69
2, 16916, Control_c, 1, 64, 0
2, 17012, Note_on_c, 1, 75, 79
2, 17020, Note_off_c, 1, 77, 64
2, 17060, Note_off_c, 1, 68, 64
2, 17060, Note_off_c, 1, 75, 64
2, 17076, Note_off_c, 1, 58, 64
2, 17088, Note_off_c, 1, 62, 64
2, 17120, Note_on_c, 1, 77, 75
2, 17120, Note_on_c, 1, 62, 69
2, 17120, Note_on_c, 1, 58, 69
2, 17124, Note_on_c, 1, 68, 66
2, 17136, Control_c, 1, 64, 127
2, 17172, Note_off_c, 1, 62, 64
2, 17180, Note_off_c, 1, 58, 64
2, 17200, Note_off_c, 1, 68, 64
2, 17212, Note_off_c, 1, 77, 64
2, 17308, Note_on_c, 1, 51, 64
2, 17312, Control_c, 1, 64, 0
2, 17324, Note_on_c, 1, 63, 57
2, 17324, Note_on_c, 1, 67, 71
2, 17324, Note_on_c, 1, 75, 68
2, 17340, Control_c, 1, 64, 127
2, 17364, Note_off_c, 1, 67, 64
2, 17364, Note_off_c, 1, 75, 64
2, 17388, Note_off_c, 1, 63, 64
2, 17396, Note_off_c, 1, 51, 64
2, 17524, Note_on_c, 1, 58, 54
2, 17528, Note_on_c, 1, 63, 53
2, 17528, Note_on_c, 1, 55, 62
2, 17572, Note_off_c, 1, 58, 64
2, 17580, Note_off_c, 1, 55, 64
2, 17584, Note_off_c, 1, 63, 64
2, 17756, Note_on_c, 1, 58, 50
2, 17756, Note_on_c, 1, 55, 66
2, 17760, Note_on_c, 1, 63, 46
2, 17804, Note_off_c, 1, 58, 64
2, 17804, Note_off_c, 1, 63, 64
2, 17808, Note_off_c, 1, 55, 64
2, 17848, Note_on_c, 1, 67, 69
2, 17968, Note_off_c, 1, 67, 64
2, 17968, Note_on_c, 1, 68, 68
2, 18060, Note_off_c, 1, 68, 64
2, 18064, Note_on_c, 1, 69, 70
2, 18096, Control_c, 1, 64, 0
2, 18172, Note_on_c, 1, 70, 66
2, 18172, Note_on_c, 1, 51, 33
2, 18188, Note_off_c, 1, 69, 64
2, 18212, Note_off_c, 1, 70, 64
2, 18232, Note_off_c, 1, 51, 64
2, 18364, Note_on_c, 1, 75, 58
2, 18364, Note_on_c, 1, 67, 65
2, 18372, Note_on_c, 1, 55, 35
2, 18372, Note_on_c, 1, 58, 34
2, 18380, Note_on_c, 1, 63, 39
2, 18384, Note_off_c, 1, 67, 64
2, 18392, Note_off_c, 1, 75, 64
2, 18392, Note_off_c, 1, 55, 64
2, 18392, Note_off_c, 1, 58, 64
2, 18392, Note_off_c, 1, 63, 64
2, 18572, Note_on_c, 1, 46, 65
2, 18576, Note_on_c, 1, 67, 61
2, 18580, Note_on_c, 1, 74, 45
2, 18588, Note_off_c, 1, 46, 64
2, 18612, Note_off_c, 1, 67, 64
2, 18612, Note_off_c, 1, 74, 64
2, 18784, Note_on_c, 1, 55, 62
2, 18788, Note_on_c, 1, 67, 63
2, 18788, Note_on_c, 1, 72, 63
2, 18788, Note_on_c, 1, 63, 46
2, 18788, Note_on_c, 1, 58, 47
2, 18808, Note_off_c, 1, 67, 64
2, 18812, Note_off_c, 1, 72, 64
2, 18812, Note_off_c, 1, 58, 64
2, 18816, Note_off_c, 1, 63, 64
2, 18820, Note_off_c, 1, 55, 64
2, 18996, Note_on_c, 1, 70, 67
2, 18996, Note_on_c, 1, 51, 47
2, 19000, Note_on_c, 1, 67, 64
2, 19016, Note_off_c, 1, 70, 64
2, 19020, Note_off_c, 1, 51, 64
2, 19020, Note_off_c, 1, 67, 64
2, 19096, Note_on_c, 1, 75, 68
2, 19096, Note_on_c, 1, 67, 68
2, 19132, Note_off_c, 1, 75, 64
2, 19144, Note_off_c, 1, 67, 64
2, 19200, Note_on_c, 1, 58, 60
2, 19200, Note_on_c, 1, 55, 69
2, 19204, Note_on_c, 1, 63, 56
2, 19216, Note_off_c, 1, 58, 64
2, 19216, Note_off_c, 1, 55, 64
2, 19216, Note_off_c, 1, 63, 64
2, 19308, Note_on_c, 1, 74, 78
2, 19308, Note_on_c, 1, 67, 70
2, 19396, Note_on_c, 1, 46, 65
2, 19408, Control_c, 1, 64, 127
2, 19424, Note_off_c, 1, 46, 64
2, 19516, Note_on_c, 1, 72, 71
2, 19528, Note_off_c, 1, 74, 64
2, 19612, Control_c, 1, 64, 0
2, 19620, Note_on_c, 1, 70, 71
2, 19624, Note_off_c, 1, 72, 64
2, 19624, Note_on_c, 1, 63, 49
2, 19624, Note_on_c, 1, 55, 52
2, 19624, Note_on_c, 1, 58, 41
2, 19640, Note_off_c, 1, 67, 64
2, 19716, Control_c, 1, 64, 127
2, 19720, Note_off_c, 1, 70, 64
2, 19720, Note_on_c, 1, 67, 71
2, 19752, Note_off_c, 1, 67, 64
2, 19820, Note_off_c, 1, 58, 64
2, 19824, Note_off_c, 1, 55, 64
2, 19824, Note_on_c, 1, 70, 67
2, 19824, Note_on_c, 1, 51, 51
2, 19828, Note_off_c, 1, 63, 64
2, 19828, Note_on_c, 1, 67, 42
2, 19840, Control_c, 1, 64, 0
2, 19848, Note_off_c, 1, 70, 64
2, 19848, Note_off_c, 1, 51, 64
2, 19860, Note_off_c, 1, 67, 64
2, 20036, Note_on_c, 1, 75, 70
2, 20044, Note_on_c, 1, 55, 66
2, 20044, Note_on_c, 1, 63, 53
2, 20044, Note_on_c, 1, 67, 71
2, 20060, Note_off_c, 1, 55, 64
2, 20060, Note_off_c, 1, 63, 64
2, 20060, Note_off_c, 1, 67, 64
2, 20064, Note_off_c, 1, 75, 64
2, 20240, Note_on_c, 1, 46, 58
2, 20248, Note_on_c, 1, 74, 78
2, 20248, Note_on_c, 1, 67, 67
2, 20260, Note_off_c, 1, 46, 64
2, 20272, Note_off_c, 1, 74, 64
2, 20276, Note_off_c, 1, 67, 64
2, 20456, Note_on_c, 1, 72, 71
2, 20456, Note_on_c, 1, 55, 53
2, 20456, Note_on_c, 1, 67, 68
2, 20460, Note_on_c, 1, 58, 46
2, 20460, Note_on_c, 1, 63, 39
2, 20468, Control_c, 1, 64, 127
2, 20488, Note_off_c, 1, 55, 64
2, 20508, Note_off_c, 1, 63, 64
2, 20512, Note_off_c, 1, 58, 64
2, 20668, Control_c, 1, 64, 0
2, 20672, Note_off_c, 1, 67, 64
2, 20672, Note_on_c, 1, 70, 66
2, 20672, Note_on_c, 1, 68, 56
2, 20680, Note_on_c, 1, 53, 37
2, 20684, Note_off_c, 1, 72, 64
2, 20692, Note_off_c, 1, 68, 64
2, 20696, Note_off_c, 1, 70, 64
2, 20772, Note_on_c, 1, 74, 68
2, 20776, Note_on_c, 1, 68, 66
2, 20796, Note_off_c, 1, 53, 64
2, 20856, Note_off_c, 1, 74, 64
2, 20856, Note_off_c, 1, 68, 64
2, 20876, Note_on_c, 1, 56, 54
2, 20876, Note_on_c, 1, 58, 53
2, 20876, Note_on_c, 1, 62, 66
2, 20884, Note_off_c, 1, 58, 64
2, 20896, Note_off_c, 1, 56, 64
2, 20896, Note_off_c, 1, 62, 64
2, 20988, Note_on_c, 1, 72, 67
2, 20992, Note_on_c, 1, 68, 61
2, 21076, Note_on_c, 1, 46, 64
2, 21084, Control_c, 1, 64, 127
2, 21092, Note_off_c, 1, 46, 64
2, 21176, Note_off_c, 1, 68, 64
2, 21176, Note_on_c, 1, 70, 68
2, 21192, Note_off_c, 1, 72, 64
2, 21280, Note_on_c, 1, 65, 71
2, 21280, Note_on_c, 1, 56, 38
2, 21280, Control_c, 1, 64, 0
2, 21288, Note_on_c, 1, 58, 40
2, 21288, Note_on_c, 1, 62, 54
2, 21384, Note_on_c, 1, 67, 78
2, 21412, Note_off_c, 1, 65, 64
2, 21476, Note_off_c, 1, 70, 64
2, 21492, Note_on_c, 1, 53, 43
2, 21492, Note_on_c, 1, 68, 66
2, 21500, Note_off_c, 1, 56, 64
2, 21500, Note_off_c, 1, 62, 64
2, 21504, Note_off_c, 1, 58, 64
2, 21516, Note_off_c, 1, 67, 64
2, 21516, Note_off_c, 1, 68, 64
2, 21700, Note_on_c, 1, 56, 44
2, 21700, Note_on_c, 1, 74, 77
2, 21700, Note_on_c, 1, 58, 43
2, 21708, Note_on_c, 1, 62, 61
2, 21708, Note_on_c, 1, 68, 58
2, 21716, Note_off_c, 1, 56, 64
2, 21716, Note_off_c, 1, 58, 64
2, 21716, Note_off_c, 1, 62, 64
2, 21724, Note_off_c, 1, 74, 64
2, 21728, Note_off_c, 1, 53, 64
2, 21732, Note_off_c, 1, 68, 64
2, 21916, Note_on_c, 1, 46, 64
2, 21916, Note_on_c, 1, 72, 69
2, 21916, Note_on_c, 1, 68, 62
2, 21936, Note_off_c, 1, 46, 64
2, 21940, Note_off_c, 1, 68, 64
2, 21944, Note_off_c, 1, 72, 64
2, 22132, Note_on_c, 1, 56, 48
2, 22132, Note_on_c, 1, 70, 66
2, 22132, Note_on_c, 1, 68, 65
2, 22132, Note_on_c, 1, 58, 45
2, 22136, Note_on_c, 1, 62, 49
2, 22152, Note_off_c, 1, 70, 64
2, 22152, Note_off_c, 1, 68, 64
2, 22168, Note_off_c, 1, 56, 64
2, 22168, Note_off_c, 1, 58, 64
2, 22172, Note_off_c, 1, 62, 64
2, 22332, Note_on_c, 1, 68, 64
2, 22344, Note_on_c, 1, 53, 37
2, 22364, Note_off_c, 1, 68, 64
2, 22448, Note_on_c, 1, 68, 55
2, 22448, Note_on_c, 1, 74, 70
2, 22476, Control_c, 1, 64, 127
2, 22536, Note_off_c, 1, 68, 64
2, 22540, Note_off_c, 1, 74, 64
2, 22540, Note_on_c, 1, 62, 60
2, 22540, Note_on_c, 1, 56, 41
2, 22540, Note_on_c, 1, 58, 39
2, 22552, Note_off_c, 1, 56, 64
2, 22552, Note_off_c, 1, 58, 64
2, 22560, Note_off_c, 1, 62, 64
2, 22568, Note_off_c, 1, 53, 64
2, 22636, Note_on_c, 1, 68, 64
2, 22644, Note_on_c, 1, 72, 67
2, 22660, Note_off_c, 1, 68, 64
2, 22668, Note_off_c, 1, 72, 64
2, 22744, Note_on_c, 1, 46, 65
2, 22760, Note_off_c, 1, 46, 64
2, 22848, Note_on_c, 1, 70, 80
2, 22936, Note_off_c, 1, 70, 64
2, 22960, Note_on_c, 1, 56, 40
2, 22960, Note_on_c, 1, 74, 84
2, 22960, Note_on_c, 1, 62, 44
2, 22964, Note_on_c, 1, 58, 39
2, 22992, Note_off_c, 1, 74, 64
2, 23056, Note_on_c, 1, 77, 92
2, 23068, Note_off_c, 1, 56, 64
2, 23068, Note_off_c, 1, 58, 64
2, 23068, Note_off_c, 1, 62, 64
2, 23080, Note_off_c, 1, 77, 64
2, 23164, Note_on_c, 1, 53, 64
2, 23172, Control_c, 1, 64, 0
2, 23176, Note_on_c, 1, 80, 67
2, 23180, Note_on_c, 1, 68, 63
2, 23180, Note_on_c, 1, 74, 77
2, 23204, Control_c, 1, 64, 127
2, 23236, Note_off_c, 1, 74, 64
2, 23240, Note_off_c, 1, 80, 64
2, 23240, Note_off_c, 1, 68, 64
2, 23364, Note_on_c, 1, 62, 60
2, 23372, Note_on_c, 1, 58, 57
2, 23372, Control_c, 1, 64, 0
2, 23388, Note_on_c, 1, 80, 80
2, 23388, Note_on_c, 1, 74, 90
2, 23392, Note_on_c, 1, 68, 78
2, 23424, Control_c, 1, 64, 127
2, 23436, Note_off_c, 1, 53, 64
2, 23448, Note_off_c, 1, 58, 64
2, 23464, Note_off_c, 1, 62, 64
2, 23592, Note_on_c, 1, 54, 85
2, 23600, Control_c, 1, 64, 0
2, 23648, Control_c, 1, 64, 127
2, 23664, Note_off_c, 1, 74, 64
2, 23672, Note_off_c, 1, 68, 64
2, 23680, Note_off_c, 1, 80, 64
2, 23800, Note_on_c, 1, 63, 65
2, 23804, Note_on_c, 1, 60, 67
2, 23804, Note_on_c, 1, 75, 75
2, 23808, Note_on_c, 1, 81, 85
2, 23808, Note_on_c, 1, 69, 88
2, 23808, Control_c, 1, 64, 0
2, 23828, Control_c, 1, 64, 127
2, 23876, Note_off_c, 1, 69, 64
2, 23880, Note_off_c, 1, 54, 64
2, 23880, Note_off_c, 1, 75, 64
2, 23880, Note_off_c, 1, 81, 64
2, 23908, Note_off_c, 1, 60, 64
2, 23916, Note_off_c, 1, 63, 64
2, 24024, Note_on_c, 1, 55, 80
2, 24024, Note_on_c, 1, 82, 91
2, 24024, Note_on_c, 1, 75, 89
2, 24024, Note_on_c, 1, 70, 87
2, 24032, Control_c, 1, 64, 0
2, 24064, Control_c, 1, 64, 127
2, 24104, Note_off_c, 1, 70, 64
2, 24120, Note_off_c, 1, 75, 64
2, 24224, Note_on_c, 1, 75, 85
2, 24228, Note_on_c, 1, 63, 55
2, 24228, Note_on_c, 1, 58, 55
2, 24256, Note_off_c, 1, 75, 64
2, 24316, Note_off_c, 1, 63, 64
2, 24316, Note_off_c, 1, 58, 64
2, 24320, Note_on_c, 1, 77, 90
2, 24416, Note_off_c, 1, 77, 64
2, 24420, Note_on_c, 1, 79, 78
2, 24420, Note_on_c, 1, 63, 55
2, 24424, Note_off_c, 1, 82, 64
2, 24424, Note_on_c, 1, 58, 50
2, 24436, Note_off_c, 1, 79, 64
2, 24524, Note_off_c, 1, 63, 64
2, 24524, Note_off_c, 1, 58, 64
2, 24524, Note_on_c, 1, 67, 78
2, 24528, Note_off_c, 1, 55, 64
2, 24584, Control_c, 1, 64, 0
2, 24632, Note_on_c, 1, 68, 75
2, 24648, Note_off_c, 1, 67, 64
2, 24732, Note_on_c, 1, 69, 77
2, 24740, Note_off_c, 1, 68, 64
2, 24832, Note_on_c, 1, 51, 80
2, 24840, Note_on_c, 1, 70, 70
2, 24848, Note_off_c, 1, 69, 64
2, 24848, Note_off_c, 1, 51, 64
2, 24860, Note_off_c, 1, 70, 64
2, 25048, Note_on_c, 1, 75, 68
2, 25048, Note_on_c, 1, 67, 65
2, 25052, Note_on_c, 1, 63, 61
2, 25052, Note_on_c, 1, 55, 71
2, 25068, Note_off_c, 1, 75, 64
2, 25068, Note_off_c, 1, 63, 64
2, 25068, Note_off_c, 1, 55, 64
2, 25080, Note_off_c, 1, 67, 64
2, 25260, Note_on_c, 1, 46, 80
2, 25264, Note_on_c, 1, 74, 83
2, 25268, Note_on_c, 1, 67, 66
2, 25284, Note_off_c, 1, 46, 64
2, 25288, Note_off_c, 1, 74, 64
2, 25288, Note_off_c, 1, 67, 64
2, 25472, Note_on_c, 1, 55, 71
2, 25476, Note_on_c, 1, 67, 62
2, 25480, Note_on_c, 1, 72, 64
2, 25480, Note_on_c, 1, 63, 39
2, 25496, Note_off_c, 1, 55, 64
2, 25496, Note_off_c, 1, 72, 64
2, 25496, Note_off_c, 1, 63, 64
2, 25504, Note_off_c, 1, 67, 64
2, 25672, Note_on_c, 1, 51, 78
2, 25676, Note_on_c, 1, 70, 60
2, 25684, Note_on_c, 1, 67, 59
2, 25696, Note_off_c, 1, 70, 64
2, 25696, Note_off_c, 1, 67, 64
2, 25716, Note_off_c, 1, 51, 64
2, 25776, Note_on_c, 1, 75, 67
2, 25780, Note_on_c, 1, 67, 64
2, 25812, Note_off_c, 1, 75, 64
2, 25816, Note_off_c, 1, 67, 64
2, 25876, Note_on_c, 1, 63, 60
2, 25880, Note_on_c, 1, 55, 71
2, 25880, Note_on_c, 1, 58, 65
2, 25892, Note_off_c, 1, 55, 64
2, 25892, Note_off_c, 1, 58, 64
2, 25896, Note_off_c, 1, 63, 64
2, 25984, Note_on_c, 1, 74, 71
2, 25988, Note_on_c, 1, 67, 55
2, 26076, Control_c, 1, 64, 127
2, 26080, Note_on_c, 1, 46, 78
2, 26100, Note_off_c, 1, 46, 64
2, 26172, Note_off_c, 1, 74, 64
2, 26196, Note_on_c, 1, 72, 78
2, 26288, Note_on_c, 1, 55, 77
2, 26288, Note_on_c, 1, 63, 57
2, 26304, Note_off_c, 1, 55, 64
2, 26304, Note_off_c, 1, 63, 64
2, 26304, Note_on_c, 1, 70, 80
2, 26316, Note_off_c, 1, 67, 64
2, 26316, Note_off_c, 1, 72, 64
2, 26392, Note_off_c, 1, 70, 64
2, 26396, Note_on_c, 1, 67, 80
2, 26464, Note_off_c, 1, 67, 64
2, 26480, Note_on_c, 1, 47, 93
2, 26488, Control_c, 1, 64, 0
2, 26508, Control_c, 1, 64, 127
2, 26512, Note_off_c, 1, 47, 64
2, 26516, Note_on_c, 1, 79, 90
2, 26516, Note_on_c, 1, 67, 88
2, 26620, Note_off_c, 1, 79, 64
2, 26628, Note_off_c, 1, 67, 64
2, 26708, Note_on_c, 1, 62, 77
2, 26708, Note_on_c, 1, 55, 83
2, 26712, Note_on_c, 1, 71, 84
2, 26712, Note_on_c, 1, 79, 91
2, 26716, Note_on_c, 1, 67, 89
2, 26716, Note_on_c, 1, 65, 69
2, 26724, Note_off_c, 1, 62, 64
2, 26724, Note_off_c, 1, 55, 64
2, 26724, Note_off_c, 1, 65, 64
2, 26844, Control_c, 1, 64, 0
2, 26920, Note_on_c, 1, 43, 99
2, 26920, Control_c, 1, 64, 127
2, 26932, Note_off_c, 1, 43, 64
2, 26964, Note_off_c, 1, 71, 64
2, 26968, Note_off_c, 1, 79, 64
2, 26968, Note_off_c, 1, 67, 64
2, 27124, Note_on_c, 1, 62, 70
2, 27132, Note_on_c, 1, 65, 71
2, 27136, Note_on_c, 1, 77, 87
2, 27140, Note_on_c, 1, 71, 85
2, 27140, Note_on_c, 1, 67, 90
2, 27144, Note_off_c, 1, 62, 64
2, 27144, Note_off_c, 1, 65, 64
2, 27196, Note_off_c, 1, 71, 64
2, 27220, Note_off_c, 1, 77, 64
2, 27220, Note_off_c, 1, 67, 64
2, 27316, Control_c, 1, 64, 0
2, 27348, Note_on_c, 1, 48, 72
2, 27348, Note_on_c, 1, 72, 94
2, 27348, Note_on_c, 1, 67, 88
2, 27352, Note_on_c, 1, 75, 88
2, 27356, Control_c, 1, 64, 127
2, 27368, Note_off_c, 1, 48, 64
2, 27416, Note_off_c, 1, 67, 64
2, 27420, Note_off_c, 1, 72, 64
2, 27432, Note_off_c, 1, 75, 64
2, 27560, Note_on_c, 1, 55, 66
2, 27560, Note_on_c, 1, 60, 77
2, 27564, Note_on_c, 1, 63, 58
2, 27564, Note_on_c, 1, 84, 88
2, 27608, Note_off_c, 1, 60, 64
2, 27620, Note_off_c, 1, 55, 64
2, 27620, Note_off_c, 1, 63, 64
2, 27644, Note_off_c, 1, 84, 64
2, 27664, Note_on_c, 1, 86, 85
2, 27768, Note_off_c, 1, 86, 64
2, 27768, Note_on_c, 1, 87, 75
2, 27768, Note_on_c, 1, 55, 83
2, 27768, Note_on_c, 1, 63, 66
2, 27772, Note_on_c, 1, 60, 75
2, 27776, Note_off_c, 1, 87, 64
2, 27780, Note_off_c, 1, 55, 64
2, 27784, Note_off_c, 1, 60, 64
2, 27792, Note_off_c, 1, 63, 64
2, 27948, Control_c, 1, 64, 0
2, 27976, Note_on_c, 1, 72, 75
2, 27980, Control_c, 1, 64, 127
2, 28072, Note_off_c, 1, 72, 64
2, 28196, Note_on_c, 1, 77, 71
2, 28196, Note_on_c, 1, 44, 55
2, 28200, Note_on_c, 1, 56, 51
2, 28200, Note_on_c, 1, 72, 66
2, 28200, Control_c, 1, 64, 0
2, 28220, Note_off_c, 1, 77, 64
2, 28220, Note_off_c, 1, 72, 64
2, 28412, Note_on_c, 1, 77, 71
2, 28412, Note_on_c, 1, 75, 61
2, 28416, Note_on_c, 1, 72, 61
2, 28416, Control_c, 1, 64, 127
2, 28436, Note_off_c, 1, 75, 64
2, 28440, Note_off_c, 1, 72, 64
2, 28456, Note_off_c, 1, 44, 64
2, 28456, Note_off_c, 1, 56, 64
2, 28456, Note_off_c, 1, 77, 64
2, 28612, Note_on_c, 1, 78, 66
2, 28612, Note_on_c, 1, 72, 63
2, 28612, Note_on_c, 1, 45, 61
2, 28612, Note_on_c, 1, 75, 63
2, 28616, Note_on_c, 1, 57, 49
2, 28620, Note_off_c, 1, 75, 64
2, 28620, Control_c, 1, 64, 0
2, 28624, Note_off_c, 1, 72, 64
2, 28628, Note_off_c, 1, 78, 64
2, 28812, Note_on_c, 1, 78, 57
2, 28820, Note_on_c, 1, 75, 64
2, 28820, Note_on_c, 1, 72, 64
2, 28824, Control_c, 1, 64, 127
2, 28836, Note_off_c, 1, 57, 64
2, 28840, Note_off_c, 1, 75, 64
2, 28840, Note_off_c, 1, 72, 64
2, 28852, Note_off_c, 1, 45, 64
2, 28856, Note_off_c, 1, 78, 64
2, 29012, Note_on_c, 1, 75, 71
2, 29012, Note_on_c, 1, 79, 77
2, 29016, Note_on_c, 1, 46, 59
2, 29016, Note_on_c, 1, 70, 61
2, 29016, Note_on_c, 1, 58, 54
2, 29024, Control_c, 1, 64, 0
2, 29036, Note_off_c, 1, 75, 64
2, 29040, Note_off_c, 1, 46, 64
2, 29044, Note_off_c, 1, 79, 64
2, 29044, Note_off_c, 1, 70, 64
2, 29048, Note_off_c, 1, 58, 64
2, 29112, Note_on_c, 1, 79, 67
2, 29112, Note_on_c, 1, 70, 41
2, 29116, Note_on_c, 1, 75, 49
2, 29200, Note_off_c, 1, 75, 64
2, 29208, Note_off_c, 1, 70, 64
2, 29208, Note_off_c, 1, 79, 64
2, 29212, Note_on_c, 1, 63, 55
2, 29220, Note_on_c, 1, 55, 66
2, 29220, Note_on_c, 1, 58, 51
2, 29232, Note_off_c, 1, 63, 64
2, 29232, Note_off_c, 1, 55, 64
2, 29236, Note_off_c, 1, 58, 64
2, 29308, Note_on_c, 1, 82, 67
2, 29308, Note_on_c, 1, 75, 66
2, 29316, Note_off_c, 1, 75, 64
2, 29324, Note_off_c, 1, 82, 64
2, 29416, Note_on_c, 1, 48, 54
2, 29428, Note_on_c, 1, 72, 77
2, 29428, Note_on_c, 1, 80, 57
2, 29428, Note_on_c, 1, 76, 64
2, 29428, Control_c, 1, 64, 127
2, 29440, Note_off_c, 1, 48, 64
2, 29440, Note_on_c, 1, 70, 40
2, 29444, Note_off_c, 1, 72, 64
2, 29492, Note_off_c, 1, 70, 64
2, 29500, Note_off_c, 1, 80, 64
2, 29500, Note_off_c, 1, 76, 64
2, 29632, Note_on_c, 1, 58, 51
2, 29640, Note_on_c, 1, 60, 51
2, 29640, Note_on_c, 1, 72, 70
2, 29640, Note_on_c, 1, 76, 62
2, 29640, Note_on_c, 1, 79, 69
2, 29644, Note_on_c, 1, 70, 54
2, 29644, Note_on_c, 1, 64, 43
2, 29648, Control_c, 1, 64, 0
2, 29660, Control_c, 1, 64, 127
2, 29672, Note_off_c, 1, 60, 64
2, 29676, Note_off_c, 1, 58, 64
2, 29676, Note_off_c, 1, 64, 64
2, 29696, Note_off_c, 1, 70, 64
2, 29744, Note_off_c, 1, 79, 64
2, 29756, Note_off_c, 1, 72, 64
2, 29756, Note_off_c, 1, 76, 64
2, 29860, Note_on_c, 1, 53, 66
2, 29860, Note_on_c, 1, 79, 62
2, 29864, Note_on_c, 1, 69, 41
2, 29864, Note_on_c, 1, 60, 39
2, 29868, Note_on_c, 1, 63, 33
2, 29868, Control_c, 1, 64, 0
2, 29900, Note_off_c, 1, 79, 64
2, 29900, Note_off_c, 1, 69, 64
2, 29960, Note_on_c, 1, 79, 67
2, 29964, Note_on_c, 1, 69, 63
2, 29984, Note_off_c, 1, 60, 64
2, 29984, Note_off_c, 1, 63, 64
2, 30064, Note_on_c, 1, 60, 39
2, 30068, Note_on_c, 1, 63, 43
2, 30068, Control_c, 1, 64, 127
2, 30076, Note_off_c, 1, 79, 64
2, 30076, Note_off_c, 1, 69, 64
2, 30140, Note_off_c, 1, 60, 64
2, 30152, Note_off_c, 1, 63, 64
2, 30152, Note_on_c, 1, 75, 62
2, 30156, Note_on_c, 1, 69, 60
2, 30172, Note_off_c, 1, 69, 64
2, 30184, Note_off_c, 1, 75, 64
2, 30260, Note_on_c, 1, 58, 44
2, 30260, Note_on_c, 1, 62, 40
2, 30264, Note_on_c, 1, 77, 69
2, 30268, Note_on_c, 1, 68, 53
2, 30272, Control_c, 1, 64, 0
2, 30296, Control_c, 1, 64, 127
2, 30340, Note_off_c, 1, 58, 64
2, 30344, Note_off_c, 1, 62, 64
2, 30368, Note_on_c, 1, 75, 54
2, 30376, Note_off_c, 1, 77, 64
2, 30388, Note_off_c, 1, 75, 64
2, 30400, Note_off_c, 1, 68, 64
2, 30468, Note_on_c, 1, 68, 56
2, 30468, Note_on_c, 1, 77, 67
2, 30468, Note_on_c, 1, 62, 41
2, 30472, Note_on_c, 1, 58, 39
2, 30476, Control_c, 1, 64, 0
2, 30496, Control_c, 1, 64, 127
2, 30504, Note_off_c, 1, 53, 64
2, 30504, Note_off_c, 1, 62, 64
2, 30504, Note_off_c, 1, 58, 64
2, 30532, Note_off_c, 1, 68, 64
2, 30592, Note_off_c, 1, 77, 64
2, 30680, Note_on_c, 1, 63, 39
2, 30680, Note_on_c, 1, 51, 53
2, 30680, Note_on_c, 1, 67, 49
2, 30680, Note_on_c, 1, 75, 43
2, 30704, Note_off_c, 1, 63, 64
2, 30712, Note_off_c, 1, 51, 64
2, 30804, Control_c, 1, 64, 0
2, 30888, Note_on_c, 1, 46, 52
2, 30896, Note_on_c, 1, 58, 43
2, 30920, Note_off_c, 1, 58, 64
2, 30932, Note_off_c, 1, 46, 64
2, 31100, Note_on_c, 1, 39, 57
2, 31104, Note_on_c, 1, 51, 52
2, 31124, Note_off_c, 1, 51, 64
2, 31132, Note_off_c, 1, 39, 64
2, 31188, Note_off_c, 1, 75, 64
2, 31192, Note_off_c, 1, 67, 64
2, 31296, Note_on_c, 1, 41, 112
2, 31296, Control_c, 1, 64, 127
2, 31316, Note_off_c, 1, 41, 64
2, 31372, Control_c, 1, 64, 0
2, 31512, Note_on_c, 1, 48, 108
2, 31512, Control_c, 1, 64, 127
2, 31528, Note_off_c, 1, 48, 64
2, 31724, Note_on_c, 1, 53, 78
2, 31728, Note_on_c, 1, 77, 83
2, 31728, Note_on_c, 1, 75, 66
2, 31728, Note_on_c, 1, 60, 66
2, 31728, Control_c, 1, 64, 0
2, 31732, Note_on_c, 1, 69, 66
2, 31732, Note_on_c, 1, 63, 56
2, 31736, Note_off_c, 1, 60, 64
2, 31740, Note_off_c, 1, 53, 64
2, 31740, Note_off_c, 1, 77, 64
2, 31740, Note_off_c, 1, 69, 64
2, 31740, Note_off_c, 1, 63, 64
2, 31744, Note_off_c, 1, 75, 64
2, 31920, Note_on_c, 1, 41, 80
2, 31924, Note_on_c, 1, 79, 78
2, 31928, Note_on_c, 1, 75, 60
2, 31928, Note_on_c, 1, 69, 66
2, 31932, Note_off_c, 1, 41, 64
2, 31948, Note_off_c, 1, 79, 64
2, 31948, Note_off_c, 1, 75, 64
2, 31948, Note_off_c, 1, 69, 64
2, 32132, Note_on_c, 1, 63, 65
2, 32132, Note_on_c, 1, 53, 83
2, 32132, Note_on_c, 1, 60, 67
2, 32136, Note_on_c, 1, 77, 80
2, 32136, Note_on_c, 1, 75, 68
2, 32140, Note_off_c, 1, 60, 64
2, 32140, Note_on_c, 1, 69, 75
2, 32148, Note_off_c, 1, 63, 64
2, 32152, Note_off_c, 1, 53, 64
2, 32156, Note_off_c, 1, 69, 64
2, 32160, Note_off_c, 1, 75, 64
2, 32168, Note_off_c, 1, 77, 64
2, 32352, Note_on_c, 1, 48, 93
2, 32380, Note_off_c, 1, 48, 64
2, 32572, Note_on_c, 1, 53, 83
2, 32572, Note_on_c, 1, 84, 85
2, 32572, Note_on_c, 1, 75, 71
2, 32572, Note_on_c, 1, 81, 90
2, 32580, Note_on_c, 1, 57, 78
2, 32580, Note_on_c, 1, 63, 60
2, 32588, Note_off_c, 1, 53, 64
2, 32588, Note_off_c, 1, 84, 64
2, 32588, Note_off_c, 1, 81, 64
2, 32592, Note_off_c, 1, 75, 64
2, 32592, Note_off_c, 1, 57, 64
2, 32592, Note_off_c, 1, 63, 64
2, 32776, Note_on_c, 1, 41, 75
2, 32784, Note_on_c, 1, 86, 78
2, 32784, Note_on_c, 1, 81, 85
2, 32784, Note_on_c, 1, 75, 66
2, 32796, Note_off_c, 1, 81, 64
2, 32800, Note_off_c, 1, 41, 64
2, 32800, Note_off_c, 1, 86, 64
2, 32800, Note_off_c, 1, 75, 64
2, 32968, Note_on_c, 1, 63, 60
2, 32972, Note_on_c, 1, 53, 75
2, 32972, Note_on_c, 1, 57, 68
2, 32980, Note_on_c, 1, 75, 65
2, 32980, Note_on_c, 1, 81, 83
2, 32980, Note_on_c, 1, 84, 77
2, 32984, Note_off_c, 1, 63, 64
2, 32984, Note_off_c, 1, 53, 64
2, 32988, Note_off_c, 1, 57, 64
2, 32988, Note_off_c, 1, 81, 64
2, 33000, Note_off_c, 1, 75, 64
2, 33000, Note_off_c, 1, 84, 64
2, 33192, Note_on_c, 1, 46, 54
2, 33208, Control_c, 1, 64, 127
2, 33244, Note_off_c, 1, 46, 64
2, 33392, Note_on_c, 1, 58, 51
2, 33400, Note_on_c, 1, 82, 73
2, 33400, Note_on_c, 1, 74, 73
2, 33400, Note_on_c, 1, 62, 50
2, 33400, Note_on_c, 1, 53, 40
2, 33404, Control_c, 1, 64, 0
2, 33408, Note_off_c, 1, 62, 64
2, 33420, Note_off_c, 1, 58, 64
2, 33424, Note_off_c, 1, 53, 64
2, 33528, Note_off_c, 1, 82, 64
2, 33532, Note_off_c, 1, 74, 64
2, 33596, Note_on_c, 1, 41, 53
2, 33600, Note_on_c, 1, 81, 85
2, 33612, Note_on_c, 1, 74, 71
2, 33616, Control_c, 1, 64, 127
2, 33624, Note_off_c, 1, 41, 64
2, 33752, Note_off_c, 1, 74, 64
2, 33768, Note_off_c, 1, 81, 64
2, 33816, Control_c, 1, 64, 0
2, 33820, Note_on_c, 1, 62, 45
2, 33824, Note_on_c, 1, 79, 80
2, 33824, Note_on_c, 1, 58, 34
2, 33824, Note_on_c, 1, 74, 73
2, 33824, Note_on_c, 1, 53, 34
2, 33836, Note_off_c, 1, 62, 64
2, 33848, Note_off_c, 1, 58, 64
2, 33852, Note_off_c, 1, 53, 64
2, 33984, Note_off_c, 1, 79, 64
2, 33984, Note_off_c, 1, 74, 64
2, 34008, Note_on_c, 1, 46, 56
2, 34016, Note_on_c, 1, 79, 78
2, 34016, Note_on_c, 1, 74, 66
2, 34032, Note_off_c, 1, 46, 64
2, 34120, Note_on_c, 1, 77, 81
2, 34124, Note_off_c, 1, 79, 64
2, 34212, Note_off_c, 1, 77, 64
2, 34212, Note_on_c, 1, 53, 78
2, 34216, Note_on_c, 1, 58, 55
2, 34216, Note_on_c, 1, 62, 58
2, 34216, Note_on_c, 1, 76, 90
2, 34228, Note_off_c, 1, 53, 64
2, 34228, Note_off_c, 1, 58, 64
2, 34228, Note_off_c, 1, 62, 64
2, 34316, Note_off_c, 1, 76, 64
2, 34316, Note_on_c, 1, 77, 83
2, 34424, Note_on_c, 1, 41, 69
2, 34440, Note_off_c, 1, 41, 64
2, 34532, Note_off_c, 1, 77, 64
2, 34532, Note_on_c, 1, 79, 80
2, 34648, Note_on_c, 1, 62, 62
2, 34648, Note_on_c, 1, 58, 55
2, 34648, Note_on_c, 1, 53, 67
2, 34652, Note_off_c, 1, 79, 64
2, 34652, Note_on_c, 1, 77, 77
2, 34664, Note_off_c, 1, 74, 64
2, 34664, Note_off_c, 1, 62, 64
2, 34668, Note_off_c, 1, 58, 64
2, 34668, Note_off_c, 1, 53, 64
2, 34852, Control_c, 1, 64, 127
2, 34856, Note_on_c, 1, 48, 90
2, 34860, Note_off_c, 1, 77, 64
2, 34872, Note_off_c, 1, 48, 64
2, 34980, Control_c, 1, 64, 0
2, 35076, Note_on_c, 1, 87, 77
2, 35084, Note_on_c, 1, 75, 66
2, 35084, Note_on_c, 1, 81, 82
2, 35088, Note_on_c, 1, 53, 68
2, 35088, Note_on_c, 1, 63, 55
2, 35088, Note_on_c, 1, 57, 73
2, 35096, Note_off_c, 1, 81, 64
2, 35096, Note_off_c, 1, 53, 64
2, 35100, Note_off_c, 1, 63, 64
2, 35100, Note_off_c, 1, 57, 64
2, 35104, Note_off_c, 1, 75, 64
2, 35108, Note_off_c, 1, 87, 64
2, 35288, Note_on_c, 1, 41, 71
2, 35288, Note_on_c, 1, 87, 70
2, 35288, Note_on_c, 1, 75, 69
2, 35288, Note_on_c, 1, 81, 87
2, 35304, Note_off_c, 1, 41, 64
2, 35336, Note_off_c, 1, 81, 64
2, 35344, Note_off_c, 1, 87, 64
2, 35348, Note_off_c, 1, 75, 64
2, 35488, Note_on_c, 1, 75, 68
2, 35492, Note_on_c, 1, 63, 59
2, 35492, Note_on_c, 1, 86, 80
2, 35492, Note_on_c, 1, 53, 70
2, 35492, Note_on_c, 1, 57, 73
2, 35492, Note_on_c, 1, 81, 77
2, 35508, Note_off_c, 1, 57, 64
2, 35508, Note_off_c, 1, 81, 64
2, 35512, Note_off_c, 1, 75, 64
2, 35512, Note_off_c, 1, 63, 64
2, 35516, Note_off_c, 1, 53, 64
2, 35524, Note_off_c, 1, 86, 64
2, 35696, Note_on_c, 1, 48, 64
2, 35704, Note_on_c, 1, 86, 78
2, 35704, Note_on_c, 1, 81, 78
2, 35704, Note_on_c, 1, 75, 66
2, 35712, Note_off_c, 1, 48, 64
2, 35784, Note_off_c, 1, 86, 64
2, 35796, Note_on_c, 1, 84, 82
2, 35892, Note_off_c, 1, 84, 64
2, 35896, Note_on_c, 1, 83, 85
2, 35896, Note_on_c, 1, 57, 78
2, 35896, Note_on_c, 1, 53, 75
2, 35896, Note_on_c, 1, 63, 54
2, 35912, Note_off_c, 1, 57, 64
2, 35912, Note_off_c, 1, 53, 64
2, 35912, Note_off_c, 1, 63, 64
2, 35992, Note_off_c, 1, 81, 64
2, 36004, Note_on_c, 1, 84, 81
2, 36012, Note_off_c, 1, 83, 64
2, 36028, Note_off_c, 1, 75, 64
2, 36104, Note_on_c, 1, 41, 73
2, 36120, Note_off_c, 1, 41, 64
2, 36212, Note_on_c, 1, 89, 73
2, 36216, Note_off_c, 1, 84, 64
2, 36316, Note_on_c, 1, 53, 71
2, 36316, Note_on_c, 1, 57, 73
2, 36320, Note_off_c, 1, 89, 64
2, 36320, Note_off_c, 1, 53, 64
2, 36320, Note_on_c, 1, 63, 53
2, 36320, Note_on_c, 1, 77, 75
2, 36332, Note_off_c, 1, 57, 64
2, 36332, Note_off_c, 1, 63, 64
2, 36516, Note_off_c, 1, 77, 64
2, 36520, Note_on_c, 1, 46, 88
2, 36568, Note_off_c, 1, 46, 64
2, 36732, Note_on_c, 1, 82, 66
2, 36736, Note_on_c, 1, 53, 66
2, 36736, Note_on_c, 1, 86, 75
2, 36736, Note_on_c, 1, 58, 54
2, 36736, Note_on_c, 1, 62, 46
2, 36740, Note_on_c, 1, 74, 67
2, 36756, Note_off_c, 1, 58, 64
2, 36756, Note_off_c, 1, 62, 64
2, 36764, Note_off_c, 1, 53, 64
2, 36768, Control_c, 1, 64, 127
2, 36848, Note_off_c, 1, 82, 64
2, 36848, Note_off_c, 1, 86, 64
2, 36860, Note_off_c, 1, 74, 64
2, 36916, Control_c, 1, 64, 0
2, 36940, Note_on_c, 1, 41, 68
2, 36940, Note_on_c, 1, 86, 71
2, 36944, Note_on_c, 1, 77, 71
2, 36948, Note_on_c, 1, 74, 64
2, 36952, Control_c, 1, 64, 127
2, 36956, Note_off_c, 1, 41, 64
2, 37056, Note_off_c, 1, 86, 64
2, 37068, Note_off_c, 1, 77, 64
2, 37068, Note_off_c, 1, 74, 64
2, 37160, Note_on_c, 1, 58, 55
2, 37164, Note_on_c, 1, 53, 69
2, 37164, Note_on_c, 1, 84, 78
2, 37164, Note_on_c, 1, 77, 77
2, 37164, Note_on_c, 1, 74, 69
2, 37172, Note_on_c, 1, 62, 54
2, 37172, Control_c, 1, 64, 0
2, 37188, Note_off_c, 1, 62, 64
2, 37192, Note_off_c, 1, 58, 64
2, 37196, Note_off_c, 1, 53, 64
2, 37312, Note_off_c, 1, 84, 64
2, 37312, Note_off_c, 1, 74, 64
2, 37324, Note_off_c, 1, 77, 64
2, 37364, Note_on_c, 1, 46, 61
2, 37380, Note_on_c, 1, 84, 78
2, 37388, Note_on_c, 1, 77, 77
2, 37388, Note_on_c, 1, 74, 71
2, 37392, Note_off_c, 1, 46, 64
2, 37472, Note_off_c, 1, 77, 64
2, 37472, Note_on_c, 1, 82, 78
2, 37488, Note_off_c, 1, 84, 64
2, 37564, Note_on_c, 1, 58, 56
2, 37564, Note_on_c, 1, 62, 65
2, 37572, Note_on_c, 1, 53, 73
2, 37576, Note_off_c, 1, 82, 64
2, 37576, Note_on_c, 1, 81, 78
2, 37584, Note_off_c, 1, 58, 64
2, 37584, Note_off_c, 1, 62, 64
2, 37588, Note_off_c, 1, 53, 64
2, 37668, Note_on_c, 1, 82, 80
2, 37672, Note_off_c, 1, 74, 64
2, 37680, Note_off_c, 1, 81, 64
2, 37756, Control_c, 1, 64, 127
2, 37764, Note_off_c, 1, 82, 64
2, 37764, Note_on_c, 1, 41, 75
2, 37772, Note_off_c, 1, 41, 64
2, 37868, Note_on_c, 1, 89, 88
2, 37968, Note_on_c, 1, 62, 66
2, 37976, Note_on_c, 1, 58, 59
2, 37976, Note_on_c, 1, 53, 70
2, 37976, Note_on_c, 1, 77, 93
2, 37988, Note_off_c, 1, 62, 64
2, 37988, Note_off_c, 1, 58, 64
2, 37988, Note_off_c, 1, 53, 64
2, 38040, Note_off_c, 1, 89, 64
2, 38048, Note_off_c, 1, 77, 64
2, 38192, Note_on_c, 1, 48, 104
2, 38192, Control_c, 1, 64, 0
2, 38240, Note_off_c, 1, 48, 64
2, 38408, Note_on_c, 1, 77, 78
2, 38408, Note_on_c, 1, 75, 71
2, 38416, Note_on_c, 1, 69, 71
2, 38416, Note_on_c, 1, 53, 67
2, 38420, Note_on_c, 1, 60, 64
2, 38420, Note_on_c, 1, 63, 59
2, 38432, Note_off_c, 1, 53, 64
2, 38432, Note_off_c, 1, 60, 64
2, 38436, Note_off_c, 1, 63, 64
2, 38444, Note_off_c, 1, 77, 64
2, 38444, Note_off_c, 1, 75, 64
2, 38444, Note_off_c, 1, 69, 64
2, 38624, Note_on_c, 1, 79, 75
2, 38624, Note_on_c, 1, 75, 66
2, 38624, Note_on_c, 1, 69, 69
2, 38624, Note_on_c, 1, 41, 71
2, 38636, Note_off_c, 1, 41, 64
2, 38664, Note_off_c, 1, 75, 64
2, 38672, Note_off_c, 1, 69, 64
2, 38676, Note_off_c, 1, 79, 64
2, 38816, Note_on_c, 1, 53, 73
2, 38824, Note_on_c, 1, 60, 55
2, 38824, Note_on_c, 1, 77, 80
2, 38824, Note_on_c, 1, 63, 56
2, 38824, Note_on_c, 1, 69, 71
2, 38828, Note_on_c, 1, 75, 64
2, 38840, Note_off_c, 1, 53, 64
2, 38840, Note_off_c, 1, 60, 64
2, 38844, Note_off_c, 1, 63, 64
2, 38880, Note_off_c, 1, 75, 64
2, 38884, Note_off_c, 1, 77, 64
2, 38888, Note_off_c, 1, 69, 64
2, 39044, Note_on_c, 1, 48, 96
2, 39044, Control_c, 1, 64, 127
2, 39068, Note_off_c, 1, 48, 64
2, 39208, Control_c, 1, 64, 0
2, 39248, Note_on_c, 1, 75, 67
2, 39248, Note_on_c, 1, 84, 77
2, 39248, Note_on_c, 1, 53, 70
2, 39248, Note_on_c, 1, 81, 85
2, 39252, Note_on_c, 1, 57, 68
2, 39256, Note_on_c, 1, 63, 49
2, 39260, Note_off_c, 1, 81, 64
2, 39268, Note_off_c, 1, 53, 64
2, 39268, Note_off_c, 1, 57, 64
2, 39268, Note_off_c, 1, 63, 64
2, 39272, Note_off_c, 1, 75, 64
2, 39272, Note_off_c, 1, 84, 64
2, 39456, Note_on_c, 1, 41, 75
2, 39456, Note_on_c, 1, 86, 83
2, 39456, Note_on_c, 1, 75, 68
2, 39456, Note_on_c, 1, 81, 83
2, 39472, Note_off_c, 1, 41, 64
2, 39472, Note_off_c, 1, 81, 64
2, 39476, Note_off_c, 1, 75, 64
2, 39484, Note_off_c, 1, 86, 64
2, 39664, Note_on_c, 1, 75, 66
2, 39668, Note_on_c, 1, 84, 77
2, 39668, Note_on_c, 1, 81, 85
2, 39668, Note_on_c, 1, 57, 77
2, 39668, Note_on_c, 1, 63, 62
2, 39676, Note_on_c, 1, 53, 52
2, 39680, Note_off_c, 1, 81, 64
2, 39684, Note_off_c, 1, 75, 64
2, 39684, Note_off_c, 1, 84, 64
2, 39684, Note_off_c, 1, 57, 64
2, 39684, Note_off_c, 1, 63, 64
2, 39692, Note_off_c, 1, 53, 64
2, 39884, Note_on_c, 1, 46, 90
2, 39912, Note_off_c, 1, 46, 64
2, 40092, Note_on_c, 1, 58, 59
2, 40092, Note_on_c, 1, 82, 69
2, 40092, Note_on_c, 1, 62, 60
2, 40092, Note_on_c, 1, 53, 66
2, 40096, Note_on_c, 1, 74, 80
2, 40112, Note_off_c, 1, 58, 64
2, 40112, Note_off_c, 1, 62, 64
2, 40120, Note_off_c, 1, 53, 64
2, 40120, Note_off_c, 1, 74, 64
2, 40124, Note_off_c, 1, 82, 64
2, 40288, Note_on_c, 1, 81, 80
2, 40296, Note_on_c, 1, 41, 68
2, 40296, Note_on_c, 1, 74, 70
2, 40308, Note_off_c, 1, 41, 64
2, 40436, Note_off_c, 1, 74, 64
2, 40472, Note_off_c, 1, 81, 64
2, 40488, Note_on_c, 1, 53, 68
2, 40504, Note_on_c, 1, 58, 39
2, 40504, Note_on_c, 1, 79, 71
2, 40508, Note_on_c, 1, 62, 50
2, 40508, Note_on_c, 1, 74, 68
2, 40512, Note_off_c, 1, 53, 64
2, 40520, Note_off_c, 1, 62, 64
2, 40532, Note_off_c, 1, 58, 64
2, 40664, Note_off_c, 1, 74, 64
2, 40672, Note_off_c, 1, 79, 64
2, 40688, Note_on_c, 1, 46, 52
2, 40704, Note_on_c, 1, 79, 69
2, 40716, Note_off_c, 1, 46, 64
2, 40716, Note_on_c, 1, 74, 68
2, 40804, Note_on_c, 1, 77, 83
2, 40812, Note_off_c, 1, 79, 64
2, 40900, Note_off_c, 1, 77, 64
2, 40900, Note_on_c, 1, 58, 49
2, 40904, Note_on_c, 1, 62, 59
2, 40904, Note_on_c, 1, 76, 78
2, 40916, Note_off_c, 1, 58, 64
2, 40916, Note_off_c, 1, 62, 64
2, 41004, Note_off_c, 1, 76, 64
2, 41008, Note_on_c, 1, 77, 83
2, 41108, Note_on_c, 1, 50, 88
2, 41160, Note_off_c, 1, 74, 64
2, 41208, Note_off_c, 1, 77, 64
2, 41212, Note_on_c, 1, 74, 78
2, 41324, Note_on_c, 1, 75, 78
2, 41324, Note_on_c, 1, 58, 51
2, 41328, Note_on_c, 1, 62, 54
2, 41328, Note_on_c, 1, 53, 40
2, 41332, Note_off_c, 1, 74, 64
2, 41340, Control_c, 1, 64, 127
2, 41384, Note_off_c, 1, 62, 64
2, 41388, Note_off_c, 1, 50, 64
2, 41392, Note_off_c, 1, 53, 64
2, 41396, Note_off_c, 1, 58, 64
2, 41420, Note_off_c, 1, 75, 64
2, 41424, Note_on_c, 1, 77, 77
2, 41452, Note_off_c, 1, 77, 64
2, 41536, Note_on_c, 1, 79, 65
2, 41536, Note_on_c, 1, 67, 59
2, 41540, Note_on_c, 1, 51, 47
2, 41540, Note_on_c, 1, 63, 46
2, 41544, Control_c, 1, 64, 0
2, 41636, Note_on_c, 1, 75, 67
2, 41652, Note_off_c, 1, 51, 64
2, 41652, Note_off_c, 1, 63, 64
2, 41660, Note_off_c, 1, 79, 64
2, 41664, Note_off_c, 1, 67, 64
2, 41720, Note_off_c, 1, 75, 64
2, 41728, Note_on_c, 1, 79, 67
2, 41728, Note_on_c, 1, 51, 53
2, 41732, Note_on_c, 1, 67, 54
2, 41736, Note_on_c, 1, 63, 46
2, 41752, Note_off_c, 1, 79, 64
2, 41752, Note_off_c, 1, 51, 64
2, 41752, Note_off_c, 1, 67, 64
2, 41760, Note_off_c, 1, 63, 64
2, 41848, Note_on_c, 1, 69, 80
2, 41852, Note_on_c, 1, 81, 78
2, 41924, Control_c, 1, 64, 127
2, 41944, Note_off_c, 1, 81, 64
2, 41944, Note_on_c, 1, 65, 54
2, 41944, Note_on_c, 1, 53, 53
2, 41960, Note_off_c, 1, 69, 64
2, 41976, Note_off_c, 1, 65, 64
2, 41980, Note_off_c, 1, 53, 64
2, 42056, Note_on_c, 1, 79, 78
2, 42056, Note_on_c, 1, 67, 71
2, 42136, Control_c, 1, 64, 0
2, 42148, Note_on_c, 1, 51, 60
2, 42148, Note_on_c, 1, 63, 54
2, 42216, Control_c, 1, 64, 127
2, 42220, Note_off_c, 1, 79, 64
2, 42232, Note_off_c, 1, 67, 64
2, 42240, Note_off_c, 1, 51, 64
2, 42244, Note_off_c, 1, 63, 64
2, 42248, Note_on_c, 1, 75, 69
2, 42252, Note_on_c, 1, 70, 66
2, 42268, Note_off_c, 1, 70, 64
2, 42288, Note_off_c, 1, 75, 64
2, 42360, Control_c, 1, 64, 0
2, 42364, Note_on_c, 1, 62, 41
2, 42364, Note_on_c, 1, 50, 65
2, 42368, Note_on_c, 1, 77, 69
2, 42368, Note_on_c, 1, 65, 66
2, 42448, Control_c, 1, 64, 127
2, 42464, Note_off_c, 1, 62, 64
2, 42464, Note_off_c, 1, 50, 64
2, 42468, Note_on_c, 1, 74, 57
2, 42468, Note_on_c, 1, 70, 53
2, 42480, Note_off_c, 1, 77, 64
2, 42488, Note_off_c, 1, 65, 64
2, 42560, Note_off_c, 1, 70, 64
2, 42568, Note_off_c, 1, 74, 64
2, 42568, Control_c, 1, 64, 0
2, 42572, Note_on_c, 1, 77, 49
2, 42572, Note_on_c, 1, 65, 53
2, 42576, Note_on_c, 1, 62, 65
2, 42580, Note_on_c, 1, 50, 40
2, 42584, Note_off_c, 1, 65, 64
2, 42600, Note_off_c, 1, 77, 64
2, 42668, Note_off_c, 1, 62, 64
2, 42676, Note_off_c, 1, 50, 64
2, 42680, Note_on_c, 1, 79, 83
2, 42680, Note_on_c, 1, 67, 73
2, 42756, Control_c, 1, 64, 127
2, 42776, Note_on_c, 1, 51, 64
2, 42780, Note_off_c, 1, 79, 64
2, 42780, Note_on_c, 1, 63, 56
2, 42784, Note_off_c, 1, 67, 64
2, 42872, Note_off_c, 1, 63, 64
2, 42876, Note_off_c, 1, 51, 64
2, 42892, Note_on_c, 1, 77, 85
2, 42892, Note_on_c, 1, 65, 71
2, 42976, Control_c, 1, 64, 0
2, 42992, Note_on_c, 1, 50, 77
2, 42992, Note_on_c, 1, 62, 66
2, 43012, Control_c, 1, 64, 127
2, 43064, Note_off_c, 1, 77, 64
2, 43068, Note_off_c, 1, 50, 64
2, 43084, Note_off_c, 1, 62, 64
2, 43084, Note_off_c, 1, 65, 64
2, 43088, Note_on_c, 1, 70, 65
2, 43104, Note_off_c, 1, 70, 64
2, 43200, Note_on_c, 1, 60, 63
2, 43200, Note_on_c, 1, 74, 80
2, 43200, Note_on_c, 1, 70, 66
2, 43200, Note_on_c, 1, 48, 66
2, 43200, Note_on_c, 1, 64, 77
2, 43200, Control_c, 1, 64, 0
2, 43204, Note_off_c, 1, 70, 64
2, 43208, Note_off_c, 1, 74, 64
2, 43212, Note_off_c, 1, 64, 64
2, 43300, Note_on_c, 1, 74, 80
2, 43304, Note_off_c, 1, 48, 64
2, 43304, Note_on_c, 1, 70, 60
2, 43308, Note_on_c, 1, 64, 73
2, 43316, Note_off_c, 1, 60, 64
2, 43396, Note_off_c, 1, 70, 64
2, 43408, Note_off_c, 1, 74, 64
2, 43408, Note_off_c, 1, 64, 64
2, 43408, Note_on_c, 1, 60, 69
2, 43408, Note_on_c, 1, 48, 70
2, 43500, Control_c, 1, 64, 127
2, 43504, Note_on_c, 1, 74, 83
2, 43504, Note_on_c, 1, 64, 75
2, 43508, Note_on_c, 1, 70, 55
2, 43512, Note_off_c, 1, 60, 64
2, 43512, Note_off_c, 1, 48, 64
2, 43524, Note_off_c, 1, 70, 64
2, 43532, Note_off_c, 1, 64, 64
2, 43536, Note_off_c, 1, 74, 64
2, 43612, Note_on_c, 1, 53, 73
2, 43616, Note_on_c, 1, 63, 65
2, 43624, Note_on_c, 1, 72, 71
2, 43624, Note_on_c, 1, 69, 71
2, 43624, Control_c, 1, 64, 0
2, 43716, Control_c, 1, 64, 127
2, 43720, Note_off_c, 1, 72, 64
2, 43720, Note_on_c, 1, 70, 69
2, 43724, Note_off_c, 1, 69, 64
2, 43748, Note_off_c, 1, 63, 64
2, 43748, Note_off_c, 1, 70, 64
2, 43824, Control_c, 1, 64, 0
2, 43836, Note_on_c, 1, 63, 61
2, 43836, Note_on_c, 1, 41, 77
2, 43836, Note_on_c, 1, 69, 77
2, 43836, Note_on_c, 1, 72, 75
2, 43864, Control_c, 1, 64, 127
2, 43872, Note_off_c, 1, 41, 64
2, 43876, Note_off_c, 1, 53, 64
2, 43896, Note_off_c, 1, 63, 64
2, 43908, Note_off_c, 1, 69, 64
2, 43912, Note_off_c, 1, 72, 64
2, 44044, Note_on_c, 1, 46, 85
2, 44044, Note_on_c, 1, 70, 66
2, 44044, Note_on_c, 1, 62, 66
2, 44044, Control_c, 1, 64, 0
2, 44120, Control_c, 1, 64, 127
2, 44244, Note_on_c, 1, 53, 77
2, 44244, Note_on_c, 1, 58, 73
2, 44248, Control_c, 1, 64, 0
2, 44284, Control_c, 1, 64, 127
2, 44328, Note_off_c, 1, 53, 64
2, 44328, Note_off_c, 1, 58, 64
2, 44328, Control_c, 1, 64, 0
2, 44456, Note_on_c, 1, 58, 66
2, 44456, Control_c, 1, 64, 127
2, 44460, Note_on_c, 1, 53, 68
2, 44480, Note_off_c, 1, 58, 64
2, 44480, Note_off_c, 1, 53, 64
2, 44484, Note_off_c, 1, 46, 64
2, 44540, Note_off_c, 1, 62, 64
2, 44560, Note_off_c, 1, 70, 64
2, 44568, Control_c, 1, 64, 0
2, 44664, Note_on_c, 1, 41, 85
2, 44668, Control_c, 1, 64, 127
2, 44724, Note_off_c, 1, 41, 64
2, 44804, Control_c, 1, 64, 0
2, 44912, Control_c, 1, 64, 127
2, 44924, Note_on_c, 1, 48, 62
2, 44936, Note_off_c, 1, 48, 64
2, 45132, Note_on_c, 1, 53, 69
2, 45136, Note_on_c, 1, 77, 70
2, 45136, Note_on_c, 1, 60, 41
2, 45136, Note_on_c, 1, 69, 65
2, 45136, Note_on_c, 1, 75, 63
2, 45148, Control_c, 1, 64, 0
2, 45152, Note_on_c, 1, 63, 32
2, 45164, Note_off_c, 1, 60, 64
2, 45164, Note_off_c, 1, 63, 64
2, 45176, Note_off_c, 1, 53, 64
2, 45196, Note_off_c, 1, 77, 64
2, 45196, Note_off_c, 1, 69, 64
2, 45196, Note_off_c, 1, 75, 64
2, 45332, Note_on_c, 1, 79, 73
2, 45336, Note_on_c, 1, 41, 66
2, 45336, Note_on_c, 1, 69, 61
2, 45340, Note_on_c, 1, 75, 56
2, 45344, Control_c, 1, 64, 127
2, 45356, Note_off_c, 1, 41, 64
2, 45396, Note_off_c, 1, 79, 64
2, 45412, Note_off_c, 1, 69, 64
2, 45412, Note_off_c, 1, 75, 64
2, 45460, Control_c, 1, 64, 0
2, 45560, Note_on_c, 1, 53, 66
2, 45560, Note_on_c, 1, 69, 70
2, 45564, Note_on_c, 1, 77, 71
2, 45568, Note_on_c, 1, 63, 38
2, 45568, Note_on_c, 1, 75, 64
2, 45568, Control_c, 1, 64, 127
2, 45588, Note_off_c, 1, 63, 64
2, 45592, Note_off_c, 1, 69, 64
2, 45596, Note_off_c, 1, 75, 64
2, 45604, Note_off_c, 1, 77, 64
2, 45608, Note_off_c, 1, 53, 64
2, 45668, Control_c, 1, 64, 0
2, 45764, Note_on_c, 1, 48, 71
2, 45772, Control_c, 1, 64, 127
2, 45784, Note_off_c, 1, 48, 64
2, 45964, Note_on_c, 1, 53, 71
2, 45972, Note_on_c, 1, 63, 54
2, 45972, Note_on_c, 1, 75, 62
2, 45980, Note_on_c, 1, 57, 65
2, 45980, Note_on_c, 1, 81, 78
2, 45980, Note_on_c, 1, 84, 70
2, 46000, Note_off_c, 1, 63, 64
2, 46000, Note_off_c, 1, 57, 64
2, 46000, Control_c, 1, 64, 0
2, 46016, Note_off_c, 1, 53, 64
2, 46040, Note_off_c, 1, 75, 64
2, 46052, Note_off_c, 1, 81, 64
2, 46052, Note_off_c, 1, 84, 64
2, 46176, Note_on_c, 1, 41, 66
2, 46176, Note_on_c, 1, 86, 73
2, 46180, Note_on_c, 1, 81, 78
2, 46180, Note_on_c, 1, 75, 60
2, 46180, Control_c, 1, 64, 127
2, 46196, Note_off_c, 1, 41, 64
2, 46252, Note_off_c, 1, 86, 64
2, 46252, Note_off_c, 1, 81, 64
2, 46252, Note_off_c, 1, 75, 64
2, 46372, Control_c, 1, 64, 0
2, 46384, Note_on_c, 1, 53, 66
2, 46384, Note_on_c, 1, 63, 54
2, 46384, Note_on_c, 1, 57, 70
2, 46384, Note_on_c, 1, 75, 64
2, 46384, Note_on_c, 1, 84, 71
2, 46384, Note_on_c, 1, 81, 73
2, 46408, Note_off_c, 1, 57, 64
2, 46412, Note_off_c, 1, 63, 64
2, 46416, Note_off_c, 1, 53, 64
2, 46416, Control_c, 1, 64, 127
2, 46484, Note_off_c, 1, 75, 64
2, 46504, Note_off_c, 1, 81, 64
2, 46540, Note_off_c, 1, 84, 64
2, 46576, Control_c, 1, 64, 0
2, 46588, Note_on_c, 1, 46, 83
2, 46616, Note_off_c, 1, 46, 64
2, 46800, Note_on_c, 1, 82, 67
2, 46804, Note_on_c, 1, 53, 66
2, 46804, Note_on_c, 1, 58, 57
2, 46804, Note_on_c, 1, 74, 71
2, 46808, Note_on_c, 1, 62, 39
2, 46808, Control_c, 1, 64, 127
2, 46820, Note_off_c, 1, 58, 64
2, 46828, Note_off_c, 1, 62, 64
2, 46836, Note_off_c, 1, 53, 64
2, 46924, Note_off_c, 1, 74, 64
2, 46928, Note_off_c, 1, 82, 64
2, 46988, Control_c, 1, 64, 0
2, 47004, Note_on_c, 1, 41, 61
2, 47004, Note_on_c, 1, 81, 85
2, 47016, Note_on_c, 1, 74, 66
2, 47032, Control_c, 1, 64, 127
2, 47044, Note_off_c, 1, 41, 64
2, 47148, Note_off_c, 1, 74, 64
2, 47160, Note_off_c, 1, 81, 64
2, 47208, Control_c, 1, 64, 0
2, 47216, Note_on_c, 1, 53, 53
2, 47216, Note_on_c, 1, 62, 53
2, 47216, Note_on_c, 1, 74, 71
2, 47216, Note_on_c, 1, 79, 78
2, 47228, Note_on_c, 1, 58, 39
2, 47256, Note_off_c, 1, 62, 64
2, 47256, Note_off_c, 1, 58, 64
2, 47256, Control_c, 1, 64, 127
2, 47264, Note_off_c, 1, 53, 64
2, 47324, Note_off_c, 1, 74, 64
2, 47328, Note_off_c, 1, 79, 64
2, 47360, Control_c, 1, 64, 0
2, 47420, Note_on_c, 1, 46, 42
2, 47428, Note_on_c, 1, 79, 83
2, 47428, Control_c, 1, 64, 127
2, 47436, Note_on_c, 1, 74, 80
2, 47444, Note_off_c, 1, 46, 64
2, 47532, Note_off_c, 1, 79, 64
2, 47536, Note_on_c, 1, 77, 77
2, 47536, Control_c, 1, 64, 0
2, 47632, Note_off_c, 1, 77, 64
2, 47632, Note_on_c, 1, 58, 52
2, 47636, Note_on_c, 1, 62, 55
2, 47636, Note_on_c, 1, 53, 59
2, 47636, Note_on_c, 1, 76, 75
2, 47652, Note_off_c, 1, 58, 64
2, 47652, Note_off_c, 1, 62, 64
2, 47652, Note_off_c, 1, 53, 64
2, 47708, Note_off_c, 1, 76, 64
2, 47752, Note_on_c, 1, 77, 69
2, 47836, Note_on_c, 1, 41, 66
2, 47840, Control_c, 1, 64, 127
2, 47856, Note_off_c, 1, 41, 64
2, 47936, Note_off_c, 1, 77, 64
2, 47940, Note_on_c, 1, 79, 73
2, 47980, Control_c, 1, 64, 0
2, 48036, Note_off_c, 1, 79, 64
2, 48036, Note_on_c, 1, 53, 68
2, 48036, Control_c, 1, 64, 127
2, 48044, Note_on_c, 1, 58, 54
2, 48044, Note_on_c, 1, 62, 63
2, 48048, Note_on_c, 1, 77, 77
2, 48056, Note_off_c, 1, 58, 64
2, 48060, Note_off_c, 1, 53, 64
2, 48060, Note_off_c, 1, 62, 64
2, 48080, Note_off_c, 1, 74, 64
2, 48092, Note_off_c, 1, 77, 64
2, 48164, Control_c, 1, 64, 0
2, 48260, Note_on_c, 1, 48, 65
2, 48264, Control_c, 1, 64, 127
2, 48272, Note_off_c, 1, 48, 64
2, 48472, Note_on_c, 1, 53, 71
2, 48472, Note_on_c, 1, 87, 69
2, 48476, Note_on_c, 1, 81, 85
2, 48476, Note_on_c, 1, 75, 65
2, 48476, Note_on_c, 1, 60, 61
2, 48476, Note_on_c, 1, 63, 54
2, 48492, Note_off_c, 1, 60, 64
2, 48496, Note_off_c, 1, 63, 64
2, 48508, Note_off_c, 1, 53, 64
2, 48528, Control_c, 1, 64, 0
2, 48540, Note_off_c, 1, 75, 64
2, 48544, Note_off_c, 1, 87, 64
2, 48556, Note_off_c, 1, 81, 64
2, 48680, Note_on_c, 1, 87, 66
2, 48680, Note_on_c, 1, 41, 66
2, 48688, Note_on_c, 1, 75, 69
2, 48688, Note_on_c, 1, 81, 85
2, 48688, Control_c, 1, 64, 127
2, 48696, Note_off_c, 1, 41, 64
2, 48764, Note_off_c, 1, 87, 64
2, 48772, Note_off_c, 1, 75, 64
2, 48780, Note_off_c, 1, 81, 64
2, 48888, Note_on_c, 1, 86, 75
2, 48888, Control_c, 1, 64, 0
2, 48892, Note_on_c, 1, 63, 59
2, 48896, Note_on_c, 1, 81, 90
2, 48896, Note_on_c, 1, 75, 64
2, 48900, Note_on_c, 1, 53, 63
2, 48928, Note_off_c, 1, 63, 64
2, 48928, Note_off_c, 1, 53, 64
2, 48932, Control_c, 1, 64, 127
2, 48964, Note_off_c, 1, 86, 64
2, 48964, Note_off_c, 1, 75, 64
2, 48976, Note_off_c, 1, 81, 64
2, 49048, Control_c, 1, 64, 0
2, 49092, Note_on_c, 1, 48, 60
2, 49104, Note_on_c, 1, 86, 71
2, 49104, Note_on_c, 1, 81, 83
2, 49104, Note_on_c, 1, 75, 64
2, 49104, Control_c, 1, 64, 127
2, 49120, Note_off_c, 1, 48, 64
2, 49196, Note_off_c, 1, 86, 64
2, 49208, Note_on_c, 1, 84, 69
2, 49296, Note_on_c, 1, 53, 60
2, 49296, Note_on_c, 1, 57, 66
2, 49300, Note_on_c, 1, 63, 51
2, 49300, Control_c, 1, 64, 0
2, 49304, Note_off_c, 1, 81, 64
2, 49304, Note_off_c, 1, 84, 64
2, 49308, Note_on_c, 1, 83, 80
2, 49324, Note_off_c, 1, 57, 64
2, 49324, Note_off_c, 1, 63, 64
2, 49340, Note_off_c, 1, 53, 64
2, 49380, Note_off_c, 1, 75, 64
2, 49388, Note_off_c, 1, 83, 64
2, 49404, Note_on_c, 1, 84, 88
2, 49500, Note_off_c, 1, 84, 64
2, 49500, Control_c, 1, 64, 127
2, 49508, Note_on_c, 1, 41, 64
2, 49516, Note_off_c, 1, 41, 64
2, 49600, Note_on_c, 1, 89, 73
2, 49708, Note_on_c, 1, 53, 66
2, 49712, Note_on_c, 1, 57, 66
2, 49720, Note_on_c, 1, 63, 54
2, 49732, Note_off_c, 1, 53, 64
2, 49732, Note_off_c, 1, 57, 64
2, 49732, Note_off_c, 1, 63, 64
2, 49732, Note_on_c, 1, 77, 80
2, 49800, Note_off_c, 1, 89, 64
2, 49816, Note_off_c, 1, 77, 64
2, 49916, Control_c, 1, 64, 0
2, 49928, Note_on_c, 1, 46, 73
2, 49952, Control_c, 1, 64, 127
2, 49964, Note_off_c, 1, 46, 64
2, 50116, Control_c, 1, 64, 0
2, 50128, Note_on_c, 1, 53, 66
2, 50132, Note_on_c, 1, 82, 66
2, 50136, Note_on_c, 1, 86, 71
2, 50140, Note_on_c, 1, 74, 73
2, 50140, Note_on_c, 1, 58, 39
2, 50140, Note_on_c, 1, 62, 45
2, 50160, Control_c, 1, 64, 127
2, 50164, Note_off_c, 1, 58, 64
2, 50164, Note_off_c, 1, 62, 64
2, 50176, Note_off_c, 1, 53, 64
2, 50240, Note_off_c, 1, 86, 64
2, 50240, Note_off_c, 1, 74, 64
2, 50260, Note_off_c, 1, 82, 64
2, 50328, Control_c, 1, 64, 0
2, 50344, Note_on_c, 1, 41, 68
2, 50348, Note_on_c, 1, 77, 69
2, 50348, Note_on_c, 1, 86, 73
2, 50352, Note_on_c, 1, 74, 64
2, 50368, Note_off_c, 1, 41, 64
2, 50376, Control_c, 1, 64, 127
2, 50452, Note_off_c, 1, 86, 64
2, 50476, Note_off_c, 1, 77, 64
2, 50476, Note_off_c, 1, 74, 64
2, 50544, Note_on_c, 1, 53, 63
2, 50544, Control_c, 1, 64, 0
2, 50556, Note_on_c, 1, 58, 53
2, 50556, Note_on_c, 1, 84, 69
2, 50556, Note_on_c, 1, 62, 61
2, 50556, Note_on_c, 1, 77, 69
2, 50560, Note_on_c, 1, 74, 67
2, 50588, Note_off_c, 1, 62, 64
2, 50596, Note_off_c, 1, 53, 64
2, 50596, Note_off_c, 1, 58, 64
2, 50596, Control_c, 1, 64, 127
2, 50624, Control_c, 1, 64, 0
2, 50652, Note_off_c, 1, 84, 64
2, 50652, Note_off_c, 1, 74, 64
2, 50660, Note_off_c, 1, 77, 64
2, 50756, Note_on_c, 1, 46, 62
2, 50756, Note_on_c, 1, 84, 73
2, 50764, Note_on_c, 1, 77, 78
2, 50768, Note_on_c, 1, 74, 71
2, 50784, Note_off_c, 1, 46, 64
2, 50860, Note_off_c, 1, 77, 64
2, 50860, Note_on_c, 1, 82, 80
2, 50888, Note_off_c, 1, 84, 64
2, 50960, Note_on_c, 1, 53, 66
2, 50960, Note_on_c, 1, 62, 61
2, 50964, Note_on_c, 1, 58, 56
2, 50964, Note_on_c, 1, 81, 85
2, 50968, Note_off_c, 1, 82, 64
2, 50980, Note_off_c, 1, 62, 64
2, 50980, Note_off_c, 1, 58, 64
2, 50984, Note_off_c, 1, 53, 64
2, 51056, Note_off_c, 1, 74, 64
2, 51056, Note_on_c, 1, 82, 78
2, 51076, Note_off_c, 1, 81, 64
2, 51148, Control_c, 1, 64, 127
2, 51164, Note_off_c, 1, 82, 64
2, 51164, Note_on_c, 1, 41, 63
2, 51176, Note_off_c, 1, 41, 64
2, 51264, Note_on_c, 1, 89, 80
2, 51372, Note_on_c, 1, 58, 65
2, 51376, Note_on_c, 1, 53, 67
2, 51380, Note_on_c, 1, 62, 60
2, 51380, Note_on_c, 1, 77, 85
2, 51384, Note_off_c, 1, 53, 64
2, 51392, Note_off_c, 1, 58, 64
2, 51392, Note_off_c, 1, 62, 64
2, 51452, Note_off_c, 1, 89, 64
2, 51456, Note_off_c, 1, 77, 64
2, 51588, Note_on_c, 1, 48, 112
2, 51588, Control_c, 1, 64, 0
2, 51600, Note_off_c, 1, 48, 64
2, 51804, Note_on_c, 1, 60, 73
2, 51808, Note_on_c, 1, 75, 77
2, 51808, Note_on_c, 1, 77, 85
2, 51808, Note_on_c, 1, 69, 77
2, 51808, Note_on_c, 1, 53, 80
2, 51808, Note_on_c, 1, 63, 60
2, 51816, Note_off_c, 1, 60, 64
2, 51816, Note_off_c, 1, 75, 64
2, 51816, Note_off_c, 1, 63, 64
2, 51824, Note_off_c, 1, 53, 64
2, 51828, Note_off_c, 1, 77, 64
2, 51828, Note_off_c, 1, 69, 64
2, 52012, Note_on_c, 1, 41, 80
2, 52012, Note_on_c, 1, 79, 85
2, 52012, Note_on_c, 1, 75, 68
2, 52012, Note_on_c, 1, 69, 77
2, 52024, Note_off_c, 1, 41, 64
2, 52028, Note_off_c, 1, 75, 64
2, 52040, Note_off_c, 1, 69, 64
2, 52044, Note_off_c, 1, 79, 64
2, 52216, Note_on_c, 1, 53, 85
2, 52216, Note_on_c, 1, 63, 60
2, 52220, Note_on_c, 1, 77, 82
2, 52220, Note_on_c, 1, 75, 78
2, 52224, Note_on_c, 1, 69, 77
2, 52232, Note_off_c, 1, 53, 64
2, 52236, Note_off_c, 1, 63, 64
2, 52236, Note_off_c, 1, 75, 64
2, 52236, Note_off_c, 1, 77, 64
2, 52236, Note_off_c, 1, 69, 64
2, 52424, Note_on_c, 1, 48, 90
2, 52448, Note_off_c, 1, 48, 64
2, 52628, Note_on_c, 1, 84, 88
2, 52628, Note_on_c, 1, 75, 67
2, 52628, Note_on_c, 1, 53, 85
2, 52632, Note_on_c, 1, 81, 87
2, 52632, Note_on_c, 1, 63, 64
2, 52632, Note_on_c, 1, 57, 83
2, 52644, Note_off_c, 1, 81, 64
2, 52648, Note_off_c, 1, 75, 64
2, 52648, Note_off_c, 1, 53, 64
2, 52648, Note_off_c, 1, 63, 64
2, 52648, Note_off_c, 1, 57, 64
2, 52652, Note_off_c, 1, 84, 64
2, 52840, Note_on_c, 1, 86, 80
2, 52844, Note_on_c, 1, 41, 78
2, 52844, Note_on_c, 1, 75, 68
2, 52844, Note_on_c, 1, 81, 89
2, 52856, Note_off_c, 1, 41, 64
2, 52860, Note_off_c, 1, 81, 64
2, 52864, Note_off_c, 1, 86, 64
2, 52864, Note_off_c, 1, 75, 64
2, 53060, Note_on_c, 1, 75, 73
2, 53060, Note_on_c, 1, 63, 66
2, 53060, Note_on_c, 1, 84, 87
2, 53060, Note_on_c, 1, 53, 80
2, 53060, Note_on_c, 1, 81, 82
2, 53060, Note_on_c, 1, 57, 78
2, 53076, Note_off_c, 1, 63, 64
2, 53076, Note_off_c, 1, 81, 64
2, 53076, Note_off_c, 1, 57, 64
2, 53080, Note_off_c, 1, 75, 64
2, 53080, Note_off_c, 1, 53, 64
2, 53100, Note_off_c, 1, 84, 64
2, 53264, Note_on_c, 1, 46, 90
2, 53288, Note_off_c, 1, 46, 64
2, 53320, Control_c, 1, 64, 127
2, 53472, Note_on_c, 1, 58, 63
2, 53472, Note_on_c, 1, 53, 71
2, 53476, Note_on_c, 1, 82, 77
2, 53476, Note_on_c, 1, 74, 78
2, 53476, Note_on_c, 1, 62, 39
2, 53476, Control_c, 1, 64, 0
2, 53488, Note_off_c, 1, 58, 64
2, 53488, Note_off_c, 1, 53, 64
2, 53488, Note_off_c, 1, 62, 64
2, 53636, Note_off_c, 1, 74, 64
2, 53644, Note_off_c, 1, 82, 64
2, 53660, Note_on_c, 1, 41, 68
2, 53672, Note_on_c, 1, 81, 88
2, 53672, Control_c, 1, 64, 127
2, 53676, Note_on_c, 1, 74, 71
2, 53684, Note_off_c, 1, 41, 64
2, 53820, Note_off_c, 1, 74, 64
2, 53840, Note_off_c, 1, 81, 64
2, 53872, Note_on_c, 1, 53, 63
2, 53872, Control_c, 1, 64, 0
2, 53884, Note_on_c, 1, 62, 66
2, 53884, Note_on_c, 1, 58, 50
2, 53888, Note_on_c, 1, 79, 83
2, 53888, Note_on_c, 1, 74, 83
2, 53900, Note_off_c, 1, 58, 64
2, 53904, Note_off_c, 1, 62, 64
2, 53916, Note_off_c, 1, 53, 64
2, 53916, Control_c, 1, 64, 127
2, 54044, Note_off_c, 1, 74, 64
2, 54048, Note_off_c, 1, 79, 64
2, 54064, Control_c, 1, 64, 0
2, 54080, Note_on_c, 1, 46, 68
2, 54096, Note_on_c, 1, 79, 80
2, 54096, Note_on_c, 1, 74, 78
2, 54120, Note_off_c, 1, 46, 64
2, 54192, Note_on_c, 1, 77, 83
2, 54200, Note_off_c, 1, 79, 64
2, 54292, Note_off_c, 1, 77, 64
2, 54292, Note_on_c, 1, 58, 56
2, 54296, Note_on_c, 1, 53, 70
2, 54296, Note_on_c, 1, 62, 53
2, 54296, Note_on_c, 1, 76, 85
2, 54320, Note_off_c, 1, 58, 64
2, 54320, Note_off_c, 1, 53, 64
2, 54328, Note_off_c, 1, 62, 64
2, 54348, Note_off_c, 1, 76, 64
2, 54400, Note_on_c, 1, 77, 77
2, 54496, Note_on_c, 1, 50, 93
2, 54508, Note_off_c, 1, 77, 64
2, 54508, Control_c, 1, 64, 127
2, 54516, Note_off_c, 1, 74, 64
2, 54608, Note_on_c, 1, 74, 90
2, 54628, Control_c, 1, 64, 0
2, 54704, Note_off_c, 1, 74, 64
2, 54708, Note_on_c, 1, 62, 71
2, 54708, Note_on_c, 1, 58, 60
2, 54708, Note_on_c, 1, 75, 88
2, 54708, Note_on_c, 1, 53, 60
2, 54712, Control_c, 1, 64, 127
2, 54720, Note_off_c, 1, 62, 64
2, 54720, Note_off_c, 1, 58, 64
2, 54720, Note_off_c, 1, 53, 64
2, 54732, Note_off_c, 1, 50, 64
2, 54800, Note_off_c, 1, 75, 64
2, 54812, Note_on_c, 1, 77, 85
2, 54840, Note_off_c, 1, 77, 64
2, 54920, Note_on_c, 1, 39, 108
2, 54920, Note_on_c, 1, 51, 90
2, 54920, Note_on_c, 1, 67, 78
2, 54920, Control_c, 1, 64, 0
2, 54924, Note_on_c, 1, 79, 90
2, 55024, Note_on_c, 1, 70, 64
2, 55024, Control_c, 1, 64, 127
2, 55032, Note_on_c, 1, 75, 75
2, 55036, Note_off_c, 1, 67, 64
2, 55044, Note_off_c, 1, 79, 64
2, 55068, Note_off_c, 1, 51, 64
2, 55072, Note_off_c, 1, 39, 64
2, 55076, Note_off_c, 1, 70, 64
2, 55096, Note_off_c, 1, 75, 64
2, 55124, Note_on_c, 1, 79, 77
2, 55124, Control_c, 1, 64, 0
2, 55128, Note_on_c, 1, 67, 77
2, 55128, Note_on_c, 1, 39, 77
2, 55132, Note_on_c, 1, 51, 77
2, 55144, Note_off_c, 1, 79, 64
2, 55144, Note_off_c, 1, 67, 64
2, 55220, Note_off_c, 1, 39, 64
2, 55224, Note_off_c, 1, 51, 64
2, 55224, Control_c, 1, 64, 127
2, 55228, Note_on_c, 1, 81, 90
2, 55228, Note_on_c, 1, 69, 77
2, 55328, Note_off_c, 1, 81, 64
2, 55332, Note_off_c, 1, 69, 64
2, 55332, Note_on_c, 1, 41, 77
2, 55332, Note_on_c, 1, 53, 80
2, 55332, Control_c, 1, 64, 0
2, 55412, Control_c, 1, 64, 127
2, 55432, Note_off_c, 1, 53, 64
2, 55436, Note_on_c, 1, 79, 78
2, 55436, Note_on_c, 1, 67, 78
2, 55444, Note_off_c, 1, 41, 64
2, 55548, Control_c, 1, 64, 0
2, 55552, Note_on_c, 1, 39, 80
2, 55552, Note_on_c, 1, 51, 80
2, 55620, Note_off_c, 1, 79, 64
2, 55624, Note_off_c, 1, 67, 64
2, 55636, Note_off_c, 1, 39, 64
2, 55636, Control_c, 1, 64, 127
2, 55640, Note_off_c, 1, 51, 64
2, 55640, Note_on_c, 1, 75, 70
2, 55644, Note_on_c, 1, 70, 69
2, 55652, Note_off_c, 1, 70, 64
2, 55660, Note_off_c, 1, 75, 64
2, 55752, Note_on_c, 1, 38, 89
2, 55752, Note_on_c, 1, 50, 86
2, 55752, Note_on_c, 1, 77, 71
2, 55752, Control_c, 1, 64, 0
2, 55760, Note_on_c, 1, 65, 73
2, 55840, Control_c, 1, 64, 127
2, 55852, Note_on_c, 1, 70, 75
2, 55852, Note_on_c, 1, 74, 70
2, 55856, Note_off_c, 1, 77, 64
2, 55864, Note_off_c, 1, 65, 64
2, 55872, Note_off_c, 1, 38, 64
2, 55876, Note_off_c, 1, 50, 64
2, 55944, Note_off_c, 1, 70, 64
2, 55944, Note_off_c, 1, 74, 64
2, 55948, Note_on_c, 1, 77, 65
2, 55952, Note_on_c, 1, 65, 69
2, 55956, Note_on_c, 1, 50, 77
2, 55960, Note_on_c, 1, 38, 77
2, 55964, Control_c, 1, 64, 0
2, 55976, Note_off_c, 1, 77, 64
2, 55976, Note_off_c, 1, 65, 64
2, 56048, Control_c, 1, 64, 127
2, 56060, Note_on_c, 1, 79, 85
2, 56060, Note_on_c, 1, 67, 75
2, 56068, Note_off_c, 1, 50, 64
2, 56076, Note_off_c, 1, 38, 64
2, 56160, Note_off_c, 1, 79, 64
2, 56160, Note_on_c, 1, 51, 78
2, 56164, Note_off_c, 1, 67, 64
2, 56164, Note_on_c, 1, 39, 77
2, 56164, Control_c, 1, 64, 0
2, 56248, Control_c, 1, 64, 127
2, 56264, Note_on_c, 1, 77, 71
2, 56272, Note_on_c, 1, 65, 75
2, 56280, Note_off_c, 1, 51, 64
2, 56280, Note_off_c, 1, 39, 64
2, 56368, Control_c, 1, 64, 0
2, 56372, Note_off_c, 1, 77, 64
2, 56372, Note_on_c, 1, 38, 73
2, 56372, Note_on_c, 1, 50, 73
2, 56432, Control_c, 1, 64, 127
2, 56460, Note_off_c, 1, 65, 64
2, 56460, Note_off_c, 1, 38, 64
2, 56464, Note_on_c, 1, 70, 64
2, 56468, Note_off_c, 1, 50, 64
2, 56488, Note_off_c, 1, 70, 64
2, 56572, Note_on_c, 1, 36, 59
2, 56580, Note_on_c, 1, 48, 60
2, 56580, Note_on_c, 1, 74, 71
2, 56580, Note_on_c, 1, 70, 56
2, 56584, Note_on_c, 1, 64, 66
2, 56588, Note_off_c, 1, 70, 64
2, 56588, Control_c, 1, 64, 0
2, 56592, Note_off_c, 1, 74, 64
2, 56604, Note_off_c, 1, 64, 64
2, 56684, Note_off_c, 1, 48, 64
2, 56688, Note_off_c, 1, 36, 64
2, 56696, Note_on_c, 1, 64, 85
2, 56696, Note_on_c, 1, 74, 91
2, 56696, Note_on_c, 1, 70, 88
2, 56788, Note_on_c, 1, 36, 62
2, 56796, Note_on_c, 1, 48, 63
2, 56800, Control_c, 1, 64, 127
2, 56816, Note_off_c, 1, 64, 64
2, 56816, Note_off_c, 1, 74, 64
2, 56816, Note_off_c, 1, 70, 64
2, 56884, Note_off_c, 1, 36, 64
2, 56888, Note_off_c, 1, 48, 64
2, 56888, Note_on_c, 1, 74, 73
2, 56892, Note_on_c, 1, 70, 58
2, 56896, Note_on_c, 1, 64, 66
2, 56928, Note_off_c, 1, 64, 64
2, 56944, Note_off_c, 1, 70, 64
2, 56960, Note_off_c, 1, 74, 64
2, 57004, Note_on_c, 1, 41, 71
2, 57004, Note_on_c, 1, 63, 60
2, 57004, Note_on_c, 1, 69, 73
2, 57004, Note_on_c, 1, 72, 71
2, 57004, Note_on_c, 1, 53, 68
2, 57004, Control_c, 1, 64, 0
2, 57096, Note_off_c, 1, 72, 64
2, 57096, Note_on_c, 1, 70, 66
2, 57108, Note_off_c, 1, 69, 64
2, 57112, Note_off_c, 1, 41, 64
2, 57116, Note_off_c, 1, 63, 64
2, 57116, Note_off_c, 1, 53, 64
2, 57124, Note_off_c, 1, 70, 64
2, 57212, Note_on_c, 1, 41, 70
2, 57212, Note_on_c, 1, 63, 69
2, 57212, Note_on_c, 1, 72, 83
2, 57212, Note_on_c, 1, 53, 68
2, 57212, Note_on_c, 1, 69, 78
2, 57212, Control_c, 1, 64, 127
2, 57220, Note_off_c, 1, 69, 64
2, 57224, Note_off_c, 1, 63, 64
2, 57224, Note_off_c, 1, 72, 64
2, 57228, Note_off_c, 1, 41, 64
2, 57232, Note_off_c, 1, 53, 64
2, 57400, Control_c, 1, 64, 0
2, 57412, Note_on_c, 1, 70, 71
2, 57412, Note_on_c, 1, 62, 73
2, 57416, Note_on_c, 1, 46, 73
2, 57424, Note_on_c, 1, 58, 56
2, 57440, Control_c, 1, 64, 127
2, 57456, Note_off_c, 1, 58, 64
2, 57464, Note_off_c, 1, 46, 64
2, 57584, Control_c, 1, 64, 0
2, 57612, Note_on_c, 1, 41, 85
2, 57616, Note_on_c, 1, 53, 93
2, 57628, Control_c, 1, 64, 127
2, 57632, Note_off_c, 1, 53, 64
2, 57640, Note_off_c, 1, 41, 64
2, 57688, Note_off_c, 1, 70, 64
2, 57704, Note_off_c, 1, 62, 64
2, 57836, Note_on_c, 1, 68, 68
2, 57836, Note_on_c, 1, 70, 67
2, 57836, Note_on_c, 1, 34, 108
2, 57836, Note_on_c, 1, 46, 108
2, 57844, Note_on_c, 1, 62, 78
2, 57848, Control_c, 1, 64, 0
2, 57876, Control_c, 1, 64, 127
2, 57896, Note_off_c, 1, 62, 64
2, 57916, Note_off_c, 1, 68, 64
2, 57916, Note_off_c, 1, 70, 64
2, 57952, Note_off_c, 1, 34, 64
2, 57960, Note_off_c, 1, 46, 64
2, 58248, Control_c, 1, 64, 0
2, 58256, Note_on_c, 1, 51, 62
2, 58260, Note_on_c, 1, 70, 69
2, 58280, Note_off_c, 1, 70, 64
2, 58292, Note_off_c, 1, 51, 64
2, 58452, Note_on_c, 1, 75, 71
2, 58460, Note_on_c, 1, 58, 49
2, 58460, Note_on_c, 1, 67, 69
2, 58464, Note_on_c, 1, 63, 49
2, 58464, Note_on_c, 1, 55, 37
2, 58484, Note_off_c, 1, 75, 64
2, 58484, Note_off_c, 1, 58, 64
2, 58484, Note_off_c, 1, 63, 64
2, 58484, Note_off_c, 1, 55, 64
2, 58488, Note_off_c, 1, 67, 64
2, 58656, Note_on_c, 1, 46, 66
2, 58656, Note_on_c, 1, 74, 85
2, 58660, Note_on_c, 1, 67, 67
2, 58676, Note_off_c, 1, 46, 64
2, 58684, Note_off_c, 1, 74, 64
2, 58684, Note_off_c, 1, 67, 64
2, 58876, Note_on_c, 1, 55, 64
2, 58876, Note_on_c, 1, 72, 71
2, 58876, Note_on_c, 1, 67, 70
2, 58880, Note_on_c, 1, 63, 39
2, 58896, Note_off_c, 1, 72, 64
2, 58908, Note_off_c, 1, 67, 64
2, 58912, Note_off_c, 1, 55, 64
2, 58912, Note_off_c, 1, 63, 64
2, 59080, Note_on_c, 1, 51, 59
2, 59080, Note_on_c, 1, 70, 66
2, 59088, Note_on_c, 1, 67, 69
2, 59104, Note_off_c, 1, 70, 64
2, 59104, Note_off_c, 1, 67, 64
2, 59112, Note_off_c, 1, 51, 64
2, 59188, Note_on_c, 1, 75, 66
2, 59188, Note_on_c, 1, 67, 70
2, 59288, Note_off_c, 1, 75, 64
2, 59288, Note_on_c, 1, 55, 69
2, 59296, Note_off_c, 1, 67, 64
2, 59308, Note_off_c, 1, 55, 64
2, 59396, Note_on_c, 1, 74, 78
2, 59396, Note_on_c, 1, 67, 73
2, 59492, Note_on_c, 1, 46, 66
2, 59512, Control_c, 1, 64, 127
2, 59516, Note_off_c, 1, 46, 64
2, 59592, Note_off_c, 1, 74, 64
2, 59600, Note_on_c, 1, 72, 75
2, 59612, Control_c, 1, 64, 0
2, 59704, Note_off_c, 1, 67, 64
2, 59704, Note_on_c, 1, 55, 70
2, 59708, Note_on_c, 1, 70, 75
2, 59712, Note_off_c, 1, 72, 64
2, 59712, Note_on_c, 1, 58, 54
2, 59712, Note_on_c, 1, 63, 54
2, 59796, Note_off_c, 1, 70, 64
2, 59796, Control_c, 1, 64, 127
2, 59808, Note_on_c, 1, 67, 75
2, 59836, Note_off_c, 1, 67, 64
2, 59908, Note_on_c, 1, 51, 60
2, 59912, Note_off_c, 1, 58, 64
2, 59916, Note_on_c, 1, 67, 75
2, 59916, Note_on_c, 1, 70, 61
2, 59920, Control_c, 1, 64, 0
2, 59924, Note_off_c, 1, 55, 64
2, 59932, Note_off_c, 1, 63, 64
2, 59944, Note_off_c, 1, 51, 64
2, 60056, Note_off_c, 1, 67, 64
2, 60064, Note_off_c, 1, 70, 64
2, 60124, Note_on_c, 1, 55, 47
2, 60124, Note_on_c, 1, 75, 66
2, 60124, Note_on_c, 1, 63, 39
2, 60128, Note_on_c, 1, 67, 75
2, 60128, Note_on_c, 1, 58, 37
2, 60144, Note_off_c, 1, 58, 64
2, 60148, Note_off_c, 1, 55, 64
2, 60148, Control_c, 1, 64, 127
2, 60152, Note_off_c, 1, 63, 64
2, 60244, Note_off_c, 1, 75, 64
2, 60244, Control_c, 1, 64, 0
2, 60248, Note_off_c, 1, 67, 64
2, 60324, Note_on_c, 1, 46, 69
2, 60332, Note_on_c, 1, 74, 77
2, 60332, Note_on_c, 1, 67, 68
2, 60336, Control_c, 1, 64, 127
2, 60352, Note_off_c, 1, 46, 64
2, 60464, Note_off_c, 1, 74, 64
2, 60468, Note_off_c, 1, 67, 64
2, 60528, Note_on_c, 1, 55, 66
2, 60528, Control_c, 1, 64, 0
2, 60532, Note_on_c, 1, 72, 71
2, 60540, Note_on_c, 1, 58, 59
2, 60540, Note_on_c, 1, 67, 75
2, 60540, Note_on_c, 1, 63, 52
2, 60580, Control_c, 1, 64, 127
2, 60604, Note_off_c, 1, 55, 64
2, 60612, Note_off_c, 1, 63, 64
2, 60636, Note_off_c, 1, 58, 64
2, 60652, Note_off_c, 1, 67, 64
2, 60664, Note_off_c, 1, 72, 64
2, 60752, Note_on_c, 1, 53, 66
2, 60752, Note_on_c, 1, 68, 65
2, 60752, Note_on_c, 1, 70, 65
2, 60752, Control_c, 1, 64, 0
2, 60820, Note_off_c, 1, 68, 64
2, 60820, Note_off_c, 1, 70, 64
2, 60848, Note_on_c, 1, 68, 73
2, 60852, Note_on_c, 1, 74, 73
2, 60864, Control_c, 1, 64, 127
2, 60952, Control_c, 1, 64, 0
2, 60956, Note_on_c, 1, 56, 56
2, 60960, Note_on_c, 1, 58, 60
2, 60960, Note_on_c, 1, 62, 65
2, 60976, Note_off_c, 1, 68, 64
2, 60980, Control_c, 1, 64, 127
2, 60992, Note_off_c, 1, 74, 64
2, 60992, Note_off_c, 1, 56, 64
2, 61004, Note_off_c, 1, 58, 64
2, 61004, Note_off_c, 1, 62, 64
2, 61008, Note_off_c, 1, 53, 64
2, 61060, Note_on_c, 1, 72, 70
2, 61060, Note_on_c, 1, 68, 64
2, 61156, Note_on_c, 1, 46, 68
2, 61156, Control_c, 1, 64, 0
2, 61188, Control_c, 1, 64, 127
2, 61216, Note_off_c, 1, 46, 64
2, 61256, Note_off_c, 1, 72, 64
2, 61256, Note_on_c, 1, 70, 77
2, 61352, Note_off_c, 1, 68, 64
2, 61364, Note_on_c, 1, 65, 71
2, 61364, Note_on_c, 1, 56, 54
2, 61364, Note_on_c, 1, 62, 66
2, 61368, Note_on_c, 1, 58, 59
2, 61368, Control_c, 1, 64, 0
2, 61464, Note_on_c, 1, 67, 75
2, 61472, Note_off_c, 1, 70, 64
2, 61472, Control_c, 1, 64, 127
2, 61536, Note_off_c, 1, 58, 64
2, 61544, Note_off_c, 1, 56, 64
2, 61548, Note_off_c, 1, 62, 64
2, 61576, Note_on_c, 1, 68, 73
2, 61576, Control_c, 1, 64, 0
2, 61580, Note_off_c, 1, 67, 64
2, 61580, Note_on_c, 1, 53, 67
2, 61640, Control_c, 1, 64, 127
2, 61660, Note_off_c, 1, 68, 64
2, 61668, Note_off_c, 1, 65, 64
2, 61780, Control_c, 1, 64, 0
2, 61784, Note_on_c, 1, 68, 66
2, 61788, Note_on_c, 1, 74, 73
2, 61788, Note_on_c, 1, 56, 52
2, 61788, Note_on_c, 1, 62, 56
2, 61816, Control_c, 1, 64, 127
2, 61832, Note_off_c, 1, 56, 64
2, 61832, Note_off_c, 1, 62, 64
2, 61844, Note_off_c, 1, 53, 64
2, 61908, Note_off_c, 1, 68, 64
2, 61916, Note_off_c, 1, 74, 64
2, 61996, Note_on_c, 1, 68, 68
2, 61996, Control_c, 1, 64, 0
2, 62000, Note_on_c, 1, 46, 54
2, 62000, Note_on_c, 1, 72, 68
2, 62028, Control_c, 1, 64, 127
2, 62040, Note_off_c, 1, 46, 64
2, 62116, Note_off_c, 1, 68, 64
2, 62120, Note_off_c, 1, 72, 64
2, 62208, Note_on_c, 1, 70, 64
2, 62212, Note_on_c, 1, 56, 43
2, 62212, Note_on_c, 1, 68, 59
2, 62212, Note_on_c, 1, 58, 40
2, 62212, Note_on_c, 1, 62, 41
2, 62216, Control_c, 1, 64, 0
2, 62248, Control_c, 1, 64, 127
2, 62296, Note_off_c, 1, 56, 64
2, 62296, Note_off_c, 1, 58, 64
2, 62300, Note_off_c, 1, 62, 64
2, 62316, Note_off_c, 1, 70, 64
2, 62324, Note_off_c, 1, 68, 64
2, 62404, Note_on_c, 1, 68, 65
2, 62416, Control_c, 1, 64, 0
2, 62420, Note_on_c, 1, 53, 39
2, 62464, Note_off_c, 1, 68, 64
2, 62472, Control_c, 1, 64, 127
2, 62504, Note_on_c, 1, 68, 66
2, 62512, Note_on_c, 1, 74, 68
2, 62608, Note_off_c, 1, 68, 64
2, 62608, Control_c, 1, 64, 0
2, 62616, Note_on_c, 1, 62, 54
2, 62616, Note_on_c, 1, 56, 40
2, 62620, Note_off_c, 1, 74, 64
2, 62620, Control_c, 1, 64, 127
2, 62648, Note_off_c, 1, 62, 64
2, 62656, Note_off_c, 1, 56, 64
2, 62664, Note_off_c, 1, 53, 64
2, 62712, Note_on_c, 1, 68, 55
2, 62720, Note_on_c, 1, 72, 62
2, 62768, Note_off_c, 1, 68, 64
2, 62788, Note_off_c, 1, 72, 64
2, 62812, Note_on_c, 1, 46, 57
2, 62832, Note_off_c, 1, 46, 64
2, 62920, Note_on_c, 1, 70, 80
2, 62992, Note_off_c, 1, 70, 64
2, 63024, Note_on_c, 1, 56, 54
2, 63028, Note_on_c, 1, 62, 66
2, 63032, Note_on_c, 1, 58, 41
2, 63036, Note_on_c, 1, 74, 86
2, 63068, Note_off_c, 1, 74, 64
2, 63096, Note_off_c, 1, 58, 64
2, 63116, Note_off_c, 1, 56, 64
2, 63128, Note_off_c, 1, 62, 64
2, 63132, Note_on_c, 1, 77, 95
2, 63160, Note_off_c, 1, 77, 64
2, 63232, Note_on_c, 1, 53, 96
2, 63248, Note_on_c, 1, 80, 66
2, 63248, Note_on_c, 1, 68, 75
2, 63248, Note_on_c, 1, 74, 78
2, 63248, Control_c, 1, 64, 0
2, 63308, Note_off_c, 1, 80, 64
2, 63308, Note_off_c, 1, 68, 64
2, 63308, Note_off_c, 1, 74, 64
2, 63312, Control_c, 1, 64, 127
2, 63448, Note_on_c, 1, 80, 69
2, 63448, Note_on_c, 1, 74, 88
2, 63448, Note_on_c, 1, 68, 77
2, 63448, Note_on_c, 1, 62, 71
2, 63448, Control_c, 1, 64, 0
2, 63452, Note_on_c, 1, 58, 73
2, 63468, Control_c, 1, 64, 127
2, 63508, Note_off_c, 1, 53, 64
2, 63512, Note_off_c, 1, 58, 64
2, 63520, Note_off_c, 1, 62, 64
2, 63652, Note_on_c, 1, 54, 108
2, 63668, Control_c, 1, 64, 0
2, 63736, Control_c, 1, 64, 127
2, 63740, Note_off_c, 1, 74, 64
2, 63752, Note_off_c, 1, 68, 64
2, 63760, Note_off_c, 1, 80, 64
2, 63872, Note_on_c, 1, 60, 85
2, 63872, Note_on_c, 1, 63, 83
2, 63872, Note_on_c, 1, 75, 85
2, 63876, Note_on_c, 1, 81, 93
2, 63876, Note_on_c, 1, 69, 83
2, 63876, Control_c, 1, 64, 0
2, 63912, Control_c, 1, 64, 127
2, 63936, Note_off_c, 1, 75, 64
2, 63936, Note_off_c, 1, 81, 64
2, 63936, Note_off_c, 1, 69, 64
2, 63944, Note_off_c, 1, 54, 64
2, 63976, Note_off_c, 1, 60, 64
2, 63976, Note_off_c, 1, 63, 64
2, 64068, Note_on_c, 1, 55, 90
2, 64080, Note_on_c, 1, 82, 78
2, 64080, Note_on_c, 1, 75, 75
2, 64084, Note_on_c, 1, 70, 66
2, 64096, Control_c, 1, 64, 0
2, 64148, Control_c, 1, 64, 127
2, 64184, Note_off_c, 1, 70, 64
2, 64212, Note_off_c, 1, 82, 64
2, 64212, Note_off_c, 1, 75, 64
2, 64276, Note_on_c, 1, 75, 71
2, 64276, Note_on_c, 1, 63, 73
2, 64276, Note_on_c, 1, 58, 77
2, 64284, Control_c, 1, 64, 0
2, 64332, Control_c, 1, 64, 127
2, 64360, Note_off_c, 1, 75, 64
2, 64376, Note_on_c, 1, 77, 88
2, 64392, Note_off_c, 1, 63, 64
2, 64392, Note_off_c, 1, 58, 64
2, 64480, Note_on_c, 1, 79, 90
2, 64484, Control_c, 1, 64, 0
2, 64488, Note_off_c, 1, 77, 64
2, 64488, Note_on_c, 1, 63, 64
2, 64488, Note_on_c, 1, 58, 68
2, 64492, Control_c, 1, 64, 127
2, 64504, Note_off_c, 1, 79, 64
2, 64584, Note_on_c, 1, 67, 90
2, 64704, Note_off_c, 1, 55, 64
2, 64704, Note_off_c, 1, 63, 64
2, 64704, Note_on_c, 1, 68, 82
2, 64708, Note_off_c, 1, 58, 64
2, 64764, Note_off_c, 1, 67, 64
2, 64800, Note_on_c, 1, 69, 75
2, 64820, Note_off_c, 1, 68, 64
2, 64860, Control_c, 1, 64, 0
2, 64912, Note_on_c, 1, 51, 66
2, 64912, Note_on_c, 1, 70, 70
2, 64928, Note_off_c, 1, 69, 64
2, 64944, Note_off_c, 1, 70, 64
2, 65128, Note_on_c, 1, 75, 67
2, 65128, Note_on_c, 1, 63, 51
2, 65128, Note_on_c, 1, 67, 75
2, 65128, Note_on_c, 1, 58, 37
2, 65140, Note_off_c, 1, 58, 64
2, 65144, Note_off_c, 1, 63, 64
2, 65156, Note_off_c, 1, 51, 64
2, 65160, Note_off_c, 1, 75, 64
2, 65180, Note_off_c, 1, 67, 64
2, 65316, Note_on_c, 1, 46, 63
2, 65316, Note_on_c, 1, 74, 78
2, 65320, Note_on_c, 1, 67, 65
2, 65340, Note_off_c, 1, 46, 64
2, 65396, Note_off_c, 1, 74, 64
2, 65396, Note_off_c, 1, 67, 64
2, 65520, Note_on_c, 1, 55, 63
2, 65520, Note_on_c, 1, 72, 71
2, 65520, Note_on_c, 1, 67, 70
2, 65524, Note_on_c, 1, 63, 54
2, 65580, Note_off_c, 1, 72, 64
2, 65580, Note_on_c, 1, 58, 32
2, 65592, Note_off_c, 1, 67, 64
2, 65724, Note_on_c, 1, 51, 60
2, 65724, Note_on_c, 1, 70, 62
2, 65732, Note_on_c, 1, 67, 71
2, 65736, Note_off_c, 1, 58, 64
2, 65744, Note_off_c, 1, 70, 64
2, 65752, Note_off_c, 1, 55, 64
2, 65756, Note_off_c, 1, 67, 64
2, 65764, Note_off_c, 1, 63, 64
2, 65824, Note_on_c, 1, 75, 66
2, 65828, Note_on_c, 1, 67, 73
2, 65832, Note_off_c, 1, 51, 64
2, 65940, Note_off_c, 1, 75, 64
2, 65940, Note_on_c, 1, 55, 70
2, 65940, Note_on_c, 1, 63, 61
2, 65940, Note_on_c, 1, 58, 53
2, 65952, Note_off_c, 1, 67, 64
2, 65968, Control_c, 1, 64, 127
2, 65976, Note_off_c, 1, 58, 64
2, 65980, Note_off_c, 1, 55, 64
2, 65980, Note_off_c, 1, 63, 64
2, 66040, Note_on_c, 1, 74, 73
2, 66040, Note_on_c, 1, 67, 77
2, 66048, Control_c, 1, 64, 0
2, 66152, Note_on_c, 1, 46, 80
2, 66152, Control_c, 1, 64, 127
2, 66160, Note_off_c, 1, 46, 64
2, 66232, Note_off_c, 1, 74, 64
2, 66248, Note_on_c, 1, 72, 80
2, 66340, Note_off_c, 1, 67, 64
2, 66352, Note_on_c, 1, 63, 64
2, 66356, Note_on_c, 1, 58, 70
2, 66356, Note_on_c, 1, 55, 90
2, 66360, Note_on_c, 1, 70, 80
2, 66364, Note_off_c, 1, 72, 64
2, 66364, Note_off_c, 1, 63, 64
2, 66364, Note_off_c, 1, 58, 64
2, 66372, Note_off_c, 1, 55, 64
2, 66456, Note_off_c, 1, 70, 64
2, 66460, Note_on_c, 1, 67, 80
2, 66460, Note_on_c, 1, 65, 77
2, 66476, Note_off_c, 1, 65, 64
2, 66508, Note_off_c, 1, 67, 64
2, 66552, Note_on_c, 1, 47, 96
2, 66552, Control_c, 1, 64, 0
2, 66568, Note_on_c, 1, 79, 88
2, 66572, Note_on_c, 1, 67, 88
2, 66580, Note_off_c, 1, 47, 64
2, 66580, Control_c, 1, 64, 127
2, 66644, Note_off_c, 1, 79, 64
2, 66664, Note_off_c, 1, 67, 64
2, 66764, Note_on_c, 1, 55, 75
2, 66764, Note_on_c, 1, 62, 69
2, 66772, Note_on_c, 1, 79, 90
2, 66772, Note_on_c, 1, 71, 80
2, 66776, Note_on_c, 1, 67, 80
2, 66780, Note_off_c, 1, 62, 64
2, 66784, Note_off_c, 1, 55, 64
2, 66908, Control_c, 1, 64, 0
2, 66976, Note_on_c, 1, 43, 100
2, 66980, Control_c, 1, 64, 127
2, 67000, Note_off_c, 1, 43, 64
2, 67092, Note_off_c, 1, 79, 64
2, 67100, Note_off_c, 1, 71, 64
2, 67116, Note_off_c, 1, 67, 64
2, 67212, Note_on_c, 1, 62, 71
2, 67212, Note_on_c, 1, 77, 85
2, 67212, Note_on_c, 1, 55, 77
2, 67212, Note_on_c, 1, 71, 85
2, 67212, Note_on_c, 1, 67, 80
2, 67216, Note_on_c, 1, 65, 65
2, 67228, Note_off_c, 1, 62, 64
2, 67228, Note_off_c, 1, 65, 64
2, 67232, Note_off_c, 1, 55, 64
2, 67308, Note_off_c, 1, 71, 64
2, 67320, Note_off_c, 1, 77, 64
2, 67332, Note_off_c, 1, 67, 64
2, 67396, Control_c, 1, 64, 0
2, 67412, Note_on_c, 1, 48, 85
2, 67416, Note_on_c, 1, 75, 83
2, 67420, Note_on_c, 1, 72, 85
2, 67424, Note_on_c, 1, 67, 83
2, 67428, Control_c, 1, 64, 127
2, 67440, Note_off_c, 1, 48, 64
2, 67488, Note_off_c, 1, 72, 64
2, 67488, Note_off_c, 1, 67, 64
2, 67496, Note_off_c, 1, 75, 64
2, 67616, Note_on_c, 1, 55, 78
2, 67616, Note_on_c, 1, 60, 71
2, 67620, Note_on_c, 1, 63, 63
2, 67620, Note_on_c, 1, 84, 88
2, 67680, Note_off_c, 1, 84, 64
2, 67720, Note_on_c, 1, 86, 83
2, 67728, Note_off_c, 1, 55, 64
2, 67732, Note_off_c, 1, 60, 64
2, 67732, Note_off_c, 1, 63, 64
2, 67824, Note_off_c, 1, 86, 64
2, 67824, Note_on_c, 1, 87, 75
2, 67832, Note_on_c, 1, 63, 66
2, 67832, Note_on_c, 1, 60, 71
2, 67836, Note_off_c, 1, 87, 64
2, 67836, Note_on_c, 1, 55, 77
2, 68000, Note_off_c, 1, 63, 64
2, 68032, Note_off_c, 1, 60, 64
2, 68032, Note_off_c, 1, 55, 64
2, 68032, Note_on_c, 1, 72, 90
2, 68040, Control_c, 1, 64, 0
2, 68068, Control_c, 1, 64, 127
2, 68148, Note_off_c, 1, 72, 64
2, 68244, Note_on_c, 1, 44, 77
2, 68244, Note_on_c, 1, 77, 88
2, 68256, Note_on_c, 1, 75, 78
2, 68256, Note_on_c, 1, 56, 73
2, 68256, Note_on_c, 1, 72, 77
2, 68256, Control_c, 1, 64, 0
2, 68308, Note_off_c, 1, 75, 64
2, 68316, Note_off_c, 1, 77, 64
2, 68320, Note_off_c, 1, 72, 64
2, 68468, Note_on_c, 1, 77, 81
2, 68468, Note_on_c, 1, 75, 77
2, 68468, Note_on_c, 1, 72, 85
2, 68512, Control_c, 1, 64, 127
2, 68536, Note_off_c, 1, 72, 64
2, 68540, Note_off_c, 1, 77, 64
2, 68544, Note_off_c, 1, 75, 64
2, 68552, Note_off_c, 1, 44, 64
2, 68552, Note_off_c, 1, 56, 64
2, 68668, Note_on_c, 1, 78, 86
2, 68668, Note_on_c, 1, 45, 78
2, 68668, Note_on_c, 1, 75, 85
2, 68668, Note_on_c, 1, 57, 83
2, 68668, Note_on_c, 1, 72, 83
2, 68668, Control_c, 1, 64, 0
2, 68732, Note_off_c, 1, 75, 64
2, 68732, Note_off_c, 1, 72, 64
2, 68736, Note_off_c, 1, 78, 64
2, 68872, Note_on_c, 1, 78, 85
2, 68876, Note_on_c, 1, 75, 80
2, 68880, Note_on_c, 1, 72, 85
2, 68880, Control_c, 1, 64, 127
2, 68900, Note_off_c, 1, 72, 64
2, 68904, Note_off_c, 1, 75, 64
2, 68912, Note_off_c, 1, 45, 64
2, 68912, Note_off_c, 1, 57, 64
2, 68912, Note_off_c, 1, 78, 64
2, 69064, Control_c, 1, 64, 0
2, 69076, Note_on_c, 1, 79, 86
2, 69076, Note_on_c, 1, 70, 68
2, 69080, Note_on_c, 1, 75, 78
2, 69080, Note_on_c, 1, 46, 85
2, 69080, Note_on_c, 1, 58, 70
2, 69100, Note_off_c, 1, 46, 64
2, 69100, Control_c, 1, 64, 127
2, 69108, Note_off_c, 1, 75, 64
2, 69120, Note_off_c, 1, 79, 64
2, 69120, Note_off_c, 1, 70, 64
2, 69124, Note_off_c, 1, 58, 64
2, 69172, Note_on_c, 1, 79, 88
2, 69172, Note_on_c, 1, 75, 78
2, 69172, Note_on_c, 1, 70, 66
2, 69252, Note_off_c, 1, 75, 64
2, 69252, Note_off_c, 1, 70, 64
2, 69276, Note_off_c, 1, 79, 64
2, 69276, Note_on_c, 1, 55, 85
2, 69276, Note_on_c, 1, 58, 71
2, 69280, Note_on_c, 1, 63, 62
2, 69312, Note_off_c, 1, 63, 64
2, 69320, Note_off_c, 1, 55, 64
2, 69320, Note_off_c, 1, 58, 64
2, 69376, Note_on_c, 1, 82, 77
2, 69376, Note_on_c, 1, 79, 90
2, 69376, Note_on_c, 1, 75, 77
2, 69376, Note_on_c, 1, 70, 65
2, 69388, Note_off_c, 1, 75, 64
2, 69388, Note_off_c, 1, 70, 64
2, 69392, Note_off_c, 1, 79, 64
2, 69408, Note_off_c, 1, 82, 64
2, 69484, Note_on_c, 1, 48, 86
2, 69488, Note_on_c, 1, 70, 80
2, 69488, Note_on_c, 1, 80, 80
2, 69488, Note_on_c, 1, 76, 88
2, 69488, Control_c, 1, 64, 0
2, 69512, Note_off_c, 1, 48, 64
2, 69520, Control_c, 1, 64, 127
2, 69592, Note_off_c, 1, 80, 64
2, 69604, Note_off_c, 1, 70, 64
2, 69604, Note_off_c, 1, 76, 64
2, 69692, Note_on_c, 1, 79, 90
2, 69696, Note_on_c, 1, 70, 70
2, 69696, Note_on_c, 1, 76, 92
2, 69696, Note_on_c, 1, 55, 77
2, 69696, Note_on_c, 1, 60, 70
2, 69700, Note_on_c, 1, 64, 70
2, 69700, Control_c, 1, 64, 0
2, 69720, Control_c, 1, 64, 127
2, 69744, Note_off_c, 1, 55, 64
2, 69748, Note_off_c, 1, 64, 64
2, 69752, Note_off_c, 1, 60, 64
2, 69768, Note_off_c, 1, 79, 64
2, 69768, Note_off_c, 1, 70, 64
2, 69768, Note_off_c, 1, 76, 64
2, 69904, Note_on_c, 1, 53, 90
2, 69904, Control_c, 1, 64, 0
2, 69908, Note_on_c, 1, 60, 77
2, 69908, Note_on_c, 1, 63, 65
2, 69908, Note_on_c, 1, 69, 88
2, 69908, Note_on_c, 1, 79, 88
2, 69956, Control_c, 1, 64, 127
2, 69968, Note_off_c, 1, 69, 64
2, 69984, Note_off_c, 1, 79, 64
2, 70020, Note_on_c, 1, 79, 73
2, 70020, Note_on_c, 1, 69, 77
2, 70056, Note_off_c, 1, 53, 64
2, 70060, Note_off_c, 1, 60, 64
2, 70064, Note_off_c, 1, 63, 64
2, 70104, Note_on_c, 1, 63, 69
2, 70108, Note_on_c, 1, 60, 80
2, 70112, Note_off_c, 1, 79, 64
2, 70112, Note_off_c, 1, 69, 64
2, 70112, Note_on_c, 1, 53, 93
2, 70112, Control_c, 1, 64, 0
2, 70216, Note_on_c, 1, 75, 90
2, 70216, Note_on_c, 1, 69, 85
2, 70216, Control_c, 1, 64, 127
2, 70236, Note_off_c, 1, 75, 64
2, 70244, Note_off_c, 1, 69, 64
2, 70248, Note_off_c, 1, 63, 64
2, 70252, Note_off_c, 1, 53, 64
2, 70272, Note_off_c, 1, 60, 64
2, 70312, Note_on_c, 1, 58, 68
2, 70312, Note_on_c, 1, 68, 77
2, 70312, Note_on_c, 1, 77, 85
2, 70312, Note_on_c, 1, 62, 71
2, 70320, Control_c, 1, 64, 0
2, 70392, Control_c, 1, 64, 127
2, 70412, Note_on_c, 1, 75, 80
2, 70420, Note_off_c, 1, 77, 64
2, 70440, Note_off_c, 1, 68, 64
2, 70448, Note_off_c, 1, 75, 64
2, 70452, Note_off_c, 1, 58, 64
2, 70460, Note_off_c, 1, 62, 64
2, 70516, Note_on_c, 1, 77, 88
2, 70516, Note_on_c, 1, 68, 85
2, 70528, Note_on_c, 1, 58, 67
2, 70528, Note_on_c, 1, 62, 67
2, 70528, Control_c, 1, 64, 0
2, 70560, Control_c, 1, 64, 127
2, 70580, Note_off_c, 1, 62, 64
2, 70588, Note_off_c, 1, 58, 64
2, 70624, Note_off_c, 1, 68, 64
2, 70632, Note_off_c, 1, 77, 64
2, 70740, Note_on_c, 1, 75, 90
2, 70740, Note_on_c, 1, 63, 78
2, 70740, Note_on_c, 1, 51, 70
2, 70740, Note_on_c, 1, 67, 93
2, 70740, Note_on_c, 1, 58, 61
2, 70740, Control_c, 1, 64, 0
2, 70772, Control_c, 1, 64, 127
2, 70776, Note_off_c, 1, 63, 64
2, 70796, Note_off_c, 1, 58, 64
2, 70812, Note_off_c, 1, 51, 64
2, 70856, Control_c, 1, 64, 0
2, 70956, Note_on_c, 1, 46, 88
2, 70956, Note_on_c, 1, 58, 83
2, 70960, Control_c, 1, 64, 127
2, 70972, Note_off_c, 1, 58, 64
2, 70976, Note_off_c, 1, 46, 64
2, 71024, Note_off_c, 1, 67, 64
2, 71028, Note_off_c, 1, 75, 64
2, 71192, Note_on_c, 1, 51, 100
2, 71192, Note_on_c, 1, 39, 112
2, 71196, Note_on_c, 1, 67, 88
2, 71196, Note_on_c, 1, 73, 88
2, 71196, Note_on_c, 1, 75, 108
2, 71200, Control_c, 1, 64, 0
2, 71244, Control_c, 1, 64, 127
2, 71296, Note_off_c, 1, 67, 64
2, 71300, Note_off_c, 1, 73, 64
2, 71304, Note_off_c, 1, 75, 64
2, 71372, Note_off_c, 1, 39, 64
2, 71384, Note_off_c, 1, 51, 64
2, 71500, Control_c, 1, 64, 0
2, 71640, Note_on_c, 1, 56, 60
2, 71640, Note_on_c, 1, 44, 60
2, 71660, Note_off_c, 1, 56, 64
2, 71668, Note_off_c, 1, 44, 64
2, 71676, Note_on_c, 1, 75, 70
2, 71680, Note_on_c, 1, 63, 68
2, 71768, Note_on_c, 1, 68, 59
2, 71792, Note_off_c, 1, 75, 64
2, 71792, Note_off_c, 1, 63, 64
2, 71792, Note_off_c, 1, 68, 64
2, 71864, Note_on_c, 1, 56, 61
2, 71868, Note_on_c, 1, 51, 50
2, 71872, Note_on_c, 1, 75, 67
2, 71872, Note_on_c, 1, 60, 57
2, 71872, Note_on_c, 1, 63, 71
2, 71880, Note_off_c, 1, 56, 64
2, 71884, Note_off_c, 1, 60, 64
2, 71892, Note_off_c, 1, 51, 64
2, 71956, Note_on_c, 1, 68, 66
2, 71972, Note_off_c, 1, 63, 64
2, 72036, Note_off_c, 1, 75, 64
2, 72076, Note_off_c, 1, 68, 64
2, 72076, Note_on_c, 1, 39, 66
2, 72076, Note_on_c, 1, 72, 73
2, 72076, Note_on_c, 1, 51, 65
2, 72080, Note_off_c, 1, 39, 64
2, 72080, Note_off_c, 1, 72, 64
2, 72088, Note_off_c, 1, 51, 64
2, 72168, Note_on_c, 1, 75, 67
2, 72176, Note_on_c, 1, 63, 65
2, 72276, Note_on_c, 1, 51, 66
2, 72276, Note_on_c, 1, 60, 61
2, 72288, Note_on_c, 1, 56, 67
2, 72296, Note_off_c, 1, 51, 64
2, 72296, Note_off_c, 1, 60, 64
2, 72300, Note_off_c, 1, 56, 64
2, 72376, Note_on_c, 1, 68, 69
2, 72396, Note_off_c, 1, 63, 64
2, 72404, Note_off_c, 1, 75, 64
2, 72416, Note_off_c, 1, 68, 64
2, 72488, Note_on_c, 1, 57, 63
2, 72488, Note_on_c, 1, 63, 64
2, 72492, Note_on_c, 1, 45, 60
2, 72492, Note_on_c, 1, 72, 70
2, 72512, Note_off_c, 1, 45, 64
2, 72520, Note_off_c, 1, 57, 64
2, 72588, Note_on_c, 1, 69, 70
2, 72608, Note_off_c, 1, 72, 64
2, 72684, Note_on_c, 1, 72, 71
2, 72688, Note_on_c, 1, 45, 67
2, 72692, Note_off_c, 1, 69, 64
2, 72692, Note_on_c, 1, 57, 62
2, 72704, Note_off_c, 1, 63, 64
2, 72704, Note_off_c, 1, 72, 64
2, 72704, Note_off_c, 1, 57, 64
2, 72712, Note_off_c, 1, 45, 64
2, 72796, Note_on_c, 1, 73, 73
2, 72800, Note_on_c, 1, 63, 63
2, 72800, Note_on_c, 1, 69, 78
2, 72896, Note_on_c, 1, 41, 68
2, 72896, Note_on_c, 1, 53, 66
2, 72908, Note_off_c, 1, 63, 64
2, 72908, Note_off_c, 1, 69, 64
2, 72916, Note_off_c, 1, 73, 64
2, 73000, Note_on_c, 1, 63, 61
2, 73004, Note_on_c, 1, 72, 69
2, 73004, Note_on_c, 1, 69, 71
2, 73012, Note_off_c, 1, 41, 64
2, 73012, Note_off_c, 1, 53, 64
2, 73080, Control_c, 1, 64, 127
2, 73084, Note_off_c, 1, 69, 64
2, 73092, Note_off_c, 1, 72, 64
2, 73104, Note_on_c, 1, 41, 70
2, 73108, Note_on_c, 1, 53, 66
2, 73124, Note_off_c, 1, 63, 64
2, 73124, Note_off_c, 1, 41, 64
2, 73136, Note_off_c, 1, 53, 64
2, 73204, Note_on_c, 1, 69, 67
2, 73228, Note_off_c, 1, 69, 64
2, 73312, Note_on_c, 1, 68, 61
2, 73312, Control_c, 1, 64, 0
2, 73316, Note_on_c, 1, 72, 66
2, 73316, Note_on_c, 1, 65, 70
2, 73320, Note_on_c, 1, 62, 66
2, 73320, Note_on_c, 1, 38, 49
2, 73320, Note_on_c, 1, 50, 61
2, 73372, Control_c, 1, 64, 127
2, 73424, Note_off_c, 1, 38, 64
2, 73432, Note_off_c, 1, 50, 64
2, 73444, Note_off_c, 1, 68, 64
2, 73444, Note_off_c, 1, 72, 64
2, 73456, Note_off_c, 1, 65, 64
2, 73456, Note_off_c, 1, 62, 64
2, 73516, Note_on_c, 1, 68, 64
2, 73524, Note_on_c, 1, 38, 61
2, 73524, Note_on_c, 1, 65, 66
2, 73524, Note_on_c, 1, 70, 60
2, 73524, Note_on_c, 1, 50, 58
2, 73524, Note_on_c, 1, 62, 48
2, 73524, Control_c, 1, 64, 0
2, 73536, Note_off_c, 1, 68, 64
2, 73536, Note_off_c, 1, 38, 64
2, 73540, Note_off_c, 1, 65, 64
2, 73540, Note_off_c, 1, 70, 64
2, 73540, Note_off_c, 1, 50, 64
2, 73540, Note_off_c, 1, 62, 64
2, 73628, Note_on_c, 1, 68, 73
2, 73628, Note_on_c, 1, 72, 80
2, 73632, Note_on_c, 1, 65, 73
2, 73640, Note_on_c, 1, 62, 66
2, 73720, Note_on_c, 1, 34, 51
2, 73728, Note_on_c, 1, 46, 57
2, 73788, Note_off_c, 1, 68, 64
2, 73836, Note_on_c, 1, 70, 70
2, 73840, Note_off_c, 1, 72, 64
2, 73856, Note_off_c, 1, 34, 64
2, 73856, Note_off_c, 1, 46, 64
2, 73928, Note_off_c, 1, 65, 64
2, 73932, Note_on_c, 1, 68, 62
2, 73932, Note_on_c, 1, 34, 58
2, 73940, Note_on_c, 1, 46, 54
2, 73948, Control_c, 1, 64, 127
2, 73952, Note_off_c, 1, 70, 64
2, 73956, Note_off_c, 1, 34, 64
2, 73968, Note_off_c, 1, 46, 64
2, 73976, Note_off_c, 1, 62, 64
2, 74040, Note_off_c, 1, 68, 64
2, 74136, Note_on_c, 1, 72, 71
2, 74140, Note_on_c, 1, 68, 67
2, 74144, Note_on_c, 1, 62, 69
2, 74144, Note_on_c, 1, 41, 61
2, 74144, Control_c, 1, 64, 0
2, 74148, Note_on_c, 1, 53, 65
2, 74196, Control_c, 1, 64, 127
2, 74248, Note_off_c, 1, 53, 64
2, 74256, Note_off_c, 1, 41, 64
2, 74264, Note_off_c, 1, 72, 64
2, 74268, Note_off_c, 1, 68, 64
2, 74272, Note_off_c, 1, 62, 64
2, 74352, Control_c, 1, 64, 0
2, 74356, Note_on_c, 1, 70, 64
2, 74356, Note_on_c, 1, 53, 61
2, 74356, Note_on_c, 1, 41, 60
2, 74356, Note_on_c, 1, 62, 67
2, 74360, Note_on_c, 1, 68, 54
2, 74376, Note_off_c, 1, 68, 64
2, 74380, Note_off_c, 1, 70, 64
2, 74380, Note_off_c, 1, 53, 64
2, 74380, Note_off_c, 1, 41, 64
2, 74380, Note_off_c, 1, 62, 64
2, 74468, Note_on_c, 1, 72, 83
2, 74472, Note_on_c, 1, 68, 70
2, 74472, Note_on_c, 1, 62, 71
2, 74544, Note_on_c, 1, 34, 57
2, 74560, Note_on_c, 1, 46, 56
2, 74584, Control_c, 1, 64, 127
2, 74636, Note_off_c, 1, 68, 64
2, 74660, Note_on_c, 1, 70, 70
2, 74688, Note_off_c, 1, 72, 64
2, 74708, Note_off_c, 1, 34, 64
2, 74720, Note_off_c, 1, 46, 64
2, 74760, Note_on_c, 1, 68, 75
2, 74760, Note_on_c, 1, 34, 66
2, 74772, Note_on_c, 1, 46, 59
2, 74780, Note_off_c, 1, 70, 64
2, 74788, Note_off_c, 1, 34, 64
2, 74792, Note_off_c, 1, 46, 64
2, 74836, Note_off_c, 1, 62, 64
2, 74852, Note_off_c, 1, 68, 64
2, 74864, Note_on_c, 1, 65, 73
2, 74884, Control_c, 1, 64, 0
2, 74932, Note_off_c, 1, 65, 64
2, 74976, Note_on_c, 1, 39, 65
2, 74984, Note_on_c, 1, 73, 77
2, 74984, Note_on_c, 1, 63, 69
2, 74984, Note_on_c, 1, 51, 56
2, 74988, Note_off_c, 1, 39, 64
2, 74988, Control_c, 1, 64, 127
2, 75000, Note_off_c, 1, 51, 64
2, 75044, Note_off_c, 1, 63, 64
2, 75192, Note_on_c, 1, 51, 66
2, 75192, Note_on_c, 1, 61, 64
2, 75192, Note_on_c, 1, 55, 78
2, 75192, Control_c, 1, 64, 0
2, 75204, Note_off_c, 1, 61, 64
2, 75208, Note_off_c, 1, 55, 64
2, 75212, Note_off_c, 1, 51, 64
2, 75292, Note_on_c, 1, 65, 67
2, 75336, Note_on_c, 1, 67, 65
2, 75364, Note_off_c, 1, 73, 64
2, 75384, Note_off_c, 1, 67, 64
2, 75392, Note_on_c, 1, 43, 73
2, 75392, Note_on_c, 1, 70, 67
2, 75392, Note_on_c, 1, 55, 68
2, 75408, Note_off_c, 1, 65, 64
2, 75408, Note_off_c, 1, 43, 64
2, 75408, Note_off_c, 1, 70, 64
2, 75408, Note_off_c, 1, 55, 64
2, 75500, Note_on_c, 1, 65, 83
2, 75500, Note_on_c, 1, 73, 68
2, 75604, Note_on_c, 1, 51, 57
2, 75604, Note_on_c, 1, 61, 54
2, 75604, Note_on_c, 1, 55, 73
2, 75620, Note_off_c, 1, 51, 64
2, 75620, Note_off_c, 1, 55, 64
2, 75624, Note_off_c, 1, 61, 64
2, 75632, Control_c, 1, 64, 127
2, 75696, Note_off_c, 1, 65, 64
2, 75708, Note_off_c, 1, 73, 64
2, 75708, Note_on_c, 1, 67, 78
2, 75724, Note_off_c, 1, 67, 64
2, 75736, Control_c, 1, 64, 0
2, 75812, Note_on_c, 1, 46, 66
2, 75816, Note_on_c, 1, 63, 70
2, 75816, Note_on_c, 1, 58, 65
2, 75816, Note_on_c, 1, 73, 64
2, 75828, Note_off_c, 1, 46, 64
2, 75828, Note_off_c, 1, 58, 64
2, 75836, Control_c, 1, 64, 127
2, 75896, Note_off_c, 1, 63, 64
2, 76016, Note_on_c, 1, 61, 64
2, 76016, Note_on_c, 1, 51, 68
2, 76020, Control_c, 1, 64, 0
2, 76036, Note_off_c, 1, 61, 64
2, 76040, Note_off_c, 1, 51, 64
2, 76116, Note_on_c, 1, 65, 62
2, 76164, Note_off_c, 1, 65, 64
2, 76164, Note_on_c, 1, 67, 60
2, 76208, Note_on_c, 1, 39, 64
2, 76224, Note_on_c, 1, 70, 59
2, 76224, Note_on_c, 1, 51, 51
2, 76228, Note_off_c, 1, 67, 64
2, 76228, Note_off_c, 1, 39, 64
2, 76232, Note_off_c, 1, 73, 64
2, 76232, Note_off_c, 1, 70, 64
2, 76236, Note_off_c, 1, 51, 64
2, 76320, Note_on_c, 1, 73, 73
2, 76320, Note_on_c, 1, 65, 80
2, 76416, Note_on_c, 1, 51, 63
2, 76416, Note_on_c, 1, 61, 56
2, 76420, Control_c, 1, 64, 127
2, 76436, Note_off_c, 1, 65, 64
2, 76436, Note_off_c, 1, 61, 64
2, 76448, Note_off_c, 1, 51, 64
2, 76468, Note_off_c, 1, 73, 64
2, 76528, Note_on_c, 1, 65, 75
2, 76548, Note_off_c, 1, 65, 64
2, 76620, Control_c, 1, 64, 0
2, 76628, Note_on_c, 1, 44, 63
2, 76632, Note_on_c, 1, 72, 73
2, 76632, Note_on_c, 1, 56, 60
2, 76640, Note_on_c, 1, 63, 64
2, 76652, Control_c, 1, 64, 127
2, 76672, Note_off_c, 1, 44, 64
2, 76676, Note_off_c, 1, 56, 64
2, 76712, Note_off_c, 1, 72, 64
2, 76716, Note_off_c, 1, 63, 64
2, 76836, Note_on_c, 1, 51, 44
2, 76836, Note_on_c, 1, 56, 48
2, 76852, Control_c, 1, 64, 0
2, 76856, Note_off_c, 1, 56, 64
2, 76856, Note_on_c, 1, 72, 73
2, 76864, Note_off_c, 1, 51, 64
2, 76864, Note_on_c, 1, 64, 68
2, 76956, Note_off_c, 1, 64, 64
2, 76956, Note_on_c, 1, 65, 77
2, 77056, Note_on_c, 1, 39, 66
2, 77060, Note_on_c, 1, 51, 52
2, 77076, Note_off_c, 1, 72, 64
2, 77076, Note_off_c, 1, 65, 64
2, 77080, Note_off_c, 1, 39, 64
2, 77088, Note_off_c, 1, 51, 64
2, 77164, Note_on_c, 1, 68, 65
2, 77168, Note_on_c, 1, 72, 67
2, 77268, Note_on_c, 1, 56, 64
2, 77268, Note_on_c, 1, 51, 52
2, 77268, Note_on_c, 1, 60, 54
2, 77268, Control_c, 1, 64, 127
2, 77288, Note_off_c, 1, 56, 64
2, 77288, Note_off_c, 1, 60, 64
2, 77292, Note_off_c, 1, 51, 64
2, 77300, Control_c, 1, 64, 0
2, 77352, Control_c, 1, 64, 127
2, 77368, Note_off_c, 1, 68, 64
2, 77372, Note_on_c, 1, 65, 62
2, 77420, Control_c, 1, 64, 0
2, 77472, Note_on_c, 1, 44, 62
2, 77472, Note_on_c, 1, 56, 53
2, 77476, Control_c, 1, 64, 127
2, 77480, Note_off_c, 1, 65, 64
2, 77480, Note_on_c, 1, 63, 60
2, 77500, Note_off_c, 1, 44, 64
2, 77504, Note_off_c, 1, 56, 64
2, 77564, Note_off_c, 1, 63, 64
2, 77568, Note_off_c, 1, 72, 64
2, 77684, Note_on_c, 1, 56, 55
2, 77684, Note_on_c, 1, 51, 49
2, 77684, Note_on_c, 1, 72, 65
2, 77688, Note_on_c, 1, 60, 43
2, 77688, Note_on_c, 1, 64, 64
2, 77688, Control_c, 1, 64, 0
2, 77700, Note_off_c, 1, 56, 64
2, 77700, Note_off_c, 1, 60, 64
2, 77704, Note_off_c, 1, 51, 64
2, 77772, Note_off_c, 1, 64, 64
2, 77784, Note_on_c, 1, 65, 56
2, 77888, Note_on_c, 1, 39, 66
2, 77888, Control_c, 1, 64, 127
2, 77896, Note_on_c, 1, 51, 39
2, 77912, Note_off_c, 1, 39, 64
2, 77912, Note_off_c, 1, 51, 64
2, 78056, Note_off_c, 1, 65, 64
2, 78072, Note_off_c, 1, 72, 64
2, 78092, Note_on_c, 1, 60, 65
2, 78100, Note_on_c, 1, 56, 66
2, 78100, Note_on_c, 1, 51, 62
2, 78108, Control_c, 1, 64, 0
2, 78112, Note_off_c, 1, 60, 64
2, 78112, Note_off_c, 1, 56, 64
2, 78116, Note_off_c, 1, 51, 64
2, 78188, Note_on_c, 1, 68, 75
2, 78208, Note_off_c, 1, 68, 64
2, 78232, Note_on_c, 1, 72, 75
2, 78256, Note_off_c, 1, 72, 64
2, 78292, Note_on_c, 1, 44, 75
2, 78292, Note_on_c, 1, 56, 62
2, 78296, Note_on_c, 1, 75, 80
2, 78304, Note_on_c, 1, 63, 78
2, 78312, Note_off_c, 1, 44, 64
2, 78316, Note_off_c, 1, 56, 64
2, 78412, Note_off_c, 1, 75, 64
2, 78412, Note_on_c, 1, 72, 80
2, 78440, Note_off_c, 1, 63, 64
2, 78440, Note_off_c, 1, 72, 64
2, 78508, Note_on_c, 1, 51, 65
2, 78516, Note_on_c, 1, 56, 57
2, 78516, Note_on_c, 1, 75, 80
2, 78516, Note_on_c, 1, 60, 53
2, 78516, Note_on_c, 1, 63, 73
2, 78524, Note_off_c, 1, 56, 64
2, 78524, Note_off_c, 1, 60, 64
2, 78532, Note_off_c, 1, 51, 64
2, 78616, Note_on_c, 1, 68, 80
2, 78720, Note_off_c, 1, 75, 64
2, 78720, Note_on_c, 1, 39, 73
2, 78724, Note_on_c, 1, 51, 61
2, 78724, Note_on_c, 1, 72, 77
2, 78732, Note_off_c, 1, 68, 64
2, 78736, Note_off_c, 1, 63, 64
2, 78736, Note_off_c, 1, 39, 64
2, 78740, Note_off_c, 1, 51, 64
2, 78744, Note_off_c, 1, 72, 64
2, 78836, Note_on_c, 1, 75, 75
2, 78836, Note_on_c, 1, 63, 78
2, 78928, Note_on_c, 1, 60, 73
2, 78932, Note_on_c, 1, 51, 69
2, 78932, Note_on_c, 1, 56, 73
2, 78948, Note_off_c, 1, 56, 64
2, 78948, Control_c, 1, 64, 127
2, 78952, Note_off_c, 1, 60, 64
2, 78956, Note_off_c, 1, 51, 64
2, 79036, Note_on_c, 1, 68, 78
2, 79048, Note_off_c, 1, 63, 64
2, 79064, Note_off_c, 1, 75, 64
2, 79076, Note_off_c, 1, 68, 64
2, 79136, Control_c, 1, 64, 0
2, 79140, Note_on_c, 1, 63, 70
2, 79140, Note_on_c, 1, 72, 80
2, 79144, Note_on_c, 1, 45, 73
2, 79144, Note_on_c, 1, 57, 70
2, 79232, Control_c, 1, 64, 127
2, 79236, Note_off_c, 1, 45, 64
2, 79236, Note_off_c, 1, 57, 64
2, 79240, Note_on_c, 1, 69, 83
2, 79260, Note_off_c, 1, 72, 64
2, 79344, Note_on_c, 1, 45, 73
2, 79344, Note_on_c, 1, 72, 73
2, 79344, Control_c, 1, 64, 0
2, 79348, Note_off_c, 1, 63, 64
2, 79348, Note_off_c, 1, 69, 64
2, 79348, Note_on_c, 1, 57, 73
2, 79364, Note_off_c, 1, 45, 64
2, 79364, Note_off_c, 1, 72, 64
2, 79364, Note_off_c, 1, 57, 64
2, 79444, Note_on_c, 1, 73, 69
2, 79444, Note_on_c, 1, 69, 80
2, 79448, Note_on_c, 1, 63, 66
2, 79536, Control_c, 1, 64, 127
2, 79556, Note_off_c, 1, 69, 64
2, 79560, Note_off_c, 1, 73, 64
2, 79560, Note_on_c, 1, 41, 70
2, 79560, Note_on_c, 1, 53, 69
2, 79568, Note_off_c, 1, 63, 64
2, 79652, Note_on_c, 1, 72, 77
2, 79656, Note_off_c, 1, 41, 64
2, 79656, Note_off_c, 1, 53, 64
2, 79660, Note_on_c, 1, 69, 71
2, 79660, Note_on_c, 1, 63, 54
2, 79716, Note_off_c, 1, 69, 64
2, 79736, Note_off_c, 1, 72, 64
2, 79756, Note_on_c, 1, 41, 66
2, 79764, Note_on_c, 1, 53, 67
2, 79776, Note_off_c, 1, 41, 64
2, 79776, Note_off_c, 1, 53, 64
2, 79832, Note_off_c, 1, 63, 64
2, 79856, Note_on_c, 1, 69, 75
2, 79868, Note_off_c, 1, 69, 64
2, 79872, Control_c, 1, 64, 0
2, 79984, Note_on_c, 1, 68, 57
2, 79984, Note_on_c, 1, 72, 66
2, 79984, Note_on_c, 1, 65, 63
2, 79984, Note_on_c, 1, 62, 56
2, 79988, Note_on_c, 1, 38, 40
2, 79992, Note_on_c, 1, 50, 49
2, 79992, Control_c, 1, 64, 127
2, 80040, Note_off_c, 1, 50, 64
2, 80048, Note_off_c, 1, 38, 64
2, 80084, Note_off_c, 1, 72, 64
2, 80096, Note_off_c, 1, 68, 64
2, 80096, Note_off_c, 1, 62, 64
2, 80100, Note_off_c, 1, 65, 64
2, 80180, Control_c, 1, 64, 0
2, 80192, Note_on_c, 1, 68, 59
2, 80192, Note_on_c, 1, 65, 64
2, 80192, Note_on_c, 1, 70, 62
2, 80196, Note_on_c, 1, 38, 50
2, 80196, Note_on_c, 1, 50, 61
2, 80196, Note_on_c, 1, 62, 48
2, 80200, Control_c, 1, 64, 0
2, 80216, Note_off_c, 1, 68, 64
2, 80216, Note_off_c, 1, 65, 64
2, 80216, Note_off_c, 1, 70, 64
2, 80216, Note_off_c, 1, 62, 64
2, 80220, Note_off_c, 1, 50, 64
2, 80224, Note_off_c, 1, 38, 64
2, 80296, Note_on_c, 1, 72, 77
2, 80296, Note_on_c, 1, 68, 66
2, 80308, Note_on_c, 1, 65, 71
2, 80308, Note_on_c, 1, 62, 70
2, 80404, Note_on_c, 1, 34, 59
2, 80404, Note_on_c, 1, 46, 60
2, 80404, Control_c, 1, 64, 127
2, 80444, Note_off_c, 1, 68, 64
2, 80468, Note_off_c, 1, 46, 64
2, 80492, Note_off_c, 1, 34, 64
2, 80508, Note_off_c, 1, 72, 64
2, 80508, Note_on_c, 1, 70, 66
2, 80592, Control_c, 1, 64, 0
2, 80608, Note_on_c, 1, 34, 54
2, 80612, Note_on_c, 1, 46, 54
2, 80612, Note_on_c, 1, 68, 63
2, 80616, Note_off_c, 1, 65, 64
2, 80620, Note_off_c, 1, 70, 64
2, 80644, Note_off_c, 1, 34, 64
2, 80652, Note_off_c, 1, 46, 64
2, 80716, Note_on_c, 1, 65, 65
2, 80720, Note_off_c, 1, 68, 64
2, 80720, Control_c, 1, 64, 127
2, 80744, Note_off_c, 1, 62, 64
2, 80744, Note_off_c, 1, 65, 64
2, 80808, Control_c, 1, 64, 0
2, 80812, Note_on_c, 1, 68, 60
2, 80812, Note_on_c, 1, 62, 62
2, 80812, Note_on_c, 1, 72, 57
2, 80824, Note_on_c, 1, 41, 58
2, 80828, Note_on_c, 1, 53, 40
2, 80884, Control_c, 1, 64, 127
2, 80900, Note_off_c, 1, 41, 64
2, 80904, Note_off_c, 1, 53, 64
2, 80948, Note_off_c, 1, 72, 64
2, 80952, Note_off_c, 1, 68, 64
2, 80952, Note_off_c, 1, 62, 64
2, 81028, Note_on_c, 1, 70, 60
2, 81028, Note_on_c, 1, 41, 54
2, 81028, Note_on_c, 1, 53, 63
2, 81028, Note_on_c, 1, 62, 55
2, 81044, Note_off_c, 1, 53, 64
2, 81048, Note_off_c, 1, 70, 64
2, 81048, Note_off_c, 1, 41, 64
2, 81052, Note_off_c, 1, 62, 64
2, 81060, Control_c, 1, 64, 0
2, 81136, Note_on_c, 1, 72, 68
2, 81140, Note_on_c, 1, 62, 58
2, 81156, Note_on_c, 1, 68, 32
2, 81228, Note_on_c, 1, 34, 61
2, 81232, Control_c, 1, 64, 127
2, 81240, Note_on_c, 1, 46, 60
2, 81316, Note_off_c, 1, 68, 64
2, 81320, Note_off_c, 1, 46, 64
2, 81324, Note_off_c, 1, 34, 64
2, 81336, Note_on_c, 1, 70, 68
2, 81368, Note_off_c, 1, 72, 64
2, 81432, Note_on_c, 1, 34, 54
2, 81448, Note_off_c, 1, 34, 64
2, 81448, Note_on_c, 1, 68, 69
2, 81472, Note_off_c, 1, 70, 64
2, 81504, Note_off_c, 1, 62, 64
2, 81536, Note_on_c, 1, 65, 75
2, 81552, Note_off_c, 1, 68, 64
2, 81584, Note_on_c, 1, 39, 64
2, 81612, Control_c, 1, 64, 0
2, 81620, Note_off_c, 1, 65, 64
2, 81636, Note_on_c, 1, 51, 57
2, 81652, Note_off_c, 1, 39, 64
2, 81656, Note_on_c, 1, 73, 70
2, 81664, Note_on_c, 1, 63, 66
2, 81664, Control_c, 1, 64, 127
2, 81668, Note_off_c, 1, 51, 64
2, 81744, Note_off_c, 1, 63, 64
2, 81848, Note_on_c, 1, 51, 60
2, 81856, Note_on_c, 1, 61, 54
2, 81856, Control_c, 1, 64, 0
2, 81860, Note_on_c, 1, 55, 60
2, 81868, Note_off_c, 1, 55, 64
2, 81876, Note_off_c, 1, 61, 64
2, 81880, Note_off_c, 1, 51, 64
2, 81956, Note_on_c, 1, 65, 67
2, 81996, Note_off_c, 1, 65, 64
2, 82004, Note_on_c, 1, 67, 59
2, 82048, Note_on_c, 1, 43, 71
2, 82052, Note_on_c, 1, 55, 65
2, 82052, Note_on_c, 1, 70, 69
2, 82056, Note_off_c, 1, 67, 64
2, 82064, Note_off_c, 1, 73, 64
2, 82064, Note_off_c, 1, 43, 64
2, 82072, Note_off_c, 1, 55, 64
2, 82072, Note_off_c, 1, 70, 64
2, 82156, Note_on_c, 1, 73, 68
2, 82160, Note_on_c, 1, 65, 69
2, 82276, Note_on_c, 1, 61, 54
2, 82276, Note_on_c, 1, 55, 70
2, 82276, Note_on_c, 1, 51, 40
2, 82288, Note_off_c, 1, 55, 64
2, 82292, Note_off_c, 1, 61, 64
2, 82292, Note_off_c, 1, 51, 64
2, 82368, Note_off_c, 1, 65, 64
2, 82380, Note_on_c, 1, 67, 65
2, 82392, Note_off_c, 1, 73, 64
2, 82404, Note_off_c, 1, 67, 64
2, 82484, Note_on_c, 1, 46, 70
2, 82488, Note_on_c, 1, 58, 59
2, 82488, Note_on_c, 1, 63, 78
2, 82500, Note_off_c, 1, 46, 64
2, 82500, Note_off_c, 1, 58, 64
2, 82560, Note_off_c, 1, 63, 64
2, 82584, Note_on_c, 1, 67, 71
2, 82616, Note_off_c, 1, 67, 64
2, 82692, Note_on_c, 1, 51, 66
2, 82692, Note_on_c, 1, 55, 67
2, 82692, Note_on_c, 1, 61, 54
2, 82700, Note_on_c, 1, 65, 78
2, 82704, Note_off_c, 1, 55, 64
2, 82708, Note_off_c, 1, 51, 64
2, 82708, Note_off_c, 1, 61, 64
2, 82716, Note_off_c, 1, 65, 64
2, 82796, Note_on_c, 1, 67, 73
2, 82820, Note_off_c, 1, 67, 64
2, 82896, Note_on_c, 1, 73, 70
2, 82896, Note_on_c, 1, 39, 63
2, 82912, Note_on_c, 1, 51, 54
2, 82920, Note_off_c, 1, 73, 64
2, 82924, Note_off_c, 1, 39, 64
2, 82924, Note_off_c, 1, 51, 64
2, 83012, Note_on_c, 1, 61, 60
2, 83012, Note_on_c, 1, 67, 75
2, 83108, Note_on_c, 1, 43, 68
2, 83108, Note_on_c, 1, 55, 68
2, 83112, Note_off_c, 1, 61, 64
2, 83112, Note_off_c, 1, 43, 64
2, 83124, Note_off_c, 1, 67, 64
2, 83124, Note_off_c, 1, 55, 64
2, 83216, Note_on_c, 1, 68, 67
2, 83216, Note_on_c, 1, 60, 68
2, 83312, Note_on_c, 1, 44, 66
2, 83316, Note_on_c, 1, 56, 60
2, 83316, Control_c, 1, 64, 127
2, 83348, Note_off_c, 1, 56, 64
2, 83400, Note_off_c, 1, 44, 64
2, 83500, Control_c, 1, 64, 0
2, 83524, Note_on_c, 1, 39, 67
2, 83528, Note_on_c, 1, 51, 73
2, 83544, Note_off_c, 1, 39, 64
2, 83548, Note_off_c, 1, 51, 64
2, 83636, Note_on_c, 1, 53, 85
2, 83640, Note_on_c, 1, 41, 83
2, 83652, Control_c, 1, 64, 127
2, 83704, Note_off_c, 1, 60, 64
2, 83716, Note_off_c, 1, 68, 64
2, 83744, Note_off_c, 1, 53, 64
2, 83748, Note_off_c, 1, 41, 64
2, 83832, Note_on_c, 1, 51, 71
2, 83832, Note_on_c, 1, 39, 73
2, 83836, Control_c, 1, 64, 0
2, 83844, Control_c, 1, 64, 127
2, 83892, Note_off_c, 1, 39, 64
2, 83896, Note_off_c, 1, 51, 64
2, 83940, Note_on_c, 1, 41, 77
2, 83940, Note_on_c, 1, 53, 83
2, 83968, Note_off_c, 1, 41, 64
2, 83968, Note_off_c, 1, 53, 64
2, 84032, Note_on_c, 1, 43, 85
2, 84036, Note_on_c, 1, 55, 83
2, 84048, Note_off_c, 1, 55, 64
2, 84048, Control_c, 1, 64, 0
2, 84060, Note_off_c, 1, 43, 64
2, 84152, Note_on_c, 1, 44, 93
2, 84152, Note_on_c, 1, 56, 90
2, 84152, Control_c, 1, 64, 127
2, 84168, Note_off_c, 1, 44, 64
2, 84172, Note_off_c, 1, 56, 64
2, 84288, Note_on_c, 1, 77, 74
2, 84356, Note_on_c, 1, 75, 94
2, 84364, Control_c, 1, 64, 0
2, 84368, Note_off_c, 1, 77, 64
2, 84376, Note_off_c, 1, 75, 64
2, 84508, Note_on_c, 1, 65, 86
2, 84572, Note_on_c, 1, 63, 102
2, 84572, Control_c, 1, 64, 127
2, 84580, Note_off_c, 1, 65, 64
2, 84592, Note_off_c, 1, 63, 64
2, 84772, Note_on_c, 1, 68, 71
2, 84772, Control_c, 1, 64, 0
2, 84868, Note_off_c, 1, 68, 64
2, 84868, Note_on_c, 1, 72, 73
2, 84932, Note_off_c, 1, 72, 64
2, 84952, Note_on_c, 1, 56, 59
2, 84952, Note_on_c, 1, 44, 42
2, 84980, Note_off_c, 1, 56, 64
2, 84980, Note_off_c, 1, 44, 64
2, 84984, Note_on_c, 1, 75, 73
2, 84984, Note_on_c, 1, 63, 69
2, 85076, Note_off_c, 1, 63, 64
2, 85076, Note_on_c, 1, 68, 70
2, 85120, Note_off_c, 1, 68, 64
2, 85124, Note_off_c, 1, 75, 64
2, 85180, Note_on_c, 1, 56, 62
2, 85184, Note_on_c, 1, 51, 56
2, 85188, Note_on_c, 1, 60, 61
2, 85188, Note_on_c, 1, 75, 70
2, 85188, Note_on_c, 1, 63, 66
2, 85196, Note_off_c, 1, 56, 64
2, 85196, Note_off_c, 1, 60, 64
2, 85200, Note_off_c, 1, 51, 64
2, 85276, Note_off_c, 1, 63, 64
2, 85280, Note_on_c, 1, 68, 67
2, 85308, Control_c, 1, 64, 127
2, 85364, Note_off_c, 1, 75, 64
2, 85384, Note_off_c, 1, 68, 64
2, 85384, Note_on_c, 1, 72, 73
2, 85384, Note_on_c, 1, 39, 68
2, 85384, Note_on_c, 1, 51, 61
2, 85396, Control_c, 1, 64, 0
2, 85404, Note_off_c, 1, 72, 64
2, 85404, Note_off_c, 1, 39, 64
2, 85408, Note_off_c, 1, 51, 64
2, 85492, Note_on_c, 1, 75, 70
2, 85496, Note_on_c, 1, 63, 69
2, 85592, Control_c, 1, 64, 127
2, 85600, Note_on_c, 1, 51, 62
2, 85600, Note_on_c, 1, 60, 64
2, 85604, Note_on_c, 1, 56, 60
2, 85616, Note_off_c, 1, 60, 64
2, 85616, Note_off_c, 1, 56, 64
2, 85620, Note_off_c, 1, 51, 64
2, 85692, Note_on_c, 1, 68, 73
2, 85720, Note_off_c, 1, 63, 64
2, 85732, Note_off_c, 1, 75, 64
2, 85736, Note_off_c, 1, 68, 64
2, 85796, Control_c, 1, 64, 0
2, 85804, Note_on_c, 1, 45, 61
2, 85804, Note_on_c, 1, 57, 66
2, 85808, Note_on_c, 1, 63, 65
2, 85808, Note_on_c, 1, 72, 78
2, 85864, Control_c, 1, 64, 127
2, 85908, Note_off_c, 1, 45, 64
2, 85908, Note_on_c, 1, 69, 83
2, 85916, Note_off_c, 1, 57, 64
2, 85920, Note_off_c, 1, 72, 64
2, 85960, Note_off_c, 1, 63, 64
2, 86000, Note_on_c, 1, 57, 68
2, 86004, Note_off_c, 1, 69, 64
2, 86004, Note_on_c, 1, 45, 67
2, 86004, Control_c, 1, 64, 0
2, 86012, Note_off_c, 1, 57, 64
2, 86012, Note_on_c, 1, 72, 73
2, 86012, Note_on_c, 1, 63, 59
2, 86016, Note_off_c, 1, 45, 64
2, 86016, Note_off_c, 1, 63, 64
2, 86032, Note_off_c, 1, 72, 64
2, 86108, Note_on_c, 1, 73, 71
2, 86108, Note_on_c, 1, 63, 64
2, 86116, Note_on_c, 1, 69, 80
2, 86208, Note_off_c, 1, 69, 64
2, 86208, Note_on_c, 1, 41, 69
2, 86208, Note_on_c, 1, 53, 70
2, 86216, Note_off_c, 1, 73, 64
2, 86216, Note_off_c, 1, 63, 64
2, 86308, Control_c, 1, 64, 127
2, 86312, Note_on_c, 1, 63, 66
2, 86316, Note_on_c, 1, 69, 83
2, 86316, Note_on_c, 1, 72, 78
2, 86328, Note_off_c, 1, 53, 64
2, 86336, Note_off_c, 1, 41, 64
2, 86392, Note_off_c, 1, 69, 64
2, 86404, Note_off_c, 1, 72, 64
2, 86428, Note_on_c, 1, 41, 77
2, 86428, Note_on_c, 1, 53, 73
2, 86440, Note_off_c, 1, 63, 64
2, 86496, Note_off_c, 1, 53, 64
2, 86508, Note_off_c, 1, 41, 64
2, 86524, Note_on_c, 1, 69, 77
2, 86540, Note_off_c, 1, 69, 64
2, 86640, Note_on_c, 1, 68, 69
2, 86640, Note_on_c, 1, 72, 77
2, 86640, Note_on_c, 1, 65, 78
2, 86640, Note_on_c, 1, 38, 73
2, 86644, Note_on_c, 1, 50, 77
2, 86644, Note_on_c, 1, 62, 70
2, 86644, Control_c, 1, 64, 0
2, 86700, Control_c, 1, 64, 127
2, 86736, Note_off_c, 1, 72, 64
2, 86752, Note_off_c, 1, 68, 64
2, 86760, Note_off_c, 1, 65, 64
2, 86760, Note_off_c, 1, 62, 64
2, 86804, Note_off_c, 1, 50, 64
2, 86808, Note_off_c, 1, 38, 64
2, 86836, Note_on_c, 1, 68, 64
2, 86840, Note_on_c, 1, 70, 62
2, 86840, Note_on_c, 1, 65, 68
2, 86840, Note_on_c, 1, 38, 71
2, 86840, Note_on_c, 1, 50, 68
2, 86844, Note_on_c, 1, 62, 61
2, 86844, Control_c, 1, 64, 0
2, 86848, Note_off_c, 1, 65, 64
2, 86848, Note_off_c, 1, 62, 64
2, 86856, Note_off_c, 1, 68, 64
2, 86856, Note_off_c, 1, 70, 64
2, 86904, Note_off_c, 1, 50, 64
2, 86924, Note_off_c, 1, 38, 64
2, 86936, Note_on_c, 1, 72, 71
2, 86940, Note_on_c, 1, 68, 63
2, 86948, Note_on_c, 1, 65, 68
2, 86948, Note_on_c, 1, 62, 65
2, 87052, Note_on_c, 1, 34, 65
2, 87056, Note_on_c, 1, 46, 73
2, 87068, Control_c, 1, 64, 127
2, 87072, Note_off_c, 1, 68, 64
2, 87152, Note_off_c, 1, 72, 64
2, 87152, Note_on_c, 1, 70, 69
2, 87156, Note_off_c, 1, 34, 64
2, 87160, Note_off_c, 1, 46, 64
2, 87240, Note_off_c, 1, 65, 64
2, 87240, Control_c, 1, 64, 0
2, 87244, Note_on_c, 1, 34, 67
2, 87244, Note_on_c, 1, 46, 67
2, 87252, Note_on_c, 1, 68, 62
2, 87268, Note_off_c, 1, 34, 64
2, 87268, Control_c, 1, 64, 127
2, 87272, Note_off_c, 1, 46, 64
2, 87280, Note_off_c, 1, 70, 64
2, 87340, Note_off_c, 1, 68, 64
2, 87352, Note_on_c, 1, 65, 52
2, 87384, Note_off_c, 1, 62, 64
2, 87384, Note_off_c, 1, 65, 64
2, 87452, Control_c, 1, 64, 0
2, 87460, Note_on_c, 1, 53, 61
2, 87464, Note_on_c, 1, 72, 66
2, 87464, Note_on_c, 1, 41, 60
2, 87464, Note_on_c, 1, 68, 55
2, 87464, Note_on_c, 1, 62, 62
2, 87520, Control_c, 1, 64, 127
2, 87544, Note_off_c, 1, 53, 64
2, 87548, Note_off_c, 1, 41, 64
2, 87576, Note_off_c, 1, 72, 64
2, 87584, Note_off_c, 1, 68, 64
2, 87588, Note_off_c, 1, 62, 64
2, 87664, Note_on_c, 1, 53, 61
2, 87664, Note_on_c, 1, 41, 61
2, 87668, Note_on_c, 1, 70, 60
2, 87668, Note_on_c, 1, 62, 60
2, 87668, Note_on_c, 1, 68, 56
2, 87668, Control_c, 1, 64, 0
2, 87692, Note_off_c, 1, 53, 64
2, 87692, Note_off_c, 1, 41, 64
2, 87692, Note_off_c, 1, 70, 64
2, 87692, Note_off_c, 1, 62, 64
2, 87692, Note_off_c, 1, 68, 64
2, 87768, Note_on_c, 1, 72, 62
2, 87768, Note_on_c, 1, 68, 52
2, 87768, Note_on_c, 1, 62, 41
2, 87876, Note_off_c, 1, 68, 64
2, 87876, Note_on_c, 1, 34, 62
2, 87876, Note_on_c, 1, 46, 56
2, 87884, Note_off_c, 1, 72, 64
2, 87896, Note_off_c, 1, 34, 64
2, 87900, Note_off_c, 1, 46, 64
2, 87968, Note_on_c, 1, 70, 67
2, 87992, Note_off_c, 1, 62, 64
2, 87996, Note_off_c, 1, 70, 64
2, 88072, Note_on_c, 1, 34, 63
2, 88072, Control_c, 1, 64, 127
2, 88076, Note_on_c, 1, 68, 73
2, 88076, Note_on_c, 1, 46, 64
2, 88092, Note_off_c, 1, 34, 64
2, 88104, Note_off_c, 1, 46, 64
2, 88176, Note_off_c, 1, 68, 64
2, 88180, Note_on_c, 1, 65, 75
2, 88192, Control_c, 1, 64, 0
2, 88204, Note_off_c, 1, 65, 64
2, 88224, Note_on_c, 1, 39, 62
2, 88264, Note_on_c, 1, 51, 59
2, 88268, Note_off_c, 1, 39, 64
2, 88288, Note_off_c, 1, 51, 64
2, 88288, Control_c, 1, 64, 127
2, 88296, Note_on_c, 1, 63, 75
2, 88300, Note_on_c, 1, 73, 83
2, 88364, Note_off_c, 1, 63, 64
2, 88504, Note_on_c, 1, 61, 62
2, 88504, Note_on_c, 1, 55, 70
2, 88512, Control_c, 1, 64, 0
2, 88516, Note_off_c, 1, 55, 64
2, 88520, Note_off_c, 1, 61, 64
2, 88600, Note_on_c, 1, 65, 67
2, 88640, Note_on_c, 1, 67, 60
2, 88660, Note_off_c, 1, 65, 64
2, 88700, Note_on_c, 1, 43, 61
2, 88704, Note_on_c, 1, 70, 69
2, 88716, Note_off_c, 1, 73, 64
2, 88716, Note_off_c, 1, 67, 64
2, 88716, Note_off_c, 1, 43, 64
2, 88724, Note_off_c, 1, 70, 64
2, 88812, Note_on_c, 1, 73, 66
2, 88816, Note_on_c, 1, 65, 68
2, 88912, Note_on_c, 1, 51, 66
2, 88916, Note_on_c, 1, 61, 54
2, 88916, Note_on_c, 1, 55, 67
2, 88928, Note_off_c, 1, 55, 64
2, 88932, Note_off_c, 1, 51, 64
2, 88936, Note_off_c, 1, 61, 64
2, 89020, Note_off_c, 1, 65, 64
2, 89020, Note_on_c, 1, 67, 70
2, 89028, Note_off_c, 1, 73, 64
2, 89032, Note_off_c, 1, 67, 64
2, 89124, Note_on_c, 1, 73, 68
2, 89124, Note_on_c, 1, 46, 73
2, 89128, Note_on_c, 1, 63, 73
2, 89128, Note_on_c, 1, 58, 60
2, 89128, Control_c, 1, 64, 127
2, 89140, Note_off_c, 1, 46, 64
2, 89140, Note_off_c, 1, 58, 64
2, 89284, Note_off_c, 1, 63, 64
2, 89328, Note_on_c, 1, 51, 69
2, 89332, Note_on_c, 1, 61, 66
2, 89332, Note_on_c, 1, 55, 78
2, 89336, Note_off_c, 1, 55, 64
2, 89336, Control_c, 1, 64, 0
2, 89344, Note_off_c, 1, 51, 64
2, 89344, Note_off_c, 1, 61, 64
2, 89432, Note_on_c, 1, 65, 69
2, 89480, Note_off_c, 1, 65, 64
2, 89480, Note_on_c, 1, 67, 78
2, 89532, Note_on_c, 1, 39, 71
2, 89536, Note_on_c, 1, 51, 63
2, 89540, Note_on_c, 1, 70, 71
2, 89544, Note_off_c, 1, 39, 64
2, 89548, Note_off_c, 1, 73, 64
2, 89548, Note_off_c, 1, 51, 64
2, 89552, Note_off_c, 1, 67, 64
2, 89564, Note_off_c, 1, 70, 64
2, 89636, Note_on_c, 1, 73, 75
2, 89636, Note_on_c, 1, 65, 73
2, 89740, Note_on_c, 1, 61, 63
2, 89748, Note_off_c, 1, 73, 64
2, 89748, Note_on_c, 1, 55, 75
2, 89748, Note_on_c, 1, 51, 63
2, 89748, Control_c, 1, 64, 127
2, 89756, Note_off_c, 1, 65, 64
2, 89776, Note_off_c, 1, 55, 64
2, 89780, Note_off_c, 1, 61, 64
2, 89808, Note_off_c, 1, 51, 64
2, 89840, Note_on_c, 1, 65, 78
2, 89876, Note_off_c, 1, 65, 64
2, 89940, Control_c, 1, 64, 0
2, 89944, Note_on_c, 1, 44, 69
2, 89944, Note_on_c, 1, 72, 80
2, 89952, Note_on_c, 1, 56, 60
2, 89952, Note_on_c, 1, 63, 75
2, 89972, Control_c, 1, 64, 127
2, 89984, Note_off_c, 1, 44, 64
2, 89988, Note_off_c, 1, 56, 64
2, 90064, Note_off_c, 1, 63, 64
2, 90068, Note_off_c, 1, 72, 64
2, 90152, Note_on_c, 1, 60, 58
2, 90156, Note_on_c, 1, 56, 51
2, 90164, Note_on_c, 1, 51, 38
2, 90168, Note_on_c, 1, 72, 73
2, 90172, Note_off_c, 1, 60, 64
2, 90172, Note_off_c, 1, 56, 64
2, 90172, Note_on_c, 1, 64, 78
2, 90176, Note_off_c, 1, 51, 64
2, 90212, Control_c, 1, 64, 0
2, 90252, Note_off_c, 1, 64, 64
2, 90268, Note_on_c, 1, 65, 78
2, 90372, Note_on_c, 1, 39, 60
2, 90372, Note_on_c, 1, 51, 59
2, 90372, Control_c, 1, 64, 127
2, 90388, Note_off_c, 1, 39, 64
2, 90392, Note_off_c, 1, 51, 64
2, 90416, Note_off_c, 1, 72, 64
2, 90416, Note_off_c, 1, 65, 64
2, 90476, Note_on_c, 1, 68, 73
2, 90480, Note_on_c, 1, 72, 78
2, 90572, Control_c, 1, 64, 0
2, 90580, Note_on_c, 1, 51, 64
2, 90580, Note_on_c, 1, 56, 65
2, 90580, Note_on_c, 1, 60, 63
2, 90600, Note_off_c, 1, 56, 64
2, 90600, Control_c, 1, 64, 127
2, 90604, Note_off_c, 1, 51, 64
2, 90604, Note_off_c, 1, 60, 64
2, 90660, Control_c, 1, 64, 0
2, 90664, Note_off_c, 1, 68, 64
2, 90664, Control_c, 1, 64, 127
2, 90688, Note_on_c, 1, 65, 80
2, 90692, Control_c, 1, 64, 0
2, 90784, Note_off_c, 1, 65, 64
2, 90784, Note_on_c, 1, 44, 68
2, 90788, Note_on_c, 1, 56, 60
2, 90792, Note_on_c, 1, 63, 71
2, 90796, Control_c, 1, 64, 127
2, 90812, Note_off_c, 1, 44, 64
2, 90812, Note_off_c, 1, 56, 64
2, 90880, Note_off_c, 1, 63, 64
2, 90884, Note_off_c, 1, 72, 64
2, 90992, Note_on_c, 1, 51, 56
2, 90992, Note_on_c, 1, 56, 61
2, 90992, Note_on_c, 1, 72, 69
2, 90992, Note_on_c, 1, 60, 52
2, 90992, Note_on_c, 1, 64, 75
2, 91004, Note_off_c, 1, 56, 64
2, 91004, Note_off_c, 1, 60, 64
2, 91012, Note_off_c, 1, 51, 64
2, 91072, Control_c, 1, 64, 0
2, 91084, Note_off_c, 1, 64, 64
2, 91088, Note_on_c, 1, 65, 75
2, 91204, Note_on_c, 1, 39, 76
2, 91204, Note_on_c, 1, 51, 73
2, 91208, Control_c, 1, 64, 127
2, 91212, Note_off_c, 1, 39, 64
2, 91216, Note_off_c, 1, 51, 64
2, 91284, Control_c, 1, 64, 0
2, 91364, Note_off_c, 1, 65, 64
2, 91388, Note_off_c, 1, 72, 64
2, 91416, Note_on_c, 1, 51, 73
2, 91416, Note_on_c, 1, 60, 73
2, 91428, Note_off_c, 1, 51, 64
2, 91428, Note_off_c, 1, 60, 64
2, 91508, Note_on_c, 1, 68, 70
2, 91520, Note_off_c, 1, 68, 64
2, 91548, Note_on_c, 1, 72, 83
2, 91568, Note_off_c, 1, 72, 64
2, 91608, Note_on_c, 1, 44, 70
2, 91612, Note_on_c, 1, 56, 75
2, 91612, Note_on_c, 1, 75, 75
2, 91612, Note_on_c, 1, 63, 78
2, 91616, Control_c, 1, 64, 127
2, 91628, Note_off_c, 1, 44, 64
2, 91632, Note_off_c, 1, 56, 64
2, 91728, Note_on_c, 1, 72, 83
2, 91740, Note_off_c, 1, 75, 64
2, 91760, Note_off_c, 1, 63, 64
2, 91772, Note_off_c, 1, 72, 64
2, 91824, Note_on_c, 1, 56, 66
2, 91824, Note_on_c, 1, 51, 63
2, 91832, Note_on_c, 1, 75, 77
2, 91836, Note_on_c, 1, 63, 80
2, 91836, Note_on_c, 1, 60, 40
2, 91840, Note_off_c, 1, 60, 64
2, 91840, Control_c, 1, 64, 0
2, 91844, Note_off_c, 1, 56, 64
2, 91848, Note_off_c, 1, 51, 64
2, 91928, Note_on_c, 1, 68, 78
2, 92032, Note_off_c, 1, 75, 64
2, 92032, Note_on_c, 1, 39, 69
2, 92036, Note_on_c, 1, 72, 80
2, 92036, Note_on_c, 1, 51, 65
2, 92040, Note_off_c, 1, 68, 64
2, 92048, Note_off_c, 1, 39, 64
2, 92052, Note_off_c, 1, 63, 64
2, 92052, Note_off_c, 1, 51, 64
2, 92064, Note_off_c, 1, 72, 64
2, 92136, Note_on_c, 1, 75, 77
2, 92140, Note_on_c, 1, 63, 78
2, 92240, Note_on_c, 1, 51, 71
2, 92244, Note_on_c, 1, 56, 65
2, 92244, Note_on_c, 1, 60, 78
2, 92252, Control_c, 1, 64, 127
2, 92256, Note_off_c, 1, 75, 64
2, 92264, Note_off_c, 1, 51, 64
2, 92264, Note_off_c, 1, 56, 64
2, 92264, Note_off_c, 1, 60, 64
2, 92332, Note_off_c, 1, 63, 64
2, 92344, Note_on_c, 1, 68, 78
2, 92396, Note_off_c, 1, 68, 64
2, 92452, Note_on_c, 1, 63, 69
2, 92452, Note_on_c, 1, 72, 78
2, 92452, Note_on_c, 1, 57, 75
2, 92452, Note_on_c, 1, 45, 65
2, 92456, Control_c, 1, 64, 0
2, 92512, Control_c, 1, 64, 127
2, 92532, Note_off_c, 1, 57, 64
2, 92544, Note_off_c, 1, 45, 64
2, 92552, Note_on_c, 1, 69, 78
2, 92584, Note_off_c, 1, 72, 64
2, 92628, Note_off_c, 1, 69, 64
2, 92652, Note_on_c, 1, 72, 77
2, 92652, Note_on_c, 1, 57, 66
2, 92656, Control_c, 1, 64, 0
2, 92660, Note_on_c, 1, 45, 64
2, 92660, Note_on_c, 1, 47, 61
2, 92668, Note_off_c, 1, 47, 64
2, 92668, Control_c, 1, 64, 127
2, 92676, Note_off_c, 1, 63, 64
2, 92676, Note_off_c, 1, 57, 64
2, 92676, Note_off_c, 1, 45, 64
2, 92684, Note_off_c, 1, 72, 64
2, 92748, Note_on_c, 1, 73, 73
2, 92752, Note_on_c, 1, 63, 69
2, 92752, Note_on_c, 1, 69, 88
2, 92768, Control_c, 1, 64, 0
2, 92860, Note_on_c, 1, 41, 77
2, 92860, Note_on_c, 1, 53, 85
2, 92864, Control_c, 1, 64, 127
2, 92876, Note_off_c, 1, 63, 64
2, 92876, Note_off_c, 1, 69, 64
2, 92880, Note_off_c, 1, 73, 64
2, 92968, Note_on_c, 1, 72, 80
2, 92968, Note_on_c, 1, 63, 64
2, 92968, Note_on_c, 1, 69, 80
2, 92980, Note_off_c, 1, 41, 64
2, 92980, Note_off_c, 1, 53, 64
2, 93060, Note_off_c, 1, 69, 64
2, 93068, Note_off_c, 1, 72, 64
2, 93088, Note_on_c, 1, 41, 71
2, 93088, Note_on_c, 1, 53, 83
2, 93088, Control_c, 1, 64, 0
2, 93112, Control_c, 1, 64, 127
2, 93128, Note_off_c, 1, 41, 64
2, 93144, Note_off_c, 1, 53, 64
2, 93172, Note_off_c, 1, 63, 64
2, 93180, Note_on_c, 1, 69, 78
2, 93200, Note_off_c, 1, 69, 64
2, 93288, Note_on_c, 1, 72, 78
2, 93288, Note_on_c, 1, 65, 71
2, 93288, Note_on_c, 1, 68, 63
2, 93292, Note_on_c, 1, 62, 70
2, 93292, Note_on_c, 1, 58, 64
2, 93292, Note_on_c, 1, 46, 69
2, 93292, Note_on_c, 1, 53, 78
2, 93296, Control_c, 1, 64, 0
2, 93352, Control_c, 1, 64, 127
2, 93388, Note_off_c, 1, 68, 64
2, 93392, Note_off_c, 1, 72, 64
2, 93408, Note_off_c, 1, 65, 64
2, 93408, Note_off_c, 1, 62, 64
2, 93408, Note_off_c, 1, 46, 64
2, 93416, Note_off_c, 1, 58, 64
2, 93420, Note_off_c, 1, 53, 64
2, 93484, Note_on_c, 1, 68, 62
2, 93484, Note_on_c, 1, 58, 60
2, 93484, Note_on_c, 1, 70, 65
2, 93484, Note_on_c, 1, 46, 69
2, 93484, Note_on_c, 1, 65, 70
2, 93484, Note_on_c, 1, 53, 68
2, 93484, Note_on_c, 1, 62, 68
2, 93488, Control_c, 1, 64, 0
2, 93500, Note_off_c, 1, 58, 64
2, 93504, Note_off_c, 1, 65, 64
2, 93504, Note_off_c, 1, 53, 64
2, 93508, Note_off_c, 1, 70, 64
2, 93508, Note_off_c, 1, 62, 64
2, 93512, Note_off_c, 1, 68, 64
2, 93512, Note_off_c, 1, 46, 64
2, 93512, Control_c, 1, 64, 127
2, 93512, Control_c, 1, 64, 0
2, 93592, Note_on_c, 1, 68, 66
2, 93592, Note_on_c, 1, 72, 80
2, 93592, Note_on_c, 1, 65, 73
2, 93596, Note_on_c, 1, 62, 71
2, 93696, Note_on_c, 1, 34, 67
2, 93696, Note_on_c, 1, 46, 78
2, 93700, Control_c, 1, 64, 127
2, 93724, Note_off_c, 1, 68, 64
2, 93788, Note_off_c, 1, 72, 64
2, 93796, Note_off_c, 1, 34, 64
2, 93796, Note_off_c, 1, 46, 64
2, 93804, Note_on_c, 1, 70, 73
2, 93876, Note_off_c, 1, 65, 64
2, 93896, Note_on_c, 1, 68, 75
2, 93900, Note_on_c, 1, 34, 66
2, 93904, Note_off_c, 1, 34, 64
2, 93908, Note_off_c, 1, 70, 64
2, 93936, Control_c, 1, 64, 0
2, 93980, Note_off_c, 1, 62, 64
2, 93988, Control_c, 1, 64, 127
2, 93992, Note_off_c, 1, 68, 64
2, 93996, Note_on_c, 1, 65, 71
2, 94028, Note_off_c, 1, 65, 64
2, 94044, Control_c, 1, 64, 0
2, 94120, Note_on_c, 1, 41, 73
2, 94120, Note_on_c, 1, 53, 63
2, 94120, Note_on_c, 1, 72, 78
2, 94120, Note_on_c, 1, 68, 65
2, 94124, Note_on_c, 1, 62, 75
2, 94176, Control_c, 1, 64, 127
2, 94212, Note_off_c, 1, 41, 64
2, 94220, Note_off_c, 1, 53, 64
2, 94232, Note_off_c, 1, 72, 64
2, 94240, Note_off_c, 1, 68, 64
2, 94244, Note_off_c, 1, 62, 64
2, 94324, Note_on_c, 1, 70, 65
2, 94324, Note_on_c, 1, 53, 68
2, 94328, Note_on_c, 1, 68, 55
2, 94328, Note_on_c, 1, 41, 57
2, 94328, Note_on_c, 1, 62, 68
2, 94332, Control_c, 1, 64, 0
2, 94340, Note_off_c, 1, 68, 64
2, 94348, Note_off_c, 1, 70, 64
2, 94348, Note_off_c, 1, 62, 64
2, 94412, Note_off_c, 1, 53, 64
2, 94424, Note_off_c, 1, 41, 64
2, 94432, Note_on_c, 1, 72, 71
2, 94436, Note_on_c, 1, 68, 59
2, 94440, Note_on_c, 1, 62, 70
2, 94536, Note_on_c, 1, 34, 77
2, 94540, Note_on_c, 1, 46, 71
2, 94540, Control_c, 1, 64, 127
2, 94592, Note_off_c, 1, 72, 64
2, 94604, Note_off_c, 1, 68, 64
2, 94636, Note_on_c, 1, 70, 75
2, 94656, Note_off_c, 1, 34, 64
2, 94660, Note_off_c, 1, 46, 64
2, 94740, Note_on_c, 1, 68, 70
2, 94740, Control_c, 1, 64, 0
2, 94744, Note_on_c, 1, 34, 75
2, 94744, Note_on_c, 1, 46, 68
2, 94744, Control_c, 1, 64, 127
2, 94760, Note_off_c, 1, 70, 64
2, 94784, Note_off_c, 1, 34, 64
2, 94792, Note_off_c, 1, 46, 64
2, 94824, Note_off_c, 1, 62, 64
2, 94836, Note_on_c, 1, 65, 83
2, 94840, Note_off_c, 1, 68, 64
2, 94864, Note_off_c, 1, 65, 64
2, 94872, Control_c, 1, 64, 0
2, 94876, Note_on_c, 1, 39, 62
2, 94932, Note_on_c, 1, 51, 59
2, 94940, Note_off_c, 1, 39, 64
2, 94940, Note_on_c, 1, 63, 73
2, 94948, Note_on_c, 1, 73, 77
2, 94948, Control_c, 1, 64, 127
2, 94956, Note_off_c, 1, 51, 64
2, 95012, Note_off_c, 1, 63, 64
2, 95144, Note_on_c, 1, 51, 75
2, 95144, Note_on_c, 1, 61, 59
2, 95144, Control_c, 1, 64, 0
2, 95160, Note_off_c, 1, 51, 64
2, 95160, Note_off_c, 1, 61, 64
2, 95244, Note_on_c, 1, 65, 69
2, 95292, Note_off_c, 1, 65, 64
2, 95292, Note_on_c, 1, 67, 44
2, 95332, Note_on_c, 1, 43, 66
2, 95340, Note_on_c, 1, 55, 66
2, 95348, Note_on_c, 1, 70, 67
2, 95356, Note_off_c, 1, 73, 64
2, 95356, Note_off_c, 1, 67, 64
2, 95356, Note_off_c, 1, 43, 64
2, 95364, Note_off_c, 1, 55, 64
2, 95364, Note_off_c, 1, 70, 64
2, 95452, Note_on_c, 1, 65, 70
2, 95452, Note_on_c, 1, 73, 66
2, 95564, Note_on_c, 1, 61, 56
2, 95564, Note_on_c, 1, 51, 52
2, 95568, Note_on_c, 1, 55, 62
2, 95592, Note_off_c, 1, 65, 64
2, 95592, Note_off_c, 1, 61, 64
2, 95604, Control_c, 1, 64, 127
2, 95616, Note_off_c, 1, 51, 64
2, 95620, Note_off_c, 1, 55, 64
2, 95660, Note_on_c, 1, 67, 73
2, 95676, Note_off_c, 1, 73, 64
2, 95688, Note_off_c, 1, 67, 64
2, 95756, Control_c, 1, 64, 0
2, 95772, Note_on_c, 1, 63, 80
2, 95776, Note_on_c, 1, 46, 71
2, 95780, Note_on_c, 1, 58, 63
2, 95788, Note_off_c, 1, 46, 64
2, 95788, Note_off_c, 1, 58, 64
2, 95808, Note_off_c, 1, 63, 64
2, 95876, Note_on_c, 1, 67, 70
2, 95904, Note_off_c, 1, 67, 64
2, 95980, Note_on_c, 1, 51, 66
2, 95980, Note_on_c, 1, 65, 78
2, 95984, Note_on_c, 1, 55, 66
2, 95992, Note_off_c, 1, 55, 64
2, 95996, Note_off_c, 1, 51, 64
2, 96052, Note_off_c, 1, 65, 64
2, 96084, Note_on_c, 1, 67, 68
2, 96108, Note_off_c, 1, 67, 64
2, 96192, Note_on_c, 1, 39, 66
2, 96192, Note_on_c, 1, 73, 68
2, 96196, Note_on_c, 1, 51, 57
2, 96204, Note_off_c, 1, 39, 64
2, 96208, Note_off_c, 1, 73, 64
2, 96212, Note_off_c, 1, 51, 64
2, 96296, Note_on_c, 1, 67, 70
2, 96300, Note_on_c, 1, 61, 60
2, 96308, Control_c, 1, 64, 127
2, 96388, Note_on_c, 1, 51, 64
2, 96388, Note_on_c, 1, 55, 63
2, 96392, Note_off_c, 1, 67, 64
2, 96392, Note_off_c, 1, 61, 64
2, 96392, Note_off_c, 1, 51, 64
2, 96404, Note_off_c, 1, 55, 64
2, 96420, Control_c, 1, 64, 0
2, 96496, Note_on_c, 1, 68, 66
2, 96500, Note_on_c, 1, 60, 62
2, 96600, Note_on_c, 1, 44, 71
2, 96600, Note_on_c, 1, 56, 67
2, 96616, Control_c, 1, 64, 127
2, 96704, Note_off_c, 1, 56, 64
2, 96724, Note_off_c, 1, 44, 64
2, 96796, Control_c, 1, 64, 0
2, 96828, Note_on_c, 1, 39, 83
2, 96828, Note_on_c, 1, 51, 77
2, 96876, Control_c, 1, 64, 127
2, 96920, Note_off_c, 1, 39, 64
2, 96920, Note_off_c, 1, 51, 64
2, 97016, Control_c, 1, 64, 0
2, 97024, Note_on_c, 1, 41, 70
2, 97024, Note_on_c, 1, 53, 93
2, 97072, Note_off_c, 1, 53, 64
2, 97076, Control_c, 1, 64, 127
2, 97088, Note_off_c, 1, 41, 64
2, 97104, Control_c, 1, 64, 0
2, 97120, Note_on_c, 1, 51, 83
2, 97120, Note_on_c, 1, 39, 90
2, 97216, Note_off_c, 1, 51, 64
2, 97216, Control_c, 1, 64, 127
2, 97228, Control_c, 1, 64, 0
2, 97252, Note_off_c, 1, 39, 64
2, 97324, Note_on_c, 1, 36, 83
2, 97324, Note_on_c, 1, 48, 83
2, 97348, Note_off_c, 1, 48, 64
2, 97360, Note_off_c, 1, 36, 64
2, 97436, Note_on_c, 1, 32, 88
2, 97436, Note_on_c, 1, 44, 88
2, 97464, Note_off_c, 1, 60, 64
2, 97484, Note_off_c, 1, 68, 64
2, 97684, Note_off_c, 1, 32, 64
2, 97688, Note_off_c, 1, 44, 64
2, 97844, Note_on_c, 1, 32, 96
2, 97844, Control_c, 1, 64, 127
2, 97852, Note_on_c, 1, 80, 96
2, 97852, Note_on_c, 1, 75, 100
2, 97856, Note_on_c, 1, 44, 98
2, 97856, Note_on_c, 1, 68, 90
2, 97856, Note_on_c, 1, 72, 90
2, 97860, Note_off_c, 1, 80, 64
2, 97860, Note_off_c, 1, 75, 64
2, 97864, Note_off_c, 1, 68, 64
2, 97864, Note_off_c, 1, 72, 64
2, 97868, Note_off_c, 1, 32, 64
2, 97868, Note_off_c, 1, 44, 64
2, 98020, Control_c, 1, 64, 0
2, 98076, Note_on_c, 1, 63, 73
2, 98076, Control_c, 1, 64, 127
2, 98276, Note_off_c, 1, 63, 64
2, 98284, Note_on_c, 1, 46, 65
2, 98284, Note_on_c, 1, 67, 75
2, 98288, Note_on_c, 1, 58, 41
2, 98300, Control_c, 1, 64, 127
2, 98308, Note_off_c, 1, 46, 64
2, 98320, Note_off_c, 1, 58, 64
2, 98388, Note_on_c, 1, 70, 70
2, 98404, Note_off_c, 1, 67, 64
2, 98408, Control_c, 1, 64, 0
2, 98488, Note_on_c, 1, 61, 59
2, 98492, Note_on_c, 1, 55, 75
2, 98492, Note_on_c, 1, 51, 51
2, 98508, Note_off_c, 1, 61, 64
2, 98508, Note_off_c, 1, 55, 64
2, 98512, Note_off_c, 1, 51, 64
2, 98588, Note_off_c, 1, 70, 64
2, 98588, Note_on_c, 1, 72, 68
2, 98692, Note_on_c, 1, 39, 69
2, 98696, Note_on_c, 1, 51, 60
2, 98696, Note_on_c, 1, 73, 73
2, 98708, Note_off_c, 1, 72, 64
2, 98712, Note_off_c, 1, 39, 64
2, 98716, Note_off_c, 1, 51, 64
2, 98904, Note_on_c, 1, 79, 85
2, 98904, Note_on_c, 1, 58, 66
2, 98916, Note_on_c, 1, 61, 54
2, 98924, Note_off_c, 1, 58, 64
2, 98924, Note_off_c, 1, 61, 64
2, 98980, Note_off_c, 1, 73, 64
2, 99016, Note_on_c, 1, 77, 77
2, 99032, Note_off_c, 1, 79, 64
2, 99116, Note_on_c, 1, 75, 73
2, 99116, Note_on_c, 1, 73, 64
2, 99124, Note_off_c, 1, 77, 64
2, 99124, Note_on_c, 1, 55, 69
2, 99124, Note_on_c, 1, 43, 68
2, 99132, Note_off_c, 1, 43, 64
2, 99140, Note_off_c, 1, 75, 64
2, 99144, Note_off_c, 1, 73, 64
2, 99144, Note_off_c, 1, 55, 64
2, 99332, Note_on_c, 1, 58, 66
2, 99332, Note_on_c, 1, 51, 56
2, 99332, Note_on_c, 1, 61, 56
2, 99332, Note_on_c, 1, 75, 69
2, 99332, Note_on_c, 1, 73, 65
2, 99348, Note_off_c, 1, 58, 64
2, 99348, Note_off_c, 1, 61, 64
2, 99352, Note_off_c, 1, 51, 64
2, 99532, Note_on_c, 1, 39, 66
2, 99532, Note_on_c, 1, 51, 63
2, 99548, Note_off_c, 1, 39, 64
2, 99552, Note_off_c, 1, 51, 64
2, 99620, Note_off_c, 1, 75, 64
2, 99620, Note_off_c, 1, 73, 64
2, 99740, Note_on_c, 1, 63, 73
2, 99744, Note_on_c, 1, 61, 56
2, 99744, Note_on_c, 1, 55, 73
2, 99744, Note_on_c, 1, 51, 54
2, 99768, Note_off_c, 1, 61, 64
2, 99768, Note_off_c, 1, 55, 64
2, 99768, Note_off_c, 1, 51, 64
2, 99776, Control_c, 1, 64, 127
2, 99812, Note_off_c, 1, 63, 64
2, 99940, Note_on_c, 1, 68, 75
2, 99940, Note_on_c, 1, 44, 66
2, 99940, Control_c, 1, 64, 0
2, 99952, Note_on_c, 1, 56, 60
2, 99976, Note_off_c, 1, 44, 64
2, 99980, Note_off_c, 1, 56, 64
2, 100048, Note_off_c, 1, 68, 64
2, 100056, Note_on_c, 1, 72, 75
2, 100152, Note_on_c, 1, 60, 64
2, 100152, Note_on_c, 1, 56, 65
2, 100156, Note_on_c, 1, 51, 60
2, 100164, Note_off_c, 1, 60, 64
2, 100164, Note_off_c, 1, 56, 64
2, 100168, Note_off_c, 1, 51, 64
2, 100252, Note_off_c, 1, 72, 64
2, 100256, Note_on_c, 1, 73, 71
2, 100360, Note_on_c, 1, 51, 66
2, 100360, Note_on_c, 1, 39, 68
2, 100364, Note_on_c, 1, 75, 80
2, 100376, Note_off_c, 1, 39, 64
2, 100380, Note_off_c, 1, 73, 64
2, 100380, Note_off_c, 1, 51, 64
2, 100568, Note_on_c, 1, 56, 60
2, 100576, Note_off_c, 1, 75, 64
2, 100576, Note_on_c, 1, 60, 62
2, 100576, Note_on_c, 1, 51, 59
2, 100576, Note_on_c, 1, 80, 66
2, 100584, Note_off_c, 1, 56, 64
2, 100588, Note_off_c, 1, 60, 64
2, 100588, Note_off_c, 1, 51, 64
2, 100668, Note_on_c, 1, 77, 69
2, 100680, Note_off_c, 1, 80, 64
2, 100780, Note_on_c, 1, 75, 65
2, 100784, Note_off_c, 1, 77, 64
2, 100784, Note_on_c, 1, 44, 57
2, 100784, Note_on_c, 1, 72, 64
2, 100796, Note_off_c, 1, 75, 64
2, 100796, Note_off_c, 1, 44, 64
2, 100800, Note_off_c, 1, 72, 64
2, 100976, Note_on_c, 1, 56, 59
2, 100976, Note_on_c, 1, 51, 59
2, 100984, Note_on_c, 1, 60, 57
2, 100984, Note_on_c, 1, 75, 65
2, 100988, Note_on_c, 1, 72, 73
2, 100992, Note_off_c, 1, 56, 64
2, 100992, Note_off_c, 1, 60, 64
2, 101004, Note_off_c, 1, 51, 64
2, 101188, Note_on_c, 1, 36, 71
2, 101196, Control_c, 1, 64, 127
2, 101204, Note_off_c, 1, 36, 64
2, 101276, Note_off_c, 1, 75, 64
2, 101276, Note_off_c, 1, 72, 64
2, 101392, Note_on_c, 1, 56, 63
2, 101400, Note_on_c, 1, 75, 73
2, 101400, Note_on_c, 1, 60, 59
2, 101404, Note_on_c, 1, 72, 71
2, 101404, Note_on_c, 1, 51, 39
2, 101412, Note_off_c, 1, 56, 64
2, 101412, Note_off_c, 1, 60, 64
2, 101412, Note_off_c, 1, 51, 64
2, 101428, Note_off_c, 1, 75, 64
2, 101440, Note_off_c, 1, 72, 64
2, 101580, Control_c, 1, 64, 0
2, 101600, Note_on_c, 1, 37, 67
2, 101604, Note_on_c, 1, 77, 75
2, 101604, Note_on_c, 1, 73, 66
2, 101612, Control_c, 1, 64, 127
2, 101616, Note_off_c, 1, 37, 64
2, 101652, Note_off_c, 1, 73, 64
2, 101660, Note_off_c, 1, 77, 64
2, 101708, Note_on_c, 1, 73, 67
2, 101708, Note_on_c, 1, 77, 78
2, 101792, Note_off_c, 1, 73, 64
2, 101816, Note_on_c, 1, 61, 61
2, 101816, Note_on_c, 1, 53, 75
2, 101816, Note_on_c, 1, 56, 65
2, 101820, Note_off_c, 1, 77, 64
2, 101828, Note_off_c, 1, 61, 64
2, 101828, Note_off_c, 1, 53, 64
2, 101832, Note_off_c, 1, 56, 64
2, 101904, Note_on_c, 1, 73, 71
2, 101912, Note_on_c, 1, 77, 78
2, 101936, Control_c, 1, 64, 0
2, 102008, Control_c, 1, 64, 127
2, 102016, Note_on_c, 1, 37, 71
2, 102024, Note_off_c, 1, 73, 64
2, 102024, Note_off_c, 1, 37, 64
2, 102028, Note_off_c, 1, 77, 64
2, 102128, Note_on_c, 1, 80, 78
2, 102232, Note_off_c, 1, 80, 64
2, 102240, Note_on_c, 1, 61, 60
2, 102240, Note_on_c, 1, 52, 73
2, 102240, Note_on_c, 1, 82, 88
2, 102252, Note_off_c, 1, 61, 64
2, 102252, Note_off_c, 1, 52, 64
2, 102332, Note_on_c, 1, 80, 78
2, 102340, Note_off_c, 1, 82, 64
2, 102424, Note_off_c, 1, 80, 64
2, 102432, Control_c, 1, 64, 0
2, 102440, Note_on_c, 1, 44, 62
2, 102456, Note_on_c, 1, 84, 85
2, 102456, Note_on_c, 1, 72, 78
2, 102464, Control_c, 1, 64, 127
2, 102472, Note_off_c, 1, 44, 64
2, 102568, Note_off_c, 1, 84, 64
2, 102568, Note_off_c, 1, 72, 64
2, 102652, Note_on_c, 1, 56, 50
2, 102652, Note_on_c, 1, 51, 46
2, 102656, Note_on_c, 1, 60, 46
2, 102660, Note_on_c, 1, 84, 80
2, 102660, Note_on_c, 1, 72, 70
2, 102676, Note_off_c, 1, 56, 64
2, 102676, Note_off_c, 1, 60, 64
2, 102680, Note_off_c, 1, 51, 64
2, 102820, Control_c, 1, 64, 0
2, 102852, Control_c, 1, 64, 127
2, 102856, Note_on_c, 1, 45, 78
2, 102860, Note_off_c, 1, 72, 64
2, 102868, Note_off_c, 1, 45, 64
2, 102876, Note_off_c, 1, 84, 64
2, 102968, Note_on_c, 1, 87, 75
2, 102968, Note_on_c, 1, 75, 70
2, 103032, Note_off_c, 1, 87, 64
2, 103032, Note_off_c, 1, 75, 64
2, 103068, Note_on_c, 1, 54, 65
2, 103068, Note_on_c, 1, 86, 85
2, 103072, Note_on_c, 1, 63, 54
2, 103072, Note_on_c, 1, 74, 83
2, 103088, Note_off_c, 1, 54, 64
2, 103088, Note_off_c, 1, 74, 64
2, 103100, Note_off_c, 1, 86, 64
2, 103100, Note_off_c, 1, 63, 64
2, 103164, Note_on_c, 1, 84, 73
2, 103164, Note_on_c, 1, 72, 69
2, 103176, Note_off_c, 1, 72, 64
2, 103184, Note_off_c, 1, 84, 64
2, 103256, Control_c, 1, 64, 0
2, 103276, Note_on_c, 1, 46, 70
2, 103280, Note_on_c, 1, 82, 73
2, 103280, Note_on_c, 1, 70, 71
2, 103280, Control_c, 1, 64, 127
2, 103288, Note_off_c, 1, 46, 64
2, 103372, Note_off_c, 1, 82, 64
2, 103372, Note_on_c, 1, 79, 80
2, 103400, Note_off_c, 1, 70, 64
2, 103472, Note_on_c, 1, 63, 60
2, 103476, Note_on_c, 1, 58, 59
2, 103476, Note_on_c, 1, 55, 69
2, 103484, Note_off_c, 1, 79, 64
2, 103488, Note_on_c, 1, 84, 78
2, 103492, Note_off_c, 1, 58, 64
2, 103496, Note_off_c, 1, 63, 64
2, 103496, Note_off_c, 1, 55, 64
2, 103576, Note_on_c, 1, 82, 80
2, 103588, Note_off_c, 1, 84, 64
2, 103660, Control_c, 1, 64, 0
2, 103668, Note_on_c, 1, 46, 75
2, 103684, Note_on_c, 1, 80, 77
2, 103692, Control_c, 1, 64, 127
2, 103700, Note_off_c, 1, 82, 64
2, 103720, Note_off_c, 1, 46, 64
2, 103768, Note_off_c, 1, 80, 64
2, 103776, Note_on_c, 1, 74, 73
2, 103892, Note_on_c, 1, 56, 59
2, 103896, Note_on_c, 1, 58, 58
2, 103896, Note_on_c, 1, 62, 54
2, 103900, Note_on_c, 1, 53, 43
2, 103916, Note_off_c, 1, 56, 64
2, 103916, Note_off_c, 1, 58, 64
2, 103920, Note_off_c, 1, 62, 64
2, 103920, Note_off_c, 1, 53, 64
2, 103988, Note_on_c, 1, 82, 70
2, 104012, Note_off_c, 1, 74, 64
2, 104088, Control_c, 1, 64, 0
2, 104100, Note_on_c, 1, 55, 70
2, 104104, Note_on_c, 1, 63, 53
2, 104104, Note_on_c, 1, 75, 73
2, 104108, Note_on_c, 1, 58, 63
2, 104108, Note_on_c, 1, 51, 53
2, 104120, Note_off_c, 1, 63, 64
2, 104120, Note_off_c, 1, 58, 64
2, 104120, Control_c, 1, 64, 127
2, 104124, Note_off_c, 1, 82, 64
2, 104124, Note_off_c, 1, 55, 64
2, 104128, Note_off_c, 1, 51, 64
2, 104184, Note_off_c, 1, 75, 64
2, 104296, Note_on_c, 1, 43, 78
2, 104296, Note_on_c, 1, 55, 71
2, 104312, Note_off_c, 1, 43, 64
2, 104312, Note_off_c, 1, 55, 64
2, 104400, Note_on_c, 1, 58, 68
2, 104400, Note_on_c, 1, 46, 96
2, 104404, Note_off_c, 1, 58, 64
2, 104408, Note_off_c, 1, 46, 64
2, 104500, Note_on_c, 1, 87, 78
2, 104500, Control_c, 1, 64, 0
2, 104504, Note_on_c, 1, 75, 83
2, 104512, Note_on_c, 1, 79, 97
2, 104512, Note_on_c, 1, 51, 90
2, 104512, Note_on_c, 1, 39, 104
2, 104524, Control_c, 1, 64, 127
2, 104552, Note_off_c, 1, 87, 64
2, 104552, Note_off_c, 1, 75, 64
2, 104552, Note_off_c, 1, 79, 64
2, 104612, Note_off_c, 1, 51, 64
2, 104612, Note_off_c, 1, 39, 64
2, 104688, Control_c, 1, 64, 0
2, 104728, Note_on_c, 1, 63, 83
2, 104728, Control_c, 1, 64, 127
2, 104788, Note_off_c, 1, 63, 64
2, 104920, Control_c, 1, 64, 0
2, 104928, Note_on_c, 1, 67, 68
2, 104932, Note_on_c, 1, 46, 54
2, 104932, Note_on_c, 1, 58, 63
2, 104944, Note_off_c, 1, 46, 64
2, 104948, Control_c, 1, 64, 127
2, 104964, Note_off_c, 1, 58, 64
2, 105036, Note_off_c, 1, 67, 64
2, 105036, Note_on_c, 1, 70, 73
2, 105132, Control_c, 1, 64, 0
2, 105140, Note_on_c, 1, 51, 59
2, 105140, Note_on_c, 1, 61, 54
2, 105148, Note_on_c, 1, 55, 65
2, 105160, Note_off_c, 1, 51, 64
2, 105160, Note_off_c, 1, 55, 64
2, 105164, Note_off_c, 1, 61, 64
2, 105232, Note_off_c, 1, 70, 64
2, 105244, Note_on_c, 1, 72, 77
2, 105352, Note_on_c, 1, 39, 67
2, 105352, Note_on_c, 1, 73, 70
2, 105364, Note_on_c, 1, 51, 54
2, 105368, Note_off_c, 1, 72, 64
2, 105368, Note_off_c, 1, 39, 64
2, 105376, Note_off_c, 1, 51, 64
2, 105564, Note_off_c, 1, 73, 64
2, 105564, Note_on_c, 1, 51, 54
2, 105564, Note_on_c, 1, 58, 64
2, 105564, Note_on_c, 1, 79, 78
2, 105572, Note_on_c, 1, 61, 51
2, 105584, Note_off_c, 1, 51, 64
2, 105584, Note_off_c, 1, 58, 64
2, 105584, Note_off_c, 1, 61, 64
2, 105672, Note_on_c, 1, 77, 77
2, 105680, Note_off_c, 1, 79, 64
2, 105768, Note_on_c, 1, 75, 66
2, 105772, Note_on_c, 1, 73, 64
2, 105784, Note_off_c, 1, 77, 64
2, 105784, Note_on_c, 1, 55, 49
2, 105784, Control_c, 1, 64, 127
2, 105796, Note_off_c, 1, 75, 64
2, 105796, Note_off_c, 1, 73, 64
2, 105800, Note_off_c, 1, 55, 64
2, 105972, Note_on_c, 1, 75, 78
2, 105972, Note_on_c, 1, 58, 67
2, 105972, Note_on_c, 1, 51, 58
2, 105976, Note_on_c, 1, 61, 58
2, 105976, Note_on_c, 1, 73, 51
2, 105988, Note_off_c, 1, 58, 64
2, 105992, Note_off_c, 1, 61, 64
2, 106000, Control_c, 1, 64, 0
2, 106004, Note_off_c, 1, 51, 64
2, 106188, Note_on_c, 1, 39, 70
2, 106188, Note_on_c, 1, 51, 65
2, 106188, Control_c, 1, 64, 127
2, 106200, Note_off_c, 1, 39, 64
2, 106200, Note_off_c, 1, 51, 64
2, 106280, Note_off_c, 1, 73, 64
2, 106300, Note_off_c, 1, 75, 64
2, 106396, Note_on_c, 1, 63, 68
2, 106396, Note_on_c, 1, 61, 58
2, 106400, Note_on_c, 1, 55, 73
2, 106400, Note_on_c, 1, 51, 56
2, 106424, Note_off_c, 1, 61, 64
2, 106424, Note_off_c, 1, 55, 64
2, 106424, Note_off_c, 1, 51, 64
2, 106456, Note_off_c, 1, 63, 64
2, 106584, Control_c, 1, 64, 0
2, 106592, Note_on_c, 1, 68, 68
2, 106596, Note_on_c, 1, 44, 64
2, 106604, Note_on_c, 1, 56, 54
2, 106616, Control_c, 1, 64, 127
2, 106628, Note_off_c, 1, 44, 64
2, 106640, Note_off_c, 1, 56, 64
2, 106672, Note_off_c, 1, 68, 64
2, 106704, Note_on_c, 1, 72, 73
2, 106800, Note_on_c, 1, 56, 53
2, 106812, Note_on_c, 1, 51, 53
2, 106812, Note_on_c, 1, 60, 54
2, 106824, Note_off_c, 1, 56, 64
2, 106824, Note_off_c, 1, 60, 64
2, 106828, Note_off_c, 1, 51, 64
2, 106896, Control_c, 1, 64, 0
2, 106904, Note_on_c, 1, 73, 69
2, 106916, Note_off_c, 1, 72, 64
2, 107004, Note_on_c, 1, 39, 61
2, 107008, Note_on_c, 1, 75, 75
2, 107012, Note_on_c, 1, 51, 53
2, 107016, Control_c, 1, 64, 127
2, 107020, Note_off_c, 1, 73, 64
2, 107032, Note_off_c, 1, 39, 64
2, 107032, Note_off_c, 1, 51, 64
2, 107168, Note_off_c, 1, 75, 64
2, 107216, Note_on_c, 1, 80, 67
2, 107216, Note_on_c, 1, 56, 52
2, 107220, Note_on_c, 1, 60, 52
2, 107228, Note_off_c, 1, 56, 64
2, 107236, Note_off_c, 1, 60, 64
2, 107312, Note_off_c, 1, 80, 64
2, 107312, Note_on_c, 1, 77, 78
2, 107404, Control_c, 1, 64, 0
2, 107424, Note_on_c, 1, 44, 61
2, 107424, Note_on_c, 1, 75, 70
2, 107428, Note_off_c, 1, 77, 64
2, 107428, Note_on_c, 1, 72, 64
2, 107436, Control_c, 1, 64, 127
2, 107440, Note_off_c, 1, 44, 64
2, 107484, Note_off_c, 1, 75, 64
2, 107488, Note_off_c, 1, 72, 64
2, 107624, Note_on_c, 1, 56, 64
2, 107624, Note_on_c, 1, 51, 55
2, 107628, Note_on_c, 1, 75, 66
2, 107628, Note_on_c, 1, 72, 71
2, 107640, Note_off_c, 1, 56, 64
2, 107640, Note_off_c, 1, 51, 64
2, 107712, Control_c, 1, 64, 0
2, 107852, Note_on_c, 1, 36, 83
2, 107856, Control_c, 1, 64, 127
2, 107860, Note_off_c, 1, 36, 64
2, 107968, Note_off_c, 1, 72, 64
2, 107972, Note_off_c, 1, 75, 64
2, 108064, Note_on_c, 1, 56, 66
2, 108068, Note_on_c, 1, 51, 59
2, 108068, Note_on_c, 1, 60, 59
2, 108068, Note_on_c, 1, 75, 73
2, 108072, Note_on_c, 1, 72, 73
2, 108080, Note_off_c, 1, 60, 64
2, 108088, Note_off_c, 1, 56, 64
2, 108088, Note_off_c, 1, 51, 64
2, 108128, Note_off_c, 1, 72, 64
2, 108136, Note_off_c, 1, 75, 64
2, 108244, Control_c, 1, 64, 0
2, 108272, Note_on_c, 1, 37, 70
2, 108276, Note_on_c, 1, 77, 83
2, 108276, Note_on_c, 1, 73, 70
2, 108280, Control_c, 1, 64, 127
2, 108284, Note_off_c, 1, 37, 64
2, 108312, Note_off_c, 1, 73, 64
2, 108316, Note_off_c, 1, 77, 64
2, 108372, Note_on_c, 1, 73, 71
2, 108372, Note_on_c, 1, 77, 80
2, 108476, Note_off_c, 1, 73, 64
2, 108476, Note_off_c, 1, 77, 64
2, 108476, Note_on_c, 1, 61, 64
2, 108476, Note_on_c, 1, 53, 85
2, 108480, Note_on_c, 1, 56, 60
2, 108492, Note_off_c, 1, 61, 64
2, 108492, Note_off_c, 1, 53, 64
2, 108492, Note_off_c, 1, 56, 64
2, 108572, Note_on_c, 1, 77, 80
2, 108576, Note_on_c, 1, 71, 77
2, 108644, Control_c, 1, 64, 0
2, 108676, Note_on_c, 1, 38, 90
2, 108692, Control_c, 1, 64, 127
2, 108700, Note_off_c, 1, 38, 64
2, 108752, Note_off_c, 1, 77, 64
2, 108784, Note_on_c, 1, 80, 78
2, 108852, Note_off_c, 1, 80, 64
2, 108884, Note_on_c, 1, 56, 59
2, 108884, Note_on_c, 1, 53, 68
2, 108884, Note_on_c, 1, 59, 66
2, 108888, Note_on_c, 1, 79, 83
2, 108904, Note_off_c, 1, 59, 64
2, 108908, Note_off_c, 1, 56, 64
2, 108912, Note_off_c, 1, 53, 64
2, 108964, Note_off_c, 1, 79, 64
2, 108980, Note_on_c, 1, 77, 83
2, 108992, Note_off_c, 1, 71, 64
2, 109080, Note_off_c, 1, 77, 64
2, 109092, Note_on_c, 1, 39, 77
2, 109092, Note_on_c, 1, 75, 78
2, 109092, Control_c, 1, 64, 0
2, 109100, Note_on_c, 1, 72, 71
2, 109120, Control_c, 1, 64, 127
2, 109132, Note_off_c, 1, 39, 64
2, 109220, Note_off_c, 1, 75, 64
2, 109220, Note_off_c, 1, 72, 64
2, 109300, Note_on_c, 1, 56, 61
2, 109300, Note_on_c, 1, 51, 58
2, 109300, Note_on_c, 1, 60, 59
2, 109304, Note_on_c, 1, 75, 78
2, 109304, Note_on_c, 1, 72, 73
2, 109308, Note_off_c, 1, 60, 64
2, 109316, Note_off_c, 1, 56, 64
2, 109316, Note_off_c, 1, 51, 64
2, 109496, Note_off_c, 1, 75, 64
2, 109496, Note_on_c, 1, 39, 73
2, 109504, Note_on_c, 1, 51, 71
2, 109508, Control_c, 1, 64, 0
2, 109544, Note_off_c, 1, 72, 64
2, 109544, Control_c, 1, 64, 127
2, 109616, Note_off_c, 1, 39, 64
2, 109616, Note_on_c, 1, 75, 65
2, 109620, Note_off_c, 1, 51, 64
2, 109656, Note_off_c, 1, 75, 64
2, 109708, Note_on_c, 1, 72, 61
2, 109708, Note_on_c, 1, 52, 62
2, 109712, Note_on_c, 1, 40, 64
2, 109724, Control_c, 1, 64, 0
2, 109756, Control_c, 1, 64, 127
2, 109804, Note_off_c, 1, 72, 64
2, 109812, Note_off_c, 1, 52, 64
2, 109812, Note_off_c, 1, 40, 64
2, 109812, Note_on_c, 1, 70, 67
2, 109824, Note_off_c, 1, 70, 64
2, 109920, Note_on_c, 1, 68, 55
2, 109920, Note_on_c, 1, 53, 60
2, 109928, Note_on_c, 1, 41, 54
2, 109928, Note_on_c, 1, 62, 64
2, 109928, Control_c, 1, 64, 0
2, 109960, Control_c, 1, 64, 127
2, 110012, Note_off_c, 1, 68, 64
2, 110028, Note_off_c, 1, 62, 64
2, 110032, Note_off_c, 1, 41, 64
2, 110036, Note_off_c, 1, 53, 64
2, 110120, Note_on_c, 1, 68, 64
2, 110128, Note_on_c, 1, 53, 49
2, 110128, Note_on_c, 1, 62, 61
2, 110128, Note_on_c, 1, 41, 48
2, 110128, Control_c, 1, 64, 0
2, 110152, Control_c, 1, 64, 127
2, 110176, Note_off_c, 1, 53, 64
2, 110176, Note_off_c, 1, 62, 64
2, 110180, Note_off_c, 1, 68, 64
2, 110188, Note_off_c, 1, 41, 64
2, 110320, Note_on_c, 1, 39, 51
2, 110320, Control_c, 1, 64, 0
2, 110328, Note_on_c, 1, 70, 55
2, 110332, Note_on_c, 1, 67, 41
2, 110332, Note_on_c, 1, 61, 39
2, 110332, Note_on_c, 1, 51, 40
2, 110344, Control_c, 1, 64, 127
2, 110356, Note_off_c, 1, 39, 64
2, 110368, Note_off_c, 1, 70, 64
2, 110368, Note_off_c, 1, 51, 64
2, 110372, Note_off_c, 1, 67, 64
2, 110372, Note_off_c, 1, 61, 64
2, 110428, Note_on_c, 1, 67, 56
2, 110428, Note_on_c, 1, 70, 56
2, 110428, Note_on_c, 1, 61, 38
2, 110488, Note_off_c, 1, 67, 64
2, 110512, Note_off_c, 1, 70, 64
2, 110520, Note_off_c, 1, 61, 64
2, 110540, Note_on_c, 1, 55, 61
2, 110548, Note_on_c, 1, 43, 61
2, 110552, Control_c, 1, 64, 0
2, 110608, Control_c, 1, 64, 127
2, 110624, Note_off_c, 1, 43, 64
2, 110632, Note_off_c, 1, 55, 64
2, 110636, Note_on_c, 1, 63, 57
2, 110684, Note_off_c, 1, 63, 64
2, 110752, Note_on_c, 1, 56, 54
2, 110756, Note_on_c, 1, 44, 39
2, 110756, Note_on_c, 1, 63, 53
2, 110760, Note_on_c, 1, 68, 56
2, 110760, Note_on_c, 1, 60, 49
2, 110760, Control_c, 1, 64, 0
2, 110776, Control_c, 1, 64, 127
2, 110788, Note_off_c, 1, 63, 64
2, 110788, Note_off_c, 1, 60, 64
2, 110796, Note_off_c, 1, 68, 64
2, 110952, Note_off_c, 1, 44, 64
2, 110952, Note_on_c, 1, 75, 68
2, 110976, Note_off_c, 1, 56, 64
2, 110984, Note_off_c, 1, 75, 64
2, 111040, Note_on_c, 1, 75, 65
2, 111068, Note_off_c, 1, 75, 64
2, 111160, Note_on_c, 1, 75, 83
2, 111176, Note_off_c, 1, 75, 64
2, 111180, Control_c, 1, 64, 0
2, 111372, Control_c, 1, 64, 127
2, 111392, Control_c, 1, 64, 127
2, 111396, Note_on_c, 1, 63, 49
2, 111424, Note_off_c, 1, 63, 64
2, 111592, Note_on_c, 1, 46, 49
2, 111592, Note_on_c, 1, 58, 50
2, 111592, Control_c, 1, 64, 0
2, 111600, Note_on_c, 1, 67, 61
2, 111612, Note_off_c, 1, 46, 64
2, 111624, Note_off_c, 1, 58, 64
2, 111696, Note_on_c, 1, 70, 62
2, 111716, Note_off_c, 1, 67, 64
2, 111804, Note_on_c, 1, 51, 38
2, 111804, Note_on_c, 1, 61, 44
2, 111808, Note_on_c, 1, 55, 38
2, 111828, Note_off_c, 1, 51, 64
2, 111828, Note_off_c, 1, 61, 64
2, 111836, Note_off_c, 1, 55, 64
2, 111884, Note_off_c, 1, 70, 64
2, 111900, Note_on_c, 1, 72, 70
2, 112004, Note_on_c, 1, 39, 65
2, 112008, Note_on_c, 1, 51, 58
2, 112012, Note_off_c, 1, 72, 64
2, 112016, Note_on_c, 1, 73, 66
2, 112024, Note_off_c, 1, 39, 64
2, 112032, Note_off_c, 1, 51, 64
2, 112220, Note_on_c, 1, 79, 78
2, 112228, Note_off_c, 1, 73, 64
2, 112228, Note_on_c, 1, 58, 55
2, 112232, Note_on_c, 1, 51, 55
2, 112232, Note_on_c, 1, 61, 50
2, 112244, Note_off_c, 1, 58, 64
2, 112248, Note_off_c, 1, 51, 64
2, 112248, Note_off_c, 1, 61, 64
2, 112328, Note_on_c, 1, 77, 71
2, 112340, Note_off_c, 1, 79, 64
2, 112432, Note_on_c, 1, 75, 65
2, 112432, Note_on_c, 1, 73, 63
2, 112444, Note_on_c, 1, 43, 49
2, 112448, Note_off_c, 1, 77, 64
2, 112448, Note_on_c, 1, 55, 46
2, 112452, Note_off_c, 1, 43, 64
2, 112460, Note_off_c, 1, 75, 64
2, 112460, Note_off_c, 1, 73, 64
2, 112460, Note_off_c, 1, 55, 64
2, 112644, Note_on_c, 1, 61, 51
2, 112648, Note_on_c, 1, 51, 59
2, 112648, Note_on_c, 1, 58, 64
2, 112648, Note_on_c, 1, 75, 62
2, 112648, Note_on_c, 1, 73, 58
2, 112664, Note_off_c, 1, 61, 64
2, 112668, Note_off_c, 1, 58, 64
2, 112676, Note_off_c, 1, 51, 64
2, 112848, Note_on_c, 1, 39, 65
2, 112856, Note_on_c, 1, 51, 58
2, 112868, Note_off_c, 1, 39, 64
2, 112876, Note_off_c, 1, 51, 64
2, 112908, Note_off_c, 1, 73, 64
2, 112916, Note_off_c, 1, 75, 64
2, 113056, Note_on_c, 1, 55, 64
2, 113056, Note_on_c, 1, 61, 53
2, 113056, Control_c, 1, 64, 127
2, 113060, Note_on_c, 1, 51, 40
2, 113064, Note_on_c, 1, 63, 67
2, 113080, Note_off_c, 1, 55, 64
2, 113080, Note_off_c, 1, 61, 64
2, 113084, Note_off_c, 1, 51, 64
2, 113084, Note_off_c, 1, 63, 64
2, 113252, Note_on_c, 1, 44, 66
2, 113252, Note_on_c, 1, 68, 77
2, 113252, Note_on_c, 1, 56, 58
2, 113252, Control_c, 1, 64, 0
2, 113288, Note_off_c, 1, 44, 64
2, 113288, Note_off_c, 1, 56, 64
2, 113356, Note_off_c, 1, 68, 64
2, 113364, Note_on_c, 1, 72, 80
2, 113460, Note_on_c, 1, 56, 61
2, 113460, Note_on_c, 1, 51, 58
2, 113464, Note_on_c, 1, 60, 61
2, 113480, Note_off_c, 1, 56, 64
2, 113480, Note_off_c, 1, 51, 64
2, 113480, Note_off_c, 1, 60, 64
2, 113560, Note_on_c, 1, 73, 70
2, 113568, Note_off_c, 1, 72, 64
2, 113672, Note_on_c, 1, 39, 64
2, 113672, Note_on_c, 1, 51, 61
2, 113676, Note_off_c, 1, 73, 64
2, 113676, Note_on_c, 1, 75, 77
2, 113692, Note_off_c, 1, 39, 64
2, 113692, Note_off_c, 1, 51, 64
2, 113884, Note_on_c, 1, 56, 57
2, 113884, Note_on_c, 1, 51, 56
2, 113888, Note_on_c, 1, 60, 42
2, 113888, Note_on_c, 1, 80, 68
2, 113904, Note_off_c, 1, 56, 64
2, 113904, Note_off_c, 1, 60, 64
2, 113908, Note_off_c, 1, 75, 64
2, 113908, Note_off_c, 1, 51, 64
2, 113992, Note_off_c, 1, 80, 64
2, 113996, Note_on_c, 1, 77, 68
2, 114096, Note_on_c, 1, 44, 56
2, 114096, Note_on_c, 1, 75, 62
2, 114108, Note_on_c, 1, 72, 53
2, 114124, Note_off_c, 1, 77, 64
2, 114128, Note_off_c, 1, 44, 64
2, 114136, Note_off_c, 1, 75, 64
2, 114136, Note_off_c, 1, 72, 64
2, 114308, Note_on_c, 1, 75, 63
2, 114312, Note_on_c, 1, 56, 52
2, 114312, Note_on_c, 1, 51, 48
2, 114312, Note_on_c, 1, 72, 62
2, 114316, Note_on_c, 1, 60, 45
2, 114328, Note_off_c, 1, 60, 64
2, 114332, Note_off_c, 1, 56, 64
2, 114332, Note_off_c, 1, 51, 64
2, 114516, Note_on_c, 1, 36, 78
2, 114520, Control_c, 1, 64, 127
2, 114532, Note_off_c, 1, 36, 64
2, 114592, Note_off_c, 1, 75, 64
2, 114592, Note_off_c, 1, 72, 64
2, 114724, Note_on_c, 1, 51, 53
2, 114724, Note_on_c, 1, 56, 61
2, 114724, Note_on_c, 1, 60, 62
2, 114728, Note_on_c, 1, 75, 68
2, 114732, Note_on_c, 1, 72, 71
2, 114736, Note_off_c, 1, 51, 64
2, 114736, Note_off_c, 1, 60, 64
2, 114744, Note_off_c, 1, 56, 64
2, 114780, Note_off_c, 1, 72, 64
2, 114792, Note_off_c, 1, 75, 64
2, 114900, Control_c, 1, 64, 0
2, 114912, Note_on_c, 1, 37, 70
2, 114916, Note_on_c, 1, 77, 83
2, 114920, Note_on_c, 1, 73, 73
2, 114932, Note_off_c, 1, 37, 64
2, 114936, Control_c, 1, 64, 127
2, 114964, Note_off_c, 1, 73, 64
2, 114968, Note_off_c, 1, 77, 64
2, 115028, Note_on_c, 1, 77, 80
2, 115028, Note_on_c, 1, 73, 71
2, 115104, Note_off_c, 1, 73, 64
2, 115120, Note_off_c, 1, 77, 64
2, 115120, Note_on_c, 1, 61, 59
2, 115128, Note_on_c, 1, 56, 37
2, 115136, Note_off_c, 1, 56, 64
2, 115140, Note_off_c, 1, 61, 64
2, 115232, Note_on_c, 1, 77, 80
2, 115232, Note_on_c, 1, 73, 71
2, 115308, Control_c, 1, 64, 0
2, 115328, Note_on_c, 1, 37, 77
2, 115336, Control_c, 1, 64, 127
2, 115344, Note_off_c, 1, 37, 64
2, 115416, Note_off_c, 1, 77, 64
2, 115420, Note_off_c, 1, 73, 64
2, 115432, Note_on_c, 1, 80, 79
2, 115532, Note_off_c, 1, 80, 64
2, 115540, Note_on_c, 1, 82, 85
2, 115540, Note_on_c, 1, 52, 71
2, 115548, Note_on_c, 1, 61, 57
2, 115576, Note_off_c, 1, 61, 64
2, 115580, Note_off_c, 1, 52, 64
2, 115632, Note_off_c, 1, 82, 64
2, 115648, Note_on_c, 1, 80, 78
2, 115672, Note_off_c, 1, 80, 64
2, 115748, Control_c, 1, 64, 0
2, 115752, Note_on_c, 1, 44, 71
2, 115760, Note_on_c, 1, 84, 83
2, 115760, Note_on_c, 1, 72, 73
2, 115776, Control_c, 1, 64, 127
2, 115780, Note_off_c, 1, 44, 64
2, 115868, Note_off_c, 1, 84, 64
2, 115880, Note_off_c, 1, 72, 64
2, 115960, Note_on_c, 1, 56, 62
2, 115964, Note_on_c, 1, 51, 66
2, 115964, Note_on_c, 1, 60, 65
2, 115964, Note_on_c, 1, 84, 83
2, 115964, Note_on_c, 1, 72, 78
2, 115976, Note_off_c, 1, 60, 64
2, 115988, Note_off_c, 1, 56, 64
2, 115988, Note_off_c, 1, 51, 64
2, 116132, Control_c, 1, 64, 0
2, 116164, Note_off_c, 1, 72, 64
2, 116168, Note_off_c, 1, 84, 64
2, 116168, Note_on_c, 1, 45, 83
2, 116172, Control_c, 1, 64, 127
2, 116188, Note_off_c, 1, 45, 64
2, 116284, Note_on_c, 1, 87, 71
2, 116284, Note_on_c, 1, 75, 80
2, 116332, Note_off_c, 1, 87, 64
2, 116332, Note_off_c, 1, 75, 64
2, 116384, Note_on_c, 1, 54, 71
2, 116384, Note_on_c, 1, 57, 77
2, 116388, Note_on_c, 1, 63, 58
2, 116388, Note_on_c, 1, 86, 75
2, 116392, Note_on_c, 1, 74, 85
2, 116408, Note_off_c, 1, 57, 64
2, 116412, Note_off_c, 1, 54, 64
2, 116412, Note_off_c, 1, 63, 64
2, 116416, Note_off_c, 1, 74, 64
2, 116420, Note_off_c, 1, 86, 64
2, 116480, Note_on_c, 1, 72, 71
2, 116480, Note_on_c, 1, 84, 75
2, 116500, Note_off_c, 1, 72, 64
2, 116504, Note_off_c, 1, 84, 64
2, 116592, Note_on_c, 1, 46, 73
2, 116592, Control_c, 1, 64, 0
2, 116596, Note_on_c, 1, 82, 73
2, 116596, Note_on_c, 1, 70, 71
2, 116616, Control_c, 1, 64, 127
2, 116624, Note_off_c, 1, 46, 64
2, 116688, Note_off_c, 1, 70, 64
2, 116688, Note_on_c, 1, 79, 75
2, 116708, Note_off_c, 1, 82, 64
2, 116792, Note_on_c, 1, 55, 71
2, 116800, Note_off_c, 1, 79, 64
2, 116800, Note_on_c, 1, 84, 78
2, 116800, Note_on_c, 1, 63, 54
2, 116804, Note_on_c, 1, 58, 38
2, 116820, Note_off_c, 1, 63, 64
2, 116828, Note_off_c, 1, 58, 64
2, 116832, Note_off_c, 1, 55, 64
2, 116892, Note_on_c, 1, 82, 70
2, 116900, Note_off_c, 1, 84, 64
2, 116984, Control_c, 1, 64, 0
2, 116996, Note_on_c, 1, 46, 68
2, 117004, Note_on_c, 1, 80, 70
2, 117008, Note_off_c, 1, 82, 64
2, 117020, Control_c, 1, 64, 127
2, 117048, Note_off_c, 1, 46, 64
2, 117088, Note_off_c, 1, 80, 64
2, 117096, Note_on_c, 1, 74, 71
2, 117208, Note_on_c, 1, 53, 65
2, 117208, Note_on_c, 1, 56, 52
2, 117212, Note_on_c, 1, 58, 40
2, 117216, Note_on_c, 1, 62, 40
2, 117232, Note_off_c, 1, 53, 64
2, 117240, Note_off_c, 1, 56, 64
2, 117240, Note_off_c, 1, 58, 64
2, 117240, Note_off_c, 1, 62, 64
2, 117300, Note_on_c, 1, 82, 65
2, 117304, Note_off_c, 1, 74, 64
2, 117408, Control_c, 1, 64, 0
2, 117416, Note_on_c, 1, 58, 63
2, 117416, Note_on_c, 1, 55, 71
2, 117420, Note_on_c, 1, 51, 56
2, 117420, Note_on_c, 1, 63, 55
2, 117420, Note_on_c, 1, 75, 75
2, 117436, Control_c, 1, 64, 127
2, 117440, Note_off_c, 1, 82, 64
2, 117440, Note_off_c, 1, 58, 64
2, 117444, Note_off_c, 1, 55, 64
2, 117444, Note_off_c, 1, 63, 64
2, 117448, Note_off_c, 1, 51, 64
2, 117472, Note_off_c, 1, 75, 64
2, 117620, Note_on_c, 1, 43, 80
2, 117624, Note_on_c, 1, 55, 71
2, 117640, Note_off_c, 1, 55, 64
2, 117644, Note_off_c, 1, 43, 64
2, 117724, Note_on_c, 1, 58, 77
2, 117728, Note_on_c, 1, 46, 108
2, 117736, Note_off_c, 1, 58, 64
2, 117744, Note_off_c, 1, 46, 64
2, 117836, Note_on_c, 1, 51, 96
2, 117836, Note_on_c, 1, 39, 112
2, 117836, Note_on_c, 1, 87, 78
2, 117840, Note_on_c, 1, 75, 77
2, 117840, Note_on_c, 1, 79, 100
2, 117840, Control_c, 1, 64, 0
2, 117868, Control_c, 1, 64, 127
2, 117888, Note_off_c, 1, 87, 64
2, 117888, Note_off_c, 1, 79, 64
2, 117892, Note_off_c, 1, 75, 64
2, 117952, Note_off_c, 1, 51, 64
2, 117956, Note_off_c, 1, 39, 64
2, 118028, Control_c, 1, 64, 0
2, 118044, Note_on_c, 1, 63, 85
2, 118060, Control_c, 1, 64, 127
2, 118100, Note_off_c, 1, 63, 64
2, 118220, Note_on_c, 1, 67, 78
2, 118228, Note_on_c, 1, 46, 77
2, 118228, Note_on_c, 1, 58, 70
2, 118228, Control_c, 1, 64, 0
2, 118256, Control_c, 1, 64, 127
2, 118276, Note_off_c, 1, 46, 64
2, 118292, Note_off_c, 1, 58, 64
2, 118328, Note_on_c, 1, 70, 71
2, 118348, Note_off_c, 1, 67, 64
2, 118436, Note_on_c, 1, 55, 69
2, 118440, Note_on_c, 1, 51, 59
2, 118440, Note_on_c, 1, 61, 59
2, 118440, Control_c, 1, 64, 0
2, 118464, Note_off_c, 1, 55, 64
2, 118464, Note_off_c, 1, 61, 64
2, 118468, Note_off_c, 1, 51, 64
2, 118532, Note_off_c, 1, 70, 64
2, 118544, Note_on_c, 1, 72, 70
2, 118652, Note_on_c, 1, 39, 66
2, 118656, Note_on_c, 1, 51, 60
2, 118660, Note_on_c, 1, 73, 71
2, 118664, Note_off_c, 1, 72, 64
2, 118668, Control_c, 1, 64, 127
2, 118680, Note_off_c, 1, 39, 64
2, 118688, Note_off_c, 1, 51, 64
2, 118868, Note_on_c, 1, 79, 71
2, 118872, Note_on_c, 1, 61, 53
2, 118876, Note_on_c, 1, 58, 63
2, 118876, Note_on_c, 1, 51, 42
2, 118876, Control_c, 1, 64, 0
2, 118896, Note_off_c, 1, 61, 64
2, 118896, Note_off_c, 1, 58, 64
2, 118912, Note_off_c, 1, 51, 64
2, 118928, Note_off_c, 1, 73, 64
2, 118988, Note_on_c, 1, 77, 77
2, 119012, Note_off_c, 1, 79, 64
2, 119084, Note_on_c, 1, 75, 67
2, 119084, Note_on_c, 1, 43, 66
2, 119088, Note_on_c, 1, 73, 62
2, 119088, Note_on_c, 1, 55, 62
2, 119104, Note_off_c, 1, 77, 64
2, 119104, Note_off_c, 1, 75, 64
2, 119104, Note_off_c, 1, 43, 64
2, 119104, Control_c, 1, 64, 127
2, 119108, Note_off_c, 1, 73, 64
2, 119108, Note_off_c, 1, 55, 64
2, 119116, Control_c, 1, 64, 0
2, 119288, Note_on_c, 1, 75, 62
2, 119288, Note_on_c, 1, 58, 54
2, 119292, Note_on_c, 1, 51, 54
2, 119292, Note_on_c, 1, 73, 59
2, 119292, Note_on_c, 1, 61, 52
2, 119304, Note_off_c, 1, 61, 64
2, 119316, Note_off_c, 1, 58, 64
2, 119316, Note_off_c, 1, 51, 64
2, 119504, Note_on_c, 1, 39, 56
2, 119504, Note_on_c, 1, 51, 48
2, 119504, Control_c, 1, 64, 127
2, 119516, Note_off_c, 1, 39, 64
2, 119524, Note_off_c, 1, 51, 64
2, 119544, Note_off_c, 1, 75, 64
2, 119544, Note_off_c, 1, 73, 64
2, 119712, Note_on_c, 1, 61, 38
2, 119716, Note_on_c, 1, 58, 40
2, 119716, Note_on_c, 1, 63, 75
2, 119720, Note_on_c, 1, 51, 39
2, 119732, Note_off_c, 1, 61, 64
2, 119732, Note_off_c, 1, 58, 64
2, 119740, Note_off_c, 1, 63, 64
2, 119740, Note_off_c, 1, 51, 64
2, 119876, Note_on_c, 1, 44, 43
2, 119884, Control_c, 1, 64, 0
2, 119896, Note_on_c, 1, 56, 61
2, 119904, Note_on_c, 1, 68, 74
2, 119912, Control_c, 1, 64, 127
2, 119924, Note_off_c, 1, 44, 64
2, 119928, Note_off_c, 1, 56, 64
2, 119992, Note_off_c, 1, 68, 64
2, 120020, Note_on_c, 1, 72, 77
2, 120108, Note_on_c, 1, 56, 57
2, 120108, Note_on_c, 1, 51, 54
2, 120112, Note_on_c, 1, 60, 57
2, 120116, Note_off_c, 1, 60, 64
2, 120128, Note_off_c, 1, 56, 64
2, 120128, Control_c, 1, 64, 0
2, 120136, Note_off_c, 1, 51, 64
2, 120208, Note_on_c, 1, 73, 73
2, 120232, Note_off_c, 1, 72, 64
2, 120324, Note_on_c, 1, 75, 80
2, 120328, Note_on_c, 1, 39, 64
2, 120332, Note_on_c, 1, 51, 62
2, 120344, Note_off_c, 1, 73, 64
2, 120352, Note_off_c, 1, 39, 64
2, 120352, Control_c, 1, 64, 127
2, 120360, Note_off_c, 1, 51, 64
2, 120520, Control_c, 1, 64, 0
2, 120532, Note_on_c, 1, 56, 59
2, 120532, Note_on_c, 1, 60, 57
2, 120536, Note_on_c, 1, 51, 53
2, 120536, Note_on_c, 1, 80, 68
2, 120556, Note_off_c, 1, 60, 64
2, 120560, Note_off_c, 1, 75, 64
2, 120560, Note_off_c, 1, 56, 64
2, 120560, Note_off_c, 1, 51, 64
2, 120648, Note_on_c, 1, 77, 67
2, 120684, Note_off_c, 1, 80, 64
2, 120748, Note_on_c, 1, 44, 60
2, 120748, Note_on_c, 1, 75, 59
2, 120752, Note_on_c, 1, 72, 62
2, 120756, Control_c, 1, 64, 127
2, 120764, Note_off_c, 1, 77, 64
2, 120776, Note_off_c, 1, 44, 64
2, 120796, Note_off_c, 1, 75, 64
2, 120800, Note_off_c, 1, 72, 64
2, 120960, Note_on_c, 1, 56, 53
2, 120960, Note_on_c, 1, 51, 51
2, 120964, Note_on_c, 1, 75, 65
2, 120964, Note_on_c, 1, 60, 54
2, 120968, Note_on_c, 1, 72, 60
2, 120980, Note_off_c, 1, 60, 64
2, 120984, Note_off_c, 1, 56, 64
2, 120984, Note_off_c, 1, 51, 64
2, 121140, Control_c, 1, 64, 0
2, 121168, Note_on_c, 1, 36, 90
2, 121176, Control_c, 1, 64, 127
2, 121188, Note_off_c, 1, 36, 64
2, 121280, Note_off_c, 1, 75, 64
2, 121280, Note_off_c, 1, 72, 64
2, 121380, Note_on_c, 1, 56, 66
2, 121380, Note_on_c, 1, 51, 64
2, 121384, Note_on_c, 1, 60, 67
2, 121384, Note_on_c, 1, 75, 83
2, 121388, Note_on_c, 1, 72, 75
2, 121392, Note_off_c, 1, 56, 64
2, 121392, Note_off_c, 1, 60, 64
2, 121396, Note_off_c, 1, 51, 64
2, 121436, Note_off_c, 1, 75, 64
2, 121436, Note_off_c, 1, 72, 64
2, 121564, Control_c, 1, 64, 0
2, 121576, Note_on_c, 1, 37, 80
2, 121588, Note_on_c, 1, 77, 85
2, 121588, Note_on_c, 1, 73, 73
2, 121588, Control_c, 1, 64, 127
2, 121596, Note_off_c, 1, 37, 64
2, 121620, Note_off_c, 1, 73, 64
2, 121628, Note_off_c, 1, 77, 64
2, 121684, Note_on_c, 1, 73, 70
2, 121684, Note_on_c, 1, 77, 80
2, 121772, Note_off_c, 1, 73, 64
2, 121780, Note_off_c, 1, 77, 64
2, 121780, Note_on_c, 1, 61, 66
2, 121784, Note_on_c, 1, 53, 85
2, 121784, Note_on_c, 1, 56, 68
2, 121800, Note_off_c, 1, 56, 64
2, 121804, Note_off_c, 1, 61, 64
2, 121804, Note_off_c, 1, 53, 64
2, 121888, Note_on_c, 1, 77, 90
2, 121892, Note_on_c, 1, 71, 75
2, 121964, Control_c, 1, 64, 0
2, 121988, Note_on_c, 1, 38, 90
2, 121996, Control_c, 1, 64, 127
2, 122004, Note_off_c, 1, 38, 64
2, 122084, Note_off_c, 1, 77, 64
2, 122092, Note_on_c, 1, 80, 78
2, 122164, Note_off_c, 1, 80, 64
2, 122196, Note_on_c, 1, 56, 60
2, 122200, Note_on_c, 1, 53, 66
2, 122200, Note_on_c, 1, 59, 66
2, 122200, Note_on_c, 1, 79, 90
2, 122216, Note_off_c, 1, 56, 64
2, 122216, Note_off_c, 1, 53, 64
2, 122216, Note_off_c, 1, 59, 64
2, 122284, Note_off_c, 1, 71, 64
2, 122292, Note_off_c, 1, 79, 64
2, 122296, Note_on_c, 1, 77, 73
2, 122408, Control_c, 1, 64, 0
2, 122412, Note_off_c, 1, 77, 64
2, 122412, Note_on_c, 1, 39, 88
2, 122416, Note_on_c, 1, 75, 77
2, 122416, Note_on_c, 1, 72, 73
2, 122444, Control_c, 1, 64, 127
2, 122460, Note_off_c, 1, 39, 64
2, 122516, Note_off_c, 1, 75, 64
2, 122524, Note_off_c, 1, 72, 64
2, 122632, Note_on_c, 1, 56, 59
2, 122636, Note_on_c, 1, 51, 53
2, 122636, Note_on_c, 1, 60, 61
2, 122644, Note_on_c, 1, 75, 80
2, 122644, Note_on_c, 1, 72, 80
2, 122652, Note_off_c, 1, 56, 64
2, 122652, Note_off_c, 1, 51, 64
2, 122652, Note_off_c, 1, 60, 64
2, 122828, Note_off_c, 1, 75, 64
2, 122836, Note_off_c, 1, 72, 64
2, 122852, Note_on_c, 1, 39, 80
2, 122852, Note_on_c, 1, 51, 73
2, 122856, Control_c, 1, 64, 0
2, 122924, Control_c, 1, 64, 127
2, 122952, Note_on_c, 1, 75, 77
2, 122960, Note_off_c, 1, 39, 64
2, 122960, Note_off_c, 1, 51, 64
2, 123040, Note_off_c, 1, 75, 64
2, 123056, Note_on_c, 1, 72, 77
2, 123060, Note_on_c, 1, 40, 73
2, 123068, Note_on_c, 1, 52, 64
2, 123076, Control_c, 1, 64, 0
2, 123132, Control_c, 1, 64, 127
2, 123160, Note_off_c, 1, 40, 64
2, 123164, Note_off_c, 1, 52, 64
2, 123164, Note_on_c, 1, 70, 73
2, 123180, Note_off_c, 1, 72, 64
2, 123200, Note_off_c, 1, 70, 64
2, 123268, Note_on_c, 1, 68, 68
2, 123276, Note_on_c, 1, 41, 68
2, 123280, Note_on_c, 1, 53, 68
2, 123280, Note_on_c, 1, 62, 71
2, 123280, Control_c, 1, 64, 0
2, 123304, Control_c, 1, 64, 127
2, 123352, Note_off_c, 1, 68, 64
2, 123372, Note_off_c, 1, 41, 64
2, 123372, Note_off_c, 1, 62, 64
2, 123380, Note_off_c, 1, 53, 64
2, 123472, Control_c, 1, 64, 0
2, 123476, Note_on_c, 1, 68, 71
2, 123476, Note_on_c, 1, 53, 65
2, 123480, Note_on_c, 1, 62, 68
2, 123480, Note_on_c, 1, 41, 64
2, 123508, Control_c, 1, 64, 127
2, 123536, Note_off_c, 1, 62, 64
2, 123556, Note_off_c, 1, 53, 64
2, 123560, Note_off_c, 1, 68, 64
2, 123564, Note_off_c, 1, 41, 64
2, 123684, Control_c, 1, 64, 0
2, 123692, Note_on_c, 1, 39, 52
2, 123692, Note_on_c, 1, 51, 47
2, 123696, Note_on_c, 1, 67, 69
2, 123696, Note_on_c, 1, 70, 60
2, 123704, Note_on_c, 1, 61, 52
2, 123720, Control_c, 1, 64, 127
2, 123740, Note_off_c, 1, 39, 64
2, 123740, Note_off_c, 1, 67, 64
2, 123740, Note_off_c, 1, 70, 64
2, 123744, Note_off_c, 1, 51, 64
2, 123744, Note_off_c, 1, 61, 64
2, 123808, Note_on_c, 1, 70, 56
2, 123808, Note_on_c, 1, 67, 44
2, 123820, Note_on_c, 1, 61, 33
2, 123868, Note_off_c, 1, 67, 64
2, 123900, Note_off_c, 1, 70, 64
2, 123900, Note_off_c, 1, 61, 64
2, 123920, Note_on_c, 1, 55, 67
2, 123924, Note_on_c, 1, 43, 65
2, 123928, Control_c, 1, 64, 0
2, 123972, Control_c, 1, 64, 127
2, 124012, Note_off_c, 1, 43, 64
2, 124016, Note_off_c, 1, 55, 64
2, 124024, Note_on_c, 1, 63, 66
2, 124080, Note_off_c, 1, 63, 64
2, 124164, Note_on_c, 1, 68, 57
2, 124164, Note_on_c, 1, 63, 54
2, 124168, Note_on_c, 1, 44, 54
2, 124168, Note_on_c, 1, 56, 56
2, 124168, Note_on_c, 1, 60, 41
2, 124172, Control_c, 1, 64, 0
2, 124212, Control_c, 1, 64, 127
2, 124300, Note_off_c, 1, 44, 64
2, 124300, Note_off_c, 1, 56, 64
2, 124408, Control_c, 1, 64, 0
2, 124436, Note_on_c, 1, 39, 66
2, 124436, Note_on_c, 1, 51, 65
2, 124436, Control_c, 1, 64, 127
2, 124464, Note_off_c, 1, 60, 64
2, 124468, Note_off_c, 1, 63, 64
2, 124472, Note_off_c, 1, 51, 64
2, 124476, Note_off_c, 1, 39, 64
2, 124480, Note_off_c, 1, 68, 64
2, 124616, Control_c, 1, 64, 0
2, 124840, Note_on_c, 1, 32, 104
2, 124840, Note_on_c, 1, 44, 104
2, 124844, Note_on_c, 1, 72, 108
2, 124844, Note_on_c, 1, 80, 90
2, 124844, Note_on_c, 1, 68, 104
2, 124848, Control_c, 1, 64, 127
2, 124888, Note_off_c, 1, 44, 64
2, 124892, Note_off_c, 1, 32, 64
2, 124900, Note_off_c, 1, 72, 64
2, 124908, Note_off_c, 1, 68, 64
2, 124916, Note_off_c, 1, 80, 64
2, 124976, Control_c, 1, 64, 0
2, 124976, End_track
3, 0, Start_track
3, 0, Title_t, "Alessandro Simonetto, piano"
3, 0, Key_signature, 0, "major"
3, 0, End_track
4, 0, Start_track
4, 0, Title_t, "Info: www.kunstderfuge.com/ragtime.htm!"
4, 0, Key_signature, 0, "major"
4, 0, End_track
5, 0, Start_track
5, 0, Title_t, "All rights reserved,  2003-04"
5, 0, Key_signature, 0, "major"
5, 0, End_track
6, 0, Start_track
6, 0, Key_signature, 0, "major"
6, 0, End_track
7, 0, Start_track
7, 0, Key_signature, 0, "major"
7, 0, End_track
8, 0, Start_track
8, 0, Key_signature, 0, "major"
8, 0, End_track
9, 0, Start_track
9, 0, Key_signature, 0, "major"
9, 0, End_track
10, 0, Start_track
10, 0, Key_signature, 0, "major"
10, 0, End_track
11, 0, Start_track
11, 0, Key_signature, 0, "major"
11, 0, End_track
12, 0, Start_track
12, 0, Key_signature, 0, "major"
12, 0, End_track
13, 0, Start_track
13, 0, Key_signature, 0, "major"
13, 0, End_track
14, 0, Start_track
14, 0, Key_signature, 0, "major"
14, 0, End_track
15, 0, Start_track
15, 0, Key_signature, 0, "major"
15, 0, End_track
16, 0, Start_track
16, 0, Key_signature, 0, "major"
16, 0, End_track
17, 0, Start_track
17, 0, Key_signature, 0, "major"
17, 0, End_track
18, 0, Start_track
18, 1, Copyright_t, "___________________________________________________\012\012KUNSTDERFUGE.COM LARGE CLASSICAL MIDI COLLECTION\012ONCLASSICAL BY ALESSANDRO SIMONETTO, PROPRIETOR\012___________________________________________________\012\012! Attention: this file is under copyright !\012\012(c)onclassical, (c)simonetto, 2010\012___________________________________________________\012\012NO ONE MAY REPUBLISH THIS FILE WITHOUT PERMISSION\012COMMERCIAL USES OF THIS FILE IS STRICTLY PROHIBITED\012___________________________________________________\012\012Files & contributor's list: http://kunstderfuge.com/\012Terms and conditions: http://kunstderfuge.com/notes.htm"
18, 1, End_track
0, 0, End_of_file
