0, 0, Header, 1, 7, 192
1, 0, Start_track
1, 0, Title_t, "28-38S"
1, 0, Copyright_t, "May NOT be used for commercial purposes."
1, 0, Text_t, "Roll expression/accent tracks, where present, converted to MIDI velocties.\012"
1, 0, Time_signature, 4, 2, 24, 8
1, 0, Key_signature, 0, "major"
1, 0, Tempo, 500000
1, 0, Marker_t, "Standard MIDI:LPI 112:Tempo  75: 10-29-2003"
1, 0, End_track
2, 0, Start_track
2, 0, Title_t, "Perfect Rag - Frog-i-More Rag"
2, 89, Note_on_c, 0, 70, 80
2, 94, Note_on_c, 0, 73, 80
2, 94, Note_on_c, 0, 78, 80
2, 96, Note_on_c, 0, 66, 80
2, 331, Note_on_c, 0, 66, 0
2, 331, Note_on_c, 0, 73, 0
2, 333, Note_on_c, 0, 70, 0
2, 337, Note_on_c, 0, 78, 0
2, 351, Note_on_c, 0, 77, 80
2, 353, Note_on_c, 0, 65, 80
2, 353, Note_on_c, 0, 69, 80
2, 353, Note_on_c, 0, 72, 80
2, 460, Note_on_c, 0, 65, 0
2, 462, Note_on_c, 0, 77, 0
2, 462, Note_on_c, 0, 69, 0
2, 464, Note_on_c, 0, 72, 0
2, 484, Note_on_c, 0, 73, 80
2, 484, Note_on_c, 0, 78, 80
2, 486, Note_on_c, 0, 66, 80
2, 491, Note_on_c, 0, 70, 80
2, 594, Note_on_c, 0, 66, 0
2, 605, Note_on_c, 0, 70, 0
2, 605, Note_on_c, 0, 73, 0
2, 607, Note_on_c, 0, 78, 0
2, 621, Note_on_c, 0, 65, 80
2, 625, Note_on_c, 0, 77, 80
2, 632, Note_on_c, 0, 69, 80
2, 632, Note_on_c, 0, 72, 80
2, 726, Note_on_c, 0, 65, 0
2, 736, Note_on_c, 0, 77, 0
2, 736, Note_on_c, 0, 69, 0
2, 738, Note_on_c, 0, 72, 0
2, 758, Note_on_c, 0, 66, 80
2, 758, Note_on_c, 0, 73, 80
2, 760, Note_on_c, 0, 78, 80
2, 762, Note_on_c, 0, 70, 80
2, 856, Note_on_c, 0, 66, 0
2, 861, Note_on_c, 0, 73, 0
2, 867, Note_on_c, 0, 70, 0
2, 869, Note_on_c, 0, 78, 0
2, 888, Note_on_c, 0, 65, 80
2, 888, Note_on_c, 0, 77, 80
2, 889, Note_on_c, 0, 69, 80
2, 889, Note_on_c, 0, 72, 80
2, 992, Note_on_c, 0, 72, 0
2, 992, Note_on_c, 0, 65, 0
2, 997, Note_on_c, 0, 77, 0
2, 1002, Note_on_c, 0, 69, 0
2, 1152, Note_on_c, 0, 70, 80
2, 1154, Note_on_c, 0, 54, 80
2, 1156, Note_on_c, 0, 42, 80
2, 1158, Note_on_c, 0, 66, 80
2, 1158, Note_on_c, 0, 73, 80
2, 1256, Note_on_c, 0, 42, 0
2, 1258, Note_on_c, 0, 54, 0
2, 1265, Note_on_c, 0, 66, 0
2, 1267, Note_on_c, 0, 73, 0
2, 1267, Note_on_c, 0, 70, 0
2, 1280, Note_on_c, 0, 42, 80
2, 1285, Note_on_c, 0, 54, 80
2, 1285, Note_on_c, 0, 63, 80
2, 1290, Note_on_c, 0, 70, 80
2, 1290, Note_on_c, 0, 73, 80
2, 1518, Note_on_c, 0, 54, 0
2, 1518, Note_on_c, 0, 42, 0
2, 1535, Note_on_c, 0, 73, 0
2, 1535, Note_on_c, 0, 63, 0
2, 1551, Note_on_c, 0, 42, 80
2, 1551, Note_on_c, 0, 54, 80
2, 1553, Note_on_c, 0, 64, 80
2, 1562, Note_on_c, 0, 73, 80
2, 1652, Note_on_c, 0, 54, 0
2, 1656, Note_on_c, 0, 42, 0
2, 1661, Note_on_c, 0, 73, 0
2, 1668, Note_on_c, 0, 64, 0
2, 1673, Note_on_c, 0, 70, 0
2, 1680, Note_on_c, 0, 41, 80
2, 1680, Note_on_c, 0, 65, 80
2, 1681, Note_on_c, 0, 53, 80
2, 1683, Note_on_c, 0, 69, 80
2, 1683, Note_on_c, 0, 72, 80
2, 1773, Note_on_c, 0, 41, 0
2, 1786, Note_on_c, 0, 65, 0
2, 1788, Note_on_c, 0, 53, 0
2, 1790, Note_on_c, 0, 69, 0
2, 1790, Note_on_c, 0, 72, 0
2, 1934, Note_on_c, 0, 41, 80
2, 1934, Note_on_c, 0, 63, 80
2, 1936, Note_on_c, 0, 53, 80
2, 1945, Note_on_c, 0, 69, 80
2, 1945, Note_on_c, 0, 72, 80
2, 2030, Note_on_c, 0, 41, 0
2, 2040, Note_on_c, 0, 53, 0
2, 2044, Note_on_c, 0, 69, 0
2, 2046, Note_on_c, 0, 72, 0
2, 2051, Note_on_c, 0, 63, 0
2, 2149, Note_on_c, 0, 82, 80
2, 2181, Note_on_c, 0, 82, 0
2, 2201, Note_on_c, 0, 46, 80
2, 2203, Note_on_c, 0, 74, 80
2, 2205, Note_on_c, 0, 58, 80
2, 2211, Note_on_c, 0, 86, 80
2, 2248, Note_on_c, 0, 86, 0
2, 2250, Note_on_c, 0, 74, 0
2, 2275, Note_on_c, 0, 82, 80
2, 2298, Note_on_c, 0, 46, 0
2, 2303, Note_on_c, 0, 58, 0
2, 2309, Note_on_c, 0, 82, 0
2, 2326, Note_on_c, 0, 58, 80
2, 2332, Note_on_c, 0, 53, 80
2, 2332, Note_on_c, 0, 62, 80
2, 2334, Note_on_c, 0, 77, 80
2, 2382, Note_on_c, 0, 77, 0
2, 2400, Note_on_c, 0, 74, 80
2, 2437, Note_on_c, 0, 62, 0
2, 2437, Note_on_c, 0, 58, 0
2, 2442, Note_on_c, 0, 53, 0
2, 2447, Note_on_c, 0, 74, 0
2, 2460, Note_on_c, 0, 57, 80
2, 2465, Note_on_c, 0, 45, 80
2, 2470, Note_on_c, 0, 72, 80
2, 2470, Note_on_c, 0, 84, 80
2, 2506, Note_on_c, 0, 84, 0
2, 2516, Note_on_c, 0, 72, 0
2, 2544, Note_on_c, 0, 82, 80
2, 2567, Note_on_c, 0, 45, 0
2, 2576, Note_on_c, 0, 57, 0
2, 2578, Note_on_c, 0, 82, 0
2, 2598, Note_on_c, 0, 58, 80
2, 2600, Note_on_c, 0, 53, 80
2, 2600, Note_on_c, 0, 62, 80
2, 2607, Note_on_c, 0, 77, 80
2, 2650, Note_on_c, 0, 77, 0
2, 2675, Note_on_c, 0, 72, 80
2, 2705, Note_on_c, 0, 58, 0
2, 2710, Note_on_c, 0, 62, 0
2, 2712, Note_on_c, 0, 53, 0
2, 2713, Note_on_c, 0, 72, 0
2, 2727, Note_on_c, 0, 55, 80
2, 2734, Note_on_c, 0, 43, 80
2, 2734, Note_on_c, 0, 70, 80
2, 2745, Note_on_c, 0, 82, 80
2, 2780, Note_on_c, 0, 82, 0
2, 2782, Note_on_c, 0, 70, 0
2, 2809, Note_on_c, 0, 79, 80
2, 2846, Note_on_c, 0, 43, 0
2, 2851, Note_on_c, 0, 79, 0
2, 2867, Note_on_c, 0, 62, 80
2, 2872, Note_on_c, 0, 58, 80
2, 2881, Note_on_c, 0, 74, 80
2, 2920, Note_on_c, 0, 74, 0
2, 2938, Note_on_c, 0, 70, 80
2, 2979, Note_on_c, 0, 55, 0
2, 2979, Note_on_c, 0, 58, 0
2, 2979, Note_on_c, 0, 62, 0
2, 2989, Note_on_c, 0, 70, 0
2, 3000, Note_on_c, 0, 41, 80
2, 3005, Note_on_c, 0, 53, 80
2, 3012, Note_on_c, 0, 69, 80
2, 3014, Note_on_c, 0, 81, 80
2, 3052, Note_on_c, 0, 81, 0
2, 3059, Note_on_c, 0, 69, 0
2, 3084, Note_on_c, 0, 79, 80
2, 3104, Note_on_c, 0, 41, 0
2, 3116, Note_on_c, 0, 79, 0
2, 3116, Note_on_c, 0, 53, 0
2, 3141, Note_on_c, 0, 53, 80
2, 3141, Note_on_c, 0, 58, 80
2, 3141, Note_on_c, 0, 62, 80
2, 3145, Note_on_c, 0, 74, 80
2, 3189, Note_on_c, 0, 74, 0
2, 3212, Note_on_c, 0, 69, 80
2, 3248, Note_on_c, 0, 58, 0
2, 3250, Note_on_c, 0, 62, 0
2, 3252, Note_on_c, 0, 53, 0
2, 3259, Note_on_c, 0, 69, 0
2, 3264, Note_on_c, 0, 40, 80
2, 3265, Note_on_c, 0, 52, 80
2, 3327, Note_on_c, 0, 72, 80
2, 3332, Note_on_c, 0, 81, 80
2, 3366, Note_on_c, 0, 52, 0
2, 3368, Note_on_c, 0, 40, 0
2, 3370, Note_on_c, 0, 72, 0
2, 3370, Note_on_c, 0, 81, 0
2, 3393, Note_on_c, 0, 55, 80
2, 3393, Note_on_c, 0, 64, 80
2, 3395, Note_on_c, 0, 58, 80
2, 3395, Note_on_c, 0, 60, 80
2, 3400, Note_on_c, 0, 74, 80
2, 3443, Note_on_c, 0, 74, 0
2, 3456, Note_on_c, 0, 76, 80
2, 3493, Note_on_c, 0, 58, 0
2, 3498, Note_on_c, 0, 55, 0
2, 3500, Note_on_c, 0, 76, 0
2, 3502, Note_on_c, 0, 60, 0
2, 3506, Note_on_c, 0, 64, 0
2, 3518, Note_on_c, 0, 55, 80
2, 3523, Note_on_c, 0, 43, 80
2, 3529, Note_on_c, 0, 74, 80
2, 3534, Note_on_c, 0, 81, 80
2, 3566, Note_on_c, 0, 81, 0
2, 3577, Note_on_c, 0, 74, 0
2, 3594, Note_on_c, 0, 76, 80
2, 3625, Note_on_c, 0, 43, 0
2, 3632, Note_on_c, 0, 76, 0
2, 3648, Note_on_c, 0, 58, 80
2, 3650, Note_on_c, 0, 64, 80
2, 3652, Note_on_c, 0, 60, 80
2, 3659, Note_on_c, 0, 79, 80
2, 3696, Note_on_c, 0, 79, 0
2, 3725, Note_on_c, 0, 81, 80
2, 3755, Note_on_c, 0, 55, 0
2, 3755, Note_on_c, 0, 58, 0
2, 3760, Note_on_c, 0, 64, 0
2, 3762, Note_on_c, 0, 60, 0
2, 3782, Note_on_c, 0, 48, 80
2, 3782, Note_on_c, 0, 60, 80
2, 3823, Note_on_c, 0, 81, 0
2, 3855, Note_on_c, 0, 74, 80
2, 3891, Note_on_c, 0, 48, 0
2, 3901, Note_on_c, 0, 74, 0
2, 3912, Note_on_c, 0, 55, 80
2, 3912, Note_on_c, 0, 64, 80
2, 3914, Note_on_c, 0, 58, 80
2, 3921, Note_on_c, 0, 79, 80
2, 3960, Note_on_c, 0, 79, 0
2, 3984, Note_on_c, 0, 81, 80
2, 3986, Note_on_c, 0, 74, 80
2, 4011, Note_on_c, 0, 58, 0
2, 4016, Note_on_c, 0, 55, 0
2, 4021, Note_on_c, 0, 60, 0
2, 4028, Note_on_c, 0, 64, 0
2, 4041, Note_on_c, 0, 46, 80
2, 4043, Note_on_c, 0, 58, 80
2, 4086, Note_on_c, 0, 81, 0
2, 4096, Note_on_c, 0, 74, 0
2, 4114, Note_on_c, 0, 79, 80
2, 4146, Note_on_c, 0, 46, 0
2, 4151, Note_on_c, 0, 58, 0
2, 4152, Note_on_c, 0, 79, 0
2, 4169, Note_on_c, 0, 55, 80
2, 4169, Note_on_c, 0, 60, 80
2, 4171, Note_on_c, 0, 64, 80
2, 4173, Note_on_c, 0, 58, 80
2, 4175, Note_on_c, 0, 72, 80
2, 4179, Note_on_c, 0, 81, 80
2, 4275, Note_on_c, 0, 72, 0
2, 4275, Note_on_c, 0, 58, 0
2, 4277, Note_on_c, 0, 81, 0
2, 4279, Note_on_c, 0, 60, 0
2, 4279, Note_on_c, 0, 64, 0
2, 4281, Note_on_c, 0, 55, 0
2, 4293, Note_on_c, 0, 57, 80
2, 4306, Note_on_c, 0, 45, 80
2, 4366, Note_on_c, 0, 72, 80
2, 4370, Note_on_c, 0, 81, 80
2, 4398, Note_on_c, 0, 45, 0
2, 4426, Note_on_c, 0, 63, 80
2, 4428, Note_on_c, 0, 60, 80
2, 4469, Note_on_c, 0, 72, 0
2, 4471, Note_on_c, 0, 81, 0
2, 4494, Note_on_c, 0, 77, 80
2, 4536, Note_on_c, 0, 60, 0
2, 4540, Note_on_c, 0, 77, 0
2, 4540, Note_on_c, 0, 57, 0
2, 4542, Note_on_c, 0, 63, 0
2, 4549, Note_on_c, 0, 41, 80
2, 4551, Note_on_c, 0, 53, 80
2, 4556, Note_on_c, 0, 74, 80
2, 4565, Note_on_c, 0, 79, 80
2, 4597, Note_on_c, 0, 79, 0
2, 4607, Note_on_c, 0, 74, 0
2, 4627, Note_on_c, 0, 77, 80
2, 4652, Note_on_c, 0, 41, 0
2, 4665, Note_on_c, 0, 77, 0
2, 4667, Note_on_c, 0, 53, 0
2, 4683, Note_on_c, 0, 57, 80
2, 4683, Note_on_c, 0, 60, 80
2, 4690, Note_on_c, 0, 63, 80
2, 4690, Note_on_c, 0, 72, 80
2, 4692, Note_on_c, 0, 79, 80
2, 4793, Note_on_c, 0, 79, 0
2, 4795, Note_on_c, 0, 63, 0
2, 4795, Note_on_c, 0, 60, 0
2, 4815, Note_on_c, 0, 45, 80
2, 4817, Note_on_c, 0, 65, 80
2, 4817, Note_on_c, 0, 75, 80
2, 4822, Note_on_c, 0, 69, 80
2, 4824, Note_on_c, 0, 77, 80
2, 4915, Note_on_c, 0, 45, 0
2, 4917, Note_on_c, 0, 65, 0
2, 4917, Note_on_c, 0, 77, 0
2, 4921, Note_on_c, 0, 75, 0
2, 4921, Note_on_c, 0, 69, 0
2, 4926, Note_on_c, 0, 72, 0
2, 4943, Note_on_c, 0, 60, 80
2, 4947, Note_on_c, 0, 63, 80
2, 5018, Note_on_c, 0, 69, 80
2, 5060, Note_on_c, 0, 60, 0
2, 5060, Note_on_c, 0, 57, 0
2, 5064, Note_on_c, 0, 63, 0
2, 5066, Note_on_c, 0, 69, 0
2, 5076, Note_on_c, 0, 41, 80
2, 5078, Note_on_c, 0, 53, 80
2, 5088, Note_on_c, 0, 74, 80
2, 5136, Note_on_c, 0, 74, 0
2, 5156, Note_on_c, 0, 72, 80
2, 5184, Note_on_c, 0, 41, 0
2, 5200, Note_on_c, 0, 72, 0
2, 5200, Note_on_c, 0, 53, 0
2, 5211, Note_on_c, 0, 57, 80
2, 5213, Note_on_c, 0, 60, 80
2, 5215, Note_on_c, 0, 63, 80
2, 5215, Note_on_c, 0, 69, 80
2, 5265, Note_on_c, 0, 69, 0
2, 5283, Note_on_c, 0, 65, 80
2, 5329, Note_on_c, 0, 65, 0
2, 5334, Note_on_c, 0, 63, 0
2, 5334, Note_on_c, 0, 60, 0
2, 5334, Note_on_c, 0, 57, 0
2, 5348, Note_on_c, 0, 62, 80
2, 5354, Note_on_c, 0, 50, 80
2, 5460, Note_on_c, 0, 50, 0
2, 5460, Note_on_c, 0, 62, 0
2, 5483, Note_on_c, 0, 65, 80
2, 5485, Note_on_c, 0, 58, 80
2, 5485, Note_on_c, 0, 62, 80
2, 5492, Note_on_c, 0, 70, 80
2, 5540, Note_on_c, 0, 70, 0
2, 5540, Note_on_c, 0, 72, 80
2, 5583, Note_on_c, 0, 72, 0
2, 5588, Note_on_c, 0, 73, 80
2, 5599, Note_on_c, 0, 62, 0
2, 5599, Note_on_c, 0, 65, 0
2, 5599, Note_on_c, 0, 58, 0
2, 5622, Note_on_c, 0, 49, 80
2, 5622, Note_on_c, 0, 61, 80
2, 5627, Note_on_c, 0, 74, 80
2, 5632, Note_on_c, 0, 73, 0
2, 5670, Note_on_c, 0, 74, 0
2, 5695, Note_on_c, 0, 81, 80
2, 5697, Note_on_c, 0, 76, 80
2, 5722, Note_on_c, 0, 61, 0
2, 5724, Note_on_c, 0, 49, 0
2, 5754, Note_on_c, 0, 55, 80
2, 5756, Note_on_c, 0, 58, 80
2, 5756, Note_on_c, 0, 61, 80
2, 5760, Note_on_c, 0, 64, 80
2, 5792, Note_on_c, 0, 76, 0
2, 5797, Note_on_c, 0, 81, 0
2, 5825, Note_on_c, 0, 79, 80
2, 5856, Note_on_c, 0, 61, 0
2, 5856, Note_on_c, 0, 58, 0
2, 5861, Note_on_c, 0, 55, 0
2, 5863, Note_on_c, 0, 79, 0
2, 5870, Note_on_c, 0, 64, 0
2, 5881, Note_on_c, 0, 48, 80
2, 5883, Note_on_c, 0, 60, 80
2, 5888, Note_on_c, 0, 79, 80
2, 5986, Note_on_c, 0, 48, 0
2, 5988, Note_on_c, 0, 79, 0
2, 6008, Note_on_c, 0, 57, 80
2, 6008, Note_on_c, 0, 63, 80
2, 6015, Note_on_c, 0, 77, 80
2, 6053, Note_on_c, 0, 77, 0
2, 6078, Note_on_c, 0, 69, 80
2, 6115, Note_on_c, 0, 60, 0
2, 6124, Note_on_c, 0, 69, 0
2, 6126, Note_on_c, 0, 63, 0
2, 6126, Note_on_c, 0, 57, 0
2, 6133, Note_on_c, 0, 41, 80
2, 6143, Note_on_c, 0, 53, 80
2, 6144, Note_on_c, 0, 74, 80
2, 6231, Note_on_c, 0, 41, 0
2, 6247, Note_on_c, 0, 74, 0
2, 6249, Note_on_c, 0, 53, 0
2, 6267, Note_on_c, 0, 57, 80
2, 6267, Note_on_c, 0, 60, 80
2, 6267, Note_on_c, 0, 63, 80
2, 6274, Note_on_c, 0, 69, 80
2, 6274, Note_on_c, 0, 72, 80
2, 6372, Note_on_c, 0, 60, 0
2, 6377, Note_on_c, 0, 72, 0
2, 6379, Note_on_c, 0, 69, 0
2, 6381, Note_on_c, 0, 63, 0
2, 6385, Note_on_c, 0, 57, 0
2, 6397, Note_on_c, 0, 46, 80
2, 6399, Note_on_c, 0, 58, 80
2, 6404, Note_on_c, 0, 74, 80
2, 6408, Note_on_c, 0, 86, 80
2, 6445, Note_on_c, 0, 86, 0
2, 6447, Note_on_c, 0, 74, 0
2, 6477, Note_on_c, 0, 82, 80
2, 6504, Note_on_c, 0, 46, 0
2, 6506, Note_on_c, 0, 58, 0
2, 6513, Note_on_c, 0, 82, 0
2, 6533, Note_on_c, 0, 58, 80
2, 6533, Note_on_c, 0, 62, 80
2, 6533, Note_on_c, 0, 77, 80
2, 6535, Note_on_c, 0, 53, 80
2, 6570, Note_on_c, 0, 77, 0
2, 6600, Note_on_c, 0, 74, 80
2, 6634, Note_on_c, 0, 58, 0
2, 6634, Note_on_c, 0, 62, 0
2, 6639, Note_on_c, 0, 53, 0
2, 6641, Note_on_c, 0, 74, 0
2, 6654, Note_on_c, 0, 57, 80
2, 6656, Note_on_c, 0, 45, 80
2, 6668, Note_on_c, 0, 72, 80
2, 6668, Note_on_c, 0, 84, 80
2, 6706, Note_on_c, 0, 84, 0
2, 6708, Note_on_c, 0, 72, 0
2, 6728, Note_on_c, 0, 82, 80
2, 6756, Note_on_c, 0, 45, 0
2, 6768, Note_on_c, 0, 82, 0
2, 6774, Note_on_c, 0, 57, 0
2, 6788, Note_on_c, 0, 53, 80
2, 6788, Note_on_c, 0, 58, 80
2, 6788, Note_on_c, 0, 62, 80
2, 6790, Note_on_c, 0, 77, 80
2, 6836, Note_on_c, 0, 77, 0
2, 6865, Note_on_c, 0, 72, 80
2, 6895, Note_on_c, 0, 58, 0
2, 6900, Note_on_c, 0, 62, 0
2, 6902, Note_on_c, 0, 53, 0
2, 6904, Note_on_c, 0, 72, 0
2, 6920, Note_on_c, 0, 55, 80
2, 6925, Note_on_c, 0, 43, 80
2, 6927, Note_on_c, 0, 70, 80
2, 6932, Note_on_c, 0, 82, 80
2, 6963, Note_on_c, 0, 82, 0
2, 6970, Note_on_c, 0, 70, 0
2, 6995, Note_on_c, 0, 79, 80
2, 7027, Note_on_c, 0, 43, 0
2, 7033, Note_on_c, 0, 55, 0
2, 7035, Note_on_c, 0, 79, 0
2, 7054, Note_on_c, 0, 55, 80
2, 7056, Note_on_c, 0, 62, 80
2, 7060, Note_on_c, 0, 58, 80
2, 7060, Note_on_c, 0, 74, 80
2, 7104, Note_on_c, 0, 74, 0
2, 7124, Note_on_c, 0, 70, 80
2, 7167, Note_on_c, 0, 55, 0
2, 7167, Note_on_c, 0, 58, 0
2, 7167, Note_on_c, 0, 62, 0
2, 7172, Note_on_c, 0, 70, 0
2, 7188, Note_on_c, 0, 41, 80
2, 7190, Note_on_c, 0, 53, 80
2, 7200, Note_on_c, 0, 69, 80
2, 7201, Note_on_c, 0, 81, 80
2, 7231, Note_on_c, 0, 81, 0
2, 7236, Note_on_c, 0, 69, 0
2, 7256, Note_on_c, 0, 77, 80
2, 7288, Note_on_c, 0, 41, 0
2, 7299, Note_on_c, 0, 77, 0
2, 7299, Note_on_c, 0, 53, 0
2, 7320, Note_on_c, 0, 53, 80
2, 7320, Note_on_c, 0, 58, 80
2, 7320, Note_on_c, 0, 62, 80
2, 7326, Note_on_c, 0, 74, 80
2, 7369, Note_on_c, 0, 74, 0
2, 7388, Note_on_c, 0, 69, 80
2, 7422, Note_on_c, 0, 58, 0
2, 7427, Note_on_c, 0, 62, 0
2, 7429, Note_on_c, 0, 53, 0
2, 7429, Note_on_c, 0, 69, 0
2, 7440, Note_on_c, 0, 52, 80
2, 7442, Note_on_c, 0, 40, 80
2, 7509, Note_on_c, 0, 72, 80
2, 7513, Note_on_c, 0, 81, 80
2, 7543, Note_on_c, 0, 40, 0
2, 7548, Note_on_c, 0, 81, 0
2, 7550, Note_on_c, 0, 72, 0
2, 7552, Note_on_c, 0, 52, 0
2, 7565, Note_on_c, 0, 58, 80
2, 7567, Note_on_c, 0, 55, 80
2, 7569, Note_on_c, 0, 60, 80
2, 7569, Note_on_c, 0, 64, 80
2, 7576, Note_on_c, 0, 76, 80
2, 7617, Note_on_c, 0, 76, 0
2, 7652, Note_on_c, 0, 79, 80
2, 7675, Note_on_c, 0, 58, 0
2, 7677, Note_on_c, 0, 79, 0
2, 7679, Note_on_c, 0, 55, 0
2, 7683, Note_on_c, 0, 60, 0
2, 7690, Note_on_c, 0, 64, 0
2, 7706, Note_on_c, 0, 43, 80
2, 7706, Note_on_c, 0, 55, 80
2, 7708, Note_on_c, 0, 74, 80
2, 7718, Note_on_c, 0, 81, 80
2, 7748, Note_on_c, 0, 81, 0
2, 7754, Note_on_c, 0, 74, 0
2, 7777, Note_on_c, 0, 76, 80
2, 7819, Note_on_c, 0, 76, 0
2, 7821, Note_on_c, 0, 43, 0
2, 7837, Note_on_c, 0, 60, 80
2, 7842, Note_on_c, 0, 64, 80
2, 7844, Note_on_c, 0, 58, 80
2, 7846, Note_on_c, 0, 79, 80
2, 7892, Note_on_c, 0, 79, 0
2, 7923, Note_on_c, 0, 81, 80
2, 7958, Note_on_c, 0, 58, 0
2, 7963, Note_on_c, 0, 55, 0
2, 7969, Note_on_c, 0, 64, 0
2, 7981, Note_on_c, 0, 48, 80
2, 8024, Note_on_c, 0, 81, 0
2, 8047, Note_on_c, 0, 74, 80
2, 8093, Note_on_c, 0, 48, 0
2, 8095, Note_on_c, 0, 74, 0
2, 8115, Note_on_c, 0, 58, 80
2, 8115, Note_on_c, 0, 64, 80
2, 8117, Note_on_c, 0, 55, 80
2, 8122, Note_on_c, 0, 79, 80
2, 8165, Note_on_c, 0, 79, 0
2, 8184, Note_on_c, 0, 74, 80
2, 8188, Note_on_c, 0, 81, 80
2, 8227, Note_on_c, 0, 60, 0
2, 8229, Note_on_c, 0, 58, 0
2, 8233, Note_on_c, 0, 55, 0
2, 8238, Note_on_c, 0, 64, 0
2, 8248, Note_on_c, 0, 46, 80
2, 8253, Note_on_c, 0, 58, 80
2, 8294, Note_on_c, 0, 81, 0
2, 8294, Note_on_c, 0, 74, 0
2, 8322, Note_on_c, 0, 79, 80
2, 8353, Note_on_c, 0, 46, 0
2, 8355, Note_on_c, 0, 79, 0
2, 8378, Note_on_c, 0, 64, 80
2, 8380, Note_on_c, 0, 55, 80
2, 8380, Note_on_c, 0, 60, 80
2, 8382, Note_on_c, 0, 72, 80
2, 8392, Note_on_c, 0, 81, 80
2, 8488, Note_on_c, 0, 81, 0
2, 8490, Note_on_c, 0, 60, 0
2, 8490, Note_on_c, 0, 58, 0
2, 8490, Note_on_c, 0, 72, 0
2, 8495, Note_on_c, 0, 64, 0
2, 8495, Note_on_c, 0, 55, 0
2, 8506, Note_on_c, 0, 45, 80
2, 8508, Note_on_c, 0, 57, 80
2, 8574, Note_on_c, 0, 72, 80
2, 8584, Note_on_c, 0, 81, 80
2, 8607, Note_on_c, 0, 45, 0
2, 8637, Note_on_c, 0, 60, 80
2, 8646, Note_on_c, 0, 63, 80
2, 8678, Note_on_c, 0, 72, 0
2, 8683, Note_on_c, 0, 81, 0
2, 8701, Note_on_c, 0, 77, 80
2, 8744, Note_on_c, 0, 77, 0
2, 8751, Note_on_c, 0, 60, 0
2, 8751, Note_on_c, 0, 57, 0
2, 8756, Note_on_c, 0, 63, 0
2, 8769, Note_on_c, 0, 41, 80
2, 8769, Note_on_c, 0, 53, 80
2, 8776, Note_on_c, 0, 79, 80
2, 8778, Note_on_c, 0, 74, 80
2, 8809, Note_on_c, 0, 79, 0
2, 8816, Note_on_c, 0, 74, 0
2, 8839, Note_on_c, 0, 77, 80
2, 8869, Note_on_c, 0, 41, 0
2, 8879, Note_on_c, 0, 53, 0
2, 8880, Note_on_c, 0, 77, 0
2, 8901, Note_on_c, 0, 57, 80
2, 8901, Note_on_c, 0, 60, 80
2, 8903, Note_on_c, 0, 79, 80
2, 8904, Note_on_c, 0, 63, 80
2, 8906, Note_on_c, 0, 72, 80
2, 9004, Note_on_c, 0, 72, 0
2, 9009, Note_on_c, 0, 79, 0
2, 9011, Note_on_c, 0, 63, 0
2, 9011, Note_on_c, 0, 57, 0
2, 9027, Note_on_c, 0, 65, 80
2, 9027, Note_on_c, 0, 69, 80
2, 9027, Note_on_c, 0, 72, 80
2, 9029, Note_on_c, 0, 48, 80
2, 9029, Note_on_c, 0, 75, 80
2, 9031, Note_on_c, 0, 77, 80
2, 9127, Note_on_c, 0, 48, 0
2, 9132, Note_on_c, 0, 65, 0
2, 9134, Note_on_c, 0, 77, 0
2, 9141, Note_on_c, 0, 72, 0
2, 9141, Note_on_c, 0, 75, 0
2, 9141, Note_on_c, 0, 69, 0
2, 9154, Note_on_c, 0, 57, 80
2, 9161, Note_on_c, 0, 63, 80
2, 9229, Note_on_c, 0, 69, 80
2, 9264, Note_on_c, 0, 60, 0
2, 9273, Note_on_c, 0, 57, 0
2, 9273, Note_on_c, 0, 63, 0
2, 9273, Note_on_c, 0, 69, 0
2, 9287, Note_on_c, 0, 41, 80
2, 9288, Note_on_c, 0, 53, 80
2, 9290, Note_on_c, 0, 74, 80
2, 9336, Note_on_c, 0, 74, 0
2, 9360, Note_on_c, 0, 72, 80
2, 9391, Note_on_c, 0, 41, 0
2, 9401, Note_on_c, 0, 53, 0
2, 9403, Note_on_c, 0, 72, 0
2, 9419, Note_on_c, 0, 57, 80
2, 9419, Note_on_c, 0, 60, 80
2, 9424, Note_on_c, 0, 63, 80
2, 9426, Note_on_c, 0, 69, 80
2, 9469, Note_on_c, 0, 69, 0
2, 9489, Note_on_c, 0, 65, 80
2, 9530, Note_on_c, 0, 65, 0
2, 9537, Note_on_c, 0, 57, 0
2, 9539, Note_on_c, 0, 63, 0
2, 9539, Note_on_c, 0, 60, 0
2, 9549, Note_on_c, 0, 62, 80
2, 9553, Note_on_c, 0, 58, 80
2, 9553, Note_on_c, 0, 70, 80
2, 9555, Note_on_c, 0, 46, 80
2, 9658, Note_on_c, 0, 46, 0
2, 9663, Note_on_c, 0, 62, 0
2, 9665, Note_on_c, 0, 58, 0
2, 9667, Note_on_c, 0, 70, 0
2, 9685, Note_on_c, 0, 58, 80
2, 9685, Note_on_c, 0, 62, 80
2, 9687, Note_on_c, 0, 53, 80
2, 9689, Note_on_c, 0, 72, 80
2, 9725, Note_on_c, 0, 72, 0
2, 9753, Note_on_c, 0, 74, 80
2, 9790, Note_on_c, 0, 62, 0
2, 9794, Note_on_c, 0, 58, 0
2, 9794, Note_on_c, 0, 53, 0
2, 9796, Note_on_c, 0, 74, 0
2, 9813, Note_on_c, 0, 60, 80
2, 9817, Note_on_c, 0, 48, 80
2, 9817, Note_on_c, 0, 63, 80
2, 9817, Note_on_c, 0, 67, 80
2, 9861, Note_on_c, 0, 67, 0
2, 9865, Note_on_c, 0, 63, 0
2, 9877, Note_on_c, 0, 65, 80
2, 9920, Note_on_c, 0, 65, 0
2, 9922, Note_on_c, 0, 48, 0
2, 9940, Note_on_c, 0, 57, 80
2, 9942, Note_on_c, 0, 63, 80
2, 9952, Note_on_c, 0, 67, 80
2, 9986, Note_on_c, 0, 67, 0
2, 10018, Note_on_c, 0, 74, 80
2, 10053, Note_on_c, 0, 60, 0
2, 10062, Note_on_c, 0, 57, 0
2, 10062, Note_on_c, 0, 63, 0
2, 10062, Note_on_c, 0, 74, 0
2, 10076, Note_on_c, 0, 50, 80
2, 10076, Note_on_c, 0, 62, 80
2, 10082, Note_on_c, 0, 70, 80
2, 10183, Note_on_c, 0, 50, 0
2, 10185, Note_on_c, 0, 62, 0
2, 10190, Note_on_c, 0, 70, 0
2, 10206, Note_on_c, 0, 49, 80
2, 10211, Note_on_c, 0, 61, 80
2, 10211, Note_on_c, 0, 69, 80
2, 10216, Note_on_c, 0, 75, 80
2, 10221, Note_on_c, 0, 81, 80
2, 10310, Note_on_c, 0, 49, 0
2, 10315, Note_on_c, 0, 61, 0
2, 10317, Note_on_c, 0, 81, 0
2, 10323, Note_on_c, 0, 69, 0
2, 10323, Note_on_c, 0, 75, 0
2, 10342, Note_on_c, 0, 58, 80
2, 10344, Note_on_c, 0, 46, 80
2, 10344, Note_on_c, 0, 75, 80
2, 10345, Note_on_c, 0, 67, 80
2, 10347, Note_on_c, 0, 79, 80
2, 10443, Note_on_c, 0, 46, 0
2, 10445, Note_on_c, 0, 58, 0
2, 10455, Note_on_c, 0, 67, 0
2, 10455, Note_on_c, 0, 75, 0
2, 10455, Note_on_c, 0, 79, 0
2, 10473, Note_on_c, 0, 41, 80
2, 10475, Note_on_c, 0, 53, 80
2, 10480, Note_on_c, 0, 65, 80
2, 10480, Note_on_c, 0, 77, 80
2, 10578, Note_on_c, 0, 41, 0
2, 10583, Note_on_c, 0, 77, 0
2, 10584, Note_on_c, 0, 65, 0
2, 10589, Note_on_c, 0, 53, 0
2, 10612, Note_on_c, 0, 46, 80
2, 10614, Note_on_c, 0, 74, 80
2, 10616, Note_on_c, 0, 58, 80
2, 10623, Note_on_c, 0, 86, 80
2, 10655, Note_on_c, 0, 86, 0
2, 10659, Note_on_c, 0, 74, 0
2, 10678, Note_on_c, 0, 82, 80
2, 10709, Note_on_c, 0, 46, 0
2, 10714, Note_on_c, 0, 58, 0
2, 10716, Note_on_c, 0, 82, 0
2, 10736, Note_on_c, 0, 58, 80
2, 10738, Note_on_c, 0, 53, 80
2, 10738, Note_on_c, 0, 62, 80
2, 10743, Note_on_c, 0, 77, 80
2, 10779, Note_on_c, 0, 77, 0
2, 10809, Note_on_c, 0, 74, 80
2, 10846, Note_on_c, 0, 58, 0
2, 10850, Note_on_c, 0, 62, 0
2, 10852, Note_on_c, 0, 74, 0
2, 10854, Note_on_c, 0, 53, 0
2, 10872, Note_on_c, 0, 45, 80
2, 10872, Note_on_c, 0, 57, 80
2, 10874, Note_on_c, 0, 84, 80
2, 10879, Note_on_c, 0, 72, 80
2, 10918, Note_on_c, 0, 72, 0
2, 10918, Note_on_c, 0, 84, 0
2, 10938, Note_on_c, 0, 82, 80
2, 10972, Note_on_c, 0, 82, 0
2, 10972, Note_on_c, 0, 45, 0
2, 10984, Note_on_c, 0, 57, 0
2, 10997, Note_on_c, 0, 58, 80
2, 10999, Note_on_c, 0, 53, 80
2, 10999, Note_on_c, 0, 62, 80
2, 11006, Note_on_c, 0, 77, 80
2, 11047, Note_on_c, 0, 77, 0
2, 11075, Note_on_c, 0, 72, 80
2, 11110, Note_on_c, 0, 62, 0
2, 11110, Note_on_c, 0, 58, 0
2, 11112, Note_on_c, 0, 72, 0
2, 11113, Note_on_c, 0, 53, 0
2, 11127, Note_on_c, 0, 55, 80
2, 11132, Note_on_c, 0, 43, 80
2, 11132, Note_on_c, 0, 70, 80
2, 11138, Note_on_c, 0, 82, 80
2, 11173, Note_on_c, 0, 82, 0
2, 11180, Note_on_c, 0, 70, 0
2, 11208, Note_on_c, 0, 79, 80
2, 11235, Note_on_c, 0, 43, 0
2, 11245, Note_on_c, 0, 55, 0
2, 11247, Note_on_c, 0, 79, 0
2, 11265, Note_on_c, 0, 55, 80
2, 11267, Note_on_c, 0, 58, 80
2, 11267, Note_on_c, 0, 62, 80
2, 11267, Note_on_c, 0, 74, 80
2, 11315, Note_on_c, 0, 74, 0
2, 11338, Note_on_c, 0, 70, 80
2, 11376, Note_on_c, 0, 55, 0
2, 11376, Note_on_c, 0, 58, 0
2, 11378, Note_on_c, 0, 70, 0
2, 11380, Note_on_c, 0, 62, 0
2, 11394, Note_on_c, 0, 41, 80
2, 11396, Note_on_c, 0, 53, 80
2, 11402, Note_on_c, 0, 69, 80
2, 11404, Note_on_c, 0, 81, 80
2, 11446, Note_on_c, 0, 81, 0
2, 11448, Note_on_c, 0, 69, 0
2, 11468, Note_on_c, 0, 77, 80
2, 11499, Note_on_c, 0, 41, 0
2, 11506, Note_on_c, 0, 77, 0
2, 11508, Note_on_c, 0, 53, 0
2, 11528, Note_on_c, 0, 53, 80
2, 11528, Note_on_c, 0, 62, 80
2, 11533, Note_on_c, 0, 58, 80
2, 11535, Note_on_c, 0, 72, 80
2, 11571, Note_on_c, 0, 72, 0
2, 11601, Note_on_c, 0, 69, 80
2, 11633, Note_on_c, 0, 58, 0
2, 11638, Note_on_c, 0, 62, 0
2, 11640, Note_on_c, 0, 53, 0
2, 11640, Note_on_c, 0, 69, 0
2, 11664, Note_on_c, 0, 52, 80
2, 11669, Note_on_c, 0, 40, 80
2, 11731, Note_on_c, 0, 72, 80
2, 11733, Note_on_c, 0, 81, 80
2, 11764, Note_on_c, 0, 72, 0
2, 11764, Note_on_c, 0, 40, 0
2, 11766, Note_on_c, 0, 52, 0
2, 11768, Note_on_c, 0, 81, 0
2, 11788, Note_on_c, 0, 55, 80
2, 11788, Note_on_c, 0, 58, 80
2, 11788, Note_on_c, 0, 60, 80
2, 11790, Note_on_c, 0, 74, 80
2, 11792, Note_on_c, 0, 64, 80
2, 11838, Note_on_c, 0, 74, 0
2, 11863, Note_on_c, 0, 76, 80
2, 11902, Note_on_c, 0, 76, 0
2, 11904, Note_on_c, 0, 60, 0
2, 11904, Note_on_c, 0, 58, 0
2, 11908, Note_on_c, 0, 64, 0
2, 11920, Note_on_c, 0, 43, 80
2, 11925, Note_on_c, 0, 74, 80
2, 11929, Note_on_c, 0, 81, 80
2, 11968, Note_on_c, 0, 81, 0
2, 11973, Note_on_c, 0, 74, 0
2, 11996, Note_on_c, 0, 76, 80
2, 12032, Note_on_c, 0, 43, 0
2, 12034, Note_on_c, 0, 55, 0
2, 12039, Note_on_c, 0, 76, 0
2, 12062, Note_on_c, 0, 58, 80
2, 12062, Note_on_c, 0, 60, 80
2, 12062, Note_on_c, 0, 64, 80
2, 12064, Note_on_c, 0, 55, 80
2, 12066, Note_on_c, 0, 79, 80
2, 12102, Note_on_c, 0, 79, 0
2, 12134, Note_on_c, 0, 81, 80
2, 12166, Note_on_c, 0, 58, 0
2, 12170, Note_on_c, 0, 60, 0
2, 12177, Note_on_c, 0, 55, 0
2, 12179, Note_on_c, 0, 64, 0
2, 12191, Note_on_c, 0, 48, 80
2, 12191, Note_on_c, 0, 60, 80
2, 12240, Note_on_c, 0, 81, 0
2, 12265, Note_on_c, 0, 74, 80
2, 12295, Note_on_c, 0, 48, 0
2, 12302, Note_on_c, 0, 60, 0
2, 12307, Note_on_c, 0, 74, 0
2, 12323, Note_on_c, 0, 55, 80
2, 12323, Note_on_c, 0, 60, 80
2, 12325, Note_on_c, 0, 58, 80
2, 12325, Note_on_c, 0, 64, 80
2, 12330, Note_on_c, 0, 79, 80
2, 12366, Note_on_c, 0, 79, 0
2, 12391, Note_on_c, 0, 74, 80
2, 12403, Note_on_c, 0, 81, 80
2, 12431, Note_on_c, 0, 58, 0
2, 12431, Note_on_c, 0, 55, 0
2, 12437, Note_on_c, 0, 64, 0
2, 12439, Note_on_c, 0, 60, 0
2, 12451, Note_on_c, 0, 58, 80
2, 12453, Note_on_c, 0, 46, 80
2, 12496, Note_on_c, 0, 81, 0
2, 12498, Note_on_c, 0, 74, 0
2, 12528, Note_on_c, 0, 79, 80
2, 12552, Note_on_c, 0, 46, 0
2, 12557, Note_on_c, 0, 58, 0
2, 12562, Note_on_c, 0, 79, 0
2, 12578, Note_on_c, 0, 55, 80
2, 12580, Note_on_c, 0, 58, 80
2, 12580, Note_on_c, 0, 60, 80
2, 12580, Note_on_c, 0, 64, 80
2, 12590, Note_on_c, 0, 72, 80
2, 12590, Note_on_c, 0, 81, 80
2, 12684, Note_on_c, 0, 58, 0
2, 12686, Note_on_c, 0, 60, 0
2, 12686, Note_on_c, 0, 72, 0
2, 12686, Note_on_c, 0, 81, 0
2, 12691, Note_on_c, 0, 55, 0
2, 12691, Note_on_c, 0, 64, 0
2, 12711, Note_on_c, 0, 57, 80
2, 12713, Note_on_c, 0, 45, 80
2, 12781, Note_on_c, 0, 72, 80
2, 12786, Note_on_c, 0, 81, 80
2, 12814, Note_on_c, 0, 45, 0
2, 12841, Note_on_c, 0, 60, 80
2, 12846, Note_on_c, 0, 63, 80
2, 12888, Note_on_c, 0, 81, 0
2, 12892, Note_on_c, 0, 72, 0
2, 12922, Note_on_c, 0, 77, 80
2, 12957, Note_on_c, 0, 60, 0
2, 12959, Note_on_c, 0, 57, 0
2, 12960, Note_on_c, 0, 77, 0
2, 12967, Note_on_c, 0, 63, 0
2, 12981, Note_on_c, 0, 41, 80
2, 12981, Note_on_c, 0, 74, 80
2, 12983, Note_on_c, 0, 53, 80
2, 12984, Note_on_c, 0, 79, 80
2, 13079, Note_on_c, 0, 41, 0
2, 13085, Note_on_c, 0, 79, 0
2, 13090, Note_on_c, 0, 53, 0
2, 13092, Note_on_c, 0, 74, 0
2, 13105, Note_on_c, 0, 63, 80
2, 13107, Note_on_c, 0, 57, 80
2, 13107, Note_on_c, 0, 60, 80
2, 13114, Note_on_c, 0, 72, 80
2, 13114, Note_on_c, 0, 77, 80
2, 13222, Note_on_c, 0, 77, 0
2, 13224, Note_on_c, 0, 72, 0
2, 13228, Note_on_c, 0, 60, 0
2, 13228, Note_on_c, 0, 63, 0
2, 13245, Note_on_c, 0, 45, 80
2, 13247, Note_on_c, 0, 65, 80
2, 13290, Note_on_c, 0, 65, 0
2, 13315, Note_on_c, 0, 69, 80
2, 13346, Note_on_c, 0, 45, 0
2, 13363, Note_on_c, 0, 69, 0
2, 13372, Note_on_c, 0, 60, 80
2, 13377, Note_on_c, 0, 63, 80
2, 13382, Note_on_c, 0, 72, 80
2, 13428, Note_on_c, 0, 72, 0
2, 13444, Note_on_c, 0, 69, 80
2, 13454, Note_on_c, 0, 75, 80
2, 13490, Note_on_c, 0, 57, 0
2, 13490, Note_on_c, 0, 63, 0
2, 13490, Note_on_c, 0, 60, 0
2, 13507, Note_on_c, 0, 41, 80
2, 13507, Note_on_c, 0, 53, 80
2, 13555, Note_on_c, 0, 75, 0
2, 13564, Note_on_c, 0, 69, 0
2, 13578, Note_on_c, 0, 65, 80
2, 13583, Note_on_c, 0, 74, 80
2, 13610, Note_on_c, 0, 41, 0
2, 13627, Note_on_c, 0, 53, 0
2, 13643, Note_on_c, 0, 57, 80
2, 13643, Note_on_c, 0, 60, 80
2, 13643, Note_on_c, 0, 63, 80
2, 13689, Note_on_c, 0, 65, 0
2, 13703, Note_on_c, 0, 74, 0
2, 13721, Note_on_c, 0, 72, 80
2, 13757, Note_on_c, 0, 60, 0
2, 13759, Note_on_c, 0, 72, 0
2, 13761, Note_on_c, 0, 57, 0
2, 13766, Note_on_c, 0, 63, 0
2, 13779, Note_on_c, 0, 70, 80
2, 13781, Note_on_c, 0, 50, 80
2, 13781, Note_on_c, 0, 62, 80
2, 13827, Note_on_c, 0, 70, 0
2, 13855, Note_on_c, 0, 72, 80
2, 13894, Note_on_c, 0, 50, 0
2, 13896, Note_on_c, 0, 72, 0
2, 13914, Note_on_c, 0, 65, 80
2, 13914, Note_on_c, 0, 69, 80
2, 13916, Note_on_c, 0, 58, 80
2, 13962, Note_on_c, 0, 69, 0
2, 13982, Note_on_c, 0, 70, 80
2, 14020, Note_on_c, 0, 62, 0
2, 14020, Note_on_c, 0, 58, 0
2, 14020, Note_on_c, 0, 65, 0
2, 14027, Note_on_c, 0, 70, 0
2, 14040, Note_on_c, 0, 49, 80
2, 14042, Note_on_c, 0, 61, 80
2, 14047, Note_on_c, 0, 72, 80
2, 14095, Note_on_c, 0, 72, 0
2, 14125, Note_on_c, 0, 81, 80
2, 14153, Note_on_c, 0, 49, 0
2, 14155, Note_on_c, 0, 61, 0
2, 14175, Note_on_c, 0, 55, 80
2, 14177, Note_on_c, 0, 61, 80
2, 14179, Note_on_c, 0, 58, 80
2, 14179, Note_on_c, 0, 64, 80
2, 14220, Note_on_c, 0, 81, 0
2, 14255, Note_on_c, 0, 76, 80
2, 14284, Note_on_c, 0, 58, 0
2, 14289, Note_on_c, 0, 55, 0
2, 14289, Note_on_c, 0, 61, 0
2, 14294, Note_on_c, 0, 64, 0
2, 14294, Note_on_c, 0, 76, 0
2, 14312, Note_on_c, 0, 60, 80
2, 14314, Note_on_c, 0, 48, 80
2, 14321, Note_on_c, 0, 79, 80
2, 14359, Note_on_c, 0, 79, 0
2, 14382, Note_on_c, 0, 77, 80
2, 14414, Note_on_c, 0, 48, 0
2, 14427, Note_on_c, 0, 77, 0
2, 14448, Note_on_c, 0, 57, 80
2, 14448, Note_on_c, 0, 63, 80
2, 14454, Note_on_c, 0, 75, 80
2, 14493, Note_on_c, 0, 75, 0
2, 14518, Note_on_c, 0, 69, 80
2, 14556, Note_on_c, 0, 60, 0
2, 14556, Note_on_c, 0, 57, 0
2, 14566, Note_on_c, 0, 63, 0
2, 14566, Note_on_c, 0, 69, 0
2, 14579, Note_on_c, 0, 41, 80
2, 14581, Note_on_c, 0, 53, 80
2, 14588, Note_on_c, 0, 74, 80
2, 14634, Note_on_c, 0, 74, 0
2, 14657, Note_on_c, 0, 72, 80
2, 14680, Note_on_c, 0, 41, 0
2, 14693, Note_on_c, 0, 53, 0
2, 14695, Note_on_c, 0, 72, 0
2, 14712, Note_on_c, 0, 57, 80
2, 14712, Note_on_c, 0, 60, 80
2, 14721, Note_on_c, 0, 63, 80
2, 14726, Note_on_c, 0, 69, 80
2, 14764, Note_on_c, 0, 69, 0
2, 14781, Note_on_c, 0, 65, 80
2, 14824, Note_on_c, 0, 65, 0
2, 14824, Note_on_c, 0, 60, 0
2, 14829, Note_on_c, 0, 63, 0
2, 14833, Note_on_c, 0, 57, 0
2, 14840, Note_on_c, 0, 58, 80
2, 14840, Note_on_c, 0, 74, 80
2, 14847, Note_on_c, 0, 46, 80
2, 14847, Note_on_c, 0, 86, 80
2, 14883, Note_on_c, 0, 86, 0
2, 14888, Note_on_c, 0, 74, 0
2, 14913, Note_on_c, 0, 82, 80
2, 14941, Note_on_c, 0, 46, 0
2, 14946, Note_on_c, 0, 82, 0
2, 14946, Note_on_c, 0, 58, 0
2, 14971, Note_on_c, 0, 53, 80
2, 14971, Note_on_c, 0, 58, 80
2, 14971, Note_on_c, 0, 62, 80
2, 14973, Note_on_c, 0, 77, 80
2, 15016, Note_on_c, 0, 77, 0
2, 15034, Note_on_c, 0, 74, 80
2, 15072, Note_on_c, 0, 53, 0
2, 15072, Note_on_c, 0, 62, 0
2, 15072, Note_on_c, 0, 58, 0
2, 15079, Note_on_c, 0, 74, 0
2, 15086, Note_on_c, 0, 57, 80
2, 15091, Note_on_c, 0, 45, 80
2, 15102, Note_on_c, 0, 84, 80
2, 15107, Note_on_c, 0, 72, 80
2, 15144, Note_on_c, 0, 72, 0
2, 15144, Note_on_c, 0, 84, 0
2, 15167, Note_on_c, 0, 82, 80
2, 15196, Note_on_c, 0, 45, 0
2, 15203, Note_on_c, 0, 82, 0
2, 15215, Note_on_c, 0, 57, 0
2, 15228, Note_on_c, 0, 53, 80
2, 15228, Note_on_c, 0, 58, 80
2, 15228, Note_on_c, 0, 62, 80
2, 15228, Note_on_c, 0, 77, 80
2, 15271, Note_on_c, 0, 77, 0
2, 15303, Note_on_c, 0, 72, 80
2, 15328, Note_on_c, 0, 58, 0
2, 15333, Note_on_c, 0, 53, 0
2, 15333, Note_on_c, 0, 62, 0
2, 15342, Note_on_c, 0, 72, 0
2, 15356, Note_on_c, 0, 55, 80
2, 15360, Note_on_c, 0, 70, 80
2, 15362, Note_on_c, 0, 43, 80
2, 15369, Note_on_c, 0, 82, 80
2, 15404, Note_on_c, 0, 82, 0
2, 15408, Note_on_c, 0, 70, 0
2, 15436, Note_on_c, 0, 79, 80
2, 15466, Note_on_c, 0, 43, 0
2, 15471, Note_on_c, 0, 79, 0
2, 15494, Note_on_c, 0, 74, 80
2, 15499, Note_on_c, 0, 62, 80
2, 15501, Note_on_c, 0, 58, 80
2, 15542, Note_on_c, 0, 74, 0
2, 15558, Note_on_c, 0, 70, 80
2, 15597, Note_on_c, 0, 62, 0
2, 15603, Note_on_c, 0, 58, 0
2, 15608, Note_on_c, 0, 55, 0
2, 15608, Note_on_c, 0, 70, 0
2, 15624, Note_on_c, 0, 41, 80
2, 15626, Note_on_c, 0, 53, 80
2, 15636, Note_on_c, 0, 69, 80
2, 15638, Note_on_c, 0, 81, 80
2, 15668, Note_on_c, 0, 81, 0
2, 15679, Note_on_c, 0, 69, 0
2, 15702, Note_on_c, 0, 79, 80
2, 15725, Note_on_c, 0, 41, 0
2, 15739, Note_on_c, 0, 53, 0
2, 15741, Note_on_c, 0, 79, 0
2, 15761, Note_on_c, 0, 53, 80
2, 15761, Note_on_c, 0, 58, 80
2, 15763, Note_on_c, 0, 62, 80
2, 15768, Note_on_c, 0, 74, 80
2, 15809, Note_on_c, 0, 74, 0
2, 15834, Note_on_c, 0, 69, 80
2, 15870, Note_on_c, 0, 62, 0
2, 15870, Note_on_c, 0, 58, 0
2, 15875, Note_on_c, 0, 53, 0
2, 15877, Note_on_c, 0, 69, 0
2, 15888, Note_on_c, 0, 52, 80
2, 15893, Note_on_c, 0, 40, 80
2, 15964, Note_on_c, 0, 72, 80
2, 15966, Note_on_c, 0, 81, 80
2, 15991, Note_on_c, 0, 40, 0
2, 15996, Note_on_c, 0, 52, 0
2, 15996, Note_on_c, 0, 81, 0
2, 16006, Note_on_c, 0, 72, 0
2, 16017, Note_on_c, 0, 60, 80
2, 16019, Note_on_c, 0, 55, 80
2, 16026, Note_on_c, 0, 58, 80
2, 16026, Note_on_c, 0, 64, 80
2, 16026, Note_on_c, 0, 74, 80
2, 16074, Note_on_c, 0, 74, 0
2, 16094, Note_on_c, 0, 76, 80
2, 16126, Note_on_c, 0, 58, 0
2, 16130, Note_on_c, 0, 76, 0
2, 16132, Note_on_c, 0, 60, 0
2, 16137, Note_on_c, 0, 64, 0
2, 16153, Note_on_c, 0, 43, 80
2, 16160, Note_on_c, 0, 74, 80
2, 16170, Note_on_c, 0, 81, 80
2, 16204, Note_on_c, 0, 81, 0
2, 16211, Note_on_c, 0, 74, 0
2, 16234, Note_on_c, 0, 76, 80
2, 16262, Note_on_c, 0, 43, 0
2, 16269, Note_on_c, 0, 76, 0
2, 16289, Note_on_c, 0, 58, 80
2, 16291, Note_on_c, 0, 64, 80
2, 16293, Note_on_c, 0, 60, 80
2, 16299, Note_on_c, 0, 79, 80
2, 16341, Note_on_c, 0, 79, 0
2, 16366, Note_on_c, 0, 81, 80
2, 16395, Note_on_c, 0, 58, 0
2, 16397, Note_on_c, 0, 55, 0
2, 16402, Note_on_c, 0, 64, 0
2, 16418, Note_on_c, 0, 48, 80
2, 16466, Note_on_c, 0, 81, 0
2, 16489, Note_on_c, 0, 74, 80
2, 16526, Note_on_c, 0, 48, 0
2, 16533, Note_on_c, 0, 60, 0
2, 16537, Note_on_c, 0, 74, 0
2, 16556, Note_on_c, 0, 55, 80
2, 16556, Note_on_c, 0, 60, 80
2, 16560, Note_on_c, 0, 58, 80
2, 16560, Note_on_c, 0, 64, 80
2, 16565, Note_on_c, 0, 79, 80
2, 16600, Note_on_c, 0, 79, 0
2, 16623, Note_on_c, 0, 74, 80
2, 16632, Note_on_c, 0, 81, 80
2, 16662, Note_on_c, 0, 58, 0
2, 16667, Note_on_c, 0, 64, 0
2, 16667, Note_on_c, 0, 55, 0
2, 16672, Note_on_c, 0, 60, 0
2, 16685, Note_on_c, 0, 58, 80
2, 16687, Note_on_c, 0, 46, 80
2, 16730, Note_on_c, 0, 81, 0
2, 16737, Note_on_c, 0, 74, 0
2, 16765, Note_on_c, 0, 79, 80
2, 16793, Note_on_c, 0, 46, 0
2, 16795, Note_on_c, 0, 79, 0
2, 16797, Note_on_c, 0, 58, 0
2, 16820, Note_on_c, 0, 55, 80
2, 16820, Note_on_c, 0, 60, 80
2, 16822, Note_on_c, 0, 58, 80
2, 16826, Note_on_c, 0, 64, 80
2, 16826, Note_on_c, 0, 74, 80
2, 16833, Note_on_c, 0, 81, 80
2, 16927, Note_on_c, 0, 58, 0
2, 16932, Note_on_c, 0, 81, 0
2, 16939, Note_on_c, 0, 64, 0
2, 16939, Note_on_c, 0, 55, 0
2, 16939, Note_on_c, 0, 60, 0
2, 16941, Note_on_c, 0, 74, 0
2, 16952, Note_on_c, 0, 57, 80
2, 16959, Note_on_c, 0, 45, 80
2, 17023, Note_on_c, 0, 72, 80
2, 17030, Note_on_c, 0, 81, 80
2, 17064, Note_on_c, 0, 45, 0
2, 17088, Note_on_c, 0, 60, 80
2, 17094, Note_on_c, 0, 63, 80
2, 17136, Note_on_c, 0, 81, 0
2, 17137, Note_on_c, 0, 72, 0
2, 17162, Note_on_c, 0, 79, 80
2, 17204, Note_on_c, 0, 79, 0
2, 17210, Note_on_c, 0, 60, 0
2, 17210, Note_on_c, 0, 57, 0
2, 17215, Note_on_c, 0, 63, 0
2, 17227, Note_on_c, 0, 41, 80
2, 17229, Note_on_c, 0, 53, 80
2, 17231, Note_on_c, 0, 74, 80
2, 17232, Note_on_c, 0, 81, 80
2, 17324, Note_on_c, 0, 41, 0
2, 17330, Note_on_c, 0, 81, 0
2, 17335, Note_on_c, 0, 74, 0
2, 17337, Note_on_c, 0, 53, 0
2, 17351, Note_on_c, 0, 60, 80
2, 17355, Note_on_c, 0, 57, 80
2, 17357, Note_on_c, 0, 72, 80
2, 17359, Note_on_c, 0, 63, 80
2, 17366, Note_on_c, 0, 79, 80
2, 17460, Note_on_c, 0, 72, 0
2, 17465, Note_on_c, 0, 79, 0
2, 17467, Note_on_c, 0, 63, 0
2, 17472, Note_on_c, 0, 60, 0
2, 17483, Note_on_c, 0, 77, 80
2, 17485, Note_on_c, 0, 69, 80
2, 17487, Note_on_c, 0, 45, 80
2, 17487, Note_on_c, 0, 72, 80
2, 17492, Note_on_c, 0, 75, 80
2, 17586, Note_on_c, 0, 45, 0
2, 17588, Note_on_c, 0, 77, 0
2, 17588, Note_on_c, 0, 75, 0
2, 17592, Note_on_c, 0, 69, 0
2, 17592, Note_on_c, 0, 72, 0
2, 17609, Note_on_c, 0, 60, 80
2, 17614, Note_on_c, 0, 63, 80
2, 17678, Note_on_c, 0, 69, 80
2, 17721, Note_on_c, 0, 60, 0
2, 17723, Note_on_c, 0, 69, 0
2, 17725, Note_on_c, 0, 57, 0
2, 17730, Note_on_c, 0, 63, 0
2, 17741, Note_on_c, 0, 41, 80
2, 17741, Note_on_c, 0, 74, 80
2, 17743, Note_on_c, 0, 53, 80
2, 17782, Note_on_c, 0, 74, 0
2, 17811, Note_on_c, 0, 72, 80
2, 17834, Note_on_c, 0, 41, 0
2, 17851, Note_on_c, 0, 53, 0
2, 17853, Note_on_c, 0, 72, 0
2, 17869, Note_on_c, 0, 57, 80
2, 17869, Note_on_c, 0, 60, 80
2, 17869, Note_on_c, 0, 63, 80
2, 17879, Note_on_c, 0, 69, 80
2, 17915, Note_on_c, 0, 69, 0
2, 17935, Note_on_c, 0, 65, 80
2, 17983, Note_on_c, 0, 65, 0
2, 17983, Note_on_c, 0, 60, 0
2, 17983, Note_on_c, 0, 57, 0
2, 17988, Note_on_c, 0, 63, 0
2, 18001, Note_on_c, 0, 62, 80
2, 18003, Note_on_c, 0, 50, 80
2, 18005, Note_on_c, 0, 70, 80
2, 18048, Note_on_c, 0, 70, 0
2, 18072, Note_on_c, 0, 72, 80
2, 18106, Note_on_c, 0, 50, 0
2, 18106, Note_on_c, 0, 62, 0
2, 18111, Note_on_c, 0, 72, 0
2, 18129, Note_on_c, 0, 61, 80
2, 18131, Note_on_c, 0, 49, 80
2, 18133, Note_on_c, 0, 74, 80
2, 18176, Note_on_c, 0, 74, 0
2, 18204, Note_on_c, 0, 69, 80
2, 18234, Note_on_c, 0, 49, 0
2, 18234, Note_on_c, 0, 61, 0
2, 18247, Note_on_c, 0, 69, 0
2, 18264, Note_on_c, 0, 48, 80
2, 18264, Note_on_c, 0, 60, 80
2, 18268, Note_on_c, 0, 67, 80
2, 18300, Note_on_c, 0, 67, 0
2, 18325, Note_on_c, 0, 65, 80
2, 18366, Note_on_c, 0, 48, 0
2, 18376, Note_on_c, 0, 65, 0
2, 18385, Note_on_c, 0, 60, 0
2, 18397, Note_on_c, 0, 41, 80
2, 18399, Note_on_c, 0, 53, 80
2, 18404, Note_on_c, 0, 67, 80
2, 18440, Note_on_c, 0, 67, 0
2, 18477, Note_on_c, 0, 69, 80
2, 18497, Note_on_c, 0, 41, 0
2, 18520, Note_on_c, 0, 69, 0
2, 18533, Note_on_c, 0, 46, 80
2, 18535, Note_on_c, 0, 58, 80
2, 18535, Note_on_c, 0, 70, 80
2, 18641, Note_on_c, 0, 46, 0
2, 18646, Note_on_c, 0, 58, 0
2, 18655, Note_on_c, 0, 53, 0
2, 18657, Note_on_c, 0, 70, 0
2, 18673, Note_on_c, 0, 46, 80
2, 18673, Note_on_c, 0, 58, 80
2, 18779, Note_on_c, 0, 46, 0
2, 18784, Note_on_c, 0, 58, 0
2, 18812, Note_on_c, 0, 57, 80
2, 18814, Note_on_c, 0, 45, 80
2, 18916, Note_on_c, 0, 45, 0
2, 18928, Note_on_c, 0, 57, 0
2, 18944, Note_on_c, 0, 56, 80
2, 18949, Note_on_c, 0, 44, 80
2, 19047, Note_on_c, 0, 44, 0
2, 19060, Note_on_c, 0, 56, 0
2, 19080, Note_on_c, 0, 55, 80
2, 19080, Note_on_c, 0, 91, 80
2, 19087, Note_on_c, 0, 43, 80
2, 19087, Note_on_c, 0, 83, 80
2, 19183, Note_on_c, 0, 43, 0
2, 19188, Note_on_c, 0, 55, 0
2, 19188, Note_on_c, 0, 91, 0
2, 19190, Note_on_c, 0, 83, 0
2, 19291, Note_on_c, 0, 81, 80
2, 19320, Note_on_c, 0, 81, 0
2, 19355, Note_on_c, 0, 83, 80
2, 19393, Note_on_c, 0, 83, 0
2, 19418, Note_on_c, 0, 86, 80
2, 19455, Note_on_c, 0, 86, 0
2, 19491, Note_on_c, 0, 88, 80
2, 19589, Note_on_c, 0, 88, 0
2, 19624, Note_on_c, 0, 89, 80
2, 19729, Note_on_c, 0, 89, 0
2, 19825, Note_on_c, 0, 86, 80
2, 19857, Note_on_c, 0, 86, 0
2, 19892, Note_on_c, 0, 88, 80
2, 19928, Note_on_c, 0, 88, 0
2, 19960, Note_on_c, 0, 86, 80
2, 19994, Note_on_c, 0, 86, 0
2, 20019, Note_on_c, 0, 83, 80
2, 20054, Note_on_c, 0, 83, 0
2, 20086, Note_on_c, 0, 79, 80
2, 20120, Note_on_c, 0, 79, 0
2, 20143, Note_on_c, 0, 60, 80
2, 20145, Note_on_c, 0, 64, 80
2, 20145, Note_on_c, 0, 70, 80
2, 20145, Note_on_c, 0, 76, 80
2, 20145, Note_on_c, 0, 84, 80
2, 20150, Note_on_c, 0, 67, 80
2, 20150, Note_on_c, 0, 82, 80
2, 20241, Note_on_c, 0, 84, 0
2, 20246, Note_on_c, 0, 67, 0
2, 20246, Note_on_c, 0, 76, 0
2, 20246, Note_on_c, 0, 70, 0
2, 20246, Note_on_c, 0, 82, 0
2, 20248, Note_on_c, 0, 60, 0
2, 20257, Note_on_c, 0, 64, 0
2, 20337, Note_on_c, 0, 74, 80
2, 20387, Note_on_c, 0, 74, 0
2, 20407, Note_on_c, 0, 76, 80
2, 20446, Note_on_c, 0, 76, 0
2, 20473, Note_on_c, 0, 79, 80
2, 20510, Note_on_c, 0, 79, 0
2, 20542, Note_on_c, 0, 81, 80
2, 20642, Note_on_c, 0, 81, 0
2, 20672, Note_on_c, 0, 84, 80
2, 20773, Note_on_c, 0, 84, 0
2, 20869, Note_on_c, 0, 79, 80
2, 20904, Note_on_c, 0, 79, 0
2, 20933, Note_on_c, 0, 81, 80
2, 20968, Note_on_c, 0, 81, 0
2, 21006, Note_on_c, 0, 79, 80
2, 21041, Note_on_c, 0, 79, 0
2, 21061, Note_on_c, 0, 58, 80
2, 21063, Note_on_c, 0, 46, 80
2, 21070, Note_on_c, 0, 76, 80
2, 21108, Note_on_c, 0, 76, 0
2, 21143, Note_on_c, 0, 72, 80
2, 21161, Note_on_c, 0, 46, 0
2, 21174, Note_on_c, 0, 72, 0
2, 21174, Note_on_c, 0, 58, 0
2, 21199, Note_on_c, 0, 69, 80
2, 21201, Note_on_c, 0, 48, 80
2, 21201, Note_on_c, 0, 57, 80
2, 21206, Note_on_c, 0, 77, 80
2, 21307, Note_on_c, 0, 48, 0
2, 21316, Note_on_c, 0, 69, 0
2, 21316, Note_on_c, 0, 77, 0
2, 21318, Note_on_c, 0, 57, 0
2, 21414, Note_on_c, 0, 67, 80
2, 21444, Note_on_c, 0, 68, 80
2, 21472, Note_on_c, 0, 69, 80
2, 21477, Note_on_c, 0, 67, 0
2, 21515, Note_on_c, 0, 68, 0
2, 21543, Note_on_c, 0, 72, 80
2, 21581, Note_on_c, 0, 69, 0
2, 21604, Note_on_c, 0, 74, 80
2, 21616, Note_on_c, 0, 72, 0
2, 21673, Note_on_c, 0, 77, 80
2, 21685, Note_on_c, 0, 74, 0
2, 21912, Note_on_c, 0, 77, 0
2, 21943, Note_on_c, 0, 72, 80
2, 21982, Note_on_c, 0, 72, 0
2, 22002, Note_on_c, 0, 74, 80
2, 22056, Note_on_c, 0, 74, 0
2, 22080, Note_on_c, 0, 72, 80
2, 22114, Note_on_c, 0, 72, 0
2, 22134, Note_on_c, 0, 63, 80
2, 22136, Note_on_c, 0, 53, 80
2, 22141, Note_on_c, 0, 69, 80
2, 22184, Note_on_c, 0, 69, 0
2, 22200, Note_on_c, 0, 65, 80
2, 22247, Note_on_c, 0, 65, 0
2, 22247, Note_on_c, 0, 53, 0
2, 22253, Note_on_c, 0, 63, 0
2, 22267, Note_on_c, 0, 53, 80
2, 22267, Note_on_c, 0, 62, 80
2, 22272, Note_on_c, 0, 70, 80
2, 22321, Note_on_c, 0, 70, 0
2, 22344, Note_on_c, 0, 72, 80
2, 22374, Note_on_c, 0, 62, 0
2, 22384, Note_on_c, 0, 72, 0
2, 22397, Note_on_c, 0, 62, 80
2, 22402, Note_on_c, 0, 58, 80
2, 22404, Note_on_c, 0, 74, 80
2, 22450, Note_on_c, 0, 74, 0
2, 22468, Note_on_c, 0, 70, 80
2, 22503, Note_on_c, 0, 58, 0
2, 22505, Note_on_c, 0, 62, 0
2, 22507, Note_on_c, 0, 53, 0
2, 22509, Note_on_c, 0, 70, 0
2, 22529, Note_on_c, 0, 61, 80
2, 22529, Note_on_c, 0, 49, 80
2, 22536, Note_on_c, 0, 72, 80
2, 22641, Note_on_c, 0, 49, 0
2, 22641, Note_on_c, 0, 61, 0
2, 22643, Note_on_c, 0, 72, 0
2, 22659, Note_on_c, 0, 55, 80
2, 22664, Note_on_c, 0, 58, 80
2, 22664, Note_on_c, 0, 61, 80
2, 22666, Note_on_c, 0, 70, 80
2, 22668, Note_on_c, 0, 64, 80
2, 22668, Note_on_c, 0, 76, 80
2, 22673, Note_on_c, 0, 81, 80
2, 22737, Note_on_c, 0, 81, 0
2, 22737, Note_on_c, 0, 76, 0
2, 22742, Note_on_c, 0, 70, 0
2, 22774, Note_on_c, 0, 61, 0
2, 22774, Note_on_c, 0, 55, 0
2, 22774, Note_on_c, 0, 58, 0
2, 22778, Note_on_c, 0, 64, 0
2, 22799, Note_on_c, 0, 48, 80
2, 22800, Note_on_c, 0, 60, 80
2, 22805, Note_on_c, 0, 75, 80
2, 22807, Note_on_c, 0, 79, 80
2, 22809, Note_on_c, 0, 69, 80
2, 22900, Note_on_c, 0, 48, 0
2, 22907, Note_on_c, 0, 75, 0
2, 22912, Note_on_c, 0, 79, 0
2, 22914, Note_on_c, 0, 60, 0
2, 22916, Note_on_c, 0, 69, 0
2, 22934, Note_on_c, 0, 57, 80
2, 22934, Note_on_c, 0, 60, 80
2, 22936, Note_on_c, 0, 63, 80
2, 23004, Note_on_c, 0, 69, 80
2, 23004, Note_on_c, 0, 75, 80
2, 23006, Note_on_c, 0, 79, 80
2, 23047, Note_on_c, 0, 63, 0
2, 23047, Note_on_c, 0, 57, 0
2, 23047, Note_on_c, 0, 60, 0
2, 23064, Note_on_c, 0, 41, 80
2, 23070, Note_on_c, 0, 53, 80
2, 23112, Note_on_c, 0, 79, 0
2, 23112, Note_on_c, 0, 75, 0
2, 23116, Note_on_c, 0, 69, 0
2, 23136, Note_on_c, 0, 91, 80
2, 23143, Note_on_c, 0, 82, 80
2, 23161, Note_on_c, 0, 41, 0
2, 23175, Note_on_c, 0, 53, 0
2, 23195, Note_on_c, 0, 49, 80
2, 23197, Note_on_c, 0, 58, 80
2, 23298, Note_on_c, 0, 58, 0
2, 23298, Note_on_c, 0, 49, 0
2, 23303, Note_on_c, 0, 91, 0
2, 23303, Note_on_c, 0, 82, 0
2, 23323, Note_on_c, 0, 50, 80
2, 23329, Note_on_c, 0, 59, 80
2, 23329, Note_on_c, 0, 91, 80
2, 23341, Note_on_c, 0, 83, 80
2, 23432, Note_on_c, 0, 91, 0
2, 23432, Note_on_c, 0, 50, 0
2, 23434, Note_on_c, 0, 59, 0
2, 23434, Note_on_c, 0, 83, 0
2, 23459, Note_on_c, 0, 53, 80
2, 23565, Note_on_c, 0, 53, 0
2, 23590, Note_on_c, 0, 59, 80
2, 23592, Note_on_c, 0, 47, 80
2, 23592, Note_on_c, 0, 91, 80
2, 23601, Note_on_c, 0, 83, 80
2, 23690, Note_on_c, 0, 47, 0
2, 23700, Note_on_c, 0, 59, 0
2, 23710, Note_on_c, 0, 91, 0
2, 23714, Note_on_c, 0, 83, 0
2, 23726, Note_on_c, 0, 55, 80
2, 23728, Note_on_c, 0, 43, 80
2, 23829, Note_on_c, 0, 43, 0
2, 23838, Note_on_c, 0, 55, 0
2, 23855, Note_on_c, 0, 50, 80
2, 23859, Note_on_c, 0, 62, 80
2, 23869, Note_on_c, 0, 83, 80
2, 23869, Note_on_c, 0, 91, 80
2, 23901, Note_on_c, 0, 50, 0
2, 23905, Note_on_c, 0, 62, 0
2, 23928, Note_on_c, 0, 62, 80
2, 23930, Note_on_c, 0, 50, 80
2, 23972, Note_on_c, 0, 50, 0
2, 23972, Note_on_c, 0, 62, 0
2, 23974, Note_on_c, 0, 91, 0
2, 23980, Note_on_c, 0, 83, 0
2, 23994, Note_on_c, 0, 47, 80
2, 23994, Note_on_c, 0, 59, 80
2, 24025, Note_on_c, 0, 47, 0
2, 24044, Note_on_c, 0, 59, 0
2, 24064, Note_on_c, 0, 50, 80
2, 24064, Note_on_c, 0, 62, 80
2, 24071, Note_on_c, 0, 83, 80
2, 24071, Note_on_c, 0, 91, 80
2, 24168, Note_on_c, 0, 62, 0
2, 24168, Note_on_c, 0, 50, 0
2, 24170, Note_on_c, 0, 83, 0
2, 24175, Note_on_c, 0, 91, 0
2, 24192, Note_on_c, 0, 50, 80
2, 24192, Note_on_c, 0, 62, 80
2, 24193, Note_on_c, 0, 83, 80
2, 24195, Note_on_c, 0, 91, 80
2, 24234, Note_on_c, 0, 62, 0
2, 24234, Note_on_c, 0, 50, 0
2, 24250, Note_on_c, 0, 55, 80
2, 24257, Note_on_c, 0, 43, 80
2, 24362, Note_on_c, 0, 55, 0
2, 24364, Note_on_c, 0, 43, 0
2, 24369, Note_on_c, 0, 83, 0
2, 24369, Note_on_c, 0, 91, 0
2, 24381, Note_on_c, 0, 60, 80
2, 24387, Note_on_c, 0, 48, 80
2, 24387, Note_on_c, 0, 79, 80
2, 24389, Note_on_c, 0, 82, 80
2, 24391, Note_on_c, 0, 88, 80
2, 24485, Note_on_c, 0, 88, 0
2, 24485, Note_on_c, 0, 48, 0
2, 24487, Note_on_c, 0, 82, 0
2, 24494, Note_on_c, 0, 79, 0
2, 24496, Note_on_c, 0, 60, 0
2, 24512, Note_on_c, 0, 47, 80
2, 24514, Note_on_c, 0, 59, 80
2, 24620, Note_on_c, 0, 47, 0
2, 24636, Note_on_c, 0, 59, 0
2, 24648, Note_on_c, 0, 58, 80
2, 24649, Note_on_c, 0, 46, 80
2, 24649, Note_on_c, 0, 82, 80
2, 24654, Note_on_c, 0, 79, 80
2, 24654, Note_on_c, 0, 88, 80
2, 24750, Note_on_c, 0, 46, 0
2, 24750, Note_on_c, 0, 58, 0
2, 24757, Note_on_c, 0, 79, 0
2, 24757, Note_on_c, 0, 82, 0
2, 24757, Note_on_c, 0, 88, 0
2, 24782, Note_on_c, 0, 42, 80
2, 24782, Note_on_c, 0, 54, 80
2, 24883, Note_on_c, 0, 42, 0
2, 24888, Note_on_c, 0, 54, 0
2, 24908, Note_on_c, 0, 55, 80
2, 24914, Note_on_c, 0, 43, 80
2, 24914, Note_on_c, 0, 79, 80
2, 24914, Note_on_c, 0, 82, 80
2, 24914, Note_on_c, 0, 88, 80
2, 25012, Note_on_c, 0, 43, 0
2, 25019, Note_on_c, 0, 82, 0
2, 25019, Note_on_c, 0, 88, 0
2, 25019, Note_on_c, 0, 79, 0
2, 25021, Note_on_c, 0, 55, 0
2, 25041, Note_on_c, 0, 51, 80
2, 25043, Note_on_c, 0, 39, 80
2, 25078, Note_on_c, 0, 39, 0
2, 25089, Note_on_c, 0, 51, 0
2, 25109, Note_on_c, 0, 52, 80
2, 25111, Note_on_c, 0, 40, 80
2, 25118, Note_on_c, 0, 82, 80
2, 25118, Note_on_c, 0, 88, 80
2, 25120, Note_on_c, 0, 79, 80
2, 25206, Note_on_c, 0, 52, 0
2, 25208, Note_on_c, 0, 40, 0
2, 25213, Note_on_c, 0, 88, 0
2, 25218, Note_on_c, 0, 82, 0
2, 25220, Note_on_c, 0, 79, 0
2, 25233, Note_on_c, 0, 41, 80
2, 25243, Note_on_c, 0, 53, 80
2, 25248, Note_on_c, 0, 79, 80
2, 25248, Note_on_c, 0, 82, 80
2, 25252, Note_on_c, 0, 88, 80
2, 25271, Note_on_c, 0, 41, 0
2, 25305, Note_on_c, 0, 41, 80
2, 25411, Note_on_c, 0, 41, 0
2, 25420, Note_on_c, 0, 82, 0
2, 25422, Note_on_c, 0, 88, 0
2, 25424, Note_on_c, 0, 53, 0
2, 25426, Note_on_c, 0, 79, 0
2, 25444, Note_on_c, 0, 41, 80
2, 25446, Note_on_c, 0, 53, 80
2, 25448, Note_on_c, 0, 79, 80
2, 25453, Note_on_c, 0, 87, 80
2, 25460, Note_on_c, 0, 81, 80
2, 25542, Note_on_c, 0, 41, 0
2, 25552, Note_on_c, 0, 53, 0
2, 25554, Note_on_c, 0, 81, 0
2, 25554, Note_on_c, 0, 79, 0
2, 25559, Note_on_c, 0, 87, 0
2, 25579, Note_on_c, 0, 54, 80
2, 25581, Note_on_c, 0, 42, 80
2, 25681, Note_on_c, 0, 42, 0
2, 25681, Note_on_c, 0, 54, 0
2, 25704, Note_on_c, 0, 55, 80
2, 25711, Note_on_c, 0, 43, 80
2, 25716, Note_on_c, 0, 79, 80
2, 25716, Note_on_c, 0, 81, 80
2, 25716, Note_on_c, 0, 87, 80
2, 25814, Note_on_c, 0, 43, 0
2, 25819, Note_on_c, 0, 87, 0
2, 25821, Note_on_c, 0, 81, 0
2, 25821, Note_on_c, 0, 79, 0
2, 25823, Note_on_c, 0, 55, 0
2, 25839, Note_on_c, 0, 56, 80
2, 25841, Note_on_c, 0, 44, 80
2, 25872, Note_on_c, 0, 44, 0
2, 25877, Note_on_c, 0, 56, 0
2, 25900, Note_on_c, 0, 57, 80
2, 25902, Note_on_c, 0, 45, 80
2, 25912, Note_on_c, 0, 79, 80
2, 25912, Note_on_c, 0, 87, 80
2, 25914, Note_on_c, 0, 81, 80
2, 26008, Note_on_c, 0, 81, 0
2, 26013, Note_on_c, 0, 79, 0
2, 26013, Note_on_c, 0, 87, 0
2, 26042, Note_on_c, 0, 81, 80
2, 26042, Note_on_c, 0, 87, 80
2, 26047, Note_on_c, 0, 79, 80
2, 26075, Note_on_c, 0, 45, 0
2, 26103, Note_on_c, 0, 45, 80
2, 26141, Note_on_c, 0, 45, 0
2, 26153, Note_on_c, 0, 57, 0
2, 26169, Note_on_c, 0, 46, 80
2, 26169, Note_on_c, 0, 58, 80
2, 26210, Note_on_c, 0, 46, 0
2, 26212, Note_on_c, 0, 58, 0
2, 26214, Note_on_c, 0, 87, 0
2, 26214, Note_on_c, 0, 81, 0
2, 26216, Note_on_c, 0, 79, 0
2, 26239, Note_on_c, 0, 47, 80
2, 26239, Note_on_c, 0, 59, 80
2, 26335, Note_on_c, 0, 47, 0
2, 26345, Note_on_c, 0, 59, 0
2, 26361, Note_on_c, 0, 48, 80
2, 26373, Note_on_c, 0, 60, 80
2, 26373, Note_on_c, 0, 87, 80
2, 26377, Note_on_c, 0, 79, 80
2, 26382, Note_on_c, 0, 81, 80
2, 26472, Note_on_c, 0, 48, 0
2, 26473, Note_on_c, 0, 60, 0
2, 26478, Note_on_c, 0, 79, 0
2, 26478, Note_on_c, 0, 87, 0
2, 26478, Note_on_c, 0, 81, 0
2, 26498, Note_on_c, 0, 50, 80
2, 26498, Note_on_c, 0, 62, 80
2, 26604, Note_on_c, 0, 62, 0
2, 26604, Note_on_c, 0, 50, 0
2, 26624, Note_on_c, 0, 41, 80
2, 26626, Note_on_c, 0, 53, 80
2, 26702, Note_on_c, 0, 79, 80
2, 26702, Note_on_c, 0, 87, 80
2, 26704, Note_on_c, 0, 81, 80
2, 26805, Note_on_c, 0, 81, 0
2, 26805, Note_on_c, 0, 79, 0
2, 26809, Note_on_c, 0, 87, 0
2, 26834, Note_on_c, 0, 77, 80
2, 26864, Note_on_c, 0, 41, 0
2, 26876, Note_on_c, 0, 77, 0
2, 26889, Note_on_c, 0, 41, 80
2, 26901, Note_on_c, 0, 87, 80
2, 26907, Note_on_c, 0, 79, 80
2, 26999, Note_on_c, 0, 41, 0
2, 27008, Note_on_c, 0, 87, 0
2, 27010, Note_on_c, 0, 53, 0
2, 27010, Note_on_c, 0, 79, 0
2, 27035, Note_on_c, 0, 46, 80
2, 27037, Note_on_c, 0, 58, 80
2, 27037, Note_on_c, 0, 77, 80
2, 27039, Note_on_c, 0, 82, 80
2, 27044, Note_on_c, 0, 86, 80
2, 27140, Note_on_c, 0, 46, 0
2, 27142, Note_on_c, 0, 82, 0
2, 27142, Note_on_c, 0, 58, 0
2, 27144, Note_on_c, 0, 77, 0
2, 27144, Note_on_c, 0, 86, 0
2, 27160, Note_on_c, 0, 57, 80
2, 27162, Note_on_c, 0, 45, 80
2, 27235, Note_on_c, 0, 77, 80
2, 27235, Note_on_c, 0, 91, 80
2, 27237, Note_on_c, 0, 84, 80
2, 27333, Note_on_c, 0, 77, 0
2, 27335, Note_on_c, 0, 84, 0
2, 27336, Note_on_c, 0, 91, 0
2, 27364, Note_on_c, 0, 77, 80
2, 27369, Note_on_c, 0, 84, 80
2, 27369, Note_on_c, 0, 91, 80
2, 27397, Note_on_c, 0, 45, 0
2, 27407, Note_on_c, 0, 84, 0
2, 27407, Note_on_c, 0, 77, 0
2, 27408, Note_on_c, 0, 91, 0
2, 27413, Note_on_c, 0, 57, 0
2, 27425, Note_on_c, 0, 44, 80
2, 27430, Note_on_c, 0, 56, 80
2, 27432, Note_on_c, 0, 80, 80
2, 27529, Note_on_c, 0, 44, 0
2, 27539, Note_on_c, 0, 56, 0
2, 27541, Note_on_c, 0, 80, 0
2, 27557, Note_on_c, 0, 55, 80
2, 27559, Note_on_c, 0, 43, 80
2, 27561, Note_on_c, 0, 79, 80
2, 27563, Note_on_c, 0, 91, 80
2, 27568, Note_on_c, 0, 83, 80
2, 27664, Note_on_c, 0, 91, 0
2, 27664, Note_on_c, 0, 79, 0
2, 27664, Note_on_c, 0, 43, 0
2, 27666, Note_on_c, 0, 55, 0
2, 27668, Note_on_c, 0, 83, 0
2, 27693, Note_on_c, 0, 70, 80
2, 27693, Note_on_c, 0, 78, 80
2, 27807, Note_on_c, 0, 78, 0
2, 27807, Note_on_c, 0, 70, 0
2, 27832, Note_on_c, 0, 71, 80
2, 27834, Note_on_c, 0, 79, 80
2, 27932, Note_on_c, 0, 79, 0
2, 27938, Note_on_c, 0, 71, 0
2, 27961, Note_on_c, 0, 73, 80
2, 27966, Note_on_c, 0, 82, 80
2, 28064, Note_on_c, 0, 82, 0
2, 28066, Note_on_c, 0, 73, 0
2, 28091, Note_on_c, 0, 74, 80
2, 28093, Note_on_c, 0, 83, 80
2, 28196, Note_on_c, 0, 83, 0
2, 28196, Note_on_c, 0, 74, 0
2, 28221, Note_on_c, 0, 78, 80
2, 28221, Note_on_c, 0, 87, 80
2, 28262, Note_on_c, 0, 87, 0
2, 28269, Note_on_c, 0, 78, 0
2, 28287, Note_on_c, 0, 88, 80
2, 28289, Note_on_c, 0, 79, 80
2, 28383, Note_on_c, 0, 88, 0
2, 28394, Note_on_c, 0, 79, 0
2, 28417, Note_on_c, 0, 87, 80
2, 28419, Note_on_c, 0, 78, 80
2, 28456, Note_on_c, 0, 87, 0
2, 28461, Note_on_c, 0, 78, 0
2, 28481, Note_on_c, 0, 54, 80
2, 28483, Note_on_c, 0, 63, 80
2, 28485, Note_on_c, 0, 88, 80
2, 28487, Note_on_c, 0, 79, 80
2, 28583, Note_on_c, 0, 54, 0
2, 28584, Note_on_c, 0, 79, 0
2, 28586, Note_on_c, 0, 88, 0
2, 28596, Note_on_c, 0, 63, 0
2, 28612, Note_on_c, 0, 84, 80
2, 28614, Note_on_c, 0, 64, 80
2, 28616, Note_on_c, 0, 55, 80
2, 28618, Note_on_c, 0, 76, 80
2, 28719, Note_on_c, 0, 84, 0
2, 28721, Note_on_c, 0, 55, 0
2, 28726, Note_on_c, 0, 64, 0
2, 28726, Note_on_c, 0, 76, 0
2, 28749, Note_on_c, 0, 84, 80
2, 28792, Note_on_c, 0, 84, 0
2, 28820, Note_on_c, 0, 82, 80
2, 28914, Note_on_c, 0, 82, 0
2, 28948, Note_on_c, 0, 72, 80
2, 28983, Note_on_c, 0, 72, 0
2, 29015, Note_on_c, 0, 82, 80
2, 29120, Note_on_c, 0, 82, 0
2, 29140, Note_on_c, 0, 70, 80
2, 29188, Note_on_c, 0, 70, 0
2, 29207, Note_on_c, 0, 76, 80
2, 29208, Note_on_c, 0, 79, 80
2, 29316, Note_on_c, 0, 79, 0
2, 29316, Note_on_c, 0, 76, 0
2, 29346, Note_on_c, 0, 67, 80
2, 29380, Note_on_c, 0, 67, 0
2, 29415, Note_on_c, 0, 70, 80
2, 29415, Note_on_c, 0, 76, 80
2, 29522, Note_on_c, 0, 76, 0
2, 29522, Note_on_c, 0, 70, 0
2, 29545, Note_on_c, 0, 48, 80
2, 29547, Note_on_c, 0, 58, 80
2, 29547, Note_on_c, 0, 64, 80
2, 29547, Note_on_c, 0, 72, 80
2, 29648, Note_on_c, 0, 48, 0
2, 29653, Note_on_c, 0, 58, 0
2, 29660, Note_on_c, 0, 64, 0
2, 29664, Note_on_c, 0, 57, 80
2, 29669, Note_on_c, 0, 48, 80
2, 29669, Note_on_c, 0, 75, 80
2, 29671, Note_on_c, 0, 65, 80
2, 29671, Note_on_c, 0, 69, 80
2, 29671, Note_on_c, 0, 77, 80
2, 29767, Note_on_c, 0, 77, 0
2, 29772, Note_on_c, 0, 48, 0
2, 29772, Note_on_c, 0, 65, 0
2, 29774, Note_on_c, 0, 75, 0
2, 29774, Note_on_c, 0, 69, 0
2, 29779, Note_on_c, 0, 72, 0
2, 29781, Note_on_c, 0, 57, 0
2, 29799, Note_on_c, 0, 67, 80
2, 29837, Note_on_c, 0, 67, 0
2, 29865, Note_on_c, 0, 69, 80
2, 29870, Note_on_c, 0, 75, 80
2, 29968, Note_on_c, 0, 75, 0
2, 29973, Note_on_c, 0, 69, 0
2, 29993, Note_on_c, 0, 65, 80
2, 30041, Note_on_c, 0, 65, 0
2, 30064, Note_on_c, 0, 69, 80
2, 30069, Note_on_c, 0, 72, 80
2, 30169, Note_on_c, 0, 69, 0
2, 30171, Note_on_c, 0, 72, 0
2, 30203, Note_on_c, 0, 67, 80
2, 30235, Note_on_c, 0, 67, 0
2, 30266, Note_on_c, 0, 69, 80
2, 30266, Note_on_c, 0, 77, 80
2, 30369, Note_on_c, 0, 77, 0
2, 30376, Note_on_c, 0, 69, 0
2, 30404, Note_on_c, 0, 67, 80
2, 30433, Note_on_c, 0, 67, 0
2, 30461, Note_on_c, 0, 69, 80
2, 30468, Note_on_c, 0, 75, 80
2, 30571, Note_on_c, 0, 75, 0
2, 30571, Note_on_c, 0, 69, 0
2, 30584, Note_on_c, 0, 53, 80
2, 30586, Note_on_c, 0, 41, 80
2, 30593, Note_on_c, 0, 65, 80
2, 30593, Note_on_c, 0, 72, 80
2, 30682, Note_on_c, 0, 41, 0
2, 30696, Note_on_c, 0, 65, 0
2, 30697, Note_on_c, 0, 72, 0
2, 30702, Note_on_c, 0, 53, 0
2, 30719, Note_on_c, 0, 58, 80
2, 30719, Note_on_c, 0, 65, 80
2, 30720, Note_on_c, 0, 46, 80
2, 30722, Note_on_c, 0, 70, 80
2, 30722, Note_on_c, 0, 74, 80
2, 30818, Note_on_c, 0, 58, 0
2, 30823, Note_on_c, 0, 65, 0
2, 30823, Note_on_c, 0, 46, 0
2, 30833, Note_on_c, 0, 74, 0
2, 30838, Note_on_c, 0, 70, 0
2, 30847, Note_on_c, 0, 53, 80
2, 30847, Note_on_c, 0, 58, 80
2, 30847, Note_on_c, 0, 62, 80
2, 30918, Note_on_c, 0, 69, 80
2, 30920, Note_on_c, 0, 76, 80
2, 30925, Note_on_c, 0, 81, 80
2, 30953, Note_on_c, 0, 58, 0
2, 30958, Note_on_c, 0, 53, 0
2, 30958, Note_on_c, 0, 62, 0
2, 30976, Note_on_c, 0, 61, 80
2, 30981, Note_on_c, 0, 49, 80
2, 31024, Note_on_c, 0, 81, 0
2, 31024, Note_on_c, 0, 76, 0
2, 31054, Note_on_c, 0, 76, 80
2, 31058, Note_on_c, 0, 81, 80
2, 31088, Note_on_c, 0, 81, 0
2, 31090, Note_on_c, 0, 49, 0
2, 31090, Note_on_c, 0, 61, 0
2, 31095, Note_on_c, 0, 76, 0
2, 31115, Note_on_c, 0, 55, 80
2, 31117, Note_on_c, 0, 64, 80
2, 31117, Note_on_c, 0, 76, 80
2, 31119, Note_on_c, 0, 58, 80
2, 31119, Note_on_c, 0, 61, 80
2, 31124, Note_on_c, 0, 81, 80
2, 31220, Note_on_c, 0, 58, 0
2, 31224, Note_on_c, 0, 61, 0
2, 31226, Note_on_c, 0, 69, 0
2, 31226, Note_on_c, 0, 81, 0
2, 31228, Note_on_c, 0, 55, 0
2, 31228, Note_on_c, 0, 76, 0
2, 31233, Note_on_c, 0, 64, 0
2, 31247, Note_on_c, 0, 48, 80
2, 31247, Note_on_c, 0, 60, 80
2, 31248, Note_on_c, 0, 69, 80
2, 31253, Note_on_c, 0, 67, 80
2, 31253, Note_on_c, 0, 72, 80
2, 31253, Note_on_c, 0, 79, 80
2, 31255, Note_on_c, 0, 75, 80
2, 31351, Note_on_c, 0, 48, 0
2, 31353, Note_on_c, 0, 79, 0
2, 31353, Note_on_c, 0, 67, 0
2, 31353, Note_on_c, 0, 75, 0
2, 31360, Note_on_c, 0, 69, 0
2, 31360, Note_on_c, 0, 72, 0
2, 31373, Note_on_c, 0, 57, 80
2, 31378, Note_on_c, 0, 53, 80
2, 31383, Note_on_c, 0, 63, 80
2, 31492, Note_on_c, 0, 53, 0
2, 31512, Note_on_c, 0, 53, 80
2, 31579, Note_on_c, 0, 69, 80
2, 31584, Note_on_c, 0, 75, 80
2, 31588, Note_on_c, 0, 79, 80
2, 31618, Note_on_c, 0, 53, 0
2, 31618, Note_on_c, 0, 60, 0
2, 31623, Note_on_c, 0, 57, 0
2, 31628, Note_on_c, 0, 63, 0
2, 31680, Note_on_c, 0, 75, 0
2, 31687, Note_on_c, 0, 79, 0
2, 31692, Note_on_c, 0, 69, 0
2, 31710, Note_on_c, 0, 77, 80
2, 31753, Note_on_c, 0, 77, 0
2, 31770, Note_on_c, 0, 55, 80
2, 31770, Note_on_c, 0, 62, 80
2, 31770, Note_on_c, 0, 65, 80
2, 31770, Note_on_c, 0, 74, 80
2, 31772, Note_on_c, 0, 59, 80
2, 31774, Note_on_c, 0, 79, 80
2, 31776, Note_on_c, 0, 71, 80
2, 31876, Note_on_c, 0, 65, 0
2, 31876, Note_on_c, 0, 62, 0
2, 31878, Note_on_c, 0, 55, 0
2, 31880, Note_on_c, 0, 79, 0
2, 31880, Note_on_c, 0, 74, 0
2, 31880, Note_on_c, 0, 71, 0
2, 31882, Note_on_c, 0, 59, 0
2, 32033, Note_on_c, 0, 43, 80
2, 32033, Note_on_c, 0, 50, 80
2, 32033, Note_on_c, 0, 53, 80
2, 32035, Note_on_c, 0, 65, 80
2, 32041, Note_on_c, 0, 59, 80
2, 32041, Note_on_c, 0, 62, 80
2, 32046, Note_on_c, 0, 67, 80
2, 32140, Note_on_c, 0, 67, 0
2, 32140, Note_on_c, 0, 43, 0
2, 32142, Note_on_c, 0, 65, 0
2, 32142, Note_on_c, 0, 50, 0
2, 32142, Note_on_c, 0, 62, 0
2, 32147, Note_on_c, 0, 53, 0
2, 32147, Note_on_c, 0, 59, 0
2, 32304, Note_on_c, 0, 62, 80
2, 32309, Note_on_c, 0, 65, 80
2, 32311, Note_on_c, 0, 43, 80
2, 32311, Note_on_c, 0, 50, 80
2, 32311, Note_on_c, 0, 53, 80
2, 32311, Note_on_c, 0, 59, 80
2, 32316, Note_on_c, 0, 67, 80
2, 32405, Note_on_c, 0, 43, 0
2, 32415, Note_on_c, 0, 65, 0
2, 32415, Note_on_c, 0, 50, 0
2, 32415, Note_on_c, 0, 67, 0
2, 32438, Note_on_c, 0, 65, 80
2, 32443, Note_on_c, 0, 43, 80
2, 32443, Note_on_c, 0, 50, 80
2, 32445, Note_on_c, 0, 67, 80
2, 32545, Note_on_c, 0, 43, 0
2, 32550, Note_on_c, 0, 50, 0
2, 32552, Note_on_c, 0, 67, 0
2, 32554, Note_on_c, 0, 62, 0
2, 32554, Note_on_c, 0, 65, 0
2, 32554, Note_on_c, 0, 53, 0
2, 32559, Note_on_c, 0, 59, 0
2, 32708, Note_on_c, 0, 53, 80
2, 32708, Note_on_c, 0, 59, 80
2, 32712, Note_on_c, 0, 43, 80
2, 32712, Note_on_c, 0, 50, 80
2, 32712, Note_on_c, 0, 62, 80
2, 32714, Note_on_c, 0, 65, 80
2, 32721, Note_on_c, 0, 67, 80
2, 32815, Note_on_c, 0, 67, 0
2, 32815, Note_on_c, 0, 43, 0
2, 32817, Note_on_c, 0, 62, 0
2, 32817, Note_on_c, 0, 50, 0
2, 32817, Note_on_c, 0, 65, 0
2, 32822, Note_on_c, 0, 53, 0
2, 32822, Note_on_c, 0, 59, 0
2, 32835, Note_on_c, 0, 48, 80
2, 32837, Note_on_c, 0, 36, 80
2, 32837, Note_on_c, 0, 64, 80
2, 32839, Note_on_c, 0, 70, 80
2, 32844, Note_on_c, 0, 67, 80
2, 32846, Note_on_c, 0, 72, 80
2, 32930, Note_on_c, 0, 36, 0
2, 32937, Note_on_c, 0, 48, 0
2, 32942, Note_on_c, 0, 67, 0
2, 32947, Note_on_c, 0, 70, 0
2, 32947, Note_on_c, 0, 72, 0
2, 32952, Note_on_c, 0, 64, 0
2, 33096, Note_on_c, 0, 51, 80
2, 33097, Note_on_c, 0, 64, 80
2, 33097, Note_on_c, 0, 70, 80
2, 33102, Note_on_c, 0, 39, 80
2, 33102, Note_on_c, 0, 72, 80
2, 33104, Note_on_c, 0, 67, 80
2, 33193, Note_on_c, 0, 39, 0
2, 33198, Note_on_c, 0, 67, 0
2, 33200, Note_on_c, 0, 51, 0
2, 33200, Note_on_c, 0, 72, 0
2, 33205, Note_on_c, 0, 70, 0
2, 33205, Note_on_c, 0, 64, 0
2, 33359, Note_on_c, 0, 64, 80
2, 33360, Note_on_c, 0, 55, 80
2, 33360, Note_on_c, 0, 62, 80
2, 33362, Note_on_c, 0, 43, 80
2, 33362, Note_on_c, 0, 70, 80
2, 33460, Note_on_c, 0, 43, 0
2, 33467, Note_on_c, 0, 62, 0
2, 33467, Note_on_c, 0, 70, 0
2, 33467, Note_on_c, 0, 55, 0
2, 33487, Note_on_c, 0, 36, 80
2, 33487, Note_on_c, 0, 60, 80
2, 33489, Note_on_c, 0, 48, 80
2, 33489, Note_on_c, 0, 70, 80
2, 33592, Note_on_c, 0, 36, 0
2, 33594, Note_on_c, 0, 48, 0
2, 33596, Note_on_c, 0, 60, 0
2, 33600, Note_on_c, 0, 70, 0
2, 33607, Note_on_c, 0, 64, 0
2, 33758, Note_on_c, 0, 36, 80
2, 33760, Note_on_c, 0, 62, 80
2, 33760, Note_on_c, 0, 64, 80
2, 33760, Note_on_c, 0, 70, 80
2, 33762, Note_on_c, 0, 48, 80
2, 33856, Note_on_c, 0, 36, 0
2, 33865, Note_on_c, 0, 48, 0
2, 33867, Note_on_c, 0, 62, 0
2, 33872, Note_on_c, 0, 64, 0
2, 33872, Note_on_c, 0, 70, 0
2, 33888, Note_on_c, 0, 60, 80
2, 33893, Note_on_c, 0, 63, 80
2, 33895, Note_on_c, 0, 41, 80
2, 33897, Note_on_c, 0, 53, 80
2, 33902, Note_on_c, 0, 69, 80
2, 33996, Note_on_c, 0, 69, 0
2, 33996, Note_on_c, 0, 41, 0
2, 34003, Note_on_c, 0, 60, 0
2, 34008, Note_on_c, 0, 63, 0
2, 34009, Note_on_c, 0, 53, 0
2, 34152, Note_on_c, 0, 63, 80
2, 34152, Note_on_c, 0, 65, 80
2, 34153, Note_on_c, 0, 48, 80
2, 34153, Note_on_c, 0, 53, 80
2, 34153, Note_on_c, 0, 60, 80
2, 34155, Note_on_c, 0, 41, 80
2, 34247, Note_on_c, 0, 41, 0
2, 34251, Note_on_c, 0, 48, 0
2, 34256, Note_on_c, 0, 65, 0
2, 34263, Note_on_c, 0, 63, 0
2, 34263, Note_on_c, 0, 53, 0
2, 34263, Note_on_c, 0, 60, 0
2, 34409, Note_on_c, 0, 41, 80
2, 34411, Note_on_c, 0, 48, 80
2, 34411, Note_on_c, 0, 57, 80
2, 34416, Note_on_c, 0, 53, 80
2, 34416, Note_on_c, 0, 63, 80
2, 34417, Note_on_c, 0, 67, 80
2, 34507, Note_on_c, 0, 41, 0
2, 34512, Note_on_c, 0, 48, 0
2, 34516, Note_on_c, 0, 67, 0
2, 34536, Note_on_c, 0, 41, 80
2, 34538, Note_on_c, 0, 65, 80
2, 34540, Note_on_c, 0, 48, 80
2, 34638, Note_on_c, 0, 41, 0
2, 34643, Note_on_c, 0, 48, 0
2, 34648, Note_on_c, 0, 65, 0
2, 34655, Note_on_c, 0, 57, 0
2, 34655, Note_on_c, 0, 63, 0
2, 34655, Note_on_c, 0, 53, 0
2, 34800, Note_on_c, 0, 48, 80
2, 34800, Note_on_c, 0, 57, 80
2, 34800, Note_on_c, 0, 63, 80
2, 34805, Note_on_c, 0, 41, 80
2, 34810, Note_on_c, 0, 53, 80
2, 34812, Note_on_c, 0, 67, 80
2, 34903, Note_on_c, 0, 41, 0
2, 34903, Note_on_c, 0, 48, 0
2, 34910, Note_on_c, 0, 67, 0
2, 34917, Note_on_c, 0, 57, 0
2, 34917, Note_on_c, 0, 53, 0
2, 34921, Note_on_c, 0, 63, 0
2, 34938, Note_on_c, 0, 58, 80
2, 34938, Note_on_c, 0, 62, 80
2, 34940, Note_on_c, 0, 65, 80
2, 34940, Note_on_c, 0, 70, 80
2, 34944, Note_on_c, 0, 46, 80
2, 35036, Note_on_c, 0, 46, 0
2, 35038, Note_on_c, 0, 58, 0
2, 35044, Note_on_c, 0, 62, 0
2, 35044, Note_on_c, 0, 65, 0
2, 35054, Note_on_c, 0, 70, 0
2, 35067, Note_on_c, 0, 65, 80
2, 35069, Note_on_c, 0, 43, 80
2, 35069, Note_on_c, 0, 55, 80
2, 35117, Note_on_c, 0, 65, 0
2, 35154, Note_on_c, 0, 67, 80
2, 35179, Note_on_c, 0, 43, 0
2, 35181, Note_on_c, 0, 67, 0
2, 35181, Note_on_c, 0, 55, 0
2, 35204, Note_on_c, 0, 41, 80
2, 35210, Note_on_c, 0, 65, 80
2, 35212, Note_on_c, 0, 53, 80
2, 35254, Note_on_c, 0, 65, 0
2, 35290, Note_on_c, 0, 67, 80
2, 35310, Note_on_c, 0, 41, 0
2, 35324, Note_on_c, 0, 53, 0
2, 35337, Note_on_c, 0, 51, 80
2, 35347, Note_on_c, 0, 41, 80
2, 35448, Note_on_c, 0, 41, 0
2, 35449, Note_on_c, 0, 67, 0
2, 35451, Note_on_c, 0, 51, 0
2, 35472, Note_on_c, 0, 50, 80
2, 35473, Note_on_c, 0, 41, 80
2, 35475, Note_on_c, 0, 62, 80
2, 35480, Note_on_c, 0, 65, 80
2, 35480, Note_on_c, 0, 70, 80
2, 35574, Note_on_c, 0, 41, 0
2, 35579, Note_on_c, 0, 50, 0
2, 35584, Note_on_c, 0, 65, 0
2, 35584, Note_on_c, 0, 62, 0
2, 35584, Note_on_c, 0, 70, 0
2, 35607, Note_on_c, 0, 65, 80
2, 35614, Note_on_c, 0, 53, 80
2, 35650, Note_on_c, 0, 65, 0
2, 35652, Note_on_c, 0, 53, 0
2, 35675, Note_on_c, 0, 53, 80
2, 35675, Note_on_c, 0, 65, 80
2, 35783, Note_on_c, 0, 65, 0
2, 35803, Note_on_c, 0, 74, 80
2, 35805, Note_on_c, 0, 65, 80
2, 35843, Note_on_c, 0, 65, 0
2, 35863, Note_on_c, 0, 41, 80
2, 35870, Note_on_c, 0, 67, 80
2, 35961, Note_on_c, 0, 41, 0
2, 35975, Note_on_c, 0, 67, 0
2, 35981, Note_on_c, 0, 53, 0
2, 35995, Note_on_c, 0, 58, 80
2, 35997, Note_on_c, 0, 46, 80
2, 35997, Note_on_c, 0, 86, 80
2, 36031, Note_on_c, 0, 86, 0
2, 36036, Note_on_c, 0, 74, 0
2, 36066, Note_on_c, 0, 82, 80
2, 36096, Note_on_c, 0, 46, 0
2, 36100, Note_on_c, 0, 58, 0
2, 36102, Note_on_c, 0, 82, 0
2, 36125, Note_on_c, 0, 58, 80
2, 36125, Note_on_c, 0, 62, 80
2, 36127, Note_on_c, 0, 53, 80
2, 36132, Note_on_c, 0, 77, 80
2, 36175, Note_on_c, 0, 77, 0
2, 36193, Note_on_c, 0, 74, 80
2, 36232, Note_on_c, 0, 58, 0
2, 36232, Note_on_c, 0, 62, 0
2, 36237, Note_on_c, 0, 53, 0
2, 36239, Note_on_c, 0, 74, 0
2, 36257, Note_on_c, 0, 45, 80
2, 36257, Note_on_c, 0, 57, 80
2, 36264, Note_on_c, 0, 72, 80
2, 36265, Note_on_c, 0, 84, 80
2, 36297, Note_on_c, 0, 84, 0
2, 36304, Note_on_c, 0, 72, 0
2, 36329, Note_on_c, 0, 81, 80
2, 36359, Note_on_c, 0, 45, 0
2, 36365, Note_on_c, 0, 81, 0
2, 36367, Note_on_c, 0, 57, 0
2, 36390, Note_on_c, 0, 53, 80
2, 36390, Note_on_c, 0, 58, 80
2, 36390, Note_on_c, 0, 62, 80
2, 36395, Note_on_c, 0, 77, 80
2, 36432, Note_on_c, 0, 77, 0
2, 36459, Note_on_c, 0, 72, 80
2, 36489, Note_on_c, 0, 58, 0
2, 36494, Note_on_c, 0, 72, 0
2, 36494, Note_on_c, 0, 62, 0
2, 36496, Note_on_c, 0, 53, 0
2, 36521, Note_on_c, 0, 43, 80
2, 36521, Note_on_c, 0, 55, 80
2, 36523, Note_on_c, 0, 70, 80
2, 36528, Note_on_c, 0, 82, 80
2, 36566, Note_on_c, 0, 82, 0
2, 36566, Note_on_c, 0, 70, 0
2, 36594, Note_on_c, 0, 79, 80
2, 36624, Note_on_c, 0, 43, 0
2, 36630, Note_on_c, 0, 79, 0
2, 36650, Note_on_c, 0, 74, 80
2, 36652, Note_on_c, 0, 62, 80
2, 36654, Note_on_c, 0, 58, 80
2, 36700, Note_on_c, 0, 74, 0
2, 36719, Note_on_c, 0, 70, 80
2, 36757, Note_on_c, 0, 58, 0
2, 36757, Note_on_c, 0, 62, 0
2, 36759, Note_on_c, 0, 55, 0
2, 36770, Note_on_c, 0, 70, 0
2, 36782, Note_on_c, 0, 53, 80
2, 36787, Note_on_c, 0, 41, 80
2, 36798, Note_on_c, 0, 81, 80
2, 36828, Note_on_c, 0, 81, 0
2, 36858, Note_on_c, 0, 79, 80
2, 36878, Note_on_c, 0, 41, 0
2, 36896, Note_on_c, 0, 79, 0
2, 36914, Note_on_c, 0, 62, 80
2, 36919, Note_on_c, 0, 58, 80
2, 36924, Note_on_c, 0, 74, 80
2, 36970, Note_on_c, 0, 74, 0
2, 36988, Note_on_c, 0, 69, 80
2, 37027, Note_on_c, 0, 58, 0
2, 37027, Note_on_c, 0, 62, 0
2, 37032, Note_on_c, 0, 53, 0
2, 37033, Note_on_c, 0, 69, 0
2, 37050, Note_on_c, 0, 40, 80
2, 37050, Note_on_c, 0, 52, 80
2, 37114, Note_on_c, 0, 72, 80
2, 37149, Note_on_c, 0, 52, 0
2, 37149, Note_on_c, 0, 40, 0
2, 37155, Note_on_c, 0, 72, 0
2, 37172, Note_on_c, 0, 55, 80
2, 37172, Note_on_c, 0, 58, 80
2, 37172, Note_on_c, 0, 60, 80
2, 37172, Note_on_c, 0, 64, 80
2, 37181, Note_on_c, 0, 76, 80
2, 37213, Note_on_c, 0, 76, 0
2, 37238, Note_on_c, 0, 79, 80
2, 37274, Note_on_c, 0, 58, 0
2, 37279, Note_on_c, 0, 64, 0
2, 37279, Note_on_c, 0, 60, 0
2, 37281, Note_on_c, 0, 79, 0
2, 37301, Note_on_c, 0, 43, 80
2, 37303, Note_on_c, 0, 74, 80
2, 37313, Note_on_c, 0, 81, 80
2, 37344, Note_on_c, 0, 81, 0
2, 37351, Note_on_c, 0, 74, 0
2, 37368, Note_on_c, 0, 76, 80
2, 37404, Note_on_c, 0, 43, 0
2, 37411, Note_on_c, 0, 76, 0
2, 37427, Note_on_c, 0, 60, 80
2, 37434, Note_on_c, 0, 64, 80
2, 37436, Note_on_c, 0, 58, 80
2, 37442, Note_on_c, 0, 79, 80
2, 37472, Note_on_c, 0, 79, 0
2, 37507, Note_on_c, 0, 81, 80
2, 37536, Note_on_c, 0, 58, 0
2, 37541, Note_on_c, 0, 60, 0
2, 37546, Note_on_c, 0, 81, 0
2, 37546, Note_on_c, 0, 64, 0
2, 37548, Note_on_c, 0, 55, 0
2, 37561, Note_on_c, 0, 60, 80
2, 37568, Note_on_c, 0, 48, 80
2, 37575, Note_on_c, 0, 72, 80
2, 37613, Note_on_c, 0, 72, 0
2, 37643, Note_on_c, 0, 76, 80
2, 37675, Note_on_c, 0, 48, 0
2, 37684, Note_on_c, 0, 76, 0
2, 37686, Note_on_c, 0, 60, 0
2, 37704, Note_on_c, 0, 58, 80
2, 37704, Note_on_c, 0, 64, 80
2, 37706, Note_on_c, 0, 55, 80
2, 37706, Note_on_c, 0, 60, 80
2, 37713, Note_on_c, 0, 79, 80
2, 37748, Note_on_c, 0, 79, 0
2, 37777, Note_on_c, 0, 74, 80
2, 37787, Note_on_c, 0, 81, 80
2, 37819, Note_on_c, 0, 58, 0
2, 37824, Note_on_c, 0, 60, 0
2, 37824, Note_on_c, 0, 64, 0
2, 37824, Note_on_c, 0, 55, 0
2, 37840, Note_on_c, 0, 46, 80
2, 37847, Note_on_c, 0, 58, 80
2, 37888, Note_on_c, 0, 81, 0
2, 37895, Note_on_c, 0, 74, 0
2, 37926, Note_on_c, 0, 79, 80
2, 37954, Note_on_c, 0, 46, 0
2, 37959, Note_on_c, 0, 58, 0
2, 37966, Note_on_c, 0, 79, 0
2, 37977, Note_on_c, 0, 55, 80
2, 37979, Note_on_c, 0, 64, 80
2, 37981, Note_on_c, 0, 58, 80
2, 37981, Note_on_c, 0, 60, 80
2, 37986, Note_on_c, 0, 72, 80
2, 37988, Note_on_c, 0, 81, 80
2, 38086, Note_on_c, 0, 58, 0
2, 38090, Note_on_c, 0, 81, 0
2, 38097, Note_on_c, 0, 60, 0
2, 38097, Note_on_c, 0, 55, 0
2, 38097, Note_on_c, 0, 64, 0
2, 38097, Note_on_c, 0, 72, 0
2, 38107, Note_on_c, 0, 57, 80
2, 38112, Note_on_c, 0, 45, 80
2, 38183, Note_on_c, 0, 72, 80
2, 38217, Note_on_c, 0, 45, 0
2, 38227, Note_on_c, 0, 72, 0
2, 38245, Note_on_c, 0, 60, 80
2, 38245, Note_on_c, 0, 63, 80
2, 38247, Note_on_c, 0, 75, 80
2, 38285, Note_on_c, 0, 75, 0
2, 38315, Note_on_c, 0, 77, 80
2, 38353, Note_on_c, 0, 77, 0
2, 38355, Note_on_c, 0, 60, 0
2, 38355, Note_on_c, 0, 57, 0
2, 38362, Note_on_c, 0, 63, 0
2, 38369, Note_on_c, 0, 41, 80
2, 38371, Note_on_c, 0, 53, 80
2, 38376, Note_on_c, 0, 74, 80
2, 38377, Note_on_c, 0, 79, 80
2, 38412, Note_on_c, 0, 79, 0
2, 38417, Note_on_c, 0, 74, 0
2, 38442, Note_on_c, 0, 77, 80
2, 38472, Note_on_c, 0, 41, 0
2, 38481, Note_on_c, 0, 77, 0
2, 38483, Note_on_c, 0, 53, 0
2, 38499, Note_on_c, 0, 60, 80
2, 38504, Note_on_c, 0, 57, 80
2, 38509, Note_on_c, 0, 63, 80
2, 38509, Note_on_c, 0, 72, 80
2, 38509, Note_on_c, 0, 79, 80
2, 38615, Note_on_c, 0, 79, 0
2, 38616, Note_on_c, 0, 60, 0
2, 38616, Note_on_c, 0, 72, 0
2, 38618, Note_on_c, 0, 57, 0
2, 38623, Note_on_c, 0, 63, 0
2, 38635, Note_on_c, 0, 48, 80
2, 38637, Note_on_c, 0, 60, 80
2, 38637, Note_on_c, 0, 65, 80
2, 38680, Note_on_c, 0, 65, 0
2, 38708, Note_on_c, 0, 69, 80
2, 38742, Note_on_c, 0, 48, 0
2, 38756, Note_on_c, 0, 69, 0
2, 38772, Note_on_c, 0, 57, 80
2, 38772, Note_on_c, 0, 63, 80
2, 38777, Note_on_c, 0, 72, 80
2, 38818, Note_on_c, 0, 72, 0
2, 38836, Note_on_c, 0, 75, 80
2, 38843, Note_on_c, 0, 67, 80
2, 38886, Note_on_c, 0, 60, 0
2, 38886, Note_on_c, 0, 63, 0
2, 38886, Note_on_c, 0, 57, 0
2, 38898, Note_on_c, 0, 41, 80
2, 38898, Note_on_c, 0, 53, 80
2, 39000, Note_on_c, 0, 41, 0
2, 39005, Note_on_c, 0, 67, 0
2, 39005, Note_on_c, 0, 75, 0
2, 39007, Note_on_c, 0, 53, 0
2, 39025, Note_on_c, 0, 60, 80
2, 39030, Note_on_c, 0, 57, 80
2, 39030, Note_on_c, 0, 63, 80
2, 39030, Note_on_c, 0, 65, 80
2, 39030, Note_on_c, 0, 69, 80
2, 39030, Note_on_c, 0, 77, 80
2, 39035, Note_on_c, 0, 72, 80
2, 39136, Note_on_c, 0, 65, 0
2, 39138, Note_on_c, 0, 69, 0
2, 39140, Note_on_c, 0, 77, 0
2, 39144, Note_on_c, 0, 63, 0
2, 39144, Note_on_c, 0, 57, 0
2, 39151, Note_on_c, 0, 60, 0
2, 39163, Note_on_c, 0, 70, 80
2, 39165, Note_on_c, 0, 50, 80
2, 39165, Note_on_c, 0, 62, 80
2, 39192, Note_on_c, 0, 72, 0
2, 39213, Note_on_c, 0, 70, 0
2, 39213, Note_on_c, 0, 72, 80
2, 39251, Note_on_c, 0, 70, 80
2, 39253, Note_on_c, 0, 72, 0
2, 39269, Note_on_c, 0, 50, 0
2, 39288, Note_on_c, 0, 58, 80
2, 39288, Note_on_c, 0, 65, 80
2, 39297, Note_on_c, 0, 69, 80
2, 39299, Note_on_c, 0, 70, 0
2, 39336, Note_on_c, 0, 69, 0
2, 39363, Note_on_c, 0, 70, 80
2, 39405, Note_on_c, 0, 65, 0
2, 39407, Note_on_c, 0, 62, 0
2, 39407, Note_on_c, 0, 58, 0
2, 39411, Note_on_c, 0, 70, 0
2, 39430, Note_on_c, 0, 49, 80
2, 39430, Note_on_c, 0, 61, 80
2, 39436, Note_on_c, 0, 72, 80
2, 39478, Note_on_c, 0, 72, 0
2, 39498, Note_on_c, 0, 67, 80
2, 39500, Note_on_c, 0, 79, 80
2, 39529, Note_on_c, 0, 61, 0
2, 39534, Note_on_c, 0, 49, 0
2, 39552, Note_on_c, 0, 55, 80
2, 39557, Note_on_c, 0, 58, 80
2, 39557, Note_on_c, 0, 61, 80
2, 39557, Note_on_c, 0, 64, 80
2, 39594, Note_on_c, 0, 79, 0
2, 39596, Note_on_c, 0, 67, 0
2, 39627, Note_on_c, 0, 77, 80
2, 39655, Note_on_c, 0, 58, 0
2, 39660, Note_on_c, 0, 61, 0
2, 39665, Note_on_c, 0, 77, 0
2, 39667, Note_on_c, 0, 55, 0
2, 39669, Note_on_c, 0, 64, 0
2, 39685, Note_on_c, 0, 48, 80
2, 39685, Note_on_c, 0, 60, 80
2, 39690, Note_on_c, 0, 69, 80
2, 39692, Note_on_c, 0, 75, 80
2, 39692, Note_on_c, 0, 79, 80
2, 39786, Note_on_c, 0, 48, 0
2, 39809, Note_on_c, 0, 57, 80
2, 39818, Note_on_c, 0, 63, 80
2, 39848, Note_on_c, 0, 75, 0
2, 39853, Note_on_c, 0, 79, 0
2, 39853, Note_on_c, 0, 69, 0
2, 39878, Note_on_c, 0, 69, 80
2, 39878, Note_on_c, 0, 72, 80
2, 39878, Note_on_c, 0, 75, 80
2, 39878, Note_on_c, 0, 77, 80
2, 39916, Note_on_c, 0, 60, 0
2, 39921, Note_on_c, 0, 57, 0
2, 39926, Note_on_c, 0, 63, 0
2, 39937, Note_on_c, 0, 41, 80
2, 39942, Note_on_c, 0, 53, 80
2, 39981, Note_on_c, 0, 75, 0
2, 39981, Note_on_c, 0, 77, 0
2, 39985, Note_on_c, 0, 72, 0
2, 40010, Note_on_c, 0, 79, 80
2, 40012, Note_on_c, 0, 75, 80
2, 40037, Note_on_c, 0, 41, 0
2, 40051, Note_on_c, 0, 53, 0
2, 40069, Note_on_c, 0, 60, 80
2, 40074, Note_on_c, 0, 57, 80
2, 40074, Note_on_c, 0, 63, 80
2, 40117, Note_on_c, 0, 69, 0
2, 40117, Note_on_c, 0, 75, 0
2, 40117, Note_on_c, 0, 79, 0
2, 40145, Note_on_c, 0, 82, 80
2, 40181, Note_on_c, 0, 82, 0
2, 40191, Note_on_c, 0, 57, 0
2, 40196, Note_on_c, 0, 63, 0
2, 40196, Note_on_c, 0, 60, 0
2, 40205, Note_on_c, 0, 46, 80
2, 40207, Note_on_c, 0, 58, 80
2, 40207, Note_on_c, 0, 74, 80
2, 40209, Note_on_c, 0, 86, 80
2, 40248, Note_on_c, 0, 86, 0
2, 40248, Note_on_c, 0, 74, 0
2, 40279, Note_on_c, 0, 82, 80
2, 40311, Note_on_c, 0, 46, 0
2, 40313, Note_on_c, 0, 82, 0
2, 40315, Note_on_c, 0, 58, 0
2, 40344, Note_on_c, 0, 53, 80
2, 40344, Note_on_c, 0, 58, 80
2, 40344, Note_on_c, 0, 62, 80
2, 40346, Note_on_c, 0, 77, 80
2, 40385, Note_on_c, 0, 77, 0
2, 40410, Note_on_c, 0, 74, 80
2, 40446, Note_on_c, 0, 58, 0
2, 40451, Note_on_c, 0, 53, 0
2, 40451, Note_on_c, 0, 62, 0
2, 40456, Note_on_c, 0, 74, 0
2, 40469, Note_on_c, 0, 57, 80
2, 40471, Note_on_c, 0, 45, 80
2, 40485, Note_on_c, 0, 72, 80
2, 40485, Note_on_c, 0, 84, 80
2, 40523, Note_on_c, 0, 84, 0
2, 40528, Note_on_c, 0, 72, 0
2, 40548, Note_on_c, 0, 82, 80
2, 40584, Note_on_c, 0, 45, 0
2, 40591, Note_on_c, 0, 82, 0
2, 40591, Note_on_c, 0, 57, 0
2, 40609, Note_on_c, 0, 58, 80
2, 40609, Note_on_c, 0, 62, 80
2, 40609, Note_on_c, 0, 77, 80
2, 40611, Note_on_c, 0, 53, 80
2, 40653, Note_on_c, 0, 77, 0
2, 40687, Note_on_c, 0, 72, 80
2, 40724, Note_on_c, 0, 58, 0
2, 40724, Note_on_c, 0, 62, 0
2, 40728, Note_on_c, 0, 72, 0
2, 40730, Note_on_c, 0, 53, 0
2, 40749, Note_on_c, 0, 43, 80
2, 40749, Note_on_c, 0, 55, 80
2, 40749, Note_on_c, 0, 70, 80
2, 40749, Note_on_c, 0, 82, 80
2, 40787, Note_on_c, 0, 82, 0
2, 40794, Note_on_c, 0, 70, 0
2, 40825, Note_on_c, 0, 79, 80
2, 40853, Note_on_c, 0, 43, 0
2, 40860, Note_on_c, 0, 55, 0
2, 40862, Note_on_c, 0, 79, 0
2, 40882, Note_on_c, 0, 58, 80
2, 40884, Note_on_c, 0, 55, 80
2, 40884, Note_on_c, 0, 62, 80
2, 40886, Note_on_c, 0, 74, 80
2, 40929, Note_on_c, 0, 74, 0
2, 40961, Note_on_c, 0, 79, 80
2, 40984, Note_on_c, 0, 62, 0
2, 40984, Note_on_c, 0, 58, 0
2, 40991, Note_on_c, 0, 55, 0
2, 40992, Note_on_c, 0, 79, 0
2, 41006, Note_on_c, 0, 41, 80
2, 41008, Note_on_c, 0, 53, 80
2, 41017, Note_on_c, 0, 69, 80
2, 41022, Note_on_c, 0, 81, 80
2, 41059, Note_on_c, 0, 81, 0
2, 41064, Note_on_c, 0, 69, 0
2, 41087, Note_on_c, 0, 79, 80
2, 41114, Note_on_c, 0, 41, 0
2, 41131, Note_on_c, 0, 79, 0
2, 41142, Note_on_c, 0, 58, 80
2, 41144, Note_on_c, 0, 62, 80
2, 41144, Note_on_c, 0, 74, 80
2, 41192, Note_on_c, 0, 74, 0
2, 41210, Note_on_c, 0, 69, 80
2, 41245, Note_on_c, 0, 58, 0
2, 41250, Note_on_c, 0, 53, 0
2, 41250, Note_on_c, 0, 62, 0
2, 41259, Note_on_c, 0, 69, 0
2, 41276, Note_on_c, 0, 52, 80
2, 41278, Note_on_c, 0, 40, 80
2, 41342, Note_on_c, 0, 72, 80
2, 41372, Note_on_c, 0, 40, 0
2, 41378, Note_on_c, 0, 72, 0
2, 41380, Note_on_c, 0, 52, 0
2, 41399, Note_on_c, 0, 55, 80
2, 41399, Note_on_c, 0, 60, 80
2, 41403, Note_on_c, 0, 58, 80
2, 41403, Note_on_c, 0, 64, 80
2, 41405, Note_on_c, 0, 76, 80
2, 41444, Note_on_c, 0, 76, 0
2, 41472, Note_on_c, 0, 79, 80
2, 41506, Note_on_c, 0, 58, 0
2, 41508, Note_on_c, 0, 79, 0
2, 41513, Note_on_c, 0, 64, 0
2, 41520, Note_on_c, 0, 60, 0
2, 41526, Note_on_c, 0, 43, 80
2, 41531, Note_on_c, 0, 74, 80
2, 41547, Note_on_c, 0, 81, 80
2, 41570, Note_on_c, 0, 81, 0
2, 41580, Note_on_c, 0, 74, 0
2, 41603, Note_on_c, 0, 76, 80
2, 41638, Note_on_c, 0, 55, 0
2, 41640, Note_on_c, 0, 43, 0
2, 41641, Note_on_c, 0, 76, 0
2, 41655, Note_on_c, 0, 58, 80
2, 41655, Note_on_c, 0, 64, 80
2, 41657, Note_on_c, 0, 55, 80
2, 41657, Note_on_c, 0, 60, 80
2, 41664, Note_on_c, 0, 79, 80
2, 41702, Note_on_c, 0, 79, 0
2, 41734, Note_on_c, 0, 81, 80
2, 41765, Note_on_c, 0, 58, 0
2, 41770, Note_on_c, 0, 64, 0
2, 41770, Note_on_c, 0, 81, 0
2, 41770, Note_on_c, 0, 55, 0
2, 41790, Note_on_c, 0, 48, 80
2, 41795, Note_on_c, 0, 72, 80
2, 41838, Note_on_c, 0, 72, 0
2, 41873, Note_on_c, 0, 76, 80
2, 41901, Note_on_c, 0, 48, 0
2, 41907, Note_on_c, 0, 76, 0
2, 41926, Note_on_c, 0, 58, 80
2, 41928, Note_on_c, 0, 55, 80
2, 41929, Note_on_c, 0, 64, 80
2, 41939, Note_on_c, 0, 79, 80
2, 41977, Note_on_c, 0, 79, 0
2, 41998, Note_on_c, 0, 74, 80
2, 42002, Note_on_c, 0, 81, 80
2, 42034, Note_on_c, 0, 58, 0
2, 42039, Note_on_c, 0, 64, 0
2, 42039, Note_on_c, 0, 60, 0
2, 42041, Note_on_c, 0, 55, 0
2, 42057, Note_on_c, 0, 58, 80
2, 42059, Note_on_c, 0, 46, 80
2, 42102, Note_on_c, 0, 81, 0
2, 42114, Note_on_c, 0, 74, 0
2, 42134, Note_on_c, 0, 79, 80
2, 42159, Note_on_c, 0, 46, 0
2, 42161, Note_on_c, 0, 58, 0
2, 42174, Note_on_c, 0, 79, 0
2, 42186, Note_on_c, 0, 55, 80
2, 42186, Note_on_c, 0, 58, 80
2, 42186, Note_on_c, 0, 60, 80
2, 42191, Note_on_c, 0, 64, 80
2, 42192, Note_on_c, 0, 72, 80
2, 42194, Note_on_c, 0, 81, 80
2, 42284, Note_on_c, 0, 58, 0
2, 42293, Note_on_c, 0, 60, 0
2, 42293, Note_on_c, 0, 72, 0
2, 42293, Note_on_c, 0, 81, 0
2, 42298, Note_on_c, 0, 64, 0
2, 42300, Note_on_c, 0, 55, 0
2, 42318, Note_on_c, 0, 57, 80
2, 42320, Note_on_c, 0, 45, 80
2, 42375, Note_on_c, 0, 70, 80
2, 42418, Note_on_c, 0, 45, 0
2, 42425, Note_on_c, 0, 70, 0
2, 42438, Note_on_c, 0, 63, 80
2, 42440, Note_on_c, 0, 60, 80
2, 42442, Note_on_c, 0, 75, 80
2, 42479, Note_on_c, 0, 75, 0
2, 42517, Note_on_c, 0, 77, 80
2, 42547, Note_on_c, 0, 60, 0
2, 42553, Note_on_c, 0, 57, 0
2, 42555, Note_on_c, 0, 63, 0
2, 42555, Note_on_c, 0, 77, 0
2, 42572, Note_on_c, 0, 53, 80
2, 42574, Note_on_c, 0, 41, 80
2, 42574, Note_on_c, 0, 74, 80
2, 42578, Note_on_c, 0, 79, 80
2, 42617, Note_on_c, 0, 79, 0
2, 42624, Note_on_c, 0, 74, 0
2, 42647, Note_on_c, 0, 77, 80
2, 42672, Note_on_c, 0, 41, 0
2, 42685, Note_on_c, 0, 53, 0
2, 42687, Note_on_c, 0, 77, 0
2, 42703, Note_on_c, 0, 57, 80
2, 42703, Note_on_c, 0, 60, 80
2, 42708, Note_on_c, 0, 63, 80
2, 42710, Note_on_c, 0, 72, 80
2, 42710, Note_on_c, 0, 79, 80
2, 42816, Note_on_c, 0, 79, 0
2, 42822, Note_on_c, 0, 57, 0
2, 42822, Note_on_c, 0, 72, 0
2, 42827, Note_on_c, 0, 63, 0
2, 42837, Note_on_c, 0, 65, 80
2, 42839, Note_on_c, 0, 48, 80
2, 42840, Note_on_c, 0, 77, 80
2, 42842, Note_on_c, 0, 72, 80
2, 42844, Note_on_c, 0, 69, 80
2, 42844, Note_on_c, 0, 75, 80
2, 42942, Note_on_c, 0, 75, 0
2, 42942, Note_on_c, 0, 48, 0
2, 42942, Note_on_c, 0, 77, 0
2, 42944, Note_on_c, 0, 65, 0
2, 42949, Note_on_c, 0, 72, 0
2, 42949, Note_on_c, 0, 69, 0
2, 42967, Note_on_c, 0, 57, 80
2, 42974, Note_on_c, 0, 63, 80
2, 43065, Note_on_c, 0, 69, 80
2, 43081, Note_on_c, 0, 57, 0
2, 43083, Note_on_c, 0, 70, 80
2, 43085, Note_on_c, 0, 60, 0
2, 43085, Note_on_c, 0, 63, 0
2, 43099, Note_on_c, 0, 72, 80
2, 43101, Note_on_c, 0, 41, 80
2, 43105, Note_on_c, 0, 53, 80
2, 43105, Note_on_c, 0, 74, 80
2, 43107, Note_on_c, 0, 69, 0
2, 43128, Note_on_c, 0, 70, 0
2, 43137, Note_on_c, 0, 72, 0
2, 43160, Note_on_c, 0, 74, 0
2, 43180, Note_on_c, 0, 72, 80
2, 43205, Note_on_c, 0, 41, 0
2, 43219, Note_on_c, 0, 53, 0
2, 43224, Note_on_c, 0, 72, 0
2, 43237, Note_on_c, 0, 57, 80
2, 43237, Note_on_c, 0, 60, 80
2, 43237, Note_on_c, 0, 63, 80
2, 43244, Note_on_c, 0, 69, 80
2, 43287, Note_on_c, 0, 69, 0
2, 43307, Note_on_c, 0, 65, 80
2, 43348, Note_on_c, 0, 65, 0
2, 43353, Note_on_c, 0, 60, 0
2, 43353, Note_on_c, 0, 57, 0
2, 43358, Note_on_c, 0, 63, 0
2, 43378, Note_on_c, 0, 50, 80
2, 43378, Note_on_c, 0, 62, 80
2, 43378, Note_on_c, 0, 70, 80
2, 43419, Note_on_c, 0, 70, 0
2, 43444, Note_on_c, 0, 72, 80
2, 43481, Note_on_c, 0, 62, 0
2, 43481, Note_on_c, 0, 50, 0
2, 43483, Note_on_c, 0, 72, 0
2, 43506, Note_on_c, 0, 74, 80
2, 43508, Note_on_c, 0, 61, 80
2, 43517, Note_on_c, 0, 49, 80
2, 43556, Note_on_c, 0, 74, 0
2, 43579, Note_on_c, 0, 63, 80
2, 43585, Note_on_c, 0, 69, 80
2, 43613, Note_on_c, 0, 49, 0
2, 43618, Note_on_c, 0, 61, 0
2, 43620, Note_on_c, 0, 69, 0
2, 43622, Note_on_c, 0, 63, 0
2, 43635, Note_on_c, 0, 60, 80
2, 43640, Note_on_c, 0, 48, 80
2, 43647, Note_on_c, 0, 67, 80
2, 43685, Note_on_c, 0, 67, 0
2, 43708, Note_on_c, 0, 65, 80
2, 43745, Note_on_c, 0, 48, 0
2, 43750, Note_on_c, 0, 65, 0
2, 43754, Note_on_c, 0, 60, 0
2, 43766, Note_on_c, 0, 53, 80
2, 43768, Note_on_c, 0, 41, 80
2, 43781, Note_on_c, 0, 67, 80
2, 43809, Note_on_c, 0, 67, 0
2, 43841, Note_on_c, 0, 74, 80
2, 43869, Note_on_c, 0, 41, 0
2, 43882, Note_on_c, 0, 53, 0
2, 43889, Note_on_c, 0, 74, 0
2, 43902, Note_on_c, 0, 62, 80
2, 43904, Note_on_c, 0, 53, 80
2, 43906, Note_on_c, 0, 70, 80
2, 44009, Note_on_c, 0, 62, 0
2, 44014, Note_on_c, 0, 70, 0
2, 44034, Note_on_c, 0, 63, 80
2, 44036, Note_on_c, 0, 67, 80
2, 44036, Note_on_c, 0, 74, 80
2, 44042, Note_on_c, 0, 79, 80
2, 44136, Note_on_c, 0, 79, 0
2, 44136, Note_on_c, 0, 67, 0
2, 44146, Note_on_c, 0, 63, 0
2, 44160, Note_on_c, 0, 62, 80
2, 44161, Note_on_c, 0, 70, 80
2, 44161, Note_on_c, 0, 77, 80
2, 44161, Note_on_c, 0, 82, 80
2, 44267, Note_on_c, 0, 62, 0
2, 44269, Note_on_c, 0, 70, 0
2, 44269, Note_on_c, 0, 82, 0
2, 44274, Note_on_c, 0, 77, 0
2, 44276, Note_on_c, 0, 53, 0
2, 44280, Note_on_c, 0, 74, 0
2, 44431, Note_on_c, 0, 34, 80
2, 44433, Note_on_c, 0, 46, 80
2, 44433, Note_on_c, 0, 68, 80
2, 44438, Note_on_c, 0, 62, 80
2, 44440, Note_on_c, 0, 70, 80
2, 44534, Note_on_c, 0, 46, 0
2, 44539, Note_on_c, 0, 62, 0
2, 44541, Note_on_c, 0, 34, 0
2, 44543, Note_on_c, 0, 68, 0
2, 44566, Note_on_c, 0, 34, 80
2, 44566, Note_on_c, 0, 46, 80
2, 44566, Note_on_c, 0, 62, 80
2, 44577, Note_on_c, 0, 68, 80
2, 44794, Note_on_c, 0, 34, 0
2, 44796, Note_on_c, 0, 46, 0
2, 44801, Note_on_c, 0, 62, 0
2, 44810, Note_on_c, 0, 68, 0
2, 44810, Note_on_c, 0, 70, 0
2, 44829, Note_on_c, 0, 47, 80
2, 44831, Note_on_c, 0, 35, 80
2, 44831, Note_on_c, 0, 59, 80
2, 44835, Note_on_c, 0, 71, 80
2, 44927, Note_on_c, 0, 35, 0
2, 44927, Note_on_c, 0, 47, 0
2, 44933, Note_on_c, 0, 71, 0
2, 44940, Note_on_c, 0, 59, 0
2, 44953, Note_on_c, 0, 48, 80
2, 44958, Note_on_c, 0, 36, 80
2, 44958, Note_on_c, 0, 60, 80
2, 44965, Note_on_c, 0, 72, 80
2, 44967, Note_on_c, 0, 68, 80
2, 45058, Note_on_c, 0, 36, 0
2, 45060, Note_on_c, 0, 48, 0
2, 45070, Note_on_c, 0, 72, 0
2, 45074, Note_on_c, 0, 68, 0
2, 45084, Note_on_c, 0, 36, 80
2, 45089, Note_on_c, 0, 48, 80
2, 45096, Note_on_c, 0, 72, 80
2, 45100, Note_on_c, 0, 68, 80
2, 45320, Note_on_c, 0, 36, 0
2, 45332, Note_on_c, 0, 48, 0
2, 45338, Note_on_c, 0, 60, 0
2, 45338, Note_on_c, 0, 72, 0
2, 45338, Note_on_c, 0, 68, 0
2, 45355, Note_on_c, 0, 61, 80
2, 45360, Note_on_c, 0, 37, 80
2, 45360, Note_on_c, 0, 49, 80
2, 45360, Note_on_c, 0, 68, 80
2, 45360, Note_on_c, 0, 73, 80
2, 45361, Note_on_c, 0, 65, 80
2, 45451, Note_on_c, 0, 37, 0
2, 45453, Note_on_c, 0, 49, 0
2, 45457, Note_on_c, 0, 61, 0
2, 45457, Note_on_c, 0, 65, 0
2, 45462, Note_on_c, 0, 68, 0
2, 45462, Note_on_c, 0, 73, 0
2, 45480, Note_on_c, 0, 65, 80
2, 45485, Note_on_c, 0, 74, 80
2, 45487, Note_on_c, 0, 38, 80
2, 45487, Note_on_c, 0, 50, 80
2, 45487, Note_on_c, 0, 62, 80
2, 45494, Note_on_c, 0, 68, 80
2, 45590, Note_on_c, 0, 38, 0
2, 45592, Note_on_c, 0, 62, 0
2, 45592, Note_on_c, 0, 50, 0
2, 45592, Note_on_c, 0, 65, 0
2, 45594, Note_on_c, 0, 68, 0
2, 45600, Note_on_c, 0, 74, 0
2, 45610, Note_on_c, 0, 51, 80
2, 45620, Note_on_c, 0, 63, 80
2, 45622, Note_on_c, 0, 39, 80
2, 45624, Note_on_c, 0, 75, 80
2, 45720, Note_on_c, 0, 39, 0
2, 45724, Note_on_c, 0, 75, 0
2, 45731, Note_on_c, 0, 51, 0
2, 45736, Note_on_c, 0, 63, 0
2, 45749, Note_on_c, 0, 40, 80
2, 45749, Note_on_c, 0, 64, 80
2, 45751, Note_on_c, 0, 52, 80
2, 45758, Note_on_c, 0, 76, 80
2, 45854, Note_on_c, 0, 40, 0
2, 45859, Note_on_c, 0, 52, 0
2, 45868, Note_on_c, 0, 64, 0
2, 45868, Note_on_c, 0, 76, 0
2, 45888, Note_on_c, 0, 41, 80
2, 45888, Note_on_c, 0, 53, 80
2, 45893, Note_on_c, 0, 65, 80
2, 45893, Note_on_c, 0, 77, 80
2, 45989, Note_on_c, 0, 41, 0
2, 46001, Note_on_c, 0, 77, 0
2, 46001, Note_on_c, 0, 65, 0
2, 46024, Note_on_c, 0, 56, 80
2, 46024, Note_on_c, 0, 74, 80
2, 46026, Note_on_c, 0, 46, 80
2, 46026, Note_on_c, 0, 70, 80
2, 46026, Note_on_c, 0, 77, 80
2, 46031, Note_on_c, 0, 82, 80
2, 46122, Note_on_c, 0, 46, 0
2, 46131, Note_on_c, 0, 82, 0
2, 46133, Note_on_c, 0, 70, 0
2, 46133, Note_on_c, 0, 56, 0
2, 46138, Note_on_c, 0, 74, 0
2, 46138, Note_on_c, 0, 77, 0
2, 46140, Note_on_c, 0, 53, 0
2, 46286, Note_on_c, 0, 56, 80
2, 46288, Note_on_c, 0, 46, 80
2, 46290, Note_on_c, 0, 53, 80
2, 46290, Note_on_c, 0, 62, 80
2, 46290, Note_on_c, 0, 70, 80
2, 46295, Note_on_c, 0, 65, 80
2, 46295, Note_on_c, 0, 68, 80
2, 46384, Note_on_c, 0, 46, 0
2, 46391, Note_on_c, 0, 62, 0
2, 46391, Note_on_c, 0, 53, 0
2, 46391, Note_on_c, 0, 65, 0
2, 46395, Note_on_c, 0, 56, 0
2, 46395, Note_on_c, 0, 68, 0
2, 46400, Note_on_c, 0, 70, 0
2, 46551, Note_on_c, 0, 55, 80
2, 46553, Note_on_c, 0, 70, 80
2, 46555, Note_on_c, 0, 46, 80
2, 46555, Note_on_c, 0, 63, 80
2, 46555, Note_on_c, 0, 75, 80
2, 46560, Note_on_c, 0, 67, 80
2, 46660, Note_on_c, 0, 67, 0
2, 46662, Note_on_c, 0, 75, 0
2, 46664, Note_on_c, 0, 63, 0
2, 46669, Note_on_c, 0, 70, 0
2, 46685, Note_on_c, 0, 60, 80
2, 46687, Note_on_c, 0, 72, 80
2, 46785, Note_on_c, 0, 46, 0
2, 46795, Note_on_c, 0, 55, 0
2, 46818, Note_on_c, 0, 54, 80
2, 46820, Note_on_c, 0, 45, 80
2, 46932, Note_on_c, 0, 60, 0
2, 46934, Note_on_c, 0, 72, 0
2, 46957, Note_on_c, 0, 73, 80
2, 46959, Note_on_c, 0, 61, 80
2, 47057, Note_on_c, 0, 54, 0
2, 47057, Note_on_c, 0, 45, 0
2, 47062, Note_on_c, 0, 61, 0
2, 47066, Note_on_c, 0, 73, 0
2, 47091, Note_on_c, 0, 53, 80
2, 47093, Note_on_c, 0, 44, 80
2, 47093, Note_on_c, 0, 74, 80
2, 47095, Note_on_c, 0, 62, 80
2, 47132, Note_on_c, 0, 62, 0
2, 47136, Note_on_c, 0, 74, 0
2, 47155, Note_on_c, 0, 77, 80
2, 47161, Note_on_c, 0, 65, 80
2, 47262, Note_on_c, 0, 65, 0
2, 47264, Note_on_c, 0, 77, 0
2, 47284, Note_on_c, 0, 62, 80
2, 47289, Note_on_c, 0, 74, 80
2, 47326, Note_on_c, 0, 44, 0
2, 47332, Note_on_c, 0, 62, 0
2, 47337, Note_on_c, 0, 74, 0
2, 47339, Note_on_c, 0, 53, 0
2, 47351, Note_on_c, 0, 56, 80
2, 47351, Note_on_c, 0, 60, 80
2, 47352, Note_on_c, 0, 46, 80
2, 47352, Note_on_c, 0, 72, 80
2, 47465, Note_on_c, 0, 72, 0
2, 47467, Note_on_c, 0, 60, 0
2, 47485, Note_on_c, 0, 70, 80
2, 47487, Note_on_c, 0, 58, 80
2, 47581, Note_on_c, 0, 46, 0
2, 47592, Note_on_c, 0, 58, 0
2, 47594, Note_on_c, 0, 70, 0
2, 47594, Note_on_c, 0, 56, 0
2, 47615, Note_on_c, 0, 55, 80
2, 47616, Note_on_c, 0, 46, 80
2, 47616, Note_on_c, 0, 70, 80
2, 47618, Note_on_c, 0, 63, 80
2, 47618, Note_on_c, 0, 75, 80
2, 47623, Note_on_c, 0, 67, 80
2, 47719, Note_on_c, 0, 75, 0
2, 47721, Note_on_c, 0, 67, 0
2, 47731, Note_on_c, 0, 63, 0
2, 47736, Note_on_c, 0, 70, 0
2, 47752, Note_on_c, 0, 60, 80
2, 47754, Note_on_c, 0, 72, 80
2, 47850, Note_on_c, 0, 46, 0
2, 47859, Note_on_c, 0, 55, 0
2, 47878, Note_on_c, 0, 45, 80
2, 47878, Note_on_c, 0, 54, 80
2, 47985, Note_on_c, 0, 60, 0
2, 47987, Note_on_c, 0, 72, 0
2, 48005, Note_on_c, 0, 61, 80
2, 48007, Note_on_c, 0, 73, 80
2, 48103, Note_on_c, 0, 54, 0
2, 48105, Note_on_c, 0, 45, 0
2, 48107, Note_on_c, 0, 61, 0
2, 48112, Note_on_c, 0, 73, 0
2, 48128, Note_on_c, 0, 44, 80
2, 48133, Note_on_c, 0, 53, 80
2, 48140, Note_on_c, 0, 62, 80
2, 48142, Note_on_c, 0, 74, 80
2, 48173, Note_on_c, 0, 62, 0
2, 48178, Note_on_c, 0, 74, 0
2, 48194, Note_on_c, 0, 65, 80
2, 48199, Note_on_c, 0, 77, 80
2, 48307, Note_on_c, 0, 77, 0
2, 48309, Note_on_c, 0, 65, 0
2, 48332, Note_on_c, 0, 62, 80
2, 48334, Note_on_c, 0, 74, 80
2, 48368, Note_on_c, 0, 44, 0
2, 48373, Note_on_c, 0, 53, 0
2, 48378, Note_on_c, 0, 62, 0
2, 48384, Note_on_c, 0, 74, 0
2, 48391, Note_on_c, 0, 46, 80
2, 48396, Note_on_c, 0, 56, 80
2, 48396, Note_on_c, 0, 60, 80
2, 48403, Note_on_c, 0, 72, 80
2, 48512, Note_on_c, 0, 60, 0
2, 48517, Note_on_c, 0, 72, 0
2, 48533, Note_on_c, 0, 63, 80
2, 48538, Note_on_c, 0, 70, 80
2, 48632, Note_on_c, 0, 46, 0
2, 48642, Note_on_c, 0, 56, 0
2, 48662, Note_on_c, 0, 46, 80
2, 48662, Note_on_c, 0, 55, 80
2, 48783, Note_on_c, 0, 70, 0
2, 48790, Note_on_c, 0, 63, 0
2, 48803, Note_on_c, 0, 60, 80
2, 48904, Note_on_c, 0, 46, 0
2, 48915, Note_on_c, 0, 55, 0
2, 48936, Note_on_c, 0, 49, 80
2, 48936, Note_on_c, 0, 58, 80
2, 49048, Note_on_c, 0, 60, 0
2, 49068, Note_on_c, 0, 61, 80
2, 49177, Note_on_c, 0, 61, 0
2, 49177, Note_on_c, 0, 58, 0
2, 49177, Note_on_c, 0, 49, 0
2, 49198, Note_on_c, 0, 50, 80
2, 49200, Note_on_c, 0, 62, 80
2, 49206, Note_on_c, 0, 59, 80
2, 49312, Note_on_c, 0, 62, 0
2, 49342, Note_on_c, 0, 62, 80
2, 49346, Note_on_c, 0, 71, 80
2, 49454, Note_on_c, 0, 59, 0
2, 49474, Note_on_c, 0, 38, 80
2, 49580, Note_on_c, 0, 71, 0
2, 49616, Note_on_c, 0, 67, 80
2, 49705, Note_on_c, 0, 38, 0
2, 49717, Note_on_c, 0, 67, 0
2, 49717, Note_on_c, 0, 62, 0
2, 49719, Note_on_c, 0, 50, 0
2, 49735, Note_on_c, 0, 60, 80
2, 49737, Note_on_c, 0, 45, 80
2, 49739, Note_on_c, 0, 62, 80
2, 49741, Note_on_c, 0, 54, 80
2, 49847, Note_on_c, 0, 62, 0
2, 49876, Note_on_c, 0, 66, 80
2, 49876, Note_on_c, 0, 69, 80
2, 49972, Note_on_c, 0, 54, 0
2, 49974, Note_on_c, 0, 45, 0
2, 49997, Note_on_c, 0, 38, 80
2, 50002, Note_on_c, 0, 50, 80
2, 50112, Note_on_c, 0, 60, 0
2, 50112, Note_on_c, 0, 66, 0
2, 50113, Note_on_c, 0, 69, 0
2, 50132, Note_on_c, 0, 60, 80
2, 50134, Note_on_c, 0, 66, 80
2, 50134, Note_on_c, 0, 69, 80
2, 50230, Note_on_c, 0, 38, 0
2, 50241, Note_on_c, 0, 66, 0
2, 50243, Note_on_c, 0, 50, 0
2, 50245, Note_on_c, 0, 60, 0
2, 50250, Note_on_c, 0, 69, 0
2, 50259, Note_on_c, 0, 55, 80
2, 50261, Note_on_c, 0, 43, 80
2, 50261, Note_on_c, 0, 71, 80
2, 50263, Note_on_c, 0, 62, 80
2, 50268, Note_on_c, 0, 67, 80
2, 50304, Note_on_c, 0, 62, 0
2, 50304, Note_on_c, 0, 71, 0
2, 50306, Note_on_c, 0, 67, 0
2, 50334, Note_on_c, 0, 69, 80
2, 50371, Note_on_c, 0, 69, 0
2, 50391, Note_on_c, 0, 62, 80
2, 50400, Note_on_c, 0, 67, 80
2, 50400, Note_on_c, 0, 71, 80
2, 50498, Note_on_c, 0, 43, 0
2, 50500, Note_on_c, 0, 55, 0
2, 50520, Note_on_c, 0, 41, 80
2, 50522, Note_on_c, 0, 53, 80
2, 50623, Note_on_c, 0, 67, 0
2, 50623, Note_on_c, 0, 71, 0
2, 50648, Note_on_c, 0, 65, 80
2, 50650, Note_on_c, 0, 68, 80
2, 50650, Note_on_c, 0, 70, 80
2, 50741, Note_on_c, 0, 41, 0
2, 50748, Note_on_c, 0, 53, 0
2, 50753, Note_on_c, 0, 68, 0
2, 50753, Note_on_c, 0, 65, 0
2, 50753, Note_on_c, 0, 62, 0
2, 50758, Note_on_c, 0, 70, 0
2, 50778, Note_on_c, 0, 55, 80
2, 50780, Note_on_c, 0, 63, 80
2, 50780, Note_on_c, 0, 70, 80
2, 50786, Note_on_c, 0, 67, 80
2, 50786, Note_on_c, 0, 75, 80
2, 50788, Note_on_c, 0, 46, 80
2, 50889, Note_on_c, 0, 75, 0
2, 50889, Note_on_c, 0, 67, 0
2, 50889, Note_on_c, 0, 70, 0
2, 50901, Note_on_c, 0, 63, 0
2, 50910, Note_on_c, 0, 60, 80
2, 50920, Note_on_c, 0, 72, 80
2, 51016, Note_on_c, 0, 46, 0
2, 51029, Note_on_c, 0, 55, 0
2, 51049, Note_on_c, 0, 45, 80
2, 51051, Note_on_c, 0, 54, 80
2, 51161, Note_on_c, 0, 60, 0
2, 51161, Note_on_c, 0, 72, 0
2, 51181, Note_on_c, 0, 61, 80
2, 51183, Note_on_c, 0, 73, 80
2, 51284, Note_on_c, 0, 54, 0
2, 51286, Note_on_c, 0, 45, 0
2, 51288, Note_on_c, 0, 61, 0
2, 51288, Note_on_c, 0, 73, 0
2, 51306, Note_on_c, 0, 62, 80
2, 51308, Note_on_c, 0, 53, 80
2, 51314, Note_on_c, 0, 44, 80
2, 51319, Note_on_c, 0, 74, 80
2, 51354, Note_on_c, 0, 62, 0
2, 51359, Note_on_c, 0, 74, 0
2, 51379, Note_on_c, 0, 65, 80
2, 51388, Note_on_c, 0, 77, 80
2, 51491, Note_on_c, 0, 77, 0
2, 51491, Note_on_c, 0, 65, 0
2, 51516, Note_on_c, 0, 62, 80
2, 51518, Note_on_c, 0, 74, 80
2, 51550, Note_on_c, 0, 44, 0
2, 51559, Note_on_c, 0, 53, 0
2, 51559, Note_on_c, 0, 62, 0
2, 51564, Note_on_c, 0, 74, 0
2, 51582, Note_on_c, 0, 56, 80
2, 51582, Note_on_c, 0, 60, 80
2, 51587, Note_on_c, 0, 46, 80
2, 51587, Note_on_c, 0, 72, 80
2, 51695, Note_on_c, 0, 72, 0
2, 51695, Note_on_c, 0, 60, 0
2, 51713, Note_on_c, 0, 58, 80
2, 51722, Note_on_c, 0, 70, 80
2, 51820, Note_on_c, 0, 58, 0
2, 51820, Note_on_c, 0, 46, 0
2, 51830, Note_on_c, 0, 56, 0
2, 51850, Note_on_c, 0, 55, 80
2, 51852, Note_on_c, 0, 46, 80
2, 51852, Note_on_c, 0, 67, 80
2, 51854, Note_on_c, 0, 63, 80
2, 51859, Note_on_c, 0, 75, 80
2, 51960, Note_on_c, 0, 67, 0
2, 51964, Note_on_c, 0, 70, 0
2, 51964, Note_on_c, 0, 75, 0
2, 51971, Note_on_c, 0, 63, 0
2, 51987, Note_on_c, 0, 60, 80
2, 51987, Note_on_c, 0, 72, 80
2, 52095, Note_on_c, 0, 46, 0
2, 52104, Note_on_c, 0, 55, 0
2, 52116, Note_on_c, 0, 45, 80
2, 52118, Note_on_c, 0, 54, 80
2, 52227, Note_on_c, 0, 60, 0
2, 52232, Note_on_c, 0, 72, 0
2, 52252, Note_on_c, 0, 61, 80
2, 52254, Note_on_c, 0, 73, 80
2, 52350, Note_on_c, 0, 45, 0
2, 52350, Note_on_c, 0, 54, 0
2, 52355, Note_on_c, 0, 61, 0
2, 52365, Note_on_c, 0, 73, 0
2, 52381, Note_on_c, 0, 44, 80
2, 52381, Note_on_c, 0, 53, 80
2, 52386, Note_on_c, 0, 62, 80
2, 52388, Note_on_c, 0, 74, 80
2, 52424, Note_on_c, 0, 62, 0
2, 52434, Note_on_c, 0, 74, 0
2, 52450, Note_on_c, 0, 65, 80
2, 52457, Note_on_c, 0, 77, 80
2, 52562, Note_on_c, 0, 77, 0
2, 52564, Note_on_c, 0, 65, 0
2, 52583, Note_on_c, 0, 62, 80
2, 52587, Note_on_c, 0, 74, 80
2, 52622, Note_on_c, 0, 44, 0
2, 52624, Note_on_c, 0, 62, 0
2, 52626, Note_on_c, 0, 53, 0
2, 52632, Note_on_c, 0, 74, 0
2, 52649, Note_on_c, 0, 46, 80
2, 52649, Note_on_c, 0, 56, 80
2, 52649, Note_on_c, 0, 60, 80
2, 52651, Note_on_c, 0, 72, 80
2, 52756, Note_on_c, 0, 72, 0
2, 52761, Note_on_c, 0, 60, 0
2, 52777, Note_on_c, 0, 58, 80
2, 52782, Note_on_c, 0, 70, 80
2, 52883, Note_on_c, 0, 58, 0
2, 52883, Note_on_c, 0, 46, 0
2, 52888, Note_on_c, 0, 56, 0
2, 52897, Note_on_c, 0, 70, 0
2, 52911, Note_on_c, 0, 55, 80
2, 52913, Note_on_c, 0, 44, 80
2, 52915, Note_on_c, 0, 63, 80
2, 53047, Note_on_c, 0, 70, 80
2, 53148, Note_on_c, 0, 44, 0
2, 53155, Note_on_c, 0, 55, 0
2, 53166, Note_on_c, 0, 51, 80
2, 53176, Note_on_c, 0, 61, 80
2, 53292, Note_on_c, 0, 63, 0
2, 53360, Note_on_c, 0, 70, 0
2, 53380, Note_on_c, 0, 72, 80
2, 53417, Note_on_c, 0, 51, 0
2, 53417, Note_on_c, 0, 61, 0
2, 53426, Note_on_c, 0, 72, 0
2, 53438, Note_on_c, 0, 51, 80
2, 53440, Note_on_c, 0, 60, 80
2, 53445, Note_on_c, 0, 70, 80
2, 53559, Note_on_c, 0, 70, 0
2, 53587, Note_on_c, 0, 68, 80
2, 53689, Note_on_c, 0, 68, 0
2, 53691, Note_on_c, 0, 60, 0
2, 53712, Note_on_c, 0, 59, 80
2, 53718, Note_on_c, 0, 63, 80
2, 53828, Note_on_c, 0, 63, 0
2, 53846, Note_on_c, 0, 65, 80
2, 53949, Note_on_c, 0, 51, 0
2, 53953, Note_on_c, 0, 65, 0
2, 53953, Note_on_c, 0, 59, 0
2, 53972, Note_on_c, 0, 46, 80
2, 53976, Note_on_c, 0, 58, 80
2, 53976, Note_on_c, 0, 63, 80
2, 53976, Note_on_c, 0, 67, 80
2, 54074, Note_on_c, 0, 67, 0
2, 54088, Note_on_c, 0, 63, 0
2, 54111, Note_on_c, 0, 66, 80
2, 54145, Note_on_c, 0, 66, 0
2, 54170, Note_on_c, 0, 60, 80
2, 54177, Note_on_c, 0, 67, 80
2, 54207, Note_on_c, 0, 46, 0
2, 54212, Note_on_c, 0, 58, 0
2, 54235, Note_on_c, 0, 57, 80
2, 54237, Note_on_c, 0, 48, 80
2, 54344, Note_on_c, 0, 48, 0
2, 54349, Note_on_c, 0, 67, 0
2, 54349, Note_on_c, 0, 60, 0
2, 54349, Note_on_c, 0, 57, 0
2, 54374, Note_on_c, 0, 46, 80
2, 54374, Note_on_c, 0, 56, 80
2, 54376, Note_on_c, 0, 62, 80
2, 54414, Note_on_c, 0, 62, 0
2, 54442, Note_on_c, 0, 65, 80
2, 54474, Note_on_c, 0, 46, 0
2, 54480, Note_on_c, 0, 56, 0
2, 54485, Note_on_c, 0, 65, 0
2, 54502, Note_on_c, 0, 55, 80
2, 54504, Note_on_c, 0, 46, 80
2, 54504, Note_on_c, 0, 63, 80
2, 54505, Note_on_c, 0, 58, 80
2, 54611, Note_on_c, 0, 46, 0
2, 54616, Note_on_c, 0, 58, 0
2, 54621, Note_on_c, 0, 55, 0
2, 54625, Note_on_c, 0, 63, 0
2, 54771, Note_on_c, 0, 39, 80
2, 54771, Note_on_c, 0, 51, 80
2, 54771, Note_on_c, 0, 63, 80
2, 54773, Note_on_c, 0, 55, 80
2, 54775, Note_on_c, 0, 58, 80
2, 54869, Note_on_c, 0, 39, 0
2, 54879, Note_on_c, 0, 58, 0
2, 54884, Note_on_c, 0, 51, 0
2, 54884, Note_on_c, 0, 55, 0
2, 54893, Note_on_c, 0, 63, 0
2, 55024, Note_on_c, 0, 63, 80
2, 55026, Note_on_c, 0, 46, 80
2, 55026, Note_on_c, 0, 55, 80
2, 55026, Note_on_c, 0, 70, 80
2, 55028, Note_on_c, 0, 75, 80
2, 55032, Note_on_c, 0, 67, 80
2, 55130, Note_on_c, 0, 67, 0
2, 55135, Note_on_c, 0, 75, 0
2, 55137, Note_on_c, 0, 70, 0
2, 55142, Note_on_c, 0, 63, 0
2, 55155, Note_on_c, 0, 60, 80
2, 55162, Note_on_c, 0, 72, 80
2, 55256, Note_on_c, 0, 46, 0
2, 55270, Note_on_c, 0, 55, 0
2, 55283, Note_on_c, 0, 45, 80
2, 55295, Note_on_c, 0, 54, 80
2, 55395, Note_on_c, 0, 72, 0
2, 55397, Note_on_c, 0, 60, 0
2, 55417, Note_on_c, 0, 73, 80
2, 55419, Note_on_c, 0, 61, 80
2, 55513, Note_on_c, 0, 45, 0
2, 55515, Note_on_c, 0, 54, 0
2, 55520, Note_on_c, 0, 61, 0
2, 55525, Note_on_c, 0, 73, 0
2, 55545, Note_on_c, 0, 44, 80
2, 55545, Note_on_c, 0, 53, 80
2, 55547, Note_on_c, 0, 62, 80
2, 55547, Note_on_c, 0, 74, 80
2, 55588, Note_on_c, 0, 62, 0
2, 55598, Note_on_c, 0, 74, 0
2, 55616, Note_on_c, 0, 65, 80
2, 55621, Note_on_c, 0, 77, 80
2, 55727, Note_on_c, 0, 65, 0
2, 55728, Note_on_c, 0, 77, 0
2, 55749, Note_on_c, 0, 74, 80
2, 55753, Note_on_c, 0, 62, 80
2, 55788, Note_on_c, 0, 44, 0
2, 55793, Note_on_c, 0, 53, 0
2, 55793, Note_on_c, 0, 62, 0
2, 55802, Note_on_c, 0, 74, 0
2, 55819, Note_on_c, 0, 46, 80
2, 55819, Note_on_c, 0, 56, 80
2, 55824, Note_on_c, 0, 60, 80
2, 55830, Note_on_c, 0, 72, 80
2, 55936, Note_on_c, 0, 60, 0
2, 55941, Note_on_c, 0, 72, 0
2, 55966, Note_on_c, 0, 58, 80
2, 55968, Note_on_c, 0, 70, 80
2, 56054, Note_on_c, 0, 46, 0
2, 56065, Note_on_c, 0, 58, 0
2, 56067, Note_on_c, 0, 56, 0
2, 56088, Note_on_c, 0, 55, 80
2, 56088, Note_on_c, 0, 63, 80
2, 56089, Note_on_c, 0, 46, 80
2, 56091, Note_on_c, 0, 67, 80
2, 56096, Note_on_c, 0, 75, 80
2, 56190, Note_on_c, 0, 67, 0
2, 56195, Note_on_c, 0, 75, 0
2, 56197, Note_on_c, 0, 63, 0
2, 56199, Note_on_c, 0, 70, 0
2, 56222, Note_on_c, 0, 60, 80
2, 56222, Note_on_c, 0, 72, 80
2, 56320, Note_on_c, 0, 46, 0
2, 56327, Note_on_c, 0, 55, 0
2, 56347, Note_on_c, 0, 45, 80
2, 56349, Note_on_c, 0, 54, 80
2, 56456, Note_on_c, 0, 72, 0
2, 56463, Note_on_c, 0, 60, 0
2, 56474, Note_on_c, 0, 61, 80
2, 56484, Note_on_c, 0, 73, 80
2, 56578, Note_on_c, 0, 54, 0
2, 56580, Note_on_c, 0, 45, 0
2, 56582, Note_on_c, 0, 61, 0
2, 56587, Note_on_c, 0, 73, 0
2, 56603, Note_on_c, 0, 44, 80
2, 56608, Note_on_c, 0, 53, 80
2, 56608, Note_on_c, 0, 62, 80
2, 56615, Note_on_c, 0, 74, 80
2, 56644, Note_on_c, 0, 62, 0
2, 56658, Note_on_c, 0, 74, 0
2, 56671, Note_on_c, 0, 65, 80
2, 56676, Note_on_c, 0, 77, 80
2, 56782, Note_on_c, 0, 77, 0
2, 56782, Note_on_c, 0, 65, 0
2, 56809, Note_on_c, 0, 62, 80
2, 56814, Note_on_c, 0, 74, 80
2, 56846, Note_on_c, 0, 44, 0
2, 56848, Note_on_c, 0, 62, 0
2, 56850, Note_on_c, 0, 53, 0
2, 56859, Note_on_c, 0, 74, 0
2, 56869, Note_on_c, 0, 56, 80
2, 56874, Note_on_c, 0, 60, 80
2, 56876, Note_on_c, 0, 46, 80
2, 56880, Note_on_c, 0, 72, 80
2, 56983, Note_on_c, 0, 72, 0
2, 56990, Note_on_c, 0, 60, 0
2, 57010, Note_on_c, 0, 63, 80
2, 57010, Note_on_c, 0, 70, 80
2, 57116, Note_on_c, 0, 46, 0
2, 57120, Note_on_c, 0, 56, 0
2, 57144, Note_on_c, 0, 46, 80
2, 57144, Note_on_c, 0, 55, 80
2, 57260, Note_on_c, 0, 70, 0
2, 57264, Note_on_c, 0, 63, 0
2, 57281, Note_on_c, 0, 60, 80
2, 57382, Note_on_c, 0, 46, 0
2, 57388, Note_on_c, 0, 55, 0
2, 57408, Note_on_c, 0, 58, 80
2, 57410, Note_on_c, 0, 49, 80
2, 57520, Note_on_c, 0, 60, 0
2, 57545, Note_on_c, 0, 61, 80
2, 57650, Note_on_c, 0, 61, 0
2, 57650, Note_on_c, 0, 49, 0
2, 57650, Note_on_c, 0, 58, 0
2, 57675, Note_on_c, 0, 50, 80
2, 57675, Note_on_c, 0, 62, 80
2, 57680, Note_on_c, 0, 59, 80
2, 57788, Note_on_c, 0, 62, 0
2, 57811, Note_on_c, 0, 62, 80
2, 57817, Note_on_c, 0, 71, 80
2, 57920, Note_on_c, 0, 50, 0
2, 57927, Note_on_c, 0, 59, 0
2, 57940, Note_on_c, 0, 38, 80
2, 57940, Note_on_c, 0, 50, 80
2, 58048, Note_on_c, 0, 62, 0
2, 58048, Note_on_c, 0, 71, 0
2, 58071, Note_on_c, 0, 62, 80
2, 58076, Note_on_c, 0, 67, 80
2, 58174, Note_on_c, 0, 67, 0
2, 58174, Note_on_c, 0, 38, 0
2, 58176, Note_on_c, 0, 50, 0
2, 58180, Note_on_c, 0, 62, 0
2, 58197, Note_on_c, 0, 60, 80
2, 58201, Note_on_c, 0, 45, 80
2, 58201, Note_on_c, 0, 54, 80
2, 58201, Note_on_c, 0, 62, 80
2, 58314, Note_on_c, 0, 62, 0
2, 58314, Note_on_c, 0, 60, 0
2, 58334, Note_on_c, 0, 60, 80
2, 58334, Note_on_c, 0, 69, 80
2, 58339, Note_on_c, 0, 66, 80
2, 58441, Note_on_c, 0, 54, 0
2, 58441, Note_on_c, 0, 45, 0
2, 58462, Note_on_c, 0, 38, 80
2, 58468, Note_on_c, 0, 50, 80
2, 58576, Note_on_c, 0, 66, 0
2, 58578, Note_on_c, 0, 69, 0
2, 58603, Note_on_c, 0, 66, 80
2, 58603, Note_on_c, 0, 69, 80
2, 58708, Note_on_c, 0, 38, 0
2, 58710, Note_on_c, 0, 50, 0
2, 58715, Note_on_c, 0, 66, 0
2, 58717, Note_on_c, 0, 69, 0
2, 58719, Note_on_c, 0, 60, 0
2, 58732, Note_on_c, 0, 62, 80
2, 58734, Note_on_c, 0, 43, 80
2, 58734, Note_on_c, 0, 55, 80
2, 58741, Note_on_c, 0, 71, 80
2, 58748, Note_on_c, 0, 67, 80
2, 58777, Note_on_c, 0, 62, 0
2, 58779, Note_on_c, 0, 71, 0
2, 58779, Note_on_c, 0, 67, 0
2, 58809, Note_on_c, 0, 69, 80
2, 58846, Note_on_c, 0, 69, 0
2, 58871, Note_on_c, 0, 62, 80
2, 58871, Note_on_c, 0, 71, 80
2, 58877, Note_on_c, 0, 67, 80
2, 58967, Note_on_c, 0, 43, 0
2, 58976, Note_on_c, 0, 55, 0
2, 58999, Note_on_c, 0, 41, 80
2, 58999, Note_on_c, 0, 53, 80
2, 59107, Note_on_c, 0, 67, 0
2, 59107, Note_on_c, 0, 62, 0
2, 59112, Note_on_c, 0, 71, 0
2, 59130, Note_on_c, 0, 62, 80
2, 59130, Note_on_c, 0, 65, 80
2, 59135, Note_on_c, 0, 68, 80
2, 59135, Note_on_c, 0, 70, 80
2, 59224, Note_on_c, 0, 41, 0
2, 59231, Note_on_c, 0, 65, 0
2, 59231, Note_on_c, 0, 53, 0
2, 59237, Note_on_c, 0, 68, 0
2, 59237, Note_on_c, 0, 62, 0
2, 59249, Note_on_c, 0, 55, 80
2, 59251, Note_on_c, 0, 63, 80
2, 59253, Note_on_c, 0, 46, 80
2, 59255, Note_on_c, 0, 67, 80
2, 59255, Note_on_c, 0, 75, 80
2, 59351, Note_on_c, 0, 67, 0
2, 59352, Note_on_c, 0, 75, 0
2, 59354, Note_on_c, 0, 70, 0
2, 59359, Note_on_c, 0, 63, 0
2, 59379, Note_on_c, 0, 60, 80
2, 59381, Note_on_c, 0, 72, 80
2, 59479, Note_on_c, 0, 46, 0
2, 59484, Note_on_c, 0, 55, 0
2, 59504, Note_on_c, 0, 45, 80
2, 59504, Note_on_c, 0, 54, 80
2, 59612, Note_on_c, 0, 60, 0
2, 59616, Note_on_c, 0, 72, 0
2, 59637, Note_on_c, 0, 61, 80
2, 59646, Note_on_c, 0, 73, 80
2, 59737, Note_on_c, 0, 54, 0
2, 59742, Note_on_c, 0, 45, 0
2, 59744, Note_on_c, 0, 61, 0
2, 59749, Note_on_c, 0, 73, 0
2, 59772, Note_on_c, 0, 62, 80
2, 59772, Note_on_c, 0, 74, 80
2, 59774, Note_on_c, 0, 44, 80
2, 59774, Note_on_c, 0, 53, 80
2, 59817, Note_on_c, 0, 62, 0
2, 59822, Note_on_c, 0, 74, 0
2, 59835, Note_on_c, 0, 65, 80
2, 59845, Note_on_c, 0, 77, 80
2, 59951, Note_on_c, 0, 77, 0
2, 59951, Note_on_c, 0, 65, 0
2, 59978, Note_on_c, 0, 62, 80
2, 59985, Note_on_c, 0, 74, 80
2, 60013, Note_on_c, 0, 44, 0
2, 60023, Note_on_c, 0, 53, 0
2, 60023, Note_on_c, 0, 62, 0
2, 60032, Note_on_c, 0, 74, 0
2, 60048, Note_on_c, 0, 46, 80
2, 60048, Note_on_c, 0, 56, 80
2, 60048, Note_on_c, 0, 60, 80
2, 60055, Note_on_c, 0, 72, 80
2, 60163, Note_on_c, 0, 60, 0
2, 60168, Note_on_c, 0, 72, 0
2, 60191, Note_on_c, 0, 58, 80
2, 60191, Note_on_c, 0, 70, 80
2, 60288, Note_on_c, 0, 46, 0
2, 60293, Note_on_c, 0, 56, 0
2, 60293, Note_on_c, 0, 58, 0
2, 60295, Note_on_c, 0, 70, 0
2, 60312, Note_on_c, 0, 55, 80
2, 60318, Note_on_c, 0, 46, 80
2, 60318, Note_on_c, 0, 70, 80
2, 60320, Note_on_c, 0, 63, 80
2, 60325, Note_on_c, 0, 67, 80
2, 60325, Note_on_c, 0, 75, 80
2, 60421, Note_on_c, 0, 75, 0
2, 60421, Note_on_c, 0, 67, 0
2, 60428, Note_on_c, 0, 70, 0
2, 60432, Note_on_c, 0, 63, 0
2, 60446, Note_on_c, 0, 60, 80
2, 60456, Note_on_c, 0, 72, 80
2, 60552, Note_on_c, 0, 46, 0
2, 60563, Note_on_c, 0, 55, 0
2, 60581, Note_on_c, 0, 45, 80
2, 60581, Note_on_c, 0, 54, 80
2, 60691, Note_on_c, 0, 72, 0
2, 60697, Note_on_c, 0, 60, 0
2, 60718, Note_on_c, 0, 61, 80
2, 60718, Note_on_c, 0, 73, 80
2, 60820, Note_on_c, 0, 61, 0
2, 60820, Note_on_c, 0, 54, 0
2, 60820, Note_on_c, 0, 45, 0
2, 60830, Note_on_c, 0, 73, 0
2, 60848, Note_on_c, 0, 44, 80
2, 60850, Note_on_c, 0, 53, 80
2, 60850, Note_on_c, 0, 62, 80
2, 60855, Note_on_c, 0, 74, 80
2, 60898, Note_on_c, 0, 62, 0
2, 60908, Note_on_c, 0, 74, 0
2, 60919, Note_on_c, 0, 65, 80
2, 60924, Note_on_c, 0, 77, 80
2, 61025, Note_on_c, 0, 65, 0
2, 61034, Note_on_c, 0, 77, 0
2, 61053, Note_on_c, 0, 62, 80
2, 61057, Note_on_c, 0, 74, 80
2, 61082, Note_on_c, 0, 44, 0
2, 61094, Note_on_c, 0, 53, 0
2, 61096, Note_on_c, 0, 62, 0
2, 61101, Note_on_c, 0, 74, 0
2, 61114, Note_on_c, 0, 60, 80
2, 61116, Note_on_c, 0, 56, 80
2, 61118, Note_on_c, 0, 46, 80
2, 61118, Note_on_c, 0, 72, 80
2, 61224, Note_on_c, 0, 72, 0
2, 61228, Note_on_c, 0, 60, 0
2, 61248, Note_on_c, 0, 58, 80
2, 61250, Note_on_c, 0, 70, 80
2, 61344, Note_on_c, 0, 46, 0
2, 61346, Note_on_c, 0, 58, 0
2, 61356, Note_on_c, 0, 56, 0
2, 61356, Note_on_c, 0, 70, 0
2, 61368, Note_on_c, 0, 46, 80
2, 61368, Note_on_c, 0, 55, 80
2, 61368, Note_on_c, 0, 63, 80
2, 61498, Note_on_c, 0, 70, 80
2, 61601, Note_on_c, 0, 46, 0
2, 61610, Note_on_c, 0, 55, 0
2, 61624, Note_on_c, 0, 51, 80
2, 61633, Note_on_c, 0, 61, 80
2, 61748, Note_on_c, 0, 70, 0
2, 61750, Note_on_c, 0, 63, 0
2, 61768, Note_on_c, 0, 70, 80
2, 61814, Note_on_c, 0, 70, 0
2, 61834, Note_on_c, 0, 72, 80
2, 61866, Note_on_c, 0, 61, 0
2, 61877, Note_on_c, 0, 72, 0
2, 61887, Note_on_c, 0, 60, 80
2, 61903, Note_on_c, 0, 70, 80
2, 62001, Note_on_c, 0, 70, 0
2, 62026, Note_on_c, 0, 68, 80
2, 62127, Note_on_c, 0, 60, 0
2, 62127, Note_on_c, 0, 51, 0
2, 62136, Note_on_c, 0, 68, 0
2, 62150, Note_on_c, 0, 51, 80
2, 62155, Note_on_c, 0, 59, 80
2, 62155, Note_on_c, 0, 63, 80
2, 62267, Note_on_c, 0, 63, 0
2, 62283, Note_on_c, 0, 65, 80
2, 62398, Note_on_c, 0, 65, 0
2, 62398, Note_on_c, 0, 51, 0
2, 62402, Note_on_c, 0, 59, 0
2, 62421, Note_on_c, 0, 63, 80
2, 62423, Note_on_c, 0, 46, 80
2, 62423, Note_on_c, 0, 58, 80
2, 62427, Note_on_c, 0, 67, 80
2, 62533, Note_on_c, 0, 67, 0
2, 62544, Note_on_c, 0, 63, 0
2, 62563, Note_on_c, 0, 66, 80
2, 62604, Note_on_c, 0, 66, 0
2, 62634, Note_on_c, 0, 60, 80
2, 62643, Note_on_c, 0, 67, 80
2, 62673, Note_on_c, 0, 58, 0
2, 62673, Note_on_c, 0, 46, 0
2, 62689, Note_on_c, 0, 57, 80
2, 62696, Note_on_c, 0, 48, 80
2, 62802, Note_on_c, 0, 48, 0
2, 62804, Note_on_c, 0, 67, 0
2, 62810, Note_on_c, 0, 57, 0
2, 62810, Note_on_c, 0, 60, 0
2, 62829, Note_on_c, 0, 56, 80
2, 62833, Note_on_c, 0, 46, 80
2, 62833, Note_on_c, 0, 62, 80
2, 62877, Note_on_c, 0, 62, 0
2, 62900, Note_on_c, 0, 65, 80
2, 62931, Note_on_c, 0, 46, 0
2, 62941, Note_on_c, 0, 56, 0
2, 62946, Note_on_c, 0, 65, 0
2, 62966, Note_on_c, 0, 46, 80
2, 62966, Note_on_c, 0, 55, 80
2, 62968, Note_on_c, 0, 58, 80
2, 62970, Note_on_c, 0, 63, 80
2, 63071, Note_on_c, 0, 46, 0
2, 63075, Note_on_c, 0, 58, 0
2, 63077, Note_on_c, 0, 55, 0
2, 63084, Note_on_c, 0, 63, 0
2, 63230, Note_on_c, 0, 51, 80
2, 63232, Note_on_c, 0, 39, 80
2, 63232, Note_on_c, 0, 58, 80
2, 63234, Note_on_c, 0, 55, 80
2, 63236, Note_on_c, 0, 63, 80
2, 63325, Note_on_c, 0, 39, 0
2, 63336, Note_on_c, 0, 58, 0
2, 63338, Note_on_c, 0, 55, 0
2, 63343, Note_on_c, 0, 51, 0
2, 63353, Note_on_c, 0, 63, 0
2, 63497, Note_on_c, 0, 56, 80
2, 63504, Note_on_c, 0, 70, 80
2, 63504, Note_on_c, 0, 74, 80
2, 63504, Note_on_c, 0, 77, 80
2, 63505, Note_on_c, 0, 68, 80
2, 63507, Note_on_c, 0, 82, 80
2, 63601, Note_on_c, 0, 56, 0
2, 63606, Note_on_c, 0, 68, 0
2, 63623, Note_on_c, 0, 55, 80
2, 63634, Note_on_c, 0, 67, 80
2, 63664, Note_on_c, 0, 67, 0
2, 63666, Note_on_c, 0, 55, 0
2, 63694, Note_on_c, 0, 66, 80
2, 63696, Note_on_c, 0, 54, 80
2, 63793, Note_on_c, 0, 54, 0
2, 63793, Note_on_c, 0, 66, 0
2, 63816, Note_on_c, 0, 53, 80
2, 63818, Note_on_c, 0, 65, 80
2, 63855, Note_on_c, 0, 65, 0
2, 63857, Note_on_c, 0, 53, 0
2, 63875, Note_on_c, 0, 64, 80
2, 63877, Note_on_c, 0, 52, 80
2, 63918, Note_on_c, 0, 52, 0
2, 63932, Note_on_c, 0, 64, 0
2, 63941, Note_on_c, 0, 51, 80
2, 63946, Note_on_c, 0, 63, 80
2, 63984, Note_on_c, 0, 51, 0
2, 63986, Note_on_c, 0, 82, 0
2, 63988, Note_on_c, 0, 77, 0
2, 63993, Note_on_c, 0, 63, 0
2, 64007, Note_on_c, 0, 50, 80
2, 64011, Note_on_c, 0, 62, 80
2, 64011, Note_on_c, 0, 77, 80
2, 64013, Note_on_c, 0, 82, 80
2, 64114, Note_on_c, 0, 50, 0
2, 64124, Note_on_c, 0, 62, 0
2, 64144, Note_on_c, 0, 49, 80
2, 64146, Note_on_c, 0, 61, 80
2, 64180, Note_on_c, 0, 49, 0
2, 64185, Note_on_c, 0, 61, 0
2, 64210, Note_on_c, 0, 48, 80
2, 64210, Note_on_c, 0, 60, 80
2, 64248, Note_on_c, 0, 82, 0
2, 64255, Note_on_c, 0, 74, 0
2, 64255, Note_on_c, 0, 77, 0
2, 64262, Note_on_c, 0, 70, 0
2, 64312, Note_on_c, 0, 48, 0
2, 64325, Note_on_c, 0, 60, 0
2, 64344, Note_on_c, 0, 47, 80
2, 64344, Note_on_c, 0, 59, 80
2, 64382, Note_on_c, 0, 47, 0
2, 64392, Note_on_c, 0, 59, 0
2, 64416, Note_on_c, 0, 46, 80
2, 64416, Note_on_c, 0, 58, 80
2, 64446, Note_on_c, 0, 46, 0
2, 64453, Note_on_c, 0, 58, 0
2, 64478, Note_on_c, 0, 45, 80
2, 64478, Note_on_c, 0, 57, 80
2, 64512, Note_on_c, 0, 45, 0
2, 64526, Note_on_c, 0, 57, 0
2, 64546, Note_on_c, 0, 44, 80
2, 64546, Note_on_c, 0, 56, 80
2, 64546, Note_on_c, 0, 74, 80
2, 64548, Note_on_c, 0, 70, 80
2, 64553, Note_on_c, 0, 77, 80
2, 64553, Note_on_c, 0, 82, 80
2, 64647, Note_on_c, 0, 44, 0
2, 64649, Note_on_c, 0, 56, 0
2, 64674, Note_on_c, 0, 55, 80
2, 64676, Note_on_c, 0, 43, 80
2, 64707, Note_on_c, 0, 43, 0
2, 64712, Note_on_c, 0, 55, 0
2, 64735, Note_on_c, 0, 42, 80
2, 64735, Note_on_c, 0, 54, 80
2, 64831, Note_on_c, 0, 54, 0
2, 64833, Note_on_c, 0, 42, 0
2, 64861, Note_on_c, 0, 41, 80
2, 64863, Note_on_c, 0, 53, 80
2, 64895, Note_on_c, 0, 41, 0
2, 64911, Note_on_c, 0, 53, 0
2, 64929, Note_on_c, 0, 52, 80
2, 64934, Note_on_c, 0, 40, 80
2, 64959, Note_on_c, 0, 40, 0
2, 64970, Note_on_c, 0, 52, 0
2, 64993, Note_on_c, 0, 51, 80
2, 65000, Note_on_c, 0, 39, 80
2, 65028, Note_on_c, 0, 39, 0
2, 65040, Note_on_c, 0, 51, 0
2, 65041, Note_on_c, 0, 77, 0
2, 65041, Note_on_c, 0, 82, 0
2, 65043, Note_on_c, 0, 70, 0
2, 65048, Note_on_c, 0, 74, 0
2, 65068, Note_on_c, 0, 38, 80
2, 65070, Note_on_c, 0, 50, 80
2, 65164, Note_on_c, 0, 38, 0
2, 65178, Note_on_c, 0, 50, 0
2, 65331, Note_on_c, 0, 41, 80
2, 65338, Note_on_c, 0, 74, 80
2, 65340, Note_on_c, 0, 53, 80
2, 65340, Note_on_c, 0, 77, 80
2, 65340, Note_on_c, 0, 82, 80
2, 65347, Note_on_c, 0, 70, 80
2, 65431, Note_on_c, 0, 41, 0
2, 65445, Note_on_c, 0, 70, 0
2, 65447, Note_on_c, 0, 82, 0
2, 65447, Note_on_c, 0, 53, 0
2, 65448, Note_on_c, 0, 77, 0
2, 65453, Note_on_c, 0, 74, 0
2, 65592, Note_on_c, 0, 79, 80
2, 65604, Note_on_c, 0, 51, 80
2, 65606, Note_on_c, 0, 39, 80
2, 65606, Note_on_c, 0, 82, 80
2, 65613, Note_on_c, 0, 84, 80
2, 65626, Note_on_c, 0, 79, 0
2, 65640, Note_on_c, 0, 82, 0
2, 65651, Note_on_c, 0, 84, 0
2, 65674, Note_on_c, 0, 82, 80
2, 65702, Note_on_c, 0, 39, 0
2, 65712, Note_on_c, 0, 51, 0
2, 65713, Note_on_c, 0, 82, 0
2, 65736, Note_on_c, 0, 51, 80
2, 65736, Note_on_c, 0, 58, 80
2, 65743, Note_on_c, 0, 55, 80
2, 65745, Note_on_c, 0, 87, 80
2, 65747, Note_on_c, 0, 79, 80
2, 65782, Note_on_c, 0, 79, 0
2, 65782, Note_on_c, 0, 87, 0
2, 65807, Note_on_c, 0, 87, 80
2, 65808, Note_on_c, 0, 79, 80
2, 65840, Note_on_c, 0, 58, 0
2, 65845, Note_on_c, 0, 51, 0
2, 65847, Note_on_c, 0, 55, 0
2, 65865, Note_on_c, 0, 52, 80
2, 65867, Note_on_c, 0, 40, 80
2, 65915, Note_on_c, 0, 87, 0
2, 65915, Note_on_c, 0, 79, 0
2, 65938, Note_on_c, 0, 84, 80
2, 65945, Note_on_c, 0, 72, 80
2, 65945, Note_on_c, 0, 79, 80
2, 65970, Note_on_c, 0, 40, 0
2, 65975, Note_on_c, 0, 52, 0
2, 66000, Note_on_c, 0, 58, 80
2, 66001, Note_on_c, 0, 55, 80
2, 66003, Note_on_c, 0, 61, 80
2, 66042, Note_on_c, 0, 72, 0
2, 66044, Note_on_c, 0, 79, 0
2, 66044, Note_on_c, 0, 84, 0
2, 66073, Note_on_c, 0, 82, 80
2, 66103, Note_on_c, 0, 58, 0
2, 66105, Note_on_c, 0, 61, 0
2, 66107, Note_on_c, 0, 55, 0
2, 66112, Note_on_c, 0, 82, 0
2, 66121, Note_on_c, 0, 41, 80
2, 66131, Note_on_c, 0, 53, 80
2, 66133, Note_on_c, 0, 80, 80
2, 66181, Note_on_c, 0, 82, 80
2, 66183, Note_on_c, 0, 80, 0
2, 66221, Note_on_c, 0, 82, 0
2, 66221, Note_on_c, 0, 80, 80
2, 66226, Note_on_c, 0, 41, 0
2, 66236, Note_on_c, 0, 53, 0
2, 66256, Note_on_c, 0, 56, 80
2, 66256, Note_on_c, 0, 62, 80
2, 66256, Note_on_c, 0, 65, 80
2, 66261, Note_on_c, 0, 58, 80
2, 66270, Note_on_c, 0, 72, 80
2, 66275, Note_on_c, 0, 80, 0
2, 66310, Note_on_c, 0, 72, 0
2, 66310, Note_on_c, 0, 73, 80
2, 66351, Note_on_c, 0, 73, 0
2, 66351, Note_on_c, 0, 74, 80
2, 66360, Note_on_c, 0, 58, 0
2, 66360, Note_on_c, 0, 65, 0
2, 66360, Note_on_c, 0, 62, 0
2, 66362, Note_on_c, 0, 56, 0
2, 66383, Note_on_c, 0, 56, 80
2, 66384, Note_on_c, 0, 44, 80
2, 66389, Note_on_c, 0, 80, 80
2, 66396, Note_on_c, 0, 74, 0
2, 66439, Note_on_c, 0, 80, 0
2, 66467, Note_on_c, 0, 79, 80
2, 66490, Note_on_c, 0, 44, 0
2, 66518, Note_on_c, 0, 62, 80
2, 66523, Note_on_c, 0, 65, 80
2, 66525, Note_on_c, 0, 58, 80
2, 66559, Note_on_c, 0, 79, 0
2, 66596, Note_on_c, 0, 77, 80
2, 66627, Note_on_c, 0, 58, 0
2, 66627, Note_on_c, 0, 62, 0
2, 66632, Note_on_c, 0, 56, 0
2, 66632, Note_on_c, 0, 65, 0
2, 66632, Note_on_c, 0, 77, 0
2, 66655, Note_on_c, 0, 43, 80
2, 66655, Note_on_c, 0, 55, 80
2, 66662, Note_on_c, 0, 75, 80
2, 66698, Note_on_c, 0, 75, 0
2, 66703, Note_on_c, 0, 77, 80
2, 66742, Note_on_c, 0, 77, 0
2, 66753, Note_on_c, 0, 75, 80
2, 66767, Note_on_c, 0, 43, 0
2, 66787, Note_on_c, 0, 75, 0
2, 66792, Note_on_c, 0, 58, 80
2, 66792, Note_on_c, 0, 63, 80
2, 66796, Note_on_c, 0, 72, 80
2, 66835, Note_on_c, 0, 72, 0
2, 66860, Note_on_c, 0, 75, 80
2, 66894, Note_on_c, 0, 58, 0
2, 66899, Note_on_c, 0, 75, 0
2, 66901, Note_on_c, 0, 55, 0
2, 66903, Note_on_c, 0, 63, 0
2, 66919, Note_on_c, 0, 54, 80
2, 66924, Note_on_c, 0, 42, 80
2, 66926, Note_on_c, 0, 78, 80
2, 66992, Note_on_c, 0, 80, 80
2, 66994, Note_on_c, 0, 75, 80
2, 66994, Note_on_c, 0, 84, 80
2, 67026, Note_on_c, 0, 42, 0
2, 67028, Note_on_c, 0, 54, 0
2, 67051, Note_on_c, 0, 57, 80
2, 67051, Note_on_c, 0, 63, 80
2, 67056, Note_on_c, 0, 66, 80
2, 67057, Note_on_c, 0, 60, 80
2, 67092, Note_on_c, 0, 75, 0
2, 67097, Note_on_c, 0, 80, 0
2, 67097, Note_on_c, 0, 84, 0
2, 67102, Note_on_c, 0, 78, 0
2, 67131, Note_on_c, 0, 82, 80
2, 67161, Note_on_c, 0, 60, 0
2, 67166, Note_on_c, 0, 82, 0
2, 67168, Note_on_c, 0, 57, 0
2, 67168, Note_on_c, 0, 66, 0
2, 67173, Note_on_c, 0, 63, 0
2, 67193, Note_on_c, 0, 41, 80
2, 67202, Note_on_c, 0, 53, 80
2, 67223, Note_on_c, 0, 80, 80
2, 67272, Note_on_c, 0, 80, 0
2, 67277, Note_on_c, 0, 82, 80
2, 67300, Note_on_c, 0, 41, 0
2, 67310, Note_on_c, 0, 82, 0
2, 67315, Note_on_c, 0, 80, 80
2, 67320, Note_on_c, 0, 53, 0
2, 67333, Note_on_c, 0, 56, 80
2, 67340, Note_on_c, 0, 58, 80
2, 67346, Note_on_c, 0, 62, 80
2, 67351, Note_on_c, 0, 65, 80
2, 67361, Note_on_c, 0, 80, 0
2, 67363, Note_on_c, 0, 72, 80
2, 67401, Note_on_c, 0, 72, 0
2, 67406, Note_on_c, 0, 73, 80
2, 67447, Note_on_c, 0, 74, 80
2, 67449, Note_on_c, 0, 73, 0
2, 67449, Note_on_c, 0, 56, 0
2, 67449, Note_on_c, 0, 58, 0
2, 67454, Note_on_c, 0, 65, 0
2, 67456, Note_on_c, 0, 62, 0
2, 67479, Note_on_c, 0, 56, 80
2, 67484, Note_on_c, 0, 44, 80
2, 67495, Note_on_c, 0, 80, 80
2, 67502, Note_on_c, 0, 74, 0
2, 67543, Note_on_c, 0, 80, 0
2, 67566, Note_on_c, 0, 79, 80
2, 67586, Note_on_c, 0, 44, 0
2, 67607, Note_on_c, 0, 62, 80
2, 67608, Note_on_c, 0, 58, 80
2, 67610, Note_on_c, 0, 65, 80
2, 67665, Note_on_c, 0, 79, 0
2, 67690, Note_on_c, 0, 82, 80
2, 67710, Note_on_c, 0, 56, 0
2, 67712, Note_on_c, 0, 58, 0
2, 67714, Note_on_c, 0, 65, 0
2, 67714, Note_on_c, 0, 62, 0
2, 67721, Note_on_c, 0, 82, 0
2, 67737, Note_on_c, 0, 55, 80
2, 67744, Note_on_c, 0, 43, 80
2, 67744, Note_on_c, 0, 84, 80
2, 67790, Note_on_c, 0, 84, 0
2, 67820, Note_on_c, 0, 82, 80
2, 67848, Note_on_c, 0, 43, 0
2, 67849, Note_on_c, 0, 82, 0
2, 67874, Note_on_c, 0, 58, 80
2, 67874, Note_on_c, 0, 63, 80
2, 67876, Note_on_c, 0, 87, 80
2, 67883, Note_on_c, 0, 79, 80
2, 67915, Note_on_c, 0, 79, 0
2, 67915, Note_on_c, 0, 87, 0
2, 67943, Note_on_c, 0, 87, 80
2, 67944, Note_on_c, 0, 79, 80
2, 67976, Note_on_c, 0, 55, 0
2, 67976, Note_on_c, 0, 58, 0
2, 67988, Note_on_c, 0, 63, 0
2, 68001, Note_on_c, 0, 58, 80
2, 68003, Note_on_c, 0, 46, 80
2, 68040, Note_on_c, 0, 79, 0
2, 68044, Note_on_c, 0, 87, 0
2, 68072, Note_on_c, 0, 84, 80
2, 68074, Note_on_c, 0, 72, 80
2, 68074, Note_on_c, 0, 79, 80
2, 68102, Note_on_c, 0, 46, 0
2, 68112, Note_on_c, 0, 58, 0
2, 68132, Note_on_c, 0, 58, 80
2, 68136, Note_on_c, 0, 63, 80
2, 68141, Note_on_c, 0, 67, 80
2, 68178, Note_on_c, 0, 79, 0
2, 68184, Note_on_c, 0, 72, 0
2, 68184, Note_on_c, 0, 84, 0
2, 68221, Note_on_c, 0, 81, 80
2, 68241, Note_on_c, 0, 58, 0
2, 68248, Note_on_c, 0, 81, 0
2, 68250, Note_on_c, 0, 67, 0
2, 68255, Note_on_c, 0, 63, 0
2, 68266, Note_on_c, 0, 47, 80
2, 68268, Note_on_c, 0, 59, 80
2, 68281, Note_on_c, 0, 79, 80
2, 68316, Note_on_c, 0, 79, 0
2, 68339, Note_on_c, 0, 81, 80
2, 68369, Note_on_c, 0, 81, 0
2, 68380, Note_on_c, 0, 47, 0
2, 68382, Note_on_c, 0, 79, 80
2, 68407, Note_on_c, 0, 55, 80
2, 68407, Note_on_c, 0, 62, 80
2, 68409, Note_on_c, 0, 74, 80
2, 68416, Note_on_c, 0, 79, 0
2, 68457, Note_on_c, 0, 74, 0
2, 68487, Note_on_c, 0, 79, 80
2, 68521, Note_on_c, 0, 79, 0
2, 68523, Note_on_c, 0, 62, 0
2, 68523, Note_on_c, 0, 55, 0
2, 68523, Note_on_c, 0, 59, 0
2, 68540, Note_on_c, 0, 38, 80
2, 68544, Note_on_c, 0, 50, 80
2, 68556, Note_on_c, 0, 81, 80
2, 68588, Note_on_c, 0, 81, 0
2, 68617, Note_on_c, 0, 74, 80
2, 68622, Note_on_c, 0, 79, 80
2, 68650, Note_on_c, 0, 50, 0
2, 68657, Note_on_c, 0, 38, 0
2, 68673, Note_on_c, 0, 55, 80
2, 68678, Note_on_c, 0, 59, 80
2, 68678, Note_on_c, 0, 62, 80
2, 68724, Note_on_c, 0, 79, 0
2, 68729, Note_on_c, 0, 74, 0
2, 68749, Note_on_c, 0, 81, 80
2, 68781, Note_on_c, 0, 59, 0
2, 68781, Note_on_c, 0, 62, 0
2, 68783, Note_on_c, 0, 81, 0
2, 68787, Note_on_c, 0, 55, 0
2, 68806, Note_on_c, 0, 45, 80
2, 68806, Note_on_c, 0, 57, 80
2, 68806, Note_on_c, 0, 78, 80
2, 68856, Note_on_c, 0, 81, 80
2, 68857, Note_on_c, 0, 78, 0
2, 68892, Note_on_c, 0, 81, 0
2, 68902, Note_on_c, 0, 78, 80
2, 68904, Note_on_c, 0, 45, 0
2, 68933, Note_on_c, 0, 60, 80
2, 68933, Note_on_c, 0, 62, 80
2, 68938, Note_on_c, 0, 66, 80
2, 68948, Note_on_c, 0, 78, 0
2, 68948, Note_on_c, 0, 72, 80
2, 68984, Note_on_c, 0, 72, 0
2, 69007, Note_on_c, 0, 78, 80
2, 69044, Note_on_c, 0, 66, 0
2, 69044, Note_on_c, 0, 62, 0
2, 69044, Note_on_c, 0, 57, 0
2, 69044, Note_on_c, 0, 60, 0
2, 69050, Note_on_c, 0, 78, 0
2, 69071, Note_on_c, 0, 38, 80
2, 69072, Note_on_c, 0, 50, 80
2, 69079, Note_on_c, 0, 81, 80
2, 69114, Note_on_c, 0, 81, 0
2, 69145, Note_on_c, 0, 78, 80
2, 69168, Note_on_c, 0, 38, 0
2, 69173, Note_on_c, 0, 50, 0
2, 69201, Note_on_c, 0, 57, 80
2, 69201, Note_on_c, 0, 60, 80
2, 69206, Note_on_c, 0, 62, 80
2, 69206, Note_on_c, 0, 66, 80
2, 69249, Note_on_c, 0, 78, 0
2, 69286, Note_on_c, 0, 81, 80
2, 69309, Note_on_c, 0, 62, 0
2, 69313, Note_on_c, 0, 66, 0
2, 69313, Note_on_c, 0, 57, 0
2, 69315, Note_on_c, 0, 81, 0
2, 69317, Note_on_c, 0, 60, 0
2, 69336, Note_on_c, 0, 55, 80
2, 69337, Note_on_c, 0, 43, 80
2, 69349, Note_on_c, 0, 79, 80
2, 69387, Note_on_c, 0, 79, 0
2, 69397, Note_on_c, 0, 81, 80
2, 69427, Note_on_c, 0, 81, 0
2, 69440, Note_on_c, 0, 43, 0
2, 69440, Note_on_c, 0, 79, 80
2, 69470, Note_on_c, 0, 59, 80
2, 69470, Note_on_c, 0, 62, 80
2, 69470, Note_on_c, 0, 65, 80
2, 69475, Note_on_c, 0, 79, 0
2, 69475, Note_on_c, 0, 74, 80
2, 69521, Note_on_c, 0, 74, 0
2, 69539, Note_on_c, 0, 79, 80
2, 69576, Note_on_c, 0, 65, 0
2, 69576, Note_on_c, 0, 62, 0
2, 69577, Note_on_c, 0, 79, 0
2, 69579, Note_on_c, 0, 55, 0
2, 69584, Note_on_c, 0, 59, 0
2, 69600, Note_on_c, 0, 41, 80
2, 69600, Note_on_c, 0, 53, 80
2, 69610, Note_on_c, 0, 81, 80
2, 69647, Note_on_c, 0, 81, 0
2, 69672, Note_on_c, 0, 74, 80
2, 69672, Note_on_c, 0, 80, 80
2, 69701, Note_on_c, 0, 41, 0
2, 69708, Note_on_c, 0, 53, 0
2, 69731, Note_on_c, 0, 56, 80
2, 69736, Note_on_c, 0, 58, 80
2, 69736, Note_on_c, 0, 62, 80
2, 69738, Note_on_c, 0, 65, 80
2, 69834, Note_on_c, 0, 58, 0
2, 69834, Note_on_c, 0, 56, 0
2, 69839, Note_on_c, 0, 62, 0
2, 69839, Note_on_c, 0, 79, 80
2, 69843, Note_on_c, 0, 65, 0
2, 69848, Note_on_c, 0, 80, 0
2, 69850, Note_on_c, 0, 82, 80
2, 69852, Note_on_c, 0, 74, 0
2, 69857, Note_on_c, 0, 51, 80
2, 69864, Note_on_c, 0, 84, 80
2, 69865, Note_on_c, 0, 39, 80
2, 69875, Note_on_c, 0, 79, 0
2, 69885, Note_on_c, 0, 82, 0
2, 69910, Note_on_c, 0, 84, 0
2, 69930, Note_on_c, 0, 82, 80
2, 69958, Note_on_c, 0, 39, 0
2, 69967, Note_on_c, 0, 51, 0
2, 69969, Note_on_c, 0, 82, 0
2, 69985, Note_on_c, 0, 55, 80
2, 69990, Note_on_c, 0, 51, 80
2, 69995, Note_on_c, 0, 58, 80
2, 70002, Note_on_c, 0, 79, 80
2, 70002, Note_on_c, 0, 87, 80
2, 70036, Note_on_c, 0, 79, 0
2, 70041, Note_on_c, 0, 87, 0
2, 70064, Note_on_c, 0, 79, 80
2, 70069, Note_on_c, 0, 87, 80
2, 70101, Note_on_c, 0, 58, 0
2, 70101, Note_on_c, 0, 51, 0
2, 70105, Note_on_c, 0, 55, 0
2, 70124, Note_on_c, 0, 54, 80
2, 70126, Note_on_c, 0, 42, 80
2, 70172, Note_on_c, 0, 87, 0
2, 70172, Note_on_c, 0, 79, 0
2, 70195, Note_on_c, 0, 72, 80
2, 70195, Note_on_c, 0, 79, 80
2, 70195, Note_on_c, 0, 84, 80
2, 70223, Note_on_c, 0, 42, 0
2, 70224, Note_on_c, 0, 54, 0
2, 70248, Note_on_c, 0, 60, 80
2, 70254, Note_on_c, 0, 66, 80
2, 70256, Note_on_c, 0, 63, 80
2, 70258, Note_on_c, 0, 69, 80
2, 70290, Note_on_c, 0, 79, 0
2, 70290, Note_on_c, 0, 84, 0
2, 70295, Note_on_c, 0, 72, 0
2, 70322, Note_on_c, 0, 82, 80
2, 70359, Note_on_c, 0, 82, 0
2, 70359, Note_on_c, 0, 66, 0
2, 70361, Note_on_c, 0, 69, 0
2, 70363, Note_on_c, 0, 60, 0
2, 70365, Note_on_c, 0, 63, 0
2, 70383, Note_on_c, 0, 41, 80
2, 70385, Note_on_c, 0, 53, 80
2, 70385, Note_on_c, 0, 80, 80
2, 70428, Note_on_c, 0, 80, 0
2, 70433, Note_on_c, 0, 82, 80
2, 70469, Note_on_c, 0, 82, 0
2, 70474, Note_on_c, 0, 41, 0
2, 70476, Note_on_c, 0, 80, 80
2, 70488, Note_on_c, 0, 53, 0
2, 70499, Note_on_c, 0, 56, 80
2, 70504, Note_on_c, 0, 58, 80
2, 70509, Note_on_c, 0, 62, 80
2, 70509, Note_on_c, 0, 65, 80
2, 70511, Note_on_c, 0, 72, 80
2, 70517, Note_on_c, 0, 80, 0
2, 70552, Note_on_c, 0, 72, 0
2, 70561, Note_on_c, 0, 73, 80
2, 70596, Note_on_c, 0, 73, 0
2, 70606, Note_on_c, 0, 74, 80
2, 70610, Note_on_c, 0, 56, 0
2, 70617, Note_on_c, 0, 65, 0
2, 70617, Note_on_c, 0, 62, 0
2, 70617, Note_on_c, 0, 58, 0
2, 70635, Note_on_c, 0, 56, 80
2, 70637, Note_on_c, 0, 44, 80
2, 70642, Note_on_c, 0, 80, 80
2, 70652, Note_on_c, 0, 74, 0
2, 70693, Note_on_c, 0, 80, 0
2, 70718, Note_on_c, 0, 79, 80
2, 70741, Note_on_c, 0, 44, 0
2, 70748, Note_on_c, 0, 56, 0
2, 70768, Note_on_c, 0, 56, 80
2, 70773, Note_on_c, 0, 62, 80
2, 70777, Note_on_c, 0, 65, 80
2, 70784, Note_on_c, 0, 58, 80
2, 70821, Note_on_c, 0, 79, 0
2, 70857, Note_on_c, 0, 77, 80
2, 70880, Note_on_c, 0, 79, 80
2, 70885, Note_on_c, 0, 65, 0
2, 70887, Note_on_c, 0, 58, 0
2, 70889, Note_on_c, 0, 77, 0
2, 70889, Note_on_c, 0, 56, 0
2, 70889, Note_on_c, 0, 62, 0
2, 70891, Note_on_c, 0, 82, 80
2, 70900, Note_on_c, 0, 55, 80
2, 70905, Note_on_c, 0, 43, 80
2, 70912, Note_on_c, 0, 84, 80
2, 70919, Note_on_c, 0, 79, 0
2, 70928, Note_on_c, 0, 82, 0
2, 70953, Note_on_c, 0, 84, 0
2, 70981, Note_on_c, 0, 82, 80
2, 71011, Note_on_c, 0, 82, 0
2, 71016, Note_on_c, 0, 43, 0
2, 71017, Note_on_c, 0, 55, 0
2, 71040, Note_on_c, 0, 55, 80
2, 71040, Note_on_c, 0, 58, 80
2, 71040, Note_on_c, 0, 63, 80
2, 71047, Note_on_c, 0, 87, 80
2, 71052, Note_on_c, 0, 79, 80
2, 71082, Note_on_c, 0, 87, 0
2, 71088, Note_on_c, 0, 79, 0
2, 71116, Note_on_c, 0, 87, 80
2, 71123, Note_on_c, 0, 79, 80
2, 71143, Note_on_c, 0, 58, 0
2, 71150, Note_on_c, 0, 55, 0
2, 71163, Note_on_c, 0, 63, 0
2, 71177, Note_on_c, 0, 54, 80
2, 71179, Note_on_c, 0, 42, 80
2, 71217, Note_on_c, 0, 87, 0
2, 71222, Note_on_c, 0, 79, 0
2, 71245, Note_on_c, 0, 84, 80
2, 71250, Note_on_c, 0, 72, 80
2, 71252, Note_on_c, 0, 79, 80
2, 71275, Note_on_c, 0, 54, 0
2, 71277, Note_on_c, 0, 42, 0
2, 71308, Note_on_c, 0, 60, 80
2, 71313, Note_on_c, 0, 63, 80
2, 71313, Note_on_c, 0, 66, 80
2, 71313, Note_on_c, 0, 69, 80
2, 71350, Note_on_c, 0, 79, 0
2, 71350, Note_on_c, 0, 84, 0
2, 71352, Note_on_c, 0, 72, 0
2, 71381, Note_on_c, 0, 82, 80
2, 71413, Note_on_c, 0, 66, 0
2, 71415, Note_on_c, 0, 82, 0
2, 71417, Note_on_c, 0, 69, 0
2, 71419, Note_on_c, 0, 60, 0
2, 71424, Note_on_c, 0, 63, 0
2, 71440, Note_on_c, 0, 41, 80
2, 71442, Note_on_c, 0, 53, 80
2, 71447, Note_on_c, 0, 80, 80
2, 71493, Note_on_c, 0, 80, 0
2, 71499, Note_on_c, 0, 82, 80
2, 71531, Note_on_c, 0, 82, 0
2, 71536, Note_on_c, 0, 80, 80
2, 71538, Note_on_c, 0, 41, 0
2, 71549, Note_on_c, 0, 53, 0
2, 71572, Note_on_c, 0, 56, 80
2, 71572, Note_on_c, 0, 58, 80
2, 71572, Note_on_c, 0, 62, 80
2, 71572, Note_on_c, 0, 65, 80
2, 71584, Note_on_c, 0, 72, 80
2, 71586, Note_on_c, 0, 80, 0
2, 71622, Note_on_c, 0, 72, 0
2, 71632, Note_on_c, 0, 73, 80
2, 71660, Note_on_c, 0, 73, 0
2, 71662, Note_on_c, 0, 74, 80
2, 71675, Note_on_c, 0, 58, 0
2, 71680, Note_on_c, 0, 62, 0
2, 71680, Note_on_c, 0, 56, 0
2, 71685, Note_on_c, 0, 65, 0
2, 71703, Note_on_c, 0, 44, 80
2, 71705, Note_on_c, 0, 56, 80
2, 71712, Note_on_c, 0, 80, 80
2, 71718, Note_on_c, 0, 74, 0
2, 71761, Note_on_c, 0, 80, 0
2, 71784, Note_on_c, 0, 79, 80
2, 71808, Note_on_c, 0, 44, 0
2, 71837, Note_on_c, 0, 58, 80
2, 71837, Note_on_c, 0, 62, 80
2, 71839, Note_on_c, 0, 65, 80
2, 71878, Note_on_c, 0, 79, 0
2, 71909, Note_on_c, 0, 77, 80
2, 71941, Note_on_c, 0, 62, 0
2, 71941, Note_on_c, 0, 65, 0
2, 71941, Note_on_c, 0, 58, 0
2, 71946, Note_on_c, 0, 56, 0
2, 71951, Note_on_c, 0, 77, 0
2, 71967, Note_on_c, 0, 55, 80
2, 71972, Note_on_c, 0, 43, 80
2, 71976, Note_on_c, 0, 75, 80
2, 72015, Note_on_c, 0, 77, 80
2, 72017, Note_on_c, 0, 75, 0
2, 72055, Note_on_c, 0, 77, 0
2, 72067, Note_on_c, 0, 75, 80
2, 72073, Note_on_c, 0, 43, 0
2, 72078, Note_on_c, 0, 55, 0
2, 72106, Note_on_c, 0, 75, 0
2, 72106, Note_on_c, 0, 58, 80
2, 72106, Note_on_c, 0, 63, 80
2, 72108, Note_on_c, 0, 74, 80
2, 72110, Note_on_c, 0, 67, 80
2, 72153, Note_on_c, 0, 74, 0
2, 72171, Note_on_c, 0, 75, 80
2, 72208, Note_on_c, 0, 67, 0
2, 72210, Note_on_c, 0, 58, 0
2, 72215, Note_on_c, 0, 75, 0
2, 72219, Note_on_c, 0, 63, 0
2, 72236, Note_on_c, 0, 49, 80
2, 72238, Note_on_c, 0, 61, 80
2, 72247, Note_on_c, 0, 79, 80
2, 72282, Note_on_c, 0, 79, 0
2, 72310, Note_on_c, 0, 82, 80
2, 72310, Note_on_c, 0, 87, 80
2, 72339, Note_on_c, 0, 61, 0
2, 72339, Note_on_c, 0, 49, 0
2, 72369, Note_on_c, 0, 58, 80
2, 72369, Note_on_c, 0, 61, 80
2, 72369, Note_on_c, 0, 63, 80
2, 72379, Note_on_c, 0, 67, 80
2, 72407, Note_on_c, 0, 82, 0
2, 72407, Note_on_c, 0, 87, 0
2, 72436, Note_on_c, 0, 79, 80
2, 72468, Note_on_c, 0, 61, 0
2, 72468, Note_on_c, 0, 58, 0
2, 72470, Note_on_c, 0, 67, 0
2, 72477, Note_on_c, 0, 79, 0
2, 72477, Note_on_c, 0, 63, 0
2, 72497, Note_on_c, 0, 48, 80
2, 72502, Note_on_c, 0, 60, 80
2, 72504, Note_on_c, 0, 82, 80
2, 72540, Note_on_c, 0, 82, 0
2, 72565, Note_on_c, 0, 80, 80
2, 72595, Note_on_c, 0, 48, 0
2, 72606, Note_on_c, 0, 60, 0
2, 72611, Note_on_c, 0, 80, 0
2, 72623, Note_on_c, 0, 56, 80
2, 72627, Note_on_c, 0, 51, 80
2, 72627, Note_on_c, 0, 60, 80
2, 72634, Note_on_c, 0, 79, 80
2, 72672, Note_on_c, 0, 79, 0
2, 72697, Note_on_c, 0, 80, 80
2, 72699, Note_on_c, 0, 84, 80
2, 72734, Note_on_c, 0, 56, 0
2, 72734, Note_on_c, 0, 51, 0
2, 72739, Note_on_c, 0, 60, 0
2, 72755, Note_on_c, 0, 47, 80
2, 72755, Note_on_c, 0, 59, 80
2, 72798, Note_on_c, 0, 84, 0
2, 72810, Note_on_c, 0, 80, 0
2, 72828, Note_on_c, 0, 82, 80
2, 72853, Note_on_c, 0, 47, 0
2, 72863, Note_on_c, 0, 82, 0
2, 72864, Note_on_c, 0, 59, 0
2, 72888, Note_on_c, 0, 58, 80
2, 72889, Note_on_c, 0, 46, 80
2, 72889, Note_on_c, 0, 80, 80
2, 72894, Note_on_c, 0, 84, 80
2, 72985, Note_on_c, 0, 46, 0
2, 72985, Note_on_c, 0, 58, 0
2, 72995, Note_on_c, 0, 84, 0
2, 73005, Note_on_c, 0, 80, 0
2, 73007, Note_on_c, 0, 45, 80
2, 73007, Note_on_c, 0, 57, 80
2, 73011, Note_on_c, 0, 79, 80
2, 73053, Note_on_c, 0, 79, 0
2, 73078, Note_on_c, 0, 75, 80
2, 73109, Note_on_c, 0, 45, 0
2, 73139, Note_on_c, 0, 60, 80
2, 73139, Note_on_c, 0, 63, 80
2, 73176, Note_on_c, 0, 75, 0
2, 73205, Note_on_c, 0, 74, 80
2, 73217, Note_on_c, 0, 79, 80
2, 73248, Note_on_c, 0, 60, 0
2, 73253, Note_on_c, 0, 57, 0
2, 73258, Note_on_c, 0, 63, 0
2, 73272, Note_on_c, 0, 58, 80
2, 73273, Note_on_c, 0, 46, 80
2, 73315, Note_on_c, 0, 79, 0
2, 73320, Note_on_c, 0, 74, 0
2, 73344, Note_on_c, 0, 75, 80
2, 73376, Note_on_c, 0, 46, 0
2, 73388, Note_on_c, 0, 75, 0
2, 73388, Note_on_c, 0, 58, 0
2, 73406, Note_on_c, 0, 56, 80
2, 73411, Note_on_c, 0, 53, 80
2, 73411, Note_on_c, 0, 58, 80
2, 73413, Note_on_c, 0, 77, 80
2, 73415, Note_on_c, 0, 62, 80
2, 73512, Note_on_c, 0, 58, 0
2, 73517, Note_on_c, 0, 77, 0
2, 73517, Note_on_c, 0, 62, 0
2, 73517, Note_on_c, 0, 56, 0
2, 73524, Note_on_c, 0, 53, 0
2, 73537, Note_on_c, 0, 51, 80
2, 73544, Note_on_c, 0, 63, 80
2, 73554, Note_on_c, 0, 75, 80
2, 73648, Note_on_c, 0, 51, 0
2, 73650, Note_on_c, 0, 75, 0
2, 73666, Note_on_c, 0, 63, 0
2, 73678, Note_on_c, 0, 46, 80
2, 73682, Note_on_c, 0, 58, 80
2, 73783, Note_on_c, 0, 46, 0
2, 73793, Note_on_c, 0, 58, 0
2, 73816, Note_on_c, 0, 63, 80
2, 73818, Note_on_c, 0, 51, 80
2, 73823, Note_on_c, 0, 75, 80
2, 73824, Note_on_c, 0, 70, 80
2, 73919, Note_on_c, 0, 51, 0
2, 73923, Note_on_c, 0, 75, 0
2, 73933, Note_on_c, 0, 70, 0
2, 73938, Note_on_c, 0, 63, 0
2, 74087, Note_on_c, 0, 56, 80
2, 74093, Note_on_c, 0, 74, 80
2, 74095, Note_on_c, 0, 70, 80
2, 74095, Note_on_c, 0, 77, 80
2, 74097, Note_on_c, 0, 82, 80
2, 74099, Note_on_c, 0, 68, 80
2, 74200, Note_on_c, 0, 68, 0
2, 74200, Note_on_c, 0, 56, 0
2, 74225, Note_on_c, 0, 55, 80
2, 74230, Note_on_c, 0, 67, 80
2, 74261, Note_on_c, 0, 67, 0
2, 74273, Note_on_c, 0, 55, 0
2, 74286, Note_on_c, 0, 54, 80
2, 74291, Note_on_c, 0, 66, 80
2, 74385, Note_on_c, 0, 54, 0
2, 74395, Note_on_c, 0, 66, 0
2, 74418, Note_on_c, 0, 53, 80
2, 74418, Note_on_c, 0, 65, 80
2, 74454, Note_on_c, 0, 65, 0
2, 74466, Note_on_c, 0, 53, 0
2, 74482, Note_on_c, 0, 52, 80
2, 74482, Note_on_c, 0, 64, 80
2, 74523, Note_on_c, 0, 52, 0
2, 74533, Note_on_c, 0, 64, 0
2, 74546, Note_on_c, 0, 51, 80
2, 74546, Note_on_c, 0, 63, 80
2, 74588, Note_on_c, 0, 77, 0
2, 74590, Note_on_c, 0, 51, 0
2, 74590, Note_on_c, 0, 82, 0
2, 74592, Note_on_c, 0, 70, 0
2, 74598, Note_on_c, 0, 63, 0
2, 74612, Note_on_c, 0, 50, 80
2, 74612, Note_on_c, 0, 62, 80
2, 74614, Note_on_c, 0, 70, 80
2, 74616, Note_on_c, 0, 77, 80
2, 74620, Note_on_c, 0, 82, 80
2, 74716, Note_on_c, 0, 50, 0
2, 74721, Note_on_c, 0, 62, 0
2, 74741, Note_on_c, 0, 49, 80
2, 74743, Note_on_c, 0, 61, 80
2, 74773, Note_on_c, 0, 49, 0
2, 74775, Note_on_c, 0, 61, 0
2, 74805, Note_on_c, 0, 48, 80
2, 74805, Note_on_c, 0, 60, 80
2, 74851, Note_on_c, 0, 77, 0
2, 74851, Note_on_c, 0, 82, 0
2, 74853, Note_on_c, 0, 70, 0
2, 74855, Note_on_c, 0, 74, 0
2, 74912, Note_on_c, 0, 48, 0
2, 74917, Note_on_c, 0, 60, 0
2, 74937, Note_on_c, 0, 47, 80
2, 74939, Note_on_c, 0, 59, 80
2, 74980, Note_on_c, 0, 47, 0
2, 74985, Note_on_c, 0, 59, 0
2, 75008, Note_on_c, 0, 58, 80
2, 75013, Note_on_c, 0, 46, 80
2, 75045, Note_on_c, 0, 46, 0
2, 75045, Note_on_c, 0, 58, 0
2, 75072, Note_on_c, 0, 45, 80
2, 75072, Note_on_c, 0, 57, 80
2, 75114, Note_on_c, 0, 45, 0
2, 75120, Note_on_c, 0, 57, 0
2, 75144, Note_on_c, 0, 56, 80
2, 75145, Note_on_c, 0, 44, 80
2, 75145, Note_on_c, 0, 70, 80
2, 75145, Note_on_c, 0, 74, 80
2, 75145, Note_on_c, 0, 77, 80
2, 75150, Note_on_c, 0, 82, 80
2, 75248, Note_on_c, 0, 44, 0
2, 75255, Note_on_c, 0, 56, 0
2, 75271, Note_on_c, 0, 55, 80
2, 75278, Note_on_c, 0, 43, 80
2, 75310, Note_on_c, 0, 43, 0
2, 75319, Note_on_c, 0, 55, 0
2, 75337, Note_on_c, 0, 42, 80
2, 75339, Note_on_c, 0, 54, 80
2, 75440, Note_on_c, 0, 42, 0
2, 75442, Note_on_c, 0, 54, 0
2, 75467, Note_on_c, 0, 41, 80
2, 75469, Note_on_c, 0, 53, 80
2, 75501, Note_on_c, 0, 41, 0
2, 75510, Note_on_c, 0, 53, 0
2, 75528, Note_on_c, 0, 40, 80
2, 75538, Note_on_c, 0, 52, 80
2, 75568, Note_on_c, 0, 40, 0
2, 75577, Note_on_c, 0, 52, 0
2, 75598, Note_on_c, 0, 51, 80
2, 75600, Note_on_c, 0, 39, 80
2, 75638, Note_on_c, 0, 39, 0
2, 75643, Note_on_c, 0, 51, 0
2, 75645, Note_on_c, 0, 77, 0
2, 75645, Note_on_c, 0, 82, 0
2, 75651, Note_on_c, 0, 74, 0
2, 75651, Note_on_c, 0, 70, 0
2, 75668, Note_on_c, 0, 38, 80
2, 75668, Note_on_c, 0, 50, 80
2, 75773, Note_on_c, 0, 38, 0
2, 75778, Note_on_c, 0, 50, 0
2, 75942, Note_on_c, 0, 41, 80
2, 75942, Note_on_c, 0, 74, 80
2, 75944, Note_on_c, 0, 53, 80
2, 75946, Note_on_c, 0, 70, 80
2, 75946, Note_on_c, 0, 77, 80
2, 75948, Note_on_c, 0, 82, 80
2, 76034, Note_on_c, 0, 41, 0
2, 76044, Note_on_c, 0, 53, 0
2, 76046, Note_on_c, 0, 77, 0
2, 76046, Note_on_c, 0, 82, 0
2, 76053, Note_on_c, 0, 74, 0
2, 76053, Note_on_c, 0, 70, 0
2, 76172, Note_on_c, 0, 79, 80
2, 76192, Note_on_c, 0, 39, 80
2, 76192, Note_on_c, 0, 51, 80
2, 76192, Note_on_c, 0, 82, 80
2, 76201, Note_on_c, 0, 84, 80
2, 76206, Note_on_c, 0, 79, 0
2, 76229, Note_on_c, 0, 82, 0
2, 76236, Note_on_c, 0, 84, 0
2, 76266, Note_on_c, 0, 82, 80
2, 76291, Note_on_c, 0, 39, 0
2, 76293, Note_on_c, 0, 51, 0
2, 76302, Note_on_c, 0, 82, 0
2, 76314, Note_on_c, 0, 51, 80
2, 76323, Note_on_c, 0, 55, 80
2, 76328, Note_on_c, 0, 58, 80
2, 76330, Note_on_c, 0, 79, 80
2, 76330, Note_on_c, 0, 87, 80
2, 76367, Note_on_c, 0, 87, 0
2, 76367, Note_on_c, 0, 79, 0
2, 76392, Note_on_c, 0, 87, 80
2, 76401, Note_on_c, 0, 79, 80
2, 76429, Note_on_c, 0, 58, 0
2, 76431, Note_on_c, 0, 51, 0
2, 76436, Note_on_c, 0, 55, 0
2, 76456, Note_on_c, 0, 40, 80
2, 76458, Note_on_c, 0, 52, 80
2, 76499, Note_on_c, 0, 79, 0
2, 76504, Note_on_c, 0, 87, 0
2, 76527, Note_on_c, 0, 72, 80
2, 76527, Note_on_c, 0, 79, 80
2, 76527, Note_on_c, 0, 84, 80
2, 76555, Note_on_c, 0, 40, 0
2, 76560, Note_on_c, 0, 52, 0
2, 76587, Note_on_c, 0, 55, 80
2, 76587, Note_on_c, 0, 61, 80
2, 76589, Note_on_c, 0, 58, 80
2, 76635, Note_on_c, 0, 84, 0
2, 76635, Note_on_c, 0, 72, 0
2, 76640, Note_on_c, 0, 79, 0
2, 76668, Note_on_c, 0, 82, 80
2, 76700, Note_on_c, 0, 61, 0
2, 76704, Note_on_c, 0, 58, 0
2, 76706, Note_on_c, 0, 55, 0
2, 76706, Note_on_c, 0, 82, 0
2, 76725, Note_on_c, 0, 41, 80
2, 76727, Note_on_c, 0, 53, 80
2, 76731, Note_on_c, 0, 80, 80
2, 76781, Note_on_c, 0, 82, 80
2, 76786, Note_on_c, 0, 80, 0
2, 76824, Note_on_c, 0, 82, 0
2, 76824, Note_on_c, 0, 41, 0
2, 76824, Note_on_c, 0, 80, 80
2, 76836, Note_on_c, 0, 53, 0
2, 76852, Note_on_c, 0, 58, 80
2, 76857, Note_on_c, 0, 65, 80
2, 76859, Note_on_c, 0, 56, 80
2, 76859, Note_on_c, 0, 62, 80
2, 76866, Note_on_c, 0, 72, 80
2, 76871, Note_on_c, 0, 80, 0
2, 76907, Note_on_c, 0, 72, 0
2, 76914, Note_on_c, 0, 73, 80
2, 76955, Note_on_c, 0, 73, 0
2, 76960, Note_on_c, 0, 74, 80
2, 76965, Note_on_c, 0, 62, 0
2, 76965, Note_on_c, 0, 56, 0
2, 76965, Note_on_c, 0, 58, 0
2, 76965, Note_on_c, 0, 65, 0
2, 76990, Note_on_c, 0, 44, 80
2, 76990, Note_on_c, 0, 56, 80
2, 77001, Note_on_c, 0, 74, 0
2, 77001, Note_on_c, 0, 80, 80
2, 77047, Note_on_c, 0, 80, 0
2, 77070, Note_on_c, 0, 79, 80
2, 77095, Note_on_c, 0, 44, 0
2, 77130, Note_on_c, 0, 58, 80
2, 77130, Note_on_c, 0, 62, 80
2, 77130, Note_on_c, 0, 65, 80
2, 77168, Note_on_c, 0, 79, 0
2, 77196, Note_on_c, 0, 77, 80
2, 77231, Note_on_c, 0, 62, 0
2, 77231, Note_on_c, 0, 65, 0
2, 77231, Note_on_c, 0, 58, 0
2, 77232, Note_on_c, 0, 56, 0
2, 77232, Note_on_c, 0, 77, 0
2, 77253, Note_on_c, 0, 55, 80
2, 77257, Note_on_c, 0, 43, 80
2, 77262, Note_on_c, 0, 75, 80
2, 77299, Note_on_c, 0, 75, 0
2, 77304, Note_on_c, 0, 77, 80
2, 77347, Note_on_c, 0, 77, 0
2, 77358, Note_on_c, 0, 75, 80
2, 77365, Note_on_c, 0, 43, 0
2, 77393, Note_on_c, 0, 75, 0
2, 77393, Note_on_c, 0, 58, 80
2, 77393, Note_on_c, 0, 63, 80
2, 77395, Note_on_c, 0, 72, 80
2, 77443, Note_on_c, 0, 72, 0
2, 77471, Note_on_c, 0, 75, 80
2, 77502, Note_on_c, 0, 75, 0
2, 77504, Note_on_c, 0, 58, 0
2, 77504, Note_on_c, 0, 55, 0
2, 77516, Note_on_c, 0, 63, 0
2, 77529, Note_on_c, 0, 42, 80
2, 77529, Note_on_c, 0, 54, 80
2, 77536, Note_on_c, 0, 78, 80
2, 77579, Note_on_c, 0, 78, 0
2, 77597, Note_on_c, 0, 80, 80
2, 77599, Note_on_c, 0, 75, 80
2, 77599, Note_on_c, 0, 78, 80
2, 77599, Note_on_c, 0, 84, 80
2, 77629, Note_on_c, 0, 42, 0
2, 77631, Note_on_c, 0, 54, 0
2, 77654, Note_on_c, 0, 57, 80
2, 77659, Note_on_c, 0, 63, 80
2, 77661, Note_on_c, 0, 60, 80
2, 77663, Note_on_c, 0, 66, 80
2, 77697, Note_on_c, 0, 75, 0
2, 77702, Note_on_c, 0, 84, 0
2, 77704, Note_on_c, 0, 78, 0
2, 77711, Note_on_c, 0, 80, 0
2, 77731, Note_on_c, 0, 82, 80
2, 77767, Note_on_c, 0, 57, 0
2, 77767, Note_on_c, 0, 60, 0
2, 77767, Note_on_c, 0, 66, 0
2, 77769, Note_on_c, 0, 82, 0
2, 77779, Note_on_c, 0, 63, 0
2, 77790, Note_on_c, 0, 41, 80
2, 77792, Note_on_c, 0, 53, 80
2, 77797, Note_on_c, 0, 80, 80
2, 77845, Note_on_c, 0, 82, 80
2, 77847, Note_on_c, 0, 80, 0
2, 77881, Note_on_c, 0, 82, 0
2, 77886, Note_on_c, 0, 80, 80
2, 77888, Note_on_c, 0, 41, 0
2, 77904, Note_on_c, 0, 53, 0
2, 77916, Note_on_c, 0, 56, 80
2, 77921, Note_on_c, 0, 58, 80
2, 77921, Note_on_c, 0, 65, 80
2, 77923, Note_on_c, 0, 62, 80
2, 77934, Note_on_c, 0, 80, 0
2, 77934, Note_on_c, 0, 72, 80
2, 77971, Note_on_c, 0, 72, 0
2, 77980, Note_on_c, 0, 73, 80
2, 78010, Note_on_c, 0, 73, 0
2, 78020, Note_on_c, 0, 74, 80
2, 78026, Note_on_c, 0, 58, 0
2, 78031, Note_on_c, 0, 62, 0
2, 78031, Note_on_c, 0, 65, 0
2, 78051, Note_on_c, 0, 44, 80
2, 78053, Note_on_c, 0, 80, 80
2, 78065, Note_on_c, 0, 74, 0
2, 78108, Note_on_c, 0, 80, 0
2, 78133, Note_on_c, 0, 79, 80
2, 78158, Note_on_c, 0, 44, 0
2, 78188, Note_on_c, 0, 65, 80
2, 78190, Note_on_c, 0, 58, 80
2, 78190, Note_on_c, 0, 62, 80
2, 78238, Note_on_c, 0, 79, 0
2, 78265, Note_on_c, 0, 82, 80
2, 78302, Note_on_c, 0, 58, 0
2, 78302, Note_on_c, 0, 62, 0
2, 78304, Note_on_c, 0, 82, 0
2, 78306, Note_on_c, 0, 65, 0
2, 78306, Note_on_c, 0, 56, 0
2, 78326, Note_on_c, 0, 55, 80
2, 78331, Note_on_c, 0, 43, 80
2, 78333, Note_on_c, 0, 84, 80
2, 78369, Note_on_c, 0, 84, 0
2, 78401, Note_on_c, 0, 82, 80
2, 78432, Note_on_c, 0, 55, 0
2, 78434, Note_on_c, 0, 82, 0
2, 78434, Note_on_c, 0, 43, 0
2, 78453, Note_on_c, 0, 55, 80
2, 78462, Note_on_c, 0, 58, 80
2, 78462, Note_on_c, 0, 63, 80
2, 78462, Note_on_c, 0, 87, 80
2, 78469, Note_on_c, 0, 79, 80
2, 78501, Note_on_c, 0, 79, 0
2, 78501, Note_on_c, 0, 87, 0
2, 78528, Note_on_c, 0, 79, 80
2, 78528, Note_on_c, 0, 87, 80
2, 78560, Note_on_c, 0, 58, 0
2, 78572, Note_on_c, 0, 55, 0
2, 78574, Note_on_c, 0, 63, 0
2, 78590, Note_on_c, 0, 58, 80
2, 78592, Note_on_c, 0, 46, 80
2, 78630, Note_on_c, 0, 87, 0
2, 78632, Note_on_c, 0, 79, 0
2, 78652, Note_on_c, 0, 84, 80
2, 78657, Note_on_c, 0, 72, 80
2, 78657, Note_on_c, 0, 79, 80
2, 78685, Note_on_c, 0, 46, 0
2, 78695, Note_on_c, 0, 58, 0
2, 78715, Note_on_c, 0, 58, 80
2, 78715, Note_on_c, 0, 63, 80
2, 78720, Note_on_c, 0, 67, 80
2, 78756, Note_on_c, 0, 72, 0
2, 78756, Note_on_c, 0, 79, 0
2, 78761, Note_on_c, 0, 84, 0
2, 78789, Note_on_c, 0, 81, 80
2, 78816, Note_on_c, 0, 58, 0
2, 78818, Note_on_c, 0, 67, 0
2, 78823, Note_on_c, 0, 81, 0
2, 78830, Note_on_c, 0, 63, 0
2, 78840, Note_on_c, 0, 47, 80
2, 78853, Note_on_c, 0, 59, 80
2, 78858, Note_on_c, 0, 79, 80
2, 78894, Note_on_c, 0, 79, 0
2, 78908, Note_on_c, 0, 81, 80
2, 78942, Note_on_c, 0, 81, 0
2, 78942, Note_on_c, 0, 47, 0
2, 78942, Note_on_c, 0, 79, 80
2, 78954, Note_on_c, 0, 59, 0
2, 78974, Note_on_c, 0, 55, 80
2, 78976, Note_on_c, 0, 59, 80
2, 78976, Note_on_c, 0, 62, 80
2, 78978, Note_on_c, 0, 79, 0
2, 78983, Note_on_c, 0, 74, 80
2, 79024, Note_on_c, 0, 74, 0
2, 79049, Note_on_c, 0, 79, 80
2, 79083, Note_on_c, 0, 62, 0
2, 79083, Note_on_c, 0, 55, 0
2, 79083, Note_on_c, 0, 59, 0
2, 79090, Note_on_c, 0, 79, 0
2, 79102, Note_on_c, 0, 50, 80
2, 79104, Note_on_c, 0, 38, 80
2, 79124, Note_on_c, 0, 81, 80
2, 79153, Note_on_c, 0, 81, 0
2, 79185, Note_on_c, 0, 74, 80
2, 79185, Note_on_c, 0, 79, 80
2, 79203, Note_on_c, 0, 38, 0
2, 79213, Note_on_c, 0, 50, 0
2, 79241, Note_on_c, 0, 55, 80
2, 79241, Note_on_c, 0, 59, 80
2, 79246, Note_on_c, 0, 62, 80
2, 79289, Note_on_c, 0, 79, 0
2, 79294, Note_on_c, 0, 74, 0
2, 79321, Note_on_c, 0, 81, 80
2, 79349, Note_on_c, 0, 81, 0
2, 79354, Note_on_c, 0, 62, 0
2, 79356, Note_on_c, 0, 59, 0
2, 79358, Note_on_c, 0, 55, 0
2, 79369, Note_on_c, 0, 57, 80
2, 79374, Note_on_c, 0, 45, 80
2, 79384, Note_on_c, 0, 78, 80
2, 79422, Note_on_c, 0, 78, 0
2, 79432, Note_on_c, 0, 81, 80
2, 79466, Note_on_c, 0, 81, 0
2, 79473, Note_on_c, 0, 78, 80
2, 79478, Note_on_c, 0, 45, 0
2, 79506, Note_on_c, 0, 60, 80
2, 79511, Note_on_c, 0, 62, 80
2, 79511, Note_on_c, 0, 66, 80
2, 79515, Note_on_c, 0, 78, 0
2, 79515, Note_on_c, 0, 72, 80
2, 79559, Note_on_c, 0, 72, 0
2, 79577, Note_on_c, 0, 78, 80
2, 79611, Note_on_c, 0, 66, 0
2, 79611, Note_on_c, 0, 62, 0
2, 79616, Note_on_c, 0, 57, 0
2, 79621, Note_on_c, 0, 60, 0
2, 79623, Note_on_c, 0, 78, 0
2, 79636, Note_on_c, 0, 38, 80
2, 79641, Note_on_c, 0, 50, 80
2, 79657, Note_on_c, 0, 81, 80
2, 79687, Note_on_c, 0, 81, 0
2, 79710, Note_on_c, 0, 78, 80
2, 79745, Note_on_c, 0, 38, 0
2, 79754, Note_on_c, 0, 50, 0
2, 79773, Note_on_c, 0, 57, 80
2, 79773, Note_on_c, 0, 60, 80
2, 79777, Note_on_c, 0, 62, 80
2, 79782, Note_on_c, 0, 66, 80
2, 79824, Note_on_c, 0, 78, 0
2, 79855, Note_on_c, 0, 81, 80
2, 79887, Note_on_c, 0, 62, 0
2, 79887, Note_on_c, 0, 66, 0
2, 79887, Note_on_c, 0, 57, 0
2, 79887, Note_on_c, 0, 60, 0
2, 79892, Note_on_c, 0, 81, 0
2, 79912, Note_on_c, 0, 55, 80
2, 79919, Note_on_c, 0, 43, 80
2, 79925, Note_on_c, 0, 79, 80
2, 79962, Note_on_c, 0, 79, 0
2, 79971, Note_on_c, 0, 81, 80
2, 80008, Note_on_c, 0, 81, 0
2, 80021, Note_on_c, 0, 43, 0
2, 80021, Note_on_c, 0, 79, 80
2, 80046, Note_on_c, 0, 59, 80
2, 80048, Note_on_c, 0, 74, 80
2, 80050, Note_on_c, 0, 79, 0
2, 80050, Note_on_c, 0, 62, 80
2, 80050, Note_on_c, 0, 65, 80
2, 80091, Note_on_c, 0, 74, 0
2, 80119, Note_on_c, 0, 79, 80
2, 80151, Note_on_c, 0, 55, 0
2, 80156, Note_on_c, 0, 65, 0
2, 80158, Note_on_c, 0, 79, 0
2, 80160, Note_on_c, 0, 59, 0
2, 80160, Note_on_c, 0, 62, 0
2, 80171, Note_on_c, 0, 41, 80
2, 80184, Note_on_c, 0, 53, 80
2, 80191, Note_on_c, 0, 81, 80
2, 80226, Note_on_c, 0, 81, 0
2, 80251, Note_on_c, 0, 74, 80
2, 80251, Note_on_c, 0, 80, 80
2, 80280, Note_on_c, 0, 41, 0
2, 80294, Note_on_c, 0, 53, 0
2, 80310, Note_on_c, 0, 58, 80
2, 80312, Note_on_c, 0, 56, 80
2, 80312, Note_on_c, 0, 62, 80
2, 80314, Note_on_c, 0, 65, 80
2, 80420, Note_on_c, 0, 56, 0
2, 80420, Note_on_c, 0, 58, 0
2, 80424, Note_on_c, 0, 62, 0
2, 80424, Note_on_c, 0, 65, 0
2, 80424, Note_on_c, 0, 79, 80
2, 80429, Note_on_c, 0, 74, 0
2, 80434, Note_on_c, 0, 80, 0
2, 80434, Note_on_c, 0, 82, 80
2, 80441, Note_on_c, 0, 39, 80
2, 80446, Note_on_c, 0, 51, 80
2, 80448, Note_on_c, 0, 84, 80
2, 80461, Note_on_c, 0, 79, 0
2, 80471, Note_on_c, 0, 82, 0
2, 80491, Note_on_c, 0, 84, 0
2, 80520, Note_on_c, 0, 82, 80
2, 80544, Note_on_c, 0, 39, 0
2, 80555, Note_on_c, 0, 82, 0
2, 80557, Note_on_c, 0, 51, 0
2, 80577, Note_on_c, 0, 51, 80
2, 80582, Note_on_c, 0, 58, 80
2, 80584, Note_on_c, 0, 55, 80
2, 80591, Note_on_c, 0, 87, 80
2, 80595, Note_on_c, 0, 79, 80
2, 80625, Note_on_c, 0, 79, 0
2, 80630, Note_on_c, 0, 87, 0
2, 80653, Note_on_c, 0, 79, 80
2, 80658, Note_on_c, 0, 87, 80
2, 80689, Note_on_c, 0, 51, 0
2, 80694, Note_on_c, 0, 58, 0
2, 80694, Note_on_c, 0, 55, 0
2, 80714, Note_on_c, 0, 42, 80
2, 80716, Note_on_c, 0, 54, 80
2, 80755, Note_on_c, 0, 87, 0
2, 80757, Note_on_c, 0, 79, 0
2, 80784, Note_on_c, 0, 72, 80
2, 80784, Note_on_c, 0, 79, 80
2, 80784, Note_on_c, 0, 84, 80
2, 80814, Note_on_c, 0, 54, 0
2, 80816, Note_on_c, 0, 42, 0
2, 80846, Note_on_c, 0, 60, 80
2, 80846, Note_on_c, 0, 63, 80
2, 80851, Note_on_c, 0, 66, 80
2, 80851, Note_on_c, 0, 69, 80
2, 80887, Note_on_c, 0, 79, 0
2, 80887, Note_on_c, 0, 84, 0
2, 80887, Note_on_c, 0, 72, 0
2, 80917, Note_on_c, 0, 82, 80
2, 80949, Note_on_c, 0, 66, 0
2, 80953, Note_on_c, 0, 82, 0
2, 80955, Note_on_c, 0, 60, 0
2, 80957, Note_on_c, 0, 69, 0
2, 80964, Note_on_c, 0, 63, 0
2, 80971, Note_on_c, 0, 41, 80
2, 80977, Note_on_c, 0, 53, 80
2, 80984, Note_on_c, 0, 80, 80
2, 81027, Note_on_c, 0, 80, 0
2, 81027, Note_on_c, 0, 82, 80
2, 81059, Note_on_c, 0, 82, 0
2, 81066, Note_on_c, 0, 41, 0
2, 81071, Note_on_c, 0, 80, 80
2, 81082, Note_on_c, 0, 53, 0
2, 81102, Note_on_c, 0, 62, 80
2, 81102, Note_on_c, 0, 65, 80
2, 81104, Note_on_c, 0, 56, 80
2, 81104, Note_on_c, 0, 58, 80
2, 81111, Note_on_c, 0, 72, 80
2, 81116, Note_on_c, 0, 80, 0
2, 81147, Note_on_c, 0, 72, 0
2, 81152, Note_on_c, 0, 73, 80
2, 81193, Note_on_c, 0, 73, 0
2, 81193, Note_on_c, 0, 74, 80
2, 81198, Note_on_c, 0, 62, 0
2, 81200, Note_on_c, 0, 58, 0
2, 81202, Note_on_c, 0, 65, 0
2, 81232, Note_on_c, 0, 44, 80
2, 81239, Note_on_c, 0, 80, 80
2, 81243, Note_on_c, 0, 74, 0
2, 81282, Note_on_c, 0, 80, 0
2, 81298, Note_on_c, 0, 79, 80
2, 81330, Note_on_c, 0, 44, 0
2, 81339, Note_on_c, 0, 56, 0
2, 81360, Note_on_c, 0, 56, 80
2, 81360, Note_on_c, 0, 58, 80
2, 81360, Note_on_c, 0, 62, 80
2, 81361, Note_on_c, 0, 65, 80
2, 81403, Note_on_c, 0, 79, 0
2, 81431, Note_on_c, 0, 77, 80
2, 81462, Note_on_c, 0, 62, 0
2, 81462, Note_on_c, 0, 65, 0
2, 81462, Note_on_c, 0, 56, 0
2, 81464, Note_on_c, 0, 58, 0
2, 81471, Note_on_c, 0, 77, 0
2, 81476, Note_on_c, 0, 79, 80
2, 81489, Note_on_c, 0, 82, 80
2, 81491, Note_on_c, 0, 55, 80
2, 81496, Note_on_c, 0, 43, 80
2, 81503, Note_on_c, 0, 84, 80
2, 81507, Note_on_c, 0, 79, 0
2, 81526, Note_on_c, 0, 82, 0
2, 81544, Note_on_c, 0, 84, 0
2, 81564, Note_on_c, 0, 82, 80
2, 81602, Note_on_c, 0, 82, 0
2, 81602, Note_on_c, 0, 43, 0
2, 81627, Note_on_c, 0, 58, 80
2, 81627, Note_on_c, 0, 63, 80
2, 81629, Note_on_c, 0, 79, 80
2, 81629, Note_on_c, 0, 87, 80
2, 81661, Note_on_c, 0, 87, 0
2, 81672, Note_on_c, 0, 79, 0
2, 81700, Note_on_c, 0, 87, 80
2, 81702, Note_on_c, 0, 79, 80
2, 81732, Note_on_c, 0, 55, 0
2, 81732, Note_on_c, 0, 58, 0
2, 81739, Note_on_c, 0, 63, 0
2, 81757, Note_on_c, 0, 42, 80
2, 81759, Note_on_c, 0, 54, 80
2, 81800, Note_on_c, 0, 87, 0
2, 81800, Note_on_c, 0, 79, 0
2, 81820, Note_on_c, 0, 79, 80
2, 81822, Note_on_c, 0, 84, 80
2, 81827, Note_on_c, 0, 72, 80
2, 81852, Note_on_c, 0, 42, 0
2, 81852, Note_on_c, 0, 54, 0
2, 81884, Note_on_c, 0, 60, 80
2, 81888, Note_on_c, 0, 63, 80
2, 81888, Note_on_c, 0, 66, 80
2, 81888, Note_on_c, 0, 69, 80
2, 81923, Note_on_c, 0, 84, 0
2, 81923, Note_on_c, 0, 79, 0
2, 81930, Note_on_c, 0, 72, 0
2, 81953, Note_on_c, 0, 82, 80
2, 81984, Note_on_c, 0, 66, 0
2, 81991, Note_on_c, 0, 82, 0
2, 81993, Note_on_c, 0, 69, 0
2, 81995, Note_on_c, 0, 63, 0
2, 81995, Note_on_c, 0, 60, 0
2, 82005, Note_on_c, 0, 41, 80
2, 82016, Note_on_c, 0, 53, 80
2, 82018, Note_on_c, 0, 80, 80
2, 82066, Note_on_c, 0, 80, 0
2, 82068, Note_on_c, 0, 82, 80
2, 82106, Note_on_c, 0, 82, 0
2, 82111, Note_on_c, 0, 41, 0
2, 82113, Note_on_c, 0, 80, 80
2, 82125, Note_on_c, 0, 53, 0
2, 82143, Note_on_c, 0, 56, 80
2, 82145, Note_on_c, 0, 58, 80
2, 82145, Note_on_c, 0, 62, 80
2, 82152, Note_on_c, 0, 65, 80
2, 82156, Note_on_c, 0, 72, 80
2, 82158, Note_on_c, 0, 80, 0
2, 82193, Note_on_c, 0, 72, 0
2, 82200, Note_on_c, 0, 73, 80
2, 82236, Note_on_c, 0, 73, 0
2, 82238, Note_on_c, 0, 74, 80
2, 82249, Note_on_c, 0, 65, 0
2, 82249, Note_on_c, 0, 62, 0
2, 82249, Note_on_c, 0, 56, 0
2, 82251, Note_on_c, 0, 58, 0
2, 82279, Note_on_c, 0, 56, 80
2, 82284, Note_on_c, 0, 44, 80
2, 82286, Note_on_c, 0, 80, 80
2, 82291, Note_on_c, 0, 74, 0
2, 82327, Note_on_c, 0, 80, 0
2, 82352, Note_on_c, 0, 79, 80
2, 82387, Note_on_c, 0, 44, 0
2, 82392, Note_on_c, 0, 56, 0
2, 82412, Note_on_c, 0, 56, 80
2, 82416, Note_on_c, 0, 58, 80
2, 82418, Note_on_c, 0, 62, 80
2, 82420, Note_on_c, 0, 65, 80
2, 82459, Note_on_c, 0, 79, 0
2, 82487, Note_on_c, 0, 77, 80
2, 82523, Note_on_c, 0, 56, 0
2, 82528, Note_on_c, 0, 65, 0
2, 82528, Note_on_c, 0, 62, 0
2, 82530, Note_on_c, 0, 58, 0
2, 82532, Note_on_c, 0, 77, 0
2, 82548, Note_on_c, 0, 51, 80
2, 82553, Note_on_c, 0, 63, 80
2, 82555, Note_on_c, 0, 75, 80
2, 82591, Note_on_c, 0, 75, 0
2, 82601, Note_on_c, 0, 77, 80
2, 82647, Note_on_c, 0, 77, 0
2, 82647, Note_on_c, 0, 75, 80
2, 82660, Note_on_c, 0, 51, 0
2, 82679, Note_on_c, 0, 75, 0
2, 82683, Note_on_c, 0, 58, 80
2, 82688, Note_on_c, 0, 67, 80
2, 82688, Note_on_c, 0, 74, 80
2, 82734, Note_on_c, 0, 74, 0
2, 82759, Note_on_c, 0, 75, 80
2, 82791, Note_on_c, 0, 67, 0
2, 82791, Note_on_c, 0, 58, 0
2, 82800, Note_on_c, 0, 63, 0
2, 82824, Note_on_c, 0, 49, 80
2, 82828, Note_on_c, 0, 61, 80
2, 82860, Note_on_c, 0, 75, 0
2, 82892, Note_on_c, 0, 79, 80
2, 82892, Note_on_c, 0, 87, 80
2, 82923, Note_on_c, 0, 61, 0
2, 82923, Note_on_c, 0, 49, 0
2, 82951, Note_on_c, 0, 58, 80
2, 82951, Note_on_c, 0, 61, 80
2, 82951, Note_on_c, 0, 63, 80
2, 82961, Note_on_c, 0, 67, 80
2, 82992, Note_on_c, 0, 87, 0
2, 82997, Note_on_c, 0, 79, 0
2, 83020, Note_on_c, 0, 80, 80
2, 83055, Note_on_c, 0, 58, 0
2, 83060, Note_on_c, 0, 67, 0
2, 83060, Note_on_c, 0, 61, 0
2, 83069, Note_on_c, 0, 80, 0
2, 83071, Note_on_c, 0, 63, 0
2, 83081, Note_on_c, 0, 60, 80
2, 83086, Note_on_c, 0, 48, 80
2, 83095, Note_on_c, 0, 84, 80
2, 83134, Note_on_c, 0, 84, 0
2, 83157, Note_on_c, 0, 82, 80
2, 83188, Note_on_c, 0, 48, 0
2, 83195, Note_on_c, 0, 82, 0
2, 83220, Note_on_c, 0, 56, 80
2, 83222, Note_on_c, 0, 80, 80
2, 83224, Note_on_c, 0, 51, 80
2, 83270, Note_on_c, 0, 80, 0
2, 83295, Note_on_c, 0, 79, 80
2, 83295, Note_on_c, 0, 84, 80
2, 83325, Note_on_c, 0, 51, 0
2, 83329, Note_on_c, 0, 60, 0
2, 83329, Note_on_c, 0, 56, 0
2, 83354, Note_on_c, 0, 46, 80
2, 83359, Note_on_c, 0, 58, 80
2, 83396, Note_on_c, 0, 79, 0
2, 83400, Note_on_c, 0, 84, 0
2, 83432, Note_on_c, 0, 82, 80
2, 83455, Note_on_c, 0, 46, 0
2, 83460, Note_on_c, 0, 58, 0
2, 83462, Note_on_c, 0, 82, 0
2, 83482, Note_on_c, 0, 46, 80
2, 83482, Note_on_c, 0, 58, 80
2, 83492, Note_on_c, 0, 80, 80
2, 83586, Note_on_c, 0, 58, 0
2, 83586, Note_on_c, 0, 46, 0
2, 83602, Note_on_c, 0, 80, 0
2, 83612, Note_on_c, 0, 69, 80
2, 83614, Note_on_c, 0, 45, 80
2, 83614, Note_on_c, 0, 57, 80
2, 83620, Note_on_c, 0, 75, 80
2, 83620, Note_on_c, 0, 79, 80
2, 83712, Note_on_c, 0, 45, 0
2, 83718, Note_on_c, 0, 75, 0
2, 83718, Note_on_c, 0, 69, 0
2, 83723, Note_on_c, 0, 79, 0
2, 83736, Note_on_c, 0, 60, 80
2, 83736, Note_on_c, 0, 63, 80
2, 83803, Note_on_c, 0, 74, 80
2, 83808, Note_on_c, 0, 70, 80
2, 83808, Note_on_c, 0, 79, 80
2, 83854, Note_on_c, 0, 60, 0
2, 83854, Note_on_c, 0, 57, 0
2, 83856, Note_on_c, 0, 63, 0
2, 83865, Note_on_c, 0, 58, 80
2, 83867, Note_on_c, 0, 46, 80
2, 83908, Note_on_c, 0, 79, 0
2, 83908, Note_on_c, 0, 70, 0
2, 83913, Note_on_c, 0, 74, 0
2, 83931, Note_on_c, 0, 70, 80
2, 83941, Note_on_c, 0, 82, 80
2, 83969, Note_on_c, 0, 46, 0
2, 83978, Note_on_c, 0, 82, 0
2, 83980, Note_on_c, 0, 58, 0
2, 83987, Note_on_c, 0, 70, 0
2, 84000, Note_on_c, 0, 58, 80
2, 84000, Note_on_c, 0, 62, 80
2, 84002, Note_on_c, 0, 53, 80
2, 84002, Note_on_c, 0, 56, 80
2, 84007, Note_on_c, 0, 72, 80
2, 84007, Note_on_c, 0, 84, 80
2, 84042, Note_on_c, 0, 84, 0
2, 84047, Note_on_c, 0, 72, 0
2, 84072, Note_on_c, 0, 79, 80
2, 84076, Note_on_c, 0, 82, 80
2, 84076, Note_on_c, 0, 87, 80
2, 84078, Note_on_c, 0, 75, 80
2, 84106, Note_on_c, 0, 58, 0
2, 84111, Note_on_c, 0, 56, 0
2, 84111, Note_on_c, 0, 62, 0
2, 84111, Note_on_c, 0, 53, 0
2, 84129, Note_on_c, 0, 51, 80
2, 84139, Note_on_c, 0, 63, 80
2, 84177, Note_on_c, 0, 79, 0
2, 84177, Note_on_c, 0, 75, 0
2, 84179, Note_on_c, 0, 82, 0
2, 84181, Note_on_c, 0, 87, 0
2, 84204, Note_on_c, 0, 87, 80
2, 84206, Note_on_c, 0, 75, 80
2, 84244, Note_on_c, 0, 75, 0
2, 84246, Note_on_c, 0, 51, 0
2, 84248, Note_on_c, 0, 87, 0
2, 84255, Note_on_c, 0, 63, 0
2, 84264, Note_on_c, 0, 50, 80
2, 84269, Note_on_c, 0, 62, 80
2, 84276, Note_on_c, 0, 72, 80
2, 84276, Note_on_c, 0, 84, 80
2, 84377, Note_on_c, 0, 84, 0
2, 84379, Note_on_c, 0, 50, 0
2, 84379, Note_on_c, 0, 62, 0
2, 84381, Note_on_c, 0, 72, 0
2, 84397, Note_on_c, 0, 48, 80
2, 84402, Note_on_c, 0, 60, 80
2, 84404, Note_on_c, 0, 79, 80
2, 84404, Note_on_c, 0, 82, 80
2, 84404, Note_on_c, 0, 87, 80
2, 84406, Note_on_c, 0, 75, 80
2, 84497, Note_on_c, 0, 48, 0
2, 84504, Note_on_c, 0, 87, 0
2, 84505, Note_on_c, 0, 60, 0
2, 84507, Note_on_c, 0, 82, 0
2, 84507, Note_on_c, 0, 75, 0
2, 84507, Note_on_c, 0, 79, 0
2, 84530, Note_on_c, 0, 46, 80
2, 84530, Note_on_c, 0, 78, 80
2, 84532, Note_on_c, 0, 58, 80
2, 84539, Note_on_c, 0, 90, 80
2, 84630, Note_on_c, 0, 58, 0
2, 84630, Note_on_c, 0, 46, 0
2, 84637, Note_on_c, 0, 78, 0
2, 84637, Note_on_c, 0, 90, 0
2, 84653, Note_on_c, 0, 57, 80
2, 84658, Note_on_c, 0, 45, 80
2, 84663, Note_on_c, 0, 91, 80
2, 84668, Note_on_c, 0, 79, 80
2, 84762, Note_on_c, 0, 45, 0
2, 84767, Note_on_c, 0, 79, 0
2, 84771, Note_on_c, 0, 91, 0
2, 84773, Note_on_c, 0, 57, 0
2, 84796, Note_on_c, 0, 48, 80
2, 84796, Note_on_c, 0, 56, 80
2, 84798, Note_on_c, 0, 78, 80
2, 84805, Note_on_c, 0, 90, 80
2, 84840, Note_on_c, 0, 90, 0
2, 84841, Note_on_c, 0, 78, 0
2, 84866, Note_on_c, 0, 79, 80
2, 84871, Note_on_c, 0, 91, 80
2, 84896, Note_on_c, 0, 48, 0
2, 84903, Note_on_c, 0, 56, 0
2, 84923, Note_on_c, 0, 55, 80
2, 84928, Note_on_c, 0, 48, 80
2, 84966, Note_on_c, 0, 79, 0
2, 84966, Note_on_c, 0, 91, 0
2, 84996, Note_on_c, 0, 70, 80
2, 84996, Note_on_c, 0, 82, 80
2, 85032, Note_on_c, 0, 48, 0
2, 85034, Note_on_c, 0, 82, 0
2, 85039, Note_on_c, 0, 70, 0
2, 85041, Note_on_c, 0, 55, 0
2, 85057, Note_on_c, 0, 46, 80
2, 85062, Note_on_c, 0, 58, 80
2, 85064, Note_on_c, 0, 84, 80
2, 85069, Note_on_c, 0, 72, 80
2, 85092, Note_on_c, 0, 46, 0
2, 85105, Note_on_c, 0, 58, 0
2, 85107, Note_on_c, 0, 84, 0
2, 85107, Note_on_c, 0, 72, 0
2, 85128, Note_on_c, 0, 51, 80
2, 85128, Note_on_c, 0, 63, 80
2, 85137, Note_on_c, 0, 75, 80
2, 85137, Note_on_c, 0, 79, 80
2, 85137, Note_on_c, 0, 82, 80
2, 85137, Note_on_c, 0, 87, 80
2, 85235, Note_on_c, 0, 51, 0
2, 85237, Note_on_c, 0, 87, 0
2, 85242, Note_on_c, 0, 79, 0
2, 85242, Note_on_c, 0, 82, 0
2, 85242, Note_on_c, 0, 75, 0
2, 85258, Note_on_c, 0, 51, 80
2, 85263, Note_on_c, 0, 87, 80
2, 85265, Note_on_c, 0, 75, 80
2, 85301, Note_on_c, 0, 51, 0
2, 85303, Note_on_c, 0, 75, 0
2, 85308, Note_on_c, 0, 87, 0
2, 85310, Note_on_c, 0, 63, 0
2, 85330, Note_on_c, 0, 58, 80
2, 85332, Note_on_c, 0, 46, 80
2, 85332, Note_on_c, 0, 72, 80
2, 85332, Note_on_c, 0, 84, 80
2, 85430, Note_on_c, 0, 46, 0
2, 85435, Note_on_c, 0, 58, 0
2, 85437, Note_on_c, 0, 72, 0
2, 85437, Note_on_c, 0, 84, 0
2, 85455, Note_on_c, 0, 51, 80
2, 85462, Note_on_c, 0, 39, 80
2, 85462, Note_on_c, 0, 73, 80
2, 85466, Note_on_c, 0, 79, 80
2, 85466, Note_on_c, 0, 87, 80
2, 85562, Note_on_c, 0, 39, 0
2, 85564, Note_on_c, 0, 51, 0
2, 85566, Note_on_c, 0, 79, 0
2, 85566, Note_on_c, 0, 87, 0
2, 85568, Note_on_c, 0, 73, 0
2, 88796, Note_on_c, 0, 65, 80
2, 88796, Note_on_c, 0, 74, 80
2, 88800, Note_on_c, 0, 70, 80
2, 88802, Note_on_c, 0, 94, 80
2, 88832, Note_on_c, 0, 94, 0
2, 88864, Note_on_c, 0, 86, 80
2, 88900, Note_on_c, 0, 65, 0
2, 88902, Note_on_c, 0, 86, 0
2, 88904, Note_on_c, 0, 74, 0
2, 88909, Note_on_c, 0, 70, 0
2, 88934, Note_on_c, 0, 89, 80
2, 88968, Note_on_c, 0, 89, 0
2, 88996, Note_on_c, 0, 85, 80
2, 88998, Note_on_c, 0, 64, 80
2, 88998, Note_on_c, 0, 70, 80
2, 88998, Note_on_c, 0, 73, 80
2, 89000, Note_on_c, 0, 88, 80
2, 89000, Note_on_c, 0, 93, 80
2, 89066, Note_on_c, 0, 85, 0
2, 89068, Note_on_c, 0, 82, 80
2, 89093, Note_on_c, 0, 88, 0
2, 89093, Note_on_c, 0, 93, 0
2, 89098, Note_on_c, 0, 82, 0
2, 89130, Note_on_c, 0, 86, 80
2, 89164, Note_on_c, 0, 73, 0
2, 89166, Note_on_c, 0, 70, 0
2, 89168, Note_on_c, 0, 86, 0
2, 89170, Note_on_c, 0, 64, 0
2, 89193, Note_on_c, 0, 64, 80
2, 89193, Note_on_c, 0, 73, 80
2, 89198, Note_on_c, 0, 70, 80
2, 89200, Note_on_c, 0, 91, 80
2, 89296, Note_on_c, 0, 73, 0
2, 89301, Note_on_c, 0, 91, 0
2, 89301, Note_on_c, 0, 70, 0
2, 89307, Note_on_c, 0, 64, 0
2, 89319, Note_on_c, 0, 63, 80
2, 89328, Note_on_c, 0, 69, 80
2, 89328, Note_on_c, 0, 72, 80
2, 89333, Note_on_c, 0, 89, 80
2, 89429, Note_on_c, 0, 72, 0
2, 89431, Note_on_c, 0, 89, 0
2, 89433, Note_on_c, 0, 69, 0
2, 89435, Note_on_c, 0, 63, 0
2, 89561, Note_on_c, 0, 84, 80
2, 89577, Note_on_c, 0, 86, 80
2, 89591, Note_on_c, 0, 87, 80
2, 89602, Note_on_c, 0, 84, 0
2, 89604, Note_on_c, 0, 89, 80
2, 89614, Note_on_c, 0, 86, 0
2, 89627, Note_on_c, 0, 87, 0
2, 89637, Note_on_c, 0, 89, 0
2, 89664, Note_on_c, 0, 77, 80
2, 89774, Note_on_c, 0, 77, 0
2, 89802, Note_on_c, 0, 74, 80
2, 89848, Note_on_c, 0, 74, 0
2, 89871, Note_on_c, 0, 58, 80
2, 89876, Note_on_c, 0, 53, 80
2, 89876, Note_on_c, 0, 62, 80
2, 89880, Note_on_c, 0, 70, 80
2, 89880, Note_on_c, 0, 82, 80
2, 89910, Note_on_c, 0, 62, 0
2, 89910, Note_on_c, 0, 58, 0
2, 89912, Note_on_c, 0, 82, 0
2, 89917, Note_on_c, 0, 53, 0
2, 89919, Note_on_c, 0, 70, 0
2, 89939, Note_on_c, 0, 53, 80
2, 89939, Note_on_c, 0, 58, 80
2, 89939, Note_on_c, 0, 62, 80
2, 89941, Note_on_c, 0, 74, 80
2, 89977, Note_on_c, 0, 62, 0
2, 89979, Note_on_c, 0, 58, 0
2, 89986, Note_on_c, 0, 74, 0
2, 90000, Note_on_c, 0, 58, 80
2, 90000, Note_on_c, 0, 62, 80
2, 90006, Note_on_c, 0, 77, 80
2, 90036, Note_on_c, 0, 58, 0
2, 90041, Note_on_c, 0, 53, 0
2, 90041, Note_on_c, 0, 62, 0
2, 90043, Note_on_c, 0, 77, 0
2, 90061, Note_on_c, 0, 58, 80
2, 90063, Note_on_c, 0, 52, 80
2, 90065, Note_on_c, 0, 61, 80
2, 90070, Note_on_c, 0, 69, 80
2, 90074, Note_on_c, 0, 81, 80
2, 90164, Note_on_c, 0, 52, 0
2, 90168, Note_on_c, 0, 58, 0
2, 90168, Note_on_c, 0, 61, 0
2, 90170, Note_on_c, 0, 81, 0
2, 90191, Note_on_c, 0, 52, 80
2, 90195, Note_on_c, 0, 58, 80
2, 90195, Note_on_c, 0, 61, 80
2, 90205, Note_on_c, 0, 81, 80
2, 90233, Note_on_c, 0, 61, 0
2, 90235, Note_on_c, 0, 58, 0
2, 90235, Note_on_c, 0, 52, 0
2, 90237, Note_on_c, 0, 81, 0
2, 90241, Note_on_c, 0, 69, 0
2, 90255, Note_on_c, 0, 61, 80
2, 90257, Note_on_c, 0, 52, 80
2, 90257, Note_on_c, 0, 58, 80
2, 90264, Note_on_c, 0, 67, 80
2, 90264, Note_on_c, 0, 79, 80
2, 90288, Note_on_c, 0, 67, 0
2, 90293, Note_on_c, 0, 79, 0
2, 90355, Note_on_c, 0, 58, 0
2, 90355, Note_on_c, 0, 61, 0
2, 90357, Note_on_c, 0, 52, 0
2, 90377, Note_on_c, 0, 60, 80
2, 90382, Note_on_c, 0, 53, 80
2, 90382, Note_on_c, 0, 65, 80
2, 90384, Note_on_c, 0, 77, 80
2, 90484, Note_on_c, 0, 65, 0
2, 90489, Note_on_c, 0, 60, 0
2, 90489, Note_on_c, 0, 53, 0
2, 90494, Note_on_c, 0, 77, 0
2, 90648, Note_on_c, 0, 53, 80
2, 90648, Note_on_c, 0, 57, 80
2, 90648, Note_on_c, 0, 60, 80
2, 90648, Note_on_c, 0, 63, 80
2, 90649, Note_on_c, 0, 72, 80
2, 90649, Note_on_c, 0, 77, 80
2, 90651, Note_on_c, 0, 65, 80
2, 90651, Note_on_c, 0, 69, 80
2, 90752, Note_on_c, 0, 53, 0
2, 90754, Note_on_c, 0, 69, 0
2, 90754, Note_on_c, 0, 77, 0
2, 90754, Note_on_c, 0, 60, 0
2, 90754, Note_on_c, 0, 57, 0
2, 90754, Note_on_c, 0, 72, 0
2, 90754, Note_on_c, 0, 65, 0
2, 90761, Note_on_c, 0, 63, 0
2, 90910, Note_on_c, 0, 56, 80
2, 90912, Note_on_c, 0, 65, 80
2, 90913, Note_on_c, 0, 46, 80
2, 90913, Note_on_c, 0, 58, 80
2, 90913, Note_on_c, 0, 62, 80
2, 90943, Note_on_c, 0, 46, 0
2, 90948, Note_on_c, 0, 58, 0
2, 90948, Note_on_c, 0, 62, 0
2, 90953, Note_on_c, 0, 65, 0
2, 90953, Note_on_c, 0, 56, 0
2, 90971, Note_on_c, 0, 58, 80
2, 90973, Note_on_c, 0, 62, 80
2, 90975, Note_on_c, 0, 65, 80
2, 90977, Note_on_c, 0, 46, 80
2, 90977, Note_on_c, 0, 56, 80
2, 91078, Note_on_c, 0, 58, 0
2, 91080, Note_on_c, 0, 46, 0
2, 91081, Note_on_c, 0, 56, 0
2, 91081, Note_on_c, 0, 65, 0
2, 91106, Note_on_c, 0, 56, 80
2, 91106, Note_on_c, 0, 58, 80
2, 91111, Note_on_c, 0, 65, 80
2, 91113, Note_on_c, 0, 46, 80
2, 91150, Note_on_c, 0, 65, 0
2, 91150, Note_on_c, 0, 56, 0
2, 91150, Note_on_c, 0, 62, 0
2, 91152, Note_on_c, 0, 58, 0
2, 91152, Note_on_c, 0, 46, 0
2, 91175, Note_on_c, 0, 57, 80
2, 91176, Note_on_c, 0, 47, 80
2, 91176, Note_on_c, 0, 66, 80
2, 91178, Note_on_c, 0, 63, 80
2, 91180, Note_on_c, 0, 59, 80
2, 91212, Note_on_c, 0, 47, 0
2, 91217, Note_on_c, 0, 66, 0
2, 91222, Note_on_c, 0, 59, 0
2, 91222, Note_on_c, 0, 57, 0
2, 91240, Note_on_c, 0, 66, 80
2, 91242, Note_on_c, 0, 57, 80
2, 91242, Note_on_c, 0, 59, 80
2, 91244, Note_on_c, 0, 47, 80
2, 91342, Note_on_c, 0, 47, 0
2, 91346, Note_on_c, 0, 66, 0
2, 91358, Note_on_c, 0, 59, 0
2, 91378, Note_on_c, 0, 47, 80
2, 91380, Note_on_c, 0, 59, 80
2, 91380, Note_on_c, 0, 66, 80
2, 91410, Note_on_c, 0, 47, 0
2, 91419, Note_on_c, 0, 59, 0
2, 91419, Note_on_c, 0, 66, 0
2, 91424, Note_on_c, 0, 57, 0
2, 91424, Note_on_c, 0, 63, 0
2, 91442, Note_on_c, 0, 48, 80
2, 91442, Note_on_c, 0, 58, 80
2, 91442, Note_on_c, 0, 60, 80
2, 91442, Note_on_c, 0, 64, 80
2, 91456, Note_on_c, 0, 67, 80
2, 91476, Note_on_c, 0, 48, 0
2, 91483, Note_on_c, 0, 67, 0
2, 91485, Note_on_c, 0, 58, 0
2, 91510, Note_on_c, 0, 48, 80
2, 91512, Note_on_c, 0, 58, 80
2, 91516, Note_on_c, 0, 67, 80
2, 91608, Note_on_c, 0, 48, 0
2, 91609, Note_on_c, 0, 58, 0
2, 91614, Note_on_c, 0, 67, 0
2, 91621, Note_on_c, 0, 60, 0
2, 91641, Note_on_c, 0, 48, 80
2, 91641, Note_on_c, 0, 58, 80
2, 91641, Note_on_c, 0, 60, 80
2, 91648, Note_on_c, 0, 67, 80
2, 91682, Note_on_c, 0, 58, 0
2, 91684, Note_on_c, 0, 67, 0
2, 91684, Note_on_c, 0, 48, 0
2, 91691, Note_on_c, 0, 64, 0
2, 91691, Note_on_c, 0, 60, 0
2, 91714, Note_on_c, 0, 49, 80
2, 91714, Note_on_c, 0, 59, 80
2, 91714, Note_on_c, 0, 61, 80
2, 91716, Note_on_c, 0, 65, 80
2, 91721, Note_on_c, 0, 68, 80
2, 91746, Note_on_c, 0, 49, 0
2, 91748, Note_on_c, 0, 61, 0
2, 91752, Note_on_c, 0, 59, 0
2, 91752, Note_on_c, 0, 65, 0
2, 91752, Note_on_c, 0, 68, 0
2, 91777, Note_on_c, 0, 59, 80
2, 91777, Note_on_c, 0, 61, 80
2, 91777, Note_on_c, 0, 65, 80
2, 91779, Note_on_c, 0, 49, 80
2, 91779, Note_on_c, 0, 68, 80
2, 91875, Note_on_c, 0, 61, 0
2, 91877, Note_on_c, 0, 49, 0
2, 91884, Note_on_c, 0, 65, 0
2, 91889, Note_on_c, 0, 68, 0
2, 91907, Note_on_c, 0, 49, 80
2, 91907, Note_on_c, 0, 61, 80
2, 91907, Note_on_c, 0, 65, 80
2, 91917, Note_on_c, 0, 68, 80
2, 91944, Note_on_c, 0, 49, 0
2, 91949, Note_on_c, 0, 65, 0
2, 91949, Note_on_c, 0, 61, 0
2, 91959, Note_on_c, 0, 59, 0
2, 91959, Note_on_c, 0, 68, 0
2, 91977, Note_on_c, 0, 62, 80
2, 91979, Note_on_c, 0, 50, 80
2, 91979, Note_on_c, 0, 60, 80
2, 91981, Note_on_c, 0, 66, 80
2, 91981, Note_on_c, 0, 69, 80
2, 92013, Note_on_c, 0, 66, 0
2, 92017, Note_on_c, 0, 62, 0
2, 92019, Note_on_c, 0, 50, 0
2, 92021, Note_on_c, 0, 69, 0
2, 92040, Note_on_c, 0, 62, 80
2, 92040, Note_on_c, 0, 66, 80
2, 92046, Note_on_c, 0, 50, 80
2, 92046, Note_on_c, 0, 69, 80
2, 92140, Note_on_c, 0, 50, 0
2, 92152, Note_on_c, 0, 66, 0
2, 92172, Note_on_c, 0, 50, 80
2, 92174, Note_on_c, 0, 66, 80
2, 92208, Note_on_c, 0, 66, 0
2, 92208, Note_on_c, 0, 69, 0
2, 92208, Note_on_c, 0, 50, 0
2, 92213, Note_on_c, 0, 60, 0
2, 92215, Note_on_c, 0, 62, 0
2, 92233, Note_on_c, 0, 51, 80
2, 92238, Note_on_c, 0, 61, 80
2, 92238, Note_on_c, 0, 63, 80
2, 92240, Note_on_c, 0, 70, 80
2, 92242, Note_on_c, 0, 67, 80
2, 92274, Note_on_c, 0, 61, 0
2, 92274, Note_on_c, 0, 51, 0
2, 92279, Note_on_c, 0, 70, 0
2, 92279, Note_on_c, 0, 67, 0
2, 92285, Note_on_c, 0, 63, 0
2, 92304, Note_on_c, 0, 61, 80
2, 92304, Note_on_c, 0, 70, 80
2, 92305, Note_on_c, 0, 51, 80
2, 92305, Note_on_c, 0, 63, 80
2, 92312, Note_on_c, 0, 67, 80
2, 92406, Note_on_c, 0, 61, 0
2, 92408, Note_on_c, 0, 67, 0
2, 92410, Note_on_c, 0, 51, 0
2, 92412, Note_on_c, 0, 70, 0
2, 92432, Note_on_c, 0, 51, 80
2, 92432, Note_on_c, 0, 61, 80
2, 92434, Note_on_c, 0, 70, 80
2, 92441, Note_on_c, 0, 67, 80
2, 92475, Note_on_c, 0, 67, 0
2, 92475, Note_on_c, 0, 61, 0
2, 92475, Note_on_c, 0, 51, 0
2, 92480, Note_on_c, 0, 70, 0
2, 92490, Note_on_c, 0, 63, 0
2, 92499, Note_on_c, 0, 40, 80
2, 92499, Note_on_c, 0, 64, 80
2, 92501, Note_on_c, 0, 52, 80
2, 92501, Note_on_c, 0, 62, 80
2, 92503, Note_on_c, 0, 71, 80
2, 92508, Note_on_c, 0, 68, 80
2, 92536, Note_on_c, 0, 40, 0
2, 92538, Note_on_c, 0, 52, 0
2, 92543, Note_on_c, 0, 62, 0
2, 92543, Note_on_c, 0, 68, 0
2, 92554, Note_on_c, 0, 71, 0
2, 92566, Note_on_c, 0, 40, 80
2, 92568, Note_on_c, 0, 52, 80
2, 92572, Note_on_c, 0, 62, 80
2, 92572, Note_on_c, 0, 68, 80
2, 92577, Note_on_c, 0, 71, 80
2, 92668, Note_on_c, 0, 40, 0
2, 92670, Note_on_c, 0, 62, 0
2, 92672, Note_on_c, 0, 52, 0
2, 92674, Note_on_c, 0, 71, 0
2, 92674, Note_on_c, 0, 68, 0
2, 92692, Note_on_c, 0, 40, 80
2, 92692, Note_on_c, 0, 52, 80
2, 92694, Note_on_c, 0, 71, 80
2, 92701, Note_on_c, 0, 62, 80
2, 92703, Note_on_c, 0, 68, 80
2, 92726, Note_on_c, 0, 40, 0
2, 92733, Note_on_c, 0, 52, 0
2, 92735, Note_on_c, 0, 71, 0
2, 92736, Note_on_c, 0, 62, 0
2, 92738, Note_on_c, 0, 68, 0
2, 92745, Note_on_c, 0, 64, 0
2, 92759, Note_on_c, 0, 53, 80
2, 92759, Note_on_c, 0, 63, 80
2, 92759, Note_on_c, 0, 65, 80
2, 92763, Note_on_c, 0, 41, 80
2, 92763, Note_on_c, 0, 69, 80
2, 92763, Note_on_c, 0, 72, 80
2, 92788, Note_on_c, 0, 41, 0
2, 92802, Note_on_c, 0, 53, 0
2, 92822, Note_on_c, 0, 42, 80
2, 92824, Note_on_c, 0, 54, 80
2, 92860, Note_on_c, 0, 42, 0
2, 92862, Note_on_c, 0, 54, 0
2, 92864, Note_on_c, 0, 69, 0
2, 92864, Note_on_c, 0, 65, 0
2, 92869, Note_on_c, 0, 72, 0
2, 92876, Note_on_c, 0, 63, 0
2, 92885, Note_on_c, 0, 55, 80
2, 92887, Note_on_c, 0, 43, 80
2, 92924, Note_on_c, 0, 43, 0
2, 92928, Note_on_c, 0, 55, 0
2, 92953, Note_on_c, 0, 41, 80
2, 92955, Note_on_c, 0, 53, 80
2, 92987, Note_on_c, 0, 41, 0
2, 92997, Note_on_c, 0, 53, 0
2, 93020, Note_on_c, 0, 52, 80
2, 93022, Note_on_c, 0, 40, 80
2, 93095, Note_on_c, 0, 70, 80
2, 93095, Note_on_c, 0, 74, 80
2, 93115, Note_on_c, 0, 40, 0
2, 93120, Note_on_c, 0, 52, 0
2, 93126, Note_on_c, 0, 74, 0
2, 93131, Note_on_c, 0, 70, 0
2, 93143, Note_on_c, 0, 55, 80
2, 93147, Note_on_c, 0, 52, 80
2, 93147, Note_on_c, 0, 58, 80
2, 93149, Note_on_c, 0, 73, 80
2, 93151, Note_on_c, 0, 67, 80
2, 93245, Note_on_c, 0, 67, 0
2, 93247, Note_on_c, 0, 58, 0
2, 93247, Note_on_c, 0, 52, 0
2, 93252, Note_on_c, 0, 73, 0
2, 93277, Note_on_c, 0, 43, 80
2, 93279, Note_on_c, 0, 67, 80
2, 93279, Note_on_c, 0, 70, 80
2, 93313, Note_on_c, 0, 43, 0
2, 93318, Note_on_c, 0, 70, 0
2, 93318, Note_on_c, 0, 67, 0
2, 93325, Note_on_c, 0, 55, 0
2, 93343, Note_on_c, 0, 42, 80
2, 93345, Note_on_c, 0, 54, 80
2, 93350, Note_on_c, 0, 67, 80
2, 93378, Note_on_c, 0, 42, 0
2, 93383, Note_on_c, 0, 54, 0
2, 93408, Note_on_c, 0, 55, 80
2, 93412, Note_on_c, 0, 43, 80
2, 93444, Note_on_c, 0, 43, 0
2, 93456, Note_on_c, 0, 55, 0
2, 93474, Note_on_c, 0, 56, 80
2, 93483, Note_on_c, 0, 44, 80
2, 93513, Note_on_c, 0, 44, 0
2, 93515, Note_on_c, 0, 56, 0
2, 93520, Note_on_c, 0, 67, 0
2, 93538, Note_on_c, 0, 45, 80
2, 93538, Note_on_c, 0, 57, 80
2, 93616, Note_on_c, 0, 65, 80
2, 93616, Note_on_c, 0, 74, 80
2, 93621, Note_on_c, 0, 69, 80
2, 93641, Note_on_c, 0, 45, 0
2, 93648, Note_on_c, 0, 57, 0
2, 93675, Note_on_c, 0, 53, 80
2, 93675, Note_on_c, 0, 57, 80
2, 93675, Note_on_c, 0, 60, 80
2, 93675, Note_on_c, 0, 63, 80
2, 93719, Note_on_c, 0, 65, 0
2, 93723, Note_on_c, 0, 69, 0
2, 93723, Note_on_c, 0, 74, 0
2, 93746, Note_on_c, 0, 65, 80
2, 93751, Note_on_c, 0, 69, 80
2, 93751, Note_on_c, 0, 72, 80
2, 93788, Note_on_c, 0, 57, 0
2, 93788, Note_on_c, 0, 53, 0
2, 93792, Note_on_c, 0, 63, 0
2, 93792, Note_on_c, 0, 60, 0
2, 93809, Note_on_c, 0, 41, 80
2, 93818, Note_on_c, 0, 53, 80
2, 93857, Note_on_c, 0, 65, 0
2, 93862, Note_on_c, 0, 72, 0
2, 93866, Note_on_c, 0, 69, 0
2, 93891, Note_on_c, 0, 65, 80
2, 93891, Note_on_c, 0, 69, 80
2, 93891, Note_on_c, 0, 72, 80
2, 93916, Note_on_c, 0, 41, 0
2, 93926, Note_on_c, 0, 53, 0
2, 93946, Note_on_c, 0, 57, 80
2, 93946, Note_on_c, 0, 60, 80
2, 93946, Note_on_c, 0, 63, 80
2, 93951, Note_on_c, 0, 53, 80
2, 94058, Note_on_c, 0, 69, 0
2, 94060, Note_on_c, 0, 60, 0
2, 94060, Note_on_c, 0, 72, 0
2, 94060, Note_on_c, 0, 57, 0
2, 94060, Note_on_c, 0, 65, 0
2, 94067, Note_on_c, 0, 53, 0
2, 94067, Note_on_c, 0, 63, 0
2, 94083, Note_on_c, 0, 65, 80
2, 94085, Note_on_c, 0, 58, 80
2, 94085, Note_on_c, 0, 62, 80
2, 94087, Note_on_c, 0, 46, 80
2, 94087, Note_on_c, 0, 70, 80
2, 94188, Note_on_c, 0, 46, 0
2, 94190, Note_on_c, 0, 62, 0
2, 94190, Note_on_c, 0, 65, 0
2, 94190, Note_on_c, 0, 58, 0
2, 94200, Note_on_c, 0, 70, 0
2, 94223, Note_on_c, 0, 65, 80
2, 94261, Note_on_c, 0, 65, 0
2, 94286, Note_on_c, 0, 62, 80
2, 94327, Note_on_c, 0, 62, 0
2, 94350, Note_on_c, 0, 50, 80
2, 94357, Note_on_c, 0, 61, 80
2, 94392, Note_on_c, 0, 61, 0
2, 94415, Note_on_c, 0, 62, 80
2, 94453, Note_on_c, 0, 62, 0
2, 94453, Note_on_c, 0, 50, 0
2, 94481, Note_on_c, 0, 58, 80
2, 94481, Note_on_c, 0, 64, 80
2, 94483, Note_on_c, 0, 49, 80
2, 94485, Note_on_c, 0, 69, 80
2, 94516, Note_on_c, 0, 58, 0
2, 94526, Note_on_c, 0, 64, 0
2, 94526, Note_on_c, 0, 69, 0
2, 94539, Note_on_c, 0, 57, 80
2, 94544, Note_on_c, 0, 63, 80
2, 94549, Note_on_c, 0, 67, 80
2, 94581, Note_on_c, 0, 67, 0
2, 94583, Note_on_c, 0, 49, 0
2, 94606, Note_on_c, 0, 48, 80
2, 94608, Note_on_c, 0, 67, 80
2, 94646, Note_on_c, 0, 67, 0
2, 94646, Note_on_c, 0, 57, 0
2, 94651, Note_on_c, 0, 63, 0
2, 94667, Note_on_c, 0, 57, 80
2, 94672, Note_on_c, 0, 63, 80
2, 94681, Note_on_c, 0, 67, 80
2, 94713, Note_on_c, 0, 67, 0
2, 94743, Note_on_c, 0, 66, 80
2, 94777, Note_on_c, 0, 66, 0
2, 94805, Note_on_c, 0, 65, 80
2, 94835, Note_on_c, 0, 48, 0
2, 94865, Note_on_c, 0, 41, 80
2, 94926, Note_on_c, 0, 63, 0
2, 94969, Note_on_c, 0, 41, 0
2, 94994, Note_on_c, 0, 53, 80
2, 95042, Note_on_c, 0, 65, 0
2, 95044, Note_on_c, 0, 57, 0
2, 95067, Note_on_c, 0, 63, 80
2, 95109, Note_on_c, 0, 53, 0
2, 95122, Note_on_c, 0, 63, 0
2, 95132, Note_on_c, 0, 56, 80
2, 95134, Note_on_c, 0, 62, 80
2, 95138, Note_on_c, 0, 46, 80
2, 95138, Note_on_c, 0, 65, 80
2, 95175, Note_on_c, 0, 65, 0
2, 95175, Note_on_c, 0, 62, 0
2, 95186, Note_on_c, 0, 67, 80
2, 95223, Note_on_c, 0, 67, 0
2, 95228, Note_on_c, 0, 65, 80
2, 95266, Note_on_c, 0, 65, 0
2, 95266, Note_on_c, 0, 62, 80
2, 95362, Note_on_c, 0, 46, 0
2, 95372, Note_on_c, 0, 62, 0
2, 95372, Note_on_c, 0, 56, 0
2, 95395, Note_on_c, 0, 47, 80
2, 95397, Note_on_c, 0, 57, 80
2, 95401, Note_on_c, 0, 63, 80
2, 95406, Note_on_c, 0, 66, 80
2, 95445, Note_on_c, 0, 66, 0
2, 95447, Note_on_c, 0, 68, 80
2, 95448, Note_on_c, 0, 63, 0
2, 95485, Note_on_c, 0, 68, 0
2, 95495, Note_on_c, 0, 66, 80
2, 95531, Note_on_c, 0, 66, 0
2, 95531, Note_on_c, 0, 63, 80
2, 95632, Note_on_c, 0, 47, 0
2, 95639, Note_on_c, 0, 57, 0
2, 95650, Note_on_c, 0, 63, 0
2, 95660, Note_on_c, 0, 48, 80
2, 95666, Note_on_c, 0, 64, 80
2, 95668, Note_on_c, 0, 58, 80
2, 95670, Note_on_c, 0, 67, 80
2, 95709, Note_on_c, 0, 67, 0
2, 95715, Note_on_c, 0, 64, 0
2, 95720, Note_on_c, 0, 69, 80
2, 95750, Note_on_c, 0, 69, 0
2, 95757, Note_on_c, 0, 67, 80
2, 95793, Note_on_c, 0, 67, 0
2, 95798, Note_on_c, 0, 64, 80
2, 95892, Note_on_c, 0, 48, 0
2, 95899, Note_on_c, 0, 58, 0
2, 95908, Note_on_c, 0, 64, 0
2, 95927, Note_on_c, 0, 59, 80
2, 95928, Note_on_c, 0, 49, 80
2, 95928, Note_on_c, 0, 65, 80
2, 95933, Note_on_c, 0, 68, 80
2, 95965, Note_on_c, 0, 65, 0
2, 95970, Note_on_c, 0, 68, 0
2, 95970, Note_on_c, 0, 70, 80
2, 96013, Note_on_c, 0, 70, 0
2, 96018, Note_on_c, 0, 68, 80
2, 96056, Note_on_c, 0, 65, 80
2, 96061, Note_on_c, 0, 68, 0
2, 96159, Note_on_c, 0, 65, 0
2, 96161, Note_on_c, 0, 49, 0
2, 96170, Note_on_c, 0, 58, 80
2, 96189, Note_on_c, 0, 60, 80
2, 96191, Note_on_c, 0, 50, 80
2, 96191, Note_on_c, 0, 66, 80
2, 96191, Note_on_c, 0, 69, 80
2, 96207, Note_on_c, 0, 58, 0
2, 96220, Note_on_c, 0, 59, 0
2, 96230, Note_on_c, 0, 66, 0
2, 96232, Note_on_c, 0, 69, 0
2, 96241, Note_on_c, 0, 71, 80
2, 96280, Note_on_c, 0, 71, 0
2, 96285, Note_on_c, 0, 69, 80
2, 96323, Note_on_c, 0, 66, 80
2, 96328, Note_on_c, 0, 69, 0
2, 96429, Note_on_c, 0, 50, 0
2, 96433, Note_on_c, 0, 60, 0
2, 96433, Note_on_c, 0, 66, 0
2, 96454, Note_on_c, 0, 51, 80
2, 96458, Note_on_c, 0, 61, 80
2, 96468, Note_on_c, 0, 70, 80
2, 96473, Note_on_c, 0, 67, 80
2, 96507, Note_on_c, 0, 67, 0
2, 96512, Note_on_c, 0, 70, 0
2, 96517, Note_on_c, 0, 72, 80
2, 96555, Note_on_c, 0, 72, 0
2, 96560, Note_on_c, 0, 70, 80
2, 96606, Note_on_c, 0, 70, 0
2, 96613, Note_on_c, 0, 67, 80
2, 96709, Note_on_c, 0, 67, 0
2, 96709, Note_on_c, 0, 61, 0
2, 96709, Note_on_c, 0, 51, 0
2, 96734, Note_on_c, 0, 52, 80
2, 96739, Note_on_c, 0, 62, 80
2, 96744, Note_on_c, 0, 68, 80
2, 96744, Note_on_c, 0, 71, 80
2, 96785, Note_on_c, 0, 71, 0
2, 96785, Note_on_c, 0, 68, 0
2, 96787, Note_on_c, 0, 73, 80
2, 96821, Note_on_c, 0, 73, 0
2, 96826, Note_on_c, 0, 71, 80
2, 96869, Note_on_c, 0, 71, 0
2, 96874, Note_on_c, 0, 68, 80
2, 96970, Note_on_c, 0, 52, 0
2, 96975, Note_on_c, 0, 68, 0
2, 96975, Note_on_c, 0, 62, 0
2, 97000, Note_on_c, 0, 53, 80
2, 97005, Note_on_c, 0, 63, 80
2, 97009, Note_on_c, 0, 69, 80
2, 97009, Note_on_c, 0, 72, 80
2, 97041, Note_on_c, 0, 72, 0
2, 97046, Note_on_c, 0, 69, 0
2, 97051, Note_on_c, 0, 74, 80
2, 97094, Note_on_c, 0, 74, 0
2, 97096, Note_on_c, 0, 72, 80
2, 97107, Note_on_c, 0, 53, 0
2, 97112, Note_on_c, 0, 63, 0
2, 97124, Note_on_c, 0, 42, 80
2, 97126, Note_on_c, 0, 54, 80
2, 97130, Note_on_c, 0, 72, 0
2, 97135, Note_on_c, 0, 69, 80
2, 97226, Note_on_c, 0, 42, 0
2, 97231, Note_on_c, 0, 54, 0
2, 97233, Note_on_c, 0, 69, 0
2, 97258, Note_on_c, 0, 55, 80
2, 97260, Note_on_c, 0, 74, 80
2, 97267, Note_on_c, 0, 70, 80
2, 97269, Note_on_c, 0, 43, 80
2, 97300, Note_on_c, 0, 70, 0
2, 97307, Note_on_c, 0, 74, 0
2, 97325, Note_on_c, 0, 64, 80
2, 97325, Note_on_c, 0, 72, 80
2, 97368, Note_on_c, 0, 43, 0
2, 97385, Note_on_c, 0, 52, 80
2, 97385, Note_on_c, 0, 60, 80
2, 97390, Note_on_c, 0, 58, 80
2, 97433, Note_on_c, 0, 72, 0
2, 97435, Note_on_c, 0, 64, 0
2, 97455, Note_on_c, 0, 70, 80
2, 97455, Note_on_c, 0, 76, 80
2, 97455, Note_on_c, 0, 79, 80
2, 97457, Note_on_c, 0, 67, 80
2, 97491, Note_on_c, 0, 52, 0
2, 97493, Note_on_c, 0, 58, 0
2, 97498, Note_on_c, 0, 60, 0
2, 97500, Note_on_c, 0, 55, 0
2, 97518, Note_on_c, 0, 36, 80
2, 97520, Note_on_c, 0, 48, 80
2, 97614, Note_on_c, 0, 48, 0
2, 97616, Note_on_c, 0, 36, 0
2, 97646, Note_on_c, 0, 55, 80
2, 97646, Note_on_c, 0, 60, 80
2, 97651, Note_on_c, 0, 52, 80
2, 97651, Note_on_c, 0, 58, 80
2, 97752, Note_on_c, 0, 58, 0
2, 97752, Note_on_c, 0, 72, 80
2, 97753, Note_on_c, 0, 52, 0
2, 97755, Note_on_c, 0, 79, 0
2, 97755, Note_on_c, 0, 76, 0
2, 97755, Note_on_c, 0, 67, 0
2, 97755, Note_on_c, 0, 70, 0
2, 97755, Note_on_c, 0, 60, 0
2, 97757, Note_on_c, 0, 55, 0
2, 97759, Note_on_c, 0, 74, 80
2, 97773, Note_on_c, 0, 57, 80
2, 97775, Note_on_c, 0, 48, 80
2, 97779, Note_on_c, 0, 75, 80
2, 97781, Note_on_c, 0, 77, 80
2, 97788, Note_on_c, 0, 72, 0
2, 97808, Note_on_c, 0, 74, 0
2, 97813, Note_on_c, 0, 75, 0
2, 97820, Note_on_c, 0, 77, 0
2, 97845, Note_on_c, 0, 76, 80
2, 97883, Note_on_c, 0, 48, 0
2, 97890, Note_on_c, 0, 76, 0
2, 97908, Note_on_c, 0, 63, 80
2, 97910, Note_on_c, 0, 60, 80
2, 97915, Note_on_c, 0, 53, 80
2, 97924, Note_on_c, 0, 75, 80
2, 97949, Note_on_c, 0, 75, 0
2, 97988, Note_on_c, 0, 67, 80
2, 98022, Note_on_c, 0, 67, 0
2, 98029, Note_on_c, 0, 60, 0
2, 98029, Note_on_c, 0, 57, 0
2, 98034, Note_on_c, 0, 63, 0
2, 98050, Note_on_c, 0, 41, 80
2, 98057, Note_on_c, 0, 69, 80
2, 98057, Note_on_c, 0, 74, 80
2, 98098, Note_on_c, 0, 69, 0
2, 98100, Note_on_c, 0, 74, 0
2, 98123, Note_on_c, 0, 72, 80
2, 98151, Note_on_c, 0, 41, 0
2, 98164, Note_on_c, 0, 53, 0
2, 98166, Note_on_c, 0, 72, 0
2, 98180, Note_on_c, 0, 57, 80
2, 98180, Note_on_c, 0, 60, 80
2, 98180, Note_on_c, 0, 63, 80
2, 98184, Note_on_c, 0, 53, 80
2, 98194, Note_on_c, 0, 69, 80
2, 98231, Note_on_c, 0, 69, 0
2, 98256, Note_on_c, 0, 67, 80
2, 98287, Note_on_c, 0, 67, 0
2, 98289, Note_on_c, 0, 53, 0
2, 98294, Note_on_c, 0, 60, 0
2, 98299, Note_on_c, 0, 63, 0
2, 98299, Note_on_c, 0, 57, 0
2, 98315, Note_on_c, 0, 46, 80
2, 98315, Note_on_c, 0, 65, 80
2, 98317, Note_on_c, 0, 53, 80
2, 98317, Note_on_c, 0, 62, 80
2, 98322, Note_on_c, 0, 70, 80
2, 98420, Note_on_c, 0, 46, 0
2, 98422, Note_on_c, 0, 62, 0
2, 98422, Note_on_c, 0, 65, 0
2, 98426, Note_on_c, 0, 53, 0
2, 98431, Note_on_c, 0, 70, 0
2, 98449, Note_on_c, 0, 61, 80
2, 98449, Note_on_c, 0, 65, 80
2, 98449, Note_on_c, 0, 72, 80
2, 98454, Note_on_c, 0, 49, 80
2, 98486, Note_on_c, 0, 65, 0
2, 98493, Note_on_c, 0, 72, 0
2, 98511, Note_on_c, 0, 65, 80
2, 98513, Note_on_c, 0, 74, 80
2, 98547, Note_on_c, 0, 61, 0
2, 98547, Note_on_c, 0, 49, 0
2, 98552, Note_on_c, 0, 65, 0
2, 98557, Note_on_c, 0, 74, 0
2, 98575, Note_on_c, 0, 65, 80
2, 98577, Note_on_c, 0, 48, 80
2, 98577, Note_on_c, 0, 60, 80
2, 98579, Note_on_c, 0, 69, 80
2, 98579, Note_on_c, 0, 75, 80
2, 98616, Note_on_c, 0, 75, 0
2, 98616, Note_on_c, 0, 65, 0
2, 98620, Note_on_c, 0, 69, 0
2, 98645, Note_on_c, 0, 65, 80
2, 98645, Note_on_c, 0, 77, 80
2, 98675, Note_on_c, 0, 48, 0
2, 98682, Note_on_c, 0, 60, 0
2, 98682, Note_on_c, 0, 65, 0
2, 98682, Note_on_c, 0, 77, 0
2, 98700, Note_on_c, 0, 63, 80
2, 98702, Note_on_c, 0, 57, 80
2, 98702, Note_on_c, 0, 60, 80
2, 98704, Note_on_c, 0, 53, 80
2, 98713, Note_on_c, 0, 79, 80
2, 98718, Note_on_c, 0, 67, 80
2, 98746, Note_on_c, 0, 67, 0
2, 98746, Note_on_c, 0, 79, 0
2, 98776, Note_on_c, 0, 69, 80
2, 98778, Note_on_c, 0, 81, 80
2, 98809, Note_on_c, 0, 81, 0
2, 98809, Note_on_c, 0, 53, 0
2, 98814, Note_on_c, 0, 60, 0
2, 98814, Note_on_c, 0, 57, 0
2, 98816, Note_on_c, 0, 69, 0
2, 98818, Note_on_c, 0, 63, 0
2, 98834, Note_on_c, 0, 46, 80
2, 98836, Note_on_c, 0, 53, 80
2, 98836, Note_on_c, 0, 70, 80
2, 98838, Note_on_c, 0, 77, 80
2, 98840, Note_on_c, 0, 74, 80
2, 98842, Note_on_c, 0, 82, 80
2, 98928, Note_on_c, 0, 46, 0
2, 98933, Note_on_c, 0, 82, 0
2, 98935, Note_on_c, 0, 77, 0
2, 98937, Note_on_c, 0, 53, 0
2, 98939, Note_on_c, 0, 74, 0
2, 98946, Note_on_c, 0, 70, 0
2, 98962, Note_on_c, 0, 53, 80
2, 98964, Note_on_c, 0, 58, 80
2, 98964, Note_on_c, 0, 62, 80
2, 98964, Note_on_c, 0, 68, 80
2, 98964, Note_on_c, 0, 74, 80
2, 98964, Note_on_c, 0, 79, 80
2, 99000, Note_on_c, 0, 79, 0
2, 99002, Note_on_c, 0, 68, 0
2, 99007, Note_on_c, 0, 74, 0
2, 99030, Note_on_c, 0, 74, 80
2, 99035, Note_on_c, 0, 68, 80
2, 99035, Note_on_c, 0, 79, 80
2, 99060, Note_on_c, 0, 58, 0
2, 99065, Note_on_c, 0, 62, 0
2, 99072, Note_on_c, 0, 53, 0
2, 99095, Note_on_c, 0, 47, 80
2, 99095, Note_on_c, 0, 56, 80
2, 99131, Note_on_c, 0, 79, 0
2, 99136, Note_on_c, 0, 68, 0
2, 99141, Note_on_c, 0, 74, 0
2, 99166, Note_on_c, 0, 68, 80
2, 99166, Note_on_c, 0, 74, 80
2, 99166, Note_on_c, 0, 79, 80
2, 99195, Note_on_c, 0, 47, 0
2, 99197, Note_on_c, 0, 56, 0
2, 99225, Note_on_c, 0, 56, 80
2, 99227, Note_on_c, 0, 47, 80
2, 99264, Note_on_c, 0, 79, 0
2, 99265, Note_on_c, 0, 68, 0
2, 99275, Note_on_c, 0, 74, 0
2, 99291, Note_on_c, 0, 77, 80
2, 99293, Note_on_c, 0, 68, 80
2, 99325, Note_on_c, 0, 47, 0
2, 99336, Note_on_c, 0, 56, 0
2, 99336, Note_on_c, 0, 77, 0
2, 99336, Note_on_c, 0, 68, 0
2, 99360, Note_on_c, 0, 57, 80
2, 99361, Note_on_c, 0, 69, 80
2, 99361, Note_on_c, 0, 79, 80
2, 99363, Note_on_c, 0, 48, 80
2, 99363, Note_on_c, 0, 75, 80
2, 99400, Note_on_c, 0, 75, 0
2, 99400, Note_on_c, 0, 79, 0
2, 99405, Note_on_c, 0, 69, 0
2, 99434, Note_on_c, 0, 79, 80
2, 99462, Note_on_c, 0, 48, 0
2, 99497, Note_on_c, 0, 60, 80
2, 99497, Note_on_c, 0, 63, 80
2, 99499, Note_on_c, 0, 53, 80
2, 99533, Note_on_c, 0, 79, 0
2, 99570, Note_on_c, 0, 69, 80
2, 99570, Note_on_c, 0, 75, 80
2, 99604, Note_on_c, 0, 60, 0
2, 99609, Note_on_c, 0, 57, 0
2, 99614, Note_on_c, 0, 63, 0
2, 99625, Note_on_c, 0, 41, 80
2, 99660, Note_on_c, 0, 41, 0
2, 99673, Note_on_c, 0, 53, 0
2, 99690, Note_on_c, 0, 42, 80
2, 99696, Note_on_c, 0, 54, 80
2, 99731, Note_on_c, 0, 42, 0
2, 99733, Note_on_c, 0, 54, 0
2, 99761, Note_on_c, 0, 43, 80
2, 99761, Note_on_c, 0, 55, 80
2, 99799, Note_on_c, 0, 43, 0
2, 99804, Note_on_c, 0, 55, 0
2, 99822, Note_on_c, 0, 56, 80
2, 99827, Note_on_c, 0, 44, 80
2, 99865, Note_on_c, 0, 44, 0
2, 99867, Note_on_c, 0, 56, 0
2, 99886, Note_on_c, 0, 57, 80
2, 99890, Note_on_c, 0, 45, 80
2, 99932, Note_on_c, 0, 75, 0
2, 99936, Note_on_c, 0, 69, 0
2, 99964, Note_on_c, 0, 67, 80
2, 99964, Note_on_c, 0, 73, 80
2, 99964, Note_on_c, 0, 79, 80
2, 99994, Note_on_c, 0, 45, 0
2, 100001, Note_on_c, 0, 57, 0
2, 100019, Note_on_c, 0, 52, 80
2, 100021, Note_on_c, 0, 55, 80
2, 100023, Note_on_c, 0, 58, 80
2, 100023, Note_on_c, 0, 61, 80
2, 100057, Note_on_c, 0, 73, 0
2, 100057, Note_on_c, 0, 67, 0
2, 100059, Note_on_c, 0, 79, 0
2, 100082, Note_on_c, 0, 73, 80
2, 100094, Note_on_c, 0, 67, 80
2, 100094, Note_on_c, 0, 79, 80
2, 100126, Note_on_c, 0, 67, 0
2, 100126, Note_on_c, 0, 55, 0
2, 100126, Note_on_c, 0, 61, 0
2, 100126, Note_on_c, 0, 58, 0
2, 100126, Note_on_c, 0, 73, 0
2, 100128, Note_on_c, 0, 79, 0
2, 100148, Note_on_c, 0, 55, 80
2, 100148, Note_on_c, 0, 58, 80
2, 100154, Note_on_c, 0, 61, 80
2, 100154, Note_on_c, 0, 67, 80
2, 100154, Note_on_c, 0, 73, 80
2, 100156, Note_on_c, 0, 79, 80
2, 100250, Note_on_c, 0, 73, 0
2, 100250, Note_on_c, 0, 61, 0
2, 100250, Note_on_c, 0, 58, 0
2, 100250, Note_on_c, 0, 67, 0
2, 100255, Note_on_c, 0, 52, 0
2, 100257, Note_on_c, 0, 79, 0
2, 100259, Note_on_c, 0, 55, 0
2, 100272, Note_on_c, 0, 41, 80
2, 100279, Note_on_c, 0, 73, 80
2, 100281, Note_on_c, 0, 53, 80
2, 100283, Note_on_c, 0, 79, 80
2, 100285, Note_on_c, 0, 67, 80
2, 100303, Note_on_c, 0, 41, 0
2, 100320, Note_on_c, 0, 53, 0
2, 100344, Note_on_c, 0, 49, 80
2, 100356, Note_on_c, 0, 37, 80
2, 100376, Note_on_c, 0, 37, 0
2, 100378, Note_on_c, 0, 49, 0
2, 100383, Note_on_c, 0, 67, 0
2, 100388, Note_on_c, 0, 79, 0
2, 100388, Note_on_c, 0, 73, 0
2, 100411, Note_on_c, 0, 50, 80
2, 100416, Note_on_c, 0, 38, 80
2, 100417, Note_on_c, 0, 74, 80
2, 100422, Note_on_c, 0, 79, 80
2, 100424, Note_on_c, 0, 67, 80
2, 100515, Note_on_c, 0, 38, 0
2, 100517, Note_on_c, 0, 67, 0
2, 100522, Note_on_c, 0, 50, 0
2, 100529, Note_on_c, 0, 74, 0
2, 100529, Note_on_c, 0, 79, 0
2, 100549, Note_on_c, 0, 58, 80
2, 100551, Note_on_c, 0, 53, 80
2, 100553, Note_on_c, 0, 62, 80
2, 100614, Note_on_c, 0, 74, 80
2, 100619, Note_on_c, 0, 65, 80
2, 100619, Note_on_c, 0, 70, 80
2, 100656, Note_on_c, 0, 58, 0
2, 100660, Note_on_c, 0, 53, 0
2, 100660, Note_on_c, 0, 62, 0
2, 100727, Note_on_c, 0, 65, 0
2, 100731, Note_on_c, 0, 70, 0
2, 100731, Note_on_c, 0, 74, 0
2, 100754, Note_on_c, 0, 58, 80
2, 100754, Note_on_c, 0, 65, 80
2, 100754, Note_on_c, 0, 70, 80
2, 100754, Note_on_c, 0, 74, 80
2, 100756, Note_on_c, 0, 46, 80
2, 100791, Note_on_c, 0, 46, 0
2, 100793, Note_on_c, 0, 58, 0
2, 100816, Note_on_c, 0, 57, 80
2, 100818, Note_on_c, 0, 45, 80
2, 100852, Note_on_c, 0, 45, 0
2, 100866, Note_on_c, 0, 57, 0
2, 100884, Note_on_c, 0, 44, 80
2, 100884, Note_on_c, 0, 56, 80
2, 100922, Note_on_c, 0, 44, 0
2, 100927, Note_on_c, 0, 56, 0
2, 100932, Note_on_c, 0, 65, 0
2, 100932, Note_on_c, 0, 70, 0
2, 100937, Note_on_c, 0, 74, 0
2, 100950, Note_on_c, 0, 55, 80
2, 100952, Note_on_c, 0, 43, 80
2, 100987, Note_on_c, 0, 43, 0
2, 100998, Note_on_c, 0, 55, 0
2, 101018, Note_on_c, 0, 47, 80
2, 101018, Note_on_c, 0, 59, 80
2, 101020, Note_on_c, 0, 65, 80
2, 101020, Note_on_c, 0, 71, 80
2, 101030, Note_on_c, 0, 79, 80
2, 101114, Note_on_c, 0, 47, 0
2, 101121, Note_on_c, 0, 79, 0
2, 101123, Note_on_c, 0, 65, 0
2, 101128, Note_on_c, 0, 59, 0
2, 101128, Note_on_c, 0, 71, 0
2, 101148, Note_on_c, 0, 47, 80
2, 101150, Note_on_c, 0, 59, 80
2, 101150, Note_on_c, 0, 65, 80
2, 101150, Note_on_c, 0, 71, 80
2, 101152, Note_on_c, 0, 79, 80
2, 101184, Note_on_c, 0, 47, 0
2, 101185, Note_on_c, 0, 79, 0
2, 101185, Note_on_c, 0, 65, 0
2, 101192, Note_on_c, 0, 71, 0
2, 101194, Note_on_c, 0, 59, 0
2, 101208, Note_on_c, 0, 43, 80
2, 101208, Note_on_c, 0, 55, 80
2, 101209, Note_on_c, 0, 73, 80
2, 101214, Note_on_c, 0, 65, 80
2, 101214, Note_on_c, 0, 71, 80
2, 101305, Note_on_c, 0, 43, 0
2, 101319, Note_on_c, 0, 65, 0
2, 101319, Note_on_c, 0, 71, 0
2, 101321, Note_on_c, 0, 55, 0
2, 101323, Note_on_c, 0, 73, 0
2, 101341, Note_on_c, 0, 47, 80
2, 101341, Note_on_c, 0, 65, 80
2, 101343, Note_on_c, 0, 59, 80
2, 101345, Note_on_c, 0, 71, 80
2, 101345, Note_on_c, 0, 74, 80
2, 101434, Note_on_c, 0, 47, 0
2, 101441, Note_on_c, 0, 71, 0
2, 101443, Note_on_c, 0, 65, 0
2, 101445, Note_on_c, 0, 59, 0
2, 101465, Note_on_c, 0, 48, 80
2, 101465, Note_on_c, 0, 60, 80
2, 101470, Note_on_c, 0, 64, 80
2, 101470, Note_on_c, 0, 70, 80
2, 101568, Note_on_c, 0, 48, 0
2, 101577, Note_on_c, 0, 70, 0
2, 101587, Note_on_c, 0, 74, 0
2, 101603, Note_on_c, 0, 55, 80
2, 101603, Note_on_c, 0, 58, 80
2, 101667, Note_on_c, 0, 70, 80
2, 101674, Note_on_c, 0, 67, 80
2, 101674, Note_on_c, 0, 76, 80
2, 101674, Note_on_c, 0, 79, 80
2, 101709, Note_on_c, 0, 58, 0
2, 101711, Note_on_c, 0, 64, 0
2, 101712, Note_on_c, 0, 55, 0
2, 101729, Note_on_c, 0, 48, 80
2, 101827, Note_on_c, 0, 48, 0
2, 101838, Note_on_c, 0, 60, 0
2, 101858, Note_on_c, 0, 46, 80
2, 101858, Note_on_c, 0, 58, 80
2, 101959, Note_on_c, 0, 58, 0
2, 101961, Note_on_c, 0, 46, 0
2, 101966, Note_on_c, 0, 79, 0
2, 101966, Note_on_c, 0, 67, 0
2, 101966, Note_on_c, 0, 76, 0
2, 101976, Note_on_c, 0, 70, 0
2, 101985, Note_on_c, 0, 57, 80
2, 101987, Note_on_c, 0, 45, 80
2, 102058, Note_on_c, 0, 65, 80
2, 102068, Note_on_c, 0, 69, 80
2, 102068, Note_on_c, 0, 73, 80
2, 102096, Note_on_c, 0, 45, 0
2, 102125, Note_on_c, 0, 53, 80
2, 102125, Note_on_c, 0, 60, 80
2, 102127, Note_on_c, 0, 63, 80
2, 102168, Note_on_c, 0, 73, 0
2, 102168, Note_on_c, 0, 65, 0
2, 102192, Note_on_c, 0, 65, 80
2, 102201, Note_on_c, 0, 74, 80
2, 102238, Note_on_c, 0, 57, 0
2, 102238, Note_on_c, 0, 60, 0
2, 102242, Note_on_c, 0, 63, 0
2, 102265, Note_on_c, 0, 41, 80
2, 102300, Note_on_c, 0, 65, 0
2, 102305, Note_on_c, 0, 69, 0
2, 102310, Note_on_c, 0, 74, 0
2, 102335, Note_on_c, 0, 65, 80
2, 102335, Note_on_c, 0, 69, 80
2, 102335, Note_on_c, 0, 74, 80
2, 102362, Note_on_c, 0, 41, 0
2, 102374, Note_on_c, 0, 65, 0
2, 102376, Note_on_c, 0, 53, 0
2, 102378, Note_on_c, 0, 69, 0
2, 102387, Note_on_c, 0, 74, 0
2, 102397, Note_on_c, 0, 53, 80
2, 102397, Note_on_c, 0, 57, 80
2, 102402, Note_on_c, 0, 60, 80
2, 102402, Note_on_c, 0, 63, 80
2, 102404, Note_on_c, 0, 72, 80
2, 102406, Note_on_c, 0, 67, 80
2, 102504, Note_on_c, 0, 67, 0
2, 102508, Note_on_c, 0, 57, 0
2, 102508, Note_on_c, 0, 53, 0
2, 102508, Note_on_c, 0, 60, 0
2, 102508, Note_on_c, 0, 72, 0
2, 102518, Note_on_c, 0, 63, 0
2, 102525, Note_on_c, 0, 65, 80
2, 102527, Note_on_c, 0, 62, 80
2, 102527, Note_on_c, 0, 70, 80
2, 102533, Note_on_c, 0, 46, 80
2, 102533, Note_on_c, 0, 58, 80
2, 102627, Note_on_c, 0, 62, 0
2, 102629, Note_on_c, 0, 46, 0
2, 102631, Note_on_c, 0, 65, 0
2, 102631, Note_on_c, 0, 58, 0
2, 102636, Note_on_c, 0, 70, 0
2, 102659, Note_on_c, 0, 73, 80
2, 102669, Note_on_c, 0, 85, 80
2, 102767, Note_on_c, 0, 85, 0
2, 102773, Note_on_c, 0, 73, 0
2, 102798, Note_on_c, 0, 74, 80
2, 102798, Note_on_c, 0, 86, 80
2, 102901, Note_on_c, 0, 86, 0
2, 102908, Note_on_c, 0, 74, 0
2, 102931, Note_on_c, 0, 73, 80
2, 102933, Note_on_c, 0, 85, 80
2, 102969, Note_on_c, 0, 85, 0
2, 102971, Note_on_c, 0, 73, 0
2, 102999, Note_on_c, 0, 74, 80
2, 103006, Note_on_c, 0, 86, 80
2, 103108, Note_on_c, 0, 86, 0
2, 103115, Note_on_c, 0, 74, 0
2, 103133, Note_on_c, 0, 73, 80
2, 103138, Note_on_c, 0, 85, 80
2, 103176, Note_on_c, 0, 85, 0
2, 103176, Note_on_c, 0, 73, 0
2, 103204, Note_on_c, 0, 74, 80
2, 103206, Note_on_c, 0, 86, 80
2, 103241, Note_on_c, 0, 86, 0
2, 103248, Note_on_c, 0, 74, 0
2, 103271, Note_on_c, 0, 70, 80
2, 103277, Note_on_c, 0, 82, 80
2, 103375, Note_on_c, 0, 82, 0
2, 103405, Note_on_c, 0, 82, 80
2, 103437, Note_on_c, 0, 82, 0
2, 103443, Note_on_c, 0, 70, 0
2, 103457, Note_on_c, 0, 59, 80
2, 103462, Note_on_c, 0, 47, 80
2, 103466, Note_on_c, 0, 67, 80
2, 103471, Note_on_c, 0, 79, 80
2, 103560, Note_on_c, 0, 47, 0
2, 103565, Note_on_c, 0, 67, 0
2, 103570, Note_on_c, 0, 59, 0
2, 103570, Note_on_c, 0, 79, 0
2, 103588, Note_on_c, 0, 60, 80
2, 103600, Note_on_c, 0, 48, 80
2, 103602, Note_on_c, 0, 72, 80
2, 103604, Note_on_c, 0, 75, 80
2, 103606, Note_on_c, 0, 67, 80
2, 103606, Note_on_c, 0, 79, 80
2, 103631, Note_on_c, 0, 79, 0
2, 103631, Note_on_c, 0, 75, 0
2, 103632, Note_on_c, 0, 72, 0
2, 103632, Note_on_c, 0, 67, 0
2, 103660, Note_on_c, 0, 66, 80
2, 103665, Note_on_c, 0, 78, 80
2, 103697, Note_on_c, 0, 48, 0
2, 103699, Note_on_c, 0, 66, 0
2, 103708, Note_on_c, 0, 78, 0
2, 103720, Note_on_c, 0, 57, 80
2, 103725, Note_on_c, 0, 53, 80
2, 103725, Note_on_c, 0, 63, 80
2, 103727, Note_on_c, 0, 79, 80
2, 103728, Note_on_c, 0, 67, 80
2, 103728, Note_on_c, 0, 72, 80
2, 103728, Note_on_c, 0, 75, 80
2, 103826, Note_on_c, 0, 75, 0
2, 103826, Note_on_c, 0, 67, 0
2, 103826, Note_on_c, 0, 79, 0
2, 103831, Note_on_c, 0, 72, 0
2, 103854, Note_on_c, 0, 78, 80
2, 103856, Note_on_c, 0, 66, 80
2, 103861, Note_on_c, 0, 69, 80
2, 103861, Note_on_c, 0, 72, 80
2, 103896, Note_on_c, 0, 60, 0
2, 103896, Note_on_c, 0, 53, 0
2, 103896, Note_on_c, 0, 57, 0
2, 103920, Note_on_c, 0, 51, 80
2, 103957, Note_on_c, 0, 51, 0
2, 103967, Note_on_c, 0, 63, 0
2, 103983, Note_on_c, 0, 50, 80
2, 103983, Note_on_c, 0, 62, 80
2, 104021, Note_on_c, 0, 62, 0
2, 104028, Note_on_c, 0, 50, 0
2, 104058, Note_on_c, 0, 49, 80
2, 104058, Note_on_c, 0, 61, 80
2, 104086, Note_on_c, 0, 49, 0
2, 104090, Note_on_c, 0, 66, 0
2, 104090, Note_on_c, 0, 61, 0
2, 104092, Note_on_c, 0, 72, 0
2, 104092, Note_on_c, 0, 69, 0
2, 104099, Note_on_c, 0, 78, 0
2, 104119, Note_on_c, 0, 48, 80
2, 104119, Note_on_c, 0, 60, 80
2, 104215, Note_on_c, 0, 48, 0
2, 104229, Note_on_c, 0, 60, 0
2, 104245, Note_on_c, 0, 41, 80
2, 104247, Note_on_c, 0, 53, 80
2, 104252, Note_on_c, 0, 69, 80
2, 104258, Note_on_c, 0, 72, 80
2, 104258, Note_on_c, 0, 75, 80
2, 104260, Note_on_c, 0, 81, 80
2, 104288, Note_on_c, 0, 75, 0
2, 104288, Note_on_c, 0, 72, 0
2, 104293, Note_on_c, 0, 81, 0
2, 104298, Note_on_c, 0, 69, 0
2, 104316, Note_on_c, 0, 80, 80
2, 104318, Note_on_c, 0, 72, 80
2, 104318, Note_on_c, 0, 75, 80
2, 104323, Note_on_c, 0, 68, 80
2, 104336, Note_on_c, 0, 41, 0
2, 104352, Note_on_c, 0, 53, 0
2, 104371, Note_on_c, 0, 43, 80
2, 104371, Note_on_c, 0, 55, 80
2, 104417, Note_on_c, 0, 75, 0
2, 104424, Note_on_c, 0, 72, 0
2, 104425, Note_on_c, 0, 68, 0
2, 104446, Note_on_c, 0, 68, 80
2, 104448, Note_on_c, 0, 72, 80
2, 104448, Note_on_c, 0, 75, 80
2, 104479, Note_on_c, 0, 75, 0
2, 104479, Note_on_c, 0, 43, 0
2, 104484, Note_on_c, 0, 68, 0
2, 104486, Note_on_c, 0, 72, 0
2, 104486, Note_on_c, 0, 55, 0
2, 104488, Note_on_c, 0, 80, 0
2, 104504, Note_on_c, 0, 45, 80
2, 104504, Note_on_c, 0, 57, 80
2, 104506, Note_on_c, 0, 69, 80
2, 104506, Note_on_c, 0, 72, 80
2, 104508, Note_on_c, 0, 75, 80
2, 104510, Note_on_c, 0, 81, 80
2, 104601, Note_on_c, 0, 45, 0
2, 104608, Note_on_c, 0, 75, 0
2, 104608, Note_on_c, 0, 72, 0
2, 104610, Note_on_c, 0, 57, 0
2, 104612, Note_on_c, 0, 81, 0
2, 104616, Note_on_c, 0, 69, 0
2, 104633, Note_on_c, 0, 70, 80
2, 104633, Note_on_c, 0, 74, 80
2, 104635, Note_on_c, 0, 58, 80
2, 104637, Note_on_c, 0, 46, 80
2, 104639, Note_on_c, 0, 67, 80
2, 104640, Note_on_c, 0, 79, 80
2, 104732, Note_on_c, 0, 46, 0
2, 104734, Note_on_c, 0, 67, 0
2, 104736, Note_on_c, 0, 58, 0
2, 104737, Note_on_c, 0, 79, 0
2, 104742, Note_on_c, 0, 74, 0
2, 104744, Note_on_c, 0, 70, 0
2, 104764, Note_on_c, 0, 53, 80
2, 104764, Note_on_c, 0, 58, 80
2, 104769, Note_on_c, 0, 62, 80
2, 104835, Note_on_c, 0, 74, 80
2, 104872, Note_on_c, 0, 58, 0
2, 104877, Note_on_c, 0, 62, 0
2, 104881, Note_on_c, 0, 53, 0
2, 104883, Note_on_c, 0, 74, 0
2, 104902, Note_on_c, 0, 45, 80
2, 104902, Note_on_c, 0, 57, 80
2, 104904, Note_on_c, 0, 65, 80
2, 104913, Note_on_c, 0, 77, 80
2, 104948, Note_on_c, 0, 77, 0
2, 104948, Note_on_c, 0, 65, 0
2, 104971, Note_on_c, 0, 73, 80
2, 105002, Note_on_c, 0, 45, 0
2, 105016, Note_on_c, 0, 73, 0
2, 105016, Note_on_c, 0, 57, 0
2, 105036, Note_on_c, 0, 56, 80
2, 105038, Note_on_c, 0, 44, 80
2, 105038, Note_on_c, 0, 65, 80
2, 105038, Note_on_c, 0, 74, 80
2, 105144, Note_on_c, 0, 44, 0
2, 105145, Note_on_c, 0, 65, 0
2, 105150, Note_on_c, 0, 56, 0
2, 105150, Note_on_c, 0, 74, 0
2, 105168, Note_on_c, 0, 43, 80
2, 105168, Note_on_c, 0, 71, 80
2, 105173, Note_on_c, 0, 55, 80
2, 105173, Note_on_c, 0, 74, 80
2, 105180, Note_on_c, 0, 67, 80
2, 105180, Note_on_c, 0, 79, 80
2, 105208, Note_on_c, 0, 79, 0
2, 105208, Note_on_c, 0, 67, 0
2, 105219, Note_on_c, 0, 74, 0
2, 105242, Note_on_c, 0, 67, 80
2, 105242, Note_on_c, 0, 74, 80
2, 105242, Note_on_c, 0, 79, 80
2, 105274, Note_on_c, 0, 43, 0
2, 105279, Note_on_c, 0, 55, 0
2, 105299, Note_on_c, 0, 62, 80
2, 105301, Note_on_c, 0, 55, 80
2, 105303, Note_on_c, 0, 59, 80
2, 105303, Note_on_c, 0, 65, 80
2, 105339, Note_on_c, 0, 79, 0
2, 105341, Note_on_c, 0, 67, 0
2, 105343, Note_on_c, 0, 71, 0
2, 105350, Note_on_c, 0, 74, 0
2, 105368, Note_on_c, 0, 69, 80
2, 105407, Note_on_c, 0, 65, 0
2, 105408, Note_on_c, 0, 69, 0
2, 105413, Note_on_c, 0, 59, 0
2, 105413, Note_on_c, 0, 55, 0
2, 105413, Note_on_c, 0, 62, 0
2, 105432, Note_on_c, 0, 50, 80
2, 105436, Note_on_c, 0, 59, 80
2, 105441, Note_on_c, 0, 71, 80
2, 105441, Note_on_c, 0, 77, 80
2, 105539, Note_on_c, 0, 50, 0
2, 105541, Note_on_c, 0, 59, 0
2, 105546, Note_on_c, 0, 71, 0
2, 105546, Note_on_c, 0, 77, 0
2, 105566, Note_on_c, 0, 55, 80
2, 105566, Note_on_c, 0, 59, 80
2, 105568, Note_on_c, 0, 65, 80
2, 105568, Note_on_c, 0, 74, 80
2, 105570, Note_on_c, 0, 62, 80
2, 105575, Note_on_c, 0, 67, 80
2, 105671, Note_on_c, 0, 67, 0
2, 105671, Note_on_c, 0, 55, 0
2, 105671, Note_on_c, 0, 65, 0
2, 105671, Note_on_c, 0, 62, 0
2, 105675, Note_on_c, 0, 59, 0
2, 105677, Note_on_c, 0, 74, 0
2, 105696, Note_on_c, 0, 64, 80
2, 105696, Note_on_c, 0, 70, 80
2, 105697, Note_on_c, 0, 48, 80
2, 105699, Note_on_c, 0, 74, 80
2, 105701, Note_on_c, 0, 60, 80
2, 105738, Note_on_c, 0, 74, 0
2, 105740, Note_on_c, 0, 64, 0
2, 105742, Note_on_c, 0, 70, 0
2, 105758, Note_on_c, 0, 74, 80
2, 105760, Note_on_c, 0, 64, 80
2, 105762, Note_on_c, 0, 70, 80
2, 105793, Note_on_c, 0, 48, 0
2, 105803, Note_on_c, 0, 60, 0
2, 105808, Note_on_c, 0, 74, 0
2, 105821, Note_on_c, 0, 55, 80
2, 105826, Note_on_c, 0, 52, 80
2, 105826, Note_on_c, 0, 58, 80
2, 105828, Note_on_c, 0, 73, 80
2, 105863, Note_on_c, 0, 73, 0
2, 105890, Note_on_c, 0, 72, 80
2, 105927, Note_on_c, 0, 52, 0
2, 105927, Note_on_c, 0, 58, 0
2, 105932, Note_on_c, 0, 55, 0
2, 105955, Note_on_c, 0, 59, 80
2, 105957, Note_on_c, 0, 47, 80
2, 105988, Note_on_c, 0, 47, 0
2, 105998, Note_on_c, 0, 70, 0
2, 105998, Note_on_c, 0, 59, 0
2, 105998, Note_on_c, 0, 72, 0
2, 106018, Note_on_c, 0, 60, 80
2, 106020, Note_on_c, 0, 48, 80
2, 106020, Note_on_c, 0, 70, 80
2, 106027, Note_on_c, 0, 73, 80
2, 106052, Note_on_c, 0, 48, 0
2, 106068, Note_on_c, 0, 60, 0
2, 106086, Note_on_c, 0, 47, 80
2, 106086, Note_on_c, 0, 59, 80
2, 106125, Note_on_c, 0, 47, 0
2, 106134, Note_on_c, 0, 59, 0
2, 106152, Note_on_c, 0, 58, 80
2, 106154, Note_on_c, 0, 46, 80
2, 106189, Note_on_c, 0, 46, 0
2, 106191, Note_on_c, 0, 58, 0
2, 106196, Note_on_c, 0, 73, 0
2, 106196, Note_on_c, 0, 70, 0
2, 106207, Note_on_c, 0, 64, 0
2, 106221, Note_on_c, 0, 57, 80
2, 106223, Note_on_c, 0, 45, 80
2, 106294, Note_on_c, 0, 65, 80
2, 106294, Note_on_c, 0, 69, 80
2, 106294, Note_on_c, 0, 74, 80
2, 106321, Note_on_c, 0, 45, 0
2, 106335, Note_on_c, 0, 65, 0
2, 106337, Note_on_c, 0, 69, 0
2, 106342, Note_on_c, 0, 74, 0
2, 106353, Note_on_c, 0, 60, 80
2, 106355, Note_on_c, 0, 65, 80
2, 106357, Note_on_c, 0, 53, 80
2, 106357, Note_on_c, 0, 63, 80
2, 106357, Note_on_c, 0, 69, 80
2, 106362, Note_on_c, 0, 73, 80
2, 106396, Note_on_c, 0, 65, 0
2, 106401, Note_on_c, 0, 69, 0
2, 106401, Note_on_c, 0, 73, 0
2, 106421, Note_on_c, 0, 74, 80
2, 106423, Note_on_c, 0, 65, 80
2, 106423, Note_on_c, 0, 69, 80
2, 106455, Note_on_c, 0, 53, 0
2, 106457, Note_on_c, 0, 60, 0
2, 106459, Note_on_c, 0, 57, 0
2, 106468, Note_on_c, 0, 63, 0
2, 106482, Note_on_c, 0, 53, 80
2, 106484, Note_on_c, 0, 41, 80
2, 106520, Note_on_c, 0, 69, 0
2, 106522, Note_on_c, 0, 65, 0
2, 106527, Note_on_c, 0, 74, 0
2, 106545, Note_on_c, 0, 65, 80
2, 106550, Note_on_c, 0, 74, 80
2, 106578, Note_on_c, 0, 41, 0
2, 106591, Note_on_c, 0, 65, 0
2, 106611, Note_on_c, 0, 57, 80
2, 106613, Note_on_c, 0, 60, 80
2, 106615, Note_on_c, 0, 63, 80
2, 106615, Note_on_c, 0, 67, 80
2, 106721, Note_on_c, 0, 67, 0
2, 106721, Note_on_c, 0, 53, 0
2, 106726, Note_on_c, 0, 60, 0
2, 106726, Note_on_c, 0, 63, 0
2, 106726, Note_on_c, 0, 57, 0
2, 106735, Note_on_c, 0, 74, 0
2, 106742, Note_on_c, 0, 46, 80
2, 106742, Note_on_c, 0, 58, 80
2, 106845, Note_on_c, 0, 58, 0
2, 106845, Note_on_c, 0, 46, 0
2, 106876, Note_on_c, 0, 41, 80
2, 106876, Note_on_c, 0, 65, 80
2, 106876, Note_on_c, 0, 70, 80
2, 106878, Note_on_c, 0, 53, 80
2, 106880, Note_on_c, 0, 77, 80
2, 106882, Note_on_c, 0, 74, 80
2, 106973, Note_on_c, 0, 41, 0
2, 106980, Note_on_c, 0, 65, 0
2, 106985, Note_on_c, 0, 77, 0
2, 106987, Note_on_c, 0, 53, 0
2, 106989, Note_on_c, 0, 74, 0
2, 106989, Note_on_c, 0, 70, 0
2, 107007, Note_on_c, 0, 43, 80
2, 107007, Note_on_c, 0, 55, 80
2, 107075, Note_on_c, 0, 65, 80
2, 107075, Note_on_c, 0, 74, 80
2, 107080, Note_on_c, 0, 70, 80
2, 107080, Note_on_c, 0, 77, 80
2, 107110, Note_on_c, 0, 43, 0
2, 107112, Note_on_c, 0, 55, 0
2, 107139, Note_on_c, 0, 45, 80
2, 107139, Note_on_c, 0, 57, 80
2, 107233, Note_on_c, 0, 45, 0
2, 107247, Note_on_c, 0, 65, 0
2, 107252, Note_on_c, 0, 77, 0
2, 107252, Note_on_c, 0, 70, 0
2, 107252, Note_on_c, 0, 57, 0
2, 107275, Note_on_c, 0, 46, 80
2, 107275, Note_on_c, 0, 58, 80
2, 107275, Note_on_c, 0, 65, 80
2, 107275, Note_on_c, 0, 70, 80
2, 107275, Note_on_c, 0, 77, 80
2, 107371, Note_on_c, 0, 46, 0
2, 107380, Note_on_c, 0, 65, 0
2, 107382, Note_on_c, 0, 58, 0
2, 107384, Note_on_c, 0, 77, 0
2, 107389, Note_on_c, 0, 70, 0
2, 107391, Note_on_c, 0, 74, 0
2, 107402, Note_on_c, 0, 59, 80
2, 107404, Note_on_c, 0, 47, 80
2, 107439, Note_on_c, 0, 47, 0
2, 107469, Note_on_c, 0, 47, 80
2, 107471, Note_on_c, 0, 65, 80
2, 107471, Note_on_c, 0, 74, 80
2, 107471, Note_on_c, 0, 77, 80
2, 107472, Note_on_c, 0, 70, 80
2, 107570, Note_on_c, 0, 77, 0
2, 107572, Note_on_c, 0, 65, 0
2, 107579, Note_on_c, 0, 74, 0
2, 107579, Note_on_c, 0, 70, 0
2, 107599, Note_on_c, 0, 87, 80
2, 107601, Note_on_c, 0, 75, 80
2, 107631, Note_on_c, 0, 47, 0
2, 107656, Note_on_c, 0, 47, 80
2, 107699, Note_on_c, 0, 87, 0
2, 107701, Note_on_c, 0, 75, 0
2, 107733, Note_on_c, 0, 84, 80
2, 107760, Note_on_c, 0, 47, 0
2, 107772, Note_on_c, 0, 84, 0
2, 107774, Note_on_c, 0, 59, 0
2, 107794, Note_on_c, 0, 48, 80
2, 107794, Note_on_c, 0, 60, 80
2, 107796, Note_on_c, 0, 75, 80
2, 107796, Note_on_c, 0, 81, 80
2, 107801, Note_on_c, 0, 87, 80
2, 107895, Note_on_c, 0, 48, 0
2, 107902, Note_on_c, 0, 81, 0
2, 107902, Note_on_c, 0, 75, 0
2, 107906, Note_on_c, 0, 87, 0
2, 107923, Note_on_c, 0, 57, 80
2, 107925, Note_on_c, 0, 63, 80
2, 107927, Note_on_c, 0, 53, 80
2, 108032, Note_on_c, 0, 60, 0
2, 108034, Note_on_c, 0, 57, 0
2, 108039, Note_on_c, 0, 53, 0
2, 108044, Note_on_c, 0, 63, 0
2, 108057, Note_on_c, 0, 41, 80
2, 108062, Note_on_c, 0, 72, 80
2, 108064, Note_on_c, 0, 53, 80
2, 108066, Note_on_c, 0, 84, 80
2, 108068, Note_on_c, 0, 75, 80
2, 108070, Note_on_c, 0, 81, 80
2, 108095, Note_on_c, 0, 75, 0
2, 108099, Note_on_c, 0, 72, 0
2, 108099, Note_on_c, 0, 81, 0
2, 108104, Note_on_c, 0, 84, 0
2, 108127, Note_on_c, 0, 80, 80
2, 108134, Note_on_c, 0, 68, 80
2, 108154, Note_on_c, 0, 41, 0
2, 108166, Note_on_c, 0, 68, 0
2, 108168, Note_on_c, 0, 53, 0
2, 108177, Note_on_c, 0, 80, 0
2, 108187, Note_on_c, 0, 57, 80
2, 108189, Note_on_c, 0, 53, 80
2, 108191, Note_on_c, 0, 63, 80
2, 108192, Note_on_c, 0, 60, 80
2, 108194, Note_on_c, 0, 69, 80
2, 108194, Note_on_c, 0, 75, 80
2, 108204, Note_on_c, 0, 81, 80
2, 108295, Note_on_c, 0, 75, 0
2, 108297, Note_on_c, 0, 53, 0
2, 108299, Note_on_c, 0, 69, 0
2, 108299, Note_on_c, 0, 81, 0
2, 108304, Note_on_c, 0, 57, 0
2, 108306, Note_on_c, 0, 63, 0
2, 108319, Note_on_c, 0, 48, 80
2, 108329, Note_on_c, 0, 67, 80
2, 108329, Note_on_c, 0, 75, 80
2, 108331, Note_on_c, 0, 79, 80
2, 108425, Note_on_c, 0, 48, 0
2, 108432, Note_on_c, 0, 75, 0
2, 108433, Note_on_c, 0, 60, 0
2, 108433, Note_on_c, 0, 67, 0
2, 108433, Note_on_c, 0, 79, 0
2, 108454, Note_on_c, 0, 41, 80
2, 108456, Note_on_c, 0, 53, 80
2, 108462, Note_on_c, 0, 68, 80
2, 108462, Note_on_c, 0, 80, 80
2, 108494, Note_on_c, 0, 68, 0
2, 108499, Note_on_c, 0, 80, 0
2, 108519, Note_on_c, 0, 75, 80
2, 108524, Note_on_c, 0, 69, 80
2, 108533, Note_on_c, 0, 81, 80
2, 108550, Note_on_c, 0, 41, 0
2, 108563, Note_on_c, 0, 53, 0
2, 108588, Note_on_c, 0, 55, 80
2, 108590, Note_on_c, 0, 43, 80
2, 108622, Note_on_c, 0, 75, 0
2, 108626, Note_on_c, 0, 81, 0
2, 108633, Note_on_c, 0, 69, 0
2, 108653, Note_on_c, 0, 65, 80
2, 108655, Note_on_c, 0, 77, 80
2, 108687, Note_on_c, 0, 43, 0
2, 108696, Note_on_c, 0, 77, 0
2, 108698, Note_on_c, 0, 65, 0
2, 108698, Note_on_c, 0, 55, 0
2, 108717, Note_on_c, 0, 57, 80
2, 108719, Note_on_c, 0, 45, 80
2, 108719, Note_on_c, 0, 74, 80
2, 108725, Note_on_c, 0, 67, 80
2, 108727, Note_on_c, 0, 79, 80
2, 108818, Note_on_c, 0, 45, 0
2, 108823, Note_on_c, 0, 79, 0
2, 108825, Note_on_c, 0, 67, 0
2, 108830, Note_on_c, 0, 57, 0
2, 108848, Note_on_c, 0, 58, 80
2, 108848, Note_on_c, 0, 70, 80
2, 108853, Note_on_c, 0, 65, 80
2, 108853, Note_on_c, 0, 77, 80
2, 108860, Note_on_c, 0, 46, 80
2, 108889, Note_on_c, 0, 65, 0
2, 108891, Note_on_c, 0, 77, 0
2, 108896, Note_on_c, 0, 70, 0
2, 108898, Note_on_c, 0, 74, 0
2, 108918, Note_on_c, 0, 74, 80
2, 108918, Note_on_c, 0, 77, 80
2, 108918, Note_on_c, 0, 82, 80
2, 108920, Note_on_c, 0, 70, 80
2, 108952, Note_on_c, 0, 46, 0
2, 108959, Note_on_c, 0, 58, 0
2, 108982, Note_on_c, 0, 53, 80
2, 108982, Note_on_c, 0, 58, 80
2, 108982, Note_on_c, 0, 62, 80
2, 109018, Note_on_c, 0, 82, 0
2, 109018, Note_on_c, 0, 77, 0
2, 109023, Note_on_c, 0, 74, 0
2, 109023, Note_on_c, 0, 70, 0
2, 109041, Note_on_c, 0, 65, 80
2, 109051, Note_on_c, 0, 77, 80
2, 109087, Note_on_c, 0, 65, 0
2, 109087, Note_on_c, 0, 58, 0
2, 109092, Note_on_c, 0, 62, 0
2, 109092, Note_on_c, 0, 77, 0
2, 109099, Note_on_c, 0, 53, 0
2, 109112, Note_on_c, 0, 45, 80
2, 109112, Note_on_c, 0, 57, 80
2, 109114, Note_on_c, 0, 74, 80
2, 109114, Note_on_c, 0, 77, 80
2, 109119, Note_on_c, 0, 70, 80
2, 109119, Note_on_c, 0, 82, 80
2, 109213, Note_on_c, 0, 82, 0
2, 109213, Note_on_c, 0, 45, 0
2, 109218, Note_on_c, 0, 77, 0
2, 109224, Note_on_c, 0, 57, 0
2, 109224, Note_on_c, 0, 74, 0
2, 109224, Note_on_c, 0, 70, 0
2, 109238, Note_on_c, 0, 56, 80
2, 109243, Note_on_c, 0, 44, 80
2, 109245, Note_on_c, 0, 74, 80
2, 109247, Note_on_c, 0, 70, 80
2, 109247, Note_on_c, 0, 77, 80
2, 109247, Note_on_c, 0, 82, 80
2, 109344, Note_on_c, 0, 77, 0
2, 109346, Note_on_c, 0, 44, 0
2, 109348, Note_on_c, 0, 56, 0
2, 109348, Note_on_c, 0, 82, 0
2, 109350, Note_on_c, 0, 70, 0
2, 109352, Note_on_c, 0, 74, 0
2, 109366, Note_on_c, 0, 55, 80
2, 109368, Note_on_c, 0, 43, 80
2, 109372, Note_on_c, 0, 71, 80
2, 109372, Note_on_c, 0, 74, 80
2, 109372, Note_on_c, 0, 77, 80
2, 109379, Note_on_c, 0, 83, 80
2, 109475, Note_on_c, 0, 77, 0
2, 109475, Note_on_c, 0, 43, 0
2, 109480, Note_on_c, 0, 71, 0
2, 109480, Note_on_c, 0, 83, 0
2, 109482, Note_on_c, 0, 74, 0
2, 109500, Note_on_c, 0, 59, 80
2, 109500, Note_on_c, 0, 65, 80
2, 109505, Note_on_c, 0, 62, 80
2, 109566, Note_on_c, 0, 74, 80
2, 109573, Note_on_c, 0, 67, 80
2, 109601, Note_on_c, 0, 62, 0
2, 109608, Note_on_c, 0, 55, 0
2, 109609, Note_on_c, 0, 67, 0
2, 109611, Note_on_c, 0, 65, 0
2, 109616, Note_on_c, 0, 59, 0
2, 109630, Note_on_c, 0, 43, 80
2, 109630, Note_on_c, 0, 55, 80
2, 109632, Note_on_c, 0, 69, 80
2, 109675, Note_on_c, 0, 69, 0
2, 109700, Note_on_c, 0, 67, 80
2, 109734, Note_on_c, 0, 67, 0
2, 109734, Note_on_c, 0, 43, 0
2, 109744, Note_on_c, 0, 55, 0
2, 109751, Note_on_c, 0, 74, 0
2, 109757, Note_on_c, 0, 41, 80
2, 109759, Note_on_c, 0, 53, 80
2, 109766, Note_on_c, 0, 77, 80
2, 109773, Note_on_c, 0, 71, 80
2, 109862, Note_on_c, 0, 41, 0
2, 109869, Note_on_c, 0, 53, 0
2, 109871, Note_on_c, 0, 77, 0
2, 109877, Note_on_c, 0, 71, 0
2, 109896, Note_on_c, 0, 40, 80
2, 109896, Note_on_c, 0, 52, 80
2, 109962, Note_on_c, 0, 64, 80
2, 109962, Note_on_c, 0, 74, 80
2, 109967, Note_on_c, 0, 70, 80
2, 109998, Note_on_c, 0, 40, 0
2, 110003, Note_on_c, 0, 52, 0
2, 110010, Note_on_c, 0, 70, 0
2, 110015, Note_on_c, 0, 74, 0
2, 110028, Note_on_c, 0, 52, 80
2, 110028, Note_on_c, 0, 55, 80
2, 110028, Note_on_c, 0, 58, 80
2, 110028, Note_on_c, 0, 73, 80
2, 110033, Note_on_c, 0, 70, 80
2, 110067, Note_on_c, 0, 73, 0
2, 110072, Note_on_c, 0, 64, 0
2, 110100, Note_on_c, 0, 64, 80
2, 110100, Note_on_c, 0, 72, 80
2, 110130, Note_on_c, 0, 52, 0
2, 110132, Note_on_c, 0, 58, 0
2, 110157, Note_on_c, 0, 43, 80
2, 110193, Note_on_c, 0, 43, 0
2, 110200, Note_on_c, 0, 55, 0
2, 110225, Note_on_c, 0, 42, 80
2, 110225, Note_on_c, 0, 54, 80
2, 110259, Note_on_c, 0, 42, 0
2, 110261, Note_on_c, 0, 54, 0
2, 110266, Note_on_c, 0, 72, 0
2, 110271, Note_on_c, 0, 64, 0
2, 110271, Note_on_c, 0, 70, 0
2, 110287, Note_on_c, 0, 55, 80
2, 110292, Note_on_c, 0, 43, 80
2, 110328, Note_on_c, 0, 43, 0
2, 110340, Note_on_c, 0, 55, 0
2, 110356, Note_on_c, 0, 44, 80
2, 110356, Note_on_c, 0, 56, 80
2, 110395, Note_on_c, 0, 44, 0
2, 110401, Note_on_c, 0, 56, 0
2, 110415, Note_on_c, 0, 57, 80
2, 110422, Note_on_c, 0, 45, 80
2, 110490, Note_on_c, 0, 69, 80
2, 110490, Note_on_c, 0, 73, 80
2, 110495, Note_on_c, 0, 65, 80
2, 110522, Note_on_c, 0, 45, 0
2, 110529, Note_on_c, 0, 73, 0
2, 110531, Note_on_c, 0, 65, 0
2, 110533, Note_on_c, 0, 69, 0
2, 110549, Note_on_c, 0, 53, 80
2, 110554, Note_on_c, 0, 60, 80
2, 110554, Note_on_c, 0, 63, 80
2, 110564, Note_on_c, 0, 74, 80
2, 110602, Note_on_c, 0, 74, 0
2, 110625, Note_on_c, 0, 65, 80
2, 110625, Note_on_c, 0, 69, 80
2, 110625, Note_on_c, 0, 72, 80
2, 110625, Note_on_c, 0, 77, 80
2, 110657, Note_on_c, 0, 53, 0
2, 110664, Note_on_c, 0, 57, 0
2, 110664, Note_on_c, 0, 60, 0
2, 110668, Note_on_c, 0, 63, 0
2, 110685, Note_on_c, 0, 41, 80
2, 110687, Note_on_c, 0, 53, 80
2, 110723, Note_on_c, 0, 65, 0
2, 110725, Note_on_c, 0, 77, 0
2, 110725, Note_on_c, 0, 69, 0
2, 110732, Note_on_c, 0, 72, 0
2, 110750, Note_on_c, 0, 65, 80
2, 110760, Note_on_c, 0, 77, 80
2, 110783, Note_on_c, 0, 41, 0
2, 110789, Note_on_c, 0, 65, 0
2, 110796, Note_on_c, 0, 77, 0
2, 110808, Note_on_c, 0, 57, 80
2, 110814, Note_on_c, 0, 60, 80
2, 110816, Note_on_c, 0, 67, 80
2, 110818, Note_on_c, 0, 63, 80
2, 110820, Note_on_c, 0, 79, 80
2, 110916, Note_on_c, 0, 67, 0
2, 110921, Note_on_c, 0, 63, 0
2, 110921, Note_on_c, 0, 60, 0
2, 110921, Note_on_c, 0, 79, 0
2, 110923, Note_on_c, 0, 53, 0
2, 110925, Note_on_c, 0, 57, 0
2, 110945, Note_on_c, 0, 58, 80
2, 110947, Note_on_c, 0, 74, 80
2, 110952, Note_on_c, 0, 46, 80
2, 110953, Note_on_c, 0, 70, 80
2, 110953, Note_on_c, 0, 77, 80
2, 110953, Note_on_c, 0, 82, 80
2, 111051, Note_on_c, 0, 46, 0
2, 111051, Note_on_c, 0, 58, 0
2, 111079, Note_on_c, 0, 61, 80
2, 111081, Note_on_c, 0, 49, 80
2, 111187, Note_on_c, 0, 49, 0
2, 111187, Note_on_c, 0, 61, 0
2, 111189, Note_on_c, 0, 77, 0
2, 111189, Note_on_c, 0, 82, 0
2, 111193, Note_on_c, 0, 74, 0
2, 111200, Note_on_c, 0, 70, 0
2, 111216, Note_on_c, 0, 50, 80
2, 111216, Note_on_c, 0, 62, 80
2, 111331, Note_on_c, 0, 50, 0
2, 111336, Note_on_c, 0, 62, 0
2, 111356, Note_on_c, 0, 61, 80
2, 111360, Note_on_c, 0, 49, 80
2, 111390, Note_on_c, 0, 49, 0
2, 111395, Note_on_c, 0, 61, 0
2, 111425, Note_on_c, 0, 50, 80
2, 111425, Note_on_c, 0, 62, 80
2, 111532, Note_on_c, 0, 62, 0
2, 111537, Note_on_c, 0, 50, 0
2, 111562, Note_on_c, 0, 49, 80
2, 111564, Note_on_c, 0, 61, 80
2, 111600, Note_on_c, 0, 61, 0
2, 111600, Note_on_c, 0, 49, 0
2, 111624, Note_on_c, 0, 50, 80
2, 111628, Note_on_c, 0, 62, 80
2, 111734, Note_on_c, 0, 62, 0
2, 111736, Note_on_c, 0, 50, 0
2, 111756, Note_on_c, 0, 58, 80
2, 111758, Note_on_c, 0, 46, 80
2, 111856, Note_on_c, 0, 46, 0
2, 111861, Note_on_c, 0, 58, 0
2, 111886, Note_on_c, 0, 47, 80
2, 111888, Note_on_c, 0, 59, 80
2, 111922, Note_on_c, 0, 47, 0
2, 111940, Note_on_c, 0, 59, 0
2, 111954, Note_on_c, 0, 60, 80
2, 111956, Note_on_c, 0, 48, 80
2, 112088, Note_on_c, 0, 68, 80
2, 112088, Note_on_c, 0, 80, 80
2, 112116, Note_on_c, 0, 48, 0
2, 112128, Note_on_c, 0, 68, 0
2, 112132, Note_on_c, 0, 80, 0
2, 112144, Note_on_c, 0, 57, 80
2, 112146, Note_on_c, 0, 75, 80
2, 112148, Note_on_c, 0, 53, 80
2, 112150, Note_on_c, 0, 63, 80
2, 112150, Note_on_c, 0, 69, 80
2, 112154, Note_on_c, 0, 81, 80
2, 112252, Note_on_c, 0, 81, 0
2, 112252, Note_on_c, 0, 60, 0
2, 112252, Note_on_c, 0, 75, 0
2, 112254, Note_on_c, 0, 53, 0
2, 112256, Note_on_c, 0, 57, 0
2, 112261, Note_on_c, 0, 63, 0
2, 112272, Note_on_c, 0, 41, 80
2, 112272, Note_on_c, 0, 77, 80
2, 112277, Note_on_c, 0, 53, 80
2, 112279, Note_on_c, 0, 65, 80
2, 112279, Note_on_c, 0, 72, 80
2, 112375, Note_on_c, 0, 41, 0
2, 112380, Note_on_c, 0, 53, 0
2, 112403, Note_on_c, 0, 63, 80
2, 112405, Note_on_c, 0, 57, 80
2, 112405, Note_on_c, 0, 60, 80
2, 112407, Note_on_c, 0, 53, 80
2, 112505, Note_on_c, 0, 53, 0
2, 112505, Note_on_c, 0, 60, 0
2, 112507, Note_on_c, 0, 72, 0
2, 112507, Note_on_c, 0, 69, 0
2, 112507, Note_on_c, 0, 77, 0
2, 112509, Note_on_c, 0, 65, 0
2, 112509, Note_on_c, 0, 57, 0
2, 112529, Note_on_c, 0, 51, 80
2, 112597, Note_on_c, 0, 68, 80
2, 112602, Note_on_c, 0, 80, 80
2, 112608, Note_on_c, 0, 75, 80
2, 112638, Note_on_c, 0, 51, 0
2, 112648, Note_on_c, 0, 63, 0
2, 112661, Note_on_c, 0, 62, 80
2, 112663, Note_on_c, 0, 50, 80
2, 112702, Note_on_c, 0, 75, 0
2, 112704, Note_on_c, 0, 68, 0
2, 112720, Note_on_c, 0, 80, 0
2, 112733, Note_on_c, 0, 69, 80
2, 112735, Note_on_c, 0, 81, 80
2, 112737, Note_on_c, 0, 75, 80
2, 112772, Note_on_c, 0, 50, 0
2, 112772, Note_on_c, 0, 62, 0
2, 112774, Note_on_c, 0, 81, 0
2, 112774, Note_on_c, 0, 69, 0
2, 112774, Note_on_c, 0, 75, 0
2, 112797, Note_on_c, 0, 60, 80
2, 112799, Note_on_c, 0, 68, 80
2, 112799, Note_on_c, 0, 75, 80
2, 112800, Note_on_c, 0, 48, 80
2, 112802, Note_on_c, 0, 80, 80
2, 112837, Note_on_c, 0, 75, 0
2, 112844, Note_on_c, 0, 68, 0
2, 112846, Note_on_c, 0, 80, 0
2, 112869, Note_on_c, 0, 69, 80
2, 112871, Note_on_c, 0, 81, 80
2, 112896, Note_on_c, 0, 48, 0
2, 112902, Note_on_c, 0, 81, 0
2, 112904, Note_on_c, 0, 60, 0
2, 112906, Note_on_c, 0, 69, 0
2, 112926, Note_on_c, 0, 41, 80
2, 112928, Note_on_c, 0, 53, 80
2, 112930, Note_on_c, 0, 80, 80
2, 112937, Note_on_c, 0, 68, 80
2, 112937, Note_on_c, 0, 75, 80
2, 112967, Note_on_c, 0, 75, 0
2, 112976, Note_on_c, 0, 68, 0
2, 112978, Note_on_c, 0, 80, 0
2, 113001, Note_on_c, 0, 69, 80
2, 113006, Note_on_c, 0, 81, 80
2, 113029, Note_on_c, 0, 41, 0
2, 113034, Note_on_c, 0, 81, 0
2, 113039, Note_on_c, 0, 53, 0
2, 113040, Note_on_c, 0, 69, 0
2, 113070, Note_on_c, 0, 46, 80
2, 113072, Note_on_c, 0, 58, 80
2, 113072, Note_on_c, 0, 67, 80
2, 113072, Note_on_c, 0, 74, 80
2, 113079, Note_on_c, 0, 79, 80
2, 113170, Note_on_c, 0, 46, 0
2, 113172, Note_on_c, 0, 58, 0
2, 113172, Note_on_c, 0, 79, 0
2, 113172, Note_on_c, 0, 67, 0
2, 113182, Note_on_c, 0, 74, 0
2, 113200, Note_on_c, 0, 53, 80
2, 113200, Note_on_c, 0, 58, 80
2, 113200, Note_on_c, 0, 62, 80
2, 113264, Note_on_c, 0, 73, 80
2, 113303, Note_on_c, 0, 62, 0
2, 113303, Note_on_c, 0, 58, 0
2, 113307, Note_on_c, 0, 53, 0
2, 113307, Note_on_c, 0, 73, 0
2, 113328, Note_on_c, 0, 45, 80
2, 113328, Note_on_c, 0, 57, 80
2, 113334, Note_on_c, 0, 74, 80
2, 113336, Note_on_c, 0, 67, 80
2, 113368, Note_on_c, 0, 67, 0
2, 113377, Note_on_c, 0, 74, 0
2, 113405, Note_on_c, 0, 79, 80
2, 113428, Note_on_c, 0, 45, 0
2, 113435, Note_on_c, 0, 79, 0
2, 113442, Note_on_c, 0, 57, 0
2, 113462, Note_on_c, 0, 44, 80
2, 113462, Note_on_c, 0, 56, 80
2, 113469, Note_on_c, 0, 67, 80
2, 113469, Note_on_c, 0, 77, 80
2, 113503, Note_on_c, 0, 67, 0
2, 113515, Note_on_c, 0, 77, 0
2, 113535, Note_on_c, 0, 73, 80
2, 113563, Note_on_c, 0, 44, 0
2, 113569, Note_on_c, 0, 56, 0
2, 113576, Note_on_c, 0, 73, 0
2, 113596, Note_on_c, 0, 43, 80
2, 113596, Note_on_c, 0, 55, 80
2, 113601, Note_on_c, 0, 74, 80
2, 113603, Note_on_c, 0, 67, 80
2, 113704, Note_on_c, 0, 43, 0
2, 113706, Note_on_c, 0, 67, 0
2, 113729, Note_on_c, 0, 59, 80
2, 113729, Note_on_c, 0, 62, 80
2, 113731, Note_on_c, 0, 65, 80
2, 113733, Note_on_c, 0, 67, 80
2, 113733, Note_on_c, 0, 71, 80
2, 113737, Note_on_c, 0, 79, 80
2, 113765, Note_on_c, 0, 67, 0
2, 113772, Note_on_c, 0, 79, 0
2, 113772, Note_on_c, 0, 74, 0
2, 113772, Note_on_c, 0, 71, 0
2, 113797, Note_on_c, 0, 74, 80
2, 113799, Note_on_c, 0, 67, 80
2, 113799, Note_on_c, 0, 71, 80
2, 113801, Note_on_c, 0, 79, 80
2, 113835, Note_on_c, 0, 62, 0
2, 113835, Note_on_c, 0, 65, 0
2, 113835, Note_on_c, 0, 59, 0
2, 113860, Note_on_c, 0, 43, 80
2, 113902, Note_on_c, 0, 67, 0
2, 113902, Note_on_c, 0, 71, 0
2, 113906, Note_on_c, 0, 74, 0
2, 113906, Note_on_c, 0, 79, 0
2, 113931, Note_on_c, 0, 65, 80
2, 113931, Note_on_c, 0, 77, 80
2, 113963, Note_on_c, 0, 43, 0
2, 113973, Note_on_c, 0, 55, 0
2, 113998, Note_on_c, 0, 41, 80
2, 113998, Note_on_c, 0, 53, 80
2, 114034, Note_on_c, 0, 65, 0
2, 114039, Note_on_c, 0, 77, 0
2, 114062, Note_on_c, 0, 71, 80
2, 114090, Note_on_c, 0, 41, 0
2, 114099, Note_on_c, 0, 71, 0
2, 114101, Note_on_c, 0, 53, 0
2, 114121, Note_on_c, 0, 52, 80
2, 114123, Note_on_c, 0, 40, 80
2, 114128, Note_on_c, 0, 64, 80
2, 114128, Note_on_c, 0, 74, 80
2, 114130, Note_on_c, 0, 70, 80
2, 114171, Note_on_c, 0, 70, 0
2, 114173, Note_on_c, 0, 64, 0
2, 114223, Note_on_c, 0, 40, 0
2, 114228, Note_on_c, 0, 52, 0
2, 114244, Note_on_c, 0, 74, 0
2, 114258, Note_on_c, 0, 52, 80
2, 114260, Note_on_c, 0, 73, 80
2, 114262, Note_on_c, 0, 55, 80
2, 114262, Note_on_c, 0, 58, 80
2, 114264, Note_on_c, 0, 70, 80
2, 114305, Note_on_c, 0, 73, 0
2, 114310, Note_on_c, 0, 70, 0
2, 114321, Note_on_c, 0, 64, 80
2, 114333, Note_on_c, 0, 70, 80
2, 114333, Note_on_c, 0, 72, 80
2, 114362, Note_on_c, 0, 58, 0
2, 114367, Note_on_c, 0, 52, 0
2, 114367, Note_on_c, 0, 55, 0
2, 114387, Note_on_c, 0, 55, 80
2, 114397, Note_on_c, 0, 43, 80
2, 114433, Note_on_c, 0, 43, 0
2, 114440, Note_on_c, 0, 55, 0
2, 114458, Note_on_c, 0, 54, 80
2, 114465, Note_on_c, 0, 42, 80
2, 114495, Note_on_c, 0, 42, 0
2, 114500, Note_on_c, 0, 54, 0
2, 114525, Note_on_c, 0, 55, 80
2, 114527, Note_on_c, 0, 43, 80
2, 114565, Note_on_c, 0, 43, 0
2, 114575, Note_on_c, 0, 55, 0
2, 114588, Note_on_c, 0, 44, 80
2, 114588, Note_on_c, 0, 56, 80
2, 114629, Note_on_c, 0, 56, 0
2, 114629, Note_on_c, 0, 44, 0
2, 114636, Note_on_c, 0, 64, 0
2, 114636, Note_on_c, 0, 70, 0
2, 114636, Note_on_c, 0, 72, 0
2, 114649, Note_on_c, 0, 45, 80
2, 114649, Note_on_c, 0, 57, 80
2, 114661, Note_on_c, 0, 77, 80
2, 114663, Note_on_c, 0, 72, 80
2, 114701, Note_on_c, 0, 72, 0
2, 114701, Note_on_c, 0, 77, 0
2, 114729, Note_on_c, 0, 76, 80
2, 114761, Note_on_c, 0, 45, 0
2, 114763, Note_on_c, 0, 76, 0
2, 114783, Note_on_c, 0, 60, 80
2, 114785, Note_on_c, 0, 53, 80
2, 114785, Note_on_c, 0, 63, 80
2, 114790, Note_on_c, 0, 75, 80
2, 114833, Note_on_c, 0, 75, 0
2, 114853, Note_on_c, 0, 65, 80
2, 114889, Note_on_c, 0, 65, 0
2, 114896, Note_on_c, 0, 60, 0
2, 114896, Note_on_c, 0, 57, 0
2, 114898, Note_on_c, 0, 63, 0
2, 114914, Note_on_c, 0, 41, 80
2, 114921, Note_on_c, 0, 69, 80
2, 114921, Note_on_c, 0, 74, 80
2, 114962, Note_on_c, 0, 74, 0
2, 114962, Note_on_c, 0, 69, 0
2, 114985, Note_on_c, 0, 72, 80
2, 115008, Note_on_c, 0, 41, 0
2, 115029, Note_on_c, 0, 72, 0
2, 115045, Note_on_c, 0, 57, 80
2, 115047, Note_on_c, 0, 63, 80
2, 115049, Note_on_c, 0, 60, 80
2, 115051, Note_on_c, 0, 69, 80
2, 115082, Note_on_c, 0, 69, 0
2, 115112, Note_on_c, 0, 67, 80
2, 115144, Note_on_c, 0, 67, 0
2, 115146, Note_on_c, 0, 53, 0
2, 115151, Note_on_c, 0, 57, 0
2, 115151, Note_on_c, 0, 60, 0
2, 115155, Note_on_c, 0, 63, 0
2, 115176, Note_on_c, 0, 62, 80
2, 115180, Note_on_c, 0, 53, 80
2, 115182, Note_on_c, 0, 65, 80
2, 115187, Note_on_c, 0, 70, 80
2, 115290, Note_on_c, 0, 70, 0
2, 115290, Note_on_c, 0, 65, 0
2, 115290, Note_on_c, 0, 62, 0
2, 115315, Note_on_c, 0, 61, 80
2, 115315, Note_on_c, 0, 65, 80
2, 115321, Note_on_c, 0, 72, 80
2, 115360, Note_on_c, 0, 72, 0
2, 115362, Note_on_c, 0, 65, 0
2, 115385, Note_on_c, 0, 74, 80
2, 115421, Note_on_c, 0, 61, 0
2, 115426, Note_on_c, 0, 53, 0
2, 115436, Note_on_c, 0, 74, 0
2, 115449, Note_on_c, 0, 60, 80
2, 115449, Note_on_c, 0, 63, 80
2, 115456, Note_on_c, 0, 53, 80
2, 115461, Note_on_c, 0, 69, 80
2, 115461, Note_on_c, 0, 75, 80
2, 115490, Note_on_c, 0, 75, 0
2, 115495, Note_on_c, 0, 63, 0
2, 115495, Note_on_c, 0, 69, 0
2, 115515, Note_on_c, 0, 65, 80
2, 115525, Note_on_c, 0, 77, 80
2, 115561, Note_on_c, 0, 77, 0
2, 115561, Note_on_c, 0, 65, 0
2, 115561, Note_on_c, 0, 60, 0
2, 115584, Note_on_c, 0, 57, 80
2, 115591, Note_on_c, 0, 60, 80
2, 115593, Note_on_c, 0, 63, 80
2, 115593, Note_on_c, 0, 67, 80
2, 115600, Note_on_c, 0, 79, 80
2, 115628, Note_on_c, 0, 67, 0
2, 115630, Note_on_c, 0, 79, 0
2, 115655, Note_on_c, 0, 69, 80
2, 115666, Note_on_c, 0, 81, 80
2, 115696, Note_on_c, 0, 81, 0
2, 115696, Note_on_c, 0, 53, 0
2, 115698, Note_on_c, 0, 60, 0
2, 115700, Note_on_c, 0, 69, 0
2, 115702, Note_on_c, 0, 63, 0
2, 115702, Note_on_c, 0, 57, 0
2, 115722, Note_on_c, 0, 53, 80
2, 115722, Note_on_c, 0, 62, 80
2, 115724, Note_on_c, 0, 70, 80
2, 115724, Note_on_c, 0, 82, 80
2, 115726, Note_on_c, 0, 74, 80
2, 115755, Note_on_c, 0, 82, 0
2, 115757, Note_on_c, 0, 70, 0
2, 115759, Note_on_c, 0, 74, 0
2, 115782, Note_on_c, 0, 70, 80
2, 115782, Note_on_c, 0, 74, 80
2, 115787, Note_on_c, 0, 82, 80
2, 115822, Note_on_c, 0, 82, 0
2, 115822, Note_on_c, 0, 62, 0
2, 115824, Note_on_c, 0, 53, 0
2, 115825, Note_on_c, 0, 74, 0
2, 115830, Note_on_c, 0, 70, 0
2, 115847, Note_on_c, 0, 48, 80
2, 115847, Note_on_c, 0, 53, 80
2, 115848, Note_on_c, 0, 41, 80
2, 115848, Note_on_c, 0, 69, 80
2, 115848, Note_on_c, 0, 74, 80
2, 115855, Note_on_c, 0, 81, 80
2, 115942, Note_on_c, 0, 48, 0
2, 115944, Note_on_c, 0, 41, 0
2, 115948, Note_on_c, 0, 69, 0
2, 115948, Note_on_c, 0, 81, 0
2, 115967, Note_on_c, 0, 41, 80
2, 115973, Note_on_c, 0, 48, 80
2, 115980, Note_on_c, 0, 67, 80
2, 115982, Note_on_c, 0, 79, 80
2, 116068, Note_on_c, 0, 67, 0
2, 116078, Note_on_c, 0, 79, 0
2, 116098, Note_on_c, 0, 65, 80
2, 116108, Note_on_c, 0, 77, 80
2, 116192, Note_on_c, 0, 41, 0
2, 116197, Note_on_c, 0, 48, 0
2, 116208, Note_on_c, 0, 65, 0
2, 116208, Note_on_c, 0, 77, 0
2, 116210, Note_on_c, 0, 53, 0
2, 116215, Note_on_c, 0, 74, 0
2, 116220, Note_on_c, 0, 41, 80
2, 116220, Note_on_c, 0, 48, 80
2, 116225, Note_on_c, 0, 57, 80
2, 116225, Note_on_c, 0, 63, 80
2, 116227, Note_on_c, 0, 67, 80
2, 116261, Note_on_c, 0, 67, 0
2, 116296, Note_on_c, 0, 67, 80
2, 116401, Note_on_c, 0, 67, 0
2, 116401, Note_on_c, 0, 57, 0
2, 116422, Note_on_c, 0, 57, 80
2, 116428, Note_on_c, 0, 67, 80
2, 116453, Note_on_c, 0, 41, 0
2, 116460, Note_on_c, 0, 67, 0
2, 116462, Note_on_c, 0, 48, 0
2, 116467, Note_on_c, 0, 57, 0
2, 116476, Note_on_c, 0, 63, 0
2, 116490, Note_on_c, 0, 58, 80
2, 116495, Note_on_c, 0, 42, 80
2, 116495, Note_on_c, 0, 49, 80
2, 116495, Note_on_c, 0, 64, 80
2, 116495, Note_on_c, 0, 68, 80
2, 116531, Note_on_c, 0, 58, 0
2, 116533, Note_on_c, 0, 68, 0
2, 116553, Note_on_c, 0, 58, 80
2, 116555, Note_on_c, 0, 68, 80
2, 116593, Note_on_c, 0, 68, 0
2, 116595, Note_on_c, 0, 64, 0
2, 116616, Note_on_c, 0, 64, 80
2, 116620, Note_on_c, 0, 68, 80
2, 116723, Note_on_c, 0, 42, 0
2, 116725, Note_on_c, 0, 58, 0
2, 116727, Note_on_c, 0, 68, 0
2, 116729, Note_on_c, 0, 49, 0
2, 116734, Note_on_c, 0, 64, 0
2, 116750, Note_on_c, 0, 50, 80
2, 116750, Note_on_c, 0, 59, 80
2, 116752, Note_on_c, 0, 43, 80
2, 116754, Note_on_c, 0, 65, 80
2, 116759, Note_on_c, 0, 69, 80
2, 116797, Note_on_c, 0, 59, 0
2, 116817, Note_on_c, 0, 59, 80
2, 116865, Note_on_c, 0, 59, 0
2, 116865, Note_on_c, 0, 69, 0
2, 116888, Note_on_c, 0, 59, 80
2, 116888, Note_on_c, 0, 69, 80
2, 116991, Note_on_c, 0, 65, 0
2, 116993, Note_on_c, 0, 50, 0
2, 116993, Note_on_c, 0, 43, 0
2, 116998, Note_on_c, 0, 59, 0
2, 117000, Note_on_c, 0, 69, 0
2, 117011, Note_on_c, 0, 51, 80
2, 117016, Note_on_c, 0, 60, 80
2, 117021, Note_on_c, 0, 66, 80
2, 117021, Note_on_c, 0, 70, 80
2, 117025, Note_on_c, 0, 44, 80
2, 117055, Note_on_c, 0, 66, 0
2, 117065, Note_on_c, 0, 70, 0
2, 117090, Note_on_c, 0, 66, 80
2, 117090, Note_on_c, 0, 70, 80
2, 117128, Note_on_c, 0, 66, 0
2, 117135, Note_on_c, 0, 70, 0
2, 117158, Note_on_c, 0, 66, 80
2, 117158, Note_on_c, 0, 70, 80
2, 117254, Note_on_c, 0, 44, 0
2, 117261, Note_on_c, 0, 66, 0
2, 117261, Note_on_c, 0, 51, 0
2, 117267, Note_on_c, 0, 60, 0
2, 117272, Note_on_c, 0, 70, 0
2, 117288, Note_on_c, 0, 52, 80
2, 117288, Note_on_c, 0, 61, 80
2, 117288, Note_on_c, 0, 71, 80
2, 117293, Note_on_c, 0, 45, 80
2, 117293, Note_on_c, 0, 67, 80
2, 117321, Note_on_c, 0, 61, 0
2, 117328, Note_on_c, 0, 67, 0
2, 117328, Note_on_c, 0, 71, 0
2, 117356, Note_on_c, 0, 61, 80
2, 117356, Note_on_c, 0, 67, 80
2, 117356, Note_on_c, 0, 71, 80
2, 117394, Note_on_c, 0, 71, 0
2, 117396, Note_on_c, 0, 61, 0
2, 117398, Note_on_c, 0, 67, 0
2, 117416, Note_on_c, 0, 61, 80
2, 117421, Note_on_c, 0, 71, 80
2, 117426, Note_on_c, 0, 67, 80
2, 117520, Note_on_c, 0, 45, 0
2, 117525, Note_on_c, 0, 52, 0
2, 117527, Note_on_c, 0, 71, 0
2, 117527, Note_on_c, 0, 61, 0
2, 117527, Note_on_c, 0, 67, 0
2, 117550, Note_on_c, 0, 53, 80
2, 117550, Note_on_c, 0, 62, 80
2, 117552, Note_on_c, 0, 46, 80
2, 117553, Note_on_c, 0, 68, 80
2, 117553, Note_on_c, 0, 72, 80
2, 117588, Note_on_c, 0, 68, 0
2, 117588, Note_on_c, 0, 62, 0
2, 117593, Note_on_c, 0, 72, 0
2, 117611, Note_on_c, 0, 62, 80
2, 117618, Note_on_c, 0, 72, 80
2, 117620, Note_on_c, 0, 68, 80
2, 117658, Note_on_c, 0, 68, 0
2, 117658, Note_on_c, 0, 72, 0
2, 117660, Note_on_c, 0, 62, 0
2, 117680, Note_on_c, 0, 62, 80
2, 117680, Note_on_c, 0, 68, 80
2, 117680, Note_on_c, 0, 72, 80
2, 117790, Note_on_c, 0, 46, 0
2, 117792, Note_on_c, 0, 53, 0
2, 117792, Note_on_c, 0, 62, 0
2, 117796, Note_on_c, 0, 68, 0
2, 117796, Note_on_c, 0, 72, 0
2, 117815, Note_on_c, 0, 47, 80
2, 117815, Note_on_c, 0, 69, 80
2, 117816, Note_on_c, 0, 63, 80
2, 117818, Note_on_c, 0, 54, 80
2, 117820, Note_on_c, 0, 73, 80
2, 117850, Note_on_c, 0, 69, 0
2, 117852, Note_on_c, 0, 73, 0
2, 117857, Note_on_c, 0, 63, 0
2, 117877, Note_on_c, 0, 63, 80
2, 117882, Note_on_c, 0, 73, 80
2, 117887, Note_on_c, 0, 69, 80
2, 117918, Note_on_c, 0, 73, 0
2, 117930, Note_on_c, 0, 69, 0
2, 117950, Note_on_c, 0, 73, 80
2, 117952, Note_on_c, 0, 69, 80
2, 118048, Note_on_c, 0, 54, 0
2, 118048, Note_on_c, 0, 47, 0
2, 118059, Note_on_c, 0, 73, 0
2, 118061, Note_on_c, 0, 63, 0
2, 118063, Note_on_c, 0, 69, 0
2, 118077, Note_on_c, 0, 74, 80
2, 118079, Note_on_c, 0, 48, 80
2, 118079, Note_on_c, 0, 55, 80
2, 118080, Note_on_c, 0, 64, 80
2, 118080, Note_on_c, 0, 70, 80
2, 118119, Note_on_c, 0, 74, 0
2, 118142, Note_on_c, 0, 74, 80
2, 118178, Note_on_c, 0, 48, 0
2, 118183, Note_on_c, 0, 55, 0
2, 118185, Note_on_c, 0, 64, 0
2, 118190, Note_on_c, 0, 74, 0
2, 118195, Note_on_c, 0, 70, 0
2, 118200, Note_on_c, 0, 51, 80
2, 118211, Note_on_c, 0, 42, 80
2, 118312, Note_on_c, 0, 42, 0
2, 118319, Note_on_c, 0, 51, 0
2, 118337, Note_on_c, 0, 52, 80
2, 118342, Note_on_c, 0, 43, 80
2, 118344, Note_on_c, 0, 74, 80
2, 118390, Note_on_c, 0, 74, 0
2, 118408, Note_on_c, 0, 72, 80
2, 118446, Note_on_c, 0, 43, 0
2, 118453, Note_on_c, 0, 52, 0
2, 118471, Note_on_c, 0, 55, 80
2, 118471, Note_on_c, 0, 58, 80
2, 118471, Note_on_c, 0, 64, 80
2, 118476, Note_on_c, 0, 60, 80
2, 118517, Note_on_c, 0, 72, 0
2, 118547, Note_on_c, 0, 67, 80
2, 118547, Note_on_c, 0, 70, 80
2, 118547, Note_on_c, 0, 76, 80
2, 118552, Note_on_c, 0, 79, 80
2, 118582, Note_on_c, 0, 58, 0
2, 118586, Note_on_c, 0, 60, 0
2, 118591, Note_on_c, 0, 64, 0
2, 118605, Note_on_c, 0, 43, 80
2, 118705, Note_on_c, 0, 43, 0
2, 118715, Note_on_c, 0, 55, 0
2, 118728, Note_on_c, 0, 56, 80
2, 118730, Note_on_c, 0, 44, 80
2, 118833, Note_on_c, 0, 44, 0
2, 118835, Note_on_c, 0, 79, 0
2, 118837, Note_on_c, 0, 67, 0
2, 118839, Note_on_c, 0, 56, 0
2, 118841, Note_on_c, 0, 76, 0
2, 118846, Note_on_c, 0, 70, 0
2, 118862, Note_on_c, 0, 45, 80
2, 118867, Note_on_c, 0, 57, 80
2, 118968, Note_on_c, 0, 45, 0
2, 118969, Note_on_c, 0, 72, 80
2, 118986, Note_on_c, 0, 73, 80
2, 118992, Note_on_c, 0, 63, 80
2, 118994, Note_on_c, 0, 53, 80
2, 118994, Note_on_c, 0, 60, 80
2, 118996, Note_on_c, 0, 74, 80
2, 119001, Note_on_c, 0, 72, 0
2, 119024, Note_on_c, 0, 73, 0
2, 119054, Note_on_c, 0, 65, 80
2, 119056, Note_on_c, 0, 69, 80
2, 119090, Note_on_c, 0, 53, 0
2, 119095, Note_on_c, 0, 57, 0
2, 119095, Note_on_c, 0, 60, 0
2, 119107, Note_on_c, 0, 63, 0
2, 119113, Note_on_c, 0, 41, 80
2, 119115, Note_on_c, 0, 53, 80
2, 119154, Note_on_c, 0, 65, 0
2, 119165, Note_on_c, 0, 74, 0
2, 119182, Note_on_c, 0, 65, 80
2, 119186, Note_on_c, 0, 72, 80
2, 119211, Note_on_c, 0, 41, 0
2, 119228, Note_on_c, 0, 53, 0
2, 119248, Note_on_c, 0, 53, 80
2, 119248, Note_on_c, 0, 57, 80
2, 119248, Note_on_c, 0, 60, 80
2, 119253, Note_on_c, 0, 63, 80
2, 119284, Note_on_c, 0, 65, 0
2, 119294, Note_on_c, 0, 72, 0
2, 119294, Note_on_c, 0, 69, 0
2, 119324, Note_on_c, 0, 70, 80
2, 119360, Note_on_c, 0, 53, 0
2, 119362, Note_on_c, 0, 57, 0
2, 119362, Note_on_c, 0, 63, 0
2, 119362, Note_on_c, 0, 60, 0
2, 119362, Note_on_c, 0, 70, 0
2, 119387, Note_on_c, 0, 65, 80
2, 119387, Note_on_c, 0, 70, 80
2, 119389, Note_on_c, 0, 46, 80
2, 119389, Note_on_c, 0, 53, 80
2, 119421, Note_on_c, 0, 46, 0
2, 119427, Note_on_c, 0, 65, 0
2, 119434, Note_on_c, 0, 70, 0
2, 119454, Note_on_c, 0, 58, 80
2, 119454, Note_on_c, 0, 62, 80
2, 119454, Note_on_c, 0, 65, 80
2, 119459, Note_on_c, 0, 70, 80
2, 119560, Note_on_c, 0, 62, 0
2, 119562, Note_on_c, 0, 65, 0
2, 119564, Note_on_c, 0, 58, 0
2, 119568, Note_on_c, 0, 53, 0
2, 119587, Note_on_c, 0, 58, 80
2, 119589, Note_on_c, 0, 65, 80
2, 119591, Note_on_c, 0, 53, 80
2, 119591, Note_on_c, 0, 62, 80
2, 119629, Note_on_c, 0, 62, 0
2, 119629, Note_on_c, 0, 65, 0
2, 119629, Note_on_c, 0, 53, 0
2, 119629, Note_on_c, 0, 58, 0
2, 119640, Note_on_c, 0, 70, 0
2, 119657, Note_on_c, 0, 50, 80
2, 119659, Note_on_c, 0, 62, 80
2, 119659, Note_on_c, 0, 69, 80
2, 119664, Note_on_c, 0, 65, 80
2, 119764, Note_on_c, 0, 50, 0
2, 119771, Note_on_c, 0, 69, 0
2, 119773, Note_on_c, 0, 62, 0
2, 119773, Note_on_c, 0, 65, 0
2, 119793, Note_on_c, 0, 49, 80
2, 119798, Note_on_c, 0, 58, 80
2, 119798, Note_on_c, 0, 61, 80
2, 119798, Note_on_c, 0, 64, 80
2, 119803, Note_on_c, 0, 67, 80
2, 119832, Note_on_c, 0, 49, 0
2, 119837, Note_on_c, 0, 58, 0
2, 119837, Note_on_c, 0, 67, 0
2, 119837, Note_on_c, 0, 61, 0
2, 119847, Note_on_c, 0, 64, 0
2, 119860, Note_on_c, 0, 57, 80
2, 119860, Note_on_c, 0, 60, 80
2, 119865, Note_on_c, 0, 48, 80
2, 119865, Note_on_c, 0, 63, 80
2, 119870, Note_on_c, 0, 67, 80
2, 119966, Note_on_c, 0, 48, 0
2, 119973, Note_on_c, 0, 67, 0
2, 119977, Note_on_c, 0, 60, 0
2, 119984, Note_on_c, 0, 57, 0
2, 119994, Note_on_c, 0, 48, 80
2, 120003, Note_on_c, 0, 60, 80
2, 120008, Note_on_c, 0, 67, 80
2, 120040, Note_on_c, 0, 48, 0
2, 120042, Note_on_c, 0, 67, 0
2, 120051, Note_on_c, 0, 60, 0
2, 120074, Note_on_c, 0, 46, 80
2, 120074, Note_on_c, 0, 58, 80
2, 120076, Note_on_c, 0, 66, 80
2, 120172, Note_on_c, 0, 58, 0
2, 120172, Note_on_c, 0, 46, 0
2, 120177, Note_on_c, 0, 66, 0
2, 120187, Note_on_c, 0, 63, 0
2, 120200, Note_on_c, 0, 57, 80
2, 120202, Note_on_c, 0, 45, 80
2, 120204, Note_on_c, 0, 65, 80
2, 120302, Note_on_c, 0, 45, 0
2, 120313, Note_on_c, 0, 65, 0
2, 120313, Note_on_c, 0, 57, 0
2, 120334, Note_on_c, 0, 57, 80
2, 120336, Note_on_c, 0, 41, 80
2, 120337, Note_on_c, 0, 53, 80
2, 120337, Note_on_c, 0, 63, 80
2, 120342, Note_on_c, 0, 67, 80
2, 120427, Note_on_c, 0, 41, 0
2, 120438, Note_on_c, 0, 67, 0
2, 120445, Note_on_c, 0, 57, 0
2, 120445, Note_on_c, 0, 53, 0
2, 120468, Note_on_c, 0, 41, 80
2, 120468, Note_on_c, 0, 48, 80
2, 120470, Note_on_c, 0, 67, 80
2, 120506, Note_on_c, 0, 67, 0
2, 120516, Note_on_c, 0, 63, 0
2, 120532, Note_on_c, 0, 57, 80
2, 120578, Note_on_c, 0, 57, 0
2, 120601, Note_on_c, 0, 63, 80
2, 120606, Note_on_c, 0, 67, 80
2, 120638, Note_on_c, 0, 67, 0
2, 120656, Note_on_c, 0, 63, 0
2, 120663, Note_on_c, 0, 57, 80
2, 120693, Note_on_c, 0, 41, 0
2, 120697, Note_on_c, 0, 48, 0
2, 120714, Note_on_c, 0, 57, 0
2, 120730, Note_on_c, 0, 49, 80
2, 120730, Note_on_c, 0, 64, 80
2, 120735, Note_on_c, 0, 42, 80
2, 120735, Note_on_c, 0, 68, 80
2, 120771, Note_on_c, 0, 68, 0
2, 120771, Note_on_c, 0, 64, 0
2, 120803, Note_on_c, 0, 58, 80
2, 120835, Note_on_c, 0, 58, 0
2, 120860, Note_on_c, 0, 64, 80
2, 120862, Note_on_c, 0, 68, 80
2, 120905, Note_on_c, 0, 68, 0
2, 120905, Note_on_c, 0, 64, 0
2, 120925, Note_on_c, 0, 58, 80
2, 120957, Note_on_c, 0, 58, 0
2, 120957, Note_on_c, 0, 42, 0
2, 120961, Note_on_c, 0, 49, 0
2, 120984, Note_on_c, 0, 50, 80
2, 120986, Note_on_c, 0, 43, 80
2, 120988, Note_on_c, 0, 65, 80
2, 120993, Note_on_c, 0, 69, 80
2, 121028, Note_on_c, 0, 65, 0
2, 121041, Note_on_c, 0, 69, 0
2, 121057, Note_on_c, 0, 59, 80
2, 121101, Note_on_c, 0, 59, 0
2, 121119, Note_on_c, 0, 69, 80
2, 121124, Note_on_c, 0, 65, 80
2, 121162, Note_on_c, 0, 65, 0
2, 121164, Note_on_c, 0, 69, 0
2, 121192, Note_on_c, 0, 59, 80
2, 121226, Note_on_c, 0, 43, 0
2, 121226, Note_on_c, 0, 50, 0
2, 121231, Note_on_c, 0, 59, 0
2, 121248, Note_on_c, 0, 51, 80
2, 121249, Note_on_c, 0, 44, 80
2, 121251, Note_on_c, 0, 70, 80
2, 121258, Note_on_c, 0, 66, 80
2, 121290, Note_on_c, 0, 66, 0
2, 121299, Note_on_c, 0, 70, 0
2, 121318, Note_on_c, 0, 60, 80
2, 121359, Note_on_c, 0, 60, 0
2, 121391, Note_on_c, 0, 70, 80
2, 121392, Note_on_c, 0, 66, 80
2, 121431, Note_on_c, 0, 66, 0
2, 121436, Note_on_c, 0, 70, 0
2, 121452, Note_on_c, 0, 60, 80
2, 121484, Note_on_c, 0, 44, 0
2, 121488, Note_on_c, 0, 51, 0
2, 121493, Note_on_c, 0, 60, 0
2, 121513, Note_on_c, 0, 52, 80
2, 121515, Note_on_c, 0, 45, 80
2, 121527, Note_on_c, 0, 67, 80
2, 121527, Note_on_c, 0, 71, 80
2, 121563, Note_on_c, 0, 71, 0
2, 121563, Note_on_c, 0, 67, 0
2, 121593, Note_on_c, 0, 61, 80
2, 121621, Note_on_c, 0, 61, 0
2, 121649, Note_on_c, 0, 71, 80
2, 121658, Note_on_c, 0, 67, 80
2, 121686, Note_on_c, 0, 67, 0
2, 121691, Note_on_c, 0, 71, 0
2, 121719, Note_on_c, 0, 61, 80
2, 121749, Note_on_c, 0, 61, 0
2, 121751, Note_on_c, 0, 45, 0
2, 121755, Note_on_c, 0, 52, 0
2, 121778, Note_on_c, 0, 53, 80
2, 121783, Note_on_c, 0, 46, 80
2, 121785, Note_on_c, 0, 72, 80
2, 121790, Note_on_c, 0, 68, 80
2, 121824, Note_on_c, 0, 68, 0
2, 121824, Note_on_c, 0, 72, 0
2, 121848, Note_on_c, 0, 62, 80
2, 121889, Note_on_c, 0, 62, 0
2, 121919, Note_on_c, 0, 68, 80
2, 121923, Note_on_c, 0, 72, 80
2, 121955, Note_on_c, 0, 72, 0
2, 121955, Note_on_c, 0, 68, 0
2, 121980, Note_on_c, 0, 62, 80
2, 122015, Note_on_c, 0, 46, 0
2, 122016, Note_on_c, 0, 62, 0
2, 122018, Note_on_c, 0, 53, 0
2, 122039, Note_on_c, 0, 54, 80
2, 122040, Note_on_c, 0, 47, 80
2, 122040, Note_on_c, 0, 69, 80
2, 122045, Note_on_c, 0, 73, 80
2, 122082, Note_on_c, 0, 69, 0
2, 122087, Note_on_c, 0, 73, 0
2, 122107, Note_on_c, 0, 63, 80
2, 122157, Note_on_c, 0, 63, 0
2, 122177, Note_on_c, 0, 73, 80
2, 122179, Note_on_c, 0, 69, 80
2, 122213, Note_on_c, 0, 73, 0
2, 122218, Note_on_c, 0, 69, 0
2, 122243, Note_on_c, 0, 63, 80
2, 122278, Note_on_c, 0, 54, 0
2, 122280, Note_on_c, 0, 47, 0
2, 122291, Note_on_c, 0, 63, 0
2, 122307, Note_on_c, 0, 55, 80
2, 122309, Note_on_c, 0, 70, 80
2, 122309, Note_on_c, 0, 74, 80
2, 122311, Note_on_c, 0, 48, 80
2, 122350, Note_on_c, 0, 74, 0
2, 122350, Note_on_c, 0, 70, 0
2, 122375, Note_on_c, 0, 64, 80
2, 122400, Note_on_c, 0, 48, 0
2, 122416, Note_on_c, 0, 55, 0
2, 122421, Note_on_c, 0, 64, 0
2, 122432, Note_on_c, 0, 51, 80
2, 122437, Note_on_c, 0, 42, 80
2, 122442, Note_on_c, 0, 70, 80
2, 122442, Note_on_c, 0, 74, 80
2, 122492, Note_on_c, 0, 74, 0
2, 122492, Note_on_c, 0, 70, 0
2, 122512, Note_on_c, 0, 64, 80
2, 122542, Note_on_c, 0, 51, 0
2, 122544, Note_on_c, 0, 42, 0
2, 122555, Note_on_c, 0, 64, 0
2, 122567, Note_on_c, 0, 52, 80
2, 122568, Note_on_c, 0, 70, 80
2, 122570, Note_on_c, 0, 43, 80
2, 122575, Note_on_c, 0, 74, 80
2, 122618, Note_on_c, 0, 74, 0
2, 122618, Note_on_c, 0, 70, 0
2, 122639, Note_on_c, 0, 74, 80
2, 122640, Note_on_c, 0, 70, 80
2, 122679, Note_on_c, 0, 43, 0
2, 122679, Note_on_c, 0, 52, 0
2, 122702, Note_on_c, 0, 55, 80
2, 122709, Note_on_c, 0, 60, 80
2, 122711, Note_on_c, 0, 64, 80
2, 122712, Note_on_c, 0, 58, 80
2, 122749, Note_on_c, 0, 70, 0
2, 122754, Note_on_c, 0, 74, 0
2, 122774, Note_on_c, 0, 70, 80
2, 122774, Note_on_c, 0, 76, 80
2, 122774, Note_on_c, 0, 79, 80
2, 122776, Note_on_c, 0, 67, 80
2, 122810, Note_on_c, 0, 55, 0
2, 122810, Note_on_c, 0, 58, 0
2, 122812, Note_on_c, 0, 60, 0
2, 122817, Note_on_c, 0, 64, 0
2, 122833, Note_on_c, 0, 43, 80
2, 122833, Note_on_c, 0, 55, 80
2, 122936, Note_on_c, 0, 43, 0
2, 122938, Note_on_c, 0, 55, 0
2, 122961, Note_on_c, 0, 56, 80
2, 122963, Note_on_c, 0, 44, 80
2, 123059, Note_on_c, 0, 72, 80
2, 123066, Note_on_c, 0, 44, 0
2, 123068, Note_on_c, 0, 67, 0
2, 123068, Note_on_c, 0, 56, 0
2, 123072, Note_on_c, 0, 76, 0
2, 123072, Note_on_c, 0, 79, 0
2, 123072, Note_on_c, 0, 70, 0
2, 123074, Note_on_c, 0, 74, 80
2, 123088, Note_on_c, 0, 45, 80
2, 123088, Note_on_c, 0, 57, 80
2, 123090, Note_on_c, 0, 75, 80
2, 123096, Note_on_c, 0, 77, 80
2, 123098, Note_on_c, 0, 72, 0
2, 123123, Note_on_c, 0, 74, 0
2, 123133, Note_on_c, 0, 75, 0
2, 123133, Note_on_c, 0, 77, 0
2, 123165, Note_on_c, 0, 76, 80
2, 123188, Note_on_c, 0, 45, 0
2, 123199, Note_on_c, 0, 76, 0
2, 123224, Note_on_c, 0, 53, 80
2, 123224, Note_on_c, 0, 60, 80
2, 123224, Note_on_c, 0, 63, 80
2, 123229, Note_on_c, 0, 75, 80
2, 123265, Note_on_c, 0, 75, 0
2, 123293, Note_on_c, 0, 65, 80
2, 123328, Note_on_c, 0, 65, 0
2, 123333, Note_on_c, 0, 60, 0
2, 123333, Note_on_c, 0, 57, 0
2, 123337, Note_on_c, 0, 63, 0
2, 123356, Note_on_c, 0, 41, 80
2, 123356, Note_on_c, 0, 69, 80
2, 123362, Note_on_c, 0, 74, 80
2, 123397, Note_on_c, 0, 69, 0
2, 123407, Note_on_c, 0, 74, 0
2, 123430, Note_on_c, 0, 72, 80
2, 123450, Note_on_c, 0, 41, 0
2, 123459, Note_on_c, 0, 53, 0
2, 123461, Note_on_c, 0, 72, 0
2, 123480, Note_on_c, 0, 53, 80
2, 123480, Note_on_c, 0, 57, 80
2, 123480, Note_on_c, 0, 60, 80
2, 123486, Note_on_c, 0, 63, 80
2, 123491, Note_on_c, 0, 69, 80
2, 123532, Note_on_c, 0, 69, 0
2, 123557, Note_on_c, 0, 67, 80
2, 123592, Note_on_c, 0, 67, 0
2, 123594, Note_on_c, 0, 57, 0
2, 123594, Note_on_c, 0, 53, 0
2, 123596, Note_on_c, 0, 60, 0
2, 123596, Note_on_c, 0, 63, 0
2, 123619, Note_on_c, 0, 53, 80
2, 123619, Note_on_c, 0, 62, 80
2, 123621, Note_on_c, 0, 65, 80
2, 123630, Note_on_c, 0, 70, 80
2, 123724, Note_on_c, 0, 65, 0
2, 123724, Note_on_c, 0, 62, 0
2, 123729, Note_on_c, 0, 53, 0
2, 123731, Note_on_c, 0, 70, 0
2, 123749, Note_on_c, 0, 53, 80
2, 123751, Note_on_c, 0, 61, 80
2, 123756, Note_on_c, 0, 72, 80
2, 123792, Note_on_c, 0, 72, 0
2, 123817, Note_on_c, 0, 74, 80
2, 123859, Note_on_c, 0, 61, 0
2, 123859, Note_on_c, 0, 53, 0
2, 123865, Note_on_c, 0, 74, 0
2, 123882, Note_on_c, 0, 60, 80
2, 123884, Note_on_c, 0, 63, 80
2, 123886, Note_on_c, 0, 53, 80
2, 123888, Note_on_c, 0, 69, 80
2, 123888, Note_on_c, 0, 75, 80
2, 123922, Note_on_c, 0, 75, 0
2, 123927, Note_on_c, 0, 69, 0
2, 123929, Note_on_c, 0, 63, 0
2, 123945, Note_on_c, 0, 77, 80
2, 123947, Note_on_c, 0, 65, 80
2, 123985, Note_on_c, 0, 77, 0
2, 123987, Note_on_c, 0, 53, 0
2, 123989, Note_on_c, 0, 60, 0
2, 123989, Note_on_c, 0, 65, 0
2, 124008, Note_on_c, 0, 63, 80
2, 124009, Note_on_c, 0, 53, 80
2, 124009, Note_on_c, 0, 57, 80
2, 124009, Note_on_c, 0, 60, 80
2, 124009, Note_on_c, 0, 75, 80
2, 124019, Note_on_c, 0, 79, 80
2, 124021, Note_on_c, 0, 67, 80
2, 124053, Note_on_c, 0, 79, 0
2, 124055, Note_on_c, 0, 75, 0
2, 124055, Note_on_c, 0, 67, 0
2, 124078, Note_on_c, 0, 69, 80
2, 124084, Note_on_c, 0, 81, 80
2, 124116, Note_on_c, 0, 81, 0
2, 124118, Note_on_c, 0, 53, 0
2, 124120, Note_on_c, 0, 69, 0
2, 124122, Note_on_c, 0, 60, 0
2, 124122, Note_on_c, 0, 57, 0
2, 124124, Note_on_c, 0, 63, 0
2, 124137, Note_on_c, 0, 53, 80
2, 124137, Note_on_c, 0, 62, 80
2, 124139, Note_on_c, 0, 74, 80
2, 124139, Note_on_c, 0, 82, 80
2, 124141, Note_on_c, 0, 70, 80
2, 124176, Note_on_c, 0, 82, 0
2, 124180, Note_on_c, 0, 74, 0
2, 124203, Note_on_c, 0, 74, 80
2, 124208, Note_on_c, 0, 82, 80
2, 124245, Note_on_c, 0, 53, 0
2, 124245, Note_on_c, 0, 70, 0
2, 124245, Note_on_c, 0, 62, 0
2, 124247, Note_on_c, 0, 82, 0
2, 124251, Note_on_c, 0, 74, 0
2, 124268, Note_on_c, 0, 53, 80
2, 124272, Note_on_c, 0, 63, 80
2, 124274, Note_on_c, 0, 75, 80
2, 124274, Note_on_c, 0, 79, 80
2, 124276, Note_on_c, 0, 67, 80
2, 124372, Note_on_c, 0, 67, 0
2, 124377, Note_on_c, 0, 75, 0
2, 124377, Note_on_c, 0, 79, 0
2, 124379, Note_on_c, 0, 53, 0
2, 124384, Note_on_c, 0, 63, 0
2, 124400, Note_on_c, 0, 53, 80
2, 124405, Note_on_c, 0, 62, 80
2, 124407, Note_on_c, 0, 70, 80
2, 124407, Note_on_c, 0, 74, 80
2, 124412, Note_on_c, 0, 82, 80
2, 124510, Note_on_c, 0, 53, 0
2, 124512, Note_on_c, 0, 62, 0
2, 124513, Note_on_c, 0, 82, 0
2, 124515, Note_on_c, 0, 70, 0
2, 124520, Note_on_c, 0, 74, 0
2, 124540, Note_on_c, 0, 82, 80
2, 124577, Note_on_c, 0, 82, 0
2, 124579, Note_on_c, 0, 84, 80
2, 124608, Note_on_c, 0, 82, 80
2, 124613, Note_on_c, 0, 84, 0
2, 124645, Note_on_c, 0, 82, 0
2, 124645, Note_on_c, 0, 84, 80
2, 124663, Note_on_c, 0, 62, 80
2, 124665, Note_on_c, 0, 58, 80
2, 124675, Note_on_c, 0, 68, 80
2, 124677, Note_on_c, 0, 84, 0
2, 124693, Note_on_c, 0, 82, 80
2, 124709, Note_on_c, 0, 84, 80
2, 124723, Note_on_c, 0, 82, 0
2, 124743, Note_on_c, 0, 84, 0
2, 124745, Note_on_c, 0, 82, 80
2, 124779, Note_on_c, 0, 84, 80
2, 124784, Note_on_c, 0, 82, 0
2, 124816, Note_on_c, 0, 84, 0
2, 124816, Note_on_c, 0, 82, 80
2, 124836, Note_on_c, 0, 84, 80
2, 124841, Note_on_c, 0, 82, 0
2, 124875, Note_on_c, 0, 84, 0
2, 124875, Note_on_c, 0, 82, 80
2, 124896, Note_on_c, 0, 58, 0
2, 124900, Note_on_c, 0, 62, 0
2, 124902, Note_on_c, 0, 68, 0
2, 124902, Note_on_c, 0, 84, 80
2, 124907, Note_on_c, 0, 82, 0
2, 124923, Note_on_c, 0, 58, 80
2, 124923, Note_on_c, 0, 61, 80
2, 124933, Note_on_c, 0, 67, 80
2, 124940, Note_on_c, 0, 82, 80
2, 124944, Note_on_c, 0, 84, 0
2, 124968, Note_on_c, 0, 84, 80
2, 124972, Note_on_c, 0, 82, 0
2, 125007, Note_on_c, 0, 82, 80
2, 125012, Note_on_c, 0, 84, 0
2, 125040, Note_on_c, 0, 84, 80
2, 125046, Note_on_c, 0, 82, 0
2, 125074, Note_on_c, 0, 82, 80
2, 125109, Note_on_c, 0, 82, 0
2, 125140, Note_on_c, 0, 82, 80
2, 125147, Note_on_c, 0, 84, 0
2, 125159, Note_on_c, 0, 61, 0
2, 125163, Note_on_c, 0, 58, 0
2, 125168, Note_on_c, 0, 67, 0
2, 125170, Note_on_c, 0, 84, 80
2, 125177, Note_on_c, 0, 82, 0
2, 125197, Note_on_c, 0, 58, 80
2, 125199, Note_on_c, 0, 62, 80
2, 125204, Note_on_c, 0, 68, 80
2, 125204, Note_on_c, 0, 82, 80
2, 125210, Note_on_c, 0, 84, 0
2, 125302, Note_on_c, 0, 58, 0
2, 125311, Note_on_c, 0, 82, 0
2, 125311, Note_on_c, 0, 62, 0
2, 125318, Note_on_c, 0, 68, 0
2, 125472, Note_on_c, 0, 53, 80
2, 125472, Note_on_c, 0, 58, 80
2, 125472, Note_on_c, 0, 62, 80
2, 125472, Note_on_c, 0, 70, 80
2, 125476, Note_on_c, 0, 65, 80
2, 125478, Note_on_c, 0, 46, 80
2, 125572, Note_on_c, 0, 46, 0
2, 125577, Note_on_c, 0, 58, 0
2, 125582, Note_on_c, 0, 65, 0
2, 125582, Note_on_c, 0, 62, 0
2, 125584, Note_on_c, 0, 53, 0
2, 125586, Note_on_c, 0, 70, 0
2, 125743, Note_on_c, 0, 58, 80
2, 125743, Note_on_c, 0, 70, 80
2, 125743, Note_on_c, 0, 75, 80
2, 125743, Note_on_c, 0, 79, 80
2, 125748, Note_on_c, 0, 67, 80
2, 125976, Note_on_c, 0, 79, 0
2, 125976, Note_on_c, 0, 75, 0
2, 125976, Note_on_c, 0, 70, 0
2, 126006, Note_on_c, 0, 69, 80
2, 126006, Note_on_c, 0, 75, 80
2, 126006, Note_on_c, 0, 78, 80
2, 126038, Note_on_c, 0, 75, 0
2, 126043, Note_on_c, 0, 69, 0
2, 126048, Note_on_c, 0, 78, 0
2, 126066, Note_on_c, 0, 70, 80
2, 126072, Note_on_c, 0, 75, 80
2, 126074, Note_on_c, 0, 79, 80
2, 126164, Note_on_c, 0, 58, 0
2, 126168, Note_on_c, 0, 67, 0
2, 126168, Note_on_c, 0, 79, 0
2, 126170, Note_on_c, 0, 75, 0
2, 126172, Note_on_c, 0, 70, 0
2, 126191, Note_on_c, 0, 57, 80
2, 126195, Note_on_c, 0, 74, 80
2, 126195, Note_on_c, 0, 78, 80
2, 126197, Note_on_c, 0, 66, 80
2, 126204, Note_on_c, 0, 81, 80
2, 126204, Note_on_c, 0, 86, 80
2, 126505, Note_on_c, 0, 78, 0
2, 126507, Note_on_c, 0, 86, 0
2, 126509, Note_on_c, 0, 81, 0
2, 126514, Note_on_c, 0, 74, 0
2, 126532, Note_on_c, 0, 78, 80
2, 126537, Note_on_c, 0, 84, 80
2, 126539, Note_on_c, 0, 72, 80
2, 126539, Note_on_c, 0, 81, 80
2, 126569, Note_on_c, 0, 81, 0
2, 126569, Note_on_c, 0, 84, 0
2, 126576, Note_on_c, 0, 78, 0
2, 126576, Note_on_c, 0, 72, 0
2, 126596, Note_on_c, 0, 86, 80
2, 126598, Note_on_c, 0, 74, 80
2, 126602, Note_on_c, 0, 81, 80
2, 126700, Note_on_c, 0, 66, 0
2, 126702, Note_on_c, 0, 81, 0
2, 126709, Note_on_c, 0, 57, 0
2, 126709, Note_on_c, 0, 86, 0
2, 126714, Note_on_c, 0, 74, 0
2, 126730, Note_on_c, 0, 80, 80
2, 126732, Note_on_c, 0, 56, 80
2, 126734, Note_on_c, 0, 65, 80
2, 126734, Note_on_c, 0, 72, 80
2, 126736, Note_on_c, 0, 84, 80
2, 127037, Note_on_c, 0, 84, 0
2, 127037, Note_on_c, 0, 72, 0
2, 127042, Note_on_c, 0, 80, 0
2, 127065, Note_on_c, 0, 70, 80
2, 127070, Note_on_c, 0, 80, 80
2, 127070, Note_on_c, 0, 82, 80
2, 127104, Note_on_c, 0, 82, 0
2, 127111, Note_on_c, 0, 70, 0
2, 127136, Note_on_c, 0, 72, 80
2, 127136, Note_on_c, 0, 84, 80
2, 127239, Note_on_c, 0, 65, 0
2, 127241, Note_on_c, 0, 72, 0
2, 127241, Note_on_c, 0, 56, 0
2, 127246, Note_on_c, 0, 80, 0
2, 127246, Note_on_c, 0, 84, 0
2, 127264, Note_on_c, 0, 60, 80
2, 127271, Note_on_c, 0, 72, 80
2, 127271, Note_on_c, 0, 75, 80
2, 127272, Note_on_c, 0, 79, 80
2, 127330, Note_on_c, 0, 69, 80
2, 127559, Note_on_c, 0, 75, 0
2, 127563, Note_on_c, 0, 79, 0
2, 127565, Note_on_c, 0, 72, 0
2, 127570, Note_on_c, 0, 60, 0
2, 127572, Note_on_c, 0, 69, 0
2, 127588, Note_on_c, 0, 58, 80
2, 127590, Note_on_c, 0, 77, 80
2, 127592, Note_on_c, 0, 68, 80
2, 127594, Note_on_c, 0, 70, 80
2, 127594, Note_on_c, 0, 74, 80
2, 127629, Note_on_c, 0, 77, 0
2, 127633, Note_on_c, 0, 70, 0
2, 127658, Note_on_c, 0, 70, 80
2, 127658, Note_on_c, 0, 79, 80
2, 127759, Note_on_c, 0, 79, 0
2, 127761, Note_on_c, 0, 58, 0
2, 127761, Note_on_c, 0, 68, 0
2, 127763, Note_on_c, 0, 74, 0
2, 127763, Note_on_c, 0, 70, 0
2, 127783, Note_on_c, 0, 77, 80
2, 127785, Note_on_c, 0, 58, 80
2, 127787, Note_on_c, 0, 70, 80
2, 127787, Note_on_c, 0, 73, 80
2, 127789, Note_on_c, 0, 67, 80
2, 128077, Note_on_c, 0, 67, 0
2, 128077, Note_on_c, 0, 73, 0
2, 128079, Note_on_c, 0, 58, 0
2, 128081, Note_on_c, 0, 77, 0
2, 128086, Note_on_c, 0, 70, 0
2, 128102, Note_on_c, 0, 58, 80
2, 128107, Note_on_c, 0, 70, 80
2, 128112, Note_on_c, 0, 67, 80
2, 128112, Note_on_c, 0, 74, 80
2, 128150, Note_on_c, 0, 74, 0
2, 128150, Note_on_c, 0, 70, 0
2, 128180, Note_on_c, 0, 70, 80
2, 128184, Note_on_c, 0, 75, 80
2, 128279, Note_on_c, 0, 67, 0
2, 128279, Note_on_c, 0, 58, 0
2, 128288, Note_on_c, 0, 75, 0
2, 128295, Note_on_c, 0, 70, 0
2, 128308, Note_on_c, 0, 58, 80
2, 128308, Note_on_c, 0, 61, 80
2, 128308, Note_on_c, 0, 63, 80
2, 128313, Note_on_c, 0, 67, 80
2, 128313, Note_on_c, 0, 73, 80
2, 128315, Note_on_c, 0, 79, 80
2, 128315, Note_on_c, 0, 82, 80
2, 128615, Note_on_c, 0, 82, 0
2, 128619, Note_on_c, 0, 79, 0
2, 128621, Note_on_c, 0, 73, 0
2, 128644, Note_on_c, 0, 73, 80
2, 128649, Note_on_c, 0, 79, 80
2, 128649, Note_on_c, 0, 82, 80
2, 128681, Note_on_c, 0, 82, 0
2, 128681, Note_on_c, 0, 79, 0
2, 128683, Note_on_c, 0, 73, 0
2, 128712, Note_on_c, 0, 75, 80
2, 128714, Note_on_c, 0, 79, 80
2, 128714, Note_on_c, 0, 84, 80
2, 128746, Note_on_c, 0, 67, 0
2, 128810, Note_on_c, 0, 61, 0
2, 128810, Note_on_c, 0, 58, 0
2, 128815, Note_on_c, 0, 75, 0
2, 128815, Note_on_c, 0, 79, 0
2, 128815, Note_on_c, 0, 84, 0
2, 128840, Note_on_c, 0, 56, 80
2, 128840, Note_on_c, 0, 60, 80
2, 128845, Note_on_c, 0, 72, 80
2, 128845, Note_on_c, 0, 75, 80
2, 128847, Note_on_c, 0, 80, 80
2, 129144, Note_on_c, 0, 56, 0
2, 129149, Note_on_c, 0, 75, 0
2, 129151, Note_on_c, 0, 72, 0
2, 129153, Note_on_c, 0, 80, 0
2, 129155, Note_on_c, 0, 63, 0
2, 129167, Note_on_c, 0, 64, 80
2, 129168, Note_on_c, 0, 55, 80
2, 129173, Note_on_c, 0, 72, 80
2, 129178, Note_on_c, 0, 79, 80
2, 129180, Note_on_c, 0, 76, 80
2, 129216, Note_on_c, 0, 79, 0
2, 129216, Note_on_c, 0, 72, 0
2, 129221, Note_on_c, 0, 76, 0
2, 129244, Note_on_c, 0, 76, 80
2, 129244, Note_on_c, 0, 82, 80
2, 129246, Note_on_c, 0, 72, 80
2, 129344, Note_on_c, 0, 82, 0
2, 129344, Note_on_c, 0, 76, 0
2, 129349, Note_on_c, 0, 72, 0
2, 129377, Note_on_c, 0, 72, 80
2, 129415, Note_on_c, 0, 55, 0
2, 129420, Note_on_c, 0, 72, 0
2, 129420, Note_on_c, 0, 64, 0
2, 129432, Note_on_c, 0, 56, 80
2, 129438, Note_on_c, 0, 65, 80
2, 129440, Note_on_c, 0, 80, 80
2, 129552, Note_on_c, 0, 80, 0
2, 129580, Note_on_c, 0, 79, 80
2, 129582, Note_on_c, 0, 72, 80
2, 129647, Note_on_c, 0, 80, 80
2, 129651, Note_on_c, 0, 79, 0
2, 129653, Note_on_c, 0, 72, 0
2, 129678, Note_on_c, 0, 65, 0
2, 129683, Note_on_c, 0, 56, 0
2, 129688, Note_on_c, 0, 60, 0
2, 129706, Note_on_c, 0, 55, 80
2, 129708, Note_on_c, 0, 64, 80
2, 129715, Note_on_c, 0, 82, 80
2, 129724, Note_on_c, 0, 80, 0
2, 129774, Note_on_c, 0, 80, 80
2, 129779, Note_on_c, 0, 82, 0
2, 129809, Note_on_c, 0, 55, 0
2, 129818, Note_on_c, 0, 64, 0
2, 129832, Note_on_c, 0, 63, 80
2, 129834, Note_on_c, 0, 54, 80
2, 129850, Note_on_c, 0, 79, 80
2, 129857, Note_on_c, 0, 80, 0
2, 129905, Note_on_c, 0, 77, 80
2, 129914, Note_on_c, 0, 79, 0
2, 129937, Note_on_c, 0, 54, 0
2, 129956, Note_on_c, 0, 63, 0
2, 129962, Note_on_c, 0, 62, 80
2, 129972, Note_on_c, 0, 53, 80
2, 129974, Note_on_c, 0, 79, 80
2, 129984, Note_on_c, 0, 77, 0
2, 130100, Note_on_c, 0, 70, 80
2, 130100, Note_on_c, 0, 74, 80
2, 130202, Note_on_c, 0, 79, 0
2, 130207, Note_on_c, 0, 70, 0
2, 130207, Note_on_c, 0, 74, 0
2, 130232, Note_on_c, 0, 68, 80
2, 130232, Note_on_c, 0, 74, 80
2, 130232, Note_on_c, 0, 77, 80
2, 130271, Note_on_c, 0, 77, 0
2, 130275, Note_on_c, 0, 68, 0
2, 130280, Note_on_c, 0, 74, 0
2, 130300, Note_on_c, 0, 70, 80
2, 130300, Note_on_c, 0, 74, 80
2, 130300, Note_on_c, 0, 79, 80
2, 130396, Note_on_c, 0, 79, 0
2, 130398, Note_on_c, 0, 62, 0
2, 130398, Note_on_c, 0, 53, 0
2, 130405, Note_on_c, 0, 74, 0
2, 130407, Note_on_c, 0, 70, 0
2, 130420, Note_on_c, 0, 58, 80
2, 130425, Note_on_c, 0, 65, 80
2, 130425, Note_on_c, 0, 74, 80
2, 130427, Note_on_c, 0, 82, 80
2, 130429, Note_on_c, 0, 70, 80
2, 130429, Note_on_c, 0, 77, 80
2, 130715, Note_on_c, 0, 58, 0
2, 130717, Note_on_c, 0, 82, 0
2, 130717, Note_on_c, 0, 77, 0
2, 130719, Note_on_c, 0, 65, 0
2, 130721, Note_on_c, 0, 70, 0
2, 130741, Note_on_c, 0, 59, 80
2, 130748, Note_on_c, 0, 68, 80
2, 130748, Note_on_c, 0, 79, 80
2, 130776, Note_on_c, 0, 79, 0
2, 130785, Note_on_c, 0, 68, 0
2, 130785, Note_on_c, 0, 59, 0
2, 130790, Note_on_c, 0, 74, 0
2, 130810, Note_on_c, 0, 59, 80
2, 130812, Note_on_c, 0, 68, 80
2, 130812, Note_on_c, 0, 74, 80
2, 130812, Note_on_c, 0, 77, 80
2, 130920, Note_on_c, 0, 68, 0
2, 130920, Note_on_c, 0, 59, 0
2, 130924, Note_on_c, 0, 74, 0
2, 130924, Note_on_c, 0, 77, 0
2, 130949, Note_on_c, 0, 60, 80
2, 130949, Note_on_c, 0, 72, 80
2, 130951, Note_on_c, 0, 75, 80
2, 130956, Note_on_c, 0, 67, 80
2, 131113, Note_on_c, 0, 67, 0
2, 131120, Note_on_c, 0, 75, 0
2, 131120, Note_on_c, 0, 72, 0
2, 131152, Note_on_c, 0, 67, 80
2, 131255, Note_on_c, 0, 67, 0
2, 131259, Note_on_c, 0, 60, 0
2, 131282, Note_on_c, 0, 74, 80
2, 131284, Note_on_c, 0, 59, 80
2, 131289, Note_on_c, 0, 67, 80
2, 131328, Note_on_c, 0, 67, 0
2, 131328, Note_on_c, 0, 59, 0
2, 131339, Note_on_c, 0, 74, 0
2, 131352, Note_on_c, 0, 58, 80
2, 131357, Note_on_c, 0, 72, 80
2, 131357, Note_on_c, 0, 75, 80
2, 131362, Note_on_c, 0, 67, 80
2, 131456, Note_on_c, 0, 67, 0
2, 131456, Note_on_c, 0, 75, 0
2, 131458, Note_on_c, 0, 58, 0
2, 131463, Note_on_c, 0, 72, 0
2, 131481, Note_on_c, 0, 57, 80
2, 131488, Note_on_c, 0, 72, 80
2, 131488, Note_on_c, 0, 74, 80
2, 131493, Note_on_c, 0, 66, 80
2, 131655, Note_on_c, 0, 66, 0
2, 131655, Note_on_c, 0, 72, 0
2, 131678, Note_on_c, 0, 66, 80
2, 131685, Note_on_c, 0, 72, 80
2, 131785, Note_on_c, 0, 66, 0
2, 131790, Note_on_c, 0, 72, 0
2, 131790, Note_on_c, 0, 57, 0
2, 131792, Note_on_c, 0, 74, 0
2, 131812, Note_on_c, 0, 50, 80
2, 131812, Note_on_c, 0, 66, 80
2, 131812, Note_on_c, 0, 78, 80
2, 131817, Note_on_c, 0, 72, 80
2, 131852, Note_on_c, 0, 66, 0
2, 131852, Note_on_c, 0, 50, 0
2, 131854, Note_on_c, 0, 72, 0
2, 131877, Note_on_c, 0, 67, 80
2, 131877, Note_on_c, 0, 72, 80
2, 131879, Note_on_c, 0, 52, 80
2, 131979, Note_on_c, 0, 52, 0
2, 131986, Note_on_c, 0, 78, 0
2, 131988, Note_on_c, 0, 67, 0
2, 132008, Note_on_c, 0, 54, 80
2, 132010, Note_on_c, 0, 69, 80
2, 132010, Note_on_c, 0, 78, 80
2, 132015, Note_on_c, 0, 81, 80
2, 132298, Note_on_c, 0, 54, 0
2, 132300, Note_on_c, 0, 81, 0
2, 132305, Note_on_c, 0, 69, 0
2, 132310, Note_on_c, 0, 78, 0
2, 132314, Note_on_c, 0, 72, 0
2, 132328, Note_on_c, 0, 54, 80
2, 132330, Note_on_c, 0, 69, 80
2, 132330, Note_on_c, 0, 78, 80
2, 132335, Note_on_c, 0, 72, 80
2, 132335, Note_on_c, 0, 81, 80
2, 132366, Note_on_c, 0, 54, 0
2, 132368, Note_on_c, 0, 81, 0
2, 132375, Note_on_c, 0, 69, 0
2, 132375, Note_on_c, 0, 78, 0
2, 132375, Note_on_c, 0, 72, 0
2, 132391, Note_on_c, 0, 70, 80
2, 132393, Note_on_c, 0, 55, 80
2, 132395, Note_on_c, 0, 82, 80
2, 132503, Note_on_c, 0, 82, 0
2, 132504, Note_on_c, 0, 55, 0
2, 132504, Note_on_c, 0, 70, 0
2, 132525, Note_on_c, 0, 57, 80
2, 132527, Note_on_c, 0, 78, 80
2, 132531, Note_on_c, 0, 50, 80
2, 132531, Note_on_c, 0, 72, 80
2, 132531, Note_on_c, 0, 84, 80
2, 132538, Note_on_c, 0, 81, 80
2, 132698, Note_on_c, 0, 81, 0
2, 132698, Note_on_c, 0, 84, 0
2, 132703, Note_on_c, 0, 78, 0
2, 132703, Note_on_c, 0, 72, 0
2, 132726, Note_on_c, 0, 78, 80
2, 132733, Note_on_c, 0, 81, 80
2, 132829, Note_on_c, 0, 81, 0
2, 132831, Note_on_c, 0, 50, 0
2, 132833, Note_on_c, 0, 78, 0
2, 132835, Note_on_c, 0, 57, 0
2, 132848, Note_on_c, 0, 56, 80
2, 132853, Note_on_c, 0, 50, 80
2, 132855, Note_on_c, 0, 78, 80
2, 132862, Note_on_c, 0, 71, 80
2, 132866, Note_on_c, 0, 83, 80
2, 132898, Note_on_c, 0, 71, 0
2, 132898, Note_on_c, 0, 50, 0
2, 132898, Note_on_c, 0, 56, 0
2, 132903, Note_on_c, 0, 83, 0
2, 132919, Note_on_c, 0, 57, 80
2, 132921, Note_on_c, 0, 50, 80
2, 132926, Note_on_c, 0, 72, 80
2, 132926, Note_on_c, 0, 84, 80
2, 133024, Note_on_c, 0, 50, 0
2, 133031, Note_on_c, 0, 84, 0
2, 133032, Note_on_c, 0, 72, 0
2, 133032, Note_on_c, 0, 57, 0
2, 133034, Note_on_c, 0, 78, 0
2, 133046, Note_on_c, 0, 50, 80
2, 133053, Note_on_c, 0, 59, 80
2, 133055, Note_on_c, 0, 74, 80
2, 133055, Note_on_c, 0, 79, 80
2, 133059, Note_on_c, 0, 83, 80
2, 133059, Note_on_c, 0, 86, 80
2, 133215, Note_on_c, 0, 86, 0
2, 133220, Note_on_c, 0, 74, 0
2, 133220, Note_on_c, 0, 79, 0
2, 133224, Note_on_c, 0, 83, 0
2, 133248, Note_on_c, 0, 79, 80
2, 133248, Note_on_c, 0, 83, 80
2, 133350, Note_on_c, 0, 83, 0
2, 133350, Note_on_c, 0, 50, 0
2, 133352, Note_on_c, 0, 79, 0
2, 133352, Note_on_c, 0, 59, 0
2, 133377, Note_on_c, 0, 57, 80
2, 133377, Note_on_c, 0, 78, 80
2, 133379, Note_on_c, 0, 66, 80
2, 133379, Note_on_c, 0, 72, 80
2, 133379, Note_on_c, 0, 84, 80
2, 133389, Note_on_c, 0, 81, 80
2, 133418, Note_on_c, 0, 81, 0
2, 133418, Note_on_c, 0, 72, 0
2, 133420, Note_on_c, 0, 78, 0
2, 133420, Note_on_c, 0, 84, 0
2, 133445, Note_on_c, 0, 87, 80
2, 133447, Note_on_c, 0, 75, 80
2, 133545, Note_on_c, 0, 75, 0
2, 133547, Note_on_c, 0, 66, 0
2, 133554, Note_on_c, 0, 87, 0
2, 133560, Note_on_c, 0, 57, 0
2, 133570, Note_on_c, 0, 56, 80
2, 133572, Note_on_c, 0, 65, 80
2, 133572, Note_on_c, 0, 74, 80
2, 133572, Note_on_c, 0, 77, 80
2, 133572, Note_on_c, 0, 80, 80
2, 133582, Note_on_c, 0, 86, 80
2, 133678, Note_on_c, 0, 65, 0
2, 133678, Note_on_c, 0, 56, 0
2, 133680, Note_on_c, 0, 86, 0
2, 133681, Note_on_c, 0, 77, 0
2, 133686, Note_on_c, 0, 80, 0
2, 133686, Note_on_c, 0, 74, 0
2, 133700, Note_on_c, 0, 64, 80
2, 133702, Note_on_c, 0, 55, 80
2, 133708, Note_on_c, 0, 73, 80
2, 133710, Note_on_c, 0, 85, 80
2, 133808, Note_on_c, 0, 73, 0
2, 133813, Note_on_c, 0, 85, 0
2, 133836, Note_on_c, 0, 85, 80
2, 133838, Note_on_c, 0, 73, 80
2, 133874, Note_on_c, 0, 85, 0
2, 133876, Note_on_c, 0, 73, 0
2, 133881, Note_on_c, 0, 55, 0
2, 133888, Note_on_c, 0, 64, 0
2, 133901, Note_on_c, 0, 54, 80
2, 133903, Note_on_c, 0, 63, 80
2, 133903, Note_on_c, 0, 84, 80
2, 133908, Note_on_c, 0, 72, 80
2, 133946, Note_on_c, 0, 84, 0
2, 133951, Note_on_c, 0, 72, 0
2, 133974, Note_on_c, 0, 72, 80
2, 133974, Note_on_c, 0, 84, 80
2, 134004, Note_on_c, 0, 54, 0
2, 134014, Note_on_c, 0, 84, 0
2, 134018, Note_on_c, 0, 72, 0
2, 134018, Note_on_c, 0, 63, 0
2, 134032, Note_on_c, 0, 62, 80
2, 134039, Note_on_c, 0, 53, 80
2, 134045, Note_on_c, 0, 70, 80
2, 134045, Note_on_c, 0, 82, 80
2, 134139, Note_on_c, 0, 82, 0
2, 134141, Note_on_c, 0, 62, 0
2, 134141, Note_on_c, 0, 51, 80
2, 134151, Note_on_c, 0, 53, 0
2, 134158, Note_on_c, 0, 58, 80
2, 134171, Note_on_c, 0, 63, 80
2, 134173, Note_on_c, 0, 75, 80
2, 134173, Note_on_c, 0, 79, 80
2, 134403, Note_on_c, 0, 58, 0
2, 134405, Note_on_c, 0, 70, 0
2, 134405, Note_on_c, 0, 75, 0
2, 134405, Note_on_c, 0, 79, 0
2, 134422, Note_on_c, 0, 57, 80
2, 134433, Note_on_c, 0, 78, 80
2, 134435, Note_on_c, 0, 69, 80
2, 134435, Note_on_c, 0, 75, 80
2, 134470, Note_on_c, 0, 75, 0
2, 134472, Note_on_c, 0, 51, 0
2, 134473, Note_on_c, 0, 78, 0
2, 134473, Note_on_c, 0, 69, 0
2, 134492, Note_on_c, 0, 51, 80
2, 134494, Note_on_c, 0, 75, 80
2, 134498, Note_on_c, 0, 70, 80
2, 134503, Note_on_c, 0, 79, 80
2, 134594, Note_on_c, 0, 51, 0
2, 134599, Note_on_c, 0, 75, 0
2, 134599, Note_on_c, 0, 79, 0
2, 134604, Note_on_c, 0, 57, 0
2, 134609, Note_on_c, 0, 70, 0
2, 134609, Note_on_c, 0, 63, 0
2, 134627, Note_on_c, 0, 57, 80
2, 134629, Note_on_c, 0, 66, 80
2, 134629, Note_on_c, 0, 74, 80
2, 134629, Note_on_c, 0, 78, 80
2, 134636, Note_on_c, 0, 86, 80
2, 134638, Note_on_c, 0, 81, 80
2, 134935, Note_on_c, 0, 81, 0
2, 134935, Note_on_c, 0, 86, 0
2, 134937, Note_on_c, 0, 66, 0
2, 134939, Note_on_c, 0, 74, 0
2, 134944, Note_on_c, 0, 78, 0
2, 134957, Note_on_c, 0, 72, 80
2, 134959, Note_on_c, 0, 66, 80
2, 134966, Note_on_c, 0, 78, 80
2, 134966, Note_on_c, 0, 84, 80
2, 134968, Note_on_c, 0, 81, 80
2, 134996, Note_on_c, 0, 72, 0
2, 135000, Note_on_c, 0, 66, 0
2, 135002, Note_on_c, 0, 78, 0
2, 135002, Note_on_c, 0, 84, 0
2, 135002, Note_on_c, 0, 81, 0
2, 135025, Note_on_c, 0, 74, 80
2, 135027, Note_on_c, 0, 66, 80
2, 135029, Note_on_c, 0, 86, 80
2, 135041, Note_on_c, 0, 81, 80
2, 135135, Note_on_c, 0, 66, 0
2, 135137, Note_on_c, 0, 86, 0
2, 135137, Note_on_c, 0, 81, 0
2, 135137, Note_on_c, 0, 74, 0
2, 135144, Note_on_c, 0, 57, 0
2, 135160, Note_on_c, 0, 56, 80
2, 135162, Note_on_c, 0, 65, 80
2, 135162, Note_on_c, 0, 72, 80
2, 135162, Note_on_c, 0, 80, 80
2, 135162, Note_on_c, 0, 84, 80
2, 135430, Note_on_c, 0, 80, 0
2, 135459, Note_on_c, 0, 80, 80
2, 135469, Note_on_c, 0, 84, 0
2, 135474, Note_on_c, 0, 72, 0
2, 135480, Note_on_c, 0, 82, 80
2, 135497, Note_on_c, 0, 83, 80
2, 135497, Note_on_c, 0, 84, 80
2, 135506, Note_on_c, 0, 80, 0
2, 135513, Note_on_c, 0, 82, 0
2, 135529, Note_on_c, 0, 83, 0
2, 135531, Note_on_c, 0, 84, 0
2, 135556, Note_on_c, 0, 82, 80
2, 135561, Note_on_c, 0, 70, 80
2, 135598, Note_on_c, 0, 70, 0
2, 135598, Note_on_c, 0, 82, 0
2, 135600, Note_on_c, 0, 56, 0
2, 135600, Note_on_c, 0, 65, 0
2, 135620, Note_on_c, 0, 56, 80
2, 135622, Note_on_c, 0, 65, 80
2, 135622, Note_on_c, 0, 72, 80
2, 135624, Note_on_c, 0, 84, 80
2, 135726, Note_on_c, 0, 65, 0
2, 135731, Note_on_c, 0, 56, 0
2, 135731, Note_on_c, 0, 72, 0
2, 135731, Note_on_c, 0, 84, 0
2, 135751, Note_on_c, 0, 60, 80
2, 135751, Note_on_c, 0, 63, 80
2, 135756, Note_on_c, 0, 69, 80
2, 135756, Note_on_c, 0, 72, 80
2, 135756, Note_on_c, 0, 75, 80
2, 135763, Note_on_c, 0, 79, 80
2, 135925, Note_on_c, 0, 79, 0
2, 135925, Note_on_c, 0, 60, 0
2, 135925, Note_on_c, 0, 75, 0
2, 135927, Note_on_c, 0, 69, 0
2, 135929, Note_on_c, 0, 72, 0
2, 135929, Note_on_c, 0, 63, 0
2, 135947, Note_on_c, 0, 68, 80
2, 135947, Note_on_c, 0, 74, 80
2, 135949, Note_on_c, 0, 58, 80
2, 135949, Note_on_c, 0, 62, 80
2, 135951, Note_on_c, 0, 70, 80
2, 135951, Note_on_c, 0, 77, 80
2, 136054, Note_on_c, 0, 77, 0
2, 136054, Note_on_c, 0, 70, 0
2, 136079, Note_on_c, 0, 70, 80
2, 136085, Note_on_c, 0, 79, 80
2, 136117, Note_on_c, 0, 58, 0
2, 136117, Note_on_c, 0, 62, 0
2, 136119, Note_on_c, 0, 68, 0
2, 136139, Note_on_c, 0, 62, 80
2, 136141, Note_on_c, 0, 68, 80
2, 136143, Note_on_c, 0, 58, 80
2, 136181, Note_on_c, 0, 79, 0
2, 136183, Note_on_c, 0, 74, 0
2, 136183, Note_on_c, 0, 70, 0
2, 136203, Note_on_c, 0, 73, 80
2, 136205, Note_on_c, 0, 70, 80
2, 136205, Note_on_c, 0, 77, 80
2, 136237, Note_on_c, 0, 58, 0
2, 136242, Note_on_c, 0, 62, 0
2, 136248, Note_on_c, 0, 68, 0
2, 136265, Note_on_c, 0, 58, 80
2, 136270, Note_on_c, 0, 67, 80
2, 136500, Note_on_c, 0, 73, 0
2, 136502, Note_on_c, 0, 77, 0
2, 136502, Note_on_c, 0, 70, 0
2, 136530, Note_on_c, 0, 70, 80
2, 136530, Note_on_c, 0, 74, 80
2, 136571, Note_on_c, 0, 74, 0
2, 136596, Note_on_c, 0, 75, 80
2, 136702, Note_on_c, 0, 58, 0
2, 136704, Note_on_c, 0, 70, 0
2, 136708, Note_on_c, 0, 67, 0
2, 136708, Note_on_c, 0, 75, 0
2, 136728, Note_on_c, 0, 58, 80
2, 136728, Note_on_c, 0, 61, 80
2, 136733, Note_on_c, 0, 63, 80
2, 136733, Note_on_c, 0, 70, 80
2, 136733, Note_on_c, 0, 79, 80
2, 136738, Note_on_c, 0, 73, 80
2, 136738, Note_on_c, 0, 82, 80
2, 136740, Note_on_c, 0, 67, 80
2, 137038, Note_on_c, 0, 82, 0
2, 137040, Note_on_c, 0, 70, 0
2, 137040, Note_on_c, 0, 79, 0
2, 137040, Note_on_c, 0, 73, 0
2, 137067, Note_on_c, 0, 72, 80
2, 137067, Note_on_c, 0, 79, 80
2, 137067, Note_on_c, 0, 84, 80
2, 137102, Note_on_c, 0, 84, 0
2, 137102, Note_on_c, 0, 79, 0
2, 137107, Note_on_c, 0, 72, 0
2, 137130, Note_on_c, 0, 73, 80
2, 137130, Note_on_c, 0, 85, 80
2, 137135, Note_on_c, 0, 79, 80
2, 137231, Note_on_c, 0, 79, 0
2, 137231, Note_on_c, 0, 85, 0
2, 137232, Note_on_c, 0, 61, 0
2, 137232, Note_on_c, 0, 67, 0
2, 137232, Note_on_c, 0, 58, 0
2, 137242, Note_on_c, 0, 73, 0
2, 137258, Note_on_c, 0, 56, 80
2, 137258, Note_on_c, 0, 60, 80
2, 137260, Note_on_c, 0, 68, 80
2, 137260, Note_on_c, 0, 80, 80
2, 137260, Note_on_c, 0, 84, 80
2, 137260, Note_on_c, 0, 87, 80
2, 137262, Note_on_c, 0, 75, 80
2, 137429, Note_on_c, 0, 75, 0
2, 137434, Note_on_c, 0, 84, 0
2, 137439, Note_on_c, 0, 87, 0
2, 137464, Note_on_c, 0, 75, 80
2, 137571, Note_on_c, 0, 75, 0
2, 137571, Note_on_c, 0, 68, 0
2, 137576, Note_on_c, 0, 60, 0
2, 137578, Note_on_c, 0, 80, 0
2, 137580, Note_on_c, 0, 56, 0
2, 137596, Note_on_c, 0, 58, 80
2, 137596, Note_on_c, 0, 61, 80
2, 137603, Note_on_c, 0, 67, 80
2, 137603, Note_on_c, 0, 73, 80
2, 137608, Note_on_c, 0, 79, 80
2, 137636, Note_on_c, 0, 79, 0
2, 137638, Note_on_c, 0, 73, 0
2, 137667, Note_on_c, 0, 73, 80
2, 137669, Note_on_c, 0, 79, 80
2, 137669, Note_on_c, 0, 85, 80
2, 137770, Note_on_c, 0, 85, 0
2, 137770, Note_on_c, 0, 79, 0
2, 137772, Note_on_c, 0, 73, 0
2, 137795, Note_on_c, 0, 80, 80
2, 137800, Note_on_c, 0, 84, 80
2, 137802, Note_on_c, 0, 75, 80
2, 137840, Note_on_c, 0, 61, 0
2, 137840, Note_on_c, 0, 58, 0
2, 137842, Note_on_c, 0, 67, 0
2, 137867, Note_on_c, 0, 66, 80
2, 137869, Note_on_c, 0, 56, 80
2, 137869, Note_on_c, 0, 60, 80
2, 137972, Note_on_c, 0, 75, 0
2, 137974, Note_on_c, 0, 84, 0
2, 137978, Note_on_c, 0, 80, 0
2, 138006, Note_on_c, 0, 75, 80
2, 138036, Note_on_c, 0, 75, 0
2, 138064, Note_on_c, 0, 84, 80
2, 138066, Note_on_c, 0, 87, 80
2, 138164, Note_on_c, 0, 84, 0
2, 138170, Note_on_c, 0, 87, 0
2, 138200, Note_on_c, 0, 75, 80
2, 138232, Note_on_c, 0, 75, 0
2, 138255, Note_on_c, 0, 77, 80
2, 138262, Note_on_c, 0, 84, 80
2, 138264, Note_on_c, 0, 89, 80
2, 138364, Note_on_c, 0, 89, 0
2, 138364, Note_on_c, 0, 77, 0
2, 138364, Note_on_c, 0, 84, 0
2, 138366, Note_on_c, 0, 66, 0
2, 138366, Note_on_c, 0, 60, 0
2, 138366, Note_on_c, 0, 58, 80
2, 138371, Note_on_c, 0, 56, 0
2, 138381, Note_on_c, 0, 63, 0
2, 138385, Note_on_c, 0, 59, 80
2, 138395, Note_on_c, 0, 60, 80
2, 138407, Note_on_c, 0, 58, 0
2, 138425, Note_on_c, 0, 59, 0
2, 138521, Note_on_c, 0, 84, 80
2, 138526, Note_on_c, 0, 79, 80
2, 138526, Note_on_c, 0, 87, 80
2, 138530, Note_on_c, 0, 91, 80
2, 138626, Note_on_c, 0, 87, 0
2, 138631, Note_on_c, 0, 79, 0
2, 138631, Note_on_c, 0, 84, 0
2, 138636, Note_on_c, 0, 91, 0
2, 138654, Note_on_c, 0, 79, 80
2, 138654, Note_on_c, 0, 84, 80
2, 138659, Note_on_c, 0, 91, 80
2, 138661, Note_on_c, 0, 87, 80
2, 138697, Note_on_c, 0, 87, 0
2, 138697, Note_on_c, 0, 79, 0
2, 138697, Note_on_c, 0, 91, 0
2, 138699, Note_on_c, 0, 84, 0
2, 138720, Note_on_c, 0, 80, 80
2, 138721, Note_on_c, 0, 77, 80
2, 138721, Note_on_c, 0, 84, 80
2, 138723, Note_on_c, 0, 89, 80
2, 138762, Note_on_c, 0, 60, 0
2, 138782, Note_on_c, 0, 56, 80
2, 138828, Note_on_c, 0, 56, 0
2, 138828, Note_on_c, 0, 57, 80
2, 138871, Note_on_c, 0, 57, 0
2, 138876, Note_on_c, 0, 58, 80
2, 138883, Note_on_c, 0, 89, 0
2, 138889, Note_on_c, 0, 84, 0
2, 138889, Note_on_c, 0, 77, 0
2, 138899, Note_on_c, 0, 80, 0
2, 138911, Note_on_c, 0, 58, 0
2, 138915, Note_on_c, 0, 59, 80
2, 139053, Note_on_c, 0, 79, 80
2, 139053, Note_on_c, 0, 83, 80
2, 139053, Note_on_c, 0, 87, 80
2, 139053, Note_on_c, 0, 91, 80
2, 139082, Note_on_c, 0, 87, 0
2, 139087, Note_on_c, 0, 79, 0
2, 139087, Note_on_c, 0, 91, 0
2, 139115, Note_on_c, 0, 87, 80
2, 139117, Note_on_c, 0, 79, 80
2, 139119, Note_on_c, 0, 91, 80
2, 139215, Note_on_c, 0, 79, 0
2, 139215, Note_on_c, 0, 83, 0
2, 139220, Note_on_c, 0, 87, 0
2, 139224, Note_on_c, 0, 91, 0
2, 139248, Note_on_c, 0, 91, 80
2, 139249, Note_on_c, 0, 79, 80
2, 139284, Note_on_c, 0, 79, 0
2, 139284, Note_on_c, 0, 91, 0
2, 139289, Note_on_c, 0, 59, 0
2, 139307, Note_on_c, 0, 55, 80
2, 139309, Note_on_c, 0, 77, 80
2, 139309, Note_on_c, 0, 80, 80
2, 139311, Note_on_c, 0, 89, 80
2, 139313, Note_on_c, 0, 83, 80
2, 139354, Note_on_c, 0, 55, 0
2, 139354, Note_on_c, 0, 56, 80
2, 139395, Note_on_c, 0, 56, 0
2, 139402, Note_on_c, 0, 57, 80
2, 139414, Note_on_c, 0, 77, 0
2, 139416, Note_on_c, 0, 89, 0
2, 139417, Note_on_c, 0, 83, 0
2, 139422, Note_on_c, 0, 80, 0
2, 139442, Note_on_c, 0, 58, 80
2, 139447, Note_on_c, 0, 57, 0
2, 139582, Note_on_c, 0, 84, 80
2, 139584, Note_on_c, 0, 77, 80
2, 139585, Note_on_c, 0, 89, 80
2, 139615, Note_on_c, 0, 89, 0
2, 139620, Note_on_c, 0, 77, 0
2, 139620, Note_on_c, 0, 84, 0
2, 139645, Note_on_c, 0, 77, 80
2, 139645, Note_on_c, 0, 84, 80
2, 139645, Note_on_c, 0, 89, 80
2, 139746, Note_on_c, 0, 89, 0
2, 139748, Note_on_c, 0, 84, 0
2, 139752, Note_on_c, 0, 77, 0
2, 139776, Note_on_c, 0, 84, 80
2, 139776, Note_on_c, 0, 87, 80
2, 139782, Note_on_c, 0, 75, 80
2, 139810, Note_on_c, 0, 58, 0
2, 139845, Note_on_c, 0, 52, 80
2, 139881, Note_on_c, 0, 52, 0
2, 139886, Note_on_c, 0, 53, 80
2, 139924, Note_on_c, 0, 53, 0
2, 139931, Note_on_c, 0, 54, 80
2, 139941, Note_on_c, 0, 75, 0
2, 139945, Note_on_c, 0, 84, 0
2, 139945, Note_on_c, 0, 87, 0
2, 139964, Note_on_c, 0, 54, 0
2, 139968, Note_on_c, 0, 55, 80
2, 140112, Note_on_c, 0, 74, 80
2, 140114, Note_on_c, 0, 86, 80
2, 140121, Note_on_c, 0, 82, 80
2, 140149, Note_on_c, 0, 82, 0
2, 140154, Note_on_c, 0, 86, 0
2, 140182, Note_on_c, 0, 86, 80
2, 140184, Note_on_c, 0, 82, 80
2, 140289, Note_on_c, 0, 82, 0
2, 140291, Note_on_c, 0, 86, 0
2, 140291, Note_on_c, 0, 74, 0
2, 140321, Note_on_c, 0, 72, 80
2, 140321, Note_on_c, 0, 79, 80
2, 140321, Note_on_c, 0, 84, 80
2, 140359, Note_on_c, 0, 55, 0
2, 140382, Note_on_c, 0, 54, 80
2, 140421, Note_on_c, 0, 54, 0
2, 140430, Note_on_c, 0, 55, 80
2, 140467, Note_on_c, 0, 56, 80
2, 140473, Note_on_c, 0, 55, 0
2, 140485, Note_on_c, 0, 72, 0
2, 140490, Note_on_c, 0, 84, 0
2, 140490, Note_on_c, 0, 79, 0
2, 140510, Note_on_c, 0, 56, 0
2, 140510, Note_on_c, 0, 57, 80
2, 140647, Note_on_c, 0, 69, 80
2, 140647, Note_on_c, 0, 72, 80
2, 140649, Note_on_c, 0, 67, 80
2, 140651, Note_on_c, 0, 75, 80
2, 140651, Note_on_c, 0, 79, 80
2, 140683, Note_on_c, 0, 79, 0
2, 140683, Note_on_c, 0, 67, 0
2, 140683, Note_on_c, 0, 75, 0
2, 140688, Note_on_c, 0, 69, 0
2, 140689, Note_on_c, 0, 72, 0
2, 140710, Note_on_c, 0, 69, 80
2, 140712, Note_on_c, 0, 72, 80
2, 140712, Note_on_c, 0, 75, 80
2, 140712, Note_on_c, 0, 79, 80
2, 140713, Note_on_c, 0, 67, 80
2, 140811, Note_on_c, 0, 69, 0
2, 140813, Note_on_c, 0, 72, 0
2, 140813, Note_on_c, 0, 75, 0
2, 140813, Note_on_c, 0, 79, 0
2, 140813, Note_on_c, 0, 67, 0
2, 140841, Note_on_c, 0, 79, 80
2, 140843, Note_on_c, 0, 67, 80
2, 140843, Note_on_c, 0, 69, 80
2, 140843, Note_on_c, 0, 72, 80
2, 140843, Note_on_c, 0, 75, 80
2, 140875, Note_on_c, 0, 75, 0
2, 140875, Note_on_c, 0, 67, 0
2, 140880, Note_on_c, 0, 57, 0
2, 140880, Note_on_c, 0, 72, 0
2, 140880, Note_on_c, 0, 79, 0
2, 140886, Note_on_c, 0, 69, 0
2, 140903, Note_on_c, 0, 65, 80
2, 140904, Note_on_c, 0, 53, 80
2, 140904, Note_on_c, 0, 77, 80
2, 140948, Note_on_c, 0, 53, 0
2, 140957, Note_on_c, 0, 54, 80
2, 140987, Note_on_c, 0, 54, 0
2, 140992, Note_on_c, 0, 55, 80
2, 141010, Note_on_c, 0, 77, 0
2, 141012, Note_on_c, 0, 65, 0
2, 141032, Note_on_c, 0, 56, 80
2, 141042, Note_on_c, 0, 55, 0
2, 141101, Note_on_c, 0, 46, 80
2, 141103, Note_on_c, 0, 74, 80
2, 141103, Note_on_c, 0, 77, 80
2, 141103, Note_on_c, 0, 80, 80
2, 141103, Note_on_c, 0, 84, 80
2, 141115, Note_on_c, 0, 72, 80
2, 141197, Note_on_c, 0, 46, 0
2, 141199, Note_on_c, 0, 77, 0
2, 141201, Note_on_c, 0, 84, 0
2, 141208, Note_on_c, 0, 72, 0
2, 141208, Note_on_c, 0, 74, 0
2, 141221, Note_on_c, 0, 46, 80
2, 141228, Note_on_c, 0, 72, 80
2, 141228, Note_on_c, 0, 74, 80
2, 141228, Note_on_c, 0, 77, 80
2, 141235, Note_on_c, 0, 84, 80
2, 141263, Note_on_c, 0, 46, 0
2, 141264, Note_on_c, 0, 77, 0
2, 141269, Note_on_c, 0, 84, 0
2, 141274, Note_on_c, 0, 74, 0
2, 141274, Note_on_c, 0, 80, 0
2, 141294, Note_on_c, 0, 46, 80
2, 141294, Note_on_c, 0, 74, 80
2, 141296, Note_on_c, 0, 77, 80
2, 141296, Note_on_c, 0, 80, 80
2, 141296, Note_on_c, 0, 84, 80
2, 141383, Note_on_c, 0, 46, 0
2, 141396, Note_on_c, 0, 56, 0
2, 141398, Note_on_c, 0, 77, 0
2, 141400, Note_on_c, 0, 72, 0
2, 141402, Note_on_c, 0, 84, 0
2, 141404, Note_on_c, 0, 74, 0
2, 141406, Note_on_c, 0, 80, 0
2, 141415, Note_on_c, 0, 46, 80
2, 141420, Note_on_c, 0, 56, 80
2, 141422, Note_on_c, 0, 70, 80
2, 141432, Note_on_c, 0, 82, 80
2, 141459, Note_on_c, 0, 82, 0
2, 141464, Note_on_c, 0, 70, 0
2, 141489, Note_on_c, 0, 82, 80
2, 141491, Note_on_c, 0, 87, 80
2, 141496, Note_on_c, 0, 75, 80
2, 141498, Note_on_c, 0, 79, 80
2, 141521, Note_on_c, 0, 46, 0
2, 141530, Note_on_c, 0, 56, 0
2, 141551, Note_on_c, 0, 46, 80
2, 141551, Note_on_c, 0, 55, 80
2, 141585, Note_on_c, 0, 46, 0
2, 141590, Note_on_c, 0, 82, 0
2, 141592, Note_on_c, 0, 87, 0
2, 141592, Note_on_c, 0, 55, 0
2, 141599, Note_on_c, 0, 79, 0
2, 141603, Note_on_c, 0, 75, 0
2, 141617, Note_on_c, 0, 55, 80
2, 141626, Note_on_c, 0, 87, 80
2, 141628, Note_on_c, 0, 67, 80
2, 141628, Note_on_c, 0, 75, 80
2, 141729, Note_on_c, 0, 75, 0
2, 141729, Note_on_c, 0, 67, 0
2, 141731, Note_on_c, 0, 87, 0
2, 141759, Note_on_c, 0, 87, 80
2, 141766, Note_on_c, 0, 67, 80
2, 141766, Note_on_c, 0, 75, 80
2, 141793, Note_on_c, 0, 87, 0
2, 141795, Note_on_c, 0, 67, 0
2, 141797, Note_on_c, 0, 75, 0
2, 141799, Note_on_c, 0, 55, 0
2, 141822, Note_on_c, 0, 74, 80
2, 141824, Note_on_c, 0, 65, 80
2, 141826, Note_on_c, 0, 53, 80
2, 141828, Note_on_c, 0, 86, 80
2, 141926, Note_on_c, 0, 86, 0
2, 141928, Note_on_c, 0, 65, 0
2, 141930, Note_on_c, 0, 53, 0
2, 141932, Note_on_c, 0, 74, 0
2, 141960, Note_on_c, 0, 51, 80
2, 141960, Note_on_c, 0, 63, 80
2, 141961, Note_on_c, 0, 72, 80
2, 141961, Note_on_c, 0, 84, 80
2, 141998, Note_on_c, 0, 51, 0
2, 142000, Note_on_c, 0, 84, 0
2, 142000, Note_on_c, 0, 72, 0
2, 142005, Note_on_c, 0, 63, 0
2, 142021, Note_on_c, 0, 62, 80
2, 142023, Note_on_c, 0, 50, 80
2, 142028, Note_on_c, 0, 70, 80
2, 142032, Note_on_c, 0, 82, 80
2, 142130, Note_on_c, 0, 82, 0
2, 142130, Note_on_c, 0, 50, 0
2, 142132, Note_on_c, 0, 70, 0
2, 142151, Note_on_c, 0, 50, 80
2, 142155, Note_on_c, 0, 82, 80
2, 142160, Note_on_c, 0, 70, 80
2, 142188, Note_on_c, 0, 62, 0
2, 142190, Note_on_c, 0, 50, 0
2, 142195, Note_on_c, 0, 82, 0
2, 142200, Note_on_c, 0, 70, 0
2, 142216, Note_on_c, 0, 48, 80
2, 142218, Note_on_c, 0, 60, 80
2, 142220, Note_on_c, 0, 80, 80
2, 142222, Note_on_c, 0, 68, 80
2, 142318, Note_on_c, 0, 48, 0
2, 142320, Note_on_c, 0, 68, 0
2, 142326, Note_on_c, 0, 60, 0
2, 142333, Note_on_c, 0, 80, 0
2, 142346, Note_on_c, 0, 58, 80
2, 142348, Note_on_c, 0, 46, 80
2, 142358, Note_on_c, 0, 79, 80
2, 142360, Note_on_c, 0, 67, 80
2, 142442, Note_on_c, 0, 46, 0
2, 142452, Note_on_c, 0, 58, 0
2, 142457, Note_on_c, 0, 67, 0
2, 142462, Note_on_c, 0, 79, 0
2, 142480, Note_on_c, 0, 46, 80
2, 142480, Note_on_c, 0, 56, 80
2, 142482, Note_on_c, 0, 66, 80
2, 142482, Note_on_c, 0, 78, 80
2, 142523, Note_on_c, 0, 66, 0
2, 142530, Note_on_c, 0, 78, 0
2, 142550, Note_on_c, 0, 67, 80
2, 142550, Note_on_c, 0, 79, 80
2, 142578, Note_on_c, 0, 46, 0
2, 142580, Note_on_c, 0, 56, 0
2, 142580, Note_on_c, 0, 67, 0
2, 142586, Note_on_c, 0, 79, 0
2, 142600, Note_on_c, 0, 55, 80
2, 142602, Note_on_c, 0, 46, 80
2, 142604, Note_on_c, 0, 51, 80
2, 142606, Note_on_c, 0, 75, 80
2, 142606, Note_on_c, 0, 82, 80
2, 142610, Note_on_c, 0, 70, 80
2, 142610, Note_on_c, 0, 79, 80
2, 142638, Note_on_c, 0, 82, 0
2, 142645, Note_on_c, 0, 75, 0
2, 142645, Note_on_c, 0, 79, 0
2, 142650, Note_on_c, 0, 70, 0
2, 142666, Note_on_c, 0, 78, 80
2, 142671, Note_on_c, 0, 66, 80
2, 142705, Note_on_c, 0, 46, 0
2, 142707, Note_on_c, 0, 66, 0
2, 142709, Note_on_c, 0, 51, 0
2, 142711, Note_on_c, 0, 78, 0
2, 142734, Note_on_c, 0, 63, 80
2, 142736, Note_on_c, 0, 58, 80
2, 142738, Note_on_c, 0, 67, 80
2, 142738, Note_on_c, 0, 79, 80
2, 142740, Note_on_c, 0, 75, 80
2, 142831, Note_on_c, 0, 67, 0
2, 142836, Note_on_c, 0, 79, 0
2, 142836, Note_on_c, 0, 75, 0
2, 142838, Note_on_c, 0, 58, 0
2, 142843, Note_on_c, 0, 55, 0
2, 142848, Note_on_c, 0, 63, 0
2, 142866, Note_on_c, 0, 34, 80
2, 142866, Note_on_c, 0, 75, 80
2, 142871, Note_on_c, 0, 70, 80
2, 142872, Note_on_c, 0, 79, 80
2, 142872, Note_on_c, 0, 82, 80
2, 142904, Note_on_c, 0, 82, 0
2, 142909, Note_on_c, 0, 70, 0
2, 142909, Note_on_c, 0, 79, 0
2, 142909, Note_on_c, 0, 75, 0
2, 142932, Note_on_c, 0, 66, 80
2, 142937, Note_on_c, 0, 78, 80
2, 142960, Note_on_c, 0, 34, 0
2, 142967, Note_on_c, 0, 66, 0
2, 142980, Note_on_c, 0, 78, 0
2, 142996, Note_on_c, 0, 55, 80
2, 142996, Note_on_c, 0, 58, 80
2, 142996, Note_on_c, 0, 63, 80
2, 143001, Note_on_c, 0, 79, 80
2, 143003, Note_on_c, 0, 67, 80
2, 143003, Note_on_c, 0, 75, 80
2, 143033, Note_on_c, 0, 75, 0
2, 143035, Note_on_c, 0, 67, 0
2, 143037, Note_on_c, 0, 79, 0
2, 143066, Note_on_c, 0, 74, 80
2, 143066, Note_on_c, 0, 78, 80
2, 143068, Note_on_c, 0, 81, 80
2, 143078, Note_on_c, 0, 86, 80
2, 143103, Note_on_c, 0, 58, 0
2, 143108, Note_on_c, 0, 55, 0
2, 143117, Note_on_c, 0, 63, 0
2, 143129, Note_on_c, 0, 42, 80
2, 143134, Note_on_c, 0, 54, 80
2, 143172, Note_on_c, 0, 86, 0
2, 143172, Note_on_c, 0, 81, 0
2, 143177, Note_on_c, 0, 78, 0
2, 143197, Note_on_c, 0, 78, 80
2, 143202, Note_on_c, 0, 81, 80
2, 143202, Note_on_c, 0, 86, 80
2, 143227, Note_on_c, 0, 54, 0
2, 143229, Note_on_c, 0, 42, 0
2, 143260, Note_on_c, 0, 57, 80
2, 143260, Note_on_c, 0, 63, 80
2, 143262, Note_on_c, 0, 60, 80
2, 143269, Note_on_c, 0, 66, 80
2, 143301, Note_on_c, 0, 81, 0
2, 143301, Note_on_c, 0, 86, 0
2, 143312, Note_on_c, 0, 74, 0
2, 143312, Note_on_c, 0, 78, 0
2, 143335, Note_on_c, 0, 73, 80
2, 143335, Note_on_c, 0, 85, 80
2, 143367, Note_on_c, 0, 66, 0
2, 143369, Note_on_c, 0, 73, 0
2, 143369, Note_on_c, 0, 85, 0
2, 143394, Note_on_c, 0, 78, 80
2, 143399, Note_on_c, 0, 66, 80
2, 143399, Note_on_c, 0, 72, 80
2, 143399, Note_on_c, 0, 84, 80
2, 143408, Note_on_c, 0, 81, 80
2, 143436, Note_on_c, 0, 81, 0
2, 143438, Note_on_c, 0, 72, 0
2, 143443, Note_on_c, 0, 78, 0
2, 143443, Note_on_c, 0, 84, 0
2, 143466, Note_on_c, 0, 74, 80
2, 143471, Note_on_c, 0, 86, 80
2, 143505, Note_on_c, 0, 86, 0
2, 143505, Note_on_c, 0, 60, 0
2, 143507, Note_on_c, 0, 66, 0
2, 143507, Note_on_c, 0, 57, 0
2, 143512, Note_on_c, 0, 63, 0
2, 143512, Note_on_c, 0, 74, 0
2, 143532, Note_on_c, 0, 42, 80
2, 143534, Note_on_c, 0, 54, 80
2, 143536, Note_on_c, 0, 72, 80
2, 143536, Note_on_c, 0, 78, 80
2, 143536, Note_on_c, 0, 84, 80
2, 143538, Note_on_c, 0, 81, 80
2, 143627, Note_on_c, 0, 54, 0
2, 143629, Note_on_c, 0, 42, 0
2, 143639, Note_on_c, 0, 72, 0
2, 143640, Note_on_c, 0, 78, 0
2, 143640, Note_on_c, 0, 84, 0
2, 143640, Note_on_c, 0, 81, 0
2, 143657, Note_on_c, 0, 41, 80
2, 143657, Note_on_c, 0, 80, 80
2, 143659, Note_on_c, 0, 53, 80
2, 143659, Note_on_c, 0, 77, 80
2, 143661, Note_on_c, 0, 84, 80
2, 143663, Note_on_c, 0, 72, 80
2, 143759, Note_on_c, 0, 41, 0
2, 143765, Note_on_c, 0, 53, 0
2, 143784, Note_on_c, 0, 56, 80
2, 143784, Note_on_c, 0, 62, 80
2, 143788, Note_on_c, 0, 58, 80
2, 143788, Note_on_c, 0, 65, 80
2, 143886, Note_on_c, 0, 58, 0
2, 143891, Note_on_c, 0, 65, 0
2, 143891, Note_on_c, 0, 56, 0
2, 143891, Note_on_c, 0, 77, 0
2, 143891, Note_on_c, 0, 62, 0
2, 143896, Note_on_c, 0, 84, 0
2, 143896, Note_on_c, 0, 82, 80
2, 143901, Note_on_c, 0, 72, 0
2, 143901, Note_on_c, 0, 80, 0
2, 143919, Note_on_c, 0, 83, 80
2, 143921, Note_on_c, 0, 58, 80
2, 143923, Note_on_c, 0, 46, 80
2, 143923, Note_on_c, 0, 72, 80
2, 143923, Note_on_c, 0, 84, 80
2, 143928, Note_on_c, 0, 82, 0
2, 143952, Note_on_c, 0, 83, 0
2, 143962, Note_on_c, 0, 72, 0
2, 143962, Note_on_c, 0, 84, 0
2, 143987, Note_on_c, 0, 70, 80
2, 143989, Note_on_c, 0, 82, 80
2, 144012, Note_on_c, 0, 46, 0
2, 144022, Note_on_c, 0, 58, 0
2, 144024, Note_on_c, 0, 82, 0
2, 144030, Note_on_c, 0, 70, 0
2, 144048, Note_on_c, 0, 56, 80
2, 144048, Note_on_c, 0, 58, 80
2, 144050, Note_on_c, 0, 72, 80
2, 144052, Note_on_c, 0, 62, 80
2, 144052, Note_on_c, 0, 65, 80
2, 144052, Note_on_c, 0, 84, 80
2, 144153, Note_on_c, 0, 58, 0
2, 144158, Note_on_c, 0, 62, 0
2, 144158, Note_on_c, 0, 56, 0
2, 144165, Note_on_c, 0, 72, 0
2, 144165, Note_on_c, 0, 84, 0
2, 144165, Note_on_c, 0, 65, 0
2, 144178, Note_on_c, 0, 57, 80
2, 144180, Note_on_c, 0, 45, 80
2, 144187, Note_on_c, 0, 67, 80
2, 144187, Note_on_c, 0, 69, 80
2, 144187, Note_on_c, 0, 75, 80
2, 144189, Note_on_c, 0, 79, 80
2, 144191, Note_on_c, 0, 72, 80
2, 144277, Note_on_c, 0, 45, 0
2, 144309, Note_on_c, 0, 60, 80
2, 144311, Note_on_c, 0, 63, 80
2, 144347, Note_on_c, 0, 75, 0
2, 144347, Note_on_c, 0, 79, 0
2, 144347, Note_on_c, 0, 67, 0
2, 144354, Note_on_c, 0, 72, 0
2, 144356, Note_on_c, 0, 69, 0
2, 144372, Note_on_c, 0, 74, 80
2, 144374, Note_on_c, 0, 65, 80
2, 144374, Note_on_c, 0, 68, 80
2, 144374, Note_on_c, 0, 77, 80
2, 144420, Note_on_c, 0, 57, 0
2, 144420, Note_on_c, 0, 60, 0
2, 144425, Note_on_c, 0, 63, 0
2, 144441, Note_on_c, 0, 56, 80
2, 144451, Note_on_c, 0, 44, 80
2, 144482, Note_on_c, 0, 65, 0
2, 144482, Note_on_c, 0, 68, 0
2, 144484, Note_on_c, 0, 77, 0
2, 144484, Note_on_c, 0, 74, 0
2, 144512, Note_on_c, 0, 77, 80
2, 144542, Note_on_c, 0, 44, 0
2, 144555, Note_on_c, 0, 56, 0
2, 144560, Note_on_c, 0, 77, 0
2, 144576, Note_on_c, 0, 56, 80
2, 144578, Note_on_c, 0, 58, 80
2, 144583, Note_on_c, 0, 62, 80
2, 144583, Note_on_c, 0, 70, 80
2, 144583, Note_on_c, 0, 74, 80
2, 144585, Note_on_c, 0, 79, 80
2, 144622, Note_on_c, 0, 79, 0
2, 144622, Note_on_c, 0, 74, 0
2, 144642, Note_on_c, 0, 65, 80
2, 144642, Note_on_c, 0, 73, 80
2, 144642, Note_on_c, 0, 77, 80
2, 144655, Note_on_c, 0, 67, 80
2, 144678, Note_on_c, 0, 58, 0
2, 144683, Note_on_c, 0, 56, 0
2, 144683, Note_on_c, 0, 62, 0
2, 144711, Note_on_c, 0, 55, 80
2, 144713, Note_on_c, 0, 43, 80
2, 144818, Note_on_c, 0, 43, 0
2, 144846, Note_on_c, 0, 58, 80
2, 144846, Note_on_c, 0, 61, 80
2, 144954, Note_on_c, 0, 61, 0
2, 144954, Note_on_c, 0, 73, 0
2, 144954, Note_on_c, 0, 65, 0
2, 144954, Note_on_c, 0, 67, 0
2, 144956, Note_on_c, 0, 58, 0
2, 144958, Note_on_c, 0, 77, 0
2, 144960, Note_on_c, 0, 55, 0
2, 144976, Note_on_c, 0, 62, 80
2, 144983, Note_on_c, 0, 74, 80
2, 144987, Note_on_c, 0, 39, 80
2, 145022, Note_on_c, 0, 62, 0
2, 145024, Note_on_c, 0, 74, 0
2, 145037, Note_on_c, 0, 58, 80
2, 145037, Note_on_c, 0, 63, 80
2, 145039, Note_on_c, 0, 39, 0
2, 145039, Note_on_c, 0, 73, 80
2, 145044, Note_on_c, 0, 61, 80
2, 145046, Note_on_c, 0, 55, 80
2, 145048, Note_on_c, 0, 75, 80
2, 145053, Note_on_c, 0, 67, 80
2, 145144, Note_on_c, 0, 67, 0
2, 145144, Note_on_c, 0, 61, 0
2, 145144, Note_on_c, 0, 58, 0
2, 145146, Note_on_c, 0, 73, 0
2, 145146, Note_on_c, 0, 75, 0
2, 145151, Note_on_c, 0, 70, 0
2, 145152, Note_on_c, 0, 55, 0
2, 145152, Note_on_c, 0, 63, 0
2, 145169, Note_on_c, 0, 46, 80
2, 145171, Note_on_c, 0, 70, 80
2, 145176, Note_on_c, 0, 73, 80
2, 145176, Note_on_c, 0, 77, 80
2, 145272, Note_on_c, 0, 46, 0
2, 145281, Note_on_c, 0, 70, 0
2, 145281, Note_on_c, 0, 73, 0
2, 145283, Note_on_c, 0, 77, 0
2, 145296, Note_on_c, 0, 55, 80
2, 145303, Note_on_c, 0, 61, 80
2, 145303, Note_on_c, 0, 70, 80
2, 145308, Note_on_c, 0, 82, 80
2, 145402, Note_on_c, 0, 82, 0
2, 145414, Note_on_c, 0, 70, 0
2, 145441, Note_on_c, 0, 67, 80
2, 145443, Note_on_c, 0, 79, 80
2, 145468, Note_on_c, 0, 61, 0
2, 145470, Note_on_c, 0, 55, 0
2, 145472, Note_on_c, 0, 67, 0
2, 145479, Note_on_c, 0, 79, 0
2, 145488, Note_on_c, 0, 51, 80
2, 145498, Note_on_c, 0, 70, 80
2, 145498, Note_on_c, 0, 82, 80
2, 145503, Note_on_c, 0, 39, 80
2, 145533, Note_on_c, 0, 82, 0
2, 145567, Note_on_c, 0, 82, 80
2, 145597, Note_on_c, 0, 39, 0
2, 145599, Note_on_c, 0, 51, 0
2, 145601, Note_on_c, 0, 82, 0
2, 145612, Note_on_c, 0, 70, 0
2, 145624, Note_on_c, 0, 55, 80
2, 145626, Note_on_c, 0, 58, 80
2, 145631, Note_on_c, 0, 84, 80
2, 145635, Note_on_c, 0, 61, 80
2, 145637, Note_on_c, 0, 72, 80
2, 145667, Note_on_c, 0, 61, 0
2, 145667, Note_on_c, 0, 58, 0
2, 145674, Note_on_c, 0, 72, 0
2, 145674, Note_on_c, 0, 84, 0
2, 145683, Note_on_c, 0, 55, 0
2, 145688, Note_on_c, 0, 56, 80
2, 145693, Note_on_c, 0, 44, 80
2, 145695, Note_on_c, 0, 80, 80
2, 145697, Note_on_c, 0, 75, 80
2, 145699, Note_on_c, 0, 68, 80
2, 145699, Note_on_c, 0, 72, 80
2, 145800, Note_on_c, 0, 75, 0
2, 145801, Note_on_c, 0, 44, 0
2, 145803, Note_on_c, 0, 68, 0
2, 145803, Note_on_c, 0, 56, 0
2, 145803, Note_on_c, 0, 72, 0
2, 145808, Note_on_c, 0, 80, 0
2, 145826, Note_on_c, 0, 56, 80
2, 145828, Note_on_c, 0, 44, 80
2, 145828, Note_on_c, 0, 68, 80
2, 145828, Note_on_c, 0, 80, 80
2, 145833, Note_on_c, 0, 72, 80
2, 145833, Note_on_c, 0, 75, 80
2, 145865, Note_on_c, 0, 44, 0
2, 145874, Note_on_c, 0, 56, 0
2, 145893, Note_on_c, 0, 41, 80
2, 145899, Note_on_c, 0, 53, 80
2, 145929, Note_on_c, 0, 41, 0
2, 145939, Note_on_c, 0, 53, 0
2, 145959, Note_on_c, 0, 42, 80
2, 145961, Note_on_c, 0, 54, 80
2, 145999, Note_on_c, 0, 54, 0
2, 146001, Note_on_c, 0, 42, 0
2, 146008, Note_on_c, 0, 72, 0
2, 146008, Note_on_c, 0, 68, 0
2, 146008, Note_on_c, 0, 75, 0
2, 146013, Note_on_c, 0, 80, 0
2, 146026, Note_on_c, 0, 55, 80
2, 146036, Note_on_c, 0, 43, 80
2, 146070, Note_on_c, 0, 43, 0
2, 146080, Note_on_c, 0, 55, 0
2, 146098, Note_on_c, 0, 40, 80
2, 146100, Note_on_c, 0, 52, 80
2, 146100, Note_on_c, 0, 82, 80
2, 146102, Note_on_c, 0, 70, 80
2, 146102, Note_on_c, 0, 76, 80
2, 146102, Note_on_c, 0, 79, 80
2, 146200, Note_on_c, 0, 40, 0
2, 146205, Note_on_c, 0, 82, 0
2, 146205, Note_on_c, 0, 52, 0
2, 146205, Note_on_c, 0, 79, 0
2, 146207, Note_on_c, 0, 76, 0
2, 146218, Note_on_c, 0, 70, 0
2, 146228, Note_on_c, 0, 52, 80
2, 146230, Note_on_c, 0, 40, 80
2, 146234, Note_on_c, 0, 72, 80
2, 146269, Note_on_c, 0, 40, 0
2, 146279, Note_on_c, 0, 52, 0
2, 146280, Note_on_c, 0, 72, 0
2, 146299, Note_on_c, 0, 36, 80
2, 146304, Note_on_c, 0, 48, 80
2, 146400, Note_on_c, 0, 36, 0
2, 146401, Note_on_c, 0, 48, 0
2, 146438, Note_on_c, 0, 41, 80
2, 146438, Note_on_c, 0, 65, 80
2, 146440, Note_on_c, 0, 53, 80
2, 146442, Note_on_c, 0, 72, 80
2, 146442, Note_on_c, 0, 77, 80
2, 146472, Note_on_c, 0, 41, 0
2, 146478, Note_on_c, 0, 72, 0
2, 146478, Note_on_c, 0, 65, 0
2, 146480, Note_on_c, 0, 53, 0
2, 146482, Note_on_c, 0, 77, 0
2, 146500, Note_on_c, 0, 65, 80
2, 146505, Note_on_c, 0, 44, 80
2, 146505, Note_on_c, 0, 56, 80
2, 146507, Note_on_c, 0, 72, 80
2, 146507, Note_on_c, 0, 77, 80
2, 146608, Note_on_c, 0, 44, 0
2, 146610, Note_on_c, 0, 77, 0
2, 146612, Note_on_c, 0, 65, 0
2, 146612, Note_on_c, 0, 56, 0
2, 146614, Note_on_c, 0, 72, 0
2, 146630, Note_on_c, 0, 55, 80
2, 146632, Note_on_c, 0, 43, 80
2, 146639, Note_on_c, 0, 67, 80
2, 146639, Note_on_c, 0, 72, 80
2, 146639, Note_on_c, 0, 79, 80
2, 146670, Note_on_c, 0, 43, 0
2, 146677, Note_on_c, 0, 55, 0
2, 146695, Note_on_c, 0, 41, 80
2, 146695, Note_on_c, 0, 53, 80
2, 146723, Note_on_c, 0, 41, 0
2, 146741, Note_on_c, 0, 53, 0
2, 146761, Note_on_c, 0, 51, 80
2, 146763, Note_on_c, 0, 39, 80
2, 146793, Note_on_c, 0, 39, 0
2, 146803, Note_on_c, 0, 79, 0
2, 146803, Note_on_c, 0, 51, 0
2, 146803, Note_on_c, 0, 67, 0
2, 146808, Note_on_c, 0, 72, 0
2, 146832, Note_on_c, 0, 50, 80
2, 146837, Note_on_c, 0, 38, 80
2, 146935, Note_on_c, 0, 38, 0
2, 146940, Note_on_c, 0, 50, 0
2, 146963, Note_on_c, 0, 58, 80
2, 146963, Note_on_c, 0, 62, 80
2, 146965, Note_on_c, 0, 56, 80
2, 146965, Note_on_c, 0, 70, 80
2, 146965, Note_on_c, 0, 74, 80
2, 146970, Note_on_c, 0, 79, 80
2, 146975, Note_on_c, 0, 67, 80
2, 147064, Note_on_c, 0, 56, 0
2, 147064, Note_on_c, 0, 58, 0
2, 147069, Note_on_c, 0, 62, 0
2, 147069, Note_on_c, 0, 79, 0
2, 147073, Note_on_c, 0, 70, 0
2, 147073, Note_on_c, 0, 67, 0
2, 147094, Note_on_c, 0, 46, 80
2, 147096, Note_on_c, 0, 34, 80
2, 147096, Note_on_c, 0, 65, 80
2, 147096, Note_on_c, 0, 68, 80
2, 147100, Note_on_c, 0, 77, 80
2, 147130, Note_on_c, 0, 65, 0
2, 147135, Note_on_c, 0, 68, 0
2, 147135, Note_on_c, 0, 77, 0
2, 147163, Note_on_c, 0, 70, 80
2, 147168, Note_on_c, 0, 67, 80
2, 147168, Note_on_c, 0, 79, 80
2, 147188, Note_on_c, 0, 46, 0
2, 147197, Note_on_c, 0, 34, 0
2, 147220, Note_on_c, 0, 56, 80
2, 147220, Note_on_c, 0, 58, 80
2, 147225, Note_on_c, 0, 62, 80
2, 147262, Note_on_c, 0, 70, 0
2, 147266, Note_on_c, 0, 67, 0
2, 147266, Note_on_c, 0, 79, 0
2, 147291, Note_on_c, 0, 77, 80
2, 147296, Note_on_c, 0, 70, 80
2, 147296, Note_on_c, 0, 82, 80
2, 147326, Note_on_c, 0, 58, 0
2, 147331, Note_on_c, 0, 62, 0
2, 147331, Note_on_c, 0, 56, 0
2, 147351, Note_on_c, 0, 41, 80
2, 147353, Note_on_c, 0, 53, 80
2, 147451, Note_on_c, 0, 41, 0
2, 147471, Note_on_c, 0, 53, 0
2, 147487, Note_on_c, 0, 56, 80
2, 147489, Note_on_c, 0, 58, 80
2, 147491, Note_on_c, 0, 62, 80
2, 147523, Note_on_c, 0, 56, 0
2, 147525, Note_on_c, 0, 82, 0
2, 147525, Note_on_c, 0, 58, 0
2, 147527, Note_on_c, 0, 77, 0
2, 147528, Note_on_c, 0, 62, 0
2, 147530, Note_on_c, 0, 70, 0
2, 147530, Note_on_c, 0, 74, 0
2, 147551, Note_on_c, 0, 46, 80
2, 147552, Note_on_c, 0, 58, 80
2, 147554, Note_on_c, 0, 70, 80
2, 147556, Note_on_c, 0, 74, 80
2, 147556, Note_on_c, 0, 79, 80
2, 147650, Note_on_c, 0, 58, 0
2, 147650, Note_on_c, 0, 46, 0
2, 147657, Note_on_c, 0, 79, 0
2, 147664, Note_on_c, 0, 70, 0
2, 147664, Note_on_c, 0, 74, 0
2, 147682, Note_on_c, 0, 46, 80
2, 147684, Note_on_c, 0, 58, 80
2, 147686, Note_on_c, 0, 70, 80
2, 147686, Note_on_c, 0, 74, 80
2, 147686, Note_on_c, 0, 79, 80
2, 147711, Note_on_c, 0, 46, 0
2, 147718, Note_on_c, 0, 58, 0
2, 147724, Note_on_c, 0, 74, 0
2, 147724, Note_on_c, 0, 79, 0
2, 147729, Note_on_c, 0, 70, 0
2, 147747, Note_on_c, 0, 59, 80
2, 147747, Note_on_c, 0, 68, 80
2, 147747, Note_on_c, 0, 74, 80
2, 147749, Note_on_c, 0, 47, 80
2, 147751, Note_on_c, 0, 77, 80
2, 147845, Note_on_c, 0, 47, 0
2, 147852, Note_on_c, 0, 68, 0
2, 147852, Note_on_c, 0, 77, 0
2, 147854, Note_on_c, 0, 59, 0
2, 147861, Note_on_c, 0, 74, 0
2, 147879, Note_on_c, 0, 60, 80
2, 147884, Note_on_c, 0, 48, 80
2, 147886, Note_on_c, 0, 67, 80
2, 147886, Note_on_c, 0, 72, 80
2, 147886, Note_on_c, 0, 75, 80
2, 147982, Note_on_c, 0, 48, 0
2, 147984, Note_on_c, 0, 67, 0
2, 147988, Note_on_c, 0, 60, 0
2, 147988, Note_on_c, 0, 72, 0
2, 147988, Note_on_c, 0, 75, 0
2, 148008, Note_on_c, 0, 55, 80
2, 148008, Note_on_c, 0, 60, 80
2, 148008, Note_on_c, 0, 63, 80
2, 148077, Note_on_c, 0, 67, 80
2, 148077, Note_on_c, 0, 72, 80
2, 148118, Note_on_c, 0, 72, 0
2, 148118, Note_on_c, 0, 60, 0
2, 148118, Note_on_c, 0, 55, 0
2, 148118, Note_on_c, 0, 67, 0
2, 148128, Note_on_c, 0, 63, 0
2, 148137, Note_on_c, 0, 59, 80
2, 148144, Note_on_c, 0, 47, 80
2, 148146, Note_on_c, 0, 67, 80
2, 148146, Note_on_c, 0, 75, 80
2, 148177, Note_on_c, 0, 75, 0
2, 148177, Note_on_c, 0, 67, 0
2, 148209, Note_on_c, 0, 77, 80
2, 148211, Note_on_c, 0, 67, 80
2, 148236, Note_on_c, 0, 47, 0
2, 148243, Note_on_c, 0, 67, 0
2, 148249, Note_on_c, 0, 77, 0
2, 148251, Note_on_c, 0, 59, 0
2, 148268, Note_on_c, 0, 58, 80
2, 148270, Note_on_c, 0, 46, 80
2, 148279, Note_on_c, 0, 67, 80
2, 148279, Note_on_c, 0, 75, 80
2, 148373, Note_on_c, 0, 46, 0
2, 148375, Note_on_c, 0, 58, 0
2, 148375, Note_on_c, 0, 67, 0
2, 148382, Note_on_c, 0, 75, 0
2, 148395, Note_on_c, 0, 57, 80
2, 148397, Note_on_c, 0, 45, 80
2, 148409, Note_on_c, 0, 66, 80
2, 148409, Note_on_c, 0, 72, 80
2, 148409, Note_on_c, 0, 74, 80
2, 148507, Note_on_c, 0, 45, 0
2, 148513, Note_on_c, 0, 57, 0
2, 148532, Note_on_c, 0, 60, 80
2, 148536, Note_on_c, 0, 54, 80
2, 148536, Note_on_c, 0, 62, 80
2, 148573, Note_on_c, 0, 54, 0
2, 148575, Note_on_c, 0, 62, 0
2, 148580, Note_on_c, 0, 72, 0
2, 148580, Note_on_c, 0, 60, 0
2, 148580, Note_on_c, 0, 66, 0
2, 148596, Note_on_c, 0, 74, 0
2, 148606, Note_on_c, 0, 45, 80
2, 148608, Note_on_c, 0, 66, 80
2, 148608, Note_on_c, 0, 78, 80
2, 148609, Note_on_c, 0, 57, 80
2, 148611, Note_on_c, 0, 72, 80
2, 148705, Note_on_c, 0, 45, 0
2, 148715, Note_on_c, 0, 66, 0
2, 148717, Note_on_c, 0, 78, 0
2, 148719, Note_on_c, 0, 72, 0
2, 148735, Note_on_c, 0, 45, 80
2, 148747, Note_on_c, 0, 66, 80
2, 148747, Note_on_c, 0, 78, 80
2, 148767, Note_on_c, 0, 45, 0
2, 148780, Note_on_c, 0, 57, 0
2, 148780, Note_on_c, 0, 66, 0
2, 148790, Note_on_c, 0, 78, 0
2, 148801, Note_on_c, 0, 55, 80
2, 148806, Note_on_c, 0, 67, 80
2, 148808, Note_on_c, 0, 43, 80
2, 148808, Note_on_c, 0, 72, 80
2, 148808, Note_on_c, 0, 79, 80
2, 148904, Note_on_c, 0, 43, 0
2, 148914, Note_on_c, 0, 67, 0
2, 148919, Note_on_c, 0, 79, 0
2, 148925, Note_on_c, 0, 55, 0
2, 148930, Note_on_c, 0, 69, 80
2, 148930, Note_on_c, 0, 78, 80
2, 148932, Note_on_c, 0, 54, 80
2, 148937, Note_on_c, 0, 42, 80
2, 148942, Note_on_c, 0, 81, 80
2, 149036, Note_on_c, 0, 54, 0
2, 149040, Note_on_c, 0, 42, 0
2, 149040, Note_on_c, 0, 81, 0
2, 149045, Note_on_c, 0, 69, 0
2, 149045, Note_on_c, 0, 78, 0
2, 149047, Note_on_c, 0, 72, 0
2, 149280, Note_on_c, 0, 68, 80
2, 149280, Note_on_c, 0, 80, 80
2, 149315, Note_on_c, 0, 68, 0
2, 149328, Note_on_c, 0, 80, 0
2, 149345, Note_on_c, 0, 69, 80
2, 149352, Note_on_c, 0, 81, 80
2, 149386, Note_on_c, 0, 81, 0
2, 149386, Note_on_c, 0, 69, 0
2, 149414, Note_on_c, 0, 70, 80
2, 149419, Note_on_c, 0, 82, 80
2, 149442, Note_on_c, 0, 38, 80
2, 149453, Note_on_c, 0, 82, 0
2, 149453, Note_on_c, 0, 70, 0
2, 149460, Note_on_c, 0, 45, 80
2, 149473, Note_on_c, 0, 54, 80
2, 149475, Note_on_c, 0, 84, 80
2, 149477, Note_on_c, 0, 72, 80
2, 149477, Note_on_c, 0, 78, 80
2, 149484, Note_on_c, 0, 81, 80
2, 149568, Note_on_c, 0, 54, 0
2, 149568, Note_on_c, 0, 45, 0
2, 149570, Note_on_c, 0, 81, 0
2, 149575, Note_on_c, 0, 84, 0
2, 149575, Note_on_c, 0, 38, 0
2, 149575, Note_on_c, 0, 72, 0
2, 149585, Note_on_c, 0, 78, 0
2, 149808, Note_on_c, 0, 76, 80
2, 149808, Note_on_c, 0, 79, 80
2, 149810, Note_on_c, 0, 88, 80
2, 149815, Note_on_c, 0, 83, 80
2, 149909, Note_on_c, 0, 88, 0
2, 149909, Note_on_c, 0, 79, 0
2, 149911, Note_on_c, 0, 76, 0
2, 149934, Note_on_c, 0, 43, 80
2, 149982, Note_on_c, 0, 83, 0
2, 149996, Note_on_c, 0, 59, 80
2, 149996, Note_on_c, 0, 79, 80
2, 149998, Note_on_c, 0, 74, 80
2, 149998, Note_on_c, 0, 86, 80
2, 150036, Note_on_c, 0, 43, 0
2, 150097, Note_on_c, 0, 59, 0
2, 150099, Note_on_c, 0, 74, 0
2, 150099, Note_on_c, 0, 79, 0
2, 150101, Note_on_c, 0, 86, 0
2, 150118, Note_on_c, 0, 43, 80
2, 150129, Note_on_c, 0, 76, 80
2, 150131, Note_on_c, 0, 79, 80
2, 150131, Note_on_c, 0, 83, 80
2, 150131, Note_on_c, 0, 88, 80
2, 150225, Note_on_c, 0, 43, 0
2, 150230, Note_on_c, 0, 88, 0
2, 150232, Note_on_c, 0, 76, 0
2, 150237, Note_on_c, 0, 79, 0
2, 150237, Note_on_c, 0, 83, 0
2, 150255, Note_on_c, 0, 58, 80
2, 150260, Note_on_c, 0, 74, 80
2, 150262, Note_on_c, 0, 86, 80
2, 150264, Note_on_c, 0, 79, 80
2, 150264, Note_on_c, 0, 82, 80
2, 150355, Note_on_c, 0, 82, 0
2, 150357, Note_on_c, 0, 86, 0
2, 150357, Note_on_c, 0, 79, 0
2, 150357, Note_on_c, 0, 58, 0
2, 150388, Note_on_c, 0, 43, 80
2, 150393, Note_on_c, 0, 86, 80
2, 150423, Note_on_c, 0, 43, 0
2, 150425, Note_on_c, 0, 86, 0
2, 150436, Note_on_c, 0, 74, 0
2, 150453, Note_on_c, 0, 59, 80
2, 150459, Note_on_c, 0, 76, 80
2, 150459, Note_on_c, 0, 79, 80
2, 150459, Note_on_c, 0, 82, 80
2, 150459, Note_on_c, 0, 88, 80
2, 150624, Note_on_c, 0, 88, 0
2, 150624, Note_on_c, 0, 82, 0
2, 150625, Note_on_c, 0, 59, 0
2, 150627, Note_on_c, 0, 79, 0
2, 150627, Note_on_c, 0, 76, 0
2, 150657, Note_on_c, 0, 43, 80
2, 150662, Note_on_c, 0, 83, 80
2, 150692, Note_on_c, 0, 43, 0
2, 150703, Note_on_c, 0, 83, 0
2, 150726, Note_on_c, 0, 54, 80
2, 150726, Note_on_c, 0, 88, 80
2, 150728, Note_on_c, 0, 76, 80
2, 150728, Note_on_c, 0, 79, 80
2, 150760, Note_on_c, 0, 54, 0
2, 150762, Note_on_c, 0, 79, 0
2, 150767, Note_on_c, 0, 88, 0
2, 150771, Note_on_c, 0, 76, 0
2, 150785, Note_on_c, 0, 53, 80
2, 150792, Note_on_c, 0, 74, 80
2, 150792, Note_on_c, 0, 80, 80
2, 150792, Note_on_c, 0, 86, 80
2, 150793, Note_on_c, 0, 77, 80
2, 150889, Note_on_c, 0, 77, 0
2, 150894, Note_on_c, 0, 53, 0
2, 150899, Note_on_c, 0, 86, 0
2, 150899, Note_on_c, 0, 80, 0
2, 150912, Note_on_c, 0, 56, 80
2, 150914, Note_on_c, 0, 59, 80
2, 150916, Note_on_c, 0, 53, 80
2, 150916, Note_on_c, 0, 62, 80
2, 150918, Note_on_c, 0, 71, 80
2, 150918, Note_on_c, 0, 77, 80
2, 150923, Note_on_c, 0, 83, 80
2, 151017, Note_on_c, 0, 62, 0
2, 151019, Note_on_c, 0, 59, 0
2, 151019, Note_on_c, 0, 71, 0
2, 151019, Note_on_c, 0, 56, 0
2, 151021, Note_on_c, 0, 53, 0
2, 151023, Note_on_c, 0, 74, 0
2, 151023, Note_on_c, 0, 77, 0
2, 151028, Note_on_c, 0, 83, 0
2, 151110, Note_on_c, 0, 78, 80
2, 151115, Note_on_c, 0, 90, 80
2, 151147, Note_on_c, 0, 90, 0
2, 151156, Note_on_c, 0, 78, 0
2, 151173, Note_on_c, 0, 63, 80
2, 151182, Note_on_c, 0, 58, 80
2, 151184, Note_on_c, 0, 79, 80
2, 151184, Note_on_c, 0, 91, 80
2, 151186, Note_on_c, 0, 67, 80
2, 151221, Note_on_c, 0, 91, 0
2, 151221, Note_on_c, 0, 79, 0
2, 151244, Note_on_c, 0, 74, 80
2, 151253, Note_on_c, 0, 86, 80
2, 151278, Note_on_c, 0, 58, 0
2, 151280, Note_on_c, 0, 86, 0
2, 151282, Note_on_c, 0, 67, 0
2, 151289, Note_on_c, 0, 63, 0
2, 151291, Note_on_c, 0, 74, 0
2, 151304, Note_on_c, 0, 34, 80
2, 151314, Note_on_c, 0, 77, 80
2, 151316, Note_on_c, 0, 89, 80
2, 151350, Note_on_c, 0, 89, 0
2, 151350, Note_on_c, 0, 77, 0
2, 151375, Note_on_c, 0, 75, 80
2, 151385, Note_on_c, 0, 87, 80
2, 151401, Note_on_c, 0, 34, 0
2, 151440, Note_on_c, 0, 58, 80
2, 151441, Note_on_c, 0, 63, 80
2, 151443, Note_on_c, 0, 67, 80
2, 151480, Note_on_c, 0, 87, 0
2, 151480, Note_on_c, 0, 75, 0
2, 151510, Note_on_c, 0, 72, 80
2, 151510, Note_on_c, 0, 84, 80
2, 151539, Note_on_c, 0, 58, 0
2, 151541, Note_on_c, 0, 67, 0
2, 151548, Note_on_c, 0, 72, 0
2, 151548, Note_on_c, 0, 84, 0
2, 151553, Note_on_c, 0, 63, 0
2, 151562, Note_on_c, 0, 55, 80
2, 151564, Note_on_c, 0, 43, 80
2, 151576, Note_on_c, 0, 74, 80
2, 151576, Note_on_c, 0, 81, 80
2, 151578, Note_on_c, 0, 86, 80
2, 151609, Note_on_c, 0, 81, 0
2, 151611, Note_on_c, 0, 86, 0
2, 151613, Note_on_c, 0, 74, 0
2, 151636, Note_on_c, 0, 73, 80
2, 151638, Note_on_c, 0, 85, 80
2, 151670, Note_on_c, 0, 85, 0
2, 151670, Note_on_c, 0, 43, 0
2, 151675, Note_on_c, 0, 73, 0
2, 151681, Note_on_c, 0, 55, 0
2, 151702, Note_on_c, 0, 58, 80
2, 151704, Note_on_c, 0, 63, 80
2, 151704, Note_on_c, 0, 74, 80
2, 151705, Note_on_c, 0, 86, 80
2, 151707, Note_on_c, 0, 67, 80
2, 151739, Note_on_c, 0, 86, 0
2, 151751, Note_on_c, 0, 74, 0
2, 151767, Note_on_c, 0, 84, 80
2, 151772, Note_on_c, 0, 72, 80
2, 151776, Note_on_c, 0, 81, 80
2, 151800, Note_on_c, 0, 58, 0
2, 151804, Note_on_c, 0, 67, 0
2, 151811, Note_on_c, 0, 63, 0
2, 151829, Note_on_c, 0, 54, 80
2, 151834, Note_on_c, 0, 42, 80
2, 151875, Note_on_c, 0, 81, 0
2, 151877, Note_on_c, 0, 72, 0
2, 151882, Note_on_c, 0, 84, 0
2, 151905, Note_on_c, 0, 72, 80
2, 151905, Note_on_c, 0, 84, 80
2, 151910, Note_on_c, 0, 81, 80
2, 151930, Note_on_c, 0, 54, 0
2, 151937, Note_on_c, 0, 42, 0
2, 151939, Note_on_c, 0, 72, 0
2, 151944, Note_on_c, 0, 84, 0
2, 151944, Note_on_c, 0, 81, 0
2, 151964, Note_on_c, 0, 57, 80
2, 151964, Note_on_c, 0, 60, 80
2, 151968, Note_on_c, 0, 63, 80
2, 151973, Note_on_c, 0, 66, 80
2, 151973, Note_on_c, 0, 74, 80
2, 151975, Note_on_c, 0, 86, 80
2, 151982, Note_on_c, 0, 81, 80
2, 152068, Note_on_c, 0, 81, 0
2, 152068, Note_on_c, 0, 86, 0
2, 152070, Note_on_c, 0, 66, 0
2, 152075, Note_on_c, 0, 74, 0
2, 152077, Note_on_c, 0, 57, 0
2, 152077, Note_on_c, 0, 60, 0
2, 152077, Note_on_c, 0, 63, 0
2, 152097, Note_on_c, 0, 80, 80
2, 152099, Note_on_c, 0, 53, 80
2, 152101, Note_on_c, 0, 41, 80
2, 152101, Note_on_c, 0, 72, 80
2, 152101, Note_on_c, 0, 84, 80
2, 152195, Note_on_c, 0, 41, 0
2, 152205, Note_on_c, 0, 53, 0
2, 152230, Note_on_c, 0, 56, 80
2, 152230, Note_on_c, 0, 62, 80
2, 152234, Note_on_c, 0, 58, 80
2, 152234, Note_on_c, 0, 65, 80
2, 152296, Note_on_c, 0, 80, 0
2, 152334, Note_on_c, 0, 62, 0
2, 152339, Note_on_c, 0, 72, 0
2, 152339, Note_on_c, 0, 65, 0
2, 152339, Note_on_c, 0, 80, 80
2, 152341, Note_on_c, 0, 56, 0
2, 152341, Note_on_c, 0, 58, 0
2, 152343, Note_on_c, 0, 84, 0
2, 152359, Note_on_c, 0, 82, 80
2, 152366, Note_on_c, 0, 58, 80
2, 152371, Note_on_c, 0, 46, 80
2, 152373, Note_on_c, 0, 72, 80
2, 152373, Note_on_c, 0, 83, 80
2, 152377, Note_on_c, 0, 84, 80
2, 152382, Note_on_c, 0, 80, 0
2, 152394, Note_on_c, 0, 82, 0
2, 152400, Note_on_c, 0, 83, 0
2, 152412, Note_on_c, 0, 72, 0
2, 152412, Note_on_c, 0, 84, 0
2, 152435, Note_on_c, 0, 70, 80
2, 152435, Note_on_c, 0, 82, 80
2, 152467, Note_on_c, 0, 46, 0
2, 152472, Note_on_c, 0, 58, 0
2, 152472, Note_on_c, 0, 82, 0
2, 152473, Note_on_c, 0, 70, 0
2, 152496, Note_on_c, 0, 56, 80
2, 152498, Note_on_c, 0, 58, 80
2, 152498, Note_on_c, 0, 62, 80
2, 152503, Note_on_c, 0, 65, 80
2, 152503, Note_on_c, 0, 72, 80
2, 152503, Note_on_c, 0, 84, 80
2, 152597, Note_on_c, 0, 56, 0
2, 152602, Note_on_c, 0, 65, 0
2, 152602, Note_on_c, 0, 62, 0
2, 152604, Note_on_c, 0, 72, 0
2, 152609, Note_on_c, 0, 84, 0
2, 152609, Note_on_c, 0, 58, 0
2, 152627, Note_on_c, 0, 45, 80
2, 152629, Note_on_c, 0, 69, 80
2, 152631, Note_on_c, 0, 57, 80
2, 152633, Note_on_c, 0, 75, 80
2, 152633, Note_on_c, 0, 79, 80
2, 152727, Note_on_c, 0, 45, 0
2, 152740, Note_on_c, 0, 57, 0
2, 152760, Note_on_c, 0, 57, 80
2, 152762, Note_on_c, 0, 63, 80
2, 152764, Note_on_c, 0, 60, 80
2, 152799, Note_on_c, 0, 69, 0
2, 152799, Note_on_c, 0, 79, 0
2, 152799, Note_on_c, 0, 75, 0
2, 152822, Note_on_c, 0, 74, 80
2, 152824, Note_on_c, 0, 68, 80
2, 152831, Note_on_c, 0, 77, 80
2, 152865, Note_on_c, 0, 57, 0
2, 152867, Note_on_c, 0, 60, 0
2, 152872, Note_on_c, 0, 63, 0
2, 152885, Note_on_c, 0, 56, 80
2, 152892, Note_on_c, 0, 44, 80
2, 152930, Note_on_c, 0, 68, 0
2, 152935, Note_on_c, 0, 74, 0
2, 152935, Note_on_c, 0, 77, 0
2, 152960, Note_on_c, 0, 77, 80
2, 152992, Note_on_c, 0, 44, 0
2, 153001, Note_on_c, 0, 56, 0
2, 153006, Note_on_c, 0, 77, 0
2, 153024, Note_on_c, 0, 56, 80
2, 153024, Note_on_c, 0, 58, 80
2, 153024, Note_on_c, 0, 62, 80
2, 153024, Note_on_c, 0, 65, 80
2, 153031, Note_on_c, 0, 74, 80
2, 153033, Note_on_c, 0, 79, 80
2, 153035, Note_on_c, 0, 68, 80
2, 153131, Note_on_c, 0, 58, 0
2, 153133, Note_on_c, 0, 79, 0
2, 153135, Note_on_c, 0, 62, 0
2, 153137, Note_on_c, 0, 74, 0
2, 153137, Note_on_c, 0, 68, 0
2, 153139, Note_on_c, 0, 56, 0
2, 153145, Note_on_c, 0, 55, 80
2, 153147, Note_on_c, 0, 73, 80
2, 153147, Note_on_c, 0, 77, 80
2, 153149, Note_on_c, 0, 43, 80
2, 153151, Note_on_c, 0, 70, 80
2, 153153, Note_on_c, 0, 67, 80
2, 153249, Note_on_c, 0, 43, 0
2, 153251, Note_on_c, 0, 55, 0
2, 153274, Note_on_c, 0, 58, 80
2, 153274, Note_on_c, 0, 61, 80
2, 153276, Note_on_c, 0, 55, 80
2, 153312, Note_on_c, 0, 61, 0
2, 153312, Note_on_c, 0, 58, 0
2, 153312, Note_on_c, 0, 65, 0
2, 153314, Note_on_c, 0, 77, 0
2, 153314, Note_on_c, 0, 70, 0
2, 153314, Note_on_c, 0, 67, 0
2, 153316, Note_on_c, 0, 73, 0
2, 153323, Note_on_c, 0, 55, 0
2, 153336, Note_on_c, 0, 63, 80
2, 153338, Note_on_c, 0, 51, 80
2, 153340, Note_on_c, 0, 39, 80
2, 153345, Note_on_c, 0, 67, 80
2, 153345, Note_on_c, 0, 70, 80
2, 153345, Note_on_c, 0, 75, 80
2, 153443, Note_on_c, 0, 39, 0
2, 153445, Note_on_c, 0, 67, 0
2, 153450, Note_on_c, 0, 70, 0
2, 153450, Note_on_c, 0, 75, 0
2, 153475, Note_on_c, 0, 39, 80
2, 153475, Note_on_c, 0, 75, 80
2, 153504, Note_on_c, 0, 39, 0
2, 153514, Note_on_c, 0, 51, 0
2, 153521, Note_on_c, 0, 75, 0
2, 153523, Note_on_c, 0, 63, 0
2, 153541, Note_on_c, 0, 41, 80
2, 153546, Note_on_c, 0, 65, 80
2, 153546, Note_on_c, 0, 73, 80
2, 153551, Note_on_c, 0, 53, 80
2, 153551, Note_on_c, 0, 70, 80
2, 153551, Note_on_c, 0, 77, 80
2, 153635, Note_on_c, 0, 41, 0
2, 153637, Note_on_c, 0, 65, 0
2, 153642, Note_on_c, 0, 73, 0
2, 153642, Note_on_c, 0, 77, 0
2, 153644, Note_on_c, 0, 53, 0
2, 153648, Note_on_c, 0, 70, 0
2, 153667, Note_on_c, 0, 61, 80
2, 153672, Note_on_c, 0, 51, 80
2, 153706, Note_on_c, 0, 51, 0
2, 153706, Note_on_c, 0, 61, 0
2, 153729, Note_on_c, 0, 51, 80
2, 153736, Note_on_c, 0, 70, 80
2, 153736, Note_on_c, 0, 79, 80
2, 153738, Note_on_c, 0, 75, 80
2, 153743, Note_on_c, 0, 82, 80
2, 153834, Note_on_c, 0, 82, 0
2, 153834, Note_on_c, 0, 51, 0
2, 153834, Note_on_c, 0, 75, 0
2, 153840, Note_on_c, 0, 79, 0
2, 153840, Note_on_c, 0, 70, 0
2, 153857, Note_on_c, 0, 51, 80
2, 153864, Note_on_c, 0, 70, 80
2, 153864, Note_on_c, 0, 82, 80
2, 153900, Note_on_c, 0, 82, 0
2, 153902, Note_on_c, 0, 51, 0
2, 153904, Note_on_c, 0, 70, 0
2, 153927, Note_on_c, 0, 51, 80
2, 153932, Note_on_c, 0, 84, 80
2, 153941, Note_on_c, 0, 72, 80
2, 153966, Note_on_c, 0, 84, 0
2, 153973, Note_on_c, 0, 72, 0
2, 153993, Note_on_c, 0, 75, 80
2, 154000, Note_on_c, 0, 87, 80
2, 154030, Note_on_c, 0, 51, 0
2, 154032, Note_on_c, 0, 87, 0
2, 154032, Note_on_c, 0, 75, 0
2, 154052, Note_on_c, 0, 51, 80
2, 154061, Note_on_c, 0, 84, 80
2, 154066, Note_on_c, 0, 72, 80
2, 154162, Note_on_c, 0, 51, 0
2, 154164, Note_on_c, 0, 72, 0
2, 154169, Note_on_c, 0, 84, 0
2, 154185, Note_on_c, 0, 48, 80
2, 154185, Note_on_c, 0, 60, 80
2, 154187, Note_on_c, 0, 75, 80
2, 154187, Note_on_c, 0, 87, 80
2, 154276, Note_on_c, 0, 48, 0
2, 154308, Note_on_c, 0, 56, 80
2, 154313, Note_on_c, 0, 63, 80
2, 154347, Note_on_c, 0, 87, 0
2, 154352, Note_on_c, 0, 75, 0
2, 154377, Note_on_c, 0, 75, 80
2, 154379, Note_on_c, 0, 87, 80
2, 154416, Note_on_c, 0, 56, 0
2, 154417, Note_on_c, 0, 60, 0
2, 154424, Note_on_c, 0, 63, 0
2, 154436, Note_on_c, 0, 46, 80
2, 154438, Note_on_c, 0, 58, 80
2, 154476, Note_on_c, 0, 87, 0
2, 154481, Note_on_c, 0, 75, 0
2, 154504, Note_on_c, 0, 75, 80
2, 154509, Note_on_c, 0, 87, 80
2, 154538, Note_on_c, 0, 46, 0
2, 154545, Note_on_c, 0, 58, 0
2, 154570, Note_on_c, 0, 55, 80
2, 154575, Note_on_c, 0, 58, 80
2, 154575, Note_on_c, 0, 61, 80
2, 154611, Note_on_c, 0, 75, 0
2, 154616, Note_on_c, 0, 87, 0
2, 154644, Note_on_c, 0, 72, 80
2, 154644, Note_on_c, 0, 84, 80
2, 154676, Note_on_c, 0, 84, 0
2, 154676, Note_on_c, 0, 61, 0
2, 154680, Note_on_c, 0, 72, 0
2, 154685, Note_on_c, 0, 55, 0
2, 154685, Note_on_c, 0, 58, 0
2, 154708, Note_on_c, 0, 56, 80
2, 154710, Note_on_c, 0, 44, 80
2, 154710, Note_on_c, 0, 87, 80
2, 154712, Note_on_c, 0, 75, 80
2, 154751, Note_on_c, 0, 75, 0
2, 154751, Note_on_c, 0, 87, 0
2, 154780, Note_on_c, 0, 77, 80
2, 154782, Note_on_c, 0, 89, 80
2, 154807, Note_on_c, 0, 44, 0
2, 154814, Note_on_c, 0, 56, 0
2, 154816, Note_on_c, 0, 89, 0
2, 154818, Note_on_c, 0, 77, 0
2, 154841, Note_on_c, 0, 43, 80
2, 154841, Note_on_c, 0, 55, 80
2, 154852, Note_on_c, 0, 87, 80
2, 154854, Note_on_c, 0, 75, 80
2, 154882, Note_on_c, 0, 87, 0
2, 154887, Note_on_c, 0, 75, 0
2, 154917, Note_on_c, 0, 72, 80
2, 154917, Note_on_c, 0, 84, 80
2, 154946, Note_on_c, 0, 43, 0
2, 154956, Note_on_c, 0, 55, 0
2, 154958, Note_on_c, 0, 72, 0
2, 154963, Note_on_c, 0, 84, 0
2, 154976, Note_on_c, 0, 41, 80
2, 154981, Note_on_c, 0, 53, 80
2, 154983, Note_on_c, 0, 75, 80
2, 154990, Note_on_c, 0, 87, 80
2, 155019, Note_on_c, 0, 75, 0
2, 155024, Note_on_c, 0, 87, 0
2, 155049, Note_on_c, 0, 75, 80
2, 155054, Note_on_c, 0, 87, 80
2, 155077, Note_on_c, 0, 41, 0
2, 155090, Note_on_c, 0, 53, 0
2, 155092, Note_on_c, 0, 75, 0
2, 155092, Note_on_c, 0, 87, 0
2, 155112, Note_on_c, 0, 58, 80
2, 155117, Note_on_c, 0, 77, 80
2, 155119, Note_on_c, 0, 46, 80
2, 155124, Note_on_c, 0, 89, 80
2, 155147, Note_on_c, 0, 46, 0
2, 155152, Note_on_c, 0, 58, 0
2, 155177, Note_on_c, 0, 47, 80
2, 155182, Note_on_c, 0, 59, 80
2, 155218, Note_on_c, 0, 47, 0
2, 155220, Note_on_c, 0, 77, 0
2, 155225, Note_on_c, 0, 89, 0
2, 155234, Note_on_c, 0, 59, 0
2, 155253, Note_on_c, 0, 48, 80
2, 155253, Note_on_c, 0, 60, 80
2, 155355, Note_on_c, 0, 48, 0
2, 155380, Note_on_c, 0, 51, 80
2, 155385, Note_on_c, 0, 56, 80
2, 155392, Note_on_c, 0, 84, 80
2, 155394, Note_on_c, 0, 79, 80
2, 155399, Note_on_c, 0, 91, 80
2, 155428, Note_on_c, 0, 91, 0
2, 155428, Note_on_c, 0, 84, 0
2, 155433, Note_on_c, 0, 79, 0
2, 155458, Note_on_c, 0, 79, 80
2, 155460, Note_on_c, 0, 84, 80
2, 155460, Note_on_c, 0, 91, 80
2, 155488, Note_on_c, 0, 51, 0
2, 155513, Note_on_c, 0, 51, 80
2, 155561, Note_on_c, 0, 84, 0
2, 155561, Note_on_c, 0, 79, 0
2, 155561, Note_on_c, 0, 91, 0
2, 155586, Note_on_c, 0, 91, 80
2, 155592, Note_on_c, 0, 79, 80
2, 155622, Note_on_c, 0, 51, 0
2, 155627, Note_on_c, 0, 91, 0
2, 155627, Note_on_c, 0, 79, 0
2, 155629, Note_on_c, 0, 56, 0
2, 155629, Note_on_c, 0, 60, 0
2, 155647, Note_on_c, 0, 57, 80
2, 155652, Note_on_c, 0, 45, 80
2, 155654, Note_on_c, 0, 77, 80
2, 155659, Note_on_c, 0, 89, 80
2, 155682, Note_on_c, 0, 45, 0
2, 155693, Note_on_c, 0, 57, 0
2, 155718, Note_on_c, 0, 58, 80
2, 155723, Note_on_c, 0, 46, 80
2, 155751, Note_on_c, 0, 46, 0
2, 155758, Note_on_c, 0, 58, 0
2, 155762, Note_on_c, 0, 77, 0
2, 155764, Note_on_c, 0, 89, 0
2, 155783, Note_on_c, 0, 59, 80
2, 155784, Note_on_c, 0, 47, 80
2, 155885, Note_on_c, 0, 47, 0
2, 155897, Note_on_c, 0, 59, 0
2, 155915, Note_on_c, 0, 51, 80
2, 155915, Note_on_c, 0, 56, 80
2, 155920, Note_on_c, 0, 60, 80
2, 155922, Note_on_c, 0, 79, 80
2, 155927, Note_on_c, 0, 91, 80
2, 155928, Note_on_c, 0, 83, 80
2, 155953, Note_on_c, 0, 56, 0
2, 155955, Note_on_c, 0, 91, 0
2, 155957, Note_on_c, 0, 60, 0
2, 155962, Note_on_c, 0, 79, 0
2, 155967, Note_on_c, 0, 83, 0
2, 155978, Note_on_c, 0, 56, 80
2, 155980, Note_on_c, 0, 60, 80
2, 155982, Note_on_c, 0, 79, 80
2, 155989, Note_on_c, 0, 83, 80
2, 155989, Note_on_c, 0, 91, 80
2, 156087, Note_on_c, 0, 79, 0
2, 156092, Note_on_c, 0, 91, 0
2, 156094, Note_on_c, 0, 83, 0
2, 156121, Note_on_c, 0, 79, 80
2, 156123, Note_on_c, 0, 91, 80
2, 156151, Note_on_c, 0, 79, 0
2, 156153, Note_on_c, 0, 51, 0
2, 156155, Note_on_c, 0, 56, 0
2, 156155, Note_on_c, 0, 91, 0
2, 156165, Note_on_c, 0, 60, 0
2, 156178, Note_on_c, 0, 44, 80
2, 156178, Note_on_c, 0, 56, 80
2, 156180, Note_on_c, 0, 77, 80
2, 156185, Note_on_c, 0, 89, 80
2, 156205, Note_on_c, 0, 44, 0
2, 156218, Note_on_c, 0, 56, 0
2, 156232, Note_on_c, 0, 45, 80
2, 156232, Note_on_c, 0, 57, 80
2, 156278, Note_on_c, 0, 45, 0
2, 156285, Note_on_c, 0, 89, 0
2, 156287, Note_on_c, 0, 57, 0
2, 156288, Note_on_c, 0, 77, 0
2, 156305, Note_on_c, 0, 46, 80
2, 156316, Note_on_c, 0, 58, 80
2, 156412, Note_on_c, 0, 46, 0
2, 156417, Note_on_c, 0, 58, 0
2, 156442, Note_on_c, 0, 63, 80
2, 156447, Note_on_c, 0, 58, 80
2, 156449, Note_on_c, 0, 77, 80
2, 156449, Note_on_c, 0, 84, 80
2, 156451, Note_on_c, 0, 67, 80
2, 156453, Note_on_c, 0, 89, 80
2, 156478, Note_on_c, 0, 58, 0
2, 156480, Note_on_c, 0, 67, 0
2, 156480, Note_on_c, 0, 84, 0
2, 156486, Note_on_c, 0, 77, 0
2, 156486, Note_on_c, 0, 89, 0
2, 156488, Note_on_c, 0, 63, 0
2, 156506, Note_on_c, 0, 58, 80
2, 156508, Note_on_c, 0, 77, 80
2, 156510, Note_on_c, 0, 63, 80
2, 156510, Note_on_c, 0, 67, 80
2, 156512, Note_on_c, 0, 84, 80
2, 156512, Note_on_c, 0, 89, 80
2, 156606, Note_on_c, 0, 77, 0
2, 156608, Note_on_c, 0, 67, 0
2, 156608, Note_on_c, 0, 58, 0
2, 156610, Note_on_c, 0, 84, 0
2, 156610, Note_on_c, 0, 89, 0
2, 156617, Note_on_c, 0, 63, 0
2, 156635, Note_on_c, 0, 46, 80
2, 156635, Note_on_c, 0, 58, 80
2, 156635, Note_on_c, 0, 75, 80
2, 156647, Note_on_c, 0, 87, 80
2, 156665, Note_on_c, 0, 46, 0
2, 156674, Note_on_c, 0, 58, 0
2, 156699, Note_on_c, 0, 45, 80
2, 156699, Note_on_c, 0, 57, 80
2, 156734, Note_on_c, 0, 45, 0
2, 156744, Note_on_c, 0, 57, 0
2, 156764, Note_on_c, 0, 56, 80
2, 156766, Note_on_c, 0, 44, 80
2, 156795, Note_on_c, 0, 44, 0
2, 156802, Note_on_c, 0, 87, 0
2, 156804, Note_on_c, 0, 56, 0
2, 156804, Note_on_c, 0, 75, 0
2, 156827, Note_on_c, 0, 55, 80
2, 156829, Note_on_c, 0, 43, 80
2, 156938, Note_on_c, 0, 43, 0
2, 156961, Note_on_c, 0, 64, 80
2, 156963, Note_on_c, 0, 58, 80
2, 156963, Note_on_c, 0, 60, 80
2, 156965, Note_on_c, 0, 74, 80
2, 156970, Note_on_c, 0, 82, 80
2, 156972, Note_on_c, 0, 86, 80
2, 157000, Note_on_c, 0, 58, 0
2, 157002, Note_on_c, 0, 82, 0
2, 157002, Note_on_c, 0, 86, 0
2, 157004, Note_on_c, 0, 55, 0
2, 157004, Note_on_c, 0, 64, 0
2, 157022, Note_on_c, 0, 58, 80
2, 157024, Note_on_c, 0, 55, 80
2, 157031, Note_on_c, 0, 64, 80
2, 157032, Note_on_c, 0, 86, 80
2, 157034, Note_on_c, 0, 82, 80
2, 157124, Note_on_c, 0, 58, 0
2, 157126, Note_on_c, 0, 82, 0
2, 157130, Note_on_c, 0, 55, 0
2, 157132, Note_on_c, 0, 60, 0
2, 157132, Note_on_c, 0, 74, 0
2, 157132, Note_on_c, 0, 86, 0
2, 157137, Note_on_c, 0, 64, 0
2, 157151, Note_on_c, 0, 57, 80
2, 157160, Note_on_c, 0, 87, 80
2, 157162, Note_on_c, 0, 75, 80
2, 157263, Note_on_c, 0, 75, 0
2, 157263, Note_on_c, 0, 87, 0
2, 157263, Note_on_c, 0, 57, 0
2, 157293, Note_on_c, 0, 41, 80
2, 157293, Note_on_c, 0, 72, 80
2, 157293, Note_on_c, 0, 84, 80
2, 157322, Note_on_c, 0, 41, 0
2, 157334, Note_on_c, 0, 72, 0
2, 157336, Note_on_c, 0, 84, 0
2, 157359, Note_on_c, 0, 57, 80
2, 157364, Note_on_c, 0, 75, 80
2, 157364, Note_on_c, 0, 84, 80
2, 157368, Note_on_c, 0, 87, 80
2, 157370, Note_on_c, 0, 81, 80
2, 157400, Note_on_c, 0, 75, 0
2, 157405, Note_on_c, 0, 87, 0
2, 157405, Note_on_c, 0, 81, 0
2, 157410, Note_on_c, 0, 84, 0
2, 157435, Note_on_c, 0, 77, 80
2, 157437, Note_on_c, 0, 89, 80
2, 157471, Note_on_c, 0, 89, 0
2, 157476, Note_on_c, 0, 57, 0
2, 157478, Note_on_c, 0, 77, 0
2, 157498, Note_on_c, 0, 41, 80
2, 157498, Note_on_c, 0, 87, 80
2, 157503, Note_on_c, 0, 75, 80
2, 157528, Note_on_c, 0, 41, 0
2, 157537, Note_on_c, 0, 87, 0
2, 157539, Note_on_c, 0, 75, 0
2, 157560, Note_on_c, 0, 57, 80
2, 157571, Note_on_c, 0, 86, 80
2, 157612, Note_on_c, 0, 86, 0
2, 157642, Note_on_c, 0, 84, 80
2, 157679, Note_on_c, 0, 84, 0
2, 157680, Note_on_c, 0, 57, 0
2, 157704, Note_on_c, 0, 41, 80
2, 157710, Note_on_c, 0, 75, 80
2, 157710, Note_on_c, 0, 87, 80
2, 157735, Note_on_c, 0, 41, 0
2, 157747, Note_on_c, 0, 87, 0
2, 157747, Note_on_c, 0, 75, 0
2, 157767, Note_on_c, 0, 57, 80
2, 157774, Note_on_c, 0, 77, 80
2, 157776, Note_on_c, 0, 89, 80
2, 157780, Note_on_c, 0, 81, 80
2, 157812, Note_on_c, 0, 81, 0
2, 157812, Note_on_c, 0, 89, 0
2, 157812, Note_on_c, 0, 77, 0
2, 157844, Note_on_c, 0, 87, 80
2, 157848, Note_on_c, 0, 75, 80
2, 157876, Note_on_c, 0, 75, 0
2, 157876, Note_on_c, 0, 87, 0
2, 157878, Note_on_c, 0, 57, 0
2, 157903, Note_on_c, 0, 56, 80
2, 157905, Note_on_c, 0, 46, 80
2, 157910, Note_on_c, 0, 74, 80
2, 157910, Note_on_c, 0, 80, 80
2, 157912, Note_on_c, 0, 86, 80
2, 157955, Note_on_c, 0, 86, 0
2, 157955, Note_on_c, 0, 74, 0
2, 157955, Note_on_c, 0, 80, 0
2, 157975, Note_on_c, 0, 84, 80
2, 157977, Note_on_c, 0, 72, 80
2, 158014, Note_on_c, 0, 72, 0
2, 158014, Note_on_c, 0, 84, 0
2, 158039, Note_on_c, 0, 74, 80
2, 158045, Note_on_c, 0, 82, 80
2, 158070, Note_on_c, 0, 46, 0
2, 158075, Note_on_c, 0, 82, 0
2, 158077, Note_on_c, 0, 56, 0
2, 158082, Note_on_c, 0, 74, 0
2, 158100, Note_on_c, 0, 46, 80
2, 158102, Note_on_c, 0, 56, 80
2, 158107, Note_on_c, 0, 74, 80
2, 158112, Note_on_c, 0, 84, 80
2, 158143, Note_on_c, 0, 84, 0
2, 158175, Note_on_c, 0, 82, 80
2, 158209, Note_on_c, 0, 82, 0
2, 158241, Note_on_c, 0, 84, 80
2, 158269, Note_on_c, 0, 46, 0
2, 158274, Note_on_c, 0, 56, 0
2, 158276, Note_on_c, 0, 74, 0
2, 158276, Note_on_c, 0, 84, 0
2, 158299, Note_on_c, 0, 46, 80
2, 158304, Note_on_c, 0, 56, 80
2, 158305, Note_on_c, 0, 74, 80
2, 158305, Note_on_c, 0, 82, 80
2, 158328, Note_on_c, 0, 46, 0
2, 158333, Note_on_c, 0, 56, 0
2, 158340, Note_on_c, 0, 82, 0
2, 158350, Note_on_c, 0, 74, 0
2, 158359, Note_on_c, 0, 55, 80
2, 158364, Note_on_c, 0, 51, 80
2, 158366, Note_on_c, 0, 46, 80
2, 158368, Note_on_c, 0, 82, 80
2, 158368, Note_on_c, 0, 87, 80
2, 158370, Note_on_c, 0, 75, 80
2, 158370, Note_on_c, 0, 79, 80
2, 158459, Note_on_c, 0, 46, 0
2, 158461, Note_on_c, 0, 75, 0
2, 158463, Note_on_c, 0, 82, 0
2, 158463, Note_on_c, 0, 55, 0
2, 158463, Note_on_c, 0, 51, 0
2, 158465, Note_on_c, 0, 79, 0
2, 158465, Note_on_c, 0, 87, 0
2, 158493, Note_on_c, 0, 43, 80
2, 158493, Note_on_c, 0, 55, 80
2, 158497, Note_on_c, 0, 82, 80
2, 158497, Note_on_c, 0, 87, 80
2, 158499, Note_on_c, 0, 75, 80
2, 158499, Note_on_c, 0, 79, 80
2, 158527, Note_on_c, 0, 43, 0
2, 158534, Note_on_c, 0, 55, 0
2, 158559, Note_on_c, 0, 46, 80
2, 158564, Note_on_c, 0, 58, 80
2, 158658, Note_on_c, 0, 58, 0
2, 158658, Note_on_c, 0, 46, 0
2, 158660, Note_on_c, 0, 87, 0
2, 158664, Note_on_c, 0, 82, 0
2, 158664, Note_on_c, 0, 79, 0
2, 158664, Note_on_c, 0, 75, 0
2, 158683, Note_on_c, 0, 60, 80
2, 158689, Note_on_c, 0, 48, 80
2, 158691, Note_on_c, 0, 72, 80
2, 158693, Note_on_c, 0, 79, 80
2, 158693, Note_on_c, 0, 84, 80
2, 158787, Note_on_c, 0, 48, 0
2, 158794, Note_on_c, 0, 79, 0
2, 158794, Note_on_c, 0, 84, 0
2, 158794, Note_on_c, 0, 72, 0
2, 158799, Note_on_c, 0, 60, 0
2, 158822, Note_on_c, 0, 50, 80
2, 158822, Note_on_c, 0, 62, 80
2, 158824, Note_on_c, 0, 78, 80
2, 158829, Note_on_c, 0, 70, 80
2, 158829, Note_on_c, 0, 82, 80
2, 158860, Note_on_c, 0, 82, 0
2, 158860, Note_on_c, 0, 50, 0
2, 158860, Note_on_c, 0, 62, 0
2, 158867, Note_on_c, 0, 70, 0
2, 158872, Note_on_c, 0, 78, 0
2, 158890, Note_on_c, 0, 51, 80
2, 158892, Note_on_c, 0, 63, 80
2, 158897, Note_on_c, 0, 72, 80
2, 158897, Note_on_c, 0, 79, 80
2, 158897, Note_on_c, 0, 84, 80
2, 158995, Note_on_c, 0, 51, 0
2, 158997, Note_on_c, 0, 79, 0
2, 158997, Note_on_c, 0, 84, 0
2, 158997, Note_on_c, 0, 72, 0
2, 159017, Note_on_c, 0, 51, 80
2, 159026, Note_on_c, 0, 66, 80
2, 159026, Note_on_c, 0, 78, 80
2, 159028, Note_on_c, 0, 90, 80
2, 159056, Note_on_c, 0, 66, 0
2, 159056, Note_on_c, 0, 51, 0
2, 159058, Note_on_c, 0, 90, 0
2, 159065, Note_on_c, 0, 63, 0
2, 159067, Note_on_c, 0, 78, 0
2, 159083, Note_on_c, 0, 50, 80
2, 159083, Note_on_c, 0, 62, 80
2, 159093, Note_on_c, 0, 79, 80
2, 159097, Note_on_c, 0, 91, 80
2, 159184, Note_on_c, 0, 62, 0
2, 159191, Note_on_c, 0, 50, 0
2, 159191, Note_on_c, 0, 79, 0
2, 159191, Note_on_c, 0, 91, 0
2, 159218, Note_on_c, 0, 60, 80
2, 159218, Note_on_c, 0, 78, 80
2, 159220, Note_on_c, 0, 48, 80
2, 159225, Note_on_c, 0, 90, 80
2, 159319, Note_on_c, 0, 48, 0
2, 159331, Note_on_c, 0, 60, 0
2, 159333, Note_on_c, 0, 78, 0
2, 159333, Note_on_c, 0, 90, 0
2, 159353, Note_on_c, 0, 46, 80
2, 159353, Note_on_c, 0, 58, 80
2, 159358, Note_on_c, 0, 91, 80
2, 159362, Note_on_c, 0, 79, 80
2, 159458, Note_on_c, 0, 58, 0
2, 159458, Note_on_c, 0, 46, 0
2, 159463, Note_on_c, 0, 91, 0
2, 159465, Note_on_c, 0, 79, 0
2, 159485, Note_on_c, 0, 51, 80
2, 159490, Note_on_c, 0, 63, 80
2, 159490, Note_on_c, 0, 78, 80
2, 159497, Note_on_c, 0, 90, 80
2, 159528, Note_on_c, 0, 90, 0
2, 159530, Note_on_c, 0, 78, 0
2, 159560, Note_on_c, 0, 79, 80
2, 159565, Note_on_c, 0, 91, 80
2, 159583, Note_on_c, 0, 51, 0
2, 159593, Note_on_c, 0, 79, 0
2, 159595, Note_on_c, 0, 91, 0
2, 159600, Note_on_c, 0, 63, 0
2, 159616, Note_on_c, 0, 62, 80
2, 159618, Note_on_c, 0, 50, 80
2, 159627, Note_on_c, 0, 78, 80
2, 159629, Note_on_c, 0, 90, 80
2, 159661, Note_on_c, 0, 90, 0
2, 159668, Note_on_c, 0, 78, 0
2, 159693, Note_on_c, 0, 91, 80
2, 159697, Note_on_c, 0, 79, 80
2, 159725, Note_on_c, 0, 62, 0
2, 159727, Note_on_c, 0, 50, 0
2, 159732, Note_on_c, 0, 91, 0
2, 159732, Note_on_c, 0, 79, 0
2, 159748, Note_on_c, 0, 60, 80
2, 159753, Note_on_c, 0, 48, 80
2, 159763, Note_on_c, 0, 75, 80
2, 159763, Note_on_c, 0, 79, 80
2, 159763, Note_on_c, 0, 82, 80
2, 159763, Note_on_c, 0, 87, 80
2, 159849, Note_on_c, 0, 48, 0
2, 159856, Note_on_c, 0, 82, 0
2, 159856, Note_on_c, 0, 87, 0
2, 159858, Note_on_c, 0, 75, 0
2, 159858, Note_on_c, 0, 79, 0
2, 159860, Note_on_c, 0, 60, 0
2, 159885, Note_on_c, 0, 46, 80
2, 159885, Note_on_c, 0, 58, 80
2, 159889, Note_on_c, 0, 72, 80
2, 159889, Note_on_c, 0, 79, 80
2, 159889, Note_on_c, 0, 84, 80
2, 159914, Note_on_c, 0, 46, 0
2, 159919, Note_on_c, 0, 58, 0
2, 159921, Note_on_c, 0, 84, 0
2, 159923, Note_on_c, 0, 72, 0
2, 159943, Note_on_c, 0, 51, 80
2, 159950, Note_on_c, 0, 63, 80
2, 159955, Note_on_c, 0, 70, 80
2, 159955, Note_on_c, 0, 75, 80
2, 159955, Note_on_c, 0, 82, 80
2, 160049, Note_on_c, 0, 82, 0
2, 160049, Note_on_c, 0, 75, 0
2, 160051, Note_on_c, 0, 51, 0
2, 160053, Note_on_c, 0, 79, 0
2, 160057, Note_on_c, 0, 70, 0
2, 160074, Note_on_c, 0, 51, 80
2, 160080, Note_on_c, 0, 70, 80
2, 160085, Note_on_c, 0, 82, 80
2, 160117, Note_on_c, 0, 51, 0
2, 160119, Note_on_c, 0, 82, 0
2, 160121, Note_on_c, 0, 70, 0
2, 160126, Note_on_c, 0, 63, 0
2, 160139, Note_on_c, 0, 58, 80
2, 160141, Note_on_c, 0, 46, 80
2, 160146, Note_on_c, 0, 72, 80
2, 160148, Note_on_c, 0, 75, 80
2, 160150, Note_on_c, 0, 79, 80
2, 160150, Note_on_c, 0, 84, 80
2, 160244, Note_on_c, 0, 46, 0
2, 160246, Note_on_c, 0, 75, 0
2, 160248, Note_on_c, 0, 58, 0
2, 160249, Note_on_c, 0, 72, 0
2, 160249, Note_on_c, 0, 84, 0
2, 160251, Note_on_c, 0, 79, 0
2, 160265, Note_on_c, 0, 51, 80
2, 160267, Note_on_c, 0, 39, 80
2, 160269, Note_on_c, 0, 61, 80
2, 160269, Note_on_c, 0, 70, 80
2, 160271, Note_on_c, 0, 67, 80
2, 160271, Note_on_c, 0, 75, 80
2, 160492, Note_on_c, 0, 39, 0
2, 160499, Note_on_c, 0, 61, 0
2, 160504, Note_on_c, 0, 67, 0
2, 160504, Note_on_c, 0, 75, 0
2, 160511, Note_on_c, 0, 51, 0
2, 160512, Note_on_c, 0, 70, 0
2, 160512, End_track
3, 0, Start_track
3, 0, Title_t, "c/b Jelly Roll Morton"
3, 0, End_track
4, 0, Start_track
4, 0, Title_t, "p/b Jelly Roll Morton"
4, 0, End_track
5, 0, Start_track
5, 0, Title_t, "Classics of Ragtime 0028 & 0038"
5, 0, End_track
6, 0, Start_track
6, 0, Title_t, "Scan of a player piano roll"
6, 0, End_track
7, 0, Start_track
7, 1, Copyright_t, "___________________________________________________\012\012KUNSTDERFUGE.COM LARGE CLASSICAL MIDI COLLECTION\012ONCLASSICAL BY ALESSANDRO SIMONETTO, PROPRIETOR\012___________________________________________________\012\012! Attention: this file is under copyright !\012\012(c)onclassical, (nc)smythe, 2010\012___________________________________________________\012\012NO ONE MAY REPUBLISH THIS FILE WITHOUT PERMISSION\012COMMERCIAL USES OF THIS FILE IS STRICTLY PROHIBITED\012___________________________________________________\012\012Files & contributor's list: http://kunstderfuge.com/\012Terms and conditions: http://kunstderfuge.com/notes.htm"
7, 1, End_track
0, 0, End_of_file
