0, 0, Header, 1, 8, 192
1, 0, Start_track
1, 0, Title_t, "524S"
1, 0, Copyright_t, "May NOT be used for commercial purposes."
1, 0, Text_t, "Roll expression/accent tracks, where present, converted to MIDI velocties.\012"
1, 0, Time_signature, 4, 2, 24, 8
1, 0, Key_signature, 0, "major"
1, 0, Tempo, 500000
1, 0, Marker_t, "Standard MIDI:LPI 117:Tempo  70: 12-05-2003"
1, 0, End_track
2, 0, Start_track
2, 0, Title_t, "Pineapple Rag (1908)"
2, 1, Control_c, 0, 64, 127
2, 114, Control_c, 0, 64, 0
2, 128, Note_on_c, 0, 55, 80
2, 130, Note_on_c, 0, 67, 80
2, 174, Note_on_c, 0, 53, 80
2, 174, Note_on_c, 0, 65, 80
2, 176, Note_on_c, 0, 67, 0
2, 176, Note_on_c, 0, 55, 0
2, 303, Note_on_c, 0, 51, 80
2, 303, Note_on_c, 0, 63, 80
2, 305, Note_on_c, 0, 53, 0
2, 305, Note_on_c, 0, 65, 0
2, 368, Note_on_c, 0, 50, 80
2, 368, Note_on_c, 0, 62, 80
2, 373, Note_on_c, 0, 51, 0
2, 373, Note_on_c, 0, 63, 0
2, 441, Note_on_c, 0, 49, 80
2, 443, Note_on_c, 0, 50, 0
2, 443, Note_on_c, 0, 62, 0
2, 443, Note_on_c, 0, 61, 80
2, 511, Note_on_c, 0, 50, 80
2, 511, Note_on_c, 0, 62, 80
2, 513, Note_on_c, 0, 61, 0
2, 513, Note_on_c, 0, 49, 0
2, 578, Note_on_c, 0, 48, 80
2, 578, Note_on_c, 0, 60, 80
2, 580, Note_on_c, 0, 50, 0
2, 580, Note_on_c, 0, 62, 0
2, 644, Note_on_c, 0, 46, 80
2, 644, Note_on_c, 0, 58, 80
2, 646, Note_on_c, 0, 48, 0
2, 648, Note_on_c, 0, 60, 0
2, 711, Note_on_c, 0, 48, 80
2, 713, Note_on_c, 0, 46, 0
2, 713, Note_on_c, 0, 60, 80
2, 715, Note_on_c, 0, 58, 0
2, 780, Note_on_c, 0, 50, 80
2, 780, Note_on_c, 0, 62, 80
2, 782, Note_on_c, 0, 60, 0
2, 782, Note_on_c, 0, 48, 0
2, 845, Note_on_c, 0, 53, 80
2, 845, Note_on_c, 0, 65, 80
2, 847, Note_on_c, 0, 50, 0
2, 849, Note_on_c, 0, 62, 0
2, 1060, Note_on_c, 0, 65, 0
2, 1072, Note_on_c, 0, 53, 0
2, 1179, Note_on_c, 0, 55, 80
2, 1179, Note_on_c, 0, 67, 80
2, 1207, Note_on_c, 0, 55, 0
2, 1209, Note_on_c, 0, 67, 0
2, 1249, Note_on_c, 0, 55, 80
2, 1249, Note_on_c, 0, 67, 80
2, 1381, Note_on_c, 0, 54, 80
2, 1381, Note_on_c, 0, 66, 80
2, 1383, Note_on_c, 0, 67, 0
2, 1383, Note_on_c, 0, 55, 0
2, 1443, Note_on_c, 0, 55, 80
2, 1443, Note_on_c, 0, 67, 80
2, 1445, Note_on_c, 0, 54, 0
2, 1447, Note_on_c, 0, 66, 0
2, 1508, Note_on_c, 0, 57, 80
2, 1508, Note_on_c, 0, 69, 80
2, 1512, Note_on_c, 0, 55, 0
2, 1512, Note_on_c, 0, 67, 0
2, 1573, Note_on_c, 0, 58, 80
2, 1575, Note_on_c, 0, 70, 80
2, 1577, Note_on_c, 0, 57, 0
2, 1577, Note_on_c, 0, 69, 0
2, 1710, Note_on_c, 0, 60, 80
2, 1710, Note_on_c, 0, 72, 80
2, 1715, Note_on_c, 0, 58, 0
2, 1715, Note_on_c, 0, 70, 0
2, 1844, Note_on_c, 0, 53, 80
2, 1846, Note_on_c, 0, 65, 80
2, 1848, Note_on_c, 0, 60, 0
2, 1848, Note_on_c, 0, 72, 0
2, 1969, Note_on_c, 0, 53, 0
2, 1969, Note_on_c, 0, 65, 0
2, 2114, Note_on_c, 0, 53, 80
2, 2116, Note_on_c, 0, 65, 80
2, 2250, Note_on_c, 0, 46, 80
2, 2252, Note_on_c, 0, 70, 80
2, 2252, Note_on_c, 0, 74, 80
2, 2252, Note_on_c, 0, 79, 80
2, 2254, Note_on_c, 0, 65, 0
2, 2254, Note_on_c, 0, 53, 0
2, 2277, Control_c, 0, 64, 127
2, 2281, Note_on_c, 0, 74, 0
2, 2281, Note_on_c, 0, 70, 0
2, 2281, Note_on_c, 0, 79, 0
2, 2317, Note_on_c, 0, 77, 80
2, 2331, Control_c, 0, 64, 0
2, 2385, Note_on_c, 0, 53, 80
2, 2385, Note_on_c, 0, 58, 80
2, 2385, Note_on_c, 0, 62, 80
2, 2387, Note_on_c, 0, 46, 0
2, 2415, Note_on_c, 0, 58, 0
2, 2415, Note_on_c, 0, 62, 0
2, 2415, Note_on_c, 0, 53, 0
2, 2450, Note_on_c, 0, 75, 80
2, 2455, Note_on_c, 0, 77, 0
2, 2514, Note_on_c, 0, 41, 80
2, 2516, Note_on_c, 0, 74, 80
2, 2520, Note_on_c, 0, 75, 0
2, 2581, Note_on_c, 0, 73, 80
2, 2583, Note_on_c, 0, 74, 0
2, 2646, Note_on_c, 0, 53, 80
2, 2646, Note_on_c, 0, 58, 80
2, 2646, Note_on_c, 0, 62, 80
2, 2646, Note_on_c, 0, 74, 80
2, 2648, Note_on_c, 0, 73, 0
2, 2648, Note_on_c, 0, 41, 0
2, 2674, Note_on_c, 0, 62, 0
2, 2674, Note_on_c, 0, 58, 0
2, 2674, Note_on_c, 0, 53, 0
2, 2707, Note_on_c, 0, 72, 80
2, 2709, Note_on_c, 0, 74, 0
2, 2769, Note_on_c, 0, 46, 80
2, 2771, Note_on_c, 0, 70, 80
2, 2773, Note_on_c, 0, 72, 0
2, 2784, Control_c, 0, 64, 127
2, 2838, Control_c, 0, 64, 0
2, 2838, Note_on_c, 0, 72, 80
2, 2840, Note_on_c, 0, 70, 0
2, 2905, Note_on_c, 0, 53, 80
2, 2905, Note_on_c, 0, 58, 80
2, 2905, Note_on_c, 0, 62, 80
2, 2905, Note_on_c, 0, 74, 80
2, 2907, Note_on_c, 0, 46, 0
2, 2909, Note_on_c, 0, 72, 0
2, 2935, Note_on_c, 0, 62, 0
2, 2935, Note_on_c, 0, 58, 0
2, 2935, Note_on_c, 0, 53, 0
2, 2971, Note_on_c, 0, 77, 80
2, 2976, Note_on_c, 0, 74, 0
2, 3036, Note_on_c, 0, 41, 80
2, 3109, Note_on_c, 0, 82, 80
2, 3111, Note_on_c, 0, 77, 0
2, 3176, Note_on_c, 0, 53, 80
2, 3176, Note_on_c, 0, 58, 80
2, 3176, Note_on_c, 0, 62, 80
2, 3176, Note_on_c, 0, 77, 80
2, 3176, Note_on_c, 0, 86, 80
2, 3178, Note_on_c, 0, 82, 0
2, 3178, Note_on_c, 0, 41, 0
2, 3206, Note_on_c, 0, 58, 0
2, 3206, Note_on_c, 0, 62, 0
2, 3206, Note_on_c, 0, 53, 0
2, 3232, Note_on_c, 0, 86, 0
2, 3232, Note_on_c, 0, 77, 0
2, 3313, Note_on_c, 0, 46, 80
2, 3313, Note_on_c, 0, 70, 80
2, 3313, Note_on_c, 0, 74, 80
2, 3313, Note_on_c, 0, 79, 80
2, 3346, Note_on_c, 0, 79, 0
2, 3346, Note_on_c, 0, 74, 0
2, 3346, Note_on_c, 0, 70, 0
2, 3353, Control_c, 0, 64, 127
2, 3381, Note_on_c, 0, 77, 80
2, 3408, Control_c, 0, 64, 0
2, 3451, Note_on_c, 0, 53, 80
2, 3451, Note_on_c, 0, 58, 80
2, 3451, Note_on_c, 0, 62, 80
2, 3453, Note_on_c, 0, 46, 0
2, 3480, Note_on_c, 0, 58, 0
2, 3480, Note_on_c, 0, 62, 0
2, 3480, Note_on_c, 0, 53, 0
2, 3518, Note_on_c, 0, 75, 80
2, 3520, Note_on_c, 0, 77, 0
2, 3588, Note_on_c, 0, 41, 80
2, 3588, Note_on_c, 0, 74, 80
2, 3590, Note_on_c, 0, 75, 0
2, 3655, Note_on_c, 0, 73, 80
2, 3660, Note_on_c, 0, 74, 0
2, 3720, Note_on_c, 0, 53, 80
2, 3720, Note_on_c, 0, 58, 80
2, 3722, Note_on_c, 0, 62, 80
2, 3722, Note_on_c, 0, 74, 80
2, 3724, Note_on_c, 0, 41, 0
2, 3726, Note_on_c, 0, 73, 0
2, 3752, Note_on_c, 0, 62, 0
2, 3752, Note_on_c, 0, 58, 0
2, 3752, Note_on_c, 0, 53, 0
2, 3790, Note_on_c, 0, 75, 80
2, 3792, Note_on_c, 0, 74, 0
2, 3857, Note_on_c, 0, 46, 80
2, 3857, Note_on_c, 0, 70, 80
2, 3857, Note_on_c, 0, 74, 80
2, 3857, Note_on_c, 0, 77, 80
2, 3859, Note_on_c, 0, 75, 0
2, 3911, Note_on_c, 0, 74, 0
2, 3941, Note_on_c, 0, 77, 0
2, 3941, Note_on_c, 0, 70, 0
2, 3990, Note_on_c, 0, 50, 80
2, 3990, Note_on_c, 0, 70, 80
2, 3990, Note_on_c, 0, 77, 80
2, 3992, Note_on_c, 0, 46, 0
2, 3999, Control_c, 0, 64, 127
2, 4056, Note_on_c, 0, 74, 80
2, 4057, Note_on_c, 0, 77, 0
2, 4057, Note_on_c, 0, 70, 0
2, 4121, Note_on_c, 0, 53, 80
2, 4121, Note_on_c, 0, 77, 80
2, 4123, Note_on_c, 0, 70, 80
2, 4125, Note_on_c, 0, 50, 0
2, 4125, Note_on_c, 0, 74, 0
2, 4185, Note_on_c, 0, 74, 80
2, 4187, Note_on_c, 0, 77, 0
2, 4187, Note_on_c, 0, 70, 0
2, 4250, Control_c, 0, 64, 0
2, 4250, Note_on_c, 0, 56, 80
2, 4250, Note_on_c, 0, 70, 80
2, 4252, Note_on_c, 0, 53, 0
2, 4252, Note_on_c, 0, 77, 80
2, 4254, Note_on_c, 0, 74, 0
2, 4348, Note_on_c, 0, 70, 0
2, 4384, Note_on_c, 0, 43, 80
2, 4386, Note_on_c, 0, 55, 80
2, 4386, Note_on_c, 0, 70, 80
2, 4388, Note_on_c, 0, 56, 0
2, 4388, Note_on_c, 0, 77, 0
2, 4394, Control_c, 0, 64, 127
2, 4451, Note_on_c, 0, 75, 80
2, 4451, Note_on_c, 0, 82, 80
2, 4453, Note_on_c, 0, 70, 0
2, 4479, Note_on_c, 0, 55, 0
2, 4481, Note_on_c, 0, 75, 0
2, 4481, Note_on_c, 0, 82, 0
2, 4488, Control_c, 0, 64, 0
2, 4507, Note_on_c, 0, 43, 0
2, 4516, Note_on_c, 0, 55, 80
2, 4516, Note_on_c, 0, 58, 80
2, 4516, Note_on_c, 0, 63, 80
2, 4586, Note_on_c, 0, 70, 80
2, 4591, Note_on_c, 0, 63, 0
2, 4591, Note_on_c, 0, 55, 0
2, 4591, Note_on_c, 0, 58, 0
2, 4652, Note_on_c, 0, 42, 80
2, 4654, Note_on_c, 0, 54, 80
2, 4656, Note_on_c, 0, 75, 80
2, 4656, Note_on_c, 0, 82, 80
2, 4657, Note_on_c, 0, 70, 0
2, 4679, Control_c, 0, 64, 127
2, 4685, Note_on_c, 0, 75, 0
2, 4685, Note_on_c, 0, 82, 0
2, 4737, Control_c, 0, 64, 0
2, 4753, Note_on_c, 0, 54, 0
2, 4791, Note_on_c, 0, 54, 80
2, 4791, Note_on_c, 0, 58, 80
2, 4791, Note_on_c, 0, 63, 80
2, 4791, Note_on_c, 0, 70, 80
2, 4793, Note_on_c, 0, 42, 0
2, 4861, Note_on_c, 0, 74, 80
2, 4861, Note_on_c, 0, 82, 80
2, 4863, Note_on_c, 0, 63, 0
2, 4863, Note_on_c, 0, 70, 0
2, 4863, Note_on_c, 0, 54, 0
2, 4863, Note_on_c, 0, 58, 0
2, 4889, Note_on_c, 0, 82, 0
2, 4889, Note_on_c, 0, 74, 0
2, 4926, Note_on_c, 0, 41, 80
2, 4926, Note_on_c, 0, 53, 80
2, 4967, Control_c, 0, 64, 127
2, 4994, Note_on_c, 0, 86, 80
2, 5022, Note_on_c, 0, 53, 0
2, 5022, Control_c, 0, 64, 0
2, 5064, Note_on_c, 0, 53, 80
2, 5064, Note_on_c, 0, 58, 80
2, 5064, Note_on_c, 0, 82, 80
2, 5066, Note_on_c, 0, 41, 0
2, 5066, Note_on_c, 0, 62, 80
2, 5068, Note_on_c, 0, 86, 0
2, 5106, Note_on_c, 0, 58, 0
2, 5106, Note_on_c, 0, 62, 0
2, 5106, Note_on_c, 0, 53, 0
2, 5129, Note_on_c, 0, 74, 80
2, 5134, Note_on_c, 0, 82, 0
2, 5194, Note_on_c, 0, 38, 80
2, 5194, Note_on_c, 0, 50, 80
2, 5194, Note_on_c, 0, 70, 80
2, 5194, Note_on_c, 0, 77, 80
2, 5199, Note_on_c, 0, 74, 0
2, 5208, Control_c, 0, 64, 127
2, 5262, Note_on_c, 0, 76, 80
2, 5264, Note_on_c, 0, 70, 0
2, 5264, Note_on_c, 0, 77, 0
2, 5300, Control_c, 0, 64, 0
2, 5326, Note_on_c, 0, 37, 80
2, 5328, Note_on_c, 0, 49, 80
2, 5328, Note_on_c, 0, 77, 80
2, 5329, Note_on_c, 0, 38, 0
2, 5329, Note_on_c, 0, 76, 0
2, 5329, Note_on_c, 0, 50, 0
2, 5390, Note_on_c, 0, 79, 80
2, 5392, Note_on_c, 0, 77, 0
2, 5450, Note_on_c, 0, 36, 80
2, 5450, Note_on_c, 0, 48, 80
2, 5452, Note_on_c, 0, 37, 0
2, 5452, Note_on_c, 0, 81, 80
2, 5454, Note_on_c, 0, 79, 0
2, 5454, Note_on_c, 0, 49, 0
2, 5477, Control_c, 0, 64, 127
2, 5518, Note_on_c, 0, 72, 80
2, 5518, Note_on_c, 0, 77, 80
2, 5520, Note_on_c, 0, 81, 0
2, 5543, Note_on_c, 0, 72, 0
2, 5543, Note_on_c, 0, 77, 0
2, 5564, Control_c, 0, 64, 0
2, 5575, Note_on_c, 0, 57, 80
2, 5577, Note_on_c, 0, 48, 0
2, 5577, Note_on_c, 0, 36, 0
2, 5577, Note_on_c, 0, 60, 80
2, 5577, Note_on_c, 0, 65, 80
2, 5603, Note_on_c, 0, 65, 0
2, 5603, Note_on_c, 0, 60, 0
2, 5603, Note_on_c, 0, 57, 0
2, 5643, Note_on_c, 0, 81, 80
2, 5712, Note_on_c, 0, 36, 80
2, 5712, Note_on_c, 0, 48, 80
2, 5713, Note_on_c, 0, 70, 80
2, 5713, Note_on_c, 0, 76, 80
2, 5713, Note_on_c, 0, 79, 80
2, 5715, Note_on_c, 0, 81, 0
2, 5756, Note_on_c, 0, 76, 0
2, 5756, Note_on_c, 0, 70, 0
2, 5756, Note_on_c, 0, 79, 0
2, 5850, Note_on_c, 0, 58, 80
2, 5850, Note_on_c, 0, 60, 80
2, 5850, Note_on_c, 0, 64, 80
2, 5850, Note_on_c, 0, 70, 80
2, 5852, Note_on_c, 0, 36, 0
2, 5852, Note_on_c, 0, 48, 0
2, 5852, Note_on_c, 0, 76, 80
2, 5852, Note_on_c, 0, 81, 80
2, 5880, Note_on_c, 0, 64, 0
2, 5880, Note_on_c, 0, 60, 0
2, 5880, Note_on_c, 0, 58, 0
2, 5917, Note_on_c, 0, 69, 80
2, 5917, Note_on_c, 0, 77, 80
2, 5922, Note_on_c, 0, 70, 0
2, 5922, Note_on_c, 0, 81, 0
2, 5922, Note_on_c, 0, 76, 0
2, 5985, Note_on_c, 0, 41, 80
2, 5985, Note_on_c, 0, 53, 80
2, 6058, Note_on_c, 0, 69, 0
2, 6102, Note_on_c, 0, 77, 0
2, 6125, Note_on_c, 0, 48, 80
2, 6125, Note_on_c, 0, 69, 80
2, 6127, Note_on_c, 0, 41, 0
2, 6127, Note_on_c, 0, 53, 0
2, 6165, Control_c, 0, 64, 127
2, 6192, Note_on_c, 0, 70, 80
2, 6194, Note_on_c, 0, 69, 0
2, 6263, Note_on_c, 0, 45, 80
2, 6263, Note_on_c, 0, 72, 80
2, 6264, Note_on_c, 0, 70, 0
2, 6264, Note_on_c, 0, 48, 0
2, 6330, Note_on_c, 0, 74, 80
2, 6332, Note_on_c, 0, 72, 0
2, 6397, Note_on_c, 0, 41, 80
2, 6397, Note_on_c, 0, 75, 80
2, 6399, Note_on_c, 0, 45, 0
2, 6401, Note_on_c, 0, 74, 0
2, 6422, Control_c, 0, 64, 0
2, 6464, Note_on_c, 0, 77, 80
2, 6469, Note_on_c, 0, 75, 0
2, 6529, Note_on_c, 0, 46, 80
2, 6531, Note_on_c, 0, 70, 80
2, 6531, Note_on_c, 0, 74, 80
2, 6531, Note_on_c, 0, 79, 80
2, 6533, Note_on_c, 0, 41, 0
2, 6535, Note_on_c, 0, 77, 0
2, 6561, Note_on_c, 0, 74, 0
2, 6561, Note_on_c, 0, 70, 0
2, 6561, Note_on_c, 0, 79, 0
2, 6568, Control_c, 0, 64, 127
2, 6599, Note_on_c, 0, 77, 80
2, 6622, Control_c, 0, 64, 0
2, 6662, Note_on_c, 0, 53, 80
2, 6664, Note_on_c, 0, 46, 0
2, 6664, Note_on_c, 0, 58, 80
2, 6664, Note_on_c, 0, 62, 80
2, 6704, Note_on_c, 0, 62, 0
2, 6704, Note_on_c, 0, 58, 0
2, 6704, Note_on_c, 0, 53, 0
2, 6730, Note_on_c, 0, 75, 80
2, 6732, Note_on_c, 0, 77, 0
2, 6795, Note_on_c, 0, 41, 80
2, 6795, Note_on_c, 0, 74, 80
2, 6800, Note_on_c, 0, 75, 0
2, 6864, Note_on_c, 0, 73, 80
2, 6865, Note_on_c, 0, 74, 0
2, 6926, Note_on_c, 0, 53, 80
2, 6926, Note_on_c, 0, 58, 80
2, 6928, Note_on_c, 0, 41, 0
2, 6928, Note_on_c, 0, 62, 80
2, 6928, Note_on_c, 0, 74, 80
2, 6933, Note_on_c, 0, 73, 0
2, 6968, Note_on_c, 0, 58, 0
2, 6968, Note_on_c, 0, 53, 0
2, 6970, Note_on_c, 0, 62, 0
2, 6993, Note_on_c, 0, 72, 80
2, 6995, Note_on_c, 0, 74, 0
2, 7058, Note_on_c, 0, 46, 80
2, 7058, Note_on_c, 0, 70, 80
2, 7063, Note_on_c, 0, 72, 0
2, 7084, Control_c, 0, 64, 127
2, 7128, Note_on_c, 0, 72, 80
2, 7130, Note_on_c, 0, 70, 0
2, 7182, Control_c, 0, 64, 0
2, 7197, Note_on_c, 0, 53, 80
2, 7197, Note_on_c, 0, 58, 80
2, 7197, Note_on_c, 0, 62, 80
2, 7197, Note_on_c, 0, 74, 80
2, 7199, Note_on_c, 0, 46, 0
2, 7200, Note_on_c, 0, 72, 0
2, 7226, Note_on_c, 0, 62, 0
2, 7226, Note_on_c, 0, 58, 0
2, 7226, Note_on_c, 0, 53, 0
2, 7267, Note_on_c, 0, 77, 80
2, 7269, Note_on_c, 0, 74, 0
2, 7329, Note_on_c, 0, 41, 80
2, 7399, Note_on_c, 0, 82, 80
2, 7401, Note_on_c, 0, 77, 0
2, 7466, Note_on_c, 0, 53, 80
2, 7466, Note_on_c, 0, 58, 80
2, 7468, Note_on_c, 0, 41, 0
2, 7468, Note_on_c, 0, 62, 80
2, 7468, Note_on_c, 0, 77, 80
2, 7468, Note_on_c, 0, 86, 80
2, 7473, Note_on_c, 0, 82, 0
2, 7499, Note_on_c, 0, 62, 0
2, 7499, Note_on_c, 0, 58, 0
2, 7499, Note_on_c, 0, 53, 0
2, 7527, Note_on_c, 0, 86, 0
2, 7527, Note_on_c, 0, 77, 0
2, 7607, Note_on_c, 0, 46, 80
2, 7607, Note_on_c, 0, 70, 80
2, 7607, Note_on_c, 0, 74, 80
2, 7607, Note_on_c, 0, 79, 80
2, 7618, Control_c, 0, 64, 127
2, 7672, Note_on_c, 0, 77, 80
2, 7677, Note_on_c, 0, 79, 0
2, 7677, Note_on_c, 0, 74, 0
2, 7677, Note_on_c, 0, 70, 0
2, 7712, Control_c, 0, 64, 0
2, 7740, Note_on_c, 0, 53, 80
2, 7740, Note_on_c, 0, 58, 80
2, 7742, Note_on_c, 0, 62, 80
2, 7744, Note_on_c, 0, 46, 0
2, 7767, Note_on_c, 0, 58, 0
2, 7767, Note_on_c, 0, 62, 0
2, 7767, Note_on_c, 0, 53, 0
2, 7804, Note_on_c, 0, 75, 80
2, 7809, Note_on_c, 0, 77, 0
2, 7872, Note_on_c, 0, 41, 80
2, 7874, Note_on_c, 0, 74, 80
2, 7879, Note_on_c, 0, 75, 0
2, 7940, Note_on_c, 0, 73, 80
2, 7942, Note_on_c, 0, 74, 0
2, 8002, Note_on_c, 0, 53, 80
2, 8002, Note_on_c, 0, 58, 80
2, 8002, Note_on_c, 0, 62, 80
2, 8002, Note_on_c, 0, 74, 80
2, 8004, Note_on_c, 0, 41, 0
2, 8006, Note_on_c, 0, 73, 0
2, 8029, Note_on_c, 0, 62, 0
2, 8029, Note_on_c, 0, 58, 0
2, 8029, Note_on_c, 0, 53, 0
2, 8064, Note_on_c, 0, 75, 80
2, 8069, Note_on_c, 0, 74, 0
2, 8128, Note_on_c, 0, 46, 80
2, 8130, Note_on_c, 0, 70, 80
2, 8130, Note_on_c, 0, 74, 80
2, 8130, Note_on_c, 0, 77, 80
2, 8132, Note_on_c, 0, 75, 0
2, 8226, Note_on_c, 0, 74, 0
2, 8226, Note_on_c, 0, 77, 0
2, 8226, Note_on_c, 0, 70, 0
2, 8258, Note_on_c, 0, 50, 80
2, 8258, Note_on_c, 0, 70, 80
2, 8258, Note_on_c, 0, 77, 80
2, 8263, Note_on_c, 0, 46, 0
2, 8284, Control_c, 0, 64, 127
2, 8325, Note_on_c, 0, 74, 80
2, 8329, Note_on_c, 0, 77, 0
2, 8329, Note_on_c, 0, 70, 0
2, 8393, Note_on_c, 0, 53, 80
2, 8393, Note_on_c, 0, 70, 80
2, 8393, Note_on_c, 0, 77, 80
2, 8395, Note_on_c, 0, 50, 0
2, 8395, Note_on_c, 0, 74, 0
2, 8458, Note_on_c, 0, 74, 80
2, 8460, Note_on_c, 0, 70, 0
2, 8460, Note_on_c, 0, 77, 0
2, 8523, Note_on_c, 0, 56, 80
2, 8523, Note_on_c, 0, 70, 80
2, 8523, Note_on_c, 0, 77, 80
2, 8525, Note_on_c, 0, 53, 0
2, 8525, Note_on_c, 0, 74, 0
2, 8535, Control_c, 0, 64, 0
2, 8624, Note_on_c, 0, 70, 0
2, 8660, Note_on_c, 0, 43, 80
2, 8662, Note_on_c, 0, 55, 80
2, 8662, Note_on_c, 0, 70, 80
2, 8664, Note_on_c, 0, 56, 0
2, 8664, Note_on_c, 0, 77, 0
2, 8687, Control_c, 0, 64, 127
2, 8734, Note_on_c, 0, 75, 80
2, 8734, Note_on_c, 0, 82, 80
2, 8736, Note_on_c, 0, 70, 0
2, 8745, Control_c, 0, 64, 0
2, 8764, Note_on_c, 0, 75, 0
2, 8764, Note_on_c, 0, 55, 0
2, 8764, Note_on_c, 0, 82, 0
2, 8802, Note_on_c, 0, 55, 80
2, 8802, Note_on_c, 0, 58, 80
2, 8802, Note_on_c, 0, 63, 80
2, 8804, Note_on_c, 0, 43, 0
2, 8834, Note_on_c, 0, 55, 0
2, 8834, Note_on_c, 0, 58, 0
2, 8834, Note_on_c, 0, 63, 0
2, 8872, Note_on_c, 0, 70, 80
2, 8940, Note_on_c, 0, 42, 80
2, 8942, Note_on_c, 0, 54, 80
2, 8942, Note_on_c, 0, 75, 80
2, 8942, Note_on_c, 0, 82, 80
2, 8947, Note_on_c, 0, 70, 0
2, 8973, Note_on_c, 0, 75, 0
2, 8973, Note_on_c, 0, 82, 0
2, 8982, Control_c, 0, 64, 127
2, 9039, Control_c, 0, 64, 0
2, 9041, Note_on_c, 0, 54, 0
2, 9076, Note_on_c, 0, 54, 80
2, 9076, Note_on_c, 0, 58, 80
2, 9076, Note_on_c, 0, 63, 80
2, 9076, Note_on_c, 0, 70, 80
2, 9078, Note_on_c, 0, 42, 0
2, 9106, Note_on_c, 0, 63, 0
2, 9106, Note_on_c, 0, 54, 0
2, 9106, Note_on_c, 0, 58, 0
2, 9144, Note_on_c, 0, 74, 80
2, 9144, Note_on_c, 0, 82, 80
2, 9148, Note_on_c, 0, 70, 0
2, 9209, Note_on_c, 0, 41, 80
2, 9211, Note_on_c, 0, 53, 80
2, 9222, Control_c, 0, 64, 127
2, 9276, Control_c, 0, 64, 0
2, 9278, Note_on_c, 0, 86, 80
2, 9280, Note_on_c, 0, 82, 0
2, 9280, Note_on_c, 0, 74, 0
2, 9306, Note_on_c, 0, 53, 0
2, 9343, Note_on_c, 0, 41, 0
2, 9343, Note_on_c, 0, 53, 80
2, 9343, Note_on_c, 0, 58, 80
2, 9343, Note_on_c, 0, 62, 80
2, 9343, Note_on_c, 0, 82, 80
2, 9345, Note_on_c, 0, 86, 0
2, 9373, Note_on_c, 0, 62, 0
2, 9373, Note_on_c, 0, 53, 0
2, 9373, Note_on_c, 0, 58, 0
2, 9410, Note_on_c, 0, 77, 80
2, 9415, Note_on_c, 0, 82, 0
2, 9474, Note_on_c, 0, 41, 80
2, 9476, Note_on_c, 0, 53, 80
2, 9478, Note_on_c, 0, 74, 80
2, 9480, Note_on_c, 0, 77, 0
2, 9499, Control_c, 0, 64, 127
2, 9543, Note_on_c, 0, 77, 80
2, 9548, Note_on_c, 0, 74, 0
2, 9557, Note_on_c, 0, 53, 0
2, 9598, Control_c, 0, 64, 0
2, 9612, Note_on_c, 0, 41, 0
2, 9612, Note_on_c, 0, 53, 80
2, 9612, Note_on_c, 0, 58, 80
2, 9612, Note_on_c, 0, 62, 80
2, 9612, Note_on_c, 0, 79, 80
2, 9617, Note_on_c, 0, 77, 0
2, 9640, Note_on_c, 0, 62, 0
2, 9640, Note_on_c, 0, 53, 0
2, 9640, Note_on_c, 0, 58, 0
2, 9680, Note_on_c, 0, 82, 80
2, 9685, Note_on_c, 0, 79, 0
2, 9745, Note_on_c, 0, 43, 80
2, 9745, Note_on_c, 0, 55, 80
2, 9745, Note_on_c, 0, 64, 80
2, 9745, Note_on_c, 0, 70, 80
2, 9750, Note_on_c, 0, 82, 0
2, 9781, Control_c, 0, 64, 127
2, 9840, Control_c, 0, 64, 0
2, 9877, Note_on_c, 0, 42, 80
2, 9879, Note_on_c, 0, 54, 80
2, 9879, Note_on_c, 0, 63, 80
2, 9881, Note_on_c, 0, 43, 0
2, 9881, Note_on_c, 0, 55, 0
2, 9883, Note_on_c, 0, 70, 0
2, 9883, Note_on_c, 0, 64, 0
2, 9962, Note_on_c, 0, 63, 0
2, 9984, Control_c, 0, 64, 127
2, 10014, Note_on_c, 0, 41, 80
2, 10014, Note_on_c, 0, 53, 80
2, 10014, Note_on_c, 0, 63, 80
2, 10014, Note_on_c, 0, 69, 80
2, 10014, Note_on_c, 0, 72, 80
2, 10019, Note_on_c, 0, 54, 0
2, 10019, Note_on_c, 0, 42, 0
2, 10082, Note_on_c, 0, 74, 80
2, 10084, Note_on_c, 0, 72, 0
2, 10136, Note_on_c, 0, 69, 0
2, 10136, Note_on_c, 0, 63, 0
2, 10200, Control_c, 0, 64, 0
2, 10214, Note_on_c, 0, 62, 80
2, 10214, Note_on_c, 0, 70, 80
2, 10216, Note_on_c, 0, 53, 0
2, 10216, Note_on_c, 0, 41, 0
2, 10216, Note_on_c, 0, 74, 0
2, 10279, Note_on_c, 0, 46, 80
2, 10281, Note_on_c, 0, 58, 80
2, 10366, Note_on_c, 0, 70, 0
2, 10417, Note_on_c, 0, 70, 80
2, 10419, Note_on_c, 0, 62, 0
2, 10429, Control_c, 0, 64, 127
2, 10460, Note_on_c, 0, 46, 0
2, 10462, Note_on_c, 0, 58, 0
2, 10483, Note_on_c, 0, 72, 80
2, 10488, Note_on_c, 0, 70, 0
2, 10551, Note_on_c, 0, 74, 80
2, 10553, Note_on_c, 0, 72, 0
2, 10618, Note_on_c, 0, 75, 80
2, 10620, Note_on_c, 0, 74, 0
2, 10641, Control_c, 0, 64, 0
2, 10648, Note_on_c, 0, 75, 0
2, 10683, Note_on_c, 0, 41, 80
2, 10685, Note_on_c, 0, 53, 80
2, 10685, Note_on_c, 0, 69, 80
2, 10685, Note_on_c, 0, 75, 80
2, 10685, Note_on_c, 0, 77, 80
2, 10817, Note_on_c, 0, 46, 80
2, 10817, Note_on_c, 0, 70, 80
2, 10817, Note_on_c, 0, 74, 80
2, 10819, Note_on_c, 0, 53, 0
2, 10819, Note_on_c, 0, 41, 0
2, 10819, Note_on_c, 0, 79, 80
2, 10821, Note_on_c, 0, 75, 0
2, 10821, Note_on_c, 0, 77, 0
2, 10821, Note_on_c, 0, 69, 0
2, 10825, Control_c, 0, 64, 127
2, 10882, Note_on_c, 0, 77, 80
2, 10884, Note_on_c, 0, 70, 0
2, 10884, Note_on_c, 0, 74, 0
2, 10886, Note_on_c, 0, 79, 0
2, 10919, Control_c, 0, 64, 0
2, 10946, Note_on_c, 0, 46, 0
2, 10946, Note_on_c, 0, 53, 80
2, 10946, Note_on_c, 0, 58, 80
2, 10946, Note_on_c, 0, 62, 80
2, 10972, Note_on_c, 0, 62, 0
2, 10972, Note_on_c, 0, 58, 0
2, 10972, Note_on_c, 0, 53, 0
2, 11013, Note_on_c, 0, 75, 80
2, 11017, Note_on_c, 0, 77, 0
2, 11078, Note_on_c, 0, 41, 80
2, 11080, Note_on_c, 0, 74, 80
2, 11085, Note_on_c, 0, 75, 0
2, 11148, Note_on_c, 0, 73, 80
2, 11150, Note_on_c, 0, 74, 0
2, 11210, Note_on_c, 0, 53, 80
2, 11210, Note_on_c, 0, 58, 80
2, 11210, Note_on_c, 0, 62, 80
2, 11210, Note_on_c, 0, 74, 80
2, 11212, Note_on_c, 0, 73, 0
2, 11212, Note_on_c, 0, 41, 0
2, 11238, Note_on_c, 0, 62, 0
2, 11238, Note_on_c, 0, 58, 0
2, 11238, Note_on_c, 0, 53, 0
2, 11276, Note_on_c, 0, 72, 80
2, 11280, Note_on_c, 0, 74, 0
2, 11344, Note_on_c, 0, 46, 80
2, 11344, Note_on_c, 0, 70, 80
2, 11346, Note_on_c, 0, 72, 0
2, 11381, Control_c, 0, 64, 127
2, 11412, Note_on_c, 0, 72, 80
2, 11414, Note_on_c, 0, 70, 0
2, 11437, Control_c, 0, 64, 0
2, 11477, Note_on_c, 0, 53, 80
2, 11477, Note_on_c, 0, 58, 80
2, 11477, Note_on_c, 0, 62, 80
2, 11477, Note_on_c, 0, 74, 80
2, 11479, Note_on_c, 0, 46, 0
2, 11481, Note_on_c, 0, 72, 0
2, 11507, Note_on_c, 0, 62, 0
2, 11507, Note_on_c, 0, 58, 0
2, 11507, Note_on_c, 0, 53, 0
2, 11547, Note_on_c, 0, 77, 80
2, 11549, Note_on_c, 0, 74, 0
2, 11615, Note_on_c, 0, 41, 80
2, 11685, Note_on_c, 0, 82, 80
2, 11689, Note_on_c, 0, 77, 0
2, 11755, Note_on_c, 0, 53, 80
2, 11755, Note_on_c, 0, 58, 80
2, 11755, Note_on_c, 0, 62, 80
2, 11755, Note_on_c, 0, 77, 80
2, 11757, Note_on_c, 0, 41, 0
2, 11757, Note_on_c, 0, 86, 80
2, 11759, Note_on_c, 0, 82, 0
2, 11784, Note_on_c, 0, 58, 0
2, 11784, Note_on_c, 0, 62, 0
2, 11784, Note_on_c, 0, 53, 0
2, 11812, Note_on_c, 0, 86, 0
2, 11814, Note_on_c, 0, 77, 0
2, 11892, Note_on_c, 0, 46, 80
2, 11892, Note_on_c, 0, 74, 80
2, 11894, Note_on_c, 0, 70, 80
2, 11894, Note_on_c, 0, 79, 80
2, 11915, Control_c, 0, 64, 127
2, 11959, Note_on_c, 0, 77, 80
2, 11964, Note_on_c, 0, 79, 0
2, 11964, Note_on_c, 0, 70, 0
2, 11964, Note_on_c, 0, 74, 0
2, 12013, Control_c, 0, 64, 0
2, 12024, Note_on_c, 0, 53, 80
2, 12024, Note_on_c, 0, 58, 80
2, 12024, Note_on_c, 0, 62, 80
2, 12026, Note_on_c, 0, 46, 0
2, 12054, Note_on_c, 0, 58, 0
2, 12054, Note_on_c, 0, 62, 0
2, 12054, Note_on_c, 0, 53, 0
2, 12092, Note_on_c, 0, 75, 80
2, 12096, Note_on_c, 0, 77, 0
2, 12157, Note_on_c, 0, 41, 80
2, 12159, Note_on_c, 0, 74, 80
2, 12161, Note_on_c, 0, 75, 0
2, 12221, Note_on_c, 0, 73, 80
2, 12226, Note_on_c, 0, 74, 0
2, 12275, Note_on_c, 0, 53, 80
2, 12275, Note_on_c, 0, 58, 80
2, 12275, Note_on_c, 0, 62, 80
2, 12275, Note_on_c, 0, 74, 80
2, 12285, Note_on_c, 0, 73, 0
2, 12296, Note_on_c, 0, 41, 0
2, 12317, Note_on_c, 0, 53, 0
2, 12319, Note_on_c, 0, 58, 0
2, 12319, Note_on_c, 0, 62, 0
2, 12357, Note_on_c, 0, 75, 80
2, 12359, Note_on_c, 0, 74, 0
2, 12422, Note_on_c, 0, 46, 80
2, 12424, Note_on_c, 0, 70, 80
2, 12424, Note_on_c, 0, 74, 80
2, 12424, Note_on_c, 0, 77, 80
2, 12426, Note_on_c, 0, 75, 0
2, 12507, Note_on_c, 0, 70, 0
2, 12509, Note_on_c, 0, 77, 0
2, 12516, Control_c, 0, 64, 127
2, 12530, Control_c, 0, 64, 0
2, 12556, Note_on_c, 0, 50, 80
2, 12558, Note_on_c, 0, 70, 80
2, 12558, Note_on_c, 0, 77, 80
2, 12560, Note_on_c, 0, 74, 0
2, 12560, Note_on_c, 0, 46, 0
2, 12624, Note_on_c, 0, 74, 80
2, 12628, Note_on_c, 0, 70, 0
2, 12630, Note_on_c, 0, 77, 0
2, 12635, Control_c, 0, 64, 127
2, 12692, Note_on_c, 0, 53, 80
2, 12692, Note_on_c, 0, 70, 80
2, 12692, Note_on_c, 0, 77, 80
2, 12694, Note_on_c, 0, 50, 0
2, 12694, Note_on_c, 0, 74, 0
2, 12759, Note_on_c, 0, 74, 80
2, 12764, Note_on_c, 0, 70, 0
2, 12766, Note_on_c, 0, 77, 0
2, 12826, Note_on_c, 0, 56, 80
2, 12826, Note_on_c, 0, 70, 80
2, 12826, Note_on_c, 0, 77, 80
2, 12828, Note_on_c, 0, 53, 0
2, 12830, Note_on_c, 0, 74, 0
2, 12853, Control_c, 0, 64, 0
2, 12923, Note_on_c, 0, 70, 0
2, 12960, Note_on_c, 0, 43, 80
2, 12960, Note_on_c, 0, 55, 80
2, 12960, Note_on_c, 0, 70, 80
2, 12965, Note_on_c, 0, 56, 0
2, 12965, Note_on_c, 0, 77, 0
2, 12998, Control_c, 0, 64, 127
2, 13029, Note_on_c, 0, 75, 80
2, 13029, Note_on_c, 0, 82, 80
2, 13031, Note_on_c, 0, 70, 0
2, 13054, Note_on_c, 0, 55, 0
2, 13056, Note_on_c, 0, 75, 0
2, 13056, Note_on_c, 0, 82, 0
2, 13079, Note_on_c, 0, 43, 0
2, 13090, Control_c, 0, 64, 0
2, 13090, Note_on_c, 0, 55, 80
2, 13090, Note_on_c, 0, 58, 80
2, 13090, Note_on_c, 0, 63, 80
2, 13118, Note_on_c, 0, 63, 0
2, 13118, Note_on_c, 0, 58, 0
2, 13118, Note_on_c, 0, 55, 0
2, 13155, Note_on_c, 0, 70, 80
2, 13224, Note_on_c, 0, 42, 80
2, 13225, Note_on_c, 0, 54, 80
2, 13225, Note_on_c, 0, 75, 80
2, 13225, Note_on_c, 0, 82, 80
2, 13227, Note_on_c, 0, 70, 0
2, 13255, Note_on_c, 0, 75, 0
2, 13255, Note_on_c, 0, 82, 0
2, 13319, Note_on_c, 0, 54, 0
2, 13354, Note_on_c, 0, 54, 80
2, 13354, Note_on_c, 0, 58, 80
2, 13356, Note_on_c, 0, 63, 80
2, 13356, Note_on_c, 0, 70, 80
2, 13358, Note_on_c, 0, 42, 0
2, 13384, Note_on_c, 0, 54, 0
2, 13384, Note_on_c, 0, 58, 0
2, 13386, Note_on_c, 0, 63, 0
2, 13386, Note_on_c, 0, 70, 0
2, 13421, Note_on_c, 0, 74, 80
2, 13423, Note_on_c, 0, 82, 80
2, 13451, Note_on_c, 0, 82, 0
2, 13451, Note_on_c, 0, 74, 0
2, 13488, Note_on_c, 0, 41, 80
2, 13488, Note_on_c, 0, 53, 80
2, 13512, Control_c, 0, 64, 127
2, 13554, Note_on_c, 0, 86, 80
2, 13584, Note_on_c, 0, 53, 0
2, 13608, Control_c, 0, 64, 0
2, 13619, Note_on_c, 0, 53, 80
2, 13619, Note_on_c, 0, 58, 80
2, 13619, Note_on_c, 0, 62, 80
2, 13619, Note_on_c, 0, 82, 80
2, 13621, Note_on_c, 0, 41, 0
2, 13623, Note_on_c, 0, 86, 0
2, 13649, Note_on_c, 0, 62, 0
2, 13649, Note_on_c, 0, 58, 0
2, 13649, Note_on_c, 0, 53, 0
2, 13684, Note_on_c, 0, 74, 80
2, 13689, Note_on_c, 0, 82, 0
2, 13752, Note_on_c, 0, 38, 80
2, 13752, Note_on_c, 0, 50, 80
2, 13752, Note_on_c, 0, 70, 80
2, 13752, Note_on_c, 0, 77, 80
2, 13757, Note_on_c, 0, 74, 0
2, 13790, Control_c, 0, 64, 127
2, 13818, Note_on_c, 0, 76, 80
2, 13820, Note_on_c, 0, 70, 0
2, 13820, Note_on_c, 0, 77, 0
2, 13843, Control_c, 0, 64, 0
2, 13883, Note_on_c, 0, 37, 80
2, 13883, Note_on_c, 0, 49, 80
2, 13883, Note_on_c, 0, 77, 80
2, 13885, Note_on_c, 0, 38, 0
2, 13885, Note_on_c, 0, 50, 0
2, 13887, Note_on_c, 0, 76, 0
2, 13950, Note_on_c, 0, 79, 80
2, 13952, Note_on_c, 0, 77, 0
2, 14016, Note_on_c, 0, 36, 80
2, 14016, Note_on_c, 0, 48, 80
2, 14016, Note_on_c, 0, 81, 80
2, 14017, Note_on_c, 0, 49, 0
2, 14017, Note_on_c, 0, 79, 0
2, 14017, Note_on_c, 0, 37, 0
2, 14027, Control_c, 0, 64, 127
2, 14081, Note_on_c, 0, 72, 80
2, 14081, Note_on_c, 0, 77, 80
2, 14083, Note_on_c, 0, 81, 0
2, 14118, Control_c, 0, 64, 0
2, 14146, Note_on_c, 0, 57, 80
2, 14146, Note_on_c, 0, 60, 80
2, 14146, Note_on_c, 0, 65, 80
2, 14148, Note_on_c, 0, 72, 0
2, 14148, Note_on_c, 0, 36, 0
2, 14148, Note_on_c, 0, 48, 0
2, 14150, Note_on_c, 0, 77, 0
2, 14176, Note_on_c, 0, 65, 0
2, 14176, Note_on_c, 0, 60, 0
2, 14176, Note_on_c, 0, 57, 0
2, 14216, Note_on_c, 0, 81, 80
2, 14284, Note_on_c, 0, 36, 80
2, 14284, Note_on_c, 0, 48, 80
2, 14284, Note_on_c, 0, 70, 80
2, 14284, Note_on_c, 0, 76, 80
2, 14284, Note_on_c, 0, 79, 80
2, 14289, Note_on_c, 0, 81, 0
2, 14329, Note_on_c, 0, 76, 0
2, 14329, Note_on_c, 0, 70, 0
2, 14329, Note_on_c, 0, 79, 0
2, 14421, Note_on_c, 0, 58, 80
2, 14421, Note_on_c, 0, 60, 80
2, 14421, Note_on_c, 0, 64, 80
2, 14421, Note_on_c, 0, 70, 80
2, 14421, Note_on_c, 0, 76, 80
2, 14421, Note_on_c, 0, 81, 80
2, 14425, Note_on_c, 0, 36, 0
2, 14425, Note_on_c, 0, 48, 0
2, 14451, Note_on_c, 0, 64, 0
2, 14451, Note_on_c, 0, 58, 0
2, 14453, Note_on_c, 0, 60, 0
2, 14489, Note_on_c, 0, 69, 80
2, 14491, Note_on_c, 0, 77, 80
2, 14493, Note_on_c, 0, 76, 0
2, 14493, Note_on_c, 0, 81, 0
2, 14493, Note_on_c, 0, 70, 0
2, 14553, Control_c, 0, 64, 127
2, 14553, Note_on_c, 0, 41, 80
2, 14553, Note_on_c, 0, 53, 80
2, 14649, Control_c, 0, 64, 0
2, 14654, Note_on_c, 0, 69, 0
2, 14654, Note_on_c, 0, 77, 0
2, 14694, Note_on_c, 0, 48, 80
2, 14694, Note_on_c, 0, 69, 80
2, 14696, Note_on_c, 0, 41, 0
2, 14696, Note_on_c, 0, 53, 0
2, 14760, Control_c, 0, 64, 127
2, 14760, Note_on_c, 0, 70, 80
2, 14761, Note_on_c, 0, 69, 0
2, 14825, Note_on_c, 0, 45, 80
2, 14827, Note_on_c, 0, 72, 80
2, 14829, Note_on_c, 0, 70, 0
2, 14843, Note_on_c, 0, 48, 0
2, 14892, Note_on_c, 0, 74, 80
2, 14894, Note_on_c, 0, 72, 0
2, 14959, Note_on_c, 0, 41, 80
2, 14961, Note_on_c, 0, 75, 80
2, 14963, Note_on_c, 0, 74, 0
2, 14963, Note_on_c, 0, 45, 0
2, 14975, Control_c, 0, 64, 0
2, 15026, Note_on_c, 0, 77, 80
2, 15031, Note_on_c, 0, 75, 0
2, 15095, Note_on_c, 0, 46, 80
2, 15095, Note_on_c, 0, 70, 80
2, 15095, Note_on_c, 0, 74, 80
2, 15096, Note_on_c, 0, 41, 0
2, 15096, Note_on_c, 0, 79, 80
2, 15098, Note_on_c, 0, 77, 0
2, 15120, Control_c, 0, 64, 127
2, 15162, Note_on_c, 0, 77, 80
2, 15164, Note_on_c, 0, 74, 0
2, 15164, Note_on_c, 0, 79, 0
2, 15164, Note_on_c, 0, 70, 0
2, 15216, Control_c, 0, 64, 0
2, 15230, Note_on_c, 0, 53, 80
2, 15230, Note_on_c, 0, 58, 80
2, 15230, Note_on_c, 0, 62, 80
2, 15232, Note_on_c, 0, 46, 0
2, 15272, Note_on_c, 0, 58, 0
2, 15272, Note_on_c, 0, 62, 0
2, 15272, Note_on_c, 0, 53, 0
2, 15295, Note_on_c, 0, 75, 80
2, 15300, Note_on_c, 0, 77, 0
2, 15365, Note_on_c, 0, 41, 80
2, 15365, Note_on_c, 0, 74, 80
2, 15367, Note_on_c, 0, 75, 0
2, 15432, Note_on_c, 0, 73, 80
2, 15437, Note_on_c, 0, 74, 0
2, 15505, Note_on_c, 0, 53, 80
2, 15505, Note_on_c, 0, 58, 80
2, 15505, Note_on_c, 0, 62, 80
2, 15505, Note_on_c, 0, 74, 80
2, 15507, Note_on_c, 0, 73, 0
2, 15507, Note_on_c, 0, 41, 0
2, 15548, Note_on_c, 0, 62, 0
2, 15548, Note_on_c, 0, 58, 0
2, 15548, Note_on_c, 0, 53, 0
2, 15567, Note_on_c, 0, 72, 80
2, 15583, Note_on_c, 0, 74, 0
2, 15640, Note_on_c, 0, 72, 0
2, 15651, Note_on_c, 0, 46, 80
2, 15651, Note_on_c, 0, 70, 80
2, 15663, Control_c, 0, 64, 127
2, 15677, Control_c, 0, 64, 0
2, 15705, Note_on_c, 0, 72, 80
2, 15707, Note_on_c, 0, 70, 0
2, 15730, Control_c, 0, 64, 127
2, 15744, Control_c, 0, 64, 0
2, 15772, Note_on_c, 0, 53, 80
2, 15772, Note_on_c, 0, 58, 80
2, 15772, Note_on_c, 0, 62, 80
2, 15772, Note_on_c, 0, 74, 80
2, 15774, Note_on_c, 0, 72, 0
2, 15774, Note_on_c, 0, 46, 0
2, 15800, Note_on_c, 0, 62, 0
2, 15800, Note_on_c, 0, 58, 0
2, 15800, Note_on_c, 0, 53, 0
2, 15838, Note_on_c, 0, 77, 80
2, 15840, Note_on_c, 0, 74, 0
2, 15905, Note_on_c, 0, 41, 80
2, 15970, Note_on_c, 0, 82, 80
2, 15975, Note_on_c, 0, 77, 0
2, 16035, Note_on_c, 0, 53, 80
2, 16035, Note_on_c, 0, 58, 80
2, 16037, Note_on_c, 0, 41, 0
2, 16037, Note_on_c, 0, 62, 80
2, 16037, Note_on_c, 0, 77, 80
2, 16037, Note_on_c, 0, 86, 80
2, 16039, Note_on_c, 0, 82, 0
2, 16065, Note_on_c, 0, 62, 0
2, 16065, Note_on_c, 0, 58, 0
2, 16065, Note_on_c, 0, 53, 0
2, 16093, Note_on_c, 0, 86, 0
2, 16093, Note_on_c, 0, 77, 0
2, 16168, Note_on_c, 0, 46, 80
2, 16168, Note_on_c, 0, 70, 80
2, 16168, Note_on_c, 0, 74, 80
2, 16168, Note_on_c, 0, 79, 80
2, 16208, Control_c, 0, 64, 127
2, 16234, Note_on_c, 0, 77, 80
2, 16236, Note_on_c, 0, 79, 0
2, 16236, Note_on_c, 0, 74, 0
2, 16236, Note_on_c, 0, 70, 0
2, 16259, Control_c, 0, 64, 0
2, 16299, Note_on_c, 0, 53, 80
2, 16299, Note_on_c, 0, 58, 80
2, 16299, Note_on_c, 0, 62, 80
2, 16301, Note_on_c, 0, 46, 0
2, 16329, Note_on_c, 0, 58, 0
2, 16329, Note_on_c, 0, 62, 0
2, 16329, Note_on_c, 0, 53, 0
2, 16367, Note_on_c, 0, 75, 80
2, 16368, Note_on_c, 0, 77, 0
2, 16432, Note_on_c, 0, 41, 80
2, 16432, Note_on_c, 0, 74, 80
2, 16437, Note_on_c, 0, 75, 0
2, 16502, Note_on_c, 0, 73, 80
2, 16504, Note_on_c, 0, 74, 0
2, 16567, Note_on_c, 0, 53, 80
2, 16567, Note_on_c, 0, 58, 80
2, 16567, Note_on_c, 0, 62, 80
2, 16567, Note_on_c, 0, 74, 80
2, 16569, Note_on_c, 0, 41, 0
2, 16571, Note_on_c, 0, 73, 0
2, 16597, Note_on_c, 0, 58, 0
2, 16599, Note_on_c, 0, 62, 0
2, 16599, Note_on_c, 0, 53, 0
2, 16636, Note_on_c, 0, 75, 80
2, 16638, Note_on_c, 0, 74, 0
2, 16704, Note_on_c, 0, 46, 80
2, 16704, Note_on_c, 0, 74, 80
2, 16705, Note_on_c, 0, 70, 80
2, 16705, Note_on_c, 0, 77, 80
2, 16707, Note_on_c, 0, 75, 0
2, 16799, Note_on_c, 0, 70, 0
2, 16799, Note_on_c, 0, 74, 0
2, 16800, Note_on_c, 0, 77, 0
2, 16838, Note_on_c, 0, 50, 80
2, 16838, Note_on_c, 0, 70, 80
2, 16838, Note_on_c, 0, 77, 80
2, 16840, Note_on_c, 0, 46, 0
2, 16849, Control_c, 0, 64, 127
2, 16903, Note_on_c, 0, 74, 80
2, 16908, Note_on_c, 0, 77, 0
2, 16908, Note_on_c, 0, 70, 0
2, 16968, Note_on_c, 0, 53, 80
2, 16968, Note_on_c, 0, 70, 80
2, 16968, Note_on_c, 0, 77, 80
2, 16970, Note_on_c, 0, 50, 0
2, 16970, Note_on_c, 0, 74, 0
2, 17036, Note_on_c, 0, 74, 80
2, 17038, Note_on_c, 0, 70, 0
2, 17038, Note_on_c, 0, 77, 0
2, 17103, Note_on_c, 0, 56, 80
2, 17103, Note_on_c, 0, 70, 80
2, 17103, Note_on_c, 0, 77, 80
2, 17105, Note_on_c, 0, 53, 0
2, 17105, Note_on_c, 0, 74, 0
2, 17142, Control_c, 0, 64, 0
2, 17201, Note_on_c, 0, 70, 0
2, 17238, Note_on_c, 0, 43, 80
2, 17238, Note_on_c, 0, 55, 80
2, 17238, Note_on_c, 0, 70, 80
2, 17240, Note_on_c, 0, 56, 0
2, 17240, Note_on_c, 0, 77, 0
2, 17289, Control_c, 0, 64, 127
2, 17304, Note_on_c, 0, 75, 80
2, 17304, Note_on_c, 0, 82, 80
2, 17305, Note_on_c, 0, 70, 0
2, 17331, Note_on_c, 0, 55, 0
2, 17333, Note_on_c, 0, 75, 0
2, 17333, Note_on_c, 0, 82, 0
2, 17343, Control_c, 0, 64, 0
2, 17371, Note_on_c, 0, 55, 80
2, 17371, Note_on_c, 0, 58, 80
2, 17371, Note_on_c, 0, 63, 80
2, 17373, Note_on_c, 0, 43, 0
2, 17399, Note_on_c, 0, 55, 0
2, 17399, Note_on_c, 0, 58, 0
2, 17399, Note_on_c, 0, 63, 0
2, 17436, Note_on_c, 0, 70, 80
2, 17504, Note_on_c, 0, 42, 80
2, 17504, Note_on_c, 0, 54, 80
2, 17504, Note_on_c, 0, 75, 80
2, 17504, Note_on_c, 0, 82, 80
2, 17509, Note_on_c, 0, 70, 0
2, 17532, Control_c, 0, 64, 127
2, 17537, Note_on_c, 0, 75, 0
2, 17537, Note_on_c, 0, 82, 0
2, 17602, Note_on_c, 0, 54, 0
2, 17628, Control_c, 0, 64, 0
2, 17642, Note_on_c, 0, 54, 80
2, 17642, Note_on_c, 0, 58, 80
2, 17642, Note_on_c, 0, 63, 80
2, 17642, Note_on_c, 0, 70, 80
2, 17644, Note_on_c, 0, 42, 0
2, 17670, Note_on_c, 0, 63, 0
2, 17670, Note_on_c, 0, 54, 0
2, 17670, Note_on_c, 0, 58, 0
2, 17711, Note_on_c, 0, 74, 80
2, 17711, Note_on_c, 0, 82, 80
2, 17715, Note_on_c, 0, 70, 0
2, 17776, Note_on_c, 0, 41, 80
2, 17776, Note_on_c, 0, 53, 80
2, 17849, Note_on_c, 0, 86, 80
2, 17854, Note_on_c, 0, 82, 0
2, 17854, Note_on_c, 0, 74, 0
2, 17877, Note_on_c, 0, 53, 0
2, 17917, Note_on_c, 0, 53, 80
2, 17917, Note_on_c, 0, 58, 80
2, 17917, Note_on_c, 0, 62, 80
2, 17917, Note_on_c, 0, 82, 80
2, 17919, Note_on_c, 0, 41, 0
2, 17921, Note_on_c, 0, 86, 0
2, 17947, Note_on_c, 0, 62, 0
2, 17947, Note_on_c, 0, 58, 0
2, 17947, Note_on_c, 0, 53, 0
2, 17984, Note_on_c, 0, 77, 80
2, 17989, Note_on_c, 0, 82, 0
2, 18054, Note_on_c, 0, 41, 80
2, 18054, Note_on_c, 0, 53, 80
2, 18054, Note_on_c, 0, 74, 80
2, 18059, Note_on_c, 0, 77, 0
2, 18103, Control_c, 0, 64, 127
2, 18120, Note_on_c, 0, 77, 80
2, 18121, Note_on_c, 0, 74, 0
2, 18147, Note_on_c, 0, 53, 0
2, 18162, Control_c, 0, 64, 0
2, 18188, Note_on_c, 0, 53, 80
2, 18188, Note_on_c, 0, 58, 80
2, 18188, Note_on_c, 0, 62, 80
2, 18190, Note_on_c, 0, 41, 0
2, 18190, Note_on_c, 0, 79, 80
2, 18192, Note_on_c, 0, 77, 0
2, 18217, Note_on_c, 0, 53, 0
2, 18219, Note_on_c, 0, 58, 0
2, 18219, Note_on_c, 0, 62, 0
2, 18257, Note_on_c, 0, 82, 80
2, 18259, Note_on_c, 0, 79, 0
2, 18322, Note_on_c, 0, 43, 80
2, 18322, Note_on_c, 0, 55, 80
2, 18322, Note_on_c, 0, 64, 80
2, 18322, Note_on_c, 0, 70, 80
2, 18327, Note_on_c, 0, 82, 0
2, 18451, Note_on_c, 0, 42, 80
2, 18451, Note_on_c, 0, 54, 80
2, 18451, Note_on_c, 0, 63, 80
2, 18453, Note_on_c, 0, 43, 0
2, 18453, Note_on_c, 0, 55, 0
2, 18455, Note_on_c, 0, 70, 0
2, 18455, Note_on_c, 0, 64, 0
2, 18532, Note_on_c, 0, 63, 0
2, 18579, Note_on_c, 0, 41, 80
2, 18581, Note_on_c, 0, 53, 80
2, 18581, Note_on_c, 0, 63, 80
2, 18581, Note_on_c, 0, 69, 80
2, 18581, Note_on_c, 0, 72, 80
2, 18583, Note_on_c, 0, 42, 0
2, 18585, Note_on_c, 0, 54, 0
2, 18648, Note_on_c, 0, 74, 80
2, 18650, Note_on_c, 0, 72, 0
2, 18779, Note_on_c, 0, 62, 80
2, 18779, Note_on_c, 0, 70, 80
2, 18781, Note_on_c, 0, 69, 0
2, 18781, Note_on_c, 0, 63, 0
2, 18781, Note_on_c, 0, 74, 0
2, 18841, Note_on_c, 0, 46, 80
2, 18843, Note_on_c, 0, 41, 0
2, 18843, Note_on_c, 0, 58, 80
2, 18845, Note_on_c, 0, 53, 0
2, 18894, Control_c, 0, 64, 127
2, 18976, Note_on_c, 0, 65, 80
2, 18978, Note_on_c, 0, 70, 0
2, 18978, Note_on_c, 0, 62, 0
2, 19004, Note_on_c, 0, 46, 0
2, 19004, Note_on_c, 0, 58, 0
2, 19044, Note_on_c, 0, 64, 80
2, 19049, Note_on_c, 0, 65, 0
2, 19112, Note_on_c, 0, 65, 80
2, 19117, Note_on_c, 0, 64, 0
2, 19180, Note_on_c, 0, 66, 80
2, 19182, Note_on_c, 0, 65, 0
2, 19234, Control_c, 0, 64, 0
2, 19248, Note_on_c, 0, 47, 80
2, 19248, Note_on_c, 0, 59, 80
2, 19248, Note_on_c, 0, 67, 80
2, 19253, Note_on_c, 0, 66, 0
2, 19319, Note_on_c, 0, 68, 80
2, 19320, Note_on_c, 0, 67, 0
2, 19386, Note_on_c, 0, 48, 80
2, 19386, Note_on_c, 0, 60, 80
2, 19386, Note_on_c, 0, 69, 80
2, 19388, Note_on_c, 0, 47, 0
2, 19388, Note_on_c, 0, 68, 0
2, 19388, Note_on_c, 0, 59, 0
2, 19425, Control_c, 0, 64, 127
2, 19451, Note_on_c, 0, 72, 80
2, 19451, Note_on_c, 0, 75, 80
2, 19451, Note_on_c, 0, 81, 80
2, 19456, Note_on_c, 0, 69, 0
2, 19479, Control_c, 0, 64, 0
2, 19481, Note_on_c, 0, 75, 0
2, 19481, Note_on_c, 0, 72, 0
2, 19481, Note_on_c, 0, 81, 0
2, 19516, Note_on_c, 0, 53, 80
2, 19516, Note_on_c, 0, 57, 80
2, 19516, Note_on_c, 0, 63, 80
2, 19521, Note_on_c, 0, 48, 0
2, 19521, Note_on_c, 0, 60, 0
2, 19580, Note_on_c, 0, 67, 80
2, 19584, Note_on_c, 0, 57, 0
2, 19584, Note_on_c, 0, 63, 0
2, 19610, Note_on_c, 0, 53, 0
2, 19646, Note_on_c, 0, 41, 80
2, 19648, Note_on_c, 0, 53, 80
2, 19648, Note_on_c, 0, 72, 80
2, 19648, Note_on_c, 0, 75, 80
2, 19648, Note_on_c, 0, 79, 80
2, 19650, Note_on_c, 0, 67, 0
2, 19678, Note_on_c, 0, 75, 0
2, 19678, Note_on_c, 0, 72, 0
2, 19678, Note_on_c, 0, 79, 0
2, 19743, Note_on_c, 0, 53, 0
2, 19778, Note_on_c, 0, 53, 80
2, 19778, Note_on_c, 0, 57, 80
2, 19778, Note_on_c, 0, 63, 80
2, 19778, Note_on_c, 0, 69, 80
2, 19780, Note_on_c, 0, 41, 0
2, 19806, Note_on_c, 0, 63, 0
2, 19806, Note_on_c, 0, 53, 0
2, 19806, Note_on_c, 0, 57, 0
2, 19816, Control_c, 0, 64, 127
2, 19842, Note_on_c, 0, 72, 80
2, 19842, Note_on_c, 0, 75, 80
2, 19842, Note_on_c, 0, 81, 80
2, 19847, Note_on_c, 0, 69, 0
2, 19870, Control_c, 0, 64, 0
2, 19872, Note_on_c, 0, 72, 0
2, 19872, Note_on_c, 0, 75, 0
2, 19872, Note_on_c, 0, 81, 0
2, 19904, Note_on_c, 0, 48, 80
2, 19906, Note_on_c, 0, 60, 80
2, 19976, Note_on_c, 0, 67, 80
2, 20041, Note_on_c, 0, 53, 80
2, 20041, Note_on_c, 0, 57, 80
2, 20041, Note_on_c, 0, 63, 80
2, 20041, Note_on_c, 0, 72, 80
2, 20041, Note_on_c, 0, 75, 80
2, 20041, Note_on_c, 0, 79, 80
2, 20043, Note_on_c, 0, 48, 0
2, 20045, Note_on_c, 0, 60, 0
2, 20045, Note_on_c, 0, 67, 0
2, 20068, Note_on_c, 0, 72, 0
2, 20068, Note_on_c, 0, 53, 0
2, 20068, Note_on_c, 0, 57, 0
2, 20068, Note_on_c, 0, 63, 0
2, 20070, Note_on_c, 0, 79, 0
2, 20070, Note_on_c, 0, 75, 0
2, 20173, Note_on_c, 0, 41, 80
2, 20175, Note_on_c, 0, 53, 80
2, 20175, Note_on_c, 0, 72, 80
2, 20175, Note_on_c, 0, 75, 80
2, 20177, Note_on_c, 0, 69, 80
2, 20177, Note_on_c, 0, 81, 80
2, 20205, Note_on_c, 0, 81, 0
2, 20205, Note_on_c, 0, 75, 0
2, 20205, Note_on_c, 0, 72, 0
2, 20205, Note_on_c, 0, 69, 0
2, 20214, Control_c, 0, 64, 127
2, 20268, Control_c, 0, 64, 0
2, 20270, Note_on_c, 0, 53, 0
2, 20310, Note_on_c, 0, 53, 80
2, 20310, Note_on_c, 0, 57, 80
2, 20310, Note_on_c, 0, 63, 80
2, 20310, Note_on_c, 0, 67, 80
2, 20310, Note_on_c, 0, 72, 80
2, 20312, Note_on_c, 0, 41, 0
2, 20312, Note_on_c, 0, 75, 80
2, 20312, Note_on_c, 0, 79, 80
2, 20338, Note_on_c, 0, 53, 0
2, 20340, Note_on_c, 0, 75, 0
2, 20340, Note_on_c, 0, 72, 0
2, 20340, Note_on_c, 0, 67, 0
2, 20340, Note_on_c, 0, 63, 0
2, 20340, Note_on_c, 0, 79, 0
2, 20340, Note_on_c, 0, 57, 0
2, 20448, Note_on_c, 0, 46, 80
2, 20448, Note_on_c, 0, 58, 80
2, 20448, Note_on_c, 0, 67, 80
2, 20516, Control_c, 0, 64, 127
2, 20518, Note_on_c, 0, 70, 80
2, 20518, Note_on_c, 0, 74, 80
2, 20518, Note_on_c, 0, 79, 80
2, 20520, Note_on_c, 0, 67, 0
2, 20547, Note_on_c, 0, 58, 0
2, 20547, Note_on_c, 0, 70, 0
2, 20547, Note_on_c, 0, 74, 0
2, 20547, Note_on_c, 0, 79, 0
2, 20568, Control_c, 0, 64, 0
2, 20583, Note_on_c, 0, 53, 80
2, 20583, Note_on_c, 0, 58, 80
2, 20583, Note_on_c, 0, 62, 80
2, 20588, Note_on_c, 0, 46, 0
2, 20614, Note_on_c, 0, 53, 0
2, 20614, Note_on_c, 0, 58, 0
2, 20614, Note_on_c, 0, 62, 0
2, 20654, Note_on_c, 0, 65, 80
2, 20722, Note_on_c, 0, 41, 80
2, 20722, Note_on_c, 0, 53, 80
2, 20722, Note_on_c, 0, 70, 80
2, 20722, Note_on_c, 0, 74, 80
2, 20724, Note_on_c, 0, 77, 80
2, 20726, Note_on_c, 0, 65, 0
2, 20752, Note_on_c, 0, 74, 0
2, 20754, Note_on_c, 0, 70, 0
2, 20754, Note_on_c, 0, 77, 0
2, 20819, Note_on_c, 0, 53, 0
2, 20856, Note_on_c, 0, 53, 80
2, 20856, Note_on_c, 0, 58, 80
2, 20856, Note_on_c, 0, 62, 80
2, 20856, Note_on_c, 0, 67, 80
2, 20858, Note_on_c, 0, 41, 0
2, 20886, Note_on_c, 0, 62, 0
2, 20886, Note_on_c, 0, 53, 0
2, 20886, Note_on_c, 0, 58, 0
2, 20886, Note_on_c, 0, 67, 0
2, 20924, Note_on_c, 0, 70, 80
2, 20924, Note_on_c, 0, 74, 80
2, 20924, Note_on_c, 0, 79, 80
2, 20952, Note_on_c, 0, 74, 0
2, 20952, Note_on_c, 0, 70, 0
2, 20953, Note_on_c, 0, 79, 0
2, 20989, Note_on_c, 0, 46, 80
2, 20989, Note_on_c, 0, 58, 80
2, 21029, Control_c, 0, 64, 127
2, 21060, Note_on_c, 0, 65, 80
2, 21088, Control_c, 0, 64, 0
2, 21090, Note_on_c, 0, 58, 0
2, 21127, Note_on_c, 0, 53, 80
2, 21127, Note_on_c, 0, 58, 80
2, 21127, Note_on_c, 0, 62, 80
2, 21127, Note_on_c, 0, 70, 80
2, 21127, Note_on_c, 0, 74, 80
2, 21127, Note_on_c, 0, 77, 80
2, 21129, Note_on_c, 0, 46, 0
2, 21131, Note_on_c, 0, 65, 0
2, 21157, Note_on_c, 0, 70, 0
2, 21157, Note_on_c, 0, 53, 0
2, 21157, Note_on_c, 0, 62, 0
2, 21157, Note_on_c, 0, 58, 0
2, 21157, Note_on_c, 0, 74, 0
2, 21159, Note_on_c, 0, 77, 0
2, 21264, Note_on_c, 0, 41, 80
2, 21264, Note_on_c, 0, 53, 80
2, 21264, Note_on_c, 0, 67, 80
2, 21264, Note_on_c, 0, 70, 80
2, 21264, Note_on_c, 0, 74, 80
2, 21264, Note_on_c, 0, 79, 80
2, 21295, Note_on_c, 0, 79, 0
2, 21295, Note_on_c, 0, 70, 0
2, 21295, Note_on_c, 0, 67, 0
2, 21295, Note_on_c, 0, 74, 0
2, 21316, Control_c, 0, 64, 127
2, 21359, Note_on_c, 0, 53, 0
2, 21370, Note_on_c, 0, 41, 0
2, 21398, Note_on_c, 0, 53, 80
2, 21398, Note_on_c, 0, 58, 80
2, 21398, Note_on_c, 0, 62, 80
2, 21398, Note_on_c, 0, 65, 80
2, 21398, Note_on_c, 0, 70, 80
2, 21398, Note_on_c, 0, 74, 80
2, 21398, Note_on_c, 0, 77, 80
2, 21412, Control_c, 0, 64, 0
2, 21494, Note_on_c, 0, 77, 0
2, 21529, Note_on_c, 0, 45, 80
2, 21529, Note_on_c, 0, 57, 80
2, 21529, Note_on_c, 0, 77, 80
2, 21534, Note_on_c, 0, 70, 0
2, 21534, Note_on_c, 0, 65, 0
2, 21534, Note_on_c, 0, 53, 0
2, 21534, Note_on_c, 0, 62, 0
2, 21534, Note_on_c, 0, 58, 0
2, 21534, Note_on_c, 0, 74, 0
2, 21553, Control_c, 0, 64, 127
2, 21598, Note_on_c, 0, 81, 80
2, 21598, Note_on_c, 0, 84, 80
2, 21598, Note_on_c, 0, 89, 80
2, 21602, Note_on_c, 0, 77, 0
2, 21612, Note_on_c, 0, 57, 0
2, 21626, Note_on_c, 0, 84, 0
2, 21628, Note_on_c, 0, 81, 0
2, 21628, Note_on_c, 0, 89, 0
2, 21648, Control_c, 0, 64, 0
2, 21662, Note_on_c, 0, 53, 80
2, 21662, Note_on_c, 0, 57, 80
2, 21664, Note_on_c, 0, 45, 0
2, 21664, Note_on_c, 0, 63, 80
2, 21692, Note_on_c, 0, 63, 0
2, 21692, Note_on_c, 0, 57, 0
2, 21692, Note_on_c, 0, 53, 0
2, 21729, Note_on_c, 0, 75, 80
2, 21797, Note_on_c, 0, 41, 80
2, 21799, Note_on_c, 0, 53, 80
2, 21799, Note_on_c, 0, 81, 80
2, 21799, Note_on_c, 0, 84, 80
2, 21799, Note_on_c, 0, 87, 80
2, 21804, Note_on_c, 0, 75, 0
2, 21830, Note_on_c, 0, 84, 0
2, 21830, Note_on_c, 0, 81, 0
2, 21830, Note_on_c, 0, 87, 0
2, 21898, Note_on_c, 0, 53, 0
2, 21936, Note_on_c, 0, 53, 80
2, 21936, Note_on_c, 0, 57, 80
2, 21936, Note_on_c, 0, 63, 80
2, 21936, Note_on_c, 0, 74, 80
2, 21937, Note_on_c, 0, 41, 0
2, 21963, Note_on_c, 0, 63, 0
2, 21963, Note_on_c, 0, 53, 0
2, 21963, Note_on_c, 0, 57, 0
2, 22004, Note_on_c, 0, 77, 80
2, 22004, Note_on_c, 0, 81, 80
2, 22004, Note_on_c, 0, 86, 80
2, 22006, Note_on_c, 0, 74, 0
2, 22032, Note_on_c, 0, 77, 0
2, 22033, Note_on_c, 0, 81, 0
2, 22033, Note_on_c, 0, 86, 0
2, 22066, Note_on_c, 0, 45, 80
2, 22066, Note_on_c, 0, 57, 80
2, 22080, Control_c, 0, 64, 127
2, 22137, Note_on_c, 0, 75, 80
2, 22152, Note_on_c, 0, 57, 0
2, 22175, Control_c, 0, 64, 0
2, 22191, Note_on_c, 0, 45, 0
2, 22202, Note_on_c, 0, 53, 80
2, 22202, Note_on_c, 0, 57, 80
2, 22202, Note_on_c, 0, 63, 80
2, 22202, Note_on_c, 0, 81, 80
2, 22202, Note_on_c, 0, 84, 80
2, 22204, Note_on_c, 0, 87, 80
2, 22206, Note_on_c, 0, 75, 0
2, 22229, Note_on_c, 0, 63, 0
2, 22229, Note_on_c, 0, 53, 0
2, 22229, Note_on_c, 0, 57, 0
2, 22231, Note_on_c, 0, 87, 0
2, 22231, Note_on_c, 0, 81, 0
2, 22231, Note_on_c, 0, 84, 0
2, 22332, Note_on_c, 0, 41, 80
2, 22334, Note_on_c, 0, 53, 80
2, 22334, Note_on_c, 0, 74, 80
2, 22334, Note_on_c, 0, 77, 80
2, 22334, Note_on_c, 0, 86, 80
2, 22365, Note_on_c, 0, 86, 0
2, 22365, Note_on_c, 0, 74, 0
2, 22365, Note_on_c, 0, 77, 0
2, 22418, Note_on_c, 0, 53, 0
2, 22428, Note_on_c, 0, 41, 0
2, 22465, Note_on_c, 0, 53, 80
2, 22465, Note_on_c, 0, 57, 80
2, 22465, Note_on_c, 0, 63, 80
2, 22467, Note_on_c, 0, 72, 80
2, 22467, Note_on_c, 0, 77, 80
2, 22467, Note_on_c, 0, 84, 80
2, 22495, Note_on_c, 0, 84, 0
2, 22495, Note_on_c, 0, 57, 0
2, 22495, Note_on_c, 0, 63, 0
2, 22495, Note_on_c, 0, 53, 0
2, 22495, Note_on_c, 0, 77, 0
2, 22495, Note_on_c, 0, 72, 0
2, 22596, Control_c, 0, 64, 127
2, 22598, Note_on_c, 0, 46, 80
2, 22600, Note_on_c, 0, 58, 80
2, 22600, Note_on_c, 0, 72, 80
2, 22665, Note_on_c, 0, 77, 80
2, 22665, Note_on_c, 0, 84, 80
2, 22667, Note_on_c, 0, 72, 0
2, 22679, Note_on_c, 0, 58, 0
2, 22690, Note_on_c, 0, 46, 0
2, 22706, Note_on_c, 0, 77, 0
2, 22723, Note_on_c, 0, 84, 0
2, 22729, Control_c, 0, 64, 0
2, 22729, Note_on_c, 0, 53, 80
2, 22729, Note_on_c, 0, 58, 80
2, 22729, Note_on_c, 0, 62, 80
2, 22757, Note_on_c, 0, 62, 0
2, 22757, Note_on_c, 0, 58, 0
2, 22757, Note_on_c, 0, 53, 0
2, 22795, Note_on_c, 0, 70, 80
2, 22863, Note_on_c, 0, 46, 80
2, 22865, Note_on_c, 0, 58, 80
2, 22865, Note_on_c, 0, 77, 80
2, 22865, Note_on_c, 0, 82, 80
2, 22949, Note_on_c, 0, 58, 0
2, 22949, Note_on_c, 0, 70, 0
2, 22998, Note_on_c, 0, 52, 80
2, 22998, Note_on_c, 0, 58, 80
2, 22998, Note_on_c, 0, 61, 80
2, 22998, Note_on_c, 0, 67, 80
2, 22998, Note_on_c, 0, 70, 80
2, 22998, Note_on_c, 0, 73, 80
2, 22998, Note_on_c, 0, 79, 80
2, 23000, Note_on_c, 0, 46, 0
2, 23002, Note_on_c, 0, 77, 0
2, 23002, Note_on_c, 0, 82, 0
2, 23035, Control_c, 0, 64, 127
2, 23079, Note_on_c, 0, 70, 0
2, 23079, Note_on_c, 0, 58, 0
2, 23128, Note_on_c, 0, 53, 80
2, 23130, Control_c, 0, 64, 0
2, 23130, Note_on_c, 0, 58, 80
2, 23130, Note_on_c, 0, 62, 80
2, 23130, Note_on_c, 0, 65, 80
2, 23130, Note_on_c, 0, 70, 80
2, 23130, Note_on_c, 0, 74, 80
2, 23130, Note_on_c, 0, 77, 80
2, 23132, Note_on_c, 0, 61, 0
2, 23132, Note_on_c, 0, 67, 0
2, 23132, Note_on_c, 0, 79, 0
2, 23132, Note_on_c, 0, 52, 0
2, 23132, Note_on_c, 0, 73, 0
2, 23197, Note_on_c, 0, 53, 0
2, 23197, Note_on_c, 0, 58, 0
2, 23199, Note_on_c, 0, 70, 0
2, 23199, Note_on_c, 0, 74, 0
2, 23199, Note_on_c, 0, 77, 0
2, 23199, Note_on_c, 0, 62, 0
2, 23210, Note_on_c, 0, 65, 0
2, 23262, Note_on_c, 0, 65, 80
2, 23274, Control_c, 0, 64, 127
2, 23332, Note_on_c, 0, 64, 80
2, 23334, Note_on_c, 0, 65, 0
2, 23400, Note_on_c, 0, 65, 80
2, 23404, Note_on_c, 0, 64, 0
2, 23470, Note_on_c, 0, 66, 80
2, 23472, Note_on_c, 0, 65, 0
2, 23535, Control_c, 0, 64, 0
2, 23535, Note_on_c, 0, 47, 80
2, 23535, Note_on_c, 0, 59, 80
2, 23537, Note_on_c, 0, 67, 80
2, 23539, Note_on_c, 0, 66, 0
2, 23604, Note_on_c, 0, 68, 80
2, 23609, Note_on_c, 0, 67, 0
2, 23674, Note_on_c, 0, 48, 80
2, 23674, Note_on_c, 0, 60, 80
2, 23674, Note_on_c, 0, 69, 80
2, 23676, Note_on_c, 0, 47, 0
2, 23676, Note_on_c, 0, 59, 0
2, 23678, Note_on_c, 0, 68, 0
2, 23683, Control_c, 0, 64, 127
2, 23743, Note_on_c, 0, 72, 80
2, 23743, Note_on_c, 0, 75, 80
2, 23743, Note_on_c, 0, 81, 80
2, 23745, Note_on_c, 0, 69, 0
2, 23781, Control_c, 0, 64, 0
2, 23808, Note_on_c, 0, 53, 80
2, 23808, Note_on_c, 0, 57, 80
2, 23808, Note_on_c, 0, 63, 80
2, 23810, Note_on_c, 0, 48, 0
2, 23812, Note_on_c, 0, 72, 0
2, 23812, Note_on_c, 0, 75, 0
2, 23812, Note_on_c, 0, 60, 0
2, 23814, Note_on_c, 0, 81, 0
2, 23837, Note_on_c, 0, 57, 0
2, 23837, Note_on_c, 0, 53, 0
2, 23837, Note_on_c, 0, 63, 0
2, 23875, Note_on_c, 0, 67, 80
2, 23940, Note_on_c, 0, 41, 80
2, 23942, Note_on_c, 0, 53, 80
2, 23942, Note_on_c, 0, 72, 80
2, 23942, Note_on_c, 0, 75, 80
2, 23944, Note_on_c, 0, 79, 80
2, 23946, Note_on_c, 0, 67, 0
2, 23972, Note_on_c, 0, 72, 0
2, 23974, Note_on_c, 0, 75, 0
2, 23974, Note_on_c, 0, 79, 0
2, 24034, Note_on_c, 0, 41, 0
2, 24034, Note_on_c, 0, 53, 0
2, 24074, Note_on_c, 0, 53, 80
2, 24074, Note_on_c, 0, 57, 80
2, 24076, Note_on_c, 0, 63, 80
2, 24076, Note_on_c, 0, 69, 80
2, 24107, Note_on_c, 0, 57, 0
2, 24107, Note_on_c, 0, 53, 0
2, 24109, Note_on_c, 0, 63, 0
2, 24146, Note_on_c, 0, 72, 80
2, 24146, Note_on_c, 0, 75, 80
2, 24146, Note_on_c, 0, 81, 80
2, 24148, Note_on_c, 0, 69, 0
2, 24176, Note_on_c, 0, 72, 0
2, 24176, Note_on_c, 0, 75, 0
2, 24176, Note_on_c, 0, 81, 0
2, 24212, Note_on_c, 0, 48, 80
2, 24214, Note_on_c, 0, 60, 80
2, 24246, Control_c, 0, 64, 127
2, 24279, Note_on_c, 0, 67, 80
2, 24302, Control_c, 0, 64, 0
2, 24342, Note_on_c, 0, 53, 80
2, 24344, Note_on_c, 0, 57, 80
2, 24344, Note_on_c, 0, 63, 80
2, 24344, Note_on_c, 0, 72, 80
2, 24344, Note_on_c, 0, 75, 80
2, 24344, Note_on_c, 0, 79, 80
2, 24346, Note_on_c, 0, 67, 0
2, 24346, Note_on_c, 0, 48, 0
2, 24346, Note_on_c, 0, 60, 0
2, 24372, Note_on_c, 0, 72, 0
2, 24372, Note_on_c, 0, 53, 0
2, 24372, Note_on_c, 0, 57, 0
2, 24372, Note_on_c, 0, 63, 0
2, 24374, Note_on_c, 0, 79, 0
2, 24374, Note_on_c, 0, 75, 0
2, 24475, Note_on_c, 0, 41, 80
2, 24475, Note_on_c, 0, 53, 80
2, 24475, Note_on_c, 0, 69, 80
2, 24475, Note_on_c, 0, 72, 80
2, 24475, Note_on_c, 0, 75, 80
2, 24477, Note_on_c, 0, 81, 80
2, 24517, Note_on_c, 0, 81, 0
2, 24517, Note_on_c, 0, 72, 0
2, 24517, Note_on_c, 0, 69, 0
2, 24517, Note_on_c, 0, 75, 0
2, 24569, Note_on_c, 0, 41, 0
2, 24569, Note_on_c, 0, 53, 0
2, 24606, Note_on_c, 0, 53, 80
2, 24606, Note_on_c, 0, 57, 80
2, 24606, Note_on_c, 0, 63, 80
2, 24606, Note_on_c, 0, 67, 80
2, 24606, Note_on_c, 0, 72, 80
2, 24608, Note_on_c, 0, 75, 80
2, 24608, Note_on_c, 0, 79, 80
2, 24648, Note_on_c, 0, 53, 0
2, 24650, Note_on_c, 0, 75, 0
2, 24650, Note_on_c, 0, 63, 0
2, 24650, Note_on_c, 0, 67, 0
2, 24650, Note_on_c, 0, 72, 0
2, 24650, Note_on_c, 0, 79, 0
2, 24662, Note_on_c, 0, 57, 0
2, 24737, Note_on_c, 0, 46, 80
2, 24739, Note_on_c, 0, 58, 80
2, 24739, Note_on_c, 0, 67, 80
2, 24762, Control_c, 0, 64, 127
2, 24809, Note_on_c, 0, 70, 80
2, 24809, Note_on_c, 0, 74, 80
2, 24809, Note_on_c, 0, 79, 80
2, 24811, Note_on_c, 0, 67, 0
2, 24822, Note_on_c, 0, 58, 0
2, 24834, Note_on_c, 0, 70, 0
2, 24834, Note_on_c, 0, 74, 0
2, 24834, Note_on_c, 0, 79, 0
2, 24855, Control_c, 0, 64, 0
2, 24871, Note_on_c, 0, 53, 80
2, 24871, Note_on_c, 0, 58, 80
2, 24871, Note_on_c, 0, 62, 80
2, 24873, Note_on_c, 0, 46, 0
2, 24899, Note_on_c, 0, 53, 0
2, 24899, Note_on_c, 0, 58, 0
2, 24901, Note_on_c, 0, 62, 0
2, 24938, Note_on_c, 0, 65, 80
2, 25004, Note_on_c, 0, 41, 80
2, 25004, Note_on_c, 0, 53, 80
2, 25006, Note_on_c, 0, 70, 80
2, 25006, Note_on_c, 0, 74, 80
2, 25006, Note_on_c, 0, 77, 80
2, 25010, Note_on_c, 0, 65, 0
2, 25033, Note_on_c, 0, 74, 0
2, 25033, Note_on_c, 0, 70, 0
2, 25033, Note_on_c, 0, 77, 0
2, 25085, Note_on_c, 0, 53, 0
2, 25137, Note_on_c, 0, 53, 80
2, 25139, Note_on_c, 0, 58, 80
2, 25139, Note_on_c, 0, 62, 80
2, 25139, Note_on_c, 0, 67, 80
2, 25165, Note_on_c, 0, 41, 0
2, 25181, Note_on_c, 0, 53, 0
2, 25181, Note_on_c, 0, 58, 0
2, 25183, Note_on_c, 0, 62, 0
2, 25204, Note_on_c, 0, 70, 80
2, 25204, Note_on_c, 0, 74, 80
2, 25204, Note_on_c, 0, 79, 80
2, 25206, Note_on_c, 0, 67, 0
2, 25267, Note_on_c, 0, 46, 80
2, 25269, Note_on_c, 0, 58, 80
2, 25278, Control_c, 0, 64, 127
2, 25285, Note_on_c, 0, 70, 0
2, 25285, Note_on_c, 0, 74, 0
2, 25287, Note_on_c, 0, 79, 0
2, 25336, Note_on_c, 0, 65, 80
2, 25364, Note_on_c, 0, 58, 0
2, 25373, Control_c, 0, 64, 0
2, 25378, Note_on_c, 0, 46, 0
2, 25401, Note_on_c, 0, 53, 80
2, 25401, Note_on_c, 0, 58, 80
2, 25401, Note_on_c, 0, 62, 80
2, 25401, Note_on_c, 0, 70, 80
2, 25401, Note_on_c, 0, 74, 80
2, 25401, Note_on_c, 0, 77, 80
2, 25403, Note_on_c, 0, 65, 0
2, 25440, Note_on_c, 0, 53, 0
2, 25442, Note_on_c, 0, 58, 0
2, 25442, Note_on_c, 0, 70, 0
2, 25442, Note_on_c, 0, 62, 0
2, 25442, Note_on_c, 0, 77, 0
2, 25442, Note_on_c, 0, 74, 0
2, 25529, Note_on_c, 0, 41, 80
2, 25529, Note_on_c, 0, 53, 80
2, 25531, Note_on_c, 0, 67, 80
2, 25531, Note_on_c, 0, 70, 80
2, 25531, Note_on_c, 0, 74, 80
2, 25533, Note_on_c, 0, 79, 80
2, 25573, Note_on_c, 0, 74, 0
2, 25573, Note_on_c, 0, 70, 0
2, 25573, Note_on_c, 0, 67, 0
2, 25575, Note_on_c, 0, 79, 0
2, 25624, Note_on_c, 0, 41, 0
2, 25624, Note_on_c, 0, 53, 0
2, 25659, Note_on_c, 0, 53, 80
2, 25659, Note_on_c, 0, 58, 80
2, 25659, Note_on_c, 0, 62, 80
2, 25659, Note_on_c, 0, 65, 80
2, 25659, Note_on_c, 0, 70, 80
2, 25659, Note_on_c, 0, 74, 80
2, 25659, Note_on_c, 0, 77, 80
2, 25690, Note_on_c, 0, 62, 0
2, 25690, Note_on_c, 0, 53, 0
2, 25690, Note_on_c, 0, 58, 0
2, 25793, Note_on_c, 0, 39, 80
2, 25793, Note_on_c, 0, 51, 80
2, 25793, Note_on_c, 0, 66, 80
2, 25795, Note_on_c, 0, 65, 0
2, 25797, Note_on_c, 0, 70, 0
2, 25797, Note_on_c, 0, 77, 0
2, 25797, Note_on_c, 0, 74, 0
2, 25827, Control_c, 0, 64, 127
2, 25860, Note_on_c, 0, 70, 80
2, 25860, Note_on_c, 0, 75, 80
2, 25860, Note_on_c, 0, 78, 80
2, 25862, Note_on_c, 0, 66, 0
2, 25883, Control_c, 0, 64, 0
2, 25899, Note_on_c, 0, 75, 0
2, 25899, Note_on_c, 0, 70, 0
2, 25899, Note_on_c, 0, 78, 0
2, 25922, Note_on_c, 0, 54, 80
2, 25924, Note_on_c, 0, 58, 80
2, 25924, Note_on_c, 0, 63, 80
2, 25926, Note_on_c, 0, 51, 0
2, 25926, Note_on_c, 0, 39, 0
2, 25952, Note_on_c, 0, 58, 0
2, 25952, Note_on_c, 0, 54, 0
2, 25954, Note_on_c, 0, 63, 0
2, 25992, Note_on_c, 0, 70, 80
2, 26019, Note_on_c, 0, 70, 0
2, 26060, Note_on_c, 0, 42, 80
2, 26060, Note_on_c, 0, 54, 80
2, 26060, Note_on_c, 0, 70, 80
2, 26060, Note_on_c, 0, 75, 80
2, 26062, Note_on_c, 0, 78, 80
2, 26062, Note_on_c, 0, 82, 80
2, 26104, Note_on_c, 0, 82, 0
2, 26104, Note_on_c, 0, 75, 0
2, 26104, Note_on_c, 0, 78, 0
2, 26111, Control_c, 0, 64, 127
2, 26160, Note_on_c, 0, 70, 0
2, 26166, Control_c, 0, 64, 0
2, 26194, Note_on_c, 0, 39, 80
2, 26196, Note_on_c, 0, 42, 0
2, 26196, Note_on_c, 0, 51, 80
2, 26196, Note_on_c, 0, 66, 80
2, 26196, Note_on_c, 0, 70, 80
2, 26196, Note_on_c, 0, 75, 80
2, 26196, Note_on_c, 0, 78, 80
2, 26198, Note_on_c, 0, 54, 0
2, 26327, Note_on_c, 0, 38, 80
2, 26327, Note_on_c, 0, 50, 80
2, 26331, Note_on_c, 0, 39, 0
2, 26331, Note_on_c, 0, 51, 0
2, 26331, Note_on_c, 0, 65, 80
2, 26333, Note_on_c, 0, 78, 0
2, 26333, Note_on_c, 0, 66, 0
2, 26333, Note_on_c, 0, 70, 0
2, 26333, Note_on_c, 0, 75, 0
2, 26352, Control_c, 0, 64, 127
2, 26400, Note_on_c, 0, 70, 80
2, 26400, Note_on_c, 0, 74, 80
2, 26400, Note_on_c, 0, 77, 80
2, 26404, Note_on_c, 0, 65, 0
2, 26456, Control_c, 0, 64, 0
2, 26471, Note_on_c, 0, 53, 80
2, 26471, Note_on_c, 0, 58, 80
2, 26472, Note_on_c, 0, 38, 0
2, 26472, Note_on_c, 0, 50, 0
2, 26472, Note_on_c, 0, 62, 80
2, 26474, Note_on_c, 0, 77, 0
2, 26474, Note_on_c, 0, 70, 0
2, 26474, Note_on_c, 0, 74, 0
2, 26517, Note_on_c, 0, 53, 0
2, 26517, Note_on_c, 0, 62, 0
2, 26517, Note_on_c, 0, 58, 0
2, 26543, Note_on_c, 0, 64, 80
2, 26611, Note_on_c, 0, 37, 80
2, 26616, Note_on_c, 0, 49, 80
2, 26616, Note_on_c, 0, 70, 80
2, 26616, Note_on_c, 0, 73, 80
2, 26616, Note_on_c, 0, 76, 80
2, 26648, Control_c, 0, 64, 127
2, 26712, Note_on_c, 0, 70, 0
2, 26726, Note_on_c, 0, 73, 0
2, 26726, Note_on_c, 0, 76, 0
2, 26740, Note_on_c, 0, 64, 0
2, 26747, Control_c, 0, 64, 0
2, 26747, Note_on_c, 0, 38, 80
2, 26749, Note_on_c, 0, 37, 0
2, 26749, Note_on_c, 0, 50, 80
2, 26749, Note_on_c, 0, 65, 80
2, 26749, Note_on_c, 0, 70, 80
2, 26749, Note_on_c, 0, 74, 80
2, 26749, Note_on_c, 0, 77, 80
2, 26751, Note_on_c, 0, 49, 0
2, 26880, Note_on_c, 0, 41, 80
2, 26881, Note_on_c, 0, 38, 0
2, 26881, Note_on_c, 0, 53, 80
2, 26881, Note_on_c, 0, 75, 80
2, 26883, Note_on_c, 0, 65, 0
2, 26883, Note_on_c, 0, 74, 0
2, 26883, Note_on_c, 0, 50, 0
2, 26885, Note_on_c, 0, 77, 0
2, 26885, Note_on_c, 0, 70, 0
2, 26890, Control_c, 0, 64, 127
2, 26949, Note_on_c, 0, 81, 80
2, 26949, Note_on_c, 0, 84, 80
2, 26949, Note_on_c, 0, 87, 80
2, 26951, Note_on_c, 0, 75, 0
2, 26974, Note_on_c, 0, 41, 0
2, 26976, Note_on_c, 0, 53, 0
2, 26987, Control_c, 0, 64, 0
2, 27010, Note_on_c, 0, 53, 80
2, 27010, Note_on_c, 0, 57, 80
2, 27010, Note_on_c, 0, 63, 80
2, 27015, Note_on_c, 0, 81, 0
2, 27015, Note_on_c, 0, 84, 0
2, 27015, Note_on_c, 0, 87, 0
2, 27041, Note_on_c, 0, 53, 0
2, 27041, Note_on_c, 0, 57, 0
2, 27041, Note_on_c, 0, 63, 0
2, 27076, Note_on_c, 0, 77, 80
2, 27109, Note_on_c, 0, 77, 0
2, 27142, Note_on_c, 0, 41, 80
2, 27144, Note_on_c, 0, 53, 80
2, 27144, Note_on_c, 0, 77, 80
2, 27144, Note_on_c, 0, 81, 80
2, 27144, Note_on_c, 0, 86, 80
2, 27209, Control_c, 0, 64, 127
2, 27225, Note_on_c, 0, 53, 0
2, 27240, Note_on_c, 0, 41, 0
2, 27241, Note_on_c, 0, 77, 0
2, 27243, Note_on_c, 0, 81, 0
2, 27243, Note_on_c, 0, 86, 0
2, 27264, Control_c, 0, 64, 0
2, 27276, Note_on_c, 0, 53, 80
2, 27276, Note_on_c, 0, 57, 80
2, 27278, Note_on_c, 0, 63, 80
2, 27278, Note_on_c, 0, 75, 80
2, 27278, Note_on_c, 0, 81, 80
2, 27278, Note_on_c, 0, 84, 80
2, 27320, Note_on_c, 0, 63, 0
2, 27320, Note_on_c, 0, 53, 0
2, 27320, Note_on_c, 0, 57, 0
2, 27407, Note_on_c, 0, 46, 80
2, 27407, Note_on_c, 0, 58, 80
2, 27407, Note_on_c, 0, 74, 80
2, 27408, Note_on_c, 0, 82, 80
2, 27410, Note_on_c, 0, 75, 0
2, 27410, Note_on_c, 0, 84, 0
2, 27410, Note_on_c, 0, 81, 0
2, 27443, Control_c, 0, 64, 127
2, 27537, Note_on_c, 0, 65, 80
2, 27539, Note_on_c, 0, 46, 0
2, 27541, Note_on_c, 0, 58, 0
2, 27541, Note_on_c, 0, 82, 0
2, 27541, Note_on_c, 0, 74, 0
2, 27606, Note_on_c, 0, 64, 80
2, 27611, Note_on_c, 0, 65, 0
2, 27679, Note_on_c, 0, 65, 80
2, 27681, Note_on_c, 0, 64, 0
2, 27744, Control_c, 0, 64, 0
2, 27749, Note_on_c, 0, 65, 0
2, 27749, Note_on_c, 0, 66, 80
2, 27810, Note_on_c, 0, 47, 80
2, 27810, Note_on_c, 0, 59, 80
2, 27812, Note_on_c, 0, 67, 80
2, 27814, Note_on_c, 0, 66, 0
2, 27879, Note_on_c, 0, 68, 80
2, 27881, Note_on_c, 0, 67, 0
2, 27944, Note_on_c, 0, 36, 80
2, 27944, Note_on_c, 0, 48, 80
2, 27946, Note_on_c, 0, 60, 80
2, 27948, Note_on_c, 0, 47, 0
2, 27948, Note_on_c, 0, 69, 80
2, 27948, Note_on_c, 0, 81, 80
2, 27950, Note_on_c, 0, 68, 0
2, 27950, Note_on_c, 0, 59, 0
2, 27973, Note_on_c, 0, 81, 0
2, 28010, Note_on_c, 0, 36, 0
2, 28010, Note_on_c, 0, 72, 80
2, 28010, Note_on_c, 0, 75, 80
2, 28010, Note_on_c, 0, 81, 80
2, 28010, Note_on_c, 0, 84, 80
2, 28010, Note_on_c, 0, 93, 80
2, 28012, Note_on_c, 0, 69, 0
2, 28012, Note_on_c, 0, 87, 80
2, 28024, Note_on_c, 0, 48, 0
2, 28038, Note_on_c, 0, 87, 0
2, 28038, Note_on_c, 0, 93, 0
2, 28038, Note_on_c, 0, 84, 0
2, 28074, Note_on_c, 0, 53, 80
2, 28074, Note_on_c, 0, 63, 80
2, 28130, Note_on_c, 0, 63, 0
2, 28130, Note_on_c, 0, 53, 0
2, 28140, Note_on_c, 0, 67, 80
2, 28142, Note_on_c, 0, 81, 0
2, 28142, Note_on_c, 0, 75, 0
2, 28142, Note_on_c, 0, 72, 0
2, 28142, Note_on_c, 0, 79, 80
2, 28170, Note_on_c, 0, 79, 0
2, 28202, Note_on_c, 0, 29, 80
2, 28204, Note_on_c, 0, 41, 80
2, 28204, Note_on_c, 0, 53, 80
2, 28204, Note_on_c, 0, 72, 80
2, 28204, Note_on_c, 0, 75, 80
2, 28204, Note_on_c, 0, 79, 80
2, 28204, Note_on_c, 0, 84, 80
2, 28204, Note_on_c, 0, 91, 80
2, 28206, Note_on_c, 0, 87, 80
2, 28208, Note_on_c, 0, 67, 0
2, 28234, Note_on_c, 0, 84, 0
2, 28234, Note_on_c, 0, 87, 0
2, 28234, Note_on_c, 0, 91, 0
2, 28244, Note_on_c, 0, 29, 0
2, 28258, Note_on_c, 0, 41, 0
2, 28298, Note_on_c, 0, 53, 0
2, 28326, Note_on_c, 0, 75, 0
2, 28326, Note_on_c, 0, 79, 0
2, 28326, Note_on_c, 0, 72, 0
2, 28336, Note_on_c, 0, 53, 80
2, 28336, Note_on_c, 0, 57, 80
2, 28336, Note_on_c, 0, 63, 80
2, 28338, Note_on_c, 0, 69, 80
2, 28338, Note_on_c, 0, 81, 80
2, 28368, Note_on_c, 0, 81, 0
2, 28380, Note_on_c, 0, 53, 0
2, 28392, Note_on_c, 0, 63, 0
2, 28392, Note_on_c, 0, 57, 0
2, 28403, Note_on_c, 0, 72, 80
2, 28403, Note_on_c, 0, 75, 80
2, 28403, Note_on_c, 0, 81, 80
2, 28403, Note_on_c, 0, 84, 80
2, 28403, Note_on_c, 0, 87, 80
2, 28403, Note_on_c, 0, 93, 80
2, 28405, Note_on_c, 0, 60, 0
2, 28405, Note_on_c, 0, 69, 0
2, 28436, Note_on_c, 0, 84, 0
2, 28436, Note_on_c, 0, 93, 0
2, 28436, Note_on_c, 0, 87, 0
2, 28468, Note_on_c, 0, 36, 80
2, 28468, Note_on_c, 0, 48, 80
2, 28470, Note_on_c, 0, 60, 80
2, 28508, Note_on_c, 0, 36, 0
2, 28510, Note_on_c, 0, 48, 0
2, 28536, Note_on_c, 0, 67, 80
2, 28536, Note_on_c, 0, 79, 80
2, 28537, Note_on_c, 0, 75, 0
2, 28537, Note_on_c, 0, 72, 0
2, 28537, Note_on_c, 0, 81, 0
2, 28563, Note_on_c, 0, 79, 0
2, 28599, Note_on_c, 0, 53, 80
2, 28599, Note_on_c, 0, 57, 80
2, 28599, Note_on_c, 0, 63, 80
2, 28601, Note_on_c, 0, 72, 80
2, 28601, Note_on_c, 0, 75, 80
2, 28601, Note_on_c, 0, 79, 80
2, 28601, Note_on_c, 0, 84, 80
2, 28601, Note_on_c, 0, 87, 80
2, 28601, Note_on_c, 0, 91, 80
2, 28603, Note_on_c, 0, 67, 0
2, 28631, Note_on_c, 0, 84, 0
2, 28631, Note_on_c, 0, 91, 0
2, 28631, Note_on_c, 0, 87, 0
2, 28642, Note_on_c, 0, 63, 0
2, 28642, Note_on_c, 0, 57, 0
2, 28642, Note_on_c, 0, 53, 0
2, 28696, Note_on_c, 0, 75, 0
2, 28696, Note_on_c, 0, 72, 0
2, 28698, Note_on_c, 0, 79, 0
2, 28728, Note_on_c, 0, 29, 80
2, 28728, Note_on_c, 0, 41, 80
2, 28730, Note_on_c, 0, 53, 80
2, 28730, Note_on_c, 0, 69, 80
2, 28730, Note_on_c, 0, 72, 80
2, 28730, Note_on_c, 0, 75, 80
2, 28730, Note_on_c, 0, 79, 80
2, 28730, Note_on_c, 0, 81, 80
2, 28730, Note_on_c, 0, 84, 80
2, 28732, Note_on_c, 0, 87, 80
2, 28732, Note_on_c, 0, 93, 80
2, 28770, Note_on_c, 0, 29, 0
2, 28772, Note_on_c, 0, 41, 0
2, 28774, Note_on_c, 0, 79, 0
2, 28814, Note_on_c, 0, 72, 0
2, 28814, Note_on_c, 0, 75, 0
2, 28828, Note_on_c, 0, 84, 0
2, 28828, Note_on_c, 0, 81, 0
2, 28828, Note_on_c, 0, 93, 0
2, 28828, Note_on_c, 0, 87, 0
2, 28828, Note_on_c, 0, 53, 0
2, 28843, Note_on_c, 0, 69, 0
2, 28866, Note_on_c, 0, 53, 80
2, 28868, Note_on_c, 0, 57, 80
2, 28868, Note_on_c, 0, 63, 80
2, 28868, Note_on_c, 0, 67, 80
2, 28868, Note_on_c, 0, 72, 80
2, 28868, Note_on_c, 0, 75, 80
2, 28868, Note_on_c, 0, 79, 80
2, 28868, Note_on_c, 0, 84, 80
2, 28868, Note_on_c, 0, 91, 80
2, 28870, Note_on_c, 0, 87, 80
2, 28923, Note_on_c, 0, 57, 0
2, 28923, Note_on_c, 0, 53, 0
2, 28951, Note_on_c, 0, 79, 0
2, 28951, Note_on_c, 0, 67, 0
2, 28998, Note_on_c, 0, 46, 80
2, 29003, Note_on_c, 0, 58, 80
2, 29003, Note_on_c, 0, 67, 80
2, 29003, Note_on_c, 0, 79, 80
2, 29005, Note_on_c, 0, 84, 0
2, 29005, Note_on_c, 0, 60, 0
2, 29005, Note_on_c, 0, 87, 0
2, 29005, Note_on_c, 0, 63, 0
2, 29005, Note_on_c, 0, 72, 0
2, 29005, Note_on_c, 0, 75, 0
2, 29007, Note_on_c, 0, 91, 0
2, 29033, Note_on_c, 0, 79, 0
2, 29070, Note_on_c, 0, 70, 80
2, 29070, Note_on_c, 0, 74, 80
2, 29070, Note_on_c, 0, 79, 80
2, 29070, Note_on_c, 0, 82, 80
2, 29070, Note_on_c, 0, 86, 80
2, 29070, Note_on_c, 0, 91, 80
2, 29072, Note_on_c, 0, 67, 0
2, 29103, Note_on_c, 0, 91, 0
2, 29103, Note_on_c, 0, 86, 0
2, 29103, Note_on_c, 0, 82, 0
2, 29138, Note_on_c, 0, 53, 80
2, 29138, Note_on_c, 0, 62, 80
2, 29140, Note_on_c, 0, 46, 0
2, 29197, Note_on_c, 0, 74, 0
2, 29197, Note_on_c, 0, 70, 0
2, 29197, Note_on_c, 0, 62, 0
2, 29199, Note_on_c, 0, 79, 0
2, 29206, Note_on_c, 0, 65, 80
2, 29206, Note_on_c, 0, 77, 80
2, 29227, Note_on_c, 0, 53, 0
2, 29241, Note_on_c, 0, 77, 0
2, 29274, Note_on_c, 0, 29, 80
2, 29276, Note_on_c, 0, 41, 80
2, 29276, Note_on_c, 0, 53, 80
2, 29278, Note_on_c, 0, 70, 80
2, 29278, Note_on_c, 0, 74, 80
2, 29278, Note_on_c, 0, 77, 80
2, 29278, Note_on_c, 0, 82, 80
2, 29278, Note_on_c, 0, 86, 80
2, 29278, Note_on_c, 0, 89, 80
2, 29280, Note_on_c, 0, 65, 0
2, 29305, Note_on_c, 0, 82, 0
2, 29305, Note_on_c, 0, 89, 0
2, 29305, Note_on_c, 0, 86, 0
2, 29317, Note_on_c, 0, 29, 0
2, 29333, Note_on_c, 0, 41, 0
2, 29361, Note_on_c, 0, 53, 0
2, 29413, Note_on_c, 0, 53, 80
2, 29415, Note_on_c, 0, 62, 80
2, 29415, Note_on_c, 0, 67, 80
2, 29415, Note_on_c, 0, 79, 80
2, 29417, Note_on_c, 0, 74, 0
2, 29417, Note_on_c, 0, 70, 0
2, 29419, Note_on_c, 0, 77, 0
2, 29445, Note_on_c, 0, 79, 0
2, 29472, Note_on_c, 0, 58, 0
2, 29482, Note_on_c, 0, 70, 80
2, 29482, Note_on_c, 0, 74, 80
2, 29482, Note_on_c, 0, 79, 80
2, 29482, Note_on_c, 0, 82, 80
2, 29482, Note_on_c, 0, 86, 80
2, 29482, Note_on_c, 0, 91, 80
2, 29484, Note_on_c, 0, 67, 0
2, 29512, Note_on_c, 0, 91, 0
2, 29512, Note_on_c, 0, 86, 0
2, 29512, Note_on_c, 0, 82, 0
2, 29547, Note_on_c, 0, 46, 80
2, 29547, Note_on_c, 0, 58, 80
2, 29552, Note_on_c, 0, 62, 0
2, 29552, Note_on_c, 0, 53, 0
2, 29604, Note_on_c, 0, 79, 0
2, 29604, Note_on_c, 0, 74, 0
2, 29604, Note_on_c, 0, 70, 0
2, 29614, Note_on_c, 0, 65, 80
2, 29614, Note_on_c, 0, 77, 80
2, 29646, Note_on_c, 0, 77, 0
2, 29684, Note_on_c, 0, 46, 0
2, 29684, Note_on_c, 0, 53, 80
2, 29684, Note_on_c, 0, 62, 80
2, 29684, Note_on_c, 0, 70, 80
2, 29684, Note_on_c, 0, 74, 80
2, 29684, Note_on_c, 0, 77, 80
2, 29684, Note_on_c, 0, 82, 80
2, 29684, Note_on_c, 0, 86, 80
2, 29684, Note_on_c, 0, 89, 80
2, 29686, Note_on_c, 0, 65, 0
2, 29713, Note_on_c, 0, 82, 0
2, 29715, Note_on_c, 0, 86, 0
2, 29715, Note_on_c, 0, 89, 0
2, 29764, Note_on_c, 0, 70, 0
2, 29764, Note_on_c, 0, 74, 0
2, 29766, Note_on_c, 0, 77, 0
2, 29776, Note_on_c, 0, 62, 0
2, 29776, Note_on_c, 0, 53, 0
2, 29811, Note_on_c, 0, 29, 80
2, 29811, Note_on_c, 0, 41, 80
2, 29813, Note_on_c, 0, 53, 80
2, 29813, Note_on_c, 0, 67, 80
2, 29813, Note_on_c, 0, 70, 80
2, 29813, Note_on_c, 0, 74, 80
2, 29813, Note_on_c, 0, 79, 80
2, 29813, Note_on_c, 0, 82, 80
2, 29813, Note_on_c, 0, 86, 80
2, 29813, Note_on_c, 0, 91, 80
2, 29844, Note_on_c, 0, 86, 0
2, 29844, Note_on_c, 0, 82, 0
2, 29846, Note_on_c, 0, 91, 0
2, 29895, Note_on_c, 0, 74, 0
2, 29895, Note_on_c, 0, 79, 0
2, 29895, Note_on_c, 0, 67, 0
2, 29895, Note_on_c, 0, 70, 0
2, 29904, Note_on_c, 0, 29, 0
2, 29906, Note_on_c, 0, 41, 0
2, 29908, Note_on_c, 0, 53, 0
2, 29944, Note_on_c, 0, 53, 80
2, 29946, Note_on_c, 0, 62, 80
2, 29946, Note_on_c, 0, 65, 80
2, 29946, Note_on_c, 0, 70, 80
2, 29946, Note_on_c, 0, 74, 80
2, 29946, Note_on_c, 0, 77, 80
2, 29946, Note_on_c, 0, 82, 80
2, 29946, Note_on_c, 0, 86, 80
2, 29946, Note_on_c, 0, 89, 80
2, 30000, Note_on_c, 0, 62, 0
2, 30025, Note_on_c, 0, 53, 0
2, 30074, Note_on_c, 0, 39, 80
2, 30074, Note_on_c, 0, 51, 80
2, 30074, Note_on_c, 0, 54, 80
2, 30076, Note_on_c, 0, 66, 80
2, 30076, Note_on_c, 0, 78, 80
2, 30078, Note_on_c, 0, 70, 0
2, 30078, Note_on_c, 0, 86, 0
2, 30078, Note_on_c, 0, 82, 0
2, 30078, Note_on_c, 0, 58, 0
2, 30078, Note_on_c, 0, 65, 0
2, 30078, Note_on_c, 0, 74, 0
2, 30078, Note_on_c, 0, 77, 0
2, 30080, Note_on_c, 0, 89, 0
2, 30108, Note_on_c, 0, 78, 0
2, 30145, Note_on_c, 0, 70, 80
2, 30145, Note_on_c, 0, 75, 80
2, 30145, Note_on_c, 0, 78, 80
2, 30145, Note_on_c, 0, 82, 80
2, 30145, Note_on_c, 0, 87, 80
2, 30145, Note_on_c, 0, 90, 80
2, 30147, Note_on_c, 0, 66, 0
2, 30173, Note_on_c, 0, 90, 0
2, 30173, Note_on_c, 0, 82, 0
2, 30173, Note_on_c, 0, 87, 0
2, 30199, Note_on_c, 0, 75, 0
2, 30199, Note_on_c, 0, 70, 0
2, 30199, Note_on_c, 0, 78, 0
2, 30209, Note_on_c, 0, 58, 80
2, 30209, Note_on_c, 0, 63, 80
2, 30211, Note_on_c, 0, 39, 0
2, 30211, Note_on_c, 0, 51, 0
2, 30239, Note_on_c, 0, 63, 0
2, 30239, Note_on_c, 0, 58, 0
2, 30276, Note_on_c, 0, 70, 80
2, 30276, Note_on_c, 0, 82, 80
2, 30307, Note_on_c, 0, 82, 0
2, 30307, Note_on_c, 0, 70, 0
2, 30344, Note_on_c, 0, 42, 80
2, 30344, Note_on_c, 0, 70, 80
2, 30344, Note_on_c, 0, 75, 80
2, 30344, Note_on_c, 0, 78, 80
2, 30344, Note_on_c, 0, 82, 80
2, 30344, Note_on_c, 0, 87, 80
2, 30344, Note_on_c, 0, 90, 80
2, 30344, Note_on_c, 0, 94, 80
2, 30377, Note_on_c, 0, 94, 0
2, 30377, Note_on_c, 0, 90, 0
2, 30377, Note_on_c, 0, 87, 0
2, 30388, Note_on_c, 0, 78, 0
2, 30388, Note_on_c, 0, 75, 0
2, 30388, Note_on_c, 0, 70, 0
2, 30388, Note_on_c, 0, 82, 0
2, 30480, Note_on_c, 0, 39, 80
2, 30480, Note_on_c, 0, 51, 80
2, 30480, Note_on_c, 0, 66, 80
2, 30480, Note_on_c, 0, 70, 80
2, 30481, Note_on_c, 0, 75, 80
2, 30481, Note_on_c, 0, 78, 80
2, 30481, Note_on_c, 0, 82, 80
2, 30481, Note_on_c, 0, 87, 80
2, 30481, Note_on_c, 0, 91, 80
2, 30483, Note_on_c, 0, 42, 0
2, 30603, Note_on_c, 0, 78, 0
2, 30610, Note_on_c, 0, 38, 80
2, 30610, Note_on_c, 0, 50, 80
2, 30612, Note_on_c, 0, 65, 80
2, 30612, Note_on_c, 0, 77, 80
2, 30614, Note_on_c, 0, 51, 0
2, 30614, Note_on_c, 0, 54, 0
2, 30614, Note_on_c, 0, 39, 0
2, 30616, Note_on_c, 0, 66, 0
2, 30616, Note_on_c, 0, 87, 0
2, 30616, Note_on_c, 0, 82, 0
2, 30616, Note_on_c, 0, 91, 0
2, 30616, Note_on_c, 0, 75, 0
2, 30616, Note_on_c, 0, 70, 0
2, 30639, Note_on_c, 0, 77, 0
2, 30676, Note_on_c, 0, 74, 80
2, 30678, Note_on_c, 0, 65, 0
2, 30678, Note_on_c, 0, 70, 80
2, 30678, Note_on_c, 0, 77, 80
2, 30678, Note_on_c, 0, 82, 80
2, 30678, Note_on_c, 0, 86, 80
2, 30678, Note_on_c, 0, 89, 80
2, 30709, Note_on_c, 0, 89, 0
2, 30709, Note_on_c, 0, 86, 0
2, 30709, Note_on_c, 0, 77, 0
2, 30709, Note_on_c, 0, 70, 0
2, 30709, Note_on_c, 0, 74, 0
2, 30709, Note_on_c, 0, 82, 0
2, 30746, Note_on_c, 0, 38, 0
2, 30746, Note_on_c, 0, 53, 80
2, 30746, Note_on_c, 0, 58, 80
2, 30746, Note_on_c, 0, 62, 80
2, 30748, Note_on_c, 0, 50, 0
2, 30776, Note_on_c, 0, 62, 0
2, 30776, Note_on_c, 0, 58, 0
2, 30816, Note_on_c, 0, 65, 80
2, 30816, Note_on_c, 0, 77, 80
2, 30849, Note_on_c, 0, 77, 0
2, 30885, Note_on_c, 0, 38, 80
2, 30887, Note_on_c, 0, 50, 80
2, 30887, Note_on_c, 0, 74, 80
2, 30887, Note_on_c, 0, 77, 80
2, 30887, Note_on_c, 0, 81, 80
2, 30887, Note_on_c, 0, 86, 80
2, 30887, Note_on_c, 0, 89, 80
2, 30887, Note_on_c, 0, 93, 80
2, 30887, Note_on_c, 0, 98, 80
2, 30888, Note_on_c, 0, 65, 0
2, 30914, Note_on_c, 0, 93, 0
2, 30914, Note_on_c, 0, 74, 0
2, 30916, Note_on_c, 0, 89, 0
2, 30916, Note_on_c, 0, 86, 0
2, 30916, Note_on_c, 0, 77, 0
2, 30916, Note_on_c, 0, 98, 0
2, 30916, Note_on_c, 0, 81, 0
2, 30965, Note_on_c, 0, 50, 0
2, 30965, Note_on_c, 0, 38, 0
2, 31014, Note_on_c, 0, 39, 80
2, 31014, Note_on_c, 0, 51, 80
2, 31014, Note_on_c, 0, 72, 80
2, 31014, Note_on_c, 0, 77, 80
2, 31016, Note_on_c, 0, 81, 80
2, 31016, Note_on_c, 0, 84, 80
2, 31016, Note_on_c, 0, 89, 80
2, 31016, Note_on_c, 0, 93, 80
2, 31016, Note_on_c, 0, 96, 80
2, 31047, Note_on_c, 0, 96, 0
2, 31047, Note_on_c, 0, 93, 0
2, 31047, Note_on_c, 0, 84, 0
2, 31047, Note_on_c, 0, 72, 0
2, 31047, Note_on_c, 0, 77, 0
2, 31047, Note_on_c, 0, 89, 0
2, 31047, Note_on_c, 0, 81, 0
2, 31148, Note_on_c, 0, 46, 80
2, 31150, Note_on_c, 0, 70, 80
2, 31150, Note_on_c, 0, 74, 80
2, 31150, Note_on_c, 0, 77, 80
2, 31150, Note_on_c, 0, 82, 80
2, 31150, Note_on_c, 0, 86, 80
2, 31150, Note_on_c, 0, 89, 80
2, 31150, Note_on_c, 0, 94, 80
2, 31152, Note_on_c, 0, 51, 0
2, 31152, Note_on_c, 0, 39, 0
2, 31152, Note_on_c, 0, 53, 0
2, 31177, Note_on_c, 0, 82, 0
2, 31177, Note_on_c, 0, 70, 0
2, 31177, Note_on_c, 0, 77, 0
2, 31177, Note_on_c, 0, 74, 0
2, 31189, Note_on_c, 0, 86, 0
2, 31191, Note_on_c, 0, 94, 0
2, 31191, Note_on_c, 0, 89, 0
2, 31210, Control_c, 0, 64, 127
2, 31212, Note_on_c, 0, 58, 80
2, 31212, Note_on_c, 0, 62, 80
2, 31277, Note_on_c, 0, 60, 80
2, 31277, Note_on_c, 0, 63, 80
2, 31279, Note_on_c, 0, 62, 0
2, 31279, Note_on_c, 0, 58, 0
2, 31343, Note_on_c, 0, 61, 80
2, 31343, Note_on_c, 0, 64, 80
2, 31344, Note_on_c, 0, 63, 0
2, 31344, Note_on_c, 0, 60, 0
2, 31408, Note_on_c, 0, 62, 80
2, 31408, Note_on_c, 0, 65, 80
2, 31410, Note_on_c, 0, 64, 0
2, 31410, Note_on_c, 0, 61, 0
2, 31419, Control_c, 0, 64, 0
2, 31462, Note_on_c, 0, 46, 0
2, 31504, Note_on_c, 0, 65, 0
2, 31541, Note_on_c, 0, 41, 80
2, 31541, Note_on_c, 0, 53, 80
2, 31541, Note_on_c, 0, 65, 80
2, 31541, Note_on_c, 0, 69, 80
2, 31541, Note_on_c, 0, 72, 80
2, 31541, Note_on_c, 0, 77, 80
2, 31546, Note_on_c, 0, 62, 0
2, 31572, Note_on_c, 0, 72, 0
2, 31572, Note_on_c, 0, 69, 0
2, 31572, Note_on_c, 0, 65, 0
2, 31572, Note_on_c, 0, 77, 0
2, 31675, Note_on_c, 0, 34, 80
2, 31675, Note_on_c, 0, 46, 80
2, 31675, Note_on_c, 0, 70, 80
2, 31675, Note_on_c, 0, 74, 80
2, 31675, Note_on_c, 0, 77, 80
2, 31675, Note_on_c, 0, 82, 80
2, 31677, Note_on_c, 0, 41, 0
2, 31677, Note_on_c, 0, 53, 0
2, 31686, Control_c, 0, 64, 127
2, 31810, Note_on_c, 0, 65, 80
2, 31812, Note_on_c, 0, 82, 0
2, 31812, Note_on_c, 0, 70, 0
2, 31812, Note_on_c, 0, 74, 0
2, 31814, Note_on_c, 0, 77, 0
2, 31879, Note_on_c, 0, 64, 80
2, 31879, Note_on_c, 0, 67, 80
2, 31881, Note_on_c, 0, 65, 0
2, 31944, Note_on_c, 0, 63, 80
2, 31944, Note_on_c, 0, 69, 80
2, 31946, Note_on_c, 0, 64, 0
2, 31948, Note_on_c, 0, 67, 0
2, 31989, Control_c, 0, 64, 0
2, 32015, Note_on_c, 0, 62, 80
2, 32015, Note_on_c, 0, 70, 80
2, 32016, Note_on_c, 0, 46, 0
2, 32016, Note_on_c, 0, 34, 0
2, 32018, Note_on_c, 0, 63, 0
2, 32018, Note_on_c, 0, 69, 0
2, 32082, Note_on_c, 0, 36, 80
2, 32082, Note_on_c, 0, 48, 80
2, 32082, Note_on_c, 0, 60, 80
2, 32082, Note_on_c, 0, 72, 80
2, 32082, Note_on_c, 0, 76, 80
2, 32082, Note_on_c, 0, 79, 80
2, 32082, Note_on_c, 0, 82, 80
2, 32082, Note_on_c, 0, 84, 80
2, 32084, Note_on_c, 0, 62, 0
2, 32086, Note_on_c, 0, 70, 0
2, 32201, Note_on_c, 0, 60, 0
2, 32210, Control_c, 0, 64, 127
2, 32210, Note_on_c, 0, 41, 80
2, 32212, Note_on_c, 0, 36, 0
2, 32212, Note_on_c, 0, 65, 80
2, 32212, Note_on_c, 0, 69, 80
2, 32212, Note_on_c, 0, 74, 80
2, 32214, Note_on_c, 0, 48, 0
2, 32216, Note_on_c, 0, 82, 0
2, 32216, Note_on_c, 0, 84, 0
2, 32216, Note_on_c, 0, 79, 0
2, 32216, Note_on_c, 0, 76, 0
2, 32216, Note_on_c, 0, 72, 0
2, 32242, Note_on_c, 0, 74, 0
2, 32242, Note_on_c, 0, 69, 0
2, 32242, Note_on_c, 0, 65, 0
2, 32280, Note_on_c, 0, 72, 80
2, 32307, Control_c, 0, 64, 0
2, 32350, Note_on_c, 0, 53, 80
2, 32350, Note_on_c, 0, 57, 80
2, 32350, Note_on_c, 0, 60, 80
2, 32352, Note_on_c, 0, 41, 0
2, 32379, Note_on_c, 0, 57, 0
2, 32379, Note_on_c, 0, 53, 0
2, 32381, Note_on_c, 0, 60, 0
2, 32419, Note_on_c, 0, 70, 80
2, 32421, Note_on_c, 0, 72, 0
2, 32486, Note_on_c, 0, 36, 80
2, 32488, Note_on_c, 0, 69, 80
2, 32493, Note_on_c, 0, 70, 0
2, 32553, Note_on_c, 0, 68, 80
2, 32555, Note_on_c, 0, 69, 0
2, 32618, Note_on_c, 0, 53, 80
2, 32618, Note_on_c, 0, 57, 80
2, 32618, Note_on_c, 0, 60, 80
2, 32618, Note_on_c, 0, 69, 80
2, 32620, Note_on_c, 0, 36, 0
2, 32622, Note_on_c, 0, 68, 0
2, 32648, Note_on_c, 0, 60, 0
2, 32648, Note_on_c, 0, 57, 0
2, 32648, Note_on_c, 0, 53, 0
2, 32686, Note_on_c, 0, 67, 80
2, 32688, Note_on_c, 0, 69, 0
2, 32713, Note_on_c, 0, 67, 0
2, 32751, Note_on_c, 0, 41, 80
2, 32751, Note_on_c, 0, 65, 80
2, 32774, Control_c, 0, 64, 127
2, 32816, Note_on_c, 0, 67, 80
2, 32823, Note_on_c, 0, 65, 0
2, 32870, Control_c, 0, 64, 0
2, 32880, Note_on_c, 0, 53, 80
2, 32880, Note_on_c, 0, 57, 80
2, 32880, Note_on_c, 0, 60, 80
2, 32880, Note_on_c, 0, 69, 80
2, 32884, Note_on_c, 0, 67, 0
2, 32884, Note_on_c, 0, 41, 0
2, 32910, Note_on_c, 0, 60, 0
2, 32910, Note_on_c, 0, 57, 0
2, 32910, Note_on_c, 0, 53, 0
2, 32951, Note_on_c, 0, 72, 80
2, 32951, Note_on_c, 0, 84, 80
2, 32952, Note_on_c, 0, 69, 0
2, 33018, Note_on_c, 0, 36, 80
2, 33018, Note_on_c, 0, 81, 80
2, 33018, Note_on_c, 0, 89, 80
2, 33020, Note_on_c, 0, 84, 0
2, 33085, Note_on_c, 0, 77, 80
2, 33085, Note_on_c, 0, 84, 80
2, 33085, Note_on_c, 0, 93, 80
2, 33087, Note_on_c, 0, 65, 80
2, 33089, Note_on_c, 0, 81, 0
2, 33089, Note_on_c, 0, 89, 0
2, 33089, Note_on_c, 0, 72, 0
2, 33152, Note_on_c, 0, 53, 80
2, 33152, Note_on_c, 0, 57, 80
2, 33152, Note_on_c, 0, 60, 80
2, 33152, Note_on_c, 0, 69, 80
2, 33152, Note_on_c, 0, 72, 80
2, 33152, Note_on_c, 0, 81, 80
2, 33152, Note_on_c, 0, 89, 80
2, 33152, Note_on_c, 0, 96, 80
2, 33154, Note_on_c, 0, 36, 0
2, 33154, Note_on_c, 0, 84, 0
2, 33154, Note_on_c, 0, 65, 0
2, 33154, Note_on_c, 0, 77, 0
2, 33154, Note_on_c, 0, 93, 0
2, 33180, Note_on_c, 0, 69, 0
2, 33180, Note_on_c, 0, 60, 0
2, 33180, Note_on_c, 0, 57, 0
2, 33180, Note_on_c, 0, 96, 0
2, 33180, Note_on_c, 0, 53, 0
2, 33180, Note_on_c, 0, 89, 0
2, 33180, Note_on_c, 0, 72, 0
2, 33180, Note_on_c, 0, 81, 0
2, 33286, Note_on_c, 0, 41, 80
2, 33286, Note_on_c, 0, 65, 80
2, 33286, Note_on_c, 0, 69, 80
2, 33286, Note_on_c, 0, 74, 80
2, 33286, Note_on_c, 0, 81, 80
2, 33286, Note_on_c, 0, 89, 80
2, 33316, Note_on_c, 0, 89, 0
2, 33316, Note_on_c, 0, 65, 0
2, 33316, Note_on_c, 0, 69, 0
2, 33316, Note_on_c, 0, 74, 0
2, 33316, Note_on_c, 0, 81, 0
2, 33337, Control_c, 0, 64, 127
2, 33354, Note_on_c, 0, 72, 80
2, 33394, Control_c, 0, 64, 0
2, 33425, Note_on_c, 0, 41, 0
2, 33425, Note_on_c, 0, 53, 80
2, 33425, Note_on_c, 0, 57, 80
2, 33425, Note_on_c, 0, 60, 80
2, 33427, Note_on_c, 0, 72, 0
2, 33453, Note_on_c, 0, 53, 0
2, 33453, Note_on_c, 0, 57, 0
2, 33453, Note_on_c, 0, 60, 0
2, 33493, Note_on_c, 0, 70, 80
2, 33558, Note_on_c, 0, 36, 80
2, 33558, Note_on_c, 0, 69, 80
2, 33563, Note_on_c, 0, 70, 0
2, 33626, Note_on_c, 0, 68, 80
2, 33628, Note_on_c, 0, 69, 0
2, 33694, Note_on_c, 0, 36, 0
2, 33694, Note_on_c, 0, 53, 80
2, 33694, Note_on_c, 0, 57, 80
2, 33694, Note_on_c, 0, 60, 80
2, 33694, Note_on_c, 0, 69, 80
2, 33696, Note_on_c, 0, 68, 0
2, 33721, Note_on_c, 0, 60, 0
2, 33721, Note_on_c, 0, 53, 0
2, 33721, Note_on_c, 0, 57, 0
2, 33759, Note_on_c, 0, 70, 80
2, 33761, Note_on_c, 0, 69, 0
2, 33792, Note_on_c, 0, 70, 0
2, 33824, Note_on_c, 0, 72, 80
2, 33826, Note_on_c, 0, 41, 80
2, 33826, Note_on_c, 0, 65, 80
2, 33826, Note_on_c, 0, 69, 80
2, 33854, Note_on_c, 0, 69, 0
2, 33854, Note_on_c, 0, 65, 0
2, 33854, Note_on_c, 0, 72, 0
2, 33865, Control_c, 0, 64, 127
2, 33955, Note_on_c, 0, 45, 80
2, 33957, Control_c, 0, 64, 0
2, 33957, Note_on_c, 0, 57, 80
2, 33957, Note_on_c, 0, 65, 80
2, 33957, Note_on_c, 0, 72, 80
2, 33957, Note_on_c, 0, 77, 80
2, 33957, Note_on_c, 0, 84, 80
2, 33959, Note_on_c, 0, 41, 0
2, 33984, Note_on_c, 0, 77, 0
2, 33984, Note_on_c, 0, 84, 0
2, 34020, Note_on_c, 0, 69, 80
2, 34022, Note_on_c, 0, 65, 0
2, 34022, Note_on_c, 0, 81, 80
2, 34024, Note_on_c, 0, 72, 0
2, 34050, Note_on_c, 0, 69, 0
2, 34050, Note_on_c, 0, 81, 0
2, 34082, Note_on_c, 0, 48, 80
2, 34084, Note_on_c, 0, 60, 80
2, 34084, Note_on_c, 0, 65, 80
2, 34084, Note_on_c, 0, 72, 80
2, 34084, Note_on_c, 0, 77, 80
2, 34084, Note_on_c, 0, 84, 80
2, 34086, Note_on_c, 0, 57, 0
2, 34086, Note_on_c, 0, 45, 0
2, 34112, Note_on_c, 0, 84, 0
2, 34112, Note_on_c, 0, 77, 0
2, 34148, Note_on_c, 0, 69, 80
2, 34148, Note_on_c, 0, 81, 80
2, 34150, Note_on_c, 0, 65, 0
2, 34150, Note_on_c, 0, 72, 0
2, 34177, Note_on_c, 0, 69, 0
2, 34177, Note_on_c, 0, 81, 0
2, 34215, Note_on_c, 0, 51, 80
2, 34215, Note_on_c, 0, 63, 80
2, 34215, Note_on_c, 0, 65, 80
2, 34215, Note_on_c, 0, 72, 80
2, 34215, Note_on_c, 0, 77, 80
2, 34215, Note_on_c, 0, 84, 80
2, 34217, Note_on_c, 0, 60, 0
2, 34217, Note_on_c, 0, 48, 0
2, 34240, Note_on_c, 0, 72, 0
2, 34240, Note_on_c, 0, 51, 0
2, 34240, Note_on_c, 0, 65, 0
2, 34240, Note_on_c, 0, 84, 0
2, 34240, Note_on_c, 0, 77, 0
2, 34240, Note_on_c, 0, 63, 0
2, 34345, Note_on_c, 0, 38, 80
2, 34347, Note_on_c, 0, 50, 80
2, 34347, Note_on_c, 0, 65, 80
2, 34373, Control_c, 0, 64, 127
2, 34417, Note_on_c, 0, 70, 80
2, 34417, Note_on_c, 0, 77, 80
2, 34417, Note_on_c, 0, 86, 80
2, 34419, Note_on_c, 0, 65, 0
2, 34431, Control_c, 0, 64, 0
2, 34445, Note_on_c, 0, 86, 0
2, 34483, Note_on_c, 0, 53, 80
2, 34483, Note_on_c, 0, 58, 80
2, 34483, Note_on_c, 0, 62, 80
2, 34483, Note_on_c, 0, 82, 80
2, 34483, Note_on_c, 0, 89, 80
2, 34485, Note_on_c, 0, 38, 0
2, 34485, Note_on_c, 0, 50, 0
2, 34511, Note_on_c, 0, 89, 0
2, 34511, Note_on_c, 0, 62, 0
2, 34511, Note_on_c, 0, 58, 0
2, 34511, Note_on_c, 0, 82, 0
2, 34511, Note_on_c, 0, 53, 0
2, 34548, Note_on_c, 0, 65, 80
2, 34550, Note_on_c, 0, 70, 0
2, 34550, Note_on_c, 0, 77, 0
2, 34613, Note_on_c, 0, 37, 80
2, 34615, Note_on_c, 0, 49, 80
2, 34615, Note_on_c, 0, 70, 80
2, 34615, Note_on_c, 0, 77, 80
2, 34615, Note_on_c, 0, 85, 80
2, 34617, Note_on_c, 0, 65, 0
2, 34645, Note_on_c, 0, 85, 0
2, 34682, Note_on_c, 0, 82, 80
2, 34682, Note_on_c, 0, 89, 80
2, 34715, Note_on_c, 0, 89, 0
2, 34715, Note_on_c, 0, 82, 0
2, 34751, Note_on_c, 0, 53, 80
2, 34751, Note_on_c, 0, 58, 80
2, 34751, Note_on_c, 0, 61, 80
2, 34751, Note_on_c, 0, 65, 80
2, 34752, Note_on_c, 0, 37, 0
2, 34754, Note_on_c, 0, 77, 0
2, 34754, Note_on_c, 0, 70, 0
2, 34754, Note_on_c, 0, 49, 0
2, 34780, Note_on_c, 0, 53, 0
2, 34780, Note_on_c, 0, 61, 0
2, 34780, Note_on_c, 0, 58, 0
2, 34821, Note_on_c, 0, 69, 80
2, 34821, Note_on_c, 0, 77, 80
2, 34821, Note_on_c, 0, 84, 80
2, 34823, Note_on_c, 0, 65, 0
2, 34850, Note_on_c, 0, 84, 0
2, 34888, Note_on_c, 0, 36, 80
2, 34888, Note_on_c, 0, 48, 80
2, 34890, Note_on_c, 0, 81, 80
2, 34890, Note_on_c, 0, 89, 80
2, 34901, Control_c, 0, 64, 127
2, 34920, Note_on_c, 0, 89, 0
2, 34920, Note_on_c, 0, 81, 0
2, 34958, Note_on_c, 0, 81, 80
2, 34958, Note_on_c, 0, 84, 80
2, 34958, Note_on_c, 0, 93, 80
2, 34960, Note_on_c, 0, 69, 0
2, 34960, Note_on_c, 0, 77, 0
2, 34986, Note_on_c, 0, 84, 0
2, 34986, Note_on_c, 0, 93, 0
2, 34988, Note_on_c, 0, 81, 0
2, 34999, Control_c, 0, 64, 0
2, 35022, Note_on_c, 0, 57, 80
2, 35022, Note_on_c, 0, 60, 80
2, 35022, Note_on_c, 0, 65, 80
2, 35022, Note_on_c, 0, 77, 80
2, 35022, Note_on_c, 0, 89, 80
2, 35022, Note_on_c, 0, 96, 80
2, 35027, Note_on_c, 0, 36, 0
2, 35027, Note_on_c, 0, 48, 0
2, 35053, Note_on_c, 0, 57, 0
2, 35053, Note_on_c, 0, 60, 0
2, 35053, Note_on_c, 0, 65, 0
2, 35053, Note_on_c, 0, 96, 0
2, 35053, Note_on_c, 0, 89, 0
2, 35090, Note_on_c, 0, 69, 80
2, 35090, Note_on_c, 0, 93, 80
2, 35090, Note_on_c, 0, 101, 80
2, 35092, Note_on_c, 0, 77, 0
2, 35118, Note_on_c, 0, 101, 0
2, 35118, Note_on_c, 0, 93, 0
2, 35120, Note_on_c, 0, 69, 0
2, 35156, Note_on_c, 0, 96, 80
2, 35158, Note_on_c, 0, 45, 80
2, 35158, Note_on_c, 0, 57, 80
2, 35158, Note_on_c, 0, 65, 80
2, 35158, Note_on_c, 0, 72, 80
2, 35158, Note_on_c, 0, 89, 80
2, 35185, Note_on_c, 0, 96, 0
2, 35187, Note_on_c, 0, 89, 0
2, 35223, Control_c, 0, 64, 127
2, 35225, Note_on_c, 0, 71, 80
2, 35225, Note_on_c, 0, 86, 80
2, 35225, Note_on_c, 0, 95, 80
2, 35227, Note_on_c, 0, 65, 0
2, 35227, Note_on_c, 0, 72, 0
2, 35253, Note_on_c, 0, 86, 0
2, 35253, Note_on_c, 0, 95, 0
2, 35279, Control_c, 0, 64, 0
2, 35290, Note_on_c, 0, 44, 80
2, 35290, Note_on_c, 0, 56, 80
2, 35290, Note_on_c, 0, 72, 80
2, 35290, Note_on_c, 0, 84, 80
2, 35290, Note_on_c, 0, 89, 80
2, 35292, Note_on_c, 0, 45, 0
2, 35292, Note_on_c, 0, 57, 0
2, 35292, Note_on_c, 0, 71, 0
2, 35320, Note_on_c, 0, 89, 0
2, 35320, Note_on_c, 0, 84, 0
2, 35357, Note_on_c, 0, 74, 80
2, 35357, Note_on_c, 0, 83, 80
2, 35357, Note_on_c, 0, 86, 80
2, 35359, Note_on_c, 0, 72, 0
2, 35385, Note_on_c, 0, 56, 0
2, 35385, Note_on_c, 0, 74, 0
2, 35385, Note_on_c, 0, 44, 0
2, 35385, Note_on_c, 0, 86, 0
2, 35385, Note_on_c, 0, 83, 0
2, 35423, Control_c, 0, 64, 127
2, 35423, Note_on_c, 0, 43, 80
2, 35423, Note_on_c, 0, 55, 80
2, 35423, Note_on_c, 0, 76, 80
2, 35423, Note_on_c, 0, 79, 80
2, 35423, Note_on_c, 0, 88, 80
2, 35453, Note_on_c, 0, 88, 0
2, 35453, Note_on_c, 0, 79, 0
2, 35489, Note_on_c, 0, 91, 80
2, 35491, Note_on_c, 0, 67, 80
2, 35491, Note_on_c, 0, 72, 80
2, 35491, Note_on_c, 0, 84, 80
2, 35496, Note_on_c, 0, 76, 0
2, 35519, Control_c, 0, 64, 0
2, 35520, Note_on_c, 0, 72, 0
2, 35520, Note_on_c, 0, 55, 0
2, 35520, Note_on_c, 0, 91, 0
2, 35520, Note_on_c, 0, 67, 0
2, 35520, Note_on_c, 0, 84, 0
2, 35558, Note_on_c, 0, 55, 80
2, 35558, Note_on_c, 0, 60, 80
2, 35558, Note_on_c, 0, 64, 80
2, 35558, Note_on_c, 0, 91, 80
2, 35558, Note_on_c, 0, 100, 80
2, 35563, Note_on_c, 0, 43, 0
2, 35589, Note_on_c, 0, 60, 0
2, 35589, Note_on_c, 0, 64, 0
2, 35589, Note_on_c, 0, 55, 0
2, 35589, Note_on_c, 0, 100, 0
2, 35589, Note_on_c, 0, 91, 0
2, 35629, Note_on_c, 0, 76, 80
2, 35629, Note_on_c, 0, 88, 80
2, 35629, Note_on_c, 0, 96, 80
2, 35660, Note_on_c, 0, 96, 0
2, 35660, Note_on_c, 0, 88, 0
2, 35697, Note_on_c, 0, 43, 80
2, 35697, Note_on_c, 0, 55, 80
2, 35697, Note_on_c, 0, 65, 80
2, 35697, Note_on_c, 0, 71, 80
2, 35697, Note_on_c, 0, 74, 80
2, 35697, Note_on_c, 0, 89, 80
2, 35697, Note_on_c, 0, 98, 80
2, 35699, Note_on_c, 0, 76, 0
2, 35725, Note_on_c, 0, 98, 0
2, 35725, Note_on_c, 0, 74, 0
2, 35725, Note_on_c, 0, 71, 0
2, 35725, Note_on_c, 0, 65, 0
2, 35725, Note_on_c, 0, 89, 0
2, 35762, Note_on_c, 0, 86, 80
2, 35762, Note_on_c, 0, 95, 80
2, 35790, Note_on_c, 0, 95, 0
2, 35790, Note_on_c, 0, 86, 0
2, 35790, Note_on_c, 0, 55, 0
2, 35816, Note_on_c, 0, 43, 0
2, 35828, Note_on_c, 0, 91, 80
2, 35830, Note_on_c, 0, 55, 80
2, 35830, Note_on_c, 0, 59, 80
2, 35830, Note_on_c, 0, 62, 80
2, 35830, Note_on_c, 0, 65, 80
2, 35830, Note_on_c, 0, 71, 80
2, 35830, Note_on_c, 0, 76, 80
2, 35830, Note_on_c, 0, 83, 80
2, 35857, Note_on_c, 0, 83, 0
2, 35857, Note_on_c, 0, 91, 0
2, 35857, Note_on_c, 0, 62, 0
2, 35857, Note_on_c, 0, 59, 0
2, 35857, Note_on_c, 0, 55, 0
2, 35893, Note_on_c, 0, 64, 80
2, 35895, Note_on_c, 0, 72, 80
2, 35897, Note_on_c, 0, 76, 0
2, 35897, Note_on_c, 0, 71, 0
2, 35897, Note_on_c, 0, 65, 0
2, 35960, Note_on_c, 0, 36, 80
2, 35960, Note_on_c, 0, 48, 80
2, 35988, Control_c, 0, 64, 127
2, 36058, Note_on_c, 0, 64, 0
2, 36058, Note_on_c, 0, 72, 0
2, 36084, Control_c, 0, 64, 0
2, 36096, Note_on_c, 0, 43, 80
2, 36096, Note_on_c, 0, 64, 80
2, 36097, Note_on_c, 0, 36, 0
2, 36097, Note_on_c, 0, 55, 80
2, 36097, Note_on_c, 0, 84, 80
2, 36099, Note_on_c, 0, 48, 0
2, 36127, Note_on_c, 0, 84, 0
2, 36163, Note_on_c, 0, 65, 80
2, 36163, Note_on_c, 0, 86, 80
2, 36168, Note_on_c, 0, 64, 0
2, 36189, Control_c, 0, 64, 127
2, 36193, Note_on_c, 0, 86, 0
2, 36231, Note_on_c, 0, 40, 80
2, 36231, Note_on_c, 0, 52, 80
2, 36231, Note_on_c, 0, 67, 80
2, 36231, Note_on_c, 0, 88, 80
2, 36233, Note_on_c, 0, 55, 0
2, 36233, Note_on_c, 0, 65, 0
2, 36233, Note_on_c, 0, 43, 0
2, 36261, Note_on_c, 0, 88, 0
2, 36298, Note_on_c, 0, 69, 80
2, 36298, Note_on_c, 0, 89, 80
2, 36300, Note_on_c, 0, 67, 0
2, 36328, Note_on_c, 0, 89, 0
2, 36365, Control_c, 0, 64, 0
2, 36365, Note_on_c, 0, 36, 80
2, 36365, Note_on_c, 0, 48, 80
2, 36365, Note_on_c, 0, 70, 80
2, 36365, Note_on_c, 0, 91, 80
2, 36367, Note_on_c, 0, 52, 0
2, 36367, Note_on_c, 0, 69, 0
2, 36367, Note_on_c, 0, 40, 0
2, 36395, Note_on_c, 0, 91, 0
2, 36432, Note_on_c, 0, 72, 80
2, 36432, Note_on_c, 0, 84, 80
2, 36437, Note_on_c, 0, 70, 0
2, 36460, Note_on_c, 0, 84, 0
2, 36498, Note_on_c, 0, 41, 80
2, 36498, Note_on_c, 0, 65, 80
2, 36498, Note_on_c, 0, 69, 80
2, 36498, Note_on_c, 0, 74, 80
2, 36503, Note_on_c, 0, 48, 0
2, 36503, Note_on_c, 0, 72, 0
2, 36503, Note_on_c, 0, 36, 0
2, 36512, Control_c, 0, 64, 127
2, 36527, Note_on_c, 0, 65, 0
2, 36527, Note_on_c, 0, 74, 0
2, 36527, Note_on_c, 0, 69, 0
2, 36567, Note_on_c, 0, 72, 80
2, 36609, Control_c, 0, 64, 0
2, 36635, Note_on_c, 0, 53, 80
2, 36635, Note_on_c, 0, 57, 80
2, 36635, Note_on_c, 0, 60, 80
2, 36637, Note_on_c, 0, 41, 0
2, 36665, Note_on_c, 0, 57, 0
2, 36665, Note_on_c, 0, 53, 0
2, 36667, Note_on_c, 0, 60, 0
2, 36704, Note_on_c, 0, 70, 80
2, 36706, Note_on_c, 0, 72, 0
2, 36769, Note_on_c, 0, 36, 80
2, 36771, Note_on_c, 0, 69, 80
2, 36773, Note_on_c, 0, 70, 0
2, 36832, Note_on_c, 0, 68, 80
2, 36837, Note_on_c, 0, 69, 0
2, 36897, Note_on_c, 0, 53, 80
2, 36897, Note_on_c, 0, 57, 80
2, 36897, Note_on_c, 0, 60, 80
2, 36897, Note_on_c, 0, 69, 80
2, 36899, Note_on_c, 0, 68, 0
2, 36899, Note_on_c, 0, 36, 0
2, 36925, Note_on_c, 0, 60, 0
2, 36925, Note_on_c, 0, 57, 0
2, 36925, Note_on_c, 0, 53, 0
2, 36960, Note_on_c, 0, 67, 80
2, 36965, Note_on_c, 0, 69, 0
2, 36993, Note_on_c, 0, 67, 0
2, 37029, Control_c, 0, 64, 127
2, 37029, Note_on_c, 0, 41, 80
2, 37029, Note_on_c, 0, 65, 80
2, 37092, Note_on_c, 0, 67, 80
2, 37097, Note_on_c, 0, 65, 0
2, 37118, Control_c, 0, 64, 0
2, 37158, Note_on_c, 0, 57, 80
2, 37160, Note_on_c, 0, 41, 0
2, 37160, Note_on_c, 0, 53, 80
2, 37160, Note_on_c, 0, 60, 80
2, 37160, Note_on_c, 0, 69, 80
2, 37162, Note_on_c, 0, 67, 0
2, 37185, Note_on_c, 0, 60, 0
2, 37185, Note_on_c, 0, 57, 0
2, 37185, Note_on_c, 0, 53, 0
2, 37218, Note_on_c, 0, 72, 80
2, 37218, Note_on_c, 0, 84, 80
2, 37227, Note_on_c, 0, 69, 0
2, 37284, Note_on_c, 0, 36, 80
2, 37286, Note_on_c, 0, 81, 80
2, 37286, Note_on_c, 0, 89, 80
2, 37288, Note_on_c, 0, 84, 0
2, 37299, Control_c, 0, 64, 127
2, 37353, Note_on_c, 0, 65, 80
2, 37353, Note_on_c, 0, 77, 80
2, 37353, Note_on_c, 0, 84, 80
2, 37353, Note_on_c, 0, 93, 80
2, 37355, Note_on_c, 0, 81, 0
2, 37355, Note_on_c, 0, 89, 0
2, 37355, Note_on_c, 0, 72, 0
2, 37392, Control_c, 0, 64, 0
2, 37418, Note_on_c, 0, 53, 80
2, 37418, Note_on_c, 0, 57, 80
2, 37418, Note_on_c, 0, 60, 80
2, 37418, Note_on_c, 0, 69, 80
2, 37418, Note_on_c, 0, 72, 80
2, 37418, Note_on_c, 0, 81, 80
2, 37418, Note_on_c, 0, 89, 80
2, 37418, Note_on_c, 0, 96, 80
2, 37420, Note_on_c, 0, 36, 0
2, 37420, Note_on_c, 0, 77, 0
2, 37420, Note_on_c, 0, 93, 0
2, 37420, Note_on_c, 0, 84, 0
2, 37422, Note_on_c, 0, 65, 0
2, 37448, Note_on_c, 0, 69, 0
2, 37448, Note_on_c, 0, 60, 0
2, 37448, Note_on_c, 0, 57, 0
2, 37448, Note_on_c, 0, 96, 0
2, 37448, Note_on_c, 0, 53, 0
2, 37448, Note_on_c, 0, 89, 0
2, 37448, Note_on_c, 0, 81, 0
2, 37448, Note_on_c, 0, 72, 0
2, 37554, Note_on_c, 0, 41, 80
2, 37556, Note_on_c, 0, 65, 80
2, 37556, Note_on_c, 0, 69, 80
2, 37556, Note_on_c, 0, 74, 80
2, 37556, Note_on_c, 0, 81, 80
2, 37556, Note_on_c, 0, 89, 80
2, 37582, Control_c, 0, 64, 127
2, 37584, Note_on_c, 0, 89, 0
2, 37584, Note_on_c, 0, 65, 0
2, 37584, Note_on_c, 0, 69, 0
2, 37584, Note_on_c, 0, 74, 0
2, 37584, Note_on_c, 0, 81, 0
2, 37621, Note_on_c, 0, 72, 80
2, 37637, Control_c, 0, 64, 0
2, 37689, Note_on_c, 0, 57, 80
2, 37691, Note_on_c, 0, 53, 80
2, 37691, Note_on_c, 0, 60, 80
2, 37693, Note_on_c, 0, 72, 0
2, 37693, Note_on_c, 0, 41, 0
2, 37721, Note_on_c, 0, 53, 0
2, 37721, Note_on_c, 0, 57, 0
2, 37721, Note_on_c, 0, 60, 0
2, 37758, Note_on_c, 0, 70, 80
2, 37831, Note_on_c, 0, 36, 80
2, 37831, Note_on_c, 0, 69, 80
2, 37836, Note_on_c, 0, 70, 0
2, 37899, Note_on_c, 0, 68, 80
2, 37901, Note_on_c, 0, 69, 0
2, 37967, Note_on_c, 0, 53, 80
2, 37967, Note_on_c, 0, 57, 80
2, 37967, Note_on_c, 0, 60, 80
2, 37967, Note_on_c, 0, 69, 80
2, 37968, Note_on_c, 0, 68, 0
2, 37968, Note_on_c, 0, 36, 0
2, 37996, Note_on_c, 0, 60, 0
2, 37996, Note_on_c, 0, 57, 0
2, 37996, Note_on_c, 0, 53, 0
2, 38032, Note_on_c, 0, 70, 80
2, 38037, Note_on_c, 0, 69, 0
2, 38064, Note_on_c, 0, 70, 0
2, 38100, Note_on_c, 0, 41, 80
2, 38100, Note_on_c, 0, 65, 80
2, 38100, Note_on_c, 0, 69, 80
2, 38100, Note_on_c, 0, 72, 80
2, 38112, Control_c, 0, 64, 127
2, 38131, Note_on_c, 0, 72, 0
2, 38131, Note_on_c, 0, 69, 0
2, 38131, Note_on_c, 0, 65, 0
2, 38206, Control_c, 0, 64, 0
2, 38232, Note_on_c, 0, 45, 80
2, 38233, Note_on_c, 0, 57, 80
2, 38233, Note_on_c, 0, 65, 80
2, 38233, Note_on_c, 0, 72, 80
2, 38233, Note_on_c, 0, 77, 80
2, 38233, Note_on_c, 0, 84, 80
2, 38235, Note_on_c, 0, 41, 0
2, 38263, Note_on_c, 0, 77, 0
2, 38263, Note_on_c, 0, 84, 0
2, 38299, Note_on_c, 0, 69, 80
2, 38299, Note_on_c, 0, 81, 80
2, 38301, Note_on_c, 0, 65, 0
2, 38301, Note_on_c, 0, 72, 0
2, 38327, Note_on_c, 0, 69, 0
2, 38327, Note_on_c, 0, 81, 0
2, 38362, Note_on_c, 0, 48, 80
2, 38362, Note_on_c, 0, 60, 80
2, 38362, Note_on_c, 0, 65, 80
2, 38362, Note_on_c, 0, 72, 80
2, 38364, Note_on_c, 0, 45, 0
2, 38364, Note_on_c, 0, 77, 80
2, 38364, Note_on_c, 0, 84, 80
2, 38369, Note_on_c, 0, 57, 0
2, 38392, Note_on_c, 0, 77, 0
2, 38392, Note_on_c, 0, 84, 0
2, 38427, Note_on_c, 0, 69, 80
2, 38427, Note_on_c, 0, 81, 80
2, 38429, Note_on_c, 0, 65, 0
2, 38429, Note_on_c, 0, 72, 0
2, 38455, Note_on_c, 0, 69, 0
2, 38457, Note_on_c, 0, 81, 0
2, 38495, Note_on_c, 0, 51, 80
2, 38495, Note_on_c, 0, 72, 80
2, 38496, Note_on_c, 0, 63, 80
2, 38496, Note_on_c, 0, 65, 80
2, 38496, Note_on_c, 0, 77, 80
2, 38496, Note_on_c, 0, 84, 80
2, 38498, Note_on_c, 0, 60, 0
2, 38498, Note_on_c, 0, 48, 0
2, 38524, Note_on_c, 0, 72, 0
2, 38524, Note_on_c, 0, 51, 0
2, 38524, Note_on_c, 0, 63, 0
2, 38524, Note_on_c, 0, 84, 0
2, 38524, Note_on_c, 0, 65, 0
2, 38526, Note_on_c, 0, 77, 0
2, 38629, Note_on_c, 0, 38, 80
2, 38629, Note_on_c, 0, 50, 80
2, 38629, Note_on_c, 0, 65, 80
2, 38666, Control_c, 0, 64, 127
2, 38694, Note_on_c, 0, 70, 80
2, 38694, Note_on_c, 0, 77, 80
2, 38694, Note_on_c, 0, 86, 80
2, 38696, Note_on_c, 0, 65, 0
2, 38724, Control_c, 0, 64, 0
2, 38726, Note_on_c, 0, 86, 0
2, 38761, Note_on_c, 0, 53, 80
2, 38761, Note_on_c, 0, 58, 80
2, 38761, Note_on_c, 0, 62, 80
2, 38761, Note_on_c, 0, 82, 80
2, 38761, Note_on_c, 0, 89, 80
2, 38763, Note_on_c, 0, 38, 0
2, 38765, Note_on_c, 0, 50, 0
2, 38791, Note_on_c, 0, 82, 0
2, 38791, Note_on_c, 0, 89, 0
2, 38829, Note_on_c, 0, 65, 80
2, 38831, Note_on_c, 0, 77, 0
2, 38831, Note_on_c, 0, 58, 0
2, 38831, Note_on_c, 0, 53, 0
2, 38831, Note_on_c, 0, 70, 0
2, 38831, Note_on_c, 0, 62, 0
2, 38894, Note_on_c, 0, 37, 80
2, 38894, Note_on_c, 0, 49, 80
2, 38896, Note_on_c, 0, 70, 80
2, 38896, Note_on_c, 0, 77, 80
2, 38896, Note_on_c, 0, 85, 80
2, 38898, Note_on_c, 0, 65, 0
2, 38924, Note_on_c, 0, 85, 0
2, 38961, Note_on_c, 0, 82, 80
2, 38961, Note_on_c, 0, 89, 80
2, 38994, Note_on_c, 0, 89, 0
2, 38994, Note_on_c, 0, 82, 0
2, 39031, Note_on_c, 0, 53, 80
2, 39031, Note_on_c, 0, 58, 80
2, 39031, Note_on_c, 0, 61, 80
2, 39031, Note_on_c, 0, 65, 80
2, 39033, Note_on_c, 0, 37, 0
2, 39033, Note_on_c, 0, 49, 0
2, 39035, Note_on_c, 0, 77, 0
2, 39035, Note_on_c, 0, 70, 0
2, 39058, Note_on_c, 0, 53, 0
2, 39058, Note_on_c, 0, 61, 0
2, 39058, Note_on_c, 0, 58, 0
2, 39096, Note_on_c, 0, 69, 80
2, 39096, Note_on_c, 0, 77, 80
2, 39096, Note_on_c, 0, 84, 80
2, 39100, Note_on_c, 0, 65, 0
2, 39126, Note_on_c, 0, 84, 0
2, 39162, Note_on_c, 0, 36, 80
2, 39164, Note_on_c, 0, 48, 80
2, 39164, Note_on_c, 0, 81, 80
2, 39164, Note_on_c, 0, 89, 80
2, 39190, Control_c, 0, 64, 127
2, 39194, Note_on_c, 0, 89, 0
2, 39194, Note_on_c, 0, 81, 0
2, 39232, Note_on_c, 0, 81, 80
2, 39232, Note_on_c, 0, 84, 80
2, 39232, Note_on_c, 0, 93, 80
2, 39234, Note_on_c, 0, 69, 0
2, 39234, Note_on_c, 0, 77, 0
2, 39283, Control_c, 0, 64, 0
2, 39294, Note_on_c, 0, 57, 80
2, 39294, Note_on_c, 0, 65, 80
2, 39296, Note_on_c, 0, 60, 80
2, 39296, Note_on_c, 0, 77, 80
2, 39296, Note_on_c, 0, 89, 80
2, 39296, Note_on_c, 0, 96, 80
2, 39298, Note_on_c, 0, 36, 0
2, 39298, Note_on_c, 0, 84, 0
2, 39298, Note_on_c, 0, 48, 0
2, 39298, Note_on_c, 0, 81, 0
2, 39298, Note_on_c, 0, 93, 0
2, 39324, Note_on_c, 0, 65, 0
2, 39324, Note_on_c, 0, 96, 0
2, 39324, Note_on_c, 0, 89, 0
2, 39324, Note_on_c, 0, 60, 0
2, 39324, Note_on_c, 0, 57, 0
2, 39361, Note_on_c, 0, 72, 80
2, 39361, Note_on_c, 0, 93, 80
2, 39363, Note_on_c, 0, 101, 80
2, 39365, Note_on_c, 0, 77, 0
2, 39388, Note_on_c, 0, 93, 0
2, 39390, Note_on_c, 0, 101, 0
2, 39426, Note_on_c, 0, 36, 80
2, 39426, Note_on_c, 0, 48, 80
2, 39428, Note_on_c, 0, 69, 80
2, 39428, Note_on_c, 0, 89, 80
2, 39428, Note_on_c, 0, 96, 80
2, 39432, Note_on_c, 0, 72, 0
2, 39458, Note_on_c, 0, 89, 0
2, 39458, Note_on_c, 0, 96, 0
2, 39496, Note_on_c, 0, 72, 80
2, 39496, Note_on_c, 0, 93, 80
2, 39498, Note_on_c, 0, 69, 0
2, 39524, Note_on_c, 0, 93, 0
2, 39561, Note_on_c, 0, 57, 80
2, 39561, Note_on_c, 0, 60, 80
2, 39561, Note_on_c, 0, 74, 80
2, 39561, Note_on_c, 0, 89, 80
2, 39563, Note_on_c, 0, 36, 0
2, 39563, Note_on_c, 0, 72, 0
2, 39563, Note_on_c, 0, 48, 0
2, 39589, Note_on_c, 0, 60, 0
2, 39589, Note_on_c, 0, 57, 0
2, 39589, Note_on_c, 0, 89, 0
2, 39624, Note_on_c, 0, 77, 80
2, 39624, Note_on_c, 0, 84, 80
2, 39626, Note_on_c, 0, 74, 0
2, 39654, Note_on_c, 0, 84, 0
2, 39654, Note_on_c, 0, 77, 0
2, 39690, Note_on_c, 0, 38, 80
2, 39692, Note_on_c, 0, 59, 80
2, 39692, Note_on_c, 0, 65, 80
2, 39692, Note_on_c, 0, 71, 80
2, 39692, Note_on_c, 0, 77, 80
2, 39706, Control_c, 0, 64, 127
2, 39818, Note_on_c, 0, 37, 80
2, 39820, Note_on_c, 0, 49, 80
2, 39820, Note_on_c, 0, 58, 80
2, 39822, Note_on_c, 0, 38, 0
2, 39822, Note_on_c, 0, 70, 80
2, 39824, Note_on_c, 0, 71, 0
2, 39824, Note_on_c, 0, 59, 0
2, 39834, Control_c, 0, 64, 0
2, 39899, Note_on_c, 0, 77, 0
2, 39899, Note_on_c, 0, 65, 0
2, 39911, Note_on_c, 0, 49, 0
2, 39911, Note_on_c, 0, 58, 0
2, 39911, Note_on_c, 0, 37, 0
2, 39912, Note_on_c, 0, 70, 0
2, 39950, Note_on_c, 0, 36, 80
2, 39950, Note_on_c, 0, 48, 80
2, 39950, Note_on_c, 0, 58, 80
2, 39950, Note_on_c, 0, 64, 80
2, 39950, Note_on_c, 0, 67, 80
2, 39950, Note_on_c, 0, 70, 80
2, 39950, Note_on_c, 0, 76, 80
2, 39950, Note_on_c, 0, 79, 80
2, 39976, Control_c, 0, 64, 127
2, 39981, Note_on_c, 0, 76, 0
2, 39981, Note_on_c, 0, 58, 0
2, 39981, Note_on_c, 0, 64, 0
2, 39981, Note_on_c, 0, 70, 0
2, 40018, Note_on_c, 0, 58, 80
2, 40018, Note_on_c, 0, 64, 80
2, 40018, Note_on_c, 0, 69, 80
2, 40018, Note_on_c, 0, 70, 80
2, 40018, Note_on_c, 0, 76, 80
2, 40018, Note_on_c, 0, 81, 80
2, 40020, Note_on_c, 0, 67, 0
2, 40020, Note_on_c, 0, 79, 0
2, 40111, Note_on_c, 0, 69, 0
2, 40149, Control_c, 0, 64, 0
2, 40149, Note_on_c, 0, 57, 80
2, 40151, Note_on_c, 0, 58, 0
2, 40151, Note_on_c, 0, 64, 0
2, 40151, Note_on_c, 0, 65, 80
2, 40151, Note_on_c, 0, 69, 80
2, 40151, Note_on_c, 0, 77, 80
2, 40152, Note_on_c, 0, 76, 0
2, 40152, Note_on_c, 0, 81, 0
2, 40152, Note_on_c, 0, 70, 0
2, 40218, Note_on_c, 0, 41, 80
2, 40218, Note_on_c, 0, 53, 80
2, 40220, Note_on_c, 0, 36, 0
2, 40220, Note_on_c, 0, 48, 0
2, 40257, Control_c, 0, 64, 127
2, 40290, Note_on_c, 0, 77, 0
2, 40292, Note_on_c, 0, 65, 0
2, 40344, Note_on_c, 0, 65, 80
2, 40344, Note_on_c, 0, 77, 80
2, 40360, Note_on_c, 0, 57, 0
2, 40362, Note_on_c, 0, 69, 0
2, 40427, Note_on_c, 0, 67, 80
2, 40427, Note_on_c, 0, 79, 80
2, 40429, Note_on_c, 0, 65, 0
2, 40429, Note_on_c, 0, 77, 0
2, 40497, Note_on_c, 0, 69, 80
2, 40497, Note_on_c, 0, 81, 80
2, 40499, Note_on_c, 0, 67, 0
2, 40499, Note_on_c, 0, 79, 0
2, 40564, Control_c, 0, 64, 0
2, 40564, Note_on_c, 0, 70, 80
2, 40564, Note_on_c, 0, 82, 80
2, 40566, Note_on_c, 0, 69, 0
2, 40566, Note_on_c, 0, 81, 0
2, 40594, Note_on_c, 0, 82, 0
2, 40632, Note_on_c, 0, 36, 80
2, 40633, Note_on_c, 0, 41, 0
2, 40633, Note_on_c, 0, 48, 80
2, 40633, Note_on_c, 0, 72, 80
2, 40633, Note_on_c, 0, 76, 80
2, 40633, Note_on_c, 0, 82, 80
2, 40633, Note_on_c, 0, 84, 80
2, 40635, Note_on_c, 0, 53, 0
2, 40635, Note_on_c, 0, 70, 0
2, 40764, Note_on_c, 0, 41, 80
2, 40766, Note_on_c, 0, 36, 0
2, 40766, Note_on_c, 0, 74, 80
2, 40766, Note_on_c, 0, 77, 80
2, 40766, Note_on_c, 0, 81, 80
2, 40766, Note_on_c, 0, 86, 80
2, 40766, Note_on_c, 0, 98, 80
2, 40768, Note_on_c, 0, 48, 0
2, 40770, Note_on_c, 0, 82, 0
2, 40770, Note_on_c, 0, 72, 0
2, 40770, Note_on_c, 0, 84, 0
2, 40770, Note_on_c, 0, 76, 0
2, 40789, Control_c, 0, 64, 127
2, 40796, Note_on_c, 0, 74, 0
2, 40798, Note_on_c, 0, 86, 0
2, 40798, Note_on_c, 0, 98, 0
2, 40798, Note_on_c, 0, 81, 0
2, 40798, Note_on_c, 0, 77, 0
2, 40830, Note_on_c, 0, 72, 80
2, 40832, Note_on_c, 0, 84, 80
2, 40832, Note_on_c, 0, 96, 80
2, 40842, Control_c, 0, 64, 0
2, 40898, Note_on_c, 0, 53, 80
2, 40898, Note_on_c, 0, 57, 80
2, 40900, Note_on_c, 0, 60, 80
2, 40902, Note_on_c, 0, 41, 0
2, 40930, Note_on_c, 0, 57, 0
2, 40930, Note_on_c, 0, 53, 0
2, 40930, Note_on_c, 0, 60, 0
2, 40968, Note_on_c, 0, 70, 80
2, 40968, Note_on_c, 0, 94, 80
2, 40969, Note_on_c, 0, 72, 0
2, 40969, Note_on_c, 0, 82, 80
2, 40971, Note_on_c, 0, 96, 0
2, 40971, Note_on_c, 0, 84, 0
2, 41032, Note_on_c, 0, 36, 80
2, 41037, Note_on_c, 0, 69, 80
2, 41037, Note_on_c, 0, 81, 80
2, 41037, Note_on_c, 0, 93, 80
2, 41039, Note_on_c, 0, 70, 0
2, 41039, Note_on_c, 0, 82, 0
2, 41039, Note_on_c, 0, 94, 0
2, 41102, Note_on_c, 0, 68, 80
2, 41102, Note_on_c, 0, 80, 80
2, 41107, Note_on_c, 0, 69, 0
2, 41107, Note_on_c, 0, 92, 80
2, 41109, Note_on_c, 0, 93, 0
2, 41109, Note_on_c, 0, 81, 0
2, 41172, Note_on_c, 0, 53, 80
2, 41172, Note_on_c, 0, 57, 80
2, 41174, Note_on_c, 0, 36, 0
2, 41174, Note_on_c, 0, 60, 80
2, 41174, Note_on_c, 0, 69, 80
2, 41174, Note_on_c, 0, 81, 80
2, 41174, Note_on_c, 0, 93, 80
2, 41176, Note_on_c, 0, 68, 0
2, 41176, Note_on_c, 0, 80, 0
2, 41176, Note_on_c, 0, 92, 0
2, 41199, Note_on_c, 0, 57, 0
2, 41199, Note_on_c, 0, 53, 0
2, 41199, Note_on_c, 0, 60, 0
2, 41239, Note_on_c, 0, 67, 80
2, 41239, Note_on_c, 0, 79, 80
2, 41239, Note_on_c, 0, 91, 80
2, 41241, Note_on_c, 0, 81, 0
2, 41241, Note_on_c, 0, 69, 0
2, 41243, Note_on_c, 0, 93, 0
2, 41269, Note_on_c, 0, 67, 0
2, 41269, Note_on_c, 0, 91, 0
2, 41269, Note_on_c, 0, 79, 0
2, 41304, Note_on_c, 0, 41, 80
2, 41304, Note_on_c, 0, 65, 80
2, 41304, Note_on_c, 0, 77, 80
2, 41306, Note_on_c, 0, 89, 80
2, 41316, Control_c, 0, 64, 127
2, 41376, Note_on_c, 0, 67, 80
2, 41376, Note_on_c, 0, 91, 80
2, 41378, Note_on_c, 0, 65, 0
2, 41378, Note_on_c, 0, 79, 80
2, 41380, Note_on_c, 0, 89, 0
2, 41380, Note_on_c, 0, 77, 0
2, 41418, Control_c, 0, 64, 0
2, 41446, Note_on_c, 0, 53, 80
2, 41446, Note_on_c, 0, 57, 80
2, 41446, Note_on_c, 0, 60, 80
2, 41446, Note_on_c, 0, 69, 80
2, 41446, Note_on_c, 0, 93, 80
2, 41448, Note_on_c, 0, 67, 0
2, 41448, Note_on_c, 0, 41, 0
2, 41449, Note_on_c, 0, 91, 0
2, 41475, Note_on_c, 0, 57, 0
2, 41475, Note_on_c, 0, 53, 0
2, 41475, Note_on_c, 0, 60, 0
2, 41516, Note_on_c, 0, 65, 80
2, 41516, Note_on_c, 0, 72, 80
2, 41516, Note_on_c, 0, 84, 80
2, 41516, Note_on_c, 0, 96, 80
2, 41518, Note_on_c, 0, 93, 0
2, 41518, Note_on_c, 0, 79, 0
2, 41518, Note_on_c, 0, 69, 0
2, 41576, Note_on_c, 0, 36, 80
2, 41578, Note_on_c, 0, 69, 80
2, 41578, Note_on_c, 0, 77, 80
2, 41580, Note_on_c, 0, 72, 0
2, 41580, Note_on_c, 0, 65, 0
2, 41648, Note_on_c, 0, 72, 80
2, 41648, Note_on_c, 0, 81, 80
2, 41648, Note_on_c, 0, 89, 80
2, 41650, Note_on_c, 0, 84, 0
2, 41650, Note_on_c, 0, 69, 0
2, 41650, Note_on_c, 0, 96, 0
2, 41650, Note_on_c, 0, 77, 0
2, 41709, Note_on_c, 0, 53, 80
2, 41711, Note_on_c, 0, 57, 80
2, 41711, Note_on_c, 0, 60, 80
2, 41712, Note_on_c, 0, 36, 0
2, 41712, Note_on_c, 0, 77, 80
2, 41712, Note_on_c, 0, 84, 80
2, 41712, Note_on_c, 0, 93, 80
2, 41714, Note_on_c, 0, 81, 0
2, 41714, Note_on_c, 0, 89, 0
2, 41714, Note_on_c, 0, 72, 0
2, 41737, Note_on_c, 0, 53, 0
2, 41737, Note_on_c, 0, 57, 0
2, 41739, Note_on_c, 0, 84, 0
2, 41739, Note_on_c, 0, 93, 0
2, 41739, Note_on_c, 0, 60, 0
2, 41739, Note_on_c, 0, 77, 0
2, 41845, Note_on_c, 0, 41, 80
2, 41847, Note_on_c, 0, 74, 80
2, 41847, Note_on_c, 0, 77, 80
2, 41847, Note_on_c, 0, 81, 80
2, 41847, Note_on_c, 0, 86, 80
2, 41849, Note_on_c, 0, 98, 80
2, 41877, Note_on_c, 0, 86, 0
2, 41877, Note_on_c, 0, 81, 0
2, 41877, Note_on_c, 0, 77, 0
2, 41877, Note_on_c, 0, 74, 0
2, 41879, Note_on_c, 0, 98, 0
2, 41914, Note_on_c, 0, 72, 80
2, 41914, Note_on_c, 0, 84, 80
2, 41914, Note_on_c, 0, 96, 80
2, 41924, Control_c, 0, 64, 127
2, 41976, Note_on_c, 0, 53, 80
2, 41976, Note_on_c, 0, 57, 80
2, 41977, Control_c, 0, 64, 0
2, 41977, Note_on_c, 0, 60, 80
2, 41979, Note_on_c, 0, 41, 0
2, 42005, Note_on_c, 0, 57, 0
2, 42005, Note_on_c, 0, 53, 0
2, 42005, Note_on_c, 0, 60, 0
2, 42043, Note_on_c, 0, 70, 80
2, 42045, Note_on_c, 0, 72, 0
2, 42045, Note_on_c, 0, 84, 0
2, 42045, Note_on_c, 0, 96, 0
2, 42045, Note_on_c, 0, 82, 80
2, 42045, Note_on_c, 0, 94, 80
2, 42108, Note_on_c, 0, 36, 80
2, 42108, Note_on_c, 0, 69, 80
2, 42110, Note_on_c, 0, 81, 80
2, 42110, Note_on_c, 0, 93, 80
2, 42112, Note_on_c, 0, 70, 0
2, 42114, Note_on_c, 0, 82, 0
2, 42114, Note_on_c, 0, 94, 0
2, 42177, Note_on_c, 0, 68, 80
2, 42177, Note_on_c, 0, 80, 80
2, 42177, Note_on_c, 0, 92, 80
2, 42179, Note_on_c, 0, 69, 0
2, 42179, Note_on_c, 0, 93, 0
2, 42179, Note_on_c, 0, 81, 0
2, 42238, Note_on_c, 0, 53, 80
2, 42238, Note_on_c, 0, 57, 80
2, 42238, Note_on_c, 0, 60, 80
2, 42240, Note_on_c, 0, 36, 0
2, 42240, Note_on_c, 0, 69, 80
2, 42240, Note_on_c, 0, 81, 80
2, 42240, Note_on_c, 0, 93, 80
2, 42241, Note_on_c, 0, 68, 0
2, 42241, Note_on_c, 0, 92, 0
2, 42241, Note_on_c, 0, 80, 0
2, 42264, Note_on_c, 0, 60, 0
2, 42264, Note_on_c, 0, 53, 0
2, 42264, Note_on_c, 0, 57, 0
2, 42302, Note_on_c, 0, 70, 80
2, 42304, Note_on_c, 0, 69, 0
2, 42304, Note_on_c, 0, 82, 80
2, 42304, Note_on_c, 0, 94, 80
2, 42306, Note_on_c, 0, 93, 0
2, 42306, Note_on_c, 0, 81, 0
2, 42329, Note_on_c, 0, 70, 0
2, 42331, Note_on_c, 0, 94, 0
2, 42331, Note_on_c, 0, 82, 0
2, 42368, Note_on_c, 0, 41, 80
2, 42368, Note_on_c, 0, 72, 80
2, 42368, Note_on_c, 0, 77, 80
2, 42370, Note_on_c, 0, 81, 80
2, 42370, Note_on_c, 0, 84, 80
2, 42370, Note_on_c, 0, 96, 80
2, 42391, Control_c, 0, 64, 127
2, 42398, Note_on_c, 0, 84, 0
2, 42398, Note_on_c, 0, 81, 0
2, 42398, Note_on_c, 0, 77, 0
2, 42398, Note_on_c, 0, 72, 0
2, 42400, Note_on_c, 0, 96, 0
2, 42486, Control_c, 0, 64, 0
2, 42498, Note_on_c, 0, 45, 80
2, 42500, Note_on_c, 0, 57, 80
2, 42502, Note_on_c, 0, 41, 0
2, 42502, Note_on_c, 0, 65, 80
2, 42502, Note_on_c, 0, 72, 80
2, 42502, Note_on_c, 0, 77, 80
2, 42502, Note_on_c, 0, 84, 80
2, 42567, Note_on_c, 0, 69, 80
2, 42569, Note_on_c, 0, 72, 0
2, 42569, Note_on_c, 0, 65, 0
2, 42569, Note_on_c, 0, 81, 80
2, 42571, Note_on_c, 0, 77, 0
2, 42571, Note_on_c, 0, 84, 0
2, 42597, Note_on_c, 0, 69, 0
2, 42597, Note_on_c, 0, 81, 0
2, 42634, Note_on_c, 0, 48, 80
2, 42634, Note_on_c, 0, 60, 80
2, 42636, Note_on_c, 0, 45, 0
2, 42636, Note_on_c, 0, 57, 0
2, 42636, Note_on_c, 0, 65, 80
2, 42636, Note_on_c, 0, 72, 80
2, 42636, Note_on_c, 0, 77, 80
2, 42636, Note_on_c, 0, 84, 80
2, 42699, Note_on_c, 0, 69, 80
2, 42699, Note_on_c, 0, 81, 80
2, 42701, Note_on_c, 0, 72, 0
2, 42701, Note_on_c, 0, 65, 0
2, 42703, Note_on_c, 0, 77, 0
2, 42703, Note_on_c, 0, 84, 0
2, 42726, Note_on_c, 0, 69, 0
2, 42726, Note_on_c, 0, 81, 0
2, 42762, Note_on_c, 0, 51, 80
2, 42764, Note_on_c, 0, 65, 80
2, 42766, Note_on_c, 0, 48, 0
2, 42766, Note_on_c, 0, 63, 80
2, 42766, Note_on_c, 0, 72, 80
2, 42766, Note_on_c, 0, 77, 80
2, 42766, Note_on_c, 0, 84, 80
2, 42768, Note_on_c, 0, 60, 0
2, 42791, Note_on_c, 0, 51, 0
2, 42792, Note_on_c, 0, 77, 0
2, 42792, Note_on_c, 0, 63, 0
2, 42792, Note_on_c, 0, 65, 0
2, 42792, Note_on_c, 0, 84, 0
2, 42792, Note_on_c, 0, 72, 0
2, 42895, Note_on_c, 0, 38, 80
2, 42895, Note_on_c, 0, 50, 80
2, 42897, Note_on_c, 0, 77, 80
2, 42907, Control_c, 0, 64, 127
2, 42965, Note_on_c, 0, 74, 80
2, 42965, Note_on_c, 0, 82, 80
2, 42967, Note_on_c, 0, 77, 0
2, 42967, Note_on_c, 0, 89, 80
2, 43003, Control_c, 0, 64, 0
2, 43031, Note_on_c, 0, 38, 0
2, 43031, Note_on_c, 0, 53, 80
2, 43031, Note_on_c, 0, 58, 80
2, 43031, Note_on_c, 0, 62, 80
2, 43031, Note_on_c, 0, 70, 80
2, 43031, Note_on_c, 0, 77, 80
2, 43032, Note_on_c, 0, 74, 0
2, 43032, Note_on_c, 0, 50, 0
2, 43056, Note_on_c, 0, 53, 0
2, 43060, Note_on_c, 0, 58, 0
2, 43060, Note_on_c, 0, 62, 0
2, 43062, Note_on_c, 0, 77, 0
2, 43093, Note_on_c, 0, 77, 80
2, 43095, Note_on_c, 0, 70, 0
2, 43097, Note_on_c, 0, 89, 0
2, 43097, Note_on_c, 0, 82, 0
2, 43157, Note_on_c, 0, 37, 80
2, 43159, Note_on_c, 0, 49, 80
2, 43159, Note_on_c, 0, 73, 80
2, 43161, Note_on_c, 0, 82, 80
2, 43161, Note_on_c, 0, 89, 80
2, 43166, Note_on_c, 0, 77, 0
2, 43229, Note_on_c, 0, 70, 80
2, 43229, Note_on_c, 0, 77, 80
2, 43231, Note_on_c, 0, 73, 0
2, 43257, Note_on_c, 0, 77, 0
2, 43285, Note_on_c, 0, 70, 0
2, 43295, Note_on_c, 0, 53, 80
2, 43295, Note_on_c, 0, 58, 80
2, 43295, Note_on_c, 0, 61, 80
2, 43296, Note_on_c, 0, 37, 0
2, 43296, Note_on_c, 0, 49, 0
2, 43296, Note_on_c, 0, 77, 80
2, 43298, Note_on_c, 0, 82, 0
2, 43298, Note_on_c, 0, 89, 0
2, 43321, Note_on_c, 0, 53, 0
2, 43321, Note_on_c, 0, 58, 0
2, 43321, Note_on_c, 0, 61, 0
2, 43362, Note_on_c, 0, 72, 80
2, 43364, Note_on_c, 0, 81, 80
2, 43364, Note_on_c, 0, 89, 80
2, 43366, Note_on_c, 0, 77, 0
2, 43393, Note_on_c, 0, 72, 0
2, 43424, Control_c, 0, 64, 127
2, 43426, Note_on_c, 0, 36, 80
2, 43426, Note_on_c, 0, 48, 80
2, 43428, Note_on_c, 0, 65, 80
2, 43428, Note_on_c, 0, 69, 80
2, 43428, Note_on_c, 0, 77, 80
2, 43456, Note_on_c, 0, 65, 0
2, 43458, Note_on_c, 0, 69, 0
2, 43458, Note_on_c, 0, 77, 0
2, 43498, Note_on_c, 0, 60, 80
2, 43498, Note_on_c, 0, 69, 80
2, 43498, Note_on_c, 0, 93, 80
2, 43500, Note_on_c, 0, 89, 0
2, 43500, Note_on_c, 0, 81, 0
2, 43519, Control_c, 0, 64, 0
2, 43526, Note_on_c, 0, 60, 0
2, 43566, Note_on_c, 0, 36, 0
2, 43566, Note_on_c, 0, 57, 80
2, 43566, Note_on_c, 0, 60, 80
2, 43566, Note_on_c, 0, 65, 80
2, 43566, Note_on_c, 0, 72, 80
2, 43568, Note_on_c, 0, 48, 0
2, 43568, Note_on_c, 0, 69, 0
2, 43568, Note_on_c, 0, 89, 80
2, 43570, Note_on_c, 0, 93, 0
2, 43593, Note_on_c, 0, 57, 0
2, 43593, Note_on_c, 0, 60, 0
2, 43593, Note_on_c, 0, 65, 0
2, 43631, Note_on_c, 0, 69, 80
2, 43631, Note_on_c, 0, 77, 80
2, 43632, Note_on_c, 0, 81, 80
2, 43634, Note_on_c, 0, 72, 0
2, 43636, Note_on_c, 0, 89, 0
2, 43662, Note_on_c, 0, 77, 0
2, 43698, Note_on_c, 0, 45, 80
2, 43698, Note_on_c, 0, 57, 80
2, 43698, Note_on_c, 0, 65, 80
2, 43700, Note_on_c, 0, 72, 80
2, 43700, Note_on_c, 0, 77, 80
2, 43700, Note_on_c, 0, 84, 80
2, 43702, Note_on_c, 0, 69, 0
2, 43704, Note_on_c, 0, 81, 0
2, 43767, Note_on_c, 0, 57, 0
2, 43767, Note_on_c, 0, 45, 0
2, 43767, Note_on_c, 0, 62, 80
2, 43767, Note_on_c, 0, 71, 80
2, 43767, Note_on_c, 0, 83, 80
2, 43769, Note_on_c, 0, 65, 0
2, 43769, Note_on_c, 0, 77, 0
2, 43769, Note_on_c, 0, 84, 0
2, 43769, Note_on_c, 0, 72, 0
2, 43829, Note_on_c, 0, 44, 80
2, 43831, Note_on_c, 0, 56, 80
2, 43831, Note_on_c, 0, 60, 80
2, 43831, Note_on_c, 0, 65, 80
2, 43833, Note_on_c, 0, 84, 80
2, 43835, Note_on_c, 0, 71, 0
2, 43835, Note_on_c, 0, 62, 0
2, 43837, Note_on_c, 0, 83, 0
2, 43860, Note_on_c, 0, 44, 0
2, 43860, Note_on_c, 0, 56, 0
2, 43862, Note_on_c, 0, 84, 0
2, 43899, Note_on_c, 0, 59, 80
2, 43899, Note_on_c, 0, 62, 80
2, 43901, Note_on_c, 0, 65, 0
2, 43901, Note_on_c, 0, 60, 0
2, 43901, Note_on_c, 0, 86, 80
2, 43965, Note_on_c, 0, 43, 80
2, 43965, Note_on_c, 0, 55, 80
2, 43965, Note_on_c, 0, 64, 80
2, 43967, Note_on_c, 0, 59, 0
2, 43967, Note_on_c, 0, 62, 0
2, 43967, Note_on_c, 0, 88, 80
2, 43968, Note_on_c, 0, 86, 0
2, 43988, Control_c, 0, 64, 127
2, 43994, Note_on_c, 0, 64, 0
2, 44035, Note_on_c, 0, 60, 80
2, 44035, Note_on_c, 0, 67, 80
2, 44035, Note_on_c, 0, 79, 80
2, 44035, Note_on_c, 0, 84, 80
2, 44037, Note_on_c, 0, 88, 0
2, 44048, Note_on_c, 0, 55, 0
2, 44063, Note_on_c, 0, 67, 0
2, 44063, Note_on_c, 0, 60, 0
2, 44084, Control_c, 0, 64, 0
2, 44100, Note_on_c, 0, 55, 80
2, 44100, Note_on_c, 0, 60, 80
2, 44100, Note_on_c, 0, 64, 80
2, 44100, Note_on_c, 0, 67, 80
2, 44102, Note_on_c, 0, 43, 0
2, 44102, Note_on_c, 0, 76, 80
2, 44104, Note_on_c, 0, 79, 0
2, 44104, Note_on_c, 0, 84, 0
2, 44127, Note_on_c, 0, 67, 0
2, 44127, Note_on_c, 0, 60, 0
2, 44127, Note_on_c, 0, 55, 0
2, 44127, Note_on_c, 0, 64, 0
2, 44129, Note_on_c, 0, 76, 0
2, 44164, Note_on_c, 0, 72, 80
2, 44166, Note_on_c, 0, 88, 80
2, 44194, Note_on_c, 0, 72, 0
2, 44232, Note_on_c, 0, 43, 80
2, 44233, Note_on_c, 0, 55, 80
2, 44233, Note_on_c, 0, 65, 80
2, 44233, Note_on_c, 0, 74, 80
2, 44233, Note_on_c, 0, 77, 80
2, 44235, Note_on_c, 0, 83, 80
2, 44235, Note_on_c, 0, 86, 80
2, 44237, Note_on_c, 0, 88, 0
2, 44260, Note_on_c, 0, 74, 0
2, 44260, Note_on_c, 0, 65, 0
2, 44262, Note_on_c, 0, 77, 0
2, 44262, Note_on_c, 0, 86, 0
2, 44262, Note_on_c, 0, 83, 0
2, 44298, Note_on_c, 0, 62, 80
2, 44298, Note_on_c, 0, 71, 80
2, 44328, Note_on_c, 0, 62, 0
2, 44328, Note_on_c, 0, 55, 0
2, 44343, Note_on_c, 0, 71, 0
2, 44364, Note_on_c, 0, 59, 80
2, 44366, Note_on_c, 0, 43, 0
2, 44366, Note_on_c, 0, 55, 80
2, 44366, Note_on_c, 0, 62, 80
2, 44366, Note_on_c, 0, 67, 80
2, 44366, Note_on_c, 0, 77, 80
2, 44366, Note_on_c, 0, 83, 80
2, 44368, Note_on_c, 0, 88, 80
2, 44394, Note_on_c, 0, 62, 0
2, 44394, Note_on_c, 0, 59, 0
2, 44394, Note_on_c, 0, 55, 0
2, 44396, Note_on_c, 0, 77, 0
2, 44396, Note_on_c, 0, 67, 0
2, 44396, Note_on_c, 0, 83, 0
2, 44396, Note_on_c, 0, 88, 0
2, 44433, Note_on_c, 0, 76, 80
2, 44433, Note_on_c, 0, 84, 80
2, 44496, Note_on_c, 0, 36, 80
2, 44496, Note_on_c, 0, 48, 80
2, 44595, Note_on_c, 0, 76, 0
2, 44631, Note_on_c, 0, 43, 80
2, 44631, Note_on_c, 0, 55, 80
2, 44631, Note_on_c, 0, 60, 80
2, 44633, Note_on_c, 0, 48, 0
2, 44633, Note_on_c, 0, 36, 0
2, 44635, Note_on_c, 0, 76, 80
2, 44635, Note_on_c, 0, 88, 80
2, 44637, Note_on_c, 0, 84, 0
2, 44660, Note_on_c, 0, 60, 0
2, 44669, Control_c, 0, 64, 127
2, 44700, Note_on_c, 0, 62, 80
2, 44700, Note_on_c, 0, 77, 80
2, 44700, Note_on_c, 0, 89, 80
2, 44702, Note_on_c, 0, 76, 0
2, 44702, Note_on_c, 0, 88, 0
2, 44762, Note_on_c, 0, 40, 80
2, 44762, Note_on_c, 0, 52, 80
2, 44764, Note_on_c, 0, 43, 0
2, 44764, Note_on_c, 0, 64, 80
2, 44764, Note_on_c, 0, 79, 80
2, 44766, Note_on_c, 0, 55, 0
2, 44766, Note_on_c, 0, 62, 0
2, 44766, Note_on_c, 0, 91, 80
2, 44768, Note_on_c, 0, 77, 0
2, 44768, Note_on_c, 0, 89, 0
2, 44829, Note_on_c, 0, 65, 80
2, 44831, Note_on_c, 0, 64, 0
2, 44831, Note_on_c, 0, 81, 80
2, 44831, Note_on_c, 0, 93, 80
2, 44832, Note_on_c, 0, 79, 0
2, 44832, Note_on_c, 0, 91, 0
2, 44893, Note_on_c, 0, 36, 80
2, 44895, Note_on_c, 0, 48, 80
2, 44895, Note_on_c, 0, 67, 80
2, 44895, Note_on_c, 0, 82, 80
2, 44897, Note_on_c, 0, 40, 0
2, 44897, Note_on_c, 0, 52, 0
2, 44897, Note_on_c, 0, 94, 80
2, 44899, Note_on_c, 0, 65, 0
2, 44899, Note_on_c, 0, 81, 0
2, 44899, Note_on_c, 0, 93, 0
2, 44918, Control_c, 0, 64, 0
2, 44962, Note_on_c, 0, 60, 80
2, 44962, Note_on_c, 0, 84, 80
2, 44962, Note_on_c, 0, 96, 80
2, 44964, Note_on_c, 0, 67, 0
2, 44966, Note_on_c, 0, 94, 0
2, 44966, Note_on_c, 0, 82, 0
2, 45024, Note_on_c, 0, 41, 80
2, 45026, Note_on_c, 0, 36, 0
2, 45026, Note_on_c, 0, 74, 80
2, 45026, Note_on_c, 0, 77, 80
2, 45026, Note_on_c, 0, 81, 80
2, 45026, Note_on_c, 0, 86, 80
2, 45028, Note_on_c, 0, 48, 0
2, 45028, Note_on_c, 0, 98, 80
2, 45030, Note_on_c, 0, 84, 0
2, 45030, Note_on_c, 0, 96, 0
2, 45030, Note_on_c, 0, 60, 0
2, 45058, Note_on_c, 0, 77, 0
2, 45058, Note_on_c, 0, 86, 0
2, 45058, Note_on_c, 0, 81, 0
2, 45058, Note_on_c, 0, 98, 0
2, 45058, Note_on_c, 0, 74, 0
2, 45060, Control_c, 0, 64, 127
2, 45093, Note_on_c, 0, 72, 80
2, 45093, Note_on_c, 0, 84, 80
2, 45093, Note_on_c, 0, 96, 80
2, 45116, Control_c, 0, 64, 0
2, 45156, Note_on_c, 0, 53, 80
2, 45156, Note_on_c, 0, 57, 80
2, 45156, Note_on_c, 0, 60, 80
2, 45158, Note_on_c, 0, 41, 0
2, 45189, Note_on_c, 0, 57, 0
2, 45189, Note_on_c, 0, 53, 0
2, 45189, Note_on_c, 0, 60, 0
2, 45224, Note_on_c, 0, 70, 80
2, 45226, Note_on_c, 0, 82, 80
2, 45226, Note_on_c, 0, 94, 80
2, 45228, Note_on_c, 0, 72, 0
2, 45228, Note_on_c, 0, 84, 0
2, 45228, Note_on_c, 0, 96, 0
2, 45287, Note_on_c, 0, 36, 80
2, 45288, Note_on_c, 0, 69, 80
2, 45290, Note_on_c, 0, 81, 80
2, 45290, Note_on_c, 0, 93, 80
2, 45295, Note_on_c, 0, 70, 0
2, 45295, Note_on_c, 0, 94, 0
2, 45295, Note_on_c, 0, 82, 0
2, 45356, Note_on_c, 0, 68, 80
2, 45358, Note_on_c, 0, 80, 80
2, 45358, Note_on_c, 0, 92, 80
2, 45360, Note_on_c, 0, 69, 0
2, 45360, Note_on_c, 0, 81, 0
2, 45361, Note_on_c, 0, 93, 0
2, 45422, Note_on_c, 0, 36, 0
2, 45422, Note_on_c, 0, 53, 80
2, 45422, Note_on_c, 0, 57, 80
2, 45422, Note_on_c, 0, 60, 80
2, 45422, Note_on_c, 0, 69, 80
2, 45424, Note_on_c, 0, 81, 80
2, 45424, Note_on_c, 0, 93, 80
2, 45426, Note_on_c, 0, 80, 0
2, 45426, Note_on_c, 0, 68, 0
2, 45426, Note_on_c, 0, 92, 0
2, 45452, Note_on_c, 0, 53, 0
2, 45452, Note_on_c, 0, 57, 0
2, 45452, Note_on_c, 0, 60, 0
2, 45489, Note_on_c, 0, 67, 80
2, 45489, Note_on_c, 0, 79, 80
2, 45489, Note_on_c, 0, 91, 80
2, 45491, Note_on_c, 0, 69, 0
2, 45493, Note_on_c, 0, 93, 0
2, 45493, Note_on_c, 0, 81, 0
2, 45516, Note_on_c, 0, 67, 0
2, 45516, Note_on_c, 0, 79, 0
2, 45518, Note_on_c, 0, 91, 0
2, 45549, Note_on_c, 0, 41, 80
2, 45553, Note_on_c, 0, 65, 80
2, 45553, Note_on_c, 0, 77, 80
2, 45555, Note_on_c, 0, 89, 80
2, 45576, Control_c, 0, 64, 127
2, 45621, Note_on_c, 0, 67, 80
2, 45621, Note_on_c, 0, 79, 80
2, 45621, Note_on_c, 0, 91, 80
2, 45623, Note_on_c, 0, 89, 0
2, 45623, Note_on_c, 0, 77, 0
2, 45623, Note_on_c, 0, 65, 0
2, 45667, Control_c, 0, 64, 0
2, 45683, Note_on_c, 0, 41, 0
2, 45683, Note_on_c, 0, 53, 80
2, 45683, Note_on_c, 0, 57, 80
2, 45683, Note_on_c, 0, 60, 80
2, 45683, Note_on_c, 0, 69, 80
2, 45685, Note_on_c, 0, 67, 0
2, 45685, Note_on_c, 0, 93, 80
2, 45687, Note_on_c, 0, 91, 0
2, 45713, Note_on_c, 0, 53, 0
2, 45713, Note_on_c, 0, 57, 0
2, 45713, Note_on_c, 0, 60, 0
2, 45745, Note_on_c, 0, 65, 80
2, 45747, Note_on_c, 0, 72, 80
2, 45747, Note_on_c, 0, 84, 80
2, 45749, Note_on_c, 0, 69, 0
2, 45749, Note_on_c, 0, 96, 80
2, 45751, Note_on_c, 0, 79, 0
2, 45751, Note_on_c, 0, 93, 0
2, 45815, Note_on_c, 0, 36, 80
2, 45815, Note_on_c, 0, 69, 80
2, 45816, Note_on_c, 0, 72, 0
2, 45816, Note_on_c, 0, 65, 0
2, 45816, Note_on_c, 0, 77, 80
2, 45882, Note_on_c, 0, 72, 80
2, 45882, Note_on_c, 0, 81, 80
2, 45882, Note_on_c, 0, 89, 80
2, 45884, Note_on_c, 0, 77, 0
2, 45884, Note_on_c, 0, 84, 0
2, 45884, Note_on_c, 0, 69, 0
2, 45886, Note_on_c, 0, 96, 0
2, 45944, Note_on_c, 0, 53, 80
2, 45944, Note_on_c, 0, 57, 80
2, 45944, Note_on_c, 0, 60, 80
2, 45946, Note_on_c, 0, 36, 0
2, 45946, Note_on_c, 0, 77, 80
2, 45946, Note_on_c, 0, 84, 80
2, 45948, Note_on_c, 0, 72, 0
2, 45948, Note_on_c, 0, 93, 80
2, 45950, Note_on_c, 0, 89, 0
2, 45950, Note_on_c, 0, 81, 0
2, 45976, Note_on_c, 0, 60, 0
2, 45976, Note_on_c, 0, 57, 0
2, 45976, Note_on_c, 0, 53, 0
2, 45976, Note_on_c, 0, 84, 0
2, 45976, Note_on_c, 0, 77, 0
2, 45978, Note_on_c, 0, 93, 0
2, 46079, Note_on_c, 0, 41, 80
2, 46083, Note_on_c, 0, 74, 80
2, 46083, Note_on_c, 0, 77, 80
2, 46083, Note_on_c, 0, 81, 80
2, 46083, Note_on_c, 0, 86, 80
2, 46083, Note_on_c, 0, 98, 80
2, 46093, Control_c, 0, 64, 127
2, 46114, Note_on_c, 0, 98, 0
2, 46114, Note_on_c, 0, 74, 0
2, 46114, Note_on_c, 0, 77, 0
2, 46114, Note_on_c, 0, 81, 0
2, 46114, Note_on_c, 0, 86, 0
2, 46152, Note_on_c, 0, 84, 80
2, 46152, Note_on_c, 0, 96, 80
2, 46192, Control_c, 0, 64, 0
2, 46218, Note_on_c, 0, 53, 80
2, 46218, Note_on_c, 0, 57, 80
2, 46220, Note_on_c, 0, 41, 0
2, 46220, Note_on_c, 0, 60, 80
2, 46248, Note_on_c, 0, 53, 0
2, 46248, Note_on_c, 0, 57, 0
2, 46249, Note_on_c, 0, 60, 0
2, 46290, Note_on_c, 0, 82, 80
2, 46290, Note_on_c, 0, 94, 80
2, 46292, Note_on_c, 0, 96, 0
2, 46292, Note_on_c, 0, 84, 0
2, 46352, Note_on_c, 0, 36, 80
2, 46354, Note_on_c, 0, 81, 80
2, 46354, Note_on_c, 0, 93, 80
2, 46356, Note_on_c, 0, 82, 0
2, 46356, Note_on_c, 0, 94, 0
2, 46421, Note_on_c, 0, 80, 80
2, 46423, Note_on_c, 0, 92, 80
2, 46425, Note_on_c, 0, 93, 0
2, 46427, Note_on_c, 0, 81, 0
2, 46488, Note_on_c, 0, 53, 80
2, 46488, Note_on_c, 0, 57, 80
2, 46488, Note_on_c, 0, 60, 80
2, 46489, Note_on_c, 0, 36, 0
2, 46489, Note_on_c, 0, 81, 80
2, 46491, Note_on_c, 0, 93, 80
2, 46493, Note_on_c, 0, 92, 0
2, 46493, Note_on_c, 0, 80, 0
2, 46516, Note_on_c, 0, 60, 0
2, 46516, Note_on_c, 0, 57, 0
2, 46516, Note_on_c, 0, 53, 0
2, 46557, Note_on_c, 0, 82, 80
2, 46559, Note_on_c, 0, 94, 80
2, 46560, Note_on_c, 0, 93, 0
2, 46560, Note_on_c, 0, 81, 0
2, 46586, Note_on_c, 0, 82, 0
2, 46586, Note_on_c, 0, 94, 0
2, 46617, Control_c, 0, 64, 127
2, 46619, Note_on_c, 0, 41, 80
2, 46624, Note_on_c, 0, 72, 80
2, 46624, Note_on_c, 0, 77, 80
2, 46624, Note_on_c, 0, 81, 80
2, 46624, Note_on_c, 0, 84, 80
2, 46626, Note_on_c, 0, 96, 80
2, 46652, Note_on_c, 0, 84, 0
2, 46652, Note_on_c, 0, 81, 0
2, 46652, Note_on_c, 0, 77, 0
2, 46652, Note_on_c, 0, 72, 0
2, 46654, Note_on_c, 0, 96, 0
2, 46754, Control_c, 0, 64, 0
2, 46754, Note_on_c, 0, 45, 80
2, 46756, Note_on_c, 0, 57, 80
2, 46756, Note_on_c, 0, 65, 80
2, 46756, Note_on_c, 0, 72, 80
2, 46758, Note_on_c, 0, 41, 0
2, 46758, Note_on_c, 0, 77, 80
2, 46758, Note_on_c, 0, 84, 80
2, 46822, Note_on_c, 0, 69, 80
2, 46824, Note_on_c, 0, 81, 80
2, 46825, Note_on_c, 0, 84, 0
2, 46825, Note_on_c, 0, 65, 0
2, 46825, Note_on_c, 0, 72, 0
2, 46825, Note_on_c, 0, 77, 0
2, 46848, Note_on_c, 0, 69, 0
2, 46850, Note_on_c, 0, 81, 0
2, 46886, Note_on_c, 0, 48, 80
2, 46888, Note_on_c, 0, 45, 0
2, 46888, Note_on_c, 0, 60, 80
2, 46888, Note_on_c, 0, 65, 80
2, 46888, Note_on_c, 0, 72, 80
2, 46888, Note_on_c, 0, 77, 80
2, 46890, Note_on_c, 0, 57, 0
2, 46890, Note_on_c, 0, 84, 80
2, 46953, Note_on_c, 0, 69, 80
2, 46953, Note_on_c, 0, 81, 80
2, 46958, Note_on_c, 0, 84, 0
2, 46958, Note_on_c, 0, 65, 0
2, 46958, Note_on_c, 0, 72, 0
2, 46958, Note_on_c, 0, 77, 0
2, 46984, Note_on_c, 0, 69, 0
2, 46986, Note_on_c, 0, 81, 0
2, 47018, Note_on_c, 0, 51, 80
2, 47018, Note_on_c, 0, 63, 80
2, 47020, Note_on_c, 0, 48, 0
2, 47020, Note_on_c, 0, 65, 80
2, 47020, Note_on_c, 0, 72, 80
2, 47020, Note_on_c, 0, 77, 80
2, 47020, Note_on_c, 0, 84, 80
2, 47022, Note_on_c, 0, 60, 0
2, 47048, Note_on_c, 0, 72, 0
2, 47048, Note_on_c, 0, 63, 0
2, 47048, Note_on_c, 0, 65, 0
2, 47048, Note_on_c, 0, 51, 0
2, 47050, Note_on_c, 0, 84, 0
2, 47052, Note_on_c, 0, 77, 0
2, 47155, Note_on_c, 0, 38, 80
2, 47155, Note_on_c, 0, 50, 80
2, 47157, Note_on_c, 0, 77, 80
2, 47180, Control_c, 0, 64, 127
2, 47227, Note_on_c, 0, 74, 80
2, 47227, Note_on_c, 0, 82, 80
2, 47227, Note_on_c, 0, 89, 80
2, 47229, Note_on_c, 0, 77, 0
2, 47278, Control_c, 0, 64, 0
2, 47294, Note_on_c, 0, 38, 0
2, 47294, Note_on_c, 0, 53, 80
2, 47294, Note_on_c, 0, 58, 80
2, 47294, Note_on_c, 0, 62, 80
2, 47294, Note_on_c, 0, 70, 80
2, 47294, Note_on_c, 0, 77, 80
2, 47296, Note_on_c, 0, 74, 0
2, 47296, Note_on_c, 0, 50, 0
2, 47322, Note_on_c, 0, 77, 0
2, 47322, Note_on_c, 0, 58, 0
2, 47322, Note_on_c, 0, 53, 0
2, 47322, Note_on_c, 0, 62, 0
2, 47362, Note_on_c, 0, 77, 80
2, 47364, Note_on_c, 0, 70, 0
2, 47364, Note_on_c, 0, 82, 0
2, 47366, Note_on_c, 0, 89, 0
2, 47426, Note_on_c, 0, 37, 80
2, 47426, Note_on_c, 0, 49, 80
2, 47428, Note_on_c, 0, 73, 80
2, 47428, Note_on_c, 0, 82, 80
2, 47428, Note_on_c, 0, 89, 80
2, 47430, Note_on_c, 0, 77, 0
2, 47494, Note_on_c, 0, 70, 80
2, 47494, Note_on_c, 0, 77, 80
2, 47496, Note_on_c, 0, 73, 0
2, 47521, Note_on_c, 0, 77, 0
2, 47547, Note_on_c, 0, 70, 0
2, 47557, Note_on_c, 0, 37, 0
2, 47557, Note_on_c, 0, 53, 80
2, 47557, Note_on_c, 0, 58, 80
2, 47557, Note_on_c, 0, 61, 80
2, 47559, Note_on_c, 0, 49, 0
2, 47559, Note_on_c, 0, 77, 80
2, 47561, Note_on_c, 0, 82, 0
2, 47561, Note_on_c, 0, 89, 0
2, 47587, Note_on_c, 0, 58, 0
2, 47587, Note_on_c, 0, 53, 0
2, 47587, Note_on_c, 0, 61, 0
2, 47627, Note_on_c, 0, 72, 80
2, 47627, Note_on_c, 0, 81, 80
2, 47627, Note_on_c, 0, 89, 80
2, 47629, Note_on_c, 0, 77, 0
2, 47657, Note_on_c, 0, 72, 0
2, 47689, Note_on_c, 0, 36, 80
2, 47691, Note_on_c, 0, 48, 80
2, 47691, Note_on_c, 0, 65, 80
2, 47691, Note_on_c, 0, 69, 80
2, 47691, Note_on_c, 0, 77, 80
2, 47701, Control_c, 0, 64, 127
2, 47722, Note_on_c, 0, 77, 0
2, 47722, Note_on_c, 0, 65, 0
2, 47722, Note_on_c, 0, 69, 0
2, 47758, Note_on_c, 0, 60, 80
2, 47758, Note_on_c, 0, 69, 80
2, 47760, Note_on_c, 0, 93, 80
2, 47761, Note_on_c, 0, 89, 0
2, 47761, Note_on_c, 0, 81, 0
2, 47789, Note_on_c, 0, 60, 0
2, 47796, Control_c, 0, 64, 0
2, 47822, Note_on_c, 0, 57, 80
2, 47824, Note_on_c, 0, 48, 0
2, 47824, Note_on_c, 0, 36, 0
2, 47824, Note_on_c, 0, 60, 80
2, 47824, Note_on_c, 0, 65, 80
2, 47824, Note_on_c, 0, 72, 80
2, 47824, Note_on_c, 0, 89, 80
2, 47826, Note_on_c, 0, 69, 0
2, 47826, Note_on_c, 0, 93, 0
2, 47852, Note_on_c, 0, 60, 0
2, 47852, Note_on_c, 0, 65, 0
2, 47852, Note_on_c, 0, 57, 0
2, 47887, Note_on_c, 0, 69, 80
2, 47889, Note_on_c, 0, 77, 80
2, 47889, Note_on_c, 0, 84, 80
2, 47891, Note_on_c, 0, 72, 0
2, 47893, Note_on_c, 0, 89, 0
2, 47952, Note_on_c, 0, 36, 80
2, 47952, Note_on_c, 0, 48, 80
2, 47953, Note_on_c, 0, 65, 80
2, 47953, Note_on_c, 0, 72, 80
2, 47955, Note_on_c, 0, 81, 80
2, 47957, Note_on_c, 0, 77, 0
2, 47957, Note_on_c, 0, 84, 0
2, 47957, Note_on_c, 0, 69, 0
2, 47980, Note_on_c, 0, 65, 0
2, 47985, Note_on_c, 0, 72, 0
2, 48018, Note_on_c, 0, 69, 80
2, 48020, Note_on_c, 0, 84, 80
2, 48022, Note_on_c, 0, 81, 0
2, 48049, Note_on_c, 0, 69, 0
2, 48085, Note_on_c, 0, 36, 0
2, 48085, Note_on_c, 0, 57, 80
2, 48085, Note_on_c, 0, 60, 80
2, 48085, Note_on_c, 0, 65, 80
2, 48085, Note_on_c, 0, 86, 80
2, 48087, Note_on_c, 0, 48, 0
2, 48089, Note_on_c, 0, 84, 0
2, 48115, Note_on_c, 0, 60, 0
2, 48152, Note_on_c, 0, 60, 80
2, 48154, Note_on_c, 0, 65, 0
2, 48154, Note_on_c, 0, 57, 0
2, 48154, Note_on_c, 0, 89, 80
2, 48156, Note_on_c, 0, 86, 0
2, 48179, Note_on_c, 0, 60, 0
2, 48181, Note_on_c, 0, 89, 0
2, 48216, Note_on_c, 0, 38, 80
2, 48216, Note_on_c, 0, 50, 80
2, 48218, Note_on_c, 0, 71, 80
2, 48218, Note_on_c, 0, 77, 80
2, 48218, Note_on_c, 0, 83, 80
2, 48218, Note_on_c, 0, 89, 80
2, 48254, Control_c, 0, 64, 127
2, 48353, Control_c, 0, 64, 0
2, 48353, Note_on_c, 0, 37, 80
2, 48353, Note_on_c, 0, 49, 80
2, 48355, Note_on_c, 0, 38, 0
2, 48355, Note_on_c, 0, 70, 80
2, 48355, Note_on_c, 0, 82, 80
2, 48357, Note_on_c, 0, 83, 0
2, 48357, Note_on_c, 0, 50, 0
2, 48357, Note_on_c, 0, 71, 0
2, 48483, Note_on_c, 0, 36, 80
2, 48483, Note_on_c, 0, 48, 80
2, 48485, Note_on_c, 0, 37, 0
2, 48485, Note_on_c, 0, 76, 80
2, 48485, Note_on_c, 0, 79, 80
2, 48485, Note_on_c, 0, 88, 80
2, 48485, Note_on_c, 0, 91, 80
2, 48487, Note_on_c, 0, 70, 0
2, 48487, Note_on_c, 0, 49, 0
2, 48489, Note_on_c, 0, 77, 0
2, 48489, Note_on_c, 0, 82, 0
2, 48489, Note_on_c, 0, 89, 0
2, 48494, Control_c, 0, 64, 127
2, 48513, Note_on_c, 0, 76, 0
2, 48515, Note_on_c, 0, 88, 0
2, 48551, Note_on_c, 0, 70, 80
2, 48552, Note_on_c, 0, 76, 80
2, 48552, Note_on_c, 0, 81, 80
2, 48552, Note_on_c, 0, 82, 80
2, 48552, Note_on_c, 0, 88, 80
2, 48552, Note_on_c, 0, 93, 80
2, 48554, Note_on_c, 0, 91, 0
2, 48554, Note_on_c, 0, 79, 0
2, 48646, Note_on_c, 0, 81, 0
2, 48678, Note_on_c, 0, 69, 80
2, 48678, Note_on_c, 0, 77, 80
2, 48680, Note_on_c, 0, 81, 80
2, 48680, Note_on_c, 0, 89, 80
2, 48682, Note_on_c, 0, 93, 0
2, 48682, Note_on_c, 0, 82, 0
2, 48682, Note_on_c, 0, 88, 0
2, 48682, Note_on_c, 0, 70, 0
2, 48682, Note_on_c, 0, 76, 0
2, 48743, Control_c, 0, 64, 0
2, 48743, Note_on_c, 0, 41, 80
2, 48743, Note_on_c, 0, 53, 80
2, 48785, Note_on_c, 0, 53, 0
2, 48785, Note_on_c, 0, 41, 0
2, 48796, Note_on_c, 0, 36, 0
2, 48798, Note_on_c, 0, 48, 0
2, 48880, Note_on_c, 0, 69, 0
2, 48880, Note_on_c, 0, 77, 0
2, 48882, Note_on_c, 0, 81, 0
2, 48882, Note_on_c, 0, 89, 0
2, 49010, Note_on_c, 0, 34, 80
2, 49012, Note_on_c, 0, 56, 80
2, 49012, Note_on_c, 0, 58, 80
2, 49014, Note_on_c, 0, 62, 80
2, 49014, Note_on_c, 0, 65, 80
2, 49052, Control_c, 0, 64, 127
2, 49213, Note_on_c, 0, 58, 0
2, 49262, Control_c, 0, 64, 0
2, 49273, Note_on_c, 0, 39, 80
2, 49275, Note_on_c, 0, 34, 0
2, 49275, Note_on_c, 0, 58, 80
2, 49275, Note_on_c, 0, 63, 80
2, 49275, Note_on_c, 0, 67, 80
2, 49277, Note_on_c, 0, 65, 0
2, 49277, Note_on_c, 0, 56, 0
2, 49277, Note_on_c, 0, 62, 0
2, 49303, Note_on_c, 0, 58, 0
2, 49303, Note_on_c, 0, 67, 0
2, 49303, Note_on_c, 0, 63, 0
2, 49344, Note_on_c, 0, 57, 80
2, 49344, Note_on_c, 0, 63, 80
2, 49344, Note_on_c, 0, 66, 80
2, 49412, Note_on_c, 0, 48, 80
2, 49416, Note_on_c, 0, 39, 0
2, 49442, Note_on_c, 0, 63, 0
2, 49457, Note_on_c, 0, 57, 0
2, 49457, Note_on_c, 0, 66, 0
2, 49483, Note_on_c, 0, 58, 80
2, 49483, Note_on_c, 0, 63, 80
2, 49483, Note_on_c, 0, 67, 80
2, 49551, Note_on_c, 0, 46, 80
2, 49556, Note_on_c, 0, 48, 0
2, 49577, Control_c, 0, 64, 127
2, 49619, Note_on_c, 0, 51, 80
2, 49624, Note_on_c, 0, 46, 0
2, 49687, Note_on_c, 0, 46, 80
2, 49692, Note_on_c, 0, 51, 0
2, 49755, Note_on_c, 0, 43, 80
2, 49760, Note_on_c, 0, 46, 0
2, 49775, Note_on_c, 0, 67, 0
2, 49775, Note_on_c, 0, 58, 0
2, 49775, Note_on_c, 0, 63, 0
2, 49798, Control_c, 0, 64, 0
2, 49824, Note_on_c, 0, 39, 80
2, 49824, Note_on_c, 0, 58, 80
2, 49824, Note_on_c, 0, 63, 80
2, 49824, Note_on_c, 0, 67, 80
2, 49825, Note_on_c, 0, 43, 0
2, 49853, Note_on_c, 0, 58, 0
2, 49855, Note_on_c, 0, 63, 0
2, 49857, Note_on_c, 0, 67, 0
2, 49890, Note_on_c, 0, 57, 80
2, 49890, Note_on_c, 0, 63, 80
2, 49890, Note_on_c, 0, 66, 80
2, 49958, Note_on_c, 0, 48, 80
2, 49960, Note_on_c, 0, 39, 0
2, 49988, Note_on_c, 0, 66, 0
2, 49988, Note_on_c, 0, 57, 0
2, 49988, Note_on_c, 0, 63, 0
2, 50028, Note_on_c, 0, 58, 80
2, 50028, Note_on_c, 0, 63, 80
2, 50028, Note_on_c, 0, 67, 80
2, 50096, Note_on_c, 0, 46, 80
2, 50098, Note_on_c, 0, 48, 0
2, 50108, Control_c, 0, 64, 127
2, 50161, Note_on_c, 0, 51, 80
2, 50166, Note_on_c, 0, 46, 0
2, 50232, Note_on_c, 0, 46, 80
2, 50236, Note_on_c, 0, 51, 0
2, 50300, Note_on_c, 0, 43, 80
2, 50304, Note_on_c, 0, 46, 0
2, 50316, Note_on_c, 0, 63, 0
2, 50326, Control_c, 0, 64, 0
2, 50330, Note_on_c, 0, 58, 0
2, 50330, Note_on_c, 0, 67, 0
2, 50368, Note_on_c, 0, 44, 80
2, 50370, Note_on_c, 0, 56, 80
2, 50370, Note_on_c, 0, 63, 80
2, 50370, Note_on_c, 0, 72, 80
2, 50370, Note_on_c, 0, 75, 80
2, 50372, Note_on_c, 0, 43, 0
2, 50435, Note_on_c, 0, 65, 80
2, 50435, Note_on_c, 0, 77, 80
2, 50440, Note_on_c, 0, 72, 0
2, 50440, Note_on_c, 0, 63, 0
2, 50440, Note_on_c, 0, 75, 0
2, 50500, Note_on_c, 0, 51, 80
2, 50500, Note_on_c, 0, 60, 80
2, 50500, Note_on_c, 0, 63, 80
2, 50502, Note_on_c, 0, 44, 0
2, 50504, Note_on_c, 0, 56, 0
2, 50530, Note_on_c, 0, 60, 0
2, 50530, Note_on_c, 0, 51, 0
2, 50530, Note_on_c, 0, 63, 0
2, 50570, Note_on_c, 0, 66, 80
2, 50570, Note_on_c, 0, 72, 80
2, 50570, Note_on_c, 0, 75, 80
2, 50570, Note_on_c, 0, 78, 80
2, 50572, Note_on_c, 0, 77, 0
2, 50572, Note_on_c, 0, 65, 0
2, 50633, Note_on_c, 0, 44, 80
2, 50635, Note_on_c, 0, 56, 80
2, 50700, Note_on_c, 0, 65, 80
2, 50700, Note_on_c, 0, 77, 80
2, 50702, Note_on_c, 0, 75, 0
2, 50702, Note_on_c, 0, 66, 0
2, 50702, Note_on_c, 0, 72, 0
2, 50702, Note_on_c, 0, 78, 0
2, 50765, Note_on_c, 0, 63, 80
2, 50767, Note_on_c, 0, 51, 80
2, 50767, Note_on_c, 0, 60, 80
2, 50767, Note_on_c, 0, 75, 80
2, 50769, Note_on_c, 0, 44, 0
2, 50769, Note_on_c, 0, 65, 0
2, 50769, Note_on_c, 0, 77, 0
2, 50769, Note_on_c, 0, 56, 0
2, 50792, Note_on_c, 0, 51, 0
2, 50794, Note_on_c, 0, 60, 0
2, 50848, Note_on_c, 0, 75, 0
2, 50895, Note_on_c, 0, 43, 80
2, 50895, Note_on_c, 0, 55, 80
2, 50897, Note_on_c, 0, 67, 80
2, 50897, Note_on_c, 0, 70, 80
2, 50897, Note_on_c, 0, 75, 80
2, 50897, Note_on_c, 0, 79, 80
2, 50899, Note_on_c, 0, 63, 0
2, 50905, Control_c, 0, 64, 127
2, 50962, Note_on_c, 0, 46, 80
2, 50964, Note_on_c, 0, 43, 0
2, 51024, Note_on_c, 0, 51, 80
2, 51026, Note_on_c, 0, 46, 0
2, 51041, Note_on_c, 0, 55, 0
2, 51093, Note_on_c, 0, 55, 80
2, 51095, Note_on_c, 0, 51, 0
2, 51116, Control_c, 0, 64, 0
2, 51158, Note_on_c, 0, 58, 80
2, 51158, Note_on_c, 0, 62, 80
2, 51158, Note_on_c, 0, 65, 80
2, 51158, Note_on_c, 0, 68, 80
2, 51160, Note_on_c, 0, 75, 0
2, 51160, Note_on_c, 0, 79, 0
2, 51160, Note_on_c, 0, 67, 0
2, 51160, Note_on_c, 0, 70, 0
2, 51160, Note_on_c, 0, 55, 0
2, 51186, Note_on_c, 0, 68, 0
2, 51226, Note_on_c, 0, 68, 80
2, 51226, Note_on_c, 0, 72, 80
2, 51228, Note_on_c, 0, 62, 0
2, 51228, Note_on_c, 0, 65, 0
2, 51296, Note_on_c, 0, 67, 80
2, 51296, Note_on_c, 0, 70, 80
2, 51298, Note_on_c, 0, 68, 0
2, 51298, Note_on_c, 0, 72, 0
2, 51363, Note_on_c, 0, 65, 80
2, 51363, Note_on_c, 0, 68, 80
2, 51365, Note_on_c, 0, 67, 0
2, 51365, Note_on_c, 0, 70, 0
2, 51393, Note_on_c, 0, 58, 0
2, 51429, Note_on_c, 0, 39, 80
2, 51429, Note_on_c, 0, 58, 80
2, 51429, Note_on_c, 0, 63, 80
2, 51429, Note_on_c, 0, 67, 80
2, 51431, Note_on_c, 0, 65, 0
2, 51432, Note_on_c, 0, 68, 0
2, 51458, Note_on_c, 0, 63, 0
2, 51458, Note_on_c, 0, 58, 0
2, 51458, Note_on_c, 0, 67, 0
2, 51496, Note_on_c, 0, 57, 80
2, 51496, Note_on_c, 0, 63, 80
2, 51496, Note_on_c, 0, 66, 80
2, 51559, Note_on_c, 0, 48, 80
2, 51564, Note_on_c, 0, 39, 0
2, 51592, Note_on_c, 0, 66, 0
2, 51592, Note_on_c, 0, 57, 0
2, 51592, Note_on_c, 0, 63, 0
2, 51624, Note_on_c, 0, 58, 80
2, 51624, Note_on_c, 0, 63, 80
2, 51624, Note_on_c, 0, 67, 80
2, 51693, Note_on_c, 0, 46, 80
2, 51697, Note_on_c, 0, 48, 0
2, 51707, Control_c, 0, 64, 127
2, 51759, Note_on_c, 0, 51, 80
2, 51764, Note_on_c, 0, 46, 0
2, 51790, Note_on_c, 0, 67, 0
2, 51817, Note_on_c, 0, 58, 0
2, 51817, Note_on_c, 0, 63, 0
2, 51827, Note_on_c, 0, 48, 80
2, 51827, Note_on_c, 0, 67, 80
2, 51827, Note_on_c, 0, 72, 80
2, 51827, Note_on_c, 0, 75, 80
2, 51829, Note_on_c, 0, 51, 0
2, 51918, Control_c, 0, 64, 0
2, 51920, Note_on_c, 0, 72, 0
2, 51920, Note_on_c, 0, 75, 0
2, 51920, Note_on_c, 0, 67, 0
2, 51960, Note_on_c, 0, 50, 80
2, 51960, Note_on_c, 0, 67, 80
2, 51960, Note_on_c, 0, 70, 80
2, 51960, Note_on_c, 0, 75, 80
2, 51962, Note_on_c, 0, 48, 0
2, 51990, Note_on_c, 0, 70, 0
2, 51990, Note_on_c, 0, 75, 0
2, 51990, Note_on_c, 0, 67, 0
2, 52028, Note_on_c, 0, 67, 80
2, 52028, Note_on_c, 0, 70, 80
2, 52028, Note_on_c, 0, 74, 80
2, 52093, Note_on_c, 0, 55, 80
2, 52095, Note_on_c, 0, 50, 0
2, 52121, Note_on_c, 0, 74, 0
2, 52121, Note_on_c, 0, 67, 0
2, 52121, Note_on_c, 0, 70, 0
2, 52158, Note_on_c, 0, 70, 80
2, 52160, Note_on_c, 0, 67, 80
2, 52160, Note_on_c, 0, 74, 80
2, 52225, Note_on_c, 0, 58, 80
2, 52227, Note_on_c, 0, 55, 0
2, 52263, Control_c, 0, 64, 127
2, 52291, Note_on_c, 0, 55, 80
2, 52296, Note_on_c, 0, 58, 0
2, 52321, Note_on_c, 0, 74, 0
2, 52321, Note_on_c, 0, 70, 0
2, 52321, Note_on_c, 0, 67, 0
2, 52359, Note_on_c, 0, 50, 80
2, 52359, Note_on_c, 0, 74, 80
2, 52359, Note_on_c, 0, 79, 80
2, 52359, Note_on_c, 0, 82, 80
2, 52361, Note_on_c, 0, 55, 0
2, 52445, Control_c, 0, 64, 0
2, 52464, Note_on_c, 0, 79, 0
2, 52464, Note_on_c, 0, 50, 0
2, 52464, Note_on_c, 0, 74, 0
2, 52464, Note_on_c, 0, 82, 0
2, 52502, Note_on_c, 0, 38, 80
2, 52502, Note_on_c, 0, 50, 80
2, 52502, Note_on_c, 0, 66, 80
2, 52502, Note_on_c, 0, 70, 80
2, 52502, Note_on_c, 0, 72, 80
2, 52502, Note_on_c, 0, 78, 80
2, 52502, Note_on_c, 0, 82, 80
2, 52533, Note_on_c, 0, 82, 0
2, 52533, Note_on_c, 0, 70, 0
2, 52533, Note_on_c, 0, 66, 0
2, 52533, Note_on_c, 0, 78, 0
2, 52568, Note_on_c, 0, 69, 80
2, 52568, Note_on_c, 0, 81, 80
2, 52636, Note_on_c, 0, 62, 80
2, 52638, Note_on_c, 0, 38, 0
2, 52638, Note_on_c, 0, 60, 80
2, 52666, Note_on_c, 0, 60, 0
2, 52666, Note_on_c, 0, 62, 0
2, 52666, Note_on_c, 0, 69, 0
2, 52666, Note_on_c, 0, 81, 0
2, 52666, Note_on_c, 0, 72, 0
2, 52706, Note_on_c, 0, 66, 80
2, 52706, Note_on_c, 0, 69, 80
2, 52706, Note_on_c, 0, 72, 80
2, 52706, Note_on_c, 0, 78, 80
2, 52706, Note_on_c, 0, 81, 80
2, 52721, Note_on_c, 0, 50, 0
2, 52775, Note_on_c, 0, 38, 80
2, 52775, Note_on_c, 0, 50, 80
2, 52843, Note_on_c, 0, 70, 80
2, 52843, Note_on_c, 0, 82, 80
2, 52845, Note_on_c, 0, 69, 0
2, 52845, Note_on_c, 0, 78, 0
2, 52845, Note_on_c, 0, 66, 0
2, 52845, Note_on_c, 0, 72, 0
2, 52845, Note_on_c, 0, 81, 0
2, 52910, Note_on_c, 0, 60, 80
2, 52910, Note_on_c, 0, 62, 80
2, 52910, Note_on_c, 0, 69, 80
2, 52910, Note_on_c, 0, 72, 80
2, 52910, Note_on_c, 0, 78, 80
2, 52910, Note_on_c, 0, 81, 80
2, 52912, Note_on_c, 0, 70, 0
2, 52912, Note_on_c, 0, 38, 0
2, 52914, Note_on_c, 0, 82, 0
2, 52940, Note_on_c, 0, 60, 0
2, 52940, Note_on_c, 0, 62, 0
2, 52993, Note_on_c, 0, 50, 0
2, 53008, Note_on_c, 0, 72, 0
2, 53008, Note_on_c, 0, 69, 0
2, 53010, Note_on_c, 0, 81, 0
2, 53010, Note_on_c, 0, 78, 0
2, 53047, Note_on_c, 0, 55, 80
2, 53047, Note_on_c, 0, 58, 80
2, 53047, Note_on_c, 0, 62, 80
2, 53047, Note_on_c, 0, 67, 80
2, 53047, Note_on_c, 0, 70, 80
2, 53047, Note_on_c, 0, 79, 80
2, 53146, Note_on_c, 0, 55, 0
2, 53148, Note_on_c, 0, 58, 0
2, 53148, Note_on_c, 0, 62, 0
2, 53185, Note_on_c, 0, 50, 80
2, 53211, Control_c, 0, 64, 127
2, 53252, Note_on_c, 0, 55, 80
2, 53256, Note_on_c, 0, 50, 0
2, 53268, Note_on_c, 0, 67, 0
2, 53268, Note_on_c, 0, 79, 0
2, 53268, Note_on_c, 0, 70, 0
2, 53305, Control_c, 0, 64, 0
2, 53317, Note_on_c, 0, 58, 80
2, 53319, Note_on_c, 0, 62, 80
2, 53319, Note_on_c, 0, 67, 80
2, 53319, Note_on_c, 0, 70, 80
2, 53324, Note_on_c, 0, 55, 0
2, 53382, Note_on_c, 0, 68, 80
2, 53382, Note_on_c, 0, 72, 80
2, 53387, Note_on_c, 0, 67, 0
2, 53387, Note_on_c, 0, 70, 0
2, 53387, Note_on_c, 0, 62, 0
2, 53450, Note_on_c, 0, 67, 80
2, 53450, Note_on_c, 0, 70, 80
2, 53455, Note_on_c, 0, 72, 0
2, 53455, Note_on_c, 0, 68, 0
2, 53516, Note_on_c, 0, 65, 80
2, 53516, Note_on_c, 0, 68, 80
2, 53518, Note_on_c, 0, 70, 0
2, 53518, Note_on_c, 0, 67, 0
2, 53545, Note_on_c, 0, 58, 0
2, 53586, Note_on_c, 0, 39, 80
2, 53586, Note_on_c, 0, 58, 80
2, 53586, Note_on_c, 0, 63, 80
2, 53586, Note_on_c, 0, 67, 80
2, 53588, Note_on_c, 0, 68, 0
2, 53588, Note_on_c, 0, 65, 0
2, 53616, Note_on_c, 0, 63, 0
2, 53616, Note_on_c, 0, 58, 0
2, 53616, Note_on_c, 0, 67, 0
2, 53653, Note_on_c, 0, 57, 80
2, 53653, Note_on_c, 0, 63, 80
2, 53653, Note_on_c, 0, 66, 80
2, 53718, Note_on_c, 0, 48, 80
2, 53723, Note_on_c, 0, 39, 0
2, 53749, Note_on_c, 0, 66, 0
2, 53749, Note_on_c, 0, 57, 0
2, 53749, Note_on_c, 0, 63, 0
2, 53789, Note_on_c, 0, 58, 80
2, 53789, Note_on_c, 0, 63, 80
2, 53789, Note_on_c, 0, 67, 80
2, 53850, Note_on_c, 0, 46, 80
2, 53855, Note_on_c, 0, 48, 0
2, 53895, Control_c, 0, 64, 127
2, 53921, Note_on_c, 0, 51, 80
2, 53923, Note_on_c, 0, 46, 0
2, 53986, Note_on_c, 0, 46, 80
2, 53988, Note_on_c, 0, 51, 0
2, 54048, Note_on_c, 0, 43, 80
2, 54053, Note_on_c, 0, 46, 0
2, 54079, Note_on_c, 0, 67, 0
2, 54079, Note_on_c, 0, 58, 0
2, 54079, Note_on_c, 0, 63, 0
2, 54117, Control_c, 0, 64, 0
2, 54117, Note_on_c, 0, 58, 80
2, 54117, Note_on_c, 0, 63, 80
2, 54117, Note_on_c, 0, 67, 80
2, 54119, Note_on_c, 0, 39, 80
2, 54120, Note_on_c, 0, 43, 0
2, 54146, Note_on_c, 0, 67, 0
2, 54146, Note_on_c, 0, 58, 0
2, 54146, Note_on_c, 0, 63, 0
2, 54184, Note_on_c, 0, 57, 80
2, 54184, Note_on_c, 0, 63, 80
2, 54184, Note_on_c, 0, 66, 80
2, 54249, Note_on_c, 0, 48, 80
2, 54254, Note_on_c, 0, 39, 0
2, 54265, Note_on_c, 0, 57, 0
2, 54280, Note_on_c, 0, 66, 0
2, 54280, Note_on_c, 0, 63, 0
2, 54315, Note_on_c, 0, 58, 80
2, 54315, Note_on_c, 0, 63, 80
2, 54315, Note_on_c, 0, 67, 80
2, 54384, Note_on_c, 0, 46, 80
2, 54388, Note_on_c, 0, 48, 0
2, 54409, Control_c, 0, 64, 127
2, 54450, Note_on_c, 0, 51, 80
2, 54452, Note_on_c, 0, 46, 0
2, 54515, Note_on_c, 0, 46, 80
2, 54517, Note_on_c, 0, 51, 0
2, 54577, Note_on_c, 0, 43, 80
2, 54582, Note_on_c, 0, 46, 0
2, 54610, Note_on_c, 0, 63, 0
2, 54622, Note_on_c, 0, 58, 0
2, 54622, Note_on_c, 0, 67, 0
2, 54622, Control_c, 0, 64, 0
2, 54645, Note_on_c, 0, 44, 80
2, 54645, Note_on_c, 0, 63, 80
2, 54645, Note_on_c, 0, 72, 80
2, 54647, Note_on_c, 0, 56, 80
2, 54647, Note_on_c, 0, 75, 80
2, 54648, Note_on_c, 0, 43, 0
2, 54674, Note_on_c, 0, 63, 0
2, 54674, Note_on_c, 0, 72, 0
2, 54674, Note_on_c, 0, 75, 0
2, 54712, Note_on_c, 0, 65, 80
2, 54712, Note_on_c, 0, 77, 80
2, 54777, Note_on_c, 0, 51, 80
2, 54777, Note_on_c, 0, 60, 80
2, 54777, Note_on_c, 0, 63, 80
2, 54779, Note_on_c, 0, 44, 0
2, 54779, Note_on_c, 0, 56, 0
2, 54807, Note_on_c, 0, 60, 0
2, 54807, Note_on_c, 0, 51, 0
2, 54807, Note_on_c, 0, 63, 0
2, 54847, Note_on_c, 0, 77, 0
2, 54847, Note_on_c, 0, 65, 0
2, 54847, Note_on_c, 0, 66, 80
2, 54847, Note_on_c, 0, 72, 80
2, 54847, Note_on_c, 0, 75, 80
2, 54847, Note_on_c, 0, 78, 80
2, 54911, Note_on_c, 0, 44, 80
2, 54911, Note_on_c, 0, 56, 80
2, 54976, Note_on_c, 0, 65, 80
2, 54976, Note_on_c, 0, 77, 80
2, 54978, Note_on_c, 0, 78, 0
2, 54978, Note_on_c, 0, 75, 0
2, 54978, Note_on_c, 0, 66, 0
2, 54978, Note_on_c, 0, 72, 0
2, 55043, Note_on_c, 0, 51, 80
2, 55043, Note_on_c, 0, 63, 80
2, 55045, Note_on_c, 0, 65, 0
2, 55045, Note_on_c, 0, 60, 80
2, 55045, Note_on_c, 0, 75, 80
2, 55047, Note_on_c, 0, 44, 0
2, 55047, Note_on_c, 0, 77, 0
2, 55047, Note_on_c, 0, 56, 0
2, 55075, Note_on_c, 0, 51, 0
2, 55075, Note_on_c, 0, 75, 0
2, 55075, Note_on_c, 0, 60, 0
2, 55182, Note_on_c, 0, 43, 80
2, 55182, Note_on_c, 0, 55, 80
2, 55182, Note_on_c, 0, 67, 80
2, 55182, Note_on_c, 0, 70, 80
2, 55182, Note_on_c, 0, 75, 80
2, 55182, Note_on_c, 0, 79, 80
2, 55184, Note_on_c, 0, 63, 0
2, 55248, Note_on_c, 0, 46, 80
2, 55252, Note_on_c, 0, 43, 0
2, 55316, Note_on_c, 0, 51, 80
2, 55318, Note_on_c, 0, 46, 0
2, 55345, Note_on_c, 0, 55, 0
2, 55383, Note_on_c, 0, 55, 80
2, 55385, Note_on_c, 0, 51, 0
2, 55450, Note_on_c, 0, 46, 80
2, 55450, Note_on_c, 0, 58, 80
2, 55452, Note_on_c, 0, 55, 0
2, 55454, Note_on_c, 0, 79, 0
2, 55454, Note_on_c, 0, 67, 0
2, 55454, Note_on_c, 0, 70, 0
2, 55454, Note_on_c, 0, 75, 0
2, 55585, Note_on_c, 0, 43, 80
2, 55585, Note_on_c, 0, 61, 80
2, 55585, Note_on_c, 0, 63, 80
2, 55585, Note_on_c, 0, 70, 80
2, 55590, Note_on_c, 0, 58, 0
2, 55592, Note_on_c, 0, 46, 0
2, 55686, Note_on_c, 0, 63, 0
2, 55686, Note_on_c, 0, 61, 0
2, 55686, Note_on_c, 0, 70, 0
2, 55722, Note_on_c, 0, 44, 80
2, 55724, Note_on_c, 0, 60, 80
2, 55724, Note_on_c, 0, 63, 80
2, 55724, Note_on_c, 0, 70, 80
2, 55728, Note_on_c, 0, 43, 0
2, 55738, Control_c, 0, 64, 127
2, 55795, Note_on_c, 0, 68, 80
2, 55797, Note_on_c, 0, 63, 0
2, 55797, Note_on_c, 0, 70, 0
2, 55797, Note_on_c, 0, 60, 0
2, 55837, Control_c, 0, 64, 0
2, 55863, Note_on_c, 0, 51, 80
2, 55868, Note_on_c, 0, 44, 0
2, 55891, Note_on_c, 0, 68, 0
2, 55928, Note_on_c, 0, 63, 80
2, 55928, Note_on_c, 0, 68, 80
2, 55928, Note_on_c, 0, 72, 80
2, 55996, Note_on_c, 0, 44, 80
2, 56001, Note_on_c, 0, 51, 0
2, 56027, Control_c, 0, 64, 127
2, 56067, Note_on_c, 0, 71, 80
2, 56069, Note_on_c, 0, 72, 0
2, 56069, Note_on_c, 0, 63, 0
2, 56069, Note_on_c, 0, 68, 0
2, 56121, Control_c, 0, 64, 0
2, 56133, Note_on_c, 0, 45, 80
2, 56133, Note_on_c, 0, 63, 80
2, 56133, Note_on_c, 0, 66, 80
2, 56133, Note_on_c, 0, 72, 80
2, 56137, Note_on_c, 0, 44, 0
2, 56137, Note_on_c, 0, 71, 0
2, 56229, Note_on_c, 0, 66, 0
2, 56229, Note_on_c, 0, 63, 0
2, 56229, Note_on_c, 0, 72, 0
2, 56264, Note_on_c, 0, 46, 80
2, 56266, Note_on_c, 0, 63, 80
2, 56266, Note_on_c, 0, 67, 80
2, 56266, Note_on_c, 0, 72, 80
2, 56268, Note_on_c, 0, 45, 0
2, 56305, Control_c, 0, 64, 127
2, 56328, Note_on_c, 0, 70, 80
2, 56330, Note_on_c, 0, 67, 0
2, 56330, Note_on_c, 0, 72, 0
2, 56330, Note_on_c, 0, 63, 0
2, 56358, Control_c, 0, 64, 0
2, 56394, Note_on_c, 0, 58, 80
2, 56399, Note_on_c, 0, 46, 0
2, 56399, Note_on_c, 0, 70, 0
2, 56457, Note_on_c, 0, 70, 80
2, 56459, Note_on_c, 0, 75, 80
2, 56459, Note_on_c, 0, 79, 80
2, 56524, Note_on_c, 0, 46, 80
2, 56526, Note_on_c, 0, 58, 0
2, 56554, Note_on_c, 0, 75, 0
2, 56566, Note_on_c, 0, 70, 0
2, 56566, Note_on_c, 0, 79, 0
2, 56587, Control_c, 0, 64, 127
2, 56589, Note_on_c, 0, 75, 80
2, 56603, Control_c, 0, 64, 0
2, 56655, Note_on_c, 0, 58, 80
2, 56655, Note_on_c, 0, 63, 80
2, 56655, Note_on_c, 0, 67, 80
2, 56657, Note_on_c, 0, 75, 0
2, 56659, Note_on_c, 0, 46, 0
2, 56668, Control_c, 0, 64, 127
2, 56685, Control_c, 0, 64, 0
2, 56753, Note_on_c, 0, 63, 0
2, 56753, Note_on_c, 0, 58, 0
2, 56753, Note_on_c, 0, 67, 0
2, 56790, Note_on_c, 0, 46, 80
2, 56790, Note_on_c, 0, 56, 80
2, 56790, Note_on_c, 0, 62, 80
2, 56790, Note_on_c, 0, 67, 80
2, 56821, Control_c, 0, 64, 127
2, 56858, Note_on_c, 0, 65, 80
2, 56860, Note_on_c, 0, 67, 0
2, 56926, Note_on_c, 0, 34, 80
2, 56928, Note_on_c, 0, 46, 0
2, 56953, Note_on_c, 0, 65, 0
2, 56953, Note_on_c, 0, 56, 0
2, 56953, Note_on_c, 0, 62, 0
2, 56953, Control_c, 0, 64, 0
2, 56994, Note_on_c, 0, 62, 80
2, 56994, Note_on_c, 0, 68, 80
2, 56994, Note_on_c, 0, 72, 80
2, 57059, Note_on_c, 0, 46, 80
2, 57061, Note_on_c, 0, 34, 0
2, 57103, Control_c, 0, 64, 127
2, 57124, Note_on_c, 0, 70, 80
2, 57129, Note_on_c, 0, 72, 0
2, 57129, Note_on_c, 0, 68, 0
2, 57157, Note_on_c, 0, 62, 0
2, 57192, Note_on_c, 0, 62, 80
2, 57192, Note_on_c, 0, 67, 80
2, 57194, Control_c, 0, 64, 0
2, 57194, Note_on_c, 0, 34, 80
2, 57194, Note_on_c, 0, 56, 80
2, 57196, Note_on_c, 0, 70, 0
2, 57196, Note_on_c, 0, 46, 0
2, 57328, Note_on_c, 0, 39, 80
2, 57328, Note_on_c, 0, 46, 80
2, 57328, Note_on_c, 0, 51, 80
2, 57328, Note_on_c, 0, 55, 80
2, 57328, Note_on_c, 0, 63, 80
2, 57330, Note_on_c, 0, 34, 0
2, 57330, Note_on_c, 0, 56, 0
2, 57332, Note_on_c, 0, 62, 0
2, 57332, Note_on_c, 0, 67, 0
2, 57381, Control_c, 0, 64, 127
2, 57456, Note_on_c, 0, 58, 80
2, 57456, Note_on_c, 0, 82, 80
2, 57460, Note_on_c, 0, 46, 0
2, 57460, Note_on_c, 0, 51, 0
2, 57460, Note_on_c, 0, 55, 0
2, 57460, Note_on_c, 0, 39, 0
2, 57460, Note_on_c, 0, 63, 0
2, 57512, Control_c, 0, 64, 0
2, 57522, Note_on_c, 0, 60, 80
2, 57522, Note_on_c, 0, 84, 80
2, 57527, Note_on_c, 0, 82, 0
2, 57527, Note_on_c, 0, 58, 0
2, 57587, Note_on_c, 0, 46, 80
2, 57587, Note_on_c, 0, 53, 80
2, 57587, Note_on_c, 0, 56, 80
2, 57587, Note_on_c, 0, 62, 80
2, 57587, Note_on_c, 0, 86, 80
2, 57589, Note_on_c, 0, 84, 0
2, 57591, Note_on_c, 0, 60, 0
2, 57612, Control_c, 0, 64, 127
2, 57649, Note_on_c, 0, 63, 80
2, 57649, Note_on_c, 0, 87, 80
2, 57651, Note_on_c, 0, 62, 0
2, 57651, Note_on_c, 0, 86, 0
2, 57715, Note_on_c, 0, 65, 80
2, 57715, Note_on_c, 0, 89, 80
2, 57717, Note_on_c, 0, 87, 0
2, 57719, Note_on_c, 0, 63, 0
2, 57777, Note_on_c, 0, 66, 80
2, 57777, Note_on_c, 0, 90, 80
2, 57779, Note_on_c, 0, 89, 0
2, 57779, Control_c, 0, 64, 0
2, 57781, Note_on_c, 0, 65, 0
2, 57804, Note_on_c, 0, 46, 0
2, 57841, Note_on_c, 0, 70, 80
2, 57841, Note_on_c, 0, 75, 80
2, 57841, Note_on_c, 0, 79, 80
2, 57841, Note_on_c, 0, 82, 80
2, 57841, Note_on_c, 0, 87, 80
2, 57841, Note_on_c, 0, 91, 80
2, 57843, Note_on_c, 0, 90, 0
2, 57843, Note_on_c, 0, 39, 80
2, 57843, Note_on_c, 0, 55, 80
2, 57845, Note_on_c, 0, 66, 0
2, 57845, Note_on_c, 0, 53, 0
2, 57845, Note_on_c, 0, 56, 0
2, 57868, Note_on_c, 0, 87, 0
2, 57868, Note_on_c, 0, 70, 0
2, 57868, Note_on_c, 0, 79, 0
2, 57868, Note_on_c, 0, 82, 0
2, 57868, Note_on_c, 0, 91, 0
2, 57868, Note_on_c, 0, 75, 0
2, 57911, Note_on_c, 0, 69, 80
2, 57911, Note_on_c, 0, 75, 80
2, 57911, Note_on_c, 0, 78, 80
2, 57911, Note_on_c, 0, 81, 80
2, 57911, Note_on_c, 0, 87, 80
2, 57911, Note_on_c, 0, 90, 80
2, 57976, Note_on_c, 0, 48, 80
2, 57976, Note_on_c, 0, 60, 80
2, 57976, Note_on_c, 0, 63, 80
2, 57978, Note_on_c, 0, 55, 0
2, 57978, Note_on_c, 0, 39, 0
2, 58006, Note_on_c, 0, 90, 0
2, 58006, Note_on_c, 0, 75, 0
2, 58006, Note_on_c, 0, 87, 0
2, 58006, Note_on_c, 0, 81, 0
2, 58006, Note_on_c, 0, 69, 0
2, 58008, Note_on_c, 0, 78, 0
2, 58033, Note_on_c, 0, 63, 0
2, 58043, Note_on_c, 0, 70, 80
2, 58043, Note_on_c, 0, 75, 80
2, 58043, Note_on_c, 0, 79, 80
2, 58043, Note_on_c, 0, 82, 80
2, 58043, Note_on_c, 0, 87, 80
2, 58043, Note_on_c, 0, 91, 80
2, 58111, Note_on_c, 0, 46, 80
2, 58111, Note_on_c, 0, 55, 80
2, 58111, Note_on_c, 0, 94, 80
2, 58111, Note_on_c, 0, 103, 80
2, 58113, Note_on_c, 0, 60, 0
2, 58113, Note_on_c, 0, 48, 0
2, 58125, Control_c, 0, 64, 127
2, 58139, Note_on_c, 0, 94, 0
2, 58139, Note_on_c, 0, 103, 0
2, 58179, Note_on_c, 0, 51, 80
2, 58181, Note_on_c, 0, 46, 0
2, 58181, Note_on_c, 0, 55, 0
2, 58247, Note_on_c, 0, 46, 80
2, 58248, Note_on_c, 0, 51, 0
2, 58248, Note_on_c, 0, 58, 80
2, 58248, Note_on_c, 0, 63, 80
2, 58276, Note_on_c, 0, 63, 0
2, 58276, Note_on_c, 0, 58, 0
2, 58314, Note_on_c, 0, 43, 80
2, 58319, Note_on_c, 0, 46, 0
2, 58333, Note_on_c, 0, 91, 0
2, 58335, Note_on_c, 0, 82, 0
2, 58335, Note_on_c, 0, 87, 0
2, 58335, Note_on_c, 0, 70, 0
2, 58335, Note_on_c, 0, 75, 0
2, 58335, Note_on_c, 0, 79, 0
2, 58346, Control_c, 0, 64, 0
2, 58384, Note_on_c, 0, 91, 80
2, 58386, Note_on_c, 0, 39, 80
2, 58386, Note_on_c, 0, 55, 80
2, 58386, Note_on_c, 0, 70, 80
2, 58386, Note_on_c, 0, 75, 80
2, 58386, Note_on_c, 0, 79, 80
2, 58386, Note_on_c, 0, 82, 80
2, 58386, Note_on_c, 0, 87, 80
2, 58388, Note_on_c, 0, 43, 0
2, 58416, Note_on_c, 0, 70, 0
2, 58416, Note_on_c, 0, 87, 0
2, 58416, Note_on_c, 0, 75, 0
2, 58416, Note_on_c, 0, 82, 0
2, 58416, Note_on_c, 0, 91, 0
2, 58416, Note_on_c, 0, 79, 0
2, 58453, Note_on_c, 0, 87, 80
2, 58453, Note_on_c, 0, 90, 80
2, 58455, Note_on_c, 0, 69, 80
2, 58455, Note_on_c, 0, 75, 80
2, 58455, Note_on_c, 0, 78, 80
2, 58455, Note_on_c, 0, 81, 80
2, 58486, Note_on_c, 0, 81, 0
2, 58486, Note_on_c, 0, 78, 0
2, 58486, Note_on_c, 0, 69, 0
2, 58486, Note_on_c, 0, 90, 0
2, 58486, Note_on_c, 0, 87, 0
2, 58486, Note_on_c, 0, 75, 0
2, 58523, Note_on_c, 0, 48, 80
2, 58523, Note_on_c, 0, 60, 80
2, 58523, Note_on_c, 0, 63, 80
2, 58525, Note_on_c, 0, 55, 0
2, 58527, Note_on_c, 0, 39, 0
2, 58553, Note_on_c, 0, 63, 0
2, 58567, Note_on_c, 0, 60, 0
2, 58590, Note_on_c, 0, 87, 80
2, 58590, Note_on_c, 0, 91, 80
2, 58592, Note_on_c, 0, 70, 80
2, 58592, Note_on_c, 0, 75, 80
2, 58592, Note_on_c, 0, 79, 80
2, 58592, Note_on_c, 0, 82, 80
2, 58657, Note_on_c, 0, 46, 80
2, 58657, Note_on_c, 0, 55, 80
2, 58657, Note_on_c, 0, 94, 80
2, 58657, Note_on_c, 0, 103, 80
2, 58662, Note_on_c, 0, 48, 0
2, 58685, Note_on_c, 0, 103, 0
2, 58685, Note_on_c, 0, 94, 0
2, 58697, Control_c, 0, 64, 127
2, 58725, Note_on_c, 0, 51, 80
2, 58727, Note_on_c, 0, 46, 0
2, 58727, Note_on_c, 0, 55, 0
2, 58787, Note_on_c, 0, 46, 80
2, 58789, Note_on_c, 0, 58, 80
2, 58789, Note_on_c, 0, 63, 80
2, 58791, Note_on_c, 0, 51, 0
2, 58817, Note_on_c, 0, 63, 0
2, 58817, Note_on_c, 0, 58, 0
2, 58828, Control_c, 0, 64, 0
2, 58851, Note_on_c, 0, 43, 80
2, 58853, Note_on_c, 0, 46, 0
2, 58881, Note_on_c, 0, 75, 0
2, 58907, Note_on_c, 0, 70, 0
2, 58907, Note_on_c, 0, 79, 0
2, 58919, Note_on_c, 0, 44, 80
2, 58919, Note_on_c, 0, 56, 80
2, 58919, Note_on_c, 0, 63, 80
2, 58919, Note_on_c, 0, 72, 80
2, 58919, Note_on_c, 0, 75, 80
2, 58920, Note_on_c, 0, 87, 0
2, 58920, Note_on_c, 0, 82, 0
2, 58920, Note_on_c, 0, 43, 0
2, 58920, Note_on_c, 0, 91, 0
2, 58946, Note_on_c, 0, 72, 0
2, 58946, Note_on_c, 0, 75, 0
2, 58946, Note_on_c, 0, 63, 0
2, 58969, Control_c, 0, 64, 127
2, 58986, Note_on_c, 0, 65, 80
2, 58986, Note_on_c, 0, 77, 80
2, 59026, Control_c, 0, 64, 0
2, 59049, Note_on_c, 0, 51, 80
2, 59054, Note_on_c, 0, 60, 80
2, 59054, Note_on_c, 0, 63, 80
2, 59056, Note_on_c, 0, 56, 0
2, 59056, Note_on_c, 0, 44, 0
2, 59082, Note_on_c, 0, 51, 0
2, 59084, Note_on_c, 0, 60, 0
2, 59084, Note_on_c, 0, 63, 0
2, 59121, Note_on_c, 0, 66, 80
2, 59121, Note_on_c, 0, 72, 80
2, 59121, Note_on_c, 0, 75, 80
2, 59121, Note_on_c, 0, 78, 80
2, 59126, Note_on_c, 0, 77, 0
2, 59126, Note_on_c, 0, 65, 0
2, 59191, Note_on_c, 0, 44, 80
2, 59191, Note_on_c, 0, 56, 80
2, 59255, Note_on_c, 0, 65, 80
2, 59255, Note_on_c, 0, 77, 80
2, 59256, Note_on_c, 0, 72, 0
2, 59256, Note_on_c, 0, 66, 0
2, 59258, Note_on_c, 0, 75, 0
2, 59258, Note_on_c, 0, 78, 0
2, 59319, Note_on_c, 0, 51, 80
2, 59319, Note_on_c, 0, 60, 80
2, 59319, Note_on_c, 0, 63, 80
2, 59319, Note_on_c, 0, 75, 80
2, 59321, Note_on_c, 0, 44, 0
2, 59323, Note_on_c, 0, 56, 0
2, 59323, Note_on_c, 0, 65, 0
2, 59323, Note_on_c, 0, 77, 0
2, 59346, Note_on_c, 0, 51, 0
2, 59348, Note_on_c, 0, 60, 0
2, 59418, Note_on_c, 0, 75, 0
2, 59458, Note_on_c, 0, 39, 80
2, 59458, Note_on_c, 0, 55, 80
2, 59458, Note_on_c, 0, 67, 80
2, 59458, Note_on_c, 0, 70, 80
2, 59458, Note_on_c, 0, 75, 80
2, 59458, Note_on_c, 0, 79, 80
2, 59458, Note_on_c, 0, 94, 80
2, 59458, Note_on_c, 0, 103, 80
2, 59460, Note_on_c, 0, 63, 0
2, 59486, Note_on_c, 0, 103, 0
2, 59486, Note_on_c, 0, 94, 0
2, 59496, Control_c, 0, 64, 127
2, 59521, Note_on_c, 0, 46, 80
2, 59528, Note_on_c, 0, 39, 0
2, 59587, Note_on_c, 0, 51, 80
2, 59589, Note_on_c, 0, 46, 0
2, 59608, Note_on_c, 0, 55, 0
2, 59657, Note_on_c, 0, 51, 0
2, 59657, Note_on_c, 0, 55, 80
2, 59711, Control_c, 0, 64, 0
2, 59712, Note_on_c, 0, 70, 0
2, 59712, Note_on_c, 0, 79, 0
2, 59712, Note_on_c, 0, 67, 0
2, 59712, Note_on_c, 0, 75, 0
2, 59722, Note_on_c, 0, 58, 80
2, 59722, Note_on_c, 0, 62, 80
2, 59722, Note_on_c, 0, 65, 80
2, 59722, Note_on_c, 0, 68, 80
2, 59727, Note_on_c, 0, 55, 0
2, 59790, Note_on_c, 0, 84, 80
2, 59792, Note_on_c, 0, 80, 80
2, 59792, Note_on_c, 0, 92, 80
2, 59792, Note_on_c, 0, 96, 80
2, 59794, Note_on_c, 0, 65, 0
2, 59794, Note_on_c, 0, 68, 0
2, 59794, Note_on_c, 0, 62, 0
2, 59859, Note_on_c, 0, 79, 80
2, 59859, Note_on_c, 0, 82, 80
2, 59861, Note_on_c, 0, 84, 0
2, 59861, Note_on_c, 0, 80, 0
2, 59871, Note_on_c, 0, 91, 80
2, 59876, Note_on_c, 0, 92, 0
2, 59876, Note_on_c, 0, 96, 0
2, 59923, Note_on_c, 0, 77, 80
2, 59925, Note_on_c, 0, 80, 80
2, 59925, Note_on_c, 0, 89, 80
2, 59929, Note_on_c, 0, 82, 0
2, 59929, Note_on_c, 0, 79, 0
2, 59929, Note_on_c, 0, 91, 0
2, 59939, Note_on_c, 0, 92, 80
2, 59991, Note_on_c, 0, 39, 80
2, 59993, Note_on_c, 0, 70, 80
2, 59993, Note_on_c, 0, 75, 80
2, 59993, Note_on_c, 0, 79, 80
2, 59993, Note_on_c, 0, 82, 80
2, 59993, Note_on_c, 0, 87, 80
2, 59993, Note_on_c, 0, 91, 80
2, 59995, Note_on_c, 0, 92, 0
2, 59995, Note_on_c, 0, 77, 0
2, 59995, Note_on_c, 0, 58, 0
2, 59995, Note_on_c, 0, 89, 0
2, 59995, Note_on_c, 0, 80, 0
2, 60021, Note_on_c, 0, 75, 0
2, 60021, Note_on_c, 0, 87, 0
2, 60056, Note_on_c, 0, 69, 80
2, 60056, Note_on_c, 0, 75, 80
2, 60056, Note_on_c, 0, 78, 80
2, 60056, Note_on_c, 0, 90, 80
2, 60058, Note_on_c, 0, 81, 80
2, 60058, Note_on_c, 0, 87, 80
2, 60060, Note_on_c, 0, 91, 0
2, 60060, Note_on_c, 0, 70, 0
2, 60060, Note_on_c, 0, 82, 0
2, 60060, Note_on_c, 0, 79, 0
2, 60125, Note_on_c, 0, 48, 80
2, 60127, Note_on_c, 0, 39, 0
2, 60155, Note_on_c, 0, 78, 0
2, 60155, Note_on_c, 0, 75, 0
2, 60155, Note_on_c, 0, 69, 0
2, 60155, Note_on_c, 0, 81, 0
2, 60155, Note_on_c, 0, 87, 0
2, 60155, Note_on_c, 0, 90, 0
2, 60192, Note_on_c, 0, 91, 80
2, 60194, Note_on_c, 0, 70, 80
2, 60194, Note_on_c, 0, 75, 80
2, 60194, Note_on_c, 0, 79, 80
2, 60194, Note_on_c, 0, 82, 80
2, 60194, Note_on_c, 0, 87, 80
2, 60260, Note_on_c, 0, 46, 80
2, 60262, Note_on_c, 0, 48, 0
2, 60302, Control_c, 0, 64, 127
2, 60328, Note_on_c, 0, 46, 0
2, 60328, Note_on_c, 0, 51, 80
2, 60344, Note_on_c, 0, 75, 0
2, 60359, Note_on_c, 0, 79, 0
2, 60359, Note_on_c, 0, 87, 0
2, 60394, Note_on_c, 0, 48, 80
2, 60394, Note_on_c, 0, 67, 80
2, 60394, Note_on_c, 0, 72, 80
2, 60394, Note_on_c, 0, 75, 80
2, 60394, Note_on_c, 0, 79, 80
2, 60394, Note_on_c, 0, 84, 80
2, 60394, Note_on_c, 0, 87, 80
2, 60396, Note_on_c, 0, 51, 0
2, 60398, Note_on_c, 0, 82, 0
2, 60398, Note_on_c, 0, 91, 0
2, 60398, Note_on_c, 0, 70, 0
2, 60471, Control_c, 0, 64, 0
2, 60490, Note_on_c, 0, 84, 0
2, 60490, Note_on_c, 0, 75, 0
2, 60490, Note_on_c, 0, 67, 0
2, 60490, Note_on_c, 0, 87, 0
2, 60490, Note_on_c, 0, 79, 0
2, 60523, Note_on_c, 0, 50, 80
2, 60525, Note_on_c, 0, 67, 80
2, 60525, Note_on_c, 0, 70, 80
2, 60525, Note_on_c, 0, 75, 80
2, 60525, Note_on_c, 0, 79, 80
2, 60525, Note_on_c, 0, 82, 80
2, 60525, Note_on_c, 0, 87, 80
2, 60529, Note_on_c, 0, 48, 0
2, 60529, Note_on_c, 0, 72, 0
2, 60552, Note_on_c, 0, 82, 0
2, 60552, Note_on_c, 0, 67, 0
2, 60552, Note_on_c, 0, 70, 0
2, 60552, Note_on_c, 0, 79, 0
2, 60593, Note_on_c, 0, 67, 80
2, 60593, Note_on_c, 0, 70, 80
2, 60593, Note_on_c, 0, 74, 80
2, 60593, Note_on_c, 0, 79, 80
2, 60593, Note_on_c, 0, 82, 80
2, 60593, Note_on_c, 0, 86, 80
2, 60598, Note_on_c, 0, 87, 0
2, 60598, Note_on_c, 0, 75, 0
2, 60656, Note_on_c, 0, 55, 80
2, 60658, Note_on_c, 0, 50, 0
2, 60670, Note_on_c, 0, 74, 0
2, 60672, Note_on_c, 0, 67, 0
2, 60672, Note_on_c, 0, 70, 0
2, 60686, Note_on_c, 0, 79, 0
2, 60686, Note_on_c, 0, 82, 0
2, 60686, Note_on_c, 0, 86, 0
2, 60721, Note_on_c, 0, 67, 80
2, 60721, Note_on_c, 0, 70, 80
2, 60721, Note_on_c, 0, 74, 80
2, 60721, Note_on_c, 0, 79, 80
2, 60721, Note_on_c, 0, 82, 80
2, 60721, Note_on_c, 0, 86, 80
2, 60731, Control_c, 0, 64, 127
2, 60783, Note_on_c, 0, 58, 80
2, 60785, Note_on_c, 0, 55, 0
2, 60848, Note_on_c, 0, 55, 80
2, 60850, Note_on_c, 0, 58, 0
2, 60878, Note_on_c, 0, 67, 0
2, 60878, Note_on_c, 0, 82, 0
2, 60878, Note_on_c, 0, 70, 0
2, 60878, Note_on_c, 0, 74, 0
2, 60878, Note_on_c, 0, 79, 0
2, 60878, Note_on_c, 0, 86, 0
2, 60901, Control_c, 0, 64, 0
2, 60912, Note_on_c, 0, 50, 80
2, 60912, Note_on_c, 0, 74, 80
2, 60912, Note_on_c, 0, 79, 80
2, 60912, Note_on_c, 0, 82, 80
2, 60912, Note_on_c, 0, 86, 80
2, 60912, Note_on_c, 0, 91, 80
2, 60914, Note_on_c, 0, 55, 0
2, 60914, Note_on_c, 0, 94, 80
2, 60994, Note_on_c, 0, 50, 0
2, 61010, Note_on_c, 0, 91, 0
2, 61010, Note_on_c, 0, 74, 0
2, 61010, Note_on_c, 0, 82, 0
2, 61010, Note_on_c, 0, 79, 0
2, 61010, Note_on_c, 0, 94, 0
2, 61010, Note_on_c, 0, 86, 0
2, 61046, Note_on_c, 0, 38, 80
2, 61046, Note_on_c, 0, 50, 80
2, 61046, Note_on_c, 0, 66, 80
2, 61046, Note_on_c, 0, 70, 80
2, 61046, Note_on_c, 0, 72, 80
2, 61048, Note_on_c, 0, 78, 80
2, 61048, Note_on_c, 0, 82, 80
2, 61111, Note_on_c, 0, 69, 80
2, 61113, Note_on_c, 0, 81, 80
2, 61118, Note_on_c, 0, 82, 0
2, 61118, Note_on_c, 0, 66, 0
2, 61118, Note_on_c, 0, 78, 0
2, 61118, Note_on_c, 0, 70, 0
2, 61183, Note_on_c, 0, 38, 0
2, 61183, Note_on_c, 0, 60, 80
2, 61183, Note_on_c, 0, 62, 80
2, 61211, Note_on_c, 0, 72, 0
2, 61213, Note_on_c, 0, 69, 0
2, 61213, Note_on_c, 0, 81, 0
2, 61250, Note_on_c, 0, 66, 80
2, 61250, Note_on_c, 0, 69, 80
2, 61250, Note_on_c, 0, 72, 80
2, 61250, Note_on_c, 0, 78, 80
2, 61250, Note_on_c, 0, 81, 80
2, 61252, Note_on_c, 0, 60, 0
2, 61252, Note_on_c, 0, 62, 0
2, 61280, Note_on_c, 0, 50, 0
2, 61318, Note_on_c, 0, 38, 80
2, 61318, Note_on_c, 0, 50, 80
2, 61388, Note_on_c, 0, 70, 80
2, 61388, Note_on_c, 0, 82, 80
2, 61390, Note_on_c, 0, 66, 0
2, 61390, Note_on_c, 0, 69, 0
2, 61390, Note_on_c, 0, 72, 0
2, 61392, Note_on_c, 0, 78, 0
2, 61392, Note_on_c, 0, 81, 0
2, 61457, Note_on_c, 0, 60, 80
2, 61457, Note_on_c, 0, 62, 80
2, 61457, Note_on_c, 0, 69, 80
2, 61457, Note_on_c, 0, 72, 80
2, 61459, Note_on_c, 0, 38, 0
2, 61459, Note_on_c, 0, 78, 80
2, 61459, Note_on_c, 0, 81, 80
2, 61461, Note_on_c, 0, 70, 0
2, 61461, Note_on_c, 0, 82, 0
2, 61540, Note_on_c, 0, 50, 0
2, 61555, Note_on_c, 0, 69, 0
2, 61555, Note_on_c, 0, 72, 0
2, 61555, Note_on_c, 0, 60, 0
2, 61555, Note_on_c, 0, 62, 0
2, 61557, Note_on_c, 0, 81, 0
2, 61557, Note_on_c, 0, 78, 0
2, 61597, Note_on_c, 0, 55, 80
2, 61597, Note_on_c, 0, 58, 80
2, 61597, Note_on_c, 0, 62, 80
2, 61597, Note_on_c, 0, 67, 80
2, 61597, Note_on_c, 0, 70, 80
2, 61597, Note_on_c, 0, 79, 80
2, 61696, Note_on_c, 0, 62, 0
2, 61696, Note_on_c, 0, 55, 0
2, 61696, Note_on_c, 0, 58, 0
2, 61731, Note_on_c, 0, 50, 80
2, 61741, Control_c, 0, 64, 127
2, 61800, Note_on_c, 0, 55, 80
2, 61801, Note_on_c, 0, 50, 0
2, 61818, Note_on_c, 0, 67, 0
2, 61818, Note_on_c, 0, 79, 0
2, 61818, Note_on_c, 0, 70, 0
2, 61839, Control_c, 0, 64, 0
2, 61867, Note_on_c, 0, 58, 80
2, 61867, Note_on_c, 0, 62, 80
2, 61869, Note_on_c, 0, 55, 0
2, 61869, Note_on_c, 0, 67, 80
2, 61869, Note_on_c, 0, 70, 80
2, 61932, Note_on_c, 0, 68, 80
2, 61934, Note_on_c, 0, 72, 80
2, 61936, Note_on_c, 0, 70, 0
2, 61936, Note_on_c, 0, 67, 0
2, 61936, Note_on_c, 0, 62, 0
2, 62001, Note_on_c, 0, 67, 80
2, 62001, Note_on_c, 0, 70, 80
2, 62003, Note_on_c, 0, 72, 0
2, 62003, Note_on_c, 0, 68, 0
2, 62066, Note_on_c, 0, 65, 80
2, 62066, Note_on_c, 0, 68, 80
2, 62071, Note_on_c, 0, 70, 0
2, 62071, Note_on_c, 0, 67, 0
2, 62094, Note_on_c, 0, 58, 0
2, 62130, Note_on_c, 0, 39, 80
2, 62130, Note_on_c, 0, 58, 80
2, 62132, Note_on_c, 0, 63, 80
2, 62132, Note_on_c, 0, 67, 80
2, 62134, Note_on_c, 0, 68, 0
2, 62134, Note_on_c, 0, 65, 0
2, 62160, Note_on_c, 0, 58, 0
2, 62161, Note_on_c, 0, 63, 0
2, 62161, Note_on_c, 0, 67, 0
2, 62194, Note_on_c, 0, 57, 80
2, 62196, Note_on_c, 0, 63, 80
2, 62196, Note_on_c, 0, 66, 80
2, 62259, Note_on_c, 0, 48, 80
2, 62264, Note_on_c, 0, 39, 0
2, 62290, Note_on_c, 0, 66, 0
2, 62290, Note_on_c, 0, 57, 0
2, 62290, Note_on_c, 0, 63, 0
2, 62328, Note_on_c, 0, 58, 80
2, 62329, Note_on_c, 0, 63, 80
2, 62329, Note_on_c, 0, 67, 80
2, 62395, Note_on_c, 0, 46, 80
2, 62397, Note_on_c, 0, 48, 0
2, 62418, Control_c, 0, 64, 127
2, 62462, Note_on_c, 0, 51, 80
2, 62464, Note_on_c, 0, 46, 0
2, 62529, Note_on_c, 0, 46, 80
2, 62534, Note_on_c, 0, 51, 0
2, 62597, Note_on_c, 0, 43, 80
2, 62599, Note_on_c, 0, 46, 0
2, 62630, Note_on_c, 0, 67, 0
2, 62630, Note_on_c, 0, 58, 0
2, 62630, Note_on_c, 0, 63, 0
2, 62640, Control_c, 0, 64, 0
2, 62667, Note_on_c, 0, 39, 80
2, 62667, Note_on_c, 0, 58, 80
2, 62667, Note_on_c, 0, 63, 80
2, 62669, Note_on_c, 0, 43, 0
2, 62669, Note_on_c, 0, 67, 80
2, 62697, Note_on_c, 0, 58, 0
2, 62699, Note_on_c, 0, 63, 0
2, 62699, Note_on_c, 0, 67, 0
2, 62736, Note_on_c, 0, 57, 80
2, 62736, Note_on_c, 0, 63, 80
2, 62736, Note_on_c, 0, 66, 80
2, 62802, Note_on_c, 0, 48, 80
2, 62807, Note_on_c, 0, 39, 0
2, 62821, Note_on_c, 0, 57, 0
2, 62835, Note_on_c, 0, 66, 0
2, 62835, Note_on_c, 0, 63, 0
2, 62873, Note_on_c, 0, 58, 80
2, 62873, Note_on_c, 0, 63, 80
2, 62873, Note_on_c, 0, 67, 80
2, 62938, Note_on_c, 0, 46, 80
2, 62940, Note_on_c, 0, 48, 0
2, 63003, Note_on_c, 0, 51, 80
2, 63005, Note_on_c, 0, 46, 0
2, 63026, Control_c, 0, 64, 127
2, 63069, Note_on_c, 0, 46, 80
2, 63073, Note_on_c, 0, 51, 0
2, 63134, Note_on_c, 0, 43, 80
2, 63139, Note_on_c, 0, 46, 0
2, 63160, Control_c, 0, 64, 0
2, 63167, Note_on_c, 0, 63, 0
2, 63178, Note_on_c, 0, 58, 0
2, 63180, Note_on_c, 0, 67, 0
2, 63199, Note_on_c, 0, 44, 80
2, 63199, Note_on_c, 0, 56, 80
2, 63201, Note_on_c, 0, 43, 0
2, 63201, Note_on_c, 0, 63, 80
2, 63203, Note_on_c, 0, 72, 80
2, 63203, Note_on_c, 0, 75, 80
2, 63266, Note_on_c, 0, 65, 80
2, 63268, Note_on_c, 0, 63, 0
2, 63268, Note_on_c, 0, 77, 80
2, 63270, Note_on_c, 0, 75, 0
2, 63270, Note_on_c, 0, 72, 0
2, 63329, Note_on_c, 0, 51, 80
2, 63331, Note_on_c, 0, 44, 0
2, 63331, Note_on_c, 0, 56, 0
2, 63331, Note_on_c, 0, 60, 80
2, 63331, Note_on_c, 0, 63, 80
2, 63359, Note_on_c, 0, 63, 0
2, 63359, Note_on_c, 0, 51, 0
2, 63359, Note_on_c, 0, 60, 0
2, 63396, Note_on_c, 0, 66, 80
2, 63396, Note_on_c, 0, 72, 80
2, 63396, Note_on_c, 0, 75, 80
2, 63396, Note_on_c, 0, 78, 80
2, 63398, Note_on_c, 0, 65, 0
2, 63398, Note_on_c, 0, 77, 0
2, 63452, Note_on_c, 0, 44, 80
2, 63454, Note_on_c, 0, 56, 80
2, 63524, Note_on_c, 0, 65, 80
2, 63524, Note_on_c, 0, 77, 80
2, 63526, Note_on_c, 0, 75, 0
2, 63526, Note_on_c, 0, 66, 0
2, 63526, Note_on_c, 0, 72, 0
2, 63526, Note_on_c, 0, 78, 0
2, 63584, Note_on_c, 0, 51, 80
2, 63586, Note_on_c, 0, 44, 0
2, 63586, Note_on_c, 0, 60, 80
2, 63586, Note_on_c, 0, 63, 80
2, 63586, Note_on_c, 0, 75, 80
2, 63588, Note_on_c, 0, 65, 0
2, 63588, Note_on_c, 0, 56, 0
2, 63590, Note_on_c, 0, 77, 0
2, 63613, Note_on_c, 0, 60, 0
2, 63613, Note_on_c, 0, 51, 0
2, 63613, Note_on_c, 0, 63, 0
2, 63615, Note_on_c, 0, 75, 0
2, 63718, Note_on_c, 0, 43, 80
2, 63720, Note_on_c, 0, 55, 80
2, 63720, Note_on_c, 0, 67, 80
2, 63720, Note_on_c, 0, 70, 80
2, 63721, Note_on_c, 0, 75, 80
2, 63721, Note_on_c, 0, 79, 80
2, 63766, Control_c, 0, 64, 127
2, 63785, Note_on_c, 0, 43, 0
2, 63785, Note_on_c, 0, 46, 80
2, 63853, Note_on_c, 0, 51, 80
2, 63855, Note_on_c, 0, 46, 0
2, 63883, Note_on_c, 0, 55, 0
2, 63920, Note_on_c, 0, 55, 80
2, 63922, Note_on_c, 0, 51, 0
2, 63985, Control_c, 0, 64, 0
2, 63985, Note_on_c, 0, 46, 80
2, 63987, Note_on_c, 0, 58, 80
2, 63989, Note_on_c, 0, 55, 0
2, 63991, Note_on_c, 0, 67, 0
2, 63991, Note_on_c, 0, 70, 0
2, 63991, Note_on_c, 0, 75, 0
2, 63991, Note_on_c, 0, 79, 0
2, 64118, Note_on_c, 0, 43, 80
2, 64120, Note_on_c, 0, 46, 0
2, 64120, Note_on_c, 0, 61, 80
2, 64120, Note_on_c, 0, 63, 80
2, 64120, Note_on_c, 0, 70, 80
2, 64122, Note_on_c, 0, 58, 0
2, 64218, Note_on_c, 0, 63, 0
2, 64218, Note_on_c, 0, 61, 0
2, 64220, Note_on_c, 0, 70, 0
2, 64252, Note_on_c, 0, 44, 80
2, 64254, Note_on_c, 0, 43, 0
2, 64254, Note_on_c, 0, 60, 80
2, 64256, Note_on_c, 0, 63, 80
2, 64256, Note_on_c, 0, 70, 80
2, 64289, Control_c, 0, 64, 127
2, 64326, Note_on_c, 0, 63, 0
2, 64326, Note_on_c, 0, 60, 0
2, 64326, Note_on_c, 0, 68, 80
2, 64328, Note_on_c, 0, 70, 0
2, 64387, Control_c, 0, 64, 0
2, 64389, Note_on_c, 0, 51, 80
2, 64391, Note_on_c, 0, 44, 0
2, 64423, Note_on_c, 0, 68, 0
2, 64461, Note_on_c, 0, 63, 80
2, 64461, Note_on_c, 0, 68, 80
2, 64461, Note_on_c, 0, 72, 80
2, 64524, Note_on_c, 0, 44, 80
2, 64529, Note_on_c, 0, 51, 0
2, 64594, Note_on_c, 0, 71, 80
2, 64596, Note_on_c, 0, 63, 0
2, 64598, Note_on_c, 0, 72, 0
2, 64598, Note_on_c, 0, 68, 0
2, 64658, Note_on_c, 0, 45, 80
2, 64660, Note_on_c, 0, 44, 0
2, 64660, Note_on_c, 0, 63, 80
2, 64660, Note_on_c, 0, 66, 80
2, 64660, Note_on_c, 0, 72, 80
2, 64662, Note_on_c, 0, 71, 0
2, 64758, Note_on_c, 0, 63, 0
2, 64760, Note_on_c, 0, 72, 0
2, 64760, Note_on_c, 0, 66, 0
2, 64791, Note_on_c, 0, 46, 80
2, 64793, Note_on_c, 0, 63, 80
2, 64795, Note_on_c, 0, 45, 0
2, 64795, Note_on_c, 0, 67, 80
2, 64795, Note_on_c, 0, 72, 80
2, 64816, Control_c, 0, 64, 127
2, 64860, Note_on_c, 0, 70, 80
2, 64862, Note_on_c, 0, 72, 0
2, 64862, Note_on_c, 0, 67, 0
2, 64862, Note_on_c, 0, 63, 0
2, 64909, Control_c, 0, 64, 0
2, 64928, Note_on_c, 0, 58, 80
2, 64930, Note_on_c, 0, 46, 0
2, 64932, Note_on_c, 0, 70, 0
2, 64997, Note_on_c, 0, 70, 80
2, 64997, Note_on_c, 0, 75, 80
2, 64999, Note_on_c, 0, 79, 80
2, 65063, Note_on_c, 0, 46, 80
2, 65067, Note_on_c, 0, 58, 0
2, 65069, Note_on_c, 0, 75, 0
2, 65095, Control_c, 0, 64, 127
2, 65107, Note_on_c, 0, 70, 0
2, 65107, Note_on_c, 0, 79, 0
2, 65135, Note_on_c, 0, 75, 80
2, 65191, Control_c, 0, 64, 0
2, 65196, Note_on_c, 0, 58, 80
2, 65196, Note_on_c, 0, 63, 80
2, 65198, Note_on_c, 0, 46, 0
2, 65198, Note_on_c, 0, 67, 80
2, 65203, Note_on_c, 0, 75, 0
2, 65278, Note_on_c, 0, 67, 0
2, 65292, Note_on_c, 0, 58, 0
2, 65294, Note_on_c, 0, 63, 0
2, 65327, Note_on_c, 0, 46, 80
2, 65327, Note_on_c, 0, 56, 80
2, 65328, Note_on_c, 0, 62, 80
2, 65328, Note_on_c, 0, 67, 80
2, 65333, Control_c, 0, 64, 127
2, 65397, Note_on_c, 0, 65, 80
2, 65399, Note_on_c, 0, 67, 0
2, 65462, Note_on_c, 0, 34, 80
2, 65464, Note_on_c, 0, 46, 0
2, 65475, Control_c, 0, 64, 0
2, 65495, Note_on_c, 0, 56, 0
2, 65496, Note_on_c, 0, 65, 0
2, 65496, Note_on_c, 0, 62, 0
2, 65534, Note_on_c, 0, 62, 80
2, 65534, Note_on_c, 0, 68, 80
2, 65534, Note_on_c, 0, 72, 80
2, 65597, Note_on_c, 0, 34, 0
2, 65597, Note_on_c, 0, 46, 80
2, 65618, Control_c, 0, 64, 127
2, 65667, Note_on_c, 0, 70, 80
2, 65669, Note_on_c, 0, 68, 0
2, 65671, Note_on_c, 0, 72, 0
2, 65694, Note_on_c, 0, 62, 0
2, 65713, Control_c, 0, 64, 0
2, 65728, Note_on_c, 0, 34, 80
2, 65735, Note_on_c, 0, 46, 0
2, 65735, Note_on_c, 0, 56, 80
2, 65735, Note_on_c, 0, 62, 80
2, 65735, Note_on_c, 0, 67, 80
2, 65739, Note_on_c, 0, 70, 0
2, 65866, Note_on_c, 0, 39, 80
2, 65866, Note_on_c, 0, 46, 80
2, 65868, Note_on_c, 0, 34, 0
2, 65868, Note_on_c, 0, 51, 80
2, 65868, Note_on_c, 0, 55, 80
2, 65870, Note_on_c, 0, 63, 80
2, 65872, Note_on_c, 0, 67, 0
2, 65872, Note_on_c, 0, 62, 0
2, 65872, Note_on_c, 0, 56, 0
2, 65904, Control_c, 0, 64, 127
2, 66000, Note_on_c, 0, 43, 80
2, 66002, Note_on_c, 0, 46, 0
2, 66002, Note_on_c, 0, 39, 0
2, 66004, Note_on_c, 0, 51, 0
2, 66117, Control_c, 0, 64, 0
2, 66131, Note_on_c, 0, 46, 80
2, 66136, Note_on_c, 0, 43, 0
2, 66204, Note_on_c, 0, 62, 80
2, 66204, Note_on_c, 0, 74, 80
2, 66206, Note_on_c, 0, 63, 0
2, 66206, Note_on_c, 0, 55, 0
2, 66266, Note_on_c, 0, 51, 80
2, 66268, Note_on_c, 0, 46, 0
2, 66268, Note_on_c, 0, 63, 80
2, 66268, Note_on_c, 0, 75, 80
2, 66270, Note_on_c, 0, 62, 0
2, 66270, Note_on_c, 0, 74, 0
2, 66334, Note_on_c, 0, 65, 80
2, 66334, Note_on_c, 0, 77, 80
2, 66336, Note_on_c, 0, 75, 0
2, 66336, Note_on_c, 0, 63, 0
2, 66389, Note_on_c, 0, 35, 80
2, 66394, Note_on_c, 0, 47, 80
2, 66396, Note_on_c, 0, 51, 0
2, 66396, Note_on_c, 0, 66, 80
2, 66396, Note_on_c, 0, 71, 80
2, 66396, Note_on_c, 0, 75, 80
2, 66396, Note_on_c, 0, 78, 80
2, 66398, Note_on_c, 0, 65, 0
2, 66400, Note_on_c, 0, 77, 0
2, 66411, Control_c, 0, 64, 127
2, 66426, Note_on_c, 0, 75, 0
2, 66426, Note_on_c, 0, 66, 0
2, 66426, Note_on_c, 0, 71, 0
2, 66428, Note_on_c, 0, 78, 0
2, 66458, Note_on_c, 0, 66, 80
2, 66460, Note_on_c, 0, 71, 80
2, 66460, Note_on_c, 0, 75, 80
2, 66460, Note_on_c, 0, 78, 80
2, 66507, Control_c, 0, 64, 0
2, 66522, Note_on_c, 0, 37, 80
2, 66524, Note_on_c, 0, 35, 0
2, 66524, Note_on_c, 0, 49, 80
2, 66526, Note_on_c, 0, 47, 0
2, 66542, Note_on_c, 0, 71, 0
2, 66542, Note_on_c, 0, 66, 0
2, 66542, Note_on_c, 0, 75, 0
2, 66542, Note_on_c, 0, 78, 0
2, 66594, Note_on_c, 0, 66, 80
2, 66594, Note_on_c, 0, 71, 80
2, 66596, Note_on_c, 0, 75, 80
2, 66596, Note_on_c, 0, 78, 80
2, 66656, Note_on_c, 0, 39, 80
2, 66656, Note_on_c, 0, 51, 80
2, 66658, Note_on_c, 0, 37, 0
2, 66660, Note_on_c, 0, 49, 0
2, 66688, Control_c, 0, 64, 127
2, 66744, Control_c, 0, 64, 0
2, 66789, Note_on_c, 0, 42, 80
2, 66791, Note_on_c, 0, 51, 0
2, 66791, Note_on_c, 0, 39, 0
2, 66800, Note_on_c, 0, 54, 80
2, 66924, Note_on_c, 0, 47, 80
2, 66924, Note_on_c, 0, 59, 80
2, 66926, Note_on_c, 0, 42, 0
2, 66928, Note_on_c, 0, 54, 0
2, 66935, Control_c, 0, 64, 127
2, 66944, Note_on_c, 0, 71, 0
2, 66944, Note_on_c, 0, 75, 0
2, 66956, Note_on_c, 0, 78, 0
2, 66956, Note_on_c, 0, 66, 0
2, 66996, Note_on_c, 0, 71, 80
2, 66996, Note_on_c, 0, 75, 80
2, 67032, Control_c, 0, 64, 0
2, 67057, Note_on_c, 0, 42, 80
2, 67062, Note_on_c, 0, 54, 80
2, 67064, Note_on_c, 0, 47, 0
2, 67064, Note_on_c, 0, 66, 80
2, 67064, Note_on_c, 0, 78, 80
2, 67066, Note_on_c, 0, 75, 0
2, 67066, Note_on_c, 0, 59, 0
2, 67066, Note_on_c, 0, 71, 0
2, 67131, Note_on_c, 0, 71, 80
2, 67133, Note_on_c, 0, 66, 0
2, 67135, Note_on_c, 0, 78, 0
2, 67194, Note_on_c, 0, 39, 80
2, 67194, Note_on_c, 0, 51, 80
2, 67196, Note_on_c, 0, 42, 0
2, 67196, Note_on_c, 0, 75, 80
2, 67198, Note_on_c, 0, 54, 0
2, 67202, Note_on_c, 0, 71, 0
2, 67219, Control_c, 0, 64, 127
2, 67266, Note_on_c, 0, 66, 80
2, 67266, Note_on_c, 0, 78, 80
2, 67268, Note_on_c, 0, 75, 0
2, 67315, Control_c, 0, 64, 0
2, 67326, Note_on_c, 0, 35, 80
2, 67331, Note_on_c, 0, 47, 80
2, 67333, Note_on_c, 0, 39, 0
2, 67335, Note_on_c, 0, 51, 0
2, 67400, Note_on_c, 0, 71, 80
2, 67400, Note_on_c, 0, 75, 80
2, 67402, Note_on_c, 0, 66, 0
2, 67404, Note_on_c, 0, 78, 0
2, 67430, Note_on_c, 0, 71, 0
2, 67430, Note_on_c, 0, 75, 0
2, 67461, Note_on_c, 0, 34, 80
2, 67465, Note_on_c, 0, 35, 0
2, 67465, Note_on_c, 0, 46, 80
2, 67467, Note_on_c, 0, 47, 0
2, 67467, Note_on_c, 0, 67, 80
2, 67467, Note_on_c, 0, 70, 80
2, 67467, Note_on_c, 0, 75, 80
2, 67469, Note_on_c, 0, 79, 80
2, 67495, Note_on_c, 0, 67, 0
2, 67497, Note_on_c, 0, 75, 0
2, 67497, Note_on_c, 0, 70, 0
2, 67497, Note_on_c, 0, 79, 0
2, 67499, Control_c, 0, 64, 127
2, 67532, Note_on_c, 0, 67, 80
2, 67532, Note_on_c, 0, 70, 80
2, 67532, Note_on_c, 0, 75, 80
2, 67534, Note_on_c, 0, 79, 80
2, 67555, Control_c, 0, 64, 0
2, 67561, Note_on_c, 0, 75, 0
2, 67561, Note_on_c, 0, 70, 0
2, 67561, Note_on_c, 0, 67, 0
2, 67563, Note_on_c, 0, 79, 0
2, 67594, Note_on_c, 0, 39, 80
2, 67594, Note_on_c, 0, 51, 80
2, 67599, Note_on_c, 0, 34, 0
2, 67601, Note_on_c, 0, 46, 0
2, 67669, Note_on_c, 0, 67, 80
2, 67669, Note_on_c, 0, 70, 80
2, 67671, Note_on_c, 0, 75, 80
2, 67671, Note_on_c, 0, 79, 80
2, 67731, Note_on_c, 0, 41, 80
2, 67733, Note_on_c, 0, 53, 80
2, 67735, Note_on_c, 0, 39, 0
2, 67735, Note_on_c, 0, 51, 0
2, 67740, Control_c, 0, 64, 127
2, 67839, Control_c, 0, 64, 0
2, 67870, Note_on_c, 0, 43, 80
2, 67870, Note_on_c, 0, 55, 80
2, 67872, Note_on_c, 0, 53, 0
2, 67872, Note_on_c, 0, 41, 0
2, 68000, Note_on_c, 0, 46, 80
2, 68002, Note_on_c, 0, 43, 0
2, 68002, Note_on_c, 0, 58, 80
2, 68004, Note_on_c, 0, 55, 0
2, 68023, Note_on_c, 0, 79, 0
2, 68023, Note_on_c, 0, 75, 0
2, 68025, Control_c, 0, 64, 127
2, 68037, Note_on_c, 0, 67, 0
2, 68037, Note_on_c, 0, 70, 0
2, 68074, Note_on_c, 0, 75, 80
2, 68074, Note_on_c, 0, 79, 80
2, 68121, Control_c, 0, 64, 0
2, 68137, Note_on_c, 0, 43, 80
2, 68137, Note_on_c, 0, 55, 80
2, 68139, Note_on_c, 0, 46, 0
2, 68139, Note_on_c, 0, 70, 80
2, 68141, Note_on_c, 0, 58, 0
2, 68141, Note_on_c, 0, 82, 80
2, 68143, Note_on_c, 0, 79, 0
2, 68143, Note_on_c, 0, 75, 0
2, 68207, Note_on_c, 0, 75, 80
2, 68208, Note_on_c, 0, 70, 0
2, 68210, Note_on_c, 0, 82, 0
2, 68269, Note_on_c, 0, 39, 80
2, 68269, Note_on_c, 0, 51, 80
2, 68271, Note_on_c, 0, 43, 0
2, 68271, Note_on_c, 0, 77, 80
2, 68273, Note_on_c, 0, 55, 0
2, 68275, Note_on_c, 0, 75, 0
2, 68305, Control_c, 0, 64, 127
2, 68341, Note_on_c, 0, 70, 80
2, 68341, Note_on_c, 0, 75, 80
2, 68343, Note_on_c, 0, 79, 80
2, 68345, Note_on_c, 0, 77, 0
2, 68361, Control_c, 0, 64, 0
2, 68401, Note_on_c, 0, 34, 80
2, 68401, Note_on_c, 0, 46, 80
2, 68403, Note_on_c, 0, 39, 0
2, 68405, Note_on_c, 0, 51, 0
2, 68539, Note_on_c, 0, 34, 0
2, 68539, Note_on_c, 0, 38, 80
2, 68541, Note_on_c, 0, 46, 0
2, 68541, Note_on_c, 0, 58, 80
2, 68543, Note_on_c, 0, 92, 80
2, 68543, Note_on_c, 0, 96, 80
2, 68544, Note_on_c, 0, 75, 0
2, 68544, Note_on_c, 0, 70, 0
2, 68544, Note_on_c, 0, 79, 0
2, 68608, Note_on_c, 0, 91, 80
2, 68610, Note_on_c, 0, 94, 80
2, 68612, Note_on_c, 0, 96, 0
2, 68612, Note_on_c, 0, 92, 0
2, 68672, Note_on_c, 0, 38, 0
2, 68672, Note_on_c, 0, 56, 80
2, 68672, Note_on_c, 0, 62, 80
2, 68714, Note_on_c, 0, 62, 0
2, 68714, Note_on_c, 0, 56, 0
2, 68740, Note_on_c, 0, 89, 80
2, 68740, Note_on_c, 0, 92, 80
2, 68745, Note_on_c, 0, 91, 0
2, 68745, Note_on_c, 0, 94, 0
2, 68804, Note_on_c, 0, 34, 80
2, 68879, Note_on_c, 0, 87, 80
2, 68879, Note_on_c, 0, 91, 80
2, 68880, Note_on_c, 0, 92, 0
2, 68880, Note_on_c, 0, 89, 0
2, 68944, Note_on_c, 0, 34, 0
2, 68944, Note_on_c, 0, 56, 80
2, 68946, Note_on_c, 0, 62, 80
2, 68946, Note_on_c, 0, 86, 80
2, 68946, Note_on_c, 0, 89, 80
2, 68962, Note_on_c, 0, 87, 0
2, 68962, Note_on_c, 0, 91, 0
2, 68985, Note_on_c, 0, 62, 0
2, 68985, Note_on_c, 0, 56, 0
2, 69074, Note_on_c, 0, 46, 80
2, 69079, Note_on_c, 0, 85, 80
2, 69079, Note_on_c, 0, 88, 80
2, 69081, Note_on_c, 0, 86, 0
2, 69083, Note_on_c, 0, 89, 0
2, 69146, Note_on_c, 0, 86, 80
2, 69146, Note_on_c, 0, 89, 80
2, 69148, Note_on_c, 0, 85, 0
2, 69148, Note_on_c, 0, 88, 0
2, 69171, Note_on_c, 0, 58, 0
2, 69207, Note_on_c, 0, 46, 0
2, 69207, Note_on_c, 0, 56, 80
2, 69207, Note_on_c, 0, 62, 80
2, 69240, Note_on_c, 0, 89, 0
2, 69240, Note_on_c, 0, 86, 0
2, 69251, Note_on_c, 0, 56, 0
2, 69251, Note_on_c, 0, 62, 0
2, 69272, Note_on_c, 0, 58, 80
2, 69274, Note_on_c, 0, 86, 80
2, 69274, Note_on_c, 0, 89, 80
2, 69302, Note_on_c, 0, 58, 0
2, 69333, Note_on_c, 0, 34, 80
2, 69335, Note_on_c, 0, 58, 80
2, 69365, Note_on_c, 0, 58, 0
2, 69401, Note_on_c, 0, 34, 0
2, 69401, Note_on_c, 0, 58, 80
2, 69403, Note_on_c, 0, 87, 80
2, 69403, Note_on_c, 0, 91, 80
2, 69405, Note_on_c, 0, 89, 0
2, 69405, Note_on_c, 0, 86, 0
2, 69468, Note_on_c, 0, 56, 80
2, 69468, Note_on_c, 0, 62, 80
2, 69468, Note_on_c, 0, 89, 80
2, 69468, Note_on_c, 0, 92, 80
2, 69470, Note_on_c, 0, 58, 0
2, 69472, Note_on_c, 0, 91, 0
2, 69472, Note_on_c, 0, 87, 0
2, 69507, Note_on_c, 0, 56, 0
2, 69522, Note_on_c, 0, 62, 0
2, 69597, Note_on_c, 0, 39, 80
2, 69599, Note_on_c, 0, 58, 80
2, 69600, Note_on_c, 0, 87, 80
2, 69600, Note_on_c, 0, 91, 80
2, 69600, Note_on_c, 0, 96, 80
2, 69602, Note_on_c, 0, 89, 0
2, 69602, Note_on_c, 0, 92, 0
2, 69666, Note_on_c, 0, 94, 80
2, 69668, Note_on_c, 0, 87, 0
2, 69668, Note_on_c, 0, 91, 0
2, 69670, Note_on_c, 0, 96, 0
2, 69730, Note_on_c, 0, 55, 80
2, 69730, Note_on_c, 0, 63, 80
2, 69732, Note_on_c, 0, 39, 0
2, 69776, Note_on_c, 0, 55, 0
2, 69776, Note_on_c, 0, 63, 0
2, 69802, Note_on_c, 0, 82, 80
2, 69802, Note_on_c, 0, 91, 80
2, 69804, Note_on_c, 0, 94, 0
2, 69864, Note_on_c, 0, 34, 80
2, 69937, Note_on_c, 0, 80, 80
2, 69937, Note_on_c, 0, 89, 80
2, 69939, Note_on_c, 0, 82, 0
2, 69941, Note_on_c, 0, 91, 0
2, 70007, Note_on_c, 0, 34, 0
2, 70007, Note_on_c, 0, 55, 80
2, 70008, Note_on_c, 0, 63, 80
2, 70008, Note_on_c, 0, 79, 80
2, 70008, Note_on_c, 0, 87, 80
2, 70010, Note_on_c, 0, 80, 0
2, 70010, Note_on_c, 0, 89, 0
2, 70051, Note_on_c, 0, 63, 0
2, 70051, Note_on_c, 0, 55, 0
2, 70142, Note_on_c, 0, 39, 80
2, 70147, Note_on_c, 0, 81, 80
2, 70147, Note_on_c, 0, 90, 80
2, 70152, Note_on_c, 0, 79, 0
2, 70152, Note_on_c, 0, 87, 0
2, 70217, Note_on_c, 0, 82, 80
2, 70217, Note_on_c, 0, 91, 80
2, 70219, Note_on_c, 0, 81, 0
2, 70219, Note_on_c, 0, 90, 0
2, 70282, Note_on_c, 0, 55, 80
2, 70282, Note_on_c, 0, 63, 80
2, 70284, Note_on_c, 0, 39, 0
2, 70284, Note_on_c, 0, 58, 0
2, 70310, Note_on_c, 0, 55, 0
2, 70310, Note_on_c, 0, 63, 0
2, 70312, Note_on_c, 0, 82, 0
2, 70312, Note_on_c, 0, 91, 0
2, 70347, Note_on_c, 0, 58, 80
2, 70349, Note_on_c, 0, 82, 80
2, 70349, Note_on_c, 0, 91, 80
2, 70377, Note_on_c, 0, 58, 0
2, 70410, Note_on_c, 0, 34, 80
2, 70412, Note_on_c, 0, 55, 80
2, 70412, Note_on_c, 0, 58, 80
2, 70412, Note_on_c, 0, 63, 80
2, 70442, Note_on_c, 0, 63, 0
2, 70442, Note_on_c, 0, 55, 0
2, 70442, Note_on_c, 0, 58, 0
2, 70475, Note_on_c, 0, 58, 80
2, 70475, Note_on_c, 0, 62, 80
2, 70475, Note_on_c, 0, 74, 80
2, 70477, Note_on_c, 0, 34, 0
2, 70479, Note_on_c, 0, 82, 0
2, 70479, Note_on_c, 0, 91, 0
2, 70537, Note_on_c, 0, 63, 80
2, 70537, Note_on_c, 0, 75, 80
2, 70542, Note_on_c, 0, 74, 0
2, 70542, Note_on_c, 0, 62, 0
2, 70606, Note_on_c, 0, 65, 80
2, 70606, Note_on_c, 0, 77, 80
2, 70608, Note_on_c, 0, 75, 0
2, 70608, Note_on_c, 0, 63, 0
2, 70635, Note_on_c, 0, 58, 0
2, 70668, Note_on_c, 0, 35, 80
2, 70670, Note_on_c, 0, 47, 80
2, 70670, Note_on_c, 0, 66, 80
2, 70670, Note_on_c, 0, 71, 80
2, 70670, Note_on_c, 0, 75, 80
2, 70670, Note_on_c, 0, 78, 80
2, 70677, Note_on_c, 0, 77, 0
2, 70677, Note_on_c, 0, 65, 0
2, 70700, Note_on_c, 0, 71, 0
2, 70700, Note_on_c, 0, 78, 0
2, 70700, Note_on_c, 0, 66, 0
2, 70700, Note_on_c, 0, 75, 0
2, 70709, Control_c, 0, 64, 127
2, 70737, Note_on_c, 0, 66, 80
2, 70737, Note_on_c, 0, 71, 80
2, 70737, Note_on_c, 0, 75, 80
2, 70737, Note_on_c, 0, 78, 80
2, 70763, Control_c, 0, 64, 0
2, 70800, Note_on_c, 0, 37, 80
2, 70802, Note_on_c, 0, 49, 80
2, 70804, Note_on_c, 0, 47, 0
2, 70804, Note_on_c, 0, 35, 0
2, 70832, Note_on_c, 0, 71, 0
2, 70832, Note_on_c, 0, 66, 0
2, 70832, Note_on_c, 0, 75, 0
2, 70832, Note_on_c, 0, 78, 0
2, 70870, Note_on_c, 0, 66, 80
2, 70870, Note_on_c, 0, 71, 80
2, 70870, Note_on_c, 0, 75, 80
2, 70870, Note_on_c, 0, 78, 80
2, 70938, Note_on_c, 0, 39, 80
2, 70938, Note_on_c, 0, 51, 80
2, 70940, Note_on_c, 0, 49, 0
2, 70940, Note_on_c, 0, 37, 0
2, 70992, Control_c, 0, 64, 127
2, 71048, Control_c, 0, 64, 0
2, 71076, Note_on_c, 0, 42, 80
2, 71076, Note_on_c, 0, 54, 80
2, 71078, Note_on_c, 0, 51, 0
2, 71078, Note_on_c, 0, 39, 0
2, 71207, Note_on_c, 0, 47, 80
2, 71207, Note_on_c, 0, 59, 80
2, 71208, Note_on_c, 0, 42, 0
2, 71210, Note_on_c, 0, 54, 0
2, 71222, Note_on_c, 0, 75, 0
2, 71233, Control_c, 0, 64, 127
2, 71235, Note_on_c, 0, 71, 0
2, 71263, Note_on_c, 0, 78, 0
2, 71263, Note_on_c, 0, 66, 0
2, 71273, Note_on_c, 0, 71, 80
2, 71273, Note_on_c, 0, 75, 80
2, 71329, Control_c, 0, 64, 0
2, 71341, Note_on_c, 0, 42, 80
2, 71341, Note_on_c, 0, 54, 80
2, 71341, Note_on_c, 0, 66, 80
2, 71341, Note_on_c, 0, 78, 80
2, 71343, Note_on_c, 0, 75, 0
2, 71343, Note_on_c, 0, 71, 0
2, 71343, Note_on_c, 0, 47, 0
2, 71343, Note_on_c, 0, 59, 0
2, 71408, Note_on_c, 0, 71, 80
2, 71413, Note_on_c, 0, 66, 0
2, 71413, Note_on_c, 0, 78, 0
2, 71478, Note_on_c, 0, 39, 80
2, 71478, Note_on_c, 0, 51, 80
2, 71478, Note_on_c, 0, 75, 80
2, 71480, Note_on_c, 0, 42, 0
2, 71480, Note_on_c, 0, 71, 0
2, 71480, Note_on_c, 0, 54, 0
2, 71516, Control_c, 0, 64, 127
2, 71544, Note_on_c, 0, 66, 80
2, 71544, Note_on_c, 0, 78, 80
2, 71545, Note_on_c, 0, 75, 0
2, 71568, Control_c, 0, 64, 0
2, 71606, Note_on_c, 0, 35, 80
2, 71606, Note_on_c, 0, 47, 80
2, 71608, Note_on_c, 0, 51, 0
2, 71610, Note_on_c, 0, 39, 0
2, 71673, Note_on_c, 0, 71, 80
2, 71673, Note_on_c, 0, 75, 80
2, 71675, Note_on_c, 0, 66, 0
2, 71675, Note_on_c, 0, 78, 0
2, 71701, Note_on_c, 0, 75, 0
2, 71741, Note_on_c, 0, 34, 80
2, 71741, Note_on_c, 0, 46, 80
2, 71741, Note_on_c, 0, 67, 80
2, 71741, Note_on_c, 0, 70, 80
2, 71741, Note_on_c, 0, 75, 80
2, 71741, Note_on_c, 0, 79, 80
2, 71743, Note_on_c, 0, 47, 0
2, 71743, Note_on_c, 0, 71, 0
2, 71743, Note_on_c, 0, 35, 0
2, 71769, Note_on_c, 0, 70, 0
2, 71769, Note_on_c, 0, 75, 0
2, 71769, Note_on_c, 0, 79, 0
2, 71769, Note_on_c, 0, 67, 0
2, 71795, Control_c, 0, 64, 127
2, 71807, Note_on_c, 0, 67, 80
2, 71807, Note_on_c, 0, 70, 80
2, 71807, Note_on_c, 0, 75, 80
2, 71807, Note_on_c, 0, 79, 80
2, 71849, Control_c, 0, 64, 0
2, 71872, Note_on_c, 0, 39, 80
2, 71872, Note_on_c, 0, 51, 80
2, 71874, Note_on_c, 0, 34, 0
2, 71874, Note_on_c, 0, 46, 0
2, 71902, Note_on_c, 0, 75, 0
2, 71902, Note_on_c, 0, 79, 0
2, 71904, Note_on_c, 0, 70, 0
2, 71904, Note_on_c, 0, 67, 0
2, 71939, Note_on_c, 0, 67, 80
2, 71939, Note_on_c, 0, 70, 80
2, 71939, Note_on_c, 0, 75, 80
2, 71939, Note_on_c, 0, 79, 80
2, 72007, Note_on_c, 0, 41, 80
2, 72007, Note_on_c, 0, 53, 80
2, 72012, Note_on_c, 0, 39, 0
2, 72012, Note_on_c, 0, 51, 0
2, 72035, Control_c, 0, 64, 127
2, 72092, Control_c, 0, 64, 0
2, 72144, Note_on_c, 0, 55, 80
2, 72145, Note_on_c, 0, 43, 80
2, 72147, Note_on_c, 0, 53, 0
2, 72147, Note_on_c, 0, 41, 0
2, 72276, Control_c, 0, 64, 127
2, 72276, Note_on_c, 0, 46, 80
2, 72276, Note_on_c, 0, 58, 80
2, 72278, Note_on_c, 0, 43, 0
2, 72278, Note_on_c, 0, 55, 0
2, 72304, Note_on_c, 0, 79, 0
2, 72304, Note_on_c, 0, 75, 0
2, 72330, Note_on_c, 0, 70, 0
2, 72330, Note_on_c, 0, 67, 0
2, 72339, Note_on_c, 0, 75, 80
2, 72339, Note_on_c, 0, 79, 80
2, 72408, Note_on_c, 0, 43, 80
2, 72408, Note_on_c, 0, 55, 80
2, 72408, Note_on_c, 0, 70, 80
2, 72408, Note_on_c, 0, 82, 80
2, 72409, Note_on_c, 0, 79, 0
2, 72409, Control_c, 0, 64, 0
2, 72411, Note_on_c, 0, 75, 0
2, 72411, Note_on_c, 0, 46, 0
2, 72411, Note_on_c, 0, 58, 0
2, 72472, Note_on_c, 0, 75, 80
2, 72474, Note_on_c, 0, 70, 0
2, 72474, Note_on_c, 0, 82, 0
2, 72539, Note_on_c, 0, 39, 80
2, 72539, Note_on_c, 0, 51, 80
2, 72539, Note_on_c, 0, 77, 80
2, 72541, Note_on_c, 0, 43, 0
2, 72541, Note_on_c, 0, 75, 0
2, 72541, Note_on_c, 0, 55, 0
2, 72555, Control_c, 0, 64, 127
2, 72607, Note_on_c, 0, 70, 80
2, 72607, Note_on_c, 0, 75, 80
2, 72607, Note_on_c, 0, 79, 80
2, 72609, Note_on_c, 0, 77, 0
2, 72653, Control_c, 0, 64, 0
2, 72672, Note_on_c, 0, 34, 80
2, 72672, Note_on_c, 0, 46, 80
2, 72677, Note_on_c, 0, 39, 0
2, 72677, Note_on_c, 0, 51, 0
2, 72801, Note_on_c, 0, 91, 80
2, 72803, Note_on_c, 0, 44, 80
2, 72803, Note_on_c, 0, 60, 80
2, 72803, Note_on_c, 0, 63, 80
2, 72803, Note_on_c, 0, 67, 80
2, 72803, Note_on_c, 0, 84, 80
2, 72803, Note_on_c, 0, 87, 80
2, 72805, Note_on_c, 0, 79, 0
2, 72805, Note_on_c, 0, 70, 0
2, 72805, Note_on_c, 0, 75, 0
2, 72807, Note_on_c, 0, 34, 0
2, 72807, Note_on_c, 0, 46, 0
2, 72830, Note_on_c, 0, 67, 0
2, 72830, Note_on_c, 0, 84, 0
2, 72830, Note_on_c, 0, 91, 0
2, 72830, Note_on_c, 0, 87, 0
2, 72832, Note_on_c, 0, 60, 0
2, 72832, Note_on_c, 0, 63, 0
2, 72864, Note_on_c, 0, 91, 80
2, 72869, Note_on_c, 0, 84, 80
2, 72869, Note_on_c, 0, 87, 80
2, 72937, Note_on_c, 0, 63, 80
2, 72937, Note_on_c, 0, 67, 80
2, 72939, Note_on_c, 0, 48, 80
2, 72939, Note_on_c, 0, 60, 80
2, 72941, Note_on_c, 0, 44, 0
2, 72964, Note_on_c, 0, 87, 0
2, 72964, Note_on_c, 0, 91, 0
2, 72964, Note_on_c, 0, 84, 0
2, 72981, Note_on_c, 0, 63, 0
2, 72981, Note_on_c, 0, 60, 0
2, 72981, Note_on_c, 0, 67, 0
2, 73004, Note_on_c, 0, 84, 80
2, 73004, Note_on_c, 0, 87, 80
2, 73004, Note_on_c, 0, 89, 80
2, 73074, Note_on_c, 0, 63, 80
2, 73076, Note_on_c, 0, 51, 80
2, 73076, Note_on_c, 0, 60, 80
2, 73078, Note_on_c, 0, 48, 0
2, 73104, Note_on_c, 0, 87, 0
2, 73105, Note_on_c, 0, 63, 0
2, 73105, Note_on_c, 0, 60, 0
2, 73143, Note_on_c, 0, 87, 80
2, 73145, Note_on_c, 0, 84, 0
2, 73145, Note_on_c, 0, 89, 0
2, 73173, Note_on_c, 0, 51, 0
2, 73173, Note_on_c, 0, 87, 0
2, 73210, Note_on_c, 0, 83, 80
2, 73210, Note_on_c, 0, 87, 80
2, 73210, Note_on_c, 0, 89, 80
2, 73212, Note_on_c, 0, 56, 80
2, 73212, Note_on_c, 0, 59, 80
2, 73212, Note_on_c, 0, 63, 80
2, 73256, Note_on_c, 0, 63, 0
2, 73256, Note_on_c, 0, 56, 0
2, 73256, Note_on_c, 0, 59, 0
2, 73308, Note_on_c, 0, 83, 0
2, 73308, Note_on_c, 0, 89, 0
2, 73308, Note_on_c, 0, 87, 0
2, 73348, Note_on_c, 0, 58, 80
2, 73348, Note_on_c, 0, 63, 80
2, 73348, Note_on_c, 0, 67, 80
2, 73348, Note_on_c, 0, 82, 80
2, 73348, Note_on_c, 0, 87, 80
2, 73348, Note_on_c, 0, 91, 80
2, 73350, Note_on_c, 0, 46, 80
2, 73376, Note_on_c, 0, 91, 0
2, 73376, Note_on_c, 0, 82, 0
2, 73376, Note_on_c, 0, 87, 0
2, 73392, Note_on_c, 0, 67, 0
2, 73392, Note_on_c, 0, 58, 0
2, 73392, Note_on_c, 0, 63, 0
2, 73412, Note_on_c, 0, 91, 80
2, 73414, Note_on_c, 0, 82, 80
2, 73414, Note_on_c, 0, 87, 80
2, 73479, Note_on_c, 0, 51, 80
2, 73479, Note_on_c, 0, 58, 80
2, 73479, Note_on_c, 0, 63, 80
2, 73479, Note_on_c, 0, 67, 80
2, 73484, Note_on_c, 0, 46, 0
2, 73505, Note_on_c, 0, 87, 0
2, 73505, Note_on_c, 0, 91, 0
2, 73505, Note_on_c, 0, 82, 0
2, 73507, Note_on_c, 0, 63, 0
2, 73507, Note_on_c, 0, 67, 0
2, 73507, Note_on_c, 0, 58, 0
2, 73542, Note_on_c, 0, 82, 80
2, 73542, Note_on_c, 0, 87, 80
2, 73542, Note_on_c, 0, 94, 80
2, 73612, Note_on_c, 0, 55, 80
2, 73612, Note_on_c, 0, 58, 80
2, 73612, Note_on_c, 0, 63, 80
2, 73612, Note_on_c, 0, 67, 80
2, 73617, Note_on_c, 0, 51, 0
2, 73638, Note_on_c, 0, 87, 0
2, 73640, Note_on_c, 0, 67, 0
2, 73656, Note_on_c, 0, 63, 0
2, 73656, Note_on_c, 0, 58, 0
2, 73678, Note_on_c, 0, 87, 80
2, 73680, Note_on_c, 0, 94, 0
2, 73681, Note_on_c, 0, 82, 0
2, 73709, Note_on_c, 0, 87, 0
2, 73747, Note_on_c, 0, 82, 80
2, 73747, Note_on_c, 0, 87, 80
2, 73747, Note_on_c, 0, 91, 80
2, 73749, Note_on_c, 0, 58, 80
2, 73749, Note_on_c, 0, 63, 80
2, 73749, Note_on_c, 0, 67, 80
2, 73751, Note_on_c, 0, 55, 0
2, 73778, Note_on_c, 0, 63, 0
2, 73778, Note_on_c, 0, 67, 0
2, 73790, Note_on_c, 0, 58, 0
2, 73842, Note_on_c, 0, 82, 0
2, 73842, Note_on_c, 0, 87, 0
2, 73842, Note_on_c, 0, 91, 0
2, 73879, Note_on_c, 0, 82, 80
2, 73879, Note_on_c, 0, 86, 80
2, 73879, Note_on_c, 0, 94, 80
2, 73881, Note_on_c, 0, 53, 80
2, 73881, Note_on_c, 0, 58, 80
2, 73881, Note_on_c, 0, 62, 80
2, 73881, Note_on_c, 0, 67, 80
2, 73883, Note_on_c, 0, 41, 80
2, 73923, Note_on_c, 0, 67, 0
2, 73925, Note_on_c, 0, 62, 0
2, 73925, Note_on_c, 0, 53, 0
2, 73944, Note_on_c, 0, 93, 80
2, 73949, Note_on_c, 0, 94, 0
2, 74017, Note_on_c, 0, 56, 80
2, 74017, Note_on_c, 0, 62, 80
2, 74019, Note_on_c, 0, 41, 0
2, 74045, Note_on_c, 0, 86, 0
2, 74047, Note_on_c, 0, 82, 0
2, 74062, Note_on_c, 0, 56, 0
2, 74062, Note_on_c, 0, 62, 0
2, 74083, Note_on_c, 0, 91, 80
2, 74088, Note_on_c, 0, 93, 0
2, 74088, Note_on_c, 0, 80, 80
2, 74088, Note_on_c, 0, 86, 80
2, 74104, Note_on_c, 0, 58, 0
2, 74153, Note_on_c, 0, 46, 80
2, 74153, Note_on_c, 0, 58, 80
2, 74153, Note_on_c, 0, 62, 80
2, 74153, Note_on_c, 0, 65, 80
2, 74158, Note_on_c, 0, 34, 80
2, 74198, Note_on_c, 0, 65, 0
2, 74198, Note_on_c, 0, 62, 0
2, 74217, Note_on_c, 0, 89, 80
2, 74219, Note_on_c, 0, 91, 0
2, 74221, Note_on_c, 0, 86, 0
2, 74221, Note_on_c, 0, 80, 0
2, 74281, Note_on_c, 0, 91, 80
2, 74283, Note_on_c, 0, 86, 80
2, 74285, Note_on_c, 0, 56, 80
2, 74285, Note_on_c, 0, 62, 80
2, 74285, Note_on_c, 0, 80, 80
2, 74287, Note_on_c, 0, 89, 0
2, 74287, Note_on_c, 0, 34, 0
2, 74287, Note_on_c, 0, 46, 0
2, 74315, Note_on_c, 0, 58, 0
2, 74329, Note_on_c, 0, 62, 0
2, 74329, Note_on_c, 0, 56, 0
2, 74378, Note_on_c, 0, 86, 0
2, 74378, Note_on_c, 0, 91, 0
2, 74380, Note_on_c, 0, 80, 0
2, 74418, Note_on_c, 0, 79, 80
2, 74418, Note_on_c, 0, 82, 80
2, 74418, Note_on_c, 0, 87, 80
2, 74420, Note_on_c, 0, 51, 80
2, 74420, Note_on_c, 0, 55, 80
2, 74420, Note_on_c, 0, 58, 80
2, 74420, Note_on_c, 0, 63, 80
2, 74422, Note_on_c, 0, 39, 80
2, 74487, Control_c, 0, 64, 127
2, 74524, Note_on_c, 0, 63, 0
2, 74541, Note_on_c, 0, 58, 0
2, 74550, Note_on_c, 0, 43, 80
2, 74552, Note_on_c, 0, 51, 0
2, 74552, Note_on_c, 0, 55, 0
2, 74554, Note_on_c, 0, 39, 0
2, 74657, Control_c, 0, 64, 0
2, 74683, Note_on_c, 0, 46, 80
2, 74685, Note_on_c, 0, 43, 0
2, 74734, Note_on_c, 0, 82, 0
2, 74734, Note_on_c, 0, 79, 0
2, 74734, Note_on_c, 0, 87, 0
2, 74745, Note_on_c, 0, 86, 80
2, 74747, Note_on_c, 0, 74, 80
2, 74812, Note_on_c, 0, 87, 80
2, 74817, Note_on_c, 0, 75, 80
2, 74819, Note_on_c, 0, 74, 0
2, 74819, Note_on_c, 0, 86, 0
2, 74819, Note_on_c, 0, 51, 80
2, 74821, Note_on_c, 0, 46, 0
2, 74881, Note_on_c, 0, 89, 80
2, 74883, Note_on_c, 0, 87, 0
2, 74883, Note_on_c, 0, 77, 80
2, 74885, Note_on_c, 0, 75, 0
2, 74949, Note_on_c, 0, 83, 80
2, 74949, Note_on_c, 0, 87, 80
2, 74949, Note_on_c, 0, 90, 80
2, 74951, Note_on_c, 0, 89, 0
2, 74951, Note_on_c, 0, 47, 80
2, 74951, Note_on_c, 0, 66, 80
2, 74951, Note_on_c, 0, 71, 80
2, 74951, Note_on_c, 0, 75, 80
2, 74951, Note_on_c, 0, 78, 80
2, 74952, Note_on_c, 0, 77, 0
2, 74952, Note_on_c, 0, 51, 0
2, 74962, Note_on_c, 0, 35, 80
2, 74976, Note_on_c, 0, 90, 0
2, 74978, Note_on_c, 0, 71, 0
2, 74978, Note_on_c, 0, 75, 0
2, 74978, Note_on_c, 0, 66, 0
2, 74978, Note_on_c, 0, 83, 0
2, 74978, Note_on_c, 0, 78, 0
2, 74978, Note_on_c, 0, 87, 0
2, 75016, Note_on_c, 0, 83, 80
2, 75016, Note_on_c, 0, 87, 80
2, 75016, Note_on_c, 0, 90, 80
2, 75018, Note_on_c, 0, 66, 80
2, 75018, Note_on_c, 0, 71, 80
2, 75018, Note_on_c, 0, 75, 80
2, 75018, Note_on_c, 0, 78, 80
2, 75046, Control_c, 0, 64, 127
2, 75062, Control_c, 0, 64, 0
2, 75073, Note_on_c, 0, 35, 0
2, 75083, Note_on_c, 0, 37, 80
2, 75083, Note_on_c, 0, 49, 80
2, 75085, Note_on_c, 0, 47, 0
2, 75095, Note_on_c, 0, 90, 0
2, 75096, Note_on_c, 0, 78, 0
2, 75096, Note_on_c, 0, 87, 0
2, 75096, Note_on_c, 0, 66, 0
2, 75096, Note_on_c, 0, 83, 0
2, 75096, Note_on_c, 0, 75, 0
2, 75096, Note_on_c, 0, 71, 0
2, 75145, Note_on_c, 0, 66, 80
2, 75145, Note_on_c, 0, 71, 80
2, 75145, Note_on_c, 0, 75, 80
2, 75145, Note_on_c, 0, 78, 80
2, 75145, Note_on_c, 0, 83, 80
2, 75145, Note_on_c, 0, 87, 80
2, 75145, Note_on_c, 0, 90, 80
2, 75214, Note_on_c, 0, 39, 80
2, 75214, Note_on_c, 0, 51, 80
2, 75218, Note_on_c, 0, 37, 0
2, 75218, Note_on_c, 0, 49, 0
2, 75240, Control_c, 0, 64, 127
2, 75331, Control_c, 0, 64, 0
2, 75345, Note_on_c, 0, 42, 80
2, 75345, Note_on_c, 0, 54, 80
2, 75347, Note_on_c, 0, 51, 0
2, 75349, Note_on_c, 0, 39, 0
2, 75469, Note_on_c, 0, 95, 80
2, 75469, Note_on_c, 0, 99, 80
2, 75469, Note_on_c, 0, 102, 80
2, 75474, Note_on_c, 0, 47, 80
2, 75474, Note_on_c, 0, 59, 80
2, 75476, Note_on_c, 0, 42, 0
2, 75476, Note_on_c, 0, 54, 0
2, 75487, Note_on_c, 0, 90, 0
2, 75487, Note_on_c, 0, 71, 0
2, 75487, Note_on_c, 0, 87, 0
2, 75487, Note_on_c, 0, 75, 0
2, 75487, Note_on_c, 0, 83, 0
2, 75487, Note_on_c, 0, 66, 0
2, 75487, Note_on_c, 0, 78, 0
2, 75499, Note_on_c, 0, 95, 0
2, 75499, Note_on_c, 0, 99, 0
2, 75499, Note_on_c, 0, 102, 0
2, 75515, Control_c, 0, 64, 127
2, 75536, Note_on_c, 0, 87, 80
2, 75541, Note_on_c, 0, 71, 80
2, 75541, Note_on_c, 0, 75, 80
2, 75541, Note_on_c, 0, 83, 80
2, 75572, Control_c, 0, 64, 0
2, 75604, Note_on_c, 0, 90, 80
2, 75606, Note_on_c, 0, 66, 80
2, 75606, Note_on_c, 0, 78, 80
2, 75608, Note_on_c, 0, 83, 0
2, 75608, Note_on_c, 0, 71, 0
2, 75608, Note_on_c, 0, 87, 0
2, 75608, Note_on_c, 0, 75, 0
2, 75608, Note_on_c, 0, 42, 80
2, 75608, Note_on_c, 0, 54, 80
2, 75610, Note_on_c, 0, 47, 0
2, 75610, Note_on_c, 0, 59, 0
2, 75671, Note_on_c, 0, 83, 80
2, 75675, Note_on_c, 0, 90, 0
2, 75675, Note_on_c, 0, 71, 80
2, 75677, Note_on_c, 0, 66, 0
2, 75677, Note_on_c, 0, 78, 0
2, 75738, Note_on_c, 0, 87, 80
2, 75740, Note_on_c, 0, 83, 0
2, 75740, Note_on_c, 0, 51, 80
2, 75740, Note_on_c, 0, 75, 80
2, 75742, Note_on_c, 0, 71, 0
2, 75742, Note_on_c, 0, 39, 80
2, 75744, Note_on_c, 0, 42, 0
2, 75744, Note_on_c, 0, 54, 0
2, 75755, Control_c, 0, 64, 127
2, 75783, Control_c, 0, 64, 0
2, 75804, Note_on_c, 0, 66, 80
2, 75804, Note_on_c, 0, 78, 80
2, 75804, Note_on_c, 0, 90, 80
2, 75806, Note_on_c, 0, 75, 0
2, 75806, Note_on_c, 0, 87, 0
2, 75853, Control_c, 0, 64, 127
2, 75864, Control_c, 0, 64, 0
2, 75871, Note_on_c, 0, 35, 80
2, 75871, Note_on_c, 0, 47, 80
2, 75873, Note_on_c, 0, 51, 0
2, 75878, Note_on_c, 0, 39, 0
2, 75938, Note_on_c, 0, 71, 80
2, 75938, Note_on_c, 0, 75, 80
2, 75938, Note_on_c, 0, 83, 80
2, 75938, Note_on_c, 0, 87, 80
2, 75940, Note_on_c, 0, 78, 0
2, 75940, Note_on_c, 0, 90, 0
2, 75940, Note_on_c, 0, 66, 0
2, 75966, Note_on_c, 0, 87, 0
2, 75966, Note_on_c, 0, 75, 0
2, 76004, Note_on_c, 0, 91, 80
2, 76006, Note_on_c, 0, 82, 80
2, 76006, Note_on_c, 0, 87, 80
2, 76010, Note_on_c, 0, 83, 0
2, 76010, Note_on_c, 0, 34, 80
2, 76010, Note_on_c, 0, 46, 80
2, 76010, Note_on_c, 0, 67, 80
2, 76010, Note_on_c, 0, 70, 80
2, 76010, Note_on_c, 0, 75, 80
2, 76012, Note_on_c, 0, 71, 0
2, 76012, Note_on_c, 0, 35, 0
2, 76012, Note_on_c, 0, 47, 0
2, 76035, Note_on_c, 0, 91, 0
2, 76035, Note_on_c, 0, 87, 0
2, 76035, Note_on_c, 0, 75, 0
2, 76035, Note_on_c, 0, 82, 0
2, 76040, Note_on_c, 0, 67, 0
2, 76040, Note_on_c, 0, 70, 0
2, 76040, Control_c, 0, 64, 127
2, 76076, Note_on_c, 0, 82, 80
2, 76076, Note_on_c, 0, 87, 80
2, 76076, Note_on_c, 0, 91, 80
2, 76078, Note_on_c, 0, 67, 80
2, 76078, Note_on_c, 0, 70, 80
2, 76078, Note_on_c, 0, 75, 80
2, 76094, Control_c, 0, 64, 0
2, 76134, Note_on_c, 0, 34, 0
2, 76134, Note_on_c, 0, 46, 0
2, 76144, Note_on_c, 0, 87, 0
2, 76144, Note_on_c, 0, 91, 0
2, 76144, Note_on_c, 0, 39, 80
2, 76144, Note_on_c, 0, 51, 80
2, 76146, Note_on_c, 0, 67, 0
2, 76146, Note_on_c, 0, 82, 0
2, 76146, Note_on_c, 0, 75, 0
2, 76146, Note_on_c, 0, 70, 0
2, 76206, Note_on_c, 0, 75, 80
2, 76206, Note_on_c, 0, 79, 80
2, 76206, Note_on_c, 0, 82, 80
2, 76206, Note_on_c, 0, 87, 80
2, 76206, Note_on_c, 0, 91, 80
2, 76208, Note_on_c, 0, 67, 80
2, 76208, Note_on_c, 0, 70, 80
2, 76267, Note_on_c, 0, 51, 0
2, 76267, Note_on_c, 0, 39, 0
2, 76273, Note_on_c, 0, 53, 80
2, 76275, Note_on_c, 0, 41, 80
2, 76318, Control_c, 0, 64, 127
2, 76369, Control_c, 0, 64, 0
2, 76410, Note_on_c, 0, 43, 80
2, 76410, Note_on_c, 0, 55, 80
2, 76412, Note_on_c, 0, 41, 0
2, 76412, Note_on_c, 0, 53, 0
2, 76536, Note_on_c, 0, 94, 80
2, 76536, Note_on_c, 0, 99, 80
2, 76536, Note_on_c, 0, 103, 80
2, 76537, Note_on_c, 0, 58, 80
2, 76539, Note_on_c, 0, 55, 0
2, 76539, Note_on_c, 0, 46, 80
2, 76541, Note_on_c, 0, 43, 0
2, 76548, Note_on_c, 0, 79, 0
2, 76548, Note_on_c, 0, 82, 0
2, 76548, Note_on_c, 0, 91, 0
2, 76548, Note_on_c, 0, 87, 0
2, 76553, Note_on_c, 0, 70, 0
2, 76553, Note_on_c, 0, 67, 0
2, 76553, Note_on_c, 0, 75, 0
2, 76553, Control_c, 0, 64, 127
2, 76564, Note_on_c, 0, 94, 0
2, 76564, Note_on_c, 0, 103, 0
2, 76564, Note_on_c, 0, 99, 0
2, 76602, Note_on_c, 0, 75, 80
2, 76602, Note_on_c, 0, 79, 80
2, 76602, Note_on_c, 0, 87, 80
2, 76602, Note_on_c, 0, 91, 80
2, 76651, Control_c, 0, 64, 0
2, 76665, Note_on_c, 0, 46, 0
2, 76665, Note_on_c, 0, 58, 0
2, 76672, Note_on_c, 0, 82, 80
2, 76672, Note_on_c, 0, 94, 80
2, 76674, Note_on_c, 0, 43, 80
2, 76674, Note_on_c, 0, 55, 80
2, 76674, Note_on_c, 0, 70, 80
2, 76676, Note_on_c, 0, 87, 0
2, 76676, Note_on_c, 0, 75, 0
2, 76676, Note_on_c, 0, 79, 0
2, 76676, Note_on_c, 0, 91, 0
2, 76739, Note_on_c, 0, 75, 80
2, 76739, Note_on_c, 0, 87, 80
2, 76744, Note_on_c, 0, 82, 0
2, 76744, Note_on_c, 0, 94, 0
2, 76746, Note_on_c, 0, 70, 0
2, 76802, Note_on_c, 0, 55, 0
2, 76802, Note_on_c, 0, 43, 0
2, 76807, Note_on_c, 0, 89, 80
2, 76809, Note_on_c, 0, 77, 80
2, 76811, Note_on_c, 0, 87, 0
2, 76811, Note_on_c, 0, 39, 80
2, 76811, Note_on_c, 0, 51, 80
2, 76813, Note_on_c, 0, 75, 0
2, 76839, Control_c, 0, 64, 127
2, 76874, Note_on_c, 0, 82, 80
2, 76874, Note_on_c, 0, 87, 80
2, 76874, Note_on_c, 0, 91, 80
2, 76876, Note_on_c, 0, 70, 80
2, 76876, Note_on_c, 0, 75, 80
2, 76876, Note_on_c, 0, 79, 80
2, 76878, Note_on_c, 0, 77, 0
2, 76878, Note_on_c, 0, 89, 0
2, 76935, Control_c, 0, 64, 0
2, 76944, Note_on_c, 0, 34, 80
2, 76944, Note_on_c, 0, 46, 80
2, 76946, Note_on_c, 0, 79, 0
2, 76946, Note_on_c, 0, 51, 0
2, 76948, Note_on_c, 0, 39, 0
2, 77080, Note_on_c, 0, 68, 80
2, 77080, Note_on_c, 0, 80, 80
2, 77080, Note_on_c, 0, 84, 80
2, 77082, Note_on_c, 0, 75, 0
2, 77082, Note_on_c, 0, 82, 0
2, 77082, Note_on_c, 0, 87, 0
2, 77082, Note_on_c, 0, 91, 0
2, 77082, Note_on_c, 0, 38, 80
2, 77082, Note_on_c, 0, 50, 80
2, 77084, Note_on_c, 0, 70, 0
2, 77084, Note_on_c, 0, 46, 0
2, 77084, Note_on_c, 0, 34, 0
2, 77110, Note_on_c, 0, 68, 0
2, 77124, Control_c, 0, 64, 127
2, 77145, Note_on_c, 0, 74, 80
2, 77145, Note_on_c, 0, 79, 80
2, 77145, Note_on_c, 0, 82, 80
2, 77152, Note_on_c, 0, 80, 0
2, 77152, Note_on_c, 0, 84, 0
2, 77178, Note_on_c, 0, 74, 0
2, 77178, Control_c, 0, 64, 0
2, 77208, Note_on_c, 0, 50, 0
2, 77208, Note_on_c, 0, 38, 0
2, 77215, Note_on_c, 0, 56, 80
2, 77215, Note_on_c, 0, 58, 80
2, 77215, Note_on_c, 0, 62, 80
2, 77248, Note_on_c, 0, 62, 0
2, 77248, Note_on_c, 0, 56, 0
2, 77248, Note_on_c, 0, 58, 0
2, 77280, Note_on_c, 0, 77, 80
2, 77280, Note_on_c, 0, 80, 80
2, 77282, Note_on_c, 0, 68, 80
2, 77287, Note_on_c, 0, 82, 0
2, 77287, Note_on_c, 0, 79, 0
2, 77351, Note_on_c, 0, 46, 80
2, 77351, Note_on_c, 0, 72, 80
2, 77352, Note_on_c, 0, 34, 80
2, 77354, Note_on_c, 0, 68, 0
2, 77364, Control_c, 0, 64, 127
2, 77378, Note_on_c, 0, 72, 0
2, 77416, Note_on_c, 0, 75, 80
2, 77416, Note_on_c, 0, 79, 80
2, 77418, Note_on_c, 0, 80, 0
2, 77418, Note_on_c, 0, 77, 0
2, 77460, Control_c, 0, 64, 0
2, 77479, Note_on_c, 0, 58, 80
2, 77479, Note_on_c, 0, 62, 80
2, 77479, Note_on_c, 0, 65, 80
2, 77479, Note_on_c, 0, 74, 80
2, 77479, Note_on_c, 0, 77, 80
2, 77481, Note_on_c, 0, 56, 80
2, 77483, Note_on_c, 0, 75, 0
2, 77483, Note_on_c, 0, 79, 0
2, 77509, Note_on_c, 0, 58, 0
2, 77509, Note_on_c, 0, 62, 0
2, 77509, Note_on_c, 0, 65, 0
2, 77511, Note_on_c, 0, 56, 0
2, 77544, Note_on_c, 0, 70, 80
2, 77548, Note_on_c, 0, 34, 0
2, 77548, Note_on_c, 0, 74, 0
2, 77548, Note_on_c, 0, 46, 0
2, 77571, Note_on_c, 0, 70, 0
2, 77588, Note_on_c, 0, 77, 0
2, 77607, Note_on_c, 0, 46, 80
2, 77607, Note_on_c, 0, 73, 80
2, 77607, Note_on_c, 0, 76, 80
2, 77638, Control_c, 0, 64, 127
2, 77675, Note_on_c, 0, 58, 80
2, 77675, Note_on_c, 0, 74, 80
2, 77675, Note_on_c, 0, 77, 80
2, 77677, Note_on_c, 0, 76, 0
2, 77677, Note_on_c, 0, 73, 0
2, 77705, Note_on_c, 0, 58, 0
2, 77731, Note_on_c, 0, 46, 0
2, 77731, Control_c, 0, 64, 0
2, 77742, Note_on_c, 0, 53, 80
2, 77742, Note_on_c, 0, 56, 80
2, 77742, Note_on_c, 0, 62, 80
2, 77770, Note_on_c, 0, 62, 0
2, 77770, Note_on_c, 0, 74, 0
2, 77770, Note_on_c, 0, 77, 0
2, 77772, Note_on_c, 0, 53, 0
2, 77772, Note_on_c, 0, 56, 0
2, 77808, Note_on_c, 0, 74, 80
2, 77808, Note_on_c, 0, 77, 80
2, 77809, Note_on_c, 0, 58, 80
2, 77837, Note_on_c, 0, 58, 0
2, 77878, Note_on_c, 0, 34, 80
2, 77878, Note_on_c, 0, 46, 80
2, 77878, Note_on_c, 0, 65, 80
2, 77920, Control_c, 0, 64, 127
2, 77934, Note_on_c, 0, 65, 0
2, 77944, Note_on_c, 0, 58, 80
2, 77944, Note_on_c, 0, 75, 80
2, 77944, Note_on_c, 0, 79, 80
2, 77946, Note_on_c, 0, 74, 0
2, 77946, Note_on_c, 0, 77, 0
2, 77974, Note_on_c, 0, 58, 0
2, 77974, Control_c, 0, 64, 0
2, 78011, Note_on_c, 0, 53, 80
2, 78011, Note_on_c, 0, 56, 80
2, 78011, Note_on_c, 0, 62, 80
2, 78011, Note_on_c, 0, 77, 80
2, 78011, Note_on_c, 0, 80, 80
2, 78013, Note_on_c, 0, 75, 0
2, 78013, Note_on_c, 0, 34, 0
2, 78013, Note_on_c, 0, 46, 0
2, 78013, Note_on_c, 0, 79, 0
2, 78039, Note_on_c, 0, 62, 0
2, 78074, Note_on_c, 0, 65, 80
2, 78107, Note_on_c, 0, 65, 0
2, 78119, Note_on_c, 0, 53, 0
2, 78119, Note_on_c, 0, 56, 0
2, 78144, Note_on_c, 0, 67, 80
2, 78144, Note_on_c, 0, 75, 80
2, 78144, Note_on_c, 0, 79, 80
2, 78144, Note_on_c, 0, 84, 80
2, 78146, Note_on_c, 0, 39, 80
2, 78148, Note_on_c, 0, 80, 0
2, 78148, Note_on_c, 0, 77, 0
2, 78169, Control_c, 0, 64, 127
2, 78176, Note_on_c, 0, 67, 0
2, 78209, Note_on_c, 0, 58, 80
2, 78211, Note_on_c, 0, 79, 0
2, 78211, Note_on_c, 0, 84, 0
2, 78211, Note_on_c, 0, 82, 80
2, 78213, Note_on_c, 0, 75, 0
2, 78250, Control_c, 0, 64, 0
2, 78266, Note_on_c, 0, 39, 0
2, 78278, Note_on_c, 0, 51, 80
2, 78278, Note_on_c, 0, 55, 80
2, 78278, Note_on_c, 0, 63, 80
2, 78280, Note_on_c, 0, 58, 0
2, 78306, Note_on_c, 0, 63, 0
2, 78343, Note_on_c, 0, 65, 80
2, 78343, Note_on_c, 0, 70, 80
2, 78343, Note_on_c, 0, 79, 80
2, 78345, Note_on_c, 0, 82, 0
2, 78373, Note_on_c, 0, 65, 0
2, 78399, Note_on_c, 0, 55, 0
2, 78399, Note_on_c, 0, 51, 0
2, 78408, Note_on_c, 0, 34, 80
2, 78408, Note_on_c, 0, 46, 80
2, 78410, Note_on_c, 0, 67, 80
2, 78432, Control_c, 0, 64, 127
2, 78438, Note_on_c, 0, 67, 0
2, 78471, Note_on_c, 0, 63, 80
2, 78471, Note_on_c, 0, 68, 80
2, 78471, Note_on_c, 0, 77, 80
2, 78478, Note_on_c, 0, 70, 0
2, 78478, Note_on_c, 0, 79, 0
2, 78501, Note_on_c, 0, 63, 0
2, 78501, Note_on_c, 0, 68, 0
2, 78524, Control_c, 0, 64, 0
2, 78535, Note_on_c, 0, 51, 80
2, 78537, Note_on_c, 0, 34, 0
2, 78537, Note_on_c, 0, 55, 80
2, 78537, Note_on_c, 0, 60, 80
2, 78537, Note_on_c, 0, 67, 80
2, 78537, Note_on_c, 0, 75, 80
2, 78539, Note_on_c, 0, 46, 0
2, 78539, Note_on_c, 0, 77, 0
2, 78565, Note_on_c, 0, 60, 0
2, 78565, Note_on_c, 0, 55, 0
2, 78565, Note_on_c, 0, 51, 0
2, 78602, Note_on_c, 0, 58, 80
2, 78633, Note_on_c, 0, 58, 0
2, 78671, Control_c, 0, 64, 127
2, 78672, Note_on_c, 0, 39, 80
2, 78672, Note_on_c, 0, 51, 80
2, 78672, Note_on_c, 0, 63, 80
2, 78672, Note_on_c, 0, 69, 80
2, 78672, Note_on_c, 0, 78, 80
2, 78674, Note_on_c, 0, 75, 0
2, 78674, Note_on_c, 0, 67, 0
2, 78726, Note_on_c, 0, 63, 0
2, 78736, Note_on_c, 0, 58, 80
2, 78736, Note_on_c, 0, 70, 80
2, 78736, Note_on_c, 0, 79, 80
2, 78738, Note_on_c, 0, 69, 0
2, 78738, Note_on_c, 0, 78, 0
2, 78764, Note_on_c, 0, 58, 0
2, 78764, Control_c, 0, 64, 0
2, 78790, Note_on_c, 0, 39, 0
2, 78790, Note_on_c, 0, 51, 0
2, 78801, Note_on_c, 0, 55, 80
2, 78801, Note_on_c, 0, 58, 80
2, 78801, Note_on_c, 0, 63, 80
2, 78832, Note_on_c, 0, 63, 0
2, 78832, Note_on_c, 0, 70, 0
2, 78832, Note_on_c, 0, 79, 0
2, 78869, Note_on_c, 0, 79, 80
2, 78874, Note_on_c, 0, 65, 80
2, 78874, Note_on_c, 0, 70, 80
2, 78902, Note_on_c, 0, 65, 0
2, 78902, Note_on_c, 0, 55, 0
2, 78902, Note_on_c, 0, 58, 0
2, 78937, Note_on_c, 0, 55, 80
2, 78937, Note_on_c, 0, 58, 80
2, 78939, Note_on_c, 0, 67, 80
2, 78967, Note_on_c, 0, 67, 0
2, 79008, Note_on_c, 0, 62, 80
2, 79008, Note_on_c, 0, 74, 80
2, 79009, Note_on_c, 0, 70, 0
2, 79011, Note_on_c, 0, 79, 0
2, 79075, Note_on_c, 0, 63, 80
2, 79075, Note_on_c, 0, 75, 80
2, 79077, Note_on_c, 0, 62, 0
2, 79077, Note_on_c, 0, 55, 0
2, 79077, Note_on_c, 0, 58, 0
2, 79077, Note_on_c, 0, 74, 0
2, 79140, Note_on_c, 0, 65, 80
2, 79140, Note_on_c, 0, 77, 80
2, 79142, Note_on_c, 0, 63, 0
2, 79144, Note_on_c, 0, 75, 0
2, 79207, Note_on_c, 0, 35, 80
2, 79207, Note_on_c, 0, 47, 80
2, 79209, Note_on_c, 0, 66, 80
2, 79209, Note_on_c, 0, 71, 80
2, 79209, Note_on_c, 0, 75, 80
2, 79209, Note_on_c, 0, 78, 80
2, 79209, Note_on_c, 0, 83, 80
2, 79209, Note_on_c, 0, 87, 80
2, 79209, Note_on_c, 0, 90, 80
2, 79211, Note_on_c, 0, 65, 0
2, 79211, Note_on_c, 0, 77, 0
2, 79230, Control_c, 0, 64, 127
2, 79237, Note_on_c, 0, 78, 0
2, 79237, Note_on_c, 0, 66, 0
2, 79237, Note_on_c, 0, 75, 0
2, 79237, Note_on_c, 0, 71, 0
2, 79239, Note_on_c, 0, 83, 0
2, 79239, Note_on_c, 0, 87, 0
2, 79239, Note_on_c, 0, 90, 0
2, 79274, Note_on_c, 0, 66, 80
2, 79274, Note_on_c, 0, 71, 80
2, 79274, Note_on_c, 0, 75, 80
2, 79274, Note_on_c, 0, 78, 80
2, 79274, Note_on_c, 0, 83, 80
2, 79274, Note_on_c, 0, 87, 80
2, 79274, Note_on_c, 0, 90, 80
2, 79321, Control_c, 0, 64, 0
2, 79323, Note_on_c, 0, 35, 0
2, 79335, Note_on_c, 0, 37, 80
2, 79337, Note_on_c, 0, 49, 80
2, 79339, Note_on_c, 0, 47, 0
2, 79339, Note_on_c, 0, 66, 0
2, 79341, Note_on_c, 0, 87, 0
2, 79341, Note_on_c, 0, 90, 0
2, 79341, Note_on_c, 0, 83, 0
2, 79341, Note_on_c, 0, 71, 0
2, 79341, Note_on_c, 0, 75, 0
2, 79341, Note_on_c, 0, 78, 0
2, 79404, Note_on_c, 0, 66, 80
2, 79404, Note_on_c, 0, 71, 80
2, 79404, Note_on_c, 0, 75, 80
2, 79404, Note_on_c, 0, 78, 80
2, 79404, Note_on_c, 0, 83, 80
2, 79404, Note_on_c, 0, 87, 80
2, 79404, Note_on_c, 0, 90, 80
2, 79464, Control_c, 0, 64, 127
2, 79464, Note_on_c, 0, 39, 80
2, 79464, Note_on_c, 0, 51, 80
2, 79466, Note_on_c, 0, 37, 0
2, 79468, Note_on_c, 0, 49, 0
2, 79602, Control_c, 0, 64, 0
2, 79602, Note_on_c, 0, 42, 80
2, 79602, Note_on_c, 0, 54, 80
2, 79604, Note_on_c, 0, 39, 0
2, 79604, Note_on_c, 0, 51, 0
2, 79737, Note_on_c, 0, 47, 80
2, 79737, Note_on_c, 0, 59, 80
2, 79739, Note_on_c, 0, 42, 0
2, 79739, Note_on_c, 0, 54, 0
2, 79739, Note_on_c, 0, 95, 80
2, 79739, Note_on_c, 0, 99, 80
2, 79739, Note_on_c, 0, 102, 80
2, 79753, Note_on_c, 0, 66, 0
2, 79755, Note_on_c, 0, 71, 0
2, 79755, Note_on_c, 0, 75, 0
2, 79755, Note_on_c, 0, 78, 0
2, 79755, Note_on_c, 0, 83, 0
2, 79757, Note_on_c, 0, 87, 0
2, 79757, Note_on_c, 0, 90, 0
2, 79769, Note_on_c, 0, 102, 0
2, 79769, Note_on_c, 0, 95, 0
2, 79769, Note_on_c, 0, 99, 0
2, 79788, Control_c, 0, 64, 127
2, 79809, Note_on_c, 0, 71, 80
2, 79809, Note_on_c, 0, 75, 80
2, 79809, Note_on_c, 0, 83, 80
2, 79809, Note_on_c, 0, 87, 80
2, 79847, Control_c, 0, 64, 0
2, 79872, Note_on_c, 0, 42, 80
2, 79874, Note_on_c, 0, 54, 80
2, 79874, Note_on_c, 0, 66, 80
2, 79874, Note_on_c, 0, 78, 80
2, 79876, Note_on_c, 0, 59, 0
2, 79876, Note_on_c, 0, 47, 0
2, 79876, Note_on_c, 0, 90, 80
2, 79878, Note_on_c, 0, 75, 0
2, 79878, Note_on_c, 0, 83, 0
2, 79878, Note_on_c, 0, 87, 0
2, 79878, Note_on_c, 0, 71, 0
2, 79946, Note_on_c, 0, 71, 80
2, 79946, Note_on_c, 0, 83, 80
2, 79948, Note_on_c, 0, 78, 0
2, 79948, Note_on_c, 0, 66, 0
2, 79950, Note_on_c, 0, 90, 0
2, 80011, Note_on_c, 0, 39, 80
2, 80011, Note_on_c, 0, 51, 80
2, 80013, Note_on_c, 0, 42, 0
2, 80013, Note_on_c, 0, 75, 80
2, 80017, Note_on_c, 0, 71, 0
2, 80017, Note_on_c, 0, 54, 0
2, 80017, Note_on_c, 0, 87, 80
2, 80019, Note_on_c, 0, 83, 0
2, 80039, Control_c, 0, 64, 127
2, 80086, Note_on_c, 0, 66, 80
2, 80086, Note_on_c, 0, 78, 80
2, 80086, Note_on_c, 0, 90, 80
2, 80090, Note_on_c, 0, 87, 0
2, 80090, Note_on_c, 0, 75, 0
2, 80137, Control_c, 0, 64, 0
2, 80152, Note_on_c, 0, 35, 80
2, 80152, Note_on_c, 0, 47, 80
2, 80154, Note_on_c, 0, 39, 0
2, 80154, Note_on_c, 0, 51, 0
2, 80222, Note_on_c, 0, 71, 80
2, 80222, Note_on_c, 0, 75, 80
2, 80222, Note_on_c, 0, 83, 80
2, 80222, Note_on_c, 0, 87, 80
2, 80224, Note_on_c, 0, 78, 0
2, 80224, Note_on_c, 0, 66, 0
2, 80224, Note_on_c, 0, 90, 0
2, 80250, Note_on_c, 0, 87, 0
2, 80250, Note_on_c, 0, 75, 0
2, 80282, Note_on_c, 0, 34, 80
2, 80282, Note_on_c, 0, 46, 80
2, 80287, Note_on_c, 0, 35, 0
2, 80287, Note_on_c, 0, 67, 80
2, 80289, Note_on_c, 0, 47, 0
2, 80289, Note_on_c, 0, 70, 80
2, 80289, Note_on_c, 0, 75, 80
2, 80289, Note_on_c, 0, 82, 80
2, 80289, Note_on_c, 0, 87, 80
2, 80289, Note_on_c, 0, 91, 80
2, 80291, Note_on_c, 0, 83, 0
2, 80291, Note_on_c, 0, 71, 0
2, 80314, Note_on_c, 0, 82, 0
2, 80314, Note_on_c, 0, 67, 0
2, 80314, Note_on_c, 0, 75, 0
2, 80314, Note_on_c, 0, 70, 0
2, 80316, Note_on_c, 0, 91, 0
2, 80316, Note_on_c, 0, 87, 0
2, 80318, Control_c, 0, 64, 127
2, 80349, Note_on_c, 0, 67, 80
2, 80351, Note_on_c, 0, 70, 80
2, 80351, Note_on_c, 0, 75, 80
2, 80351, Note_on_c, 0, 82, 80
2, 80351, Note_on_c, 0, 87, 80
2, 80351, Note_on_c, 0, 91, 80
2, 80372, Control_c, 0, 64, 0
2, 80402, Note_on_c, 0, 34, 0
2, 80402, Note_on_c, 0, 46, 0
2, 80412, Note_on_c, 0, 39, 80
2, 80412, Note_on_c, 0, 51, 80
2, 80419, Note_on_c, 0, 82, 0
2, 80419, Note_on_c, 0, 70, 0
2, 80419, Note_on_c, 0, 91, 0
2, 80419, Note_on_c, 0, 67, 0
2, 80419, Note_on_c, 0, 75, 0
2, 80419, Note_on_c, 0, 87, 0
2, 80477, Note_on_c, 0, 67, 80
2, 80477, Note_on_c, 0, 75, 80
2, 80479, Note_on_c, 0, 70, 80
2, 80479, Note_on_c, 0, 79, 80
2, 80479, Note_on_c, 0, 82, 80
2, 80479, Note_on_c, 0, 87, 80
2, 80479, Note_on_c, 0, 91, 80
2, 80531, Note_on_c, 0, 51, 0
2, 80531, Note_on_c, 0, 39, 0
2, 80538, Note_on_c, 0, 41, 80
2, 80540, Note_on_c, 0, 53, 80
2, 80549, Control_c, 0, 64, 127
2, 80671, Note_on_c, 0, 41, 0
2, 80671, Note_on_c, 0, 43, 80
2, 80671, Note_on_c, 0, 55, 80
2, 80676, Note_on_c, 0, 53, 0
2, 80683, Control_c, 0, 64, 0
2, 80807, Note_on_c, 0, 46, 80
2, 80808, Note_on_c, 0, 43, 0
2, 80808, Note_on_c, 0, 58, 80
2, 80810, Note_on_c, 0, 55, 0
2, 80810, Note_on_c, 0, 94, 80
2, 80810, Note_on_c, 0, 99, 80
2, 80812, Note_on_c, 0, 103, 80
2, 80824, Note_on_c, 0, 70, 0
2, 80824, Note_on_c, 0, 75, 0
2, 80824, Note_on_c, 0, 82, 0
2, 80824, Note_on_c, 0, 67, 0
2, 80824, Note_on_c, 0, 79, 0
2, 80826, Note_on_c, 0, 91, 0
2, 80826, Note_on_c, 0, 87, 0
2, 80826, Control_c, 0, 64, 127
2, 80840, Note_on_c, 0, 94, 0
2, 80840, Note_on_c, 0, 103, 0
2, 80840, Note_on_c, 0, 99, 0
2, 80876, Note_on_c, 0, 75, 80
2, 80878, Note_on_c, 0, 79, 80
2, 80878, Note_on_c, 0, 87, 80
2, 80878, Note_on_c, 0, 91, 80
2, 80927, Control_c, 0, 64, 0
2, 80931, Note_on_c, 0, 46, 0
2, 80936, Note_on_c, 0, 58, 0
2, 80943, Note_on_c, 0, 43, 80
2, 80945, Note_on_c, 0, 55, 80
2, 80945, Note_on_c, 0, 70, 80
2, 80947, Note_on_c, 0, 82, 80
2, 80947, Note_on_c, 0, 94, 80
2, 80949, Note_on_c, 0, 87, 0
2, 80949, Note_on_c, 0, 75, 0
2, 80949, Note_on_c, 0, 79, 0
2, 80949, Note_on_c, 0, 91, 0
2, 81012, Note_on_c, 0, 75, 80
2, 81014, Note_on_c, 0, 70, 0
2, 81014, Note_on_c, 0, 87, 80
2, 81016, Note_on_c, 0, 82, 0
2, 81018, Note_on_c, 0, 94, 0
2, 81067, Note_on_c, 0, 43, 0
2, 81067, Note_on_c, 0, 55, 0
2, 81072, Control_c, 0, 64, 127
2, 81073, Note_on_c, 0, 39, 80
2, 81075, Note_on_c, 0, 51, 80
2, 81077, Note_on_c, 0, 77, 80
2, 81077, Note_on_c, 0, 89, 80
2, 81079, Note_on_c, 0, 75, 0
2, 81081, Note_on_c, 0, 87, 0
2, 81144, Note_on_c, 0, 70, 80
2, 81144, Note_on_c, 0, 75, 80
2, 81144, Note_on_c, 0, 79, 80
2, 81144, Note_on_c, 0, 82, 80
2, 81146, Note_on_c, 0, 77, 0
2, 81146, Note_on_c, 0, 87, 80
2, 81146, Note_on_c, 0, 91, 80
2, 81148, Note_on_c, 0, 89, 0
2, 81165, Control_c, 0, 64, 0
2, 81202, Note_on_c, 0, 34, 80
2, 81207, Note_on_c, 0, 46, 80
2, 81209, Note_on_c, 0, 39, 0
2, 81209, Note_on_c, 0, 51, 0
2, 81211, Note_on_c, 0, 79, 0
2, 81292, Note_on_c, 0, 75, 0
2, 81294, Note_on_c, 0, 87, 0
2, 81299, Note_on_c, 0, 91, 0
2, 81335, Note_on_c, 0, 32, 80
2, 81336, Note_on_c, 0, 44, 80
2, 81338, Note_on_c, 0, 46, 0
2, 81338, Note_on_c, 0, 34, 0
2, 81338, Note_on_c, 0, 72, 80
2, 81338, Note_on_c, 0, 75, 80
2, 81340, Note_on_c, 0, 70, 0
2, 81340, Note_on_c, 0, 79, 80
2, 81340, Note_on_c, 0, 84, 80
2, 81340, Note_on_c, 0, 87, 80
2, 81340, Note_on_c, 0, 91, 80
2, 81342, Note_on_c, 0, 82, 0
2, 81342, Control_c, 0, 64, 127
2, 81365, Note_on_c, 0, 72, 0
2, 81367, Note_on_c, 0, 87, 0
2, 81367, Note_on_c, 0, 79, 0
2, 81367, Note_on_c, 0, 75, 0
2, 81367, Note_on_c, 0, 91, 0
2, 81367, Note_on_c, 0, 84, 0
2, 81403, Note_on_c, 0, 72, 80
2, 81403, Note_on_c, 0, 75, 80
2, 81403, Note_on_c, 0, 79, 80
2, 81403, Note_on_c, 0, 84, 80
2, 81403, Note_on_c, 0, 87, 80
2, 81403, Note_on_c, 0, 91, 80
2, 81435, Control_c, 0, 64, 0
2, 81450, Note_on_c, 0, 32, 0
2, 81450, Note_on_c, 0, 44, 0
2, 81459, Note_on_c, 0, 36, 80
2, 81461, Note_on_c, 0, 48, 80
2, 81463, Note_on_c, 0, 60, 80
2, 81463, Note_on_c, 0, 63, 80
2, 81463, Note_on_c, 0, 67, 80
2, 81470, Note_on_c, 0, 75, 0
2, 81470, Note_on_c, 0, 79, 0
2, 81470, Note_on_c, 0, 84, 0
2, 81470, Note_on_c, 0, 72, 0
2, 81472, Note_on_c, 0, 91, 0
2, 81472, Note_on_c, 0, 87, 0
2, 81493, Note_on_c, 0, 63, 0
2, 81493, Note_on_c, 0, 67, 0
2, 81493, Note_on_c, 0, 60, 0
2, 81535, Note_on_c, 0, 72, 80
2, 81535, Note_on_c, 0, 75, 80
2, 81537, Note_on_c, 0, 77, 80
2, 81537, Note_on_c, 0, 84, 80
2, 81537, Note_on_c, 0, 87, 80
2, 81537, Note_on_c, 0, 89, 80
2, 81598, Note_on_c, 0, 39, 80
2, 81598, Note_on_c, 0, 51, 80
2, 81600, Note_on_c, 0, 36, 0
2, 81601, Note_on_c, 0, 48, 0
2, 81618, Note_on_c, 0, 75, 0
2, 81618, Note_on_c, 0, 87, 0
2, 81618, Control_c, 0, 64, 127
2, 81644, Note_on_c, 0, 84, 0
2, 81644, Note_on_c, 0, 89, 0
2, 81644, Note_on_c, 0, 77, 0
2, 81644, Note_on_c, 0, 72, 0
2, 81667, Note_on_c, 0, 75, 80
2, 81669, Note_on_c, 0, 87, 80
2, 81673, Control_c, 0, 64, 0
2, 81696, Note_on_c, 0, 87, 0
2, 81696, Note_on_c, 0, 75, 0
2, 81729, Note_on_c, 0, 44, 80
2, 81729, Note_on_c, 0, 56, 80
2, 81731, Note_on_c, 0, 39, 0
2, 81731, Note_on_c, 0, 51, 0
2, 81731, Note_on_c, 0, 59, 80
2, 81731, Note_on_c, 0, 63, 80
2, 81731, Note_on_c, 0, 71, 80
2, 81731, Note_on_c, 0, 75, 80
2, 81736, Note_on_c, 0, 77, 80
2, 81736, Note_on_c, 0, 83, 80
2, 81738, Note_on_c, 0, 87, 80
2, 81738, Note_on_c, 0, 89, 80
2, 81759, Note_on_c, 0, 63, 0
2, 81759, Note_on_c, 0, 59, 0
2, 81817, Note_on_c, 0, 75, 0
2, 81819, Note_on_c, 0, 87, 0
2, 81852, Note_on_c, 0, 44, 0
2, 81862, Note_on_c, 0, 34, 80
2, 81866, Note_on_c, 0, 46, 80
2, 81868, Note_on_c, 0, 56, 0
2, 81868, Note_on_c, 0, 70, 80
2, 81868, Note_on_c, 0, 75, 80
2, 81868, Note_on_c, 0, 79, 80
2, 81870, Note_on_c, 0, 82, 80
2, 81870, Note_on_c, 0, 87, 80
2, 81870, Note_on_c, 0, 91, 80
2, 81872, Note_on_c, 0, 71, 0
2, 81872, Note_on_c, 0, 83, 0
2, 81872, Note_on_c, 0, 89, 0
2, 81872, Note_on_c, 0, 77, 0
2, 81898, Note_on_c, 0, 79, 0
2, 81898, Note_on_c, 0, 75, 0
2, 81898, Note_on_c, 0, 82, 0
2, 81898, Note_on_c, 0, 70, 0
2, 81900, Note_on_c, 0, 87, 0
2, 81900, Note_on_c, 0, 91, 0
2, 81900, Control_c, 0, 64, 127
2, 81936, Note_on_c, 0, 70, 80
2, 81936, Note_on_c, 0, 75, 80
2, 81936, Note_on_c, 0, 79, 80
2, 81937, Note_on_c, 0, 82, 80
2, 81937, Note_on_c, 0, 87, 80
2, 81937, Note_on_c, 0, 91, 80
2, 81954, Control_c, 0, 64, 0
2, 81991, Note_on_c, 0, 34, 0
2, 81991, Note_on_c, 0, 46, 0
2, 82001, Note_on_c, 0, 39, 80
2, 82003, Note_on_c, 0, 51, 80
2, 82003, Note_on_c, 0, 58, 80
2, 82003, Note_on_c, 0, 63, 80
2, 82003, Note_on_c, 0, 67, 80
2, 82008, Note_on_c, 0, 75, 0
2, 82008, Note_on_c, 0, 70, 0
2, 82009, Note_on_c, 0, 87, 0
2, 82009, Note_on_c, 0, 91, 0
2, 82009, Note_on_c, 0, 79, 0
2, 82009, Note_on_c, 0, 82, 0
2, 82031, Note_on_c, 0, 63, 0
2, 82031, Note_on_c, 0, 58, 0
2, 82031, Note_on_c, 0, 67, 0
2, 82068, Note_on_c, 0, 70, 80
2, 82068, Note_on_c, 0, 75, 80
2, 82070, Note_on_c, 0, 79, 80
2, 82070, Note_on_c, 0, 82, 80
2, 82070, Note_on_c, 0, 87, 80
2, 82070, Note_on_c, 0, 91, 80
2, 82072, Note_on_c, 0, 94, 80
2, 82116, Note_on_c, 0, 39, 0
2, 82118, Note_on_c, 0, 51, 0
2, 82128, Note_on_c, 0, 43, 80
2, 82129, Note_on_c, 0, 55, 80
2, 82146, Note_on_c, 0, 75, 0
2, 82148, Note_on_c, 0, 87, 0
2, 82171, Note_on_c, 0, 70, 0
2, 82173, Note_on_c, 0, 91, 0
2, 82173, Note_on_c, 0, 94, 0
2, 82173, Note_on_c, 0, 79, 0
2, 82173, Note_on_c, 0, 82, 0
2, 82173, Control_c, 0, 64, 127
2, 82196, Note_on_c, 0, 75, 80
2, 82196, Note_on_c, 0, 87, 80
2, 82224, Note_on_c, 0, 75, 0
2, 82228, Note_on_c, 0, 87, 0
2, 82228, Control_c, 0, 64, 0
2, 82248, Note_on_c, 0, 43, 0
2, 82249, Note_on_c, 0, 55, 0
2, 82256, Note_on_c, 0, 46, 80
2, 82258, Note_on_c, 0, 58, 80
2, 82258, Note_on_c, 0, 63, 80
2, 82260, Note_on_c, 0, 67, 80
2, 82260, Note_on_c, 0, 70, 80
2, 82262, Note_on_c, 0, 75, 80
2, 82262, Note_on_c, 0, 79, 80
2, 82262, Note_on_c, 0, 82, 80
2, 82262, Note_on_c, 0, 87, 80
2, 82262, Note_on_c, 0, 91, 80
2, 82290, Note_on_c, 0, 67, 0
2, 82290, Note_on_c, 0, 63, 0
2, 82353, Note_on_c, 0, 70, 0
2, 82353, Note_on_c, 0, 79, 0
2, 82353, Note_on_c, 0, 75, 0
2, 82355, Note_on_c, 0, 82, 0
2, 82355, Note_on_c, 0, 91, 0
2, 82355, Note_on_c, 0, 87, 0
2, 82376, Note_on_c, 0, 46, 0
2, 82378, Note_on_c, 0, 58, 0
2, 82383, Note_on_c, 0, 41, 80
2, 82388, Note_on_c, 0, 53, 80
2, 82388, Note_on_c, 0, 70, 80
2, 82390, Note_on_c, 0, 74, 80
2, 82390, Note_on_c, 0, 82, 80
2, 82392, Note_on_c, 0, 86, 80
2, 82392, Note_on_c, 0, 94, 80
2, 82406, Control_c, 0, 64, 127
2, 82460, Note_on_c, 0, 80, 80
2, 82462, Note_on_c, 0, 92, 80
2, 82464, Note_on_c, 0, 94, 0
2, 82464, Note_on_c, 0, 82, 0
2, 82464, Control_c, 0, 64, 0
2, 82487, Note_on_c, 0, 70, 0
2, 82488, Note_on_c, 0, 74, 0
2, 82488, Note_on_c, 0, 86, 0
2, 82505, Note_on_c, 0, 41, 0
2, 82507, Note_on_c, 0, 53, 0
2, 82521, Note_on_c, 0, 56, 80
2, 82521, Note_on_c, 0, 58, 80
2, 82523, Note_on_c, 0, 62, 80
2, 82528, Note_on_c, 0, 80, 0
2, 82528, Note_on_c, 0, 92, 0
2, 82551, Note_on_c, 0, 58, 0
2, 82551, Note_on_c, 0, 56, 0
2, 82551, Note_on_c, 0, 62, 0
2, 82588, Note_on_c, 0, 68, 80
2, 82588, Note_on_c, 0, 74, 80
2, 82590, Note_on_c, 0, 79, 80
2, 82592, Note_on_c, 0, 80, 80
2, 82592, Note_on_c, 0, 86, 80
2, 82592, Note_on_c, 0, 91, 80
2, 82651, Note_on_c, 0, 34, 80
2, 82656, Note_on_c, 0, 46, 80
2, 82696, Control_c, 0, 64, 127
2, 82733, Note_on_c, 0, 77, 80
2, 82735, Note_on_c, 0, 74, 0
2, 82735, Note_on_c, 0, 68, 0
2, 82735, Note_on_c, 0, 89, 80
2, 82737, Note_on_c, 0, 80, 0
2, 82737, Note_on_c, 0, 86, 0
2, 82737, Note_on_c, 0, 79, 0
2, 82739, Note_on_c, 0, 91, 0
2, 82751, Control_c, 0, 64, 0
2, 82765, Note_on_c, 0, 77, 0
2, 82767, Note_on_c, 0, 89, 0
2, 82783, Note_on_c, 0, 34, 0
2, 82785, Note_on_c, 0, 46, 0
2, 82800, Note_on_c, 0, 56, 80
2, 82800, Note_on_c, 0, 58, 80
2, 82800, Note_on_c, 0, 62, 80
2, 82801, Note_on_c, 0, 68, 80
2, 82801, Note_on_c, 0, 74, 80
2, 82801, Note_on_c, 0, 79, 80
2, 82801, Note_on_c, 0, 80, 80
2, 82803, Note_on_c, 0, 86, 80
2, 82805, Note_on_c, 0, 91, 80
2, 82828, Note_on_c, 0, 62, 0
2, 82828, Note_on_c, 0, 56, 0
2, 82828, Note_on_c, 0, 58, 0
2, 82898, Note_on_c, 0, 79, 0
2, 82924, Note_on_c, 0, 68, 0
2, 82924, Note_on_c, 0, 74, 0
2, 82924, Note_on_c, 0, 80, 0
2, 82926, Note_on_c, 0, 91, 0
2, 82926, Note_on_c, 0, 86, 0
2, 82928, Note_on_c, 0, 39, 80
2, 82930, Note_on_c, 0, 51, 80
2, 82932, Note_on_c, 0, 67, 80
2, 82932, Note_on_c, 0, 70, 80
2, 82932, Note_on_c, 0, 75, 80
2, 82932, Note_on_c, 0, 79, 80
2, 82932, Note_on_c, 0, 82, 80
2, 82934, Note_on_c, 0, 87, 80
2, 82936, Control_c, 0, 64, 127
2, 83051, Note_on_c, 0, 51, 0
2, 83051, Note_on_c, 0, 39, 0
2, 83058, Note_on_c, 0, 46, 80
2, 83149, Control_c, 0, 64, 0
2, 83163, Note_on_c, 0, 79, 0
2, 83163, Note_on_c, 0, 75, 0
2, 83163, Note_on_c, 0, 82, 0
2, 83165, Note_on_c, 0, 87, 0
2, 83186, Note_on_c, 0, 70, 0
2, 83186, Note_on_c, 0, 67, 0
2, 83188, Note_on_c, 0, 27, 80
2, 83193, Note_on_c, 0, 39, 80
2, 83195, Note_on_c, 0, 46, 0
2, 83197, Note_on_c, 0, 75, 80
2, 83199, Note_on_c, 0, 79, 80
2, 83199, Note_on_c, 0, 82, 80
2, 83199, Note_on_c, 0, 87, 80
2, 83199, Note_on_c, 0, 91, 80
2, 83201, Note_on_c, 0, 94, 80
2, 83201, Note_on_c, 0, 99, 80
2, 83304, Note_on_c, 0, 27, 0
2, 83308, Note_on_c, 0, 39, 0
2, 83313, Note_on_c, 0, 75, 0
2, 83315, Note_on_c, 0, 91, 0
2, 83315, Note_on_c, 0, 79, 0
2, 83315, Note_on_c, 0, 82, 0
2, 83315, Note_on_c, 0, 87, 0
2, 83317, Note_on_c, 0, 99, 0
2, 83317, Note_on_c, 0, 94, 0
2, 83450, Note_on_c, 0, 41, 80
2, 83455, Note_on_c, 0, 65, 80
2, 83455, Note_on_c, 0, 69, 80
2, 83455, Note_on_c, 0, 74, 80
2, 83486, Note_on_c, 0, 65, 0
2, 83486, Control_c, 0, 64, 127
2, 83488, Note_on_c, 0, 74, 0
2, 83488, Note_on_c, 0, 69, 0
2, 83523, Note_on_c, 0, 72, 80
2, 83543, Control_c, 0, 64, 0
2, 83590, Note_on_c, 0, 41, 0
2, 83590, Note_on_c, 0, 53, 80
2, 83590, Note_on_c, 0, 57, 80
2, 83592, Note_on_c, 0, 60, 80
2, 83619, Note_on_c, 0, 60, 0
2, 83619, Note_on_c, 0, 57, 0
2, 83619, Note_on_c, 0, 53, 0
2, 83660, Note_on_c, 0, 70, 80
2, 83664, Note_on_c, 0, 72, 0
2, 83721, Note_on_c, 0, 36, 80
2, 83728, Note_on_c, 0, 69, 80
2, 83730, Note_on_c, 0, 70, 0
2, 83798, Note_on_c, 0, 68, 80
2, 83800, Note_on_c, 0, 69, 0
2, 83863, Note_on_c, 0, 36, 0
2, 83863, Note_on_c, 0, 53, 80
2, 83863, Note_on_c, 0, 57, 80
2, 83863, Note_on_c, 0, 60, 80
2, 83865, Note_on_c, 0, 69, 80
2, 83867, Note_on_c, 0, 68, 0
2, 83893, Note_on_c, 0, 53, 0
2, 83895, Note_on_c, 0, 60, 0
2, 83895, Note_on_c, 0, 57, 0
2, 83932, Note_on_c, 0, 67, 80
2, 83937, Note_on_c, 0, 69, 0
2, 83965, Note_on_c, 0, 67, 0
2, 83993, Note_on_c, 0, 41, 80
2, 83998, Note_on_c, 0, 65, 80
2, 84017, Control_c, 0, 64, 127
2, 84066, Note_on_c, 0, 67, 80
2, 84068, Note_on_c, 0, 65, 0
2, 84112, Control_c, 0, 64, 0
2, 84128, Note_on_c, 0, 41, 0
2, 84128, Note_on_c, 0, 53, 80
2, 84128, Note_on_c, 0, 57, 80
2, 84130, Note_on_c, 0, 60, 80
2, 84130, Note_on_c, 0, 69, 80
2, 84135, Note_on_c, 0, 67, 0
2, 84161, Note_on_c, 0, 60, 0
2, 84161, Note_on_c, 0, 53, 0
2, 84161, Note_on_c, 0, 57, 0
2, 84198, Note_on_c, 0, 72, 80
2, 84200, Note_on_c, 0, 69, 0
2, 84200, Note_on_c, 0, 84, 80
2, 84254, Note_on_c, 0, 36, 80
2, 84268, Note_on_c, 0, 81, 80
2, 84268, Note_on_c, 0, 89, 80
2, 84270, Note_on_c, 0, 84, 0
2, 84327, Note_on_c, 0, 65, 80
2, 84329, Note_on_c, 0, 77, 80
2, 84331, Note_on_c, 0, 72, 0
2, 84331, Note_on_c, 0, 84, 80
2, 84331, Note_on_c, 0, 93, 80
2, 84333, Note_on_c, 0, 89, 0
2, 84333, Note_on_c, 0, 81, 0
2, 84386, Note_on_c, 0, 36, 0
2, 84386, Note_on_c, 0, 53, 80
2, 84391, Note_on_c, 0, 57, 80
2, 84391, Note_on_c, 0, 60, 80
2, 84393, Note_on_c, 0, 69, 80
2, 84393, Note_on_c, 0, 72, 80
2, 84395, Note_on_c, 0, 65, 0
2, 84395, Note_on_c, 0, 81, 80
2, 84395, Note_on_c, 0, 89, 80
2, 84395, Note_on_c, 0, 96, 80
2, 84397, Note_on_c, 0, 93, 0
2, 84397, Note_on_c, 0, 77, 0
2, 84397, Note_on_c, 0, 84, 0
2, 84416, Note_on_c, 0, 53, 0
2, 84416, Note_on_c, 0, 57, 0
2, 84416, Note_on_c, 0, 60, 0
2, 84418, Note_on_c, 0, 72, 0
2, 84418, Note_on_c, 0, 69, 0
2, 84420, Note_on_c, 0, 89, 0
2, 84420, Note_on_c, 0, 81, 0
2, 84422, Note_on_c, 0, 96, 0
2, 84513, Note_on_c, 0, 41, 80
2, 84518, Note_on_c, 0, 65, 80
2, 84520, Note_on_c, 0, 69, 80
2, 84522, Note_on_c, 0, 74, 80
2, 84522, Note_on_c, 0, 81, 80
2, 84524, Note_on_c, 0, 89, 80
2, 84550, Note_on_c, 0, 74, 0
2, 84550, Note_on_c, 0, 69, 0
2, 84550, Note_on_c, 0, 65, 0
2, 84552, Note_on_c, 0, 89, 0
2, 84552, Note_on_c, 0, 81, 0
2, 84558, Control_c, 0, 64, 127
2, 84584, Note_on_c, 0, 72, 80
2, 84617, Control_c, 0, 64, 0
2, 84648, Note_on_c, 0, 53, 80
2, 84649, Note_on_c, 0, 41, 0
2, 84649, Note_on_c, 0, 57, 80
2, 84649, Note_on_c, 0, 60, 80
2, 84654, Note_on_c, 0, 72, 0
2, 84680, Note_on_c, 0, 53, 0
2, 84680, Note_on_c, 0, 57, 0
2, 84680, Note_on_c, 0, 60, 0
2, 84718, Note_on_c, 0, 70, 80
2, 84778, Note_on_c, 0, 36, 80
2, 84785, Note_on_c, 0, 69, 80
2, 84787, Note_on_c, 0, 70, 0
2, 84850, Note_on_c, 0, 68, 80
2, 84855, Note_on_c, 0, 69, 0
2, 84913, Note_on_c, 0, 36, 0
2, 84913, Note_on_c, 0, 53, 80
2, 84913, Note_on_c, 0, 57, 80
2, 84915, Note_on_c, 0, 60, 80
2, 84917, Note_on_c, 0, 69, 80
2, 84919, Note_on_c, 0, 68, 0
2, 84942, Note_on_c, 0, 53, 0
2, 84942, Note_on_c, 0, 57, 0
2, 84944, Note_on_c, 0, 60, 0
2, 84980, Note_on_c, 0, 70, 80
2, 84982, Note_on_c, 0, 69, 0
2, 85009, Note_on_c, 0, 70, 0
2, 85042, Note_on_c, 0, 41, 80
2, 85047, Note_on_c, 0, 65, 80
2, 85047, Note_on_c, 0, 69, 80
2, 85047, Note_on_c, 0, 72, 80
2, 85075, Note_on_c, 0, 69, 0
2, 85075, Note_on_c, 0, 65, 0
2, 85077, Note_on_c, 0, 72, 0
2, 85077, Control_c, 0, 64, 127
2, 85168, Control_c, 0, 64, 0
2, 85170, Note_on_c, 0, 45, 80
2, 85172, Note_on_c, 0, 57, 80
2, 85174, Note_on_c, 0, 41, 0
2, 85174, Note_on_c, 0, 65, 80
2, 85174, Note_on_c, 0, 72, 80
2, 85174, Note_on_c, 0, 77, 80
2, 85178, Note_on_c, 0, 84, 80
2, 85206, Note_on_c, 0, 77, 0
2, 85208, Note_on_c, 0, 84, 0
2, 85239, Note_on_c, 0, 69, 80
2, 85241, Note_on_c, 0, 65, 0
2, 85241, Note_on_c, 0, 72, 0
2, 85241, Note_on_c, 0, 81, 80
2, 85269, Note_on_c, 0, 69, 0
2, 85271, Note_on_c, 0, 81, 0
2, 85301, Note_on_c, 0, 48, 80
2, 85306, Note_on_c, 0, 60, 80
2, 85306, Note_on_c, 0, 65, 80
2, 85308, Note_on_c, 0, 57, 0
2, 85310, Note_on_c, 0, 72, 80
2, 85310, Note_on_c, 0, 77, 80
2, 85310, Note_on_c, 0, 84, 80
2, 85317, Note_on_c, 0, 45, 0
2, 85340, Note_on_c, 0, 77, 0
2, 85340, Note_on_c, 0, 84, 0
2, 85375, Note_on_c, 0, 65, 0
2, 85375, Note_on_c, 0, 69, 80
2, 85380, Note_on_c, 0, 72, 0
2, 85380, Note_on_c, 0, 81, 80
2, 85408, Note_on_c, 0, 69, 0
2, 85410, Note_on_c, 0, 81, 0
2, 85442, Note_on_c, 0, 51, 80
2, 85444, Note_on_c, 0, 63, 80
2, 85444, Note_on_c, 0, 65, 80
2, 85446, Note_on_c, 0, 72, 80
2, 85446, Note_on_c, 0, 77, 80
2, 85448, Note_on_c, 0, 84, 80
2, 85460, Note_on_c, 0, 48, 0
2, 85462, Note_on_c, 0, 60, 0
2, 85471, Note_on_c, 0, 51, 0
2, 85473, Note_on_c, 0, 63, 0
2, 85473, Note_on_c, 0, 65, 0
2, 85475, Note_on_c, 0, 72, 0
2, 85477, Note_on_c, 0, 84, 0
2, 85477, Note_on_c, 0, 77, 0
2, 85580, Note_on_c, 0, 38, 80
2, 85582, Note_on_c, 0, 50, 80
2, 85586, Note_on_c, 0, 65, 80
2, 85606, Control_c, 0, 64, 127
2, 85659, Note_on_c, 0, 65, 0
2, 85659, Note_on_c, 0, 70, 80
2, 85659, Note_on_c, 0, 77, 80
2, 85659, Note_on_c, 0, 86, 80
2, 85692, Note_on_c, 0, 86, 0
2, 85704, Control_c, 0, 64, 0
2, 85723, Note_on_c, 0, 38, 0
2, 85723, Note_on_c, 0, 53, 80
2, 85723, Note_on_c, 0, 58, 80
2, 85723, Note_on_c, 0, 62, 80
2, 85725, Note_on_c, 0, 50, 0
2, 85727, Note_on_c, 0, 82, 80
2, 85728, Note_on_c, 0, 89, 80
2, 85752, Note_on_c, 0, 53, 0
2, 85753, Note_on_c, 0, 58, 0
2, 85753, Note_on_c, 0, 62, 0
2, 85755, Note_on_c, 0, 82, 0
2, 85757, Note_on_c, 0, 89, 0
2, 85790, Note_on_c, 0, 65, 80
2, 85795, Note_on_c, 0, 70, 0
2, 85797, Note_on_c, 0, 77, 0
2, 85853, Note_on_c, 0, 37, 80
2, 85858, Note_on_c, 0, 49, 80
2, 85860, Note_on_c, 0, 70, 80
2, 85860, Note_on_c, 0, 77, 80
2, 85865, Note_on_c, 0, 65, 0
2, 85865, Note_on_c, 0, 85, 80
2, 85893, Note_on_c, 0, 85, 0
2, 85925, Note_on_c, 0, 82, 80
2, 85930, Note_on_c, 0, 89, 80
2, 85956, Note_on_c, 0, 82, 0
2, 85958, Note_on_c, 0, 89, 0
2, 85989, Note_on_c, 0, 37, 0
2, 85989, Note_on_c, 0, 53, 80
2, 85991, Note_on_c, 0, 49, 0
2, 85991, Note_on_c, 0, 58, 80
2, 85991, Note_on_c, 0, 61, 80
2, 85991, Note_on_c, 0, 65, 80
2, 85995, Note_on_c, 0, 77, 0
2, 85995, Note_on_c, 0, 70, 0
2, 86016, Note_on_c, 0, 58, 0
2, 86016, Note_on_c, 0, 53, 0
2, 86016, Note_on_c, 0, 61, 0
2, 86057, Note_on_c, 0, 69, 80
2, 86059, Note_on_c, 0, 65, 0
2, 86059, Note_on_c, 0, 77, 80
2, 86059, Note_on_c, 0, 84, 80
2, 86089, Note_on_c, 0, 84, 0
2, 86115, Note_on_c, 0, 36, 80
2, 86117, Note_on_c, 0, 48, 80
2, 86124, Note_on_c, 0, 81, 80
2, 86126, Control_c, 0, 64, 127
2, 86126, Note_on_c, 0, 89, 80
2, 86154, Note_on_c, 0, 81, 0
2, 86156, Note_on_c, 0, 89, 0
2, 86188, Note_on_c, 0, 69, 0
2, 86188, Note_on_c, 0, 81, 80
2, 86188, Note_on_c, 0, 84, 80
2, 86190, Note_on_c, 0, 77, 0
2, 86190, Note_on_c, 0, 93, 80
2, 86218, Note_on_c, 0, 81, 0
2, 86218, Note_on_c, 0, 84, 0
2, 86220, Note_on_c, 0, 93, 0
2, 86230, Control_c, 0, 64, 0
2, 86249, Note_on_c, 0, 36, 0
2, 86251, Note_on_c, 0, 48, 0
2, 86251, Note_on_c, 0, 57, 80
2, 86251, Note_on_c, 0, 60, 80
2, 86251, Note_on_c, 0, 65, 80
2, 86256, Note_on_c, 0, 77, 80
2, 86256, Note_on_c, 0, 89, 80
2, 86257, Note_on_c, 0, 96, 80
2, 86280, Note_on_c, 0, 57, 0
2, 86282, Note_on_c, 0, 60, 0
2, 86282, Note_on_c, 0, 65, 0
2, 86284, Note_on_c, 0, 77, 0
2, 86286, Note_on_c, 0, 89, 0
2, 86286, Note_on_c, 0, 96, 0
2, 86314, Note_on_c, 0, 69, 80
2, 86319, Note_on_c, 0, 93, 80
2, 86324, Note_on_c, 0, 101, 80
2, 86347, Note_on_c, 0, 69, 0
2, 86349, Note_on_c, 0, 93, 0
2, 86351, Note_on_c, 0, 101, 0
2, 86376, Note_on_c, 0, 45, 80
2, 86381, Note_on_c, 0, 57, 80
2, 86381, Note_on_c, 0, 65, 80
2, 86383, Note_on_c, 0, 72, 80
2, 86385, Note_on_c, 0, 89, 80
2, 86387, Note_on_c, 0, 96, 80
2, 86415, Note_on_c, 0, 96, 0
2, 86415, Note_on_c, 0, 89, 0
2, 86446, Note_on_c, 0, 71, 80
2, 86450, Note_on_c, 0, 65, 0
2, 86450, Note_on_c, 0, 72, 0
2, 86450, Note_on_c, 0, 86, 80
2, 86450, Note_on_c, 0, 95, 80
2, 86481, Note_on_c, 0, 86, 0
2, 86483, Note_on_c, 0, 95, 0
2, 86511, Note_on_c, 0, 44, 80
2, 86513, Note_on_c, 0, 45, 0
2, 86513, Note_on_c, 0, 56, 80
2, 86515, Note_on_c, 0, 57, 0
2, 86515, Note_on_c, 0, 72, 80
2, 86520, Note_on_c, 0, 71, 0
2, 86520, Note_on_c, 0, 84, 80
2, 86520, Note_on_c, 0, 89, 80
2, 86550, Note_on_c, 0, 84, 0
2, 86552, Note_on_c, 0, 89, 0
2, 86588, Note_on_c, 0, 74, 80
2, 86590, Note_on_c, 0, 72, 0
2, 86590, Note_on_c, 0, 83, 80
2, 86590, Note_on_c, 0, 86, 80
2, 86611, Note_on_c, 0, 44, 0
2, 86613, Note_on_c, 0, 56, 0
2, 86615, Note_on_c, 0, 74, 0
2, 86619, Note_on_c, 0, 86, 0
2, 86619, Note_on_c, 0, 83, 0
2, 86642, Control_c, 0, 64, 127
2, 86649, Note_on_c, 0, 43, 80
2, 86649, Note_on_c, 0, 55, 80
2, 86654, Note_on_c, 0, 76, 80
2, 86654, Note_on_c, 0, 79, 80
2, 86656, Note_on_c, 0, 88, 80
2, 86684, Note_on_c, 0, 79, 0
2, 86686, Note_on_c, 0, 88, 0
2, 86721, Note_on_c, 0, 67, 80
2, 86721, Note_on_c, 0, 72, 80
2, 86721, Note_on_c, 0, 84, 80
2, 86723, Note_on_c, 0, 91, 80
2, 86725, Note_on_c, 0, 76, 0
2, 86736, Control_c, 0, 64, 0
2, 86743, Note_on_c, 0, 55, 0
2, 86745, Note_on_c, 0, 67, 0
2, 86747, Note_on_c, 0, 72, 0
2, 86749, Note_on_c, 0, 84, 0
2, 86749, Note_on_c, 0, 91, 0
2, 86782, Note_on_c, 0, 43, 0
2, 86782, Note_on_c, 0, 55, 80
2, 86784, Note_on_c, 0, 60, 80
2, 86784, Note_on_c, 0, 64, 80
2, 86785, Note_on_c, 0, 91, 80
2, 86787, Note_on_c, 0, 100, 80
2, 86810, Note_on_c, 0, 64, 0
2, 86810, Note_on_c, 0, 55, 0
2, 86810, Note_on_c, 0, 60, 0
2, 86817, Note_on_c, 0, 91, 0
2, 86817, Note_on_c, 0, 100, 0
2, 86850, Note_on_c, 0, 76, 80
2, 86850, Note_on_c, 0, 88, 80
2, 86855, Note_on_c, 0, 96, 80
2, 86882, Note_on_c, 0, 96, 0
2, 86882, Note_on_c, 0, 88, 0
2, 86913, Note_on_c, 0, 43, 80
2, 86913, Note_on_c, 0, 55, 80
2, 86918, Note_on_c, 0, 65, 80
2, 86918, Note_on_c, 0, 71, 80
2, 86918, Note_on_c, 0, 74, 80
2, 86920, Note_on_c, 0, 89, 80
2, 86920, Note_on_c, 0, 98, 80
2, 86922, Note_on_c, 0, 76, 0
2, 86943, Note_on_c, 0, 65, 0
2, 86945, Note_on_c, 0, 71, 0
2, 86945, Note_on_c, 0, 74, 0
2, 86947, Note_on_c, 0, 89, 0
2, 86949, Note_on_c, 0, 98, 0
2, 86958, Control_c, 0, 64, 127
2, 86984, Note_on_c, 0, 86, 80
2, 86986, Note_on_c, 0, 95, 80
2, 87007, Note_on_c, 0, 55, 0
2, 87012, Note_on_c, 0, 95, 0
2, 87012, Note_on_c, 0, 86, 0
2, 87012, Control_c, 0, 64, 0
2, 87031, Note_on_c, 0, 43, 0
2, 87046, Note_on_c, 0, 55, 80
2, 87046, Note_on_c, 0, 59, 80
2, 87046, Note_on_c, 0, 62, 80
2, 87046, Note_on_c, 0, 65, 80
2, 87048, Note_on_c, 0, 71, 80
2, 87048, Note_on_c, 0, 77, 80
2, 87048, Note_on_c, 0, 83, 80
2, 87049, Note_on_c, 0, 91, 80
2, 87071, Note_on_c, 0, 55, 0
2, 87072, Note_on_c, 0, 59, 0
2, 87072, Note_on_c, 0, 62, 0
2, 87077, Note_on_c, 0, 91, 0
2, 87077, Note_on_c, 0, 83, 0
2, 87108, Note_on_c, 0, 64, 80
2, 87110, Note_on_c, 0, 72, 80
2, 87112, Note_on_c, 0, 65, 0
2, 87114, Note_on_c, 0, 77, 0
2, 87114, Note_on_c, 0, 71, 0
2, 87168, Note_on_c, 0, 36, 80
2, 87172, Note_on_c, 0, 48, 80
2, 87273, Note_on_c, 0, 64, 0
2, 87278, Note_on_c, 0, 72, 0
2, 87309, Note_on_c, 0, 36, 0
2, 87309, Note_on_c, 0, 43, 80
2, 87313, Note_on_c, 0, 55, 80
2, 87313, Note_on_c, 0, 64, 80
2, 87315, Note_on_c, 0, 48, 0
2, 87317, Note_on_c, 0, 84, 80
2, 87319, Control_c, 0, 64, 127
2, 87345, Note_on_c, 0, 84, 0
2, 87381, Note_on_c, 0, 65, 80
2, 87383, Note_on_c, 0, 64, 0
2, 87383, Note_on_c, 0, 86, 80
2, 87415, Note_on_c, 0, 86, 0
2, 87446, Note_on_c, 0, 40, 80
2, 87446, Note_on_c, 0, 52, 80
2, 87448, Note_on_c, 0, 43, 0
2, 87450, Note_on_c, 0, 55, 0
2, 87450, Note_on_c, 0, 67, 80
2, 87452, Note_on_c, 0, 65, 0
2, 87452, Note_on_c, 0, 88, 80
2, 87482, Note_on_c, 0, 88, 0
2, 87515, Note_on_c, 0, 69, 80
2, 87520, Note_on_c, 0, 67, 0
2, 87520, Note_on_c, 0, 89, 80
2, 87536, Control_c, 0, 64, 0
2, 87548, Note_on_c, 0, 89, 0
2, 87578, Note_on_c, 0, 36, 80
2, 87578, Note_on_c, 0, 48, 80
2, 87580, Note_on_c, 0, 40, 0
2, 87582, Note_on_c, 0, 52, 0
2, 87582, Note_on_c, 0, 70, 80
2, 87584, Note_on_c, 0, 69, 0
2, 87584, Note_on_c, 0, 91, 80
2, 87615, Note_on_c, 0, 91, 0
2, 87648, Note_on_c, 0, 72, 80
2, 87649, Note_on_c, 0, 84, 80
2, 87651, Note_on_c, 0, 70, 0
2, 87677, Note_on_c, 0, 84, 0
2, 87710, Note_on_c, 0, 41, 80
2, 87712, Note_on_c, 0, 36, 0
2, 87714, Note_on_c, 0, 48, 0
2, 87714, Note_on_c, 0, 65, 80
2, 87714, Note_on_c, 0, 69, 80
2, 87714, Note_on_c, 0, 74, 80
2, 87716, Note_on_c, 0, 72, 0
2, 87718, Control_c, 0, 64, 127
2, 87741, Note_on_c, 0, 69, 0
2, 87741, Note_on_c, 0, 74, 0
2, 87741, Note_on_c, 0, 65, 0
2, 87778, Note_on_c, 0, 72, 80
2, 87811, Control_c, 0, 64, 0
2, 87841, Note_on_c, 0, 41, 0
2, 87841, Note_on_c, 0, 53, 80
2, 87841, Note_on_c, 0, 57, 80
2, 87843, Note_on_c, 0, 60, 80
2, 87871, Note_on_c, 0, 60, 0
2, 87871, Note_on_c, 0, 57, 0
2, 87871, Note_on_c, 0, 53, 0
2, 87909, Note_on_c, 0, 70, 80
2, 87911, Note_on_c, 0, 72, 0
2, 87967, Note_on_c, 0, 36, 80
2, 87972, Note_on_c, 0, 69, 80
2, 87977, Note_on_c, 0, 70, 0
2, 87993, Control_c, 0, 64, 127
2, 88037, Note_on_c, 0, 68, 80
2, 88042, Note_on_c, 0, 69, 0
2, 88086, Control_c, 0, 64, 0
2, 88103, Note_on_c, 0, 53, 80
2, 88104, Note_on_c, 0, 36, 0
2, 88104, Note_on_c, 0, 57, 80
2, 88104, Note_on_c, 0, 60, 80
2, 88104, Note_on_c, 0, 69, 80
2, 88106, Note_on_c, 0, 68, 0
2, 88132, Note_on_c, 0, 60, 0
2, 88132, Note_on_c, 0, 53, 0
2, 88132, Note_on_c, 0, 57, 0
2, 88173, Note_on_c, 0, 67, 80
2, 88177, Note_on_c, 0, 69, 0
2, 88203, Note_on_c, 0, 67, 0
2, 88234, Control_c, 0, 64, 127
2, 88239, Note_on_c, 0, 41, 80
2, 88241, Note_on_c, 0, 65, 80
2, 88309, Note_on_c, 0, 67, 80
2, 88311, Note_on_c, 0, 65, 0
2, 88332, Control_c, 0, 64, 0
2, 88376, Note_on_c, 0, 53, 80
2, 88376, Note_on_c, 0, 57, 80
2, 88378, Note_on_c, 0, 41, 0
2, 88378, Note_on_c, 0, 60, 80
2, 88378, Note_on_c, 0, 69, 80
2, 88380, Note_on_c, 0, 67, 0
2, 88408, Note_on_c, 0, 60, 0
2, 88408, Note_on_c, 0, 57, 0
2, 88408, Note_on_c, 0, 53, 0
2, 88450, Note_on_c, 0, 72, 80
2, 88450, Note_on_c, 0, 84, 80
2, 88452, Note_on_c, 0, 69, 0
2, 88515, Note_on_c, 0, 36, 80
2, 88520, Note_on_c, 0, 81, 80
2, 88525, Note_on_c, 0, 84, 0
2, 88525, Note_on_c, 0, 89, 80
2, 88590, Note_on_c, 0, 65, 80
2, 88590, Note_on_c, 0, 77, 80
2, 88590, Note_on_c, 0, 84, 80
2, 88590, Note_on_c, 0, 93, 80
2, 88592, Note_on_c, 0, 89, 0
2, 88592, Note_on_c, 0, 72, 0
2, 88592, Note_on_c, 0, 81, 0
2, 88656, Note_on_c, 0, 53, 80
2, 88656, Note_on_c, 0, 57, 80
2, 88657, Note_on_c, 0, 36, 0
2, 88657, Note_on_c, 0, 60, 80
2, 88657, Note_on_c, 0, 69, 80
2, 88657, Note_on_c, 0, 72, 80
2, 88659, Note_on_c, 0, 65, 0
2, 88659, Note_on_c, 0, 81, 80
2, 88659, Note_on_c, 0, 89, 80
2, 88659, Note_on_c, 0, 96, 80
2, 88661, Note_on_c, 0, 93, 0
2, 88661, Note_on_c, 0, 84, 0
2, 88661, Note_on_c, 0, 77, 0
2, 88682, Note_on_c, 0, 57, 0
2, 88682, Note_on_c, 0, 53, 0
2, 88682, Note_on_c, 0, 60, 0
2, 88684, Note_on_c, 0, 81, 0
2, 88684, Note_on_c, 0, 72, 0
2, 88684, Note_on_c, 0, 69, 0
2, 88689, Note_on_c, 0, 96, 0
2, 88689, Note_on_c, 0, 89, 0
2, 88790, Note_on_c, 0, 41, 80
2, 88795, Note_on_c, 0, 65, 80
2, 88795, Note_on_c, 0, 69, 80
2, 88795, Note_on_c, 0, 74, 80
2, 88795, Note_on_c, 0, 81, 80
2, 88795, Note_on_c, 0, 89, 80
2, 88823, Note_on_c, 0, 69, 0
2, 88823, Note_on_c, 0, 65, 0
2, 88824, Note_on_c, 0, 74, 0
2, 88824, Note_on_c, 0, 81, 0
2, 88824, Note_on_c, 0, 89, 0
2, 88852, Control_c, 0, 64, 127
2, 88859, Note_on_c, 0, 72, 80
2, 88906, Control_c, 0, 64, 0
2, 88925, Note_on_c, 0, 53, 80
2, 88925, Note_on_c, 0, 57, 80
2, 88927, Note_on_c, 0, 41, 0
2, 88927, Note_on_c, 0, 60, 80
2, 88929, Note_on_c, 0, 72, 0
2, 88952, Note_on_c, 0, 57, 0
2, 88952, Note_on_c, 0, 53, 0
2, 88952, Note_on_c, 0, 60, 0
2, 88992, Note_on_c, 0, 70, 80
2, 89056, Note_on_c, 0, 36, 80
2, 89061, Note_on_c, 0, 69, 80
2, 89063, Note_on_c, 0, 70, 0
2, 89123, Note_on_c, 0, 68, 80
2, 89128, Note_on_c, 0, 69, 0
2, 89193, Note_on_c, 0, 36, 0
2, 89193, Note_on_c, 0, 53, 80
2, 89193, Note_on_c, 0, 57, 80
2, 89193, Note_on_c, 0, 60, 80
2, 89193, Note_on_c, 0, 69, 80
2, 89195, Note_on_c, 0, 68, 0
2, 89218, Note_on_c, 0, 53, 0
2, 89218, Note_on_c, 0, 57, 0
2, 89220, Note_on_c, 0, 60, 0
2, 89260, Note_on_c, 0, 70, 80
2, 89262, Note_on_c, 0, 69, 0
2, 89288, Note_on_c, 0, 70, 0
2, 89319, Note_on_c, 0, 41, 80
2, 89321, Note_on_c, 0, 65, 80
2, 89321, Note_on_c, 0, 72, 80
2, 89323, Note_on_c, 0, 69, 80
2, 89372, Control_c, 0, 64, 127
2, 89378, Note_on_c, 0, 65, 0
2, 89380, Note_on_c, 0, 69, 0
2, 89380, Note_on_c, 0, 72, 0
2, 89455, Note_on_c, 0, 45, 80
2, 89457, Note_on_c, 0, 57, 80
2, 89457, Note_on_c, 0, 65, 80
2, 89457, Note_on_c, 0, 72, 80
2, 89457, Note_on_c, 0, 77, 80
2, 89457, Note_on_c, 0, 84, 80
2, 89459, Note_on_c, 0, 41, 0
2, 89487, Note_on_c, 0, 77, 0
2, 89487, Note_on_c, 0, 84, 0
2, 89508, Control_c, 0, 64, 0
2, 89522, Note_on_c, 0, 69, 80
2, 89522, Note_on_c, 0, 81, 80
2, 89524, Note_on_c, 0, 65, 0
2, 89524, Note_on_c, 0, 72, 0
2, 89550, Note_on_c, 0, 69, 0
2, 89552, Note_on_c, 0, 81, 0
2, 89585, Note_on_c, 0, 48, 80
2, 89587, Note_on_c, 0, 45, 0
2, 89587, Note_on_c, 0, 60, 80
2, 89587, Note_on_c, 0, 65, 80
2, 89587, Note_on_c, 0, 72, 80
2, 89587, Note_on_c, 0, 77, 80
2, 89587, Note_on_c, 0, 84, 80
2, 89592, Note_on_c, 0, 57, 0
2, 89617, Note_on_c, 0, 77, 0
2, 89617, Note_on_c, 0, 84, 0
2, 89655, Note_on_c, 0, 69, 80
2, 89655, Note_on_c, 0, 81, 80
2, 89660, Note_on_c, 0, 65, 0
2, 89660, Note_on_c, 0, 72, 0
2, 89683, Note_on_c, 0, 69, 0
2, 89685, Note_on_c, 0, 81, 0
2, 89720, Note_on_c, 0, 51, 80
2, 89720, Note_on_c, 0, 63, 80
2, 89720, Note_on_c, 0, 65, 80
2, 89720, Note_on_c, 0, 72, 80
2, 89720, Note_on_c, 0, 77, 80
2, 89720, Note_on_c, 0, 84, 80
2, 89722, Note_on_c, 0, 48, 0
2, 89722, Note_on_c, 0, 60, 0
2, 89748, Note_on_c, 0, 51, 0
2, 89750, Note_on_c, 0, 72, 0
2, 89750, Note_on_c, 0, 65, 0
2, 89750, Note_on_c, 0, 84, 0
2, 89750, Note_on_c, 0, 77, 0
2, 89750, Note_on_c, 0, 63, 0
2, 89851, Control_c, 0, 64, 127
2, 89853, Note_on_c, 0, 38, 80
2, 89853, Note_on_c, 0, 50, 80
2, 89853, Note_on_c, 0, 65, 80
2, 89921, Note_on_c, 0, 70, 80
2, 89921, Note_on_c, 0, 77, 80
2, 89921, Note_on_c, 0, 86, 80
2, 89923, Note_on_c, 0, 65, 0
2, 89946, Control_c, 0, 64, 0
2, 89951, Note_on_c, 0, 86, 0
2, 89988, Note_on_c, 0, 53, 80
2, 89988, Note_on_c, 0, 58, 80
2, 89988, Note_on_c, 0, 62, 80
2, 89988, Note_on_c, 0, 82, 80
2, 89988, Note_on_c, 0, 89, 80
2, 89990, Note_on_c, 0, 38, 0
2, 89990, Note_on_c, 0, 50, 0
2, 90016, Note_on_c, 0, 53, 0
2, 90016, Note_on_c, 0, 58, 0
2, 90018, Note_on_c, 0, 82, 0
2, 90018, Note_on_c, 0, 89, 0
2, 90018, Note_on_c, 0, 62, 0
2, 90050, Note_on_c, 0, 65, 80
2, 90055, Note_on_c, 0, 70, 0
2, 90057, Note_on_c, 0, 77, 0
2, 90122, Note_on_c, 0, 37, 80
2, 90122, Note_on_c, 0, 49, 80
2, 90122, Note_on_c, 0, 70, 80
2, 90122, Note_on_c, 0, 77, 80
2, 90122, Note_on_c, 0, 85, 80
2, 90124, Note_on_c, 0, 65, 0
2, 90152, Note_on_c, 0, 85, 0
2, 90190, Note_on_c, 0, 82, 80
2, 90190, Note_on_c, 0, 89, 80
2, 90217, Note_on_c, 0, 89, 0
2, 90217, Note_on_c, 0, 82, 0
2, 90253, Note_on_c, 0, 53, 80
2, 90253, Note_on_c, 0, 58, 80
2, 90253, Note_on_c, 0, 61, 80
2, 90255, Note_on_c, 0, 37, 0
2, 90255, Note_on_c, 0, 65, 80
2, 90260, Note_on_c, 0, 77, 0
2, 90260, Note_on_c, 0, 70, 0
2, 90260, Note_on_c, 0, 49, 0
2, 90283, Note_on_c, 0, 53, 0
2, 90283, Note_on_c, 0, 61, 0
2, 90283, Note_on_c, 0, 58, 0
2, 90323, Note_on_c, 0, 69, 80
2, 90323, Note_on_c, 0, 77, 80
2, 90323, Note_on_c, 0, 84, 80
2, 90325, Note_on_c, 0, 65, 0
2, 90351, Note_on_c, 0, 84, 0
2, 90391, Note_on_c, 0, 36, 80
2, 90391, Note_on_c, 0, 48, 80
2, 90391, Note_on_c, 0, 81, 80
2, 90391, Note_on_c, 0, 89, 80
2, 90417, Control_c, 0, 64, 127
2, 90422, Note_on_c, 0, 89, 0
2, 90422, Note_on_c, 0, 81, 0
2, 90457, Note_on_c, 0, 81, 80
2, 90457, Note_on_c, 0, 84, 80
2, 90457, Note_on_c, 0, 93, 80
2, 90459, Note_on_c, 0, 69, 0
2, 90459, Note_on_c, 0, 77, 0
2, 90471, Control_c, 0, 64, 0
2, 90482, Note_on_c, 0, 84, 0
2, 90482, Note_on_c, 0, 93, 0
2, 90484, Note_on_c, 0, 81, 0
2, 90517, Note_on_c, 0, 57, 80
2, 90519, Note_on_c, 0, 60, 80
2, 90519, Note_on_c, 0, 65, 80
2, 90519, Note_on_c, 0, 77, 80
2, 90519, Note_on_c, 0, 89, 80
2, 90519, Note_on_c, 0, 96, 80
2, 90521, Note_on_c, 0, 36, 0
2, 90521, Note_on_c, 0, 48, 0
2, 90544, Note_on_c, 0, 96, 0
2, 90544, Note_on_c, 0, 57, 0
2, 90546, Note_on_c, 0, 65, 0
2, 90546, Note_on_c, 0, 60, 0
2, 90546, Note_on_c, 0, 89, 0
2, 90581, Note_on_c, 0, 72, 80
2, 90581, Note_on_c, 0, 93, 80
2, 90581, Note_on_c, 0, 101, 80
2, 90583, Note_on_c, 0, 77, 0
2, 90611, Note_on_c, 0, 101, 0
2, 90611, Note_on_c, 0, 93, 0
2, 90647, Note_on_c, 0, 36, 80
2, 90647, Note_on_c, 0, 89, 80
2, 90647, Note_on_c, 0, 96, 80
2, 90648, Note_on_c, 0, 48, 80
2, 90648, Note_on_c, 0, 69, 80
2, 90650, Note_on_c, 0, 72, 0
2, 90676, Note_on_c, 0, 96, 0
2, 90676, Note_on_c, 0, 89, 0
2, 90709, Note_on_c, 0, 72, 80
2, 90709, Note_on_c, 0, 93, 80
2, 90714, Note_on_c, 0, 69, 0
2, 90737, Note_on_c, 0, 93, 0
2, 90774, Note_on_c, 0, 57, 80
2, 90774, Note_on_c, 0, 60, 80
2, 90774, Note_on_c, 0, 74, 80
2, 90774, Note_on_c, 0, 89, 80
2, 90776, Note_on_c, 0, 36, 0
2, 90776, Note_on_c, 0, 72, 0
2, 90776, Note_on_c, 0, 48, 0
2, 90804, Note_on_c, 0, 60, 0
2, 90804, Note_on_c, 0, 57, 0
2, 90804, Note_on_c, 0, 89, 0
2, 90841, Note_on_c, 0, 77, 80
2, 90841, Note_on_c, 0, 84, 80
2, 90846, Note_on_c, 0, 74, 0
2, 90872, Note_on_c, 0, 84, 0
2, 90872, Note_on_c, 0, 77, 0
2, 90908, Note_on_c, 0, 38, 80
2, 90908, Note_on_c, 0, 59, 80
2, 90908, Note_on_c, 0, 65, 80
2, 90908, Note_on_c, 0, 71, 80
2, 90908, Note_on_c, 0, 77, 80
2, 90922, Control_c, 0, 64, 127
2, 91042, Note_on_c, 0, 37, 80
2, 91042, Note_on_c, 0, 49, 80
2, 91042, Note_on_c, 0, 58, 80
2, 91042, Note_on_c, 0, 70, 80
2, 91047, Note_on_c, 0, 71, 0
2, 91047, Note_on_c, 0, 59, 0
2, 91047, Note_on_c, 0, 38, 0
2, 91104, Control_c, 0, 64, 0
2, 91127, Note_on_c, 0, 77, 0
2, 91127, Note_on_c, 0, 65, 0
2, 91143, Note_on_c, 0, 58, 0
2, 91143, Note_on_c, 0, 70, 0
2, 91143, Note_on_c, 0, 37, 0
2, 91143, Note_on_c, 0, 49, 0
2, 91183, Note_on_c, 0, 67, 80
2, 91183, Note_on_c, 0, 70, 80
2, 91183, Note_on_c, 0, 76, 80
2, 91183, Note_on_c, 0, 79, 80
2, 91185, Note_on_c, 0, 36, 80
2, 91185, Note_on_c, 0, 48, 80
2, 91185, Note_on_c, 0, 58, 80
2, 91185, Note_on_c, 0, 64, 80
2, 91213, Control_c, 0, 64, 127
2, 91215, Note_on_c, 0, 64, 0
2, 91215, Note_on_c, 0, 58, 0
2, 91215, Note_on_c, 0, 70, 0
2, 91215, Note_on_c, 0, 76, 0
2, 91255, Note_on_c, 0, 58, 80
2, 91255, Note_on_c, 0, 64, 80
2, 91255, Note_on_c, 0, 69, 80
2, 91255, Note_on_c, 0, 70, 80
2, 91255, Note_on_c, 0, 76, 80
2, 91255, Note_on_c, 0, 81, 80
2, 91257, Note_on_c, 0, 67, 0
2, 91257, Note_on_c, 0, 79, 0
2, 91353, Note_on_c, 0, 69, 0
2, 91391, Note_on_c, 0, 77, 80
2, 91392, Note_on_c, 0, 57, 80
2, 91392, Note_on_c, 0, 65, 80
2, 91392, Note_on_c, 0, 69, 80
2, 91394, Note_on_c, 0, 58, 0
2, 91394, Note_on_c, 0, 76, 0
2, 91394, Note_on_c, 0, 81, 0
2, 91394, Note_on_c, 0, 70, 0
2, 91394, Note_on_c, 0, 64, 0
2, 91435, Control_c, 0, 64, 0
2, 91461, Note_on_c, 0, 41, 80
2, 91461, Note_on_c, 0, 53, 80
2, 91463, Note_on_c, 0, 36, 0
2, 91463, Note_on_c, 0, 48, 0
2, 91531, Note_on_c, 0, 77, 0
2, 91531, Note_on_c, 0, 65, 0
2, 91584, Note_on_c, 0, 65, 80
2, 91584, Note_on_c, 0, 77, 80
2, 91601, Note_on_c, 0, 57, 0
2, 91601, Note_on_c, 0, 69, 0
2, 91661, Note_on_c, 0, 67, 80
2, 91661, Note_on_c, 0, 79, 80
2, 91666, Note_on_c, 0, 65, 0
2, 91666, Note_on_c, 0, 77, 0
2, 91666, Control_c, 0, 64, 127
2, 91729, Note_on_c, 0, 69, 80
2, 91729, Note_on_c, 0, 81, 80
2, 91731, Note_on_c, 0, 79, 0
2, 91733, Note_on_c, 0, 67, 0
2, 91799, Note_on_c, 0, 70, 80
2, 91799, Note_on_c, 0, 82, 80
2, 91800, Note_on_c, 0, 69, 0
2, 91800, Note_on_c, 0, 81, 0
2, 91826, Note_on_c, 0, 82, 0
2, 91843, Control_c, 0, 64, 0
2, 91866, Note_on_c, 0, 72, 80
2, 91866, Note_on_c, 0, 76, 80
2, 91866, Note_on_c, 0, 82, 80
2, 91866, Note_on_c, 0, 84, 80
2, 91868, Note_on_c, 0, 70, 0
2, 91868, Note_on_c, 0, 36, 80
2, 91868, Note_on_c, 0, 48, 80
2, 91870, Note_on_c, 0, 53, 0
2, 91870, Note_on_c, 0, 41, 0
2, 91998, Note_on_c, 0, 74, 80
2, 91998, Note_on_c, 0, 77, 80
2, 91998, Note_on_c, 0, 81, 80
2, 91998, Note_on_c, 0, 86, 80
2, 91998, Note_on_c, 0, 98, 80
2, 92000, Note_on_c, 0, 84, 0
2, 92000, Note_on_c, 0, 82, 0
2, 92000, Note_on_c, 0, 41, 80
2, 92002, Note_on_c, 0, 36, 0
2, 92002, Note_on_c, 0, 48, 0
2, 92002, Note_on_c, 0, 76, 0
2, 92002, Note_on_c, 0, 72, 0
2, 92028, Note_on_c, 0, 86, 0
2, 92028, Note_on_c, 0, 98, 0
2, 92030, Note_on_c, 0, 74, 0
2, 92030, Note_on_c, 0, 81, 0
2, 92030, Note_on_c, 0, 77, 0
2, 92063, Note_on_c, 0, 96, 80
2, 92067, Note_on_c, 0, 84, 80
2, 92069, Note_on_c, 0, 72, 80
2, 92074, Control_c, 0, 64, 127
2, 92128, Control_c, 0, 64, 0
2, 92139, Note_on_c, 0, 53, 80
2, 92139, Note_on_c, 0, 57, 80
2, 92139, Note_on_c, 0, 60, 80
2, 92141, Note_on_c, 0, 41, 0
2, 92164, Note_on_c, 0, 57, 0
2, 92166, Note_on_c, 0, 53, 0
2, 92166, Note_on_c, 0, 60, 0
2, 92199, Note_on_c, 0, 94, 80
2, 92201, Note_on_c, 0, 82, 80
2, 92203, Note_on_c, 0, 96, 0
2, 92203, Note_on_c, 0, 84, 0
2, 92203, Note_on_c, 0, 72, 0
2, 92203, Note_on_c, 0, 70, 80
2, 92266, Note_on_c, 0, 81, 80
2, 92266, Note_on_c, 0, 93, 80
2, 92268, Note_on_c, 0, 94, 0
2, 92268, Note_on_c, 0, 36, 80
2, 92268, Note_on_c, 0, 69, 80
2, 92270, Note_on_c, 0, 82, 0
2, 92270, Note_on_c, 0, 70, 0
2, 92330, Note_on_c, 0, 92, 80
2, 92332, Note_on_c, 0, 93, 0
2, 92332, Note_on_c, 0, 68, 80
2, 92332, Note_on_c, 0, 80, 80
2, 92334, Note_on_c, 0, 81, 0
2, 92334, Note_on_c, 0, 69, 0
2, 92398, Note_on_c, 0, 69, 80
2, 92398, Note_on_c, 0, 81, 80
2, 92398, Note_on_c, 0, 93, 80
2, 92400, Note_on_c, 0, 92, 0
2, 92400, Note_on_c, 0, 53, 80
2, 92400, Note_on_c, 0, 57, 80
2, 92400, Note_on_c, 0, 60, 80
2, 92401, Note_on_c, 0, 68, 0
2, 92401, Note_on_c, 0, 80, 0
2, 92403, Note_on_c, 0, 36, 0
2, 92424, Note_on_c, 0, 53, 0
2, 92424, Note_on_c, 0, 60, 0
2, 92424, Note_on_c, 0, 57, 0
2, 92462, Note_on_c, 0, 67, 80
2, 92462, Note_on_c, 0, 79, 80
2, 92462, Note_on_c, 0, 91, 80
2, 92464, Note_on_c, 0, 93, 0
2, 92466, Note_on_c, 0, 81, 0
2, 92466, Note_on_c, 0, 69, 0
2, 92489, Note_on_c, 0, 91, 0
2, 92489, Note_on_c, 0, 79, 0
2, 92491, Note_on_c, 0, 67, 0
2, 92526, Note_on_c, 0, 65, 80
2, 92526, Note_on_c, 0, 77, 80
2, 92526, Note_on_c, 0, 89, 80
2, 92528, Note_on_c, 0, 41, 80
2, 92544, Control_c, 0, 64, 127
2, 92589, Note_on_c, 0, 91, 80
2, 92591, Note_on_c, 0, 79, 80
2, 92592, Note_on_c, 0, 89, 0
2, 92592, Note_on_c, 0, 67, 80
2, 92594, Note_on_c, 0, 65, 0
2, 92594, Note_on_c, 0, 77, 0
2, 92637, Control_c, 0, 64, 0
2, 92656, Note_on_c, 0, 93, 80
2, 92658, Note_on_c, 0, 91, 0
2, 92658, Note_on_c, 0, 53, 80
2, 92658, Note_on_c, 0, 57, 80
2, 92658, Note_on_c, 0, 60, 80
2, 92658, Note_on_c, 0, 69, 80
2, 92660, Note_on_c, 0, 67, 0
2, 92662, Note_on_c, 0, 41, 0
2, 92688, Note_on_c, 0, 60, 0
2, 92689, Note_on_c, 0, 53, 0
2, 92689, Note_on_c, 0, 57, 0
2, 92722, Note_on_c, 0, 96, 80
2, 92724, Note_on_c, 0, 72, 80
2, 92724, Note_on_c, 0, 84, 80
2, 92726, Note_on_c, 0, 69, 0
2, 92726, Note_on_c, 0, 93, 0
2, 92726, Note_on_c, 0, 79, 0
2, 92726, Note_on_c, 0, 65, 80
2, 92794, Note_on_c, 0, 36, 80
2, 92794, Note_on_c, 0, 69, 80
2, 92794, Note_on_c, 0, 77, 80
2, 92796, Note_on_c, 0, 65, 0
2, 92796, Note_on_c, 0, 72, 0
2, 92855, Note_on_c, 0, 72, 80
2, 92855, Note_on_c, 0, 81, 80
2, 92855, Note_on_c, 0, 89, 80
2, 92856, Note_on_c, 0, 96, 0
2, 92856, Note_on_c, 0, 84, 0
2, 92858, Note_on_c, 0, 69, 0
2, 92858, Note_on_c, 0, 77, 0
2, 92919, Note_on_c, 0, 84, 80
2, 92919, Note_on_c, 0, 93, 80
2, 92921, Note_on_c, 0, 77, 80
2, 92923, Note_on_c, 0, 81, 0
2, 92923, Note_on_c, 0, 89, 0
2, 92923, Note_on_c, 0, 53, 80
2, 92923, Note_on_c, 0, 57, 80
2, 92923, Note_on_c, 0, 60, 80
2, 92925, Note_on_c, 0, 72, 0
2, 92927, Note_on_c, 0, 36, 0
2, 92950, Note_on_c, 0, 93, 0
2, 92950, Note_on_c, 0, 84, 0
2, 92950, Note_on_c, 0, 77, 0
2, 92952, Note_on_c, 0, 60, 0
2, 92952, Note_on_c, 0, 57, 0
2, 92952, Note_on_c, 0, 53, 0
2, 93059, Note_on_c, 0, 98, 80
2, 93061, Note_on_c, 0, 74, 80
2, 93061, Note_on_c, 0, 77, 80
2, 93061, Note_on_c, 0, 81, 80
2, 93061, Note_on_c, 0, 86, 80
2, 93063, Note_on_c, 0, 41, 80
2, 93091, Note_on_c, 0, 86, 0
2, 93091, Note_on_c, 0, 98, 0
2, 93093, Note_on_c, 0, 81, 0
2, 93093, Note_on_c, 0, 74, 0
2, 93095, Note_on_c, 0, 77, 0
2, 93106, Control_c, 0, 64, 127
2, 93125, Note_on_c, 0, 96, 80
2, 93127, Note_on_c, 0, 84, 80
2, 93197, Note_on_c, 0, 53, 80
2, 93197, Note_on_c, 0, 57, 80
2, 93197, Note_on_c, 0, 60, 80
2, 93202, Note_on_c, 0, 41, 0
2, 93202, Control_c, 0, 64, 0
2, 93228, Note_on_c, 0, 57, 0
2, 93228, Note_on_c, 0, 53, 0
2, 93228, Note_on_c, 0, 60, 0
2, 93264, Note_on_c, 0, 82, 80
2, 93264, Note_on_c, 0, 94, 80
2, 93265, Note_on_c, 0, 96, 0
2, 93265, Note_on_c, 0, 84, 0
2, 93329, Note_on_c, 0, 81, 80
2, 93329, Note_on_c, 0, 93, 80
2, 93331, Note_on_c, 0, 94, 0
2, 93333, Note_on_c, 0, 82, 0
2, 93333, Note_on_c, 0, 36, 80
2, 93393, Note_on_c, 0, 80, 80
2, 93393, Note_on_c, 0, 92, 80
2, 93395, Note_on_c, 0, 93, 0
2, 93397, Note_on_c, 0, 81, 0
2, 93457, Note_on_c, 0, 81, 80
2, 93457, Note_on_c, 0, 93, 80
2, 93459, Note_on_c, 0, 80, 0
2, 93459, Note_on_c, 0, 92, 0
2, 93459, Note_on_c, 0, 53, 80
2, 93459, Note_on_c, 0, 57, 80
2, 93459, Note_on_c, 0, 60, 80
2, 93464, Note_on_c, 0, 36, 0
2, 93487, Note_on_c, 0, 57, 0
2, 93487, Note_on_c, 0, 53, 0
2, 93487, Note_on_c, 0, 60, 0
2, 93523, Note_on_c, 0, 82, 80
2, 93523, Note_on_c, 0, 94, 80
2, 93525, Note_on_c, 0, 93, 0
2, 93525, Note_on_c, 0, 81, 0
2, 93552, Note_on_c, 0, 94, 0
2, 93554, Note_on_c, 0, 82, 0
2, 93587, Note_on_c, 0, 96, 80
2, 93589, Note_on_c, 0, 72, 80
2, 93589, Note_on_c, 0, 77, 80
2, 93589, Note_on_c, 0, 81, 80
2, 93589, Note_on_c, 0, 84, 80
2, 93594, Note_on_c, 0, 41, 80
2, 93617, Note_on_c, 0, 84, 0
2, 93617, Note_on_c, 0, 96, 0
2, 93619, Note_on_c, 0, 81, 0
2, 93619, Note_on_c, 0, 72, 0
2, 93619, Note_on_c, 0, 77, 0
2, 93661, Control_c, 0, 64, 127
2, 93724, Note_on_c, 0, 65, 80
2, 93724, Note_on_c, 0, 72, 80
2, 93724, Note_on_c, 0, 77, 80
2, 93724, Note_on_c, 0, 84, 80
2, 93726, Note_on_c, 0, 45, 80
2, 93726, Note_on_c, 0, 57, 80
2, 93731, Note_on_c, 0, 41, 0
2, 93757, Control_c, 0, 64, 0
2, 93790, Note_on_c, 0, 69, 80
2, 93790, Note_on_c, 0, 81, 80
2, 93792, Note_on_c, 0, 84, 0
2, 93792, Note_on_c, 0, 77, 0
2, 93792, Note_on_c, 0, 72, 0
2, 93793, Note_on_c, 0, 65, 0
2, 93816, Note_on_c, 0, 81, 0
2, 93818, Note_on_c, 0, 69, 0
2, 93856, Note_on_c, 0, 77, 80
2, 93856, Note_on_c, 0, 84, 80
2, 93858, Note_on_c, 0, 48, 80
2, 93858, Note_on_c, 0, 60, 80
2, 93858, Note_on_c, 0, 65, 80
2, 93858, Note_on_c, 0, 72, 80
2, 93860, Note_on_c, 0, 57, 0
2, 93862, Note_on_c, 0, 45, 0
2, 93922, Note_on_c, 0, 84, 0
2, 93922, Note_on_c, 0, 69, 80
2, 93922, Note_on_c, 0, 81, 80
2, 93924, Note_on_c, 0, 77, 0
2, 93924, Note_on_c, 0, 72, 0
2, 93924, Note_on_c, 0, 65, 0
2, 93950, Note_on_c, 0, 81, 0
2, 93950, Note_on_c, 0, 69, 0
2, 93985, Note_on_c, 0, 77, 80
2, 93985, Note_on_c, 0, 84, 80
2, 93987, Note_on_c, 0, 72, 80
2, 93989, Note_on_c, 0, 51, 80
2, 93989, Note_on_c, 0, 63, 80
2, 93989, Note_on_c, 0, 65, 80
2, 93991, Note_on_c, 0, 60, 0
2, 93991, Note_on_c, 0, 48, 0
2, 94012, Note_on_c, 0, 84, 0
2, 94014, Note_on_c, 0, 65, 0
2, 94014, Note_on_c, 0, 72, 0
2, 94014, Note_on_c, 0, 77, 0
2, 94016, Note_on_c, 0, 63, 0
2, 94016, Note_on_c, 0, 51, 0
2, 94117, Note_on_c, 0, 77, 80
2, 94122, Note_on_c, 0, 38, 80
2, 94122, Note_on_c, 0, 50, 80
2, 94136, Control_c, 0, 64, 127
2, 94183, Note_on_c, 0, 82, 80
2, 94183, Note_on_c, 0, 89, 80
2, 94185, Note_on_c, 0, 74, 80
2, 94190, Note_on_c, 0, 77, 0
2, 94234, Control_c, 0, 64, 0
2, 94250, Note_on_c, 0, 70, 80
2, 94250, Note_on_c, 0, 77, 80
2, 94255, Note_on_c, 0, 74, 0
2, 94255, Note_on_c, 0, 58, 80
2, 94255, Note_on_c, 0, 62, 80
2, 94257, Note_on_c, 0, 53, 80
2, 94259, Note_on_c, 0, 38, 0
2, 94259, Note_on_c, 0, 50, 0
2, 94278, Note_on_c, 0, 77, 0
2, 94280, Note_on_c, 0, 58, 0
2, 94280, Note_on_c, 0, 62, 0
2, 94280, Note_on_c, 0, 70, 0
2, 94282, Note_on_c, 0, 53, 0
2, 94315, Note_on_c, 0, 77, 80
2, 94317, Note_on_c, 0, 89, 0
2, 94317, Note_on_c, 0, 82, 0
2, 94385, Note_on_c, 0, 82, 80
2, 94385, Note_on_c, 0, 89, 80
2, 94387, Note_on_c, 0, 73, 80
2, 94389, Note_on_c, 0, 77, 0
2, 94389, Note_on_c, 0, 49, 80
2, 94403, Note_on_c, 0, 37, 80
2, 94455, Note_on_c, 0, 77, 80
2, 94457, Note_on_c, 0, 73, 0
2, 94457, Note_on_c, 0, 70, 80
2, 94485, Note_on_c, 0, 77, 0
2, 94515, Note_on_c, 0, 70, 0
2, 94522, Note_on_c, 0, 77, 80
2, 94524, Note_on_c, 0, 89, 0
2, 94526, Note_on_c, 0, 82, 0
2, 94526, Note_on_c, 0, 53, 80
2, 94526, Note_on_c, 0, 58, 80
2, 94526, Note_on_c, 0, 61, 80
2, 94528, Note_on_c, 0, 49, 0
2, 94530, Note_on_c, 0, 37, 0
2, 94553, Note_on_c, 0, 53, 0
2, 94553, Note_on_c, 0, 58, 0
2, 94553, Note_on_c, 0, 61, 0
2, 94590, Note_on_c, 0, 89, 80
2, 94592, Note_on_c, 0, 72, 80
2, 94592, Note_on_c, 0, 81, 80
2, 94594, Note_on_c, 0, 77, 0
2, 94622, Note_on_c, 0, 72, 0
2, 94659, Note_on_c, 0, 65, 80
2, 94659, Note_on_c, 0, 69, 80
2, 94659, Note_on_c, 0, 77, 80
2, 94664, Note_on_c, 0, 36, 80
2, 94664, Note_on_c, 0, 48, 80
2, 94692, Note_on_c, 0, 77, 0
2, 94692, Note_on_c, 0, 69, 0
2, 94692, Note_on_c, 0, 65, 0
2, 94708, Control_c, 0, 64, 127
2, 94725, Note_on_c, 0, 93, 80
2, 94727, Note_on_c, 0, 69, 80
2, 94731, Note_on_c, 0, 81, 0
2, 94731, Note_on_c, 0, 89, 0
2, 94731, Note_on_c, 0, 60, 80
2, 94759, Note_on_c, 0, 60, 0
2, 94764, Control_c, 0, 64, 0
2, 94795, Note_on_c, 0, 89, 80
2, 94797, Note_on_c, 0, 93, 0
2, 94797, Note_on_c, 0, 60, 80
2, 94797, Note_on_c, 0, 65, 80
2, 94797, Note_on_c, 0, 72, 80
2, 94799, Note_on_c, 0, 69, 0
2, 94799, Note_on_c, 0, 57, 80
2, 94803, Note_on_c, 0, 48, 0
2, 94803, Note_on_c, 0, 36, 0
2, 94826, Note_on_c, 0, 65, 0
2, 94826, Note_on_c, 0, 60, 0
2, 94826, Note_on_c, 0, 57, 0
2, 94864, Note_on_c, 0, 77, 80
2, 94864, Note_on_c, 0, 81, 80
2, 94866, Note_on_c, 0, 89, 0
2, 94866, Note_on_c, 0, 69, 80
2, 94868, Note_on_c, 0, 72, 0
2, 94894, Note_on_c, 0, 77, 0
2, 94934, Note_on_c, 0, 72, 80
2, 94934, Note_on_c, 0, 77, 80
2, 94934, Note_on_c, 0, 84, 80
2, 94936, Note_on_c, 0, 81, 0
2, 94936, Note_on_c, 0, 45, 80
2, 94936, Note_on_c, 0, 57, 80
2, 94936, Note_on_c, 0, 65, 80
2, 94938, Note_on_c, 0, 69, 0
2, 94952, Control_c, 0, 64, 127
2, 94999, Note_on_c, 0, 71, 80
2, 94999, Note_on_c, 0, 83, 80
2, 95001, Note_on_c, 0, 84, 0
2, 95001, Note_on_c, 0, 62, 80
2, 95003, Note_on_c, 0, 57, 0
2, 95003, Note_on_c, 0, 77, 0
2, 95003, Note_on_c, 0, 65, 0
2, 95003, Note_on_c, 0, 72, 0
2, 95005, Note_on_c, 0, 45, 0
2, 95005, Control_c, 0, 64, 0
2, 95062, Note_on_c, 0, 84, 80
2, 95064, Note_on_c, 0, 83, 0
2, 95064, Note_on_c, 0, 44, 80
2, 95064, Note_on_c, 0, 56, 80
2, 95064, Note_on_c, 0, 60, 80
2, 95064, Note_on_c, 0, 65, 80
2, 95065, Note_on_c, 0, 62, 0
2, 95065, Note_on_c, 0, 71, 0
2, 95088, Note_on_c, 0, 84, 0
2, 95090, Note_on_c, 0, 56, 0
2, 95092, Note_on_c, 0, 44, 0
2, 95125, Note_on_c, 0, 86, 80
2, 95127, Note_on_c, 0, 59, 80
2, 95127, Note_on_c, 0, 62, 80
2, 95129, Note_on_c, 0, 65, 0
2, 95129, Note_on_c, 0, 60, 0
2, 95185, Note_on_c, 0, 43, 80
2, 95185, Note_on_c, 0, 55, 80
2, 95185, Note_on_c, 0, 64, 80
2, 95185, Note_on_c, 0, 88, 80
2, 95187, Note_on_c, 0, 59, 0
2, 95187, Note_on_c, 0, 62, 0
2, 95187, Note_on_c, 0, 86, 0
2, 95210, Note_on_c, 0, 64, 0
2, 95212, Control_c, 0, 64, 127
2, 95245, Note_on_c, 0, 67, 80
2, 95245, Note_on_c, 0, 79, 80
2, 95245, Note_on_c, 0, 84, 80
2, 95247, Note_on_c, 0, 88, 0
2, 95247, Note_on_c, 0, 60, 80
2, 95263, Note_on_c, 0, 55, 0
2, 95265, Control_c, 0, 64, 0
2, 95275, Note_on_c, 0, 67, 0
2, 95275, Note_on_c, 0, 60, 0
2, 95310, Note_on_c, 0, 76, 80
2, 95312, Note_on_c, 0, 84, 0
2, 95312, Note_on_c, 0, 55, 80
2, 95312, Note_on_c, 0, 60, 80
2, 95312, Note_on_c, 0, 64, 80
2, 95312, Note_on_c, 0, 67, 80
2, 95314, Note_on_c, 0, 79, 0
2, 95319, Note_on_c, 0, 43, 0
2, 95340, Note_on_c, 0, 76, 0
2, 95340, Note_on_c, 0, 64, 0
2, 95340, Note_on_c, 0, 67, 0
2, 95342, Note_on_c, 0, 55, 0
2, 95342, Note_on_c, 0, 60, 0
2, 95379, Note_on_c, 0, 72, 80
2, 95379, Note_on_c, 0, 88, 80
2, 95412, Note_on_c, 0, 72, 0
2, 95449, Note_on_c, 0, 83, 80
2, 95449, Note_on_c, 0, 86, 80
2, 95451, Note_on_c, 0, 88, 0
2, 95451, Note_on_c, 0, 55, 80
2, 95451, Note_on_c, 0, 65, 80
2, 95451, Note_on_c, 0, 74, 80
2, 95451, Note_on_c, 0, 77, 80
2, 95453, Note_on_c, 0, 43, 80
2, 95479, Note_on_c, 0, 77, 0
2, 95479, Note_on_c, 0, 86, 0
2, 95479, Note_on_c, 0, 83, 0
2, 95479, Note_on_c, 0, 74, 0
2, 95481, Note_on_c, 0, 65, 0
2, 95497, Control_c, 0, 64, 127
2, 95519, Note_on_c, 0, 62, 80
2, 95519, Note_on_c, 0, 71, 80
2, 95549, Note_on_c, 0, 71, 0
2, 95551, Note_on_c, 0, 62, 0
2, 95551, Note_on_c, 0, 55, 0
2, 95553, Control_c, 0, 64, 0
2, 95581, Note_on_c, 0, 77, 80
2, 95581, Note_on_c, 0, 83, 80
2, 95581, Note_on_c, 0, 88, 80
2, 95588, Note_on_c, 0, 55, 80
2, 95588, Note_on_c, 0, 59, 80
2, 95588, Note_on_c, 0, 62, 80
2, 95588, Note_on_c, 0, 67, 80
2, 95590, Note_on_c, 0, 43, 0
2, 95613, Note_on_c, 0, 88, 0
2, 95615, Note_on_c, 0, 77, 0
2, 95615, Note_on_c, 0, 83, 0
2, 95616, Note_on_c, 0, 55, 0
2, 95616, Note_on_c, 0, 67, 0
2, 95616, Note_on_c, 0, 59, 0
2, 95616, Note_on_c, 0, 62, 0
2, 95657, Note_on_c, 0, 76, 80
2, 95657, Note_on_c, 0, 84, 80
2, 95730, Note_on_c, 0, 36, 80
2, 95730, Note_on_c, 0, 48, 80
2, 95821, Note_on_c, 0, 76, 0
2, 95861, Note_on_c, 0, 76, 80
2, 95861, Note_on_c, 0, 88, 80
2, 95863, Note_on_c, 0, 84, 0
2, 95863, Note_on_c, 0, 43, 80
2, 95863, Note_on_c, 0, 55, 80
2, 95863, Note_on_c, 0, 60, 80
2, 95865, Note_on_c, 0, 48, 0
2, 95865, Note_on_c, 0, 36, 0
2, 95891, Note_on_c, 0, 60, 0
2, 95903, Control_c, 0, 64, 127
2, 95922, Note_on_c, 0, 89, 80
2, 95924, Note_on_c, 0, 77, 80
2, 95926, Note_on_c, 0, 88, 0
2, 95926, Note_on_c, 0, 62, 80
2, 95928, Note_on_c, 0, 76, 0
2, 95986, Note_on_c, 0, 91, 80
2, 95988, Note_on_c, 0, 89, 0
2, 95988, Note_on_c, 0, 79, 80
2, 95993, Note_on_c, 0, 77, 0
2, 95993, Note_on_c, 0, 40, 80
2, 95993, Note_on_c, 0, 52, 80
2, 95993, Note_on_c, 0, 64, 80
2, 95995, Note_on_c, 0, 62, 0
2, 95995, Note_on_c, 0, 43, 0
2, 95995, Note_on_c, 0, 55, 0
2, 96053, Note_on_c, 0, 81, 80
2, 96053, Note_on_c, 0, 93, 80
2, 96055, Note_on_c, 0, 91, 0
2, 96055, Note_on_c, 0, 79, 0
2, 96055, Note_on_c, 0, 65, 80
2, 96057, Note_on_c, 0, 64, 0
2, 96072, Control_c, 0, 64, 0
2, 96120, Note_on_c, 0, 67, 80
2, 96120, Note_on_c, 0, 82, 80
2, 96120, Note_on_c, 0, 94, 80
2, 96122, Note_on_c, 0, 81, 0
2, 96122, Note_on_c, 0, 93, 0
2, 96122, Note_on_c, 0, 48, 80
2, 96124, Note_on_c, 0, 65, 0
2, 96124, Note_on_c, 0, 52, 0
2, 96124, Note_on_c, 0, 36, 80
2, 96126, Note_on_c, 0, 40, 0
2, 96183, Note_on_c, 0, 96, 80
2, 96185, Note_on_c, 0, 84, 80
2, 96187, Note_on_c, 0, 94, 0
2, 96187, Note_on_c, 0, 60, 80
2, 96189, Note_on_c, 0, 67, 0
2, 96189, Note_on_c, 0, 82, 0
2, 96247, Note_on_c, 0, 98, 80
2, 96249, Note_on_c, 0, 96, 0
2, 96249, Note_on_c, 0, 74, 80
2, 96249, Note_on_c, 0, 77, 80
2, 96249, Note_on_c, 0, 81, 80
2, 96249, Note_on_c, 0, 86, 80
2, 96251, Note_on_c, 0, 84, 0
2, 96251, Note_on_c, 0, 41, 80
2, 96253, Note_on_c, 0, 60, 0
2, 96253, Note_on_c, 0, 48, 0
2, 96253, Note_on_c, 0, 36, 0
2, 96276, Note_on_c, 0, 77, 0
2, 96276, Note_on_c, 0, 86, 0
2, 96276, Note_on_c, 0, 81, 0
2, 96276, Note_on_c, 0, 98, 0
2, 96276, Note_on_c, 0, 74, 0
2, 96290, Control_c, 0, 64, 127
2, 96312, Note_on_c, 0, 96, 80
2, 96313, Note_on_c, 0, 84, 80
2, 96315, Note_on_c, 0, 72, 80
2, 96348, Control_c, 0, 64, 0
2, 96381, Note_on_c, 0, 53, 80
2, 96381, Note_on_c, 0, 57, 80
2, 96381, Note_on_c, 0, 60, 80
2, 96385, Note_on_c, 0, 41, 0
2, 96411, Note_on_c, 0, 57, 0
2, 96411, Note_on_c, 0, 53, 0
2, 96411, Note_on_c, 0, 60, 0
2, 96444, Note_on_c, 0, 94, 80
2, 96446, Note_on_c, 0, 70, 80
2, 96446, Note_on_c, 0, 82, 80
2, 96448, Note_on_c, 0, 96, 0
2, 96448, Note_on_c, 0, 84, 0
2, 96448, Note_on_c, 0, 72, 0
2, 96511, Note_on_c, 0, 93, 80
2, 96513, Note_on_c, 0, 69, 80
2, 96513, Note_on_c, 0, 81, 80
2, 96518, Note_on_c, 0, 94, 0
2, 96518, Note_on_c, 0, 82, 0
2, 96518, Note_on_c, 0, 70, 0
2, 96518, Note_on_c, 0, 36, 80
2, 96581, Note_on_c, 0, 80, 80
2, 96581, Note_on_c, 0, 92, 80
2, 96583, Note_on_c, 0, 93, 0
2, 96583, Note_on_c, 0, 81, 0
2, 96583, Note_on_c, 0, 68, 80
2, 96585, Note_on_c, 0, 69, 0
2, 96646, Note_on_c, 0, 93, 80
2, 96648, Note_on_c, 0, 92, 0
2, 96648, Note_on_c, 0, 53, 80
2, 96648, Note_on_c, 0, 57, 80
2, 96648, Note_on_c, 0, 60, 80
2, 96648, Note_on_c, 0, 69, 80
2, 96648, Note_on_c, 0, 81, 80
2, 96649, Note_on_c, 0, 68, 0
2, 96649, Note_on_c, 0, 36, 0
2, 96649, Note_on_c, 0, 80, 0
2, 96672, Note_on_c, 0, 57, 0
2, 96674, Note_on_c, 0, 53, 0
2, 96674, Note_on_c, 0, 60, 0
2, 96707, Note_on_c, 0, 91, 80
2, 96709, Note_on_c, 0, 93, 0
2, 96709, Note_on_c, 0, 67, 80
2, 96709, Note_on_c, 0, 79, 80
2, 96711, Note_on_c, 0, 69, 0
2, 96711, Note_on_c, 0, 81, 0
2, 96737, Note_on_c, 0, 91, 0
2, 96739, Note_on_c, 0, 79, 0
2, 96739, Note_on_c, 0, 67, 0
2, 96771, Note_on_c, 0, 77, 80
2, 96771, Note_on_c, 0, 89, 80
2, 96773, Note_on_c, 0, 41, 80
2, 96773, Note_on_c, 0, 65, 80
2, 96804, Control_c, 0, 64, 127
2, 96840, Note_on_c, 0, 91, 80
2, 96841, Note_on_c, 0, 67, 80
2, 96841, Note_on_c, 0, 79, 80
2, 96843, Note_on_c, 0, 65, 0
2, 96843, Note_on_c, 0, 89, 0
2, 96843, Note_on_c, 0, 77, 0
2, 96897, Control_c, 0, 64, 0
2, 96904, Note_on_c, 0, 53, 80
2, 96904, Note_on_c, 0, 57, 80
2, 96904, Note_on_c, 0, 60, 80
2, 96904, Note_on_c, 0, 69, 80
2, 96904, Note_on_c, 0, 93, 80
2, 96906, Note_on_c, 0, 91, 0
2, 96908, Note_on_c, 0, 41, 0
2, 96908, Note_on_c, 0, 67, 0
2, 96931, Note_on_c, 0, 60, 0
2, 96931, Note_on_c, 0, 53, 0
2, 96931, Note_on_c, 0, 57, 0
2, 96966, Note_on_c, 0, 65, 80
2, 96966, Note_on_c, 0, 72, 80
2, 96966, Note_on_c, 0, 84, 80
2, 96966, Note_on_c, 0, 96, 80
2, 96968, Note_on_c, 0, 93, 0
2, 96968, Note_on_c, 0, 79, 0
2, 96968, Note_on_c, 0, 69, 0
2, 97032, Note_on_c, 0, 77, 80
2, 97033, Note_on_c, 0, 72, 0
2, 97033, Note_on_c, 0, 65, 0
2, 97033, Note_on_c, 0, 36, 80
2, 97033, Note_on_c, 0, 69, 80
2, 97076, Control_c, 0, 64, 127
2, 97095, Note_on_c, 0, 81, 80
2, 97095, Note_on_c, 0, 89, 80
2, 97097, Note_on_c, 0, 96, 0
2, 97097, Note_on_c, 0, 72, 80
2, 97102, Note_on_c, 0, 69, 0
2, 97102, Note_on_c, 0, 77, 0
2, 97102, Note_on_c, 0, 84, 0
2, 97129, Control_c, 0, 64, 0
2, 97162, Note_on_c, 0, 93, 80
2, 97164, Note_on_c, 0, 53, 80
2, 97164, Note_on_c, 0, 57, 80
2, 97164, Note_on_c, 0, 60, 80
2, 97164, Note_on_c, 0, 77, 80
2, 97164, Note_on_c, 0, 84, 80
2, 97166, Note_on_c, 0, 89, 0
2, 97166, Note_on_c, 0, 72, 0
2, 97166, Note_on_c, 0, 81, 0
2, 97168, Note_on_c, 0, 36, 0
2, 97194, Note_on_c, 0, 93, 0
2, 97194, Note_on_c, 0, 84, 0
2, 97194, Note_on_c, 0, 77, 0
2, 97196, Note_on_c, 0, 60, 0
2, 97196, Note_on_c, 0, 57, 0
2, 97196, Note_on_c, 0, 53, 0
2, 97303, Note_on_c, 0, 74, 80
2, 97303, Note_on_c, 0, 77, 80
2, 97303, Note_on_c, 0, 81, 80
2, 97303, Note_on_c, 0, 86, 80
2, 97303, Note_on_c, 0, 98, 80
2, 97305, Note_on_c, 0, 41, 80
2, 97331, Note_on_c, 0, 98, 0
2, 97336, Note_on_c, 0, 86, 0
2, 97336, Note_on_c, 0, 81, 0
2, 97336, Note_on_c, 0, 74, 0
2, 97336, Note_on_c, 0, 77, 0
2, 97357, Control_c, 0, 64, 127
2, 97371, Note_on_c, 0, 84, 80
2, 97371, Note_on_c, 0, 96, 80
2, 97418, Control_c, 0, 64, 0
2, 97441, Note_on_c, 0, 53, 80
2, 97441, Note_on_c, 0, 57, 80
2, 97441, Note_on_c, 0, 60, 80
2, 97443, Note_on_c, 0, 41, 0
2, 97469, Note_on_c, 0, 57, 0
2, 97469, Note_on_c, 0, 53, 0
2, 97471, Note_on_c, 0, 60, 0
2, 97507, Note_on_c, 0, 82, 80
2, 97507, Note_on_c, 0, 94, 80
2, 97509, Note_on_c, 0, 84, 0
2, 97509, Note_on_c, 0, 96, 0
2, 97572, Note_on_c, 0, 81, 80
2, 97572, Note_on_c, 0, 93, 80
2, 97574, Note_on_c, 0, 94, 0
2, 97574, Note_on_c, 0, 36, 80
2, 97576, Note_on_c, 0, 82, 0
2, 97636, Note_on_c, 0, 80, 80
2, 97636, Note_on_c, 0, 92, 80
2, 97638, Note_on_c, 0, 93, 0
2, 97638, Note_on_c, 0, 81, 0
2, 97704, Note_on_c, 0, 53, 80
2, 97704, Note_on_c, 0, 57, 80
2, 97704, Note_on_c, 0, 60, 80
2, 97704, Note_on_c, 0, 81, 80
2, 97704, Note_on_c, 0, 93, 80
2, 97708, Note_on_c, 0, 36, 0
2, 97708, Note_on_c, 0, 92, 0
2, 97708, Note_on_c, 0, 80, 0
2, 97734, Note_on_c, 0, 53, 0
2, 97734, Note_on_c, 0, 57, 0
2, 97734, Note_on_c, 0, 60, 0
2, 97772, Note_on_c, 0, 82, 80
2, 97772, Note_on_c, 0, 94, 80
2, 97774, Note_on_c, 0, 93, 0
2, 97774, Note_on_c, 0, 81, 0
2, 97800, Note_on_c, 0, 82, 0
2, 97800, Note_on_c, 0, 94, 0
2, 97835, Note_on_c, 0, 96, 80
2, 97837, Note_on_c, 0, 41, 80
2, 97837, Note_on_c, 0, 72, 80
2, 97837, Note_on_c, 0, 77, 80
2, 97837, Note_on_c, 0, 81, 80
2, 97837, Note_on_c, 0, 84, 80
2, 97868, Note_on_c, 0, 84, 0
2, 97868, Note_on_c, 0, 96, 0
2, 97868, Note_on_c, 0, 72, 0
2, 97868, Note_on_c, 0, 77, 0
2, 97868, Note_on_c, 0, 81, 0
2, 97970, Note_on_c, 0, 45, 80
2, 97972, Note_on_c, 0, 57, 80
2, 97972, Note_on_c, 0, 65, 80
2, 97972, Note_on_c, 0, 72, 80
2, 97972, Note_on_c, 0, 77, 80
2, 97972, Note_on_c, 0, 84, 80
2, 97974, Note_on_c, 0, 41, 0
2, 97997, Control_c, 0, 64, 127
2, 98038, Note_on_c, 0, 69, 80
2, 98038, Note_on_c, 0, 81, 80
2, 98040, Note_on_c, 0, 72, 0
2, 98040, Note_on_c, 0, 65, 0
2, 98040, Note_on_c, 0, 84, 0
2, 98041, Note_on_c, 0, 77, 0
2, 98069, Note_on_c, 0, 81, 0
2, 98069, Note_on_c, 0, 69, 0
2, 98105, Note_on_c, 0, 48, 80
2, 98105, Note_on_c, 0, 77, 80
2, 98107, Note_on_c, 0, 45, 0
2, 98107, Note_on_c, 0, 60, 80
2, 98107, Note_on_c, 0, 65, 80
2, 98107, Note_on_c, 0, 72, 80
2, 98107, Note_on_c, 0, 84, 80
2, 98109, Note_on_c, 0, 57, 0
2, 98132, Control_c, 0, 64, 0
2, 98172, Note_on_c, 0, 69, 80
2, 98172, Note_on_c, 0, 81, 80
2, 98174, Note_on_c, 0, 72, 0
2, 98174, Note_on_c, 0, 65, 0
2, 98174, Note_on_c, 0, 77, 0
2, 98174, Note_on_c, 0, 84, 0
2, 98200, Note_on_c, 0, 69, 0
2, 98202, Note_on_c, 0, 81, 0
2, 98239, Note_on_c, 0, 51, 80
2, 98241, Note_on_c, 0, 63, 80
2, 98241, Note_on_c, 0, 65, 80
2, 98241, Note_on_c, 0, 72, 80
2, 98241, Note_on_c, 0, 77, 80
2, 98241, Note_on_c, 0, 84, 80
2, 98243, Note_on_c, 0, 48, 0
2, 98243, Note_on_c, 0, 60, 0
2, 98266, Note_on_c, 0, 72, 0
2, 98268, Note_on_c, 0, 51, 0
2, 98268, Note_on_c, 0, 65, 0
2, 98268, Note_on_c, 0, 84, 0
2, 98268, Note_on_c, 0, 77, 0
2, 98268, Note_on_c, 0, 63, 0
2, 98378, Note_on_c, 0, 38, 80
2, 98378, Note_on_c, 0, 50, 80
2, 98380, Note_on_c, 0, 77, 80
2, 98403, Control_c, 0, 64, 127
2, 98446, Note_on_c, 0, 74, 80
2, 98446, Note_on_c, 0, 82, 80
2, 98448, Note_on_c, 0, 89, 80
2, 98449, Note_on_c, 0, 77, 0
2, 98498, Control_c, 0, 64, 0
2, 98513, Note_on_c, 0, 38, 0
2, 98513, Note_on_c, 0, 53, 80
2, 98513, Note_on_c, 0, 58, 80
2, 98513, Note_on_c, 0, 62, 80
2, 98513, Note_on_c, 0, 70, 80
2, 98513, Note_on_c, 0, 77, 80
2, 98515, Note_on_c, 0, 74, 0
2, 98515, Note_on_c, 0, 50, 0
2, 98541, Note_on_c, 0, 53, 0
2, 98541, Note_on_c, 0, 58, 0
2, 98541, Note_on_c, 0, 62, 0
2, 98543, Note_on_c, 0, 77, 0
2, 98575, Note_on_c, 0, 77, 80
2, 98580, Note_on_c, 0, 82, 0
2, 98580, Note_on_c, 0, 70, 0
2, 98580, Note_on_c, 0, 89, 0
2, 98639, Note_on_c, 0, 37, 80
2, 98640, Note_on_c, 0, 49, 80
2, 98640, Note_on_c, 0, 73, 80
2, 98640, Note_on_c, 0, 82, 80
2, 98640, Note_on_c, 0, 89, 80
2, 98647, Note_on_c, 0, 77, 0
2, 98706, Note_on_c, 0, 70, 80
2, 98706, Note_on_c, 0, 77, 80
2, 98708, Note_on_c, 0, 73, 0
2, 98734, Note_on_c, 0, 77, 0
2, 98761, Note_on_c, 0, 70, 0
2, 98771, Note_on_c, 0, 37, 0
2, 98771, Note_on_c, 0, 53, 80
2, 98771, Note_on_c, 0, 58, 80
2, 98771, Note_on_c, 0, 61, 80
2, 98771, Note_on_c, 0, 77, 80
2, 98773, Note_on_c, 0, 49, 0
2, 98775, Note_on_c, 0, 82, 0
2, 98775, Note_on_c, 0, 89, 0
2, 98801, Note_on_c, 0, 58, 0
2, 98801, Note_on_c, 0, 53, 0
2, 98801, Note_on_c, 0, 61, 0
2, 98841, Note_on_c, 0, 72, 80
2, 98841, Note_on_c, 0, 81, 80
2, 98841, Note_on_c, 0, 89, 80
2, 98846, Note_on_c, 0, 77, 0
2, 98869, Note_on_c, 0, 72, 0
2, 98902, Note_on_c, 0, 36, 80
2, 98904, Note_on_c, 0, 48, 80
2, 98905, Note_on_c, 0, 65, 80
2, 98905, Note_on_c, 0, 69, 80
2, 98905, Note_on_c, 0, 77, 80
2, 98936, Note_on_c, 0, 77, 0
2, 98936, Note_on_c, 0, 65, 0
2, 98936, Note_on_c, 0, 69, 0
2, 98955, Control_c, 0, 64, 127
2, 98975, Note_on_c, 0, 60, 80
2, 98975, Note_on_c, 0, 69, 80
2, 98975, Note_on_c, 0, 93, 80
2, 98976, Note_on_c, 0, 89, 0
2, 98976, Note_on_c, 0, 81, 0
2, 99002, Note_on_c, 0, 60, 0
2, 99014, Control_c, 0, 64, 0
2, 99040, Note_on_c, 0, 57, 80
2, 99042, Note_on_c, 0, 48, 0
2, 99042, Note_on_c, 0, 36, 0
2, 99042, Note_on_c, 0, 60, 80
2, 99042, Note_on_c, 0, 65, 80
2, 99042, Note_on_c, 0, 72, 80
2, 99042, Note_on_c, 0, 89, 80
2, 99044, Note_on_c, 0, 69, 0
2, 99044, Note_on_c, 0, 93, 0
2, 99070, Note_on_c, 0, 65, 0
2, 99070, Note_on_c, 0, 57, 0
2, 99072, Note_on_c, 0, 60, 0
2, 99112, Note_on_c, 0, 69, 80
2, 99112, Note_on_c, 0, 77, 80
2, 99112, Note_on_c, 0, 84, 80
2, 99117, Note_on_c, 0, 89, 0
2, 99117, Note_on_c, 0, 72, 0
2, 99180, Note_on_c, 0, 36, 80
2, 99182, Note_on_c, 0, 48, 80
2, 99182, Note_on_c, 0, 65, 80
2, 99182, Note_on_c, 0, 72, 80
2, 99184, Note_on_c, 0, 69, 0
2, 99184, Note_on_c, 0, 81, 80
2, 99186, Note_on_c, 0, 84, 0
2, 99186, Note_on_c, 0, 77, 0
2, 99212, Note_on_c, 0, 72, 0
2, 99212, Note_on_c, 0, 65, 0
2, 99249, Note_on_c, 0, 69, 80
2, 99251, Note_on_c, 0, 84, 80
2, 99253, Note_on_c, 0, 81, 0
2, 99276, Note_on_c, 0, 69, 0
2, 99313, Note_on_c, 0, 36, 0
2, 99315, Note_on_c, 0, 48, 0
2, 99315, Note_on_c, 0, 57, 80
2, 99315, Note_on_c, 0, 60, 80
2, 99315, Note_on_c, 0, 65, 80
2, 99315, Note_on_c, 0, 86, 80
2, 99317, Note_on_c, 0, 84, 0
2, 99340, Note_on_c, 0, 65, 0
2, 99340, Note_on_c, 0, 57, 0
2, 99340, Note_on_c, 0, 60, 0
2, 99378, Note_on_c, 0, 60, 80
2, 99378, Note_on_c, 0, 89, 80
2, 99380, Note_on_c, 0, 86, 0
2, 99406, Note_on_c, 0, 60, 0
2, 99408, Note_on_c, 0, 89, 0
2, 99440, Note_on_c, 0, 38, 80
2, 99440, Note_on_c, 0, 50, 80
2, 99442, Note_on_c, 0, 71, 80
2, 99442, Note_on_c, 0, 77, 80
2, 99442, Note_on_c, 0, 83, 80
2, 99442, Note_on_c, 0, 89, 80
2, 99475, Control_c, 0, 64, 127
2, 99564, Note_on_c, 0, 37, 80
2, 99566, Note_on_c, 0, 49, 80
2, 99568, Note_on_c, 0, 50, 0
2, 99568, Note_on_c, 0, 38, 0
2, 99568, Note_on_c, 0, 70, 80
2, 99570, Note_on_c, 0, 82, 80
2, 99572, Note_on_c, 0, 83, 0
2, 99572, Note_on_c, 0, 71, 0
2, 99600, Control_c, 0, 64, 0
2, 99694, Note_on_c, 0, 36, 80
2, 99696, Note_on_c, 0, 37, 0
2, 99696, Note_on_c, 0, 48, 80
2, 99697, Note_on_c, 0, 49, 0
2, 99697, Note_on_c, 0, 76, 80
2, 99697, Note_on_c, 0, 79, 80
2, 99697, Note_on_c, 0, 88, 80
2, 99697, Note_on_c, 0, 91, 80
2, 99699, Note_on_c, 0, 70, 0
2, 99699, Note_on_c, 0, 77, 0
2, 99699, Note_on_c, 0, 82, 0
2, 99704, Note_on_c, 0, 89, 0
2, 99704, Control_c, 0, 64, 127
2, 99725, Note_on_c, 0, 88, 0
2, 99725, Note_on_c, 0, 76, 0
2, 99763, Note_on_c, 0, 70, 80
2, 99763, Note_on_c, 0, 76, 80
2, 99763, Note_on_c, 0, 82, 80
2, 99765, Note_on_c, 0, 81, 80
2, 99765, Note_on_c, 0, 88, 80
2, 99765, Note_on_c, 0, 93, 80
2, 99767, Note_on_c, 0, 91, 0
2, 99767, Note_on_c, 0, 79, 0
2, 99858, Note_on_c, 0, 81, 0
2, 99893, Note_on_c, 0, 69, 80
2, 99893, Note_on_c, 0, 77, 80
2, 99895, Note_on_c, 0, 70, 0
2, 99895, Note_on_c, 0, 76, 0
2, 99895, Note_on_c, 0, 81, 80
2, 99895, Note_on_c, 0, 89, 80
2, 99897, Note_on_c, 0, 93, 0
2, 99897, Note_on_c, 0, 88, 0
2, 99897, Note_on_c, 0, 82, 0
2, 99956, Control_c, 0, 64, 0
2, 99958, Note_on_c, 0, 41, 80
2, 99960, Note_on_c, 0, 53, 80
2, 100011, Note_on_c, 0, 36, 0
2, 100016, Note_on_c, 0, 48, 0
2, 100103, Note_on_c, 0, 53, 0
2, 100103, Note_on_c, 0, 41, 0
2, 100104, Note_on_c, 0, 69, 0
2, 100104, Note_on_c, 0, 77, 0
2, 100104, Note_on_c, 0, 81, 0
2, 100106, Note_on_c, 0, 89, 0
2, 100230, Note_on_c, 0, 29, 80
2, 100230, Note_on_c, 0, 41, 80
2, 100232, Note_on_c, 0, 57, 80
2, 100232, Note_on_c, 0, 60, 80
2, 100232, Note_on_c, 0, 65, 80
2, 100234, Note_on_c, 0, 77, 80
2, 100234, Note_on_c, 0, 84, 80
2, 100248, Note_on_c, 0, 81, 80
2, 100248, Note_on_c, 0, 89, 80
2, 100286, Note_on_c, 0, 29, 0
2, 100288, Note_on_c, 0, 60, 0
2, 100297, Note_on_c, 0, 41, 0
2, 100299, Note_on_c, 0, 65, 0
2, 100299, Note_on_c, 0, 57, 0
2, 100299, Note_on_c, 0, 77, 0
2, 100301, Note_on_c, 0, 89, 0
2, 100301, Note_on_c, 0, 81, 0
2, 100301, Note_on_c, 0, 84, 0
2, 100301, End_track
3, 0, Start_track
3, 0, Title_t, "c/b Scott Joplin"
3, 0, End_track
4, 0, Start_track
4, 0, Title_t, "p/b Oakes & Williams"
4, 0, End_track
5, 0, Start_track
5, 0, Title_t, "QRS # 524"
5, 0, End_track
6, 0, Start_track
6, 0, Title_t, "Scan of a player piano roll"
6, 0, End_track
7, 0, Start_track
7, 0, Title_t, "by Terry Smythe, Winnipeg, Canada"
7, 0, End_track
8, 0, Start_track
8, 1, Copyright_t, "___________________________________________________\012\012KUNSTDERFUGE.COM LARGE CLASSICAL MIDI COLLECTION\012ONCLASSICAL BY ALESSANDRO SIMONETTO, PROPRIETOR\012___________________________________________________\012\012! Attention: this file is under copyright !\012\012(c)onclassical, (nc)smythe, 2010\012___________________________________________________\012\012NO ONE MAY REPUBLISH THIS FILE WITHOUT PERMISSION\012COMMERCIAL USES OF THIS FILE IS STRICTLY PROHIBITED\012___________________________________________________\012\012Files & contributor's list: http://kunstderfuge.com/\012Terms and conditions: http://kunstderfuge.com/notes.htm"
8, 1, End_track
0, 0, End_of_file
