0, 0, Header, 1, 8, 192
1, 0, Start_track
1, 0, Title_t, "Pineapple Rag & Easy Winners"
1, 0, Copyright_t, "May NOT be used for commercial purposes."
1, 0, Text_t, "\012"
1, 0, Text_t, "Roll expression/accent tracks, where present, converted to MIDI velocties.\012"
1, 0, Text_t, "/music_category: Piano_Roll\012"
1, 0, Text_t, "/title: Pineapple Rag & Easy Winners\012"
1, 0, Text_t, "/subtitle: \012"
1, 0, Text_t, "/roll_type: Duo-Art\012"
1, 0, Text_t, "/roll_manufacturer: Play-Rite\012"
1, 0, Text_t, "/roll_number: 3010\012"
1, 0, Text_t, "/performer: Kelsey, James & Flynt, William\012"
1, 0, Text_t, "/composer: Joplin, Scott\012"
1, 0, Text_t, "/lyricist: \012"
1, 0, Text_t, "/roll_copyright: \012"
1, 0, Text_t, "/roll_date: \012"
1, 0, Text_t, "/scanned_by: Terry Smythe\012"
1, 0, Text_t, "/scan_system: Stibbons Mk3a\012"
1, 0, Text_t, "/date_scanned: 25 Oct 04\012"
1, 0, Text_t, "/owner: Milton Schenk\012"
1, 0, Time_signature, 4, 2, 24, 8
1, 0, Key_signature, 0, "major"
1, 0, Tempo, 500000
1, 0, Marker_t, "Standard MIDI:Duo-Art:LPI 99:Tempo  80: 10-24-2004"
1, 0, End_track
2, 0, Start_track
2, 0, Title_t, "Pineapple Rag & Easy Winners"
2, 0, Program_c, 0, 0
2, 554, Note_on_c, 0, 64, 45
2, 559, Note_on_c, 0, 52, 33
2, 642, Note_on_c, 0, 52, 0
2, 642, Note_on_c, 0, 64, 0
2, 648, Note_on_c, 0, 63, 60
2, 656, Note_on_c, 0, 51, 60
2, 724, Note_on_c, 0, 51, 0
2, 729, Note_on_c, 0, 50, 60
2, 731, Note_on_c, 0, 62, 60
2, 755, Note_on_c, 0, 63, 0
2, 785, Note_on_c, 0, 50, 0
2, 792, Note_on_c, 0, 62, 0
2, 799, Note_on_c, 0, 63, 60
2, 804, Note_on_c, 0, 51, 60
2, 884, Note_on_c, 0, 61, 60
2, 887, Note_on_c, 0, 49, 60
2, 888, Note_on_c, 0, 51, 0
2, 893, Note_on_c, 0, 63, 0
2, 961, Note_on_c, 0, 49, 0
2, 961, Note_on_c, 0, 47, 57
2, 966, Note_on_c, 0, 61, 0
2, 966, Note_on_c, 0, 59, 57
2, 1036, Note_on_c, 0, 49, 60
2, 1039, Note_on_c, 0, 59, 0
2, 1044, Note_on_c, 0, 47, 0
2, 1056, Note_on_c, 0, 61, 60
2, 1117, Note_on_c, 0, 51, 53
2, 1124, Note_on_c, 0, 61, 0
2, 1127, Note_on_c, 0, 63, 53
2, 1138, Note_on_c, 0, 49, 0
2, 1214, Note_on_c, 0, 51, 0
2, 1216, Note_on_c, 0, 63, 0
2, 1219, Note_on_c, 0, 66, 35
2, 1224, Note_on_c, 0, 54, 36
2, 1488, Note_on_c, 0, 54, 0
2, 1521, Note_on_c, 0, 66, 0
2, 1582, Note_on_c, 0, 68, 65
2, 1589, Note_on_c, 0, 56, 65
2, 1613, Note_on_c, 0, 68, 0
2, 1621, Note_on_c, 0, 56, 0
2, 1674, Note_on_c, 0, 68, 44
2, 1677, Note_on_c, 0, 56, 45
2, 1820, Note_on_c, 0, 67, 67
2, 1822, Note_on_c, 0, 55, 67
2, 1824, Note_on_c, 0, 56, 0
2, 1827, Note_on_c, 0, 68, 0
2, 1893, Note_on_c, 0, 68, 67
2, 1899, Note_on_c, 0, 67, 0
2, 1904, Note_on_c, 0, 56, 67
2, 1909, Note_on_c, 0, 55, 0
2, 1970, Note_on_c, 0, 70, 75
2, 1972, Note_on_c, 0, 58, 75
2, 1990, Note_on_c, 0, 56, 0
2, 1999, Note_on_c, 0, 68, 0
2, 2038, Note_on_c, 0, 70, 0
2, 2042, Note_on_c, 0, 58, 0
2, 2047, Note_on_c, 0, 71, 52
2, 2050, Note_on_c, 0, 59, 51
2, 2198, Note_on_c, 0, 71, 0
2, 2198, Note_on_c, 0, 61, 57
2, 2200, Note_on_c, 0, 59, 0
2, 2200, Note_on_c, 0, 73, 57
2, 2220, Note_on_c, 0, 73, 0
2, 2222, Note_on_c, 0, 61, 0
2, 2368, Note_on_c, 0, 54, 67
2, 2373, Note_on_c, 0, 66, 67
2, 2629, Note_on_c, 0, 66, 0
2, 2637, Note_on_c, 0, 54, 0
2, 2702, Note_on_c, 0, 54, 67
2, 2705, Note_on_c, 0, 66, 67
2, 2762, Note_on_c, 0, 66, 0
2, 2770, Note_on_c, 0, 54, 0
2, 2826, Note_on_c, 0, 80, 44
2, 2828, Note_on_c, 0, 71, 44
2, 2831, Note_on_c, 0, 47, 70
2, 2867, Note_on_c, 0, 71, 0
2, 2869, Note_on_c, 0, 47, 0
2, 2894, Note_on_c, 0, 80, 0
2, 2905, Note_on_c, 0, 78, 39
2, 2908, Note_on_c, 0, 71, 39
2, 2983, Note_on_c, 0, 59, 52
2, 2986, Note_on_c, 0, 63, 52
2, 2993, Note_on_c, 0, 54, 52
2, 3000, Note_on_c, 0, 78, 0
2, 3005, Note_on_c, 0, 71, 0
2, 3020, Note_on_c, 0, 63, 0
2, 3020, Note_on_c, 0, 59, 0
2, 3029, Note_on_c, 0, 54, 0
2, 3058, Note_on_c, 0, 76, 39
2, 3068, Note_on_c, 0, 71, 39
2, 3097, Note_on_c, 0, 71, 0
2, 3117, Note_on_c, 0, 76, 0
2, 3121, Note_on_c, 0, 42, 53
2, 3121, Note_on_c, 0, 75, 44
2, 3165, Note_on_c, 0, 42, 0
2, 3194, Note_on_c, 0, 74, 39
2, 3209, Note_on_c, 0, 75, 0
2, 3255, Note_on_c, 0, 74, 0
2, 3274, Note_on_c, 0, 75, 39
2, 3277, Note_on_c, 0, 54, 52
2, 3279, Note_on_c, 0, 59, 52
2, 3284, Note_on_c, 0, 63, 52
2, 3308, Note_on_c, 0, 63, 0
2, 3308, Note_on_c, 0, 59, 0
2, 3325, Note_on_c, 0, 73, 39
2, 3328, Note_on_c, 0, 54, 0
2, 3344, Note_on_c, 0, 75, 0
2, 3390, Note_on_c, 0, 47, 55
2, 3393, Note_on_c, 0, 71, 33
2, 3395, Note_on_c, 0, 73, 0
2, 3444, Note_on_c, 0, 47, 0
2, 3482, Note_on_c, 0, 71, 0
2, 3482, Note_on_c, 0, 73, 39
2, 3533, Note_on_c, 0, 73, 0
2, 3548, Note_on_c, 0, 63, 56
2, 3548, Note_on_c, 0, 75, 39
2, 3548, Note_on_c, 0, 54, 56
2, 3548, Note_on_c, 0, 59, 56
2, 3577, Note_on_c, 0, 59, 0
2, 3582, Note_on_c, 0, 63, 0
2, 3587, Note_on_c, 0, 54, 0
2, 3609, Note_on_c, 0, 75, 0
2, 3630, Note_on_c, 0, 78, 44
2, 3701, Note_on_c, 0, 78, 0
2, 3701, Note_on_c, 0, 42, 42
2, 3737, Note_on_c, 0, 42, 0
2, 3786, Note_on_c, 0, 83, 44
2, 3849, Note_on_c, 0, 75, 53
2, 3851, Note_on_c, 0, 63, 45
2, 3854, Note_on_c, 0, 54, 46
2, 3856, Note_on_c, 0, 59, 46
2, 3864, Note_on_c, 0, 87, 53
2, 3870, Note_on_c, 0, 83, 0
2, 3883, Note_on_c, 0, 54, 0
2, 3885, Note_on_c, 0, 63, 0
2, 3892, Note_on_c, 0, 87, 0
2, 3897, Note_on_c, 0, 59, 0
2, 3910, Note_on_c, 0, 75, 0
2, 3997, Note_on_c, 0, 80, 44
2, 3999, Note_on_c, 0, 47, 48
2, 4002, Note_on_c, 0, 71, 44
2, 4038, Note_on_c, 0, 47, 0
2, 4062, Note_on_c, 0, 80, 0
2, 4062, Note_on_c, 0, 78, 39
2, 4135, Note_on_c, 0, 63, 52
2, 4142, Note_on_c, 0, 59, 52
2, 4147, Note_on_c, 0, 54, 52
2, 4169, Note_on_c, 0, 59, 0
2, 4169, Note_on_c, 0, 63, 0
2, 4169, Note_on_c, 0, 71, 0
2, 4171, Note_on_c, 0, 54, 0
2, 4181, Note_on_c, 0, 78, 0
2, 4202, Note_on_c, 0, 76, 44
2, 4258, Note_on_c, 0, 76, 0
2, 4278, Note_on_c, 0, 42, 44
2, 4278, Note_on_c, 0, 75, 39
2, 4312, Note_on_c, 0, 42, 0
2, 4339, Note_on_c, 0, 74, 38
2, 4344, Note_on_c, 0, 75, 0
2, 4392, Note_on_c, 0, 74, 0
2, 4404, Note_on_c, 0, 75, 35
2, 4411, Note_on_c, 0, 63, 44
2, 4411, Note_on_c, 0, 54, 44
2, 4411, Note_on_c, 0, 59, 44
2, 4442, Note_on_c, 0, 63, 0
2, 4447, Note_on_c, 0, 59, 0
2, 4447, Note_on_c, 0, 54, 0
2, 4474, Note_on_c, 0, 75, 0
2, 4479, Note_on_c, 0, 76, 39
2, 4547, Note_on_c, 0, 78, 39
2, 4557, Note_on_c, 0, 47, 52
2, 4561, Note_on_c, 0, 75, 39
2, 4564, Note_on_c, 0, 76, 0
2, 4658, Note_on_c, 0, 78, 0
2, 4671, Note_on_c, 0, 47, 0
2, 4673, Note_on_c, 0, 75, 0
2, 4702, Note_on_c, 0, 47, 44
2, 4704, Note_on_c, 0, 78, 44
2, 4709, Note_on_c, 0, 75, 44
2, 4760, Note_on_c, 0, 71, 67
2, 4770, Note_on_c, 0, 78, 0
2, 4775, Note_on_c, 0, 75, 0
2, 4821, Note_on_c, 0, 71, 0
2, 4835, Note_on_c, 0, 78, 44
2, 4838, Note_on_c, 0, 51, 44
2, 4845, Note_on_c, 0, 75, 44
2, 4852, Note_on_c, 0, 47, 0
2, 4903, Note_on_c, 0, 78, 0
2, 4911, Note_on_c, 0, 71, 67
2, 4918, Note_on_c, 0, 75, 0
2, 4962, Note_on_c, 0, 71, 0
2, 4978, Note_on_c, 0, 78, 44
2, 4998, Note_on_c, 0, 54, 44
2, 4998, Note_on_c, 0, 75, 44
2, 5003, Note_on_c, 0, 51, 0
2, 5129, Note_on_c, 0, 71, 61
2, 5138, Note_on_c, 0, 75, 0
2, 5138, Note_on_c, 0, 56, 67
2, 5146, Note_on_c, 0, 54, 0
2, 5146, Note_on_c, 0, 44, 67
2, 5148, Note_on_c, 0, 78, 0
2, 5207, Note_on_c, 0, 71, 0
2, 5211, Note_on_c, 0, 76, 44
2, 5211, Note_on_c, 0, 83, 44
2, 5216, Note_on_c, 0, 80, 44
2, 5259, Note_on_c, 0, 80, 0
2, 5267, Note_on_c, 0, 59, 75
2, 5267, Note_on_c, 0, 64, 75
2, 5272, Note_on_c, 0, 76, 0
2, 5272, Note_on_c, 0, 44, 0
2, 5299, Note_on_c, 0, 56, 0
2, 5299, Note_on_c, 0, 59, 0
2, 5299, Note_on_c, 0, 64, 0
2, 5332, Note_on_c, 0, 71, 39
2, 5364, Note_on_c, 0, 83, 0
2, 5374, Note_on_c, 0, 71, 0
2, 5405, Note_on_c, 0, 83, 53
2, 5407, Note_on_c, 0, 43, 32
2, 5415, Note_on_c, 0, 55, 32
2, 5420, Note_on_c, 0, 76, 53
2, 5471, Note_on_c, 0, 76, 0
2, 5529, Note_on_c, 0, 55, 0
2, 5536, Note_on_c, 0, 83, 0
2, 5539, Note_on_c, 0, 43, 0
2, 5539, Note_on_c, 0, 71, 44
2, 5544, Note_on_c, 0, 64, 44
2, 5550, Note_on_c, 0, 59, 52
2, 5582, Note_on_c, 0, 59, 0
2, 5582, Note_on_c, 0, 64, 0
2, 5587, Note_on_c, 0, 71, 0
2, 5614, Note_on_c, 0, 83, 44
2, 5623, Note_on_c, 0, 71, 44
2, 5628, Note_on_c, 0, 75, 44
2, 5688, Note_on_c, 0, 42, 44
2, 5696, Note_on_c, 0, 54, 48
2, 5737, Note_on_c, 0, 71, 0
2, 5747, Note_on_c, 0, 83, 0
2, 5747, Note_on_c, 0, 75, 0
2, 5752, Note_on_c, 0, 87, 39
2, 5795, Note_on_c, 0, 54, 0
2, 5805, Note_on_c, 0, 42, 0
2, 5817, Note_on_c, 0, 63, 52
2, 5827, Note_on_c, 0, 54, 52
2, 5827, Note_on_c, 0, 59, 52
2, 5830, Note_on_c, 0, 83, 33
2, 5849, Note_on_c, 0, 87, 0
2, 5856, Note_on_c, 0, 63, 0
2, 5858, Note_on_c, 0, 59, 0
2, 5866, Note_on_c, 0, 54, 0
2, 5897, Note_on_c, 0, 75, 33
2, 5907, Note_on_c, 0, 83, 0
2, 5960, Note_on_c, 0, 78, 33
2, 5970, Note_on_c, 0, 75, 0
2, 5970, Note_on_c, 0, 39, 52
2, 5973, Note_on_c, 0, 51, 52
2, 6040, Note_on_c, 0, 77, 33
2, 6065, Note_on_c, 0, 78, 0
2, 6098, Note_on_c, 0, 78, 33
2, 6103, Note_on_c, 0, 77, 0
2, 6106, Note_on_c, 0, 38, 33
2, 6106, Note_on_c, 0, 50, 33
2, 6108, Note_on_c, 0, 39, 0
2, 6108, Note_on_c, 0, 51, 0
2, 6176, Note_on_c, 0, 80, 33
2, 6191, Note_on_c, 0, 78, 0
2, 6219, Note_on_c, 0, 80, 0
2, 6244, Note_on_c, 0, 50, 0
2, 6244, Note_on_c, 0, 49, 60
2, 6246, Note_on_c, 0, 37, 60
2, 6249, Note_on_c, 0, 38, 0
2, 6251, Note_on_c, 0, 82, 39
2, 6302, Note_on_c, 0, 82, 0
2, 6310, Note_on_c, 0, 73, 44
2, 6310, Note_on_c, 0, 78, 44
2, 6324, Note_on_c, 0, 37, 0
2, 6336, Note_on_c, 0, 49, 0
2, 6367, Note_on_c, 0, 78, 0
2, 6377, Note_on_c, 0, 61, 49
2, 6387, Note_on_c, 0, 58, 48
2, 6413, Note_on_c, 0, 61, 0
2, 6418, Note_on_c, 0, 58, 0
2, 6440, Note_on_c, 0, 82, 39
2, 6443, Note_on_c, 0, 73, 0
2, 6508, Note_on_c, 0, 82, 0
2, 6520, Note_on_c, 0, 71, 44
2, 6520, Note_on_c, 0, 80, 44
2, 6528, Note_on_c, 0, 44, 44
2, 6528, Note_on_c, 0, 77, 44
2, 6564, Note_on_c, 0, 44, 0
2, 6574, Note_on_c, 0, 77, 0
2, 6588, Note_on_c, 0, 71, 0
2, 6639, Note_on_c, 0, 80, 0
2, 6656, Note_on_c, 0, 82, 44
2, 6658, Note_on_c, 0, 65, 44
2, 6668, Note_on_c, 0, 59, 44
2, 6668, Note_on_c, 0, 61, 44
2, 6690, Note_on_c, 0, 61, 0
2, 6690, Note_on_c, 0, 82, 0
2, 6690, Note_on_c, 0, 65, 0
2, 6697, Note_on_c, 0, 59, 0
2, 6739, Note_on_c, 0, 78, 44
2, 6750, Note_on_c, 0, 70, 44
2, 6799, Note_on_c, 0, 42, 59
2, 6804, Note_on_c, 0, 54, 61
2, 6850, Note_on_c, 0, 42, 0
2, 6855, Note_on_c, 0, 54, 0
2, 6903, Note_on_c, 0, 70, 0
2, 6918, Note_on_c, 0, 78, 0
2, 6942, Note_on_c, 0, 52, 39
2, 6961, Note_on_c, 0, 70, 39
2, 7010, Note_on_c, 0, 71, 39
2, 7027, Note_on_c, 0, 70, 0
2, 7063, Note_on_c, 0, 71, 0
2, 7076, Note_on_c, 0, 49, 72
2, 7076, Note_on_c, 0, 73, 39
2, 7085, Note_on_c, 0, 52, 0
2, 7136, Note_on_c, 0, 75, 39
2, 7160, Note_on_c, 0, 73, 0
2, 7184, Note_on_c, 0, 75, 0
2, 7204, Note_on_c, 0, 76, 44
2, 7216, Note_on_c, 0, 46, 67
2, 7224, Note_on_c, 0, 49, 0
2, 7276, Note_on_c, 0, 78, 44
2, 7279, Note_on_c, 0, 76, 0
2, 7347, Note_on_c, 0, 71, 44
2, 7349, Note_on_c, 0, 78, 0
2, 7352, Note_on_c, 0, 80, 44
2, 7354, Note_on_c, 0, 47, 70
2, 7357, Note_on_c, 0, 46, 0
2, 7357, Note_on_c, 0, 75, 44
2, 7388, Note_on_c, 0, 75, 0
2, 7393, Note_on_c, 0, 47, 0
2, 7417, Note_on_c, 0, 80, 0
2, 7440, Note_on_c, 0, 78, 44
2, 7478, Note_on_c, 0, 63, 52
2, 7483, Note_on_c, 0, 59, 52
2, 7488, Note_on_c, 0, 54, 52
2, 7497, Note_on_c, 0, 78, 0
2, 7497, Note_on_c, 0, 71, 0
2, 7514, Note_on_c, 0, 63, 0
2, 7516, Note_on_c, 0, 59, 0
2, 7526, Note_on_c, 0, 54, 0
2, 7562, Note_on_c, 0, 76, 39
2, 7604, Note_on_c, 0, 76, 0
2, 7618, Note_on_c, 0, 42, 44
2, 7626, Note_on_c, 0, 75, 39
2, 7659, Note_on_c, 0, 42, 0
2, 7696, Note_on_c, 0, 74, 46
2, 7701, Note_on_c, 0, 75, 0
2, 7750, Note_on_c, 0, 75, 44
2, 7752, Note_on_c, 0, 74, 0
2, 7754, Note_on_c, 0, 63, 44
2, 7754, Note_on_c, 0, 54, 44
2, 7754, Note_on_c, 0, 59, 44
2, 7786, Note_on_c, 0, 59, 0
2, 7793, Note_on_c, 0, 54, 0
2, 7796, Note_on_c, 0, 63, 0
2, 7829, Note_on_c, 0, 73, 53
2, 7837, Note_on_c, 0, 75, 0
2, 7885, Note_on_c, 0, 71, 53
2, 7893, Note_on_c, 0, 73, 0
2, 7893, Note_on_c, 0, 47, 44
2, 7945, Note_on_c, 0, 47, 0
2, 7975, Note_on_c, 0, 73, 39
2, 7982, Note_on_c, 0, 71, 0
2, 8033, Note_on_c, 0, 73, 0
2, 8033, Note_on_c, 0, 63, 39
2, 8036, Note_on_c, 0, 59, 39
2, 8042, Note_on_c, 0, 54, 38
2, 8045, Note_on_c, 0, 75, 38
2, 8072, Note_on_c, 0, 54, 0
2, 8072, Note_on_c, 0, 59, 0
2, 8077, Note_on_c, 0, 63, 0
2, 8106, Note_on_c, 0, 75, 0
2, 8123, Note_on_c, 0, 78, 39
2, 8193, Note_on_c, 0, 78, 0
2, 8193, Note_on_c, 0, 42, 39
2, 8268, Note_on_c, 0, 83, 53
2, 8322, Note_on_c, 0, 87, 53
2, 8328, Note_on_c, 0, 75, 53
2, 8331, Note_on_c, 0, 42, 0
2, 8331, Note_on_c, 0, 63, 58
2, 8331, Note_on_c, 0, 59, 58
2, 8358, Note_on_c, 0, 83, 0
2, 8365, Note_on_c, 0, 75, 0
2, 8370, Note_on_c, 0, 63, 0
2, 8370, Note_on_c, 0, 59, 0
2, 8373, Note_on_c, 0, 87, 0
2, 8457, Note_on_c, 0, 80, 53
2, 8460, Note_on_c, 0, 71, 53
2, 8467, Note_on_c, 0, 75, 53
2, 8467, Note_on_c, 0, 47, 44
2, 8516, Note_on_c, 0, 75, 0
2, 8518, Note_on_c, 0, 78, 44
2, 8522, Note_on_c, 0, 47, 0
2, 8535, Note_on_c, 0, 80, 0
2, 8595, Note_on_c, 0, 63, 44
2, 8605, Note_on_c, 0, 59, 44
2, 8640, Note_on_c, 0, 63, 0
2, 8641, Note_on_c, 0, 59, 0
2, 8673, Note_on_c, 0, 78, 0
2, 8690, Note_on_c, 0, 76, 39
2, 8712, Note_on_c, 0, 71, 0
2, 8721, Note_on_c, 0, 76, 0
2, 8734, Note_on_c, 0, 42, 44
2, 8743, Note_on_c, 0, 75, 39
2, 8787, Note_on_c, 0, 42, 0
2, 8811, Note_on_c, 0, 75, 0
2, 8811, Note_on_c, 0, 74, 33
2, 8867, Note_on_c, 0, 74, 0
2, 8867, Note_on_c, 0, 63, 44
2, 8874, Note_on_c, 0, 54, 44
2, 8874, Note_on_c, 0, 59, 44
2, 8877, Note_on_c, 0, 75, 33
2, 8908, Note_on_c, 0, 59, 0
2, 8910, Note_on_c, 0, 54, 0
2, 8913, Note_on_c, 0, 63, 0
2, 8935, Note_on_c, 0, 76, 33
2, 8940, Note_on_c, 0, 75, 0
2, 8998, Note_on_c, 0, 76, 0
2, 9000, Note_on_c, 0, 78, 44
2, 9005, Note_on_c, 0, 47, 67
2, 9005, Note_on_c, 0, 75, 44
2, 9117, Note_on_c, 0, 75, 0
2, 9144, Note_on_c, 0, 47, 0
2, 9148, Note_on_c, 0, 75, 44
2, 9150, Note_on_c, 0, 51, 67
2, 9204, Note_on_c, 0, 71, 48
2, 9209, Note_on_c, 0, 78, 0
2, 9216, Note_on_c, 0, 75, 0
2, 9269, Note_on_c, 0, 78, 44
2, 9272, Note_on_c, 0, 71, 0
2, 9274, Note_on_c, 0, 75, 44
2, 9287, Note_on_c, 0, 54, 44
2, 9296, Note_on_c, 0, 51, 0
2, 9333, Note_on_c, 0, 71, 44
2, 9339, Note_on_c, 0, 78, 0
2, 9354, Note_on_c, 0, 75, 0
2, 9395, Note_on_c, 0, 71, 0
2, 9403, Note_on_c, 0, 78, 44
2, 9408, Note_on_c, 0, 57, 67
2, 9422, Note_on_c, 0, 75, 49
2, 9434, Note_on_c, 0, 54, 0
2, 9541, Note_on_c, 0, 71, 53
2, 9553, Note_on_c, 0, 57, 0
2, 9555, Note_on_c, 0, 56, 53
2, 9558, Note_on_c, 0, 44, 54
2, 9560, Note_on_c, 0, 78, 0
2, 9570, Note_on_c, 0, 75, 0
2, 9621, Note_on_c, 0, 83, 39
2, 9625, Note_on_c, 0, 76, 39
2, 9628, Note_on_c, 0, 80, 39
2, 9681, Note_on_c, 0, 71, 0
2, 9684, Note_on_c, 0, 44, 0
2, 9684, Note_on_c, 0, 68, 52
2, 9684, Note_on_c, 0, 64, 52
2, 9689, Note_on_c, 0, 56, 0
2, 9689, Note_on_c, 0, 80, 0
2, 9696, Note_on_c, 0, 76, 0
2, 9698, Note_on_c, 0, 83, 0
2, 9713, Note_on_c, 0, 68, 0
2, 9718, Note_on_c, 0, 64, 0
2, 9749, Note_on_c, 0, 71, 44
2, 9803, Note_on_c, 0, 71, 0
2, 9819, Note_on_c, 0, 76, 44
2, 9822, Note_on_c, 0, 83, 44
2, 9829, Note_on_c, 0, 43, 44
2, 9832, Note_on_c, 0, 55, 44
2, 9910, Note_on_c, 0, 76, 0
2, 9914, Note_on_c, 0, 83, 0
2, 9938, Note_on_c, 0, 55, 0
2, 9951, Note_on_c, 0, 64, 44
2, 9951, Note_on_c, 0, 71, 44
2, 9960, Note_on_c, 0, 59, 44
2, 9962, Note_on_c, 0, 43, 0
2, 9967, Note_on_c, 0, 55, 44
2, 9989, Note_on_c, 0, 55, 0
2, 9989, Note_on_c, 0, 59, 0
2, 9994, Note_on_c, 0, 64, 0
2, 10002, Note_on_c, 0, 71, 0
2, 10028, Note_on_c, 0, 71, 44
2, 10028, Note_on_c, 0, 83, 44
2, 10086, Note_on_c, 0, 83, 0
2, 10091, Note_on_c, 0, 42, 44
2, 10101, Note_on_c, 0, 71, 0
2, 10101, Note_on_c, 0, 54, 44
2, 10174, Note_on_c, 0, 87, 44
2, 10239, Note_on_c, 0, 54, 0
2, 10239, Note_on_c, 0, 63, 38
2, 10239, Note_on_c, 0, 83, 44
2, 10239, Note_on_c, 0, 59, 38
2, 10242, Note_on_c, 0, 42, 0
2, 10268, Note_on_c, 0, 87, 0
2, 10268, Note_on_c, 0, 63, 0
2, 10273, Note_on_c, 0, 59, 0
2, 10317, Note_on_c, 0, 75, 39
2, 10334, Note_on_c, 0, 83, 0
2, 10382, Note_on_c, 0, 75, 0
2, 10385, Note_on_c, 0, 78, 47
2, 10392, Note_on_c, 0, 42, 44
2, 10392, Note_on_c, 0, 54, 44
2, 10457, Note_on_c, 0, 71, 48
2, 10460, Note_on_c, 0, 78, 0
2, 10508, Note_on_c, 0, 54, 0
2, 10520, Note_on_c, 0, 71, 0
2, 10528, Note_on_c, 0, 83, 39
2, 10528, Note_on_c, 0, 63, 44
2, 10528, Note_on_c, 0, 75, 39
2, 10535, Note_on_c, 0, 54, 44
2, 10539, Note_on_c, 0, 59, 44
2, 10561, Note_on_c, 0, 42, 0
2, 10564, Note_on_c, 0, 83, 0
2, 10569, Note_on_c, 0, 63, 0
2, 10576, Note_on_c, 0, 59, 0
2, 10585, Note_on_c, 0, 78, 39
2, 10588, Note_on_c, 0, 54, 0
2, 10595, Note_on_c, 0, 75, 0
2, 10625, Note_on_c, 0, 78, 0
2, 10661, Note_on_c, 0, 71, 49
2, 10663, Note_on_c, 0, 44, 58
2, 10668, Note_on_c, 0, 56, 59
2, 10676, Note_on_c, 0, 65, 49
2, 10787, Note_on_c, 0, 55, 60
2, 10787, Note_on_c, 0, 64, 49
2, 10789, Note_on_c, 0, 56, 0
2, 10792, Note_on_c, 0, 44, 0
2, 10797, Note_on_c, 0, 43, 60
2, 10800, Note_on_c, 0, 65, 0
2, 10911, Note_on_c, 0, 71, 0
2, 10916, Note_on_c, 0, 64, 0
2, 10922, Note_on_c, 0, 43, 0
2, 10927, Note_on_c, 0, 42, 33
2, 10930, Note_on_c, 0, 55, 0
2, 10932, Note_on_c, 0, 54, 33
2, 10998, Note_on_c, 0, 75, 44
2, 11040, Note_on_c, 0, 54, 0
2, 11051, Note_on_c, 0, 42, 0
2, 11064, Note_on_c, 0, 75, 0
2, 11065, Note_on_c, 0, 73, 44
2, 11065, Note_on_c, 0, 54, 44
2, 11065, Note_on_c, 0, 58, 44
2, 11070, Note_on_c, 0, 64, 44
2, 11114, Note_on_c, 0, 58, 0
2, 11114, Note_on_c, 0, 54, 0
2, 11121, Note_on_c, 0, 64, 0
2, 11146, Note_on_c, 0, 73, 0
2, 11189, Note_on_c, 0, 63, 67
2, 11192, Note_on_c, 0, 71, 44
2, 11208, Note_on_c, 0, 54, 67
2, 11208, Note_on_c, 0, 59, 67
2, 11213, Note_on_c, 0, 47, 67
2, 11301, Note_on_c, 0, 71, 0
2, 11330, Note_on_c, 0, 47, 0
2, 11330, Note_on_c, 0, 71, 39
2, 11340, Note_on_c, 0, 63, 0
2, 11342, Note_on_c, 0, 54, 0
2, 11345, Note_on_c, 0, 59, 0
2, 11383, Note_on_c, 0, 71, 0
2, 11407, Note_on_c, 0, 73, 39
2, 11475, Note_on_c, 0, 75, 44
2, 11497, Note_on_c, 0, 73, 0
2, 11544, Note_on_c, 0, 76, 44
2, 11577, Note_on_c, 0, 75, 0
2, 11609, Note_on_c, 0, 70, 53
2, 11609, Note_on_c, 0, 78, 53
2, 11611, Note_on_c, 0, 76, 0
2, 11616, Note_on_c, 0, 54, 67
2, 11618, Note_on_c, 0, 42, 67
2, 11647, Note_on_c, 0, 78, 0
2, 11647, Note_on_c, 0, 70, 0
2, 11652, Note_on_c, 0, 42, 0
2, 11669, Note_on_c, 0, 54, 0
2, 11747, Note_on_c, 0, 80, 53
2, 11749, Note_on_c, 0, 71, 53
2, 11754, Note_on_c, 0, 75, 53
2, 11761, Note_on_c, 0, 47, 33
2, 11798, Note_on_c, 0, 47, 0
2, 11810, Note_on_c, 0, 75, 0
2, 11820, Note_on_c, 0, 78, 81
2, 11827, Note_on_c, 0, 80, 0
2, 11892, Note_on_c, 0, 63, 80
2, 11897, Note_on_c, 0, 54, 79
2, 11904, Note_on_c, 0, 59, 78
2, 11924, Note_on_c, 0, 59, 0
2, 11924, Note_on_c, 0, 54, 0
2, 11931, Note_on_c, 0, 63, 0
2, 11951, Note_on_c, 0, 78, 0
2, 11951, Note_on_c, 0, 71, 0
2, 11955, Note_on_c, 0, 76, 69
2, 12024, Note_on_c, 0, 76, 0
2, 12028, Note_on_c, 0, 42, 57
2, 12035, Note_on_c, 0, 75, 44
2, 12065, Note_on_c, 0, 42, 0
2, 12096, Note_on_c, 0, 75, 0
2, 12108, Note_on_c, 0, 74, 55
2, 12154, Note_on_c, 0, 74, 0
2, 12168, Note_on_c, 0, 63, 56
2, 12171, Note_on_c, 0, 75, 39
2, 12173, Note_on_c, 0, 59, 55
2, 12210, Note_on_c, 0, 59, 0
2, 12213, Note_on_c, 0, 63, 0
2, 12246, Note_on_c, 0, 75, 0
2, 12246, Note_on_c, 0, 73, 56
2, 12310, Note_on_c, 0, 73, 0
2, 12310, Note_on_c, 0, 71, 53
2, 12326, Note_on_c, 0, 47, 80
2, 12382, Note_on_c, 0, 47, 0
2, 12404, Note_on_c, 0, 73, 39
2, 12411, Note_on_c, 0, 71, 0
2, 12462, Note_on_c, 0, 63, 72
2, 12469, Note_on_c, 0, 73, 0
2, 12469, Note_on_c, 0, 59, 71
2, 12477, Note_on_c, 0, 75, 69
2, 12508, Note_on_c, 0, 63, 0
2, 12510, Note_on_c, 0, 59, 0
2, 12550, Note_on_c, 0, 75, 0
2, 12550, Note_on_c, 0, 78, 57
2, 12624, Note_on_c, 0, 42, 60
2, 12634, Note_on_c, 0, 78, 0
2, 12653, Note_on_c, 0, 42, 0
2, 12685, Note_on_c, 0, 83, 58
2, 12758, Note_on_c, 0, 87, 53
2, 12760, Note_on_c, 0, 63, 53
2, 12765, Note_on_c, 0, 75, 53
2, 12770, Note_on_c, 0, 59, 53
2, 12777, Note_on_c, 0, 83, 0
2, 12790, Note_on_c, 0, 87, 0
2, 12794, Note_on_c, 0, 59, 0
2, 12794, Note_on_c, 0, 63, 0
2, 12821, Note_on_c, 0, 75, 0
2, 12901, Note_on_c, 0, 71, 53
2, 12903, Note_on_c, 0, 80, 53
2, 12903, Note_on_c, 0, 47, 52
2, 12913, Note_on_c, 0, 75, 53
2, 12935, Note_on_c, 0, 75, 0
2, 12947, Note_on_c, 0, 47, 0
2, 12960, Note_on_c, 0, 80, 0
2, 12974, Note_on_c, 0, 78, 52
2, 13036, Note_on_c, 0, 54, 38
2, 13036, Note_on_c, 0, 63, 38
2, 13046, Note_on_c, 0, 59, 37
2, 13066, Note_on_c, 0, 63, 0
2, 13071, Note_on_c, 0, 54, 0
2, 13071, Note_on_c, 0, 59, 0
2, 13073, Note_on_c, 0, 78, 0
2, 13073, Note_on_c, 0, 71, 0
2, 13100, Note_on_c, 0, 76, 46
2, 13170, Note_on_c, 0, 42, 52
2, 13173, Note_on_c, 0, 75, 44
2, 13177, Note_on_c, 0, 76, 0
2, 13204, Note_on_c, 0, 42, 0
2, 13248, Note_on_c, 0, 75, 0
2, 13250, Note_on_c, 0, 74, 44
2, 13298, Note_on_c, 0, 74, 0
2, 13311, Note_on_c, 0, 75, 52
2, 13313, Note_on_c, 0, 63, 52
2, 13316, Note_on_c, 0, 59, 52
2, 13340, Note_on_c, 0, 63, 0
2, 13352, Note_on_c, 0, 59, 0
2, 13376, Note_on_c, 0, 76, 52
2, 13419, Note_on_c, 0, 75, 0
2, 13437, Note_on_c, 0, 78, 44
2, 13441, Note_on_c, 0, 76, 0
2, 13446, Note_on_c, 0, 75, 44
2, 13456, Note_on_c, 0, 47, 33
2, 13524, Note_on_c, 0, 78, 0
2, 13553, Note_on_c, 0, 75, 0
2, 13580, Note_on_c, 0, 78, 44
2, 13584, Note_on_c, 0, 51, 67
2, 13594, Note_on_c, 0, 75, 44
2, 13599, Note_on_c, 0, 47, 0
2, 13650, Note_on_c, 0, 71, 67
2, 13653, Note_on_c, 0, 75, 0
2, 13657, Note_on_c, 0, 78, 0
2, 13708, Note_on_c, 0, 71, 0
2, 13720, Note_on_c, 0, 78, 44
2, 13723, Note_on_c, 0, 75, 44
2, 13725, Note_on_c, 0, 54, 68
2, 13737, Note_on_c, 0, 51, 0
2, 13791, Note_on_c, 0, 78, 0
2, 13796, Note_on_c, 0, 75, 0
2, 13798, Note_on_c, 0, 71, 70
2, 13839, Note_on_c, 0, 71, 0
2, 13856, Note_on_c, 0, 78, 53
2, 13861, Note_on_c, 0, 57, 80
2, 13863, Note_on_c, 0, 54, 0
2, 13863, Note_on_c, 0, 75, 53
2, 13909, Note_on_c, 0, 78, 0
2, 13987, Note_on_c, 0, 75, 0
2, 13990, Note_on_c, 0, 71, 39
2, 13992, Note_on_c, 0, 57, 0
2, 13992, Note_on_c, 0, 44, 71
2, 14004, Note_on_c, 0, 56, 69
2, 14031, Note_on_c, 0, 44, 0
2, 14038, Note_on_c, 0, 56, 0
2, 14052, Note_on_c, 0, 83, 49
2, 14060, Note_on_c, 0, 80, 49
2, 14062, Note_on_c, 0, 76, 49
2, 14084, Note_on_c, 0, 71, 0
2, 14130, Note_on_c, 0, 80, 0
2, 14142, Note_on_c, 0, 64, 71
2, 14147, Note_on_c, 0, 68, 70
2, 14154, Note_on_c, 0, 76, 0
2, 14166, Note_on_c, 0, 83, 0
2, 14169, Note_on_c, 0, 68, 0
2, 14181, Note_on_c, 0, 64, 0
2, 14220, Note_on_c, 0, 71, 58
2, 14276, Note_on_c, 0, 71, 0
2, 14282, Note_on_c, 0, 83, 44
2, 14290, Note_on_c, 0, 55, 78
2, 14292, Note_on_c, 0, 76, 44
2, 14295, Note_on_c, 0, 43, 78
2, 14324, Note_on_c, 0, 43, 0
2, 14324, Note_on_c, 0, 55, 0
2, 14373, Note_on_c, 0, 83, 0
2, 14406, Note_on_c, 0, 76, 0
2, 14414, Note_on_c, 0, 64, 44
2, 14414, Note_on_c, 0, 71, 44
2, 14424, Note_on_c, 0, 55, 74
2, 14424, Note_on_c, 0, 59, 74
2, 14448, Note_on_c, 0, 59, 0
2, 14448, Note_on_c, 0, 55, 0
2, 14457, Note_on_c, 0, 64, 0
2, 14491, Note_on_c, 0, 83, 45
2, 14564, Note_on_c, 0, 71, 0
2, 14564, Note_on_c, 0, 42, 52
2, 14567, Note_on_c, 0, 54, 52
2, 14588, Note_on_c, 0, 42, 0
2, 14610, Note_on_c, 0, 83, 0
2, 14619, Note_on_c, 0, 54, 0
2, 14629, Note_on_c, 0, 87, 53
2, 14692, Note_on_c, 0, 83, 46
2, 14695, Note_on_c, 0, 63, 46
2, 14697, Note_on_c, 0, 59, 49
2, 14724, Note_on_c, 0, 87, 0
2, 14729, Note_on_c, 0, 63, 0
2, 14736, Note_on_c, 0, 59, 0
2, 14760, Note_on_c, 0, 75, 39
2, 14765, Note_on_c, 0, 83, 0
2, 14818, Note_on_c, 0, 75, 0
2, 14831, Note_on_c, 0, 78, 44
2, 14835, Note_on_c, 0, 51, 52
2, 14838, Note_on_c, 0, 39, 52
2, 14905, Note_on_c, 0, 78, 0
2, 14908, Note_on_c, 0, 77, 82
2, 14956, Note_on_c, 0, 51, 0
2, 14961, Note_on_c, 0, 77, 0
2, 14961, Note_on_c, 0, 78, 74
2, 14974, Note_on_c, 0, 50, 72
2, 14978, Note_on_c, 0, 38, 71
2, 15042, Note_on_c, 0, 80, 67
2, 15044, Note_on_c, 0, 78, 0
2, 15090, Note_on_c, 0, 80, 0
2, 15095, Note_on_c, 0, 39, 0
2, 15112, Note_on_c, 0, 49, 81
2, 15117, Note_on_c, 0, 37, 83
2, 15117, Note_on_c, 0, 82, 53
2, 15121, Note_on_c, 0, 50, 0
2, 15124, Note_on_c, 0, 38, 0
2, 15153, Note_on_c, 0, 37, 0
2, 15172, Note_on_c, 0, 49, 0
2, 15194, Note_on_c, 0, 78, 79
2, 15199, Note_on_c, 0, 73, 78
2, 15209, Note_on_c, 0, 82, 0
2, 15233, Note_on_c, 0, 73, 0
2, 15240, Note_on_c, 0, 78, 0
2, 15260, Note_on_c, 0, 66, 58
2, 15267, Note_on_c, 0, 61, 56
2, 15293, Note_on_c, 0, 66, 0
2, 15298, Note_on_c, 0, 61, 0
2, 15328, Note_on_c, 0, 82, 44
2, 15390, Note_on_c, 0, 82, 0
2, 15395, Note_on_c, 0, 37, 55
2, 15408, Note_on_c, 0, 71, 44
2, 15408, Note_on_c, 0, 80, 44
2, 15415, Note_on_c, 0, 77, 44
2, 15436, Note_on_c, 0, 37, 0
2, 15451, Note_on_c, 0, 77, 0
2, 15456, Note_on_c, 0, 80, 0
2, 15471, Note_on_c, 0, 71, 0
2, 15536, Note_on_c, 0, 71, 44
2, 15536, Note_on_c, 0, 82, 44
2, 15538, Note_on_c, 0, 59, 52
2, 15541, Note_on_c, 0, 61, 52
2, 15541, Note_on_c, 0, 65, 44
2, 15568, Note_on_c, 0, 65, 0
2, 15570, Note_on_c, 0, 59, 0
2, 15573, Note_on_c, 0, 61, 0
2, 15573, Note_on_c, 0, 82, 0
2, 15587, Note_on_c, 0, 71, 0
2, 15616, Note_on_c, 0, 70, 46
2, 15616, Note_on_c, 0, 78, 46
2, 15670, Note_on_c, 0, 42, 52
2, 15737, Note_on_c, 0, 42, 0
2, 15737, Note_on_c, 0, 70, 0
2, 15744, Note_on_c, 0, 78, 0
2, 15805, Note_on_c, 0, 70, 39
2, 15808, Note_on_c, 0, 52, 39
2, 15868, Note_on_c, 0, 71, 52
2, 15880, Note_on_c, 0, 70, 0
2, 15921, Note_on_c, 0, 71, 0
2, 15924, Note_on_c, 0, 52, 0
2, 15934, Note_on_c, 0, 73, 44
2, 15936, Note_on_c, 0, 49, 52
2, 15994, Note_on_c, 0, 75, 44
2, 16004, Note_on_c, 0, 73, 0
2, 16026, Note_on_c, 0, 75, 0
2, 16059, Note_on_c, 0, 76, 53
2, 16062, Note_on_c, 0, 46, 52
2, 16069, Note_on_c, 0, 49, 0
2, 16123, Note_on_c, 0, 76, 0
2, 16130, Note_on_c, 0, 78, 52
2, 16191, Note_on_c, 0, 46, 0
2, 16207, Note_on_c, 0, 78, 0
2, 16212, Note_on_c, 0, 71, 39
2, 16215, Note_on_c, 0, 35, 56
2, 16215, Note_on_c, 0, 80, 39
2, 16220, Note_on_c, 0, 75, 39
2, 16237, Note_on_c, 0, 35, 0
2, 16242, Note_on_c, 0, 75, 0
2, 16283, Note_on_c, 0, 80, 0
2, 16302, Note_on_c, 0, 78, 39
2, 16341, Note_on_c, 0, 71, 0
2, 16341, Note_on_c, 0, 59, 36
2, 16350, Note_on_c, 0, 63, 38
2, 16365, Note_on_c, 0, 78, 0
2, 16377, Note_on_c, 0, 59, 0
2, 16382, Note_on_c, 0, 63, 0
2, 16401, Note_on_c, 0, 76, 44
2, 16469, Note_on_c, 0, 76, 0
2, 16482, Note_on_c, 0, 42, 44
2, 16487, Note_on_c, 0, 75, 39
2, 16518, Note_on_c, 0, 42, 0
2, 16544, Note_on_c, 0, 74, 39
2, 16554, Note_on_c, 0, 75, 0
2, 16600, Note_on_c, 0, 74, 0
2, 16608, Note_on_c, 0, 59, 44
2, 16610, Note_on_c, 0, 63, 44
2, 16615, Note_on_c, 0, 75, 39
2, 16646, Note_on_c, 0, 59, 0
2, 16651, Note_on_c, 0, 63, 0
2, 16680, Note_on_c, 0, 75, 0
2, 16687, Note_on_c, 0, 73, 39
2, 16736, Note_on_c, 0, 73, 0
2, 16748, Note_on_c, 0, 71, 44
2, 16753, Note_on_c, 0, 47, 44
2, 16792, Note_on_c, 0, 47, 0
2, 16821, Note_on_c, 0, 71, 0
2, 16824, Note_on_c, 0, 73, 44
2, 16876, Note_on_c, 0, 63, 44
2, 16881, Note_on_c, 0, 73, 0
2, 16881, Note_on_c, 0, 59, 44
2, 16884, Note_on_c, 0, 75, 33
2, 16918, Note_on_c, 0, 63, 0
2, 16920, Note_on_c, 0, 59, 0
2, 16944, Note_on_c, 0, 75, 0
2, 16952, Note_on_c, 0, 78, 34
2, 17017, Note_on_c, 0, 78, 0
2, 17022, Note_on_c, 0, 42, 43
2, 17064, Note_on_c, 0, 42, 0
2, 17102, Note_on_c, 0, 83, 37
2, 17165, Note_on_c, 0, 75, 53
2, 17165, Note_on_c, 0, 87, 53
2, 17172, Note_on_c, 0, 63, 53
2, 17177, Note_on_c, 0, 59, 53
2, 17192, Note_on_c, 0, 83, 0
2, 17202, Note_on_c, 0, 75, 0
2, 17202, Note_on_c, 0, 59, 0
2, 17204, Note_on_c, 0, 87, 0
2, 17204, Note_on_c, 0, 63, 0
2, 17318, Note_on_c, 0, 71, 53
2, 17318, Note_on_c, 0, 80, 53
2, 17325, Note_on_c, 0, 47, 44
2, 17325, Note_on_c, 0, 75, 53
2, 17364, Note_on_c, 0, 75, 0
2, 17366, Note_on_c, 0, 47, 0
2, 17393, Note_on_c, 0, 80, 0
2, 17400, Note_on_c, 0, 78, 39
2, 17458, Note_on_c, 0, 63, 44
2, 17461, Note_on_c, 0, 59, 44
2, 17468, Note_on_c, 0, 71, 0
2, 17493, Note_on_c, 0, 59, 0
2, 17497, Note_on_c, 0, 63, 0
2, 17502, Note_on_c, 0, 78, 0
2, 17545, Note_on_c, 0, 76, 46
2, 17590, Note_on_c, 0, 76, 0
2, 17594, Note_on_c, 0, 42, 60
2, 17614, Note_on_c, 0, 75, 44
2, 17652, Note_on_c, 0, 42, 0
2, 17677, Note_on_c, 0, 75, 0
2, 17679, Note_on_c, 0, 74, 53
2, 17720, Note_on_c, 0, 74, 0
2, 17749, Note_on_c, 0, 59, 44
2, 17749, Note_on_c, 0, 63, 44
2, 17752, Note_on_c, 0, 75, 33
2, 17754, Note_on_c, 0, 54, 44
2, 17771, Note_on_c, 0, 63, 0
2, 17771, Note_on_c, 0, 59, 0
2, 17788, Note_on_c, 0, 54, 0
2, 17795, Note_on_c, 0, 75, 0
2, 17803, Note_on_c, 0, 76, 33
2, 17856, Note_on_c, 0, 76, 0
2, 17868, Note_on_c, 0, 78, 37
2, 17871, Note_on_c, 0, 47, 53
2, 17876, Note_on_c, 0, 75, 39
2, 17977, Note_on_c, 0, 75, 0
2, 17979, Note_on_c, 0, 78, 0
2, 18000, Note_on_c, 0, 47, 0
2, 18006, Note_on_c, 0, 78, 44
2, 18016, Note_on_c, 0, 75, 44
2, 18021, Note_on_c, 0, 51, 67
2, 18072, Note_on_c, 0, 75, 0
2, 18076, Note_on_c, 0, 78, 0
2, 18079, Note_on_c, 0, 71, 67
2, 18118, Note_on_c, 0, 71, 0
2, 18140, Note_on_c, 0, 51, 0
2, 18140, Note_on_c, 0, 78, 44
2, 18144, Note_on_c, 0, 75, 44
2, 18144, Note_on_c, 0, 54, 44
2, 18210, Note_on_c, 0, 78, 0
2, 18215, Note_on_c, 0, 75, 0
2, 18219, Note_on_c, 0, 71, 67
2, 18251, Note_on_c, 0, 71, 0
2, 18278, Note_on_c, 0, 54, 0
2, 18283, Note_on_c, 0, 59, 67
2, 18288, Note_on_c, 0, 75, 44
2, 18288, Note_on_c, 0, 78, 44
2, 18394, Note_on_c, 0, 78, 0
2, 18394, Note_on_c, 0, 75, 0
2, 18407, Note_on_c, 0, 71, 53
2, 18423, Note_on_c, 0, 44, 67
2, 18428, Note_on_c, 0, 56, 67
2, 18433, Note_on_c, 0, 59, 0
2, 18481, Note_on_c, 0, 83, 67
2, 18484, Note_on_c, 0, 76, 67
2, 18491, Note_on_c, 0, 71, 0
2, 18542, Note_on_c, 0, 83, 0
2, 18542, Note_on_c, 0, 76, 0
2, 18547, Note_on_c, 0, 64, 39
2, 18552, Note_on_c, 0, 59, 39
2, 18564, Note_on_c, 0, 44, 0
2, 18581, Note_on_c, 0, 64, 0
2, 18583, Note_on_c, 0, 59, 0
2, 18593, Note_on_c, 0, 56, 0
2, 18617, Note_on_c, 0, 71, 41
2, 18673, Note_on_c, 0, 71, 0
2, 18680, Note_on_c, 0, 43, 62
2, 18693, Note_on_c, 0, 55, 67
2, 18695, Note_on_c, 0, 76, 53
2, 18695, Note_on_c, 0, 83, 53
2, 18787, Note_on_c, 0, 76, 0
2, 18796, Note_on_c, 0, 83, 0
2, 18801, Note_on_c, 0, 64, 49
2, 18804, Note_on_c, 0, 71, 49
2, 18806, Note_on_c, 0, 43, 0
2, 18816, Note_on_c, 0, 55, 0
2, 18816, Note_on_c, 0, 59, 73
2, 18842, Note_on_c, 0, 59, 0
2, 18850, Note_on_c, 0, 64, 0
2, 18857, Note_on_c, 0, 71, 0
2, 18888, Note_on_c, 0, 71, 44
2, 18893, Note_on_c, 0, 75, 44
2, 18896, Note_on_c, 0, 83, 44
2, 18937, Note_on_c, 0, 71, 0
2, 18969, Note_on_c, 0, 42, 52
2, 18969, Note_on_c, 0, 54, 52
2, 19012, Note_on_c, 0, 83, 0
2, 19017, Note_on_c, 0, 75, 0
2, 19020, Note_on_c, 0, 87, 49
2, 19082, Note_on_c, 0, 63, 52
2, 19090, Note_on_c, 0, 42, 0
2, 19090, Note_on_c, 0, 83, 49
2, 19100, Note_on_c, 0, 59, 52
2, 19102, Note_on_c, 0, 54, 0
2, 19102, Note_on_c, 0, 87, 0
2, 19122, Note_on_c, 0, 59, 0
2, 19122, Note_on_c, 0, 63, 0
2, 19165, Note_on_c, 0, 83, 0
2, 19175, Note_on_c, 0, 75, 41
2, 19211, Note_on_c, 0, 75, 0
2, 19228, Note_on_c, 0, 78, 44
2, 19235, Note_on_c, 0, 54, 52
2, 19289, Note_on_c, 0, 54, 0
2, 19306, Note_on_c, 0, 78, 0
2, 19308, Note_on_c, 0, 71, 44
2, 19367, Note_on_c, 0, 63, 52
2, 19368, Note_on_c, 0, 71, 0
2, 19376, Note_on_c, 0, 59, 52
2, 19378, Note_on_c, 0, 75, 44
2, 19395, Note_on_c, 0, 63, 0
2, 19403, Note_on_c, 0, 59, 0
2, 19429, Note_on_c, 0, 75, 0
2, 19432, Note_on_c, 0, 78, 52
2, 19468, Note_on_c, 0, 78, 0
2, 19495, Note_on_c, 0, 71, 49
2, 19502, Note_on_c, 0, 56, 65
2, 19514, Note_on_c, 0, 65, 49
2, 19516, Note_on_c, 0, 44, 71
2, 19541, Note_on_c, 0, 44, 0
2, 19546, Note_on_c, 0, 56, 0
2, 19638, Note_on_c, 0, 55, 77
2, 19640, Note_on_c, 0, 64, 77
2, 19643, Note_on_c, 0, 65, 0
2, 19643, Note_on_c, 0, 43, 77
2, 19704, Note_on_c, 0, 43, 0
2, 19710, Note_on_c, 0, 55, 0
2, 19742, Note_on_c, 0, 64, 0
2, 19761, Note_on_c, 0, 71, 0
2, 19791, Note_on_c, 0, 54, 50
2, 19800, Note_on_c, 0, 42, 52
2, 19832, Note_on_c, 0, 42, 0
2, 19851, Note_on_c, 0, 54, 0
2, 19861, Note_on_c, 0, 75, 52
2, 19920, Note_on_c, 0, 75, 0
2, 19921, Note_on_c, 0, 58, 52
2, 19926, Note_on_c, 0, 73, 44
2, 19929, Note_on_c, 0, 64, 44
2, 19934, Note_on_c, 0, 54, 52
2, 19970, Note_on_c, 0, 54, 0
2, 19975, Note_on_c, 0, 58, 0
2, 19999, Note_on_c, 0, 64, 0
2, 20011, Note_on_c, 0, 73, 0
2, 20062, Note_on_c, 0, 71, 39
2, 20064, Note_on_c, 0, 59, 45
2, 20064, Note_on_c, 0, 63, 45
2, 20079, Note_on_c, 0, 47, 50
2, 20084, Note_on_c, 0, 54, 52
2, 20113, Note_on_c, 0, 47, 0
2, 20195, Note_on_c, 0, 63, 0
2, 20200, Note_on_c, 0, 71, 0
2, 20208, Note_on_c, 0, 59, 0
2, 20208, Note_on_c, 0, 66, 74
2, 20222, Note_on_c, 0, 54, 0
2, 20227, Note_on_c, 0, 66, 0
2, 20263, Note_on_c, 0, 65, 60
2, 20312, Note_on_c, 0, 65, 0
2, 20348, Note_on_c, 0, 66, 53
2, 20382, Note_on_c, 0, 66, 0
2, 20406, Note_on_c, 0, 67, 52
2, 20440, Note_on_c, 0, 67, 0
2, 20470, Note_on_c, 0, 48, 43
2, 20472, Note_on_c, 0, 68, 56
2, 20481, Note_on_c, 0, 60, 44
2, 20508, Note_on_c, 0, 60, 0
2, 20508, Note_on_c, 0, 48, 0
2, 20513, Note_on_c, 0, 68, 0
2, 20537, Note_on_c, 0, 69, 53
2, 20591, Note_on_c, 0, 69, 0
2, 20593, Note_on_c, 0, 70, 33
2, 20595, Note_on_c, 0, 49, 57
2, 20613, Note_on_c, 0, 61, 55
2, 20649, Note_on_c, 0, 49, 0
2, 20651, Note_on_c, 0, 61, 0
2, 20673, Note_on_c, 0, 82, 52
2, 20688, Note_on_c, 0, 78, 52
2, 20695, Note_on_c, 0, 70, 0
2, 20748, Note_on_c, 0, 64, 56
2, 20751, Note_on_c, 0, 58, 55
2, 20751, Note_on_c, 0, 61, 55
2, 20762, Note_on_c, 0, 82, 0
2, 20782, Note_on_c, 0, 61, 0
2, 20787, Note_on_c, 0, 58, 0
2, 20787, Note_on_c, 0, 64, 0
2, 20794, Note_on_c, 0, 78, 0
2, 20813, Note_on_c, 0, 68, 45
2, 20867, Note_on_c, 0, 80, 44
2, 20874, Note_on_c, 0, 68, 0
2, 20880, Note_on_c, 0, 42, 44
2, 20886, Note_on_c, 0, 73, 33
2, 20889, Note_on_c, 0, 76, 33
2, 20915, Note_on_c, 0, 42, 0
2, 20976, Note_on_c, 0, 80, 0
2, 20998, Note_on_c, 0, 73, 0
2, 21005, Note_on_c, 0, 76, 0
2, 21012, Note_on_c, 0, 64, 36
2, 21012, Note_on_c, 0, 70, 36
2, 21020, Note_on_c, 0, 61, 44
2, 21075, Note_on_c, 0, 64, 0
2, 21085, Note_on_c, 0, 61, 0
2, 21085, Note_on_c, 0, 82, 44
2, 21088, Note_on_c, 0, 76, 44
2, 21095, Note_on_c, 0, 73, 44
2, 21129, Note_on_c, 0, 70, 0
2, 21141, Note_on_c, 0, 82, 0
2, 21155, Note_on_c, 0, 54, 50
2, 21192, Note_on_c, 0, 76, 0
2, 21199, Note_on_c, 0, 73, 0
2, 21211, Note_on_c, 0, 54, 0
2, 21216, Note_on_c, 0, 68, 60
2, 21274, Note_on_c, 0, 76, 39
2, 21277, Note_on_c, 0, 80, 39
2, 21279, Note_on_c, 0, 61, 52
2, 21279, Note_on_c, 0, 64, 39
2, 21284, Note_on_c, 0, 73, 39
2, 21301, Note_on_c, 0, 64, 0
2, 21306, Note_on_c, 0, 61, 0
2, 21323, Note_on_c, 0, 68, 0
2, 21337, Note_on_c, 0, 80, 0
2, 21337, Note_on_c, 0, 73, 0
2, 21347, Note_on_c, 0, 76, 0
2, 21408, Note_on_c, 0, 42, 52
2, 21415, Note_on_c, 0, 70, 44
2, 21415, Note_on_c, 0, 82, 44
2, 21417, Note_on_c, 0, 76, 44
2, 21422, Note_on_c, 0, 73, 44
2, 21436, Note_on_c, 0, 42, 0
2, 21512, Note_on_c, 0, 76, 0
2, 21528, Note_on_c, 0, 73, 0
2, 21538, Note_on_c, 0, 82, 0
2, 21541, Note_on_c, 0, 80, 39
2, 21541, Note_on_c, 0, 68, 39
2, 21541, Note_on_c, 0, 76, 39
2, 21543, Note_on_c, 0, 70, 0
2, 21546, Note_on_c, 0, 64, 39
2, 21546, Note_on_c, 0, 58, 39
2, 21546, Note_on_c, 0, 61, 39
2, 21553, Note_on_c, 0, 73, 39
2, 21579, Note_on_c, 0, 64, 0
2, 21579, Note_on_c, 0, 80, 0
2, 21584, Note_on_c, 0, 61, 0
2, 21584, Note_on_c, 0, 58, 0
2, 21584, Note_on_c, 0, 73, 0
2, 21600, Note_on_c, 0, 76, 0
2, 21604, Note_on_c, 0, 68, 0
2, 21679, Note_on_c, 0, 68, 44
2, 21691, Note_on_c, 0, 47, 44
2, 21730, Note_on_c, 0, 47, 0
2, 21752, Note_on_c, 0, 80, 33
2, 21757, Note_on_c, 0, 71, 33
2, 21764, Note_on_c, 0, 75, 33
2, 21805, Note_on_c, 0, 68, 0
2, 21813, Note_on_c, 0, 80, 0
2, 21817, Note_on_c, 0, 63, 52
2, 21827, Note_on_c, 0, 75, 0
2, 21827, Note_on_c, 0, 59, 52
2, 21849, Note_on_c, 0, 71, 0
2, 21851, Note_on_c, 0, 59, 0
2, 21856, Note_on_c, 0, 63, 0
2, 21895, Note_on_c, 0, 66, 44
2, 21956, Note_on_c, 0, 78, 34
2, 21967, Note_on_c, 0, 71, 37
2, 21970, Note_on_c, 0, 42, 60
2, 21970, Note_on_c, 0, 75, 37
2, 22011, Note_on_c, 0, 42, 0
2, 22033, Note_on_c, 0, 66, 0
2, 22057, Note_on_c, 0, 71, 0
2, 22074, Note_on_c, 0, 78, 0
2, 22094, Note_on_c, 0, 59, 52
2, 22094, Note_on_c, 0, 63, 52
2, 22104, Note_on_c, 0, 68, 52
2, 22108, Note_on_c, 0, 75, 0
2, 22125, Note_on_c, 0, 59, 0
2, 22132, Note_on_c, 0, 63, 0
2, 22176, Note_on_c, 0, 71, 33
2, 22181, Note_on_c, 0, 80, 33
2, 22188, Note_on_c, 0, 75, 33
2, 22237, Note_on_c, 0, 47, 52
2, 22251, Note_on_c, 0, 80, 0
2, 22256, Note_on_c, 0, 68, 0
2, 22263, Note_on_c, 0, 47, 0
2, 22302, Note_on_c, 0, 71, 0
2, 22304, Note_on_c, 0, 66, 53
2, 22321, Note_on_c, 0, 75, 0
2, 22363, Note_on_c, 0, 63, 55
2, 22363, Note_on_c, 0, 78, 39
2, 22365, Note_on_c, 0, 71, 39
2, 22370, Note_on_c, 0, 75, 39
2, 22372, Note_on_c, 0, 59, 54
2, 22392, Note_on_c, 0, 63, 0
2, 22396, Note_on_c, 0, 59, 0
2, 22409, Note_on_c, 0, 75, 0
2, 22426, Note_on_c, 0, 78, 0
2, 22431, Note_on_c, 0, 66, 0
2, 22445, Note_on_c, 0, 71, 0
2, 22496, Note_on_c, 0, 80, 44
2, 22498, Note_on_c, 0, 42, 52
2, 22501, Note_on_c, 0, 68, 44
2, 22501, Note_on_c, 0, 71, 44
2, 22520, Note_on_c, 0, 54, 52
2, 22528, Note_on_c, 0, 75, 52
2, 22539, Note_on_c, 0, 42, 0
2, 22552, Note_on_c, 0, 80, 0
2, 22561, Note_on_c, 0, 68, 0
2, 22561, Note_on_c, 0, 75, 0
2, 22574, Note_on_c, 0, 54, 0
2, 22581, Note_on_c, 0, 71, 0
2, 22627, Note_on_c, 0, 63, 46
2, 22630, Note_on_c, 0, 78, 39
2, 22632, Note_on_c, 0, 66, 39
2, 22632, Note_on_c, 0, 71, 39
2, 22639, Note_on_c, 0, 59, 49
2, 22644, Note_on_c, 0, 75, 39
2, 22668, Note_on_c, 0, 59, 0
2, 22668, Note_on_c, 0, 66, 0
2, 22671, Note_on_c, 0, 71, 0
2, 22671, Note_on_c, 0, 75, 0
2, 22685, Note_on_c, 0, 63, 0
2, 22687, Note_on_c, 0, 78, 0
2, 22765, Note_on_c, 0, 78, 86
2, 22782, Note_on_c, 0, 54, 43
2, 22838, Note_on_c, 0, 82, 83
2, 22838, Note_on_c, 0, 85, 83
2, 22848, Note_on_c, 0, 90, 81
2, 22865, Note_on_c, 0, 54, 0
2, 22896, Note_on_c, 0, 64, 73
2, 22901, Note_on_c, 0, 61, 73
2, 22903, Note_on_c, 0, 85, 0
2, 22903, Note_on_c, 0, 90, 0
2, 22903, Note_on_c, 0, 78, 0
2, 22906, Note_on_c, 0, 58, 72
2, 22916, Note_on_c, 0, 82, 0
2, 22935, Note_on_c, 0, 64, 0
2, 22935, Note_on_c, 0, 61, 0
2, 22952, Note_on_c, 0, 58, 0
2, 22986, Note_on_c, 0, 76, 59
2, 23034, Note_on_c, 0, 85, 52
2, 23034, Note_on_c, 0, 88, 44
2, 23040, Note_on_c, 0, 42, 52
2, 23049, Note_on_c, 0, 82, 44
2, 23085, Note_on_c, 0, 42, 0
2, 23092, Note_on_c, 0, 76, 0
2, 23095, Note_on_c, 0, 85, 0
2, 23105, Note_on_c, 0, 82, 0
2, 23114, Note_on_c, 0, 88, 0
2, 23170, Note_on_c, 0, 64, 44
2, 23170, Note_on_c, 0, 75, 44
2, 23221, Note_on_c, 0, 64, 0
2, 23231, Note_on_c, 0, 78, 39
2, 23235, Note_on_c, 0, 87, 39
2, 23243, Note_on_c, 0, 82, 39
2, 23310, Note_on_c, 0, 87, 0
2, 23310, Note_on_c, 0, 54, 52
2, 23320, Note_on_c, 0, 75, 0
2, 23347, Note_on_c, 0, 82, 0
2, 23374, Note_on_c, 0, 78, 0
2, 23383, Note_on_c, 0, 73, 52
2, 23393, Note_on_c, 0, 54, 0
2, 23424, Note_on_c, 0, 85, 44
2, 23429, Note_on_c, 0, 64, 44
2, 23432, Note_on_c, 0, 78, 44
2, 23434, Note_on_c, 0, 82, 44
2, 23442, Note_on_c, 0, 61, 44
2, 23461, Note_on_c, 0, 61, 0
2, 23461, Note_on_c, 0, 64, 0
2, 23468, Note_on_c, 0, 85, 0
2, 23495, Note_on_c, 0, 82, 0
2, 23495, Note_on_c, 0, 73, 0
2, 23507, Note_on_c, 0, 78, 0
2, 23560, Note_on_c, 0, 87, 44
2, 23565, Note_on_c, 0, 42, 60
2, 23568, Note_on_c, 0, 75, 44
2, 23568, Note_on_c, 0, 78, 44
2, 23570, Note_on_c, 0, 82, 44
2, 23592, Note_on_c, 0, 42, 0
2, 23621, Note_on_c, 0, 87, 0
2, 23628, Note_on_c, 0, 78, 0
2, 23628, Note_on_c, 0, 75, 0
2, 23677, Note_on_c, 0, 82, 0
2, 23687, Note_on_c, 0, 78, 39
2, 23687, Note_on_c, 0, 85, 39
2, 23693, Note_on_c, 0, 64, 39
2, 23696, Note_on_c, 0, 73, 39
2, 23703, Note_on_c, 0, 61, 39
2, 23713, Note_on_c, 0, 58, 39
2, 23747, Note_on_c, 0, 64, 0
2, 23749, Note_on_c, 0, 61, 0
2, 23754, Note_on_c, 0, 85, 0
2, 23764, Note_on_c, 0, 58, 0
2, 23764, Note_on_c, 0, 78, 0
2, 23769, Note_on_c, 0, 73, 0
2, 23849, Note_on_c, 0, 54, 44
2, 23849, Note_on_c, 0, 73, 44
2, 23909, Note_on_c, 0, 85, 39
2, 23912, Note_on_c, 0, 78, 39
2, 23963, Note_on_c, 0, 85, 0
2, 23968, Note_on_c, 0, 73, 0
2, 23973, Note_on_c, 0, 63, 72
2, 23977, Note_on_c, 0, 59, 71
2, 23984, Note_on_c, 0, 78, 0
2, 23992, Note_on_c, 0, 54, 0
2, 24021, Note_on_c, 0, 59, 0
2, 24033, Note_on_c, 0, 63, 0
2, 24045, Note_on_c, 0, 71, 60
2, 24103, Note_on_c, 0, 83, 49
2, 24113, Note_on_c, 0, 54, 82
2, 24116, Note_on_c, 0, 80, 49
2, 24122, Note_on_c, 0, 59, 81
2, 24122, Note_on_c, 0, 63, 81
2, 24132, Note_on_c, 0, 83, 0
2, 24140, Note_on_c, 0, 80, 0
2, 24152, Note_on_c, 0, 59, 0
2, 24152, Note_on_c, 0, 63, 0
2, 24168, Note_on_c, 0, 71, 0
2, 24181, Note_on_c, 0, 54, 0
2, 24241, Note_on_c, 0, 80, 49
2, 24241, Note_on_c, 0, 59, 62
2, 24241, Note_on_c, 0, 62, 62
2, 24251, Note_on_c, 0, 54, 32
2, 24259, Note_on_c, 0, 68, 49
2, 24280, Note_on_c, 0, 59, 0
2, 24297, Note_on_c, 0, 80, 0
2, 24302, Note_on_c, 0, 62, 0
2, 24307, Note_on_c, 0, 68, 0
2, 24324, Note_on_c, 0, 54, 0
2, 24380, Note_on_c, 0, 63, 52
2, 24382, Note_on_c, 0, 66, 49
2, 24382, Note_on_c, 0, 78, 49
2, 24384, Note_on_c, 0, 54, 52
2, 24392, Note_on_c, 0, 59, 52
2, 24433, Note_on_c, 0, 78, 0
2, 24457, Note_on_c, 0, 66, 0
2, 24491, Note_on_c, 0, 59, 0
2, 24494, Note_on_c, 0, 63, 0
2, 24501, Note_on_c, 0, 54, 0
2, 24523, Note_on_c, 0, 66, 32
2, 24576, Note_on_c, 0, 65, 32
2, 24591, Note_on_c, 0, 66, 0
2, 24661, Note_on_c, 0, 66, 52
2, 24673, Note_on_c, 0, 65, 0
2, 24712, Note_on_c, 0, 67, 39
2, 24731, Note_on_c, 0, 66, 0
2, 24772, Note_on_c, 0, 48, 52
2, 24777, Note_on_c, 0, 67, 0
2, 24785, Note_on_c, 0, 68, 39
2, 24790, Note_on_c, 0, 60, 52
2, 24828, Note_on_c, 0, 48, 0
2, 24831, Note_on_c, 0, 60, 0
2, 24838, Note_on_c, 0, 69, 39
2, 24850, Note_on_c, 0, 68, 0
2, 24888, Note_on_c, 0, 69, 0
2, 24901, Note_on_c, 0, 49, 52
2, 24913, Note_on_c, 0, 61, 52
2, 24923, Note_on_c, 0, 70, 39
2, 24944, Note_on_c, 0, 49, 0
2, 24952, Note_on_c, 0, 61, 0
2, 24964, Note_on_c, 0, 78, 39
2, 24984, Note_on_c, 0, 82, 39
2, 25020, Note_on_c, 0, 70, 0
2, 25030, Note_on_c, 0, 61, 52
2, 25034, Note_on_c, 0, 64, 37
2, 25036, Note_on_c, 0, 58, 52
2, 25049, Note_on_c, 0, 82, 0
2, 25068, Note_on_c, 0, 64, 0
2, 25068, Note_on_c, 0, 78, 0
2, 25068, Note_on_c, 0, 58, 0
2, 25073, Note_on_c, 0, 61, 0
2, 25117, Note_on_c, 0, 68, 38
2, 25170, Note_on_c, 0, 76, 39
2, 25170, Note_on_c, 0, 80, 39
2, 25187, Note_on_c, 0, 42, 58
2, 25211, Note_on_c, 0, 42, 0
2, 25219, Note_on_c, 0, 68, 0
2, 25250, Note_on_c, 0, 80, 0
2, 25272, Note_on_c, 0, 76, 0
2, 25303, Note_on_c, 0, 64, 39
2, 25303, Note_on_c, 0, 70, 39
2, 25306, Note_on_c, 0, 61, 52
2, 25332, Note_on_c, 0, 61, 0
2, 25367, Note_on_c, 0, 82, 39
2, 25367, Note_on_c, 0, 73, 39
2, 25367, Note_on_c, 0, 76, 39
2, 25371, Note_on_c, 0, 64, 0
2, 25432, Note_on_c, 0, 82, 0
2, 25434, Note_on_c, 0, 54, 60
2, 25451, Note_on_c, 0, 70, 0
2, 25495, Note_on_c, 0, 54, 0
2, 25497, Note_on_c, 0, 73, 0
2, 25500, Note_on_c, 0, 76, 0
2, 25510, Note_on_c, 0, 68, 52
2, 25548, Note_on_c, 0, 64, 49
2, 25551, Note_on_c, 0, 61, 49
2, 25553, Note_on_c, 0, 73, 49
2, 25556, Note_on_c, 0, 80, 49
2, 25567, Note_on_c, 0, 76, 49
2, 25584, Note_on_c, 0, 61, 0
2, 25589, Note_on_c, 0, 64, 0
2, 25602, Note_on_c, 0, 68, 0
2, 25602, Note_on_c, 0, 80, 0
2, 25607, Note_on_c, 0, 76, 0
2, 25607, Note_on_c, 0, 73, 0
2, 25680, Note_on_c, 0, 42, 52
2, 25681, Note_on_c, 0, 70, 44
2, 25681, Note_on_c, 0, 82, 44
2, 25684, Note_on_c, 0, 73, 44
2, 25684, Note_on_c, 0, 76, 44
2, 25720, Note_on_c, 0, 42, 0
2, 25737, Note_on_c, 0, 82, 0
2, 25756, Note_on_c, 0, 76, 0
2, 25769, Note_on_c, 0, 70, 0
2, 25802, Note_on_c, 0, 76, 44
2, 25812, Note_on_c, 0, 64, 44
2, 25812, Note_on_c, 0, 80, 44
2, 25815, Note_on_c, 0, 61, 52
2, 25815, Note_on_c, 0, 68, 44
2, 25822, Note_on_c, 0, 58, 52
2, 25853, Note_on_c, 0, 61, 0
2, 25853, Note_on_c, 0, 64, 0
2, 25868, Note_on_c, 0, 73, 0
2, 25873, Note_on_c, 0, 80, 0
2, 25878, Note_on_c, 0, 58, 0
2, 25880, Note_on_c, 0, 68, 0
2, 25880, Note_on_c, 0, 76, 0
2, 25948, Note_on_c, 0, 47, 53
2, 25960, Note_on_c, 0, 68, 44
2, 26016, Note_on_c, 0, 47, 0
2, 26028, Note_on_c, 0, 80, 39
2, 26028, Note_on_c, 0, 71, 39
2, 26028, Note_on_c, 0, 75, 39
2, 26084, Note_on_c, 0, 80, 0
2, 26087, Note_on_c, 0, 75, 0
2, 26091, Note_on_c, 0, 59, 52
2, 26091, Note_on_c, 0, 63, 52
2, 26093, Note_on_c, 0, 68, 0
2, 26096, Note_on_c, 0, 71, 0
2, 26128, Note_on_c, 0, 59, 0
2, 26128, Note_on_c, 0, 63, 0
2, 26161, Note_on_c, 0, 66, 52
2, 26217, Note_on_c, 0, 78, 44
2, 26232, Note_on_c, 0, 42, 60
2, 26236, Note_on_c, 0, 71, 44
2, 26236, Note_on_c, 0, 75, 44
2, 26271, Note_on_c, 0, 42, 0
2, 26290, Note_on_c, 0, 66, 0
2, 26317, Note_on_c, 0, 75, 0
2, 26319, Note_on_c, 0, 71, 0
2, 26338, Note_on_c, 0, 78, 0
2, 26353, Note_on_c, 0, 68, 44
2, 26365, Note_on_c, 0, 63, 44
2, 26373, Note_on_c, 0, 59, 44
2, 26401, Note_on_c, 0, 59, 0
2, 26406, Note_on_c, 0, 63, 0
2, 26421, Note_on_c, 0, 80, 39
2, 26425, Note_on_c, 0, 71, 39
2, 26430, Note_on_c, 0, 75, 39
2, 26489, Note_on_c, 0, 47, 60
2, 26508, Note_on_c, 0, 80, 0
2, 26513, Note_on_c, 0, 68, 0
2, 26532, Note_on_c, 0, 47, 0
2, 26564, Note_on_c, 0, 75, 0
2, 26568, Note_on_c, 0, 71, 0
2, 26568, Note_on_c, 0, 66, 52
2, 26617, Note_on_c, 0, 78, 44
2, 26619, Note_on_c, 0, 63, 52
2, 26622, Note_on_c, 0, 71, 44
2, 26624, Note_on_c, 0, 59, 52
2, 26632, Note_on_c, 0, 75, 44
2, 26656, Note_on_c, 0, 63, 0
2, 26661, Note_on_c, 0, 59, 0
2, 26678, Note_on_c, 0, 71, 0
2, 26678, Note_on_c, 0, 75, 0
2, 26683, Note_on_c, 0, 66, 0
2, 26702, Note_on_c, 0, 78, 0
2, 26756, Note_on_c, 0, 80, 44
2, 26756, Note_on_c, 0, 68, 44
2, 26756, Note_on_c, 0, 71, 44
2, 26758, Note_on_c, 0, 42, 68
2, 26762, Note_on_c, 0, 54, 68
2, 26765, Note_on_c, 0, 75, 44
2, 26787, Note_on_c, 0, 42, 0
2, 26813, Note_on_c, 0, 68, 0
2, 26816, Note_on_c, 0, 54, 0
2, 26821, Note_on_c, 0, 80, 0
2, 26826, Note_on_c, 0, 75, 0
2, 26884, Note_on_c, 0, 78, 44
2, 26891, Note_on_c, 0, 63, 78
2, 26891, Note_on_c, 0, 66, 44
2, 26896, Note_on_c, 0, 59, 77
2, 26899, Note_on_c, 0, 75, 44
2, 26925, Note_on_c, 0, 59, 0
2, 26925, Note_on_c, 0, 63, 0
2, 26937, Note_on_c, 0, 66, 0
2, 26937, Note_on_c, 0, 78, 0
2, 26942, Note_on_c, 0, 71, 0
2, 26956, Note_on_c, 0, 75, 0
2, 27032, Note_on_c, 0, 67, 44
2, 27044, Note_on_c, 0, 40, 56
2, 27047, Note_on_c, 0, 52, 57
2, 27073, Note_on_c, 0, 40, 0
2, 27083, Note_on_c, 0, 52, 0
2, 27097, Note_on_c, 0, 71, 83
2, 27102, Note_on_c, 0, 79, 82
2, 27163, Note_on_c, 0, 55, 72
2, 27168, Note_on_c, 0, 62, 71
2, 27175, Note_on_c, 0, 71, 0
2, 27177, Note_on_c, 0, 64, 70
2, 27180, Note_on_c, 0, 67, 0
2, 27182, Note_on_c, 0, 79, 0
2, 27216, Note_on_c, 0, 64, 0
2, 27221, Note_on_c, 0, 62, 0
2, 27228, Note_on_c, 0, 79, 62
2, 27231, Note_on_c, 0, 55, 0
2, 27242, Note_on_c, 0, 67, 60
2, 27284, Note_on_c, 0, 67, 0
2, 27287, Note_on_c, 0, 79, 0
2, 27301, Note_on_c, 0, 43, 52
2, 27303, Note_on_c, 0, 55, 52
2, 27308, Note_on_c, 0, 71, 44
2, 27308, Note_on_c, 0, 83, 44
2, 27347, Note_on_c, 0, 43, 0
2, 27360, Note_on_c, 0, 71, 0
2, 27361, Note_on_c, 0, 55, 0
2, 27369, Note_on_c, 0, 83, 0
2, 27425, Note_on_c, 0, 79, 44
2, 27432, Note_on_c, 0, 52, 33
2, 27432, Note_on_c, 0, 62, 33
2, 27444, Note_on_c, 0, 67, 44
2, 27446, Note_on_c, 0, 40, 37
2, 27471, Note_on_c, 0, 40, 0
2, 27471, Note_on_c, 0, 52, 0
2, 27478, Note_on_c, 0, 62, 0
2, 27490, Note_on_c, 0, 79, 0
2, 27497, Note_on_c, 0, 67, 0
2, 27558, Note_on_c, 0, 66, 44
2, 27565, Note_on_c, 0, 51, 76
2, 27570, Note_on_c, 0, 39, 76
2, 27606, Note_on_c, 0, 39, 0
2, 27619, Note_on_c, 0, 51, 0
2, 27619, Note_on_c, 0, 78, 39
2, 27630, Note_on_c, 0, 71, 39
2, 27635, Note_on_c, 0, 75, 39
2, 27684, Note_on_c, 0, 71, 0
2, 27684, Note_on_c, 0, 66, 0
2, 27686, Note_on_c, 0, 63, 38
2, 27691, Note_on_c, 0, 59, 38
2, 27696, Note_on_c, 0, 78, 0
2, 27703, Note_on_c, 0, 75, 0
2, 27725, Note_on_c, 0, 63, 0
2, 27727, Note_on_c, 0, 59, 0
2, 27730, Note_on_c, 0, 78, 52
2, 27735, Note_on_c, 0, 71, 52
2, 27744, Note_on_c, 0, 66, 52
2, 27781, Note_on_c, 0, 78, 0
2, 27786, Note_on_c, 0, 71, 0
2, 27788, Note_on_c, 0, 66, 0
2, 27795, Note_on_c, 0, 38, 81
2, 27795, Note_on_c, 0, 50, 81
2, 27803, Note_on_c, 0, 65, 49
2, 27808, Note_on_c, 0, 77, 49
2, 27846, Note_on_c, 0, 50, 0
2, 27861, Note_on_c, 0, 77, 0
2, 27861, Note_on_c, 0, 65, 0
2, 27875, Note_on_c, 0, 38, 0
2, 27929, Note_on_c, 0, 71, 44
2, 27929, Note_on_c, 0, 78, 44
2, 27934, Note_on_c, 0, 66, 44
2, 27938, Note_on_c, 0, 75, 44
2, 27943, Note_on_c, 0, 39, 67
2, 27965, Note_on_c, 0, 75, 0
2, 27982, Note_on_c, 0, 66, 0
2, 27984, Note_on_c, 0, 71, 0
2, 27992, Note_on_c, 0, 78, 0
2, 28011, Note_on_c, 0, 39, 0
2, 28062, Note_on_c, 0, 66, 67
2, 28067, Note_on_c, 0, 42, 67
2, 28104, Note_on_c, 0, 42, 0
2, 28125, Note_on_c, 0, 78, 79
2, 28147, Note_on_c, 0, 66, 0
2, 28164, Note_on_c, 0, 78, 0
2, 28196, Note_on_c, 0, 58, 56
2, 28196, Note_on_c, 0, 64, 56
2, 28200, Note_on_c, 0, 61, 33
2, 28251, Note_on_c, 0, 88, 39
2, 28256, Note_on_c, 0, 76, 39
2, 28261, Note_on_c, 0, 58, 0
2, 28263, Note_on_c, 0, 64, 0
2, 28273, Note_on_c, 0, 61, 0
2, 28295, Note_on_c, 0, 88, 0
2, 28312, Note_on_c, 0, 87, 47
2, 28314, Note_on_c, 0, 76, 0
2, 28317, Note_on_c, 0, 75, 47
2, 28321, Note_on_c, 0, 54, 55
2, 28348, Note_on_c, 0, 87, 0
2, 28360, Note_on_c, 0, 75, 0
2, 28394, Note_on_c, 0, 54, 0
2, 28442, Note_on_c, 0, 64, 44
2, 28447, Note_on_c, 0, 85, 44
2, 28450, Note_on_c, 0, 73, 44
2, 28452, Note_on_c, 0, 58, 52
2, 28452, Note_on_c, 0, 61, 52
2, 28501, Note_on_c, 0, 73, 0
2, 28503, Note_on_c, 0, 61, 0
2, 28511, Note_on_c, 0, 85, 0
2, 28513, Note_on_c, 0, 64, 0
2, 28513, Note_on_c, 0, 58, 0
2, 28595, Note_on_c, 0, 71, 46
2, 28600, Note_on_c, 0, 83, 48
2, 28600, Note_on_c, 0, 63, 32
2, 28603, Note_on_c, 0, 54, 32
2, 28603, Note_on_c, 0, 59, 32
2, 28673, Note_on_c, 0, 71, 0
2, 28714, Note_on_c, 0, 71, 52
2, 28748, Note_on_c, 0, 54, 0
2, 28748, Note_on_c, 0, 83, 0
2, 28755, Note_on_c, 0, 59, 0
2, 28760, Note_on_c, 0, 63, 0
2, 28777, Note_on_c, 0, 71, 0
2, 28784, Note_on_c, 0, 73, 52
2, 28857, Note_on_c, 0, 75, 81
2, 28865, Note_on_c, 0, 73, 0
2, 28922, Note_on_c, 0, 76, 44
2, 28976, Note_on_c, 0, 75, 0
2, 28988, Note_on_c, 0, 78, 44
2, 28993, Note_on_c, 0, 76, 0
2, 28993, Note_on_c, 0, 54, 67
2, 29000, Note_on_c, 0, 42, 67
2, 29000, Note_on_c, 0, 73, 44
2, 29003, Note_on_c, 0, 70, 44
2, 29041, Note_on_c, 0, 42, 0
2, 29049, Note_on_c, 0, 78, 0
2, 29054, Note_on_c, 0, 70, 0
2, 29056, Note_on_c, 0, 73, 0
2, 29056, Note_on_c, 0, 54, 0
2, 29121, Note_on_c, 0, 71, 44
2, 29126, Note_on_c, 0, 80, 44
2, 29129, Note_on_c, 0, 75, 44
2, 29129, Note_on_c, 0, 35, 67
2, 29129, Note_on_c, 0, 47, 67
2, 29172, Note_on_c, 0, 35, 0
2, 29180, Note_on_c, 0, 47, 0
2, 29180, Note_on_c, 0, 78, 34
2, 29197, Note_on_c, 0, 75, 0
2, 29204, Note_on_c, 0, 80, 0
2, 29255, Note_on_c, 0, 59, 52
2, 29255, Note_on_c, 0, 63, 52
2, 29267, Note_on_c, 0, 78, 0
2, 29284, Note_on_c, 0, 59, 0
2, 29291, Note_on_c, 0, 63, 0
2, 29301, Note_on_c, 0, 71, 0
2, 29320, Note_on_c, 0, 76, 52
2, 29388, Note_on_c, 0, 75, 44
2, 29400, Note_on_c, 0, 76, 0
2, 29400, Note_on_c, 0, 42, 52
2, 29444, Note_on_c, 0, 42, 0
2, 29461, Note_on_c, 0, 74, 52
2, 29466, Note_on_c, 0, 75, 0
2, 29520, Note_on_c, 0, 75, 39
2, 29529, Note_on_c, 0, 59, 52
2, 29529, Note_on_c, 0, 63, 52
2, 29531, Note_on_c, 0, 74, 0
2, 29536, Note_on_c, 0, 54, 52
2, 29558, Note_on_c, 0, 63, 0
2, 29572, Note_on_c, 0, 59, 0
2, 29575, Note_on_c, 0, 54, 0
2, 29596, Note_on_c, 0, 73, 52
2, 29601, Note_on_c, 0, 75, 0
2, 29669, Note_on_c, 0, 73, 0
2, 29669, Note_on_c, 0, 35, 52
2, 29669, Note_on_c, 0, 71, 44
2, 29711, Note_on_c, 0, 35, 0
2, 29728, Note_on_c, 0, 71, 0
2, 29739, Note_on_c, 0, 73, 39
2, 29798, Note_on_c, 0, 73, 0
2, 29803, Note_on_c, 0, 63, 52
2, 29805, Note_on_c, 0, 75, 36
2, 29812, Note_on_c, 0, 59, 52
2, 29846, Note_on_c, 0, 63, 0
2, 29856, Note_on_c, 0, 59, 0
2, 29866, Note_on_c, 0, 78, 49
2, 29922, Note_on_c, 0, 42, 52
2, 29931, Note_on_c, 0, 75, 0
2, 29958, Note_on_c, 0, 78, 0
2, 29975, Note_on_c, 0, 42, 0
2, 30006, Note_on_c, 0, 83, 52
2, 30072, Note_on_c, 0, 87, 53
2, 30076, Note_on_c, 0, 75, 53
2, 30081, Note_on_c, 0, 63, 77
2, 30086, Note_on_c, 0, 59, 76
2, 30096, Note_on_c, 0, 83, 0
2, 30111, Note_on_c, 0, 59, 0
2, 30113, Note_on_c, 0, 87, 0
2, 30113, Note_on_c, 0, 63, 0
2, 30132, Note_on_c, 0, 75, 0
2, 30208, Note_on_c, 0, 71, 44
2, 30208, Note_on_c, 0, 75, 44
2, 30210, Note_on_c, 0, 80, 44
2, 30217, Note_on_c, 0, 47, 72
2, 30256, Note_on_c, 0, 47, 0
2, 30285, Note_on_c, 0, 78, 61
2, 30290, Note_on_c, 0, 80, 0
2, 30290, Note_on_c, 0, 75, 0
2, 30305, Note_on_c, 0, 71, 0
2, 30338, Note_on_c, 0, 59, 52
2, 30338, Note_on_c, 0, 63, 52
2, 30380, Note_on_c, 0, 59, 0
2, 30382, Note_on_c, 0, 63, 0
2, 30392, Note_on_c, 0, 78, 0
2, 30413, Note_on_c, 0, 76, 52
2, 30474, Note_on_c, 0, 42, 52
2, 30477, Note_on_c, 0, 75, 44
2, 30489, Note_on_c, 0, 76, 0
2, 30504, Note_on_c, 0, 42, 0
2, 30542, Note_on_c, 0, 75, 0
2, 30552, Note_on_c, 0, 74, 52
2, 30605, Note_on_c, 0, 63, 52
2, 30607, Note_on_c, 0, 74, 0
2, 30615, Note_on_c, 0, 59, 52
2, 30617, Note_on_c, 0, 75, 39
2, 30644, Note_on_c, 0, 63, 0
2, 30653, Note_on_c, 0, 59, 0
2, 30688, Note_on_c, 0, 76, 39
2, 30690, Note_on_c, 0, 75, 0
2, 30748, Note_on_c, 0, 76, 0
2, 30758, Note_on_c, 0, 47, 52
2, 30760, Note_on_c, 0, 75, 44
2, 30760, Note_on_c, 0, 78, 44
2, 30867, Note_on_c, 0, 78, 0
2, 30872, Note_on_c, 0, 75, 0
2, 30887, Note_on_c, 0, 78, 55
2, 30896, Note_on_c, 0, 75, 44
2, 30898, Note_on_c, 0, 51, 58
2, 30903, Note_on_c, 0, 47, 0
2, 30944, Note_on_c, 0, 71, 56
2, 30961, Note_on_c, 0, 78, 0
2, 30961, Note_on_c, 0, 75, 0
2, 30998, Note_on_c, 0, 51, 0
2, 31010, Note_on_c, 0, 71, 0
2, 31017, Note_on_c, 0, 78, 44
2, 31022, Note_on_c, 0, 75, 44
2, 31025, Note_on_c, 0, 54, 78
2, 31085, Note_on_c, 0, 71, 69
2, 31087, Note_on_c, 0, 78, 0
2, 31102, Note_on_c, 0, 75, 0
2, 31136, Note_on_c, 0, 71, 0
2, 31138, Note_on_c, 0, 78, 53
2, 31146, Note_on_c, 0, 57, 82
2, 31148, Note_on_c, 0, 54, 0
2, 31148, Note_on_c, 0, 75, 56
2, 31206, Note_on_c, 0, 75, 0
2, 31206, Note_on_c, 0, 78, 0
2, 31272, Note_on_c, 0, 57, 0
2, 31279, Note_on_c, 0, 56, 69
2, 31281, Note_on_c, 0, 71, 53
2, 31284, Note_on_c, 0, 44, 68
2, 31352, Note_on_c, 0, 76, 39
2, 31352, Note_on_c, 0, 83, 39
2, 31432, Note_on_c, 0, 71, 0
2, 31446, Note_on_c, 0, 59, 52
2, 31449, Note_on_c, 0, 68, 52
2, 31454, Note_on_c, 0, 56, 0
2, 31454, Note_on_c, 0, 64, 52
2, 31459, Note_on_c, 0, 44, 0
2, 31478, Note_on_c, 0, 68, 0
2, 31480, Note_on_c, 0, 59, 0
2, 31490, Note_on_c, 0, 64, 0
2, 31497, Note_on_c, 0, 76, 0
2, 31519, Note_on_c, 0, 71, 39
2, 31526, Note_on_c, 0, 83, 0
2, 31560, Note_on_c, 0, 43, 60
2, 31577, Note_on_c, 0, 76, 44
2, 31580, Note_on_c, 0, 71, 0
2, 31580, Note_on_c, 0, 83, 44
2, 31582, Note_on_c, 0, 55, 60
2, 31674, Note_on_c, 0, 83, 0
2, 31684, Note_on_c, 0, 76, 0
2, 31701, Note_on_c, 0, 43, 0
2, 31701, Note_on_c, 0, 64, 70
2, 31713, Note_on_c, 0, 71, 68
2, 31723, Note_on_c, 0, 55, 0
2, 31745, Note_on_c, 0, 71, 0
2, 31754, Note_on_c, 0, 64, 0
2, 31781, Note_on_c, 0, 83, 44
2, 31791, Note_on_c, 0, 71, 44
2, 31844, Note_on_c, 0, 71, 0
2, 31858, Note_on_c, 0, 54, 75
2, 31885, Note_on_c, 0, 83, 0
2, 31907, Note_on_c, 0, 87, 39
2, 31968, Note_on_c, 0, 63, 52
2, 31972, Note_on_c, 0, 83, 48
2, 31975, Note_on_c, 0, 59, 52
2, 31990, Note_on_c, 0, 54, 0
2, 31999, Note_on_c, 0, 59, 0
2, 32004, Note_on_c, 0, 87, 0
2, 32004, Note_on_c, 0, 63, 0
2, 32050, Note_on_c, 0, 75, 52
2, 32057, Note_on_c, 0, 83, 0
2, 32088, Note_on_c, 0, 75, 0
2, 32106, Note_on_c, 0, 78, 58
2, 32108, Note_on_c, 0, 39, 58
2, 32111, Note_on_c, 0, 51, 58
2, 32185, Note_on_c, 0, 77, 76
2, 32190, Note_on_c, 0, 78, 0
2, 32234, Note_on_c, 0, 39, 0
2, 32239, Note_on_c, 0, 51, 0
2, 32249, Note_on_c, 0, 78, 67
2, 32251, Note_on_c, 0, 77, 0
2, 32251, Note_on_c, 0, 50, 67
2, 32256, Note_on_c, 0, 38, 67
2, 32317, Note_on_c, 0, 80, 67
2, 32328, Note_on_c, 0, 78, 0
2, 32373, Note_on_c, 0, 80, 0
2, 32382, Note_on_c, 0, 49, 67
2, 32384, Note_on_c, 0, 38, 0
2, 32384, Note_on_c, 0, 37, 67
2, 32387, Note_on_c, 0, 50, 0
2, 32387, Note_on_c, 0, 82, 53
2, 32465, Note_on_c, 0, 73, 77
2, 32467, Note_on_c, 0, 82, 0
2, 32516, Note_on_c, 0, 49, 0
2, 32516, Note_on_c, 0, 37, 0
2, 32522, Note_on_c, 0, 61, 35
2, 32530, Note_on_c, 0, 66, 67
2, 32549, Note_on_c, 0, 73, 0
2, 32552, Note_on_c, 0, 61, 0
2, 32554, Note_on_c, 0, 66, 0
2, 32588, Note_on_c, 0, 82, 58
2, 32644, Note_on_c, 0, 37, 52
2, 32646, Note_on_c, 0, 82, 0
2, 32654, Note_on_c, 0, 71, 44
2, 32659, Note_on_c, 0, 80, 44
2, 32665, Note_on_c, 0, 77, 44
2, 32702, Note_on_c, 0, 77, 0
2, 32719, Note_on_c, 0, 71, 0
2, 32756, Note_on_c, 0, 80, 0
2, 32784, Note_on_c, 0, 65, 44
2, 32787, Note_on_c, 0, 37, 0
2, 32787, Note_on_c, 0, 82, 44
2, 32792, Note_on_c, 0, 61, 44
2, 32823, Note_on_c, 0, 65, 0
2, 32826, Note_on_c, 0, 82, 0
2, 32833, Note_on_c, 0, 61, 0
2, 32862, Note_on_c, 0, 70, 44
2, 32862, Note_on_c, 0, 78, 44
2, 32913, Note_on_c, 0, 42, 52
2, 32947, Note_on_c, 0, 78, 0
2, 32964, Note_on_c, 0, 42, 0
2, 32986, Note_on_c, 0, 70, 0
2, 33056, Note_on_c, 0, 70, 44
2, 33061, Note_on_c, 0, 52, 44
2, 33124, Note_on_c, 0, 71, 39
2, 33175, Note_on_c, 0, 70, 0
2, 33180, Note_on_c, 0, 71, 0
2, 33187, Note_on_c, 0, 52, 0
2, 33192, Note_on_c, 0, 49, 52
2, 33192, Note_on_c, 0, 73, 44
2, 33250, Note_on_c, 0, 75, 44
2, 33267, Note_on_c, 0, 73, 0
2, 33308, Note_on_c, 0, 75, 0
2, 33313, Note_on_c, 0, 46, 52
2, 33318, Note_on_c, 0, 76, 44
2, 33325, Note_on_c, 0, 49, 0
2, 33385, Note_on_c, 0, 76, 0
2, 33385, Note_on_c, 0, 78, 44
2, 33454, Note_on_c, 0, 71, 47
2, 33454, Note_on_c, 0, 80, 47
2, 33458, Note_on_c, 0, 75, 48
2, 33461, Note_on_c, 0, 78, 0
2, 33466, Note_on_c, 0, 35, 60
2, 33476, Note_on_c, 0, 46, 0
2, 33485, Note_on_c, 0, 35, 0
2, 33500, Note_on_c, 0, 75, 0
2, 33519, Note_on_c, 0, 80, 0
2, 33519, Note_on_c, 0, 78, 59
2, 33587, Note_on_c, 0, 59, 52
2, 33587, Note_on_c, 0, 63, 52
2, 33624, Note_on_c, 0, 78, 0
2, 33624, Note_on_c, 0, 71, 0
2, 33628, Note_on_c, 0, 59, 0
2, 33638, Note_on_c, 0, 63, 0
2, 33662, Note_on_c, 0, 76, 52
2, 33727, Note_on_c, 0, 42, 52
2, 33730, Note_on_c, 0, 75, 39
2, 33732, Note_on_c, 0, 76, 0
2, 33781, Note_on_c, 0, 42, 0
2, 33803, Note_on_c, 0, 74, 52
2, 33810, Note_on_c, 0, 75, 0
2, 33865, Note_on_c, 0, 74, 0
2, 33865, Note_on_c, 0, 75, 52
2, 33878, Note_on_c, 0, 59, 52
2, 33880, Note_on_c, 0, 63, 52
2, 33912, Note_on_c, 0, 59, 0
2, 33936, Note_on_c, 0, 63, 0
2, 33936, Note_on_c, 0, 75, 0
2, 33938, Note_on_c, 0, 73, 52
2, 33989, Note_on_c, 0, 73, 0
2, 34002, Note_on_c, 0, 71, 44
2, 34008, Note_on_c, 0, 47, 52
2, 34050, Note_on_c, 0, 47, 0
2, 34077, Note_on_c, 0, 73, 52
2, 34086, Note_on_c, 0, 71, 0
2, 34140, Note_on_c, 0, 73, 0
2, 34145, Note_on_c, 0, 63, 52
2, 34150, Note_on_c, 0, 59, 52
2, 34152, Note_on_c, 0, 75, 39
2, 34169, Note_on_c, 0, 63, 0
2, 34178, Note_on_c, 0, 59, 0
2, 34212, Note_on_c, 0, 78, 47
2, 34248, Note_on_c, 0, 75, 0
2, 34271, Note_on_c, 0, 78, 0
2, 34285, Note_on_c, 0, 42, 52
2, 34321, Note_on_c, 0, 42, 0
2, 34345, Note_on_c, 0, 83, 52
2, 34406, Note_on_c, 0, 63, 53
2, 34411, Note_on_c, 0, 87, 53
2, 34421, Note_on_c, 0, 75, 53
2, 34421, Note_on_c, 0, 78, 53
2, 34421, Note_on_c, 0, 59, 53
2, 34440, Note_on_c, 0, 87, 0
2, 34440, Note_on_c, 0, 83, 0
2, 34455, Note_on_c, 0, 59, 0
2, 34457, Note_on_c, 0, 78, 0
2, 34457, Note_on_c, 0, 63, 0
2, 34462, Note_on_c, 0, 75, 0
2, 34554, Note_on_c, 0, 71, 53
2, 34554, Note_on_c, 0, 80, 53
2, 34569, Note_on_c, 0, 75, 53
2, 34579, Note_on_c, 0, 47, 67
2, 34600, Note_on_c, 0, 47, 0
2, 34620, Note_on_c, 0, 80, 0
2, 34622, Note_on_c, 0, 78, 83
2, 34625, Note_on_c, 0, 75, 0
2, 34692, Note_on_c, 0, 59, 72
2, 34697, Note_on_c, 0, 63, 71
2, 34700, Note_on_c, 0, 71, 0
2, 34727, Note_on_c, 0, 59, 0
2, 34733, Note_on_c, 0, 63, 0
2, 34741, Note_on_c, 0, 78, 0
2, 34755, Note_on_c, 0, 76, 62
2, 34830, Note_on_c, 0, 42, 52
2, 34833, Note_on_c, 0, 75, 44
2, 34845, Note_on_c, 0, 76, 0
2, 34852, Note_on_c, 0, 42, 0
2, 34901, Note_on_c, 0, 75, 0
2, 34903, Note_on_c, 0, 74, 44
2, 34932, Note_on_c, 0, 74, 0
2, 34964, Note_on_c, 0, 75, 44
2, 34967, Note_on_c, 0, 63, 44
2, 34971, Note_on_c, 0, 59, 44
2, 35003, Note_on_c, 0, 63, 0
2, 35005, Note_on_c, 0, 59, 0
2, 35029, Note_on_c, 0, 75, 0
2, 35034, Note_on_c, 0, 76, 44
2, 35097, Note_on_c, 0, 76, 0
2, 35102, Note_on_c, 0, 47, 52
2, 35102, Note_on_c, 0, 75, 44
2, 35110, Note_on_c, 0, 78, 44
2, 35218, Note_on_c, 0, 78, 0
2, 35238, Note_on_c, 0, 78, 44
2, 35243, Note_on_c, 0, 47, 0
2, 35250, Note_on_c, 0, 59, 52
2, 35250, Note_on_c, 0, 63, 52
2, 35284, Note_on_c, 0, 63, 0
2, 35284, Note_on_c, 0, 59, 0
2, 35301, Note_on_c, 0, 78, 0
2, 35301, Note_on_c, 0, 75, 0
2, 35304, Note_on_c, 0, 71, 55
2, 35350, Note_on_c, 0, 71, 0
2, 35371, Note_on_c, 0, 75, 44
2, 35371, Note_on_c, 0, 78, 44
2, 35381, Note_on_c, 0, 51, 68
2, 35432, Note_on_c, 0, 78, 0
2, 35434, Note_on_c, 0, 71, 69
2, 35458, Note_on_c, 0, 75, 0
2, 35495, Note_on_c, 0, 78, 49
2, 35497, Note_on_c, 0, 71, 0
2, 35499, Note_on_c, 0, 57, 84
2, 35504, Note_on_c, 0, 75, 49
2, 35509, Note_on_c, 0, 54, 49
2, 35521, Note_on_c, 0, 51, 0
2, 35550, Note_on_c, 0, 54, 0
2, 35550, Note_on_c, 0, 57, 0
2, 35631, Note_on_c, 0, 56, 69
2, 35636, Note_on_c, 0, 71, 71
2, 35638, Note_on_c, 0, 78, 0
2, 35638, Note_on_c, 0, 75, 0
2, 35640, Note_on_c, 0, 44, 72
2, 35706, Note_on_c, 0, 71, 0
2, 35711, Note_on_c, 0, 83, 75
2, 35715, Note_on_c, 0, 76, 75
2, 35715, Note_on_c, 0, 80, 75
2, 35764, Note_on_c, 0, 44, 0
2, 35776, Note_on_c, 0, 56, 0
2, 35781, Note_on_c, 0, 64, 79
2, 35784, Note_on_c, 0, 80, 0
2, 35788, Note_on_c, 0, 59, 78
2, 35793, Note_on_c, 0, 68, 77
2, 35800, Note_on_c, 0, 83, 0
2, 35805, Note_on_c, 0, 76, 0
2, 35820, Note_on_c, 0, 68, 0
2, 35825, Note_on_c, 0, 64, 0
2, 35825, Note_on_c, 0, 59, 0
2, 35861, Note_on_c, 0, 71, 53
2, 35912, Note_on_c, 0, 71, 0
2, 35914, Note_on_c, 0, 83, 49
2, 35924, Note_on_c, 0, 55, 71
2, 35927, Note_on_c, 0, 43, 71
2, 35928, Note_on_c, 0, 76, 49
2, 36006, Note_on_c, 0, 76, 0
2, 36025, Note_on_c, 0, 83, 0
2, 36043, Note_on_c, 0, 64, 49
2, 36045, Note_on_c, 0, 43, 0
2, 36045, Note_on_c, 0, 55, 0
2, 36048, Note_on_c, 0, 59, 49
2, 36050, Note_on_c, 0, 71, 49
2, 36086, Note_on_c, 0, 59, 0
2, 36091, Note_on_c, 0, 64, 0
2, 36120, Note_on_c, 0, 83, 44
2, 36130, Note_on_c, 0, 75, 44
2, 36186, Note_on_c, 0, 75, 0
2, 36186, Note_on_c, 0, 42, 52
2, 36195, Note_on_c, 0, 54, 52
2, 36208, Note_on_c, 0, 71, 0
2, 36224, Note_on_c, 0, 83, 0
2, 36259, Note_on_c, 0, 87, 49
2, 36319, Note_on_c, 0, 42, 0
2, 36324, Note_on_c, 0, 54, 0
2, 36329, Note_on_c, 0, 83, 49
2, 36329, Note_on_c, 0, 59, 52
2, 36329, Note_on_c, 0, 63, 52
2, 36348, Note_on_c, 0, 87, 0
2, 36358, Note_on_c, 0, 59, 0
2, 36362, Note_on_c, 0, 63, 0
2, 36402, Note_on_c, 0, 75, 52
2, 36416, Note_on_c, 0, 83, 0
2, 36450, Note_on_c, 0, 75, 0
2, 36464, Note_on_c, 0, 42, 52
2, 36469, Note_on_c, 0, 54, 52
2, 36484, Note_on_c, 0, 78, 44
2, 36542, Note_on_c, 0, 78, 0
2, 36542, Note_on_c, 0, 71, 52
2, 36591, Note_on_c, 0, 42, 0
2, 36593, Note_on_c, 0, 54, 0
2, 36600, Note_on_c, 0, 71, 0
2, 36602, Note_on_c, 0, 59, 52
2, 36607, Note_on_c, 0, 63, 52
2, 36612, Note_on_c, 0, 75, 44
2, 36642, Note_on_c, 0, 63, 0
2, 36644, Note_on_c, 0, 59, 0
2, 36666, Note_on_c, 0, 78, 44
2, 36683, Note_on_c, 0, 75, 0
2, 36712, Note_on_c, 0, 78, 0
2, 36745, Note_on_c, 0, 56, 61
2, 36748, Note_on_c, 0, 71, 44
2, 36755, Note_on_c, 0, 65, 44
2, 36758, Note_on_c, 0, 44, 65
2, 36860, Note_on_c, 0, 44, 0
2, 36864, Note_on_c, 0, 56, 0
2, 36872, Note_on_c, 0, 43, 72
2, 36879, Note_on_c, 0, 55, 71
2, 36879, Note_on_c, 0, 64, 71
2, 36928, Note_on_c, 0, 65, 0
2, 36952, Note_on_c, 0, 55, 0
2, 36957, Note_on_c, 0, 43, 0
2, 36988, Note_on_c, 0, 71, 0
2, 37015, Note_on_c, 0, 42, 60
2, 37027, Note_on_c, 0, 54, 60
2, 37049, Note_on_c, 0, 64, 0
2, 37080, Note_on_c, 0, 42, 0
2, 37087, Note_on_c, 0, 75, 44
2, 37092, Note_on_c, 0, 54, 0
2, 37151, Note_on_c, 0, 54, 52
2, 37153, Note_on_c, 0, 58, 52
2, 37155, Note_on_c, 0, 73, 44
2, 37160, Note_on_c, 0, 64, 44
2, 37168, Note_on_c, 0, 75, 0
2, 37194, Note_on_c, 0, 64, 0
2, 37197, Note_on_c, 0, 54, 0
2, 37200, Note_on_c, 0, 73, 0
2, 37206, Note_on_c, 0, 58, 0
2, 37296, Note_on_c, 0, 63, 83
2, 37301, Note_on_c, 0, 59, 84
2, 37303, Note_on_c, 0, 71, 84
2, 37449, Note_on_c, 0, 54, 84
2, 37560, Note_on_c, 0, 54, 0
2, 37565, Note_on_c, 0, 71, 0
2, 37587, Note_on_c, 0, 35, 84
2, 37587, Note_on_c, 0, 47, 84
2, 37589, Note_on_c, 0, 71, 49
2, 37589, Note_on_c, 0, 78, 49
2, 37592, Note_on_c, 0, 75, 49
2, 37592, Note_on_c, 0, 83, 49
2, 37613, Note_on_c, 0, 59, 0
2, 37613, Note_on_c, 0, 63, 0
2, 37643, Note_on_c, 0, 35, 0
2, 37645, Note_on_c, 0, 47, 0
2, 37648, Note_on_c, 0, 71, 0
2, 37648, Note_on_c, 0, 83, 0
2, 37648, Note_on_c, 0, 78, 0
2, 37653, Note_on_c, 0, 75, 0
2, 38516, Note_on_c, 0, 52, 75
2, 38516, Note_on_c, 0, 64, 75
2, 38547, Note_on_c, 0, 64, 0
2, 38547, Note_on_c, 0, 52, 0
2, 38600, Note_on_c, 0, 25, 32
2, 38615, Note_on_c, 0, 25, 0
2, 38632, Note_on_c, 0, 25, 38
2, 38654, Note_on_c, 0, 61, 57
2, 38654, Note_on_c, 0, 73, 57
2, 38712, Note_on_c, 0, 25, 0
2, 38845, Note_on_c, 0, 59, 67
2, 38857, Note_on_c, 0, 71, 67
2, 38867, Note_on_c, 0, 61, 0
2, 38896, Note_on_c, 0, 73, 0
2, 38910, Note_on_c, 0, 57, 67
2, 38915, Note_on_c, 0, 69, 67
2, 38940, Note_on_c, 0, 71, 0
2, 38942, Note_on_c, 0, 59, 0
2, 38956, Note_on_c, 0, 69, 0
2, 38959, Note_on_c, 0, 57, 0
2, 38978, Note_on_c, 0, 68, 67
2, 38981, Note_on_c, 0, 56, 67
2, 39024, Note_on_c, 0, 68, 0
2, 39027, Note_on_c, 0, 56, 0
2, 39039, Note_on_c, 0, 25, 32
2, 39051, Note_on_c, 0, 54, 32
2, 39056, Note_on_c, 0, 66, 57
2, 39088, Note_on_c, 0, 54, 0
2, 39088, Note_on_c, 0, 25, 0
2, 39104, Note_on_c, 0, 66, 0
2, 39112, Note_on_c, 0, 64, 52
2, 39114, Note_on_c, 0, 52, 52
2, 39196, Note_on_c, 0, 52, 0
2, 39221, Note_on_c, 0, 64, 0
2, 39242, Note_on_c, 0, 62, 52
2, 39250, Note_on_c, 0, 50, 52
2, 39288, Note_on_c, 0, 50, 0
2, 39293, Note_on_c, 0, 62, 0
2, 39315, Note_on_c, 0, 49, 57
2, 39315, Note_on_c, 0, 61, 57
2, 39328, Note_on_c, 0, 25, 57
2, 39342, Note_on_c, 0, 25, 0
2, 39364, Note_on_c, 0, 25, 32
2, 39379, Note_on_c, 0, 25, 0
2, 39420, Note_on_c, 0, 49, 0
2, 39439, Note_on_c, 0, 47, 67
2, 39451, Note_on_c, 0, 59, 67
2, 39454, Note_on_c, 0, 61, 0
2, 39490, Note_on_c, 0, 59, 0
2, 39497, Note_on_c, 0, 47, 0
2, 39497, Note_on_c, 0, 45, 67
2, 39517, Note_on_c, 0, 57, 67
2, 39546, Note_on_c, 0, 57, 0
2, 39551, Note_on_c, 0, 45, 0
2, 39577, Note_on_c, 0, 44, 57
2, 39577, Note_on_c, 0, 56, 57
2, 39584, Note_on_c, 0, 25, 57
2, 39597, Note_on_c, 0, 25, 0
2, 39619, Note_on_c, 0, 25, 52
2, 39625, Note_on_c, 0, 56, 0
2, 39638, Note_on_c, 0, 25, 0
2, 39640, Note_on_c, 0, 45, 52
2, 39645, Note_on_c, 0, 44, 0
2, 39652, Note_on_c, 0, 57, 52
2, 39689, Note_on_c, 0, 57, 0
2, 39703, Note_on_c, 0, 47, 52
2, 39713, Note_on_c, 0, 59, 52
2, 39720, Note_on_c, 0, 45, 0
2, 39752, Note_on_c, 0, 47, 0
2, 39778, Note_on_c, 0, 61, 52
2, 39781, Note_on_c, 0, 49, 52
2, 39788, Note_on_c, 0, 59, 0
2, 39810, Note_on_c, 0, 49, 0
2, 39817, Note_on_c, 0, 61, 0
2, 39832, Note_on_c, 0, 40, 44
2, 39834, Note_on_c, 0, 62, 44
2, 39834, Note_on_c, 0, 52, 44
2, 39868, Note_on_c, 0, 40, 0
2, 39875, Note_on_c, 0, 52, 0
2, 39885, Note_on_c, 0, 62, 0
2, 39895, Note_on_c, 0, 64, 49
2, 39902, Note_on_c, 0, 38, 49
2, 39902, Note_on_c, 0, 50, 49
2, 39938, Note_on_c, 0, 50, 0
2, 39943, Note_on_c, 0, 38, 0
2, 39951, Note_on_c, 0, 64, 0
2, 39953, Note_on_c, 0, 49, 80
2, 39960, Note_on_c, 0, 37, 79
2, 39965, Note_on_c, 0, 66, 58
2, 39989, Note_on_c, 0, 37, 0
2, 39989, Note_on_c, 0, 49, 0
2, 40016, Note_on_c, 0, 68, 70
2, 40021, Note_on_c, 0, 47, 69
2, 40023, Note_on_c, 0, 66, 0
2, 40031, Note_on_c, 0, 35, 54
2, 40057, Note_on_c, 0, 35, 0
2, 40057, Note_on_c, 0, 47, 0
2, 40064, Note_on_c, 0, 68, 0
2, 40081, Note_on_c, 0, 45, 62
2, 40089, Note_on_c, 0, 33, 57
2, 40089, Note_on_c, 0, 69, 57
2, 40096, Note_on_c, 0, 25, 57
2, 40110, Note_on_c, 0, 25, 0
2, 40132, Note_on_c, 0, 45, 0
2, 40132, Note_on_c, 0, 25, 52
2, 40140, Note_on_c, 0, 69, 0
2, 40174, Note_on_c, 0, 33, 0
2, 40191, Note_on_c, 0, 25, 0
2, 40227, Note_on_c, 0, 61, 34
2, 40227, Note_on_c, 0, 64, 34
2, 40229, Note_on_c, 0, 57, 34
2, 40266, Note_on_c, 0, 57, 0
2, 40268, Note_on_c, 0, 61, 0
2, 40273, Note_on_c, 0, 64, 0
2, 40370, Note_on_c, 0, 40, 47
2, 40382, Note_on_c, 0, 28, 45
2, 40406, Note_on_c, 0, 40, 0
2, 40411, Note_on_c, 0, 28, 0
2, 40511, Note_on_c, 0, 57, 44
2, 40511, Note_on_c, 0, 64, 44
2, 40513, Note_on_c, 0, 61, 44
2, 40544, Note_on_c, 0, 61, 0
2, 40544, Note_on_c, 0, 57, 0
2, 40564, Note_on_c, 0, 64, 0
2, 40639, Note_on_c, 0, 33, 39
2, 40649, Note_on_c, 0, 45, 41
2, 40651, Note_on_c, 0, 69, 44
2, 40651, Note_on_c, 0, 73, 44
2, 40678, Note_on_c, 0, 73, 0
2, 40678, Note_on_c, 0, 69, 0
2, 40678, Note_on_c, 0, 33, 0
2, 40690, Note_on_c, 0, 45, 0
2, 40782, Note_on_c, 0, 57, 44
2, 40789, Note_on_c, 0, 61, 44
2, 40789, Note_on_c, 0, 73, 39
2, 40792, Note_on_c, 0, 52, 44
2, 40800, Note_on_c, 0, 69, 39
2, 40821, Note_on_c, 0, 61, 0
2, 40821, Note_on_c, 0, 57, 0
2, 40828, Note_on_c, 0, 52, 0
2, 40922, Note_on_c, 0, 40, 44
2, 40930, Note_on_c, 0, 28, 44
2, 40957, Note_on_c, 0, 40, 0
2, 40962, Note_on_c, 0, 28, 0
2, 40967, Note_on_c, 0, 73, 0
2, 40967, Note_on_c, 0, 69, 0
2, 41044, Note_on_c, 0, 73, 39
2, 41051, Note_on_c, 0, 76, 39
2, 41051, Note_on_c, 0, 57, 39
2, 41051, Note_on_c, 0, 61, 39
2, 41054, Note_on_c, 0, 52, 39
2, 41075, Note_on_c, 0, 73, 0
2, 41078, Note_on_c, 0, 52, 0
2, 41085, Note_on_c, 0, 61, 0
2, 41090, Note_on_c, 0, 76, 0
2, 41097, Note_on_c, 0, 57, 0
2, 41184, Note_on_c, 0, 33, 52
2, 41184, Note_on_c, 0, 45, 52
2, 41189, Note_on_c, 0, 78, 53
2, 41197, Note_on_c, 0, 72, 55
2, 41238, Note_on_c, 0, 45, 0
2, 41245, Note_on_c, 0, 33, 0
2, 41253, Note_on_c, 0, 78, 0
2, 41257, Note_on_c, 0, 72, 0
2, 41257, Note_on_c, 0, 76, 49
2, 41257, Note_on_c, 0, 73, 49
2, 41308, Note_on_c, 0, 52, 52
2, 41313, Note_on_c, 0, 73, 0
2, 41313, Note_on_c, 0, 57, 52
2, 41313, Note_on_c, 0, 61, 52
2, 41323, Note_on_c, 0, 76, 0
2, 41342, Note_on_c, 0, 57, 0
2, 41347, Note_on_c, 0, 61, 0
2, 41354, Note_on_c, 0, 52, 0
2, 41388, Note_on_c, 0, 78, 52
2, 41398, Note_on_c, 0, 72, 52
2, 41434, Note_on_c, 0, 45, 59
2, 41434, Note_on_c, 0, 76, 44
2, 41437, Note_on_c, 0, 78, 0
2, 41439, Note_on_c, 0, 72, 0
2, 41442, Note_on_c, 0, 33, 58
2, 41448, Note_on_c, 0, 73, 44
2, 41480, Note_on_c, 0, 33, 0
2, 41485, Note_on_c, 0, 45, 0
2, 41493, Note_on_c, 0, 76, 0
2, 41499, Note_on_c, 0, 73, 0
2, 41502, Note_on_c, 0, 78, 45
2, 41520, Note_on_c, 0, 72, 50
2, 41565, Note_on_c, 0, 76, 44
2, 41572, Note_on_c, 0, 73, 44
2, 41575, Note_on_c, 0, 61, 55
2, 41577, Note_on_c, 0, 52, 55
2, 41580, Note_on_c, 0, 57, 54
2, 41594, Note_on_c, 0, 78, 0
2, 41596, Note_on_c, 0, 72, 0
2, 41609, Note_on_c, 0, 61, 0
2, 41609, Note_on_c, 0, 76, 0
2, 41611, Note_on_c, 0, 57, 0
2, 41616, Note_on_c, 0, 52, 0
2, 41621, Note_on_c, 0, 73, 0
2, 41693, Note_on_c, 0, 38, 52
2, 41701, Note_on_c, 0, 77, 49
2, 41701, Note_on_c, 0, 83, 49
2, 41703, Note_on_c, 0, 50, 52
2, 41733, Note_on_c, 0, 38, 0
2, 41752, Note_on_c, 0, 50, 0
2, 41760, Note_on_c, 0, 77, 0
2, 41761, Note_on_c, 0, 83, 0
2, 41779, Note_on_c, 0, 78, 39
2, 41779, Note_on_c, 0, 81, 39
2, 41785, Note_on_c, 0, 74, 39
2, 41825, Note_on_c, 0, 62, 52
2, 41834, Note_on_c, 0, 54, 52
2, 41841, Note_on_c, 0, 57, 52
2, 41856, Note_on_c, 0, 74, 0
2, 41861, Note_on_c, 0, 62, 0
2, 41866, Note_on_c, 0, 81, 0
2, 41868, Note_on_c, 0, 57, 0
2, 41873, Note_on_c, 0, 78, 0
2, 41882, Note_on_c, 0, 54, 0
2, 41917, Note_on_c, 0, 83, 52
2, 41924, Note_on_c, 0, 77, 52
2, 41963, Note_on_c, 0, 38, 57
2, 41965, Note_on_c, 0, 81, 44
2, 41968, Note_on_c, 0, 77, 0
2, 41968, Note_on_c, 0, 74, 44
2, 41973, Note_on_c, 0, 83, 0
2, 41975, Note_on_c, 0, 50, 56
2, 42004, Note_on_c, 0, 38, 0
2, 42009, Note_on_c, 0, 50, 0
2, 42019, Note_on_c, 0, 81, 0
2, 42038, Note_on_c, 0, 83, 44
2, 42038, Note_on_c, 0, 77, 44
2, 42050, Note_on_c, 0, 74, 0
2, 42072, Note_on_c, 0, 77, 0
2, 42081, Note_on_c, 0, 81, 44
2, 42086, Note_on_c, 0, 74, 44
2, 42089, Note_on_c, 0, 62, 44
2, 42091, Note_on_c, 0, 54, 44
2, 42091, Note_on_c, 0, 57, 44
2, 42106, Note_on_c, 0, 83, 0
2, 42122, Note_on_c, 0, 62, 0
2, 42122, Note_on_c, 0, 81, 0
2, 42125, Note_on_c, 0, 74, 0
2, 42130, Note_on_c, 0, 57, 0
2, 42144, Note_on_c, 0, 54, 0
2, 42227, Note_on_c, 0, 76, 44
2, 42229, Note_on_c, 0, 73, 44
2, 42241, Note_on_c, 0, 33, 52
2, 42241, Note_on_c, 0, 45, 52
2, 42380, Note_on_c, 0, 57, 33
2, 42384, Note_on_c, 0, 64, 52
2, 42384, Note_on_c, 0, 52, 33
2, 42389, Note_on_c, 0, 61, 53
2, 42402, Note_on_c, 0, 33, 0
2, 42411, Note_on_c, 0, 45, 0
2, 42416, Note_on_c, 0, 76, 0
2, 42416, Note_on_c, 0, 73, 0
2, 42418, Note_on_c, 0, 57, 0
2, 42418, Note_on_c, 0, 61, 0
2, 42433, Note_on_c, 0, 52, 0
2, 42435, Note_on_c, 0, 64, 0
2, 42467, Note_on_c, 0, 66, 40
2, 42515, Note_on_c, 0, 66, 0
2, 42518, Note_on_c, 0, 40, 58
2, 42523, Note_on_c, 0, 68, 44
2, 42550, Note_on_c, 0, 40, 0
2, 42566, Note_on_c, 0, 68, 0
2, 42602, Note_on_c, 0, 69, 35
2, 42629, Note_on_c, 0, 69, 0
2, 42648, Note_on_c, 0, 71, 39
2, 42651, Note_on_c, 0, 62, 59
2, 42656, Note_on_c, 0, 52, 58
2, 42656, Note_on_c, 0, 56, 58
2, 42685, Note_on_c, 0, 56, 0
2, 42685, Note_on_c, 0, 62, 0
2, 42688, Note_on_c, 0, 71, 0
2, 42702, Note_on_c, 0, 52, 0
2, 42707, Note_on_c, 0, 72, 39
2, 42758, Note_on_c, 0, 72, 0
2, 42772, Note_on_c, 0, 33, 67
2, 42780, Note_on_c, 0, 69, 53
2, 42780, Note_on_c, 0, 73, 53
2, 42785, Note_on_c, 0, 45, 67
2, 42816, Note_on_c, 0, 33, 0
2, 42821, Note_on_c, 0, 69, 0
2, 42821, Note_on_c, 0, 73, 0
2, 42828, Note_on_c, 0, 45, 0
2, 42911, Note_on_c, 0, 57, 52
2, 42913, Note_on_c, 0, 69, 39
2, 42913, Note_on_c, 0, 73, 39
2, 42915, Note_on_c, 0, 52, 52
2, 42944, Note_on_c, 0, 57, 0
2, 42952, Note_on_c, 0, 52, 0
2, 43049, Note_on_c, 0, 40, 44
2, 43054, Note_on_c, 0, 28, 44
2, 43056, Note_on_c, 0, 69, 0
2, 43066, Note_on_c, 0, 73, 0
2, 43177, Note_on_c, 0, 57, 37
2, 43182, Note_on_c, 0, 76, 44
2, 43184, Note_on_c, 0, 61, 39
2, 43189, Note_on_c, 0, 52, 40
2, 43189, Note_on_c, 0, 73, 44
2, 43194, Note_on_c, 0, 28, 0
2, 43197, Note_on_c, 0, 40, 0
2, 43221, Note_on_c, 0, 61, 0
2, 43225, Note_on_c, 0, 57, 0
2, 43225, Note_on_c, 0, 52, 0
2, 43228, Note_on_c, 0, 73, 0
2, 43230, Note_on_c, 0, 76, 0
2, 43311, Note_on_c, 0, 78, 53
2, 43316, Note_on_c, 0, 72, 53
2, 43318, Note_on_c, 0, 33, 44
2, 43320, Note_on_c, 0, 45, 44
2, 43357, Note_on_c, 0, 33, 0
2, 43364, Note_on_c, 0, 45, 0
2, 43383, Note_on_c, 0, 76, 44
2, 43386, Note_on_c, 0, 72, 0
2, 43391, Note_on_c, 0, 73, 44
2, 43417, Note_on_c, 0, 78, 0
2, 43444, Note_on_c, 0, 61, 52
2, 43446, Note_on_c, 0, 52, 52
2, 43446, Note_on_c, 0, 57, 52
2, 43456, Note_on_c, 0, 73, 0
2, 43475, Note_on_c, 0, 61, 0
2, 43478, Note_on_c, 0, 57, 0
2, 43480, Note_on_c, 0, 52, 0
2, 43480, Note_on_c, 0, 76, 0
2, 43500, Note_on_c, 0, 78, 52
2, 43512, Note_on_c, 0, 72, 54
2, 43558, Note_on_c, 0, 72, 0
2, 43567, Note_on_c, 0, 78, 0
2, 43567, Note_on_c, 0, 76, 44
2, 43570, Note_on_c, 0, 46, 57
2, 43570, Note_on_c, 0, 73, 44
2, 43575, Note_on_c, 0, 34, 57
2, 43607, Note_on_c, 0, 46, 0
2, 43613, Note_on_c, 0, 34, 0
2, 43638, Note_on_c, 0, 78, 44
2, 43640, Note_on_c, 0, 73, 0
2, 43645, Note_on_c, 0, 76, 0
2, 43648, Note_on_c, 0, 72, 44
2, 43686, Note_on_c, 0, 76, 60
2, 43689, Note_on_c, 0, 72, 0
2, 43689, Note_on_c, 0, 73, 60
2, 43691, Note_on_c, 0, 64, 60
2, 43696, Note_on_c, 0, 58, 59
2, 43701, Note_on_c, 0, 55, 58
2, 43718, Note_on_c, 0, 78, 0
2, 43728, Note_on_c, 0, 73, 0
2, 43732, Note_on_c, 0, 76, 0
2, 43735, Note_on_c, 0, 64, 0
2, 43740, Note_on_c, 0, 58, 0
2, 43752, Note_on_c, 0, 55, 0
2, 43834, Note_on_c, 0, 35, 67
2, 43834, Note_on_c, 0, 76, 53
2, 43839, Note_on_c, 0, 47, 67
2, 43842, Note_on_c, 0, 68, 53
2, 43897, Note_on_c, 0, 76, 0
2, 43904, Note_on_c, 0, 71, 39
2, 43955, Note_on_c, 0, 71, 0
2, 43955, Note_on_c, 0, 68, 0
2, 43960, Note_on_c, 0, 64, 38
2, 43968, Note_on_c, 0, 56, 37
2, 43970, Note_on_c, 0, 59, 37
2, 43975, Note_on_c, 0, 35, 0
2, 43985, Note_on_c, 0, 47, 0
2, 44004, Note_on_c, 0, 56, 0
2, 44011, Note_on_c, 0, 64, 0
2, 44016, Note_on_c, 0, 59, 0
2, 44052, Note_on_c, 0, 76, 52
2, 44098, Note_on_c, 0, 75, 44
2, 44101, Note_on_c, 0, 76, 0
2, 44103, Note_on_c, 0, 47, 52
2, 44111, Note_on_c, 0, 35, 52
2, 44135, Note_on_c, 0, 35, 0
2, 44135, Note_on_c, 0, 47, 0
2, 44161, Note_on_c, 0, 75, 0
2, 44169, Note_on_c, 0, 76, 44
2, 44215, Note_on_c, 0, 63, 56
2, 44217, Note_on_c, 0, 78, 44
2, 44225, Note_on_c, 0, 59, 55
2, 44227, Note_on_c, 0, 69, 44
2, 44230, Note_on_c, 0, 76, 0
2, 44249, Note_on_c, 0, 78, 0
2, 44254, Note_on_c, 0, 63, 0
2, 44258, Note_on_c, 0, 69, 0
2, 44268, Note_on_c, 0, 59, 0
2, 44353, Note_on_c, 0, 71, 49
2, 44353, Note_on_c, 0, 76, 49
2, 44353, Note_on_c, 0, 64, 49
2, 44353, Note_on_c, 0, 68, 49
2, 44360, Note_on_c, 0, 52, 74
2, 44416, Note_on_c, 0, 64, 0
2, 44421, Note_on_c, 0, 52, 0
2, 44486, Note_on_c, 0, 62, 67
2, 44491, Note_on_c, 0, 50, 69
2, 44552, Note_on_c, 0, 62, 0
2, 44568, Note_on_c, 0, 71, 0
2, 44573, Note_on_c, 0, 68, 0
2, 44586, Note_on_c, 0, 50, 0
2, 44598, Note_on_c, 0, 76, 0
2, 44624, Note_on_c, 0, 49, 74
2, 44632, Note_on_c, 0, 61, 77
2, 44668, Note_on_c, 0, 61, 0
2, 44678, Note_on_c, 0, 49, 0
2, 44716, Note_on_c, 0, 64, 84
2, 44760, Note_on_c, 0, 64, 0
2, 44760, Note_on_c, 0, 59, 44
2, 44765, Note_on_c, 0, 47, 44
2, 44767, Note_on_c, 0, 68, 44
2, 44807, Note_on_c, 0, 47, 0
2, 44811, Note_on_c, 0, 59, 0
2, 44823, Note_on_c, 0, 68, 0
2, 44831, Note_on_c, 0, 64, 44
2, 44838, Note_on_c, 0, 74, 68
2, 44881, Note_on_c, 0, 74, 0
2, 44891, Note_on_c, 0, 45, 54
2, 44894, Note_on_c, 0, 57, 54
2, 44896, Note_on_c, 0, 69, 49
2, 44896, Note_on_c, 0, 73, 49
2, 44935, Note_on_c, 0, 45, 0
2, 44937, Note_on_c, 0, 69, 0
2, 44937, Note_on_c, 0, 73, 0
2, 44937, Note_on_c, 0, 57, 0
2, 44942, Note_on_c, 0, 64, 0
2, 45020, Note_on_c, 0, 64, 44
2, 45022, Note_on_c, 0, 73, 44
2, 45024, Note_on_c, 0, 61, 39
2, 45024, Note_on_c, 0, 52, 39
2, 45024, Note_on_c, 0, 57, 39
2, 45027, Note_on_c, 0, 69, 44
2, 45058, Note_on_c, 0, 61, 0
2, 45066, Note_on_c, 0, 57, 0
2, 45066, Note_on_c, 0, 52, 0
2, 45170, Note_on_c, 0, 64, 0
2, 45175, Note_on_c, 0, 69, 0
2, 45177, Note_on_c, 0, 28, 44
2, 45182, Note_on_c, 0, 73, 0
2, 45185, Note_on_c, 0, 40, 46
2, 45291, Note_on_c, 0, 57, 39
2, 45291, Note_on_c, 0, 76, 39
2, 45293, Note_on_c, 0, 73, 39
2, 45296, Note_on_c, 0, 52, 39
2, 45296, Note_on_c, 0, 61, 39
2, 45308, Note_on_c, 0, 40, 0
2, 45308, Note_on_c, 0, 28, 0
2, 45330, Note_on_c, 0, 57, 0
2, 45333, Note_on_c, 0, 61, 0
2, 45333, Note_on_c, 0, 76, 0
2, 45333, Note_on_c, 0, 52, 0
2, 45335, Note_on_c, 0, 73, 0
2, 45405, Note_on_c, 0, 33, 46
2, 45410, Note_on_c, 0, 78, 44
2, 45420, Note_on_c, 0, 45, 50
2, 45422, Note_on_c, 0, 72, 44
2, 45458, Note_on_c, 0, 33, 0
2, 45466, Note_on_c, 0, 45, 0
2, 45487, Note_on_c, 0, 72, 0
2, 45500, Note_on_c, 0, 73, 52
2, 45500, Note_on_c, 0, 76, 52
2, 45519, Note_on_c, 0, 78, 0
2, 45548, Note_on_c, 0, 52, 57
2, 45553, Note_on_c, 0, 57, 56
2, 45555, Note_on_c, 0, 61, 56
2, 45575, Note_on_c, 0, 73, 0
2, 45594, Note_on_c, 0, 57, 0
2, 45594, Note_on_c, 0, 76, 0
2, 45594, Note_on_c, 0, 61, 0
2, 45604, Note_on_c, 0, 52, 0
2, 45628, Note_on_c, 0, 72, 44
2, 45628, Note_on_c, 0, 78, 44
2, 45662, Note_on_c, 0, 72, 0
2, 45672, Note_on_c, 0, 78, 0
2, 45674, Note_on_c, 0, 33, 35
2, 45676, Note_on_c, 0, 45, 35
2, 45679, Note_on_c, 0, 73, 44
2, 45679, Note_on_c, 0, 76, 44
2, 45718, Note_on_c, 0, 45, 0
2, 45735, Note_on_c, 0, 78, 44
2, 45742, Note_on_c, 0, 33, 0
2, 45742, Note_on_c, 0, 76, 0
2, 45742, Note_on_c, 0, 73, 0
2, 45749, Note_on_c, 0, 72, 44
2, 45798, Note_on_c, 0, 76, 44
2, 45808, Note_on_c, 0, 73, 44
2, 45810, Note_on_c, 0, 57, 60
2, 45813, Note_on_c, 0, 61, 60
2, 45815, Note_on_c, 0, 52, 60
2, 45827, Note_on_c, 0, 78, 0
2, 45832, Note_on_c, 0, 73, 0
2, 45832, Note_on_c, 0, 72, 0
2, 45832, Note_on_c, 0, 76, 0
2, 45834, Note_on_c, 0, 57, 0
2, 45844, Note_on_c, 0, 52, 0
2, 45856, Note_on_c, 0, 61, 0
2, 45931, Note_on_c, 0, 38, 76
2, 45934, Note_on_c, 0, 50, 76
2, 45946, Note_on_c, 0, 77, 44
2, 45951, Note_on_c, 0, 83, 44
2, 45987, Note_on_c, 0, 77, 0
2, 46008, Note_on_c, 0, 83, 0
2, 46011, Note_on_c, 0, 81, 41
2, 46016, Note_on_c, 0, 78, 67
2, 46067, Note_on_c, 0, 54, 84
2, 46067, Note_on_c, 0, 62, 84
2, 46077, Note_on_c, 0, 57, 82
2, 46080, Note_on_c, 0, 38, 0
2, 46086, Note_on_c, 0, 50, 0
2, 46094, Note_on_c, 0, 78, 0
2, 46101, Note_on_c, 0, 62, 0
2, 46115, Note_on_c, 0, 57, 0
2, 46115, Note_on_c, 0, 81, 0
2, 46123, Note_on_c, 0, 54, 0
2, 46145, Note_on_c, 0, 83, 44
2, 46152, Note_on_c, 0, 77, 44
2, 46196, Note_on_c, 0, 38, 52
2, 46205, Note_on_c, 0, 50, 52
2, 46207, Note_on_c, 0, 74, 49
2, 46207, Note_on_c, 0, 81, 49
2, 46212, Note_on_c, 0, 77, 0
2, 46215, Note_on_c, 0, 78, 49
2, 46229, Note_on_c, 0, 38, 0
2, 46244, Note_on_c, 0, 83, 0
2, 46251, Note_on_c, 0, 50, 0
2, 46266, Note_on_c, 0, 83, 48
2, 46280, Note_on_c, 0, 77, 46
2, 46299, Note_on_c, 0, 81, 0
2, 46299, Note_on_c, 0, 78, 0
2, 46312, Note_on_c, 0, 74, 0
2, 46321, Note_on_c, 0, 62, 83
2, 46331, Note_on_c, 0, 81, 44
2, 46331, Note_on_c, 0, 74, 44
2, 46331, Note_on_c, 0, 78, 44
2, 46339, Note_on_c, 0, 54, 44
2, 46339, Note_on_c, 0, 57, 44
2, 46341, Note_on_c, 0, 77, 0
2, 46363, Note_on_c, 0, 62, 0
2, 46368, Note_on_c, 0, 83, 0
2, 46370, Note_on_c, 0, 57, 0
2, 46370, Note_on_c, 0, 74, 0
2, 46370, Note_on_c, 0, 54, 0
2, 46372, Note_on_c, 0, 81, 0
2, 46372, Note_on_c, 0, 78, 0
2, 46399, Note_on_c, 0, 80, 49
2, 46399, Note_on_c, 0, 85, 49
2, 46401, Note_on_c, 0, 73, 49
2, 46404, Note_on_c, 0, 83, 49
2, 46409, Note_on_c, 0, 77, 49
2, 46460, Note_on_c, 0, 37, 73
2, 46467, Note_on_c, 0, 83, 0
2, 46477, Note_on_c, 0, 73, 0
2, 46482, Note_on_c, 0, 49, 69
2, 46535, Note_on_c, 0, 73, 84
2, 46571, Note_on_c, 0, 77, 0
2, 46588, Note_on_c, 0, 73, 0
2, 46593, Note_on_c, 0, 77, 39
2, 46600, Note_on_c, 0, 61, 39
2, 46627, Note_on_c, 0, 80, 0
2, 46644, Note_on_c, 0, 77, 0
2, 46646, Note_on_c, 0, 61, 0
2, 46654, Note_on_c, 0, 53, 36
2, 46654, Note_on_c, 0, 80, 82
2, 46661, Note_on_c, 0, 37, 0
2, 46668, Note_on_c, 0, 85, 0
2, 46668, Note_on_c, 0, 49, 0
2, 46712, Note_on_c, 0, 85, 73
2, 46722, Note_on_c, 0, 49, 71
2, 46727, Note_on_c, 0, 53, 0
2, 46738, Note_on_c, 0, 80, 0
2, 46876, Note_on_c, 0, 85, 0
2, 46876, Note_on_c, 0, 80, 52
2, 46881, Note_on_c, 0, 49, 0
2, 46920, Note_on_c, 0, 80, 0
2, 46930, Note_on_c, 0, 81, 52
2, 46981, Note_on_c, 0, 81, 0
2, 46986, Note_on_c, 0, 38, 55
2, 47000, Note_on_c, 0, 50, 60
2, 47003, Note_on_c, 0, 83, 44
2, 47013, Note_on_c, 0, 77, 44
2, 47029, Note_on_c, 0, 38, 0
2, 47040, Note_on_c, 0, 50, 0
2, 47056, Note_on_c, 0, 77, 0
2, 47068, Note_on_c, 0, 83, 0
2, 47085, Note_on_c, 0, 81, 39
2, 47088, Note_on_c, 0, 78, 39
2, 47134, Note_on_c, 0, 62, 52
2, 47143, Note_on_c, 0, 57, 52
2, 47146, Note_on_c, 0, 54, 52
2, 47172, Note_on_c, 0, 62, 0
2, 47175, Note_on_c, 0, 57, 0
2, 47187, Note_on_c, 0, 54, 0
2, 47197, Note_on_c, 0, 81, 0
2, 47204, Note_on_c, 0, 78, 0
2, 47211, Note_on_c, 0, 83, 39
2, 47221, Note_on_c, 0, 77, 39
2, 47262, Note_on_c, 0, 38, 59
2, 47264, Note_on_c, 0, 77, 0
2, 47272, Note_on_c, 0, 50, 57
2, 47313, Note_on_c, 0, 50, 0
2, 47313, Note_on_c, 0, 38, 0
2, 47350, Note_on_c, 0, 81, 60
2, 47381, Note_on_c, 0, 83, 0
2, 47391, Note_on_c, 0, 62, 39
2, 47393, Note_on_c, 0, 78, 39
2, 47396, Note_on_c, 0, 54, 39
2, 47398, Note_on_c, 0, 57, 60
2, 47434, Note_on_c, 0, 57, 0
2, 47437, Note_on_c, 0, 81, 0
2, 47437, Note_on_c, 0, 62, 0
2, 47439, Note_on_c, 0, 54, 0
2, 47468, Note_on_c, 0, 74, 44
2, 47488, Note_on_c, 0, 78, 0
2, 47517, Note_on_c, 0, 40, 44
2, 47521, Note_on_c, 0, 74, 0
2, 47529, Note_on_c, 0, 52, 44
2, 47560, Note_on_c, 0, 40, 0
2, 47585, Note_on_c, 0, 52, 0
2, 47585, Note_on_c, 0, 78, 48
2, 47590, Note_on_c, 0, 74, 49
2, 47631, Note_on_c, 0, 52, 39
2, 47633, Note_on_c, 0, 74, 0
2, 47640, Note_on_c, 0, 78, 0
2, 47640, Note_on_c, 0, 61, 39
2, 47640, Note_on_c, 0, 76, 39
2, 47640, Note_on_c, 0, 57, 39
2, 47647, Note_on_c, 0, 73, 39
2, 47674, Note_on_c, 0, 57, 0
2, 47679, Note_on_c, 0, 61, 0
2, 47688, Note_on_c, 0, 52, 0
2, 47715, Note_on_c, 0, 73, 0
2, 47718, Note_on_c, 0, 76, 0
2, 47723, Note_on_c, 0, 71, 57
2, 47723, Note_on_c, 0, 74, 57
2, 47757, Note_on_c, 0, 71, 0
2, 47766, Note_on_c, 0, 74, 0
2, 47781, Note_on_c, 0, 52, 58
2, 47784, Note_on_c, 0, 73, 44
2, 47785, Note_on_c, 0, 40, 58
2, 47798, Note_on_c, 0, 69, 44
2, 47812, Note_on_c, 0, 40, 0
2, 47817, Note_on_c, 0, 73, 0
2, 47820, Note_on_c, 0, 52, 0
2, 47844, Note_on_c, 0, 76, 44
2, 47856, Note_on_c, 0, 73, 44
2, 47873, Note_on_c, 0, 69, 0
2, 47897, Note_on_c, 0, 61, 44
2, 47900, Note_on_c, 0, 52, 44
2, 47900, Note_on_c, 0, 57, 44
2, 47924, Note_on_c, 0, 61, 0
2, 47924, Note_on_c, 0, 76, 0
2, 47936, Note_on_c, 0, 57, 0
2, 47941, Note_on_c, 0, 52, 0
2, 47958, Note_on_c, 0, 73, 0
2, 48024, Note_on_c, 0, 70, 49
2, 48024, Note_on_c, 0, 76, 49
2, 48040, Note_on_c, 0, 40, 44
2, 48070, Note_on_c, 0, 40, 0
2, 48098, Note_on_c, 0, 70, 0
2, 48116, Note_on_c, 0, 71, 44
2, 48116, Note_on_c, 0, 74, 44
2, 48149, Note_on_c, 0, 71, 0
2, 48154, Note_on_c, 0, 76, 0
2, 48159, Note_on_c, 0, 56, 44
2, 48162, Note_on_c, 0, 62, 44
2, 48168, Note_on_c, 0, 52, 44
2, 48183, Note_on_c, 0, 74, 0
2, 48203, Note_on_c, 0, 56, 0
2, 48208, Note_on_c, 0, 62, 0
2, 48224, Note_on_c, 0, 52, 0
2, 48254, Note_on_c, 0, 76, 46
2, 48285, Note_on_c, 0, 76, 0
2, 48302, Note_on_c, 0, 74, 44
2, 48310, Note_on_c, 0, 40, 44
2, 48312, Note_on_c, 0, 68, 44
2, 48324, Note_on_c, 0, 28, 44
2, 48338, Note_on_c, 0, 40, 0
2, 48346, Note_on_c, 0, 68, 0
2, 48362, Note_on_c, 0, 28, 0
2, 48372, Note_on_c, 0, 73, 44
2, 48407, Note_on_c, 0, 74, 0
2, 48413, Note_on_c, 0, 62, 44
2, 48418, Note_on_c, 0, 56, 44
2, 48423, Note_on_c, 0, 59, 44
2, 48426, Note_on_c, 0, 71, 44
2, 48428, Note_on_c, 0, 52, 44
2, 48440, Note_on_c, 0, 73, 0
2, 48450, Note_on_c, 0, 59, 0
2, 48450, Note_on_c, 0, 62, 0
2, 48455, Note_on_c, 0, 56, 0
2, 48457, Note_on_c, 0, 71, 0
2, 48474, Note_on_c, 0, 52, 0
2, 48556, Note_on_c, 0, 45, 44
2, 48559, Note_on_c, 0, 33, 44
2, 48566, Note_on_c, 0, 61, 44
2, 48569, Note_on_c, 0, 69, 44
2, 48605, Note_on_c, 0, 45, 0
2, 48644, Note_on_c, 0, 33, 0
2, 48702, Note_on_c, 0, 40, 52
2, 48729, Note_on_c, 0, 40, 0
2, 48828, Note_on_c, 0, 61, 0
2, 48831, Note_on_c, 0, 45, 48
2, 48852, Note_on_c, 0, 33, 33
2, 48857, Note_on_c, 0, 69, 0
2, 48882, Note_on_c, 0, 33, 0
2, 48884, Note_on_c, 0, 45, 0
2, 48969, Note_on_c, 0, 64, 44
2, 49020, Note_on_c, 0, 64, 0
2, 49044, Note_on_c, 0, 65, 38
2, 49085, Note_on_c, 0, 65, 0
2, 49100, Note_on_c, 0, 52, 52
2, 49107, Note_on_c, 0, 66, 39
2, 49136, Note_on_c, 0, 52, 0
2, 49163, Note_on_c, 0, 67, 39
2, 49168, Note_on_c, 0, 66, 0
2, 49211, Note_on_c, 0, 67, 0
2, 49219, Note_on_c, 0, 62, 58
2, 49225, Note_on_c, 0, 68, 44
2, 49230, Note_on_c, 0, 52, 56
2, 49260, Note_on_c, 0, 62, 0
2, 49274, Note_on_c, 0, 52, 0
2, 49301, Note_on_c, 0, 71, 44
2, 49357, Note_on_c, 0, 47, 44
2, 49362, Note_on_c, 0, 35, 44
2, 49381, Note_on_c, 0, 35, 0
2, 49393, Note_on_c, 0, 47, 0
2, 49405, Note_on_c, 0, 76, 46
2, 49432, Note_on_c, 0, 71, 0
2, 49454, Note_on_c, 0, 68, 0
2, 49465, Note_on_c, 0, 62, 39
2, 49470, Note_on_c, 0, 74, 39
2, 49475, Note_on_c, 0, 52, 54
2, 49505, Note_on_c, 0, 62, 0
2, 49510, Note_on_c, 0, 74, 0
2, 49519, Note_on_c, 0, 52, 0
2, 49536, Note_on_c, 0, 76, 0
2, 49543, Note_on_c, 0, 71, 46
2, 49589, Note_on_c, 0, 40, 44
2, 49599, Note_on_c, 0, 71, 0
2, 49602, Note_on_c, 0, 52, 44
2, 49602, Note_on_c, 0, 66, 44
2, 49621, Note_on_c, 0, 40, 0
2, 49638, Note_on_c, 0, 52, 0
2, 49669, Note_on_c, 0, 67, 50
2, 49672, Note_on_c, 0, 66, 0
2, 49713, Note_on_c, 0, 62, 58
2, 49715, Note_on_c, 0, 67, 0
2, 49723, Note_on_c, 0, 52, 56
2, 49723, Note_on_c, 0, 68, 44
2, 49759, Note_on_c, 0, 68, 0
2, 49759, Note_on_c, 0, 62, 0
2, 49781, Note_on_c, 0, 52, 0
2, 49798, Note_on_c, 0, 73, 49
2, 49851, Note_on_c, 0, 47, 44
2, 49856, Note_on_c, 0, 35, 44
2, 49883, Note_on_c, 0, 35, 0
2, 49885, Note_on_c, 0, 47, 0
2, 49897, Note_on_c, 0, 73, 0
2, 49917, Note_on_c, 0, 71, 52
2, 49968, Note_on_c, 0, 62, 39
2, 49977, Note_on_c, 0, 71, 0
2, 49977, Note_on_c, 0, 52, 39
2, 49985, Note_on_c, 0, 66, 39
2, 50006, Note_on_c, 0, 62, 0
2, 50026, Note_on_c, 0, 66, 0
2, 50028, Note_on_c, 0, 52, 0
2, 50055, Note_on_c, 0, 68, 39
2, 50096, Note_on_c, 0, 68, 0
2, 50106, Note_on_c, 0, 45, 52
2, 50108, Note_on_c, 0, 69, 45
2, 50113, Note_on_c, 0, 33, 52
2, 50142, Note_on_c, 0, 69, 0
2, 50147, Note_on_c, 0, 45, 0
2, 50152, Note_on_c, 0, 33, 0
2, 50184, Note_on_c, 0, 64, 52
2, 50227, Note_on_c, 0, 52, 57
2, 50230, Note_on_c, 0, 64, 0
2, 50230, Note_on_c, 0, 57, 56
2, 50234, Note_on_c, 0, 61, 56
2, 50244, Note_on_c, 0, 66, 36
2, 50261, Note_on_c, 0, 57, 0
2, 50271, Note_on_c, 0, 61, 0
2, 50276, Note_on_c, 0, 52, 0
2, 50295, Note_on_c, 0, 68, 39
2, 50331, Note_on_c, 0, 66, 0
2, 50355, Note_on_c, 0, 68, 0
2, 50360, Note_on_c, 0, 69, 39
2, 50368, Note_on_c, 0, 40, 59
2, 50394, Note_on_c, 0, 40, 0
2, 50397, Note_on_c, 0, 69, 0
2, 50433, Note_on_c, 0, 70, 47
2, 50455, Note_on_c, 0, 70, 0
2, 50489, Note_on_c, 0, 52, 44
2, 50489, Note_on_c, 0, 57, 44
2, 50494, Note_on_c, 0, 61, 44
2, 50496, Note_on_c, 0, 71, 44
2, 50520, Note_on_c, 0, 71, 0
2, 50530, Note_on_c, 0, 61, 0
2, 50530, Note_on_c, 0, 57, 0
2, 50532, Note_on_c, 0, 52, 0
2, 50559, Note_on_c, 0, 72, 44
2, 50598, Note_on_c, 0, 72, 0
2, 50608, Note_on_c, 0, 33, 52
2, 50613, Note_on_c, 0, 45, 52
2, 50613, Note_on_c, 0, 73, 44
2, 50659, Note_on_c, 0, 33, 0
2, 50678, Note_on_c, 0, 33, 44
2, 50680, Note_on_c, 0, 72, 44
2, 50700, Note_on_c, 0, 73, 0
2, 50721, Note_on_c, 0, 57, 49
2, 50726, Note_on_c, 0, 72, 0
2, 50726, Note_on_c, 0, 73, 49
2, 50726, Note_on_c, 0, 52, 60
2, 50746, Note_on_c, 0, 45, 0
2, 50746, Note_on_c, 0, 33, 0
2, 50758, Note_on_c, 0, 57, 0
2, 50765, Note_on_c, 0, 52, 0
2, 50772, Note_on_c, 0, 73, 0
2, 50799, Note_on_c, 0, 78, 49
2, 50872, Note_on_c, 0, 40, 44
2, 50872, Note_on_c, 0, 28, 44
2, 50894, Note_on_c, 0, 28, 0
2, 50901, Note_on_c, 0, 78, 0
2, 50920, Note_on_c, 0, 40, 0
2, 50923, Note_on_c, 0, 76, 35
2, 50978, Note_on_c, 0, 57, 44
2, 50986, Note_on_c, 0, 52, 44
2, 50988, Note_on_c, 0, 61, 44
2, 50988, Note_on_c, 0, 71, 39
2, 51000, Note_on_c, 0, 76, 0
2, 51020, Note_on_c, 0, 57, 0
2, 51024, Note_on_c, 0, 52, 0
2, 51027, Note_on_c, 0, 61, 0
2, 51051, Note_on_c, 0, 71, 0
2, 51056, Note_on_c, 0, 73, 39
2, 51095, Note_on_c, 0, 73, 0
2, 51114, Note_on_c, 0, 74, 39
2, 51117, Note_on_c, 0, 47, 72
2, 51141, Note_on_c, 0, 47, 0
2, 51175, Note_on_c, 0, 83, 39
2, 51211, Note_on_c, 0, 74, 0
2, 51238, Note_on_c, 0, 62, 54
2, 51242, Note_on_c, 0, 56, 54
2, 51242, Note_on_c, 0, 52, 54
2, 51260, Note_on_c, 0, 83, 0
2, 51274, Note_on_c, 0, 62, 0
2, 51279, Note_on_c, 0, 56, 0
2, 51291, Note_on_c, 0, 52, 0
2, 51306, Note_on_c, 0, 73, 52
2, 51344, Note_on_c, 0, 73, 0
2, 51361, Note_on_c, 0, 74, 36
2, 51374, Note_on_c, 0, 52, 52
2, 51381, Note_on_c, 0, 40, 52
2, 51400, Note_on_c, 0, 52, 0
2, 51405, Note_on_c, 0, 40, 0
2, 51449, Note_on_c, 0, 74, 0
2, 51458, Note_on_c, 0, 83, 44
2, 51509, Note_on_c, 0, 83, 0
2, 51509, Note_on_c, 0, 62, 60
2, 51519, Note_on_c, 0, 56, 58
2, 51524, Note_on_c, 0, 52, 57
2, 51553, Note_on_c, 0, 56, 0
2, 51553, Note_on_c, 0, 62, 0
2, 51558, Note_on_c, 0, 52, 0
2, 51594, Note_on_c, 0, 73, 59
2, 51624, Note_on_c, 0, 73, 0
2, 51648, Note_on_c, 0, 47, 60
2, 51652, Note_on_c, 0, 35, 60
2, 51652, Note_on_c, 0, 74, 44
2, 51674, Note_on_c, 0, 35, 0
2, 51679, Note_on_c, 0, 47, 0
2, 51711, Note_on_c, 0, 83, 44
2, 51742, Note_on_c, 0, 74, 0
2, 51749, Note_on_c, 0, 62, 44
2, 51759, Note_on_c, 0, 52, 44
2, 51764, Note_on_c, 0, 56, 44
2, 51783, Note_on_c, 0, 62, 0
2, 51798, Note_on_c, 0, 83, 0
2, 51798, Note_on_c, 0, 56, 0
2, 51813, Note_on_c, 0, 52, 0
2, 51841, Note_on_c, 0, 74, 39
2, 51878, Note_on_c, 0, 74, 0
2, 51890, Note_on_c, 0, 40, 54
2, 51900, Note_on_c, 0, 80, 39
2, 51907, Note_on_c, 0, 52, 58
2, 51919, Note_on_c, 0, 40, 0
2, 51941, Note_on_c, 0, 52, 0
2, 51953, Note_on_c, 0, 78, 37
2, 51975, Note_on_c, 0, 80, 0
2, 52013, Note_on_c, 0, 62, 33
2, 52016, Note_on_c, 0, 78, 0
2, 52021, Note_on_c, 0, 52, 35
2, 52028, Note_on_c, 0, 76, 44
2, 52050, Note_on_c, 0, 62, 0
2, 52064, Note_on_c, 0, 52, 0
2, 52077, Note_on_c, 0, 76, 0
2, 52091, Note_on_c, 0, 74, 44
2, 52140, Note_on_c, 0, 74, 0
2, 52145, Note_on_c, 0, 73, 44
2, 52150, Note_on_c, 0, 45, 52
2, 52154, Note_on_c, 0, 33, 52
2, 52188, Note_on_c, 0, 45, 0
2, 52210, Note_on_c, 0, 33, 0
2, 52222, Note_on_c, 0, 81, 60
2, 52244, Note_on_c, 0, 73, 0
2, 52278, Note_on_c, 0, 81, 0
2, 52285, Note_on_c, 0, 61, 35
2, 52288, Note_on_c, 0, 52, 36
2, 52290, Note_on_c, 0, 57, 36
2, 52326, Note_on_c, 0, 61, 0
2, 52331, Note_on_c, 0, 57, 0
2, 52339, Note_on_c, 0, 52, 0
2, 52372, Note_on_c, 0, 72, 57
2, 52411, Note_on_c, 0, 72, 0
2, 52426, Note_on_c, 0, 73, 49
2, 52431, Note_on_c, 0, 28, 58
2, 52433, Note_on_c, 0, 40, 58
2, 52479, Note_on_c, 0, 28, 0
2, 52487, Note_on_c, 0, 40, 0
2, 52491, Note_on_c, 0, 81, 46
2, 52511, Note_on_c, 0, 73, 0
2, 52552, Note_on_c, 0, 81, 0
2, 52552, Note_on_c, 0, 61, 56
2, 52557, Note_on_c, 0, 52, 55
2, 52557, Note_on_c, 0, 57, 55
2, 52590, Note_on_c, 0, 57, 0
2, 52590, Note_on_c, 0, 61, 0
2, 52598, Note_on_c, 0, 52, 0
2, 52636, Note_on_c, 0, 72, 47
2, 52682, Note_on_c, 0, 73, 49
2, 52692, Note_on_c, 0, 33, 52
2, 52697, Note_on_c, 0, 72, 0
2, 52700, Note_on_c, 0, 45, 52
2, 52738, Note_on_c, 0, 45, 0
2, 52743, Note_on_c, 0, 33, 0
2, 52746, Note_on_c, 0, 81, 49
2, 52779, Note_on_c, 0, 73, 0
2, 52809, Note_on_c, 0, 52, 41
2, 52816, Note_on_c, 0, 57, 40
2, 52819, Note_on_c, 0, 61, 39
2, 52824, Note_on_c, 0, 81, 0
2, 52855, Note_on_c, 0, 52, 0
2, 52857, Note_on_c, 0, 61, 0
2, 52860, Note_on_c, 0, 57, 0
2, 52906, Note_on_c, 0, 78, 52
2, 52940, Note_on_c, 0, 78, 0
2, 52944, Note_on_c, 0, 40, 59
2, 52949, Note_on_c, 0, 52, 58
2, 52962, Note_on_c, 0, 76, 39
2, 52986, Note_on_c, 0, 40, 0
2, 52991, Note_on_c, 0, 76, 0
2, 52993, Note_on_c, 0, 52, 0
2, 53010, Note_on_c, 0, 73, 48
2, 53059, Note_on_c, 0, 57, 44
2, 53064, Note_on_c, 0, 61, 44
2, 53065, Note_on_c, 0, 52, 44
2, 53065, Note_on_c, 0, 71, 44
2, 53090, Note_on_c, 0, 61, 0
2, 53092, Note_on_c, 0, 57, 0
2, 53095, Note_on_c, 0, 52, 0
2, 53097, Note_on_c, 0, 71, 0
2, 53129, Note_on_c, 0, 69, 44
2, 53138, Note_on_c, 0, 73, 0
2, 53182, Note_on_c, 0, 69, 0
2, 53199, Note_on_c, 0, 68, 44
2, 53202, Note_on_c, 0, 42, 55
2, 53202, Note_on_c, 0, 54, 55
2, 53228, Note_on_c, 0, 68, 0
2, 53231, Note_on_c, 0, 42, 0
2, 53253, Note_on_c, 0, 54, 0
2, 53264, Note_on_c, 0, 69, 47
2, 53299, Note_on_c, 0, 69, 0
2, 53308, Note_on_c, 0, 64, 59
2, 53318, Note_on_c, 0, 58, 57
2, 53323, Note_on_c, 0, 54, 56
2, 53328, Note_on_c, 0, 70, 44
2, 53350, Note_on_c, 0, 64, 0
2, 53352, Note_on_c, 0, 58, 0
2, 53356, Note_on_c, 0, 70, 0
2, 53371, Note_on_c, 0, 54, 0
2, 53386, Note_on_c, 0, 78, 64
2, 53442, Note_on_c, 0, 42, 53
2, 53448, Note_on_c, 0, 54, 52
2, 53483, Note_on_c, 0, 42, 0
2, 53493, Note_on_c, 0, 78, 0
2, 53495, Note_on_c, 0, 54, 0
2, 53520, Note_on_c, 0, 76, 48
2, 53575, Note_on_c, 0, 58, 58
2, 53580, Note_on_c, 0, 64, 39
2, 53582, Note_on_c, 0, 73, 39
2, 53585, Note_on_c, 0, 76, 0
2, 53585, Note_on_c, 0, 61, 56
2, 53618, Note_on_c, 0, 61, 0
2, 53618, Note_on_c, 0, 64, 0
2, 53628, Note_on_c, 0, 58, 0
2, 53652, Note_on_c, 0, 73, 0
2, 53660, Note_on_c, 0, 70, 46
2, 53706, Note_on_c, 0, 70, 0
2, 53708, Note_on_c, 0, 68, 44
2, 53715, Note_on_c, 0, 42, 58
2, 53720, Note_on_c, 0, 54, 57
2, 53769, Note_on_c, 0, 42, 0
2, 53779, Note_on_c, 0, 54, 0
2, 53779, Note_on_c, 0, 68, 0
2, 53788, Note_on_c, 0, 69, 44
2, 53832, Note_on_c, 0, 69, 0
2, 53846, Note_on_c, 0, 70, 44
2, 53846, Note_on_c, 0, 58, 58
2, 53846, Note_on_c, 0, 61, 58
2, 53851, Note_on_c, 0, 64, 44
2, 53885, Note_on_c, 0, 61, 0
2, 53890, Note_on_c, 0, 58, 0
2, 53895, Note_on_c, 0, 64, 0
2, 53912, Note_on_c, 0, 70, 0
2, 53928, Note_on_c, 0, 78, 44
2, 53982, Note_on_c, 0, 42, 41
2, 53989, Note_on_c, 0, 54, 40
2, 54021, Note_on_c, 0, 42, 0
2, 54033, Note_on_c, 0, 78, 0
2, 54048, Note_on_c, 0, 54, 0
2, 54057, Note_on_c, 0, 76, 53
2, 54065, Note_on_c, 0, 73, 55
2, 54079, Note_on_c, 0, 73, 0
2, 54103, Note_on_c, 0, 64, 39
2, 54103, Note_on_c, 0, 61, 39
2, 54108, Note_on_c, 0, 58, 58
2, 54116, Note_on_c, 0, 70, 39
2, 54122, Note_on_c, 0, 78, 39
2, 54142, Note_on_c, 0, 61, 0
2, 54142, Note_on_c, 0, 64, 0
2, 54144, Note_on_c, 0, 76, 0
2, 54149, Note_on_c, 0, 70, 0
2, 54154, Note_on_c, 0, 58, 0
2, 54183, Note_on_c, 0, 73, 56
2, 54188, Note_on_c, 0, 70, 58
2, 54208, Note_on_c, 0, 78, 0
2, 54234, Note_on_c, 0, 73, 0
2, 54240, Note_on_c, 0, 35, 56
2, 54240, Note_on_c, 0, 47, 56
2, 54241, Note_on_c, 0, 71, 44
2, 54241, Note_on_c, 0, 74, 44
2, 54270, Note_on_c, 0, 70, 0
2, 54275, Note_on_c, 0, 71, 0
2, 54275, Note_on_c, 0, 47, 0
2, 54280, Note_on_c, 0, 35, 0
2, 54292, Note_on_c, 0, 74, 0
2, 54307, Note_on_c, 0, 73, 81
2, 54316, Note_on_c, 0, 70, 80
2, 54358, Note_on_c, 0, 73, 0
2, 54358, Note_on_c, 0, 62, 44
2, 54362, Note_on_c, 0, 54, 74
2, 54365, Note_on_c, 0, 71, 44
2, 54365, Note_on_c, 0, 74, 44
2, 54370, Note_on_c, 0, 70, 0
2, 54372, Note_on_c, 0, 59, 72
2, 54392, Note_on_c, 0, 62, 0
2, 54402, Note_on_c, 0, 59, 0
2, 54404, Note_on_c, 0, 71, 0
2, 54411, Note_on_c, 0, 54, 0
2, 54431, Note_on_c, 0, 74, 0
2, 54448, Note_on_c, 0, 66, 71
2, 54501, Note_on_c, 0, 42, 74
2, 54510, Note_on_c, 0, 54, 33
2, 54545, Note_on_c, 0, 42, 0
2, 54554, Note_on_c, 0, 54, 0
2, 54588, Note_on_c, 0, 70, 39
2, 54600, Note_on_c, 0, 66, 0
2, 54612, Note_on_c, 0, 54, 39
2, 54617, Note_on_c, 0, 62, 36
2, 54632, Note_on_c, 0, 71, 39
2, 54637, Note_on_c, 0, 70, 0
2, 54651, Note_on_c, 0, 62, 0
2, 54663, Note_on_c, 0, 71, 0
2, 54685, Note_on_c, 0, 54, 0
2, 54699, Note_on_c, 0, 74, 45
2, 54717, Note_on_c, 0, 74, 0
2, 54750, Note_on_c, 0, 47, 44
2, 54755, Note_on_c, 0, 78, 47
2, 54760, Note_on_c, 0, 35, 44
2, 54780, Note_on_c, 0, 35, 0
2, 54785, Note_on_c, 0, 47, 0
2, 54799, Note_on_c, 0, 78, 0
2, 54816, Note_on_c, 0, 73, 45
2, 54847, Note_on_c, 0, 73, 0
2, 54857, Note_on_c, 0, 62, 33
2, 54879, Note_on_c, 0, 54, 36
2, 54879, Note_on_c, 0, 74, 39
2, 54906, Note_on_c, 0, 74, 0
2, 54906, Note_on_c, 0, 62, 0
2, 54935, Note_on_c, 0, 54, 0
2, 54937, Note_on_c, 0, 71, 39
2, 54974, Note_on_c, 0, 62, 39
2, 54985, Note_on_c, 0, 59, 38
2, 54988, Note_on_c, 0, 54, 38
2, 54990, Note_on_c, 0, 50, 38
2, 55017, Note_on_c, 0, 50, 0
2, 55017, Note_on_c, 0, 59, 0
2, 55017, Note_on_c, 0, 54, 0
2, 55017, Note_on_c, 0, 62, 0
2, 55034, Note_on_c, 0, 71, 0
2, 55112, Note_on_c, 0, 59, 44
2, 55124, Note_on_c, 0, 66, 39
2, 55170, Note_on_c, 0, 59, 0
2, 55184, Note_on_c, 0, 66, 0
2, 55197, Note_on_c, 0, 62, 55
2, 55243, Note_on_c, 0, 62, 0
2, 55245, Note_on_c, 0, 63, 49
2, 55260, Note_on_c, 0, 54, 49
2, 55289, Note_on_c, 0, 54, 0
2, 55316, Note_on_c, 0, 63, 0
2, 55332, Note_on_c, 0, 57, 67
2, 55332, Note_on_c, 0, 66, 39
2, 55373, Note_on_c, 0, 69, 39
2, 55376, Note_on_c, 0, 66, 0
2, 55391, Note_on_c, 0, 60, 67
2, 55393, Note_on_c, 0, 57, 0
2, 55405, Note_on_c, 0, 69, 0
2, 55429, Note_on_c, 0, 72, 75
2, 55432, Note_on_c, 0, 63, 33
2, 55470, Note_on_c, 0, 60, 0
2, 55485, Note_on_c, 0, 63, 0
2, 55490, Note_on_c, 0, 72, 0
2, 55524, Note_on_c, 0, 72, 84
2, 55529, Note_on_c, 0, 63, 33
2, 55626, Note_on_c, 0, 63, 0
2, 55626, Note_on_c, 0, 72, 0
2, 55655, Note_on_c, 0, 63, 76
2, 55657, Note_on_c, 0, 72, 44
2, 55759, Note_on_c, 0, 75, 44
2, 55759, Note_on_c, 0, 66, 44
2, 55771, Note_on_c, 0, 63, 0
2, 55796, Note_on_c, 0, 25, 44
2, 55810, Note_on_c, 0, 78, 44
2, 55812, Note_on_c, 0, 25, 0
2, 55820, Note_on_c, 0, 69, 44
2, 55832, Note_on_c, 0, 25, 44
2, 55844, Note_on_c, 0, 72, 0
2, 55848, Note_on_c, 0, 25, 0
2, 55866, Note_on_c, 0, 25, 53
2, 55871, Note_on_c, 0, 72, 53
2, 55883, Note_on_c, 0, 25, 0
2, 55883, Note_on_c, 0, 81, 53
2, 55907, Note_on_c, 0, 75, 0
2, 55914, Note_on_c, 0, 25, 53
2, 55926, Note_on_c, 0, 75, 53
2, 55929, Note_on_c, 0, 25, 0
2, 55929, Note_on_c, 0, 81, 0
2, 55939, Note_on_c, 0, 72, 0
2, 55939, Note_on_c, 0, 84, 53
2, 55941, Note_on_c, 0, 78, 0
2, 55950, Note_on_c, 0, 69, 0
2, 55950, Note_on_c, 0, 66, 0
2, 55950, Note_on_c, 0, 25, 32
2, 55965, Note_on_c, 0, 25, 0
2, 55968, Note_on_c, 0, 75, 0
2, 55968, Note_on_c, 0, 84, 0
2, 55996, Note_on_c, 0, 25, 32
2, 56031, Note_on_c, 0, 25, 0
2, 56220, Note_on_c, 0, 57, 55
2, 56222, Note_on_c, 0, 85, 46
2, 56225, Note_on_c, 0, 52, 56
2, 56225, Note_on_c, 0, 61, 56
2, 56273, Note_on_c, 0, 85, 0
2, 56295, Note_on_c, 0, 81, 35
2, 56341, Note_on_c, 0, 76, 71
2, 56379, Note_on_c, 0, 81, 0
2, 56416, Note_on_c, 0, 73, 60
2, 56424, Note_on_c, 0, 76, 0
2, 56424, Note_on_c, 0, 25, 33
2, 56440, Note_on_c, 0, 25, 0
2, 56462, Note_on_c, 0, 25, 33
2, 56476, Note_on_c, 0, 25, 0
2, 56552, Note_on_c, 0, 57, 0
2, 56554, Note_on_c, 0, 73, 0
2, 56557, Note_on_c, 0, 69, 52
2, 56562, Note_on_c, 0, 52, 0
2, 56573, Note_on_c, 0, 61, 0
2, 56593, Note_on_c, 0, 64, 80
2, 56598, Note_on_c, 0, 57, 33
2, 56613, Note_on_c, 0, 52, 77
2, 56615, Note_on_c, 0, 69, 0
2, 56646, Note_on_c, 0, 57, 0
2, 56659, Note_on_c, 0, 52, 0
2, 56661, Note_on_c, 0, 64, 0
2, 56665, Note_on_c, 0, 61, 69
2, 56697, Note_on_c, 0, 61, 0
2, 56731, Note_on_c, 0, 68, 35
2, 56741, Note_on_c, 0, 62, 37
2, 56741, Note_on_c, 0, 52, 37
2, 56743, Note_on_c, 0, 71, 38
2, 56743, Note_on_c, 0, 40, 38
2, 56746, Note_on_c, 0, 64, 38
2, 56770, Note_on_c, 0, 52, 0
2, 56772, Note_on_c, 0, 40, 0
2, 56787, Note_on_c, 0, 71, 0
2, 56792, Note_on_c, 0, 68, 0
2, 56792, Note_on_c, 0, 64, 0
2, 56811, Note_on_c, 0, 71, 53
2, 56813, Note_on_c, 0, 64, 53
2, 56813, Note_on_c, 0, 68, 53
2, 56818, Note_on_c, 0, 52, 75
2, 56828, Note_on_c, 0, 40, 75
2, 56855, Note_on_c, 0, 40, 0
2, 56857, Note_on_c, 0, 68, 0
2, 56857, Note_on_c, 0, 52, 0
2, 56869, Note_on_c, 0, 71, 0
2, 56869, Note_on_c, 0, 64, 0
2, 56872, Note_on_c, 0, 62, 0
2, 56971, Note_on_c, 0, 45, 67
2, 56974, Note_on_c, 0, 57, 67
2, 56974, Note_on_c, 0, 64, 39
2, 56976, Note_on_c, 0, 69, 39
2, 56978, Note_on_c, 0, 61, 67
2, 57085, Note_on_c, 0, 57, 0
2, 57090, Note_on_c, 0, 64, 0
2, 57095, Note_on_c, 0, 61, 0
2, 57095, Note_on_c, 0, 69, 0
2, 57099, Note_on_c, 0, 45, 0
2, 57277, Note_on_c, 0, 64, 39
2, 57282, Note_on_c, 0, 73, 39
2, 57288, Note_on_c, 0, 45, 44
2, 57288, Note_on_c, 0, 69, 39
2, 57293, Note_on_c, 0, 33, 44
2, 57318, Note_on_c, 0, 33, 0
2, 57320, Note_on_c, 0, 64, 0
2, 57323, Note_on_c, 0, 69, 0
2, 57328, Note_on_c, 0, 73, 0
2, 57335, Note_on_c, 0, 45, 0
2, 57425, Note_on_c, 0, 69, 39
2, 57425, Note_on_c, 0, 73, 39
2, 57432, Note_on_c, 0, 61, 44
2, 57432, Note_on_c, 0, 52, 44
2, 57432, Note_on_c, 0, 57, 44
2, 57463, Note_on_c, 0, 57, 0
2, 57466, Note_on_c, 0, 52, 0
2, 57468, Note_on_c, 0, 61, 0
2, 57558, Note_on_c, 0, 40, 56
2, 57662, Note_on_c, 0, 73, 0
2, 57681, Note_on_c, 0, 69, 0
2, 57684, Note_on_c, 0, 52, 42
2, 57686, Note_on_c, 0, 76, 39
2, 57689, Note_on_c, 0, 40, 0
2, 57691, Note_on_c, 0, 57, 44
2, 57691, Note_on_c, 0, 73, 39
2, 57694, Note_on_c, 0, 61, 44
2, 57722, Note_on_c, 0, 57, 0
2, 57727, Note_on_c, 0, 61, 0
2, 57730, Note_on_c, 0, 73, 0
2, 57732, Note_on_c, 0, 76, 0
2, 57735, Note_on_c, 0, 52, 0
2, 57824, Note_on_c, 0, 33, 44
2, 57824, Note_on_c, 0, 45, 44
2, 57827, Note_on_c, 0, 78, 44
2, 57829, Note_on_c, 0, 72, 44
2, 57865, Note_on_c, 0, 33, 0
2, 57878, Note_on_c, 0, 45, 0
2, 57880, Note_on_c, 0, 72, 0
2, 57888, Note_on_c, 0, 78, 0
2, 57900, Note_on_c, 0, 76, 58
2, 57910, Note_on_c, 0, 73, 60
2, 57953, Note_on_c, 0, 52, 58
2, 57956, Note_on_c, 0, 57, 57
2, 57960, Note_on_c, 0, 61, 57
2, 57987, Note_on_c, 0, 61, 0
2, 57987, Note_on_c, 0, 57, 0
2, 58002, Note_on_c, 0, 52, 0
2, 58007, Note_on_c, 0, 73, 0
2, 58021, Note_on_c, 0, 76, 0
2, 58023, Note_on_c, 0, 78, 55
2, 58028, Note_on_c, 0, 72, 57
2, 58067, Note_on_c, 0, 72, 0
2, 58074, Note_on_c, 0, 76, 44
2, 58077, Note_on_c, 0, 33, 59
2, 58077, Note_on_c, 0, 73, 44
2, 58080, Note_on_c, 0, 45, 58
2, 58084, Note_on_c, 0, 78, 0
2, 58142, Note_on_c, 0, 73, 0
2, 58145, Note_on_c, 0, 76, 0
2, 58152, Note_on_c, 0, 78, 44
2, 58154, Note_on_c, 0, 72, 44
2, 58202, Note_on_c, 0, 76, 44
2, 58210, Note_on_c, 0, 52, 44
2, 58210, Note_on_c, 0, 57, 44
2, 58215, Note_on_c, 0, 61, 44
2, 58217, Note_on_c, 0, 73, 44
2, 58227, Note_on_c, 0, 33, 0
2, 58229, Note_on_c, 0, 45, 0
2, 58234, Note_on_c, 0, 73, 0
2, 58237, Note_on_c, 0, 72, 0
2, 58237, Note_on_c, 0, 57, 0
2, 58242, Note_on_c, 0, 78, 0
2, 58248, Note_on_c, 0, 61, 0
2, 58248, Note_on_c, 0, 52, 0
2, 58256, Note_on_c, 0, 76, 0
2, 58341, Note_on_c, 0, 83, 44
2, 58344, Note_on_c, 0, 38, 52
2, 58353, Note_on_c, 0, 50, 52
2, 58353, Note_on_c, 0, 77, 44
2, 58392, Note_on_c, 0, 38, 0
2, 58394, Note_on_c, 0, 50, 0
2, 58411, Note_on_c, 0, 81, 59
2, 58416, Note_on_c, 0, 77, 0
2, 58416, Note_on_c, 0, 78, 60
2, 58423, Note_on_c, 0, 83, 0
2, 58428, Note_on_c, 0, 74, 60
2, 58482, Note_on_c, 0, 62, 33
2, 58491, Note_on_c, 0, 57, 33
2, 58513, Note_on_c, 0, 62, 0
2, 58515, Note_on_c, 0, 74, 0
2, 58515, Note_on_c, 0, 81, 0
2, 58525, Note_on_c, 0, 57, 0
2, 58535, Note_on_c, 0, 78, 0
2, 58557, Note_on_c, 0, 83, 56
2, 58560, Note_on_c, 0, 77, 56
2, 58610, Note_on_c, 0, 77, 0
2, 58610, Note_on_c, 0, 78, 44
2, 58615, Note_on_c, 0, 38, 55
2, 58617, Note_on_c, 0, 81, 44
2, 58617, Note_on_c, 0, 50, 55
2, 58617, Note_on_c, 0, 74, 44
2, 58630, Note_on_c, 0, 83, 0
2, 58668, Note_on_c, 0, 81, 0
2, 58680, Note_on_c, 0, 77, 44
2, 58680, Note_on_c, 0, 83, 44
2, 58709, Note_on_c, 0, 74, 0
2, 58733, Note_on_c, 0, 81, 44
2, 58741, Note_on_c, 0, 54, 44
2, 58741, Note_on_c, 0, 62, 44
2, 58746, Note_on_c, 0, 74, 44
2, 58748, Note_on_c, 0, 77, 0
2, 58751, Note_on_c, 0, 57, 44
2, 58770, Note_on_c, 0, 38, 0
2, 58773, Note_on_c, 0, 78, 0
2, 58773, Note_on_c, 0, 81, 0
2, 58773, Note_on_c, 0, 83, 0
2, 58775, Note_on_c, 0, 50, 0
2, 58782, Note_on_c, 0, 74, 0
2, 58787, Note_on_c, 0, 57, 0
2, 58787, Note_on_c, 0, 62, 0
2, 58800, Note_on_c, 0, 54, 0
2, 58896, Note_on_c, 0, 33, 44
2, 58896, Note_on_c, 0, 45, 44
2, 58898, Note_on_c, 0, 76, 44
2, 58903, Note_on_c, 0, 73, 44
2, 58932, Note_on_c, 0, 33, 0
2, 58942, Note_on_c, 0, 45, 0
2, 59044, Note_on_c, 0, 52, 52
2, 59044, Note_on_c, 0, 57, 52
2, 59049, Note_on_c, 0, 64, 33
2, 59068, Note_on_c, 0, 73, 0
2, 59080, Note_on_c, 0, 57, 0
2, 59083, Note_on_c, 0, 52, 0
2, 59088, Note_on_c, 0, 64, 0
2, 59129, Note_on_c, 0, 66, 53
2, 59134, Note_on_c, 0, 76, 0
2, 59162, Note_on_c, 0, 66, 0
2, 59167, Note_on_c, 0, 40, 47
2, 59170, Note_on_c, 0, 68, 39
2, 59189, Note_on_c, 0, 40, 0
2, 59207, Note_on_c, 0, 68, 0
2, 59240, Note_on_c, 0, 69, 34
2, 59277, Note_on_c, 0, 69, 0
2, 59286, Note_on_c, 0, 62, 44
2, 59301, Note_on_c, 0, 52, 44
2, 59301, Note_on_c, 0, 71, 39
2, 59332, Note_on_c, 0, 62, 0
2, 59337, Note_on_c, 0, 71, 0
2, 59350, Note_on_c, 0, 52, 0
2, 59366, Note_on_c, 0, 72, 39
2, 59410, Note_on_c, 0, 72, 0
2, 59422, Note_on_c, 0, 33, 46
2, 59427, Note_on_c, 0, 45, 60
2, 59429, Note_on_c, 0, 73, 47
2, 59434, Note_on_c, 0, 69, 46
2, 59456, Note_on_c, 0, 33, 0
2, 59461, Note_on_c, 0, 69, 0
2, 59461, Note_on_c, 0, 73, 0
2, 59478, Note_on_c, 0, 45, 0
2, 59560, Note_on_c, 0, 73, 44
2, 59565, Note_on_c, 0, 57, 49
2, 59565, Note_on_c, 0, 61, 49
2, 59570, Note_on_c, 0, 69, 44
2, 59572, Note_on_c, 0, 52, 48
2, 59599, Note_on_c, 0, 61, 0
2, 59599, Note_on_c, 0, 57, 0
2, 59604, Note_on_c, 0, 52, 0
2, 59708, Note_on_c, 0, 28, 44
2, 59715, Note_on_c, 0, 40, 44
2, 59810, Note_on_c, 0, 73, 0
2, 59827, Note_on_c, 0, 69, 0
2, 59830, Note_on_c, 0, 40, 0
2, 59830, Note_on_c, 0, 52, 44
2, 59832, Note_on_c, 0, 76, 39
2, 59836, Note_on_c, 0, 28, 0
2, 59839, Note_on_c, 0, 57, 44
2, 59841, Note_on_c, 0, 73, 39
2, 59844, Note_on_c, 0, 61, 44
2, 59885, Note_on_c, 0, 73, 0
2, 59887, Note_on_c, 0, 57, 0
2, 59887, Note_on_c, 0, 61, 0
2, 59892, Note_on_c, 0, 76, 0
2, 59892, Note_on_c, 0, 52, 0
2, 59977, Note_on_c, 0, 33, 44
2, 59979, Note_on_c, 0, 78, 44
2, 59979, Note_on_c, 0, 45, 44
2, 59979, Note_on_c, 0, 72, 44
2, 60050, Note_on_c, 0, 72, 0
2, 60052, Note_on_c, 0, 76, 49
2, 60055, Note_on_c, 0, 73, 49
2, 60084, Note_on_c, 0, 78, 0
2, 60103, Note_on_c, 0, 52, 33
2, 60103, Note_on_c, 0, 57, 33
2, 60106, Note_on_c, 0, 61, 33
2, 60125, Note_on_c, 0, 45, 0
2, 60127, Note_on_c, 0, 33, 0
2, 60137, Note_on_c, 0, 73, 0
2, 60144, Note_on_c, 0, 76, 0
2, 60147, Note_on_c, 0, 61, 0
2, 60147, Note_on_c, 0, 57, 0
2, 60147, Note_on_c, 0, 52, 0
2, 60168, Note_on_c, 0, 78, 52
2, 60176, Note_on_c, 0, 72, 55
2, 60215, Note_on_c, 0, 72, 0
2, 60224, Note_on_c, 0, 76, 44
2, 60232, Note_on_c, 0, 73, 44
2, 60237, Note_on_c, 0, 34, 58
2, 60240, Note_on_c, 0, 46, 57
2, 60244, Note_on_c, 0, 78, 0
2, 60285, Note_on_c, 0, 76, 0
2, 60297, Note_on_c, 0, 73, 0
2, 60297, Note_on_c, 0, 72, 52
2, 60305, Note_on_c, 0, 78, 52
2, 60346, Note_on_c, 0, 55, 44
2, 60346, Note_on_c, 0, 76, 44
2, 60348, Note_on_c, 0, 73, 44
2, 60351, Note_on_c, 0, 58, 44
2, 60356, Note_on_c, 0, 61, 44
2, 60358, Note_on_c, 0, 72, 0
2, 60360, Note_on_c, 0, 34, 0
2, 60362, Note_on_c, 0, 46, 0
2, 60370, Note_on_c, 0, 76, 0
2, 60375, Note_on_c, 0, 78, 0
2, 60382, Note_on_c, 0, 73, 0
2, 60389, Note_on_c, 0, 55, 0
2, 60394, Note_on_c, 0, 61, 0
2, 60399, Note_on_c, 0, 58, 0
2, 60481, Note_on_c, 0, 35, 42
2, 60486, Note_on_c, 0, 76, 44
2, 60491, Note_on_c, 0, 68, 44
2, 60494, Note_on_c, 0, 47, 44
2, 60540, Note_on_c, 0, 68, 0
2, 60571, Note_on_c, 0, 71, 46
2, 60576, Note_on_c, 0, 68, 48
2, 60602, Note_on_c, 0, 35, 0
2, 60605, Note_on_c, 0, 71, 0
2, 60615, Note_on_c, 0, 76, 0
2, 60617, Note_on_c, 0, 56, 58
2, 60620, Note_on_c, 0, 47, 0
2, 60620, Note_on_c, 0, 68, 0
2, 60622, Note_on_c, 0, 59, 58
2, 60622, Note_on_c, 0, 64, 39
2, 60653, Note_on_c, 0, 64, 0
2, 60663, Note_on_c, 0, 59, 0
2, 60666, Note_on_c, 0, 56, 0
2, 60699, Note_on_c, 0, 76, 52
2, 60744, Note_on_c, 0, 76, 0
2, 60753, Note_on_c, 0, 47, 59
2, 60755, Note_on_c, 0, 75, 39
2, 60760, Note_on_c, 0, 35, 58
2, 60816, Note_on_c, 0, 76, 45
2, 60872, Note_on_c, 0, 35, 0
2, 60877, Note_on_c, 0, 57, 44
2, 60877, Note_on_c, 0, 78, 44
2, 60882, Note_on_c, 0, 47, 0
2, 60882, Note_on_c, 0, 63, 44
2, 60882, Note_on_c, 0, 59, 44
2, 60887, Note_on_c, 0, 75, 0
2, 60911, Note_on_c, 0, 76, 0
2, 60918, Note_on_c, 0, 57, 0
2, 60920, Note_on_c, 0, 59, 0
2, 60925, Note_on_c, 0, 63, 0
2, 60930, Note_on_c, 0, 78, 0
2, 61020, Note_on_c, 0, 71, 39
2, 61020, Note_on_c, 0, 76, 39
2, 61027, Note_on_c, 0, 64, 39
2, 61027, Note_on_c, 0, 68, 39
2, 61032, Note_on_c, 0, 52, 52
2, 61078, Note_on_c, 0, 64, 0
2, 61092, Note_on_c, 0, 52, 0
2, 61160, Note_on_c, 0, 62, 33
2, 61168, Note_on_c, 0, 50, 33
2, 61216, Note_on_c, 0, 71, 0
2, 61221, Note_on_c, 0, 62, 0
2, 61224, Note_on_c, 0, 76, 0
2, 61230, Note_on_c, 0, 68, 0
2, 61257, Note_on_c, 0, 50, 0
2, 61298, Note_on_c, 0, 49, 52
2, 61303, Note_on_c, 0, 61, 52
2, 61344, Note_on_c, 0, 61, 0
2, 61344, Note_on_c, 0, 49, 0
2, 61367, Note_on_c, 0, 64, 52
2, 61432, Note_on_c, 0, 59, 33
2, 61441, Note_on_c, 0, 47, 33
2, 61441, Note_on_c, 0, 68, 33
2, 61465, Note_on_c, 0, 59, 0
2, 61470, Note_on_c, 0, 64, 0
2, 61475, Note_on_c, 0, 47, 0
2, 61505, Note_on_c, 0, 74, 54
2, 61507, Note_on_c, 0, 68, 0
2, 61556, Note_on_c, 0, 45, 58
2, 61556, Note_on_c, 0, 64, 39
2, 61558, Note_on_c, 0, 69, 39
2, 61560, Note_on_c, 0, 57, 57
2, 61562, Note_on_c, 0, 73, 39
2, 61592, Note_on_c, 0, 73, 0
2, 61597, Note_on_c, 0, 74, 0
2, 61599, Note_on_c, 0, 45, 0
2, 61599, Note_on_c, 0, 57, 0
2, 61602, Note_on_c, 0, 64, 0
2, 61607, Note_on_c, 0, 69, 0
2, 61689, Note_on_c, 0, 64, 44
2, 61691, Note_on_c, 0, 52, 44
2, 61691, Note_on_c, 0, 73, 44
2, 61694, Note_on_c, 0, 57, 44
2, 61696, Note_on_c, 0, 69, 44
2, 61737, Note_on_c, 0, 57, 0
2, 61750, Note_on_c, 0, 52, 0
2, 61822, Note_on_c, 0, 52, 43
2, 61837, Note_on_c, 0, 64, 0
2, 61837, Note_on_c, 0, 40, 47
2, 61844, Note_on_c, 0, 69, 0
2, 61844, Note_on_c, 0, 73, 0
2, 61948, Note_on_c, 0, 52, 0
2, 61960, Note_on_c, 0, 40, 0
2, 61963, Note_on_c, 0, 76, 44
2, 61970, Note_on_c, 0, 57, 44
2, 61972, Note_on_c, 0, 73, 44
2, 61972, Note_on_c, 0, 52, 44
2, 61972, Note_on_c, 0, 61, 44
2, 62009, Note_on_c, 0, 57, 0
2, 62014, Note_on_c, 0, 61, 0
2, 62021, Note_on_c, 0, 52, 0
2, 62069, Note_on_c, 0, 73, 0
2, 62074, Note_on_c, 0, 76, 0
2, 62088, Note_on_c, 0, 78, 44
2, 62096, Note_on_c, 0, 72, 44
2, 62098, Note_on_c, 0, 33, 67
2, 62098, Note_on_c, 0, 45, 67
2, 62139, Note_on_c, 0, 33, 0
2, 62147, Note_on_c, 0, 45, 0
2, 62171, Note_on_c, 0, 76, 76
2, 62179, Note_on_c, 0, 72, 0
2, 62179, Note_on_c, 0, 73, 75
2, 62198, Note_on_c, 0, 78, 0
2, 62230, Note_on_c, 0, 57, 55
2, 62230, Note_on_c, 0, 64, 55
2, 62234, Note_on_c, 0, 61, 54
2, 62263, Note_on_c, 0, 61, 0
2, 62271, Note_on_c, 0, 57, 0
2, 62271, Note_on_c, 0, 64, 0
2, 62278, Note_on_c, 0, 73, 0
2, 62282, Note_on_c, 0, 76, 0
2, 62287, Note_on_c, 0, 78, 39
2, 62295, Note_on_c, 0, 72, 39
2, 62338, Note_on_c, 0, 72, 0
2, 62341, Note_on_c, 0, 45, 75
2, 62343, Note_on_c, 0, 76, 39
2, 62351, Note_on_c, 0, 33, 39
2, 62353, Note_on_c, 0, 73, 39
2, 62363, Note_on_c, 0, 78, 0
2, 62377, Note_on_c, 0, 33, 0
2, 62377, Note_on_c, 0, 45, 0
2, 62416, Note_on_c, 0, 78, 44
2, 62440, Note_on_c, 0, 76, 0
2, 62443, Note_on_c, 0, 73, 0
2, 62443, Note_on_c, 0, 72, 44
2, 62460, Note_on_c, 0, 76, 90
2, 62467, Note_on_c, 0, 57, 89
2, 62470, Note_on_c, 0, 61, 89
2, 62470, Note_on_c, 0, 64, 89
2, 62472, Note_on_c, 0, 73, 89
2, 62498, Note_on_c, 0, 72, 0
2, 62498, Note_on_c, 0, 78, 0
2, 62506, Note_on_c, 0, 61, 0
2, 62511, Note_on_c, 0, 73, 0
2, 62513, Note_on_c, 0, 57, 0
2, 62513, Note_on_c, 0, 64, 0
2, 62516, Note_on_c, 0, 76, 0
2, 62605, Note_on_c, 0, 38, 76
2, 62605, Note_on_c, 0, 83, 39
2, 62608, Note_on_c, 0, 77, 39
2, 62610, Note_on_c, 0, 50, 76
2, 62661, Note_on_c, 0, 77, 0
2, 62680, Note_on_c, 0, 83, 0
2, 62683, Note_on_c, 0, 81, 46
2, 62692, Note_on_c, 0, 78, 45
2, 62695, Note_on_c, 0, 74, 45
2, 62729, Note_on_c, 0, 54, 44
2, 62734, Note_on_c, 0, 62, 44
2, 62751, Note_on_c, 0, 38, 0
2, 62751, Note_on_c, 0, 50, 0
2, 62770, Note_on_c, 0, 74, 0
2, 62770, Note_on_c, 0, 62, 0
2, 62772, Note_on_c, 0, 81, 0
2, 62772, Note_on_c, 0, 54, 0
2, 62782, Note_on_c, 0, 78, 0
2, 62804, Note_on_c, 0, 83, 44
2, 62807, Note_on_c, 0, 77, 44
2, 62857, Note_on_c, 0, 38, 48
2, 62862, Note_on_c, 0, 74, 44
2, 62864, Note_on_c, 0, 50, 50
2, 62864, Note_on_c, 0, 81, 44
2, 62867, Note_on_c, 0, 77, 0
2, 62867, Note_on_c, 0, 78, 44
2, 62886, Note_on_c, 0, 38, 0
2, 62904, Note_on_c, 0, 50, 0
2, 62905, Note_on_c, 0, 83, 0
2, 62925, Note_on_c, 0, 74, 0
2, 62928, Note_on_c, 0, 83, 44
2, 62935, Note_on_c, 0, 77, 44
2, 62961, Note_on_c, 0, 81, 0
2, 62966, Note_on_c, 0, 78, 0
2, 62983, Note_on_c, 0, 59, 33
2, 62983, Note_on_c, 0, 54, 33
2, 62983, Note_on_c, 0, 57, 33
2, 62991, Note_on_c, 0, 81, 35
2, 62998, Note_on_c, 0, 77, 0
2, 62998, Note_on_c, 0, 78, 37
2, 63002, Note_on_c, 0, 74, 38
2, 63022, Note_on_c, 0, 59, 0
2, 63027, Note_on_c, 0, 57, 0
2, 63029, Note_on_c, 0, 54, 0
2, 63032, Note_on_c, 0, 78, 0
2, 63042, Note_on_c, 0, 83, 0
2, 63048, Note_on_c, 0, 74, 0
2, 63058, Note_on_c, 0, 81, 0
2, 63066, Note_on_c, 0, 85, 57
2, 63068, Note_on_c, 0, 73, 57
2, 63068, Note_on_c, 0, 80, 57
2, 63071, Note_on_c, 0, 77, 57
2, 63114, Note_on_c, 0, 37, 67
2, 63134, Note_on_c, 0, 49, 67
2, 63145, Note_on_c, 0, 73, 0
2, 63192, Note_on_c, 0, 37, 0
2, 63201, Note_on_c, 0, 73, 91
2, 63218, Note_on_c, 0, 77, 0
2, 63226, Note_on_c, 0, 49, 0
2, 63252, Note_on_c, 0, 77, 63
2, 63255, Note_on_c, 0, 32, 37
2, 63257, Note_on_c, 0, 44, 39
2, 63279, Note_on_c, 0, 73, 0
2, 63279, Note_on_c, 0, 80, 0
2, 63311, Note_on_c, 0, 32, 0
2, 63313, Note_on_c, 0, 80, 42
2, 63323, Note_on_c, 0, 44, 0
2, 63333, Note_on_c, 0, 85, 0
2, 63374, Note_on_c, 0, 85, 53
2, 63384, Note_on_c, 0, 73, 53
2, 63385, Note_on_c, 0, 37, 53
2, 63390, Note_on_c, 0, 25, 53
2, 63403, Note_on_c, 0, 73, 0
2, 63408, Note_on_c, 0, 85, 0
2, 63415, Note_on_c, 0, 80, 0
2, 63415, Note_on_c, 0, 77, 0
2, 63422, Note_on_c, 0, 25, 0
2, 63444, Note_on_c, 0, 25, 60
2, 63451, Note_on_c, 0, 37, 0
2, 63463, Note_on_c, 0, 25, 0
2, 63531, Note_on_c, 0, 73, 60
2, 63611, Note_on_c, 0, 80, 60
2, 63628, Note_on_c, 0, 73, 0
2, 63648, Note_on_c, 0, 80, 0
2, 63660, Note_on_c, 0, 83, 44
2, 63665, Note_on_c, 0, 74, 44
2, 63670, Note_on_c, 0, 77, 44
2, 63672, Note_on_c, 0, 50, 55
2, 63674, Note_on_c, 0, 38, 55
2, 63703, Note_on_c, 0, 77, 0
2, 63718, Note_on_c, 0, 50, 0
2, 63722, Note_on_c, 0, 38, 0
2, 63732, Note_on_c, 0, 74, 0
2, 63735, Note_on_c, 0, 83, 0
2, 63749, Note_on_c, 0, 78, 39
2, 63749, Note_on_c, 0, 81, 39
2, 63757, Note_on_c, 0, 74, 39
2, 63803, Note_on_c, 0, 57, 72
2, 63805, Note_on_c, 0, 54, 71
2, 63829, Note_on_c, 0, 74, 0
2, 63840, Note_on_c, 0, 57, 0
2, 63840, Note_on_c, 0, 54, 0
2, 63841, Note_on_c, 0, 81, 0
2, 63851, Note_on_c, 0, 78, 0
2, 63864, Note_on_c, 0, 74, 39
2, 63864, Note_on_c, 0, 83, 39
2, 63868, Note_on_c, 0, 77, 39
2, 63900, Note_on_c, 0, 77, 0
2, 63900, Note_on_c, 0, 38, 60
2, 63916, Note_on_c, 0, 50, 33
2, 63941, Note_on_c, 0, 74, 0
2, 63946, Note_on_c, 0, 50, 0
2, 63953, Note_on_c, 0, 83, 0
2, 63960, Note_on_c, 0, 38, 0
2, 63984, Note_on_c, 0, 81, 39
2, 64045, Note_on_c, 0, 78, 39
2, 64053, Note_on_c, 0, 57, 57
2, 64055, Note_on_c, 0, 54, 57
2, 64084, Note_on_c, 0, 57, 0
2, 64089, Note_on_c, 0, 54, 0
2, 64110, Note_on_c, 0, 74, 47
2, 64142, Note_on_c, 0, 81, 0
2, 64152, Note_on_c, 0, 78, 0
2, 64166, Note_on_c, 0, 74, 0
2, 64169, Note_on_c, 0, 40, 57
2, 64174, Note_on_c, 0, 52, 56
2, 64178, Note_on_c, 0, 76, 44
2, 64183, Note_on_c, 0, 73, 44
2, 64198, Note_on_c, 0, 40, 0
2, 64227, Note_on_c, 0, 52, 0
2, 64239, Note_on_c, 0, 73, 0
2, 64244, Note_on_c, 0, 78, 39
2, 64253, Note_on_c, 0, 74, 39
2, 64261, Note_on_c, 0, 76, 0
2, 64278, Note_on_c, 0, 74, 0
2, 64285, Note_on_c, 0, 78, 0
2, 64302, Note_on_c, 0, 57, 38
2, 64302, Note_on_c, 0, 52, 38
2, 64320, Note_on_c, 0, 76, 36
2, 64324, Note_on_c, 0, 73, 35
2, 64336, Note_on_c, 0, 57, 0
2, 64345, Note_on_c, 0, 52, 0
2, 64368, Note_on_c, 0, 76, 0
2, 64375, Note_on_c, 0, 73, 0
2, 64375, Note_on_c, 0, 71, 35
2, 64382, Note_on_c, 0, 74, 36
2, 64426, Note_on_c, 0, 74, 0
2, 64426, Note_on_c, 0, 71, 0
2, 64426, Note_on_c, 0, 45, 44
2, 64436, Note_on_c, 0, 73, 41
2, 64440, Note_on_c, 0, 57, 42
2, 64440, Note_on_c, 0, 69, 42
2, 64467, Note_on_c, 0, 45, 0
2, 64477, Note_on_c, 0, 69, 0
2, 64479, Note_on_c, 0, 57, 0
2, 64487, Note_on_c, 0, 73, 0
2, 64503, Note_on_c, 0, 76, 39
2, 64513, Note_on_c, 0, 73, 39
2, 64537, Note_on_c, 0, 57, 39
2, 64581, Note_on_c, 0, 57, 0
2, 64595, Note_on_c, 0, 76, 0
2, 64622, Note_on_c, 0, 76, 49
2, 64636, Note_on_c, 0, 69, 53
2, 64661, Note_on_c, 0, 73, 0
2, 64668, Note_on_c, 0, 69, 0
2, 64668, Note_on_c, 0, 76, 0
2, 64700, Note_on_c, 0, 52, 58
2, 64700, Note_on_c, 0, 76, 39
2, 64707, Note_on_c, 0, 70, 39
2, 64738, Note_on_c, 0, 52, 0
2, 64753, Note_on_c, 0, 70, 0
2, 64765, Note_on_c, 0, 68, 39
2, 64765, Note_on_c, 0, 74, 39
2, 64770, Note_on_c, 0, 71, 39
2, 64773, Note_on_c, 0, 76, 0
2, 64811, Note_on_c, 0, 62, 51
2, 64819, Note_on_c, 0, 56, 50
2, 64819, Note_on_c, 0, 52, 50
2, 64833, Note_on_c, 0, 71, 0
2, 64835, Note_on_c, 0, 68, 0
2, 64850, Note_on_c, 0, 56, 0
2, 64850, Note_on_c, 0, 62, 0
2, 64850, Note_on_c, 0, 52, 0
2, 64857, Note_on_c, 0, 74, 0
2, 64884, Note_on_c, 0, 70, 39
2, 64886, Note_on_c, 0, 76, 39
2, 64937, Note_on_c, 0, 71, 39
2, 64940, Note_on_c, 0, 74, 39
2, 64944, Note_on_c, 0, 40, 53
2, 64947, Note_on_c, 0, 70, 0
2, 64967, Note_on_c, 0, 28, 39
2, 64978, Note_on_c, 0, 40, 0
2, 64991, Note_on_c, 0, 76, 0
2, 64993, Note_on_c, 0, 28, 0
2, 64993, Note_on_c, 0, 71, 0
2, 65010, Note_on_c, 0, 73, 39
2, 65013, Note_on_c, 0, 64, 39
2, 65013, Note_on_c, 0, 68, 39
2, 65040, Note_on_c, 0, 74, 0
2, 65054, Note_on_c, 0, 68, 0
2, 65054, Note_on_c, 0, 62, 44
2, 65056, Note_on_c, 0, 71, 39
2, 65061, Note_on_c, 0, 56, 44
2, 65064, Note_on_c, 0, 64, 0
2, 65065, Note_on_c, 0, 52, 44
2, 65090, Note_on_c, 0, 73, 0
2, 65095, Note_on_c, 0, 56, 0
2, 65100, Note_on_c, 0, 62, 0
2, 65105, Note_on_c, 0, 52, 0
2, 65107, Note_on_c, 0, 71, 0
2, 65189, Note_on_c, 0, 45, 50
2, 65194, Note_on_c, 0, 69, 44
2, 65197, Note_on_c, 0, 61, 52
2, 65202, Note_on_c, 0, 33, 54
2, 65264, Note_on_c, 0, 45, 0
2, 65272, Note_on_c, 0, 33, 0
2, 65330, Note_on_c, 0, 40, 60
2, 65371, Note_on_c, 0, 40, 0
2, 65473, Note_on_c, 0, 61, 0
2, 65475, Note_on_c, 0, 45, 33
2, 65480, Note_on_c, 0, 69, 0
2, 65485, Note_on_c, 0, 33, 33
2, 65529, Note_on_c, 0, 45, 0
2, 65534, Note_on_c, 0, 33, 0
2, 65534, Note_on_c, 0, 81, 50
2, 65539, Note_on_c, 0, 69, 52
2, 65563, Note_on_c, 0, 81, 0
2, 65580, Note_on_c, 0, 69, 0
2, 65594, Note_on_c, 0, 71, 83
2, 65596, Note_on_c, 0, 83, 82
2, 65621, Note_on_c, 0, 71, 0
2, 65638, Note_on_c, 0, 83, 0
2, 65674, Note_on_c, 0, 84, 70
2, 65674, Note_on_c, 0, 72, 70
2, 65701, Note_on_c, 0, 84, 0
2, 65706, Note_on_c, 0, 72, 0
2, 65715, Note_on_c, 0, 85, 55
2, 65715, Note_on_c, 0, 33, 74
2, 65723, Note_on_c, 0, 45, 73
2, 65723, Note_on_c, 0, 79, 57
2, 65733, Note_on_c, 0, 73, 57
2, 65733, Note_on_c, 0, 81, 57
2, 65747, Note_on_c, 0, 85, 0
2, 65752, Note_on_c, 0, 33, 0
2, 65752, Note_on_c, 0, 81, 0
2, 65757, Note_on_c, 0, 79, 0
2, 65757, Note_on_c, 0, 73, 0
2, 65774, Note_on_c, 0, 45, 0
2, 65858, Note_on_c, 0, 81, 39
2, 65866, Note_on_c, 0, 69, 39
2, 65866, Note_on_c, 0, 55, 52
2, 65866, Note_on_c, 0, 57, 52
2, 65871, Note_on_c, 0, 52, 52
2, 65871, Note_on_c, 0, 61, 52
2, 65907, Note_on_c, 0, 61, 0
2, 65907, Note_on_c, 0, 55, 0
2, 65907, Note_on_c, 0, 57, 0
2, 65909, Note_on_c, 0, 81, 0
2, 65909, Note_on_c, 0, 69, 0
2, 65917, Note_on_c, 0, 52, 0
2, 65936, Note_on_c, 0, 83, 49
2, 65938, Note_on_c, 0, 71, 49
2, 65943, Note_on_c, 0, 79, 49
2, 65994, Note_on_c, 0, 40, 59
2, 66000, Note_on_c, 0, 52, 58
2, 66091, Note_on_c, 0, 52, 0
2, 66108, Note_on_c, 0, 40, 0
2, 66111, Note_on_c, 0, 61, 33
2, 66120, Note_on_c, 0, 52, 33
2, 66122, Note_on_c, 0, 55, 33
2, 66122, Note_on_c, 0, 57, 33
2, 66140, Note_on_c, 0, 79, 0
2, 66147, Note_on_c, 0, 61, 0
2, 66154, Note_on_c, 0, 83, 0
2, 66154, Note_on_c, 0, 71, 0
2, 66157, Note_on_c, 0, 57, 0
2, 66159, Note_on_c, 0, 55, 0
2, 66164, Note_on_c, 0, 52, 0
2, 66244, Note_on_c, 0, 85, 44
2, 66249, Note_on_c, 0, 45, 45
2, 66249, Note_on_c, 0, 79, 44
2, 66251, Note_on_c, 0, 33, 46
2, 66251, Note_on_c, 0, 81, 44
2, 66254, Note_on_c, 0, 73, 44
2, 66285, Note_on_c, 0, 85, 0
2, 66290, Note_on_c, 0, 81, 0
2, 66300, Note_on_c, 0, 79, 0
2, 66300, Note_on_c, 0, 73, 0
2, 66367, Note_on_c, 0, 33, 0
2, 66380, Note_on_c, 0, 45, 0
2, 66380, Note_on_c, 0, 52, 39
2, 66384, Note_on_c, 0, 61, 39
2, 66392, Note_on_c, 0, 81, 39
2, 66394, Note_on_c, 0, 55, 39
2, 66397, Note_on_c, 0, 69, 39
2, 66423, Note_on_c, 0, 61, 0
2, 66428, Note_on_c, 0, 81, 0
2, 66433, Note_on_c, 0, 69, 0
2, 66435, Note_on_c, 0, 55, 0
2, 66443, Note_on_c, 0, 52, 0
2, 66459, Note_on_c, 0, 83, 39
2, 66467, Note_on_c, 0, 71, 39
2, 66508, Note_on_c, 0, 40, 39
2, 66515, Note_on_c, 0, 52, 39
2, 66520, Note_on_c, 0, 83, 0
2, 66535, Note_on_c, 0, 71, 0
2, 66574, Note_on_c, 0, 81, 46
2, 66588, Note_on_c, 0, 69, 50
2, 66607, Note_on_c, 0, 81, 0
2, 66622, Note_on_c, 0, 55, 60
2, 66624, Note_on_c, 0, 69, 0
2, 66627, Note_on_c, 0, 52, 0
2, 66627, Note_on_c, 0, 61, 60
2, 66627, Note_on_c, 0, 57, 60
2, 66632, Note_on_c, 0, 40, 0
2, 66632, Note_on_c, 0, 83, 39
2, 66632, Note_on_c, 0, 71, 39
2, 66663, Note_on_c, 0, 83, 0
2, 66668, Note_on_c, 0, 55, 0
2, 66668, Note_on_c, 0, 71, 0
2, 66671, Note_on_c, 0, 57, 0
2, 66673, Note_on_c, 0, 61, 0
2, 66688, Note_on_c, 0, 85, 46
2, 66693, Note_on_c, 0, 73, 46
2, 66720, Note_on_c, 0, 73, 0
2, 66720, Note_on_c, 0, 85, 0
2, 66741, Note_on_c, 0, 81, 61
2, 66744, Note_on_c, 0, 38, 75
2, 66745, Note_on_c, 0, 78, 61
2, 66745, Note_on_c, 0, 86, 61
2, 66750, Note_on_c, 0, 74, 61
2, 66755, Note_on_c, 0, 50, 73
2, 66782, Note_on_c, 0, 86, 0
2, 66782, Note_on_c, 0, 81, 0
2, 66785, Note_on_c, 0, 78, 0
2, 66806, Note_on_c, 0, 74, 0
2, 66869, Note_on_c, 0, 50, 0
2, 66869, Note_on_c, 0, 38, 0
2, 66879, Note_on_c, 0, 81, 39
2, 66882, Note_on_c, 0, 57, 39
2, 66884, Note_on_c, 0, 66, 39
2, 66884, Note_on_c, 0, 78, 39
2, 66887, Note_on_c, 0, 62, 39
2, 66888, Note_on_c, 0, 74, 39
2, 66893, Note_on_c, 0, 69, 39
2, 66915, Note_on_c, 0, 78, 0
2, 66920, Note_on_c, 0, 66, 0
2, 66920, Note_on_c, 0, 74, 0
2, 66925, Note_on_c, 0, 62, 0
2, 66930, Note_on_c, 0, 69, 0
2, 66933, Note_on_c, 0, 81, 0
2, 66935, Note_on_c, 0, 57, 0
2, 66974, Note_on_c, 0, 78, 39
2, 66976, Note_on_c, 0, 83, 39
2, 66976, Note_on_c, 0, 71, 39
2, 66976, Note_on_c, 0, 74, 39
2, 67025, Note_on_c, 0, 33, 52
2, 67027, Note_on_c, 0, 45, 52
2, 67146, Note_on_c, 0, 62, 33
2, 67148, Note_on_c, 0, 57, 33
2, 67151, Note_on_c, 0, 33, 0
2, 67151, Note_on_c, 0, 66, 57
2, 67163, Note_on_c, 0, 45, 0
2, 67173, Note_on_c, 0, 74, 0
2, 67173, Note_on_c, 0, 71, 0
2, 67175, Note_on_c, 0, 78, 0
2, 67184, Note_on_c, 0, 62, 0
2, 67184, Note_on_c, 0, 66, 0
2, 67187, Note_on_c, 0, 83, 0
2, 67201, Note_on_c, 0, 57, 0
2, 67260, Note_on_c, 0, 81, 49
2, 67265, Note_on_c, 0, 74, 49
2, 67265, Note_on_c, 0, 78, 49
2, 67270, Note_on_c, 0, 86, 49
2, 67279, Note_on_c, 0, 50, 52
2, 67281, Note_on_c, 0, 38, 52
2, 67306, Note_on_c, 0, 81, 0
2, 67311, Note_on_c, 0, 86, 0
2, 67311, Note_on_c, 0, 78, 0
2, 67325, Note_on_c, 0, 74, 0
2, 67381, Note_on_c, 0, 81, 39
2, 67393, Note_on_c, 0, 50, 0
2, 67395, Note_on_c, 0, 74, 39
2, 67395, Note_on_c, 0, 57, 39
2, 67395, Note_on_c, 0, 66, 39
2, 67398, Note_on_c, 0, 62, 39
2, 67400, Note_on_c, 0, 69, 39
2, 67413, Note_on_c, 0, 38, 0
2, 67432, Note_on_c, 0, 66, 0
2, 67432, Note_on_c, 0, 69, 0
2, 67437, Note_on_c, 0, 62, 0
2, 67444, Note_on_c, 0, 81, 0
2, 67444, Note_on_c, 0, 57, 0
2, 67449, Note_on_c, 0, 74, 0
2, 67470, Note_on_c, 0, 78, 39
2, 67470, Note_on_c, 0, 71, 39
2, 67470, Note_on_c, 0, 74, 39
2, 67473, Note_on_c, 0, 83, 39
2, 67534, Note_on_c, 0, 54, 67
2, 67536, Note_on_c, 0, 42, 67
2, 67655, Note_on_c, 0, 42, 0
2, 67662, Note_on_c, 0, 54, 0
2, 67667, Note_on_c, 0, 53, 43
2, 67669, Note_on_c, 0, 41, 44
2, 67728, Note_on_c, 0, 78, 0
2, 67728, Note_on_c, 0, 83, 0
2, 67737, Note_on_c, 0, 74, 0
2, 67759, Note_on_c, 0, 71, 0
2, 67796, Note_on_c, 0, 25, 56
2, 67810, Note_on_c, 0, 41, 0
2, 67810, Note_on_c, 0, 52, 59
2, 67815, Note_on_c, 0, 25, 0
2, 67820, Note_on_c, 0, 53, 0
2, 67827, Note_on_c, 0, 40, 56
2, 67832, Note_on_c, 0, 25, 56
2, 67863, Note_on_c, 0, 40, 0
2, 67875, Note_on_c, 0, 52, 0
2, 67878, Note_on_c, 0, 25, 0
2, 67929, Note_on_c, 0, 83, 44
2, 67941, Note_on_c, 0, 79, 44
2, 67941, Note_on_c, 0, 55, 52
2, 67941, Note_on_c, 0, 61, 52
2, 67944, Note_on_c, 0, 57, 52
2, 67953, Note_on_c, 0, 73, 44
2, 67975, Note_on_c, 0, 79, 0
2, 67980, Note_on_c, 0, 73, 0
2, 67982, Note_on_c, 0, 57, 0
2, 67985, Note_on_c, 0, 55, 0
2, 67990, Note_on_c, 0, 83, 0
2, 67992, Note_on_c, 0, 61, 0
2, 68018, Note_on_c, 0, 79, 45
2, 68018, Note_on_c, 0, 81, 45
2, 68031, Note_on_c, 0, 73, 43
2, 68077, Note_on_c, 0, 61, 52
2, 68082, Note_on_c, 0, 55, 52
2, 68088, Note_on_c, 0, 57, 52
2, 68123, Note_on_c, 0, 61, 0
2, 68128, Note_on_c, 0, 57, 0
2, 68133, Note_on_c, 0, 55, 0
2, 68208, Note_on_c, 0, 45, 52
2, 68212, Note_on_c, 0, 33, 52
2, 68249, Note_on_c, 0, 33, 0
2, 68254, Note_on_c, 0, 45, 0
2, 68341, Note_on_c, 0, 52, 47
2, 68346, Note_on_c, 0, 40, 46
2, 68370, Note_on_c, 0, 73, 0
2, 68370, Note_on_c, 0, 79, 0
2, 68373, Note_on_c, 0, 81, 0
2, 68384, Note_on_c, 0, 40, 0
2, 68384, Note_on_c, 0, 52, 0
2, 68462, Note_on_c, 0, 79, 44
2, 68472, Note_on_c, 0, 83, 44
2, 68476, Note_on_c, 0, 55, 60
2, 68479, Note_on_c, 0, 73, 44
2, 68479, Note_on_c, 0, 57, 60
2, 68479, Note_on_c, 0, 61, 60
2, 68498, Note_on_c, 0, 79, 0
2, 68511, Note_on_c, 0, 73, 0
2, 68513, Note_on_c, 0, 57, 0
2, 68516, Note_on_c, 0, 83, 0
2, 68516, Note_on_c, 0, 61, 0
2, 68516, Note_on_c, 0, 55, 0
2, 68554, Note_on_c, 0, 79, 39
2, 68562, Note_on_c, 0, 73, 39
2, 68562, Note_on_c, 0, 81, 39
2, 68595, Note_on_c, 0, 61, 56
2, 68595, Note_on_c, 0, 55, 56
2, 68595, Note_on_c, 0, 57, 56
2, 68632, Note_on_c, 0, 61, 0
2, 68637, Note_on_c, 0, 57, 0
2, 68644, Note_on_c, 0, 55, 0
2, 68746, Note_on_c, 0, 33, 52
2, 68746, Note_on_c, 0, 45, 52
2, 68777, Note_on_c, 0, 45, 0
2, 68782, Note_on_c, 0, 33, 0
2, 68872, Note_on_c, 0, 38, 60
2, 68877, Note_on_c, 0, 50, 60
2, 68910, Note_on_c, 0, 38, 0
2, 68928, Note_on_c, 0, 50, 0
2, 68935, Note_on_c, 0, 73, 0
2, 68991, Note_on_c, 0, 83, 44
2, 68993, Note_on_c, 0, 78, 44
2, 68996, Note_on_c, 0, 74, 44
2, 68996, Note_on_c, 0, 57, 44
2, 68996, Note_on_c, 0, 62, 44
2, 68998, Note_on_c, 0, 66, 44
2, 69007, Note_on_c, 0, 79, 0
2, 69015, Note_on_c, 0, 81, 0
2, 69027, Note_on_c, 0, 83, 0
2, 69029, Note_on_c, 0, 66, 0
2, 69029, Note_on_c, 0, 57, 0
2, 69032, Note_on_c, 0, 78, 0
2, 69032, Note_on_c, 0, 74, 0
2, 69034, Note_on_c, 0, 62, 0
2, 69068, Note_on_c, 0, 78, 46
2, 69068, Note_on_c, 0, 81, 46
2, 69073, Note_on_c, 0, 74, 46
2, 69112, Note_on_c, 0, 62, 52
2, 69117, Note_on_c, 0, 57, 52
2, 69120, Note_on_c, 0, 66, 52
2, 69153, Note_on_c, 0, 66, 0
2, 69155, Note_on_c, 0, 62, 0
2, 69155, Note_on_c, 0, 57, 0
2, 69252, Note_on_c, 0, 45, 41
2, 69257, Note_on_c, 0, 33, 43
2, 69293, Note_on_c, 0, 45, 0
2, 69311, Note_on_c, 0, 33, 0
2, 69335, Note_on_c, 0, 25, 75
2, 69384, Note_on_c, 0, 25, 0
2, 69385, Note_on_c, 0, 50, 53
2, 69388, Note_on_c, 0, 38, 53
2, 69398, Note_on_c, 0, 81, 0
2, 69405, Note_on_c, 0, 25, 45
2, 69417, Note_on_c, 0, 50, 0
2, 69425, Note_on_c, 0, 38, 0
2, 69451, Note_on_c, 0, 25, 0
2, 69456, Note_on_c, 0, 74, 0
2, 69461, Note_on_c, 0, 78, 0
2, 69492, Note_on_c, 0, 57, 52
2, 69492, Note_on_c, 0, 62, 52
2, 69495, Note_on_c, 0, 54, 52
2, 69497, Note_on_c, 0, 74, 44
2, 69497, Note_on_c, 0, 83, 44
2, 69500, Note_on_c, 0, 78, 44
2, 69514, Note_on_c, 0, 54, 0
2, 69514, Note_on_c, 0, 57, 0
2, 69527, Note_on_c, 0, 62, 0
2, 69531, Note_on_c, 0, 78, 0
2, 69555, Note_on_c, 0, 74, 0
2, 69558, Note_on_c, 0, 83, 0
2, 69573, Note_on_c, 0, 81, 39
2, 69577, Note_on_c, 0, 78, 39
2, 69582, Note_on_c, 0, 74, 39
2, 69628, Note_on_c, 0, 45, 38
2, 69660, Note_on_c, 0, 74, 0
2, 69660, Note_on_c, 0, 81, 0
2, 69660, Note_on_c, 0, 78, 0
2, 69670, Note_on_c, 0, 45, 0
2, 69684, Note_on_c, 0, 81, 33
2, 69706, Note_on_c, 0, 69, 37
2, 69725, Note_on_c, 0, 69, 0
2, 69730, Note_on_c, 0, 81, 0
2, 69752, Note_on_c, 0, 71, 41
2, 69757, Note_on_c, 0, 83, 42
2, 69795, Note_on_c, 0, 83, 0
2, 69795, Note_on_c, 0, 71, 0
2, 69827, Note_on_c, 0, 84, 44
2, 69834, Note_on_c, 0, 72, 44
2, 69849, Note_on_c, 0, 84, 0
2, 69865, Note_on_c, 0, 72, 0
2, 69868, Note_on_c, 0, 85, 35
2, 69873, Note_on_c, 0, 79, 44
2, 69873, Note_on_c, 0, 81, 44
2, 69885, Note_on_c, 0, 52, 47
2, 69885, Note_on_c, 0, 73, 47
2, 69888, Note_on_c, 0, 40, 48
2, 69919, Note_on_c, 0, 85, 0
2, 69934, Note_on_c, 0, 73, 0
2, 69934, Note_on_c, 0, 81, 0
2, 69938, Note_on_c, 0, 79, 0
2, 70004, Note_on_c, 0, 52, 0
2, 70021, Note_on_c, 0, 61, 63
2, 70023, Note_on_c, 0, 40, 0
2, 70023, Note_on_c, 0, 55, 63
2, 70023, Note_on_c, 0, 57, 63
2, 70023, Note_on_c, 0, 81, 39
2, 70023, Note_on_c, 0, 52, 63
2, 70031, Note_on_c, 0, 69, 39
2, 70055, Note_on_c, 0, 61, 0
2, 70062, Note_on_c, 0, 69, 0
2, 70064, Note_on_c, 0, 81, 0
2, 70067, Note_on_c, 0, 57, 0
2, 70069, Note_on_c, 0, 55, 0
2, 70072, Note_on_c, 0, 52, 0
2, 70089, Note_on_c, 0, 79, 39
2, 70089, Note_on_c, 0, 83, 39
2, 70101, Note_on_c, 0, 71, 39
2, 70161, Note_on_c, 0, 33, 44
2, 70161, Note_on_c, 0, 45, 44
2, 70293, Note_on_c, 0, 61, 43
2, 70297, Note_on_c, 0, 55, 44
2, 70297, Note_on_c, 0, 57, 44
2, 70299, Note_on_c, 0, 45, 0
2, 70302, Note_on_c, 0, 33, 0
2, 70302, Note_on_c, 0, 52, 45
2, 70309, Note_on_c, 0, 71, 0
2, 70309, Note_on_c, 0, 79, 0
2, 70326, Note_on_c, 0, 83, 0
2, 70334, Note_on_c, 0, 61, 0
2, 70336, Note_on_c, 0, 55, 0
2, 70339, Note_on_c, 0, 57, 0
2, 70339, Note_on_c, 0, 52, 0
2, 70416, Note_on_c, 0, 85, 44
2, 70418, Note_on_c, 0, 79, 44
2, 70418, Note_on_c, 0, 81, 44
2, 70421, Note_on_c, 0, 73, 44
2, 70426, Note_on_c, 0, 40, 52
2, 70428, Note_on_c, 0, 52, 52
2, 70452, Note_on_c, 0, 85, 0
2, 70464, Note_on_c, 0, 79, 0
2, 70467, Note_on_c, 0, 81, 0
2, 70469, Note_on_c, 0, 73, 0
2, 70552, Note_on_c, 0, 52, 0
2, 70566, Note_on_c, 0, 57, 52
2, 70566, Note_on_c, 0, 61, 52
2, 70571, Note_on_c, 0, 52, 52
2, 70576, Note_on_c, 0, 40, 0
2, 70576, Note_on_c, 0, 69, 39
2, 70576, Note_on_c, 0, 81, 39
2, 70576, Note_on_c, 0, 55, 52
2, 70603, Note_on_c, 0, 61, 0
2, 70608, Note_on_c, 0, 57, 0
2, 70610, Note_on_c, 0, 81, 0
2, 70610, Note_on_c, 0, 69, 0
2, 70612, Note_on_c, 0, 52, 0
2, 70622, Note_on_c, 0, 55, 0
2, 70632, Note_on_c, 0, 71, 39
2, 70634, Note_on_c, 0, 83, 39
2, 70692, Note_on_c, 0, 33, 39
2, 70692, Note_on_c, 0, 45, 39
2, 70704, Note_on_c, 0, 83, 0
2, 70714, Note_on_c, 0, 71, 0
2, 70760, Note_on_c, 0, 69, 39
2, 70760, Note_on_c, 0, 81, 39
2, 70800, Note_on_c, 0, 57, 39
2, 70801, Note_on_c, 0, 81, 0
2, 70801, Note_on_c, 0, 69, 0
2, 70801, Note_on_c, 0, 71, 39
2, 70804, Note_on_c, 0, 55, 39
2, 70804, Note_on_c, 0, 61, 39
2, 70806, Note_on_c, 0, 83, 39
2, 70821, Note_on_c, 0, 33, 0
2, 70824, Note_on_c, 0, 45, 0
2, 70833, Note_on_c, 0, 71, 0
2, 70835, Note_on_c, 0, 55, 0
2, 70835, Note_on_c, 0, 57, 0
2, 70835, Note_on_c, 0, 61, 0
2, 70840, Note_on_c, 0, 83, 0
2, 70865, Note_on_c, 0, 73, 53
2, 70865, Note_on_c, 0, 85, 53
2, 70898, Note_on_c, 0, 85, 0
2, 70898, Note_on_c, 0, 73, 0
2, 70901, Note_on_c, 0, 25, 32
2, 70911, Note_on_c, 0, 81, 53
2, 70913, Note_on_c, 0, 38, 32
2, 70913, Note_on_c, 0, 86, 53
2, 70918, Note_on_c, 0, 78, 53
2, 70920, Note_on_c, 0, 50, 32
2, 70920, Note_on_c, 0, 74, 53
2, 70954, Note_on_c, 0, 86, 0
2, 70954, Note_on_c, 0, 81, 0
2, 70964, Note_on_c, 0, 78, 0
2, 70971, Note_on_c, 0, 74, 0
2, 70978, Note_on_c, 0, 25, 0
2, 71049, Note_on_c, 0, 38, 0
2, 71049, Note_on_c, 0, 57, 52
2, 71051, Note_on_c, 0, 78, 39
2, 71051, Note_on_c, 0, 81, 39
2, 71054, Note_on_c, 0, 66, 39
2, 71059, Note_on_c, 0, 62, 39
2, 71059, Note_on_c, 0, 74, 39
2, 71061, Note_on_c, 0, 50, 0
2, 71061, Note_on_c, 0, 69, 39
2, 71090, Note_on_c, 0, 69, 0
2, 71090, Note_on_c, 0, 66, 0
2, 71097, Note_on_c, 0, 62, 0
2, 71100, Note_on_c, 0, 81, 0
2, 71110, Note_on_c, 0, 78, 0
2, 71114, Note_on_c, 0, 57, 0
2, 71121, Note_on_c, 0, 83, 39
2, 71129, Note_on_c, 0, 71, 39
2, 71129, Note_on_c, 0, 78, 39
2, 71187, Note_on_c, 0, 33, 51
2, 71189, Note_on_c, 0, 45, 51
2, 71310, Note_on_c, 0, 62, 52
2, 71313, Note_on_c, 0, 57, 52
2, 71313, Note_on_c, 0, 66, 52
2, 71332, Note_on_c, 0, 33, 0
2, 71342, Note_on_c, 0, 45, 0
2, 71345, Note_on_c, 0, 66, 0
2, 71350, Note_on_c, 0, 62, 0
2, 71356, Note_on_c, 0, 57, 0
2, 71432, Note_on_c, 0, 38, 74
2, 71439, Note_on_c, 0, 50, 73
2, 71471, Note_on_c, 0, 83, 0
2, 71471, Note_on_c, 0, 71, 0
2, 71475, Note_on_c, 0, 74, 0
2, 71488, Note_on_c, 0, 78, 0
2, 71521, Note_on_c, 0, 69, 54
2, 71553, Note_on_c, 0, 69, 0
2, 71555, Note_on_c, 0, 62, 39
2, 71558, Note_on_c, 0, 74, 39
2, 71560, Note_on_c, 0, 57, 39
2, 71565, Note_on_c, 0, 54, 55
2, 71572, Note_on_c, 0, 50, 0
2, 71577, Note_on_c, 0, 38, 0
2, 71592, Note_on_c, 0, 57, 0
2, 71592, Note_on_c, 0, 62, 0
2, 71616, Note_on_c, 0, 54, 0
2, 71618, Note_on_c, 0, 74, 0
2, 71628, Note_on_c, 0, 78, 39
2, 71687, Note_on_c, 0, 81, 47
2, 71688, Note_on_c, 0, 78, 0
2, 71696, Note_on_c, 0, 54, 44
2, 71730, Note_on_c, 0, 54, 0
2, 71760, Note_on_c, 0, 78, 46
2, 71771, Note_on_c, 0, 81, 0
2, 71798, Note_on_c, 0, 57, 40
2, 71803, Note_on_c, 0, 54, 44
2, 71805, Note_on_c, 0, 74, 39
2, 71812, Note_on_c, 0, 62, 44
2, 71825, Note_on_c, 0, 54, 0
2, 71836, Note_on_c, 0, 57, 0
2, 71849, Note_on_c, 0, 78, 0
2, 71871, Note_on_c, 0, 62, 0
2, 71871, Note_on_c, 0, 69, 55
2, 71912, Note_on_c, 0, 69, 0
2, 71912, Note_on_c, 0, 74, 0
2, 71919, Note_on_c, 0, 55, 56
2, 71931, Note_on_c, 0, 71, 49
2, 71989, Note_on_c, 0, 55, 0
2, 72004, Note_on_c, 0, 79, 45
2, 72030, Note_on_c, 0, 71, 0
2, 72050, Note_on_c, 0, 62, 39
2, 72052, Note_on_c, 0, 59, 38
2, 72062, Note_on_c, 0, 79, 0
2, 72062, Note_on_c, 0, 55, 37
2, 72084, Note_on_c, 0, 59, 0
2, 72089, Note_on_c, 0, 62, 0
2, 72098, Note_on_c, 0, 55, 0
2, 72130, Note_on_c, 0, 76, 71
2, 72159, Note_on_c, 0, 76, 0
2, 72183, Note_on_c, 0, 55, 67
2, 72183, Note_on_c, 0, 70, 39
2, 72222, Note_on_c, 0, 55, 0
2, 72251, Note_on_c, 0, 79, 48
2, 72285, Note_on_c, 0, 70, 0
2, 72297, Note_on_c, 0, 62, 67
2, 72300, Note_on_c, 0, 55, 67
2, 72300, Note_on_c, 0, 58, 67
2, 72334, Note_on_c, 0, 58, 0
2, 72346, Note_on_c, 0, 62, 0
2, 72353, Note_on_c, 0, 55, 0
2, 72377, Note_on_c, 0, 70, 39
2, 72421, Note_on_c, 0, 70, 0
2, 72435, Note_on_c, 0, 45, 81
2, 72443, Note_on_c, 0, 79, 0
2, 72450, Note_on_c, 0, 57, 84
2, 72489, Note_on_c, 0, 57, 0
2, 72532, Note_on_c, 0, 69, 76
2, 72561, Note_on_c, 0, 57, 39
2, 72574, Note_on_c, 0, 66, 39
2, 72578, Note_on_c, 0, 74, 39
2, 72598, Note_on_c, 0, 45, 0
2, 72600, Note_on_c, 0, 69, 0
2, 72610, Note_on_c, 0, 66, 0
2, 72624, Note_on_c, 0, 57, 0
2, 72647, Note_on_c, 0, 74, 0
2, 72651, Note_on_c, 0, 78, 39
2, 72704, Note_on_c, 0, 83, 49
2, 72714, Note_on_c, 0, 47, 44
2, 72714, Note_on_c, 0, 59, 44
2, 72731, Note_on_c, 0, 78, 0
2, 72770, Note_on_c, 0, 83, 0
2, 72782, Note_on_c, 0, 78, 39
2, 72816, Note_on_c, 0, 62, 39
2, 72840, Note_on_c, 0, 74, 37
2, 72852, Note_on_c, 0, 47, 0
2, 72855, Note_on_c, 0, 78, 0
2, 72857, Note_on_c, 0, 62, 0
2, 72862, Note_on_c, 0, 59, 0
2, 72893, Note_on_c, 0, 69, 59
2, 72920, Note_on_c, 0, 69, 0
2, 72920, Note_on_c, 0, 74, 0
2, 72952, Note_on_c, 0, 62, 80
2, 72954, Note_on_c, 0, 68, 49
2, 72961, Note_on_c, 0, 52, 78
2, 72964, Note_on_c, 0, 56, 78
2, 73020, Note_on_c, 0, 74, 36
2, 73022, Note_on_c, 0, 71, 35
2, 73049, Note_on_c, 0, 68, 0
2, 73056, Note_on_c, 0, 62, 0
2, 73061, Note_on_c, 0, 56, 0
2, 73063, Note_on_c, 0, 71, 0
2, 73076, Note_on_c, 0, 74, 0
2, 73095, Note_on_c, 0, 40, 33
2, 73102, Note_on_c, 0, 52, 0
2, 73128, Note_on_c, 0, 40, 0
2, 73138, Note_on_c, 0, 68, 58
2, 73187, Note_on_c, 0, 68, 0
2, 73192, Note_on_c, 0, 33, 59
2, 73197, Note_on_c, 0, 45, 58
2, 73211, Note_on_c, 0, 67, 53
2, 73272, Note_on_c, 0, 73, 56
2, 73274, Note_on_c, 0, 69, 56
2, 73274, Note_on_c, 0, 76, 56
2, 73301, Note_on_c, 0, 57, 39
2, 73306, Note_on_c, 0, 55, 39
2, 73308, Note_on_c, 0, 61, 39
2, 73332, Note_on_c, 0, 33, 0
2, 73335, Note_on_c, 0, 45, 0
2, 73337, Note_on_c, 0, 73, 0
2, 73337, Note_on_c, 0, 69, 0
2, 73340, Note_on_c, 0, 57, 0
2, 73342, Note_on_c, 0, 61, 0
2, 73347, Note_on_c, 0, 76, 0
2, 73349, Note_on_c, 0, 55, 0
2, 73354, Note_on_c, 0, 67, 0
2, 73395, Note_on_c, 0, 66, 39
2, 73398, Note_on_c, 0, 69, 39
2, 73398, Note_on_c, 0, 74, 39
2, 73454, Note_on_c, 0, 50, 67
2, 73456, Note_on_c, 0, 38, 67
2, 73492, Note_on_c, 0, 50, 0
2, 73512, Note_on_c, 0, 38, 0
2, 73582, Note_on_c, 0, 45, 43
2, 73616, Note_on_c, 0, 45, 0
2, 73730, Note_on_c, 0, 50, 59
2, 73735, Note_on_c, 0, 38, 60
2, 73766, Note_on_c, 0, 69, 0
2, 73776, Note_on_c, 0, 66, 0
2, 73786, Note_on_c, 0, 74, 0
2, 73868, Note_on_c, 0, 50, 0
2, 73868, Note_on_c, 0, 38, 0
2, 74074, Note_on_c, 0, 73, 44
2, 74074, Note_on_c, 0, 33, 46
2, 74074, Note_on_c, 0, 64, 44
2, 74082, Note_on_c, 0, 45, 48
2, 74084, Note_on_c, 0, 69, 44
2, 74108, Note_on_c, 0, 33, 0
2, 74111, Note_on_c, 0, 73, 0
2, 74113, Note_on_c, 0, 69, 0
2, 74115, Note_on_c, 0, 64, 0
2, 74123, Note_on_c, 0, 45, 0
2, 74210, Note_on_c, 0, 52, 55
2, 74210, Note_on_c, 0, 73, 39
2, 74212, Note_on_c, 0, 57, 55
2, 74215, Note_on_c, 0, 64, 39
2, 74225, Note_on_c, 0, 69, 39
2, 74244, Note_on_c, 0, 57, 0
2, 74256, Note_on_c, 0, 52, 0
2, 74360, Note_on_c, 0, 40, 44
2, 74363, Note_on_c, 0, 28, 44
2, 74370, Note_on_c, 0, 64, 0
2, 74382, Note_on_c, 0, 69, 0
2, 74389, Note_on_c, 0, 73, 0
2, 74401, Note_on_c, 0, 28, 0
2, 74401, Note_on_c, 0, 40, 0
2, 74479, Note_on_c, 0, 76, 39
2, 74481, Note_on_c, 0, 52, 40
2, 74489, Note_on_c, 0, 73, 39
2, 74527, Note_on_c, 0, 73, 0
2, 74530, Note_on_c, 0, 52, 0
2, 74532, Note_on_c, 0, 76, 0
2, 74608, Note_on_c, 0, 33, 48
2, 74610, Note_on_c, 0, 78, 44
2, 74613, Note_on_c, 0, 45, 49
2, 74615, Note_on_c, 0, 68, 44
2, 74615, Note_on_c, 0, 72, 44
2, 74646, Note_on_c, 0, 33, 0
2, 74651, Note_on_c, 0, 72, 0
2, 74656, Note_on_c, 0, 45, 0
2, 74659, Note_on_c, 0, 68, 0
2, 74678, Note_on_c, 0, 78, 0
2, 74685, Note_on_c, 0, 73, 39
2, 74685, Note_on_c, 0, 76, 39
2, 74697, Note_on_c, 0, 69, 39
2, 74753, Note_on_c, 0, 61, 58
2, 74753, Note_on_c, 0, 52, 58
2, 74753, Note_on_c, 0, 57, 58
2, 74770, Note_on_c, 0, 69, 0
2, 74772, Note_on_c, 0, 73, 0
2, 74780, Note_on_c, 0, 76, 0
2, 74784, Note_on_c, 0, 57, 0
2, 74787, Note_on_c, 0, 61, 0
2, 74794, Note_on_c, 0, 52, 0
2, 74823, Note_on_c, 0, 78, 39
2, 74828, Note_on_c, 0, 72, 39
2, 74864, Note_on_c, 0, 33, 44
2, 74867, Note_on_c, 0, 45, 44
2, 74867, Note_on_c, 0, 76, 39
2, 74877, Note_on_c, 0, 78, 0
2, 74881, Note_on_c, 0, 72, 0
2, 74881, Note_on_c, 0, 73, 39
2, 74881, Note_on_c, 0, 69, 39
2, 74904, Note_on_c, 0, 33, 0
2, 74915, Note_on_c, 0, 73, 0
2, 74925, Note_on_c, 0, 69, 0
2, 74928, Note_on_c, 0, 45, 0
2, 74935, Note_on_c, 0, 76, 0
2, 74947, Note_on_c, 0, 72, 39
2, 74950, Note_on_c, 0, 78, 39
2, 74988, Note_on_c, 0, 76, 49
2, 74993, Note_on_c, 0, 52, 59
2, 74996, Note_on_c, 0, 72, 0
2, 74996, Note_on_c, 0, 69, 49
2, 75000, Note_on_c, 0, 73, 49
2, 75002, Note_on_c, 0, 61, 57
2, 75007, Note_on_c, 0, 57, 57
2, 75017, Note_on_c, 0, 69, 0
2, 75017, Note_on_c, 0, 78, 0
2, 75022, Note_on_c, 0, 73, 0
2, 75034, Note_on_c, 0, 76, 0
2, 75037, Note_on_c, 0, 61, 0
2, 75037, Note_on_c, 0, 57, 0
2, 75047, Note_on_c, 0, 52, 0
2, 75129, Note_on_c, 0, 38, 47
2, 75136, Note_on_c, 0, 83, 50
2, 75144, Note_on_c, 0, 50, 52
2, 75144, Note_on_c, 0, 77, 52
2, 75175, Note_on_c, 0, 38, 0
2, 75182, Note_on_c, 0, 50, 0
2, 75196, Note_on_c, 0, 77, 0
2, 75199, Note_on_c, 0, 83, 0
2, 75214, Note_on_c, 0, 81, 39
2, 75218, Note_on_c, 0, 74, 39
2, 75218, Note_on_c, 0, 78, 39
2, 75260, Note_on_c, 0, 57, 44
2, 75264, Note_on_c, 0, 62, 44
2, 75303, Note_on_c, 0, 62, 0
2, 75303, Note_on_c, 0, 81, 0
2, 75303, Note_on_c, 0, 74, 0
2, 75308, Note_on_c, 0, 78, 0
2, 75311, Note_on_c, 0, 57, 0
2, 75357, Note_on_c, 0, 77, 55
2, 75357, Note_on_c, 0, 83, 55
2, 75395, Note_on_c, 0, 38, 52
2, 75398, Note_on_c, 0, 77, 0
2, 75400, Note_on_c, 0, 78, 44
2, 75403, Note_on_c, 0, 74, 44
2, 75408, Note_on_c, 0, 50, 52
2, 75410, Note_on_c, 0, 81, 44
2, 75420, Note_on_c, 0, 83, 0
2, 75454, Note_on_c, 0, 50, 0
2, 75458, Note_on_c, 0, 38, 0
2, 75461, Note_on_c, 0, 81, 0
2, 75468, Note_on_c, 0, 74, 0
2, 75473, Note_on_c, 0, 77, 52
2, 75487, Note_on_c, 0, 83, 52
2, 75490, Note_on_c, 0, 78, 0
2, 75524, Note_on_c, 0, 62, 49
2, 75527, Note_on_c, 0, 81, 49
2, 75527, Note_on_c, 0, 57, 49
2, 75527, Note_on_c, 0, 78, 49
2, 75528, Note_on_c, 0, 77, 0
2, 75528, Note_on_c, 0, 54, 49
2, 75531, Note_on_c, 0, 74, 49
2, 75551, Note_on_c, 0, 81, 0
2, 75551, Note_on_c, 0, 83, 0
2, 75563, Note_on_c, 0, 62, 0
2, 75570, Note_on_c, 0, 57, 0
2, 75570, Note_on_c, 0, 74, 0
2, 75570, Note_on_c, 0, 54, 0
2, 75582, Note_on_c, 0, 78, 0
2, 75652, Note_on_c, 0, 76, 44
2, 75660, Note_on_c, 0, 45, 53
2, 75662, Note_on_c, 0, 33, 53
2, 75662, Note_on_c, 0, 73, 44
2, 75703, Note_on_c, 0, 33, 0
2, 75713, Note_on_c, 0, 45, 0
2, 75791, Note_on_c, 0, 52, 33
2, 75791, Note_on_c, 0, 57, 33
2, 75805, Note_on_c, 0, 61, 33
2, 75810, Note_on_c, 0, 64, 52
2, 75829, Note_on_c, 0, 73, 0
2, 75834, Note_on_c, 0, 61, 0
2, 75834, Note_on_c, 0, 57, 0
2, 75834, Note_on_c, 0, 76, 0
2, 75844, Note_on_c, 0, 52, 0
2, 75849, Note_on_c, 0, 64, 0
2, 75864, Note_on_c, 0, 66, 59
2, 75916, Note_on_c, 0, 66, 0
2, 75926, Note_on_c, 0, 40, 37
2, 75936, Note_on_c, 0, 68, 37
2, 75962, Note_on_c, 0, 40, 0
2, 75975, Note_on_c, 0, 68, 0
2, 75997, Note_on_c, 0, 69, 39
2, 76040, Note_on_c, 0, 69, 0
2, 76050, Note_on_c, 0, 62, 47
2, 76057, Note_on_c, 0, 71, 46
2, 76062, Note_on_c, 0, 52, 45
2, 76081, Note_on_c, 0, 62, 0
2, 76101, Note_on_c, 0, 71, 0
2, 76108, Note_on_c, 0, 52, 0
2, 76118, Note_on_c, 0, 72, 44
2, 76164, Note_on_c, 0, 72, 0
2, 76178, Note_on_c, 0, 73, 53
2, 76183, Note_on_c, 0, 33, 68
2, 76183, Note_on_c, 0, 69, 53
2, 76186, Note_on_c, 0, 45, 68
2, 76212, Note_on_c, 0, 33, 0
2, 76217, Note_on_c, 0, 73, 0
2, 76217, Note_on_c, 0, 69, 0
2, 76234, Note_on_c, 0, 45, 0
2, 76309, Note_on_c, 0, 57, 67
2, 76314, Note_on_c, 0, 61, 66
2, 76317, Note_on_c, 0, 69, 39
2, 76317, Note_on_c, 0, 73, 39
2, 76320, Note_on_c, 0, 52, 65
2, 76345, Note_on_c, 0, 57, 0
2, 76353, Note_on_c, 0, 61, 0
2, 76353, Note_on_c, 0, 52, 0
2, 76445, Note_on_c, 0, 40, 41
2, 76450, Note_on_c, 0, 28, 43
2, 76469, Note_on_c, 0, 28, 0
2, 76477, Note_on_c, 0, 69, 0
2, 76482, Note_on_c, 0, 73, 0
2, 76487, Note_on_c, 0, 40, 0
2, 76561, Note_on_c, 0, 76, 39
2, 76566, Note_on_c, 0, 61, 39
2, 76569, Note_on_c, 0, 52, 39
2, 76569, Note_on_c, 0, 57, 39
2, 76574, Note_on_c, 0, 73, 39
2, 76603, Note_on_c, 0, 61, 0
2, 76605, Note_on_c, 0, 57, 0
2, 76612, Note_on_c, 0, 76, 0
2, 76612, Note_on_c, 0, 73, 0
2, 76615, Note_on_c, 0, 52, 0
2, 76685, Note_on_c, 0, 33, 43
2, 76690, Note_on_c, 0, 78, 39
2, 76695, Note_on_c, 0, 45, 46
2, 76697, Note_on_c, 0, 72, 39
2, 76733, Note_on_c, 0, 45, 0
2, 76733, Note_on_c, 0, 33, 0
2, 76748, Note_on_c, 0, 72, 0
2, 76765, Note_on_c, 0, 76, 37
2, 76768, Note_on_c, 0, 78, 0
2, 76773, Note_on_c, 0, 73, 52
2, 76806, Note_on_c, 0, 57, 33
2, 76821, Note_on_c, 0, 61, 33
2, 76824, Note_on_c, 0, 52, 33
2, 76833, Note_on_c, 0, 73, 0
2, 76838, Note_on_c, 0, 76, 0
2, 76855, Note_on_c, 0, 57, 0
2, 76857, Note_on_c, 0, 61, 0
2, 76865, Note_on_c, 0, 52, 0
2, 76876, Note_on_c, 0, 78, 58
2, 76894, Note_on_c, 0, 72, 55
2, 76930, Note_on_c, 0, 78, 0
2, 76935, Note_on_c, 0, 34, 52
2, 76937, Note_on_c, 0, 76, 44
2, 76940, Note_on_c, 0, 72, 0
2, 76942, Note_on_c, 0, 73, 44
2, 76944, Note_on_c, 0, 46, 54
2, 76968, Note_on_c, 0, 34, 0
2, 76986, Note_on_c, 0, 46, 0
2, 76993, Note_on_c, 0, 76, 0
2, 77005, Note_on_c, 0, 78, 44
2, 77008, Note_on_c, 0, 73, 0
2, 77010, Note_on_c, 0, 72, 44
2, 77051, Note_on_c, 0, 76, 60
2, 77054, Note_on_c, 0, 72, 0
2, 77056, Note_on_c, 0, 55, 53
2, 77059, Note_on_c, 0, 73, 59
2, 77065, Note_on_c, 0, 58, 52
2, 77065, Note_on_c, 0, 61, 52
2, 77092, Note_on_c, 0, 73, 0
2, 77092, Note_on_c, 0, 78, 0
2, 77095, Note_on_c, 0, 58, 0
2, 77095, Note_on_c, 0, 61, 0
2, 77107, Note_on_c, 0, 76, 0
2, 77112, Note_on_c, 0, 55, 0
2, 77177, Note_on_c, 0, 47, 52
2, 77189, Note_on_c, 0, 76, 53
2, 77192, Note_on_c, 0, 35, 56
2, 77202, Note_on_c, 0, 68, 53
2, 77243, Note_on_c, 0, 68, 0
2, 77245, Note_on_c, 0, 35, 0
2, 77248, Note_on_c, 0, 47, 0
2, 77280, Note_on_c, 0, 71, 91
2, 77284, Note_on_c, 0, 68, 90
2, 77296, Note_on_c, 0, 76, 0
2, 77330, Note_on_c, 0, 68, 0
2, 77332, Note_on_c, 0, 71, 0
2, 77337, Note_on_c, 0, 56, 59
2, 77337, Note_on_c, 0, 64, 59
2, 77342, Note_on_c, 0, 59, 58
2, 77376, Note_on_c, 0, 64, 0
2, 77386, Note_on_c, 0, 56, 0
2, 77388, Note_on_c, 0, 59, 0
2, 77412, Note_on_c, 0, 76, 39
2, 77422, Note_on_c, 0, 68, 39
2, 77456, Note_on_c, 0, 76, 0
2, 77461, Note_on_c, 0, 68, 0
2, 77466, Note_on_c, 0, 75, 49
2, 77471, Note_on_c, 0, 47, 57
2, 77475, Note_on_c, 0, 35, 56
2, 77483, Note_on_c, 0, 69, 49
2, 77504, Note_on_c, 0, 47, 0
2, 77509, Note_on_c, 0, 35, 0
2, 77512, Note_on_c, 0, 69, 0
2, 77545, Note_on_c, 0, 76, 57
2, 77555, Note_on_c, 0, 75, 0
2, 77592, Note_on_c, 0, 63, 36
2, 77592, Note_on_c, 0, 78, 49
2, 77594, Note_on_c, 0, 57, 36
2, 77594, Note_on_c, 0, 59, 36
2, 77606, Note_on_c, 0, 69, 49
2, 77621, Note_on_c, 0, 76, 0
2, 77636, Note_on_c, 0, 63, 0
2, 77640, Note_on_c, 0, 59, 0
2, 77640, Note_on_c, 0, 57, 0
2, 77645, Note_on_c, 0, 69, 0
2, 77645, Note_on_c, 0, 78, 0
2, 77742, Note_on_c, 0, 76, 44
2, 77742, Note_on_c, 0, 71, 44
2, 77747, Note_on_c, 0, 68, 44
2, 77749, Note_on_c, 0, 40, 44
2, 77749, Note_on_c, 0, 52, 44
2, 77785, Note_on_c, 0, 52, 0
2, 77800, Note_on_c, 0, 40, 0
2, 77878, Note_on_c, 0, 50, 33
2, 77880, Note_on_c, 0, 38, 33
2, 77917, Note_on_c, 0, 50, 0
2, 77943, Note_on_c, 0, 38, 0
2, 78004, Note_on_c, 0, 49, 60
2, 78009, Note_on_c, 0, 37, 60
2, 78055, Note_on_c, 0, 49, 0
2, 78062, Note_on_c, 0, 37, 0
2, 78132, Note_on_c, 0, 47, 52
2, 78142, Note_on_c, 0, 35, 52
2, 78183, Note_on_c, 0, 47, 0
2, 78193, Note_on_c, 0, 35, 0
2, 78200, Note_on_c, 0, 71, 0
2, 78200, Note_on_c, 0, 76, 0
2, 78213, Note_on_c, 0, 68, 0
2, 78265, Note_on_c, 0, 33, 53
2, 78270, Note_on_c, 0, 64, 44
2, 78273, Note_on_c, 0, 45, 52
2, 78278, Note_on_c, 0, 69, 44
2, 78278, Note_on_c, 0, 73, 44
2, 78302, Note_on_c, 0, 73, 0
2, 78314, Note_on_c, 0, 64, 0
2, 78319, Note_on_c, 0, 69, 0
2, 78321, Note_on_c, 0, 45, 0
2, 78331, Note_on_c, 0, 33, 0
2, 78404, Note_on_c, 0, 52, 47
2, 78407, Note_on_c, 0, 57, 47
2, 78407, Note_on_c, 0, 61, 47
2, 78411, Note_on_c, 0, 64, 39
2, 78413, Note_on_c, 0, 73, 39
2, 78423, Note_on_c, 0, 69, 39
2, 78443, Note_on_c, 0, 61, 0
2, 78448, Note_on_c, 0, 57, 0
2, 78453, Note_on_c, 0, 52, 0
2, 78540, Note_on_c, 0, 28, 49
2, 78542, Note_on_c, 0, 40, 48
2, 78552, Note_on_c, 0, 64, 0
2, 78564, Note_on_c, 0, 73, 0
2, 78564, Note_on_c, 0, 69, 0
2, 78569, Note_on_c, 0, 28, 0
2, 78576, Note_on_c, 0, 40, 0
2, 78668, Note_on_c, 0, 76, 39
2, 78668, Note_on_c, 0, 57, 39
2, 78673, Note_on_c, 0, 73, 39
2, 78673, Note_on_c, 0, 52, 44
2, 78673, Note_on_c, 0, 61, 44
2, 78707, Note_on_c, 0, 73, 0
2, 78712, Note_on_c, 0, 57, 0
2, 78717, Note_on_c, 0, 61, 0
2, 78720, Note_on_c, 0, 52, 0
2, 78724, Note_on_c, 0, 76, 0
2, 78794, Note_on_c, 0, 33, 47
2, 78796, Note_on_c, 0, 78, 44
2, 78799, Note_on_c, 0, 45, 48
2, 78801, Note_on_c, 0, 72, 44
2, 78840, Note_on_c, 0, 33, 0
2, 78842, Note_on_c, 0, 72, 0
2, 78845, Note_on_c, 0, 45, 0
2, 78867, Note_on_c, 0, 76, 52
2, 78872, Note_on_c, 0, 73, 52
2, 78896, Note_on_c, 0, 78, 0
2, 78918, Note_on_c, 0, 57, 33
2, 78925, Note_on_c, 0, 61, 33
2, 78930, Note_on_c, 0, 52, 33
2, 78944, Note_on_c, 0, 73, 0
2, 78954, Note_on_c, 0, 57, 0
2, 78961, Note_on_c, 0, 61, 0
2, 78964, Note_on_c, 0, 76, 0
2, 78976, Note_on_c, 0, 52, 0
2, 78995, Note_on_c, 0, 78, 46
2, 78998, Note_on_c, 0, 72, 46
2, 79032, Note_on_c, 0, 72, 0
2, 79039, Note_on_c, 0, 78, 0
2, 79044, Note_on_c, 0, 33, 58
2, 79044, Note_on_c, 0, 45, 58
2, 79046, Note_on_c, 0, 76, 49
2, 79049, Note_on_c, 0, 73, 49
2, 79080, Note_on_c, 0, 73, 0
2, 79090, Note_on_c, 0, 33, 0
2, 79090, Note_on_c, 0, 45, 0
2, 79097, Note_on_c, 0, 76, 0
2, 79119, Note_on_c, 0, 72, 45
2, 79119, Note_on_c, 0, 78, 45
2, 79151, Note_on_c, 0, 72, 0
2, 79160, Note_on_c, 0, 76, 39
2, 79160, Note_on_c, 0, 57, 39
2, 79168, Note_on_c, 0, 73, 39
2, 79170, Note_on_c, 0, 52, 58
2, 79170, Note_on_c, 0, 61, 58
2, 79197, Note_on_c, 0, 73, 0
2, 79197, Note_on_c, 0, 78, 0
2, 79200, Note_on_c, 0, 57, 0
2, 79201, Note_on_c, 0, 61, 0
2, 79204, Note_on_c, 0, 76, 0
2, 79206, Note_on_c, 0, 52, 0
2, 79286, Note_on_c, 0, 83, 48
2, 79298, Note_on_c, 0, 38, 52
2, 79308, Note_on_c, 0, 77, 55
2, 79313, Note_on_c, 0, 50, 56
2, 79340, Note_on_c, 0, 38, 0
2, 79344, Note_on_c, 0, 50, 0
2, 79354, Note_on_c, 0, 77, 0
2, 79359, Note_on_c, 0, 83, 0
2, 79386, Note_on_c, 0, 78, 81
2, 79386, Note_on_c, 0, 81, 81
2, 79391, Note_on_c, 0, 74, 80
2, 79424, Note_on_c, 0, 62, 75
2, 79440, Note_on_c, 0, 57, 73
2, 79444, Note_on_c, 0, 54, 72
2, 79459, Note_on_c, 0, 74, 0
2, 79459, Note_on_c, 0, 81, 0
2, 79461, Note_on_c, 0, 62, 0
2, 79470, Note_on_c, 0, 57, 0
2, 79478, Note_on_c, 0, 78, 0
2, 79480, Note_on_c, 0, 54, 0
2, 79500, Note_on_c, 0, 77, 60
2, 79500, Note_on_c, 0, 83, 60
2, 79538, Note_on_c, 0, 77, 0
2, 79548, Note_on_c, 0, 38, 34
2, 79558, Note_on_c, 0, 81, 44
2, 79560, Note_on_c, 0, 50, 44
2, 79560, Note_on_c, 0, 74, 44
2, 79567, Note_on_c, 0, 78, 44
2, 79582, Note_on_c, 0, 83, 0
2, 79599, Note_on_c, 0, 50, 0
2, 79604, Note_on_c, 0, 38, 0
2, 79631, Note_on_c, 0, 83, 44
2, 79635, Note_on_c, 0, 77, 44
2, 79657, Note_on_c, 0, 81, 0
2, 79664, Note_on_c, 0, 74, 0
2, 79664, Note_on_c, 0, 78, 0
2, 79669, Note_on_c, 0, 77, 0
2, 79677, Note_on_c, 0, 57, 37
2, 79681, Note_on_c, 0, 54, 38
2, 79684, Note_on_c, 0, 78, 44
2, 79684, Note_on_c, 0, 81, 44
2, 79689, Note_on_c, 0, 74, 44
2, 79710, Note_on_c, 0, 57, 0
2, 79723, Note_on_c, 0, 83, 0
2, 79723, Note_on_c, 0, 74, 0
2, 79725, Note_on_c, 0, 78, 0
2, 79730, Note_on_c, 0, 54, 0
2, 79745, Note_on_c, 0, 81, 0
2, 79745, Note_on_c, 0, 85, 61
2, 79752, Note_on_c, 0, 80, 61
2, 79754, Note_on_c, 0, 77, 61
2, 79756, Note_on_c, 0, 73, 61
2, 79802, Note_on_c, 0, 37, 67
2, 79807, Note_on_c, 0, 49, 67
2, 79817, Note_on_c, 0, 73, 0
2, 79875, Note_on_c, 0, 73, 83
2, 79909, Note_on_c, 0, 77, 0
2, 79929, Note_on_c, 0, 73, 0
2, 79936, Note_on_c, 0, 37, 0
2, 79936, Note_on_c, 0, 61, 37
2, 79936, Note_on_c, 0, 56, 37
2, 79941, Note_on_c, 0, 77, 39
2, 79944, Note_on_c, 0, 49, 0
2, 79950, Note_on_c, 0, 80, 0
2, 79980, Note_on_c, 0, 61, 0
2, 79990, Note_on_c, 0, 56, 0
2, 80004, Note_on_c, 0, 80, 38
2, 80009, Note_on_c, 0, 85, 0
2, 80064, Note_on_c, 0, 85, 56
2, 80069, Note_on_c, 0, 53, 57
2, 80069, Note_on_c, 0, 56, 57
2, 80072, Note_on_c, 0, 61, 57
2, 80079, Note_on_c, 0, 65, 57
2, 80093, Note_on_c, 0, 80, 0
2, 80098, Note_on_c, 0, 61, 0
2, 80108, Note_on_c, 0, 65, 0
2, 80123, Note_on_c, 0, 53, 0
2, 80123, Note_on_c, 0, 56, 0
2, 80128, Note_on_c, 0, 80, 53
2, 80135, Note_on_c, 0, 85, 0
2, 80152, Note_on_c, 0, 77, 0
2, 80179, Note_on_c, 0, 77, 45
2, 80184, Note_on_c, 0, 61, 70
2, 80185, Note_on_c, 0, 56, 70
2, 80190, Note_on_c, 0, 53, 69
2, 80208, Note_on_c, 0, 80, 0
2, 80217, Note_on_c, 0, 61, 0
2, 80222, Note_on_c, 0, 53, 0
2, 80230, Note_on_c, 0, 56, 0
2, 80249, Note_on_c, 0, 73, 60
2, 80268, Note_on_c, 0, 77, 0
2, 80295, Note_on_c, 0, 73, 0
2, 80304, Note_on_c, 0, 50, 57
2, 80304, Note_on_c, 0, 83, 49
2, 80317, Note_on_c, 0, 77, 49
2, 80351, Note_on_c, 0, 77, 0
2, 80387, Note_on_c, 0, 81, 38
2, 80387, Note_on_c, 0, 78, 38
2, 80392, Note_on_c, 0, 83, 0
2, 80397, Note_on_c, 0, 50, 0
2, 80425, Note_on_c, 0, 57, 33
2, 80430, Note_on_c, 0, 54, 33
2, 80445, Note_on_c, 0, 78, 0
2, 80462, Note_on_c, 0, 57, 0
2, 80467, Note_on_c, 0, 54, 0
2, 80479, Note_on_c, 0, 81, 0
2, 80498, Note_on_c, 0, 83, 44
2, 80501, Note_on_c, 0, 77, 44
2, 80554, Note_on_c, 0, 38, 57
2, 80557, Note_on_c, 0, 78, 44
2, 80557, Note_on_c, 0, 81, 44
2, 80564, Note_on_c, 0, 50, 56
2, 80568, Note_on_c, 0, 77, 0
2, 80568, Note_on_c, 0, 83, 0
2, 80600, Note_on_c, 0, 50, 0
2, 80608, Note_on_c, 0, 77, 60
2, 80608, Note_on_c, 0, 83, 60
2, 80619, Note_on_c, 0, 38, 0
2, 80624, Note_on_c, 0, 78, 0
2, 80627, Note_on_c, 0, 81, 0
2, 80659, Note_on_c, 0, 78, 39
2, 80659, Note_on_c, 0, 81, 39
2, 80664, Note_on_c, 0, 62, 39
2, 80664, Note_on_c, 0, 54, 39
2, 80664, Note_on_c, 0, 57, 39
2, 80675, Note_on_c, 0, 83, 0
2, 80678, Note_on_c, 0, 77, 0
2, 80690, Note_on_c, 0, 81, 0
2, 80700, Note_on_c, 0, 62, 0
2, 80702, Note_on_c, 0, 78, 0
2, 80702, Note_on_c, 0, 57, 0
2, 80721, Note_on_c, 0, 54, 0
2, 80746, Note_on_c, 0, 76, 54
2, 80753, Note_on_c, 0, 73, 56
2, 80794, Note_on_c, 0, 52, 59
2, 80807, Note_on_c, 0, 40, 57
2, 80843, Note_on_c, 0, 52, 0
2, 80855, Note_on_c, 0, 76, 0
2, 80855, Note_on_c, 0, 73, 0
2, 80855, Note_on_c, 0, 40, 0
2, 80864, Note_on_c, 0, 78, 38
2, 80874, Note_on_c, 0, 74, 40
2, 80913, Note_on_c, 0, 78, 0
2, 80913, Note_on_c, 0, 61, 58
2, 80915, Note_on_c, 0, 57, 57
2, 80920, Note_on_c, 0, 74, 0
2, 80920, Note_on_c, 0, 76, 39
2, 80923, Note_on_c, 0, 52, 56
2, 80925, Note_on_c, 0, 73, 39
2, 80945, Note_on_c, 0, 61, 0
2, 80954, Note_on_c, 0, 57, 0
2, 80966, Note_on_c, 0, 52, 0
2, 80974, Note_on_c, 0, 73, 0
2, 80978, Note_on_c, 0, 76, 0
2, 80986, Note_on_c, 0, 71, 39
2, 80991, Note_on_c, 0, 74, 39
2, 81034, Note_on_c, 0, 71, 0
2, 81037, Note_on_c, 0, 74, 0
2, 81048, Note_on_c, 0, 45, 44
2, 81048, Note_on_c, 0, 73, 43
2, 81056, Note_on_c, 0, 69, 48
2, 81093, Note_on_c, 0, 73, 0
2, 81107, Note_on_c, 0, 45, 0
2, 81109, Note_on_c, 0, 69, 0
2, 81121, Note_on_c, 0, 76, 56
2, 81124, Note_on_c, 0, 73, 55
2, 81153, Note_on_c, 0, 57, 37
2, 81155, Note_on_c, 0, 52, 37
2, 81168, Note_on_c, 0, 61, 60
2, 81185, Note_on_c, 0, 57, 0
2, 81192, Note_on_c, 0, 52, 0
2, 81196, Note_on_c, 0, 61, 0
2, 81252, Note_on_c, 0, 73, 0
2, 81252, Note_on_c, 0, 76, 0
2, 81277, Note_on_c, 0, 70, 39
2, 81287, Note_on_c, 0, 47, 41
2, 81287, Note_on_c, 0, 76, 44
2, 81333, Note_on_c, 0, 47, 0
2, 81354, Note_on_c, 0, 70, 0
2, 81361, Note_on_c, 0, 71, 60
2, 81366, Note_on_c, 0, 74, 60
2, 81390, Note_on_c, 0, 76, 0
2, 81410, Note_on_c, 0, 62, 59
2, 81415, Note_on_c, 0, 56, 58
2, 81449, Note_on_c, 0, 74, 0
2, 81454, Note_on_c, 0, 56, 0
2, 81454, Note_on_c, 0, 62, 0
2, 81458, Note_on_c, 0, 71, 0
2, 81482, Note_on_c, 0, 76, 58
2, 81538, Note_on_c, 0, 68, 46
2, 81538, Note_on_c, 0, 74, 46
2, 81543, Note_on_c, 0, 28, 55
2, 81546, Note_on_c, 0, 40, 55
2, 81555, Note_on_c, 0, 76, 0
2, 81577, Note_on_c, 0, 28, 0
2, 81579, Note_on_c, 0, 68, 0
2, 81594, Note_on_c, 0, 40, 0
2, 81597, Note_on_c, 0, 73, 58
2, 81648, Note_on_c, 0, 74, 0
2, 81650, Note_on_c, 0, 62, 39
2, 81655, Note_on_c, 0, 71, 39
2, 81660, Note_on_c, 0, 59, 39
2, 81670, Note_on_c, 0, 52, 39
2, 81679, Note_on_c, 0, 73, 0
2, 81694, Note_on_c, 0, 59, 0
2, 81696, Note_on_c, 0, 62, 0
2, 81701, Note_on_c, 0, 71, 0
2, 81706, Note_on_c, 0, 52, 0
2, 81793, Note_on_c, 0, 33, 44
2, 81800, Note_on_c, 0, 45, 44
2, 81800, Note_on_c, 0, 69, 44
2, 81803, Note_on_c, 0, 61, 44
2, 81921, Note_on_c, 0, 33, 0
2, 81924, Note_on_c, 0, 40, 67
2, 81938, Note_on_c, 0, 45, 0
2, 81967, Note_on_c, 0, 40, 0
2, 82057, Note_on_c, 0, 81, 54
2, 82057, Note_on_c, 0, 88, 54
2, 82062, Note_on_c, 0, 93, 55
2, 82064, Note_on_c, 0, 85, 55
2, 82072, Note_on_c, 0, 33, 71
2, 82072, Note_on_c, 0, 45, 71
2, 82077, Note_on_c, 0, 69, 0
2, 82080, Note_on_c, 0, 61, 0
2, 82120, Note_on_c, 0, 81, 0
2, 82132, Note_on_c, 0, 85, 0
2, 82137, Note_on_c, 0, 88, 0
2, 82142, Note_on_c, 0, 93, 0
2, 82147, Note_on_c, 0, 33, 0
2, 82152, Note_on_c, 0, 45, 0
2, 82152, End_track
3, 0, Start_track
3, 0, Title_t, ""
3, 0, End_track
4, 0, Start_track
4, 0, Title_t, ""
4, 0, End_track
5, 0, Start_track
5, 0, Title_t, ""
5, 0, End_track
6, 0, Start_track
6, 0, Title_t, "Scan of a player piano roll"
6, 0, End_track
7, 0, Start_track
7, 0, Title_t, "by Terry Smythe, Winnipeg, Canada"
7, 0, End_track
8, 0, Start_track
8, 1, Copyright_t, "___________________________________________________\012\012KUNSTDERFUGE.COM LARGE CLASSICAL MIDI COLLECTION\012ONCLASSICAL BY ALESSANDRO SIMONETTO, PROPRIETOR\012___________________________________________________\012\012! Attention: this file is under copyright !\012\012(c)onclassical, (nc)smythe, 2010\012___________________________________________________\012\012NO ONE MAY REPUBLISH THIS FILE WITHOUT PERMISSION\012COMMERCIAL USES OF THIS FILE IS STRICTLY PROHIBITED\012___________________________________________________\012\012Files & contributor's list: http://kunstderfuge.com/\012Terms and conditions: http://kunstderfuge.com/notes.htm"
8, 1, End_track
0, 0, End_of_file
