0, 0, Header, 1, 8, 192
1, 0, Start_track
1, 0, Title_t, "156S"
1, 0, Copyright_t, "May NOT be used for commercial purposes."
1, 0, Text_t, "Roll expression/accent tracks, where present, converted to MIDI velocties.\012"
1, 0, Time_signature, 4, 2, 24, 8
1, 0, Key_signature, 0, "major"
1, 0, Tempo, 500000
1, 0, Marker_t, "Standard MIDI:LPI 120:Tempo  115: 10-26-2003"
1, 0, End_track
2, 0, Start_track
2, 0, Title_t, "Pineapple Rag"
2, 102, Note_on_c, 0, 72, 80
2, 102, Note_on_c, 0, 84, 80
2, 103, Note_on_c, 0, 60, 80
2, 138, Note_on_c, 0, 60, 0
2, 138, Note_on_c, 0, 84, 0
2, 138, Note_on_c, 0, 72, 0
2, 169, Note_on_c, 0, 58, 80
2, 169, Note_on_c, 0, 70, 80
2, 169, Note_on_c, 0, 82, 80
2, 296, Note_on_c, 0, 82, 0
2, 296, Note_on_c, 0, 70, 0
2, 296, Note_on_c, 0, 58, 0
2, 302, Note_on_c, 0, 56, 80
2, 302, Note_on_c, 0, 68, 80
2, 302, Note_on_c, 0, 80, 80
2, 329, Note_on_c, 0, 80, 0
2, 329, Note_on_c, 0, 68, 0
2, 329, Note_on_c, 0, 56, 0
2, 370, Note_on_c, 0, 55, 80
2, 370, Note_on_c, 0, 67, 80
2, 370, Note_on_c, 0, 79, 80
2, 386, Note_on_c, 0, 67, 0
2, 405, Note_on_c, 0, 79, 0
2, 414, Note_on_c, 0, 55, 0
2, 435, Note_on_c, 0, 54, 80
2, 435, Note_on_c, 0, 78, 80
2, 436, Note_on_c, 0, 66, 80
2, 463, Note_on_c, 0, 66, 0
2, 488, Note_on_c, 0, 78, 0
2, 488, Note_on_c, 0, 54, 0
2, 502, Note_on_c, 0, 55, 80
2, 502, Note_on_c, 0, 67, 80
2, 502, Note_on_c, 0, 79, 80
2, 545, Note_on_c, 0, 67, 0
2, 561, Note_on_c, 0, 79, 0
2, 561, Note_on_c, 0, 55, 0
2, 567, Note_on_c, 0, 53, 80
2, 567, Note_on_c, 0, 65, 80
2, 567, Note_on_c, 0, 77, 80
2, 592, Note_on_c, 0, 65, 0
2, 624, Note_on_c, 0, 77, 0
2, 629, Note_on_c, 0, 63, 80
2, 629, Note_on_c, 0, 75, 80
2, 630, Note_on_c, 0, 51, 80
2, 633, Note_on_c, 0, 53, 0
2, 665, Note_on_c, 0, 51, 0
2, 665, Note_on_c, 0, 75, 0
2, 668, Note_on_c, 0, 63, 0
2, 695, Note_on_c, 0, 65, 80
2, 696, Note_on_c, 0, 53, 80
2, 696, Note_on_c, 0, 77, 80
2, 729, Note_on_c, 0, 77, 0
2, 729, Note_on_c, 0, 53, 0
2, 729, Note_on_c, 0, 65, 0
2, 760, Note_on_c, 0, 67, 80
2, 760, Note_on_c, 0, 79, 80
2, 761, Note_on_c, 0, 55, 80
2, 786, Note_on_c, 0, 79, 0
2, 787, Note_on_c, 0, 67, 0
2, 795, Note_on_c, 0, 55, 0
2, 824, Note_on_c, 0, 58, 80
2, 824, Note_on_c, 0, 70, 80
2, 824, Note_on_c, 0, 82, 80
2, 1113, Note_on_c, 0, 82, 0
2, 1113, Note_on_c, 0, 70, 0
2, 1113, Note_on_c, 0, 58, 0
2, 1144, Note_on_c, 0, 60, 80
2, 1144, Note_on_c, 0, 72, 80
2, 1144, Note_on_c, 0, 84, 80
2, 1171, Note_on_c, 0, 84, 0
2, 1171, Note_on_c, 0, 72, 0
2, 1171, Note_on_c, 0, 60, 0
2, 1208, Note_on_c, 0, 60, 80
2, 1208, Note_on_c, 0, 72, 80
2, 1208, Note_on_c, 0, 84, 80
2, 1288, Note_on_c, 0, 84, 0
2, 1288, Note_on_c, 0, 60, 0
2, 1296, Note_on_c, 0, 72, 0
2, 1336, Note_on_c, 0, 59, 80
2, 1336, Note_on_c, 0, 71, 80
2, 1336, Note_on_c, 0, 83, 80
2, 1363, Note_on_c, 0, 83, 0
2, 1363, Note_on_c, 0, 71, 0
2, 1363, Note_on_c, 0, 59, 0
2, 1402, Note_on_c, 0, 84, 80
2, 1403, Note_on_c, 0, 60, 80
2, 1403, Note_on_c, 0, 72, 80
2, 1428, Note_on_c, 0, 72, 0
2, 1428, Note_on_c, 0, 60, 0
2, 1428, Note_on_c, 0, 84, 0
2, 1468, Note_on_c, 0, 62, 80
2, 1468, Note_on_c, 0, 74, 80
2, 1468, Note_on_c, 0, 86, 80
2, 1510, Note_on_c, 0, 86, 0
2, 1511, Note_on_c, 0, 74, 0
2, 1511, Note_on_c, 0, 62, 0
2, 1535, Note_on_c, 0, 63, 80
2, 1535, Note_on_c, 0, 75, 80
2, 1535, Note_on_c, 0, 87, 80
2, 1658, Note_on_c, 0, 87, 0
2, 1659, Note_on_c, 0, 75, 0
2, 1660, Note_on_c, 0, 63, 0
2, 1664, Note_on_c, 0, 77, 80
2, 1664, Note_on_c, 0, 89, 80
2, 1665, Note_on_c, 0, 65, 80
2, 1690, Note_on_c, 0, 89, 0
2, 1691, Note_on_c, 0, 65, 0
2, 1691, Note_on_c, 0, 77, 0
2, 1796, Note_on_c, 0, 58, 80
2, 1796, Note_on_c, 0, 70, 80
2, 1796, Note_on_c, 0, 82, 80
2, 2133, Note_on_c, 0, 82, 0
2, 2133, Note_on_c, 0, 70, 0
2, 2134, Note_on_c, 0, 58, 0
2, 2186, Note_on_c, 0, 72, 80
2, 2186, Note_on_c, 0, 84, 80
2, 2187, Note_on_c, 0, 67, 80
2, 2187, Note_on_c, 0, 75, 80
2, 2188, Note_on_c, 0, 39, 80
2, 2188, Note_on_c, 0, 63, 80
2, 2222, Note_on_c, 0, 39, 0
2, 2253, Note_on_c, 0, 70, 80
2, 2253, Note_on_c, 0, 82, 80
2, 2254, Note_on_c, 0, 84, 0
2, 2263, Note_on_c, 0, 72, 0
2, 2263, Note_on_c, 0, 75, 0
2, 2263, Note_on_c, 0, 67, 0
2, 2318, Note_on_c, 0, 55, 80
2, 2318, Note_on_c, 0, 58, 80
2, 2336, Note_on_c, 0, 58, 0
2, 2336, Note_on_c, 0, 55, 0
2, 2345, Note_on_c, 0, 63, 0
2, 2352, Note_on_c, 0, 82, 0
2, 2361, Note_on_c, 0, 70, 0
2, 2383, Note_on_c, 0, 68, 80
2, 2383, Note_on_c, 0, 80, 80
2, 2417, Note_on_c, 0, 80, 0
2, 2418, Note_on_c, 0, 68, 0
2, 2446, Note_on_c, 0, 67, 80
2, 2446, Note_on_c, 0, 79, 80
2, 2447, Note_on_c, 0, 46, 80
2, 2480, Note_on_c, 0, 46, 0
2, 2487, Note_on_c, 0, 79, 0
2, 2490, Note_on_c, 0, 67, 0
2, 2509, Note_on_c, 0, 78, 80
2, 2510, Note_on_c, 0, 66, 80
2, 2544, Note_on_c, 0, 66, 0
2, 2544, Note_on_c, 0, 78, 0
2, 2574, Note_on_c, 0, 55, 80
2, 2574, Note_on_c, 0, 58, 80
2, 2574, Note_on_c, 0, 67, 80
2, 2574, Note_on_c, 0, 79, 80
2, 2592, Note_on_c, 0, 58, 0
2, 2592, Note_on_c, 0, 55, 0
2, 2615, Note_on_c, 0, 79, 0
2, 2616, Note_on_c, 0, 67, 0
2, 2637, Note_on_c, 0, 77, 80
2, 2638, Note_on_c, 0, 65, 80
2, 2672, Note_on_c, 0, 65, 0
2, 2672, Note_on_c, 0, 77, 0
2, 2701, Note_on_c, 0, 75, 80
2, 2701, Note_on_c, 0, 63, 80
2, 2702, Note_on_c, 0, 39, 80
2, 2702, Note_on_c, 0, 51, 80
2, 2727, Note_on_c, 0, 75, 0
2, 2728, Note_on_c, 0, 63, 0
2, 2728, Note_on_c, 0, 39, 0
2, 2728, Note_on_c, 0, 51, 0
2, 2764, Note_on_c, 0, 77, 80
2, 2765, Note_on_c, 0, 65, 80
2, 2814, Note_on_c, 0, 77, 0
2, 2817, Note_on_c, 0, 65, 0
2, 2829, Note_on_c, 0, 67, 80
2, 2829, Note_on_c, 0, 73, 80
2, 2829, Note_on_c, 0, 79, 80
2, 2830, Note_on_c, 0, 40, 80
2, 2830, Note_on_c, 0, 61, 80
2, 2836, Note_on_c, 0, 52, 80
2, 2855, Note_on_c, 0, 79, 0
2, 2855, Note_on_c, 0, 67, 0
2, 2855, Note_on_c, 0, 73, 0
2, 2856, Note_on_c, 0, 40, 0
2, 2856, Note_on_c, 0, 52, 0
2, 2862, Note_on_c, 0, 61, 0
2, 2891, Note_on_c, 0, 62, 80
2, 2891, Note_on_c, 0, 68, 80
2, 2891, Note_on_c, 0, 72, 80
2, 2891, Note_on_c, 0, 74, 80
2, 2891, Note_on_c, 0, 80, 80
2, 2891, Note_on_c, 0, 84, 80
2, 2953, Note_on_c, 0, 41, 80
2, 2953, Note_on_c, 0, 53, 80
2, 2978, Note_on_c, 0, 84, 0
2, 2978, Note_on_c, 0, 74, 0
2, 2978, Note_on_c, 0, 62, 0
2, 2978, Note_on_c, 0, 68, 0
2, 2978, Note_on_c, 0, 72, 0
2, 2978, Note_on_c, 0, 80, 0
2, 2987, Control_c, 0, 64, 127
2, 3046, Note_on_c, 0, 41, 0
2, 3054, Note_on_c, 0, 53, 0
2, 3071, Control_c, 0, 64, 0
2, 3082, Note_on_c, 0, 77, 80
2, 3082, Note_on_c, 0, 80, 80
2, 3082, Note_on_c, 0, 82, 80
2, 3083, Note_on_c, 0, 58, 80
2, 3083, Note_on_c, 0, 62, 80
2, 3083, Note_on_c, 0, 65, 80
2, 3083, Note_on_c, 0, 68, 80
2, 3083, Note_on_c, 0, 70, 80
2, 3083, Note_on_c, 0, 74, 80
2, 3084, Note_on_c, 0, 46, 80
2, 3106, Note_on_c, 0, 82, 0
2, 3106, Note_on_c, 0, 77, 0
2, 3106, Note_on_c, 0, 80, 0
2, 3109, Note_on_c, 0, 58, 0
2, 3109, Note_on_c, 0, 68, 0
2, 3109, Note_on_c, 0, 65, 0
2, 3109, Note_on_c, 0, 46, 0
2, 3109, Note_on_c, 0, 74, 0
2, 3109, Note_on_c, 0, 70, 0
2, 3109, Note_on_c, 0, 62, 0
2, 3212, Note_on_c, 0, 63, 80
2, 3212, Note_on_c, 0, 67, 80
2, 3212, Note_on_c, 0, 72, 80
2, 3213, Note_on_c, 0, 51, 80
2, 3240, Note_on_c, 0, 51, 0
2, 3277, Note_on_c, 0, 70, 80
2, 3280, Note_on_c, 0, 72, 0
2, 3345, Note_on_c, 0, 55, 80
2, 3345, Note_on_c, 0, 58, 80
2, 3354, Note_on_c, 0, 67, 0
2, 3355, Note_on_c, 0, 63, 0
2, 3363, Note_on_c, 0, 55, 0
2, 3363, Note_on_c, 0, 58, 0
2, 3412, Note_on_c, 0, 68, 80
2, 3419, Note_on_c, 0, 70, 0
2, 3453, Note_on_c, 0, 68, 0
2, 3475, Note_on_c, 0, 67, 80
2, 3476, Note_on_c, 0, 46, 80
2, 3504, Note_on_c, 0, 46, 0
2, 3517, Note_on_c, 0, 67, 0
2, 3541, Note_on_c, 0, 66, 80
2, 3576, Note_on_c, 0, 66, 0
2, 3615, Note_on_c, 0, 55, 80
2, 3615, Note_on_c, 0, 58, 80
2, 3615, Note_on_c, 0, 67, 80
2, 3626, Note_on_c, 0, 55, 0
2, 3635, Note_on_c, 0, 67, 0
2, 3635, Note_on_c, 0, 58, 0
2, 3672, Note_on_c, 0, 65, 80
2, 3700, Note_on_c, 0, 65, 0
2, 3742, Note_on_c, 0, 39, 80
2, 3742, Note_on_c, 0, 51, 80
2, 3742, Note_on_c, 0, 63, 80
2, 3768, Note_on_c, 0, 63, 0
2, 3777, Note_on_c, 0, 39, 0
2, 3778, Note_on_c, 0, 51, 0
2, 3807, Note_on_c, 0, 65, 80
2, 3843, Note_on_c, 0, 65, 0
2, 3872, Note_on_c, 0, 67, 80
2, 3873, Note_on_c, 0, 40, 80
2, 3873, Note_on_c, 0, 61, 80
2, 3880, Note_on_c, 0, 52, 80
2, 3896, Note_on_c, 0, 61, 0
2, 3896, Note_on_c, 0, 67, 0
2, 3897, Note_on_c, 0, 40, 0
2, 3897, Note_on_c, 0, 52, 0
2, 3935, Note_on_c, 0, 72, 80
2, 3936, Note_on_c, 0, 62, 80
2, 3936, Note_on_c, 0, 68, 80
2, 4003, Note_on_c, 0, 41, 80
2, 4003, Note_on_c, 0, 53, 80
2, 4030, Note_on_c, 0, 53, 0
2, 4030, Note_on_c, 0, 41, 0
2, 4076, Note_on_c, 0, 72, 0
2, 4076, Note_on_c, 0, 62, 0
2, 4076, Note_on_c, 0, 68, 0
2, 4128, Note_on_c, 0, 58, 80
2, 4128, Note_on_c, 0, 62, 80
2, 4128, Note_on_c, 0, 68, 80
2, 4128, Note_on_c, 0, 70, 80
2, 4131, Note_on_c, 0, 46, 80
2, 4148, Note_on_c, 0, 46, 0
2, 4148, Note_on_c, 0, 68, 0
2, 4148, Note_on_c, 0, 58, 0
2, 4148, Note_on_c, 0, 62, 0
2, 4148, Note_on_c, 0, 70, 0
2, 4259, Note_on_c, 0, 84, 80
2, 4260, Note_on_c, 0, 60, 80
2, 4261, Note_on_c, 0, 39, 80
2, 4261, Note_on_c, 0, 51, 80
2, 4293, Note_on_c, 0, 60, 0
2, 4294, Note_on_c, 0, 51, 0
2, 4294, Note_on_c, 0, 39, 0
2, 4316, Note_on_c, 0, 84, 0
2, 4321, Note_on_c, 0, 82, 80
2, 4321, Note_on_c, 0, 58, 80
2, 4387, Note_on_c, 0, 67, 80
2, 4388, Note_on_c, 0, 82, 0
2, 4388, Note_on_c, 0, 63, 80
2, 4396, Note_on_c, 0, 58, 0
2, 4413, Note_on_c, 0, 63, 0
2, 4413, Note_on_c, 0, 67, 0
2, 4452, Note_on_c, 0, 80, 80
2, 4453, Note_on_c, 0, 56, 80
2, 4503, Note_on_c, 0, 80, 0
2, 4504, Note_on_c, 0, 56, 0
2, 4515, Note_on_c, 0, 79, 80
2, 4516, Note_on_c, 0, 46, 80
2, 4516, Note_on_c, 0, 55, 80
2, 4551, Note_on_c, 0, 46, 0
2, 4558, Note_on_c, 0, 55, 0
2, 4558, Note_on_c, 0, 79, 0
2, 4580, Note_on_c, 0, 78, 80
2, 4581, Note_on_c, 0, 54, 80
2, 4612, Note_on_c, 0, 78, 0
2, 4613, Note_on_c, 0, 54, 0
2, 4644, Note_on_c, 0, 79, 80
2, 4645, Note_on_c, 0, 55, 80
2, 4645, Note_on_c, 0, 63, 80
2, 4645, Note_on_c, 0, 67, 80
2, 4670, Note_on_c, 0, 67, 0
2, 4670, Note_on_c, 0, 63, 0
2, 4681, Note_on_c, 0, 55, 0
2, 4688, Note_on_c, 0, 79, 0
2, 4709, Note_on_c, 0, 77, 80
2, 4710, Note_on_c, 0, 53, 80
2, 4751, Note_on_c, 0, 77, 0
2, 4752, Note_on_c, 0, 53, 0
2, 4773, Note_on_c, 0, 39, 80
2, 4773, Note_on_c, 0, 51, 80
2, 4773, Note_on_c, 0, 75, 80
2, 4807, Note_on_c, 0, 39, 0
2, 4814, Note_on_c, 0, 75, 0
2, 4824, Note_on_c, 0, 51, 0
2, 4836, Note_on_c, 0, 77, 80
2, 4837, Note_on_c, 0, 53, 80
2, 4887, Note_on_c, 0, 77, 0
2, 4896, Note_on_c, 0, 53, 0
2, 4899, Note_on_c, 0, 79, 80
2, 4900, Note_on_c, 0, 55, 80
2, 4900, Note_on_c, 0, 67, 80
2, 4901, Note_on_c, 0, 63, 80
2, 4926, Note_on_c, 0, 63, 0
2, 4926, Note_on_c, 0, 67, 0
2, 4935, Note_on_c, 0, 55, 0
2, 4942, Note_on_c, 0, 79, 0
2, 4964, Note_on_c, 0, 82, 80
2, 4965, Note_on_c, 0, 58, 80
2, 5015, Control_c, 0, 64, 127
2, 5030, Note_on_c, 0, 46, 80
2, 5057, Note_on_c, 0, 46, 0
2, 5064, Note_on_c, 0, 82, 0
2, 5073, Note_on_c, 0, 58, 0
2, 5095, Note_on_c, 0, 75, 80
2, 5158, Control_c, 0, 64, 0
2, 5160, Note_on_c, 0, 79, 80
2, 5161, Note_on_c, 0, 55, 80
2, 5161, Note_on_c, 0, 58, 80
2, 5161, Note_on_c, 0, 67, 80
2, 5161, Note_on_c, 0, 70, 80
2, 5180, Note_on_c, 0, 75, 0
2, 5181, Note_on_c, 0, 58, 0
2, 5181, Note_on_c, 0, 55, 0
2, 5211, Note_on_c, 0, 79, 0
2, 5220, Note_on_c, 0, 67, 0
2, 5220, Note_on_c, 0, 70, 0
2, 5292, Note_on_c, 0, 84, 80
2, 5293, Note_on_c, 0, 51, 80
2, 5293, Note_on_c, 0, 60, 80
2, 5321, Note_on_c, 0, 51, 0
2, 5352, Note_on_c, 0, 84, 0
2, 5353, Note_on_c, 0, 60, 0
2, 5360, Note_on_c, 0, 58, 80
2, 5360, Note_on_c, 0, 82, 80
2, 5425, Note_on_c, 0, 63, 80
2, 5425, Note_on_c, 0, 67, 80
2, 5426, Note_on_c, 0, 82, 0
2, 5427, Note_on_c, 0, 58, 0
2, 5451, Note_on_c, 0, 63, 0
2, 5451, Note_on_c, 0, 67, 0
2, 5491, Note_on_c, 0, 80, 80
2, 5492, Note_on_c, 0, 56, 80
2, 5526, Note_on_c, 0, 56, 0
2, 5535, Note_on_c, 0, 80, 0
2, 5557, Note_on_c, 0, 55, 80
2, 5557, Note_on_c, 0, 79, 80
2, 5558, Note_on_c, 0, 46, 80
2, 5583, Note_on_c, 0, 46, 0
2, 5607, Note_on_c, 0, 79, 0
2, 5608, Note_on_c, 0, 55, 0
2, 5620, Note_on_c, 0, 54, 80
2, 5620, Note_on_c, 0, 78, 80
2, 5662, Note_on_c, 0, 54, 0
2, 5677, Note_on_c, 0, 78, 0
2, 5683, Note_on_c, 0, 67, 80
2, 5683, Note_on_c, 0, 79, 80
2, 5684, Note_on_c, 0, 55, 80
2, 5684, Note_on_c, 0, 63, 80
2, 5709, Note_on_c, 0, 63, 0
2, 5709, Note_on_c, 0, 67, 0
2, 5734, Note_on_c, 0, 55, 0
2, 5740, Note_on_c, 0, 79, 0
2, 5747, Note_on_c, 0, 56, 80
2, 5747, Note_on_c, 0, 80, 80
2, 5797, Note_on_c, 0, 56, 0
2, 5804, Note_on_c, 0, 80, 0
2, 5808, Note_on_c, 0, 82, 80
2, 5808, Note_on_c, 0, 58, 80
2, 5809, Note_on_c, 0, 39, 80
2, 5809, Note_on_c, 0, 51, 80
2, 5819, Control_c, 0, 64, 127
2, 5835, Note_on_c, 0, 51, 0
2, 5835, Note_on_c, 0, 39, 0
2, 5937, Note_on_c, 0, 70, 80
2, 5938, Note_on_c, 0, 82, 0
2, 5938, Note_on_c, 0, 55, 80
2, 5938, Note_on_c, 0, 63, 80
2, 5939, Note_on_c, 0, 58, 0
2, 5974, Control_c, 0, 64, 0
2, 5999, Note_on_c, 0, 67, 80
2, 6025, Note_on_c, 0, 70, 0
2, 6026, Note_on_c, 0, 63, 0
2, 6060, Note_on_c, 0, 55, 0
2, 6063, Note_on_c, 0, 70, 80
2, 6064, Note_on_c, 0, 58, 80
2, 6064, Note_on_c, 0, 63, 80
2, 6073, Note_on_c, 0, 67, 0
2, 6115, Control_c, 0, 64, 127
2, 6128, Note_on_c, 0, 67, 80
2, 6146, Note_on_c, 0, 70, 0
2, 6146, Note_on_c, 0, 63, 0
2, 6171, Note_on_c, 0, 58, 0
2, 6181, Control_c, 0, 64, 0
2, 6187, Note_on_c, 0, 67, 0
2, 6193, Note_on_c, 0, 61, 80
2, 6193, Note_on_c, 0, 70, 80
2, 6228, Note_on_c, 0, 70, 0
2, 6229, Note_on_c, 0, 61, 0
2, 6275, Note_on_c, 0, 57, 80
2, 6291, Note_on_c, 0, 58, 80
2, 6292, Note_on_c, 0, 57, 0
2, 6306, Note_on_c, 0, 59, 80
2, 6309, Note_on_c, 0, 58, 0
2, 6321, Note_on_c, 0, 60, 80
2, 6321, Note_on_c, 0, 63, 80
2, 6321, Note_on_c, 0, 75, 80
2, 6321, Note_on_c, 0, 87, 80
2, 6333, Note_on_c, 0, 59, 0
2, 6348, Note_on_c, 0, 75, 0
2, 6348, Note_on_c, 0, 87, 0
2, 6349, Note_on_c, 0, 63, 0
2, 6385, Note_on_c, 0, 75, 80
2, 6429, Note_on_c, 0, 75, 0
2, 6451, Note_on_c, 0, 63, 80
2, 6451, Note_on_c, 0, 75, 80
2, 6451, Note_on_c, 0, 87, 80
2, 6469, Note_on_c, 0, 87, 0
2, 6469, Note_on_c, 0, 75, 0
2, 6469, Note_on_c, 0, 63, 0
2, 6516, Note_on_c, 0, 75, 80
2, 6557, Note_on_c, 0, 75, 0
2, 6557, Note_on_c, 0, 60, 0
2, 6579, Note_on_c, 0, 87, 80
2, 6580, Note_on_c, 0, 59, 80
2, 6580, Note_on_c, 0, 63, 80
2, 6580, Note_on_c, 0, 75, 80
2, 6597, Note_on_c, 0, 75, 0
2, 6597, Note_on_c, 0, 63, 0
2, 6597, Note_on_c, 0, 87, 0
2, 6646, Note_on_c, 0, 75, 80
2, 6687, Note_on_c, 0, 75, 0
2, 6708, Note_on_c, 0, 87, 80
2, 6709, Note_on_c, 0, 75, 80
2, 6710, Note_on_c, 0, 63, 80
2, 6726, Note_on_c, 0, 63, 0
2, 6726, Note_on_c, 0, 75, 0
2, 6726, Note_on_c, 0, 87, 0
2, 6776, Note_on_c, 0, 75, 80
2, 6819, Note_on_c, 0, 75, 0
2, 6840, Note_on_c, 0, 87, 80
2, 6840, Note_on_c, 0, 58, 80
2, 6840, Note_on_c, 0, 63, 80
2, 6840, Note_on_c, 0, 75, 80
2, 6859, Note_on_c, 0, 59, 0
2, 6865, Note_on_c, 0, 87, 0
2, 6866, Note_on_c, 0, 63, 0
2, 6866, Note_on_c, 0, 75, 0
2, 6906, Note_on_c, 0, 63, 80
2, 6906, Note_on_c, 0, 75, 80
2, 6947, Note_on_c, 0, 75, 0
2, 6947, Note_on_c, 0, 63, 0
2, 6969, Note_on_c, 0, 67, 80
2, 6969, Note_on_c, 0, 70, 80
2, 6969, Note_on_c, 0, 75, 80
2, 6969, Note_on_c, 0, 87, 80
2, 6970, Note_on_c, 0, 63, 80
2, 6988, Note_on_c, 0, 70, 0
2, 6988, Note_on_c, 0, 67, 0
2, 6995, Note_on_c, 0, 87, 0
2, 6996, Note_on_c, 0, 75, 0
2, 6996, Note_on_c, 0, 63, 0
2, 7035, Note_on_c, 0, 75, 80
2, 7036, Note_on_c, 0, 63, 80
2, 7080, Note_on_c, 0, 63, 0
2, 7080, Note_on_c, 0, 75, 0
2, 7080, Note_on_c, 0, 58, 0
2, 7102, Note_on_c, 0, 55, 80
2, 7102, Note_on_c, 0, 63, 80
2, 7102, Note_on_c, 0, 75, 80
2, 7102, Note_on_c, 0, 87, 80
2, 7120, Note_on_c, 0, 87, 0
2, 7120, Note_on_c, 0, 75, 0
2, 7120, Note_on_c, 0, 63, 0
2, 7169, Note_on_c, 0, 63, 80
2, 7169, Note_on_c, 0, 75, 80
2, 7212, Note_on_c, 0, 75, 0
2, 7212, Note_on_c, 0, 63, 0
2, 7233, Note_on_c, 0, 63, 80
2, 7233, Note_on_c, 0, 75, 80
2, 7233, Note_on_c, 0, 87, 80
2, 7234, Note_on_c, 0, 67, 80
2, 7234, Note_on_c, 0, 70, 80
2, 7261, Note_on_c, 0, 70, 0
2, 7261, Note_on_c, 0, 87, 0
2, 7261, Note_on_c, 0, 75, 0
2, 7261, Note_on_c, 0, 67, 0
2, 7262, Note_on_c, 0, 63, 0
2, 7299, Note_on_c, 0, 58, 80
2, 7299, Note_on_c, 0, 82, 80
2, 7331, Note_on_c, 0, 84, 80
2, 7341, Note_on_c, 0, 55, 0
2, 7344, Note_on_c, 0, 85, 80
2, 7347, Note_on_c, 0, 84, 0
2, 7356, Note_on_c, 0, 58, 0
2, 7356, Note_on_c, 0, 82, 0
2, 7363, Note_on_c, 0, 41, 80
2, 7363, Note_on_c, 0, 53, 80
2, 7363, Note_on_c, 0, 62, 80
2, 7363, Note_on_c, 0, 65, 80
2, 7363, Note_on_c, 0, 74, 80
2, 7363, Note_on_c, 0, 77, 80
2, 7363, Note_on_c, 0, 86, 80
2, 7364, Note_on_c, 0, 85, 0
2, 7388, Note_on_c, 0, 65, 0
2, 7388, Note_on_c, 0, 74, 0
2, 7388, Note_on_c, 0, 62, 0
2, 7388, Note_on_c, 0, 77, 0
2, 7412, Note_on_c, 0, 86, 0
2, 7413, Note_on_c, 0, 41, 0
2, 7413, Note_on_c, 0, 53, 0
2, 7426, Note_on_c, 0, 62, 80
2, 7426, Note_on_c, 0, 70, 80
2, 7426, Note_on_c, 0, 82, 80
2, 7488, Note_on_c, 0, 54, 80
2, 7489, Note_on_c, 0, 82, 0
2, 7489, Note_on_c, 0, 42, 80
2, 7490, Note_on_c, 0, 62, 0
2, 7490, Note_on_c, 0, 70, 0
2, 7539, Note_on_c, 0, 54, 0
2, 7540, Note_on_c, 0, 42, 0
2, 7553, Note_on_c, 0, 86, 80
2, 7554, Note_on_c, 0, 65, 80
2, 7554, Note_on_c, 0, 74, 80
2, 7570, Note_on_c, 0, 74, 0
2, 7570, Note_on_c, 0, 65, 0
2, 7570, Note_on_c, 0, 86, 0
2, 7617, Note_on_c, 0, 64, 80
2, 7617, Note_on_c, 0, 72, 80
2, 7617, Note_on_c, 0, 76, 80
2, 7618, Note_on_c, 0, 43, 80
2, 7618, Note_on_c, 0, 55, 80
2, 7625, Note_on_c, 0, 84, 80
2, 7643, Note_on_c, 0, 55, 0
2, 7643, Note_on_c, 0, 64, 0
2, 7644, Note_on_c, 0, 43, 0
2, 7659, Note_on_c, 0, 72, 0
2, 7659, Note_on_c, 0, 84, 0
2, 7659, Note_on_c, 0, 76, 0
2, 7739, Note_on_c, 0, 86, 80
2, 7746, Note_on_c, 0, 57, 80
2, 7746, Note_on_c, 0, 65, 80
2, 7746, Note_on_c, 0, 74, 80
2, 7747, Note_on_c, 0, 63, 80
2, 7752, Note_on_c, 0, 45, 80
2, 7771, Note_on_c, 0, 74, 0
2, 7771, Note_on_c, 0, 65, 0
2, 7771, Note_on_c, 0, 86, 0
2, 7772, Note_on_c, 0, 57, 0
2, 7772, Note_on_c, 0, 63, 0
2, 7772, Note_on_c, 0, 45, 0
2, 7809, Note_on_c, 0, 58, 80
2, 7809, Note_on_c, 0, 62, 80
2, 7809, Note_on_c, 0, 65, 80
2, 7809, Note_on_c, 0, 70, 80
2, 7809, Note_on_c, 0, 74, 80
2, 7809, Note_on_c, 0, 82, 80
2, 7810, Note_on_c, 0, 46, 80
2, 7844, Note_on_c, 0, 58, 0
2, 7860, Note_on_c, 0, 46, 0
2, 7867, Note_on_c, 0, 65, 0
2, 7867, Note_on_c, 0, 62, 0
2, 7867, Note_on_c, 0, 74, 0
2, 7867, Note_on_c, 0, 82, 0
2, 7876, Note_on_c, 0, 58, 80
2, 7907, Control_c, 0, 64, 127
2, 7941, Note_on_c, 0, 58, 0
2, 7977, Control_c, 0, 64, 0
2, 8006, Note_on_c, 0, 62, 80
2, 8007, Note_on_c, 0, 53, 80
2, 8065, Note_on_c, 0, 53, 0
2, 8065, Note_on_c, 0, 70, 0
2, 8072, Note_on_c, 0, 63, 80
2, 8073, Note_on_c, 0, 62, 0
2, 8135, Note_on_c, 0, 50, 80
2, 8135, Note_on_c, 0, 65, 80
2, 8146, Note_on_c, 0, 63, 0
2, 8184, Control_c, 0, 64, 127
2, 8192, Note_on_c, 0, 50, 0
2, 8199, Note_on_c, 0, 67, 80
2, 8208, Note_on_c, 0, 65, 0
2, 8233, Control_c, 0, 64, 0
2, 8262, Note_on_c, 0, 46, 80
2, 8262, Note_on_c, 0, 68, 80
2, 8274, Note_on_c, 0, 67, 0
2, 8326, Note_on_c, 0, 70, 80
2, 8347, Note_on_c, 0, 46, 0
2, 8353, Note_on_c, 0, 68, 0
2, 8370, Note_on_c, 0, 70, 0
2, 8392, Note_on_c, 0, 39, 80
2, 8392, Note_on_c, 0, 51, 80
2, 8392, Note_on_c, 0, 60, 80
2, 8392, Note_on_c, 0, 84, 80
2, 8425, Note_on_c, 0, 60, 0
2, 8426, Note_on_c, 0, 39, 0
2, 8426, Note_on_c, 0, 51, 0
2, 8448, Note_on_c, 0, 84, 0
2, 8455, Note_on_c, 0, 58, 80
2, 8455, Note_on_c, 0, 82, 80
2, 8520, Note_on_c, 0, 63, 80
2, 8520, Note_on_c, 0, 67, 80
2, 8521, Note_on_c, 0, 82, 0
2, 8531, Note_on_c, 0, 58, 0
2, 8546, Note_on_c, 0, 63, 0
2, 8546, Note_on_c, 0, 67, 0
2, 8586, Note_on_c, 0, 56, 80
2, 8586, Note_on_c, 0, 80, 80
2, 8636, Note_on_c, 0, 80, 0
2, 8636, Note_on_c, 0, 56, 0
2, 8649, Note_on_c, 0, 79, 80
2, 8650, Note_on_c, 0, 46, 80
2, 8650, Note_on_c, 0, 55, 80
2, 8685, Note_on_c, 0, 46, 0
2, 8693, Note_on_c, 0, 55, 0
2, 8693, Note_on_c, 0, 79, 0
2, 8717, Note_on_c, 0, 54, 80
2, 8717, Note_on_c, 0, 78, 80
2, 8752, Note_on_c, 0, 78, 0
2, 8752, Note_on_c, 0, 54, 0
2, 8784, Note_on_c, 0, 55, 80
2, 8784, Note_on_c, 0, 63, 80
2, 8784, Note_on_c, 0, 67, 80
2, 8784, Note_on_c, 0, 79, 80
2, 8811, Note_on_c, 0, 67, 0
2, 8811, Note_on_c, 0, 63, 0
2, 8820, Note_on_c, 0, 55, 0
2, 8829, Note_on_c, 0, 79, 0
2, 8851, Note_on_c, 0, 53, 80
2, 8851, Note_on_c, 0, 77, 80
2, 8892, Note_on_c, 0, 53, 0
2, 8893, Note_on_c, 0, 77, 0
2, 8915, Note_on_c, 0, 39, 80
2, 8915, Note_on_c, 0, 51, 80
2, 8915, Note_on_c, 0, 75, 80
2, 8956, Note_on_c, 0, 39, 0
2, 8957, Note_on_c, 0, 75, 0
2, 8966, Note_on_c, 0, 51, 0
2, 8981, Note_on_c, 0, 77, 80
2, 8990, Note_on_c, 0, 53, 80
2, 9031, Note_on_c, 0, 77, 0
2, 9044, Note_on_c, 0, 55, 80
2, 9045, Note_on_c, 0, 63, 80
2, 9045, Note_on_c, 0, 67, 80
2, 9045, Note_on_c, 0, 79, 80
2, 9046, Note_on_c, 0, 53, 0
2, 9070, Note_on_c, 0, 67, 0
2, 9078, Note_on_c, 0, 55, 0
2, 9078, Note_on_c, 0, 63, 0
2, 9087, Note_on_c, 0, 79, 0
2, 9108, Note_on_c, 0, 58, 80
2, 9108, Note_on_c, 0, 82, 80
2, 9158, Control_c, 0, 64, 127
2, 9173, Note_on_c, 0, 46, 80
2, 9200, Note_on_c, 0, 46, 0
2, 9207, Note_on_c, 0, 82, 0
2, 9216, Note_on_c, 0, 58, 0
2, 9239, Note_on_c, 0, 75, 80
2, 9288, Control_c, 0, 64, 0
2, 9301, Note_on_c, 0, 55, 80
2, 9301, Note_on_c, 0, 58, 80
2, 9301, Note_on_c, 0, 67, 80
2, 9301, Note_on_c, 0, 70, 80
2, 9301, Note_on_c, 0, 79, 80
2, 9319, Note_on_c, 0, 58, 0
2, 9319, Note_on_c, 0, 75, 0
2, 9319, Note_on_c, 0, 55, 0
2, 9351, Note_on_c, 0, 79, 0
2, 9360, Note_on_c, 0, 70, 0
2, 9360, Note_on_c, 0, 67, 0
2, 9432, Note_on_c, 0, 51, 80
2, 9432, Note_on_c, 0, 60, 80
2, 9432, Note_on_c, 0, 84, 80
2, 9459, Note_on_c, 0, 51, 0
2, 9493, Note_on_c, 0, 84, 0
2, 9493, Note_on_c, 0, 60, 0
2, 9500, Note_on_c, 0, 58, 80
2, 9500, Note_on_c, 0, 82, 80
2, 9565, Note_on_c, 0, 67, 80
2, 9566, Note_on_c, 0, 63, 80
2, 9567, Note_on_c, 0, 82, 0
2, 9567, Note_on_c, 0, 58, 0
2, 9591, Note_on_c, 0, 67, 0
2, 9591, Note_on_c, 0, 63, 0
2, 9630, Note_on_c, 0, 56, 80
2, 9630, Note_on_c, 0, 80, 80
2, 9667, Note_on_c, 0, 56, 0
2, 9673, Note_on_c, 0, 80, 0
2, 9696, Note_on_c, 0, 79, 80
2, 9696, Note_on_c, 0, 46, 80
2, 9696, Note_on_c, 0, 55, 80
2, 9721, Note_on_c, 0, 46, 0
2, 9745, Note_on_c, 0, 55, 0
2, 9745, Note_on_c, 0, 79, 0
2, 9759, Note_on_c, 0, 54, 80
2, 9760, Note_on_c, 0, 78, 80
2, 9801, Note_on_c, 0, 54, 0
2, 9817, Note_on_c, 0, 78, 0
2, 9821, Note_on_c, 0, 67, 80
2, 9822, Note_on_c, 0, 55, 80
2, 9822, Note_on_c, 0, 63, 80
2, 9822, Note_on_c, 0, 79, 80
2, 9849, Note_on_c, 0, 63, 0
2, 9849, Note_on_c, 0, 67, 0
2, 9871, Note_on_c, 0, 55, 0
2, 9880, Note_on_c, 0, 79, 0
2, 9887, Note_on_c, 0, 56, 80
2, 9887, Note_on_c, 0, 80, 80
2, 9934, Note_on_c, 0, 56, 0
2, 9942, Note_on_c, 0, 80, 0
2, 9948, Note_on_c, 0, 39, 80
2, 9948, Note_on_c, 0, 58, 80
2, 9948, Note_on_c, 0, 82, 80
2, 9949, Note_on_c, 0, 51, 80
2, 9956, Control_c, 0, 64, 127
2, 9974, Note_on_c, 0, 51, 0
2, 9974, Note_on_c, 0, 39, 0
2, 10074, Note_on_c, 0, 55, 80
2, 10074, Note_on_c, 0, 63, 80
2, 10075, Note_on_c, 0, 70, 80
2, 10076, Note_on_c, 0, 82, 0
2, 10076, Note_on_c, 0, 58, 0
2, 10101, Control_c, 0, 64, 0
2, 10138, Note_on_c, 0, 67, 80
2, 10165, Note_on_c, 0, 63, 0
2, 10165, Note_on_c, 0, 70, 0
2, 10197, Note_on_c, 0, 55, 0
2, 10202, Note_on_c, 0, 58, 80
2, 10202, Note_on_c, 0, 70, 80
2, 10203, Note_on_c, 0, 63, 80
2, 10213, Note_on_c, 0, 67, 0
2, 10254, Control_c, 0, 64, 127
2, 10270, Note_on_c, 0, 67, 80
2, 10289, Note_on_c, 0, 63, 0
2, 10289, Note_on_c, 0, 70, 0
2, 10311, Note_on_c, 0, 58, 0
2, 10320, Control_c, 0, 64, 0
2, 10328, Note_on_c, 0, 67, 0
2, 10335, Note_on_c, 0, 61, 80
2, 10335, Note_on_c, 0, 70, 80
2, 10369, Note_on_c, 0, 70, 0
2, 10369, Note_on_c, 0, 61, 0
2, 10421, Note_on_c, 0, 57, 80
2, 10437, Note_on_c, 0, 58, 80
2, 10440, Note_on_c, 0, 57, 0
2, 10454, Note_on_c, 0, 59, 80
2, 10455, Note_on_c, 0, 58, 0
2, 10470, Note_on_c, 0, 60, 80
2, 10470, Note_on_c, 0, 75, 80
2, 10470, Note_on_c, 0, 87, 80
2, 10471, Note_on_c, 0, 63, 80
2, 10480, Note_on_c, 0, 59, 0
2, 10498, Note_on_c, 0, 87, 0
2, 10498, Note_on_c, 0, 63, 0
2, 10498, Note_on_c, 0, 75, 0
2, 10537, Note_on_c, 0, 75, 80
2, 10581, Note_on_c, 0, 75, 0
2, 10603, Note_on_c, 0, 63, 80
2, 10603, Note_on_c, 0, 75, 80
2, 10603, Note_on_c, 0, 87, 80
2, 10621, Note_on_c, 0, 87, 0
2, 10621, Note_on_c, 0, 75, 0
2, 10621, Note_on_c, 0, 63, 0
2, 10667, Note_on_c, 0, 75, 80
2, 10708, Note_on_c, 0, 75, 0
2, 10708, Note_on_c, 0, 60, 0
2, 10729, Note_on_c, 0, 59, 80
2, 10729, Note_on_c, 0, 63, 80
2, 10729, Note_on_c, 0, 75, 80
2, 10729, Note_on_c, 0, 87, 80
2, 10748, Note_on_c, 0, 87, 0
2, 10748, Note_on_c, 0, 75, 0
2, 10748, Note_on_c, 0, 63, 0
2, 10795, Note_on_c, 0, 75, 80
2, 10836, Note_on_c, 0, 75, 0
2, 10858, Note_on_c, 0, 63, 80
2, 10858, Note_on_c, 0, 75, 80
2, 10858, Note_on_c, 0, 87, 80
2, 10876, Note_on_c, 0, 87, 0
2, 10876, Note_on_c, 0, 75, 0
2, 10876, Note_on_c, 0, 63, 0
2, 10923, Note_on_c, 0, 75, 80
2, 10968, Note_on_c, 0, 75, 0
2, 10992, Note_on_c, 0, 58, 80
2, 10992, Note_on_c, 0, 63, 80
2, 10992, Note_on_c, 0, 75, 80
2, 10992, Note_on_c, 0, 87, 80
2, 11010, Note_on_c, 0, 59, 0
2, 11016, Note_on_c, 0, 75, 0
2, 11016, Note_on_c, 0, 87, 0
2, 11016, Note_on_c, 0, 63, 0
2, 11056, Note_on_c, 0, 63, 80
2, 11056, Note_on_c, 0, 75, 80
2, 11099, Note_on_c, 0, 75, 0
2, 11099, Note_on_c, 0, 63, 0
2, 11121, Note_on_c, 0, 70, 80
2, 11122, Note_on_c, 0, 63, 80
2, 11122, Note_on_c, 0, 67, 80
2, 11122, Note_on_c, 0, 75, 80
2, 11122, Note_on_c, 0, 87, 80
2, 11140, Note_on_c, 0, 67, 0
2, 11140, Note_on_c, 0, 70, 0
2, 11149, Note_on_c, 0, 75, 0
2, 11149, Note_on_c, 0, 63, 0
2, 11149, Note_on_c, 0, 87, 0
2, 11189, Note_on_c, 0, 63, 80
2, 11189, Note_on_c, 0, 75, 80
2, 11232, Note_on_c, 0, 75, 0
2, 11232, Note_on_c, 0, 63, 0
2, 11232, Note_on_c, 0, 58, 0
2, 11254, Note_on_c, 0, 55, 80
2, 11254, Note_on_c, 0, 63, 80
2, 11254, Note_on_c, 0, 75, 80
2, 11254, Note_on_c, 0, 87, 80
2, 11272, Note_on_c, 0, 87, 0
2, 11272, Note_on_c, 0, 75, 0
2, 11272, Note_on_c, 0, 63, 0
2, 11319, Note_on_c, 0, 75, 80
2, 11320, Note_on_c, 0, 63, 80
2, 11363, Note_on_c, 0, 63, 0
2, 11363, Note_on_c, 0, 75, 0
2, 11384, Note_on_c, 0, 67, 80
2, 11384, Note_on_c, 0, 70, 80
2, 11384, Note_on_c, 0, 75, 80
2, 11384, Note_on_c, 0, 87, 80
2, 11385, Note_on_c, 0, 63, 80
2, 11409, Note_on_c, 0, 87, 0
2, 11409, Note_on_c, 0, 75, 0
2, 11409, Note_on_c, 0, 70, 0
2, 11409, Note_on_c, 0, 67, 0
2, 11410, Note_on_c, 0, 63, 0
2, 11449, Note_on_c, 0, 58, 80
2, 11490, Note_on_c, 0, 55, 0
2, 11506, Note_on_c, 0, 58, 0
2, 11512, Note_on_c, 0, 48, 80
2, 11512, Note_on_c, 0, 57, 80
2, 11512, Note_on_c, 0, 63, 80
2, 11632, Note_on_c, 0, 57, 0
2, 11638, Note_on_c, 0, 47, 80
2, 11638, Note_on_c, 0, 56, 80
2, 11641, Note_on_c, 0, 48, 0
2, 11735, Note_on_c, 0, 56, 0
2, 11751, Note_on_c, 0, 47, 0
2, 11751, Note_on_c, 0, 63, 0
2, 11763, Note_on_c, 0, 56, 80
2, 11763, Note_on_c, 0, 65, 80
2, 11764, Note_on_c, 0, 46, 80
2, 11764, Note_on_c, 0, 62, 80
2, 11813, Control_c, 0, 64, 127
2, 11823, Note_on_c, 0, 46, 0
2, 11830, Note_on_c, 0, 67, 80
2, 11839, Note_on_c, 0, 65, 0
2, 11873, Control_c, 0, 64, 0
2, 11892, Note_on_c, 0, 34, 80
2, 11928, Note_on_c, 0, 62, 0
2, 11928, Note_on_c, 0, 67, 0
2, 11928, Note_on_c, 0, 56, 0
2, 11969, Note_on_c, 0, 58, 80
2, 11969, Note_on_c, 0, 63, 80
2, 11970, Note_on_c, 0, 55, 80
2, 11988, Note_on_c, 0, 34, 0
2, 12028, Note_on_c, 0, 39, 80
2, 12028, Note_on_c, 0, 51, 80
2, 12029, Control_c, 0, 64, 127
2, 12064, Note_on_c, 0, 58, 0
2, 12064, Note_on_c, 0, 55, 0
2, 12064, Note_on_c, 0, 63, 0
2, 12154, Control_c, 0, 64, 0
2, 12160, Note_on_c, 0, 70, 80
2, 12228, Note_on_c, 0, 69, 80
2, 12231, Note_on_c, 0, 39, 0
2, 12231, Note_on_c, 0, 51, 0
2, 12246, Note_on_c, 0, 70, 0
2, 12289, Note_on_c, 0, 69, 0
2, 12295, Note_on_c, 0, 70, 80
2, 12360, Note_on_c, 0, 71, 80
2, 12372, Note_on_c, 0, 70, 0
2, 12427, Note_on_c, 0, 72, 80
2, 12430, Note_on_c, 0, 40, 80
2, 12435, Note_on_c, 0, 52, 80
2, 12445, Note_on_c, 0, 71, 0
2, 12455, Note_on_c, 0, 52, 0
2, 12455, Note_on_c, 0, 40, 0
2, 12491, Note_on_c, 0, 73, 80
2, 12507, Note_on_c, 0, 72, 0
2, 12539, Note_on_c, 0, 73, 0
2, 12554, Note_on_c, 0, 41, 80
2, 12554, Note_on_c, 0, 53, 80
2, 12554, Note_on_c, 0, 77, 80
2, 12554, Note_on_c, 0, 80, 80
2, 12554, Note_on_c, 0, 86, 80
2, 12579, Note_on_c, 0, 86, 0
2, 12579, Note_on_c, 0, 77, 0
2, 12579, Note_on_c, 0, 80, 0
2, 12598, Note_on_c, 0, 41, 0
2, 12606, Note_on_c, 0, 53, 0
2, 12619, Note_on_c, 0, 80, 80
2, 12619, Note_on_c, 0, 86, 80
2, 12620, Note_on_c, 0, 68, 80
2, 12620, Note_on_c, 0, 74, 80
2, 12620, Note_on_c, 0, 77, 80
2, 12636, Note_on_c, 0, 74, 0
2, 12636, Note_on_c, 0, 68, 0
2, 12683, Note_on_c, 0, 56, 80
2, 12683, Note_on_c, 0, 58, 80
2, 12683, Note_on_c, 0, 62, 80
2, 12693, Note_on_c, 0, 80, 0
2, 12693, Note_on_c, 0, 77, 0
2, 12693, Note_on_c, 0, 86, 0
2, 12701, Note_on_c, 0, 56, 0
2, 12701, Note_on_c, 0, 58, 0
2, 12701, Note_on_c, 0, 62, 0
2, 12748, Note_on_c, 0, 77, 80
2, 12748, Note_on_c, 0, 80, 80
2, 12748, Note_on_c, 0, 84, 80
2, 12749, Note_on_c, 0, 65, 80
2, 12774, Note_on_c, 0, 65, 0
2, 12774, Note_on_c, 0, 77, 0
2, 12774, Note_on_c, 0, 80, 0
2, 12774, Note_on_c, 0, 84, 0
2, 12814, Note_on_c, 0, 72, 80
2, 12814, Note_on_c, 0, 77, 80
2, 12814, Note_on_c, 0, 80, 80
2, 12814, Note_on_c, 0, 84, 80
2, 12815, Note_on_c, 0, 68, 80
2, 12816, Note_on_c, 0, 46, 80
2, 12840, Note_on_c, 0, 68, 0
2, 12840, Note_on_c, 0, 72, 0
2, 12848, Note_on_c, 0, 46, 0
2, 12882, Note_on_c, 0, 77, 0
2, 12882, Note_on_c, 0, 84, 0
2, 12882, Note_on_c, 0, 80, 0
2, 12946, Note_on_c, 0, 77, 80
2, 12946, Note_on_c, 0, 80, 80
2, 12946, Note_on_c, 0, 86, 80
2, 12947, Note_on_c, 0, 56, 80
2, 12947, Note_on_c, 0, 58, 80
2, 12947, Note_on_c, 0, 62, 80
2, 12963, Note_on_c, 0, 62, 0
2, 12963, Note_on_c, 0, 56, 0
2, 12963, Note_on_c, 0, 58, 0
2, 12970, Note_on_c, 0, 77, 0
2, 12970, Note_on_c, 0, 86, 0
2, 12970, Note_on_c, 0, 80, 0
2, 13009, Note_on_c, 0, 74, 80
2, 13009, Note_on_c, 0, 77, 80
2, 13009, Note_on_c, 0, 80, 80
2, 13009, Note_on_c, 0, 86, 80
2, 13010, Note_on_c, 0, 68, 80
2, 13037, Note_on_c, 0, 68, 0
2, 13037, Note_on_c, 0, 74, 0
2, 13069, Note_on_c, 0, 86, 0
2, 13069, Note_on_c, 0, 80, 0
2, 13070, Note_on_c, 0, 77, 0
2, 13079, Note_on_c, 0, 41, 80
2, 13113, Note_on_c, 0, 41, 0
2, 13140, Note_on_c, 0, 84, 80
2, 13141, Note_on_c, 0, 77, 80
2, 13141, Note_on_c, 0, 80, 80
2, 13166, Note_on_c, 0, 80, 0
2, 13166, Note_on_c, 0, 77, 0
2, 13166, Note_on_c, 0, 84, 0
2, 13203, Note_on_c, 0, 72, 80
2, 13203, Note_on_c, 0, 77, 80
2, 13203, Note_on_c, 0, 80, 80
2, 13203, Note_on_c, 0, 84, 80
2, 13204, Note_on_c, 0, 56, 80
2, 13204, Note_on_c, 0, 58, 80
2, 13204, Note_on_c, 0, 62, 80
2, 13204, Note_on_c, 0, 68, 80
2, 13221, Note_on_c, 0, 62, 0
2, 13221, Note_on_c, 0, 58, 0
2, 13221, Note_on_c, 0, 56, 0
2, 13227, Note_on_c, 0, 68, 0
2, 13227, Note_on_c, 0, 72, 0
2, 13234, Note_on_c, 0, 80, 0
2, 13235, Note_on_c, 0, 84, 0
2, 13236, Note_on_c, 0, 77, 0
2, 13326, Note_on_c, 0, 77, 80
2, 13326, Note_on_c, 0, 80, 80
2, 13326, Note_on_c, 0, 86, 80
2, 13327, Note_on_c, 0, 46, 80
2, 13368, Note_on_c, 0, 46, 0
2, 13374, Note_on_c, 0, 77, 0
2, 13374, Note_on_c, 0, 80, 0
2, 13374, Note_on_c, 0, 86, 0
2, 13451, Note_on_c, 0, 68, 80
2, 13451, Note_on_c, 0, 72, 80
2, 13451, Note_on_c, 0, 77, 80
2, 13451, Note_on_c, 0, 80, 80
2, 13451, Note_on_c, 0, 84, 80
2, 13452, Note_on_c, 0, 56, 80
2, 13452, Note_on_c, 0, 58, 80
2, 13452, Note_on_c, 0, 62, 80
2, 13468, Note_on_c, 0, 62, 0
2, 13469, Note_on_c, 0, 58, 0
2, 13469, Note_on_c, 0, 56, 0
2, 13485, Note_on_c, 0, 68, 0
2, 13485, Note_on_c, 0, 72, 0
2, 13509, Note_on_c, 0, 80, 0
2, 13509, Note_on_c, 0, 84, 0
2, 13509, Note_on_c, 0, 77, 0
2, 13580, Note_on_c, 0, 79, 80
2, 13580, Note_on_c, 0, 84, 80
2, 13581, Note_on_c, 0, 75, 80
2, 13582, Note_on_c, 0, 39, 80
2, 13616, Note_on_c, 0, 75, 0
2, 13616, Note_on_c, 0, 79, 0
2, 13616, Note_on_c, 0, 84, 0
2, 13617, Note_on_c, 0, 39, 0
2, 13648, Note_on_c, 0, 67, 80
2, 13648, Note_on_c, 0, 72, 80
2, 13648, Note_on_c, 0, 75, 80
2, 13648, Note_on_c, 0, 79, 80
2, 13648, Note_on_c, 0, 84, 80
2, 13675, Note_on_c, 0, 72, 0
2, 13675, Note_on_c, 0, 67, 0
2, 13715, Note_on_c, 0, 84, 0
2, 13715, Note_on_c, 0, 51, 80
2, 13715, Note_on_c, 0, 55, 80
2, 13715, Note_on_c, 0, 58, 80
2, 13716, Note_on_c, 0, 75, 0
2, 13716, Note_on_c, 0, 79, 0
2, 13732, Note_on_c, 0, 55, 0
2, 13732, Note_on_c, 0, 58, 0
2, 13733, Note_on_c, 0, 51, 0
2, 13780, Note_on_c, 0, 75, 80
2, 13780, Note_on_c, 0, 79, 80
2, 13780, Note_on_c, 0, 82, 80
2, 13799, Note_on_c, 0, 79, 0
2, 13800, Note_on_c, 0, 82, 0
2, 13800, Note_on_c, 0, 75, 0
2, 13847, Note_on_c, 0, 79, 80
2, 13848, Note_on_c, 0, 67, 80
2, 13848, Note_on_c, 0, 70, 80
2, 13848, Note_on_c, 0, 75, 80
2, 13848, Note_on_c, 0, 82, 80
2, 13848, Note_on_c, 0, 34, 80
2, 13872, Note_on_c, 0, 70, 0
2, 13872, Note_on_c, 0, 67, 0
2, 13881, Note_on_c, 0, 75, 0
2, 13881, Note_on_c, 0, 79, 0
2, 13881, Note_on_c, 0, 82, 0
2, 13884, Note_on_c, 0, 34, 0
2, 13977, Note_on_c, 0, 84, 80
2, 13978, Note_on_c, 0, 75, 80
2, 13978, Note_on_c, 0, 79, 80
2, 13979, Note_on_c, 0, 51, 80
2, 13979, Note_on_c, 0, 55, 80
2, 13979, Note_on_c, 0, 58, 80
2, 13997, Note_on_c, 0, 58, 0
2, 13997, Note_on_c, 0, 55, 0
2, 13998, Note_on_c, 0, 51, 0
2, 14004, Note_on_c, 0, 79, 0
2, 14004, Note_on_c, 0, 84, 0
2, 14005, Note_on_c, 0, 75, 0
2, 14041, Note_on_c, 0, 84, 80
2, 14042, Note_on_c, 0, 72, 80
2, 14042, Note_on_c, 0, 75, 80
2, 14042, Note_on_c, 0, 79, 80
2, 14043, Note_on_c, 0, 67, 80
2, 14068, Note_on_c, 0, 67, 0
2, 14068, Note_on_c, 0, 72, 0
2, 14106, Note_on_c, 0, 39, 80
2, 14121, Note_on_c, 0, 84, 0
2, 14122, Note_on_c, 0, 79, 0
2, 14122, Note_on_c, 0, 75, 0
2, 14132, Note_on_c, 0, 39, 0
2, 14168, Note_on_c, 0, 75, 80
2, 14168, Note_on_c, 0, 79, 80
2, 14168, Note_on_c, 0, 82, 80
2, 14193, Note_on_c, 0, 82, 0
2, 14194, Note_on_c, 0, 79, 0
2, 14194, Note_on_c, 0, 75, 0
2, 14232, Note_on_c, 0, 70, 80
2, 14232, Note_on_c, 0, 75, 80
2, 14232, Note_on_c, 0, 79, 80
2, 14232, Note_on_c, 0, 82, 80
2, 14232, Note_on_c, 0, 55, 80
2, 14232, Note_on_c, 0, 58, 80
2, 14232, Note_on_c, 0, 67, 80
2, 14233, Note_on_c, 0, 51, 80
2, 14250, Note_on_c, 0, 58, 0
2, 14250, Note_on_c, 0, 55, 0
2, 14251, Note_on_c, 0, 51, 0
2, 14263, Note_on_c, 0, 70, 0
2, 14264, Note_on_c, 0, 67, 0
2, 14278, Note_on_c, 0, 79, 0
2, 14279, Note_on_c, 0, 82, 0
2, 14279, Note_on_c, 0, 75, 0
2, 14356, Note_on_c, 0, 79, 80
2, 14356, Note_on_c, 0, 84, 80
2, 14357, Note_on_c, 0, 72, 80
2, 14357, Note_on_c, 0, 75, 80
2, 14358, Note_on_c, 0, 46, 80
2, 14358, Note_on_c, 0, 63, 80
2, 14358, Note_on_c, 0, 67, 80
2, 14385, Note_on_c, 0, 46, 0
2, 14416, Note_on_c, 0, 84, 0
2, 14417, Note_on_c, 0, 72, 0
2, 14417, Note_on_c, 0, 75, 0
2, 14417, Note_on_c, 0, 79, 0
2, 14417, Note_on_c, 0, 67, 0
2, 14418, Note_on_c, 0, 63, 0
2, 14490, Note_on_c, 0, 79, 80
2, 14490, Note_on_c, 0, 82, 80
2, 14491, Note_on_c, 0, 51, 80
2, 14491, Note_on_c, 0, 55, 80
2, 14491, Note_on_c, 0, 58, 80
2, 14491, Note_on_c, 0, 63, 80
2, 14491, Note_on_c, 0, 67, 80
2, 14491, Note_on_c, 0, 70, 80
2, 14491, Note_on_c, 0, 75, 80
2, 14516, Note_on_c, 0, 70, 0
2, 14516, Note_on_c, 0, 67, 0
2, 14517, Note_on_c, 0, 63, 0
2, 14525, Note_on_c, 0, 55, 0
2, 14525, Note_on_c, 0, 51, 0
2, 14525, Note_on_c, 0, 58, 0
2, 14539, Note_on_c, 0, 79, 0
2, 14539, Note_on_c, 0, 82, 0
2, 14540, Note_on_c, 0, 75, 0
2, 14619, Note_on_c, 0, 82, 80
2, 14620, Note_on_c, 0, 53, 80
2, 14620, Note_on_c, 0, 74, 80
2, 14621, Note_on_c, 0, 41, 80
2, 14645, Note_on_c, 0, 82, 0
2, 14646, Note_on_c, 0, 53, 0
2, 14647, Note_on_c, 0, 41, 0
2, 14654, Note_on_c, 0, 74, 0
2, 14685, Note_on_c, 0, 82, 80
2, 14685, Note_on_c, 0, 58, 80
2, 14685, Note_on_c, 0, 70, 80
2, 14685, Note_on_c, 0, 74, 80
2, 14686, Note_on_c, 0, 50, 80
2, 14686, Note_on_c, 0, 65, 80
2, 14719, Note_on_c, 0, 58, 0
2, 14720, Note_on_c, 0, 50, 0
2, 14727, Note_on_c, 0, 70, 0
2, 14727, Note_on_c, 0, 65, 0
2, 14758, Note_on_c, 0, 74, 0
2, 14766, Note_on_c, 0, 82, 0
2, 14813, Note_on_c, 0, 56, 80
2, 14813, Note_on_c, 0, 74, 80
2, 14813, Note_on_c, 0, 80, 80
2, 14814, Note_on_c, 0, 50, 80
2, 14838, Note_on_c, 0, 80, 0
2, 14838, Note_on_c, 0, 56, 0
2, 14838, Note_on_c, 0, 74, 0
2, 14839, Note_on_c, 0, 50, 0
2, 14874, Note_on_c, 0, 74, 80
2, 14874, Note_on_c, 0, 80, 80
2, 14875, Note_on_c, 0, 65, 80
2, 14875, Note_on_c, 0, 68, 80
2, 14876, Note_on_c, 0, 34, 80
2, 14876, Note_on_c, 0, 50, 80
2, 14876, Note_on_c, 0, 56, 80
2, 14900, Note_on_c, 0, 68, 0
2, 14900, Note_on_c, 0, 65, 0
2, 14908, Note_on_c, 0, 50, 0
2, 14908, Note_on_c, 0, 34, 0
2, 14908, Note_on_c, 0, 56, 0
2, 14954, Note_on_c, 0, 74, 0
2, 14961, Note_on_c, 0, 80, 0
2, 14998, Note_on_c, 0, 79, 80
2, 14999, Note_on_c, 0, 74, 80
2, 15000, Note_on_c, 0, 50, 80
2, 15000, Note_on_c, 0, 55, 80
2, 15024, Note_on_c, 0, 55, 0
2, 15024, Note_on_c, 0, 79, 0
2, 15024, Note_on_c, 0, 74, 0
2, 15024, Note_on_c, 0, 50, 0
2, 15062, Note_on_c, 0, 65, 80
2, 15062, Note_on_c, 0, 67, 80
2, 15062, Note_on_c, 0, 74, 80
2, 15062, Note_on_c, 0, 79, 80
2, 15063, Note_on_c, 0, 50, 80
2, 15063, Note_on_c, 0, 55, 80
2, 15112, Note_on_c, 0, 55, 0
2, 15112, Note_on_c, 0, 67, 0
2, 15112, Note_on_c, 0, 65, 0
2, 15112, Note_on_c, 0, 50, 0
2, 15127, Note_on_c, 0, 41, 80
2, 15143, Note_on_c, 0, 79, 0
2, 15144, Note_on_c, 0, 74, 0
2, 15160, Note_on_c, 0, 41, 0
2, 15191, Note_on_c, 0, 50, 80
2, 15191, Note_on_c, 0, 56, 80
2, 15191, Note_on_c, 0, 62, 80
2, 15191, Note_on_c, 0, 74, 80
2, 15191, Note_on_c, 0, 80, 80
2, 15217, Note_on_c, 0, 80, 0
2, 15217, Note_on_c, 0, 74, 0
2, 15218, Note_on_c, 0, 50, 0
2, 15218, Note_on_c, 0, 56, 0
2, 15218, Note_on_c, 0, 62, 0
2, 15258, Note_on_c, 0, 80, 80
2, 15259, Note_on_c, 0, 65, 80
2, 15259, Note_on_c, 0, 68, 80
2, 15259, Note_on_c, 0, 74, 80
2, 15260, Note_on_c, 0, 50, 80
2, 15260, Note_on_c, 0, 56, 80
2, 15276, Note_on_c, 0, 68, 0
2, 15276, Note_on_c, 0, 65, 0
2, 15292, Note_on_c, 0, 50, 0
2, 15292, Note_on_c, 0, 56, 0
2, 15341, Note_on_c, 0, 80, 0
2, 15341, Note_on_c, 0, 74, 0
2, 15390, Note_on_c, 0, 55, 80
2, 15390, Note_on_c, 0, 62, 80
2, 15390, Note_on_c, 0, 67, 80
2, 15390, Note_on_c, 0, 70, 80
2, 15390, Note_on_c, 0, 74, 80
2, 15390, Note_on_c, 0, 79, 80
2, 15391, Note_on_c, 0, 50, 80
2, 15392, Note_on_c, 0, 34, 80
2, 15424, Note_on_c, 0, 34, 0
2, 15431, Note_on_c, 0, 74, 0
2, 15431, Note_on_c, 0, 70, 0
2, 15432, Note_on_c, 0, 55, 0
2, 15432, Note_on_c, 0, 62, 0
2, 15456, Note_on_c, 0, 50, 0
2, 15506, Note_on_c, 0, 67, 0
2, 15515, Note_on_c, 0, 79, 0
2, 15521, Note_on_c, 0, 56, 80
2, 15521, Note_on_c, 0, 62, 80
2, 15521, Note_on_c, 0, 65, 80
2, 15521, Note_on_c, 0, 68, 80
2, 15521, Note_on_c, 0, 77, 80
2, 15522, Note_on_c, 0, 53, 80
2, 15547, Note_on_c, 0, 65, 0
2, 15547, Note_on_c, 0, 56, 0
2, 15547, Note_on_c, 0, 62, 0
2, 15548, Note_on_c, 0, 53, 0
2, 15570, Note_on_c, 0, 77, 0
2, 15570, Note_on_c, 0, 68, 0
2, 15649, Note_on_c, 0, 67, 80
2, 15649, Note_on_c, 0, 70, 80
2, 15649, Note_on_c, 0, 77, 80
2, 15650, Note_on_c, 0, 46, 80
2, 15650, Note_on_c, 0, 53, 80
2, 15675, Note_on_c, 0, 53, 0
2, 15675, Note_on_c, 0, 77, 0
2, 15675, Note_on_c, 0, 70, 0
2, 15684, Note_on_c, 0, 67, 0
2, 15685, Note_on_c, 0, 46, 0
2, 15713, Note_on_c, 0, 65, 80
2, 15713, Note_on_c, 0, 67, 80
2, 15713, Note_on_c, 0, 70, 80
2, 15713, Note_on_c, 0, 77, 80
2, 15714, Note_on_c, 0, 53, 80
2, 15755, Note_on_c, 0, 53, 0
2, 15786, Note_on_c, 0, 70, 0
2, 15786, Note_on_c, 0, 65, 0
2, 15786, Note_on_c, 0, 67, 0
2, 15786, Note_on_c, 0, 77, 0
2, 15841, Note_on_c, 0, 67, 80
2, 15841, Note_on_c, 0, 75, 80
2, 15842, Note_on_c, 0, 51, 80
2, 15842, Note_on_c, 0, 63, 80
2, 15842, Note_on_c, 0, 70, 80
2, 15869, Note_on_c, 0, 51, 0
2, 15875, Note_on_c, 0, 75, 0
2, 15876, Note_on_c, 0, 67, 0
2, 15876, Note_on_c, 0, 63, 0
2, 15876, Note_on_c, 0, 70, 0
2, 15907, Note_on_c, 0, 67, 80
2, 15908, Note_on_c, 0, 55, 80
2, 15908, Note_on_c, 0, 70, 80
2, 15909, Note_on_c, 0, 43, 80
2, 15909, Note_on_c, 0, 51, 80
2, 15909, Note_on_c, 0, 63, 80
2, 15909, Note_on_c, 0, 75, 80
2, 15936, Note_on_c, 0, 63, 0
2, 15936, Note_on_c, 0, 55, 0
2, 15936, Note_on_c, 0, 43, 0
2, 15991, Note_on_c, 0, 75, 0
2, 15991, Note_on_c, 0, 67, 0
2, 15991, Note_on_c, 0, 70, 0
2, 15992, Note_on_c, 0, 51, 0
2, 16038, Note_on_c, 0, 60, 80
2, 16038, Note_on_c, 0, 69, 80
2, 16038, Note_on_c, 0, 72, 80
2, 16038, Note_on_c, 0, 75, 80
2, 16038, Note_on_c, 0, 78, 80
2, 16038, Note_on_c, 0, 84, 80
2, 16039, Note_on_c, 0, 42, 80
2, 16063, Note_on_c, 0, 78, 0
2, 16064, Note_on_c, 0, 75, 0
2, 16064, Note_on_c, 0, 60, 0
2, 16064, Note_on_c, 0, 69, 0
2, 16064, Note_on_c, 0, 42, 0
2, 16096, Note_on_c, 0, 72, 0
2, 16097, Note_on_c, 0, 84, 0
2, 16169, Note_on_c, 0, 70, 80
2, 16169, Note_on_c, 0, 75, 80
2, 16169, Note_on_c, 0, 79, 80
2, 16169, Note_on_c, 0, 82, 80
2, 16170, Note_on_c, 0, 43, 80
2, 16170, Note_on_c, 0, 55, 80
2, 16170, Note_on_c, 0, 58, 80
2, 16170, Note_on_c, 0, 63, 80
2, 16186, Control_c, 0, 64, 127
2, 16195, Note_on_c, 0, 58, 0
2, 16195, Note_on_c, 0, 75, 0
2, 16195, Note_on_c, 0, 82, 0
2, 16195, Note_on_c, 0, 70, 0
2, 16195, Note_on_c, 0, 55, 0
2, 16196, Note_on_c, 0, 63, 0
2, 16196, Note_on_c, 0, 43, 0
2, 16202, Note_on_c, 0, 79, 0
2, 16273, Note_on_c, 0, 86, 80
2, 16289, Note_on_c, 0, 84, 80
2, 16298, Note_on_c, 0, 58, 80
2, 16298, Note_on_c, 0, 82, 80
2, 16302, Control_c, 0, 64, 0
2, 16306, Note_on_c, 0, 86, 0
2, 16315, Note_on_c, 0, 84, 0
2, 16346, Note_on_c, 0, 82, 0
2, 16347, Note_on_c, 0, 58, 0
2, 16360, Note_on_c, 0, 81, 80
2, 16361, Note_on_c, 0, 57, 80
2, 16411, Note_on_c, 0, 81, 0
2, 16412, Note_on_c, 0, 57, 0
2, 16424, Note_on_c, 0, 82, 80
2, 16427, Note_on_c, 0, 58, 80
2, 16473, Note_on_c, 0, 82, 0
2, 16476, Note_on_c, 0, 58, 0
2, 16488, Note_on_c, 0, 83, 80
2, 16489, Note_on_c, 0, 59, 80
2, 16546, Note_on_c, 0, 83, 0
2, 16547, Note_on_c, 0, 59, 0
2, 16551, Note_on_c, 0, 84, 80
2, 16552, Note_on_c, 0, 60, 80
2, 16553, Note_on_c, 0, 40, 80
2, 16559, Note_on_c, 0, 52, 80
2, 16584, Note_on_c, 0, 52, 0
2, 16584, Note_on_c, 0, 40, 0
2, 16598, Note_on_c, 0, 84, 0
2, 16599, Note_on_c, 0, 60, 0
2, 16612, Note_on_c, 0, 85, 80
2, 16613, Note_on_c, 0, 61, 80
2, 16647, Note_on_c, 0, 85, 0
2, 16665, Note_on_c, 0, 61, 0
2, 16677, Note_on_c, 0, 86, 80
2, 16678, Note_on_c, 0, 77, 80
2, 16678, Note_on_c, 0, 80, 80
2, 16679, Note_on_c, 0, 41, 80
2, 16679, Note_on_c, 0, 53, 80
2, 16703, Note_on_c, 0, 80, 0
2, 16703, Note_on_c, 0, 86, 0
2, 16703, Note_on_c, 0, 77, 0
2, 16712, Note_on_c, 0, 53, 0
2, 16718, Note_on_c, 0, 41, 0
2, 16737, Note_on_c, 0, 68, 80
2, 16737, Note_on_c, 0, 74, 80
2, 16737, Note_on_c, 0, 77, 80
2, 16737, Note_on_c, 0, 80, 80
2, 16737, Note_on_c, 0, 86, 80
2, 16755, Note_on_c, 0, 74, 0
2, 16755, Note_on_c, 0, 68, 0
2, 16796, Note_on_c, 0, 86, 0
2, 16802, Note_on_c, 0, 56, 80
2, 16802, Note_on_c, 0, 58, 80
2, 16802, Note_on_c, 0, 62, 80
2, 16803, Note_on_c, 0, 77, 0
2, 16803, Note_on_c, 0, 80, 0
2, 16822, Note_on_c, 0, 58, 0
2, 16822, Note_on_c, 0, 56, 0
2, 16822, Note_on_c, 0, 62, 0
2, 16868, Note_on_c, 0, 65, 80
2, 16868, Note_on_c, 0, 77, 80
2, 16868, Note_on_c, 0, 80, 80
2, 16868, Note_on_c, 0, 84, 80
2, 16886, Note_on_c, 0, 77, 0
2, 16895, Note_on_c, 0, 65, 0
2, 16895, Note_on_c, 0, 80, 0
2, 16895, Note_on_c, 0, 84, 0
2, 16934, Note_on_c, 0, 68, 80
2, 16934, Note_on_c, 0, 72, 80
2, 16934, Note_on_c, 0, 77, 80
2, 16934, Note_on_c, 0, 80, 80
2, 16934, Note_on_c, 0, 84, 80
2, 16935, Note_on_c, 0, 46, 80
2, 16959, Note_on_c, 0, 72, 0
2, 16959, Note_on_c, 0, 68, 0
2, 16970, Note_on_c, 0, 46, 0
2, 16992, Note_on_c, 0, 80, 0
2, 16992, Note_on_c, 0, 84, 0
2, 16992, Note_on_c, 0, 77, 0
2, 17064, Note_on_c, 0, 86, 80
2, 17066, Note_on_c, 0, 77, 80
2, 17066, Note_on_c, 0, 80, 80
2, 17067, Note_on_c, 0, 56, 80
2, 17067, Note_on_c, 0, 58, 80
2, 17067, Note_on_c, 0, 62, 80
2, 17084, Note_on_c, 0, 62, 0
2, 17084, Note_on_c, 0, 56, 0
2, 17084, Note_on_c, 0, 58, 0
2, 17090, Note_on_c, 0, 86, 0
2, 17090, Note_on_c, 0, 80, 0
2, 17090, Note_on_c, 0, 77, 0
2, 17128, Note_on_c, 0, 74, 80
2, 17128, Note_on_c, 0, 77, 80
2, 17128, Note_on_c, 0, 80, 80
2, 17128, Note_on_c, 0, 86, 80
2, 17129, Note_on_c, 0, 68, 80
2, 17156, Note_on_c, 0, 68, 0
2, 17156, Note_on_c, 0, 74, 0
2, 17184, Note_on_c, 0, 86, 0
2, 17185, Note_on_c, 0, 80, 0
2, 17185, Note_on_c, 0, 77, 0
2, 17192, Note_on_c, 0, 41, 80
2, 17229, Note_on_c, 0, 41, 0
2, 17257, Note_on_c, 0, 77, 80
2, 17257, Note_on_c, 0, 80, 80
2, 17257, Note_on_c, 0, 84, 80
2, 17282, Note_on_c, 0, 84, 0
2, 17282, Note_on_c, 0, 80, 0
2, 17282, Note_on_c, 0, 77, 0
2, 17322, Note_on_c, 0, 72, 80
2, 17322, Note_on_c, 0, 77, 80
2, 17322, Note_on_c, 0, 80, 80
2, 17322, Note_on_c, 0, 84, 80
2, 17323, Note_on_c, 0, 56, 80
2, 17323, Note_on_c, 0, 58, 80
2, 17323, Note_on_c, 0, 62, 80
2, 17323, Note_on_c, 0, 68, 80
2, 17339, Note_on_c, 0, 62, 0
2, 17340, Note_on_c, 0, 58, 0
2, 17340, Note_on_c, 0, 56, 0
2, 17347, Note_on_c, 0, 68, 0
2, 17347, Note_on_c, 0, 72, 0
2, 17353, Note_on_c, 0, 80, 0
2, 17353, Note_on_c, 0, 77, 0
2, 17353, Note_on_c, 0, 84, 0
2, 17449, Note_on_c, 0, 46, 80
2, 17449, Note_on_c, 0, 77, 80
2, 17449, Note_on_c, 0, 80, 80
2, 17449, Note_on_c, 0, 86, 80
2, 17483, Note_on_c, 0, 46, 0
2, 17490, Note_on_c, 0, 77, 0
2, 17490, Note_on_c, 0, 80, 0
2, 17490, Note_on_c, 0, 86, 0
2, 17579, Note_on_c, 0, 56, 80
2, 17579, Note_on_c, 0, 58, 80
2, 17579, Note_on_c, 0, 62, 80
2, 17579, Note_on_c, 0, 68, 80
2, 17579, Note_on_c, 0, 72, 80
2, 17579, Note_on_c, 0, 77, 80
2, 17579, Note_on_c, 0, 80, 80
2, 17579, Note_on_c, 0, 84, 80
2, 17592, Note_on_c, 0, 56, 0
2, 17598, Note_on_c, 0, 58, 0
2, 17598, Note_on_c, 0, 62, 0
2, 17605, Note_on_c, 0, 68, 0
2, 17605, Note_on_c, 0, 72, 0
2, 17637, Note_on_c, 0, 84, 0
2, 17637, Note_on_c, 0, 80, 0
2, 17637, Note_on_c, 0, 77, 0
2, 17706, Note_on_c, 0, 84, 80
2, 17709, Note_on_c, 0, 39, 80
2, 17709, Note_on_c, 0, 75, 80
2, 17709, Note_on_c, 0, 79, 80
2, 17743, Note_on_c, 0, 79, 0
2, 17743, Note_on_c, 0, 75, 0
2, 17743, Note_on_c, 0, 84, 0
2, 17744, Note_on_c, 0, 39, 0
2, 17773, Note_on_c, 0, 67, 80
2, 17773, Note_on_c, 0, 72, 80
2, 17773, Note_on_c, 0, 75, 80
2, 17773, Note_on_c, 0, 79, 80
2, 17773, Note_on_c, 0, 84, 80
2, 17798, Note_on_c, 0, 72, 0
2, 17799, Note_on_c, 0, 67, 0
2, 17836, Note_on_c, 0, 51, 80
2, 17836, Note_on_c, 0, 55, 80
2, 17836, Note_on_c, 0, 58, 80
2, 17837, Note_on_c, 0, 79, 0
2, 17837, Note_on_c, 0, 84, 0
2, 17837, Note_on_c, 0, 75, 0
2, 17854, Note_on_c, 0, 51, 0
2, 17854, Note_on_c, 0, 55, 0
2, 17854, Note_on_c, 0, 58, 0
2, 17900, Note_on_c, 0, 75, 80
2, 17900, Note_on_c, 0, 79, 80
2, 17900, Note_on_c, 0, 82, 80
2, 17919, Note_on_c, 0, 82, 0
2, 17919, Note_on_c, 0, 79, 0
2, 17919, Note_on_c, 0, 75, 0
2, 17966, Note_on_c, 0, 67, 80
2, 17966, Note_on_c, 0, 70, 80
2, 17966, Note_on_c, 0, 75, 80
2, 17966, Note_on_c, 0, 79, 80
2, 17966, Note_on_c, 0, 82, 80
2, 17967, Note_on_c, 0, 34, 80
2, 17991, Note_on_c, 0, 70, 0
2, 17991, Note_on_c, 0, 67, 0
2, 17998, Note_on_c, 0, 82, 0
2, 17998, Note_on_c, 0, 79, 0
2, 17998, Note_on_c, 0, 75, 0
2, 18000, Note_on_c, 0, 34, 0
2, 18094, Note_on_c, 0, 51, 80
2, 18094, Note_on_c, 0, 55, 80
2, 18094, Note_on_c, 0, 58, 80
2, 18094, Note_on_c, 0, 75, 80
2, 18094, Note_on_c, 0, 79, 80
2, 18094, Note_on_c, 0, 84, 80
2, 18112, Note_on_c, 0, 58, 0
2, 18112, Note_on_c, 0, 51, 0
2, 18112, Note_on_c, 0, 55, 0
2, 18119, Note_on_c, 0, 75, 0
2, 18119, Note_on_c, 0, 79, 0
2, 18119, Note_on_c, 0, 84, 0
2, 18158, Note_on_c, 0, 67, 80
2, 18158, Note_on_c, 0, 72, 80
2, 18158, Note_on_c, 0, 75, 80
2, 18158, Note_on_c, 0, 79, 80
2, 18158, Note_on_c, 0, 84, 80
2, 18183, Note_on_c, 0, 72, 0
2, 18183, Note_on_c, 0, 67, 0
2, 18222, Note_on_c, 0, 39, 80
2, 18239, Note_on_c, 0, 79, 0
2, 18239, Note_on_c, 0, 84, 0
2, 18240, Note_on_c, 0, 75, 0
2, 18248, Note_on_c, 0, 39, 0
2, 18288, Note_on_c, 0, 82, 80
2, 18288, Note_on_c, 0, 75, 80
2, 18288, Note_on_c, 0, 79, 80
2, 18313, Note_on_c, 0, 79, 0
2, 18314, Note_on_c, 0, 75, 0
2, 18314, Note_on_c, 0, 82, 0
2, 18352, Note_on_c, 0, 58, 80
2, 18352, Note_on_c, 0, 79, 80
2, 18353, Note_on_c, 0, 51, 80
2, 18353, Note_on_c, 0, 55, 80
2, 18353, Note_on_c, 0, 67, 80
2, 18353, Note_on_c, 0, 70, 80
2, 18353, Note_on_c, 0, 75, 80
2, 18353, Note_on_c, 0, 82, 80
2, 18371, Note_on_c, 0, 55, 0
2, 18371, Note_on_c, 0, 58, 0
2, 18372, Note_on_c, 0, 51, 0
2, 18379, Note_on_c, 0, 67, 0
2, 18379, Note_on_c, 0, 70, 0
2, 18394, Note_on_c, 0, 82, 0
2, 18395, Note_on_c, 0, 79, 0
2, 18395, Note_on_c, 0, 75, 0
2, 18481, Note_on_c, 0, 67, 80
2, 18481, Note_on_c, 0, 72, 80
2, 18481, Note_on_c, 0, 79, 80
2, 18481, Note_on_c, 0, 84, 80
2, 18482, Note_on_c, 0, 46, 80
2, 18482, Note_on_c, 0, 63, 80
2, 18482, Note_on_c, 0, 75, 80
2, 18507, Note_on_c, 0, 46, 0
2, 18538, Note_on_c, 0, 72, 0
2, 18538, Note_on_c, 0, 84, 0
2, 18538, Note_on_c, 0, 79, 0
2, 18538, Note_on_c, 0, 67, 0
2, 18538, Note_on_c, 0, 75, 0
2, 18541, Note_on_c, 0, 63, 0
2, 18612, Note_on_c, 0, 51, 80
2, 18612, Note_on_c, 0, 55, 80
2, 18612, Note_on_c, 0, 58, 80
2, 18612, Note_on_c, 0, 63, 80
2, 18612, Note_on_c, 0, 67, 80
2, 18612, Note_on_c, 0, 70, 80
2, 18612, Note_on_c, 0, 75, 80
2, 18612, Note_on_c, 0, 79, 80
2, 18612, Note_on_c, 0, 82, 80
2, 18637, Note_on_c, 0, 70, 0
2, 18637, Note_on_c, 0, 63, 0
2, 18637, Note_on_c, 0, 67, 0
2, 18647, Note_on_c, 0, 51, 0
2, 18647, Note_on_c, 0, 58, 0
2, 18647, Note_on_c, 0, 55, 0
2, 18662, Note_on_c, 0, 82, 0
2, 18662, Note_on_c, 0, 79, 0
2, 18663, Note_on_c, 0, 75, 0
2, 18743, Note_on_c, 0, 44, 80
2, 18743, Note_on_c, 0, 63, 80
2, 18743, Note_on_c, 0, 68, 80
2, 18743, Note_on_c, 0, 71, 80
2, 18769, Note_on_c, 0, 71, 0
2, 18769, Note_on_c, 0, 68, 0
2, 18769, Note_on_c, 0, 63, 0
2, 18807, Note_on_c, 0, 63, 80
2, 18807, Note_on_c, 0, 68, 80
2, 18807, Note_on_c, 0, 71, 80
2, 18871, Note_on_c, 0, 47, 80
2, 18881, Note_on_c, 0, 71, 0
2, 18881, Note_on_c, 0, 68, 0
2, 18881, Note_on_c, 0, 63, 0
2, 18921, Note_on_c, 0, 44, 0
2, 18934, Note_on_c, 0, 68, 80
2, 18935, Note_on_c, 0, 63, 80
2, 18935, Note_on_c, 0, 75, 80
2, 18960, Note_on_c, 0, 75, 0
2, 18960, Note_on_c, 0, 63, 0
2, 18960, Note_on_c, 0, 68, 0
2, 19000, Note_on_c, 0, 51, 80
2, 19000, Note_on_c, 0, 63, 80
2, 19000, Note_on_c, 0, 68, 80
2, 19000, Note_on_c, 0, 75, 80
2, 19034, Note_on_c, 0, 47, 0
2, 19065, Control_c, 0, 64, 127
2, 19092, Note_on_c, 0, 75, 0
2, 19093, Note_on_c, 0, 68, 0
2, 19093, Note_on_c, 0, 63, 0
2, 19108, Control_c, 0, 64, 0
2, 19132, Note_on_c, 0, 56, 80
2, 19132, Note_on_c, 0, 71, 80
2, 19133, Note_on_c, 0, 63, 80
2, 19133, Note_on_c, 0, 68, 80
2, 19157, Note_on_c, 0, 68, 0
2, 19157, Note_on_c, 0, 71, 0
2, 19157, Note_on_c, 0, 63, 0
2, 19184, Note_on_c, 0, 51, 0
2, 19216, Note_on_c, 0, 56, 0
2, 19266, Note_on_c, 0, 55, 80
2, 19266, Note_on_c, 0, 63, 80
2, 19266, Note_on_c, 0, 70, 80
2, 19293, Note_on_c, 0, 70, 0
2, 19294, Note_on_c, 0, 63, 0
2, 19333, Note_on_c, 0, 63, 80
2, 19334, Note_on_c, 0, 70, 80
2, 19399, Note_on_c, 0, 58, 80
2, 19411, Note_on_c, 0, 70, 0
2, 19411, Note_on_c, 0, 63, 0
2, 19427, Note_on_c, 0, 55, 0
2, 19467, Note_on_c, 0, 63, 80
2, 19467, Note_on_c, 0, 69, 80
2, 19488, Note_on_c, 0, 58, 0
2, 19494, Note_on_c, 0, 69, 0
2, 19495, Note_on_c, 0, 63, 0
2, 19532, Note_on_c, 0, 54, 80
2, 19532, Note_on_c, 0, 69, 80
2, 19533, Note_on_c, 0, 63, 80
2, 19629, Note_on_c, 0, 63, 0
2, 19654, Note_on_c, 0, 69, 0
2, 19654, Note_on_c, 0, 54, 0
2, 19659, Note_on_c, 0, 55, 80
2, 19659, Note_on_c, 0, 63, 80
2, 19659, Note_on_c, 0, 70, 80
2, 19687, Note_on_c, 0, 70, 0
2, 19687, Note_on_c, 0, 63, 0
2, 19687, Note_on_c, 0, 55, 0
2, 19789, Note_on_c, 0, 53, 80
2, 19789, Note_on_c, 0, 62, 80
2, 19789, Note_on_c, 0, 68, 80
2, 19824, Note_on_c, 0, 68, 0
2, 19852, Note_on_c, 0, 68, 80
2, 19864, Note_on_c, 0, 62, 0
2, 19971, Note_on_c, 0, 68, 0
2, 19984, Note_on_c, 0, 67, 80
2, 19985, Note_on_c, 0, 53, 0
2, 20021, Note_on_c, 0, 67, 0
2, 20049, Note_on_c, 0, 46, 80
2, 20049, Note_on_c, 0, 58, 80
2, 20049, Note_on_c, 0, 62, 80
2, 20049, Note_on_c, 0, 67, 80
2, 20139, Control_c, 0, 64, 127
2, 20140, Note_on_c, 0, 67, 0
2, 20140, Note_on_c, 0, 46, 0
2, 20140, Note_on_c, 0, 58, 0
2, 20140, Note_on_c, 0, 62, 0
2, 20174, Control_c, 0, 64, 0
2, 20180, Note_on_c, 0, 46, 80
2, 20180, Note_on_c, 0, 56, 80
2, 20180, Note_on_c, 0, 62, 80
2, 20180, Note_on_c, 0, 65, 80
2, 20207, Note_on_c, 0, 65, 0
2, 20207, Note_on_c, 0, 46, 0
2, 20207, Note_on_c, 0, 56, 0
2, 20207, Note_on_c, 0, 62, 0
2, 20309, Note_on_c, 0, 39, 80
2, 20309, Note_on_c, 0, 55, 80
2, 20309, Note_on_c, 0, 58, 80
2, 20309, Note_on_c, 0, 63, 80
2, 20351, Note_on_c, 0, 39, 0
2, 20372, Note_on_c, 0, 46, 80
2, 20413, Note_on_c, 0, 46, 0
2, 20429, Note_on_c, 0, 55, 0
2, 20433, Note_on_c, 0, 51, 80
2, 20465, Control_c, 0, 64, 127
2, 20466, Note_on_c, 0, 58, 0
2, 20466, Note_on_c, 0, 63, 0
2, 20495, Note_on_c, 0, 55, 80
2, 20514, Note_on_c, 0, 51, 0
2, 20538, Control_c, 0, 64, 0
2, 20560, Note_on_c, 0, 58, 80
2, 20561, Note_on_c, 0, 55, 0
2, 20626, Note_on_c, 0, 68, 80
2, 20626, Note_on_c, 0, 72, 80
2, 20627, Note_on_c, 0, 58, 0
2, 20688, Note_on_c, 0, 67, 80
2, 20689, Note_on_c, 0, 70, 80
2, 20701, Note_on_c, 0, 72, 0
2, 20701, Note_on_c, 0, 68, 0
2, 20750, Note_on_c, 0, 67, 0
2, 20750, Note_on_c, 0, 70, 0
2, 20756, Note_on_c, 0, 65, 80
2, 20756, Note_on_c, 0, 68, 80
2, 20800, Note_on_c, 0, 68, 0
2, 20800, Note_on_c, 0, 65, 0
2, 20822, Note_on_c, 0, 39, 80
2, 20822, Note_on_c, 0, 58, 80
2, 20822, Note_on_c, 0, 67, 80
2, 20823, Note_on_c, 0, 63, 80
2, 20848, Note_on_c, 0, 63, 0
2, 20848, Note_on_c, 0, 58, 0
2, 20849, Note_on_c, 0, 67, 0
2, 20888, Note_on_c, 0, 57, 80
2, 20889, Note_on_c, 0, 63, 80
2, 20889, Note_on_c, 0, 66, 80
2, 20924, Note_on_c, 0, 66, 0
2, 20924, Note_on_c, 0, 63, 0
2, 20924, Note_on_c, 0, 57, 0
2, 20954, Note_on_c, 0, 51, 80
2, 20973, Note_on_c, 0, 39, 0
2, 21009, Note_on_c, 0, 51, 0
2, 21023, Note_on_c, 0, 55, 80
2, 21023, Note_on_c, 0, 58, 80
2, 21023, Note_on_c, 0, 67, 80
2, 21023, Note_on_c, 0, 63, 80
2, 21088, Note_on_c, 0, 46, 80
2, 21121, Note_on_c, 0, 46, 0
2, 21121, Note_on_c, 0, 58, 0
2, 21121, Note_on_c, 0, 55, 0
2, 21121, Note_on_c, 0, 63, 0
2, 21153, Note_on_c, 0, 51, 80
2, 21191, Note_on_c, 0, 51, 0
2, 21218, Note_on_c, 0, 46, 80
2, 21218, Note_on_c, 0, 58, 80
2, 21219, Note_on_c, 0, 55, 80
2, 21219, Note_on_c, 0, 63, 80
2, 21238, Note_on_c, 0, 55, 0
2, 21238, Note_on_c, 0, 58, 0
2, 21251, Note_on_c, 0, 46, 0
2, 21278, Note_on_c, 0, 67, 0
2, 21278, Note_on_c, 0, 63, 0
2, 21282, Note_on_c, 0, 43, 80
2, 21318, Note_on_c, 0, 43, 0
2, 21347, Note_on_c, 0, 39, 80
2, 21347, Note_on_c, 0, 58, 80
2, 21347, Note_on_c, 0, 63, 80
2, 21348, Note_on_c, 0, 67, 80
2, 21375, Note_on_c, 0, 67, 0
2, 21375, Note_on_c, 0, 63, 0
2, 21375, Note_on_c, 0, 58, 0
2, 21412, Note_on_c, 0, 57, 80
2, 21412, Note_on_c, 0, 63, 80
2, 21412, Note_on_c, 0, 66, 80
2, 21447, Note_on_c, 0, 66, 0
2, 21447, Note_on_c, 0, 63, 0
2, 21447, Note_on_c, 0, 57, 0
2, 21456, Note_on_c, 0, 39, 0
2, 21478, Note_on_c, 0, 48, 80
2, 21536, Note_on_c, 0, 48, 0
2, 21542, Note_on_c, 0, 55, 80
2, 21542, Note_on_c, 0, 58, 80
2, 21542, Note_on_c, 0, 63, 80
2, 21542, Note_on_c, 0, 67, 80
2, 21606, Note_on_c, 0, 46, 80
2, 21640, Note_on_c, 0, 46, 0
2, 21656, Note_on_c, 0, 55, 0
2, 21656, Note_on_c, 0, 63, 0
2, 21656, Note_on_c, 0, 58, 0
2, 21666, Note_on_c, 0, 67, 0
2, 21670, Note_on_c, 0, 51, 80
2, 21704, Note_on_c, 0, 51, 0
2, 21733, Note_on_c, 0, 46, 80
2, 21734, Note_on_c, 0, 55, 80
2, 21734, Note_on_c, 0, 58, 80
2, 21734, Note_on_c, 0, 63, 80
2, 21752, Note_on_c, 0, 58, 0
2, 21752, Note_on_c, 0, 55, 0
2, 21768, Note_on_c, 0, 46, 0
2, 21792, Note_on_c, 0, 63, 0
2, 21798, Note_on_c, 0, 43, 80
2, 21833, Note_on_c, 0, 43, 0
2, 21864, Note_on_c, 0, 44, 80
2, 21864, Note_on_c, 0, 60, 80
2, 21864, Note_on_c, 0, 63, 80
2, 21926, Note_on_c, 0, 65, 80
2, 21953, Note_on_c, 0, 44, 0
2, 21968, Note_on_c, 0, 60, 0
2, 21968, Note_on_c, 0, 63, 0
2, 21989, Note_on_c, 0, 51, 80
2, 21993, Note_on_c, 0, 65, 0
2, 22039, Note_on_c, 0, 51, 0
2, 22052, Note_on_c, 0, 63, 80
2, 22053, Note_on_c, 0, 59, 80
2, 22053, Note_on_c, 0, 66, 80
2, 22115, Note_on_c, 0, 44, 80
2, 22130, Control_c, 0, 64, 127
2, 22155, Note_on_c, 0, 59, 0
2, 22156, Note_on_c, 0, 63, 0
2, 22172, Note_on_c, 0, 66, 0
2, 22177, Note_on_c, 0, 65, 80
2, 22211, Note_on_c, 0, 44, 0
2, 22211, Control_c, 0, 64, 0
2, 22227, Note_on_c, 0, 65, 0
2, 22241, Note_on_c, 0, 51, 80
2, 22241, Note_on_c, 0, 59, 80
2, 22242, Note_on_c, 0, 63, 80
2, 22273, Note_on_c, 0, 51, 0
2, 22300, Note_on_c, 0, 59, 0
2, 22301, Note_on_c, 0, 63, 0
2, 22305, Note_on_c, 0, 44, 80
2, 22342, Note_on_c, 0, 44, 0
2, 22372, Note_on_c, 0, 39, 80
2, 22373, Note_on_c, 0, 58, 80
2, 22373, Note_on_c, 0, 63, 80
2, 22373, Note_on_c, 0, 67, 80
2, 22408, Note_on_c, 0, 39, 0
2, 22437, Note_on_c, 0, 46, 80
2, 22473, Note_on_c, 0, 46, 0
2, 22501, Note_on_c, 0, 51, 80
2, 22537, Note_on_c, 0, 51, 0
2, 22569, Note_on_c, 0, 55, 80
2, 22597, Note_on_c, 0, 58, 0
2, 22604, Note_on_c, 0, 55, 0
2, 22612, Note_on_c, 0, 63, 0
2, 22622, Note_on_c, 0, 67, 0
2, 22628, Control_c, 0, 64, 127
2, 22634, Note_on_c, 0, 58, 80
2, 22699, Note_on_c, 0, 68, 80
2, 22699, Note_on_c, 0, 72, 80
2, 22743, Control_c, 0, 64, 0
2, 22749, Note_on_c, 0, 68, 0
2, 22750, Note_on_c, 0, 58, 0
2, 22765, Note_on_c, 0, 67, 80
2, 22765, Note_on_c, 0, 70, 80
2, 22783, Note_on_c, 0, 72, 0
2, 22815, Note_on_c, 0, 67, 0
2, 22828, Note_on_c, 0, 65, 80
2, 22829, Note_on_c, 0, 68, 80
2, 22841, Note_on_c, 0, 70, 0
2, 22872, Note_on_c, 0, 65, 0
2, 22881, Note_on_c, 0, 68, 0
2, 22895, Note_on_c, 0, 39, 80
2, 22895, Note_on_c, 0, 58, 80
2, 22895, Note_on_c, 0, 63, 80
2, 22895, Note_on_c, 0, 67, 80
2, 22921, Note_on_c, 0, 67, 0
2, 22921, Note_on_c, 0, 63, 0
2, 22924, Note_on_c, 0, 58, 0
2, 22961, Note_on_c, 0, 63, 80
2, 22961, Note_on_c, 0, 66, 80
2, 22962, Note_on_c, 0, 57, 80
2, 23003, Note_on_c, 0, 57, 0
2, 23003, Note_on_c, 0, 66, 0
2, 23003, Note_on_c, 0, 63, 0
2, 23027, Note_on_c, 0, 48, 80
2, 23039, Note_on_c, 0, 39, 0
2, 23072, Note_on_c, 0, 48, 0
2, 23094, Note_on_c, 0, 58, 80
2, 23094, Note_on_c, 0, 63, 80
2, 23094, Note_on_c, 0, 67, 80
2, 23095, Note_on_c, 0, 55, 80
2, 23158, Note_on_c, 0, 46, 80
2, 23160, Control_c, 0, 64, 127
2, 23167, Note_on_c, 0, 55, 0
2, 23167, Note_on_c, 0, 67, 0
2, 23167, Note_on_c, 0, 58, 0
2, 23167, Note_on_c, 0, 63, 0
2, 23208, Note_on_c, 0, 46, 0
2, 23223, Note_on_c, 0, 51, 80
2, 23266, Note_on_c, 0, 51, 0
2, 23287, Note_on_c, 0, 63, 80
2, 23287, Note_on_c, 0, 67, 80
2, 23287, Note_on_c, 0, 72, 80
2, 23287, Note_on_c, 0, 75, 80
2, 23288, Note_on_c, 0, 48, 80
2, 23291, Control_c, 0, 64, 0
2, 23320, Note_on_c, 0, 75, 0
2, 23320, Note_on_c, 0, 72, 0
2, 23320, Note_on_c, 0, 67, 0
2, 23321, Note_on_c, 0, 63, 0
2, 23329, Note_on_c, 0, 48, 0
2, 23413, Note_on_c, 0, 63, 80
2, 23414, Note_on_c, 0, 67, 80
2, 23414, Note_on_c, 0, 72, 80
2, 23414, Note_on_c, 0, 75, 80
2, 23415, Note_on_c, 0, 50, 80
2, 23446, Note_on_c, 0, 75, 0
2, 23446, Note_on_c, 0, 72, 0
2, 23446, Note_on_c, 0, 67, 0
2, 23447, Note_on_c, 0, 63, 0
2, 23475, Note_on_c, 0, 67, 80
2, 23475, Note_on_c, 0, 70, 80
2, 23475, Note_on_c, 0, 74, 80
2, 23478, Note_on_c, 0, 62, 80
2, 23533, Note_on_c, 0, 74, 0
2, 23533, Note_on_c, 0, 70, 0
2, 23533, Note_on_c, 0, 67, 0
2, 23534, Note_on_c, 0, 62, 0
2, 23541, Note_on_c, 0, 55, 80
2, 23544, Note_on_c, 0, 50, 0
2, 23592, Note_on_c, 0, 55, 0
2, 23603, Note_on_c, 0, 67, 80
2, 23603, Note_on_c, 0, 70, 80
2, 23604, Note_on_c, 0, 62, 80
2, 23604, Note_on_c, 0, 74, 80
2, 23669, Note_on_c, 0, 58, 80
2, 23682, Control_c, 0, 64, 127
2, 23688, Note_on_c, 0, 74, 0
2, 23688, Note_on_c, 0, 62, 0
2, 23688, Note_on_c, 0, 67, 0
2, 23688, Note_on_c, 0, 70, 0
2, 23715, Note_on_c, 0, 58, 0
2, 23736, Note_on_c, 0, 62, 80
2, 23773, Note_on_c, 0, 62, 0
2, 23800, Control_c, 0, 64, 0
2, 23804, Note_on_c, 0, 58, 80
2, 23804, Note_on_c, 0, 74, 80
2, 23804, Note_on_c, 0, 79, 80
2, 23804, Note_on_c, 0, 82, 80
2, 23845, Note_on_c, 0, 82, 0
2, 23845, Note_on_c, 0, 79, 0
2, 23846, Note_on_c, 0, 74, 0
2, 23846, Note_on_c, 0, 58, 0
2, 23930, Note_on_c, 0, 74, 80
2, 23931, Note_on_c, 0, 78, 80
2, 23931, Note_on_c, 0, 82, 80
2, 23932, Note_on_c, 0, 50, 80
2, 23956, Note_on_c, 0, 82, 0
2, 23956, Note_on_c, 0, 78, 0
2, 23957, Note_on_c, 0, 74, 0
2, 23967, Control_c, 0, 64, 127
2, 23995, Note_on_c, 0, 72, 80
2, 23995, Note_on_c, 0, 78, 80
2, 23995, Note_on_c, 0, 81, 80
2, 23996, Note_on_c, 0, 74, 80
2, 24014, Control_c, 0, 64, 0
2, 24033, Note_on_c, 0, 74, 0
2, 24033, Note_on_c, 0, 78, 0
2, 24033, Note_on_c, 0, 81, 0
2, 24033, Note_on_c, 0, 72, 0
2, 24055, Note_on_c, 0, 57, 80
2, 24055, Note_on_c, 0, 60, 80
2, 24055, Note_on_c, 0, 62, 80
2, 24058, Note_on_c, 0, 50, 0
2, 24073, Note_on_c, 0, 57, 0
2, 24073, Note_on_c, 0, 60, 0
2, 24073, Note_on_c, 0, 62, 0
2, 24120, Note_on_c, 0, 74, 80
2, 24120, Note_on_c, 0, 78, 80
2, 24120, Note_on_c, 0, 81, 80
2, 24120, Note_on_c, 0, 72, 80
2, 24185, Note_on_c, 0, 50, 80
2, 24196, Control_c, 0, 64, 127
2, 24208, Note_on_c, 0, 81, 0
2, 24208, Note_on_c, 0, 78, 0
2, 24209, Note_on_c, 0, 74, 0
2, 24209, Note_on_c, 0, 72, 0
2, 24248, Note_on_c, 0, 82, 80
2, 24292, Note_on_c, 0, 82, 0
2, 24304, Control_c, 0, 64, 0
2, 24311, Note_on_c, 0, 50, 0
2, 24314, Note_on_c, 0, 60, 80
2, 24314, Note_on_c, 0, 72, 80
2, 24314, Note_on_c, 0, 74, 80
2, 24314, Note_on_c, 0, 78, 80
2, 24314, Note_on_c, 0, 81, 80
2, 24315, Note_on_c, 0, 57, 80
2, 24340, Note_on_c, 0, 81, 0
2, 24340, Note_on_c, 0, 78, 0
2, 24341, Note_on_c, 0, 74, 0
2, 24341, Note_on_c, 0, 72, 0
2, 24350, Note_on_c, 0, 60, 0
2, 24351, Note_on_c, 0, 57, 0
2, 24450, Note_on_c, 0, 70, 80
2, 24450, Note_on_c, 0, 74, 80
2, 24450, Note_on_c, 0, 79, 80
2, 24453, Note_on_c, 0, 55, 80
2, 24496, Note_on_c, 0, 55, 0
2, 24514, Control_c, 0, 64, 127
2, 24579, Note_on_c, 0, 70, 0
2, 24579, Note_on_c, 0, 74, 0
2, 24579, Note_on_c, 0, 79, 0
2, 24586, Note_on_c, 0, 50, 80
2, 24650, Note_on_c, 0, 55, 80
2, 24654, Control_c, 0, 64, 0
2, 24668, Note_on_c, 0, 50, 0
2, 24714, Note_on_c, 0, 67, 80
2, 24714, Note_on_c, 0, 70, 80
2, 24715, Note_on_c, 0, 58, 80
2, 24724, Note_on_c, 0, 55, 0
2, 24766, Note_on_c, 0, 58, 0
2, 24767, Control_c, 0, 64, 127
2, 24778, Note_on_c, 0, 68, 80
2, 24778, Note_on_c, 0, 72, 80
2, 24781, Note_on_c, 0, 70, 0
2, 24781, Note_on_c, 0, 67, 0
2, 24840, Control_c, 0, 64, 0
2, 24841, Note_on_c, 0, 67, 80
2, 24841, Note_on_c, 0, 70, 80
2, 24844, Note_on_c, 0, 68, 0
2, 24844, Note_on_c, 0, 72, 0
2, 24884, Note_on_c, 0, 67, 0
2, 24884, Note_on_c, 0, 70, 0
2, 24906, Note_on_c, 0, 65, 80
2, 24906, Note_on_c, 0, 68, 80
2, 24933, Note_on_c, 0, 68, 0
2, 24934, Note_on_c, 0, 65, 0
2, 24971, Note_on_c, 0, 58, 80
2, 24971, Note_on_c, 0, 63, 80
2, 24971, Note_on_c, 0, 67, 80
2, 24972, Note_on_c, 0, 39, 80
2, 24997, Note_on_c, 0, 63, 0
2, 24997, Note_on_c, 0, 58, 0
2, 24998, Note_on_c, 0, 67, 0
2, 25035, Note_on_c, 0, 57, 80
2, 25035, Note_on_c, 0, 63, 80
2, 25035, Note_on_c, 0, 66, 80
2, 25067, Note_on_c, 0, 66, 0
2, 25067, Note_on_c, 0, 63, 0
2, 25067, Note_on_c, 0, 57, 0
2, 25099, Note_on_c, 0, 48, 80
2, 25118, Note_on_c, 0, 39, 0
2, 25128, Note_on_c, 0, 48, 0
2, 25165, Note_on_c, 0, 67, 80
2, 25166, Note_on_c, 0, 55, 80
2, 25166, Note_on_c, 0, 58, 80
2, 25166, Note_on_c, 0, 63, 80
2, 25231, Note_on_c, 0, 46, 80
2, 25268, Note_on_c, 0, 46, 0
2, 25274, Note_on_c, 0, 58, 0
2, 25274, Note_on_c, 0, 63, 0
2, 25274, Note_on_c, 0, 55, 0
2, 25298, Note_on_c, 0, 51, 80
2, 25335, Note_on_c, 0, 51, 0
2, 25363, Note_on_c, 0, 55, 80
2, 25363, Note_on_c, 0, 58, 80
2, 25363, Note_on_c, 0, 63, 80
2, 25364, Note_on_c, 0, 46, 80
2, 25391, Note_on_c, 0, 58, 0
2, 25391, Note_on_c, 0, 55, 0
2, 25399, Note_on_c, 0, 46, 0
2, 25431, Note_on_c, 0, 43, 80
2, 25440, Note_on_c, 0, 63, 0
2, 25440, Note_on_c, 0, 67, 0
2, 25467, Note_on_c, 0, 43, 0
2, 25496, Note_on_c, 0, 39, 80
2, 25496, Note_on_c, 0, 58, 80
2, 25496, Note_on_c, 0, 63, 80
2, 25496, Note_on_c, 0, 67, 80
2, 25521, Note_on_c, 0, 67, 0
2, 25521, Note_on_c, 0, 63, 0
2, 25521, Note_on_c, 0, 58, 0
2, 25559, Note_on_c, 0, 57, 80
2, 25559, Note_on_c, 0, 66, 80
2, 25560, Note_on_c, 0, 63, 80
2, 25622, Note_on_c, 0, 48, 80
2, 25623, Note_on_c, 0, 63, 0
2, 25623, Note_on_c, 0, 66, 0
2, 25623, Note_on_c, 0, 57, 0
2, 25670, Note_on_c, 0, 48, 0
2, 25671, Note_on_c, 0, 39, 0
2, 25682, Note_on_c, 0, 67, 80
2, 25683, Note_on_c, 0, 55, 80
2, 25683, Note_on_c, 0, 58, 80
2, 25683, Note_on_c, 0, 63, 80
2, 25746, Note_on_c, 0, 46, 80
2, 25779, Note_on_c, 0, 46, 0
2, 25788, Note_on_c, 0, 58, 0
2, 25788, Note_on_c, 0, 63, 0
2, 25788, Note_on_c, 0, 55, 0
2, 25809, Note_on_c, 0, 51, 80
2, 25846, Note_on_c, 0, 51, 0
2, 25876, Note_on_c, 0, 46, 80
2, 25876, Note_on_c, 0, 55, 80
2, 25876, Note_on_c, 0, 58, 80
2, 25876, Note_on_c, 0, 63, 80
2, 25910, Note_on_c, 0, 58, 0
2, 25910, Note_on_c, 0, 55, 0
2, 25911, Note_on_c, 0, 46, 0
2, 25942, Note_on_c, 0, 43, 80
2, 25950, Note_on_c, 0, 63, 0
2, 25968, Note_on_c, 0, 67, 0
2, 25977, Note_on_c, 0, 43, 0
2, 26008, Note_on_c, 0, 60, 80
2, 26008, Note_on_c, 0, 63, 80
2, 26009, Note_on_c, 0, 44, 80
2, 26073, Note_on_c, 0, 65, 80
2, 26114, Note_on_c, 0, 63, 0
2, 26114, Note_on_c, 0, 60, 0
2, 26138, Note_on_c, 0, 51, 80
2, 26150, Note_on_c, 0, 44, 0
2, 26168, Note_on_c, 0, 51, 0
2, 26184, Note_on_c, 0, 65, 0
2, 26206, Note_on_c, 0, 63, 80
2, 26207, Note_on_c, 0, 60, 80
2, 26207, Note_on_c, 0, 66, 80
2, 26274, Note_on_c, 0, 44, 80
2, 26336, Note_on_c, 0, 65, 80
2, 26339, Note_on_c, 0, 66, 0
2, 26339, Note_on_c, 0, 63, 0
2, 26339, Note_on_c, 0, 60, 0
2, 26388, Note_on_c, 0, 65, 0
2, 26401, Note_on_c, 0, 63, 80
2, 26402, Note_on_c, 0, 51, 80
2, 26402, Note_on_c, 0, 59, 80
2, 26405, Note_on_c, 0, 44, 0
2, 26430, Control_c, 0, 64, 127
2, 26436, Note_on_c, 0, 63, 0
2, 26436, Note_on_c, 0, 59, 0
2, 26439, Note_on_c, 0, 51, 0
2, 26468, Note_on_c, 0, 44, 80
2, 26502, Note_on_c, 0, 44, 0
2, 26520, Control_c, 0, 64, 0
2, 26527, Note_on_c, 0, 67, 80
2, 26530, Note_on_c, 0, 58, 80
2, 26530, Note_on_c, 0, 63, 80
2, 26533, Note_on_c, 0, 39, 80
2, 26567, Note_on_c, 0, 39, 0
2, 26598, Note_on_c, 0, 43, 80
2, 26635, Note_on_c, 0, 43, 0
2, 26663, Note_on_c, 0, 46, 80
2, 26699, Note_on_c, 0, 46, 0
2, 26728, Note_on_c, 0, 51, 80
2, 26762, Note_on_c, 0, 51, 0
2, 26793, Note_on_c, 0, 46, 80
2, 26825, Note_on_c, 0, 63, 0
2, 26825, Note_on_c, 0, 58, 0
2, 26826, Note_on_c, 0, 67, 0
2, 26856, Note_on_c, 0, 63, 80
2, 26869, Note_on_c, 0, 46, 0
2, 26869, Control_c, 0, 64, 127
2, 26910, Note_on_c, 0, 63, 0
2, 26911, Control_c, 0, 64, 0
2, 26924, Note_on_c, 0, 43, 80
2, 26924, Note_on_c, 0, 51, 80
2, 26924, Note_on_c, 0, 61, 80
2, 26924, Note_on_c, 0, 70, 80
2, 26957, Note_on_c, 0, 61, 0
2, 26964, Note_on_c, 0, 70, 0
2, 26965, Note_on_c, 0, 51, 0
2, 26966, Note_on_c, 0, 43, 0
2, 27055, Note_on_c, 0, 60, 80
2, 27055, Note_on_c, 0, 70, 80
2, 27056, Note_on_c, 0, 44, 80
2, 27097, Control_c, 0, 64, 127
2, 27111, Note_on_c, 0, 70, 0
2, 27117, Note_on_c, 0, 68, 80
2, 27163, Control_c, 0, 64, 0
2, 27167, Note_on_c, 0, 60, 0
2, 27182, Note_on_c, 0, 51, 80
2, 27206, Note_on_c, 0, 68, 0
2, 27216, Note_on_c, 0, 44, 0
2, 27224, Note_on_c, 0, 51, 0
2, 27245, Note_on_c, 0, 63, 80
2, 27245, Note_on_c, 0, 68, 80
2, 27245, Note_on_c, 0, 72, 80
2, 27246, Note_on_c, 0, 60, 80
2, 27312, Note_on_c, 0, 44, 80
2, 27312, Note_on_c, 0, 56, 80
2, 27328, Note_on_c, 0, 60, 0
2, 27328, Note_on_c, 0, 72, 0
2, 27328, Note_on_c, 0, 63, 0
2, 27328, Note_on_c, 0, 68, 0
2, 27328, Control_c, 0, 64, 127
2, 27372, Note_on_c, 0, 71, 80
2, 27408, Note_on_c, 0, 56, 0
2, 27408, Note_on_c, 0, 44, 0
2, 27422, Note_on_c, 0, 71, 0
2, 27435, Note_on_c, 0, 63, 80
2, 27435, Note_on_c, 0, 66, 80
2, 27435, Note_on_c, 0, 72, 80
2, 27436, Note_on_c, 0, 54, 80
2, 27439, Control_c, 0, 64, 0
2, 27445, Note_on_c, 0, 45, 80
2, 27469, Note_on_c, 0, 54, 0
2, 27469, Note_on_c, 0, 72, 0
2, 27469, Note_on_c, 0, 66, 0
2, 27470, Note_on_c, 0, 63, 0
2, 27470, Note_on_c, 0, 45, 0
2, 27563, Note_on_c, 0, 67, 80
2, 27564, Note_on_c, 0, 46, 80
2, 27564, Note_on_c, 0, 55, 80
2, 27564, Note_on_c, 0, 63, 80
2, 27564, Note_on_c, 0, 72, 80
2, 27623, Note_on_c, 0, 46, 0
2, 27626, Note_on_c, 0, 70, 80
2, 27676, Note_on_c, 0, 72, 0
2, 27685, Note_on_c, 0, 63, 0
2, 27694, Note_on_c, 0, 46, 80
2, 27695, Note_on_c, 0, 67, 0
2, 27695, Note_on_c, 0, 70, 0
2, 27719, Note_on_c, 0, 55, 0
2, 27759, Note_on_c, 0, 63, 80
2, 27759, Note_on_c, 0, 67, 80
2, 27759, Note_on_c, 0, 75, 80
2, 27777, Note_on_c, 0, 46, 0
2, 27821, Note_on_c, 0, 58, 80
2, 27834, Control_c, 0, 64, 127
2, 27886, Note_on_c, 0, 72, 80
2, 27888, Note_on_c, 0, 75, 0
2, 27922, Note_on_c, 0, 58, 0
2, 27940, Control_c, 0, 64, 0
2, 27953, Note_on_c, 0, 46, 80
2, 27953, Note_on_c, 0, 70, 80
2, 27954, Note_on_c, 0, 72, 0
2, 27954, Note_on_c, 0, 67, 0
2, 27963, Note_on_c, 0, 63, 0
2, 27997, Note_on_c, 0, 70, 0
2, 27998, Note_on_c, 0, 46, 0
2, 28088, Note_on_c, 0, 56, 80
2, 28088, Note_on_c, 0, 62, 80
2, 28089, Note_on_c, 0, 46, 80
2, 28089, Note_on_c, 0, 67, 80
2, 28156, Note_on_c, 0, 65, 80
2, 28206, Note_on_c, 0, 67, 0
2, 28220, Note_on_c, 0, 68, 80
2, 28221, Note_on_c, 0, 58, 80
2, 28222, Note_on_c, 0, 65, 0
2, 28230, Note_on_c, 0, 62, 0
2, 28231, Note_on_c, 0, 56, 0
2, 28231, Note_on_c, 0, 46, 0
2, 28247, Note_on_c, 0, 68, 0
2, 28255, Note_on_c, 0, 58, 0
2, 28284, Note_on_c, 0, 72, 80
2, 28285, Note_on_c, 0, 62, 80
2, 28285, Note_on_c, 0, 65, 80
2, 28285, Note_on_c, 0, 68, 80
2, 28349, Note_on_c, 0, 46, 80
2, 28391, Control_c, 0, 64, 127
2, 28393, Note_on_c, 0, 72, 0
2, 28415, Note_on_c, 0, 70, 80
2, 28417, Note_on_c, 0, 62, 0
2, 28473, Note_on_c, 0, 70, 0
2, 28473, Control_c, 0, 64, 0
2, 28479, Note_on_c, 0, 34, 80
2, 28479, Note_on_c, 0, 56, 80
2, 28479, Note_on_c, 0, 62, 80
2, 28479, Note_on_c, 0, 67, 80
2, 28488, Note_on_c, 0, 65, 0
2, 28494, Note_on_c, 0, 68, 0
2, 28504, Note_on_c, 0, 46, 0
2, 28504, Note_on_c, 0, 56, 0
2, 28504, Note_on_c, 0, 34, 0
2, 28504, Note_on_c, 0, 62, 0
2, 28560, Note_on_c, 0, 67, 0
2, 28607, Note_on_c, 0, 55, 80
2, 28608, Note_on_c, 0, 39, 80
2, 28608, Note_on_c, 0, 58, 80
2, 28608, Note_on_c, 0, 63, 80
2, 28666, Note_on_c, 0, 39, 0
2, 28670, Note_on_c, 0, 46, 80
2, 28697, Note_on_c, 0, 55, 0
2, 28722, Note_on_c, 0, 46, 0
2, 28735, Note_on_c, 0, 51, 80
2, 28797, Note_on_c, 0, 51, 0
2, 28797, Note_on_c, 0, 58, 0
2, 28803, Note_on_c, 0, 55, 80
2, 28822, Note_on_c, 0, 63, 0
2, 28863, Note_on_c, 0, 55, 0
2, 28869, Note_on_c, 0, 58, 80
2, 28903, Control_c, 0, 64, 127
2, 28944, Note_on_c, 0, 58, 0
2, 28992, Control_c, 0, 64, 0
2, 28998, Note_on_c, 0, 34, 80
2, 28998, Note_on_c, 0, 46, 80
2, 28998, Note_on_c, 0, 62, 80
2, 28999, Note_on_c, 0, 70, 80
2, 29026, Note_on_c, 0, 70, 0
2, 29026, Note_on_c, 0, 34, 0
2, 29026, Note_on_c, 0, 46, 0
2, 29026, Note_on_c, 0, 62, 0
2, 29131, Note_on_c, 0, 39, 80
2, 29131, Note_on_c, 0, 63, 80
2, 29131, Note_on_c, 0, 67, 80
2, 29131, Note_on_c, 0, 72, 80
2, 29131, Note_on_c, 0, 75, 80
2, 29131, Note_on_c, 0, 84, 80
2, 29162, Note_on_c, 0, 39, 0
2, 29190, Note_on_c, 0, 70, 80
2, 29190, Note_on_c, 0, 82, 80
2, 29193, Note_on_c, 0, 84, 0
2, 29200, Note_on_c, 0, 75, 0
2, 29200, Note_on_c, 0, 72, 0
2, 29200, Note_on_c, 0, 67, 0
2, 29253, Note_on_c, 0, 55, 80
2, 29253, Note_on_c, 0, 58, 80
2, 29268, Note_on_c, 0, 58, 0
2, 29268, Note_on_c, 0, 55, 0
2, 29277, Note_on_c, 0, 63, 0
2, 29283, Note_on_c, 0, 82, 0
2, 29293, Note_on_c, 0, 70, 0
2, 29314, Note_on_c, 0, 68, 80
2, 29315, Note_on_c, 0, 80, 80
2, 29346, Note_on_c, 0, 80, 0
2, 29346, Note_on_c, 0, 68, 0
2, 29375, Note_on_c, 0, 46, 80
2, 29375, Note_on_c, 0, 67, 80
2, 29376, Note_on_c, 0, 79, 80
2, 29407, Note_on_c, 0, 46, 0
2, 29417, Note_on_c, 0, 79, 0
2, 29418, Note_on_c, 0, 67, 0
2, 29439, Note_on_c, 0, 66, 80
2, 29439, Note_on_c, 0, 78, 80
2, 29473, Note_on_c, 0, 78, 0
2, 29473, Note_on_c, 0, 66, 0
2, 29505, Note_on_c, 0, 55, 80
2, 29506, Note_on_c, 0, 58, 80
2, 29506, Note_on_c, 0, 67, 80
2, 29506, Note_on_c, 0, 79, 80
2, 29524, Note_on_c, 0, 58, 0
2, 29525, Note_on_c, 0, 55, 0
2, 29549, Note_on_c, 0, 67, 0
2, 29549, Note_on_c, 0, 79, 0
2, 29573, Note_on_c, 0, 65, 80
2, 29573, Note_on_c, 0, 77, 80
2, 29610, Note_on_c, 0, 77, 0
2, 29610, Note_on_c, 0, 65, 0
2, 29639, Note_on_c, 0, 39, 80
2, 29639, Note_on_c, 0, 63, 80
2, 29640, Note_on_c, 0, 51, 80
2, 29640, Note_on_c, 0, 75, 80
2, 29666, Note_on_c, 0, 75, 0
2, 29666, Note_on_c, 0, 51, 0
2, 29666, Note_on_c, 0, 39, 0
2, 29667, Note_on_c, 0, 63, 0
2, 29708, Note_on_c, 0, 65, 80
2, 29708, Note_on_c, 0, 77, 80
2, 29760, Note_on_c, 0, 77, 0
2, 29760, Note_on_c, 0, 65, 0
2, 29776, Note_on_c, 0, 40, 80
2, 29776, Note_on_c, 0, 61, 80
2, 29776, Note_on_c, 0, 67, 80
2, 29776, Note_on_c, 0, 73, 80
2, 29776, Note_on_c, 0, 79, 80
2, 29783, Note_on_c, 0, 52, 80
2, 29801, Note_on_c, 0, 52, 0
2, 29801, Note_on_c, 0, 40, 0
2, 29801, Note_on_c, 0, 67, 0
2, 29801, Note_on_c, 0, 73, 0
2, 29801, Note_on_c, 0, 79, 0
2, 29809, Note_on_c, 0, 61, 0
2, 29841, Note_on_c, 0, 62, 80
2, 29841, Note_on_c, 0, 68, 80
2, 29841, Note_on_c, 0, 72, 80
2, 29841, Note_on_c, 0, 74, 80
2, 29841, Note_on_c, 0, 80, 80
2, 29841, Note_on_c, 0, 84, 80
2, 29901, Note_on_c, 0, 41, 80
2, 29902, Note_on_c, 0, 53, 80
2, 29927, Note_on_c, 0, 84, 0
2, 29927, Note_on_c, 0, 74, 0
2, 29927, Note_on_c, 0, 62, 0
2, 29927, Note_on_c, 0, 68, 0
2, 29927, Note_on_c, 0, 72, 0
2, 29927, Note_on_c, 0, 80, 0
2, 29932, Control_c, 0, 64, 127
2, 29974, Note_on_c, 0, 53, 0
2, 29980, Note_on_c, 0, 41, 0
2, 30004, Control_c, 0, 64, 0
2, 30028, Note_on_c, 0, 46, 80
2, 30028, Note_on_c, 0, 58, 80
2, 30028, Note_on_c, 0, 62, 80
2, 30028, Note_on_c, 0, 65, 80
2, 30028, Note_on_c, 0, 68, 80
2, 30028, Note_on_c, 0, 70, 80
2, 30028, Note_on_c, 0, 74, 80
2, 30028, Note_on_c, 0, 80, 80
2, 30028, Note_on_c, 0, 82, 80
2, 30029, Note_on_c, 0, 77, 80
2, 30053, Note_on_c, 0, 77, 0
2, 30053, Note_on_c, 0, 62, 0
2, 30053, Note_on_c, 0, 65, 0
2, 30053, Note_on_c, 0, 46, 0
2, 30053, Note_on_c, 0, 68, 0
2, 30053, Note_on_c, 0, 58, 0
2, 30053, Note_on_c, 0, 80, 0
2, 30053, Note_on_c, 0, 74, 0
2, 30053, Note_on_c, 0, 70, 0
2, 30053, Note_on_c, 0, 82, 0
2, 30158, Note_on_c, 0, 51, 80
2, 30158, Note_on_c, 0, 63, 80
2, 30158, Note_on_c, 0, 67, 80
2, 30158, Note_on_c, 0, 72, 80
2, 30183, Note_on_c, 0, 51, 0
2, 30223, Note_on_c, 0, 70, 80
2, 30226, Note_on_c, 0, 72, 0
2, 30288, Note_on_c, 0, 55, 80
2, 30288, Note_on_c, 0, 58, 80
2, 30300, Note_on_c, 0, 63, 0
2, 30300, Note_on_c, 0, 67, 0
2, 30307, Note_on_c, 0, 58, 0
2, 30307, Note_on_c, 0, 55, 0
2, 30356, Note_on_c, 0, 68, 80
2, 30367, Note_on_c, 0, 70, 0
2, 30401, Note_on_c, 0, 68, 0
2, 30423, Note_on_c, 0, 46, 80
2, 30424, Note_on_c, 0, 67, 80
2, 30451, Note_on_c, 0, 46, 0
2, 30469, Note_on_c, 0, 67, 0
2, 30491, Note_on_c, 0, 66, 80
2, 30525, Note_on_c, 0, 66, 0
2, 30556, Note_on_c, 0, 58, 80
2, 30557, Note_on_c, 0, 55, 80
2, 30557, Note_on_c, 0, 67, 80
2, 30576, Note_on_c, 0, 55, 0
2, 30576, Note_on_c, 0, 58, 0
2, 30585, Note_on_c, 0, 67, 0
2, 30622, Note_on_c, 0, 65, 80
2, 30649, Note_on_c, 0, 65, 0
2, 30687, Note_on_c, 0, 39, 80
2, 30687, Note_on_c, 0, 51, 80
2, 30687, Note_on_c, 0, 63, 80
2, 30711, Note_on_c, 0, 51, 0
2, 30711, Note_on_c, 0, 39, 0
2, 30712, Note_on_c, 0, 63, 0
2, 30748, Note_on_c, 0, 65, 80
2, 30782, Note_on_c, 0, 65, 0
2, 30811, Note_on_c, 0, 40, 80
2, 30812, Note_on_c, 0, 61, 80
2, 30812, Note_on_c, 0, 67, 80
2, 30818, Note_on_c, 0, 52, 80
2, 30835, Note_on_c, 0, 52, 0
2, 30835, Note_on_c, 0, 40, 0
2, 30835, Note_on_c, 0, 61, 0
2, 30835, Note_on_c, 0, 67, 0
2, 30874, Note_on_c, 0, 62, 80
2, 30874, Note_on_c, 0, 68, 80
2, 30874, Note_on_c, 0, 72, 80
2, 30936, Note_on_c, 0, 41, 80
2, 30937, Note_on_c, 0, 53, 80
2, 30962, Note_on_c, 0, 41, 0
2, 30963, Note_on_c, 0, 53, 0
2, 31010, Note_on_c, 0, 62, 0
2, 31010, Note_on_c, 0, 68, 0
2, 31011, Note_on_c, 0, 72, 0
2, 31061, Note_on_c, 0, 46, 80
2, 31061, Note_on_c, 0, 58, 80
2, 31062, Note_on_c, 0, 62, 80
2, 31063, Note_on_c, 0, 68, 80
2, 31063, Note_on_c, 0, 70, 80
2, 31080, Note_on_c, 0, 70, 0
2, 31080, Note_on_c, 0, 62, 0
2, 31080, Note_on_c, 0, 46, 0
2, 31080, Note_on_c, 0, 58, 0
2, 31080, Note_on_c, 0, 68, 0
2, 31192, Note_on_c, 0, 39, 80
2, 31192, Note_on_c, 0, 51, 80
2, 31192, Note_on_c, 0, 60, 80
2, 31193, Note_on_c, 0, 84, 80
2, 31226, Note_on_c, 0, 39, 0
2, 31227, Note_on_c, 0, 51, 0
2, 31227, Note_on_c, 0, 60, 0
2, 31254, Note_on_c, 0, 84, 0
2, 31258, Note_on_c, 0, 58, 80
2, 31258, Note_on_c, 0, 82, 80
2, 31323, Note_on_c, 0, 67, 80
2, 31324, Note_on_c, 0, 63, 80
2, 31327, Note_on_c, 0, 82, 0
2, 31333, Note_on_c, 0, 58, 0
2, 31349, Note_on_c, 0, 67, 0
2, 31349, Note_on_c, 0, 63, 0
2, 31389, Note_on_c, 0, 56, 80
2, 31389, Note_on_c, 0, 80, 80
2, 31438, Note_on_c, 0, 56, 0
2, 31439, Note_on_c, 0, 80, 0
2, 31451, Note_on_c, 0, 46, 80
2, 31451, Note_on_c, 0, 55, 80
2, 31452, Note_on_c, 0, 79, 80
2, 31484, Note_on_c, 0, 46, 0
2, 31492, Note_on_c, 0, 55, 0
2, 31493, Note_on_c, 0, 79, 0
2, 31514, Note_on_c, 0, 54, 80
2, 31515, Note_on_c, 0, 78, 80
2, 31550, Note_on_c, 0, 78, 0
2, 31550, Note_on_c, 0, 54, 0
2, 31581, Note_on_c, 0, 55, 80
2, 31581, Note_on_c, 0, 67, 80
2, 31581, Note_on_c, 0, 79, 80
2, 31582, Note_on_c, 0, 63, 80
2, 31607, Note_on_c, 0, 63, 0
2, 31607, Note_on_c, 0, 67, 0
2, 31615, Note_on_c, 0, 55, 0
2, 31624, Note_on_c, 0, 79, 0
2, 31648, Note_on_c, 0, 53, 80
2, 31648, Note_on_c, 0, 77, 80
2, 31691, Note_on_c, 0, 53, 0
2, 31692, Note_on_c, 0, 77, 0
2, 31711, Note_on_c, 0, 39, 80
2, 31712, Note_on_c, 0, 51, 80
2, 31712, Note_on_c, 0, 75, 80
2, 31746, Note_on_c, 0, 39, 0
2, 31755, Note_on_c, 0, 75, 0
2, 31764, Note_on_c, 0, 51, 0
2, 31777, Note_on_c, 0, 53, 80
2, 31778, Note_on_c, 0, 77, 80
2, 31827, Note_on_c, 0, 77, 0
2, 31836, Note_on_c, 0, 53, 0
2, 31842, Note_on_c, 0, 55, 80
2, 31842, Note_on_c, 0, 67, 80
2, 31843, Note_on_c, 0, 63, 80
2, 31843, Note_on_c, 0, 79, 80
2, 31868, Note_on_c, 0, 63, 0
2, 31868, Note_on_c, 0, 67, 0
2, 31876, Note_on_c, 0, 55, 0
2, 31888, Note_on_c, 0, 79, 0
2, 31909, Note_on_c, 0, 58, 80
2, 31909, Note_on_c, 0, 82, 80
2, 31956, Control_c, 0, 64, 127
2, 31972, Note_on_c, 0, 46, 80
2, 32000, Note_on_c, 0, 46, 0
2, 32009, Note_on_c, 0, 82, 0
2, 32018, Note_on_c, 0, 58, 0
2, 32038, Note_on_c, 0, 75, 80
2, 32088, Control_c, 0, 64, 0
2, 32100, Note_on_c, 0, 58, 80
2, 32101, Note_on_c, 0, 55, 80
2, 32101, Note_on_c, 0, 67, 80
2, 32101, Note_on_c, 0, 70, 80
2, 32101, Note_on_c, 0, 79, 80
2, 32117, Note_on_c, 0, 55, 0
2, 32117, Note_on_c, 0, 58, 0
2, 32118, Note_on_c, 0, 75, 0
2, 32149, Note_on_c, 0, 79, 0
2, 32158, Note_on_c, 0, 70, 0
2, 32159, Note_on_c, 0, 67, 0
2, 32228, Note_on_c, 0, 51, 80
2, 32228, Note_on_c, 0, 60, 80
2, 32228, Note_on_c, 0, 84, 80
2, 32255, Note_on_c, 0, 51, 0
2, 32285, Note_on_c, 0, 60, 0
2, 32286, Note_on_c, 0, 84, 0
2, 32292, Note_on_c, 0, 58, 80
2, 32292, Note_on_c, 0, 82, 80
2, 32357, Note_on_c, 0, 63, 80
2, 32357, Note_on_c, 0, 67, 80
2, 32360, Note_on_c, 0, 58, 0
2, 32361, Note_on_c, 0, 82, 0
2, 32383, Note_on_c, 0, 63, 0
2, 32383, Note_on_c, 0, 67, 0
2, 32423, Note_on_c, 0, 56, 80
2, 32425, Note_on_c, 0, 80, 80
2, 32460, Note_on_c, 0, 56, 0
2, 32467, Note_on_c, 0, 80, 0
2, 32488, Note_on_c, 0, 46, 80
2, 32489, Note_on_c, 0, 55, 80
2, 32489, Note_on_c, 0, 79, 80
2, 32514, Note_on_c, 0, 46, 0
2, 32539, Note_on_c, 0, 79, 0
2, 32539, Note_on_c, 0, 55, 0
2, 32554, Note_on_c, 0, 54, 80
2, 32554, Note_on_c, 0, 78, 80
2, 32597, Note_on_c, 0, 54, 0
2, 32614, Note_on_c, 0, 78, 0
2, 32619, Note_on_c, 0, 55, 80
2, 32619, Note_on_c, 0, 63, 80
2, 32619, Note_on_c, 0, 67, 80
2, 32619, Note_on_c, 0, 79, 80
2, 32646, Note_on_c, 0, 67, 0
2, 32647, Note_on_c, 0, 63, 0
2, 32669, Note_on_c, 0, 55, 0
2, 32679, Note_on_c, 0, 79, 0
2, 32683, Note_on_c, 0, 56, 80
2, 32684, Note_on_c, 0, 80, 80
2, 32734, Note_on_c, 0, 56, 0
2, 32740, Note_on_c, 0, 80, 0
2, 32744, Note_on_c, 0, 51, 80
2, 32744, Note_on_c, 0, 58, 80
2, 32745, Note_on_c, 0, 39, 80
2, 32745, Note_on_c, 0, 82, 80
2, 32752, Control_c, 0, 64, 127
2, 32768, Note_on_c, 0, 39, 0
2, 32768, Note_on_c, 0, 51, 0
2, 32868, Note_on_c, 0, 55, 80
2, 32868, Note_on_c, 0, 63, 80
2, 32868, Note_on_c, 0, 70, 80
2, 32869, Note_on_c, 0, 58, 0
2, 32872, Note_on_c, 0, 82, 0
2, 32893, Control_c, 0, 64, 0
2, 32930, Note_on_c, 0, 67, 80
2, 32958, Note_on_c, 0, 63, 0
2, 32958, Note_on_c, 0, 70, 0
2, 32990, Note_on_c, 0, 55, 0
2, 32996, Note_on_c, 0, 58, 80
2, 32996, Note_on_c, 0, 70, 80
2, 32997, Note_on_c, 0, 63, 80
2, 33008, Note_on_c, 0, 67, 0
2, 33046, Control_c, 0, 64, 127
2, 33064, Note_on_c, 0, 67, 80
2, 33083, Note_on_c, 0, 63, 0
2, 33083, Note_on_c, 0, 70, 0
2, 33105, Control_c, 0, 64, 0
2, 33108, Note_on_c, 0, 58, 0
2, 33124, Note_on_c, 0, 67, 0
2, 33130, Note_on_c, 0, 61, 80
2, 33130, Note_on_c, 0, 70, 80
2, 33167, Note_on_c, 0, 70, 0
2, 33167, Note_on_c, 0, 61, 0
2, 33213, Note_on_c, 0, 57, 80
2, 33229, Note_on_c, 0, 58, 80
2, 33232, Note_on_c, 0, 57, 0
2, 33247, Note_on_c, 0, 59, 80
2, 33251, Note_on_c, 0, 58, 0
2, 33264, Note_on_c, 0, 60, 80
2, 33264, Note_on_c, 0, 63, 80
2, 33264, Note_on_c, 0, 75, 80
2, 33265, Note_on_c, 0, 87, 80
2, 33272, Note_on_c, 0, 59, 0
2, 33290, Note_on_c, 0, 87, 0
2, 33291, Note_on_c, 0, 75, 0
2, 33291, Note_on_c, 0, 63, 0
2, 33332, Note_on_c, 0, 75, 80
2, 33375, Note_on_c, 0, 75, 0
2, 33396, Note_on_c, 0, 63, 80
2, 33396, Note_on_c, 0, 75, 80
2, 33397, Note_on_c, 0, 87, 80
2, 33415, Note_on_c, 0, 87, 0
2, 33415, Note_on_c, 0, 63, 0
2, 33416, Note_on_c, 0, 75, 0
2, 33459, Note_on_c, 0, 75, 80
2, 33501, Note_on_c, 0, 75, 0
2, 33501, Note_on_c, 0, 60, 0
2, 33523, Note_on_c, 0, 59, 80
2, 33523, Note_on_c, 0, 63, 80
2, 33523, Note_on_c, 0, 75, 80
2, 33523, Note_on_c, 0, 87, 80
2, 33541, Note_on_c, 0, 87, 0
2, 33541, Note_on_c, 0, 75, 0
2, 33541, Note_on_c, 0, 63, 0
2, 33587, Note_on_c, 0, 75, 80
2, 33630, Note_on_c, 0, 75, 0
2, 33651, Note_on_c, 0, 63, 80
2, 33651, Note_on_c, 0, 75, 80
2, 33651, Note_on_c, 0, 87, 80
2, 33668, Note_on_c, 0, 87, 0
2, 33668, Note_on_c, 0, 75, 0
2, 33668, Note_on_c, 0, 63, 0
2, 33715, Note_on_c, 0, 75, 80
2, 33759, Note_on_c, 0, 75, 0
2, 33781, Note_on_c, 0, 58, 80
2, 33781, Note_on_c, 0, 63, 80
2, 33782, Note_on_c, 0, 75, 80
2, 33782, Note_on_c, 0, 87, 80
2, 33798, Note_on_c, 0, 59, 0
2, 33807, Note_on_c, 0, 75, 0
2, 33807, Note_on_c, 0, 87, 0
2, 33807, Note_on_c, 0, 63, 0
2, 33846, Note_on_c, 0, 63, 80
2, 33846, Note_on_c, 0, 75, 80
2, 33890, Note_on_c, 0, 75, 0
2, 33890, Note_on_c, 0, 63, 0
2, 33912, Note_on_c, 0, 67, 80
2, 33912, Note_on_c, 0, 70, 80
2, 33912, Note_on_c, 0, 63, 80
2, 33912, Note_on_c, 0, 75, 80
2, 33912, Note_on_c, 0, 87, 80
2, 33929, Note_on_c, 0, 70, 0
2, 33929, Note_on_c, 0, 67, 0
2, 33937, Note_on_c, 0, 63, 0
2, 33937, Note_on_c, 0, 75, 0
2, 33937, Note_on_c, 0, 87, 0
2, 33978, Note_on_c, 0, 63, 80
2, 33978, Note_on_c, 0, 75, 80
2, 34022, Note_on_c, 0, 75, 0
2, 34022, Note_on_c, 0, 63, 0
2, 34022, Note_on_c, 0, 58, 0
2, 34043, Note_on_c, 0, 75, 80
2, 34043, Note_on_c, 0, 87, 80
2, 34044, Note_on_c, 0, 55, 80
2, 34044, Note_on_c, 0, 63, 80
2, 34062, Note_on_c, 0, 63, 0
2, 34063, Note_on_c, 0, 75, 0
2, 34063, Note_on_c, 0, 87, 0
2, 34106, Note_on_c, 0, 75, 80
2, 34107, Note_on_c, 0, 63, 80
2, 34149, Note_on_c, 0, 63, 0
2, 34149, Note_on_c, 0, 75, 0
2, 34170, Note_on_c, 0, 87, 80
2, 34171, Note_on_c, 0, 63, 80
2, 34171, Note_on_c, 0, 67, 80
2, 34171, Note_on_c, 0, 70, 80
2, 34171, Note_on_c, 0, 75, 80
2, 34198, Note_on_c, 0, 75, 0
2, 34198, Note_on_c, 0, 67, 0
2, 34198, Note_on_c, 0, 87, 0
2, 34198, Note_on_c, 0, 70, 0
2, 34199, Note_on_c, 0, 63, 0
2, 34233, Note_on_c, 0, 58, 80
2, 34233, Note_on_c, 0, 82, 80
2, 34265, Note_on_c, 0, 84, 80
2, 34276, Note_on_c, 0, 55, 0
2, 34282, Note_on_c, 0, 85, 80
2, 34285, Note_on_c, 0, 84, 0
2, 34292, Note_on_c, 0, 58, 0
2, 34292, Note_on_c, 0, 82, 0
2, 34296, Note_on_c, 0, 41, 80
2, 34296, Note_on_c, 0, 65, 80
2, 34296, Note_on_c, 0, 53, 80
2, 34296, Note_on_c, 0, 62, 80
2, 34296, Note_on_c, 0, 74, 80
2, 34296, Note_on_c, 0, 77, 80
2, 34296, Note_on_c, 0, 86, 80
2, 34299, Note_on_c, 0, 85, 0
2, 34321, Note_on_c, 0, 62, 0
2, 34321, Note_on_c, 0, 74, 0
2, 34321, Note_on_c, 0, 65, 0
2, 34321, Note_on_c, 0, 77, 0
2, 34345, Note_on_c, 0, 86, 0
2, 34345, Note_on_c, 0, 53, 0
2, 34345, Note_on_c, 0, 41, 0
2, 34358, Note_on_c, 0, 62, 80
2, 34358, Note_on_c, 0, 70, 80
2, 34358, Note_on_c, 0, 82, 80
2, 34423, Note_on_c, 0, 42, 80
2, 34424, Note_on_c, 0, 54, 80
2, 34425, Note_on_c, 0, 82, 0
2, 34425, Note_on_c, 0, 62, 0
2, 34425, Note_on_c, 0, 70, 0
2, 34475, Note_on_c, 0, 42, 0
2, 34475, Note_on_c, 0, 54, 0
2, 34490, Note_on_c, 0, 65, 80
2, 34490, Note_on_c, 0, 74, 80
2, 34490, Note_on_c, 0, 86, 80
2, 34507, Note_on_c, 0, 86, 0
2, 34507, Note_on_c, 0, 74, 0
2, 34507, Note_on_c, 0, 65, 0
2, 34554, Note_on_c, 0, 84, 80
2, 34555, Note_on_c, 0, 43, 80
2, 34555, Note_on_c, 0, 55, 80
2, 34555, Note_on_c, 0, 64, 80
2, 34555, Note_on_c, 0, 72, 80
2, 34555, Note_on_c, 0, 76, 80
2, 34580, Note_on_c, 0, 64, 0
2, 34580, Note_on_c, 0, 55, 0
2, 34581, Note_on_c, 0, 43, 0
2, 34587, Note_on_c, 0, 76, 0
2, 34587, Note_on_c, 0, 72, 0
2, 34596, Note_on_c, 0, 84, 0
2, 34682, Note_on_c, 0, 57, 80
2, 34682, Note_on_c, 0, 63, 80
2, 34682, Note_on_c, 0, 65, 80
2, 34682, Note_on_c, 0, 74, 80
2, 34682, Note_on_c, 0, 86, 80
2, 34692, Note_on_c, 0, 45, 80
2, 34707, Note_on_c, 0, 86, 0
2, 34708, Note_on_c, 0, 63, 0
2, 34708, Note_on_c, 0, 65, 0
2, 34708, Note_on_c, 0, 57, 0
2, 34708, Note_on_c, 0, 45, 0
2, 34708, Note_on_c, 0, 74, 0
2, 34748, Note_on_c, 0, 58, 80
2, 34748, Note_on_c, 0, 62, 80
2, 34748, Note_on_c, 0, 65, 80
2, 34748, Note_on_c, 0, 70, 80
2, 34748, Note_on_c, 0, 74, 80
2, 34748, Note_on_c, 0, 82, 80
2, 34749, Note_on_c, 0, 46, 80
2, 34782, Note_on_c, 0, 58, 0
2, 34798, Note_on_c, 0, 46, 0
2, 34803, Note_on_c, 0, 65, 0
2, 34803, Note_on_c, 0, 74, 0
2, 34803, Note_on_c, 0, 82, 0
2, 34804, Note_on_c, 0, 62, 0
2, 34810, Note_on_c, 0, 58, 80
2, 34847, Control_c, 0, 64, 127
2, 34878, Note_on_c, 0, 58, 0
2, 34905, Control_c, 0, 64, 0
2, 34940, Note_on_c, 0, 62, 80
2, 34941, Note_on_c, 0, 53, 80
2, 34997, Note_on_c, 0, 53, 0
2, 34997, Note_on_c, 0, 70, 0
2, 35004, Note_on_c, 0, 63, 80
2, 35005, Note_on_c, 0, 62, 0
2, 35066, Note_on_c, 0, 65, 80
2, 35070, Note_on_c, 0, 50, 80
2, 35079, Note_on_c, 0, 63, 0
2, 35120, Control_c, 0, 64, 127
2, 35127, Note_on_c, 0, 50, 0
2, 35134, Note_on_c, 0, 67, 80
2, 35143, Note_on_c, 0, 65, 0
2, 35171, Control_c, 0, 64, 0
2, 35199, Note_on_c, 0, 68, 80
2, 35200, Note_on_c, 0, 46, 80
2, 35209, Note_on_c, 0, 67, 0
2, 35264, Note_on_c, 0, 70, 80
2, 35283, Note_on_c, 0, 46, 0
2, 35290, Note_on_c, 0, 68, 0
2, 35306, Note_on_c, 0, 70, 0
2, 35328, Note_on_c, 0, 84, 80
2, 35331, Note_on_c, 0, 51, 80
2, 35331, Note_on_c, 0, 60, 80
2, 35332, Note_on_c, 0, 39, 80
2, 35364, Note_on_c, 0, 60, 0
2, 35365, Note_on_c, 0, 51, 0
2, 35366, Note_on_c, 0, 39, 0
2, 35388, Note_on_c, 0, 84, 0
2, 35392, Note_on_c, 0, 82, 80
2, 35395, Note_on_c, 0, 58, 80
2, 35460, Note_on_c, 0, 67, 80
2, 35461, Note_on_c, 0, 82, 0
2, 35461, Note_on_c, 0, 63, 80
2, 35471, Note_on_c, 0, 58, 0
2, 35487, Note_on_c, 0, 63, 0
2, 35487, Note_on_c, 0, 67, 0
2, 35526, Note_on_c, 0, 80, 80
2, 35527, Note_on_c, 0, 56, 80
2, 35577, Note_on_c, 0, 80, 0
2, 35578, Note_on_c, 0, 56, 0
2, 35591, Note_on_c, 0, 79, 80
2, 35592, Note_on_c, 0, 46, 80
2, 35592, Note_on_c, 0, 55, 80
2, 35626, Note_on_c, 0, 46, 0
2, 35633, Note_on_c, 0, 79, 0
2, 35634, Note_on_c, 0, 55, 0
2, 35653, Note_on_c, 0, 78, 80
2, 35656, Note_on_c, 0, 54, 80
2, 35688, Note_on_c, 0, 54, 0
2, 35688, Note_on_c, 0, 78, 0
2, 35719, Note_on_c, 0, 67, 80
2, 35719, Note_on_c, 0, 79, 80
2, 35720, Note_on_c, 0, 55, 80
2, 35720, Note_on_c, 0, 63, 80
2, 35747, Note_on_c, 0, 63, 0
2, 35747, Note_on_c, 0, 67, 0
2, 35754, Note_on_c, 0, 55, 0
2, 35762, Note_on_c, 0, 79, 0
2, 35784, Note_on_c, 0, 77, 80
2, 35785, Note_on_c, 0, 53, 80
2, 35827, Note_on_c, 0, 77, 0
2, 35828, Note_on_c, 0, 53, 0
2, 35849, Note_on_c, 0, 75, 80
2, 35850, Note_on_c, 0, 51, 80
2, 35851, Note_on_c, 0, 39, 80
2, 35884, Note_on_c, 0, 39, 0
2, 35890, Note_on_c, 0, 75, 0
2, 35900, Note_on_c, 0, 51, 0
2, 35912, Note_on_c, 0, 77, 80
2, 35913, Note_on_c, 0, 53, 80
2, 35962, Note_on_c, 0, 77, 0
2, 35972, Note_on_c, 0, 53, 0
2, 35976, Note_on_c, 0, 79, 80
2, 35976, Note_on_c, 0, 67, 80
2, 35977, Note_on_c, 0, 55, 80
2, 35977, Note_on_c, 0, 63, 80
2, 36001, Note_on_c, 0, 63, 0
2, 36001, Note_on_c, 0, 67, 0
2, 36011, Note_on_c, 0, 55, 0
2, 36017, Note_on_c, 0, 79, 0
2, 36038, Note_on_c, 0, 82, 80
2, 36041, Note_on_c, 0, 58, 80
2, 36094, Control_c, 0, 64, 127
2, 36106, Note_on_c, 0, 46, 80
2, 36133, Note_on_c, 0, 46, 0
2, 36137, Note_on_c, 0, 82, 0
2, 36146, Note_on_c, 0, 58, 0
2, 36168, Note_on_c, 0, 75, 80
2, 36224, Control_c, 0, 64, 0
2, 36231, Note_on_c, 0, 67, 80
2, 36231, Note_on_c, 0, 79, 80
2, 36232, Note_on_c, 0, 70, 80
2, 36235, Note_on_c, 0, 55, 80
2, 36235, Note_on_c, 0, 58, 80
2, 36251, Note_on_c, 0, 75, 0
2, 36252, Note_on_c, 0, 55, 0
2, 36252, Note_on_c, 0, 58, 0
2, 36281, Note_on_c, 0, 79, 0
2, 36289, Note_on_c, 0, 70, 0
2, 36290, Note_on_c, 0, 67, 0
2, 36359, Note_on_c, 0, 84, 80
2, 36361, Note_on_c, 0, 51, 80
2, 36361, Note_on_c, 0, 60, 80
2, 36388, Note_on_c, 0, 51, 0
2, 36416, Note_on_c, 0, 84, 0
2, 36419, Note_on_c, 0, 60, 0
2, 36422, Note_on_c, 0, 82, 80
2, 36423, Note_on_c, 0, 58, 80
2, 36488, Note_on_c, 0, 67, 80
2, 36489, Note_on_c, 0, 82, 0
2, 36489, Note_on_c, 0, 63, 80
2, 36492, Note_on_c, 0, 58, 0
2, 36514, Note_on_c, 0, 67, 0
2, 36517, Note_on_c, 0, 63, 0
2, 36552, Note_on_c, 0, 80, 80
2, 36552, Note_on_c, 0, 56, 80
2, 36587, Note_on_c, 0, 56, 0
2, 36593, Note_on_c, 0, 80, 0
2, 36615, Note_on_c, 0, 79, 80
2, 36618, Note_on_c, 0, 46, 80
2, 36618, Note_on_c, 0, 55, 80
2, 36646, Note_on_c, 0, 46, 0
2, 36667, Note_on_c, 0, 79, 0
2, 36670, Note_on_c, 0, 55, 0
2, 36679, Note_on_c, 0, 78, 80
2, 36682, Note_on_c, 0, 54, 80
2, 36725, Note_on_c, 0, 54, 0
2, 36741, Note_on_c, 0, 78, 0
2, 36744, Note_on_c, 0, 79, 80
2, 36745, Note_on_c, 0, 67, 80
2, 36746, Note_on_c, 0, 55, 80
2, 36746, Note_on_c, 0, 63, 80
2, 36773, Note_on_c, 0, 63, 0
2, 36773, Note_on_c, 0, 67, 0
2, 36797, Note_on_c, 0, 55, 0
2, 36804, Note_on_c, 0, 79, 0
2, 36810, Note_on_c, 0, 80, 80
2, 36813, Note_on_c, 0, 56, 80
2, 36864, Note_on_c, 0, 56, 0
2, 36870, Note_on_c, 0, 80, 0
2, 36876, Note_on_c, 0, 82, 80
2, 36879, Note_on_c, 0, 58, 80
2, 36882, Note_on_c, 0, 39, 80
2, 36882, Note_on_c, 0, 51, 80
2, 36894, Control_c, 0, 64, 127
2, 36907, Note_on_c, 0, 51, 0
2, 36908, Note_on_c, 0, 39, 0
2, 37008, Note_on_c, 0, 82, 0
2, 37008, Note_on_c, 0, 70, 80
2, 37008, Note_on_c, 0, 63, 80
2, 37009, Note_on_c, 0, 55, 80
2, 37010, Note_on_c, 0, 58, 0
2, 37038, Control_c, 0, 64, 0
2, 37070, Note_on_c, 0, 67, 80
2, 37098, Note_on_c, 0, 70, 0
2, 37099, Note_on_c, 0, 63, 0
2, 37132, Note_on_c, 0, 55, 0
2, 37136, Note_on_c, 0, 70, 80
2, 37137, Note_on_c, 0, 58, 80
2, 37137, Note_on_c, 0, 63, 80
2, 37146, Note_on_c, 0, 67, 0
2, 37192, Control_c, 0, 64, 127
2, 37201, Note_on_c, 0, 67, 80
2, 37221, Note_on_c, 0, 70, 0
2, 37222, Note_on_c, 0, 63, 0
2, 37248, Note_on_c, 0, 58, 0
2, 37258, Control_c, 0, 64, 0
2, 37262, Note_on_c, 0, 67, 0
2, 37268, Note_on_c, 0, 61, 80
2, 37268, Note_on_c, 0, 70, 80
2, 37302, Note_on_c, 0, 70, 0
2, 37303, Note_on_c, 0, 61, 0
2, 37355, Note_on_c, 0, 57, 80
2, 37371, Note_on_c, 0, 58, 80
2, 37372, Note_on_c, 0, 57, 0
2, 37388, Note_on_c, 0, 59, 80
2, 37392, Note_on_c, 0, 58, 0
2, 37400, Note_on_c, 0, 87, 80
2, 37401, Note_on_c, 0, 75, 80
2, 37402, Note_on_c, 0, 60, 80
2, 37402, Note_on_c, 0, 63, 80
2, 37412, Note_on_c, 0, 59, 0
2, 37425, Note_on_c, 0, 87, 0
2, 37426, Note_on_c, 0, 63, 0
2, 37426, Note_on_c, 0, 75, 0
2, 37465, Note_on_c, 0, 75, 80
2, 37507, Note_on_c, 0, 75, 0
2, 37528, Note_on_c, 0, 87, 80
2, 37529, Note_on_c, 0, 75, 80
2, 37530, Note_on_c, 0, 63, 80
2, 37545, Note_on_c, 0, 75, 0
2, 37545, Note_on_c, 0, 87, 0
2, 37548, Note_on_c, 0, 63, 0
2, 37592, Note_on_c, 0, 75, 80
2, 37635, Note_on_c, 0, 60, 0
2, 37636, Note_on_c, 0, 75, 0
2, 37655, Note_on_c, 0, 87, 80
2, 37656, Note_on_c, 0, 75, 80
2, 37656, Note_on_c, 0, 59, 80
2, 37656, Note_on_c, 0, 63, 80
2, 37672, Note_on_c, 0, 87, 0
2, 37673, Note_on_c, 0, 75, 0
2, 37673, Note_on_c, 0, 63, 0
2, 37719, Note_on_c, 0, 75, 80
2, 37760, Note_on_c, 0, 75, 0
2, 37779, Note_on_c, 0, 87, 80
2, 37782, Note_on_c, 0, 63, 80
2, 37782, Note_on_c, 0, 75, 80
2, 37799, Note_on_c, 0, 87, 0
2, 37800, Note_on_c, 0, 75, 0
2, 37800, Note_on_c, 0, 63, 0
2, 37845, Note_on_c, 0, 75, 80
2, 37888, Note_on_c, 0, 75, 0
2, 37909, Note_on_c, 0, 87, 80
2, 37910, Note_on_c, 0, 58, 80
2, 37910, Note_on_c, 0, 63, 80
2, 37910, Note_on_c, 0, 75, 80
2, 37928, Note_on_c, 0, 59, 0
2, 37935, Note_on_c, 0, 87, 0
2, 37935, Note_on_c, 0, 75, 0
2, 37936, Note_on_c, 0, 63, 0
2, 37973, Note_on_c, 0, 75, 80
2, 37974, Note_on_c, 0, 63, 80
2, 38016, Note_on_c, 0, 63, 0
2, 38016, Note_on_c, 0, 75, 0
2, 38038, Note_on_c, 0, 87, 80
2, 38039, Note_on_c, 0, 67, 80
2, 38039, Note_on_c, 0, 70, 80
2, 38039, Note_on_c, 0, 75, 80
2, 38040, Note_on_c, 0, 63, 80
2, 38056, Note_on_c, 0, 70, 0
2, 38056, Note_on_c, 0, 67, 0
2, 38062, Note_on_c, 0, 87, 0
2, 38063, Note_on_c, 0, 75, 0
2, 38064, Note_on_c, 0, 63, 0
2, 38101, Note_on_c, 0, 75, 80
2, 38104, Note_on_c, 0, 63, 80
2, 38145, Note_on_c, 0, 63, 0
2, 38145, Note_on_c, 0, 75, 0
2, 38145, Note_on_c, 0, 58, 0
2, 38164, Note_on_c, 0, 75, 80
2, 38164, Note_on_c, 0, 87, 80
2, 38167, Note_on_c, 0, 55, 80
2, 38167, Note_on_c, 0, 63, 80
2, 38183, Note_on_c, 0, 87, 0
2, 38184, Note_on_c, 0, 75, 0
2, 38184, Note_on_c, 0, 63, 0
2, 38231, Note_on_c, 0, 75, 80
2, 38233, Note_on_c, 0, 63, 80
2, 38274, Note_on_c, 0, 63, 0
2, 38274, Note_on_c, 0, 75, 0
2, 38295, Note_on_c, 0, 70, 80
2, 38295, Note_on_c, 0, 75, 80
2, 38295, Note_on_c, 0, 87, 80
2, 38296, Note_on_c, 0, 63, 80
2, 38296, Note_on_c, 0, 67, 80
2, 38318, Note_on_c, 0, 87, 0
2, 38319, Note_on_c, 0, 70, 0
2, 38319, Note_on_c, 0, 75, 0
2, 38319, Note_on_c, 0, 67, 0
2, 38320, Note_on_c, 0, 63, 0
2, 38359, Note_on_c, 0, 58, 80
2, 38400, Note_on_c, 0, 55, 0
2, 38416, Note_on_c, 0, 58, 0
2, 38423, Note_on_c, 0, 48, 80
2, 38423, Note_on_c, 0, 57, 80
2, 38423, Note_on_c, 0, 63, 80
2, 38528, Note_on_c, 0, 57, 0
2, 38529, Note_on_c, 0, 48, 0
2, 38550, Note_on_c, 0, 56, 80
2, 38551, Note_on_c, 0, 47, 80
2, 38640, Note_on_c, 0, 56, 0
2, 38667, Note_on_c, 0, 47, 0
2, 38680, Note_on_c, 0, 62, 80
2, 38680, Note_on_c, 0, 65, 80
2, 38681, Note_on_c, 0, 46, 80
2, 38681, Note_on_c, 0, 56, 80
2, 38715, Note_on_c, 0, 63, 0
2, 38744, Note_on_c, 0, 67, 80
2, 38756, Note_on_c, 0, 65, 0
2, 38790, Note_on_c, 0, 46, 0
2, 38797, Note_on_c, 0, 62, 0
2, 38797, Note_on_c, 0, 56, 0
2, 38813, Note_on_c, 0, 34, 80
2, 38857, Note_on_c, 0, 34, 0
2, 38871, Note_on_c, 0, 67, 0
2, 38878, Note_on_c, 0, 55, 80
2, 38878, Note_on_c, 0, 63, 80
2, 38942, Note_on_c, 0, 51, 80
2, 38943, Note_on_c, 0, 39, 80
2, 38944, Control_c, 0, 64, 127
2, 38976, Note_on_c, 0, 63, 0
2, 38976, Note_on_c, 0, 55, 0
2, 39072, Note_on_c, 0, 82, 80
2, 39072, Note_on_c, 0, 70, 80
2, 39092, Control_c, 0, 64, 0
2, 39131, Note_on_c, 0, 51, 0
2, 39131, Note_on_c, 0, 39, 0
2, 39135, Note_on_c, 0, 69, 80
2, 39147, Note_on_c, 0, 70, 0
2, 39163, Note_on_c, 0, 82, 0
2, 39190, Note_on_c, 0, 69, 0
2, 39203, Note_on_c, 0, 70, 80
2, 39203, Note_on_c, 0, 82, 80
2, 39262, Note_on_c, 0, 70, 0
2, 39267, Note_on_c, 0, 71, 80
2, 39317, Note_on_c, 0, 71, 0
2, 39317, Note_on_c, 0, 82, 0
2, 39330, Note_on_c, 0, 84, 80
2, 39331, Note_on_c, 0, 72, 80
2, 39332, Note_on_c, 0, 40, 80
2, 39341, Note_on_c, 0, 52, 80
2, 39365, Note_on_c, 0, 52, 0
2, 39366, Note_on_c, 0, 40, 0
2, 39388, Note_on_c, 0, 72, 0
2, 39395, Note_on_c, 0, 73, 80
2, 39445, Note_on_c, 0, 73, 0
2, 39458, Note_on_c, 0, 74, 80
2, 39459, Note_on_c, 0, 53, 80
2, 39460, Note_on_c, 0, 41, 80
2, 39469, Note_on_c, 0, 84, 0
2, 39494, Note_on_c, 0, 53, 0
2, 39495, Note_on_c, 0, 41, 0
2, 39520, Note_on_c, 0, 74, 0
2, 39523, Note_on_c, 0, 77, 80
2, 39523, Note_on_c, 0, 80, 80
2, 39523, Note_on_c, 0, 82, 80
2, 39523, Note_on_c, 0, 86, 80
2, 39585, Note_on_c, 0, 62, 80
2, 39585, Note_on_c, 0, 74, 80
2, 39586, Note_on_c, 0, 56, 80
2, 39586, Note_on_c, 0, 58, 80
2, 39611, Note_on_c, 0, 74, 0
2, 39611, Note_on_c, 0, 86, 0
2, 39611, Note_on_c, 0, 77, 0
2, 39611, Note_on_c, 0, 80, 0
2, 39611, Note_on_c, 0, 82, 0
2, 39611, Note_on_c, 0, 62, 0
2, 39612, Note_on_c, 0, 58, 0
2, 39612, Note_on_c, 0, 56, 0
2, 39651, Note_on_c, 0, 72, 80
2, 39685, Note_on_c, 0, 72, 0
2, 39717, Note_on_c, 0, 46, 80
2, 39717, Note_on_c, 0, 72, 80
2, 39717, Note_on_c, 0, 77, 80
2, 39717, Note_on_c, 0, 80, 80
2, 39717, Note_on_c, 0, 84, 80
2, 39742, Note_on_c, 0, 84, 0
2, 39742, Note_on_c, 0, 77, 0
2, 39742, Note_on_c, 0, 80, 0
2, 39742, Note_on_c, 0, 72, 0
2, 39750, Note_on_c, 0, 46, 0
2, 39847, Note_on_c, 0, 56, 80
2, 39847, Note_on_c, 0, 58, 80
2, 39847, Note_on_c, 0, 62, 80
2, 39847, Note_on_c, 0, 74, 80
2, 39874, Note_on_c, 0, 62, 0
2, 39874, Note_on_c, 0, 56, 0
2, 39874, Note_on_c, 0, 58, 0
2, 39914, Note_on_c, 0, 77, 80
2, 39914, Note_on_c, 0, 80, 80
2, 39914, Note_on_c, 0, 82, 80
2, 39914, Note_on_c, 0, 86, 80
2, 39933, Note_on_c, 0, 74, 0
2, 39964, Note_on_c, 0, 82, 0
2, 39964, Note_on_c, 0, 77, 0
2, 39964, Note_on_c, 0, 80, 0
2, 39964, Note_on_c, 0, 86, 0
2, 39978, Note_on_c, 0, 53, 80
2, 39978, Note_on_c, 0, 74, 80
2, 40012, Note_on_c, 0, 74, 0
2, 40013, Note_on_c, 0, 53, 0
2, 40042, Note_on_c, 0, 72, 80
2, 40077, Note_on_c, 0, 72, 0
2, 40105, Note_on_c, 0, 72, 80
2, 40106, Note_on_c, 0, 34, 80
2, 40106, Note_on_c, 0, 50, 80
2, 40106, Note_on_c, 0, 77, 80
2, 40106, Note_on_c, 0, 80, 80
2, 40106, Note_on_c, 0, 84, 80
2, 40140, Note_on_c, 0, 84, 0
2, 40140, Note_on_c, 0, 72, 0
2, 40140, Note_on_c, 0, 50, 0
2, 40140, Note_on_c, 0, 77, 0
2, 40140, Note_on_c, 0, 80, 0
2, 40141, Note_on_c, 0, 34, 0
2, 40234, Note_on_c, 0, 74, 80
2, 40235, Note_on_c, 0, 36, 80
2, 40235, Note_on_c, 0, 51, 80
2, 40235, Note_on_c, 0, 77, 80
2, 40235, Note_on_c, 0, 80, 80
2, 40235, Note_on_c, 0, 82, 80
2, 40235, Note_on_c, 0, 86, 80
2, 40267, Note_on_c, 0, 86, 0
2, 40267, Note_on_c, 0, 77, 0
2, 40267, Note_on_c, 0, 74, 0
2, 40267, Note_on_c, 0, 80, 0
2, 40268, Note_on_c, 0, 36, 0
2, 40268, Note_on_c, 0, 82, 0
2, 40268, Note_on_c, 0, 51, 0
2, 40360, Note_on_c, 0, 56, 80
2, 40360, Note_on_c, 0, 58, 80
2, 40360, Note_on_c, 0, 62, 80
2, 40360, Note_on_c, 0, 72, 80
2, 40360, Note_on_c, 0, 77, 80
2, 40360, Note_on_c, 0, 84, 80
2, 40361, Note_on_c, 0, 80, 80
2, 40376, Note_on_c, 0, 62, 0
2, 40376, Note_on_c, 0, 56, 0
2, 40376, Note_on_c, 0, 58, 0
2, 40408, Note_on_c, 0, 77, 0
2, 40408, Note_on_c, 0, 72, 0
2, 40408, Note_on_c, 0, 84, 0
2, 40408, Note_on_c, 0, 80, 0
2, 40454, Note_on_c, 0, 34, 80
2, 40488, Note_on_c, 0, 34, 0
2, 40488, Note_on_c, 0, 39, 80
2, 40488, Note_on_c, 0, 72, 80
2, 40523, Note_on_c, 0, 39, 0
2, 40554, Note_on_c, 0, 75, 80
2, 40554, Note_on_c, 0, 79, 80
2, 40554, Note_on_c, 0, 84, 80
2, 40563, Note_on_c, 0, 72, 0
2, 40619, Note_on_c, 0, 55, 80
2, 40619, Note_on_c, 0, 58, 80
2, 40619, Note_on_c, 0, 72, 80
2, 40631, Note_on_c, 0, 75, 0
2, 40631, Note_on_c, 0, 84, 0
2, 40631, Note_on_c, 0, 79, 0
2, 40647, Note_on_c, 0, 55, 0
2, 40647, Note_on_c, 0, 58, 0
2, 40656, Note_on_c, 0, 72, 0
2, 40686, Note_on_c, 0, 70, 80
2, 40726, Note_on_c, 0, 70, 0
2, 40754, Note_on_c, 0, 46, 80
2, 40754, Note_on_c, 0, 70, 80
2, 40754, Note_on_c, 0, 75, 80
2, 40754, Note_on_c, 0, 79, 80
2, 40754, Note_on_c, 0, 82, 80
2, 40788, Note_on_c, 0, 82, 0
2, 40788, Note_on_c, 0, 70, 0
2, 40788, Note_on_c, 0, 46, 0
2, 40788, Note_on_c, 0, 79, 0
2, 40789, Note_on_c, 0, 75, 0
2, 40886, Note_on_c, 0, 55, 80
2, 40886, Note_on_c, 0, 58, 80
2, 40886, Note_on_c, 0, 63, 80
2, 40886, Note_on_c, 0, 67, 80
2, 40886, Note_on_c, 0, 72, 80
2, 40911, Note_on_c, 0, 72, 0
2, 40911, Note_on_c, 0, 58, 0
2, 40911, Note_on_c, 0, 55, 0
2, 40911, Note_on_c, 0, 67, 0
2, 40912, Note_on_c, 0, 63, 0
2, 40951, Note_on_c, 0, 75, 80
2, 40951, Note_on_c, 0, 79, 80
2, 40951, Note_on_c, 0, 84, 80
2, 41014, Note_on_c, 0, 46, 80
2, 41015, Note_on_c, 0, 72, 80
2, 41024, Note_on_c, 0, 84, 0
2, 41024, Note_on_c, 0, 75, 0
2, 41024, Note_on_c, 0, 79, 0
2, 41046, Note_on_c, 0, 46, 0
2, 41047, Note_on_c, 0, 72, 0
2, 41075, Note_on_c, 0, 70, 80
2, 41110, Note_on_c, 0, 70, 0
2, 41141, Note_on_c, 0, 55, 80
2, 41141, Note_on_c, 0, 58, 80
2, 41141, Note_on_c, 0, 67, 80
2, 41141, Note_on_c, 0, 70, 80
2, 41141, Note_on_c, 0, 75, 80
2, 41141, Note_on_c, 0, 79, 80
2, 41141, Note_on_c, 0, 82, 80
2, 41166, Note_on_c, 0, 67, 0
2, 41166, Note_on_c, 0, 55, 0
2, 41166, Note_on_c, 0, 58, 0
2, 41200, Note_on_c, 0, 82, 0
2, 41207, Note_on_c, 0, 70, 0
2, 41208, Note_on_c, 0, 79, 0
2, 41208, Note_on_c, 0, 75, 0
2, 41269, Note_on_c, 0, 39, 80
2, 41270, Note_on_c, 0, 51, 80
2, 41270, Note_on_c, 0, 72, 80
2, 41270, Note_on_c, 0, 75, 80
2, 41270, Note_on_c, 0, 79, 80
2, 41270, Note_on_c, 0, 84, 80
2, 41301, Control_c, 0, 64, 127
2, 41304, Note_on_c, 0, 51, 0
2, 41304, Note_on_c, 0, 39, 0
2, 41305, Note_on_c, 0, 79, 0
2, 41305, Note_on_c, 0, 75, 0
2, 41305, Note_on_c, 0, 84, 0
2, 41305, Note_on_c, 0, 72, 0
2, 41385, Control_c, 0, 64, 0
2, 41400, Note_on_c, 0, 70, 80
2, 41401, Note_on_c, 0, 40, 80
2, 41401, Note_on_c, 0, 73, 80
2, 41401, Note_on_c, 0, 79, 80
2, 41401, Note_on_c, 0, 82, 80
2, 41408, Note_on_c, 0, 52, 80
2, 41427, Note_on_c, 0, 82, 0
2, 41433, Note_on_c, 0, 40, 0
2, 41434, Note_on_c, 0, 79, 0
2, 41434, Note_on_c, 0, 70, 0
2, 41434, Note_on_c, 0, 52, 0
2, 41434, Note_on_c, 0, 73, 0
2, 41530, Note_on_c, 0, 41, 80
2, 41531, Note_on_c, 0, 53, 80
2, 41531, Note_on_c, 0, 70, 80
2, 41555, Note_on_c, 0, 41, 0
2, 41556, Note_on_c, 0, 53, 0
2, 41595, Note_on_c, 0, 74, 80
2, 41595, Note_on_c, 0, 77, 80
2, 41595, Note_on_c, 0, 82, 80
2, 41596, Note_on_c, 0, 70, 0
2, 41655, Note_on_c, 0, 56, 80
2, 41656, Note_on_c, 0, 58, 80
2, 41656, Note_on_c, 0, 70, 80
2, 41665, Note_on_c, 0, 74, 0
2, 41665, Note_on_c, 0, 77, 0
2, 41666, Note_on_c, 0, 82, 0
2, 41682, Note_on_c, 0, 56, 0
2, 41682, Note_on_c, 0, 58, 0
2, 41691, Note_on_c, 0, 70, 0
2, 41720, Note_on_c, 0, 68, 80
2, 41757, Note_on_c, 0, 68, 0
2, 41784, Note_on_c, 0, 34, 80
2, 41784, Note_on_c, 0, 46, 80
2, 41784, Note_on_c, 0, 68, 80
2, 41784, Note_on_c, 0, 72, 80
2, 41784, Note_on_c, 0, 74, 80
2, 41784, Note_on_c, 0, 77, 80
2, 41784, Note_on_c, 0, 80, 80
2, 41807, Note_on_c, 0, 34, 0
2, 41808, Note_on_c, 0, 46, 0
2, 41816, Note_on_c, 0, 72, 0
2, 41816, Note_on_c, 0, 68, 0
2, 41817, Note_on_c, 0, 80, 0
2, 41817, Note_on_c, 0, 74, 0
2, 41817, Note_on_c, 0, 77, 0
2, 41913, Note_on_c, 0, 56, 80
2, 41913, Note_on_c, 0, 58, 80
2, 41913, Note_on_c, 0, 67, 80
2, 41941, Note_on_c, 0, 58, 0
2, 41941, Note_on_c, 0, 56, 0
2, 41951, Note_on_c, 0, 67, 0
2, 41981, Note_on_c, 0, 67, 80
2, 41981, Note_on_c, 0, 70, 80
2, 41981, Note_on_c, 0, 74, 80
2, 41981, Note_on_c, 0, 79, 80
2, 42043, Note_on_c, 0, 41, 80
2, 42044, Note_on_c, 0, 56, 80
2, 42075, Note_on_c, 0, 56, 0
2, 42075, Note_on_c, 0, 41, 0
2, 42076, Note_on_c, 0, 74, 0
2, 42076, Note_on_c, 0, 67, 0
2, 42076, Note_on_c, 0, 70, 0
2, 42076, Note_on_c, 0, 79, 0
2, 42107, Note_on_c, 0, 68, 80
2, 42134, Note_on_c, 0, 68, 0
2, 42173, Note_on_c, 0, 56, 80
2, 42173, Note_on_c, 0, 58, 80
2, 42173, Note_on_c, 0, 62, 80
2, 42173, Note_on_c, 0, 68, 80
2, 42173, Note_on_c, 0, 72, 80
2, 42174, Note_on_c, 0, 74, 80
2, 42174, Note_on_c, 0, 77, 80
2, 42174, Note_on_c, 0, 80, 80
2, 42198, Note_on_c, 0, 62, 0
2, 42198, Note_on_c, 0, 56, 0
2, 42198, Note_on_c, 0, 58, 0
2, 42205, Note_on_c, 0, 68, 0
2, 42206, Note_on_c, 0, 72, 0
2, 42206, Note_on_c, 0, 80, 0
2, 42206, Note_on_c, 0, 77, 0
2, 42206, Note_on_c, 0, 74, 0
2, 42298, Note_on_c, 0, 34, 80
2, 42298, Note_on_c, 0, 46, 80
2, 42299, Note_on_c, 0, 67, 80
2, 42299, Note_on_c, 0, 70, 80
2, 42299, Note_on_c, 0, 74, 80
2, 42299, Note_on_c, 0, 79, 80
2, 42330, Note_on_c, 0, 34, 0
2, 42333, Note_on_c, 0, 46, 0
2, 42349, Note_on_c, 0, 74, 0
2, 42349, Note_on_c, 0, 70, 0
2, 42349, Note_on_c, 0, 79, 0
2, 42349, Note_on_c, 0, 67, 0
2, 42430, Note_on_c, 0, 38, 80
2, 42431, Note_on_c, 0, 65, 80
2, 42431, Note_on_c, 0, 68, 80
2, 42432, Note_on_c, 0, 74, 80
2, 42432, Note_on_c, 0, 77, 80
2, 42465, Note_on_c, 0, 38, 0
2, 42466, Note_on_c, 0, 74, 0
2, 42466, Note_on_c, 0, 65, 0
2, 42466, Note_on_c, 0, 68, 0
2, 42466, Note_on_c, 0, 77, 0
2, 42563, Note_on_c, 0, 39, 80
2, 42566, Note_on_c, 0, 65, 80
2, 42600, Note_on_c, 0, 65, 0
2, 42607, Note_on_c, 0, 39, 0
2, 42632, Note_on_c, 0, 65, 80
2, 42632, Note_on_c, 0, 67, 80
2, 42633, Note_on_c, 0, 70, 80
2, 42633, Note_on_c, 0, 77, 80
2, 42667, Note_on_c, 0, 65, 0
2, 42697, Note_on_c, 0, 46, 80
2, 42697, Note_on_c, 0, 65, 80
2, 42724, Note_on_c, 0, 65, 0
2, 42725, Note_on_c, 0, 77, 0
2, 42725, Note_on_c, 0, 67, 0
2, 42725, Note_on_c, 0, 70, 0
2, 42732, Note_on_c, 0, 46, 0
2, 42763, Note_on_c, 0, 63, 80
2, 42791, Note_on_c, 0, 63, 0
2, 42827, Note_on_c, 0, 43, 80
2, 42827, Note_on_c, 0, 51, 80
2, 42828, Note_on_c, 0, 63, 80
2, 42828, Note_on_c, 0, 67, 80
2, 42828, Note_on_c, 0, 70, 80
2, 42828, Note_on_c, 0, 75, 80
2, 42859, Note_on_c, 0, 51, 0
2, 42860, Note_on_c, 0, 70, 0
2, 42860, Note_on_c, 0, 67, 0
2, 42860, Note_on_c, 0, 63, 0
2, 42861, Note_on_c, 0, 75, 0
2, 42866, Note_on_c, 0, 43, 0
2, 42953, Note_on_c, 0, 42, 80
2, 42953, Note_on_c, 0, 51, 80
2, 42953, Note_on_c, 0, 57, 80
2, 42953, Note_on_c, 0, 72, 80
2, 42954, Note_on_c, 0, 75, 80
2, 42954, Note_on_c, 0, 78, 80
2, 42954, Note_on_c, 0, 84, 80
2, 42983, Note_on_c, 0, 42, 0
2, 42984, Note_on_c, 0, 78, 0
2, 42984, Note_on_c, 0, 57, 0
2, 42984, Note_on_c, 0, 72, 0
2, 42984, Note_on_c, 0, 51, 0
2, 42984, Note_on_c, 0, 84, 0
2, 42984, Note_on_c, 0, 75, 0
2, 43047, Note_on_c, 0, 43, 80
2, 43079, Note_on_c, 0, 51, 80
2, 43080, Note_on_c, 0, 58, 80
2, 43080, Note_on_c, 0, 70, 80
2, 43080, Note_on_c, 0, 79, 80
2, 43080, Note_on_c, 0, 75, 80
2, 43080, Note_on_c, 0, 82, 80
2, 43094, Note_on_c, 0, 43, 0
2, 43100, Control_c, 0, 64, 127
2, 43168, Note_on_c, 0, 51, 0
2, 43168, Note_on_c, 0, 58, 0
2, 43169, Note_on_c, 0, 79, 0
2, 43169, Note_on_c, 0, 70, 0
2, 43169, Note_on_c, 0, 75, 0
2, 43169, Note_on_c, 0, 82, 0
2, 43198, Control_c, 0, 64, 0
2, 43206, Note_on_c, 0, 70, 80
2, 43206, Note_on_c, 0, 82, 80
2, 43275, Note_on_c, 0, 70, 0
2, 43275, Note_on_c, 0, 69, 80
2, 43312, Note_on_c, 0, 82, 0
2, 43337, Note_on_c, 0, 69, 0
2, 43343, Note_on_c, 0, 70, 80
2, 43343, Note_on_c, 0, 82, 80
2, 43408, Note_on_c, 0, 71, 80
2, 43419, Note_on_c, 0, 70, 0
2, 43460, Note_on_c, 0, 82, 0
2, 43471, Note_on_c, 0, 40, 80
2, 43472, Note_on_c, 0, 49, 80
2, 43472, Note_on_c, 0, 55, 80
2, 43473, Note_on_c, 0, 72, 80
2, 43473, Note_on_c, 0, 84, 80
2, 43474, Note_on_c, 0, 71, 0
2, 43503, Note_on_c, 0, 55, 0
2, 43503, Note_on_c, 0, 40, 0
2, 43503, Note_on_c, 0, 49, 0
2, 43528, Note_on_c, 0, 72, 0
2, 43534, Note_on_c, 0, 73, 80
2, 43590, Note_on_c, 0, 73, 0
2, 43594, Note_on_c, 0, 41, 80
2, 43594, Note_on_c, 0, 53, 80
2, 43594, Note_on_c, 0, 74, 80
2, 43598, Note_on_c, 0, 84, 0
2, 43626, Note_on_c, 0, 41, 0
2, 43626, Note_on_c, 0, 53, 0
2, 43653, Note_on_c, 0, 74, 0
2, 43658, Note_on_c, 0, 77, 80
2, 43658, Note_on_c, 0, 80, 80
2, 43658, Note_on_c, 0, 82, 80
2, 43658, Note_on_c, 0, 86, 80
2, 43721, Note_on_c, 0, 56, 80
2, 43721, Note_on_c, 0, 58, 80
2, 43721, Note_on_c, 0, 62, 80
2, 43721, Note_on_c, 0, 74, 80
2, 43745, Note_on_c, 0, 56, 0
2, 43746, Note_on_c, 0, 74, 0
2, 43746, Note_on_c, 0, 58, 0
2, 43746, Note_on_c, 0, 62, 0
2, 43747, Note_on_c, 0, 82, 0
2, 43747, Note_on_c, 0, 86, 0
2, 43747, Note_on_c, 0, 80, 0
2, 43747, Note_on_c, 0, 77, 0
2, 43786, Note_on_c, 0, 72, 80
2, 43821, Note_on_c, 0, 72, 0
2, 43848, Note_on_c, 0, 46, 80
2, 43851, Note_on_c, 0, 72, 80
2, 43851, Note_on_c, 0, 77, 80
2, 43851, Note_on_c, 0, 80, 80
2, 43851, Note_on_c, 0, 84, 80
2, 43876, Note_on_c, 0, 84, 0
2, 43876, Note_on_c, 0, 77, 0
2, 43876, Note_on_c, 0, 80, 0
2, 43876, Note_on_c, 0, 72, 0
2, 43885, Note_on_c, 0, 46, 0
2, 43982, Note_on_c, 0, 56, 80
2, 43982, Note_on_c, 0, 58, 80
2, 43982, Note_on_c, 0, 62, 80
2, 43982, Note_on_c, 0, 74, 80
2, 44007, Note_on_c, 0, 62, 0
2, 44007, Note_on_c, 0, 56, 0
2, 44007, Note_on_c, 0, 58, 0
2, 44047, Note_on_c, 0, 77, 80
2, 44047, Note_on_c, 0, 80, 80
2, 44047, Note_on_c, 0, 82, 80
2, 44048, Note_on_c, 0, 86, 80
2, 44064, Note_on_c, 0, 74, 0
2, 44095, Note_on_c, 0, 82, 0
2, 44095, Note_on_c, 0, 77, 0
2, 44095, Note_on_c, 0, 80, 0
2, 44095, Note_on_c, 0, 86, 0
2, 44108, Note_on_c, 0, 53, 80
2, 44109, Note_on_c, 0, 74, 80
2, 44140, Note_on_c, 0, 53, 0
2, 44141, Note_on_c, 0, 74, 0
2, 44170, Note_on_c, 0, 72, 80
2, 44205, Note_on_c, 0, 72, 0
2, 44232, Note_on_c, 0, 34, 80
2, 44235, Note_on_c, 0, 50, 80
2, 44235, Note_on_c, 0, 72, 80
2, 44235, Note_on_c, 0, 77, 80
2, 44235, Note_on_c, 0, 80, 80
2, 44235, Note_on_c, 0, 84, 80
2, 44267, Note_on_c, 0, 50, 0
2, 44267, Note_on_c, 0, 34, 0
2, 44268, Note_on_c, 0, 80, 0
2, 44268, Note_on_c, 0, 77, 0
2, 44268, Note_on_c, 0, 72, 0
2, 44269, Note_on_c, 0, 84, 0
2, 44365, Note_on_c, 0, 36, 80
2, 44365, Note_on_c, 0, 51, 80
2, 44366, Note_on_c, 0, 74, 80
2, 44366, Note_on_c, 0, 77, 80
2, 44366, Note_on_c, 0, 80, 80
2, 44366, Note_on_c, 0, 82, 80
2, 44366, Note_on_c, 0, 86, 80
2, 44400, Note_on_c, 0, 86, 0
2, 44400, Note_on_c, 0, 80, 0
2, 44400, Note_on_c, 0, 51, 0
2, 44400, Note_on_c, 0, 74, 0
2, 44400, Note_on_c, 0, 36, 0
2, 44400, Note_on_c, 0, 82, 0
2, 44400, Note_on_c, 0, 77, 0
2, 44502, Note_on_c, 0, 56, 80
2, 44502, Note_on_c, 0, 58, 80
2, 44502, Note_on_c, 0, 62, 80
2, 44502, Note_on_c, 0, 72, 80
2, 44503, Note_on_c, 0, 77, 80
2, 44503, Note_on_c, 0, 80, 80
2, 44503, Note_on_c, 0, 84, 80
2, 44521, Note_on_c, 0, 56, 0
2, 44530, Note_on_c, 0, 58, 0
2, 44530, Note_on_c, 0, 62, 0
2, 44555, Note_on_c, 0, 77, 0
2, 44555, Note_on_c, 0, 72, 0
2, 44555, Note_on_c, 0, 80, 0
2, 44555, Note_on_c, 0, 84, 0
2, 44599, Note_on_c, 0, 34, 80
2, 44630, Note_on_c, 0, 39, 80
2, 44631, Note_on_c, 0, 72, 80
2, 44632, Note_on_c, 0, 34, 0
2, 44665, Note_on_c, 0, 39, 0
2, 44697, Note_on_c, 0, 75, 80
2, 44697, Note_on_c, 0, 79, 80
2, 44697, Note_on_c, 0, 84, 80
2, 44707, Note_on_c, 0, 72, 0
2, 44760, Note_on_c, 0, 55, 80
2, 44760, Note_on_c, 0, 72, 80
2, 44760, Note_on_c, 0, 58, 80
2, 44770, Note_on_c, 0, 75, 0
2, 44770, Note_on_c, 0, 84, 0
2, 44770, Note_on_c, 0, 79, 0
2, 44784, Note_on_c, 0, 55, 0
2, 44784, Note_on_c, 0, 58, 0
2, 44792, Note_on_c, 0, 72, 0
2, 44823, Note_on_c, 0, 70, 80
2, 44857, Note_on_c, 0, 70, 0
2, 44885, Note_on_c, 0, 46, 80
2, 44886, Note_on_c, 0, 70, 80
2, 44886, Note_on_c, 0, 75, 80
2, 44886, Note_on_c, 0, 79, 80
2, 44886, Note_on_c, 0, 82, 80
2, 44918, Note_on_c, 0, 79, 0
2, 44918, Note_on_c, 0, 75, 0
2, 44918, Note_on_c, 0, 46, 0
2, 44918, Note_on_c, 0, 70, 0
2, 44919, Note_on_c, 0, 82, 0
2, 45014, Note_on_c, 0, 55, 80
2, 45014, Note_on_c, 0, 58, 80
2, 45014, Note_on_c, 0, 63, 80
2, 45014, Note_on_c, 0, 67, 80
2, 45014, Note_on_c, 0, 72, 80
2, 45041, Note_on_c, 0, 72, 0
2, 45041, Note_on_c, 0, 63, 0
2, 45041, Note_on_c, 0, 55, 0
2, 45041, Note_on_c, 0, 58, 0
2, 45041, Note_on_c, 0, 67, 0
2, 45080, Note_on_c, 0, 75, 80
2, 45080, Note_on_c, 0, 79, 80
2, 45080, Note_on_c, 0, 84, 80
2, 45145, Note_on_c, 0, 46, 80
2, 45146, Note_on_c, 0, 72, 80
2, 45156, Note_on_c, 0, 84, 0
2, 45156, Note_on_c, 0, 75, 0
2, 45156, Note_on_c, 0, 79, 0
2, 45180, Note_on_c, 0, 46, 0
2, 45180, Note_on_c, 0, 72, 0
2, 45212, Note_on_c, 0, 70, 80
2, 45246, Note_on_c, 0, 70, 0
2, 45277, Note_on_c, 0, 55, 80
2, 45277, Note_on_c, 0, 58, 80
2, 45277, Note_on_c, 0, 67, 80
2, 45277, Note_on_c, 0, 70, 80
2, 45277, Note_on_c, 0, 75, 80
2, 45277, Note_on_c, 0, 79, 80
2, 45277, Note_on_c, 0, 82, 80
2, 45302, Note_on_c, 0, 67, 0
2, 45302, Note_on_c, 0, 55, 0
2, 45302, Note_on_c, 0, 58, 0
2, 45333, Note_on_c, 0, 82, 0
2, 45339, Note_on_c, 0, 70, 0
2, 45339, Note_on_c, 0, 79, 0
2, 45339, Note_on_c, 0, 75, 0
2, 45404, Note_on_c, 0, 39, 80
2, 45404, Note_on_c, 0, 51, 80
2, 45404, Note_on_c, 0, 72, 80
2, 45404, Note_on_c, 0, 75, 80
2, 45404, Note_on_c, 0, 79, 80
2, 45404, Note_on_c, 0, 84, 80
2, 45434, Note_on_c, 0, 84, 0
2, 45434, Note_on_c, 0, 79, 0
2, 45435, Note_on_c, 0, 72, 0
2, 45435, Note_on_c, 0, 39, 0
2, 45435, Note_on_c, 0, 51, 0
2, 45435, Note_on_c, 0, 75, 0
2, 45435, Control_c, 0, 64, 127
2, 45516, Control_c, 0, 64, 0
2, 45528, Note_on_c, 0, 70, 80
2, 45528, Note_on_c, 0, 40, 80
2, 45528, Note_on_c, 0, 73, 80
2, 45528, Note_on_c, 0, 79, 80
2, 45528, Note_on_c, 0, 82, 80
2, 45535, Note_on_c, 0, 52, 80
2, 45552, Note_on_c, 0, 82, 0
2, 45561, Note_on_c, 0, 70, 0
2, 45561, Note_on_c, 0, 73, 0
2, 45561, Note_on_c, 0, 79, 0
2, 45561, Note_on_c, 0, 52, 0
2, 45562, Note_on_c, 0, 40, 0
2, 45654, Note_on_c, 0, 71, 80
2, 45654, Note_on_c, 0, 75, 80
2, 45654, Note_on_c, 0, 80, 80
2, 45655, Note_on_c, 0, 44, 80
2, 45664, Note_on_c, 0, 83, 80
2, 45680, Note_on_c, 0, 83, 0
2, 45680, Note_on_c, 0, 80, 0
2, 45680, Note_on_c, 0, 71, 0
2, 45681, Note_on_c, 0, 75, 0
2, 45716, Note_on_c, 0, 80, 80
2, 45716, Note_on_c, 0, 83, 80
2, 45719, Note_on_c, 0, 71, 80
2, 45719, Note_on_c, 0, 75, 80
2, 45781, Note_on_c, 0, 47, 80
2, 45806, Note_on_c, 0, 75, 0
2, 45806, Note_on_c, 0, 83, 0
2, 45815, Note_on_c, 0, 80, 0
2, 45816, Note_on_c, 0, 44, 0
2, 45822, Note_on_c, 0, 71, 0
2, 45844, Note_on_c, 0, 75, 80
2, 45844, Note_on_c, 0, 80, 80
2, 45844, Note_on_c, 0, 83, 80
2, 45844, Note_on_c, 0, 87, 80
2, 45881, Note_on_c, 0, 87, 0
2, 45881, Note_on_c, 0, 80, 0
2, 45881, Note_on_c, 0, 83, 0
2, 45881, Note_on_c, 0, 75, 0
2, 45912, Note_on_c, 0, 75, 80
2, 45912, Note_on_c, 0, 80, 80
2, 45912, Note_on_c, 0, 83, 80
2, 45912, Note_on_c, 0, 87, 80
2, 45913, Note_on_c, 0, 51, 80
2, 45941, Note_on_c, 0, 47, 0
2, 45965, Control_c, 0, 64, 127
2, 45979, Note_on_c, 0, 87, 0
2, 45980, Note_on_c, 0, 83, 0
2, 45980, Note_on_c, 0, 75, 0
2, 45980, Note_on_c, 0, 80, 0
2, 46041, Control_c, 0, 64, 0
2, 46044, Note_on_c, 0, 56, 80
2, 46044, Note_on_c, 0, 71, 80
2, 46044, Note_on_c, 0, 75, 80
2, 46044, Note_on_c, 0, 80, 80
2, 46044, Note_on_c, 0, 83, 80
2, 46056, Note_on_c, 0, 51, 0
2, 46084, Note_on_c, 0, 71, 0
2, 46084, Note_on_c, 0, 75, 0
2, 46084, Note_on_c, 0, 80, 0
2, 46084, Note_on_c, 0, 83, 0
2, 46175, Note_on_c, 0, 82, 80
2, 46177, Note_on_c, 0, 55, 80
2, 46177, Note_on_c, 0, 70, 80
2, 46177, Note_on_c, 0, 75, 80
2, 46181, Note_on_c, 0, 56, 0
2, 46202, Note_on_c, 0, 82, 0
2, 46203, Note_on_c, 0, 70, 0
2, 46203, Note_on_c, 0, 75, 0
2, 46243, Note_on_c, 0, 70, 80
2, 46243, Note_on_c, 0, 75, 80
2, 46243, Note_on_c, 0, 82, 80
2, 46308, Note_on_c, 0, 58, 80
2, 46308, Note_on_c, 0, 63, 80
2, 46318, Note_on_c, 0, 70, 0
2, 46324, Note_on_c, 0, 82, 0
2, 46325, Note_on_c, 0, 75, 0
2, 46334, Note_on_c, 0, 63, 0
2, 46334, Note_on_c, 0, 58, 0
2, 46371, Note_on_c, 0, 75, 80
2, 46371, Note_on_c, 0, 81, 80
2, 46372, Note_on_c, 0, 69, 80
2, 46397, Note_on_c, 0, 81, 0
2, 46398, Note_on_c, 0, 69, 0
2, 46398, Note_on_c, 0, 75, 0
2, 46399, Note_on_c, 0, 55, 0
2, 46434, Note_on_c, 0, 81, 80
2, 46435, Note_on_c, 0, 75, 80
2, 46436, Note_on_c, 0, 54, 80
2, 46436, Note_on_c, 0, 60, 80
2, 46436, Note_on_c, 0, 63, 80
2, 46436, Note_on_c, 0, 69, 80
2, 46466, Note_on_c, 0, 81, 0
2, 46467, Note_on_c, 0, 63, 0
2, 46467, Note_on_c, 0, 60, 0
2, 46467, Note_on_c, 0, 75, 0
2, 46467, Note_on_c, 0, 69, 0
2, 46477, Control_c, 0, 64, 127
2, 46551, Note_on_c, 0, 54, 0
2, 46554, Control_c, 0, 64, 0
2, 46563, Note_on_c, 0, 75, 80
2, 46563, Note_on_c, 0, 82, 80
2, 46564, Note_on_c, 0, 55, 80
2, 46564, Note_on_c, 0, 58, 80
2, 46564, Note_on_c, 0, 63, 80
2, 46564, Note_on_c, 0, 70, 80
2, 46611, Note_on_c, 0, 82, 0
2, 46612, Note_on_c, 0, 75, 0
2, 46612, Note_on_c, 0, 70, 0
2, 46613, Note_on_c, 0, 58, 0
2, 46613, Note_on_c, 0, 63, 0
2, 46613, Note_on_c, 0, 55, 0
2, 46691, Note_on_c, 0, 68, 80
2, 46694, Note_on_c, 0, 41, 80
2, 46728, Note_on_c, 0, 41, 0
2, 46736, Control_c, 0, 64, 127
2, 46752, Note_on_c, 0, 71, 80
2, 46752, Note_on_c, 0, 75, 80
2, 46752, Note_on_c, 0, 80, 80
2, 46774, Note_on_c, 0, 68, 0
2, 46801, Control_c, 0, 64, 0
2, 46820, Note_on_c, 0, 56, 80
2, 46821, Note_on_c, 0, 58, 80
2, 46848, Note_on_c, 0, 58, 0
2, 46848, Note_on_c, 0, 56, 0
2, 46854, Note_on_c, 0, 71, 0
2, 46854, Note_on_c, 0, 75, 0
2, 46864, Note_on_c, 0, 80, 0
2, 46886, Note_on_c, 0, 70, 80
2, 46886, Note_on_c, 0, 74, 80
2, 46886, Note_on_c, 0, 79, 80
2, 46951, Note_on_c, 0, 67, 80
2, 46954, Note_on_c, 0, 34, 80
2, 46989, Control_c, 0, 64, 127
2, 47001, Note_on_c, 0, 74, 0
2, 47001, Note_on_c, 0, 70, 0
2, 47013, Note_on_c, 0, 34, 0
2, 47026, Note_on_c, 0, 67, 0
2, 47033, Note_on_c, 0, 79, 0
2, 47082, Control_c, 0, 64, 0
2, 47082, Note_on_c, 0, 65, 80
2, 47082, Note_on_c, 0, 68, 80
2, 47082, Note_on_c, 0, 70, 80
2, 47082, Note_on_c, 0, 74, 80
2, 47082, Note_on_c, 0, 77, 80
2, 47085, Note_on_c, 0, 46, 80
2, 47085, Note_on_c, 0, 56, 80
2, 47085, Note_on_c, 0, 58, 80
2, 47110, Note_on_c, 0, 58, 0
2, 47110, Note_on_c, 0, 56, 0
2, 47125, Note_on_c, 0, 46, 0
2, 47131, Note_on_c, 0, 68, 0
2, 47131, Note_on_c, 0, 70, 0
2, 47131, Note_on_c, 0, 74, 0
2, 47131, Note_on_c, 0, 77, 0
2, 47131, Note_on_c, 0, 65, 0
2, 47211, Note_on_c, 0, 70, 80
2, 47211, Note_on_c, 0, 75, 80
2, 47212, Note_on_c, 0, 67, 80
2, 47213, Note_on_c, 0, 63, 80
2, 47214, Note_on_c, 0, 39, 80
2, 47251, Note_on_c, 0, 39, 0
2, 47279, Note_on_c, 0, 46, 80
2, 47306, Note_on_c, 0, 46, 0
2, 47341, Note_on_c, 0, 51, 80
2, 47376, Note_on_c, 0, 51, 0
2, 47400, Note_on_c, 0, 55, 80
2, 47428, Note_on_c, 0, 55, 0
2, 47466, Note_on_c, 0, 75, 0
2, 47466, Note_on_c, 0, 70, 0
2, 47466, Note_on_c, 0, 58, 80
2, 47467, Note_on_c, 0, 67, 0
2, 47467, Note_on_c, 0, 63, 0
2, 47486, Control_c, 0, 64, 127
2, 47530, Note_on_c, 0, 68, 80
2, 47530, Note_on_c, 0, 72, 80
2, 47557, Note_on_c, 0, 58, 0
2, 47564, Note_on_c, 0, 72, 0
2, 47564, Note_on_c, 0, 68, 0
2, 47586, Control_c, 0, 64, 0
2, 47595, Note_on_c, 0, 67, 80
2, 47595, Note_on_c, 0, 70, 80
2, 47639, Note_on_c, 0, 70, 0
2, 47639, Note_on_c, 0, 67, 0
2, 47663, Note_on_c, 0, 65, 80
2, 47663, Note_on_c, 0, 68, 80
2, 47714, Note_on_c, 0, 68, 0
2, 47714, Note_on_c, 0, 65, 0
2, 47728, Note_on_c, 0, 58, 80
2, 47728, Note_on_c, 0, 63, 80
2, 47728, Note_on_c, 0, 67, 80
2, 47731, Note_on_c, 0, 39, 80
2, 47755, Note_on_c, 0, 67, 0
2, 47756, Note_on_c, 0, 58, 0
2, 47756, Note_on_c, 0, 63, 0
2, 47793, Note_on_c, 0, 63, 80
2, 47793, Note_on_c, 0, 66, 80
2, 47794, Note_on_c, 0, 57, 80
2, 47828, Note_on_c, 0, 66, 0
2, 47828, Note_on_c, 0, 63, 0
2, 47829, Note_on_c, 0, 57, 0
2, 47860, Note_on_c, 0, 51, 80
2, 47887, Note_on_c, 0, 39, 0
2, 47922, Note_on_c, 0, 51, 0
2, 47925, Note_on_c, 0, 55, 80
2, 47925, Note_on_c, 0, 58, 80
2, 47925, Note_on_c, 0, 63, 80
2, 47925, Note_on_c, 0, 67, 80
2, 47990, Note_on_c, 0, 46, 80
2, 48026, Note_on_c, 0, 63, 0
2, 48026, Note_on_c, 0, 55, 0
2, 48026, Note_on_c, 0, 58, 0
2, 48027, Note_on_c, 0, 46, 0
2, 48058, Note_on_c, 0, 51, 80
2, 48095, Note_on_c, 0, 51, 0
2, 48125, Note_on_c, 0, 58, 80
2, 48125, Note_on_c, 0, 63, 80
2, 48126, Note_on_c, 0, 46, 80
2, 48126, Note_on_c, 0, 55, 80
2, 48143, Note_on_c, 0, 55, 0
2, 48143, Note_on_c, 0, 58, 0
2, 48161, Note_on_c, 0, 46, 0
2, 48183, Note_on_c, 0, 63, 0
2, 48183, Note_on_c, 0, 67, 0
2, 48192, Note_on_c, 0, 43, 80
2, 48228, Note_on_c, 0, 43, 0
2, 48255, Note_on_c, 0, 58, 80
2, 48255, Note_on_c, 0, 67, 80
2, 48258, Note_on_c, 0, 63, 80
2, 48261, Note_on_c, 0, 39, 80
2, 48282, Note_on_c, 0, 67, 0
2, 48283, Note_on_c, 0, 58, 0
2, 48283, Note_on_c, 0, 63, 0
2, 48320, Note_on_c, 0, 63, 80
2, 48320, Note_on_c, 0, 66, 80
2, 48321, Note_on_c, 0, 57, 80
2, 48353, Note_on_c, 0, 66, 0
2, 48354, Note_on_c, 0, 57, 0
2, 48354, Note_on_c, 0, 63, 0
2, 48363, Note_on_c, 0, 39, 0
2, 48385, Note_on_c, 0, 48, 80
2, 48445, Note_on_c, 0, 48, 0
2, 48449, Note_on_c, 0, 58, 80
2, 48449, Note_on_c, 0, 63, 80
2, 48449, Note_on_c, 0, 67, 80
2, 48450, Note_on_c, 0, 55, 80
2, 48514, Note_on_c, 0, 46, 80
2, 48548, Note_on_c, 0, 46, 0
2, 48560, Note_on_c, 0, 67, 0
2, 48561, Note_on_c, 0, 58, 0
2, 48561, Note_on_c, 0, 63, 0
2, 48561, Note_on_c, 0, 55, 0
2, 48576, Note_on_c, 0, 51, 80
2, 48611, Note_on_c, 0, 51, 0
2, 48640, Note_on_c, 0, 63, 80
2, 48641, Note_on_c, 0, 55, 80
2, 48641, Note_on_c, 0, 58, 80
2, 48642, Note_on_c, 0, 46, 80
2, 48658, Note_on_c, 0, 58, 0
2, 48659, Note_on_c, 0, 55, 0
2, 48675, Note_on_c, 0, 46, 0
2, 48697, Note_on_c, 0, 63, 0
2, 48707, Note_on_c, 0, 43, 80
2, 48742, Note_on_c, 0, 43, 0
2, 48769, Note_on_c, 0, 60, 80
2, 48769, Note_on_c, 0, 63, 80
2, 48770, Note_on_c, 0, 44, 80
2, 48836, Note_on_c, 0, 65, 80
2, 48864, Note_on_c, 0, 44, 0
2, 48879, Note_on_c, 0, 60, 0
2, 48879, Note_on_c, 0, 63, 0
2, 48901, Note_on_c, 0, 51, 80
2, 48951, Note_on_c, 0, 65, 0
2, 48952, Note_on_c, 0, 51, 0
2, 48963, Note_on_c, 0, 66, 80
2, 48964, Note_on_c, 0, 59, 80
2, 48964, Note_on_c, 0, 63, 80
2, 49030, Note_on_c, 0, 44, 80
2, 49049, Control_c, 0, 64, 127
2, 49068, Note_on_c, 0, 63, 0
2, 49069, Note_on_c, 0, 59, 0
2, 49082, Note_on_c, 0, 66, 0
2, 49088, Note_on_c, 0, 65, 80
2, 49126, Note_on_c, 0, 44, 0
2, 49128, Control_c, 0, 64, 0
2, 49141, Note_on_c, 0, 65, 0
2, 49153, Note_on_c, 0, 59, 80
2, 49153, Note_on_c, 0, 63, 80
2, 49154, Note_on_c, 0, 51, 80
2, 49186, Note_on_c, 0, 51, 0
2, 49210, Note_on_c, 0, 63, 0
2, 49210, Note_on_c, 0, 59, 0
2, 49217, Note_on_c, 0, 44, 80
2, 49251, Note_on_c, 0, 44, 0
2, 49276, Note_on_c, 0, 67, 80
2, 49277, Note_on_c, 0, 58, 80
2, 49278, Note_on_c, 0, 39, 80
2, 49278, Note_on_c, 0, 63, 80
2, 49313, Note_on_c, 0, 39, 0
2, 49342, Note_on_c, 0, 46, 80
2, 49375, Note_on_c, 0, 46, 0
2, 49406, Note_on_c, 0, 51, 80
2, 49440, Note_on_c, 0, 51, 0
2, 49471, Note_on_c, 0, 55, 80
2, 49496, Note_on_c, 0, 58, 0
2, 49503, Note_on_c, 0, 55, 0
2, 49512, Note_on_c, 0, 63, 0
2, 49518, Note_on_c, 0, 67, 0
2, 49532, Control_c, 0, 64, 127
2, 49535, Note_on_c, 0, 58, 80
2, 49599, Note_on_c, 0, 68, 80
2, 49599, Note_on_c, 0, 72, 80
2, 49649, Control_c, 0, 64, 0
2, 49650, Note_on_c, 0, 68, 0
2, 49653, Note_on_c, 0, 58, 0
2, 49665, Note_on_c, 0, 67, 80
2, 49665, Note_on_c, 0, 70, 80
2, 49683, Note_on_c, 0, 72, 0
2, 49715, Note_on_c, 0, 67, 0
2, 49728, Note_on_c, 0, 68, 80
2, 49729, Note_on_c, 0, 65, 80
2, 49739, Note_on_c, 0, 70, 0
2, 49773, Note_on_c, 0, 65, 0
2, 49781, Note_on_c, 0, 68, 0
2, 49795, Note_on_c, 0, 58, 80
2, 49795, Note_on_c, 0, 63, 80
2, 49795, Note_on_c, 0, 67, 80
2, 49799, Note_on_c, 0, 39, 80
2, 49823, Note_on_c, 0, 67, 0
2, 49823, Note_on_c, 0, 58, 0
2, 49823, Note_on_c, 0, 63, 0
2, 49862, Note_on_c, 0, 63, 80
2, 49863, Note_on_c, 0, 57, 80
2, 49863, Note_on_c, 0, 66, 80
2, 49903, Note_on_c, 0, 66, 0
2, 49903, Note_on_c, 0, 63, 0
2, 49904, Note_on_c, 0, 57, 0
2, 49926, Note_on_c, 0, 48, 80
2, 49939, Note_on_c, 0, 39, 0
2, 49970, Note_on_c, 0, 48, 0
2, 49992, Note_on_c, 0, 58, 80
2, 49992, Note_on_c, 0, 63, 80
2, 49992, Note_on_c, 0, 67, 80
2, 49992, Note_on_c, 0, 55, 80
2, 50058, Note_on_c, 0, 46, 80
2, 50062, Control_c, 0, 64, 127
2, 50067, Note_on_c, 0, 55, 0
2, 50067, Note_on_c, 0, 67, 0
2, 50067, Note_on_c, 0, 58, 0
2, 50067, Note_on_c, 0, 63, 0
2, 50109, Note_on_c, 0, 46, 0
2, 50121, Note_on_c, 0, 51, 80
2, 50165, Note_on_c, 0, 51, 0
2, 50184, Note_on_c, 0, 75, 80
2, 50185, Note_on_c, 0, 63, 80
2, 50185, Note_on_c, 0, 67, 80
2, 50185, Note_on_c, 0, 72, 80
2, 50186, Note_on_c, 0, 48, 80
2, 50192, Control_c, 0, 64, 0
2, 50219, Note_on_c, 0, 72, 0
2, 50219, Note_on_c, 0, 75, 0
2, 50220, Note_on_c, 0, 63, 0
2, 50220, Note_on_c, 0, 67, 0
2, 50230, Note_on_c, 0, 48, 0
2, 50316, Note_on_c, 0, 72, 80
2, 50316, Note_on_c, 0, 75, 80
2, 50317, Note_on_c, 0, 67, 80
2, 50318, Note_on_c, 0, 50, 80
2, 50318, Note_on_c, 0, 63, 80
2, 50349, Note_on_c, 0, 67, 0
2, 50349, Note_on_c, 0, 72, 0
2, 50349, Note_on_c, 0, 75, 0
2, 50350, Note_on_c, 0, 63, 0
2, 50377, Note_on_c, 0, 70, 80
2, 50378, Note_on_c, 0, 62, 80
2, 50378, Note_on_c, 0, 67, 80
2, 50378, Note_on_c, 0, 74, 80
2, 50435, Note_on_c, 0, 67, 0
2, 50435, Note_on_c, 0, 70, 0
2, 50436, Note_on_c, 0, 74, 0
2, 50436, Note_on_c, 0, 62, 0
2, 50445, Note_on_c, 0, 55, 80
2, 50448, Note_on_c, 0, 50, 0
2, 50496, Note_on_c, 0, 55, 0
2, 50509, Note_on_c, 0, 67, 80
2, 50509, Note_on_c, 0, 74, 80
2, 50510, Note_on_c, 0, 62, 80
2, 50510, Note_on_c, 0, 70, 80
2, 50574, Note_on_c, 0, 58, 80
2, 50578, Control_c, 0, 64, 127
2, 50591, Note_on_c, 0, 70, 0
2, 50591, Note_on_c, 0, 62, 0
2, 50591, Note_on_c, 0, 67, 0
2, 50591, Note_on_c, 0, 74, 0
2, 50617, Note_on_c, 0, 58, 0
2, 50639, Note_on_c, 0, 62, 80
2, 50673, Note_on_c, 0, 62, 0
2, 50701, Control_c, 0, 64, 0
2, 50702, Note_on_c, 0, 79, 80
2, 50702, Note_on_c, 0, 82, 80
2, 50703, Note_on_c, 0, 58, 80
2, 50703, Note_on_c, 0, 74, 80
2, 50743, Note_on_c, 0, 82, 0
2, 50744, Note_on_c, 0, 79, 0
2, 50744, Note_on_c, 0, 58, 0
2, 50744, Note_on_c, 0, 74, 0
2, 50831, Note_on_c, 0, 78, 80
2, 50831, Note_on_c, 0, 82, 80
2, 50832, Note_on_c, 0, 50, 80
2, 50832, Note_on_c, 0, 74, 80
2, 50856, Note_on_c, 0, 74, 0
2, 50856, Note_on_c, 0, 78, 0
2, 50856, Note_on_c, 0, 82, 0
2, 50866, Control_c, 0, 64, 127
2, 50893, Note_on_c, 0, 72, 80
2, 50896, Note_on_c, 0, 74, 80
2, 50896, Note_on_c, 0, 78, 80
2, 50896, Note_on_c, 0, 81, 80
2, 50915, Control_c, 0, 64, 0
2, 50934, Note_on_c, 0, 81, 0
2, 50934, Note_on_c, 0, 74, 0
2, 50934, Note_on_c, 0, 78, 0
2, 50935, Note_on_c, 0, 72, 0
2, 50956, Note_on_c, 0, 57, 80
2, 50956, Note_on_c, 0, 60, 80
2, 50956, Note_on_c, 0, 62, 80
2, 50960, Note_on_c, 0, 50, 0
2, 50974, Note_on_c, 0, 57, 0
2, 50974, Note_on_c, 0, 60, 0
2, 50974, Note_on_c, 0, 62, 0
2, 51021, Note_on_c, 0, 72, 80
2, 51021, Note_on_c, 0, 74, 80
2, 51021, Note_on_c, 0, 78, 80
2, 51021, Note_on_c, 0, 81, 80
2, 51080, Note_on_c, 0, 50, 80
2, 51090, Control_c, 0, 64, 127
2, 51106, Note_on_c, 0, 81, 0
2, 51106, Note_on_c, 0, 78, 0
2, 51107, Note_on_c, 0, 72, 0
2, 51107, Note_on_c, 0, 74, 0
2, 51144, Note_on_c, 0, 82, 80
2, 51188, Note_on_c, 0, 82, 0
2, 51203, Note_on_c, 0, 50, 0
2, 51204, Control_c, 0, 64, 0
2, 51210, Note_on_c, 0, 57, 80
2, 51210, Note_on_c, 0, 60, 80
2, 51210, Note_on_c, 0, 72, 80
2, 51210, Note_on_c, 0, 74, 80
2, 51210, Note_on_c, 0, 78, 80
2, 51210, Note_on_c, 0, 81, 80
2, 51237, Note_on_c, 0, 81, 0
2, 51237, Note_on_c, 0, 74, 0
2, 51237, Note_on_c, 0, 72, 0
2, 51237, Note_on_c, 0, 78, 0
2, 51243, Note_on_c, 0, 57, 0
2, 51243, Note_on_c, 0, 60, 0
2, 51340, Note_on_c, 0, 55, 80
2, 51340, Note_on_c, 0, 70, 80
2, 51340, Note_on_c, 0, 74, 80
2, 51340, Note_on_c, 0, 79, 80
2, 51384, Note_on_c, 0, 55, 0
2, 51399, Control_c, 0, 64, 127
2, 51464, Note_on_c, 0, 70, 0
2, 51464, Note_on_c, 0, 74, 0
2, 51464, Note_on_c, 0, 79, 0
2, 51470, Note_on_c, 0, 50, 80
2, 51529, Control_c, 0, 64, 0
2, 51535, Note_on_c, 0, 55, 80
2, 51553, Note_on_c, 0, 50, 0
2, 51600, Note_on_c, 0, 58, 80
2, 51600, Note_on_c, 0, 67, 80
2, 51600, Note_on_c, 0, 70, 80
2, 51611, Note_on_c, 0, 55, 0
2, 51650, Control_c, 0, 64, 127
2, 51654, Note_on_c, 0, 58, 0
2, 51666, Note_on_c, 0, 68, 80
2, 51667, Note_on_c, 0, 72, 80
2, 51670, Note_on_c, 0, 67, 0
2, 51670, Note_on_c, 0, 70, 0
2, 51734, Note_on_c, 0, 67, 80
2, 51734, Note_on_c, 0, 70, 80
2, 51735, Note_on_c, 0, 68, 0
2, 51735, Note_on_c, 0, 72, 0
2, 51735, Control_c, 0, 64, 0
2, 51775, Note_on_c, 0, 70, 0
2, 51776, Note_on_c, 0, 67, 0
2, 51797, Note_on_c, 0, 65, 80
2, 51797, Note_on_c, 0, 68, 80
2, 51824, Note_on_c, 0, 68, 0
2, 51824, Note_on_c, 0, 65, 0
2, 51865, Note_on_c, 0, 39, 80
2, 51865, Note_on_c, 0, 67, 80
2, 51866, Note_on_c, 0, 58, 80
2, 51866, Note_on_c, 0, 63, 80
2, 51893, Note_on_c, 0, 63, 0
2, 51893, Note_on_c, 0, 58, 0
2, 51893, Note_on_c, 0, 67, 0
2, 51934, Note_on_c, 0, 57, 80
2, 51934, Note_on_c, 0, 63, 80
2, 51934, Note_on_c, 0, 66, 80
2, 51968, Note_on_c, 0, 66, 0
2, 51968, Note_on_c, 0, 63, 0
2, 51968, Note_on_c, 0, 57, 0
2, 51997, Note_on_c, 0, 48, 80
2, 52008, Note_on_c, 0, 39, 0
2, 52024, Note_on_c, 0, 48, 0
2, 52063, Note_on_c, 0, 55, 80
2, 52064, Note_on_c, 0, 58, 80
2, 52064, Note_on_c, 0, 63, 80
2, 52064, Note_on_c, 0, 67, 80
2, 52126, Note_on_c, 0, 46, 80
2, 52159, Note_on_c, 0, 46, 0
2, 52169, Note_on_c, 0, 63, 0
2, 52169, Note_on_c, 0, 58, 0
2, 52170, Note_on_c, 0, 55, 0
2, 52189, Note_on_c, 0, 51, 80
2, 52223, Note_on_c, 0, 51, 0
2, 52251, Note_on_c, 0, 46, 80
2, 52251, Note_on_c, 0, 55, 80
2, 52251, Note_on_c, 0, 58, 80
2, 52252, Note_on_c, 0, 63, 80
2, 52277, Note_on_c, 0, 58, 0
2, 52277, Note_on_c, 0, 55, 0
2, 52284, Note_on_c, 0, 46, 0
2, 52316, Note_on_c, 0, 43, 80
2, 52327, Note_on_c, 0, 67, 0
2, 52328, Note_on_c, 0, 63, 0
2, 52350, Note_on_c, 0, 43, 0
2, 52382, Note_on_c, 0, 39, 80
2, 52382, Note_on_c, 0, 67, 80
2, 52383, Note_on_c, 0, 58, 80
2, 52383, Note_on_c, 0, 63, 80
2, 52410, Note_on_c, 0, 63, 0
2, 52410, Note_on_c, 0, 58, 0
2, 52410, Note_on_c, 0, 67, 0
2, 52449, Note_on_c, 0, 57, 80
2, 52449, Note_on_c, 0, 63, 80
2, 52449, Note_on_c, 0, 66, 80
2, 52513, Note_on_c, 0, 48, 80
2, 52516, Note_on_c, 0, 66, 0
2, 52516, Note_on_c, 0, 57, 0
2, 52519, Note_on_c, 0, 63, 0
2, 52560, Note_on_c, 0, 39, 0
2, 52566, Note_on_c, 0, 48, 0
2, 52580, Note_on_c, 0, 55, 80
2, 52580, Note_on_c, 0, 58, 80
2, 52580, Note_on_c, 0, 63, 80
2, 52581, Note_on_c, 0, 67, 80
2, 52643, Note_on_c, 0, 46, 80
2, 52677, Note_on_c, 0, 46, 0
2, 52685, Note_on_c, 0, 55, 0
2, 52685, Note_on_c, 0, 58, 0
2, 52686, Note_on_c, 0, 63, 0
2, 52705, Note_on_c, 0, 51, 80
2, 52739, Note_on_c, 0, 51, 0
2, 52767, Note_on_c, 0, 46, 80
2, 52767, Note_on_c, 0, 55, 80
2, 52768, Note_on_c, 0, 58, 80
2, 52768, Note_on_c, 0, 63, 80
2, 52800, Note_on_c, 0, 58, 0
2, 52800, Note_on_c, 0, 55, 0
2, 52800, Note_on_c, 0, 46, 0
2, 52828, Note_on_c, 0, 43, 80
2, 52841, Note_on_c, 0, 63, 0
2, 52857, Note_on_c, 0, 67, 0
2, 52863, Note_on_c, 0, 43, 0
2, 52894, Note_on_c, 0, 44, 80
2, 52895, Note_on_c, 0, 60, 80
2, 52895, Note_on_c, 0, 63, 80
2, 52960, Note_on_c, 0, 65, 80
2, 53003, Note_on_c, 0, 63, 0
2, 53003, Note_on_c, 0, 60, 0
2, 53027, Note_on_c, 0, 51, 80
2, 53036, Note_on_c, 0, 44, 0
2, 53055, Note_on_c, 0, 51, 0
2, 53073, Note_on_c, 0, 65, 0
2, 53097, Note_on_c, 0, 60, 80
2, 53097, Note_on_c, 0, 63, 80
2, 53097, Note_on_c, 0, 66, 80
2, 53161, Note_on_c, 0, 44, 80
2, 53226, Note_on_c, 0, 65, 80
2, 53227, Note_on_c, 0, 60, 0
2, 53228, Note_on_c, 0, 63, 0
2, 53228, Note_on_c, 0, 66, 0
2, 53277, Note_on_c, 0, 65, 0
2, 53289, Note_on_c, 0, 44, 0
2, 53289, Note_on_c, 0, 51, 80
2, 53289, Note_on_c, 0, 59, 80
2, 53289, Note_on_c, 0, 63, 80
2, 53310, Control_c, 0, 64, 127
2, 53323, Note_on_c, 0, 59, 0
2, 53323, Note_on_c, 0, 51, 0
2, 53324, Note_on_c, 0, 63, 0
2, 53352, Note_on_c, 0, 44, 80
2, 53386, Note_on_c, 0, 44, 0
2, 53392, Control_c, 0, 64, 0
2, 53414, Note_on_c, 0, 39, 80
2, 53414, Note_on_c, 0, 67, 80
2, 53415, Note_on_c, 0, 58, 80
2, 53415, Note_on_c, 0, 63, 80
2, 53447, Note_on_c, 0, 39, 0
2, 53477, Note_on_c, 0, 43, 80
2, 53515, Note_on_c, 0, 43, 0
2, 53545, Note_on_c, 0, 46, 80
2, 53579, Note_on_c, 0, 46, 0
2, 53611, Note_on_c, 0, 51, 80
2, 53645, Note_on_c, 0, 51, 0
2, 53674, Note_on_c, 0, 46, 80
2, 53711, Note_on_c, 0, 58, 0
2, 53712, Note_on_c, 0, 63, 0
2, 53712, Note_on_c, 0, 67, 0
2, 53743, Note_on_c, 0, 63, 80
2, 53747, Control_c, 0, 64, 127
2, 53751, Note_on_c, 0, 46, 0
2, 53791, Control_c, 0, 64, 0
2, 53798, Note_on_c, 0, 63, 0
2, 53808, Note_on_c, 0, 43, 80
2, 53808, Note_on_c, 0, 51, 80
2, 53810, Note_on_c, 0, 61, 80
2, 53810, Note_on_c, 0, 70, 80
2, 53844, Note_on_c, 0, 61, 0
2, 53850, Note_on_c, 0, 43, 0
2, 53851, Note_on_c, 0, 51, 0
2, 53852, Note_on_c, 0, 70, 0
2, 53936, Note_on_c, 0, 44, 80
2, 53937, Note_on_c, 0, 60, 80
2, 53938, Note_on_c, 0, 70, 80
2, 53973, Control_c, 0, 64, 127
2, 53997, Note_on_c, 0, 70, 0
2, 54000, Note_on_c, 0, 68, 80
2, 54040, Control_c, 0, 64, 0
2, 54052, Note_on_c, 0, 60, 0
2, 54065, Note_on_c, 0, 51, 80
2, 54094, Note_on_c, 0, 68, 0
2, 54097, Note_on_c, 0, 44, 0
2, 54107, Note_on_c, 0, 51, 0
2, 54131, Note_on_c, 0, 60, 80
2, 54131, Note_on_c, 0, 63, 80
2, 54131, Note_on_c, 0, 68, 80
2, 54132, Note_on_c, 0, 72, 80
2, 54194, Note_on_c, 0, 44, 80
2, 54195, Note_on_c, 0, 56, 80
2, 54209, Control_c, 0, 64, 127
2, 54213, Note_on_c, 0, 60, 0
2, 54214, Note_on_c, 0, 72, 0
2, 54214, Note_on_c, 0, 63, 0
2, 54214, Note_on_c, 0, 68, 0
2, 54261, Note_on_c, 0, 71, 80
2, 54292, Note_on_c, 0, 44, 0
2, 54293, Note_on_c, 0, 56, 0
2, 54312, Note_on_c, 0, 71, 0
2, 54323, Control_c, 0, 64, 0
2, 54323, Note_on_c, 0, 45, 80
2, 54323, Note_on_c, 0, 54, 80
2, 54326, Note_on_c, 0, 63, 80
2, 54326, Note_on_c, 0, 66, 80
2, 54327, Note_on_c, 0, 72, 80
2, 54358, Note_on_c, 0, 45, 0
2, 54359, Note_on_c, 0, 66, 0
2, 54359, Note_on_c, 0, 54, 0
2, 54359, Note_on_c, 0, 63, 0
2, 54359, Note_on_c, 0, 72, 0
2, 54451, Note_on_c, 0, 46, 80
2, 54452, Note_on_c, 0, 55, 80
2, 54453, Note_on_c, 0, 63, 80
2, 54453, Note_on_c, 0, 67, 80
2, 54454, Note_on_c, 0, 72, 80
2, 54506, Note_on_c, 0, 46, 0
2, 54516, Note_on_c, 0, 70, 80
2, 54563, Note_on_c, 0, 72, 0
2, 54572, Note_on_c, 0, 63, 0
2, 54575, Note_on_c, 0, 46, 80
2, 54578, Note_on_c, 0, 70, 0
2, 54578, Note_on_c, 0, 67, 0
2, 54600, Note_on_c, 0, 55, 0
2, 54640, Note_on_c, 0, 63, 80
2, 54641, Note_on_c, 0, 67, 80
2, 54642, Note_on_c, 0, 75, 80
2, 54655, Note_on_c, 0, 46, 0
2, 54704, Note_on_c, 0, 58, 80
2, 54710, Control_c, 0, 64, 127
2, 54772, Note_on_c, 0, 72, 80
2, 54775, Note_on_c, 0, 75, 0
2, 54806, Note_on_c, 0, 58, 0
2, 54818, Control_c, 0, 64, 0
2, 54835, Note_on_c, 0, 46, 80
2, 54838, Note_on_c, 0, 70, 80
2, 54839, Note_on_c, 0, 67, 0
2, 54840, Note_on_c, 0, 72, 0
2, 54848, Note_on_c, 0, 63, 0
2, 54879, Note_on_c, 0, 46, 0
2, 54880, Note_on_c, 0, 70, 0
2, 54967, Note_on_c, 0, 46, 80
2, 54967, Note_on_c, 0, 56, 80
2, 54970, Note_on_c, 0, 62, 80
2, 54970, Note_on_c, 0, 67, 80
2, 55032, Note_on_c, 0, 65, 80
2, 55080, Note_on_c, 0, 67, 0
2, 55093, Note_on_c, 0, 58, 80
2, 55094, Note_on_c, 0, 68, 80
2, 55095, Note_on_c, 0, 65, 0
2, 55101, Note_on_c, 0, 46, 0
2, 55104, Note_on_c, 0, 56, 0
2, 55104, Note_on_c, 0, 62, 0
2, 55120, Note_on_c, 0, 68, 0
2, 55127, Note_on_c, 0, 58, 0
2, 55155, Note_on_c, 0, 62, 80
2, 55156, Note_on_c, 0, 65, 80
2, 55156, Note_on_c, 0, 68, 80
2, 55156, Note_on_c, 0, 72, 80
2, 55221, Note_on_c, 0, 46, 80
2, 55261, Control_c, 0, 64, 127
2, 55267, Note_on_c, 0, 72, 0
2, 55288, Note_on_c, 0, 70, 80
2, 55289, Note_on_c, 0, 62, 0
2, 55342, Control_c, 0, 64, 0
2, 55347, Note_on_c, 0, 70, 0
2, 55348, Note_on_c, 0, 34, 80
2, 55349, Note_on_c, 0, 56, 80
2, 55350, Note_on_c, 0, 62, 80
2, 55350, Note_on_c, 0, 67, 80
2, 55360, Note_on_c, 0, 65, 0
2, 55368, Note_on_c, 0, 68, 0
2, 55374, Note_on_c, 0, 34, 0
2, 55375, Note_on_c, 0, 56, 0
2, 55375, Note_on_c, 0, 46, 0
2, 55375, Note_on_c, 0, 62, 0
2, 55440, Note_on_c, 0, 67, 0
2, 55485, Note_on_c, 0, 39, 80
2, 55486, Note_on_c, 0, 55, 80
2, 55486, Note_on_c, 0, 58, 80
2, 55486, Note_on_c, 0, 63, 80
2, 55545, Note_on_c, 0, 39, 0
2, 55551, Note_on_c, 0, 46, 80
2, 55578, Note_on_c, 0, 55, 0
2, 55603, Note_on_c, 0, 46, 0
2, 55616, Note_on_c, 0, 51, 80
2, 55676, Note_on_c, 0, 51, 0
2, 55676, Note_on_c, 0, 58, 0
2, 55681, Note_on_c, 0, 55, 80
2, 55701, Note_on_c, 0, 63, 0
2, 55740, Note_on_c, 0, 55, 0
2, 55744, Note_on_c, 0, 58, 80
2, 55776, Control_c, 0, 64, 127
2, 55822, Note_on_c, 0, 58, 0
2, 55861, Control_c, 0, 64, 0
2, 55876, Note_on_c, 0, 34, 80
2, 55877, Note_on_c, 0, 46, 80
2, 55877, Note_on_c, 0, 62, 80
2, 55880, Note_on_c, 0, 70, 80
2, 55905, Note_on_c, 0, 46, 0
2, 55905, Note_on_c, 0, 34, 0
2, 55906, Note_on_c, 0, 62, 0
2, 55906, Note_on_c, 0, 70, 0
2, 56011, Note_on_c, 0, 39, 80
2, 56012, Note_on_c, 0, 55, 80
2, 56012, Note_on_c, 0, 67, 80
2, 56012, Note_on_c, 0, 70, 80
2, 56012, Note_on_c, 0, 75, 80
2, 56012, Note_on_c, 0, 79, 80
2, 56042, Note_on_c, 0, 55, 0
2, 56043, Note_on_c, 0, 67, 0
2, 56043, Note_on_c, 0, 70, 0
2, 56043, Note_on_c, 0, 79, 0
2, 56044, Note_on_c, 0, 75, 0
2, 56056, Control_c, 0, 64, 127
2, 56075, Note_on_c, 0, 66, 80
2, 56075, Note_on_c, 0, 69, 80
2, 56075, Note_on_c, 0, 75, 80
2, 56076, Note_on_c, 0, 78, 80
2, 56129, Control_c, 0, 64, 0
2, 56136, Note_on_c, 0, 39, 0
2, 56136, Note_on_c, 0, 51, 80
2, 56153, Note_on_c, 0, 66, 0
2, 56153, Note_on_c, 0, 78, 0
2, 56153, Note_on_c, 0, 69, 0
2, 56154, Note_on_c, 0, 75, 0
2, 56178, Note_on_c, 0, 51, 0
2, 56199, Note_on_c, 0, 67, 80
2, 56199, Note_on_c, 0, 70, 80
2, 56199, Note_on_c, 0, 75, 80
2, 56199, Note_on_c, 0, 79, 80
2, 56258, Note_on_c, 0, 46, 80
2, 56308, Control_c, 0, 64, 127
2, 56324, Note_on_c, 0, 55, 80
2, 56351, Note_on_c, 0, 46, 0
2, 56360, Note_on_c, 0, 55, 0
2, 56389, Note_on_c, 0, 51, 80
2, 56407, Control_c, 0, 64, 0
2, 56424, Note_on_c, 0, 51, 0
2, 56452, Note_on_c, 0, 46, 80
2, 56464, Note_on_c, 0, 79, 0
2, 56464, Note_on_c, 0, 70, 0
2, 56464, Note_on_c, 0, 67, 0
2, 56465, Note_on_c, 0, 75, 0
2, 56498, Note_on_c, 0, 46, 0
2, 56520, Note_on_c, 0, 39, 80
2, 56520, Note_on_c, 0, 67, 80
2, 56520, Note_on_c, 0, 70, 80
2, 56520, Note_on_c, 0, 75, 80
2, 56520, Note_on_c, 0, 79, 80
2, 56554, Control_c, 0, 64, 127
2, 56555, Note_on_c, 0, 79, 0
2, 56555, Note_on_c, 0, 67, 0
2, 56556, Note_on_c, 0, 75, 0
2, 56556, Note_on_c, 0, 70, 0
2, 56587, Note_on_c, 0, 66, 80
2, 56587, Note_on_c, 0, 69, 80
2, 56587, Note_on_c, 0, 75, 80
2, 56587, Note_on_c, 0, 78, 80
2, 56646, Control_c, 0, 64, 0
2, 56653, Note_on_c, 0, 48, 80
2, 56662, Note_on_c, 0, 39, 0
2, 56670, Note_on_c, 0, 78, 0
2, 56670, Note_on_c, 0, 75, 0
2, 56670, Note_on_c, 0, 66, 0
2, 56670, Note_on_c, 0, 69, 0
2, 56679, Note_on_c, 0, 48, 0
2, 56716, Note_on_c, 0, 67, 80
2, 56716, Note_on_c, 0, 70, 80
2, 56716, Note_on_c, 0, 75, 80
2, 56716, Note_on_c, 0, 79, 80
2, 56779, Note_on_c, 0, 46, 80
2, 56795, Control_c, 0, 64, 127
2, 56842, Note_on_c, 0, 55, 80
2, 56860, Note_on_c, 0, 46, 0
2, 56869, Note_on_c, 0, 55, 0
2, 56893, Note_on_c, 0, 75, 0
2, 56893, Note_on_c, 0, 67, 0
2, 56893, Note_on_c, 0, 70, 0
2, 56893, Note_on_c, 0, 79, 0
2, 56906, Note_on_c, 0, 51, 80
2, 56925, Control_c, 0, 64, 0
2, 56936, Note_on_c, 0, 51, 0
2, 56974, Note_on_c, 0, 46, 80
2, 57010, Note_on_c, 0, 46, 0
2, 57041, Note_on_c, 0, 44, 80
2, 57041, Note_on_c, 0, 60, 80
2, 57041, Note_on_c, 0, 63, 80
2, 57041, Note_on_c, 0, 68, 80
2, 57041, Note_on_c, 0, 72, 80
2, 57041, Note_on_c, 0, 75, 80
2, 57065, Control_c, 0, 64, 127
2, 57076, Note_on_c, 0, 75, 0
2, 57076, Note_on_c, 0, 68, 0
2, 57076, Note_on_c, 0, 72, 0
2, 57092, Note_on_c, 0, 63, 0
2, 57104, Note_on_c, 0, 65, 80
2, 57104, Note_on_c, 0, 72, 80
2, 57104, Note_on_c, 0, 75, 80
2, 57104, Note_on_c, 0, 77, 80
2, 57105, Note_on_c, 0, 68, 80
2, 57124, Note_on_c, 0, 44, 0
2, 57155, Note_on_c, 0, 75, 0
2, 57155, Note_on_c, 0, 72, 0
2, 57155, Note_on_c, 0, 68, 0
2, 57168, Note_on_c, 0, 56, 80
2, 57180, Control_c, 0, 64, 0
2, 57211, Note_on_c, 0, 56, 0
2, 57211, Note_on_c, 0, 65, 0
2, 57211, Note_on_c, 0, 77, 0
2, 57211, Note_on_c, 0, 60, 0
2, 57233, Note_on_c, 0, 66, 80
2, 57233, Note_on_c, 0, 71, 80
2, 57233, Note_on_c, 0, 75, 80
2, 57233, Note_on_c, 0, 78, 80
2, 57297, Note_on_c, 0, 59, 80
2, 57300, Note_on_c, 0, 44, 80
2, 57324, Note_on_c, 0, 78, 0
2, 57325, Note_on_c, 0, 75, 0
2, 57325, Note_on_c, 0, 66, 0
2, 57325, Note_on_c, 0, 71, 0
2, 57332, Control_c, 0, 64, 127
2, 57363, Note_on_c, 0, 65, 80
2, 57363, Note_on_c, 0, 71, 80
2, 57363, Note_on_c, 0, 77, 80
2, 57405, Note_on_c, 0, 77, 0
2, 57405, Note_on_c, 0, 65, 0
2, 57405, Note_on_c, 0, 71, 0
2, 57405, Note_on_c, 0, 44, 0
2, 57427, Note_on_c, 0, 75, 80
2, 57428, Note_on_c, 0, 51, 80
2, 57428, Note_on_c, 0, 63, 80
2, 57447, Control_c, 0, 64, 0
2, 57460, Note_on_c, 0, 63, 0
2, 57460, Note_on_c, 0, 75, 0
2, 57479, Note_on_c, 0, 59, 0
2, 57528, Note_on_c, 0, 51, 0
2, 57560, Note_on_c, 0, 67, 80
2, 57560, Note_on_c, 0, 70, 80
2, 57560, Note_on_c, 0, 75, 80
2, 57560, Note_on_c, 0, 79, 80
2, 57561, Note_on_c, 0, 39, 80
2, 57613, Control_c, 0, 64, 127
2, 57628, Note_on_c, 0, 46, 80
2, 57647, Note_on_c, 0, 39, 0
2, 57662, Note_on_c, 0, 46, 0
2, 57673, Control_c, 0, 64, 0
2, 57695, Note_on_c, 0, 51, 80
2, 57736, Note_on_c, 0, 51, 0
2, 57758, Note_on_c, 0, 70, 0
2, 57758, Note_on_c, 0, 55, 80
2, 57768, Note_on_c, 0, 67, 0
2, 57768, Note_on_c, 0, 75, 0
2, 57774, Note_on_c, 0, 79, 0
2, 57787, Control_c, 0, 64, 127
2, 57816, Note_on_c, 0, 55, 0
2, 57818, Control_c, 0, 64, 0
2, 57818, Note_on_c, 0, 79, 80
2, 57818, Note_on_c, 0, 82, 80
2, 57819, Note_on_c, 0, 70, 80
2, 57820, Note_on_c, 0, 58, 80
2, 57852, Note_on_c, 0, 70, 0
2, 57852, Note_on_c, 0, 79, 0
2, 57852, Note_on_c, 0, 82, 0
2, 57853, Note_on_c, 0, 58, 0
2, 57854, Control_c, 0, 64, 127
2, 57879, Note_on_c, 0, 84, 80
2, 57880, Note_on_c, 0, 72, 80
2, 57880, Note_on_c, 0, 80, 80
2, 57939, Control_c, 0, 64, 0
2, 57940, Note_on_c, 0, 79, 80
2, 57940, Note_on_c, 0, 82, 80
2, 57941, Note_on_c, 0, 70, 80
2, 57950, Note_on_c, 0, 80, 0
2, 57950, Note_on_c, 0, 72, 0
2, 57959, Note_on_c, 0, 84, 0
2, 58005, Note_on_c, 0, 80, 80
2, 58006, Note_on_c, 0, 79, 0
2, 58006, Note_on_c, 0, 68, 80
2, 58006, Note_on_c, 0, 77, 80
2, 58007, Note_on_c, 0, 82, 0
2, 58007, Note_on_c, 0, 70, 0
2, 58047, Note_on_c, 0, 68, 0
2, 58054, Note_on_c, 0, 80, 0
2, 58055, Note_on_c, 0, 77, 0
2, 58068, Note_on_c, 0, 75, 80
2, 58068, Note_on_c, 0, 79, 80
2, 58069, Note_on_c, 0, 67, 80
2, 58070, Note_on_c, 0, 39, 80
2, 58102, Note_on_c, 0, 67, 0
2, 58102, Note_on_c, 0, 75, 0
2, 58102, Note_on_c, 0, 79, 0
2, 58115, Control_c, 0, 64, 127
2, 58130, Note_on_c, 0, 78, 80
2, 58133, Note_on_c, 0, 66, 80
2, 58133, Note_on_c, 0, 74, 80
2, 58174, Control_c, 0, 64, 0
2, 58190, Note_on_c, 0, 74, 0
2, 58190, Note_on_c, 0, 78, 0
2, 58191, Note_on_c, 0, 66, 0
2, 58200, Note_on_c, 0, 48, 80
2, 58211, Note_on_c, 0, 39, 0
2, 58261, Note_on_c, 0, 48, 0
2, 58262, Note_on_c, 0, 75, 80
2, 58262, Note_on_c, 0, 79, 80
2, 58263, Note_on_c, 0, 67, 80
2, 58306, Note_on_c, 0, 79, 0
2, 58307, Note_on_c, 0, 67, 0
2, 58307, Note_on_c, 0, 75, 0
2, 58328, Control_c, 0, 64, 127
2, 58331, Note_on_c, 0, 46, 80
2, 58395, Note_on_c, 0, 51, 80
2, 58439, Note_on_c, 0, 46, 0
2, 58455, Note_on_c, 0, 79, 80
2, 58456, Note_on_c, 0, 84, 80
2, 58456, Note_on_c, 0, 87, 80
2, 58457, Note_on_c, 0, 75, 80
2, 58460, Note_on_c, 0, 48, 80
2, 58461, Note_on_c, 0, 51, 0
2, 58472, Control_c, 0, 64, 0
2, 58488, Note_on_c, 0, 87, 0
2, 58488, Note_on_c, 0, 79, 0
2, 58488, Note_on_c, 0, 84, 0
2, 58489, Note_on_c, 0, 75, 0
2, 58499, Note_on_c, 0, 48, 0
2, 58584, Note_on_c, 0, 75, 80
2, 58584, Note_on_c, 0, 79, 80
2, 58584, Note_on_c, 0, 84, 80
2, 58584, Note_on_c, 0, 87, 80
2, 58586, Note_on_c, 0, 50, 80
2, 58608, Note_on_c, 0, 87, 0
2, 58608, Note_on_c, 0, 84, 0
2, 58608, Note_on_c, 0, 75, 0
2, 58608, Note_on_c, 0, 79, 0
2, 58648, Control_c, 0, 64, 127
2, 58648, Note_on_c, 0, 79, 80
2, 58648, Note_on_c, 0, 82, 80
2, 58648, Note_on_c, 0, 86, 80
2, 58649, Note_on_c, 0, 74, 80
2, 58713, Control_c, 0, 64, 0
2, 58716, Note_on_c, 0, 55, 80
2, 58723, Note_on_c, 0, 74, 0
2, 58723, Note_on_c, 0, 86, 0
2, 58723, Note_on_c, 0, 82, 0
2, 58723, Note_on_c, 0, 79, 0
2, 58760, Note_on_c, 0, 55, 0
2, 58778, Note_on_c, 0, 82, 80
2, 58778, Note_on_c, 0, 86, 80
2, 58779, Note_on_c, 0, 74, 80
2, 58779, Note_on_c, 0, 79, 80
2, 58842, Note_on_c, 0, 86, 0
2, 58843, Note_on_c, 0, 79, 0
2, 58843, Note_on_c, 0, 82, 0
2, 58843, Note_on_c, 0, 58, 80
2, 58844, Note_on_c, 0, 74, 0
2, 58872, Control_c, 0, 64, 127
2, 58906, Note_on_c, 0, 62, 80
2, 58918, Note_on_c, 0, 58, 0
2, 58969, Note_on_c, 0, 74, 80
2, 58969, Note_on_c, 0, 79, 80
2, 58969, Note_on_c, 0, 82, 80
2, 58970, Note_on_c, 0, 58, 80
2, 58970, Note_on_c, 0, 70, 80
2, 58974, Note_on_c, 0, 62, 0
2, 58978, Control_c, 0, 64, 0
2, 59005, Note_on_c, 0, 58, 0
2, 59015, Note_on_c, 0, 50, 0
2, 59020, Note_on_c, 0, 82, 0
2, 59020, Note_on_c, 0, 79, 0
2, 59020, Note_on_c, 0, 70, 0
2, 59020, Note_on_c, 0, 74, 0
2, 59036, Note_on_c, 0, 55, 80
2, 59088, Note_on_c, 0, 55, 0
2, 59101, Note_on_c, 0, 70, 80
2, 59101, Note_on_c, 0, 74, 80
2, 59101, Note_on_c, 0, 78, 80
2, 59101, Note_on_c, 0, 82, 80
2, 59104, Note_on_c, 0, 50, 80
2, 59126, Note_on_c, 0, 78, 0
2, 59127, Note_on_c, 0, 74, 0
2, 59134, Note_on_c, 0, 82, 0
2, 59136, Note_on_c, 0, 70, 0
2, 59148, Control_c, 0, 64, 127
2, 59167, Note_on_c, 0, 78, 80
2, 59167, Note_on_c, 0, 81, 80
2, 59168, Note_on_c, 0, 69, 80
2, 59168, Note_on_c, 0, 74, 80
2, 59235, Note_on_c, 0, 62, 80
2, 59244, Note_on_c, 0, 74, 0
2, 59244, Note_on_c, 0, 81, 0
2, 59244, Note_on_c, 0, 78, 0
2, 59245, Note_on_c, 0, 69, 0
2, 59251, Control_c, 0, 64, 0
2, 59263, Note_on_c, 0, 50, 0
2, 59272, Note_on_c, 0, 62, 0
2, 59300, Note_on_c, 0, 78, 80
2, 59300, Note_on_c, 0, 81, 80
2, 59301, Note_on_c, 0, 74, 80
2, 59302, Note_on_c, 0, 69, 80
2, 59370, Note_on_c, 0, 50, 80
2, 59376, Control_c, 0, 64, 127
2, 59394, Note_on_c, 0, 69, 0
2, 59394, Note_on_c, 0, 74, 0
2, 59394, Note_on_c, 0, 78, 0
2, 59394, Note_on_c, 0, 81, 0
2, 59431, Note_on_c, 0, 82, 80
2, 59432, Note_on_c, 0, 78, 80
2, 59433, Note_on_c, 0, 70, 80
2, 59433, Note_on_c, 0, 74, 80
2, 59458, Note_on_c, 0, 74, 0
2, 59458, Note_on_c, 0, 78, 0
2, 59458, Note_on_c, 0, 82, 0
2, 59459, Note_on_c, 0, 70, 0
2, 59498, Control_c, 0, 64, 0
2, 59498, Note_on_c, 0, 69, 80
2, 59498, Note_on_c, 0, 74, 80
2, 59498, Note_on_c, 0, 78, 80
2, 59498, Note_on_c, 0, 81, 80
2, 59499, Note_on_c, 0, 60, 80
2, 59526, Note_on_c, 0, 60, 0
2, 59527, Note_on_c, 0, 50, 0
2, 59531, Note_on_c, 0, 78, 0
2, 59531, Note_on_c, 0, 69, 0
2, 59531, Note_on_c, 0, 74, 0
2, 59531, Note_on_c, 0, 81, 0
2, 59596, Note_on_c, 0, 38, 80
2, 59621, Note_on_c, 0, 79, 80
2, 59625, Note_on_c, 0, 74, 80
2, 59626, Note_on_c, 0, 58, 80
2, 59626, Note_on_c, 0, 67, 80
2, 59629, Note_on_c, 0, 43, 80
2, 59632, Note_on_c, 0, 38, 0
2, 59671, Note_on_c, 0, 43, 0
2, 59671, Control_c, 0, 64, 127
2, 59684, Note_on_c, 0, 58, 0
2, 59714, Note_on_c, 0, 79, 0
2, 59714, Note_on_c, 0, 74, 0
2, 59726, Note_on_c, 0, 42, 80
2, 59747, Control_c, 0, 64, 0
2, 59756, Note_on_c, 0, 57, 80
2, 59761, Note_on_c, 0, 42, 0
2, 59808, Note_on_c, 0, 67, 0
2, 59819, Note_on_c, 0, 69, 80
2, 59819, Note_on_c, 0, 73, 80
2, 59831, Note_on_c, 0, 57, 0
2, 59856, Note_on_c, 0, 41, 80
2, 59869, Note_on_c, 0, 73, 0
2, 59870, Note_on_c, 0, 69, 0
2, 59882, Note_on_c, 0, 74, 80
2, 59883, Note_on_c, 0, 70, 80
2, 59884, Note_on_c, 0, 56, 80
2, 59888, Note_on_c, 0, 41, 0
2, 59931, Note_on_c, 0, 74, 0
2, 59932, Note_on_c, 0, 70, 0
2, 59939, Control_c, 0, 64, 127
2, 59945, Note_on_c, 0, 72, 80
2, 59946, Note_on_c, 0, 68, 80
2, 59950, Note_on_c, 0, 56, 0
2, 59977, Control_c, 0, 64, 0
2, 59980, Note_on_c, 0, 46, 80
2, 59994, Note_on_c, 0, 68, 0
2, 59994, Note_on_c, 0, 72, 0
2, 60007, Note_on_c, 0, 67, 80
2, 60007, Note_on_c, 0, 70, 80
2, 60008, Note_on_c, 0, 58, 80
2, 60020, Note_on_c, 0, 46, 0
2, 60048, Note_on_c, 0, 70, 0
2, 60050, Note_on_c, 0, 67, 0
2, 60057, Note_on_c, 0, 58, 0
2, 60069, Note_on_c, 0, 68, 80
2, 60072, Note_on_c, 0, 65, 80
2, 60120, Note_on_c, 0, 65, 0
2, 60120, Note_on_c, 0, 68, 0
2, 60134, Note_on_c, 0, 67, 80
2, 60135, Note_on_c, 0, 63, 80
2, 60139, Note_on_c, 0, 39, 80
2, 60169, Note_on_c, 0, 67, 0
2, 60170, Note_on_c, 0, 63, 0
2, 60202, Note_on_c, 0, 66, 80
2, 60203, Note_on_c, 0, 57, 80
2, 60235, Note_on_c, 0, 57, 0
2, 60235, Note_on_c, 0, 66, 0
2, 60268, Note_on_c, 0, 48, 80
2, 60271, Note_on_c, 0, 39, 0
2, 60312, Note_on_c, 0, 48, 0
2, 60331, Note_on_c, 0, 67, 80
2, 60332, Note_on_c, 0, 55, 80
2, 60332, Note_on_c, 0, 58, 80
2, 60332, Note_on_c, 0, 63, 80
2, 60391, Note_on_c, 0, 63, 0
2, 60391, Note_on_c, 0, 58, 0
2, 60391, Note_on_c, 0, 55, 0
2, 60398, Note_on_c, 0, 46, 80
2, 60420, Control_c, 0, 64, 127
2, 60463, Note_on_c, 0, 51, 80
2, 60466, Note_on_c, 0, 46, 0
2, 60497, Note_on_c, 0, 51, 0
2, 60516, Control_c, 0, 64, 0
2, 60525, Note_on_c, 0, 58, 80
2, 60525, Note_on_c, 0, 63, 80
2, 60526, Note_on_c, 0, 46, 80
2, 60526, Note_on_c, 0, 55, 80
2, 60550, Note_on_c, 0, 55, 0
2, 60550, Note_on_c, 0, 58, 0
2, 60558, Note_on_c, 0, 46, 0
2, 60572, Note_on_c, 0, 67, 0
2, 60581, Note_on_c, 0, 63, 0
2, 60588, Note_on_c, 0, 43, 80
2, 60624, Note_on_c, 0, 43, 0
2, 60651, Note_on_c, 0, 58, 80
2, 60651, Note_on_c, 0, 63, 80
2, 60651, Note_on_c, 0, 67, 80
2, 60654, Note_on_c, 0, 39, 80
2, 60676, Note_on_c, 0, 67, 0
2, 60677, Note_on_c, 0, 58, 0
2, 60677, Note_on_c, 0, 63, 0
2, 60696, Control_c, 0, 64, 127
2, 60714, Note_on_c, 0, 57, 80
2, 60714, Note_on_c, 0, 63, 80
2, 60714, Note_on_c, 0, 66, 80
2, 60747, Note_on_c, 0, 66, 0
2, 60747, Note_on_c, 0, 63, 0
2, 60747, Note_on_c, 0, 57, 0
2, 60760, Control_c, 0, 64, 0
2, 60779, Note_on_c, 0, 48, 80
2, 60807, Note_on_c, 0, 39, 0
2, 60814, Note_on_c, 0, 48, 0
2, 60841, Note_on_c, 0, 63, 80
2, 60841, Note_on_c, 0, 67, 80
2, 60842, Note_on_c, 0, 55, 80
2, 60842, Note_on_c, 0, 58, 80
2, 60910, Note_on_c, 0, 46, 80
2, 60935, Note_on_c, 0, 55, 0
2, 60944, Note_on_c, 0, 63, 0
2, 60950, Note_on_c, 0, 58, 0
2, 60961, Note_on_c, 0, 46, 0
2, 60974, Note_on_c, 0, 51, 80
2, 60986, Control_c, 0, 64, 127
2, 61026, Note_on_c, 0, 51, 0
2, 61030, Control_c, 0, 64, 0
2, 61038, Note_on_c, 0, 46, 80
2, 61038, Note_on_c, 0, 55, 80
2, 61038, Note_on_c, 0, 58, 80
2, 61038, Note_on_c, 0, 63, 80
2, 61055, Note_on_c, 0, 67, 0
2, 61064, Note_on_c, 0, 58, 0
2, 61064, Note_on_c, 0, 55, 0
2, 61080, Note_on_c, 0, 46, 0
2, 61099, Note_on_c, 0, 63, 0
2, 61104, Note_on_c, 0, 43, 80
2, 61151, Note_on_c, 0, 43, 0
2, 61172, Note_on_c, 0, 56, 80
2, 61172, Note_on_c, 0, 60, 80
2, 61172, Note_on_c, 0, 63, 80
2, 61175, Note_on_c, 0, 44, 80
2, 61216, Control_c, 0, 64, 127
2, 61234, Note_on_c, 0, 65, 80
2, 61256, Note_on_c, 0, 44, 0
2, 61270, Note_on_c, 0, 63, 0
2, 61270, Note_on_c, 0, 60, 0
2, 61271, Note_on_c, 0, 56, 0
2, 61283, Control_c, 0, 64, 0
2, 61301, Note_on_c, 0, 51, 80
2, 61320, Note_on_c, 0, 65, 0
2, 61336, Note_on_c, 0, 51, 0
2, 61367, Note_on_c, 0, 56, 80
2, 61367, Note_on_c, 0, 59, 80
2, 61367, Note_on_c, 0, 63, 80
2, 61367, Note_on_c, 0, 66, 80
2, 61432, Note_on_c, 0, 44, 80
2, 61484, Control_c, 0, 64, 127
2, 61496, Note_on_c, 0, 65, 80
2, 61497, Note_on_c, 0, 66, 0
2, 61497, Note_on_c, 0, 63, 0
2, 61497, Note_on_c, 0, 56, 0
2, 61497, Note_on_c, 0, 59, 0
2, 61540, Note_on_c, 0, 44, 0
2, 61553, Note_on_c, 0, 65, 0
2, 61561, Note_on_c, 0, 51, 80
2, 61561, Note_on_c, 0, 56, 80
2, 61561, Note_on_c, 0, 59, 80
2, 61561, Note_on_c, 0, 63, 80
2, 61567, Control_c, 0, 64, 0
2, 61604, Note_on_c, 0, 63, 0
2, 61604, Note_on_c, 0, 51, 0
2, 61604, Note_on_c, 0, 56, 0
2, 61604, Note_on_c, 0, 59, 0
2, 61628, Note_on_c, 0, 44, 80
2, 61680, Note_on_c, 0, 44, 0
2, 61689, Note_on_c, 0, 55, 80
2, 61689, Note_on_c, 0, 58, 80
2, 61689, Note_on_c, 0, 63, 80
2, 61689, Note_on_c, 0, 67, 80
2, 61693, Note_on_c, 0, 39, 80
2, 61725, Note_on_c, 0, 39, 0
2, 61755, Note_on_c, 0, 43, 80
2, 61782, Note_on_c, 0, 43, 0
2, 61822, Note_on_c, 0, 46, 80
2, 61855, Note_on_c, 0, 46, 0
2, 61886, Note_on_c, 0, 51, 80
2, 61914, Note_on_c, 0, 51, 0
2, 61951, Note_on_c, 0, 46, 80
2, 61952, Note_on_c, 0, 63, 0
2, 61977, Note_on_c, 0, 58, 0
2, 62001, Note_on_c, 0, 55, 0
2, 62002, Note_on_c, 0, 67, 0
2, 62002, Control_c, 0, 64, 127
2, 62051, Note_on_c, 0, 46, 0
2, 62078, Control_c, 0, 64, 0
2, 62079, Note_on_c, 0, 70, 80
2, 62080, Note_on_c, 0, 61, 80
2, 62081, Note_on_c, 0, 43, 80
2, 62081, Note_on_c, 0, 51, 80
2, 62081, Note_on_c, 0, 63, 80
2, 62106, Note_on_c, 0, 63, 0
2, 62106, Note_on_c, 0, 70, 0
2, 62106, Note_on_c, 0, 61, 0
2, 62107, Note_on_c, 0, 43, 0
2, 62107, Note_on_c, 0, 51, 0
2, 62207, Note_on_c, 0, 70, 80
2, 62208, Note_on_c, 0, 44, 80
2, 62208, Note_on_c, 0, 60, 80
2, 62248, Control_c, 0, 64, 127
2, 62264, Note_on_c, 0, 70, 0
2, 62270, Note_on_c, 0, 68, 80
2, 62298, Note_on_c, 0, 60, 0
2, 62304, Control_c, 0, 64, 0
2, 62336, Note_on_c, 0, 51, 80
2, 62352, Note_on_c, 0, 68, 0
2, 62361, Note_on_c, 0, 44, 0
2, 62377, Note_on_c, 0, 51, 0
2, 62399, Note_on_c, 0, 60, 80
2, 62399, Note_on_c, 0, 68, 80
2, 62399, Note_on_c, 0, 72, 80
2, 62400, Note_on_c, 0, 63, 80
2, 62464, Note_on_c, 0, 44, 80
2, 62464, Note_on_c, 0, 56, 80
2, 62482, Note_on_c, 0, 63, 0
2, 62482, Note_on_c, 0, 72, 0
2, 62482, Note_on_c, 0, 60, 0
2, 62482, Note_on_c, 0, 68, 0
2, 62489, Control_c, 0, 64, 127
2, 62528, Note_on_c, 0, 71, 80
2, 62547, Note_on_c, 0, 56, 0
2, 62554, Note_on_c, 0, 44, 0
2, 62570, Note_on_c, 0, 71, 0
2, 62592, Note_on_c, 0, 54, 80
2, 62592, Note_on_c, 0, 63, 80
2, 62592, Note_on_c, 0, 66, 80
2, 62592, Note_on_c, 0, 72, 80
2, 62595, Control_c, 0, 64, 0
2, 62599, Note_on_c, 0, 45, 80
2, 62617, Note_on_c, 0, 72, 0
2, 62617, Note_on_c, 0, 66, 0
2, 62618, Note_on_c, 0, 54, 0
2, 62618, Note_on_c, 0, 63, 0
2, 62618, Note_on_c, 0, 45, 0
2, 62718, Note_on_c, 0, 67, 80
2, 62719, Note_on_c, 0, 46, 80
2, 62719, Note_on_c, 0, 55, 80
2, 62719, Note_on_c, 0, 63, 80
2, 62719, Note_on_c, 0, 72, 80
2, 62759, Control_c, 0, 64, 127
2, 62781, Note_on_c, 0, 70, 80
2, 62800, Note_on_c, 0, 72, 0
2, 62800, Note_on_c, 0, 46, 0
2, 62807, Control_c, 0, 64, 0
2, 62808, Note_on_c, 0, 63, 0
2, 62808, Note_on_c, 0, 67, 0
2, 62808, Note_on_c, 0, 55, 0
2, 62856, Note_on_c, 0, 70, 0
2, 62915, Note_on_c, 0, 63, 80
2, 62915, Note_on_c, 0, 67, 80
2, 62915, Note_on_c, 0, 75, 80
2, 63011, Control_c, 0, 64, 127
2, 63051, Note_on_c, 0, 72, 80
2, 63119, Note_on_c, 0, 70, 80
2, 63121, Note_on_c, 0, 72, 0
2, 63122, Control_c, 0, 64, 0
2, 63209, Note_on_c, 0, 75, 0
2, 63209, Note_on_c, 0, 63, 0
2, 63209, Note_on_c, 0, 67, 0
2, 63218, Note_on_c, 0, 70, 0
2, 63247, Note_on_c, 0, 46, 80
2, 63247, Note_on_c, 0, 56, 80
2, 63247, Note_on_c, 0, 62, 80
2, 63247, Note_on_c, 0, 67, 80
2, 63297, Note_on_c, 0, 56, 0
2, 63304, Note_on_c, 0, 67, 0
2, 63304, Note_on_c, 0, 62, 0
2, 63310, Note_on_c, 0, 65, 80
2, 63369, Note_on_c, 0, 46, 0
2, 63375, Note_on_c, 0, 34, 80
2, 63378, Note_on_c, 0, 68, 80
2, 63386, Note_on_c, 0, 65, 0
2, 63418, Note_on_c, 0, 34, 0
2, 63419, Note_on_c, 0, 68, 0
2, 63440, Note_on_c, 0, 56, 80
2, 63440, Note_on_c, 0, 62, 80
2, 63440, Note_on_c, 0, 65, 80
2, 63441, Note_on_c, 0, 68, 80
2, 63441, Note_on_c, 0, 72, 80
2, 63505, Note_on_c, 0, 46, 80
2, 63540, Note_on_c, 0, 72, 0
2, 63540, Note_on_c, 0, 68, 0
2, 63540, Note_on_c, 0, 65, 0
2, 63540, Note_on_c, 0, 56, 0
2, 63540, Note_on_c, 0, 62, 0
2, 63562, Control_c, 0, 64, 127
2, 63572, Note_on_c, 0, 70, 80
2, 63609, Note_on_c, 0, 46, 0
2, 63616, Control_c, 0, 64, 0
2, 63619, Note_on_c, 0, 70, 0
2, 63631, Note_on_c, 0, 34, 80
2, 63632, Note_on_c, 0, 56, 80
2, 63632, Note_on_c, 0, 62, 80
2, 63632, Note_on_c, 0, 67, 80
2, 63664, Note_on_c, 0, 34, 0
2, 63665, Note_on_c, 0, 56, 0
2, 63665, Note_on_c, 0, 62, 0
2, 63665, Note_on_c, 0, 67, 0
2, 63761, Note_on_c, 0, 39, 80
2, 63761, Note_on_c, 0, 55, 80
2, 63762, Note_on_c, 0, 58, 80
2, 63762, Note_on_c, 0, 63, 80
2, 63786, Note_on_c, 0, 39, 0
2, 63787, Note_on_c, 0, 55, 0
2, 63788, Note_on_c, 0, 58, 0
2, 63788, Note_on_c, 0, 63, 0
2, 64020, Note_on_c, 0, 27, 80
2, 64021, Note_on_c, 0, 39, 80
2, 64024, Note_on_c, 0, 75, 80
2, 64024, Note_on_c, 0, 79, 80
2, 64024, Note_on_c, 0, 82, 80
2, 64024, Note_on_c, 0, 87, 80
2, 64048, Note_on_c, 0, 39, 0
2, 64048, Note_on_c, 0, 27, 0
2, 64052, Note_on_c, 0, 82, 0
2, 64052, Note_on_c, 0, 79, 0
2, 64052, Note_on_c, 0, 87, 0
2, 64052, Note_on_c, 0, 75, 0
2, 64052, End_track
3, 0, Start_track
3, 0, Title_t, "c/b Scott Joplin"
3, 0, End_track
4, 0, Start_track
4, 0, Title_t, "p/b William Bolcomb"
4, 0, End_track
5, 0, Start_track
5, 0, Title_t, "QRS # 156"
5, 0, End_track
6, 0, Start_track
6, 0, Title_t, "Scan of a player piano roll"
6, 0, End_track
7, 0, Start_track
7, 0, Title_t, "by Terry Smythe, Winnipeg, Canada"
7, 0, End_track
8, 0, Start_track
8, 1, Copyright_t, "___________________________________________________\012\012KUNSTDERFUGE.COM LARGE CLASSICAL MIDI COLLECTION\012ONCLASSICAL BY ALESSANDRO SIMONETTO, PROPRIETOR\012___________________________________________________\012\012! Attention: this file is under copyright !\012\012(c)onclassical, (nc)smythe, 2010\012___________________________________________________\012\012NO ONE MAY REPUBLISH THIS FILE WITHOUT PERMISSION\012COMMERCIAL USES OF THIS FILE IS STRICTLY PROHIBITED\012___________________________________________________\012\012Files & contributor's list: http://kunstderfuge.com/\012Terms and conditions: http://kunstderfuge.com/notes.htm"
8, 1, End_track
0, 0, End_of_file
