0, 0, Header, 1, 8, 192
1, 0, Start_track
1, 0, Title_t, "Silver Swan Rag"
1, 0, Copyright_t, "May NOT be used for commercial purposes."
1, 0, Text_t, "Roll expression/accent tracks, where present, converted to MIDI velocties.\012"
1, 0, Text_t, "/music_category: Piano_Roll\012"
1, 0, Text_t, "/title: Silver Swan Rag\012"
1, 0, Text_t, "/subtitle: \012"
1, 0, Text_t, "/roll_type: 88n\012"
1, 0, Text_t, "/roll_manufacturer: ?\012"
1, 0, Text_t, "/roll_number: ?\012"
1, 0, Text_t, "/performer: \012"
1, 0, Text_t, "/composer: Joplin, Scott\012"
1, 0, Text_t, "/lyricist: \012"
1, 0, Text_t, "/roll_copyright: 1914\012"
1, 0, Text_t, "/roll_date: \012"
1, 0, Text_t, "/scanned_by: Terry Smythe\012"
1, 0, Text_t, "/scan_system: Stibbons Mk3a\012"
1, 0, Text_t, "/date_scanned: 5 Dec 04\012"
1, 0, Text_t, "/owner: Terry Smythe\012"
1, 0, Time_signature, 4, 2, 24, 8
1, 0, Key_signature, 0, "major"
1, 0, Tempo, 500000
1, 0, Marker_t, "Standard MIDI:Standard 88:LPI 118:Tempo  70: 12-06-2004"
1, 0, End_track
2, 0, Start_track
2, 0, Title_t, "Silver Swan Rag"
2, 0, Program_c, 0, 0
2, 75, Note_on_c, 0, 58, 60
2, 83, Note_on_c, 0, 70, 60
2, 85, Note_on_c, 0, 46, 60
2, 134, Note_on_c, 0, 72, 60
2, 136, Note_on_c, 0, 70, 0
2, 136, Note_on_c, 0, 58, 0
2, 144, Note_on_c, 0, 60, 60
2, 145, Note_on_c, 0, 46, 0
2, 145, Note_on_c, 0, 48, 60
2, 194, Note_on_c, 0, 74, 60
2, 194, Note_on_c, 0, 62, 60
2, 196, Note_on_c, 0, 50, 60
2, 204, Note_on_c, 0, 60, 0
2, 204, Note_on_c, 0, 72, 0
2, 206, Note_on_c, 0, 48, 0
2, 257, Note_on_c, 0, 74, 0
2, 257, Note_on_c, 0, 62, 0
2, 257, Note_on_c, 0, 65, 60
2, 257, Note_on_c, 0, 77, 60
2, 260, Note_on_c, 0, 50, 0
2, 266, Note_on_c, 0, 53, 60
2, 320, Note_on_c, 0, 70, 60
2, 322, Note_on_c, 0, 58, 60
2, 322, Note_on_c, 0, 46, 60
2, 329, Note_on_c, 0, 53, 0
2, 329, Note_on_c, 0, 65, 0
2, 329, Note_on_c, 0, 77, 0
2, 383, Note_on_c, 0, 70, 0
2, 383, Note_on_c, 0, 58, 0
2, 392, Note_on_c, 0, 46, 0
2, 557, Note_on_c, 0, 70, 60
2, 557, Note_on_c, 0, 82, 60
2, 557, Note_on_c, 0, 58, 60
2, 610, Note_on_c, 0, 84, 60
2, 620, Note_on_c, 0, 58, 0
2, 620, Note_on_c, 0, 60, 60
2, 620, Note_on_c, 0, 72, 60
2, 626, Note_on_c, 0, 70, 0
2, 629, Note_on_c, 0, 82, 0
2, 675, Note_on_c, 0, 74, 60
2, 675, Note_on_c, 0, 62, 60
2, 678, Note_on_c, 0, 86, 60
2, 682, Note_on_c, 0, 84, 0
2, 685, Note_on_c, 0, 60, 0
2, 692, Note_on_c, 0, 72, 0
2, 745, Note_on_c, 0, 77, 60
2, 745, Note_on_c, 0, 89, 60
2, 745, Note_on_c, 0, 65, 60
2, 747, Note_on_c, 0, 74, 0
2, 747, Note_on_c, 0, 86, 0
2, 747, Note_on_c, 0, 62, 0
2, 803, Note_on_c, 0, 70, 60
2, 803, Note_on_c, 0, 82, 60
2, 803, Note_on_c, 0, 58, 60
2, 808, Note_on_c, 0, 89, 0
2, 815, Note_on_c, 0, 77, 0
2, 817, Note_on_c, 0, 65, 0
2, 873, Note_on_c, 0, 70, 0
2, 873, Note_on_c, 0, 82, 0
2, 873, Note_on_c, 0, 58, 0
2, 971, Control_c, 0, 64, 127
2, 1038, Note_on_c, 0, 82, 60
2, 1040, Note_on_c, 0, 70, 60
2, 1048, Note_on_c, 0, 55, 60
2, 1048, Note_on_c, 0, 43, 60
2, 1101, Note_on_c, 0, 70, 0
2, 1101, Note_on_c, 0, 84, 60
2, 1104, Note_on_c, 0, 55, 0
2, 1107, Note_on_c, 0, 43, 0
2, 1107, Note_on_c, 0, 82, 0
2, 1107, Note_on_c, 0, 72, 60
2, 1107, Note_on_c, 0, 45, 60
2, 1107, Note_on_c, 0, 57, 60
2, 1156, Note_on_c, 0, 86, 60
2, 1159, Note_on_c, 0, 74, 60
2, 1159, Note_on_c, 0, 58, 60
2, 1168, Note_on_c, 0, 72, 0
2, 1168, Note_on_c, 0, 84, 0
2, 1168, Note_on_c, 0, 46, 60
2, 1171, Note_on_c, 0, 57, 0
2, 1171, Note_on_c, 0, 45, 0
2, 1208, Control_c, 0, 64, 0
2, 1271, Note_on_c, 0, 87, 60
2, 1272, Note_on_c, 0, 86, 0
2, 1272, Note_on_c, 0, 74, 0
2, 1272, Note_on_c, 0, 67, 60
2, 1272, Note_on_c, 0, 70, 60
2, 1272, Note_on_c, 0, 75, 60
2, 1272, Note_on_c, 0, 79, 60
2, 1272, Note_on_c, 0, 82, 60
2, 1272, Note_on_c, 0, 60, 60
2, 1275, Note_on_c, 0, 58, 0
2, 1275, Note_on_c, 0, 46, 0
2, 1275, Note_on_c, 0, 48, 60
2, 1336, Note_on_c, 0, 60, 0
2, 1347, Note_on_c, 0, 48, 0
2, 1380, Note_on_c, 0, 61, 60
2, 1382, Note_on_c, 0, 49, 60
2, 1442, Note_on_c, 0, 61, 0
2, 1449, Note_on_c, 0, 49, 0
2, 1510, Note_on_c, 0, 78, 60
2, 1510, Note_on_c, 0, 81, 60
2, 1510, Note_on_c, 0, 86, 60
2, 1510, Note_on_c, 0, 74, 60
2, 1512, Note_on_c, 0, 66, 60
2, 1512, Note_on_c, 0, 69, 60
2, 1512, Note_on_c, 0, 62, 60
2, 1517, Note_on_c, 0, 79, 0
2, 1517, Note_on_c, 0, 87, 0
2, 1517, Note_on_c, 0, 70, 0
2, 1519, Note_on_c, 0, 82, 0
2, 1519, Note_on_c, 0, 75, 0
2, 1519, Note_on_c, 0, 50, 60
2, 1529, Note_on_c, 0, 67, 0
2, 1573, Note_on_c, 0, 86, 0
2, 1573, Note_on_c, 0, 81, 0
2, 1573, Note_on_c, 0, 78, 0
2, 1580, Note_on_c, 0, 69, 0
2, 1580, Note_on_c, 0, 62, 0
2, 1580, Note_on_c, 0, 74, 0
2, 1582, Note_on_c, 0, 50, 0
2, 1582, Note_on_c, 0, 66, 0
2, 1727, Control_c, 0, 64, 127
2, 1752, Note_on_c, 0, 77, 60
2, 1752, Note_on_c, 0, 81, 60
2, 1752, Note_on_c, 0, 87, 60
2, 1752, Note_on_c, 0, 89, 60
2, 1752, Note_on_c, 0, 75, 60
2, 1754, Note_on_c, 0, 48, 60
2, 1754, Note_on_c, 0, 53, 60
2, 1754, Note_on_c, 0, 57, 60
2, 1754, Note_on_c, 0, 60, 60
2, 1754, Note_on_c, 0, 63, 60
2, 1754, Note_on_c, 0, 65, 60
2, 1754, Note_on_c, 0, 69, 60
2, 1754, Note_on_c, 0, 36, 60
2, 1758, Note_on_c, 0, 101, 60
2, 1810, Note_on_c, 0, 101, 0
2, 1810, Note_on_c, 0, 63, 0
2, 1810, Note_on_c, 0, 75, 0
2, 1810, Note_on_c, 0, 77, 0
2, 1810, Note_on_c, 0, 57, 0
2, 1810, Note_on_c, 0, 87, 0
2, 1810, Note_on_c, 0, 89, 0
2, 1810, Note_on_c, 0, 60, 0
2, 1810, Note_on_c, 0, 65, 0
2, 1810, Note_on_c, 0, 81, 0
2, 1810, Note_on_c, 0, 69, 0
2, 1812, Note_on_c, 0, 48, 0
2, 1812, Note_on_c, 0, 53, 0
2, 1845, Note_on_c, 0, 36, 0
2, 1851, Control_c, 0, 64, 0
2, 1868, Note_on_c, 0, 41, 60
2, 1966, Note_on_c, 0, 41, 0
2, 1984, Note_on_c, 0, 77, 60
2, 1992, Note_on_c, 0, 89, 60
2, 1993, Note_on_c, 0, 74, 60
2, 1993, Note_on_c, 0, 65, 60
2, 1995, Note_on_c, 0, 46, 60
2, 2003, Note_on_c, 0, 70, 60
2, 2077, Note_on_c, 0, 46, 0
2, 2098, Note_on_c, 0, 62, 60
2, 2098, Note_on_c, 0, 58, 60
2, 2100, Note_on_c, 0, 53, 60
2, 2137, Note_on_c, 0, 53, 0
2, 2137, Note_on_c, 0, 58, 0
2, 2137, Note_on_c, 0, 62, 0
2, 2216, Note_on_c, 0, 41, 60
2, 2231, Note_on_c, 0, 77, 0
2, 2231, Note_on_c, 0, 65, 0
2, 2275, Note_on_c, 0, 77, 60
2, 2284, Note_on_c, 0, 70, 0
2, 2284, Note_on_c, 0, 65, 60
2, 2309, Note_on_c, 0, 41, 0
2, 2337, Note_on_c, 0, 74, 0
2, 2337, Note_on_c, 0, 89, 0
2, 2337, Note_on_c, 0, 58, 60
2, 2337, Note_on_c, 0, 62, 60
2, 2337, Note_on_c, 0, 70, 60
2, 2337, Note_on_c, 0, 82, 60
2, 2337, Note_on_c, 0, 53, 60
2, 2347, Note_on_c, 0, 77, 0
2, 2347, Note_on_c, 0, 65, 0
2, 2376, Note_on_c, 0, 58, 0
2, 2376, Note_on_c, 0, 62, 0
2, 2376, Note_on_c, 0, 53, 0
2, 2389, Note_on_c, 0, 86, 60
2, 2389, Note_on_c, 0, 74, 60
2, 2398, Note_on_c, 0, 82, 0
2, 2398, Note_on_c, 0, 70, 0
2, 2445, Note_on_c, 0, 79, 60
2, 2445, Note_on_c, 0, 91, 60
2, 2445, Note_on_c, 0, 73, 60
2, 2447, Note_on_c, 0, 70, 60
2, 2447, Note_on_c, 0, 67, 60
2, 2453, Note_on_c, 0, 86, 0
2, 2456, Note_on_c, 0, 46, 60
2, 2461, Note_on_c, 0, 74, 0
2, 2542, Note_on_c, 0, 46, 0
2, 2569, Note_on_c, 0, 55, 60
2, 2569, Note_on_c, 0, 58, 60
2, 2569, Note_on_c, 0, 61, 60
2, 2569, Note_on_c, 0, 52, 60
2, 2607, Note_on_c, 0, 61, 0
2, 2607, Note_on_c, 0, 58, 0
2, 2610, Note_on_c, 0, 52, 0
2, 2610, Note_on_c, 0, 55, 0
2, 2638, Note_on_c, 0, 70, 0
2, 2682, Note_on_c, 0, 89, 60
2, 2684, Note_on_c, 0, 70, 60
2, 2684, Note_on_c, 0, 74, 60
2, 2684, Note_on_c, 0, 77, 60
2, 2684, Note_on_c, 0, 65, 60
2, 2690, Note_on_c, 0, 73, 0
2, 2690, Note_on_c, 0, 91, 0
2, 2690, Note_on_c, 0, 79, 0
2, 2693, Note_on_c, 0, 46, 60
2, 2700, Note_on_c, 0, 67, 0
2, 2777, Note_on_c, 0, 46, 0
2, 2798, Note_on_c, 0, 62, 60
2, 2800, Note_on_c, 0, 58, 60
2, 2800, Note_on_c, 0, 53, 60
2, 2837, Note_on_c, 0, 53, 0
2, 2837, Note_on_c, 0, 58, 0
2, 2837, Note_on_c, 0, 62, 0
2, 2877, Note_on_c, 0, 77, 0
2, 2880, Note_on_c, 0, 74, 0
2, 2921, Note_on_c, 0, 98, 60
2, 2924, Note_on_c, 0, 77, 60
2, 2924, Note_on_c, 0, 82, 60
2, 2924, Note_on_c, 0, 86, 60
2, 2924, Note_on_c, 0, 74, 60
2, 2930, Note_on_c, 0, 46, 60
2, 2953, Note_on_c, 0, 70, 0
2, 2953, Note_on_c, 0, 65, 0
2, 2953, Note_on_c, 0, 89, 0
2, 3019, Note_on_c, 0, 46, 0
2, 3030, Note_on_c, 0, 62, 60
2, 3032, Note_on_c, 0, 58, 60
2, 3032, Note_on_c, 0, 53, 60
2, 3070, Note_on_c, 0, 53, 0
2, 3070, Note_on_c, 0, 58, 0
2, 3070, Note_on_c, 0, 62, 0
2, 3153, Note_on_c, 0, 53, 60
2, 3156, Note_on_c, 0, 41, 60
2, 3168, Note_on_c, 0, 77, 0
2, 3214, Note_on_c, 0, 89, 60
2, 3214, Note_on_c, 0, 77, 60
2, 3230, Note_on_c, 0, 82, 0
2, 3233, Note_on_c, 0, 53, 0
2, 3240, Note_on_c, 0, 74, 0
2, 3246, Note_on_c, 0, 41, 0
2, 3256, Note_on_c, 0, 98, 0
2, 3258, Note_on_c, 0, 86, 0
2, 3272, Note_on_c, 0, 94, 60
2, 3277, Note_on_c, 0, 82, 60
2, 3279, Note_on_c, 0, 58, 60
2, 3279, Note_on_c, 0, 62, 60
2, 3279, Note_on_c, 0, 53, 60
2, 3288, Note_on_c, 0, 77, 0
2, 3288, Note_on_c, 0, 89, 0
2, 3316, Note_on_c, 0, 58, 0
2, 3316, Note_on_c, 0, 62, 0
2, 3318, Note_on_c, 0, 53, 0
2, 3335, Note_on_c, 0, 98, 60
2, 3335, Note_on_c, 0, 86, 60
2, 3341, Note_on_c, 0, 94, 0
2, 3341, Note_on_c, 0, 82, 0
2, 3395, Note_on_c, 0, 99, 60
2, 3397, Note_on_c, 0, 98, 0
2, 3397, Note_on_c, 0, 81, 60
2, 3397, Note_on_c, 0, 87, 60
2, 3397, Note_on_c, 0, 75, 60
2, 3400, Note_on_c, 0, 86, 0
2, 3400, Note_on_c, 0, 54, 60
2, 3400, Note_on_c, 0, 42, 60
2, 3483, Note_on_c, 0, 54, 0
2, 3485, Note_on_c, 0, 42, 0
2, 3514, Note_on_c, 0, 60, 60
2, 3514, Note_on_c, 0, 63, 60
2, 3514, Note_on_c, 0, 57, 60
2, 3553, Note_on_c, 0, 57, 0
2, 3553, Note_on_c, 0, 60, 0
2, 3553, Note_on_c, 0, 63, 0
2, 3630, Note_on_c, 0, 98, 60
2, 3632, Note_on_c, 0, 87, 0
2, 3632, Note_on_c, 0, 99, 0
2, 3632, Note_on_c, 0, 81, 0
2, 3632, Note_on_c, 0, 82, 60
2, 3632, Note_on_c, 0, 86, 60
2, 3634, Note_on_c, 0, 75, 0
2, 3634, Note_on_c, 0, 55, 60
2, 3634, Note_on_c, 0, 74, 60
2, 3634, Note_on_c, 0, 43, 60
2, 3709, Note_on_c, 0, 55, 0
2, 3725, Note_on_c, 0, 43, 0
2, 3755, Note_on_c, 0, 58, 60
2, 3755, Note_on_c, 0, 62, 60
2, 3755, Note_on_c, 0, 55, 60
2, 3792, Note_on_c, 0, 55, 0
2, 3792, Note_on_c, 0, 58, 0
2, 3792, Note_on_c, 0, 62, 0
2, 3874, Note_on_c, 0, 51, 60
2, 3876, Note_on_c, 0, 39, 60
2, 3881, Note_on_c, 0, 79, 60
2, 3881, Note_on_c, 0, 84, 60
2, 3881, Note_on_c, 0, 96, 60
2, 3881, Note_on_c, 0, 72, 60
2, 3884, Note_on_c, 0, 98, 0
2, 3884, Note_on_c, 0, 75, 60
2, 3890, Note_on_c, 0, 74, 0
2, 3890, Note_on_c, 0, 86, 0
2, 3890, Note_on_c, 0, 82, 0
2, 3943, Note_on_c, 0, 84, 0
2, 3943, Note_on_c, 0, 96, 0
2, 3946, Note_on_c, 0, 75, 0
2, 3946, Note_on_c, 0, 79, 0
2, 3953, Note_on_c, 0, 72, 0
2, 3962, Note_on_c, 0, 39, 0
2, 3972, Note_on_c, 0, 51, 0
2, 4007, Note_on_c, 0, 82, 60
2, 4007, Note_on_c, 0, 94, 60
2, 4007, Note_on_c, 0, 79, 60
2, 4008, Note_on_c, 0, 58, 60
2, 4008, Note_on_c, 0, 63, 60
2, 4008, Note_on_c, 0, 75, 60
2, 4008, Note_on_c, 0, 55, 60
2, 4016, Note_on_c, 0, 70, 60
2, 4046, Note_on_c, 0, 55, 0
2, 4046, Note_on_c, 0, 58, 0
2, 4046, Note_on_c, 0, 63, 0
2, 4116, Note_on_c, 0, 51, 60
2, 4116, Note_on_c, 0, 39, 60
2, 4167, Note_on_c, 0, 90, 60
2, 4169, Note_on_c, 0, 79, 0
2, 4169, Note_on_c, 0, 78, 60
2, 4193, Note_on_c, 0, 94, 0
2, 4201, Note_on_c, 0, 75, 0
2, 4201, Note_on_c, 0, 39, 0
2, 4201, Note_on_c, 0, 70, 0
2, 4201, Note_on_c, 0, 82, 0
2, 4201, Note_on_c, 0, 51, 0
2, 4221, Note_on_c, 0, 91, 60
2, 4223, Note_on_c, 0, 79, 60
2, 4229, Note_on_c, 0, 63, 60
2, 4232, Note_on_c, 0, 78, 0
2, 4232, Note_on_c, 0, 58, 60
2, 4232, Note_on_c, 0, 55, 60
2, 4239, Note_on_c, 0, 90, 0
2, 4262, Note_on_c, 0, 58, 0
2, 4262, Note_on_c, 0, 63, 0
2, 4262, Note_on_c, 0, 55, 0
2, 4293, Note_on_c, 0, 85, 60
2, 4293, Note_on_c, 0, 73, 60
2, 4316, Note_on_c, 0, 79, 0
2, 4316, Note_on_c, 0, 91, 0
2, 4339, Note_on_c, 0, 86, 60
2, 4339, Note_on_c, 0, 74, 60
2, 4342, Note_on_c, 0, 46, 60
2, 4345, Note_on_c, 0, 85, 0
2, 4345, Note_on_c, 0, 73, 0
2, 4406, Note_on_c, 0, 74, 0
2, 4406, Note_on_c, 0, 86, 0
2, 4406, Note_on_c, 0, 77, 60
2, 4406, Note_on_c, 0, 65, 60
2, 4432, Note_on_c, 0, 46, 0
2, 4469, Note_on_c, 0, 67, 60
2, 4469, Note_on_c, 0, 79, 60
2, 4469, Note_on_c, 0, 62, 60
2, 4471, Note_on_c, 0, 77, 0
2, 4471, Note_on_c, 0, 58, 60
2, 4471, Note_on_c, 0, 53, 60
2, 4478, Note_on_c, 0, 65, 0
2, 4504, Note_on_c, 0, 58, 0
2, 4504, Note_on_c, 0, 62, 0
2, 4509, Note_on_c, 0, 53, 0
2, 4522, Note_on_c, 0, 79, 0
2, 4522, Note_on_c, 0, 82, 60
2, 4525, Note_on_c, 0, 70, 60
2, 4534, Note_on_c, 0, 67, 0
2, 4581, Note_on_c, 0, 41, 60
2, 4648, Note_on_c, 0, 84, 60
2, 4648, Note_on_c, 0, 72, 60
2, 4657, Note_on_c, 0, 70, 0
2, 4657, Note_on_c, 0, 82, 0
2, 4674, Note_on_c, 0, 41, 0
2, 4702, Note_on_c, 0, 86, 60
2, 4713, Note_on_c, 0, 58, 60
2, 4713, Note_on_c, 0, 62, 60
2, 4713, Note_on_c, 0, 74, 60
2, 4713, Note_on_c, 0, 53, 60
2, 4720, Note_on_c, 0, 84, 0
2, 4720, Note_on_c, 0, 72, 0
2, 4751, Note_on_c, 0, 58, 0
2, 4751, Note_on_c, 0, 62, 0
2, 4751, Note_on_c, 0, 53, 0
2, 4767, Note_on_c, 0, 89, 60
2, 4767, Note_on_c, 0, 77, 60
2, 4776, Note_on_c, 0, 74, 0
2, 4776, Note_on_c, 0, 86, 0
2, 4823, Note_on_c, 0, 84, 60
2, 4829, Note_on_c, 0, 75, 60
2, 4829, Note_on_c, 0, 79, 60
2, 4829, Note_on_c, 0, 96, 60
2, 4829, Note_on_c, 0, 72, 60
2, 4831, Note_on_c, 0, 89, 0
2, 4831, Note_on_c, 0, 77, 0
2, 4831, Note_on_c, 0, 51, 60
2, 4831, Note_on_c, 0, 39, 60
2, 4892, Note_on_c, 0, 84, 0
2, 4892, Note_on_c, 0, 96, 0
2, 4892, Note_on_c, 0, 75, 0
2, 4892, Note_on_c, 0, 79, 0
2, 4892, Note_on_c, 0, 72, 0
2, 4920, Note_on_c, 0, 39, 0
2, 4922, Note_on_c, 0, 51, 0
2, 4922, Control_c, 0, 64, 127
2, 4944, Note_on_c, 0, 82, 60
2, 4950, Note_on_c, 0, 75, 60
2, 4950, Note_on_c, 0, 79, 60
2, 4950, Note_on_c, 0, 94, 60
2, 4950, Note_on_c, 0, 70, 60
2, 4952, Note_on_c, 0, 58, 60
2, 4952, Note_on_c, 0, 63, 60
2, 4952, Note_on_c, 0, 55, 60
2, 4990, Note_on_c, 0, 55, 0
2, 4990, Note_on_c, 0, 63, 0
2, 4990, Note_on_c, 0, 58, 0
2, 5057, Note_on_c, 0, 39, 60
2, 5060, Note_on_c, 0, 51, 60
2, 5117, Note_on_c, 0, 90, 60
2, 5117, Note_on_c, 0, 78, 60
2, 5127, Note_on_c, 0, 79, 0
2, 5129, Control_c, 0, 64, 0
2, 5143, Note_on_c, 0, 94, 0
2, 5143, Note_on_c, 0, 51, 0
2, 5143, Note_on_c, 0, 82, 0
2, 5145, Note_on_c, 0, 39, 0
2, 5181, Note_on_c, 0, 91, 60
2, 5181, Note_on_c, 0, 79, 60
2, 5183, Note_on_c, 0, 75, 0
2, 5183, Note_on_c, 0, 78, 0
2, 5183, Note_on_c, 0, 58, 60
2, 5183, Note_on_c, 0, 63, 60
2, 5183, Note_on_c, 0, 55, 60
2, 5189, Note_on_c, 0, 70, 0
2, 5189, Note_on_c, 0, 90, 0
2, 5225, Note_on_c, 0, 63, 0
2, 5225, Note_on_c, 0, 58, 0
2, 5225, Note_on_c, 0, 55, 0
2, 5238, Note_on_c, 0, 87, 60
2, 5238, Note_on_c, 0, 75, 60
2, 5245, Note_on_c, 0, 79, 0
2, 5245, Note_on_c, 0, 91, 0
2, 5299, Note_on_c, 0, 74, 60
2, 5299, Note_on_c, 0, 86, 60
2, 5299, Note_on_c, 0, 46, 60
2, 5302, Note_on_c, 0, 87, 0
2, 5310, Note_on_c, 0, 75, 0
2, 5394, Note_on_c, 0, 46, 0
2, 5408, Note_on_c, 0, 62, 60
2, 5415, Note_on_c, 0, 58, 60
2, 5418, Note_on_c, 0, 53, 60
2, 5418, Control_c, 0, 64, 127
2, 5452, Note_on_c, 0, 53, 0
2, 5452, Note_on_c, 0, 62, 0
2, 5452, Note_on_c, 0, 58, 0
2, 5536, Note_on_c, 0, 72, 60
2, 5536, Note_on_c, 0, 84, 60
2, 5536, Note_on_c, 0, 63, 60
2, 5538, Note_on_c, 0, 74, 0
2, 5538, Note_on_c, 0, 86, 0
2, 5538, Note_on_c, 0, 57, 60
2, 5538, Note_on_c, 0, 53, 60
2, 5596, Note_on_c, 0, 53, 0
2, 5596, Note_on_c, 0, 84, 0
2, 5596, Note_on_c, 0, 63, 0
2, 5596, Note_on_c, 0, 72, 0
2, 5596, Note_on_c, 0, 57, 0
2, 5624, Control_c, 0, 64, 0
2, 5650, Note_on_c, 0, 69, 60
2, 5650, Note_on_c, 0, 75, 60
2, 5650, Note_on_c, 0, 77, 60
2, 5650, Note_on_c, 0, 89, 60
2, 5650, Note_on_c, 0, 65, 60
2, 5652, Note_on_c, 0, 53, 60
2, 5652, Note_on_c, 0, 41, 60
2, 5712, Note_on_c, 0, 53, 0
2, 5712, Note_on_c, 0, 89, 0
2, 5712, Note_on_c, 0, 75, 0
2, 5712, Note_on_c, 0, 77, 0
2, 5712, Note_on_c, 0, 65, 0
2, 5714, Note_on_c, 0, 41, 0
2, 5719, Note_on_c, 0, 69, 0
2, 5745, Control_c, 0, 64, 127
2, 5763, Note_on_c, 0, 70, 60
2, 5771, Note_on_c, 0, 89, 60
2, 5773, Note_on_c, 0, 74, 60
2, 5773, Note_on_c, 0, 77, 60
2, 5773, Note_on_c, 0, 65, 60
2, 5775, Note_on_c, 0, 46, 60
2, 5859, Note_on_c, 0, 46, 0
2, 5880, Note_on_c, 0, 62, 60
2, 5889, Note_on_c, 0, 58, 60
2, 5889, Note_on_c, 0, 53, 60
2, 5920, Note_on_c, 0, 58, 0
2, 5920, Note_on_c, 0, 62, 0
2, 5928, Note_on_c, 0, 53, 0
2, 5989, Note_on_c, 0, 41, 60
2, 6020, Note_on_c, 0, 77, 0
2, 6026, Note_on_c, 0, 65, 0
2, 6064, Note_on_c, 0, 77, 60
2, 6064, Note_on_c, 0, 65, 60
2, 6072, Note_on_c, 0, 70, 0
2, 6082, Note_on_c, 0, 41, 0
2, 6126, Note_on_c, 0, 58, 60
2, 6128, Note_on_c, 0, 74, 0
2, 6128, Note_on_c, 0, 77, 0
2, 6133, Note_on_c, 0, 82, 60
2, 6133, Note_on_c, 0, 70, 60
2, 6136, Note_on_c, 0, 65, 0
2, 6136, Note_on_c, 0, 62, 60
2, 6136, Note_on_c, 0, 53, 60
2, 6149, Note_on_c, 0, 89, 0
2, 6175, Note_on_c, 0, 58, 0
2, 6175, Note_on_c, 0, 62, 0
2, 6175, Note_on_c, 0, 53, 0
2, 6182, Note_on_c, 0, 86, 60
2, 6182, Note_on_c, 0, 74, 60
2, 6185, Control_c, 0, 64, 0
2, 6198, Note_on_c, 0, 82, 0
2, 6198, Note_on_c, 0, 70, 0
2, 6238, Note_on_c, 0, 91, 60
2, 6247, Note_on_c, 0, 86, 0
2, 6247, Note_on_c, 0, 74, 0
2, 6247, Note_on_c, 0, 70, 60
2, 6247, Note_on_c, 0, 73, 60
2, 6247, Note_on_c, 0, 79, 60
2, 6247, Note_on_c, 0, 67, 60
2, 6249, Note_on_c, 0, 46, 60
2, 6249, Control_c, 0, 64, 127
2, 6334, Note_on_c, 0, 46, 0
2, 6354, Note_on_c, 0, 61, 60
2, 6357, Note_on_c, 0, 58, 60
2, 6363, Note_on_c, 0, 55, 60
2, 6363, Note_on_c, 0, 52, 60
2, 6394, Note_on_c, 0, 52, 0
2, 6394, Note_on_c, 0, 58, 0
2, 6394, Note_on_c, 0, 61, 0
2, 6401, Note_on_c, 0, 55, 0
2, 6450, Note_on_c, 0, 70, 0
2, 6489, Note_on_c, 0, 70, 60
2, 6489, Note_on_c, 0, 74, 60
2, 6489, Note_on_c, 0, 77, 60
2, 6489, Note_on_c, 0, 89, 60
2, 6489, Note_on_c, 0, 65, 60
2, 6491, Note_on_c, 0, 46, 60
2, 6498, Note_on_c, 0, 73, 0
2, 6505, Note_on_c, 0, 91, 0
2, 6507, Note_on_c, 0, 79, 0
2, 6507, Note_on_c, 0, 67, 0
2, 6524, Control_c, 0, 64, 0
2, 6589, Note_on_c, 0, 46, 0
2, 6600, Note_on_c, 0, 62, 60
2, 6600, Note_on_c, 0, 58, 60
2, 6602, Note_on_c, 0, 53, 60
2, 6640, Note_on_c, 0, 53, 0
2, 6640, Note_on_c, 0, 58, 0
2, 6640, Note_on_c, 0, 62, 0
2, 6663, Note_on_c, 0, 74, 0
2, 6663, Note_on_c, 0, 77, 0
2, 6723, Note_on_c, 0, 98, 60
2, 6726, Note_on_c, 0, 77, 60
2, 6726, Note_on_c, 0, 82, 60
2, 6726, Note_on_c, 0, 86, 60
2, 6726, Note_on_c, 0, 74, 60
2, 6728, Note_on_c, 0, 46, 60
2, 6728, Control_c, 0, 64, 127
2, 6743, Note_on_c, 0, 70, 0
2, 6744, Note_on_c, 0, 89, 0
2, 6744, Note_on_c, 0, 65, 0
2, 6821, Note_on_c, 0, 46, 0
2, 6836, Note_on_c, 0, 62, 60
2, 6838, Note_on_c, 0, 58, 60
2, 6838, Note_on_c, 0, 53, 60
2, 6875, Note_on_c, 0, 53, 0
2, 6875, Note_on_c, 0, 58, 0
2, 6875, Note_on_c, 0, 62, 0
2, 6954, Note_on_c, 0, 53, 60
2, 6954, Note_on_c, 0, 41, 60
2, 6959, Note_on_c, 0, 77, 0
2, 7009, Note_on_c, 0, 89, 60
2, 7012, Note_on_c, 0, 77, 60
2, 7029, Note_on_c, 0, 53, 0
2, 7029, Note_on_c, 0, 82, 0
2, 7037, Control_c, 0, 64, 0
2, 7042, Note_on_c, 0, 98, 0
2, 7044, Note_on_c, 0, 74, 0
2, 7044, Note_on_c, 0, 86, 0
2, 7044, Note_on_c, 0, 41, 0
2, 7063, Note_on_c, 0, 94, 60
2, 7065, Note_on_c, 0, 58, 60
2, 7073, Note_on_c, 0, 62, 60
2, 7073, Note_on_c, 0, 82, 60
2, 7073, Note_on_c, 0, 53, 60
2, 7081, Note_on_c, 0, 89, 0
2, 7081, Note_on_c, 0, 77, 0
2, 7132, Note_on_c, 0, 98, 60
2, 7135, Note_on_c, 0, 86, 60
2, 7137, Note_on_c, 0, 58, 0
2, 7137, Note_on_c, 0, 62, 0
2, 7137, Note_on_c, 0, 53, 0
2, 7158, Note_on_c, 0, 94, 0
2, 7158, Note_on_c, 0, 82, 0
2, 7189, Note_on_c, 0, 99, 60
2, 7191, Note_on_c, 0, 81, 60
2, 7191, Note_on_c, 0, 87, 60
2, 7191, Note_on_c, 0, 75, 60
2, 7193, Note_on_c, 0, 42, 60
2, 7193, Note_on_c, 0, 54, 60
2, 7193, Control_c, 0, 64, 127
2, 7200, Note_on_c, 0, 98, 0
2, 7200, Note_on_c, 0, 86, 0
2, 7277, Note_on_c, 0, 54, 0
2, 7284, Note_on_c, 0, 42, 0
2, 7312, Note_on_c, 0, 63, 60
2, 7314, Note_on_c, 0, 60, 60
2, 7314, Note_on_c, 0, 57, 60
2, 7351, Note_on_c, 0, 60, 0
2, 7351, Note_on_c, 0, 63, 0
2, 7354, Note_on_c, 0, 57, 0
2, 7428, Note_on_c, 0, 86, 60
2, 7428, Note_on_c, 0, 98, 60
2, 7428, Note_on_c, 0, 82, 60
2, 7430, Note_on_c, 0, 75, 0
2, 7430, Note_on_c, 0, 87, 0
2, 7430, Note_on_c, 0, 81, 0
2, 7430, Note_on_c, 0, 99, 0
2, 7430, Note_on_c, 0, 55, 60
2, 7430, Note_on_c, 0, 74, 60
2, 7430, Note_on_c, 0, 43, 60
2, 7490, Note_on_c, 0, 55, 0
2, 7502, Control_c, 0, 64, 0
2, 7526, Note_on_c, 0, 43, 0
2, 7537, Note_on_c, 0, 62, 60
2, 7537, Note_on_c, 0, 58, 60
2, 7539, Note_on_c, 0, 55, 60
2, 7577, Note_on_c, 0, 55, 0
2, 7577, Note_on_c, 0, 62, 0
2, 7577, Note_on_c, 0, 58, 0
2, 7665, Note_on_c, 0, 96, 60
2, 7667, Note_on_c, 0, 75, 60
2, 7667, Note_on_c, 0, 79, 60
2, 7667, Note_on_c, 0, 84, 60
2, 7667, Note_on_c, 0, 72, 60
2, 7670, Note_on_c, 0, 51, 60
2, 7670, Note_on_c, 0, 39, 60
2, 7677, Note_on_c, 0, 74, 0
2, 7680, Control_c, 0, 64, 127
2, 7683, Note_on_c, 0, 82, 0
2, 7683, Note_on_c, 0, 98, 0
2, 7683, Note_on_c, 0, 86, 0
2, 7726, Note_on_c, 0, 75, 0
2, 7728, Note_on_c, 0, 84, 0
2, 7728, Note_on_c, 0, 72, 0
2, 7728, Note_on_c, 0, 96, 0
2, 7728, Note_on_c, 0, 79, 0
2, 7755, Note_on_c, 0, 51, 0
2, 7763, Note_on_c, 0, 39, 0
2, 7783, Note_on_c, 0, 94, 60
2, 7786, Note_on_c, 0, 63, 60
2, 7786, Note_on_c, 0, 70, 60
2, 7786, Note_on_c, 0, 75, 60
2, 7786, Note_on_c, 0, 79, 60
2, 7786, Note_on_c, 0, 82, 60
2, 7786, Note_on_c, 0, 58, 60
2, 7788, Note_on_c, 0, 55, 60
2, 7825, Note_on_c, 0, 55, 0
2, 7825, Note_on_c, 0, 58, 0
2, 7825, Note_on_c, 0, 63, 0
2, 7897, Note_on_c, 0, 51, 60
2, 7897, Note_on_c, 0, 39, 60
2, 7946, Note_on_c, 0, 90, 60
2, 7946, Note_on_c, 0, 78, 60
2, 7948, Note_on_c, 0, 79, 0
2, 7948, Note_on_c, 0, 94, 0
2, 7956, Note_on_c, 0, 75, 0
2, 7956, Note_on_c, 0, 70, 0
2, 7956, Note_on_c, 0, 82, 0
2, 7981, Note_on_c, 0, 51, 0
2, 7981, Control_c, 0, 64, 0
2, 7991, Note_on_c, 0, 39, 0
2, 8018, Note_on_c, 0, 91, 60
2, 8020, Note_on_c, 0, 78, 0
2, 8020, Note_on_c, 0, 58, 60
2, 8020, Note_on_c, 0, 63, 60
2, 8020, Note_on_c, 0, 79, 60
2, 8020, Note_on_c, 0, 55, 60
2, 8028, Note_on_c, 0, 90, 0
2, 8051, Note_on_c, 0, 63, 0
2, 8051, Note_on_c, 0, 55, 0
2, 8058, Note_on_c, 0, 58, 0
2, 8072, Note_on_c, 0, 85, 60
2, 8079, Note_on_c, 0, 73, 60
2, 8105, Note_on_c, 0, 79, 0
2, 8105, Note_on_c, 0, 91, 0
2, 8135, Note_on_c, 0, 86, 60
2, 8136, Note_on_c, 0, 85, 0
2, 8136, Note_on_c, 0, 73, 0
2, 8136, Note_on_c, 0, 74, 60
2, 8136, Note_on_c, 0, 46, 60
2, 8195, Note_on_c, 0, 77, 60
2, 8205, Note_on_c, 0, 65, 60
2, 8218, Note_on_c, 0, 74, 0
2, 8218, Note_on_c, 0, 86, 0
2, 8221, Note_on_c, 0, 46, 0
2, 8241, Note_on_c, 0, 58, 60
2, 8249, Note_on_c, 0, 79, 60
2, 8249, Note_on_c, 0, 67, 60
2, 8251, Note_on_c, 0, 62, 60
2, 8251, Note_on_c, 0, 53, 60
2, 8256, Note_on_c, 0, 65, 0
2, 8262, Note_on_c, 0, 77, 0
2, 8277, Note_on_c, 0, 62, 0
2, 8285, Note_on_c, 0, 53, 0
2, 8285, Note_on_c, 0, 58, 0
2, 8304, Note_on_c, 0, 82, 60
2, 8314, Note_on_c, 0, 70, 60
2, 8329, Note_on_c, 0, 79, 0
2, 8332, Note_on_c, 0, 67, 0
2, 8362, Note_on_c, 0, 50, 60
2, 8370, Note_on_c, 0, 38, 60
2, 8423, Note_on_c, 0, 84, 60
2, 8423, Note_on_c, 0, 72, 60
2, 8439, Note_on_c, 0, 82, 0
2, 8439, Note_on_c, 0, 70, 0
2, 8462, Note_on_c, 0, 38, 0
2, 8462, Note_on_c, 0, 50, 0
2, 8483, Note_on_c, 0, 62, 60
2, 8483, Note_on_c, 0, 74, 60
2, 8483, Note_on_c, 0, 86, 60
2, 8483, Note_on_c, 0, 58, 60
2, 8486, Note_on_c, 0, 53, 60
2, 8506, Note_on_c, 0, 72, 0
2, 8506, Note_on_c, 0, 84, 0
2, 8522, Note_on_c, 0, 58, 0
2, 8522, Note_on_c, 0, 53, 0
2, 8544, Note_on_c, 0, 89, 60
2, 8546, Note_on_c, 0, 74, 0
2, 8546, Note_on_c, 0, 62, 0
2, 8546, Note_on_c, 0, 86, 0
2, 8546, Note_on_c, 0, 77, 60
2, 8579, Control_c, 0, 64, 127
2, 8607, Note_on_c, 0, 89, 0
2, 8607, Note_on_c, 0, 55, 60
2, 8607, Note_on_c, 0, 64, 60
2, 8607, Note_on_c, 0, 70, 60
2, 8607, Note_on_c, 0, 82, 60
2, 8607, Note_on_c, 0, 43, 60
2, 8614, Note_on_c, 0, 77, 0
2, 8692, Note_on_c, 0, 55, 0
2, 8699, Note_on_c, 0, 43, 0
2, 8715, Note_on_c, 0, 54, 60
2, 8715, Note_on_c, 0, 42, 60
2, 8804, Note_on_c, 0, 54, 0
2, 8813, Note_on_c, 0, 42, 0
2, 8834, Note_on_c, 0, 53, 60
2, 8836, Note_on_c, 0, 41, 60
2, 8860, Control_c, 0, 64, 0
2, 8897, Note_on_c, 0, 82, 0
2, 8906, Note_on_c, 0, 70, 0
2, 8906, Note_on_c, 0, 64, 0
2, 8969, Note_on_c, 0, 69, 60
2, 8969, Note_on_c, 0, 72, 60
2, 8969, Note_on_c, 0, 84, 60
2, 8969, Note_on_c, 0, 63, 60
2, 9034, Note_on_c, 0, 63, 0
2, 9034, Note_on_c, 0, 84, 0
2, 9041, Note_on_c, 0, 69, 0
2, 9041, Note_on_c, 0, 72, 0
2, 9083, Note_on_c, 0, 62, 60
2, 9083, Note_on_c, 0, 70, 60
2, 9083, Note_on_c, 0, 82, 60
2, 9083, Note_on_c, 0, 58, 60
2, 9085, Note_on_c, 0, 46, 60
2, 9095, Control_c, 0, 64, 127
2, 9101, Note_on_c, 0, 53, 0
2, 9101, Note_on_c, 0, 41, 0
2, 9201, Note_on_c, 0, 77, 60
2, 9201, Note_on_c, 0, 65, 60
2, 9227, Note_on_c, 0, 65, 0
2, 9227, Note_on_c, 0, 62, 0
2, 9227, Note_on_c, 0, 46, 0
2, 9227, Note_on_c, 0, 82, 0
2, 9227, Note_on_c, 0, 70, 0
2, 9227, Note_on_c, 0, 77, 0
2, 9227, Note_on_c, 0, 58, 0
2, 9255, Note_on_c, 0, 77, 60
2, 9255, Note_on_c, 0, 65, 60
2, 9266, Control_c, 0, 64, 0
2, 9283, Note_on_c, 0, 77, 0
2, 9288, Note_on_c, 0, 65, 0
2, 9327, Note_on_c, 0, 77, 60
2, 9327, Note_on_c, 0, 65, 60
2, 9407, Note_on_c, 0, 65, 0
2, 9407, Note_on_c, 0, 77, 0
2, 9448, Note_on_c, 0, 77, 60
2, 9448, Note_on_c, 0, 65, 60
2, 9508, Note_on_c, 0, 77, 0
2, 9518, Note_on_c, 0, 65, 0
2, 9562, Note_on_c, 0, 89, 60
2, 9567, Note_on_c, 0, 70, 60
2, 9569, Note_on_c, 0, 74, 60
2, 9569, Note_on_c, 0, 77, 60
2, 9569, Note_on_c, 0, 65, 60
2, 9571, Note_on_c, 0, 46, 60
2, 9571, Control_c, 0, 64, 127
2, 9652, Note_on_c, 0, 46, 0
2, 9680, Note_on_c, 0, 62, 60
2, 9683, Note_on_c, 0, 58, 60
2, 9683, Note_on_c, 0, 53, 60
2, 9703, Note_on_c, 0, 65, 0
2, 9718, Note_on_c, 0, 53, 0
2, 9718, Note_on_c, 0, 62, 0
2, 9718, Note_on_c, 0, 58, 0
2, 9734, Note_on_c, 0, 65, 60
2, 9785, Note_on_c, 0, 41, 60
2, 9801, Note_on_c, 0, 77, 0
2, 9817, Note_on_c, 0, 65, 0
2, 9843, Note_on_c, 0, 77, 60
2, 9843, Note_on_c, 0, 65, 60
2, 9852, Note_on_c, 0, 89, 0
2, 9860, Note_on_c, 0, 70, 0
2, 9871, Note_on_c, 0, 41, 0
2, 9904, Note_on_c, 0, 82, 60
2, 9906, Note_on_c, 0, 74, 0
2, 9906, Note_on_c, 0, 65, 0
2, 9906, Note_on_c, 0, 77, 0
2, 9906, Note_on_c, 0, 58, 60
2, 9906, Note_on_c, 0, 70, 60
2, 9906, Note_on_c, 0, 53, 60
2, 9911, Note_on_c, 0, 62, 60
2, 9912, Control_c, 0, 64, 0
2, 9957, Note_on_c, 0, 86, 60
2, 9966, Note_on_c, 0, 62, 0
2, 9966, Note_on_c, 0, 58, 0
2, 9966, Note_on_c, 0, 74, 60
2, 9976, Note_on_c, 0, 53, 0
2, 9976, Note_on_c, 0, 70, 0
2, 9983, Note_on_c, 0, 82, 0
2, 10022, Note_on_c, 0, 91, 60
2, 10025, Note_on_c, 0, 79, 60
2, 10025, Note_on_c, 0, 70, 60
2, 10032, Note_on_c, 0, 73, 60
2, 10032, Note_on_c, 0, 67, 60
2, 10033, Note_on_c, 0, 74, 0
2, 10033, Note_on_c, 0, 46, 60
2, 10041, Note_on_c, 0, 86, 0
2, 10113, Control_c, 0, 64, 127
2, 10117, Note_on_c, 0, 46, 0
2, 10141, Note_on_c, 0, 58, 60
2, 10141, Note_on_c, 0, 61, 60
2, 10141, Note_on_c, 0, 55, 60
2, 10143, Note_on_c, 0, 52, 60
2, 10176, Note_on_c, 0, 52, 0
2, 10176, Note_on_c, 0, 55, 0
2, 10176, Note_on_c, 0, 61, 0
2, 10176, Note_on_c, 0, 58, 0
2, 10201, Note_on_c, 0, 70, 0
2, 10252, Note_on_c, 0, 70, 60
2, 10252, Note_on_c, 0, 77, 60
2, 10252, Note_on_c, 0, 89, 60
2, 10252, Note_on_c, 0, 65, 60
2, 10254, Note_on_c, 0, 74, 60
2, 10254, Note_on_c, 0, 46, 60
2, 10264, Note_on_c, 0, 73, 0
2, 10264, Note_on_c, 0, 67, 0
2, 10269, Note_on_c, 0, 79, 0
2, 10278, Note_on_c, 0, 91, 0
2, 10347, Note_on_c, 0, 46, 0
2, 10368, Note_on_c, 0, 58, 60
2, 10370, Note_on_c, 0, 62, 60
2, 10370, Note_on_c, 0, 53, 60
2, 10411, Note_on_c, 0, 53, 0
2, 10411, Note_on_c, 0, 62, 0
2, 10411, Note_on_c, 0, 58, 0
2, 10419, Control_c, 0, 64, 0
2, 10434, Note_on_c, 0, 77, 0
2, 10434, Note_on_c, 0, 74, 0
2, 10487, Note_on_c, 0, 86, 60
2, 10487, Note_on_c, 0, 82, 60
2, 10489, Note_on_c, 0, 77, 60
2, 10494, Note_on_c, 0, 98, 60
2, 10496, Note_on_c, 0, 74, 60
2, 10499, Note_on_c, 0, 46, 60
2, 10519, Note_on_c, 0, 89, 0
2, 10527, Note_on_c, 0, 70, 0
2, 10527, Note_on_c, 0, 65, 0
2, 10583, Note_on_c, 0, 46, 0
2, 10594, Note_on_c, 0, 62, 60
2, 10594, Note_on_c, 0, 58, 60
2, 10601, Note_on_c, 0, 53, 60
2, 10604, Control_c, 0, 64, 127
2, 10632, Note_on_c, 0, 58, 0
2, 10640, Note_on_c, 0, 53, 0
2, 10640, Note_on_c, 0, 62, 0
2, 10707, Note_on_c, 0, 53, 60
2, 10707, Note_on_c, 0, 41, 60
2, 10736, Note_on_c, 0, 77, 0
2, 10766, Note_on_c, 0, 89, 60
2, 10766, Note_on_c, 0, 77, 60
2, 10792, Note_on_c, 0, 74, 0
2, 10792, Note_on_c, 0, 82, 0
2, 10799, Note_on_c, 0, 86, 0
2, 10800, Note_on_c, 0, 41, 0
2, 10800, Note_on_c, 0, 53, 0
2, 10805, Note_on_c, 0, 98, 0
2, 10810, Control_c, 0, 64, 0
2, 10826, Note_on_c, 0, 94, 60
2, 10828, Note_on_c, 0, 82, 60
2, 10831, Note_on_c, 0, 58, 60
2, 10831, Note_on_c, 0, 53, 60
2, 10838, Note_on_c, 0, 77, 0
2, 10838, Note_on_c, 0, 89, 0
2, 10838, Note_on_c, 0, 62, 60
2, 10869, Note_on_c, 0, 62, 0
2, 10869, Note_on_c, 0, 58, 0
2, 10869, Note_on_c, 0, 53, 0
2, 10880, Note_on_c, 0, 98, 60
2, 10882, Note_on_c, 0, 86, 60
2, 10889, Note_on_c, 0, 94, 0
2, 10892, Note_on_c, 0, 82, 0
2, 10943, Note_on_c, 0, 99, 60
2, 10943, Note_on_c, 0, 87, 60
2, 10944, Note_on_c, 0, 98, 0
2, 10944, Note_on_c, 0, 86, 0
2, 10944, Note_on_c, 0, 81, 60
2, 10944, Note_on_c, 0, 75, 60
2, 10947, Note_on_c, 0, 54, 60
2, 10947, Note_on_c, 0, 42, 60
2, 10954, Control_c, 0, 64, 127
2, 11031, Note_on_c, 0, 54, 0
2, 11040, Note_on_c, 0, 42, 0
2, 11062, Note_on_c, 0, 60, 60
2, 11062, Note_on_c, 0, 63, 60
2, 11062, Note_on_c, 0, 57, 60
2, 11093, Note_on_c, 0, 60, 0
2, 11103, Note_on_c, 0, 63, 0
2, 11103, Note_on_c, 0, 57, 0
2, 11170, Note_on_c, 0, 98, 60
2, 11173, Note_on_c, 0, 74, 60
2, 11178, Note_on_c, 0, 86, 60
2, 11180, Note_on_c, 0, 75, 0
2, 11180, Note_on_c, 0, 81, 0
2, 11180, Note_on_c, 0, 87, 0
2, 11180, Note_on_c, 0, 99, 0
2, 11180, Note_on_c, 0, 55, 60
2, 11180, Note_on_c, 0, 82, 60
2, 11180, Note_on_c, 0, 43, 60
2, 11229, Control_c, 0, 64, 0
2, 11266, Note_on_c, 0, 43, 0
2, 11266, Note_on_c, 0, 55, 0
2, 11296, Note_on_c, 0, 58, 60
2, 11305, Note_on_c, 0, 62, 60
2, 11305, Note_on_c, 0, 55, 60
2, 11340, Note_on_c, 0, 55, 0
2, 11340, Note_on_c, 0, 58, 0
2, 11345, Note_on_c, 0, 62, 0
2, 11417, Note_on_c, 0, 96, 60
2, 11417, Note_on_c, 0, 72, 60
2, 11426, Note_on_c, 0, 82, 0
2, 11426, Note_on_c, 0, 86, 0
2, 11426, Note_on_c, 0, 74, 0
2, 11426, Note_on_c, 0, 98, 0
2, 11426, Note_on_c, 0, 75, 60
2, 11426, Note_on_c, 0, 79, 60
2, 11426, Note_on_c, 0, 84, 60
2, 11426, Note_on_c, 0, 39, 60
2, 11430, Note_on_c, 0, 51, 60
2, 11474, Control_c, 0, 64, 127
2, 11489, Note_on_c, 0, 79, 0
2, 11489, Note_on_c, 0, 75, 0
2, 11489, Note_on_c, 0, 96, 0
2, 11496, Note_on_c, 0, 84, 0
2, 11496, Note_on_c, 0, 72, 0
2, 11515, Note_on_c, 0, 39, 0
2, 11515, Note_on_c, 0, 51, 0
2, 11535, Note_on_c, 0, 82, 60
2, 11540, Note_on_c, 0, 94, 60
2, 11543, Note_on_c, 0, 58, 60
2, 11543, Note_on_c, 0, 63, 60
2, 11543, Note_on_c, 0, 70, 60
2, 11543, Note_on_c, 0, 75, 60
2, 11543, Note_on_c, 0, 79, 60
2, 11543, Note_on_c, 0, 55, 60
2, 11572, Note_on_c, 0, 58, 0
2, 11575, Note_on_c, 0, 55, 0
2, 11582, Note_on_c, 0, 63, 0
2, 11644, Note_on_c, 0, 51, 60
2, 11654, Note_on_c, 0, 39, 60
2, 11698, Note_on_c, 0, 90, 60
2, 11710, Note_on_c, 0, 79, 0
2, 11710, Note_on_c, 0, 78, 60
2, 11731, Note_on_c, 0, 94, 0
2, 11740, Note_on_c, 0, 70, 0
2, 11742, Note_on_c, 0, 51, 0
2, 11742, Note_on_c, 0, 75, 0
2, 11742, Note_on_c, 0, 82, 0
2, 11742, Note_on_c, 0, 39, 0
2, 11768, Note_on_c, 0, 91, 60
2, 11770, Note_on_c, 0, 78, 0
2, 11770, Note_on_c, 0, 90, 0
2, 11770, Note_on_c, 0, 79, 60
2, 11780, Note_on_c, 0, 58, 60
2, 11780, Note_on_c, 0, 63, 60
2, 11780, Note_on_c, 0, 55, 60
2, 11782, Control_c, 0, 64, 0
2, 11821, Note_on_c, 0, 55, 0
2, 11821, Note_on_c, 0, 58, 0
2, 11821, Note_on_c, 0, 63, 0
2, 11835, Note_on_c, 0, 85, 60
2, 11835, Note_on_c, 0, 73, 60
2, 11868, Note_on_c, 0, 79, 0
2, 11868, Note_on_c, 0, 91, 0
2, 11881, Note_on_c, 0, 86, 60
2, 11881, Note_on_c, 0, 74, 60
2, 11884, Note_on_c, 0, 46, 60
2, 11891, Note_on_c, 0, 85, 0
2, 11891, Note_on_c, 0, 73, 0
2, 11947, Note_on_c, 0, 74, 0
2, 11947, Note_on_c, 0, 86, 0
2, 11947, Note_on_c, 0, 77, 60
2, 11953, Note_on_c, 0, 65, 60
2, 11979, Note_on_c, 0, 46, 0
2, 12009, Note_on_c, 0, 58, 60
2, 12009, Note_on_c, 0, 62, 60
2, 12009, Note_on_c, 0, 67, 60
2, 12009, Note_on_c, 0, 79, 60
2, 12009, Note_on_c, 0, 53, 60
2, 12014, Note_on_c, 0, 77, 0
2, 12017, Note_on_c, 0, 65, 0
2, 12049, Note_on_c, 0, 58, 0
2, 12049, Note_on_c, 0, 53, 0
2, 12070, Note_on_c, 0, 79, 0
2, 12072, Note_on_c, 0, 82, 60
2, 12072, Note_on_c, 0, 70, 60
2, 12081, Note_on_c, 0, 67, 0
2, 12081, Note_on_c, 0, 62, 0
2, 12130, Note_on_c, 0, 41, 60
2, 12179, Note_on_c, 0, 84, 60
2, 12189, Note_on_c, 0, 72, 60
2, 12205, Note_on_c, 0, 82, 0
2, 12212, Note_on_c, 0, 70, 0
2, 12221, Note_on_c, 0, 41, 0
2, 12249, Note_on_c, 0, 84, 0
2, 12249, Note_on_c, 0, 72, 0
2, 12249, Note_on_c, 0, 74, 60
2, 12249, Note_on_c, 0, 86, 60
2, 12251, Note_on_c, 0, 58, 60
2, 12251, Note_on_c, 0, 62, 60
2, 12251, Note_on_c, 0, 53, 60
2, 12287, Note_on_c, 0, 53, 0
2, 12287, Note_on_c, 0, 58, 0
2, 12287, Note_on_c, 0, 62, 0
2, 12300, Note_on_c, 0, 89, 60
2, 12302, Note_on_c, 0, 77, 60
2, 12314, Note_on_c, 0, 86, 0
2, 12316, Note_on_c, 0, 74, 0
2, 12354, Note_on_c, 0, 96, 60
2, 12359, Note_on_c, 0, 75, 60
2, 12359, Note_on_c, 0, 79, 60
2, 12359, Note_on_c, 0, 84, 60
2, 12359, Note_on_c, 0, 72, 60
2, 12360, Note_on_c, 0, 89, 0
2, 12360, Note_on_c, 0, 51, 60
2, 12360, Note_on_c, 0, 39, 60
2, 12370, Note_on_c, 0, 77, 0
2, 12386, Control_c, 0, 64, 127
2, 12421, Note_on_c, 0, 84, 0
2, 12421, Note_on_c, 0, 75, 0
2, 12421, Note_on_c, 0, 79, 0
2, 12421, Note_on_c, 0, 72, 0
2, 12437, Note_on_c, 0, 96, 0
2, 12454, Note_on_c, 0, 51, 0
2, 12456, Note_on_c, 0, 39, 0
2, 12465, Note_on_c, 0, 94, 60
2, 12475, Note_on_c, 0, 58, 60
2, 12475, Note_on_c, 0, 63, 60
2, 12475, Note_on_c, 0, 70, 60
2, 12475, Note_on_c, 0, 75, 60
2, 12475, Note_on_c, 0, 79, 60
2, 12475, Note_on_c, 0, 82, 60
2, 12475, Note_on_c, 0, 55, 60
2, 12514, Note_on_c, 0, 55, 0
2, 12514, Note_on_c, 0, 63, 0
2, 12514, Note_on_c, 0, 58, 0
2, 12586, Note_on_c, 0, 39, 60
2, 12588, Note_on_c, 0, 51, 60
2, 12642, Note_on_c, 0, 90, 60
2, 12644, Note_on_c, 0, 70, 0
2, 12644, Note_on_c, 0, 78, 60
2, 12653, Note_on_c, 0, 79, 0
2, 12660, Note_on_c, 0, 82, 0
2, 12660, Note_on_c, 0, 94, 0
2, 12670, Note_on_c, 0, 51, 0
2, 12679, Note_on_c, 0, 39, 0
2, 12700, Note_on_c, 0, 79, 60
2, 12707, Note_on_c, 0, 91, 60
2, 12709, Note_on_c, 0, 78, 0
2, 12709, Note_on_c, 0, 90, 0
2, 12709, Note_on_c, 0, 63, 60
2, 12709, Note_on_c, 0, 55, 60
2, 12709, Note_on_c, 0, 58, 60
2, 12716, Note_on_c, 0, 75, 0
2, 12748, Note_on_c, 0, 55, 0
2, 12748, Note_on_c, 0, 63, 0
2, 12748, Note_on_c, 0, 58, 0
2, 12756, Note_on_c, 0, 87, 60
2, 12756, Note_on_c, 0, 75, 60
2, 12758, Control_c, 0, 64, 0
2, 12795, Note_on_c, 0, 91, 0
2, 12795, Note_on_c, 0, 79, 0
2, 12816, Note_on_c, 0, 86, 60
2, 12818, Note_on_c, 0, 87, 0
2, 12818, Note_on_c, 0, 74, 60
2, 12818, Note_on_c, 0, 46, 60
2, 12825, Note_on_c, 0, 75, 0
2, 12916, Note_on_c, 0, 46, 0
2, 12944, Note_on_c, 0, 58, 60
2, 12946, Note_on_c, 0, 62, 60
2, 12946, Note_on_c, 0, 53, 60
2, 12985, Note_on_c, 0, 53, 0
2, 12985, Note_on_c, 0, 58, 0
2, 12985, Note_on_c, 0, 62, 0
2, 13049, Note_on_c, 0, 72, 60
2, 13049, Note_on_c, 0, 84, 60
2, 13049, Note_on_c, 0, 57, 60
2, 13057, Note_on_c, 0, 53, 60
2, 13065, Note_on_c, 0, 86, 0
2, 13072, Note_on_c, 0, 74, 0
2, 13118, Note_on_c, 0, 57, 0
2, 13118, Note_on_c, 0, 84, 0
2, 13118, Note_on_c, 0, 53, 0
2, 13118, Note_on_c, 0, 72, 0
2, 13176, Note_on_c, 0, 89, 60
2, 13178, Note_on_c, 0, 69, 60
2, 13178, Note_on_c, 0, 75, 60
2, 13178, Note_on_c, 0, 77, 60
2, 13178, Note_on_c, 0, 65, 60
2, 13181, Note_on_c, 0, 53, 60
2, 13181, Note_on_c, 0, 41, 60
2, 13239, Note_on_c, 0, 77, 0
2, 13239, Note_on_c, 0, 75, 0
2, 13239, Note_on_c, 0, 89, 0
2, 13247, Note_on_c, 0, 65, 0
2, 13247, Note_on_c, 0, 69, 0
2, 13247, Note_on_c, 0, 53, 0
2, 13248, Note_on_c, 0, 41, 0
2, 13302, Note_on_c, 0, 70, 60
2, 13302, Note_on_c, 0, 74, 60
2, 13302, Note_on_c, 0, 77, 60
2, 13302, Note_on_c, 0, 89, 60
2, 13302, Note_on_c, 0, 65, 60
2, 13309, Note_on_c, 0, 46, 60
2, 13311, Control_c, 0, 64, 127
2, 13394, Note_on_c, 0, 46, 0
2, 13407, Note_on_c, 0, 62, 60
2, 13407, Note_on_c, 0, 58, 60
2, 13409, Note_on_c, 0, 53, 60
2, 13443, Note_on_c, 0, 53, 0
2, 13443, Note_on_c, 0, 58, 0
2, 13443, Note_on_c, 0, 62, 0
2, 13512, Note_on_c, 0, 41, 60
2, 13532, Note_on_c, 0, 65, 0
2, 13532, Note_on_c, 0, 77, 0
2, 13579, Note_on_c, 0, 70, 0
2, 13579, Note_on_c, 0, 77, 60
2, 13585, Note_on_c, 0, 65, 60
2, 13602, Note_on_c, 0, 41, 0
2, 13639, Note_on_c, 0, 58, 60
2, 13639, Note_on_c, 0, 62, 60
2, 13639, Note_on_c, 0, 70, 60
2, 13639, Note_on_c, 0, 82, 60
2, 13639, Note_on_c, 0, 53, 60
2, 13646, Note_on_c, 0, 77, 0
2, 13646, Note_on_c, 0, 89, 0
2, 13646, Note_on_c, 0, 74, 0
2, 13648, Note_on_c, 0, 65, 0
2, 13679, Note_on_c, 0, 53, 0
2, 13679, Note_on_c, 0, 58, 0
2, 13679, Note_on_c, 0, 62, 0
2, 13695, Note_on_c, 0, 86, 60
2, 13695, Note_on_c, 0, 74, 60
2, 13704, Note_on_c, 0, 70, 0
2, 13704, Control_c, 0, 64, 0
2, 13711, Note_on_c, 0, 82, 0
2, 13760, Note_on_c, 0, 70, 60
2, 13760, Note_on_c, 0, 73, 60
2, 13760, Note_on_c, 0, 79, 60
2, 13760, Note_on_c, 0, 91, 60
2, 13760, Note_on_c, 0, 67, 60
2, 13762, Note_on_c, 0, 74, 0
2, 13762, Note_on_c, 0, 46, 60
2, 13762, Control_c, 0, 64, 127
2, 13769, Note_on_c, 0, 86, 0
2, 13852, Note_on_c, 0, 46, 0
2, 13876, Note_on_c, 0, 55, 60
2, 13876, Note_on_c, 0, 58, 60
2, 13876, Note_on_c, 0, 61, 60
2, 13876, Note_on_c, 0, 52, 60
2, 13913, Note_on_c, 0, 61, 0
2, 13913, Note_on_c, 0, 58, 0
2, 13916, Note_on_c, 0, 52, 0
2, 13916, Note_on_c, 0, 55, 0
2, 13945, Note_on_c, 0, 70, 0
2, 13983, Note_on_c, 0, 89, 60
2, 13992, Note_on_c, 0, 73, 0
2, 13994, Note_on_c, 0, 65, 60
2, 13994, Note_on_c, 0, 70, 60
2, 13994, Note_on_c, 0, 74, 60
2, 13994, Note_on_c, 0, 77, 60
2, 13994, Note_on_c, 0, 46, 60
2, 14001, Note_on_c, 0, 67, 0
2, 14011, Note_on_c, 0, 79, 0
2, 14016, Note_on_c, 0, 91, 0
2, 14094, Note_on_c, 0, 46, 0
2, 14109, Note_on_c, 0, 58, 60
2, 14109, Note_on_c, 0, 62, 60
2, 14109, Note_on_c, 0, 53, 60
2, 14111, Control_c, 0, 64, 0
2, 14146, Note_on_c, 0, 53, 0
2, 14146, Note_on_c, 0, 62, 0
2, 14146, Note_on_c, 0, 58, 0
2, 14178, Note_on_c, 0, 74, 0
2, 14178, Note_on_c, 0, 77, 0
2, 14232, Note_on_c, 0, 98, 60
2, 14232, Note_on_c, 0, 77, 60
2, 14238, Note_on_c, 0, 86, 60
2, 14241, Note_on_c, 0, 74, 60
2, 14241, Note_on_c, 0, 82, 60
2, 14241, Note_on_c, 0, 46, 60
2, 14243, Control_c, 0, 64, 127
2, 14257, Note_on_c, 0, 70, 0
2, 14257, Note_on_c, 0, 89, 0
2, 14264, Note_on_c, 0, 65, 0
2, 14329, Note_on_c, 0, 46, 0
2, 14346, Note_on_c, 0, 62, 60
2, 14346, Note_on_c, 0, 53, 60
2, 14352, Note_on_c, 0, 58, 60
2, 14385, Note_on_c, 0, 58, 0
2, 14395, Note_on_c, 0, 53, 0
2, 14395, Note_on_c, 0, 62, 0
2, 14464, Note_on_c, 0, 53, 60
2, 14473, Note_on_c, 0, 41, 60
2, 14485, Note_on_c, 0, 77, 0
2, 14518, Note_on_c, 0, 89, 60
2, 14518, Note_on_c, 0, 77, 60
2, 14547, Note_on_c, 0, 82, 0
2, 14547, Note_on_c, 0, 74, 0
2, 14547, Note_on_c, 0, 86, 0
2, 14555, Note_on_c, 0, 41, 0
2, 14555, Note_on_c, 0, 53, 0
2, 14580, Note_on_c, 0, 98, 0
2, 14583, Note_on_c, 0, 94, 60
2, 14585, Note_on_c, 0, 77, 0
2, 14585, Note_on_c, 0, 89, 0
2, 14585, Note_on_c, 0, 58, 60
2, 14585, Note_on_c, 0, 62, 60
2, 14585, Note_on_c, 0, 82, 60
2, 14585, Note_on_c, 0, 53, 60
2, 14616, Control_c, 0, 64, 0
2, 14624, Note_on_c, 0, 53, 0
2, 14624, Note_on_c, 0, 58, 0
2, 14632, Note_on_c, 0, 62, 0
2, 14639, Note_on_c, 0, 98, 60
2, 14639, Note_on_c, 0, 86, 60
2, 14645, Note_on_c, 0, 94, 0
2, 14648, Note_on_c, 0, 82, 0
2, 14699, Note_on_c, 0, 87, 60
2, 14699, Note_on_c, 0, 99, 60
2, 14699, Note_on_c, 0, 81, 60
2, 14701, Note_on_c, 0, 98, 0
2, 14701, Note_on_c, 0, 86, 0
2, 14701, Note_on_c, 0, 54, 60
2, 14701, Note_on_c, 0, 75, 60
2, 14701, Note_on_c, 0, 42, 60
2, 14792, Note_on_c, 0, 42, 0
2, 14792, Note_on_c, 0, 54, 0
2, 14806, Note_on_c, 0, 60, 60
2, 14806, Note_on_c, 0, 63, 60
2, 14806, Note_on_c, 0, 57, 60
2, 14827, Control_c, 0, 64, 127
2, 14843, Note_on_c, 0, 57, 0
2, 14843, Note_on_c, 0, 60, 0
2, 14843, Note_on_c, 0, 63, 0
2, 14915, Note_on_c, 0, 98, 60
2, 14925, Note_on_c, 0, 81, 0
2, 14925, Note_on_c, 0, 99, 0
2, 14925, Note_on_c, 0, 87, 0
2, 14925, Note_on_c, 0, 82, 60
2, 14925, Note_on_c, 0, 86, 60
2, 14925, Note_on_c, 0, 74, 60
2, 14933, Note_on_c, 0, 75, 0
2, 14933, Note_on_c, 0, 55, 60
2, 14933, Note_on_c, 0, 43, 60
2, 14997, Note_on_c, 0, 55, 0
2, 15020, Note_on_c, 0, 43, 0
2, 15031, Note_on_c, 0, 62, 60
2, 15041, Note_on_c, 0, 58, 60
2, 15041, Note_on_c, 0, 55, 60
2, 15071, Note_on_c, 0, 58, 0
2, 15073, Note_on_c, 0, 62, 0
2, 15073, Note_on_c, 0, 55, 0
2, 15073, Control_c, 0, 64, 0
2, 15147, Note_on_c, 0, 96, 60
2, 15150, Note_on_c, 0, 72, 60
2, 15150, Note_on_c, 0, 75, 60
2, 15150, Note_on_c, 0, 79, 60
2, 15150, Note_on_c, 0, 84, 60
2, 15150, Note_on_c, 0, 51, 60
2, 15159, Note_on_c, 0, 39, 60
2, 15164, Note_on_c, 0, 86, 0
2, 15164, Note_on_c, 0, 98, 0
2, 15164, Note_on_c, 0, 82, 0
2, 15167, Note_on_c, 0, 74, 0
2, 15211, Note_on_c, 0, 79, 0
2, 15211, Note_on_c, 0, 75, 0
2, 15234, Note_on_c, 0, 96, 0
2, 15240, Note_on_c, 0, 84, 0
2, 15242, Note_on_c, 0, 72, 0
2, 15242, Note_on_c, 0, 51, 0
2, 15242, Note_on_c, 0, 39, 0
2, 15273, Note_on_c, 0, 75, 60
2, 15273, Note_on_c, 0, 79, 60
2, 15273, Note_on_c, 0, 82, 60
2, 15273, Note_on_c, 0, 94, 60
2, 15273, Note_on_c, 0, 70, 60
2, 15275, Note_on_c, 0, 58, 60
2, 15275, Note_on_c, 0, 55, 60
2, 15278, Control_c, 0, 64, 127
2, 15283, Note_on_c, 0, 63, 60
2, 15314, Note_on_c, 0, 63, 0
2, 15314, Note_on_c, 0, 55, 0
2, 15314, Note_on_c, 0, 58, 0
2, 15380, Note_on_c, 0, 51, 60
2, 15389, Note_on_c, 0, 39, 60
2, 15433, Note_on_c, 0, 79, 0
2, 15438, Note_on_c, 0, 90, 60
2, 15440, Note_on_c, 0, 70, 0
2, 15440, Note_on_c, 0, 75, 0
2, 15440, Note_on_c, 0, 78, 60
2, 15443, Note_on_c, 0, 51, 0
2, 15443, Note_on_c, 0, 39, 0
2, 15456, Note_on_c, 0, 82, 0
2, 15456, Note_on_c, 0, 94, 0
2, 15482, Control_c, 0, 64, 0
2, 15501, Note_on_c, 0, 91, 60
2, 15504, Note_on_c, 0, 78, 0
2, 15504, Note_on_c, 0, 63, 60
2, 15504, Note_on_c, 0, 79, 60
2, 15504, Note_on_c, 0, 58, 60
2, 15505, Note_on_c, 0, 55, 60
2, 15512, Note_on_c, 0, 90, 0
2, 15540, Note_on_c, 0, 63, 0
2, 15540, Note_on_c, 0, 58, 0
2, 15540, Note_on_c, 0, 55, 0
2, 15554, Note_on_c, 0, 85, 60
2, 15554, Note_on_c, 0, 73, 60
2, 15587, Note_on_c, 0, 91, 0
2, 15587, Note_on_c, 0, 79, 0
2, 15620, Note_on_c, 0, 74, 60
2, 15620, Note_on_c, 0, 86, 60
2, 15620, Note_on_c, 0, 46, 60
2, 15626, Note_on_c, 0, 73, 0
2, 15628, Note_on_c, 0, 85, 0
2, 15682, Note_on_c, 0, 86, 0
2, 15682, Note_on_c, 0, 74, 0
2, 15682, Note_on_c, 0, 77, 60
2, 15689, Note_on_c, 0, 65, 60
2, 15717, Note_on_c, 0, 46, 0
2, 15744, Note_on_c, 0, 79, 60
2, 15747, Note_on_c, 0, 53, 60
2, 15747, Note_on_c, 0, 58, 60
2, 15747, Note_on_c, 0, 62, 60
2, 15747, Note_on_c, 0, 67, 60
2, 15747, Control_c, 0, 64, 127
2, 15752, Note_on_c, 0, 65, 0
2, 15752, Note_on_c, 0, 77, 0
2, 15782, Note_on_c, 0, 53, 0
2, 15782, Note_on_c, 0, 58, 0
2, 15782, Note_on_c, 0, 62, 0
2, 15796, Note_on_c, 0, 82, 60
2, 15796, Note_on_c, 0, 70, 60
2, 15805, Note_on_c, 0, 79, 0
2, 15815, Note_on_c, 0, 67, 0
2, 15849, Note_on_c, 0, 50, 60
2, 15849, Note_on_c, 0, 38, 60
2, 15908, Note_on_c, 0, 84, 60
2, 15910, Note_on_c, 0, 72, 60
2, 15924, Note_on_c, 0, 70, 0
2, 15934, Note_on_c, 0, 82, 0
2, 15936, Note_on_c, 0, 38, 0
2, 15942, Note_on_c, 0, 50, 0
2, 15957, Control_c, 0, 64, 0
2, 15961, Note_on_c, 0, 86, 60
2, 15961, Note_on_c, 0, 74, 60
2, 15963, Note_on_c, 0, 58, 60
2, 15963, Note_on_c, 0, 62, 60
2, 15963, Note_on_c, 0, 53, 60
2, 15978, Note_on_c, 0, 72, 0
2, 15978, Note_on_c, 0, 84, 0
2, 16001, Note_on_c, 0, 62, 0
2, 16001, Note_on_c, 0, 58, 0
2, 16001, Note_on_c, 0, 53, 0
2, 16022, Note_on_c, 0, 86, 0
2, 16022, Note_on_c, 0, 89, 60
2, 16022, Note_on_c, 0, 77, 60
2, 16024, Note_on_c, 0, 74, 0
2, 16082, Note_on_c, 0, 82, 60
2, 16084, Note_on_c, 0, 55, 60
2, 16084, Note_on_c, 0, 70, 60
2, 16084, Note_on_c, 0, 43, 60
2, 16086, Note_on_c, 0, 64, 60
2, 16094, Note_on_c, 0, 77, 0
2, 16094, Note_on_c, 0, 89, 0
2, 16156, Note_on_c, 0, 55, 0
2, 16156, Note_on_c, 0, 43, 0
2, 16200, Note_on_c, 0, 54, 60
2, 16200, Note_on_c, 0, 42, 60
2, 16205, Control_c, 0, 64, 127
2, 16291, Note_on_c, 0, 42, 0
2, 16291, Note_on_c, 0, 54, 0
2, 16315, Note_on_c, 0, 53, 60
2, 16315, Note_on_c, 0, 41, 60
2, 16379, Note_on_c, 0, 82, 0
2, 16379, Note_on_c, 0, 64, 0
2, 16379, Note_on_c, 0, 70, 0
2, 16403, Control_c, 0, 64, 0
2, 16423, Note_on_c, 0, 84, 60
2, 16423, Note_on_c, 0, 69, 60
2, 16433, Note_on_c, 0, 72, 60
2, 16433, Note_on_c, 0, 63, 60
2, 16493, Note_on_c, 0, 63, 0
2, 16493, Note_on_c, 0, 69, 0
2, 16493, Note_on_c, 0, 84, 0
2, 16493, Note_on_c, 0, 72, 0
2, 16554, Note_on_c, 0, 41, 0
2, 16554, Note_on_c, 0, 53, 0
2, 16554, Note_on_c, 0, 58, 60
2, 16554, Note_on_c, 0, 62, 60
2, 16554, Note_on_c, 0, 70, 60
2, 16554, Note_on_c, 0, 82, 60
2, 16556, Note_on_c, 0, 46, 60
2, 16640, Note_on_c, 0, 58, 0
2, 16642, Note_on_c, 0, 46, 0
2, 16656, Note_on_c, 0, 53, 60
2, 16663, Note_on_c, 0, 41, 60
2, 16749, Note_on_c, 0, 53, 0
2, 16752, Note_on_c, 0, 41, 0
2, 16789, Note_on_c, 0, 34, 60
2, 16791, Note_on_c, 0, 46, 60
2, 16853, Note_on_c, 0, 62, 0
2, 16874, Note_on_c, 0, 34, 0
2, 16874, Note_on_c, 0, 46, 0
2, 16896, Note_on_c, 0, 74, 60
2, 16897, Note_on_c, 0, 62, 60
2, 16961, Note_on_c, 0, 62, 0
2, 16977, Note_on_c, 0, 82, 0
2, 16977, Note_on_c, 0, 70, 0
2, 17023, Note_on_c, 0, 62, 60
2, 17023, Note_on_c, 0, 70, 60
2, 17023, Note_on_c, 0, 82, 60
2, 17023, Note_on_c, 0, 55, 60
2, 17033, Note_on_c, 0, 43, 60
2, 17054, Note_on_c, 0, 74, 0
2, 17084, Note_on_c, 0, 81, 60
2, 17084, Note_on_c, 0, 69, 60
2, 17093, Note_on_c, 0, 55, 0
2, 17093, Note_on_c, 0, 82, 0
2, 17093, Note_on_c, 0, 70, 0
2, 17116, Note_on_c, 0, 43, 0
2, 17137, Note_on_c, 0, 82, 60
2, 17139, Note_on_c, 0, 70, 60
2, 17139, Note_on_c, 0, 55, 60
2, 17146, Note_on_c, 0, 81, 0
2, 17146, Note_on_c, 0, 58, 60
2, 17154, Note_on_c, 0, 69, 0
2, 17177, Note_on_c, 0, 55, 0
2, 17177, Note_on_c, 0, 58, 0
2, 17198, Note_on_c, 0, 79, 60
2, 17198, Note_on_c, 0, 67, 60
2, 17200, Note_on_c, 0, 82, 0
2, 17207, Note_on_c, 0, 70, 0
2, 17251, Note_on_c, 0, 38, 60
2, 17254, Note_on_c, 0, 50, 60
2, 17304, Note_on_c, 0, 79, 0
2, 17304, Note_on_c, 0, 81, 60
2, 17304, Note_on_c, 0, 69, 60
2, 17314, Note_on_c, 0, 67, 0
2, 17347, Note_on_c, 0, 50, 0
2, 17347, Note_on_c, 0, 38, 0
2, 17365, Note_on_c, 0, 82, 60
2, 17365, Note_on_c, 0, 70, 60
2, 17368, Note_on_c, 0, 81, 0
2, 17368, Note_on_c, 0, 58, 60
2, 17368, Note_on_c, 0, 55, 60
2, 17376, Note_on_c, 0, 69, 0
2, 17407, Note_on_c, 0, 58, 0
2, 17407, Note_on_c, 0, 55, 0
2, 17421, Note_on_c, 0, 86, 60
2, 17430, Note_on_c, 0, 82, 0
2, 17430, Note_on_c, 0, 70, 0
2, 17430, Note_on_c, 0, 74, 60
2, 17474, Note_on_c, 0, 62, 0
2, 17474, Note_on_c, 0, 61, 60
2, 17481, Note_on_c, 0, 86, 0
2, 17481, Note_on_c, 0, 64, 60
2, 17481, Note_on_c, 0, 73, 60
2, 17481, Note_on_c, 0, 85, 60
2, 17481, Note_on_c, 0, 58, 60
2, 17484, Note_on_c, 0, 74, 0
2, 17484, Note_on_c, 0, 55, 60
2, 17484, Note_on_c, 0, 43, 60
2, 17532, Note_on_c, 0, 88, 60
2, 17535, Note_on_c, 0, 76, 60
2, 17542, Note_on_c, 0, 85, 0
2, 17542, Note_on_c, 0, 73, 0
2, 17591, Note_on_c, 0, 91, 60
2, 17591, Note_on_c, 0, 79, 60
2, 17597, Note_on_c, 0, 88, 0
2, 17607, Note_on_c, 0, 79, 0
2, 17607, Note_on_c, 0, 76, 0
2, 17651, Note_on_c, 0, 79, 60
2, 17651, Note_on_c, 0, 67, 60
2, 17661, Control_c, 0, 64, 127
2, 17674, Note_on_c, 0, 91, 0
2, 17705, Note_on_c, 0, 64, 0
2, 17705, Note_on_c, 0, 58, 0
2, 17712, Note_on_c, 0, 79, 0
2, 17712, Note_on_c, 0, 63, 60
2, 17712, Note_on_c, 0, 69, 60
2, 17712, Note_on_c, 0, 81, 60
2, 17712, Note_on_c, 0, 57, 60
2, 17713, Note_on_c, 0, 43, 0
2, 17713, Note_on_c, 0, 61, 0
2, 17713, Note_on_c, 0, 55, 0
2, 17713, Note_on_c, 0, 54, 60
2, 17713, Note_on_c, 0, 60, 60
2, 17716, Note_on_c, 0, 42, 60
2, 17721, Note_on_c, 0, 67, 0
2, 17767, Note_on_c, 0, 84, 60
2, 17767, Note_on_c, 0, 72, 60
2, 17777, Note_on_c, 0, 69, 0
2, 17777, Note_on_c, 0, 81, 0
2, 17813, Note_on_c, 0, 87, 60
2, 17813, Note_on_c, 0, 75, 60
2, 17830, Note_on_c, 0, 72, 0
2, 17830, Note_on_c, 0, 84, 0
2, 17867, Note_on_c, 0, 90, 60
2, 17877, Note_on_c, 0, 75, 0
2, 17877, Note_on_c, 0, 78, 60
2, 17883, Note_on_c, 0, 87, 0
2, 17929, Note_on_c, 0, 91, 60
2, 17929, Note_on_c, 0, 79, 60
2, 17932, Control_c, 0, 64, 0
2, 17939, Note_on_c, 0, 90, 0
2, 17939, Note_on_c, 0, 78, 0
2, 17939, Note_on_c, 0, 42, 0
2, 17939, Note_on_c, 0, 60, 0
2, 17939, Note_on_c, 0, 54, 0
2, 17939, Note_on_c, 0, 63, 0
2, 17939, Note_on_c, 0, 57, 0
2, 17939, Note_on_c, 0, 43, 60
2, 17939, Note_on_c, 0, 55, 60
2, 17995, Note_on_c, 0, 86, 60
2, 17995, Note_on_c, 0, 74, 60
2, 18018, Note_on_c, 0, 79, 0
2, 18027, Note_on_c, 0, 55, 0
2, 18027, Note_on_c, 0, 91, 0
2, 18027, Note_on_c, 0, 43, 0
2, 18060, Note_on_c, 0, 74, 0
2, 18060, Note_on_c, 0, 86, 0
2, 18060, Note_on_c, 0, 70, 60
2, 18060, Note_on_c, 0, 82, 60
2, 18060, Note_on_c, 0, 62, 60
2, 18067, Note_on_c, 0, 58, 60
2, 18099, Note_on_c, 0, 58, 0
2, 18109, Note_on_c, 0, 62, 0
2, 18116, Note_on_c, 0, 79, 60
2, 18116, Note_on_c, 0, 67, 60
2, 18130, Note_on_c, 0, 82, 0
2, 18130, Note_on_c, 0, 70, 0
2, 18171, Note_on_c, 0, 51, 60
2, 18179, Note_on_c, 0, 39, 60
2, 18235, Note_on_c, 0, 70, 60
2, 18240, Note_on_c, 0, 82, 60
2, 18251, Note_on_c, 0, 79, 0
2, 18258, Note_on_c, 0, 67, 0
2, 18258, Note_on_c, 0, 51, 0
2, 18267, Note_on_c, 0, 39, 0
2, 18295, Note_on_c, 0, 61, 60
2, 18295, Note_on_c, 0, 69, 60
2, 18295, Note_on_c, 0, 81, 60
2, 18295, Note_on_c, 0, 57, 60
2, 18297, Note_on_c, 0, 82, 0
2, 18297, Note_on_c, 0, 55, 60
2, 18304, Note_on_c, 0, 70, 0
2, 18348, Note_on_c, 0, 79, 60
2, 18358, Note_on_c, 0, 67, 60
2, 18360, Note_on_c, 0, 57, 0
2, 18360, Note_on_c, 0, 61, 0
2, 18360, Note_on_c, 0, 81, 0
2, 18360, Note_on_c, 0, 55, 0
2, 18367, Note_on_c, 0, 69, 0
2, 18413, Note_on_c, 0, 79, 0
2, 18413, Note_on_c, 0, 50, 60
2, 18413, Note_on_c, 0, 54, 60
2, 18413, Note_on_c, 0, 62, 60
2, 18413, Note_on_c, 0, 66, 60
2, 18413, Note_on_c, 0, 78, 60
2, 18413, Note_on_c, 0, 38, 60
2, 18416, Note_on_c, 0, 57, 60
2, 18420, Note_on_c, 0, 67, 0
2, 18518, Note_on_c, 0, 51, 60
2, 18518, Note_on_c, 0, 39, 60
2, 18523, Note_on_c, 0, 50, 0
2, 18523, Control_c, 0, 64, 127
2, 18525, Note_on_c, 0, 38, 0
2, 18583, Note_on_c, 0, 50, 60
2, 18585, Note_on_c, 0, 39, 0
2, 18585, Note_on_c, 0, 51, 0
2, 18585, Note_on_c, 0, 38, 60
2, 18590, Note_on_c, 0, 78, 0
2, 18593, Note_on_c, 0, 66, 0
2, 18627, Note_on_c, 0, 78, 60
2, 18634, Note_on_c, 0, 86, 60
2, 18637, Note_on_c, 0, 74, 60
2, 18637, Note_on_c, 0, 66, 60
2, 18678, Note_on_c, 0, 48, 60
2, 18678, Note_on_c, 0, 36, 60
2, 18688, Note_on_c, 0, 50, 0
2, 18688, Note_on_c, 0, 38, 0
2, 18695, Control_c, 0, 64, 0
2, 18748, Note_on_c, 0, 46, 60
2, 18748, Note_on_c, 0, 34, 60
2, 18755, Note_on_c, 0, 48, 0
2, 18762, Note_on_c, 0, 36, 0
2, 18794, Note_on_c, 0, 45, 60
2, 18794, Note_on_c, 0, 33, 60
2, 18804, Note_on_c, 0, 46, 0
2, 18804, Note_on_c, 0, 34, 0
2, 18845, Note_on_c, 0, 70, 60
2, 18845, Note_on_c, 0, 79, 60
2, 18845, Note_on_c, 0, 82, 60
2, 18845, Note_on_c, 0, 67, 60
2, 18855, Note_on_c, 0, 74, 0
2, 18855, Note_on_c, 0, 45, 0
2, 18855, Note_on_c, 0, 66, 0
2, 18855, Note_on_c, 0, 78, 0
2, 18855, Note_on_c, 0, 86, 0
2, 18855, Note_on_c, 0, 43, 60
2, 18855, Note_on_c, 0, 31, 60
2, 18862, Note_on_c, 0, 54, 0
2, 18862, Note_on_c, 0, 33, 0
2, 18862, Note_on_c, 0, 57, 0
2, 18862, Note_on_c, 0, 62, 0
2, 18909, Note_on_c, 0, 81, 60
2, 18909, Note_on_c, 0, 69, 60
2, 18911, Note_on_c, 0, 82, 0
2, 18918, Note_on_c, 0, 70, 0
2, 18943, Note_on_c, 0, 43, 0
2, 18946, Note_on_c, 0, 31, 0
2, 18964, Note_on_c, 0, 58, 60
2, 18964, Note_on_c, 0, 62, 60
2, 18964, Note_on_c, 0, 70, 60
2, 18964, Note_on_c, 0, 82, 60
2, 18964, Note_on_c, 0, 55, 60
2, 18974, Note_on_c, 0, 81, 0
2, 18974, Note_on_c, 0, 69, 0
2, 18974, Note_on_c, 0, 79, 0
2, 18983, Note_on_c, 0, 67, 0
2, 19007, Note_on_c, 0, 55, 0
2, 19007, Note_on_c, 0, 58, 0
2, 19007, Note_on_c, 0, 62, 0
2, 19022, Note_on_c, 0, 67, 60
2, 19030, Note_on_c, 0, 79, 60
2, 19041, Note_on_c, 0, 82, 0
2, 19048, Note_on_c, 0, 70, 0
2, 19079, Note_on_c, 0, 50, 60
2, 19085, Note_on_c, 0, 38, 60
2, 19141, Note_on_c, 0, 79, 0
2, 19141, Note_on_c, 0, 81, 60
2, 19141, Note_on_c, 0, 69, 60
2, 19151, Note_on_c, 0, 67, 0
2, 19164, Note_on_c, 0, 38, 0
2, 19164, Note_on_c, 0, 50, 0
2, 19206, Note_on_c, 0, 81, 0
2, 19206, Note_on_c, 0, 70, 60
2, 19206, Note_on_c, 0, 82, 60
2, 19206, Note_on_c, 0, 58, 60
2, 19208, Note_on_c, 0, 62, 60
2, 19208, Note_on_c, 0, 55, 60
2, 19215, Note_on_c, 0, 69, 0
2, 19248, Note_on_c, 0, 62, 0
2, 19248, Note_on_c, 0, 58, 0
2, 19248, Note_on_c, 0, 55, 0
2, 19262, Note_on_c, 0, 86, 60
2, 19262, Note_on_c, 0, 74, 60
2, 19272, Note_on_c, 0, 70, 0
2, 19272, Note_on_c, 0, 82, 0
2, 19322, Note_on_c, 0, 47, 60
2, 19329, Note_on_c, 0, 74, 0
2, 19355, Note_on_c, 0, 86, 0
2, 19388, Note_on_c, 0, 86, 60
2, 19388, Note_on_c, 0, 74, 60
2, 19413, Note_on_c, 0, 47, 0
2, 19450, Note_on_c, 0, 74, 0
2, 19450, Note_on_c, 0, 86, 0
2, 19450, Note_on_c, 0, 89, 60
2, 19457, Note_on_c, 0, 77, 60
2, 19460, Note_on_c, 0, 62, 60
2, 19460, Note_on_c, 0, 65, 60
2, 19460, Note_on_c, 0, 56, 60
2, 19499, Note_on_c, 0, 65, 0
2, 19499, Note_on_c, 0, 62, 0
2, 19501, Note_on_c, 0, 56, 0
2, 19506, Note_on_c, 0, 92, 60
2, 19506, Note_on_c, 0, 80, 60
2, 19522, Note_on_c, 0, 77, 0
2, 19522, Note_on_c, 0, 89, 0
2, 19561, Note_on_c, 0, 47, 60
2, 19641, Note_on_c, 0, 86, 60
2, 19641, Note_on_c, 0, 74, 60
2, 19648, Note_on_c, 0, 47, 0
2, 19648, Note_on_c, 0, 80, 0
2, 19648, Note_on_c, 0, 92, 0
2, 19655, Control_c, 0, 64, 127
2, 19687, Note_on_c, 0, 77, 60
2, 19692, Note_on_c, 0, 62, 60
2, 19692, Note_on_c, 0, 65, 60
2, 19692, Note_on_c, 0, 89, 60
2, 19692, Note_on_c, 0, 56, 60
2, 19694, Note_on_c, 0, 74, 0
2, 19702, Note_on_c, 0, 86, 0
2, 19729, Note_on_c, 0, 65, 0
2, 19731, Note_on_c, 0, 62, 0
2, 19731, Note_on_c, 0, 56, 0
2, 19746, Note_on_c, 0, 92, 60
2, 19746, Note_on_c, 0, 80, 60
2, 19754, Note_on_c, 0, 77, 0
2, 19754, Note_on_c, 0, 89, 0
2, 19799, Note_on_c, 0, 81, 60
2, 19803, Note_on_c, 0, 93, 60
2, 19805, Note_on_c, 0, 48, 60
2, 19805, Note_on_c, 0, 36, 60
2, 19815, Note_on_c, 0, 92, 0
2, 19815, Note_on_c, 0, 80, 0
2, 19846, Control_c, 0, 64, 0
2, 19864, Note_on_c, 0, 89, 60
2, 19866, Note_on_c, 0, 93, 0
2, 19866, Note_on_c, 0, 81, 0
2, 19866, Note_on_c, 0, 77, 60
2, 19890, Note_on_c, 0, 36, 0
2, 19890, Note_on_c, 0, 48, 0
2, 19918, Note_on_c, 0, 81, 60
2, 19920, Note_on_c, 0, 60, 60
2, 19920, Note_on_c, 0, 65, 60
2, 19920, Note_on_c, 0, 69, 60
2, 19920, Note_on_c, 0, 57, 60
2, 19936, Note_on_c, 0, 89, 0
2, 19936, Note_on_c, 0, 77, 0
2, 19959, Note_on_c, 0, 60, 0
2, 19959, Note_on_c, 0, 65, 0
2, 19959, Note_on_c, 0, 57, 0
2, 19967, Note_on_c, 0, 69, 0
2, 19970, Note_on_c, 0, 86, 60
2, 19980, Note_on_c, 0, 81, 0
2, 19980, Note_on_c, 0, 74, 60
2, 20029, Note_on_c, 0, 48, 60
2, 20029, Note_on_c, 0, 36, 60
2, 20080, Note_on_c, 0, 84, 60
2, 20080, Note_on_c, 0, 72, 60
2, 20087, Note_on_c, 0, 74, 0
2, 20089, Note_on_c, 0, 86, 0
2, 20112, Note_on_c, 0, 36, 0
2, 20112, Note_on_c, 0, 48, 0
2, 20147, Note_on_c, 0, 82, 60
2, 20150, Note_on_c, 0, 72, 0
2, 20150, Note_on_c, 0, 84, 0
2, 20150, Note_on_c, 0, 60, 60
2, 20150, Note_on_c, 0, 64, 60
2, 20150, Note_on_c, 0, 70, 60
2, 20150, Note_on_c, 0, 58, 60
2, 20189, Note_on_c, 0, 58, 0
2, 20189, Note_on_c, 0, 64, 0
2, 20189, Note_on_c, 0, 60, 0
2, 20204, Note_on_c, 0, 79, 60
2, 20210, Note_on_c, 0, 82, 0
2, 20210, Note_on_c, 0, 70, 0
2, 20210, Note_on_c, 0, 67, 60
2, 20268, Note_on_c, 0, 79, 0
2, 20268, Note_on_c, 0, 53, 60
2, 20268, Note_on_c, 0, 57, 60
2, 20268, Note_on_c, 0, 60, 60
2, 20268, Note_on_c, 0, 65, 60
2, 20268, Note_on_c, 0, 77, 60
2, 20268, Note_on_c, 0, 41, 60
2, 20278, Note_on_c, 0, 67, 0
2, 20377, Control_c, 0, 64, 127
2, 20456, Note_on_c, 0, 60, 0
2, 20498, Note_on_c, 0, 81, 60
2, 20500, Note_on_c, 0, 54, 60
2, 20500, Note_on_c, 0, 60, 60
2, 20500, Note_on_c, 0, 63, 60
2, 20500, Note_on_c, 0, 42, 60
2, 20508, Note_on_c, 0, 53, 0
2, 20508, Note_on_c, 0, 41, 0
2, 20508, Note_on_c, 0, 69, 60
2, 20515, Note_on_c, 0, 57, 0
2, 20515, Note_on_c, 0, 77, 0
2, 20524, Note_on_c, 0, 65, 0
2, 20564, Note_on_c, 0, 78, 60
2, 20564, Note_on_c, 0, 75, 60
2, 20616, Note_on_c, 0, 84, 60
2, 20616, Note_on_c, 0, 72, 60
2, 20633, Note_on_c, 0, 75, 0
2, 20633, Note_on_c, 0, 78, 0
2, 20633, Note_on_c, 0, 69, 0
2, 20633, Note_on_c, 0, 81, 0
2, 20657, Control_c, 0, 64, 0
2, 20670, Note_on_c, 0, 78, 60
2, 20680, Note_on_c, 0, 75, 60
2, 20693, Note_on_c, 0, 84, 0
2, 20693, Note_on_c, 0, 72, 0
2, 20729, Note_on_c, 0, 82, 60
2, 20731, Note_on_c, 0, 70, 60
2, 20731, Note_on_c, 0, 55, 60
2, 20737, Note_on_c, 0, 43, 60
2, 20740, Note_on_c, 0, 60, 0
2, 20740, Note_on_c, 0, 63, 0
2, 20740, Note_on_c, 0, 75, 0
2, 20740, Note_on_c, 0, 54, 0
2, 20740, Note_on_c, 0, 78, 0
2, 20740, Note_on_c, 0, 42, 0
2, 20784, Note_on_c, 0, 81, 60
2, 20794, Note_on_c, 0, 82, 0
2, 20794, Note_on_c, 0, 69, 60
2, 20801, Note_on_c, 0, 70, 0
2, 20826, Note_on_c, 0, 43, 0
2, 20826, Note_on_c, 0, 55, 0
2, 20845, Note_on_c, 0, 82, 60
2, 20845, Note_on_c, 0, 70, 60
2, 20847, Note_on_c, 0, 62, 60
2, 20847, Note_on_c, 0, 58, 60
2, 20854, Note_on_c, 0, 81, 0
2, 20854, Note_on_c, 0, 69, 0
2, 20889, Note_on_c, 0, 62, 0
2, 20889, Note_on_c, 0, 58, 0
2, 20910, Note_on_c, 0, 79, 60
2, 20910, Note_on_c, 0, 67, 60
2, 20942, Note_on_c, 0, 70, 0
2, 20942, Note_on_c, 0, 82, 0
2, 20963, Note_on_c, 0, 50, 60
2, 20973, Note_on_c, 0, 38, 60
2, 21019, Note_on_c, 0, 81, 60
2, 21019, Note_on_c, 0, 69, 60
2, 21035, Note_on_c, 0, 79, 0
2, 21043, Note_on_c, 0, 67, 0
2, 21059, Note_on_c, 0, 38, 0
2, 21059, Note_on_c, 0, 50, 0
2, 21079, Note_on_c, 0, 81, 0
2, 21079, Note_on_c, 0, 62, 60
2, 21079, Note_on_c, 0, 70, 60
2, 21079, Note_on_c, 0, 82, 60
2, 21079, Note_on_c, 0, 58, 60
2, 21091, Note_on_c, 0, 69, 0
2, 21120, Note_on_c, 0, 62, 0
2, 21120, Note_on_c, 0, 58, 0
2, 21140, Note_on_c, 0, 86, 60
2, 21147, Note_on_c, 0, 74, 60
2, 21149, Note_on_c, 0, 70, 0
2, 21149, Note_on_c, 0, 82, 0
2, 21189, Note_on_c, 0, 85, 60
2, 21192, Note_on_c, 0, 55, 60
2, 21192, Note_on_c, 0, 58, 60
2, 21192, Note_on_c, 0, 61, 60
2, 21192, Note_on_c, 0, 64, 60
2, 21192, Note_on_c, 0, 73, 60
2, 21192, Note_on_c, 0, 43, 60
2, 21205, Note_on_c, 0, 86, 0
2, 21205, Note_on_c, 0, 74, 0
2, 21244, Control_c, 0, 64, 127
2, 21249, Note_on_c, 0, 88, 60
2, 21252, Note_on_c, 0, 73, 0
2, 21256, Note_on_c, 0, 76, 60
2, 21259, Note_on_c, 0, 85, 0
2, 21308, Note_on_c, 0, 91, 60
2, 21308, Note_on_c, 0, 79, 60
2, 21310, Note_on_c, 0, 88, 0
2, 21316, Note_on_c, 0, 76, 0
2, 21331, Note_on_c, 0, 79, 0
2, 21354, Note_on_c, 0, 67, 60
2, 21363, Note_on_c, 0, 79, 60
2, 21393, Note_on_c, 0, 91, 0
2, 21414, Note_on_c, 0, 58, 0
2, 21414, Note_on_c, 0, 79, 0
2, 21414, Note_on_c, 0, 64, 0
2, 21414, Note_on_c, 0, 61, 0
2, 21416, Note_on_c, 0, 43, 0
2, 21416, Note_on_c, 0, 55, 0
2, 21421, Note_on_c, 0, 69, 60
2, 21421, Note_on_c, 0, 81, 60
2, 21421, Note_on_c, 0, 57, 60
2, 21424, Note_on_c, 0, 67, 0
2, 21424, Note_on_c, 0, 54, 60
2, 21424, Note_on_c, 0, 60, 60
2, 21424, Note_on_c, 0, 63, 60
2, 21424, Note_on_c, 0, 42, 60
2, 21447, Control_c, 0, 64, 0
2, 21475, Note_on_c, 0, 84, 60
2, 21484, Note_on_c, 0, 81, 0
2, 21484, Note_on_c, 0, 72, 60
2, 21493, Note_on_c, 0, 69, 0
2, 21530, Note_on_c, 0, 87, 60
2, 21532, Note_on_c, 0, 75, 60
2, 21547, Note_on_c, 0, 72, 0
2, 21547, Note_on_c, 0, 84, 0
2, 21596, Note_on_c, 0, 90, 60
2, 21598, Note_on_c, 0, 87, 0
2, 21598, Note_on_c, 0, 75, 0
2, 21602, Note_on_c, 0, 78, 60
2, 21642, Note_on_c, 0, 60, 0
2, 21642, Note_on_c, 0, 63, 0
2, 21642, Note_on_c, 0, 57, 0
2, 21645, Note_on_c, 0, 42, 0
2, 21645, Note_on_c, 0, 54, 0
2, 21649, Note_on_c, 0, 91, 60
2, 21653, Note_on_c, 0, 55, 60
2, 21653, Note_on_c, 0, 79, 60
2, 21653, Note_on_c, 0, 43, 60
2, 21661, Note_on_c, 0, 78, 0
2, 21661, Note_on_c, 0, 90, 0
2, 21714, Note_on_c, 0, 86, 60
2, 21717, Note_on_c, 0, 79, 0
2, 21717, Note_on_c, 0, 91, 0
2, 21723, Note_on_c, 0, 74, 60
2, 21746, Note_on_c, 0, 55, 0
2, 21746, Note_on_c, 0, 43, 0
2, 21779, Note_on_c, 0, 86, 0
2, 21779, Note_on_c, 0, 62, 60
2, 21779, Note_on_c, 0, 70, 60
2, 21779, Note_on_c, 0, 82, 60
2, 21779, Note_on_c, 0, 58, 60
2, 21782, Note_on_c, 0, 74, 0
2, 21818, Note_on_c, 0, 62, 0
2, 21818, Note_on_c, 0, 58, 0
2, 21835, Note_on_c, 0, 67, 60
2, 21842, Note_on_c, 0, 82, 0
2, 21842, Note_on_c, 0, 79, 60
2, 21851, Note_on_c, 0, 70, 0
2, 21890, Note_on_c, 0, 50, 60
2, 21890, Note_on_c, 0, 38, 60
2, 21946, Note_on_c, 0, 81, 60
2, 21956, Note_on_c, 0, 79, 0
2, 21956, Note_on_c, 0, 69, 60
2, 21965, Note_on_c, 0, 67, 0
2, 21988, Note_on_c, 0, 38, 0
2, 21988, Note_on_c, 0, 50, 0
2, 22011, Note_on_c, 0, 81, 0
2, 22011, Note_on_c, 0, 62, 60
2, 22011, Note_on_c, 0, 70, 60
2, 22011, Note_on_c, 0, 82, 60
2, 22011, Note_on_c, 0, 58, 60
2, 22019, Note_on_c, 0, 69, 0
2, 22049, Note_on_c, 0, 62, 0
2, 22049, Note_on_c, 0, 58, 0
2, 22063, Note_on_c, 0, 86, 60
2, 22072, Note_on_c, 0, 74, 60
2, 22075, Note_on_c, 0, 82, 0
2, 22081, Note_on_c, 0, 70, 0
2, 22128, Note_on_c, 0, 72, 60
2, 22128, Note_on_c, 0, 75, 60
2, 22128, Note_on_c, 0, 79, 60
2, 22128, Note_on_c, 0, 84, 60
2, 22128, Note_on_c, 0, 87, 60
2, 22128, Note_on_c, 0, 67, 60
2, 22130, Note_on_c, 0, 74, 0
2, 22130, Note_on_c, 0, 36, 60
2, 22130, Note_on_c, 0, 48, 60
2, 22130, Control_c, 0, 64, 127
2, 22137, Note_on_c, 0, 86, 0
2, 22227, Note_on_c, 0, 60, 60
2, 22227, Note_on_c, 0, 63, 60
2, 22227, Note_on_c, 0, 55, 60
2, 22268, Note_on_c, 0, 55, 0
2, 22268, Note_on_c, 0, 63, 0
2, 22268, Note_on_c, 0, 60, 0
2, 22342, Note_on_c, 0, 55, 60
2, 22351, Note_on_c, 0, 63, 60
2, 22351, Note_on_c, 0, 60, 60
2, 22414, Note_on_c, 0, 67, 0
2, 22420, Note_on_c, 0, 79, 0
2, 22435, Note_on_c, 0, 63, 0
2, 22435, Note_on_c, 0, 55, 0
2, 22435, Note_on_c, 0, 60, 0
2, 22458, Note_on_c, 0, 79, 60
2, 22458, Note_on_c, 0, 67, 60
2, 22463, Note_on_c, 0, 84, 0
2, 22463, Note_on_c, 0, 75, 0
2, 22463, Note_on_c, 0, 87, 0
2, 22463, Note_on_c, 0, 72, 0
2, 22488, Note_on_c, 0, 36, 0
2, 22490, Note_on_c, 0, 48, 0
2, 22521, Note_on_c, 0, 79, 0
2, 22525, Note_on_c, 0, 67, 0
2, 22567, Note_on_c, 0, 84, 60
2, 22569, Control_c, 0, 64, 0
2, 22574, Note_on_c, 0, 72, 60
2, 22574, Note_on_c, 0, 51, 60
2, 22584, Note_on_c, 0, 39, 60
2, 22667, Note_on_c, 0, 51, 0
2, 22674, Note_on_c, 0, 39, 0
2, 22695, Note_on_c, 0, 72, 0
2, 22695, Note_on_c, 0, 84, 0
2, 22695, Note_on_c, 0, 87, 60
2, 22695, Note_on_c, 0, 55, 60
2, 22695, Note_on_c, 0, 60, 60
2, 22695, Note_on_c, 0, 63, 60
2, 22695, Note_on_c, 0, 75, 60
2, 22732, Note_on_c, 0, 63, 0
2, 22732, Note_on_c, 0, 60, 0
2, 22732, Note_on_c, 0, 55, 0
2, 22746, Note_on_c, 0, 93, 60
2, 22749, Note_on_c, 0, 81, 60
2, 22758, Note_on_c, 0, 87, 0
2, 22758, Note_on_c, 0, 75, 0
2, 22811, Note_on_c, 0, 51, 60
2, 22821, Note_on_c, 0, 39, 60
2, 22853, Note_on_c, 0, 93, 0
2, 22865, Note_on_c, 0, 81, 0
2, 22865, Note_on_c, 0, 87, 60
2, 22865, Note_on_c, 0, 75, 60
2, 22897, Note_on_c, 0, 51, 0
2, 22906, Note_on_c, 0, 39, 0
2, 22919, Note_on_c, 0, 84, 60
2, 22927, Note_on_c, 0, 87, 0
2, 22927, Note_on_c, 0, 75, 0
2, 22927, Note_on_c, 0, 63, 60
2, 22927, Note_on_c, 0, 72, 60
2, 22927, Note_on_c, 0, 60, 60
2, 22930, Note_on_c, 0, 55, 60
2, 22965, Note_on_c, 0, 55, 0
2, 22965, Note_on_c, 0, 63, 0
2, 22965, Note_on_c, 0, 60, 0
2, 22981, Note_on_c, 0, 79, 60
2, 22981, Note_on_c, 0, 75, 60
2, 23027, Note_on_c, 0, 82, 60
2, 23027, Note_on_c, 0, 70, 60
2, 23030, Note_on_c, 0, 50, 60
2, 23035, Note_on_c, 0, 38, 60
2, 23041, Note_on_c, 0, 79, 0
2, 23041, Note_on_c, 0, 72, 0
2, 23048, Note_on_c, 0, 75, 0
2, 23048, Note_on_c, 0, 84, 0
2, 23123, Note_on_c, 0, 50, 0
2, 23130, Note_on_c, 0, 38, 0
2, 23146, Note_on_c, 0, 62, 60
2, 23148, Note_on_c, 0, 86, 60
2, 23148, Note_on_c, 0, 74, 60
2, 23151, Note_on_c, 0, 58, 60
2, 23151, Note_on_c, 0, 55, 60
2, 23164, Note_on_c, 0, 70, 0
2, 23167, Note_on_c, 0, 82, 0
2, 23184, Note_on_c, 0, 58, 0
2, 23187, Note_on_c, 0, 55, 0
2, 23187, Note_on_c, 0, 62, 0
2, 23211, Note_on_c, 0, 91, 60
2, 23213, Note_on_c, 0, 79, 60
2, 23230, Note_on_c, 0, 86, 0
2, 23230, Note_on_c, 0, 74, 0
2, 23276, Note_on_c, 0, 50, 60
2, 23276, Note_on_c, 0, 38, 60
2, 23329, Note_on_c, 0, 86, 60
2, 23329, Note_on_c, 0, 74, 60
2, 23346, Note_on_c, 0, 91, 0
2, 23352, Note_on_c, 0, 79, 0
2, 23360, Note_on_c, 0, 38, 0
2, 23360, Note_on_c, 0, 50, 0
2, 23383, Note_on_c, 0, 82, 60
2, 23383, Note_on_c, 0, 62, 60
2, 23390, Note_on_c, 0, 70, 60
2, 23390, Note_on_c, 0, 58, 60
2, 23393, Note_on_c, 0, 55, 60
2, 23406, Note_on_c, 0, 74, 0
2, 23406, Note_on_c, 0, 86, 0
2, 23429, Note_on_c, 0, 58, 0
2, 23429, Note_on_c, 0, 62, 0
2, 23429, Note_on_c, 0, 55, 0
2, 23444, Note_on_c, 0, 79, 60
2, 23444, Note_on_c, 0, 67, 60
2, 23467, Note_on_c, 0, 82, 0
2, 23467, Note_on_c, 0, 70, 0
2, 23490, Note_on_c, 0, 79, 0
2, 23490, Note_on_c, 0, 78, 60
2, 23496, Note_on_c, 0, 66, 60
2, 23499, Note_on_c, 0, 67, 0
2, 23499, Note_on_c, 0, 50, 60
2, 23499, Note_on_c, 0, 38, 60
2, 23576, Note_on_c, 0, 38, 0
2, 23583, Note_on_c, 0, 50, 0
2, 23599, Note_on_c, 0, 60, 60
2, 23604, Note_on_c, 0, 69, 60
2, 23604, Note_on_c, 0, 81, 60
2, 23604, Note_on_c, 0, 57, 60
2, 23606, Note_on_c, 0, 54, 60
2, 23606, Control_c, 0, 64, 127
2, 23620, Note_on_c, 0, 66, 0
2, 23620, Note_on_c, 0, 78, 0
2, 23637, Note_on_c, 0, 57, 0
2, 23643, Note_on_c, 0, 54, 0
2, 23643, Note_on_c, 0, 60, 0
2, 23655, Note_on_c, 0, 86, 60
2, 23658, Note_on_c, 0, 74, 60
2, 23664, Note_on_c, 0, 81, 0
2, 23666, Note_on_c, 0, 69, 0
2, 23702, Note_on_c, 0, 50, 60
2, 23709, Note_on_c, 0, 38, 60
2, 23760, Note_on_c, 0, 84, 60
2, 23766, Note_on_c, 0, 72, 60
2, 23769, Note_on_c, 0, 74, 0
2, 23776, Note_on_c, 0, 86, 0
2, 23778, Control_c, 0, 64, 0
2, 23792, Note_on_c, 0, 38, 0
2, 23792, Note_on_c, 0, 50, 0
2, 23827, Note_on_c, 0, 72, 0
2, 23827, Note_on_c, 0, 84, 0
2, 23827, Note_on_c, 0, 70, 60
2, 23830, Note_on_c, 0, 60, 60
2, 23830, Note_on_c, 0, 82, 60
2, 23830, Note_on_c, 0, 57, 60
2, 23836, Note_on_c, 0, 54, 60
2, 23866, Note_on_c, 0, 54, 0
2, 23866, Note_on_c, 0, 60, 0
2, 23866, Note_on_c, 0, 57, 0
2, 23880, Note_on_c, 0, 81, 60
2, 23880, Note_on_c, 0, 69, 60
2, 23882, Note_on_c, 0, 82, 0
2, 23890, Note_on_c, 0, 70, 0
2, 23936, Note_on_c, 0, 79, 60
2, 23936, Note_on_c, 0, 67, 60
2, 23939, Note_on_c, 0, 58, 60
2, 23939, Note_on_c, 0, 55, 60
2, 23946, Note_on_c, 0, 81, 0
2, 23946, Note_on_c, 0, 69, 0
2, 24136, Control_c, 0, 64, 127
2, 24162, Note_on_c, 0, 90, 60
2, 24162, Note_on_c, 0, 98, 60
2, 24162, Note_on_c, 0, 86, 60
2, 24164, Note_on_c, 0, 54, 60
2, 24164, Note_on_c, 0, 57, 60
2, 24164, Note_on_c, 0, 62, 60
2, 24164, Note_on_c, 0, 66, 60
2, 24164, Note_on_c, 0, 69, 60
2, 24164, Note_on_c, 0, 74, 60
2, 24164, Note_on_c, 0, 78, 60
2, 24164, Note_on_c, 0, 81, 60
2, 24164, Note_on_c, 0, 50, 60
2, 24176, Note_on_c, 0, 58, 0
2, 24176, Note_on_c, 0, 79, 0
2, 24176, Note_on_c, 0, 55, 0
2, 24176, Note_on_c, 0, 38, 60
2, 24176, Note_on_c, 0, 26, 60
2, 24183, Note_on_c, 0, 67, 0
2, 24227, Note_on_c, 0, 86, 0
2, 24227, Note_on_c, 0, 54, 0
2, 24227, Note_on_c, 0, 98, 0
2, 24227, Note_on_c, 0, 57, 0
2, 24227, Note_on_c, 0, 62, 0
2, 24227, Note_on_c, 0, 66, 0
2, 24227, Note_on_c, 0, 90, 0
2, 24227, Note_on_c, 0, 78, 0
2, 24227, Note_on_c, 0, 81, 0
2, 24227, Note_on_c, 0, 74, 0
2, 24234, Note_on_c, 0, 69, 0
2, 24236, Note_on_c, 0, 38, 0
2, 24236, Note_on_c, 0, 50, 0
2, 24236, Note_on_c, 0, 26, 0
2, 24278, Note_on_c, 0, 74, 60
2, 24278, Note_on_c, 0, 86, 60
2, 24278, Note_on_c, 0, 62, 60
2, 24280, Control_c, 0, 64, 0
2, 24343, Note_on_c, 0, 86, 0
2, 24343, Note_on_c, 0, 74, 0
2, 24345, Note_on_c, 0, 62, 0
2, 24397, Note_on_c, 0, 94, 60
2, 24399, Note_on_c, 0, 55, 60
2, 24399, Note_on_c, 0, 70, 60
2, 24399, Note_on_c, 0, 74, 60
2, 24399, Note_on_c, 0, 79, 60
2, 24399, Note_on_c, 0, 82, 60
2, 24399, Note_on_c, 0, 43, 60
2, 24459, Note_on_c, 0, 93, 60
2, 24461, Note_on_c, 0, 82, 0
2, 24461, Note_on_c, 0, 70, 0
2, 24461, Note_on_c, 0, 94, 0
2, 24469, Note_on_c, 0, 81, 60
2, 24469, Note_on_c, 0, 69, 60
2, 24487, Note_on_c, 0, 55, 0
2, 24494, Note_on_c, 0, 43, 0
2, 24505, Note_on_c, 0, 94, 60
2, 24515, Note_on_c, 0, 93, 0
2, 24515, Note_on_c, 0, 82, 60
2, 24517, Note_on_c, 0, 81, 0
2, 24517, Note_on_c, 0, 62, 60
2, 24517, Note_on_c, 0, 70, 60
2, 24517, Note_on_c, 0, 58, 60
2, 24525, Note_on_c, 0, 69, 0
2, 24531, Note_on_c, 0, 74, 0
2, 24531, Note_on_c, 0, 79, 0
2, 24557, Note_on_c, 0, 58, 0
2, 24557, Note_on_c, 0, 62, 0
2, 24561, Note_on_c, 0, 74, 60
2, 24561, Note_on_c, 0, 79, 60
2, 24561, Note_on_c, 0, 91, 60
2, 24561, Note_on_c, 0, 67, 60
2, 24580, Note_on_c, 0, 82, 0
2, 24580, Note_on_c, 0, 94, 0
2, 24626, Note_on_c, 0, 50, 60
2, 24626, Note_on_c, 0, 38, 60
2, 24680, Note_on_c, 0, 70, 0
2, 24680, Note_on_c, 0, 67, 0
2, 24687, Note_on_c, 0, 93, 60
2, 24690, Note_on_c, 0, 81, 60
2, 24690, Note_on_c, 0, 69, 60
2, 24703, Note_on_c, 0, 91, 0
2, 24703, Note_on_c, 0, 79, 0
2, 24713, Note_on_c, 0, 50, 0
2, 24713, Note_on_c, 0, 38, 0
2, 24741, Note_on_c, 0, 94, 60
2, 24743, Note_on_c, 0, 82, 60
2, 24750, Note_on_c, 0, 70, 60
2, 24752, Note_on_c, 0, 81, 0
2, 24752, Note_on_c, 0, 74, 0
2, 24752, Note_on_c, 0, 93, 0
2, 24752, Note_on_c, 0, 62, 60
2, 24752, Note_on_c, 0, 58, 60
2, 24759, Note_on_c, 0, 69, 0
2, 24787, Note_on_c, 0, 62, 0
2, 24787, Note_on_c, 0, 58, 0
2, 24801, Note_on_c, 0, 86, 60
2, 24801, Note_on_c, 0, 98, 60
2, 24801, Note_on_c, 0, 74, 60
2, 24811, Note_on_c, 0, 70, 0
2, 24811, Note_on_c, 0, 82, 0
2, 24811, Note_on_c, 0, 94, 0
2, 24857, Note_on_c, 0, 97, 60
2, 24866, Note_on_c, 0, 86, 0
2, 24866, Note_on_c, 0, 74, 0
2, 24866, Note_on_c, 0, 98, 0
2, 24866, Note_on_c, 0, 73, 60
2, 24866, Note_on_c, 0, 76, 60
2, 24866, Note_on_c, 0, 79, 60
2, 24866, Note_on_c, 0, 82, 60
2, 24866, Note_on_c, 0, 85, 60
2, 24866, Note_on_c, 0, 64, 60
2, 24868, Note_on_c, 0, 55, 60
2, 24868, Note_on_c, 0, 58, 60
2, 24868, Note_on_c, 0, 61, 60
2, 24868, Note_on_c, 0, 43, 60
2, 24889, Note_on_c, 0, 76, 0
2, 24912, Note_on_c, 0, 88, 60
2, 24912, Note_on_c, 0, 100, 60
2, 24912, Note_on_c, 0, 76, 60
2, 24922, Note_on_c, 0, 79, 0
2, 24929, Note_on_c, 0, 85, 0
2, 24929, Note_on_c, 0, 97, 0
2, 24968, Note_on_c, 0, 103, 60
2, 24968, Note_on_c, 0, 91, 60
2, 24973, Note_on_c, 0, 79, 60
2, 24978, Note_on_c, 0, 88, 0
2, 24978, Note_on_c, 0, 100, 0
2, 24989, Note_on_c, 0, 91, 0
2, 24989, Note_on_c, 0, 79, 0
2, 25027, Note_on_c, 0, 103, 0
2, 25027, Note_on_c, 0, 79, 60
2, 25027, Note_on_c, 0, 91, 60
2, 25027, Note_on_c, 0, 67, 60
2, 25082, Note_on_c, 0, 58, 0
2, 25082, Note_on_c, 0, 55, 0
2, 25082, Note_on_c, 0, 43, 0
2, 25082, Note_on_c, 0, 61, 0
2, 25082, Note_on_c, 0, 64, 0
2, 25089, Note_on_c, 0, 82, 0
2, 25089, Note_on_c, 0, 79, 0
2, 25089, Note_on_c, 0, 73, 0
2, 25089, Note_on_c, 0, 76, 0
2, 25089, Note_on_c, 0, 78, 60
2, 25089, Note_on_c, 0, 81, 60
2, 25096, Note_on_c, 0, 67, 0
2, 25096, Note_on_c, 0, 93, 60
2, 25099, Note_on_c, 0, 54, 60
2, 25099, Note_on_c, 0, 57, 60
2, 25099, Note_on_c, 0, 60, 60
2, 25099, Note_on_c, 0, 63, 60
2, 25099, Note_on_c, 0, 69, 60
2, 25099, Note_on_c, 0, 72, 60
2, 25099, Note_on_c, 0, 75, 60
2, 25099, Note_on_c, 0, 42, 60
2, 25105, Note_on_c, 0, 91, 0
2, 25133, Note_on_c, 0, 96, 60
2, 25140, Note_on_c, 0, 84, 60
2, 25150, Note_on_c, 0, 93, 0
2, 25156, Note_on_c, 0, 69, 0
2, 25156, Note_on_c, 0, 75, 0
2, 25194, Note_on_c, 0, 99, 60
2, 25194, Note_on_c, 0, 87, 60
2, 25196, Note_on_c, 0, 75, 60
2, 25205, Note_on_c, 0, 84, 0
2, 25205, Note_on_c, 0, 96, 0
2, 25212, Note_on_c, 0, 78, 0
2, 25252, Note_on_c, 0, 102, 60
2, 25252, Note_on_c, 0, 90, 60
2, 25261, Note_on_c, 0, 99, 0
2, 25261, Note_on_c, 0, 87, 0
2, 25261, Note_on_c, 0, 78, 60
2, 25313, Note_on_c, 0, 103, 60
2, 25313, Note_on_c, 0, 91, 60
2, 25315, Note_on_c, 0, 79, 60
2, 25315, Note_on_c, 0, 82, 60
2, 25315, Note_on_c, 0, 86, 60
2, 25315, Note_on_c, 0, 55, 60
2, 25321, Note_on_c, 0, 78, 0
2, 25321, Note_on_c, 0, 72, 0
2, 25321, Note_on_c, 0, 81, 0
2, 25321, Note_on_c, 0, 63, 0
2, 25321, Note_on_c, 0, 102, 0
2, 25321, Note_on_c, 0, 57, 0
2, 25321, Note_on_c, 0, 75, 0
2, 25321, Note_on_c, 0, 90, 0
2, 25321, Note_on_c, 0, 60, 0
2, 25321, Note_on_c, 0, 43, 60
2, 25324, Note_on_c, 0, 42, 0
2, 25324, Note_on_c, 0, 54, 0
2, 25338, Note_on_c, 0, 86, 0
2, 25366, Note_on_c, 0, 103, 0
2, 25366, Note_on_c, 0, 98, 60
2, 25366, Note_on_c, 0, 86, 60
2, 25375, Note_on_c, 0, 74, 60
2, 25377, Note_on_c, 0, 79, 0
2, 25377, Note_on_c, 0, 91, 0
2, 25377, Note_on_c, 0, 82, 0
2, 25398, Note_on_c, 0, 55, 0
2, 25408, Note_on_c, 0, 43, 0
2, 25416, Control_c, 0, 64, 127
2, 25429, Note_on_c, 0, 94, 60
2, 25431, Note_on_c, 0, 62, 60
2, 25431, Note_on_c, 0, 70, 60
2, 25431, Note_on_c, 0, 82, 60
2, 25431, Note_on_c, 0, 58, 60
2, 25438, Note_on_c, 0, 74, 0
2, 25454, Note_on_c, 0, 70, 0
2, 25462, Note_on_c, 0, 98, 0
2, 25462, Note_on_c, 0, 86, 0
2, 25470, Note_on_c, 0, 62, 0
2, 25470, Note_on_c, 0, 58, 0
2, 25475, Note_on_c, 0, 91, 60
2, 25477, Note_on_c, 0, 70, 60
2, 25477, Note_on_c, 0, 74, 60
2, 25477, Note_on_c, 0, 79, 60
2, 25477, Note_on_c, 0, 67, 60
2, 25493, Note_on_c, 0, 94, 0
2, 25501, Note_on_c, 0, 82, 0
2, 25542, Note_on_c, 0, 51, 60
2, 25542, Note_on_c, 0, 39, 60
2, 25547, Note_on_c, 0, 70, 0
2, 25594, Note_on_c, 0, 82, 60
2, 25594, Note_on_c, 0, 94, 60
2, 25594, Note_on_c, 0, 70, 60
2, 25617, Note_on_c, 0, 91, 0
2, 25617, Note_on_c, 0, 74, 0
2, 25617, Note_on_c, 0, 79, 0
2, 25626, Note_on_c, 0, 67, 0
2, 25626, Note_on_c, 0, 51, 0
2, 25635, Note_on_c, 0, 39, 0
2, 25642, Control_c, 0, 64, 0
2, 25647, Note_on_c, 0, 93, 60
2, 25654, Note_on_c, 0, 81, 60
2, 25656, Note_on_c, 0, 94, 0
2, 25656, Note_on_c, 0, 82, 0
2, 25656, Note_on_c, 0, 57, 60
2, 25656, Note_on_c, 0, 61, 60
2, 25656, Note_on_c, 0, 69, 60
2, 25656, Note_on_c, 0, 55, 60
2, 25666, Note_on_c, 0, 70, 0
2, 25694, Note_on_c, 0, 61, 0
2, 25694, Note_on_c, 0, 57, 0
2, 25694, Note_on_c, 0, 55, 0
2, 25707, Note_on_c, 0, 93, 0
2, 25707, Note_on_c, 0, 79, 60
2, 25707, Note_on_c, 0, 91, 60
2, 25707, Note_on_c, 0, 67, 60
2, 25717, Note_on_c, 0, 69, 0
2, 25717, Note_on_c, 0, 81, 0
2, 25763, Note_on_c, 0, 78, 60
2, 25763, Note_on_c, 0, 90, 60
2, 25763, Note_on_c, 0, 69, 60
2, 25773, Note_on_c, 0, 91, 0
2, 25773, Note_on_c, 0, 79, 0
2, 25773, Note_on_c, 0, 50, 60
2, 25773, Note_on_c, 0, 54, 60
2, 25773, Note_on_c, 0, 57, 60
2, 25773, Note_on_c, 0, 62, 60
2, 25773, Note_on_c, 0, 66, 60
2, 25773, Note_on_c, 0, 74, 60
2, 25773, Note_on_c, 0, 38, 60
2, 25779, Note_on_c, 0, 67, 0
2, 25879, Note_on_c, 0, 50, 0
2, 25879, Note_on_c, 0, 51, 60
2, 25879, Note_on_c, 0, 39, 60
2, 25889, Note_on_c, 0, 38, 0
2, 25940, Note_on_c, 0, 51, 0
2, 25940, Note_on_c, 0, 50, 60
2, 25940, Control_c, 0, 64, 127
2, 25943, Note_on_c, 0, 39, 0
2, 25947, Note_on_c, 0, 38, 60
2, 25956, Note_on_c, 0, 74, 0
2, 25956, Note_on_c, 0, 78, 0
2, 25984, Note_on_c, 0, 81, 60
2, 25984, Note_on_c, 0, 86, 60
2, 25984, Note_on_c, 0, 98, 60
2, 25984, Note_on_c, 0, 78, 60
2, 25993, Note_on_c, 0, 66, 0
2, 25993, Note_on_c, 0, 90, 0
2, 25993, Note_on_c, 0, 74, 60
2, 26000, Note_on_c, 0, 69, 0
2, 26038, Note_on_c, 0, 48, 60
2, 26038, Note_on_c, 0, 36, 60
2, 26047, Note_on_c, 0, 50, 0
2, 26047, Note_on_c, 0, 38, 0
2, 26100, Note_on_c, 0, 48, 0
2, 26100, Note_on_c, 0, 36, 0
2, 26100, Note_on_c, 0, 46, 60
2, 26100, Note_on_c, 0, 34, 60
2, 26131, Control_c, 0, 64, 0
2, 26152, Note_on_c, 0, 45, 60
2, 26152, Note_on_c, 0, 33, 60
2, 26154, Note_on_c, 0, 34, 0
2, 26154, Note_on_c, 0, 46, 0
2, 26175, Note_on_c, 0, 74, 0
2, 26205, Note_on_c, 0, 86, 0
2, 26205, Note_on_c, 0, 82, 60
2, 26205, Note_on_c, 0, 94, 60
2, 26205, Note_on_c, 0, 79, 60
2, 26208, Note_on_c, 0, 70, 60
2, 26208, Note_on_c, 0, 74, 60
2, 26208, Note_on_c, 0, 43, 60
2, 26214, Note_on_c, 0, 45, 0
2, 26214, Note_on_c, 0, 81, 0
2, 26214, Note_on_c, 0, 98, 0
2, 26214, Note_on_c, 0, 33, 0
2, 26214, Note_on_c, 0, 78, 0
2, 26214, Note_on_c, 0, 31, 60
2, 26231, Note_on_c, 0, 54, 0
2, 26231, Note_on_c, 0, 62, 0
2, 26231, Note_on_c, 0, 57, 0
2, 26258, Note_on_c, 0, 81, 60
2, 26260, Note_on_c, 0, 69, 60
2, 26265, Note_on_c, 0, 93, 60
2, 26268, Note_on_c, 0, 82, 0
2, 26268, Note_on_c, 0, 94, 0
2, 26268, Note_on_c, 0, 70, 0
2, 26301, Note_on_c, 0, 31, 0
2, 26301, Note_on_c, 0, 43, 0
2, 26314, Note_on_c, 0, 94, 60
2, 26324, Note_on_c, 0, 81, 0
2, 26324, Note_on_c, 0, 93, 0
2, 26324, Note_on_c, 0, 79, 0
2, 26324, Note_on_c, 0, 58, 60
2, 26324, Note_on_c, 0, 62, 60
2, 26324, Note_on_c, 0, 70, 60
2, 26324, Note_on_c, 0, 82, 60
2, 26324, Note_on_c, 0, 55, 60
2, 26332, Note_on_c, 0, 74, 0
2, 26332, Note_on_c, 0, 69, 0
2, 26347, Note_on_c, 0, 70, 0
2, 26363, Note_on_c, 0, 55, 0
2, 26363, Note_on_c, 0, 58, 0
2, 26363, Note_on_c, 0, 62, 0
2, 26375, Note_on_c, 0, 91, 60
2, 26376, Note_on_c, 0, 67, 60
2, 26384, Note_on_c, 0, 82, 0
2, 26384, Note_on_c, 0, 94, 0
2, 26384, Note_on_c, 0, 74, 60
2, 26384, Note_on_c, 0, 79, 60
2, 26384, Note_on_c, 0, 70, 60
2, 26440, Note_on_c, 0, 50, 60
2, 26449, Note_on_c, 0, 38, 60
2, 26491, Note_on_c, 0, 93, 60
2, 26491, Note_on_c, 0, 69, 60
2, 26494, Note_on_c, 0, 70, 0
2, 26494, Note_on_c, 0, 79, 0
2, 26494, Note_on_c, 0, 74, 0
2, 26494, Note_on_c, 0, 91, 0
2, 26494, Note_on_c, 0, 81, 60
2, 26500, Note_on_c, 0, 67, 0
2, 26533, Note_on_c, 0, 50, 0
2, 26533, Note_on_c, 0, 38, 0
2, 26544, Note_on_c, 0, 94, 60
2, 26546, Note_on_c, 0, 93, 0
2, 26546, Note_on_c, 0, 81, 0
2, 26546, Note_on_c, 0, 62, 60
2, 26546, Note_on_c, 0, 70, 60
2, 26546, Note_on_c, 0, 58, 60
2, 26549, Note_on_c, 0, 55, 60
2, 26556, Note_on_c, 0, 69, 0
2, 26589, Note_on_c, 0, 62, 0
2, 26589, Note_on_c, 0, 58, 0
2, 26589, Note_on_c, 0, 55, 0
2, 26600, Note_on_c, 0, 98, 60
2, 26602, Note_on_c, 0, 82, 60
2, 26602, Note_on_c, 0, 86, 60
2, 26602, Note_on_c, 0, 79, 60
2, 26610, Note_on_c, 0, 94, 0
2, 26610, Note_on_c, 0, 74, 60
2, 26618, Note_on_c, 0, 70, 0
2, 26667, Note_on_c, 0, 47, 60
2, 26667, Note_on_c, 0, 35, 60
2, 26672, Note_on_c, 0, 74, 0
2, 26688, Note_on_c, 0, 86, 0
2, 26688, Note_on_c, 0, 98, 0
2, 26718, Note_on_c, 0, 98, 60
2, 26718, Note_on_c, 0, 86, 60
2, 26721, Note_on_c, 0, 74, 60
2, 26751, Note_on_c, 0, 47, 0
2, 26760, Note_on_c, 0, 35, 0
2, 26767, Note_on_c, 0, 82, 0
2, 26767, Note_on_c, 0, 79, 0
2, 26775, Note_on_c, 0, 77, 60
2, 26775, Note_on_c, 0, 62, 60
2, 26782, Note_on_c, 0, 98, 0
2, 26782, Note_on_c, 0, 89, 60
2, 26782, Note_on_c, 0, 65, 60
2, 26784, Note_on_c, 0, 56, 60
2, 26788, Note_on_c, 0, 101, 60
2, 26790, Note_on_c, 0, 74, 0
2, 26790, Note_on_c, 0, 86, 0
2, 26814, Note_on_c, 0, 56, 0
2, 26821, Note_on_c, 0, 62, 0
2, 26821, Note_on_c, 0, 65, 0
2, 26832, Note_on_c, 0, 101, 0
2, 26832, Note_on_c, 0, 104, 60
2, 26832, Note_on_c, 0, 92, 60
2, 26834, Note_on_c, 0, 83, 60
2, 26834, Note_on_c, 0, 86, 60
2, 26834, Note_on_c, 0, 80, 60
2, 26842, Note_on_c, 0, 89, 0
2, 26842, Note_on_c, 0, 77, 0
2, 26883, Note_on_c, 0, 47, 60
2, 26893, Note_on_c, 0, 35, 60
2, 26898, Note_on_c, 0, 86, 0
2, 26935, Note_on_c, 0, 98, 60
2, 26944, Note_on_c, 0, 104, 0
2, 26944, Note_on_c, 0, 86, 60
2, 26947, Note_on_c, 0, 80, 0
2, 26947, Note_on_c, 0, 92, 0
2, 26947, Note_on_c, 0, 83, 0
2, 26947, Note_on_c, 0, 74, 60
2, 26976, Note_on_c, 0, 47, 0
2, 26976, Note_on_c, 0, 35, 0
2, 27000, Note_on_c, 0, 77, 60
2, 27000, Note_on_c, 0, 89, 60
2, 27000, Note_on_c, 0, 62, 60
2, 27004, Note_on_c, 0, 56, 60
2, 27007, Note_on_c, 0, 101, 60
2, 27009, Note_on_c, 0, 65, 60
2, 27024, Note_on_c, 0, 98, 0
2, 27024, Note_on_c, 0, 86, 0
2, 27025, Note_on_c, 0, 74, 0
2, 27040, Note_on_c, 0, 56, 0
2, 27047, Note_on_c, 0, 65, 0
2, 27048, Note_on_c, 0, 62, 0
2, 27053, Note_on_c, 0, 104, 60
2, 27060, Note_on_c, 0, 92, 60
2, 27063, Note_on_c, 0, 101, 0
2, 27063, Note_on_c, 0, 77, 0
2, 27063, Note_on_c, 0, 89, 0
2, 27063, Note_on_c, 0, 80, 60
2, 27116, Note_on_c, 0, 84, 60
2, 27116, Note_on_c, 0, 89, 60
2, 27116, Note_on_c, 0, 93, 60
2, 27116, Note_on_c, 0, 81, 60
2, 27119, Note_on_c, 0, 80, 0
2, 27119, Note_on_c, 0, 48, 60
2, 27123, Note_on_c, 0, 105, 60
2, 27128, Note_on_c, 0, 92, 0
2, 27128, Note_on_c, 0, 104, 0
2, 27128, Note_on_c, 0, 36, 60
2, 27144, Note_on_c, 0, 89, 0
2, 27179, Note_on_c, 0, 105, 0
2, 27179, Note_on_c, 0, 89, 60
2, 27181, Note_on_c, 0, 93, 0
2, 27189, Note_on_c, 0, 77, 60
2, 27191, Note_on_c, 0, 81, 0
2, 27195, Note_on_c, 0, 101, 60
2, 27214, Note_on_c, 0, 48, 0
2, 27214, Note_on_c, 0, 36, 0
2, 27235, Note_on_c, 0, 93, 60
2, 27237, Note_on_c, 0, 60, 60
2, 27237, Note_on_c, 0, 65, 60
2, 27237, Note_on_c, 0, 69, 60
2, 27237, Note_on_c, 0, 81, 60
2, 27237, Note_on_c, 0, 57, 60
2, 27251, Note_on_c, 0, 101, 0
2, 27253, Note_on_c, 0, 77, 0
2, 27253, Note_on_c, 0, 89, 0
2, 27261, Note_on_c, 0, 81, 0
2, 27274, Note_on_c, 0, 65, 0
2, 27274, Note_on_c, 0, 57, 0
2, 27274, Note_on_c, 0, 60, 0
2, 27290, Note_on_c, 0, 98, 60
2, 27290, Note_on_c, 0, 86, 60
2, 27297, Note_on_c, 0, 93, 0
2, 27297, Note_on_c, 0, 81, 60
2, 27297, Note_on_c, 0, 77, 60
2, 27300, Note_on_c, 0, 74, 60
2, 27309, Note_on_c, 0, 69, 0
2, 27309, Note_on_c, 0, 84, 0
2, 27353, Note_on_c, 0, 48, 60
2, 27353, Note_on_c, 0, 36, 60
2, 27405, Note_on_c, 0, 98, 0
2, 27405, Note_on_c, 0, 96, 60
2, 27405, Note_on_c, 0, 84, 60
2, 27407, Note_on_c, 0, 77, 0
2, 27407, Note_on_c, 0, 86, 0
2, 27407, Note_on_c, 0, 81, 0
2, 27407, Note_on_c, 0, 74, 0
2, 27413, Note_on_c, 0, 72, 60
2, 27446, Note_on_c, 0, 36, 0
2, 27449, Note_on_c, 0, 48, 0
2, 27467, Note_on_c, 0, 94, 60
2, 27470, Note_on_c, 0, 64, 60
2, 27470, Note_on_c, 0, 70, 60
2, 27470, Note_on_c, 0, 82, 60
2, 27470, Note_on_c, 0, 60, 60
2, 27474, Note_on_c, 0, 96, 0
2, 27474, Note_on_c, 0, 84, 0
2, 27477, Note_on_c, 0, 72, 0
2, 27477, Note_on_c, 0, 58, 60
2, 27509, Note_on_c, 0, 58, 0
2, 27509, Note_on_c, 0, 64, 0
2, 27509, Note_on_c, 0, 60, 0
2, 27521, Note_on_c, 0, 91, 60
2, 27523, Note_on_c, 0, 67, 60
2, 27528, Note_on_c, 0, 79, 60
2, 27529, Note_on_c, 0, 94, 0
2, 27532, Note_on_c, 0, 82, 0
2, 27537, Note_on_c, 0, 70, 0
2, 27583, Note_on_c, 0, 89, 60
2, 27586, Note_on_c, 0, 91, 0
2, 27586, Note_on_c, 0, 65, 60
2, 27586, Note_on_c, 0, 69, 60
2, 27586, Note_on_c, 0, 72, 60
2, 27586, Note_on_c, 0, 77, 60
2, 27586, Note_on_c, 0, 60, 60
2, 27588, Note_on_c, 0, 53, 60
2, 27588, Note_on_c, 0, 57, 60
2, 27588, Note_on_c, 0, 41, 60
2, 27593, Note_on_c, 0, 79, 0
2, 27602, Note_on_c, 0, 67, 0
2, 27681, Control_c, 0, 64, 127
2, 27774, Note_on_c, 0, 60, 0
2, 27794, Note_on_c, 0, 65, 0
2, 27794, Note_on_c, 0, 89, 0
2, 27794, Note_on_c, 0, 77, 0
2, 27794, Note_on_c, 0, 57, 0
2, 27794, Note_on_c, 0, 72, 0
2, 27797, Note_on_c, 0, 53, 0
2, 27797, Note_on_c, 0, 41, 0
2, 27802, Note_on_c, 0, 93, 60
2, 27802, Note_on_c, 0, 81, 60
2, 27809, Note_on_c, 0, 63, 60
2, 27811, Note_on_c, 0, 54, 60
2, 27811, Note_on_c, 0, 60, 60
2, 27811, Note_on_c, 0, 42, 60
2, 27855, Note_on_c, 0, 78, 60
2, 27858, Note_on_c, 0, 75, 60
2, 27897, Note_on_c, 0, 69, 0
2, 27912, Note_on_c, 0, 84, 60
2, 27912, Note_on_c, 0, 96, 60
2, 27912, Note_on_c, 0, 72, 60
2, 27920, Note_on_c, 0, 93, 0
2, 27920, Note_on_c, 0, 75, 0
2, 27920, Note_on_c, 0, 78, 0
2, 27920, Note_on_c, 0, 81, 0
2, 27923, Control_c, 0, 64, 0
2, 27967, Note_on_c, 0, 78, 60
2, 27967, Note_on_c, 0, 75, 60
2, 27974, Note_on_c, 0, 96, 0
2, 27984, Note_on_c, 0, 72, 0
2, 27984, Note_on_c, 0, 84, 0
2, 28020, Note_on_c, 0, 94, 60
2, 28023, Note_on_c, 0, 63, 0
2, 28023, Note_on_c, 0, 54, 0
2, 28023, Note_on_c, 0, 60, 0
2, 28023, Note_on_c, 0, 70, 60
2, 28023, Note_on_c, 0, 79, 60
2, 28023, Note_on_c, 0, 82, 60
2, 28030, Note_on_c, 0, 74, 60
2, 28030, Note_on_c, 0, 55, 60
2, 28032, Note_on_c, 0, 42, 0
2, 28032, Note_on_c, 0, 75, 0
2, 28032, Note_on_c, 0, 78, 0
2, 28032, Note_on_c, 0, 43, 60
2, 28074, Note_on_c, 0, 93, 60
2, 28083, Note_on_c, 0, 81, 60
2, 28083, Note_on_c, 0, 69, 60
2, 28085, Note_on_c, 0, 94, 0
2, 28085, Note_on_c, 0, 82, 0
2, 28092, Note_on_c, 0, 70, 0
2, 28116, Note_on_c, 0, 55, 0
2, 28116, Note_on_c, 0, 43, 0
2, 28129, Note_on_c, 0, 93, 0
2, 28132, Note_on_c, 0, 79, 0
2, 28136, Note_on_c, 0, 94, 60
2, 28139, Note_on_c, 0, 81, 0
2, 28139, Note_on_c, 0, 74, 0
2, 28139, Note_on_c, 0, 70, 60
2, 28139, Note_on_c, 0, 82, 60
2, 28139, Note_on_c, 0, 62, 60
2, 28149, Note_on_c, 0, 69, 0
2, 28149, Note_on_c, 0, 58, 60
2, 28164, Note_on_c, 0, 70, 0
2, 28180, Note_on_c, 0, 62, 0
2, 28180, Note_on_c, 0, 58, 0
2, 28188, Note_on_c, 0, 91, 60
2, 28195, Note_on_c, 0, 79, 60
2, 28197, Note_on_c, 0, 70, 60
2, 28197, Note_on_c, 0, 74, 60
2, 28197, Note_on_c, 0, 67, 60
2, 28204, Note_on_c, 0, 82, 0
2, 28204, Note_on_c, 0, 94, 0
2, 28267, Note_on_c, 0, 50, 60
2, 28267, Note_on_c, 0, 38, 60
2, 28304, Note_on_c, 0, 93, 60
2, 28313, Note_on_c, 0, 81, 60
2, 28313, Note_on_c, 0, 69, 60
2, 28322, Note_on_c, 0, 79, 0
2, 28322, Note_on_c, 0, 91, 0
2, 28329, Note_on_c, 0, 74, 0
2, 28329, Note_on_c, 0, 67, 0
2, 28329, Note_on_c, 0, 70, 0
2, 28353, Note_on_c, 0, 38, 0
2, 28353, Note_on_c, 0, 50, 0
2, 28367, Note_on_c, 0, 94, 60
2, 28367, Note_on_c, 0, 82, 60
2, 28369, Note_on_c, 0, 70, 60
2, 28369, Note_on_c, 0, 62, 60
2, 28376, Note_on_c, 0, 81, 0
2, 28376, Note_on_c, 0, 93, 0
2, 28376, Note_on_c, 0, 58, 60
2, 28386, Note_on_c, 0, 69, 0
2, 28406, Note_on_c, 0, 62, 0
2, 28406, Note_on_c, 0, 58, 0
2, 28425, Note_on_c, 0, 98, 60
2, 28427, Note_on_c, 0, 94, 0
2, 28434, Note_on_c, 0, 70, 0
2, 28434, Note_on_c, 0, 82, 0
2, 28434, Note_on_c, 0, 74, 60
2, 28434, Note_on_c, 0, 86, 60
2, 28481, Note_on_c, 0, 97, 60
2, 28481, Note_on_c, 0, 85, 60
2, 28483, Note_on_c, 0, 58, 60
2, 28483, Note_on_c, 0, 61, 60
2, 28483, Note_on_c, 0, 64, 60
2, 28483, Note_on_c, 0, 76, 60
2, 28483, Note_on_c, 0, 82, 60
2, 28483, Note_on_c, 0, 55, 60
2, 28489, Note_on_c, 0, 86, 0
2, 28489, Note_on_c, 0, 98, 0
2, 28489, Note_on_c, 0, 74, 0
2, 28489, Note_on_c, 0, 79, 60
2, 28489, Note_on_c, 0, 73, 60
2, 28492, Note_on_c, 0, 43, 60
2, 28506, Note_on_c, 0, 76, 0
2, 28534, Note_on_c, 0, 100, 60
2, 28536, Note_on_c, 0, 88, 60
2, 28543, Note_on_c, 0, 79, 0
2, 28543, Note_on_c, 0, 97, 0
2, 28543, Note_on_c, 0, 85, 0
2, 28543, Note_on_c, 0, 76, 60
2, 28583, Note_on_c, 0, 103, 60
2, 28585, Note_on_c, 0, 91, 60
2, 28585, Note_on_c, 0, 79, 60
2, 28594, Note_on_c, 0, 100, 0
2, 28594, Note_on_c, 0, 88, 0
2, 28608, Note_on_c, 0, 91, 0
2, 28610, Note_on_c, 0, 79, 0
2, 28638, Note_on_c, 0, 91, 60
2, 28646, Note_on_c, 0, 79, 60
2, 28646, Note_on_c, 0, 67, 60
2, 28648, Note_on_c, 0, 103, 0
2, 28690, Note_on_c, 0, 79, 0
2, 28699, Note_on_c, 0, 93, 60
2, 28702, Note_on_c, 0, 76, 0
2, 28702, Note_on_c, 0, 64, 0
2, 28702, Note_on_c, 0, 55, 0
2, 28702, Note_on_c, 0, 58, 0
2, 28702, Note_on_c, 0, 73, 0
2, 28702, Note_on_c, 0, 61, 0
2, 28702, Note_on_c, 0, 82, 0
2, 28702, Note_on_c, 0, 60, 60
2, 28702, Note_on_c, 0, 69, 60
2, 28702, Note_on_c, 0, 75, 60
2, 28702, Note_on_c, 0, 78, 60
2, 28702, Note_on_c, 0, 81, 60
2, 28704, Note_on_c, 0, 43, 0
2, 28708, Note_on_c, 0, 91, 0
2, 28708, Note_on_c, 0, 67, 0
2, 28708, Note_on_c, 0, 63, 60
2, 28710, Note_on_c, 0, 54, 60
2, 28710, Note_on_c, 0, 57, 60
2, 28710, Note_on_c, 0, 42, 60
2, 28751, Note_on_c, 0, 96, 60
2, 28759, Note_on_c, 0, 84, 60
2, 28759, Note_on_c, 0, 72, 60
2, 28762, Note_on_c, 0, 93, 0
2, 28769, Note_on_c, 0, 75, 0
2, 28769, Note_on_c, 0, 69, 0
2, 28803, Note_on_c, 0, 99, 60
2, 28806, Note_on_c, 0, 87, 60
2, 28806, Note_on_c, 0, 75, 60
2, 28824, Note_on_c, 0, 96, 0
2, 28824, Note_on_c, 0, 84, 0
2, 28859, Note_on_c, 0, 90, 60
2, 28867, Note_on_c, 0, 102, 60
2, 28869, Note_on_c, 0, 99, 0
2, 28869, Note_on_c, 0, 87, 0
2, 28918, Note_on_c, 0, 81, 0
2, 28922, Note_on_c, 0, 103, 60
2, 28922, Note_on_c, 0, 91, 60
2, 28924, Note_on_c, 0, 60, 0
2, 28924, Note_on_c, 0, 57, 0
2, 28924, Note_on_c, 0, 78, 0
2, 28924, Note_on_c, 0, 54, 0
2, 28924, Note_on_c, 0, 72, 0
2, 28924, Note_on_c, 0, 75, 0
2, 28924, Note_on_c, 0, 63, 0
2, 28924, Note_on_c, 0, 55, 60
2, 28924, Note_on_c, 0, 79, 60
2, 28924, Note_on_c, 0, 82, 60
2, 28924, Note_on_c, 0, 86, 60
2, 28924, Note_on_c, 0, 43, 60
2, 28934, Note_on_c, 0, 90, 0
2, 28934, Note_on_c, 0, 102, 0
2, 28936, Note_on_c, 0, 42, 0
2, 28947, Note_on_c, 0, 86, 0
2, 28980, Note_on_c, 0, 98, 60
2, 28980, Note_on_c, 0, 86, 60
2, 28990, Note_on_c, 0, 91, 0
2, 28990, Note_on_c, 0, 103, 0
2, 28990, Note_on_c, 0, 79, 0
2, 28990, Note_on_c, 0, 74, 60
2, 28992, Note_on_c, 0, 82, 0
2, 29022, Note_on_c, 0, 43, 0
2, 29022, Note_on_c, 0, 55, 0
2, 29045, Note_on_c, 0, 94, 60
2, 29045, Note_on_c, 0, 82, 60
2, 29048, Note_on_c, 0, 70, 60
2, 29048, Note_on_c, 0, 62, 60
2, 29052, Note_on_c, 0, 86, 0
2, 29052, Note_on_c, 0, 74, 0
2, 29052, Note_on_c, 0, 98, 0
2, 29052, Note_on_c, 0, 58, 60
2, 29068, Note_on_c, 0, 70, 0
2, 29085, Note_on_c, 0, 62, 0
2, 29085, Note_on_c, 0, 58, 0
2, 29089, Note_on_c, 0, 91, 60
2, 29099, Note_on_c, 0, 70, 60
2, 29099, Note_on_c, 0, 74, 60
2, 29099, Note_on_c, 0, 79, 60
2, 29099, Note_on_c, 0, 67, 60
2, 29109, Note_on_c, 0, 82, 0
2, 29109, Note_on_c, 0, 94, 0
2, 29150, Note_on_c, 0, 50, 60
2, 29157, Note_on_c, 0, 38, 60
2, 29208, Note_on_c, 0, 93, 60
2, 29217, Note_on_c, 0, 81, 60
2, 29217, Note_on_c, 0, 69, 60
2, 29225, Note_on_c, 0, 91, 0
2, 29225, Note_on_c, 0, 79, 0
2, 29225, Note_on_c, 0, 70, 0
2, 29225, Note_on_c, 0, 67, 0
2, 29233, Note_on_c, 0, 74, 0
2, 29243, Note_on_c, 0, 38, 0
2, 29243, Note_on_c, 0, 50, 0
2, 29271, Note_on_c, 0, 94, 60
2, 29273, Note_on_c, 0, 93, 0
2, 29273, Note_on_c, 0, 82, 60
2, 29273, Note_on_c, 0, 70, 60
2, 29276, Note_on_c, 0, 62, 60
2, 29280, Note_on_c, 0, 81, 0
2, 29280, Note_on_c, 0, 58, 60
2, 29289, Note_on_c, 0, 69, 0
2, 29313, Note_on_c, 0, 62, 0
2, 29313, Note_on_c, 0, 58, 0
2, 29325, Note_on_c, 0, 98, 60
2, 29327, Note_on_c, 0, 86, 60
2, 29333, Note_on_c, 0, 82, 0
2, 29333, Note_on_c, 0, 94, 0
2, 29333, Note_on_c, 0, 74, 60
2, 29343, Note_on_c, 0, 70, 0
2, 29377, Note_on_c, 0, 84, 60
2, 29385, Note_on_c, 0, 99, 60
2, 29385, Note_on_c, 0, 87, 60
2, 29387, Note_on_c, 0, 72, 60
2, 29387, Note_on_c, 0, 75, 60
2, 29387, Note_on_c, 0, 79, 60
2, 29387, Note_on_c, 0, 67, 60
2, 29390, Note_on_c, 0, 74, 0
2, 29390, Note_on_c, 0, 36, 60
2, 29394, Note_on_c, 0, 86, 0
2, 29394, Note_on_c, 0, 98, 0
2, 29397, Note_on_c, 0, 48, 60
2, 29492, Note_on_c, 0, 60, 60
2, 29492, Note_on_c, 0, 63, 60
2, 29492, Note_on_c, 0, 55, 60
2, 29554, Note_on_c, 0, 55, 0
2, 29554, Note_on_c, 0, 60, 0
2, 29554, Note_on_c, 0, 63, 0
2, 29601, Note_on_c, 0, 55, 60
2, 29603, Note_on_c, 0, 63, 60
2, 29603, Note_on_c, 0, 60, 60
2, 29659, Note_on_c, 0, 79, 0
2, 29668, Note_on_c, 0, 67, 0
2, 29691, Note_on_c, 0, 63, 0
2, 29691, Note_on_c, 0, 55, 0
2, 29691, Note_on_c, 0, 60, 0
2, 29694, Note_on_c, 0, 91, 60
2, 29706, Note_on_c, 0, 79, 60
2, 29706, Note_on_c, 0, 67, 60
2, 29727, Note_on_c, 0, 84, 0
2, 29727, Note_on_c, 0, 75, 0
2, 29727, Note_on_c, 0, 48, 0
2, 29727, Note_on_c, 0, 36, 0
2, 29727, Note_on_c, 0, 72, 0
2, 29727, Note_on_c, 0, 87, 0
2, 29727, Note_on_c, 0, 99, 0
2, 29766, Note_on_c, 0, 79, 0
2, 29801, Note_on_c, 0, 67, 0
2, 29801, Note_on_c, 0, 91, 0
2, 29822, Note_on_c, 0, 96, 60
2, 29822, Note_on_c, 0, 84, 60
2, 29824, Note_on_c, 0, 51, 60
2, 29832, Note_on_c, 0, 75, 60
2, 29832, Note_on_c, 0, 79, 60
2, 29832, Note_on_c, 0, 72, 60
2, 29833, Note_on_c, 0, 39, 60
2, 29887, Note_on_c, 0, 75, 0
2, 29912, Note_on_c, 0, 51, 0
2, 29922, Note_on_c, 0, 39, 0
2, 29931, Note_on_c, 0, 99, 60
2, 29933, Note_on_c, 0, 79, 0
2, 29933, Note_on_c, 0, 87, 60
2, 29933, Note_on_c, 0, 75, 60
2, 29936, Note_on_c, 0, 60, 60
2, 29936, Note_on_c, 0, 63, 60
2, 29936, Note_on_c, 0, 55, 60
2, 29943, Note_on_c, 0, 72, 0
2, 29943, Note_on_c, 0, 84, 0
2, 29956, Note_on_c, 0, 87, 0
2, 29961, Note_on_c, 0, 75, 0
2, 29968, Note_on_c, 0, 96, 0
2, 29977, Note_on_c, 0, 63, 0
2, 29977, Note_on_c, 0, 55, 0
2, 29977, Note_on_c, 0, 60, 0
2, 29992, Note_on_c, 0, 99, 0
2, 29999, Note_on_c, 0, 84, 60
2, 29999, Note_on_c, 0, 87, 60
2, 29999, Note_on_c, 0, 93, 60
2, 29999, Note_on_c, 0, 105, 60
2, 29999, Note_on_c, 0, 81, 60
2, 30000, Note_on_c, 0, 75, 60
2, 30008, Note_on_c, 0, 72, 60
2, 30008, Note_on_c, 0, 69, 60
2, 30059, Note_on_c, 0, 87, 0
2, 30061, Note_on_c, 0, 75, 0
2, 30061, Note_on_c, 0, 51, 60
2, 30061, Note_on_c, 0, 39, 60
2, 30103, Note_on_c, 0, 105, 0
2, 30103, Note_on_c, 0, 93, 0
2, 30110, Note_on_c, 0, 87, 60
2, 30110, Note_on_c, 0, 99, 60
2, 30110, Note_on_c, 0, 75, 60
2, 30113, Note_on_c, 0, 72, 0
2, 30113, Note_on_c, 0, 69, 0
2, 30113, Note_on_c, 0, 81, 0
2, 30113, Note_on_c, 0, 84, 0
2, 30147, Note_on_c, 0, 51, 0
2, 30157, Note_on_c, 0, 39, 0
2, 30159, Note_on_c, 0, 96, 60
2, 30161, Note_on_c, 0, 84, 60
2, 30168, Note_on_c, 0, 72, 60
2, 30168, Note_on_c, 0, 63, 60
2, 30170, Note_on_c, 0, 60, 60
2, 30170, Note_on_c, 0, 55, 60
2, 30177, Note_on_c, 0, 99, 0
2, 30177, Note_on_c, 0, 87, 0
2, 30185, Note_on_c, 0, 75, 0
2, 30210, Note_on_c, 0, 60, 0
2, 30210, Note_on_c, 0, 55, 0
2, 30210, Note_on_c, 0, 63, 0
2, 30224, Note_on_c, 0, 79, 60
2, 30224, Note_on_c, 0, 75, 60
2, 30249, Note_on_c, 0, 79, 0
2, 30277, Note_on_c, 0, 94, 60
2, 30280, Note_on_c, 0, 96, 0
2, 30280, Note_on_c, 0, 75, 0
2, 30287, Note_on_c, 0, 72, 0
2, 30287, Note_on_c, 0, 84, 0
2, 30287, Note_on_c, 0, 74, 60
2, 30287, Note_on_c, 0, 79, 60
2, 30287, Note_on_c, 0, 82, 60
2, 30287, Note_on_c, 0, 70, 60
2, 30289, Note_on_c, 0, 50, 60
2, 30289, Note_on_c, 0, 38, 60
2, 30352, Note_on_c, 0, 74, 0
2, 30382, Note_on_c, 0, 50, 0
2, 30384, Note_on_c, 0, 38, 0
2, 30394, Note_on_c, 0, 98, 60
2, 30396, Note_on_c, 0, 94, 0
2, 30396, Note_on_c, 0, 79, 0
2, 30403, Note_on_c, 0, 86, 60
2, 30403, Note_on_c, 0, 74, 60
2, 30406, Note_on_c, 0, 82, 0
2, 30406, Note_on_c, 0, 70, 0
2, 30406, Note_on_c, 0, 58, 60
2, 30406, Note_on_c, 0, 62, 60
2, 30406, Note_on_c, 0, 55, 60
2, 30426, Note_on_c, 0, 86, 0
2, 30429, Note_on_c, 0, 74, 0
2, 30435, Note_on_c, 0, 58, 0
2, 30445, Note_on_c, 0, 62, 0
2, 30445, Note_on_c, 0, 55, 0
2, 30454, Note_on_c, 0, 103, 60
2, 30456, Note_on_c, 0, 70, 60
2, 30456, Note_on_c, 0, 74, 60
2, 30456, Note_on_c, 0, 79, 60
2, 30456, Note_on_c, 0, 82, 60
2, 30456, Note_on_c, 0, 86, 60
2, 30456, Note_on_c, 0, 91, 60
2, 30456, Note_on_c, 0, 67, 60
2, 30466, Note_on_c, 0, 98, 0
2, 30505, Note_on_c, 0, 50, 60
2, 30512, Note_on_c, 0, 38, 60
2, 30519, Note_on_c, 0, 74, 0
2, 30519, Note_on_c, 0, 86, 0
2, 30556, Note_on_c, 0, 86, 60
2, 30563, Note_on_c, 0, 98, 60
2, 30566, Note_on_c, 0, 103, 0
2, 30566, Note_on_c, 0, 79, 0
2, 30566, Note_on_c, 0, 74, 60
2, 30575, Note_on_c, 0, 91, 0
2, 30575, Note_on_c, 0, 70, 0
2, 30575, Note_on_c, 0, 82, 0
2, 30579, Note_on_c, 0, 67, 0
2, 30596, Note_on_c, 0, 50, 0
2, 30599, Note_on_c, 0, 38, 0
2, 30626, Note_on_c, 0, 94, 60
2, 30628, Note_on_c, 0, 74, 0
2, 30628, Note_on_c, 0, 98, 0
2, 30628, Note_on_c, 0, 86, 0
2, 30628, Note_on_c, 0, 70, 60
2, 30635, Note_on_c, 0, 62, 60
2, 30635, Note_on_c, 0, 82, 60
2, 30635, Note_on_c, 0, 58, 60
2, 30638, Note_on_c, 0, 55, 60
2, 30668, Note_on_c, 0, 58, 0
2, 30668, Note_on_c, 0, 62, 0
2, 30674, Note_on_c, 0, 55, 0
2, 30679, Note_on_c, 0, 91, 60
2, 30682, Note_on_c, 0, 79, 60
2, 30682, Note_on_c, 0, 67, 60
2, 30698, Note_on_c, 0, 94, 0
2, 30698, Note_on_c, 0, 70, 0
2, 30698, Note_on_c, 0, 82, 0
2, 30726, Note_on_c, 0, 90, 60
2, 30728, Note_on_c, 0, 79, 0
2, 30728, Note_on_c, 0, 78, 60
2, 30728, Note_on_c, 0, 69, 60
2, 30738, Note_on_c, 0, 91, 0
2, 30738, Note_on_c, 0, 67, 0
2, 30738, Note_on_c, 0, 50, 60
2, 30738, Note_on_c, 0, 66, 60
2, 30738, Note_on_c, 0, 74, 60
2, 30738, Note_on_c, 0, 38, 60
2, 30792, Note_on_c, 0, 69, 0
2, 30815, Note_on_c, 0, 50, 0
2, 30823, Note_on_c, 0, 38, 0
2, 30833, Note_on_c, 0, 93, 60
2, 30836, Note_on_c, 0, 66, 0
2, 30836, Note_on_c, 0, 74, 0
2, 30836, Note_on_c, 0, 78, 0
2, 30836, Note_on_c, 0, 81, 60
2, 30844, Note_on_c, 0, 90, 0
2, 30844, Note_on_c, 0, 57, 60
2, 30844, Note_on_c, 0, 60, 60
2, 30844, Note_on_c, 0, 69, 60
2, 30844, Note_on_c, 0, 54, 60
2, 30861, Note_on_c, 0, 81, 0
2, 30884, Note_on_c, 0, 60, 0
2, 30884, Note_on_c, 0, 57, 0
2, 30887, Note_on_c, 0, 54, 0
2, 30898, Note_on_c, 0, 93, 0
2, 30898, Note_on_c, 0, 81, 60
2, 30898, Note_on_c, 0, 86, 60
2, 30898, Note_on_c, 0, 98, 60
2, 30898, Note_on_c, 0, 78, 60
2, 30900, Note_on_c, 0, 74, 60
2, 30908, Note_on_c, 0, 69, 0
2, 30949, Note_on_c, 0, 50, 60
2, 30949, Note_on_c, 0, 38, 60
2, 30998, Note_on_c, 0, 96, 60
2, 30998, Note_on_c, 0, 84, 60
2, 31008, Note_on_c, 0, 98, 0
2, 31008, Note_on_c, 0, 72, 60
2, 31009, Note_on_c, 0, 86, 0
2, 31009, Note_on_c, 0, 81, 0
2, 31009, Note_on_c, 0, 78, 0
2, 31009, Note_on_c, 0, 74, 0
2, 31040, Note_on_c, 0, 50, 0
2, 31042, Note_on_c, 0, 38, 0
2, 31054, Note_on_c, 0, 94, 60
2, 31060, Note_on_c, 0, 82, 60
2, 31063, Note_on_c, 0, 96, 0
2, 31063, Note_on_c, 0, 57, 60
2, 31063, Note_on_c, 0, 60, 60
2, 31063, Note_on_c, 0, 70, 60
2, 31063, Note_on_c, 0, 54, 60
2, 31070, Note_on_c, 0, 84, 0
2, 31070, Note_on_c, 0, 72, 0
2, 31101, Note_on_c, 0, 57, 0
2, 31101, Note_on_c, 0, 60, 0
2, 31103, Note_on_c, 0, 54, 0
2, 31112, Note_on_c, 0, 93, 60
2, 31114, Note_on_c, 0, 81, 60
2, 31114, Note_on_c, 0, 69, 60
2, 31124, Note_on_c, 0, 70, 0
2, 31124, Note_on_c, 0, 82, 0
2, 31124, Note_on_c, 0, 94, 0
2, 31176, Note_on_c, 0, 70, 60
2, 31176, Note_on_c, 0, 74, 60
2, 31176, Note_on_c, 0, 79, 60
2, 31176, Note_on_c, 0, 91, 60
2, 31176, Note_on_c, 0, 67, 60
2, 31179, Note_on_c, 0, 93, 0
2, 31179, Note_on_c, 0, 58, 60
2, 31179, Note_on_c, 0, 55, 60
2, 31186, Note_on_c, 0, 69, 0
2, 31186, Note_on_c, 0, 81, 0
2, 31356, Control_c, 0, 64, 127
2, 31407, Note_on_c, 0, 60, 60
2, 31407, Note_on_c, 0, 63, 60
2, 31407, Note_on_c, 0, 69, 60
2, 31407, Note_on_c, 0, 81, 60
2, 31407, Note_on_c, 0, 53, 60
2, 31414, Note_on_c, 0, 67, 0
2, 31414, Note_on_c, 0, 58, 0
2, 31414, Note_on_c, 0, 70, 0
2, 31416, Note_on_c, 0, 55, 0
2, 31435, Note_on_c, 0, 91, 0
2, 31438, Note_on_c, 0, 74, 0
2, 31438, Note_on_c, 0, 79, 0
2, 31516, Note_on_c, 0, 81, 0
2, 31521, Note_on_c, 0, 69, 0
2, 31523, Note_on_c, 0, 89, 60
2, 31523, Note_on_c, 0, 77, 60
2, 31588, Note_on_c, 0, 77, 0
2, 31588, Note_on_c, 0, 89, 0
2, 31626, Note_on_c, 0, 89, 60
2, 31628, Note_on_c, 0, 63, 0
2, 31628, Note_on_c, 0, 60, 0
2, 31634, Note_on_c, 0, 70, 60
2, 31634, Note_on_c, 0, 74, 60
2, 31634, Note_on_c, 0, 77, 60
2, 31634, Note_on_c, 0, 65, 60
2, 31637, Note_on_c, 0, 53, 0
2, 31637, Note_on_c, 0, 46, 60
2, 31700, Control_c, 0, 64, 0
2, 31721, Note_on_c, 0, 46, 0
2, 31735, Note_on_c, 0, 58, 60
2, 31735, Note_on_c, 0, 62, 60
2, 31735, Note_on_c, 0, 53, 60
2, 31772, Note_on_c, 0, 62, 0
2, 31772, Note_on_c, 0, 58, 0
2, 31781, Note_on_c, 0, 53, 0
2, 31856, Note_on_c, 0, 41, 60
2, 31870, Note_on_c, 0, 77, 0
2, 31879, Note_on_c, 0, 65, 0
2, 31902, Note_on_c, 0, 77, 60
2, 31909, Note_on_c, 0, 74, 0
2, 31909, Note_on_c, 0, 89, 0
2, 31909, Note_on_c, 0, 70, 0
2, 31909, Note_on_c, 0, 65, 60
2, 31944, Note_on_c, 0, 41, 0
2, 31972, Note_on_c, 0, 82, 60
2, 31974, Note_on_c, 0, 65, 0
2, 31974, Note_on_c, 0, 77, 0
2, 31974, Note_on_c, 0, 62, 60
2, 31974, Note_on_c, 0, 53, 60
2, 31981, Note_on_c, 0, 70, 60
2, 31981, Note_on_c, 0, 58, 60
2, 32014, Note_on_c, 0, 58, 0
2, 32014, Note_on_c, 0, 62, 0
2, 32016, Note_on_c, 0, 86, 60
2, 32018, Note_on_c, 0, 53, 0
2, 32025, Note_on_c, 0, 74, 60
2, 32028, Control_c, 0, 64, 127
2, 32033, Note_on_c, 0, 70, 0
2, 32041, Note_on_c, 0, 82, 0
2, 32077, Note_on_c, 0, 70, 60
2, 32077, Note_on_c, 0, 73, 60
2, 32077, Note_on_c, 0, 79, 60
2, 32077, Note_on_c, 0, 91, 60
2, 32077, Note_on_c, 0, 67, 60
2, 32079, Note_on_c, 0, 46, 60
2, 32086, Note_on_c, 0, 86, 0
2, 32086, Note_on_c, 0, 74, 0
2, 32169, Note_on_c, 0, 46, 0
2, 32190, Note_on_c, 0, 61, 60
2, 32197, Note_on_c, 0, 55, 60
2, 32197, Note_on_c, 0, 58, 60
2, 32197, Note_on_c, 0, 52, 60
2, 32228, Note_on_c, 0, 58, 0
2, 32228, Note_on_c, 0, 55, 0
2, 32237, Note_on_c, 0, 52, 0
2, 32237, Note_on_c, 0, 61, 0
2, 32277, Note_on_c, 0, 70, 0
2, 32304, Note_on_c, 0, 89, 60
2, 32306, Note_on_c, 0, 79, 0
2, 32306, Note_on_c, 0, 73, 0
2, 32306, Note_on_c, 0, 91, 0
2, 32306, Note_on_c, 0, 77, 60
2, 32314, Note_on_c, 0, 67, 0
2, 32314, Note_on_c, 0, 70, 60
2, 32314, Note_on_c, 0, 74, 60
2, 32314, Note_on_c, 0, 65, 60
2, 32316, Note_on_c, 0, 46, 60
2, 32402, Note_on_c, 0, 46, 0
2, 32416, Note_on_c, 0, 62, 60
2, 32416, Note_on_c, 0, 58, 60
2, 32423, Note_on_c, 0, 53, 60
2, 32455, Note_on_c, 0, 58, 0
2, 32455, Note_on_c, 0, 62, 0
2, 32458, Note_on_c, 0, 53, 0
2, 32472, Control_c, 0, 64, 0
2, 32486, Note_on_c, 0, 77, 0
2, 32486, Note_on_c, 0, 74, 0
2, 32525, Note_on_c, 0, 89, 0
2, 32525, Note_on_c, 0, 77, 60
2, 32525, Note_on_c, 0, 82, 60
2, 32525, Note_on_c, 0, 86, 60
2, 32525, Note_on_c, 0, 98, 60
2, 32525, Note_on_c, 0, 74, 60
2, 32535, Note_on_c, 0, 65, 0
2, 32535, Note_on_c, 0, 70, 0
2, 32535, Note_on_c, 0, 46, 60
2, 32623, Note_on_c, 0, 46, 0
2, 32643, Note_on_c, 0, 62, 60
2, 32653, Note_on_c, 0, 58, 60
2, 32653, Note_on_c, 0, 53, 60
2, 32690, Note_on_c, 0, 53, 0
2, 32690, Note_on_c, 0, 58, 0
2, 32690, Note_on_c, 0, 62, 0
2, 32702, Control_c, 0, 64, 127
2, 32760, Note_on_c, 0, 53, 60
2, 32767, Note_on_c, 0, 41, 60
2, 32776, Note_on_c, 0, 77, 0
2, 32813, Note_on_c, 0, 89, 60
2, 32823, Note_on_c, 0, 86, 0
2, 32823, Note_on_c, 0, 98, 0
2, 32823, Note_on_c, 0, 77, 60
2, 32832, Note_on_c, 0, 82, 0
2, 32832, Note_on_c, 0, 74, 0
2, 32832, Note_on_c, 0, 53, 0
2, 32857, Note_on_c, 0, 41, 0
2, 32879, Note_on_c, 0, 94, 60
2, 32879, Note_on_c, 0, 82, 60
2, 32880, Note_on_c, 0, 62, 60
2, 32888, Note_on_c, 0, 89, 0
2, 32888, Note_on_c, 0, 77, 0
2, 32888, Note_on_c, 0, 58, 60
2, 32890, Note_on_c, 0, 53, 60
2, 32923, Note_on_c, 0, 58, 0
2, 32923, Note_on_c, 0, 62, 0
2, 32929, Note_on_c, 0, 53, 0
2, 32934, Note_on_c, 0, 98, 60
2, 32944, Note_on_c, 0, 86, 60
2, 32946, Note_on_c, 0, 94, 0
2, 32952, Note_on_c, 0, 82, 0
2, 33000, Note_on_c, 0, 87, 60
2, 33000, Note_on_c, 0, 99, 60
2, 33000, Note_on_c, 0, 81, 60
2, 33008, Note_on_c, 0, 98, 0
2, 33008, Note_on_c, 0, 86, 0
2, 33008, Note_on_c, 0, 75, 60
2, 33011, Note_on_c, 0, 54, 60
2, 33011, Note_on_c, 0, 42, 60
2, 33090, Control_c, 0, 64, 0
2, 33095, Note_on_c, 0, 54, 0
2, 33096, Note_on_c, 0, 42, 0
2, 33109, Note_on_c, 0, 63, 60
2, 33111, Note_on_c, 0, 60, 60
2, 33111, Note_on_c, 0, 57, 60
2, 33148, Note_on_c, 0, 57, 0
2, 33148, Note_on_c, 0, 63, 0
2, 33148, Note_on_c, 0, 60, 0
2, 33217, Note_on_c, 0, 99, 0
2, 33217, Note_on_c, 0, 87, 0
2, 33225, Note_on_c, 0, 82, 60
2, 33225, Note_on_c, 0, 86, 60
2, 33225, Note_on_c, 0, 98, 60
2, 33225, Note_on_c, 0, 74, 60
2, 33227, Note_on_c, 0, 81, 0
2, 33227, Note_on_c, 0, 75, 0
2, 33227, Note_on_c, 0, 55, 60
2, 33234, Note_on_c, 0, 43, 60
2, 33294, Note_on_c, 0, 55, 0
2, 33318, Note_on_c, 0, 43, 0
2, 33341, Note_on_c, 0, 62, 60
2, 33341, Note_on_c, 0, 55, 60
2, 33350, Note_on_c, 0, 58, 60
2, 33381, Note_on_c, 0, 58, 0
2, 33381, Note_on_c, 0, 62, 0
2, 33381, Note_on_c, 0, 55, 0
2, 33446, Note_on_c, 0, 96, 60
2, 33448, Note_on_c, 0, 75, 60
2, 33448, Note_on_c, 0, 79, 60
2, 33448, Note_on_c, 0, 84, 60
2, 33448, Note_on_c, 0, 72, 60
2, 33451, Note_on_c, 0, 82, 0
2, 33451, Note_on_c, 0, 51, 60
2, 33455, Note_on_c, 0, 86, 0
2, 33455, Note_on_c, 0, 98, 0
2, 33457, Note_on_c, 0, 74, 0
2, 33459, Note_on_c, 0, 39, 60
2, 33508, Note_on_c, 0, 79, 0
2, 33508, Note_on_c, 0, 75, 0
2, 33531, Note_on_c, 0, 72, 0
2, 33531, Note_on_c, 0, 96, 0
2, 33534, Note_on_c, 0, 51, 0
2, 33541, Note_on_c, 0, 84, 0
2, 33543, Note_on_c, 0, 39, 0
2, 33564, Note_on_c, 0, 79, 60
2, 33564, Note_on_c, 0, 82, 60
2, 33564, Note_on_c, 0, 94, 60
2, 33564, Note_on_c, 0, 70, 60
2, 33567, Note_on_c, 0, 58, 60
2, 33567, Note_on_c, 0, 63, 60
2, 33567, Note_on_c, 0, 75, 60
2, 33567, Note_on_c, 0, 55, 60
2, 33603, Note_on_c, 0, 55, 0
2, 33603, Note_on_c, 0, 63, 0
2, 33603, Note_on_c, 0, 58, 0
2, 33672, Note_on_c, 0, 51, 60
2, 33672, Note_on_c, 0, 39, 60
2, 33680, Note_on_c, 0, 82, 0
2, 33720, Note_on_c, 0, 90, 60
2, 33722, Note_on_c, 0, 82, 60
2, 33722, Note_on_c, 0, 78, 60
2, 33724, Note_on_c, 0, 79, 0
2, 33729, Note_on_c, 0, 70, 0
2, 33729, Note_on_c, 0, 94, 0
2, 33729, Note_on_c, 0, 75, 0
2, 33755, Note_on_c, 0, 39, 0
2, 33755, Note_on_c, 0, 51, 0
2, 33773, Note_on_c, 0, 91, 60
2, 33783, Note_on_c, 0, 79, 60
2, 33785, Note_on_c, 0, 78, 0
2, 33785, Note_on_c, 0, 58, 60
2, 33785, Note_on_c, 0, 63, 60
2, 33785, Note_on_c, 0, 55, 60
2, 33790, Note_on_c, 0, 90, 0
2, 33794, Note_on_c, 0, 82, 0
2, 33824, Note_on_c, 0, 63, 0
2, 33824, Note_on_c, 0, 58, 0
2, 33824, Note_on_c, 0, 55, 0
2, 33840, Note_on_c, 0, 85, 60
2, 33840, Note_on_c, 0, 73, 60
2, 33848, Note_on_c, 0, 91, 0
2, 33848, Note_on_c, 0, 79, 0
2, 33894, Note_on_c, 0, 86, 60
2, 33896, Note_on_c, 0, 82, 60
2, 33904, Note_on_c, 0, 85, 0
2, 33904, Note_on_c, 0, 73, 0
2, 33904, Note_on_c, 0, 74, 60
2, 33904, Note_on_c, 0, 77, 60
2, 33904, Note_on_c, 0, 46, 60
2, 33929, Note_on_c, 0, 77, 0
2, 33957, Note_on_c, 0, 77, 60
2, 33957, Note_on_c, 0, 65, 60
2, 33966, Note_on_c, 0, 74, 0
2, 33966, Note_on_c, 0, 82, 0
2, 33966, Note_on_c, 0, 86, 0
2, 33989, Note_on_c, 0, 46, 0
2, 34015, Note_on_c, 0, 62, 60
2, 34017, Control_c, 0, 64, 127
2, 34020, Note_on_c, 0, 79, 60
2, 34020, Note_on_c, 0, 67, 60
2, 34022, Note_on_c, 0, 77, 0
2, 34022, Note_on_c, 0, 65, 0
2, 34022, Note_on_c, 0, 58, 60
2, 34022, Note_on_c, 0, 53, 60
2, 34050, Note_on_c, 0, 58, 0
2, 34050, Note_on_c, 0, 62, 0
2, 34059, Note_on_c, 0, 53, 0
2, 34066, Note_on_c, 0, 77, 60
2, 34066, Note_on_c, 0, 70, 60
2, 34073, Note_on_c, 0, 79, 0
2, 34073, Note_on_c, 0, 82, 60
2, 34073, Note_on_c, 0, 74, 60
2, 34082, Note_on_c, 0, 67, 0
2, 34122, Note_on_c, 0, 41, 60
2, 34177, Note_on_c, 0, 84, 60
2, 34187, Note_on_c, 0, 72, 60
2, 34197, Note_on_c, 0, 82, 0
2, 34197, Note_on_c, 0, 74, 0
2, 34197, Note_on_c, 0, 70, 0
2, 34197, Note_on_c, 0, 77, 0
2, 34213, Note_on_c, 0, 41, 0
2, 34222, Control_c, 0, 64, 0
2, 34241, Note_on_c, 0, 86, 60
2, 34243, Note_on_c, 0, 58, 60
2, 34243, Note_on_c, 0, 62, 60
2, 34243, Note_on_c, 0, 74, 60
2, 34243, Note_on_c, 0, 53, 60
2, 34249, Note_on_c, 0, 84, 0
2, 34249, Note_on_c, 0, 72, 0
2, 34282, Note_on_c, 0, 58, 0
2, 34282, Note_on_c, 0, 62, 0
2, 34282, Note_on_c, 0, 53, 0
2, 34294, Note_on_c, 0, 89, 60
2, 34303, Note_on_c, 0, 74, 0
2, 34303, Note_on_c, 0, 86, 0
2, 34303, Note_on_c, 0, 77, 60
2, 34357, Note_on_c, 0, 75, 60
2, 34357, Note_on_c, 0, 79, 60
2, 34357, Note_on_c, 0, 84, 60
2, 34357, Note_on_c, 0, 96, 60
2, 34357, Note_on_c, 0, 72, 60
2, 34367, Note_on_c, 0, 77, 0
2, 34367, Note_on_c, 0, 89, 0
2, 34367, Note_on_c, 0, 51, 60
2, 34367, Note_on_c, 0, 39, 60
2, 34417, Note_on_c, 0, 79, 0
2, 34417, Note_on_c, 0, 75, 0
2, 34440, Note_on_c, 0, 96, 0
2, 34447, Note_on_c, 0, 84, 0
2, 34447, Note_on_c, 0, 72, 0
2, 34450, Note_on_c, 0, 39, 0
2, 34450, Note_on_c, 0, 51, 0
2, 34466, Control_c, 0, 64, 127
2, 34478, Note_on_c, 0, 94, 60
2, 34478, Note_on_c, 0, 82, 60
2, 34480, Note_on_c, 0, 70, 60
2, 34480, Note_on_c, 0, 75, 60
2, 34480, Note_on_c, 0, 79, 60
2, 34480, Note_on_c, 0, 63, 60
2, 34487, Note_on_c, 0, 58, 60
2, 34489, Note_on_c, 0, 55, 60
2, 34517, Note_on_c, 0, 55, 0
2, 34517, Note_on_c, 0, 58, 0
2, 34517, Note_on_c, 0, 63, 0
2, 34578, Note_on_c, 0, 51, 60
2, 34580, Note_on_c, 0, 39, 60
2, 34635, Note_on_c, 0, 90, 60
2, 34635, Note_on_c, 0, 78, 60
2, 34638, Note_on_c, 0, 79, 0
2, 34645, Note_on_c, 0, 94, 0
2, 34659, Note_on_c, 0, 75, 0
2, 34661, Note_on_c, 0, 82, 0
2, 34668, Note_on_c, 0, 70, 0
2, 34668, Note_on_c, 0, 51, 0
2, 34671, Note_on_c, 0, 39, 0
2, 34689, Note_on_c, 0, 91, 60
2, 34689, Note_on_c, 0, 79, 60
2, 34692, Note_on_c, 0, 58, 60
2, 34692, Note_on_c, 0, 63, 60
2, 34692, Note_on_c, 0, 55, 60
2, 34696, Note_on_c, 0, 90, 0
2, 34699, Note_on_c, 0, 78, 0
2, 34728, Note_on_c, 0, 63, 0
2, 34731, Note_on_c, 0, 58, 0
2, 34731, Note_on_c, 0, 55, 0
2, 34743, Note_on_c, 0, 87, 60
2, 34752, Note_on_c, 0, 75, 60
2, 34766, Note_on_c, 0, 79, 0
2, 34773, Note_on_c, 0, 91, 0
2, 34805, Note_on_c, 0, 87, 0
2, 34805, Note_on_c, 0, 77, 60
2, 34805, Note_on_c, 0, 82, 60
2, 34805, Note_on_c, 0, 86, 60
2, 34805, Note_on_c, 0, 74, 60
2, 34808, Note_on_c, 0, 46, 60
2, 34815, Note_on_c, 0, 75, 0
2, 34869, Control_c, 0, 64, 0
2, 34900, Note_on_c, 0, 46, 0
2, 34908, Note_on_c, 0, 62, 60
2, 34917, Note_on_c, 0, 58, 60
2, 34917, Note_on_c, 0, 53, 60
2, 34944, Note_on_c, 0, 58, 0
2, 34944, Note_on_c, 0, 62, 0
2, 34954, Note_on_c, 0, 53, 0
2, 34980, Control_c, 0, 64, 127
2, 34987, Note_on_c, 0, 77, 0
2, 35031, Note_on_c, 0, 84, 60
2, 35033, Note_on_c, 0, 86, 0
2, 35033, Note_on_c, 0, 74, 0
2, 35033, Note_on_c, 0, 77, 60
2, 35038, Note_on_c, 0, 81, 60
2, 35040, Note_on_c, 0, 82, 0
2, 35040, Note_on_c, 0, 57, 60
2, 35040, Note_on_c, 0, 63, 60
2, 35040, Note_on_c, 0, 72, 60
2, 35040, Note_on_c, 0, 53, 60
2, 35101, Note_on_c, 0, 53, 0
2, 35101, Note_on_c, 0, 63, 0
2, 35101, Note_on_c, 0, 77, 0
2, 35101, Note_on_c, 0, 84, 0
2, 35101, Note_on_c, 0, 81, 0
2, 35101, Note_on_c, 0, 72, 0
2, 35101, Note_on_c, 0, 57, 0
2, 35159, Control_c, 0, 64, 0
2, 35163, Note_on_c, 0, 69, 60
2, 35163, Note_on_c, 0, 75, 60
2, 35163, Note_on_c, 0, 77, 60
2, 35163, Note_on_c, 0, 89, 60
2, 35163, Note_on_c, 0, 65, 60
2, 35165, Note_on_c, 0, 53, 60
2, 35173, Note_on_c, 0, 41, 60
2, 35219, Note_on_c, 0, 89, 0
2, 35226, Note_on_c, 0, 65, 0
2, 35226, Note_on_c, 0, 69, 0
2, 35226, Note_on_c, 0, 77, 0
2, 35226, Note_on_c, 0, 75, 0
2, 35229, Note_on_c, 0, 41, 0
2, 35229, Note_on_c, 0, 53, 0
2, 35268, Note_on_c, 0, 77, 60
2, 35275, Note_on_c, 0, 70, 60
2, 35275, Note_on_c, 0, 74, 60
2, 35275, Note_on_c, 0, 89, 60
2, 35275, Note_on_c, 0, 65, 60
2, 35278, Note_on_c, 0, 46, 60
2, 35327, Control_c, 0, 64, 127
2, 35363, Note_on_c, 0, 46, 0
2, 35384, Note_on_c, 0, 58, 60
2, 35386, Note_on_c, 0, 62, 60
2, 35386, Note_on_c, 0, 53, 60
2, 35424, Note_on_c, 0, 58, 0
2, 35426, Note_on_c, 0, 53, 0
2, 35426, Note_on_c, 0, 62, 0
2, 35507, Note_on_c, 0, 41, 60
2, 35531, Note_on_c, 0, 65, 0
2, 35531, Note_on_c, 0, 77, 0
2, 35561, Note_on_c, 0, 89, 0
2, 35568, Note_on_c, 0, 70, 0
2, 35570, Note_on_c, 0, 74, 0
2, 35570, Note_on_c, 0, 77, 60
2, 35570, Note_on_c, 0, 65, 60
2, 35603, Note_on_c, 0, 41, 0
2, 35626, Note_on_c, 0, 82, 60
2, 35636, Note_on_c, 0, 77, 0
2, 35636, Note_on_c, 0, 58, 60
2, 35636, Note_on_c, 0, 62, 60
2, 35636, Note_on_c, 0, 70, 60
2, 35636, Note_on_c, 0, 53, 60
2, 35642, Note_on_c, 0, 65, 0
2, 35677, Note_on_c, 0, 58, 0
2, 35677, Note_on_c, 0, 62, 0
2, 35677, Note_on_c, 0, 53, 0
2, 35691, Note_on_c, 0, 86, 60
2, 35691, Note_on_c, 0, 74, 60
2, 35700, Note_on_c, 0, 82, 0
2, 35700, Note_on_c, 0, 70, 0
2, 35708, Control_c, 0, 64, 0
2, 35737, Note_on_c, 0, 70, 60
2, 35737, Note_on_c, 0, 73, 60
2, 35737, Note_on_c, 0, 79, 60
2, 35737, Note_on_c, 0, 91, 60
2, 35737, Note_on_c, 0, 67, 60
2, 35747, Note_on_c, 0, 74, 0
2, 35749, Note_on_c, 0, 46, 60
2, 35754, Note_on_c, 0, 86, 0
2, 35831, Note_on_c, 0, 46, 0
2, 35852, Note_on_c, 0, 55, 60
2, 35852, Note_on_c, 0, 61, 60
2, 35852, Note_on_c, 0, 52, 60
2, 35860, Note_on_c, 0, 58, 60
2, 35870, Control_c, 0, 64, 127
2, 35891, Note_on_c, 0, 58, 0
2, 35891, Note_on_c, 0, 61, 0
2, 35891, Note_on_c, 0, 55, 0
2, 35898, Note_on_c, 0, 52, 0
2, 35921, Note_on_c, 0, 70, 0
2, 35956, Note_on_c, 0, 70, 60
2, 35956, Note_on_c, 0, 74, 60
2, 35956, Note_on_c, 0, 77, 60
2, 35956, Note_on_c, 0, 89, 60
2, 35956, Note_on_c, 0, 65, 60
2, 35965, Note_on_c, 0, 79, 0
2, 35965, Note_on_c, 0, 73, 0
2, 35965, Note_on_c, 0, 91, 0
2, 35965, Note_on_c, 0, 46, 60
2, 35973, Note_on_c, 0, 67, 0
2, 36051, Note_on_c, 0, 46, 0
2, 36079, Note_on_c, 0, 58, 60
2, 36079, Note_on_c, 0, 62, 60
2, 36079, Note_on_c, 0, 53, 60
2, 36117, Note_on_c, 0, 62, 0
2, 36117, Note_on_c, 0, 58, 0
2, 36119, Note_on_c, 0, 53, 0
2, 36146, Note_on_c, 0, 77, 0
2, 36146, Note_on_c, 0, 74, 0
2, 36179, Note_on_c, 0, 89, 0
2, 36189, Note_on_c, 0, 70, 0
2, 36189, Note_on_c, 0, 65, 0
2, 36193, Note_on_c, 0, 98, 60
2, 36193, Note_on_c, 0, 86, 60
2, 36195, Note_on_c, 0, 82, 60
2, 36195, Note_on_c, 0, 77, 60
2, 36202, Note_on_c, 0, 74, 60
2, 36205, Note_on_c, 0, 46, 60
2, 36221, Control_c, 0, 64, 0
2, 36288, Note_on_c, 0, 46, 0
2, 36302, Note_on_c, 0, 58, 60
2, 36302, Note_on_c, 0, 62, 60
2, 36302, Note_on_c, 0, 53, 60
2, 36339, Control_c, 0, 64, 127
2, 36342, Note_on_c, 0, 53, 0
2, 36342, Note_on_c, 0, 62, 0
2, 36342, Note_on_c, 0, 58, 0
2, 36414, Note_on_c, 0, 53, 60
2, 36414, Note_on_c, 0, 41, 60
2, 36431, Note_on_c, 0, 77, 0
2, 36472, Note_on_c, 0, 89, 60
2, 36472, Note_on_c, 0, 77, 60
2, 36475, Note_on_c, 0, 74, 0
2, 36475, Note_on_c, 0, 82, 0
2, 36475, Note_on_c, 0, 53, 0
2, 36507, Note_on_c, 0, 98, 0
2, 36507, Note_on_c, 0, 41, 0
2, 36507, Note_on_c, 0, 86, 0
2, 36519, Note_on_c, 0, 94, 60
2, 36528, Note_on_c, 0, 82, 60
2, 36530, Note_on_c, 0, 58, 60
2, 36530, Note_on_c, 0, 62, 60
2, 36530, Note_on_c, 0, 53, 60
2, 36537, Note_on_c, 0, 89, 0
2, 36547, Note_on_c, 0, 77, 0
2, 36547, Control_c, 0, 64, 0
2, 36563, Note_on_c, 0, 58, 0
2, 36570, Note_on_c, 0, 62, 0
2, 36570, Note_on_c, 0, 53, 0
2, 36581, Note_on_c, 0, 98, 60
2, 36583, Note_on_c, 0, 94, 0
2, 36583, Note_on_c, 0, 86, 60
2, 36596, Note_on_c, 0, 82, 0
2, 36642, Note_on_c, 0, 81, 60
2, 36642, Note_on_c, 0, 75, 60
2, 36647, Note_on_c, 0, 99, 60
2, 36648, Note_on_c, 0, 98, 0
2, 36648, Note_on_c, 0, 87, 60
2, 36651, Note_on_c, 0, 86, 0
2, 36651, Note_on_c, 0, 54, 60
2, 36651, Note_on_c, 0, 42, 60
2, 36681, Control_c, 0, 64, 127
2, 36735, Note_on_c, 0, 54, 0
2, 36744, Note_on_c, 0, 42, 0
2, 36758, Note_on_c, 0, 60, 60
2, 36758, Note_on_c, 0, 63, 60
2, 36758, Note_on_c, 0, 57, 60
2, 36795, Note_on_c, 0, 63, 0
2, 36795, Note_on_c, 0, 60, 0
2, 36797, Note_on_c, 0, 57, 0
2, 36872, Note_on_c, 0, 98, 60
2, 36874, Note_on_c, 0, 99, 0
2, 36874, Note_on_c, 0, 87, 0
2, 36874, Note_on_c, 0, 75, 0
2, 36874, Note_on_c, 0, 81, 0
2, 36874, Note_on_c, 0, 82, 60
2, 36874, Note_on_c, 0, 74, 60
2, 36881, Note_on_c, 0, 86, 60
2, 36884, Note_on_c, 0, 55, 60
2, 36884, Note_on_c, 0, 43, 60
2, 36944, Note_on_c, 0, 55, 0
2, 36969, Note_on_c, 0, 43, 0
2, 36984, Note_on_c, 0, 62, 60
2, 36984, Note_on_c, 0, 55, 60
2, 36990, Note_on_c, 0, 58, 60
2, 36993, Control_c, 0, 64, 0
2, 37021, Note_on_c, 0, 58, 0
2, 37021, Note_on_c, 0, 62, 0
2, 37021, Note_on_c, 0, 55, 0
2, 37098, Note_on_c, 0, 84, 60
2, 37098, Note_on_c, 0, 96, 60
2, 37098, Note_on_c, 0, 75, 60
2, 37100, Note_on_c, 0, 51, 60
2, 37106, Note_on_c, 0, 86, 0
2, 37106, Note_on_c, 0, 74, 0
2, 37106, Note_on_c, 0, 98, 0
2, 37106, Note_on_c, 0, 82, 0
2, 37106, Note_on_c, 0, 79, 60
2, 37106, Note_on_c, 0, 72, 60
2, 37109, Note_on_c, 0, 39, 60
2, 37181, Note_on_c, 0, 79, 0
2, 37181, Note_on_c, 0, 75, 0
2, 37188, Note_on_c, 0, 96, 0
2, 37188, Note_on_c, 0, 84, 0
2, 37188, Note_on_c, 0, 51, 0
2, 37188, Note_on_c, 0, 72, 0
2, 37190, Note_on_c, 0, 39, 0
2, 37216, Note_on_c, 0, 94, 60
2, 37218, Note_on_c, 0, 63, 60
2, 37218, Note_on_c, 0, 70, 60
2, 37218, Note_on_c, 0, 75, 60
2, 37218, Note_on_c, 0, 79, 60
2, 37218, Note_on_c, 0, 82, 60
2, 37218, Note_on_c, 0, 58, 60
2, 37221, Note_on_c, 0, 55, 60
2, 37258, Note_on_c, 0, 55, 0
2, 37258, Note_on_c, 0, 58, 0
2, 37258, Note_on_c, 0, 63, 0
2, 37270, Control_c, 0, 64, 127
2, 37320, Note_on_c, 0, 51, 60
2, 37330, Note_on_c, 0, 39, 60
2, 37379, Note_on_c, 0, 90, 60
2, 37379, Note_on_c, 0, 78, 60
2, 37386, Note_on_c, 0, 70, 0
2, 37386, Note_on_c, 0, 94, 0
2, 37386, Note_on_c, 0, 79, 0
2, 37386, Note_on_c, 0, 75, 0
2, 37386, Note_on_c, 0, 82, 0
2, 37402, Note_on_c, 0, 39, 0
2, 37402, Note_on_c, 0, 51, 0
2, 37430, Note_on_c, 0, 91, 60
2, 37440, Note_on_c, 0, 78, 0
2, 37440, Note_on_c, 0, 58, 60
2, 37440, Note_on_c, 0, 63, 60
2, 37440, Note_on_c, 0, 79, 60
2, 37440, Note_on_c, 0, 55, 60
2, 37446, Note_on_c, 0, 90, 0
2, 37479, Note_on_c, 0, 58, 0
2, 37479, Note_on_c, 0, 63, 0
2, 37479, Note_on_c, 0, 55, 0
2, 37490, Note_on_c, 0, 73, 60
2, 37497, Note_on_c, 0, 85, 60
2, 37499, Note_on_c, 0, 91, 0
2, 37499, Note_on_c, 0, 79, 0
2, 37525, Control_c, 0, 64, 0
2, 37546, Note_on_c, 0, 73, 0
2, 37546, Note_on_c, 0, 74, 60
2, 37546, Note_on_c, 0, 82, 60
2, 37546, Note_on_c, 0, 86, 60
2, 37548, Note_on_c, 0, 85, 0
2, 37548, Note_on_c, 0, 77, 60
2, 37548, Note_on_c, 0, 46, 60
2, 37572, Note_on_c, 0, 77, 0
2, 37611, Note_on_c, 0, 74, 0
2, 37611, Note_on_c, 0, 86, 0
2, 37611, Note_on_c, 0, 82, 0
2, 37611, Note_on_c, 0, 77, 60
2, 37618, Note_on_c, 0, 65, 60
2, 37644, Note_on_c, 0, 46, 0
2, 37667, Note_on_c, 0, 58, 60
2, 37667, Note_on_c, 0, 62, 60
2, 37667, Note_on_c, 0, 67, 60
2, 37667, Note_on_c, 0, 79, 60
2, 37667, Note_on_c, 0, 53, 60
2, 37683, Note_on_c, 0, 65, 0
2, 37683, Note_on_c, 0, 77, 0
2, 37706, Note_on_c, 0, 58, 0
2, 37706, Note_on_c, 0, 62, 0
2, 37706, Note_on_c, 0, 53, 0
2, 37728, Note_on_c, 0, 77, 60
2, 37728, Note_on_c, 0, 82, 60
2, 37728, Note_on_c, 0, 74, 60
2, 37729, Note_on_c, 0, 79, 0
2, 37729, Note_on_c, 0, 70, 60
2, 37736, Note_on_c, 0, 67, 0
2, 37783, Note_on_c, 0, 50, 60
2, 37783, Note_on_c, 0, 38, 60
2, 37837, Note_on_c, 0, 84, 60
2, 37837, Note_on_c, 0, 72, 60
2, 37848, Note_on_c, 0, 70, 0
2, 37865, Note_on_c, 0, 74, 0
2, 37865, Note_on_c, 0, 82, 0
2, 37865, Note_on_c, 0, 77, 0
2, 37872, Note_on_c, 0, 38, 0
2, 37881, Note_on_c, 0, 50, 0
2, 37893, Note_on_c, 0, 86, 60
2, 37901, Note_on_c, 0, 84, 0
2, 37904, Note_on_c, 0, 58, 60
2, 37904, Note_on_c, 0, 62, 60
2, 37904, Note_on_c, 0, 74, 60
2, 37904, Note_on_c, 0, 53, 60
2, 37913, Note_on_c, 0, 72, 0
2, 37939, Note_on_c, 0, 58, 0
2, 37939, Note_on_c, 0, 62, 0
2, 37939, Note_on_c, 0, 53, 0
2, 37950, Note_on_c, 0, 89, 60
2, 37960, Note_on_c, 0, 86, 0
2, 37960, Note_on_c, 0, 74, 0
2, 37960, Note_on_c, 0, 77, 60
2, 38016, Note_on_c, 0, 89, 0
2, 38016, Note_on_c, 0, 70, 60
2, 38016, Note_on_c, 0, 82, 60
2, 38016, Note_on_c, 0, 64, 60
2, 38017, Note_on_c, 0, 55, 60
2, 38017, Note_on_c, 0, 43, 60
2, 38027, Note_on_c, 0, 77, 0
2, 38102, Note_on_c, 0, 55, 0
2, 38102, Note_on_c, 0, 43, 0
2, 38125, Note_on_c, 0, 54, 60
2, 38125, Note_on_c, 0, 42, 60
2, 38143, Control_c, 0, 64, 127
2, 38215, Note_on_c, 0, 42, 0
2, 38215, Note_on_c, 0, 54, 0
2, 38243, Note_on_c, 0, 53, 60
2, 38243, Note_on_c, 0, 41, 60
2, 38259, Note_on_c, 0, 82, 0
2, 38266, Note_on_c, 0, 70, 0
2, 38269, Note_on_c, 0, 64, 0
2, 38292, Note_on_c, 0, 75, 60
2, 38299, Note_on_c, 0, 81, 60
2, 38323, Control_c, 0, 64, 0
2, 38357, Note_on_c, 0, 84, 60
2, 38359, Note_on_c, 0, 81, 0
2, 38359, Note_on_c, 0, 75, 0
2, 38359, Note_on_c, 0, 69, 60
2, 38367, Note_on_c, 0, 72, 60
2, 38367, Note_on_c, 0, 63, 60
2, 38406, Note_on_c, 0, 75, 60
2, 38411, Note_on_c, 0, 81, 60
2, 38427, Note_on_c, 0, 72, 0
2, 38427, Note_on_c, 0, 84, 0
2, 38429, Note_on_c, 0, 69, 0
2, 38429, Note_on_c, 0, 63, 0
2, 38467, Note_on_c, 0, 74, 60
2, 38467, Note_on_c, 0, 77, 60
2, 38467, Note_on_c, 0, 82, 60
2, 38467, Note_on_c, 0, 70, 60
2, 38469, Note_on_c, 0, 75, 0
2, 38469, Note_on_c, 0, 53, 0
2, 38469, Note_on_c, 0, 41, 0
2, 38469, Note_on_c, 0, 46, 60
2, 38469, Note_on_c, 0, 58, 60
2, 38469, Note_on_c, 0, 62, 60
2, 38475, Note_on_c, 0, 81, 0
2, 38547, Note_on_c, 0, 58, 0
2, 38557, Note_on_c, 0, 46, 0
2, 38571, Note_on_c, 0, 53, 60
2, 38571, Note_on_c, 0, 41, 60
2, 38645, Note_on_c, 0, 70, 0
2, 38645, Note_on_c, 0, 74, 0
2, 38648, Note_on_c, 0, 82, 0
2, 38655, Note_on_c, 0, 77, 0
2, 38655, Note_on_c, 0, 62, 0
2, 38655, Note_on_c, 0, 41, 0
2, 38662, Note_on_c, 0, 53, 0
2, 38689, Note_on_c, 0, 94, 60
2, 38692, Note_on_c, 0, 62, 60
2, 38692, Note_on_c, 0, 65, 60
2, 38692, Note_on_c, 0, 70, 60
2, 38692, Note_on_c, 0, 74, 60
2, 38692, Note_on_c, 0, 77, 60
2, 38692, Note_on_c, 0, 82, 60
2, 38692, Note_on_c, 0, 86, 60
2, 38692, Note_on_c, 0, 58, 60
2, 38701, Note_on_c, 0, 46, 60
2, 38701, Note_on_c, 0, 34, 60
2, 38740, Note_on_c, 0, 94, 0
2, 38750, Note_on_c, 0, 46, 0
2, 38750, Note_on_c, 0, 70, 0
2, 38750, Note_on_c, 0, 74, 0
2, 38750, Note_on_c, 0, 86, 0
2, 38750, Note_on_c, 0, 77, 0
2, 38750, Note_on_c, 0, 65, 0
2, 38750, Note_on_c, 0, 58, 0
2, 38750, Note_on_c, 0, 62, 0
2, 38750, Note_on_c, 0, 82, 0
2, 38753, Note_on_c, 0, 34, 0
2, 38915, Note_on_c, 0, 75, 60
2, 38915, Note_on_c, 0, 79, 60
2, 38915, Note_on_c, 0, 70, 60
2, 38925, Note_on_c, 0, 67, 60
2, 38927, Note_on_c, 0, 51, 60
2, 38929, Note_on_c, 0, 39, 60
2, 39010, Note_on_c, 0, 39, 0
2, 39010, Note_on_c, 0, 51, 0
2, 39024, Note_on_c, 0, 63, 60
2, 39031, Note_on_c, 0, 58, 60
2, 39031, Note_on_c, 0, 55, 60
2, 39062, Note_on_c, 0, 55, 0
2, 39062, Note_on_c, 0, 63, 0
2, 39062, Note_on_c, 0, 58, 0
2, 39087, Control_c, 0, 64, 127
2, 39138, Note_on_c, 0, 46, 60
2, 39154, Note_on_c, 0, 70, 0
2, 39198, Note_on_c, 0, 82, 60
2, 39198, Note_on_c, 0, 70, 60
2, 39201, Note_on_c, 0, 75, 0
2, 39208, Note_on_c, 0, 79, 0
2, 39215, Note_on_c, 0, 67, 0
2, 39224, Note_on_c, 0, 46, 0
2, 39245, Note_on_c, 0, 87, 60
2, 39247, Note_on_c, 0, 75, 60
2, 39247, Note_on_c, 0, 63, 60
2, 39255, Note_on_c, 0, 58, 60
2, 39257, Note_on_c, 0, 55, 60
2, 39264, Note_on_c, 0, 70, 0
2, 39264, Note_on_c, 0, 82, 0
2, 39289, Note_on_c, 0, 58, 0
2, 39289, Note_on_c, 0, 55, 0
2, 39299, Note_on_c, 0, 63, 0
2, 39303, Note_on_c, 0, 91, 60
2, 39311, Note_on_c, 0, 79, 60
2, 39312, Note_on_c, 0, 87, 0
2, 39319, Note_on_c, 0, 75, 0
2, 39363, Note_on_c, 0, 94, 60
2, 39366, Note_on_c, 0, 82, 60
2, 39373, Note_on_c, 0, 91, 0
2, 39373, Note_on_c, 0, 79, 0
2, 39375, Note_on_c, 0, 55, 60
2, 39375, Note_on_c, 0, 43, 60
2, 39399, Control_c, 0, 64, 0
2, 39427, Note_on_c, 0, 93, 60
2, 39429, Note_on_c, 0, 94, 0
2, 39429, Note_on_c, 0, 81, 60
2, 39438, Note_on_c, 0, 82, 0
2, 39438, Note_on_c, 0, 55, 0
2, 39461, Note_on_c, 0, 43, 0
2, 39482, Note_on_c, 0, 94, 60
2, 39482, Note_on_c, 0, 82, 60
2, 39492, Note_on_c, 0, 81, 0
2, 39492, Note_on_c, 0, 93, 0
2, 39492, Note_on_c, 0, 58, 60
2, 39492, Note_on_c, 0, 63, 60
2, 39492, Note_on_c, 0, 55, 60
2, 39524, Note_on_c, 0, 58, 0
2, 39531, Note_on_c, 0, 63, 0
2, 39531, Note_on_c, 0, 55, 0
2, 39536, Note_on_c, 0, 92, 60
2, 39545, Note_on_c, 0, 94, 0
2, 39545, Note_on_c, 0, 80, 60
2, 39554, Note_on_c, 0, 82, 0
2, 39600, Note_on_c, 0, 91, 60
2, 39600, Note_on_c, 0, 79, 60
2, 39603, Note_on_c, 0, 80, 0
2, 39603, Note_on_c, 0, 51, 60
2, 39610, Note_on_c, 0, 92, 0
2, 39612, Note_on_c, 0, 39, 60
2, 39664, Note_on_c, 0, 90, 60
2, 39664, Note_on_c, 0, 78, 60
2, 39666, Note_on_c, 0, 79, 0
2, 39666, Note_on_c, 0, 91, 0
2, 39696, Note_on_c, 0, 51, 0
2, 39698, Note_on_c, 0, 39, 0
2, 39720, Note_on_c, 0, 78, 0
2, 39720, Note_on_c, 0, 63, 60
2, 39720, Note_on_c, 0, 79, 60
2, 39720, Note_on_c, 0, 91, 60
2, 39720, Note_on_c, 0, 58, 60
2, 39721, Note_on_c, 0, 55, 60
2, 39726, Note_on_c, 0, 90, 0
2, 39759, Note_on_c, 0, 58, 0
2, 39759, Note_on_c, 0, 63, 0
2, 39759, Note_on_c, 0, 55, 0
2, 39772, Note_on_c, 0, 75, 60
2, 39780, Note_on_c, 0, 91, 0
2, 39780, Note_on_c, 0, 79, 0
2, 39780, Note_on_c, 0, 87, 60
2, 39796, Note_on_c, 0, 75, 0
2, 39833, Note_on_c, 0, 87, 0
2, 39833, Note_on_c, 0, 75, 60
2, 39833, Note_on_c, 0, 80, 60
2, 39833, Note_on_c, 0, 84, 60
2, 39833, Note_on_c, 0, 72, 60
2, 39852, Note_on_c, 0, 44, 60
2, 39929, Note_on_c, 0, 44, 0
2, 39950, Note_on_c, 0, 60, 60
2, 39950, Note_on_c, 0, 63, 60
2, 39950, Note_on_c, 0, 56, 60
2, 39973, Control_c, 0, 64, 127
2, 39986, Note_on_c, 0, 56, 0
2, 39986, Note_on_c, 0, 60, 0
2, 39986, Note_on_c, 0, 63, 0
2, 40045, Note_on_c, 0, 48, 60
2, 40103, Note_on_c, 0, 86, 60
2, 40105, Note_on_c, 0, 72, 0
2, 40105, Note_on_c, 0, 84, 0
2, 40105, Note_on_c, 0, 75, 0
2, 40105, Note_on_c, 0, 80, 0
2, 40105, Note_on_c, 0, 74, 60
2, 40128, Note_on_c, 0, 48, 0
2, 40156, Note_on_c, 0, 87, 60
2, 40166, Note_on_c, 0, 74, 0
2, 40166, Note_on_c, 0, 86, 0
2, 40166, Note_on_c, 0, 75, 60
2, 40166, Note_on_c, 0, 63, 60
2, 40168, Note_on_c, 0, 60, 60
2, 40168, Note_on_c, 0, 56, 60
2, 40219, Note_on_c, 0, 89, 60
2, 40222, Note_on_c, 0, 77, 60
2, 40224, Note_on_c, 0, 63, 0
2, 40224, Note_on_c, 0, 87, 0
2, 40228, Note_on_c, 0, 56, 0
2, 40228, Note_on_c, 0, 60, 0
2, 40228, Note_on_c, 0, 75, 0
2, 40274, Note_on_c, 0, 82, 60
2, 40284, Note_on_c, 0, 77, 0
2, 40284, Note_on_c, 0, 89, 0
2, 40284, Note_on_c, 0, 70, 60
2, 40284, Note_on_c, 0, 75, 60
2, 40284, Note_on_c, 0, 79, 60
2, 40284, Note_on_c, 0, 51, 60
2, 40287, Note_on_c, 0, 39, 60
2, 40307, Control_c, 0, 64, 0
2, 40370, Note_on_c, 0, 51, 0
2, 40372, Note_on_c, 0, 39, 0
2, 40384, Note_on_c, 0, 55, 60
2, 40392, Note_on_c, 0, 63, 60
2, 40392, Note_on_c, 0, 58, 60
2, 40421, Note_on_c, 0, 58, 0
2, 40421, Note_on_c, 0, 63, 0
2, 40423, Control_c, 0, 64, 127
2, 40428, Note_on_c, 0, 55, 0
2, 40440, Note_on_c, 0, 84, 60
2, 40444, Note_on_c, 0, 72, 60
2, 40454, Note_on_c, 0, 79, 0
2, 40454, Note_on_c, 0, 75, 0
2, 40454, Note_on_c, 0, 82, 0
2, 40459, Note_on_c, 0, 70, 0
2, 40493, Note_on_c, 0, 70, 60
2, 40493, Note_on_c, 0, 77, 60
2, 40493, Note_on_c, 0, 80, 60
2, 40493, Note_on_c, 0, 68, 60
2, 40496, Note_on_c, 0, 46, 60
2, 40503, Note_on_c, 0, 74, 60
2, 40508, Note_on_c, 0, 72, 0
2, 40510, Note_on_c, 0, 84, 0
2, 40591, Note_on_c, 0, 46, 0
2, 40612, Note_on_c, 0, 70, 0
2, 40612, Note_on_c, 0, 62, 60
2, 40612, Note_on_c, 0, 58, 60
2, 40614, Note_on_c, 0, 56, 60
2, 40644, Note_on_c, 0, 58, 0
2, 40652, Note_on_c, 0, 62, 0
2, 40652, Note_on_c, 0, 56, 0
2, 40665, Note_on_c, 0, 82, 60
2, 40670, Control_c, 0, 64, 0
2, 40675, Note_on_c, 0, 77, 0
2, 40675, Note_on_c, 0, 80, 0
2, 40675, Note_on_c, 0, 74, 0
2, 40675, Note_on_c, 0, 68, 0
2, 40675, Note_on_c, 0, 70, 60
2, 40698, Note_on_c, 0, 70, 0
2, 40728, Note_on_c, 0, 75, 60
2, 40728, Note_on_c, 0, 79, 60
2, 40728, Note_on_c, 0, 67, 60
2, 40730, Note_on_c, 0, 70, 60
2, 40730, Note_on_c, 0, 51, 60
2, 40740, Note_on_c, 0, 39, 60
2, 40763, Note_on_c, 0, 82, 0
2, 40824, Note_on_c, 0, 51, 0
2, 40824, Note_on_c, 0, 39, 0
2, 40847, Note_on_c, 0, 58, 60
2, 40847, Note_on_c, 0, 63, 60
2, 40847, Note_on_c, 0, 55, 60
2, 40872, Control_c, 0, 64, 127
2, 40889, Note_on_c, 0, 55, 0
2, 40889, Note_on_c, 0, 58, 0
2, 40889, Note_on_c, 0, 63, 0
2, 40951, Note_on_c, 0, 46, 60
2, 40966, Note_on_c, 0, 70, 0
2, 41012, Note_on_c, 0, 79, 0
2, 41021, Note_on_c, 0, 75, 0
2, 41021, Note_on_c, 0, 67, 0
2, 41021, Note_on_c, 0, 70, 60
2, 41021, Note_on_c, 0, 82, 60
2, 41044, Note_on_c, 0, 46, 0
2, 41065, Note_on_c, 0, 63, 60
2, 41065, Note_on_c, 0, 75, 60
2, 41065, Note_on_c, 0, 87, 60
2, 41065, Note_on_c, 0, 55, 60
2, 41074, Note_on_c, 0, 58, 60
2, 41082, Note_on_c, 0, 82, 0
2, 41082, Note_on_c, 0, 70, 0
2, 41105, Note_on_c, 0, 58, 0
2, 41112, Note_on_c, 0, 55, 0
2, 41112, Note_on_c, 0, 63, 0
2, 41126, Note_on_c, 0, 75, 0
2, 41126, Note_on_c, 0, 87, 0
2, 41133, Note_on_c, 0, 91, 60
2, 41133, Note_on_c, 0, 79, 60
2, 41170, Note_on_c, 0, 94, 60
2, 41182, Note_on_c, 0, 51, 60
2, 41182, Note_on_c, 0, 82, 60
2, 41182, Note_on_c, 0, 39, 60
2, 41188, Note_on_c, 0, 79, 0
2, 41188, Note_on_c, 0, 91, 0
2, 41195, Control_c, 0, 64, 0
2, 41232, Note_on_c, 0, 93, 60
2, 41232, Note_on_c, 0, 81, 60
2, 41242, Note_on_c, 0, 82, 0
2, 41242, Note_on_c, 0, 94, 0
2, 41265, Note_on_c, 0, 51, 0
2, 41267, Note_on_c, 0, 39, 0
2, 41286, Note_on_c, 0, 94, 60
2, 41286, Note_on_c, 0, 82, 60
2, 41295, Note_on_c, 0, 81, 0
2, 41295, Note_on_c, 0, 93, 0
2, 41295, Note_on_c, 0, 58, 60
2, 41295, Note_on_c, 0, 63, 60
2, 41295, Note_on_c, 0, 55, 60
2, 41335, Note_on_c, 0, 55, 0
2, 41335, Note_on_c, 0, 58, 0
2, 41335, Note_on_c, 0, 63, 0
2, 41349, Note_on_c, 0, 92, 60
2, 41355, Note_on_c, 0, 80, 60
2, 41358, Note_on_c, 0, 94, 0
2, 41358, Note_on_c, 0, 82, 0
2, 41409, Note_on_c, 0, 92, 0
2, 41409, Note_on_c, 0, 91, 60
2, 41409, Note_on_c, 0, 79, 60
2, 41412, Note_on_c, 0, 80, 0
2, 41412, Note_on_c, 0, 48, 60
2, 41463, Note_on_c, 0, 90, 60
2, 41472, Note_on_c, 0, 79, 0
2, 41472, Note_on_c, 0, 91, 0
2, 41472, Note_on_c, 0, 78, 60
2, 41502, Note_on_c, 0, 48, 0
2, 41523, Note_on_c, 0, 60, 60
2, 41523, Note_on_c, 0, 63, 60
2, 41523, Note_on_c, 0, 79, 60
2, 41523, Note_on_c, 0, 91, 60
2, 41523, Note_on_c, 0, 55, 60
2, 41532, Note_on_c, 0, 78, 0
2, 41532, Note_on_c, 0, 90, 0
2, 41565, Note_on_c, 0, 60, 0
2, 41565, Note_on_c, 0, 63, 0
2, 41565, Note_on_c, 0, 55, 0
2, 41579, Note_on_c, 0, 79, 0
2, 41579, Note_on_c, 0, 87, 60
2, 41579, Note_on_c, 0, 75, 60
2, 41589, Note_on_c, 0, 91, 0
2, 41633, Note_on_c, 0, 87, 0
2, 41633, Note_on_c, 0, 74, 60
2, 41633, Note_on_c, 0, 79, 60
2, 41633, Note_on_c, 0, 82, 60
2, 41633, Note_on_c, 0, 86, 60
2, 41633, Note_on_c, 0, 38, 60
2, 41635, Note_on_c, 0, 50, 60
2, 41640, Note_on_c, 0, 75, 0
2, 41725, Note_on_c, 0, 38, 0
2, 41725, Note_on_c, 0, 50, 0
2, 41749, Note_on_c, 0, 58, 60
2, 41749, Note_on_c, 0, 62, 60
2, 41749, Note_on_c, 0, 55, 60
2, 41765, Control_c, 0, 64, 127
2, 41785, Note_on_c, 0, 55, 0
2, 41785, Note_on_c, 0, 58, 0
2, 41785, Note_on_c, 0, 62, 0
2, 41865, Note_on_c, 0, 50, 60
2, 41865, Note_on_c, 0, 38, 60
2, 41921, Note_on_c, 0, 86, 0
2, 41921, Note_on_c, 0, 82, 0
2, 41921, Note_on_c, 0, 74, 0
2, 41921, Note_on_c, 0, 79, 0
2, 41921, Note_on_c, 0, 84, 60
2, 41921, Note_on_c, 0, 96, 60
2, 41962, Note_on_c, 0, 38, 0
2, 41962, Note_on_c, 0, 50, 0
2, 41983, Note_on_c, 0, 94, 60
2, 41986, Note_on_c, 0, 96, 0
2, 41986, Note_on_c, 0, 62, 60
2, 41986, Note_on_c, 0, 82, 60
2, 41986, Note_on_c, 0, 60, 60
2, 41988, Note_on_c, 0, 54, 60
2, 41995, Note_on_c, 0, 84, 0
2, 42032, Note_on_c, 0, 94, 0
2, 42032, Note_on_c, 0, 93, 60
2, 42032, Note_on_c, 0, 81, 60
2, 42048, Note_on_c, 0, 60, 0
2, 42048, Note_on_c, 0, 62, 0
2, 42048, Note_on_c, 0, 82, 0
2, 42048, Note_on_c, 0, 54, 0
2, 42088, Note_on_c, 0, 62, 60
2, 42093, Note_on_c, 0, 91, 60
2, 42095, Note_on_c, 0, 81, 0
2, 42095, Note_on_c, 0, 93, 0
2, 42095, Note_on_c, 0, 58, 60
2, 42095, Note_on_c, 0, 79, 60
2, 42095, Note_on_c, 0, 55, 60
2, 42111, Control_c, 0, 64, 0
2, 42230, Note_on_c, 0, 55, 0
2, 42230, Note_on_c, 0, 58, 0
2, 42230, Note_on_c, 0, 79, 0
2, 42230, Note_on_c, 0, 91, 0
2, 42237, Note_on_c, 0, 62, 0
2, 42288, Control_c, 0, 64, 127
2, 42323, Note_on_c, 0, 91, 60
2, 42323, Note_on_c, 0, 103, 60
2, 42323, Note_on_c, 0, 86, 60
2, 42325, Note_on_c, 0, 55, 60
2, 42325, Note_on_c, 0, 62, 60
2, 42325, Note_on_c, 0, 67, 60
2, 42325, Note_on_c, 0, 71, 60
2, 42325, Note_on_c, 0, 74, 60
2, 42325, Note_on_c, 0, 79, 60
2, 42325, Note_on_c, 0, 83, 60
2, 42325, Note_on_c, 0, 43, 60
2, 42330, Note_on_c, 0, 59, 60
2, 42332, Note_on_c, 0, 31, 60
2, 42379, Note_on_c, 0, 59, 0
2, 42379, Note_on_c, 0, 79, 0
2, 42379, Note_on_c, 0, 71, 0
2, 42379, Note_on_c, 0, 91, 0
2, 42379, Note_on_c, 0, 86, 0
2, 42379, Note_on_c, 0, 55, 0
2, 42379, Note_on_c, 0, 74, 0
2, 42379, Note_on_c, 0, 103, 0
2, 42379, Note_on_c, 0, 62, 0
2, 42379, Note_on_c, 0, 83, 0
2, 42381, Note_on_c, 0, 43, 0
2, 42381, Note_on_c, 0, 31, 0
2, 42390, Note_on_c, 0, 67, 0
2, 42400, Control_c, 0, 64, 0
2, 42536, Note_on_c, 0, 48, 60
2, 42590, Note_on_c, 0, 87, 60
2, 42590, Note_on_c, 0, 75, 60
2, 42644, Note_on_c, 0, 84, 60
2, 42650, Note_on_c, 0, 60, 60
2, 42650, Note_on_c, 0, 63, 60
2, 42650, Note_on_c, 0, 72, 60
2, 42650, Note_on_c, 0, 55, 60
2, 42665, Note_on_c, 0, 87, 0
2, 42673, Note_on_c, 0, 84, 0
2, 42673, Note_on_c, 0, 75, 0
2, 42673, Note_on_c, 0, 72, 0
2, 42688, Note_on_c, 0, 60, 0
2, 42688, Note_on_c, 0, 55, 0
2, 42688, Note_on_c, 0, 63, 0
2, 42701, Note_on_c, 0, 84, 60
2, 42704, Note_on_c, 0, 75, 60
2, 42704, Note_on_c, 0, 79, 60
2, 42704, Note_on_c, 0, 72, 60
2, 42737, Note_on_c, 0, 48, 0
2, 42753, Note_on_c, 0, 43, 60
2, 42814, Note_on_c, 0, 82, 60
2, 42814, Note_on_c, 0, 70, 60
2, 42816, Note_on_c, 0, 79, 0
2, 42816, Note_on_c, 0, 75, 0
2, 42820, Note_on_c, 0, 72, 0
2, 42820, Note_on_c, 0, 84, 0
2, 42837, Note_on_c, 0, 43, 0
2, 42866, Note_on_c, 0, 63, 60
2, 42866, Note_on_c, 0, 67, 60
2, 42866, Note_on_c, 0, 79, 60
2, 42866, Note_on_c, 0, 60, 60
2, 42874, Note_on_c, 0, 55, 60
2, 42897, Note_on_c, 0, 70, 0
2, 42897, Note_on_c, 0, 82, 0
2, 42904, Note_on_c, 0, 63, 0
2, 42904, Note_on_c, 0, 60, 0
2, 42904, Note_on_c, 0, 55, 0
2, 42930, Note_on_c, 0, 75, 60
2, 42930, Note_on_c, 0, 72, 60
2, 42978, Note_on_c, 0, 48, 60
2, 42987, Note_on_c, 0, 79, 0
2, 42994, Note_on_c, 0, 72, 0
2, 42994, Note_on_c, 0, 67, 0
2, 42994, Note_on_c, 0, 75, 0
2, 43041, Note_on_c, 0, 87, 60
2, 43043, Note_on_c, 0, 75, 60
2, 43074, Note_on_c, 0, 48, 0
2, 43099, Note_on_c, 0, 60, 60
2, 43104, Note_on_c, 0, 84, 60
2, 43104, Note_on_c, 0, 72, 60
2, 43106, Note_on_c, 0, 75, 0
2, 43106, Note_on_c, 0, 87, 0
2, 43106, Note_on_c, 0, 63, 60
2, 43106, Note_on_c, 0, 55, 60
2, 43127, Note_on_c, 0, 84, 0
2, 43127, Note_on_c, 0, 72, 0
2, 43129, Control_c, 0, 64, 127
2, 43134, Note_on_c, 0, 60, 0
2, 43136, Note_on_c, 0, 63, 0
2, 43143, Note_on_c, 0, 55, 0
2, 43159, Note_on_c, 0, 75, 60
2, 43159, Note_on_c, 0, 79, 60
2, 43159, Note_on_c, 0, 84, 60
2, 43159, Note_on_c, 0, 72, 60
2, 43206, Note_on_c, 0, 43, 60
2, 43269, Note_on_c, 0, 79, 0
2, 43272, Note_on_c, 0, 75, 0
2, 43278, Note_on_c, 0, 72, 0
2, 43278, Note_on_c, 0, 84, 0
2, 43278, Note_on_c, 0, 82, 60
2, 43278, Note_on_c, 0, 70, 60
2, 43301, Note_on_c, 0, 43, 0
2, 43327, Note_on_c, 0, 60, 60
2, 43327, Note_on_c, 0, 67, 60
2, 43327, Note_on_c, 0, 55, 60
2, 43334, Note_on_c, 0, 79, 60
2, 43336, Note_on_c, 0, 63, 60
2, 43344, Note_on_c, 0, 70, 0
2, 43344, Note_on_c, 0, 82, 0
2, 43367, Note_on_c, 0, 60, 0
2, 43367, Note_on_c, 0, 55, 0
2, 43367, Note_on_c, 0, 63, 0
2, 43396, Note_on_c, 0, 75, 60
2, 43396, Note_on_c, 0, 72, 60
2, 43443, Note_on_c, 0, 79, 0
2, 43452, Note_on_c, 0, 67, 0
2, 43452, Note_on_c, 0, 41, 60
2, 43460, Note_on_c, 0, 75, 0
2, 43460, Note_on_c, 0, 72, 0
2, 43462, Control_c, 0, 64, 0
2, 43509, Note_on_c, 0, 79, 60
2, 43509, Note_on_c, 0, 67, 60
2, 43540, Note_on_c, 0, 41, 0
2, 43564, Note_on_c, 0, 60, 60
2, 43564, Note_on_c, 0, 56, 60
2, 43571, Note_on_c, 0, 65, 60
2, 43573, Note_on_c, 0, 79, 0
2, 43576, Control_c, 0, 64, 127
2, 43581, Note_on_c, 0, 67, 0
2, 43587, Note_on_c, 0, 65, 0
2, 43606, Note_on_c, 0, 60, 0
2, 43606, Note_on_c, 0, 56, 0
2, 43629, Note_on_c, 0, 68, 60
2, 43629, Note_on_c, 0, 72, 60
2, 43629, Note_on_c, 0, 77, 60
2, 43629, Note_on_c, 0, 65, 60
2, 43692, Note_on_c, 0, 44, 60
2, 43736, Note_on_c, 0, 75, 60
2, 43746, Note_on_c, 0, 65, 0
2, 43746, Note_on_c, 0, 68, 0
2, 43746, Note_on_c, 0, 63, 60
2, 43752, Note_on_c, 0, 72, 0
2, 43752, Note_on_c, 0, 77, 0
2, 43776, Note_on_c, 0, 44, 0
2, 43797, Note_on_c, 0, 72, 60
2, 43797, Note_on_c, 0, 60, 60
2, 43799, Note_on_c, 0, 56, 60
2, 43803, Note_on_c, 0, 53, 60
2, 43826, Note_on_c, 0, 63, 0
2, 43826, Note_on_c, 0, 75, 0
2, 43836, Note_on_c, 0, 53, 0
2, 43857, Note_on_c, 0, 68, 60
2, 43857, Note_on_c, 0, 65, 60
2, 43910, Note_on_c, 0, 41, 60
2, 43913, Note_on_c, 0, 56, 0
2, 43913, Control_c, 0, 64, 0
2, 43915, Note_on_c, 0, 65, 0
2, 43915, Note_on_c, 0, 68, 0
2, 43915, Note_on_c, 0, 60, 0
2, 43915, Note_on_c, 0, 72, 0
2, 43954, Note_on_c, 0, 67, 60
2, 43962, Note_on_c, 0, 79, 60
2, 43996, Note_on_c, 0, 41, 0
2, 44017, Note_on_c, 0, 79, 0
2, 44017, Note_on_c, 0, 60, 60
2, 44017, Note_on_c, 0, 65, 60
2, 44017, Note_on_c, 0, 77, 60
2, 44017, Note_on_c, 0, 56, 60
2, 44026, Note_on_c, 0, 67, 0
2, 44036, Control_c, 0, 64, 127
2, 44040, Note_on_c, 0, 77, 0
2, 44040, Note_on_c, 0, 65, 0
2, 44050, Note_on_c, 0, 60, 0
2, 44050, Note_on_c, 0, 56, 0
2, 44087, Note_on_c, 0, 68, 60
2, 44087, Note_on_c, 0, 72, 60
2, 44087, Note_on_c, 0, 77, 60
2, 44087, Note_on_c, 0, 65, 60
2, 44140, Note_on_c, 0, 44, 60
2, 44191, Note_on_c, 0, 75, 60
2, 44191, Note_on_c, 0, 63, 60
2, 44194, Note_on_c, 0, 65, 0
2, 44194, Note_on_c, 0, 77, 0
2, 44194, Note_on_c, 0, 68, 0
2, 44201, Note_on_c, 0, 72, 0
2, 44217, Control_c, 0, 64, 0
2, 44227, Note_on_c, 0, 44, 0
2, 44250, Note_on_c, 0, 56, 60
2, 44250, Note_on_c, 0, 60, 60
2, 44250, Note_on_c, 0, 72, 60
2, 44250, Note_on_c, 0, 53, 60
2, 44259, Note_on_c, 0, 75, 0
2, 44259, Note_on_c, 0, 63, 0
2, 44289, Note_on_c, 0, 56, 0
2, 44289, Note_on_c, 0, 53, 0
2, 44296, Note_on_c, 0, 68, 60
2, 44305, Note_on_c, 0, 65, 60
2, 44352, Note_on_c, 0, 62, 60
2, 44352, Note_on_c, 0, 53, 60
2, 44356, Note_on_c, 0, 74, 60
2, 44359, Note_on_c, 0, 68, 0
2, 44359, Note_on_c, 0, 60, 0
2, 44359, Note_on_c, 0, 41, 60
2, 44368, Note_on_c, 0, 65, 0
2, 44368, Note_on_c, 0, 72, 0
2, 44403, Note_on_c, 0, 84, 60
2, 44412, Note_on_c, 0, 62, 0
2, 44412, Note_on_c, 0, 74, 0
2, 44412, Note_on_c, 0, 68, 60
2, 44412, Note_on_c, 0, 72, 60
2, 44443, Note_on_c, 0, 53, 0
2, 44443, Note_on_c, 0, 41, 0
2, 44459, Note_on_c, 0, 62, 60
2, 44459, Note_on_c, 0, 56, 60
2, 44464, Note_on_c, 0, 58, 60
2, 44480, Note_on_c, 0, 62, 0
2, 44496, Note_on_c, 0, 56, 0
2, 44496, Note_on_c, 0, 58, 0
2, 44528, Note_on_c, 0, 72, 0
2, 44528, Note_on_c, 0, 68, 0
2, 44528, Note_on_c, 0, 84, 0
2, 44528, Note_on_c, 0, 74, 60
2, 44528, Note_on_c, 0, 62, 60
2, 44587, Note_on_c, 0, 68, 60
2, 44593, Note_on_c, 0, 74, 0
2, 44596, Note_on_c, 0, 62, 0
2, 44596, Note_on_c, 0, 70, 60
2, 44596, Note_on_c, 0, 82, 60
2, 44598, Note_on_c, 0, 46, 60
2, 44691, Note_on_c, 0, 46, 0
2, 44698, Note_on_c, 0, 62, 60
2, 44698, Note_on_c, 0, 58, 60
2, 44706, Note_on_c, 0, 74, 60
2, 44708, Note_on_c, 0, 82, 0
2, 44708, Note_on_c, 0, 56, 60
2, 44712, Note_on_c, 0, 70, 0
2, 44714, Note_on_c, 0, 68, 0
2, 44737, Note_on_c, 0, 58, 0
2, 44737, Note_on_c, 0, 62, 0
2, 44737, Note_on_c, 0, 56, 0
2, 44759, Note_on_c, 0, 74, 0
2, 44759, Note_on_c, 0, 84, 60
2, 44759, Note_on_c, 0, 72, 60
2, 44761, Note_on_c, 0, 68, 60
2, 44808, Note_on_c, 0, 53, 60
2, 44812, Note_on_c, 0, 41, 60
2, 44866, Note_on_c, 0, 74, 60
2, 44866, Note_on_c, 0, 62, 60
2, 44875, Note_on_c, 0, 68, 0
2, 44875, Note_on_c, 0, 84, 0
2, 44875, Note_on_c, 0, 72, 0
2, 44889, Note_on_c, 0, 62, 0
2, 44896, Note_on_c, 0, 53, 0
2, 44898, Note_on_c, 0, 41, 0
2, 44927, Note_on_c, 0, 82, 60
2, 44928, Note_on_c, 0, 74, 0
2, 44935, Note_on_c, 0, 70, 60
2, 44935, Note_on_c, 0, 68, 60
2, 44938, Note_on_c, 0, 58, 60
2, 44938, Note_on_c, 0, 62, 60
2, 44938, Note_on_c, 0, 56, 60
2, 44968, Note_on_c, 0, 56, 0
2, 44973, Note_on_c, 0, 58, 0
2, 44973, Note_on_c, 0, 62, 0
2, 44989, Note_on_c, 0, 68, 0
2, 45026, Note_on_c, 0, 84, 60
2, 45033, Note_on_c, 0, 72, 60
2, 45033, Note_on_c, 0, 68, 60
2, 45035, Note_on_c, 0, 70, 0
2, 45035, Note_on_c, 0, 62, 60
2, 45035, Note_on_c, 0, 46, 60
2, 45043, Note_on_c, 0, 82, 0
2, 45094, Note_on_c, 0, 62, 0
2, 45094, Note_on_c, 0, 68, 0
2, 45094, Note_on_c, 0, 72, 0
2, 45094, Note_on_c, 0, 84, 0
2, 45117, Note_on_c, 0, 46, 0
2, 45144, Note_on_c, 0, 70, 60
2, 45144, Note_on_c, 0, 82, 60
2, 45144, Note_on_c, 0, 68, 60
2, 45147, Note_on_c, 0, 58, 60
2, 45147, Note_on_c, 0, 62, 60
2, 45147, Note_on_c, 0, 56, 60
2, 45203, Note_on_c, 0, 62, 0
2, 45203, Note_on_c, 0, 58, 0
2, 45203, Note_on_c, 0, 68, 0
2, 45203, Note_on_c, 0, 70, 0
2, 45203, Note_on_c, 0, 82, 0
2, 45205, Note_on_c, 0, 56, 0
2, 45244, Note_on_c, 0, 63, 60
2, 45244, Note_on_c, 0, 68, 60
2, 45244, Note_on_c, 0, 75, 60
2, 45244, Note_on_c, 0, 51, 60
2, 45247, Note_on_c, 0, 39, 60
2, 45303, Note_on_c, 0, 84, 60
2, 45303, Note_on_c, 0, 67, 60
2, 45305, Note_on_c, 0, 68, 0
2, 45310, Note_on_c, 0, 72, 60
2, 45326, Note_on_c, 0, 39, 0
2, 45326, Note_on_c, 0, 51, 0
2, 45326, Note_on_c, 0, 75, 0
2, 45333, Note_on_c, 0, 63, 0
2, 45359, Note_on_c, 0, 58, 60
2, 45360, Note_on_c, 0, 55, 60
2, 45360, Control_c, 0, 64, 127
2, 45396, Note_on_c, 0, 55, 0
2, 45396, Note_on_c, 0, 58, 0
2, 45408, Note_on_c, 0, 75, 60
2, 45409, Note_on_c, 0, 63, 60
2, 45416, Note_on_c, 0, 67, 0
2, 45416, Note_on_c, 0, 72, 0
2, 45416, Note_on_c, 0, 84, 0
2, 45468, Note_on_c, 0, 82, 60
2, 45468, Note_on_c, 0, 67, 60
2, 45470, Note_on_c, 0, 70, 60
2, 45470, Note_on_c, 0, 46, 60
2, 45493, Note_on_c, 0, 75, 0
2, 45493, Note_on_c, 0, 63, 0
2, 45530, Control_c, 0, 64, 0
2, 45556, Note_on_c, 0, 46, 0
2, 45576, Note_on_c, 0, 82, 0
2, 45576, Note_on_c, 0, 70, 0
2, 45576, Note_on_c, 0, 75, 60
2, 45584, Note_on_c, 0, 63, 60
2, 45584, Note_on_c, 0, 58, 60
2, 45586, Note_on_c, 0, 67, 0
2, 45586, Note_on_c, 0, 55, 60
2, 45619, Note_on_c, 0, 55, 0
2, 45619, Note_on_c, 0, 58, 0
2, 45619, Note_on_c, 0, 63, 0
2, 45633, Note_on_c, 0, 84, 60
2, 45640, Note_on_c, 0, 72, 60
2, 45642, Note_on_c, 0, 67, 60
2, 45649, Note_on_c, 0, 75, 0
2, 45697, Note_on_c, 0, 51, 60
2, 45697, Note_on_c, 0, 39, 60
2, 45754, Note_on_c, 0, 75, 60
2, 45754, Note_on_c, 0, 63, 60
2, 45761, Note_on_c, 0, 84, 0
2, 45761, Note_on_c, 0, 67, 0
2, 45761, Note_on_c, 0, 72, 0
2, 45782, Note_on_c, 0, 51, 0
2, 45784, Note_on_c, 0, 39, 0
2, 45805, Note_on_c, 0, 70, 60
2, 45805, Note_on_c, 0, 82, 60
2, 45805, Note_on_c, 0, 67, 60
2, 45810, Note_on_c, 0, 58, 60
2, 45810, Note_on_c, 0, 55, 60
2, 45840, Note_on_c, 0, 75, 0
2, 45840, Note_on_c, 0, 63, 0
2, 45846, Note_on_c, 0, 58, 0
2, 45846, Note_on_c, 0, 55, 0
2, 45928, Note_on_c, 0, 82, 0
2, 45928, Note_on_c, 0, 67, 0
2, 45928, Note_on_c, 0, 70, 0
2, 45928, Note_on_c, 0, 68, 60
2, 45928, Note_on_c, 0, 72, 60
2, 45928, Note_on_c, 0, 84, 60
2, 45928, Note_on_c, 0, 62, 60
2, 45931, Note_on_c, 0, 46, 60
2, 45990, Note_on_c, 0, 62, 0
2, 45990, Note_on_c, 0, 84, 0
2, 45990, Note_on_c, 0, 68, 0
2, 46000, Note_on_c, 0, 72, 0
2, 46026, Note_on_c, 0, 46, 0
2, 46031, Note_on_c, 0, 62, 60
2, 46037, Note_on_c, 0, 82, 60
2, 46039, Note_on_c, 0, 58, 60
2, 46039, Note_on_c, 0, 70, 60
2, 46039, Note_on_c, 0, 56, 60
2, 46103, Note_on_c, 0, 56, 0
2, 46103, Note_on_c, 0, 58, 0
2, 46103, Note_on_c, 0, 62, 0
2, 46103, Note_on_c, 0, 82, 0
2, 46103, Note_on_c, 0, 70, 0
2, 46142, Note_on_c, 0, 75, 60
2, 46142, Note_on_c, 0, 70, 60
2, 46149, Note_on_c, 0, 55, 60
2, 46149, Note_on_c, 0, 67, 60
2, 46149, Note_on_c, 0, 79, 60
2, 46149, Note_on_c, 0, 51, 60
2, 46152, Note_on_c, 0, 39, 60
2, 46212, Note_on_c, 0, 55, 0
2, 46235, Note_on_c, 0, 51, 0
2, 46237, Note_on_c, 0, 39, 0
2, 46265, Note_on_c, 0, 63, 60
2, 46265, Note_on_c, 0, 58, 60
2, 46268, Note_on_c, 0, 55, 60
2, 46284, Control_c, 0, 64, 127
2, 46304, Note_on_c, 0, 58, 0
2, 46304, Note_on_c, 0, 63, 0
2, 46374, Note_on_c, 0, 46, 60
2, 46374, Note_on_c, 0, 34, 60
2, 46384, Note_on_c, 0, 70, 0
2, 46425, Note_on_c, 0, 82, 60
2, 46428, Note_on_c, 0, 79, 0
2, 46428, Note_on_c, 0, 70, 60
2, 46428, Note_on_c, 0, 58, 60
2, 46437, Note_on_c, 0, 75, 0
2, 46444, Note_on_c, 0, 67, 0
2, 46444, Note_on_c, 0, 55, 0
2, 46451, Note_on_c, 0, 58, 0
2, 46461, Note_on_c, 0, 34, 0
2, 46461, Note_on_c, 0, 46, 0
2, 46488, Note_on_c, 0, 75, 60
2, 46488, Note_on_c, 0, 87, 60
2, 46488, Note_on_c, 0, 63, 60
2, 46490, Note_on_c, 0, 70, 0
2, 46490, Note_on_c, 0, 82, 0
2, 46490, Note_on_c, 0, 58, 60
2, 46490, Note_on_c, 0, 55, 60
2, 46521, Note_on_c, 0, 58, 0
2, 46528, Note_on_c, 0, 63, 0
2, 46528, Note_on_c, 0, 55, 0
2, 46541, Note_on_c, 0, 87, 0
2, 46541, Note_on_c, 0, 91, 60
2, 46544, Note_on_c, 0, 79, 60
2, 46544, Note_on_c, 0, 67, 60
2, 46551, Note_on_c, 0, 75, 0
2, 46585, Note_on_c, 0, 94, 60
2, 46588, Note_on_c, 0, 82, 60
2, 46595, Note_on_c, 0, 70, 60
2, 46597, Note_on_c, 0, 55, 60
2, 46597, Note_on_c, 0, 43, 60
2, 46605, Note_on_c, 0, 91, 0
2, 46605, Note_on_c, 0, 79, 0
2, 46611, Note_on_c, 0, 67, 0
2, 46641, Note_on_c, 0, 93, 60
2, 46651, Note_on_c, 0, 94, 0
2, 46651, Note_on_c, 0, 70, 0
2, 46651, Note_on_c, 0, 81, 60
2, 46651, Note_on_c, 0, 69, 60
2, 46654, Control_c, 0, 64, 0
2, 46657, Note_on_c, 0, 82, 0
2, 46660, Note_on_c, 0, 55, 0
2, 46683, Note_on_c, 0, 43, 0
2, 46695, Note_on_c, 0, 94, 60
2, 46698, Note_on_c, 0, 58, 60
2, 46698, Note_on_c, 0, 63, 60
2, 46698, Note_on_c, 0, 70, 60
2, 46698, Note_on_c, 0, 82, 60
2, 46698, Note_on_c, 0, 55, 60
2, 46711, Note_on_c, 0, 93, 0
2, 46714, Note_on_c, 0, 81, 0
2, 46714, Note_on_c, 0, 69, 0
2, 46734, Note_on_c, 0, 58, 0
2, 46734, Note_on_c, 0, 63, 0
2, 46737, Note_on_c, 0, 55, 0
2, 46749, Note_on_c, 0, 92, 60
2, 46751, Note_on_c, 0, 68, 60
2, 46755, Note_on_c, 0, 80, 60
2, 46758, Note_on_c, 0, 70, 0
2, 46758, Note_on_c, 0, 82, 0
2, 46758, Note_on_c, 0, 94, 0
2, 46802, Note_on_c, 0, 91, 60
2, 46804, Note_on_c, 0, 67, 60
2, 46811, Note_on_c, 0, 92, 0
2, 46811, Note_on_c, 0, 80, 0
2, 46811, Note_on_c, 0, 79, 60
2, 46814, Note_on_c, 0, 51, 60
2, 46814, Note_on_c, 0, 39, 60
2, 46821, Note_on_c, 0, 68, 0
2, 46862, Note_on_c, 0, 90, 60
2, 46862, Note_on_c, 0, 78, 60
2, 46865, Note_on_c, 0, 66, 60
2, 46872, Note_on_c, 0, 79, 0
2, 46872, Note_on_c, 0, 67, 0
2, 46872, Note_on_c, 0, 91, 0
2, 46897, Note_on_c, 0, 51, 0
2, 46904, Note_on_c, 0, 39, 0
2, 46916, Note_on_c, 0, 91, 60
2, 46927, Note_on_c, 0, 67, 60
2, 46927, Note_on_c, 0, 79, 60
2, 46927, Note_on_c, 0, 63, 60
2, 46930, Note_on_c, 0, 90, 0
2, 46930, Note_on_c, 0, 66, 0
2, 46930, Note_on_c, 0, 78, 0
2, 46930, Note_on_c, 0, 58, 60
2, 46930, Note_on_c, 0, 55, 60
2, 46950, Note_on_c, 0, 63, 0
2, 46969, Note_on_c, 0, 58, 0
2, 46969, Note_on_c, 0, 55, 0
2, 46974, Note_on_c, 0, 87, 60
2, 46976, Note_on_c, 0, 75, 60
2, 46976, Note_on_c, 0, 63, 60
2, 46992, Note_on_c, 0, 91, 0
2, 46992, Note_on_c, 0, 79, 0
2, 46992, Note_on_c, 0, 67, 0
2, 46999, Note_on_c, 0, 75, 0
2, 47032, Note_on_c, 0, 84, 60
2, 47035, Note_on_c, 0, 80, 60
2, 47037, Note_on_c, 0, 60, 60
2, 47037, Note_on_c, 0, 72, 60
2, 47037, Note_on_c, 0, 75, 60
2, 47037, Control_c, 0, 64, 127
2, 47040, Note_on_c, 0, 87, 0
2, 47040, Note_on_c, 0, 32, 60
2, 47046, Note_on_c, 0, 44, 60
2, 47048, Note_on_c, 0, 63, 0
2, 47102, Note_on_c, 0, 60, 0
2, 47128, Note_on_c, 0, 44, 0
2, 47128, Note_on_c, 0, 32, 0
2, 47156, Note_on_c, 0, 60, 60
2, 47156, Note_on_c, 0, 63, 60
2, 47156, Note_on_c, 0, 56, 60
2, 47185, Note_on_c, 0, 56, 0
2, 47192, Note_on_c, 0, 63, 0
2, 47260, Note_on_c, 0, 48, 60
2, 47260, Note_on_c, 0, 36, 60
2, 47313, Note_on_c, 0, 74, 60
2, 47313, Note_on_c, 0, 86, 60
2, 47313, Note_on_c, 0, 62, 60
2, 47316, Note_on_c, 0, 80, 0
2, 47316, Note_on_c, 0, 60, 0
2, 47323, Note_on_c, 0, 84, 0
2, 47323, Note_on_c, 0, 75, 0
2, 47323, Note_on_c, 0, 72, 0
2, 47346, Note_on_c, 0, 36, 0
2, 47346, Note_on_c, 0, 48, 0
2, 47369, Note_on_c, 0, 60, 60
2, 47369, Note_on_c, 0, 63, 60
2, 47369, Note_on_c, 0, 75, 60
2, 47369, Note_on_c, 0, 56, 60
2, 47374, Note_on_c, 0, 87, 60
2, 47376, Note_on_c, 0, 86, 0
2, 47376, Note_on_c, 0, 62, 0
2, 47376, Note_on_c, 0, 74, 0
2, 47406, Note_on_c, 0, 60, 0
2, 47406, Note_on_c, 0, 56, 0
2, 47427, Note_on_c, 0, 77, 60
2, 47427, Note_on_c, 0, 89, 60
2, 47427, Note_on_c, 0, 65, 60
2, 47437, Note_on_c, 0, 87, 0
2, 47437, Note_on_c, 0, 75, 0
2, 47437, Note_on_c, 0, 63, 0
2, 47439, Control_c, 0, 64, 0
2, 47481, Note_on_c, 0, 67, 60
2, 47493, Note_on_c, 0, 65, 0
2, 47493, Note_on_c, 0, 89, 0
2, 47493, Note_on_c, 0, 58, 60
2, 47493, Note_on_c, 0, 70, 60
2, 47493, Note_on_c, 0, 79, 60
2, 47493, Note_on_c, 0, 82, 60
2, 47493, Note_on_c, 0, 51, 60
2, 47495, Note_on_c, 0, 39, 60
2, 47499, Note_on_c, 0, 77, 0
2, 47553, Note_on_c, 0, 58, 0
2, 47576, Note_on_c, 0, 39, 0
2, 47576, Note_on_c, 0, 51, 0
2, 47576, Control_c, 0, 64, 127
2, 47581, Note_on_c, 0, 63, 60
2, 47581, Note_on_c, 0, 58, 60
2, 47583, Note_on_c, 0, 55, 60
2, 47620, Note_on_c, 0, 55, 0
2, 47620, Note_on_c, 0, 63, 0
2, 47620, Note_on_c, 0, 58, 0
2, 47645, Note_on_c, 0, 79, 0
2, 47645, Note_on_c, 0, 70, 0
2, 47645, Note_on_c, 0, 82, 0
2, 47645, Note_on_c, 0, 84, 60
2, 47653, Note_on_c, 0, 67, 0
2, 47653, Note_on_c, 0, 72, 60
2, 47653, Note_on_c, 0, 60, 60
2, 47706, Note_on_c, 0, 80, 60
2, 47709, Note_on_c, 0, 77, 60
2, 47709, Note_on_c, 0, 56, 60
2, 47715, Note_on_c, 0, 60, 0
2, 47715, Note_on_c, 0, 84, 0
2, 47715, Note_on_c, 0, 72, 0
2, 47715, Note_on_c, 0, 65, 60
2, 47715, Note_on_c, 0, 68, 60
2, 47715, Note_on_c, 0, 46, 60
2, 47718, Note_on_c, 0, 34, 60
2, 47776, Note_on_c, 0, 56, 0
2, 47799, Note_on_c, 0, 46, 0
2, 47799, Note_on_c, 0, 34, 0
2, 47810, Note_on_c, 0, 62, 60
2, 47820, Note_on_c, 0, 58, 60
2, 47820, Note_on_c, 0, 56, 60
2, 47822, Control_c, 0, 64, 0
2, 47834, Note_on_c, 0, 58, 0
2, 47851, Note_on_c, 0, 62, 0
2, 47853, Note_on_c, 0, 56, 0
2, 47864, Note_on_c, 0, 80, 0
2, 47871, Note_on_c, 0, 77, 0
2, 47871, Note_on_c, 0, 82, 60
2, 47871, Note_on_c, 0, 70, 60
2, 47874, Note_on_c, 0, 65, 0
2, 47874, Note_on_c, 0, 68, 0
2, 47874, Note_on_c, 0, 58, 60
2, 47895, Note_on_c, 0, 70, 0
2, 47927, Note_on_c, 0, 75, 60
2, 47934, Note_on_c, 0, 67, 60
2, 47934, Note_on_c, 0, 70, 60
2, 47934, Note_on_c, 0, 79, 60
2, 47934, Note_on_c, 0, 51, 60
2, 47936, Note_on_c, 0, 55, 60
2, 47936, Note_on_c, 0, 39, 60
2, 47951, Note_on_c, 0, 58, 0
2, 47951, Note_on_c, 0, 82, 0
2, 48018, Note_on_c, 0, 39, 0
2, 48018, Note_on_c, 0, 51, 0
2, 48034, Note_on_c, 0, 63, 60
2, 48041, Note_on_c, 0, 58, 60
2, 48072, Note_on_c, 0, 58, 0
2, 48072, Note_on_c, 0, 63, 0
2, 48080, Control_c, 0, 64, 127
2, 48147, Note_on_c, 0, 46, 60
2, 48162, Note_on_c, 0, 70, 0
2, 48201, Note_on_c, 0, 79, 0
2, 48208, Note_on_c, 0, 75, 0
2, 48208, Note_on_c, 0, 67, 0
2, 48208, Note_on_c, 0, 82, 60
2, 48211, Note_on_c, 0, 55, 0
2, 48220, Note_on_c, 0, 70, 60
2, 48220, Note_on_c, 0, 58, 60
2, 48234, Note_on_c, 0, 58, 0
2, 48236, Note_on_c, 0, 46, 0
2, 48255, Note_on_c, 0, 75, 60
2, 48262, Note_on_c, 0, 87, 60
2, 48262, Note_on_c, 0, 63, 60
2, 48266, Note_on_c, 0, 58, 60
2, 48266, Note_on_c, 0, 55, 60
2, 48273, Note_on_c, 0, 70, 0
2, 48280, Note_on_c, 0, 82, 0
2, 48296, Note_on_c, 0, 58, 0
2, 48299, Control_c, 0, 64, 0
2, 48304, Note_on_c, 0, 55, 0
2, 48309, Note_on_c, 0, 91, 60
2, 48320, Note_on_c, 0, 79, 60
2, 48320, Note_on_c, 0, 67, 60
2, 48329, Note_on_c, 0, 87, 0
2, 48329, Note_on_c, 0, 63, 0
2, 48329, Note_on_c, 0, 75, 0
2, 48366, Note_on_c, 0, 82, 60
2, 48366, Note_on_c, 0, 94, 60
2, 48366, Note_on_c, 0, 70, 60
2, 48371, Note_on_c, 0, 39, 60
2, 48373, Note_on_c, 0, 51, 60
2, 48384, Note_on_c, 0, 91, 0
2, 48384, Note_on_c, 0, 67, 0
2, 48384, Note_on_c, 0, 79, 0
2, 48432, Note_on_c, 0, 93, 60
2, 48433, Note_on_c, 0, 82, 0
2, 48433, Note_on_c, 0, 94, 0
2, 48438, Note_on_c, 0, 81, 60
2, 48441, Note_on_c, 0, 70, 0
2, 48441, Note_on_c, 0, 69, 60
2, 48464, Note_on_c, 0, 51, 0
2, 48464, Note_on_c, 0, 39, 0
2, 48492, Note_on_c, 0, 82, 60
2, 48492, Note_on_c, 0, 94, 60
2, 48492, Note_on_c, 0, 70, 60
2, 48497, Note_on_c, 0, 93, 0
2, 48504, Note_on_c, 0, 81, 0
2, 48504, Note_on_c, 0, 63, 60
2, 48504, Note_on_c, 0, 58, 60
2, 48505, Note_on_c, 0, 55, 60
2, 48510, Note_on_c, 0, 69, 0
2, 48536, Note_on_c, 0, 58, 0
2, 48536, Note_on_c, 0, 55, 0
2, 48538, Note_on_c, 0, 92, 60
2, 48541, Note_on_c, 0, 63, 0
2, 48548, Note_on_c, 0, 80, 60
2, 48548, Note_on_c, 0, 68, 60
2, 48557, Note_on_c, 0, 82, 0
2, 48557, Note_on_c, 0, 94, 0
2, 48566, Note_on_c, 0, 70, 0
2, 48599, Note_on_c, 0, 80, 0
2, 48605, Note_on_c, 0, 91, 60
2, 48608, Note_on_c, 0, 79, 60
2, 48613, Note_on_c, 0, 92, 0
2, 48613, Note_on_c, 0, 67, 60
2, 48615, Note_on_c, 0, 68, 0
2, 48615, Note_on_c, 0, 48, 60
2, 48654, Note_on_c, 0, 90, 60
2, 48664, Note_on_c, 0, 78, 60
2, 48666, Note_on_c, 0, 79, 0
2, 48666, Note_on_c, 0, 91, 0
2, 48666, Note_on_c, 0, 66, 60
2, 48673, Note_on_c, 0, 67, 0
2, 48706, Note_on_c, 0, 48, 0
2, 48720, Note_on_c, 0, 67, 60
2, 48720, Note_on_c, 0, 79, 60
2, 48720, Note_on_c, 0, 91, 60
2, 48720, Note_on_c, 0, 63, 60
2, 48722, Note_on_c, 0, 60, 60
2, 48722, Note_on_c, 0, 55, 60
2, 48724, Note_on_c, 0, 66, 0
2, 48724, Note_on_c, 0, 78, 0
2, 48726, Note_on_c, 0, 90, 0
2, 48759, Note_on_c, 0, 55, 0
2, 48759, Note_on_c, 0, 60, 0
2, 48775, Note_on_c, 0, 75, 60
2, 48780, Note_on_c, 0, 87, 60
2, 48782, Note_on_c, 0, 79, 0
2, 48782, Note_on_c, 0, 63, 0
2, 48782, Note_on_c, 0, 91, 0
2, 48792, Note_on_c, 0, 67, 0
2, 48839, Note_on_c, 0, 82, 60
2, 48839, Note_on_c, 0, 86, 60
2, 48839, Note_on_c, 0, 79, 60
2, 48840, Note_on_c, 0, 74, 60
2, 48840, Note_on_c, 0, 62, 60
2, 48842, Note_on_c, 0, 50, 60
2, 48845, Note_on_c, 0, 87, 0
2, 48847, Note_on_c, 0, 75, 0
2, 48847, Note_on_c, 0, 38, 60
2, 48908, Note_on_c, 0, 62, 0
2, 48931, Note_on_c, 0, 50, 0
2, 48931, Note_on_c, 0, 38, 0
2, 48945, Note_on_c, 0, 62, 60
2, 48945, Note_on_c, 0, 55, 60
2, 48952, Note_on_c, 0, 58, 60
2, 48984, Note_on_c, 0, 58, 0
2, 48994, Note_on_c, 0, 55, 0
2, 49008, Control_c, 0, 64, 127
2, 49055, Note_on_c, 0, 50, 60
2, 49063, Note_on_c, 0, 38, 60
2, 49105, Note_on_c, 0, 82, 0
2, 49105, Note_on_c, 0, 79, 0
2, 49105, Note_on_c, 0, 86, 0
2, 49105, Note_on_c, 0, 74, 0
2, 49105, Note_on_c, 0, 62, 0
2, 49105, Note_on_c, 0, 72, 60
2, 49105, Note_on_c, 0, 84, 60
2, 49105, Note_on_c, 0, 96, 60
2, 49138, Note_on_c, 0, 38, 0
2, 49138, Note_on_c, 0, 50, 0
2, 49156, Note_on_c, 0, 94, 60
2, 49166, Note_on_c, 0, 96, 0
2, 49166, Note_on_c, 0, 70, 60
2, 49166, Note_on_c, 0, 62, 60
2, 49168, Note_on_c, 0, 60, 60
2, 49168, Note_on_c, 0, 82, 60
2, 49168, Note_on_c, 0, 54, 60
2, 49173, Note_on_c, 0, 84, 0
2, 49173, Note_on_c, 0, 72, 0
2, 49203, Note_on_c, 0, 54, 0
2, 49203, Note_on_c, 0, 62, 0
2, 49203, Note_on_c, 0, 60, 0
2, 49217, Note_on_c, 0, 81, 60
2, 49217, Note_on_c, 0, 93, 60
2, 49217, Note_on_c, 0, 69, 60
2, 49220, Note_on_c, 0, 94, 0
2, 49226, Note_on_c, 0, 82, 0
2, 49226, Note_on_c, 0, 70, 0
2, 49261, Note_on_c, 0, 91, 60
2, 49264, Note_on_c, 0, 58, 60
2, 49264, Note_on_c, 0, 62, 60
2, 49264, Note_on_c, 0, 67, 60
2, 49264, Note_on_c, 0, 70, 60
2, 49264, Note_on_c, 0, 79, 60
2, 49264, Note_on_c, 0, 55, 60
2, 49272, Note_on_c, 0, 69, 0
2, 49272, Note_on_c, 0, 93, 0
2, 49272, Note_on_c, 0, 74, 60
2, 49272, Control_c, 0, 64, 0
2, 49280, Note_on_c, 0, 81, 0
2, 49401, Note_on_c, 0, 79, 0
2, 49401, Note_on_c, 0, 91, 0
2, 49401, Note_on_c, 0, 74, 0
2, 49401, Note_on_c, 0, 70, 0
2, 49403, Note_on_c, 0, 55, 0
2, 49403, Note_on_c, 0, 67, 0
2, 49403, Note_on_c, 0, 58, 0
2, 49403, Note_on_c, 0, 62, 0
2, 49454, Control_c, 0, 64, 127
2, 49487, Note_on_c, 0, 83, 60
2, 49487, Note_on_c, 0, 86, 60
2, 49487, Note_on_c, 0, 91, 60
2, 49487, Note_on_c, 0, 103, 60
2, 49487, Note_on_c, 0, 79, 60
2, 49489, Note_on_c, 0, 43, 60
2, 49489, Note_on_c, 0, 50, 60
2, 49489, Note_on_c, 0, 55, 60
2, 49489, Note_on_c, 0, 59, 60
2, 49489, Note_on_c, 0, 62, 60
2, 49489, Note_on_c, 0, 67, 60
2, 49489, Note_on_c, 0, 71, 60
2, 49489, Note_on_c, 0, 31, 60
2, 49496, Note_on_c, 0, 74, 60
2, 49547, Note_on_c, 0, 79, 0
2, 49547, Note_on_c, 0, 103, 0
2, 49547, Note_on_c, 0, 91, 0
2, 49547, Note_on_c, 0, 86, 0
2, 49550, Note_on_c, 0, 59, 0
2, 49550, Note_on_c, 0, 62, 0
2, 49550, Note_on_c, 0, 83, 0
2, 49550, Note_on_c, 0, 55, 0
2, 49550, Note_on_c, 0, 74, 0
2, 49550, Note_on_c, 0, 71, 0
2, 49550, Note_on_c, 0, 50, 0
2, 49550, Note_on_c, 0, 43, 0
2, 49557, Note_on_c, 0, 67, 0
2, 49559, Note_on_c, 0, 31, 0
2, 49589, Control_c, 0, 64, 0
2, 49719, Note_on_c, 0, 48, 60
2, 49777, Note_on_c, 0, 87, 60
2, 49786, Note_on_c, 0, 75, 60
2, 49812, Note_on_c, 0, 48, 0
2, 49840, Note_on_c, 0, 84, 60
2, 49843, Note_on_c, 0, 87, 0
2, 49843, Note_on_c, 0, 60, 60
2, 49843, Note_on_c, 0, 63, 60
2, 49843, Note_on_c, 0, 72, 60
2, 49843, Note_on_c, 0, 55, 60
2, 49849, Note_on_c, 0, 75, 0
2, 49866, Note_on_c, 0, 72, 0
2, 49866, Note_on_c, 0, 84, 0
2, 49882, Note_on_c, 0, 63, 0
2, 49882, Note_on_c, 0, 55, 0
2, 49882, Note_on_c, 0, 60, 0
2, 49903, Note_on_c, 0, 84, 60
2, 49912, Note_on_c, 0, 75, 60
2, 49912, Note_on_c, 0, 79, 60
2, 49912, Note_on_c, 0, 72, 60
2, 49959, Note_on_c, 0, 43, 60
2, 50008, Note_on_c, 0, 82, 60
2, 50010, Note_on_c, 0, 79, 0
2, 50010, Note_on_c, 0, 75, 0
2, 50010, Note_on_c, 0, 70, 60
2, 50016, Note_on_c, 0, 72, 0
2, 50016, Note_on_c, 0, 84, 0
2, 50042, Note_on_c, 0, 43, 0
2, 50056, Note_on_c, 0, 79, 60
2, 50056, Note_on_c, 0, 60, 60
2, 50064, Note_on_c, 0, 67, 60
2, 50064, Note_on_c, 0, 63, 60
2, 50065, Note_on_c, 0, 55, 60
2, 50072, Note_on_c, 0, 82, 0
2, 50080, Note_on_c, 0, 70, 0
2, 50103, Note_on_c, 0, 63, 0
2, 50103, Note_on_c, 0, 60, 0
2, 50103, Note_on_c, 0, 55, 0
2, 50116, Note_on_c, 0, 75, 60
2, 50116, Note_on_c, 0, 72, 60
2, 50170, Note_on_c, 0, 48, 60
2, 50184, Note_on_c, 0, 72, 0
2, 50184, Note_on_c, 0, 75, 0
2, 50184, Note_on_c, 0, 79, 0
2, 50191, Note_on_c, 0, 67, 0
2, 50229, Note_on_c, 0, 87, 60
2, 50231, Note_on_c, 0, 75, 60
2, 50265, Note_on_c, 0, 48, 0
2, 50277, Note_on_c, 0, 84, 60
2, 50280, Note_on_c, 0, 63, 60
2, 50280, Note_on_c, 0, 72, 60
2, 50280, Note_on_c, 0, 60, 60
2, 50288, Note_on_c, 0, 55, 60
2, 50296, Note_on_c, 0, 75, 0
2, 50296, Note_on_c, 0, 87, 0
2, 50303, Note_on_c, 0, 72, 0
2, 50309, Note_on_c, 0, 84, 0
2, 50317, Note_on_c, 0, 63, 0
2, 50317, Note_on_c, 0, 60, 0
2, 50326, Note_on_c, 0, 55, 0
2, 50330, Note_on_c, 0, 72, 60
2, 50340, Note_on_c, 0, 79, 60
2, 50340, Note_on_c, 0, 84, 60
2, 50340, Note_on_c, 0, 75, 60
2, 50396, Note_on_c, 0, 43, 60
2, 50445, Note_on_c, 0, 70, 60
2, 50447, Note_on_c, 0, 75, 0
2, 50447, Note_on_c, 0, 79, 0
2, 50447, Note_on_c, 0, 72, 0
2, 50449, Note_on_c, 0, 82, 60
2, 50453, Note_on_c, 0, 84, 0
2, 50486, Note_on_c, 0, 43, 0
2, 50500, Note_on_c, 0, 63, 60
2, 50500, Note_on_c, 0, 67, 60
2, 50500, Note_on_c, 0, 79, 60
2, 50500, Note_on_c, 0, 60, 60
2, 50502, Note_on_c, 0, 55, 60
2, 50514, Note_on_c, 0, 70, 0
2, 50514, Note_on_c, 0, 82, 0
2, 50540, Note_on_c, 0, 63, 0
2, 50540, Note_on_c, 0, 60, 0
2, 50540, Note_on_c, 0, 55, 0
2, 50561, Note_on_c, 0, 75, 60
2, 50568, Note_on_c, 0, 72, 60
2, 50616, Note_on_c, 0, 41, 60
2, 50630, Note_on_c, 0, 79, 0
2, 50638, Note_on_c, 0, 67, 0
2, 50654, Note_on_c, 0, 72, 0
2, 50654, Note_on_c, 0, 75, 0
2, 50677, Note_on_c, 0, 79, 60
2, 50677, Note_on_c, 0, 67, 60
2, 50710, Note_on_c, 0, 41, 0
2, 50733, Note_on_c, 0, 79, 0
2, 50733, Note_on_c, 0, 65, 60
2, 50735, Note_on_c, 0, 60, 60
2, 50735, Note_on_c, 0, 56, 60
2, 50739, Note_on_c, 0, 67, 0
2, 50749, Note_on_c, 0, 65, 0
2, 50762, Note_on_c, 0, 60, 0
2, 50762, Note_on_c, 0, 56, 0
2, 50788, Note_on_c, 0, 72, 60
2, 50788, Note_on_c, 0, 77, 60
2, 50788, Note_on_c, 0, 68, 60
2, 50793, Note_on_c, 0, 65, 60
2, 50849, Note_on_c, 0, 44, 60
2, 50893, Note_on_c, 0, 68, 0
2, 50893, Note_on_c, 0, 75, 60
2, 50895, Note_on_c, 0, 77, 0
2, 50903, Note_on_c, 0, 65, 0
2, 50903, Note_on_c, 0, 72, 0
2, 50928, Note_on_c, 0, 44, 0
2, 50947, Note_on_c, 0, 72, 60
2, 50949, Note_on_c, 0, 60, 60
2, 50949, Note_on_c, 0, 56, 60
2, 50955, Note_on_c, 0, 53, 60
2, 50981, Note_on_c, 0, 75, 0
2, 50991, Note_on_c, 0, 53, 0
2, 51002, Note_on_c, 0, 65, 60
2, 51004, Note_on_c, 0, 68, 60
2, 51063, Note_on_c, 0, 41, 60
2, 51070, Note_on_c, 0, 68, 0
2, 51070, Note_on_c, 0, 65, 0
2, 51076, Note_on_c, 0, 72, 0
2, 51076, Note_on_c, 0, 56, 0
2, 51076, Note_on_c, 0, 60, 0
2, 51123, Note_on_c, 0, 79, 60
2, 51123, Note_on_c, 0, 67, 60
2, 51156, Note_on_c, 0, 41, 0
2, 51179, Note_on_c, 0, 60, 60
2, 51179, Note_on_c, 0, 65, 60
2, 51179, Note_on_c, 0, 56, 60
2, 51186, Note_on_c, 0, 67, 0
2, 51186, Note_on_c, 0, 79, 0
2, 51202, Note_on_c, 0, 65, 0
2, 51216, Note_on_c, 0, 60, 0
2, 51218, Note_on_c, 0, 56, 0
2, 51241, Note_on_c, 0, 77, 60
2, 51241, Note_on_c, 0, 72, 60
2, 51248, Note_on_c, 0, 68, 60
2, 51248, Note_on_c, 0, 65, 60
2, 51307, Note_on_c, 0, 44, 60
2, 51351, Note_on_c, 0, 75, 60
2, 51358, Note_on_c, 0, 65, 0
2, 51358, Note_on_c, 0, 68, 0
2, 51358, Note_on_c, 0, 77, 0
2, 51358, Note_on_c, 0, 72, 0
2, 51358, Note_on_c, 0, 63, 60
2, 51390, Note_on_c, 0, 44, 0
2, 51405, Note_on_c, 0, 72, 60
2, 51405, Note_on_c, 0, 60, 60
2, 51407, Note_on_c, 0, 56, 60
2, 51407, Note_on_c, 0, 53, 60
2, 51423, Note_on_c, 0, 63, 0
2, 51423, Note_on_c, 0, 75, 0
2, 51449, Note_on_c, 0, 53, 0
2, 51477, Note_on_c, 0, 65, 60
2, 51479, Note_on_c, 0, 68, 60
2, 51509, Note_on_c, 0, 68, 0
2, 51516, Note_on_c, 0, 65, 0
2, 51518, Note_on_c, 0, 60, 0
2, 51518, Note_on_c, 0, 56, 0
2, 51523, Note_on_c, 0, 72, 0
2, 51523, Note_on_c, 0, 74, 60
2, 51523, Note_on_c, 0, 53, 60
2, 51526, Note_on_c, 0, 41, 60
2, 51574, Note_on_c, 0, 84, 60
2, 51574, Note_on_c, 0, 72, 60
2, 51576, Note_on_c, 0, 68, 60
2, 51576, Control_c, 0, 64, 127
2, 51583, Note_on_c, 0, 74, 0
2, 51606, Note_on_c, 0, 53, 0
2, 51606, Note_on_c, 0, 41, 0
2, 51627, Note_on_c, 0, 58, 60
2, 51627, Note_on_c, 0, 62, 60
2, 51627, Note_on_c, 0, 56, 60
2, 51644, Note_on_c, 0, 62, 0
2, 51658, Note_on_c, 0, 58, 0
2, 51665, Note_on_c, 0, 56, 0
2, 51672, Note_on_c, 0, 74, 60
2, 51672, Note_on_c, 0, 62, 60
2, 51686, Note_on_c, 0, 72, 0
2, 51686, Note_on_c, 0, 84, 0
2, 51688, Note_on_c, 0, 68, 0
2, 51737, Note_on_c, 0, 62, 0
2, 51737, Note_on_c, 0, 74, 0
2, 51737, Note_on_c, 0, 68, 60
2, 51744, Note_on_c, 0, 70, 60
2, 51746, Note_on_c, 0, 82, 60
2, 51746, Note_on_c, 0, 46, 60
2, 51830, Note_on_c, 0, 46, 0
2, 51858, Note_on_c, 0, 74, 60
2, 51860, Note_on_c, 0, 58, 60
2, 51860, Note_on_c, 0, 62, 60
2, 51860, Note_on_c, 0, 56, 60
2, 51874, Note_on_c, 0, 82, 0
2, 51881, Note_on_c, 0, 68, 0
2, 51881, Note_on_c, 0, 70, 0
2, 51888, Note_on_c, 0, 58, 0
2, 51890, Note_on_c, 0, 56, 0
2, 51913, Note_on_c, 0, 74, 0
2, 51913, Note_on_c, 0, 72, 60
2, 51913, Note_on_c, 0, 84, 60
2, 51913, Note_on_c, 0, 68, 60
2, 51923, Note_on_c, 0, 62, 0
2, 51923, Control_c, 0, 64, 0
2, 51969, Note_on_c, 0, 53, 60
2, 51969, Note_on_c, 0, 41, 60
2, 52023, Note_on_c, 0, 74, 60
2, 52023, Note_on_c, 0, 62, 60
2, 52032, Note_on_c, 0, 72, 0
2, 52032, Note_on_c, 0, 68, 0
2, 52032, Note_on_c, 0, 84, 0
2, 52046, Note_on_c, 0, 62, 0
2, 52056, Note_on_c, 0, 53, 0
2, 52056, Note_on_c, 0, 41, 0
2, 52085, Note_on_c, 0, 74, 0
2, 52085, Note_on_c, 0, 58, 60
2, 52085, Note_on_c, 0, 62, 60
2, 52085, Note_on_c, 0, 68, 60
2, 52085, Note_on_c, 0, 70, 60
2, 52085, Note_on_c, 0, 82, 60
2, 52085, Note_on_c, 0, 56, 60
2, 52088, Control_c, 0, 64, 127
2, 52144, Note_on_c, 0, 56, 0
2, 52144, Note_on_c, 0, 62, 0
2, 52144, Note_on_c, 0, 58, 0
2, 52144, Note_on_c, 0, 68, 0
2, 52190, Note_on_c, 0, 84, 60
2, 52193, Note_on_c, 0, 82, 0
2, 52200, Note_on_c, 0, 70, 0
2, 52200, Note_on_c, 0, 62, 60
2, 52200, Note_on_c, 0, 68, 60
2, 52200, Note_on_c, 0, 72, 60
2, 52200, Note_on_c, 0, 57, 60
2, 52201, Note_on_c, 0, 46, 60
2, 52260, Note_on_c, 0, 57, 0
2, 52260, Note_on_c, 0, 72, 0
2, 52260, Note_on_c, 0, 68, 0
2, 52260, Note_on_c, 0, 84, 0
2, 52260, Note_on_c, 0, 62, 0
2, 52288, Note_on_c, 0, 46, 0
2, 52306, Note_on_c, 0, 62, 60
2, 52306, Note_on_c, 0, 68, 60
2, 52306, Note_on_c, 0, 82, 60
2, 52306, Note_on_c, 0, 58, 60
2, 52309, Note_on_c, 0, 70, 60
2, 52309, Note_on_c, 0, 56, 60
2, 52369, Note_on_c, 0, 56, 0
2, 52369, Note_on_c, 0, 68, 0
2, 52369, Note_on_c, 0, 82, 0
2, 52369, Note_on_c, 0, 62, 0
2, 52369, Note_on_c, 0, 70, 0
2, 52369, Note_on_c, 0, 58, 0
2, 52386, Control_c, 0, 64, 0
2, 52416, Note_on_c, 0, 67, 60
2, 52416, Note_on_c, 0, 70, 60
2, 52416, Note_on_c, 0, 75, 60
2, 52416, Note_on_c, 0, 63, 60
2, 52417, Note_on_c, 0, 55, 60
2, 52417, Note_on_c, 0, 58, 60
2, 52417, Note_on_c, 0, 51, 60
2, 52420, Note_on_c, 0, 39, 60
2, 52455, Note_on_c, 0, 51, 0
2, 52455, Note_on_c, 0, 58, 0
2, 52455, Note_on_c, 0, 55, 0
2, 52478, Note_on_c, 0, 39, 0
2, 52520, Note_on_c, 0, 58, 60
2, 52522, Note_on_c, 0, 46, 60
2, 52583, Note_on_c, 0, 58, 0
2, 52585, Note_on_c, 0, 46, 0
2, 52613, Note_on_c, 0, 60, 60
2, 52620, Note_on_c, 0, 48, 60
2, 52638, Note_on_c, 0, 63, 0
2, 52638, Note_on_c, 0, 75, 0
2, 52682, Note_on_c, 0, 60, 0
2, 52682, Note_on_c, 0, 63, 60
2, 52682, Note_on_c, 0, 75, 60
2, 52685, Note_on_c, 0, 48, 0
2, 52692, Note_on_c, 0, 67, 0
2, 52692, Note_on_c, 0, 70, 0
2, 52731, Note_on_c, 0, 67, 60
2, 52734, Note_on_c, 0, 58, 60
2, 52741, Note_on_c, 0, 79, 60
2, 52741, Note_on_c, 0, 46, 60
2, 52748, Note_on_c, 0, 63, 0
2, 52748, Note_on_c, 0, 75, 0
2, 52795, Note_on_c, 0, 79, 0
2, 52795, Note_on_c, 0, 58, 0
2, 52801, Note_on_c, 0, 82, 60
2, 52801, Note_on_c, 0, 70, 60
2, 52803, Note_on_c, 0, 46, 0
2, 52803, Note_on_c, 0, 67, 0
2, 52848, Note_on_c, 0, 87, 60
2, 52850, Note_on_c, 0, 63, 60
2, 52850, Note_on_c, 0, 75, 60
2, 52850, Note_on_c, 0, 51, 60
2, 52859, Note_on_c, 0, 39, 60
2, 52867, Note_on_c, 0, 82, 0
2, 52867, Note_on_c, 0, 70, 0
2, 52988, Note_on_c, 0, 87, 0
2, 52990, Note_on_c, 0, 75, 0
2, 52990, Note_on_c, 0, 63, 0
2, 52990, Note_on_c, 0, 51, 0
2, 52990, Note_on_c, 0, 39, 0
2, 53060, Control_c, 0, 64, 127
2, 53080, Note_on_c, 0, 99, 60
2, 53083, Note_on_c, 0, 67, 60
2, 53083, Note_on_c, 0, 70, 60
2, 53083, Note_on_c, 0, 75, 60
2, 53083, Note_on_c, 0, 79, 60
2, 53083, Note_on_c, 0, 82, 60
2, 53083, Note_on_c, 0, 87, 60
2, 53083, Note_on_c, 0, 91, 60
2, 53083, Note_on_c, 0, 63, 60
2, 53085, Note_on_c, 0, 39, 60
2, 53085, Note_on_c, 0, 51, 60
2, 53085, Note_on_c, 0, 55, 60
2, 53085, Note_on_c, 0, 58, 60
2, 53085, Note_on_c, 0, 27, 60
2, 53132, Note_on_c, 0, 79, 0
2, 53132, Note_on_c, 0, 99, 0
2, 53140, Note_on_c, 0, 87, 0
2, 53140, Note_on_c, 0, 70, 0
2, 53140, Note_on_c, 0, 75, 0
2, 53140, Note_on_c, 0, 63, 0
2, 53140, Note_on_c, 0, 67, 0
2, 53140, Note_on_c, 0, 91, 0
2, 53140, Note_on_c, 0, 82, 0
2, 53140, Note_on_c, 0, 55, 0
2, 53140, Note_on_c, 0, 51, 0
2, 53140, Note_on_c, 0, 58, 0
2, 53143, Note_on_c, 0, 39, 0
2, 53143, Note_on_c, 0, 27, 0
2, 53166, Control_c, 0, 64, 0
2, 53297, Note_on_c, 0, 70, 60
2, 53299, Note_on_c, 0, 58, 60
2, 53304, Note_on_c, 0, 46, 60
2, 53359, Note_on_c, 0, 72, 60
2, 53361, Note_on_c, 0, 60, 60
2, 53361, Note_on_c, 0, 48, 60
2, 53369, Note_on_c, 0, 58, 0
2, 53369, Note_on_c, 0, 70, 0
2, 53371, Note_on_c, 0, 46, 0
2, 53410, Note_on_c, 0, 74, 60
2, 53413, Note_on_c, 0, 62, 60
2, 53420, Note_on_c, 0, 72, 0
2, 53420, Note_on_c, 0, 60, 0
2, 53424, Note_on_c, 0, 48, 0
2, 53424, Note_on_c, 0, 50, 60
2, 53473, Note_on_c, 0, 65, 60
2, 53473, Note_on_c, 0, 77, 60
2, 53473, Note_on_c, 0, 53, 60
2, 53482, Note_on_c, 0, 50, 0
2, 53482, Note_on_c, 0, 74, 0
2, 53482, Note_on_c, 0, 62, 0
2, 53526, Note_on_c, 0, 70, 60
2, 53536, Note_on_c, 0, 65, 0
2, 53536, Note_on_c, 0, 53, 0
2, 53536, Note_on_c, 0, 77, 0
2, 53536, Note_on_c, 0, 58, 60
2, 53541, Note_on_c, 0, 46, 60
2, 53590, Note_on_c, 0, 58, 0
2, 53598, Note_on_c, 0, 70, 0
2, 53601, Note_on_c, 0, 46, 0
2, 53755, Note_on_c, 0, 82, 60
2, 53755, Note_on_c, 0, 70, 60
2, 53761, Note_on_c, 0, 58, 60
2, 53766, Control_c, 0, 64, 127
2, 53815, Note_on_c, 0, 72, 60
2, 53815, Note_on_c, 0, 84, 60
2, 53815, Note_on_c, 0, 60, 60
2, 53824, Note_on_c, 0, 58, 0
2, 53824, Note_on_c, 0, 82, 0
2, 53824, Note_on_c, 0, 70, 0
2, 53868, Note_on_c, 0, 86, 60
2, 53868, Note_on_c, 0, 74, 60
2, 53871, Note_on_c, 0, 62, 60
2, 53878, Note_on_c, 0, 72, 0
2, 53878, Note_on_c, 0, 60, 0
2, 53878, Note_on_c, 0, 84, 0
2, 53917, Note_on_c, 0, 89, 60
2, 53920, Note_on_c, 0, 77, 60
2, 53920, Note_on_c, 0, 65, 60
2, 53928, Note_on_c, 0, 86, 0
2, 53928, Note_on_c, 0, 62, 0
2, 53928, Note_on_c, 0, 74, 0
2, 53968, Control_c, 0, 64, 0
2, 53982, Note_on_c, 0, 89, 0
2, 53982, Note_on_c, 0, 77, 0
2, 53982, Note_on_c, 0, 70, 60
2, 53982, Note_on_c, 0, 82, 60
2, 53982, Note_on_c, 0, 58, 60
2, 53989, Note_on_c, 0, 65, 0
2, 54045, Note_on_c, 0, 70, 0
2, 54045, Note_on_c, 0, 82, 0
2, 54045, Note_on_c, 0, 58, 0
2, 54203, Note_on_c, 0, 82, 60
2, 54205, Note_on_c, 0, 55, 60
2, 54205, Note_on_c, 0, 70, 60
2, 54205, Note_on_c, 0, 43, 60
2, 54265, Note_on_c, 0, 55, 0
2, 54265, Note_on_c, 0, 82, 0
2, 54265, Note_on_c, 0, 57, 60
2, 54265, Note_on_c, 0, 72, 60
2, 54265, Note_on_c, 0, 84, 60
2, 54268, Note_on_c, 0, 43, 0
2, 54273, Note_on_c, 0, 70, 0
2, 54273, Note_on_c, 0, 45, 60
2, 54319, Note_on_c, 0, 86, 60
2, 54319, Note_on_c, 0, 74, 60
2, 54321, Note_on_c, 0, 45, 0
2, 54321, Note_on_c, 0, 57, 0
2, 54321, Note_on_c, 0, 46, 60
2, 54321, Note_on_c, 0, 58, 60
2, 54321, Control_c, 0, 64, 127
2, 54329, Note_on_c, 0, 84, 0
2, 54336, Note_on_c, 0, 72, 0
2, 54429, Note_on_c, 0, 75, 60
2, 54429, Note_on_c, 0, 70, 60
2, 54431, Note_on_c, 0, 86, 0
2, 54431, Note_on_c, 0, 46, 0
2, 54431, Note_on_c, 0, 74, 0
2, 54431, Note_on_c, 0, 58, 0
2, 54431, Note_on_c, 0, 60, 60
2, 54435, Note_on_c, 0, 87, 60
2, 54438, Note_on_c, 0, 79, 60
2, 54438, Note_on_c, 0, 82, 60
2, 54438, Note_on_c, 0, 67, 60
2, 54440, Note_on_c, 0, 48, 60
2, 54440, Control_c, 0, 64, 0
2, 54524, Note_on_c, 0, 48, 0
2, 54524, Note_on_c, 0, 60, 0
2, 54538, Note_on_c, 0, 61, 60
2, 54545, Note_on_c, 0, 49, 60
2, 54628, Note_on_c, 0, 61, 0
2, 54630, Note_on_c, 0, 49, 0
2, 54649, Note_on_c, 0, 81, 60
2, 54649, Note_on_c, 0, 86, 60
2, 54649, Note_on_c, 0, 74, 60
2, 54651, Note_on_c, 0, 82, 0
2, 54651, Note_on_c, 0, 79, 0
2, 54651, Note_on_c, 0, 66, 60
2, 54651, Note_on_c, 0, 69, 60
2, 54651, Note_on_c, 0, 78, 60
2, 54651, Note_on_c, 0, 62, 60
2, 54654, Note_on_c, 0, 50, 60
2, 54659, Note_on_c, 0, 75, 0
2, 54659, Note_on_c, 0, 67, 0
2, 54659, Note_on_c, 0, 87, 0
2, 54659, Note_on_c, 0, 70, 0
2, 54712, Note_on_c, 0, 86, 0
2, 54712, Note_on_c, 0, 74, 0
2, 54712, Note_on_c, 0, 81, 0
2, 54715, Note_on_c, 0, 78, 0
2, 54715, Note_on_c, 0, 50, 0
2, 54715, Note_on_c, 0, 62, 0
2, 54715, Note_on_c, 0, 66, 0
2, 54715, Note_on_c, 0, 69, 0
2, 54844, Control_c, 0, 64, 127
2, 54882, Note_on_c, 0, 57, 60
2, 54882, Note_on_c, 0, 60, 60
2, 54882, Note_on_c, 0, 63, 60
2, 54882, Note_on_c, 0, 65, 60
2, 54882, Note_on_c, 0, 69, 60
2, 54882, Note_on_c, 0, 75, 60
2, 54882, Note_on_c, 0, 77, 60
2, 54882, Note_on_c, 0, 81, 60
2, 54882, Note_on_c, 0, 87, 60
2, 54882, Note_on_c, 0, 89, 60
2, 54882, Note_on_c, 0, 53, 60
2, 54884, Note_on_c, 0, 48, 60
2, 54887, Note_on_c, 0, 101, 60
2, 54891, Note_on_c, 0, 36, 60
2, 54931, Note_on_c, 0, 101, 0
2, 54940, Note_on_c, 0, 69, 0
2, 54940, Note_on_c, 0, 75, 0
2, 54940, Note_on_c, 0, 60, 0
2, 54940, Note_on_c, 0, 81, 0
2, 54940, Note_on_c, 0, 63, 0
2, 54940, Note_on_c, 0, 65, 0
2, 54940, Note_on_c, 0, 57, 0
2, 54940, Note_on_c, 0, 48, 0
2, 54940, Note_on_c, 0, 53, 0
2, 54940, Note_on_c, 0, 87, 0
2, 54940, Note_on_c, 0, 77, 0
2, 54940, Note_on_c, 0, 36, 0
2, 54940, Note_on_c, 0, 89, 0
2, 54947, Control_c, 0, 64, 0
2, 54988, Note_on_c, 0, 53, 60
2, 54988, Note_on_c, 0, 41, 60
2, 55054, Note_on_c, 0, 53, 0
2, 55075, Note_on_c, 0, 41, 0
2, 55107, Note_on_c, 0, 77, 60
2, 55107, Note_on_c, 0, 70, 60
2, 55114, Note_on_c, 0, 89, 60
2, 55114, Note_on_c, 0, 74, 60
2, 55117, Note_on_c, 0, 65, 60
2, 55117, Note_on_c, 0, 46, 60
2, 55209, Note_on_c, 0, 46, 0
2, 55214, Note_on_c, 0, 62, 60
2, 55224, Note_on_c, 0, 58, 60
2, 55224, Note_on_c, 0, 53, 60
2, 55251, Note_on_c, 0, 58, 0
2, 55251, Note_on_c, 0, 62, 0
2, 55263, Note_on_c, 0, 53, 0
2, 55307, Note_on_c, 0, 65, 0
2, 55330, Note_on_c, 0, 41, 60
2, 55344, Note_on_c, 0, 77, 0
2, 55391, Note_on_c, 0, 70, 0
2, 55391, Note_on_c, 0, 77, 60
2, 55400, Note_on_c, 0, 65, 60
2, 55416, Note_on_c, 0, 41, 0
2, 55438, Note_on_c, 0, 62, 60
2, 55438, Note_on_c, 0, 70, 60
2, 55438, Note_on_c, 0, 82, 60
2, 55438, Note_on_c, 0, 58, 60
2, 55440, Note_on_c, 0, 74, 0
2, 55446, Note_on_c, 0, 53, 60
2, 55454, Note_on_c, 0, 65, 0
2, 55454, Note_on_c, 0, 77, 0
2, 55461, Note_on_c, 0, 89, 0
2, 55474, Note_on_c, 0, 58, 0
2, 55474, Note_on_c, 0, 62, 0
2, 55474, Note_on_c, 0, 53, 0
2, 55493, Note_on_c, 0, 86, 60
2, 55500, Note_on_c, 0, 82, 0
2, 55500, Note_on_c, 0, 70, 0
2, 55500, Note_on_c, 0, 74, 60
2, 55526, Control_c, 0, 64, 127
2, 55544, Note_on_c, 0, 91, 60
2, 55544, Note_on_c, 0, 73, 60
2, 55546, Note_on_c, 0, 67, 60
2, 55546, Note_on_c, 0, 70, 60
2, 55546, Note_on_c, 0, 79, 60
2, 55546, Note_on_c, 0, 46, 60
2, 55554, Note_on_c, 0, 74, 0
2, 55560, Note_on_c, 0, 86, 0
2, 55637, Note_on_c, 0, 46, 0
2, 55654, Note_on_c, 0, 61, 60
2, 55654, Note_on_c, 0, 58, 60
2, 55658, Note_on_c, 0, 55, 60
2, 55658, Note_on_c, 0, 52, 60
2, 55695, Note_on_c, 0, 52, 0
2, 55695, Note_on_c, 0, 55, 0
2, 55695, Note_on_c, 0, 58, 0
2, 55695, Note_on_c, 0, 61, 0
2, 55732, Note_on_c, 0, 70, 0
2, 55763, Note_on_c, 0, 79, 0
2, 55763, Note_on_c, 0, 91, 0
2, 55763, Note_on_c, 0, 70, 60
2, 55763, Note_on_c, 0, 74, 60
2, 55763, Note_on_c, 0, 77, 60
2, 55763, Note_on_c, 0, 89, 60
2, 55763, Note_on_c, 0, 65, 60
2, 55765, Note_on_c, 0, 46, 60
2, 55772, Note_on_c, 0, 73, 0
2, 55772, Note_on_c, 0, 67, 0
2, 55858, Note_on_c, 0, 46, 0
2, 55868, Control_c, 0, 64, 0
2, 55872, Note_on_c, 0, 58, 60
2, 55872, Note_on_c, 0, 62, 60
2, 55872, Note_on_c, 0, 53, 60
2, 55909, Note_on_c, 0, 53, 0
2, 55909, Note_on_c, 0, 62, 0
2, 55909, Note_on_c, 0, 58, 0
2, 55956, Note_on_c, 0, 77, 0
2, 55956, Note_on_c, 0, 74, 0
2, 55979, Note_on_c, 0, 89, 0
2, 55981, Note_on_c, 0, 70, 0
2, 55981, Note_on_c, 0, 65, 0
2, 55992, Note_on_c, 0, 98, 60
2, 56000, Note_on_c, 0, 77, 60
2, 56000, Note_on_c, 0, 82, 60
2, 56000, Note_on_c, 0, 86, 60
2, 56000, Note_on_c, 0, 74, 60
2, 56002, Note_on_c, 0, 46, 60
2, 56028, Control_c, 0, 64, 127
2, 56088, Note_on_c, 0, 46, 0
2, 56097, Note_on_c, 0, 62, 60
2, 56100, Note_on_c, 0, 58, 60
2, 56109, Note_on_c, 0, 53, 60
2, 56136, Note_on_c, 0, 62, 0
2, 56146, Note_on_c, 0, 53, 0
2, 56146, Note_on_c, 0, 58, 0
2, 56200, Note_on_c, 0, 53, 60
2, 56207, Note_on_c, 0, 41, 60
2, 56221, Note_on_c, 0, 77, 0
2, 56262, Note_on_c, 0, 89, 60
2, 56265, Note_on_c, 0, 86, 0
2, 56265, Note_on_c, 0, 77, 60
2, 56274, Note_on_c, 0, 74, 0
2, 56274, Note_on_c, 0, 82, 0
2, 56288, Note_on_c, 0, 98, 0
2, 56288, Note_on_c, 0, 53, 0
2, 56290, Note_on_c, 0, 41, 0
2, 56318, Note_on_c, 0, 94, 60
2, 56318, Note_on_c, 0, 82, 60
2, 56321, Note_on_c, 0, 62, 60
2, 56321, Note_on_c, 0, 58, 60
2, 56328, Note_on_c, 0, 77, 0
2, 56328, Note_on_c, 0, 89, 0
2, 56328, Note_on_c, 0, 53, 60
2, 56358, Note_on_c, 0, 53, 0
2, 56358, Note_on_c, 0, 62, 0
2, 56358, Note_on_c, 0, 58, 0
2, 56372, Note_on_c, 0, 98, 60
2, 56381, Note_on_c, 0, 94, 0
2, 56381, Note_on_c, 0, 86, 60
2, 56383, Note_on_c, 0, 82, 0
2, 56398, Control_c, 0, 64, 0
2, 56427, Note_on_c, 0, 87, 60
2, 56427, Note_on_c, 0, 99, 60
2, 56427, Note_on_c, 0, 75, 60
2, 56430, Note_on_c, 0, 54, 60
2, 56430, Note_on_c, 0, 81, 60
2, 56430, Note_on_c, 0, 42, 60
2, 56439, Note_on_c, 0, 86, 0
2, 56439, Note_on_c, 0, 98, 0
2, 56522, Note_on_c, 0, 42, 0
2, 56522, Note_on_c, 0, 54, 0
2, 56537, Note_on_c, 0, 63, 60
2, 56537, Note_on_c, 0, 57, 60
2, 56576, Note_on_c, 0, 63, 0
2, 56579, Note_on_c, 0, 57, 0
2, 56646, Note_on_c, 0, 87, 0
2, 56651, Note_on_c, 0, 98, 60
2, 56653, Note_on_c, 0, 99, 0
2, 56653, Note_on_c, 0, 81, 0
2, 56653, Note_on_c, 0, 75, 0
2, 56653, Note_on_c, 0, 82, 60
2, 56653, Note_on_c, 0, 74, 60
2, 56655, Note_on_c, 0, 55, 60
2, 56660, Note_on_c, 0, 86, 60
2, 56663, Note_on_c, 0, 43, 60
2, 56723, Note_on_c, 0, 55, 0
2, 56748, Note_on_c, 0, 43, 0
2, 56756, Note_on_c, 0, 62, 60
2, 56758, Note_on_c, 0, 55, 60
2, 56764, Note_on_c, 0, 58, 60
2, 56795, Note_on_c, 0, 58, 0
2, 56795, Note_on_c, 0, 62, 0
2, 56797, Note_on_c, 0, 55, 0
2, 56880, Note_on_c, 0, 86, 0
2, 56880, Note_on_c, 0, 98, 0
2, 56880, Note_on_c, 0, 82, 0
2, 56880, Note_on_c, 0, 74, 0
2, 56880, Note_on_c, 0, 75, 60
2, 56880, Note_on_c, 0, 84, 60
2, 56880, Note_on_c, 0, 96, 60
2, 56880, Note_on_c, 0, 72, 60
2, 56883, Note_on_c, 0, 51, 60
2, 56888, Note_on_c, 0, 79, 60
2, 56890, Note_on_c, 0, 39, 60
2, 56944, Note_on_c, 0, 79, 0
2, 56944, Note_on_c, 0, 75, 0
2, 56944, Note_on_c, 0, 84, 0
2, 56944, Note_on_c, 0, 96, 0
2, 56951, Note_on_c, 0, 72, 0
2, 56976, Note_on_c, 0, 51, 0
2, 56976, Note_on_c, 0, 39, 0
2, 56995, Note_on_c, 0, 82, 60
2, 56995, Note_on_c, 0, 94, 60
2, 56995, Note_on_c, 0, 75, 60
2, 56997, Note_on_c, 0, 58, 60
2, 56997, Note_on_c, 0, 63, 60
2, 56997, Note_on_c, 0, 70, 60
2, 56997, Note_on_c, 0, 55, 60
2, 57004, Note_on_c, 0, 79, 60
2, 57034, Note_on_c, 0, 63, 0
2, 57034, Note_on_c, 0, 58, 0
2, 57037, Note_on_c, 0, 55, 0
2, 57101, Note_on_c, 0, 39, 60
2, 57104, Note_on_c, 0, 51, 60
2, 57145, Note_on_c, 0, 90, 60
2, 57157, Note_on_c, 0, 82, 0
2, 57157, Note_on_c, 0, 79, 0
2, 57157, Note_on_c, 0, 75, 0
2, 57157, Note_on_c, 0, 94, 0
2, 57157, Note_on_c, 0, 78, 60
2, 57165, Note_on_c, 0, 70, 0
2, 57192, Note_on_c, 0, 51, 0
2, 57192, Note_on_c, 0, 39, 0
2, 57204, Note_on_c, 0, 79, 60
2, 57204, Note_on_c, 0, 91, 60
2, 57204, Note_on_c, 0, 63, 60
2, 57214, Note_on_c, 0, 90, 0
2, 57214, Note_on_c, 0, 78, 0
2, 57214, Note_on_c, 0, 58, 60
2, 57214, Note_on_c, 0, 55, 60
2, 57245, Note_on_c, 0, 55, 0
2, 57245, Note_on_c, 0, 63, 0
2, 57245, Note_on_c, 0, 58, 0
2, 57266, Note_on_c, 0, 85, 60
2, 57266, Note_on_c, 0, 73, 60
2, 57269, Note_on_c, 0, 79, 0
2, 57278, Note_on_c, 0, 91, 0
2, 57330, Note_on_c, 0, 86, 60
2, 57330, Note_on_c, 0, 74, 60
2, 57332, Note_on_c, 0, 85, 0
2, 57332, Note_on_c, 0, 73, 0
2, 57332, Note_on_c, 0, 46, 60
2, 57387, Note_on_c, 0, 86, 0
2, 57387, Note_on_c, 0, 77, 60
2, 57387, Note_on_c, 0, 65, 60
2, 57394, Note_on_c, 0, 74, 0
2, 57422, Note_on_c, 0, 46, 0
2, 57448, Note_on_c, 0, 77, 0
2, 57448, Note_on_c, 0, 79, 60
2, 57448, Note_on_c, 0, 67, 60
2, 57451, Note_on_c, 0, 58, 60
2, 57451, Note_on_c, 0, 62, 60
2, 57451, Note_on_c, 0, 53, 60
2, 57459, Note_on_c, 0, 65, 0
2, 57485, Note_on_c, 0, 58, 0
2, 57490, Note_on_c, 0, 53, 0
2, 57504, Note_on_c, 0, 79, 0
2, 57504, Note_on_c, 0, 82, 60
2, 57504, Note_on_c, 0, 70, 60
2, 57513, Note_on_c, 0, 62, 0
2, 57513, Note_on_c, 0, 67, 0
2, 57552, Note_on_c, 0, 41, 60
2, 57606, Note_on_c, 0, 84, 60
2, 57613, Note_on_c, 0, 72, 60
2, 57624, Note_on_c, 0, 82, 0
2, 57624, Note_on_c, 0, 70, 0
2, 57648, Note_on_c, 0, 41, 0
2, 57667, Note_on_c, 0, 74, 60
2, 57667, Note_on_c, 0, 62, 60
2, 57669, Note_on_c, 0, 58, 60
2, 57672, Note_on_c, 0, 86, 60
2, 57673, Note_on_c, 0, 84, 0
2, 57673, Note_on_c, 0, 72, 0
2, 57673, Note_on_c, 0, 53, 60
2, 57692, Control_c, 0, 64, 127
2, 57706, Note_on_c, 0, 58, 0
2, 57716, Note_on_c, 0, 53, 0
2, 57722, Note_on_c, 0, 89, 60
2, 57727, Note_on_c, 0, 77, 60
2, 57729, Note_on_c, 0, 86, 0
2, 57739, Note_on_c, 0, 74, 0
2, 57739, Note_on_c, 0, 62, 0
2, 57778, Note_on_c, 0, 96, 60
2, 57778, Note_on_c, 0, 72, 60
2, 57780, Note_on_c, 0, 79, 60
2, 57780, Note_on_c, 0, 84, 60
2, 57780, Note_on_c, 0, 75, 60
2, 57792, Note_on_c, 0, 89, 0
2, 57792, Note_on_c, 0, 77, 0
2, 57792, Note_on_c, 0, 51, 60
2, 57794, Note_on_c, 0, 39, 60
2, 57840, Note_on_c, 0, 96, 0
2, 57840, Note_on_c, 0, 84, 0
2, 57840, Note_on_c, 0, 79, 0
2, 57840, Note_on_c, 0, 75, 0
2, 57850, Note_on_c, 0, 72, 0
2, 57868, Note_on_c, 0, 39, 0
2, 57873, Note_on_c, 0, 51, 0
2, 57894, Note_on_c, 0, 79, 60
2, 57894, Note_on_c, 0, 82, 60
2, 57894, Note_on_c, 0, 94, 60
2, 57894, Note_on_c, 0, 75, 60
2, 57896, Note_on_c, 0, 58, 60
2, 57896, Note_on_c, 0, 63, 60
2, 57896, Note_on_c, 0, 70, 60
2, 57896, Note_on_c, 0, 55, 60
2, 57934, Note_on_c, 0, 55, 0
2, 57934, Note_on_c, 0, 63, 0
2, 57934, Note_on_c, 0, 58, 0
2, 58001, Note_on_c, 0, 51, 60
2, 58001, Note_on_c, 0, 39, 60
2, 58059, Note_on_c, 0, 90, 60
2, 58059, Note_on_c, 0, 78, 60
2, 58069, Note_on_c, 0, 79, 0
2, 58076, Note_on_c, 0, 82, 0
2, 58076, Note_on_c, 0, 94, 0
2, 58087, Note_on_c, 0, 39, 0
2, 58092, Note_on_c, 0, 51, 0
2, 58117, Note_on_c, 0, 91, 60
2, 58120, Note_on_c, 0, 78, 0
2, 58120, Note_on_c, 0, 79, 60
2, 58120, Note_on_c, 0, 63, 60
2, 58127, Note_on_c, 0, 70, 0
2, 58127, Note_on_c, 0, 90, 0
2, 58127, Note_on_c, 0, 58, 60
2, 58131, Note_on_c, 0, 75, 0
2, 58131, Note_on_c, 0, 55, 60
2, 58159, Note_on_c, 0, 55, 0
2, 58159, Note_on_c, 0, 58, 0
2, 58159, Note_on_c, 0, 63, 0
2, 58174, Note_on_c, 0, 87, 60
2, 58174, Note_on_c, 0, 75, 60
2, 58185, Note_on_c, 0, 79, 0
2, 58185, Note_on_c, 0, 91, 0
2, 58185, Control_c, 0, 64, 0
2, 58224, Note_on_c, 0, 86, 60
2, 58231, Note_on_c, 0, 75, 0
2, 58231, Note_on_c, 0, 74, 60
2, 58231, Note_on_c, 0, 46, 60
2, 58238, Note_on_c, 0, 87, 0
2, 58320, Note_on_c, 0, 46, 0
2, 58341, Note_on_c, 0, 62, 60
2, 58347, Note_on_c, 0, 58, 60
2, 58347, Note_on_c, 0, 53, 60
2, 58382, Note_on_c, 0, 53, 0
2, 58382, Note_on_c, 0, 62, 0
2, 58382, Note_on_c, 0, 58, 0
2, 58462, Note_on_c, 0, 74, 0
2, 58462, Note_on_c, 0, 86, 0
2, 58462, Note_on_c, 0, 72, 60
2, 58462, Note_on_c, 0, 84, 60
2, 58462, Note_on_c, 0, 57, 60
2, 58473, Note_on_c, 0, 53, 60
2, 58534, Note_on_c, 0, 53, 0
2, 58534, Note_on_c, 0, 72, 0
2, 58534, Note_on_c, 0, 84, 0
2, 58534, Note_on_c, 0, 57, 0
2, 58580, Note_on_c, 0, 77, 60
2, 58580, Note_on_c, 0, 89, 60
2, 58580, Note_on_c, 0, 75, 60
2, 58583, Note_on_c, 0, 69, 60
2, 58589, Note_on_c, 0, 65, 60
2, 58589, Note_on_c, 0, 53, 60
2, 58591, Note_on_c, 0, 41, 60
2, 58640, Note_on_c, 0, 75, 0
2, 58640, Note_on_c, 0, 89, 0
2, 58643, Note_on_c, 0, 41, 0
2, 58648, Note_on_c, 0, 77, 0
2, 58650, Note_on_c, 0, 69, 0
2, 58650, Note_on_c, 0, 53, 0
2, 58650, Note_on_c, 0, 65, 0
2, 58692, Note_on_c, 0, 89, 60
2, 58694, Note_on_c, 0, 74, 60
2, 58694, Note_on_c, 0, 77, 60
2, 58694, Note_on_c, 0, 70, 60
2, 58699, Note_on_c, 0, 46, 60
2, 58704, Note_on_c, 0, 65, 60
2, 58722, Control_c, 0, 64, 127
2, 58789, Note_on_c, 0, 46, 0
2, 58800, Note_on_c, 0, 58, 60
2, 58800, Note_on_c, 0, 62, 60
2, 58800, Note_on_c, 0, 53, 60
2, 58838, Note_on_c, 0, 62, 0
2, 58838, Note_on_c, 0, 58, 0
2, 58845, Note_on_c, 0, 53, 0
2, 58908, Note_on_c, 0, 41, 60
2, 58920, Note_on_c, 0, 77, 0
2, 58921, Note_on_c, 0, 65, 0
2, 58964, Note_on_c, 0, 77, 60
2, 58964, Note_on_c, 0, 65, 60
2, 58980, Note_on_c, 0, 70, 0
2, 58998, Note_on_c, 0, 41, 0
2, 59021, Note_on_c, 0, 70, 60
2, 59024, Note_on_c, 0, 62, 60
2, 59024, Note_on_c, 0, 82, 60
2, 59024, Note_on_c, 0, 53, 60
2, 59033, Note_on_c, 0, 74, 0
2, 59033, Note_on_c, 0, 77, 0
2, 59033, Note_on_c, 0, 89, 0
2, 59033, Note_on_c, 0, 65, 0
2, 59033, Note_on_c, 0, 58, 60
2, 59080, Control_c, 0, 64, 0
2, 59085, Note_on_c, 0, 86, 60
2, 59085, Note_on_c, 0, 74, 60
2, 59087, Note_on_c, 0, 70, 0
2, 59087, Note_on_c, 0, 82, 0
2, 59087, Note_on_c, 0, 62, 0
2, 59093, Note_on_c, 0, 58, 0
2, 59093, Note_on_c, 0, 53, 0
2, 59137, Note_on_c, 0, 91, 60
2, 59140, Note_on_c, 0, 67, 60
2, 59140, Note_on_c, 0, 46, 60
2, 59150, Note_on_c, 0, 86, 0
2, 59150, Note_on_c, 0, 74, 0
2, 59150, Note_on_c, 0, 73, 60
2, 59150, Note_on_c, 0, 79, 60
2, 59150, Note_on_c, 0, 70, 60
2, 59231, Note_on_c, 0, 46, 0
2, 59254, Note_on_c, 0, 55, 60
2, 59254, Note_on_c, 0, 58, 60
2, 59254, Note_on_c, 0, 61, 60
2, 59254, Note_on_c, 0, 52, 60
2, 59261, Control_c, 0, 64, 127
2, 59291, Note_on_c, 0, 61, 0
2, 59291, Note_on_c, 0, 58, 0
2, 59294, Note_on_c, 0, 52, 0
2, 59294, Note_on_c, 0, 55, 0
2, 59345, Note_on_c, 0, 70, 0
2, 59371, Note_on_c, 0, 73, 0
2, 59371, Note_on_c, 0, 79, 0
2, 59375, Note_on_c, 0, 89, 60
2, 59377, Note_on_c, 0, 91, 0
2, 59377, Note_on_c, 0, 67, 0
2, 59377, Note_on_c, 0, 65, 60
2, 59377, Note_on_c, 0, 74, 60
2, 59377, Note_on_c, 0, 77, 60
2, 59377, Note_on_c, 0, 46, 60
2, 59379, Note_on_c, 0, 70, 60
2, 59463, Note_on_c, 0, 46, 0
2, 59472, Note_on_c, 0, 58, 60
2, 59472, Note_on_c, 0, 62, 60
2, 59472, Note_on_c, 0, 53, 60
2, 59507, Note_on_c, 0, 53, 0
2, 59507, Note_on_c, 0, 62, 0
2, 59507, Note_on_c, 0, 58, 0
2, 59526, Note_on_c, 0, 74, 0
2, 59528, Control_c, 0, 64, 0
2, 59535, Note_on_c, 0, 77, 0
2, 59592, Note_on_c, 0, 86, 60
2, 59592, Note_on_c, 0, 98, 60
2, 59592, Note_on_c, 0, 82, 60
2, 59593, Note_on_c, 0, 74, 60
2, 59593, Note_on_c, 0, 77, 60
2, 59593, Note_on_c, 0, 46, 60
2, 59598, Note_on_c, 0, 89, 0
2, 59598, Note_on_c, 0, 65, 0
2, 59598, Note_on_c, 0, 70, 0
2, 59677, Note_on_c, 0, 46, 0
2, 59693, Control_c, 0, 64, 127
2, 59714, Note_on_c, 0, 62, 60
2, 59716, Note_on_c, 0, 58, 60
2, 59716, Note_on_c, 0, 53, 60
2, 59749, Note_on_c, 0, 58, 0
2, 59752, Note_on_c, 0, 53, 0
2, 59752, Note_on_c, 0, 62, 0
2, 59816, Note_on_c, 0, 53, 60
2, 59816, Note_on_c, 0, 41, 60
2, 59842, Note_on_c, 0, 77, 0
2, 59880, Note_on_c, 0, 89, 60
2, 59881, Note_on_c, 0, 53, 0
2, 59888, Note_on_c, 0, 77, 60
2, 59903, Note_on_c, 0, 98, 0
2, 59904, Note_on_c, 0, 74, 0
2, 59904, Note_on_c, 0, 86, 0
2, 59904, Note_on_c, 0, 82, 0
2, 59904, Note_on_c, 0, 41, 0
2, 59942, Note_on_c, 0, 94, 60
2, 59945, Note_on_c, 0, 89, 0
2, 59945, Note_on_c, 0, 58, 60
2, 59945, Note_on_c, 0, 62, 60
2, 59945, Note_on_c, 0, 82, 60
2, 59945, Note_on_c, 0, 53, 60
2, 59952, Note_on_c, 0, 77, 0
2, 59979, Control_c, 0, 64, 0
2, 59984, Note_on_c, 0, 58, 0
2, 59984, Note_on_c, 0, 62, 0
2, 59984, Note_on_c, 0, 53, 0
2, 59996, Note_on_c, 0, 98, 60
2, 59998, Note_on_c, 0, 86, 60
2, 60007, Note_on_c, 0, 94, 0
2, 60007, Note_on_c, 0, 82, 0
2, 60063, Note_on_c, 0, 98, 0
2, 60063, Note_on_c, 0, 81, 60
2, 60063, Note_on_c, 0, 87, 60
2, 60063, Note_on_c, 0, 99, 60
2, 60063, Note_on_c, 0, 75, 60
2, 60066, Note_on_c, 0, 54, 60
2, 60066, Note_on_c, 0, 42, 60
2, 60070, Note_on_c, 0, 86, 0
2, 60117, Control_c, 0, 64, 127
2, 60146, Note_on_c, 0, 54, 0
2, 60154, Note_on_c, 0, 42, 0
2, 60168, Note_on_c, 0, 60, 60
2, 60174, Note_on_c, 0, 57, 60
2, 60177, Note_on_c, 0, 63, 60
2, 60210, Note_on_c, 0, 63, 0
2, 60210, Note_on_c, 0, 60, 0
2, 60210, Note_on_c, 0, 57, 0
2, 60282, Note_on_c, 0, 98, 60
2, 60284, Note_on_c, 0, 75, 0
2, 60284, Note_on_c, 0, 99, 0
2, 60284, Note_on_c, 0, 81, 0
2, 60284, Note_on_c, 0, 87, 0
2, 60284, Note_on_c, 0, 74, 60
2, 60284, Note_on_c, 0, 82, 60
2, 60284, Note_on_c, 0, 86, 60
2, 60284, Note_on_c, 0, 43, 60
2, 60287, Note_on_c, 0, 55, 60
2, 60344, Note_on_c, 0, 55, 0
2, 60365, Note_on_c, 0, 43, 0
2, 60388, Control_c, 0, 64, 0
2, 60395, Note_on_c, 0, 58, 60
2, 60395, Note_on_c, 0, 62, 60
2, 60395, Note_on_c, 0, 55, 60
2, 60434, Note_on_c, 0, 55, 0
2, 60434, Note_on_c, 0, 58, 0
2, 60434, Note_on_c, 0, 62, 0
2, 60504, Note_on_c, 0, 86, 0
2, 60504, Note_on_c, 0, 82, 0
2, 60509, Note_on_c, 0, 98, 0
2, 60509, Note_on_c, 0, 75, 60
2, 60509, Note_on_c, 0, 79, 60
2, 60509, Note_on_c, 0, 84, 60
2, 60509, Note_on_c, 0, 72, 60
2, 60511, Note_on_c, 0, 74, 0
2, 60511, Note_on_c, 0, 96, 60
2, 60511, Note_on_c, 0, 51, 60
2, 60519, Note_on_c, 0, 39, 60
2, 60558, Control_c, 0, 64, 127
2, 60572, Note_on_c, 0, 96, 0
2, 60572, Note_on_c, 0, 84, 0
2, 60572, Note_on_c, 0, 75, 0
2, 60572, Note_on_c, 0, 72, 0
2, 60572, Note_on_c, 0, 79, 0
2, 60596, Note_on_c, 0, 51, 0
2, 60604, Note_on_c, 0, 39, 0
2, 60624, Note_on_c, 0, 70, 60
2, 60624, Note_on_c, 0, 75, 60
2, 60624, Note_on_c, 0, 79, 60
2, 60624, Note_on_c, 0, 82, 60
2, 60624, Note_on_c, 0, 94, 60
2, 60624, Note_on_c, 0, 63, 60
2, 60627, Note_on_c, 0, 55, 60
2, 60632, Note_on_c, 0, 58, 60
2, 60663, Note_on_c, 0, 58, 0
2, 60663, Note_on_c, 0, 55, 0
2, 60663, Note_on_c, 0, 63, 0
2, 60730, Note_on_c, 0, 51, 60
2, 60740, Note_on_c, 0, 39, 60
2, 60781, Note_on_c, 0, 90, 60
2, 60784, Note_on_c, 0, 78, 60
2, 60791, Note_on_c, 0, 79, 0
2, 60802, Note_on_c, 0, 70, 0
2, 60802, Note_on_c, 0, 94, 0
2, 60802, Note_on_c, 0, 82, 0
2, 60802, Note_on_c, 0, 75, 0
2, 60816, Note_on_c, 0, 51, 0
2, 60818, Note_on_c, 0, 39, 0
2, 60833, Control_c, 0, 64, 0
2, 60846, Note_on_c, 0, 79, 60
2, 60846, Note_on_c, 0, 91, 60
2, 60846, Note_on_c, 0, 63, 60
2, 60848, Note_on_c, 0, 78, 0
2, 60848, Note_on_c, 0, 58, 60
2, 60848, Note_on_c, 0, 55, 60
2, 60858, Note_on_c, 0, 90, 0
2, 60888, Note_on_c, 0, 58, 0
2, 60888, Note_on_c, 0, 63, 0
2, 60888, Note_on_c, 0, 55, 0
2, 60912, Note_on_c, 0, 85, 60
2, 60912, Note_on_c, 0, 73, 60
2, 60913, Note_on_c, 0, 91, 0
2, 60913, Note_on_c, 0, 79, 0
2, 60969, Note_on_c, 0, 73, 0
2, 60969, Note_on_c, 0, 74, 60
2, 60969, Note_on_c, 0, 86, 60
2, 60977, Note_on_c, 0, 85, 0
2, 60979, Note_on_c, 0, 46, 60
2, 61023, Note_on_c, 0, 77, 60
2, 61030, Note_on_c, 0, 86, 0
2, 61030, Note_on_c, 0, 74, 0
2, 61030, Note_on_c, 0, 65, 60
2, 61065, Note_on_c, 0, 46, 0
2, 61085, Note_on_c, 0, 65, 0
2, 61085, Note_on_c, 0, 77, 0
2, 61085, Note_on_c, 0, 62, 60
2, 61085, Note_on_c, 0, 67, 60
2, 61085, Note_on_c, 0, 79, 60
2, 61085, Note_on_c, 0, 58, 60
2, 61088, Note_on_c, 0, 53, 60
2, 61095, Control_c, 0, 64, 127
2, 61121, Note_on_c, 0, 58, 0
2, 61121, Note_on_c, 0, 62, 0
2, 61128, Note_on_c, 0, 53, 0
2, 61142, Note_on_c, 0, 79, 0
2, 61142, Note_on_c, 0, 82, 60
2, 61142, Note_on_c, 0, 70, 60
2, 61151, Note_on_c, 0, 67, 0
2, 61198, Note_on_c, 0, 50, 60
2, 61198, Note_on_c, 0, 38, 60
2, 61250, Note_on_c, 0, 84, 60
2, 61250, Note_on_c, 0, 72, 60
2, 61267, Note_on_c, 0, 70, 0
2, 61267, Note_on_c, 0, 82, 0
2, 61283, Note_on_c, 0, 38, 0
2, 61283, Note_on_c, 0, 50, 0
2, 61297, Control_c, 0, 64, 0
2, 61302, Note_on_c, 0, 86, 60
2, 61304, Note_on_c, 0, 62, 60
2, 61304, Note_on_c, 0, 53, 60
2, 61311, Note_on_c, 0, 72, 0
2, 61311, Note_on_c, 0, 84, 0
2, 61311, Note_on_c, 0, 74, 60
2, 61311, Note_on_c, 0, 58, 60
2, 61342, Note_on_c, 0, 58, 0
2, 61342, Note_on_c, 0, 53, 0
2, 61342, Note_on_c, 0, 62, 0
2, 61367, Note_on_c, 0, 74, 0
2, 61371, Note_on_c, 0, 89, 60
2, 61371, Note_on_c, 0, 77, 60
2, 61374, Note_on_c, 0, 86, 0
2, 61418, Note_on_c, 0, 70, 60
2, 61418, Note_on_c, 0, 82, 60
2, 61418, Note_on_c, 0, 64, 60
2, 61420, Note_on_c, 0, 55, 60
2, 61427, Note_on_c, 0, 43, 60
2, 61435, Note_on_c, 0, 77, 0
2, 61435, Note_on_c, 0, 89, 0
2, 61512, Note_on_c, 0, 55, 0
2, 61512, Note_on_c, 0, 43, 0
2, 61528, Note_on_c, 0, 54, 60
2, 61528, Note_on_c, 0, 42, 60
2, 61611, Note_on_c, 0, 54, 0
2, 61618, Note_on_c, 0, 42, 0
2, 61651, Note_on_c, 0, 53, 60
2, 61653, Note_on_c, 0, 41, 60
2, 61690, Note_on_c, 0, 70, 0
2, 61690, Note_on_c, 0, 82, 0
2, 61690, Note_on_c, 0, 64, 0
2, 61751, Note_on_c, 0, 69, 60
2, 61757, Note_on_c, 0, 84, 60
2, 61757, Note_on_c, 0, 63, 60
2, 61760, Note_on_c, 0, 72, 60
2, 61818, Note_on_c, 0, 72, 0
2, 61818, Note_on_c, 0, 84, 0
2, 61818, Note_on_c, 0, 69, 0
2, 61818, Note_on_c, 0, 63, 0
2, 61865, Note_on_c, 0, 82, 60
2, 61865, Note_on_c, 0, 62, 60
2, 61867, Note_on_c, 0, 70, 60
2, 61867, Note_on_c, 0, 58, 60
2, 61876, Note_on_c, 0, 41, 0
2, 61876, Note_on_c, 0, 53, 0
2, 61876, Note_on_c, 0, 46, 60
2, 61990, Note_on_c, 0, 53, 60
2, 61990, Note_on_c, 0, 41, 60
2, 62020, Note_on_c, 0, 82, 0
2, 62020, Note_on_c, 0, 62, 0
2, 62020, Note_on_c, 0, 58, 0
2, 62025, Note_on_c, 0, 46, 0
2, 62027, Note_on_c, 0, 70, 0
2, 62030, Control_c, 0, 64, 127
2, 62074, Note_on_c, 0, 53, 0
2, 62076, Note_on_c, 0, 41, 0
2, 62094, Note_on_c, 0, 106, 60
2, 62104, Note_on_c, 0, 58, 60
2, 62104, Note_on_c, 0, 63, 60
2, 62104, Note_on_c, 0, 65, 60
2, 62104, Note_on_c, 0, 70, 60
2, 62104, Note_on_c, 0, 82, 60
2, 62104, Note_on_c, 0, 86, 60
2, 62104, Note_on_c, 0, 89, 60
2, 62104, Note_on_c, 0, 94, 60
2, 62104, Note_on_c, 0, 53, 60
2, 62106, Note_on_c, 0, 46, 60
2, 62106, Note_on_c, 0, 34, 60
2, 62113, Note_on_c, 0, 77, 60
2, 62113, Note_on_c, 0, 74, 60
2, 62187, Note_on_c, 0, 94, 0
2, 62187, Note_on_c, 0, 82, 0
2, 62187, Note_on_c, 0, 58, 0
2, 62194, Note_on_c, 0, 89, 0
2, 62194, Note_on_c, 0, 70, 0
2, 62194, Note_on_c, 0, 77, 0
2, 62194, Note_on_c, 0, 86, 0
2, 62197, Note_on_c, 0, 53, 0
2, 62197, Note_on_c, 0, 65, 0
2, 62197, Note_on_c, 0, 34, 0
2, 62197, Note_on_c, 0, 46, 0
2, 62197, Note_on_c, 0, 63, 0
2, 62197, Note_on_c, 0, 74, 0
2, 62204, Note_on_c, 0, 106, 0
2, 62207, Control_c, 0, 64, 0
2, 62207, End_track
3, 0, Start_track
3, 0, Title_t, ""
3, 0, End_track
4, 0, Start_track
4, 0, Title_t, ""
4, 0, End_track
5, 0, Start_track
5, 0, Title_t, ""
5, 0, End_track
6, 0, Start_track
6, 0, Title_t, "Scan of a player piano roll"
6, 0, End_track
7, 0, Start_track
7, 0, Title_t, "by Terry Smythe, Winnipeg, Canada"
7, 0, End_track
8, 0, Start_track
8, 1, Copyright_t, "___________________________________________________\012\012KUNSTDERFUGE.COM LARGE CLASSICAL MIDI COLLECTION\012ONCLASSICAL BY ALESSANDRO SIMONETTO, PROPRIETOR\012___________________________________________________\012\012! Attention: this file is under copyright !\012\012(c)onclassical, (nc)smythe, 2010\012___________________________________________________\012\012NO ONE MAY REPUBLISH THIS FILE WITHOUT PERMISSION\012COMMERCIAL USES OF THIS FILE IS STRICTLY PROHIBITED\012___________________________________________________\012\012Files & contributor's list: http://kunstderfuge.com/\012Terms and conditions: http://kunstderfuge.com/notes.htm"
8, 1, End_track
0, 0, End_of_file
