0, 0, Header, 1, 8, 192
1, 0, Start_track
1, 0, Title_t, "197S"
1, 0, Copyright_t, "May NOT be used for commercial purposes."
1, 0, Text_t, "Roll expression/accent tracks, where present, converted to MIDI velocties.\012"
1, 0, Time_signature, 4, 2, 24, 8
1, 0, Key_signature, 0, "major"
1, 0, Tempo, 500000
1, 0, Marker_t, "Standard MIDI:LPI 113:Tempo  70: 12-04-2003"
1, 0, End_track
2, 0, Start_track
2, 0, Title_t, "Something Doin' (1903)"
2, 4, Control_c, 0, 64, 127
2, 19, Control_c, 0, 64, 0
2, 125, Note_on_c, 0, 52, 80
2, 128, Note_on_c, 0, 64, 80
2, 182, Note_on_c, 0, 54, 80
2, 182, Note_on_c, 0, 66, 80
2, 187, Note_on_c, 0, 52, 0
2, 199, Note_on_c, 0, 64, 0
2, 233, Note_on_c, 0, 56, 80
2, 236, Note_on_c, 0, 68, 80
2, 239, Note_on_c, 0, 54, 0
2, 241, Note_on_c, 0, 66, 0
2, 286, Control_c, 0, 64, 127
2, 293, Note_on_c, 0, 64, 80
2, 293, Note_on_c, 0, 76, 80
2, 296, Note_on_c, 0, 56, 0
2, 299, Note_on_c, 0, 68, 0
2, 345, Control_c, 0, 64, 0
2, 379, Note_on_c, 0, 76, 0
2, 391, Note_on_c, 0, 64, 0
2, 399, Note_on_c, 0, 63, 80
2, 402, Note_on_c, 0, 75, 80
2, 632, Note_on_c, 0, 63, 0
2, 637, Note_on_c, 0, 75, 0
2, 671, Note_on_c, 0, 61, 80
2, 671, Note_on_c, 0, 73, 80
2, 721, Note_on_c, 0, 60, 80
2, 724, Note_on_c, 0, 72, 80
2, 727, Note_on_c, 0, 61, 0
2, 730, Note_on_c, 0, 73, 0
2, 733, Control_c, 0, 64, 127
2, 777, Note_on_c, 0, 61, 80
2, 780, Note_on_c, 0, 73, 80
2, 783, Note_on_c, 0, 60, 0
2, 783, Note_on_c, 0, 72, 0
2, 791, Control_c, 0, 64, 0
2, 822, Note_on_c, 0, 73, 0
2, 830, Note_on_c, 0, 57, 80
2, 833, Note_on_c, 0, 61, 0
2, 833, Note_on_c, 0, 69, 80
2, 1041, Note_on_c, 0, 57, 0
2, 1044, Note_on_c, 0, 69, 0
2, 1090, Note_on_c, 0, 57, 80
2, 1093, Note_on_c, 0, 69, 80
2, 1127, Control_c, 0, 64, 127
2, 1144, Note_on_c, 0, 56, 80
2, 1147, Note_on_c, 0, 68, 80
2, 1150, Note_on_c, 0, 69, 0
2, 1150, Note_on_c, 0, 57, 0
2, 1183, Control_c, 0, 64, 0
2, 1196, Note_on_c, 0, 57, 80
2, 1199, Note_on_c, 0, 69, 80
2, 1201, Note_on_c, 0, 56, 0
2, 1204, Note_on_c, 0, 68, 0
2, 1250, Note_on_c, 0, 54, 80
2, 1250, Note_on_c, 0, 66, 80
2, 1255, Note_on_c, 0, 69, 0
2, 1258, Note_on_c, 0, 57, 0
2, 1333, Note_on_c, 0, 54, 0
2, 1333, Note_on_c, 0, 66, 0
2, 1355, Note_on_c, 0, 52, 80
2, 1358, Note_on_c, 0, 68, 80
2, 1412, Note_on_c, 0, 51, 80
2, 1415, Note_on_c, 0, 52, 0
2, 1415, Note_on_c, 0, 69, 80
2, 1419, Note_on_c, 0, 68, 0
2, 1465, Note_on_c, 0, 49, 80
2, 1468, Note_on_c, 0, 70, 80
2, 1471, Note_on_c, 0, 51, 0
2, 1474, Note_on_c, 0, 69, 0
2, 1520, Note_on_c, 0, 47, 80
2, 1523, Note_on_c, 0, 71, 80
2, 1526, Note_on_c, 0, 49, 0
2, 1529, Note_on_c, 0, 70, 0
2, 1534, Control_c, 0, 64, 127
2, 1583, Note_on_c, 0, 47, 0
2, 1585, Note_on_c, 0, 71, 0
2, 1590, Control_c, 0, 64, 0
2, 1741, Note_on_c, 0, 35, 80
2, 1744, Note_on_c, 0, 47, 80
2, 1744, Note_on_c, 0, 71, 80
2, 1744, Note_on_c, 0, 75, 80
2, 1744, Note_on_c, 0, 78, 80
2, 1747, Note_on_c, 0, 83, 80
2, 1904, Note_on_c, 0, 71, 0
2, 1907, Note_on_c, 0, 78, 0
2, 1907, Note_on_c, 0, 75, 0
2, 1907, Note_on_c, 0, 83, 0
2, 1915, Note_on_c, 0, 35, 0
2, 1918, Note_on_c, 0, 47, 0
2, 1949, Note_on_c, 0, 40, 80
2, 1952, Note_on_c, 0, 52, 80
2, 1952, Note_on_c, 0, 56, 80
2, 1952, Note_on_c, 0, 68, 80
2, 1974, Control_c, 0, 64, 127
2, 2003, Note_on_c, 0, 59, 80
2, 2003, Note_on_c, 0, 71, 80
2, 2006, Note_on_c, 0, 40, 0
2, 2009, Note_on_c, 0, 68, 0
2, 2009, Note_on_c, 0, 52, 0
2, 2012, Note_on_c, 0, 56, 0
2, 2024, Note_on_c, 0, 59, 0
2, 2056, Note_on_c, 0, 56, 80
2, 2056, Note_on_c, 0, 59, 80
2, 2056, Note_on_c, 0, 64, 80
2, 2059, Note_on_c, 0, 76, 80
2, 2066, Note_on_c, 0, 71, 0
2, 2069, Control_c, 0, 64, 0
2, 2111, Note_on_c, 0, 68, 80
2, 2113, Note_on_c, 0, 56, 0
2, 2113, Note_on_c, 0, 59, 0
2, 2113, Note_on_c, 0, 80, 80
2, 2116, Note_on_c, 0, 64, 0
2, 2116, Note_on_c, 0, 76, 0
2, 2160, Note_on_c, 0, 35, 80
2, 2163, Note_on_c, 0, 47, 80
2, 2192, Note_on_c, 0, 68, 0
2, 2195, Note_on_c, 0, 80, 0
2, 2217, Note_on_c, 0, 35, 0
2, 2217, Note_on_c, 0, 64, 80
2, 2220, Note_on_c, 0, 76, 80
2, 2232, Note_on_c, 0, 47, 0
2, 2266, Note_on_c, 0, 56, 80
2, 2266, Note_on_c, 0, 59, 80
2, 2269, Note_on_c, 0, 71, 80
2, 2272, Note_on_c, 0, 76, 0
2, 2284, Note_on_c, 0, 56, 0
2, 2311, Note_on_c, 0, 59, 0
2, 2321, Note_on_c, 0, 56, 80
2, 2321, Note_on_c, 0, 68, 80
2, 2324, Note_on_c, 0, 64, 0
2, 2327, Note_on_c, 0, 71, 0
2, 2365, Control_c, 0, 64, 127
2, 2370, Note_on_c, 0, 47, 80
2, 2370, Note_on_c, 0, 63, 80
2, 2370, Note_on_c, 0, 71, 80
2, 2370, Note_on_c, 0, 75, 80
2, 2373, Note_on_c, 0, 56, 0
2, 2376, Note_on_c, 0, 68, 0
2, 2424, Note_on_c, 0, 63, 0
2, 2458, Control_c, 0, 64, 0
2, 2463, Note_on_c, 0, 71, 0
2, 2466, Note_on_c, 0, 75, 0
2, 2471, Note_on_c, 0, 57, 80
2, 2473, Note_on_c, 0, 59, 80
2, 2473, Note_on_c, 0, 63, 80
2, 2476, Note_on_c, 0, 69, 80
2, 2476, Note_on_c, 0, 73, 80
2, 2530, Note_on_c, 0, 63, 0
2, 2530, Note_on_c, 0, 59, 0
2, 2530, Note_on_c, 0, 57, 0
2, 2554, Note_on_c, 0, 47, 0
2, 2557, Note_on_c, 0, 69, 0
2, 2557, Note_on_c, 0, 73, 0
2, 2581, Note_on_c, 0, 52, 80
2, 2581, Note_on_c, 0, 59, 80
2, 2581, Note_on_c, 0, 68, 80
2, 2581, Note_on_c, 0, 71, 80
2, 2641, Note_on_c, 0, 59, 0
2, 2690, Note_on_c, 0, 56, 80
2, 2690, Note_on_c, 0, 59, 80
2, 2690, Note_on_c, 0, 64, 80
2, 2736, Note_on_c, 0, 64, 0
2, 2736, Note_on_c, 0, 68, 0
2, 2736, Note_on_c, 0, 52, 0
2, 2736, Note_on_c, 0, 71, 0
2, 2736, Note_on_c, 0, 59, 0
2, 2736, Note_on_c, 0, 56, 0
2, 2800, Note_on_c, 0, 42, 80
2, 2800, Note_on_c, 0, 54, 80
2, 2803, Note_on_c, 0, 69, 80
2, 2803, Note_on_c, 0, 81, 80
2, 2812, Control_c, 0, 64, 127
2, 2858, Note_on_c, 0, 75, 80
2, 2861, Note_on_c, 0, 54, 0
2, 2861, Note_on_c, 0, 42, 0
2, 2864, Note_on_c, 0, 81, 0
2, 2864, Note_on_c, 0, 69, 0
2, 2913, Note_on_c, 0, 57, 80
2, 2913, Note_on_c, 0, 59, 80
2, 2913, Note_on_c, 0, 63, 80
2, 2916, Note_on_c, 0, 78, 80
2, 2933, Note_on_c, 0, 75, 0
2, 2955, Control_c, 0, 64, 0
2, 2970, Note_on_c, 0, 57, 0
2, 2970, Note_on_c, 0, 59, 0
2, 2970, Note_on_c, 0, 69, 80
2, 2970, Note_on_c, 0, 81, 80
2, 2973, Note_on_c, 0, 63, 0
2, 2973, Note_on_c, 0, 78, 0
2, 3019, Note_on_c, 0, 42, 80
2, 3022, Note_on_c, 0, 54, 80
2, 3041, Note_on_c, 0, 69, 0
2, 3041, Note_on_c, 0, 81, 0
2, 3074, Note_on_c, 0, 75, 80
2, 3074, Note_on_c, 0, 78, 80
2, 3092, Note_on_c, 0, 42, 0
2, 3092, Note_on_c, 0, 54, 0
2, 3128, Note_on_c, 0, 43, 80
2, 3128, Note_on_c, 0, 55, 80
2, 3128, Note_on_c, 0, 70, 80
2, 3128, Note_on_c, 0, 82, 80
2, 3133, Note_on_c, 0, 75, 0
2, 3133, Note_on_c, 0, 78, 0
2, 3182, Note_on_c, 0, 71, 80
2, 3185, Note_on_c, 0, 43, 0
2, 3185, Note_on_c, 0, 83, 80
2, 3188, Note_on_c, 0, 82, 0
2, 3188, Note_on_c, 0, 55, 0
2, 3188, Note_on_c, 0, 70, 0
2, 3234, Note_on_c, 0, 44, 80
2, 3234, Note_on_c, 0, 56, 80
2, 3241, Note_on_c, 0, 71, 0
2, 3241, Note_on_c, 0, 83, 0
2, 3259, Control_c, 0, 64, 127
2, 3288, Note_on_c, 0, 45, 80
2, 3290, Note_on_c, 0, 44, 0
2, 3290, Note_on_c, 0, 57, 80
2, 3290, Note_on_c, 0, 71, 80
2, 3290, Note_on_c, 0, 83, 80
2, 3293, Note_on_c, 0, 56, 0
2, 3317, Control_c, 0, 64, 0
2, 3344, Note_on_c, 0, 47, 80
2, 3344, Note_on_c, 0, 59, 80
2, 3344, Note_on_c, 0, 68, 80
2, 3347, Note_on_c, 0, 45, 0
2, 3347, Note_on_c, 0, 80, 80
2, 3350, Note_on_c, 0, 71, 0
2, 3350, Note_on_c, 0, 57, 0
2, 3353, Note_on_c, 0, 83, 0
2, 3399, Note_on_c, 0, 64, 80
2, 3399, Note_on_c, 0, 76, 80
2, 3404, Note_on_c, 0, 68, 0
2, 3404, Note_on_c, 0, 80, 0
2, 3407, Note_on_c, 0, 59, 0
2, 3416, Note_on_c, 0, 47, 0
2, 3450, Note_on_c, 0, 45, 80
2, 3453, Note_on_c, 0, 57, 80
2, 3453, Note_on_c, 0, 61, 80
2, 3453, Note_on_c, 0, 73, 80
2, 3457, Note_on_c, 0, 76, 0
2, 3470, Note_on_c, 0, 64, 0
2, 3506, Note_on_c, 0, 45, 0
2, 3506, Note_on_c, 0, 60, 80
2, 3506, Note_on_c, 0, 72, 80
2, 3509, Note_on_c, 0, 57, 0
2, 3509, Note_on_c, 0, 73, 0
2, 3509, Note_on_c, 0, 61, 0
2, 3558, Note_on_c, 0, 44, 80
2, 3561, Note_on_c, 0, 56, 80
2, 3561, Note_on_c, 0, 59, 80
2, 3561, Note_on_c, 0, 71, 80
2, 3564, Note_on_c, 0, 60, 0
2, 3567, Note_on_c, 0, 72, 0
2, 3613, Note_on_c, 0, 57, 80
2, 3613, Note_on_c, 0, 69, 80
2, 3616, Note_on_c, 0, 44, 0
2, 3619, Note_on_c, 0, 56, 0
2, 3622, Note_on_c, 0, 71, 0
2, 3622, Note_on_c, 0, 59, 0
2, 3668, Note_on_c, 0, 40, 80
2, 3668, Note_on_c, 0, 56, 80
2, 3671, Note_on_c, 0, 52, 80
2, 3671, Note_on_c, 0, 68, 80
2, 3673, Note_on_c, 0, 57, 0
2, 3676, Note_on_c, 0, 69, 0
2, 3705, Control_c, 0, 64, 127
2, 3722, Note_on_c, 0, 59, 80
2, 3722, Note_on_c, 0, 71, 80
2, 3725, Note_on_c, 0, 40, 0
2, 3728, Note_on_c, 0, 68, 0
2, 3728, Note_on_c, 0, 56, 0
2, 3728, Note_on_c, 0, 52, 0
2, 3743, Note_on_c, 0, 59, 0
2, 3765, Control_c, 0, 64, 0
2, 3777, Note_on_c, 0, 56, 80
2, 3777, Note_on_c, 0, 59, 80
2, 3777, Note_on_c, 0, 64, 80
2, 3777, Note_on_c, 0, 76, 80
2, 3782, Note_on_c, 0, 71, 0
2, 3833, Note_on_c, 0, 68, 80
2, 3836, Note_on_c, 0, 80, 80
2, 3839, Note_on_c, 0, 64, 0
2, 3839, Note_on_c, 0, 76, 0
2, 3839, Note_on_c, 0, 56, 0
2, 3839, Note_on_c, 0, 59, 0
2, 3885, Note_on_c, 0, 35, 80
2, 3888, Note_on_c, 0, 47, 80
2, 3905, Note_on_c, 0, 68, 0
2, 3908, Note_on_c, 0, 80, 0
2, 3944, Note_on_c, 0, 64, 80
2, 3944, Note_on_c, 0, 76, 80
2, 3947, Note_on_c, 0, 35, 0
2, 3947, Note_on_c, 0, 47, 0
2, 3993, Note_on_c, 0, 56, 80
2, 3996, Note_on_c, 0, 59, 80
2, 3996, Note_on_c, 0, 71, 80
2, 4001, Note_on_c, 0, 76, 0
2, 4013, Note_on_c, 0, 56, 0
2, 4050, Note_on_c, 0, 68, 80
2, 4053, Note_on_c, 0, 56, 80
2, 4056, Note_on_c, 0, 71, 0
2, 4056, Note_on_c, 0, 59, 0
2, 4070, Note_on_c, 0, 64, 0
2, 4102, Note_on_c, 0, 47, 80
2, 4106, Note_on_c, 0, 63, 80
2, 4106, Note_on_c, 0, 71, 80
2, 4106, Note_on_c, 0, 75, 80
2, 4109, Note_on_c, 0, 56, 0
2, 4109, Note_on_c, 0, 68, 0
2, 4114, Control_c, 0, 64, 127
2, 4163, Note_on_c, 0, 71, 0
2, 4166, Note_on_c, 0, 63, 0
2, 4166, Note_on_c, 0, 75, 0
2, 4210, Note_on_c, 0, 61, 80
2, 4210, Note_on_c, 0, 63, 80
2, 4213, Note_on_c, 0, 59, 80
2, 4213, Note_on_c, 0, 69, 80
2, 4213, Note_on_c, 0, 73, 80
2, 4216, Control_c, 0, 64, 0
2, 4267, Note_on_c, 0, 59, 0
2, 4267, Note_on_c, 0, 63, 0
2, 4267, Note_on_c, 0, 61, 0
2, 4270, Note_on_c, 0, 73, 0
2, 4270, Note_on_c, 0, 69, 0
2, 4320, Note_on_c, 0, 52, 80
2, 4320, Note_on_c, 0, 59, 80
2, 4320, Note_on_c, 0, 68, 80
2, 4320, Note_on_c, 0, 71, 80
2, 4338, Note_on_c, 0, 47, 0
2, 4392, Note_on_c, 0, 52, 0
2, 4394, Note_on_c, 0, 68, 0
2, 4394, Note_on_c, 0, 59, 0
2, 4394, Note_on_c, 0, 71, 0
2, 4426, Note_on_c, 0, 53, 80
2, 4426, Note_on_c, 0, 56, 80
2, 4429, Note_on_c, 0, 59, 80
2, 4429, Note_on_c, 0, 62, 80
2, 4429, Note_on_c, 0, 68, 80
2, 4429, Note_on_c, 0, 80, 80
2, 4478, Control_c, 0, 64, 127
2, 4483, Note_on_c, 0, 56, 0
2, 4483, Note_on_c, 0, 53, 0
2, 4486, Note_on_c, 0, 68, 0
2, 4486, Note_on_c, 0, 62, 0
2, 4486, Note_on_c, 0, 80, 0
2, 4486, Note_on_c, 0, 59, 0
2, 4536, Note_on_c, 0, 54, 80
2, 4536, Note_on_c, 0, 59, 80
2, 4536, Note_on_c, 0, 63, 80
2, 4536, Note_on_c, 0, 66, 80
2, 4536, Note_on_c, 0, 78, 80
2, 4590, Note_on_c, 0, 71, 80
2, 4593, Note_on_c, 0, 66, 0
2, 4596, Note_on_c, 0, 78, 0
2, 4618, Control_c, 0, 64, 0
2, 4645, Note_on_c, 0, 75, 80
2, 4650, Note_on_c, 0, 71, 0
2, 4699, Note_on_c, 0, 68, 80
2, 4699, Note_on_c, 0, 71, 80
2, 4699, Note_on_c, 0, 73, 80
2, 4699, Note_on_c, 0, 77, 80
2, 4699, Note_on_c, 0, 80, 80
2, 4704, Note_on_c, 0, 75, 0
2, 4730, Note_on_c, 0, 59, 0
2, 4730, Note_on_c, 0, 63, 0
2, 4740, Note_on_c, 0, 54, 0
2, 4750, Note_on_c, 0, 49, 80
2, 4750, Note_on_c, 0, 61, 80
2, 4754, Note_on_c, 0, 73, 0
2, 4754, Note_on_c, 0, 80, 0
2, 4754, Note_on_c, 0, 68, 0
2, 4754, Note_on_c, 0, 77, 0
2, 4757, Note_on_c, 0, 71, 0
2, 4806, Note_on_c, 0, 68, 80
2, 4806, Note_on_c, 0, 71, 80
2, 4806, Note_on_c, 0, 73, 80
2, 4806, Note_on_c, 0, 77, 80
2, 4806, Note_on_c, 0, 80, 80
2, 4809, Note_on_c, 0, 61, 0
2, 4809, Note_on_c, 0, 49, 0
2, 4822, Note_on_c, 0, 73, 0
2, 4855, Note_on_c, 0, 42, 80
2, 4855, Note_on_c, 0, 54, 80
2, 4858, Note_on_c, 0, 70, 80
2, 4858, Note_on_c, 0, 73, 80
2, 4858, Note_on_c, 0, 76, 80
2, 4858, Note_on_c, 0, 82, 80
2, 4863, Note_on_c, 0, 77, 0
2, 4863, Note_on_c, 0, 68, 0
2, 4863, Note_on_c, 0, 71, 0
2, 4863, Note_on_c, 0, 80, 0
2, 4909, Note_on_c, 0, 42, 0
2, 4912, Note_on_c, 0, 73, 0
2, 4912, Note_on_c, 0, 54, 0
2, 4915, Note_on_c, 0, 70, 0
2, 4915, Note_on_c, 0, 76, 0
2, 4915, Note_on_c, 0, 82, 0
2, 4956, Control_c, 0, 64, 127
2, 4959, Note_on_c, 0, 47, 80
2, 4962, Note_on_c, 0, 59, 80
2, 4962, Note_on_c, 0, 71, 80
2, 4962, Note_on_c, 0, 75, 80
2, 4974, Note_on_c, 0, 83, 80
2, 5016, Note_on_c, 0, 46, 80
2, 5016, Note_on_c, 0, 58, 80
2, 5018, Note_on_c, 0, 59, 0
2, 5018, Note_on_c, 0, 47, 0
2, 5057, Control_c, 0, 64, 0
2, 5066, Note_on_c, 0, 45, 80
2, 5066, Note_on_c, 0, 57, 80
2, 5071, Note_on_c, 0, 46, 0
2, 5071, Note_on_c, 0, 58, 0
2, 5117, Note_on_c, 0, 47, 80
2, 5120, Note_on_c, 0, 59, 80
2, 5123, Note_on_c, 0, 45, 0
2, 5126, Note_on_c, 0, 57, 0
2, 5170, Note_on_c, 0, 44, 80
2, 5173, Note_on_c, 0, 56, 80
2, 5176, Note_on_c, 0, 47, 0
2, 5179, Note_on_c, 0, 59, 0
2, 5223, Note_on_c, 0, 43, 80
2, 5223, Note_on_c, 0, 55, 80
2, 5226, Note_on_c, 0, 44, 0
2, 5229, Note_on_c, 0, 56, 0
2, 5278, Note_on_c, 0, 42, 80
2, 5278, Note_on_c, 0, 54, 80
2, 5280, Note_on_c, 0, 43, 0
2, 5280, Note_on_c, 0, 55, 0
2, 5283, Note_on_c, 0, 83, 0
2, 5296, Note_on_c, 0, 71, 0
2, 5299, Note_on_c, 0, 75, 0
2, 5330, Note_on_c, 0, 41, 80
2, 5330, Note_on_c, 0, 53, 80
2, 5335, Note_on_c, 0, 54, 0
2, 5335, Note_on_c, 0, 42, 0
2, 5354, Control_c, 0, 64, 127
2, 5381, Note_on_c, 0, 40, 80
2, 5384, Note_on_c, 0, 52, 80
2, 5384, Note_on_c, 0, 56, 80
2, 5384, Note_on_c, 0, 68, 80
2, 5389, Note_on_c, 0, 41, 0
2, 5389, Note_on_c, 0, 53, 0
2, 5440, Note_on_c, 0, 59, 80
2, 5443, Note_on_c, 0, 56, 0
2, 5443, Note_on_c, 0, 52, 0
2, 5443, Note_on_c, 0, 40, 0
2, 5443, Note_on_c, 0, 71, 80
2, 5446, Note_on_c, 0, 68, 0
2, 5458, Note_on_c, 0, 59, 0
2, 5492, Note_on_c, 0, 59, 80
2, 5495, Control_c, 0, 64, 0
2, 5495, Note_on_c, 0, 56, 80
2, 5495, Note_on_c, 0, 64, 80
2, 5495, Note_on_c, 0, 76, 80
2, 5502, Note_on_c, 0, 71, 0
2, 5539, Note_on_c, 0, 56, 0
2, 5542, Note_on_c, 0, 59, 0
2, 5542, Note_on_c, 0, 64, 0
2, 5542, Note_on_c, 0, 76, 0
2, 5549, Note_on_c, 0, 68, 80
2, 5549, Note_on_c, 0, 80, 80
2, 5600, Note_on_c, 0, 35, 80
2, 5603, Note_on_c, 0, 47, 80
2, 5635, Note_on_c, 0, 68, 0
2, 5638, Note_on_c, 0, 80, 0
2, 5660, Note_on_c, 0, 35, 0
2, 5660, Note_on_c, 0, 47, 0
2, 5660, Note_on_c, 0, 64, 80
2, 5660, Note_on_c, 0, 76, 80
2, 5713, Note_on_c, 0, 56, 80
2, 5716, Note_on_c, 0, 59, 80
2, 5716, Note_on_c, 0, 71, 80
2, 5734, Note_on_c, 0, 56, 0
2, 5734, Note_on_c, 0, 76, 0
2, 5770, Note_on_c, 0, 56, 80
2, 5773, Note_on_c, 0, 68, 80
2, 5776, Note_on_c, 0, 59, 0
2, 5779, Note_on_c, 0, 71, 0
2, 5791, Note_on_c, 0, 64, 0
2, 5825, Note_on_c, 0, 35, 80
2, 5825, Note_on_c, 0, 47, 80
2, 5828, Note_on_c, 0, 63, 80
2, 5828, Note_on_c, 0, 75, 80
2, 5831, Note_on_c, 0, 71, 80
2, 5833, Note_on_c, 0, 68, 0
2, 5833, Note_on_c, 0, 56, 0
2, 5851, Control_c, 0, 64, 127
2, 5900, Note_on_c, 0, 47, 0
2, 5900, Note_on_c, 0, 35, 0
2, 5903, Note_on_c, 0, 71, 0
2, 5903, Note_on_c, 0, 63, 0
2, 5903, Note_on_c, 0, 75, 0
2, 5910, Control_c, 0, 64, 0
2, 5934, Note_on_c, 0, 57, 80
2, 5934, Note_on_c, 0, 59, 80
2, 5934, Note_on_c, 0, 61, 80
2, 5934, Note_on_c, 0, 63, 80
2, 5937, Note_on_c, 0, 69, 80
2, 5937, Note_on_c, 0, 73, 80
2, 5981, Note_on_c, 0, 73, 0
2, 5981, Note_on_c, 0, 59, 0
2, 5981, Note_on_c, 0, 61, 0
2, 5981, Note_on_c, 0, 57, 0
2, 5981, Note_on_c, 0, 69, 0
2, 5981, Note_on_c, 0, 63, 0
2, 6037, Note_on_c, 0, 40, 80
2, 6042, Note_on_c, 0, 52, 80
2, 6042, Note_on_c, 0, 59, 80
2, 6042, Note_on_c, 0, 68, 80
2, 6042, Note_on_c, 0, 71, 80
2, 6100, Note_on_c, 0, 59, 0
2, 6154, Note_on_c, 0, 56, 80
2, 6154, Note_on_c, 0, 59, 80
2, 6154, Note_on_c, 0, 64, 80
2, 6208, Note_on_c, 0, 40, 0
2, 6213, Note_on_c, 0, 59, 0
2, 6213, Note_on_c, 0, 68, 0
2, 6213, Note_on_c, 0, 71, 0
2, 6213, Note_on_c, 0, 52, 0
2, 6213, Note_on_c, 0, 64, 0
2, 6213, Note_on_c, 0, 56, 0
2, 6259, Note_on_c, 0, 42, 80
2, 6262, Note_on_c, 0, 54, 80
2, 6264, Note_on_c, 0, 69, 80
2, 6264, Note_on_c, 0, 81, 80
2, 6318, Note_on_c, 0, 42, 0
2, 6318, Note_on_c, 0, 75, 80
2, 6321, Note_on_c, 0, 54, 0
2, 6321, Note_on_c, 0, 69, 0
2, 6324, Note_on_c, 0, 81, 0
2, 6368, Note_on_c, 0, 57, 80
2, 6371, Note_on_c, 0, 59, 80
2, 6371, Note_on_c, 0, 63, 80
2, 6374, Note_on_c, 0, 78, 80
2, 6377, Note_on_c, 0, 75, 0
2, 6426, Note_on_c, 0, 69, 80
2, 6426, Note_on_c, 0, 81, 80
2, 6431, Note_on_c, 0, 63, 0
2, 6431, Note_on_c, 0, 78, 0
2, 6431, Note_on_c, 0, 57, 0
2, 6431, Note_on_c, 0, 59, 0
2, 6477, Note_on_c, 0, 42, 80
2, 6480, Note_on_c, 0, 54, 80
2, 6535, Note_on_c, 0, 42, 0
2, 6535, Note_on_c, 0, 75, 80
2, 6535, Note_on_c, 0, 78, 80
2, 6538, Note_on_c, 0, 54, 0
2, 6538, Note_on_c, 0, 69, 0
2, 6541, Note_on_c, 0, 81, 0
2, 6585, Note_on_c, 0, 43, 80
2, 6588, Note_on_c, 0, 55, 80
2, 6588, Note_on_c, 0, 70, 80
2, 6588, Note_on_c, 0, 82, 80
2, 6596, Note_on_c, 0, 78, 0
2, 6596, Note_on_c, 0, 75, 0
2, 6640, Note_on_c, 0, 71, 80
2, 6640, Note_on_c, 0, 83, 80
2, 6643, Note_on_c, 0, 55, 0
2, 6643, Note_on_c, 0, 43, 0
2, 6646, Note_on_c, 0, 70, 0
2, 6646, Note_on_c, 0, 82, 0
2, 6690, Note_on_c, 0, 44, 80
2, 6693, Note_on_c, 0, 56, 80
2, 6700, Note_on_c, 0, 83, 0
2, 6700, Note_on_c, 0, 71, 0
2, 6703, Control_c, 0, 64, 127
2, 6744, Note_on_c, 0, 45, 80
2, 6747, Note_on_c, 0, 57, 80
2, 6747, Note_on_c, 0, 71, 80
2, 6747, Note_on_c, 0, 83, 80
2, 6750, Note_on_c, 0, 44, 0
2, 6753, Note_on_c, 0, 56, 0
2, 6763, Control_c, 0, 64, 0
2, 6801, Note_on_c, 0, 47, 80
2, 6801, Note_on_c, 0, 59, 80
2, 6801, Note_on_c, 0, 68, 80
2, 6801, Note_on_c, 0, 80, 80
2, 6804, Note_on_c, 0, 45, 0
2, 6807, Note_on_c, 0, 83, 0
2, 6807, Note_on_c, 0, 57, 0
2, 6810, Note_on_c, 0, 71, 0
2, 6854, Note_on_c, 0, 46, 80
2, 6854, Note_on_c, 0, 58, 80
2, 6854, Note_on_c, 0, 64, 80
2, 6857, Note_on_c, 0, 76, 80
2, 6860, Note_on_c, 0, 47, 0
2, 6860, Note_on_c, 0, 68, 0
2, 6863, Note_on_c, 0, 80, 0
2, 6863, Note_on_c, 0, 59, 0
2, 6899, Note_on_c, 0, 58, 0
2, 6909, Note_on_c, 0, 45, 80
2, 6909, Note_on_c, 0, 57, 80
2, 6909, Note_on_c, 0, 61, 80
2, 6909, Note_on_c, 0, 73, 80
2, 6912, Note_on_c, 0, 46, 0
2, 6914, Note_on_c, 0, 76, 0
2, 6929, Note_on_c, 0, 64, 0
2, 6962, Note_on_c, 0, 60, 80
2, 6962, Note_on_c, 0, 72, 80
2, 6965, Note_on_c, 0, 57, 0
2, 6965, Note_on_c, 0, 45, 0
2, 6968, Note_on_c, 0, 73, 0
2, 6968, Note_on_c, 0, 61, 0
2, 7014, Note_on_c, 0, 44, 80
2, 7017, Note_on_c, 0, 56, 80
2, 7017, Note_on_c, 0, 59, 80
2, 7017, Note_on_c, 0, 71, 80
2, 7022, Note_on_c, 0, 72, 0
2, 7022, Note_on_c, 0, 60, 0
2, 7085, Note_on_c, 0, 44, 0
2, 7088, Note_on_c, 0, 56, 0
2, 7088, Note_on_c, 0, 59, 0
2, 7091, Note_on_c, 0, 71, 0
2, 7105, Control_c, 0, 64, 127
2, 7125, Note_on_c, 0, 45, 80
2, 7125, Note_on_c, 0, 57, 80
2, 7125, Note_on_c, 0, 73, 80
2, 7125, Note_on_c, 0, 85, 80
2, 7178, Note_on_c, 0, 45, 0
2, 7178, Note_on_c, 0, 81, 80
2, 7181, Note_on_c, 0, 57, 0
2, 7181, Note_on_c, 0, 85, 0
2, 7181, Note_on_c, 0, 73, 0
2, 7203, Control_c, 0, 64, 0
2, 7230, Note_on_c, 0, 57, 80
2, 7230, Note_on_c, 0, 61, 80
2, 7233, Note_on_c, 0, 66, 80
2, 7233, Note_on_c, 0, 83, 80
2, 7238, Note_on_c, 0, 81, 0
2, 7284, Note_on_c, 0, 75, 80
2, 7287, Note_on_c, 0, 87, 80
2, 7290, Note_on_c, 0, 66, 0
2, 7290, Note_on_c, 0, 57, 0
2, 7290, Note_on_c, 0, 61, 0
2, 7293, Note_on_c, 0, 83, 0
2, 7339, Note_on_c, 0, 45, 80
2, 7339, Note_on_c, 0, 57, 80
2, 7394, Note_on_c, 0, 81, 80
2, 7397, Note_on_c, 0, 57, 0
2, 7397, Note_on_c, 0, 45, 0
2, 7400, Note_on_c, 0, 87, 0
2, 7415, Note_on_c, 0, 75, 0
2, 7446, Note_on_c, 0, 43, 80
2, 7449, Note_on_c, 0, 55, 80
2, 7449, Note_on_c, 0, 73, 80
2, 7452, Note_on_c, 0, 85, 80
2, 7455, Note_on_c, 0, 81, 0
2, 7506, Note_on_c, 0, 43, 0
2, 7506, Note_on_c, 0, 55, 0
2, 7509, Note_on_c, 0, 73, 0
2, 7509, Note_on_c, 0, 85, 0
2, 7553, Control_c, 0, 64, 127
2, 7556, Note_on_c, 0, 44, 80
2, 7556, Note_on_c, 0, 56, 80
2, 7559, Note_on_c, 0, 71, 80
2, 7559, Note_on_c, 0, 83, 80
2, 7612, Note_on_c, 0, 76, 80
2, 7612, Note_on_c, 0, 80, 80
2, 7615, Note_on_c, 0, 83, 0
2, 7618, Note_on_c, 0, 71, 0
2, 7618, Note_on_c, 0, 56, 0
2, 7650, Control_c, 0, 64, 0
2, 7662, Note_on_c, 0, 56, 80
2, 7662, Note_on_c, 0, 59, 80
2, 7662, Note_on_c, 0, 64, 80
2, 7662, Note_on_c, 0, 73, 80
2, 7662, Note_on_c, 0, 85, 80
2, 7667, Note_on_c, 0, 76, 0
2, 7670, Note_on_c, 0, 80, 0
2, 7716, Note_on_c, 0, 83, 80
2, 7719, Note_on_c, 0, 59, 0
2, 7719, Note_on_c, 0, 56, 0
2, 7719, Note_on_c, 0, 71, 80
2, 7722, Note_on_c, 0, 85, 0
2, 7722, Note_on_c, 0, 73, 0
2, 7722, Note_on_c, 0, 64, 0
2, 7766, Note_on_c, 0, 56, 80
2, 7766, Note_on_c, 0, 59, 80
2, 7766, Note_on_c, 0, 64, 80
2, 7810, Note_on_c, 0, 71, 0
2, 7813, Note_on_c, 0, 83, 0
2, 7821, Note_on_c, 0, 68, 80
2, 7821, Note_on_c, 0, 80, 80
2, 7824, Note_on_c, 0, 44, 0
2, 7838, Note_on_c, 0, 64, 0
2, 7874, Note_on_c, 0, 64, 80
2, 7874, Note_on_c, 0, 76, 80
2, 7877, Note_on_c, 0, 56, 0
2, 7877, Note_on_c, 0, 59, 0
2, 7880, Note_on_c, 0, 68, 0
2, 7880, Note_on_c, 0, 80, 0
2, 7924, Note_on_c, 0, 53, 80
2, 7924, Note_on_c, 0, 65, 80
2, 7932, Note_on_c, 0, 64, 0
2, 7935, Note_on_c, 0, 76, 0
2, 7979, Note_on_c, 0, 35, 80
2, 7979, Note_on_c, 0, 47, 80
2, 7979, Note_on_c, 0, 54, 80
2, 7982, Note_on_c, 0, 66, 80
2, 7985, Note_on_c, 0, 53, 0
2, 7988, Note_on_c, 0, 65, 0
2, 7991, Control_c, 0, 64, 127
2, 8032, Note_on_c, 0, 59, 80
2, 8032, Note_on_c, 0, 71, 80
2, 8037, Note_on_c, 0, 54, 0
2, 8037, Note_on_c, 0, 35, 0
2, 8037, Note_on_c, 0, 47, 0
2, 8037, Note_on_c, 0, 66, 0
2, 8051, Note_on_c, 0, 59, 0
2, 8085, Note_on_c, 0, 57, 80
2, 8085, Note_on_c, 0, 59, 80
2, 8085, Note_on_c, 0, 63, 80
2, 8088, Control_c, 0, 64, 0
2, 8126, Note_on_c, 0, 71, 0
2, 8136, Note_on_c, 0, 53, 80
2, 8138, Note_on_c, 0, 65, 80
2, 8141, Note_on_c, 0, 63, 0
2, 8141, Note_on_c, 0, 59, 0
2, 8144, Note_on_c, 0, 57, 0
2, 8190, Note_on_c, 0, 39, 80
2, 8190, Note_on_c, 0, 51, 80
2, 8190, Note_on_c, 0, 54, 80
2, 8193, Note_on_c, 0, 66, 80
2, 8196, Note_on_c, 0, 65, 0
2, 8196, Note_on_c, 0, 53, 0
2, 8245, Note_on_c, 0, 69, 80
2, 8248, Note_on_c, 0, 39, 0
2, 8248, Note_on_c, 0, 78, 80
2, 8251, Note_on_c, 0, 51, 0
2, 8297, Note_on_c, 0, 57, 80
2, 8297, Note_on_c, 0, 59, 80
2, 8330, Note_on_c, 0, 69, 0
2, 8330, Note_on_c, 0, 78, 0
2, 8330, Note_on_c, 0, 66, 0
2, 8350, Note_on_c, 0, 64, 80
2, 8350, Note_on_c, 0, 68, 80
2, 8350, Note_on_c, 0, 71, 80
2, 8350, Note_on_c, 0, 76, 80
2, 8354, Note_on_c, 0, 54, 0
2, 8354, Note_on_c, 0, 57, 0
2, 8354, Note_on_c, 0, 59, 0
2, 8400, Note_on_c, 0, 40, 80
2, 8403, Note_on_c, 0, 52, 80
2, 8403, Note_on_c, 0, 56, 80
2, 8403, Note_on_c, 0, 59, 80
2, 8425, Control_c, 0, 64, 127
2, 8452, Note_on_c, 0, 34, 80
2, 8455, Note_on_c, 0, 46, 80
2, 8458, Note_on_c, 0, 40, 0
2, 8461, Note_on_c, 0, 52, 0
2, 8510, Note_on_c, 0, 35, 80
2, 8510, Note_on_c, 0, 47, 80
2, 8513, Note_on_c, 0, 34, 0
2, 8516, Note_on_c, 0, 46, 0
2, 8567, Note_on_c, 0, 36, 80
2, 8567, Note_on_c, 0, 48, 80
2, 8569, Note_on_c, 0, 35, 0
2, 8569, Control_c, 0, 64, 0
2, 8572, Note_on_c, 0, 47, 0
2, 8623, Note_on_c, 0, 37, 80
2, 8626, Note_on_c, 0, 36, 0
2, 8626, Note_on_c, 0, 49, 80
2, 8629, Note_on_c, 0, 59, 0
2, 8629, Note_on_c, 0, 48, 0
2, 8629, Note_on_c, 0, 56, 0
2, 8678, Note_on_c, 0, 38, 80
2, 8681, Note_on_c, 0, 37, 0
2, 8681, Note_on_c, 0, 50, 80
2, 8684, Note_on_c, 0, 49, 0
2, 8687, Note_on_c, 0, 76, 0
2, 8687, Note_on_c, 0, 71, 0
2, 8687, Note_on_c, 0, 68, 0
2, 8687, Note_on_c, 0, 64, 0
2, 8733, Note_on_c, 0, 39, 80
2, 8737, Note_on_c, 0, 51, 80
2, 8737, Note_on_c, 0, 63, 80
2, 8737, Note_on_c, 0, 75, 80
2, 8740, Note_on_c, 0, 38, 0
2, 8755, Note_on_c, 0, 50, 0
2, 8764, Note_on_c, 0, 64, 80
2, 8764, Note_on_c, 0, 76, 80
2, 8788, Note_on_c, 0, 43, 80
2, 8791, Note_on_c, 0, 55, 80
2, 8791, Note_on_c, 0, 67, 80
2, 8794, Note_on_c, 0, 51, 0
2, 8794, Note_on_c, 0, 39, 0
2, 8794, Note_on_c, 0, 79, 80
2, 8797, Note_on_c, 0, 63, 0
2, 8797, Note_on_c, 0, 75, 0
2, 8835, Note_on_c, 0, 64, 0
2, 8838, Note_on_c, 0, 76, 0
2, 8843, Note_on_c, 0, 40, 80
2, 8846, Note_on_c, 0, 52, 80
2, 8846, Note_on_c, 0, 68, 80
2, 8846, Note_on_c, 0, 80, 80
2, 8851, Note_on_c, 0, 55, 0
2, 8851, Note_on_c, 0, 67, 0
2, 8854, Note_on_c, 0, 79, 0
2, 8854, Note_on_c, 0, 43, 0
2, 8882, Control_c, 0, 64, 127
2, 8902, Note_on_c, 0, 71, 80
2, 8902, Note_on_c, 0, 83, 80
2, 8904, Note_on_c, 0, 68, 0
2, 8907, Note_on_c, 0, 80, 0
2, 8956, Note_on_c, 0, 56, 80
2, 8956, Note_on_c, 0, 59, 80
2, 8956, Note_on_c, 0, 64, 80
2, 8959, Note_on_c, 0, 76, 80
2, 8959, Note_on_c, 0, 88, 80
2, 8962, Note_on_c, 0, 71, 0
2, 8962, Note_on_c, 0, 83, 0
2, 8981, Control_c, 0, 64, 0
2, 9008, Note_on_c, 0, 80, 80
2, 9008, Note_on_c, 0, 92, 80
2, 9013, Note_on_c, 0, 76, 0
2, 9013, Note_on_c, 0, 56, 0
2, 9013, Note_on_c, 0, 59, 0
2, 9013, Note_on_c, 0, 64, 0
2, 9016, Note_on_c, 0, 88, 0
2, 9060, Note_on_c, 0, 35, 80
2, 9063, Note_on_c, 0, 47, 80
2, 9066, Note_on_c, 0, 40, 0
2, 9069, Note_on_c, 0, 52, 0
2, 9096, Note_on_c, 0, 92, 0
2, 9096, Note_on_c, 0, 80, 0
2, 9120, Note_on_c, 0, 47, 0
2, 9120, Note_on_c, 0, 35, 0
2, 9120, Note_on_c, 0, 76, 80
2, 9120, Note_on_c, 0, 88, 80
2, 9170, Note_on_c, 0, 56, 80
2, 9170, Note_on_c, 0, 59, 80
2, 9170, Note_on_c, 0, 71, 80
2, 9173, Note_on_c, 0, 64, 80
2, 9173, Note_on_c, 0, 83, 80
2, 9176, Note_on_c, 0, 76, 0
2, 9179, Note_on_c, 0, 88, 0
2, 9225, Note_on_c, 0, 56, 0
2, 9225, Note_on_c, 0, 68, 80
2, 9225, Note_on_c, 0, 80, 80
2, 9228, Note_on_c, 0, 59, 0
2, 9228, Note_on_c, 0, 64, 0
2, 9231, Note_on_c, 0, 71, 0
2, 9231, Note_on_c, 0, 83, 0
2, 9275, Note_on_c, 0, 35, 80
2, 9278, Note_on_c, 0, 47, 80
2, 9283, Note_on_c, 0, 75, 80
2, 9283, Note_on_c, 0, 83, 80
2, 9283, Note_on_c, 0, 87, 80
2, 9286, Note_on_c, 0, 68, 0
2, 9288, Note_on_c, 0, 80, 0
2, 9288, Control_c, 0, 64, 127
2, 9349, Control_c, 0, 64, 0
2, 9366, Note_on_c, 0, 83, 0
2, 9366, Note_on_c, 0, 75, 0
2, 9366, Note_on_c, 0, 87, 0
2, 9388, Note_on_c, 0, 57, 80
2, 9388, Note_on_c, 0, 59, 80
2, 9388, Note_on_c, 0, 63, 80
2, 9391, Note_on_c, 0, 73, 80
2, 9391, Note_on_c, 0, 81, 80
2, 9391, Note_on_c, 0, 85, 80
2, 9471, Note_on_c, 0, 47, 0
2, 9471, Note_on_c, 0, 35, 0
2, 9474, Note_on_c, 0, 73, 0
2, 9474, Note_on_c, 0, 81, 0
2, 9477, Note_on_c, 0, 85, 0
2, 9491, Note_on_c, 0, 40, 80
2, 9494, Note_on_c, 0, 52, 80
2, 9494, Note_on_c, 0, 71, 80
2, 9494, Note_on_c, 0, 80, 80
2, 9494, Note_on_c, 0, 83, 80
2, 9538, Note_on_c, 0, 59, 0
2, 9538, Note_on_c, 0, 63, 0
2, 9538, Note_on_c, 0, 57, 0
2, 9599, Note_on_c, 0, 56, 80
2, 9599, Note_on_c, 0, 59, 80
2, 9599, Note_on_c, 0, 64, 80
2, 9672, Note_on_c, 0, 71, 0
2, 9672, Note_on_c, 0, 80, 0
2, 9674, Note_on_c, 0, 83, 0
2, 9682, Note_on_c, 0, 40, 0
2, 9685, Note_on_c, 0, 52, 0
2, 9707, Note_on_c, 0, 42, 80
2, 9710, Note_on_c, 0, 54, 80
2, 9713, Note_on_c, 0, 81, 80
2, 9713, Note_on_c, 0, 93, 80
2, 9735, Control_c, 0, 64, 127
2, 9743, Note_on_c, 0, 59, 0
2, 9743, Note_on_c, 0, 56, 0
2, 9745, Note_on_c, 0, 64, 0
2, 9768, Note_on_c, 0, 54, 0
2, 9768, Note_on_c, 0, 42, 0
2, 9768, Note_on_c, 0, 87, 80
2, 9770, Note_on_c, 0, 93, 0
2, 9770, Note_on_c, 0, 81, 0
2, 9792, Control_c, 0, 64, 0
2, 9819, Note_on_c, 0, 57, 80
2, 9822, Note_on_c, 0, 59, 80
2, 9822, Note_on_c, 0, 63, 80
2, 9822, Note_on_c, 0, 90, 80
2, 9827, Note_on_c, 0, 87, 0
2, 9878, Note_on_c, 0, 81, 80
2, 9878, Note_on_c, 0, 93, 80
2, 9881, Note_on_c, 0, 63, 0
2, 9881, Note_on_c, 0, 57, 0
2, 9881, Note_on_c, 0, 59, 0
2, 9884, Note_on_c, 0, 90, 0
2, 9928, Note_on_c, 0, 42, 80
2, 9931, Note_on_c, 0, 54, 80
2, 9950, Note_on_c, 0, 81, 0
2, 9950, Note_on_c, 0, 93, 0
2, 9984, Note_on_c, 0, 90, 80
2, 9986, Note_on_c, 0, 42, 0
2, 9986, Note_on_c, 0, 87, 80
2, 10001, Note_on_c, 0, 54, 0
2, 10032, Note_on_c, 0, 43, 80
2, 10035, Note_on_c, 0, 55, 80
2, 10038, Note_on_c, 0, 82, 80
2, 10038, Note_on_c, 0, 94, 80
2, 10043, Note_on_c, 0, 87, 0
2, 10043, Note_on_c, 0, 90, 0
2, 10084, Note_on_c, 0, 82, 0
2, 10092, Note_on_c, 0, 83, 80
2, 10095, Note_on_c, 0, 55, 0
2, 10095, Note_on_c, 0, 43, 0
2, 10095, Note_on_c, 0, 95, 80
2, 10098, Note_on_c, 0, 94, 0
2, 10142, Note_on_c, 0, 44, 80
2, 10145, Note_on_c, 0, 56, 80
2, 10152, Note_on_c, 0, 95, 0
2, 10152, Note_on_c, 0, 83, 0
2, 10179, Control_c, 0, 64, 127
2, 10197, Note_on_c, 0, 45, 80
2, 10197, Note_on_c, 0, 57, 80
2, 10200, Note_on_c, 0, 44, 0
2, 10200, Note_on_c, 0, 83, 80
2, 10200, Note_on_c, 0, 95, 80
2, 10202, Note_on_c, 0, 56, 0
2, 10236, Control_c, 0, 64, 0
2, 10248, Note_on_c, 0, 47, 80
2, 10248, Note_on_c, 0, 59, 80
2, 10251, Note_on_c, 0, 80, 80
2, 10251, Note_on_c, 0, 92, 80
2, 10254, Note_on_c, 0, 57, 0
2, 10254, Note_on_c, 0, 45, 0
2, 10257, Note_on_c, 0, 95, 0
2, 10257, Note_on_c, 0, 83, 0
2, 10301, Note_on_c, 0, 46, 80
2, 10301, Note_on_c, 0, 58, 80
2, 10301, Note_on_c, 0, 76, 80
2, 10304, Note_on_c, 0, 88, 80
2, 10307, Note_on_c, 0, 47, 0
2, 10310, Note_on_c, 0, 59, 0
2, 10310, Note_on_c, 0, 80, 0
2, 10310, Note_on_c, 0, 92, 0
2, 10354, Note_on_c, 0, 45, 80
2, 10357, Note_on_c, 0, 57, 80
2, 10357, Note_on_c, 0, 73, 80
2, 10357, Note_on_c, 0, 85, 80
2, 10360, Note_on_c, 0, 46, 0
2, 10360, Note_on_c, 0, 58, 0
2, 10363, Note_on_c, 0, 76, 0
2, 10363, Note_on_c, 0, 88, 0
2, 10412, Note_on_c, 0, 45, 0
2, 10412, Note_on_c, 0, 72, 80
2, 10412, Note_on_c, 0, 84, 80
2, 10415, Note_on_c, 0, 73, 0
2, 10415, Note_on_c, 0, 57, 0
2, 10419, Note_on_c, 0, 85, 0
2, 10464, Note_on_c, 0, 44, 80
2, 10466, Note_on_c, 0, 56, 80
2, 10466, Note_on_c, 0, 71, 80
2, 10469, Note_on_c, 0, 83, 80
2, 10472, Note_on_c, 0, 84, 0
2, 10472, Note_on_c, 0, 72, 0
2, 10518, Note_on_c, 0, 42, 80
2, 10518, Note_on_c, 0, 54, 80
2, 10518, Note_on_c, 0, 69, 80
2, 10521, Note_on_c, 0, 44, 0
2, 10521, Note_on_c, 0, 81, 80
2, 10524, Note_on_c, 0, 56, 0
2, 10524, Note_on_c, 0, 71, 0
2, 10527, Note_on_c, 0, 83, 0
2, 10571, Note_on_c, 0, 40, 80
2, 10574, Note_on_c, 0, 52, 80
2, 10574, Note_on_c, 0, 80, 80
2, 10577, Note_on_c, 0, 42, 0
2, 10577, Note_on_c, 0, 54, 0
2, 10577, Note_on_c, 0, 69, 0
2, 10577, Note_on_c, 0, 81, 0
2, 10577, Note_on_c, 0, 68, 80
2, 10580, Control_c, 0, 64, 127
2, 10626, Note_on_c, 0, 71, 80
2, 10629, Note_on_c, 0, 83, 80
2, 10632, Note_on_c, 0, 68, 0
2, 10634, Note_on_c, 0, 80, 0
2, 10676, Note_on_c, 0, 59, 80
2, 10679, Control_c, 0, 64, 0
2, 10679, Note_on_c, 0, 56, 80
2, 10679, Note_on_c, 0, 64, 80
2, 10681, Note_on_c, 0, 76, 80
2, 10681, Note_on_c, 0, 88, 80
2, 10684, Note_on_c, 0, 71, 0
2, 10687, Note_on_c, 0, 83, 0
2, 10733, Note_on_c, 0, 80, 80
2, 10733, Note_on_c, 0, 92, 80
2, 10736, Note_on_c, 0, 59, 0
2, 10736, Note_on_c, 0, 56, 0
2, 10736, Note_on_c, 0, 64, 0
2, 10739, Note_on_c, 0, 88, 0
2, 10739, Note_on_c, 0, 76, 0
2, 10761, Note_on_c, 0, 40, 0
2, 10761, Note_on_c, 0, 52, 0
2, 10778, Note_on_c, 0, 35, 80
2, 10781, Note_on_c, 0, 47, 80
2, 10815, Note_on_c, 0, 80, 0
2, 10815, Note_on_c, 0, 92, 0
2, 10839, Note_on_c, 0, 76, 80
2, 10839, Note_on_c, 0, 88, 80
2, 10885, Note_on_c, 0, 56, 80
2, 10888, Note_on_c, 0, 64, 80
2, 10888, Note_on_c, 0, 71, 80
2, 10891, Note_on_c, 0, 59, 80
2, 10891, Note_on_c, 0, 83, 80
2, 10896, Note_on_c, 0, 88, 0
2, 10896, Note_on_c, 0, 76, 0
2, 10944, Note_on_c, 0, 68, 80
2, 10947, Note_on_c, 0, 47, 0
2, 10947, Note_on_c, 0, 56, 0
2, 10947, Note_on_c, 0, 35, 0
2, 10947, Note_on_c, 0, 80, 80
2, 10950, Note_on_c, 0, 64, 0
2, 10950, Note_on_c, 0, 83, 0
2, 10950, Note_on_c, 0, 59, 0
2, 10950, Note_on_c, 0, 71, 0
2, 10968, Control_c, 0, 64, 127
2, 10994, Note_on_c, 0, 35, 80
2, 10997, Note_on_c, 0, 47, 80
2, 11002, Note_on_c, 0, 75, 80
2, 11002, Note_on_c, 0, 83, 80
2, 11002, Note_on_c, 0, 87, 80
2, 11005, Note_on_c, 0, 68, 0
2, 11008, Note_on_c, 0, 80, 0
2, 11088, Note_on_c, 0, 75, 0
2, 11088, Note_on_c, 0, 87, 0
2, 11090, Note_on_c, 0, 83, 0
2, 11110, Note_on_c, 0, 59, 80
2, 11110, Note_on_c, 0, 63, 80
2, 11110, Note_on_c, 0, 73, 80
2, 11112, Control_c, 0, 64, 0
2, 11112, Note_on_c, 0, 81, 80
2, 11112, Note_on_c, 0, 85, 80
2, 11181, Note_on_c, 0, 73, 0
2, 11181, Note_on_c, 0, 63, 0
2, 11181, Note_on_c, 0, 59, 0
2, 11184, Note_on_c, 0, 81, 0
2, 11184, Note_on_c, 0, 85, 0
2, 11215, Note_on_c, 0, 52, 80
2, 11218, Note_on_c, 0, 71, 80
2, 11218, Note_on_c, 0, 80, 80
2, 11218, Note_on_c, 0, 83, 80
2, 11221, Note_on_c, 0, 47, 0
2, 11221, Note_on_c, 0, 35, 0
2, 11291, Note_on_c, 0, 52, 0
2, 11291, Note_on_c, 0, 71, 0
2, 11291, Note_on_c, 0, 83, 0
2, 11294, Note_on_c, 0, 80, 0
2, 11328, Note_on_c, 0, 53, 80
2, 11328, Note_on_c, 0, 56, 80
2, 11328, Note_on_c, 0, 59, 80
2, 11328, Note_on_c, 0, 62, 80
2, 11328, Note_on_c, 0, 80, 80
2, 11328, Note_on_c, 0, 92, 80
2, 11400, Note_on_c, 0, 92, 0
2, 11400, Note_on_c, 0, 56, 0
2, 11400, Note_on_c, 0, 59, 0
2, 11400, Note_on_c, 0, 53, 0
2, 11400, Note_on_c, 0, 62, 0
2, 11403, Note_on_c, 0, 80, 0
2, 11437, Note_on_c, 0, 54, 80
2, 11437, Note_on_c, 0, 59, 80
2, 11437, Note_on_c, 0, 63, 80
2, 11437, Note_on_c, 0, 78, 80
2, 11437, Note_on_c, 0, 90, 80
2, 11459, Control_c, 0, 64, 127
2, 11491, Note_on_c, 0, 71, 80
2, 11491, Note_on_c, 0, 83, 80
2, 11496, Note_on_c, 0, 90, 0
2, 11496, Note_on_c, 0, 78, 0
2, 11518, Control_c, 0, 64, 0
2, 11544, Note_on_c, 0, 75, 80
2, 11544, Note_on_c, 0, 87, 80
2, 11547, Note_on_c, 0, 71, 0
2, 11547, Note_on_c, 0, 83, 0
2, 11592, Note_on_c, 0, 87, 0
2, 11596, Note_on_c, 0, 85, 80
2, 11599, Note_on_c, 0, 89, 80
2, 11602, Note_on_c, 0, 80, 80
2, 11602, Note_on_c, 0, 83, 80
2, 11602, Note_on_c, 0, 92, 80
2, 11605, Note_on_c, 0, 75, 0
2, 11632, Note_on_c, 0, 59, 0
2, 11632, Note_on_c, 0, 54, 0
2, 11632, Note_on_c, 0, 63, 0
2, 11654, Note_on_c, 0, 49, 80
2, 11654, Note_on_c, 0, 61, 80
2, 11662, Note_on_c, 0, 89, 0
2, 11662, Note_on_c, 0, 83, 0
2, 11662, Note_on_c, 0, 92, 0
2, 11662, Note_on_c, 0, 85, 0
2, 11662, Note_on_c, 0, 80, 0
2, 11708, Note_on_c, 0, 80, 80
2, 11708, Note_on_c, 0, 83, 80
2, 11708, Note_on_c, 0, 85, 80
2, 11708, Note_on_c, 0, 89, 80
2, 11708, Note_on_c, 0, 92, 80
2, 11711, Note_on_c, 0, 61, 0
2, 11711, Note_on_c, 0, 49, 0
2, 11728, Note_on_c, 0, 85, 0
2, 11757, Note_on_c, 0, 42, 80
2, 11757, Note_on_c, 0, 54, 80
2, 11760, Note_on_c, 0, 82, 80
2, 11760, Note_on_c, 0, 85, 80
2, 11762, Note_on_c, 0, 88, 80
2, 11762, Note_on_c, 0, 94, 80
2, 11765, Note_on_c, 0, 83, 0
2, 11768, Note_on_c, 0, 89, 0
2, 11768, Note_on_c, 0, 80, 0
2, 11768, Note_on_c, 0, 92, 0
2, 11817, Note_on_c, 0, 42, 0
2, 11817, Note_on_c, 0, 54, 0
2, 11820, Note_on_c, 0, 88, 0
2, 11820, Note_on_c, 0, 94, 0
2, 11820, Note_on_c, 0, 85, 0
2, 11820, Note_on_c, 0, 82, 0
2, 11869, Note_on_c, 0, 47, 80
2, 11869, Note_on_c, 0, 59, 80
2, 11869, Note_on_c, 0, 83, 80
2, 11872, Note_on_c, 0, 87, 80
2, 11872, Note_on_c, 0, 90, 80
2, 11872, Note_on_c, 0, 95, 80
2, 11905, Control_c, 0, 64, 127
2, 11920, Note_on_c, 0, 46, 80
2, 11920, Note_on_c, 0, 58, 80
2, 11925, Note_on_c, 0, 59, 0
2, 11937, Note_on_c, 0, 47, 0
2, 11959, Control_c, 0, 64, 0
2, 11974, Note_on_c, 0, 45, 80
2, 11974, Note_on_c, 0, 57, 80
2, 11978, Note_on_c, 0, 58, 0
2, 11978, Note_on_c, 0, 46, 0
2, 12017, Note_on_c, 0, 57, 0
2, 12026, Note_on_c, 0, 47, 80
2, 12026, Note_on_c, 0, 59, 80
2, 12029, Note_on_c, 0, 45, 0
2, 12078, Note_on_c, 0, 44, 80
2, 12078, Note_on_c, 0, 56, 80
2, 12083, Note_on_c, 0, 47, 0
2, 12083, Note_on_c, 0, 59, 0
2, 12134, Note_on_c, 0, 43, 80
2, 12134, Note_on_c, 0, 55, 80
2, 12137, Note_on_c, 0, 44, 0
2, 12140, Note_on_c, 0, 56, 0
2, 12189, Note_on_c, 0, 42, 80
2, 12192, Note_on_c, 0, 54, 80
2, 12194, Note_on_c, 0, 43, 0
2, 12197, Note_on_c, 0, 87, 0
2, 12197, Note_on_c, 0, 55, 0
2, 12197, Note_on_c, 0, 83, 0
2, 12200, Note_on_c, 0, 90, 0
2, 12200, Note_on_c, 0, 95, 0
2, 12244, Note_on_c, 0, 41, 80
2, 12247, Note_on_c, 0, 53, 80
2, 12250, Note_on_c, 0, 42, 0
2, 12253, Note_on_c, 0, 54, 0
2, 12302, Note_on_c, 0, 40, 80
2, 12305, Note_on_c, 0, 52, 80
2, 12305, Note_on_c, 0, 68, 80
2, 12305, Note_on_c, 0, 80, 80
2, 12308, Note_on_c, 0, 41, 0
2, 12308, Note_on_c, 0, 53, 0
2, 12357, Control_c, 0, 64, 127
2, 12357, Note_on_c, 0, 83, 80
2, 12360, Note_on_c, 0, 71, 80
2, 12362, Note_on_c, 0, 68, 0
2, 12362, Note_on_c, 0, 80, 0
2, 12411, Note_on_c, 0, 56, 80
2, 12411, Note_on_c, 0, 59, 80
2, 12411, Note_on_c, 0, 64, 80
2, 12411, Note_on_c, 0, 76, 80
2, 12411, Note_on_c, 0, 88, 80
2, 12416, Note_on_c, 0, 83, 0
2, 12416, Note_on_c, 0, 71, 0
2, 12465, Note_on_c, 0, 80, 80
2, 12465, Note_on_c, 0, 92, 80
2, 12468, Note_on_c, 0, 76, 0
2, 12468, Note_on_c, 0, 56, 0
2, 12468, Note_on_c, 0, 59, 0
2, 12468, Note_on_c, 0, 64, 0
2, 12471, Note_on_c, 0, 88, 0
2, 12493, Control_c, 0, 64, 0
2, 12515, Note_on_c, 0, 35, 80
2, 12518, Note_on_c, 0, 47, 80
2, 12521, Note_on_c, 0, 40, 0
2, 12524, Note_on_c, 0, 52, 0
2, 12552, Note_on_c, 0, 92, 0
2, 12552, Note_on_c, 0, 80, 0
2, 12575, Note_on_c, 0, 76, 80
2, 12577, Note_on_c, 0, 47, 0
2, 12577, Note_on_c, 0, 35, 0
2, 12577, Note_on_c, 0, 88, 80
2, 12628, Note_on_c, 0, 56, 80
2, 12628, Note_on_c, 0, 59, 80
2, 12628, Note_on_c, 0, 64, 80
2, 12628, Note_on_c, 0, 71, 80
2, 12628, Note_on_c, 0, 83, 80
2, 12633, Note_on_c, 0, 88, 0
2, 12633, Note_on_c, 0, 76, 0
2, 12679, Note_on_c, 0, 68, 80
2, 12679, Note_on_c, 0, 80, 80
2, 12684, Note_on_c, 0, 56, 0
2, 12684, Note_on_c, 0, 71, 0
2, 12684, Note_on_c, 0, 59, 0
2, 12684, Note_on_c, 0, 83, 0
2, 12708, Note_on_c, 0, 64, 0
2, 12730, Note_on_c, 0, 35, 80
2, 12730, Note_on_c, 0, 47, 80
2, 12730, Note_on_c, 0, 83, 80
2, 12733, Note_on_c, 0, 75, 80
2, 12733, Note_on_c, 0, 87, 80
2, 12736, Note_on_c, 0, 68, 0
2, 12736, Note_on_c, 0, 80, 0
2, 12787, Note_on_c, 0, 47, 0
2, 12787, Note_on_c, 0, 35, 0
2, 12794, Control_c, 0, 64, 127
2, 12816, Note_on_c, 0, 87, 0
2, 12816, Note_on_c, 0, 83, 0
2, 12816, Note_on_c, 0, 75, 0
2, 12839, Note_on_c, 0, 59, 80
2, 12839, Note_on_c, 0, 63, 80
2, 12841, Note_on_c, 0, 57, 80
2, 12841, Note_on_c, 0, 73, 80
2, 12841, Note_on_c, 0, 81, 80
2, 12841, Note_on_c, 0, 85, 80
2, 12851, Control_c, 0, 64, 0
2, 12897, Note_on_c, 0, 57, 0
2, 12897, Note_on_c, 0, 59, 0
2, 12897, Note_on_c, 0, 63, 0
2, 12921, Note_on_c, 0, 73, 0
2, 12921, Note_on_c, 0, 81, 0
2, 12924, Note_on_c, 0, 85, 0
2, 12943, Note_on_c, 0, 40, 80
2, 12946, Note_on_c, 0, 52, 80
2, 12946, Note_on_c, 0, 71, 80
2, 12946, Note_on_c, 0, 80, 80
2, 12946, Note_on_c, 0, 83, 80
2, 13002, Note_on_c, 0, 52, 0
2, 13002, Note_on_c, 0, 40, 0
2, 13053, Note_on_c, 0, 56, 80
2, 13053, Note_on_c, 0, 59, 80
2, 13053, Note_on_c, 0, 64, 80
2, 13118, Note_on_c, 0, 64, 0
2, 13118, Note_on_c, 0, 56, 0
2, 13118, Note_on_c, 0, 71, 0
2, 13118, Note_on_c, 0, 59, 0
2, 13121, Note_on_c, 0, 83, 0
2, 13121, Note_on_c, 0, 80, 0
2, 13150, Control_c, 0, 64, 127
2, 13152, Note_on_c, 0, 42, 80
2, 13152, Note_on_c, 0, 54, 80
2, 13155, Note_on_c, 0, 81, 80
2, 13155, Note_on_c, 0, 93, 80
2, 13206, Note_on_c, 0, 87, 80
2, 13209, Note_on_c, 0, 54, 0
2, 13209, Note_on_c, 0, 42, 0
2, 13212, Note_on_c, 0, 93, 0
2, 13212, Note_on_c, 0, 81, 0
2, 13250, Control_c, 0, 64, 0
2, 13260, Note_on_c, 0, 90, 80
2, 13263, Note_on_c, 0, 57, 80
2, 13263, Note_on_c, 0, 59, 80
2, 13263, Note_on_c, 0, 63, 80
2, 13268, Note_on_c, 0, 87, 0
2, 13319, Note_on_c, 0, 81, 80
2, 13319, Note_on_c, 0, 93, 80
2, 13321, Note_on_c, 0, 59, 0
2, 13321, Note_on_c, 0, 63, 0
2, 13321, Note_on_c, 0, 90, 0
2, 13321, Note_on_c, 0, 57, 0
2, 13370, Note_on_c, 0, 42, 80
2, 13370, Note_on_c, 0, 54, 80
2, 13402, Note_on_c, 0, 81, 0
2, 13405, Note_on_c, 0, 93, 0
2, 13427, Note_on_c, 0, 86, 80
2, 13427, Note_on_c, 0, 90, 80
2, 13430, Note_on_c, 0, 42, 0
2, 13430, Note_on_c, 0, 54, 0
2, 13479, Note_on_c, 0, 43, 80
2, 13479, Note_on_c, 0, 55, 80
2, 13479, Note_on_c, 0, 82, 80
2, 13479, Note_on_c, 0, 94, 80
2, 13484, Note_on_c, 0, 86, 0
2, 13484, Note_on_c, 0, 90, 0
2, 13520, Note_on_c, 0, 43, 0
2, 13523, Note_on_c, 0, 55, 0
2, 13523, Note_on_c, 0, 82, 0
2, 13523, Note_on_c, 0, 94, 0
2, 13531, Note_on_c, 0, 83, 80
2, 13534, Note_on_c, 0, 95, 80
2, 13584, Note_on_c, 0, 44, 80
2, 13584, Note_on_c, 0, 56, 80
2, 13592, Note_on_c, 0, 95, 0
2, 13592, Note_on_c, 0, 83, 0
2, 13597, Control_c, 0, 64, 127
2, 13638, Note_on_c, 0, 45, 80
2, 13638, Note_on_c, 0, 57, 80
2, 13641, Note_on_c, 0, 95, 80
2, 13644, Note_on_c, 0, 44, 0
2, 13644, Note_on_c, 0, 56, 0
2, 13690, Note_on_c, 0, 47, 80
2, 13693, Note_on_c, 0, 59, 80
2, 13693, Note_on_c, 0, 92, 80
2, 13696, Note_on_c, 0, 45, 0
2, 13696, Control_c, 0, 64, 0
2, 13699, Note_on_c, 0, 95, 0
2, 13699, Note_on_c, 0, 57, 0
2, 13745, Note_on_c, 0, 46, 80
2, 13745, Note_on_c, 0, 58, 80
2, 13745, Note_on_c, 0, 88, 80
2, 13750, Note_on_c, 0, 47, 0
2, 13750, Note_on_c, 0, 92, 0
2, 13750, Note_on_c, 0, 59, 0
2, 13788, Note_on_c, 0, 46, 0
2, 13788, Note_on_c, 0, 58, 0
2, 13796, Note_on_c, 0, 45, 80
2, 13799, Note_on_c, 0, 57, 80
2, 13799, Note_on_c, 0, 85, 80
2, 13803, Note_on_c, 0, 88, 0
2, 13849, Note_on_c, 0, 84, 80
2, 13852, Note_on_c, 0, 45, 0
2, 13855, Note_on_c, 0, 57, 0
2, 13870, Note_on_c, 0, 85, 0
2, 13903, Note_on_c, 0, 44, 80
2, 13903, Note_on_c, 0, 56, 80
2, 13903, Note_on_c, 0, 83, 80
2, 13908, Note_on_c, 0, 84, 0
2, 13959, Note_on_c, 0, 44, 0
2, 13959, Note_on_c, 0, 56, 0
2, 13962, Note_on_c, 0, 83, 0
2, 14011, Note_on_c, 0, 45, 80
2, 14011, Note_on_c, 0, 57, 80
2, 14014, Note_on_c, 0, 85, 80
2, 14014, Note_on_c, 0, 97, 80
2, 14036, Control_c, 0, 64, 127
2, 14064, Note_on_c, 0, 93, 80
2, 14069, Note_on_c, 0, 85, 0
2, 14069, Note_on_c, 0, 45, 0
2, 14069, Note_on_c, 0, 57, 0
2, 14072, Note_on_c, 0, 97, 0
2, 14094, Control_c, 0, 64, 0
2, 14118, Note_on_c, 0, 57, 80
2, 14118, Note_on_c, 0, 61, 80
2, 14118, Note_on_c, 0, 66, 80
2, 14118, Note_on_c, 0, 95, 80
2, 14123, Note_on_c, 0, 93, 0
2, 14172, Note_on_c, 0, 87, 80
2, 14175, Note_on_c, 0, 57, 0
2, 14175, Note_on_c, 0, 99, 80
2, 14178, Note_on_c, 0, 95, 0
2, 14178, Note_on_c, 0, 66, 0
2, 14178, Note_on_c, 0, 61, 0
2, 14224, Note_on_c, 0, 45, 80
2, 14227, Note_on_c, 0, 57, 80
2, 14251, Note_on_c, 0, 87, 0
2, 14251, Note_on_c, 0, 99, 0
2, 14263, Note_on_c, 0, 45, 0
2, 14263, Note_on_c, 0, 57, 0
2, 14276, Note_on_c, 0, 93, 80
2, 14327, Note_on_c, 0, 43, 80
2, 14329, Note_on_c, 0, 55, 80
2, 14329, Note_on_c, 0, 85, 80
2, 14329, Note_on_c, 0, 97, 80
2, 14334, Note_on_c, 0, 93, 0
2, 14388, Note_on_c, 0, 43, 0
2, 14391, Note_on_c, 0, 85, 0
2, 14391, Note_on_c, 0, 55, 0
2, 14391, Note_on_c, 0, 97, 0
2, 14440, Control_c, 0, 64, 127
2, 14440, Note_on_c, 0, 44, 80
2, 14440, Note_on_c, 0, 83, 80
2, 14443, Note_on_c, 0, 56, 80
2, 14443, Note_on_c, 0, 95, 80
2, 14498, Note_on_c, 0, 83, 0
2, 14498, Control_c, 0, 64, 0
2, 14498, Note_on_c, 0, 88, 80
2, 14498, Note_on_c, 0, 92, 80
2, 14501, Note_on_c, 0, 95, 0
2, 14501, Note_on_c, 0, 56, 0
2, 14550, Note_on_c, 0, 56, 80
2, 14550, Note_on_c, 0, 59, 80
2, 14550, Note_on_c, 0, 64, 80
2, 14550, Note_on_c, 0, 85, 80
2, 14550, Note_on_c, 0, 97, 80
2, 14555, Note_on_c, 0, 92, 0
2, 14555, Note_on_c, 0, 88, 0
2, 14604, Note_on_c, 0, 88, 80
2, 14604, Note_on_c, 0, 92, 80
2, 14607, Note_on_c, 0, 83, 80
2, 14607, Note_on_c, 0, 95, 80
2, 14610, Note_on_c, 0, 85, 0
2, 14610, Note_on_c, 0, 97, 0
2, 14610, Note_on_c, 0, 59, 0
2, 14610, Note_on_c, 0, 56, 0
2, 14610, Note_on_c, 0, 64, 0
2, 14648, Note_on_c, 0, 92, 0
2, 14658, Note_on_c, 0, 56, 80
2, 14658, Note_on_c, 0, 59, 80
2, 14658, Note_on_c, 0, 64, 80
2, 14709, Note_on_c, 0, 92, 80
2, 14713, Note_on_c, 0, 83, 0
2, 14713, Note_on_c, 0, 95, 0
2, 14716, Note_on_c, 0, 88, 0
2, 14765, Note_on_c, 0, 88, 80
2, 14770, Note_on_c, 0, 59, 0
2, 14770, Note_on_c, 0, 44, 0
2, 14770, Note_on_c, 0, 56, 0
2, 14770, Note_on_c, 0, 92, 0
2, 14770, Note_on_c, 0, 64, 0
2, 14816, Note_on_c, 0, 65, 80
2, 14816, Note_on_c, 0, 77, 80
2, 14824, Note_on_c, 0, 88, 0
2, 14870, Note_on_c, 0, 35, 80
2, 14870, Note_on_c, 0, 47, 80
2, 14870, Note_on_c, 0, 66, 80
2, 14873, Note_on_c, 0, 78, 80
2, 14878, Note_on_c, 0, 77, 0
2, 14878, Note_on_c, 0, 65, 0
2, 14882, Control_c, 0, 64, 127
2, 14927, Note_on_c, 0, 71, 80
2, 14927, Note_on_c, 0, 83, 80
2, 14929, Note_on_c, 0, 47, 0
2, 14929, Note_on_c, 0, 35, 0
2, 14932, Note_on_c, 0, 66, 0
2, 14932, Note_on_c, 0, 78, 0
2, 14978, Note_on_c, 0, 57, 80
2, 14978, Note_on_c, 0, 63, 80
2, 14981, Control_c, 0, 64, 0
2, 14981, Note_on_c, 0, 59, 80
2, 14999, Note_on_c, 0, 83, 0
2, 14999, Note_on_c, 0, 71, 0
2, 15035, Note_on_c, 0, 65, 80
2, 15038, Note_on_c, 0, 77, 80
2, 15041, Note_on_c, 0, 63, 0
2, 15041, Note_on_c, 0, 59, 0
2, 15041, Note_on_c, 0, 57, 0
2, 15087, Note_on_c, 0, 39, 80
2, 15087, Note_on_c, 0, 51, 80
2, 15090, Note_on_c, 0, 66, 80
2, 15090, Note_on_c, 0, 78, 80
2, 15095, Note_on_c, 0, 65, 0
2, 15095, Note_on_c, 0, 77, 0
2, 15109, Note_on_c, 0, 78, 0
2, 15143, Note_on_c, 0, 78, 80
2, 15143, Note_on_c, 0, 81, 80
2, 15143, Note_on_c, 0, 90, 80
2, 15145, Note_on_c, 0, 39, 0
2, 15148, Note_on_c, 0, 51, 0
2, 15148, Note_on_c, 0, 66, 0
2, 15197, Note_on_c, 0, 54, 80
2, 15197, Note_on_c, 0, 57, 80
2, 15197, Note_on_c, 0, 59, 80
2, 15226, Note_on_c, 0, 78, 0
2, 15226, Note_on_c, 0, 81, 0
2, 15229, Note_on_c, 0, 90, 0
2, 15241, Note_on_c, 0, 54, 0
2, 15241, Note_on_c, 0, 59, 0
2, 15241, Note_on_c, 0, 57, 0
2, 15251, Note_on_c, 0, 76, 80
2, 15251, Note_on_c, 0, 80, 80
2, 15251, Note_on_c, 0, 88, 80
2, 15302, Note_on_c, 0, 52, 80
2, 15302, Note_on_c, 0, 56, 80
2, 15302, Note_on_c, 0, 59, 80
2, 15326, Control_c, 0, 64, 127
2, 15358, Note_on_c, 0, 59, 0
2, 15358, Note_on_c, 0, 52, 0
2, 15360, Note_on_c, 0, 88, 0
2, 15360, Note_on_c, 0, 76, 0
2, 15360, Note_on_c, 0, 80, 0
2, 15360, Note_on_c, 0, 56, 0
2, 15383, Control_c, 0, 64, 0
2, 15407, Note_on_c, 0, 59, 80
2, 15407, Note_on_c, 0, 71, 80
2, 15462, Note_on_c, 0, 61, 80
2, 15462, Note_on_c, 0, 73, 80
2, 15467, Note_on_c, 0, 71, 0
2, 15467, Note_on_c, 0, 59, 0
2, 15513, Note_on_c, 0, 63, 80
2, 15513, Note_on_c, 0, 75, 80
2, 15518, Note_on_c, 0, 73, 0
2, 15521, Note_on_c, 0, 61, 0
2, 15567, Note_on_c, 0, 64, 80
2, 15567, Note_on_c, 0, 76, 80
2, 15572, Note_on_c, 0, 63, 0
2, 15572, Note_on_c, 0, 75, 0
2, 15618, Note_on_c, 0, 66, 80
2, 15618, Note_on_c, 0, 78, 80
2, 15621, Note_on_c, 0, 64, 0
2, 15621, Note_on_c, 0, 76, 0
2, 15674, Note_on_c, 0, 68, 80
2, 15674, Note_on_c, 0, 80, 80
2, 15677, Note_on_c, 0, 66, 0
2, 15677, Note_on_c, 0, 78, 0
2, 15728, Control_c, 0, 64, 127
2, 15728, Note_on_c, 0, 42, 80
2, 15728, Note_on_c, 0, 54, 80
2, 15731, Note_on_c, 0, 69, 80
2, 15731, Note_on_c, 0, 81, 80
2, 15736, Note_on_c, 0, 68, 0
2, 15736, Note_on_c, 0, 80, 0
2, 15782, Note_on_c, 0, 75, 80
2, 15785, Note_on_c, 0, 69, 0
2, 15785, Note_on_c, 0, 42, 0
2, 15785, Note_on_c, 0, 81, 0
2, 15788, Note_on_c, 0, 54, 0
2, 15826, Control_c, 0, 64, 0
2, 15836, Note_on_c, 0, 57, 80
2, 15836, Note_on_c, 0, 63, 80
2, 15839, Note_on_c, 0, 59, 80
2, 15839, Note_on_c, 0, 78, 80
2, 15841, Note_on_c, 0, 75, 0
2, 15890, Note_on_c, 0, 75, 80
2, 15890, Note_on_c, 0, 80, 80
2, 15893, Note_on_c, 0, 69, 80
2, 15896, Note_on_c, 0, 59, 0
2, 15896, Note_on_c, 0, 78, 0
2, 15896, Note_on_c, 0, 57, 0
2, 15896, Note_on_c, 0, 63, 0
2, 15942, Note_on_c, 0, 35, 80
2, 15942, Note_on_c, 0, 47, 80
2, 15947, Note_on_c, 0, 75, 0
2, 15996, Note_on_c, 0, 75, 80
2, 15999, Note_on_c, 0, 35, 0
2, 16002, Note_on_c, 0, 47, 0
2, 16002, Note_on_c, 0, 69, 0
2, 16002, Note_on_c, 0, 80, 0
2, 16051, Note_on_c, 0, 57, 80
2, 16051, Note_on_c, 0, 59, 80
2, 16051, Note_on_c, 0, 63, 80
2, 16051, Note_on_c, 0, 66, 80
2, 16051, Note_on_c, 0, 69, 80
2, 16054, Note_on_c, 0, 78, 80
2, 16056, Note_on_c, 0, 75, 0
2, 16093, Note_on_c, 0, 59, 0
2, 16093, Note_on_c, 0, 66, 0
2, 16093, Note_on_c, 0, 63, 0
2, 16093, Note_on_c, 0, 57, 0
2, 16093, Note_on_c, 0, 78, 0
2, 16096, Note_on_c, 0, 69, 0
2, 16156, Note_on_c, 0, 39, 80
2, 16156, Note_on_c, 0, 51, 80
2, 16156, Note_on_c, 0, 54, 80
2, 16156, Note_on_c, 0, 66, 80
2, 16171, Control_c, 0, 64, 127
2, 16209, Note_on_c, 0, 53, 80
2, 16209, Note_on_c, 0, 65, 80
2, 16217, Note_on_c, 0, 66, 0
2, 16217, Note_on_c, 0, 54, 0
2, 16217, Note_on_c, 0, 39, 0
2, 16217, Note_on_c, 0, 51, 0
2, 16226, Control_c, 0, 64, 0
2, 16263, Note_on_c, 0, 54, 80
2, 16263, Note_on_c, 0, 57, 80
2, 16263, Note_on_c, 0, 59, 80
2, 16263, Note_on_c, 0, 63, 80
2, 16263, Note_on_c, 0, 66, 80
2, 16268, Note_on_c, 0, 65, 0
2, 16268, Note_on_c, 0, 53, 0
2, 16314, Note_on_c, 0, 61, 80
2, 16317, Note_on_c, 0, 73, 80
2, 16320, Note_on_c, 0, 59, 0
2, 16320, Note_on_c, 0, 63, 0
2, 16322, Note_on_c, 0, 54, 0
2, 16322, Note_on_c, 0, 66, 0
2, 16322, Note_on_c, 0, 57, 0
2, 16367, Note_on_c, 0, 35, 80
2, 16367, Note_on_c, 0, 47, 80
2, 16398, Note_on_c, 0, 73, 0
2, 16398, Note_on_c, 0, 61, 0
2, 16422, Note_on_c, 0, 35, 0
2, 16422, Note_on_c, 0, 47, 0
2, 16422, Note_on_c, 0, 59, 80
2, 16422, Note_on_c, 0, 71, 80
2, 16437, Note_on_c, 0, 59, 0
2, 16470, Note_on_c, 0, 54, 80
2, 16470, Note_on_c, 0, 57, 80
2, 16470, Note_on_c, 0, 59, 80
2, 16470, Note_on_c, 0, 63, 80
2, 16470, Note_on_c, 0, 66, 80
2, 16475, Note_on_c, 0, 71, 0
2, 16521, Note_on_c, 0, 55, 80
2, 16521, Note_on_c, 0, 67, 80
2, 16526, Note_on_c, 0, 57, 0
2, 16526, Note_on_c, 0, 63, 0
2, 16526, Note_on_c, 0, 54, 0
2, 16526, Note_on_c, 0, 59, 0
2, 16526, Note_on_c, 0, 66, 0
2, 16572, Note_on_c, 0, 40, 80
2, 16572, Note_on_c, 0, 52, 80
2, 16572, Note_on_c, 0, 56, 80
2, 16575, Note_on_c, 0, 68, 80
2, 16578, Note_on_c, 0, 67, 0
2, 16578, Note_on_c, 0, 55, 0
2, 16597, Control_c, 0, 64, 127
2, 16616, Note_on_c, 0, 56, 0
2, 16616, Note_on_c, 0, 52, 0
2, 16616, Note_on_c, 0, 68, 0
2, 16626, Note_on_c, 0, 47, 80
2, 16626, Note_on_c, 0, 59, 80
2, 16629, Note_on_c, 0, 40, 0
2, 16643, Note_on_c, 0, 59, 0
2, 16656, Control_c, 0, 64, 0
2, 16670, Note_on_c, 0, 47, 0
2, 16675, Note_on_c, 0, 59, 80
2, 16678, Note_on_c, 0, 49, 80
2, 16678, Note_on_c, 0, 56, 80
2, 16678, Note_on_c, 0, 61, 80
2, 16731, Note_on_c, 0, 50, 80
2, 16731, Note_on_c, 0, 62, 80
2, 16736, Note_on_c, 0, 61, 0
2, 16736, Note_on_c, 0, 56, 0
2, 16736, Note_on_c, 0, 59, 0
2, 16736, Note_on_c, 0, 49, 0
2, 16780, Note_on_c, 0, 35, 80
2, 16783, Note_on_c, 0, 47, 80
2, 16783, Note_on_c, 0, 51, 80
2, 16783, Note_on_c, 0, 63, 80
2, 16788, Note_on_c, 0, 62, 0
2, 16800, Note_on_c, 0, 50, 0
2, 16839, Note_on_c, 0, 52, 80
2, 16839, Note_on_c, 0, 64, 80
2, 16844, Note_on_c, 0, 51, 0
2, 16844, Note_on_c, 0, 35, 0
2, 16844, Note_on_c, 0, 47, 0
2, 16844, Note_on_c, 0, 63, 0
2, 16895, Note_on_c, 0, 54, 80
2, 16895, Note_on_c, 0, 57, 80
2, 16895, Note_on_c, 0, 59, 80
2, 16895, Note_on_c, 0, 63, 80
2, 16895, Note_on_c, 0, 66, 80
2, 16899, Note_on_c, 0, 52, 0
2, 16914, Note_on_c, 0, 64, 0
2, 16947, Note_on_c, 0, 67, 80
2, 16950, Note_on_c, 0, 55, 80
2, 16953, Note_on_c, 0, 54, 0
2, 16953, Note_on_c, 0, 63, 0
2, 16953, Note_on_c, 0, 57, 0
2, 16953, Note_on_c, 0, 59, 0
2, 16953, Note_on_c, 0, 66, 0
2, 17004, Note_on_c, 0, 40, 80
2, 17004, Note_on_c, 0, 52, 80
2, 17004, Note_on_c, 0, 68, 80
2, 17007, Note_on_c, 0, 56, 80
2, 17012, Note_on_c, 0, 55, 0
2, 17012, Note_on_c, 0, 67, 0
2, 17043, Control_c, 0, 64, 127
2, 17056, Note_on_c, 0, 67, 80
2, 17059, Note_on_c, 0, 55, 80
2, 17062, Note_on_c, 0, 68, 0
2, 17062, Note_on_c, 0, 40, 0
2, 17062, Note_on_c, 0, 52, 0
2, 17062, Note_on_c, 0, 56, 0
2, 17100, Control_c, 0, 64, 0
2, 17114, Note_on_c, 0, 56, 80
2, 17114, Note_on_c, 0, 59, 80
2, 17114, Note_on_c, 0, 64, 80
2, 17114, Note_on_c, 0, 68, 80
2, 17117, Note_on_c, 0, 55, 0
2, 17120, Note_on_c, 0, 67, 0
2, 17133, Note_on_c, 0, 68, 0
2, 17166, Note_on_c, 0, 68, 80
2, 17169, Note_on_c, 0, 66, 80
2, 17169, Note_on_c, 0, 71, 80
2, 17169, Note_on_c, 0, 78, 80
2, 17174, Note_on_c, 0, 59, 0
2, 17174, Note_on_c, 0, 56, 0
2, 17174, Note_on_c, 0, 64, 0
2, 17223, Note_on_c, 0, 35, 80
2, 17223, Note_on_c, 0, 47, 80
2, 17252, Note_on_c, 0, 66, 0
2, 17252, Note_on_c, 0, 78, 0
2, 17252, Note_on_c, 0, 71, 0
2, 17255, Note_on_c, 0, 68, 0
2, 17274, Note_on_c, 0, 64, 80
2, 17274, Note_on_c, 0, 76, 80
2, 17279, Note_on_c, 0, 35, 0
2, 17279, Note_on_c, 0, 47, 0
2, 17293, Note_on_c, 0, 64, 0
2, 17327, Note_on_c, 0, 56, 80
2, 17327, Note_on_c, 0, 59, 80
2, 17327, Note_on_c, 0, 64, 80
2, 17327, Note_on_c, 0, 66, 80
2, 17334, Note_on_c, 0, 76, 0
2, 17344, Note_on_c, 0, 56, 0
2, 17380, Note_on_c, 0, 56, 80
2, 17383, Note_on_c, 0, 68, 80
2, 17386, Note_on_c, 0, 64, 0
2, 17386, Note_on_c, 0, 66, 0
2, 17386, Note_on_c, 0, 59, 0
2, 17437, Note_on_c, 0, 42, 80
2, 17437, Note_on_c, 0, 54, 80
2, 17437, Note_on_c, 0, 57, 80
2, 17437, Note_on_c, 0, 69, 80
2, 17440, Note_on_c, 0, 56, 0
2, 17440, Note_on_c, 0, 68, 0
2, 17449, Control_c, 0, 64, 127
2, 17486, Note_on_c, 0, 71, 80
2, 17486, Note_on_c, 0, 83, 80
2, 17489, Note_on_c, 0, 42, 0
2, 17492, Note_on_c, 0, 69, 0
2, 17492, Note_on_c, 0, 54, 0
2, 17492, Note_on_c, 0, 57, 0
2, 17541, Note_on_c, 0, 57, 80
2, 17541, Note_on_c, 0, 59, 80
2, 17541, Note_on_c, 0, 63, 80
2, 17541, Note_on_c, 0, 69, 80
2, 17541, Note_on_c, 0, 81, 80
2, 17545, Note_on_c, 0, 83, 0
2, 17545, Note_on_c, 0, 71, 0
2, 17584, Control_c, 0, 64, 0
2, 17593, Note_on_c, 0, 66, 80
2, 17596, Note_on_c, 0, 78, 80
2, 17599, Note_on_c, 0, 57, 0
2, 17599, Note_on_c, 0, 69, 0
2, 17599, Note_on_c, 0, 59, 0
2, 17599, Note_on_c, 0, 63, 0
2, 17599, Note_on_c, 0, 81, 0
2, 17648, Note_on_c, 0, 35, 80
2, 17651, Note_on_c, 0, 47, 80
2, 17651, Note_on_c, 0, 63, 80
2, 17651, Note_on_c, 0, 75, 80
2, 17654, Note_on_c, 0, 78, 0
2, 17654, Note_on_c, 0, 66, 0
2, 17668, Note_on_c, 0, 75, 0
2, 17702, Note_on_c, 0, 83, 80
2, 17705, Note_on_c, 0, 71, 80
2, 17705, Note_on_c, 0, 75, 80
2, 17705, Note_on_c, 0, 81, 80
2, 17708, Note_on_c, 0, 47, 0
2, 17708, Note_on_c, 0, 35, 0
2, 17708, Note_on_c, 0, 63, 0
2, 17757, Note_on_c, 0, 57, 80
2, 17760, Note_on_c, 0, 59, 80
2, 17760, Note_on_c, 0, 63, 80
2, 17801, Note_on_c, 0, 63, 0
2, 17801, Note_on_c, 0, 57, 0
2, 17801, Note_on_c, 0, 75, 0
2, 17801, Note_on_c, 0, 81, 0
2, 17801, Note_on_c, 0, 83, 0
2, 17801, Note_on_c, 0, 59, 0
2, 17801, Note_on_c, 0, 71, 0
2, 17847, Control_c, 0, 64, 127
2, 17861, Note_on_c, 0, 42, 80
2, 17861, Note_on_c, 0, 57, 80
2, 17861, Note_on_c, 0, 69, 80
2, 17864, Note_on_c, 0, 54, 80
2, 17918, Note_on_c, 0, 56, 80
2, 17918, Note_on_c, 0, 68, 80
2, 17923, Note_on_c, 0, 54, 0
2, 17923, Note_on_c, 0, 69, 0
2, 17923, Note_on_c, 0, 42, 0
2, 17923, Note_on_c, 0, 57, 0
2, 17950, Control_c, 0, 64, 0
2, 17976, Note_on_c, 0, 57, 80
2, 17976, Note_on_c, 0, 59, 80
2, 17976, Note_on_c, 0, 63, 80
2, 17976, Note_on_c, 0, 69, 80
2, 17979, Note_on_c, 0, 68, 0
2, 17979, Note_on_c, 0, 56, 0
2, 17994, Note_on_c, 0, 69, 0
2, 18027, Note_on_c, 0, 75, 80
2, 18030, Note_on_c, 0, 69, 80
2, 18030, Note_on_c, 0, 80, 80
2, 18035, Note_on_c, 0, 59, 0
2, 18035, Note_on_c, 0, 57, 0
2, 18035, Note_on_c, 0, 63, 0
2, 18084, Note_on_c, 0, 35, 80
2, 18084, Note_on_c, 0, 47, 80
2, 18138, Note_on_c, 0, 66, 80
2, 18138, Note_on_c, 0, 78, 80
2, 18143, Note_on_c, 0, 75, 0
2, 18143, Note_on_c, 0, 80, 0
2, 18143, Note_on_c, 0, 69, 0
2, 18155, Note_on_c, 0, 35, 0
2, 18158, Note_on_c, 0, 47, 0
2, 18192, Note_on_c, 0, 57, 80
2, 18192, Note_on_c, 0, 63, 80
2, 18192, Note_on_c, 0, 75, 80
2, 18194, Note_on_c, 0, 59, 80
2, 18197, Note_on_c, 0, 66, 0
2, 18200, Note_on_c, 0, 78, 0
2, 18215, Note_on_c, 0, 59, 0
2, 18246, Note_on_c, 0, 59, 80
2, 18246, Note_on_c, 0, 71, 80
2, 18251, Note_on_c, 0, 63, 0
2, 18251, Note_on_c, 0, 57, 0
2, 18251, Note_on_c, 0, 75, 0
2, 18300, Control_c, 0, 64, 127
2, 18300, Note_on_c, 0, 68, 80
2, 18303, Note_on_c, 0, 40, 80
2, 18303, Note_on_c, 0, 52, 80
2, 18303, Note_on_c, 0, 56, 80
2, 18308, Note_on_c, 0, 59, 0
2, 18308, Note_on_c, 0, 71, 0
2, 18344, Note_on_c, 0, 52, 0
2, 18344, Note_on_c, 0, 40, 0
2, 18347, Note_on_c, 0, 56, 0
2, 18347, Note_on_c, 0, 68, 0
2, 18355, Note_on_c, 0, 83, 80
2, 18358, Note_on_c, 0, 71, 80
2, 18399, Control_c, 0, 64, 0
2, 18408, Note_on_c, 0, 56, 80
2, 18408, Note_on_c, 0, 59, 80
2, 18408, Note_on_c, 0, 64, 80
2, 18408, Note_on_c, 0, 68, 80
2, 18408, Note_on_c, 0, 80, 80
2, 18411, Note_on_c, 0, 71, 0
2, 18414, Note_on_c, 0, 83, 0
2, 18460, Note_on_c, 0, 76, 80
2, 18465, Note_on_c, 0, 56, 0
2, 18465, Note_on_c, 0, 59, 0
2, 18465, Note_on_c, 0, 68, 0
2, 18468, Note_on_c, 0, 80, 0
2, 18512, Note_on_c, 0, 35, 80
2, 18512, Note_on_c, 0, 47, 80
2, 18512, Note_on_c, 0, 61, 80
2, 18512, Note_on_c, 0, 73, 80
2, 18517, Note_on_c, 0, 64, 0
2, 18517, Note_on_c, 0, 76, 0
2, 18568, Note_on_c, 0, 59, 80
2, 18568, Note_on_c, 0, 71, 80
2, 18571, Note_on_c, 0, 61, 0
2, 18571, Note_on_c, 0, 73, 0
2, 18585, Note_on_c, 0, 59, 0
2, 18614, Note_on_c, 0, 56, 80
2, 18617, Note_on_c, 0, 59, 80
2, 18617, Note_on_c, 0, 64, 80
2, 18661, Note_on_c, 0, 59, 0
2, 18661, Note_on_c, 0, 56, 0
2, 18673, Note_on_c, 0, 64, 0
2, 18688, Note_on_c, 0, 35, 0
2, 18691, Note_on_c, 0, 71, 0
2, 18713, Note_on_c, 0, 47, 0
2, 18720, Note_on_c, 0, 40, 80
2, 18720, Note_on_c, 0, 52, 80
2, 18720, Note_on_c, 0, 68, 80
2, 18723, Note_on_c, 0, 56, 80
2, 18736, Control_c, 0, 64, 127
2, 18777, Note_on_c, 0, 55, 80
2, 18777, Note_on_c, 0, 67, 80
2, 18780, Note_on_c, 0, 68, 0
2, 18780, Note_on_c, 0, 40, 0
2, 18780, Note_on_c, 0, 52, 0
2, 18783, Note_on_c, 0, 56, 0
2, 18792, Control_c, 0, 64, 0
2, 18831, Note_on_c, 0, 56, 80
2, 18831, Note_on_c, 0, 59, 80
2, 18831, Note_on_c, 0, 64, 80
2, 18831, Note_on_c, 0, 68, 80
2, 18836, Note_on_c, 0, 55, 0
2, 18836, Note_on_c, 0, 67, 0
2, 18848, Note_on_c, 0, 68, 0
2, 18885, Note_on_c, 0, 68, 80
2, 18885, Note_on_c, 0, 71, 80
2, 18885, Note_on_c, 0, 78, 80
2, 18888, Note_on_c, 0, 59, 0
2, 18888, Note_on_c, 0, 56, 0
2, 18902, Note_on_c, 0, 64, 0
2, 18936, Note_on_c, 0, 35, 80
2, 18936, Note_on_c, 0, 47, 80
2, 18986, Note_on_c, 0, 64, 80
2, 18989, Note_on_c, 0, 76, 80
2, 18992, Note_on_c, 0, 47, 0
2, 18992, Note_on_c, 0, 35, 0
2, 18995, Note_on_c, 0, 78, 0
2, 18995, Note_on_c, 0, 68, 0
2, 18995, Note_on_c, 0, 71, 0
2, 19041, Note_on_c, 0, 56, 80
2, 19044, Note_on_c, 0, 59, 80
2, 19044, Note_on_c, 0, 71, 80
2, 19049, Note_on_c, 0, 76, 0
2, 19098, Note_on_c, 0, 68, 80
2, 19101, Note_on_c, 0, 59, 0
2, 19101, Note_on_c, 0, 71, 0
2, 19113, Note_on_c, 0, 64, 0
2, 19152, Note_on_c, 0, 41, 80
2, 19152, Note_on_c, 0, 53, 80
2, 19152, Note_on_c, 0, 73, 80
2, 19154, Note_on_c, 0, 56, 0
2, 19154, Note_on_c, 0, 68, 0
2, 19176, Control_c, 0, 64, 127
2, 19203, Note_on_c, 0, 77, 80
2, 19208, Note_on_c, 0, 53, 0
2, 19208, Note_on_c, 0, 73, 0
2, 19208, Note_on_c, 0, 41, 0
2, 19259, Note_on_c, 0, 56, 80
2, 19259, Note_on_c, 0, 59, 80
2, 19259, Note_on_c, 0, 61, 80
2, 19259, Note_on_c, 0, 80, 80
2, 19264, Note_on_c, 0, 77, 0
2, 19273, Control_c, 0, 64, 0
2, 19312, Note_on_c, 0, 73, 80
2, 19312, Note_on_c, 0, 85, 80
2, 19317, Note_on_c, 0, 61, 0
2, 19317, Note_on_c, 0, 80, 0
2, 19317, Note_on_c, 0, 56, 0
2, 19317, Note_on_c, 0, 59, 0
2, 19366, Note_on_c, 0, 37, 80
2, 19366, Note_on_c, 0, 49, 80
2, 19397, Note_on_c, 0, 85, 0
2, 19397, Note_on_c, 0, 73, 0
2, 19416, Note_on_c, 0, 83, 80
2, 19421, Note_on_c, 0, 37, 0
2, 19421, Note_on_c, 0, 49, 0
2, 19470, Note_on_c, 0, 56, 80
2, 19470, Note_on_c, 0, 59, 80
2, 19470, Note_on_c, 0, 61, 80
2, 19470, Note_on_c, 0, 80, 80
2, 19475, Note_on_c, 0, 83, 0
2, 19521, Note_on_c, 0, 77, 80
2, 19526, Note_on_c, 0, 56, 0
2, 19526, Note_on_c, 0, 80, 0
2, 19526, Note_on_c, 0, 59, 0
2, 19529, Note_on_c, 0, 61, 0
2, 19573, Control_c, 0, 64, 127
2, 19573, Note_on_c, 0, 41, 80
2, 19576, Note_on_c, 0, 53, 80
2, 19576, Note_on_c, 0, 73, 80
2, 19581, Note_on_c, 0, 77, 0
2, 19627, Note_on_c, 0, 77, 80
2, 19630, Note_on_c, 0, 41, 0
2, 19630, Note_on_c, 0, 73, 0
2, 19630, Note_on_c, 0, 53, 0
2, 19676, Note_on_c, 0, 56, 80
2, 19676, Note_on_c, 0, 59, 80
2, 19676, Note_on_c, 0, 61, 80
2, 19676, Note_on_c, 0, 80, 80
2, 19680, Note_on_c, 0, 77, 0
2, 19729, Note_on_c, 0, 73, 80
2, 19729, Note_on_c, 0, 85, 80
2, 19732, Note_on_c, 0, 61, 0
2, 19732, Note_on_c, 0, 80, 0
2, 19732, Note_on_c, 0, 56, 0
2, 19732, Note_on_c, 0, 59, 0
2, 19742, Control_c, 0, 64, 0
2, 19778, Note_on_c, 0, 37, 80
2, 19781, Note_on_c, 0, 49, 80
2, 19815, Note_on_c, 0, 85, 0
2, 19815, Note_on_c, 0, 73, 0
2, 19837, Note_on_c, 0, 37, 0
2, 19837, Note_on_c, 0, 83, 80
2, 19840, Note_on_c, 0, 49, 0
2, 19886, Note_on_c, 0, 56, 80
2, 19889, Note_on_c, 0, 59, 80
2, 19889, Note_on_c, 0, 61, 80
2, 19889, Note_on_c, 0, 80, 80
2, 19894, Note_on_c, 0, 83, 0
2, 19940, Note_on_c, 0, 77, 80
2, 19944, Note_on_c, 0, 61, 0
2, 19944, Note_on_c, 0, 80, 0
2, 19944, Note_on_c, 0, 56, 0
2, 19944, Note_on_c, 0, 59, 0
2, 19995, Note_on_c, 0, 41, 80
2, 19995, Note_on_c, 0, 53, 80
2, 19995, Note_on_c, 0, 73, 80
2, 20000, Note_on_c, 0, 77, 0
2, 20049, Control_c, 0, 64, 127
2, 20052, Note_on_c, 0, 72, 80
2, 20055, Note_on_c, 0, 41, 0
2, 20055, Note_on_c, 0, 73, 0
2, 20055, Note_on_c, 0, 53, 0
2, 20106, Note_on_c, 0, 56, 80
2, 20106, Note_on_c, 0, 59, 80
2, 20106, Note_on_c, 0, 61, 80
2, 20106, Note_on_c, 0, 73, 80
2, 20109, Control_c, 0, 64, 0
2, 20112, Note_on_c, 0, 72, 0
2, 20160, Note_on_c, 0, 74, 80
2, 20165, Note_on_c, 0, 61, 0
2, 20165, Note_on_c, 0, 73, 0
2, 20165, Note_on_c, 0, 56, 0
2, 20165, Note_on_c, 0, 59, 0
2, 20207, Note_on_c, 0, 74, 0
2, 20214, Note_on_c, 0, 73, 80
2, 20217, Note_on_c, 0, 37, 80
2, 20217, Note_on_c, 0, 49, 80
2, 20271, Note_on_c, 0, 71, 80
2, 20274, Note_on_c, 0, 49, 0
2, 20274, Note_on_c, 0, 73, 0
2, 20274, Note_on_c, 0, 37, 0
2, 20323, Note_on_c, 0, 56, 80
2, 20323, Note_on_c, 0, 59, 80
2, 20326, Note_on_c, 0, 61, 80
2, 20326, Note_on_c, 0, 69, 80
2, 20328, Note_on_c, 0, 71, 0
2, 20367, Note_on_c, 0, 61, 0
2, 20367, Note_on_c, 0, 56, 0
2, 20367, Note_on_c, 0, 59, 0
2, 20367, Note_on_c, 0, 69, 0
2, 20376, Note_on_c, 0, 68, 80
2, 20432, Note_on_c, 0, 54, 80
2, 20435, Note_on_c, 0, 42, 80
2, 20435, Note_on_c, 0, 69, 80
2, 20440, Note_on_c, 0, 68, 0
2, 20462, Control_c, 0, 64, 127
2, 20491, Note_on_c, 0, 66, 80
2, 20496, Note_on_c, 0, 54, 0
2, 20496, Note_on_c, 0, 69, 0
2, 20496, Note_on_c, 0, 42, 0
2, 20522, Control_c, 0, 64, 0
2, 20546, Note_on_c, 0, 57, 80
2, 20546, Note_on_c, 0, 61, 80
2, 20546, Note_on_c, 0, 69, 80
2, 20551, Note_on_c, 0, 66, 0
2, 20588, Note_on_c, 0, 57, 0
2, 20588, Note_on_c, 0, 61, 0
2, 20588, Note_on_c, 0, 69, 0
2, 20600, Note_on_c, 0, 73, 80
2, 20649, Note_on_c, 0, 61, 80
2, 20654, Note_on_c, 0, 57, 80
2, 20654, Note_on_c, 0, 66, 80
2, 20654, Note_on_c, 0, 69, 80
2, 20654, Note_on_c, 0, 78, 80
2, 20760, Note_on_c, 0, 69, 0
2, 20760, Note_on_c, 0, 66, 0
2, 20760, Note_on_c, 0, 73, 0
2, 20763, Note_on_c, 0, 78, 0
2, 20817, Note_on_c, 0, 61, 0
2, 20817, Note_on_c, 0, 57, 0
2, 20863, Control_c, 0, 64, 127
2, 20863, Note_on_c, 0, 45, 80
2, 20866, Note_on_c, 0, 57, 80
2, 20866, Note_on_c, 0, 73, 80
2, 20920, Note_on_c, 0, 72, 80
2, 20923, Note_on_c, 0, 45, 0
2, 20926, Note_on_c, 0, 57, 0
2, 20926, Note_on_c, 0, 73, 0
2, 20972, Note_on_c, 0, 57, 80
2, 20972, Note_on_c, 0, 66, 80
2, 20972, Note_on_c, 0, 73, 80
2, 20975, Note_on_c, 0, 61, 80
2, 20975, Note_on_c, 0, 64, 80
2, 20977, Note_on_c, 0, 72, 0
2, 21001, Control_c, 0, 64, 0
2, 21024, Note_on_c, 0, 80, 80
2, 21026, Note_on_c, 0, 57, 0
2, 21029, Note_on_c, 0, 66, 0
2, 21029, Note_on_c, 0, 61, 0
2, 21029, Note_on_c, 0, 73, 0
2, 21029, Note_on_c, 0, 64, 0
2, 21075, Note_on_c, 0, 45, 80
2, 21075, Note_on_c, 0, 57, 80
2, 21095, Note_on_c, 0, 80, 0
2, 21131, Note_on_c, 0, 78, 80
2, 21182, Note_on_c, 0, 46, 80
2, 21182, Note_on_c, 0, 58, 80
2, 21185, Note_on_c, 0, 76, 80
2, 21188, Note_on_c, 0, 57, 0
2, 21188, Note_on_c, 0, 45, 0
2, 21191, Note_on_c, 0, 78, 0
2, 21240, Note_on_c, 0, 73, 80
2, 21242, Note_on_c, 0, 76, 0
2, 21293, Note_on_c, 0, 47, 80
2, 21293, Note_on_c, 0, 59, 80
2, 21293, Note_on_c, 0, 68, 80
2, 21296, Note_on_c, 0, 46, 0
2, 21299, Note_on_c, 0, 73, 0
2, 21299, Note_on_c, 0, 58, 0
2, 21304, Control_c, 0, 64, 127
2, 21348, Note_on_c, 0, 67, 80
2, 21353, Note_on_c, 0, 68, 0
2, 21353, Note_on_c, 0, 59, 0
2, 21397, Note_on_c, 0, 56, 80
2, 21397, Note_on_c, 0, 64, 80
2, 21400, Control_c, 0, 64, 0
2, 21400, Note_on_c, 0, 59, 80
2, 21400, Note_on_c, 0, 68, 80
2, 21405, Note_on_c, 0, 67, 0
2, 21454, Note_on_c, 0, 73, 80
2, 21456, Note_on_c, 0, 56, 0
2, 21456, Note_on_c, 0, 59, 0
2, 21456, Note_on_c, 0, 64, 0
2, 21456, Note_on_c, 0, 47, 0
2, 21456, Note_on_c, 0, 68, 0
2, 21505, Note_on_c, 0, 35, 80
2, 21508, Note_on_c, 0, 47, 80
2, 21540, Note_on_c, 0, 73, 0
2, 21562, Note_on_c, 0, 71, 80
2, 21579, Note_on_c, 0, 47, 0
2, 21579, Note_on_c, 0, 35, 0
2, 21618, Note_on_c, 0, 56, 80
2, 21618, Note_on_c, 0, 59, 80
2, 21618, Note_on_c, 0, 64, 80
2, 21623, Note_on_c, 0, 71, 0
2, 21672, Note_on_c, 0, 65, 80
2, 21674, Note_on_c, 0, 56, 0
2, 21674, Note_on_c, 0, 64, 0
2, 21674, Note_on_c, 0, 59, 0
2, 21723, Note_on_c, 0, 39, 80
2, 21723, Note_on_c, 0, 51, 80
2, 21726, Note_on_c, 0, 66, 80
2, 21729, Note_on_c, 0, 65, 0
2, 21748, Control_c, 0, 64, 127
2, 21777, Note_on_c, 0, 71, 80
2, 21780, Note_on_c, 0, 39, 0
2, 21780, Note_on_c, 0, 66, 0
2, 21780, Note_on_c, 0, 51, 0
2, 21807, Control_c, 0, 64, 0
2, 21829, Note_on_c, 0, 57, 80
2, 21832, Note_on_c, 0, 59, 80
2, 21832, Note_on_c, 0, 63, 80
2, 21873, Note_on_c, 0, 71, 0
2, 21883, Note_on_c, 0, 65, 80
2, 21886, Note_on_c, 0, 57, 0
2, 21888, Note_on_c, 0, 59, 0
2, 21901, Note_on_c, 0, 63, 0
2, 21937, Note_on_c, 0, 35, 80
2, 21937, Note_on_c, 0, 47, 80
2, 21940, Note_on_c, 0, 66, 80
2, 21945, Note_on_c, 0, 65, 0
2, 21955, Note_on_c, 0, 66, 0
2, 21991, Note_on_c, 0, 66, 80
2, 21991, Note_on_c, 0, 69, 80
2, 21991, Note_on_c, 0, 78, 80
2, 21994, Note_on_c, 0, 47, 0
2, 21994, Note_on_c, 0, 35, 0
2, 22040, Note_on_c, 0, 57, 80
2, 22040, Note_on_c, 0, 63, 80
2, 22043, Note_on_c, 0, 59, 80
2, 22046, Note_on_c, 0, 69, 0
2, 22046, Note_on_c, 0, 66, 0
2, 22049, Note_on_c, 0, 78, 0
2, 22095, Note_on_c, 0, 64, 80
2, 22095, Note_on_c, 0, 68, 80
2, 22098, Note_on_c, 0, 76, 80
2, 22101, Note_on_c, 0, 57, 0
2, 22101, Note_on_c, 0, 63, 0
2, 22101, Note_on_c, 0, 59, 0
2, 22145, Note_on_c, 0, 52, 80
2, 22148, Note_on_c, 0, 56, 80
2, 22148, Note_on_c, 0, 59, 80
2, 22184, Control_c, 0, 64, 127
2, 22189, Note_on_c, 0, 56, 0
2, 22192, Note_on_c, 0, 52, 0
2, 22192, Note_on_c, 0, 59, 0
2, 22219, Note_on_c, 0, 76, 0
2, 22219, Note_on_c, 0, 64, 0
2, 22219, Note_on_c, 0, 68, 0
2, 22241, Control_c, 0, 64, 0
2, 22250, Note_on_c, 0, 71, 80
2, 22250, Note_on_c, 0, 83, 80
2, 22304, Note_on_c, 0, 73, 80
2, 22304, Note_on_c, 0, 85, 80
2, 22309, Note_on_c, 0, 83, 0
2, 22309, Note_on_c, 0, 71, 0
2, 22358, Note_on_c, 0, 75, 80
2, 22358, Note_on_c, 0, 87, 80
2, 22363, Note_on_c, 0, 73, 0
2, 22363, Note_on_c, 0, 85, 0
2, 22414, Note_on_c, 0, 76, 80
2, 22414, Note_on_c, 0, 88, 80
2, 22416, Note_on_c, 0, 75, 0
2, 22416, Note_on_c, 0, 87, 0
2, 22465, Note_on_c, 0, 78, 80
2, 22465, Note_on_c, 0, 90, 80
2, 22470, Note_on_c, 0, 76, 0
2, 22470, Note_on_c, 0, 88, 0
2, 22519, Note_on_c, 0, 80, 80
2, 22519, Note_on_c, 0, 92, 80
2, 22522, Note_on_c, 0, 78, 0
2, 22522, Note_on_c, 0, 90, 0
2, 22568, Note_on_c, 0, 42, 80
2, 22568, Note_on_c, 0, 54, 80
2, 22568, Note_on_c, 0, 81, 80
2, 22571, Note_on_c, 0, 93, 80
2, 22574, Note_on_c, 0, 80, 0
2, 22574, Note_on_c, 0, 92, 0
2, 22582, Control_c, 0, 64, 127
2, 22613, Note_on_c, 0, 81, 0
2, 22613, Note_on_c, 0, 93, 0
2, 22621, Note_on_c, 0, 87, 80
2, 22629, Note_on_c, 0, 54, 0
2, 22629, Note_on_c, 0, 42, 0
2, 22678, Note_on_c, 0, 57, 80
2, 22678, Note_on_c, 0, 59, 80
2, 22678, Note_on_c, 0, 63, 80
2, 22678, Note_on_c, 0, 90, 80
2, 22682, Note_on_c, 0, 87, 0
2, 22728, Note_on_c, 0, 81, 80
2, 22728, Note_on_c, 0, 87, 80
2, 22728, Note_on_c, 0, 92, 80
2, 22733, Note_on_c, 0, 63, 0
2, 22733, Note_on_c, 0, 90, 0
2, 22733, Note_on_c, 0, 57, 0
2, 22733, Note_on_c, 0, 59, 0
2, 22782, Note_on_c, 0, 35, 80
2, 22785, Note_on_c, 0, 47, 80
2, 22800, Control_c, 0, 64, 0
2, 22814, Note_on_c, 0, 92, 0
2, 22814, Note_on_c, 0, 87, 0
2, 22814, Note_on_c, 0, 81, 0
2, 22836, Note_on_c, 0, 35, 0
2, 22836, Note_on_c, 0, 87, 80
2, 22839, Note_on_c, 0, 47, 0
2, 22890, Note_on_c, 0, 57, 80
2, 22890, Note_on_c, 0, 63, 80
2, 22890, Note_on_c, 0, 78, 80
2, 22893, Note_on_c, 0, 59, 80
2, 22893, Note_on_c, 0, 81, 80
2, 22893, Note_on_c, 0, 90, 80
2, 22896, Note_on_c, 0, 87, 0
2, 22949, Note_on_c, 0, 81, 0
2, 22949, Note_on_c, 0, 63, 0
2, 22949, Note_on_c, 0, 78, 0
2, 22949, Note_on_c, 0, 57, 0
2, 22949, Note_on_c, 0, 90, 0
2, 22949, Note_on_c, 0, 59, 0
2, 22998, Note_on_c, 0, 39, 80
2, 22998, Note_on_c, 0, 51, 80
2, 23001, Note_on_c, 0, 66, 80
2, 23001, Note_on_c, 0, 78, 80
2, 23025, Control_c, 0, 64, 127
2, 23042, Control_c, 0, 64, 0
2, 23055, Note_on_c, 0, 65, 80
2, 23055, Note_on_c, 0, 77, 80
2, 23058, Note_on_c, 0, 51, 0
2, 23058, Note_on_c, 0, 39, 0
2, 23061, Note_on_c, 0, 78, 0
2, 23064, Note_on_c, 0, 66, 0
2, 23110, Note_on_c, 0, 57, 80
2, 23110, Note_on_c, 0, 59, 80
2, 23110, Note_on_c, 0, 63, 80
2, 23110, Note_on_c, 0, 66, 80
2, 23110, Note_on_c, 0, 78, 80
2, 23114, Note_on_c, 0, 77, 0
2, 23114, Note_on_c, 0, 65, 0
2, 23165, Note_on_c, 0, 73, 80
2, 23165, Note_on_c, 0, 85, 80
2, 23170, Note_on_c, 0, 57, 0
2, 23170, Note_on_c, 0, 66, 0
2, 23170, Note_on_c, 0, 59, 0
2, 23170, Note_on_c, 0, 63, 0
2, 23170, Note_on_c, 0, 78, 0
2, 23216, Note_on_c, 0, 35, 80
2, 23216, Note_on_c, 0, 47, 80
2, 23248, Note_on_c, 0, 85, 0
2, 23248, Note_on_c, 0, 73, 0
2, 23270, Note_on_c, 0, 71, 80
2, 23270, Note_on_c, 0, 83, 80
2, 23273, Note_on_c, 0, 35, 0
2, 23276, Note_on_c, 0, 47, 0
2, 23325, Note_on_c, 0, 57, 80
2, 23325, Note_on_c, 0, 59, 80
2, 23325, Note_on_c, 0, 63, 80
2, 23328, Note_on_c, 0, 66, 80
2, 23328, Note_on_c, 0, 78, 80
2, 23332, Note_on_c, 0, 71, 0
2, 23332, Note_on_c, 0, 83, 0
2, 23381, Note_on_c, 0, 67, 80
2, 23381, Note_on_c, 0, 79, 80
2, 23386, Note_on_c, 0, 57, 0
2, 23386, Note_on_c, 0, 66, 0
2, 23386, Note_on_c, 0, 59, 0
2, 23386, Note_on_c, 0, 63, 0
2, 23386, Note_on_c, 0, 78, 0
2, 23435, Note_on_c, 0, 40, 80
2, 23438, Note_on_c, 0, 52, 80
2, 23438, Note_on_c, 0, 68, 80
2, 23438, Note_on_c, 0, 80, 80
2, 23443, Note_on_c, 0, 67, 0
2, 23446, Note_on_c, 0, 79, 0
2, 23477, Control_c, 0, 64, 127
2, 23495, Note_on_c, 0, 59, 80
2, 23495, Note_on_c, 0, 71, 80
2, 23497, Note_on_c, 0, 68, 0
2, 23497, Note_on_c, 0, 52, 0
2, 23497, Note_on_c, 0, 40, 0
2, 23500, Note_on_c, 0, 80, 0
2, 23515, Note_on_c, 0, 59, 0
2, 23548, Note_on_c, 0, 56, 80
2, 23548, Note_on_c, 0, 59, 80
2, 23548, Note_on_c, 0, 61, 80
2, 23548, Note_on_c, 0, 73, 80
2, 23553, Note_on_c, 0, 71, 0
2, 23602, Note_on_c, 0, 62, 80
2, 23602, Note_on_c, 0, 74, 80
2, 23605, Note_on_c, 0, 61, 0
2, 23605, Note_on_c, 0, 73, 0
2, 23605, Note_on_c, 0, 56, 0
2, 23605, Note_on_c, 0, 59, 0
2, 23656, Note_on_c, 0, 35, 80
2, 23656, Note_on_c, 0, 47, 80
2, 23659, Note_on_c, 0, 63, 80
2, 23659, Note_on_c, 0, 75, 80
2, 23662, Note_on_c, 0, 74, 0
2, 23662, Note_on_c, 0, 62, 0
2, 23712, Note_on_c, 0, 64, 80
2, 23712, Note_on_c, 0, 76, 80
2, 23715, Note_on_c, 0, 47, 0
2, 23715, Note_on_c, 0, 35, 0
2, 23718, Note_on_c, 0, 63, 0
2, 23718, Note_on_c, 0, 75, 0
2, 23767, Note_on_c, 0, 57, 80
2, 23767, Note_on_c, 0, 59, 80
2, 23767, Note_on_c, 0, 63, 80
2, 23767, Note_on_c, 0, 66, 80
2, 23767, Note_on_c, 0, 78, 80
2, 23770, Note_on_c, 0, 76, 0
2, 23784, Note_on_c, 0, 64, 0
2, 23807, Note_on_c, 0, 67, 80
2, 23809, Note_on_c, 0, 57, 0
2, 23809, Note_on_c, 0, 66, 0
2, 23809, Note_on_c, 0, 63, 0
2, 23809, Note_on_c, 0, 59, 0
2, 23809, Note_on_c, 0, 78, 0
2, 23819, Note_on_c, 0, 79, 80
2, 23822, Control_c, 0, 64, 0
2, 23866, Note_on_c, 0, 79, 0
2, 23866, Note_on_c, 0, 67, 0
2, 23874, Note_on_c, 0, 40, 80
2, 23874, Note_on_c, 0, 52, 80
2, 23874, Note_on_c, 0, 68, 80
2, 23877, Note_on_c, 0, 80, 80
2, 23928, Note_on_c, 0, 67, 80
2, 23928, Note_on_c, 0, 79, 80
2, 23930, Note_on_c, 0, 52, 0
2, 23930, Note_on_c, 0, 40, 0
2, 23933, Note_on_c, 0, 80, 0
2, 23933, Note_on_c, 0, 68, 0
2, 23979, Note_on_c, 0, 56, 80
2, 23979, Note_on_c, 0, 59, 80
2, 23979, Note_on_c, 0, 64, 80
2, 23979, Note_on_c, 0, 68, 80
2, 23979, Note_on_c, 0, 80, 80
2, 23984, Note_on_c, 0, 79, 0
2, 23984, Note_on_c, 0, 67, 0
2, 23999, Note_on_c, 0, 80, 0
2, 24030, Note_on_c, 0, 83, 80
2, 24030, Note_on_c, 0, 80, 80
2, 24030, Note_on_c, 0, 90, 80
2, 24033, Note_on_c, 0, 68, 0
2, 24033, Note_on_c, 0, 59, 0
2, 24033, Note_on_c, 0, 56, 0
2, 24048, Note_on_c, 0, 64, 0
2, 24081, Note_on_c, 0, 35, 80
2, 24081, Note_on_c, 0, 47, 80
2, 24135, Note_on_c, 0, 35, 0
2, 24135, Note_on_c, 0, 76, 80
2, 24135, Note_on_c, 0, 88, 80
2, 24138, Note_on_c, 0, 47, 0
2, 24141, Note_on_c, 0, 90, 0
2, 24141, Note_on_c, 0, 83, 0
2, 24141, Note_on_c, 0, 80, 0
2, 24187, Note_on_c, 0, 56, 80
2, 24187, Note_on_c, 0, 59, 80
2, 24187, Note_on_c, 0, 64, 80
2, 24187, Note_on_c, 0, 66, 80
2, 24187, Note_on_c, 0, 78, 80
2, 24194, Note_on_c, 0, 88, 0
2, 24194, Note_on_c, 0, 76, 0
2, 24239, Note_on_c, 0, 68, 80
2, 24239, Note_on_c, 0, 80, 80
2, 24243, Note_on_c, 0, 56, 0
2, 24243, Note_on_c, 0, 66, 0
2, 24243, Note_on_c, 0, 59, 0
2, 24243, Note_on_c, 0, 64, 0
2, 24243, Note_on_c, 0, 78, 0
2, 24289, Note_on_c, 0, 42, 80
2, 24289, Note_on_c, 0, 54, 80
2, 24289, Note_on_c, 0, 69, 80
2, 24292, Note_on_c, 0, 81, 80
2, 24297, Note_on_c, 0, 80, 0
2, 24297, Note_on_c, 0, 68, 0
2, 24312, Control_c, 0, 64, 127
2, 24334, Note_on_c, 0, 81, 0
2, 24343, Note_on_c, 0, 83, 80
2, 24343, Note_on_c, 0, 95, 80
2, 24346, Note_on_c, 0, 54, 0
2, 24346, Note_on_c, 0, 42, 0
2, 24368, Control_c, 0, 64, 0
2, 24395, Note_on_c, 0, 57, 80
2, 24395, Note_on_c, 0, 59, 80
2, 24395, Note_on_c, 0, 63, 80
2, 24398, Note_on_c, 0, 81, 80
2, 24398, Note_on_c, 0, 93, 80
2, 24401, Note_on_c, 0, 83, 0
2, 24401, Note_on_c, 0, 95, 0
2, 24401, Note_on_c, 0, 69, 0
2, 24450, Note_on_c, 0, 78, 80
2, 24450, Note_on_c, 0, 90, 80
2, 24455, Note_on_c, 0, 63, 0
2, 24455, Note_on_c, 0, 57, 0
2, 24455, Note_on_c, 0, 93, 0
2, 24455, Note_on_c, 0, 59, 0
2, 24455, Note_on_c, 0, 81, 0
2, 24501, Note_on_c, 0, 35, 80
2, 24504, Note_on_c, 0, 47, 80
2, 24504, Note_on_c, 0, 75, 80
2, 24504, Note_on_c, 0, 87, 80
2, 24511, Note_on_c, 0, 90, 0
2, 24511, Note_on_c, 0, 78, 0
2, 24560, Note_on_c, 0, 47, 0
2, 24560, Note_on_c, 0, 35, 0
2, 24560, Note_on_c, 0, 83, 80
2, 24560, Note_on_c, 0, 95, 80
2, 24563, Note_on_c, 0, 87, 0
2, 24563, Note_on_c, 0, 75, 0
2, 24614, Note_on_c, 0, 57, 80
2, 24614, Note_on_c, 0, 59, 80
2, 24614, Note_on_c, 0, 63, 80
2, 24658, Note_on_c, 0, 63, 0
2, 24658, Note_on_c, 0, 57, 0
2, 24658, Note_on_c, 0, 95, 0
2, 24658, Note_on_c, 0, 83, 0
2, 24658, Note_on_c, 0, 59, 0
2, 24719, Control_c, 0, 64, 127
2, 24721, Note_on_c, 0, 42, 80
2, 24724, Note_on_c, 0, 54, 80
2, 24724, Note_on_c, 0, 69, 80
2, 24724, Note_on_c, 0, 81, 80
2, 24778, Note_on_c, 0, 68, 80
2, 24778, Note_on_c, 0, 80, 80
2, 24781, Note_on_c, 0, 42, 0
2, 24781, Control_c, 0, 64, 0
2, 24784, Note_on_c, 0, 81, 0
2, 24784, Note_on_c, 0, 54, 0
2, 24784, Note_on_c, 0, 69, 0
2, 24833, Note_on_c, 0, 69, 80
2, 24836, Note_on_c, 0, 57, 80
2, 24836, Note_on_c, 0, 59, 80
2, 24836, Note_on_c, 0, 63, 80
2, 24836, Note_on_c, 0, 81, 80
2, 24839, Note_on_c, 0, 80, 0
2, 24841, Note_on_c, 0, 68, 0
2, 24856, Note_on_c, 0, 81, 0
2, 24889, Note_on_c, 0, 81, 80
2, 24889, Note_on_c, 0, 87, 80
2, 24889, Note_on_c, 0, 92, 80
2, 24894, Note_on_c, 0, 59, 0
2, 24894, Note_on_c, 0, 63, 0
2, 24894, Note_on_c, 0, 57, 0
2, 24894, Note_on_c, 0, 69, 0
2, 24938, Note_on_c, 0, 35, 80
2, 24938, Note_on_c, 0, 47, 80
2, 24972, Note_on_c, 0, 92, 0
2, 24972, Note_on_c, 0, 87, 0
2, 24972, Note_on_c, 0, 81, 0
2, 24994, Note_on_c, 0, 35, 0
2, 24994, Note_on_c, 0, 78, 80
2, 24994, Note_on_c, 0, 90, 80
2, 24997, Note_on_c, 0, 47, 0
2, 25043, Note_on_c, 0, 57, 80
2, 25043, Note_on_c, 0, 59, 80
2, 25043, Note_on_c, 0, 63, 80
2, 25043, Note_on_c, 0, 75, 80
2, 25046, Note_on_c, 0, 87, 80
2, 25049, Note_on_c, 0, 90, 0
2, 25049, Note_on_c, 0, 78, 0
2, 25098, Note_on_c, 0, 71, 80
2, 25098, Note_on_c, 0, 83, 80
2, 25101, Note_on_c, 0, 59, 0
2, 25101, Note_on_c, 0, 63, 0
2, 25101, Note_on_c, 0, 57, 0
2, 25104, Note_on_c, 0, 75, 0
2, 25104, Note_on_c, 0, 87, 0
2, 25150, Note_on_c, 0, 40, 80
2, 25150, Note_on_c, 0, 52, 80
2, 25152, Note_on_c, 0, 68, 80
2, 25152, Note_on_c, 0, 80, 80
2, 25155, Note_on_c, 0, 71, 0
2, 25160, Note_on_c, 0, 83, 0
2, 25163, Control_c, 0, 64, 127
2, 25204, Note_on_c, 0, 83, 80
2, 25204, Note_on_c, 0, 95, 80
2, 25207, Note_on_c, 0, 52, 0
2, 25207, Note_on_c, 0, 40, 0
2, 25212, Note_on_c, 0, 80, 0
2, 25215, Control_c, 0, 64, 0
2, 25253, Note_on_c, 0, 56, 80
2, 25256, Note_on_c, 0, 59, 80
2, 25256, Note_on_c, 0, 64, 80
2, 25256, Note_on_c, 0, 80, 80
2, 25256, Note_on_c, 0, 92, 80
2, 25261, Note_on_c, 0, 83, 0
2, 25261, Note_on_c, 0, 95, 0
2, 25285, Note_on_c, 0, 68, 0
2, 25307, Note_on_c, 0, 76, 80
2, 25307, Note_on_c, 0, 88, 80
2, 25310, Note_on_c, 0, 56, 0
2, 25310, Note_on_c, 0, 59, 0
2, 25310, Note_on_c, 0, 64, 0
2, 25313, Note_on_c, 0, 92, 0
2, 25313, Note_on_c, 0, 80, 0
2, 25357, Note_on_c, 0, 35, 80
2, 25360, Note_on_c, 0, 47, 80
2, 25360, Note_on_c, 0, 73, 80
2, 25360, Note_on_c, 0, 85, 80
2, 25365, Note_on_c, 0, 76, 0
2, 25368, Note_on_c, 0, 88, 0
2, 25412, Note_on_c, 0, 35, 0
2, 25412, Note_on_c, 0, 71, 80
2, 25412, Note_on_c, 0, 83, 80
2, 25415, Note_on_c, 0, 47, 0
2, 25415, Note_on_c, 0, 73, 0
2, 25417, Note_on_c, 0, 85, 0
2, 25462, Note_on_c, 0, 56, 80
2, 25464, Note_on_c, 0, 59, 80
2, 25464, Note_on_c, 0, 64, 80
2, 25523, Note_on_c, 0, 64, 0
2, 25523, Note_on_c, 0, 83, 0
2, 25523, Note_on_c, 0, 71, 0
2, 25523, Note_on_c, 0, 59, 0
2, 25526, Note_on_c, 0, 56, 0
2, 25570, Note_on_c, 0, 40, 80
2, 25573, Note_on_c, 0, 52, 80
2, 25573, Note_on_c, 0, 68, 80
2, 25573, Note_on_c, 0, 80, 80
2, 25597, Control_c, 0, 64, 127
2, 25626, Note_on_c, 0, 67, 80
2, 25629, Note_on_c, 0, 40, 0
2, 25629, Note_on_c, 0, 79, 80
2, 25632, Note_on_c, 0, 52, 0
2, 25632, Note_on_c, 0, 68, 0
2, 25634, Note_on_c, 0, 80, 0
2, 25656, Control_c, 0, 64, 0
2, 25674, Note_on_c, 0, 79, 0
2, 25681, Note_on_c, 0, 56, 80
2, 25681, Note_on_c, 0, 59, 80
2, 25681, Note_on_c, 0, 64, 80
2, 25681, Note_on_c, 0, 68, 80
2, 25681, Note_on_c, 0, 80, 80
2, 25686, Note_on_c, 0, 67, 0
2, 25701, Note_on_c, 0, 80, 0
2, 25734, Note_on_c, 0, 83, 80
2, 25734, Note_on_c, 0, 90, 80
2, 25737, Note_on_c, 0, 80, 80
2, 25740, Note_on_c, 0, 64, 0
2, 25740, Note_on_c, 0, 68, 0
2, 25740, Note_on_c, 0, 56, 0
2, 25740, Note_on_c, 0, 59, 0
2, 25786, Note_on_c, 0, 35, 80
2, 25789, Note_on_c, 0, 47, 80
2, 25823, Note_on_c, 0, 80, 0
2, 25823, Note_on_c, 0, 83, 0
2, 25825, Note_on_c, 0, 90, 0
2, 25845, Note_on_c, 0, 76, 80
2, 25845, Note_on_c, 0, 88, 80
2, 25859, Note_on_c, 0, 35, 0
2, 25862, Note_on_c, 0, 47, 0
2, 25900, Note_on_c, 0, 56, 80
2, 25900, Note_on_c, 0, 59, 80
2, 25900, Note_on_c, 0, 64, 80
2, 25900, Note_on_c, 0, 71, 80
2, 25903, Note_on_c, 0, 83, 80
2, 25906, Note_on_c, 0, 76, 0
2, 25909, Note_on_c, 0, 88, 0
2, 25955, Note_on_c, 0, 68, 80
2, 25958, Note_on_c, 0, 80, 80
2, 25961, Note_on_c, 0, 59, 0
2, 25961, Note_on_c, 0, 64, 0
2, 25961, Note_on_c, 0, 71, 0
2, 25964, Note_on_c, 0, 56, 0
2, 25964, Note_on_c, 0, 83, 0
2, 26015, Note_on_c, 0, 41, 80
2, 26015, Note_on_c, 0, 53, 80
2, 26015, Note_on_c, 0, 73, 80
2, 26015, Note_on_c, 0, 85, 80
2, 26019, Note_on_c, 0, 68, 0
2, 26019, Note_on_c, 0, 80, 0
2, 26070, Note_on_c, 0, 41, 0
2, 26070, Note_on_c, 0, 77, 80
2, 26070, Note_on_c, 0, 89, 80
2, 26073, Note_on_c, 0, 53, 0
2, 26073, Note_on_c, 0, 85, 0
2, 26073, Note_on_c, 0, 73, 0
2, 26090, Control_c, 0, 64, 127
2, 26119, Note_on_c, 0, 56, 80
2, 26122, Note_on_c, 0, 59, 80
2, 26122, Note_on_c, 0, 61, 80
2, 26122, Note_on_c, 0, 80, 80
2, 26122, Note_on_c, 0, 92, 80
2, 26125, Note_on_c, 0, 77, 0
2, 26128, Note_on_c, 0, 89, 0
2, 26147, Control_c, 0, 64, 0
2, 26174, Note_on_c, 0, 85, 80
2, 26177, Note_on_c, 0, 97, 80
2, 26180, Note_on_c, 0, 56, 0
2, 26180, Note_on_c, 0, 59, 0
2, 26180, Note_on_c, 0, 61, 0
2, 26180, Note_on_c, 0, 92, 0
2, 26183, Note_on_c, 0, 80, 0
2, 26227, Note_on_c, 0, 37, 80
2, 26230, Note_on_c, 0, 49, 80
2, 26274, Note_on_c, 0, 49, 0
2, 26274, Note_on_c, 0, 37, 0
2, 26277, Note_on_c, 0, 85, 0
2, 26280, Note_on_c, 0, 97, 0
2, 26287, Note_on_c, 0, 83, 80
2, 26287, Note_on_c, 0, 95, 80
2, 26341, Note_on_c, 0, 56, 80
2, 26344, Note_on_c, 0, 59, 80
2, 26344, Note_on_c, 0, 61, 80
2, 26344, Note_on_c, 0, 80, 80
2, 26347, Note_on_c, 0, 92, 80
2, 26350, Note_on_c, 0, 95, 0
2, 26350, Note_on_c, 0, 83, 0
2, 26400, Note_on_c, 0, 56, 0
2, 26400, Note_on_c, 0, 77, 80
2, 26400, Note_on_c, 0, 89, 80
2, 26403, Note_on_c, 0, 61, 0
2, 26403, Note_on_c, 0, 92, 0
2, 26403, Note_on_c, 0, 59, 0
2, 26403, Note_on_c, 0, 80, 0
2, 26448, Note_on_c, 0, 41, 80
2, 26450, Note_on_c, 0, 53, 80
2, 26453, Note_on_c, 0, 73, 80
2, 26453, Note_on_c, 0, 85, 80
2, 26458, Note_on_c, 0, 89, 0
2, 26458, Note_on_c, 0, 77, 0
2, 26461, Control_c, 0, 64, 127
2, 26507, Note_on_c, 0, 53, 0
2, 26507, Note_on_c, 0, 41, 0
2, 26507, Note_on_c, 0, 77, 80
2, 26507, Note_on_c, 0, 89, 80
2, 26510, Note_on_c, 0, 73, 0
2, 26513, Note_on_c, 0, 85, 0
2, 26557, Note_on_c, 0, 56, 80
2, 26560, Control_c, 0, 64, 0
2, 26560, Note_on_c, 0, 59, 80
2, 26560, Note_on_c, 0, 61, 80
2, 26560, Note_on_c, 0, 80, 80
2, 26563, Note_on_c, 0, 92, 80
2, 26566, Note_on_c, 0, 77, 0
2, 26566, Note_on_c, 0, 89, 0
2, 26615, Note_on_c, 0, 85, 80
2, 26617, Note_on_c, 0, 59, 0
2, 26617, Note_on_c, 0, 61, 0
2, 26617, Note_on_c, 0, 56, 0
2, 26617, Note_on_c, 0, 97, 80
2, 26620, Note_on_c, 0, 92, 0
2, 26620, Note_on_c, 0, 80, 0
2, 26664, Note_on_c, 0, 37, 80
2, 26667, Note_on_c, 0, 49, 80
2, 26701, Note_on_c, 0, 85, 0
2, 26701, Note_on_c, 0, 97, 0
2, 26720, Note_on_c, 0, 83, 80
2, 26725, Note_on_c, 0, 37, 0
2, 26725, Note_on_c, 0, 49, 0
2, 26725, Note_on_c, 0, 95, 80
2, 26771, Note_on_c, 0, 56, 80
2, 26771, Note_on_c, 0, 59, 80
2, 26771, Note_on_c, 0, 61, 80
2, 26774, Note_on_c, 0, 80, 80
2, 26774, Note_on_c, 0, 92, 80
2, 26779, Note_on_c, 0, 95, 0
2, 26779, Note_on_c, 0, 83, 0
2, 26828, Note_on_c, 0, 77, 80
2, 26828, Note_on_c, 0, 89, 80
2, 26831, Note_on_c, 0, 56, 0
2, 26831, Note_on_c, 0, 59, 0
2, 26831, Note_on_c, 0, 61, 0
2, 26831, Note_on_c, 0, 80, 0
2, 26833, Note_on_c, 0, 92, 0
2, 26878, Note_on_c, 0, 41, 80
2, 26880, Note_on_c, 0, 53, 80
2, 26880, Note_on_c, 0, 73, 80
2, 26880, Note_on_c, 0, 85, 80
2, 26888, Note_on_c, 0, 89, 0
2, 26888, Note_on_c, 0, 77, 0
2, 26903, Control_c, 0, 64, 127
2, 26934, Note_on_c, 0, 41, 0
2, 26934, Note_on_c, 0, 72, 80
2, 26934, Note_on_c, 0, 84, 80
2, 26937, Note_on_c, 0, 53, 0
2, 26940, Note_on_c, 0, 73, 0
2, 26943, Note_on_c, 0, 85, 0
2, 26957, Control_c, 0, 64, 0
2, 26984, Note_on_c, 0, 56, 80
2, 26984, Note_on_c, 0, 59, 80
2, 26984, Note_on_c, 0, 61, 80
2, 26984, Note_on_c, 0, 73, 80
2, 26987, Note_on_c, 0, 85, 80
2, 26990, Note_on_c, 0, 72, 0
2, 26993, Note_on_c, 0, 84, 0
2, 27042, Note_on_c, 0, 74, 80
2, 27042, Note_on_c, 0, 86, 80
2, 27045, Note_on_c, 0, 56, 0
2, 27045, Note_on_c, 0, 61, 0
2, 27045, Note_on_c, 0, 73, 0
2, 27048, Note_on_c, 0, 85, 0
2, 27048, Note_on_c, 0, 59, 0
2, 27094, Note_on_c, 0, 37, 80
2, 27096, Note_on_c, 0, 49, 80
2, 27096, Note_on_c, 0, 73, 80
2, 27099, Note_on_c, 0, 85, 80
2, 27102, Note_on_c, 0, 74, 0
2, 27102, Note_on_c, 0, 86, 0
2, 27153, Note_on_c, 0, 37, 0
2, 27153, Note_on_c, 0, 71, 80
2, 27153, Note_on_c, 0, 83, 80
2, 27156, Note_on_c, 0, 49, 0
2, 27156, Note_on_c, 0, 73, 0
2, 27159, Note_on_c, 0, 85, 0
2, 27205, Note_on_c, 0, 56, 80
2, 27205, Note_on_c, 0, 59, 80
2, 27208, Note_on_c, 0, 61, 80
2, 27208, Note_on_c, 0, 69, 80
2, 27208, Note_on_c, 0, 81, 80
2, 27211, Note_on_c, 0, 71, 0
2, 27214, Note_on_c, 0, 83, 0
2, 27258, Note_on_c, 0, 68, 80
2, 27258, Note_on_c, 0, 80, 80
2, 27263, Note_on_c, 0, 56, 0
2, 27263, Note_on_c, 0, 59, 0
2, 27263, Note_on_c, 0, 61, 0
2, 27263, Note_on_c, 0, 69, 0
2, 27265, Note_on_c, 0, 81, 0
2, 27307, Note_on_c, 0, 68, 0
2, 27310, Control_c, 0, 64, 127
2, 27312, Note_on_c, 0, 42, 80
2, 27315, Note_on_c, 0, 54, 80
2, 27315, Note_on_c, 0, 69, 80
2, 27315, Note_on_c, 0, 81, 80
2, 27323, Note_on_c, 0, 80, 0
2, 27369, Note_on_c, 0, 66, 80
2, 27369, Note_on_c, 0, 78, 80
2, 27372, Note_on_c, 0, 42, 0
2, 27372, Note_on_c, 0, 54, 0
2, 27375, Note_on_c, 0, 81, 0
2, 27375, Note_on_c, 0, 69, 0
2, 27408, Control_c, 0, 64, 0
2, 27421, Note_on_c, 0, 57, 80
2, 27421, Note_on_c, 0, 69, 80
2, 27424, Note_on_c, 0, 61, 80
2, 27424, Note_on_c, 0, 81, 80
2, 27429, Note_on_c, 0, 78, 0
2, 27429, Note_on_c, 0, 66, 0
2, 27475, Note_on_c, 0, 73, 80
2, 27475, Note_on_c, 0, 85, 80
2, 27478, Note_on_c, 0, 61, 0
2, 27478, Note_on_c, 0, 57, 0
2, 27480, Note_on_c, 0, 81, 0
2, 27480, Note_on_c, 0, 69, 0
2, 27495, Note_on_c, 0, 85, 0
2, 27528, Note_on_c, 0, 57, 80
2, 27528, Note_on_c, 0, 61, 80
2, 27531, Note_on_c, 0, 78, 80
2, 27531, Note_on_c, 0, 81, 80
2, 27531, Note_on_c, 0, 85, 80
2, 27531, Note_on_c, 0, 90, 80
2, 27534, Note_on_c, 0, 73, 0
2, 27626, Note_on_c, 0, 57, 0
2, 27626, Note_on_c, 0, 61, 0
2, 27629, Note_on_c, 0, 81, 0
2, 27629, Note_on_c, 0, 78, 0
2, 27629, Note_on_c, 0, 85, 0
2, 27629, Note_on_c, 0, 90, 0
2, 27744, Note_on_c, 0, 45, 80
2, 27744, Note_on_c, 0, 57, 80
2, 27746, Note_on_c, 0, 73, 80
2, 27746, Note_on_c, 0, 85, 80
2, 27754, Control_c, 0, 64, 127
2, 27800, Note_on_c, 0, 72, 80
2, 27803, Note_on_c, 0, 45, 0
2, 27803, Note_on_c, 0, 84, 80
2, 27806, Note_on_c, 0, 85, 0
2, 27806, Note_on_c, 0, 57, 0
2, 27806, Note_on_c, 0, 73, 0
2, 27852, Note_on_c, 0, 57, 80
2, 27852, Note_on_c, 0, 61, 80
2, 27852, Note_on_c, 0, 64, 80
2, 27852, Note_on_c, 0, 66, 80
2, 27852, Note_on_c, 0, 73, 80
2, 27852, Note_on_c, 0, 85, 80
2, 27857, Note_on_c, 0, 72, 0
2, 27860, Note_on_c, 0, 84, 0
2, 27891, Control_c, 0, 64, 0
2, 27906, Note_on_c, 0, 80, 80
2, 27906, Note_on_c, 0, 92, 80
2, 27909, Note_on_c, 0, 66, 0
2, 27909, Note_on_c, 0, 61, 0
2, 27909, Note_on_c, 0, 85, 0
2, 27909, Note_on_c, 0, 57, 0
2, 27909, Note_on_c, 0, 64, 0
2, 27909, Note_on_c, 0, 73, 0
2, 27955, Note_on_c, 0, 45, 80
2, 27955, Note_on_c, 0, 57, 80
2, 27986, Note_on_c, 0, 92, 0
2, 27986, Note_on_c, 0, 80, 0
2, 28008, Note_on_c, 0, 78, 80
2, 28011, Note_on_c, 0, 90, 80
2, 28060, Note_on_c, 0, 46, 80
2, 28063, Note_on_c, 0, 58, 80
2, 28063, Note_on_c, 0, 76, 80
2, 28066, Note_on_c, 0, 45, 0
2, 28066, Note_on_c, 0, 57, 0
2, 28066, Note_on_c, 0, 88, 80
2, 28069, Note_on_c, 0, 90, 0
2, 28069, Note_on_c, 0, 78, 0
2, 28115, Note_on_c, 0, 73, 80
2, 28115, Note_on_c, 0, 85, 80
2, 28120, Note_on_c, 0, 76, 0
2, 28120, Note_on_c, 0, 88, 0
2, 28149, Control_c, 0, 64, 127
2, 28163, Note_on_c, 0, 47, 80
2, 28166, Note_on_c, 0, 59, 80
2, 28166, Note_on_c, 0, 68, 80
2, 28166, Note_on_c, 0, 80, 80
2, 28169, Note_on_c, 0, 46, 0
2, 28169, Note_on_c, 0, 73, 0
2, 28169, Note_on_c, 0, 58, 0
2, 28172, Note_on_c, 0, 85, 0
2, 28221, Note_on_c, 0, 67, 80
2, 28221, Note_on_c, 0, 79, 80
2, 28224, Note_on_c, 0, 59, 0
2, 28226, Note_on_c, 0, 68, 0
2, 28226, Note_on_c, 0, 80, 0
2, 28271, Note_on_c, 0, 56, 80
2, 28271, Note_on_c, 0, 59, 80
2, 28271, Note_on_c, 0, 64, 80
2, 28271, Note_on_c, 0, 68, 80
2, 28273, Note_on_c, 0, 80, 80
2, 28276, Note_on_c, 0, 67, 0
2, 28279, Note_on_c, 0, 79, 0
2, 28287, Control_c, 0, 64, 0
2, 28325, Note_on_c, 0, 73, 80
2, 28325, Note_on_c, 0, 85, 80
2, 28328, Note_on_c, 0, 64, 0
2, 28331, Note_on_c, 0, 80, 0
2, 28331, Note_on_c, 0, 59, 0
2, 28331, Note_on_c, 0, 56, 0
2, 28331, Note_on_c, 0, 68, 0
2, 28341, Note_on_c, 0, 47, 0
2, 28377, Note_on_c, 0, 35, 80
2, 28380, Note_on_c, 0, 47, 80
2, 28409, Note_on_c, 0, 73, 0
2, 28426, Note_on_c, 0, 85, 0
2, 28434, Note_on_c, 0, 71, 80
2, 28434, Note_on_c, 0, 83, 80
2, 28437, Note_on_c, 0, 35, 0
2, 28449, Note_on_c, 0, 47, 0
2, 28488, Note_on_c, 0, 56, 80
2, 28490, Note_on_c, 0, 59, 80
2, 28490, Note_on_c, 0, 64, 80
2, 28490, Note_on_c, 0, 76, 80
2, 28493, Note_on_c, 0, 71, 0
2, 28496, Note_on_c, 0, 83, 0
2, 28530, Note_on_c, 0, 56, 0
2, 28533, Note_on_c, 0, 59, 0
2, 28533, Note_on_c, 0, 64, 0
2, 28533, Note_on_c, 0, 76, 0
2, 28540, Note_on_c, 0, 65, 80
2, 28545, Note_on_c, 0, 77, 80
2, 28591, Control_c, 0, 64, 127
2, 28594, Note_on_c, 0, 39, 80
2, 28594, Note_on_c, 0, 51, 80
2, 28597, Note_on_c, 0, 66, 80
2, 28597, Note_on_c, 0, 78, 80
2, 28600, Note_on_c, 0, 65, 0
2, 28603, Note_on_c, 0, 77, 0
2, 28649, Note_on_c, 0, 71, 80
2, 28649, Note_on_c, 0, 83, 80
2, 28652, Note_on_c, 0, 51, 0
2, 28652, Note_on_c, 0, 39, 0
2, 28655, Note_on_c, 0, 66, 0
2, 28655, Note_on_c, 0, 78, 0
2, 28691, Control_c, 0, 64, 0
2, 28704, Note_on_c, 0, 57, 80
2, 28706, Note_on_c, 0, 59, 80
2, 28706, Note_on_c, 0, 63, 80
2, 28740, Note_on_c, 0, 83, 0
2, 28740, Note_on_c, 0, 71, 0
2, 28759, Note_on_c, 0, 65, 80
2, 28762, Note_on_c, 0, 77, 80
2, 28765, Note_on_c, 0, 59, 0
2, 28765, Note_on_c, 0, 57, 0
2, 28768, Note_on_c, 0, 63, 0
2, 28814, Note_on_c, 0, 35, 80
2, 28817, Note_on_c, 0, 47, 80
2, 28817, Note_on_c, 0, 66, 80
2, 28820, Note_on_c, 0, 78, 80
2, 28823, Note_on_c, 0, 77, 0
2, 28823, Note_on_c, 0, 65, 0
2, 28837, Note_on_c, 0, 78, 0
2, 28873, Note_on_c, 0, 78, 80
2, 28873, Note_on_c, 0, 90, 80
2, 28876, Note_on_c, 0, 66, 0
2, 28876, Note_on_c, 0, 81, 80
2, 28889, Note_on_c, 0, 35, 0
2, 28892, Note_on_c, 0, 47, 0
2, 28925, Note_on_c, 0, 57, 80
2, 28925, Note_on_c, 0, 59, 80
2, 28928, Note_on_c, 0, 63, 80
2, 28933, Note_on_c, 0, 78, 0
2, 28933, Note_on_c, 0, 81, 0
2, 28933, Note_on_c, 0, 90, 0
2, 28984, Note_on_c, 0, 76, 80
2, 28984, Note_on_c, 0, 80, 80
2, 28984, Note_on_c, 0, 83, 80
2, 28987, Note_on_c, 0, 57, 0
2, 28987, Note_on_c, 0, 63, 0
2, 28987, Note_on_c, 0, 59, 0
2, 28987, Note_on_c, 0, 88, 80
2, 29033, Note_on_c, 0, 40, 80
2, 29036, Note_on_c, 0, 52, 80
2, 29036, Note_on_c, 0, 56, 80
2, 29036, Note_on_c, 0, 59, 80
2, 29045, Control_c, 0, 64, 127
2, 29077, Note_on_c, 0, 40, 0
2, 29080, Note_on_c, 0, 52, 0
2, 29140, Note_on_c, 0, 35, 80
2, 29140, Note_on_c, 0, 47, 80
2, 29143, Control_c, 0, 64, 0
2, 29194, Note_on_c, 0, 36, 80
2, 29194, Note_on_c, 0, 48, 80
2, 29197, Note_on_c, 0, 35, 0
2, 29200, Note_on_c, 0, 47, 0
2, 29249, Note_on_c, 0, 37, 80
2, 29252, Note_on_c, 0, 49, 80
2, 29255, Note_on_c, 0, 36, 0
2, 29259, Note_on_c, 0, 48, 0
2, 29304, Note_on_c, 0, 38, 80
2, 29306, Note_on_c, 0, 50, 80
2, 29309, Note_on_c, 0, 37, 0
2, 29312, Note_on_c, 0, 49, 0
2, 29312, Note_on_c, 0, 59, 0
2, 29312, Note_on_c, 0, 56, 0
2, 29351, Note_on_c, 0, 38, 0
2, 29353, Note_on_c, 0, 83, 0
2, 29353, Note_on_c, 0, 76, 0
2, 29353, Note_on_c, 0, 88, 0
2, 29353, Note_on_c, 0, 80, 0
2, 29358, Note_on_c, 0, 39, 80
2, 29361, Note_on_c, 0, 51, 80
2, 29366, Note_on_c, 0, 50, 0
2, 29410, Note_on_c, 0, 42, 80
2, 29413, Note_on_c, 0, 54, 80
2, 29416, Note_on_c, 0, 51, 0
2, 29416, Note_on_c, 0, 39, 0
2, 29467, Note_on_c, 0, 40, 80
2, 29467, Note_on_c, 0, 56, 80
2, 29470, Note_on_c, 0, 52, 80
2, 29472, Note_on_c, 0, 42, 0
2, 29472, Note_on_c, 0, 68, 80
2, 29475, Note_on_c, 0, 54, 0
2, 29493, Control_c, 0, 64, 127
2, 29512, Note_on_c, 0, 40, 0
2, 29515, Note_on_c, 0, 56, 0
2, 29515, Note_on_c, 0, 52, 0
2, 29515, Note_on_c, 0, 68, 0
2, 29524, Note_on_c, 0, 59, 80
2, 29524, Note_on_c, 0, 71, 80
2, 29542, Note_on_c, 0, 59, 0
2, 29575, Note_on_c, 0, 56, 80
2, 29578, Note_on_c, 0, 59, 80
2, 29578, Note_on_c, 0, 64, 80
2, 29578, Note_on_c, 0, 76, 80
2, 29583, Note_on_c, 0, 71, 0
2, 29591, Control_c, 0, 64, 0
2, 29629, Note_on_c, 0, 68, 80
2, 29632, Note_on_c, 0, 80, 80
2, 29635, Note_on_c, 0, 64, 0
2, 29635, Note_on_c, 0, 56, 0
2, 29635, Note_on_c, 0, 59, 0
2, 29638, Note_on_c, 0, 76, 0
2, 29684, Note_on_c, 0, 35, 80
2, 29684, Note_on_c, 0, 47, 80
2, 29715, Note_on_c, 0, 68, 0
2, 29715, Note_on_c, 0, 80, 0
2, 29735, Note_on_c, 0, 64, 80
2, 29737, Note_on_c, 0, 35, 0
2, 29737, Note_on_c, 0, 47, 0
2, 29737, Note_on_c, 0, 76, 80
2, 29786, Note_on_c, 0, 56, 80
2, 29786, Note_on_c, 0, 59, 80
2, 29786, Note_on_c, 0, 71, 80
2, 29791, Note_on_c, 0, 76, 0
2, 29804, Note_on_c, 0, 56, 0
2, 29831, Note_on_c, 0, 64, 0
2, 29831, Note_on_c, 0, 59, 0
2, 29831, Note_on_c, 0, 71, 0
2, 29840, Note_on_c, 0, 56, 80
2, 29840, Note_on_c, 0, 68, 80
2, 29889, Control_c, 0, 64, 127
2, 29892, Note_on_c, 0, 35, 80
2, 29892, Note_on_c, 0, 47, 80
2, 29895, Note_on_c, 0, 63, 80
2, 29895, Note_on_c, 0, 71, 80
2, 29895, Note_on_c, 0, 75, 80
2, 29898, Note_on_c, 0, 56, 0
2, 29901, Note_on_c, 0, 68, 0
2, 29952, Control_c, 0, 64, 0
2, 29954, Note_on_c, 0, 63, 0
2, 29996, Note_on_c, 0, 71, 0
2, 29996, Note_on_c, 0, 75, 0
2, 30000, Note_on_c, 0, 57, 80
2, 30003, Note_on_c, 0, 59, 80
2, 30003, Note_on_c, 0, 61, 80
2, 30003, Note_on_c, 0, 63, 80
2, 30003, Note_on_c, 0, 69, 80
2, 30003, Note_on_c, 0, 73, 80
2, 30069, Note_on_c, 0, 57, 0
2, 30072, Note_on_c, 0, 61, 0
2, 30072, Note_on_c, 0, 59, 0
2, 30072, Note_on_c, 0, 63, 0
2, 30096, Note_on_c, 0, 35, 0
2, 30098, Note_on_c, 0, 73, 0
2, 30098, Note_on_c, 0, 47, 0
2, 30098, Note_on_c, 0, 69, 0
2, 30106, Note_on_c, 0, 40, 80
2, 30106, Note_on_c, 0, 52, 80
2, 30106, Note_on_c, 0, 59, 80
2, 30106, Note_on_c, 0, 68, 80
2, 30109, Note_on_c, 0, 71, 80
2, 30168, Note_on_c, 0, 59, 0
2, 30212, Note_on_c, 0, 56, 80
2, 30215, Note_on_c, 0, 59, 80
2, 30215, Note_on_c, 0, 64, 80
2, 30237, Note_on_c, 0, 68, 0
2, 30237, Note_on_c, 0, 71, 0
2, 30264, Note_on_c, 0, 59, 0
2, 30264, Note_on_c, 0, 56, 0
2, 30264, Note_on_c, 0, 64, 0
2, 30302, Note_on_c, 0, 40, 0
2, 30302, Note_on_c, 0, 52, 0
2, 30324, Note_on_c, 0, 42, 80
2, 30324, Note_on_c, 0, 54, 80
2, 30327, Note_on_c, 0, 69, 80
2, 30327, Note_on_c, 0, 81, 80
2, 30336, Control_c, 0, 64, 127
2, 30383, Note_on_c, 0, 54, 0
2, 30383, Note_on_c, 0, 42, 0
2, 30383, Note_on_c, 0, 75, 80
2, 30385, Note_on_c, 0, 69, 0
2, 30385, Note_on_c, 0, 81, 0
2, 30436, Control_c, 0, 64, 0
2, 30436, Note_on_c, 0, 57, 80
2, 30436, Note_on_c, 0, 59, 80
2, 30436, Note_on_c, 0, 63, 80
2, 30436, Note_on_c, 0, 78, 80
2, 30441, Note_on_c, 0, 75, 0
2, 30487, Note_on_c, 0, 69, 80
2, 30490, Note_on_c, 0, 81, 80
2, 30493, Note_on_c, 0, 63, 0
2, 30493, Note_on_c, 0, 57, 0
2, 30493, Note_on_c, 0, 59, 0
2, 30496, Note_on_c, 0, 78, 0
2, 30540, Note_on_c, 0, 42, 80
2, 30543, Note_on_c, 0, 54, 80
2, 30589, Note_on_c, 0, 69, 0
2, 30589, Note_on_c, 0, 81, 0
2, 30597, Note_on_c, 0, 42, 0
2, 30597, Note_on_c, 0, 75, 80
2, 30597, Note_on_c, 0, 78, 80
2, 30600, Note_on_c, 0, 54, 0
2, 30650, Note_on_c, 0, 43, 80
2, 30650, Note_on_c, 0, 55, 80
2, 30650, Note_on_c, 0, 70, 80
2, 30653, Note_on_c, 0, 82, 80
2, 30656, Note_on_c, 0, 78, 0
2, 30656, Note_on_c, 0, 75, 0
2, 30697, Note_on_c, 0, 82, 0
2, 30707, Note_on_c, 0, 71, 80
2, 30707, Note_on_c, 0, 83, 80
2, 30710, Note_on_c, 0, 55, 0
2, 30710, Note_on_c, 0, 43, 0
2, 30710, Note_on_c, 0, 70, 0
2, 30742, Control_c, 0, 64, 127
2, 30756, Note_on_c, 0, 44, 80
2, 30756, Note_on_c, 0, 56, 80
2, 30764, Note_on_c, 0, 83, 0
2, 30767, Note_on_c, 0, 71, 0
2, 30808, Note_on_c, 0, 45, 80
2, 30811, Note_on_c, 0, 57, 80
2, 30811, Note_on_c, 0, 71, 80
2, 30811, Note_on_c, 0, 83, 80
2, 30814, Note_on_c, 0, 44, 0
2, 30814, Note_on_c, 0, 56, 0
2, 30836, Control_c, 0, 64, 0
2, 30850, Note_on_c, 0, 45, 0
2, 30853, Note_on_c, 0, 57, 0
2, 30856, Note_on_c, 0, 71, 0
2, 30856, Note_on_c, 0, 83, 0
2, 30861, Note_on_c, 0, 47, 80
2, 30861, Note_on_c, 0, 59, 80
2, 30864, Note_on_c, 0, 68, 80
2, 30864, Note_on_c, 0, 80, 80
2, 30912, Note_on_c, 0, 46, 80
2, 30912, Note_on_c, 0, 64, 80
2, 30915, Note_on_c, 0, 58, 80
2, 30915, Note_on_c, 0, 76, 80
2, 30918, Note_on_c, 0, 68, 0
2, 30918, Note_on_c, 0, 47, 0
2, 30918, Note_on_c, 0, 59, 0
2, 30921, Note_on_c, 0, 80, 0
2, 30965, Note_on_c, 0, 45, 80
2, 30968, Note_on_c, 0, 57, 80
2, 30968, Note_on_c, 0, 61, 80
2, 30971, Note_on_c, 0, 46, 0
2, 30971, Note_on_c, 0, 73, 80
2, 30974, Note_on_c, 0, 64, 0
2, 30974, Note_on_c, 0, 76, 0
2, 30974, Note_on_c, 0, 58, 0
2, 31020, Note_on_c, 0, 60, 80
2, 31020, Note_on_c, 0, 72, 80
2, 31023, Note_on_c, 0, 45, 0
2, 31023, Note_on_c, 0, 61, 0
2, 31023, Note_on_c, 0, 57, 0
2, 31026, Note_on_c, 0, 73, 0
2, 31075, Note_on_c, 0, 44, 80
2, 31075, Note_on_c, 0, 56, 80
2, 31075, Note_on_c, 0, 71, 80
2, 31078, Note_on_c, 0, 59, 80
2, 31080, Note_on_c, 0, 60, 0
2, 31080, Note_on_c, 0, 72, 0
2, 31129, Note_on_c, 0, 42, 80
2, 31129, Note_on_c, 0, 54, 80
2, 31129, Note_on_c, 0, 57, 80
2, 31129, Note_on_c, 0, 69, 80
2, 31132, Note_on_c, 0, 44, 0
2, 31132, Note_on_c, 0, 56, 0
2, 31132, Note_on_c, 0, 59, 0
2, 31137, Note_on_c, 0, 71, 0
2, 31181, Note_on_c, 0, 40, 80
2, 31181, Note_on_c, 0, 56, 80
2, 31184, Note_on_c, 0, 52, 80
2, 31184, Note_on_c, 0, 68, 80
2, 31187, Note_on_c, 0, 42, 0
2, 31187, Note_on_c, 0, 54, 0
2, 31187, Note_on_c, 0, 57, 0
2, 31190, Note_on_c, 0, 69, 0
2, 31222, Control_c, 0, 64, 127
2, 31236, Note_on_c, 0, 59, 80
2, 31236, Note_on_c, 0, 71, 80
2, 31241, Note_on_c, 0, 56, 0
2, 31244, Note_on_c, 0, 68, 0
2, 31253, Note_on_c, 0, 59, 0
2, 31275, Control_c, 0, 64, 0
2, 31288, Note_on_c, 0, 56, 80
2, 31288, Note_on_c, 0, 59, 80
2, 31288, Note_on_c, 0, 64, 80
2, 31288, Note_on_c, 0, 76, 80
2, 31293, Note_on_c, 0, 71, 0
2, 31331, Note_on_c, 0, 52, 0
2, 31339, Note_on_c, 0, 68, 80
2, 31342, Note_on_c, 0, 40, 0
2, 31342, Note_on_c, 0, 80, 80
2, 31344, Note_on_c, 0, 76, 0
2, 31344, Note_on_c, 0, 56, 0
2, 31344, Note_on_c, 0, 59, 0
2, 31344, Note_on_c, 0, 64, 0
2, 31393, Note_on_c, 0, 35, 80
2, 31396, Note_on_c, 0, 47, 80
2, 31430, Note_on_c, 0, 68, 0
2, 31430, Note_on_c, 0, 80, 0
2, 31452, Note_on_c, 0, 64, 80
2, 31452, Note_on_c, 0, 76, 80
2, 31469, Note_on_c, 0, 64, 0
2, 31503, Note_on_c, 0, 56, 80
2, 31503, Note_on_c, 0, 59, 80
2, 31503, Note_on_c, 0, 64, 80
2, 31503, Note_on_c, 0, 71, 80
2, 31508, Note_on_c, 0, 76, 0
2, 31520, Note_on_c, 0, 56, 0
2, 31557, Note_on_c, 0, 56, 80
2, 31557, Note_on_c, 0, 68, 80
2, 31560, Note_on_c, 0, 35, 0
2, 31562, Note_on_c, 0, 47, 0
2, 31562, Note_on_c, 0, 59, 0
2, 31565, Note_on_c, 0, 71, 0
2, 31575, Note_on_c, 0, 64, 0
2, 31611, Note_on_c, 0, 35, 80
2, 31611, Note_on_c, 0, 47, 80
2, 31614, Note_on_c, 0, 63, 80
2, 31614, Note_on_c, 0, 71, 80
2, 31614, Note_on_c, 0, 75, 80
2, 31619, Note_on_c, 0, 68, 0
2, 31622, Note_on_c, 0, 56, 0
2, 31625, Control_c, 0, 64, 127
2, 31680, Control_c, 0, 64, 0
2, 31712, Note_on_c, 0, 63, 0
2, 31712, Note_on_c, 0, 71, 0
2, 31715, Note_on_c, 0, 75, 0
2, 31723, Note_on_c, 0, 56, 80
2, 31723, Note_on_c, 0, 59, 80
2, 31723, Note_on_c, 0, 61, 80
2, 31723, Note_on_c, 0, 69, 80
2, 31723, Note_on_c, 0, 73, 80
2, 31778, Note_on_c, 0, 35, 0
2, 31781, Note_on_c, 0, 47, 0
2, 31781, Note_on_c, 0, 56, 0
2, 31784, Note_on_c, 0, 61, 0
2, 31784, Note_on_c, 0, 59, 0
2, 31784, Note_on_c, 0, 69, 0
2, 31784, Note_on_c, 0, 73, 0
2, 31830, Note_on_c, 0, 40, 80
2, 31830, Note_on_c, 0, 52, 80
2, 31833, Note_on_c, 0, 59, 80
2, 31833, Note_on_c, 0, 68, 80
2, 31833, Note_on_c, 0, 71, 80
2, 31892, Note_on_c, 0, 71, 0
2, 31892, Note_on_c, 0, 59, 0
2, 31892, Note_on_c, 0, 68, 0
2, 31896, Note_on_c, 0, 52, 0
2, 31943, Note_on_c, 0, 53, 80
2, 31943, Note_on_c, 0, 56, 80
2, 31943, Note_on_c, 0, 59, 80
2, 31943, Note_on_c, 0, 62, 80
2, 31943, Note_on_c, 0, 68, 80
2, 31945, Note_on_c, 0, 80, 80
2, 31984, Note_on_c, 0, 62, 0
2, 31984, Note_on_c, 0, 59, 0
2, 31984, Note_on_c, 0, 56, 0
2, 31984, Note_on_c, 0, 53, 0
2, 31987, Note_on_c, 0, 68, 0
2, 31987, Note_on_c, 0, 80, 0
2, 32031, Control_c, 0, 64, 127
2, 32045, Note_on_c, 0, 54, 80
2, 32045, Note_on_c, 0, 59, 80
2, 32048, Note_on_c, 0, 63, 80
2, 32048, Note_on_c, 0, 66, 80
2, 32051, Note_on_c, 0, 78, 80
2, 32095, Note_on_c, 0, 78, 0
2, 32103, Note_on_c, 0, 71, 80
2, 32106, Note_on_c, 0, 66, 0
2, 32118, Note_on_c, 0, 40, 0
2, 32157, Note_on_c, 0, 75, 80
2, 32166, Note_on_c, 0, 71, 0
2, 32171, Control_c, 0, 64, 0
2, 32209, Note_on_c, 0, 71, 80
2, 32212, Note_on_c, 0, 68, 80
2, 32212, Note_on_c, 0, 73, 80
2, 32212, Note_on_c, 0, 77, 80
2, 32212, Note_on_c, 0, 80, 80
2, 32217, Note_on_c, 0, 75, 0
2, 32239, Note_on_c, 0, 59, 0
2, 32239, Note_on_c, 0, 54, 0
2, 32242, Note_on_c, 0, 63, 0
2, 32264, Note_on_c, 0, 49, 80
2, 32264, Note_on_c, 0, 61, 80
2, 32269, Note_on_c, 0, 77, 0
2, 32283, Note_on_c, 0, 73, 0
2, 32283, Note_on_c, 0, 68, 0
2, 32317, Note_on_c, 0, 68, 80
2, 32320, Note_on_c, 0, 73, 80
2, 32320, Note_on_c, 0, 77, 80
2, 32323, Note_on_c, 0, 61, 0
2, 32323, Note_on_c, 0, 49, 0
2, 32337, Note_on_c, 0, 73, 0
2, 32371, Note_on_c, 0, 42, 80
2, 32374, Note_on_c, 0, 54, 80
2, 32374, Note_on_c, 0, 70, 80
2, 32374, Note_on_c, 0, 73, 80
2, 32374, Note_on_c, 0, 76, 80
2, 32374, Note_on_c, 0, 82, 80
2, 32378, Note_on_c, 0, 71, 0
2, 32378, Note_on_c, 0, 68, 0
2, 32378, Note_on_c, 0, 80, 0
2, 32378, Note_on_c, 0, 77, 0
2, 32417, Note_on_c, 0, 82, 0
2, 32426, Note_on_c, 0, 42, 0
2, 32426, Note_on_c, 0, 54, 0
2, 32429, Note_on_c, 0, 70, 0
2, 32429, Note_on_c, 0, 76, 0
2, 32429, Note_on_c, 0, 73, 0
2, 32475, Control_c, 0, 64, 127
2, 32478, Note_on_c, 0, 47, 80
2, 32481, Note_on_c, 0, 59, 80
2, 32481, Note_on_c, 0, 71, 80
2, 32481, Note_on_c, 0, 75, 80
2, 32481, Note_on_c, 0, 78, 80
2, 32481, Note_on_c, 0, 83, 80
2, 32532, Note_on_c, 0, 46, 80
2, 32532, Note_on_c, 0, 58, 80
2, 32537, Note_on_c, 0, 59, 0
2, 32537, Note_on_c, 0, 47, 0
2, 32583, Note_on_c, 0, 45, 80
2, 32586, Note_on_c, 0, 57, 80
2, 32591, Note_on_c, 0, 58, 0
2, 32591, Note_on_c, 0, 46, 0
2, 32613, Control_c, 0, 64, 0
2, 32637, Note_on_c, 0, 47, 80
2, 32640, Note_on_c, 0, 59, 80
2, 32642, Note_on_c, 0, 57, 0
2, 32642, Note_on_c, 0, 45, 0
2, 32688, Note_on_c, 0, 44, 80
2, 32688, Note_on_c, 0, 56, 80
2, 32693, Note_on_c, 0, 47, 0
2, 32696, Note_on_c, 0, 59, 0
2, 32740, Note_on_c, 0, 43, 80
2, 32740, Note_on_c, 0, 55, 80
2, 32743, Note_on_c, 0, 44, 0
2, 32746, Note_on_c, 0, 56, 0
2, 32792, Note_on_c, 0, 42, 80
2, 32795, Note_on_c, 0, 54, 80
2, 32798, Note_on_c, 0, 55, 0
2, 32798, Note_on_c, 0, 43, 0
2, 32847, Note_on_c, 0, 41, 80
2, 32847, Note_on_c, 0, 53, 80
2, 32852, Note_on_c, 0, 54, 0
2, 32852, Note_on_c, 0, 42, 0
2, 32855, Note_on_c, 0, 75, 0
2, 32855, Note_on_c, 0, 83, 0
2, 32855, Note_on_c, 0, 78, 0
2, 32855, Note_on_c, 0, 71, 0
2, 32901, Note_on_c, 0, 40, 80
2, 32904, Note_on_c, 0, 52, 80
2, 32904, Note_on_c, 0, 56, 80
2, 32904, Note_on_c, 0, 68, 80
2, 32908, Note_on_c, 0, 53, 0
2, 32913, Control_c, 0, 64, 127
2, 32921, Note_on_c, 0, 41, 0
2, 32954, Note_on_c, 0, 59, 80
2, 32957, Note_on_c, 0, 71, 80
2, 32960, Note_on_c, 0, 56, 0
2, 32963, Note_on_c, 0, 68, 0
2, 32971, Control_c, 0, 64, 0
2, 32976, Note_on_c, 0, 59, 0
2, 33009, Note_on_c, 0, 56, 80
2, 33012, Note_on_c, 0, 59, 80
2, 33012, Note_on_c, 0, 64, 80
2, 33012, Note_on_c, 0, 76, 80
2, 33017, Note_on_c, 0, 71, 0
2, 33068, Note_on_c, 0, 68, 80
2, 33068, Note_on_c, 0, 80, 80
2, 33071, Note_on_c, 0, 59, 0
2, 33071, Note_on_c, 0, 56, 0
2, 33071, Note_on_c, 0, 64, 0
2, 33073, Note_on_c, 0, 76, 0
2, 33096, Note_on_c, 0, 40, 0
2, 33096, Note_on_c, 0, 52, 0
2, 33122, Note_on_c, 0, 35, 80
2, 33122, Note_on_c, 0, 47, 80
2, 33154, Note_on_c, 0, 68, 0
2, 33154, Note_on_c, 0, 80, 0
2, 33181, Note_on_c, 0, 64, 80
2, 33181, Note_on_c, 0, 76, 80
2, 33232, Note_on_c, 0, 56, 80
2, 33232, Note_on_c, 0, 59, 80
2, 33232, Note_on_c, 0, 71, 80
2, 33240, Note_on_c, 0, 76, 0
2, 33249, Note_on_c, 0, 56, 0
2, 33273, Note_on_c, 0, 35, 0
2, 33276, Note_on_c, 0, 47, 0
2, 33286, Note_on_c, 0, 56, 80
2, 33286, Note_on_c, 0, 68, 80
2, 33290, Note_on_c, 0, 64, 0
2, 33290, Note_on_c, 0, 59, 0
2, 33290, Note_on_c, 0, 71, 0
2, 33339, Note_on_c, 0, 35, 80
2, 33339, Note_on_c, 0, 47, 80
2, 33342, Note_on_c, 0, 63, 80
2, 33342, Note_on_c, 0, 71, 80
2, 33342, Note_on_c, 0, 75, 80
2, 33347, Note_on_c, 0, 56, 0
2, 33347, Note_on_c, 0, 68, 0
2, 33366, Control_c, 0, 64, 127
2, 33425, Control_c, 0, 64, 0
2, 33428, Note_on_c, 0, 63, 0
2, 33431, Note_on_c, 0, 71, 0
2, 33431, Note_on_c, 0, 75, 0
2, 33450, Note_on_c, 0, 57, 80
2, 33453, Note_on_c, 0, 59, 80
2, 33453, Note_on_c, 0, 61, 80
2, 33453, Note_on_c, 0, 63, 80
2, 33453, Note_on_c, 0, 69, 80
2, 33453, Note_on_c, 0, 73, 80
2, 33508, Note_on_c, 0, 69, 0
2, 33508, Note_on_c, 0, 59, 0
2, 33508, Note_on_c, 0, 61, 0
2, 33508, Note_on_c, 0, 57, 0
2, 33508, Note_on_c, 0, 63, 0
2, 33511, Note_on_c, 0, 73, 0
2, 33548, Note_on_c, 0, 35, 0
2, 33548, Note_on_c, 0, 47, 0
2, 33557, Note_on_c, 0, 40, 80
2, 33560, Note_on_c, 0, 52, 80
2, 33560, Note_on_c, 0, 59, 80
2, 33560, Note_on_c, 0, 68, 80
2, 33560, Note_on_c, 0, 71, 80
2, 33616, Note_on_c, 0, 40, 0
2, 33619, Note_on_c, 0, 52, 0
2, 33619, Note_on_c, 0, 59, 0
2, 33665, Note_on_c, 0, 56, 80
2, 33665, Note_on_c, 0, 59, 80
2, 33668, Note_on_c, 0, 64, 80
2, 33696, Note_on_c, 0, 68, 0
2, 33696, Note_on_c, 0, 71, 0
2, 33720, Note_on_c, 0, 59, 0
2, 33720, Note_on_c, 0, 56, 0
2, 33720, Note_on_c, 0, 64, 0
2, 33765, Control_c, 0, 64, 127
2, 33768, Note_on_c, 0, 42, 80
2, 33768, Note_on_c, 0, 54, 80
2, 33770, Note_on_c, 0, 69, 80
2, 33770, Note_on_c, 0, 81, 80
2, 33821, Control_c, 0, 64, 0
2, 33821, Note_on_c, 0, 75, 80
2, 33824, Note_on_c, 0, 69, 0
2, 33824, Note_on_c, 0, 42, 0
2, 33824, Note_on_c, 0, 54, 0
2, 33827, Note_on_c, 0, 81, 0
2, 33871, Note_on_c, 0, 57, 80
2, 33871, Note_on_c, 0, 59, 80
2, 33874, Note_on_c, 0, 63, 80
2, 33874, Note_on_c, 0, 78, 80
2, 33877, Note_on_c, 0, 75, 0
2, 33915, Note_on_c, 0, 78, 0
2, 33923, Note_on_c, 0, 69, 80
2, 33923, Note_on_c, 0, 81, 80
2, 33926, Note_on_c, 0, 57, 0
2, 33926, Note_on_c, 0, 59, 0
2, 33929, Note_on_c, 0, 63, 0
2, 33973, Note_on_c, 0, 42, 80
2, 33973, Note_on_c, 0, 54, 80
2, 34005, Note_on_c, 0, 81, 0
2, 34005, Note_on_c, 0, 69, 0
2, 34024, Note_on_c, 0, 75, 80
2, 34027, Note_on_c, 0, 42, 0
2, 34027, Note_on_c, 0, 78, 80
2, 34030, Note_on_c, 0, 54, 0
2, 34076, Note_on_c, 0, 43, 80
2, 34076, Note_on_c, 0, 55, 80
2, 34076, Note_on_c, 0, 70, 80
2, 34079, Note_on_c, 0, 82, 80
2, 34083, Note_on_c, 0, 78, 0
2, 34083, Note_on_c, 0, 75, 0
2, 34129, Note_on_c, 0, 71, 80
2, 34132, Note_on_c, 0, 43, 0
2, 34132, Note_on_c, 0, 83, 80
2, 34135, Note_on_c, 0, 55, 0
2, 34135, Note_on_c, 0, 70, 0
2, 34138, Note_on_c, 0, 82, 0
2, 34179, Note_on_c, 0, 44, 80
2, 34179, Note_on_c, 0, 56, 80
2, 34189, Note_on_c, 0, 83, 0
2, 34192, Control_c, 0, 64, 127
2, 34224, Note_on_c, 0, 56, 0
2, 34233, Note_on_c, 0, 45, 80
2, 34233, Note_on_c, 0, 57, 80
2, 34238, Note_on_c, 0, 44, 0
2, 34238, Note_on_c, 0, 83, 80
2, 34241, Note_on_c, 0, 71, 0
2, 34250, Control_c, 0, 64, 0
2, 34289, Note_on_c, 0, 47, 80
2, 34292, Note_on_c, 0, 59, 80
2, 34292, Note_on_c, 0, 80, 80
2, 34295, Note_on_c, 0, 57, 0
2, 34295, Note_on_c, 0, 45, 0
2, 34297, Note_on_c, 0, 83, 0
2, 34346, Note_on_c, 0, 46, 80
2, 34349, Note_on_c, 0, 58, 80
2, 34349, Note_on_c, 0, 76, 80
2, 34352, Note_on_c, 0, 47, 0
2, 34352, Note_on_c, 0, 59, 0
2, 34352, Note_on_c, 0, 80, 0
2, 34401, Note_on_c, 0, 45, 80
2, 34401, Note_on_c, 0, 57, 80
2, 34401, Note_on_c, 0, 73, 80
2, 34406, Note_on_c, 0, 46, 0
2, 34406, Note_on_c, 0, 76, 0
2, 34406, Note_on_c, 0, 58, 0
2, 34455, Note_on_c, 0, 72, 80
2, 34458, Note_on_c, 0, 45, 0
2, 34461, Note_on_c, 0, 73, 0
2, 34461, Note_on_c, 0, 57, 0
2, 34507, Note_on_c, 0, 44, 80
2, 34507, Note_on_c, 0, 71, 80
2, 34510, Note_on_c, 0, 56, 80
2, 34514, Note_on_c, 0, 72, 0
2, 34580, Note_on_c, 0, 44, 0
2, 34583, Note_on_c, 0, 71, 0
2, 34583, Note_on_c, 0, 56, 0
2, 34605, Control_c, 0, 64, 127
2, 34619, Note_on_c, 0, 45, 80
2, 34619, Note_on_c, 0, 57, 80
2, 34622, Note_on_c, 0, 73, 80
2, 34622, Note_on_c, 0, 85, 80
2, 34678, Note_on_c, 0, 81, 80
2, 34682, Note_on_c, 0, 85, 0
2, 34682, Note_on_c, 0, 73, 0
2, 34682, Note_on_c, 0, 45, 0
2, 34682, Note_on_c, 0, 57, 0
2, 34704, Control_c, 0, 64, 0
2, 34733, Note_on_c, 0, 57, 80
2, 34733, Note_on_c, 0, 61, 80
2, 34733, Note_on_c, 0, 66, 80
2, 34736, Note_on_c, 0, 83, 80
2, 34739, Note_on_c, 0, 81, 0
2, 34788, Note_on_c, 0, 87, 80
2, 34791, Note_on_c, 0, 75, 80
2, 34794, Note_on_c, 0, 66, 0
2, 34794, Note_on_c, 0, 83, 0
2, 34794, Note_on_c, 0, 57, 0
2, 34794, Note_on_c, 0, 61, 0
2, 34843, Note_on_c, 0, 45, 80
2, 34843, Note_on_c, 0, 57, 80
2, 34896, Note_on_c, 0, 81, 80
2, 34899, Note_on_c, 0, 57, 0
2, 34902, Note_on_c, 0, 75, 0
2, 34902, Note_on_c, 0, 87, 0
2, 34912, Note_on_c, 0, 45, 0
2, 34948, Note_on_c, 0, 43, 80
2, 34948, Note_on_c, 0, 55, 80
2, 34948, Note_on_c, 0, 73, 80
2, 34951, Note_on_c, 0, 85, 80
2, 34956, Note_on_c, 0, 81, 0
2, 35019, Note_on_c, 0, 73, 0
2, 35019, Note_on_c, 0, 43, 0
2, 35019, Note_on_c, 0, 55, 0
2, 35022, Note_on_c, 0, 85, 0
2, 35056, Note_on_c, 0, 44, 80
2, 35056, Note_on_c, 0, 56, 80
2, 35056, Note_on_c, 0, 71, 80
2, 35056, Note_on_c, 0, 83, 80
2, 35092, Control_c, 0, 64, 127
2, 35110, Note_on_c, 0, 76, 80
2, 35110, Note_on_c, 0, 80, 80
2, 35112, Note_on_c, 0, 44, 0
2, 35115, Note_on_c, 0, 83, 0
2, 35115, Note_on_c, 0, 56, 0
2, 35115, Note_on_c, 0, 71, 0
2, 35152, Control_c, 0, 64, 0
2, 35164, Note_on_c, 0, 56, 80
2, 35164, Note_on_c, 0, 59, 80
2, 35164, Note_on_c, 0, 64, 80
2, 35164, Note_on_c, 0, 73, 80
2, 35164, Note_on_c, 0, 85, 80
2, 35167, Note_on_c, 0, 80, 0
2, 35170, Note_on_c, 0, 76, 0
2, 35214, Note_on_c, 0, 71, 80
2, 35214, Note_on_c, 0, 83, 80
2, 35219, Note_on_c, 0, 56, 0
2, 35219, Note_on_c, 0, 73, 0
2, 35219, Note_on_c, 0, 59, 0
2, 35219, Note_on_c, 0, 64, 0
2, 35219, Note_on_c, 0, 85, 0
2, 35268, Note_on_c, 0, 56, 80
2, 35268, Note_on_c, 0, 59, 80
2, 35268, Note_on_c, 0, 64, 80
2, 35312, Note_on_c, 0, 83, 0
2, 35312, Note_on_c, 0, 71, 0
2, 35322, Note_on_c, 0, 80, 80
2, 35376, Note_on_c, 0, 76, 80
2, 35380, Note_on_c, 0, 80, 0
2, 35380, Note_on_c, 0, 59, 0
2, 35380, Note_on_c, 0, 64, 0
2, 35380, Note_on_c, 0, 56, 0
2, 35431, Note_on_c, 0, 65, 80
2, 35436, Note_on_c, 0, 76, 0
2, 35482, Control_c, 0, 64, 127
2, 35482, Note_on_c, 0, 35, 80
2, 35485, Note_on_c, 0, 47, 80
2, 35485, Note_on_c, 0, 66, 80
2, 35490, Note_on_c, 0, 65, 0
2, 35539, Note_on_c, 0, 71, 80
2, 35542, Note_on_c, 0, 35, 0
2, 35542, Note_on_c, 0, 66, 0
2, 35542, Note_on_c, 0, 47, 0
2, 35542, Control_c, 0, 64, 0
2, 35591, Note_on_c, 0, 59, 80
2, 35593, Note_on_c, 0, 57, 80
2, 35593, Note_on_c, 0, 63, 80
2, 35635, Note_on_c, 0, 71, 0
2, 35644, Note_on_c, 0, 65, 80
2, 35649, Note_on_c, 0, 59, 0
2, 35649, Note_on_c, 0, 63, 0
2, 35652, Note_on_c, 0, 57, 0
2, 35696, Note_on_c, 0, 39, 80
2, 35699, Note_on_c, 0, 51, 80
2, 35704, Note_on_c, 0, 65, 0
2, 35713, Note_on_c, 0, 66, 80
2, 35731, Note_on_c, 0, 66, 0
2, 35753, Note_on_c, 0, 66, 80
2, 35753, Note_on_c, 0, 69, 80
2, 35753, Note_on_c, 0, 78, 80
2, 35770, Note_on_c, 0, 51, 0
2, 35770, Note_on_c, 0, 39, 0
2, 35807, Note_on_c, 0, 51, 80
2, 35807, Note_on_c, 0, 57, 80
2, 35807, Note_on_c, 0, 59, 80
2, 35835, Note_on_c, 0, 66, 0
2, 35838, Note_on_c, 0, 78, 0
2, 35838, Note_on_c, 0, 69, 0
2, 35860, Note_on_c, 0, 64, 80
2, 35860, Note_on_c, 0, 68, 80
2, 35860, Note_on_c, 0, 76, 80
2, 35863, Note_on_c, 0, 51, 0
2, 35866, Note_on_c, 0, 59, 0
2, 35866, Note_on_c, 0, 57, 0
2, 35915, Note_on_c, 0, 40, 80
2, 35915, Note_on_c, 0, 52, 80
2, 35915, Note_on_c, 0, 56, 80
2, 35918, Note_on_c, 0, 59, 80
2, 35928, Control_c, 0, 64, 127
2, 35969, Note_on_c, 0, 37, 80
2, 35969, Note_on_c, 0, 49, 80
2, 35974, Note_on_c, 0, 52, 0
2, 35974, Note_on_c, 0, 40, 0
2, 36018, Note_on_c, 0, 35, 80
2, 36018, Note_on_c, 0, 47, 80
2, 36023, Note_on_c, 0, 37, 0
2, 36023, Note_on_c, 0, 49, 0
2, 36023, Control_c, 0, 64, 0
2, 36069, Note_on_c, 0, 32, 80
2, 36069, Note_on_c, 0, 44, 80
2, 36076, Note_on_c, 0, 76, 0
2, 36076, Note_on_c, 0, 68, 0
2, 36086, Note_on_c, 0, 35, 0
2, 36089, Note_on_c, 0, 64, 0
2, 36089, Note_on_c, 0, 47, 0
2, 36122, Note_on_c, 0, 28, 80
2, 36122, Note_on_c, 0, 40, 80
2, 36122, Note_on_c, 0, 64, 80
2, 36122, Note_on_c, 0, 68, 80
2, 36122, Note_on_c, 0, 76, 80
2, 36125, Note_on_c, 0, 32, 0
2, 36125, Note_on_c, 0, 44, 0
2, 36232, Note_on_c, 0, 59, 0
2, 36232, Note_on_c, 0, 56, 0
2, 36283, Note_on_c, 0, 64, 0
2, 36283, Note_on_c, 0, 68, 0
2, 36283, Note_on_c, 0, 76, 0
2, 36324, Note_on_c, 0, 40, 0
2, 36324, Note_on_c, 0, 28, 0
2, 36329, Note_on_c, 0, 33, 80
2, 36329, Note_on_c, 0, 45, 80
2, 36332, Note_on_c, 0, 76, 80
2, 36359, Control_c, 0, 64, 127
2, 36385, Note_on_c, 0, 75, 80
2, 36388, Note_on_c, 0, 45, 0
2, 36388, Note_on_c, 0, 33, 0
2, 36391, Note_on_c, 0, 76, 0
2, 36415, Control_c, 0, 64, 0
2, 36439, Note_on_c, 0, 61, 80
2, 36442, Note_on_c, 0, 52, 80
2, 36442, Note_on_c, 0, 57, 80
2, 36442, Note_on_c, 0, 76, 80
2, 36445, Note_on_c, 0, 75, 0
2, 36489, Note_on_c, 0, 57, 0
2, 36489, Note_on_c, 0, 61, 0
2, 36492, Note_on_c, 0, 52, 0
2, 36500, Note_on_c, 0, 78, 80
2, 36503, Note_on_c, 0, 76, 0
2, 36552, Note_on_c, 0, 40, 80
2, 36566, Note_on_c, 0, 28, 80
2, 36569, Note_on_c, 0, 78, 0
2, 36605, Note_on_c, 0, 76, 80
2, 36610, Note_on_c, 0, 28, 0
2, 36610, Note_on_c, 0, 40, 0
2, 36648, Note_on_c, 0, 76, 0
2, 36661, Note_on_c, 0, 52, 80
2, 36661, Note_on_c, 0, 57, 80
2, 36661, Note_on_c, 0, 61, 80
2, 36661, Note_on_c, 0, 71, 80
2, 36715, Note_on_c, 0, 73, 80
2, 36718, Note_on_c, 0, 71, 0
2, 36718, Note_on_c, 0, 61, 0
2, 36718, Note_on_c, 0, 52, 0
2, 36718, Note_on_c, 0, 57, 0
2, 36764, Note_on_c, 0, 35, 80
2, 36767, Note_on_c, 0, 47, 80
2, 36767, Note_on_c, 0, 74, 80
2, 36771, Note_on_c, 0, 73, 0
2, 36803, Control_c, 0, 64, 127
2, 36817, Note_on_c, 0, 73, 80
2, 36822, Note_on_c, 0, 74, 0
2, 36832, Note_on_c, 0, 35, 0
2, 36835, Note_on_c, 0, 47, 0
2, 36859, Control_c, 0, 64, 0
2, 36866, Note_on_c, 0, 52, 80
2, 36866, Note_on_c, 0, 56, 80
2, 36869, Note_on_c, 0, 62, 80
2, 36869, Note_on_c, 0, 74, 80
2, 36874, Note_on_c, 0, 73, 0
2, 36912, Note_on_c, 0, 62, 0
2, 36912, Note_on_c, 0, 52, 0
2, 36912, Note_on_c, 0, 56, 0
2, 36912, Note_on_c, 0, 74, 0
2, 36922, Note_on_c, 0, 68, 80
2, 36976, Note_on_c, 0, 40, 80
2, 36988, Note_on_c, 0, 28, 80
2, 37030, Note_on_c, 0, 28, 0
2, 37032, Note_on_c, 0, 40, 0
2, 37071, Note_on_c, 0, 68, 0
2, 37080, Note_on_c, 0, 52, 80
2, 37080, Note_on_c, 0, 56, 80
2, 37080, Note_on_c, 0, 62, 80
2, 37134, Note_on_c, 0, 56, 0
2, 37134, Note_on_c, 0, 52, 0
2, 37137, Note_on_c, 0, 62, 0
2, 37186, Note_on_c, 0, 35, 80
2, 37186, Note_on_c, 0, 47, 80
2, 37189, Note_on_c, 0, 68, 80
2, 37199, Control_c, 0, 64, 127
2, 37237, Note_on_c, 0, 67, 80
2, 37242, Note_on_c, 0, 47, 0
2, 37242, Note_on_c, 0, 35, 0
2, 37245, Note_on_c, 0, 68, 0
2, 37291, Note_on_c, 0, 59, 80
2, 37294, Note_on_c, 0, 52, 80
2, 37294, Note_on_c, 0, 62, 80
2, 37294, Note_on_c, 0, 68, 80
2, 37296, Control_c, 0, 64, 0
2, 37299, Note_on_c, 0, 67, 0
2, 37345, Note_on_c, 0, 73, 80
2, 37350, Note_on_c, 0, 62, 0
2, 37350, Note_on_c, 0, 68, 0
2, 37350, Note_on_c, 0, 59, 0
2, 37350, Note_on_c, 0, 52, 0
2, 37401, Note_on_c, 0, 40, 80
2, 37414, Note_on_c, 0, 28, 80
2, 37431, Note_on_c, 0, 73, 0
2, 37458, Note_on_c, 0, 71, 80
2, 37461, Note_on_c, 0, 28, 0
2, 37461, Note_on_c, 0, 40, 0
2, 37510, Note_on_c, 0, 62, 80
2, 37510, Note_on_c, 0, 66, 80
2, 37512, Note_on_c, 0, 52, 80
2, 37512, Note_on_c, 0, 56, 80
2, 37515, Note_on_c, 0, 71, 0
2, 37566, Note_on_c, 0, 68, 80
2, 37571, Note_on_c, 0, 52, 0
2, 37571, Note_on_c, 0, 56, 0
2, 37571, Note_on_c, 0, 62, 0
2, 37571, Note_on_c, 0, 66, 0
2, 37620, Note_on_c, 0, 33, 80
2, 37620, Note_on_c, 0, 69, 80
2, 37623, Note_on_c, 0, 45, 80
2, 37631, Note_on_c, 0, 68, 0
2, 37653, Control_c, 0, 64, 127
2, 37670, Note_on_c, 0, 33, 0
2, 37682, Note_on_c, 0, 68, 80
2, 37685, Note_on_c, 0, 69, 0
2, 37685, Note_on_c, 0, 45, 0
2, 37712, Control_c, 0, 64, 0
2, 37734, Note_on_c, 0, 57, 80
2, 37734, Note_on_c, 0, 61, 80
2, 37737, Note_on_c, 0, 52, 80
2, 37737, Note_on_c, 0, 69, 80
2, 37742, Note_on_c, 0, 68, 0
2, 37788, Note_on_c, 0, 66, 80
2, 37793, Note_on_c, 0, 57, 0
2, 37793, Note_on_c, 0, 69, 0
2, 37793, Note_on_c, 0, 61, 0
2, 37796, Note_on_c, 0, 52, 0
2, 37845, Note_on_c, 0, 40, 80
2, 37857, Note_on_c, 0, 28, 80
2, 37889, Note_on_c, 0, 28, 0
2, 37889, Note_on_c, 0, 40, 0
2, 37930, Note_on_c, 0, 66, 0
2, 37949, Note_on_c, 0, 52, 80
2, 37949, Note_on_c, 0, 57, 80
2, 37949, Note_on_c, 0, 61, 80
2, 37949, Note_on_c, 0, 73, 80
2, 38008, Note_on_c, 0, 73, 0
2, 38008, Note_on_c, 0, 61, 0
2, 38008, Note_on_c, 0, 57, 0
2, 38011, Note_on_c, 0, 52, 0
2, 38057, Control_c, 0, 64, 127
2, 38057, Note_on_c, 0, 45, 80
2, 38057, Note_on_c, 0, 57, 80
2, 38057, Note_on_c, 0, 71, 80
2, 38112, Note_on_c, 0, 71, 0
2, 38112, Note_on_c, 0, 57, 0
2, 38112, Note_on_c, 0, 45, 0
2, 38154, Control_c, 0, 64, 0
2, 38163, Note_on_c, 0, 52, 80
2, 38163, Note_on_c, 0, 57, 80
2, 38163, Note_on_c, 0, 61, 80
2, 38163, Note_on_c, 0, 69, 80
2, 38219, Note_on_c, 0, 69, 0
2, 38219, Note_on_c, 0, 52, 0
2, 38219, Note_on_c, 0, 57, 0
2, 38219, Note_on_c, 0, 61, 0
2, 38268, Note_on_c, 0, 37, 80
2, 38268, Note_on_c, 0, 49, 80
2, 38268, Note_on_c, 0, 61, 80
2, 38268, Note_on_c, 0, 66, 80
2, 38324, Note_on_c, 0, 61, 0
2, 38327, Note_on_c, 0, 66, 0
2, 38376, Note_on_c, 0, 36, 80
2, 38376, Note_on_c, 0, 48, 80
2, 38376, Note_on_c, 0, 60, 80
2, 38376, Note_on_c, 0, 67, 80
2, 38378, Note_on_c, 0, 37, 0
2, 38381, Note_on_c, 0, 49, 0
2, 38432, Note_on_c, 0, 60, 0
2, 38435, Note_on_c, 0, 67, 0
2, 38481, Note_on_c, 0, 35, 80
2, 38481, Note_on_c, 0, 47, 80
2, 38481, Note_on_c, 0, 59, 80
2, 38481, Note_on_c, 0, 68, 80
2, 38486, Note_on_c, 0, 36, 0
2, 38489, Note_on_c, 0, 48, 0
2, 38494, Control_c, 0, 64, 127
2, 38532, Note_on_c, 0, 76, 80
2, 38537, Note_on_c, 0, 59, 0
2, 38537, Note_on_c, 0, 68, 0
2, 38549, Control_c, 0, 64, 0
2, 38586, Note_on_c, 0, 52, 80
2, 38589, Note_on_c, 0, 56, 80
2, 38589, Note_on_c, 0, 62, 80
2, 38589, Note_on_c, 0, 74, 80
2, 38592, Note_on_c, 0, 47, 0
2, 38592, Note_on_c, 0, 76, 0
2, 38592, Note_on_c, 0, 35, 0
2, 38640, Note_on_c, 0, 71, 80
2, 38645, Note_on_c, 0, 56, 0
2, 38645, Note_on_c, 0, 74, 0
2, 38645, Note_on_c, 0, 52, 0
2, 38645, Note_on_c, 0, 62, 0
2, 38694, Note_on_c, 0, 68, 80
2, 38697, Note_on_c, 0, 28, 80
2, 38697, Note_on_c, 0, 40, 80
2, 38702, Note_on_c, 0, 71, 0
2, 38743, Note_on_c, 0, 40, 0
2, 38743, Note_on_c, 0, 28, 0
2, 38802, Note_on_c, 0, 52, 80
2, 38802, Note_on_c, 0, 56, 80
2, 38802, Note_on_c, 0, 74, 80
2, 38805, Note_on_c, 0, 62, 80
2, 38809, Note_on_c, 0, 68, 0
2, 38863, Note_on_c, 0, 52, 0
2, 38863, Note_on_c, 0, 62, 0
2, 38863, Note_on_c, 0, 56, 0
2, 38912, Note_on_c, 0, 35, 80
2, 38912, Note_on_c, 0, 47, 80
2, 38912, Note_on_c, 0, 73, 80
2, 38917, Note_on_c, 0, 74, 0
2, 38939, Control_c, 0, 64, 127
2, 38968, Note_on_c, 0, 35, 0
2, 38968, Note_on_c, 0, 47, 0
2, 38968, Note_on_c, 0, 73, 0
2, 39019, Note_on_c, 0, 52, 80
2, 39019, Note_on_c, 0, 56, 80
2, 39019, Note_on_c, 0, 62, 80
2, 39019, Note_on_c, 0, 71, 80
2, 39036, Control_c, 0, 64, 0
2, 39074, Note_on_c, 0, 71, 0
2, 39074, Note_on_c, 0, 52, 0
2, 39074, Note_on_c, 0, 56, 0
2, 39074, Note_on_c, 0, 62, 0
2, 39125, Note_on_c, 0, 40, 80
2, 39125, Note_on_c, 0, 66, 80
2, 39138, Note_on_c, 0, 28, 80
2, 39179, Note_on_c, 0, 40, 0
2, 39182, Note_on_c, 0, 28, 0
2, 39182, Note_on_c, 0, 66, 0
2, 39231, Note_on_c, 0, 52, 80
2, 39231, Note_on_c, 0, 56, 80
2, 39231, Note_on_c, 0, 62, 80
2, 39231, Note_on_c, 0, 68, 80
2, 39285, Note_on_c, 0, 68, 0
2, 39285, Note_on_c, 0, 62, 0
2, 39288, Note_on_c, 0, 56, 0
2, 39288, Note_on_c, 0, 52, 0
2, 39332, Control_c, 0, 64, 127
2, 39332, Note_on_c, 0, 33, 80
2, 39332, Note_on_c, 0, 45, 80
2, 39335, Note_on_c, 0, 69, 80
2, 39388, Note_on_c, 0, 76, 80
2, 39393, Note_on_c, 0, 69, 0
2, 39393, Note_on_c, 0, 33, 0
2, 39393, Note_on_c, 0, 45, 0
2, 39434, Control_c, 0, 64, 0
2, 39444, Note_on_c, 0, 52, 80
2, 39444, Note_on_c, 0, 57, 80
2, 39444, Note_on_c, 0, 61, 80
2, 39444, Note_on_c, 0, 73, 80
2, 39449, Note_on_c, 0, 76, 0
2, 39498, Note_on_c, 0, 69, 80
2, 39501, Note_on_c, 0, 52, 0
2, 39501, Note_on_c, 0, 73, 0
2, 39504, Note_on_c, 0, 61, 0
2, 39504, Note_on_c, 0, 57, 0
2, 39550, Note_on_c, 0, 40, 80
2, 39550, Note_on_c, 0, 66, 80
2, 39554, Note_on_c, 0, 69, 0
2, 39564, Note_on_c, 0, 28, 80
2, 39610, Note_on_c, 0, 28, 0
2, 39610, Note_on_c, 0, 40, 0
2, 39656, Note_on_c, 0, 57, 80
2, 39656, Note_on_c, 0, 61, 80
2, 39659, Note_on_c, 0, 52, 80
2, 39713, Note_on_c, 0, 61, 0
2, 39716, Note_on_c, 0, 66, 0
2, 39716, Note_on_c, 0, 57, 0
2, 39716, Note_on_c, 0, 52, 0
2, 39760, Note_on_c, 0, 88, 80
2, 39763, Note_on_c, 0, 33, 80
2, 39763, Note_on_c, 0, 45, 80
2, 39763, Note_on_c, 0, 76, 80
2, 39777, Control_c, 0, 64, 127
2, 39816, Note_on_c, 0, 75, 80
2, 39816, Note_on_c, 0, 87, 80
2, 39818, Note_on_c, 0, 76, 0
2, 39818, Note_on_c, 0, 45, 0
2, 39818, Note_on_c, 0, 88, 0
2, 39823, Note_on_c, 0, 33, 0
2, 39836, Control_c, 0, 64, 0
2, 39869, Note_on_c, 0, 52, 80
2, 39869, Note_on_c, 0, 57, 80
2, 39869, Note_on_c, 0, 76, 80
2, 39869, Note_on_c, 0, 88, 80
2, 39872, Note_on_c, 0, 61, 80
2, 39875, Note_on_c, 0, 75, 0
2, 39875, Note_on_c, 0, 87, 0
2, 39921, Note_on_c, 0, 78, 80
2, 39921, Note_on_c, 0, 90, 80
2, 39926, Note_on_c, 0, 52, 0
2, 39926, Note_on_c, 0, 88, 0
2, 39926, Note_on_c, 0, 57, 0
2, 39926, Note_on_c, 0, 76, 0
2, 39926, Note_on_c, 0, 61, 0
2, 39972, Note_on_c, 0, 28, 80
2, 39972, Note_on_c, 0, 40, 80
2, 40004, Note_on_c, 0, 90, 0
2, 40004, Note_on_c, 0, 78, 0
2, 40026, Note_on_c, 0, 88, 80
2, 40029, Note_on_c, 0, 76, 80
2, 40032, Note_on_c, 0, 28, 0
2, 40032, Note_on_c, 0, 40, 0
2, 40078, Note_on_c, 0, 52, 80
2, 40078, Note_on_c, 0, 57, 80
2, 40078, Note_on_c, 0, 61, 80
2, 40078, Note_on_c, 0, 71, 80
2, 40078, Note_on_c, 0, 83, 80
2, 40082, Note_on_c, 0, 88, 0
2, 40082, Note_on_c, 0, 76, 0
2, 40124, Note_on_c, 0, 57, 0
2, 40124, Note_on_c, 0, 61, 0
2, 40127, Note_on_c, 0, 52, 0
2, 40131, Note_on_c, 0, 73, 80
2, 40131, Note_on_c, 0, 85, 80
2, 40136, Note_on_c, 0, 83, 0
2, 40136, Note_on_c, 0, 71, 0
2, 40170, Control_c, 0, 64, 127
2, 40182, Note_on_c, 0, 35, 80
2, 40182, Note_on_c, 0, 47, 80
2, 40182, Note_on_c, 0, 74, 80
2, 40182, Note_on_c, 0, 86, 80
2, 40187, Note_on_c, 0, 73, 0
2, 40187, Note_on_c, 0, 85, 0
2, 40236, Note_on_c, 0, 85, 80
2, 40239, Note_on_c, 0, 73, 80
2, 40242, Note_on_c, 0, 74, 0
2, 40242, Note_on_c, 0, 35, 0
2, 40242, Note_on_c, 0, 47, 0
2, 40242, Note_on_c, 0, 86, 0
2, 40269, Control_c, 0, 64, 0
2, 40283, Note_on_c, 0, 73, 0
2, 40291, Note_on_c, 0, 56, 80
2, 40291, Note_on_c, 0, 74, 80
2, 40294, Note_on_c, 0, 52, 80
2, 40294, Note_on_c, 0, 62, 80
2, 40294, Note_on_c, 0, 86, 80
2, 40298, Note_on_c, 0, 85, 0
2, 40311, Note_on_c, 0, 74, 0
2, 40344, Note_on_c, 0, 68, 80
2, 40344, Note_on_c, 0, 74, 80
2, 40344, Note_on_c, 0, 76, 80
2, 40344, Note_on_c, 0, 80, 80
2, 40349, Note_on_c, 0, 52, 0
2, 40349, Note_on_c, 0, 62, 0
2, 40349, Note_on_c, 0, 56, 0
2, 40349, Note_on_c, 0, 86, 0
2, 40398, Note_on_c, 0, 28, 80
2, 40398, Note_on_c, 0, 40, 80
2, 40442, Note_on_c, 0, 28, 0
2, 40457, Note_on_c, 0, 40, 0
2, 40508, Note_on_c, 0, 52, 80
2, 40508, Note_on_c, 0, 56, 80
2, 40508, Note_on_c, 0, 62, 80
2, 40552, Note_on_c, 0, 62, 0
2, 40552, Note_on_c, 0, 52, 0
2, 40552, Note_on_c, 0, 74, 0
2, 40552, Note_on_c, 0, 68, 0
2, 40552, Note_on_c, 0, 80, 0
2, 40552, Note_on_c, 0, 56, 0
2, 40552, Note_on_c, 0, 76, 0
2, 40620, Note_on_c, 0, 35, 80
2, 40620, Note_on_c, 0, 47, 80
2, 40620, Note_on_c, 0, 68, 80
2, 40620, Note_on_c, 0, 80, 80
2, 40661, Control_c, 0, 64, 127
2, 40674, Note_on_c, 0, 67, 80
2, 40674, Note_on_c, 0, 79, 80
2, 40679, Note_on_c, 0, 80, 0
2, 40679, Note_on_c, 0, 68, 0
2, 40679, Note_on_c, 0, 35, 0
2, 40679, Note_on_c, 0, 47, 0
2, 40723, Control_c, 0, 64, 0
2, 40728, Note_on_c, 0, 68, 80
2, 40728, Note_on_c, 0, 80, 80
2, 40730, Note_on_c, 0, 52, 80
2, 40730, Note_on_c, 0, 59, 80
2, 40730, Note_on_c, 0, 62, 80
2, 40733, Note_on_c, 0, 79, 0
2, 40733, Note_on_c, 0, 67, 0
2, 40782, Note_on_c, 0, 73, 80
2, 40782, Note_on_c, 0, 85, 80
2, 40787, Note_on_c, 0, 68, 0
2, 40787, Note_on_c, 0, 59, 0
2, 40787, Note_on_c, 0, 80, 0
2, 40787, Note_on_c, 0, 52, 0
2, 40787, Note_on_c, 0, 62, 0
2, 40836, Note_on_c, 0, 40, 80
2, 40848, Note_on_c, 0, 28, 80
2, 40853, Note_on_c, 0, 85, 0
2, 40853, Note_on_c, 0, 73, 0
2, 40890, Note_on_c, 0, 71, 80
2, 40890, Note_on_c, 0, 83, 80
2, 40895, Note_on_c, 0, 28, 0
2, 40897, Note_on_c, 0, 40, 0
2, 40942, Note_on_c, 0, 56, 80
2, 40944, Note_on_c, 0, 52, 80
2, 40944, Note_on_c, 0, 62, 80
2, 40944, Note_on_c, 0, 66, 80
2, 40944, Note_on_c, 0, 78, 80
2, 40947, Note_on_c, 0, 71, 0
2, 40947, Note_on_c, 0, 83, 0
2, 40996, Note_on_c, 0, 68, 80
2, 40996, Note_on_c, 0, 80, 80
2, 40999, Note_on_c, 0, 78, 0
2, 41002, Note_on_c, 0, 66, 0
2, 41002, Note_on_c, 0, 62, 0
2, 41002, Note_on_c, 0, 56, 0
2, 41005, Note_on_c, 0, 52, 0
2, 41051, Note_on_c, 0, 33, 80
2, 41051, Note_on_c, 0, 45, 80
2, 41051, Note_on_c, 0, 69, 80
2, 41051, Note_on_c, 0, 81, 80
2, 41056, Note_on_c, 0, 80, 0
2, 41056, Note_on_c, 0, 68, 0
2, 41064, Control_c, 0, 64, 127
2, 41102, Note_on_c, 0, 80, 80
2, 41107, Note_on_c, 0, 69, 0
2, 41107, Note_on_c, 0, 33, 0
2, 41107, Note_on_c, 0, 81, 0
2, 41114, Note_on_c, 0, 68, 80
2, 41119, Note_on_c, 0, 45, 0
2, 41119, Control_c, 0, 64, 0
2, 41151, Note_on_c, 0, 52, 80
2, 41151, Note_on_c, 0, 61, 80
2, 41154, Note_on_c, 0, 57, 80
2, 41154, Note_on_c, 0, 69, 80
2, 41154, Note_on_c, 0, 81, 80
2, 41159, Note_on_c, 0, 68, 0
2, 41159, Note_on_c, 0, 80, 0
2, 41171, Note_on_c, 0, 69, 0
2, 41198, Note_on_c, 0, 57, 0
2, 41198, Note_on_c, 0, 52, 0
2, 41201, Note_on_c, 0, 61, 0
2, 41206, Note_on_c, 0, 66, 80
2, 41206, Note_on_c, 0, 69, 80
2, 41206, Note_on_c, 0, 73, 80
2, 41206, Note_on_c, 0, 78, 80
2, 41210, Note_on_c, 0, 81, 0
2, 41259, Note_on_c, 0, 28, 80
2, 41259, Note_on_c, 0, 40, 80
2, 41329, Note_on_c, 0, 40, 0
2, 41329, Note_on_c, 0, 28, 0
2, 41366, Note_on_c, 0, 52, 80
2, 41366, Note_on_c, 0, 57, 80
2, 41366, Note_on_c, 0, 61, 80
2, 41422, Note_on_c, 0, 61, 0
2, 41422, Note_on_c, 0, 66, 0
2, 41422, Note_on_c, 0, 69, 0
2, 41422, Note_on_c, 0, 73, 0
2, 41422, Note_on_c, 0, 57, 0
2, 41424, Note_on_c, 0, 78, 0
2, 41424, Note_on_c, 0, 52, 0
2, 41458, Control_c, 0, 64, 127
2, 41471, Note_on_c, 0, 74, 80
2, 41471, Note_on_c, 0, 86, 80
2, 41473, Note_on_c, 0, 38, 80
2, 41473, Note_on_c, 0, 50, 80
2, 41473, Note_on_c, 0, 66, 80
2, 41515, Note_on_c, 0, 66, 0
2, 41515, Note_on_c, 0, 74, 0
2, 41518, Note_on_c, 0, 86, 0
2, 41518, Note_on_c, 0, 38, 0
2, 41530, Note_on_c, 0, 50, 0
2, 41557, Control_c, 0, 64, 0
2, 41576, Note_on_c, 0, 62, 80
2, 41579, Note_on_c, 0, 54, 80
2, 41579, Note_on_c, 0, 57, 80
2, 41579, Note_on_c, 0, 66, 80
2, 41579, Note_on_c, 0, 69, 80
2, 41579, Note_on_c, 0, 81, 80
2, 41623, Note_on_c, 0, 81, 0
2, 41623, Note_on_c, 0, 54, 0
2, 41623, Note_on_c, 0, 62, 0
2, 41623, Note_on_c, 0, 57, 0
2, 41623, Note_on_c, 0, 69, 0
2, 41626, Note_on_c, 0, 66, 0
2, 41689, Note_on_c, 0, 71, 80
2, 41692, Note_on_c, 0, 54, 80
2, 41692, Note_on_c, 0, 69, 80
2, 41692, Note_on_c, 0, 83, 80
2, 41707, Note_on_c, 0, 42, 80
2, 41751, Note_on_c, 0, 83, 0
2, 41751, Note_on_c, 0, 69, 0
2, 41751, Note_on_c, 0, 71, 0
2, 41751, Note_on_c, 0, 54, 0
2, 41765, Note_on_c, 0, 42, 0
2, 41799, Note_on_c, 0, 69, 80
2, 41799, Note_on_c, 0, 72, 80
2, 41799, Note_on_c, 0, 84, 80
2, 41802, Note_on_c, 0, 53, 80
2, 41814, Note_on_c, 0, 41, 80
2, 41858, Note_on_c, 0, 41, 0
2, 41858, Note_on_c, 0, 84, 0
2, 41858, Note_on_c, 0, 69, 0
2, 41858, Note_on_c, 0, 72, 0
2, 41858, Note_on_c, 0, 53, 0
2, 41903, Note_on_c, 0, 40, 80
2, 41903, Note_on_c, 0, 52, 80
2, 41903, Note_on_c, 0, 69, 80
2, 41903, Note_on_c, 0, 73, 80
2, 41903, Note_on_c, 0, 85, 80
2, 41941, Control_c, 0, 64, 127
2, 41946, Note_on_c, 0, 85, 0
2, 41946, Note_on_c, 0, 40, 0
2, 41946, Note_on_c, 0, 73, 0
2, 41949, Note_on_c, 0, 52, 0
2, 41956, Note_on_c, 0, 72, 80
2, 41956, Note_on_c, 0, 84, 80
2, 42000, Control_c, 0, 64, 0
2, 42010, Note_on_c, 0, 52, 80
2, 42010, Note_on_c, 0, 73, 80
2, 42013, Note_on_c, 0, 57, 80
2, 42013, Note_on_c, 0, 61, 80
2, 42013, Note_on_c, 0, 85, 80
2, 42016, Note_on_c, 0, 84, 0
2, 42016, Note_on_c, 0, 72, 0
2, 42065, Note_on_c, 0, 78, 80
2, 42065, Note_on_c, 0, 90, 80
2, 42068, Note_on_c, 0, 61, 0
2, 42068, Note_on_c, 0, 85, 0
2, 42068, Note_on_c, 0, 52, 0
2, 42068, Note_on_c, 0, 57, 0
2, 42071, Note_on_c, 0, 73, 0
2, 42117, Note_on_c, 0, 28, 80
2, 42117, Note_on_c, 0, 40, 80
2, 42145, Note_on_c, 0, 78, 0
2, 42148, Note_on_c, 0, 90, 0
2, 42168, Note_on_c, 0, 76, 80
2, 42170, Note_on_c, 0, 28, 0
2, 42170, Note_on_c, 0, 40, 0
2, 42170, Note_on_c, 0, 88, 80
2, 42216, Note_on_c, 0, 57, 80
2, 42216, Note_on_c, 0, 61, 80
2, 42219, Note_on_c, 0, 52, 80
2, 42219, Note_on_c, 0, 73, 80
2, 42219, Note_on_c, 0, 85, 80
2, 42222, Note_on_c, 0, 69, 0
2, 42225, Note_on_c, 0, 76, 0
2, 42225, Note_on_c, 0, 88, 0
2, 42271, Note_on_c, 0, 69, 80
2, 42271, Note_on_c, 0, 81, 80
2, 42274, Note_on_c, 0, 73, 0
2, 42277, Note_on_c, 0, 57, 0
2, 42277, Note_on_c, 0, 85, 0
2, 42277, Note_on_c, 0, 61, 0
2, 42277, Note_on_c, 0, 52, 0
2, 42323, Note_on_c, 0, 35, 80
2, 42323, Note_on_c, 0, 47, 80
2, 42323, Note_on_c, 0, 66, 80
2, 42323, Note_on_c, 0, 78, 80
2, 42328, Note_on_c, 0, 81, 0
2, 42328, Note_on_c, 0, 69, 0
2, 42336, Control_c, 0, 64, 127
2, 42377, Note_on_c, 0, 67, 80
2, 42380, Note_on_c, 0, 79, 80
2, 42383, Note_on_c, 0, 66, 0
2, 42383, Note_on_c, 0, 35, 0
2, 42383, Note_on_c, 0, 47, 0
2, 42383, Note_on_c, 0, 78, 0
2, 42429, Note_on_c, 0, 52, 80
2, 42429, Note_on_c, 0, 68, 80
2, 42429, Note_on_c, 0, 80, 80
2, 42432, Note_on_c, 0, 56, 80
2, 42432, Note_on_c, 0, 62, 80
2, 42434, Control_c, 0, 64, 0
2, 42437, Note_on_c, 0, 79, 0
2, 42437, Note_on_c, 0, 67, 0
2, 42450, Note_on_c, 0, 68, 0
2, 42486, Note_on_c, 0, 68, 80
2, 42486, Note_on_c, 0, 76, 80
2, 42486, Note_on_c, 0, 88, 80
2, 42491, Note_on_c, 0, 80, 0
2, 42491, Note_on_c, 0, 56, 0
2, 42491, Note_on_c, 0, 62, 0
2, 42494, Note_on_c, 0, 52, 0
2, 42540, Note_on_c, 0, 40, 80
2, 42552, Note_on_c, 0, 28, 80
2, 42557, Note_on_c, 0, 88, 0
2, 42557, Note_on_c, 0, 68, 0
2, 42557, Note_on_c, 0, 76, 0
2, 42589, Note_on_c, 0, 74, 80
2, 42592, Note_on_c, 0, 86, 80
2, 42595, Note_on_c, 0, 40, 0
2, 42595, Note_on_c, 0, 28, 0
2, 42646, Note_on_c, 0, 52, 80
2, 42646, Note_on_c, 0, 62, 80
2, 42646, Note_on_c, 0, 66, 80
2, 42648, Note_on_c, 0, 56, 80
2, 42648, Note_on_c, 0, 78, 80
2, 42651, Note_on_c, 0, 74, 0
2, 42651, Note_on_c, 0, 86, 0
2, 42693, Note_on_c, 0, 78, 0
2, 42696, Note_on_c, 0, 66, 0
2, 42696, Note_on_c, 0, 62, 0
2, 42696, Note_on_c, 0, 52, 0
2, 42696, Note_on_c, 0, 56, 0
2, 42700, Note_on_c, 0, 68, 80
2, 42703, Note_on_c, 0, 80, 80
2, 42740, Control_c, 0, 64, 127
2, 42754, Note_on_c, 0, 33, 80
2, 42754, Note_on_c, 0, 45, 80
2, 42754, Note_on_c, 0, 69, 80
2, 42754, Note_on_c, 0, 73, 80
2, 42754, Note_on_c, 0, 76, 80
2, 42754, Note_on_c, 0, 81, 80
2, 42759, Note_on_c, 0, 68, 0
2, 42762, Note_on_c, 0, 80, 0
2, 42813, Note_on_c, 0, 45, 0
2, 42813, Note_on_c, 0, 33, 0
2, 42837, Control_c, 0, 64, 0
2, 42859, Note_on_c, 0, 52, 80
2, 42859, Note_on_c, 0, 57, 80
2, 42859, Note_on_c, 0, 61, 80
2, 42903, Note_on_c, 0, 61, 0
2, 42903, Note_on_c, 0, 57, 0
2, 42906, Note_on_c, 0, 52, 0
2, 42966, Note_on_c, 0, 52, 80
2, 42966, Note_on_c, 0, 57, 80
2, 42969, Note_on_c, 0, 61, 80
2, 43023, Note_on_c, 0, 76, 0
2, 43023, Note_on_c, 0, 69, 0
2, 43037, Note_on_c, 0, 73, 0
2, 43064, Note_on_c, 0, 81, 0
2, 43072, Note_on_c, 0, 76, 80
2, 43072, Note_on_c, 0, 88, 80
2, 43075, Note_on_c, 0, 52, 0
2, 43075, Note_on_c, 0, 57, 0
2, 43078, Note_on_c, 0, 61, 0
2, 43131, Note_on_c, 0, 88, 0
2, 43131, Note_on_c, 0, 76, 0
2, 43177, Control_c, 0, 64, 127
2, 43177, Note_on_c, 0, 33, 80
2, 43177, Note_on_c, 0, 45, 80
2, 43180, Note_on_c, 0, 88, 80
2, 43180, Note_on_c, 0, 100, 80
2, 43234, Note_on_c, 0, 87, 80
2, 43234, Note_on_c, 0, 99, 80
2, 43237, Note_on_c, 0, 88, 0
2, 43237, Note_on_c, 0, 33, 0
2, 43237, Note_on_c, 0, 45, 0
2, 43240, Note_on_c, 0, 100, 0
2, 43278, Control_c, 0, 64, 0
2, 43286, Note_on_c, 0, 52, 80
2, 43286, Note_on_c, 0, 57, 80
2, 43286, Note_on_c, 0, 61, 80
2, 43286, Note_on_c, 0, 88, 80
2, 43289, Note_on_c, 0, 100, 80
2, 43292, Note_on_c, 0, 87, 0
2, 43295, Note_on_c, 0, 99, 0
2, 43339, Note_on_c, 0, 90, 80
2, 43344, Note_on_c, 0, 52, 0
2, 43344, Note_on_c, 0, 88, 0
2, 43344, Note_on_c, 0, 61, 0
2, 43344, Note_on_c, 0, 57, 0
2, 43344, Note_on_c, 0, 100, 0
2, 43353, Note_on_c, 0, 102, 80
2, 43392, Note_on_c, 0, 40, 80
2, 43404, Note_on_c, 0, 28, 80
2, 43423, Note_on_c, 0, 102, 0
2, 43423, Note_on_c, 0, 90, 0
2, 43447, Note_on_c, 0, 100, 80
2, 43450, Note_on_c, 0, 40, 0
2, 43450, Note_on_c, 0, 28, 0
2, 43450, Note_on_c, 0, 88, 80
2, 43501, Note_on_c, 0, 52, 80
2, 43501, Note_on_c, 0, 57, 80
2, 43501, Note_on_c, 0, 83, 80
2, 43504, Note_on_c, 0, 61, 80
2, 43504, Note_on_c, 0, 95, 80
2, 43509, Note_on_c, 0, 88, 0
2, 43509, Note_on_c, 0, 100, 0
2, 43555, Note_on_c, 0, 85, 80
2, 43555, Note_on_c, 0, 97, 80
2, 43560, Note_on_c, 0, 52, 0
2, 43560, Note_on_c, 0, 57, 0
2, 43560, Note_on_c, 0, 83, 0
2, 43560, Note_on_c, 0, 95, 0
2, 43562, Note_on_c, 0, 61, 0
2, 43608, Note_on_c, 0, 35, 80
2, 43611, Note_on_c, 0, 47, 80
2, 43611, Note_on_c, 0, 86, 80
2, 43611, Note_on_c, 0, 98, 80
2, 43616, Note_on_c, 0, 97, 0
2, 43616, Note_on_c, 0, 85, 0
2, 43624, Control_c, 0, 64, 127
2, 43665, Note_on_c, 0, 85, 80
2, 43665, Note_on_c, 0, 97, 80
2, 43668, Note_on_c, 0, 86, 0
2, 43668, Note_on_c, 0, 98, 0
2, 43682, Note_on_c, 0, 35, 0
2, 43685, Note_on_c, 0, 47, 0
2, 43719, Note_on_c, 0, 52, 80
2, 43719, Note_on_c, 0, 56, 80
2, 43719, Note_on_c, 0, 62, 80
2, 43722, Note_on_c, 0, 86, 80
2, 43722, Note_on_c, 0, 98, 80
2, 43727, Note_on_c, 0, 97, 0
2, 43727, Note_on_c, 0, 85, 0
2, 43727, Control_c, 0, 64, 0
2, 43739, Note_on_c, 0, 86, 0
2, 43773, Note_on_c, 0, 80, 80
2, 43776, Note_on_c, 0, 86, 80
2, 43776, Note_on_c, 0, 88, 80
2, 43776, Note_on_c, 0, 92, 80
2, 43778, Note_on_c, 0, 62, 0
2, 43778, Note_on_c, 0, 56, 0
2, 43781, Note_on_c, 0, 52, 0
2, 43794, Note_on_c, 0, 98, 0
2, 43832, Note_on_c, 0, 28, 80
2, 43832, Note_on_c, 0, 40, 80
2, 43886, Note_on_c, 0, 28, 0
2, 43889, Note_on_c, 0, 40, 0
2, 43935, Note_on_c, 0, 52, 80
2, 43938, Note_on_c, 0, 56, 80
2, 43938, Note_on_c, 0, 62, 80
2, 43967, Note_on_c, 0, 86, 0
2, 43967, Note_on_c, 0, 80, 0
2, 43967, Note_on_c, 0, 92, 0
2, 43967, Note_on_c, 0, 88, 0
2, 43981, Note_on_c, 0, 62, 0
2, 43981, Note_on_c, 0, 52, 0
2, 43981, Note_on_c, 0, 56, 0
2, 44041, Note_on_c, 0, 35, 80
2, 44041, Note_on_c, 0, 47, 80
2, 44041, Note_on_c, 0, 92, 80
2, 44044, Note_on_c, 0, 80, 80
2, 44068, Control_c, 0, 64, 127
2, 44095, Note_on_c, 0, 79, 80
2, 44095, Note_on_c, 0, 91, 80
2, 44098, Note_on_c, 0, 47, 0
2, 44098, Note_on_c, 0, 35, 0
2, 44101, Note_on_c, 0, 80, 0
2, 44101, Note_on_c, 0, 92, 0
2, 44123, Control_c, 0, 64, 0
2, 44147, Note_on_c, 0, 52, 80
2, 44150, Note_on_c, 0, 59, 80
2, 44150, Note_on_c, 0, 62, 80
2, 44150, Note_on_c, 0, 80, 80
2, 44150, Note_on_c, 0, 92, 80
2, 44153, Note_on_c, 0, 79, 0
2, 44156, Note_on_c, 0, 91, 0
2, 44207, Note_on_c, 0, 85, 80
2, 44207, Note_on_c, 0, 97, 80
2, 44209, Note_on_c, 0, 52, 0
2, 44209, Note_on_c, 0, 80, 0
2, 44209, Note_on_c, 0, 59, 0
2, 44209, Note_on_c, 0, 62, 0
2, 44209, Note_on_c, 0, 92, 0
2, 44258, Note_on_c, 0, 40, 80
2, 44271, Note_on_c, 0, 28, 80
2, 44279, Note_on_c, 0, 97, 0
2, 44279, Note_on_c, 0, 85, 0
2, 44315, Note_on_c, 0, 40, 0
2, 44315, Note_on_c, 0, 28, 0
2, 44315, Note_on_c, 0, 83, 80
2, 44315, Note_on_c, 0, 95, 80
2, 44361, Note_on_c, 0, 52, 80
2, 44361, Note_on_c, 0, 56, 80
2, 44364, Note_on_c, 0, 62, 80
2, 44364, Note_on_c, 0, 78, 80
2, 44364, Note_on_c, 0, 90, 80
2, 44369, Note_on_c, 0, 95, 0
2, 44369, Note_on_c, 0, 83, 0
2, 44418, Note_on_c, 0, 80, 80
2, 44418, Note_on_c, 0, 92, 80
2, 44421, Note_on_c, 0, 52, 0
2, 44424, Note_on_c, 0, 90, 0
2, 44424, Note_on_c, 0, 56, 0
2, 44424, Note_on_c, 0, 62, 0
2, 44424, Note_on_c, 0, 78, 0
2, 44468, Control_c, 0, 64, 127
2, 44471, Note_on_c, 0, 33, 80
2, 44471, Note_on_c, 0, 45, 80
2, 44473, Note_on_c, 0, 81, 80
2, 44473, Note_on_c, 0, 93, 80
2, 44476, Note_on_c, 0, 92, 0
2, 44479, Note_on_c, 0, 80, 0
2, 44525, Note_on_c, 0, 80, 80
2, 44525, Note_on_c, 0, 92, 80
2, 44528, Note_on_c, 0, 81, 0
2, 44528, Note_on_c, 0, 45, 0
2, 44528, Note_on_c, 0, 33, 0
2, 44531, Note_on_c, 0, 93, 0
2, 44569, Control_c, 0, 64, 0
2, 44577, Note_on_c, 0, 52, 80
2, 44577, Note_on_c, 0, 57, 80
2, 44577, Note_on_c, 0, 61, 80
2, 44580, Note_on_c, 0, 81, 80
2, 44580, Note_on_c, 0, 93, 80
2, 44585, Note_on_c, 0, 80, 0
2, 44585, Note_on_c, 0, 92, 0
2, 44597, Note_on_c, 0, 81, 0
2, 44631, Note_on_c, 0, 85, 80
2, 44634, Note_on_c, 0, 78, 80
2, 44634, Note_on_c, 0, 81, 80
2, 44634, Note_on_c, 0, 90, 80
2, 44637, Note_on_c, 0, 52, 0
2, 44640, Note_on_c, 0, 93, 0
2, 44640, Note_on_c, 0, 57, 0
2, 44640, Note_on_c, 0, 61, 0
2, 44686, Note_on_c, 0, 28, 80
2, 44688, Note_on_c, 0, 40, 80
2, 44742, Note_on_c, 0, 28, 0
2, 44745, Note_on_c, 0, 40, 0
2, 44760, Note_on_c, 0, 81, 0
2, 44760, Note_on_c, 0, 90, 0
2, 44760, Note_on_c, 0, 78, 0
2, 44760, Note_on_c, 0, 85, 0
2, 44793, Note_on_c, 0, 52, 80
2, 44793, Note_on_c, 0, 57, 80
2, 44793, Note_on_c, 0, 61, 80
2, 44793, Note_on_c, 0, 85, 80
2, 44796, Note_on_c, 0, 97, 80
2, 44837, Note_on_c, 0, 61, 0
2, 44837, Note_on_c, 0, 52, 0
2, 44837, Note_on_c, 0, 57, 0
2, 44881, Note_on_c, 0, 97, 0
2, 44894, Note_on_c, 0, 85, 0
2, 44902, Note_on_c, 0, 45, 80
2, 44904, Note_on_c, 0, 57, 80
2, 44904, Note_on_c, 0, 83, 80
2, 44904, Note_on_c, 0, 95, 80
2, 44914, Control_c, 0, 64, 127
2, 44960, Note_on_c, 0, 57, 0
2, 44960, Note_on_c, 0, 45, 0
2, 44963, Note_on_c, 0, 83, 0
2, 44963, Note_on_c, 0, 95, 0
2, 44973, Control_c, 0, 64, 0
2, 45009, Note_on_c, 0, 52, 80
2, 45012, Note_on_c, 0, 57, 80
2, 45012, Note_on_c, 0, 61, 80
2, 45015, Note_on_c, 0, 81, 80
2, 45015, Note_on_c, 0, 93, 80
2, 45069, Note_on_c, 0, 61, 0
2, 45069, Note_on_c, 0, 52, 0
2, 45069, Note_on_c, 0, 57, 0
2, 45072, Note_on_c, 0, 81, 0
2, 45072, Note_on_c, 0, 93, 0
2, 45118, Note_on_c, 0, 49, 80
2, 45118, Note_on_c, 0, 61, 80
2, 45120, Note_on_c, 0, 78, 80
2, 45120, Note_on_c, 0, 90, 80
2, 45174, Note_on_c, 0, 78, 0
2, 45177, Note_on_c, 0, 90, 0
2, 45218, Note_on_c, 0, 48, 80
2, 45221, Note_on_c, 0, 60, 80
2, 45224, Note_on_c, 0, 79, 80
2, 45224, Note_on_c, 0, 91, 80
2, 45227, Note_on_c, 0, 61, 0
2, 45227, Note_on_c, 0, 49, 0
2, 45283, Note_on_c, 0, 79, 0
2, 45283, Note_on_c, 0, 91, 0
2, 45314, Control_c, 0, 64, 127
2, 45332, Note_on_c, 0, 47, 80
2, 45332, Note_on_c, 0, 59, 80
2, 45332, Note_on_c, 0, 80, 80
2, 45332, Note_on_c, 0, 92, 80
2, 45335, Note_on_c, 0, 60, 0
2, 45337, Note_on_c, 0, 48, 0
2, 45386, Note_on_c, 0, 88, 80
2, 45386, Note_on_c, 0, 100, 80
2, 45391, Note_on_c, 0, 80, 0
2, 45391, Note_on_c, 0, 92, 0
2, 45437, Note_on_c, 0, 52, 80
2, 45437, Note_on_c, 0, 56, 80
2, 45437, Note_on_c, 0, 62, 80
2, 45440, Note_on_c, 0, 86, 80
2, 45440, Note_on_c, 0, 98, 80
2, 45443, Note_on_c, 0, 47, 0
2, 45443, Note_on_c, 0, 59, 0
2, 45446, Note_on_c, 0, 88, 0
2, 45446, Note_on_c, 0, 100, 0
2, 45456, Control_c, 0, 64, 0
2, 45489, Note_on_c, 0, 83, 80
2, 45489, Note_on_c, 0, 95, 80
2, 45494, Note_on_c, 0, 56, 0
2, 45494, Note_on_c, 0, 86, 0
2, 45494, Note_on_c, 0, 98, 0
2, 45494, Note_on_c, 0, 52, 0
2, 45494, Note_on_c, 0, 62, 0
2, 45540, Note_on_c, 0, 28, 80
2, 45540, Note_on_c, 0, 40, 80
2, 45540, Note_on_c, 0, 92, 80
2, 45543, Note_on_c, 0, 80, 80
2, 45548, Note_on_c, 0, 95, 0
2, 45548, Note_on_c, 0, 83, 0
2, 45586, Note_on_c, 0, 28, 0
2, 45599, Note_on_c, 0, 40, 0
2, 45601, Note_on_c, 0, 92, 0
2, 45601, Note_on_c, 0, 80, 0
2, 45648, Note_on_c, 0, 52, 80
2, 45650, Note_on_c, 0, 56, 80
2, 45650, Note_on_c, 0, 62, 80
2, 45650, Note_on_c, 0, 86, 80
2, 45650, Note_on_c, 0, 98, 80
2, 45709, Note_on_c, 0, 86, 0
2, 45709, Note_on_c, 0, 62, 0
2, 45709, Note_on_c, 0, 52, 0
2, 45709, Note_on_c, 0, 56, 0
2, 45723, Note_on_c, 0, 98, 0
2, 45755, Control_c, 0, 64, 127
2, 45755, Note_on_c, 0, 35, 80
2, 45755, Note_on_c, 0, 47, 80
2, 45755, Note_on_c, 0, 85, 80
2, 45760, Note_on_c, 0, 97, 80
2, 45811, Note_on_c, 0, 47, 0
2, 45811, Note_on_c, 0, 35, 0
2, 45814, Note_on_c, 0, 85, 0
2, 45814, Note_on_c, 0, 97, 0
2, 45850, Control_c, 0, 64, 0
2, 45863, Note_on_c, 0, 52, 80
2, 45863, Note_on_c, 0, 56, 80
2, 45863, Note_on_c, 0, 62, 80
2, 45865, Note_on_c, 0, 83, 80
2, 45865, Note_on_c, 0, 95, 80
2, 45934, Note_on_c, 0, 95, 0
2, 45934, Note_on_c, 0, 52, 0
2, 45934, Note_on_c, 0, 62, 0
2, 45934, Note_on_c, 0, 56, 0
2, 45936, Note_on_c, 0, 83, 0
2, 45965, Note_on_c, 0, 40, 80
2, 45968, Note_on_c, 0, 78, 80
2, 45968, Note_on_c, 0, 90, 80
2, 45978, Note_on_c, 0, 28, 80
2, 46024, Note_on_c, 0, 28, 0
2, 46024, Note_on_c, 0, 40, 0
2, 46027, Note_on_c, 0, 78, 0
2, 46030, Note_on_c, 0, 90, 0
2, 46076, Note_on_c, 0, 52, 80
2, 46076, Note_on_c, 0, 56, 80
2, 46079, Note_on_c, 0, 62, 80
2, 46079, Note_on_c, 0, 80, 80
2, 46079, Note_on_c, 0, 92, 80
2, 46134, Note_on_c, 0, 56, 0
2, 46137, Note_on_c, 0, 80, 0
2, 46137, Note_on_c, 0, 52, 0
2, 46137, Note_on_c, 0, 62, 0
2, 46137, Note_on_c, 0, 92, 0
2, 46178, Note_on_c, 0, 33, 80
2, 46183, Note_on_c, 0, 45, 80
2, 46183, Note_on_c, 0, 81, 80
2, 46186, Note_on_c, 0, 93, 80
2, 46218, Control_c, 0, 64, 127
2, 46237, Note_on_c, 0, 33, 0
2, 46237, Note_on_c, 0, 88, 80
2, 46237, Note_on_c, 0, 100, 80
2, 46240, Note_on_c, 0, 45, 0
2, 46243, Note_on_c, 0, 93, 0
2, 46243, Note_on_c, 0, 81, 0
2, 46274, Control_c, 0, 64, 0
2, 46287, Note_on_c, 0, 52, 80
2, 46290, Note_on_c, 0, 57, 80
2, 46290, Note_on_c, 0, 61, 80
2, 46290, Note_on_c, 0, 85, 80
2, 46290, Note_on_c, 0, 97, 80
2, 46295, Note_on_c, 0, 88, 0
2, 46295, Note_on_c, 0, 100, 0
2, 46333, Note_on_c, 0, 57, 0
2, 46333, Note_on_c, 0, 61, 0
2, 46333, Note_on_c, 0, 52, 0
2, 46341, Note_on_c, 0, 81, 80
2, 46344, Note_on_c, 0, 93, 80
2, 46346, Note_on_c, 0, 85, 0
2, 46349, Note_on_c, 0, 97, 0
2, 46362, Note_on_c, 0, 81, 0
2, 46393, Note_on_c, 0, 28, 80
2, 46393, Note_on_c, 0, 40, 80
2, 46398, Note_on_c, 0, 78, 80
2, 46398, Note_on_c, 0, 81, 80
2, 46398, Note_on_c, 0, 85, 80
2, 46398, Note_on_c, 0, 90, 80
2, 46401, Note_on_c, 0, 93, 0
2, 46450, Note_on_c, 0, 28, 0
2, 46453, Note_on_c, 0, 40, 0
2, 46502, Note_on_c, 0, 52, 80
2, 46502, Note_on_c, 0, 57, 80
2, 46505, Note_on_c, 0, 61, 80
2, 46549, Note_on_c, 0, 52, 0
2, 46552, Note_on_c, 0, 57, 0
2, 46552, Note_on_c, 0, 85, 0
2, 46552, Note_on_c, 0, 90, 0
2, 46552, Note_on_c, 0, 78, 0
2, 46552, Note_on_c, 0, 61, 0
2, 46552, Note_on_c, 0, 81, 0
2, 46612, Note_on_c, 0, 33, 80
2, 46615, Note_on_c, 0, 45, 80
2, 46628, Control_c, 0, 64, 127
2, 46632, Note_on_c, 0, 88, 80
2, 46674, Note_on_c, 0, 33, 0
2, 46677, Note_on_c, 0, 45, 0
2, 46677, Note_on_c, 0, 87, 80
2, 46680, Note_on_c, 0, 88, 0
2, 46687, Control_c, 0, 64, 0
2, 46726, Note_on_c, 0, 52, 80
2, 46726, Note_on_c, 0, 57, 80
2, 46726, Note_on_c, 0, 61, 80
2, 46728, Note_on_c, 0, 88, 80
2, 46733, Note_on_c, 0, 87, 0
2, 46782, Note_on_c, 0, 90, 80
2, 46785, Note_on_c, 0, 52, 0
2, 46785, Note_on_c, 0, 57, 0
2, 46788, Note_on_c, 0, 88, 0
2, 46800, Note_on_c, 0, 61, 0
2, 46839, Note_on_c, 0, 40, 80
2, 46848, Note_on_c, 0, 28, 80
2, 46872, Note_on_c, 0, 90, 0
2, 46892, Note_on_c, 0, 28, 0
2, 46892, Note_on_c, 0, 40, 0
2, 46892, Note_on_c, 0, 88, 80
2, 46941, Note_on_c, 0, 52, 80
2, 46944, Note_on_c, 0, 61, 80
2, 46946, Note_on_c, 0, 57, 80
2, 46946, Note_on_c, 0, 83, 80
2, 46951, Note_on_c, 0, 88, 0
2, 46997, Note_on_c, 0, 85, 80
2, 47002, Note_on_c, 0, 57, 0
2, 47002, Note_on_c, 0, 61, 0
2, 47005, Note_on_c, 0, 52, 0
2, 47005, Note_on_c, 0, 83, 0
2, 47049, Note_on_c, 0, 35, 80
2, 47052, Note_on_c, 0, 47, 80
2, 47057, Note_on_c, 0, 86, 80
2, 47060, Note_on_c, 0, 85, 0
2, 47074, Control_c, 0, 64, 127
2, 47106, Note_on_c, 0, 85, 80
2, 47111, Note_on_c, 0, 86, 0
2, 47118, Note_on_c, 0, 35, 0
2, 47121, Note_on_c, 0, 47, 0
2, 47158, Note_on_c, 0, 52, 80
2, 47158, Note_on_c, 0, 56, 80
2, 47158, Note_on_c, 0, 62, 80
2, 47160, Note_on_c, 0, 86, 80
2, 47165, Note_on_c, 0, 85, 0
2, 47173, Control_c, 0, 64, 0
2, 47205, Note_on_c, 0, 86, 0
2, 47214, Note_on_c, 0, 52, 0
2, 47214, Note_on_c, 0, 80, 80
2, 47217, Note_on_c, 0, 56, 0
2, 47217, Note_on_c, 0, 62, 0
2, 47261, Note_on_c, 0, 40, 80
2, 47274, Note_on_c, 0, 28, 80
2, 47320, Note_on_c, 0, 28, 0
2, 47323, Note_on_c, 0, 40, 0
2, 47369, Note_on_c, 0, 52, 80
2, 47372, Note_on_c, 0, 56, 80
2, 47372, Note_on_c, 0, 62, 80
2, 47427, Note_on_c, 0, 56, 0
2, 47427, Note_on_c, 0, 52, 0
2, 47430, Note_on_c, 0, 80, 0
2, 47443, Note_on_c, 0, 62, 0
2, 47472, Control_c, 0, 64, 127
2, 47474, Note_on_c, 0, 35, 80
2, 47474, Note_on_c, 0, 47, 80
2, 47477, Note_on_c, 0, 80, 80
2, 47523, Note_on_c, 0, 80, 0
2, 47533, Note_on_c, 0, 47, 0
2, 47533, Note_on_c, 0, 35, 0
2, 47533, Note_on_c, 0, 79, 80
2, 47569, Control_c, 0, 64, 0
2, 47584, Note_on_c, 0, 52, 80
2, 47587, Note_on_c, 0, 59, 80
2, 47587, Note_on_c, 0, 62, 80
2, 47587, Note_on_c, 0, 80, 80
2, 47590, Note_on_c, 0, 79, 0
2, 47643, Note_on_c, 0, 52, 0
2, 47643, Note_on_c, 0, 85, 80
2, 47646, Note_on_c, 0, 62, 0
2, 47646, Note_on_c, 0, 59, 0
2, 47661, Note_on_c, 0, 80, 0
2, 47692, Note_on_c, 0, 40, 80
2, 47705, Note_on_c, 0, 28, 80
2, 47729, Note_on_c, 0, 85, 0
2, 47746, Note_on_c, 0, 28, 0
2, 47749, Note_on_c, 0, 40, 0
2, 47749, Note_on_c, 0, 83, 80
2, 47798, Note_on_c, 0, 52, 80
2, 47798, Note_on_c, 0, 56, 80
2, 47798, Note_on_c, 0, 62, 80
2, 47801, Note_on_c, 0, 78, 80
2, 47806, Note_on_c, 0, 83, 0
2, 47855, Note_on_c, 0, 62, 0
2, 47855, Note_on_c, 0, 52, 0
2, 47855, Note_on_c, 0, 56, 0
2, 47855, Note_on_c, 0, 80, 80
2, 47857, Note_on_c, 0, 78, 0
2, 47872, Control_c, 0, 64, 127
2, 47901, Note_on_c, 0, 33, 80
2, 47904, Note_on_c, 0, 45, 80
2, 47906, Note_on_c, 0, 81, 80
2, 47911, Note_on_c, 0, 80, 0
2, 47955, Note_on_c, 0, 33, 0
2, 47955, Note_on_c, 0, 45, 0
2, 47958, Note_on_c, 0, 80, 80
2, 47961, Note_on_c, 0, 81, 0
2, 48005, Note_on_c, 0, 52, 80
2, 48005, Note_on_c, 0, 57, 80
2, 48008, Control_c, 0, 64, 0
2, 48008, Note_on_c, 0, 61, 80
2, 48013, Note_on_c, 0, 81, 80
2, 48016, Note_on_c, 0, 80, 0
2, 48062, Note_on_c, 0, 52, 0
2, 48062, Note_on_c, 0, 78, 80
2, 48065, Note_on_c, 0, 61, 0
2, 48065, Note_on_c, 0, 57, 0
2, 48070, Note_on_c, 0, 81, 0
2, 48106, Note_on_c, 0, 40, 80
2, 48120, Note_on_c, 0, 28, 80
2, 48149, Note_on_c, 0, 28, 0
2, 48152, Note_on_c, 0, 40, 0
2, 48216, Note_on_c, 0, 52, 80
2, 48216, Note_on_c, 0, 57, 80
2, 48216, Note_on_c, 0, 61, 80
2, 48249, Note_on_c, 0, 78, 0
2, 48271, Note_on_c, 0, 52, 0
2, 48271, Note_on_c, 0, 57, 0
2, 48271, Note_on_c, 0, 61, 0
2, 48320, Note_on_c, 0, 38, 80
2, 48323, Note_on_c, 0, 50, 80
2, 48326, Note_on_c, 0, 78, 80
2, 48326, Note_on_c, 0, 86, 80
2, 48343, Control_c, 0, 64, 127
2, 48377, Note_on_c, 0, 38, 0
2, 48382, Note_on_c, 0, 50, 0
2, 48384, Note_on_c, 0, 78, 0
2, 48384, Note_on_c, 0, 86, 0
2, 48429, Note_on_c, 0, 62, 80
2, 48432, Note_on_c, 0, 54, 80
2, 48432, Note_on_c, 0, 57, 80
2, 48432, Note_on_c, 0, 78, 80
2, 48434, Note_on_c, 0, 81, 80
2, 48444, Control_c, 0, 64, 0
2, 48488, Note_on_c, 0, 54, 0
2, 48491, Note_on_c, 0, 78, 0
2, 48491, Note_on_c, 0, 62, 0
2, 48491, Note_on_c, 0, 57, 0
2, 48491, Note_on_c, 0, 81, 0
2, 48537, Note_on_c, 0, 42, 80
2, 48537, Note_on_c, 0, 54, 80
2, 48540, Note_on_c, 0, 81, 80
2, 48540, Note_on_c, 0, 83, 80
2, 48599, Note_on_c, 0, 83, 0
2, 48599, Note_on_c, 0, 81, 0
2, 48645, Note_on_c, 0, 41, 80
2, 48648, Note_on_c, 0, 42, 0
2, 48648, Note_on_c, 0, 53, 80
2, 48650, Note_on_c, 0, 54, 0
2, 48650, Note_on_c, 0, 81, 80
2, 48650, Note_on_c, 0, 84, 80
2, 48704, Note_on_c, 0, 84, 0
2, 48704, Note_on_c, 0, 81, 0
2, 48748, Control_c, 0, 64, 127
2, 48748, Note_on_c, 0, 40, 80
2, 48751, Note_on_c, 0, 52, 80
2, 48754, Note_on_c, 0, 41, 0
2, 48754, Note_on_c, 0, 85, 80
2, 48757, Note_on_c, 0, 53, 0
2, 48757, Note_on_c, 0, 81, 80
2, 48808, Note_on_c, 0, 52, 0
2, 48808, Note_on_c, 0, 84, 80
2, 48822, Note_on_c, 0, 85, 0
2, 48840, Control_c, 0, 64, 0
2, 48852, Note_on_c, 0, 52, 80
2, 48855, Note_on_c, 0, 57, 80
2, 48855, Note_on_c, 0, 61, 80
2, 48858, Note_on_c, 0, 85, 80
2, 48863, Note_on_c, 0, 84, 0
2, 48896, Note_on_c, 0, 40, 0
2, 48911, Note_on_c, 0, 57, 0
2, 48911, Note_on_c, 0, 52, 0
2, 48911, Note_on_c, 0, 61, 0
2, 48911, Note_on_c, 0, 90, 80
2, 48928, Note_on_c, 0, 85, 0
2, 48960, Note_on_c, 0, 40, 80
2, 48967, Note_on_c, 0, 81, 0
2, 48970, Note_on_c, 0, 28, 80
2, 48994, Note_on_c, 0, 90, 0
2, 49016, Note_on_c, 0, 88, 80
2, 49026, Note_on_c, 0, 28, 0
2, 49026, Note_on_c, 0, 40, 0
2, 49062, Note_on_c, 0, 52, 80
2, 49062, Note_on_c, 0, 57, 80
2, 49062, Note_on_c, 0, 61, 80
2, 49067, Note_on_c, 0, 85, 80
2, 49072, Note_on_c, 0, 88, 0
2, 49118, Note_on_c, 0, 81, 80
2, 49121, Note_on_c, 0, 61, 0
2, 49121, Note_on_c, 0, 57, 0
2, 49124, Note_on_c, 0, 52, 0
2, 49124, Note_on_c, 0, 85, 0
2, 49168, Note_on_c, 0, 35, 80
2, 49171, Note_on_c, 0, 47, 80
2, 49171, Note_on_c, 0, 78, 80
2, 49178, Note_on_c, 0, 81, 0
2, 49178, Control_c, 0, 64, 127
2, 49217, Note_on_c, 0, 78, 0
2, 49224, Note_on_c, 0, 35, 0
2, 49227, Note_on_c, 0, 47, 0
2, 49227, Note_on_c, 0, 79, 80
2, 49276, Note_on_c, 0, 52, 80
2, 49276, Note_on_c, 0, 56, 80
2, 49276, Note_on_c, 0, 62, 80
2, 49281, Note_on_c, 0, 80, 80
2, 49284, Note_on_c, 0, 79, 0
2, 49298, Note_on_c, 0, 80, 0
2, 49337, Note_on_c, 0, 52, 0
2, 49337, Note_on_c, 0, 56, 0
2, 49337, Note_on_c, 0, 62, 0
2, 49337, Note_on_c, 0, 80, 80
2, 49337, Note_on_c, 0, 88, 80
2, 49354, Control_c, 0, 64, 0
2, 49383, Note_on_c, 0, 40, 80
2, 49395, Note_on_c, 0, 28, 80
2, 49417, Note_on_c, 0, 80, 0
2, 49420, Note_on_c, 0, 88, 0
2, 49442, Note_on_c, 0, 40, 0
2, 49442, Note_on_c, 0, 28, 0
2, 49445, Note_on_c, 0, 86, 80
2, 49496, Note_on_c, 0, 52, 80
2, 49496, Note_on_c, 0, 56, 80
2, 49496, Note_on_c, 0, 62, 80
2, 49501, Note_on_c, 0, 78, 80
2, 49504, Note_on_c, 0, 86, 0
2, 49555, Note_on_c, 0, 80, 80
2, 49558, Note_on_c, 0, 62, 0
2, 49558, Note_on_c, 0, 52, 0
2, 49558, Note_on_c, 0, 56, 0
2, 49560, Note_on_c, 0, 78, 0
2, 49589, Control_c, 0, 64, 127
2, 49607, Note_on_c, 0, 33, 80
2, 49609, Note_on_c, 0, 45, 80
2, 49612, Note_on_c, 0, 81, 80
2, 49617, Note_on_c, 0, 80, 0
2, 49663, Note_on_c, 0, 33, 0
2, 49666, Note_on_c, 0, 45, 0
2, 49688, Control_c, 0, 64, 0
2, 49720, Note_on_c, 0, 52, 80
2, 49720, Note_on_c, 0, 57, 80
2, 49723, Note_on_c, 0, 61, 80
2, 49778, Note_on_c, 0, 61, 0
2, 49778, Note_on_c, 0, 57, 0
2, 49778, Note_on_c, 0, 52, 0
2, 49823, Note_on_c, 0, 52, 80
2, 49827, Note_on_c, 0, 57, 80
2, 49827, Note_on_c, 0, 61, 80
2, 49876, Note_on_c, 0, 81, 0
2, 49937, Note_on_c, 0, 52, 0
2, 49937, Note_on_c, 0, 76, 80
2, 49937, Note_on_c, 0, 88, 80
2, 49940, Note_on_c, 0, 57, 0
2, 49940, Note_on_c, 0, 61, 0
2, 49993, Note_on_c, 0, 76, 0
2, 49993, Note_on_c, 0, 88, 0
2, 50035, Control_c, 0, 64, 127
2, 50038, Note_on_c, 0, 45, 80
2, 50040, Note_on_c, 0, 57, 80
2, 50043, Note_on_c, 0, 69, 80
2, 50043, Note_on_c, 0, 73, 80
2, 50046, Note_on_c, 0, 81, 80
2, 50064, Note_on_c, 0, 69, 0
2, 50097, Note_on_c, 0, 45, 0
2, 50100, Note_on_c, 0, 57, 0
2, 50100, Note_on_c, 0, 69, 80
2, 50103, Note_on_c, 0, 81, 0
2, 50103, Note_on_c, 0, 73, 0
2, 50149, Note_on_c, 0, 52, 80
2, 50149, Note_on_c, 0, 57, 80
2, 50149, Note_on_c, 0, 61, 80
2, 50154, Note_on_c, 0, 71, 80
2, 50157, Note_on_c, 0, 69, 0
2, 50176, Control_c, 0, 64, 0
2, 50205, Note_on_c, 0, 60, 80
2, 50208, Note_on_c, 0, 52, 0
2, 50208, Note_on_c, 0, 72, 80
2, 50210, Note_on_c, 0, 71, 0
2, 50210, Note_on_c, 0, 61, 0
2, 50210, Note_on_c, 0, 57, 0
2, 50256, Note_on_c, 0, 49, 80
2, 50259, Note_on_c, 0, 61, 80
2, 50259, Note_on_c, 0, 73, 80
2, 50262, Note_on_c, 0, 60, 0
2, 50265, Note_on_c, 0, 72, 0
2, 50311, Note_on_c, 0, 68, 80
2, 50314, Note_on_c, 0, 80, 80
2, 50317, Note_on_c, 0, 61, 0
2, 50317, Note_on_c, 0, 49, 0
2, 50320, Note_on_c, 0, 73, 0
2, 50358, Note_on_c, 0, 48, 80
2, 50361, Note_on_c, 0, 60, 80
2, 50383, Note_on_c, 0, 68, 0
2, 50410, Note_on_c, 0, 80, 0
2, 50418, Note_on_c, 0, 66, 80
2, 50421, Note_on_c, 0, 48, 0
2, 50421, Note_on_c, 0, 78, 80
2, 50424, Note_on_c, 0, 60, 0
2, 50468, Note_on_c, 0, 47, 80
2, 50471, Note_on_c, 0, 59, 80
2, 50471, Note_on_c, 0, 64, 80
2, 50475, Note_on_c, 0, 76, 80
2, 50478, Note_on_c, 0, 78, 0
2, 50478, Note_on_c, 0, 66, 0
2, 50478, Control_c, 0, 64, 127
2, 50529, Note_on_c, 0, 47, 0
2, 50532, Note_on_c, 0, 59, 0
2, 50532, Note_on_c, 0, 64, 0
2, 50535, Note_on_c, 0, 76, 0
2, 50579, Control_c, 0, 64, 0
2, 50582, Note_on_c, 0, 52, 80
2, 50582, Note_on_c, 0, 56, 80
2, 50582, Note_on_c, 0, 62, 80
2, 50585, Note_on_c, 0, 68, 80
2, 50599, Note_on_c, 0, 62, 0
2, 50633, Note_on_c, 0, 62, 80
2, 50638, Note_on_c, 0, 52, 0
2, 50638, Note_on_c, 0, 56, 0
2, 50638, Note_on_c, 0, 71, 80
2, 50638, Note_on_c, 0, 74, 80
2, 50640, Note_on_c, 0, 68, 0
2, 50687, Note_on_c, 0, 40, 80
2, 50728, Note_on_c, 0, 40, 0
2, 50731, Note_on_c, 0, 62, 0
2, 50760, Note_on_c, 0, 71, 0
2, 50760, Note_on_c, 0, 74, 0
2, 50791, Note_on_c, 0, 52, 80
2, 50794, Note_on_c, 0, 56, 80
2, 50794, Note_on_c, 0, 62, 80
2, 50848, Note_on_c, 0, 69, 80
2, 50848, Note_on_c, 0, 73, 80
2, 50848, Note_on_c, 0, 81, 80
2, 50851, Note_on_c, 0, 52, 0
2, 50854, Note_on_c, 0, 56, 0
2, 50854, Note_on_c, 0, 62, 0
2, 50900, Note_on_c, 0, 45, 80
2, 50903, Note_on_c, 0, 57, 80
2, 50907, Note_on_c, 0, 69, 0
2, 50922, Control_c, 0, 64, 127
2, 50949, Note_on_c, 0, 81, 0
2, 50949, Note_on_c, 0, 73, 0
2, 50956, Note_on_c, 0, 45, 0
2, 50956, Note_on_c, 0, 69, 80
2, 50959, Note_on_c, 0, 57, 0
2, 50981, Control_c, 0, 64, 0
2, 51008, Note_on_c, 0, 52, 80
2, 51011, Note_on_c, 0, 57, 80
2, 51011, Note_on_c, 0, 61, 80
2, 51014, Note_on_c, 0, 71, 80
2, 51019, Note_on_c, 0, 69, 0
2, 51063, Note_on_c, 0, 60, 80
2, 51066, Note_on_c, 0, 72, 80
2, 51069, Note_on_c, 0, 52, 0
2, 51069, Note_on_c, 0, 71, 0
2, 51069, Note_on_c, 0, 57, 0
2, 51072, Note_on_c, 0, 61, 0
2, 51116, Note_on_c, 0, 49, 80
2, 51119, Note_on_c, 0, 61, 80
2, 51119, Note_on_c, 0, 73, 80
2, 51123, Note_on_c, 0, 60, 0
2, 51123, Note_on_c, 0, 72, 0
2, 51162, Note_on_c, 0, 73, 0
2, 51171, Note_on_c, 0, 68, 80
2, 51176, Note_on_c, 0, 80, 80
2, 51225, Note_on_c, 0, 48, 80
2, 51225, Note_on_c, 0, 60, 80
2, 51230, Note_on_c, 0, 49, 0
2, 51230, Note_on_c, 0, 61, 0
2, 51259, Note_on_c, 0, 80, 0
2, 51259, Note_on_c, 0, 68, 0
2, 51283, Note_on_c, 0, 66, 80
2, 51283, Note_on_c, 0, 78, 80
2, 51332, Note_on_c, 0, 47, 80
2, 51336, Note_on_c, 0, 59, 80
2, 51336, Note_on_c, 0, 64, 80
2, 51336, Note_on_c, 0, 76, 80
2, 51339, Note_on_c, 0, 60, 0
2, 51339, Note_on_c, 0, 48, 0
2, 51342, Note_on_c, 0, 78, 0
2, 51342, Note_on_c, 0, 66, 0
2, 51396, Note_on_c, 0, 64, 0
2, 51396, Note_on_c, 0, 76, 0
2, 51425, Control_c, 0, 64, 127
2, 51439, Control_c, 0, 64, 0
2, 51439, Note_on_c, 0, 40, 80
2, 51439, Note_on_c, 0, 56, 80
2, 51439, Note_on_c, 0, 68, 80
2, 51442, Note_on_c, 0, 52, 80
2, 51445, Note_on_c, 0, 47, 0
2, 51448, Note_on_c, 0, 59, 0
2, 51497, Note_on_c, 0, 62, 80
2, 51500, Note_on_c, 0, 40, 0
2, 51500, Note_on_c, 0, 52, 0
2, 51500, Note_on_c, 0, 71, 80
2, 51500, Note_on_c, 0, 74, 80
2, 51503, Note_on_c, 0, 56, 0
2, 51503, Note_on_c, 0, 68, 0
2, 51547, Note_on_c, 0, 44, 80
2, 51550, Note_on_c, 0, 56, 80
2, 51632, Note_on_c, 0, 71, 0
2, 51632, Note_on_c, 0, 62, 0
2, 51635, Note_on_c, 0, 74, 0
2, 51652, Note_on_c, 0, 43, 80
2, 51655, Note_on_c, 0, 44, 0
2, 51655, Note_on_c, 0, 55, 80
2, 51658, Note_on_c, 0, 56, 0
2, 51709, Note_on_c, 0, 66, 80
2, 51709, Note_on_c, 0, 70, 80
2, 51712, Note_on_c, 0, 73, 80
2, 51712, Note_on_c, 0, 78, 80
2, 51748, Note_on_c, 0, 43, 0
2, 51751, Note_on_c, 0, 55, 0
2, 51751, Note_on_c, 0, 66, 0
2, 51756, Note_on_c, 0, 42, 80
2, 51759, Note_on_c, 0, 54, 80
2, 51767, Control_c, 0, 64, 127
2, 51811, Note_on_c, 0, 66, 80
2, 51816, Note_on_c, 0, 54, 0
2, 51818, Note_on_c, 0, 70, 0
2, 51818, Note_on_c, 0, 78, 0
2, 51821, Note_on_c, 0, 73, 0
2, 51863, Control_c, 0, 64, 0
2, 51865, Note_on_c, 0, 54, 80
2, 51865, Note_on_c, 0, 58, 80
2, 51865, Note_on_c, 0, 61, 80
2, 51865, Note_on_c, 0, 64, 80
2, 51868, Note_on_c, 0, 70, 80
2, 51871, Note_on_c, 0, 66, 0
2, 51917, Note_on_c, 0, 73, 80
2, 51920, Note_on_c, 0, 54, 0
2, 51923, Note_on_c, 0, 58, 0
2, 51923, Note_on_c, 0, 64, 0
2, 51923, Note_on_c, 0, 70, 0
2, 51945, Note_on_c, 0, 42, 0
2, 51967, Note_on_c, 0, 34, 80
2, 51970, Note_on_c, 0, 46, 80
2, 51973, Note_on_c, 0, 66, 80
2, 51976, Note_on_c, 0, 61, 0
2, 51976, Note_on_c, 0, 78, 80
2, 51979, Note_on_c, 0, 73, 0
2, 52028, Note_on_c, 0, 46, 0
2, 52028, Note_on_c, 0, 34, 0
2, 52028, Note_on_c, 0, 64, 80
2, 52031, Note_on_c, 0, 76, 80
2, 52033, Note_on_c, 0, 66, 0
2, 52036, Note_on_c, 0, 78, 0
2, 52080, Note_on_c, 0, 54, 80
2, 52083, Note_on_c, 0, 61, 80
2, 52117, Note_on_c, 0, 76, 0
2, 52131, Note_on_c, 0, 64, 0
2, 52139, Note_on_c, 0, 62, 80
2, 52139, Note_on_c, 0, 66, 80
2, 52142, Note_on_c, 0, 54, 0
2, 52142, Note_on_c, 0, 61, 0
2, 52142, Note_on_c, 0, 71, 80
2, 52142, Note_on_c, 0, 74, 80
2, 52174, Control_c, 0, 64, 127
2, 52188, Note_on_c, 0, 35, 80
2, 52193, Note_on_c, 0, 47, 80
2, 52237, Note_on_c, 0, 62, 0
2, 52237, Note_on_c, 0, 66, 0
2, 52240, Note_on_c, 0, 74, 0
2, 52240, Note_on_c, 0, 71, 0
2, 52243, Note_on_c, 0, 36, 80
2, 52246, Note_on_c, 0, 48, 80
2, 52248, Note_on_c, 0, 35, 0
2, 52251, Note_on_c, 0, 47, 0
2, 52273, Control_c, 0, 64, 0
2, 52297, Note_on_c, 0, 37, 80
2, 52300, Note_on_c, 0, 49, 80
2, 52303, Note_on_c, 0, 36, 0
2, 52303, Note_on_c, 0, 61, 80
2, 52303, Note_on_c, 0, 64, 80
2, 52303, Note_on_c, 0, 66, 80
2, 52303, Note_on_c, 0, 70, 80
2, 52306, Note_on_c, 0, 73, 80
2, 52309, Note_on_c, 0, 48, 0
2, 52355, Note_on_c, 0, 40, 80
2, 52358, Note_on_c, 0, 37, 0
2, 52358, Note_on_c, 0, 52, 80
2, 52361, Note_on_c, 0, 61, 0
2, 52361, Note_on_c, 0, 49, 0
2, 52364, Note_on_c, 0, 70, 0
2, 52364, Note_on_c, 0, 66, 0
2, 52364, Note_on_c, 0, 64, 0
2, 52364, Note_on_c, 0, 73, 0
2, 52415, Note_on_c, 0, 38, 80
2, 52415, Note_on_c, 0, 50, 80
2, 52417, Note_on_c, 0, 59, 80
2, 52420, Note_on_c, 0, 40, 0
2, 52420, Note_on_c, 0, 62, 80
2, 52420, Note_on_c, 0, 66, 80
2, 52420, Note_on_c, 0, 71, 80
2, 52423, Note_on_c, 0, 52, 0
2, 52474, Note_on_c, 0, 38, 0
2, 52477, Note_on_c, 0, 50, 0
2, 52480, Note_on_c, 0, 59, 0
2, 52529, Note_on_c, 0, 50, 80
2, 52529, Note_on_c, 0, 54, 80
2, 52529, Note_on_c, 0, 59, 80
2, 52573, Note_on_c, 0, 59, 0
2, 52573, Note_on_c, 0, 50, 0
2, 52573, Note_on_c, 0, 66, 0
2, 52573, Note_on_c, 0, 54, 0
2, 52576, Note_on_c, 0, 62, 0
2, 52590, Note_on_c, 0, 71, 0
2, 52634, Note_on_c, 0, 35, 80
2, 52637, Note_on_c, 0, 47, 80
2, 52640, Note_on_c, 0, 63, 80
2, 52643, Note_on_c, 0, 69, 80
2, 52643, Note_on_c, 0, 73, 80
2, 52675, Control_c, 0, 64, 127
2, 52694, Note_on_c, 0, 47, 0
2, 52694, Note_on_c, 0, 35, 0
2, 52697, Note_on_c, 0, 69, 0
2, 52697, Note_on_c, 0, 63, 0
2, 52700, Note_on_c, 0, 73, 0
2, 52731, Control_c, 0, 64, 0
2, 52749, Note_on_c, 0, 54, 80
2, 52749, Note_on_c, 0, 57, 80
2, 52749, Note_on_c, 0, 59, 80
2, 52749, Note_on_c, 0, 63, 80
2, 52749, Note_on_c, 0, 69, 80
2, 52749, Note_on_c, 0, 71, 80
2, 52804, Note_on_c, 0, 57, 0
2, 52804, Note_on_c, 0, 54, 0
2, 52807, Note_on_c, 0, 69, 0
2, 52807, Note_on_c, 0, 63, 0
2, 52807, Note_on_c, 0, 71, 0
2, 52807, Note_on_c, 0, 59, 0
2, 52851, Note_on_c, 0, 39, 80
2, 52854, Note_on_c, 0, 51, 80
2, 52857, Note_on_c, 0, 61, 80
2, 52857, Note_on_c, 0, 69, 80
2, 52857, Note_on_c, 0, 73, 80
2, 52896, Note_on_c, 0, 39, 0
2, 52898, Note_on_c, 0, 51, 0
2, 52901, Note_on_c, 0, 69, 0
2, 52901, Note_on_c, 0, 61, 0
2, 52904, Note_on_c, 0, 73, 0
2, 52960, Note_on_c, 0, 54, 80
2, 52963, Note_on_c, 0, 57, 80
2, 52963, Note_on_c, 0, 59, 80
2, 52966, Note_on_c, 0, 69, 80
2, 52966, Note_on_c, 0, 71, 80
2, 53019, Note_on_c, 0, 57, 0
2, 53019, Note_on_c, 0, 54, 0
2, 53022, Note_on_c, 0, 69, 0
2, 53022, Note_on_c, 0, 59, 0
2, 53022, Note_on_c, 0, 71, 0
2, 53066, Note_on_c, 0, 40, 80
2, 53069, Note_on_c, 0, 52, 80
2, 53072, Note_on_c, 0, 66, 80
2, 53072, Note_on_c, 0, 68, 80
2, 53075, Note_on_c, 0, 74, 80
2, 53075, Note_on_c, 0, 78, 80
2, 53112, Note_on_c, 0, 40, 0
2, 53114, Note_on_c, 0, 52, 0
2, 53117, Note_on_c, 0, 68, 0
2, 53117, Note_on_c, 0, 66, 0
2, 53120, Note_on_c, 0, 78, 0
2, 53120, Note_on_c, 0, 74, 0
2, 53120, Control_c, 0, 64, 127
2, 53181, Note_on_c, 0, 52, 80
2, 53181, Note_on_c, 0, 59, 80
2, 53181, Note_on_c, 0, 62, 80
2, 53181, Note_on_c, 0, 64, 80
2, 53181, Note_on_c, 0, 68, 80
2, 53184, Note_on_c, 0, 74, 80
2, 53184, Note_on_c, 0, 76, 80
2, 53217, Control_c, 0, 64, 0
2, 53225, Note_on_c, 0, 68, 0
2, 53225, Note_on_c, 0, 52, 0
2, 53228, Note_on_c, 0, 74, 0
2, 53228, Note_on_c, 0, 76, 0
2, 53240, Note_on_c, 0, 59, 0
2, 53240, Note_on_c, 0, 64, 0
2, 53243, Note_on_c, 0, 62, 0
2, 53281, Note_on_c, 0, 28, 80
2, 53284, Note_on_c, 0, 40, 80
2, 53289, Note_on_c, 0, 74, 80
2, 53294, Note_on_c, 0, 80, 80
2, 53294, Note_on_c, 0, 85, 80
2, 53343, Note_on_c, 0, 40, 0
2, 53343, Note_on_c, 0, 28, 0
2, 53351, Note_on_c, 0, 80, 0
2, 53351, Note_on_c, 0, 74, 0
2, 53351, Note_on_c, 0, 85, 0
2, 53395, Note_on_c, 0, 52, 80
2, 53398, Note_on_c, 0, 56, 80
2, 53398, Note_on_c, 0, 62, 80
2, 53400, Note_on_c, 0, 71, 80
2, 53400, Note_on_c, 0, 74, 80
2, 53400, Note_on_c, 0, 80, 80
2, 53400, Note_on_c, 0, 83, 80
2, 53454, Note_on_c, 0, 62, 0
2, 53454, Note_on_c, 0, 56, 0
2, 53457, Note_on_c, 0, 80, 0
2, 53457, Note_on_c, 0, 52, 0
2, 53457, Note_on_c, 0, 74, 0
2, 53457, Note_on_c, 0, 83, 0
2, 53460, Note_on_c, 0, 71, 0
2, 53496, Note_on_c, 0, 33, 80
2, 53499, Note_on_c, 0, 45, 80
2, 53502, Note_on_c, 0, 69, 80
2, 53502, Note_on_c, 0, 73, 80
2, 53505, Note_on_c, 0, 81, 80
2, 53520, Note_on_c, 0, 69, 0
2, 53522, Control_c, 0, 64, 127
2, 53556, Note_on_c, 0, 33, 0
2, 53556, Note_on_c, 0, 57, 80
2, 53559, Note_on_c, 0, 45, 0
2, 53559, Note_on_c, 0, 69, 80
2, 53564, Note_on_c, 0, 73, 0
2, 53564, Note_on_c, 0, 81, 0
2, 53576, Note_on_c, 0, 57, 0
2, 53613, Note_on_c, 0, 52, 80
2, 53613, Note_on_c, 0, 57, 80
2, 53613, Note_on_c, 0, 59, 80
2, 53613, Note_on_c, 0, 61, 80
2, 53613, Note_on_c, 0, 71, 80
2, 53620, Note_on_c, 0, 69, 0
2, 53625, Control_c, 0, 64, 0
2, 53664, Note_on_c, 0, 60, 80
2, 53666, Note_on_c, 0, 72, 80
2, 53669, Note_on_c, 0, 61, 0
2, 53669, Note_on_c, 0, 52, 0
2, 53669, Note_on_c, 0, 59, 0
2, 53669, Note_on_c, 0, 57, 0
2, 53672, Note_on_c, 0, 71, 0
2, 53716, Note_on_c, 0, 49, 80
2, 53716, Note_on_c, 0, 61, 80
2, 53719, Note_on_c, 0, 73, 80
2, 53724, Note_on_c, 0, 72, 0
2, 53724, Note_on_c, 0, 60, 0
2, 53768, Note_on_c, 0, 68, 80
2, 53771, Note_on_c, 0, 80, 80
2, 53776, Note_on_c, 0, 73, 0
2, 53817, Note_on_c, 0, 48, 80
2, 53820, Note_on_c, 0, 60, 80
2, 53837, Note_on_c, 0, 49, 0
2, 53840, Note_on_c, 0, 61, 0
2, 53855, Note_on_c, 0, 68, 0
2, 53855, Note_on_c, 0, 80, 0
2, 53877, Note_on_c, 0, 66, 80
2, 53877, Note_on_c, 0, 78, 80
2, 53926, Note_on_c, 0, 47, 80
2, 53928, Note_on_c, 0, 59, 80
2, 53928, Note_on_c, 0, 64, 80
2, 53931, Note_on_c, 0, 76, 80
2, 53934, Note_on_c, 0, 78, 0
2, 53934, Note_on_c, 0, 66, 0
2, 53934, Note_on_c, 0, 48, 0
2, 53934, Note_on_c, 0, 60, 0
2, 53934, Control_c, 0, 64, 127
2, 53953, Control_c, 0, 64, 0
2, 53987, Note_on_c, 0, 64, 0
2, 53987, Note_on_c, 0, 76, 0
2, 54001, Control_c, 0, 64, 127
2, 54019, Control_c, 0, 64, 0
2, 54033, Note_on_c, 0, 52, 80
2, 54033, Note_on_c, 0, 56, 80
2, 54033, Note_on_c, 0, 62, 80
2, 54036, Note_on_c, 0, 59, 0
2, 54036, Note_on_c, 0, 68, 80
2, 54048, Note_on_c, 0, 47, 0
2, 54051, Note_on_c, 0, 62, 0
2, 54090, Note_on_c, 0, 62, 80
2, 54090, Note_on_c, 0, 71, 80
2, 54090, Note_on_c, 0, 74, 80
2, 54093, Note_on_c, 0, 52, 0
2, 54096, Note_on_c, 0, 68, 0
2, 54096, Note_on_c, 0, 56, 0
2, 54142, Note_on_c, 0, 40, 80
2, 54186, Note_on_c, 0, 40, 0
2, 54189, Note_on_c, 0, 62, 0
2, 54252, Note_on_c, 0, 52, 80
2, 54252, Note_on_c, 0, 56, 80
2, 54252, Note_on_c, 0, 62, 80
2, 54260, Note_on_c, 0, 71, 0
2, 54260, Note_on_c, 0, 74, 0
2, 54296, Note_on_c, 0, 56, 0
2, 54296, Note_on_c, 0, 52, 0
2, 54311, Note_on_c, 0, 69, 80
2, 54311, Note_on_c, 0, 73, 80
2, 54311, Note_on_c, 0, 81, 80
2, 54313, Note_on_c, 0, 62, 0
2, 54360, Note_on_c, 0, 45, 80
2, 54362, Note_on_c, 0, 57, 80
2, 54367, Note_on_c, 0, 69, 0
2, 54370, Control_c, 0, 64, 127
2, 54380, Note_on_c, 0, 57, 0
2, 54394, Note_on_c, 0, 73, 0
2, 54397, Note_on_c, 0, 81, 0
2, 54416, Note_on_c, 0, 57, 80
2, 54419, Note_on_c, 0, 45, 0
2, 54419, Note_on_c, 0, 69, 80
2, 54429, Control_c, 0, 64, 0
2, 54433, Note_on_c, 0, 57, 0
2, 54460, Note_on_c, 0, 69, 0
2, 54468, Note_on_c, 0, 52, 80
2, 54468, Note_on_c, 0, 71, 80
2, 54471, Note_on_c, 0, 57, 80
2, 54471, Note_on_c, 0, 59, 80
2, 54471, Note_on_c, 0, 61, 80
2, 54520, Note_on_c, 0, 60, 80
2, 54523, Note_on_c, 0, 57, 0
2, 54523, Note_on_c, 0, 52, 0
2, 54523, Note_on_c, 0, 72, 80
2, 54526, Note_on_c, 0, 59, 0
2, 54526, Note_on_c, 0, 61, 0
2, 54526, Note_on_c, 0, 71, 0
2, 54572, Note_on_c, 0, 49, 80
2, 54575, Note_on_c, 0, 61, 80
2, 54575, Note_on_c, 0, 73, 80
2, 54582, Note_on_c, 0, 60, 0
2, 54582, Note_on_c, 0, 72, 0
2, 54619, Note_on_c, 0, 73, 0
2, 54628, Note_on_c, 0, 68, 80
2, 54628, Note_on_c, 0, 80, 80
2, 54667, Note_on_c, 0, 49, 0
2, 54667, Note_on_c, 0, 61, 0
2, 54674, Note_on_c, 0, 48, 80
2, 54674, Note_on_c, 0, 60, 80
2, 54694, Note_on_c, 0, 68, 0
2, 54696, Note_on_c, 0, 80, 0
2, 54728, Note_on_c, 0, 66, 80
2, 54731, Note_on_c, 0, 78, 80
2, 54769, Note_on_c, 0, 48, 0
2, 54772, Note_on_c, 0, 78, 0
2, 54777, Note_on_c, 0, 47, 80
2, 54780, Note_on_c, 0, 59, 80
2, 54780, Note_on_c, 0, 64, 80
2, 54780, Note_on_c, 0, 76, 80
2, 54785, Note_on_c, 0, 66, 0
2, 54785, Note_on_c, 0, 60, 0
2, 54802, Control_c, 0, 64, 127
2, 54824, Note_on_c, 0, 76, 0
2, 54837, Note_on_c, 0, 64, 0
2, 54859, Control_c, 0, 64, 0
2, 54883, Note_on_c, 0, 40, 80
2, 54883, Note_on_c, 0, 52, 80
2, 54883, Note_on_c, 0, 56, 80
2, 54886, Note_on_c, 0, 68, 80
2, 54893, Note_on_c, 0, 59, 0
2, 54925, Note_on_c, 0, 56, 0
2, 54925, Note_on_c, 0, 52, 0
2, 54925, Note_on_c, 0, 47, 0
2, 54925, Note_on_c, 0, 40, 0
2, 54930, Note_on_c, 0, 68, 0
2, 54937, Note_on_c, 0, 62, 80
2, 54937, Note_on_c, 0, 71, 80
2, 54937, Note_on_c, 0, 74, 80
2, 54986, Note_on_c, 0, 44, 80
2, 54989, Note_on_c, 0, 56, 80
2, 55045, Note_on_c, 0, 44, 0
2, 55048, Note_on_c, 0, 56, 0
2, 55089, Note_on_c, 0, 62, 0
2, 55089, Note_on_c, 0, 71, 0
2, 55089, Note_on_c, 0, 74, 0
2, 55099, Note_on_c, 0, 43, 80
2, 55099, Note_on_c, 0, 55, 80
2, 55154, Note_on_c, 0, 43, 0
2, 55154, Note_on_c, 0, 66, 80
2, 55154, Note_on_c, 0, 70, 80
2, 55154, Note_on_c, 0, 73, 80
2, 55154, Note_on_c, 0, 78, 80
2, 55157, Note_on_c, 0, 55, 0
2, 55201, Control_c, 0, 64, 127
2, 55204, Note_on_c, 0, 42, 80
2, 55207, Note_on_c, 0, 54, 80
2, 55212, Note_on_c, 0, 66, 0
2, 55263, Control_c, 0, 64, 0
2, 55263, Note_on_c, 0, 66, 80
2, 55266, Note_on_c, 0, 42, 0
2, 55269, Note_on_c, 0, 70, 0
2, 55269, Note_on_c, 0, 78, 0
2, 55269, Note_on_c, 0, 73, 0
2, 55269, Note_on_c, 0, 54, 0
2, 55318, Note_on_c, 0, 58, 80
2, 55320, Note_on_c, 0, 54, 80
2, 55320, Note_on_c, 0, 61, 80
2, 55320, Note_on_c, 0, 64, 80
2, 55320, Note_on_c, 0, 70, 80
2, 55325, Note_on_c, 0, 66, 0
2, 55340, Note_on_c, 0, 61, 0
2, 55376, Note_on_c, 0, 61, 80
2, 55376, Note_on_c, 0, 73, 80
2, 55381, Note_on_c, 0, 64, 0
2, 55381, Note_on_c, 0, 54, 0
2, 55381, Note_on_c, 0, 58, 0
2, 55381, Note_on_c, 0, 70, 0
2, 55425, Note_on_c, 0, 34, 80
2, 55430, Note_on_c, 0, 46, 80
2, 55430, Note_on_c, 0, 66, 80
2, 55433, Note_on_c, 0, 78, 80
2, 55436, Note_on_c, 0, 73, 0
2, 55436, Note_on_c, 0, 61, 0
2, 55485, Note_on_c, 0, 34, 0
2, 55485, Note_on_c, 0, 64, 80
2, 55488, Note_on_c, 0, 46, 0
2, 55488, Note_on_c, 0, 76, 80
2, 55490, Note_on_c, 0, 78, 0
2, 55490, Note_on_c, 0, 66, 0
2, 55539, Note_on_c, 0, 54, 80
2, 55542, Note_on_c, 0, 61, 80
2, 55588, Note_on_c, 0, 76, 0
2, 55596, Note_on_c, 0, 62, 80
2, 55599, Note_on_c, 0, 66, 80
2, 55599, Note_on_c, 0, 71, 80
2, 55599, Note_on_c, 0, 74, 80
2, 55613, Note_on_c, 0, 64, 0
2, 55613, Note_on_c, 0, 61, 0
2, 55613, Note_on_c, 0, 54, 0
2, 55647, Note_on_c, 0, 35, 80
2, 55647, Note_on_c, 0, 47, 80
2, 55656, Control_c, 0, 64, 127
2, 55698, Note_on_c, 0, 36, 80
2, 55701, Note_on_c, 0, 48, 80
2, 55704, Note_on_c, 0, 47, 0
2, 55704, Note_on_c, 0, 35, 0
2, 55706, Note_on_c, 0, 66, 0
2, 55706, Note_on_c, 0, 62, 0
2, 55706, Note_on_c, 0, 74, 0
2, 55706, Note_on_c, 0, 71, 0
2, 55714, Control_c, 0, 64, 0
2, 55752, Note_on_c, 0, 37, 80
2, 55752, Note_on_c, 0, 49, 80
2, 55752, Note_on_c, 0, 66, 80
2, 55755, Note_on_c, 0, 61, 80
2, 55755, Note_on_c, 0, 64, 80
2, 55755, Note_on_c, 0, 70, 80
2, 55755, Note_on_c, 0, 73, 80
2, 55758, Note_on_c, 0, 36, 0
2, 55761, Note_on_c, 0, 48, 0
2, 55805, Note_on_c, 0, 42, 80
2, 55805, Note_on_c, 0, 54, 80
2, 55810, Note_on_c, 0, 49, 0
2, 55810, Note_on_c, 0, 37, 0
2, 55813, Note_on_c, 0, 70, 0
2, 55813, Note_on_c, 0, 64, 0
2, 55813, Note_on_c, 0, 73, 0
2, 55813, Note_on_c, 0, 66, 0
2, 55813, Note_on_c, 0, 61, 0
2, 55862, Note_on_c, 0, 38, 80
2, 55862, Note_on_c, 0, 50, 80
2, 55862, Note_on_c, 0, 59, 80
2, 55865, Note_on_c, 0, 42, 0
2, 55865, Note_on_c, 0, 62, 80
2, 55865, Note_on_c, 0, 66, 80
2, 55865, Note_on_c, 0, 71, 80
2, 55868, Note_on_c, 0, 54, 0
2, 55904, Note_on_c, 0, 38, 0
2, 55907, Note_on_c, 0, 66, 0
2, 55907, Note_on_c, 0, 59, 0
2, 55907, Note_on_c, 0, 62, 0
2, 55907, Note_on_c, 0, 71, 0
2, 55920, Note_on_c, 0, 50, 0
2, 55970, Note_on_c, 0, 39, 80
2, 55970, Note_on_c, 0, 51, 80
2, 55973, Note_on_c, 0, 66, 80
2, 55973, Note_on_c, 0, 70, 80
2, 55973, Note_on_c, 0, 72, 80
2, 55973, Note_on_c, 0, 78, 80
2, 56029, Note_on_c, 0, 51, 0
2, 56029, Note_on_c, 0, 39, 0
2, 56032, Note_on_c, 0, 72, 0
2, 56032, Note_on_c, 0, 70, 0
2, 56032, Note_on_c, 0, 78, 0
2, 56032, Note_on_c, 0, 66, 0
2, 56065, Control_c, 0, 64, 127
2, 56083, Note_on_c, 0, 40, 80
2, 56083, Note_on_c, 0, 52, 80
2, 56083, Note_on_c, 0, 64, 80
2, 56086, Note_on_c, 0, 69, 80
2, 56086, Note_on_c, 0, 73, 80
2, 56086, Note_on_c, 0, 76, 80
2, 56124, Note_on_c, 0, 40, 0
2, 56127, Note_on_c, 0, 73, 0
2, 56127, Note_on_c, 0, 69, 0
2, 56127, Note_on_c, 0, 52, 0
2, 56127, Note_on_c, 0, 76, 0
2, 56187, Note_on_c, 0, 52, 80
2, 56187, Note_on_c, 0, 54, 80
2, 56187, Note_on_c, 0, 57, 80
2, 56187, Note_on_c, 0, 61, 80
2, 56187, Note_on_c, 0, 66, 80
2, 56202, Control_c, 0, 64, 0
2, 56205, Note_on_c, 0, 64, 0
2, 56243, Note_on_c, 0, 55, 80
2, 56243, Note_on_c, 0, 67, 80
2, 56248, Note_on_c, 0, 54, 0
2, 56248, Note_on_c, 0, 61, 0
2, 56248, Note_on_c, 0, 52, 0
2, 56248, Note_on_c, 0, 57, 0
2, 56248, Note_on_c, 0, 66, 0
2, 56294, Note_on_c, 0, 40, 80
2, 56294, Note_on_c, 0, 56, 80
2, 56297, Note_on_c, 0, 68, 80
2, 56300, Note_on_c, 0, 67, 0
2, 56300, Note_on_c, 0, 55, 0
2, 56307, Note_on_c, 0, 28, 80
2, 56346, Note_on_c, 0, 64, 80
2, 56349, Note_on_c, 0, 28, 0
2, 56349, Note_on_c, 0, 76, 80
2, 56352, Note_on_c, 0, 56, 0
2, 56352, Note_on_c, 0, 40, 0
2, 56354, Note_on_c, 0, 68, 0
2, 56396, Note_on_c, 0, 54, 80
2, 56399, Note_on_c, 0, 52, 80
2, 56399, Note_on_c, 0, 56, 80
2, 56399, Note_on_c, 0, 62, 80
2, 56399, Note_on_c, 0, 66, 80
2, 56416, Note_on_c, 0, 56, 0
2, 56430, Note_on_c, 0, 76, 0
2, 56440, Note_on_c, 0, 64, 0
2, 56449, Note_on_c, 0, 56, 80
2, 56452, Note_on_c, 0, 68, 80
2, 56455, Note_on_c, 0, 62, 0
2, 56455, Note_on_c, 0, 54, 0
2, 56455, Note_on_c, 0, 52, 0
2, 56455, Note_on_c, 0, 66, 0
2, 56463, Control_c, 0, 64, 127
2, 56499, Note_on_c, 0, 68, 0
2, 56499, Note_on_c, 0, 56, 0
2, 56504, Note_on_c, 0, 33, 80
2, 56507, Note_on_c, 0, 45, 80
2, 56507, Note_on_c, 0, 57, 80
2, 56507, Note_on_c, 0, 64, 80
2, 56507, Note_on_c, 0, 69, 80
2, 56561, Control_c, 0, 64, 0
2, 56564, Note_on_c, 0, 57, 0
2, 56564, Note_on_c, 0, 33, 0
2, 56564, Note_on_c, 0, 45, 0
2, 56610, Note_on_c, 0, 52, 80
2, 56610, Note_on_c, 0, 57, 80
2, 56610, Note_on_c, 0, 61, 80
2, 56654, Note_on_c, 0, 61, 0
2, 56654, Note_on_c, 0, 52, 0
2, 56654, Note_on_c, 0, 57, 0
2, 56717, Note_on_c, 0, 52, 80
2, 56717, Note_on_c, 0, 57, 80
2, 56717, Note_on_c, 0, 61, 80
2, 56773, Note_on_c, 0, 64, 0
2, 56773, Note_on_c, 0, 69, 0
2, 56827, Note_on_c, 0, 64, 80
2, 56827, Note_on_c, 0, 76, 80
2, 56832, Note_on_c, 0, 57, 0
2, 56832, Note_on_c, 0, 52, 0
2, 56844, Note_on_c, 0, 61, 0
2, 56888, Note_on_c, 0, 76, 0
2, 56901, Note_on_c, 0, 64, 0
2, 56937, Note_on_c, 0, 45, 80
2, 56937, Note_on_c, 0, 57, 80
2, 56937, Note_on_c, 0, 81, 80
2, 56937, Note_on_c, 0, 85, 80
2, 56937, Note_on_c, 0, 93, 80
2, 56950, Control_c, 0, 64, 127
2, 56957, Note_on_c, 0, 81, 0
2, 56991, Note_on_c, 0, 69, 80
2, 56994, Note_on_c, 0, 81, 80
2, 56997, Note_on_c, 0, 85, 0
2, 56997, Note_on_c, 0, 93, 0
2, 56997, Note_on_c, 0, 57, 0
2, 57011, Control_c, 0, 64, 0
2, 57014, Note_on_c, 0, 45, 0
2, 57050, Note_on_c, 0, 52, 80
2, 57050, Note_on_c, 0, 57, 80
2, 57050, Note_on_c, 0, 61, 80
2, 57050, Note_on_c, 0, 71, 80
2, 57050, Note_on_c, 0, 83, 80
2, 57053, Note_on_c, 0, 69, 0
2, 57053, Note_on_c, 0, 81, 0
2, 57104, Note_on_c, 0, 72, 80
2, 57104, Note_on_c, 0, 84, 80
2, 57109, Note_on_c, 0, 52, 0
2, 57109, Note_on_c, 0, 71, 0
2, 57109, Note_on_c, 0, 57, 0
2, 57109, Note_on_c, 0, 61, 0
2, 57109, Note_on_c, 0, 83, 0
2, 57147, Note_on_c, 0, 72, 0
2, 57150, Note_on_c, 0, 84, 0
2, 57160, Note_on_c, 0, 49, 80
2, 57160, Note_on_c, 0, 61, 80
2, 57160, Note_on_c, 0, 73, 80
2, 57160, Note_on_c, 0, 85, 80
2, 57216, Note_on_c, 0, 80, 80
2, 57216, Note_on_c, 0, 92, 80
2, 57218, Note_on_c, 0, 85, 0
2, 57221, Note_on_c, 0, 73, 0
2, 57267, Note_on_c, 0, 48, 80
2, 57267, Note_on_c, 0, 60, 80
2, 57272, Note_on_c, 0, 49, 0
2, 57272, Note_on_c, 0, 61, 0
2, 57313, Note_on_c, 0, 80, 0
2, 57313, Note_on_c, 0, 92, 0
2, 57321, Note_on_c, 0, 90, 80
2, 57324, Note_on_c, 0, 78, 80
2, 57373, Note_on_c, 0, 76, 80
2, 57376, Note_on_c, 0, 47, 80
2, 57376, Note_on_c, 0, 59, 80
2, 57376, Note_on_c, 0, 88, 80
2, 57379, Note_on_c, 0, 90, 0
2, 57382, Note_on_c, 0, 78, 0
2, 57382, Note_on_c, 0, 48, 0
2, 57382, Note_on_c, 0, 60, 0
2, 57432, Note_on_c, 0, 76, 0
2, 57432, Note_on_c, 0, 88, 0
2, 57442, Control_c, 0, 64, 127
2, 57479, Note_on_c, 0, 56, 80
2, 57479, Note_on_c, 0, 68, 80
2, 57479, Note_on_c, 0, 80, 80
2, 57481, Note_on_c, 0, 52, 80
2, 57481, Note_on_c, 0, 62, 80
2, 57484, Note_on_c, 0, 59, 0
2, 57494, Control_c, 0, 64, 0
2, 57518, Note_on_c, 0, 47, 0
2, 57528, Note_on_c, 0, 74, 80
2, 57528, Note_on_c, 0, 83, 80
2, 57528, Note_on_c, 0, 86, 80
2, 57532, Note_on_c, 0, 56, 0
2, 57532, Note_on_c, 0, 52, 0
2, 57532, Note_on_c, 0, 68, 0
2, 57532, Note_on_c, 0, 80, 0
2, 57532, Note_on_c, 0, 62, 0
2, 57578, Note_on_c, 0, 40, 80
2, 57578, Note_on_c, 0, 52, 80
2, 57620, Note_on_c, 0, 52, 0
2, 57620, Note_on_c, 0, 74, 0
2, 57648, Note_on_c, 0, 40, 0
2, 57658, Note_on_c, 0, 83, 0
2, 57661, Note_on_c, 0, 86, 0
2, 57683, Note_on_c, 0, 52, 80
2, 57683, Note_on_c, 0, 56, 80
2, 57683, Note_on_c, 0, 62, 80
2, 57732, Note_on_c, 0, 85, 80
2, 57732, Note_on_c, 0, 93, 80
2, 57735, Note_on_c, 0, 81, 80
2, 57738, Note_on_c, 0, 62, 0
2, 57738, Note_on_c, 0, 52, 0
2, 57738, Note_on_c, 0, 56, 0
2, 57776, Note_on_c, 0, 81, 0
2, 57784, Note_on_c, 0, 57, 80
2, 57787, Control_c, 0, 64, 127
2, 57787, Note_on_c, 0, 45, 80
2, 57838, Note_on_c, 0, 81, 80
2, 57840, Note_on_c, 0, 93, 0
2, 57840, Note_on_c, 0, 69, 80
2, 57843, Note_on_c, 0, 45, 0
2, 57843, Note_on_c, 0, 85, 0
2, 57843, Note_on_c, 0, 57, 0
2, 57882, Control_c, 0, 64, 0
2, 57889, Note_on_c, 0, 71, 80
2, 57889, Note_on_c, 0, 83, 80
2, 57892, Note_on_c, 0, 52, 80
2, 57892, Note_on_c, 0, 57, 80
2, 57892, Note_on_c, 0, 61, 80
2, 57895, Note_on_c, 0, 81, 0
2, 57898, Note_on_c, 0, 69, 0
2, 57947, Note_on_c, 0, 84, 80
2, 57950, Note_on_c, 0, 72, 80
2, 57953, Note_on_c, 0, 71, 0
2, 57953, Note_on_c, 0, 83, 0
2, 57953, Note_on_c, 0, 52, 0
2, 57953, Note_on_c, 0, 61, 0
2, 57956, Note_on_c, 0, 57, 0
2, 58005, Note_on_c, 0, 49, 80
2, 58005, Note_on_c, 0, 61, 80
2, 58005, Note_on_c, 0, 73, 80
2, 58005, Note_on_c, 0, 85, 80
2, 58009, Note_on_c, 0, 72, 0
2, 58009, Note_on_c, 0, 84, 0
2, 58060, Note_on_c, 0, 80, 80
2, 58060, Note_on_c, 0, 92, 80
2, 58065, Note_on_c, 0, 73, 0
2, 58065, Note_on_c, 0, 85, 0
2, 58111, Note_on_c, 0, 48, 80
2, 58111, Note_on_c, 0, 60, 80
2, 58116, Note_on_c, 0, 49, 0
2, 58116, Note_on_c, 0, 61, 0
2, 58145, Note_on_c, 0, 80, 0
2, 58145, Note_on_c, 0, 92, 0
2, 58164, Note_on_c, 0, 78, 80
2, 58164, Note_on_c, 0, 90, 80
2, 58218, Note_on_c, 0, 47, 80
2, 58218, Note_on_c, 0, 76, 80
2, 58218, Note_on_c, 0, 88, 80
2, 58221, Note_on_c, 0, 59, 80
2, 58224, Note_on_c, 0, 90, 0
2, 58224, Note_on_c, 0, 78, 0
2, 58224, Note_on_c, 0, 60, 0
2, 58226, Note_on_c, 0, 48, 0
2, 58234, Control_c, 0, 64, 127
2, 58278, Note_on_c, 0, 76, 0
2, 58278, Note_on_c, 0, 88, 0
2, 58327, Note_on_c, 0, 40, 80
2, 58327, Note_on_c, 0, 80, 80
2, 58330, Note_on_c, 0, 52, 80
2, 58330, Note_on_c, 0, 68, 80
2, 58333, Note_on_c, 0, 59, 0
2, 58333, Note_on_c, 0, 47, 0
2, 58333, Control_c, 0, 64, 0
2, 58382, Note_on_c, 0, 83, 80
2, 58382, Note_on_c, 0, 86, 80
2, 58385, Note_on_c, 0, 74, 80
2, 58388, Note_on_c, 0, 52, 0
2, 58388, Note_on_c, 0, 40, 0
2, 58388, Note_on_c, 0, 80, 0
2, 58388, Note_on_c, 0, 68, 0
2, 58441, Note_on_c, 0, 44, 80
2, 58441, Note_on_c, 0, 56, 80
2, 58459, Note_on_c, 0, 74, 0
2, 58500, Note_on_c, 0, 83, 0
2, 58527, Note_on_c, 0, 86, 0
2, 58546, Note_on_c, 0, 43, 80
2, 58549, Note_on_c, 0, 55, 80
2, 58554, Note_on_c, 0, 56, 0
2, 58557, Note_on_c, 0, 44, 0
2, 58601, Note_on_c, 0, 78, 80
2, 58601, Note_on_c, 0, 82, 80
2, 58601, Note_on_c, 0, 85, 80
2, 58601, Note_on_c, 0, 90, 80
2, 58655, Note_on_c, 0, 54, 80
2, 58657, Note_on_c, 0, 78, 0
2, 58657, Note_on_c, 0, 42, 80
2, 58660, Note_on_c, 0, 55, 0
2, 58660, Note_on_c, 0, 43, 0
2, 58687, Control_c, 0, 64, 127
2, 58709, Note_on_c, 0, 66, 80
2, 58709, Note_on_c, 0, 78, 80
2, 58714, Note_on_c, 0, 54, 0
2, 58714, Note_on_c, 0, 82, 0
2, 58714, Note_on_c, 0, 85, 0
2, 58714, Note_on_c, 0, 90, 0
2, 58743, Control_c, 0, 64, 0
2, 58755, Note_on_c, 0, 66, 0
2, 58755, Note_on_c, 0, 78, 0
2, 58763, Note_on_c, 0, 82, 80
2, 58766, Note_on_c, 0, 54, 80
2, 58766, Note_on_c, 0, 58, 80
2, 58766, Note_on_c, 0, 61, 80
2, 58766, Note_on_c, 0, 64, 80
2, 58766, Note_on_c, 0, 70, 80
2, 58817, Note_on_c, 0, 85, 80
2, 58820, Note_on_c, 0, 73, 80
2, 58823, Note_on_c, 0, 70, 0
2, 58823, Note_on_c, 0, 82, 0
2, 58825, Note_on_c, 0, 61, 0
2, 58825, Note_on_c, 0, 42, 0
2, 58825, Note_on_c, 0, 58, 0
2, 58838, Note_on_c, 0, 64, 0
2, 58838, Note_on_c, 0, 54, 0
2, 58870, Note_on_c, 0, 90, 80
2, 58872, Note_on_c, 0, 78, 80
2, 58875, Note_on_c, 0, 34, 80
2, 58875, Note_on_c, 0, 46, 80
2, 58878, Note_on_c, 0, 85, 0
2, 58878, Note_on_c, 0, 73, 0
2, 58929, Note_on_c, 0, 76, 80
2, 58929, Note_on_c, 0, 88, 80
2, 58932, Note_on_c, 0, 90, 0
2, 58935, Note_on_c, 0, 46, 0
2, 58935, Note_on_c, 0, 78, 0
2, 58935, Note_on_c, 0, 34, 0
2, 58984, Note_on_c, 0, 54, 80
2, 58984, Note_on_c, 0, 61, 80
2, 58984, Note_on_c, 0, 64, 80
2, 59016, Note_on_c, 0, 88, 0
2, 59016, Note_on_c, 0, 76, 0
2, 59038, Note_on_c, 0, 74, 80
2, 59038, Note_on_c, 0, 78, 80
2, 59038, Note_on_c, 0, 83, 80
2, 59038, Note_on_c, 0, 86, 80
2, 59042, Note_on_c, 0, 61, 0
2, 59042, Note_on_c, 0, 64, 0
2, 59042, Note_on_c, 0, 54, 0
2, 59091, Note_on_c, 0, 35, 80
2, 59091, Note_on_c, 0, 47, 80
2, 59133, Control_c, 0, 64, 127
2, 59145, Note_on_c, 0, 36, 80
2, 59145, Note_on_c, 0, 48, 80
2, 59148, Note_on_c, 0, 78, 0
2, 59148, Note_on_c, 0, 86, 0
2, 59148, Note_on_c, 0, 74, 0
2, 59148, Note_on_c, 0, 83, 0
2, 59151, Note_on_c, 0, 35, 0
2, 59151, Note_on_c, 0, 47, 0
2, 59192, Control_c, 0, 64, 0
2, 59197, Note_on_c, 0, 73, 80
2, 59197, Note_on_c, 0, 76, 80
2, 59197, Note_on_c, 0, 78, 80
2, 59197, Note_on_c, 0, 82, 80
2, 59197, Note_on_c, 0, 85, 80
2, 59200, Note_on_c, 0, 49, 80
2, 59212, Note_on_c, 0, 37, 80
2, 59217, Note_on_c, 0, 36, 0
2, 59220, Note_on_c, 0, 48, 0
2, 59252, Note_on_c, 0, 40, 80
2, 59252, Note_on_c, 0, 52, 80
2, 59255, Note_on_c, 0, 76, 0
2, 59255, Note_on_c, 0, 78, 0
2, 59255, Note_on_c, 0, 82, 0
2, 59255, Note_on_c, 0, 73, 0
2, 59257, Note_on_c, 0, 37, 0
2, 59257, Note_on_c, 0, 49, 0
2, 59267, Note_on_c, 0, 85, 0
2, 59301, Note_on_c, 0, 71, 80
2, 59301, Note_on_c, 0, 74, 80
2, 59301, Note_on_c, 0, 78, 80
2, 59301, Note_on_c, 0, 83, 80
2, 59304, Note_on_c, 0, 38, 80
2, 59304, Note_on_c, 0, 50, 80
2, 59308, Note_on_c, 0, 52, 0
2, 59308, Note_on_c, 0, 40, 0
2, 59357, Note_on_c, 0, 50, 0
2, 59370, Note_on_c, 0, 38, 0
2, 59403, Note_on_c, 0, 50, 80
2, 59403, Note_on_c, 0, 54, 80
2, 59403, Note_on_c, 0, 59, 80
2, 59457, Note_on_c, 0, 83, 0
2, 59460, Note_on_c, 0, 54, 0
2, 59460, Note_on_c, 0, 71, 0
2, 59460, Note_on_c, 0, 78, 0
2, 59460, Note_on_c, 0, 74, 0
2, 59460, Note_on_c, 0, 59, 0
2, 59460, Note_on_c, 0, 50, 0
2, 59509, Note_on_c, 0, 85, 80
2, 59512, Note_on_c, 0, 35, 80
2, 59512, Note_on_c, 0, 47, 80
2, 59512, Note_on_c, 0, 73, 80
2, 59512, Note_on_c, 0, 75, 80
2, 59512, Note_on_c, 0, 81, 80
2, 59529, Control_c, 0, 64, 127
2, 59556, Note_on_c, 0, 85, 0
2, 59559, Note_on_c, 0, 75, 0
2, 59559, Note_on_c, 0, 73, 0
2, 59559, Note_on_c, 0, 81, 0
2, 59562, Note_on_c, 0, 35, 0
2, 59574, Note_on_c, 0, 47, 0
2, 59589, Control_c, 0, 64, 0
2, 59622, Note_on_c, 0, 83, 80
2, 59625, Note_on_c, 0, 57, 80
2, 59625, Note_on_c, 0, 59, 80
2, 59625, Note_on_c, 0, 71, 80
2, 59625, Note_on_c, 0, 75, 80
2, 59625, Note_on_c, 0, 81, 80
2, 59628, Note_on_c, 0, 54, 80
2, 59669, Note_on_c, 0, 81, 0
2, 59669, Note_on_c, 0, 83, 0
2, 59672, Note_on_c, 0, 59, 0
2, 59672, Note_on_c, 0, 71, 0
2, 59672, Note_on_c, 0, 57, 0
2, 59672, Note_on_c, 0, 54, 0
2, 59672, Note_on_c, 0, 75, 0
2, 59733, Note_on_c, 0, 39, 80
2, 59733, Note_on_c, 0, 51, 80
2, 59733, Note_on_c, 0, 73, 80
2, 59733, Note_on_c, 0, 81, 80
2, 59733, Note_on_c, 0, 85, 80
2, 59791, Note_on_c, 0, 85, 0
2, 59791, Note_on_c, 0, 73, 0
2, 59791, Note_on_c, 0, 81, 0
2, 59794, Note_on_c, 0, 51, 0
2, 59794, Note_on_c, 0, 39, 0
2, 59843, Note_on_c, 0, 71, 80
2, 59843, Note_on_c, 0, 81, 80
2, 59843, Note_on_c, 0, 83, 80
2, 59846, Note_on_c, 0, 54, 80
2, 59846, Note_on_c, 0, 57, 80
2, 59846, Note_on_c, 0, 59, 80
2, 59887, Note_on_c, 0, 59, 0
2, 59887, Note_on_c, 0, 81, 0
2, 59887, Note_on_c, 0, 83, 0
2, 59887, Note_on_c, 0, 71, 0
2, 59887, Note_on_c, 0, 57, 0
2, 59887, Note_on_c, 0, 54, 0
2, 59941, Control_c, 0, 64, 127
2, 59951, Note_on_c, 0, 90, 80
2, 59953, Note_on_c, 0, 78, 80
2, 59953, Note_on_c, 0, 80, 80
2, 59953, Note_on_c, 0, 86, 80
2, 59956, Note_on_c, 0, 40, 80
2, 59956, Note_on_c, 0, 52, 80
2, 59995, Note_on_c, 0, 78, 0
2, 59995, Note_on_c, 0, 90, 0
2, 59998, Note_on_c, 0, 40, 0
2, 59998, Note_on_c, 0, 86, 0
2, 59998, Note_on_c, 0, 52, 0
2, 59998, Note_on_c, 0, 80, 0
2, 60000, Control_c, 0, 64, 0
2, 60056, Note_on_c, 0, 88, 80
2, 60059, Note_on_c, 0, 52, 80
2, 60059, Note_on_c, 0, 59, 80
2, 60059, Note_on_c, 0, 62, 80
2, 60059, Note_on_c, 0, 76, 80
2, 60059, Note_on_c, 0, 80, 80
2, 60059, Note_on_c, 0, 86, 80
2, 60115, Note_on_c, 0, 86, 0
2, 60115, Note_on_c, 0, 76, 0
2, 60115, Note_on_c, 0, 88, 0
2, 60115, Note_on_c, 0, 80, 0
2, 60118, Note_on_c, 0, 52, 0
2, 60118, Note_on_c, 0, 62, 0
2, 60118, Note_on_c, 0, 59, 0
2, 60162, Note_on_c, 0, 86, 80
2, 60162, Note_on_c, 0, 92, 80
2, 60162, Note_on_c, 0, 97, 80
2, 60165, Note_on_c, 0, 40, 80
2, 60179, Note_on_c, 0, 28, 80
2, 60217, Note_on_c, 0, 97, 0
2, 60217, Note_on_c, 0, 92, 0
2, 60220, Note_on_c, 0, 86, 0
2, 60223, Note_on_c, 0, 28, 0
2, 60223, Note_on_c, 0, 40, 0
2, 60267, Note_on_c, 0, 83, 80
2, 60267, Note_on_c, 0, 86, 80
2, 60267, Note_on_c, 0, 92, 80
2, 60267, Note_on_c, 0, 95, 80
2, 60270, Note_on_c, 0, 52, 80
2, 60270, Note_on_c, 0, 56, 80
2, 60270, Note_on_c, 0, 62, 80
2, 60312, Note_on_c, 0, 95, 0
2, 60312, Note_on_c, 0, 92, 0
2, 60312, Note_on_c, 0, 83, 0
2, 60312, Note_on_c, 0, 86, 0
2, 60314, Note_on_c, 0, 62, 0
2, 60314, Note_on_c, 0, 52, 0
2, 60314, Note_on_c, 0, 56, 0
2, 60373, Note_on_c, 0, 93, 80
2, 60376, Note_on_c, 0, 33, 80
2, 60376, Note_on_c, 0, 45, 80
2, 60376, Note_on_c, 0, 81, 80
2, 60376, Note_on_c, 0, 85, 80
2, 60379, Control_c, 0, 64, 127
2, 60393, Note_on_c, 0, 81, 0
2, 60417, Note_on_c, 0, 93, 0
2, 60417, Note_on_c, 0, 85, 0
2, 60420, Note_on_c, 0, 45, 0
2, 60420, Note_on_c, 0, 33, 0
2, 60428, Note_on_c, 0, 69, 80
2, 60428, Note_on_c, 0, 81, 80
2, 60479, Note_on_c, 0, 71, 80
2, 60479, Note_on_c, 0, 83, 80
2, 60481, Note_on_c, 0, 52, 80
2, 60481, Note_on_c, 0, 57, 80
2, 60481, Note_on_c, 0, 61, 80
2, 60484, Note_on_c, 0, 81, 0
2, 60487, Note_on_c, 0, 69, 0
2, 60511, Control_c, 0, 64, 0
2, 60526, Note_on_c, 0, 84, 80
2, 60528, Note_on_c, 0, 72, 80
2, 60548, Note_on_c, 0, 71, 0
2, 60548, Note_on_c, 0, 57, 0
2, 60548, Note_on_c, 0, 83, 0
2, 60548, Note_on_c, 0, 52, 0
2, 60548, Note_on_c, 0, 61, 0
2, 60581, Note_on_c, 0, 49, 80
2, 60581, Note_on_c, 0, 61, 80
2, 60581, Note_on_c, 0, 73, 80
2, 60581, Note_on_c, 0, 85, 80
2, 60584, Note_on_c, 0, 72, 0
2, 60599, Note_on_c, 0, 84, 0
2, 60632, Note_on_c, 0, 80, 80
2, 60632, Note_on_c, 0, 92, 80
2, 60637, Note_on_c, 0, 73, 0
2, 60637, Note_on_c, 0, 85, 0
2, 60688, Note_on_c, 0, 48, 80
2, 60688, Note_on_c, 0, 60, 80
2, 60693, Note_on_c, 0, 49, 0
2, 60693, Note_on_c, 0, 61, 0
2, 60729, Note_on_c, 0, 92, 0
2, 60729, Control_c, 0, 64, 127
2, 60732, Note_on_c, 0, 80, 0
2, 60737, Note_on_c, 0, 90, 80
2, 60742, Note_on_c, 0, 78, 80
2, 60792, Note_on_c, 0, 59, 80
2, 60792, Note_on_c, 0, 76, 80
2, 60792, Note_on_c, 0, 88, 80
2, 60795, Note_on_c, 0, 78, 0
2, 60795, Note_on_c, 0, 90, 0
2, 60795, Note_on_c, 0, 47, 80
2, 60800, Note_on_c, 0, 60, 0
2, 60803, Note_on_c, 0, 48, 0
2, 60852, Note_on_c, 0, 88, 0
2, 60852, Note_on_c, 0, 76, 0
2, 60866, Control_c, 0, 64, 0
2, 60898, Note_on_c, 0, 52, 80
2, 60898, Note_on_c, 0, 68, 80
2, 60898, Note_on_c, 0, 80, 80
2, 60901, Note_on_c, 0, 56, 80
2, 60901, Note_on_c, 0, 62, 80
2, 60904, Note_on_c, 0, 59, 0
2, 60916, Note_on_c, 0, 47, 0
2, 60950, Note_on_c, 0, 83, 80
2, 60950, Note_on_c, 0, 86, 80
2, 60953, Note_on_c, 0, 74, 80
2, 60956, Note_on_c, 0, 68, 0
2, 60956, Note_on_c, 0, 80, 0
2, 60956, Note_on_c, 0, 62, 0
2, 60959, Note_on_c, 0, 52, 0
2, 60961, Note_on_c, 0, 56, 0
2, 61006, Note_on_c, 0, 40, 80
2, 61020, Note_on_c, 0, 28, 80
2, 61064, Note_on_c, 0, 74, 0
2, 61064, Note_on_c, 0, 83, 0
2, 61064, Note_on_c, 0, 86, 0
2, 61077, Note_on_c, 0, 40, 0
2, 61080, Note_on_c, 0, 28, 0
2, 61113, Note_on_c, 0, 52, 80
2, 61113, Note_on_c, 0, 56, 80
2, 61113, Note_on_c, 0, 62, 80
2, 61157, Note_on_c, 0, 56, 0
2, 61157, Note_on_c, 0, 52, 0
2, 61162, Note_on_c, 0, 85, 80
2, 61162, Note_on_c, 0, 93, 80
2, 61165, Note_on_c, 0, 81, 80
2, 61170, Note_on_c, 0, 62, 0
2, 61208, Note_on_c, 0, 81, 0
2, 61218, Note_on_c, 0, 45, 80
2, 61218, Note_on_c, 0, 57, 80
2, 61247, Control_c, 0, 64, 127
2, 61269, Note_on_c, 0, 69, 80
2, 61269, Note_on_c, 0, 81, 80
2, 61273, Note_on_c, 0, 93, 0
2, 61273, Note_on_c, 0, 85, 0
2, 61276, Note_on_c, 0, 57, 0
2, 61276, Note_on_c, 0, 45, 0
2, 61303, Control_c, 0, 64, 0
2, 61316, Note_on_c, 0, 81, 0
2, 61319, Note_on_c, 0, 69, 0
2, 61326, Note_on_c, 0, 71, 80
2, 61326, Note_on_c, 0, 83, 80
2, 61329, Note_on_c, 0, 52, 80
2, 61329, Note_on_c, 0, 57, 80
2, 61329, Note_on_c, 0, 61, 80
2, 61380, Note_on_c, 0, 84, 80
2, 61383, Note_on_c, 0, 72, 80
2, 61386, Note_on_c, 0, 61, 0
2, 61386, Note_on_c, 0, 57, 0
2, 61386, Note_on_c, 0, 71, 0
2, 61386, Note_on_c, 0, 52, 0
2, 61386, Note_on_c, 0, 83, 0
2, 61435, Note_on_c, 0, 85, 80
2, 61438, Note_on_c, 0, 61, 80
2, 61438, Note_on_c, 0, 73, 80
2, 61440, Note_on_c, 0, 84, 0
2, 61440, Note_on_c, 0, 49, 80
2, 61445, Note_on_c, 0, 72, 0
2, 61489, Note_on_c, 0, 92, 80
2, 61494, Note_on_c, 0, 80, 80
2, 61497, Note_on_c, 0, 85, 0
2, 61500, Note_on_c, 0, 73, 0
2, 61551, Note_on_c, 0, 60, 80
2, 61554, Note_on_c, 0, 48, 80
2, 61557, Note_on_c, 0, 61, 0
2, 61560, Note_on_c, 0, 49, 0
2, 61601, Note_on_c, 0, 90, 80
2, 61606, Note_on_c, 0, 78, 80
2, 61610, Note_on_c, 0, 92, 0
2, 61610, Note_on_c, 0, 80, 0
2, 61656, Note_on_c, 0, 88, 80
2, 61659, Control_c, 0, 64, 127
2, 61659, Note_on_c, 0, 47, 80
2, 61659, Note_on_c, 0, 59, 80
2, 61659, Note_on_c, 0, 76, 80
2, 61662, Note_on_c, 0, 90, 0
2, 61665, Note_on_c, 0, 60, 0
2, 61665, Note_on_c, 0, 78, 0
2, 61668, Note_on_c, 0, 48, 0
2, 61702, Note_on_c, 0, 88, 0
2, 61704, Note_on_c, 0, 76, 0
2, 61760, Control_c, 0, 64, 0
2, 61770, Note_on_c, 0, 40, 80
2, 61770, Note_on_c, 0, 52, 80
2, 61770, Note_on_c, 0, 68, 80
2, 61770, Note_on_c, 0, 80, 80
2, 61773, Note_on_c, 0, 59, 0
2, 61801, Note_on_c, 0, 47, 0
2, 61821, Note_on_c, 0, 74, 80
2, 61821, Note_on_c, 0, 83, 80
2, 61821, Note_on_c, 0, 86, 80
2, 61825, Note_on_c, 0, 80, 0
2, 61828, Note_on_c, 0, 40, 0
2, 61828, Note_on_c, 0, 52, 0
2, 61828, Note_on_c, 0, 68, 0
2, 61874, Note_on_c, 0, 44, 80
2, 61874, Note_on_c, 0, 56, 80
2, 61952, Note_on_c, 0, 83, 0
2, 61955, Note_on_c, 0, 86, 0
2, 61955, Note_on_c, 0, 74, 0
2, 61968, Note_on_c, 0, 56, 0
2, 61977, Note_on_c, 0, 43, 80
2, 61977, Note_on_c, 0, 55, 80
2, 61980, Note_on_c, 0, 44, 0
2, 62031, Note_on_c, 0, 78, 80
2, 62031, Note_on_c, 0, 82, 80
2, 62031, Note_on_c, 0, 85, 80
2, 62031, Note_on_c, 0, 90, 80
2, 62075, Note_on_c, 0, 78, 0
2, 62083, Note_on_c, 0, 42, 80
2, 62083, Note_on_c, 0, 54, 80
2, 62090, Note_on_c, 0, 43, 0
2, 62090, Note_on_c, 0, 55, 0
2, 62127, Note_on_c, 0, 90, 0
2, 62127, Note_on_c, 0, 85, 0
2, 62127, Note_on_c, 0, 82, 0
2, 62135, Note_on_c, 0, 78, 80
2, 62137, Note_on_c, 0, 66, 80
2, 62142, Note_on_c, 0, 54, 0
2, 62188, Note_on_c, 0, 82, 80
2, 62191, Note_on_c, 0, 54, 80
2, 62191, Note_on_c, 0, 58, 80
2, 62191, Note_on_c, 0, 61, 80
2, 62191, Note_on_c, 0, 64, 80
2, 62191, Note_on_c, 0, 70, 80
2, 62194, Note_on_c, 0, 78, 0
2, 62197, Note_on_c, 0, 66, 0
2, 62243, Note_on_c, 0, 73, 80
2, 62243, Note_on_c, 0, 85, 80
2, 62248, Note_on_c, 0, 82, 0
2, 62248, Note_on_c, 0, 64, 0
2, 62248, Note_on_c, 0, 70, 0
2, 62248, Note_on_c, 0, 58, 0
2, 62248, Note_on_c, 0, 42, 0
2, 62248, Note_on_c, 0, 54, 0
2, 62248, Note_on_c, 0, 61, 0
2, 62257, Control_c, 0, 64, 127
2, 62294, Note_on_c, 0, 90, 80
2, 62297, Note_on_c, 0, 46, 80
2, 62297, Note_on_c, 0, 78, 80
2, 62300, Note_on_c, 0, 34, 80
2, 62303, Note_on_c, 0, 85, 0
2, 62303, Note_on_c, 0, 73, 0
2, 62317, Control_c, 0, 64, 0
2, 62341, Note_on_c, 0, 90, 0
2, 62341, Note_on_c, 0, 46, 0
2, 62341, Note_on_c, 0, 34, 0
2, 62344, Note_on_c, 0, 78, 0
2, 62349, Note_on_c, 0, 88, 80
2, 62352, Note_on_c, 0, 76, 80
2, 62402, Note_on_c, 0, 61, 80
2, 62402, Note_on_c, 0, 64, 80
2, 62405, Note_on_c, 0, 54, 80
2, 62434, Note_on_c, 0, 76, 0
2, 62434, Note_on_c, 0, 88, 0
2, 62458, Note_on_c, 0, 74, 80
2, 62458, Note_on_c, 0, 78, 80
2, 62458, Note_on_c, 0, 83, 80
2, 62458, Note_on_c, 0, 86, 80
2, 62463, Note_on_c, 0, 64, 0
2, 62463, Note_on_c, 0, 54, 0
2, 62463, Note_on_c, 0, 61, 0
2, 62509, Note_on_c, 0, 47, 80
2, 62514, Note_on_c, 0, 35, 80
2, 62541, Control_c, 0, 64, 127
2, 62544, Note_on_c, 0, 74, 0
2, 62544, Note_on_c, 0, 83, 0
2, 62546, Note_on_c, 0, 78, 0
2, 62546, Note_on_c, 0, 86, 0
2, 62559, Control_c, 0, 64, 0
2, 62567, Note_on_c, 0, 36, 80
2, 62569, Note_on_c, 0, 48, 80
2, 62572, Note_on_c, 0, 35, 0
2, 62572, Note_on_c, 0, 47, 0
2, 62623, Note_on_c, 0, 49, 80
2, 62623, Note_on_c, 0, 73, 80
2, 62623, Note_on_c, 0, 76, 80
2, 62623, Note_on_c, 0, 78, 80
2, 62623, Note_on_c, 0, 82, 80
2, 62623, Note_on_c, 0, 85, 80
2, 62626, Note_on_c, 0, 37, 80
2, 62629, Note_on_c, 0, 36, 0
2, 62632, Note_on_c, 0, 48, 0
2, 62676, Note_on_c, 0, 52, 80
2, 62679, Note_on_c, 0, 40, 80
2, 62682, Note_on_c, 0, 73, 0
2, 62682, Note_on_c, 0, 85, 0
2, 62682, Note_on_c, 0, 37, 0
2, 62682, Note_on_c, 0, 78, 0
2, 62682, Note_on_c, 0, 49, 0
2, 62682, Note_on_c, 0, 76, 0
2, 62682, Note_on_c, 0, 82, 0
2, 62733, Note_on_c, 0, 38, 80
2, 62733, Note_on_c, 0, 50, 80
2, 62733, Note_on_c, 0, 71, 80
2, 62733, Note_on_c, 0, 74, 80
2, 62733, Note_on_c, 0, 78, 80
2, 62733, Note_on_c, 0, 83, 80
2, 62737, Note_on_c, 0, 40, 0
2, 62737, Note_on_c, 0, 52, 0
2, 62784, Note_on_c, 0, 42, 80
2, 62784, Note_on_c, 0, 54, 80
2, 62788, Note_on_c, 0, 74, 0
2, 62788, Note_on_c, 0, 78, 0
2, 62788, Note_on_c, 0, 38, 0
2, 62801, Note_on_c, 0, 50, 0
2, 62801, Note_on_c, 0, 71, 0
2, 62804, Note_on_c, 0, 83, 0
2, 62837, Note_on_c, 0, 39, 80
2, 62837, Note_on_c, 0, 84, 80
2, 62837, Note_on_c, 0, 90, 80
2, 62840, Note_on_c, 0, 51, 80
2, 62840, Note_on_c, 0, 78, 80
2, 62840, Note_on_c, 0, 82, 80
2, 62843, Note_on_c, 0, 42, 0
2, 62843, Note_on_c, 0, 54, 0
2, 62887, Note_on_c, 0, 45, 80
2, 62890, Note_on_c, 0, 57, 80
2, 62893, Note_on_c, 0, 90, 0
2, 62896, Note_on_c, 0, 51, 0
2, 62896, Note_on_c, 0, 82, 0
2, 62896, Note_on_c, 0, 39, 0
2, 62896, Note_on_c, 0, 84, 0
2, 62896, Note_on_c, 0, 78, 0
2, 62904, Control_c, 0, 64, 127
2, 62932, Note_on_c, 0, 57, 0
2, 62942, Note_on_c, 0, 40, 80
2, 62942, Note_on_c, 0, 52, 80
2, 62942, Note_on_c, 0, 76, 80
2, 62942, Note_on_c, 0, 81, 80
2, 62942, Note_on_c, 0, 85, 80
2, 62942, Note_on_c, 0, 88, 80
2, 62947, Note_on_c, 0, 45, 0
2, 62961, Note_on_c, 0, 76, 0
2, 62995, Note_on_c, 0, 76, 80
2, 62998, Note_on_c, 0, 64, 80
2, 63000, Note_on_c, 0, 52, 0
2, 63000, Note_on_c, 0, 85, 0
2, 63000, Note_on_c, 0, 40, 0
2, 63000, Note_on_c, 0, 81, 0
2, 63000, Note_on_c, 0, 88, 0
2, 63037, Control_c, 0, 64, 0
2, 63047, Note_on_c, 0, 61, 80
2, 63047, Note_on_c, 0, 66, 80
2, 63047, Note_on_c, 0, 78, 80
2, 63049, Note_on_c, 0, 52, 80
2, 63049, Note_on_c, 0, 57, 80
2, 63052, Note_on_c, 0, 76, 0
2, 63067, Note_on_c, 0, 64, 0
2, 63105, Note_on_c, 0, 67, 80
2, 63105, Note_on_c, 0, 79, 80
2, 63108, Note_on_c, 0, 61, 0
2, 63108, Note_on_c, 0, 52, 0
2, 63108, Note_on_c, 0, 66, 0
2, 63108, Note_on_c, 0, 78, 0
2, 63108, Note_on_c, 0, 57, 0
2, 63159, Note_on_c, 0, 28, 80
2, 63159, Note_on_c, 0, 40, 80
2, 63159, Note_on_c, 0, 68, 80
2, 63159, Note_on_c, 0, 80, 80
2, 63164, Note_on_c, 0, 79, 0
2, 63164, Note_on_c, 0, 67, 0
2, 63202, Note_on_c, 0, 68, 0
2, 63202, Note_on_c, 0, 40, 0
2, 63202, Note_on_c, 0, 28, 0
2, 63212, Note_on_c, 0, 76, 80
2, 63212, Note_on_c, 0, 88, 80
2, 63216, Note_on_c, 0, 80, 0
2, 63265, Note_on_c, 0, 52, 80
2, 63265, Note_on_c, 0, 56, 80
2, 63265, Note_on_c, 0, 62, 80
2, 63265, Note_on_c, 0, 66, 80
2, 63265, Note_on_c, 0, 78, 80
2, 63268, Note_on_c, 0, 88, 0
2, 63271, Note_on_c, 0, 76, 0
2, 63320, Note_on_c, 0, 68, 80
2, 63320, Note_on_c, 0, 80, 80
2, 63325, Note_on_c, 0, 52, 0
2, 63325, Note_on_c, 0, 66, 0
2, 63325, Note_on_c, 0, 56, 0
2, 63325, Note_on_c, 0, 62, 0
2, 63325, Note_on_c, 0, 78, 0
2, 63363, Note_on_c, 0, 68, 0
2, 63371, Note_on_c, 0, 57, 80
2, 63371, Note_on_c, 0, 61, 80
2, 63371, Note_on_c, 0, 69, 80
2, 63371, Note_on_c, 0, 73, 80
2, 63371, Note_on_c, 0, 81, 80
2, 63376, Note_on_c, 0, 80, 0
2, 63385, Control_c, 0, 64, 127
2, 63403, Control_c, 0, 64, 0
2, 63415, Note_on_c, 0, 73, 0
2, 63415, Note_on_c, 0, 69, 0
2, 63415, Note_on_c, 0, 57, 0
2, 63415, Note_on_c, 0, 81, 0
2, 63476, Control_c, 0, 64, 127
2, 63476, Note_on_c, 0, 40, 80
2, 63476, Note_on_c, 0, 52, 80
2, 63480, Note_on_c, 0, 61, 0
2, 63490, Control_c, 0, 64, 0
2, 63527, Note_on_c, 0, 49, 80
2, 63531, Note_on_c, 0, 52, 0
2, 63539, Note_on_c, 0, 37, 80
2, 63544, Note_on_c, 0, 40, 0
2, 63577, Note_on_c, 0, 45, 80
2, 63577, Note_on_c, 0, 85, 80
2, 63580, Note_on_c, 0, 81, 80
2, 63580, Note_on_c, 0, 88, 80
2, 63580, Note_on_c, 0, 93, 80
2, 63583, Note_on_c, 0, 37, 0
2, 63583, Note_on_c, 0, 49, 0
2, 63591, Note_on_c, 0, 33, 80
2, 63761, Note_on_c, 0, 33, 0
2, 63761, Note_on_c, 0, 45, 0
2, 63766, Note_on_c, 0, 93, 0
2, 63775, Note_on_c, 0, 85, 0
2, 63775, Note_on_c, 0, 88, 0
2, 63775, Note_on_c, 0, 81, 0
2, 63775, End_track
3, 0, Start_track
3, 0, Title_t, "c/b Scott Joplin"
3, 0, End_track
4, 0, Start_track
4, 0, Title_t, "p/b Scott Joplin"
4, 0, End_track
5, 0, Start_track
5, 0, Title_t, "QRS # 197 (Connorized (1916)"
5, 0, End_track
6, 0, Start_track
6, 0, Title_t, "Scan of a player piano roll"
6, 0, End_track
7, 0, Start_track
7, 0, Title_t, "by Terry Smythe, Winnipeg, Canada"
7, 0, End_track
8, 0, Start_track
8, 1, Copyright_t, "___________________________________________________\012\012KUNSTDERFUGE.COM LARGE CLASSICAL MIDI COLLECTION\012ONCLASSICAL BY ALESSANDRO SIMONETTO, PROPRIETOR\012___________________________________________________\012\012! Attention: this file is under copyright !\012\012(c)onclassical, (nc)smythe, 2010\012___________________________________________________\012\012NO ONE MAY REPUBLISH THIS FILE WITHOUT PERMISSION\012COMMERCIAL USES OF THIS FILE IS STRICTLY PROHIBITED\012___________________________________________________\012\012Files & contributor's list: http://kunstderfuge.com/\012Terms and conditions: http://kunstderfuge.com/notes.htm"
8, 1, End_track
0, 0, End_of_file
