0, 0, Header, 1, 3, 384
1, 0, Start_track
1, 0, Title_t, "Something Doin'"
1, 0, Text_t, "/music_category: Piano_Roll\012"
1, 0, Text_t, "/title: Something Doin'\012"
1, 0, Text_t, "/subtitle: \012"
1, 0, Text_t, "/roll_type: 88n\012"
1, 0, Text_t, "/roll_manufacturer: QRS.\012"
1, 0, Text_t, "/roll_number: 197\012"
1, 0, Text_t, "/original roll #: 10278\012"
1, 0, Text_t, "/original manufacturer: Connorized\012"
1, 0, Text_t, "/performer: Joplin, Scott\012"
1, 0, Text_t, "/composer: Joplin, Scott\012"
1, 0, Text_t, "/lyricist: \012"
1, 0, Text_t, "/copyright: 1916\012"
1, 0, Text_t, "/scanned_by:  Mick Hamer\012"
1, 0, Text_t, "/scan_system:  Ampico Vorsetzer - Disklavier\012"
1, 0, Text_t, "/date_scanned: 2005\012"
1, 0, Text_t, "/owner: Mick Hamer\012"
1, 0, Text_t, " \012"
1, 0, Time_signature, 4, 2, 24, 8
1, 0, Key_signature, 0, "major"
1, 0, Tempo, 512821
1, 0, End_track
2, 0, Start_track
2, 0, Title_t, "Something Doin'"
2, 748, Control_c, 0, 64, 127
2, 1257, Control_c, 0, 64, 0
2, 1488, Note_on_c, 0, 65, 68
2, 1488, Note_on_c, 0, 53, 65
2, 1591, Note_on_c, 0, 67, 69
2, 1595, Note_on_c, 0, 55, 62
2, 1605, Note_on_c, 0, 53, 0
2, 1627, Note_on_c, 0, 65, 0
2, 1697, Note_on_c, 0, 67, 0
2, 1697, Note_on_c, 0, 57, 64
2, 1703, Note_on_c, 0, 55, 0
2, 1719, Note_on_c, 0, 69, 70
2, 1791, Control_c, 0, 64, 127
2, 1795, Note_on_c, 0, 65, 64
2, 1803, Note_on_c, 0, 69, 0
2, 1803, Note_on_c, 0, 77, 64
2, 1807, Note_on_c, 0, 57, 0
2, 1844, Control_c, 0, 64, 0
2, 1954, Note_on_c, 0, 77, 0
2, 2006, Note_on_c, 0, 76, 67
2, 2012, Note_on_c, 0, 65, 0
2, 2030, Note_on_c, 0, 64, 64
2, 2502, Note_on_c, 0, 64, 0
2, 2502, Note_on_c, 0, 76, 0
2, 2515, Note_on_c, 0, 74, 70
2, 2519, Note_on_c, 0, 62, 67
2, 2615, Note_on_c, 0, 73, 69
2, 2619, Note_on_c, 0, 61, 64
2, 2631, Note_on_c, 0, 62, 0
2, 2651, Note_on_c, 0, 74, 0
2, 2660, Control_c, 0, 64, 127
2, 2707, Control_c, 0, 64, 0
2, 2723, Note_on_c, 0, 61, 0
2, 2723, Note_on_c, 0, 74, 70
2, 2723, Note_on_c, 0, 62, 64
2, 2727, Note_on_c, 0, 73, 0
2, 2825, Note_on_c, 0, 70, 67
2, 2825, Note_on_c, 0, 58, 64
2, 2835, Note_on_c, 0, 74, 0
2, 2841, Note_on_c, 0, 62, 0
2, 3242, Note_on_c, 0, 58, 0
2, 3246, Note_on_c, 0, 70, 0
2, 3329, Note_on_c, 0, 70, 70
2, 3329, Note_on_c, 0, 58, 64
2, 3438, Note_on_c, 0, 69, 68
2, 3442, Note_on_c, 0, 58, 0
2, 3442, Control_c, 0, 64, 127
2, 3442, Note_on_c, 0, 57, 63
2, 3448, Note_on_c, 0, 70, 0
2, 3489, Control_c, 0, 64, 0
2, 3530, Note_on_c, 0, 70, 68
2, 3530, Note_on_c, 0, 58, 64
2, 3542, Note_on_c, 0, 57, 0
2, 3542, Note_on_c, 0, 69, 0
2, 3640, Note_on_c, 0, 67, 67
2, 3640, Note_on_c, 0, 55, 62
2, 3644, Note_on_c, 0, 70, 0
2, 3644, Note_on_c, 0, 58, 0
2, 3793, Note_on_c, 0, 67, 0
2, 3797, Note_on_c, 0, 55, 0
2, 3832, Note_on_c, 0, 53, 65
2, 3832, Note_on_c, 0, 69, 70
2, 3940, Note_on_c, 0, 70, 70
2, 3946, Note_on_c, 0, 52, 63
2, 3950, Note_on_c, 0, 69, 0
2, 3950, Note_on_c, 0, 53, 0
2, 4048, Note_on_c, 0, 71, 67
2, 4048, Note_on_c, 0, 50, 60
2, 4058, Note_on_c, 0, 70, 0
2, 4064, Note_on_c, 0, 52, 0
2, 4150, Note_on_c, 0, 48, 64
2, 4154, Note_on_c, 0, 72, 69
2, 4158, Note_on_c, 0, 50, 0
2, 4164, Note_on_c, 0, 71, 0
2, 4183, Control_c, 0, 64, 127
2, 4236, Control_c, 0, 64, 0
2, 4250, Note_on_c, 0, 72, 0
2, 4260, Note_on_c, 0, 48, 0
2, 4554, Note_on_c, 0, 48, 64
2, 4554, Note_on_c, 0, 76, 58
2, 4562, Note_on_c, 0, 84, 59
2, 4562, Note_on_c, 0, 72, 62
2, 4562, Note_on_c, 0, 79, 55
2, 4562, Note_on_c, 0, 36, 56
2, 4933, Note_on_c, 0, 72, 0
2, 4933, Note_on_c, 0, 84, 0
2, 4937, Note_on_c, 0, 79, 0
2, 4937, Note_on_c, 0, 76, 0
2, 4943, Note_on_c, 0, 48, 0
2, 4947, Note_on_c, 0, 36, 0
2, 4954, Note_on_c, 0, 69, 70
2, 4958, Note_on_c, 0, 53, 60
2, 4958, Note_on_c, 0, 57, 59
2, 4964, Note_on_c, 0, 41, 58
2, 5002, Control_c, 0, 64, 127
2, 5047, Control_c, 0, 64, 0
2, 5062, Note_on_c, 0, 60, 62
2, 5066, Note_on_c, 0, 57, 0
2, 5066, Note_on_c, 0, 69, 0
2, 5066, Note_on_c, 0, 53, 0
2, 5069, Note_on_c, 0, 72, 70
2, 5072, Note_on_c, 0, 41, 0
2, 5090, Note_on_c, 0, 60, 0
2, 5157, Note_on_c, 0, 65, 62
2, 5157, Note_on_c, 0, 60, 64
2, 5157, Note_on_c, 0, 57, 62
2, 5166, Note_on_c, 0, 77, 64
2, 5176, Note_on_c, 0, 72, 0
2, 5261, Note_on_c, 0, 81, 63
2, 5265, Note_on_c, 0, 57, 0
2, 5265, Note_on_c, 0, 77, 0
2, 5265, Note_on_c, 0, 69, 64
2, 5268, Note_on_c, 0, 65, 0
2, 5268, Note_on_c, 0, 60, 0
2, 5386, Note_on_c, 0, 48, 65
2, 5400, Note_on_c, 0, 36, 58
2, 5445, Note_on_c, 0, 81, 0
2, 5445, Note_on_c, 0, 69, 0
2, 5490, Note_on_c, 0, 65, 65
2, 5496, Note_on_c, 0, 77, 67
2, 5504, Note_on_c, 0, 36, 0
2, 5532, Note_on_c, 0, 48, 0
2, 5594, Note_on_c, 0, 60, 64
2, 5594, Note_on_c, 0, 72, 69
2, 5594, Note_on_c, 0, 57, 61
2, 5600, Note_on_c, 0, 77, 0
2, 5624, Note_on_c, 0, 57, 0
2, 5677, Note_on_c, 0, 60, 0
2, 5689, Note_on_c, 0, 57, 65
2, 5693, Note_on_c, 0, 69, 69
2, 5698, Note_on_c, 0, 72, 0
2, 5704, Note_on_c, 0, 65, 0
2, 5791, Control_c, 0, 64, 127
2, 5797, Note_on_c, 0, 69, 0
2, 5797, Note_on_c, 0, 48, 63
2, 5797, Note_on_c, 0, 64, 61
2, 5801, Note_on_c, 0, 57, 0
2, 5801, Note_on_c, 0, 76, 64
2, 5801, Note_on_c, 0, 72, 67
2, 5838, Control_c, 0, 64, 0
2, 5903, Note_on_c, 0, 64, 0
2, 5979, Note_on_c, 0, 72, 0
2, 5979, Note_on_c, 0, 76, 0
2, 5995, Note_on_c, 0, 58, 67
2, 5995, Note_on_c, 0, 70, 70
2, 5995, Note_on_c, 0, 60, 65
2, 6001, Note_on_c, 0, 74, 69
2, 6001, Note_on_c, 0, 64, 62
2, 6113, Note_on_c, 0, 64, 0
2, 6113, Note_on_c, 0, 58, 0
2, 6113, Note_on_c, 0, 60, 0
2, 6193, Note_on_c, 0, 48, 0
2, 6193, Note_on_c, 0, 70, 0
2, 6205, Note_on_c, 0, 53, 62
2, 6205, Note_on_c, 0, 69, 64
2, 6209, Note_on_c, 0, 60, 62
2, 6215, Note_on_c, 0, 72, 66
2, 6221, Note_on_c, 0, 74, 0
2, 6347, Note_on_c, 0, 60, 0
2, 6412, Note_on_c, 0, 65, 67
2, 6417, Note_on_c, 0, 57, 61
2, 6417, Note_on_c, 0, 60, 64
2, 6490, Note_on_c, 0, 72, 0
2, 6496, Note_on_c, 0, 69, 0
2, 6496, Note_on_c, 0, 53, 0
2, 6496, Note_on_c, 0, 57, 0
2, 6496, Note_on_c, 0, 60, 0
2, 6502, Note_on_c, 0, 65, 0
2, 6620, Note_on_c, 0, 82, 67
2, 6620, Note_on_c, 0, 70, 67
2, 6620, Note_on_c, 0, 55, 61
2, 6628, Note_on_c, 0, 43, 59
2, 6640, Control_c, 0, 64, 127
2, 6724, Note_on_c, 0, 55, 0
2, 6724, Note_on_c, 0, 76, 69
2, 6730, Note_on_c, 0, 43, 0
2, 6730, Note_on_c, 0, 70, 0
2, 6755, Note_on_c, 0, 82, 0
2, 6759, Control_c, 0, 64, 0
2, 6822, Note_on_c, 0, 58, 66
2, 6822, Note_on_c, 0, 79, 67
2, 6826, Note_on_c, 0, 60, 64
2, 6826, Note_on_c, 0, 64, 62
2, 6858, Note_on_c, 0, 76, 0
2, 6923, Note_on_c, 0, 70, 70
2, 6923, Note_on_c, 0, 82, 69
2, 6928, Note_on_c, 0, 60, 0
2, 6928, Note_on_c, 0, 64, 0
2, 6928, Note_on_c, 0, 58, 0
2, 6928, Note_on_c, 0, 79, 0
2, 7025, Note_on_c, 0, 55, 61
2, 7033, Note_on_c, 0, 43, 60
2, 7054, Note_on_c, 0, 82, 0
2, 7058, Note_on_c, 0, 70, 0
2, 7125, Note_on_c, 0, 79, 64
2, 7125, Note_on_c, 0, 76, 68
2, 7162, Note_on_c, 0, 55, 0
2, 7162, Note_on_c, 0, 43, 0
2, 7235, Note_on_c, 0, 56, 59
2, 7241, Note_on_c, 0, 79, 0
2, 7241, Note_on_c, 0, 76, 0
2, 7241, Note_on_c, 0, 83, 64
2, 7244, Note_on_c, 0, 71, 62
2, 7244, Note_on_c, 0, 44, 59
2, 7337, Note_on_c, 0, 83, 0
2, 7337, Note_on_c, 0, 56, 0
2, 7337, Note_on_c, 0, 72, 66
2, 7341, Note_on_c, 0, 84, 64
2, 7345, Note_on_c, 0, 71, 0
2, 7345, Note_on_c, 0, 44, 0
2, 7436, Note_on_c, 0, 57, 63
2, 7440, Note_on_c, 0, 72, 0
2, 7440, Note_on_c, 0, 84, 0
2, 7440, Note_on_c, 0, 45, 60
2, 7489, Control_c, 0, 64, 127
2, 7530, Control_c, 0, 64, 0
2, 7540, Note_on_c, 0, 72, 67
2, 7540, Note_on_c, 0, 84, 64
2, 7540, Note_on_c, 0, 46, 61
2, 7544, Note_on_c, 0, 57, 0
2, 7566, Note_on_c, 0, 58, 62
2, 7572, Note_on_c, 0, 45, 0
2, 7638, Note_on_c, 0, 81, 64
2, 7638, Note_on_c, 0, 48, 62
2, 7644, Note_on_c, 0, 84, 0
2, 7644, Note_on_c, 0, 72, 0
2, 7644, Note_on_c, 0, 60, 60
2, 7644, Note_on_c, 0, 69, 64
2, 7648, Note_on_c, 0, 58, 0
2, 7652, Note_on_c, 0, 46, 0
2, 7739, Note_on_c, 0, 65, 62
2, 7747, Note_on_c, 0, 81, 0
2, 7747, Note_on_c, 0, 69, 0
2, 7747, Note_on_c, 0, 77, 64
2, 7754, Note_on_c, 0, 60, 0
2, 7776, Note_on_c, 0, 48, 0
2, 7837, Note_on_c, 0, 74, 68
2, 7837, Note_on_c, 0, 58, 64
2, 7843, Note_on_c, 0, 77, 0
2, 7843, Note_on_c, 0, 46, 61
2, 7843, Note_on_c, 0, 62, 62
2, 7869, Note_on_c, 0, 65, 0
2, 7930, Note_on_c, 0, 73, 70
2, 7939, Note_on_c, 0, 61, 62
2, 7943, Note_on_c, 0, 58, 0
2, 7947, Note_on_c, 0, 62, 0
2, 7947, Note_on_c, 0, 46, 0
2, 7967, Note_on_c, 0, 74, 0
2, 8040, Note_on_c, 0, 61, 0
2, 8040, Note_on_c, 0, 73, 0
2, 8040, Note_on_c, 0, 72, 70
2, 8040, Note_on_c, 0, 60, 61
2, 8040, Note_on_c, 0, 57, 59
2, 8044, Note_on_c, 0, 45, 58
2, 8138, Note_on_c, 0, 70, 70
2, 8138, Note_on_c, 0, 58, 63
2, 8142, Note_on_c, 0, 57, 0
2, 8142, Note_on_c, 0, 72, 0
2, 8148, Note_on_c, 0, 45, 0
2, 8152, Note_on_c, 0, 60, 0
2, 8239, Note_on_c, 0, 69, 70
2, 8242, Note_on_c, 0, 57, 59
2, 8242, Note_on_c, 0, 53, 60
2, 8248, Note_on_c, 0, 58, 0
2, 8248, Note_on_c, 0, 41, 59
2, 8254, Note_on_c, 0, 70, 0
2, 8303, Control_c, 0, 64, 127
2, 8345, Note_on_c, 0, 60, 64
2, 8345, Note_on_c, 0, 72, 70
2, 8349, Note_on_c, 0, 53, 0
2, 8349, Note_on_c, 0, 57, 0
2, 8349, Note_on_c, 0, 69, 0
2, 8353, Note_on_c, 0, 41, 0
2, 8363, Control_c, 0, 64, 0
2, 8376, Note_on_c, 0, 60, 0
2, 8445, Note_on_c, 0, 65, 62
2, 8449, Note_on_c, 0, 60, 64
2, 8449, Note_on_c, 0, 57, 60
2, 8453, Note_on_c, 0, 72, 0
2, 8453, Note_on_c, 0, 77, 64
2, 8551, Note_on_c, 0, 81, 65
2, 8551, Note_on_c, 0, 69, 64
2, 8555, Note_on_c, 0, 77, 0
2, 8559, Note_on_c, 0, 57, 0
2, 8563, Note_on_c, 0, 65, 0
2, 8563, Note_on_c, 0, 60, 0
2, 8656, Note_on_c, 0, 48, 64
2, 8668, Note_on_c, 0, 36, 57
2, 8685, Note_on_c, 0, 69, 0
2, 8685, Note_on_c, 0, 81, 0
2, 8750, Note_on_c, 0, 65, 65
2, 8766, Note_on_c, 0, 48, 0
2, 8766, Note_on_c, 0, 77, 67
2, 8770, Note_on_c, 0, 36, 0
2, 8859, Note_on_c, 0, 60, 64
2, 8859, Note_on_c, 0, 57, 61
2, 8865, Note_on_c, 0, 72, 71
2, 8884, Note_on_c, 0, 57, 0
2, 8884, Note_on_c, 0, 77, 0
2, 8961, Note_on_c, 0, 72, 0
2, 8961, Note_on_c, 0, 69, 70
2, 8965, Note_on_c, 0, 57, 58
2, 8971, Note_on_c, 0, 60, 0
2, 8993, Note_on_c, 0, 65, 0
2, 9065, Note_on_c, 0, 64, 60
2, 9065, Note_on_c, 0, 48, 62
2, 9065, Note_on_c, 0, 76, 65
2, 9069, Note_on_c, 0, 69, 0
2, 9069, Note_on_c, 0, 57, 0
2, 9069, Note_on_c, 0, 72, 68
2, 9083, Control_c, 0, 64, 127
2, 9138, Control_c, 0, 64, 0
2, 9166, Note_on_c, 0, 72, 0
2, 9172, Note_on_c, 0, 76, 0
2, 9172, Note_on_c, 0, 64, 0
2, 9268, Note_on_c, 0, 70, 67
2, 9268, Note_on_c, 0, 64, 62
2, 9268, Note_on_c, 0, 74, 68
2, 9268, Note_on_c, 0, 60, 65
2, 9276, Note_on_c, 0, 62, 64
2, 9377, Note_on_c, 0, 64, 0
2, 9381, Note_on_c, 0, 70, 0
2, 9381, Note_on_c, 0, 60, 0
2, 9381, Note_on_c, 0, 62, 0
2, 9404, Note_on_c, 0, 74, 0
2, 9475, Note_on_c, 0, 60, 63
2, 9475, Note_on_c, 0, 53, 62
2, 9475, Note_on_c, 0, 69, 66
2, 9481, Note_on_c, 0, 72, 68
2, 9511, Note_on_c, 0, 48, 0
2, 9605, Note_on_c, 0, 69, 0
2, 9605, Note_on_c, 0, 72, 0
2, 9609, Note_on_c, 0, 53, 0
2, 9609, Note_on_c, 0, 60, 0
2, 9676, Note_on_c, 0, 81, 67
2, 9676, Note_on_c, 0, 63, 60
2, 9680, Note_on_c, 0, 69, 69
2, 9680, Note_on_c, 0, 57, 59
2, 9684, Note_on_c, 0, 60, 60
2, 9694, Note_on_c, 0, 54, 55
2, 9775, Control_c, 0, 64, 127
2, 9787, Note_on_c, 0, 57, 0
2, 9787, Note_on_c, 0, 63, 0
2, 9787, Note_on_c, 0, 81, 0
2, 9790, Note_on_c, 0, 69, 0
2, 9790, Note_on_c, 0, 54, 0
2, 9794, Note_on_c, 0, 60, 0
2, 9889, Note_on_c, 0, 60, 61
2, 9889, Note_on_c, 0, 55, 57
2, 9889, Note_on_c, 0, 67, 64
2, 9889, Note_on_c, 0, 79, 62
2, 9895, Note_on_c, 0, 64, 58
2, 9901, Control_c, 0, 64, 0
2, 9990, Note_on_c, 0, 67, 0
2, 9990, Note_on_c, 0, 72, 71
2, 9993, Note_on_c, 0, 79, 0
2, 10088, Note_on_c, 0, 76, 71
2, 10094, Note_on_c, 0, 72, 0
2, 10195, Note_on_c, 0, 81, 55
2, 10195, Note_on_c, 0, 74, 54
2, 10195, Note_on_c, 0, 78, 52
2, 10200, Note_on_c, 0, 76, 0
2, 10200, Note_on_c, 0, 69, 53
2, 10204, Note_on_c, 0, 72, 55
2, 10254, Note_on_c, 0, 60, 0
2, 10277, Note_on_c, 0, 64, 0
2, 10277, Note_on_c, 0, 55, 0
2, 10299, Note_on_c, 0, 72, 0
2, 10299, Note_on_c, 0, 81, 0
2, 10303, Note_on_c, 0, 78, 0
2, 10303, Note_on_c, 0, 69, 0
2, 10303, Note_on_c, 0, 50, 58
2, 10303, Note_on_c, 0, 62, 64
2, 10331, Note_on_c, 0, 74, 0
2, 10402, Note_on_c, 0, 81, 56
2, 10405, Note_on_c, 0, 78, 54
2, 10405, Note_on_c, 0, 69, 54
2, 10409, Note_on_c, 0, 50, 0
2, 10409, Note_on_c, 0, 74, 60
2, 10415, Note_on_c, 0, 62, 0
2, 10415, Note_on_c, 0, 72, 59
2, 10457, Note_on_c, 0, 74, 0
2, 10500, Note_on_c, 0, 55, 60
2, 10504, Note_on_c, 0, 69, 0
2, 10504, Note_on_c, 0, 81, 0
2, 10504, Note_on_c, 0, 74, 41
2, 10508, Note_on_c, 0, 43, 59
2, 10508, Note_on_c, 0, 83, 55
2, 10508, Note_on_c, 0, 71, 51
2, 10512, Note_on_c, 0, 78, 0
2, 10512, Note_on_c, 0, 72, 0
2, 10516, Note_on_c, 0, 77, 53
2, 10609, Note_on_c, 0, 77, 0
2, 10609, Note_on_c, 0, 55, 0
2, 10609, Note_on_c, 0, 43, 0
2, 10613, Note_on_c, 0, 71, 0
2, 10628, Note_on_c, 0, 83, 0
2, 10636, Note_on_c, 0, 74, 0
2, 10699, Control_c, 0, 64, 127
2, 10705, Note_on_c, 0, 60, 64
2, 10705, Note_on_c, 0, 48, 63
2, 10711, Note_on_c, 0, 76, 62
2, 10711, Note_on_c, 0, 72, 64
2, 10711, Note_on_c, 0, 84, 61
2, 10753, Control_c, 0, 64, 0
2, 10812, Note_on_c, 0, 59, 58
2, 10818, Note_on_c, 0, 60, 0
2, 10818, Note_on_c, 0, 47, 58
2, 10822, Note_on_c, 0, 48, 0
2, 10910, Note_on_c, 0, 58, 67
2, 10914, Note_on_c, 0, 59, 0
2, 10914, Note_on_c, 0, 46, 65
2, 10918, Note_on_c, 0, 47, 0
2, 11009, Note_on_c, 0, 48, 64
2, 11009, Note_on_c, 0, 60, 63
2, 11017, Note_on_c, 0, 58, 0
2, 11045, Note_on_c, 0, 46, 0
2, 11116, Note_on_c, 0, 57, 60
2, 11116, Note_on_c, 0, 45, 59
2, 11121, Note_on_c, 0, 48, 0
2, 11147, Note_on_c, 0, 60, 0
2, 11173, Note_on_c, 0, 84, 0
2, 11218, Note_on_c, 0, 57, 0
2, 11222, Note_on_c, 0, 45, 0
2, 11222, Note_on_c, 0, 44, 59
2, 11240, Note_on_c, 0, 84, 71
2, 11244, Note_on_c, 0, 56, 60
2, 11321, Note_on_c, 0, 56, 0
2, 11321, Note_on_c, 0, 55, 62
2, 11329, Note_on_c, 0, 44, 0
2, 11342, Note_on_c, 0, 84, 0
2, 11352, Note_on_c, 0, 43, 61
2, 11368, Note_on_c, 0, 72, 0
2, 11372, Note_on_c, 0, 76, 0
2, 11423, Note_on_c, 0, 55, 0
2, 11423, Note_on_c, 0, 43, 0
2, 11423, Note_on_c, 0, 42, 57
2, 11427, Note_on_c, 0, 54, 60
2, 11471, Control_c, 0, 64, 127
2, 11520, Note_on_c, 0, 54, 0
2, 11520, Note_on_c, 0, 69, 69
2, 11520, Note_on_c, 0, 57, 59
2, 11520, Note_on_c, 0, 53, 60
2, 11528, Note_on_c, 0, 41, 58
2, 11554, Note_on_c, 0, 42, 0
2, 11591, Control_c, 0, 64, 0
2, 11619, Note_on_c, 0, 60, 63
2, 11619, Note_on_c, 0, 72, 71
2, 11625, Note_on_c, 0, 69, 0
2, 11625, Note_on_c, 0, 57, 0
2, 11629, Note_on_c, 0, 41, 0
2, 11629, Note_on_c, 0, 53, 0
2, 11646, Note_on_c, 0, 60, 0
2, 11723, Note_on_c, 0, 65, 67
2, 11723, Note_on_c, 0, 57, 66
2, 11727, Note_on_c, 0, 72, 0
2, 11727, Note_on_c, 0, 60, 70
2, 11731, Note_on_c, 0, 77, 67
2, 11808, Note_on_c, 0, 77, 0
2, 11808, Note_on_c, 0, 65, 0
2, 11808, Note_on_c, 0, 57, 0
2, 11814, Note_on_c, 0, 60, 0
2, 11826, Note_on_c, 0, 81, 67
2, 11830, Note_on_c, 0, 69, 67
2, 11927, Note_on_c, 0, 48, 64
2, 11939, Note_on_c, 0, 36, 57
2, 11980, Note_on_c, 0, 81, 0
2, 11984, Note_on_c, 0, 69, 0
2, 12027, Note_on_c, 0, 65, 65
2, 12037, Note_on_c, 0, 77, 67
2, 12041, Note_on_c, 0, 48, 0
2, 12041, Note_on_c, 0, 36, 0
2, 12126, Note_on_c, 0, 60, 64
2, 12134, Note_on_c, 0, 57, 60
2, 12134, Note_on_c, 0, 72, 71
2, 12160, Note_on_c, 0, 57, 0
2, 12160, Note_on_c, 0, 77, 0
2, 12229, Note_on_c, 0, 57, 61
2, 12229, Note_on_c, 0, 69, 70
2, 12237, Note_on_c, 0, 72, 0
2, 12243, Note_on_c, 0, 60, 0
2, 12264, Note_on_c, 0, 65, 0
2, 12330, Note_on_c, 0, 64, 60
2, 12333, Note_on_c, 0, 48, 61
2, 12337, Note_on_c, 0, 72, 67
2, 12337, Note_on_c, 0, 76, 66
2, 12343, Note_on_c, 0, 69, 0
2, 12343, Note_on_c, 0, 57, 0
2, 12347, Note_on_c, 0, 36, 55
2, 12397, Control_c, 0, 64, 127
2, 12444, Control_c, 0, 64, 0
2, 12464, Note_on_c, 0, 72, 0
2, 12468, Note_on_c, 0, 64, 0
2, 12468, Note_on_c, 0, 76, 0
2, 12472, Note_on_c, 0, 48, 0
2, 12472, Note_on_c, 0, 36, 0
2, 12537, Note_on_c, 0, 74, 66
2, 12537, Note_on_c, 0, 60, 60
2, 12537, Note_on_c, 0, 70, 66
2, 12541, Note_on_c, 0, 58, 60
2, 12545, Note_on_c, 0, 64, 59
2, 12545, Note_on_c, 0, 62, 59
2, 12622, Note_on_c, 0, 64, 0
2, 12622, Note_on_c, 0, 58, 0
2, 12622, Note_on_c, 0, 70, 0
2, 12622, Note_on_c, 0, 74, 0
2, 12622, Note_on_c, 0, 60, 0
2, 12630, Note_on_c, 0, 62, 0
2, 12748, Note_on_c, 0, 53, 61
2, 12748, Note_on_c, 0, 60, 63
2, 12748, Note_on_c, 0, 69, 66
2, 12754, Note_on_c, 0, 72, 69
2, 12754, Note_on_c, 0, 41, 59
2, 12863, Note_on_c, 0, 60, 0
2, 12948, Note_on_c, 0, 65, 67
2, 12952, Note_on_c, 0, 60, 64
2, 12956, Note_on_c, 0, 57, 60
2, 13057, Note_on_c, 0, 72, 0
2, 13057, Note_on_c, 0, 69, 0
2, 13061, Note_on_c, 0, 60, 0
2, 13061, Note_on_c, 0, 53, 0
2, 13061, Note_on_c, 0, 65, 0
2, 13061, Note_on_c, 0, 57, 0
2, 13066, Note_on_c, 0, 41, 0
2, 13153, Note_on_c, 0, 70, 67
2, 13153, Note_on_c, 0, 82, 67
2, 13157, Note_on_c, 0, 55, 60
2, 13163, Note_on_c, 0, 43, 60
2, 13256, Note_on_c, 0, 76, 69
2, 13262, Note_on_c, 0, 55, 0
2, 13262, Note_on_c, 0, 82, 0
2, 13266, Note_on_c, 0, 70, 0
2, 13266, Note_on_c, 0, 43, 0
2, 13359, Note_on_c, 0, 60, 63
2, 13359, Note_on_c, 0, 79, 66
2, 13359, Note_on_c, 0, 58, 62
2, 13367, Note_on_c, 0, 76, 0
2, 13367, Note_on_c, 0, 64, 60
2, 13468, Note_on_c, 0, 64, 0
2, 13468, Note_on_c, 0, 79, 0
2, 13468, Note_on_c, 0, 82, 67
2, 13468, Note_on_c, 0, 70, 67
2, 13472, Note_on_c, 0, 60, 0
2, 13472, Note_on_c, 0, 58, 0
2, 13571, Note_on_c, 0, 55, 61
2, 13578, Note_on_c, 0, 43, 60
2, 13669, Note_on_c, 0, 79, 66
2, 13675, Note_on_c, 0, 43, 0
2, 13675, Note_on_c, 0, 55, 0
2, 13675, Note_on_c, 0, 82, 0
2, 13679, Note_on_c, 0, 70, 0
2, 13697, Note_on_c, 0, 76, 71
2, 13772, Note_on_c, 0, 56, 60
2, 13772, Note_on_c, 0, 83, 63
2, 13776, Note_on_c, 0, 79, 0
2, 13780, Note_on_c, 0, 76, 0
2, 13780, Note_on_c, 0, 71, 61
2, 13784, Note_on_c, 0, 44, 60
2, 13877, Note_on_c, 0, 56, 0
2, 13877, Note_on_c, 0, 83, 0
2, 13883, Note_on_c, 0, 71, 0
2, 13883, Note_on_c, 0, 44, 0
2, 13883, Note_on_c, 0, 84, 64
2, 13883, Note_on_c, 0, 72, 67
2, 13980, Note_on_c, 0, 72, 0
2, 13980, Note_on_c, 0, 84, 0
2, 13980, Note_on_c, 0, 57, 62
2, 13984, Note_on_c, 0, 45, 60
2, 14021, Control_c, 0, 64, 127
2, 14081, Control_c, 0, 64, 0
2, 14081, Note_on_c, 0, 58, 62
2, 14085, Note_on_c, 0, 57, 0
2, 14085, Note_on_c, 0, 46, 60
2, 14085, Note_on_c, 0, 72, 68
2, 14085, Note_on_c, 0, 84, 65
2, 14089, Note_on_c, 0, 45, 0
2, 14178, Note_on_c, 0, 72, 0
2, 14178, Note_on_c, 0, 84, 0
2, 14178, Note_on_c, 0, 81, 64
2, 14178, Note_on_c, 0, 48, 61
2, 14182, Note_on_c, 0, 58, 0
2, 14182, Note_on_c, 0, 69, 64
2, 14182, Note_on_c, 0, 60, 60
2, 14188, Note_on_c, 0, 46, 0
2, 14277, Note_on_c, 0, 65, 62
2, 14277, Note_on_c, 0, 77, 62
2, 14281, Note_on_c, 0, 69, 0
2, 14281, Note_on_c, 0, 81, 0
2, 14281, Note_on_c, 0, 59, 60
2, 14287, Note_on_c, 0, 47, 59
2, 14290, Note_on_c, 0, 60, 0
2, 14290, Note_on_c, 0, 48, 0
2, 14358, Note_on_c, 0, 59, 0
2, 14379, Note_on_c, 0, 58, 62
2, 14379, Note_on_c, 0, 74, 68
2, 14385, Note_on_c, 0, 77, 0
2, 14385, Note_on_c, 0, 46, 60
2, 14385, Note_on_c, 0, 62, 61
2, 14389, Note_on_c, 0, 47, 0
2, 14411, Note_on_c, 0, 65, 0
2, 14478, Note_on_c, 0, 73, 69
2, 14486, Note_on_c, 0, 61, 62
2, 14490, Note_on_c, 0, 74, 0
2, 14490, Note_on_c, 0, 46, 0
2, 14490, Note_on_c, 0, 58, 0
2, 14494, Note_on_c, 0, 62, 0
2, 14579, Note_on_c, 0, 72, 71
2, 14579, Note_on_c, 0, 60, 62
2, 14583, Note_on_c, 0, 57, 59
2, 14583, Note_on_c, 0, 45, 58
2, 14587, Note_on_c, 0, 73, 0
2, 14607, Note_on_c, 0, 61, 0
2, 14704, Note_on_c, 0, 72, 0
2, 14708, Note_on_c, 0, 60, 0
2, 14708, Note_on_c, 0, 57, 0
2, 14708, Note_on_c, 0, 45, 0
2, 14755, Control_c, 0, 64, 127
2, 14777, Note_on_c, 0, 58, 64
2, 14777, Note_on_c, 0, 74, 67
2, 14785, Note_on_c, 0, 86, 63
2, 14785, Note_on_c, 0, 46, 61
2, 14797, Control_c, 0, 64, 0
2, 14886, Note_on_c, 0, 86, 0
2, 14886, Note_on_c, 0, 82, 66
2, 14890, Note_on_c, 0, 58, 0
2, 14890, Note_on_c, 0, 46, 0
2, 14890, Note_on_c, 0, 74, 0
2, 14983, Note_on_c, 0, 58, 68
2, 14983, Note_on_c, 0, 67, 68
2, 14987, Note_on_c, 0, 84, 69
2, 14991, Note_on_c, 0, 62, 67
2, 15015, Note_on_c, 0, 82, 0
2, 15086, Note_on_c, 0, 84, 0
2, 15086, Note_on_c, 0, 88, 65
2, 15092, Note_on_c, 0, 58, 0
2, 15092, Note_on_c, 0, 76, 67
2, 15096, Note_on_c, 0, 62, 0
2, 15114, Note_on_c, 0, 67, 0
2, 15183, Note_on_c, 0, 58, 64
2, 15193, Note_on_c, 0, 46, 62
2, 15288, Note_on_c, 0, 82, 69
2, 15296, Note_on_c, 0, 58, 0
2, 15296, Note_on_c, 0, 88, 0
2, 15300, Note_on_c, 0, 46, 0
2, 15320, Note_on_c, 0, 76, 0
2, 15393, Note_on_c, 0, 74, 66
2, 15393, Note_on_c, 0, 56, 60
2, 15397, Note_on_c, 0, 82, 0
2, 15401, Note_on_c, 0, 86, 63
2, 15405, Note_on_c, 0, 44, 60
2, 15500, Note_on_c, 0, 56, 0
2, 15506, Note_on_c, 0, 44, 0
2, 15522, Note_on_c, 0, 86, 0
2, 15553, Note_on_c, 0, 74, 0
2, 15595, Note_on_c, 0, 84, 67
2, 15595, Note_on_c, 0, 57, 62
2, 15601, Note_on_c, 0, 72, 68
2, 15605, Note_on_c, 0, 45, 60
2, 15720, Note_on_c, 0, 81, 65
2, 15726, Note_on_c, 0, 72, 0
2, 15726, Note_on_c, 0, 84, 0
2, 15726, Note_on_c, 0, 57, 0
2, 15734, Note_on_c, 0, 77, 64
2, 15795, Note_on_c, 0, 65, 67
2, 15801, Note_on_c, 0, 60, 62
2, 15805, Note_on_c, 0, 57, 61
2, 15825, Note_on_c, 0, 77, 0
2, 15825, Note_on_c, 0, 81, 0
2, 15829, Note_on_c, 0, 74, 64
2, 15837, Note_on_c, 0, 86, 63
2, 15908, Note_on_c, 0, 86, 0
2, 15908, Note_on_c, 0, 57, 0
2, 15908, Note_on_c, 0, 65, 0
2, 15908, Note_on_c, 0, 84, 62
2, 15912, Note_on_c, 0, 74, 0
2, 15912, Note_on_c, 0, 60, 0
2, 15912, Note_on_c, 0, 72, 64
2, 15999, Note_on_c, 0, 65, 66
2, 16003, Note_on_c, 0, 57, 61
2, 16007, Note_on_c, 0, 60, 62
2, 16080, Note_on_c, 0, 72, 0
2, 16080, Note_on_c, 0, 84, 0
2, 16104, Note_on_c, 0, 81, 67
2, 16108, Note_on_c, 0, 69, 66
2, 16116, Note_on_c, 0, 45, 0
2, 16138, Note_on_c, 0, 65, 0
2, 16211, Note_on_c, 0, 65, 65
2, 16215, Note_on_c, 0, 81, 0
2, 16215, Note_on_c, 0, 57, 0
2, 16215, Note_on_c, 0, 69, 0
2, 16219, Note_on_c, 0, 60, 0
2, 16219, Note_on_c, 0, 77, 64
2, 16308, Note_on_c, 0, 66, 68
2, 16318, Note_on_c, 0, 77, 0
2, 16318, Note_on_c, 0, 65, 0
2, 16318, Note_on_c, 0, 54, 62
2, 16407, Note_on_c, 0, 67, 67
2, 16411, Note_on_c, 0, 48, 62
2, 16411, Note_on_c, 0, 55, 58
2, 16417, Note_on_c, 0, 54, 0
2, 16417, Note_on_c, 0, 66, 0
2, 16425, Note_on_c, 0, 36, 55
2, 16437, Control_c, 0, 64, 127
2, 16479, Control_c, 0, 64, 0
2, 16512, Note_on_c, 0, 67, 0
2, 16512, Note_on_c, 0, 60, 63
2, 16518, Note_on_c, 0, 55, 0
2, 16518, Note_on_c, 0, 72, 70
2, 16522, Note_on_c, 0, 36, 0
2, 16522, Note_on_c, 0, 48, 0
2, 16542, Note_on_c, 0, 60, 0
2, 16611, Note_on_c, 0, 58, 65
2, 16615, Note_on_c, 0, 60, 66
2, 16619, Note_on_c, 0, 64, 60
2, 16697, Note_on_c, 0, 72, 0
2, 16710, Note_on_c, 0, 66, 69
2, 16722, Note_on_c, 0, 58, 0
2, 16722, Note_on_c, 0, 64, 0
2, 16722, Note_on_c, 0, 54, 61
2, 16728, Note_on_c, 0, 60, 0
2, 16814, Note_on_c, 0, 67, 67
2, 16814, Note_on_c, 0, 52, 60
2, 16820, Note_on_c, 0, 54, 0
2, 16820, Note_on_c, 0, 55, 58
2, 16820, Note_on_c, 0, 40, 57
2, 16824, Note_on_c, 0, 66, 0
2, 16915, Note_on_c, 0, 70, 67
2, 16919, Note_on_c, 0, 79, 63
2, 16927, Note_on_c, 0, 52, 0
2, 16927, Note_on_c, 0, 40, 0
2, 17018, Note_on_c, 0, 58, 64
2, 17018, Note_on_c, 0, 60, 64
2, 17075, Note_on_c, 0, 67, 0
2, 17075, Note_on_c, 0, 79, 0
2, 17079, Note_on_c, 0, 70, 0
2, 17125, Note_on_c, 0, 65, 60
2, 17129, Note_on_c, 0, 55, 0
2, 17129, Note_on_c, 0, 58, 0
2, 17129, Note_on_c, 0, 60, 0
2, 17135, Note_on_c, 0, 77, 59
2, 17135, Note_on_c, 0, 72, 62
2, 17157, Note_on_c, 0, 69, 66
2, 17228, Note_on_c, 0, 53, 59
2, 17232, Note_on_c, 0, 60, 58
2, 17232, Note_on_c, 0, 57, 58
2, 17236, Note_on_c, 0, 41, 56
2, 17274, Control_c, 0, 64, 127
2, 17333, Note_on_c, 0, 53, 0
2, 17333, Note_on_c, 0, 47, 57
2, 17333, Note_on_c, 0, 35, 55
2, 17341, Note_on_c, 0, 41, 0
2, 17395, Control_c, 0, 64, 0
2, 17428, Note_on_c, 0, 48, 62
2, 17432, Note_on_c, 0, 47, 0
2, 17438, Note_on_c, 0, 35, 0
2, 17442, Note_on_c, 0, 36, 55
2, 17536, Note_on_c, 0, 49, 64
2, 17536, Note_on_c, 0, 37, 64
2, 17541, Note_on_c, 0, 48, 0
2, 17545, Note_on_c, 0, 36, 0
2, 17641, Note_on_c, 0, 49, 0
2, 17641, Note_on_c, 0, 57, 0
2, 17641, Note_on_c, 0, 60, 0
2, 17641, Note_on_c, 0, 50, 56
2, 17649, Note_on_c, 0, 37, 0
2, 17649, Note_on_c, 0, 38, 57
2, 17736, Note_on_c, 0, 72, 0
2, 17736, Note_on_c, 0, 69, 0
2, 17736, Note_on_c, 0, 77, 0
2, 17736, Note_on_c, 0, 51, 60
2, 17740, Note_on_c, 0, 65, 0
2, 17740, Note_on_c, 0, 39, 58
2, 17744, Note_on_c, 0, 38, 0
2, 17744, Note_on_c, 0, 50, 0
2, 17831, Note_on_c, 0, 76, 70
2, 17835, Note_on_c, 0, 64, 59
2, 17835, Note_on_c, 0, 52, 59
2, 17835, Note_on_c, 0, 40, 57
2, 17847, Note_on_c, 0, 39, 0
2, 17863, Note_on_c, 0, 51, 0
2, 17881, Note_on_c, 0, 65, 64
2, 17885, Note_on_c, 0, 77, 65
2, 17928, Note_on_c, 0, 68, 64
2, 17928, Note_on_c, 0, 80, 64
2, 17934, Note_on_c, 0, 56, 56
2, 17940, Note_on_c, 0, 52, 0
2, 17940, Note_on_c, 0, 64, 0
2, 17940, Note_on_c, 0, 76, 0
2, 17946, Note_on_c, 0, 40, 0
2, 17946, Note_on_c, 0, 44, 58
2, 18010, Note_on_c, 0, 77, 0
2, 18016, Note_on_c, 0, 65, 0
2, 18032, Note_on_c, 0, 81, 64
2, 18038, Note_on_c, 0, 68, 0
2, 18038, Note_on_c, 0, 56, 0
2, 18038, Note_on_c, 0, 53, 61
2, 18038, Note_on_c, 0, 69, 64
2, 18041, Note_on_c, 0, 80, 0
2, 18041, Note_on_c, 0, 41, 59
2, 18045, Note_on_c, 0, 44, 0
2, 18105, Control_c, 0, 64, 127
2, 18139, Note_on_c, 0, 69, 0
2, 18139, Note_on_c, 0, 81, 0
2, 18139, Note_on_c, 0, 84, 63
2, 18145, Note_on_c, 0, 72, 67
2, 18149, Control_c, 0, 64, 0
2, 18234, Note_on_c, 0, 72, 0
2, 18234, Note_on_c, 0, 84, 0
2, 18234, Note_on_c, 0, 65, 57
2, 18238, Note_on_c, 0, 60, 61
2, 18238, Note_on_c, 0, 57, 60
2, 18242, Note_on_c, 0, 89, 60
2, 18242, Note_on_c, 0, 77, 59
2, 18335, Note_on_c, 0, 81, 66
2, 18339, Note_on_c, 0, 77, 0
2, 18339, Note_on_c, 0, 57, 0
2, 18339, Note_on_c, 0, 93, 64
2, 18343, Note_on_c, 0, 60, 0
2, 18343, Note_on_c, 0, 65, 0
2, 18343, Note_on_c, 0, 89, 0
2, 18442, Note_on_c, 0, 48, 63
2, 18448, Note_on_c, 0, 53, 0
2, 18454, Note_on_c, 0, 41, 0
2, 18454, Note_on_c, 0, 36, 56
2, 18494, Note_on_c, 0, 81, 0
2, 18504, Note_on_c, 0, 93, 0
2, 18544, Note_on_c, 0, 89, 68
2, 18544, Note_on_c, 0, 77, 67
2, 18558, Note_on_c, 0, 48, 0
2, 18583, Note_on_c, 0, 36, 0
2, 18647, Note_on_c, 0, 65, 58
2, 18647, Note_on_c, 0, 84, 59
2, 18647, Note_on_c, 0, 60, 63
2, 18647, Note_on_c, 0, 57, 61
2, 18651, Note_on_c, 0, 77, 0
2, 18655, Note_on_c, 0, 89, 0
2, 18655, Note_on_c, 0, 72, 63
2, 18742, Note_on_c, 0, 81, 65
2, 18748, Note_on_c, 0, 72, 0
2, 18748, Note_on_c, 0, 84, 0
2, 18748, Note_on_c, 0, 57, 0
2, 18748, Note_on_c, 0, 69, 64
2, 18754, Note_on_c, 0, 65, 0
2, 18758, Note_on_c, 0, 60, 0
2, 18844, Note_on_c, 0, 48, 64
2, 18850, Note_on_c, 0, 81, 0
2, 18850, Note_on_c, 0, 69, 0
2, 18850, Note_on_c, 0, 84, 60
2, 18850, Note_on_c, 0, 88, 62
2, 18850, Note_on_c, 0, 76, 61
2, 18856, Note_on_c, 0, 36, 57
2, 18867, Control_c, 0, 64, 127
2, 18921, Control_c, 0, 64, 0
2, 19001, Note_on_c, 0, 88, 0
2, 19001, Note_on_c, 0, 84, 0
2, 19005, Note_on_c, 0, 76, 0
2, 19046, Note_on_c, 0, 58, 61
2, 19046, Note_on_c, 0, 82, 63
2, 19046, Note_on_c, 0, 60, 60
2, 19046, Note_on_c, 0, 64, 58
2, 19046, Note_on_c, 0, 74, 61
2, 19052, Note_on_c, 0, 86, 57
2, 19191, Note_on_c, 0, 86, 0
2, 19191, Note_on_c, 0, 82, 0
2, 19197, Note_on_c, 0, 74, 0
2, 19201, Note_on_c, 0, 48, 0
2, 19205, Note_on_c, 0, 36, 0
2, 19243, Note_on_c, 0, 81, 62
2, 19243, Note_on_c, 0, 53, 61
2, 19249, Note_on_c, 0, 84, 63
2, 19249, Note_on_c, 0, 72, 64
2, 19249, Note_on_c, 0, 41, 59
2, 19326, Note_on_c, 0, 58, 0
2, 19326, Note_on_c, 0, 64, 0
2, 19330, Note_on_c, 0, 60, 0
2, 19442, Note_on_c, 0, 65, 66
2, 19448, Note_on_c, 0, 57, 60
2, 19448, Note_on_c, 0, 60, 63
2, 19577, Note_on_c, 0, 72, 0
2, 19577, Note_on_c, 0, 81, 0
2, 19577, Note_on_c, 0, 84, 0
2, 19603, Note_on_c, 0, 53, 0
2, 19613, Note_on_c, 0, 41, 0
2, 19638, Note_on_c, 0, 94, 70
2, 19646, Note_on_c, 0, 82, 67
2, 19652, Note_on_c, 0, 55, 59
2, 19660, Note_on_c, 0, 43, 58
2, 19708, Note_on_c, 0, 65, 0
2, 19708, Note_on_c, 0, 57, 0
2, 19712, Note_on_c, 0, 60, 0
2, 19732, Control_c, 0, 64, 127
2, 19758, Note_on_c, 0, 55, 0
2, 19758, Note_on_c, 0, 88, 69
2, 19764, Note_on_c, 0, 43, 0
2, 19779, Note_on_c, 0, 94, 0
2, 19779, Control_c, 0, 64, 0
2, 19783, Note_on_c, 0, 82, 0
2, 19853, Note_on_c, 0, 91, 68
2, 19853, Note_on_c, 0, 60, 63
2, 19857, Note_on_c, 0, 58, 63
2, 19863, Note_on_c, 0, 64, 59
2, 19883, Note_on_c, 0, 88, 0
2, 19948, Note_on_c, 0, 94, 71
2, 19956, Note_on_c, 0, 82, 68
2, 19964, Note_on_c, 0, 58, 0
2, 19964, Note_on_c, 0, 64, 0
2, 19964, Note_on_c, 0, 60, 0
2, 20058, Note_on_c, 0, 55, 61
2, 20064, Note_on_c, 0, 43, 60
2, 20084, Note_on_c, 0, 82, 0
2, 20105, Note_on_c, 0, 94, 0
2, 20155, Note_on_c, 0, 88, 70
2, 20165, Note_on_c, 0, 43, 0
2, 20191, Note_on_c, 0, 55, 0
2, 20265, Note_on_c, 0, 91, 0
2, 20265, Note_on_c, 0, 56, 59
2, 20265, Note_on_c, 0, 95, 67
2, 20271, Note_on_c, 0, 88, 0
2, 20271, Note_on_c, 0, 83, 63
2, 20271, Note_on_c, 0, 44, 59
2, 20342, Note_on_c, 0, 83, 0
2, 20368, Note_on_c, 0, 56, 0
2, 20368, Note_on_c, 0, 96, 69
2, 20368, Note_on_c, 0, 84, 65
2, 20372, Note_on_c, 0, 95, 0
2, 20372, Note_on_c, 0, 44, 0
2, 20467, Note_on_c, 0, 96, 0
2, 20467, Note_on_c, 0, 84, 0
2, 20467, Note_on_c, 0, 57, 63
2, 20467, Note_on_c, 0, 45, 60
2, 20567, Note_on_c, 0, 96, 69
2, 20567, Note_on_c, 0, 58, 61
2, 20567, Note_on_c, 0, 84, 65
2, 20573, Note_on_c, 0, 45, 0
2, 20573, Note_on_c, 0, 57, 0
2, 20573, Note_on_c, 0, 46, 60
2, 20591, Control_c, 0, 64, 127
2, 20638, Control_c, 0, 64, 0
2, 20666, Note_on_c, 0, 81, 64
2, 20672, Note_on_c, 0, 84, 0
2, 20672, Note_on_c, 0, 96, 0
2, 20672, Note_on_c, 0, 60, 61
2, 20672, Note_on_c, 0, 93, 67
2, 20672, Note_on_c, 0, 48, 61
2, 20676, Note_on_c, 0, 58, 0
2, 20680, Note_on_c, 0, 46, 0
2, 20776, Note_on_c, 0, 81, 0
2, 20776, Note_on_c, 0, 59, 60
2, 20780, Note_on_c, 0, 47, 57
2, 20780, Note_on_c, 0, 89, 64
2, 20780, Note_on_c, 0, 77, 61
2, 20784, Note_on_c, 0, 48, 0
2, 20784, Note_on_c, 0, 93, 0
2, 20792, Note_on_c, 0, 60, 0
2, 20875, Note_on_c, 0, 58, 63
2, 20875, Note_on_c, 0, 74, 64
2, 20879, Note_on_c, 0, 59, 0
2, 20879, Note_on_c, 0, 77, 0
2, 20879, Note_on_c, 0, 86, 60
2, 20879, Note_on_c, 0, 46, 61
2, 20883, Note_on_c, 0, 47, 0
2, 20883, Note_on_c, 0, 89, 0
2, 20973, Note_on_c, 0, 73, 64
2, 20973, Note_on_c, 0, 85, 60
2, 20977, Note_on_c, 0, 86, 0
2, 20981, Note_on_c, 0, 58, 0
2, 20981, Note_on_c, 0, 74, 0
2, 20985, Note_on_c, 0, 46, 0
2, 21076, Note_on_c, 0, 84, 63
2, 21076, Note_on_c, 0, 57, 62
2, 21080, Note_on_c, 0, 73, 0
2, 21080, Note_on_c, 0, 85, 0
2, 21080, Note_on_c, 0, 45, 60
2, 21080, Note_on_c, 0, 72, 64
2, 21176, Note_on_c, 0, 70, 63
2, 21176, Note_on_c, 0, 82, 64
2, 21180, Note_on_c, 0, 72, 0
2, 21180, Note_on_c, 0, 84, 0
2, 21180, Note_on_c, 0, 57, 0
2, 21180, Note_on_c, 0, 55, 60
2, 21186, Note_on_c, 0, 45, 0
2, 21186, Note_on_c, 0, 43, 59
2, 21273, Note_on_c, 0, 81, 65
2, 21279, Note_on_c, 0, 53, 60
2, 21279, Note_on_c, 0, 69, 64
2, 21283, Note_on_c, 0, 82, 0
2, 21283, Note_on_c, 0, 55, 0
2, 21287, Note_on_c, 0, 43, 0
2, 21287, Note_on_c, 0, 70, 0
2, 21287, Note_on_c, 0, 41, 59
2, 21303, Control_c, 0, 64, 127
2, 21339, Control_c, 0, 64, 0
2, 21381, Note_on_c, 0, 69, 0
2, 21381, Note_on_c, 0, 84, 63
2, 21381, Note_on_c, 0, 72, 64
2, 21385, Note_on_c, 0, 81, 0
2, 21476, Note_on_c, 0, 60, 64
2, 21476, Note_on_c, 0, 57, 62
2, 21480, Note_on_c, 0, 84, 0
2, 21480, Note_on_c, 0, 72, 0
2, 21480, Note_on_c, 0, 65, 57
2, 21480, Note_on_c, 0, 89, 60
2, 21486, Note_on_c, 0, 77, 59
2, 21572, Note_on_c, 0, 81, 63
2, 21578, Note_on_c, 0, 77, 0
2, 21578, Note_on_c, 0, 93, 66
2, 21582, Note_on_c, 0, 60, 0
2, 21582, Note_on_c, 0, 89, 0
2, 21582, Note_on_c, 0, 65, 0
2, 21582, Note_on_c, 0, 57, 0
2, 21661, Note_on_c, 0, 53, 0
2, 21665, Note_on_c, 0, 41, 0
2, 21681, Note_on_c, 0, 48, 64
2, 21691, Note_on_c, 0, 36, 57
2, 21733, Note_on_c, 0, 81, 0
2, 21741, Note_on_c, 0, 93, 0
2, 21783, Note_on_c, 0, 89, 67
2, 21787, Note_on_c, 0, 77, 65
2, 21876, Note_on_c, 0, 65, 57
2, 21882, Note_on_c, 0, 57, 60
2, 21882, Note_on_c, 0, 60, 62
2, 21886, Note_on_c, 0, 77, 0
2, 21886, Note_on_c, 0, 89, 0
2, 21886, Note_on_c, 0, 84, 59
2, 21892, Note_on_c, 0, 72, 61
2, 21972, Note_on_c, 0, 36, 0
2, 21984, Note_on_c, 0, 81, 64
2, 21988, Note_on_c, 0, 84, 0
2, 21988, Note_on_c, 0, 72, 0
2, 21988, Note_on_c, 0, 57, 0
2, 21988, Note_on_c, 0, 69, 63
2, 21992, Note_on_c, 0, 65, 0
2, 21992, Note_on_c, 0, 60, 0
2, 21992, Note_on_c, 0, 48, 0
2, 22038, Control_c, 0, 64, 127
2, 22075, Control_c, 0, 64, 0
2, 22085, Note_on_c, 0, 48, 64
2, 22089, Note_on_c, 0, 81, 0
2, 22089, Note_on_c, 0, 69, 0
2, 22089, Note_on_c, 0, 84, 64
2, 22099, Note_on_c, 0, 36, 54
2, 22119, Note_on_c, 0, 76, 64
2, 22119, Note_on_c, 0, 88, 65
2, 22267, Note_on_c, 0, 84, 0
2, 22273, Note_on_c, 0, 76, 0
2, 22273, Note_on_c, 0, 88, 0
2, 22293, Note_on_c, 0, 60, 63
2, 22293, Note_on_c, 0, 82, 68
2, 22293, Note_on_c, 0, 64, 60
2, 22320, Note_on_c, 0, 74, 65
2, 22326, Note_on_c, 0, 86, 62
2, 22420, Note_on_c, 0, 86, 0
2, 22424, Note_on_c, 0, 60, 0
2, 22424, Note_on_c, 0, 74, 0
2, 22448, Note_on_c, 0, 82, 0
2, 22448, Note_on_c, 0, 64, 0
2, 22494, Note_on_c, 0, 81, 63
2, 22494, Note_on_c, 0, 53, 62
2, 22500, Note_on_c, 0, 84, 64
2, 22504, Note_on_c, 0, 48, 0
2, 22504, Note_on_c, 0, 72, 65
2, 22508, Note_on_c, 0, 36, 0
2, 22625, Note_on_c, 0, 84, 0
2, 22625, Note_on_c, 0, 72, 0
2, 22625, Note_on_c, 0, 81, 0
2, 22631, Note_on_c, 0, 53, 0
2, 22695, Note_on_c, 0, 81, 69
2, 22695, Note_on_c, 0, 63, 60
2, 22695, Note_on_c, 0, 93, 71
2, 22703, Note_on_c, 0, 57, 58
2, 22707, Note_on_c, 0, 60, 60
2, 22707, Note_on_c, 0, 54, 55
2, 22833, Note_on_c, 0, 54, 0
2, 22833, Note_on_c, 0, 81, 0
2, 22833, Note_on_c, 0, 63, 0
2, 22836, Note_on_c, 0, 57, 0
2, 22841, Note_on_c, 0, 60, 0
2, 22841, Note_on_c, 0, 93, 0
2, 22900, Note_on_c, 0, 91, 67
2, 22906, Note_on_c, 0, 79, 64
2, 22906, Note_on_c, 0, 60, 60
2, 22910, Note_on_c, 0, 55, 58
2, 22914, Note_on_c, 0, 64, 59
2, 22938, Control_c, 0, 64, 127
2, 22980, Control_c, 0, 64, 0
2, 23014, Note_on_c, 0, 84, 63
2, 23018, Note_on_c, 0, 79, 0
2, 23018, Note_on_c, 0, 72, 65
2, 23036, Note_on_c, 0, 91, 0
2, 23116, Note_on_c, 0, 84, 0
2, 23116, Note_on_c, 0, 72, 0
2, 23116, Note_on_c, 0, 88, 64
2, 23116, Note_on_c, 0, 76, 64
2, 23189, Note_on_c, 0, 88, 0
2, 23213, Note_on_c, 0, 81, 57
2, 23213, Note_on_c, 0, 93, 60
2, 23219, Note_on_c, 0, 76, 0
2, 23219, Note_on_c, 0, 90, 59
2, 23223, Note_on_c, 0, 84, 53
2, 23223, Note_on_c, 0, 86, 50
2, 23267, Note_on_c, 0, 55, 0
2, 23267, Note_on_c, 0, 60, 0
2, 23295, Note_on_c, 0, 64, 0
2, 23317, Note_on_c, 0, 90, 0
2, 23317, Note_on_c, 0, 81, 0
2, 23317, Note_on_c, 0, 86, 0
2, 23317, Note_on_c, 0, 84, 0
2, 23321, Note_on_c, 0, 50, 58
2, 23321, Note_on_c, 0, 62, 64
2, 23325, Note_on_c, 0, 93, 0
2, 23417, Note_on_c, 0, 81, 58
2, 23425, Note_on_c, 0, 50, 0
2, 23425, Note_on_c, 0, 90, 61
2, 23425, Note_on_c, 0, 93, 60
2, 23429, Note_on_c, 0, 62, 0
2, 23429, Note_on_c, 0, 84, 57
2, 23429, Note_on_c, 0, 86, 52
2, 23470, Note_on_c, 0, 86, 0
2, 23518, Note_on_c, 0, 55, 62
2, 23518, Note_on_c, 0, 95, 65
2, 23526, Note_on_c, 0, 89, 60
2, 23526, Note_on_c, 0, 83, 58
2, 23548, Note_on_c, 0, 81, 0
2, 23548, Note_on_c, 0, 84, 0
2, 23548, Note_on_c, 0, 90, 0
2, 23554, Note_on_c, 0, 86, 59
2, 23554, Note_on_c, 0, 43, 60
2, 23558, Note_on_c, 0, 93, 0
2, 23622, Note_on_c, 0, 83, 0
2, 23622, Note_on_c, 0, 86, 0
2, 23626, Note_on_c, 0, 55, 0
2, 23626, Note_on_c, 0, 95, 0
2, 23626, Note_on_c, 0, 89, 0
2, 23626, Note_on_c, 0, 43, 0
2, 23722, Note_on_c, 0, 60, 64
2, 23722, Note_on_c, 0, 48, 63
2, 23726, Note_on_c, 0, 91, 58
2, 23726, Note_on_c, 0, 96, 63
2, 23726, Note_on_c, 0, 84, 60
2, 23730, Note_on_c, 0, 88, 60
2, 23770, Control_c, 0, 64, 127
2, 23835, Note_on_c, 0, 60, 0
2, 23835, Control_c, 0, 64, 0
2, 23835, Note_on_c, 0, 47, 59
2, 23859, Note_on_c, 0, 59, 59
2, 23869, Note_on_c, 0, 48, 0
2, 23935, Note_on_c, 0, 58, 61
2, 23939, Note_on_c, 0, 59, 0
2, 23943, Note_on_c, 0, 47, 0
2, 23943, Note_on_c, 0, 46, 60
2, 24017, Note_on_c, 0, 58, 0
2, 24037, Note_on_c, 0, 48, 63
2, 24037, Note_on_c, 0, 60, 62
2, 24047, Note_on_c, 0, 46, 0
2, 24143, Note_on_c, 0, 45, 58
2, 24143, Note_on_c, 0, 57, 60
2, 24147, Note_on_c, 0, 48, 0
2, 24147, Note_on_c, 0, 60, 0
2, 24240, Note_on_c, 0, 57, 0
2, 24240, Note_on_c, 0, 56, 58
2, 24246, Note_on_c, 0, 45, 0
2, 24252, Note_on_c, 0, 44, 59
2, 24346, Note_on_c, 0, 96, 0
2, 24346, Note_on_c, 0, 84, 0
2, 24346, Note_on_c, 0, 91, 0
2, 24349, Note_on_c, 0, 88, 0
2, 24349, Note_on_c, 0, 56, 0
2, 24349, Note_on_c, 0, 55, 60
2, 24349, Note_on_c, 0, 43, 60
2, 24356, Note_on_c, 0, 44, 0
2, 24454, Note_on_c, 0, 43, 0
2, 24454, Note_on_c, 0, 55, 0
2, 24454, Note_on_c, 0, 42, 56
2, 24457, Note_on_c, 0, 54, 59
2, 24542, Note_on_c, 0, 81, 66
2, 24542, Note_on_c, 0, 53, 62
2, 24550, Note_on_c, 0, 41, 60
2, 24550, Note_on_c, 0, 69, 66
2, 24576, Note_on_c, 0, 54, 0
2, 24576, Note_on_c, 0, 42, 0
2, 24644, Control_c, 0, 64, 127
2, 24648, Note_on_c, 0, 81, 0
2, 24648, Note_on_c, 0, 69, 0
2, 24648, Note_on_c, 0, 84, 63
2, 24652, Note_on_c, 0, 72, 64
2, 24681, Control_c, 0, 64, 0
2, 24747, Note_on_c, 0, 72, 0
2, 24747, Note_on_c, 0, 60, 61
2, 24747, Note_on_c, 0, 57, 59
2, 24747, Note_on_c, 0, 65, 57
2, 24751, Note_on_c, 0, 89, 61
2, 24751, Note_on_c, 0, 77, 58
2, 24771, Note_on_c, 0, 84, 0
2, 24843, Note_on_c, 0, 81, 66
2, 24847, Note_on_c, 0, 93, 66
2, 24851, Note_on_c, 0, 77, 0
2, 24851, Note_on_c, 0, 57, 0
2, 24851, Note_on_c, 0, 89, 0
2, 24851, Note_on_c, 0, 65, 0
2, 24857, Note_on_c, 0, 60, 0
2, 24949, Note_on_c, 0, 48, 64
2, 24955, Note_on_c, 0, 53, 0
2, 24959, Note_on_c, 0, 41, 0
2, 24959, Note_on_c, 0, 36, 56
2, 25009, Note_on_c, 0, 93, 0
2, 25025, Note_on_c, 0, 81, 0
2, 25051, Note_on_c, 0, 89, 67
2, 25055, Note_on_c, 0, 48, 0
2, 25055, Note_on_c, 0, 77, 66
2, 25059, Note_on_c, 0, 36, 0
2, 25149, Note_on_c, 0, 60, 63
2, 25149, Note_on_c, 0, 65, 57
2, 25155, Note_on_c, 0, 77, 0
2, 25155, Note_on_c, 0, 57, 60
2, 25155, Note_on_c, 0, 84, 60
2, 25159, Note_on_c, 0, 89, 0
2, 25159, Note_on_c, 0, 72, 62
2, 25252, Note_on_c, 0, 81, 65
2, 25256, Note_on_c, 0, 72, 0
2, 25256, Note_on_c, 0, 84, 0
2, 25260, Note_on_c, 0, 57, 0
2, 25260, Note_on_c, 0, 60, 0
2, 25260, Note_on_c, 0, 69, 64
2, 25312, Note_on_c, 0, 65, 0
2, 25354, Note_on_c, 0, 48, 64
2, 25360, Note_on_c, 0, 69, 0
2, 25360, Note_on_c, 0, 81, 0
2, 25360, Note_on_c, 0, 84, 60
2, 25360, Note_on_c, 0, 88, 62
2, 25360, Note_on_c, 0, 76, 60
2, 25368, Note_on_c, 0, 36, 57
2, 25468, Note_on_c, 0, 36, 0
2, 25468, Note_on_c, 0, 48, 0
2, 25476, Control_c, 0, 64, 127
2, 25514, Note_on_c, 0, 84, 0
2, 25514, Note_on_c, 0, 88, 0
2, 25514, Note_on_c, 0, 76, 0
2, 25530, Control_c, 0, 64, 0
2, 25558, Note_on_c, 0, 58, 61
2, 25558, Note_on_c, 0, 60, 60
2, 25562, Note_on_c, 0, 82, 64
2, 25562, Note_on_c, 0, 74, 60
2, 25566, Note_on_c, 0, 64, 57
2, 25566, Note_on_c, 0, 86, 58
2, 25668, Note_on_c, 0, 64, 0
2, 25668, Note_on_c, 0, 60, 0
2, 25668, Note_on_c, 0, 58, 0
2, 25718, Note_on_c, 0, 74, 0
2, 25718, Note_on_c, 0, 86, 0
2, 25718, Note_on_c, 0, 82, 0
2, 25758, Note_on_c, 0, 81, 63
2, 25762, Note_on_c, 0, 53, 63
2, 25766, Note_on_c, 0, 84, 64
2, 25766, Note_on_c, 0, 41, 60
2, 25772, Note_on_c, 0, 72, 64
2, 25872, Note_on_c, 0, 41, 0
2, 25872, Note_on_c, 0, 53, 0
2, 25966, Note_on_c, 0, 60, 62
2, 25966, Note_on_c, 0, 65, 66
2, 25970, Note_on_c, 0, 57, 60
2, 26091, Control_c, 0, 64, 127
2, 26097, Note_on_c, 0, 81, 0
2, 26097, Note_on_c, 0, 72, 0
2, 26097, Note_on_c, 0, 84, 0
2, 26101, Note_on_c, 0, 57, 0
2, 26101, Note_on_c, 0, 65, 0
2, 26105, Note_on_c, 0, 60, 0
2, 26163, Note_on_c, 0, 94, 69
2, 26171, Note_on_c, 0, 82, 67
2, 26175, Note_on_c, 0, 55, 59
2, 26181, Note_on_c, 0, 43, 59
2, 26211, Control_c, 0, 64, 0
2, 26269, Note_on_c, 0, 88, 70
2, 26279, Note_on_c, 0, 43, 0
2, 26279, Note_on_c, 0, 55, 0
2, 26303, Note_on_c, 0, 94, 0
2, 26303, Note_on_c, 0, 82, 0
2, 26363, Note_on_c, 0, 91, 69
2, 26373, Note_on_c, 0, 58, 67
2, 26373, Note_on_c, 0, 60, 67
2, 26381, Note_on_c, 0, 64, 64
2, 26387, Note_on_c, 0, 88, 0
2, 26473, Note_on_c, 0, 94, 71
2, 26483, Note_on_c, 0, 91, 0
2, 26483, Note_on_c, 0, 58, 0
2, 26483, Note_on_c, 0, 82, 67
2, 26487, Note_on_c, 0, 60, 0
2, 26487, Note_on_c, 0, 64, 0
2, 26585, Note_on_c, 0, 55, 60
2, 26593, Note_on_c, 0, 43, 60
2, 26635, Note_on_c, 0, 94, 0
2, 26639, Note_on_c, 0, 82, 0
2, 26683, Note_on_c, 0, 91, 68
2, 26687, Note_on_c, 0, 87, 66
2, 26693, Note_on_c, 0, 55, 0
2, 26693, Note_on_c, 0, 43, 0
2, 26785, Note_on_c, 0, 87, 0
2, 26785, Note_on_c, 0, 95, 69
2, 26785, Note_on_c, 0, 56, 60
2, 26791, Note_on_c, 0, 83, 64
2, 26795, Note_on_c, 0, 44, 59
2, 26811, Note_on_c, 0, 91, 0
2, 26863, Note_on_c, 0, 83, 0
2, 26863, Note_on_c, 0, 56, 0
2, 26871, Note_on_c, 0, 44, 0
2, 26883, Note_on_c, 0, 96, 69
2, 26887, Note_on_c, 0, 84, 67
2, 26897, Note_on_c, 0, 95, 0
2, 26989, Note_on_c, 0, 57, 63
2, 26993, Note_on_c, 0, 84, 0
2, 26993, Note_on_c, 0, 45, 60
2, 27019, Note_on_c, 0, 96, 0
2, 27091, Note_on_c, 0, 96, 73
2, 27097, Note_on_c, 0, 46, 63
2, 27121, Note_on_c, 0, 58, 62
2, 27127, Note_on_c, 0, 57, 0
2, 27131, Note_on_c, 0, 45, 0
2, 27193, Note_on_c, 0, 93, 74
2, 27197, Note_on_c, 0, 48, 63
2, 27197, Note_on_c, 0, 60, 62
2, 27223, Note_on_c, 0, 96, 0
2, 27227, Note_on_c, 0, 58, 0
2, 27227, Note_on_c, 0, 46, 0
2, 27295, Note_on_c, 0, 89, 69
2, 27295, Note_on_c, 0, 59, 62
2, 27299, Note_on_c, 0, 47, 59
2, 27305, Note_on_c, 0, 93, 0
2, 27327, Note_on_c, 0, 60, 0
2, 27327, Note_on_c, 0, 48, 0
2, 27375, Note_on_c, 0, 47, 0
2, 27375, Note_on_c, 0, 59, 0
2, 27397, Note_on_c, 0, 58, 64
2, 27401, Note_on_c, 0, 89, 0
2, 27401, Note_on_c, 0, 46, 62
2, 27401, Note_on_c, 0, 86, 65
2, 27497, Note_on_c, 0, 85, 69
2, 27507, Note_on_c, 0, 58, 0
2, 27513, Note_on_c, 0, 46, 0
2, 27529, Note_on_c, 0, 86, 0
2, 27601, Note_on_c, 0, 84, 70
2, 27601, Note_on_c, 0, 57, 62
2, 27609, Note_on_c, 0, 45, 60
2, 27615, Note_on_c, 0, 85, 0
2, 27705, Note_on_c, 0, 84, 0
2, 27709, Note_on_c, 0, 57, 0
2, 27713, Note_on_c, 0, 45, 0
2, 27795, Note_on_c, 0, 98, 71
2, 27795, Note_on_c, 0, 58, 64
2, 27799, Note_on_c, 0, 86, 66
2, 27803, Note_on_c, 0, 46, 62
2, 27869, Control_c, 0, 64, 127
2, 27896, Note_on_c, 0, 94, 73
2, 27904, Note_on_c, 0, 86, 0
2, 27908, Note_on_c, 0, 98, 0
2, 27908, Note_on_c, 0, 58, 0
2, 27912, Note_on_c, 0, 46, 0
2, 27924, Control_c, 0, 64, 0
2, 28004, Note_on_c, 0, 94, 0
2, 28004, Note_on_c, 0, 58, 63
2, 28004, Note_on_c, 0, 96, 68
2, 28008, Note_on_c, 0, 62, 63
2, 28008, Note_on_c, 0, 67, 64
2, 28106, Note_on_c, 0, 67, 0
2, 28106, Note_on_c, 0, 100, 67
2, 28110, Note_on_c, 0, 88, 66
2, 28114, Note_on_c, 0, 58, 0
2, 28118, Note_on_c, 0, 62, 0
2, 28136, Note_on_c, 0, 96, 0
2, 28206, Note_on_c, 0, 58, 64
2, 28212, Note_on_c, 0, 46, 62
2, 28258, Note_on_c, 0, 88, 0
2, 28282, Note_on_c, 0, 100, 0
2, 28288, Note_on_c, 0, 58, 0
2, 28288, Note_on_c, 0, 46, 0
2, 28296, Note_on_c, 0, 94, 76
2, 28402, Note_on_c, 0, 98, 70
2, 28408, Note_on_c, 0, 94, 0
2, 28408, Note_on_c, 0, 56, 60
2, 28408, Note_on_c, 0, 86, 64
2, 28418, Note_on_c, 0, 44, 60
2, 28510, Note_on_c, 0, 86, 0
2, 28510, Note_on_c, 0, 56, 0
2, 28514, Note_on_c, 0, 98, 0
2, 28518, Note_on_c, 0, 44, 0
2, 28606, Note_on_c, 0, 96, 70
2, 28606, Note_on_c, 0, 84, 66
2, 28606, Note_on_c, 0, 57, 60
2, 28610, Note_on_c, 0, 45, 60
2, 28626, Control_c, 0, 64, 127
2, 28674, Control_c, 0, 64, 0
2, 28714, Note_on_c, 0, 84, 0
2, 28718, Note_on_c, 0, 57, 0
2, 28718, Note_on_c, 0, 89, 65
2, 28718, Note_on_c, 0, 93, 69
2, 28740, Note_on_c, 0, 96, 0
2, 28817, Note_on_c, 0, 89, 0
2, 28817, Note_on_c, 0, 98, 64
2, 28817, Note_on_c, 0, 65, 56
2, 28817, Note_on_c, 0, 57, 60
2, 28817, Note_on_c, 0, 60, 62
2, 28825, Note_on_c, 0, 93, 0
2, 28825, Note_on_c, 0, 86, 58
2, 28917, Note_on_c, 0, 86, 0
2, 28917, Note_on_c, 0, 57, 0
2, 28921, Note_on_c, 0, 65, 0
2, 28921, Note_on_c, 0, 98, 0
2, 28921, Note_on_c, 0, 60, 0
2, 28921, Note_on_c, 0, 93, 60
2, 28921, Note_on_c, 0, 96, 59
2, 28925, Note_on_c, 0, 89, 55
2, 28925, Note_on_c, 0, 84, 57
2, 28999, Note_on_c, 0, 93, 0
2, 29009, Note_on_c, 0, 65, 67
2, 29015, Note_on_c, 0, 60, 63
2, 29015, Note_on_c, 0, 57, 60
2, 29117, Note_on_c, 0, 84, 0
2, 29117, Note_on_c, 0, 96, 0
2, 29117, Note_on_c, 0, 93, 71
2, 29123, Note_on_c, 0, 89, 0
2, 29225, Note_on_c, 0, 57, 0
2, 29229, Note_on_c, 0, 65, 0
2, 29229, Note_on_c, 0, 45, 0
2, 29229, Note_on_c, 0, 60, 0
2, 29229, Note_on_c, 0, 89, 67
2, 29233, Note_on_c, 0, 93, 0
2, 29324, Note_on_c, 0, 78, 64
2, 29328, Note_on_c, 0, 66, 66
2, 29334, Note_on_c, 0, 89, 0
2, 29428, Note_on_c, 0, 48, 64
2, 29432, Note_on_c, 0, 66, 0
2, 29432, Note_on_c, 0, 67, 63
2, 29432, Note_on_c, 0, 79, 60
2, 29436, Note_on_c, 0, 78, 0
2, 29436, Note_on_c, 0, 36, 57
2, 29454, Control_c, 0, 64, 127
2, 29480, Control_c, 0, 64, 0
2, 29526, Note_on_c, 0, 79, 0
2, 29526, Note_on_c, 0, 67, 0
2, 29536, Note_on_c, 0, 48, 0
2, 29536, Note_on_c, 0, 84, 64
2, 29536, Note_on_c, 0, 72, 66
2, 29564, Note_on_c, 0, 36, 0
2, 29634, Note_on_c, 0, 60, 64
2, 29634, Note_on_c, 0, 64, 62
2, 29654, Note_on_c, 0, 72, 0
2, 29658, Note_on_c, 0, 84, 0
2, 29658, Note_on_c, 0, 58, 68
2, 29736, Note_on_c, 0, 58, 0
2, 29736, Note_on_c, 0, 78, 65
2, 29736, Note_on_c, 0, 66, 67
2, 29740, Note_on_c, 0, 60, 0
2, 29764, Note_on_c, 0, 64, 0
2, 29839, Note_on_c, 0, 52, 60
2, 29839, Note_on_c, 0, 79, 60
2, 29839, Note_on_c, 0, 67, 62
2, 29843, Note_on_c, 0, 66, 0
2, 29843, Note_on_c, 0, 40, 59
2, 29847, Note_on_c, 0, 78, 0
2, 29859, Note_on_c, 0, 79, 0
2, 29935, Note_on_c, 0, 67, 0
2, 29941, Note_on_c, 0, 91, 61
2, 29941, Note_on_c, 0, 82, 64
2, 29945, Note_on_c, 0, 52, 0
2, 29945, Note_on_c, 0, 40, 0
2, 29945, Note_on_c, 0, 79, 53
2, 30037, Note_on_c, 0, 58, 63
2, 30037, Note_on_c, 0, 60, 62
2, 30049, Note_on_c, 0, 55, 57
2, 30089, Note_on_c, 0, 79, 0
2, 30089, Note_on_c, 0, 82, 0
2, 30089, Note_on_c, 0, 91, 0
2, 30117, Note_on_c, 0, 58, 0
2, 30117, Note_on_c, 0, 60, 0
2, 30117, Note_on_c, 0, 55, 0
2, 30133, Note_on_c, 0, 81, 63
2, 30143, Note_on_c, 0, 89, 64
2, 30143, Note_on_c, 0, 77, 61
2, 30242, Note_on_c, 0, 53, 61
2, 30246, Note_on_c, 0, 57, 60
2, 30246, Note_on_c, 0, 60, 62
2, 30268, Control_c, 0, 64, 127
2, 30328, Control_c, 0, 64, 0
2, 30344, Note_on_c, 0, 57, 0
2, 30344, Note_on_c, 0, 77, 0
2, 30344, Note_on_c, 0, 81, 0
2, 30348, Note_on_c, 0, 89, 0
2, 30348, Note_on_c, 0, 53, 0
2, 30352, Note_on_c, 0, 60, 0
2, 30440, Note_on_c, 0, 60, 67
2, 30446, Note_on_c, 0, 72, 70
2, 30549, Note_on_c, 0, 72, 0
2, 30549, Note_on_c, 0, 74, 69
2, 30555, Note_on_c, 0, 60, 0
2, 30555, Note_on_c, 0, 62, 66
2, 30653, Note_on_c, 0, 64, 63
2, 30653, Note_on_c, 0, 76, 68
2, 30657, Note_on_c, 0, 74, 0
2, 30661, Note_on_c, 0, 62, 0
2, 30753, Note_on_c, 0, 65, 64
2, 30759, Note_on_c, 0, 64, 0
2, 30759, Note_on_c, 0, 76, 0
2, 30763, Note_on_c, 0, 77, 65
2, 30858, Note_on_c, 0, 77, 0
2, 30858, Note_on_c, 0, 79, 63
2, 30866, Note_on_c, 0, 65, 0
2, 30888, Note_on_c, 0, 67, 69
2, 30952, Note_on_c, 0, 81, 67
2, 30956, Note_on_c, 0, 67, 0
2, 30960, Note_on_c, 0, 79, 0
2, 30982, Note_on_c, 0, 69, 70
2, 31054, Note_on_c, 0, 82, 63
2, 31054, Note_on_c, 0, 70, 62
2, 31054, Control_c, 0, 64, 127
2, 31060, Note_on_c, 0, 69, 0
2, 31060, Note_on_c, 0, 81, 0
2, 31060, Note_on_c, 0, 55, 60
2, 31064, Note_on_c, 0, 43, 59
2, 31090, Control_c, 0, 64, 0
2, 31159, Note_on_c, 0, 55, 0
2, 31159, Note_on_c, 0, 82, 0
2, 31159, Note_on_c, 0, 76, 67
2, 31163, Note_on_c, 0, 70, 0
2, 31163, Note_on_c, 0, 43, 0
2, 31255, Note_on_c, 0, 79, 67
2, 31255, Note_on_c, 0, 58, 67
2, 31255, Note_on_c, 0, 60, 66
2, 31261, Note_on_c, 0, 76, 0
2, 31261, Note_on_c, 0, 64, 64
2, 31355, Note_on_c, 0, 81, 62
2, 31359, Note_on_c, 0, 64, 0
2, 31359, Note_on_c, 0, 79, 0
2, 31359, Note_on_c, 0, 70, 64
2, 31363, Note_on_c, 0, 60, 0
2, 31363, Note_on_c, 0, 58, 0
2, 31367, Note_on_c, 0, 76, 61
2, 31456, Note_on_c, 0, 48, 65
2, 31460, Note_on_c, 0, 76, 0
2, 31470, Note_on_c, 0, 36, 57
2, 31556, Note_on_c, 0, 81, 0
2, 31562, Note_on_c, 0, 70, 0
2, 31562, Note_on_c, 0, 76, 68
2, 31566, Note_on_c, 0, 48, 0
2, 31566, Note_on_c, 0, 36, 0
2, 31659, Note_on_c, 0, 58, 62
2, 31663, Note_on_c, 0, 60, 61
2, 31663, Note_on_c, 0, 67, 59
2, 31663, Note_on_c, 0, 79, 58
2, 31666, Note_on_c, 0, 76, 0
2, 31666, Note_on_c, 0, 70, 60
2, 31666, Note_on_c, 0, 64, 59
2, 31733, Note_on_c, 0, 67, 0
2, 31737, Note_on_c, 0, 79, 0
2, 31737, Note_on_c, 0, 58, 0
2, 31741, Note_on_c, 0, 60, 0
2, 31741, Note_on_c, 0, 64, 0
2, 31741, Note_on_c, 0, 70, 0
2, 31855, Note_on_c, 0, 67, 69
2, 31863, Note_on_c, 0, 52, 60
2, 31867, Note_on_c, 0, 40, 58
2, 31867, Note_on_c, 0, 55, 58
2, 31912, Control_c, 0, 64, 127
2, 31964, Note_on_c, 0, 67, 0
2, 31964, Note_on_c, 0, 66, 67
2, 31968, Note_on_c, 0, 55, 0
2, 31972, Note_on_c, 0, 52, 0
2, 31972, Note_on_c, 0, 40, 0
2, 31972, Control_c, 0, 64, 0
2, 31976, Note_on_c, 0, 54, 60
2, 32062, Note_on_c, 0, 67, 65
2, 32066, Note_on_c, 0, 58, 60
2, 32072, Note_on_c, 0, 54, 0
2, 32072, Note_on_c, 0, 66, 0
2, 32072, Note_on_c, 0, 60, 59
2, 32072, Note_on_c, 0, 55, 53
2, 32076, Note_on_c, 0, 64, 55
2, 32171, Note_on_c, 0, 64, 0
2, 32171, Note_on_c, 0, 58, 0
2, 32171, Note_on_c, 0, 67, 0
2, 32174, Note_on_c, 0, 60, 0
2, 32174, Note_on_c, 0, 55, 0
2, 32174, Note_on_c, 0, 74, 69
2, 32177, Note_on_c, 0, 62, 64
2, 32265, Note_on_c, 0, 48, 64
2, 32275, Note_on_c, 0, 36, 57
2, 32323, Note_on_c, 0, 74, 0
2, 32329, Note_on_c, 0, 62, 0
2, 32374, Note_on_c, 0, 60, 64
2, 32374, Note_on_c, 0, 72, 71
2, 32382, Note_on_c, 0, 48, 0
2, 32382, Note_on_c, 0, 36, 0
2, 32404, Note_on_c, 0, 60, 0
2, 32472, Note_on_c, 0, 58, 61
2, 32472, Note_on_c, 0, 67, 67
2, 32476, Note_on_c, 0, 72, 0
2, 32476, Note_on_c, 0, 60, 60
2, 32480, Note_on_c, 0, 64, 57
2, 32480, Note_on_c, 0, 55, 56
2, 32566, Note_on_c, 0, 68, 68
2, 32575, Note_on_c, 0, 55, 0
2, 32575, Note_on_c, 0, 64, 0
2, 32575, Note_on_c, 0, 67, 0
2, 32575, Note_on_c, 0, 56, 57
2, 32579, Note_on_c, 0, 58, 0
2, 32579, Note_on_c, 0, 60, 0
2, 32673, Note_on_c, 0, 56, 0
2, 32673, Note_on_c, 0, 53, 61
2, 32673, Note_on_c, 0, 57, 60
2, 32677, Note_on_c, 0, 68, 0
2, 32681, Note_on_c, 0, 41, 59
2, 32699, Note_on_c, 0, 69, 69
2, 32725, Control_c, 0, 64, 127
2, 32753, Note_on_c, 0, 69, 0
2, 32753, Note_on_c, 0, 53, 0
2, 32753, Note_on_c, 0, 57, 0
2, 32761, Control_c, 0, 64, 0
2, 32780, Note_on_c, 0, 60, 62
2, 32780, Note_on_c, 0, 48, 61
2, 32786, Note_on_c, 0, 41, 0
2, 32814, Note_on_c, 0, 60, 0
2, 32868, Note_on_c, 0, 48, 0
2, 32888, Note_on_c, 0, 57, 59
2, 32892, Note_on_c, 0, 60, 62
2, 32892, Note_on_c, 0, 62, 60
2, 32892, Note_on_c, 0, 50, 54
2, 32989, Note_on_c, 0, 57, 0
2, 32989, Note_on_c, 0, 63, 59
2, 32993, Note_on_c, 0, 51, 57
2, 32997, Note_on_c, 0, 60, 0
2, 32997, Note_on_c, 0, 50, 0
2, 32997, Note_on_c, 0, 62, 0
2, 33091, Note_on_c, 0, 63, 0
2, 33091, Note_on_c, 0, 52, 59
2, 33091, Note_on_c, 0, 48, 61
2, 33095, Note_on_c, 0, 64, 59
2, 33107, Note_on_c, 0, 36, 53
2, 33119, Note_on_c, 0, 51, 0
2, 33188, Note_on_c, 0, 65, 68
2, 33194, Note_on_c, 0, 53, 61
2, 33198, Note_on_c, 0, 64, 0
2, 33198, Note_on_c, 0, 48, 0
2, 33202, Note_on_c, 0, 36, 0
2, 33202, Note_on_c, 0, 52, 0
2, 33298, Note_on_c, 0, 53, 0
2, 33298, Note_on_c, 0, 67, 67
2, 33298, Note_on_c, 0, 58, 60
2, 33298, Note_on_c, 0, 60, 59
2, 33302, Note_on_c, 0, 64, 55
2, 33306, Note_on_c, 0, 55, 55
2, 33326, Note_on_c, 0, 65, 0
2, 33395, Note_on_c, 0, 68, 68
2, 33399, Note_on_c, 0, 67, 0
2, 33399, Note_on_c, 0, 56, 58
2, 33403, Note_on_c, 0, 58, 0
2, 33403, Note_on_c, 0, 60, 0
2, 33403, Note_on_c, 0, 64, 0
2, 33403, Note_on_c, 0, 55, 0
2, 33501, Note_on_c, 0, 56, 0
2, 33501, Note_on_c, 0, 53, 62
2, 33501, Note_on_c, 0, 69, 69
2, 33501, Note_on_c, 0, 57, 59
2, 33505, Note_on_c, 0, 68, 0
2, 33509, Note_on_c, 0, 41, 59
2, 33558, Control_c, 0, 64, 127
2, 33594, Note_on_c, 0, 68, 68
2, 33600, Note_on_c, 0, 56, 59
2, 33606, Note_on_c, 0, 53, 0
2, 33606, Note_on_c, 0, 57, 0
2, 33606, Note_on_c, 0, 69, 0
2, 33612, Note_on_c, 0, 41, 0
2, 33612, Control_c, 0, 64, 0
2, 33700, Note_on_c, 0, 65, 62
2, 33704, Note_on_c, 0, 57, 60
2, 33704, Note_on_c, 0, 60, 62
2, 33707, Note_on_c, 0, 68, 0
2, 33707, Note_on_c, 0, 56, 0
2, 33707, Note_on_c, 0, 69, 64
2, 33729, Note_on_c, 0, 69, 0
2, 33809, Note_on_c, 0, 57, 0
2, 33809, Note_on_c, 0, 67, 56
2, 33815, Note_on_c, 0, 65, 0
2, 33815, Note_on_c, 0, 60, 0
2, 33815, Note_on_c, 0, 79, 53
2, 33815, Note_on_c, 0, 69, 53
2, 33823, Note_on_c, 0, 72, 60
2, 33912, Note_on_c, 0, 48, 64
2, 33920, Note_on_c, 0, 36, 57
2, 33964, Note_on_c, 0, 69, 0
2, 33964, Note_on_c, 0, 67, 0
2, 33964, Note_on_c, 0, 79, 0
2, 33990, Note_on_c, 0, 72, 0
2, 34008, Note_on_c, 0, 65, 64
2, 34016, Note_on_c, 0, 77, 66
2, 34022, Note_on_c, 0, 48, 0
2, 34040, Note_on_c, 0, 65, 0
2, 34051, Note_on_c, 0, 36, 0
2, 34111, Note_on_c, 0, 67, 65
2, 34115, Note_on_c, 0, 60, 64
2, 34115, Note_on_c, 0, 65, 64
2, 34119, Note_on_c, 0, 77, 0
2, 34119, Note_on_c, 0, 57, 60
2, 34137, Note_on_c, 0, 57, 0
2, 34216, Note_on_c, 0, 67, 0
2, 34216, Note_on_c, 0, 69, 67
2, 34216, Note_on_c, 0, 57, 55
2, 34224, Note_on_c, 0, 60, 0
2, 34224, Note_on_c, 0, 65, 0
2, 34318, Note_on_c, 0, 58, 63
2, 34318, Note_on_c, 0, 70, 69
2, 34324, Note_on_c, 0, 69, 0
2, 34324, Note_on_c, 0, 57, 0
2, 34324, Note_on_c, 0, 55, 58
2, 34332, Note_on_c, 0, 43, 57
2, 34344, Control_c, 0, 64, 127
2, 34425, Note_on_c, 0, 58, 0
2, 34425, Note_on_c, 0, 72, 66
2, 34429, Note_on_c, 0, 70, 0
2, 34429, Note_on_c, 0, 43, 0
2, 34429, Note_on_c, 0, 55, 0
2, 34429, Note_on_c, 0, 84, 64
2, 34455, Control_c, 0, 64, 0
2, 34521, Note_on_c, 0, 60, 65
2, 34521, Note_on_c, 0, 70, 64
2, 34525, Note_on_c, 0, 82, 67
2, 34528, Note_on_c, 0, 64, 61
2, 34548, Note_on_c, 0, 84, 0
2, 34548, Note_on_c, 0, 72, 0
2, 34548, Note_on_c, 0, 58, 69
2, 34622, Note_on_c, 0, 67, 67
2, 34622, Note_on_c, 0, 79, 64
2, 34626, Note_on_c, 0, 58, 0
2, 34626, Note_on_c, 0, 82, 0
2, 34626, Note_on_c, 0, 60, 0
2, 34626, Note_on_c, 0, 64, 0
2, 34630, Note_on_c, 0, 70, 0
2, 34727, Note_on_c, 0, 67, 0
2, 34727, Note_on_c, 0, 64, 60
2, 34727, Note_on_c, 0, 48, 64
2, 34727, Note_on_c, 0, 76, 66
2, 34731, Note_on_c, 0, 79, 0
2, 34737, Note_on_c, 0, 36, 56
2, 34745, Note_on_c, 0, 76, 0
2, 34827, Note_on_c, 0, 64, 0
2, 34827, Note_on_c, 0, 82, 62
2, 34836, Note_on_c, 0, 48, 0
2, 34836, Note_on_c, 0, 36, 0
2, 34836, Note_on_c, 0, 84, 59
2, 34836, Note_on_c, 0, 76, 51
2, 34836, Note_on_c, 0, 72, 61
2, 34922, Note_on_c, 0, 60, 62
2, 34926, Note_on_c, 0, 58, 63
2, 34930, Note_on_c, 0, 64, 58
2, 35001, Note_on_c, 0, 72, 0
2, 35001, Note_on_c, 0, 84, 0
2, 35005, Note_on_c, 0, 76, 0
2, 35005, Note_on_c, 0, 58, 0
2, 35005, Note_on_c, 0, 82, 0
2, 35005, Note_on_c, 0, 64, 0
2, 35009, Note_on_c, 0, 60, 0
2, 35101, Control_c, 0, 64, 127
2, 35130, Note_on_c, 0, 70, 70
2, 35130, Note_on_c, 0, 58, 64
2, 35136, Note_on_c, 0, 55, 58
2, 35142, Control_c, 0, 64, 0
2, 35142, Note_on_c, 0, 43, 57
2, 35232, Note_on_c, 0, 69, 69
2, 35236, Note_on_c, 0, 55, 0
2, 35236, Note_on_c, 0, 58, 0
2, 35236, Note_on_c, 0, 57, 62
2, 35240, Note_on_c, 0, 70, 0
2, 35240, Note_on_c, 0, 43, 0
2, 35331, Note_on_c, 0, 70, 71
2, 35335, Note_on_c, 0, 64, 65
2, 35335, Note_on_c, 0, 60, 66
2, 35341, Note_on_c, 0, 69, 0
2, 35341, Note_on_c, 0, 57, 0
2, 35357, Note_on_c, 0, 58, 64
2, 35367, Note_on_c, 0, 70, 0
2, 35432, Note_on_c, 0, 81, 63
2, 35440, Note_on_c, 0, 70, 68
2, 35446, Note_on_c, 0, 58, 0
2, 35446, Note_on_c, 0, 76, 63
2, 35468, Note_on_c, 0, 60, 0
2, 35468, Note_on_c, 0, 64, 0
2, 35542, Note_on_c, 0, 48, 64
2, 35553, Note_on_c, 0, 36, 57
2, 35645, Note_on_c, 0, 79, 66
2, 35671, Note_on_c, 0, 81, 0
2, 35671, Note_on_c, 0, 67, 65
2, 35675, Note_on_c, 0, 70, 0
2, 35675, Note_on_c, 0, 76, 0
2, 35706, Note_on_c, 0, 48, 0
2, 35712, Note_on_c, 0, 36, 0
2, 35770, Note_on_c, 0, 58, 63
2, 35774, Note_on_c, 0, 67, 0
2, 35774, Note_on_c, 0, 79, 0
2, 35774, Note_on_c, 0, 60, 62
2, 35774, Note_on_c, 0, 76, 66
2, 35778, Note_on_c, 0, 64, 59
2, 35804, Note_on_c, 0, 60, 0
2, 35871, Note_on_c, 0, 60, 67
2, 35877, Note_on_c, 0, 72, 70
2, 35881, Note_on_c, 0, 58, 0
2, 35881, Note_on_c, 0, 64, 0
2, 35881, Note_on_c, 0, 76, 0
2, 35947, Note_on_c, 0, 69, 68
2, 35950, Note_on_c, 0, 53, 60
2, 35950, Control_c, 0, 64, 127
2, 35956, Note_on_c, 0, 72, 0
2, 35956, Note_on_c, 0, 57, 59
2, 35960, Note_on_c, 0, 60, 0
2, 35964, Note_on_c, 0, 41, 58
2, 35992, Control_c, 0, 64, 0
2, 36032, Note_on_c, 0, 57, 0
2, 36032, Note_on_c, 0, 69, 0
2, 36036, Note_on_c, 0, 53, 0
2, 36040, Note_on_c, 0, 41, 0
2, 36060, Note_on_c, 0, 84, 66
2, 36060, Note_on_c, 0, 72, 67
2, 36161, Note_on_c, 0, 84, 0
2, 36161, Note_on_c, 0, 57, 67
2, 36161, Note_on_c, 0, 60, 67
2, 36161, Note_on_c, 0, 65, 62
2, 36161, Note_on_c, 0, 81, 64
2, 36165, Note_on_c, 0, 72, 0
2, 36165, Note_on_c, 0, 69, 64
2, 36189, Note_on_c, 0, 65, 0
2, 36254, Note_on_c, 0, 65, 64
2, 36266, Note_on_c, 0, 81, 0
2, 36266, Note_on_c, 0, 69, 0
2, 36266, Note_on_c, 0, 57, 0
2, 36266, Note_on_c, 0, 60, 0
2, 36270, Note_on_c, 0, 77, 64
2, 36363, Note_on_c, 0, 74, 66
2, 36363, Note_on_c, 0, 48, 64
2, 36367, Note_on_c, 0, 77, 0
2, 36367, Note_on_c, 0, 65, 0
2, 36367, Note_on_c, 0, 62, 63
2, 36375, Note_on_c, 0, 36, 55
2, 36464, Note_on_c, 0, 60, 64
2, 36464, Note_on_c, 0, 72, 69
2, 36472, Note_on_c, 0, 74, 0
2, 36478, Note_on_c, 0, 62, 0
2, 36494, Note_on_c, 0, 60, 0
2, 36564, Note_on_c, 0, 65, 67
2, 36564, Note_on_c, 0, 60, 64
2, 36570, Note_on_c, 0, 57, 60
2, 36651, Note_on_c, 0, 57, 0
2, 36651, Note_on_c, 0, 60, 0
2, 36679, Note_on_c, 0, 65, 0
2, 36701, Note_on_c, 0, 72, 0
2, 36706, Note_on_c, 0, 48, 0
2, 36710, Note_on_c, 0, 36, 0
2, 36720, Control_c, 0, 64, 127
2, 36758, Control_c, 0, 64, 0
2, 36770, Note_on_c, 0, 69, 69
2, 36770, Note_on_c, 0, 53, 61
2, 36776, Note_on_c, 0, 57, 59
2, 36780, Note_on_c, 0, 41, 59
2, 36873, Note_on_c, 0, 68, 68
2, 36879, Note_on_c, 0, 57, 0
2, 36879, Note_on_c, 0, 69, 0
2, 36879, Note_on_c, 0, 53, 0
2, 36887, Note_on_c, 0, 41, 0
2, 36903, Note_on_c, 0, 56, 62
2, 36980, Note_on_c, 0, 65, 63
2, 36980, Note_on_c, 0, 69, 65
2, 36984, Note_on_c, 0, 56, 0
2, 36984, Note_on_c, 0, 68, 0
2, 36984, Note_on_c, 0, 60, 62
2, 36987, Note_on_c, 0, 57, 60
2, 37006, Note_on_c, 0, 69, 0
2, 37087, Note_on_c, 0, 57, 0
2, 37087, Note_on_c, 0, 69, 60
2, 37087, Note_on_c, 0, 79, 60
2, 37091, Note_on_c, 0, 60, 0
2, 37091, Note_on_c, 0, 72, 65
2, 37119, Note_on_c, 0, 65, 0
2, 37188, Note_on_c, 0, 48, 64
2, 37200, Note_on_c, 0, 36, 58
2, 37289, Note_on_c, 0, 79, 0
2, 37289, Note_on_c, 0, 72, 0
2, 37289, Note_on_c, 0, 69, 0
2, 37289, Note_on_c, 0, 65, 60
2, 37299, Note_on_c, 0, 48, 0
2, 37299, Note_on_c, 0, 77, 63
2, 37327, Note_on_c, 0, 36, 0
2, 37391, Note_on_c, 0, 77, 0
2, 37391, Note_on_c, 0, 60, 64
2, 37391, Note_on_c, 0, 72, 69
2, 37395, Note_on_c, 0, 57, 60
2, 37498, Note_on_c, 0, 72, 0
2, 37498, Note_on_c, 0, 69, 70
2, 37502, Note_on_c, 0, 60, 0
2, 37529, Note_on_c, 0, 65, 0
2, 37599, Note_on_c, 0, 69, 0
2, 37599, Note_on_c, 0, 74, 70
2, 37605, Note_on_c, 0, 57, 0
2, 37605, Note_on_c, 0, 42, 57
2, 37605, Note_on_c, 0, 54, 59
2, 37656, Control_c, 0, 64, 127
2, 37682, Control_c, 0, 64, 0
2, 37702, Note_on_c, 0, 78, 66
2, 37706, Note_on_c, 0, 54, 0
2, 37706, Note_on_c, 0, 74, 0
2, 37739, Note_on_c, 0, 42, 0
2, 37803, Note_on_c, 0, 81, 68
2, 37807, Note_on_c, 0, 60, 62
2, 37807, Note_on_c, 0, 57, 60
2, 37813, Note_on_c, 0, 78, 0
2, 37813, Note_on_c, 0, 62, 61
2, 37908, Note_on_c, 0, 81, 0
2, 37908, Note_on_c, 0, 57, 0
2, 37912, Note_on_c, 0, 74, 67
2, 37916, Note_on_c, 0, 60, 0
2, 37916, Note_on_c, 0, 62, 0
2, 37916, Note_on_c, 0, 86, 63
2, 38013, Note_on_c, 0, 50, 59
2, 38017, Note_on_c, 0, 38, 60
2, 38062, Note_on_c, 0, 86, 0
2, 38066, Note_on_c, 0, 74, 0
2, 38110, Note_on_c, 0, 84, 71
2, 38116, Note_on_c, 0, 50, 0
2, 38120, Note_on_c, 0, 38, 0
2, 38203, Note_on_c, 0, 81, 69
2, 38211, Note_on_c, 0, 84, 0
2, 38211, Note_on_c, 0, 60, 63
2, 38211, Note_on_c, 0, 57, 60
2, 38217, Note_on_c, 0, 62, 61
2, 38312, Note_on_c, 0, 78, 68
2, 38316, Note_on_c, 0, 57, 0
2, 38316, Note_on_c, 0, 81, 0
2, 38320, Note_on_c, 0, 60, 0
2, 38326, Note_on_c, 0, 62, 0
2, 38411, Note_on_c, 0, 74, 69
2, 38415, Note_on_c, 0, 42, 58
2, 38415, Control_c, 0, 64, 127
2, 38421, Note_on_c, 0, 78, 0
2, 38421, Note_on_c, 0, 54, 60
2, 38508, Note_on_c, 0, 78, 68
2, 38516, Note_on_c, 0, 54, 0
2, 38542, Note_on_c, 0, 74, 0
2, 38546, Note_on_c, 0, 42, 0
2, 38599, Control_c, 0, 64, 0
2, 38603, Note_on_c, 0, 81, 71
2, 38613, Note_on_c, 0, 60, 66
2, 38613, Note_on_c, 0, 57, 64
2, 38613, Note_on_c, 0, 62, 64
2, 38639, Note_on_c, 0, 78, 0
2, 38714, Note_on_c, 0, 81, 0
2, 38714, Note_on_c, 0, 74, 71
2, 38720, Note_on_c, 0, 57, 0
2, 38726, Note_on_c, 0, 62, 0
2, 38744, Note_on_c, 0, 60, 0
2, 38744, Note_on_c, 0, 86, 70
2, 38823, Note_on_c, 0, 50, 59
2, 38823, Note_on_c, 0, 38, 60
2, 38870, Note_on_c, 0, 86, 0
2, 38874, Note_on_c, 0, 74, 0
2, 38918, Note_on_c, 0, 84, 70
2, 38926, Note_on_c, 0, 50, 0
2, 38930, Note_on_c, 0, 38, 0
2, 39009, Note_on_c, 0, 81, 69
2, 39015, Note_on_c, 0, 84, 0
2, 39015, Note_on_c, 0, 57, 60
2, 39015, Note_on_c, 0, 60, 62
2, 39019, Note_on_c, 0, 62, 62
2, 39116, Note_on_c, 0, 78, 68
2, 39122, Note_on_c, 0, 57, 0
2, 39122, Note_on_c, 0, 81, 0
2, 39126, Note_on_c, 0, 62, 0
2, 39126, Note_on_c, 0, 60, 0
2, 39217, Note_on_c, 0, 74, 71
2, 39221, Note_on_c, 0, 42, 59
2, 39229, Note_on_c, 0, 78, 0
2, 39233, Note_on_c, 0, 54, 60
2, 39286, Control_c, 0, 64, 127
2, 39320, Note_on_c, 0, 73, 69
2, 39330, Note_on_c, 0, 54, 0
2, 39330, Note_on_c, 0, 74, 0
2, 39334, Control_c, 0, 64, 0
2, 39361, Note_on_c, 0, 42, 0
2, 39425, Note_on_c, 0, 74, 67
2, 39431, Note_on_c, 0, 73, 0
2, 39431, Note_on_c, 0, 60, 61
2, 39435, Note_on_c, 0, 57, 58
2, 39435, Note_on_c, 0, 62, 61
2, 39530, Note_on_c, 0, 57, 0
2, 39530, Note_on_c, 0, 74, 0
2, 39530, Note_on_c, 0, 75, 67
2, 39534, Note_on_c, 0, 60, 0
2, 39538, Note_on_c, 0, 62, 0
2, 39605, Note_on_c, 0, 75, 0
2, 39629, Note_on_c, 0, 74, 71
2, 39638, Note_on_c, 0, 50, 59
2, 39638, Note_on_c, 0, 38, 60
2, 39745, Note_on_c, 0, 50, 0
2, 39745, Note_on_c, 0, 74, 0
2, 39745, Note_on_c, 0, 72, 70
2, 39749, Note_on_c, 0, 38, 0
2, 39842, Note_on_c, 0, 70, 69
2, 39846, Note_on_c, 0, 72, 0
2, 39846, Note_on_c, 0, 60, 62
2, 39846, Note_on_c, 0, 57, 60
2, 39846, Note_on_c, 0, 62, 62
2, 39923, Note_on_c, 0, 57, 0
2, 39927, Note_on_c, 0, 70, 0
2, 39927, Note_on_c, 0, 60, 0
2, 39931, Note_on_c, 0, 62, 0
2, 39969, Note_on_c, 0, 69, 71
2, 40044, Note_on_c, 0, 70, 70
2, 40048, Note_on_c, 0, 69, 0
2, 40048, Note_on_c, 0, 55, 60
2, 40056, Note_on_c, 0, 43, 60
2, 40099, Control_c, 0, 64, 127
2, 40149, Note_on_c, 0, 67, 67
2, 40153, Note_on_c, 0, 43, 0
2, 40153, Note_on_c, 0, 70, 0
2, 40153, Note_on_c, 0, 55, 0
2, 40171, Control_c, 0, 64, 0
2, 40250, Note_on_c, 0, 58, 64
2, 40250, Note_on_c, 0, 70, 67
2, 40254, Note_on_c, 0, 67, 0
2, 40254, Note_on_c, 0, 62, 64
2, 40333, Note_on_c, 0, 70, 0
2, 40333, Note_on_c, 0, 58, 0
2, 40339, Note_on_c, 0, 62, 0
2, 40349, Note_on_c, 0, 74, 71
2, 40452, Note_on_c, 0, 58, 64
2, 40459, Note_on_c, 0, 70, 64
2, 40459, Note_on_c, 0, 67, 60
2, 40459, Note_on_c, 0, 79, 59
2, 40459, Note_on_c, 0, 62, 64
2, 40661, Note_on_c, 0, 79, 0
2, 40661, Note_on_c, 0, 67, 0
2, 40665, Note_on_c, 0, 70, 0
2, 40665, Note_on_c, 0, 74, 0
2, 40766, Note_on_c, 0, 58, 0
2, 40772, Note_on_c, 0, 62, 0
2, 40853, Note_on_c, 0, 74, 71
2, 40853, Note_on_c, 0, 58, 64
2, 40861, Control_c, 0, 64, 127
2, 40867, Note_on_c, 0, 46, 61
2, 40966, Note_on_c, 0, 73, 70
2, 40975, Note_on_c, 0, 58, 0
2, 40975, Control_c, 0, 64, 0
2, 41003, Note_on_c, 0, 46, 0
2, 41025, Note_on_c, 0, 74, 0
2, 41066, Note_on_c, 0, 58, 68
2, 41070, Note_on_c, 0, 74, 56
2, 41070, Note_on_c, 0, 65, 64
2, 41070, Note_on_c, 0, 67, 64
2, 41070, Note_on_c, 0, 62, 67
2, 41076, Note_on_c, 0, 73, 0
2, 41169, Note_on_c, 0, 81, 68
2, 41173, Note_on_c, 0, 67, 0
2, 41173, Note_on_c, 0, 58, 0
2, 41177, Note_on_c, 0, 65, 0
2, 41177, Note_on_c, 0, 74, 0
2, 41181, Note_on_c, 0, 62, 0
2, 41268, Note_on_c, 0, 58, 64
2, 41274, Note_on_c, 0, 46, 62
2, 41294, Note_on_c, 0, 81, 0
2, 41369, Note_on_c, 0, 79, 68
2, 41479, Note_on_c, 0, 79, 0
2, 41483, Note_on_c, 0, 58, 0
2, 41483, Note_on_c, 0, 77, 67
2, 41483, Note_on_c, 0, 47, 59
2, 41487, Note_on_c, 0, 46, 0
2, 41503, Note_on_c, 0, 59, 62
2, 41576, Note_on_c, 0, 77, 0
2, 41576, Note_on_c, 0, 74, 70
2, 41673, Note_on_c, 0, 69, 68
2, 41677, Note_on_c, 0, 59, 0
2, 41677, Note_on_c, 0, 60, 62
2, 41677, Note_on_c, 0, 48, 63
2, 41681, Note_on_c, 0, 47, 0
2, 41681, Note_on_c, 0, 74, 0
2, 41697, Control_c, 0, 64, 127
2, 41730, Control_c, 0, 64, 0
2, 41772, Note_on_c, 0, 68, 68
2, 41778, Note_on_c, 0, 69, 0
2, 41778, Note_on_c, 0, 60, 0
2, 41877, Note_on_c, 0, 60, 64
2, 41877, Note_on_c, 0, 65, 64
2, 41880, Note_on_c, 0, 68, 0
2, 41880, Note_on_c, 0, 69, 66
2, 41880, Note_on_c, 0, 57, 63
2, 41983, Note_on_c, 0, 57, 0
2, 41983, Note_on_c, 0, 74, 69
2, 41987, Note_on_c, 0, 65, 0
2, 41987, Note_on_c, 0, 69, 0
2, 41987, Note_on_c, 0, 60, 0
2, 41991, Note_on_c, 0, 48, 0
2, 42078, Note_on_c, 0, 48, 65
2, 42094, Note_on_c, 0, 36, 57
2, 42161, Note_on_c, 0, 74, 0
2, 42187, Note_on_c, 0, 72, 71
2, 42212, Note_on_c, 0, 48, 0
2, 42216, Note_on_c, 0, 36, 0
2, 42272, Note_on_c, 0, 65, 67
2, 42283, Note_on_c, 0, 72, 0
2, 42283, Note_on_c, 0, 60, 64
2, 42283, Note_on_c, 0, 57, 60
2, 42384, Note_on_c, 0, 66, 69
2, 42388, Note_on_c, 0, 57, 0
2, 42388, Note_on_c, 0, 65, 0
2, 42388, Note_on_c, 0, 60, 0
2, 42481, Note_on_c, 0, 67, 68
2, 42485, Note_on_c, 0, 52, 61
2, 42489, Note_on_c, 0, 40, 59
2, 42495, Note_on_c, 0, 66, 0
2, 42534, Control_c, 0, 64, 127
2, 42595, Note_on_c, 0, 67, 0
2, 42599, Note_on_c, 0, 52, 0
2, 42599, Note_on_c, 0, 72, 69
2, 42599, Control_c, 0, 64, 0
2, 42603, Note_on_c, 0, 40, 0
2, 42690, Note_on_c, 0, 58, 63
2, 42690, Note_on_c, 0, 60, 61
2, 42696, Note_on_c, 0, 64, 59
2, 42767, Note_on_c, 0, 72, 0
2, 42791, Note_on_c, 0, 66, 70
2, 42797, Note_on_c, 0, 58, 0
2, 42797, Note_on_c, 0, 60, 0
2, 42822, Note_on_c, 0, 64, 0
2, 42889, Note_on_c, 0, 67, 68
2, 42895, Note_on_c, 0, 48, 64
2, 42903, Note_on_c, 0, 66, 0
2, 42903, Note_on_c, 0, 36, 57
2, 42917, Note_on_c, 0, 67, 0
2, 42998, Note_on_c, 0, 67, 60
2, 42998, Note_on_c, 0, 70, 64
2, 42998, Note_on_c, 0, 79, 60
2, 43004, Note_on_c, 0, 48, 0
2, 43010, Note_on_c, 0, 36, 0
2, 43095, Note_on_c, 0, 58, 62
2, 43095, Note_on_c, 0, 60, 62
2, 43095, Note_on_c, 0, 64, 60
2, 43101, Note_on_c, 0, 79, 0
2, 43101, Note_on_c, 0, 67, 0
2, 43105, Note_on_c, 0, 70, 0
2, 43197, Note_on_c, 0, 65, 60
2, 43203, Note_on_c, 0, 69, 64
2, 43207, Note_on_c, 0, 77, 62
2, 43227, Note_on_c, 0, 58, 0
2, 43227, Note_on_c, 0, 60, 0
2, 43227, Note_on_c, 0, 64, 0
2, 43300, Note_on_c, 0, 53, 60
2, 43304, Note_on_c, 0, 57, 58
2, 43304, Note_on_c, 0, 60, 62
2, 43361, Control_c, 0, 64, 127
2, 43377, Note_on_c, 0, 57, 0
2, 43377, Note_on_c, 0, 53, 0
2, 43406, Note_on_c, 0, 60, 0
2, 43410, Control_c, 0, 64, 0
2, 43428, Note_on_c, 0, 69, 0
2, 43428, Note_on_c, 0, 77, 0
2, 43432, Note_on_c, 0, 65, 0
2, 43501, Note_on_c, 0, 84, 65
2, 43509, Note_on_c, 0, 72, 68
2, 43602, Note_on_c, 0, 74, 64
2, 43606, Note_on_c, 0, 72, 0
2, 43606, Note_on_c, 0, 84, 0
2, 43614, Note_on_c, 0, 86, 64
2, 43710, Note_on_c, 0, 86, 0
2, 43710, Note_on_c, 0, 88, 64
2, 43714, Note_on_c, 0, 74, 0
2, 43714, Note_on_c, 0, 76, 64
2, 43815, Note_on_c, 0, 76, 0
2, 43815, Note_on_c, 0, 88, 0
2, 43815, Note_on_c, 0, 89, 64
2, 43815, Note_on_c, 0, 77, 63
2, 43911, Note_on_c, 0, 91, 64
2, 43911, Note_on_c, 0, 79, 61
2, 43915, Note_on_c, 0, 77, 0
2, 43915, Note_on_c, 0, 89, 0
2, 44014, Note_on_c, 0, 91, 0
2, 44014, Note_on_c, 0, 79, 0
2, 44014, Note_on_c, 0, 81, 65
2, 44014, Note_on_c, 0, 93, 69
2, 44111, Note_on_c, 0, 94, 70
2, 44122, Note_on_c, 0, 81, 0
2, 44122, Note_on_c, 0, 82, 64
2, 44122, Note_on_c, 0, 55, 60
2, 44130, Note_on_c, 0, 93, 0
2, 44130, Note_on_c, 0, 43, 60
2, 44146, Control_c, 0, 64, 127
2, 44199, Note_on_c, 0, 94, 0
2, 44199, Note_on_c, 0, 82, 0
2, 44227, Note_on_c, 0, 88, 70
2, 44231, Note_on_c, 0, 55, 0
2, 44231, Note_on_c, 0, 43, 0
2, 44320, Note_on_c, 0, 91, 69
2, 44326, Note_on_c, 0, 58, 65
2, 44326, Note_on_c, 0, 60, 64
2, 44333, Note_on_c, 0, 88, 0
2, 44333, Note_on_c, 0, 64, 61
2, 44412, Control_c, 0, 64, 0
2, 44430, Note_on_c, 0, 91, 0
2, 44430, Note_on_c, 0, 93, 66
2, 44430, Note_on_c, 0, 88, 65
2, 44433, Note_on_c, 0, 60, 0
2, 44433, Note_on_c, 0, 64, 0
2, 44433, Note_on_c, 0, 58, 0
2, 44433, Note_on_c, 0, 82, 66
2, 44527, Note_on_c, 0, 48, 68
2, 44538, Note_on_c, 0, 36, 61
2, 44558, Note_on_c, 0, 88, 0
2, 44590, Note_on_c, 0, 93, 0
2, 44613, Note_on_c, 0, 82, 0
2, 44663, Note_on_c, 0, 88, 71
2, 44669, Note_on_c, 0, 48, 0
2, 44669, Note_on_c, 0, 36, 0
2, 44736, Note_on_c, 0, 58, 63
2, 44736, Note_on_c, 0, 91, 62
2, 44740, Note_on_c, 0, 82, 64
2, 44740, Note_on_c, 0, 60, 60
2, 44743, Note_on_c, 0, 79, 58
2, 44743, Note_on_c, 0, 64, 59
2, 44769, Note_on_c, 0, 88, 0
2, 44840, Note_on_c, 0, 82, 0
2, 44840, Note_on_c, 0, 79, 0
2, 44844, Note_on_c, 0, 60, 0
2, 44844, Note_on_c, 0, 58, 0
2, 44844, Note_on_c, 0, 64, 0
2, 44866, Note_on_c, 0, 91, 0
2, 44895, Control_c, 0, 64, 127
2, 44939, Note_on_c, 0, 67, 64
2, 44939, Note_on_c, 0, 79, 61
2, 44939, Note_on_c, 0, 52, 60
2, 44943, Note_on_c, 0, 40, 59
2, 44950, Control_c, 0, 64, 0
2, 45041, Note_on_c, 0, 79, 0
2, 45041, Note_on_c, 0, 67, 0
2, 45041, Note_on_c, 0, 78, 60
2, 45041, Note_on_c, 0, 66, 62
2, 45049, Note_on_c, 0, 52, 0
2, 45049, Note_on_c, 0, 40, 0
2, 45142, Note_on_c, 0, 58, 68
2, 45142, Note_on_c, 0, 79, 61
2, 45142, Note_on_c, 0, 67, 64
2, 45149, Note_on_c, 0, 64, 64
2, 45149, Note_on_c, 0, 60, 65
2, 45153, Note_on_c, 0, 78, 0
2, 45153, Note_on_c, 0, 66, 0
2, 45246, Note_on_c, 0, 67, 0
2, 45246, Note_on_c, 0, 74, 64
2, 45250, Note_on_c, 0, 58, 0
2, 45250, Note_on_c, 0, 79, 0
2, 45250, Note_on_c, 0, 64, 0
2, 45254, Note_on_c, 0, 60, 0
2, 45254, Note_on_c, 0, 86, 62
2, 45346, Note_on_c, 0, 48, 65
2, 45356, Note_on_c, 0, 36, 58
2, 45396, Note_on_c, 0, 86, 0
2, 45400, Note_on_c, 0, 74, 0
2, 45449, Note_on_c, 0, 84, 66
2, 45453, Note_on_c, 0, 48, 0
2, 45453, Note_on_c, 0, 72, 68
2, 45484, Note_on_c, 0, 36, 0
2, 45545, Note_on_c, 0, 58, 62
2, 45545, Note_on_c, 0, 60, 61
2, 45545, Note_on_c, 0, 67, 63
2, 45549, Note_on_c, 0, 72, 0
2, 45549, Note_on_c, 0, 79, 62
2, 45549, Note_on_c, 0, 64, 59
2, 45569, Note_on_c, 0, 84, 0
2, 45642, Note_on_c, 0, 80, 62
2, 45642, Note_on_c, 0, 68, 64
2, 45648, Note_on_c, 0, 79, 0
2, 45648, Note_on_c, 0, 67, 0
2, 45652, Note_on_c, 0, 60, 0
2, 45652, Note_on_c, 0, 58, 0
2, 45652, Note_on_c, 0, 64, 0
2, 45746, Note_on_c, 0, 81, 68
2, 45746, Note_on_c, 0, 53, 63
2, 45752, Note_on_c, 0, 68, 0
2, 45752, Note_on_c, 0, 80, 0
2, 45756, Note_on_c, 0, 41, 60
2, 45770, Note_on_c, 0, 69, 69
2, 45823, Control_c, 0, 64, 127
2, 45847, Note_on_c, 0, 81, 0
2, 45847, Note_on_c, 0, 60, 64
2, 45851, Note_on_c, 0, 53, 0
2, 45851, Note_on_c, 0, 69, 0
2, 45855, Note_on_c, 0, 41, 0
2, 45855, Note_on_c, 0, 72, 68
2, 45880, Note_on_c, 0, 60, 0
2, 45947, Note_on_c, 0, 74, 68
2, 45951, Note_on_c, 0, 72, 0
2, 45951, Note_on_c, 0, 60, 64
2, 45951, Note_on_c, 0, 57, 59
2, 45957, Note_on_c, 0, 62, 60
2, 46050, Note_on_c, 0, 63, 66
2, 46050, Note_on_c, 0, 75, 70
2, 46057, Note_on_c, 0, 57, 0
2, 46057, Note_on_c, 0, 74, 0
2, 46057, Note_on_c, 0, 60, 0
2, 46063, Note_on_c, 0, 62, 0
2, 46152, Note_on_c, 0, 75, 0
2, 46152, Note_on_c, 0, 48, 67
2, 46152, Note_on_c, 0, 64, 65
2, 46156, Note_on_c, 0, 63, 0
2, 46156, Note_on_c, 0, 76, 71
2, 46166, Note_on_c, 0, 36, 60
2, 46252, Note_on_c, 0, 65, 67
2, 46260, Note_on_c, 0, 76, 0
2, 46260, Note_on_c, 0, 48, 0
2, 46260, Note_on_c, 0, 64, 0
2, 46260, Note_on_c, 0, 77, 67
2, 46268, Note_on_c, 0, 36, 0
2, 46321, Control_c, 0, 64, 0
2, 46355, Note_on_c, 0, 58, 67
2, 46359, Note_on_c, 0, 77, 0
2, 46359, Note_on_c, 0, 60, 65
2, 46359, Note_on_c, 0, 64, 63
2, 46359, Note_on_c, 0, 79, 64
2, 46359, Note_on_c, 0, 67, 67
2, 46388, Note_on_c, 0, 65, 0
2, 46435, Note_on_c, 0, 79, 0
2, 46435, Note_on_c, 0, 67, 0
2, 46439, Note_on_c, 0, 58, 0
2, 46439, Note_on_c, 0, 64, 0
2, 46439, Note_on_c, 0, 60, 0
2, 46457, Note_on_c, 0, 68, 70
2, 46461, Note_on_c, 0, 80, 68
2, 46542, Note_on_c, 0, 80, 0
2, 46542, Note_on_c, 0, 68, 0
2, 46563, Note_on_c, 0, 81, 67
2, 46563, Note_on_c, 0, 53, 62
2, 46567, Note_on_c, 0, 69, 66
2, 46571, Note_on_c, 0, 41, 60
2, 46658, Note_on_c, 0, 68, 66
2, 46658, Note_on_c, 0, 80, 64
2, 46668, Note_on_c, 0, 69, 0
2, 46668, Note_on_c, 0, 81, 0
2, 46668, Note_on_c, 0, 53, 0
2, 46672, Note_on_c, 0, 41, 0
2, 46764, Note_on_c, 0, 81, 60
2, 46768, Note_on_c, 0, 60, 63
2, 46768, Note_on_c, 0, 65, 58
2, 46768, Note_on_c, 0, 69, 59
2, 46772, Note_on_c, 0, 68, 0
2, 46772, Note_on_c, 0, 80, 0
2, 46772, Note_on_c, 0, 57, 60
2, 46792, Note_on_c, 0, 81, 0
2, 46872, Note_on_c, 0, 69, 0
2, 46872, Note_on_c, 0, 81, 60
2, 46876, Note_on_c, 0, 60, 0
2, 46876, Note_on_c, 0, 57, 0
2, 46876, Note_on_c, 0, 65, 0
2, 46879, Note_on_c, 0, 91, 60
2, 46879, Note_on_c, 0, 84, 61
2, 46977, Note_on_c, 0, 48, 64
2, 46985, Note_on_c, 0, 36, 58
2, 47079, Note_on_c, 0, 84, 0
2, 47079, Note_on_c, 0, 81, 0
2, 47079, Note_on_c, 0, 91, 0
2, 47079, Note_on_c, 0, 89, 65
2, 47083, Note_on_c, 0, 77, 64
2, 47087, Note_on_c, 0, 48, 0
2, 47087, Note_on_c, 0, 36, 0
2, 47179, Note_on_c, 0, 57, 60
2, 47183, Note_on_c, 0, 77, 0
2, 47183, Note_on_c, 0, 65, 58
2, 47183, Note_on_c, 0, 60, 62
2, 47183, Note_on_c, 0, 79, 57
2, 47183, Note_on_c, 0, 67, 58
2, 47187, Note_on_c, 0, 89, 0
2, 47278, Note_on_c, 0, 67, 0
2, 47278, Note_on_c, 0, 81, 64
2, 47284, Note_on_c, 0, 60, 0
2, 47284, Note_on_c, 0, 79, 0
2, 47284, Note_on_c, 0, 57, 0
2, 47284, Note_on_c, 0, 65, 0
2, 47289, Note_on_c, 0, 69, 63
2, 47386, Note_on_c, 0, 82, 64
2, 47386, Note_on_c, 0, 70, 64
2, 47390, Note_on_c, 0, 69, 0
2, 47390, Note_on_c, 0, 81, 0
2, 47390, Note_on_c, 0, 55, 60
2, 47394, Note_on_c, 0, 43, 60
2, 47431, Control_c, 0, 64, 127
2, 47466, Note_on_c, 0, 82, 0
2, 47492, Control_c, 0, 64, 0
2, 47492, Note_on_c, 0, 96, 70
2, 47496, Note_on_c, 0, 43, 0
2, 47496, Note_on_c, 0, 55, 0
2, 47496, Note_on_c, 0, 84, 66
2, 47583, Note_on_c, 0, 94, 68
2, 47590, Note_on_c, 0, 82, 65
2, 47590, Note_on_c, 0, 58, 63
2, 47594, Note_on_c, 0, 84, 0
2, 47594, Note_on_c, 0, 64, 59
2, 47594, Note_on_c, 0, 60, 61
2, 47600, Note_on_c, 0, 70, 0
2, 47618, Note_on_c, 0, 96, 0
2, 47691, Note_on_c, 0, 94, 0
2, 47691, Note_on_c, 0, 91, 65
2, 47697, Note_on_c, 0, 82, 0
2, 47697, Note_on_c, 0, 58, 0
2, 47697, Note_on_c, 0, 64, 0
2, 47697, Note_on_c, 0, 60, 0
2, 47697, Note_on_c, 0, 79, 63
2, 47797, Note_on_c, 0, 48, 64
2, 47801, Note_on_c, 0, 79, 0
2, 47809, Note_on_c, 0, 36, 57
2, 47826, Note_on_c, 0, 91, 0
2, 47826, Note_on_c, 0, 88, 66
2, 47826, Note_on_c, 0, 76, 65
2, 47901, Note_on_c, 0, 96, 68
2, 47907, Note_on_c, 0, 76, 0
2, 47907, Note_on_c, 0, 48, 0
2, 47907, Note_on_c, 0, 84, 66
2, 47915, Note_on_c, 0, 36, 0
2, 47936, Note_on_c, 0, 88, 0
2, 48003, Note_on_c, 0, 58, 64
2, 48011, Note_on_c, 0, 60, 62
2, 48011, Note_on_c, 0, 64, 60
2, 48080, Note_on_c, 0, 84, 0
2, 48086, Note_on_c, 0, 60, 0
2, 48086, Note_on_c, 0, 64, 0
2, 48086, Note_on_c, 0, 58, 0
2, 48106, Note_on_c, 0, 96, 0
2, 48208, Note_on_c, 0, 82, 67
2, 48208, Note_on_c, 0, 70, 66
2, 48212, Note_on_c, 0, 55, 60
2, 48216, Note_on_c, 0, 43, 60
2, 48267, Control_c, 0, 64, 127
2, 48310, Note_on_c, 0, 81, 65
2, 48314, Note_on_c, 0, 55, 0
2, 48314, Note_on_c, 0, 82, 0
2, 48314, Control_c, 0, 64, 0
2, 48314, Note_on_c, 0, 69, 64
2, 48318, Note_on_c, 0, 70, 0
2, 48318, Note_on_c, 0, 43, 0
2, 48414, Note_on_c, 0, 58, 63
2, 48414, Note_on_c, 0, 70, 61
2, 48418, Note_on_c, 0, 81, 0
2, 48418, Note_on_c, 0, 69, 0
2, 48418, Note_on_c, 0, 82, 63
2, 48418, Note_on_c, 0, 60, 60
2, 48418, Note_on_c, 0, 64, 60
2, 48436, Note_on_c, 0, 82, 0
2, 48514, Note_on_c, 0, 82, 56
2, 48518, Note_on_c, 0, 88, 63
2, 48518, Note_on_c, 0, 93, 67
2, 48522, Note_on_c, 0, 64, 0
2, 48522, Note_on_c, 0, 58, 0
2, 48526, Note_on_c, 0, 60, 0
2, 48526, Note_on_c, 0, 70, 0
2, 48613, Note_on_c, 0, 48, 65
2, 48626, Note_on_c, 0, 36, 58
2, 48666, Note_on_c, 0, 82, 0
2, 48670, Note_on_c, 0, 88, 0
2, 48674, Note_on_c, 0, 93, 0
2, 48713, Note_on_c, 0, 91, 68
2, 48719, Note_on_c, 0, 79, 65
2, 48725, Note_on_c, 0, 36, 0
2, 48725, Note_on_c, 0, 48, 0
2, 48817, Note_on_c, 0, 58, 63
2, 48817, Note_on_c, 0, 88, 64
2, 48821, Note_on_c, 0, 91, 0
2, 48821, Note_on_c, 0, 79, 0
2, 48821, Note_on_c, 0, 64, 60
2, 48824, Note_on_c, 0, 60, 61
2, 48824, Note_on_c, 0, 76, 64
2, 48921, Note_on_c, 0, 76, 0
2, 48921, Note_on_c, 0, 88, 0
2, 48921, Note_on_c, 0, 64, 0
2, 48921, Note_on_c, 0, 58, 0
2, 48925, Note_on_c, 0, 60, 0
2, 48925, Note_on_c, 0, 72, 65
2, 48925, Note_on_c, 0, 84, 64
2, 49017, Note_on_c, 0, 81, 65
2, 49021, Note_on_c, 0, 84, 0
2, 49021, Note_on_c, 0, 72, 0
2, 49021, Note_on_c, 0, 69, 64
2, 49024, Note_on_c, 0, 53, 63
2, 49029, Note_on_c, 0, 41, 60
2, 49061, Control_c, 0, 64, 127
2, 49110, Control_c, 0, 64, 0
2, 49123, Note_on_c, 0, 81, 0
2, 49123, Note_on_c, 0, 96, 68
2, 49127, Note_on_c, 0, 53, 0
2, 49127, Note_on_c, 0, 84, 64
2, 49131, Note_on_c, 0, 41, 0
2, 49220, Note_on_c, 0, 81, 60
2, 49226, Note_on_c, 0, 60, 62
2, 49226, Note_on_c, 0, 65, 57
2, 49226, Note_on_c, 0, 57, 60
2, 49230, Note_on_c, 0, 84, 0
2, 49230, Note_on_c, 0, 93, 66
2, 49251, Note_on_c, 0, 96, 0
2, 49281, Note_on_c, 0, 69, 0
2, 49330, Note_on_c, 0, 57, 0
2, 49330, Note_on_c, 0, 60, 0
2, 49330, Note_on_c, 0, 81, 0
2, 49330, Note_on_c, 0, 65, 0
2, 49330, Note_on_c, 0, 89, 63
2, 49334, Note_on_c, 0, 93, 0
2, 49334, Note_on_c, 0, 77, 61
2, 49426, Note_on_c, 0, 48, 64
2, 49426, Note_on_c, 0, 74, 64
2, 49432, Note_on_c, 0, 77, 0
2, 49432, Note_on_c, 0, 89, 0
2, 49432, Note_on_c, 0, 86, 60
2, 49440, Note_on_c, 0, 36, 57
2, 49534, Note_on_c, 0, 86, 0
2, 49534, Note_on_c, 0, 84, 64
2, 49538, Note_on_c, 0, 74, 0
2, 49538, Note_on_c, 0, 48, 0
2, 49538, Note_on_c, 0, 72, 66
2, 49544, Note_on_c, 0, 36, 0
2, 49628, Note_on_c, 0, 65, 67
2, 49632, Note_on_c, 0, 60, 64
2, 49632, Note_on_c, 0, 57, 61
2, 49736, Note_on_c, 0, 72, 0
2, 49736, Note_on_c, 0, 84, 0
2, 49740, Note_on_c, 0, 60, 0
2, 49740, Note_on_c, 0, 65, 0
2, 49740, Note_on_c, 0, 57, 0
2, 49832, Note_on_c, 0, 81, 68
2, 49832, Note_on_c, 0, 53, 63
2, 49836, Note_on_c, 0, 69, 67
2, 49842, Note_on_c, 0, 41, 60
2, 49874, Control_c, 0, 64, 127
2, 49917, Control_c, 0, 64, 0
2, 49938, Note_on_c, 0, 68, 64
2, 49938, Note_on_c, 0, 80, 62
2, 49942, Note_on_c, 0, 69, 0
2, 49942, Note_on_c, 0, 81, 0
2, 49946, Note_on_c, 0, 41, 0
2, 49946, Note_on_c, 0, 53, 0
2, 50023, Note_on_c, 0, 80, 0
2, 50040, Note_on_c, 0, 60, 63
2, 50044, Note_on_c, 0, 57, 60
2, 50044, Note_on_c, 0, 81, 62
2, 50044, Note_on_c, 0, 65, 59
2, 50044, Note_on_c, 0, 69, 61
2, 50048, Note_on_c, 0, 68, 0
2, 50068, Note_on_c, 0, 81, 0
2, 50146, Note_on_c, 0, 81, 60
2, 50146, Note_on_c, 0, 91, 61
2, 50150, Note_on_c, 0, 57, 0
2, 50150, Note_on_c, 0, 69, 0
2, 50154, Note_on_c, 0, 65, 0
2, 50154, Note_on_c, 0, 60, 0
2, 50154, Note_on_c, 0, 84, 63
2, 50247, Note_on_c, 0, 48, 64
2, 50260, Note_on_c, 0, 36, 58
2, 50298, Note_on_c, 0, 84, 0
2, 50298, Note_on_c, 0, 81, 0
2, 50298, Note_on_c, 0, 91, 0
2, 50349, Note_on_c, 0, 89, 68
2, 50353, Note_on_c, 0, 77, 65
2, 50384, Note_on_c, 0, 48, 0
2, 50388, Note_on_c, 0, 36, 0
2, 50453, Note_on_c, 0, 60, 63
2, 50453, Note_on_c, 0, 65, 57
2, 50457, Note_on_c, 0, 77, 0
2, 50457, Note_on_c, 0, 84, 60
2, 50457, Note_on_c, 0, 57, 60
2, 50462, Note_on_c, 0, 89, 0
2, 50462, Note_on_c, 0, 72, 63
2, 50557, Note_on_c, 0, 72, 0
2, 50557, Note_on_c, 0, 57, 0
2, 50557, Note_on_c, 0, 81, 65
2, 50557, Note_on_c, 0, 69, 64
2, 50563, Note_on_c, 0, 65, 0
2, 50584, Note_on_c, 0, 84, 0
2, 50592, Note_on_c, 0, 60, 0
2, 50663, Note_on_c, 0, 81, 0
2, 50663, Note_on_c, 0, 74, 65
2, 50667, Note_on_c, 0, 69, 0
2, 50667, Note_on_c, 0, 42, 57
2, 50670, Note_on_c, 0, 86, 64
2, 50670, Note_on_c, 0, 54, 59
2, 50718, Control_c, 0, 64, 127
2, 50757, Note_on_c, 0, 78, 63
2, 50761, Note_on_c, 0, 86, 0
2, 50761, Note_on_c, 0, 90, 67
2, 50765, Note_on_c, 0, 54, 0
2, 50765, Note_on_c, 0, 74, 0
2, 50774, Control_c, 0, 64, 0
2, 50792, Note_on_c, 0, 42, 0
2, 50855, Note_on_c, 0, 81, 69
2, 50865, Note_on_c, 0, 90, 0
2, 50865, Note_on_c, 0, 57, 59
2, 50865, Note_on_c, 0, 60, 61
2, 50869, Note_on_c, 0, 78, 0
2, 50869, Note_on_c, 0, 62, 60
2, 50890, Note_on_c, 0, 93, 72
2, 50969, Note_on_c, 0, 81, 0
2, 50969, Note_on_c, 0, 57, 0
2, 50969, Note_on_c, 0, 98, 67
2, 50973, Note_on_c, 0, 60, 0
2, 50973, Note_on_c, 0, 93, 0
2, 50973, Note_on_c, 0, 62, 0
2, 50973, Note_on_c, 0, 86, 61
2, 51071, Note_on_c, 0, 50, 59
2, 51077, Note_on_c, 0, 38, 59
2, 51147, Note_on_c, 0, 86, 0
2, 51153, Note_on_c, 0, 98, 0
2, 51153, Note_on_c, 0, 50, 0
2, 51161, Note_on_c, 0, 38, 0
2, 51169, Note_on_c, 0, 84, 67
2, 51169, Note_on_c, 0, 96, 71
2, 51251, Note_on_c, 0, 96, 0
2, 51267, Note_on_c, 0, 81, 69
2, 51273, Note_on_c, 0, 84, 0
2, 51273, Note_on_c, 0, 57, 60
2, 51273, Note_on_c, 0, 60, 63
2, 51277, Note_on_c, 0, 62, 61
2, 51298, Note_on_c, 0, 93, 74
2, 51371, Note_on_c, 0, 81, 0
2, 51371, Note_on_c, 0, 78, 64
2, 51371, Note_on_c, 0, 90, 68
2, 51377, Note_on_c, 0, 57, 0
2, 51377, Note_on_c, 0, 60, 0
2, 51382, Note_on_c, 0, 93, 0
2, 51382, Note_on_c, 0, 62, 0
2, 51479, Note_on_c, 0, 90, 0
2, 51479, Note_on_c, 0, 74, 64
2, 51482, Note_on_c, 0, 42, 57
2, 51486, Note_on_c, 0, 78, 0
2, 51486, Note_on_c, 0, 86, 62
2, 51486, Note_on_c, 0, 54, 59
2, 51502, Control_c, 0, 64, 127
2, 51539, Control_c, 0, 64, 0
2, 51579, Note_on_c, 0, 78, 61
2, 51582, Note_on_c, 0, 86, 0
2, 51582, Note_on_c, 0, 90, 67
2, 51586, Note_on_c, 0, 54, 0
2, 51586, Note_on_c, 0, 74, 0
2, 51614, Note_on_c, 0, 42, 0
2, 51675, Note_on_c, 0, 81, 65
2, 51682, Note_on_c, 0, 90, 0
2, 51682, Note_on_c, 0, 60, 64
2, 51682, Note_on_c, 0, 93, 67
2, 51682, Note_on_c, 0, 57, 62
2, 51686, Note_on_c, 0, 62, 63
2, 51690, Note_on_c, 0, 78, 0
2, 51782, Note_on_c, 0, 81, 0
2, 51782, Note_on_c, 0, 98, 71
2, 51786, Note_on_c, 0, 57, 0
2, 51786, Note_on_c, 0, 60, 0
2, 51792, Note_on_c, 0, 93, 0
2, 51792, Note_on_c, 0, 62, 0
2, 51810, Note_on_c, 0, 86, 69
2, 51884, Note_on_c, 0, 50, 59
2, 51890, Note_on_c, 0, 38, 60
2, 51957, Note_on_c, 0, 86, 0
2, 51957, Note_on_c, 0, 98, 0
2, 51984, Note_on_c, 0, 96, 71
2, 51984, Note_on_c, 0, 84, 67
2, 51992, Note_on_c, 0, 50, 0
2, 51996, Note_on_c, 0, 38, 0
2, 52078, Note_on_c, 0, 81, 64
2, 52084, Note_on_c, 0, 84, 0
2, 52084, Note_on_c, 0, 93, 69
2, 52084, Note_on_c, 0, 57, 60
2, 52084, Note_on_c, 0, 60, 62
2, 52090, Note_on_c, 0, 62, 62
2, 52110, Note_on_c, 0, 96, 0
2, 52178, Note_on_c, 0, 78, 64
2, 52178, Note_on_c, 0, 90, 67
2, 52182, Note_on_c, 0, 57, 0
2, 52186, Note_on_c, 0, 81, 0
2, 52186, Note_on_c, 0, 60, 0
2, 52186, Note_on_c, 0, 93, 0
2, 52190, Note_on_c, 0, 62, 0
2, 52284, Note_on_c, 0, 90, 0
2, 52284, Note_on_c, 0, 74, 64
2, 52284, Note_on_c, 0, 42, 58
2, 52288, Note_on_c, 0, 78, 0
2, 52288, Note_on_c, 0, 86, 62
2, 52288, Note_on_c, 0, 54, 60
2, 52331, Control_c, 0, 64, 127
2, 52353, Control_c, 0, 64, 0
2, 52378, Note_on_c, 0, 85, 60
2, 52378, Note_on_c, 0, 73, 63
2, 52384, Note_on_c, 0, 54, 0
2, 52384, Note_on_c, 0, 86, 0
2, 52384, Note_on_c, 0, 74, 0
2, 52414, Note_on_c, 0, 42, 0
2, 52478, Note_on_c, 0, 74, 64
2, 52482, Note_on_c, 0, 57, 60
2, 52482, Note_on_c, 0, 86, 58
2, 52482, Note_on_c, 0, 60, 61
2, 52486, Note_on_c, 0, 85, 0
2, 52486, Note_on_c, 0, 73, 0
2, 52486, Note_on_c, 0, 62, 61
2, 52580, Note_on_c, 0, 86, 0
2, 52580, Note_on_c, 0, 75, 63
2, 52580, Note_on_c, 0, 87, 60
2, 52584, Note_on_c, 0, 74, 0
2, 52584, Note_on_c, 0, 57, 0
2, 52584, Note_on_c, 0, 60, 0
2, 52588, Note_on_c, 0, 62, 0
2, 52678, Note_on_c, 0, 75, 0
2, 52678, Note_on_c, 0, 74, 64
2, 52682, Note_on_c, 0, 87, 0
2, 52686, Note_on_c, 0, 86, 60
2, 52686, Note_on_c, 0, 50, 58
2, 52690, Note_on_c, 0, 38, 59
2, 52786, Note_on_c, 0, 86, 0
2, 52792, Note_on_c, 0, 74, 0
2, 52792, Note_on_c, 0, 50, 0
2, 52792, Note_on_c, 0, 84, 64
2, 52792, Note_on_c, 0, 72, 66
2, 52798, Note_on_c, 0, 38, 0
2, 52886, Note_on_c, 0, 84, 0
2, 52890, Note_on_c, 0, 72, 0
2, 52890, Note_on_c, 0, 70, 63
2, 52890, Note_on_c, 0, 57, 59
2, 52893, Note_on_c, 0, 60, 62
2, 52893, Note_on_c, 0, 82, 64
2, 52893, Note_on_c, 0, 62, 62
2, 52984, Note_on_c, 0, 81, 65
2, 52991, Note_on_c, 0, 82, 0
2, 52991, Note_on_c, 0, 60, 0
2, 52991, Note_on_c, 0, 57, 0
2, 52994, Note_on_c, 0, 70, 0
2, 52994, Note_on_c, 0, 62, 0
2, 52994, Note_on_c, 0, 69, 64
2, 53066, Note_on_c, 0, 69, 0
2, 53085, Note_on_c, 0, 70, 64
2, 53085, Control_c, 0, 64, 127
2, 53089, Note_on_c, 0, 81, 0
2, 53089, Note_on_c, 0, 55, 60
2, 53089, Note_on_c, 0, 82, 63
2, 53099, Note_on_c, 0, 43, 59
2, 53127, Control_c, 0, 64, 0
2, 53197, Note_on_c, 0, 82, 0
2, 53197, Note_on_c, 0, 55, 0
2, 53197, Note_on_c, 0, 67, 62
2, 53201, Note_on_c, 0, 70, 0
2, 53201, Note_on_c, 0, 43, 0
2, 53201, Note_on_c, 0, 79, 60
2, 53297, Note_on_c, 0, 70, 65
2, 53297, Note_on_c, 0, 58, 69
2, 53297, Note_on_c, 0, 62, 67
2, 53301, Note_on_c, 0, 79, 0
2, 53301, Note_on_c, 0, 82, 66
2, 53322, Note_on_c, 0, 67, 0
2, 53399, Note_on_c, 0, 74, 66
2, 53403, Note_on_c, 0, 58, 0
2, 53403, Note_on_c, 0, 82, 0
2, 53403, Note_on_c, 0, 86, 62
2, 53407, Note_on_c, 0, 62, 0
2, 53407, Note_on_c, 0, 70, 0
2, 53424, Note_on_c, 0, 86, 0
2, 53495, Note_on_c, 0, 58, 63
2, 53495, Note_on_c, 0, 62, 66
2, 53499, Note_on_c, 0, 74, 0
2, 53499, Note_on_c, 0, 82, 58
2, 53499, Note_on_c, 0, 91, 56
2, 53506, Note_on_c, 0, 79, 53
2, 53506, Note_on_c, 0, 86, 48
2, 53679, Note_on_c, 0, 86, 0
2, 53679, Note_on_c, 0, 58, 0
2, 53679, Note_on_c, 0, 82, 0
2, 53679, Note_on_c, 0, 79, 0
2, 53687, Note_on_c, 0, 62, 0
2, 53706, Note_on_c, 0, 91, 0
2, 53906, Note_on_c, 0, 58, 64
2, 53912, Note_on_c, 0, 86, 65
2, 53912, Note_on_c, 0, 74, 68
2, 53912, Note_on_c, 0, 46, 61
2, 53933, Control_c, 0, 64, 127
2, 54008, Note_on_c, 0, 73, 65
2, 54011, Note_on_c, 0, 86, 0
2, 54011, Note_on_c, 0, 85, 62
2, 54017, Note_on_c, 0, 46, 0
2, 54017, Note_on_c, 0, 58, 0
2, 54039, Note_on_c, 0, 74, 0
2, 54043, Control_c, 0, 64, 0
2, 54109, Note_on_c, 0, 58, 64
2, 54115, Note_on_c, 0, 73, 0
2, 54115, Note_on_c, 0, 62, 64
2, 54115, Note_on_c, 0, 65, 58
2, 54119, Note_on_c, 0, 67, 60
2, 54119, Note_on_c, 0, 74, 65
2, 54141, Note_on_c, 0, 85, 0
2, 54152, Note_on_c, 0, 86, 67
2, 54213, Note_on_c, 0, 67, 0
2, 54213, Note_on_c, 0, 81, 67
2, 54217, Note_on_c, 0, 58, 0
2, 54217, Note_on_c, 0, 65, 0
2, 54217, Note_on_c, 0, 86, 0
2, 54223, Note_on_c, 0, 62, 0
2, 54223, Note_on_c, 0, 74, 0
2, 54246, Note_on_c, 0, 93, 74
2, 54315, Note_on_c, 0, 58, 64
2, 54321, Note_on_c, 0, 46, 62
2, 54370, Note_on_c, 0, 81, 0
2, 54377, Note_on_c, 0, 93, 0
2, 54418, Note_on_c, 0, 91, 68
2, 54424, Note_on_c, 0, 79, 64
2, 54522, Note_on_c, 0, 79, 0
2, 54522, Note_on_c, 0, 89, 64
2, 54526, Note_on_c, 0, 58, 0
2, 54526, Note_on_c, 0, 47, 58
2, 54530, Note_on_c, 0, 46, 0
2, 54530, Note_on_c, 0, 77, 63
2, 54544, Note_on_c, 0, 91, 0
2, 54548, Note_on_c, 0, 59, 61
2, 54624, Note_on_c, 0, 89, 0
2, 54624, Note_on_c, 0, 77, 0
2, 54624, Note_on_c, 0, 74, 64
2, 54628, Note_on_c, 0, 86, 62
2, 54720, Note_on_c, 0, 81, 65
2, 54724, Note_on_c, 0, 86, 0
2, 54724, Note_on_c, 0, 59, 0
2, 54724, Note_on_c, 0, 60, 61
2, 54724, Note_on_c, 0, 48, 62
2, 54729, Note_on_c, 0, 47, 0
2, 54729, Note_on_c, 0, 69, 64
2, 54753, Note_on_c, 0, 74, 0
2, 54782, Control_c, 0, 64, 127
2, 54827, Note_on_c, 0, 69, 0
2, 54827, Note_on_c, 0, 68, 64
2, 54827, Note_on_c, 0, 80, 62
2, 54835, Note_on_c, 0, 60, 0
2, 54835, Control_c, 0, 64, 0
2, 54851, Note_on_c, 0, 81, 0
2, 54927, Note_on_c, 0, 81, 62
2, 54927, Note_on_c, 0, 60, 64
2, 54931, Note_on_c, 0, 68, 0
2, 54931, Note_on_c, 0, 80, 0
2, 54931, Note_on_c, 0, 69, 57
2, 54931, Note_on_c, 0, 57, 60
2, 54937, Note_on_c, 0, 65, 57
2, 55029, Note_on_c, 0, 69, 0
2, 55029, Note_on_c, 0, 81, 0
2, 55033, Note_on_c, 0, 57, 0
2, 55033, Note_on_c, 0, 60, 0
2, 55033, Note_on_c, 0, 65, 0
2, 55038, Note_on_c, 0, 48, 0
2, 55038, Note_on_c, 0, 74, 64
2, 55042, Note_on_c, 0, 86, 62
2, 55136, Note_on_c, 0, 48, 64
2, 55148, Note_on_c, 0, 36, 57
2, 55187, Note_on_c, 0, 74, 0
2, 55207, Note_on_c, 0, 86, 0
2, 55240, Note_on_c, 0, 84, 67
2, 55240, Note_on_c, 0, 72, 68
2, 55263, Note_on_c, 0, 48, 0
2, 55271, Note_on_c, 0, 36, 0
2, 55334, Note_on_c, 0, 84, 0
2, 55334, Note_on_c, 0, 72, 0
2, 55334, Note_on_c, 0, 65, 61
2, 55338, Note_on_c, 0, 57, 60
2, 55338, Note_on_c, 0, 60, 63
2, 55342, Note_on_c, 0, 77, 64
2, 55408, Note_on_c, 0, 77, 0
2, 55408, Note_on_c, 0, 57, 0
2, 55412, Note_on_c, 0, 60, 0
2, 55412, Note_on_c, 0, 65, 0
2, 55433, Note_on_c, 0, 78, 65
2, 55437, Note_on_c, 0, 66, 66
2, 55537, Note_on_c, 0, 67, 64
2, 55537, Note_on_c, 0, 79, 62
2, 55537, Note_on_c, 0, 52, 62
2, 55562, Note_on_c, 0, 66, 0
2, 55562, Note_on_c, 0, 78, 0
2, 55570, Note_on_c, 0, 40, 59
2, 55611, Control_c, 0, 64, 127
2, 55633, Note_on_c, 0, 79, 0
2, 55633, Note_on_c, 0, 67, 0
2, 55643, Note_on_c, 0, 40, 0
2, 55643, Note_on_c, 0, 84, 64
2, 55643, Note_on_c, 0, 72, 66
2, 55654, Control_c, 0, 64, 0
2, 55666, Note_on_c, 0, 52, 0
2, 55731, Note_on_c, 0, 58, 63
2, 55736, Note_on_c, 0, 60, 60
2, 55740, Note_on_c, 0, 64, 57
2, 55777, Note_on_c, 0, 72, 0
2, 55777, Note_on_c, 0, 84, 0
2, 55832, Note_on_c, 0, 64, 0
2, 55832, Note_on_c, 0, 78, 64
2, 55832, Note_on_c, 0, 66, 66
2, 55836, Note_on_c, 0, 58, 0
2, 55836, Note_on_c, 0, 60, 0
2, 55938, Note_on_c, 0, 78, 0
2, 55938, Note_on_c, 0, 66, 0
2, 55938, Note_on_c, 0, 67, 60
2, 55938, Note_on_c, 0, 79, 59
2, 55938, Note_on_c, 0, 48, 64
2, 55949, Note_on_c, 0, 36, 57
2, 55961, Note_on_c, 0, 79, 0
2, 56039, Note_on_c, 0, 67, 0
2, 56043, Note_on_c, 0, 91, 60
2, 56043, Note_on_c, 0, 82, 64
2, 56049, Note_on_c, 0, 79, 52
2, 56071, Note_on_c, 0, 48, 0
2, 56076, Note_on_c, 0, 36, 0
2, 56137, Note_on_c, 0, 79, 0
2, 56137, Note_on_c, 0, 91, 0
2, 56137, Note_on_c, 0, 58, 63
2, 56143, Note_on_c, 0, 82, 0
2, 56143, Note_on_c, 0, 60, 61
2, 56143, Note_on_c, 0, 64, 59
2, 56241, Note_on_c, 0, 64, 0
2, 56241, Note_on_c, 0, 60, 0
2, 56241, Note_on_c, 0, 58, 0
2, 56241, Note_on_c, 0, 81, 60
2, 56248, Note_on_c, 0, 89, 59
2, 56252, Note_on_c, 0, 84, 59
2, 56252, Note_on_c, 0, 77, 57
2, 56346, Note_on_c, 0, 53, 58
2, 56346, Note_on_c, 0, 57, 57
2, 56346, Note_on_c, 0, 60, 59
2, 56358, Note_on_c, 0, 41, 55
2, 56373, Control_c, 0, 64, 127
2, 56399, Control_c, 0, 64, 0
2, 56420, Note_on_c, 0, 53, 0
2, 56426, Note_on_c, 0, 41, 0
2, 56551, Note_on_c, 0, 48, 65
2, 56563, Note_on_c, 0, 36, 58
2, 56655, Note_on_c, 0, 36, 0
2, 56655, Note_on_c, 0, 48, 0
2, 56655, Note_on_c, 0, 49, 60
2, 56655, Note_on_c, 0, 37, 59
2, 56754, Note_on_c, 0, 49, 0
2, 56758, Note_on_c, 0, 37, 0
2, 56758, Note_on_c, 0, 50, 57
2, 56762, Note_on_c, 0, 38, 58
2, 56856, Note_on_c, 0, 57, 0
2, 56860, Note_on_c, 0, 38, 0
2, 56860, Note_on_c, 0, 50, 0
2, 56860, Note_on_c, 0, 51, 59
2, 56860, Note_on_c, 0, 39, 58
2, 56887, Note_on_c, 0, 60, 0
2, 56940, Note_on_c, 0, 39, 0
2, 56955, Note_on_c, 0, 84, 0
2, 56955, Note_on_c, 0, 81, 0
2, 56959, Note_on_c, 0, 51, 0
2, 56959, Note_on_c, 0, 77, 0
2, 56963, Note_on_c, 0, 89, 0
2, 56963, Note_on_c, 0, 52, 60
2, 56963, Note_on_c, 0, 40, 59
2, 57067, Note_on_c, 0, 55, 60
2, 57071, Note_on_c, 0, 40, 0
2, 57071, Note_on_c, 0, 43, 60
2, 57094, Note_on_c, 0, 52, 0
2, 57164, Note_on_c, 0, 69, 69
2, 57168, Note_on_c, 0, 55, 0
2, 57168, Note_on_c, 0, 53, 60
2, 57172, Note_on_c, 0, 43, 0
2, 57172, Note_on_c, 0, 57, 59
2, 57176, Note_on_c, 0, 41, 58
2, 57215, Control_c, 0, 64, 127
2, 57239, Note_on_c, 0, 69, 0
2, 57244, Note_on_c, 0, 53, 0
2, 57244, Note_on_c, 0, 57, 0
2, 57250, Note_on_c, 0, 41, 0
2, 57268, Note_on_c, 0, 60, 64
2, 57272, Note_on_c, 0, 72, 69
2, 57276, Control_c, 0, 64, 0
2, 57295, Note_on_c, 0, 60, 0
2, 57369, Note_on_c, 0, 72, 0
2, 57369, Note_on_c, 0, 65, 60
2, 57369, Note_on_c, 0, 60, 62
2, 57373, Note_on_c, 0, 57, 62
2, 57379, Note_on_c, 0, 77, 64
2, 57473, Note_on_c, 0, 77, 0
2, 57473, Note_on_c, 0, 57, 0
2, 57473, Note_on_c, 0, 65, 0
2, 57473, Note_on_c, 0, 81, 64
2, 57477, Note_on_c, 0, 60, 0
2, 57481, Note_on_c, 0, 69, 64
2, 57580, Note_on_c, 0, 48, 64
2, 57590, Note_on_c, 0, 36, 57
2, 57629, Note_on_c, 0, 69, 0
2, 57629, Note_on_c, 0, 81, 0
2, 57682, Note_on_c, 0, 65, 65
2, 57686, Note_on_c, 0, 77, 66
2, 57689, Note_on_c, 0, 48, 0
2, 57689, Note_on_c, 0, 36, 0
2, 57779, Note_on_c, 0, 60, 64
2, 57783, Note_on_c, 0, 77, 0
2, 57783, Note_on_c, 0, 57, 60
2, 57787, Note_on_c, 0, 72, 68
2, 57803, Note_on_c, 0, 57, 0
2, 57855, Note_on_c, 0, 72, 0
2, 57861, Note_on_c, 0, 60, 0
2, 57861, Note_on_c, 0, 65, 0
2, 57879, Note_on_c, 0, 57, 59
2, 57885, Note_on_c, 0, 69, 70
2, 57982, Note_on_c, 0, 69, 0
2, 57982, Note_on_c, 0, 57, 0
2, 57982, Note_on_c, 0, 48, 61
2, 57986, Note_on_c, 0, 64, 59
2, 57986, Note_on_c, 0, 76, 63
2, 57990, Note_on_c, 0, 72, 67
2, 57994, Note_on_c, 0, 36, 55
2, 58008, Control_c, 0, 64, 127
2, 58064, Control_c, 0, 64, 0
2, 58084, Note_on_c, 0, 64, 0
2, 58162, Note_on_c, 0, 72, 0
2, 58166, Note_on_c, 0, 76, 0
2, 58189, Note_on_c, 0, 58, 60
2, 58189, Note_on_c, 0, 70, 65
2, 58193, Note_on_c, 0, 74, 65
2, 58193, Note_on_c, 0, 60, 58
2, 58199, Note_on_c, 0, 64, 55
2, 58199, Note_on_c, 0, 62, 58
2, 58318, Note_on_c, 0, 64, 0
2, 58318, Note_on_c, 0, 58, 0
2, 58322, Note_on_c, 0, 62, 0
2, 58322, Note_on_c, 0, 60, 0
2, 58370, Note_on_c, 0, 70, 0
2, 58370, Note_on_c, 0, 74, 0
2, 58374, Note_on_c, 0, 48, 0
2, 58378, Note_on_c, 0, 36, 0
2, 58394, Note_on_c, 0, 53, 60
2, 58394, Note_on_c, 0, 69, 64
2, 58394, Note_on_c, 0, 60, 59
2, 58400, Note_on_c, 0, 72, 67
2, 58404, Note_on_c, 0, 41, 58
2, 58497, Note_on_c, 0, 60, 0
2, 58593, Note_on_c, 0, 60, 64
2, 58597, Note_on_c, 0, 65, 67
2, 58597, Note_on_c, 0, 57, 60
2, 58620, Note_on_c, 0, 72, 0
2, 58620, Note_on_c, 0, 69, 0
2, 58679, Note_on_c, 0, 65, 0
2, 58682, Note_on_c, 0, 60, 0
2, 58682, Note_on_c, 0, 57, 0
2, 58757, Note_on_c, 0, 53, 0
2, 58766, Note_on_c, 0, 41, 0
2, 58807, Note_on_c, 0, 55, 60
2, 58807, Note_on_c, 0, 70, 66
2, 58807, Note_on_c, 0, 82, 66
2, 58815, Note_on_c, 0, 43, 59
2, 58852, Control_c, 0, 64, 127
2, 58905, Note_on_c, 0, 43, 0
2, 58905, Note_on_c, 0, 82, 0
2, 58905, Note_on_c, 0, 55, 0
2, 58905, Note_on_c, 0, 76, 66
2, 58909, Note_on_c, 0, 70, 0
2, 58913, Control_c, 0, 64, 0
2, 59004, Note_on_c, 0, 76, 0
2, 59004, Note_on_c, 0, 58, 63
2, 59004, Note_on_c, 0, 60, 62
2, 59004, Note_on_c, 0, 79, 64
2, 59004, Note_on_c, 0, 64, 59
2, 59104, Note_on_c, 0, 79, 0
2, 59109, Note_on_c, 0, 58, 0
2, 59109, Note_on_c, 0, 60, 0
2, 59109, Note_on_c, 0, 64, 0
2, 59109, Note_on_c, 0, 70, 64
2, 59109, Note_on_c, 0, 82, 66
2, 59209, Note_on_c, 0, 55, 61
2, 59215, Note_on_c, 0, 43, 60
2, 59285, Note_on_c, 0, 82, 0
2, 59289, Note_on_c, 0, 70, 0
2, 59310, Note_on_c, 0, 55, 0
2, 59310, Note_on_c, 0, 43, 0
2, 59310, Note_on_c, 0, 79, 64
2, 59316, Note_on_c, 0, 76, 67
2, 59408, Note_on_c, 0, 79, 0
2, 59408, Note_on_c, 0, 56, 60
2, 59412, Note_on_c, 0, 76, 0
2, 59412, Note_on_c, 0, 83, 63
2, 59412, Note_on_c, 0, 71, 61
2, 59419, Note_on_c, 0, 44, 59
2, 59507, Note_on_c, 0, 83, 0
2, 59507, Note_on_c, 0, 56, 0
2, 59515, Note_on_c, 0, 71, 0
2, 59515, Note_on_c, 0, 44, 0
2, 59515, Note_on_c, 0, 84, 64
2, 59515, Note_on_c, 0, 72, 66
2, 59593, Control_c, 0, 64, 127
2, 59610, Note_on_c, 0, 72, 0
2, 59610, Note_on_c, 0, 84, 0
2, 59610, Note_on_c, 0, 57, 62
2, 59618, Control_c, 0, 64, 0
2, 59618, Note_on_c, 0, 45, 59
2, 59710, Note_on_c, 0, 58, 62
2, 59718, Note_on_c, 0, 84, 64
2, 59718, Note_on_c, 0, 72, 67
2, 59721, Note_on_c, 0, 57, 0
2, 59721, Note_on_c, 0, 46, 60
2, 59725, Note_on_c, 0, 45, 0
2, 59790, Note_on_c, 0, 72, 0
2, 59790, Note_on_c, 0, 84, 0
2, 59797, Note_on_c, 0, 58, 0
2, 59801, Note_on_c, 0, 46, 0
2, 59815, Note_on_c, 0, 81, 68
2, 59815, Note_on_c, 0, 60, 66
2, 59819, Note_on_c, 0, 69, 68
2, 59819, Note_on_c, 0, 48, 65
2, 59918, Note_on_c, 0, 69, 0
2, 59918, Note_on_c, 0, 81, 0
2, 59918, Note_on_c, 0, 65, 61
2, 59924, Note_on_c, 0, 60, 0
2, 59924, Note_on_c, 0, 77, 63
2, 59924, Note_on_c, 0, 47, 58
2, 59928, Note_on_c, 0, 48, 0
2, 59947, Note_on_c, 0, 59, 61
2, 60023, Note_on_c, 0, 77, 0
2, 60023, Note_on_c, 0, 58, 63
2, 60023, Note_on_c, 0, 74, 66
2, 60027, Note_on_c, 0, 47, 0
2, 60027, Note_on_c, 0, 59, 0
2, 60027, Note_on_c, 0, 65, 0
2, 60030, Note_on_c, 0, 62, 61
2, 60030, Note_on_c, 0, 46, 60
2, 60117, Note_on_c, 0, 73, 67
2, 60123, Note_on_c, 0, 61, 61
2, 60127, Note_on_c, 0, 46, 0
2, 60127, Note_on_c, 0, 58, 0
2, 60127, Note_on_c, 0, 74, 0
2, 60133, Note_on_c, 0, 62, 0
2, 60224, Note_on_c, 0, 61, 0
2, 60224, Note_on_c, 0, 60, 61
2, 60224, Note_on_c, 0, 57, 60
2, 60228, Note_on_c, 0, 73, 0
2, 60228, Note_on_c, 0, 45, 58
2, 60228, Note_on_c, 0, 72, 69
2, 60323, Note_on_c, 0, 70, 69
2, 60323, Note_on_c, 0, 58, 60
2, 60329, Note_on_c, 0, 72, 0
2, 60329, Note_on_c, 0, 57, 0
2, 60335, Note_on_c, 0, 60, 0
2, 60335, Note_on_c, 0, 45, 0
2, 60335, Note_on_c, 0, 55, 57
2, 60339, Note_on_c, 0, 43, 57
2, 60431, Note_on_c, 0, 69, 69
2, 60434, Note_on_c, 0, 55, 0
2, 60434, Note_on_c, 0, 58, 0
2, 60434, Note_on_c, 0, 53, 59
2, 60434, Note_on_c, 0, 57, 58
2, 60438, Note_on_c, 0, 70, 0
2, 60438, Note_on_c, 0, 43, 0
2, 60438, Note_on_c, 0, 41, 58
2, 60485, Control_c, 0, 64, 127
2, 60532, Note_on_c, 0, 69, 0
2, 60532, Note_on_c, 0, 60, 64
2, 60538, Note_on_c, 0, 57, 0
2, 60538, Note_on_c, 0, 72, 69
2, 60538, Control_c, 0, 64, 0
2, 60561, Note_on_c, 0, 60, 0
2, 60635, Note_on_c, 0, 72, 0
2, 60635, Note_on_c, 0, 60, 64
2, 60635, Note_on_c, 0, 65, 60
2, 60635, Note_on_c, 0, 57, 60
2, 60643, Note_on_c, 0, 77, 63
2, 60715, Note_on_c, 0, 53, 0
2, 60736, Note_on_c, 0, 81, 62
2, 60740, Note_on_c, 0, 57, 0
2, 60740, Note_on_c, 0, 77, 0
2, 60744, Note_on_c, 0, 65, 0
2, 60744, Note_on_c, 0, 60, 0
2, 60744, Note_on_c, 0, 69, 63
2, 60750, Note_on_c, 0, 41, 0
2, 60841, Note_on_c, 0, 48, 64
2, 60853, Note_on_c, 0, 36, 57
2, 60894, Note_on_c, 0, 69, 0
2, 60894, Note_on_c, 0, 81, 0
2, 60945, Note_on_c, 0, 65, 64
2, 60952, Note_on_c, 0, 77, 65
2, 60972, Note_on_c, 0, 65, 0
2, 61042, Note_on_c, 0, 65, 62
2, 61046, Note_on_c, 0, 77, 0
2, 61046, Note_on_c, 0, 60, 63
2, 61050, Note_on_c, 0, 57, 60
2, 61054, Note_on_c, 0, 72, 67
2, 61073, Note_on_c, 0, 57, 0
2, 61145, Note_on_c, 0, 72, 0
2, 61145, Note_on_c, 0, 57, 56
2, 61145, Note_on_c, 0, 69, 68
2, 61151, Note_on_c, 0, 48, 0
2, 61151, Note_on_c, 0, 60, 0
2, 61159, Note_on_c, 0, 36, 0
2, 61176, Note_on_c, 0, 65, 0
2, 61250, Note_on_c, 0, 69, 0
2, 61250, Note_on_c, 0, 48, 61
2, 61250, Note_on_c, 0, 76, 64
2, 61250, Note_on_c, 0, 64, 60
2, 61254, Note_on_c, 0, 57, 0
2, 61254, Note_on_c, 0, 72, 66
2, 61260, Note_on_c, 0, 36, 48
2, 61299, Control_c, 0, 64, 127
2, 61348, Control_c, 0, 64, 0
2, 61435, Note_on_c, 0, 72, 0
2, 61435, Note_on_c, 0, 64, 0
2, 61441, Note_on_c, 0, 76, 0
2, 61460, Note_on_c, 0, 70, 65
2, 61460, Note_on_c, 0, 74, 64
2, 61464, Note_on_c, 0, 57, 59
2, 61464, Note_on_c, 0, 62, 60
2, 61464, Note_on_c, 0, 60, 60
2, 61567, Note_on_c, 0, 60, 0
2, 61567, Note_on_c, 0, 70, 0
2, 61567, Note_on_c, 0, 57, 0
2, 61571, Note_on_c, 0, 62, 0
2, 61593, Note_on_c, 0, 74, 0
2, 61593, Note_on_c, 0, 48, 0
2, 61602, Note_on_c, 0, 36, 0
2, 61659, Note_on_c, 0, 60, 65
2, 61659, Note_on_c, 0, 69, 66
2, 61659, Note_on_c, 0, 53, 63
2, 61665, Note_on_c, 0, 72, 67
2, 61692, Note_on_c, 0, 41, 60
2, 61764, Note_on_c, 0, 72, 0
2, 61764, Note_on_c, 0, 53, 0
2, 61764, Note_on_c, 0, 69, 0
2, 61770, Note_on_c, 0, 60, 0
2, 61863, Note_on_c, 0, 81, 66
2, 61869, Note_on_c, 0, 63, 60
2, 61869, Note_on_c, 0, 60, 60
2, 61869, Note_on_c, 0, 69, 65
2, 61873, Note_on_c, 0, 57, 57
2, 61879, Note_on_c, 0, 54, 56
2, 61945, Note_on_c, 0, 69, 0
2, 61945, Note_on_c, 0, 63, 0
2, 61945, Note_on_c, 0, 81, 0
2, 61949, Note_on_c, 0, 54, 0
2, 61949, Note_on_c, 0, 57, 0
2, 61953, Note_on_c, 0, 60, 0
2, 62046, Control_c, 0, 64, 127
2, 62079, Note_on_c, 0, 60, 62
2, 62079, Note_on_c, 0, 67, 62
2, 62083, Note_on_c, 0, 55, 56
2, 62083, Note_on_c, 0, 79, 60
2, 62083, Note_on_c, 0, 64, 59
2, 62149, Note_on_c, 0, 79, 0
2, 62157, Control_c, 0, 64, 0
2, 62174, Note_on_c, 0, 67, 0
2, 62180, Note_on_c, 0, 72, 69
2, 62206, Note_on_c, 0, 41, 0
2, 62274, Note_on_c, 0, 72, 0
2, 62279, Note_on_c, 0, 76, 71
2, 62381, Note_on_c, 0, 76, 0
2, 62381, Note_on_c, 0, 81, 55
2, 62381, Note_on_c, 0, 78, 52
2, 62390, Note_on_c, 0, 74, 53
2, 62390, Note_on_c, 0, 69, 52
2, 62396, Note_on_c, 0, 72, 55
2, 62431, Note_on_c, 0, 64, 0
2, 62431, Note_on_c, 0, 55, 0
2, 62437, Note_on_c, 0, 60, 0
2, 62480, Note_on_c, 0, 78, 0
2, 62480, Note_on_c, 0, 62, 64
2, 62480, Note_on_c, 0, 50, 58
2, 62505, Note_on_c, 0, 69, 0
2, 62505, Note_on_c, 0, 74, 0
2, 62577, Note_on_c, 0, 78, 61
2, 62583, Note_on_c, 0, 50, 0
2, 62583, Note_on_c, 0, 69, 66
2, 62583, Note_on_c, 0, 74, 64
2, 62587, Note_on_c, 0, 62, 0
2, 62606, Note_on_c, 0, 74, 0
2, 62674, Note_on_c, 0, 72, 0
2, 62674, Note_on_c, 0, 69, 0
2, 62674, Note_on_c, 0, 81, 0
2, 62680, Note_on_c, 0, 78, 0
2, 62684, Note_on_c, 0, 55, 60
2, 62684, Note_on_c, 0, 74, 50
2, 62690, Note_on_c, 0, 43, 59
2, 62690, Note_on_c, 0, 83, 54
2, 62694, Note_on_c, 0, 71, 50
2, 62694, Note_on_c, 0, 77, 52
2, 62779, Note_on_c, 0, 77, 0
2, 62779, Note_on_c, 0, 55, 0
2, 62779, Note_on_c, 0, 83, 0
2, 62785, Note_on_c, 0, 74, 0
2, 62785, Note_on_c, 0, 71, 0
2, 62785, Note_on_c, 0, 43, 0
2, 62874, Note_on_c, 0, 48, 64
2, 62880, Note_on_c, 0, 60, 64
2, 62880, Control_c, 0, 64, 127
2, 62886, Note_on_c, 0, 76, 57
2, 62886, Note_on_c, 0, 84, 57
2, 62886, Note_on_c, 0, 72, 60
2, 62886, Note_on_c, 0, 79, 54
2, 62979, Note_on_c, 0, 59, 59
2, 62985, Note_on_c, 0, 47, 57
2, 62989, Note_on_c, 0, 48, 0
2, 62989, Control_c, 0, 64, 0
2, 63007, Note_on_c, 0, 60, 0
2, 63077, Note_on_c, 0, 58, 67
2, 63086, Note_on_c, 0, 59, 0
2, 63086, Note_on_c, 0, 46, 63
2, 63090, Note_on_c, 0, 47, 0
2, 63182, Note_on_c, 0, 48, 67
2, 63185, Note_on_c, 0, 60, 67
2, 63189, Note_on_c, 0, 58, 0
2, 63193, Note_on_c, 0, 46, 0
2, 63288, Note_on_c, 0, 60, 0
2, 63288, Note_on_c, 0, 57, 60
2, 63292, Note_on_c, 0, 48, 0
2, 63292, Note_on_c, 0, 45, 59
2, 63384, Note_on_c, 0, 56, 57
2, 63393, Note_on_c, 0, 45, 0
2, 63393, Note_on_c, 0, 57, 0
2, 63393, Note_on_c, 0, 44, 59
2, 63487, Note_on_c, 0, 56, 0
2, 63487, Note_on_c, 0, 55, 59
2, 63494, Note_on_c, 0, 44, 0
2, 63494, Note_on_c, 0, 43, 59
2, 63584, Note_on_c, 0, 84, 0
2, 63590, Note_on_c, 0, 79, 0
2, 63590, Note_on_c, 0, 72, 0
2, 63590, Note_on_c, 0, 42, 56
2, 63594, Note_on_c, 0, 76, 0
2, 63594, Note_on_c, 0, 55, 0
2, 63594, Note_on_c, 0, 43, 0
2, 63597, Note_on_c, 0, 54, 60
2, 63689, Note_on_c, 0, 69, 69
2, 63689, Note_on_c, 0, 53, 61
2, 63693, Note_on_c, 0, 54, 0
2, 63693, Note_on_c, 0, 57, 59
2, 63693, Note_on_c, 0, 41, 59
2, 63745, Control_c, 0, 64, 127
2, 63751, Note_on_c, 0, 42, 0
2, 63792, Note_on_c, 0, 57, 0
2, 63792, Note_on_c, 0, 69, 0
2, 63792, Note_on_c, 0, 72, 68
2, 63792, Note_on_c, 0, 60, 64
2, 63801, Control_c, 0, 64, 0
2, 63821, Note_on_c, 0, 60, 0
2, 63891, Note_on_c, 0, 72, 0
2, 63891, Note_on_c, 0, 60, 64
2, 63891, Note_on_c, 0, 65, 60
2, 63899, Note_on_c, 0, 77, 62
2, 63910, Note_on_c, 0, 57, 60
2, 63992, Note_on_c, 0, 57, 0
2, 63992, Note_on_c, 0, 77, 0
2, 63992, Note_on_c, 0, 81, 63
2, 63998, Note_on_c, 0, 65, 0
2, 63998, Note_on_c, 0, 69, 62
2, 64029, Note_on_c, 0, 60, 0
2, 64048, Note_on_c, 0, 53, 0
2, 64056, Note_on_c, 0, 41, 0
2, 64108, Note_on_c, 0, 36, 58
2, 64124, Note_on_c, 0, 48, 64
2, 64149, Note_on_c, 0, 81, 0
2, 64153, Note_on_c, 0, 69, 0
2, 64198, Note_on_c, 0, 65, 64
2, 64209, Note_on_c, 0, 77, 65
2, 64306, Note_on_c, 0, 57, 60
2, 64306, Note_on_c, 0, 60, 62
2, 64306, Note_on_c, 0, 72, 70
2, 64326, Note_on_c, 0, 57, 0
2, 64326, Note_on_c, 0, 77, 0
2, 64386, Note_on_c, 0, 48, 0
2, 64390, Note_on_c, 0, 36, 0
2, 64400, Note_on_c, 0, 69, 68
2, 64400, Note_on_c, 0, 57, 60
2, 64429, Note_on_c, 0, 72, 0
2, 64433, Note_on_c, 0, 60, 0
2, 64433, Note_on_c, 0, 65, 0
2, 64501, Note_on_c, 0, 72, 68
2, 64506, Note_on_c, 0, 76, 64
2, 64506, Note_on_c, 0, 48, 62
2, 64506, Note_on_c, 0, 64, 60
2, 64510, Note_on_c, 0, 57, 0
2, 64514, Note_on_c, 0, 69, 0
2, 64518, Note_on_c, 0, 36, 51
2, 64598, Control_c, 0, 64, 127
2, 64613, Note_on_c, 0, 64, 0
2, 64648, Control_c, 0, 64, 0
2, 64656, Note_on_c, 0, 72, 0
2, 64664, Note_on_c, 0, 76, 0
2, 64710, Note_on_c, 0, 70, 65
2, 64710, Note_on_c, 0, 74, 65
2, 64714, Note_on_c, 0, 58, 60
2, 64714, Note_on_c, 0, 64, 56
2, 64714, Note_on_c, 0, 60, 60
2, 64720, Note_on_c, 0, 62, 58
2, 64815, Note_on_c, 0, 62, 0
2, 64815, Note_on_c, 0, 64, 0
2, 64815, Note_on_c, 0, 74, 0
2, 64815, Note_on_c, 0, 70, 0
2, 64815, Note_on_c, 0, 58, 0
2, 64821, Note_on_c, 0, 60, 0
2, 64895, Note_on_c, 0, 48, 0
2, 64895, Note_on_c, 0, 36, 0
2, 64910, Note_on_c, 0, 60, 64
2, 64910, Note_on_c, 0, 69, 65
2, 64910, Note_on_c, 0, 53, 60
2, 64914, Note_on_c, 0, 72, 67
2, 64920, Note_on_c, 0, 41, 58
2, 65017, Note_on_c, 0, 41, 0
2, 65017, Note_on_c, 0, 53, 0
2, 65017, Note_on_c, 0, 60, 0
2, 65112, Note_on_c, 0, 65, 67
2, 65116, Note_on_c, 0, 57, 61
2, 65116, Note_on_c, 0, 60, 63
2, 65170, Note_on_c, 0, 69, 0
2, 65170, Note_on_c, 0, 72, 0
2, 65225, Note_on_c, 0, 57, 0
2, 65225, Note_on_c, 0, 65, 0
2, 65225, Note_on_c, 0, 60, 0
2, 65314, Note_on_c, 0, 70, 65
2, 65314, Note_on_c, 0, 82, 66
2, 65320, Note_on_c, 0, 55, 60
2, 65327, Note_on_c, 0, 43, 59
2, 65347, Control_c, 0, 64, 127
2, 65403, Control_c, 0, 64, 0
2, 65424, Note_on_c, 0, 82, 0
2, 65424, Note_on_c, 0, 76, 67
2, 65428, Note_on_c, 0, 70, 0
2, 65428, Note_on_c, 0, 43, 0
2, 65428, Note_on_c, 0, 55, 0
2, 65518, Note_on_c, 0, 79, 64
2, 65518, Note_on_c, 0, 58, 62
2, 65523, Note_on_c, 0, 60, 61
2, 65523, Note_on_c, 0, 64, 59
2, 65527, Note_on_c, 0, 76, 0
2, 65599, Note_on_c, 0, 79, 0
2, 65622, Note_on_c, 0, 58, 0
2, 65622, Note_on_c, 0, 70, 67
2, 65622, Note_on_c, 0, 82, 67
2, 65626, Note_on_c, 0, 60, 0
2, 65651, Note_on_c, 0, 64, 0
2, 65721, Note_on_c, 0, 55, 61
2, 65727, Note_on_c, 0, 43, 60
2, 65772, Note_on_c, 0, 82, 0
2, 65781, Note_on_c, 0, 70, 0
2, 65824, Note_on_c, 0, 79, 64
2, 65824, Note_on_c, 0, 76, 67
2, 65828, Note_on_c, 0, 55, 0
2, 65828, Note_on_c, 0, 43, 0
2, 65923, Note_on_c, 0, 79, 0
2, 65923, Note_on_c, 0, 56, 59
2, 65927, Note_on_c, 0, 76, 0
2, 65927, Note_on_c, 0, 71, 60
2, 65927, Note_on_c, 0, 83, 63
2, 65933, Note_on_c, 0, 44, 59
2, 66024, Note_on_c, 0, 83, 0
2, 66024, Note_on_c, 0, 56, 0
2, 66024, Note_on_c, 0, 84, 62
2, 66028, Note_on_c, 0, 72, 66
2, 66032, Note_on_c, 0, 71, 0
2, 66032, Note_on_c, 0, 44, 0
2, 66121, Note_on_c, 0, 84, 0
2, 66121, Note_on_c, 0, 57, 62
2, 66121, Note_on_c, 0, 45, 60
2, 66177, Control_c, 0, 64, 127
2, 66202, Note_on_c, 0, 57, 0
2, 66222, Note_on_c, 0, 58, 62
2, 66222, Note_on_c, 0, 84, 66
2, 66226, Control_c, 0, 64, 0
2, 66229, Note_on_c, 0, 45, 0
2, 66229, Note_on_c, 0, 46, 60
2, 66253, Note_on_c, 0, 72, 0
2, 66319, Note_on_c, 0, 81, 68
2, 66326, Note_on_c, 0, 48, 63
2, 66326, Note_on_c, 0, 60, 62
2, 66332, Note_on_c, 0, 58, 0
2, 66352, Note_on_c, 0, 84, 0
2, 66363, Note_on_c, 0, 46, 0
2, 66429, Note_on_c, 0, 81, 0
2, 66429, Note_on_c, 0, 59, 60
2, 66433, Note_on_c, 0, 77, 66
2, 66433, Note_on_c, 0, 47, 58
2, 66437, Note_on_c, 0, 48, 0
2, 66437, Note_on_c, 0, 60, 0
2, 66528, Note_on_c, 0, 74, 70
2, 66532, Note_on_c, 0, 46, 62
2, 66553, Note_on_c, 0, 77, 0
2, 66553, Note_on_c, 0, 58, 64
2, 66557, Note_on_c, 0, 47, 0
2, 66557, Note_on_c, 0, 59, 0
2, 66623, Note_on_c, 0, 73, 69
2, 66658, Note_on_c, 0, 58, 0
2, 66658, Note_on_c, 0, 74, 0
2, 66662, Note_on_c, 0, 46, 0
2, 66730, Note_on_c, 0, 57, 62
2, 66735, Note_on_c, 0, 72, 69
2, 66735, Note_on_c, 0, 45, 60
2, 66739, Note_on_c, 0, 73, 0
2, 66867, Note_on_c, 0, 57, 0
2, 66867, Note_on_c, 0, 72, 0
2, 66867, Note_on_c, 0, 45, 0
2, 66935, Note_on_c, 0, 58, 64
2, 66935, Note_on_c, 0, 74, 66
2, 66943, Note_on_c, 0, 86, 62
2, 66943, Note_on_c, 0, 46, 61
2, 66951, Control_c, 0, 64, 127
2, 67013, Control_c, 0, 64, 0
2, 67038, Note_on_c, 0, 86, 0
2, 67038, Note_on_c, 0, 82, 65
2, 67046, Note_on_c, 0, 58, 0
2, 67046, Note_on_c, 0, 74, 0
2, 67049, Note_on_c, 0, 46, 0
2, 67135, Note_on_c, 0, 58, 68
2, 67139, Note_on_c, 0, 67, 65
2, 67142, Note_on_c, 0, 62, 66
2, 67142, Note_on_c, 0, 84, 65
2, 67146, Note_on_c, 0, 82, 0
2, 67241, Note_on_c, 0, 67, 0
2, 67245, Note_on_c, 0, 84, 0
2, 67245, Note_on_c, 0, 58, 0
2, 67245, Note_on_c, 0, 88, 65
2, 67249, Note_on_c, 0, 62, 0
2, 67249, Note_on_c, 0, 76, 65
2, 67342, Note_on_c, 0, 58, 64
2, 67350, Note_on_c, 0, 46, 62
2, 67447, Note_on_c, 0, 82, 67
2, 67451, Note_on_c, 0, 58, 0
2, 67451, Note_on_c, 0, 88, 0
2, 67451, Note_on_c, 0, 76, 0
2, 67478, Note_on_c, 0, 46, 0
2, 67545, Note_on_c, 0, 74, 67
2, 67545, Note_on_c, 0, 56, 60
2, 67549, Note_on_c, 0, 86, 64
2, 67553, Note_on_c, 0, 44, 59
2, 67571, Note_on_c, 0, 82, 0
2, 67673, Note_on_c, 0, 56, 0
2, 67679, Note_on_c, 0, 44, 0
2, 67697, Note_on_c, 0, 86, 0
2, 67728, Note_on_c, 0, 74, 0
2, 67743, Note_on_c, 0, 57, 61
2, 67743, Note_on_c, 0, 45, 60
2, 67743, Note_on_c, 0, 84, 66
2, 67747, Note_on_c, 0, 72, 68
2, 67788, Control_c, 0, 64, 127
2, 67838, Control_c, 0, 64, 0
2, 67844, Note_on_c, 0, 72, 0
2, 67844, Note_on_c, 0, 84, 0
2, 67844, Note_on_c, 0, 81, 64
2, 67848, Note_on_c, 0, 45, 0
2, 67848, Note_on_c, 0, 57, 0
2, 67855, Note_on_c, 0, 77, 63
2, 67948, Note_on_c, 0, 77, 0
2, 67948, Note_on_c, 0, 81, 0
2, 67948, Note_on_c, 0, 57, 61
2, 67948, Note_on_c, 0, 60, 62
2, 67948, Note_on_c, 0, 65, 55
2, 67954, Note_on_c, 0, 74, 59
2, 67960, Note_on_c, 0, 86, 57
2, 68051, Note_on_c, 0, 86, 0
2, 68051, Note_on_c, 0, 65, 0
2, 68051, Note_on_c, 0, 74, 0
2, 68051, Note_on_c, 0, 57, 0
2, 68055, Note_on_c, 0, 60, 0
2, 68059, Note_on_c, 0, 72, 64
2, 68059, Note_on_c, 0, 84, 63
2, 68150, Note_on_c, 0, 65, 66
2, 68150, Note_on_c, 0, 57, 61
2, 68154, Note_on_c, 0, 60, 62
2, 68229, Note_on_c, 0, 84, 0
2, 68229, Note_on_c, 0, 72, 0
2, 68252, Note_on_c, 0, 81, 70
2, 68359, Note_on_c, 0, 81, 0
2, 68359, Note_on_c, 0, 57, 0
2, 68359, Note_on_c, 0, 77, 65
2, 68365, Note_on_c, 0, 65, 0
2, 68365, Note_on_c, 0, 60, 0
2, 68458, Note_on_c, 0, 66, 68
2, 68465, Note_on_c, 0, 77, 0
2, 68566, Note_on_c, 0, 67, 66
2, 68566, Note_on_c, 0, 48, 64
2, 68574, Note_on_c, 0, 66, 0
2, 68574, Note_on_c, 0, 36, 57
2, 68595, Control_c, 0, 64, 127
2, 68657, Control_c, 0, 64, 0
2, 68669, Note_on_c, 0, 67, 0
2, 68674, Note_on_c, 0, 48, 0
2, 68674, Note_on_c, 0, 72, 70
2, 68678, Note_on_c, 0, 36, 0
2, 68771, Note_on_c, 0, 58, 63
2, 68771, Note_on_c, 0, 60, 62
2, 68775, Note_on_c, 0, 64, 59
2, 68847, Note_on_c, 0, 72, 0
2, 68868, Note_on_c, 0, 66, 70
2, 68874, Note_on_c, 0, 58, 0
2, 68874, Note_on_c, 0, 60, 0
2, 68901, Note_on_c, 0, 64, 0
2, 68974, Note_on_c, 0, 52, 63
2, 68978, Note_on_c, 0, 66, 0
2, 68978, Note_on_c, 0, 40, 60
2, 68996, Note_on_c, 0, 67, 68
2, 69025, Note_on_c, 0, 67, 0
2, 69077, Note_on_c, 0, 70, 64
2, 69083, Note_on_c, 0, 79, 60
2, 69083, Note_on_c, 0, 67, 61
2, 69114, Note_on_c, 0, 40, 0
2, 69114, Note_on_c, 0, 52, 0
2, 69176, Note_on_c, 0, 58, 64
2, 69185, Note_on_c, 0, 60, 60
2, 69185, Note_on_c, 0, 52, 59
2, 69230, Note_on_c, 0, 79, 0
2, 69230, Note_on_c, 0, 67, 0
2, 69238, Note_on_c, 0, 70, 0
2, 69276, Note_on_c, 0, 65, 64
2, 69284, Note_on_c, 0, 58, 0
2, 69284, Note_on_c, 0, 77, 65
2, 69288, Note_on_c, 0, 52, 0
2, 69288, Note_on_c, 0, 60, 0
2, 69309, Note_on_c, 0, 69, 68
2, 69381, Note_on_c, 0, 53, 59
2, 69381, Note_on_c, 0, 60, 62
2, 69388, Note_on_c, 0, 57, 57
2, 69388, Note_on_c, 0, 41, 56
2, 69400, Control_c, 0, 64, 127
2, 69429, Control_c, 0, 64, 0
2, 69487, Note_on_c, 0, 53, 0
2, 69491, Note_on_c, 0, 41, 0
2, 69491, Note_on_c, 0, 50, 56
2, 69491, Note_on_c, 0, 38, 57
2, 69586, Note_on_c, 0, 48, 64
2, 69592, Note_on_c, 0, 38, 0
2, 69592, Note_on_c, 0, 50, 0
2, 69597, Note_on_c, 0, 36, 59
2, 69688, Note_on_c, 0, 69, 0
2, 69688, Note_on_c, 0, 45, 60
2, 69692, Note_on_c, 0, 77, 0
2, 69692, Note_on_c, 0, 65, 0
2, 69717, Note_on_c, 0, 48, 0
2, 69717, Note_on_c, 0, 33, 56
2, 69721, Note_on_c, 0, 36, 0
2, 69783, Note_on_c, 0, 65, 60
2, 69783, Note_on_c, 0, 77, 60
2, 69789, Note_on_c, 0, 33, 0
2, 69789, Note_on_c, 0, 29, 56
2, 69789, Note_on_c, 0, 69, 64
2, 69789, Note_on_c, 0, 41, 59
2, 69795, Note_on_c, 0, 45, 0
2, 69990, Note_on_c, 0, 57, 0
2, 69996, Note_on_c, 0, 60, 0
2, 70087, Note_on_c, 0, 77, 0
2, 70087, Note_on_c, 0, 69, 0
2, 70094, Note_on_c, 0, 65, 0
2, 70172, Note_on_c, 0, 29, 0
2, 70172, Note_on_c, 0, 41, 0
2, 70185, Note_on_c, 0, 77, 68
2, 70193, Note_on_c, 0, 46, 60
2, 70216, Note_on_c, 0, 34, 52
2, 70253, Control_c, 0, 64, 127
2, 70292, Note_on_c, 0, 77, 0
2, 70297, Control_c, 0, 64, 0
2, 70309, Note_on_c, 0, 34, 0
2, 70321, Note_on_c, 0, 76, 69
2, 70328, Note_on_c, 0, 46, 0
2, 70394, Note_on_c, 0, 58, 64
2, 70398, Note_on_c, 0, 76, 0
2, 70398, Note_on_c, 0, 77, 65
2, 70398, Note_on_c, 0, 62, 62
2, 70398, Note_on_c, 0, 53, 60
2, 70477, Note_on_c, 0, 53, 0
2, 70477, Note_on_c, 0, 58, 0
2, 70483, Note_on_c, 0, 62, 0
2, 70495, Note_on_c, 0, 79, 65
2, 70500, Note_on_c, 0, 77, 0
2, 70599, Note_on_c, 0, 29, 60
2, 70599, Note_on_c, 0, 41, 62
2, 70624, Note_on_c, 0, 79, 0
2, 70705, Note_on_c, 0, 77, 69
2, 70711, Note_on_c, 0, 41, 0
2, 70711, Note_on_c, 0, 29, 0
2, 70783, Note_on_c, 0, 77, 0
2, 70802, Note_on_c, 0, 58, 64
2, 70806, Note_on_c, 0, 53, 61
2, 70806, Note_on_c, 0, 72, 71
2, 70813, Note_on_c, 0, 62, 62
2, 70910, Note_on_c, 0, 72, 0
2, 70910, Note_on_c, 0, 53, 0
2, 70910, Note_on_c, 0, 74, 70
2, 70914, Note_on_c, 0, 58, 0
2, 70918, Note_on_c, 0, 62, 0
2, 71007, Note_on_c, 0, 48, 64
2, 71007, Note_on_c, 0, 75, 69
2, 71018, Note_on_c, 0, 74, 0
2, 71018, Note_on_c, 0, 36, 57
2, 71061, Control_c, 0, 64, 127
2, 71107, Note_on_c, 0, 75, 0
2, 71107, Note_on_c, 0, 74, 70
2, 71117, Control_c, 0, 64, 0
2, 71142, Note_on_c, 0, 48, 0
2, 71148, Note_on_c, 0, 36, 0
2, 71210, Note_on_c, 0, 63, 61
2, 71213, Note_on_c, 0, 75, 67
2, 71213, Note_on_c, 0, 53, 60
2, 71217, Note_on_c, 0, 57, 59
2, 71223, Note_on_c, 0, 74, 0
2, 71291, Note_on_c, 0, 75, 0
2, 71295, Note_on_c, 0, 57, 0
2, 71295, Note_on_c, 0, 63, 0
2, 71300, Note_on_c, 0, 53, 0
2, 71310, Note_on_c, 0, 69, 70
2, 71422, Note_on_c, 0, 29, 59
2, 71422, Note_on_c, 0, 41, 61
2, 71528, Note_on_c, 0, 41, 0
2, 71528, Note_on_c, 0, 29, 0
2, 71600, Note_on_c, 0, 69, 0
2, 71619, Note_on_c, 0, 57, 60
2, 71619, Note_on_c, 0, 63, 62
2, 71623, Note_on_c, 0, 53, 61
2, 71731, Note_on_c, 0, 53, 0
2, 71731, Note_on_c, 0, 63, 0
2, 71731, Note_on_c, 0, 57, 0
2, 71830, Note_on_c, 0, 48, 64
2, 71830, Note_on_c, 0, 69, 70
2, 71843, Note_on_c, 0, 36, 57
2, 71853, Control_c, 0, 64, 127
2, 71886, Control_c, 0, 64, 0
2, 71930, Note_on_c, 0, 68, 69
2, 71940, Note_on_c, 0, 69, 0
2, 71945, Note_on_c, 0, 48, 0
2, 71949, Note_on_c, 0, 36, 0
2, 72032, Note_on_c, 0, 69, 69
2, 72036, Note_on_c, 0, 63, 64
2, 72036, Note_on_c, 0, 53, 63
2, 72040, Note_on_c, 0, 60, 64
2, 72044, Note_on_c, 0, 68, 0
2, 72140, Note_on_c, 0, 53, 0
2, 72140, Note_on_c, 0, 69, 0
2, 72140, Note_on_c, 0, 63, 0
2, 72140, Note_on_c, 0, 74, 69
2, 72144, Note_on_c, 0, 60, 0
2, 72245, Note_on_c, 0, 41, 62
2, 72245, Note_on_c, 0, 29, 59
2, 72301, Note_on_c, 0, 74, 0
2, 72351, Note_on_c, 0, 72, 71
2, 72355, Note_on_c, 0, 29, 0
2, 72355, Note_on_c, 0, 41, 0
2, 72451, Note_on_c, 0, 72, 0
2, 72451, Note_on_c, 0, 63, 64
2, 72451, Note_on_c, 0, 67, 67
2, 72451, Note_on_c, 0, 53, 61
2, 72455, Note_on_c, 0, 57, 60
2, 72552, Note_on_c, 0, 67, 0
2, 72552, Note_on_c, 0, 63, 0
2, 72552, Note_on_c, 0, 69, 69
2, 72557, Note_on_c, 0, 53, 0
2, 72557, Note_on_c, 0, 57, 0
2, 72652, Note_on_c, 0, 70, 69
2, 72660, Note_on_c, 0, 69, 0
2, 72660, Note_on_c, 0, 46, 62
2, 72677, Note_on_c, 0, 34, 52
2, 72685, Control_c, 0, 64, 127
2, 72729, Control_c, 0, 64, 0
2, 72747, Note_on_c, 0, 34, 0
2, 72760, Note_on_c, 0, 69, 68
2, 72766, Note_on_c, 0, 46, 0
2, 72766, Note_on_c, 0, 70, 0
2, 72855, Note_on_c, 0, 70, 69
2, 72858, Note_on_c, 0, 58, 63
2, 72862, Note_on_c, 0, 53, 61
2, 72866, Note_on_c, 0, 62, 62
2, 72870, Note_on_c, 0, 69, 0
2, 72965, Note_on_c, 0, 67, 68
2, 72968, Note_on_c, 0, 53, 0
2, 72968, Note_on_c, 0, 70, 0
2, 72968, Note_on_c, 0, 58, 0
2, 72974, Note_on_c, 0, 62, 0
2, 73069, Note_on_c, 0, 29, 61
2, 73094, Note_on_c, 0, 41, 62
2, 73142, Note_on_c, 0, 41, 0
2, 73142, Note_on_c, 0, 29, 0
2, 73217, Note_on_c, 0, 67, 0
2, 73262, Note_on_c, 0, 53, 62
2, 73262, Note_on_c, 0, 58, 64
2, 73262, Note_on_c, 0, 74, 70
2, 73266, Note_on_c, 0, 62, 63
2, 73366, Note_on_c, 0, 74, 0
2, 73366, Note_on_c, 0, 53, 0
2, 73366, Note_on_c, 0, 58, 0
2, 73372, Note_on_c, 0, 62, 0
2, 73453, Control_c, 0, 64, 127
2, 73460, Note_on_c, 0, 58, 64
2, 73466, Note_on_c, 0, 72, 70
2, 73466, Note_on_c, 0, 46, 61
2, 73499, Control_c, 0, 64, 0
2, 73572, Note_on_c, 0, 72, 0
2, 73576, Note_on_c, 0, 58, 0
2, 73605, Note_on_c, 0, 46, 0
2, 73667, Note_on_c, 0, 58, 68
2, 73667, Note_on_c, 0, 70, 72
2, 73671, Note_on_c, 0, 53, 66
2, 73674, Note_on_c, 0, 62, 66
2, 73777, Note_on_c, 0, 53, 0
2, 73777, Note_on_c, 0, 58, 0
2, 73777, Note_on_c, 0, 70, 0
2, 73784, Note_on_c, 0, 62, 0
2, 73869, Note_on_c, 0, 67, 68
2, 73873, Note_on_c, 0, 62, 65
2, 73879, Note_on_c, 0, 50, 56
2, 73879, Note_on_c, 0, 38, 58
2, 73977, Note_on_c, 0, 67, 0
2, 73987, Note_on_c, 0, 62, 0
2, 74079, Note_on_c, 0, 68, 69
2, 74087, Note_on_c, 0, 49, 60
2, 74087, Note_on_c, 0, 61, 60
2, 74087, Note_on_c, 0, 37, 57
2, 74093, Note_on_c, 0, 50, 0
2, 74093, Note_on_c, 0, 38, 0
2, 74187, Note_on_c, 0, 61, 0
2, 74187, Note_on_c, 0, 68, 0
2, 74278, Note_on_c, 0, 69, 70
2, 74278, Note_on_c, 0, 48, 62
2, 74284, Note_on_c, 0, 60, 60
2, 74291, Note_on_c, 0, 49, 0
2, 74295, Note_on_c, 0, 37, 0
2, 74295, Note_on_c, 0, 36, 55
2, 74324, Control_c, 0, 64, 127
2, 74374, Control_c, 0, 64, 0
2, 74390, Note_on_c, 0, 60, 0
2, 74390, Note_on_c, 0, 69, 0
2, 74390, Note_on_c, 0, 77, 65
2, 74486, Note_on_c, 0, 53, 60
2, 74486, Note_on_c, 0, 63, 61
2, 74486, Note_on_c, 0, 75, 67
2, 74490, Note_on_c, 0, 77, 0
2, 74490, Note_on_c, 0, 57, 59
2, 74496, Note_on_c, 0, 36, 0
2, 74496, Note_on_c, 0, 48, 0
2, 74590, Note_on_c, 0, 75, 0
2, 74594, Note_on_c, 0, 53, 0
2, 74594, Note_on_c, 0, 57, 0
2, 74594, Note_on_c, 0, 63, 0
2, 74594, Note_on_c, 0, 72, 70
2, 74681, Note_on_c, 0, 69, 69
2, 74690, Note_on_c, 0, 72, 0
2, 74696, Note_on_c, 0, 41, 61
2, 74696, Note_on_c, 0, 29, 59
2, 74771, Note_on_c, 0, 29, 0
2, 74771, Note_on_c, 0, 41, 0
2, 74893, Note_on_c, 0, 53, 62
2, 74893, Note_on_c, 0, 63, 64
2, 74893, Note_on_c, 0, 75, 69
2, 74893, Note_on_c, 0, 57, 60
2, 74900, Note_on_c, 0, 69, 0
2, 74999, Note_on_c, 0, 53, 0
2, 74999, Note_on_c, 0, 57, 0
2, 74999, Note_on_c, 0, 63, 0
2, 75097, Note_on_c, 0, 74, 70
2, 75097, Note_on_c, 0, 48, 64
2, 75103, Note_on_c, 0, 75, 0
2, 75110, Note_on_c, 0, 36, 58
2, 75159, Control_c, 0, 64, 127
2, 75216, Control_c, 0, 64, 0
2, 75236, Note_on_c, 0, 48, 0
2, 75241, Note_on_c, 0, 36, 0
2, 75263, Note_on_c, 0, 74, 0
2, 75328, Note_on_c, 0, 63, 63
2, 75328, Note_on_c, 0, 53, 61
2, 75334, Note_on_c, 0, 57, 59
2, 75334, Note_on_c, 0, 72, 70
2, 75432, Note_on_c, 0, 72, 0
2, 75432, Note_on_c, 0, 63, 0
2, 75432, Note_on_c, 0, 53, 0
2, 75436, Note_on_c, 0, 57, 0
2, 75505, Note_on_c, 0, 67, 68
2, 75513, Note_on_c, 0, 29, 60
2, 75544, Note_on_c, 0, 41, 61
2, 75611, Note_on_c, 0, 67, 0
2, 75617, Note_on_c, 0, 41, 0
2, 75617, Note_on_c, 0, 29, 0
2, 75711, Note_on_c, 0, 69, 70
2, 75711, Note_on_c, 0, 63, 64
2, 75711, Note_on_c, 0, 53, 61
2, 75715, Note_on_c, 0, 57, 60
2, 75817, Note_on_c, 0, 57, 0
2, 75817, Note_on_c, 0, 69, 0
2, 75817, Note_on_c, 0, 63, 0
2, 75817, Note_on_c, 0, 53, 0
2, 75910, Note_on_c, 0, 70, 70
2, 75919, Note_on_c, 0, 46, 62
2, 75937, Note_on_c, 0, 34, 52
2, 75965, Control_c, 0, 64, 127
2, 76008, Control_c, 0, 64, 0
2, 76021, Note_on_c, 0, 77, 67
2, 76025, Note_on_c, 0, 46, 0
2, 76025, Note_on_c, 0, 70, 0
2, 76035, Note_on_c, 0, 34, 0
2, 76114, Note_on_c, 0, 74, 70
2, 76114, Note_on_c, 0, 58, 67
2, 76114, Note_on_c, 0, 53, 65
2, 76121, Note_on_c, 0, 62, 65
2, 76125, Note_on_c, 0, 77, 0
2, 76221, Note_on_c, 0, 70, 69
2, 76227, Note_on_c, 0, 53, 0
2, 76227, Note_on_c, 0, 74, 0
2, 76227, Note_on_c, 0, 58, 0
2, 76233, Note_on_c, 0, 62, 0
2, 76320, Note_on_c, 0, 67, 68
2, 76329, Note_on_c, 0, 29, 59
2, 76329, Note_on_c, 0, 41, 62
2, 76333, Note_on_c, 0, 70, 0
2, 76431, Note_on_c, 0, 41, 0
2, 76431, Note_on_c, 0, 29, 0
2, 76520, Note_on_c, 0, 58, 64
2, 76520, Note_on_c, 0, 53, 62
2, 76526, Note_on_c, 0, 62, 64
2, 76645, Note_on_c, 0, 67, 0
2, 76649, Note_on_c, 0, 58, 0
2, 76649, Note_on_c, 0, 53, 0
2, 76653, Note_on_c, 0, 62, 0
2, 76724, Note_on_c, 0, 89, 66
2, 76724, Note_on_c, 0, 77, 65
2, 76724, Note_on_c, 0, 46, 64
2, 76774, Note_on_c, 0, 34, 54
2, 76789, Control_c, 0, 64, 127
2, 76824, Note_on_c, 0, 77, 0
2, 76841, Note_on_c, 0, 34, 0
2, 76845, Control_c, 0, 64, 0
2, 76855, Note_on_c, 0, 88, 64
2, 76858, Note_on_c, 0, 46, 0
2, 76858, Note_on_c, 0, 89, 0
2, 76858, Note_on_c, 0, 76, 64
2, 76924, Note_on_c, 0, 53, 60
2, 76924, Note_on_c, 0, 58, 63
2, 76924, Note_on_c, 0, 89, 64
2, 76924, Note_on_c, 0, 62, 62
2, 76928, Note_on_c, 0, 77, 62
2, 76951, Note_on_c, 0, 76, 0
2, 76951, Note_on_c, 0, 88, 0
2, 77024, Note_on_c, 0, 53, 0
2, 77024, Note_on_c, 0, 58, 0
2, 77024, Note_on_c, 0, 77, 0
2, 77027, Note_on_c, 0, 91, 64
2, 77027, Note_on_c, 0, 79, 62
2, 77032, Note_on_c, 0, 62, 0
2, 77049, Note_on_c, 0, 89, 0
2, 77128, Note_on_c, 0, 41, 62
2, 77128, Note_on_c, 0, 29, 59
2, 77180, Note_on_c, 0, 79, 0
2, 77230, Note_on_c, 0, 91, 0
2, 77230, Note_on_c, 0, 89, 67
2, 77235, Note_on_c, 0, 77, 64
2, 77239, Note_on_c, 0, 41, 0
2, 77239, Note_on_c, 0, 29, 0
2, 77330, Note_on_c, 0, 53, 61
2, 77330, Note_on_c, 0, 58, 63
2, 77337, Note_on_c, 0, 77, 0
2, 77337, Note_on_c, 0, 62, 63
2, 77341, Note_on_c, 0, 89, 0
2, 77341, Note_on_c, 0, 84, 61
2, 77345, Note_on_c, 0, 72, 65
2, 77414, Note_on_c, 0, 58, 0
2, 77414, Note_on_c, 0, 53, 0
2, 77420, Note_on_c, 0, 62, 0
2, 77437, Note_on_c, 0, 72, 0
2, 77437, Note_on_c, 0, 84, 0
2, 77437, Note_on_c, 0, 74, 64
2, 77443, Note_on_c, 0, 86, 63
2, 77524, Control_c, 0, 64, 127
2, 77534, Control_c, 0, 64, 0
2, 77537, Note_on_c, 0, 75, 65
2, 77537, Note_on_c, 0, 87, 62
2, 77541, Note_on_c, 0, 48, 64
2, 77551, Note_on_c, 0, 36, 56
2, 77564, Note_on_c, 0, 86, 0
2, 77568, Note_on_c, 0, 74, 0
2, 77637, Note_on_c, 0, 75, 0
2, 77641, Note_on_c, 0, 74, 69
2, 77666, Note_on_c, 0, 87, 0
2, 77674, Note_on_c, 0, 48, 0
2, 77674, Note_on_c, 0, 86, 65
2, 77678, Note_on_c, 0, 36, 0
2, 77739, Note_on_c, 0, 63, 65
2, 77739, Note_on_c, 0, 53, 64
2, 77743, Note_on_c, 0, 75, 66
2, 77743, Note_on_c, 0, 57, 64
2, 77749, Note_on_c, 0, 74, 0
2, 77749, Note_on_c, 0, 87, 65
2, 77770, Note_on_c, 0, 86, 0
2, 77793, Note_on_c, 0, 75, 0
2, 77843, Note_on_c, 0, 63, 0
2, 77843, Note_on_c, 0, 81, 60
2, 77847, Note_on_c, 0, 53, 0
2, 77847, Note_on_c, 0, 87, 0
2, 77847, Note_on_c, 0, 57, 0
2, 77847, Note_on_c, 0, 75, 56
2, 77853, Note_on_c, 0, 77, 58
2, 77876, Note_on_c, 0, 69, 66
2, 77949, Note_on_c, 0, 29, 60
2, 77978, Note_on_c, 0, 41, 61
2, 78028, Note_on_c, 0, 29, 0
2, 78055, Note_on_c, 0, 41, 0
2, 78147, Note_on_c, 0, 63, 63
2, 78147, Note_on_c, 0, 53, 61
2, 78155, Note_on_c, 0, 57, 59
2, 78226, Note_on_c, 0, 63, 0
2, 78226, Note_on_c, 0, 81, 0
2, 78226, Note_on_c, 0, 77, 0
2, 78226, Note_on_c, 0, 75, 0
2, 78231, Note_on_c, 0, 69, 0
2, 78231, Note_on_c, 0, 57, 0
2, 78231, Note_on_c, 0, 53, 0
2, 78347, Note_on_c, 0, 81, 68
2, 78347, Note_on_c, 0, 69, 67
2, 78351, Note_on_c, 0, 48, 64
2, 78362, Note_on_c, 0, 36, 57
2, 78395, Control_c, 0, 64, 127
2, 78445, Control_c, 0, 64, 0
2, 78456, Note_on_c, 0, 68, 63
2, 78462, Note_on_c, 0, 48, 0
2, 78462, Note_on_c, 0, 81, 0
2, 78462, Note_on_c, 0, 69, 0
2, 78462, Note_on_c, 0, 80, 61
2, 78466, Note_on_c, 0, 36, 0
2, 78558, Note_on_c, 0, 81, 62
2, 78558, Note_on_c, 0, 63, 63
2, 78562, Note_on_c, 0, 68, 0
2, 78562, Note_on_c, 0, 53, 60
2, 78562, Note_on_c, 0, 69, 61
2, 78568, Note_on_c, 0, 80, 0
2, 78568, Note_on_c, 0, 60, 60
2, 78660, Note_on_c, 0, 63, 0
2, 78664, Note_on_c, 0, 69, 0
2, 78664, Note_on_c, 0, 53, 0
2, 78664, Note_on_c, 0, 81, 0
2, 78664, Note_on_c, 0, 60, 0
2, 78664, Note_on_c, 0, 74, 65
2, 78670, Note_on_c, 0, 86, 63
2, 78766, Note_on_c, 0, 41, 61
2, 78766, Note_on_c, 0, 29, 59
2, 78785, Note_on_c, 0, 86, 0
2, 78789, Note_on_c, 0, 74, 0
2, 78866, Note_on_c, 0, 84, 67
2, 78869, Note_on_c, 0, 41, 0
2, 78869, Note_on_c, 0, 29, 0
2, 78869, Note_on_c, 0, 72, 68
2, 78962, Note_on_c, 0, 63, 64
2, 78962, Note_on_c, 0, 53, 61
2, 78967, Note_on_c, 0, 72, 0
2, 78967, Note_on_c, 0, 84, 0
2, 78967, Note_on_c, 0, 79, 60
2, 78967, Note_on_c, 0, 57, 60
2, 78967, Note_on_c, 0, 67, 62
2, 79069, Note_on_c, 0, 67, 0
2, 79069, Note_on_c, 0, 63, 0
2, 79069, Note_on_c, 0, 81, 64
2, 79073, Note_on_c, 0, 53, 0
2, 79073, Note_on_c, 0, 57, 0
2, 79073, Note_on_c, 0, 79, 0
2, 79073, Note_on_c, 0, 69, 64
2, 79169, Note_on_c, 0, 69, 0
2, 79169, Note_on_c, 0, 81, 0
2, 79169, Note_on_c, 0, 70, 63
2, 79169, Note_on_c, 0, 82, 64
2, 79173, Note_on_c, 0, 46, 61
2, 79190, Note_on_c, 0, 34, 52
2, 79221, Control_c, 0, 64, 127
2, 79267, Note_on_c, 0, 81, 67
2, 79273, Note_on_c, 0, 82, 0
2, 79277, Note_on_c, 0, 70, 0
2, 79277, Control_c, 0, 64, 0
2, 79288, Note_on_c, 0, 34, 0
2, 79296, Note_on_c, 0, 69, 70
2, 79302, Note_on_c, 0, 46, 0
2, 79373, Note_on_c, 0, 70, 60
2, 79373, Note_on_c, 0, 58, 63
2, 79378, Note_on_c, 0, 69, 0
2, 79378, Note_on_c, 0, 81, 0
2, 79378, Note_on_c, 0, 53, 61
2, 79378, Note_on_c, 0, 82, 62
2, 79382, Note_on_c, 0, 62, 62
2, 79403, Note_on_c, 0, 70, 0
2, 79459, Note_on_c, 0, 58, 0
2, 79459, Note_on_c, 0, 53, 0
2, 79463, Note_on_c, 0, 62, 0
2, 79480, Note_on_c, 0, 70, 58
2, 79480, Note_on_c, 0, 74, 57
2, 79484, Note_on_c, 0, 82, 0
2, 79484, Note_on_c, 0, 79, 52
2, 79490, Note_on_c, 0, 67, 55
2, 79586, Note_on_c, 0, 29, 59
2, 79586, Note_on_c, 0, 41, 61
2, 79711, Note_on_c, 0, 41, 0
2, 79711, Note_on_c, 0, 29, 0
2, 79780, Note_on_c, 0, 58, 63
2, 79780, Note_on_c, 0, 53, 60
2, 79784, Note_on_c, 0, 62, 62
2, 79885, Note_on_c, 0, 53, 0
2, 79885, Note_on_c, 0, 67, 0
2, 79885, Note_on_c, 0, 79, 0
2, 79889, Note_on_c, 0, 58, 0
2, 79889, Note_on_c, 0, 70, 0
2, 79893, Note_on_c, 0, 62, 0
2, 79918, Note_on_c, 0, 74, 0
2, 79985, Note_on_c, 0, 75, 62
2, 79985, Note_on_c, 0, 51, 60
2, 79985, Note_on_c, 0, 67, 59
2, 79989, Note_on_c, 0, 87, 60
2, 79989, Note_on_c, 0, 39, 58
2, 80010, Control_c, 0, 64, 127
2, 80056, Note_on_c, 0, 67, 0
2, 80056, Note_on_c, 0, 75, 0
2, 80060, Note_on_c, 0, 87, 0
2, 80066, Note_on_c, 0, 39, 0
2, 80066, Control_c, 0, 64, 0
2, 80089, Note_on_c, 0, 51, 0
2, 80179, Note_on_c, 0, 63, 66
2, 80179, Note_on_c, 0, 58, 67
2, 80183, Note_on_c, 0, 82, 64
2, 80183, Note_on_c, 0, 70, 64
2, 80183, Note_on_c, 0, 67, 64
2, 80187, Note_on_c, 0, 55, 61
2, 80258, Note_on_c, 0, 67, 0
2, 80258, Note_on_c, 0, 82, 0
2, 80258, Note_on_c, 0, 63, 0
2, 80263, Note_on_c, 0, 58, 0
2, 80263, Note_on_c, 0, 70, 0
2, 80263, Note_on_c, 0, 55, 0
2, 80386, Note_on_c, 0, 70, 63
2, 80386, Note_on_c, 0, 55, 60
2, 80390, Note_on_c, 0, 84, 63
2, 80390, Note_on_c, 0, 72, 64
2, 80390, Note_on_c, 0, 43, 59
2, 80484, Note_on_c, 0, 72, 0
2, 80484, Note_on_c, 0, 84, 0
2, 80488, Note_on_c, 0, 55, 0
2, 80492, Note_on_c, 0, 70, 0
2, 80492, Note_on_c, 0, 43, 0
2, 80584, Note_on_c, 0, 70, 64
2, 80584, Note_on_c, 0, 85, 61
2, 80584, Note_on_c, 0, 73, 63
2, 80592, Note_on_c, 0, 42, 58
2, 80597, Note_on_c, 0, 54, 60
2, 80693, Note_on_c, 0, 73, 0
2, 80693, Note_on_c, 0, 85, 0
2, 80697, Note_on_c, 0, 54, 0
2, 80697, Note_on_c, 0, 70, 0
2, 80724, Note_on_c, 0, 42, 0
2, 80789, Note_on_c, 0, 70, 64
2, 80793, Note_on_c, 0, 74, 64
2, 80793, Note_on_c, 0, 53, 64
2, 80797, Note_on_c, 0, 86, 60
2, 80797, Note_on_c, 0, 41, 60
2, 80824, Control_c, 0, 64, 127
2, 80868, Note_on_c, 0, 86, 0
2, 80868, Control_c, 0, 64, 0
2, 80874, Note_on_c, 0, 53, 0
2, 80874, Note_on_c, 0, 74, 0
2, 80877, Note_on_c, 0, 41, 0
2, 80891, Note_on_c, 0, 73, 67
2, 80891, Note_on_c, 0, 85, 65
2, 80996, Note_on_c, 0, 85, 0
2, 80996, Note_on_c, 0, 73, 0
2, 80996, Note_on_c, 0, 53, 60
2, 80996, Note_on_c, 0, 58, 62
2, 80996, Note_on_c, 0, 62, 62
2, 80996, Note_on_c, 0, 86, 60
2, 80996, Note_on_c, 0, 74, 63
2, 81094, Note_on_c, 0, 86, 0
2, 81098, Note_on_c, 0, 53, 0
2, 81098, Note_on_c, 0, 58, 0
2, 81098, Note_on_c, 0, 74, 0
2, 81098, Note_on_c, 0, 91, 64
2, 81098, Note_on_c, 0, 79, 61
2, 81104, Note_on_c, 0, 62, 0
2, 81207, Note_on_c, 0, 41, 61
2, 81207, Note_on_c, 0, 29, 59
2, 81253, Note_on_c, 0, 79, 0
2, 81303, Note_on_c, 0, 91, 0
2, 81307, Note_on_c, 0, 41, 0
2, 81307, Note_on_c, 0, 89, 67
2, 81307, Note_on_c, 0, 77, 64
2, 81336, Note_on_c, 0, 29, 0
2, 81399, Note_on_c, 0, 74, 68
2, 81405, Note_on_c, 0, 77, 0
2, 81405, Note_on_c, 0, 53, 62
2, 81405, Note_on_c, 0, 58, 63
2, 81405, Note_on_c, 0, 62, 63
2, 81416, Note_on_c, 0, 70, 0
2, 81430, Note_on_c, 0, 89, 0
2, 81434, Note_on_c, 0, 86, 67
2, 81499, Note_on_c, 0, 70, 66
2, 81505, Note_on_c, 0, 86, 0
2, 81510, Note_on_c, 0, 53, 0
2, 81510, Note_on_c, 0, 58, 0
2, 81510, Note_on_c, 0, 82, 65
2, 81514, Note_on_c, 0, 74, 0
2, 81514, Note_on_c, 0, 62, 0
2, 81602, Note_on_c, 0, 79, 63
2, 81602, Note_on_c, 0, 67, 64
2, 81608, Note_on_c, 0, 48, 64
2, 81614, Note_on_c, 0, 82, 0
2, 81623, Note_on_c, 0, 70, 0
2, 81623, Note_on_c, 0, 36, 57
2, 81637, Control_c, 0, 64, 127
2, 81671, Control_c, 0, 64, 0
2, 81710, Note_on_c, 0, 80, 60
2, 81710, Note_on_c, 0, 68, 62
2, 81715, Note_on_c, 0, 67, 0
2, 81715, Note_on_c, 0, 79, 0
2, 81723, Note_on_c, 0, 48, 0
2, 81750, Note_on_c, 0, 36, 0
2, 81815, Note_on_c, 0, 81, 69
2, 81819, Note_on_c, 0, 63, 64
2, 81823, Note_on_c, 0, 53, 63
2, 81823, Note_on_c, 0, 57, 61
2, 81848, Note_on_c, 0, 68, 0
2, 81848, Note_on_c, 0, 80, 0
2, 81921, Note_on_c, 0, 63, 0
2, 81921, Note_on_c, 0, 81, 0
2, 81924, Note_on_c, 0, 57, 0
2, 81924, Note_on_c, 0, 53, 0
2, 81924, Note_on_c, 0, 69, 61
2, 81924, Note_on_c, 0, 89, 63
2, 81932, Note_on_c, 0, 77, 61
2, 82026, Note_on_c, 0, 29, 59
2, 82026, Note_on_c, 0, 41, 61
2, 82047, Note_on_c, 0, 77, 0
2, 82047, Note_on_c, 0, 69, 0
2, 82051, Note_on_c, 0, 89, 0
2, 82126, Note_on_c, 0, 87, 66
2, 82126, Note_on_c, 0, 75, 68
2, 82131, Note_on_c, 0, 41, 0
2, 82131, Note_on_c, 0, 29, 0
2, 82223, Note_on_c, 0, 63, 64
2, 82227, Note_on_c, 0, 67, 60
2, 82227, Note_on_c, 0, 79, 60
2, 82227, Note_on_c, 0, 57, 59
2, 82230, Note_on_c, 0, 87, 0
2, 82230, Note_on_c, 0, 75, 0
2, 82230, Note_on_c, 0, 53, 60
2, 82302, Note_on_c, 0, 67, 0
2, 82302, Note_on_c, 0, 63, 0
2, 82306, Note_on_c, 0, 57, 0
2, 82306, Note_on_c, 0, 79, 0
2, 82306, Note_on_c, 0, 53, 0
2, 82325, Note_on_c, 0, 81, 68
2, 82329, Note_on_c, 0, 69, 67
2, 82432, Note_on_c, 0, 69, 0
2, 82432, Note_on_c, 0, 81, 0
2, 82432, Note_on_c, 0, 82, 59
2, 82436, Note_on_c, 0, 70, 58
2, 82436, Note_on_c, 0, 46, 61
2, 82436, Note_on_c, 0, 74, 57
2, 82440, Note_on_c, 0, 77, 55
2, 82455, Note_on_c, 0, 34, 52
2, 82538, Note_on_c, 0, 46, 0
2, 82547, Note_on_c, 0, 34, 0
2, 82656, Note_on_c, 0, 53, 62
2, 82662, Note_on_c, 0, 58, 64
2, 82668, Note_on_c, 0, 62, 63
2, 82743, Note_on_c, 0, 53, 0
2, 82746, Note_on_c, 0, 58, 0
2, 82746, Note_on_c, 0, 62, 0
2, 82833, Note_on_c, 0, 53, 65
2, 82838, Note_on_c, 0, 58, 63
2, 82875, Note_on_c, 0, 62, 65
2, 82946, Note_on_c, 0, 77, 0
2, 82953, Note_on_c, 0, 70, 0
2, 82974, Note_on_c, 0, 74, 0
2, 83024, Note_on_c, 0, 82, 0
2, 83051, Note_on_c, 0, 53, 0
2, 83051, Note_on_c, 0, 58, 0
2, 83051, Note_on_c, 0, 77, 66
2, 83051, Note_on_c, 0, 89, 68
2, 83055, Note_on_c, 0, 62, 0
2, 83151, Note_on_c, 0, 77, 0
2, 83156, Note_on_c, 0, 89, 0
2, 83250, Note_on_c, 0, 89, 65
2, 83250, Note_on_c, 0, 101, 70
2, 83256, Note_on_c, 0, 46, 62
2, 83273, Note_on_c, 0, 34, 52
2, 83296, Control_c, 0, 64, 127
2, 83348, Note_on_c, 0, 101, 0
2, 83348, Note_on_c, 0, 100, 65
2, 83352, Note_on_c, 0, 89, 0
2, 83352, Control_c, 0, 64, 0
2, 83357, Note_on_c, 0, 46, 0
2, 83357, Note_on_c, 0, 88, 63
2, 83365, Note_on_c, 0, 34, 0
2, 83451, Note_on_c, 0, 101, 66
2, 83451, Note_on_c, 0, 58, 67
2, 83457, Note_on_c, 0, 88, 0
2, 83457, Note_on_c, 0, 100, 0
2, 83457, Note_on_c, 0, 89, 64
2, 83457, Note_on_c, 0, 53, 66
2, 83457, Note_on_c, 0, 62, 65
2, 83551, Note_on_c, 0, 91, 67
2, 83555, Note_on_c, 0, 89, 0
2, 83555, Note_on_c, 0, 101, 0
2, 83560, Note_on_c, 0, 53, 0
2, 83560, Note_on_c, 0, 58, 0
2, 83564, Note_on_c, 0, 62, 0
2, 83574, Note_on_c, 0, 103, 75
2, 83658, Note_on_c, 0, 29, 59
2, 83658, Note_on_c, 0, 41, 62
2, 83702, Note_on_c, 0, 103, 0
2, 83702, Note_on_c, 0, 91, 0
2, 83750, Note_on_c, 0, 101, 72
2, 83750, Note_on_c, 0, 89, 68
2, 83758, Note_on_c, 0, 29, 0
2, 83758, Note_on_c, 0, 41, 0
2, 83857, Note_on_c, 0, 89, 0
2, 83857, Note_on_c, 0, 96, 67
2, 83857, Note_on_c, 0, 53, 62
2, 83857, Note_on_c, 0, 58, 63
2, 83857, Note_on_c, 0, 62, 63
2, 83857, Note_on_c, 0, 84, 64
2, 83876, Note_on_c, 0, 101, 0
2, 83955, Note_on_c, 0, 98, 72
2, 83962, Note_on_c, 0, 58, 0
2, 83962, Note_on_c, 0, 53, 0
2, 83985, Note_on_c, 0, 84, 0
2, 83985, Note_on_c, 0, 96, 0
2, 83985, Note_on_c, 0, 86, 66
2, 83993, Note_on_c, 0, 62, 0
2, 84052, Note_on_c, 0, 99, 71
2, 84052, Note_on_c, 0, 87, 65
2, 84062, Note_on_c, 0, 86, 0
2, 84062, Note_on_c, 0, 48, 65
2, 84075, Note_on_c, 0, 36, 56
2, 84087, Note_on_c, 0, 98, 0
2, 84098, Control_c, 0, 64, 127
2, 84114, Control_c, 0, 64, 0
2, 84152, Note_on_c, 0, 98, 71
2, 84163, Note_on_c, 0, 87, 0
2, 84163, Note_on_c, 0, 86, 60
2, 84194, Note_on_c, 0, 48, 0
2, 84198, Note_on_c, 0, 36, 0
2, 84211, Note_on_c, 0, 99, 0
2, 84251, Note_on_c, 0, 99, 62
2, 84259, Note_on_c, 0, 87, 66
2, 84263, Note_on_c, 0, 57, 61
2, 84263, Note_on_c, 0, 53, 63
2, 84267, Note_on_c, 0, 63, 62
2, 84286, Note_on_c, 0, 87, 0
2, 84286, Note_on_c, 0, 86, 0
2, 84292, Note_on_c, 0, 98, 0
2, 84370, Note_on_c, 0, 57, 0
2, 84370, Note_on_c, 0, 53, 0
2, 84370, Note_on_c, 0, 63, 0
2, 84370, Note_on_c, 0, 81, 59
2, 84370, Note_on_c, 0, 87, 57
2, 84370, Note_on_c, 0, 93, 62
2, 84374, Note_on_c, 0, 89, 60
2, 84443, Note_on_c, 0, 99, 0
2, 84479, Note_on_c, 0, 29, 60
2, 84504, Note_on_c, 0, 41, 62
2, 84586, Note_on_c, 0, 41, 0
2, 84586, Note_on_c, 0, 29, 0
2, 84674, Note_on_c, 0, 63, 64
2, 84674, Note_on_c, 0, 53, 61
2, 84682, Note_on_c, 0, 57, 59
2, 84749, Note_on_c, 0, 63, 0
2, 84749, Note_on_c, 0, 81, 0
2, 84749, Note_on_c, 0, 87, 0
2, 84753, Note_on_c, 0, 89, 0
2, 84758, Note_on_c, 0, 93, 0
2, 84758, Note_on_c, 0, 53, 0
2, 84758, Note_on_c, 0, 57, 0
2, 84875, Note_on_c, 0, 81, 69
2, 84875, Note_on_c, 0, 93, 72
2, 84881, Note_on_c, 0, 48, 64
2, 84894, Note_on_c, 0, 36, 57
2, 84936, Control_c, 0, 64, 127
2, 84980, Note_on_c, 0, 92, 69
2, 84984, Note_on_c, 0, 80, 62
2, 84988, Note_on_c, 0, 81, 0
2, 84996, Note_on_c, 0, 93, 0
2, 84996, Note_on_c, 0, 48, 0
2, 84999, Control_c, 0, 64, 0
2, 85022, Note_on_c, 0, 36, 0
2, 85082, Note_on_c, 0, 81, 64
2, 85087, Note_on_c, 0, 93, 66
2, 85087, Note_on_c, 0, 53, 60
2, 85087, Note_on_c, 0, 63, 62
2, 85091, Note_on_c, 0, 92, 0
2, 85091, Note_on_c, 0, 80, 0
2, 85091, Note_on_c, 0, 60, 60
2, 85185, Note_on_c, 0, 81, 0
2, 85185, Note_on_c, 0, 63, 0
2, 85189, Note_on_c, 0, 60, 0
2, 85189, Note_on_c, 0, 53, 0
2, 85189, Note_on_c, 0, 98, 67
2, 85196, Note_on_c, 0, 93, 0
2, 85196, Note_on_c, 0, 86, 62
2, 85298, Note_on_c, 0, 29, 59
2, 85298, Note_on_c, 0, 41, 62
2, 85313, Note_on_c, 0, 86, 0
2, 85317, Note_on_c, 0, 98, 0
2, 85395, Note_on_c, 0, 96, 70
2, 85395, Note_on_c, 0, 84, 67
2, 85401, Note_on_c, 0, 29, 0
2, 85401, Note_on_c, 0, 41, 0
2, 85491, Note_on_c, 0, 91, 64
2, 85491, Note_on_c, 0, 63, 64
2, 85491, Note_on_c, 0, 53, 62
2, 85491, Note_on_c, 0, 79, 60
2, 85491, Note_on_c, 0, 57, 60
2, 85495, Note_on_c, 0, 96, 0
2, 85495, Note_on_c, 0, 84, 0
2, 85592, Note_on_c, 0, 91, 0
2, 85592, Note_on_c, 0, 81, 64
2, 85596, Note_on_c, 0, 57, 0
2, 85596, Note_on_c, 0, 63, 0
2, 85596, Note_on_c, 0, 79, 0
2, 85596, Note_on_c, 0, 93, 69
2, 85600, Note_on_c, 0, 53, 0
2, 85690, Note_on_c, 0, 94, 68
2, 85699, Note_on_c, 0, 81, 0
2, 85699, Note_on_c, 0, 82, 64
2, 85703, Note_on_c, 0, 46, 61
2, 85709, Note_on_c, 0, 93, 0
2, 85720, Note_on_c, 0, 34, 51
2, 85741, Control_c, 0, 64, 127
2, 85791, Control_c, 0, 64, 0
2, 85799, Note_on_c, 0, 94, 0
2, 85799, Note_on_c, 0, 81, 64
2, 85804, Note_on_c, 0, 82, 0
2, 85804, Note_on_c, 0, 93, 67
2, 85808, Note_on_c, 0, 46, 0
2, 85818, Note_on_c, 0, 34, 0
2, 85894, Note_on_c, 0, 94, 67
2, 85900, Note_on_c, 0, 82, 64
2, 85900, Note_on_c, 0, 58, 67
2, 85904, Note_on_c, 0, 81, 0
2, 85904, Note_on_c, 0, 53, 65
2, 85908, Note_on_c, 0, 62, 65
2, 85911, Note_on_c, 0, 93, 0
2, 85955, Note_on_c, 0, 82, 0
2, 86001, Note_on_c, 0, 82, 49
2, 86005, Note_on_c, 0, 94, 0
2, 86009, Note_on_c, 0, 62, 0
2, 86009, Note_on_c, 0, 58, 0
2, 86009, Note_on_c, 0, 53, 0
2, 86009, Note_on_c, 0, 91, 59
2, 86009, Note_on_c, 0, 79, 56
2, 86018, Note_on_c, 0, 86, 57
2, 86114, Note_on_c, 0, 29, 59
2, 86114, Note_on_c, 0, 41, 61
2, 86221, Note_on_c, 0, 41, 0
2, 86221, Note_on_c, 0, 29, 0
2, 86238, Note_on_c, 0, 86, 0
2, 86242, Note_on_c, 0, 79, 0
2, 86242, Note_on_c, 0, 82, 0
2, 86265, Note_on_c, 0, 91, 0
2, 86334, Note_on_c, 0, 98, 70
2, 86338, Note_on_c, 0, 53, 62
2, 86341, Note_on_c, 0, 58, 63
2, 86341, Note_on_c, 0, 86, 64
2, 86347, Note_on_c, 0, 62, 64
2, 86395, Note_on_c, 0, 58, 0
2, 86395, Note_on_c, 0, 53, 0
2, 86401, Note_on_c, 0, 62, 0
2, 86496, Note_on_c, 0, 98, 0
2, 86515, Note_on_c, 0, 58, 64
2, 86515, Note_on_c, 0, 96, 68
2, 86519, Note_on_c, 0, 86, 0
2, 86519, Note_on_c, 0, 84, 65
2, 86523, Note_on_c, 0, 46, 61
2, 86571, Control_c, 0, 64, 127
2, 86622, Note_on_c, 0, 84, 0
2, 86628, Note_on_c, 0, 46, 0
2, 86628, Note_on_c, 0, 58, 0
2, 86634, Control_c, 0, 64, 0
2, 86649, Note_on_c, 0, 96, 0
2, 86712, Note_on_c, 0, 94, 70
2, 86720, Note_on_c, 0, 58, 62
2, 86725, Note_on_c, 0, 53, 61
2, 86725, Note_on_c, 0, 82, 67
2, 86729, Note_on_c, 0, 62, 63
2, 86825, Note_on_c, 0, 94, 0
2, 86830, Note_on_c, 0, 82, 0
2, 86830, Note_on_c, 0, 53, 0
2, 86836, Note_on_c, 0, 58, 0
2, 86836, Note_on_c, 0, 62, 0
2, 86924, Note_on_c, 0, 91, 67
2, 86928, Note_on_c, 0, 79, 64
2, 86928, Note_on_c, 0, 62, 67
2, 86928, Note_on_c, 0, 50, 59
2, 87029, Note_on_c, 0, 79, 0
2, 87050, Note_on_c, 0, 91, 0
2, 87123, Note_on_c, 0, 80, 66
2, 87123, Note_on_c, 0, 92, 72
2, 87130, Note_on_c, 0, 61, 61
2, 87130, Note_on_c, 0, 49, 60
2, 87138, Note_on_c, 0, 62, 0
2, 87138, Note_on_c, 0, 50, 0
2, 87230, Note_on_c, 0, 92, 0
2, 87230, Note_on_c, 0, 80, 0
2, 87302, Control_c, 0, 64, 127
2, 87327, Note_on_c, 0, 81, 66
2, 87331, Note_on_c, 0, 49, 0
2, 87331, Note_on_c, 0, 48, 63
2, 87331, Note_on_c, 0, 93, 70
2, 87338, Note_on_c, 0, 60, 63
2, 87354, Note_on_c, 0, 61, 0
2, 87407, Control_c, 0, 64, 0
2, 87430, Note_on_c, 0, 81, 0
2, 87430, Note_on_c, 0, 101, 67
2, 87430, Note_on_c, 0, 89, 64
2, 87438, Note_on_c, 0, 93, 0
2, 87524, Note_on_c, 0, 99, 67
2, 87529, Note_on_c, 0, 101, 0
2, 87529, Note_on_c, 0, 63, 65
2, 87529, Note_on_c, 0, 87, 64
2, 87529, Note_on_c, 0, 53, 64
2, 87533, Note_on_c, 0, 89, 0
2, 87533, Note_on_c, 0, 60, 0
2, 87533, Note_on_c, 0, 57, 64
2, 87537, Note_on_c, 0, 48, 0
2, 87629, Note_on_c, 0, 96, 67
2, 87632, Note_on_c, 0, 87, 0
2, 87632, Note_on_c, 0, 63, 0
2, 87632, Note_on_c, 0, 57, 0
2, 87636, Note_on_c, 0, 53, 0
2, 87636, Note_on_c, 0, 84, 64
2, 87676, Note_on_c, 0, 99, 0
2, 87722, Note_on_c, 0, 81, 65
2, 87722, Note_on_c, 0, 93, 69
2, 87730, Note_on_c, 0, 84, 0
2, 87730, Note_on_c, 0, 96, 0
2, 87730, Note_on_c, 0, 29, 59
2, 87730, Note_on_c, 0, 41, 61
2, 87812, Note_on_c, 0, 29, 0
2, 87829, Note_on_c, 0, 81, 0
2, 87833, Note_on_c, 0, 93, 0
2, 87837, Note_on_c, 0, 41, 0
2, 87924, Note_on_c, 0, 99, 71
2, 87930, Note_on_c, 0, 63, 64
2, 87930, Note_on_c, 0, 53, 63
2, 87930, Note_on_c, 0, 87, 65
2, 87936, Note_on_c, 0, 57, 60
2, 88035, Note_on_c, 0, 87, 0
2, 88035, Note_on_c, 0, 63, 0
2, 88039, Note_on_c, 0, 57, 0
2, 88039, Note_on_c, 0, 53, 0
2, 88083, Note_on_c, 0, 99, 0
2, 88132, Note_on_c, 0, 98, 71
2, 88136, Note_on_c, 0, 48, 65
2, 88136, Note_on_c, 0, 86, 64
2, 88140, Control_c, 0, 64, 127
2, 88150, Note_on_c, 0, 36, 56
2, 88165, Control_c, 0, 64, 0
2, 88239, Note_on_c, 0, 86, 0
2, 88239, Note_on_c, 0, 98, 0
2, 88247, Note_on_c, 0, 48, 0
2, 88247, Note_on_c, 0, 36, 0
2, 88337, Note_on_c, 0, 63, 67
2, 88337, Note_on_c, 0, 96, 69
2, 88340, Note_on_c, 0, 53, 65
2, 88340, Note_on_c, 0, 84, 68
2, 88340, Note_on_c, 0, 57, 64
2, 88470, Note_on_c, 0, 84, 0
2, 88470, Note_on_c, 0, 96, 0
2, 88474, Note_on_c, 0, 63, 0
2, 88474, Note_on_c, 0, 57, 0
2, 88480, Note_on_c, 0, 53, 0
2, 88548, Note_on_c, 0, 91, 68
2, 88548, Note_on_c, 0, 79, 64
2, 88554, Note_on_c, 0, 41, 61
2, 88554, Note_on_c, 0, 29, 59
2, 88653, Note_on_c, 0, 79, 0
2, 88659, Note_on_c, 0, 29, 0
2, 88659, Note_on_c, 0, 41, 0
2, 88676, Note_on_c, 0, 91, 0
2, 88743, Note_on_c, 0, 81, 67
2, 88743, Note_on_c, 0, 63, 64
2, 88747, Note_on_c, 0, 53, 62
2, 88747, Note_on_c, 0, 93, 71
2, 88751, Note_on_c, 0, 57, 60
2, 88854, Note_on_c, 0, 63, 0
2, 88854, Note_on_c, 0, 81, 0
2, 88859, Note_on_c, 0, 93, 0
2, 88859, Note_on_c, 0, 53, 0
2, 88859, Note_on_c, 0, 57, 0
2, 88947, Note_on_c, 0, 94, 71
2, 88957, Note_on_c, 0, 82, 68
2, 88964, Note_on_c, 0, 46, 62
2, 88979, Note_on_c, 0, 34, 53
2, 89023, Control_c, 0, 64, 127
2, 89058, Note_on_c, 0, 94, 0
2, 89061, Note_on_c, 0, 101, 67
2, 89065, Note_on_c, 0, 82, 0
2, 89065, Note_on_c, 0, 46, 0
2, 89065, Note_on_c, 0, 89, 64
2, 89073, Note_on_c, 0, 34, 0
2, 89073, Control_c, 0, 64, 0
2, 89155, Note_on_c, 0, 98, 66
2, 89155, Note_on_c, 0, 58, 63
2, 89159, Note_on_c, 0, 101, 0
2, 89159, Note_on_c, 0, 53, 60
2, 89159, Note_on_c, 0, 62, 62
2, 89164, Note_on_c, 0, 89, 0
2, 89164, Note_on_c, 0, 86, 60
2, 89239, Note_on_c, 0, 53, 0
2, 89239, Note_on_c, 0, 58, 0
2, 89243, Note_on_c, 0, 62, 0
2, 89250, Note_on_c, 0, 94, 70
2, 89260, Note_on_c, 0, 86, 0
2, 89260, Note_on_c, 0, 82, 65
2, 89267, Note_on_c, 0, 98, 0
2, 89285, Note_on_c, 0, 82, 0
2, 89363, Note_on_c, 0, 94, 0
2, 89363, Note_on_c, 0, 91, 58
2, 89368, Note_on_c, 0, 82, 56
2, 89368, Note_on_c, 0, 29, 59
2, 89372, Note_on_c, 0, 41, 60
2, 89372, Note_on_c, 0, 79, 55
2, 89376, Note_on_c, 0, 86, 57
2, 89475, Note_on_c, 0, 41, 0
2, 89475, Note_on_c, 0, 29, 0
2, 89565, Note_on_c, 0, 58, 64
2, 89569, Note_on_c, 0, 53, 62
2, 89574, Note_on_c, 0, 62, 63
2, 89645, Note_on_c, 0, 79, 0
2, 89645, Note_on_c, 0, 91, 0
2, 89645, Note_on_c, 0, 82, 0
2, 89648, Note_on_c, 0, 58, 0
2, 89648, Note_on_c, 0, 86, 0
2, 89648, Note_on_c, 0, 53, 0
2, 89648, Note_on_c, 0, 62, 0
2, 89767, Note_on_c, 0, 89, 71
2, 89767, Note_on_c, 0, 46, 63
2, 89788, Note_on_c, 0, 34, 53
2, 89805, Control_c, 0, 64, 127
2, 89862, Control_c, 0, 64, 0
2, 89874, Note_on_c, 0, 88, 67
2, 89879, Note_on_c, 0, 46, 0
2, 89879, Note_on_c, 0, 89, 0
2, 89891, Note_on_c, 0, 34, 0
2, 89978, Note_on_c, 0, 58, 64
2, 89978, Note_on_c, 0, 53, 62
2, 89978, Note_on_c, 0, 89, 66
2, 89982, Note_on_c, 0, 88, 0
2, 89986, Note_on_c, 0, 62, 63
2, 90076, Note_on_c, 0, 91, 70
2, 90085, Note_on_c, 0, 58, 0
2, 90085, Note_on_c, 0, 89, 0
2, 90085, Note_on_c, 0, 53, 0
2, 90114, Note_on_c, 0, 62, 0
2, 90186, Note_on_c, 0, 29, 60
2, 90186, Note_on_c, 0, 41, 62
2, 90228, Note_on_c, 0, 91, 0
2, 90283, Note_on_c, 0, 89, 71
2, 90287, Note_on_c, 0, 41, 0
2, 90287, Note_on_c, 0, 29, 0
2, 90384, Note_on_c, 0, 58, 64
2, 90384, Note_on_c, 0, 53, 63
2, 90384, Note_on_c, 0, 84, 67
2, 90384, Note_on_c, 0, 62, 64
2, 90388, Note_on_c, 0, 89, 0
2, 90483, Note_on_c, 0, 84, 0
2, 90483, Note_on_c, 0, 86, 67
2, 90489, Note_on_c, 0, 58, 0
2, 90489, Note_on_c, 0, 53, 0
2, 90493, Note_on_c, 0, 62, 0
2, 90581, Note_on_c, 0, 87, 67
2, 90584, Note_on_c, 0, 86, 0
2, 90584, Note_on_c, 0, 48, 65
2, 90594, Note_on_c, 0, 36, 58
2, 90645, Control_c, 0, 64, 127
2, 90687, Note_on_c, 0, 87, 0
2, 90693, Note_on_c, 0, 86, 66
2, 90701, Control_c, 0, 64, 0
2, 90718, Note_on_c, 0, 48, 0
2, 90725, Note_on_c, 0, 36, 0
2, 90786, Note_on_c, 0, 63, 63
2, 90790, Note_on_c, 0, 86, 0
2, 90790, Note_on_c, 0, 87, 66
2, 90790, Note_on_c, 0, 53, 62
2, 90790, Note_on_c, 0, 57, 60
2, 90861, Note_on_c, 0, 87, 0
2, 90885, Note_on_c, 0, 81, 70
2, 90893, Note_on_c, 0, 63, 0
2, 90893, Note_on_c, 0, 57, 0
2, 90893, Note_on_c, 0, 53, 0
2, 90992, Note_on_c, 0, 41, 62
2, 90992, Note_on_c, 0, 29, 60
2, 91099, Note_on_c, 0, 29, 0
2, 91099, Note_on_c, 0, 41, 0
2, 91192, Note_on_c, 0, 63, 64
2, 91192, Note_on_c, 0, 57, 60
2, 91192, Note_on_c, 0, 53, 62
2, 91291, Note_on_c, 0, 81, 0
2, 91295, Note_on_c, 0, 63, 0
2, 91295, Note_on_c, 0, 57, 0
2, 91299, Note_on_c, 0, 53, 0
2, 91384, Note_on_c, 0, 81, 70
2, 91394, Note_on_c, 0, 48, 65
2, 91394, Control_c, 0, 64, 127
2, 91405, Note_on_c, 0, 36, 57
2, 91417, Control_c, 0, 64, 0
2, 91470, Note_on_c, 0, 81, 0
2, 91493, Note_on_c, 0, 80, 68
2, 91502, Note_on_c, 0, 36, 0
2, 91502, Note_on_c, 0, 48, 0
2, 91590, Note_on_c, 0, 81, 71
2, 91596, Note_on_c, 0, 53, 66
2, 91596, Note_on_c, 0, 63, 67
2, 91601, Note_on_c, 0, 80, 0
2, 91601, Note_on_c, 0, 60, 65
2, 91704, Note_on_c, 0, 63, 0
2, 91704, Note_on_c, 0, 86, 68
2, 91710, Note_on_c, 0, 60, 0
2, 91710, Note_on_c, 0, 53, 0
2, 91729, Note_on_c, 0, 81, 0
2, 91811, Note_on_c, 0, 41, 62
2, 91811, Note_on_c, 0, 29, 59
2, 91851, Note_on_c, 0, 86, 0
2, 91906, Note_on_c, 0, 84, 70
2, 91912, Note_on_c, 0, 29, 0
2, 91915, Note_on_c, 0, 41, 0
2, 92001, Note_on_c, 0, 84, 0
2, 92001, Note_on_c, 0, 63, 64
2, 92001, Note_on_c, 0, 79, 66
2, 92005, Note_on_c, 0, 53, 62
2, 92009, Note_on_c, 0, 57, 60
2, 92100, Note_on_c, 0, 81, 70
2, 92104, Note_on_c, 0, 57, 0
2, 92104, Note_on_c, 0, 79, 0
2, 92104, Note_on_c, 0, 63, 0
2, 92111, Note_on_c, 0, 53, 0
2, 92155, Control_c, 0, 64, 127
2, 92203, Note_on_c, 0, 82, 68
2, 92210, Note_on_c, 0, 81, 0
2, 92210, Note_on_c, 0, 46, 62
2, 92229, Note_on_c, 0, 34, 52
2, 92256, Control_c, 0, 64, 0
2, 92300, Note_on_c, 0, 81, 70
2, 92311, Note_on_c, 0, 82, 0
2, 92317, Note_on_c, 0, 46, 0
2, 92325, Note_on_c, 0, 34, 0
2, 92408, Note_on_c, 0, 81, 0
2, 92408, Note_on_c, 0, 82, 69
2, 92408, Note_on_c, 0, 58, 67
2, 92408, Note_on_c, 0, 53, 67
2, 92414, Note_on_c, 0, 62, 66
2, 92511, Note_on_c, 0, 82, 0
2, 92511, Note_on_c, 0, 79, 66
2, 92515, Note_on_c, 0, 58, 0
2, 92522, Note_on_c, 0, 62, 0
2, 92522, Note_on_c, 0, 53, 0
2, 92618, Note_on_c, 0, 41, 62
2, 92621, Note_on_c, 0, 29, 60
2, 92699, Note_on_c, 0, 29, 0
2, 92699, Note_on_c, 0, 41, 0
2, 92821, Note_on_c, 0, 53, 63
2, 92821, Note_on_c, 0, 58, 64
2, 92825, Note_on_c, 0, 62, 63
2, 92878, Note_on_c, 0, 79, 0
2, 92931, Note_on_c, 0, 53, 0
2, 92931, Note_on_c, 0, 58, 0
2, 92935, Note_on_c, 0, 62, 0
2, 93032, Note_on_c, 0, 79, 65
2, 93032, Note_on_c, 0, 51, 60
2, 93032, Note_on_c, 0, 87, 66
2, 93036, Note_on_c, 0, 39, 59
2, 93072, Control_c, 0, 64, 127
2, 93131, Note_on_c, 0, 87, 0
2, 93131, Note_on_c, 0, 79, 0
2, 93131, Note_on_c, 0, 51, 0
2, 93139, Note_on_c, 0, 39, 0
2, 93154, Control_c, 0, 64, 0
2, 93230, Note_on_c, 0, 58, 63
2, 93230, Note_on_c, 0, 63, 63
2, 93230, Note_on_c, 0, 79, 61
2, 93230, Note_on_c, 0, 82, 67
2, 93238, Note_on_c, 0, 55, 58
2, 93335, Note_on_c, 0, 82, 0
2, 93338, Note_on_c, 0, 79, 0
2, 93338, Note_on_c, 0, 58, 0
2, 93338, Note_on_c, 0, 63, 0
2, 93338, Note_on_c, 0, 55, 0
2, 93441, Note_on_c, 0, 82, 67
2, 93441, Note_on_c, 0, 55, 59
2, 93445, Note_on_c, 0, 84, 66
2, 93445, Note_on_c, 0, 43, 60
2, 93540, Note_on_c, 0, 84, 0
2, 93567, Note_on_c, 0, 82, 0
2, 93635, Note_on_c, 0, 85, 64
2, 93635, Note_on_c, 0, 82, 72
2, 93646, Note_on_c, 0, 55, 0
2, 93646, Note_on_c, 0, 43, 0
2, 93646, Note_on_c, 0, 42, 56
2, 93650, Note_on_c, 0, 54, 59
2, 93772, Note_on_c, 0, 85, 0
2, 93772, Note_on_c, 0, 82, 0
2, 93844, Control_c, 0, 64, 127
2, 93844, Note_on_c, 0, 53, 63
2, 93844, Note_on_c, 0, 82, 71
2, 93850, Note_on_c, 0, 54, 0
2, 93850, Note_on_c, 0, 41, 60
2, 93850, Note_on_c, 0, 86, 63
2, 93876, Control_c, 0, 64, 0
2, 93880, Note_on_c, 0, 42, 0
2, 93947, Note_on_c, 0, 85, 67
2, 93954, Note_on_c, 0, 53, 0
2, 93977, Note_on_c, 0, 86, 0
2, 94051, Note_on_c, 0, 53, 67
2, 94051, Note_on_c, 0, 58, 68
2, 94051, Note_on_c, 0, 86, 71
2, 94057, Note_on_c, 0, 85, 0
2, 94057, Note_on_c, 0, 62, 66
2, 94133, Note_on_c, 0, 41, 0
2, 94146, Note_on_c, 0, 91, 69
2, 94156, Note_on_c, 0, 58, 0
2, 94156, Note_on_c, 0, 53, 0
2, 94160, Note_on_c, 0, 62, 0
2, 94175, Note_on_c, 0, 86, 0
2, 94251, Note_on_c, 0, 82, 0
2, 94251, Note_on_c, 0, 41, 62
2, 94251, Note_on_c, 0, 29, 60
2, 94327, Note_on_c, 0, 91, 0
2, 94353, Note_on_c, 0, 89, 71
2, 94359, Note_on_c, 0, 29, 0
2, 94359, Note_on_c, 0, 41, 0
2, 94452, Note_on_c, 0, 89, 0
2, 94452, Note_on_c, 0, 53, 62
2, 94452, Note_on_c, 0, 58, 63
2, 94452, Note_on_c, 0, 86, 66
2, 94452, Note_on_c, 0, 62, 64
2, 94549, Note_on_c, 0, 82, 69
2, 94553, Note_on_c, 0, 86, 0
2, 94557, Note_on_c, 0, 53, 0
2, 94557, Note_on_c, 0, 58, 0
2, 94562, Note_on_c, 0, 62, 0
2, 94648, Note_on_c, 0, 79, 67
2, 94648, Note_on_c, 0, 48, 65
2, 94657, Note_on_c, 0, 82, 0
2, 94663, Note_on_c, 0, 36, 58
2, 94676, Control_c, 0, 64, 127
2, 94730, Note_on_c, 0, 79, 0
2, 94747, Note_on_c, 0, 80, 69
2, 94762, Note_on_c, 0, 36, 0
2, 94762, Note_on_c, 0, 48, 0
2, 94847, Note_on_c, 0, 81, 68
2, 94855, Note_on_c, 0, 63, 64
2, 94855, Note_on_c, 0, 53, 64
2, 94859, Note_on_c, 0, 80, 0
2, 94859, Control_c, 0, 64, 0
2, 94859, Note_on_c, 0, 57, 62
2, 94878, Note_on_c, 0, 81, 0
2, 94954, Note_on_c, 0, 81, 72
2, 94961, Note_on_c, 0, 53, 0
2, 94961, Note_on_c, 0, 57, 0
2, 94961, Note_on_c, 0, 63, 0
2, 94961, Note_on_c, 0, 89, 70
2, 95066, Note_on_c, 0, 29, 63
2, 95066, Note_on_c, 0, 41, 64
2, 95111, Note_on_c, 0, 81, 0
2, 95115, Note_on_c, 0, 89, 0
2, 95165, Note_on_c, 0, 87, 69
2, 95174, Note_on_c, 0, 29, 0
2, 95174, Note_on_c, 0, 41, 0
2, 95267, Note_on_c, 0, 79, 65
2, 95267, Note_on_c, 0, 53, 63
2, 95267, Note_on_c, 0, 63, 63
2, 95271, Note_on_c, 0, 87, 0
2, 95271, Note_on_c, 0, 57, 60
2, 95366, Note_on_c, 0, 81, 70
2, 95370, Note_on_c, 0, 63, 0
2, 95375, Note_on_c, 0, 57, 0
2, 95375, Note_on_c, 0, 79, 0
2, 95375, Note_on_c, 0, 53, 0
2, 95429, Control_c, 0, 64, 127
2, 95470, Note_on_c, 0, 81, 0
2, 95470, Note_on_c, 0, 82, 68
2, 95476, Note_on_c, 0, 46, 61
2, 95476, Control_c, 0, 64, 0
2, 95493, Note_on_c, 0, 34, 51
2, 95579, Note_on_c, 0, 46, 0
2, 95588, Note_on_c, 0, 34, 0
2, 95677, Note_on_c, 0, 53, 67
2, 95677, Note_on_c, 0, 58, 67
2, 95683, Note_on_c, 0, 62, 65
2, 95787, Note_on_c, 0, 58, 0
2, 95787, Note_on_c, 0, 53, 0
2, 95793, Note_on_c, 0, 62, 0
2, 95875, Note_on_c, 0, 53, 65
2, 95875, Note_on_c, 0, 62, 66
2, 95875, Note_on_c, 0, 58, 63
2, 95983, Note_on_c, 0, 82, 0
2, 96089, Note_on_c, 0, 53, 0
2, 96089, Note_on_c, 0, 58, 0
2, 96089, Note_on_c, 0, 89, 68
2, 96093, Note_on_c, 0, 62, 0
2, 96093, Note_on_c, 0, 77, 65
2, 96192, Note_on_c, 0, 77, 0
2, 96197, Note_on_c, 0, 89, 0
2, 96290, Control_c, 0, 64, 127
2, 96290, Note_on_c, 0, 58, 64
2, 96296, Note_on_c, 0, 82, 64
2, 96296, Note_on_c, 0, 74, 62
2, 96296, Note_on_c, 0, 70, 61
2, 96300, Note_on_c, 0, 46, 60
2, 96326, Note_on_c, 0, 70, 0
2, 96391, Note_on_c, 0, 70, 67
2, 96397, Note_on_c, 0, 82, 0
2, 96397, Note_on_c, 0, 58, 0
2, 96402, Note_on_c, 0, 46, 0
2, 96402, Control_c, 0, 64, 0
2, 96425, Note_on_c, 0, 74, 0
2, 96495, Note_on_c, 0, 58, 67
2, 96495, Note_on_c, 0, 53, 65
2, 96495, Note_on_c, 0, 62, 66
2, 96499, Note_on_c, 0, 72, 71
2, 96507, Note_on_c, 0, 70, 0
2, 96596, Note_on_c, 0, 72, 0
2, 96596, Note_on_c, 0, 73, 71
2, 96602, Note_on_c, 0, 58, 0
2, 96602, Note_on_c, 0, 61, 65
2, 96605, Note_on_c, 0, 53, 0
2, 96611, Note_on_c, 0, 62, 0
2, 96698, Note_on_c, 0, 61, 0
2, 96698, Note_on_c, 0, 74, 69
2, 96698, Note_on_c, 0, 62, 66
2, 96706, Note_on_c, 0, 73, 0
2, 96706, Note_on_c, 0, 50, 59
2, 96799, Note_on_c, 0, 81, 69
2, 96810, Note_on_c, 0, 74, 0
2, 96814, Note_on_c, 0, 62, 0
2, 96814, Note_on_c, 0, 50, 0
2, 96831, Note_on_c, 0, 69, 70
2, 96907, Note_on_c, 0, 61, 64
2, 96911, Note_on_c, 0, 49, 62
2, 96932, Note_on_c, 0, 69, 0
2, 96983, Note_on_c, 0, 81, 0
2, 97008, Note_on_c, 0, 61, 0
2, 97011, Note_on_c, 0, 49, 0
2, 97011, Note_on_c, 0, 67, 65
2, 97011, Note_on_c, 0, 79, 64
2, 97114, Note_on_c, 0, 67, 0
2, 97114, Note_on_c, 0, 65, 59
2, 97114, Note_on_c, 0, 60, 63
2, 97118, Note_on_c, 0, 79, 0
2, 97118, Note_on_c, 0, 48, 63
2, 97121, Note_on_c, 0, 77, 62
2, 97138, Control_c, 0, 64, 127
2, 97167, Control_c, 0, 64, 0
2, 97218, Note_on_c, 0, 77, 0
2, 97222, Note_on_c, 0, 65, 0
2, 97222, Note_on_c, 0, 60, 0
2, 97222, Note_on_c, 0, 48, 0
2, 97319, Note_on_c, 0, 63, 64
2, 97322, Note_on_c, 0, 53, 63
2, 97322, Note_on_c, 0, 69, 70
2, 97326, Note_on_c, 0, 57, 62
2, 97349, Note_on_c, 0, 63, 0
2, 97425, Note_on_c, 0, 57, 0
2, 97425, Note_on_c, 0, 69, 0
2, 97425, Note_on_c, 0, 63, 63
2, 97429, Note_on_c, 0, 53, 0
2, 97429, Note_on_c, 0, 75, 65
2, 97434, Note_on_c, 0, 72, 66
2, 97539, Note_on_c, 0, 41, 63
2, 97603, Note_on_c, 0, 63, 0
2, 97607, Note_on_c, 0, 41, 0
2, 97650, Note_on_c, 0, 72, 0
2, 97650, Note_on_c, 0, 75, 0
2, 97726, Note_on_c, 0, 63, 64
2, 97726, Note_on_c, 0, 53, 62
2, 97730, Note_on_c, 0, 57, 60
2, 97834, Note_on_c, 0, 57, 0
2, 97834, Note_on_c, 0, 63, 0
2, 97834, Note_on_c, 0, 74, 64
2, 97834, Note_on_c, 0, 70, 64
2, 97840, Note_on_c, 0, 53, 0
2, 97840, Note_on_c, 0, 82, 65
2, 97933, Note_on_c, 0, 58, 65
2, 97944, Note_on_c, 0, 70, 0
2, 97944, Note_on_c, 0, 46, 61
2, 97984, Control_c, 0, 64, 127
2, 98018, Note_on_c, 0, 74, 0
2, 98018, Note_on_c, 0, 82, 0
2, 98037, Note_on_c, 0, 70, 70
2, 98043, Note_on_c, 0, 58, 0
2, 98050, Note_on_c, 0, 46, 0
2, 98054, Control_c, 0, 64, 0
2, 98136, Note_on_c, 0, 58, 63
2, 98141, Note_on_c, 0, 53, 61
2, 98141, Note_on_c, 0, 72, 69
2, 98145, Note_on_c, 0, 70, 0
2, 98145, Note_on_c, 0, 62, 63
2, 98234, Note_on_c, 0, 72, 0
2, 98234, Note_on_c, 0, 73, 69
2, 98242, Note_on_c, 0, 58, 0
2, 98242, Note_on_c, 0, 53, 0
2, 98242, Note_on_c, 0, 61, 61
2, 98251, Note_on_c, 0, 62, 0
2, 98342, Note_on_c, 0, 61, 0
2, 98342, Note_on_c, 0, 74, 69
2, 98342, Note_on_c, 0, 62, 67
2, 98346, Note_on_c, 0, 73, 0
2, 98346, Note_on_c, 0, 50, 59
2, 98445, Note_on_c, 0, 81, 65
2, 98445, Note_on_c, 0, 69, 64
2, 98452, Note_on_c, 0, 74, 0
2, 98549, Note_on_c, 0, 61, 63
2, 98553, Note_on_c, 0, 49, 60
2, 98556, Note_on_c, 0, 62, 0
2, 98556, Note_on_c, 0, 50, 0
2, 98598, Note_on_c, 0, 69, 0
2, 98598, Note_on_c, 0, 81, 0
2, 98651, Note_on_c, 0, 79, 64
2, 98651, Note_on_c, 0, 67, 66
2, 98744, Note_on_c, 0, 67, 0
2, 98744, Note_on_c, 0, 61, 0
2, 98752, Note_on_c, 0, 49, 0
2, 98752, Note_on_c, 0, 65, 60
2, 98755, Note_on_c, 0, 79, 0
2, 98755, Note_on_c, 0, 60, 62
2, 98755, Note_on_c, 0, 48, 63
2, 98759, Note_on_c, 0, 77, 62
2, 98784, Control_c, 0, 64, 127
2, 98848, Control_c, 0, 64, 0
2, 98852, Note_on_c, 0, 77, 0
2, 98856, Note_on_c, 0, 65, 0
2, 98954, Note_on_c, 0, 69, 72
2, 98960, Note_on_c, 0, 60, 0
2, 98960, Note_on_c, 0, 57, 64
2, 98960, Note_on_c, 0, 53, 64
2, 98964, Note_on_c, 0, 48, 0
2, 98969, Note_on_c, 0, 41, 61
2, 99057, Note_on_c, 0, 63, 62
2, 99062, Note_on_c, 0, 69, 0
2, 99062, Note_on_c, 0, 53, 0
2, 99062, Note_on_c, 0, 57, 0
2, 99062, Note_on_c, 0, 75, 66
2, 99066, Note_on_c, 0, 41, 0
2, 99066, Note_on_c, 0, 72, 66
2, 99159, Note_on_c, 0, 57, 63
2, 99163, Note_on_c, 0, 45, 60
2, 99305, Note_on_c, 0, 72, 0
2, 99305, Note_on_c, 0, 75, 0
2, 99310, Note_on_c, 0, 63, 0
2, 99360, Note_on_c, 0, 57, 0
2, 99365, Note_on_c, 0, 45, 0
2, 99365, Note_on_c, 0, 56, 59
2, 99375, Note_on_c, 0, 44, 60
2, 99468, Note_on_c, 0, 67, 56
2, 99475, Note_on_c, 0, 74, 60
2, 99475, Note_on_c, 0, 79, 55
2, 99479, Note_on_c, 0, 71, 56
2, 99538, Note_on_c, 0, 67, 0
2, 99541, Note_on_c, 0, 56, 0
2, 99549, Note_on_c, 0, 44, 0
2, 99574, Note_on_c, 0, 55, 60
2, 99581, Note_on_c, 0, 43, 60
2, 99623, Control_c, 0, 64, 127
2, 99668, Note_on_c, 0, 55, 0
2, 99672, Note_on_c, 0, 74, 0
2, 99672, Note_on_c, 0, 79, 0
2, 99676, Note_on_c, 0, 71, 0
2, 99676, Note_on_c, 0, 67, 64
2, 99687, Control_c, 0, 64, 0
2, 99769, Note_on_c, 0, 67, 0
2, 99778, Note_on_c, 0, 65, 62
2, 99778, Note_on_c, 0, 59, 60
2, 99782, Note_on_c, 0, 62, 62
2, 99782, Note_on_c, 0, 55, 57
2, 99782, Note_on_c, 0, 71, 63
2, 99873, Note_on_c, 0, 59, 0
2, 99873, Note_on_c, 0, 74, 68
2, 99878, Note_on_c, 0, 55, 0
2, 99878, Note_on_c, 0, 65, 0
2, 99882, Note_on_c, 0, 71, 0
2, 99933, Note_on_c, 0, 43, 0
2, 99979, Note_on_c, 0, 74, 0
2, 99979, Note_on_c, 0, 79, 61
2, 99979, Note_on_c, 0, 67, 64
2, 99979, Note_on_c, 0, 35, 57
2, 99984, Note_on_c, 0, 62, 0
2, 99984, Note_on_c, 0, 47, 59
2, 100077, Note_on_c, 0, 79, 0
2, 100077, Note_on_c, 0, 67, 0
2, 100081, Note_on_c, 0, 47, 0
2, 100081, Note_on_c, 0, 65, 62
2, 100087, Note_on_c, 0, 35, 0
2, 100092, Note_on_c, 0, 77, 65
2, 100187, Note_on_c, 0, 62, 66
2, 100193, Note_on_c, 0, 55, 60
2, 100234, Note_on_c, 0, 77, 0
2, 100263, Note_on_c, 0, 65, 0
2, 100285, Note_on_c, 0, 55, 0
2, 100285, Note_on_c, 0, 63, 64
2, 100291, Note_on_c, 0, 67, 62
2, 100295, Note_on_c, 0, 62, 0
2, 100295, Note_on_c, 0, 75, 64
2, 100302, Note_on_c, 0, 72, 64
2, 100391, Note_on_c, 0, 48, 64
2, 100403, Note_on_c, 0, 36, 56
2, 100425, Control_c, 0, 64, 127
2, 100458, Note_on_c, 0, 72, 0
2, 100458, Note_on_c, 0, 75, 0
2, 100458, Note_on_c, 0, 67, 0
2, 100461, Note_on_c, 0, 63, 0
2, 100461, Control_c, 0, 64, 0
2, 100492, Note_on_c, 0, 48, 0
2, 100492, Note_on_c, 0, 36, 0
2, 100492, Note_on_c, 0, 49, 60
2, 100499, Note_on_c, 0, 37, 59
2, 100590, Note_on_c, 0, 49, 0
2, 100596, Note_on_c, 0, 37, 0
2, 100596, Note_on_c, 0, 62, 65
2, 100596, Note_on_c, 0, 74, 59
2, 100596, Note_on_c, 0, 65, 57
2, 100601, Note_on_c, 0, 67, 59
2, 100601, Note_on_c, 0, 50, 57
2, 100601, Note_on_c, 0, 38, 57
2, 100605, Note_on_c, 0, 71, 55
2, 100694, Note_on_c, 0, 67, 0
2, 100694, Note_on_c, 0, 65, 0
2, 100694, Note_on_c, 0, 74, 0
2, 100700, Note_on_c, 0, 71, 0
2, 100700, Note_on_c, 0, 62, 0
2, 100700, Note_on_c, 0, 38, 0
2, 100700, Note_on_c, 0, 53, 60
2, 100704, Note_on_c, 0, 50, 0
2, 100707, Note_on_c, 0, 41, 60
2, 100800, Note_on_c, 0, 41, 0
2, 100800, Note_on_c, 0, 53, 0
2, 100800, Note_on_c, 0, 63, 60
2, 100800, Note_on_c, 0, 67, 64
2, 100804, Note_on_c, 0, 60, 59
2, 100804, Note_on_c, 0, 72, 65
2, 100808, Note_on_c, 0, 40, 60
2, 100808, Note_on_c, 0, 52, 60
2, 100902, Note_on_c, 0, 60, 0
2, 100912, Note_on_c, 0, 40, 0
2, 100912, Note_on_c, 0, 52, 0
2, 100999, Note_on_c, 0, 51, 59
2, 100999, Note_on_c, 0, 60, 62
2, 101006, Note_on_c, 0, 55, 59
2, 101069, Note_on_c, 0, 55, 0
2, 101069, Note_on_c, 0, 63, 0
2, 101069, Note_on_c, 0, 67, 0
2, 101069, Note_on_c, 0, 51, 0
2, 101074, Note_on_c, 0, 60, 0
2, 101095, Note_on_c, 0, 72, 0
2, 101201, Note_on_c, 0, 74, 67
2, 101201, Note_on_c, 0, 48, 64
2, 101201, Note_on_c, 0, 70, 67
2, 101218, Note_on_c, 0, 36, 55
2, 101237, Note_on_c, 0, 64, 60
2, 101245, Control_c, 0, 64, 127
2, 101303, Note_on_c, 0, 64, 0
2, 101303, Control_c, 0, 64, 0
2, 101309, Note_on_c, 0, 70, 0
2, 101309, Note_on_c, 0, 74, 0
2, 101309, Note_on_c, 0, 48, 0
2, 101309, Note_on_c, 0, 36, 0
2, 101405, Note_on_c, 0, 70, 64
2, 101405, Note_on_c, 0, 58, 61
2, 101413, Note_on_c, 0, 60, 59
2, 101413, Note_on_c, 0, 72, 67
2, 101413, Note_on_c, 0, 55, 56
2, 101417, Note_on_c, 0, 64, 54
2, 101500, Note_on_c, 0, 72, 0
2, 101504, Note_on_c, 0, 58, 0
2, 101504, Note_on_c, 0, 60, 0
2, 101504, Note_on_c, 0, 70, 0
2, 101504, Note_on_c, 0, 64, 0
2, 101504, Note_on_c, 0, 55, 0
2, 101600, Note_on_c, 0, 70, 67
2, 101600, Note_on_c, 0, 62, 64
2, 101600, Note_on_c, 0, 74, 67
2, 101606, Note_on_c, 0, 52, 60
2, 101610, Note_on_c, 0, 40, 58
2, 101683, Note_on_c, 0, 40, 0
2, 101683, Note_on_c, 0, 74, 0
2, 101683, Note_on_c, 0, 52, 0
2, 101683, Note_on_c, 0, 70, 0
2, 101687, Note_on_c, 0, 62, 0
2, 101801, Note_on_c, 0, 70, 66
2, 101806, Note_on_c, 0, 58, 63
2, 101812, Note_on_c, 0, 60, 62
2, 101812, Note_on_c, 0, 72, 68
2, 101812, Note_on_c, 0, 55, 59
2, 101901, Note_on_c, 0, 72, 0
2, 101901, Note_on_c, 0, 58, 0
2, 101905, Note_on_c, 0, 55, 0
2, 101905, Note_on_c, 0, 60, 0
2, 101908, Note_on_c, 0, 70, 0
2, 101961, Control_c, 0, 64, 127
2, 102003, Note_on_c, 0, 53, 62
2, 102003, Note_on_c, 0, 67, 59
2, 102009, Note_on_c, 0, 75, 61
2, 102012, Note_on_c, 0, 41, 60
2, 102012, Note_on_c, 0, 79, 56
2, 102039, Note_on_c, 0, 69, 64
2, 102077, Note_on_c, 0, 69, 0
2, 102077, Note_on_c, 0, 75, 0
2, 102077, Note_on_c, 0, 79, 0
2, 102082, Note_on_c, 0, 53, 0
2, 102082, Note_on_c, 0, 41, 0
2, 102082, Note_on_c, 0, 67, 0
2, 102122, Control_c, 0, 64, 0
2, 102203, Note_on_c, 0, 63, 67
2, 102207, Note_on_c, 0, 53, 65
2, 102207, Note_on_c, 0, 69, 62
2, 102211, Note_on_c, 0, 65, 60
2, 102211, Note_on_c, 0, 75, 63
2, 102211, Note_on_c, 0, 60, 66
2, 102220, Note_on_c, 0, 77, 59
2, 102273, Note_on_c, 0, 75, 0
2, 102273, Note_on_c, 0, 69, 0
2, 102277, Note_on_c, 0, 53, 0
2, 102277, Note_on_c, 0, 77, 0
2, 102302, Note_on_c, 0, 63, 0
2, 102307, Note_on_c, 0, 60, 0
2, 102307, Note_on_c, 0, 65, 0
2, 102406, Note_on_c, 0, 81, 64
2, 102411, Note_on_c, 0, 41, 62
2, 102411, Note_on_c, 0, 75, 66
2, 102415, Note_on_c, 0, 29, 59
2, 102415, Note_on_c, 0, 86, 60
2, 102506, Note_on_c, 0, 75, 0
2, 102511, Note_on_c, 0, 86, 0
2, 102511, Note_on_c, 0, 81, 0
2, 102515, Note_on_c, 0, 41, 0
2, 102515, Note_on_c, 0, 29, 0
2, 102604, Note_on_c, 0, 63, 62
2, 102608, Note_on_c, 0, 81, 59
2, 102608, Note_on_c, 0, 53, 60
2, 102612, Note_on_c, 0, 57, 60
2, 102619, Note_on_c, 0, 75, 60
2, 102619, Note_on_c, 0, 72, 59
2, 102625, Note_on_c, 0, 84, 58
2, 102706, Note_on_c, 0, 84, 0
2, 102706, Note_on_c, 0, 81, 0
2, 102706, Note_on_c, 0, 75, 0
2, 102710, Note_on_c, 0, 57, 0
2, 102710, Note_on_c, 0, 63, 0
2, 102710, Note_on_c, 0, 53, 0
2, 102710, Note_on_c, 0, 72, 0
2, 102816, Note_on_c, 0, 70, 63
2, 102816, Note_on_c, 0, 46, 61
2, 102816, Note_on_c, 0, 74, 64
2, 102819, Note_on_c, 0, 82, 64
2, 102836, Note_on_c, 0, 70, 0
2, 102836, Note_on_c, 0, 34, 52
2, 102863, Control_c, 0, 64, 127
2, 102918, Note_on_c, 0, 82, 0
2, 102921, Control_c, 0, 64, 0
2, 102921, Note_on_c, 0, 70, 59
2, 102925, Note_on_c, 0, 46, 0
2, 102925, Note_on_c, 0, 58, 64
2, 102929, Note_on_c, 0, 74, 0
2, 102933, Note_on_c, 0, 34, 0
2, 102948, Note_on_c, 0, 58, 0
2, 103022, Note_on_c, 0, 58, 56
2, 103025, Note_on_c, 0, 53, 60
2, 103025, Note_on_c, 0, 60, 60
2, 103029, Note_on_c, 0, 70, 0
2, 103029, Note_on_c, 0, 72, 69
2, 103029, Note_on_c, 0, 62, 60
2, 103114, Note_on_c, 0, 73, 67
2, 103120, Note_on_c, 0, 72, 0
2, 103124, Note_on_c, 0, 53, 0
2, 103124, Note_on_c, 0, 61, 59
2, 103127, Note_on_c, 0, 60, 0
2, 103127, Note_on_c, 0, 58, 0
2, 103133, Note_on_c, 0, 62, 0
2, 103220, Note_on_c, 0, 61, 0
2, 103220, Note_on_c, 0, 73, 0
2, 103220, Note_on_c, 0, 62, 69
2, 103220, Note_on_c, 0, 74, 69
2, 103226, Note_on_c, 0, 50, 59
2, 103322, Note_on_c, 0, 81, 64
2, 103328, Note_on_c, 0, 74, 0
2, 103331, Note_on_c, 0, 69, 64
2, 103430, Note_on_c, 0, 61, 64
2, 103433, Note_on_c, 0, 49, 63
2, 103456, Note_on_c, 0, 50, 0
2, 103464, Note_on_c, 0, 62, 0
2, 103479, Note_on_c, 0, 69, 0
2, 103479, Note_on_c, 0, 81, 0
2, 103535, Note_on_c, 0, 79, 64
2, 103535, Note_on_c, 0, 67, 66
2, 103632, Note_on_c, 0, 67, 0
2, 103632, Note_on_c, 0, 61, 0
2, 103632, Note_on_c, 0, 65, 59
2, 103635, Note_on_c, 0, 79, 0
2, 103635, Note_on_c, 0, 49, 0
2, 103635, Note_on_c, 0, 48, 63
2, 103635, Note_on_c, 0, 60, 62
2, 103643, Note_on_c, 0, 77, 63
2, 103692, Control_c, 0, 64, 127
2, 103728, Note_on_c, 0, 77, 0
2, 103732, Note_on_c, 0, 65, 0
2, 103749, Control_c, 0, 64, 0
2, 103834, Note_on_c, 0, 69, 71
2, 103834, Note_on_c, 0, 63, 65
2, 103834, Note_on_c, 0, 53, 65
2, 103839, Note_on_c, 0, 60, 0
2, 103839, Note_on_c, 0, 57, 64
2, 103858, Note_on_c, 0, 63, 0
2, 103868, Note_on_c, 0, 48, 0
2, 103934, Note_on_c, 0, 63, 60
2, 103939, Note_on_c, 0, 53, 0
2, 103939, Note_on_c, 0, 57, 0
2, 103939, Note_on_c, 0, 69, 0
2, 103943, Note_on_c, 0, 75, 66
2, 103943, Note_on_c, 0, 72, 67
2, 104038, Note_on_c, 0, 41, 64
2, 104115, Note_on_c, 0, 63, 0
2, 104121, Note_on_c, 0, 41, 0
2, 104236, Note_on_c, 0, 72, 0
2, 104236, Note_on_c, 0, 75, 0
2, 104236, Note_on_c, 0, 63, 64
2, 104240, Note_on_c, 0, 53, 62
2, 104243, Note_on_c, 0, 57, 60
2, 104321, Note_on_c, 0, 57, 0
2, 104321, Note_on_c, 0, 53, 0
2, 104321, Note_on_c, 0, 63, 0
2, 104343, Note_on_c, 0, 70, 63
2, 104343, Note_on_c, 0, 82, 64
2, 104343, Note_on_c, 0, 74, 64
2, 104445, Note_on_c, 0, 70, 0
2, 104445, Note_on_c, 0, 58, 65
2, 104449, Note_on_c, 0, 46, 63
2, 104466, Note_on_c, 0, 58, 0
2, 104477, Control_c, 0, 64, 127
2, 104491, Note_on_c, 0, 82, 0
2, 104498, Note_on_c, 0, 74, 0
2, 104528, Control_c, 0, 64, 0
2, 104536, Note_on_c, 0, 70, 70
2, 104536, Note_on_c, 0, 58, 61
2, 104551, Note_on_c, 0, 46, 0
2, 104566, Note_on_c, 0, 58, 0
2, 104647, Note_on_c, 0, 58, 57
2, 104647, Note_on_c, 0, 53, 60
2, 104653, Note_on_c, 0, 70, 0
2, 104653, Note_on_c, 0, 62, 61
2, 104653, Note_on_c, 0, 72, 69
2, 104653, Note_on_c, 0, 60, 60
2, 104747, Note_on_c, 0, 72, 0
2, 104747, Note_on_c, 0, 73, 68
2, 104751, Note_on_c, 0, 53, 0
2, 104751, Note_on_c, 0, 58, 0
2, 104755, Note_on_c, 0, 60, 0
2, 104755, Note_on_c, 0, 62, 0
2, 104755, Note_on_c, 0, 61, 60
2, 104849, Note_on_c, 0, 61, 0
2, 104849, Note_on_c, 0, 62, 67
2, 104849, Note_on_c, 0, 74, 69
2, 104853, Note_on_c, 0, 73, 0
2, 104853, Note_on_c, 0, 50, 60
2, 104938, Note_on_c, 0, 74, 0
2, 104953, Note_on_c, 0, 81, 67
2, 104957, Note_on_c, 0, 69, 67
2, 105040, Note_on_c, 0, 50, 0
2, 105040, Note_on_c, 0, 62, 0
2, 105055, Note_on_c, 0, 61, 64
2, 105059, Note_on_c, 0, 49, 62
2, 105074, Note_on_c, 0, 81, 0
2, 105074, Note_on_c, 0, 69, 0
2, 105155, Note_on_c, 0, 67, 66
2, 105155, Note_on_c, 0, 79, 64
2, 105230, Note_on_c, 0, 61, 0
2, 105234, Note_on_c, 0, 49, 0
2, 105234, Note_on_c, 0, 79, 0
2, 105257, Note_on_c, 0, 67, 0
2, 105257, Note_on_c, 0, 65, 62
2, 105257, Note_on_c, 0, 60, 63
2, 105262, Note_on_c, 0, 48, 64
2, 105266, Note_on_c, 0, 77, 64
2, 105332, Note_on_c, 0, 77, 0
2, 105332, Control_c, 0, 64, 127
2, 105362, Note_on_c, 0, 65, 0
2, 105389, Control_c, 0, 64, 0
2, 105451, Note_on_c, 0, 69, 69
2, 105451, Note_on_c, 0, 53, 60
2, 105457, Note_on_c, 0, 60, 0
2, 105457, Note_on_c, 0, 57, 59
2, 105462, Note_on_c, 0, 41, 58
2, 105528, Note_on_c, 0, 57, 0
2, 105528, Note_on_c, 0, 69, 0
2, 105532, Note_on_c, 0, 53, 0
2, 105532, Note_on_c, 0, 48, 0
2, 105532, Note_on_c, 0, 41, 0
2, 105549, Note_on_c, 0, 63, 64
2, 105555, Note_on_c, 0, 75, 67
2, 105555, Note_on_c, 0, 72, 67
2, 105653, Note_on_c, 0, 57, 62
2, 105653, Note_on_c, 0, 45, 60
2, 105762, Note_on_c, 0, 57, 0
2, 105766, Note_on_c, 0, 45, 0
2, 105832, Note_on_c, 0, 63, 0
2, 105832, Note_on_c, 0, 75, 0
2, 105832, Note_on_c, 0, 72, 0
2, 105860, Note_on_c, 0, 56, 60
2, 105868, Note_on_c, 0, 44, 60
2, 105962, Note_on_c, 0, 56, 0
2, 105966, Note_on_c, 0, 44, 0
2, 105966, Note_on_c, 0, 74, 60
2, 105966, Note_on_c, 0, 67, 57
2, 105971, Note_on_c, 0, 71, 57
2, 105971, Note_on_c, 0, 79, 56
2, 106060, Note_on_c, 0, 67, 0
2, 106066, Note_on_c, 0, 55, 60
2, 106066, Note_on_c, 0, 43, 60
2, 106105, Control_c, 0, 64, 127
2, 106162, Control_c, 0, 64, 0
2, 106169, Note_on_c, 0, 43, 0
2, 106169, Note_on_c, 0, 79, 0
2, 106169, Note_on_c, 0, 55, 0
2, 106169, Note_on_c, 0, 67, 64
2, 106177, Note_on_c, 0, 71, 0
2, 106196, Note_on_c, 0, 74, 0
2, 106264, Note_on_c, 0, 65, 60
2, 106269, Note_on_c, 0, 59, 60
2, 106273, Note_on_c, 0, 67, 0
2, 106273, Note_on_c, 0, 55, 58
2, 106273, Note_on_c, 0, 62, 63
2, 106276, Note_on_c, 0, 71, 61
2, 106307, Note_on_c, 0, 62, 0
2, 106371, Note_on_c, 0, 59, 0
2, 106371, Note_on_c, 0, 74, 67
2, 106375, Note_on_c, 0, 65, 0
2, 106375, Note_on_c, 0, 55, 0
2, 106375, Note_on_c, 0, 62, 66
2, 106382, Note_on_c, 0, 71, 0
2, 106475, Note_on_c, 0, 79, 60
2, 106475, Note_on_c, 0, 67, 64
2, 106480, Note_on_c, 0, 62, 0
2, 106480, Note_on_c, 0, 74, 0
2, 106480, Note_on_c, 0, 47, 59
2, 106480, Note_on_c, 0, 35, 58
2, 106573, Note_on_c, 0, 67, 0
2, 106573, Note_on_c, 0, 65, 62
2, 106577, Note_on_c, 0, 79, 0
2, 106577, Note_on_c, 0, 47, 0
2, 106584, Note_on_c, 0, 35, 0
2, 106584, Note_on_c, 0, 77, 64
2, 106678, Note_on_c, 0, 62, 66
2, 106678, Note_on_c, 0, 55, 61
2, 106752, Note_on_c, 0, 77, 0
2, 106771, Note_on_c, 0, 63, 65
2, 106780, Note_on_c, 0, 75, 64
2, 106780, Note_on_c, 0, 67, 61
2, 106788, Note_on_c, 0, 72, 64
2, 106803, Note_on_c, 0, 65, 0
2, 106803, Note_on_c, 0, 55, 0
2, 106812, Note_on_c, 0, 62, 0
2, 106880, Note_on_c, 0, 48, 64
2, 106891, Note_on_c, 0, 36, 57
2, 106929, Control_c, 0, 64, 127
2, 106982, Note_on_c, 0, 75, 0
2, 106982, Note_on_c, 0, 72, 0
2, 106982, Note_on_c, 0, 67, 0
2, 106987, Note_on_c, 0, 63, 0
2, 106987, Control_c, 0, 64, 0
2, 106987, Note_on_c, 0, 49, 60
2, 106993, Note_on_c, 0, 48, 0
2, 106993, Note_on_c, 0, 36, 0
2, 106993, Note_on_c, 0, 37, 58
2, 107091, Note_on_c, 0, 49, 0
2, 107091, Note_on_c, 0, 50, 56
2, 107091, Note_on_c, 0, 65, 54
2, 107095, Note_on_c, 0, 37, 0
2, 107095, Note_on_c, 0, 62, 63
2, 107095, Note_on_c, 0, 67, 55
2, 107100, Note_on_c, 0, 38, 56
2, 107100, Note_on_c, 0, 74, 59
2, 107100, Note_on_c, 0, 71, 55
2, 107185, Note_on_c, 0, 67, 0
2, 107193, Note_on_c, 0, 38, 0
2, 107193, Note_on_c, 0, 65, 0
2, 107193, Note_on_c, 0, 62, 0
2, 107193, Note_on_c, 0, 50, 0
2, 107193, Note_on_c, 0, 74, 0
2, 107193, Note_on_c, 0, 55, 59
2, 107198, Note_on_c, 0, 71, 0
2, 107198, Note_on_c, 0, 43, 59
2, 107283, Note_on_c, 0, 63, 61
2, 107289, Note_on_c, 0, 55, 0
2, 107289, Note_on_c, 0, 67, 64
2, 107289, Note_on_c, 0, 72, 67
2, 107289, Note_on_c, 0, 51, 55
2, 107293, Note_on_c, 0, 43, 0
2, 107293, Note_on_c, 0, 60, 59
2, 107293, Note_on_c, 0, 39, 54
2, 107366, Note_on_c, 0, 72, 0
2, 107366, Note_on_c, 0, 67, 0
2, 107370, Note_on_c, 0, 63, 0
2, 107370, Note_on_c, 0, 60, 0
2, 107374, Note_on_c, 0, 39, 0
2, 107396, Note_on_c, 0, 51, 0
2, 107496, Note_on_c, 0, 52, 61
2, 107496, Note_on_c, 0, 73, 58
2, 107496, Note_on_c, 0, 40, 60
2, 107502, Note_on_c, 0, 67, 57
2, 107502, Note_on_c, 0, 79, 55
2, 107507, Note_on_c, 0, 71, 58
2, 107594, Note_on_c, 0, 79, 0
2, 107594, Note_on_c, 0, 67, 0
2, 107598, Note_on_c, 0, 73, 0
2, 107603, Note_on_c, 0, 52, 0
2, 107603, Note_on_c, 0, 71, 0
2, 107603, Note_on_c, 0, 40, 0
2, 107662, Control_c, 0, 64, 127
2, 107696, Note_on_c, 0, 53, 62
2, 107701, Note_on_c, 0, 65, 54
2, 107701, Note_on_c, 0, 41, 60
2, 107701, Note_on_c, 0, 74, 57
2, 107701, Note_on_c, 0, 70, 58
2, 107713, Note_on_c, 0, 77, 55
2, 107771, Note_on_c, 0, 77, 0
2, 107771, Note_on_c, 0, 53, 0
2, 107771, Note_on_c, 0, 70, 0
2, 107775, Note_on_c, 0, 41, 0
2, 107775, Note_on_c, 0, 74, 0
2, 107775, Control_c, 0, 64, 0
2, 107893, Note_on_c, 0, 67, 71
2, 107899, Note_on_c, 0, 58, 67
2, 107899, Note_on_c, 0, 53, 65
2, 107903, Note_on_c, 0, 55, 62
2, 107903, Note_on_c, 0, 62, 64
2, 107933, Note_on_c, 0, 65, 0
2, 107999, Note_on_c, 0, 68, 67
2, 108003, Note_on_c, 0, 67, 0
2, 108006, Note_on_c, 0, 53, 0
2, 108006, Note_on_c, 0, 58, 0
2, 108006, Note_on_c, 0, 56, 57
2, 108010, Note_on_c, 0, 55, 0
2, 108020, Note_on_c, 0, 62, 0
2, 108106, Note_on_c, 0, 56, 0
2, 108106, Note_on_c, 0, 69, 68
2, 108110, Note_on_c, 0, 68, 0
2, 108110, Note_on_c, 0, 57, 60
2, 108110, Note_on_c, 0, 41, 60
2, 108116, Note_on_c, 0, 29, 57
2, 108204, Note_on_c, 0, 65, 64
2, 108208, Note_on_c, 0, 57, 0
2, 108208, Note_on_c, 0, 69, 0
2, 108212, Note_on_c, 0, 29, 0
2, 108212, Note_on_c, 0, 41, 0
2, 108217, Note_on_c, 0, 77, 65
2, 108308, Note_on_c, 0, 63, 62
2, 108311, Note_on_c, 0, 53, 60
2, 108311, Note_on_c, 0, 67, 67
2, 108315, Note_on_c, 0, 57, 58
2, 108319, Note_on_c, 0, 55, 56
2, 108336, Note_on_c, 0, 57, 0
2, 108368, Note_on_c, 0, 77, 0
2, 108396, Note_on_c, 0, 65, 0
2, 108411, Note_on_c, 0, 67, 0
2, 108411, Note_on_c, 0, 57, 57
2, 108415, Note_on_c, 0, 53, 0
2, 108415, Note_on_c, 0, 63, 0
2, 108415, Note_on_c, 0, 69, 69
2, 108419, Note_on_c, 0, 55, 0
2, 108436, Control_c, 0, 64, 127
2, 108481, Control_c, 0, 64, 0
2, 108494, Note_on_c, 0, 69, 0
2, 108494, Note_on_c, 0, 57, 0
2, 108515, Note_on_c, 0, 65, 64
2, 108515, Note_on_c, 0, 70, 67
2, 108520, Note_on_c, 0, 58, 62
2, 108524, Note_on_c, 0, 46, 59
2, 108545, Note_on_c, 0, 34, 49
2, 108626, Note_on_c, 0, 46, 0
2, 108626, Note_on_c, 0, 58, 0
2, 108639, Note_on_c, 0, 34, 0
2, 108720, Note_on_c, 0, 58, 64
2, 108720, Note_on_c, 0, 53, 62
2, 108729, Note_on_c, 0, 62, 63
2, 108801, Note_on_c, 0, 53, 0
2, 108801, Note_on_c, 0, 58, 0
2, 108810, Note_on_c, 0, 62, 0
2, 108923, Note_on_c, 0, 58, 63
2, 108923, Note_on_c, 0, 53, 62
2, 108929, Note_on_c, 0, 62, 64
2, 109027, Note_on_c, 0, 65, 0
2, 109030, Note_on_c, 0, 70, 0
2, 109119, Note_on_c, 0, 65, 65
2, 109126, Note_on_c, 0, 53, 0
2, 109126, Note_on_c, 0, 58, 0
2, 109132, Note_on_c, 0, 77, 65
2, 109160, Note_on_c, 0, 62, 0
2, 109228, Note_on_c, 0, 77, 0
2, 109281, Note_on_c, 0, 65, 0
2, 109318, Note_on_c, 0, 94, 67
2, 109328, Note_on_c, 0, 58, 64
2, 109331, Note_on_c, 0, 82, 65
2, 109331, Note_on_c, 0, 86, 60
2, 109331, Note_on_c, 0, 46, 62
2, 109350, Note_on_c, 0, 82, 0
2, 109367, Control_c, 0, 64, 127
2, 109424, Control_c, 0, 64, 0
2, 109424, Note_on_c, 0, 82, 58
2, 109427, Note_on_c, 0, 94, 0
2, 109427, Note_on_c, 0, 70, 65
2, 109431, Note_on_c, 0, 86, 0
2, 109431, Note_on_c, 0, 58, 0
2, 109459, Note_on_c, 0, 46, 0
2, 109523, Note_on_c, 0, 58, 65
2, 109527, Note_on_c, 0, 53, 61
2, 109531, Note_on_c, 0, 62, 63
2, 109531, Note_on_c, 0, 84, 60
2, 109535, Note_on_c, 0, 82, 0
2, 109538, Note_on_c, 0, 70, 0
2, 109544, Note_on_c, 0, 72, 64
2, 109627, Note_on_c, 0, 73, 65
2, 109627, Note_on_c, 0, 85, 62
2, 109634, Note_on_c, 0, 72, 0
2, 109634, Note_on_c, 0, 84, 0
2, 109638, Note_on_c, 0, 53, 0
2, 109638, Note_on_c, 0, 58, 0
2, 109646, Note_on_c, 0, 62, 0
2, 109715, Note_on_c, 0, 73, 0
2, 109719, Note_on_c, 0, 85, 0
2, 109732, Note_on_c, 0, 62, 68
2, 109738, Note_on_c, 0, 74, 67
2, 109743, Note_on_c, 0, 50, 59
2, 109743, Note_on_c, 0, 86, 64
2, 109837, Note_on_c, 0, 81, 64
2, 109837, Note_on_c, 0, 93, 68
2, 109843, Note_on_c, 0, 86, 0
2, 109843, Note_on_c, 0, 74, 0
2, 109937, Note_on_c, 0, 61, 62
2, 109937, Note_on_c, 0, 49, 61
2, 109948, Note_on_c, 0, 62, 0
2, 109952, Note_on_c, 0, 50, 0
2, 110014, Note_on_c, 0, 81, 0
2, 110022, Note_on_c, 0, 93, 0
2, 110035, Note_on_c, 0, 91, 68
2, 110042, Note_on_c, 0, 79, 65
2, 110142, Note_on_c, 0, 79, 0
2, 110142, Note_on_c, 0, 91, 0
2, 110142, Note_on_c, 0, 61, 0
2, 110142, Note_on_c, 0, 48, 64
2, 110142, Note_on_c, 0, 60, 63
2, 110146, Note_on_c, 0, 49, 0
2, 110146, Note_on_c, 0, 89, 65
2, 110146, Note_on_c, 0, 77, 63
2, 110187, Control_c, 0, 64, 127
2, 110232, Control_c, 0, 64, 0
2, 110247, Note_on_c, 0, 77, 0
2, 110253, Note_on_c, 0, 89, 0
2, 110343, Note_on_c, 0, 81, 67
2, 110343, Note_on_c, 0, 63, 61
2, 110347, Note_on_c, 0, 53, 60
2, 110347, Note_on_c, 0, 69, 65
2, 110351, Note_on_c, 0, 60, 0
2, 110356, Note_on_c, 0, 57, 58
2, 110430, Note_on_c, 0, 48, 0
2, 110447, Note_on_c, 0, 63, 0
2, 110450, Note_on_c, 0, 53, 0
2, 110450, Note_on_c, 0, 81, 0
2, 110450, Note_on_c, 0, 57, 0
2, 110450, Note_on_c, 0, 69, 0
2, 110450, Note_on_c, 0, 87, 59
2, 110456, Note_on_c, 0, 75, 62
2, 110456, Note_on_c, 0, 84, 59
2, 110541, Note_on_c, 0, 53, 66
2, 110552, Note_on_c, 0, 41, 61
2, 110627, Note_on_c, 0, 75, 0
2, 110635, Note_on_c, 0, 53, 0
2, 110687, Note_on_c, 0, 41, 0
2, 110706, Note_on_c, 0, 84, 0
2, 110706, Note_on_c, 0, 87, 0
2, 110751, Note_on_c, 0, 53, 62
2, 110751, Note_on_c, 0, 63, 64
2, 110757, Note_on_c, 0, 57, 60
2, 110851, Note_on_c, 0, 94, 68
2, 110860, Note_on_c, 0, 57, 0
2, 110860, Note_on_c, 0, 53, 0
2, 110860, Note_on_c, 0, 63, 0
2, 110860, Note_on_c, 0, 82, 66
2, 110864, Note_on_c, 0, 86, 61
2, 110935, Note_on_c, 0, 82, 0
2, 110945, Control_c, 0, 64, 127
2, 110956, Note_on_c, 0, 58, 65
2, 110962, Note_on_c, 0, 46, 62
2, 110982, Control_c, 0, 64, 0
2, 111061, Note_on_c, 0, 94, 0
2, 111061, Note_on_c, 0, 82, 65
2, 111061, Note_on_c, 0, 70, 64
2, 111065, Note_on_c, 0, 86, 0
2, 111065, Note_on_c, 0, 58, 0
2, 111071, Note_on_c, 0, 46, 0
2, 111157, Note_on_c, 0, 58, 68
2, 111163, Note_on_c, 0, 53, 66
2, 111163, Note_on_c, 0, 62, 66
2, 111168, Note_on_c, 0, 82, 0
2, 111168, Note_on_c, 0, 84, 65
2, 111172, Note_on_c, 0, 70, 0
2, 111172, Note_on_c, 0, 72, 68
2, 111264, Note_on_c, 0, 72, 0
2, 111264, Note_on_c, 0, 84, 0
2, 111264, Note_on_c, 0, 73, 65
2, 111264, Note_on_c, 0, 85, 62
2, 111268, Note_on_c, 0, 53, 0
2, 111268, Note_on_c, 0, 58, 0
2, 111275, Note_on_c, 0, 62, 0
2, 111366, Note_on_c, 0, 62, 67
2, 111369, Note_on_c, 0, 73, 0
2, 111369, Note_on_c, 0, 50, 59
2, 111369, Note_on_c, 0, 74, 64
2, 111369, Note_on_c, 0, 86, 61
2, 111373, Note_on_c, 0, 85, 0
2, 111467, Note_on_c, 0, 81, 64
2, 111471, Note_on_c, 0, 86, 0
2, 111471, Note_on_c, 0, 93, 68
2, 111480, Note_on_c, 0, 74, 0
2, 111570, Note_on_c, 0, 61, 63
2, 111570, Note_on_c, 0, 49, 62
2, 111580, Note_on_c, 0, 50, 0
2, 111585, Note_on_c, 0, 62, 0
2, 111625, Note_on_c, 0, 81, 0
2, 111636, Note_on_c, 0, 93, 0
2, 111668, Note_on_c, 0, 91, 67
2, 111672, Note_on_c, 0, 79, 64
2, 111773, Note_on_c, 0, 61, 0
2, 111773, Note_on_c, 0, 48, 64
2, 111773, Note_on_c, 0, 60, 63
2, 111777, Note_on_c, 0, 49, 0
2, 111777, Note_on_c, 0, 79, 0
2, 111777, Note_on_c, 0, 89, 64
2, 111781, Note_on_c, 0, 77, 62
2, 111786, Control_c, 0, 64, 127
2, 111824, Note_on_c, 0, 91, 0
2, 111824, Control_c, 0, 64, 0
2, 111878, Note_on_c, 0, 89, 0
2, 111878, Note_on_c, 0, 77, 0
2, 111974, Note_on_c, 0, 81, 71
2, 111974, Note_on_c, 0, 53, 64
2, 111987, Note_on_c, 0, 41, 62
2, 111991, Note_on_c, 0, 48, 0
2, 112008, Note_on_c, 0, 60, 0
2, 112008, Note_on_c, 0, 69, 71
2, 112081, Note_on_c, 0, 69, 0
2, 112081, Note_on_c, 0, 53, 0
2, 112081, Note_on_c, 0, 81, 0
2, 112081, Note_on_c, 0, 87, 59
2, 112081, Note_on_c, 0, 75, 62
2, 112085, Note_on_c, 0, 41, 0
2, 112085, Note_on_c, 0, 84, 60
2, 112179, Note_on_c, 0, 45, 60
2, 112179, Note_on_c, 0, 57, 62
2, 112203, Note_on_c, 0, 75, 0
2, 112278, Note_on_c, 0, 84, 0
2, 112329, Note_on_c, 0, 87, 0
2, 112380, Note_on_c, 0, 56, 59
2, 112385, Note_on_c, 0, 57, 0
2, 112385, Note_on_c, 0, 45, 0
2, 112389, Note_on_c, 0, 44, 60
2, 112483, Note_on_c, 0, 91, 59
2, 112492, Note_on_c, 0, 86, 57
2, 112492, Note_on_c, 0, 79, 57
2, 112492, Note_on_c, 0, 83, 60
2, 112584, Note_on_c, 0, 79, 0
2, 112584, Note_on_c, 0, 56, 0
2, 112584, Note_on_c, 0, 55, 59
2, 112590, Note_on_c, 0, 44, 0
2, 112590, Note_on_c, 0, 43, 60
2, 112676, Control_c, 0, 64, 127
2, 112680, Note_on_c, 0, 86, 0
2, 112680, Note_on_c, 0, 83, 0
2, 112684, Note_on_c, 0, 55, 0
2, 112684, Note_on_c, 0, 67, 61
2, 112684, Note_on_c, 0, 79, 60
2, 112710, Note_on_c, 0, 91, 0
2, 112727, Control_c, 0, 64, 0
2, 112757, Note_on_c, 0, 79, 0
2, 112757, Note_on_c, 0, 67, 0
2, 112785, Note_on_c, 0, 59, 59
2, 112785, Note_on_c, 0, 62, 62
2, 112785, Note_on_c, 0, 55, 57
2, 112789, Note_on_c, 0, 65, 59
2, 112789, Note_on_c, 0, 83, 61
2, 112793, Note_on_c, 0, 71, 59
2, 112887, Note_on_c, 0, 83, 0
2, 112887, Note_on_c, 0, 59, 0
2, 112890, Note_on_c, 0, 74, 64
2, 112894, Note_on_c, 0, 62, 0
2, 112894, Note_on_c, 0, 43, 0
2, 112894, Note_on_c, 0, 71, 0
2, 112894, Note_on_c, 0, 86, 63
2, 112913, Note_on_c, 0, 55, 0
2, 112913, Note_on_c, 0, 65, 0
2, 112982, Note_on_c, 0, 91, 66
2, 112982, Note_on_c, 0, 79, 62
2, 112986, Note_on_c, 0, 47, 60
2, 112986, Note_on_c, 0, 35, 59
2, 112992, Note_on_c, 0, 86, 0
2, 112999, Note_on_c, 0, 74, 0
2, 113091, Note_on_c, 0, 79, 0
2, 113091, Note_on_c, 0, 91, 0
2, 113095, Note_on_c, 0, 47, 0
2, 113095, Note_on_c, 0, 89, 64
2, 113099, Note_on_c, 0, 35, 0
2, 113099, Note_on_c, 0, 77, 64
2, 113185, Note_on_c, 0, 65, 67
2, 113191, Note_on_c, 0, 62, 65
2, 113194, Note_on_c, 0, 55, 61
2, 113241, Note_on_c, 0, 77, 0
2, 113245, Note_on_c, 0, 89, 0
2, 113296, Note_on_c, 0, 55, 0
2, 113296, Note_on_c, 0, 65, 0
2, 113296, Note_on_c, 0, 87, 57
2, 113301, Note_on_c, 0, 62, 0
2, 113301, Note_on_c, 0, 79, 55
2, 113301, Note_on_c, 0, 75, 60
2, 113309, Note_on_c, 0, 84, 58
2, 113390, Note_on_c, 0, 48, 64
2, 113408, Note_on_c, 0, 36, 57
2, 113446, Control_c, 0, 64, 127
2, 113493, Note_on_c, 0, 84, 0
2, 113493, Note_on_c, 0, 75, 0
2, 113493, Note_on_c, 0, 87, 0
2, 113493, Note_on_c, 0, 49, 60
2, 113498, Note_on_c, 0, 79, 0
2, 113498, Note_on_c, 0, 37, 58
2, 113504, Note_on_c, 0, 36, 0
2, 113508, Note_on_c, 0, 48, 0
2, 113508, Control_c, 0, 64, 0
2, 113598, Note_on_c, 0, 50, 59
2, 113605, Note_on_c, 0, 79, 49
2, 113605, Note_on_c, 0, 74, 53
2, 113609, Note_on_c, 0, 86, 48
2, 113609, Note_on_c, 0, 83, 52
2, 113613, Note_on_c, 0, 77, 50
2, 113628, Note_on_c, 0, 49, 0
2, 113628, Note_on_c, 0, 38, 58
2, 113632, Note_on_c, 0, 37, 0
2, 113699, Note_on_c, 0, 79, 0
2, 113699, Note_on_c, 0, 77, 0
2, 113699, Note_on_c, 0, 53, 61
2, 113705, Note_on_c, 0, 74, 0
2, 113705, Note_on_c, 0, 41, 58
2, 113710, Note_on_c, 0, 38, 0
2, 113710, Note_on_c, 0, 50, 0
2, 113729, Note_on_c, 0, 83, 0
2, 113729, Note_on_c, 0, 86, 0
2, 113804, Note_on_c, 0, 53, 0
2, 113804, Note_on_c, 0, 51, 59
2, 113804, Note_on_c, 0, 39, 58
2, 113804, Note_on_c, 0, 75, 60
2, 113804, Note_on_c, 0, 84, 58
2, 113804, Note_on_c, 0, 79, 55
2, 113815, Note_on_c, 0, 41, 0
2, 113815, Note_on_c, 0, 72, 60
2, 113907, Note_on_c, 0, 51, 0
2, 113934, Note_on_c, 0, 39, 0
2, 114001, Note_on_c, 0, 75, 0
2, 114001, Note_on_c, 0, 51, 60
2, 114005, Note_on_c, 0, 55, 59
2, 114005, Note_on_c, 0, 60, 61
2, 114048, Note_on_c, 0, 75, 61
2, 114102, Note_on_c, 0, 75, 0
2, 114102, Note_on_c, 0, 72, 0
2, 114102, Note_on_c, 0, 84, 0
2, 114106, Note_on_c, 0, 51, 0
2, 114106, Note_on_c, 0, 79, 0
2, 114106, Note_on_c, 0, 60, 0
2, 114106, Note_on_c, 0, 55, 0
2, 114209, Note_on_c, 0, 48, 64
2, 114209, Note_on_c, 0, 74, 58
2, 114209, Note_on_c, 0, 82, 60
2, 114213, Note_on_c, 0, 86, 54
2, 114217, Note_on_c, 0, 36, 57
2, 114224, Note_on_c, 0, 76, 57
2, 114237, Control_c, 0, 64, 127
2, 114290, Note_on_c, 0, 76, 0
2, 114290, Note_on_c, 0, 74, 0
2, 114290, Note_on_c, 0, 82, 0
2, 114290, Note_on_c, 0, 86, 0
2, 114294, Control_c, 0, 64, 0
2, 114297, Note_on_c, 0, 36, 0
2, 114318, Note_on_c, 0, 48, 0
2, 114406, Note_on_c, 0, 58, 63
2, 114410, Note_on_c, 0, 82, 59
2, 114410, Note_on_c, 0, 55, 58
2, 114414, Note_on_c, 0, 60, 60
2, 114414, Note_on_c, 0, 72, 59
2, 114414, Note_on_c, 0, 84, 57
2, 114419, Note_on_c, 0, 76, 56
2, 114483, Note_on_c, 0, 84, 0
2, 114483, Note_on_c, 0, 82, 0
2, 114483, Note_on_c, 0, 72, 0
2, 114489, Note_on_c, 0, 60, 0
2, 114489, Note_on_c, 0, 58, 0
2, 114489, Note_on_c, 0, 76, 0
2, 114492, Note_on_c, 0, 55, 0
2, 114616, Note_on_c, 0, 52, 61
2, 114616, Note_on_c, 0, 74, 64
2, 114616, Note_on_c, 0, 86, 60
2, 114616, Note_on_c, 0, 82, 65
2, 114616, Note_on_c, 0, 40, 60
2, 114717, Note_on_c, 0, 86, 0
2, 114721, Note_on_c, 0, 82, 0
2, 114721, Note_on_c, 0, 74, 0
2, 114725, Note_on_c, 0, 52, 0
2, 114725, Note_on_c, 0, 40, 0
2, 114819, Note_on_c, 0, 82, 61
2, 114822, Note_on_c, 0, 55, 58
2, 114822, Note_on_c, 0, 58, 62
2, 114822, Note_on_c, 0, 60, 61
2, 114826, Note_on_c, 0, 84, 62
2, 114830, Note_on_c, 0, 72, 64
2, 114894, Note_on_c, 0, 72, 0
2, 114894, Note_on_c, 0, 84, 0
2, 114897, Note_on_c, 0, 58, 0
2, 114897, Note_on_c, 0, 82, 0
2, 114901, Note_on_c, 0, 55, 0
2, 114901, Note_on_c, 0, 60, 0
2, 115023, Note_on_c, 0, 53, 62
2, 115023, Note_on_c, 0, 81, 58
2, 115030, Note_on_c, 0, 41, 60
2, 115030, Note_on_c, 0, 91, 57
2, 115030, Note_on_c, 0, 87, 57
2, 115034, Note_on_c, 0, 79, 55
2, 115047, Control_c, 0, 64, 127
2, 115098, Note_on_c, 0, 81, 0
2, 115098, Control_c, 0, 64, 0
2, 115102, Note_on_c, 0, 87, 0
2, 115105, Note_on_c, 0, 53, 0
2, 115105, Note_on_c, 0, 41, 0
2, 115105, Note_on_c, 0, 79, 0
2, 115128, Note_on_c, 0, 91, 0
2, 115225, Note_on_c, 0, 63, 61
2, 115225, Note_on_c, 0, 81, 60
2, 115225, Note_on_c, 0, 53, 60
2, 115231, Note_on_c, 0, 60, 61
2, 115231, Note_on_c, 0, 87, 58
2, 115240, Note_on_c, 0, 89, 59
2, 115240, Note_on_c, 0, 77, 56
2, 115330, Note_on_c, 0, 77, 0
2, 115330, Note_on_c, 0, 63, 0
2, 115330, Note_on_c, 0, 81, 0
2, 115334, Note_on_c, 0, 87, 0
2, 115334, Note_on_c, 0, 60, 0
2, 115334, Note_on_c, 0, 53, 0
2, 115334, Note_on_c, 0, 89, 0
2, 115424, Note_on_c, 0, 41, 61
2, 115430, Note_on_c, 0, 93, 67
2, 115430, Note_on_c, 0, 87, 62
2, 115433, Note_on_c, 0, 98, 66
2, 115437, Note_on_c, 0, 29, 59
2, 115533, Note_on_c, 0, 87, 0
2, 115538, Note_on_c, 0, 41, 0
2, 115538, Note_on_c, 0, 29, 0
2, 115538, Note_on_c, 0, 93, 0
2, 115566, Note_on_c, 0, 98, 0
2, 115628, Note_on_c, 0, 63, 63
2, 115628, Note_on_c, 0, 87, 58
2, 115632, Note_on_c, 0, 53, 61
2, 115636, Note_on_c, 0, 57, 59
2, 115636, Note_on_c, 0, 93, 62
2, 115636, Note_on_c, 0, 84, 58
2, 115636, Note_on_c, 0, 96, 61
2, 115711, Note_on_c, 0, 84, 0
2, 115714, Note_on_c, 0, 57, 0
2, 115714, Note_on_c, 0, 87, 0
2, 115714, Note_on_c, 0, 53, 0
2, 115714, Note_on_c, 0, 63, 0
2, 115714, Note_on_c, 0, 96, 0
2, 115722, Note_on_c, 0, 93, 0
2, 115829, Note_on_c, 0, 94, 67
2, 115832, Note_on_c, 0, 82, 64
2, 115836, Control_c, 0, 64, 127
2, 115836, Note_on_c, 0, 46, 61
2, 115836, Note_on_c, 0, 86, 59
2, 115862, Note_on_c, 0, 82, 0
2, 115862, Note_on_c, 0, 34, 52
2, 115915, Note_on_c, 0, 94, 0
2, 115915, Note_on_c, 0, 86, 0
2, 115922, Note_on_c, 0, 46, 0
2, 115932, Note_on_c, 0, 34, 0
2, 115935, Note_on_c, 0, 82, 68
2, 115941, Note_on_c, 0, 70, 65
2, 115941, Control_c, 0, 64, 0
2, 116037, Note_on_c, 0, 58, 67
2, 116040, Note_on_c, 0, 53, 65
2, 116040, Note_on_c, 0, 84, 65
2, 116044, Note_on_c, 0, 62, 65
2, 116050, Note_on_c, 0, 70, 0
2, 116050, Note_on_c, 0, 82, 0
2, 116050, Note_on_c, 0, 72, 67
2, 116134, Note_on_c, 0, 73, 69
2, 116134, Note_on_c, 0, 85, 66
2, 116164, Note_on_c, 0, 84, 0
2, 116171, Note_on_c, 0, 53, 0
2, 116171, Note_on_c, 0, 58, 0
2, 116175, Note_on_c, 0, 62, 0
2, 116190, Note_on_c, 0, 72, 0
2, 116235, Note_on_c, 0, 74, 65
2, 116239, Note_on_c, 0, 73, 0
2, 116239, Note_on_c, 0, 86, 63
2, 116246, Note_on_c, 0, 50, 59
2, 116246, Note_on_c, 0, 62, 63
2, 116265, Note_on_c, 0, 85, 0
2, 116338, Note_on_c, 0, 81, 64
2, 116342, Note_on_c, 0, 74, 0
2, 116342, Note_on_c, 0, 86, 0
2, 116342, Note_on_c, 0, 93, 67
2, 116441, Note_on_c, 0, 61, 61
2, 116441, Note_on_c, 0, 49, 60
2, 116445, Note_on_c, 0, 50, 0
2, 116452, Note_on_c, 0, 62, 0
2, 116503, Control_c, 0, 64, 127
2, 116516, Note_on_c, 0, 81, 0
2, 116525, Note_on_c, 0, 93, 0
2, 116540, Note_on_c, 0, 91, 66
2, 116544, Note_on_c, 0, 79, 64
2, 116615, Control_c, 0, 64, 0
2, 116638, Note_on_c, 0, 48, 62
2, 116643, Note_on_c, 0, 79, 0
2, 116643, Note_on_c, 0, 49, 0
2, 116643, Note_on_c, 0, 60, 62
2, 116646, Note_on_c, 0, 89, 63
2, 116646, Note_on_c, 0, 77, 60
2, 116660, Note_on_c, 0, 61, 0
2, 116660, Note_on_c, 0, 91, 0
2, 116739, Note_on_c, 0, 89, 0
2, 116739, Note_on_c, 0, 77, 0
2, 116836, Note_on_c, 0, 63, 64
2, 116836, Note_on_c, 0, 81, 70
2, 116836, Note_on_c, 0, 53, 62
2, 116842, Note_on_c, 0, 57, 58
2, 116849, Note_on_c, 0, 60, 0
2, 116870, Note_on_c, 0, 69, 68
2, 116874, Note_on_c, 0, 48, 0
2, 116943, Note_on_c, 0, 87, 59
2, 116947, Note_on_c, 0, 81, 0
2, 116947, Note_on_c, 0, 63, 0
2, 116950, Note_on_c, 0, 69, 0
2, 116950, Note_on_c, 0, 57, 0
2, 116950, Note_on_c, 0, 75, 62
2, 116954, Note_on_c, 0, 53, 0
2, 116958, Note_on_c, 0, 84, 60
2, 117055, Note_on_c, 0, 29, 59
2, 117055, Note_on_c, 0, 41, 61
2, 117149, Note_on_c, 0, 84, 0
2, 117149, Note_on_c, 0, 87, 0
2, 117149, Note_on_c, 0, 75, 0
2, 117158, Note_on_c, 0, 29, 0
2, 117158, Note_on_c, 0, 41, 0
2, 117248, Note_on_c, 0, 63, 64
2, 117252, Note_on_c, 0, 53, 62
2, 117255, Note_on_c, 0, 57, 60
2, 117330, Note_on_c, 0, 57, 0
2, 117330, Note_on_c, 0, 63, 0
2, 117334, Note_on_c, 0, 53, 0
2, 117351, Note_on_c, 0, 94, 68
2, 117358, Note_on_c, 0, 82, 65
2, 117362, Note_on_c, 0, 86, 60
2, 117428, Control_c, 0, 64, 127
2, 117441, Note_on_c, 0, 82, 0
2, 117459, Note_on_c, 0, 58, 64
2, 117459, Control_c, 0, 64, 0
2, 117463, Note_on_c, 0, 46, 62
2, 117562, Note_on_c, 0, 86, 0
2, 117562, Note_on_c, 0, 94, 0
2, 117562, Note_on_c, 0, 70, 64
2, 117565, Note_on_c, 0, 82, 64
2, 117568, Note_on_c, 0, 58, 0
2, 117568, Note_on_c, 0, 46, 0
2, 117643, Note_on_c, 0, 82, 0
2, 117648, Note_on_c, 0, 70, 0
2, 117658, Note_on_c, 0, 58, 68
2, 117658, Note_on_c, 0, 53, 65
2, 117665, Note_on_c, 0, 84, 67
2, 117669, Note_on_c, 0, 62, 65
2, 117669, Note_on_c, 0, 72, 70
2, 117764, Note_on_c, 0, 72, 0
2, 117764, Note_on_c, 0, 84, 0
2, 117764, Note_on_c, 0, 73, 65
2, 117764, Note_on_c, 0, 85, 62
2, 117768, Note_on_c, 0, 58, 0
2, 117768, Note_on_c, 0, 53, 0
2, 117776, Note_on_c, 0, 62, 0
2, 117865, Note_on_c, 0, 62, 66
2, 117865, Note_on_c, 0, 74, 64
2, 117869, Note_on_c, 0, 86, 61
2, 117873, Note_on_c, 0, 85, 0
2, 117873, Note_on_c, 0, 73, 0
2, 117873, Note_on_c, 0, 50, 59
2, 117968, Note_on_c, 0, 86, 0
2, 117968, Note_on_c, 0, 93, 70
2, 117968, Note_on_c, 0, 81, 66
2, 118002, Note_on_c, 0, 74, 0
2, 118071, Note_on_c, 0, 49, 62
2, 118071, Note_on_c, 0, 61, 62
2, 118082, Note_on_c, 0, 50, 0
2, 118082, Note_on_c, 0, 62, 0
2, 118174, Note_on_c, 0, 81, 0
2, 118174, Note_on_c, 0, 91, 65
2, 118180, Note_on_c, 0, 79, 62
2, 118185, Note_on_c, 0, 93, 0
2, 118269, Control_c, 0, 64, 127
2, 118279, Note_on_c, 0, 79, 0
2, 118279, Note_on_c, 0, 61, 0
2, 118279, Note_on_c, 0, 48, 63
2, 118284, Note_on_c, 0, 49, 0
2, 118284, Note_on_c, 0, 60, 63
2, 118284, Note_on_c, 0, 89, 64
2, 118290, Note_on_c, 0, 77, 61
2, 118299, Control_c, 0, 64, 0
2, 118305, Note_on_c, 0, 91, 0
2, 118354, Note_on_c, 0, 77, 0
2, 118359, Note_on_c, 0, 89, 0
2, 118471, Note_on_c, 0, 81, 72
2, 118477, Note_on_c, 0, 53, 66
2, 118483, Note_on_c, 0, 41, 64
2, 118486, Note_on_c, 0, 60, 0
2, 118509, Note_on_c, 0, 69, 72
2, 118539, Note_on_c, 0, 48, 0
2, 118582, Note_on_c, 0, 53, 0
2, 118582, Note_on_c, 0, 69, 0
2, 118582, Note_on_c, 0, 81, 0
2, 118582, Note_on_c, 0, 87, 60
2, 118587, Note_on_c, 0, 41, 0
2, 118587, Note_on_c, 0, 75, 63
2, 118587, Note_on_c, 0, 84, 61
2, 118685, Note_on_c, 0, 57, 63
2, 118690, Note_on_c, 0, 45, 60
2, 118836, Note_on_c, 0, 84, 0
2, 118836, Note_on_c, 0, 87, 0
2, 118836, Note_on_c, 0, 75, 0
2, 118873, Note_on_c, 0, 57, 0
2, 118888, Note_on_c, 0, 56, 59
2, 118896, Note_on_c, 0, 45, 0
2, 118896, Note_on_c, 0, 44, 60
2, 118984, Note_on_c, 0, 91, 59
2, 118991, Note_on_c, 0, 79, 57
2, 118995, Note_on_c, 0, 86, 57
2, 118995, Note_on_c, 0, 83, 60
2, 119066, Note_on_c, 0, 79, 0
2, 119094, Note_on_c, 0, 56, 0
2, 119094, Note_on_c, 0, 55, 60
2, 119100, Note_on_c, 0, 44, 0
2, 119103, Note_on_c, 0, 43, 60
2, 119169, Note_on_c, 0, 86, 0
2, 119169, Note_on_c, 0, 91, 0
2, 119169, Note_on_c, 0, 83, 0
2, 119199, Note_on_c, 0, 79, 65
2, 119199, Note_on_c, 0, 67, 66
2, 119204, Note_on_c, 0, 55, 0
2, 119214, Control_c, 0, 64, 127
2, 119272, Control_c, 0, 64, 0
2, 119303, Note_on_c, 0, 67, 0
2, 119303, Note_on_c, 0, 59, 60
2, 119303, Note_on_c, 0, 62, 63
2, 119307, Note_on_c, 0, 79, 0
2, 119307, Note_on_c, 0, 83, 60
2, 119307, Note_on_c, 0, 65, 55
2, 119310, Note_on_c, 0, 55, 58
2, 119310, Note_on_c, 0, 71, 57
2, 119402, Note_on_c, 0, 83, 0
2, 119402, Note_on_c, 0, 59, 0
2, 119406, Note_on_c, 0, 65, 0
2, 119406, Note_on_c, 0, 55, 0
2, 119406, Note_on_c, 0, 74, 64
2, 119406, Note_on_c, 0, 86, 60
2, 119412, Note_on_c, 0, 62, 0
2, 119412, Note_on_c, 0, 43, 0
2, 119412, Note_on_c, 0, 71, 0
2, 119503, Note_on_c, 0, 91, 64
2, 119507, Note_on_c, 0, 86, 0
2, 119507, Note_on_c, 0, 79, 59
2, 119511, Note_on_c, 0, 74, 0
2, 119511, Note_on_c, 0, 35, 58
2, 119511, Note_on_c, 0, 47, 60
2, 119578, Note_on_c, 0, 79, 0
2, 119578, Note_on_c, 0, 91, 0
2, 119584, Note_on_c, 0, 47, 0
2, 119589, Note_on_c, 0, 35, 0
2, 119610, Note_on_c, 0, 89, 66
2, 119610, Note_on_c, 0, 77, 64
2, 119703, Note_on_c, 0, 65, 67
2, 119709, Note_on_c, 0, 55, 61
2, 119709, Note_on_c, 0, 62, 65
2, 119759, Note_on_c, 0, 77, 0
2, 119759, Note_on_c, 0, 89, 0
2, 119810, Note_on_c, 0, 55, 0
2, 119810, Note_on_c, 0, 65, 0
2, 119810, Note_on_c, 0, 87, 57
2, 119810, Note_on_c, 0, 79, 55
2, 119815, Note_on_c, 0, 62, 0
2, 119815, Note_on_c, 0, 75, 60
2, 119815, Note_on_c, 0, 84, 58
2, 119905, Note_on_c, 0, 48, 64
2, 119920, Note_on_c, 0, 36, 57
2, 119950, Control_c, 0, 64, 127
2, 119957, Note_on_c, 0, 84, 0
2, 119957, Note_on_c, 0, 75, 0
2, 119957, Note_on_c, 0, 87, 0
2, 119957, Note_on_c, 0, 79, 0
2, 120015, Note_on_c, 0, 37, 58
2, 120015, Note_on_c, 0, 49, 60
2, 120021, Note_on_c, 0, 36, 0
2, 120025, Note_on_c, 0, 48, 0
2, 120060, Control_c, 0, 64, 0
2, 120118, Note_on_c, 0, 49, 0
2, 120118, Note_on_c, 0, 50, 58
2, 120118, Note_on_c, 0, 38, 59
2, 120122, Note_on_c, 0, 37, 0
2, 120122, Note_on_c, 0, 79, 50
2, 120122, Note_on_c, 0, 74, 53
2, 120122, Note_on_c, 0, 83, 53
2, 120129, Note_on_c, 0, 86, 50
2, 120133, Note_on_c, 0, 77, 52
2, 120213, Note_on_c, 0, 77, 0
2, 120213, Note_on_c, 0, 79, 0
2, 120213, Note_on_c, 0, 86, 0
2, 120216, Note_on_c, 0, 74, 0
2, 120216, Note_on_c, 0, 53, 66
2, 120216, Note_on_c, 0, 41, 63
2, 120219, Note_on_c, 0, 50, 0
2, 120223, Note_on_c, 0, 38, 0
2, 120234, Note_on_c, 0, 83, 0
2, 120312, Note_on_c, 0, 79, 56
2, 120312, Note_on_c, 0, 75, 60
2, 120312, Note_on_c, 0, 51, 58
2, 120316, Note_on_c, 0, 53, 0
2, 120316, Note_on_c, 0, 84, 58
2, 120316, Note_on_c, 0, 39, 56
2, 120322, Note_on_c, 0, 41, 0
2, 120327, Note_on_c, 0, 72, 60
2, 120413, Note_on_c, 0, 75, 0
2, 120413, Note_on_c, 0, 79, 0
2, 120413, Note_on_c, 0, 55, 60
2, 120424, Note_on_c, 0, 39, 0
2, 120424, Note_on_c, 0, 43, 59
2, 120441, Note_on_c, 0, 84, 0
2, 120441, Note_on_c, 0, 72, 0
2, 120445, Note_on_c, 0, 51, 0
2, 120520, Note_on_c, 0, 85, 57
2, 120523, Note_on_c, 0, 55, 0
2, 120523, Note_on_c, 0, 52, 60
2, 120523, Note_on_c, 0, 91, 60
2, 120527, Note_on_c, 0, 43, 0
2, 120527, Note_on_c, 0, 79, 56
2, 120527, Note_on_c, 0, 40, 58
2, 120527, Note_on_c, 0, 83, 62
2, 120622, Note_on_c, 0, 83, 0
2, 120622, Note_on_c, 0, 85, 0
2, 120626, Note_on_c, 0, 79, 0
2, 120626, Note_on_c, 0, 52, 0
2, 120626, Note_on_c, 0, 58, 64
2, 120630, Note_on_c, 0, 40, 0
2, 120630, Note_on_c, 0, 46, 61
2, 120643, Control_c, 0, 64, 127
2, 120650, Note_on_c, 0, 91, 0
2, 120706, Note_on_c, 0, 58, 0
2, 120725, Note_on_c, 0, 82, 59
2, 120725, Note_on_c, 0, 53, 60
2, 120734, Note_on_c, 0, 46, 0
2, 120734, Note_on_c, 0, 86, 53
2, 120734, Note_on_c, 0, 41, 59
2, 120734, Note_on_c, 0, 77, 52
2, 120734, Note_on_c, 0, 89, 58
2, 120751, Control_c, 0, 64, 0
2, 120755, Note_on_c, 0, 77, 0
2, 120826, Note_on_c, 0, 86, 0
2, 120826, Note_on_c, 0, 82, 0
2, 120826, Note_on_c, 0, 77, 56
2, 120826, Note_on_c, 0, 65, 60
2, 120830, Note_on_c, 0, 89, 0
2, 120830, Note_on_c, 0, 53, 0
2, 120837, Note_on_c, 0, 41, 0
2, 120927, Note_on_c, 0, 58, 67
2, 120927, Note_on_c, 0, 53, 67
2, 120927, Note_on_c, 0, 79, 64
2, 120932, Note_on_c, 0, 77, 0
2, 120932, Note_on_c, 0, 62, 66
2, 120932, Note_on_c, 0, 67, 66
2, 120964, Note_on_c, 0, 65, 0
2, 121033, Note_on_c, 0, 68, 63
2, 121037, Note_on_c, 0, 79, 0
2, 121037, Note_on_c, 0, 67, 0
2, 121037, Note_on_c, 0, 80, 61
2, 121041, Note_on_c, 0, 58, 0
2, 121041, Note_on_c, 0, 53, 0
2, 121046, Note_on_c, 0, 62, 0
2, 121134, Note_on_c, 0, 81, 65
2, 121134, Note_on_c, 0, 69, 63
2, 121143, Note_on_c, 0, 68, 0
2, 121143, Note_on_c, 0, 80, 0
2, 121143, Note_on_c, 0, 41, 61
2, 121143, Note_on_c, 0, 29, 59
2, 121216, Note_on_c, 0, 69, 0
2, 121220, Note_on_c, 0, 29, 0
2, 121220, Note_on_c, 0, 41, 0
2, 121242, Note_on_c, 0, 81, 0
2, 121242, Note_on_c, 0, 89, 66
2, 121246, Note_on_c, 0, 77, 64
2, 121339, Note_on_c, 0, 63, 63
2, 121343, Note_on_c, 0, 77, 0
2, 121343, Note_on_c, 0, 89, 0
2, 121343, Note_on_c, 0, 67, 60
2, 121343, Note_on_c, 0, 79, 60
2, 121343, Note_on_c, 0, 53, 61
2, 121343, Note_on_c, 0, 57, 60
2, 121444, Note_on_c, 0, 67, 0
2, 121444, Note_on_c, 0, 63, 0
2, 121444, Note_on_c, 0, 81, 64
2, 121449, Note_on_c, 0, 53, 0
2, 121449, Note_on_c, 0, 57, 0
2, 121449, Note_on_c, 0, 79, 0
2, 121453, Note_on_c, 0, 69, 65
2, 121528, Note_on_c, 0, 69, 0
2, 121548, Note_on_c, 0, 58, 65
2, 121554, Note_on_c, 0, 81, 0
2, 121554, Note_on_c, 0, 70, 60
2, 121554, Note_on_c, 0, 82, 62
2, 121554, Note_on_c, 0, 62, 65
2, 121554, Note_on_c, 0, 74, 62
2, 121578, Control_c, 0, 64, 127
2, 121634, Note_on_c, 0, 74, 0
2, 121634, Note_on_c, 0, 58, 0
2, 121634, Note_on_c, 0, 82, 0
2, 121634, Note_on_c, 0, 70, 0
2, 121649, Control_c, 0, 64, 0
2, 121757, Note_on_c, 0, 53, 64
2, 121763, Note_on_c, 0, 62, 0
2, 121763, Note_on_c, 0, 41, 60
2, 121867, Note_on_c, 0, 53, 0
2, 121867, Note_on_c, 0, 38, 59
2, 121867, Note_on_c, 0, 50, 58
2, 121873, Note_on_c, 0, 41, 0
2, 121912, Control_c, 0, 64, 127
2, 121959, Note_on_c, 0, 94, 64
2, 121968, Note_on_c, 0, 82, 60
2, 121968, Note_on_c, 0, 46, 60
2, 121968, Note_on_c, 0, 89, 59
2, 121972, Note_on_c, 0, 50, 0
2, 121972, Note_on_c, 0, 38, 0
2, 121972, Note_on_c, 0, 86, 56
2, 121989, Note_on_c, 0, 34, 50
2, 122142, Control_c, 0, 64, 0
2, 122332, Note_on_c, 0, 46, 0
2, 122341, Note_on_c, 0, 34, 0
2, 122347, Note_on_c, 0, 86, 0
2, 122347, Note_on_c, 0, 94, 0
2, 122351, Note_on_c, 0, 82, 0
2, 122354, Note_on_c, 0, 89, 0
2, 122354, End_track
3, 0, Start_track
3, 1, Copyright_t, "___________________________________________________\012\012KUNSTDERFUGE.COM LARGE CLASSICAL MIDI COLLECTION\012ONCLASSICAL BY ALESSANDRO SIMONETTO, PROPRIETOR\012___________________________________________________\012\012! Attention: this file is under copyright !\012\012(c)onclassical, (nc)smythe, 2010\012___________________________________________________\012\012NO ONE MAY REPUBLISH THIS FILE WITHOUT PERMISSION\012COMMERCIAL USES OF THIS FILE IS STRICTLY PROHIBITED\012___________________________________________________\012\012Files & contributor's list: http://kunstderfuge.com/\012Terms and conditions: http://kunstderfuge.com/notes.htm"
3, 1, End_track
0, 0, End_of_file
