0, 0, Header, 1, 3, 192
1, 0, Start_track
1, 0, Title_t, "Ampico player piano roll #2170038b, Something Doin, Composed and played by Scott Joplin "
1, 0, Time_signature, 4, 2, 24, 8
1, 0, Key_signature, 0, "major"
1, 0, Tempo, 600000
1, 109, Tempo, 500000
1, 109, Marker_t, "Roll expression tracks converted to MIDI velocities"
1, 109, Marker_t, "Standard MIDI:LPI 235:Tempo  75: 03-27-2003"
1, 109, End_track
2, 0, Start_track
2, 0, Title_t, ""
2, 841, Control_c, 0, 64, 127
2, 1018, Control_c, 0, 64, 0
2, 1089, Note_on_c, 0, 65, 70
2, 1090, Note_on_c, 0, 53, 69
2, 1149, Note_on_c, 0, 67, 51
2, 1150, Note_on_c, 0, 55, 49
2, 1166, Note_on_c, 0, 53, 0
2, 1180, Note_on_c, 0, 65, 0
2, 1211, Note_on_c, 0, 69, 47
2, 1212, Note_on_c, 0, 57, 47
2, 1227, Note_on_c, 0, 67, 0
2, 1244, Note_on_c, 0, 55, 0
2, 1259, Control_c, 0, 64, 127
2, 1273, Note_on_c, 0, 65, 53
2, 1273, Note_on_c, 0, 77, 56
2, 1274, Note_on_c, 0, 69, 0
2, 1274, Note_on_c, 0, 57, 0
2, 1353, Control_c, 0, 64, 0
2, 1393, Note_on_c, 0, 64, 55
2, 1394, Note_on_c, 0, 65, 0
2, 1394, Note_on_c, 0, 76, 59
2, 1395, Note_on_c, 0, 77, 0
2, 1621, Note_on_c, 0, 76, 0
2, 1621, Note_on_c, 0, 64, 0
2, 1651, Note_on_c, 0, 62, 63
2, 1652, Note_on_c, 0, 74, 59
2, 1715, Note_on_c, 0, 73, 53
2, 1716, Control_c, 0, 64, 127
2, 1716, Note_on_c, 0, 61, 63
2, 1717, Note_on_c, 0, 62, 0
2, 1718, Note_on_c, 0, 74, 0
2, 1782, Note_on_c, 0, 62, 63
2, 1782, Note_on_c, 0, 74, 58
2, 1783, Note_on_c, 0, 73, 0
2, 1783, Note_on_c, 0, 61, 0
2, 1800, Control_c, 0, 64, 0
2, 1849, Note_on_c, 0, 58, 65
2, 1849, Note_on_c, 0, 70, 59
2, 1850, Note_on_c, 0, 62, 0
2, 1850, Note_on_c, 0, 74, 0
2, 2067, Control_c, 0, 67, 127
2, 2100, Note_on_c, 0, 58, 0
2, 2100, Note_on_c, 0, 70, 0
2, 2116, Control_c, 0, 67, 0
2, 2163, Note_on_c, 0, 58, 52
2, 2163, Note_on_c, 0, 70, 48
2, 2196, Control_c, 0, 64, 127
2, 2225, Note_on_c, 0, 69, 42
2, 2226, Note_on_c, 0, 57, 51
2, 2227, Note_on_c, 0, 70, 0
2, 2227, Note_on_c, 0, 58, 0
2, 2285, Note_on_c, 0, 58, 52
2, 2286, Note_on_c, 0, 69, 0
2, 2286, Note_on_c, 0, 57, 0
2, 2286, Note_on_c, 0, 70, 41
2, 2288, Control_c, 0, 64, 0
2, 2346, Note_on_c, 0, 55, 61
2, 2346, Note_on_c, 0, 67, 61
2, 2347, Note_on_c, 0, 70, 0
2, 2347, Note_on_c, 0, 58, 0
2, 2461, Note_on_c, 0, 69, 52
2, 2462, Note_on_c, 0, 55, 0
2, 2462, Note_on_c, 0, 67, 0
2, 2475, Note_on_c, 0, 53, 51
2, 2517, Note_on_c, 0, 70, 56
2, 2518, Note_on_c, 0, 52, 46
2, 2519, Note_on_c, 0, 53, 0
2, 2519, Note_on_c, 0, 69, 0
2, 2575, Note_on_c, 0, 71, 51
2, 2576, Note_on_c, 0, 50, 55
2, 2577, Note_on_c, 0, 70, 0
2, 2577, Note_on_c, 0, 52, 0
2, 2633, Note_on_c, 0, 72, 73
2, 2634, Control_c, 0, 64, 127
2, 2634, Note_on_c, 0, 48, 64
2, 2635, Note_on_c, 0, 71, 0
2, 2635, Note_on_c, 0, 50, 0
2, 2692, Note_on_c, 0, 72, 0
2, 2693, Note_on_c, 0, 48, 0
2, 2707, Control_c, 0, 64, 0
2, 2871, Note_on_c, 0, 76, 71
2, 2872, Note_on_c, 0, 36, 74
2, 2872, Note_on_c, 0, 48, 78
2, 2872, Note_on_c, 0, 72, 73
2, 2872, Note_on_c, 0, 79, 77
2, 2872, Note_on_c, 0, 84, 74
2, 3071, Note_on_c, 0, 79, 0
2, 3071, Note_on_c, 0, 72, 0
2, 3071, Note_on_c, 0, 48, 0
2, 3071, Note_on_c, 0, 36, 0
2, 3072, Note_on_c, 0, 76, 0
2, 3072, Note_on_c, 0, 84, 0
2, 3118, Note_on_c, 0, 41, 63
2, 3118, Note_on_c, 0, 57, 64
2, 3119, Note_on_c, 0, 69, 66
2, 3135, Control_c, 0, 64, 127
2, 3135, Note_on_c, 0, 53, 59
2, 3181, Note_on_c, 0, 60, 53
2, 3182, Note_on_c, 0, 72, 57
2, 3198, Note_on_c, 0, 60, 0
2, 3199, Note_on_c, 0, 53, 0
2, 3199, Note_on_c, 0, 69, 0
2, 3199, Note_on_c, 0, 41, 0
2, 3199, Note_on_c, 0, 57, 0
2, 3241, Note_on_c, 0, 65, 56
2, 3241, Note_on_c, 0, 77, 55
2, 3242, Note_on_c, 0, 57, 44
2, 3242, Note_on_c, 0, 60, 43
2, 3274, Note_on_c, 0, 72, 0
2, 3300, Note_on_c, 0, 69, 60
2, 3300, Note_on_c, 0, 81, 66
2, 3302, Note_on_c, 0, 60, 0
2, 3303, Note_on_c, 0, 57, 0
2, 3303, Note_on_c, 0, 65, 0
2, 3311, Control_c, 0, 64, 0
2, 3317, Note_on_c, 0, 77, 0
2, 3361, Note_on_c, 0, 36, 42
2, 3361, Note_on_c, 0, 48, 44
2, 3409, Note_on_c, 0, 69, 0
2, 3425, Note_on_c, 0, 65, 64
2, 3425, Note_on_c, 0, 77, 63
2, 3426, Note_on_c, 0, 81, 0
2, 3443, Note_on_c, 0, 36, 0
2, 3459, Note_on_c, 0, 48, 0
2, 3489, Note_on_c, 0, 72, 63
2, 3490, Note_on_c, 0, 57, 44
2, 3490, Note_on_c, 0, 60, 41
2, 3506, Note_on_c, 0, 57, 0
2, 3538, Note_on_c, 0, 77, 0
2, 3552, Note_on_c, 0, 69, 65
2, 3552, Note_on_c, 0, 57, 45
2, 3553, Note_on_c, 0, 60, 0
2, 3553, Note_on_c, 0, 72, 0
2, 3570, Note_on_c, 0, 65, 0
2, 3612, Note_on_c, 0, 72, 65
2, 3613, Note_on_c, 0, 76, 65
2, 3614, Note_on_c, 0, 48, 43
2, 3614, Note_on_c, 0, 64, 42
2, 3615, Note_on_c, 0, 57, 0
2, 3615, Note_on_c, 0, 69, 0
2, 3615, Control_c, 0, 64, 127
2, 3678, Note_on_c, 0, 64, 0
2, 3741, Note_on_c, 0, 58, 45
2, 3741, Note_on_c, 0, 60, 47
2, 3741, Note_on_c, 0, 64, 41
2, 3741, Note_on_c, 0, 70, 60
2, 3741, Note_on_c, 0, 74, 64
2, 3758, Note_on_c, 0, 76, 0
2, 3758, Note_on_c, 0, 72, 0
2, 3759, Control_c, 0, 64, 0
2, 3819, Note_on_c, 0, 58, 0
2, 3835, Note_on_c, 0, 60, 0
2, 3850, Note_on_c, 0, 64, 0
2, 3850, Note_on_c, 0, 74, 0
2, 3850, Note_on_c, 0, 70, 0
2, 3850, Note_on_c, 0, 48, 0
2, 3864, Note_on_c, 0, 60, 44
2, 3864, Note_on_c, 0, 69, 50
2, 3864, Note_on_c, 0, 72, 50
2, 3880, Note_on_c, 0, 53, 42
2, 3928, Note_on_c, 0, 60, 0
2, 3989, Note_on_c, 0, 65, 47
2, 3990, Note_on_c, 0, 57, 57
2, 3990, Note_on_c, 0, 60, 54
2, 4037, Note_on_c, 0, 60, 0
2, 4037, Note_on_c, 0, 65, 0
2, 4037, Note_on_c, 0, 69, 0
2, 4037, Note_on_c, 0, 57, 0
2, 4052, Note_on_c, 0, 72, 0
2, 4053, Note_on_c, 0, 53, 0
2, 4110, Control_c, 0, 64, 127
2, 4110, Note_on_c, 0, 82, 61
2, 4111, Note_on_c, 0, 43, 64
2, 4111, Note_on_c, 0, 55, 61
2, 4111, Note_on_c, 0, 70, 59
2, 4172, Note_on_c, 0, 76, 53
2, 4173, Note_on_c, 0, 55, 0
2, 4173, Note_on_c, 0, 82, 0
2, 4174, Note_on_c, 0, 43, 0
2, 4174, Note_on_c, 0, 70, 0
2, 4231, Note_on_c, 0, 79, 56
2, 4233, Note_on_c, 0, 58, 55
2, 4233, Note_on_c, 0, 60, 55
2, 4233, Note_on_c, 0, 64, 53
2, 4267, Note_on_c, 0, 76, 0
2, 4296, Note_on_c, 0, 70, 55
2, 4296, Note_on_c, 0, 82, 60
2, 4297, Note_on_c, 0, 60, 0
2, 4297, Note_on_c, 0, 64, 0
2, 4297, Note_on_c, 0, 79, 0
2, 4297, Note_on_c, 0, 58, 0
2, 4297, Control_c, 0, 64, 0
2, 4357, Note_on_c, 0, 55, 58
2, 4358, Note_on_c, 0, 43, 54
2, 4374, Note_on_c, 0, 70, 0
2, 4375, Note_on_c, 0, 82, 0
2, 4416, Note_on_c, 0, 76, 62
2, 4416, Note_on_c, 0, 79, 55
2, 4448, Note_on_c, 0, 43, 0
2, 4462, Note_on_c, 0, 55, 0
2, 4476, Note_on_c, 0, 44, 65
2, 4476, Note_on_c, 0, 56, 64
2, 4476, Note_on_c, 0, 71, 60
2, 4477, Note_on_c, 0, 83, 58
2, 4492, Note_on_c, 0, 79, 0
2, 4508, Note_on_c, 0, 76, 0
2, 4534, Note_on_c, 0, 72, 70
2, 4535, Note_on_c, 0, 84, 72
2, 4536, Note_on_c, 0, 71, 0
2, 4536, Note_on_c, 0, 44, 0
2, 4536, Note_on_c, 0, 56, 0
2, 4536, Note_on_c, 0, 83, 0
2, 4590, Note_on_c, 0, 57, 66
2, 4591, Note_on_c, 0, 45, 66
2, 4608, Note_on_c, 0, 84, 0
2, 4608, Note_on_c, 0, 72, 0
2, 4620, Control_c, 0, 64, 127
2, 4647, Note_on_c, 0, 72, 79
2, 4647, Note_on_c, 0, 84, 74
2, 4648, Note_on_c, 0, 46, 63
2, 4648, Note_on_c, 0, 58, 63
2, 4665, Note_on_c, 0, 57, 0
2, 4665, Note_on_c, 0, 45, 0
2, 4706, Note_on_c, 0, 48, 63
2, 4706, Note_on_c, 0, 60, 64
2, 4706, Note_on_c, 0, 81, 72
2, 4707, Note_on_c, 0, 69, 70
2, 4709, Note_on_c, 0, 58, 0
2, 4710, Control_c, 0, 64, 0
2, 4724, Note_on_c, 0, 84, 0
2, 4724, Note_on_c, 0, 46, 0
2, 4739, Note_on_c, 0, 72, 0
2, 4769, Note_on_c, 0, 65, 68
2, 4769, Note_on_c, 0, 77, 70
2, 4770, Note_on_c, 0, 60, 0
2, 4771, Note_on_c, 0, 69, 0
2, 4787, Note_on_c, 0, 81, 0
2, 4819, Note_on_c, 0, 48, 0
2, 4833, Note_on_c, 0, 58, 59
2, 4833, Note_on_c, 0, 62, 62
2, 4833, Note_on_c, 0, 74, 65
2, 4834, Note_on_c, 0, 46, 62
2, 4849, Note_on_c, 0, 77, 0
2, 4866, Note_on_c, 0, 65, 0
2, 4894, Note_on_c, 0, 73, 66
2, 4895, Note_on_c, 0, 61, 58
2, 4911, Note_on_c, 0, 62, 0
2, 4912, Note_on_c, 0, 58, 0
2, 4912, Note_on_c, 0, 46, 0
2, 4926, Note_on_c, 0, 74, 0
2, 4954, Note_on_c, 0, 57, 57
2, 4954, Note_on_c, 0, 60, 62
2, 4954, Note_on_c, 0, 72, 63
2, 4957, Note_on_c, 0, 73, 0
2, 4957, Note_on_c, 0, 61, 0
2, 4968, Note_on_c, 0, 45, 56
2, 5014, Note_on_c, 0, 58, 59
2, 5014, Note_on_c, 0, 70, 62
2, 5015, Note_on_c, 0, 45, 0
2, 5015, Note_on_c, 0, 60, 0
2, 5015, Note_on_c, 0, 72, 0
2, 5016, Note_on_c, 0, 57, 0
2, 5075, Note_on_c, 0, 70, 0
2, 5075, Note_on_c, 0, 58, 0
2, 5075, Note_on_c, 0, 41, 59
2, 5075, Note_on_c, 0, 57, 64
2, 5075, Note_on_c, 0, 69, 63
2, 5090, Note_on_c, 0, 53, 62
2, 5123, Control_c, 0, 64, 127
2, 5138, Note_on_c, 0, 72, 58
2, 5154, Note_on_c, 0, 69, 0
2, 5154, Note_on_c, 0, 57, 0
2, 5155, Note_on_c, 0, 41, 0
2, 5155, Note_on_c, 0, 53, 0
2, 5193, Note_on_c, 0, 60, 41
2, 5194, Note_on_c, 0, 65, 58
2, 5195, Note_on_c, 0, 57, 46
2, 5195, Note_on_c, 0, 77, 53
2, 5213, Control_c, 0, 64, 0
2, 5227, Note_on_c, 0, 72, 0
2, 5256, Note_on_c, 0, 69, 56
2, 5256, Note_on_c, 0, 81, 55
2, 5258, Note_on_c, 0, 57, 0
2, 5274, Note_on_c, 0, 77, 0
2, 5274, Note_on_c, 0, 60, 0
2, 5274, Note_on_c, 0, 65, 0
2, 5320, Note_on_c, 0, 36, 46
2, 5320, Note_on_c, 0, 48, 43
2, 5351, Note_on_c, 0, 81, 0
2, 5352, Note_on_c, 0, 69, 0
2, 5381, Note_on_c, 0, 65, 60
2, 5381, Note_on_c, 0, 77, 53
2, 5399, Note_on_c, 0, 36, 0
2, 5419, Note_on_c, 0, 48, 0
2, 5442, Note_on_c, 0, 60, 41
2, 5442, Note_on_c, 0, 72, 54
2, 5458, Note_on_c, 0, 77, 0
2, 5500, Note_on_c, 0, 57, 44
2, 5501, Note_on_c, 0, 69, 60
2, 5502, Note_on_c, 0, 60, 0
2, 5503, Note_on_c, 0, 72, 0
2, 5549, Note_on_c, 0, 65, 0
2, 5563, Control_c, 0, 64, 127
2, 5563, Note_on_c, 0, 48, 66
2, 5563, Note_on_c, 0, 64, 68
2, 5563, Note_on_c, 0, 72, 68
2, 5563, Note_on_c, 0, 76, 67
2, 5578, Note_on_c, 0, 57, 0
2, 5578, Note_on_c, 0, 69, 0
2, 5654, Note_on_c, 0, 72, 0
2, 5654, Note_on_c, 0, 64, 0
2, 5654, Note_on_c, 0, 76, 0
2, 5682, Note_on_c, 0, 64, 66
2, 5683, Note_on_c, 0, 60, 64
2, 5683, Note_on_c, 0, 62, 62
2, 5683, Note_on_c, 0, 70, 70
2, 5683, Note_on_c, 0, 74, 65
2, 5698, Control_c, 0, 64, 0
2, 5739, Note_on_c, 0, 62, 0
2, 5739, Note_on_c, 0, 60, 0
2, 5739, Note_on_c, 0, 64, 0
2, 5740, Note_on_c, 0, 70, 0
2, 5755, Note_on_c, 0, 74, 0
2, 5793, Note_on_c, 0, 53, 61
2, 5793, Note_on_c, 0, 60, 65
2, 5793, Note_on_c, 0, 69, 65
2, 5793, Note_on_c, 0, 72, 69
2, 5838, Note_on_c, 0, 48, 0
2, 5852, Note_on_c, 0, 60, 0
2, 5853, Note_on_c, 0, 69, 0
2, 5866, Note_on_c, 0, 72, 0
2, 5882, Note_on_c, 0, 53, 0
2, 5908, Note_on_c, 0, 57, 70
2, 5909, Note_on_c, 0, 81, 66
2, 5910, Note_on_c, 0, 54, 72
2, 5910, Note_on_c, 0, 60, 68
2, 5910, Note_on_c, 0, 63, 65
2, 5910, Note_on_c, 0, 69, 66
2, 5956, Note_on_c, 0, 60, 0
2, 5970, Control_c, 0, 64, 127
2, 5972, Note_on_c, 0, 54, 0
2, 5985, Note_on_c, 0, 63, 0
2, 5985, Note_on_c, 0, 57, 0
2, 5985, Note_on_c, 0, 69, 0
2, 5999, Note_on_c, 0, 81, 0
2, 6024, Note_on_c, 0, 55, 63
2, 6024, Note_on_c, 0, 60, 62
2, 6024, Note_on_c, 0, 64, 59
2, 6024, Note_on_c, 0, 67, 61
2, 6024, Note_on_c, 0, 79, 64
2, 6083, Note_on_c, 0, 72, 59
2, 6099, Note_on_c, 0, 79, 0
2, 6099, Note_on_c, 0, 67, 0
2, 6144, Note_on_c, 0, 76, 60
2, 6145, Control_c, 0, 64, 0
2, 6175, Note_on_c, 0, 72, 0
2, 6204, Note_on_c, 0, 81, 55
2, 6205, Note_on_c, 0, 69, 59
2, 6205, Note_on_c, 0, 72, 54
2, 6205, Note_on_c, 0, 74, 56
2, 6205, Note_on_c, 0, 78, 54
2, 6221, Note_on_c, 0, 76, 0
2, 6235, Note_on_c, 0, 60, 0
2, 6249, Note_on_c, 0, 64, 0
2, 6263, Note_on_c, 0, 50, 56
2, 6263, Note_on_c, 0, 62, 59
2, 6264, Note_on_c, 0, 72, 0
2, 6264, Note_on_c, 0, 74, 0
2, 6264, Note_on_c, 0, 78, 0
2, 6264, Note_on_c, 0, 69, 0
2, 6264, Note_on_c, 0, 81, 0
2, 6264, Note_on_c, 0, 55, 0
2, 6320, Note_on_c, 0, 69, 55
2, 6320, Note_on_c, 0, 72, 54
2, 6320, Note_on_c, 0, 78, 55
2, 6320, Note_on_c, 0, 81, 53
2, 6336, Note_on_c, 0, 62, 0
2, 6336, Note_on_c, 0, 50, 0
2, 6384, Note_on_c, 0, 43, 55
2, 6384, Note_on_c, 0, 55, 58
2, 6384, Note_on_c, 0, 71, 56
2, 6384, Note_on_c, 0, 74, 59
2, 6384, Note_on_c, 0, 77, 58
2, 6384, Note_on_c, 0, 83, 56
2, 6400, Note_on_c, 0, 78, 0
2, 6400, Note_on_c, 0, 69, 0
2, 6400, Note_on_c, 0, 72, 0
2, 6400, Note_on_c, 0, 81, 0
2, 6445, Control_c, 0, 67, 127
2, 6447, Note_on_c, 0, 74, 0
2, 6447, Note_on_c, 0, 83, 0
2, 6447, Note_on_c, 0, 55, 0
2, 6448, Note_on_c, 0, 77, 0
2, 6448, Note_on_c, 0, 71, 0
2, 6448, Note_on_c, 0, 43, 0
2, 6496, Control_c, 0, 67, 0
2, 6509, Note_on_c, 0, 60, 67
2, 6509, Note_on_c, 0, 72, 60
2, 6509, Note_on_c, 0, 84, 67
2, 6510, Control_c, 0, 64, 127
2, 6510, Note_on_c, 0, 48, 65
2, 6510, Note_on_c, 0, 76, 64
2, 6570, Note_on_c, 0, 59, 61
2, 6571, Note_on_c, 0, 47, 58
2, 6585, Control_c, 0, 67, 127
2, 6586, Note_on_c, 0, 60, 0
2, 6587, Note_on_c, 0, 48, 0
2, 6630, Note_on_c, 0, 46, 53
2, 6630, Note_on_c, 0, 58, 56
2, 6632, Note_on_c, 0, 59, 0
2, 6632, Note_on_c, 0, 47, 0
2, 6647, Control_c, 0, 64, 0
2, 6685, Note_on_c, 0, 48, 56
2, 6687, Note_on_c, 0, 60, 56
2, 6690, Note_on_c, 0, 58, 0
2, 6691, Note_on_c, 0, 46, 0
2, 6751, Note_on_c, 0, 57, 57
2, 6754, Note_on_c, 0, 48, 0
2, 6768, Note_on_c, 0, 60, 0
2, 6768, Note_on_c, 0, 45, 53
2, 6814, Note_on_c, 0, 44, 53
2, 6814, Note_on_c, 0, 56, 58
2, 6816, Note_on_c, 0, 45, 0
2, 6816, Note_on_c, 0, 57, 0
2, 6875, Note_on_c, 0, 55, 60
2, 6876, Note_on_c, 0, 43, 59
2, 6878, Note_on_c, 0, 44, 0
2, 6878, Note_on_c, 0, 56, 0
2, 6894, Control_c, 0, 67, 0
2, 6924, Note_on_c, 0, 72, 0
2, 6924, Note_on_c, 0, 84, 0
2, 6925, Note_on_c, 0, 76, 0
2, 6938, Note_on_c, 0, 42, 42
2, 6938, Note_on_c, 0, 54, 43
2, 6955, Control_c, 0, 64, 127
2, 6956, Note_on_c, 0, 43, 0
2, 6972, Note_on_c, 0, 55, 0
2, 7003, Note_on_c, 0, 41, 69
2, 7003, Note_on_c, 0, 57, 65
2, 7003, Note_on_c, 0, 69, 60
2, 7018, Note_on_c, 0, 53, 70
2, 7019, Note_on_c, 0, 54, 0
2, 7020, Note_on_c, 0, 42, 0
2, 7060, Note_on_c, 0, 72, 66
2, 7077, Note_on_c, 0, 69, 0
2, 7077, Note_on_c, 0, 41, 0
2, 7077, Note_on_c, 0, 57, 0
2, 7077, Note_on_c, 0, 53, 0
2, 7116, Note_on_c, 0, 60, 71
2, 7118, Note_on_c, 0, 57, 72
2, 7118, Note_on_c, 0, 65, 65
2, 7118, Note_on_c, 0, 77, 60
2, 7118, Control_c, 0, 67, 127
2, 7134, Note_on_c, 0, 72, 0
2, 7136, Control_c, 0, 64, 0
2, 7176, Note_on_c, 0, 69, 59
2, 7176, Note_on_c, 0, 81, 60
2, 7177, Note_on_c, 0, 60, 0
2, 7178, Note_on_c, 0, 65, 0
2, 7178, Note_on_c, 0, 57, 0
2, 7193, Note_on_c, 0, 77, 0
2, 7194, Control_c, 0, 67, 0
2, 7239, Note_on_c, 0, 36, 69
2, 7240, Note_on_c, 0, 48, 70
2, 7272, Note_on_c, 0, 69, 0
2, 7287, Note_on_c, 0, 81, 0
2, 7301, Note_on_c, 0, 65, 59
2, 7301, Note_on_c, 0, 77, 65
2, 7304, Note_on_c, 0, 36, 0
2, 7320, Note_on_c, 0, 48, 0
2, 7357, Note_on_c, 0, 60, 67
2, 7359, Note_on_c, 0, 72, 62
2, 7391, Note_on_c, 0, 77, 0
2, 7416, Note_on_c, 0, 57, 71
2, 7416, Note_on_c, 0, 69, 63
2, 7432, Control_c, 0, 67, 127
2, 7433, Note_on_c, 0, 72, 0
2, 7433, Note_on_c, 0, 60, 0
2, 7448, Note_on_c, 0, 65, 0
2, 7474, Note_on_c, 0, 64, 69
2, 7476, Note_on_c, 0, 72, 61
2, 7476, Note_on_c, 0, 76, 63
2, 7477, Note_on_c, 0, 36, 68
2, 7477, Note_on_c, 0, 48, 69
2, 7492, Note_on_c, 0, 69, 0
2, 7493, Note_on_c, 0, 57, 0
2, 7509, Control_c, 0, 64, 127
2, 7509, Control_c, 0, 67, 0
2, 7570, Note_on_c, 0, 36, 0
2, 7570, Note_on_c, 0, 48, 0
2, 7584, Note_on_c, 0, 72, 0
2, 7585, Note_on_c, 0, 76, 0
2, 7595, Note_on_c, 0, 74, 65
2, 7596, Note_on_c, 0, 60, 62
2, 7597, Note_on_c, 0, 58, 65
2, 7597, Note_on_c, 0, 62, 66
2, 7597, Note_on_c, 0, 70, 61
2, 7600, Control_c, 0, 64, 0
2, 7656, Note_on_c, 0, 60, 0
2, 7657, Note_on_c, 0, 74, 0
2, 7657, Note_on_c, 0, 58, 0
2, 7657, Note_on_c, 0, 62, 0
2, 7657, Note_on_c, 0, 70, 0
2, 7686, Note_on_c, 0, 64, 0
2, 7716, Note_on_c, 0, 69, 59
2, 7716, Note_on_c, 0, 72, 61
2, 7717, Note_on_c, 0, 41, 44
2, 7717, Note_on_c, 0, 53, 45
2, 7717, Note_on_c, 0, 60, 43
2, 7796, Note_on_c, 0, 60, 0
2, 7840, Note_on_c, 0, 60, 59
2, 7840, Note_on_c, 0, 65, 55
2, 7841, Note_on_c, 0, 57, 56
2, 7900, Note_on_c, 0, 60, 0
2, 7901, Note_on_c, 0, 65, 0
2, 7901, Note_on_c, 0, 72, 0
2, 7901, Note_on_c, 0, 53, 0
2, 7901, Note_on_c, 0, 69, 0
2, 7901, Note_on_c, 0, 57, 0
2, 7901, Note_on_c, 0, 41, 0
2, 7960, Note_on_c, 0, 43, 58
2, 7960, Note_on_c, 0, 82, 57
2, 7961, Note_on_c, 0, 55, 54
2, 7961, Note_on_c, 0, 70, 57
2, 8022, Note_on_c, 0, 76, 58
2, 8025, Note_on_c, 0, 70, 0
2, 8025, Note_on_c, 0, 82, 0
2, 8025, Note_on_c, 0, 43, 0
2, 8040, Note_on_c, 0, 55, 0
2, 8089, Note_on_c, 0, 60, 60
2, 8089, Note_on_c, 0, 64, 55
2, 8090, Note_on_c, 0, 58, 55
2, 8090, Note_on_c, 0, 79, 53
2, 8123, Note_on_c, 0, 76, 0
2, 8140, Note_on_c, 0, 82, 60
2, 8153, Note_on_c, 0, 70, 59
2, 8169, Note_on_c, 0, 60, 0
2, 8170, Note_on_c, 0, 79, 0
2, 8170, Note_on_c, 0, 58, 0
2, 8185, Note_on_c, 0, 64, 0
2, 8213, Note_on_c, 0, 55, 59
2, 8214, Note_on_c, 0, 43, 59
2, 8274, Note_on_c, 0, 76, 53
2, 8274, Note_on_c, 0, 79, 57
2, 8290, Note_on_c, 0, 55, 0
2, 8290, Note_on_c, 0, 82, 0
2, 8290, Note_on_c, 0, 70, 0
2, 8291, Note_on_c, 0, 43, 0
2, 8336, Note_on_c, 0, 44, 56
2, 8336, Note_on_c, 0, 56, 56
2, 8336, Note_on_c, 0, 71, 60
2, 8336, Note_on_c, 0, 83, 60
2, 8352, Note_on_c, 0, 76, 0
2, 8352, Note_on_c, 0, 79, 0
2, 8352, Control_c, 0, 67, 127
2, 8399, Note_on_c, 0, 72, 57
2, 8399, Note_on_c, 0, 84, 53
2, 8416, Note_on_c, 0, 56, 0
2, 8416, Note_on_c, 0, 83, 0
2, 8417, Note_on_c, 0, 71, 0
2, 8417, Note_on_c, 0, 44, 0
2, 8430, Control_c, 0, 67, 0
2, 8459, Note_on_c, 0, 45, 62
2, 8459, Note_on_c, 0, 57, 63
2, 8476, Note_on_c, 0, 84, 0
2, 8476, Note_on_c, 0, 72, 0
2, 8476, Control_c, 0, 64, 127
2, 8520, Note_on_c, 0, 72, 53
2, 8520, Note_on_c, 0, 84, 56
2, 8520, Note_on_c, 0, 46, 59
2, 8520, Note_on_c, 0, 58, 61
2, 8537, Note_on_c, 0, 45, 0
2, 8537, Note_on_c, 0, 57, 0
2, 8569, Control_c, 0, 64, 0
2, 8582, Note_on_c, 0, 48, 63
2, 8582, Note_on_c, 0, 60, 61
2, 8582, Note_on_c, 0, 69, 60
2, 8582, Note_on_c, 0, 81, 59
2, 8583, Note_on_c, 0, 58, 0
2, 8598, Note_on_c, 0, 84, 0
2, 8599, Note_on_c, 0, 46, 0
2, 8614, Note_on_c, 0, 72, 0
2, 8642, Note_on_c, 0, 77, 53
2, 8643, Note_on_c, 0, 65, 54
2, 8644, Note_on_c, 0, 60, 0
2, 8644, Note_on_c, 0, 47, 65
2, 8644, Note_on_c, 0, 59, 66
2, 8645, Note_on_c, 0, 69, 0
2, 8660, Note_on_c, 0, 81, 0
2, 8661, Note_on_c, 0, 48, 0
2, 8701, Note_on_c, 0, 74, 59
2, 8702, Note_on_c, 0, 46, 62
2, 8702, Note_on_c, 0, 58, 60
2, 8702, Note_on_c, 0, 62, 63
2, 8704, Note_on_c, 0, 59, 0
2, 8717, Note_on_c, 0, 77, 0
2, 8718, Note_on_c, 0, 47, 0
2, 8733, Note_on_c, 0, 65, 0
2, 8758, Note_on_c, 0, 61, 64
2, 8759, Note_on_c, 0, 73, 60
2, 8760, Note_on_c, 0, 58, 0
2, 8774, Note_on_c, 0, 62, 0
2, 8774, Note_on_c, 0, 74, 0
2, 8775, Note_on_c, 0, 46, 0
2, 8816, Note_on_c, 0, 72, 57
2, 8817, Note_on_c, 0, 57, 65
2, 8817, Note_on_c, 0, 60, 59
2, 8818, Note_on_c, 0, 61, 0
2, 8819, Note_on_c, 0, 73, 0
2, 8833, Note_on_c, 0, 45, 43
2, 8895, Note_on_c, 0, 60, 0
2, 8895, Note_on_c, 0, 72, 0
2, 8896, Note_on_c, 0, 57, 0
2, 8896, Note_on_c, 0, 45, 0
2, 8911, Control_c, 0, 64, 127
2, 8937, Note_on_c, 0, 74, 55
2, 8939, Note_on_c, 0, 58, 53
2, 8939, Note_on_c, 0, 86, 56
2, 8955, Note_on_c, 0, 46, 57
2, 8957, Control_c, 0, 64, 0
2, 8997, Note_on_c, 0, 82, 53
2, 8999, Note_on_c, 0, 58, 0
2, 8999, Control_c, 0, 64, 127
2, 9013, Note_on_c, 0, 46, 0
2, 9013, Note_on_c, 0, 74, 0
2, 9013, Note_on_c, 0, 86, 0
2, 9035, Note_on_c, 0, 67, 65
2, 9043, Control_c, 0, 64, 0
2, 9052, Note_on_c, 0, 84, 64
2, 9053, Note_on_c, 0, 58, 58
2, 9053, Note_on_c, 0, 62, 58
2, 9054, Note_on_c, 0, 82, 0
2, 9110, Note_on_c, 0, 88, 47
2, 9111, Note_on_c, 0, 76, 41
2, 9112, Note_on_c, 0, 58, 0
2, 9112, Note_on_c, 0, 62, 0
2, 9112, Note_on_c, 0, 67, 0
2, 9112, Note_on_c, 0, 84, 0
2, 9173, Note_on_c, 0, 46, 54
2, 9173, Note_on_c, 0, 58, 54
2, 9229, Note_on_c, 0, 82, 60
2, 9232, Note_on_c, 0, 58, 0
2, 9232, Note_on_c, 0, 46, 0
2, 9232, Note_on_c, 0, 88, 0
2, 9233, Note_on_c, 0, 76, 0
2, 9273, Note_on_c, 0, 74, 59
2, 9286, Note_on_c, 0, 44, 59
2, 9286, Note_on_c, 0, 56, 55
2, 9286, Note_on_c, 0, 86, 59
2, 9302, Note_on_c, 0, 82, 0
2, 9348, Note_on_c, 0, 56, 0
2, 9348, Note_on_c, 0, 44, 0
2, 9363, Note_on_c, 0, 74, 0
2, 9363, Note_on_c, 0, 86, 0
2, 9409, Note_on_c, 0, 45, 67
2, 9409, Note_on_c, 0, 57, 66
2, 9409, Note_on_c, 0, 72, 69
2, 9410, Note_on_c, 0, 84, 70
2, 9426, Control_c, 0, 64, 127
2, 9471, Note_on_c, 0, 77, 60
2, 9471, Note_on_c, 0, 81, 59
2, 9486, Note_on_c, 0, 84, 0
2, 9486, Note_on_c, 0, 57, 0
2, 9501, Note_on_c, 0, 72, 0
2, 9527, Note_on_c, 0, 60, 68
2, 9527, Note_on_c, 0, 74, 60
2, 9527, Note_on_c, 0, 86, 62
2, 9528, Note_on_c, 0, 57, 72
2, 9528, Note_on_c, 0, 65, 65
2, 9543, Note_on_c, 0, 77, 0
2, 9544, Control_c, 0, 64, 0
2, 9573, Note_on_c, 0, 81, 0
2, 9588, Note_on_c, 0, 74, 0
2, 9588, Note_on_c, 0, 86, 0
2, 9588, Note_on_c, 0, 72, 63
2, 9588, Note_on_c, 0, 84, 59
2, 9604, Note_on_c, 0, 60, 0
2, 9604, Note_on_c, 0, 57, 0
2, 9604, Note_on_c, 0, 65, 0
2, 9654, Note_on_c, 0, 57, 68
2, 9654, Note_on_c, 0, 60, 71
2, 9654, Note_on_c, 0, 65, 61
2, 9717, Note_on_c, 0, 69, 62
2, 9717, Note_on_c, 0, 81, 64
2, 9719, Note_on_c, 0, 65, 0
2, 9719, Note_on_c, 0, 72, 0
2, 9719, Note_on_c, 0, 45, 0
2, 9719, Note_on_c, 0, 84, 0
2, 9778, Note_on_c, 0, 65, 55
2, 9778, Note_on_c, 0, 77, 53
2, 9780, Note_on_c, 0, 60, 0
2, 9780, Note_on_c, 0, 57, 0
2, 9780, Note_on_c, 0, 81, 0
2, 9781, Note_on_c, 0, 69, 0
2, 9837, Note_on_c, 0, 66, 59
2, 9838, Note_on_c, 0, 54, 55
2, 9854, Note_on_c, 0, 77, 0
2, 9854, Note_on_c, 0, 65, 0
2, 9899, Note_on_c, 0, 36, 55
2, 9899, Note_on_c, 0, 48, 53
2, 9899, Note_on_c, 0, 55, 56
2, 9899, Note_on_c, 0, 67, 56
2, 9900, Note_on_c, 0, 66, 0
2, 9900, Note_on_c, 0, 54, 0
2, 9914, Control_c, 0, 64, 127
2, 9960, Note_on_c, 0, 72, 55
2, 9977, Note_on_c, 0, 36, 0
2, 9977, Note_on_c, 0, 67, 0
2, 9991, Note_on_c, 0, 55, 0
2, 9992, Note_on_c, 0, 48, 0
2, 10021, Note_on_c, 0, 60, 60
2, 10022, Note_on_c, 0, 58, 59
2, 10022, Note_on_c, 0, 64, 57
2, 10050, Control_c, 0, 64, 0
2, 10080, Note_on_c, 0, 54, 57
2, 10080, Note_on_c, 0, 66, 54
2, 10082, Note_on_c, 0, 64, 0
2, 10082, Note_on_c, 0, 58, 0
2, 10082, Note_on_c, 0, 72, 0
2, 10082, Note_on_c, 0, 60, 0
2, 10144, Note_on_c, 0, 40, 59
2, 10144, Note_on_c, 0, 55, 58
2, 10144, Note_on_c, 0, 67, 58
2, 10145, Note_on_c, 0, 52, 59
2, 10146, Note_on_c, 0, 66, 0
2, 10146, Note_on_c, 0, 54, 0
2, 10208, Note_on_c, 0, 79, 57
2, 10209, Note_on_c, 0, 55, 0
2, 10209, Note_on_c, 0, 70, 55
2, 10210, Note_on_c, 0, 40, 0
2, 10225, Note_on_c, 0, 52, 0
2, 10272, Note_on_c, 0, 55, 60
2, 10272, Note_on_c, 0, 60, 57
2, 10273, Note_on_c, 0, 58, 57
2, 10305, Note_on_c, 0, 67, 0
2, 10305, Note_on_c, 0, 79, 0
2, 10306, Note_on_c, 0, 70, 0
2, 10333, Note_on_c, 0, 65, 67
2, 10333, Note_on_c, 0, 69, 71
2, 10333, Note_on_c, 0, 72, 67
2, 10333, Note_on_c, 0, 77, 67
2, 10335, Note_on_c, 0, 60, 0
2, 10335, Note_on_c, 0, 58, 0
2, 10349, Note_on_c, 0, 55, 0
2, 10390, Note_on_c, 0, 41, 58
2, 10390, Note_on_c, 0, 57, 56
2, 10390, Note_on_c, 0, 60, 56
2, 10404, Control_c, 0, 64, 127
2, 10404, Note_on_c, 0, 53, 55
2, 10449, Note_on_c, 0, 35, 64
2, 10449, Note_on_c, 0, 47, 60
2, 10450, Note_on_c, 0, 41, 0
2, 10465, Note_on_c, 0, 53, 0
2, 10510, Note_on_c, 0, 36, 59
2, 10510, Note_on_c, 0, 48, 62
2, 10511, Note_on_c, 0, 35, 0
2, 10527, Note_on_c, 0, 47, 0
2, 10572, Note_on_c, 0, 37, 59
2, 10572, Note_on_c, 0, 49, 54
2, 10588, Note_on_c, 0, 48, 0
2, 10589, Note_on_c, 0, 36, 0
2, 10619, Control_c, 0, 64, 0
2, 10630, Note_on_c, 0, 38, 53
2, 10630, Note_on_c, 0, 50, 50
2, 10632, Note_on_c, 0, 37, 0
2, 10646, Note_on_c, 0, 49, 0
2, 10646, Note_on_c, 0, 60, 0
2, 10646, Note_on_c, 0, 57, 0
2, 10684, Note_on_c, 0, 39, 63
2, 10685, Note_on_c, 0, 51, 63
2, 10701, Note_on_c, 0, 65, 0
2, 10701, Note_on_c, 0, 38, 0
2, 10701, Note_on_c, 0, 50, 0
2, 10701, Note_on_c, 0, 69, 0
2, 10702, Note_on_c, 0, 77, 0
2, 10715, Note_on_c, 0, 72, 0
2, 10744, Note_on_c, 0, 40, 66
2, 10745, Note_on_c, 0, 52, 61
2, 10746, Note_on_c, 0, 39, 0
2, 10776, Note_on_c, 0, 51, 0
2, 10789, Note_on_c, 0, 64, 55
2, 10803, Note_on_c, 0, 65, 49
2, 10804, Note_on_c, 0, 44, 60
2, 10804, Note_on_c, 0, 56, 60
2, 10804, Note_on_c, 0, 76, 50
2, 10806, Note_on_c, 0, 40, 0
2, 10820, Note_on_c, 0, 77, 60
2, 10821, Note_on_c, 0, 52, 0
2, 10848, Note_on_c, 0, 68, 63
2, 10849, Note_on_c, 0, 80, 63
2, 10851, Note_on_c, 0, 64, 0
2, 10862, Note_on_c, 0, 41, 47
2, 10862, Note_on_c, 0, 69, 60
2, 10862, Note_on_c, 0, 81, 60
2, 10863, Note_on_c, 0, 53, 50
2, 10865, Note_on_c, 0, 76, 0
2, 10865, Note_on_c, 0, 65, 0
2, 10878, Note_on_c, 0, 80, 0
2, 10878, Note_on_c, 0, 44, 0
2, 10878, Note_on_c, 0, 68, 0
2, 10878, Note_on_c, 0, 77, 0
2, 10878, Note_on_c, 0, 56, 0
2, 10881, Control_c, 0, 64, 127
2, 10920, Note_on_c, 0, 72, 55
2, 10921, Note_on_c, 0, 84, 54
2, 10938, Note_on_c, 0, 69, 0
2, 10969, Note_on_c, 0, 81, 0
2, 10970, Note_on_c, 0, 53, 0
2, 10981, Note_on_c, 0, 65, 54
2, 10984, Note_on_c, 0, 57, 54
2, 10985, Note_on_c, 0, 60, 48
2, 10986, Note_on_c, 0, 77, 57
2, 10986, Note_on_c, 0, 89, 57
2, 11002, Note_on_c, 0, 84, 0
2, 11017, Note_on_c, 0, 72, 0
2, 11017, Note_on_c, 0, 53, 52
2, 11048, Note_on_c, 0, 81, 65
2, 11048, Note_on_c, 0, 93, 68
2, 11049, Control_c, 0, 64, 0
2, 11065, Note_on_c, 0, 60, 0
2, 11065, Note_on_c, 0, 65, 0
2, 11065, Note_on_c, 0, 89, 0
2, 11065, Note_on_c, 0, 57, 0
2, 11065, Note_on_c, 0, 77, 0
2, 11111, Note_on_c, 0, 36, 50
2, 11111, Note_on_c, 0, 48, 53
2, 11128, Note_on_c, 0, 41, 0
2, 11143, Note_on_c, 0, 53, 0
2, 11159, Note_on_c, 0, 93, 0
2, 11169, Note_on_c, 0, 77, 54
2, 11169, Note_on_c, 0, 89, 60
2, 11171, Note_on_c, 0, 81, 0
2, 11186, Note_on_c, 0, 36, 0
2, 11202, Note_on_c, 0, 48, 0
2, 11229, Note_on_c, 0, 57, 52
2, 11229, Note_on_c, 0, 60, 50
2, 11229, Note_on_c, 0, 65, 54
2, 11229, Note_on_c, 0, 72, 58
2, 11230, Note_on_c, 0, 84, 57
2, 11246, Note_on_c, 0, 77, 0
2, 11246, Note_on_c, 0, 89, 0
2, 11290, Note_on_c, 0, 69, 53
2, 11291, Note_on_c, 0, 60, 0
2, 11292, Note_on_c, 0, 57, 0
2, 11292, Note_on_c, 0, 65, 0
2, 11292, Note_on_c, 0, 84, 0
2, 11306, Note_on_c, 0, 72, 0
2, 11306, Control_c, 0, 64, 127
2, 11323, Note_on_c, 0, 81, 66
2, 11352, Note_on_c, 0, 36, 47
2, 11352, Note_on_c, 0, 48, 52
2, 11353, Note_on_c, 0, 76, 63
2, 11353, Note_on_c, 0, 84, 63
2, 11353, Note_on_c, 0, 88, 59
2, 11371, Note_on_c, 0, 81, 0
2, 11371, Note_on_c, 0, 69, 0
2, 11401, Control_c, 0, 64, 0
2, 11463, Note_on_c, 0, 84, 0
2, 11463, Note_on_c, 0, 76, 0
2, 11463, Note_on_c, 0, 88, 0
2, 11473, Note_on_c, 0, 58, 49
2, 11473, Note_on_c, 0, 82, 61
2, 11473, Note_on_c, 0, 86, 60
2, 11474, Note_on_c, 0, 60, 51
2, 11474, Note_on_c, 0, 64, 52
2, 11474, Note_on_c, 0, 74, 61
2, 11568, Note_on_c, 0, 36, 0
2, 11569, Note_on_c, 0, 74, 0
2, 11569, Note_on_c, 0, 86, 0
2, 11569, Note_on_c, 0, 82, 0
2, 11599, Note_on_c, 0, 41, 48
2, 11599, Note_on_c, 0, 72, 71
2, 11600, Note_on_c, 0, 84, 71
2, 11601, Note_on_c, 0, 48, 0
2, 11616, Note_on_c, 0, 53, 52
2, 11616, Note_on_c, 0, 81, 44
2, 11646, Note_on_c, 0, 58, 0
2, 11646, Note_on_c, 0, 60, 0
2, 11678, Note_on_c, 0, 64, 0
2, 11715, Note_on_c, 0, 57, 48
2, 11715, Note_on_c, 0, 65, 51
2, 11716, Note_on_c, 0, 60, 52
2, 11826, Note_on_c, 0, 84, 0
2, 11826, Note_on_c, 0, 41, 0
2, 11838, Note_on_c, 0, 55, 52
2, 11838, Note_on_c, 0, 82, 53
2, 11838, Note_on_c, 0, 94, 50
2, 11839, Note_on_c, 0, 43, 47
2, 11840, Note_on_c, 0, 53, 0
2, 11840, Note_on_c, 0, 72, 0
2, 11840, Note_on_c, 0, 81, 0
2, 11867, Control_c, 0, 64, 127
2, 11884, Note_on_c, 0, 60, 0
2, 11884, Note_on_c, 0, 65, 0
2, 11884, Note_on_c, 0, 57, 0
2, 11898, Note_on_c, 0, 88, 49
2, 11913, Note_on_c, 0, 55, 0
2, 11914, Note_on_c, 0, 82, 0
2, 11914, Note_on_c, 0, 43, 0
2, 11914, Control_c, 0, 67, 127
2, 11915, Note_on_c, 0, 94, 0
2, 11954, Note_on_c, 0, 64, 50
2, 11955, Note_on_c, 0, 58, 47
2, 11955, Note_on_c, 0, 60, 50
2, 11956, Control_c, 0, 64, 0
2, 11956, Note_on_c, 0, 91, 50
2, 11972, Note_on_c, 0, 88, 0
2, 12009, Note_on_c, 0, 82, 49
2, 12009, Note_on_c, 0, 94, 48
2, 12011, Note_on_c, 0, 58, 0
2, 12013, Note_on_c, 0, 91, 0
2, 12025, Note_on_c, 0, 60, 0
2, 12054, Note_on_c, 0, 64, 0
2, 12068, Note_on_c, 0, 43, 49
2, 12068, Note_on_c, 0, 55, 47
2, 12099, Note_on_c, 0, 82, 0
2, 12099, Note_on_c, 0, 94, 0
2, 12128, Note_on_c, 0, 88, 51
2, 12129, Note_on_c, 0, 91, 54
2, 12144, Note_on_c, 0, 43, 0
2, 12161, Control_c, 0, 67, 0
2, 12174, Note_on_c, 0, 55, 0
2, 12189, Note_on_c, 0, 44, 50
2, 12190, Note_on_c, 0, 56, 47
2, 12191, Note_on_c, 0, 83, 47
2, 12191, Note_on_c, 0, 95, 48
2, 12207, Note_on_c, 0, 88, 0
2, 12207, Note_on_c, 0, 91, 0
2, 12246, Note_on_c, 0, 84, 61
2, 12246, Note_on_c, 0, 96, 60
2, 12248, Note_on_c, 0, 83, 0
2, 12263, Note_on_c, 0, 56, 0
2, 12263, Note_on_c, 0, 44, 0
2, 12264, Note_on_c, 0, 95, 0
2, 12301, Note_on_c, 0, 45, 53
2, 12302, Note_on_c, 0, 57, 54
2, 12319, Note_on_c, 0, 84, 0
2, 12320, Note_on_c, 0, 96, 0
2, 12344, Control_c, 0, 64, 127
2, 12360, Note_on_c, 0, 46, 52
2, 12360, Note_on_c, 0, 58, 49
2, 12360, Note_on_c, 0, 84, 55
2, 12360, Note_on_c, 0, 96, 58
2, 12361, Note_on_c, 0, 45, 0
2, 12361, Note_on_c, 0, 57, 0
2, 12418, Note_on_c, 0, 48, 54
2, 12418, Note_on_c, 0, 60, 60
2, 12418, Note_on_c, 0, 81, 48
2, 12418, Note_on_c, 0, 93, 50
2, 12419, Note_on_c, 0, 58, 0
2, 12419, Control_c, 0, 64, 0
2, 12420, Note_on_c, 0, 84, 0
2, 12421, Note_on_c, 0, 96, 0
2, 12434, Note_on_c, 0, 46, 0
2, 12471, Note_on_c, 0, 47, 55
2, 12472, Note_on_c, 0, 59, 53
2, 12472, Note_on_c, 0, 77, 53
2, 12472, Note_on_c, 0, 89, 54
2, 12478, Note_on_c, 0, 60, 0
2, 12480, Note_on_c, 0, 93, 0
2, 12487, Note_on_c, 0, 48, 0
2, 12488, Note_on_c, 0, 81, 0
2, 12528, Note_on_c, 0, 46, 56
2, 12528, Note_on_c, 0, 58, 55
2, 12528, Note_on_c, 0, 74, 49
2, 12528, Note_on_c, 0, 86, 54
2, 12530, Note_on_c, 0, 47, 0
2, 12530, Note_on_c, 0, 59, 0
2, 12531, Note_on_c, 0, 89, 0
2, 12545, Note_on_c, 0, 77, 0
2, 12588, Note_on_c, 0, 73, 47
2, 12589, Note_on_c, 0, 58, 0
2, 12589, Note_on_c, 0, 85, 52
2, 12590, Note_on_c, 0, 86, 0
2, 12604, Note_on_c, 0, 46, 0
2, 12621, Note_on_c, 0, 74, 0
2, 12649, Note_on_c, 0, 45, 58
2, 12649, Note_on_c, 0, 84, 50
2, 12650, Note_on_c, 0, 57, 54
2, 12650, Note_on_c, 0, 72, 51
2, 12652, Note_on_c, 0, 73, 0
2, 12667, Note_on_c, 0, 85, 0
2, 12712, Note_on_c, 0, 55, 58
2, 12713, Note_on_c, 0, 57, 0
2, 12713, Note_on_c, 0, 45, 0
2, 12713, Note_on_c, 0, 43, 59
2, 12713, Note_on_c, 0, 70, 41
2, 12713, Note_on_c, 0, 82, 41
2, 12714, Note_on_c, 0, 84, 0
2, 12728, Note_on_c, 0, 72, 0
2, 12767, Control_c, 0, 64, 127
2, 12768, Note_on_c, 0, 41, 60
2, 12768, Note_on_c, 0, 69, 61
2, 12768, Note_on_c, 0, 81, 66
2, 12769, Note_on_c, 0, 43, 0
2, 12770, Note_on_c, 0, 70, 0
2, 12770, Note_on_c, 0, 82, 0
2, 12783, Note_on_c, 0, 53, 59
2, 12784, Note_on_c, 0, 55, 0
2, 12827, Note_on_c, 0, 72, 60
2, 12827, Note_on_c, 0, 84, 59
2, 12843, Note_on_c, 0, 69, 0
2, 12859, Note_on_c, 0, 81, 0
2, 12888, Note_on_c, 0, 60, 54
2, 12888, Note_on_c, 0, 65, 58
2, 12888, Note_on_c, 0, 57, 58
2, 12888, Note_on_c, 0, 77, 60
2, 12888, Note_on_c, 0, 89, 56
2, 12889, Note_on_c, 0, 84, 0
2, 12889, Control_c, 0, 64, 0
2, 12906, Note_on_c, 0, 72, 0
2, 12948, Note_on_c, 0, 81, 48
2, 12949, Note_on_c, 0, 93, 48
2, 12950, Note_on_c, 0, 60, 0
2, 12951, Note_on_c, 0, 89, 0
2, 12951, Note_on_c, 0, 77, 0
2, 12951, Note_on_c, 0, 65, 0
2, 12951, Note_on_c, 0, 57, 0
2, 12981, Note_on_c, 0, 41, 0
2, 12981, Note_on_c, 0, 53, 0
2, 13009, Note_on_c, 0, 36, 56
2, 13010, Note_on_c, 0, 48, 59
2, 13028, Note_on_c, 0, 81, 0
2, 13028, Note_on_c, 0, 93, 0
2, 13071, Note_on_c, 0, 77, 53
2, 13071, Note_on_c, 0, 89, 53
2, 13131, Note_on_c, 0, 65, 55
2, 13132, Note_on_c, 0, 57, 56
2, 13132, Note_on_c, 0, 60, 55
2, 13132, Note_on_c, 0, 72, 58
2, 13132, Note_on_c, 0, 84, 54
2, 13133, Note_on_c, 0, 89, 0
2, 13149, Note_on_c, 0, 77, 0
2, 13198, Note_on_c, 0, 72, 0
2, 13198, Note_on_c, 0, 36, 0
2, 13198, Note_on_c, 0, 60, 0
2, 13198, Note_on_c, 0, 69, 41
2, 13198, Note_on_c, 0, 81, 46
2, 13199, Note_on_c, 0, 65, 0
2, 13199, Note_on_c, 0, 84, 0
2, 13199, Note_on_c, 0, 57, 0
2, 13211, Control_c, 0, 64, 127
2, 13214, Note_on_c, 0, 48, 0
2, 13260, Note_on_c, 0, 36, 55
2, 13261, Note_on_c, 0, 48, 56
2, 13261, Note_on_c, 0, 76, 66
2, 13261, Note_on_c, 0, 88, 66
2, 13262, Note_on_c, 0, 69, 0
2, 13262, Note_on_c, 0, 84, 66
2, 13277, Note_on_c, 0, 81, 0
2, 13351, Note_on_c, 0, 88, 0
2, 13351, Note_on_c, 0, 76, 0
2, 13351, Note_on_c, 0, 84, 0
2, 13378, Note_on_c, 0, 60, 60
2, 13378, Note_on_c, 0, 64, 54
2, 13378, Note_on_c, 0, 82, 65
2, 13378, Note_on_c, 0, 86, 64
2, 13379, Note_on_c, 0, 74, 66
2, 13409, Control_c, 0, 64, 0
2, 13456, Note_on_c, 0, 82, 0
2, 13470, Note_on_c, 0, 60, 0
2, 13471, Note_on_c, 0, 86, 0
2, 13471, Note_on_c, 0, 74, 0
2, 13487, Note_on_c, 0, 64, 0
2, 13502, Note_on_c, 0, 53, 57
2, 13502, Note_on_c, 0, 72, 60
2, 13502, Note_on_c, 0, 84, 61
2, 13517, Note_on_c, 0, 81, 62
2, 13518, Note_on_c, 0, 48, 0
2, 13518, Note_on_c, 0, 36, 0
2, 13579, Note_on_c, 0, 53, 0
2, 13580, Note_on_c, 0, 81, 0
2, 13580, Note_on_c, 0, 84, 0
2, 13593, Note_on_c, 0, 72, 0
2, 13622, Note_on_c, 0, 54, 50
2, 13622, Note_on_c, 0, 57, 53
2, 13622, Note_on_c, 0, 60, 49
2, 13622, Note_on_c, 0, 63, 47
2, 13622, Note_on_c, 0, 93, 54
2, 13637, Note_on_c, 0, 81, 51
2, 13682, Note_on_c, 0, 60, 0
2, 13682, Note_on_c, 0, 54, 0
2, 13682, Note_on_c, 0, 57, 0
2, 13683, Note_on_c, 0, 63, 0
2, 13683, Note_on_c, 0, 93, 0
2, 13683, Note_on_c, 0, 81, 0
2, 13742, Note_on_c, 0, 60, 42
2, 13743, Note_on_c, 0, 55, 43
2, 13743, Note_on_c, 0, 64, 41
2, 13743, Note_on_c, 0, 79, 48
2, 13743, Note_on_c, 0, 91, 48
2, 13772, Control_c, 0, 64, 127
2, 13803, Note_on_c, 0, 72, 43
2, 13804, Note_on_c, 0, 84, 45
2, 13820, Note_on_c, 0, 79, 0
2, 13821, Note_on_c, 0, 91, 0
2, 13860, Note_on_c, 0, 88, 42
2, 13861, Note_on_c, 0, 76, 42
2, 13863, Note_on_c, 0, 84, 0
2, 13863, Control_c, 0, 64, 0
2, 13877, Note_on_c, 0, 72, 0
2, 13917, Note_on_c, 0, 84, 53
2, 13918, Note_on_c, 0, 86, 47
2, 13918, Note_on_c, 0, 90, 48
2, 13919, Note_on_c, 0, 93, 52
2, 13920, Note_on_c, 0, 88, 0
2, 13935, Note_on_c, 0, 81, 49
2, 13951, Note_on_c, 0, 76, 0
2, 13978, Note_on_c, 0, 50, 43
2, 13978, Note_on_c, 0, 62, 48
2, 13980, Note_on_c, 0, 60, 0
2, 13980, Note_on_c, 0, 64, 0
2, 13980, Note_on_c, 0, 55, 0
2, 13981, Note_on_c, 0, 81, 0
2, 13981, Note_on_c, 0, 86, 0
2, 13981, Note_on_c, 0, 90, 0
2, 13981, Note_on_c, 0, 84, 0
2, 13982, Note_on_c, 0, 93, 0
2, 14042, Note_on_c, 0, 62, 0
2, 14042, Note_on_c, 0, 50, 0
2, 14048, Note_on_c, 0, 84, 47
2, 14048, Note_on_c, 0, 86, 48
2, 14048, Note_on_c, 0, 90, 49
2, 14048, Note_on_c, 0, 93, 50
2, 14063, Note_on_c, 0, 81, 50
2, 14064, Note_on_c, 0, 86, 0
2, 14107, Note_on_c, 0, 55, 41
2, 14108, Note_on_c, 0, 83, 54
2, 14108, Note_on_c, 0, 89, 48
2, 14109, Note_on_c, 0, 43, 41
2, 14109, Note_on_c, 0, 86, 53
2, 14109, Note_on_c, 0, 95, 47
2, 14125, Note_on_c, 0, 84, 0
2, 14125, Note_on_c, 0, 90, 0
2, 14126, Note_on_c, 0, 93, 0
2, 14140, Note_on_c, 0, 81, 0
2, 14183, Note_on_c, 0, 55, 0
2, 14184, Note_on_c, 0, 83, 0
2, 14184, Note_on_c, 0, 43, 0
2, 14184, Note_on_c, 0, 86, 0
2, 14184, Note_on_c, 0, 95, 0
2, 14184, Note_on_c, 0, 89, 0
2, 14228, Note_on_c, 0, 48, 66
2, 14228, Note_on_c, 0, 60, 62
2, 14228, Note_on_c, 0, 84, 55
2, 14228, Note_on_c, 0, 88, 53
2, 14228, Note_on_c, 0, 91, 60
2, 14228, Note_on_c, 0, 96, 56
2, 14273, Control_c, 0, 64, 127
2, 14288, Note_on_c, 0, 47, 62
2, 14288, Note_on_c, 0, 59, 66
2, 14304, Note_on_c, 0, 60, 0
2, 14305, Note_on_c, 0, 48, 0
2, 14350, Note_on_c, 0, 46, 59
2, 14350, Note_on_c, 0, 58, 65
2, 14352, Note_on_c, 0, 59, 0
2, 14352, Note_on_c, 0, 47, 0
2, 14367, Control_c, 0, 64, 0
2, 14405, Note_on_c, 0, 60, 62
2, 14407, Note_on_c, 0, 48, 60
2, 14410, Note_on_c, 0, 58, 0
2, 14424, Note_on_c, 0, 46, 0
2, 14465, Note_on_c, 0, 45, 60
2, 14466, Note_on_c, 0, 57, 61
2, 14483, Note_on_c, 0, 60, 0
2, 14498, Note_on_c, 0, 48, 0
2, 14522, Note_on_c, 0, 44, 59
2, 14523, Note_on_c, 0, 56, 62
2, 14524, Note_on_c, 0, 45, 0
2, 14525, Note_on_c, 0, 57, 0
2, 14563, Note_on_c, 0, 55, 65
2, 14583, Note_on_c, 0, 43, 61
2, 14584, Note_on_c, 0, 44, 0
2, 14585, Note_on_c, 0, 84, 0
2, 14585, Note_on_c, 0, 56, 0
2, 14586, Note_on_c, 0, 96, 0
2, 14586, Note_on_c, 0, 91, 0
2, 14586, Note_on_c, 0, 88, 0
2, 14639, Note_on_c, 0, 42, 66
2, 14640, Note_on_c, 0, 54, 72
2, 14642, Note_on_c, 0, 43, 0
2, 14642, Note_on_c, 0, 55, 0
2, 14698, Note_on_c, 0, 41, 66
2, 14699, Note_on_c, 0, 53, 68
2, 14699, Note_on_c, 0, 69, 71
2, 14713, Note_on_c, 0, 81, 58
2, 14715, Note_on_c, 0, 42, 0
2, 14715, Note_on_c, 0, 54, 0
2, 14763, Control_c, 0, 64, 127
2, 14764, Note_on_c, 0, 72, 50
2, 14764, Note_on_c, 0, 84, 51
2, 14782, Note_on_c, 0, 69, 0
2, 14782, Note_on_c, 0, 81, 0
2, 14831, Note_on_c, 0, 60, 54
2, 14831, Note_on_c, 0, 65, 47
2, 14832, Note_on_c, 0, 84, 0
2, 14832, Note_on_c, 0, 57, 53
2, 14832, Note_on_c, 0, 77, 47
2, 14832, Note_on_c, 0, 89, 54
2, 14846, Note_on_c, 0, 72, 0
2, 14892, Note_on_c, 0, 81, 64
2, 14892, Note_on_c, 0, 93, 60
2, 14893, Note_on_c, 0, 60, 0
2, 14893, Note_on_c, 0, 57, 0
2, 14893, Note_on_c, 0, 65, 0
2, 14894, Note_on_c, 0, 89, 0
2, 14894, Note_on_c, 0, 77, 0
2, 14952, Control_c, 0, 64, 0
2, 14952, Note_on_c, 0, 36, 48
2, 14952, Note_on_c, 0, 48, 49
2, 14967, Note_on_c, 0, 41, 0
2, 14968, Note_on_c, 0, 53, 0
2, 14983, Note_on_c, 0, 93, 0
2, 15010, Note_on_c, 0, 77, 48
2, 15010, Note_on_c, 0, 89, 52
2, 15012, Note_on_c, 0, 81, 0
2, 15040, Note_on_c, 0, 36, 0
2, 15041, Note_on_c, 0, 48, 0
2, 15065, Note_on_c, 0, 60, 53
2, 15067, Note_on_c, 0, 57, 48
2, 15068, Note_on_c, 0, 65, 47
2, 15068, Note_on_c, 0, 72, 51
2, 15068, Note_on_c, 0, 84, 47
2, 15085, Note_on_c, 0, 89, 0
2, 15085, Note_on_c, 0, 77, 0
2, 15130, Note_on_c, 0, 69, 54
2, 15130, Note_on_c, 0, 81, 48
2, 15131, Note_on_c, 0, 57, 0
2, 15146, Note_on_c, 0, 60, 0
2, 15147, Note_on_c, 0, 84, 0
2, 15177, Note_on_c, 0, 72, 0
2, 15190, Note_on_c, 0, 36, 47
2, 15190, Note_on_c, 0, 48, 47
2, 15190, Note_on_c, 0, 84, 60
2, 15191, Note_on_c, 0, 76, 58
2, 15191, Note_on_c, 0, 88, 56
2, 15192, Note_on_c, 0, 65, 0
2, 15207, Note_on_c, 0, 69, 0
2, 15221, Note_on_c, 0, 81, 0
2, 15261, Control_c, 0, 64, 127
2, 15264, Note_on_c, 0, 36, 0
2, 15278, Note_on_c, 0, 48, 0
2, 15307, Note_on_c, 0, 58, 50
2, 15307, Note_on_c, 0, 60, 50
2, 15307, Note_on_c, 0, 64, 48
2, 15307, Note_on_c, 0, 74, 54
2, 15307, Note_on_c, 0, 82, 53
2, 15307, Note_on_c, 0, 86, 59
2, 15309, Note_on_c, 0, 76, 0
2, 15309, Note_on_c, 0, 84, 0
2, 15309, Note_on_c, 0, 88, 0
2, 15352, Control_c, 0, 64, 0
2, 15367, Note_on_c, 0, 58, 0
2, 15367, Note_on_c, 0, 60, 0
2, 15382, Note_on_c, 0, 64, 0
2, 15397, Note_on_c, 0, 86, 0
2, 15397, Note_on_c, 0, 74, 0
2, 15397, Note_on_c, 0, 82, 0
2, 15426, Note_on_c, 0, 41, 54
2, 15427, Note_on_c, 0, 53, 51
2, 15427, Note_on_c, 0, 72, 59
2, 15427, Note_on_c, 0, 81, 57
2, 15427, Note_on_c, 0, 84, 55
2, 15499, Note_on_c, 0, 41, 0
2, 15500, Note_on_c, 0, 53, 0
2, 15538, Note_on_c, 0, 57, 49
2, 15538, Note_on_c, 0, 60, 48
2, 15538, Note_on_c, 0, 65, 47
2, 15615, Note_on_c, 0, 60, 0
2, 15616, Note_on_c, 0, 72, 0
2, 15616, Note_on_c, 0, 81, 0
2, 15616, Note_on_c, 0, 84, 0
2, 15616, Note_on_c, 0, 65, 0
2, 15616, Note_on_c, 0, 57, 0
2, 15646, Note_on_c, 0, 82, 55
2, 15659, Control_c, 0, 64, 127
2, 15660, Note_on_c, 0, 43, 45
2, 15660, Note_on_c, 0, 55, 47
2, 15660, Note_on_c, 0, 94, 54
2, 15731, Note_on_c, 0, 88, 47
2, 15733, Note_on_c, 0, 43, 0
2, 15734, Note_on_c, 0, 94, 0
2, 15734, Note_on_c, 0, 82, 0
2, 15748, Note_on_c, 0, 55, 0
2, 15774, Note_on_c, 0, 58, 47
2, 15774, Note_on_c, 0, 60, 48
2, 15774, Note_on_c, 0, 64, 41
2, 15774, Note_on_c, 0, 91, 46
2, 15790, Control_c, 0, 64, 0
2, 15792, Note_on_c, 0, 88, 0
2, 15831, Note_on_c, 0, 82, 47
2, 15831, Note_on_c, 0, 94, 50
2, 15832, Note_on_c, 0, 64, 0
2, 15832, Note_on_c, 0, 58, 0
2, 15832, Note_on_c, 0, 60, 0
2, 15833, Note_on_c, 0, 91, 0
2, 15889, Note_on_c, 0, 55, 46
2, 15890, Note_on_c, 0, 43, 42
2, 15938, Note_on_c, 0, 82, 0
2, 15938, Note_on_c, 0, 94, 0
2, 15951, Note_on_c, 0, 87, 44
2, 15951, Note_on_c, 0, 91, 46
2, 15967, Note_on_c, 0, 43, 0
2, 15981, Note_on_c, 0, 55, 0
2, 16007, Note_on_c, 0, 44, 48
2, 16008, Note_on_c, 0, 56, 42
2, 16008, Note_on_c, 0, 95, 48
2, 16008, Note_on_c, 0, 83, 44
2, 16011, Note_on_c, 0, 87, 0
2, 16011, Note_on_c, 0, 91, 0
2, 16064, Note_on_c, 0, 44, 0
2, 16064, Note_on_c, 0, 84, 47
2, 16065, Note_on_c, 0, 56, 0
2, 16066, Note_on_c, 0, 83, 0
2, 16067, Note_on_c, 0, 95, 0
2, 16080, Note_on_c, 0, 96, 47
2, 16128, Note_on_c, 0, 57, 44
2, 16140, Control_c, 0, 64, 127
2, 16141, Note_on_c, 0, 45, 45
2, 16144, Note_on_c, 0, 84, 0
2, 16145, Note_on_c, 0, 96, 0
2, 16189, Note_on_c, 0, 46, 43
2, 16190, Note_on_c, 0, 57, 0
2, 16190, Note_on_c, 0, 45, 0
2, 16190, Note_on_c, 0, 58, 45
2, 16191, Note_on_c, 0, 96, 44
2, 16249, Note_on_c, 0, 60, 46
2, 16250, Note_on_c, 0, 48, 46
2, 16250, Note_on_c, 0, 93, 46
2, 16251, Note_on_c, 0, 58, 0
2, 16266, Note_on_c, 0, 46, 0
2, 16266, Control_c, 0, 64, 0
2, 16268, Note_on_c, 0, 96, 0
2, 16309, Note_on_c, 0, 47, 42
2, 16309, Note_on_c, 0, 59, 48
2, 16310, Note_on_c, 0, 89, 42
2, 16326, Note_on_c, 0, 60, 0
2, 16328, Note_on_c, 0, 93, 0
2, 16342, Note_on_c, 0, 48, 0
2, 16372, Note_on_c, 0, 46, 43
2, 16373, Note_on_c, 0, 47, 0
2, 16373, Note_on_c, 0, 59, 0
2, 16373, Note_on_c, 0, 58, 47
2, 16373, Note_on_c, 0, 86, 42
2, 16392, Note_on_c, 0, 89, 0
2, 16439, Note_on_c, 0, 46, 0
2, 16439, Note_on_c, 0, 58, 0
2, 16439, Note_on_c, 0, 85, 47
2, 16456, Note_on_c, 0, 86, 0
2, 16502, Note_on_c, 0, 45, 44
2, 16503, Note_on_c, 0, 57, 45
2, 16503, Note_on_c, 0, 84, 42
2, 16520, Note_on_c, 0, 85, 0
2, 16562, Note_on_c, 0, 45, 0
2, 16563, Note_on_c, 0, 57, 0
2, 16563, Note_on_c, 0, 84, 0
2, 16619, Note_on_c, 0, 46, 59
2, 16619, Note_on_c, 0, 86, 53
2, 16620, Note_on_c, 0, 58, 58
2, 16620, Note_on_c, 0, 98, 55
2, 16665, Control_c, 0, 64, 127
2, 16680, Note_on_c, 0, 94, 60
2, 16697, Note_on_c, 0, 58, 0
2, 16697, Note_on_c, 0, 46, 0
2, 16697, Note_on_c, 0, 86, 0
2, 16698, Note_on_c, 0, 98, 0
2, 16743, Note_on_c, 0, 58, 56
2, 16743, Note_on_c, 0, 62, 59
2, 16743, Note_on_c, 0, 67, 59
2, 16743, Note_on_c, 0, 96, 53
2, 16744, Control_c, 0, 64, 0
2, 16745, Note_on_c, 0, 94, 0
2, 16804, Note_on_c, 0, 100, 57
2, 16805, Note_on_c, 0, 88, 59
2, 16807, Note_on_c, 0, 67, 0
2, 16807, Note_on_c, 0, 58, 0
2, 16807, Note_on_c, 0, 62, 0
2, 16809, Note_on_c, 0, 96, 0
2, 16865, Note_on_c, 0, 46, 58
2, 16866, Note_on_c, 0, 58, 58
2, 16897, Note_on_c, 0, 100, 0
2, 16912, Note_on_c, 0, 88, 0
2, 16925, Note_on_c, 0, 94, 59
2, 16926, Note_on_c, 0, 46, 0
2, 16926, Note_on_c, 0, 58, 0
2, 16987, Note_on_c, 0, 44, 55
2, 16987, Note_on_c, 0, 56, 59
2, 16987, Note_on_c, 0, 86, 58
2, 16987, Note_on_c, 0, 98, 56
2, 17003, Note_on_c, 0, 94, 0
2, 17064, Note_on_c, 0, 86, 0
2, 17064, Note_on_c, 0, 44, 0
2, 17064, Note_on_c, 0, 56, 0
2, 17064, Note_on_c, 0, 98, 0
2, 17106, Control_c, 0, 64, 127
2, 17106, Note_on_c, 0, 45, 47
2, 17106, Note_on_c, 0, 84, 52
2, 17107, Note_on_c, 0, 57, 51
2, 17107, Note_on_c, 0, 96, 51
2, 17165, Note_on_c, 0, 89, 53
2, 17165, Note_on_c, 0, 93, 54
2, 17166, Note_on_c, 0, 57, 0
2, 17182, Note_on_c, 0, 84, 0
2, 17183, Note_on_c, 0, 96, 0
2, 17197, Control_c, 0, 64, 0
2, 17226, Note_on_c, 0, 65, 53
2, 17227, Note_on_c, 0, 57, 49
2, 17227, Note_on_c, 0, 60, 53
2, 17227, Note_on_c, 0, 86, 53
2, 17227, Note_on_c, 0, 98, 50
2, 17230, Note_on_c, 0, 89, 0
2, 17230, Note_on_c, 0, 93, 0
2, 17289, Note_on_c, 0, 84, 51
2, 17289, Note_on_c, 0, 89, 50
2, 17289, Note_on_c, 0, 93, 51
2, 17289, Note_on_c, 0, 96, 53
2, 17291, Note_on_c, 0, 57, 0
2, 17292, Note_on_c, 0, 98, 0
2, 17305, Note_on_c, 0, 65, 0
2, 17305, Note_on_c, 0, 60, 0
2, 17306, Note_on_c, 0, 86, 0
2, 17338, Note_on_c, 0, 93, 0
2, 17348, Note_on_c, 0, 60, 48
2, 17348, Note_on_c, 0, 65, 48
2, 17349, Note_on_c, 0, 57, 51
2, 17408, Note_on_c, 0, 93, 54
2, 17411, Note_on_c, 0, 84, 0
2, 17411, Note_on_c, 0, 89, 0
2, 17412, Note_on_c, 0, 96, 0
2, 17469, Note_on_c, 0, 89, 48
2, 17484, Note_on_c, 0, 45, 0
2, 17485, Note_on_c, 0, 57, 0
2, 17485, Note_on_c, 0, 60, 0
2, 17485, Note_on_c, 0, 65, 0
2, 17487, Note_on_c, 0, 93, 0
2, 17530, Note_on_c, 0, 66, 64
2, 17531, Note_on_c, 0, 78, 66
2, 17532, Note_on_c, 0, 89, 0
2, 17595, Note_on_c, 0, 36, 61
2, 17595, Note_on_c, 0, 48, 62
2, 17596, Note_on_c, 0, 67, 64
2, 17597, Note_on_c, 0, 79, 61
2, 17611, Control_c, 0, 64, 127
2, 17616, Note_on_c, 0, 78, 0
2, 17616, Note_on_c, 0, 66, 0
2, 17660, Note_on_c, 0, 72, 62
2, 17661, Note_on_c, 0, 84, 60
2, 17677, Note_on_c, 0, 67, 0
2, 17677, Note_on_c, 0, 36, 0
2, 17678, Note_on_c, 0, 79, 0
2, 17692, Note_on_c, 0, 48, 0
2, 17721, Note_on_c, 0, 58, 61
2, 17721, Note_on_c, 0, 60, 64
2, 17721, Note_on_c, 0, 64, 61
2, 17723, Note_on_c, 0, 72, 0
2, 17738, Note_on_c, 0, 84, 0
2, 17738, Control_c, 0, 64, 0
2, 17784, Note_on_c, 0, 66, 61
2, 17784, Note_on_c, 0, 78, 62
2, 17801, Note_on_c, 0, 60, 0
2, 17802, Note_on_c, 0, 58, 0
2, 17817, Note_on_c, 0, 64, 0
2, 17847, Note_on_c, 0, 40, 59
2, 17848, Note_on_c, 0, 52, 64
2, 17848, Note_on_c, 0, 67, 64
2, 17849, Note_on_c, 0, 78, 0
2, 17849, Note_on_c, 0, 66, 0
2, 17906, Note_on_c, 0, 79, 65
2, 17907, Note_on_c, 0, 82, 60
2, 17907, Note_on_c, 0, 91, 66
2, 17924, Note_on_c, 0, 67, 0
2, 17924, Note_on_c, 0, 40, 0
2, 17938, Note_on_c, 0, 52, 0
2, 17965, Note_on_c, 0, 60, 64
2, 17966, Note_on_c, 0, 55, 60
2, 17966, Note_on_c, 0, 58, 66
2, 17998, Note_on_c, 0, 79, 0
2, 17998, Note_on_c, 0, 82, 0
2, 17999, Note_on_c, 0, 91, 0
2, 18027, Note_on_c, 0, 77, 62
2, 18027, Note_on_c, 0, 81, 66
2, 18027, Note_on_c, 0, 89, 62
2, 18029, Note_on_c, 0, 60, 0
2, 18029, Note_on_c, 0, 58, 0
2, 18029, Note_on_c, 0, 55, 0
2, 18092, Note_on_c, 0, 53, 60
2, 18092, Note_on_c, 0, 57, 64
2, 18092, Note_on_c, 0, 60, 66
2, 18123, Control_c, 0, 64, 127
2, 18155, Note_on_c, 0, 60, 0
2, 18156, Note_on_c, 0, 81, 0
2, 18156, Note_on_c, 0, 77, 0
2, 18156, Note_on_c, 0, 89, 0
2, 18156, Note_on_c, 0, 57, 0
2, 18156, Note_on_c, 0, 53, 0
2, 18200, Control_c, 0, 64, 0
2, 18212, Note_on_c, 0, 60, 47
2, 18213, Note_on_c, 0, 72, 46
2, 18271, Note_on_c, 0, 62, 43
2, 18271, Note_on_c, 0, 74, 49
2, 18286, Note_on_c, 0, 60, 0
2, 18301, Note_on_c, 0, 72, 0
2, 18330, Note_on_c, 0, 64, 42
2, 18330, Note_on_c, 0, 76, 45
2, 18331, Note_on_c, 0, 62, 0
2, 18332, Note_on_c, 0, 74, 0
2, 18390, Note_on_c, 0, 65, 48
2, 18390, Note_on_c, 0, 77, 45
2, 18407, Note_on_c, 0, 76, 0
2, 18422, Note_on_c, 0, 64, 0
2, 18450, Note_on_c, 0, 79, 47
2, 18451, Note_on_c, 0, 67, 49
2, 18467, Note_on_c, 0, 65, 0
2, 18481, Note_on_c, 0, 77, 0
2, 18508, Note_on_c, 0, 69, 48
2, 18525, Note_on_c, 0, 79, 0
2, 18525, Note_on_c, 0, 67, 0
2, 18554, Note_on_c, 0, 81, 49
2, 18555, Note_on_c, 0, 82, 49
2, 18570, Note_on_c, 0, 55, 45
2, 18570, Note_on_c, 0, 70, 49
2, 18571, Note_on_c, 0, 43, 51
2, 18584, Control_c, 0, 64, 127
2, 18586, Note_on_c, 0, 69, 0
2, 18601, Note_on_c, 0, 81, 0
2, 18631, Note_on_c, 0, 76, 44
2, 18648, Note_on_c, 0, 70, 0
2, 18648, Note_on_c, 0, 82, 0
2, 18648, Note_on_c, 0, 43, 0
2, 18663, Note_on_c, 0, 55, 0
2, 18692, Note_on_c, 0, 58, 50
2, 18692, Note_on_c, 0, 60, 49
2, 18692, Note_on_c, 0, 64, 50
2, 18692, Note_on_c, 0, 79, 44
2, 18694, Note_on_c, 0, 76, 0
2, 18708, Control_c, 0, 64, 0
2, 18749, Note_on_c, 0, 70, 43
2, 18750, Note_on_c, 0, 76, 49
2, 18765, Note_on_c, 0, 81, 48
2, 18766, Note_on_c, 0, 58, 0
2, 18767, Note_on_c, 0, 79, 0
2, 18780, Note_on_c, 0, 60, 0
2, 18795, Note_on_c, 0, 64, 0
2, 18810, Note_on_c, 0, 36, 45
2, 18810, Note_on_c, 0, 48, 45
2, 18812, Note_on_c, 0, 76, 0
2, 18873, Note_on_c, 0, 76, 42
2, 18889, Note_on_c, 0, 36, 0
2, 18889, Note_on_c, 0, 48, 0
2, 18889, Note_on_c, 0, 70, 0
2, 18889, Note_on_c, 0, 81, 0
2, 18936, Note_on_c, 0, 58, 42
2, 18936, Note_on_c, 0, 60, 48
2, 18936, Note_on_c, 0, 64, 43
2, 18936, Note_on_c, 0, 67, 48
2, 18936, Note_on_c, 0, 79, 49
2, 18937, Note_on_c, 0, 70, 48
2, 18970, Note_on_c, 0, 76, 0
2, 18999, Note_on_c, 0, 67, 0
2, 18999, Note_on_c, 0, 60, 0
2, 18999, Note_on_c, 0, 64, 0
2, 18999, Note_on_c, 0, 58, 0
2, 18999, Note_on_c, 0, 79, 0
2, 19000, Note_on_c, 0, 70, 0
2, 19055, Note_on_c, 0, 52, 43
2, 19055, Note_on_c, 0, 55, 46
2, 19055, Note_on_c, 0, 67, 44
2, 19055, Control_c, 0, 67, 127
2, 19056, Note_on_c, 0, 40, 47
2, 19070, Control_c, 0, 64, 127
2, 19112, Note_on_c, 0, 66, 44
2, 19113, Note_on_c, 0, 54, 44
2, 19114, Note_on_c, 0, 40, 0
2, 19114, Note_on_c, 0, 67, 0
2, 19128, Note_on_c, 0, 52, 0
2, 19128, Note_on_c, 0, 55, 0
2, 19157, Control_c, 0, 64, 0
2, 19170, Note_on_c, 0, 55, 45
2, 19170, Note_on_c, 0, 58, 41
2, 19170, Note_on_c, 0, 60, 45
2, 19170, Note_on_c, 0, 64, 42
2, 19170, Note_on_c, 0, 67, 44
2, 19186, Note_on_c, 0, 54, 0
2, 19186, Note_on_c, 0, 66, 0
2, 19228, Note_on_c, 0, 62, 45
2, 19228, Note_on_c, 0, 74, 47
2, 19229, Note_on_c, 0, 60, 0
2, 19230, Note_on_c, 0, 58, 0
2, 19244, Note_on_c, 0, 55, 0
2, 19245, Note_on_c, 0, 67, 0
2, 19258, Note_on_c, 0, 64, 0
2, 19285, Note_on_c, 0, 36, 45
2, 19285, Note_on_c, 0, 48, 42
2, 19288, Control_c, 0, 67, 0
2, 19316, Note_on_c, 0, 62, 0
2, 19330, Note_on_c, 0, 74, 0
2, 19342, Note_on_c, 0, 60, 48
2, 19342, Note_on_c, 0, 72, 41
2, 19344, Note_on_c, 0, 36, 0
2, 19358, Note_on_c, 0, 60, 0
2, 19359, Note_on_c, 0, 48, 0
2, 19402, Note_on_c, 0, 67, 42
2, 19403, Note_on_c, 0, 55, 44
2, 19403, Note_on_c, 0, 58, 46
2, 19403, Note_on_c, 0, 60, 43
2, 19403, Note_on_c, 0, 64, 48
2, 19418, Note_on_c, 0, 72, 0
2, 19464, Note_on_c, 0, 60, 0
2, 19464, Note_on_c, 0, 67, 0
2, 19464, Note_on_c, 0, 64, 0
2, 19464, Note_on_c, 0, 56, 46
2, 19464, Note_on_c, 0, 68, 41
2, 19465, Note_on_c, 0, 58, 0
2, 19479, Note_on_c, 0, 55, 0
2, 19522, Note_on_c, 0, 41, 41
2, 19522, Note_on_c, 0, 53, 43
2, 19522, Note_on_c, 0, 57, 41
2, 19522, Note_on_c, 0, 69, 48
2, 19538, Note_on_c, 0, 56, 0
2, 19538, Note_on_c, 0, 68, 0
2, 19566, Control_c, 0, 64, 127
2, 19568, Note_on_c, 0, 57, 0
2, 19581, Note_on_c, 0, 48, 45
2, 19583, Note_on_c, 0, 53, 0
2, 19583, Note_on_c, 0, 69, 0
2, 19597, Note_on_c, 0, 41, 0
2, 19639, Note_on_c, 0, 50, 42
2, 19639, Note_on_c, 0, 57, 46
2, 19639, Note_on_c, 0, 60, 42
2, 19640, Note_on_c, 0, 62, 45
2, 19641, Note_on_c, 0, 48, 0
2, 19641, Control_c, 0, 64, 0
2, 19698, Note_on_c, 0, 51, 45
2, 19698, Note_on_c, 0, 63, 48
2, 19700, Note_on_c, 0, 60, 0
2, 19700, Note_on_c, 0, 62, 0
2, 19700, Note_on_c, 0, 50, 0
2, 19700, Note_on_c, 0, 57, 0
2, 19759, Note_on_c, 0, 36, 46
2, 19759, Note_on_c, 0, 48, 47
2, 19760, Note_on_c, 0, 52, 47
2, 19760, Note_on_c, 0, 64, 46
2, 19776, Note_on_c, 0, 63, 0
2, 19792, Note_on_c, 0, 51, 0
2, 19818, Note_on_c, 0, 65, 45
2, 19819, Note_on_c, 0, 53, 41
2, 19820, Note_on_c, 0, 64, 0
2, 19835, Note_on_c, 0, 36, 0
2, 19835, Note_on_c, 0, 48, 0
2, 19835, Note_on_c, 0, 52, 0
2, 19876, Note_on_c, 0, 55, 45
2, 19876, Note_on_c, 0, 60, 42
2, 19876, Note_on_c, 0, 64, 47
2, 19876, Note_on_c, 0, 67, 42
2, 19877, Note_on_c, 0, 58, 43
2, 19893, Note_on_c, 0, 53, 0
2, 19908, Note_on_c, 0, 65, 0
2, 19936, Note_on_c, 0, 56, 43
2, 19936, Note_on_c, 0, 68, 45
2, 19952, Note_on_c, 0, 55, 0
2, 19952, Note_on_c, 0, 60, 0
2, 19952, Note_on_c, 0, 67, 0
2, 19953, Note_on_c, 0, 58, 0
2, 19968, Note_on_c, 0, 64, 0
2, 19996, Note_on_c, 0, 41, 44
2, 19997, Note_on_c, 0, 53, 45
2, 19997, Note_on_c, 0, 57, 42
2, 19998, Note_on_c, 0, 69, 48
2, 19999, Note_on_c, 0, 56, 0
2, 19999, Note_on_c, 0, 68, 0
2, 20028, Control_c, 0, 64, 127
2, 20058, Note_on_c, 0, 56, 48
2, 20058, Note_on_c, 0, 68, 46
2, 20060, Note_on_c, 0, 57, 0
2, 20060, Note_on_c, 0, 53, 0
2, 20060, Note_on_c, 0, 41, 0
2, 20061, Note_on_c, 0, 69, 0
2, 20116, Note_on_c, 0, 65, 41
2, 20117, Note_on_c, 0, 57, 41
2, 20117, Note_on_c, 0, 60, 46
2, 20134, Note_on_c, 0, 56, 0
2, 20134, Note_on_c, 0, 68, 0
2, 20134, Control_c, 0, 64, 0
2, 20178, Note_on_c, 0, 67, 59
2, 20178, Note_on_c, 0, 72, 54
2, 20178, Note_on_c, 0, 79, 55
2, 20179, Note_on_c, 0, 69, 55
2, 20180, Note_on_c, 0, 57, 0
2, 20195, Note_on_c, 0, 60, 0
2, 20195, Note_on_c, 0, 65, 0
2, 20240, Note_on_c, 0, 36, 47
2, 20241, Note_on_c, 0, 48, 44
2, 20288, Note_on_c, 0, 72, 0
2, 20288, Note_on_c, 0, 67, 0
2, 20288, Note_on_c, 0, 79, 0
2, 20289, Note_on_c, 0, 69, 0
2, 20303, Note_on_c, 0, 65, 45
2, 20303, Note_on_c, 0, 77, 41
2, 20319, Note_on_c, 0, 65, 0
2, 20320, Note_on_c, 0, 36, 0
2, 20335, Note_on_c, 0, 48, 0
2, 20362, Note_on_c, 0, 65, 42
2, 20362, Note_on_c, 0, 67, 42
2, 20363, Note_on_c, 0, 60, 45
2, 20378, Note_on_c, 0, 77, 0
2, 20422, Note_on_c, 0, 69, 48
2, 20423, Note_on_c, 0, 65, 0
2, 20423, Note_on_c, 0, 60, 0
2, 20423, Note_on_c, 0, 67, 0
2, 20423, Note_on_c, 0, 57, 48
2, 20485, Note_on_c, 0, 43, 44
2, 20485, Note_on_c, 0, 55, 47
2, 20485, Note_on_c, 0, 58, 44
2, 20485, Note_on_c, 0, 70, 44
2, 20500, Control_c, 0, 64, 127
2, 20500, Control_c, 0, 67, 127
2, 20501, Note_on_c, 0, 57, 0
2, 20501, Note_on_c, 0, 69, 0
2, 20548, Note_on_c, 0, 72, 64
2, 20548, Note_on_c, 0, 84, 62
2, 20565, Note_on_c, 0, 58, 0
2, 20566, Note_on_c, 0, 70, 0
2, 20580, Note_on_c, 0, 55, 0
2, 20581, Note_on_c, 0, 43, 0
2, 20609, Note_on_c, 0, 60, 49
2, 20610, Note_on_c, 0, 58, 51
2, 20610, Note_on_c, 0, 64, 49
2, 20610, Note_on_c, 0, 70, 46
2, 20610, Note_on_c, 0, 82, 45
2, 20626, Note_on_c, 0, 84, 0
2, 20641, Note_on_c, 0, 72, 0
2, 20658, Control_c, 0, 67, 0
2, 20669, Note_on_c, 0, 67, 44
2, 20670, Note_on_c, 0, 79, 44
2, 20686, Note_on_c, 0, 58, 0
2, 20686, Note_on_c, 0, 60, 0
2, 20687, Note_on_c, 0, 70, 0
2, 20687, Note_on_c, 0, 64, 0
2, 20687, Note_on_c, 0, 82, 0
2, 20687, Control_c, 0, 64, 0
2, 20730, Note_on_c, 0, 36, 49
2, 20731, Note_on_c, 0, 64, 49
2, 20732, Note_on_c, 0, 48, 48
2, 20732, Note_on_c, 0, 76, 46
2, 20748, Note_on_c, 0, 76, 0
2, 20748, Note_on_c, 0, 67, 0
2, 20748, Note_on_c, 0, 79, 0
2, 20795, Note_on_c, 0, 72, 45
2, 20795, Note_on_c, 0, 84, 43
2, 20796, Note_on_c, 0, 76, 42
2, 20796, Note_on_c, 0, 82, 41
2, 20827, Note_on_c, 0, 36, 0
2, 20828, Note_on_c, 0, 48, 0
2, 20836, Note_on_c, 0, 64, 0
2, 20856, Note_on_c, 0, 60, 49
2, 20857, Note_on_c, 0, 58, 47
2, 20857, Note_on_c, 0, 64, 54
2, 20919, Note_on_c, 0, 58, 0
2, 20919, Note_on_c, 0, 60, 0
2, 20920, Note_on_c, 0, 84, 0
2, 20920, Note_on_c, 0, 82, 0
2, 20934, Note_on_c, 0, 72, 0
2, 20934, Note_on_c, 0, 76, 0
2, 20934, Note_on_c, 0, 64, 0
2, 20977, Control_c, 0, 64, 127
2, 20978, Note_on_c, 0, 43, 48
2, 20978, Note_on_c, 0, 55, 47
2, 20978, Note_on_c, 0, 58, 50
2, 20978, Note_on_c, 0, 70, 41
2, 21043, Note_on_c, 0, 57, 48
2, 21043, Note_on_c, 0, 69, 44
2, 21059, Note_on_c, 0, 55, 0
2, 21060, Note_on_c, 0, 70, 0
2, 21060, Note_on_c, 0, 43, 0
2, 21060, Note_on_c, 0, 58, 0
2, 21105, Note_on_c, 0, 58, 48
2, 21105, Note_on_c, 0, 60, 51
2, 21105, Note_on_c, 0, 64, 54
2, 21106, Note_on_c, 0, 70, 47
2, 21107, Note_on_c, 0, 57, 0
2, 21107, Control_c, 0, 64, 0
2, 21123, Note_on_c, 0, 69, 0
2, 21123, Note_on_c, 0, 70, 0
2, 21169, Note_on_c, 0, 70, 66
2, 21170, Note_on_c, 0, 76, 63
2, 21170, Note_on_c, 0, 81, 63
2, 21171, Note_on_c, 0, 60, 0
2, 21171, Note_on_c, 0, 58, 0
2, 21171, Note_on_c, 0, 64, 0
2, 21229, Note_on_c, 0, 36, 54
2, 21230, Note_on_c, 0, 48, 51
2, 21290, Note_on_c, 0, 67, 48
2, 21291, Note_on_c, 0, 79, 42
2, 21308, Note_on_c, 0, 70, 0
2, 21308, Note_on_c, 0, 81, 0
2, 21310, Note_on_c, 0, 76, 0
2, 21321, Note_on_c, 0, 36, 0
2, 21322, Note_on_c, 0, 48, 0
2, 21352, Note_on_c, 0, 58, 52
2, 21352, Note_on_c, 0, 64, 51
2, 21352, Note_on_c, 0, 76, 44
2, 21353, Note_on_c, 0, 67, 0
2, 21353, Note_on_c, 0, 79, 0
2, 21411, Note_on_c, 0, 60, 53
2, 21412, Note_on_c, 0, 72, 46
2, 21413, Note_on_c, 0, 58, 0
2, 21429, Note_on_c, 0, 76, 0
2, 21429, Note_on_c, 0, 64, 0
2, 21472, Control_c, 0, 64, 127
2, 21472, Note_on_c, 0, 41, 50
2, 21472, Note_on_c, 0, 57, 51
2, 21472, Note_on_c, 0, 69, 49
2, 21486, Note_on_c, 0, 53, 52
2, 21487, Note_on_c, 0, 60, 0
2, 21487, Note_on_c, 0, 72, 0
2, 21517, Note_on_c, 0, 41, 0
2, 21518, Note_on_c, 0, 57, 0
2, 21518, Note_on_c, 0, 69, 0
2, 21530, Note_on_c, 0, 72, 59
2, 21530, Note_on_c, 0, 84, 54
2, 21532, Note_on_c, 0, 53, 0
2, 21591, Note_on_c, 0, 57, 51
2, 21591, Note_on_c, 0, 60, 52
2, 21591, Note_on_c, 0, 65, 44
2, 21591, Note_on_c, 0, 69, 47
2, 21591, Note_on_c, 0, 81, 44
2, 21607, Note_on_c, 0, 84, 0
2, 21607, Control_c, 0, 64, 0
2, 21623, Note_on_c, 0, 72, 0
2, 21651, Note_on_c, 0, 77, 45
2, 21652, Note_on_c, 0, 57, 0
2, 21667, Note_on_c, 0, 60, 0
2, 21668, Note_on_c, 0, 69, 0
2, 21683, Note_on_c, 0, 81, 0
2, 21708, Note_on_c, 0, 36, 53
2, 21709, Note_on_c, 0, 48, 51
2, 21710, Note_on_c, 0, 62, 52
2, 21710, Note_on_c, 0, 74, 50
2, 21725, Note_on_c, 0, 65, 0
2, 21725, Note_on_c, 0, 77, 0
2, 21768, Note_on_c, 0, 72, 43
2, 21784, Note_on_c, 0, 62, 0
2, 21800, Note_on_c, 0, 74, 0
2, 21827, Note_on_c, 0, 60, 50
2, 21828, Note_on_c, 0, 57, 57
2, 21828, Note_on_c, 0, 65, 45
2, 21876, Note_on_c, 0, 65, 0
2, 21876, Note_on_c, 0, 60, 0
2, 21876, Note_on_c, 0, 57, 0
2, 21907, Note_on_c, 0, 72, 0
2, 21908, Note_on_c, 0, 36, 0
2, 21954, Note_on_c, 0, 41, 51
2, 21954, Note_on_c, 0, 53, 50
2, 21954, Note_on_c, 0, 57, 55
2, 21954, Note_on_c, 0, 69, 45
2, 21968, Control_c, 0, 64, 127
2, 21970, Note_on_c, 0, 48, 0
2, 22012, Note_on_c, 0, 56, 50
2, 22012, Note_on_c, 0, 68, 45
2, 22029, Note_on_c, 0, 57, 0
2, 22029, Note_on_c, 0, 69, 0
2, 22029, Note_on_c, 0, 41, 0
2, 22029, Note_on_c, 0, 53, 0
2, 22057, Control_c, 0, 64, 0
2, 22069, Note_on_c, 0, 57, 53
2, 22069, Note_on_c, 0, 60, 52
2, 22070, Note_on_c, 0, 65, 49
2, 22072, Note_on_c, 0, 68, 0
2, 22072, Note_on_c, 0, 56, 0
2, 22130, Note_on_c, 0, 72, 63
2, 22131, Note_on_c, 0, 69, 68
2, 22131, Note_on_c, 0, 79, 63
2, 22132, Note_on_c, 0, 60, 0
2, 22132, Note_on_c, 0, 57, 0
2, 22133, Note_on_c, 0, 65, 0
2, 22195, Note_on_c, 0, 36, 55
2, 22196, Note_on_c, 0, 48, 52
2, 22257, Note_on_c, 0, 65, 43
2, 22258, Note_on_c, 0, 77, 48
2, 22260, Note_on_c, 0, 72, 0
2, 22260, Note_on_c, 0, 69, 0
2, 22260, Note_on_c, 0, 79, 0
2, 22275, Note_on_c, 0, 36, 0
2, 22288, Note_on_c, 0, 48, 0
2, 22318, Note_on_c, 0, 57, 56
2, 22318, Note_on_c, 0, 60, 55
2, 22318, Note_on_c, 0, 72, 44
2, 22337, Note_on_c, 0, 77, 0
2, 22383, Note_on_c, 0, 69, 48
2, 22399, Note_on_c, 0, 60, 0
2, 22415, Note_on_c, 0, 72, 0
2, 22415, Note_on_c, 0, 65, 0
2, 22444, Note_on_c, 0, 42, 49
2, 22445, Note_on_c, 0, 54, 49
2, 22445, Note_on_c, 0, 74, 42
2, 22446, Note_on_c, 0, 57, 0
2, 22446, Note_on_c, 0, 69, 0
2, 22460, Control_c, 0, 64, 127
2, 22507, Note_on_c, 0, 78, 44
2, 22509, Note_on_c, 0, 54, 0
2, 22509, Note_on_c, 0, 42, 0
2, 22524, Note_on_c, 0, 74, 0
2, 22564, Note_on_c, 0, 60, 48
2, 22564, Note_on_c, 0, 81, 52
2, 22565, Note_on_c, 0, 57, 52
2, 22565, Note_on_c, 0, 62, 55
2, 22581, Note_on_c, 0, 78, 0
2, 22621, Note_on_c, 0, 74, 60
2, 22621, Note_on_c, 0, 86, 66
2, 22623, Control_c, 0, 64, 0
2, 22636, Note_on_c, 0, 60, 0
2, 22637, Note_on_c, 0, 57, 0
2, 22653, Note_on_c, 0, 62, 0
2, 22653, Note_on_c, 0, 81, 0
2, 22680, Note_on_c, 0, 38, 53
2, 22680, Note_on_c, 0, 50, 47
2, 22729, Note_on_c, 0, 86, 0
2, 22744, Note_on_c, 0, 84, 47
2, 22746, Note_on_c, 0, 74, 0
2, 22759, Note_on_c, 0, 50, 0
2, 22759, Note_on_c, 0, 38, 0
2, 22807, Note_on_c, 0, 57, 48
2, 22807, Note_on_c, 0, 60, 50
2, 22807, Note_on_c, 0, 81, 46
2, 22808, Note_on_c, 0, 62, 51
2, 22809, Note_on_c, 0, 84, 0
2, 22867, Note_on_c, 0, 78, 47
2, 22869, Note_on_c, 0, 81, 0
2, 22869, Note_on_c, 0, 62, 0
2, 22869, Note_on_c, 0, 57, 0
2, 22869, Note_on_c, 0, 60, 0
2, 22925, Note_on_c, 0, 42, 49
2, 22926, Control_c, 0, 64, 127
2, 22926, Note_on_c, 0, 54, 51
2, 22926, Note_on_c, 0, 74, 48
2, 22943, Note_on_c, 0, 78, 0
2, 22987, Note_on_c, 0, 78, 46
2, 22988, Note_on_c, 0, 54, 0
2, 22989, Note_on_c, 0, 42, 0
2, 23003, Note_on_c, 0, 74, 0
2, 23047, Note_on_c, 0, 57, 47
2, 23047, Note_on_c, 0, 60, 49
2, 23048, Note_on_c, 0, 62, 49
2, 23063, Note_on_c, 0, 81, 54
2, 23064, Note_on_c, 0, 78, 0
2, 23106, Note_on_c, 0, 74, 60
2, 23107, Note_on_c, 0, 86, 59
2, 23108, Note_on_c, 0, 60, 0
2, 23117, Note_on_c, 0, 57, 0
2, 23122, Note_on_c, 0, 62, 0
2, 23122, Note_on_c, 0, 81, 0
2, 23161, Note_on_c, 0, 38, 50
2, 23161, Note_on_c, 0, 50, 49
2, 23163, Control_c, 0, 64, 0
2, 23209, Note_on_c, 0, 86, 0
2, 23222, Note_on_c, 0, 84, 46
2, 23224, Note_on_c, 0, 74, 0
2, 23238, Note_on_c, 0, 50, 0
2, 23238, Note_on_c, 0, 38, 0
2, 23284, Note_on_c, 0, 57, 48
2, 23284, Note_on_c, 0, 60, 49
2, 23285, Note_on_c, 0, 62, 50
2, 23302, Note_on_c, 0, 84, 0
2, 23303, Note_on_c, 0, 81, 48
2, 23346, Note_on_c, 0, 78, 46
2, 23362, Note_on_c, 0, 60, 0
2, 23363, Note_on_c, 0, 62, 0
2, 23363, Note_on_c, 0, 57, 0
2, 23378, Note_on_c, 0, 81, 0
2, 23404, Note_on_c, 0, 42, 65
2, 23404, Note_on_c, 0, 54, 65
2, 23405, Note_on_c, 0, 74, 65
2, 23424, Note_on_c, 0, 78, 0
2, 23466, Control_c, 0, 64, 127
2, 23467, Note_on_c, 0, 73, 58
2, 23469, Note_on_c, 0, 42, 0
2, 23469, Note_on_c, 0, 74, 0
2, 23469, Note_on_c, 0, 54, 0
2, 23531, Note_on_c, 0, 57, 59
2, 23531, Note_on_c, 0, 60, 60
2, 23531, Note_on_c, 0, 62, 65
2, 23532, Note_on_c, 0, 74, 53
2, 23550, Note_on_c, 0, 73, 0
2, 23566, Control_c, 0, 64, 0
2, 23599, Note_on_c, 0, 57, 0
2, 23599, Note_on_c, 0, 75, 58
2, 23615, Note_on_c, 0, 60, 0
2, 23616, Note_on_c, 0, 74, 0
2, 23616, Note_on_c, 0, 62, 0
2, 23659, Note_on_c, 0, 38, 62
2, 23659, Note_on_c, 0, 50, 65
2, 23660, Note_on_c, 0, 74, 59
2, 23662, Note_on_c, 0, 75, 0
2, 23721, Note_on_c, 0, 72, 55
2, 23737, Note_on_c, 0, 38, 0
2, 23737, Note_on_c, 0, 50, 0
2, 23754, Note_on_c, 0, 74, 0
2, 23782, Note_on_c, 0, 57, 61
2, 23782, Note_on_c, 0, 60, 64
2, 23783, Note_on_c, 0, 62, 63
2, 23783, Note_on_c, 0, 70, 57
2, 23784, Note_on_c, 0, 72, 0
2, 23847, Note_on_c, 0, 69, 53
2, 23848, Note_on_c, 0, 62, 0
2, 23848, Note_on_c, 0, 70, 0
2, 23848, Note_on_c, 0, 57, 0
2, 23848, Note_on_c, 0, 60, 0
2, 23909, Note_on_c, 0, 43, 64
2, 23909, Note_on_c, 0, 55, 59
2, 23910, Note_on_c, 0, 70, 58
2, 23928, Note_on_c, 0, 69, 0
2, 23941, Control_c, 0, 64, 127
2, 23976, Note_on_c, 0, 67, 60
2, 23977, Note_on_c, 0, 70, 0
2, 23991, Note_on_c, 0, 55, 0
2, 23992, Note_on_c, 0, 43, 0
2, 24024, Control_c, 0, 64, 0
2, 24038, Note_on_c, 0, 58, 60
2, 24039, Note_on_c, 0, 62, 63
2, 24040, Note_on_c, 0, 67, 0
2, 24040, Note_on_c, 0, 70, 57
2, 24107, Note_on_c, 0, 62, 0
2, 24107, Note_on_c, 0, 58, 0
2, 24108, Note_on_c, 0, 74, 55
2, 24109, Note_on_c, 0, 70, 0
2, 24127, Control_c, 0, 64, 127
2, 24173, Note_on_c, 0, 62, 65
2, 24174, Note_on_c, 0, 58, 61
2, 24174, Note_on_c, 0, 67, 65
2, 24175, Note_on_c, 0, 70, 70
2, 24175, Note_on_c, 0, 79, 70
2, 24266, Control_c, 0, 64, 0
2, 24298, Note_on_c, 0, 67, 0
2, 24299, Note_on_c, 0, 70, 0
2, 24299, Note_on_c, 0, 74, 0
2, 24299, Note_on_c, 0, 79, 0
2, 24346, Note_on_c, 0, 62, 0
2, 24347, Note_on_c, 0, 58, 0
2, 24429, Control_c, 0, 64, 127
2, 24430, Note_on_c, 0, 46, 51
2, 24430, Note_on_c, 0, 58, 53
2, 24431, Note_on_c, 0, 74, 51
2, 24492, Note_on_c, 0, 73, 53
2, 24497, Note_on_c, 0, 74, 0
2, 24509, Control_c, 0, 67, 127
2, 24510, Note_on_c, 0, 46, 0
2, 24510, Note_on_c, 0, 58, 0
2, 24554, Note_on_c, 0, 58, 52
2, 24554, Note_on_c, 0, 62, 48
2, 24554, Note_on_c, 0, 65, 48
2, 24554, Note_on_c, 0, 74, 47
2, 24555, Note_on_c, 0, 67, 50
2, 24558, Note_on_c, 0, 73, 0
2, 24600, Control_c, 0, 64, 0
2, 24615, Note_on_c, 0, 81, 64
2, 24617, Note_on_c, 0, 62, 0
2, 24617, Note_on_c, 0, 58, 0
2, 24617, Note_on_c, 0, 67, 0
2, 24618, Note_on_c, 0, 65, 0
2, 24618, Note_on_c, 0, 74, 0
2, 24679, Note_on_c, 0, 46, 50
2, 24679, Note_on_c, 0, 58, 51
2, 24680, Note_on_c, 0, 81, 0
2, 24743, Note_on_c, 0, 79, 48
2, 24802, Note_on_c, 0, 59, 53
2, 24803, Note_on_c, 0, 47, 49
2, 24803, Note_on_c, 0, 77, 51
2, 24819, Note_on_c, 0, 58, 0
2, 24820, Note_on_c, 0, 79, 0
2, 24822, Control_c, 0, 67, 0
2, 24850, Note_on_c, 0, 46, 0
2, 24862, Note_on_c, 0, 74, 50
2, 24881, Note_on_c, 0, 77, 0
2, 24927, Control_c, 0, 64, 127
2, 24928, Note_on_c, 0, 48, 50
2, 24928, Note_on_c, 0, 60, 47
2, 24929, Note_on_c, 0, 59, 0
2, 24929, Note_on_c, 0, 69, 47
2, 24930, Note_on_c, 0, 47, 0
2, 24944, Note_on_c, 0, 74, 0
2, 24992, Note_on_c, 0, 68, 51
2, 24994, Note_on_c, 0, 69, 0
2, 25008, Note_on_c, 0, 60, 0
2, 25050, Note_on_c, 0, 57, 52
2, 25050, Note_on_c, 0, 60, 52
2, 25051, Note_on_c, 0, 65, 48
2, 25051, Note_on_c, 0, 69, 50
2, 25056, Note_on_c, 0, 68, 0
2, 25082, Control_c, 0, 64, 0
2, 25097, Note_on_c, 0, 48, 0
2, 25110, Note_on_c, 0, 74, 54
2, 25112, Note_on_c, 0, 65, 0
2, 25112, Note_on_c, 0, 57, 0
2, 25112, Note_on_c, 0, 60, 0
2, 25112, Note_on_c, 0, 69, 0
2, 25170, Note_on_c, 0, 36, 53
2, 25170, Note_on_c, 0, 48, 48
2, 25236, Note_on_c, 0, 72, 50
2, 25237, Note_on_c, 0, 74, 0
2, 25269, Note_on_c, 0, 36, 0
2, 25270, Note_on_c, 0, 48, 0
2, 25282, Note_on_c, 0, 65, 47
2, 25301, Note_on_c, 0, 57, 53
2, 25301, Note_on_c, 0, 60, 51
2, 25318, Note_on_c, 0, 72, 0
2, 25363, Note_on_c, 0, 66, 54
2, 25365, Note_on_c, 0, 60, 0
2, 25366, Note_on_c, 0, 65, 0
2, 25366, Note_on_c, 0, 57, 0
2, 25423, Note_on_c, 0, 40, 49
2, 25423, Note_on_c, 0, 52, 53
2, 25423, Note_on_c, 0, 67, 54
2, 25440, Note_on_c, 0, 66, 0
2, 25451, Control_c, 0, 64, 127
2, 25484, Note_on_c, 0, 72, 47
2, 25487, Note_on_c, 0, 40, 0
2, 25487, Note_on_c, 0, 67, 0
2, 25502, Note_on_c, 0, 52, 0
2, 25548, Note_on_c, 0, 58, 47
2, 25548, Note_on_c, 0, 60, 53
2, 25548, Note_on_c, 0, 64, 52
2, 25549, Control_c, 0, 64, 0
2, 25612, Note_on_c, 0, 66, 54
2, 25629, Note_on_c, 0, 60, 0
2, 25630, Note_on_c, 0, 72, 0
2, 25630, Note_on_c, 0, 58, 0
2, 25672, Note_on_c, 0, 48, 53
2, 25673, Note_on_c, 0, 36, 48
2, 25675, Note_on_c, 0, 64, 0
2, 25689, Note_on_c, 0, 66, 0
2, 25736, Note_on_c, 0, 67, 47
2, 25736, Note_on_c, 0, 70, 50
2, 25736, Note_on_c, 0, 79, 53
2, 25754, Note_on_c, 0, 36, 0
2, 25770, Note_on_c, 0, 48, 0
2, 25803, Note_on_c, 0, 58, 53
2, 25803, Note_on_c, 0, 60, 52
2, 25803, Note_on_c, 0, 64, 51
2, 25804, Note_on_c, 0, 79, 0
2, 25805, Note_on_c, 0, 70, 0
2, 25820, Note_on_c, 0, 67, 0
2, 25867, Note_on_c, 0, 65, 63
2, 25867, Note_on_c, 0, 69, 60
2, 25867, Note_on_c, 0, 77, 64
2, 25883, Note_on_c, 0, 58, 0
2, 25883, Note_on_c, 0, 60, 0
2, 25884, Note_on_c, 0, 64, 0
2, 25925, Note_on_c, 0, 53, 41
2, 25925, Note_on_c, 0, 57, 47
2, 25925, Note_on_c, 0, 60, 47
2, 25968, Control_c, 0, 64, 127
2, 25970, Note_on_c, 0, 57, 0
2, 25984, Note_on_c, 0, 60, 0
2, 25985, Note_on_c, 0, 53, 0
2, 25998, Note_on_c, 0, 69, 0
2, 25998, Note_on_c, 0, 77, 0
2, 25998, Note_on_c, 0, 65, 0
2, 26043, Note_on_c, 0, 72, 41
2, 26043, Note_on_c, 0, 84, 47
2, 26056, Control_c, 0, 67, 127
2, 26077, Control_c, 0, 64, 0
2, 26106, Note_on_c, 0, 74, 48
2, 26106, Note_on_c, 0, 86, 44
2, 26122, Note_on_c, 0, 84, 0
2, 26136, Note_on_c, 0, 72, 0
2, 26164, Note_on_c, 0, 88, 42
2, 26165, Note_on_c, 0, 76, 42
2, 26181, Note_on_c, 0, 74, 0
2, 26181, Note_on_c, 0, 86, 0
2, 26222, Note_on_c, 0, 89, 45
2, 26223, Note_on_c, 0, 77, 47
2, 26225, Note_on_c, 0, 88, 0
2, 26225, Note_on_c, 0, 76, 0
2, 26283, Note_on_c, 0, 79, 43
2, 26283, Note_on_c, 0, 91, 43
2, 26300, Note_on_c, 0, 89, 0
2, 26300, Note_on_c, 0, 77, 0
2, 26346, Note_on_c, 0, 93, 45
2, 26347, Note_on_c, 0, 81, 44
2, 26362, Note_on_c, 0, 79, 0
2, 26362, Note_on_c, 0, 91, 0
2, 26377, Control_c, 0, 67, 0
2, 26405, Note_on_c, 0, 43, 48
2, 26405, Note_on_c, 0, 55, 52
2, 26405, Note_on_c, 0, 82, 62
2, 26405, Note_on_c, 0, 94, 60
2, 26407, Note_on_c, 0, 93, 0
2, 26421, Note_on_c, 0, 81, 0
2, 26421, Control_c, 0, 64, 127
2, 26449, Note_on_c, 0, 82, 0
2, 26449, Note_on_c, 0, 94, 0
2, 26461, Note_on_c, 0, 88, 48
2, 26477, Note_on_c, 0, 55, 0
2, 26478, Note_on_c, 0, 43, 0
2, 26517, Note_on_c, 0, 60, 42
2, 26517, Note_on_c, 0, 91, 42
2, 26518, Note_on_c, 0, 58, 47
2, 26518, Note_on_c, 0, 64, 48
2, 26533, Note_on_c, 0, 88, 0
2, 26576, Note_on_c, 0, 82, 56
2, 26576, Note_on_c, 0, 88, 58
2, 26576, Note_on_c, 0, 93, 57
2, 26579, Note_on_c, 0, 91, 0
2, 26592, Note_on_c, 0, 64, 0
2, 26592, Note_on_c, 0, 60, 0
2, 26592, Note_on_c, 0, 58, 0
2, 26636, Note_on_c, 0, 36, 48
2, 26636, Note_on_c, 0, 48, 45
2, 26652, Note_on_c, 0, 88, 0
2, 26682, Note_on_c, 0, 93, 0
2, 26682, Note_on_c, 0, 82, 0
2, 26694, Note_on_c, 0, 88, 53
2, 26697, Control_c, 0, 64, 0
2, 26712, Note_on_c, 0, 36, 0
2, 26725, Note_on_c, 0, 48, 0
2, 26751, Note_on_c, 0, 60, 42
2, 26751, Note_on_c, 0, 64, 41
2, 26751, Note_on_c, 0, 82, 49
2, 26751, Note_on_c, 0, 91, 49
2, 26752, Note_on_c, 0, 58, 41
2, 26752, Note_on_c, 0, 79, 52
2, 26767, Note_on_c, 0, 88, 0
2, 26824, Note_on_c, 0, 91, 0
2, 26824, Note_on_c, 0, 60, 0
2, 26824, Note_on_c, 0, 79, 0
2, 26825, Note_on_c, 0, 82, 0
2, 26825, Note_on_c, 0, 58, 0
2, 26838, Note_on_c, 0, 64, 0
2, 26870, Note_on_c, 0, 67, 53
2, 26870, Note_on_c, 0, 79, 54
2, 26871, Note_on_c, 0, 40, 46
2, 26871, Note_on_c, 0, 52, 48
2, 26932, Note_on_c, 0, 66, 52
2, 26932, Note_on_c, 0, 78, 49
2, 26933, Note_on_c, 0, 79, 0
2, 26933, Note_on_c, 0, 67, 0
2, 26934, Note_on_c, 0, 40, 0
2, 26950, Note_on_c, 0, 52, 0
2, 26992, Note_on_c, 0, 60, 42
2, 26993, Note_on_c, 0, 58, 42
2, 26993, Note_on_c, 0, 64, 47
2, 26993, Note_on_c, 0, 67, 54
2, 26993, Note_on_c, 0, 79, 49
2, 27009, Note_on_c, 0, 66, 0
2, 27009, Note_on_c, 0, 78, 0
2, 27055, Note_on_c, 0, 74, 56
2, 27055, Note_on_c, 0, 86, 56
2, 27056, Note_on_c, 0, 60, 0
2, 27056, Note_on_c, 0, 67, 0
2, 27056, Note_on_c, 0, 58, 0
2, 27056, Note_on_c, 0, 64, 0
2, 27056, Note_on_c, 0, 79, 0
2, 27120, Note_on_c, 0, 36, 41
2, 27120, Note_on_c, 0, 48, 41
2, 27167, Note_on_c, 0, 86, 0
2, 27180, Note_on_c, 0, 72, 60
2, 27181, Note_on_c, 0, 84, 59
2, 27183, Note_on_c, 0, 74, 0
2, 27198, Note_on_c, 0, 36, 0
2, 27214, Note_on_c, 0, 48, 0
2, 27242, Note_on_c, 0, 60, 44
2, 27242, Note_on_c, 0, 64, 47
2, 27242, Note_on_c, 0, 79, 58
2, 27243, Note_on_c, 0, 58, 42
2, 27243, Note_on_c, 0, 67, 60
2, 27259, Note_on_c, 0, 84, 0
2, 27272, Note_on_c, 0, 72, 0
2, 27298, Note_on_c, 0, 68, 59
2, 27298, Note_on_c, 0, 80, 58
2, 27300, Note_on_c, 0, 58, 0
2, 27300, Note_on_c, 0, 64, 0
2, 27300, Note_on_c, 0, 79, 0
2, 27300, Note_on_c, 0, 67, 0
2, 27302, Note_on_c, 0, 60, 0
2, 27356, Note_on_c, 0, 81, 60
2, 27357, Note_on_c, 0, 41, 57
2, 27357, Note_on_c, 0, 53, 60
2, 27357, Note_on_c, 0, 69, 56
2, 27373, Note_on_c, 0, 80, 0
2, 27373, Note_on_c, 0, 68, 0
2, 27406, Control_c, 0, 64, 127
2, 27421, Note_on_c, 0, 72, 47
2, 27437, Note_on_c, 0, 81, 0
2, 27438, Note_on_c, 0, 69, 0
2, 27438, Note_on_c, 0, 41, 0
2, 27438, Note_on_c, 0, 53, 0
2, 27484, Note_on_c, 0, 57, 48
2, 27484, Note_on_c, 0, 60, 46
2, 27484, Note_on_c, 0, 62, 44
2, 27484, Note_on_c, 0, 74, 41
2, 27517, Note_on_c, 0, 72, 0
2, 27544, Note_on_c, 0, 63, 41
2, 27544, Note_on_c, 0, 75, 44
2, 27560, Note_on_c, 0, 62, 0
2, 27561, Note_on_c, 0, 57, 0
2, 27561, Note_on_c, 0, 60, 0
2, 27575, Note_on_c, 0, 74, 0
2, 27603, Note_on_c, 0, 76, 41
2, 27604, Note_on_c, 0, 36, 41
2, 27604, Note_on_c, 0, 48, 44
2, 27604, Note_on_c, 0, 64, 46
2, 27605, Note_on_c, 0, 63, 0
2, 27621, Note_on_c, 0, 75, 0
2, 27666, Note_on_c, 0, 65, 43
2, 27667, Note_on_c, 0, 77, 44
2, 27669, Note_on_c, 0, 64, 0
2, 27669, Control_c, 0, 64, 0
2, 27684, Note_on_c, 0, 76, 0
2, 27684, Note_on_c, 0, 36, 0
2, 27684, Note_on_c, 0, 48, 0
2, 27713, Control_c, 0, 64, 127
2, 27729, Note_on_c, 0, 58, 48
2, 27729, Note_on_c, 0, 60, 48
2, 27729, Note_on_c, 0, 64, 44
2, 27729, Note_on_c, 0, 67, 42
2, 27729, Note_on_c, 0, 79, 45
2, 27745, Note_on_c, 0, 77, 0
2, 27762, Note_on_c, 0, 65, 0
2, 27790, Note_on_c, 0, 80, 45
2, 27791, Note_on_c, 0, 68, 48
2, 27792, Note_on_c, 0, 58, 0
2, 27792, Note_on_c, 0, 67, 0
2, 27792, Note_on_c, 0, 64, 0
2, 27792, Note_on_c, 0, 79, 0
2, 27793, Note_on_c, 0, 60, 0
2, 27823, Control_c, 0, 64, 0
2, 27850, Note_on_c, 0, 41, 44
2, 27850, Note_on_c, 0, 53, 49
2, 27850, Note_on_c, 0, 69, 48
2, 27852, Note_on_c, 0, 80, 0
2, 27853, Note_on_c, 0, 68, 0
2, 27880, Note_on_c, 0, 81, 44
2, 27912, Note_on_c, 0, 80, 50
2, 27913, Note_on_c, 0, 68, 49
2, 27914, Note_on_c, 0, 69, 0
2, 27914, Note_on_c, 0, 41, 0
2, 27929, Note_on_c, 0, 81, 0
2, 27931, Note_on_c, 0, 53, 0
2, 27979, Note_on_c, 0, 57, 50
2, 27979, Note_on_c, 0, 60, 44
2, 27979, Note_on_c, 0, 65, 48
2, 27979, Note_on_c, 0, 69, 46
2, 27995, Note_on_c, 0, 68, 0
2, 27995, Note_on_c, 0, 80, 0
2, 28040, Note_on_c, 0, 91, 60
2, 28041, Note_on_c, 0, 81, 61
2, 28041, Note_on_c, 0, 84, 65
2, 28043, Note_on_c, 0, 57, 0
2, 28058, Note_on_c, 0, 69, 0
2, 28058, Note_on_c, 0, 60, 0
2, 28086, Note_on_c, 0, 65, 0
2, 28102, Note_on_c, 0, 36, 44
2, 28103, Note_on_c, 0, 48, 48
2, 28159, Note_on_c, 0, 89, 51
2, 28160, Note_on_c, 0, 77, 50
2, 28176, Note_on_c, 0, 84, 0
2, 28176, Note_on_c, 0, 91, 0
2, 28177, Note_on_c, 0, 36, 0
2, 28191, Note_on_c, 0, 81, 0
2, 28192, Note_on_c, 0, 48, 0
2, 28224, Note_on_c, 0, 60, 49
2, 28224, Note_on_c, 0, 65, 48
2, 28224, Note_on_c, 0, 79, 54
2, 28224, Note_on_c, 0, 57, 54
2, 28224, Note_on_c, 0, 67, 50
2, 28241, Note_on_c, 0, 77, 0
2, 28241, Note_on_c, 0, 89, 0
2, 28285, Note_on_c, 0, 69, 53
2, 28285, Note_on_c, 0, 81, 52
2, 28302, Note_on_c, 0, 60, 0
2, 28302, Note_on_c, 0, 65, 0
2, 28302, Note_on_c, 0, 79, 0
2, 28302, Note_on_c, 0, 67, 0
2, 28303, Note_on_c, 0, 57, 0
2, 28347, Note_on_c, 0, 55, 52
2, 28347, Note_on_c, 0, 70, 48
2, 28347, Note_on_c, 0, 82, 47
2, 28348, Note_on_c, 0, 43, 50
2, 28364, Note_on_c, 0, 69, 0
2, 28376, Control_c, 0, 64, 127
2, 28378, Note_on_c, 0, 81, 0
2, 28404, Note_on_c, 0, 84, 52
2, 28404, Note_on_c, 0, 96, 49
2, 28408, Note_on_c, 0, 82, 0
2, 28421, Note_on_c, 0, 55, 0
2, 28422, Note_on_c, 0, 43, 0
2, 28464, Note_on_c, 0, 60, 53
2, 28464, Note_on_c, 0, 58, 50
2, 28464, Note_on_c, 0, 94, 50
2, 28465, Note_on_c, 0, 64, 51
2, 28465, Note_on_c, 0, 82, 51
2, 28466, Note_on_c, 0, 70, 0
2, 28466, Note_on_c, 0, 84, 0
2, 28466, Note_on_c, 0, 96, 0
2, 28467, Control_c, 0, 64, 0
2, 28526, Note_on_c, 0, 79, 50
2, 28527, Note_on_c, 0, 91, 51
2, 28544, Note_on_c, 0, 60, 0
2, 28544, Note_on_c, 0, 82, 0
2, 28544, Note_on_c, 0, 58, 0
2, 28544, Note_on_c, 0, 94, 0
2, 28560, Note_on_c, 0, 64, 0
2, 28588, Note_on_c, 0, 88, 49
2, 28589, Note_on_c, 0, 36, 53
2, 28589, Note_on_c, 0, 48, 51
2, 28589, Note_on_c, 0, 76, 53
2, 28605, Note_on_c, 0, 79, 0
2, 28606, Note_on_c, 0, 91, 0
2, 28648, Note_on_c, 0, 96, 52
2, 28649, Note_on_c, 0, 84, 52
2, 28666, Note_on_c, 0, 88, 0
2, 28668, Note_on_c, 0, 36, 0
2, 28681, Note_on_c, 0, 76, 0
2, 28683, Note_on_c, 0, 48, 0
2, 28710, Note_on_c, 0, 58, 48
2, 28710, Note_on_c, 0, 60, 53
2, 28710, Note_on_c, 0, 64, 47
2, 28757, Note_on_c, 0, 96, 0
2, 28771, Control_c, 0, 67, 127
2, 28775, Note_on_c, 0, 60, 0
2, 28775, Note_on_c, 0, 84, 0
2, 28775, Note_on_c, 0, 58, 0
2, 28792, Note_on_c, 0, 64, 0
2, 28838, Note_on_c, 0, 82, 54
2, 28839, Control_c, 0, 64, 127
2, 28839, Note_on_c, 0, 43, 50
2, 28839, Note_on_c, 0, 55, 51
2, 28839, Note_on_c, 0, 70, 50
2, 28899, Note_on_c, 0, 69, 49
2, 28899, Note_on_c, 0, 81, 49
2, 28918, Note_on_c, 0, 70, 0
2, 28918, Note_on_c, 0, 82, 0
2, 28919, Note_on_c, 0, 43, 0
2, 28932, Note_on_c, 0, 55, 0
2, 28933, Control_c, 0, 64, 0
2, 28958, Note_on_c, 0, 60, 48
2, 28959, Note_on_c, 0, 58, 48
2, 28959, Note_on_c, 0, 64, 51
2, 28959, Note_on_c, 0, 70, 47
2, 28961, Control_c, 0, 67, 0
2, 28975, Note_on_c, 0, 69, 0
2, 28991, Note_on_c, 0, 81, 0
2, 29018, Note_on_c, 0, 82, 54
2, 29018, Note_on_c, 0, 88, 55
2, 29018, Note_on_c, 0, 93, 53
2, 29020, Note_on_c, 0, 58, 0
2, 29020, Note_on_c, 0, 70, 0
2, 29021, Note_on_c, 0, 60, 0
2, 29035, Note_on_c, 0, 64, 0
2, 29082, Note_on_c, 0, 36, 54
2, 29082, Note_on_c, 0, 48, 47
2, 29131, Note_on_c, 0, 88, 0
2, 29131, Note_on_c, 0, 82, 0
2, 29131, Note_on_c, 0, 93, 0
2, 29144, Note_on_c, 0, 79, 52
2, 29144, Note_on_c, 0, 91, 48
2, 29162, Note_on_c, 0, 48, 0
2, 29163, Note_on_c, 0, 36, 0
2, 29205, Note_on_c, 0, 88, 48
2, 29206, Note_on_c, 0, 58, 47
2, 29206, Note_on_c, 0, 60, 54
2, 29206, Note_on_c, 0, 64, 48
2, 29206, Note_on_c, 0, 76, 51
2, 29207, Note_on_c, 0, 79, 0
2, 29207, Note_on_c, 0, 91, 0
2, 29266, Note_on_c, 0, 72, 53
2, 29266, Note_on_c, 0, 84, 54
2, 29283, Note_on_c, 0, 60, 0
2, 29283, Note_on_c, 0, 88, 0
2, 29284, Note_on_c, 0, 58, 0
2, 29300, Note_on_c, 0, 76, 0
2, 29300, Note_on_c, 0, 64, 0
2, 29328, Note_on_c, 0, 69, 64
2, 29328, Note_on_c, 0, 81, 60
2, 29329, Note_on_c, 0, 41, 66
2, 29345, Note_on_c, 0, 84, 0
2, 29345, Note_on_c, 0, 72, 0
2, 29345, Control_c, 0, 64, 127
2, 29345, Note_on_c, 0, 53, 61
2, 29387, Note_on_c, 0, 84, 53
2, 29387, Note_on_c, 0, 96, 51
2, 29389, Note_on_c, 0, 81, 0
2, 29391, Note_on_c, 0, 53, 0
2, 29391, Note_on_c, 0, 41, 0
2, 29406, Control_c, 0, 64, 0
2, 29445, Note_on_c, 0, 93, 47
2, 29446, Note_on_c, 0, 57, 54
2, 29446, Note_on_c, 0, 60, 53
2, 29446, Note_on_c, 0, 65, 48
2, 29446, Note_on_c, 0, 81, 52
2, 29461, Note_on_c, 0, 84, 0
2, 29461, Note_on_c, 0, 96, 0
2, 29490, Note_on_c, 0, 69, 0
2, 29501, Note_on_c, 0, 77, 54
2, 29501, Note_on_c, 0, 89, 54
2, 29505, Note_on_c, 0, 57, 0
2, 29520, Note_on_c, 0, 93, 0
2, 29520, Note_on_c, 0, 65, 0
2, 29520, Note_on_c, 0, 60, 0
2, 29550, Note_on_c, 0, 81, 0
2, 29565, Note_on_c, 0, 36, 48
2, 29565, Note_on_c, 0, 48, 53
2, 29565, Note_on_c, 0, 74, 47
2, 29565, Note_on_c, 0, 86, 49
2, 29580, Note_on_c, 0, 89, 0
2, 29595, Note_on_c, 0, 77, 0
2, 29624, Note_on_c, 0, 72, 54
2, 29624, Note_on_c, 0, 84, 54
2, 29641, Note_on_c, 0, 86, 0
2, 29642, Note_on_c, 0, 36, 0
2, 29657, Note_on_c, 0, 48, 0
2, 29657, Note_on_c, 0, 74, 0
2, 29685, Note_on_c, 0, 57, 47
2, 29685, Note_on_c, 0, 60, 49
2, 29685, Note_on_c, 0, 65, 51
2, 29744, Note_on_c, 0, 65, 0
2, 29744, Note_on_c, 0, 84, 0
2, 29744, Note_on_c, 0, 60, 0
2, 29745, Note_on_c, 0, 57, 0
2, 29759, Note_on_c, 0, 72, 0
2, 29784, Control_c, 0, 67, 127
2, 29800, Note_on_c, 0, 41, 49
2, 29800, Note_on_c, 0, 53, 52
2, 29800, Note_on_c, 0, 69, 52
2, 29800, Note_on_c, 0, 81, 50
2, 29815, Control_c, 0, 64, 127
2, 29857, Note_on_c, 0, 68, 50
2, 29858, Note_on_c, 0, 80, 49
2, 29859, Note_on_c, 0, 69, 0
2, 29860, Note_on_c, 0, 41, 0
2, 29860, Note_on_c, 0, 53, 0
2, 29874, Note_on_c, 0, 81, 0
2, 29874, Control_c, 0, 67, 0
2, 29892, Control_c, 0, 64, 0
2, 29919, Note_on_c, 0, 60, 49
2, 29919, Note_on_c, 0, 81, 66
2, 29920, Note_on_c, 0, 57, 52
2, 29920, Note_on_c, 0, 65, 61
2, 29920, Note_on_c, 0, 69, 62
2, 29921, Note_on_c, 0, 68, 0
2, 29921, Note_on_c, 0, 80, 0
2, 29935, Note_on_c, 0, 81, 0
2, 29979, Note_on_c, 0, 81, 55
2, 29979, Note_on_c, 0, 84, 58
2, 29979, Note_on_c, 0, 91, 59
2, 29998, Note_on_c, 0, 57, 0
2, 29998, Note_on_c, 0, 60, 0
2, 29998, Note_on_c, 0, 65, 0
2, 29998, Note_on_c, 0, 69, 0
2, 30040, Note_on_c, 0, 36, 53
2, 30040, Note_on_c, 0, 48, 48
2, 30086, Note_on_c, 0, 91, 0
2, 30086, Note_on_c, 0, 84, 0
2, 30086, Note_on_c, 0, 81, 0
2, 30099, Note_on_c, 0, 77, 51
2, 30099, Note_on_c, 0, 89, 52
2, 30133, Note_on_c, 0, 36, 0
2, 30148, Note_on_c, 0, 48, 0
2, 30160, Note_on_c, 0, 60, 51
2, 30162, Note_on_c, 0, 65, 53
2, 30162, Note_on_c, 0, 84, 50
2, 30163, Note_on_c, 0, 57, 50
2, 30163, Note_on_c, 0, 72, 51
2, 30178, Note_on_c, 0, 77, 0
2, 30178, Note_on_c, 0, 89, 0
2, 30223, Note_on_c, 0, 69, 65
2, 30224, Note_on_c, 0, 57, 0
2, 30238, Note_on_c, 0, 81, 68
2, 30240, Note_on_c, 0, 72, 0
2, 30240, Note_on_c, 0, 65, 0
2, 30240, Note_on_c, 0, 84, 0
2, 30240, Note_on_c, 0, 60, 0
2, 30281, Note_on_c, 0, 86, 70
2, 30282, Note_on_c, 0, 74, 78
2, 30283, Note_on_c, 0, 42, 61
2, 30283, Note_on_c, 0, 54, 64
2, 30284, Note_on_c, 0, 69, 0
2, 30297, Note_on_c, 0, 81, 0
2, 30339, Note_on_c, 0, 78, 56
2, 30339, Note_on_c, 0, 90, 54
2, 30341, Note_on_c, 0, 86, 0
2, 30342, Note_on_c, 0, 54, 0
2, 30342, Note_on_c, 0, 74, 0
2, 30342, Note_on_c, 0, 42, 0
2, 30358, Control_c, 0, 64, 127
2, 30404, Note_on_c, 0, 57, 66
2, 30404, Note_on_c, 0, 60, 62
2, 30404, Note_on_c, 0, 62, 64
2, 30404, Note_on_c, 0, 81, 55
2, 30404, Note_on_c, 0, 93, 54
2, 30405, Note_on_c, 0, 90, 0
2, 30422, Note_on_c, 0, 78, 0
2, 30467, Note_on_c, 0, 98, 64
2, 30468, Note_on_c, 0, 86, 65
2, 30470, Note_on_c, 0, 57, 0
2, 30470, Note_on_c, 0, 60, 0
2, 30470, Note_on_c, 0, 62, 0
2, 30470, Note_on_c, 0, 93, 0
2, 30471, Control_c, 0, 64, 0
2, 30485, Note_on_c, 0, 81, 0
2, 30531, Note_on_c, 0, 38, 59
2, 30532, Note_on_c, 0, 50, 65
2, 30592, Note_on_c, 0, 84, 58
2, 30592, Note_on_c, 0, 96, 56
2, 30596, Note_on_c, 0, 86, 0
2, 30597, Note_on_c, 0, 50, 0
2, 30597, Note_on_c, 0, 98, 0
2, 30597, Note_on_c, 0, 38, 0
2, 30654, Note_on_c, 0, 57, 65
2, 30654, Note_on_c, 0, 60, 64
2, 30654, Note_on_c, 0, 81, 57
2, 30655, Note_on_c, 0, 93, 56
2, 30656, Note_on_c, 0, 84, 0
2, 30656, Note_on_c, 0, 62, 62
2, 30657, Note_on_c, 0, 96, 0
2, 30719, Note_on_c, 0, 78, 55
2, 30719, Note_on_c, 0, 90, 59
2, 30736, Note_on_c, 0, 93, 0
2, 30736, Note_on_c, 0, 57, 0
2, 30736, Note_on_c, 0, 60, 0
2, 30736, Note_on_c, 0, 62, 0
2, 30751, Note_on_c, 0, 81, 0
2, 30779, Note_on_c, 0, 86, 58
2, 30780, Note_on_c, 0, 42, 60
2, 30780, Note_on_c, 0, 54, 63
2, 30780, Note_on_c, 0, 74, 55
2, 30797, Note_on_c, 0, 78, 0
2, 30797, Note_on_c, 0, 90, 0
2, 30797, Control_c, 0, 64, 127
2, 30839, Note_on_c, 0, 78, 54
2, 30839, Note_on_c, 0, 90, 51
2, 30843, Note_on_c, 0, 54, 0
2, 30843, Note_on_c, 0, 42, 0
2, 30857, Note_on_c, 0, 86, 0
2, 30858, Note_on_c, 0, 74, 0
2, 30902, Note_on_c, 0, 81, 60
2, 30902, Note_on_c, 0, 93, 63
2, 30903, Note_on_c, 0, 57, 49
2, 30903, Note_on_c, 0, 60, 50
2, 30904, Note_on_c, 0, 78, 0
2, 30904, Note_on_c, 0, 90, 0
2, 30904, Note_on_c, 0, 62, 51
2, 30923, Control_c, 0, 64, 0
2, 30969, Note_on_c, 0, 86, 65
2, 30969, Note_on_c, 0, 98, 59
2, 30971, Note_on_c, 0, 62, 0
2, 30971, Note_on_c, 0, 57, 0
2, 30971, Note_on_c, 0, 93, 0
2, 30971, Note_on_c, 0, 60, 0
2, 30986, Note_on_c, 0, 81, 0
2, 31037, Note_on_c, 0, 38, 54
2, 31037, Note_on_c, 0, 50, 51
2, 31070, Note_on_c, 0, 98, 0
2, 31085, Note_on_c, 0, 86, 0
2, 31097, Note_on_c, 0, 96, 53
2, 31098, Note_on_c, 0, 84, 49
2, 31103, Note_on_c, 0, 38, 0
2, 31103, Note_on_c, 0, 50, 0
2, 31158, Note_on_c, 0, 81, 47
2, 31158, Note_on_c, 0, 93, 52
2, 31159, Note_on_c, 0, 57, 49
2, 31159, Note_on_c, 0, 60, 47
2, 31159, Note_on_c, 0, 62, 53
2, 31175, Note_on_c, 0, 96, 0
2, 31175, Note_on_c, 0, 84, 0
2, 31220, Note_on_c, 0, 78, 65
2, 31220, Note_on_c, 0, 90, 65
2, 31222, Note_on_c, 0, 60, 0
2, 31222, Note_on_c, 0, 57, 0
2, 31222, Note_on_c, 0, 62, 0
2, 31237, Note_on_c, 0, 93, 0
2, 31251, Note_on_c, 0, 81, 0
2, 31283, Note_on_c, 0, 74, 63
2, 31283, Note_on_c, 0, 86, 63
2, 31284, Note_on_c, 0, 42, 62
2, 31284, Note_on_c, 0, 54, 61
2, 31285, Note_on_c, 0, 78, 0
2, 31285, Note_on_c, 0, 90, 0
2, 31300, Control_c, 0, 64, 127
2, 31346, Note_on_c, 0, 73, 65
2, 31346, Note_on_c, 0, 85, 61
2, 31347, Note_on_c, 0, 86, 0
2, 31347, Note_on_c, 0, 74, 0
2, 31348, Note_on_c, 0, 54, 0
2, 31349, Note_on_c, 0, 42, 0
2, 31406, Note_on_c, 0, 74, 62
2, 31406, Note_on_c, 0, 86, 60
2, 31407, Note_on_c, 0, 60, 66
2, 31407, Note_on_c, 0, 62, 66
2, 31408, Note_on_c, 0, 57, 66
2, 31410, Control_c, 0, 64, 0
2, 31423, Note_on_c, 0, 85, 0
2, 31423, Note_on_c, 0, 73, 0
2, 31464, Note_on_c, 0, 75, 64
2, 31464, Note_on_c, 0, 87, 61
2, 31466, Note_on_c, 0, 62, 0
2, 31466, Note_on_c, 0, 60, 0
2, 31466, Note_on_c, 0, 57, 0
2, 31481, Note_on_c, 0, 74, 0
2, 31481, Note_on_c, 0, 86, 0
2, 31525, Note_on_c, 0, 74, 59
2, 31526, Note_on_c, 0, 86, 65
2, 31527, Note_on_c, 0, 38, 63
2, 31527, Note_on_c, 0, 50, 64
2, 31542, Note_on_c, 0, 75, 0
2, 31542, Note_on_c, 0, 87, 0
2, 31588, Note_on_c, 0, 84, 62
2, 31589, Note_on_c, 0, 72, 67
2, 31591, Note_on_c, 0, 50, 0
2, 31606, Note_on_c, 0, 74, 0
2, 31606, Note_on_c, 0, 86, 0
2, 31607, Note_on_c, 0, 38, 0
2, 31652, Note_on_c, 0, 57, 63
2, 31652, Note_on_c, 0, 60, 67
2, 31652, Note_on_c, 0, 62, 66
2, 31652, Note_on_c, 0, 70, 65
2, 31652, Note_on_c, 0, 82, 63
2, 31670, Note_on_c, 0, 84, 0
2, 31685, Note_on_c, 0, 72, 0
2, 31714, Note_on_c, 0, 69, 63
2, 31714, Note_on_c, 0, 81, 65
2, 31731, Note_on_c, 0, 60, 0
2, 31732, Note_on_c, 0, 57, 0
2, 31732, Note_on_c, 0, 70, 0
2, 31732, Note_on_c, 0, 62, 0
2, 31732, Note_on_c, 0, 82, 0
2, 31778, Note_on_c, 0, 70, 64
2, 31778, Note_on_c, 0, 82, 68
2, 31779, Control_c, 0, 64, 127
2, 31779, Note_on_c, 0, 43, 64
2, 31779, Note_on_c, 0, 55, 67
2, 31780, Note_on_c, 0, 69, 0
2, 31795, Note_on_c, 0, 81, 0
2, 31842, Note_on_c, 0, 67, 67
2, 31842, Note_on_c, 0, 79, 63
2, 31843, Note_on_c, 0, 82, 0
2, 31844, Note_on_c, 0, 43, 0
2, 31844, Note_on_c, 0, 70, 0
2, 31858, Note_on_c, 0, 55, 0
2, 31902, Note_on_c, 0, 62, 65
2, 31903, Note_on_c, 0, 58, 67
2, 31903, Note_on_c, 0, 70, 65
2, 31903, Note_on_c, 0, 82, 68
2, 31920, Note_on_c, 0, 67, 0
2, 31920, Note_on_c, 0, 79, 0
2, 31922, Control_c, 0, 64, 0
2, 31961, Note_on_c, 0, 86, 61
2, 31962, Note_on_c, 0, 74, 62
2, 31963, Note_on_c, 0, 58, 0
2, 31963, Note_on_c, 0, 62, 0
2, 31964, Note_on_c, 0, 82, 0
2, 31992, Note_on_c, 0, 70, 0
2, 31992, Note_on_c, 0, 86, 0
2, 32019, Note_on_c, 0, 79, 66
2, 32019, Note_on_c, 0, 86, 66
2, 32019, Note_on_c, 0, 91, 70
2, 32020, Note_on_c, 0, 58, 68
2, 32020, Note_on_c, 0, 62, 66
2, 32020, Note_on_c, 0, 82, 66
2, 32054, Note_on_c, 0, 74, 0
2, 32133, Note_on_c, 0, 79, 0
2, 32134, Note_on_c, 0, 91, 0
2, 32134, Note_on_c, 0, 58, 0
2, 32134, Note_on_c, 0, 82, 0
2, 32148, Note_on_c, 0, 62, 0
2, 32148, Note_on_c, 0, 86, 0
2, 32239, Control_c, 0, 67, 127
2, 32270, Note_on_c, 0, 86, 52
2, 32271, Note_on_c, 0, 46, 53
2, 32271, Note_on_c, 0, 58, 48
2, 32271, Note_on_c, 0, 74, 54
2, 32286, Control_c, 0, 64, 127
2, 32334, Note_on_c, 0, 73, 53
2, 32334, Note_on_c, 0, 85, 47
2, 32335, Note_on_c, 0, 58, 0
2, 32351, Note_on_c, 0, 74, 0
2, 32351, Note_on_c, 0, 86, 0
2, 32352, Note_on_c, 0, 46, 0
2, 32366, Control_c, 0, 67, 0
2, 32398, Note_on_c, 0, 86, 47
2, 32399, Note_on_c, 0, 58, 49
2, 32399, Note_on_c, 0, 62, 51
2, 32399, Note_on_c, 0, 65, 52
2, 32399, Note_on_c, 0, 67, 49
2, 32399, Note_on_c, 0, 74, 49
2, 32400, Note_on_c, 0, 73, 0
2, 32415, Note_on_c, 0, 85, 0
2, 32461, Note_on_c, 0, 81, 54
2, 32461, Note_on_c, 0, 93, 53
2, 32478, Note_on_c, 0, 62, 0
2, 32478, Note_on_c, 0, 67, 0
2, 32479, Note_on_c, 0, 65, 0
2, 32479, Note_on_c, 0, 58, 0
2, 32479, Note_on_c, 0, 86, 0
2, 32479, Control_c, 0, 64, 0
2, 32494, Note_on_c, 0, 74, 0
2, 32521, Note_on_c, 0, 46, 54
2, 32521, Note_on_c, 0, 58, 58
2, 32521, Control_c, 0, 67, 127
2, 32569, Note_on_c, 0, 93, 0
2, 32581, Note_on_c, 0, 91, 54
2, 32582, Note_on_c, 0, 79, 47
2, 32583, Note_on_c, 0, 81, 0
2, 32644, Note_on_c, 0, 89, 48
2, 32645, Note_on_c, 0, 47, 55
2, 32645, Note_on_c, 0, 77, 53
2, 32646, Note_on_c, 0, 59, 59
2, 32647, Note_on_c, 0, 58, 0
2, 32661, Note_on_c, 0, 79, 0
2, 32661, Note_on_c, 0, 91, 0
2, 32662, Note_on_c, 0, 46, 0
2, 32708, Note_on_c, 0, 74, 47
2, 32708, Note_on_c, 0, 86, 50
2, 32725, Note_on_c, 0, 89, 0
2, 32740, Note_on_c, 0, 77, 0
2, 32755, Control_c, 0, 64, 127
2, 32768, Note_on_c, 0, 48, 55
2, 32768, Note_on_c, 0, 60, 60
2, 32768, Note_on_c, 0, 69, 51
2, 32782, Note_on_c, 0, 81, 49
2, 32784, Note_on_c, 0, 47, 0
2, 32784, Note_on_c, 0, 59, 0
2, 32784, Note_on_c, 0, 86, 0
2, 32798, Note_on_c, 0, 74, 0
2, 32823, Note_on_c, 0, 80, 48
2, 32824, Note_on_c, 0, 68, 49
2, 32838, Control_c, 0, 67, 0
2, 32839, Note_on_c, 0, 60, 0
2, 32840, Note_on_c, 0, 69, 0
2, 32853, Note_on_c, 0, 81, 0
2, 32879, Note_on_c, 0, 57, 49
2, 32880, Note_on_c, 0, 60, 53
2, 32880, Note_on_c, 0, 65, 54
2, 32880, Note_on_c, 0, 69, 49
2, 32880, Note_on_c, 0, 81, 54
2, 32896, Note_on_c, 0, 80, 0
2, 32897, Note_on_c, 0, 68, 0
2, 32926, Control_c, 0, 64, 0
2, 32939, Note_on_c, 0, 86, 49
2, 32940, Note_on_c, 0, 74, 53
2, 32955, Note_on_c, 0, 69, 0
2, 32955, Note_on_c, 0, 60, 0
2, 32955, Note_on_c, 0, 48, 0
2, 32955, Note_on_c, 0, 57, 0
2, 32955, Note_on_c, 0, 65, 0
2, 32971, Note_on_c, 0, 81, 0
2, 33000, Note_on_c, 0, 36, 50
2, 33000, Note_on_c, 0, 48, 48
2, 33058, Note_on_c, 0, 72, 48
2, 33058, Note_on_c, 0, 84, 53
2, 33060, Note_on_c, 0, 74, 0
2, 33073, Note_on_c, 0, 86, 0
2, 33074, Note_on_c, 0, 36, 0
2, 33102, Note_on_c, 0, 48, 0
2, 33114, Note_on_c, 0, 57, 54
2, 33114, Note_on_c, 0, 60, 54
2, 33114, Note_on_c, 0, 65, 47
2, 33114, Note_on_c, 0, 77, 49
2, 33129, Note_on_c, 0, 84, 0
2, 33144, Note_on_c, 0, 72, 0
2, 33162, Note_on_c, 0, 57, 0
2, 33174, Note_on_c, 0, 66, 49
2, 33174, Note_on_c, 0, 78, 52
2, 33175, Note_on_c, 0, 60, 0
2, 33176, Note_on_c, 0, 77, 0
2, 33176, Note_on_c, 0, 65, 0
2, 33237, Control_c, 0, 64, 127
2, 33237, Note_on_c, 0, 79, 48
2, 33238, Note_on_c, 0, 40, 54
2, 33238, Note_on_c, 0, 52, 54
2, 33238, Note_on_c, 0, 67, 51
2, 33253, Note_on_c, 0, 66, 0
2, 33253, Note_on_c, 0, 78, 0
2, 33296, Note_on_c, 0, 72, 53
2, 33296, Note_on_c, 0, 84, 57
2, 33313, Note_on_c, 0, 79, 0
2, 33313, Note_on_c, 0, 67, 0
2, 33314, Note_on_c, 0, 52, 0
2, 33314, Note_on_c, 0, 40, 0
2, 33356, Note_on_c, 0, 58, 51
2, 33356, Note_on_c, 0, 60, 50
2, 33356, Note_on_c, 0, 64, 50
2, 33374, Control_c, 0, 64, 0
2, 33388, Note_on_c, 0, 84, 0
2, 33404, Note_on_c, 0, 72, 0
2, 33418, Note_on_c, 0, 78, 52
2, 33419, Note_on_c, 0, 60, 0
2, 33419, Note_on_c, 0, 64, 0
2, 33419, Note_on_c, 0, 66, 48
2, 33420, Note_on_c, 0, 58, 0
2, 33483, Note_on_c, 0, 36, 47
2, 33483, Note_on_c, 0, 67, 53
2, 33484, Note_on_c, 0, 48, 48
2, 33502, Note_on_c, 0, 66, 0
2, 33502, Note_on_c, 0, 78, 0
2, 33548, Note_on_c, 0, 79, 51
2, 33548, Note_on_c, 0, 91, 51
2, 33549, Note_on_c, 0, 82, 49
2, 33564, Note_on_c, 0, 67, 0
2, 33579, Note_on_c, 0, 36, 0
2, 33593, Note_on_c, 0, 48, 0
2, 33606, Note_on_c, 0, 58, 51
2, 33606, Note_on_c, 0, 60, 47
2, 33606, Note_on_c, 0, 64, 49
2, 33607, Note_on_c, 0, 79, 0
2, 33607, Note_on_c, 0, 82, 0
2, 33623, Note_on_c, 0, 91, 0
2, 33664, Note_on_c, 0, 77, 65
2, 33664, Note_on_c, 0, 81, 61
2, 33664, Note_on_c, 0, 84, 60
2, 33664, Note_on_c, 0, 89, 60
2, 33681, Note_on_c, 0, 60, 0
2, 33682, Note_on_c, 0, 58, 0
2, 33696, Note_on_c, 0, 64, 0
2, 33727, Note_on_c, 0, 41, 52
2, 33727, Note_on_c, 0, 57, 47
2, 33727, Note_on_c, 0, 60, 48
2, 33744, Control_c, 0, 64, 127
2, 33744, Note_on_c, 0, 53, 48
2, 33777, Note_on_c, 0, 41, 0
2, 33794, Note_on_c, 0, 53, 0
2, 33857, Note_on_c, 0, 36, 69
2, 33857, Note_on_c, 0, 48, 66
2, 33890, Control_c, 0, 64, 0
2, 33916, Note_on_c, 0, 37, 53
2, 33917, Note_on_c, 0, 49, 55
2, 33936, Note_on_c, 0, 48, 0
2, 33936, Note_on_c, 0, 36, 0
2, 33980, Note_on_c, 0, 38, 66
2, 33980, Note_on_c, 0, 50, 63
2, 33981, Note_on_c, 0, 37, 0
2, 33998, Note_on_c, 0, 49, 0
2, 34043, Note_on_c, 0, 39, 53
2, 34043, Note_on_c, 0, 51, 56
2, 34060, Note_on_c, 0, 38, 0
2, 34060, Note_on_c, 0, 50, 0
2, 34060, Note_on_c, 0, 57, 0
2, 34060, Note_on_c, 0, 60, 0
2, 34104, Note_on_c, 0, 40, 57
2, 34104, Note_on_c, 0, 52, 55
2, 34105, Note_on_c, 0, 39, 0
2, 34105, Note_on_c, 0, 77, 0
2, 34105, Note_on_c, 0, 84, 0
2, 34106, Note_on_c, 0, 89, 0
2, 34121, Note_on_c, 0, 81, 0
2, 34122, Note_on_c, 0, 51, 0
2, 34165, Note_on_c, 0, 43, 60
2, 34165, Note_on_c, 0, 55, 59
2, 34182, Note_on_c, 0, 40, 0
2, 34197, Note_on_c, 0, 52, 0
2, 34223, Note_on_c, 0, 57, 59
2, 34224, Note_on_c, 0, 41, 64
2, 34224, Note_on_c, 0, 53, 59
2, 34224, Note_on_c, 0, 69, 69
2, 34242, Note_on_c, 0, 43, 0
2, 34254, Control_c, 0, 64, 127
2, 34256, Note_on_c, 0, 55, 0
2, 34284, Note_on_c, 0, 72, 60
2, 34286, Note_on_c, 0, 53, 0
2, 34286, Note_on_c, 0, 57, 0
2, 34286, Note_on_c, 0, 41, 0
2, 34286, Note_on_c, 0, 69, 0
2, 34349, Note_on_c, 0, 57, 66
2, 34349, Note_on_c, 0, 60, 61
2, 34349, Note_on_c, 0, 65, 66
2, 34349, Note_on_c, 0, 77, 64
2, 34367, Note_on_c, 0, 72, 0
2, 34400, Control_c, 0, 64, 0
2, 34411, Note_on_c, 0, 81, 72
2, 34412, Note_on_c, 0, 69, 69
2, 34427, Note_on_c, 0, 60, 0
2, 34428, Note_on_c, 0, 77, 0
2, 34428, Note_on_c, 0, 57, 0
2, 34428, Note_on_c, 0, 65, 0
2, 34471, Note_on_c, 0, 36, 61
2, 34472, Note_on_c, 0, 48, 66
2, 34516, Note_on_c, 0, 69, 0
2, 34516, Note_on_c, 0, 81, 0
2, 34531, Note_on_c, 0, 65, 66
2, 34531, Note_on_c, 0, 77, 63
2, 34533, Note_on_c, 0, 36, 0
2, 34567, Note_on_c, 0, 48, 0
2, 34592, Note_on_c, 0, 60, 66
2, 34592, Note_on_c, 0, 72, 60
2, 34610, Note_on_c, 0, 77, 0
2, 34651, Note_on_c, 0, 69, 62
2, 34652, Note_on_c, 0, 57, 64
2, 34653, Note_on_c, 0, 65, 0
2, 34653, Note_on_c, 0, 72, 0
2, 34653, Note_on_c, 0, 60, 0
2, 34712, Note_on_c, 0, 36, 60
2, 34712, Note_on_c, 0, 72, 65
2, 34713, Note_on_c, 0, 48, 65
2, 34713, Note_on_c, 0, 64, 61
2, 34713, Note_on_c, 0, 76, 65
2, 34714, Note_on_c, 0, 69, 0
2, 34714, Note_on_c, 0, 57, 0
2, 34714, Control_c, 0, 64, 127
2, 34790, Note_on_c, 0, 64, 0
2, 34791, Control_c, 0, 64, 0
2, 34832, Note_on_c, 0, 58, 64
2, 34832, Note_on_c, 0, 60, 65
2, 34832, Note_on_c, 0, 64, 59
2, 34832, Note_on_c, 0, 70, 59
2, 34833, Note_on_c, 0, 72, 0
2, 34833, Note_on_c, 0, 62, 59
2, 34833, Note_on_c, 0, 74, 65
2, 34834, Note_on_c, 0, 76, 0
2, 34912, Note_on_c, 0, 62, 0
2, 34912, Note_on_c, 0, 60, 0
2, 34913, Note_on_c, 0, 58, 0
2, 34927, Note_on_c, 0, 64, 0
2, 34943, Note_on_c, 0, 70, 0
2, 34943, Note_on_c, 0, 74, 0
2, 34943, Note_on_c, 0, 36, 0
2, 34955, Note_on_c, 0, 53, 64
2, 34955, Note_on_c, 0, 60, 65
2, 34955, Note_on_c, 0, 69, 66
2, 34955, Note_on_c, 0, 72, 66
2, 34956, Note_on_c, 0, 41, 60
2, 34958, Note_on_c, 0, 48, 0
2, 35017, Note_on_c, 0, 60, 0
2, 35076, Note_on_c, 0, 57, 57
2, 35076, Note_on_c, 0, 60, 54
2, 35080, Note_on_c, 0, 65, 65
2, 35114, Note_on_c, 0, 69, 0
2, 35132, Note_on_c, 0, 72, 0
2, 35149, Note_on_c, 0, 60, 0
2, 35149, Note_on_c, 0, 57, 0
2, 35149, Note_on_c, 0, 65, 0
2, 35214, Note_on_c, 0, 43, 64
2, 35214, Note_on_c, 0, 55, 62
2, 35214, Note_on_c, 0, 82, 70
2, 35215, Note_on_c, 0, 41, 0
2, 35215, Note_on_c, 0, 70, 68
2, 35216, Note_on_c, 0, 53, 0
2, 35244, Control_c, 0, 64, 127
2, 35277, Note_on_c, 0, 76, 63
2, 35294, Note_on_c, 0, 82, 0
2, 35294, Note_on_c, 0, 70, 0
2, 35294, Note_on_c, 0, 43, 0
2, 35307, Note_on_c, 0, 55, 0
2, 35334, Note_on_c, 0, 58, 62
2, 35335, Note_on_c, 0, 60, 59
2, 35335, Note_on_c, 0, 64, 65
2, 35335, Note_on_c, 0, 79, 76
2, 35353, Note_on_c, 0, 76, 0
2, 35369, Control_c, 0, 64, 0
2, 35399, Note_on_c, 0, 70, 42
2, 35399, Note_on_c, 0, 82, 42
2, 35400, Note_on_c, 0, 58, 0
2, 35400, Note_on_c, 0, 79, 0
2, 35400, Note_on_c, 0, 60, 0
2, 35415, Note_on_c, 0, 64, 0
2, 35462, Note_on_c, 0, 55, 66
2, 35463, Note_on_c, 0, 43, 63
2, 35525, Note_on_c, 0, 76, 65
2, 35525, Note_on_c, 0, 79, 65
2, 35529, Note_on_c, 0, 70, 0
2, 35529, Note_on_c, 0, 82, 0
2, 35560, Note_on_c, 0, 55, 0
2, 35561, Note_on_c, 0, 43, 0
2, 35588, Note_on_c, 0, 83, 65
2, 35589, Note_on_c, 0, 44, 66
2, 35589, Note_on_c, 0, 56, 64
2, 35589, Note_on_c, 0, 71, 67
2, 35606, Note_on_c, 0, 79, 0
2, 35621, Note_on_c, 0, 76, 0
2, 35651, Note_on_c, 0, 84, 65
2, 35652, Note_on_c, 0, 72, 68
2, 35654, Note_on_c, 0, 83, 0
2, 35669, Note_on_c, 0, 71, 0
2, 35669, Note_on_c, 0, 44, 0
2, 35669, Note_on_c, 0, 56, 0
2, 35702, Control_c, 0, 64, 127
2, 35716, Note_on_c, 0, 45, 63
2, 35716, Note_on_c, 0, 57, 64
2, 35717, Note_on_c, 0, 84, 0
2, 35733, Note_on_c, 0, 72, 0
2, 35780, Note_on_c, 0, 72, 72
2, 35780, Note_on_c, 0, 84, 68
2, 35781, Note_on_c, 0, 46, 64
2, 35781, Note_on_c, 0, 58, 62
2, 35799, Note_on_c, 0, 45, 0
2, 35799, Note_on_c, 0, 57, 0
2, 35840, Note_on_c, 0, 60, 60
2, 35840, Note_on_c, 0, 81, 62
2, 35841, Note_on_c, 0, 69, 60
2, 35842, Note_on_c, 0, 84, 0
2, 35842, Note_on_c, 0, 48, 59
2, 35843, Note_on_c, 0, 58, 0
2, 35844, Control_c, 0, 64, 0
2, 35856, Note_on_c, 0, 72, 0
2, 35857, Note_on_c, 0, 46, 0
2, 35899, Note_on_c, 0, 65, 63
2, 35899, Note_on_c, 0, 77, 59
2, 35900, Note_on_c, 0, 47, 61
2, 35900, Note_on_c, 0, 59, 60
2, 35901, Note_on_c, 0, 69, 0
2, 35915, Note_on_c, 0, 81, 0
2, 35916, Note_on_c, 0, 48, 0
2, 35916, Note_on_c, 0, 60, 0
2, 35959, Control_c, 0, 67, 127
2, 35960, Note_on_c, 0, 74, 60
2, 35961, Note_on_c, 0, 46, 63
2, 35961, Note_on_c, 0, 58, 66
2, 35961, Note_on_c, 0, 62, 63
2, 35976, Note_on_c, 0, 77, 0
2, 35977, Note_on_c, 0, 47, 0
2, 35977, Note_on_c, 0, 59, 0
2, 35977, Note_on_c, 0, 65, 0
2, 36024, Note_on_c, 0, 73, 61
2, 36024, Note_on_c, 0, 61, 66
2, 36025, Note_on_c, 0, 58, 0
2, 36041, Note_on_c, 0, 74, 0
2, 36041, Note_on_c, 0, 62, 0
2, 36041, Note_on_c, 0, 46, 0
2, 36086, Note_on_c, 0, 45, 63
2, 36086, Note_on_c, 0, 57, 60
2, 36086, Note_on_c, 0, 60, 63
2, 36086, Note_on_c, 0, 72, 60
2, 36088, Note_on_c, 0, 73, 0
2, 36089, Note_on_c, 0, 61, 0
2, 36132, Control_c, 0, 67, 0
2, 36144, Note_on_c, 0, 55, 65
2, 36144, Note_on_c, 0, 58, 63
2, 36144, Note_on_c, 0, 70, 70
2, 36144, Note_on_c, 0, 43, 63
2, 36160, Note_on_c, 0, 60, 0
2, 36160, Note_on_c, 0, 57, 0
2, 36160, Note_on_c, 0, 45, 0
2, 36173, Note_on_c, 0, 72, 0
2, 36199, Note_on_c, 0, 41, 68
2, 36199, Note_on_c, 0, 53, 67
2, 36199, Note_on_c, 0, 69, 67
2, 36200, Note_on_c, 0, 57, 67
2, 36202, Note_on_c, 0, 58, 0
2, 36202, Note_on_c, 0, 70, 0
2, 36216, Note_on_c, 0, 55, 0
2, 36216, Note_on_c, 0, 43, 0
2, 36261, Note_on_c, 0, 72, 60
2, 36262, Control_c, 0, 64, 127
2, 36277, Note_on_c, 0, 69, 0
2, 36277, Note_on_c, 0, 57, 0
2, 36317, Note_on_c, 0, 60, 59
2, 36318, Note_on_c, 0, 57, 59
2, 36318, Note_on_c, 0, 65, 60
2, 36319, Note_on_c, 0, 77, 66
2, 36351, Note_on_c, 0, 72, 0
2, 36351, Control_c, 0, 64, 0
2, 36378, Note_on_c, 0, 69, 48
2, 36378, Note_on_c, 0, 81, 50
2, 36380, Note_on_c, 0, 53, 0
2, 36393, Note_on_c, 0, 57, 0
2, 36393, Note_on_c, 0, 60, 0
2, 36393, Note_on_c, 0, 65, 0
2, 36394, Note_on_c, 0, 41, 0
2, 36394, Note_on_c, 0, 77, 0
2, 36434, Note_on_c, 0, 36, 59
2, 36434, Control_c, 0, 67, 127
2, 36435, Note_on_c, 0, 48, 66
2, 36466, Note_on_c, 0, 69, 0
2, 36481, Note_on_c, 0, 81, 0
2, 36481, Control_c, 0, 67, 0
2, 36497, Note_on_c, 0, 77, 48
2, 36560, Note_on_c, 0, 65, 45
2, 36560, Note_on_c, 0, 72, 47
2, 36561, Note_on_c, 0, 60, 57
2, 36578, Note_on_c, 0, 77, 0
2, 36621, Note_on_c, 0, 57, 63
2, 36621, Note_on_c, 0, 69, 60
2, 36623, Note_on_c, 0, 60, 0
2, 36624, Note_on_c, 0, 48, 0
2, 36624, Note_on_c, 0, 36, 0
2, 36636, Note_on_c, 0, 72, 0
2, 36636, Note_on_c, 0, 65, 0
2, 36676, Note_on_c, 0, 72, 63
2, 36677, Note_on_c, 0, 36, 61
2, 36677, Note_on_c, 0, 48, 60
2, 36677, Note_on_c, 0, 64, 63
2, 36677, Note_on_c, 0, 76, 66
2, 36695, Note_on_c, 0, 57, 0
2, 36695, Note_on_c, 0, 69, 0
2, 36708, Control_c, 0, 64, 127
2, 36799, Note_on_c, 0, 60, 62
2, 36799, Note_on_c, 0, 62, 61
2, 36799, Note_on_c, 0, 70, 45
2, 36799, Note_on_c, 0, 74, 44
2, 36800, Note_on_c, 0, 57, 64
2, 36801, Control_c, 0, 64, 0
2, 36815, Note_on_c, 0, 72, 0
2, 36815, Note_on_c, 0, 64, 0
2, 36816, Note_on_c, 0, 76, 0
2, 36863, Note_on_c, 0, 57, 0
2, 36877, Note_on_c, 0, 60, 0
2, 36878, Note_on_c, 0, 36, 0
2, 36878, Note_on_c, 0, 70, 0
2, 36878, Note_on_c, 0, 74, 0
2, 36878, Note_on_c, 0, 62, 0
2, 36892, Note_on_c, 0, 48, 0
2, 36919, Note_on_c, 0, 60, 59
2, 36919, Note_on_c, 0, 72, 62
2, 36920, Note_on_c, 0, 41, 66
2, 36920, Note_on_c, 0, 69, 66
2, 36936, Note_on_c, 0, 53, 65
2, 36983, Note_on_c, 0, 69, 0
2, 36983, Note_on_c, 0, 72, 0
2, 36983, Note_on_c, 0, 60, 0
2, 36984, Note_on_c, 0, 53, 0
2, 37045, Note_on_c, 0, 81, 61
2, 37046, Note_on_c, 0, 54, 63
2, 37046, Note_on_c, 0, 60, 63
2, 37046, Note_on_c, 0, 63, 66
2, 37046, Note_on_c, 0, 69, 61
2, 37047, Note_on_c, 0, 57, 61
2, 37097, Note_on_c, 0, 57, 0
2, 37097, Note_on_c, 0, 60, 0
2, 37097, Note_on_c, 0, 54, 0
2, 37097, Note_on_c, 0, 63, 0
2, 37111, Note_on_c, 0, 81, 0
2, 37111, Note_on_c, 0, 69, 0
2, 37174, Control_c, 0, 64, 127
2, 37174, Note_on_c, 0, 60, 65
2, 37174, Note_on_c, 0, 64, 63
2, 37174, Note_on_c, 0, 79, 68
2, 37175, Note_on_c, 0, 55, 66
2, 37175, Note_on_c, 0, 67, 72
2, 37233, Note_on_c, 0, 72, 65
2, 37237, Note_on_c, 0, 79, 0
2, 37251, Note_on_c, 0, 67, 0
2, 37269, Note_on_c, 0, 41, 0
2, 37298, Note_on_c, 0, 76, 69
2, 37317, Note_on_c, 0, 72, 0
2, 37366, Note_on_c, 0, 72, 68
2, 37367, Note_on_c, 0, 69, 72
2, 37367, Note_on_c, 0, 74, 68
2, 37367, Note_on_c, 0, 78, 68
2, 37368, Control_c, 0, 64, 0
2, 37383, Note_on_c, 0, 81, 65
2, 37401, Note_on_c, 0, 76, 0
2, 37416, Note_on_c, 0, 60, 0
2, 37431, Note_on_c, 0, 50, 66
2, 37431, Note_on_c, 0, 62, 65
2, 37432, Note_on_c, 0, 55, 0
2, 37433, Note_on_c, 0, 64, 0
2, 37448, Note_on_c, 0, 69, 0
2, 37449, Note_on_c, 0, 78, 0
2, 37492, Note_on_c, 0, 69, 70
2, 37492, Note_on_c, 0, 78, 65
2, 37511, Note_on_c, 0, 74, 0
2, 37511, Note_on_c, 0, 62, 0
2, 37511, Note_on_c, 0, 50, 0
2, 37554, Note_on_c, 0, 55, 66
2, 37554, Note_on_c, 0, 77, 70
2, 37555, Note_on_c, 0, 43, 66
2, 37555, Note_on_c, 0, 71, 65
2, 37555, Note_on_c, 0, 74, 71
2, 37555, Note_on_c, 0, 83, 68
2, 37572, Note_on_c, 0, 78, 0
2, 37572, Note_on_c, 0, 69, 0
2, 37586, Note_on_c, 0, 72, 0
2, 37586, Note_on_c, 0, 81, 0
2, 37602, Note_on_c, 0, 83, 0
2, 37617, Note_on_c, 0, 71, 0
2, 37632, Note_on_c, 0, 74, 0
2, 37632, Note_on_c, 0, 43, 0
2, 37632, Note_on_c, 0, 55, 0
2, 37632, Note_on_c, 0, 77, 0
2, 37676, Note_on_c, 0, 60, 75
2, 37676, Note_on_c, 0, 79, 73
2, 37677, Note_on_c, 0, 72, 78
2, 37677, Note_on_c, 0, 76, 76
2, 37677, Note_on_c, 0, 84, 78
2, 37678, Control_c, 0, 64, 127
2, 37678, Note_on_c, 0, 48, 76
2, 37739, Note_on_c, 0, 47, 60
2, 37739, Note_on_c, 0, 59, 59
2, 37754, Note_on_c, 0, 60, 0
2, 37770, Note_on_c, 0, 48, 0
2, 37796, Note_on_c, 0, 46, 65
2, 37796, Note_on_c, 0, 58, 66
2, 37798, Note_on_c, 0, 59, 0
2, 37799, Note_on_c, 0, 47, 0
2, 37857, Note_on_c, 0, 60, 66
2, 37858, Note_on_c, 0, 48, 70
2, 37875, Note_on_c, 0, 58, 0
2, 37891, Note_on_c, 0, 46, 0
2, 37904, Control_c, 0, 64, 0
2, 37923, Note_on_c, 0, 57, 66
2, 37924, Note_on_c, 0, 45, 68
2, 37940, Note_on_c, 0, 60, 0
2, 37957, Note_on_c, 0, 48, 0
2, 37985, Note_on_c, 0, 44, 70
2, 37986, Note_on_c, 0, 56, 68
2, 37987, Note_on_c, 0, 45, 0
2, 37987, Note_on_c, 0, 57, 0
2, 38045, Note_on_c, 0, 43, 70
2, 38045, Note_on_c, 0, 55, 72
2, 38061, Note_on_c, 0, 56, 0
2, 38062, Note_on_c, 0, 44, 0
2, 38102, Note_on_c, 0, 42, 67
2, 38102, Note_on_c, 0, 54, 67
2, 38119, Note_on_c, 0, 55, 0
2, 38119, Note_on_c, 0, 84, 0
2, 38119, Note_on_c, 0, 79, 0
2, 38120, Note_on_c, 0, 43, 0
2, 38135, Note_on_c, 0, 76, 0
2, 38135, Note_on_c, 0, 72, 0
2, 38164, Note_on_c, 0, 57, 65
2, 38164, Note_on_c, 0, 69, 65
2, 38165, Control_c, 0, 64, 127
2, 38165, Note_on_c, 0, 41, 60
2, 38166, Note_on_c, 0, 42, 0
2, 38166, Note_on_c, 0, 54, 0
2, 38180, Note_on_c, 0, 53, 61
2, 38225, Note_on_c, 0, 60, 59
2, 38225, Note_on_c, 0, 72, 64
2, 38243, Note_on_c, 0, 60, 0
2, 38244, Note_on_c, 0, 69, 0
2, 38244, Note_on_c, 0, 57, 0
2, 38277, Control_c, 0, 64, 0
2, 38288, Note_on_c, 0, 57, 66
2, 38288, Note_on_c, 0, 60, 61
2, 38288, Note_on_c, 0, 65, 63
2, 38288, Note_on_c, 0, 77, 62
2, 38320, Note_on_c, 0, 72, 0
2, 38348, Note_on_c, 0, 69, 64
2, 38348, Note_on_c, 0, 81, 66
2, 38352, Note_on_c, 0, 60, 0
2, 38352, Note_on_c, 0, 57, 0
2, 38365, Note_on_c, 0, 65, 0
2, 38365, Note_on_c, 0, 77, 0
2, 38380, Note_on_c, 0, 41, 0
2, 38408, Note_on_c, 0, 36, 63
2, 38409, Note_on_c, 0, 48, 64
2, 38411, Note_on_c, 0, 53, 0
2, 38460, Note_on_c, 0, 69, 0
2, 38475, Note_on_c, 0, 65, 65
2, 38475, Note_on_c, 0, 77, 64
2, 38476, Note_on_c, 0, 81, 0
2, 38541, Note_on_c, 0, 60, 62
2, 38542, Note_on_c, 0, 57, 63
2, 38542, Note_on_c, 0, 72, 64
2, 38559, Note_on_c, 0, 57, 0
2, 38560, Note_on_c, 0, 77, 0
2, 38592, Note_on_c, 0, 36, 0
2, 38605, Note_on_c, 0, 57, 65
2, 38605, Note_on_c, 0, 69, 59
2, 38607, Note_on_c, 0, 60, 0
2, 38607, Note_on_c, 0, 48, 0
2, 38607, Note_on_c, 0, 72, 0
2, 38608, Note_on_c, 0, 65, 0
2, 38666, Note_on_c, 0, 36, 54
2, 38667, Note_on_c, 0, 48, 58
2, 38667, Note_on_c, 0, 64, 55
2, 38667, Note_on_c, 0, 72, 56
2, 38667, Note_on_c, 0, 76, 54
2, 38685, Note_on_c, 0, 57, 0
2, 38686, Note_on_c, 0, 69, 0
2, 38700, Control_c, 0, 64, 127
2, 38782, Note_on_c, 0, 72, 0
2, 38783, Note_on_c, 0, 76, 0
2, 38795, Note_on_c, 0, 74, 53
2, 38796, Note_on_c, 0, 58, 60
2, 38796, Note_on_c, 0, 60, 59
2, 38796, Note_on_c, 0, 62, 57
2, 38796, Note_on_c, 0, 70, 59
2, 38798, Control_c, 0, 64, 0
2, 38860, Note_on_c, 0, 62, 0
2, 38860, Note_on_c, 0, 60, 0
2, 38860, Note_on_c, 0, 58, 0
2, 38861, Note_on_c, 0, 70, 0
2, 38875, Note_on_c, 0, 64, 0
2, 38876, Note_on_c, 0, 74, 0
2, 38920, Note_on_c, 0, 60, 54
2, 38920, Note_on_c, 0, 69, 59
2, 38920, Note_on_c, 0, 72, 58
2, 38921, Note_on_c, 0, 41, 54
2, 38921, Note_on_c, 0, 53, 57
2, 38923, Note_on_c, 0, 36, 0
2, 38937, Note_on_c, 0, 48, 0
2, 38985, Note_on_c, 0, 60, 0
2, 38986, Note_on_c, 0, 41, 0
2, 39002, Note_on_c, 0, 53, 0
2, 39051, Note_on_c, 0, 60, 53
2, 39051, Note_on_c, 0, 65, 54
2, 39052, Note_on_c, 0, 57, 56
2, 39103, Note_on_c, 0, 72, 0
2, 39103, Note_on_c, 0, 69, 0
2, 39120, Note_on_c, 0, 57, 0
2, 39139, Note_on_c, 0, 60, 0
2, 39140, Note_on_c, 0, 65, 0
2, 39185, Note_on_c, 0, 82, 70
2, 39186, Note_on_c, 0, 55, 68
2, 39186, Note_on_c, 0, 70, 66
2, 39187, Control_c, 0, 64, 127
2, 39187, Note_on_c, 0, 43, 66
2, 39247, Note_on_c, 0, 76, 71
2, 39264, Note_on_c, 0, 82, 0
2, 39265, Note_on_c, 0, 43, 0
2, 39265, Note_on_c, 0, 70, 0
2, 39265, Control_c, 0, 64, 0
2, 39280, Note_on_c, 0, 55, 0
2, 39312, Note_on_c, 0, 58, 72
2, 39312, Note_on_c, 0, 60, 72
2, 39312, Note_on_c, 0, 64, 69
2, 39312, Note_on_c, 0, 79, 69
2, 39328, Note_on_c, 0, 76, 0
2, 39374, Note_on_c, 0, 70, 72
2, 39374, Note_on_c, 0, 82, 68
2, 39375, Note_on_c, 0, 79, 0
2, 39391, Note_on_c, 0, 58, 0
2, 39391, Note_on_c, 0, 60, 0
2, 39406, Note_on_c, 0, 64, 0
2, 39432, Note_on_c, 0, 55, 67
2, 39433, Note_on_c, 0, 43, 65
2, 39494, Note_on_c, 0, 76, 71
2, 39494, Note_on_c, 0, 79, 68
2, 39498, Note_on_c, 0, 70, 0
2, 39498, Note_on_c, 0, 82, 0
2, 39526, Note_on_c, 0, 43, 0
2, 39526, Note_on_c, 0, 55, 0
2, 39555, Note_on_c, 0, 44, 67
2, 39555, Note_on_c, 0, 56, 65
2, 39555, Note_on_c, 0, 71, 68
2, 39555, Note_on_c, 0, 83, 70
2, 39587, Note_on_c, 0, 79, 0
2, 39587, Note_on_c, 0, 76, 0
2, 39617, Note_on_c, 0, 72, 73
2, 39618, Note_on_c, 0, 84, 76
2, 39619, Note_on_c, 0, 56, 0
2, 39619, Note_on_c, 0, 44, 0
2, 39620, Note_on_c, 0, 83, 0
2, 39633, Note_on_c, 0, 71, 0
2, 39678, Note_on_c, 0, 45, 65
2, 39678, Note_on_c, 0, 57, 67
2, 39679, Control_c, 0, 64, 127
2, 39680, Note_on_c, 0, 84, 0
2, 39736, Note_on_c, 0, 46, 65
2, 39736, Note_on_c, 0, 58, 69
2, 39736, Note_on_c, 0, 84, 67
2, 39738, Note_on_c, 0, 57, 0
2, 39751, Note_on_c, 0, 45, 0
2, 39766, Note_on_c, 0, 72, 0
2, 39780, Control_c, 0, 64, 0
2, 39792, Note_on_c, 0, 48, 68
2, 39792, Note_on_c, 0, 60, 66
2, 39793, Note_on_c, 0, 58, 0
2, 39807, Note_on_c, 0, 84, 0
2, 39807, Note_on_c, 0, 81, 69
2, 39808, Note_on_c, 0, 46, 0
2, 39851, Note_on_c, 0, 47, 72
2, 39851, Note_on_c, 0, 59, 70
2, 39852, Note_on_c, 0, 60, 0
2, 39852, Note_on_c, 0, 77, 70
2, 39868, Note_on_c, 0, 81, 0
2, 39868, Note_on_c, 0, 48, 0
2, 39913, Note_on_c, 0, 74, 66
2, 39914, Note_on_c, 0, 46, 66
2, 39914, Note_on_c, 0, 58, 69
2, 39915, Note_on_c, 0, 77, 0
2, 39915, Note_on_c, 0, 59, 0
2, 39916, Note_on_c, 0, 47, 0
2, 39977, Note_on_c, 0, 73, 71
2, 39979, Note_on_c, 0, 74, 0
2, 39979, Note_on_c, 0, 46, 0
2, 39979, Note_on_c, 0, 58, 0
2, 40037, Note_on_c, 0, 45, 65
2, 40037, Note_on_c, 0, 72, 72
2, 40038, Note_on_c, 0, 57, 72
2, 40039, Note_on_c, 0, 73, 0
2, 40132, Note_on_c, 0, 45, 0
2, 40132, Note_on_c, 0, 57, 0
2, 40147, Control_c, 0, 64, 127
2, 40148, Note_on_c, 0, 72, 0
2, 40162, Note_on_c, 0, 86, 76
2, 40163, Note_on_c, 0, 46, 69
2, 40163, Note_on_c, 0, 58, 66
2, 40163, Note_on_c, 0, 74, 73
2, 40241, Note_on_c, 0, 82, 59
2, 40242, Note_on_c, 0, 58, 0
2, 40258, Note_on_c, 0, 74, 0
2, 40258, Note_on_c, 0, 86, 0
2, 40258, Note_on_c, 0, 46, 0
2, 40287, Note_on_c, 0, 67, 65
2, 40287, Note_on_c, 0, 84, 64
2, 40288, Note_on_c, 0, 58, 66
2, 40288, Note_on_c, 0, 62, 60
2, 40289, Control_c, 0, 64, 0
2, 40305, Note_on_c, 0, 82, 0
2, 40349, Note_on_c, 0, 88, 73
2, 40350, Note_on_c, 0, 76, 74
2, 40367, Note_on_c, 0, 67, 0
2, 40368, Note_on_c, 0, 62, 0
2, 40368, Note_on_c, 0, 58, 0
2, 40368, Note_on_c, 0, 84, 0
2, 40412, Note_on_c, 0, 46, 66
2, 40412, Note_on_c, 0, 58, 62
2, 40477, Note_on_c, 0, 82, 61
2, 40495, Note_on_c, 0, 58, 0
2, 40495, Note_on_c, 0, 88, 0
2, 40512, Note_on_c, 0, 76, 0
2, 40529, Note_on_c, 0, 46, 0
2, 40540, Note_on_c, 0, 44, 63
2, 40541, Note_on_c, 0, 56, 62
2, 40541, Note_on_c, 0, 74, 62
2, 40541, Note_on_c, 0, 86, 62
2, 40559, Note_on_c, 0, 82, 0
2, 40620, Note_on_c, 0, 44, 0
2, 40620, Note_on_c, 0, 56, 0
2, 40636, Note_on_c, 0, 74, 0
2, 40636, Note_on_c, 0, 86, 0
2, 40665, Note_on_c, 0, 84, 74
2, 40666, Note_on_c, 0, 45, 66
2, 40666, Note_on_c, 0, 72, 76
2, 40667, Note_on_c, 0, 57, 59
2, 40715, Control_c, 0, 64, 127
2, 40731, Note_on_c, 0, 77, 59
2, 40731, Note_on_c, 0, 81, 63
2, 40750, Note_on_c, 0, 57, 0
2, 40750, Note_on_c, 0, 72, 0
2, 40750, Note_on_c, 0, 45, 0
2, 40751, Note_on_c, 0, 84, 0
2, 40799, Note_on_c, 0, 57, 65
2, 40799, Note_on_c, 0, 60, 65
2, 40799, Note_on_c, 0, 65, 64
2, 40799, Note_on_c, 0, 86, 60
2, 40800, Note_on_c, 0, 74, 62
2, 40817, Note_on_c, 0, 77, 0
2, 40817, Note_on_c, 0, 81, 0
2, 40817, Control_c, 0, 64, 0
2, 40862, Note_on_c, 0, 72, 64
2, 40862, Note_on_c, 0, 84, 62
2, 40864, Note_on_c, 0, 60, 0
2, 40864, Note_on_c, 0, 57, 0
2, 40865, Note_on_c, 0, 86, 0
2, 40865, Note_on_c, 0, 65, 0
2, 40879, Note_on_c, 0, 74, 0
2, 40923, Note_on_c, 0, 57, 63
2, 40923, Note_on_c, 0, 60, 61
2, 40923, Note_on_c, 0, 65, 60
2, 40986, Note_on_c, 0, 81, 62
2, 40988, Note_on_c, 0, 84, 0
2, 41001, Note_on_c, 0, 72, 0
2, 41044, Note_on_c, 0, 77, 63
2, 41061, Note_on_c, 0, 65, 0
2, 41061, Note_on_c, 0, 60, 0
2, 41061, Note_on_c, 0, 57, 0
2, 41078, Note_on_c, 0, 81, 0
2, 41112, Note_on_c, 0, 66, 60
2, 41129, Note_on_c, 0, 77, 0
2, 41171, Control_c, 0, 64, 127
2, 41171, Note_on_c, 0, 36, 64
2, 41171, Note_on_c, 0, 48, 66
2, 41171, Note_on_c, 0, 67, 60
2, 41175, Note_on_c, 0, 66, 0
2, 41235, Note_on_c, 0, 72, 62
2, 41236, Note_on_c, 0, 36, 0
2, 41237, Note_on_c, 0, 67, 0
2, 41252, Note_on_c, 0, 48, 0
2, 41252, Control_c, 0, 64, 0
2, 41301, Note_on_c, 0, 58, 64
2, 41301, Note_on_c, 0, 60, 66
2, 41301, Note_on_c, 0, 64, 65
2, 41364, Note_on_c, 0, 66, 59
2, 41365, Note_on_c, 0, 60, 0
2, 41365, Note_on_c, 0, 72, 0
2, 41366, Note_on_c, 0, 58, 0
2, 41380, Note_on_c, 0, 64, 0
2, 41423, Note_on_c, 0, 40, 65
2, 41423, Note_on_c, 0, 52, 66
2, 41424, Note_on_c, 0, 66, 0
2, 41480, Note_on_c, 0, 67, 61
2, 41481, Note_on_c, 0, 70, 64
2, 41481, Note_on_c, 0, 79, 63
2, 41483, Note_on_c, 0, 52, 0
2, 41483, Note_on_c, 0, 40, 0
2, 41541, Note_on_c, 0, 52, 61
2, 41541, Note_on_c, 0, 58, 64
2, 41541, Note_on_c, 0, 60, 63
2, 41572, Note_on_c, 0, 79, 0
2, 41572, Note_on_c, 0, 67, 0
2, 41573, Note_on_c, 0, 70, 0
2, 41588, Note_on_c, 0, 58, 0
2, 41588, Note_on_c, 0, 60, 0
2, 41598, Note_on_c, 0, 65, 76
2, 41599, Note_on_c, 0, 69, 78
2, 41599, Note_on_c, 0, 77, 73
2, 41632, Note_on_c, 0, 52, 0
2, 41661, Note_on_c, 0, 41, 72
2, 41661, Note_on_c, 0, 57, 69
2, 41661, Note_on_c, 0, 60, 69
2, 41674, Control_c, 0, 64, 127
2, 41676, Note_on_c, 0, 53, 69
2, 41715, Note_on_c, 0, 38, 67
2, 41716, Note_on_c, 0, 50, 70
2, 41718, Note_on_c, 0, 41, 0
2, 41733, Note_on_c, 0, 53, 0
2, 41777, Note_on_c, 0, 36, 66
2, 41778, Note_on_c, 0, 48, 69
2, 41779, Note_on_c, 0, 50, 0
2, 41795, Note_on_c, 0, 38, 0
2, 41811, Control_c, 0, 64, 0
2, 41847, Note_on_c, 0, 33, 68
2, 41863, Note_on_c, 0, 45, 72
2, 41865, Note_on_c, 0, 77, 0
2, 41865, Note_on_c, 0, 65, 0
2, 41865, Note_on_c, 0, 69, 0
2, 41881, Note_on_c, 0, 36, 0
2, 41898, Note_on_c, 0, 45, 0
2, 41898, Note_on_c, 0, 48, 0
2, 41911, Note_on_c, 0, 29, 67
2, 41911, Note_on_c, 0, 41, 72
2, 41912, Note_on_c, 0, 65, 74
2, 41912, Note_on_c, 0, 69, 75
2, 41913, Note_on_c, 0, 77, 77
2, 41914, Note_on_c, 0, 33, 0
2, 42034, Note_on_c, 0, 60, 0
2, 42035, Note_on_c, 0, 57, 0
2, 42084, Note_on_c, 0, 65, 0
2, 42084, Note_on_c, 0, 69, 0
2, 42100, Note_on_c, 0, 77, 0
2, 42149, Note_on_c, 0, 29, 0
2, 42162, Note_on_c, 0, 34, 49
2, 42162, Note_on_c, 0, 46, 50
2, 42163, Note_on_c, 0, 77, 51
2, 42164, Note_on_c, 0, 41, 0
2, 42193, Control_c, 0, 64, 127
2, 42223, Note_on_c, 0, 76, 49
2, 42229, Note_on_c, 0, 34, 0
2, 42240, Note_on_c, 0, 77, 0
2, 42240, Note_on_c, 0, 46, 0
2, 42284, Note_on_c, 0, 77, 50
2, 42285, Note_on_c, 0, 58, 50
2, 42285, Note_on_c, 0, 62, 48
2, 42287, Control_c, 0, 64, 0
2, 42299, Note_on_c, 0, 53, 47
2, 42303, Note_on_c, 0, 76, 0
2, 42348, Note_on_c, 0, 62, 0
2, 42348, Note_on_c, 0, 58, 0
2, 42348, Note_on_c, 0, 79, 53
2, 42365, Note_on_c, 0, 77, 0
2, 42365, Note_on_c, 0, 53, 0
2, 42410, Note_on_c, 0, 29, 48
2, 42410, Note_on_c, 0, 41, 49
2, 42444, Note_on_c, 0, 79, 0
2, 42476, Note_on_c, 0, 77, 52
2, 42477, Note_on_c, 0, 29, 0
2, 42493, Note_on_c, 0, 41, 0
2, 42541, Note_on_c, 0, 53, 53
2, 42541, Note_on_c, 0, 58, 53
2, 42541, Note_on_c, 0, 62, 47
2, 42541, Note_on_c, 0, 72, 48
2, 42543, Note_on_c, 0, 77, 0
2, 42603, Note_on_c, 0, 74, 47
2, 42620, Note_on_c, 0, 62, 0
2, 42620, Note_on_c, 0, 58, 0
2, 42636, Note_on_c, 0, 53, 0
2, 42637, Note_on_c, 0, 72, 0
2, 42666, Note_on_c, 0, 36, 59
2, 42667, Note_on_c, 0, 48, 54
2, 42668, Note_on_c, 0, 75, 50
2, 42685, Note_on_c, 0, 74, 0
2, 42714, Control_c, 0, 64, 127
2, 42731, Note_on_c, 0, 74, 50
2, 42733, Note_on_c, 0, 75, 0
2, 42762, Note_on_c, 0, 36, 0
2, 42763, Note_on_c, 0, 48, 0
2, 42790, Note_on_c, 0, 53, 51
2, 42790, Note_on_c, 0, 57, 52
2, 42790, Note_on_c, 0, 63, 49
2, 42791, Note_on_c, 0, 75, 63
2, 42792, Note_on_c, 0, 74, 0
2, 42805, Control_c, 0, 64, 0
2, 42847, Note_on_c, 0, 69, 56
2, 42851, Note_on_c, 0, 53, 0
2, 42851, Note_on_c, 0, 57, 0
2, 42852, Note_on_c, 0, 63, 0
2, 42852, Note_on_c, 0, 75, 0
2, 42909, Note_on_c, 0, 29, 51
2, 42910, Note_on_c, 0, 41, 49
2, 42972, Note_on_c, 0, 41, 0
2, 42972, Note_on_c, 0, 29, 0
2, 43022, Note_on_c, 0, 69, 0
2, 43032, Note_on_c, 0, 57, 48
2, 43036, Note_on_c, 0, 53, 50
2, 43036, Note_on_c, 0, 63, 49
2, 43084, Control_c, 0, 67, 127
2, 43099, Note_on_c, 0, 53, 0
2, 43099, Note_on_c, 0, 57, 0
2, 43100, Note_on_c, 0, 63, 0
2, 43153, Note_on_c, 0, 36, 53
2, 43153, Note_on_c, 0, 69, 52
2, 43154, Note_on_c, 0, 48, 54
2, 43169, Control_c, 0, 64, 127
2, 43213, Note_on_c, 0, 36, 0
2, 43214, Note_on_c, 0, 69, 0
2, 43228, Note_on_c, 0, 48, 0
2, 43228, Note_on_c, 0, 68, 53
2, 43272, Note_on_c, 0, 60, 54
2, 43272, Note_on_c, 0, 63, 54
2, 43272, Note_on_c, 0, 69, 48
2, 43276, Control_c, 0, 67, 0
2, 43289, Note_on_c, 0, 53, 43
2, 43290, Note_on_c, 0, 68, 0
2, 43303, Control_c, 0, 64, 0
2, 43332, Note_on_c, 0, 74, 49
2, 43349, Note_on_c, 0, 60, 0
2, 43349, Note_on_c, 0, 53, 0
2, 43350, Note_on_c, 0, 69, 0
2, 43350, Note_on_c, 0, 63, 0
2, 43365, Control_c, 0, 67, 127
2, 43392, Note_on_c, 0, 29, 41
2, 43392, Note_on_c, 0, 41, 48
2, 43455, Note_on_c, 0, 72, 52
2, 43457, Note_on_c, 0, 74, 0
2, 43471, Note_on_c, 0, 29, 0
2, 43471, Note_on_c, 0, 41, 0
2, 43519, Note_on_c, 0, 53, 42
2, 43519, Note_on_c, 0, 57, 43
2, 43519, Note_on_c, 0, 63, 41
2, 43520, Note_on_c, 0, 67, 49
2, 43536, Note_on_c, 0, 72, 0
2, 43584, Note_on_c, 0, 63, 0
2, 43584, Note_on_c, 0, 67, 0
2, 43584, Note_on_c, 0, 57, 0
2, 43584, Note_on_c, 0, 69, 52
2, 43599, Note_on_c, 0, 53, 0
2, 43641, Note_on_c, 0, 34, 57
2, 43642, Note_on_c, 0, 46, 58
2, 43643, Note_on_c, 0, 70, 52
2, 43659, Note_on_c, 0, 69, 0
2, 43670, Control_c, 0, 64, 127
2, 43688, Note_on_c, 0, 34, 0
2, 43702, Note_on_c, 0, 69, 50
2, 43704, Note_on_c, 0, 70, 0
2, 43717, Note_on_c, 0, 46, 0
2, 43719, Control_c, 0, 67, 0
2, 43761, Note_on_c, 0, 53, 53
2, 43762, Note_on_c, 0, 58, 47
2, 43762, Note_on_c, 0, 62, 51
2, 43762, Note_on_c, 0, 70, 49
2, 43763, Control_c, 0, 64, 0
2, 43779, Note_on_c, 0, 69, 0
2, 43824, Note_on_c, 0, 67, 64
2, 43825, Note_on_c, 0, 58, 0
2, 43842, Note_on_c, 0, 62, 0
2, 43843, Note_on_c, 0, 53, 0
2, 43843, Note_on_c, 0, 70, 0
2, 43888, Note_on_c, 0, 29, 48
2, 43889, Note_on_c, 0, 41, 48
2, 43923, Note_on_c, 0, 29, 0
2, 43940, Note_on_c, 0, 41, 0
2, 43988, Note_on_c, 0, 67, 0
2, 44018, Note_on_c, 0, 53, 67
2, 44018, Note_on_c, 0, 58, 63
2, 44019, Note_on_c, 0, 62, 63
2, 44019, Note_on_c, 0, 74, 60
2, 44085, Note_on_c, 0, 58, 0
2, 44101, Note_on_c, 0, 62, 0
2, 44102, Note_on_c, 0, 53, 0
2, 44102, Note_on_c, 0, 74, 0
2, 44150, Control_c, 0, 64, 127
2, 44150, Note_on_c, 0, 46, 63
2, 44150, Note_on_c, 0, 58, 63
2, 44151, Note_on_c, 0, 72, 60
2, 44230, Note_on_c, 0, 72, 0
2, 44230, Note_on_c, 0, 58, 0
2, 44230, Note_on_c, 0, 46, 0
2, 44274, Note_on_c, 0, 53, 56
2, 44275, Note_on_c, 0, 58, 55
2, 44275, Note_on_c, 0, 62, 54
2, 44275, Note_on_c, 0, 70, 54
2, 44291, Control_c, 0, 64, 0
2, 44339, Note_on_c, 0, 62, 0
2, 44339, Note_on_c, 0, 58, 0
2, 44340, Note_on_c, 0, 70, 0
2, 44356, Note_on_c, 0, 53, 0
2, 44403, Note_on_c, 0, 38, 60
2, 44403, Note_on_c, 0, 62, 60
2, 44403, Note_on_c, 0, 67, 55
2, 44404, Note_on_c, 0, 50, 58
2, 44483, Note_on_c, 0, 67, 0
2, 44483, Note_on_c, 0, 62, 0
2, 44525, Note_on_c, 0, 37, 48
2, 44525, Note_on_c, 0, 49, 51
2, 44525, Note_on_c, 0, 61, 54
2, 44526, Note_on_c, 0, 68, 52
2, 44528, Note_on_c, 0, 50, 0
2, 44542, Note_on_c, 0, 38, 0
2, 44586, Note_on_c, 0, 61, 0
2, 44586, Note_on_c, 0, 68, 0
2, 44647, Note_on_c, 0, 36, 51
2, 44647, Note_on_c, 0, 60, 51
2, 44648, Note_on_c, 0, 69, 48
2, 44649, Note_on_c, 0, 48, 53
2, 44662, Control_c, 0, 64, 127
2, 44665, Note_on_c, 0, 37, 0
2, 44666, Note_on_c, 0, 49, 0
2, 44709, Note_on_c, 0, 77, 59
2, 44725, Note_on_c, 0, 60, 0
2, 44726, Note_on_c, 0, 69, 0
2, 44756, Control_c, 0, 64, 0
2, 44769, Note_on_c, 0, 53, 49
2, 44769, Note_on_c, 0, 57, 48
2, 44769, Note_on_c, 0, 63, 51
2, 44769, Note_on_c, 0, 75, 58
2, 44786, Note_on_c, 0, 36, 0
2, 44786, Note_on_c, 0, 48, 0
2, 44787, Note_on_c, 0, 77, 0
2, 44831, Note_on_c, 0, 72, 59
2, 44832, Note_on_c, 0, 57, 0
2, 44833, Note_on_c, 0, 63, 0
2, 44833, Note_on_c, 0, 75, 0
2, 44847, Note_on_c, 0, 53, 0
2, 44892, Note_on_c, 0, 29, 51
2, 44893, Note_on_c, 0, 41, 50
2, 44894, Note_on_c, 0, 69, 54
2, 44911, Note_on_c, 0, 72, 0
2, 44943, Note_on_c, 0, 29, 0
2, 44943, Note_on_c, 0, 41, 0
2, 45019, Note_on_c, 0, 53, 61
2, 45019, Note_on_c, 0, 57, 61
2, 45019, Note_on_c, 0, 63, 64
2, 45020, Note_on_c, 0, 75, 63
2, 45022, Note_on_c, 0, 69, 0
2, 45067, Note_on_c, 0, 63, 0
2, 45067, Note_on_c, 0, 57, 0
2, 45081, Note_on_c, 0, 53, 0
2, 45142, Note_on_c, 0, 36, 50
2, 45143, Note_on_c, 0, 48, 50
2, 45143, Note_on_c, 0, 74, 62
2, 45162, Note_on_c, 0, 75, 0
2, 45174, Control_c, 0, 64, 127
2, 45229, Note_on_c, 0, 36, 0
2, 45245, Note_on_c, 0, 48, 0
2, 45245, Note_on_c, 0, 74, 0
2, 45278, Note_on_c, 0, 53, 49
2, 45278, Note_on_c, 0, 57, 50
2, 45278, Note_on_c, 0, 63, 54
2, 45278, Note_on_c, 0, 72, 63
2, 45327, Control_c, 0, 64, 0
2, 45343, Note_on_c, 0, 63, 0
2, 45343, Note_on_c, 0, 57, 0
2, 45358, Note_on_c, 0, 72, 0
2, 45359, Note_on_c, 0, 53, 0
2, 45402, Note_on_c, 0, 29, 48
2, 45402, Note_on_c, 0, 41, 48
2, 45402, Note_on_c, 0, 67, 50
2, 45465, Note_on_c, 0, 29, 0
2, 45480, Note_on_c, 0, 67, 0
2, 45480, Note_on_c, 0, 41, 0
2, 45525, Note_on_c, 0, 53, 52
2, 45526, Note_on_c, 0, 57, 53
2, 45526, Note_on_c, 0, 63, 52
2, 45526, Note_on_c, 0, 69, 50
2, 45592, Note_on_c, 0, 69, 0
2, 45592, Note_on_c, 0, 63, 0
2, 45592, Note_on_c, 0, 57, 0
2, 45606, Note_on_c, 0, 53, 0
2, 45649, Control_c, 0, 64, 127
2, 45649, Note_on_c, 0, 34, 59
2, 45649, Note_on_c, 0, 46, 58
2, 45649, Note_on_c, 0, 70, 53
2, 45715, Note_on_c, 0, 77, 61
2, 45716, Note_on_c, 0, 34, 0
2, 45717, Note_on_c, 0, 70, 0
2, 45731, Note_on_c, 0, 46, 0
2, 45778, Note_on_c, 0, 58, 52
2, 45778, Note_on_c, 0, 62, 55
2, 45779, Note_on_c, 0, 74, 53
2, 45793, Note_on_c, 0, 53, 48
2, 45800, Note_on_c, 0, 77, 0
2, 45811, Control_c, 0, 64, 0
2, 45841, Note_on_c, 0, 70, 52
2, 45859, Note_on_c, 0, 58, 0
2, 45859, Note_on_c, 0, 53, 0
2, 45859, Note_on_c, 0, 62, 0
2, 45873, Note_on_c, 0, 74, 0
2, 45899, Note_on_c, 0, 29, 49
2, 45899, Note_on_c, 0, 41, 47
2, 45900, Note_on_c, 0, 67, 61
2, 45902, Note_on_c, 0, 70, 0
2, 45960, Note_on_c, 0, 41, 0
2, 45961, Note_on_c, 0, 29, 0
2, 46027, Note_on_c, 0, 53, 53
2, 46027, Note_on_c, 0, 58, 51
2, 46027, Note_on_c, 0, 62, 52
2, 46093, Note_on_c, 0, 58, 0
2, 46094, Note_on_c, 0, 67, 0
2, 46108, Note_on_c, 0, 62, 0
2, 46109, Note_on_c, 0, 53, 0
2, 46154, Note_on_c, 0, 34, 59
2, 46155, Note_on_c, 0, 46, 54
2, 46155, Note_on_c, 0, 77, 76
2, 46155, Note_on_c, 0, 89, 72
2, 46172, Control_c, 0, 64, 127
2, 46217, Note_on_c, 0, 76, 53
2, 46217, Note_on_c, 0, 88, 53
2, 46233, Note_on_c, 0, 34, 0
2, 46234, Note_on_c, 0, 89, 0
2, 46234, Note_on_c, 0, 77, 0
2, 46248, Note_on_c, 0, 46, 0
2, 46263, Control_c, 0, 64, 0
2, 46276, Note_on_c, 0, 89, 58
2, 46277, Note_on_c, 0, 58, 58
2, 46277, Note_on_c, 0, 62, 60
2, 46277, Note_on_c, 0, 77, 57
2, 46294, Note_on_c, 0, 53, 56
2, 46295, Note_on_c, 0, 88, 0
2, 46309, Note_on_c, 0, 76, 0
2, 46340, Note_on_c, 0, 91, 66
2, 46341, Note_on_c, 0, 58, 0
2, 46341, Note_on_c, 0, 62, 0
2, 46341, Note_on_c, 0, 79, 59
2, 46342, Note_on_c, 0, 89, 0
2, 46356, Note_on_c, 0, 53, 0
2, 46357, Note_on_c, 0, 77, 0
2, 46401, Note_on_c, 0, 29, 55
2, 46401, Note_on_c, 0, 41, 57
2, 46449, Note_on_c, 0, 91, 0
2, 46449, Note_on_c, 0, 79, 0
2, 46463, Note_on_c, 0, 77, 66
2, 46463, Note_on_c, 0, 89, 66
2, 46464, Note_on_c, 0, 29, 0
2, 46479, Note_on_c, 0, 41, 0
2, 46521, Note_on_c, 0, 58, 57
2, 46521, Note_on_c, 0, 62, 53
2, 46521, Note_on_c, 0, 72, 59
2, 46521, Note_on_c, 0, 84, 65
2, 46525, Note_on_c, 0, 89, 0
2, 46537, Note_on_c, 0, 53, 58
2, 46538, Note_on_c, 0, 77, 0
2, 46584, Note_on_c, 0, 74, 65
2, 46584, Note_on_c, 0, 86, 65
2, 46585, Note_on_c, 0, 58, 0
2, 46585, Note_on_c, 0, 53, 0
2, 46600, Note_on_c, 0, 62, 0
2, 46601, Note_on_c, 0, 84, 0
2, 46617, Note_on_c, 0, 72, 0
2, 46632, Control_c, 0, 64, 127
2, 46648, Note_on_c, 0, 36, 60
2, 46648, Note_on_c, 0, 48, 58
2, 46648, Note_on_c, 0, 75, 63
2, 46648, Note_on_c, 0, 87, 60
2, 46664, Note_on_c, 0, 86, 0
2, 46664, Note_on_c, 0, 74, 0
2, 46708, Note_on_c, 0, 86, 65
2, 46709, Note_on_c, 0, 74, 62
2, 46711, Note_on_c, 0, 75, 0
2, 46711, Note_on_c, 0, 87, 0
2, 46726, Note_on_c, 0, 36, 0
2, 46726, Note_on_c, 0, 48, 0
2, 46767, Note_on_c, 0, 57, 53
2, 46767, Note_on_c, 0, 75, 61
2, 46768, Note_on_c, 0, 63, 57
2, 46768, Note_on_c, 0, 87, 65
2, 46770, Note_on_c, 0, 74, 0
2, 46770, Note_on_c, 0, 86, 0
2, 46770, Control_c, 0, 64, 0
2, 46782, Note_on_c, 0, 53, 57
2, 46783, Note_on_c, 0, 75, 0
2, 46827, Note_on_c, 0, 69, 68
2, 46827, Note_on_c, 0, 75, 67
2, 46827, Note_on_c, 0, 77, 68
2, 46827, Note_on_c, 0, 81, 71
2, 46828, Note_on_c, 0, 53, 0
2, 46828, Note_on_c, 0, 57, 0
2, 46829, Note_on_c, 0, 63, 0
2, 46829, Note_on_c, 0, 87, 0
2, 46889, Note_on_c, 0, 29, 56
2, 46889, Note_on_c, 0, 41, 60
2, 46955, Note_on_c, 0, 41, 0
2, 46955, Note_on_c, 0, 29, 0
2, 47012, Note_on_c, 0, 57, 60
2, 47013, Note_on_c, 0, 53, 58
2, 47013, Note_on_c, 0, 63, 59
2, 47074, Note_on_c, 0, 53, 0
2, 47074, Note_on_c, 0, 57, 0
2, 47075, Note_on_c, 0, 81, 0
2, 47075, Note_on_c, 0, 69, 0
2, 47075, Note_on_c, 0, 77, 0
2, 47075, Note_on_c, 0, 63, 0
2, 47075, Note_on_c, 0, 75, 0
2, 47136, Note_on_c, 0, 36, 56
2, 47136, Note_on_c, 0, 48, 53
2, 47136, Note_on_c, 0, 69, 54
2, 47136, Note_on_c, 0, 81, 54
2, 47184, Control_c, 0, 64, 127
2, 47200, Note_on_c, 0, 68, 60
2, 47200, Note_on_c, 0, 80, 54
2, 47201, Note_on_c, 0, 69, 0
2, 47217, Note_on_c, 0, 81, 0
2, 47217, Note_on_c, 0, 36, 0
2, 47217, Note_on_c, 0, 48, 0
2, 47260, Note_on_c, 0, 53, 58
2, 47261, Note_on_c, 0, 60, 53
2, 47261, Note_on_c, 0, 63, 55
2, 47261, Note_on_c, 0, 69, 72
2, 47261, Note_on_c, 0, 81, 72
2, 47263, Note_on_c, 0, 80, 0
2, 47263, Note_on_c, 0, 68, 0
2, 47263, Control_c, 0, 64, 0
2, 47320, Note_on_c, 0, 74, 66
2, 47321, Note_on_c, 0, 86, 70
2, 47322, Note_on_c, 0, 60, 0
2, 47322, Note_on_c, 0, 69, 0
2, 47323, Note_on_c, 0, 53, 0
2, 47323, Note_on_c, 0, 63, 0
2, 47339, Note_on_c, 0, 81, 0
2, 47387, Note_on_c, 0, 29, 53
2, 47387, Note_on_c, 0, 41, 57
2, 47422, Note_on_c, 0, 74, 0
2, 47429, Note_on_c, 0, 86, 0
2, 47454, Note_on_c, 0, 72, 53
2, 47455, Note_on_c, 0, 84, 54
2, 47456, Note_on_c, 0, 41, 0
2, 47457, Note_on_c, 0, 29, 0
2, 47522, Note_on_c, 0, 57, 48
2, 47523, Note_on_c, 0, 53, 50
2, 47523, Note_on_c, 0, 63, 54
2, 47523, Note_on_c, 0, 67, 53
2, 47523, Note_on_c, 0, 79, 54
2, 47541, Note_on_c, 0, 72, 0
2, 47541, Note_on_c, 0, 84, 0
2, 47587, Note_on_c, 0, 69, 54
2, 47588, Note_on_c, 0, 57, 0
2, 47589, Note_on_c, 0, 63, 0
2, 47602, Note_on_c, 0, 81, 53
2, 47603, Note_on_c, 0, 79, 0
2, 47603, Note_on_c, 0, 67, 0
2, 47604, Note_on_c, 0, 53, 0
2, 47645, Note_on_c, 0, 34, 53
2, 47645, Note_on_c, 0, 70, 58
2, 47646, Note_on_c, 0, 46, 52
2, 47646, Note_on_c, 0, 82, 55
2, 47661, Control_c, 0, 64, 127
2, 47662, Note_on_c, 0, 69, 0
2, 47678, Note_on_c, 0, 81, 0
2, 47708, Note_on_c, 0, 69, 60
2, 47709, Note_on_c, 0, 34, 0
2, 47723, Note_on_c, 0, 81, 59
2, 47724, Note_on_c, 0, 82, 0
2, 47724, Note_on_c, 0, 70, 0
2, 47740, Note_on_c, 0, 46, 0
2, 47758, Control_c, 0, 64, 0
2, 47770, Note_on_c, 0, 62, 53
2, 47771, Note_on_c, 0, 58, 51
2, 47771, Note_on_c, 0, 82, 56
2, 47772, Note_on_c, 0, 69, 0
2, 47788, Note_on_c, 0, 81, 0
2, 47788, Note_on_c, 0, 53, 48
2, 47832, Note_on_c, 0, 79, 67
2, 47833, Note_on_c, 0, 67, 72
2, 47833, Note_on_c, 0, 70, 69
2, 47833, Note_on_c, 0, 74, 70
2, 47834, Note_on_c, 0, 58, 0
2, 47834, Note_on_c, 0, 62, 0
2, 47835, Note_on_c, 0, 53, 0
2, 47849, Note_on_c, 0, 82, 0
2, 47893, Note_on_c, 0, 29, 47
2, 47893, Note_on_c, 0, 41, 54
2, 47974, Note_on_c, 0, 29, 0
2, 47987, Note_on_c, 0, 41, 0
2, 48020, Note_on_c, 0, 53, 53
2, 48020, Note_on_c, 0, 58, 48
2, 48020, Note_on_c, 0, 62, 48
2, 48082, Note_on_c, 0, 62, 0
2, 48082, Note_on_c, 0, 53, 0
2, 48082, Note_on_c, 0, 74, 0
2, 48082, Note_on_c, 0, 79, 0
2, 48082, Note_on_c, 0, 70, 0
2, 48082, Note_on_c, 0, 58, 0
2, 48082, Note_on_c, 0, 67, 0
2, 48126, Control_c, 0, 64, 127
2, 48137, Note_on_c, 0, 75, 60
2, 48141, Note_on_c, 0, 39, 59
2, 48141, Note_on_c, 0, 67, 58
2, 48141, Note_on_c, 0, 87, 59
2, 48142, Note_on_c, 0, 51, 63
2, 48189, Note_on_c, 0, 87, 0
2, 48189, Note_on_c, 0, 67, 0
2, 48189, Note_on_c, 0, 39, 0
2, 48203, Note_on_c, 0, 51, 0
2, 48204, Note_on_c, 0, 75, 0
2, 48235, Control_c, 0, 64, 0
2, 48264, Note_on_c, 0, 55, 52
2, 48264, Note_on_c, 0, 82, 53
2, 48265, Note_on_c, 0, 58, 48
2, 48265, Note_on_c, 0, 63, 50
2, 48265, Note_on_c, 0, 67, 49
2, 48266, Note_on_c, 0, 70, 49
2, 48332, Note_on_c, 0, 67, 0
2, 48332, Note_on_c, 0, 58, 0
2, 48333, Note_on_c, 0, 63, 0
2, 48333, Note_on_c, 0, 82, 0
2, 48333, Note_on_c, 0, 70, 0
2, 48347, Note_on_c, 0, 55, 0
2, 48393, Note_on_c, 0, 55, 47
2, 48393, Note_on_c, 0, 72, 49
2, 48393, Note_on_c, 0, 84, 52
2, 48394, Note_on_c, 0, 43, 51
2, 48394, Note_on_c, 0, 70, 50
2, 48458, Note_on_c, 0, 70, 0
2, 48458, Note_on_c, 0, 84, 0
2, 48458, Note_on_c, 0, 43, 0
2, 48473, Note_on_c, 0, 72, 0
2, 48473, Note_on_c, 0, 55, 0
2, 48519, Note_on_c, 0, 54, 47
2, 48520, Note_on_c, 0, 42, 50
2, 48520, Note_on_c, 0, 70, 53
2, 48520, Note_on_c, 0, 73, 53
2, 48520, Note_on_c, 0, 85, 48
2, 48586, Note_on_c, 0, 42, 0
2, 48586, Note_on_c, 0, 54, 0
2, 48605, Note_on_c, 0, 73, 0
2, 48605, Note_on_c, 0, 70, 0
2, 48605, Note_on_c, 0, 85, 0
2, 48641, Note_on_c, 0, 70, 49
2, 48648, Note_on_c, 0, 53, 50
2, 48649, Note_on_c, 0, 41, 47
2, 48649, Note_on_c, 0, 74, 53
2, 48649, Note_on_c, 0, 86, 54
2, 48696, Control_c, 0, 64, 127
2, 48698, Note_on_c, 0, 41, 0
2, 48711, Note_on_c, 0, 73, 50
2, 48712, Note_on_c, 0, 85, 52
2, 48714, Note_on_c, 0, 74, 0
2, 48714, Note_on_c, 0, 86, 0
2, 48714, Note_on_c, 0, 53, 0
2, 48773, Note_on_c, 0, 62, 53
2, 48774, Note_on_c, 0, 58, 49
2, 48774, Note_on_c, 0, 74, 54
2, 48774, Note_on_c, 0, 86, 48
2, 48791, Note_on_c, 0, 53, 53
2, 48792, Note_on_c, 0, 85, 0
2, 48792, Note_on_c, 0, 73, 0
2, 48792, Control_c, 0, 64, 0
2, 48837, Note_on_c, 0, 91, 61
2, 48838, Note_on_c, 0, 79, 57
2, 48855, Note_on_c, 0, 86, 0
2, 48855, Note_on_c, 0, 53, 0
2, 48855, Note_on_c, 0, 58, 0
2, 48855, Note_on_c, 0, 62, 0
2, 48855, Note_on_c, 0, 74, 0
2, 48903, Note_on_c, 0, 41, 54
2, 48904, Note_on_c, 0, 29, 47
2, 48920, Control_c, 0, 67, 127
2, 48936, Note_on_c, 0, 79, 0
2, 48937, Note_on_c, 0, 91, 0
2, 48966, Note_on_c, 0, 77, 41
2, 48966, Note_on_c, 0, 89, 43
2, 48984, Note_on_c, 0, 29, 0
2, 48984, Note_on_c, 0, 41, 0
2, 49025, Note_on_c, 0, 53, 54
2, 49026, Note_on_c, 0, 58, 49
2, 49026, Note_on_c, 0, 86, 45
2, 49027, Note_on_c, 0, 62, 48
2, 49027, Note_on_c, 0, 74, 42
2, 49044, Note_on_c, 0, 70, 0
2, 49044, Note_on_c, 0, 89, 0
2, 49044, Note_on_c, 0, 77, 0
2, 49085, Note_on_c, 0, 70, 48
2, 49089, Note_on_c, 0, 82, 42
2, 49091, Note_on_c, 0, 58, 0
2, 49107, Note_on_c, 0, 86, 0
2, 49107, Note_on_c, 0, 62, 0
2, 49108, Note_on_c, 0, 53, 0
2, 49108, Note_on_c, 0, 74, 0
2, 49151, Note_on_c, 0, 67, 48
2, 49154, Note_on_c, 0, 79, 44
2, 49155, Note_on_c, 0, 48, 47
2, 49156, Note_on_c, 0, 36, 51
2, 49173, Control_c, 0, 64, 127
2, 49174, Note_on_c, 0, 70, 0
2, 49174, Note_on_c, 0, 82, 0
2, 49220, Note_on_c, 0, 68, 42
2, 49220, Note_on_c, 0, 80, 46
2, 49237, Note_on_c, 0, 79, 0
2, 49237, Note_on_c, 0, 67, 0
2, 49238, Note_on_c, 0, 36, 0
2, 49238, Control_c, 0, 67, 0
2, 49252, Note_on_c, 0, 48, 0
2, 49270, Note_on_c, 0, 69, 48
2, 49281, Note_on_c, 0, 53, 52
2, 49281, Note_on_c, 0, 57, 51
2, 49281, Note_on_c, 0, 63, 48
2, 49281, Note_on_c, 0, 81, 65
2, 49282, Note_on_c, 0, 80, 0
2, 49282, Note_on_c, 0, 68, 0
2, 49296, Note_on_c, 0, 69, 0
2, 49313, Control_c, 0, 64, 0
2, 49338, Note_on_c, 0, 77, 62
2, 49338, Note_on_c, 0, 89, 59
2, 49339, Note_on_c, 0, 69, 61
2, 49341, Note_on_c, 0, 57, 0
2, 49341, Note_on_c, 0, 53, 0
2, 49341, Note_on_c, 0, 63, 0
2, 49367, Note_on_c, 0, 81, 0
2, 49400, Note_on_c, 0, 29, 54
2, 49400, Note_on_c, 0, 41, 49
2, 49434, Note_on_c, 0, 69, 0
2, 49434, Note_on_c, 0, 77, 0
2, 49434, Note_on_c, 0, 89, 0
2, 49463, Note_on_c, 0, 75, 49
2, 49464, Note_on_c, 0, 41, 0
2, 49464, Note_on_c, 0, 87, 48
2, 49465, Note_on_c, 0, 29, 0
2, 49525, Note_on_c, 0, 57, 49
2, 49525, Note_on_c, 0, 63, 54
2, 49525, Note_on_c, 0, 79, 50
2, 49526, Note_on_c, 0, 67, 52
2, 49528, Note_on_c, 0, 87, 0
2, 49529, Note_on_c, 0, 75, 0
2, 49540, Note_on_c, 0, 53, 54
2, 49584, Note_on_c, 0, 69, 53
2, 49590, Note_on_c, 0, 53, 0
2, 49590, Note_on_c, 0, 79, 0
2, 49590, Note_on_c, 0, 57, 0
2, 49590, Note_on_c, 0, 63, 0
2, 49590, Note_on_c, 0, 67, 0
2, 49600, Note_on_c, 0, 81, 48
2, 49633, Control_c, 0, 64, 127
2, 49648, Note_on_c, 0, 34, 50
2, 49649, Note_on_c, 0, 46, 51
2, 49649, Note_on_c, 0, 70, 66
2, 49649, Note_on_c, 0, 74, 72
2, 49649, Note_on_c, 0, 77, 72
2, 49649, Note_on_c, 0, 82, 71
2, 49667, Note_on_c, 0, 81, 0
2, 49667, Note_on_c, 0, 69, 0
2, 49714, Note_on_c, 0, 34, 0
2, 49728, Note_on_c, 0, 46, 0
2, 49760, Control_c, 0, 64, 0
2, 49770, Note_on_c, 0, 53, 58
2, 49771, Note_on_c, 0, 58, 53
2, 49771, Note_on_c, 0, 62, 57
2, 49830, Note_on_c, 0, 62, 0
2, 49830, Note_on_c, 0, 58, 0
2, 49831, Note_on_c, 0, 53, 0
2, 49887, Note_on_c, 0, 53, 58
2, 49887, Note_on_c, 0, 58, 56
2, 49887, Note_on_c, 0, 62, 54
2, 49934, Note_on_c, 0, 77, 0
2, 49950, Note_on_c, 0, 74, 0
2, 49950, Note_on_c, 0, 82, 0
2, 49950, Note_on_c, 0, 70, 0
2, 50010, Note_on_c, 0, 77, 53
2, 50010, Note_on_c, 0, 89, 55
2, 50012, Note_on_c, 0, 58, 0
2, 50028, Note_on_c, 0, 62, 0
2, 50028, Note_on_c, 0, 53, 0
2, 50075, Note_on_c, 0, 77, 0
2, 50075, Note_on_c, 0, 89, 0
2, 50136, Note_on_c, 0, 89, 53
2, 50136, Note_on_c, 0, 101, 49
2, 50137, Note_on_c, 0, 34, 51
2, 50137, Note_on_c, 0, 46, 54
2, 50138, Control_c, 0, 64, 127
2, 50200, Note_on_c, 0, 88, 53
2, 50200, Note_on_c, 0, 100, 50
2, 50217, Note_on_c, 0, 101, 0
2, 50217, Note_on_c, 0, 89, 0
2, 50219, Note_on_c, 0, 34, 0
2, 50233, Note_on_c, 0, 46, 0
2, 50262, Note_on_c, 0, 62, 53
2, 50262, Note_on_c, 0, 89, 48
2, 50262, Note_on_c, 0, 101, 53
2, 50263, Note_on_c, 0, 58, 48
2, 50264, Note_on_c, 0, 53, 48
2, 50280, Note_on_c, 0, 88, 0
2, 50280, Note_on_c, 0, 100, 0
2, 50282, Control_c, 0, 64, 0
2, 50326, Note_on_c, 0, 103, 57
2, 50327, Note_on_c, 0, 91, 58
2, 50343, Note_on_c, 0, 62, 0
2, 50343, Note_on_c, 0, 58, 0
2, 50343, Note_on_c, 0, 89, 0
2, 50343, Note_on_c, 0, 101, 0
2, 50343, Note_on_c, 0, 53, 0
2, 50386, Note_on_c, 0, 29, 51
2, 50386, Note_on_c, 0, 41, 47
2, 50418, Note_on_c, 0, 91, 0
2, 50418, Note_on_c, 0, 103, 0
2, 50429, Note_on_c, 0, 89, 49
2, 50430, Note_on_c, 0, 101, 54
2, 50466, Note_on_c, 0, 29, 0
2, 50466, Note_on_c, 0, 41, 0
2, 50509, Note_on_c, 0, 53, 54
2, 50511, Note_on_c, 0, 62, 51
2, 50511, Note_on_c, 0, 84, 52
2, 50511, Note_on_c, 0, 96, 53
2, 50512, Note_on_c, 0, 58, 51
2, 50528, Note_on_c, 0, 89, 0
2, 50528, Note_on_c, 0, 101, 0
2, 50576, Note_on_c, 0, 86, 52
2, 50576, Note_on_c, 0, 98, 54
2, 50578, Note_on_c, 0, 96, 0
2, 50578, Note_on_c, 0, 84, 0
2, 50578, Note_on_c, 0, 58, 0
2, 50593, Note_on_c, 0, 53, 0
2, 50593, Note_on_c, 0, 62, 0
2, 50639, Control_c, 0, 64, 127
2, 50640, Note_on_c, 0, 36, 53
2, 50640, Note_on_c, 0, 48, 54
2, 50640, Note_on_c, 0, 87, 50
2, 50640, Note_on_c, 0, 99, 53
2, 50643, Note_on_c, 0, 86, 0
2, 50644, Note_on_c, 0, 98, 0
2, 50702, Note_on_c, 0, 98, 54
2, 50703, Note_on_c, 0, 86, 50
2, 50720, Note_on_c, 0, 87, 0
2, 50720, Note_on_c, 0, 99, 0
2, 50734, Note_on_c, 0, 36, 0
2, 50750, Note_on_c, 0, 48, 0
2, 50763, Note_on_c, 0, 53, 51
2, 50763, Note_on_c, 0, 63, 48
2, 50763, Note_on_c, 0, 87, 51
2, 50764, Note_on_c, 0, 57, 53
2, 50764, Note_on_c, 0, 99, 53
2, 50765, Control_c, 0, 64, 0
2, 50766, Note_on_c, 0, 98, 0
2, 50782, Note_on_c, 0, 87, 0
2, 50783, Note_on_c, 0, 86, 0
2, 50829, Note_on_c, 0, 81, 53
2, 50829, Note_on_c, 0, 87, 56
2, 50829, Note_on_c, 0, 89, 60
2, 50829, Note_on_c, 0, 93, 60
2, 50845, Note_on_c, 0, 57, 0
2, 50846, Note_on_c, 0, 63, 0
2, 50862, Note_on_c, 0, 53, 0
2, 50863, Note_on_c, 0, 99, 0
2, 50892, Note_on_c, 0, 29, 52
2, 50892, Note_on_c, 0, 41, 53
2, 50941, Note_on_c, 0, 29, 0
2, 50971, Note_on_c, 0, 41, 0
2, 51016, Note_on_c, 0, 53, 52
2, 51016, Note_on_c, 0, 57, 49
2, 51016, Note_on_c, 0, 63, 52
2, 51050, Note_on_c, 0, 89, 0
2, 51050, Note_on_c, 0, 81, 0
2, 51050, Note_on_c, 0, 93, 0
2, 51050, Note_on_c, 0, 87, 0
2, 51066, Note_on_c, 0, 57, 0
2, 51067, Note_on_c, 0, 63, 0
2, 51079, Control_c, 0, 67, 127
2, 51080, Note_on_c, 0, 53, 0
2, 51142, Note_on_c, 0, 93, 47
2, 51143, Note_on_c, 0, 36, 57
2, 51143, Note_on_c, 0, 48, 59
2, 51143, Note_on_c, 0, 81, 52
2, 51173, Control_c, 0, 64, 127
2, 51203, Note_on_c, 0, 80, 50
2, 51203, Note_on_c, 0, 92, 48
2, 51207, Note_on_c, 0, 93, 0
2, 51220, Note_on_c, 0, 81, 0
2, 51220, Note_on_c, 0, 36, 0
2, 51221, Note_on_c, 0, 48, 0
2, 51262, Note_on_c, 0, 60, 51
2, 51263, Note_on_c, 0, 63, 51
2, 51263, Note_on_c, 0, 81, 50
2, 51263, Note_on_c, 0, 93, 50
2, 51278, Note_on_c, 0, 53, 53
2, 51282, Note_on_c, 0, 92, 0
2, 51282, Note_on_c, 0, 80, 0
2, 51282, Control_c, 0, 64, 0
2, 51282, Control_c, 0, 67, 0
2, 51325, Note_on_c, 0, 98, 51
2, 51326, Note_on_c, 0, 86, 54
2, 51343, Note_on_c, 0, 60, 0
2, 51343, Note_on_c, 0, 53, 0
2, 51344, Note_on_c, 0, 93, 0
2, 51344, Note_on_c, 0, 63, 0
2, 51360, Note_on_c, 0, 81, 0
2, 51390, Note_on_c, 0, 29, 54
2, 51390, Note_on_c, 0, 41, 50
2, 51390, Control_c, 0, 67, 127
2, 51408, Note_on_c, 0, 86, 0
2, 51409, Note_on_c, 0, 98, 0
2, 51443, Note_on_c, 0, 29, 0
2, 51443, Control_c, 0, 67, 0
2, 51456, Note_on_c, 0, 96, 48
2, 51457, Note_on_c, 0, 84, 52
2, 51458, Note_on_c, 0, 41, 0
2, 51488, Control_c, 0, 67, 127
2, 51520, Note_on_c, 0, 53, 51
2, 51520, Note_on_c, 0, 57, 52
2, 51520, Note_on_c, 0, 63, 49
2, 51520, Note_on_c, 0, 91, 51
2, 51521, Note_on_c, 0, 79, 48
2, 51538, Note_on_c, 0, 84, 0
2, 51538, Note_on_c, 0, 96, 0
2, 51581, Note_on_c, 0, 81, 49
2, 51581, Note_on_c, 0, 93, 53
2, 51583, Note_on_c, 0, 57, 0
2, 51583, Note_on_c, 0, 63, 0
2, 51583, Note_on_c, 0, 79, 0
2, 51584, Note_on_c, 0, 91, 0
2, 51600, Note_on_c, 0, 53, 0
2, 51645, Note_on_c, 0, 34, 59
2, 51645, Note_on_c, 0, 46, 63
2, 51646, Control_c, 0, 64, 127
2, 51647, Note_on_c, 0, 82, 48
2, 51647, Note_on_c, 0, 94, 52
2, 51665, Note_on_c, 0, 93, 0
2, 51681, Note_on_c, 0, 81, 0
2, 51712, Note_on_c, 0, 34, 0
2, 51712, Note_on_c, 0, 81, 48
2, 51713, Note_on_c, 0, 93, 48
2, 51729, Note_on_c, 0, 46, 0
2, 51730, Note_on_c, 0, 82, 0
2, 51731, Note_on_c, 0, 94, 0
2, 51748, Control_c, 0, 67, 0
2, 51776, Note_on_c, 0, 58, 53
2, 51776, Note_on_c, 0, 62, 47
2, 51776, Note_on_c, 0, 82, 51
2, 51777, Note_on_c, 0, 94, 53
2, 51781, Note_on_c, 0, 93, 0
2, 51792, Note_on_c, 0, 53, 47
2, 51793, Note_on_c, 0, 82, 0
2, 51793, Control_c, 0, 64, 0
2, 51794, Note_on_c, 0, 81, 0
2, 51840, Note_on_c, 0, 79, 61
2, 51840, Note_on_c, 0, 82, 62
2, 51840, Note_on_c, 0, 86, 62
2, 51840, Note_on_c, 0, 91, 64
2, 51842, Note_on_c, 0, 62, 0
2, 51842, Note_on_c, 0, 58, 0
2, 51844, Note_on_c, 0, 94, 0
2, 51857, Note_on_c, 0, 53, 0
2, 51905, Note_on_c, 0, 29, 48
2, 51906, Note_on_c, 0, 41, 54
2, 51955, Note_on_c, 0, 29, 0
2, 51972, Note_on_c, 0, 41, 0
2, 51988, Note_on_c, 0, 82, 0
2, 51988, Note_on_c, 0, 86, 0
2, 51988, Note_on_c, 0, 91, 0
2, 51988, Note_on_c, 0, 79, 0
2, 52034, Note_on_c, 0, 58, 63
2, 52035, Note_on_c, 0, 53, 61
2, 52035, Note_on_c, 0, 62, 64
2, 52035, Note_on_c, 0, 86, 67
2, 52035, Note_on_c, 0, 98, 62
2, 52082, Note_on_c, 0, 58, 0
2, 52098, Note_on_c, 0, 53, 0
2, 52098, Note_on_c, 0, 62, 0
2, 52129, Note_on_c, 0, 98, 0
2, 52157, Note_on_c, 0, 46, 54
2, 52157, Note_on_c, 0, 58, 52
2, 52157, Note_on_c, 0, 96, 66
2, 52158, Note_on_c, 0, 84, 62
2, 52172, Control_c, 0, 64, 127
2, 52176, Note_on_c, 0, 86, 0
2, 52240, Note_on_c, 0, 46, 0
2, 52240, Note_on_c, 0, 58, 0
2, 52241, Note_on_c, 0, 84, 0
2, 52242, Note_on_c, 0, 96, 0
2, 52255, Control_c, 0, 64, 0
2, 52289, Note_on_c, 0, 53, 56
2, 52289, Note_on_c, 0, 58, 55
2, 52289, Note_on_c, 0, 62, 58
2, 52289, Note_on_c, 0, 82, 59
2, 52289, Note_on_c, 0, 94, 54
2, 52358, Note_on_c, 0, 58, 0
2, 52359, Note_on_c, 0, 82, 0
2, 52359, Note_on_c, 0, 94, 0
2, 52372, Note_on_c, 0, 62, 0
2, 52373, Note_on_c, 0, 53, 0
2, 52416, Note_on_c, 0, 50, 58
2, 52417, Note_on_c, 0, 62, 54
2, 52417, Note_on_c, 0, 91, 57
2, 52418, Note_on_c, 0, 79, 55
2, 52499, Note_on_c, 0, 79, 0
2, 52500, Note_on_c, 0, 91, 0
2, 52546, Note_on_c, 0, 49, 51
2, 52547, Note_on_c, 0, 50, 0
2, 52547, Note_on_c, 0, 61, 54
2, 52547, Note_on_c, 0, 80, 51
2, 52547, Note_on_c, 0, 92, 53
2, 52563, Note_on_c, 0, 62, 0
2, 52614, Note_on_c, 0, 80, 0
2, 52615, Note_on_c, 0, 92, 0
2, 52644, Control_c, 0, 64, 127
2, 52676, Note_on_c, 0, 48, 47
2, 52677, Note_on_c, 0, 60, 44
2, 52677, Note_on_c, 0, 81, 49
2, 52677, Note_on_c, 0, 93, 50
2, 52694, Note_on_c, 0, 61, 0
2, 52694, Note_on_c, 0, 49, 0
2, 52739, Note_on_c, 0, 89, 53
2, 52740, Note_on_c, 0, 101, 54
2, 52757, Note_on_c, 0, 81, 0
2, 52758, Note_on_c, 0, 93, 0
2, 52803, Note_on_c, 0, 63, 41
2, 52804, Note_on_c, 0, 53, 41
2, 52804, Note_on_c, 0, 57, 46
2, 52804, Note_on_c, 0, 87, 59
2, 52805, Note_on_c, 0, 60, 0
2, 52805, Note_on_c, 0, 99, 56
2, 52807, Note_on_c, 0, 89, 0
2, 52807, Note_on_c, 0, 101, 0
2, 52820, Note_on_c, 0, 48, 0
2, 52853, Control_c, 0, 64, 0
2, 52869, Note_on_c, 0, 84, 55
2, 52869, Note_on_c, 0, 96, 60
2, 52885, Note_on_c, 0, 57, 0
2, 52886, Note_on_c, 0, 63, 0
2, 52886, Note_on_c, 0, 53, 0
2, 52887, Note_on_c, 0, 87, 0
2, 52887, Note_on_c, 0, 99, 0
2, 52932, Note_on_c, 0, 29, 46
2, 52932, Note_on_c, 0, 41, 47
2, 52933, Note_on_c, 0, 81, 53
2, 52934, Note_on_c, 0, 93, 59
2, 52950, Note_on_c, 0, 84, 0
2, 52951, Note_on_c, 0, 96, 0
2, 52981, Note_on_c, 0, 29, 0
2, 52997, Note_on_c, 0, 41, 0
2, 53015, Note_on_c, 0, 93, 0
2, 53028, Note_on_c, 0, 81, 0
2, 53057, Note_on_c, 0, 63, 54
2, 53058, Note_on_c, 0, 53, 58
2, 53058, Note_on_c, 0, 57, 54
2, 53058, Note_on_c, 0, 87, 60
2, 53059, Note_on_c, 0, 99, 62
2, 53123, Note_on_c, 0, 57, 0
2, 53123, Note_on_c, 0, 63, 0
2, 53123, Note_on_c, 0, 53, 0
2, 53124, Note_on_c, 0, 87, 0
2, 53125, Note_on_c, 0, 99, 0
2, 53170, Control_c, 0, 64, 127
2, 53186, Note_on_c, 0, 36, 42
2, 53187, Note_on_c, 0, 48, 44
2, 53187, Note_on_c, 0, 86, 66
2, 53188, Note_on_c, 0, 98, 66
2, 53236, Note_on_c, 0, 86, 0
2, 53238, Note_on_c, 0, 98, 0
2, 53251, Note_on_c, 0, 36, 0
2, 53252, Note_on_c, 0, 48, 0
2, 53311, Note_on_c, 0, 53, 46
2, 53311, Note_on_c, 0, 57, 44
2, 53311, Note_on_c, 0, 63, 48
2, 53311, Note_on_c, 0, 84, 66
2, 53312, Note_on_c, 0, 96, 60
2, 53328, Control_c, 0, 64, 0
2, 53376, Note_on_c, 0, 96, 0
2, 53376, Note_on_c, 0, 63, 0
2, 53376, Note_on_c, 0, 57, 0
2, 53391, Note_on_c, 0, 53, 0
2, 53391, Note_on_c, 0, 84, 0
2, 53437, Note_on_c, 0, 29, 45
2, 53437, Note_on_c, 0, 41, 45
2, 53437, Note_on_c, 0, 79, 51
2, 53438, Note_on_c, 0, 91, 54
2, 53486, Note_on_c, 0, 29, 0
2, 53499, Note_on_c, 0, 41, 0
2, 53499, Note_on_c, 0, 79, 0
2, 53500, Note_on_c, 0, 91, 0
2, 53558, Note_on_c, 0, 53, 43
2, 53558, Note_on_c, 0, 57, 43
2, 53558, Note_on_c, 0, 63, 42
2, 53558, Note_on_c, 0, 81, 53
2, 53558, Note_on_c, 0, 93, 53
2, 53626, Note_on_c, 0, 93, 0
2, 53626, Note_on_c, 0, 63, 0
2, 53626, Note_on_c, 0, 57, 0
2, 53642, Note_on_c, 0, 53, 0
2, 53642, Note_on_c, 0, 81, 0
2, 53691, Note_on_c, 0, 94, 53
2, 53692, Note_on_c, 0, 34, 53
2, 53692, Note_on_c, 0, 46, 57
2, 53692, Note_on_c, 0, 82, 54
2, 53741, Control_c, 0, 64, 127
2, 53760, Note_on_c, 0, 94, 0
2, 53760, Note_on_c, 0, 89, 63
2, 53760, Note_on_c, 0, 101, 65
2, 53776, Note_on_c, 0, 34, 0
2, 53776, Note_on_c, 0, 82, 0
2, 53776, Note_on_c, 0, 46, 0
2, 53819, Note_on_c, 0, 58, 47
2, 53819, Note_on_c, 0, 62, 48
2, 53819, Note_on_c, 0, 86, 54
2, 53819, Note_on_c, 0, 98, 50
2, 53821, Note_on_c, 0, 89, 0
2, 53822, Note_on_c, 0, 101, 0
2, 53834, Note_on_c, 0, 53, 48
2, 53835, Control_c, 0, 64, 0
2, 53878, Note_on_c, 0, 94, 50
2, 53880, Note_on_c, 0, 62, 0
2, 53880, Note_on_c, 0, 58, 0
2, 53895, Note_on_c, 0, 53, 0
2, 53896, Note_on_c, 0, 98, 0
2, 53896, Note_on_c, 0, 86, 0
2, 53941, Note_on_c, 0, 29, 49
2, 53941, Note_on_c, 0, 41, 50
2, 53942, Note_on_c, 0, 79, 49
2, 53942, Note_on_c, 0, 82, 48
2, 53942, Note_on_c, 0, 86, 50
2, 53942, Note_on_c, 0, 91, 52
2, 53960, Note_on_c, 0, 94, 0
2, 53991, Note_on_c, 0, 29, 0
2, 54024, Note_on_c, 0, 41, 0
2, 54071, Note_on_c, 0, 62, 44
2, 54072, Note_on_c, 0, 53, 47
2, 54072, Note_on_c, 0, 58, 45
2, 54119, Note_on_c, 0, 58, 0
2, 54119, Note_on_c, 0, 62, 0
2, 54120, Note_on_c, 0, 82, 0
2, 54120, Note_on_c, 0, 91, 0
2, 54120, Note_on_c, 0, 79, 0
2, 54120, Note_on_c, 0, 86, 0
2, 54133, Note_on_c, 0, 53, 0
2, 54192, Note_on_c, 0, 34, 58
2, 54193, Note_on_c, 0, 46, 57
2, 54193, Note_on_c, 0, 89, 62
2, 54209, Control_c, 0, 64, 127
2, 54257, Note_on_c, 0, 88, 56
2, 54274, Note_on_c, 0, 34, 0
2, 54275, Note_on_c, 0, 89, 0
2, 54290, Note_on_c, 0, 46, 0
2, 54323, Note_on_c, 0, 62, 58
2, 54324, Control_c, 0, 64, 0
2, 54324, Note_on_c, 0, 53, 53
2, 54324, Note_on_c, 0, 89, 59
2, 54325, Note_on_c, 0, 58, 58
2, 54342, Note_on_c, 0, 88, 0
2, 54385, Note_on_c, 0, 91, 63
2, 54387, Note_on_c, 0, 89, 0
2, 54401, Note_on_c, 0, 58, 0
2, 54401, Note_on_c, 0, 53, 0
2, 54416, Note_on_c, 0, 62, 0
2, 54445, Note_on_c, 0, 29, 53
2, 54445, Note_on_c, 0, 41, 54
2, 54480, Note_on_c, 0, 91, 0
2, 54497, Note_on_c, 0, 29, 0
2, 54512, Note_on_c, 0, 89, 66
2, 54513, Note_on_c, 0, 41, 0
2, 54578, Note_on_c, 0, 53, 54
2, 54578, Note_on_c, 0, 58, 53
2, 54578, Note_on_c, 0, 62, 57
2, 54578, Note_on_c, 0, 84, 64
2, 54580, Note_on_c, 0, 89, 0
2, 54641, Note_on_c, 0, 86, 61
2, 54643, Note_on_c, 0, 84, 0
2, 54643, Note_on_c, 0, 58, 0
2, 54658, Note_on_c, 0, 62, 0
2, 54659, Note_on_c, 0, 53, 0
2, 54701, Note_on_c, 0, 36, 57
2, 54701, Note_on_c, 0, 87, 64
2, 54702, Note_on_c, 0, 48, 59
2, 54719, Note_on_c, 0, 86, 0
2, 54732, Control_c, 0, 64, 127
2, 54762, Note_on_c, 0, 86, 61
2, 54764, Note_on_c, 0, 87, 0
2, 54794, Note_on_c, 0, 36, 0
2, 54795, Note_on_c, 0, 48, 0
2, 54824, Note_on_c, 0, 86, 0
2, 54824, Note_on_c, 0, 57, 53
2, 54824, Note_on_c, 0, 87, 66
2, 54825, Note_on_c, 0, 53, 59
2, 54825, Note_on_c, 0, 63, 55
2, 54888, Note_on_c, 0, 87, 0
2, 54888, Note_on_c, 0, 81, 65
2, 54889, Control_c, 0, 64, 0
2, 54905, Note_on_c, 0, 57, 0
2, 54906, Note_on_c, 0, 63, 0
2, 54906, Note_on_c, 0, 53, 0
2, 54948, Note_on_c, 0, 29, 58
2, 54948, Note_on_c, 0, 41, 54
2, 55013, Note_on_c, 0, 41, 0
2, 55013, Note_on_c, 0, 29, 0
2, 55081, Note_on_c, 0, 53, 54
2, 55081, Note_on_c, 0, 57, 59
2, 55081, Note_on_c, 0, 63, 59
2, 55134, Note_on_c, 0, 81, 0
2, 55152, Note_on_c, 0, 53, 0
2, 55152, Note_on_c, 0, 57, 0
2, 55152, Note_on_c, 0, 63, 0
2, 55213, Note_on_c, 0, 36, 53
2, 55213, Note_on_c, 0, 48, 53
2, 55214, Control_c, 0, 64, 127
2, 55229, Note_on_c, 0, 81, 56
2, 55274, Note_on_c, 0, 80, 55
2, 55278, Note_on_c, 0, 81, 0
2, 55295, Note_on_c, 0, 36, 0
2, 55295, Note_on_c, 0, 48, 0
2, 55342, Note_on_c, 0, 53, 54
2, 55342, Note_on_c, 0, 60, 60
2, 55343, Note_on_c, 0, 63, 60
2, 55358, Note_on_c, 0, 81, 59
2, 55360, Note_on_c, 0, 80, 0
2, 55360, Control_c, 0, 64, 0
2, 55408, Note_on_c, 0, 86, 65
2, 55410, Note_on_c, 0, 63, 0
2, 55426, Note_on_c, 0, 60, 0
2, 55427, Note_on_c, 0, 53, 0
2, 55443, Note_on_c, 0, 81, 0
2, 55479, Note_on_c, 0, 29, 53
2, 55479, Note_on_c, 0, 41, 58
2, 55513, Note_on_c, 0, 86, 0
2, 55546, Note_on_c, 0, 84, 61
2, 55547, Note_on_c, 0, 41, 0
2, 55548, Note_on_c, 0, 29, 0
2, 55612, Note_on_c, 0, 57, 54
2, 55612, Note_on_c, 0, 63, 48
2, 55612, Note_on_c, 0, 79, 66
2, 55613, Note_on_c, 0, 53, 52
2, 55629, Note_on_c, 0, 84, 0
2, 55680, Note_on_c, 0, 81, 61
2, 55698, Note_on_c, 0, 79, 0
2, 55699, Note_on_c, 0, 57, 0
2, 55699, Note_on_c, 0, 63, 0
2, 55716, Note_on_c, 0, 53, 0
2, 55734, Control_c, 0, 64, 127
2, 55750, Note_on_c, 0, 81, 0
2, 55750, Note_on_c, 0, 46, 49
2, 55750, Note_on_c, 0, 82, 60
2, 55751, Note_on_c, 0, 34, 50
2, 55815, Note_on_c, 0, 81, 59
2, 55819, Note_on_c, 0, 82, 0
2, 55820, Note_on_c, 0, 34, 0
2, 55836, Note_on_c, 0, 46, 0
2, 55881, Note_on_c, 0, 82, 78
2, 55882, Note_on_c, 0, 53, 54
2, 55882, Note_on_c, 0, 58, 48
2, 55882, Note_on_c, 0, 62, 54
2, 55899, Note_on_c, 0, 81, 0
2, 55900, Control_c, 0, 64, 0
2, 55946, Note_on_c, 0, 79, 71
2, 55947, Note_on_c, 0, 58, 0
2, 55947, Note_on_c, 0, 62, 0
2, 55947, Note_on_c, 0, 82, 0
2, 55948, Note_on_c, 0, 53, 0
2, 56013, Note_on_c, 0, 41, 48
2, 56014, Note_on_c, 0, 29, 49
2, 56060, Note_on_c, 0, 41, 0
2, 56061, Note_on_c, 0, 29, 0
2, 56139, Note_on_c, 0, 58, 47
2, 56139, Note_on_c, 0, 62, 51
2, 56140, Note_on_c, 0, 53, 49
2, 56174, Note_on_c, 0, 79, 0
2, 56204, Note_on_c, 0, 58, 0
2, 56204, Note_on_c, 0, 62, 0
2, 56220, Note_on_c, 0, 53, 0
2, 56266, Note_on_c, 0, 39, 63
2, 56266, Note_on_c, 0, 51, 60
2, 56266, Note_on_c, 0, 79, 55
2, 56266, Note_on_c, 0, 87, 56
2, 56300, Control_c, 0, 64, 127
2, 56332, Note_on_c, 0, 79, 0
2, 56333, Note_on_c, 0, 87, 0
2, 56333, Note_on_c, 0, 39, 0
2, 56349, Note_on_c, 0, 51, 0
2, 56393, Note_on_c, 0, 55, 50
2, 56393, Note_on_c, 0, 58, 48
2, 56393, Note_on_c, 0, 63, 51
2, 56393, Note_on_c, 0, 79, 47
2, 56393, Note_on_c, 0, 82, 47
2, 56406, Control_c, 0, 67, 127
2, 56425, Control_c, 0, 64, 0
2, 56471, Note_on_c, 0, 82, 0
2, 56471, Note_on_c, 0, 79, 0
2, 56472, Note_on_c, 0, 63, 0
2, 56472, Note_on_c, 0, 58, 0
2, 56485, Note_on_c, 0, 55, 0
2, 56515, Note_on_c, 0, 82, 47
2, 56515, Note_on_c, 0, 84, 47
2, 56516, Note_on_c, 0, 55, 47
2, 56517, Note_on_c, 0, 43, 49
2, 56580, Note_on_c, 0, 84, 0
2, 56581, Note_on_c, 0, 82, 0
2, 56628, Control_c, 0, 67, 0
2, 56643, Note_on_c, 0, 82, 48
2, 56643, Note_on_c, 0, 85, 52
2, 56644, Note_on_c, 0, 42, 52
2, 56644, Note_on_c, 0, 54, 51
2, 56645, Note_on_c, 0, 55, 0
2, 56646, Note_on_c, 0, 43, 0
2, 56706, Note_on_c, 0, 85, 0
2, 56706, Note_on_c, 0, 82, 0
2, 56764, Note_on_c, 0, 41, 52
2, 56764, Note_on_c, 0, 82, 52
2, 56764, Note_on_c, 0, 86, 51
2, 56765, Control_c, 0, 64, 127
2, 56767, Note_on_c, 0, 54, 0
2, 56767, Note_on_c, 0, 42, 0
2, 56781, Note_on_c, 0, 53, 50
2, 56831, Note_on_c, 0, 85, 51
2, 56832, Note_on_c, 0, 53, 0
2, 56832, Note_on_c, 0, 86, 0
2, 56895, Note_on_c, 0, 86, 53
2, 56896, Note_on_c, 0, 53, 49
2, 56896, Note_on_c, 0, 58, 53
2, 56896, Note_on_c, 0, 62, 48
2, 56914, Note_on_c, 0, 85, 0
2, 56915, Control_c, 0, 64, 0
2, 56956, Note_on_c, 0, 91, 47
2, 56960, Note_on_c, 0, 58, 0
2, 56961, Note_on_c, 0, 41, 0
2, 56974, Note_on_c, 0, 62, 0
2, 56975, Note_on_c, 0, 53, 0
2, 56990, Note_on_c, 0, 86, 0
2, 57019, Note_on_c, 0, 29, 52
2, 57019, Note_on_c, 0, 41, 52
2, 57021, Note_on_c, 0, 82, 0
2, 57048, Control_c, 0, 67, 127
2, 57051, Note_on_c, 0, 91, 0
2, 57080, Note_on_c, 0, 89, 43
2, 57101, Note_on_c, 0, 29, 0
2, 57101, Note_on_c, 0, 41, 0
2, 57147, Note_on_c, 0, 58, 50
2, 57147, Note_on_c, 0, 62, 53
2, 57147, Note_on_c, 0, 86, 43
2, 57148, Note_on_c, 0, 53, 48
2, 57149, Note_on_c, 0, 89, 0
2, 57214, Note_on_c, 0, 82, 48
2, 57215, Note_on_c, 0, 58, 0
2, 57215, Note_on_c, 0, 62, 0
2, 57216, Note_on_c, 0, 86, 0
2, 57232, Note_on_c, 0, 53, 0
2, 57278, Note_on_c, 0, 36, 49
2, 57278, Note_on_c, 0, 48, 47
2, 57279, Note_on_c, 0, 79, 46
2, 57294, Control_c, 0, 64, 127
2, 57295, Note_on_c, 0, 82, 0
2, 57340, Note_on_c, 0, 80, 46
2, 57346, Note_on_c, 0, 79, 0
2, 57358, Control_c, 0, 67, 0
2, 57359, Note_on_c, 0, 36, 0
2, 57359, Note_on_c, 0, 48, 0
2, 57404, Note_on_c, 0, 57, 49
2, 57404, Note_on_c, 0, 63, 48
2, 57405, Note_on_c, 0, 80, 0
2, 57405, Note_on_c, 0, 53, 54
2, 57463, Note_on_c, 0, 81, 62
2, 57463, Note_on_c, 0, 89, 66
2, 57480, Note_on_c, 0, 53, 0
2, 57480, Note_on_c, 0, 57, 0
2, 57480, Note_on_c, 0, 63, 0
2, 57526, Note_on_c, 0, 29, 47
2, 57526, Note_on_c, 0, 41, 47
2, 57529, Control_c, 0, 64, 0
2, 57557, Note_on_c, 0, 89, 0
2, 57573, Note_on_c, 0, 81, 0
2, 57584, Note_on_c, 0, 87, 49
2, 57589, Note_on_c, 0, 41, 0
2, 57590, Note_on_c, 0, 29, 0
2, 57646, Note_on_c, 0, 79, 53
2, 57647, Note_on_c, 0, 53, 46
2, 57647, Note_on_c, 0, 57, 48
2, 57647, Note_on_c, 0, 63, 46
2, 57664, Note_on_c, 0, 87, 0
2, 57711, Note_on_c, 0, 81, 47
2, 57712, Note_on_c, 0, 79, 0
2, 57713, Note_on_c, 0, 63, 0
2, 57713, Note_on_c, 0, 57, 0
2, 57729, Note_on_c, 0, 53, 0
2, 57775, Note_on_c, 0, 82, 71
2, 57776, Note_on_c, 0, 34, 56
2, 57776, Note_on_c, 0, 46, 55
2, 57777, Control_c, 0, 64, 127
2, 57808, Note_on_c, 0, 81, 0
2, 57855, Note_on_c, 0, 46, 0
2, 57855, Note_on_c, 0, 34, 0
2, 57871, Control_c, 0, 64, 0
2, 57898, Note_on_c, 0, 53, 59
2, 57898, Note_on_c, 0, 58, 60
2, 57898, Note_on_c, 0, 62, 57
2, 57961, Note_on_c, 0, 62, 0
2, 57961, Note_on_c, 0, 58, 0
2, 57978, Note_on_c, 0, 53, 0
2, 58024, Note_on_c, 0, 53, 60
2, 58024, Note_on_c, 0, 58, 58
2, 58024, Note_on_c, 0, 62, 57
2, 58087, Note_on_c, 0, 82, 0
2, 58146, Note_on_c, 0, 77, 70
2, 58146, Note_on_c, 0, 89, 66
2, 58164, Note_on_c, 0, 58, 0
2, 58179, Note_on_c, 0, 62, 0
2, 58180, Note_on_c, 0, 53, 0
2, 58228, Note_on_c, 0, 77, 0
2, 58228, Note_on_c, 0, 89, 0
2, 58278, Note_on_c, 0, 58, 54
2, 58278, Note_on_c, 0, 82, 67
2, 58279, Note_on_c, 0, 46, 54
2, 58279, Note_on_c, 0, 74, 71
2, 58280, Control_c, 0, 64, 127
2, 58344, Note_on_c, 0, 82, 0
2, 58344, Note_on_c, 0, 58, 0
2, 58344, Note_on_c, 0, 70, 62
2, 58360, Note_on_c, 0, 74, 0
2, 58361, Note_on_c, 0, 46, 0
2, 58402, Note_on_c, 0, 58, 60
2, 58402, Note_on_c, 0, 72, 66
2, 58403, Note_on_c, 0, 53, 59
2, 58403, Note_on_c, 0, 62, 54
2, 58404, Note_on_c, 0, 70, 0
2, 58462, Note_on_c, 0, 61, 56
2, 58462, Note_on_c, 0, 73, 63
2, 58465, Control_c, 0, 64, 0
2, 58478, Note_on_c, 0, 58, 0
2, 58478, Note_on_c, 0, 62, 0
2, 58479, Note_on_c, 0, 53, 0
2, 58494, Note_on_c, 0, 72, 0
2, 58527, Note_on_c, 0, 74, 66
2, 58528, Note_on_c, 0, 73, 0
2, 58528, Note_on_c, 0, 61, 0
2, 58528, Note_on_c, 0, 50, 60
2, 58528, Note_on_c, 0, 62, 57
2, 58594, Note_on_c, 0, 81, 61
2, 58596, Note_on_c, 0, 69, 64
2, 58597, Note_on_c, 0, 62, 0
2, 58597, Note_on_c, 0, 50, 0
2, 58613, Note_on_c, 0, 74, 0
2, 58661, Note_on_c, 0, 61, 54
2, 58662, Note_on_c, 0, 49, 53
2, 58680, Note_on_c, 0, 69, 0
2, 58725, Note_on_c, 0, 79, 62
2, 58726, Note_on_c, 0, 67, 59
2, 58728, Note_on_c, 0, 81, 0
2, 58728, Note_on_c, 0, 49, 0
2, 58728, Note_on_c, 0, 61, 0
2, 58791, Control_c, 0, 64, 127
2, 58791, Note_on_c, 0, 48, 60
2, 58791, Note_on_c, 0, 60, 57
2, 58791, Note_on_c, 0, 65, 64
2, 58791, Note_on_c, 0, 77, 65
2, 58792, Note_on_c, 0, 79, 0
2, 58792, Note_on_c, 0, 67, 0
2, 58858, Note_on_c, 0, 65, 0
2, 58858, Note_on_c, 0, 60, 0
2, 58858, Note_on_c, 0, 77, 0
2, 58876, Note_on_c, 0, 48, 0
2, 58923, Note_on_c, 0, 57, 56
2, 58923, Note_on_c, 0, 63, 56
2, 58923, Note_on_c, 0, 69, 61
2, 58924, Note_on_c, 0, 53, 56
2, 58941, Note_on_c, 0, 63, 0
2, 58960, Control_c, 0, 64, 0
2, 58987, Note_on_c, 0, 63, 59
2, 58987, Note_on_c, 0, 72, 64
2, 58987, Note_on_c, 0, 75, 59
2, 58989, Note_on_c, 0, 57, 0
2, 58989, Note_on_c, 0, 69, 0
2, 59005, Note_on_c, 0, 53, 0
2, 59052, Note_on_c, 0, 41, 54
2, 59104, Note_on_c, 0, 41, 0
2, 59104, Note_on_c, 0, 63, 0
2, 59137, Note_on_c, 0, 75, 0
2, 59137, Note_on_c, 0, 72, 0
2, 59189, Note_on_c, 0, 53, 53
2, 59189, Note_on_c, 0, 57, 58
2, 59189, Note_on_c, 0, 63, 58
2, 59256, Note_on_c, 0, 70, 71
2, 59256, Note_on_c, 0, 74, 77
2, 59256, Note_on_c, 0, 82, 76
2, 59274, Note_on_c, 0, 57, 0
2, 59275, Note_on_c, 0, 63, 0
2, 59291, Note_on_c, 0, 53, 0
2, 59321, Note_on_c, 0, 46, 59
2, 59321, Note_on_c, 0, 58, 53
2, 59339, Note_on_c, 0, 70, 0
2, 59354, Control_c, 0, 64, 127
2, 59388, Note_on_c, 0, 70, 63
2, 59390, Note_on_c, 0, 74, 0
2, 59390, Note_on_c, 0, 58, 0
2, 59390, Note_on_c, 0, 82, 0
2, 59406, Note_on_c, 0, 46, 0
2, 59456, Note_on_c, 0, 72, 66
2, 59457, Note_on_c, 0, 53, 60
2, 59457, Note_on_c, 0, 58, 59
2, 59457, Note_on_c, 0, 62, 54
2, 59458, Note_on_c, 0, 70, 0
2, 59458, Control_c, 0, 64, 0
2, 59525, Note_on_c, 0, 61, 57
2, 59525, Note_on_c, 0, 73, 60
2, 59526, Note_on_c, 0, 62, 0
2, 59527, Note_on_c, 0, 58, 0
2, 59543, Note_on_c, 0, 72, 0
2, 59544, Note_on_c, 0, 53, 0
2, 59589, Note_on_c, 0, 50, 54
2, 59589, Note_on_c, 0, 62, 53
2, 59589, Note_on_c, 0, 74, 59
2, 59607, Note_on_c, 0, 73, 0
2, 59607, Note_on_c, 0, 61, 0
2, 59652, Note_on_c, 0, 69, 69
2, 59653, Note_on_c, 0, 74, 0
2, 59668, Note_on_c, 0, 81, 46
2, 59717, Note_on_c, 0, 61, 54
2, 59718, Note_on_c, 0, 62, 0
2, 59718, Note_on_c, 0, 50, 0
2, 59735, Note_on_c, 0, 49, 60
2, 59768, Note_on_c, 0, 69, 0
2, 59782, Note_on_c, 0, 79, 64
2, 59783, Note_on_c, 0, 81, 0
2, 59783, Note_on_c, 0, 67, 63
2, 59843, Note_on_c, 0, 48, 53
2, 59843, Note_on_c, 0, 65, 64
2, 59844, Control_c, 0, 64, 127
2, 59844, Note_on_c, 0, 60, 53
2, 59844, Note_on_c, 0, 77, 66
2, 59846, Note_on_c, 0, 67, 0
2, 59846, Note_on_c, 0, 79, 0
2, 59847, Note_on_c, 0, 49, 0
2, 59847, Note_on_c, 0, 61, 0
2, 59905, Note_on_c, 0, 77, 0
2, 59905, Note_on_c, 0, 65, 0
2, 59968, Note_on_c, 0, 41, 54
2, 59968, Note_on_c, 0, 69, 62
2, 59969, Note_on_c, 0, 53, 53
2, 59969, Note_on_c, 0, 57, 54
2, 59985, Note_on_c, 0, 60, 0
2, 59986, Control_c, 0, 64, 0
2, 60003, Note_on_c, 0, 48, 0
2, 60036, Note_on_c, 0, 72, 64
2, 60037, Note_on_c, 0, 63, 55
2, 60037, Note_on_c, 0, 75, 63
2, 60038, Note_on_c, 0, 41, 0
2, 60038, Note_on_c, 0, 57, 0
2, 60054, Note_on_c, 0, 53, 0
2, 60054, Note_on_c, 0, 69, 0
2, 60103, Note_on_c, 0, 45, 54
2, 60103, Note_on_c, 0, 57, 57
2, 60216, Note_on_c, 0, 63, 0
2, 60216, Note_on_c, 0, 72, 0
2, 60216, Note_on_c, 0, 75, 0
2, 60227, Note_on_c, 0, 44, 56
2, 60228, Note_on_c, 0, 56, 58
2, 60230, Note_on_c, 0, 45, 0
2, 60230, Note_on_c, 0, 57, 0
2, 60294, Note_on_c, 0, 67, 73
2, 60294, Note_on_c, 0, 71, 75
2, 60294, Note_on_c, 0, 79, 73
2, 60295, Note_on_c, 0, 74, 73
2, 60362, Note_on_c, 0, 55, 66
2, 60363, Note_on_c, 0, 67, 0
2, 60363, Note_on_c, 0, 43, 66
2, 60364, Note_on_c, 0, 56, 0
2, 60364, Note_on_c, 0, 44, 0
2, 60364, Control_c, 0, 64, 127
2, 60427, Note_on_c, 0, 67, 61
2, 60445, Note_on_c, 0, 79, 0
2, 60446, Note_on_c, 0, 71, 0
2, 60446, Note_on_c, 0, 55, 0
2, 60446, Note_on_c, 0, 74, 0
2, 60493, Note_on_c, 0, 55, 63
2, 60493, Note_on_c, 0, 65, 61
2, 60493, Note_on_c, 0, 71, 60
2, 60494, Note_on_c, 0, 59, 63
2, 60494, Note_on_c, 0, 62, 61
2, 60511, Note_on_c, 0, 67, 0
2, 60529, Control_c, 0, 64, 0
2, 60558, Note_on_c, 0, 74, 60
2, 60576, Note_on_c, 0, 71, 0
2, 60576, Note_on_c, 0, 65, 0
2, 60576, Note_on_c, 0, 59, 0
2, 60592, Note_on_c, 0, 55, 0
2, 60610, Note_on_c, 0, 43, 0
2, 60625, Note_on_c, 0, 35, 59
2, 60625, Note_on_c, 0, 47, 66
2, 60625, Note_on_c, 0, 67, 60
2, 60625, Note_on_c, 0, 79, 63
2, 60643, Note_on_c, 0, 62, 0
2, 60660, Note_on_c, 0, 74, 0
2, 60690, Note_on_c, 0, 65, 66
2, 60690, Note_on_c, 0, 77, 62
2, 60692, Note_on_c, 0, 47, 0
2, 60692, Note_on_c, 0, 35, 0
2, 60707, Note_on_c, 0, 67, 0
2, 60707, Note_on_c, 0, 79, 0
2, 60752, Note_on_c, 0, 55, 61
2, 60752, Note_on_c, 0, 62, 63
2, 60803, Note_on_c, 0, 77, 0
2, 60803, Note_on_c, 0, 65, 0
2, 60816, Note_on_c, 0, 63, 60
2, 60816, Note_on_c, 0, 67, 77
2, 60816, Note_on_c, 0, 72, 77
2, 60816, Note_on_c, 0, 75, 78
2, 60818, Note_on_c, 0, 62, 0
2, 60834, Note_on_c, 0, 55, 0
2, 60884, Note_on_c, 0, 36, 62
2, 60884, Note_on_c, 0, 48, 65
2, 60885, Control_c, 0, 64, 127
2, 60948, Note_on_c, 0, 49, 60
2, 60952, Note_on_c, 0, 72, 0
2, 60952, Note_on_c, 0, 67, 0
2, 60952, Note_on_c, 0, 37, 60
2, 60953, Note_on_c, 0, 63, 0
2, 60953, Note_on_c, 0, 75, 0
2, 60969, Note_on_c, 0, 48, 0
2, 60970, Note_on_c, 0, 36, 0
2, 61016, Note_on_c, 0, 38, 62
2, 61016, Note_on_c, 0, 62, 63
2, 61016, Note_on_c, 0, 65, 75
2, 61016, Note_on_c, 0, 67, 76
2, 61016, Note_on_c, 0, 71, 73
2, 61017, Note_on_c, 0, 50, 66
2, 61017, Note_on_c, 0, 74, 76
2, 61021, Note_on_c, 0, 37, 0
2, 61021, Note_on_c, 0, 49, 0
2, 61021, Control_c, 0, 64, 0
2, 61080, Note_on_c, 0, 53, 60
2, 61080, Note_on_c, 0, 41, 62
2, 61082, Note_on_c, 0, 50, 0
2, 61082, Note_on_c, 0, 62, 0
2, 61082, Note_on_c, 0, 65, 0
2, 61082, Note_on_c, 0, 67, 0
2, 61082, Note_on_c, 0, 38, 0
2, 61082, Note_on_c, 0, 71, 0
2, 61098, Note_on_c, 0, 74, 0
2, 61145, Note_on_c, 0, 51, 60
2, 61145, Note_on_c, 0, 60, 60
2, 61145, Note_on_c, 0, 63, 61
2, 61145, Note_on_c, 0, 67, 76
2, 61145, Note_on_c, 0, 72, 71
2, 61146, Note_on_c, 0, 39, 60
2, 61162, Note_on_c, 0, 41, 0
2, 61162, Note_on_c, 0, 53, 0
2, 61211, Note_on_c, 0, 60, 0
2, 61212, Note_on_c, 0, 39, 0
2, 61228, Note_on_c, 0, 51, 0
2, 61273, Note_on_c, 0, 51, 65
2, 61273, Note_on_c, 0, 55, 65
2, 61273, Note_on_c, 0, 60, 63
2, 61335, Note_on_c, 0, 60, 0
2, 61335, Note_on_c, 0, 63, 0
2, 61335, Note_on_c, 0, 67, 0
2, 61335, Note_on_c, 0, 51, 0
2, 61335, Note_on_c, 0, 55, 0
2, 61365, Note_on_c, 0, 72, 0
2, 61393, Note_on_c, 0, 36, 66
2, 61393, Note_on_c, 0, 64, 68
2, 61393, Note_on_c, 0, 70, 72
2, 61393, Note_on_c, 0, 74, 66
2, 61394, Note_on_c, 0, 48, 69
2, 61443, Control_c, 0, 64, 127
2, 61460, Note_on_c, 0, 64, 0
2, 61461, Note_on_c, 0, 36, 0
2, 61461, Note_on_c, 0, 70, 0
2, 61477, Note_on_c, 0, 74, 0
2, 61477, Note_on_c, 0, 48, 0
2, 61524, Note_on_c, 0, 60, 60
2, 61524, Note_on_c, 0, 64, 64
2, 61524, Note_on_c, 0, 70, 61
2, 61525, Note_on_c, 0, 55, 59
2, 61525, Note_on_c, 0, 58, 60
2, 61525, Note_on_c, 0, 72, 59
2, 61527, Control_c, 0, 64, 0
2, 61608, Note_on_c, 0, 72, 0
2, 61608, Note_on_c, 0, 60, 0
2, 61608, Note_on_c, 0, 70, 0
2, 61608, Note_on_c, 0, 58, 0
2, 61623, Note_on_c, 0, 55, 0
2, 61624, Note_on_c, 0, 64, 0
2, 61653, Note_on_c, 0, 40, 66
2, 61653, Note_on_c, 0, 62, 59
2, 61653, Note_on_c, 0, 70, 63
2, 61653, Note_on_c, 0, 74, 62
2, 61654, Note_on_c, 0, 52, 64
2, 61701, Note_on_c, 0, 70, 0
2, 61701, Note_on_c, 0, 40, 0
2, 61716, Note_on_c, 0, 62, 0
2, 61716, Note_on_c, 0, 74, 0
2, 61716, Note_on_c, 0, 52, 0
2, 61777, Note_on_c, 0, 72, 59
2, 61778, Note_on_c, 0, 55, 64
2, 61778, Note_on_c, 0, 60, 62
2, 61779, Note_on_c, 0, 58, 65
2, 61779, Note_on_c, 0, 70, 63
2, 61846, Note_on_c, 0, 70, 0
2, 61846, Note_on_c, 0, 60, 0
2, 61846, Note_on_c, 0, 72, 0
2, 61846, Note_on_c, 0, 55, 0
2, 61846, Note_on_c, 0, 58, 0
2, 61877, Control_c, 0, 64, 127
2, 61909, Note_on_c, 0, 67, 47
2, 61909, Note_on_c, 0, 69, 47
2, 61909, Note_on_c, 0, 75, 51
2, 61909, Note_on_c, 0, 79, 48
2, 61910, Note_on_c, 0, 53, 46
2, 61911, Note_on_c, 0, 41, 42
2, 61957, Note_on_c, 0, 79, 0
2, 61958, Note_on_c, 0, 69, 0
2, 61958, Note_on_c, 0, 67, 0
2, 61959, Note_on_c, 0, 75, 0
2, 61959, Note_on_c, 0, 41, 0
2, 61974, Note_on_c, 0, 53, 0
2, 62038, Note_on_c, 0, 65, 51
2, 62038, Note_on_c, 0, 77, 47
2, 62039, Note_on_c, 0, 60, 45
2, 62039, Note_on_c, 0, 63, 47
2, 62039, Note_on_c, 0, 69, 50
2, 62039, Note_on_c, 0, 75, 51
2, 62057, Note_on_c, 0, 53, 48
2, 62089, Note_on_c, 0, 77, 0
2, 62090, Note_on_c, 0, 75, 0
2, 62090, Note_on_c, 0, 69, 0
2, 62090, Note_on_c, 0, 53, 0
2, 62107, Note_on_c, 0, 65, 0
2, 62107, Note_on_c, 0, 63, 0
2, 62107, Note_on_c, 0, 60, 0
2, 62109, Control_c, 0, 64, 0
2, 62172, Note_on_c, 0, 86, 69
2, 62173, Note_on_c, 0, 41, 53
2, 62173, Note_on_c, 0, 75, 68
2, 62174, Note_on_c, 0, 29, 54
2, 62187, Note_on_c, 0, 81, 68
2, 62238, Note_on_c, 0, 81, 0
2, 62238, Note_on_c, 0, 86, 0
2, 62239, Note_on_c, 0, 75, 0
2, 62240, Note_on_c, 0, 41, 0
2, 62241, Note_on_c, 0, 29, 0
2, 62304, Note_on_c, 0, 57, 57
2, 62304, Note_on_c, 0, 63, 53
2, 62304, Note_on_c, 0, 72, 72
2, 62304, Note_on_c, 0, 75, 65
2, 62304, Note_on_c, 0, 84, 69
2, 62321, Note_on_c, 0, 53, 57
2, 62337, Note_on_c, 0, 81, 69
2, 62375, Note_on_c, 0, 84, 0
2, 62375, Note_on_c, 0, 57, 0
2, 62376, Note_on_c, 0, 63, 0
2, 62376, Note_on_c, 0, 75, 0
2, 62392, Note_on_c, 0, 72, 0
2, 62392, Note_on_c, 0, 81, 0
2, 62393, Note_on_c, 0, 53, 0
2, 62442, Note_on_c, 0, 70, 80
2, 62442, Note_on_c, 0, 74, 77
2, 62443, Note_on_c, 0, 82, 82
2, 62444, Note_on_c, 0, 46, 58
2, 62460, Note_on_c, 0, 70, 0
2, 62460, Note_on_c, 0, 34, 56
2, 62476, Control_c, 0, 64, 127
2, 62508, Note_on_c, 0, 70, 66
2, 62526, Note_on_c, 0, 82, 0
2, 62527, Note_on_c, 0, 34, 0
2, 62527, Note_on_c, 0, 46, 0
2, 62544, Note_on_c, 0, 74, 0
2, 62573, Note_on_c, 0, 58, 56
2, 62573, Note_on_c, 0, 62, 54
2, 62573, Note_on_c, 0, 72, 60
2, 62574, Note_on_c, 0, 60, 56
2, 62575, Note_on_c, 0, 70, 0
2, 62591, Note_on_c, 0, 53, 59
2, 62628, Control_c, 0, 64, 0
2, 62641, Note_on_c, 0, 61, 59
2, 62641, Note_on_c, 0, 73, 66
2, 62660, Note_on_c, 0, 60, 0
2, 62661, Note_on_c, 0, 53, 0
2, 62661, Note_on_c, 0, 58, 0
2, 62661, Note_on_c, 0, 62, 0
2, 62678, Note_on_c, 0, 72, 0
2, 62711, Note_on_c, 0, 50, 60
2, 62711, Note_on_c, 0, 62, 60
2, 62711, Note_on_c, 0, 74, 60
2, 62712, Note_on_c, 0, 61, 0
2, 62730, Note_on_c, 0, 73, 0
2, 62779, Note_on_c, 0, 69, 66
2, 62779, Note_on_c, 0, 81, 72
2, 62797, Note_on_c, 0, 74, 0
2, 62844, Note_on_c, 0, 49, 55
2, 62844, Note_on_c, 0, 61, 59
2, 62862, Note_on_c, 0, 62, 0
2, 62862, Note_on_c, 0, 50, 0
2, 62896, Note_on_c, 0, 69, 0
2, 62911, Note_on_c, 0, 79, 59
2, 62912, Note_on_c, 0, 67, 64
2, 62913, Note_on_c, 0, 81, 0
2, 62967, Control_c, 0, 64, 127
2, 62967, Note_on_c, 0, 48, 54
2, 62983, Note_on_c, 0, 79, 0
2, 62984, Note_on_c, 0, 67, 0
2, 62984, Note_on_c, 0, 60, 58
2, 62984, Note_on_c, 0, 65, 62
2, 62984, Note_on_c, 0, 77, 62
2, 62985, Note_on_c, 0, 49, 0
2, 62985, Note_on_c, 0, 61, 0
2, 63053, Note_on_c, 0, 65, 0
2, 63071, Note_on_c, 0, 77, 0
2, 63118, Note_on_c, 0, 53, 55
2, 63118, Note_on_c, 0, 57, 59
2, 63118, Note_on_c, 0, 69, 60
2, 63135, Note_on_c, 0, 60, 0
2, 63136, Control_c, 0, 64, 0
2, 63168, Note_on_c, 0, 48, 0
2, 63181, Note_on_c, 0, 63, 58
2, 63181, Note_on_c, 0, 72, 60
2, 63182, Note_on_c, 0, 75, 60
2, 63200, Note_on_c, 0, 57, 0
2, 63200, Note_on_c, 0, 69, 0
2, 63200, Note_on_c, 0, 53, 0
2, 63250, Note_on_c, 0, 41, 54
2, 63305, Note_on_c, 0, 41, 0
2, 63305, Note_on_c, 0, 63, 0
2, 63388, Note_on_c, 0, 53, 59
2, 63388, Note_on_c, 0, 57, 53
2, 63388, Note_on_c, 0, 63, 58
2, 63406, Note_on_c, 0, 72, 0
2, 63407, Note_on_c, 0, 75, 0
2, 63451, Note_on_c, 0, 70, 78
2, 63451, Note_on_c, 0, 74, 71
2, 63451, Note_on_c, 0, 82, 72
2, 63455, Note_on_c, 0, 57, 0
2, 63455, Note_on_c, 0, 63, 0
2, 63470, Note_on_c, 0, 53, 0
2, 63518, Note_on_c, 0, 46, 58
2, 63534, Control_c, 0, 64, 127
2, 63535, Note_on_c, 0, 70, 0
2, 63568, Note_on_c, 0, 82, 0
2, 63569, Note_on_c, 0, 74, 0
2, 63585, Note_on_c, 0, 58, 55
2, 63585, Note_on_c, 0, 70, 59
2, 63602, Note_on_c, 0, 58, 0
2, 63603, Note_on_c, 0, 46, 0
2, 63622, Control_c, 0, 64, 0
2, 63637, Note_on_c, 0, 70, 0
2, 63654, Note_on_c, 0, 53, 53
2, 63654, Note_on_c, 0, 58, 56
2, 63654, Note_on_c, 0, 60, 55
2, 63654, Note_on_c, 0, 62, 57
2, 63654, Note_on_c, 0, 72, 62
2, 63720, Note_on_c, 0, 61, 57
2, 63720, Note_on_c, 0, 73, 65
2, 63739, Note_on_c, 0, 62, 0
2, 63739, Note_on_c, 0, 60, 0
2, 63739, Note_on_c, 0, 58, 0
2, 63740, Note_on_c, 0, 53, 0
2, 63756, Note_on_c, 0, 72, 0
2, 63786, Note_on_c, 0, 62, 60
2, 63786, Note_on_c, 0, 74, 67
2, 63787, Note_on_c, 0, 50, 54
2, 63788, Note_on_c, 0, 61, 0
2, 63805, Note_on_c, 0, 73, 0
2, 63838, Note_on_c, 0, 81, 65
2, 63855, Note_on_c, 0, 69, 71
2, 63856, Note_on_c, 0, 74, 0
2, 63919, Note_on_c, 0, 49, 60
2, 63920, Note_on_c, 0, 61, 55
2, 63921, Note_on_c, 0, 50, 0
2, 63921, Note_on_c, 0, 62, 0
2, 63955, Note_on_c, 0, 69, 0
2, 63970, Note_on_c, 0, 81, 0
2, 63985, Note_on_c, 0, 67, 64
2, 63985, Note_on_c, 0, 79, 66
2, 64048, Note_on_c, 0, 65, 65
2, 64049, Note_on_c, 0, 48, 54
2, 64049, Note_on_c, 0, 60, 60
2, 64049, Note_on_c, 0, 77, 62
2, 64051, Note_on_c, 0, 79, 0
2, 64051, Note_on_c, 0, 61, 0
2, 64052, Note_on_c, 0, 49, 0
2, 64065, Note_on_c, 0, 67, 0
2, 64079, Control_c, 0, 64, 127
2, 64113, Note_on_c, 0, 77, 0
2, 64128, Note_on_c, 0, 65, 0
2, 64179, Note_on_c, 0, 41, 54
2, 64179, Note_on_c, 0, 57, 54
2, 64179, Note_on_c, 0, 69, 61
2, 64181, Control_c, 0, 64, 0
2, 64197, Note_on_c, 0, 53, 55
2, 64198, Note_on_c, 0, 60, 0
2, 64232, Note_on_c, 0, 69, 0
2, 64232, Note_on_c, 0, 57, 0
2, 64233, Note_on_c, 0, 41, 0
2, 64233, Note_on_c, 0, 53, 0
2, 64248, Note_on_c, 0, 63, 55
2, 64248, Note_on_c, 0, 72, 65
2, 64248, Note_on_c, 0, 75, 62
2, 64252, Note_on_c, 0, 48, 0
2, 64316, Note_on_c, 0, 45, 56
2, 64317, Note_on_c, 0, 57, 56
2, 64383, Note_on_c, 0, 57, 0
2, 64383, Note_on_c, 0, 45, 0
2, 64449, Note_on_c, 0, 72, 0
2, 64449, Note_on_c, 0, 44, 58
2, 64449, Note_on_c, 0, 56, 53
2, 64450, Note_on_c, 0, 63, 0
2, 64450, Note_on_c, 0, 75, 0
2, 64522, Note_on_c, 0, 56, 0
2, 64523, Note_on_c, 0, 44, 0
2, 64523, Note_on_c, 0, 67, 77
2, 64523, Note_on_c, 0, 71, 71
2, 64523, Note_on_c, 0, 74, 73
2, 64523, Note_on_c, 0, 79, 71
2, 64574, Control_c, 0, 64, 127
2, 64589, Note_on_c, 0, 55, 55
2, 64590, Note_on_c, 0, 43, 59
2, 64591, Note_on_c, 0, 67, 0
2, 64653, Note_on_c, 0, 67, 63
2, 64656, Note_on_c, 0, 55, 0
2, 64656, Note_on_c, 0, 79, 0
2, 64657, Note_on_c, 0, 74, 0
2, 64657, Note_on_c, 0, 71, 0
2, 64657, Note_on_c, 0, 43, 0
2, 64674, Control_c, 0, 64, 0
2, 64722, Note_on_c, 0, 55, 60
2, 64722, Note_on_c, 0, 59, 54
2, 64722, Note_on_c, 0, 62, 54
2, 64722, Note_on_c, 0, 65, 59
2, 64722, Note_on_c, 0, 71, 59
2, 64724, Note_on_c, 0, 67, 0
2, 64740, Note_on_c, 0, 62, 0
2, 64791, Note_on_c, 0, 62, 55
2, 64791, Note_on_c, 0, 74, 59
2, 64809, Note_on_c, 0, 65, 0
2, 64809, Note_on_c, 0, 59, 0
2, 64810, Note_on_c, 0, 71, 0
2, 64825, Note_on_c, 0, 55, 0
2, 64858, Note_on_c, 0, 35, 56
2, 64858, Note_on_c, 0, 47, 60
2, 64858, Note_on_c, 0, 67, 64
2, 64858, Note_on_c, 0, 79, 65
2, 64875, Note_on_c, 0, 62, 0
2, 64876, Note_on_c, 0, 74, 0
2, 64919, Note_on_c, 0, 65, 62
2, 64919, Note_on_c, 0, 77, 59
2, 64920, Note_on_c, 0, 67, 0
2, 64920, Note_on_c, 0, 35, 0
2, 64920, Note_on_c, 0, 47, 0
2, 64920, Note_on_c, 0, 79, 0
2, 64980, Note_on_c, 0, 55, 56
2, 64980, Note_on_c, 0, 62, 54
2, 65042, Note_on_c, 0, 67, 68
2, 65042, Note_on_c, 0, 72, 65
2, 65042, Note_on_c, 0, 75, 70
2, 65043, Note_on_c, 0, 77, 0
2, 65043, Note_on_c, 0, 63, 54
2, 65091, Note_on_c, 0, 62, 0
2, 65091, Note_on_c, 0, 65, 0
2, 65091, Note_on_c, 0, 55, 0
2, 65107, Note_on_c, 0, 36, 62
2, 65107, Note_on_c, 0, 48, 59
2, 65123, Control_c, 0, 64, 127
2, 65166, Note_on_c, 0, 37, 60
2, 65166, Note_on_c, 0, 49, 61
2, 65183, Note_on_c, 0, 67, 0
2, 65183, Note_on_c, 0, 63, 0
2, 65184, Note_on_c, 0, 75, 0
2, 65199, Note_on_c, 0, 72, 0
2, 65200, Note_on_c, 0, 36, 0
2, 65200, Note_on_c, 0, 48, 0
2, 65216, Control_c, 0, 64, 0
2, 65229, Note_on_c, 0, 38, 62
2, 65229, Note_on_c, 0, 50, 60
2, 65229, Note_on_c, 0, 62, 62
2, 65229, Note_on_c, 0, 65, 69
2, 65229, Note_on_c, 0, 67, 69
2, 65229, Note_on_c, 0, 71, 69
2, 65229, Note_on_c, 0, 74, 72
2, 65232, Note_on_c, 0, 37, 0
2, 65248, Note_on_c, 0, 49, 0
2, 65291, Note_on_c, 0, 55, 59
2, 65292, Note_on_c, 0, 43, 60
2, 65308, Note_on_c, 0, 50, 0
2, 65308, Note_on_c, 0, 67, 0
2, 65308, Note_on_c, 0, 38, 0
2, 65309, Note_on_c, 0, 71, 0
2, 65324, Note_on_c, 0, 62, 0
2, 65324, Note_on_c, 0, 65, 0
2, 65325, Note_on_c, 0, 74, 0
2, 65354, Note_on_c, 0, 72, 65
2, 65355, Note_on_c, 0, 39, 63
2, 65355, Note_on_c, 0, 51, 61
2, 65355, Note_on_c, 0, 60, 62
2, 65355, Note_on_c, 0, 63, 62
2, 65355, Note_on_c, 0, 67, 65
2, 65373, Note_on_c, 0, 43, 0
2, 65387, Note_on_c, 0, 55, 0
2, 65416, Note_on_c, 0, 67, 0
2, 65416, Note_on_c, 0, 72, 0
2, 65416, Note_on_c, 0, 60, 0
2, 65417, Note_on_c, 0, 39, 0
2, 65417, Note_on_c, 0, 63, 0
2, 65432, Note_on_c, 0, 51, 0
2, 65475, Note_on_c, 0, 71, 77
2, 65475, Note_on_c, 0, 73, 75
2, 65475, Note_on_c, 0, 79, 76
2, 65476, Note_on_c, 0, 67, 72
2, 65477, Note_on_c, 0, 40, 59
2, 65477, Note_on_c, 0, 52, 65
2, 65542, Note_on_c, 0, 67, 0
2, 65542, Note_on_c, 0, 79, 0
2, 65542, Note_on_c, 0, 73, 0
2, 65543, Note_on_c, 0, 71, 0
2, 65543, Note_on_c, 0, 40, 0
2, 65559, Note_on_c, 0, 52, 0
2, 65592, Control_c, 0, 64, 127
2, 65604, Note_on_c, 0, 65, 75
2, 65604, Note_on_c, 0, 70, 75
2, 65604, Note_on_c, 0, 74, 76
2, 65605, Note_on_c, 0, 41, 64
2, 65605, Note_on_c, 0, 53, 59
2, 65605, Note_on_c, 0, 77, 78
2, 65675, Note_on_c, 0, 77, 0
2, 65675, Note_on_c, 0, 70, 0
2, 65675, Note_on_c, 0, 74, 0
2, 65675, Note_on_c, 0, 41, 0
2, 65675, Note_on_c, 0, 53, 0
2, 65739, Note_on_c, 0, 55, 59
2, 65739, Note_on_c, 0, 67, 59
2, 65740, Note_on_c, 0, 53, 59
2, 65740, Note_on_c, 0, 58, 55
2, 65740, Note_on_c, 0, 62, 55
2, 65758, Note_on_c, 0, 65, 0
2, 65776, Control_c, 0, 64, 0
2, 65804, Note_on_c, 0, 56, 58
2, 65804, Note_on_c, 0, 68, 56
2, 65806, Note_on_c, 0, 67, 0
2, 65806, Note_on_c, 0, 55, 0
2, 65806, Note_on_c, 0, 62, 0
2, 65807, Note_on_c, 0, 58, 0
2, 65807, Note_on_c, 0, 53, 0
2, 65871, Note_on_c, 0, 41, 55
2, 65872, Note_on_c, 0, 29, 57
2, 65872, Note_on_c, 0, 57, 53
2, 65872, Note_on_c, 0, 69, 60
2, 65873, Note_on_c, 0, 68, 0
2, 65889, Note_on_c, 0, 56, 0
2, 65941, Note_on_c, 0, 65, 55
2, 65941, Note_on_c, 0, 77, 56
2, 65943, Note_on_c, 0, 57, 0
2, 65943, Note_on_c, 0, 41, 0
2, 65943, Note_on_c, 0, 69, 0
2, 65944, Note_on_c, 0, 29, 0
2, 66018, Note_on_c, 0, 53, 58
2, 66018, Note_on_c, 0, 55, 53
2, 66018, Note_on_c, 0, 63, 54
2, 66018, Note_on_c, 0, 67, 56
2, 66068, Note_on_c, 0, 77, 0
2, 66082, Note_on_c, 0, 57, 57
2, 66082, Note_on_c, 0, 69, 68
2, 66084, Note_on_c, 0, 65, 0
2, 66085, Note_on_c, 0, 63, 0
2, 66100, Note_on_c, 0, 55, 0
2, 66100, Control_c, 0, 64, 127
2, 66101, Note_on_c, 0, 53, 0
2, 66101, Note_on_c, 0, 67, 0
2, 66134, Note_on_c, 0, 57, 0
2, 66135, Note_on_c, 0, 69, 0
2, 66149, Note_on_c, 0, 65, 67
2, 66150, Note_on_c, 0, 34, 59
2, 66151, Note_on_c, 0, 46, 54
2, 66151, Note_on_c, 0, 58, 55
2, 66151, Note_on_c, 0, 70, 66
2, 66222, Note_on_c, 0, 58, 0
2, 66222, Note_on_c, 0, 46, 0
2, 66222, Note_on_c, 0, 34, 0
2, 66240, Control_c, 0, 64, 0
2, 66289, Note_on_c, 0, 53, 54
2, 66289, Note_on_c, 0, 58, 60
2, 66289, Note_on_c, 0, 62, 54
2, 66341, Note_on_c, 0, 62, 0
2, 66342, Note_on_c, 0, 58, 0
2, 66359, Note_on_c, 0, 53, 0
2, 66421, Note_on_c, 0, 53, 59
2, 66421, Note_on_c, 0, 58, 59
2, 66421, Note_on_c, 0, 62, 55
2, 66492, Note_on_c, 0, 65, 0
2, 66492, Note_on_c, 0, 70, 0
2, 66560, Note_on_c, 0, 65, 47
2, 66560, Note_on_c, 0, 77, 54
2, 66562, Note_on_c, 0, 58, 0
2, 66578, Note_on_c, 0, 62, 0
2, 66579, Note_on_c, 0, 53, 0
2, 66634, Note_on_c, 0, 77, 0
2, 66652, Note_on_c, 0, 65, 0
2, 66701, Note_on_c, 0, 86, 53
2, 66701, Note_on_c, 0, 94, 47
2, 66703, Note_on_c, 0, 46, 48
2, 66703, Note_on_c, 0, 58, 51
2, 66719, Control_c, 0, 64, 127
2, 66768, Note_on_c, 0, 70, 54
2, 66768, Note_on_c, 0, 82, 50
2, 66784, Control_c, 0, 67, 127
2, 66786, Note_on_c, 0, 58, 0
2, 66786, Note_on_c, 0, 94, 0
2, 66786, Note_on_c, 0, 86, 0
2, 66820, Note_on_c, 0, 46, 0
2, 66820, Control_c, 0, 64, 0
2, 66835, Note_on_c, 0, 72, 48
2, 66836, Note_on_c, 0, 53, 52
2, 66836, Note_on_c, 0, 58, 47
2, 66836, Note_on_c, 0, 62, 51
2, 66836, Note_on_c, 0, 84, 47
2, 66854, Note_on_c, 0, 82, 0
2, 66854, Note_on_c, 0, 70, 0
2, 66902, Note_on_c, 0, 73, 48
2, 66902, Note_on_c, 0, 85, 52
2, 66903, Note_on_c, 0, 72, 0
2, 66904, Note_on_c, 0, 84, 0
2, 66904, Note_on_c, 0, 58, 0
2, 66921, Note_on_c, 0, 53, 0
2, 66921, Note_on_c, 0, 62, 0
2, 66937, Control_c, 0, 67, 0
2, 66966, Note_on_c, 0, 62, 53
2, 66967, Note_on_c, 0, 86, 54
2, 66968, Note_on_c, 0, 50, 48
2, 66968, Note_on_c, 0, 74, 54
2, 66972, Note_on_c, 0, 73, 0
2, 66972, Note_on_c, 0, 85, 0
2, 67034, Note_on_c, 0, 81, 49
2, 67034, Note_on_c, 0, 93, 50
2, 67053, Note_on_c, 0, 86, 0
2, 67068, Note_on_c, 0, 74, 0
2, 67100, Note_on_c, 0, 49, 49
2, 67100, Note_on_c, 0, 61, 52
2, 67101, Note_on_c, 0, 50, 0
2, 67118, Note_on_c, 0, 62, 0
2, 67164, Note_on_c, 0, 79, 48
2, 67164, Note_on_c, 0, 91, 51
2, 67166, Note_on_c, 0, 93, 0
2, 67182, Note_on_c, 0, 81, 0
2, 67230, Note_on_c, 0, 60, 48
2, 67230, Note_on_c, 0, 77, 54
2, 67230, Note_on_c, 0, 89, 54
2, 67231, Note_on_c, 0, 48, 53
2, 67248, Note_on_c, 0, 79, 0
2, 67248, Note_on_c, 0, 49, 0
2, 67248, Note_on_c, 0, 61, 0
2, 67248, Note_on_c, 0, 91, 0
2, 67310, Control_c, 0, 64, 127
2, 67315, Note_on_c, 0, 89, 0
2, 67315, Note_on_c, 0, 77, 0
2, 67360, Note_on_c, 0, 69, 50
2, 67361, Note_on_c, 0, 57, 47
2, 67361, Note_on_c, 0, 63, 51
2, 67363, Note_on_c, 0, 60, 0
2, 67377, Note_on_c, 0, 53, 53
2, 67392, Note_on_c, 0, 81, 52
2, 67396, Control_c, 0, 64, 0
2, 67427, Note_on_c, 0, 87, 54
2, 67428, Note_on_c, 0, 75, 47
2, 67428, Note_on_c, 0, 84, 53
2, 67429, Note_on_c, 0, 57, 0
2, 67429, Note_on_c, 0, 48, 0
2, 67429, Note_on_c, 0, 69, 0
2, 67430, Note_on_c, 0, 63, 0
2, 67430, Note_on_c, 0, 53, 0
2, 67446, Note_on_c, 0, 81, 0
2, 67499, Note_on_c, 0, 41, 48
2, 67499, Note_on_c, 0, 53, 54
2, 67553, Note_on_c, 0, 75, 0
2, 67568, Note_on_c, 0, 53, 0
2, 67585, Note_on_c, 0, 41, 0
2, 67601, Note_on_c, 0, 87, 0
2, 67601, Note_on_c, 0, 84, 0
2, 67613, Note_on_c, 0, 53, 49
2, 67613, Note_on_c, 0, 63, 51
2, 67614, Note_on_c, 0, 57, 47
2, 67697, Note_on_c, 0, 82, 65
2, 67697, Note_on_c, 0, 86, 63
2, 67697, Note_on_c, 0, 94, 64
2, 67701, Note_on_c, 0, 63, 0
2, 67711, Note_on_c, 0, 57, 0
2, 67718, Note_on_c, 0, 53, 0
2, 67750, Note_on_c, 0, 82, 0
2, 67751, Control_c, 0, 64, 127
2, 67767, Note_on_c, 0, 46, 59
2, 67767, Note_on_c, 0, 58, 66
2, 67834, Note_on_c, 0, 82, 60
2, 67835, Note_on_c, 0, 70, 59
2, 67836, Note_on_c, 0, 58, 0
2, 67851, Note_on_c, 0, 94, 0
2, 67852, Note_on_c, 0, 86, 0
2, 67853, Note_on_c, 0, 46, 0
2, 67897, Note_on_c, 0, 84, 66
2, 67898, Note_on_c, 0, 58, 60
2, 67898, Note_on_c, 0, 62, 61
2, 67899, Note_on_c, 0, 72, 61
2, 67901, Note_on_c, 0, 70, 0
2, 67901, Note_on_c, 0, 82, 0
2, 67916, Note_on_c, 0, 53, 61
2, 67920, Control_c, 0, 64, 0
2, 67967, Note_on_c, 0, 73, 61
2, 67967, Note_on_c, 0, 85, 64
2, 67968, Note_on_c, 0, 84, 0
2, 67969, Note_on_c, 0, 58, 0
2, 67969, Note_on_c, 0, 62, 0
2, 67986, Note_on_c, 0, 72, 0
2, 67987, Note_on_c, 0, 53, 0
2, 68038, Note_on_c, 0, 86, 60
2, 68039, Note_on_c, 0, 50, 65
2, 68039, Note_on_c, 0, 62, 63
2, 68039, Note_on_c, 0, 74, 65
2, 68059, Note_on_c, 0, 73, 0
2, 68059, Note_on_c, 0, 85, 0
2, 68110, Note_on_c, 0, 93, 70
2, 68111, Note_on_c, 0, 81, 72
2, 68112, Note_on_c, 0, 86, 0
2, 68130, Note_on_c, 0, 74, 0
2, 68178, Note_on_c, 0, 61, 62
2, 68179, Note_on_c, 0, 49, 65
2, 68180, Note_on_c, 0, 62, 0
2, 68181, Note_on_c, 0, 50, 0
2, 68228, Note_on_c, 0, 93, 0
2, 68239, Note_on_c, 0, 91, 60
2, 68240, Note_on_c, 0, 79, 65
2, 68244, Note_on_c, 0, 81, 0
2, 68305, Note_on_c, 0, 77, 63
2, 68305, Note_on_c, 0, 89, 66
2, 68306, Note_on_c, 0, 60, 66
2, 68307, Note_on_c, 0, 91, 0
2, 68307, Note_on_c, 0, 48, 59
2, 68308, Note_on_c, 0, 49, 0
2, 68308, Note_on_c, 0, 61, 0
2, 68323, Note_on_c, 0, 79, 0
2, 68325, Control_c, 0, 64, 127
2, 68375, Note_on_c, 0, 89, 0
2, 68376, Note_on_c, 0, 77, 0
2, 68445, Note_on_c, 0, 81, 66
2, 68446, Note_on_c, 0, 69, 61
2, 68447, Note_on_c, 0, 53, 63
2, 68448, Note_on_c, 0, 41, 64
2, 68464, Note_on_c, 0, 60, 0
2, 68481, Note_on_c, 0, 48, 0
2, 68483, Control_c, 0, 64, 0
2, 68510, Note_on_c, 0, 84, 64
2, 68510, Note_on_c, 0, 87, 62
2, 68511, Note_on_c, 0, 75, 63
2, 68515, Note_on_c, 0, 41, 0
2, 68527, Note_on_c, 0, 81, 0
2, 68529, Note_on_c, 0, 69, 0
2, 68530, Note_on_c, 0, 53, 0
2, 68575, Note_on_c, 0, 57, 60
2, 68576, Note_on_c, 0, 45, 65
2, 68611, Note_on_c, 0, 75, 0
2, 68658, Note_on_c, 0, 84, 0
2, 68674, Note_on_c, 0, 87, 0
2, 68706, Note_on_c, 0, 44, 66
2, 68706, Note_on_c, 0, 56, 65
2, 68707, Note_on_c, 0, 57, 0
2, 68708, Note_on_c, 0, 45, 0
2, 68764, Note_on_c, 0, 86, 59
2, 68764, Note_on_c, 0, 91, 54
2, 68765, Note_on_c, 0, 79, 58
2, 68765, Note_on_c, 0, 83, 53
2, 68827, Note_on_c, 0, 55, 45
2, 68829, Note_on_c, 0, 43, 46
2, 68843, Note_on_c, 0, 79, 0
2, 68844, Note_on_c, 0, 56, 0
2, 68845, Note_on_c, 0, 44, 0
2, 68859, Control_c, 0, 64, 127
2, 68888, Note_on_c, 0, 67, 44
2, 68888, Note_on_c, 0, 79, 41
2, 68889, Note_on_c, 0, 91, 0
2, 68889, Note_on_c, 0, 83, 0
2, 68904, Note_on_c, 0, 86, 0
2, 68906, Note_on_c, 0, 55, 0
2, 68941, Control_c, 0, 64, 0
2, 68953, Note_on_c, 0, 65, 42
2, 68953, Note_on_c, 0, 71, 43
2, 68953, Note_on_c, 0, 83, 43
2, 68954, Note_on_c, 0, 67, 0
2, 68954, Note_on_c, 0, 79, 0
2, 68954, Note_on_c, 0, 55, 48
2, 68954, Note_on_c, 0, 59, 45
2, 68954, Note_on_c, 0, 62, 45
2, 69019, Note_on_c, 0, 86, 42
2, 69020, Note_on_c, 0, 74, 43
2, 69022, Note_on_c, 0, 83, 0
2, 69037, Note_on_c, 0, 71, 0
2, 69037, Note_on_c, 0, 62, 0
2, 69037, Note_on_c, 0, 59, 0
2, 69039, Note_on_c, 0, 43, 0
2, 69053, Note_on_c, 0, 55, 0
2, 69053, Note_on_c, 0, 65, 0
2, 69080, Note_on_c, 0, 91, 59
2, 69081, Note_on_c, 0, 79, 55
2, 69082, Note_on_c, 0, 35, 53
2, 69082, Note_on_c, 0, 47, 47
2, 69098, Note_on_c, 0, 86, 0
2, 69099, Note_on_c, 0, 74, 0
2, 69142, Note_on_c, 0, 77, 42
2, 69142, Note_on_c, 0, 89, 47
2, 69160, Note_on_c, 0, 79, 0
2, 69160, Note_on_c, 0, 91, 0
2, 69162, Note_on_c, 0, 35, 0
2, 69162, Note_on_c, 0, 47, 0
2, 69204, Note_on_c, 0, 55, 47
2, 69204, Note_on_c, 0, 62, 52
2, 69204, Note_on_c, 0, 65, 42
2, 69236, Note_on_c, 0, 89, 0
2, 69252, Note_on_c, 0, 77, 0
2, 69264, Note_on_c, 0, 84, 60
2, 69264, Note_on_c, 0, 87, 56
2, 69265, Note_on_c, 0, 79, 58
2, 69266, Note_on_c, 0, 65, 0
2, 69266, Note_on_c, 0, 75, 55
2, 69283, Note_on_c, 0, 62, 0
2, 69283, Note_on_c, 0, 55, 0
2, 69326, Note_on_c, 0, 36, 53
2, 69326, Note_on_c, 0, 48, 58
2, 69384, Control_c, 0, 64, 127
2, 69393, Note_on_c, 0, 37, 56
2, 69394, Note_on_c, 0, 49, 53
2, 69408, Note_on_c, 0, 79, 0
2, 69408, Note_on_c, 0, 84, 0
2, 69409, Note_on_c, 0, 87, 0
2, 69409, Note_on_c, 0, 75, 0
2, 69411, Note_on_c, 0, 36, 0
2, 69429, Note_on_c, 0, 48, 0
2, 69456, Note_on_c, 0, 86, 59
2, 69457, Note_on_c, 0, 77, 59
2, 69457, Note_on_c, 0, 79, 55
2, 69457, Note_on_c, 0, 83, 54
2, 69458, Note_on_c, 0, 74, 57
2, 69460, Note_on_c, 0, 38, 57
2, 69460, Note_on_c, 0, 50, 53
2, 69462, Note_on_c, 0, 37, 0
2, 69478, Note_on_c, 0, 49, 0
2, 69480, Control_c, 0, 64, 0
2, 69528, Note_on_c, 0, 53, 53
2, 69528, Note_on_c, 0, 41, 58
2, 69543, Note_on_c, 0, 79, 0
2, 69544, Note_on_c, 0, 77, 0
2, 69544, Note_on_c, 0, 83, 0
2, 69545, Note_on_c, 0, 50, 0
2, 69546, Note_on_c, 0, 38, 0
2, 69560, Note_on_c, 0, 86, 0
2, 69561, Note_on_c, 0, 74, 0
2, 69593, Note_on_c, 0, 84, 57
2, 69594, Note_on_c, 0, 72, 53
2, 69594, Note_on_c, 0, 79, 60
2, 69595, Note_on_c, 0, 75, 56
2, 69596, Note_on_c, 0, 51, 54
2, 69597, Note_on_c, 0, 39, 55
2, 69614, Note_on_c, 0, 41, 0
2, 69614, Note_on_c, 0, 53, 0
2, 69677, Note_on_c, 0, 51, 0
2, 69678, Note_on_c, 0, 39, 0
2, 69715, Note_on_c, 0, 60, 50
2, 69720, Note_on_c, 0, 55, 49
2, 69721, Note_on_c, 0, 51, 52
2, 69803, Note_on_c, 0, 79, 0
2, 69803, Note_on_c, 0, 84, 0
2, 69804, Note_on_c, 0, 72, 0
2, 69805, Note_on_c, 0, 60, 0
2, 69805, Note_on_c, 0, 75, 0
2, 69806, Note_on_c, 0, 51, 0
2, 69823, Note_on_c, 0, 55, 0
2, 69852, Note_on_c, 0, 86, 60
2, 69853, Note_on_c, 0, 76, 60
2, 69853, Note_on_c, 0, 82, 59
2, 69854, Note_on_c, 0, 74, 59
2, 69855, Note_on_c, 0, 48, 65
2, 69856, Note_on_c, 0, 36, 65
2, 69873, Control_c, 0, 64, 127
2, 69921, Note_on_c, 0, 86, 0
2, 69922, Note_on_c, 0, 74, 0
2, 69922, Note_on_c, 0, 76, 0
2, 69922, Note_on_c, 0, 82, 0
2, 69923, Note_on_c, 0, 36, 0
2, 69940, Note_on_c, 0, 48, 0
2, 69958, Control_c, 0, 64, 0
2, 69984, Note_on_c, 0, 84, 60
2, 69984, Note_on_c, 0, 55, 46
2, 69984, Note_on_c, 0, 60, 46
2, 69984, Note_on_c, 0, 72, 55
2, 69984, Note_on_c, 0, 76, 60
2, 69984, Note_on_c, 0, 82, 56
2, 69985, Note_on_c, 0, 58, 48
2, 70051, Note_on_c, 0, 82, 0
2, 70051, Note_on_c, 0, 60, 0
2, 70051, Note_on_c, 0, 84, 0
2, 70052, Note_on_c, 0, 58, 0
2, 70068, Note_on_c, 0, 55, 0
2, 70068, Note_on_c, 0, 72, 0
2, 70068, Note_on_c, 0, 76, 0
2, 70121, Note_on_c, 0, 82, 58
2, 70121, Note_on_c, 0, 86, 60
2, 70122, Note_on_c, 0, 74, 53
2, 70123, Note_on_c, 0, 40, 45
2, 70123, Note_on_c, 0, 52, 44
2, 70217, Note_on_c, 0, 86, 0
2, 70217, Note_on_c, 0, 82, 0
2, 70218, Note_on_c, 0, 74, 0
2, 70220, Note_on_c, 0, 40, 0
2, 70236, Note_on_c, 0, 52, 0
2, 70267, Note_on_c, 0, 82, 56
2, 70267, Note_on_c, 0, 84, 54
2, 70268, Note_on_c, 0, 55, 47
2, 70268, Note_on_c, 0, 58, 48
2, 70268, Note_on_c, 0, 60, 43
2, 70268, Note_on_c, 0, 72, 54
2, 70336, Note_on_c, 0, 72, 0
2, 70336, Note_on_c, 0, 84, 0
2, 70336, Note_on_c, 0, 82, 0
2, 70336, Note_on_c, 0, 55, 0
2, 70336, Note_on_c, 0, 60, 0
2, 70337, Note_on_c, 0, 58, 0
2, 70391, Control_c, 0, 64, 127
2, 70403, Note_on_c, 0, 87, 68
2, 70403, Note_on_c, 0, 91, 70
2, 70404, Note_on_c, 0, 79, 69
2, 70406, Note_on_c, 0, 41, 48
2, 70421, Note_on_c, 0, 81, 66
2, 70422, Note_on_c, 0, 53, 45
2, 70474, Note_on_c, 0, 91, 0
2, 70475, Note_on_c, 0, 81, 0
2, 70475, Note_on_c, 0, 87, 0
2, 70475, Note_on_c, 0, 79, 0
2, 70477, Note_on_c, 0, 41, 0
2, 70477, Note_on_c, 0, 53, 0
2, 70494, Control_c, 0, 64, 0
2, 70536, Note_on_c, 0, 87, 67
2, 70536, Note_on_c, 0, 89, 72
2, 70536, Note_on_c, 0, 77, 70
2, 70537, Note_on_c, 0, 60, 43
2, 70537, Note_on_c, 0, 63, 42
2, 70552, Note_on_c, 0, 81, 69
2, 70556, Note_on_c, 0, 53, 46
2, 70616, Note_on_c, 0, 89, 0
2, 70617, Note_on_c, 0, 60, 0
2, 70617, Note_on_c, 0, 87, 0
2, 70617, Note_on_c, 0, 77, 0
2, 70618, Note_on_c, 0, 53, 0
2, 70618, Note_on_c, 0, 63, 0
2, 70632, Note_on_c, 0, 81, 0
2, 70661, Note_on_c, 0, 87, 75
2, 70661, Note_on_c, 0, 93, 75
2, 70661, Note_on_c, 0, 98, 77
2, 70665, Note_on_c, 0, 41, 43
2, 70666, Note_on_c, 0, 29, 41
2, 70731, Note_on_c, 0, 98, 0
2, 70731, Note_on_c, 0, 87, 0
2, 70731, Note_on_c, 0, 93, 0
2, 70736, Note_on_c, 0, 41, 0
2, 70737, Note_on_c, 0, 29, 0
2, 70780, Note_on_c, 0, 87, 76
2, 70798, Note_on_c, 0, 93, 78
2, 70798, Note_on_c, 0, 96, 71
2, 70799, Note_on_c, 0, 84, 73
2, 70800, Note_on_c, 0, 63, 47
2, 70801, Note_on_c, 0, 57, 47
2, 70818, Note_on_c, 0, 53, 47
2, 70849, Note_on_c, 0, 87, 0
2, 70851, Note_on_c, 0, 63, 0
2, 70862, Note_on_c, 0, 57, 0
2, 70864, Note_on_c, 0, 84, 0
2, 70864, Note_on_c, 0, 93, 0
2, 70864, Note_on_c, 0, 96, 0
2, 70868, Note_on_c, 0, 53, 0
2, 70928, Note_on_c, 0, 94, 58
2, 70929, Note_on_c, 0, 82, 54
2, 70929, Note_on_c, 0, 86, 57
2, 70933, Note_on_c, 0, 34, 56
2, 70933, Note_on_c, 0, 46, 58
2, 70934, Control_c, 0, 64, 127
2, 70946, Note_on_c, 0, 82, 0
2, 70996, Note_on_c, 0, 82, 54
2, 70997, Note_on_c, 0, 94, 0
2, 70997, Note_on_c, 0, 86, 0
2, 70997, Note_on_c, 0, 70, 47
2, 71001, Note_on_c, 0, 46, 0
2, 71002, Note_on_c, 0, 34, 0
2, 71065, Note_on_c, 0, 84, 49
2, 71066, Note_on_c, 0, 72, 54
2, 71067, Note_on_c, 0, 82, 0
2, 71067, Note_on_c, 0, 58, 42
2, 71067, Note_on_c, 0, 62, 44
2, 71068, Note_on_c, 0, 70, 0
2, 71085, Note_on_c, 0, 53, 45
2, 71123, Control_c, 0, 64, 0
2, 71132, Note_on_c, 0, 85, 51
2, 71133, Note_on_c, 0, 73, 53
2, 71150, Note_on_c, 0, 84, 0
2, 71151, Note_on_c, 0, 62, 0
2, 71151, Note_on_c, 0, 58, 0
2, 71152, Note_on_c, 0, 53, 0
2, 71184, Note_on_c, 0, 72, 0
2, 71196, Note_on_c, 0, 86, 66
2, 71197, Note_on_c, 0, 74, 61
2, 71198, Note_on_c, 0, 62, 44
2, 71199, Note_on_c, 0, 50, 41
2, 71216, Note_on_c, 0, 73, 0
2, 71232, Note_on_c, 0, 85, 0
2, 71264, Note_on_c, 0, 93, 60
2, 71282, Note_on_c, 0, 81, 46
2, 71283, Note_on_c, 0, 86, 0
2, 71284, Note_on_c, 0, 74, 0
2, 71334, Note_on_c, 0, 61, 43
2, 71335, Note_on_c, 0, 49, 42
2, 71336, Note_on_c, 0, 62, 0
2, 71337, Note_on_c, 0, 50, 0
2, 71387, Control_c, 0, 64, 127
2, 71400, Note_on_c, 0, 79, 49
2, 71400, Note_on_c, 0, 91, 53
2, 71401, Note_on_c, 0, 93, 0
2, 71418, Note_on_c, 0, 81, 0
2, 71462, Note_on_c, 0, 89, 48
2, 71463, Note_on_c, 0, 77, 50
2, 71464, Note_on_c, 0, 60, 46
2, 71465, Note_on_c, 0, 79, 0
2, 71465, Note_on_c, 0, 91, 0
2, 71465, Note_on_c, 0, 48, 41
2, 71466, Note_on_c, 0, 61, 0
2, 71468, Note_on_c, 0, 49, 0
2, 71527, Note_on_c, 0, 89, 0
2, 71527, Note_on_c, 0, 77, 0
2, 71583, Control_c, 0, 64, 0
2, 71589, Note_on_c, 0, 81, 50
2, 71591, Note_on_c, 0, 63, 44
2, 71591, Note_on_c, 0, 69, 49
2, 71592, Note_on_c, 0, 57, 42
2, 71610, Note_on_c, 0, 60, 0
2, 71610, Note_on_c, 0, 53, 45
2, 71628, Note_on_c, 0, 48, 0
2, 71656, Note_on_c, 0, 84, 57
2, 71656, Note_on_c, 0, 87, 56
2, 71658, Note_on_c, 0, 75, 54
2, 71660, Note_on_c, 0, 63, 0
2, 71660, Note_on_c, 0, 57, 0
2, 71672, Note_on_c, 0, 81, 0
2, 71676, Note_on_c, 0, 69, 0
2, 71677, Note_on_c, 0, 53, 0
2, 71730, Note_on_c, 0, 41, 42
2, 71731, Note_on_c, 0, 29, 46
2, 71785, Note_on_c, 0, 29, 0
2, 71796, Note_on_c, 0, 87, 0
2, 71796, Note_on_c, 0, 84, 0
2, 71797, Note_on_c, 0, 75, 0
2, 71801, Note_on_c, 0, 41, 0
2, 71867, Note_on_c, 0, 57, 46
2, 71867, Note_on_c, 0, 63, 46
2, 71868, Note_on_c, 0, 53, 46
2, 71934, Note_on_c, 0, 94, 71
2, 71935, Note_on_c, 0, 82, 70
2, 71935, Note_on_c, 0, 86, 65
2, 71937, Note_on_c, 0, 63, 0
2, 71938, Note_on_c, 0, 57, 0
2, 71954, Note_on_c, 0, 53, 0
2, 71994, Control_c, 0, 64, 127
2, 72004, Note_on_c, 0, 82, 0
2, 72005, Note_on_c, 0, 58, 60
2, 72006, Note_on_c, 0, 46, 61
2, 72067, Note_on_c, 0, 82, 61
2, 72068, Note_on_c, 0, 70, 62
2, 72072, Note_on_c, 0, 58, 0
2, 72084, Note_on_c, 0, 94, 0
2, 72085, Note_on_c, 0, 86, 0
2, 72089, Note_on_c, 0, 46, 0
2, 72131, Note_on_c, 0, 84, 66
2, 72132, Note_on_c, 0, 58, 64
2, 72132, Note_on_c, 0, 72, 59
2, 72133, Note_on_c, 0, 82, 0
2, 72133, Note_on_c, 0, 62, 64
2, 72134, Note_on_c, 0, 70, 0
2, 72134, Note_on_c, 0, 53, 62
2, 72140, Control_c, 0, 64, 0
2, 72199, Note_on_c, 0, 85, 65
2, 72200, Note_on_c, 0, 73, 64
2, 72202, Note_on_c, 0, 58, 0
2, 72218, Note_on_c, 0, 62, 0
2, 72218, Note_on_c, 0, 72, 0
2, 72219, Note_on_c, 0, 53, 0
2, 72226, Note_on_c, 0, 84, 0
2, 72265, Note_on_c, 0, 86, 69
2, 72266, Note_on_c, 0, 74, 71
2, 72267, Note_on_c, 0, 62, 59
2, 72268, Note_on_c, 0, 50, 61
2, 72285, Note_on_c, 0, 85, 0
2, 72302, Note_on_c, 0, 73, 0
2, 72330, Note_on_c, 0, 93, 70
2, 72347, Note_on_c, 0, 81, 65
2, 72348, Note_on_c, 0, 86, 0
2, 72364, Note_on_c, 0, 74, 0
2, 72393, Note_on_c, 0, 61, 60
2, 72395, Note_on_c, 0, 49, 66
2, 72410, Note_on_c, 0, 62, 0
2, 72411, Note_on_c, 0, 50, 0
2, 72454, Note_on_c, 0, 79, 59
2, 72454, Note_on_c, 0, 91, 60
2, 72470, Note_on_c, 0, 93, 0
2, 72486, Note_on_c, 0, 81, 0
2, 72517, Note_on_c, 0, 89, 56
2, 72518, Note_on_c, 0, 77, 53
2, 72519, Note_on_c, 0, 60, 66
2, 72521, Note_on_c, 0, 48, 65
2, 72533, Note_on_c, 0, 91, 0
2, 72534, Note_on_c, 0, 79, 0
2, 72535, Control_c, 0, 64, 127
2, 72536, Note_on_c, 0, 61, 0
2, 72537, Note_on_c, 0, 49, 0
2, 72580, Note_on_c, 0, 89, 0
2, 72580, Note_on_c, 0, 77, 0
2, 72643, Note_on_c, 0, 69, 59
2, 72644, Note_on_c, 0, 53, 66
2, 72645, Note_on_c, 0, 60, 0
2, 72646, Note_on_c, 0, 41, 62
2, 72666, Control_c, 0, 64, 0
2, 72693, Note_on_c, 0, 48, 0
2, 72702, Note_on_c, 0, 87, 59
2, 72703, Note_on_c, 0, 81, 60
2, 72703, Note_on_c, 0, 84, 59
2, 72704, Note_on_c, 0, 75, 60
2, 72706, Note_on_c, 0, 69, 0
2, 72707, Note_on_c, 0, 53, 0
2, 72709, Note_on_c, 0, 41, 0
2, 72720, Note_on_c, 0, 81, 0
2, 72771, Note_on_c, 0, 57, 60
2, 72772, Note_on_c, 0, 45, 62
2, 72868, Note_on_c, 0, 87, 0
2, 72868, Note_on_c, 0, 84, 0
2, 72869, Note_on_c, 0, 75, 0
2, 72887, Note_on_c, 0, 57, 0
2, 72899, Note_on_c, 0, 56, 65
2, 72900, Note_on_c, 0, 44, 61
2, 72902, Note_on_c, 0, 45, 0
2, 72957, Note_on_c, 0, 91, 72
2, 72958, Note_on_c, 0, 79, 71
2, 72958, Note_on_c, 0, 83, 74
2, 72958, Note_on_c, 0, 86, 72
2, 73022, Note_on_c, 0, 79, 0
2, 73023, Note_on_c, 0, 55, 69
2, 73024, Note_on_c, 0, 43, 72
2, 73040, Note_on_c, 0, 56, 0
2, 73041, Note_on_c, 0, 44, 0
2, 73068, Note_on_c, 0, 83, 0
2, 73068, Note_on_c, 0, 91, 0
2, 73083, Note_on_c, 0, 79, 65
2, 73085, Note_on_c, 0, 86, 0
2, 73085, Note_on_c, 0, 67, 72
2, 73086, Note_on_c, 0, 55, 0
2, 73151, Note_on_c, 0, 83, 71
2, 73152, Note_on_c, 0, 71, 66
2, 73152, Note_on_c, 0, 59, 69
2, 73152, Note_on_c, 0, 62, 70
2, 73152, Note_on_c, 0, 65, 70
2, 73153, Note_on_c, 0, 55, 71
2, 73169, Note_on_c, 0, 79, 0
2, 73170, Note_on_c, 0, 67, 0
2, 73213, Note_on_c, 0, 86, 70
2, 73214, Note_on_c, 0, 74, 66
2, 73216, Note_on_c, 0, 83, 0
2, 73217, Note_on_c, 0, 59, 0
2, 73218, Control_c, 0, 64, 127
2, 73233, Note_on_c, 0, 65, 0
2, 73233, Note_on_c, 0, 71, 0
2, 73233, Note_on_c, 0, 62, 0
2, 73234, Note_on_c, 0, 55, 0
2, 73235, Note_on_c, 0, 43, 0
2, 73277, Note_on_c, 0, 91, 79
2, 73278, Note_on_c, 0, 79, 77
2, 73280, Note_on_c, 0, 86, 0
2, 73280, Note_on_c, 0, 47, 65
2, 73281, Note_on_c, 0, 35, 66
2, 73296, Note_on_c, 0, 74, 0
2, 73335, Control_c, 0, 64, 0
2, 73344, Note_on_c, 0, 89, 67
2, 73344, Note_on_c, 0, 77, 72
2, 73345, Note_on_c, 0, 79, 0
2, 73345, Note_on_c, 0, 91, 0
2, 73349, Note_on_c, 0, 35, 0
2, 73349, Note_on_c, 0, 47, 0
2, 73409, Note_on_c, 0, 62, 68
2, 73409, Note_on_c, 0, 65, 83
2, 73411, Note_on_c, 0, 55, 72
2, 73441, Note_on_c, 0, 89, 0
2, 73459, Note_on_c, 0, 77, 0
2, 73470, Note_on_c, 0, 84, 80
2, 73470, Note_on_c, 0, 87, 79
2, 73471, Note_on_c, 0, 75, 83
2, 73471, Note_on_c, 0, 79, 80
2, 73476, Note_on_c, 0, 65, 0
2, 73476, Note_on_c, 0, 55, 0
2, 73476, Note_on_c, 0, 62, 0
2, 73538, Note_on_c, 0, 36, 69
2, 73538, Note_on_c, 0, 48, 67
2, 73569, Note_on_c, 0, 87, 0
2, 73570, Control_c, 0, 64, 127
2, 73583, Note_on_c, 0, 79, 0
2, 73583, Note_on_c, 0, 84, 0
2, 73584, Note_on_c, 0, 75, 0
2, 73603, Note_on_c, 0, 49, 71
2, 73604, Note_on_c, 0, 37, 72
2, 73621, Note_on_c, 0, 48, 0
2, 73623, Note_on_c, 0, 36, 0
2, 73667, Note_on_c, 0, 86, 78
2, 73668, Note_on_c, 0, 79, 80
2, 73668, Note_on_c, 0, 83, 84
2, 73669, Note_on_c, 0, 77, 79
2, 73670, Note_on_c, 0, 74, 77
2, 73671, Note_on_c, 0, 50, 66
2, 73672, Note_on_c, 0, 38, 69
2, 73689, Note_on_c, 0, 49, 0
2, 73691, Note_on_c, 0, 37, 0
2, 73738, Note_on_c, 0, 83, 0
2, 73740, Note_on_c, 0, 41, 66
2, 73741, Note_on_c, 0, 50, 0
2, 73753, Note_on_c, 0, 86, 0
2, 73754, Note_on_c, 0, 79, 0
2, 73754, Note_on_c, 0, 77, 0
2, 73755, Note_on_c, 0, 74, 0
2, 73755, Note_on_c, 0, 53, 65
2, 73759, Note_on_c, 0, 38, 0
2, 73779, Control_c, 0, 64, 0
2, 73800, Note_on_c, 0, 79, 77
2, 73800, Note_on_c, 0, 84, 82
2, 73801, Note_on_c, 0, 72, 83
2, 73801, Note_on_c, 0, 75, 80
2, 73805, Note_on_c, 0, 51, 71
2, 73806, Note_on_c, 0, 39, 65
2, 73808, Note_on_c, 0, 41, 0
2, 73823, Note_on_c, 0, 53, 0
2, 73867, Note_on_c, 0, 79, 0
2, 73868, Note_on_c, 0, 55, 68
2, 73869, Note_on_c, 0, 75, 0
2, 73869, Note_on_c, 0, 43, 70
2, 73871, Note_on_c, 0, 39, 0
2, 73882, Note_on_c, 0, 84, 0
2, 73897, Note_on_c, 0, 51, 0
2, 73917, Note_on_c, 0, 72, 0
2, 73931, Note_on_c, 0, 79, 45
2, 73931, Note_on_c, 0, 83, 45
2, 73931, Note_on_c, 0, 85, 43
2, 73931, Note_on_c, 0, 91, 46
2, 73935, Note_on_c, 0, 52, 80
2, 73936, Note_on_c, 0, 40, 83
2, 73953, Note_on_c, 0, 43, 0
2, 73968, Note_on_c, 0, 55, 0
2, 73999, Note_on_c, 0, 83, 0
2, 73999, Note_on_c, 0, 79, 0
2, 73999, Note_on_c, 0, 85, 0
2, 73999, Note_on_c, 0, 91, 0
2, 73999, Note_on_c, 0, 58, 59
2, 74000, Note_on_c, 0, 46, 60
2, 74004, Note_on_c, 0, 40, 0
2, 74018, Note_on_c, 0, 52, 0
2, 74019, Control_c, 0, 64, 127
2, 74052, Note_on_c, 0, 58, 0
2, 74062, Note_on_c, 0, 86, 66
2, 74062, Note_on_c, 0, 89, 72
2, 74063, Note_on_c, 0, 82, 67
2, 74064, Note_on_c, 0, 77, 72
2, 74065, Note_on_c, 0, 53, 60
2, 74066, Note_on_c, 0, 41, 59
2, 74081, Note_on_c, 0, 77, 0
2, 74085, Note_on_c, 0, 46, 0
2, 74128, Note_on_c, 0, 65, 68
2, 74128, Note_on_c, 0, 77, 68
2, 74147, Note_on_c, 0, 86, 0
2, 74147, Note_on_c, 0, 82, 0
2, 74147, Note_on_c, 0, 89, 0
2, 74148, Note_on_c, 0, 53, 0
2, 74149, Note_on_c, 0, 41, 0
2, 74196, Note_on_c, 0, 79, 70
2, 74197, Note_on_c, 0, 58, 67
2, 74197, Note_on_c, 0, 62, 65
2, 74197, Note_on_c, 0, 67, 70
2, 74214, Note_on_c, 0, 77, 0
2, 74215, Note_on_c, 0, 65, 0
2, 74215, Note_on_c, 0, 53, 60
2, 74220, Control_c, 0, 64, 0
2, 74264, Note_on_c, 0, 80, 69
2, 74265, Note_on_c, 0, 79, 0
2, 74265, Note_on_c, 0, 68, 71
2, 74266, Note_on_c, 0, 67, 0
2, 74266, Note_on_c, 0, 62, 0
2, 74267, Note_on_c, 0, 58, 0
2, 74284, Note_on_c, 0, 53, 0
2, 74331, Note_on_c, 0, 81, 69
2, 74332, Note_on_c, 0, 69, 66
2, 74333, Note_on_c, 0, 68, 0
2, 74334, Note_on_c, 0, 41, 61
2, 74335, Note_on_c, 0, 29, 65
2, 74350, Note_on_c, 0, 80, 0
2, 74385, Note_on_c, 0, 29, 0
2, 74394, Note_on_c, 0, 89, 68
2, 74395, Note_on_c, 0, 77, 66
2, 74397, Note_on_c, 0, 69, 0
2, 74399, Note_on_c, 0, 41, 0
2, 74426, Note_on_c, 0, 81, 0
2, 74454, Note_on_c, 0, 79, 68
2, 74455, Note_on_c, 0, 67, 72
2, 74456, Note_on_c, 0, 53, 62
2, 74456, Note_on_c, 0, 57, 63
2, 74456, Note_on_c, 0, 63, 68
2, 74472, Note_on_c, 0, 89, 0
2, 74472, Note_on_c, 0, 77, 0
2, 74520, Note_on_c, 0, 81, 70
2, 74521, Note_on_c, 0, 69, 71
2, 74522, Note_on_c, 0, 57, 0
2, 74522, Note_on_c, 0, 63, 0
2, 74538, Note_on_c, 0, 79, 0
2, 74538, Note_on_c, 0, 67, 0
2, 74540, Note_on_c, 0, 53, 0
2, 74590, Note_on_c, 0, 70, 74
2, 74590, Note_on_c, 0, 74, 73
2, 74590, Note_on_c, 0, 82, 71
2, 74591, Note_on_c, 0, 62, 67
2, 74592, Note_on_c, 0, 69, 0
2, 74592, Note_on_c, 0, 58, 68
2, 74613, Control_c, 0, 64, 127
2, 74625, Note_on_c, 0, 81, 0
2, 74658, Note_on_c, 0, 82, 0
2, 74659, Note_on_c, 0, 70, 0
2, 74660, Note_on_c, 0, 58, 0
2, 74674, Note_on_c, 0, 74, 0
2, 74723, Note_on_c, 0, 41, 73
2, 74723, Note_on_c, 0, 53, 76
2, 74740, Note_on_c, 0, 62, 0
2, 74778, Control_c, 0, 64, 0
2, 74789, Note_on_c, 0, 50, 78
2, 74790, Note_on_c, 0, 38, 72
2, 74808, Note_on_c, 0, 41, 0
2, 74824, Note_on_c, 0, 53, 0
2, 74854, Note_on_c, 0, 89, 74
2, 74854, Note_on_c, 0, 94, 71
2, 74855, Note_on_c, 0, 82, 75
2, 74855, Note_on_c, 0, 86, 73
2, 74858, Note_on_c, 0, 46, 71
2, 74859, Note_on_c, 0, 34, 72
2, 74877, Note_on_c, 0, 50, 0
2, 74877, Note_on_c, 0, 38, 0
2, 75071, Note_on_c, 0, 94, 0
2, 75071, Note_on_c, 0, 89, 0
2, 75071, Note_on_c, 0, 86, 0
2, 75072, Note_on_c, 0, 82, 0
2, 75073, Note_on_c, 0, 46, 0
2, 75074, Note_on_c, 0, 34, 0
2, 75074, End_track
3, 0, Start_track
3, 1, Copyright_t, "___________________________________________________\012\012KUNSTDERFUGE.COM LARGE CLASSICAL MIDI COLLECTION\012ONCLASSICAL BY ALESSANDRO SIMONETTO, PROPRIETOR\012___________________________________________________\012\012! Attention: this file is under copyright !\012\012(c)onclassical, (nc)smythe, 2010\012___________________________________________________\012\012NO ONE MAY REPUBLISH THIS FILE WITHOUT PERMISSION\012COMMERCIAL USES OF THIS FILE IS STRICTLY PROHIBITED\012___________________________________________________\012\012Files & contributor's list: http://kunstderfuge.com/\012Terms and conditions: http://kunstderfuge.com/notes.htm"
3, 1, End_track
0, 0, End_of_file
