0, 0, Header, 1, 14, 384
1, 0, Start_track
1, 0, Time_signature, 4, 2, 96, 8
1, 0, Sequencer_specific, 3, 0, 0, 65
1, 0, Tempo, 500000
1, 104416, Tempo, 500000
1, 105916, Tempo, 500000
1, 105920, Tempo, 500000
1, 105920, End_track
2, 0, Start_track
2, 0, Title_t, "Scott Joplin's Rag-Time performance"
2, 0, Key_signature, 0, "major"
2, 0, Control_c, 1, 121, 127
2, 1428, Note_on_c, 1, 53, 66
2, 1428, Note_on_c, 1, 65, 85
2, 1516, Note_off_c, 1, 65, 64
2, 1560, Note_on_c, 1, 77, 93
2, 1560, Note_on_c, 1, 65, 71
2, 1564, Note_off_c, 1, 53, 64
2, 1804, Note_off_c, 1, 65, 64
2, 1820, Note_on_c, 1, 73, 77
2, 1824, Note_off_c, 1, 77, 64
2, 1824, Note_on_c, 1, 61, 60
2, 1956, Note_off_c, 1, 73, 64
2, 1960, Note_on_c, 1, 74, 85
2, 1960, Note_on_c, 1, 62, 65
2, 1964, Note_off_c, 1, 61, 64
2, 2200, Note_off_c, 1, 74, 64
2, 2208, Note_on_c, 1, 72, 68
2, 2216, Note_off_c, 1, 62, 64
2, 2216, Note_on_c, 1, 60, 58
2, 2444, Note_on_c, 1, 58, 39
2, 2448, Note_on_c, 1, 70, 66
2, 2456, Note_off_c, 1, 72, 64
2, 2472, Note_off_c, 1, 60, 64
2, 2508, Note_off_c, 1, 58, 64
2, 2524, Note_off_c, 1, 70, 64
2, 2688, Note_on_c, 1, 62, 83
2, 2692, Note_on_c, 1, 50, 70
2, 2932, Note_on_c, 1, 63, 78
2, 2940, Note_off_c, 1, 50, 64
2, 2940, Note_on_c, 1, 51, 61
2, 2980, Note_off_c, 1, 62, 64
2, 2980, Control_c, 1, 64, 127
2, 3144, Control_c, 1, 64, 0
2, 3168, Note_off_c, 1, 51, 64
2, 3168, Note_on_c, 1, 64, 78
2, 3168, Note_on_c, 1, 52, 54
2, 3232, Note_off_c, 1, 63, 64
2, 3240, Control_c, 1, 64, 127
2, 3420, Control_c, 1, 64, 0
2, 3428, Note_on_c, 1, 53, 65
2, 3432, Note_off_c, 1, 52, 64
2, 3432, Note_on_c, 1, 65, 73
2, 3444, Note_off_c, 1, 64, 64
2, 3464, Note_off_c, 1, 53, 64
2, 3488, Note_off_c, 1, 65, 64
2, 3556, Note_on_c, 1, 70, 77
2, 3564, Note_on_c, 1, 58, 69
2, 3788, Note_off_c, 1, 58, 64
2, 3792, Note_on_c, 1, 68, 71
2, 3796, Note_on_c, 1, 56, 64
2, 3804, Note_off_c, 1, 70, 64
2, 3920, Note_on_c, 1, 69, 78
2, 3932, Note_on_c, 1, 57, 62
2, 3936, Note_off_c, 1, 56, 64
2, 3948, Note_off_c, 1, 68, 64
2, 4172, Note_off_c, 1, 57, 64
2, 4176, Note_on_c, 1, 55, 61
2, 4180, Note_on_c, 1, 67, 77
2, 4200, Note_off_c, 1, 69, 64
2, 4408, Note_off_c, 1, 55, 64
2, 4420, Note_off_c, 1, 67, 64
2, 4424, Note_on_c, 1, 65, 71
2, 4424, Note_on_c, 1, 53, 61
2, 4464, Control_c, 1, 64, 127
2, 4500, Note_off_c, 1, 53, 64
2, 4512, Note_off_c, 1, 65, 64
2, 4612, Control_c, 1, 64, 0
2, 4652, Note_on_c, 1, 77, 93
2, 4656, Note_on_c, 1, 62, 64
2, 4660, Note_on_c, 1, 50, 64
2, 4692, Control_c, 1, 64, 127
2, 4744, Note_off_c, 1, 62, 64
2, 4876, Note_off_c, 1, 50, 64
2, 4880, Note_off_c, 1, 77, 64
2, 4908, Note_on_c, 1, 49, 65
2, 4908, Note_on_c, 1, 79, 108
2, 4908, Note_on_c, 1, 76, 88
2, 4908, Note_on_c, 1, 61, 53
2, 4916, Control_c, 1, 64, 0
2, 4972, Control_c, 1, 64, 127
2, 5000, Note_off_c, 1, 61, 64
2, 5004, Note_off_c, 1, 49, 64
2, 5044, Note_off_c, 1, 76, 64
2, 5076, Note_off_c, 1, 79, 64
2, 5148, Note_on_c, 1, 81, 104
2, 5148, Note_on_c, 1, 75, 85
2, 5156, Note_on_c, 1, 48, 73
2, 5156, Note_on_c, 1, 60, 73
2, 5156, Control_c, 1, 64, 0
2, 5200, Control_c, 1, 64, 127
2, 5232, Note_off_c, 1, 60, 64
2, 5248, Note_off_c, 1, 48, 64
2, 5256, Note_off_c, 1, 81, 64
2, 5276, Note_off_c, 1, 75, 64
2, 5380, Control_c, 1, 64, 0
2, 5400, Note_on_c, 1, 82, 80
2, 5400, Note_on_c, 1, 74, 85
2, 5400, Note_on_c, 1, 58, 71
2, 5400, Note_on_c, 1, 46, 78
2, 5420, Control_c, 1, 64, 127
2, 5440, Note_off_c, 1, 46, 64
2, 5452, Note_off_c, 1, 58, 64
2, 5468, Note_off_c, 1, 82, 64
2, 5468, Note_off_c, 1, 74, 64
2, 5516, Note_on_c, 1, 82, 80
2, 5524, Note_on_c, 1, 74, 83
2, 5648, Note_on_c, 1, 62, 77
2, 5648, Note_on_c, 1, 53, 78
2, 5652, Note_on_c, 1, 58, 70
2, 5664, Control_c, 1, 64, 0
2, 5668, Note_off_c, 1, 58, 64
2, 5672, Note_off_c, 1, 62, 64
2, 5672, Note_off_c, 1, 53, 64
2, 5756, Note_off_c, 1, 82, 64
2, 5784, Note_on_c, 1, 77, 93
2, 5892, Note_off_c, 1, 77, 64
2, 5896, Note_on_c, 1, 41, 83
2, 5904, Note_on_c, 1, 81, 88
2, 5912, Note_off_c, 1, 41, 64
2, 6016, Note_off_c, 1, 81, 64
2, 6028, Note_on_c, 1, 79, 88
2, 6144, Note_off_c, 1, 74, 64
2, 6144, Note_off_c, 1, 79, 64
2, 6144, Note_on_c, 1, 53, 75
2, 6148, Note_on_c, 1, 58, 61
2, 6148, Note_on_c, 1, 62, 66
2, 6152, Note_on_c, 1, 77, 88
2, 6164, Note_off_c, 1, 58, 64
2, 6164, Note_off_c, 1, 62, 64
2, 6168, Note_off_c, 1, 53, 64
2, 6284, Note_off_c, 1, 77, 64
2, 6284, Note_on_c, 1, 74, 88
2, 6396, Note_on_c, 1, 46, 78
2, 6400, Note_off_c, 1, 74, 64
2, 6404, Note_on_c, 1, 77, 83
2, 6412, Note_off_c, 1, 46, 64
2, 6520, Note_off_c, 1, 77, 64
2, 6520, Note_on_c, 1, 79, 77
2, 6640, Note_on_c, 1, 62, 73
2, 6640, Note_on_c, 1, 58, 64
2, 6640, Note_on_c, 1, 53, 71
2, 6656, Note_off_c, 1, 58, 64
2, 6660, Note_off_c, 1, 62, 64
2, 6664, Note_off_c, 1, 53, 64
2, 6764, Note_off_c, 1, 79, 64
2, 6764, Note_on_c, 1, 77, 85
2, 6884, Note_on_c, 1, 41, 73
2, 6900, Note_off_c, 1, 77, 64
2, 6900, Note_on_c, 1, 74, 83
2, 6904, Note_off_c, 1, 41, 64
2, 7144, Note_off_c, 1, 74, 64
2, 7144, Note_on_c, 1, 53, 73
2, 7144, Note_on_c, 1, 70, 78
2, 7144, Note_on_c, 1, 58, 60
2, 7148, Note_on_c, 1, 62, 65
2, 7184, Note_off_c, 1, 58, 64
2, 7188, Note_off_c, 1, 53, 64
2, 7192, Note_off_c, 1, 62, 64
2, 7200, Control_c, 1, 64, 127
2, 7244, Note_off_c, 1, 70, 64
2, 7280, Control_c, 1, 64, 0
2, 7396, Note_on_c, 1, 70, 66
2, 7408, Note_on_c, 1, 55, 54
2, 7408, Note_on_c, 1, 62, 40
2, 7412, Note_on_c, 1, 58, 33
2, 7416, Control_c, 1, 64, 127
2, 7448, Note_off_c, 1, 58, 64
2, 7456, Note_off_c, 1, 62, 64
2, 7468, Note_off_c, 1, 55, 64
2, 7520, Note_on_c, 1, 74, 71
2, 7520, Control_c, 1, 64, 0
2, 7532, Note_off_c, 1, 70, 64
2, 7584, Control_c, 1, 64, 127
2, 7624, Control_c, 1, 64, 0
2, 7648, Note_on_c, 1, 55, 65
2, 7648, Note_on_c, 1, 62, 60
2, 7648, Note_on_c, 1, 58, 52
2, 7672, Note_off_c, 1, 58, 64
2, 7688, Note_off_c, 1, 55, 64
2, 7688, Note_off_c, 1, 62, 64
2, 7692, Control_c, 1, 64, 127
2, 7756, Note_on_c, 1, 70, 66
2, 7768, Note_off_c, 1, 74, 64
2, 7812, Note_off_c, 1, 70, 64
2, 7868, Control_c, 1, 64, 0
2, 7892, Note_on_c, 1, 69, 73
2, 7892, Note_on_c, 1, 66, 63
2, 7896, Note_on_c, 1, 54, 48
2, 7900, Note_on_c, 1, 57, 39
2, 7904, Note_on_c, 1, 62, 39
2, 7904, Note_on_c, 1, 50, 42
2, 7928, Control_c, 1, 64, 127
2, 7968, Note_off_c, 1, 54, 64
2, 7968, Note_off_c, 1, 57, 64
2, 7968, Note_off_c, 1, 62, 64
2, 7968, Note_off_c, 1, 50, 64
2, 7988, Note_off_c, 1, 66, 64
2, 8008, Note_off_c, 1, 69, 64
2, 8124, Control_c, 1, 64, 0
2, 8136, Note_on_c, 1, 74, 77
2, 8144, Note_on_c, 1, 66, 57
2, 8144, Note_on_c, 1, 62, 43
2, 8148, Note_on_c, 1, 57, 40
2, 8164, Control_c, 1, 64, 127
2, 8168, Note_off_c, 1, 57, 64
2, 8188, Note_off_c, 1, 62, 64
2, 8232, Note_off_c, 1, 66, 64
2, 8244, Note_off_c, 1, 74, 64
2, 8264, Note_on_c, 1, 67, 80
2, 8276, Control_c, 1, 64, 0
2, 8380, Note_on_c, 1, 55, 38
2, 8388, Note_on_c, 1, 62, 35
2, 8392, Note_on_c, 1, 58, 32
2, 8444, Note_off_c, 1, 58, 64
2, 8456, Note_off_c, 1, 62, 64
2, 8464, Note_off_c, 1, 55, 64
2, 8620, Note_on_c, 1, 58, 50
2, 8624, Note_on_c, 1, 62, 43
2, 8628, Note_on_c, 1, 55, 40
2, 8648, Control_c, 1, 64, 127
2, 8684, Note_off_c, 1, 58, 64
2, 8688, Note_off_c, 1, 62, 64
2, 8688, Note_off_c, 1, 55, 64
2, 8704, Control_c, 1, 64, 0
2, 8860, Note_on_c, 1, 58, 55
2, 8864, Note_on_c, 1, 62, 59
2, 8868, Note_on_c, 1, 55, 60
2, 8900, Note_off_c, 1, 67, 64
2, 8912, Note_off_c, 1, 58, 64
2, 8912, Note_off_c, 1, 62, 64
2, 8912, Note_off_c, 1, 55, 64
2, 8988, Note_on_c, 1, 70, 85
2, 9104, Note_on_c, 1, 55, 65
2, 9108, Note_on_c, 1, 58, 61
2, 9108, Note_on_c, 1, 62, 69
2, 9124, Note_off_c, 1, 58, 64
2, 9124, Note_off_c, 1, 62, 64
2, 9128, Note_off_c, 1, 55, 64
2, 9236, Note_on_c, 1, 67, 85
2, 9240, Note_off_c, 1, 70, 64
2, 9360, Note_on_c, 1, 70, 80
2, 9364, Note_on_c, 1, 39, 69
2, 9364, Note_on_c, 1, 51, 66
2, 9376, Note_off_c, 1, 67, 64
2, 9404, Control_c, 1, 64, 127
2, 9440, Note_off_c, 1, 39, 64
2, 9468, Note_off_c, 1, 51, 64
2, 9484, Note_off_c, 1, 70, 64
2, 9484, Note_on_c, 1, 72, 80
2, 9612, Note_off_c, 1, 72, 64
2, 9612, Note_on_c, 1, 70, 80
2, 9616, Note_on_c, 1, 53, 73
2, 9616, Note_on_c, 1, 41, 69
2, 9628, Control_c, 1, 64, 0
2, 9716, Control_c, 1, 64, 127
2, 9732, Note_off_c, 1, 70, 64
2, 9740, Note_on_c, 1, 67, 83
2, 9744, Note_off_c, 1, 53, 64
2, 9776, Note_off_c, 1, 41, 64
2, 9864, Note_off_c, 1, 67, 64
2, 9864, Note_on_c, 1, 43, 78
2, 9864, Note_on_c, 1, 70, 96
2, 9864, Note_on_c, 1, 55, 75
2, 9868, Control_c, 1, 64, 0
2, 9948, Control_c, 1, 64, 127
2, 9984, Note_off_c, 1, 70, 64
2, 9988, Note_on_c, 1, 72, 71
2, 9996, Note_off_c, 1, 43, 64
2, 9996, Note_off_c, 1, 55, 64
2, 10108, Note_off_c, 1, 72, 64
2, 10112, Note_on_c, 1, 70, 90
2, 10116, Note_on_c, 1, 45, 77
2, 10116, Note_on_c, 1, 57, 85
2, 10128, Control_c, 1, 64, 0
2, 10236, Note_off_c, 1, 70, 64
2, 10244, Note_off_c, 1, 57, 64
2, 10244, Note_on_c, 1, 67, 83
2, 10244, Control_c, 1, 64, 127
2, 10268, Note_off_c, 1, 45, 64
2, 10344, Control_c, 1, 64, 0
2, 10356, Note_off_c, 1, 67, 64
2, 10356, Note_on_c, 1, 58, 73
2, 10364, Note_on_c, 1, 70, 83
2, 10364, Note_on_c, 1, 46, 83
2, 10404, Control_c, 1, 64, 127
2, 10440, Note_off_c, 1, 70, 64
2, 10440, Note_off_c, 1, 46, 64
2, 10452, Note_off_c, 1, 58, 64
2, 10492, Note_on_c, 1, 65, 80
2, 10492, Note_on_c, 1, 74, 93
2, 10608, Note_on_c, 1, 62, 77
2, 10608, Note_on_c, 1, 53, 90
2, 10616, Note_on_c, 1, 58, 66
2, 10628, Note_off_c, 1, 58, 64
2, 10632, Note_off_c, 1, 62, 64
2, 10632, Note_off_c, 1, 53, 64
2, 10732, Note_off_c, 1, 65, 64
2, 10736, Note_off_c, 1, 74, 64
2, 10736, Note_on_c, 1, 70, 77
2, 10784, Note_off_c, 1, 70, 64
2, 10812, Control_c, 1, 64, 0
2, 10860, Note_on_c, 1, 55, 88
2, 10860, Note_on_c, 1, 43, 80
2, 10864, Note_on_c, 1, 74, 90
2, 10868, Note_on_c, 1, 67, 83
2, 10884, Control_c, 1, 64, 127
2, 10892, Note_off_c, 1, 43, 64
2, 10908, Note_off_c, 1, 55, 64
2, 11120, Note_on_c, 1, 55, 78
2, 11120, Note_on_c, 1, 62, 71
2, 11120, Note_on_c, 1, 58, 68
2, 11128, Note_off_c, 1, 67, 64
2, 11136, Note_off_c, 1, 62, 64
2, 11140, Note_off_c, 1, 58, 64
2, 11144, Note_off_c, 1, 74, 64
2, 11148, Note_off_c, 1, 55, 64
2, 11268, Control_c, 1, 64, 0
2, 11364, Note_on_c, 1, 48, 78
2, 11364, Note_on_c, 1, 72, 88
2, 11368, Control_c, 1, 64, 127
2, 11424, Note_off_c, 1, 48, 64
2, 11424, Note_off_c, 1, 72, 64
2, 11484, Note_on_c, 1, 82, 118
2, 11492, Note_on_c, 1, 72, 78
2, 11604, Note_on_c, 1, 58, 55
2, 11612, Note_on_c, 1, 64, 68
2, 11612, Note_on_c, 1, 60, 62
2, 11616, Note_off_c, 1, 82, 64
2, 11628, Note_off_c, 1, 60, 64
2, 11632, Note_off_c, 1, 64, 64
2, 11640, Note_off_c, 1, 72, 64
2, 11640, Note_off_c, 1, 58, 64
2, 11732, Note_on_c, 1, 81, 104
2, 11732, Note_on_c, 1, 72, 77
2, 11816, Control_c, 1, 64, 0
2, 11852, Note_on_c, 1, 48, 77
2, 11872, Control_c, 1, 64, 127
2, 11896, Note_off_c, 1, 48, 64
2, 11920, Note_off_c, 1, 81, 64
2, 11936, Note_off_c, 1, 72, 64
2, 11968, Note_on_c, 1, 76, 85
2, 12008, Note_off_c, 1, 76, 64
2, 12092, Note_on_c, 1, 79, 100
2, 12092, Note_on_c, 1, 72, 88
2, 12096, Note_on_c, 1, 58, 59
2, 12100, Note_on_c, 1, 64, 67
2, 12104, Note_on_c, 1, 60, 64
2, 12116, Note_off_c, 1, 64, 64
2, 12116, Note_off_c, 1, 60, 64
2, 12120, Note_off_c, 1, 79, 64
2, 12120, Note_off_c, 1, 72, 64
2, 12124, Note_off_c, 1, 58, 64
2, 12248, Control_c, 1, 64, 0
2, 12328, Control_c, 1, 64, 127
2, 12344, Note_on_c, 1, 84, 90
2, 12344, Note_on_c, 1, 41, 78
2, 12348, Note_on_c, 1, 75, 83
2, 12348, Note_on_c, 1, 53, 73
2, 12404, Note_off_c, 1, 53, 64
2, 12416, Note_off_c, 1, 41, 64
2, 12448, Note_off_c, 1, 75, 64
2, 12456, Note_off_c, 1, 84, 64
2, 12472, Note_on_c, 1, 77, 93
2, 12524, Note_off_c, 1, 77, 64
2, 12584, Control_c, 1, 64, 0
2, 12588, Note_on_c, 1, 75, 78
2, 12592, Note_on_c, 1, 81, 90
2, 12596, Note_on_c, 1, 42, 71
2, 12596, Note_on_c, 1, 54, 75
2, 12652, Control_c, 1, 64, 127
2, 12684, Note_off_c, 1, 42, 64
2, 12700, Note_off_c, 1, 75, 64
2, 12700, Note_off_c, 1, 54, 64
2, 12716, Note_on_c, 1, 77, 90
2, 12740, Note_off_c, 1, 81, 64
2, 12832, Control_c, 1, 64, 0
2, 12836, Note_on_c, 1, 43, 75
2, 12840, Note_on_c, 1, 55, 78
2, 12840, Note_on_c, 1, 79, 70
2, 12860, Note_off_c, 1, 77, 64
2, 12880, Note_off_c, 1, 79, 64
2, 12960, Note_on_c, 1, 75, 80
2, 12960, Control_c, 1, 64, 127
2, 12964, Note_on_c, 1, 81, 93
2, 12972, Note_off_c, 1, 55, 64
2, 12988, Note_off_c, 1, 43, 64
2, 13088, Note_on_c, 1, 45, 85
2, 13088, Note_on_c, 1, 57, 83
2, 13124, Note_off_c, 1, 45, 64
2, 13124, Note_off_c, 1, 57, 64
2, 13184, Note_off_c, 1, 75, 64
2, 13204, Note_off_c, 1, 81, 64
2, 13204, Note_on_c, 1, 77, 100
2, 13244, Note_off_c, 1, 77, 64
2, 13304, Control_c, 1, 64, 0
2, 13324, Note_on_c, 1, 46, 88
2, 13324, Note_on_c, 1, 58, 78
2, 13328, Note_on_c, 1, 82, 90
2, 13336, Note_on_c, 1, 74, 90
2, 13348, Control_c, 1, 64, 127
2, 13352, Note_off_c, 1, 46, 64
2, 13360, Note_off_c, 1, 58, 64
2, 13368, Note_off_c, 1, 82, 64
2, 13372, Note_off_c, 1, 74, 64
2, 13456, Note_on_c, 1, 82, 90
2, 13460, Note_on_c, 1, 74, 85
2, 13544, Note_off_c, 1, 82, 64
2, 13576, Note_on_c, 1, 53, 85
2, 13580, Note_on_c, 1, 62, 70
2, 13584, Note_on_c, 1, 58, 65
2, 13588, Note_off_c, 1, 62, 64
2, 13596, Note_off_c, 1, 53, 64
2, 13596, Note_off_c, 1, 58, 64
2, 13704, Note_on_c, 1, 77, 90
2, 13772, Control_c, 1, 64, 0
2, 13820, Note_on_c, 1, 41, 90
2, 13824, Note_off_c, 1, 77, 64
2, 13832, Note_on_c, 1, 81, 100
2, 13832, Control_c, 1, 64, 127
2, 13844, Note_off_c, 1, 41, 64
2, 13944, Note_off_c, 1, 81, 64
2, 13956, Note_on_c, 1, 79, 90
2, 14076, Note_off_c, 1, 79, 64
2, 14076, Note_on_c, 1, 53, 93
2, 14076, Note_on_c, 1, 77, 93
2, 14080, Note_on_c, 1, 62, 73
2, 14080, Note_on_c, 1, 58, 67
2, 14084, Note_off_c, 1, 74, 64
2, 14092, Note_off_c, 1, 62, 64
2, 14096, Note_off_c, 1, 58, 64
2, 14100, Note_off_c, 1, 53, 64
2, 14192, Note_off_c, 1, 77, 64
2, 14196, Note_on_c, 1, 74, 100
2, 14288, Control_c, 1, 64, 0
2, 14320, Note_off_c, 1, 74, 64
2, 14320, Note_on_c, 1, 46, 96
2, 14328, Note_on_c, 1, 77, 96
2, 14348, Control_c, 1, 64, 127
2, 14380, Note_off_c, 1, 46, 64
2, 14448, Note_off_c, 1, 77, 64
2, 14452, Note_on_c, 1, 79, 88
2, 14572, Note_on_c, 1, 53, 88
2, 14572, Note_on_c, 1, 62, 77
2, 14576, Note_on_c, 1, 58, 75
2, 14592, Note_off_c, 1, 62, 64
2, 14592, Note_off_c, 1, 58, 64
2, 14596, Note_off_c, 1, 53, 64
2, 14692, Note_off_c, 1, 79, 64
2, 14696, Note_on_c, 1, 77, 88
2, 14796, Control_c, 1, 64, 0
2, 14820, Note_on_c, 1, 41, 93
2, 14828, Note_on_c, 1, 74, 93
2, 14836, Note_off_c, 1, 77, 64
2, 14836, Control_c, 1, 64, 127
2, 14848, Note_off_c, 1, 41, 64
2, 15076, Note_on_c, 1, 70, 77
2, 15080, Note_off_c, 1, 74, 64
2, 15084, Note_on_c, 1, 53, 78
2, 15084, Note_on_c, 1, 62, 68
2, 15084, Note_on_c, 1, 58, 64
2, 15148, Note_off_c, 1, 70, 64
2, 15180, Note_off_c, 1, 58, 64
2, 15192, Note_off_c, 1, 62, 64
2, 15196, Note_off_c, 1, 53, 64
2, 15308, Control_c, 1, 64, 0
2, 15328, Note_on_c, 1, 70, 64
2, 15332, Note_on_c, 1, 55, 66
2, 15336, Note_on_c, 1, 62, 50
2, 15336, Note_on_c, 1, 58, 54
2, 15376, Control_c, 1, 64, 127
2, 15428, Note_off_c, 1, 58, 64
2, 15432, Note_off_c, 1, 55, 64
2, 15436, Note_off_c, 1, 62, 64
2, 15444, Note_off_c, 1, 70, 64
2, 15444, Note_on_c, 1, 74, 77
2, 15576, Note_on_c, 1, 55, 69
2, 15580, Note_on_c, 1, 62, 62
2, 15608, Note_off_c, 1, 55, 64
2, 15616, Note_off_c, 1, 62, 64
2, 15696, Note_on_c, 1, 70, 66
2, 15712, Note_off_c, 1, 74, 64
2, 15744, Note_off_c, 1, 70, 64
2, 15828, Note_on_c, 1, 69, 83
2, 15832, Note_on_c, 1, 66, 58
2, 15832, Note_on_c, 1, 50, 68
2, 15832, Note_on_c, 1, 54, 57
2, 15832, Note_on_c, 1, 57, 63
2, 15836, Control_c, 1, 64, 0
2, 15840, Note_on_c, 1, 62, 58
2, 15884, Control_c, 1, 64, 127
2, 15940, Note_off_c, 1, 54, 64
2, 15940, Note_off_c, 1, 57, 64
2, 15944, Note_off_c, 1, 62, 64
2, 15948, Note_off_c, 1, 66, 64
2, 15948, Note_off_c, 1, 50, 64
2, 15964, Note_off_c, 1, 69, 64
2, 16080, Note_on_c, 1, 57, 66
2, 16080, Note_on_c, 1, 74, 88
2, 16080, Note_on_c, 1, 62, 58
2, 16080, Note_on_c, 1, 54, 59
2, 16080, Note_on_c, 1, 50, 66
2, 16080, Note_on_c, 1, 66, 63
2, 16120, Note_off_c, 1, 57, 64
2, 16120, Note_off_c, 1, 54, 64
2, 16148, Note_off_c, 1, 62, 64
2, 16152, Note_off_c, 1, 50, 64
2, 16184, Note_off_c, 1, 66, 64
2, 16196, Note_off_c, 1, 74, 64
2, 16200, Note_on_c, 1, 67, 77
2, 16300, Control_c, 1, 64, 0
2, 16324, Note_on_c, 1, 55, 64
2, 16324, Note_on_c, 1, 58, 60
2, 16332, Note_on_c, 1, 62, 64
2, 16412, Control_c, 1, 64, 127
2, 16440, Note_off_c, 1, 58, 64
2, 16448, Note_off_c, 1, 55, 64
2, 16452, Note_off_c, 1, 62, 64
2, 16572, Note_on_c, 1, 55, 55
2, 16572, Note_on_c, 1, 58, 50
2, 16572, Note_on_c, 1, 62, 51
2, 16648, Note_off_c, 1, 58, 64
2, 16652, Note_off_c, 1, 55, 64
2, 16652, Note_off_c, 1, 62, 64
2, 16808, Note_on_c, 1, 58, 45
2, 16812, Note_on_c, 1, 62, 42
2, 16812, Note_on_c, 1, 55, 40
2, 16832, Note_off_c, 1, 67, 64
2, 16888, Note_off_c, 1, 58, 64
2, 16892, Note_off_c, 1, 62, 64
2, 16896, Note_off_c, 1, 55, 64
2, 16928, Note_on_c, 1, 70, 85
2, 17056, Note_on_c, 1, 55, 43
2, 17064, Note_on_c, 1, 58, 54
2, 17068, Note_on_c, 1, 62, 44
2, 17088, Note_off_c, 1, 58, 64
2, 17092, Note_off_c, 1, 62, 64
2, 17096, Note_off_c, 1, 55, 64
2, 17168, Note_off_c, 1, 70, 64
2, 17180, Note_on_c, 1, 67, 83
2, 17256, Control_c, 1, 64, 0
2, 17292, Note_off_c, 1, 67, 64
2, 17312, Note_on_c, 1, 39, 66
2, 17312, Note_on_c, 1, 51, 64
2, 17312, Note_on_c, 1, 70, 80
2, 17320, Control_c, 1, 64, 127
2, 17348, Note_off_c, 1, 39, 64
2, 17356, Note_off_c, 1, 51, 64
2, 17420, Note_off_c, 1, 70, 64
2, 17432, Note_on_c, 1, 72, 71
2, 17548, Note_off_c, 1, 72, 64
2, 17552, Note_on_c, 1, 53, 75
2, 17552, Note_on_c, 1, 41, 75
2, 17552, Note_on_c, 1, 70, 78
2, 17552, Control_c, 1, 64, 0
2, 17608, Control_c, 1, 64, 127
2, 17664, Note_off_c, 1, 70, 64
2, 17672, Note_off_c, 1, 53, 64
2, 17672, Note_on_c, 1, 67, 83
2, 17688, Note_off_c, 1, 41, 64
2, 17792, Note_on_c, 1, 70, 80
2, 17796, Note_on_c, 1, 43, 83
2, 17796, Note_on_c, 1, 55, 78
2, 17800, Note_off_c, 1, 67, 64
2, 17804, Control_c, 1, 64, 0
2, 17864, Control_c, 1, 64, 127
2, 17912, Note_off_c, 1, 43, 64
2, 17916, Note_off_c, 1, 70, 64
2, 17924, Note_on_c, 1, 72, 78
2, 17928, Note_off_c, 1, 55, 64
2, 18032, Note_off_c, 1, 72, 64
2, 18036, Note_on_c, 1, 57, 78
2, 18036, Note_on_c, 1, 45, 90
2, 18040, Note_on_c, 1, 70, 77
2, 18044, Control_c, 1, 64, 0
2, 18108, Control_c, 1, 64, 127
2, 18128, Note_off_c, 1, 57, 64
2, 18136, Note_off_c, 1, 45, 64
2, 18164, Note_off_c, 1, 70, 64
2, 18164, Note_on_c, 1, 67, 85
2, 18268, Control_c, 1, 64, 0
2, 18280, Note_on_c, 1, 46, 88
2, 18280, Note_on_c, 1, 58, 77
2, 18284, Note_on_c, 1, 70, 75
2, 18304, Note_off_c, 1, 67, 64
2, 18316, Control_c, 1, 64, 127
2, 18332, Note_off_c, 1, 70, 64
2, 18364, Note_off_c, 1, 46, 64
2, 18372, Note_off_c, 1, 58, 64
2, 18416, Note_on_c, 1, 65, 88
2, 18416, Note_on_c, 1, 74, 90
2, 18540, Note_on_c, 1, 53, 88
2, 18540, Note_on_c, 1, 62, 73
2, 18544, Note_on_c, 1, 58, 66
2, 18560, Note_off_c, 1, 53, 64
2, 18560, Note_off_c, 1, 62, 64
2, 18560, Note_off_c, 1, 58, 64
2, 18664, Note_off_c, 1, 74, 64
2, 18668, Note_off_c, 1, 65, 64
2, 18668, Note_on_c, 1, 70, 78
2, 18700, Note_off_c, 1, 70, 64
2, 18768, Control_c, 1, 64, 0
2, 18792, Note_on_c, 1, 43, 90
2, 18792, Note_on_c, 1, 74, 88
2, 18796, Note_on_c, 1, 65, 77
2, 18808, Control_c, 1, 64, 127
2, 18812, Note_off_c, 1, 43, 64
2, 19044, Note_off_c, 1, 65, 64
2, 19048, Note_off_c, 1, 74, 64
2, 19052, Note_on_c, 1, 53, 71
2, 19052, Note_on_c, 1, 59, 73
2, 19056, Note_on_c, 1, 55, 73
2, 19076, Note_off_c, 1, 53, 64
2, 19076, Note_off_c, 1, 59, 64
2, 19076, Note_off_c, 1, 55, 64
2, 19276, Control_c, 1, 64, 0
2, 19296, Note_on_c, 1, 67, 83
2, 19296, Note_on_c, 1, 48, 70
2, 19300, Note_on_c, 1, 64, 78
2, 19324, Control_c, 1, 64, 127
2, 19352, Note_off_c, 1, 64, 64
2, 19380, Note_off_c, 1, 67, 64
2, 19416, Note_on_c, 1, 74, 83
2, 19416, Note_on_c, 1, 64, 78
2, 19436, Note_off_c, 1, 64, 64
2, 19444, Note_off_c, 1, 74, 64
2, 19540, Control_c, 1, 64, 0
2, 19548, Note_on_c, 1, 58, 66
2, 19548, Note_on_c, 1, 55, 70
2, 19552, Note_off_c, 1, 48, 64
2, 19564, Note_off_c, 1, 55, 64
2, 19568, Note_off_c, 1, 58, 64
2, 19788, Note_on_c, 1, 53, 77
2, 19792, Note_on_c, 1, 69, 71
2, 19792, Note_on_c, 1, 65, 70
2, 19792, Control_c, 1, 64, 127
2, 19828, Note_off_c, 1, 65, 64
2, 19832, Note_off_c, 1, 69, 64
2, 19912, Note_on_c, 1, 72, 69
2, 19916, Note_on_c, 1, 65, 70
2, 20020, Note_off_c, 1, 65, 64
2, 20020, Note_off_c, 1, 72, 64
2, 20024, Note_on_c, 1, 57, 78
2, 20024, Note_on_c, 1, 63, 62
2, 20052, Note_off_c, 1, 53, 64
2, 20052, Note_off_c, 1, 63, 64
2, 20056, Note_off_c, 1, 57, 64
2, 20088, Control_c, 1, 64, 0
2, 20148, Note_on_c, 1, 70, 60
2, 20152, Note_on_c, 1, 65, 69
2, 20164, Control_c, 1, 64, 127
2, 20176, Note_off_c, 1, 70, 64
2, 20180, Note_off_c, 1, 65, 64
2, 20184, Control_c, 1, 64, 0
2, 20276, Note_on_c, 1, 62, 77
2, 20276, Note_on_c, 1, 58, 66
2, 20296, Note_off_c, 1, 58, 64
2, 20300, Note_off_c, 1, 62, 64
2, 20392, Note_on_c, 1, 65, 85
2, 20408, Control_c, 1, 64, 127
2, 20508, Note_off_c, 1, 65, 64
2, 20520, Note_on_c, 1, 53, 77
2, 20524, Note_on_c, 1, 60, 70
2, 20524, Note_on_c, 1, 63, 57
2, 20532, Note_on_c, 1, 67, 88
2, 20548, Note_off_c, 1, 60, 64
2, 20560, Note_off_c, 1, 63, 64
2, 20564, Note_off_c, 1, 53, 64
2, 20636, Note_off_c, 1, 67, 64
2, 20644, Note_on_c, 1, 69, 93
2, 20756, Control_c, 1, 64, 0
2, 20760, Note_on_c, 1, 58, 77
2, 20764, Note_off_c, 1, 69, 64
2, 20764, Note_on_c, 1, 62, 78
2, 20764, Note_on_c, 1, 70, 83
2, 20796, Control_c, 1, 64, 127
2, 20824, Note_off_c, 1, 70, 64
2, 20896, Note_on_c, 1, 72, 104
2, 20980, Note_off_c, 1, 62, 64
2, 20980, Note_off_c, 1, 72, 64
2, 20992, Note_off_c, 1, 58, 64
2, 21016, Note_on_c, 1, 74, 88
2, 21112, Note_off_c, 1, 74, 64
2, 21120, Note_on_c, 1, 77, 100
2, 21144, Note_off_c, 1, 77, 64
2, 21208, Control_c, 1, 64, 0
2, 21236, Note_on_c, 1, 58, 85
2, 21236, Note_on_c, 1, 46, 90
2, 21252, Control_c, 1, 64, 127
2, 21260, Note_off_c, 1, 46, 64
2, 21268, Note_off_c, 1, 58, 64
2, 21280, Note_on_c, 1, 82, 112
2, 21280, Note_on_c, 1, 74, 90
2, 21312, Note_off_c, 1, 82, 64
2, 21328, Note_off_c, 1, 74, 64
2, 21388, Note_on_c, 1, 82, 77
2, 21392, Note_on_c, 1, 74, 77
2, 21448, Note_off_c, 1, 82, 64
2, 21496, Note_on_c, 1, 53, 88
2, 21496, Note_on_c, 1, 62, 83
2, 21504, Note_on_c, 1, 58, 67
2, 21516, Note_off_c, 1, 53, 64
2, 21516, Note_off_c, 1, 62, 64
2, 21520, Note_off_c, 1, 58, 64
2, 21532, Note_off_c, 1, 74, 64
2, 21624, Note_on_c, 1, 77, 83
2, 21628, Note_on_c, 1, 74, 73
2, 21676, Note_off_c, 1, 74, 64
2, 21684, Note_off_c, 1, 77, 64
2, 21700, Control_c, 1, 64, 0
2, 21748, Note_on_c, 1, 41, 96
2, 21752, Note_on_c, 1, 81, 90
2, 21756, Note_on_c, 1, 74, 88
2, 21760, Control_c, 1, 64, 127
2, 21764, Note_off_c, 1, 41, 64
2, 21884, Note_on_c, 1, 79, 100
2, 21892, Note_off_c, 1, 81, 64
2, 22000, Note_off_c, 1, 79, 64
2, 22004, Note_on_c, 1, 53, 78
2, 22008, Note_off_c, 1, 74, 64
2, 22012, Note_on_c, 1, 58, 69
2, 22012, Note_on_c, 1, 62, 75
2, 22012, Note_on_c, 1, 77, 93
2, 22016, Note_off_c, 1, 53, 64
2, 22016, Note_off_c, 1, 58, 64
2, 22016, Note_off_c, 1, 62, 64
2, 22124, Note_off_c, 1, 77, 64
2, 22128, Note_on_c, 1, 74, 83
2, 22236, Control_c, 1, 64, 0
2, 22252, Note_off_c, 1, 74, 64
2, 22260, Note_on_c, 1, 58, 77
2, 22260, Note_on_c, 1, 46, 90
2, 22260, Note_on_c, 1, 77, 90
2, 22288, Control_c, 1, 64, 127
2, 22336, Note_off_c, 1, 46, 64
2, 22344, Note_off_c, 1, 58, 64
2, 22384, Note_off_c, 1, 77, 64
2, 22388, Note_on_c, 1, 79, 78
2, 22512, Note_on_c, 1, 62, 78
2, 22512, Note_on_c, 1, 53, 85
2, 22512, Note_on_c, 1, 58, 68
2, 22524, Note_off_c, 1, 58, 64
2, 22528, Note_off_c, 1, 62, 64
2, 22528, Note_off_c, 1, 53, 64
2, 22636, Note_off_c, 1, 79, 64
2, 22636, Note_on_c, 1, 77, 83
2, 22644, Control_c, 1, 64, 0
2, 22760, Note_on_c, 1, 41, 83
2, 22764, Note_on_c, 1, 74, 90
2, 22764, Control_c, 1, 64, 127
2, 22772, Note_off_c, 1, 77, 64
2, 22784, Note_off_c, 1, 41, 64
2, 22996, Control_c, 1, 64, 0
2, 23012, Note_off_c, 1, 74, 64
2, 23012, Note_on_c, 1, 70, 80
2, 23012, Note_on_c, 1, 62, 71
2, 23012, Note_on_c, 1, 58, 64
2, 23012, Note_on_c, 1, 53, 78
2, 23036, Control_c, 1, 64, 127
2, 23100, Note_off_c, 1, 70, 64
2, 23116, Note_off_c, 1, 58, 64
2, 23120, Note_off_c, 1, 53, 64
2, 23120, Note_off_c, 1, 62, 64
2, 23268, Note_on_c, 1, 70, 71
2, 23268, Control_c, 1, 64, 0
2, 23272, Note_on_c, 1, 55, 66
2, 23272, Note_on_c, 1, 58, 56
2, 23272, Note_on_c, 1, 62, 54
2, 23360, Control_c, 1, 64, 127
2, 23380, Note_on_c, 1, 74, 78
2, 23388, Note_off_c, 1, 70, 64
2, 23388, Note_off_c, 1, 58, 64
2, 23392, Note_off_c, 1, 55, 64
2, 23392, Note_off_c, 1, 62, 64
2, 23504, Control_c, 1, 64, 0
2, 23516, Note_on_c, 1, 62, 53
2, 23516, Note_on_c, 1, 55, 65
2, 23516, Note_on_c, 1, 58, 52
2, 23552, Control_c, 1, 64, 127
2, 23572, Note_off_c, 1, 55, 64
2, 23572, Note_off_c, 1, 58, 64
2, 23580, Note_off_c, 1, 62, 64
2, 23620, Note_on_c, 1, 70, 66
2, 23644, Note_off_c, 1, 74, 64
2, 23676, Note_off_c, 1, 70, 64
2, 23756, Note_on_c, 1, 69, 73
2, 23756, Note_on_c, 1, 66, 57
2, 23768, Note_on_c, 1, 54, 49
2, 23768, Note_on_c, 1, 50, 49
2, 23768, Note_on_c, 1, 57, 39
2, 23768, Control_c, 1, 64, 0
2, 23772, Note_on_c, 1, 62, 39
2, 23808, Control_c, 1, 64, 127
2, 23856, Note_off_c, 1, 54, 64
2, 23856, Note_off_c, 1, 50, 64
2, 23860, Note_off_c, 1, 57, 64
2, 23860, Note_off_c, 1, 62, 64
2, 23868, Note_off_c, 1, 66, 64
2, 23896, Note_off_c, 1, 69, 64
2, 24004, Control_c, 1, 64, 0
2, 24008, Note_on_c, 1, 74, 78
2, 24012, Note_on_c, 1, 62, 40
2, 24012, Note_on_c, 1, 57, 40
2, 24016, Note_on_c, 1, 66, 54
2, 24020, Note_on_c, 1, 50, 38
2, 24044, Note_off_c, 1, 74, 64
2, 24044, Note_off_c, 1, 66, 64
2, 24044, Control_c, 1, 64, 127
2, 24068, Note_off_c, 1, 57, 64
2, 24084, Note_off_c, 1, 50, 64
2, 24092, Note_off_c, 1, 62, 64
2, 24132, Note_on_c, 1, 67, 78
2, 24140, Control_c, 1, 64, 0
2, 24244, Note_on_c, 1, 58, 54
2, 24248, Note_on_c, 1, 55, 60
2, 24248, Control_c, 1, 64, 127
2, 24252, Note_on_c, 1, 62, 54
2, 24336, Note_off_c, 1, 58, 64
2, 24336, Note_off_c, 1, 55, 64
2, 24336, Note_off_c, 1, 62, 64
2, 24492, Note_on_c, 1, 58, 54
2, 24492, Note_on_c, 1, 55, 59
2, 24496, Note_on_c, 1, 62, 60
2, 24548, Note_off_c, 1, 58, 64
2, 24548, Note_off_c, 1, 55, 64
2, 24548, Note_off_c, 1, 62, 64
2, 24736, Note_off_c, 1, 67, 64
2, 24736, Note_on_c, 1, 55, 40
2, 24736, Note_on_c, 1, 62, 50
2, 24736, Note_on_c, 1, 58, 38
2, 24740, Control_c, 1, 64, 0
2, 24776, Note_off_c, 1, 55, 64
2, 24776, Note_off_c, 1, 58, 64
2, 24784, Note_off_c, 1, 62, 64
2, 24860, Note_on_c, 1, 70, 80
2, 24980, Note_on_c, 1, 58, 61
2, 24980, Note_on_c, 1, 55, 66
2, 24984, Note_on_c, 1, 62, 66
2, 25000, Note_off_c, 1, 58, 64
2, 25000, Note_off_c, 1, 55, 64
2, 25000, Note_off_c, 1, 62, 64
2, 25092, Note_off_c, 1, 70, 64
2, 25104, Note_on_c, 1, 67, 78
2, 25232, Note_on_c, 1, 51, 67
2, 25236, Note_on_c, 1, 39, 71
2, 25236, Note_on_c, 1, 70, 77
2, 25240, Note_off_c, 1, 67, 64
2, 25240, Control_c, 1, 64, 127
2, 25320, Note_off_c, 1, 39, 64
2, 25332, Note_off_c, 1, 51, 64
2, 25372, Note_off_c, 1, 70, 64
2, 25372, Note_on_c, 1, 72, 78
2, 25480, Note_on_c, 1, 41, 76
2, 25484, Note_on_c, 1, 53, 77
2, 25488, Note_off_c, 1, 72, 64
2, 25488, Note_on_c, 1, 70, 71
2, 25496, Control_c, 1, 64, 0
2, 25568, Control_c, 1, 64, 127
2, 25608, Note_off_c, 1, 70, 64
2, 25612, Note_on_c, 1, 67, 75
2, 25616, Note_off_c, 1, 53, 64
2, 25672, Note_off_c, 1, 41, 64
2, 25720, Note_off_c, 1, 67, 64
2, 25732, Note_on_c, 1, 43, 80
2, 25732, Note_on_c, 1, 55, 77
2, 25732, Note_on_c, 1, 70, 90
2, 25740, Control_c, 1, 64, 0
2, 25804, Control_c, 1, 64, 127
2, 25852, Note_off_c, 1, 70, 64
2, 25856, Note_on_c, 1, 72, 80
2, 25872, Note_off_c, 1, 43, 64
2, 25872, Note_off_c, 1, 55, 64
2, 25968, Note_off_c, 1, 72, 64
2, 25972, Note_on_c, 1, 45, 85
2, 25976, Note_on_c, 1, 57, 83
2, 25976, Note_on_c, 1, 70, 80
2, 25984, Control_c, 1, 64, 0
2, 26068, Control_c, 1, 64, 127
2, 26084, Note_off_c, 1, 57, 64
2, 26092, Note_off_c, 1, 70, 64
2, 26096, Note_off_c, 1, 45, 64
2, 26100, Note_on_c, 1, 67, 73
2, 26208, Control_c, 1, 64, 0
2, 26220, Note_on_c, 1, 70, 73
2, 26220, Note_on_c, 1, 58, 68
2, 26220, Note_on_c, 1, 46, 80
2, 26236, Note_off_c, 1, 67, 64
2, 26276, Note_off_c, 1, 70, 64
2, 26324, Note_off_c, 1, 46, 64
2, 26332, Note_off_c, 1, 58, 64
2, 26344, Control_c, 1, 64, 127
2, 26348, Note_on_c, 1, 74, 88
2, 26348, Note_on_c, 1, 65, 71
2, 26476, Control_c, 1, 64, 0
2, 26480, Note_on_c, 1, 62, 66
2, 26480, Note_on_c, 1, 53, 83
2, 26480, Note_on_c, 1, 58, 66
2, 26500, Note_off_c, 1, 58, 64
2, 26504, Note_off_c, 1, 62, 64
2, 26504, Note_off_c, 1, 53, 64
2, 26512, Control_c, 1, 64, 127
2, 26576, Control_c, 1, 64, 0
2, 26604, Note_on_c, 1, 70, 75
2, 26608, Note_off_c, 1, 74, 64
2, 26612, Control_c, 1, 64, 127
2, 26632, Note_off_c, 1, 65, 64
2, 26644, Note_off_c, 1, 70, 64
2, 26652, Control_c, 1, 64, 0
2, 26732, Note_on_c, 1, 55, 75
2, 26732, Note_on_c, 1, 43, 77
2, 26736, Note_on_c, 1, 74, 85
2, 26736, Note_on_c, 1, 67, 78
2, 26748, Control_c, 1, 64, 127
2, 26764, Note_off_c, 1, 43, 64
2, 26772, Note_off_c, 1, 55, 64
2, 26992, Note_on_c, 1, 62, 69
2, 26996, Note_on_c, 1, 55, 71
2, 27016, Note_off_c, 1, 62, 64
2, 27020, Note_off_c, 1, 55, 64
2, 27056, Note_off_c, 1, 67, 64
2, 27072, Note_off_c, 1, 74, 64
2, 27180, Control_c, 1, 64, 0
2, 27228, Note_on_c, 1, 48, 71
2, 27232, Note_on_c, 1, 72, 85
2, 27240, Control_c, 1, 64, 127
2, 27276, Note_off_c, 1, 48, 64
2, 27284, Note_off_c, 1, 72, 64
2, 27348, Note_on_c, 1, 82, 93
2, 27348, Note_on_c, 1, 72, 73
2, 27464, Note_off_c, 1, 82, 64
2, 27468, Note_on_c, 1, 58, 54
2, 27476, Note_on_c, 1, 64, 66
2, 27476, Note_on_c, 1, 60, 54
2, 27492, Note_off_c, 1, 72, 64
2, 27492, Note_off_c, 1, 64, 64
2, 27492, Note_off_c, 1, 60, 64
2, 27496, Note_off_c, 1, 58, 64
2, 27588, Note_on_c, 1, 81, 93
2, 27588, Note_on_c, 1, 72, 78
2, 27652, Control_c, 1, 64, 0
2, 27716, Control_c, 1, 64, 127
2, 27720, Note_on_c, 1, 48, 73
2, 27744, Note_off_c, 1, 48, 64
2, 27824, Note_off_c, 1, 81, 64
2, 27836, Note_off_c, 1, 72, 64
2, 27840, Note_on_c, 1, 76, 83
2, 27896, Note_off_c, 1, 76, 64
2, 27960, Note_on_c, 1, 58, 55
2, 27968, Note_on_c, 1, 79, 88
2, 27968, Note_on_c, 1, 72, 77
2, 27968, Note_on_c, 1, 64, 65
2, 27972, Note_on_c, 1, 60, 62
2, 27980, Note_off_c, 1, 64, 64
2, 27984, Note_off_c, 1, 60, 64
2, 27988, Note_off_c, 1, 58, 64
2, 28000, Note_off_c, 1, 79, 64
2, 28000, Note_off_c, 1, 72, 64
2, 28092, Control_c, 1, 64, 0
2, 28208, Control_c, 1, 64, 127
2, 28212, Note_on_c, 1, 75, 61
2, 28212, Note_on_c, 1, 84, 68
2, 28224, Note_on_c, 1, 41, 59
2, 28228, Note_on_c, 1, 53, 55
2, 28296, Note_off_c, 1, 84, 64
2, 28312, Note_off_c, 1, 75, 64
2, 28316, Note_off_c, 1, 53, 64
2, 28332, Note_off_c, 1, 41, 64
2, 28340, Note_on_c, 1, 77, 80
2, 28408, Note_off_c, 1, 77, 64
2, 28460, Note_on_c, 1, 75, 69
2, 28464, Note_on_c, 1, 81, 83
2, 28468, Note_on_c, 1, 54, 63
2, 28468, Note_on_c, 1, 42, 63
2, 28468, Control_c, 1, 64, 0
2, 28520, Control_c, 1, 64, 127
2, 28568, Note_off_c, 1, 42, 64
2, 28576, Note_off_c, 1, 54, 64
2, 28584, Note_off_c, 1, 75, 64
2, 28588, Note_on_c, 1, 77, 88
2, 28640, Note_off_c, 1, 81, 64
2, 28716, Note_on_c, 1, 55, 71
2, 28716, Note_on_c, 1, 79, 69
2, 28716, Control_c, 1, 64, 0
2, 28720, Note_on_c, 1, 43, 75
2, 28736, Note_off_c, 1, 77, 64
2, 28752, Note_off_c, 1, 79, 64
2, 28840, Note_on_c, 1, 81, 90
2, 28840, Note_on_c, 1, 75, 73
2, 28844, Note_off_c, 1, 55, 64
2, 28848, Control_c, 1, 64, 127
2, 28860, Note_off_c, 1, 43, 64
2, 28964, Note_on_c, 1, 57, 77
2, 28968, Note_on_c, 1, 45, 80
2, 28984, Note_off_c, 1, 57, 64
2, 28984, Note_off_c, 1, 45, 64
2, 29052, Note_off_c, 1, 75, 64
2, 29068, Note_off_c, 1, 81, 64
2, 29084, Note_on_c, 1, 77, 93
2, 29148, Note_off_c, 1, 77, 64
2, 29184, Control_c, 1, 64, 0
2, 29204, Note_on_c, 1, 58, 77
2, 29208, Note_on_c, 1, 82, 77
2, 29208, Note_on_c, 1, 46, 77
2, 29212, Note_on_c, 1, 74, 85
2, 29244, Note_off_c, 1, 58, 64
2, 29244, Note_off_c, 1, 46, 64
2, 29244, Control_c, 1, 64, 127
2, 29272, Note_off_c, 1, 74, 64
2, 29276, Note_off_c, 1, 82, 64
2, 29324, Note_on_c, 1, 82, 70
2, 29328, Note_on_c, 1, 74, 75
2, 29396, Note_off_c, 1, 82, 64
2, 29448, Note_on_c, 1, 53, 83
2, 29448, Note_on_c, 1, 58, 66
2, 29452, Note_on_c, 1, 62, 69
2, 29464, Note_off_c, 1, 58, 64
2, 29468, Note_off_c, 1, 53, 64
2, 29468, Note_off_c, 1, 62, 64
2, 29576, Note_on_c, 1, 77, 85
2, 29612, Control_c, 1, 64, 0
2, 29696, Note_on_c, 1, 41, 73
2, 29700, Note_off_c, 1, 77, 64
2, 29704, Control_c, 1, 64, 127
2, 29712, Note_on_c, 1, 81, 88
2, 29720, Note_off_c, 1, 41, 64
2, 29816, Note_off_c, 1, 81, 64
2, 29824, Note_on_c, 1, 79, 88
2, 29940, Note_off_c, 1, 74, 64
2, 29952, Note_on_c, 1, 58, 60
2, 29952, Note_on_c, 1, 53, 64
2, 29952, Note_on_c, 1, 62, 66
2, 29952, Note_on_c, 1, 77, 90
2, 29972, Note_off_c, 1, 79, 64
2, 29972, Note_off_c, 1, 58, 64
2, 29972, Note_off_c, 1, 62, 64
2, 29976, Note_off_c, 1, 53, 64
2, 30064, Note_off_c, 1, 77, 64
2, 30072, Note_on_c, 1, 74, 83
2, 30156, Control_c, 1, 64, 0
2, 30196, Note_off_c, 1, 74, 64
2, 30196, Note_on_c, 1, 46, 77
2, 30208, Note_on_c, 1, 77, 78
2, 30216, Control_c, 1, 64, 127
2, 30260, Note_off_c, 1, 46, 64
2, 30304, Note_off_c, 1, 77, 64
2, 30316, Note_on_c, 1, 79, 80
2, 30440, Note_on_c, 1, 62, 75
2, 30444, Note_on_c, 1, 53, 78
2, 30444, Note_on_c, 1, 58, 68
2, 30460, Note_off_c, 1, 62, 64
2, 30460, Note_off_c, 1, 58, 64
2, 30464, Note_off_c, 1, 53, 64
2, 30568, Note_off_c, 1, 79, 64
2, 30568, Note_on_c, 1, 77, 90
2, 30656, Control_c, 1, 64, 0
2, 30688, Note_on_c, 1, 74, 93
2, 30692, Note_on_c, 1, 41, 77
2, 30700, Note_off_c, 1, 77, 64
2, 30700, Control_c, 1, 64, 127
2, 30712, Note_off_c, 1, 41, 64
2, 30944, Note_off_c, 1, 74, 64
2, 30944, Note_on_c, 1, 70, 73
2, 30948, Note_on_c, 1, 53, 71
2, 30948, Note_on_c, 1, 62, 65
2, 30952, Note_on_c, 1, 58, 62
2, 31020, Note_off_c, 1, 70, 64
2, 31056, Note_off_c, 1, 58, 64
2, 31060, Note_off_c, 1, 53, 64
2, 31064, Note_off_c, 1, 62, 64
2, 31188, Control_c, 1, 64, 0
2, 31196, Note_on_c, 1, 55, 65
2, 31200, Note_on_c, 1, 62, 54
2, 31200, Note_on_c, 1, 58, 54
2, 31200, Note_on_c, 1, 70, 64
2, 31244, Control_c, 1, 64, 127
2, 31300, Note_off_c, 1, 70, 64
2, 31328, Note_off_c, 1, 58, 64
2, 31328, Note_on_c, 1, 74, 75
2, 31336, Note_off_c, 1, 62, 64
2, 31340, Note_off_c, 1, 55, 64
2, 31440, Note_on_c, 1, 55, 66
2, 31440, Control_c, 1, 64, 0
2, 31444, Note_on_c, 1, 62, 61
2, 31484, Control_c, 1, 64, 127
2, 31504, Note_off_c, 1, 55, 64
2, 31520, Note_off_c, 1, 62, 64
2, 31552, Note_on_c, 1, 70, 60
2, 31564, Note_off_c, 1, 74, 64
2, 31604, Note_off_c, 1, 70, 64
2, 31684, Note_on_c, 1, 69, 73
2, 31688, Note_on_c, 1, 66, 54
2, 31688, Note_on_c, 1, 54, 53
2, 31696, Note_on_c, 1, 57, 53
2, 31696, Note_on_c, 1, 62, 43
2, 31696, Note_on_c, 1, 50, 44
2, 31696, Control_c, 1, 64, 0
2, 31744, Control_c, 1, 64, 127
2, 31776, Note_off_c, 1, 66, 64
2, 31780, Note_off_c, 1, 54, 64
2, 31784, Note_off_c, 1, 57, 64
2, 31784, Note_off_c, 1, 62, 64
2, 31784, Note_off_c, 1, 50, 64
2, 31812, Note_off_c, 1, 69, 64
2, 31924, Note_on_c, 1, 74, 71
2, 31924, Note_on_c, 1, 57, 55
2, 31932, Note_on_c, 1, 62, 39
2, 31932, Note_on_c, 1, 54, 38
2, 31932, Control_c, 1, 64, 0
2, 31936, Note_on_c, 1, 66, 43
2, 31940, Note_on_c, 1, 50, 38
2, 31964, Control_c, 1, 64, 127
2, 31984, Note_off_c, 1, 74, 64
2, 31984, Note_off_c, 1, 66, 64
2, 31988, Note_off_c, 1, 54, 64
2, 31996, Note_off_c, 1, 57, 64
2, 32012, Note_off_c, 1, 50, 64
2, 32020, Note_off_c, 1, 62, 64
2, 32044, Note_on_c, 1, 67, 77
2, 32132, Control_c, 1, 64, 0
2, 32180, Note_on_c, 1, 55, 40
2, 32184, Note_on_c, 1, 62, 41
2, 32188, Note_on_c, 1, 58, 41
2, 32220, Control_c, 1, 64, 127
2, 32264, Note_off_c, 1, 58, 64
2, 32268, Note_off_c, 1, 55, 64
2, 32272, Note_off_c, 1, 62, 64
2, 32424, Note_on_c, 1, 58, 54
2, 32428, Note_on_c, 1, 62, 61
2, 32428, Note_on_c, 1, 55, 51
2, 32440, Note_off_c, 1, 67, 64
2, 32516, Note_off_c, 1, 58, 64
2, 32520, Note_off_c, 1, 62, 64
2, 32528, Note_off_c, 1, 55, 64
2, 32672, Note_on_c, 1, 58, 55
2, 32672, Note_on_c, 1, 55, 62
2, 32676, Note_on_c, 1, 62, 59
2, 32736, Note_off_c, 1, 58, 64
2, 32740, Note_off_c, 1, 55, 64
2, 32748, Note_off_c, 1, 62, 64
2, 32796, Note_on_c, 1, 70, 77
2, 32916, Note_on_c, 1, 55, 66
2, 32920, Note_on_c, 1, 58, 60
2, 32920, Note_on_c, 1, 62, 66
2, 32928, Note_off_c, 1, 70, 64
2, 32936, Note_off_c, 1, 58, 64
2, 32936, Note_off_c, 1, 62, 64
2, 32940, Note_off_c, 1, 55, 64
2, 33044, Note_on_c, 1, 67, 80
2, 33148, Control_c, 1, 64, 0
2, 33156, Note_off_c, 1, 67, 64
2, 33164, Note_on_c, 1, 39, 64
2, 33168, Note_on_c, 1, 51, 69
2, 33168, Note_on_c, 1, 70, 77
2, 33208, Control_c, 1, 64, 127
2, 33244, Note_off_c, 1, 39, 64
2, 33252, Note_off_c, 1, 51, 64
2, 33264, Note_off_c, 1, 70, 64
2, 33296, Note_on_c, 1, 72, 75
2, 33396, Note_off_c, 1, 72, 64
2, 33408, Note_on_c, 1, 53, 73
2, 33412, Note_on_c, 1, 41, 71
2, 33416, Note_on_c, 1, 70, 69
2, 33420, Control_c, 1, 64, 0
2, 33484, Control_c, 1, 64, 127
2, 33516, Note_off_c, 1, 70, 64
2, 33532, Note_off_c, 1, 53, 64
2, 33540, Note_on_c, 1, 67, 78
2, 33552, Note_off_c, 1, 41, 64
2, 33636, Note_off_c, 1, 67, 64
2, 33656, Note_on_c, 1, 43, 75
2, 33660, Note_on_c, 1, 55, 70
2, 33660, Note_on_c, 1, 70, 77
2, 33664, Control_c, 1, 64, 0
2, 33724, Control_c, 1, 64, 127
2, 33756, Note_off_c, 1, 43, 64
2, 33760, Note_off_c, 1, 70, 64
2, 33776, Note_off_c, 1, 55, 64
2, 33780, Note_on_c, 1, 72, 75
2, 33884, Note_off_c, 1, 72, 64
2, 33896, Control_c, 1, 64, 0
2, 33904, Note_on_c, 1, 57, 71
2, 33904, Note_on_c, 1, 45, 78
2, 33908, Note_on_c, 1, 70, 80
2, 33960, Control_c, 1, 64, 127
2, 34004, Note_off_c, 1, 57, 64
2, 34012, Note_off_c, 1, 45, 64
2, 34012, Note_off_c, 1, 70, 64
2, 34028, Note_on_c, 1, 67, 73
2, 34132, Control_c, 1, 64, 0
2, 34144, Note_on_c, 1, 58, 64
2, 34148, Note_on_c, 1, 46, 73
2, 34152, Note_on_c, 1, 70, 69
2, 34160, Note_off_c, 1, 67, 64
2, 34192, Control_c, 1, 64, 127
2, 34204, Note_off_c, 1, 46, 64
2, 34216, Note_off_c, 1, 70, 64
2, 34220, Note_off_c, 1, 58, 64
2, 34276, Note_on_c, 1, 74, 83
2, 34276, Note_on_c, 1, 65, 73
2, 34408, Note_on_c, 1, 53, 79
2, 34408, Note_on_c, 1, 62, 75
2, 34408, Note_on_c, 1, 58, 65
2, 34428, Note_off_c, 1, 58, 64
2, 34432, Note_off_c, 1, 62, 64
2, 34436, Note_off_c, 1, 53, 64
2, 34532, Note_off_c, 1, 74, 64
2, 34536, Note_off_c, 1, 65, 64
2, 34536, Note_on_c, 1, 70, 73
2, 34572, Note_off_c, 1, 70, 64
2, 34640, Control_c, 1, 64, 0
2, 34660, Note_on_c, 1, 43, 83
2, 34664, Note_on_c, 1, 74, 78
2, 34668, Note_on_c, 1, 65, 70
2, 34692, Control_c, 1, 64, 127
2, 34720, Note_off_c, 1, 43, 64
2, 34916, Note_off_c, 1, 65, 64
2, 34916, Note_on_c, 1, 59, 75
2, 34916, Note_on_c, 1, 53, 77
2, 34916, Note_on_c, 1, 55, 70
2, 34924, Note_off_c, 1, 74, 64
2, 34976, Note_off_c, 1, 53, 64
2, 34980, Note_off_c, 1, 55, 64
2, 34984, Note_off_c, 1, 59, 64
2, 35152, Control_c, 1, 64, 0
2, 35168, Note_on_c, 1, 48, 65
2, 35168, Note_on_c, 1, 67, 75
2, 35172, Note_on_c, 1, 64, 69
2, 35240, Note_off_c, 1, 64, 64
2, 35248, Control_c, 1, 64, 127
2, 35288, Note_on_c, 1, 74, 69
2, 35292, Note_on_c, 1, 64, 65
2, 35300, Note_off_c, 1, 67, 64
2, 35312, Note_off_c, 1, 64, 64
2, 35328, Note_off_c, 1, 74, 64
2, 35372, Control_c, 1, 64, 0
2, 35404, Note_on_c, 1, 58, 65
2, 35404, Note_on_c, 1, 55, 64
2, 35424, Note_off_c, 1, 48, 64
2, 35428, Note_off_c, 1, 55, 64
2, 35436, Note_off_c, 1, 58, 64
2, 35644, Note_on_c, 1, 53, 66
2, 35644, Note_on_c, 1, 69, 71
2, 35648, Note_on_c, 1, 65, 62
2, 35664, Control_c, 1, 64, 127
2, 35688, Note_off_c, 1, 65, 64
2, 35692, Note_off_c, 1, 69, 64
2, 35760, Control_c, 1, 64, 0
2, 35764, Note_on_c, 1, 72, 71
2, 35768, Note_on_c, 1, 65, 66
2, 35884, Note_on_c, 1, 63, 53
2, 35888, Note_on_c, 1, 57, 63
2, 35896, Note_off_c, 1, 72, 64
2, 35896, Note_off_c, 1, 65, 64
2, 35924, Note_off_c, 1, 63, 64
2, 35924, Note_off_c, 1, 57, 64
2, 35936, Note_off_c, 1, 53, 64
2, 36004, Note_on_c, 1, 65, 66
2, 36004, Note_on_c, 1, 70, 60
2, 36104, Note_off_c, 1, 70, 64
2, 36136, Note_on_c, 1, 58, 54
2, 36136, Note_on_c, 1, 62, 61
2, 36140, Note_off_c, 1, 65, 64
2, 36164, Note_off_c, 1, 58, 64
2, 36164, Note_off_c, 1, 62, 64
2, 36264, Note_on_c, 1, 65, 64
2, 36384, Note_on_c, 1, 63, 50
2, 36388, Note_on_c, 1, 53, 69
2, 36388, Note_on_c, 1, 60, 53
2, 36388, Note_on_c, 1, 67, 58
2, 36416, Note_off_c, 1, 60, 64
2, 36420, Note_off_c, 1, 53, 64
2, 36432, Note_off_c, 1, 63, 64
2, 36520, Note_on_c, 1, 69, 65
2, 36532, Note_off_c, 1, 67, 64
2, 36640, Note_on_c, 1, 58, 53
2, 36640, Note_on_c, 1, 70, 66
2, 36640, Note_on_c, 1, 62, 53
2, 36644, Note_off_c, 1, 69, 64
2, 36656, Note_off_c, 1, 65, 64
2, 36656, Note_off_c, 1, 70, 64
2, 36720, Note_off_c, 1, 58, 64
2, 36732, Note_off_c, 1, 62, 64
2, 36892, Note_on_c, 1, 65, 88
2, 37140, Note_on_c, 1, 48, 67
2, 37144, Note_on_c, 1, 60, 64
2, 37148, Note_on_c, 1, 69, 85
2, 37152, Control_c, 1, 64, 127
2, 37160, Note_off_c, 1, 48, 64
2, 37168, Note_off_c, 1, 65, 64
2, 37168, Note_off_c, 1, 60, 64
2, 37168, Note_off_c, 1, 69, 64
2, 37252, Control_c, 1, 64, 0
2, 37264, Note_on_c, 1, 75, 75
2, 37264, Note_on_c, 1, 65, 85
2, 37380, Note_on_c, 1, 53, 88
2, 37384, Note_on_c, 1, 63, 64
2, 37384, Note_on_c, 1, 57, 73
2, 37396, Note_off_c, 1, 57, 64
2, 37408, Note_off_c, 1, 53, 64
2, 37408, Note_off_c, 1, 63, 64
2, 37484, Note_off_c, 1, 75, 64
2, 37508, Note_on_c, 1, 72, 77
2, 37632, Note_on_c, 1, 41, 78
2, 37636, Note_off_c, 1, 72, 64
2, 37640, Note_on_c, 1, 74, 80
2, 37656, Note_off_c, 1, 41, 64
2, 37752, Note_on_c, 1, 72, 73
2, 37764, Note_off_c, 1, 74, 64
2, 37868, Note_off_c, 1, 65, 64
2, 37872, Note_on_c, 1, 53, 78
2, 37872, Note_on_c, 1, 57, 73
2, 37872, Note_on_c, 1, 63, 61
2, 37872, Note_on_c, 1, 69, 80
2, 37880, Note_off_c, 1, 72, 64
2, 37892, Note_off_c, 1, 57, 64
2, 37896, Note_off_c, 1, 53, 64
2, 37900, Note_off_c, 1, 63, 64
2, 37988, Note_off_c, 1, 69, 64
2, 37996, Note_on_c, 1, 65, 83
2, 38116, Note_on_c, 1, 48, 71
2, 38120, Note_on_c, 1, 69, 85
2, 38136, Note_off_c, 1, 48, 64
2, 38140, Note_off_c, 1, 65, 64
2, 38144, Note_off_c, 1, 69, 64
2, 38248, Note_on_c, 1, 75, 83
2, 38248, Note_on_c, 1, 65, 85
2, 38364, Note_on_c, 1, 53, 88
2, 38364, Note_on_c, 1, 63, 64
2, 38368, Note_on_c, 1, 57, 77
2, 38392, Note_off_c, 1, 53, 64
2, 38392, Note_off_c, 1, 63, 64
2, 38392, Note_off_c, 1, 57, 64
2, 38484, Note_off_c, 1, 75, 64
2, 38500, Note_on_c, 1, 72, 77
2, 38616, Note_off_c, 1, 72, 64
2, 38616, Note_on_c, 1, 41, 77
2, 38624, Note_on_c, 1, 74, 85
2, 38632, Control_c, 1, 64, 127
2, 38640, Note_off_c, 1, 41, 64
2, 38724, Note_off_c, 1, 74, 64
2, 38736, Note_on_c, 1, 72, 77
2, 38740, Control_c, 1, 64, 0
2, 38852, Note_off_c, 1, 65, 64
2, 38856, Control_c, 1, 64, 127
2, 38860, Note_on_c, 1, 53, 78
2, 38860, Note_on_c, 1, 69, 90
2, 38864, Note_on_c, 1, 63, 65
2, 38868, Note_on_c, 1, 57, 71
2, 38880, Note_off_c, 1, 53, 64
2, 38880, Note_off_c, 1, 63, 64
2, 38880, Note_off_c, 1, 57, 64
2, 38972, Note_off_c, 1, 69, 64
2, 38980, Note_on_c, 1, 65, 80
2, 39096, Note_off_c, 1, 72, 64
2, 39108, Note_on_c, 1, 46, 90
2, 39112, Control_c, 1, 64, 0
2, 39116, Note_on_c, 1, 70, 90
2, 39144, Note_off_c, 1, 46, 64
2, 39232, Note_off_c, 1, 70, 64
2, 39240, Note_on_c, 1, 74, 80
2, 39248, Note_off_c, 1, 65, 64
2, 39360, Note_on_c, 1, 53, 67
2, 39364, Note_on_c, 1, 62, 61
2, 39380, Note_off_c, 1, 53, 64
2, 39384, Note_off_c, 1, 62, 64
2, 39476, Note_off_c, 1, 74, 64
2, 39476, Note_on_c, 1, 70, 69
2, 39608, Note_off_c, 1, 70, 64
2, 39608, Note_on_c, 1, 50, 68
2, 39612, Note_on_c, 1, 67, 68
2, 39860, Note_on_c, 1, 62, 66
2, 39860, Note_on_c, 1, 58, 62
2, 39864, Note_on_c, 1, 53, 62
2, 39884, Note_off_c, 1, 62, 64
2, 39884, Note_off_c, 1, 58, 64
2, 39888, Note_off_c, 1, 53, 64
2, 39892, Note_off_c, 1, 50, 64
2, 40112, Note_off_c, 1, 67, 64
2, 40112, Note_on_c, 1, 43, 90
2, 40116, Note_on_c, 1, 55, 83
2, 40120, Control_c, 1, 64, 127
2, 40132, Note_off_c, 1, 43, 64
2, 40140, Note_off_c, 1, 55, 64
2, 40236, Note_on_c, 1, 67, 83
2, 40236, Note_on_c, 1, 74, 93
2, 40236, Note_on_c, 1, 70, 66
2, 40364, Note_on_c, 1, 62, 77
2, 40364, Note_on_c, 1, 55, 80
2, 40364, Note_on_c, 1, 58, 69
2, 40376, Note_off_c, 1, 62, 64
2, 40376, Note_off_c, 1, 58, 64
2, 40380, Note_off_c, 1, 55, 64
2, 40468, Note_off_c, 1, 74, 64
2, 40472, Note_off_c, 1, 70, 64
2, 40480, Note_on_c, 1, 72, 78
2, 40516, Control_c, 1, 64, 0
2, 40604, Note_on_c, 1, 55, 80
2, 40604, Note_on_c, 1, 43, 83
2, 40608, Note_on_c, 1, 74, 94
2, 40608, Control_c, 1, 64, 127
2, 40616, Note_off_c, 1, 72, 64
2, 40624, Note_off_c, 1, 43, 64
2, 40632, Note_off_c, 1, 55, 64
2, 40724, Note_off_c, 1, 74, 64
2, 40736, Note_on_c, 1, 72, 78
2, 40844, Note_off_c, 1, 67, 64
2, 40852, Note_on_c, 1, 55, 69
2, 40852, Note_on_c, 1, 62, 66
2, 40852, Note_on_c, 1, 58, 68
2, 40852, Note_on_c, 1, 70, 80
2, 40860, Note_off_c, 1, 72, 64
2, 40864, Note_off_c, 1, 62, 64
2, 40868, Note_off_c, 1, 58, 64
2, 40876, Note_off_c, 1, 55, 64
2, 40964, Note_off_c, 1, 70, 64
2, 40972, Note_on_c, 1, 67, 70
2, 41044, Control_c, 1, 64, 0
2, 41092, Note_on_c, 1, 38, 80
2, 41096, Note_on_c, 1, 50, 78
2, 41096, Note_on_c, 1, 69, 88
2, 41100, Note_off_c, 1, 67, 64
2, 41116, Note_off_c, 1, 38, 64
2, 41116, Control_c, 1, 64, 127
2, 41124, Note_off_c, 1, 50, 64
2, 41160, Note_off_c, 1, 69, 64
2, 41216, Note_on_c, 1, 74, 83
2, 41216, Note_on_c, 1, 66, 73
2, 41236, Control_c, 1, 64, 0
2, 41348, Note_on_c, 1, 62, 78
2, 41348, Note_on_c, 1, 60, 78
2, 41352, Note_on_c, 1, 54, 78
2, 41368, Note_off_c, 1, 60, 64
2, 41372, Note_off_c, 1, 62, 64
2, 41372, Note_off_c, 1, 54, 64
2, 41464, Note_off_c, 1, 74, 64
2, 41472, Note_on_c, 1, 72, 80
2, 41572, Note_off_c, 1, 66, 64
2, 41608, Note_off_c, 1, 72, 64
2, 41608, Note_on_c, 1, 38, 80
2, 41608, Note_on_c, 1, 50, 80
2, 41608, Note_on_c, 1, 66, 71
2, 41608, Note_on_c, 1, 69, 83
2, 41612, Control_c, 1, 64, 127
2, 41628, Note_off_c, 1, 38, 64
2, 41636, Note_off_c, 1, 50, 64
2, 41860, Note_on_c, 1, 60, 78
2, 41860, Note_on_c, 1, 62, 73
2, 41860, Note_on_c, 1, 54, 80
2, 41876, Note_off_c, 1, 60, 64
2, 41876, Note_off_c, 1, 62, 64
2, 41888, Note_off_c, 1, 54, 64
2, 42092, Control_c, 1, 64, 0
2, 42112, Note_on_c, 1, 50, 90
2, 42112, Note_on_c, 1, 38, 93
2, 42164, Control_c, 1, 64, 127
2, 42240, Note_off_c, 1, 50, 64
2, 42268, Note_off_c, 1, 38, 64
2, 42340, Note_on_c, 1, 51, 75
2, 42340, Control_c, 1, 64, 0
2, 42344, Note_on_c, 1, 39, 64
2, 42364, Note_off_c, 1, 51, 64
2, 42364, Note_off_c, 1, 39, 64
2, 42468, Note_on_c, 1, 38, 100
2, 42468, Note_on_c, 1, 50, 100
2, 42496, Control_c, 1, 64, 127
2, 42616, Note_off_c, 1, 50, 64
2, 42628, Note_off_c, 1, 38, 64
2, 42712, Note_on_c, 1, 36, 78
2, 42712, Note_on_c, 1, 48, 73
2, 42736, Note_off_c, 1, 36, 64
2, 42736, Note_off_c, 1, 48, 64
2, 42828, Note_on_c, 1, 34, 96
2, 42828, Note_on_c, 1, 46, 93
2, 42836, Control_c, 1, 64, 0
2, 42856, Note_off_c, 1, 34, 64
2, 42856, Note_off_c, 1, 46, 64
2, 42944, Note_on_c, 1, 33, 88
2, 42948, Note_on_c, 1, 45, 73
2, 42968, Note_off_c, 1, 33, 64
2, 42968, Note_off_c, 1, 45, 64
2, 43060, Note_off_c, 1, 66, 64
2, 43064, Note_off_c, 1, 69, 64
2, 43072, Note_on_c, 1, 43, 80
2, 43072, Note_on_c, 1, 31, 104
2, 43076, Note_on_c, 1, 70, 80
2, 43092, Control_c, 1, 64, 127
2, 43100, Note_off_c, 1, 31, 64
2, 43108, Note_off_c, 1, 43, 64
2, 43196, Note_off_c, 1, 70, 64
2, 43204, Note_on_c, 1, 74, 90
2, 43324, Note_on_c, 1, 55, 68
2, 43324, Note_on_c, 1, 58, 66
2, 43324, Note_on_c, 1, 62, 67
2, 43336, Note_off_c, 1, 58, 64
2, 43340, Note_off_c, 1, 62, 64
2, 43344, Note_off_c, 1, 55, 64
2, 43452, Note_off_c, 1, 74, 64
2, 43452, Note_on_c, 1, 70, 75
2, 43464, Control_c, 1, 64, 0
2, 43572, Note_on_c, 1, 46, 85
2, 43572, Note_on_c, 1, 67, 80
2, 43576, Note_off_c, 1, 70, 64
2, 43588, Control_c, 1, 64, 127
2, 43596, Note_off_c, 1, 46, 64
2, 43828, Note_on_c, 1, 62, 63
2, 43828, Note_on_c, 1, 58, 62
2, 43828, Note_on_c, 1, 55, 68
2, 43844, Note_off_c, 1, 62, 64
2, 43848, Note_off_c, 1, 58, 64
2, 43856, Note_off_c, 1, 55, 64
2, 43956, Control_c, 1, 64, 0
2, 44076, Note_on_c, 1, 43, 90
2, 44088, Control_c, 1, 64, 127
2, 44096, Note_off_c, 1, 43, 64
2, 44104, Note_off_c, 1, 67, 64
2, 44192, Note_on_c, 1, 70, 68
2, 44196, Note_on_c, 1, 74, 85
2, 44196, Note_on_c, 1, 67, 78
2, 44332, Note_on_c, 1, 62, 69
2, 44332, Note_on_c, 1, 55, 75
2, 44336, Note_on_c, 1, 58, 64
2, 44356, Note_off_c, 1, 58, 64
2, 44364, Note_off_c, 1, 62, 64
2, 44364, Note_off_c, 1, 55, 64
2, 44444, Note_off_c, 1, 70, 64
2, 44444, Note_off_c, 1, 74, 64
2, 44452, Note_on_c, 1, 72, 83
2, 44584, Note_on_c, 1, 55, 75
2, 44584, Note_on_c, 1, 74, 92
2, 44584, Note_on_c, 1, 62, 68
2, 44584, Control_c, 1, 64, 0
2, 44588, Note_on_c, 1, 58, 53
2, 44596, Note_off_c, 1, 72, 64
2, 44700, Note_off_c, 1, 74, 64
2, 44704, Note_on_c, 1, 72, 88
2, 44716, Note_off_c, 1, 58, 64
2, 44720, Note_off_c, 1, 55, 64
2, 44724, Note_off_c, 1, 62, 64
2, 44828, Note_on_c, 1, 70, 80
2, 44828, Note_on_c, 1, 55, 73
2, 44832, Note_on_c, 1, 62, 70
2, 44832, Note_on_c, 1, 58, 67
2, 44848, Note_off_c, 1, 67, 64
2, 44856, Note_off_c, 1, 72, 64
2, 44856, Note_off_c, 1, 55, 64
2, 44856, Note_off_c, 1, 62, 64
2, 44856, Note_off_c, 1, 58, 64
2, 44940, Note_on_c, 1, 67, 85
2, 44944, Note_off_c, 1, 70, 64
2, 45076, Note_on_c, 1, 48, 73
2, 45084, Note_on_c, 1, 69, 77
2, 45084, Control_c, 1, 64, 127
2, 45096, Note_off_c, 1, 48, 64
2, 45100, Note_off_c, 1, 67, 64
2, 45128, Note_off_c, 1, 69, 64
2, 45176, Control_c, 1, 64, 0
2, 45196, Note_on_c, 1, 65, 78
2, 45196, Note_on_c, 1, 75, 75
2, 45324, Note_on_c, 1, 53, 70
2, 45324, Note_on_c, 1, 63, 56
2, 45332, Note_on_c, 1, 57, 67
2, 45352, Note_off_c, 1, 57, 64
2, 45356, Note_off_c, 1, 53, 64
2, 45356, Note_off_c, 1, 63, 64
2, 45444, Note_off_c, 1, 75, 64
2, 45452, Note_on_c, 1, 72, 73
2, 45560, Note_on_c, 1, 41, 67
2, 45576, Note_off_c, 1, 72, 64
2, 45584, Note_on_c, 1, 74, 77
2, 45588, Note_off_c, 1, 41, 64
2, 45592, Control_c, 1, 64, 127
2, 45688, Note_off_c, 1, 74, 64
2, 45700, Note_on_c, 1, 72, 77
2, 45808, Note_off_c, 1, 65, 64
2, 45820, Note_on_c, 1, 63, 56
2, 45824, Note_on_c, 1, 53, 71
2, 45824, Note_on_c, 1, 57, 67
2, 45824, Control_c, 1, 64, 0
2, 45828, Note_on_c, 1, 69, 77
2, 45832, Note_off_c, 1, 72, 64
2, 45860, Note_off_c, 1, 57, 64
2, 45868, Note_off_c, 1, 63, 64
2, 45880, Note_off_c, 1, 53, 64
2, 45940, Note_off_c, 1, 69, 64
2, 45952, Note_on_c, 1, 65, 68
2, 46064, Note_on_c, 1, 48, 83
2, 46068, Note_on_c, 1, 69, 77
2, 46088, Note_off_c, 1, 48, 64
2, 46088, Note_off_c, 1, 65, 64
2, 46088, Note_off_c, 1, 69, 64
2, 46196, Note_on_c, 1, 65, 88
2, 46196, Note_on_c, 1, 75, 75
2, 46308, Note_on_c, 1, 53, 83
2, 46316, Note_on_c, 1, 63, 57
2, 46316, Note_on_c, 1, 57, 73
2, 46316, Control_c, 1, 64, 127
2, 46336, Note_off_c, 1, 57, 64
2, 46340, Note_off_c, 1, 53, 64
2, 46344, Note_off_c, 1, 63, 64
2, 46436, Note_off_c, 1, 75, 64
2, 46436, Note_on_c, 1, 72, 75
2, 46440, Control_c, 1, 64, 0
2, 46564, Note_off_c, 1, 72, 64
2, 46564, Note_on_c, 1, 41, 71
2, 46564, Note_on_c, 1, 74, 90
2, 46572, Control_c, 1, 64, 127
2, 46584, Note_off_c, 1, 41, 64
2, 46692, Note_on_c, 1, 72, 78
2, 46704, Note_off_c, 1, 74, 64
2, 46804, Note_off_c, 1, 65, 64
2, 46808, Note_on_c, 1, 53, 70
2, 46808, Note_on_c, 1, 63, 60
2, 46820, Note_on_c, 1, 57, 69
2, 46820, Note_on_c, 1, 69, 85
2, 46840, Note_off_c, 1, 63, 64
2, 46844, Note_off_c, 1, 53, 64
2, 46844, Note_off_c, 1, 57, 64
2, 46920, Note_off_c, 1, 69, 64
2, 46932, Control_c, 1, 64, 0
2, 46940, Note_on_c, 1, 65, 77
2, 47056, Note_on_c, 1, 46, 83
2, 47068, Note_off_c, 1, 72, 64
2, 47068, Note_on_c, 1, 70, 77
2, 47084, Note_off_c, 1, 46, 64
2, 47184, Note_off_c, 1, 70, 64
2, 47184, Note_on_c, 1, 74, 83
2, 47304, Note_on_c, 1, 53, 68
2, 47312, Note_on_c, 1, 62, 66
2, 47320, Note_on_c, 1, 58, 40
2, 47336, Note_off_c, 1, 62, 64
2, 47336, Note_off_c, 1, 58, 64
2, 47348, Note_off_c, 1, 53, 64
2, 47432, Note_off_c, 1, 65, 64
2, 47436, Note_on_c, 1, 70, 75
2, 47444, Note_off_c, 1, 74, 64
2, 47556, Note_off_c, 1, 70, 64
2, 47564, Note_on_c, 1, 67, 73
2, 47564, Note_on_c, 1, 50, 70
2, 47812, Note_on_c, 1, 62, 66
2, 47812, Note_on_c, 1, 58, 54
2, 47816, Note_on_c, 1, 53, 60
2, 47836, Note_off_c, 1, 58, 64
2, 47840, Note_off_c, 1, 62, 64
2, 47852, Note_off_c, 1, 53, 64
2, 47872, Note_off_c, 1, 50, 64
2, 48040, Note_on_c, 1, 43, 85
2, 48048, Note_on_c, 1, 55, 75
2, 48052, Note_off_c, 1, 67, 64
2, 48056, Control_c, 1, 64, 127
2, 48060, Note_off_c, 1, 43, 64
2, 48064, Note_off_c, 1, 55, 64
2, 48180, Note_on_c, 1, 74, 93
2, 48180, Note_on_c, 1, 70, 75
2, 48184, Note_on_c, 1, 67, 88
2, 48300, Note_on_c, 1, 55, 77
2, 48300, Note_on_c, 1, 62, 73
2, 48304, Note_on_c, 1, 58, 67
2, 48328, Note_off_c, 1, 58, 64
2, 48332, Note_off_c, 1, 62, 64
2, 48336, Note_off_c, 1, 55, 64
2, 48412, Note_off_c, 1, 74, 64
2, 48424, Note_on_c, 1, 72, 71
2, 48444, Note_off_c, 1, 70, 64
2, 48552, Note_on_c, 1, 55, 78
2, 48552, Note_on_c, 1, 58, 67
2, 48556, Note_on_c, 1, 62, 68
2, 48560, Note_on_c, 1, 74, 77
2, 48564, Note_off_c, 1, 72, 64
2, 48564, Control_c, 1, 64, 0
2, 48672, Note_off_c, 1, 74, 64
2, 48672, Note_on_c, 1, 72, 77
2, 48688, Note_off_c, 1, 58, 64
2, 48696, Note_off_c, 1, 55, 64
2, 48700, Note_off_c, 1, 62, 64
2, 48792, Note_off_c, 1, 67, 64
2, 48792, Note_on_c, 1, 70, 71
2, 48792, Note_on_c, 1, 55, 66
2, 48792, Note_on_c, 1, 62, 64
2, 48796, Note_on_c, 1, 58, 65
2, 48820, Note_off_c, 1, 62, 64
2, 48820, Note_off_c, 1, 58, 64
2, 48820, Control_c, 1, 64, 127
2, 48828, Note_off_c, 1, 55, 64
2, 48900, Control_c, 1, 64, 0
2, 48904, Note_off_c, 1, 70, 64
2, 48912, Note_on_c, 1, 67, 71
2, 48916, Note_off_c, 1, 72, 64
2, 49044, Note_on_c, 1, 39, 71
2, 49044, Note_on_c, 1, 51, 62
2, 49044, Note_on_c, 1, 70, 70
2, 49052, Control_c, 1, 64, 127
2, 49076, Note_off_c, 1, 39, 64
2, 49088, Note_off_c, 1, 51, 64
2, 49172, Note_off_c, 1, 70, 64
2, 49180, Note_on_c, 1, 72, 78
2, 49204, Note_off_c, 1, 67, 64
2, 49288, Note_on_c, 1, 70, 78
2, 49292, Note_off_c, 1, 72, 64
2, 49292, Note_on_c, 1, 41, 65
2, 49296, Note_on_c, 1, 53, 68
2, 49296, Control_c, 1, 64, 0
2, 49388, Control_c, 1, 64, 127
2, 49408, Note_off_c, 1, 70, 64
2, 49416, Note_off_c, 1, 53, 64
2, 49416, Note_on_c, 1, 67, 71
2, 49448, Note_off_c, 1, 41, 64
2, 49536, Note_on_c, 1, 43, 77
2, 49536, Note_on_c, 1, 55, 69
2, 49536, Note_on_c, 1, 70, 80
2, 49536, Control_c, 1, 64, 0
2, 49564, Note_off_c, 1, 67, 64
2, 49620, Control_c, 1, 64, 127
2, 49644, Note_off_c, 1, 43, 64
2, 49656, Note_off_c, 1, 70, 64
2, 49656, Note_on_c, 1, 72, 73
2, 49664, Note_off_c, 1, 55, 64
2, 49776, Note_off_c, 1, 72, 64
2, 49780, Note_on_c, 1, 70, 78
2, 49784, Note_on_c, 1, 57, 73
2, 49784, Control_c, 1, 64, 0
2, 49788, Note_on_c, 1, 45, 69
2, 49868, Control_c, 1, 64, 127
2, 49900, Note_off_c, 1, 70, 64
2, 49900, Note_off_c, 1, 57, 64
2, 49904, Note_on_c, 1, 67, 78
2, 49912, Note_off_c, 1, 45, 64
2, 50012, Control_c, 1, 64, 0
2, 50024, Note_on_c, 1, 70, 75
2, 50028, Note_on_c, 1, 46, 78
2, 50028, Note_on_c, 1, 58, 66
2, 50044, Note_off_c, 1, 67, 64
2, 50056, Control_c, 1, 64, 127
2, 50092, Note_off_c, 1, 46, 64
2, 50108, Note_off_c, 1, 58, 64
2, 50112, Note_off_c, 1, 70, 64
2, 50156, Note_on_c, 1, 65, 78
2, 50156, Note_on_c, 1, 74, 88
2, 50276, Note_on_c, 1, 53, 80
2, 50276, Note_on_c, 1, 62, 71
2, 50280, Note_on_c, 1, 58, 65
2, 50292, Note_off_c, 1, 58, 64
2, 50296, Note_off_c, 1, 53, 64
2, 50296, Note_off_c, 1, 62, 64
2, 50400, Note_off_c, 1, 74, 64
2, 50400, Note_on_c, 1, 70, 70
2, 50436, Note_off_c, 1, 65, 64
2, 50460, Note_off_c, 1, 70, 64
2, 50496, Control_c, 1, 64, 0
2, 50528, Note_on_c, 1, 43, 88
2, 50532, Note_on_c, 1, 74, 88
2, 50532, Note_on_c, 1, 65, 85
2, 50552, Control_c, 1, 64, 127
2, 50588, Note_off_c, 1, 43, 64
2, 50788, Note_on_c, 1, 53, 85
2, 50788, Note_on_c, 1, 59, 73
2, 50792, Note_on_c, 1, 55, 78
2, 50808, Note_off_c, 1, 59, 64
2, 50808, Note_off_c, 1, 55, 64
2, 50812, Note_off_c, 1, 53, 64
2, 50852, Note_off_c, 1, 74, 64
2, 50856, Note_off_c, 1, 65, 64
2, 51016, Control_c, 1, 64, 0
2, 51028, Note_on_c, 1, 48, 70
2, 51036, Note_on_c, 1, 67, 80
2, 51040, Note_on_c, 1, 64, 73
2, 51080, Control_c, 1, 64, 127
2, 51104, Note_off_c, 1, 64, 64
2, 51120, Note_off_c, 1, 67, 64
2, 51160, Note_on_c, 1, 74, 90
2, 51160, Note_on_c, 1, 64, 78
2, 51272, Note_off_c, 1, 64, 64
2, 51284, Note_off_c, 1, 74, 64
2, 51284, Note_on_c, 1, 55, 75
2, 51284, Note_on_c, 1, 58, 67
2, 51292, Control_c, 1, 64, 0
2, 51300, Note_off_c, 1, 48, 64
2, 51308, Note_off_c, 1, 55, 64
2, 51312, Note_off_c, 1, 58, 64
2, 51520, Note_on_c, 1, 53, 75
2, 51528, Note_on_c, 1, 69, 70
2, 51528, Note_on_c, 1, 65, 77
2, 51576, Note_off_c, 1, 65, 64
2, 51604, Note_off_c, 1, 69, 64
2, 51648, Note_on_c, 1, 72, 73
2, 51648, Note_on_c, 1, 65, 71
2, 51764, Note_off_c, 1, 65, 64
2, 51764, Note_on_c, 1, 57, 68
2, 51764, Note_on_c, 1, 63, 52
2, 51780, Note_off_c, 1, 53, 64
2, 51788, Note_off_c, 1, 72, 64
2, 51788, Note_off_c, 1, 63, 64
2, 51800, Note_off_c, 1, 57, 64
2, 51884, Note_on_c, 1, 70, 65
2, 51888, Note_on_c, 1, 65, 63
2, 51912, Control_c, 1, 64, 127
2, 51952, Note_off_c, 1, 70, 64
2, 51952, Note_off_c, 1, 65, 64
2, 52004, Note_on_c, 1, 58, 54
2, 52004, Control_c, 1, 64, 0
2, 52008, Note_on_c, 1, 62, 62
2, 52028, Note_off_c, 1, 58, 64
2, 52036, Note_off_c, 1, 62, 64
2, 52220, Note_on_c, 1, 79, 83
2, 52264, Note_on_c, 1, 77, 99
2, 52272, Note_off_c, 1, 79, 64
2, 52292, Note_off_c, 1, 77, 64
2, 52484, Note_on_c, 1, 79, 78
2, 52516, Note_on_c, 1, 77, 101
2, 52552, Note_off_c, 1, 79, 64
2, 52588, Note_off_c, 1, 77, 64
2, 52756, Note_on_c, 1, 65, 122
2, 52760, Note_on_c, 1, 59, 88
2, 52760, Note_on_c, 1, 47, 88
2, 52772, Control_c, 1, 64, 127
2, 52812, Note_off_c, 1, 47, 64
2, 52824, Note_off_c, 1, 59, 64
2, 52864, Note_off_c, 1, 65, 64
2, 52996, Control_c, 1, 64, 0
2, 53004, Note_on_c, 1, 69, 104
2, 53008, Note_on_c, 1, 48, 93
2, 53008, Note_on_c, 1, 60, 93
2, 53036, Note_off_c, 1, 69, 64
2, 53040, Note_off_c, 1, 48, 64
2, 53048, Note_off_c, 1, 60, 64
2, 53144, Note_on_c, 1, 75, 75
2, 53144, Note_on_c, 1, 65, 88
2, 53260, Note_on_c, 1, 53, 93
2, 53260, Note_on_c, 1, 63, 77
2, 53264, Note_off_c, 1, 65, 64
2, 53268, Note_off_c, 1, 75, 64
2, 53268, Note_on_c, 1, 57, 83
2, 53276, Note_off_c, 1, 57, 64
2, 53280, Note_off_c, 1, 63, 64
2, 53288, Note_off_c, 1, 53, 64
2, 53388, Note_on_c, 1, 72, 93
2, 53420, Note_off_c, 1, 72, 64
2, 53512, Note_on_c, 1, 41, 90
2, 53516, Note_on_c, 1, 53, 90
2, 53516, Note_on_c, 1, 74, 100
2, 53532, Note_off_c, 1, 41, 64
2, 53540, Note_off_c, 1, 53, 64
2, 53540, Control_c, 1, 64, 127
2, 53632, Note_off_c, 1, 74, 64
2, 53636, Control_c, 1, 64, 0
2, 53644, Note_on_c, 1, 72, 90
2, 53756, Note_on_c, 1, 63, 66
2, 53760, Note_on_c, 1, 53, 96
2, 53760, Note_on_c, 1, 69, 104
2, 53764, Note_off_c, 1, 72, 64
2, 53764, Note_on_c, 1, 57, 85
2, 53776, Note_off_c, 1, 63, 64
2, 53776, Note_off_c, 1, 57, 64
2, 53780, Note_off_c, 1, 53, 64
2, 53872, Note_off_c, 1, 69, 64
2, 53880, Note_on_c, 1, 65, 93
2, 54004, Note_off_c, 1, 65, 64
2, 54004, Note_on_c, 1, 69, 88
2, 54004, Note_on_c, 1, 48, 83
2, 54024, Note_off_c, 1, 48, 64
2, 54028, Note_off_c, 1, 69, 64
2, 54128, Note_on_c, 1, 75, 90
2, 54128, Note_on_c, 1, 65, 96
2, 54256, Note_on_c, 1, 53, 85
2, 54256, Note_on_c, 1, 63, 66
2, 54256, Note_on_c, 1, 57, 85
2, 54280, Note_off_c, 1, 53, 64
2, 54280, Note_off_c, 1, 63, 64
2, 54280, Note_off_c, 1, 57, 64
2, 54324, Note_off_c, 1, 75, 64
2, 54376, Note_on_c, 1, 72, 90
2, 54404, Note_off_c, 1, 65, 64
2, 54404, Note_off_c, 1, 72, 64
2, 54496, Note_on_c, 1, 41, 88
2, 54504, Note_on_c, 1, 74, 90
2, 54508, Note_on_c, 1, 65, 96
2, 54508, Control_c, 1, 64, 127
2, 54520, Note_off_c, 1, 41, 64
2, 54616, Note_off_c, 1, 74, 64
2, 54628, Note_on_c, 1, 72, 88
2, 54728, Note_off_c, 1, 65, 64
2, 54744, Note_on_c, 1, 69, 88
2, 54748, Note_on_c, 1, 53, 90
2, 54748, Note_on_c, 1, 63, 65
2, 54752, Note_on_c, 1, 57, 85
2, 54768, Note_off_c, 1, 57, 64
2, 54772, Note_off_c, 1, 53, 64
2, 54772, Note_off_c, 1, 63, 64
2, 54856, Note_off_c, 1, 69, 64
2, 54868, Note_off_c, 1, 72, 64
2, 54868, Note_on_c, 1, 65, 85
2, 54980, Note_on_c, 1, 46, 85
2, 54980, Control_c, 1, 64, 0
2, 54992, Note_on_c, 1, 70, 93
2, 55076, Note_off_c, 1, 46, 64
2, 55100, Note_off_c, 1, 70, 64
2, 55104, Note_on_c, 1, 74, 88
2, 55152, Note_off_c, 1, 65, 64
2, 55220, Note_on_c, 1, 53, 73
2, 55220, Note_on_c, 1, 62, 71
2, 55228, Note_on_c, 1, 58, 63
2, 55240, Note_off_c, 1, 58, 64
2, 55248, Note_off_c, 1, 53, 64
2, 55248, Note_off_c, 1, 62, 64
2, 55352, Note_on_c, 1, 70, 80
2, 55472, Note_off_c, 1, 70, 64
2, 55484, Note_on_c, 1, 67, 88
2, 55484, Note_on_c, 1, 50, 85
2, 55744, Note_on_c, 1, 62, 73
2, 55744, Note_on_c, 1, 58, 70
2, 55748, Note_on_c, 1, 53, 78
2, 55756, Control_c, 1, 64, 127
2, 55760, Note_off_c, 1, 62, 64
2, 55760, Note_off_c, 1, 58, 64
2, 55764, Note_off_c, 1, 53, 64
2, 55768, Note_off_c, 1, 50, 64
2, 55900, Control_c, 1, 64, 0
2, 56000, Note_on_c, 1, 43, 88
2, 56000, Note_on_c, 1, 55, 90
2, 56004, Control_c, 1, 64, 127
2, 56008, Note_off_c, 1, 74, 64
2, 56008, Note_off_c, 1, 67, 64
2, 56020, Note_off_c, 1, 43, 64
2, 56032, Note_off_c, 1, 55, 64
2, 56104, Control_c, 1, 64, 0
2, 56112, Note_on_c, 1, 70, 78
2, 56116, Note_on_c, 1, 74, 88
2, 56116, Note_on_c, 1, 67, 90
2, 56248, Note_on_c, 1, 58, 73
2, 56248, Note_on_c, 1, 55, 90
2, 56248, Note_on_c, 1, 62, 75
2, 56272, Note_off_c, 1, 58, 64
2, 56276, Note_off_c, 1, 55, 64
2, 56276, Note_off_c, 1, 62, 64
2, 56352, Note_off_c, 1, 70, 64
2, 56352, Note_off_c, 1, 74, 64
2, 56364, Note_on_c, 1, 72, 78
2, 56488, Note_off_c, 1, 72, 64
2, 56488, Note_on_c, 1, 74, 83
2, 56496, Note_on_c, 1, 55, 78
2, 56496, Note_on_c, 1, 62, 77
2, 56500, Note_on_c, 1, 58, 53
2, 56512, Note_off_c, 1, 58, 64
2, 56516, Note_off_c, 1, 55, 64
2, 56520, Note_off_c, 1, 62, 64
2, 56604, Note_off_c, 1, 74, 64
2, 56604, Note_on_c, 1, 72, 73
2, 56656, Note_off_c, 1, 67, 64
2, 56732, Note_on_c, 1, 62, 71
2, 56732, Note_on_c, 1, 55, 77
2, 56732, Note_on_c, 1, 70, 77
2, 56732, Note_on_c, 1, 58, 69
2, 56744, Note_off_c, 1, 72, 64
2, 56748, Note_off_c, 1, 62, 64
2, 56748, Note_off_c, 1, 55, 64
2, 56748, Note_off_c, 1, 58, 64
2, 56844, Note_off_c, 1, 70, 64
2, 56852, Note_on_c, 1, 67, 78
2, 56972, Note_off_c, 1, 67, 64
2, 56980, Note_on_c, 1, 38, 100
2, 56984, Note_on_c, 1, 69, 93
2, 56992, Control_c, 1, 64, 127
2, 57004, Note_off_c, 1, 38, 64
2, 57060, Note_off_c, 1, 69, 64
2, 57112, Note_on_c, 1, 74, 78
2, 57112, Note_on_c, 1, 66, 78
2, 57236, Note_on_c, 1, 54, 71
2, 57240, Note_on_c, 1, 60, 70
2, 57248, Note_on_c, 1, 62, 62
2, 57252, Note_off_c, 1, 60, 64
2, 57256, Note_off_c, 1, 54, 64
2, 57256, Note_off_c, 1, 62, 64
2, 57268, Control_c, 1, 64, 0
2, 57352, Note_off_c, 1, 74, 64
2, 57356, Note_on_c, 1, 72, 78
2, 57376, Note_off_c, 1, 66, 64
2, 57480, Note_on_c, 1, 38, 83
2, 57484, Note_off_c, 1, 72, 64
2, 57484, Note_on_c, 1, 50, 73
2, 57484, Note_on_c, 1, 69, 85
2, 57484, Note_on_c, 1, 66, 65
2, 57488, Control_c, 1, 64, 127
2, 57500, Note_off_c, 1, 38, 64
2, 57508, Note_off_c, 1, 50, 64
2, 57740, Control_c, 1, 64, 0
2, 57744, Note_on_c, 1, 62, 66
2, 57744, Note_on_c, 1, 54, 65
2, 57752, Note_off_c, 1, 62, 64
2, 57764, Note_off_c, 1, 54, 64
2, 57984, Note_on_c, 1, 50, 78
2, 57988, Note_on_c, 1, 38, 71
2, 57988, Control_c, 1, 64, 127
2, 58008, Note_off_c, 1, 50, 64
2, 58008, Note_off_c, 1, 38, 64
2, 58220, Note_on_c, 1, 39, 70
2, 58220, Note_on_c, 1, 51, 68
2, 58220, Control_c, 1, 64, 0
2, 58232, Note_off_c, 1, 39, 64
2, 58232, Note_off_c, 1, 51, 64
2, 58348, Note_on_c, 1, 38, 100
2, 58348, Note_on_c, 1, 50, 93
2, 58356, Control_c, 1, 64, 127
2, 58496, Note_off_c, 1, 38, 64
2, 58496, Note_off_c, 1, 50, 64
2, 58580, Note_on_c, 1, 36, 78
2, 58584, Note_on_c, 1, 48, 71
2, 58592, Control_c, 1, 64, 0
2, 58604, Note_off_c, 1, 48, 64
2, 58616, Note_off_c, 1, 36, 64
2, 58712, Note_on_c, 1, 34, 100
2, 58712, Note_on_c, 1, 46, 96
2, 58728, Note_off_c, 1, 46, 64
2, 58736, Note_off_c, 1, 34, 64
2, 58824, Note_on_c, 1, 33, 83
2, 58824, Note_on_c, 1, 45, 71
2, 58852, Note_off_c, 1, 33, 64
2, 58852, Note_off_c, 1, 45, 64
2, 58872, Note_off_c, 1, 66, 64
2, 58924, Note_off_c, 1, 69, 64
2, 58956, Note_on_c, 1, 31, 85
2, 58956, Note_on_c, 1, 43, 88
2, 58960, Note_on_c, 1, 70, 78
2, 58972, Control_c, 1, 64, 127
2, 58980, Note_off_c, 1, 31, 64
2, 58988, Note_off_c, 1, 43, 64
2, 59076, Note_off_c, 1, 70, 64
2, 59080, Note_on_c, 1, 74, 85
2, 59208, Note_on_c, 1, 55, 80
2, 59212, Note_on_c, 1, 62, 71
2, 59224, Control_c, 1, 64, 0
2, 59228, Note_off_c, 1, 55, 64
2, 59232, Note_off_c, 1, 62, 64
2, 59332, Note_on_c, 1, 70, 78
2, 59340, Note_off_c, 1, 74, 64
2, 59448, Note_off_c, 1, 70, 64
2, 59448, Note_on_c, 1, 46, 80
2, 59452, Note_on_c, 1, 67, 78
2, 59456, Control_c, 1, 64, 127
2, 59468, Note_off_c, 1, 46, 64
2, 59716, Note_on_c, 1, 55, 71
2, 59716, Note_on_c, 1, 62, 67
2, 59716, Note_on_c, 1, 58, 65
2, 59728, Note_off_c, 1, 62, 64
2, 59728, Note_off_c, 1, 58, 64
2, 59736, Note_off_c, 1, 55, 64
2, 59812, Control_c, 1, 64, 0
2, 59952, Note_on_c, 1, 43, 90
2, 59956, Control_c, 1, 64, 127
2, 59972, Note_off_c, 1, 43, 64
2, 59980, Note_off_c, 1, 67, 64
2, 60072, Note_on_c, 1, 70, 70
2, 60072, Note_on_c, 1, 74, 90
2, 60076, Note_on_c, 1, 67, 80
2, 60204, Note_on_c, 1, 55, 78
2, 60204, Note_on_c, 1, 62, 71
2, 60208, Note_on_c, 1, 58, 66
2, 60228, Note_off_c, 1, 58, 64
2, 60232, Note_off_c, 1, 55, 64
2, 60232, Note_off_c, 1, 62, 64
2, 60304, Note_off_c, 1, 74, 64
2, 60312, Note_off_c, 1, 70, 64
2, 60324, Note_on_c, 1, 72, 83
2, 60448, Note_on_c, 1, 74, 88
2, 60448, Control_c, 1, 64, 0
2, 60452, Note_off_c, 1, 72, 64
2, 60460, Note_on_c, 1, 62, 69
2, 60460, Note_on_c, 1, 55, 78
2, 60460, Note_on_c, 1, 58, 66
2, 60560, Note_off_c, 1, 74, 64
2, 60560, Note_off_c, 1, 58, 64
2, 60560, Note_on_c, 1, 72, 80
2, 60564, Note_off_c, 1, 62, 64
2, 60564, Note_off_c, 1, 55, 64
2, 60584, Note_off_c, 1, 67, 64
2, 60684, Note_on_c, 1, 62, 71
2, 60684, Note_on_c, 1, 55, 70
2, 60688, Note_on_c, 1, 70, 75
2, 60688, Note_on_c, 1, 58, 68
2, 60708, Note_off_c, 1, 62, 64
2, 60708, Note_off_c, 1, 55, 64
2, 60712, Note_off_c, 1, 58, 64
2, 60716, Note_off_c, 1, 72, 64
2, 60808, Note_off_c, 1, 70, 64
2, 60808, Note_on_c, 1, 67, 77
2, 60944, Note_on_c, 1, 48, 78
2, 60948, Note_on_c, 1, 69, 85
2, 60964, Note_off_c, 1, 48, 64
2, 60964, Control_c, 1, 64, 127
2, 60968, Note_off_c, 1, 67, 64
2, 61004, Note_off_c, 1, 69, 64
2, 61052, Control_c, 1, 64, 0
2, 61068, Note_on_c, 1, 75, 75
2, 61076, Note_on_c, 1, 65, 80
2, 61200, Note_on_c, 1, 53, 85
2, 61200, Note_on_c, 1, 63, 65
2, 61204, Note_on_c, 1, 57, 73
2, 61216, Note_off_c, 1, 53, 64
2, 61216, Note_off_c, 1, 57, 64
2, 61220, Note_off_c, 1, 63, 64
2, 61316, Note_off_c, 1, 75, 64
2, 61332, Note_on_c, 1, 72, 78
2, 61448, Note_off_c, 1, 72, 64
2, 61448, Note_on_c, 1, 41, 71
2, 61456, Note_on_c, 1, 74, 88
2, 61464, Note_off_c, 1, 41, 64
2, 61564, Note_off_c, 1, 74, 64
2, 61576, Note_on_c, 1, 72, 78
2, 61612, Note_off_c, 1, 65, 64
2, 61692, Note_on_c, 1, 53, 78
2, 61692, Note_on_c, 1, 63, 64
2, 61692, Note_on_c, 1, 57, 71
2, 61700, Note_on_c, 1, 69, 75
2, 61704, Note_off_c, 1, 72, 64
2, 61712, Note_off_c, 1, 57, 64
2, 61716, Note_off_c, 1, 53, 64
2, 61720, Note_off_c, 1, 63, 64
2, 61812, Note_off_c, 1, 69, 64
2, 61816, Note_on_c, 1, 65, 75
2, 61932, Note_on_c, 1, 48, 75
2, 61936, Note_on_c, 1, 69, 80
2, 61944, Note_off_c, 1, 65, 64
2, 61952, Note_off_c, 1, 48, 64
2, 61964, Note_off_c, 1, 69, 64
2, 62064, Note_on_c, 1, 65, 85
2, 62064, Note_on_c, 1, 75, 80
2, 62188, Note_on_c, 1, 63, 66
2, 62188, Note_on_c, 1, 53, 83
2, 62192, Note_on_c, 1, 57, 78
2, 62212, Note_off_c, 1, 63, 64
2, 62212, Note_off_c, 1, 53, 64
2, 62212, Note_off_c, 1, 57, 64
2, 62304, Note_off_c, 1, 75, 64
2, 62308, Note_on_c, 1, 72, 78
2, 62440, Note_off_c, 1, 72, 64
2, 62440, Note_on_c, 1, 41, 78
2, 62444, Note_on_c, 1, 74, 80
2, 62452, Note_off_c, 1, 41, 64
2, 62556, Note_off_c, 1, 74, 64
2, 62564, Note_on_c, 1, 72, 75
2, 62580, Note_off_c, 1, 65, 64
2, 62680, Note_on_c, 1, 53, 83
2, 62688, Note_on_c, 1, 63, 56
2, 62688, Note_on_c, 1, 69, 83
2, 62692, Note_off_c, 1, 72, 64
2, 62704, Note_off_c, 1, 53, 64
2, 62704, Note_off_c, 1, 63, 64
2, 62800, Note_off_c, 1, 69, 64
2, 62812, Note_on_c, 1, 65, 77
2, 62928, Note_off_c, 1, 65, 64
2, 62928, Note_on_c, 1, 46, 88
2, 62928, Note_on_c, 1, 70, 93
2, 62940, Control_c, 1, 64, 127
2, 62948, Note_off_c, 1, 46, 64
2, 63040, Note_off_c, 1, 70, 64
2, 63048, Note_on_c, 1, 74, 85
2, 63180, Note_on_c, 1, 58, 64
2, 63180, Note_on_c, 1, 53, 65
2, 63184, Note_on_c, 1, 62, 61
2, 63196, Note_off_c, 1, 58, 64
2, 63204, Note_off_c, 1, 62, 64
2, 63208, Note_off_c, 1, 53, 64
2, 63300, Note_off_c, 1, 74, 64
2, 63304, Note_on_c, 1, 70, 73
2, 63416, Note_off_c, 1, 70, 64
2, 63420, Note_on_c, 1, 50, 88
2, 63424, Note_on_c, 1, 67, 78
2, 63424, Control_c, 1, 64, 0
2, 63672, Note_on_c, 1, 58, 66
2, 63676, Note_on_c, 1, 62, 68
2, 63676, Note_on_c, 1, 53, 67
2, 63684, Control_c, 1, 64, 127
2, 63696, Note_off_c, 1, 58, 64
2, 63700, Note_off_c, 1, 62, 64
2, 63700, Note_off_c, 1, 53, 64
2, 63712, Note_off_c, 1, 50, 64
2, 63880, Control_c, 1, 64, 0
2, 63912, Note_on_c, 1, 43, 83
2, 63916, Note_on_c, 1, 55, 88
2, 63920, Control_c, 1, 64, 127
2, 63932, Note_off_c, 1, 43, 64
2, 63932, Note_off_c, 1, 55, 64
2, 63968, Note_off_c, 1, 67, 64
2, 64048, Note_on_c, 1, 74, 96
2, 64052, Note_on_c, 1, 70, 78
2, 64056, Note_on_c, 1, 67, 80
2, 64168, Note_on_c, 1, 55, 78
2, 64168, Note_on_c, 1, 58, 61
2, 64168, Note_on_c, 1, 62, 71
2, 64184, Note_off_c, 1, 58, 64
2, 64192, Note_off_c, 1, 55, 64
2, 64192, Note_off_c, 1, 62, 64
2, 64228, Note_off_c, 1, 74, 64
2, 64272, Note_off_c, 1, 70, 64
2, 64292, Note_on_c, 1, 72, 85
2, 64424, Note_on_c, 1, 74, 85
2, 64424, Note_on_c, 1, 55, 70
2, 64424, Note_on_c, 1, 58, 66
2, 64428, Note_on_c, 1, 62, 68
2, 64428, Control_c, 1, 64, 0
2, 64440, Note_off_c, 1, 72, 64
2, 64480, Control_c, 1, 64, 127
2, 64532, Note_off_c, 1, 58, 64
2, 64532, Note_off_c, 1, 74, 64
2, 64536, Note_off_c, 1, 55, 64
2, 64536, Note_off_c, 1, 62, 64
2, 64540, Note_on_c, 1, 72, 80
2, 64660, Note_off_c, 1, 67, 64
2, 64664, Note_on_c, 1, 55, 73
2, 64664, Note_on_c, 1, 58, 67
2, 64668, Note_on_c, 1, 62, 66
2, 64668, Note_on_c, 1, 70, 78
2, 64680, Note_off_c, 1, 72, 64
2, 64684, Note_off_c, 1, 58, 64
2, 64688, Note_off_c, 1, 55, 64
2, 64688, Note_off_c, 1, 62, 64
2, 64788, Note_off_c, 1, 70, 64
2, 64792, Note_on_c, 1, 67, 73
2, 64792, Control_c, 1, 64, 0
2, 64912, Note_on_c, 1, 39, 55
2, 64916, Note_on_c, 1, 51, 54
2, 64924, Note_on_c, 1, 70, 71
2, 64928, Control_c, 1, 64, 127
2, 64948, Note_off_c, 1, 67, 64
2, 64952, Note_off_c, 1, 39, 64
2, 64960, Note_off_c, 1, 51, 64
2, 65044, Note_off_c, 1, 70, 64
2, 65044, Note_on_c, 1, 72, 80
2, 65164, Note_off_c, 1, 72, 64
2, 65164, Note_on_c, 1, 70, 77
2, 65168, Note_on_c, 1, 41, 71
2, 65168, Note_on_c, 1, 53, 73
2, 65176, Control_c, 1, 64, 0
2, 65260, Control_c, 1, 64, 127
2, 65284, Note_off_c, 1, 70, 64
2, 65288, Note_off_c, 1, 41, 64
2, 65288, Note_on_c, 1, 67, 80
2, 65300, Note_off_c, 1, 53, 64
2, 65396, Control_c, 1, 64, 0
2, 65408, Note_off_c, 1, 67, 64
2, 65412, Note_on_c, 1, 55, 70
2, 65412, Note_on_c, 1, 70, 78
2, 65412, Note_on_c, 1, 43, 69
2, 65524, Note_off_c, 1, 70, 64
2, 65528, Note_on_c, 1, 72, 83
2, 65544, Control_c, 1, 64, 127
2, 65564, Note_off_c, 1, 55, 64
2, 65632, Control_c, 1, 64, 0
2, 65644, Note_off_c, 1, 72, 64
2, 65652, Note_off_c, 1, 43, 64
2, 65652, Note_on_c, 1, 70, 78
2, 65652, Note_on_c, 1, 57, 67
2, 65656, Note_on_c, 1, 45, 78
2, 65760, Control_c, 1, 64, 127
2, 65772, Note_off_c, 1, 70, 64
2, 65776, Note_on_c, 1, 67, 80
2, 65780, Note_off_c, 1, 57, 64
2, 65792, Note_off_c, 1, 45, 64
2, 65884, Control_c, 1, 64, 0
2, 65900, Note_on_c, 1, 58, 71
2, 65900, Note_on_c, 1, 46, 80
2, 65904, Note_on_c, 1, 70, 80
2, 65912, Note_off_c, 1, 67, 64
2, 65944, Control_c, 1, 64, 127
2, 65976, Note_off_c, 1, 70, 64
2, 66000, Note_off_c, 1, 46, 64
2, 66012, Note_off_c, 1, 58, 64
2, 66028, Note_on_c, 1, 65, 78
2, 66028, Note_on_c, 1, 74, 90
2, 66144, Note_on_c, 1, 53, 83
2, 66144, Note_on_c, 1, 62, 71
2, 66148, Note_on_c, 1, 58, 69
2, 66168, Note_off_c, 1, 58, 64
2, 66172, Note_off_c, 1, 53, 64
2, 66172, Note_off_c, 1, 62, 64
2, 66264, Note_off_c, 1, 65, 64
2, 66264, Note_off_c, 1, 74, 64
2, 66264, Note_on_c, 1, 70, 78
2, 66360, Control_c, 1, 64, 0
2, 66376, Note_off_c, 1, 70, 64
2, 66380, Note_on_c, 1, 43, 88
2, 66408, Control_c, 1, 64, 127
2, 66416, Note_on_c, 1, 74, 78
2, 66416, Note_on_c, 1, 65, 85
2, 66452, Note_off_c, 1, 43, 64
2, 66644, Note_on_c, 1, 53, 68
2, 66648, Note_on_c, 1, 59, 75
2, 66648, Note_on_c, 1, 55, 71
2, 66688, Note_off_c, 1, 55, 64
2, 66692, Note_off_c, 1, 53, 64
2, 66692, Note_off_c, 1, 59, 64
2, 66732, Note_off_c, 1, 74, 64
2, 66752, Note_off_c, 1, 65, 64
2, 66880, Control_c, 1, 64, 0
2, 66888, Note_on_c, 1, 67, 83
2, 66888, Note_on_c, 1, 48, 78
2, 66892, Note_on_c, 1, 64, 78
2, 66932, Control_c, 1, 64, 127
2, 66964, Note_off_c, 1, 64, 64
2, 66988, Note_off_c, 1, 67, 64
2, 67008, Note_on_c, 1, 74, 83
2, 67012, Note_on_c, 1, 64, 69
2, 67036, Control_c, 1, 64, 0
2, 67140, Note_on_c, 1, 55, 71
2, 67140, Note_on_c, 1, 58, 67
2, 67144, Note_off_c, 1, 64, 64
2, 67152, Note_off_c, 1, 74, 64
2, 67164, Note_off_c, 1, 55, 64
2, 67168, Note_off_c, 1, 48, 64
2, 67180, Note_off_c, 1, 58, 64
2, 67384, Note_on_c, 1, 53, 78
2, 67388, Note_on_c, 1, 69, 73
2, 67392, Note_on_c, 1, 65, 71
2, 67456, Note_off_c, 1, 65, 64
2, 67476, Note_off_c, 1, 69, 64
2, 67512, Note_on_c, 1, 72, 69
2, 67516, Note_on_c, 1, 65, 67
2, 67632, Note_on_c, 1, 63, 59
2, 67632, Note_on_c, 1, 57, 71
2, 67656, Note_off_c, 1, 65, 64
2, 67664, Note_off_c, 1, 72, 64
2, 67664, Note_off_c, 1, 63, 64
2, 67668, Note_off_c, 1, 57, 64
2, 67676, Note_off_c, 1, 53, 64
2, 67764, Note_on_c, 1, 70, 64
2, 67768, Note_on_c, 1, 65, 62
2, 67872, Note_off_c, 1, 65, 64
2, 67872, Note_on_c, 1, 58, 53
2, 67872, Note_on_c, 1, 62, 58
2, 67884, Note_off_c, 1, 70, 64
2, 67896, Note_off_c, 1, 58, 64
2, 67900, Note_off_c, 1, 62, 64
2, 68124, Note_on_c, 1, 50, 78
2, 68124, Note_on_c, 1, 62, 67
2, 68132, Note_on_c, 1, 77, 104
2, 68136, Control_c, 1, 64, 127
2, 68172, Note_off_c, 1, 62, 64
2, 68192, Note_off_c, 1, 50, 64
2, 68244, Note_off_c, 1, 77, 64
2, 68376, Control_c, 1, 64, 0
2, 68392, Note_on_c, 1, 61, 68
2, 68396, Note_on_c, 1, 49, 73
2, 68400, Note_on_c, 1, 76, 93
2, 68400, Note_on_c, 1, 79, 108
2, 68440, Control_c, 1, 64, 127
2, 68468, Note_off_c, 1, 76, 64
2, 68476, Note_off_c, 1, 49, 64
2, 68480, Note_off_c, 1, 61, 64
2, 68492, Note_off_c, 1, 79, 64
2, 68632, Control_c, 1, 64, 0
2, 68648, Note_on_c, 1, 81, 104
2, 68648, Note_on_c, 1, 75, 93
2, 68652, Note_on_c, 1, 48, 80
2, 68652, Note_on_c, 1, 60, 77
2, 68684, Control_c, 1, 64, 127
2, 68704, Note_off_c, 1, 60, 64
2, 68716, Note_off_c, 1, 48, 64
2, 68720, Note_off_c, 1, 75, 64
2, 68728, Note_off_c, 1, 81, 64
2, 68864, Control_c, 1, 64, 0
2, 68888, Note_on_c, 1, 82, 108
2, 68888, Note_on_c, 1, 46, 73
2, 68888, Note_on_c, 1, 58, 68
2, 68888, Note_on_c, 1, 74, 80
2, 68912, Control_c, 1, 64, 127
2, 68916, Note_off_c, 1, 46, 64
2, 68924, Note_off_c, 1, 58, 64
2, 68952, Note_off_c, 1, 82, 64
2, 68952, Note_off_c, 1, 74, 64
2, 68984, Control_c, 1, 64, 0
2, 69008, Note_on_c, 1, 82, 96
2, 69012, Note_on_c, 1, 74, 77
2, 69132, Note_off_c, 1, 82, 64
2, 69132, Note_on_c, 1, 53, 80
2, 69132, Note_on_c, 1, 62, 71
2, 69132, Note_on_c, 1, 58, 66
2, 69136, Control_c, 1, 64, 127
2, 69144, Note_off_c, 1, 53, 64
2, 69148, Note_off_c, 1, 58, 64
2, 69152, Note_off_c, 1, 62, 64
2, 69196, Control_c, 1, 64, 0
2, 69260, Note_on_c, 1, 77, 88
2, 69300, Note_off_c, 1, 74, 64
2, 69372, Note_on_c, 1, 41, 77
2, 69380, Note_off_c, 1, 77, 64
2, 69380, Note_on_c, 1, 81, 93
2, 69396, Note_off_c, 1, 41, 64
2, 69500, Note_off_c, 1, 81, 64
2, 69508, Note_on_c, 1, 79, 90
2, 69620, Note_off_c, 1, 79, 64
2, 69620, Note_on_c, 1, 53, 75
2, 69624, Note_on_c, 1, 58, 68
2, 69624, Note_on_c, 1, 77, 88
2, 69628, Note_on_c, 1, 62, 70
2, 69644, Note_off_c, 1, 58, 64
2, 69644, Note_off_c, 1, 62, 64
2, 69648, Note_off_c, 1, 53, 64
2, 69744, Note_off_c, 1, 77, 64
2, 69752, Note_on_c, 1, 74, 88
2, 69860, Note_off_c, 1, 74, 64
2, 69864, Note_on_c, 1, 46, 77
2, 69868, Note_on_c, 1, 58, 68
2, 69872, Note_on_c, 1, 77, 96
2, 69888, Note_off_c, 1, 46, 64
2, 69896, Note_off_c, 1, 58, 64
2, 69988, Note_off_c, 1, 77, 64
2, 69992, Note_on_c, 1, 79, 90
2, 70116, Note_on_c, 1, 62, 73
2, 70120, Note_on_c, 1, 53, 78
2, 70124, Note_on_c, 1, 58, 66
2, 70136, Note_off_c, 1, 62, 64
2, 70136, Note_off_c, 1, 53, 64
2, 70136, Note_off_c, 1, 58, 64
2, 70240, Note_off_c, 1, 79, 64
2, 70240, Note_on_c, 1, 77, 85
2, 70364, Note_on_c, 1, 41, 88
2, 70376, Note_off_c, 1, 77, 64
2, 70376, Note_on_c, 1, 74, 93
2, 70392, Note_off_c, 1, 41, 64
2, 70620, Note_off_c, 1, 74, 64
2, 70620, Note_on_c, 1, 70, 80
2, 70624, Note_on_c, 1, 62, 68
2, 70624, Note_on_c, 1, 53, 80
2, 70624, Note_on_c, 1, 58, 66
2, 70652, Control_c, 1, 64, 127
2, 70700, Note_off_c, 1, 70, 64
2, 70716, Note_off_c, 1, 58, 64
2, 70720, Note_off_c, 1, 62, 64
2, 70736, Note_off_c, 1, 53, 64
2, 70868, Control_c, 1, 64, 0
2, 70876, Note_on_c, 1, 70, 70
2, 70876, Note_on_c, 1, 58, 70
2, 70876, Note_on_c, 1, 55, 83
2, 70876, Note_on_c, 1, 62, 77
2, 70996, Note_on_c, 1, 74, 90
2, 71012, Note_off_c, 1, 70, 64
2, 71012, Control_c, 1, 64, 127
2, 71040, Note_off_c, 1, 58, 64
2, 71044, Note_off_c, 1, 55, 64
2, 71044, Note_off_c, 1, 62, 64
2, 71112, Control_c, 1, 64, 0
2, 71116, Note_on_c, 1, 55, 73
2, 71116, Note_on_c, 1, 58, 67
2, 71116, Note_on_c, 1, 62, 68
2, 71224, Note_off_c, 1, 55, 64
2, 71224, Note_off_c, 1, 58, 64
2, 71224, Note_off_c, 1, 62, 64
2, 71224, Control_c, 1, 64, 127
2, 71228, Note_on_c, 1, 70, 73
2, 71240, Note_off_c, 1, 74, 64
2, 71328, Note_off_c, 1, 70, 64
2, 71356, Note_on_c, 1, 57, 68
2, 71356, Note_on_c, 1, 69, 90
2, 71356, Note_on_c, 1, 54, 64
2, 71356, Note_on_c, 1, 66, 65
2, 71356, Note_on_c, 1, 50, 68
2, 71356, Control_c, 1, 64, 0
2, 71360, Note_on_c, 1, 62, 65
2, 71416, Control_c, 1, 64, 127
2, 71472, Note_off_c, 1, 54, 64
2, 71472, Note_off_c, 1, 50, 64
2, 71480, Note_off_c, 1, 57, 64
2, 71480, Note_off_c, 1, 62, 64
2, 71532, Note_off_c, 1, 66, 64
2, 71572, Note_off_c, 1, 69, 64
2, 71592, Control_c, 1, 64, 0
2, 71600, Note_on_c, 1, 74, 83
2, 71600, Note_on_c, 1, 66, 69
2, 71604, Note_on_c, 1, 57, 62
2, 71608, Note_on_c, 1, 62, 61
2, 71608, Note_on_c, 1, 54, 54
2, 71608, Note_on_c, 1, 50, 54
2, 71648, Control_c, 1, 64, 127
2, 71660, Note_off_c, 1, 54, 64
2, 71664, Note_off_c, 1, 57, 64
2, 71688, Note_off_c, 1, 66, 64
2, 71688, Note_off_c, 1, 62, 64
2, 71688, Note_off_c, 1, 50, 64
2, 71704, Note_off_c, 1, 74, 64
2, 71724, Note_on_c, 1, 67, 68
2, 71840, Control_c, 1, 64, 0
2, 71848, Note_on_c, 1, 58, 60
2, 71848, Note_on_c, 1, 55, 62
2, 71852, Note_on_c, 1, 62, 68
2, 71976, Note_off_c, 1, 58, 64
2, 72004, Note_off_c, 1, 55, 64
2, 72004, Note_off_c, 1, 62, 64
2, 72004, Control_c, 1, 64, 127
2, 72100, Note_on_c, 1, 58, 54
2, 72100, Note_on_c, 1, 62, 63
2, 72104, Note_on_c, 1, 55, 62
2, 72168, Note_off_c, 1, 58, 64
2, 72176, Note_off_c, 1, 55, 64
2, 72180, Note_off_c, 1, 62, 64
2, 72344, Control_c, 1, 64, 0
2, 72364, Note_on_c, 1, 55, 40
2, 72364, Note_on_c, 1, 58, 51
2, 72368, Note_on_c, 1, 62, 49
2, 72376, Note_off_c, 1, 67, 64
2, 72412, Note_off_c, 1, 55, 64
2, 72416, Note_off_c, 1, 58, 64
2, 72428, Note_off_c, 1, 62, 64
2, 72468, Note_on_c, 1, 70, 85
2, 72596, Note_on_c, 1, 58, 57
2, 72596, Note_on_c, 1, 55, 58
2, 72600, Note_on_c, 1, 62, 65
2, 72620, Note_off_c, 1, 58, 64
2, 72620, Note_off_c, 1, 62, 64
2, 72624, Note_off_c, 1, 55, 64
2, 72720, Note_on_c, 1, 67, 78
2, 72724, Note_off_c, 1, 70, 64
2, 72848, Note_on_c, 1, 39, 54
2, 72848, Note_on_c, 1, 51, 54
2, 72848, Note_on_c, 1, 70, 77
2, 72872, Control_c, 1, 64, 127
2, 72908, Note_off_c, 1, 39, 64
2, 72932, Note_off_c, 1, 51, 64
2, 72944, Note_off_c, 1, 67, 64
2, 72976, Note_on_c, 1, 72, 83
2, 72980, Note_off_c, 1, 70, 64
2, 73092, Note_off_c, 1, 72, 64
2, 73092, Note_on_c, 1, 70, 77
2, 73096, Note_on_c, 1, 41, 65
2, 73096, Note_on_c, 1, 53, 66
2, 73100, Control_c, 1, 64, 0
2, 73188, Control_c, 1, 64, 127
2, 73212, Note_off_c, 1, 70, 64
2, 73212, Note_on_c, 1, 67, 78
2, 73216, Note_off_c, 1, 53, 64
2, 73244, Note_off_c, 1, 41, 64
2, 73336, Note_on_c, 1, 43, 68
2, 73336, Note_on_c, 1, 70, 90
2, 73340, Control_c, 1, 64, 0
2, 73344, Note_on_c, 1, 55, 64
2, 73368, Note_off_c, 1, 67, 64
2, 73416, Control_c, 1, 64, 127
2, 73452, Note_off_c, 1, 43, 64
2, 73464, Note_on_c, 1, 72, 78
2, 73468, Note_off_c, 1, 55, 64
2, 73472, Note_off_c, 1, 70, 64
2, 73580, Note_off_c, 1, 72, 64
2, 73584, Note_on_c, 1, 70, 73
2, 73588, Note_on_c, 1, 57, 67
2, 73592, Note_on_c, 1, 45, 71
2, 73592, Control_c, 1, 64, 0
2, 73700, Note_off_c, 1, 70, 64
2, 73704, Note_on_c, 1, 67, 77
2, 73712, Note_off_c, 1, 57, 64
2, 73744, Note_off_c, 1, 45, 64
2, 73832, Note_on_c, 1, 70, 69
2, 73832, Note_on_c, 1, 46, 69
2, 73832, Note_on_c, 1, 58, 65
2, 73848, Note_off_c, 1, 67, 64
2, 73852, Control_c, 1, 64, 127
2, 73864, Note_off_c, 1, 46, 64
2, 73880, Note_off_c, 1, 58, 64
2, 73888, Note_off_c, 1, 70, 64
2, 73952, Note_on_c, 1, 74, 88
2, 73952, Note_on_c, 1, 65, 80
2, 73956, Control_c, 1, 64, 0
2, 74084, Note_on_c, 1, 62, 71
2, 74084, Note_on_c, 1, 53, 80
2, 74084, Note_on_c, 1, 58, 65
2, 74104, Note_off_c, 1, 58, 64
2, 74108, Note_off_c, 1, 62, 64
2, 74108, Note_off_c, 1, 53, 64
2, 74208, Note_on_c, 1, 70, 73
2, 74220, Note_off_c, 1, 74, 64
2, 74240, Note_off_c, 1, 65, 64
2, 74276, Note_off_c, 1, 70, 64
2, 74336, Note_on_c, 1, 55, 75
2, 74336, Note_on_c, 1, 43, 75
2, 74336, Note_on_c, 1, 74, 85
2, 74336, Note_on_c, 1, 67, 77
2, 74344, Control_c, 1, 64, 127
2, 74356, Note_off_c, 1, 43, 64
2, 74368, Note_off_c, 1, 55, 64
2, 74596, Note_off_c, 1, 67, 64
2, 74600, Note_on_c, 1, 62, 70
2, 74600, Note_on_c, 1, 58, 65
2, 74600, Note_on_c, 1, 55, 70
2, 74616, Note_off_c, 1, 74, 64
2, 74620, Note_off_c, 1, 62, 64
2, 74620, Note_off_c, 1, 58, 64
2, 74624, Note_off_c, 1, 55, 64
2, 74744, Control_c, 1, 64, 0
2, 74828, Note_on_c, 1, 48, 65
2, 74844, Note_on_c, 1, 72, 68
2, 74844, Control_c, 1, 64, 127
2, 74864, Note_off_c, 1, 48, 64
2, 74864, Note_off_c, 1, 72, 64
2, 74908, Control_c, 1, 64, 0
2, 74952, Note_on_c, 1, 82, 100
2, 74956, Note_on_c, 1, 72, 85
2, 75060, Control_c, 1, 64, 127
2, 75072, Note_on_c, 1, 58, 56
2, 75076, Note_on_c, 1, 64, 71
2, 75084, Note_off_c, 1, 82, 64
2, 75084, Note_on_c, 1, 60, 52
2, 75092, Note_off_c, 1, 60, 64
2, 75096, Note_off_c, 1, 58, 64
2, 75096, Note_off_c, 1, 64, 64
2, 75116, Note_off_c, 1, 72, 64
2, 75200, Note_on_c, 1, 81, 88
2, 75204, Note_on_c, 1, 72, 78
2, 75212, Control_c, 1, 64, 0
2, 75316, Note_on_c, 1, 48, 73
2, 75320, Control_c, 1, 64, 127
2, 75336, Note_off_c, 1, 48, 64
2, 75344, Note_off_c, 1, 81, 64
2, 75368, Note_off_c, 1, 72, 64
2, 75436, Note_on_c, 1, 76, 78
2, 75472, Note_off_c, 1, 76, 64
2, 75556, Note_on_c, 1, 58, 59
2, 75560, Note_on_c, 1, 79, 93
2, 75560, Note_on_c, 1, 64, 69
2, 75560, Note_on_c, 1, 72, 90
2, 75564, Note_on_c, 1, 60, 67
2, 75576, Note_off_c, 1, 64, 64
2, 75576, Note_off_c, 1, 60, 64
2, 75584, Note_off_c, 1, 58, 64
2, 75588, Control_c, 1, 64, 0
2, 75592, Note_off_c, 1, 79, 64
2, 75592, Note_off_c, 1, 72, 64
2, 75604, Control_c, 1, 64, 127
2, 75664, Control_c, 1, 64, 0
2, 75808, Note_on_c, 1, 41, 75
2, 75808, Note_on_c, 1, 84, 90
2, 75808, Note_on_c, 1, 53, 70
2, 75812, Note_on_c, 1, 75, 83
2, 75812, Control_c, 1, 64, 127
2, 75872, Note_off_c, 1, 53, 64
2, 75892, Note_off_c, 1, 41, 64
2, 75920, Note_off_c, 1, 75, 64
2, 75932, Note_off_c, 1, 84, 64
2, 75932, Note_on_c, 1, 77, 88
2, 76004, Note_off_c, 1, 77, 64
2, 76052, Control_c, 1, 64, 0
2, 76060, Note_on_c, 1, 75, 71
2, 76060, Note_on_c, 1, 81, 90
2, 76060, Note_on_c, 1, 54, 71
2, 76060, Note_on_c, 1, 42, 54
2, 76180, Note_off_c, 1, 75, 64
2, 76180, Note_on_c, 1, 77, 90
2, 76180, Control_c, 1, 64, 127
2, 76184, Note_off_c, 1, 42, 64
2, 76192, Note_off_c, 1, 54, 64
2, 76220, Note_off_c, 1, 81, 64
2, 76300, Control_c, 1, 64, 0
2, 76304, Note_on_c, 1, 79, 77
2, 76312, Note_off_c, 1, 77, 64
2, 76312, Note_on_c, 1, 43, 77
2, 76316, Note_on_c, 1, 55, 69
2, 76328, Note_off_c, 1, 79, 64
2, 76424, Note_off_c, 1, 55, 64
2, 76432, Note_on_c, 1, 75, 88
2, 76432, Note_on_c, 1, 81, 93
2, 76448, Note_off_c, 1, 43, 64
2, 76556, Note_on_c, 1, 45, 77
2, 76560, Note_on_c, 1, 57, 78
2, 76660, Note_off_c, 1, 57, 64
2, 76668, Note_off_c, 1, 75, 64
2, 76668, Note_off_c, 1, 45, 64
2, 76680, Note_on_c, 1, 77, 90
2, 76688, Note_off_c, 1, 81, 64
2, 76792, Note_off_c, 1, 77, 64
2, 76800, Note_on_c, 1, 46, 77
2, 76800, Note_on_c, 1, 82, 64
2, 76800, Note_on_c, 1, 58, 70
2, 76804, Note_on_c, 1, 74, 78
2, 76820, Note_off_c, 1, 46, 64
2, 76824, Note_off_c, 1, 82, 64
2, 76828, Note_off_c, 1, 58, 64
2, 76828, Note_off_c, 1, 74, 64
2, 76936, Note_on_c, 1, 82, 108
2, 76936, Note_on_c, 1, 74, 90
2, 77036, Control_c, 1, 64, 127
2, 77056, Note_off_c, 1, 82, 64
2, 77056, Note_on_c, 1, 62, 71
2, 77056, Note_on_c, 1, 53, 80
2, 77060, Note_on_c, 1, 58, 65
2, 77068, Note_off_c, 1, 58, 64
2, 77072, Note_off_c, 1, 62, 64
2, 77076, Note_off_c, 1, 53, 64
2, 77164, Control_c, 1, 64, 0
2, 77172, Note_on_c, 1, 77, 93
2, 77292, Note_off_c, 1, 77, 64
2, 77296, Note_on_c, 1, 41, 85
2, 77304, Note_on_c, 1, 81, 100
2, 77316, Control_c, 1, 64, 127
2, 77324, Note_off_c, 1, 41, 64
2, 77408, Note_off_c, 1, 81, 64
2, 77420, Note_on_c, 1, 79, 90
2, 77536, Note_off_c, 1, 79, 64
2, 77544, Note_on_c, 1, 77, 85
2, 77544, Note_on_c, 1, 53, 78
2, 77544, Note_on_c, 1, 62, 73
2, 77544, Note_on_c, 1, 58, 66
2, 77552, Control_c, 1, 64, 0
2, 77556, Note_off_c, 1, 74, 64
2, 77572, Note_off_c, 1, 53, 64
2, 77576, Note_off_c, 1, 62, 64
2, 77576, Note_off_c, 1, 58, 64
2, 77580, Control_c, 1, 64, 127
2, 77668, Note_on_c, 1, 74, 88
2, 77672, Note_off_c, 1, 77, 64
2, 77672, Control_c, 1, 64, 0
2, 77800, Note_off_c, 1, 74, 64
2, 77800, Note_on_c, 1, 46, 78
2, 77804, Note_on_c, 1, 77, 93
2, 77812, Control_c, 1, 64, 127
2, 77856, Note_off_c, 1, 46, 64
2, 77920, Note_off_c, 1, 77, 64
2, 77924, Note_on_c, 1, 79, 88
2, 78048, Note_on_c, 1, 53, 80
2, 78052, Note_on_c, 1, 58, 64
2, 78052, Note_on_c, 1, 62, 66
2, 78064, Note_off_c, 1, 62, 64
2, 78072, Note_off_c, 1, 53, 64
2, 78072, Note_off_c, 1, 58, 64
2, 78172, Note_off_c, 1, 79, 64
2, 78176, Note_on_c, 1, 77, 85
2, 78184, Control_c, 1, 64, 0
2, 78300, Note_on_c, 1, 41, 78
2, 78308, Note_on_c, 1, 74, 85
2, 78316, Note_off_c, 1, 77, 64
2, 78324, Note_off_c, 1, 41, 64
2, 78324, Control_c, 1, 64, 127
2, 78548, Note_off_c, 1, 74, 64
2, 78552, Note_on_c, 1, 70, 78
2, 78556, Note_on_c, 1, 53, 69
2, 78560, Note_on_c, 1, 62, 62
2, 78564, Note_on_c, 1, 58, 50
2, 78584, Note_off_c, 1, 70, 64
2, 78656, Note_off_c, 1, 53, 64
2, 78656, Note_off_c, 1, 58, 64
2, 78660, Note_off_c, 1, 62, 64
2, 78780, Control_c, 1, 64, 0
2, 78796, Note_on_c, 1, 70, 68
2, 78800, Note_on_c, 1, 62, 65
2, 78800, Note_on_c, 1, 55, 67
2, 78800, Note_on_c, 1, 58, 59
2, 78844, Control_c, 1, 64, 127
2, 78896, Note_off_c, 1, 70, 64
2, 78896, Control_c, 1, 64, 0
2, 78904, Note_off_c, 1, 62, 64
2, 78908, Note_off_c, 1, 58, 64
2, 78916, Note_on_c, 1, 74, 83
2, 78928, Note_off_c, 1, 55, 64
2, 78928, Control_c, 1, 64, 127
2, 79040, Control_c, 1, 64, 0
2, 79044, Note_on_c, 1, 55, 68
2, 79048, Note_on_c, 1, 62, 61
2, 79056, Note_on_c, 1, 58, 54
2, 79088, Note_off_c, 1, 58, 64
2, 79096, Note_off_c, 1, 55, 64
2, 79112, Note_off_c, 1, 62, 64
2, 79140, Control_c, 1, 64, 127
2, 79164, Note_on_c, 1, 70, 71
2, 79176, Note_off_c, 1, 74, 64
2, 79216, Note_off_c, 1, 70, 64
2, 79296, Note_on_c, 1, 66, 64
2, 79296, Note_on_c, 1, 69, 78
2, 79296, Note_on_c, 1, 54, 53
2, 79296, Control_c, 1, 64, 0
2, 79300, Note_on_c, 1, 57, 49
2, 79304, Note_on_c, 1, 50, 41
2, 79320, Note_on_c, 1, 62, 34
2, 79352, Control_c, 1, 64, 127
2, 79372, Note_off_c, 1, 66, 64
2, 79412, Note_off_c, 1, 54, 64
2, 79416, Note_off_c, 1, 69, 64
2, 79416, Note_off_c, 1, 57, 64
2, 79416, Note_off_c, 1, 50, 64
2, 79416, Note_off_c, 1, 62, 64
2, 79528, Note_on_c, 1, 74, 78
2, 79528, Control_c, 1, 64, 0
2, 79532, Note_on_c, 1, 66, 61
2, 79540, Note_on_c, 1, 57, 60
2, 79540, Note_on_c, 1, 54, 53
2, 79544, Note_on_c, 1, 62, 51
2, 79544, Note_on_c, 1, 50, 40
2, 79572, Note_off_c, 1, 74, 64
2, 79572, Note_off_c, 1, 66, 64
2, 79572, Control_c, 1, 64, 127
2, 79604, Note_off_c, 1, 54, 64
2, 79612, Note_off_c, 1, 57, 64
2, 79628, Note_off_c, 1, 50, 64
2, 79636, Note_off_c, 1, 62, 64
2, 79656, Note_on_c, 1, 67, 66
2, 79732, Control_c, 1, 64, 0
2, 79784, Note_on_c, 1, 55, 53
2, 79784, Note_on_c, 1, 58, 54
2, 79784, Note_on_c, 1, 62, 59
2, 79800, Control_c, 1, 64, 127
2, 79872, Note_off_c, 1, 58, 64
2, 79876, Note_off_c, 1, 55, 64
2, 79876, Note_off_c, 1, 62, 64
2, 80024, Note_on_c, 1, 58, 56
2, 80024, Note_on_c, 1, 55, 62
2, 80024, Note_on_c, 1, 62, 62
2, 80108, Note_off_c, 1, 62, 64
2, 80112, Note_off_c, 1, 58, 64
2, 80124, Note_off_c, 1, 55, 64
2, 80276, Note_on_c, 1, 55, 63
2, 80276, Note_on_c, 1, 58, 58
2, 80276, Note_on_c, 1, 62, 63
2, 80304, Note_off_c, 1, 67, 64
2, 80328, Note_off_c, 1, 58, 64
2, 80336, Note_off_c, 1, 55, 64
2, 80336, Note_off_c, 1, 62, 64
2, 80400, Note_on_c, 1, 70, 78
2, 80524, Note_on_c, 1, 58, 66
2, 80528, Note_on_c, 1, 55, 69
2, 80528, Note_on_c, 1, 62, 69
2, 80544, Note_off_c, 1, 58, 64
2, 80544, Note_off_c, 1, 55, 64
2, 80544, Note_off_c, 1, 62, 64
2, 80640, Note_off_c, 1, 70, 64
2, 80648, Note_on_c, 1, 67, 80
2, 80740, Control_c, 1, 64, 0
2, 80780, Note_on_c, 1, 70, 73
2, 80780, Note_on_c, 1, 51, 64
2, 80780, Note_on_c, 1, 39, 60
2, 80800, Note_off_c, 1, 67, 64
2, 80800, Control_c, 1, 64, 127
2, 80860, Note_off_c, 1, 39, 64
2, 80864, Note_off_c, 1, 51, 64
2, 80900, Note_off_c, 1, 70, 64
2, 80900, Note_on_c, 1, 72, 73
2, 81008, Note_off_c, 1, 72, 64
2, 81016, Note_on_c, 1, 70, 78
2, 81020, Note_on_c, 1, 53, 73
2, 81020, Note_on_c, 1, 41, 71
2, 81020, Control_c, 1, 64, 0
2, 81104, Control_c, 1, 64, 127
2, 81136, Note_off_c, 1, 70, 64
2, 81144, Note_on_c, 1, 67, 85
2, 81148, Note_off_c, 1, 53, 64
2, 81176, Note_off_c, 1, 41, 64
2, 81256, Note_off_c, 1, 67, 64
2, 81256, Note_on_c, 1, 43, 77
2, 81260, Note_on_c, 1, 70, 90
2, 81264, Note_on_c, 1, 55, 75
2, 81264, Control_c, 1, 64, 0
2, 81360, Control_c, 1, 64, 127
2, 81376, Note_off_c, 1, 70, 64
2, 81384, Note_on_c, 1, 72, 77
2, 81412, Note_off_c, 1, 43, 64
2, 81416, Note_off_c, 1, 55, 64
2, 81496, Note_off_c, 1, 72, 64
2, 81500, Note_on_c, 1, 70, 78
2, 81500, Note_on_c, 1, 57, 78
2, 81504, Note_on_c, 1, 45, 83
2, 81512, Control_c, 1, 64, 0
2, 81624, Note_off_c, 1, 70, 64
2, 81632, Note_off_c, 1, 57, 64
2, 81636, Note_on_c, 1, 67, 83
2, 81640, Control_c, 1, 64, 127
2, 81656, Note_off_c, 1, 45, 64
2, 81736, Control_c, 1, 64, 0
2, 81748, Note_on_c, 1, 70, 68
2, 81752, Note_on_c, 1, 58, 75
2, 81752, Note_on_c, 1, 46, 85
2, 81764, Note_off_c, 1, 67, 64
2, 81784, Control_c, 1, 64, 127
2, 81808, Note_off_c, 1, 70, 64
2, 81828, Note_off_c, 1, 46, 64
2, 81840, Note_off_c, 1, 58, 64
2, 81884, Note_on_c, 1, 74, 90
2, 81884, Note_on_c, 1, 65, 83
2, 81984, Control_c, 1, 64, 0
2, 82004, Note_on_c, 1, 62, 73
2, 82008, Note_on_c, 1, 53, 85
2, 82008, Note_on_c, 1, 58, 70
2, 82024, Note_off_c, 1, 62, 64
2, 82028, Note_off_c, 1, 58, 64
2, 82032, Note_off_c, 1, 53, 64
2, 82040, Control_c, 1, 64, 127
2, 82132, Note_off_c, 1, 74, 64
2, 82132, Note_on_c, 1, 70, 71
2, 82156, Note_off_c, 1, 65, 64
2, 82168, Note_off_c, 1, 70, 64
2, 82244, Control_c, 1, 64, 0
2, 82256, Note_on_c, 1, 43, 85
2, 82256, Note_on_c, 1, 74, 85
2, 82260, Note_on_c, 1, 65, 73
2, 82292, Control_c, 1, 64, 127
2, 82332, Note_off_c, 1, 43, 64
2, 82496, Note_off_c, 1, 74, 64
2, 82504, Note_off_c, 1, 65, 64
2, 82504, Note_on_c, 1, 59, 71
2, 82504, Note_on_c, 1, 53, 73
2, 82504, Note_on_c, 1, 55, 73
2, 82560, Note_off_c, 1, 53, 64
2, 82564, Note_off_c, 1, 59, 64
2, 82568, Note_off_c, 1, 55, 64
2, 82732, Control_c, 1, 64, 0
2, 82752, Note_on_c, 1, 48, 64
2, 82760, Note_on_c, 1, 67, 78
2, 82764, Note_on_c, 1, 64, 75
2, 82792, Control_c, 1, 64, 127
2, 82824, Note_off_c, 1, 64, 64
2, 82848, Note_off_c, 1, 67, 64
2, 82884, Note_on_c, 1, 74, 80
2, 82884, Note_on_c, 1, 64, 77
2, 82972, Control_c, 1, 64, 0
2, 83008, Note_off_c, 1, 64, 64
2, 83008, Note_on_c, 1, 58, 66
2, 83008, Note_on_c, 1, 55, 67
2, 83020, Note_off_c, 1, 74, 64
2, 83024, Note_off_c, 1, 48, 64
2, 83032, Note_off_c, 1, 55, 64
2, 83044, Note_off_c, 1, 58, 64
2, 83248, Note_on_c, 1, 53, 71
2, 83256, Note_on_c, 1, 69, 70
2, 83256, Note_on_c, 1, 65, 69
2, 83272, Control_c, 1, 64, 127
2, 83308, Note_off_c, 1, 65, 64
2, 83324, Note_off_c, 1, 69, 64
2, 83376, Note_on_c, 1, 65, 66
2, 83380, Note_on_c, 1, 72, 68
2, 83472, Control_c, 1, 64, 0
2, 83496, Note_on_c, 1, 63, 49
2, 83496, Note_on_c, 1, 57, 62
2, 83512, Note_off_c, 1, 72, 64
2, 83516, Note_off_c, 1, 65, 64
2, 83536, Control_c, 1, 64, 127
2, 83584, Note_off_c, 1, 63, 64
2, 83588, Note_off_c, 1, 57, 64
2, 83588, Control_c, 1, 64, 0
2, 83596, Note_off_c, 1, 53, 64
2, 83616, Note_on_c, 1, 70, 63
2, 83616, Note_on_c, 1, 65, 62
2, 83668, Control_c, 1, 64, 127
2, 83732, Control_c, 1, 64, 0
2, 83736, Note_on_c, 1, 58, 52
2, 83736, Note_on_c, 1, 62, 55
2, 83740, Note_off_c, 1, 70, 64
2, 83764, Note_off_c, 1, 65, 64
2, 83800, Note_off_c, 1, 58, 64
2, 83800, Note_off_c, 1, 62, 64
2, 83856, Note_on_c, 1, 65, 66
2, 83976, Note_on_c, 1, 67, 60
2, 83976, Note_on_c, 1, 53, 65
2, 83984, Note_on_c, 1, 63, 54
2, 83988, Note_on_c, 1, 60, 60
2, 84060, Note_off_c, 1, 63, 64
2, 84064, Note_off_c, 1, 60, 64
2, 84068, Note_off_c, 1, 53, 64
2, 84104, Note_on_c, 1, 69, 63
2, 84116, Note_off_c, 1, 67, 64
2, 84252, Note_on_c, 1, 58, 44
2, 84252, Note_on_c, 1, 62, 55
2, 84252, Note_on_c, 1, 70, 60
2, 84256, Note_off_c, 1, 69, 64
2, 84300, Note_off_c, 1, 65, 64
2, 84300, Note_off_c, 1, 70, 64
2, 84304, Note_off_c, 1, 58, 64
2, 84304, Note_off_c, 1, 62, 64
2, 84520, Note_on_c, 1, 46, 65
2, 84532, Note_on_c, 1, 82, 69
2, 84536, Note_on_c, 1, 58, 53
2, 84544, Control_c, 1, 64, 127
2, 84560, Note_off_c, 1, 46, 64
2, 84584, Note_off_c, 1, 58, 64
2, 84600, Note_off_c, 1, 82, 64
2, 84636, Control_c, 1, 64, 0
2, 84660, Note_on_c, 1, 81, 80
2, 84664, Note_on_c, 1, 48, 61
2, 84668, Note_on_c, 1, 60, 60
2, 84680, Control_c, 1, 64, 127
2, 84692, Note_off_c, 1, 48, 64
2, 84716, Note_off_c, 1, 60, 64
2, 84744, Note_off_c, 1, 81, 64
2, 84756, Control_c, 1, 64, 0
2, 84808, Note_on_c, 1, 80, 67
2, 84808, Note_on_c, 1, 50, 62
2, 84808, Note_on_c, 1, 62, 60
2, 84828, Note_off_c, 1, 50, 64
2, 84828, Control_c, 1, 64, 127
2, 84868, Note_off_c, 1, 62, 64
2, 84904, Note_off_c, 1, 80, 64
2, 84984, Control_c, 1, 64, 0
2, 85044, Note_on_c, 1, 77, 73
2, 85048, Note_on_c, 1, 62, 51
2, 85048, Note_on_c, 1, 56, 41
2, 85056, Control_c, 1, 64, 0
2, 85068, Note_off_c, 1, 62, 64
2, 85068, Note_off_c, 1, 56, 64
2, 85076, Note_off_c, 1, 77, 64
2, 85168, Note_on_c, 1, 77, 77
2, 85296, Note_on_c, 1, 46, 61
2, 85312, Note_off_c, 1, 46, 64
2, 85424, Note_on_c, 1, 72, 69
2, 85452, Note_off_c, 1, 77, 64
2, 85552, Note_off_c, 1, 72, 64
2, 85552, Note_on_c, 1, 62, 61
2, 85552, Note_on_c, 1, 74, 75
2, 85552, Note_on_c, 1, 56, 37
2, 85592, Note_off_c, 1, 62, 64
2, 85592, Note_off_c, 1, 56, 64
2, 85672, Note_on_c, 1, 75, 66
2, 85676, Note_off_c, 1, 74, 64
2, 85700, Note_off_c, 1, 75, 64
2, 85804, Note_on_c, 1, 79, 73
2, 85804, Note_on_c, 1, 53, 70
2, 85808, Note_on_c, 1, 74, 75
2, 85808, Note_on_c, 1, 68, 58
2, 85832, Note_off_c, 1, 53, 64
2, 85888, Control_c, 1, 64, 127
2, 85928, Note_off_c, 1, 79, 64
2, 85932, Note_off_c, 1, 68, 64
2, 85940, Note_off_c, 1, 74, 64
2, 86052, Control_c, 1, 64, 0
2, 86056, Note_on_c, 1, 68, 59
2, 86056, Note_on_c, 1, 56, 51
2, 86056, Note_on_c, 1, 62, 53
2, 86056, Note_on_c, 1, 74, 75
2, 86056, Note_on_c, 1, 77, 70
2, 86076, Note_off_c, 1, 56, 64
2, 86080, Note_off_c, 1, 68, 64
2, 86080, Note_off_c, 1, 62, 64
2, 86080, Note_off_c, 1, 74, 64
2, 86080, Note_off_c, 1, 77, 64
2, 86188, Note_on_c, 1, 74, 66
2, 86188, Note_on_c, 1, 77, 69
2, 86188, Note_on_c, 1, 68, 53
2, 86296, Note_off_c, 1, 74, 64
2, 86296, Control_c, 1, 64, 127
2, 86300, Note_off_c, 1, 77, 64
2, 86300, Note_off_c, 1, 68, 64
2, 86308, Note_on_c, 1, 46, 61
2, 86320, Note_off_c, 1, 46, 64
2, 86412, Control_c, 1, 64, 0
2, 86428, Note_on_c, 1, 70, 64
2, 86544, Note_off_c, 1, 70, 64
2, 86556, Note_on_c, 1, 62, 61
2, 86560, Note_on_c, 1, 72, 77
2, 86560, Note_on_c, 1, 56, 46
2, 86600, Note_off_c, 1, 56, 64
2, 86604, Note_off_c, 1, 62, 64
2, 86676, Note_off_c, 1, 72, 64
2, 86684, Note_on_c, 1, 74, 71
2, 86768, Note_off_c, 1, 74, 64
2, 86804, Note_on_c, 1, 77, 64
2, 86808, Note_on_c, 1, 67, 66
2, 86816, Note_on_c, 1, 51, 35
2, 86848, Note_off_c, 1, 51, 64
2, 87000, Note_off_c, 1, 67, 64
2, 87004, Note_off_c, 1, 77, 64
2, 87048, Note_on_c, 1, 55, 60
2, 87048, Note_on_c, 1, 63, 56
2, 87060, Note_on_c, 1, 75, 66
2, 87064, Note_on_c, 1, 67, 67
2, 87076, Note_off_c, 1, 55, 64
2, 87076, Note_off_c, 1, 63, 64
2, 87088, Note_off_c, 1, 75, 64
2, 87092, Note_off_c, 1, 67, 64
2, 87180, Note_on_c, 1, 75, 54
2, 87180, Note_on_c, 1, 67, 68
2, 87300, Note_on_c, 1, 46, 66
2, 87320, Note_off_c, 1, 75, 64
2, 87320, Control_c, 1, 64, 127
2, 87328, Note_off_c, 1, 46, 64
2, 87340, Note_off_c, 1, 67, 64
2, 87356, Control_c, 1, 64, 0
2, 87424, Note_on_c, 1, 67, 68
2, 87556, Note_on_c, 1, 68, 71
2, 87556, Note_on_c, 1, 63, 54
2, 87560, Note_on_c, 1, 55, 68
2, 87580, Note_off_c, 1, 67, 64
2, 87588, Note_off_c, 1, 63, 64
2, 87600, Note_off_c, 1, 55, 64
2, 87664, Note_off_c, 1, 68, 64
2, 87680, Note_on_c, 1, 70, 67
2, 87732, Note_off_c, 1, 70, 64
2, 87816, Note_on_c, 1, 51, 68
2, 87824, Note_on_c, 1, 72, 66
2, 87832, Note_on_c, 1, 67, 71
2, 87852, Note_off_c, 1, 51, 64
2, 88012, Note_off_c, 1, 67, 64
2, 88020, Note_off_c, 1, 72, 64
2, 88064, Note_on_c, 1, 63, 61
2, 88072, Note_on_c, 1, 55, 52
2, 88076, Note_on_c, 1, 70, 62
2, 88080, Note_on_c, 1, 67, 67
2, 88088, Note_off_c, 1, 63, 64
2, 88092, Note_off_c, 1, 55, 64
2, 88104, Note_off_c, 1, 70, 64
2, 88112, Note_off_c, 1, 67, 64
2, 88196, Note_on_c, 1, 70, 56
2, 88200, Note_on_c, 1, 67, 66
2, 88296, Control_c, 1, 64, 127
2, 88312, Note_off_c, 1, 70, 64
2, 88312, Note_on_c, 1, 46, 60
2, 88324, Note_off_c, 1, 67, 64
2, 88336, Note_off_c, 1, 46, 64
2, 88428, Control_c, 1, 64, 0
2, 88440, Note_on_c, 1, 67, 78
2, 88548, Note_on_c, 1, 55, 63
2, 88552, Note_on_c, 1, 63, 56
2, 88564, Note_off_c, 1, 67, 0
2, 88576, Note_off_c, 1, 55, 64
2, 88576, Note_off_c, 1, 63, 64
2, 88580, Note_on_c, 1, 65, 73
2, 88588, Control_c, 1, 64, 127
2, 88668, Control_c, 1, 64, 0
2, 88696, Note_off_c, 1, 65, 64
2, 88696, Note_on_c, 1, 63, 71
2, 88800, Note_off_c, 1, 63, 64
2, 88816, Note_on_c, 1, 53, 69
2, 88840, Note_off_c, 1, 53, 64
2, 88944, Note_on_c, 1, 62, 69
2, 89032, Note_off_c, 1, 62, 64
2, 89064, Note_on_c, 1, 65, 75
2, 89064, Note_on_c, 1, 56, 60
2, 89068, Note_on_c, 1, 62, 44
2, 89068, Note_on_c, 1, 58, 61
2, 89088, Note_off_c, 1, 56, 64
2, 89088, Note_off_c, 1, 62, 64
2, 89088, Note_off_c, 1, 58, 64
2, 89180, Note_off_c, 1, 65, 64
2, 89192, Note_on_c, 1, 68, 78
2, 89312, Note_on_c, 1, 46, 66
2, 89320, Note_off_c, 1, 68, 64
2, 89328, Note_on_c, 1, 74, 67
2, 89340, Note_off_c, 1, 46, 64
2, 89424, Note_off_c, 1, 74, 64
2, 89444, Note_on_c, 1, 72, 73
2, 89448, Note_on_c, 1, 68, 66
2, 89580, Note_on_c, 1, 62, 64
2, 89580, Note_on_c, 1, 56, 57
2, 89580, Note_on_c, 1, 58, 60
2, 89604, Note_off_c, 1, 58, 64
2, 89608, Note_off_c, 1, 56, 64
2, 89612, Note_off_c, 1, 62, 64
2, 89700, Note_off_c, 1, 72, 64
2, 89708, Note_off_c, 1, 68, 64
2, 89716, Note_on_c, 1, 74, 73
2, 89832, Note_off_c, 1, 74, 64
2, 89836, Note_on_c, 1, 53, 67
2, 89836, Note_on_c, 1, 68, 69
2, 89840, Note_on_c, 1, 72, 69
2, 89856, Note_off_c, 1, 53, 64
2, 89864, Note_off_c, 1, 68, 64
2, 89864, Note_off_c, 1, 72, 64
2, 90080, Note_on_c, 1, 72, 68
2, 90084, Note_on_c, 1, 56, 54
2, 90084, Note_on_c, 1, 68, 50
2, 90084, Note_on_c, 1, 62, 62
2, 90092, Note_on_c, 1, 58, 53
2, 90100, Note_off_c, 1, 58, 64
2, 90104, Note_off_c, 1, 62, 64
2, 90112, Note_off_c, 1, 72, 64
2, 90112, Note_off_c, 1, 56, 64
2, 90112, Note_off_c, 1, 68, 64
2, 90224, Note_on_c, 1, 68, 71
2, 90232, Note_on_c, 1, 72, 71
2, 90344, Note_on_c, 1, 46, 67
2, 90360, Note_off_c, 1, 46, 64
2, 90364, Control_c, 1, 64, 127
2, 90452, Note_off_c, 1, 68, 64
2, 90468, Note_on_c, 1, 70, 73
2, 90480, Note_off_c, 1, 72, 64
2, 90580, Control_c, 1, 64, 0
2, 90588, Note_on_c, 1, 68, 75
2, 90604, Note_on_c, 1, 56, 44
2, 90604, Note_on_c, 1, 62, 42
2, 90608, Note_off_c, 1, 70, 64
2, 90608, Note_on_c, 1, 58, 56
2, 90620, Note_off_c, 1, 58, 64
2, 90628, Note_off_c, 1, 56, 64
2, 90636, Note_off_c, 1, 62, 64
2, 90720, Note_on_c, 1, 65, 68
2, 90840, Note_on_c, 1, 51, 69
2, 90848, Note_off_c, 1, 65, 64
2, 90860, Note_off_c, 1, 68, 64
2, 90868, Note_off_c, 1, 51, 64
2, 90976, Note_on_c, 1, 63, 66
2, 91064, Note_off_c, 1, 63, 64
2, 91068, Control_c, 1, 64, 127
2, 91080, Control_c, 1, 64, 0
2, 91104, Note_on_c, 1, 67, 71
2, 91108, Note_on_c, 1, 55, 75
2, 91112, Note_on_c, 1, 63, 55
2, 91144, Note_off_c, 1, 55, 64
2, 91144, Note_off_c, 1, 63, 64
2, 91216, Note_off_c, 1, 67, 64
2, 91224, Note_on_c, 1, 70, 70
2, 91352, Note_on_c, 1, 46, 67
2, 91368, Note_off_c, 1, 70, 0
2, 91368, Note_on_c, 1, 75, 64
2, 91372, Note_off_c, 1, 46, 64
2, 91460, Note_off_c, 1, 75, 64
2, 91472, Note_on_c, 1, 72, 68
2, 91476, Note_on_c, 1, 67, 68
2, 91612, Note_on_c, 1, 63, 56
2, 91644, Note_off_c, 1, 63, 64
2, 91736, Note_off_c, 1, 72, 64
2, 91736, Note_on_c, 1, 75, 69
2, 91764, Note_off_c, 1, 67, 64
2, 91864, Note_off_c, 1, 75, 64
2, 91868, Note_on_c, 1, 51, 39
2, 91868, Note_on_c, 1, 72, 71
2, 91872, Note_on_c, 1, 67, 68
2, 91968, Control_c, 1, 64, 127
2, 92032, Note_off_c, 1, 67, 64
2, 92052, Note_off_c, 1, 72, 64
2, 92100, Control_c, 1, 64, 0
2, 92112, Note_on_c, 1, 63, 53
2, 92112, Note_on_c, 1, 55, 63
2, 92116, Note_on_c, 1, 58, 59
2, 92116, Note_on_c, 1, 70, 65
2, 92116, Note_on_c, 1, 67, 67
2, 92144, Note_off_c, 1, 58, 64
2, 92156, Note_off_c, 1, 70, 64
2, 92160, Note_off_c, 1, 67, 64
2, 92176, Note_off_c, 1, 63, 64
2, 92184, Note_off_c, 1, 55, 64
2, 92232, Note_on_c, 1, 70, 65
2, 92236, Note_on_c, 1, 67, 66
2, 92264, Control_c, 1, 64, 127
2, 92360, Note_off_c, 1, 70, 64
2, 92364, Note_off_c, 1, 67, 64
2, 92372, Note_on_c, 1, 63, 57
2, 92376, Note_on_c, 1, 55, 68
2, 92376, Note_on_c, 1, 58, 59
2, 92396, Note_off_c, 1, 58, 64
2, 92404, Note_off_c, 1, 63, 64
2, 92404, Note_off_c, 1, 55, 64
2, 92440, Note_off_c, 1, 51, 64
2, 92496, Control_c, 1, 64, 0
2, 92612, Note_on_c, 1, 46, 66
2, 92620, Note_on_c, 1, 58, 56
2, 92620, Note_on_c, 1, 82, 83
2, 92620, Control_c, 1, 64, 127
2, 92648, Note_off_c, 1, 46, 64
2, 92656, Note_off_c, 1, 58, 64
2, 92692, Note_off_c, 1, 82, 0
2, 92728, Control_c, 1, 64, 0
2, 92740, Note_on_c, 1, 48, 69
2, 92740, Note_on_c, 1, 81, 85
2, 92748, Note_on_c, 1, 60, 67
2, 92776, Note_off_c, 1, 48, 64
2, 92780, Note_off_c, 1, 60, 64
2, 92816, Note_off_c, 1, 81, 64
2, 92872, Note_on_c, 1, 50, 67
2, 92872, Note_on_c, 1, 80, 69
2, 92872, Note_on_c, 1, 62, 66
2, 92920, Control_c, 1, 64, 127
2, 92936, Note_off_c, 1, 50, 64
2, 92948, Note_off_c, 1, 62, 64
2, 93020, Note_off_c, 1, 80, 64
2, 93128, Note_on_c, 1, 77, 78
2, 93128, Note_on_c, 1, 56, 53
2, 93128, Note_on_c, 1, 62, 59
2, 93136, Note_on_c, 1, 58, 39
2, 93136, Control_c, 1, 64, 0
2, 93148, Note_off_c, 1, 77, 64
2, 93148, Note_off_c, 1, 56, 64
2, 93148, Note_off_c, 1, 62, 64
2, 93148, Note_off_c, 1, 58, 64
2, 93248, Note_on_c, 1, 77, 75
2, 93376, Note_on_c, 1, 46, 66
2, 93404, Note_off_c, 1, 46, 64
2, 93504, Note_on_c, 1, 72, 67
2, 93560, Note_off_c, 1, 77, 64
2, 93632, Note_off_c, 1, 72, 64
2, 93640, Note_on_c, 1, 74, 78
2, 93640, Note_on_c, 1, 56, 44
2, 93640, Note_on_c, 1, 62, 61
2, 93664, Note_off_c, 1, 56, 64
2, 93680, Note_off_c, 1, 62, 64
2, 93756, Note_off_c, 1, 74, 64
2, 93756, Note_on_c, 1, 75, 66
2, 93784, Note_off_c, 1, 75, 64
2, 93892, Note_on_c, 1, 53, 54
2, 93908, Note_on_c, 1, 79, 62
2, 93908, Note_on_c, 1, 68, 61
2, 93912, Note_on_c, 1, 74, 70
2, 93924, Control_c, 1, 64, 127
2, 93932, Note_off_c, 1, 53, 64
2, 93976, Note_off_c, 1, 79, 64
2, 93984, Note_off_c, 1, 68, 64
2, 94004, Note_off_c, 1, 74, 64
2, 94140, Note_on_c, 1, 62, 62
2, 94140, Note_on_c, 1, 74, 68
2, 94140, Note_on_c, 1, 56, 38
2, 94140, Note_on_c, 1, 68, 55
2, 94140, Note_on_c, 1, 77, 71
2, 94156, Note_off_c, 1, 62, 64
2, 94156, Note_off_c, 1, 56, 64
2, 94156, Control_c, 1, 64, 0
2, 94168, Note_off_c, 1, 74, 64
2, 94168, Note_off_c, 1, 68, 64
2, 94168, Note_off_c, 1, 77, 64
2, 94272, Note_on_c, 1, 74, 71
2, 94276, Note_on_c, 1, 68, 60
2, 94276, Note_on_c, 1, 77, 78
2, 94384, Control_c, 1, 64, 127
2, 94388, Note_on_c, 1, 46, 63
2, 94400, Note_off_c, 1, 68, 64
2, 94408, Note_off_c, 1, 74, 64
2, 94408, Note_off_c, 1, 46, 64
2, 94420, Note_off_c, 1, 77, 64
2, 94524, Note_on_c, 1, 70, 67
2, 94556, Control_c, 1, 64, 0
2, 94640, Note_off_c, 1, 70, 64
2, 94640, Note_on_c, 1, 56, 54
2, 94644, Note_on_c, 1, 62, 59
2, 94648, Note_on_c, 1, 72, 78
2, 94652, Note_on_c, 1, 58, 49
2, 94672, Note_off_c, 1, 58, 64
2, 94684, Note_off_c, 1, 56, 64
2, 94692, Note_off_c, 1, 62, 64
2, 94768, Note_off_c, 1, 72, 64
2, 94776, Note_on_c, 1, 74, 80
2, 94876, Note_off_c, 1, 74, 64
2, 94884, Note_on_c, 1, 51, 48
2, 94912, Note_on_c, 1, 77, 70
2, 94916, Note_on_c, 1, 67, 67
2, 94940, Note_off_c, 1, 51, 64
2, 95000, Control_c, 1, 64, 127
2, 95060, Note_off_c, 1, 77, 64
2, 95084, Note_off_c, 1, 67, 64
2, 95136, Control_c, 1, 64, 0
2, 95148, Note_on_c, 1, 55, 60
2, 95148, Note_on_c, 1, 63, 53
2, 95148, Note_on_c, 1, 58, 55
2, 95148, Note_on_c, 1, 75, 67
2, 95148, Note_on_c, 1, 67, 68
2, 95164, Note_off_c, 1, 63, 64
2, 95164, Note_off_c, 1, 58, 64
2, 95168, Note_off_c, 1, 55, 64
2, 95180, Note_off_c, 1, 75, 64
2, 95180, Note_off_c, 1, 67, 64
2, 95268, Note_on_c, 1, 75, 64
2, 95268, Note_on_c, 1, 67, 73
2, 95388, Note_on_c, 1, 46, 66
2, 95396, Note_off_c, 1, 75, 64
2, 95404, Control_c, 1, 64, 127
2, 95412, Note_off_c, 1, 46, 64
2, 95424, Note_off_c, 1, 67, 64
2, 95516, Note_on_c, 1, 67, 73
2, 95644, Control_c, 1, 64, 0
2, 95652, Note_on_c, 1, 55, 70
2, 95656, Note_on_c, 1, 68, 67
2, 95656, Note_on_c, 1, 63, 51
2, 95668, Note_off_c, 1, 67, 64
2, 95692, Note_on_c, 1, 58, 32
2, 95760, Note_off_c, 1, 68, 64
2, 95764, Note_off_c, 1, 58, 64
2, 95768, Note_off_c, 1, 63, 64
2, 95772, Note_off_c, 1, 55, 64
2, 95776, Note_on_c, 1, 70, 62
2, 95800, Control_c, 1, 64, 127
2, 95848, Note_off_c, 1, 70, 64
2, 95904, Control_c, 1, 64, 0
2, 95912, Note_on_c, 1, 51, 61
2, 95924, Note_on_c, 1, 72, 69
2, 95924, Note_on_c, 1, 67, 71
2, 96024, Control_c, 1, 64, 127
2, 96052, Note_off_c, 1, 72, 64
2, 96064, Note_off_c, 1, 67, 64
2, 96156, Note_on_c, 1, 63, 48
2, 96168, Note_on_c, 1, 67, 67
2, 96172, Note_on_c, 1, 70, 62
2, 96184, Note_off_c, 1, 63, 64
2, 96208, Note_off_c, 1, 51, 64
2, 96208, Note_off_c, 1, 67, 64
2, 96208, Note_off_c, 1, 70, 64
2, 96208, Control_c, 1, 64, 0
2, 96288, Note_on_c, 1, 70, 60
2, 96288, Note_on_c, 1, 67, 69
2, 96348, Control_c, 1, 64, 127
2, 96380, Note_off_c, 1, 67, 64
2, 96388, Note_off_c, 1, 70, 64
2, 96420, Note_on_c, 1, 46, 66
2, 96436, Note_off_c, 1, 46, 64
2, 96532, Note_on_c, 1, 70, 69
2, 96640, Note_off_c, 1, 70, 64
2, 96668, Note_on_c, 1, 55, 62
2, 96668, Note_on_c, 1, 63, 56
2, 96672, Note_on_c, 1, 75, 78
2, 96676, Note_on_c, 1, 58, 38
2, 96696, Note_off_c, 1, 63, 64
2, 96696, Note_off_c, 1, 58, 64
2, 96704, Note_off_c, 1, 55, 64
2, 96784, Note_off_c, 1, 75, 64
2, 96796, Note_on_c, 1, 79, 80
2, 96852, Control_c, 1, 64, 0
2, 96904, Note_off_c, 1, 79, 0
2, 96916, Note_on_c, 1, 36, 71
2, 96920, Control_c, 1, 64, 127
2, 96932, Note_on_c, 1, 48, 57
2, 96940, Note_off_c, 1, 36, 64
2, 96952, Note_off_c, 1, 48, 64
2, 97052, Note_on_c, 1, 76, 80
2, 97172, Note_on_c, 1, 58, 60
2, 97176, Note_on_c, 1, 64, 66
2, 97176, Note_on_c, 1, 79, 80
2, 97176, Note_on_c, 1, 60, 66
2, 97192, Note_off_c, 1, 64, 64
2, 97192, Note_off_c, 1, 60, 64
2, 97196, Note_off_c, 1, 58, 64
2, 97296, Note_off_c, 1, 79, 64
2, 97300, Note_on_c, 1, 82, 73
2, 97352, Note_off_c, 1, 76, 64
2, 97380, Note_off_c, 1, 82, 64
2, 97400, Control_c, 1, 64, 0
2, 97432, Note_on_c, 1, 40, 66
2, 97432, Note_on_c, 1, 52, 61
2, 97432, Note_on_c, 1, 85, 71
2, 97436, Note_on_c, 1, 76, 73
2, 97452, Control_c, 1, 64, 127
2, 97460, Note_off_c, 1, 40, 64
2, 97468, Note_off_c, 1, 52, 64
2, 97500, Note_off_c, 1, 85, 64
2, 97548, Note_on_c, 1, 84, 78
2, 97612, Note_off_c, 1, 76, 64
2, 97648, Note_off_c, 1, 84, 64
2, 97684, Note_on_c, 1, 58, 61
2, 97692, Note_on_c, 1, 64, 64
2, 97708, Note_off_c, 1, 58, 64
2, 97708, Note_off_c, 1, 64, 64
2, 97788, Control_c, 1, 64, 0
2, 97804, Note_on_c, 1, 82, 78
2, 97808, Note_on_c, 1, 72, 73
2, 97908, Note_off_c, 1, 82, 64
2, 97932, Note_on_c, 1, 41, 71
2, 97936, Note_on_c, 1, 53, 66
2, 97944, Control_c, 1, 64, 127
2, 98028, Note_off_c, 1, 41, 64
2, 98036, Note_off_c, 1, 53, 64
2, 98044, Note_on_c, 1, 80, 67
2, 98064, Note_off_c, 1, 72, 64
2, 98076, Note_off_c, 1, 80, 64
2, 98200, Note_on_c, 1, 79, 73
2, 98204, Note_on_c, 1, 76, 73
2, 98204, Note_on_c, 1, 72, 77
2, 98204, Note_on_c, 1, 43, 66
2, 98208, Note_on_c, 1, 70, 64
2, 98208, Note_on_c, 1, 55, 66
2, 98212, Control_c, 1, 64, 0
2, 98260, Control_c, 1, 64, 127
2, 98292, Note_off_c, 1, 79, 0
2, 98292, Note_off_c, 1, 76, 0
2, 98296, Note_off_c, 1, 70, 0
2, 98304, Note_off_c, 1, 55, 0
2, 98316, Note_off_c, 1, 43, 0
2, 98320, Note_off_c, 1, 72, 0
2, 98428, Control_c, 1, 64, 0
2, 98444, Note_on_c, 1, 68, 65
2, 98444, Note_on_c, 1, 72, 77
2, 98448, Note_on_c, 1, 77, 78
2, 98448, Note_on_c, 1, 56, 66
2, 98448, Note_on_c, 1, 44, 66
2, 98488, Control_c, 1, 64, 127
2, 98520, Note_off_c, 1, 68, 64
2, 98528, Note_off_c, 1, 72, 64
2, 98536, Note_off_c, 1, 77, 64
2, 98536, Note_off_c, 1, 56, 64
2, 98536, Note_off_c, 1, 44, 64
2, 98684, Control_c, 1, 64, 0
2, 98700, Note_on_c, 1, 78, 71
2, 98700, Note_on_c, 1, 75, 71
2, 98700, Note_on_c, 1, 45, 78
2, 98700, Note_on_c, 1, 57, 69
2, 98700, Note_on_c, 1, 72, 71
2, 98740, Control_c, 1, 64, 127
2, 98772, Note_off_c, 1, 57, 64
2, 98784, Note_off_c, 1, 78, 64
2, 98784, Note_off_c, 1, 45, 64
2, 98796, Note_off_c, 1, 75, 64
2, 98848, Note_off_c, 1, 72, 64
2, 98924, Control_c, 1, 64, 0
2, 98944, Note_on_c, 1, 46, 70
2, 98948, Note_on_c, 1, 58, 63
2, 98952, Note_on_c, 1, 79, 80
2, 98968, Note_off_c, 1, 46, 64
2, 98968, Control_c, 1, 64, 127
2, 98988, Note_off_c, 1, 58, 64
2, 99024, Note_off_c, 1, 79, 64
2, 99076, Note_on_c, 1, 82, 78
2, 99192, Control_c, 1, 64, 0
2, 99204, Note_on_c, 1, 55, 77
2, 99208, Note_on_c, 1, 63, 60
2, 99220, Note_on_c, 1, 58, 35
2, 99236, Note_off_c, 1, 58, 64
2, 99240, Note_off_c, 1, 82, 64
2, 99240, Note_off_c, 1, 63, 64
2, 99244, Note_off_c, 1, 55, 64
2, 99248, Control_c, 1, 64, 127
2, 99320, Note_on_c, 1, 79, 78
2, 99352, Note_off_c, 1, 79, 64
2, 99452, Control_c, 1, 64, 0
2, 99456, Note_on_c, 1, 77, 78
2, 99460, Note_on_c, 1, 75, 66
2, 99460, Note_on_c, 1, 69, 70
2, 99460, Note_on_c, 1, 48, 66
2, 99460, Note_on_c, 1, 36, 66
2, 99500, Control_c, 1, 64, 127
2, 99516, Note_off_c, 1, 77, 64
2, 99520, Note_off_c, 1, 69, 64
2, 99524, Note_off_c, 1, 75, 64
2, 99540, Note_off_c, 1, 48, 64
2, 99548, Note_off_c, 1, 36, 64
2, 99688, Control_c, 1, 64, 0
2, 99708, Note_on_c, 1, 38, 60
2, 99712, Note_on_c, 1, 50, 64
2, 99712, Note_on_c, 1, 77, 75
2, 99712, Note_on_c, 1, 68, 62
2, 99764, Note_off_c, 1, 38, 64
2, 99772, Note_off_c, 1, 50, 64
2, 99772, Note_off_c, 1, 68, 64
2, 99780, Note_off_c, 1, 77, 64
2, 99844, Note_on_c, 1, 75, 66
2, 99844, Note_on_c, 1, 67, 70
2, 99920, Note_off_c, 1, 67, 64
2, 99924, Control_c, 1, 64, 127
2, 99936, Note_off_c, 1, 75, 64
2, 99964, Note_on_c, 1, 39, 61
2, 99964, Note_on_c, 1, 51, 60
2, 99984, Note_off_c, 1, 39, 64
2, 99996, Note_off_c, 1, 51, 64
2, 100064, Control_c, 1, 64, 0
2, 100092, Note_on_c, 1, 79, 80
2, 100208, Note_on_c, 1, 58, 64
2, 100212, Note_off_c, 1, 79, 64
2, 100212, Note_on_c, 1, 55, 68
2, 100212, Note_on_c, 1, 63, 55
2, 100256, Note_off_c, 1, 58, 64
2, 100264, Note_off_c, 1, 55, 64
2, 100264, Note_off_c, 1, 63, 64
2, 100344, Note_on_c, 1, 84, 68
2, 100376, Note_off_c, 1, 84, 64
2, 100472, Note_on_c, 1, 55, 70
2, 100472, Note_on_c, 1, 58, 56
2, 100476, Note_on_c, 1, 63, 55
2, 100480, Note_on_c, 1, 82, 75
2, 100492, Control_c, 1, 64, 127
2, 100532, Note_off_c, 1, 63, 64
2, 100552, Note_off_c, 1, 58, 64
2, 100556, Note_off_c, 1, 55, 64
2, 100564, Control_c, 1, 64, 0
2, 100624, Note_off_c, 1, 82, 64
2, 100708, Control_c, 1, 64, 127
2, 100716, Note_on_c, 1, 82, 91
2, 100720, Note_on_c, 1, 46, 70
2, 100720, Note_on_c, 1, 58, 68
2, 100764, Note_off_c, 1, 46, 64
2, 100784, Note_off_c, 1, 58, 64
2, 100804, Note_off_c, 1, 82, 64
2, 100824, Control_c, 1, 64, 0
2, 100840, Note_on_c, 1, 48, 70
2, 100840, Note_on_c, 1, 81, 95
2, 100848, Note_on_c, 1, 60, 56
2, 100852, Control_c, 1, 64, 127
2, 100888, Note_off_c, 1, 48, 64
2, 100896, Note_off_c, 1, 60, 64
2, 100904, Note_off_c, 1, 81, 64
2, 100948, Control_c, 1, 64, 0
2, 100972, Note_on_c, 1, 80, 87
2, 100976, Note_on_c, 1, 50, 78
2, 100980, Note_on_c, 1, 62, 65
2, 100984, Control_c, 1, 64, 127
2, 101008, Note_off_c, 1, 50, 64
2, 101028, Note_off_c, 1, 62, 64
2, 101048, Note_off_c, 1, 80, 64
2, 101220, Note_on_c, 1, 56, 54
2, 101220, Note_on_c, 1, 62, 63
2, 101224, Note_on_c, 1, 58, 55
2, 101232, Note_on_c, 1, 77, 78
2, 101236, Control_c, 1, 64, 0
2, 101244, Note_off_c, 1, 56, 64
2, 101244, Note_off_c, 1, 62, 64
2, 101248, Note_off_c, 1, 58, 64
2, 101256, Note_off_c, 1, 77, 64
2, 101344, Note_on_c, 1, 77, 83
2, 101472, Note_on_c, 1, 46, 78
2, 101484, Control_c, 1, 64, 127
2, 101500, Note_off_c, 1, 46, 64
2, 101580, Control_c, 1, 64, 0
2, 101592, Note_on_c, 1, 72, 78
2, 101620, Note_off_c, 1, 77, 64
2, 101724, Note_on_c, 1, 62, 67
2, 101728, Note_off_c, 1, 72, 64
2, 101728, Note_on_c, 1, 56, 59
2, 101728, Note_on_c, 1, 58, 60
2, 101728, Note_on_c, 1, 74, 81
2, 101756, Note_off_c, 1, 56, 64
2, 101764, Note_off_c, 1, 58, 64
2, 101772, Note_off_c, 1, 62, 64
2, 101856, Note_off_c, 1, 74, 64
2, 101856, Note_on_c, 1, 75, 77
2, 101892, Note_off_c, 1, 75, 64
2, 101988, Note_on_c, 1, 53, 71
2, 101988, Note_on_c, 1, 74, 83
2, 101988, Note_on_c, 1, 79, 83
2, 101988, Note_on_c, 1, 68, 73
2, 102028, Note_off_c, 1, 53, 64
2, 102036, Control_c, 1, 64, 127
2, 102108, Note_off_c, 1, 79, 64
2, 102124, Note_off_c, 1, 74, 64
2, 102124, Note_off_c, 1, 68, 64
2, 102248, Note_on_c, 1, 62, 67
2, 102248, Note_on_c, 1, 58, 64
2, 102252, Note_on_c, 1, 77, 88
2, 102252, Note_on_c, 1, 74, 90
2, 102252, Note_on_c, 1, 68, 67
2, 102252, Note_on_c, 1, 56, 52
2, 102264, Note_off_c, 1, 62, 64
2, 102268, Note_off_c, 1, 58, 64
2, 102268, Note_off_c, 1, 56, 64
2, 102268, Control_c, 1, 64, 0
2, 102276, Note_off_c, 1, 74, 64
2, 102276, Note_off_c, 1, 68, 64
2, 102280, Note_off_c, 1, 77, 64
2, 102388, Note_on_c, 1, 77, 80
2, 102388, Note_on_c, 1, 74, 83
2, 102388, Note_on_c, 1, 68, 63
2, 102504, Note_on_c, 1, 46, 71
2, 102504, Control_c, 1, 64, 127
2, 102512, Note_off_c, 1, 68, 0
2, 102516, Note_off_c, 1, 74, 0
2, 102520, Note_off_c, 1, 77, 0
2, 102528, Note_off_c, 1, 46, 64
2, 102628, Note_on_c, 1, 70, 77
2, 102756, Note_off_c, 1, 70, 64
2, 102756, Control_c, 1, 64, 0
2, 102764, Note_on_c, 1, 62, 67
2, 102764, Note_on_c, 1, 56, 60
2, 102764, Note_on_c, 1, 72, 85
2, 102768, Note_on_c, 1, 58, 65
2, 102876, Note_off_c, 1, 56, 64
2, 102880, Note_off_c, 1, 72, 64
2, 102892, Note_off_c, 1, 62, 64
2, 102892, Note_off_c, 1, 58, 64
2, 102892, Note_on_c, 1, 74, 88
2, 102904, Control_c, 1, 64, 127
2, 102940, Note_off_c, 1, 74, 64
2, 103004, Control_c, 1, 64, 0
2, 103020, Note_on_c, 1, 51, 61
2, 103024, Note_on_c, 1, 77, 83
2, 103024, Note_on_c, 1, 67, 73
2, 103128, Control_c, 1, 64, 127
2, 103180, Note_off_c, 1, 77, 64
2, 103200, Note_off_c, 1, 67, 64
2, 103276, Note_on_c, 1, 58, 67
2, 103276, Note_on_c, 1, 63, 66
2, 103276, Control_c, 1, 64, 0
2, 103280, Note_on_c, 1, 75, 64
2, 103284, Note_on_c, 1, 67, 73
2, 103296, Note_off_c, 1, 58, 64
2, 103300, Note_off_c, 1, 63, 64
2, 103304, Note_off_c, 1, 75, 64
2, 103308, Note_off_c, 1, 51, 64
2, 103312, Note_off_c, 1, 67, 64
2, 103392, Note_on_c, 1, 75, 78
2, 103400, Note_on_c, 1, 67, 73
2, 103524, Control_c, 1, 64, 127
2, 103532, Note_on_c, 1, 46, 68
2, 103536, Note_off_c, 1, 75, 64
2, 103556, Note_off_c, 1, 46, 64
2, 103564, Note_off_c, 1, 67, 64
2, 103656, Note_on_c, 1, 67, 73
2, 103764, Control_c, 1, 64, 0
2, 103768, Note_off_c, 1, 67, 64
2, 103780, Note_on_c, 1, 68, 70
2, 103780, Note_on_c, 1, 55, 68
2, 103780, Note_on_c, 1, 63, 60
2, 103792, Note_on_c, 1, 58, 39
2, 103872, Note_off_c, 1, 68, 0
2, 103900, Note_off_c, 1, 58, 0
2, 103900, Note_on_c, 1, 70, 69
2, 103904, Note_off_c, 1, 63, 0
2, 103912, Note_off_c, 1, 55, 0
2, 103928, Control_c, 1, 64, 127
2, 103972, Note_off_c, 1, 70, 64
2, 104020, Control_c, 1, 64, 0
2, 104032, Note_on_c, 1, 51, 65
2, 104040, Note_on_c, 1, 72, 68
2, 104044, Note_on_c, 1, 67, 83
2, 104068, Note_off_c, 1, 51, 64
2, 104100, Control_c, 1, 64, 127
2, 104232, Note_off_c, 1, 67, 64
2, 104236, Note_off_c, 1, 72, 64
2, 104280, Note_on_c, 1, 63, 59
2, 104284, Note_on_c, 1, 55, 73
2, 104288, Note_on_c, 1, 70, 75
2, 104292, Note_on_c, 1, 67, 73
2, 104296, Control_c, 1, 64, 0
2, 104300, Note_off_c, 1, 63, 64
2, 104300, Note_off_c, 1, 55, 64
2, 104308, Note_off_c, 1, 70, 64
2, 104316, Note_off_c, 1, 67, 64
2, 104408, Note_on_c, 1, 70, 69
2, 104416, Note_on_c, 1, 67, 68
2, 104504, Note_off_c, 1, 70, 64
2, 104504, Note_on_c, 1, 51, 69
2, 104504, Control_c, 1, 64, 127
2, 104520, Note_off_c, 1, 67, 64
2, 104560, Note_off_c, 1, 51, 64
2, 104644, Note_on_c, 1, 67, 83
2, 104756, Note_off_c, 1, 67, 64
2, 104756, Note_on_c, 1, 55, 70
2, 104756, Note_on_c, 1, 63, 59
2, 104768, Note_on_c, 1, 58, 35
2, 104772, Note_on_c, 1, 65, 80
2, 104788, Note_off_c, 1, 55, 64
2, 104788, Note_off_c, 1, 63, 64
2, 104788, Note_off_c, 1, 58, 64
2, 104880, Note_off_c, 1, 65, 64
2, 104888, Control_c, 1, 64, 0
2, 104896, Note_on_c, 1, 63, 80
2, 105016, Note_on_c, 1, 53, 83
2, 105020, Control_c, 1, 64, 127
2, 105024, Note_off_c, 1, 63, 64
2, 105040, Note_off_c, 1, 53, 64
2, 105072, Control_c, 1, 64, 0
2, 105140, Note_on_c, 1, 62, 78
2, 105196, Note_off_c, 1, 62, 64
2, 105264, Note_on_c, 1, 62, 71
2, 105268, Note_on_c, 1, 56, 60
2, 105272, Note_on_c, 1, 58, 60
2, 105276, Note_off_c, 1, 58, 64
2, 105276, Note_on_c, 1, 65, 78
2, 105284, Note_off_c, 1, 62, 64
2, 105284, Note_off_c, 1, 56, 64
2, 105384, Note_off_c, 1, 65, 64
2, 105392, Note_on_c, 1, 68, 70
2, 105512, Note_off_c, 1, 68, 64
2, 105512, Note_on_c, 1, 46, 73
2, 105516, Note_on_c, 1, 74, 83
2, 105536, Note_off_c, 1, 46, 64
2, 105616, Note_off_c, 1, 74, 64
2, 105636, Note_on_c, 1, 68, 71
2, 105636, Note_on_c, 1, 72, 77
2, 105776, Note_on_c, 1, 56, 66
2, 105780, Note_on_c, 1, 62, 69
2, 105784, Note_on_c, 1, 58, 64
2, 105796, Note_off_c, 1, 56, 64
2, 105796, Note_off_c, 1, 58, 64
2, 105804, Note_off_c, 1, 62, 64
2, 105900, Note_off_c, 1, 72, 64
2, 105908, Note_on_c, 1, 74, 78
2, 105932, Note_off_c, 1, 68, 64
2, 106020, Note_off_c, 1, 74, 64
2, 106024, Note_on_c, 1, 53, 80
2, 106028, Note_on_c, 1, 72, 71
2, 106028, Note_on_c, 1, 68, 69
2, 106048, Note_off_c, 1, 53, 64
2, 106200, Note_off_c, 1, 72, 64
2, 106200, Note_off_c, 1, 68, 64
2, 106280, Note_on_c, 1, 62, 73
2, 106284, Note_on_c, 1, 58, 65
2, 106284, Note_on_c, 1, 56, 61
2, 106288, Note_on_c, 1, 68, 80
2, 106288, Note_on_c, 1, 72, 78
2, 106300, Note_off_c, 1, 62, 64
2, 106300, Note_off_c, 1, 58, 64
2, 106300, Note_off_c, 1, 56, 64
2, 106308, Note_off_c, 1, 68, 64
2, 106316, Note_off_c, 1, 72, 64
2, 106420, Note_on_c, 1, 68, 78
2, 106420, Note_on_c, 1, 72, 78
2, 106544, Note_on_c, 1, 46, 77
2, 106556, Control_c, 1, 64, 127
2, 106564, Note_off_c, 1, 46, 64
2, 106644, Note_off_c, 1, 68, 0
2, 106664, Note_off_c, 1, 72, 0
2, 106664, Note_on_c, 1, 70, 75
2, 106712, Control_c, 1, 64, 0
2, 106800, Note_off_c, 1, 70, 64
2, 106800, Note_on_c, 1, 68, 77
2, 106804, Note_on_c, 1, 62, 70
2, 106804, Note_on_c, 1, 56, 52
2, 106808, Note_on_c, 1, 58, 59
2, 106884, Note_off_c, 1, 56, 64
2, 106892, Note_off_c, 1, 62, 64
2, 106896, Note_off_c, 1, 58, 64
2, 106924, Note_on_c, 1, 65, 73
2, 107052, Note_on_c, 1, 51, 75
2, 107056, Note_off_c, 1, 65, 64
2, 107060, Note_off_c, 1, 68, 64
2, 107180, Note_on_c, 1, 63, 75
2, 107196, Control_c, 1, 64, 127
2, 107228, Note_off_c, 1, 63, 64
2, 107284, Note_off_c, 1, 51, 64
2, 107312, Note_on_c, 1, 63, 63
2, 107312, Note_on_c, 1, 67, 71
2, 107312, Control_c, 1, 64, 0
2, 107316, Note_on_c, 1, 55, 71
2, 107340, Note_off_c, 1, 63, 64
2, 107348, Note_off_c, 1, 55, 64
2, 107424, Note_off_c, 1, 67, 64
2, 107436, Note_on_c, 1, 70, 73
2, 107556, Note_off_c, 1, 70, 64
2, 107560, Note_on_c, 1, 46, 77
2, 107568, Note_on_c, 1, 75, 67
2, 107580, Note_off_c, 1, 46, 64
2, 107664, Note_off_c, 1, 75, 64
2, 107684, Note_on_c, 1, 72, 75
2, 107684, Note_on_c, 1, 67, 77
2, 107808, Note_on_c, 1, 55, 83
2, 107812, Note_on_c, 1, 63, 60
2, 107832, Note_off_c, 1, 55, 64
2, 107832, Note_off_c, 1, 63, 64
2, 107932, Note_off_c, 1, 72, 64
2, 107932, Note_on_c, 1, 75, 78
2, 107952, Note_off_c, 1, 67, 64
2, 107952, Control_c, 1, 64, 127
2, 108032, Note_off_c, 1, 75, 0
2, 108068, Note_on_c, 1, 51, 64
2, 108068, Control_c, 1, 64, 0
2, 108072, Note_on_c, 1, 72, 71
2, 108072, Note_on_c, 1, 67, 77
2, 108176, Control_c, 1, 64, 127
2, 108256, Note_off_c, 1, 67, 64
2, 108288, Note_off_c, 1, 72, 64
2, 108332, Note_on_c, 1, 67, 75
2, 108332, Note_on_c, 1, 55, 40
2, 108336, Note_on_c, 1, 63, 52
2, 108336, Note_on_c, 1, 70, 60
2, 108344, Note_on_c, 1, 58, 38
2, 108344, Control_c, 1, 64, 0
2, 108360, Note_off_c, 1, 70, 64
2, 108364, Note_off_c, 1, 67, 64
2, 108372, Note_off_c, 1, 58, 64
2, 108404, Note_off_c, 1, 63, 64
2, 108424, Note_off_c, 1, 55, 64
2, 108432, Control_c, 1, 64, 127
2, 108452, Note_on_c, 1, 70, 71
2, 108460, Note_on_c, 1, 67, 71
2, 108560, Note_off_c, 1, 70, 64
2, 108588, Note_off_c, 1, 67, 64
2, 108592, Note_on_c, 1, 63, 62
2, 108592, Note_on_c, 1, 55, 66
2, 108596, Note_on_c, 1, 58, 59
2, 108620, Note_off_c, 1, 63, 64
2, 108620, Note_off_c, 1, 58, 64
2, 108628, Note_off_c, 1, 55, 64
2, 108648, Note_off_c, 1, 51, 64
2, 108708, Control_c, 1, 64, 0
2, 108844, Note_on_c, 1, 46, 69
2, 108844, Note_on_c, 1, 58, 66
2, 108848, Note_on_c, 1, 82, 80
2, 108852, Control_c, 1, 64, 127
2, 108876, Note_off_c, 1, 46, 64
2, 108876, Note_off_c, 1, 58, 64
2, 108928, Note_off_c, 1, 82, 64
2, 108952, Control_c, 1, 64, 0
2, 108960, Note_on_c, 1, 81, 85
2, 108964, Note_on_c, 1, 48, 71
2, 108972, Note_on_c, 1, 60, 64
2, 108976, Control_c, 1, 64, 127
2, 108996, Note_off_c, 1, 48, 64
2, 108996, Note_off_c, 1, 60, 64
2, 109036, Note_off_c, 1, 81, 64
2, 109036, Control_c, 1, 64, 0
2, 109100, Note_on_c, 1, 50, 71
2, 109100, Note_on_c, 1, 80, 88
2, 109100, Note_on_c, 1, 62, 69
2, 109116, Control_c, 1, 64, 127
2, 109144, Note_off_c, 1, 50, 64
2, 109156, Note_off_c, 1, 62, 64
2, 109200, Note_off_c, 1, 80, 64
2, 109344, Note_on_c, 1, 62, 62
2, 109348, Note_on_c, 1, 56, 54
2, 109352, Note_on_c, 1, 58, 55
2, 109352, Note_on_c, 1, 77, 90
2, 109352, Control_c, 1, 64, 0
2, 109360, Note_off_c, 1, 58, 64
2, 109364, Note_off_c, 1, 62, 64
2, 109364, Note_off_c, 1, 56, 64
2, 109380, Note_off_c, 1, 77, 64
2, 109472, Note_on_c, 1, 77, 73
2, 109596, Note_on_c, 1, 46, 77
2, 109620, Note_off_c, 1, 46, 64
2, 109716, Note_on_c, 1, 72, 78
2, 109836, Note_off_c, 1, 72, 64
2, 109848, Note_on_c, 1, 74, 78
2, 109848, Note_on_c, 1, 56, 60
2, 109852, Note_on_c, 1, 62, 66
2, 109852, Note_on_c, 1, 58, 62
2, 109868, Note_off_c, 1, 77, 64
2, 109964, Note_off_c, 1, 58, 64
2, 109968, Note_off_c, 1, 56, 64
2, 109972, Note_off_c, 1, 62, 64
2, 109976, Note_off_c, 1, 74, 64
2, 109976, Note_on_c, 1, 75, 68
2, 110012, Note_off_c, 1, 75, 64
2, 110112, Note_on_c, 1, 53, 70
2, 110116, Note_on_c, 1, 74, 90
2, 110116, Note_on_c, 1, 79, 75
2, 110120, Note_on_c, 1, 68, 57
2, 110124, Control_c, 1, 64, 127
2, 110144, Note_off_c, 1, 53, 64
2, 110204, Note_off_c, 1, 68, 64
2, 110208, Note_off_c, 1, 79, 64
2, 110236, Note_off_c, 1, 74, 64
2, 110368, Note_on_c, 1, 56, 66
2, 110372, Note_on_c, 1, 74, 80
2, 110376, Note_on_c, 1, 77, 71
2, 110376, Note_on_c, 1, 68, 61
2, 110376, Note_on_c, 1, 62, 66
2, 110376, Note_on_c, 1, 58, 60
2, 110388, Control_c, 1, 64, 0
2, 110392, Note_off_c, 1, 56, 64
2, 110392, Note_off_c, 1, 62, 64
2, 110392, Note_off_c, 1, 58, 64
2, 110400, Note_off_c, 1, 74, 64
2, 110400, Note_off_c, 1, 68, 64
2, 110404, Note_off_c, 1, 77, 64
2, 110492, Note_on_c, 1, 74, 78
2, 110492, Note_on_c, 1, 68, 64
2, 110492, Note_on_c, 1, 77, 71
2, 110616, Control_c, 1, 64, 127
2, 110620, Note_on_c, 1, 46, 70
2, 110628, Note_off_c, 1, 68, 64
2, 110628, Note_off_c, 1, 74, 64
2, 110632, Note_off_c, 1, 77, 64
2, 110640, Note_off_c, 1, 46, 64
2, 110740, Note_on_c, 1, 70, 77
2, 110740, Control_c, 1, 64, 0
2, 110756, Control_c, 1, 64, 127
2, 110860, Note_off_c, 1, 70, 0
2, 110868, Note_on_c, 1, 72, 85
2, 110876, Note_on_c, 1, 56, 53
2, 110876, Note_on_c, 1, 62, 67
2, 110888, Note_on_c, 1, 58, 38
2, 110888, Control_c, 1, 64, 0
2, 110908, Note_off_c, 1, 58, 64
2, 110916, Note_off_c, 1, 56, 64
2, 110916, Note_off_c, 1, 62, 64
2, 110988, Note_off_c, 1, 72, 64
2, 111000, Note_on_c, 1, 74, 88
2, 111024, Control_c, 1, 64, 127
2, 111076, Note_off_c, 1, 74, 64
2, 111120, Control_c, 1, 64, 0
2, 111128, Note_on_c, 1, 51, 60
2, 111140, Note_on_c, 1, 77, 80
2, 111140, Note_on_c, 1, 67, 77
2, 111224, Control_c, 1, 64, 127
2, 111316, Note_off_c, 1, 77, 64
2, 111324, Note_off_c, 1, 67, 64
2, 111384, Note_on_c, 1, 55, 67
2, 111392, Note_on_c, 1, 58, 56
2, 111392, Note_on_c, 1, 63, 58
2, 111392, Note_on_c, 1, 75, 80
2, 111392, Note_on_c, 1, 67, 71
2, 111396, Control_c, 1, 64, 0
2, 111408, Note_off_c, 1, 58, 64
2, 111408, Note_off_c, 1, 63, 64
2, 111416, Note_off_c, 1, 51, 64
2, 111416, Note_off_c, 1, 55, 64
2, 111420, Note_off_c, 1, 75, 64
2, 111420, Note_off_c, 1, 67, 64
2, 111512, Note_on_c, 1, 75, 77
2, 111516, Note_on_c, 1, 67, 73
2, 111644, Note_on_c, 1, 46, 70
2, 111652, Control_c, 1, 64, 127
2, 111660, Note_off_c, 1, 75, 64
2, 111664, Note_off_c, 1, 46, 64
2, 111672, Note_off_c, 1, 67, 64
2, 111772, Note_on_c, 1, 67, 78
2, 111900, Control_c, 1, 64, 0
2, 111908, Note_off_c, 1, 67, 64
2, 111908, Note_on_c, 1, 55, 70
2, 111912, Note_on_c, 1, 68, 71
2, 111912, Note_on_c, 1, 58, 60
2, 111916, Note_on_c, 1, 63, 56
2, 111940, Note_off_c, 1, 55, 64
2, 111940, Note_off_c, 1, 58, 64
2, 111948, Note_off_c, 1, 63, 64
2, 112016, Note_off_c, 1, 68, 64
2, 112036, Note_on_c, 1, 70, 65
2, 112092, Note_off_c, 1, 70, 64
2, 112164, Note_on_c, 1, 51, 69
2, 112176, Note_on_c, 1, 72, 71
2, 112176, Note_on_c, 1, 67, 73
2, 112204, Control_c, 1, 64, 127
2, 112324, Note_off_c, 1, 72, 0
2, 112332, Note_off_c, 1, 67, 0
2, 112420, Note_on_c, 1, 63, 60
2, 112420, Note_on_c, 1, 55, 77
2, 112420, Note_on_c, 1, 70, 56
2, 112424, Note_on_c, 1, 67, 71
2, 112424, Note_on_c, 1, 58, 66
2, 112444, Note_off_c, 1, 51, 0
2, 112444, Note_off_c, 1, 63, 64
2, 112444, Note_off_c, 1, 55, 64
2, 112444, Note_off_c, 1, 58, 64
2, 112472, Note_off_c, 1, 70, 64
2, 112472, Note_off_c, 1, 67, 64
2, 112472, Control_c, 1, 64, 0
2, 112552, Note_on_c, 1, 70, 61
2, 112552, Note_on_c, 1, 67, 71
2, 112656, Note_off_c, 1, 67, 64
2, 112664, Note_off_c, 1, 70, 64
2, 112668, Note_on_c, 1, 46, 77
2, 112672, Control_c, 1, 64, 127
2, 112696, Note_off_c, 1, 46, 64
2, 112792, Note_on_c, 1, 70, 78
2, 112924, Note_on_c, 1, 63, 64
2, 112928, Note_on_c, 1, 55, 71
2, 112928, Note_on_c, 1, 58, 68
2, 112928, Note_on_c, 1, 75, 78
2, 112944, Note_off_c, 1, 63, 64
2, 112948, Note_off_c, 1, 55, 64
2, 112948, Note_off_c, 1, 58, 64
2, 113044, Note_on_c, 1, 79, 85
2, 113088, Control_c, 1, 64, 0
2, 113156, Note_off_c, 1, 70, 64
2, 113164, Note_off_c, 1, 75, 64
2, 113164, Note_on_c, 1, 36, 83
2, 113168, Note_on_c, 1, 48, 90
2, 113176, Control_c, 1, 64, 127
2, 113180, Note_off_c, 1, 79, 64
2, 113188, Note_off_c, 1, 36, 64
2, 113196, Note_off_c, 1, 48, 64
2, 113292, Note_on_c, 1, 76, 90
2, 113416, Note_on_c, 1, 58, 64
2, 113420, Note_on_c, 1, 64, 75
2, 113420, Note_on_c, 1, 60, 77
2, 113420, Note_on_c, 1, 79, 96
2, 113436, Note_off_c, 1, 64, 64
2, 113436, Note_off_c, 1, 60, 64
2, 113440, Note_off_c, 1, 58, 64
2, 113520, Note_off_c, 1, 79, 64
2, 113540, Note_on_c, 1, 82, 83
2, 113540, Control_c, 1, 64, 0
2, 113652, Note_off_c, 1, 82, 0
2, 113660, Note_on_c, 1, 52, 80
2, 113660, Note_on_c, 1, 40, 85
2, 113660, Note_on_c, 1, 85, 100
2, 113672, Control_c, 1, 64, 127
2, 113684, Note_off_c, 1, 40, 64
2, 113692, Note_off_c, 1, 52, 64
2, 113764, Note_off_c, 1, 85, 64
2, 113796, Note_on_c, 1, 84, 78
2, 113864, Note_off_c, 1, 76, 0
2, 113872, Note_off_c, 1, 84, 64
2, 113916, Note_on_c, 1, 58, 68
2, 113916, Note_on_c, 1, 64, 71
2, 113920, Note_on_c, 1, 60, 69
2, 113932, Note_off_c, 1, 60, 64
2, 113936, Note_off_c, 1, 64, 64
2, 113940, Note_off_c, 1, 58, 64
2, 114040, Note_on_c, 1, 82, 100
2, 114040, Note_on_c, 1, 72, 80
2, 114100, Control_c, 1, 64, 0
2, 114156, Note_off_c, 1, 82, 64
2, 114168, Note_on_c, 1, 41, 80
2, 114168, Note_on_c, 1, 53, 90
2, 114180, Control_c, 1, 64, 127
2, 114268, Note_off_c, 1, 41, 64
2, 114276, Note_off_c, 1, 53, 64
2, 114284, Note_on_c, 1, 80, 75
2, 114292, Note_off_c, 1, 72, 64
2, 114312, Note_off_c, 1, 80, 64
2, 114416, Note_on_c, 1, 79, 85
2, 114416, Note_on_c, 1, 76, 93
2, 114416, Note_on_c, 1, 70, 77
2, 114424, Note_on_c, 1, 72, 88
2, 114432, Note_on_c, 1, 55, 77
2, 114432, Note_on_c, 1, 43, 83
2, 114432, Control_c, 1, 64, 0
2, 114516, Control_c, 1, 64, 127
2, 114536, Note_off_c, 1, 79, 64
2, 114540, Note_off_c, 1, 55, 64
2, 114544, Note_off_c, 1, 76, 64
2, 114544, Note_off_c, 1, 70, 64
2, 114552, Note_off_c, 1, 43, 64
2, 114580, Note_off_c, 1, 72, 64
2, 114668, Control_c, 1, 64, 0
2, 114684, Note_on_c, 1, 72, 90
2, 114684, Note_on_c, 1, 77, 100
2, 114684, Note_on_c, 1, 68, 83
2, 114688, Note_on_c, 1, 44, 75
2, 114688, Note_on_c, 1, 56, 75
2, 114728, Control_c, 1, 64, 127
2, 114764, Note_off_c, 1, 72, 64
2, 114764, Note_off_c, 1, 68, 64
2, 114784, Note_off_c, 1, 44, 64
2, 114784, Note_off_c, 1, 56, 64
2, 114788, Note_off_c, 1, 77, 64
2, 114868, Control_c, 1, 64, 0
2, 114944, Note_on_c, 1, 75, 78
2, 114944, Note_on_c, 1, 78, 80
2, 114944, Note_on_c, 1, 72, 77
2, 114948, Note_on_c, 1, 45, 90
2, 114948, Note_on_c, 1, 57, 80
2, 114960, Control_c, 1, 64, 127
2, 115000, Note_off_c, 1, 72, 0
2, 115004, Note_off_c, 1, 75, 0
2, 115004, Note_off_c, 1, 57, 0
2, 115012, Note_off_c, 1, 78, 0
2, 115020, Note_off_c, 1, 45, 0
2, 115152, Control_c, 1, 64, 0
2, 115200, Note_on_c, 1, 46, 80
2, 115200, Note_on_c, 1, 58, 66
2, 115204, Note_on_c, 1, 79, 93
2, 115216, Control_c, 1, 64, 127
2, 115220, Note_off_c, 1, 46, 64
2, 115240, Note_off_c, 1, 58, 64
2, 115248, Note_off_c, 1, 79, 64
2, 115328, Note_on_c, 1, 82, 80
2, 115440, Note_off_c, 1, 82, 64
2, 115456, Note_on_c, 1, 63, 68
2, 115456, Note_on_c, 1, 55, 88
2, 115464, Note_on_c, 1, 58, 69
2, 115480, Note_off_c, 1, 63, 64
2, 115480, Note_off_c, 1, 55, 64
2, 115480, Note_off_c, 1, 58, 64
2, 115572, Note_on_c, 1, 79, 73
2, 115604, Note_off_c, 1, 79, 64
2, 115708, Control_c, 1, 64, 0
2, 115712, Note_on_c, 1, 77, 85
2, 115716, Note_on_c, 1, 75, 67
2, 115716, Note_on_c, 1, 69, 83
2, 115716, Note_on_c, 1, 36, 77
2, 115720, Note_on_c, 1, 48, 80
2, 115768, Control_c, 1, 64, 127
2, 115796, Note_off_c, 1, 69, 64
2, 115804, Note_off_c, 1, 77, 64
2, 115804, Note_off_c, 1, 75, 64
2, 115812, Note_off_c, 1, 48, 64
2, 115832, Note_off_c, 1, 36, 64
2, 115960, Control_c, 1, 64, 0
2, 115968, Note_on_c, 1, 77, 90
2, 115968, Note_on_c, 1, 38, 80
2, 115968, Note_on_c, 1, 68, 69
2, 115968, Note_on_c, 1, 50, 77
2, 116008, Control_c, 1, 64, 127
2, 116024, Note_off_c, 1, 38, 64
2, 116032, Note_off_c, 1, 68, 64
2, 116032, Note_off_c, 1, 50, 64
2, 116040, Note_off_c, 1, 77, 64
2, 116096, Note_on_c, 1, 75, 77
2, 116100, Note_on_c, 1, 67, 78
2, 116200, Control_c, 1, 64, 0
2, 116228, Note_on_c, 1, 51, 77
2, 116228, Note_on_c, 1, 39, 73
2, 116248, Control_c, 1, 64, 127
2, 116256, Note_off_c, 1, 67, 64
2, 116272, Note_off_c, 1, 75, 64
2, 116280, Note_off_c, 1, 39, 64
2, 116292, Note_off_c, 1, 51, 64
2, 116516, Control_c, 1, 64, 0
2, 116524, Note_on_c, 1, 82, 93
2, 116524, Note_on_c, 1, 80, 84
2, 116524, Note_on_c, 1, 74, 85
2, 116532, Note_on_c, 1, 34, 90
2, 116536, Note_on_c, 1, 46, 96
2, 116572, Control_c, 1, 64, 127
2, 116592, Note_off_c, 1, 74, 64
2, 116596, Note_off_c, 1, 46, 64
2, 116600, Note_off_c, 1, 80, 64
2, 116604, Note_off_c, 1, 82, 64
2, 116604, Note_off_c, 1, 34, 64
2, 116640, Control_c, 1, 64, 0
2, 116848, Note_on_c, 1, 82, 93
2, 116848, Note_on_c, 1, 39, 96
2, 116852, Note_on_c, 1, 87, 85
2, 116856, Note_on_c, 1, 75, 100
2, 116856, Note_on_c, 1, 79, 104
2, 116856, Note_on_c, 1, 27, 90
2, 116876, Control_c, 1, 64, 127
2, 116924, Note_off_c, 1, 82, 64
2, 116924, Note_off_c, 1, 75, 64
2, 116932, Note_off_c, 1, 79, 64
2, 116936, Note_off_c, 1, 87, 64
2, 116940, Note_off_c, 1, 39, 64
2, 116944, Note_off_c, 1, 27, 64
2, 117160, Control_c, 1, 64, 0
2, 117176, Note_on_c, 1, 65, 93
2, 117420, Control_c, 1, 64, 127
2, 117428, Note_on_c, 1, 46, 67
2, 117428, Note_on_c, 1, 77, 83
2, 117440, Note_off_c, 1, 65, 64
2, 117452, Note_off_c, 1, 46, 64
2, 117536, Note_off_c, 1, 77, 64
2, 117552, Note_on_c, 1, 74, 66
2, 117552, Note_on_c, 1, 70, 60
2, 117556, Control_c, 1, 64, 0
2, 117560, Note_on_c, 1, 65, 61
2, 117672, Note_on_c, 1, 53, 66
2, 117680, Note_on_c, 1, 58, 62
2, 117684, Note_on_c, 1, 62, 56
2, 117696, Note_off_c, 1, 53, 64
2, 117696, Note_off_c, 1, 58, 64
2, 117704, Note_off_c, 1, 62, 64
2, 117792, Note_off_c, 1, 74, 64
2, 117796, Note_off_c, 1, 70, 64
2, 117796, Note_off_c, 1, 65, 64
2, 117800, Note_on_c, 1, 77, 80
2, 117936, Note_off_c, 1, 77, 0
2, 117936, Note_on_c, 1, 41, 70
2, 117944, Note_on_c, 1, 65, 69
2, 117944, Note_on_c, 1, 70, 64
2, 117944, Note_on_c, 1, 74, 70
2, 117956, Note_off_c, 1, 41, 64
2, 118204, Note_on_c, 1, 53, 69
2, 118208, Note_on_c, 1, 58, 66
2, 118212, Note_on_c, 1, 62, 66
2, 118220, Note_off_c, 1, 53, 64
2, 118224, Note_off_c, 1, 58, 64
2, 118224, Note_off_c, 1, 62, 64
2, 118436, Note_off_c, 1, 65, 64
2, 118444, Note_off_c, 1, 70, 64
2, 118444, Note_off_c, 1, 74, 64
2, 118468, Note_on_c, 1, 46, 70
2, 118476, Note_on_c, 1, 77, 85
2, 118488, Note_off_c, 1, 46, 64
2, 118588, Note_off_c, 1, 77, 64
2, 118588, Note_on_c, 1, 70, 71
2, 118588, Note_on_c, 1, 74, 78
2, 118588, Note_on_c, 1, 65, 69
2, 118716, Note_on_c, 1, 53, 71
2, 118724, Note_on_c, 1, 58, 61
2, 118740, Note_off_c, 1, 58, 64
2, 118744, Note_off_c, 1, 53, 64
2, 118836, Note_off_c, 1, 74, 64
2, 118840, Note_on_c, 1, 77, 78
2, 118844, Note_off_c, 1, 65, 64
2, 118856, Note_off_c, 1, 70, 64
2, 118976, Note_off_c, 1, 77, 64
2, 118976, Note_on_c, 1, 41, 66
2, 118976, Note_on_c, 1, 74, 77
2, 118976, Note_on_c, 1, 70, 71
2, 118980, Note_on_c, 1, 65, 69
2, 118996, Note_off_c, 1, 41, 64
2, 119052, Control_c, 1, 64, 127
2, 119072, Control_c, 1, 64, 0
2, 119244, Note_off_c, 1, 65, 0
2, 119260, Note_off_c, 1, 74, 0
2, 119260, Note_on_c, 1, 53, 68
2, 119260, Note_on_c, 1, 62, 67
2, 119260, Note_on_c, 1, 58, 64
2, 119264, Note_off_c, 1, 70, 0
2, 119280, Note_off_c, 1, 62, 64
2, 119280, Note_off_c, 1, 58, 64
2, 119284, Note_off_c, 1, 53, 64
2, 119388, Note_on_c, 1, 70, 64
2, 119388, Note_on_c, 1, 67, 77
2, 119504, Note_on_c, 1, 51, 66
2, 119504, Note_on_c, 1, 39, 66
2, 119528, Control_c, 1, 64, 127
2, 119540, Note_off_c, 1, 39, 64
2, 119560, Note_off_c, 1, 51, 64
2, 119636, Note_on_c, 1, 72, 71
2, 119668, Note_off_c, 1, 70, 64
2, 119680, Note_off_c, 1, 67, 64
2, 119700, Note_off_c, 1, 72, 64
2, 119732, Control_c, 1, 64, 0
2, 119760, Note_on_c, 1, 41, 66
2, 119760, Note_on_c, 1, 53, 67
2, 119760, Note_on_c, 1, 67, 77
2, 119760, Note_on_c, 1, 74, 78
2, 119820, Control_c, 1, 64, 127
2, 119888, Note_on_c, 1, 70, 73
2, 119900, Note_off_c, 1, 53, 64
2, 119924, Note_off_c, 1, 74, 64
2, 119940, Note_off_c, 1, 41, 64
2, 119956, Note_off_c, 1, 67, 64
2, 119976, Note_off_c, 1, 70, 64
2, 120008, Control_c, 1, 64, 0
2, 120016, Note_on_c, 1, 43, 66
2, 120020, Note_on_c, 1, 72, 73
2, 120024, Note_on_c, 1, 55, 62
2, 120024, Note_on_c, 1, 67, 73
2, 120056, Control_c, 1, 64, 127
2, 120096, Note_off_c, 1, 67, 64
2, 120104, Note_off_c, 1, 72, 64
2, 120144, Note_off_c, 1, 55, 64
2, 120148, Note_on_c, 1, 74, 68
2, 120148, Note_on_c, 1, 67, 77
2, 120168, Note_off_c, 1, 43, 64
2, 120216, Note_off_c, 1, 67, 64
2, 120236, Note_off_c, 1, 74, 64
2, 120256, Control_c, 1, 64, 0
2, 120268, Note_on_c, 1, 45, 68
2, 120276, Note_on_c, 1, 57, 66
2, 120276, Note_on_c, 1, 67, 71
2, 120276, Note_on_c, 1, 72, 68
2, 120296, Control_c, 1, 64, 127
2, 120332, Note_off_c, 1, 67, 64
2, 120332, Note_off_c, 1, 72, 64
2, 120348, Note_off_c, 1, 57, 64
2, 120352, Note_off_c, 1, 45, 64
2, 120392, Note_on_c, 1, 70, 66
2, 120396, Note_on_c, 1, 65, 67
2, 120468, Control_c, 1, 64, 0
2, 120520, Note_on_c, 1, 46, 66
2, 120520, Note_on_c, 1, 58, 56
2, 120540, Control_c, 1, 64, 127
2, 120552, Note_off_c, 1, 46, 64
2, 120564, Note_off_c, 1, 58, 64
2, 120740, Control_c, 1, 64, 0
2, 120780, Note_on_c, 1, 53, 64
2, 120784, Note_on_c, 1, 62, 60
2, 120784, Note_on_c, 1, 58, 56
2, 120812, Control_c, 1, 64, 127
2, 120828, Note_off_c, 1, 62, 64
2, 120832, Note_off_c, 1, 58, 64
2, 120840, Note_off_c, 1, 53, 64
2, 120960, Control_c, 1, 64, 0
2, 121048, Control_c, 1, 64, 127
2, 121056, Note_on_c, 1, 41, 61
2, 121080, Note_off_c, 1, 41, 64
2, 121300, Note_off_c, 1, 65, 0
2, 121304, Note_off_c, 1, 70, 0
2, 121308, Note_on_c, 1, 53, 70
2, 121316, Note_on_c, 1, 62, 49
2, 121320, Note_on_c, 1, 58, 37
2, 121344, Note_off_c, 1, 58, 64
2, 121348, Note_off_c, 1, 62, 64
2, 121364, Note_off_c, 1, 53, 64
2, 121384, Control_c, 1, 64, 0
2, 121432, Note_on_c, 1, 65, 68
2, 121556, Note_on_c, 1, 46, 53
2, 121560, Note_off_c, 1, 65, 64
2, 121560, Note_on_c, 1, 77, 78
2, 121612, Note_off_c, 1, 46, 64
2, 121664, Note_on_c, 1, 70, 56
2, 121668, Note_on_c, 1, 65, 59
2, 121668, Note_on_c, 1, 74, 61
2, 121804, Note_on_c, 1, 53, 64
2, 121808, Control_c, 1, 64, 127
2, 121812, Note_on_c, 1, 62, 52
2, 121812, Note_on_c, 1, 58, 33
2, 121840, Note_off_c, 1, 62, 64
2, 121840, Note_off_c, 1, 58, 64
2, 121856, Note_off_c, 1, 53, 64
2, 121892, Note_off_c, 1, 77, 64
2, 121920, Note_off_c, 1, 70, 64
2, 121920, Note_off_c, 1, 65, 64
2, 121920, Note_off_c, 1, 74, 64
2, 121932, Note_on_c, 1, 77, 71
2, 122012, Control_c, 1, 64, 0
2, 122072, Note_on_c, 1, 74, 60
2, 122076, Note_on_c, 1, 70, 54
2, 122076, Note_on_c, 1, 41, 62
2, 122080, Note_on_c, 1, 65, 55
2, 122120, Control_c, 1, 64, 127
2, 122124, Note_off_c, 1, 41, 64
2, 122344, Note_on_c, 1, 53, 69
2, 122344, Note_on_c, 1, 58, 56
2, 122348, Note_on_c, 1, 62, 54
2, 122352, Control_c, 1, 64, 0
2, 122416, Note_off_c, 1, 62, 64
2, 122432, Note_off_c, 1, 58, 64
2, 122440, Note_off_c, 1, 53, 64
2, 122484, Note_off_c, 1, 77, 0
2, 122532, Note_off_c, 1, 74, 64
2, 122556, Note_off_c, 1, 70, 64
2, 122568, Note_off_c, 1, 65, 64
2, 122596, Note_on_c, 1, 46, 68
2, 122604, Note_on_c, 1, 77, 78
2, 122608, Control_c, 1, 64, 127
2, 122624, Note_off_c, 1, 46, 64
2, 122716, Note_on_c, 1, 74, 61
2, 122716, Note_on_c, 1, 70, 60
2, 122720, Note_on_c, 1, 65, 63
2, 122844, Note_on_c, 1, 58, 64
2, 122844, Note_on_c, 1, 53, 65
2, 122848, Note_on_c, 1, 62, 64
2, 122868, Note_off_c, 1, 58, 64
2, 122868, Note_off_c, 1, 62, 64
2, 122876, Note_off_c, 1, 53, 64
2, 122920, Note_off_c, 1, 77, 64
2, 122932, Control_c, 1, 64, 0
2, 122968, Note_on_c, 1, 77, 78
2, 122980, Note_off_c, 1, 65, 64
2, 122980, Note_off_c, 1, 70, 64
2, 122980, Note_off_c, 1, 74, 64
2, 123092, Note_on_c, 1, 41, 67
2, 123100, Control_c, 1, 64, 127
2, 123104, Note_on_c, 1, 74, 62
2, 123104, Note_on_c, 1, 70, 57
2, 123108, Note_on_c, 1, 65, 62
2, 123116, Note_off_c, 1, 41, 64
2, 123260, Note_off_c, 1, 74, 64
2, 123260, Note_off_c, 1, 70, 64
2, 123268, Note_off_c, 1, 77, 64
2, 123288, Note_off_c, 1, 65, 64
2, 123360, Note_on_c, 1, 58, 59
2, 123360, Note_on_c, 1, 53, 66
2, 123364, Note_on_c, 1, 62, 58
2, 123384, Note_off_c, 1, 58, 64
2, 123388, Note_off_c, 1, 62, 64
2, 123392, Note_off_c, 1, 53, 64
2, 123472, Control_c, 1, 64, 0
2, 123488, Note_on_c, 1, 67, 83
2, 123488, Note_on_c, 1, 64, 75
2, 123608, Note_on_c, 1, 48, 68
2, 123640, Control_c, 1, 64, 127
2, 123676, Note_off_c, 1, 64, 64
2, 123696, Note_off_c, 1, 67, 64
2, 123844, Control_c, 1, 64, 0
2, 123860, Note_on_c, 1, 55, 56
2, 123860, Note_on_c, 1, 74, 78
2, 123864, Note_on_c, 1, 64, 68
2, 123864, Note_on_c, 1, 58, 43
2, 123904, Control_c, 1, 64, 127
2, 123980, Note_off_c, 1, 48, 64
2, 124008, Note_off_c, 1, 74, 64
2, 124008, Note_off_c, 1, 64, 64
2, 124008, Note_off_c, 1, 58, 64
2, 124052, Note_off_c, 1, 55, 64
2, 124128, Control_c, 1, 64, 0
2, 124132, Note_on_c, 1, 48, 50
2, 124136, Note_on_c, 1, 72, 65
2, 124140, Note_on_c, 1, 64, 65
2, 124192, Note_off_c, 1, 64, 64
2, 124196, Note_off_c, 1, 72, 64
2, 124268, Note_on_c, 1, 64, 67
2, 124268, Note_on_c, 1, 74, 69
2, 124392, Note_on_c, 1, 55, 54
2, 124392, Control_c, 1, 64, 127
2, 124396, Note_on_c, 1, 58, 54
2, 124400, Note_off_c, 1, 74, 64
2, 124404, Note_off_c, 1, 64, 64
2, 124456, Note_off_c, 1, 58, 64
2, 124464, Note_off_c, 1, 55, 64
2, 124488, Note_off_c, 1, 48, 64
2, 124508, Note_on_c, 1, 65, 66
2, 124512, Note_on_c, 1, 72, 66
2, 124512, Note_on_c, 1, 69, 65
2, 124608, Control_c, 1, 64, 0
2, 124640, Note_on_c, 1, 41, 66
2, 124644, Note_off_c, 1, 65, 64
2, 124644, Note_off_c, 1, 72, 64
2, 124648, Note_off_c, 1, 69, 64
2, 124648, Note_on_c, 1, 53, 60
2, 124672, Note_off_c, 1, 41, 64
2, 124680, Note_off_c, 1, 53, 64
2, 124904, Note_on_c, 1, 41, 65
2, 124904, Note_on_c, 1, 53, 65
2, 124908, Note_on_c, 1, 65, 83
2, 124908, Note_on_c, 1, 77, 96
2, 124912, Control_c, 1, 64, 127
2, 124928, Note_off_c, 1, 77, 64
2, 124932, Note_off_c, 1, 65, 64
2, 124956, Note_off_c, 1, 41, 64
2, 124968, Note_off_c, 1, 53, 64
2, 125140, Control_c, 1, 64, 0
2, 125168, Note_on_c, 1, 76, 90
2, 125172, Note_on_c, 1, 64, 85
2, 125172, Note_on_c, 1, 55, 73
2, 125176, Note_on_c, 1, 43, 75
2, 125196, Control_c, 1, 64, 127
2, 125208, Note_off_c, 1, 64, 64
2, 125216, Note_off_c, 1, 76, 64
2, 125248, Note_off_c, 1, 55, 64
2, 125260, Note_off_c, 1, 43, 64
2, 125400, Control_c, 1, 64, 0
2, 125428, Note_on_c, 1, 45, 71
2, 125432, Note_on_c, 1, 75, 83
2, 125432, Note_on_c, 1, 57, 70
2, 125432, Note_on_c, 1, 63, 78
2, 125448, Control_c, 1, 64, 127
2, 125476, Note_off_c, 1, 45, 64
2, 125484, Note_off_c, 1, 57, 64
2, 125500, Note_off_c, 1, 63, 64
2, 125508, Note_off_c, 1, 75, 64
2, 125564, Control_c, 1, 64, 0
2, 125680, Note_on_c, 1, 46, 73
2, 125680, Note_on_c, 1, 58, 70
2, 125680, Note_on_c, 1, 77, 83
2, 125708, Note_off_c, 1, 46, 64
2, 125720, Note_off_c, 1, 58, 64
2, 125808, Note_on_c, 1, 74, 78
2, 125812, Note_on_c, 1, 70, 71
2, 125812, Note_on_c, 1, 65, 78
2, 125928, Note_on_c, 1, 53, 77
2, 125932, Note_on_c, 1, 62, 69
2, 125932, Note_on_c, 1, 58, 67
2, 125948, Note_off_c, 1, 53, 64
2, 125948, Note_off_c, 1, 62, 64
2, 125948, Note_off_c, 1, 58, 64
2, 126016, Note_off_c, 1, 77, 64
2, 126060, Note_off_c, 1, 65, 64
2, 126064, Note_on_c, 1, 77, 75
2, 126072, Note_off_c, 1, 74, 64
2, 126080, Note_off_c, 1, 70, 64
2, 126184, Note_on_c, 1, 70, 67
2, 126188, Note_on_c, 1, 41, 69
2, 126188, Note_on_c, 1, 65, 69
2, 126188, Note_on_c, 1, 74, 68
2, 126204, Control_c, 1, 64, 127
2, 126216, Note_off_c, 1, 41, 0
2, 126440, Control_c, 1, 64, 0
2, 126452, Note_on_c, 1, 53, 78
2, 126452, Note_on_c, 1, 62, 70
2, 126452, Note_on_c, 1, 58, 66
2, 126492, Control_c, 1, 64, 127
2, 126508, Note_off_c, 1, 62, 64
2, 126528, Note_off_c, 1, 53, 64
2, 126528, Note_off_c, 1, 58, 64
2, 126572, Note_off_c, 1, 77, 0
2, 126572, Control_c, 1, 64, 0
2, 126580, Note_off_c, 1, 74, 0
2, 126588, Note_off_c, 1, 65, 0
2, 126616, Note_off_c, 1, 70, 0
2, 126704, Note_on_c, 1, 46, 70
2, 126708, Note_on_c, 1, 77, 85
2, 126736, Control_c, 1, 64, 127
2, 126740, Note_off_c, 1, 46, 64
2, 126768, Control_c, 1, 64, 0
2, 126824, Note_on_c, 1, 74, 75
2, 126824, Note_on_c, 1, 70, 73
2, 126828, Note_on_c, 1, 65, 71
2, 126968, Note_on_c, 1, 53, 77
2, 126968, Note_on_c, 1, 62, 70
2, 126972, Note_on_c, 1, 58, 64
2, 126988, Note_off_c, 1, 62, 64
2, 126988, Note_off_c, 1, 58, 64
2, 126992, Note_off_c, 1, 53, 64
2, 126992, Control_c, 1, 64, 127
2, 127040, Note_off_c, 1, 77, 64
2, 127052, Control_c, 1, 64, 0
2, 127080, Note_off_c, 1, 74, 64
2, 127084, Note_off_c, 1, 65, 64
2, 127084, Note_on_c, 1, 77, 78
2, 127092, Note_off_c, 1, 70, 64
2, 127216, Note_on_c, 1, 70, 67
2, 127216, Note_on_c, 1, 41, 73
2, 127220, Note_on_c, 1, 74, 71
2, 127224, Note_on_c, 1, 65, 70
2, 127224, Control_c, 1, 64, 127
2, 127240, Note_off_c, 1, 41, 64
2, 127436, Note_off_c, 1, 65, 64
2, 127440, Note_off_c, 1, 74, 64
2, 127452, Note_off_c, 1, 77, 64
2, 127460, Note_off_c, 1, 70, 64
2, 127472, Note_on_c, 1, 62, 67
2, 127472, Note_on_c, 1, 53, 63
2, 127472, Note_on_c, 1, 58, 55
2, 127492, Note_off_c, 1, 58, 64
2, 127492, Note_off_c, 1, 62, 64
2, 127508, Note_off_c, 1, 53, 64
2, 127588, Control_c, 1, 64, 0
2, 127600, Note_on_c, 1, 70, 65
2, 127600, Note_on_c, 1, 67, 78
2, 127724, Note_on_c, 1, 39, 67
2, 127724, Note_on_c, 1, 51, 64
2, 127784, Control_c, 1, 64, 127
2, 127856, Note_off_c, 1, 70, 0
2, 127856, Note_on_c, 1, 72, 73
2, 127876, Note_off_c, 1, 39, 64
2, 127876, Note_off_c, 1, 51, 64
2, 127880, Note_off_c, 1, 67, 0
2, 127912, Note_off_c, 1, 72, 64
2, 127976, Note_on_c, 1, 70, 66
2, 127976, Control_c, 1, 64, 0
2, 127980, Note_on_c, 1, 67, 80
2, 127980, Note_on_c, 1, 39, 67
2, 127984, Note_on_c, 1, 51, 66
2, 128056, Control_c, 1, 64, 127
2, 128132, Note_off_c, 1, 67, 64
2, 128132, Note_off_c, 1, 39, 64
2, 128132, Note_off_c, 1, 51, 64
2, 128140, Note_off_c, 1, 70, 64
2, 128200, Control_c, 1, 64, 0
2, 128236, Note_on_c, 1, 72, 68
2, 128236, Note_on_c, 1, 67, 73
2, 128240, Note_on_c, 1, 51, 69
2, 128244, Note_on_c, 1, 39, 70
2, 128260, Control_c, 1, 64, 127
2, 128304, Note_off_c, 1, 72, 64
2, 128304, Note_off_c, 1, 67, 64
2, 128360, Note_on_c, 1, 70, 67
2, 128364, Note_on_c, 1, 67, 73
2, 128388, Note_off_c, 1, 51, 64
2, 128388, Note_off_c, 1, 39, 64
2, 128416, Note_off_c, 1, 70, 64
2, 128416, Note_off_c, 1, 67, 64
2, 128460, Control_c, 1, 64, 0
2, 128480, Note_on_c, 1, 51, 64
2, 128484, Note_on_c, 1, 72, 73
2, 128484, Note_on_c, 1, 67, 78
2, 128484, Note_on_c, 1, 39, 64
2, 128504, Control_c, 1, 64, 127
2, 128524, Note_off_c, 1, 51, 64
2, 128524, Note_off_c, 1, 67, 64
2, 128532, Note_off_c, 1, 39, 64
2, 128540, Note_off_c, 1, 72, 64
2, 128616, Control_c, 1, 64, 0
2, 128620, Note_on_c, 1, 74, 80
2, 128620, Note_on_c, 1, 66, 65
2, 128732, Note_on_c, 1, 38, 83
2, 128736, Note_on_c, 1, 50, 78
2, 128748, Control_c, 1, 64, 127
2, 128760, Note_off_c, 1, 38, 64
2, 128764, Note_off_c, 1, 50, 64
2, 128964, Control_c, 1, 64, 0
2, 128992, Note_on_c, 1, 57, 78
2, 128996, Note_on_c, 1, 45, 83
2, 129020, Control_c, 1, 64, 127
2, 129096, Note_off_c, 1, 57, 0
2, 129112, Note_off_c, 1, 45, 0
2, 129228, Control_c, 1, 64, 0
2, 129252, Note_on_c, 1, 42, 78
2, 129256, Note_on_c, 1, 54, 83
2, 129292, Control_c, 1, 64, 127
2, 129312, Note_off_c, 1, 54, 64
2, 129324, Note_off_c, 1, 42, 64
2, 129492, Control_c, 1, 64, 0
2, 129516, Note_on_c, 1, 38, 78
2, 129516, Note_on_c, 1, 50, 71
2, 129520, Note_off_c, 1, 66, 0
2, 129580, Note_off_c, 1, 74, 0
2, 129584, Note_off_c, 1, 50, 64
2, 129588, Control_c, 1, 64, 127
2, 129604, Note_off_c, 1, 38, 64
2, 129628, Note_on_c, 1, 70, 70
2, 129648, Control_c, 1, 64, 0
2, 129772, Note_off_c, 1, 70, 64
2, 129772, Note_on_c, 1, 74, 71
2, 129780, Note_on_c, 1, 46, 43
2, 129784, Note_on_c, 1, 58, 36
2, 129828, Control_c, 1, 64, 127
2, 129876, Note_off_c, 1, 58, 64
2, 129888, Note_off_c, 1, 46, 64
2, 129896, Note_on_c, 1, 70, 66
2, 129928, Note_off_c, 1, 74, 64
2, 130008, Control_c, 1, 64, 0
2, 130020, Note_on_c, 1, 44, 66
2, 130020, Note_on_c, 1, 56, 60
2, 130020, Note_on_c, 1, 72, 78
2, 130056, Note_off_c, 1, 70, 64
2, 130072, Control_c, 1, 64, 127
2, 130140, Note_off_c, 1, 56, 64
2, 130148, Note_off_c, 1, 44, 64
2, 130148, Note_on_c, 1, 74, 80
2, 130180, Note_off_c, 1, 72, 64
2, 130264, Control_c, 1, 64, 0
2, 130268, Note_on_c, 1, 72, 75
2, 130268, Note_on_c, 1, 43, 71
2, 130272, Note_on_c, 1, 55, 69
2, 130296, Note_off_c, 1, 74, 64
2, 130352, Control_c, 1, 64, 127
2, 130388, Note_off_c, 1, 43, 64
2, 130392, Note_off_c, 1, 55, 64
2, 130400, Note_on_c, 1, 70, 71
2, 130408, Note_off_c, 1, 72, 0
2, 130508, Note_off_c, 1, 70, 0
2, 130508, Control_c, 1, 64, 0
2, 130524, Note_on_c, 1, 41, 71
2, 130524, Note_on_c, 1, 68, 69
2, 130532, Note_on_c, 1, 53, 75
2, 130572, Control_c, 1, 64, 127
2, 130592, Note_off_c, 1, 53, 64
2, 130604, Note_off_c, 1, 41, 64
2, 130644, Note_off_c, 1, 68, 64
2, 130644, Note_on_c, 1, 74, 88
2, 130680, Note_off_c, 1, 74, 64
2, 130764, Control_c, 1, 64, 0
2, 130780, Note_on_c, 1, 39, 71
2, 130780, Note_on_c, 1, 75, 71
2, 130784, Note_on_c, 1, 51, 77
2, 130784, Note_on_c, 1, 67, 85
2, 130808, Control_c, 1, 64, 127
2, 130812, Note_off_c, 1, 39, 64
2, 130816, Note_off_c, 1, 51, 64
2, 130996, Note_off_c, 1, 75, 64
2, 131028, Note_on_c, 1, 51, 66
2, 131028, Note_on_c, 1, 60, 64
2, 131032, Note_on_c, 1, 55, 66
2, 131040, Note_on_c, 1, 74, 88
2, 131044, Note_off_c, 1, 55, 64
2, 131048, Note_off_c, 1, 60, 64
2, 131056, Note_off_c, 1, 51, 64
2, 131116, Note_off_c, 1, 74, 64
2, 131140, Control_c, 1, 64, 0
2, 131168, Note_on_c, 1, 72, 85
2, 131276, Note_on_c, 1, 40, 70
2, 131284, Note_on_c, 1, 52, 65
2, 131284, Control_c, 1, 64, 127
2, 131296, Note_off_c, 1, 40, 64
2, 131312, Note_off_c, 1, 52, 64
2, 131408, Note_on_c, 1, 70, 77
2, 131412, Note_off_c, 1, 72, 64
2, 131444, Note_off_c, 1, 67, 64
2, 131536, Note_on_c, 1, 52, 58
2, 131544, Note_on_c, 1, 55, 70
2, 131544, Note_on_c, 1, 61, 59
2, 131544, Note_on_c, 1, 58, 65
2, 131544, Note_on_c, 1, 67, 80
2, 131548, Note_off_c, 1, 70, 64
2, 131560, Note_off_c, 1, 52, 64
2, 131564, Note_off_c, 1, 61, 64
2, 131564, Note_off_c, 1, 58, 64
2, 131568, Note_off_c, 1, 55, 64
2, 131652, Note_off_c, 1, 67, 64
2, 131656, Note_on_c, 1, 70, 75
2, 131752, Control_c, 1, 64, 0
2, 131784, Note_on_c, 1, 41, 70
2, 131788, Note_off_c, 1, 70, 64
2, 131792, Note_on_c, 1, 53, 70
2, 131792, Note_on_c, 1, 65, 75
2, 131812, Control_c, 1, 64, 127
2, 131848, Note_off_c, 1, 65, 0
2, 131860, Note_off_c, 1, 41, 0
2, 131868, Note_off_c, 1, 53, 0
2, 131920, Note_on_c, 1, 77, 80
2, 131920, Note_on_c, 1, 65, 77
2, 132028, Note_off_c, 1, 77, 64
2, 132044, Note_on_c, 1, 53, 78
2, 132048, Note_on_c, 1, 58, 68
2, 132048, Note_on_c, 1, 62, 68
2, 132064, Note_off_c, 1, 58, 64
2, 132064, Note_off_c, 1, 62, 64
2, 132072, Note_off_c, 1, 53, 64
2, 132076, Note_off_c, 1, 65, 64
2, 132172, Note_on_c, 1, 65, 71
2, 132172, Note_on_c, 1, 74, 83
2, 132200, Note_off_c, 1, 65, 64
2, 132200, Note_off_c, 1, 74, 64
2, 132300, Control_c, 1, 64, 0
2, 132304, Note_on_c, 1, 43, 73
2, 132308, Note_on_c, 1, 64, 77
2, 132308, Note_on_c, 1, 72, 75
2, 132308, Note_on_c, 1, 70, 66
2, 132308, Note_on_c, 1, 55, 68
2, 132368, Control_c, 1, 64, 127
2, 132396, Note_off_c, 1, 64, 64
2, 132396, Note_off_c, 1, 72, 64
2, 132404, Note_off_c, 1, 70, 64
2, 132432, Note_off_c, 1, 43, 64
2, 132448, Note_off_c, 1, 55, 64
2, 132540, Control_c, 1, 64, 0
2, 132568, Note_on_c, 1, 45, 78
2, 132568, Note_on_c, 1, 57, 69
2, 132572, Note_on_c, 1, 72, 78
2, 132572, Note_on_c, 1, 63, 65
2, 132596, Control_c, 1, 64, 127
2, 132640, Note_off_c, 1, 57, 64
2, 132640, Note_off_c, 1, 63, 64
2, 132648, Note_off_c, 1, 72, 64
2, 132652, Note_off_c, 1, 45, 64
2, 132688, Note_on_c, 1, 70, 71
2, 132692, Note_on_c, 1, 62, 75
2, 132728, Control_c, 1, 64, 0
2, 132796, Note_off_c, 1, 62, 64
2, 132816, Note_off_c, 1, 70, 64
2, 132816, Note_on_c, 1, 58, 71
2, 132816, Note_on_c, 1, 46, 77
2, 132836, Control_c, 1, 64, 127
2, 132852, Note_off_c, 1, 46, 64
2, 132860, Note_off_c, 1, 58, 64
2, 132936, Note_on_c, 1, 77, 90
2, 132936, Note_on_c, 1, 65, 73
2, 132948, Control_c, 1, 64, 0
2, 133072, Control_c, 1, 64, 127
2, 133076, Note_off_c, 1, 77, 64
2, 133080, Note_on_c, 1, 62, 71
2, 133080, Note_on_c, 1, 53, 73
2, 133084, Note_off_c, 1, 65, 64
2, 133084, Note_on_c, 1, 58, 40
2, 133196, Note_off_c, 1, 58, 64
2, 133200, Note_off_c, 1, 62, 0
2, 133200, Note_off_c, 1, 53, 0
2, 133336, Note_on_c, 1, 53, 77
2, 133336, Note_on_c, 1, 58, 57
2, 133336, Control_c, 1, 64, 0
2, 133340, Note_on_c, 1, 77, 85
2, 133340, Note_on_c, 1, 62, 67
2, 133344, Note_on_c, 1, 65, 83
2, 133388, Control_c, 1, 64, 127
2, 133408, Note_off_c, 1, 53, 64
2, 133416, Note_off_c, 1, 58, 64
2, 133416, Note_off_c, 1, 62, 64
2, 133420, Note_off_c, 1, 77, 64
2, 133444, Note_off_c, 1, 65, 64
2, 133604, Control_c, 1, 64, 0
2, 133608, Note_on_c, 1, 77, 93
2, 133608, Note_on_c, 1, 69, 90
2, 133608, Note_on_c, 1, 53, 83
2, 133612, Note_on_c, 1, 60, 78
2, 133612, Note_on_c, 1, 65, 75
2, 133612, Note_on_c, 1, 63, 65
2, 133652, Control_c, 1, 64, 127
2, 133684, Note_off_c, 1, 63, 64
2, 133696, Note_off_c, 1, 60, 64
2, 133724, Note_off_c, 1, 53, 64
2, 133736, Note_off_c, 1, 69, 64
2, 133744, Control_c, 1, 64, 0
2, 133752, Note_off_c, 1, 77, 64
2, 133760, Note_off_c, 1, 65, 64
2, 133852, Control_c, 1, 64, 127
2, 133864, Note_on_c, 1, 34, 83
2, 133864, Note_on_c, 1, 46, 103
2, 133864, Note_on_c, 1, 77, 93
2, 133880, Note_off_c, 1, 34, 64
2, 133880, Note_off_c, 1, 46, 64
2, 134000, Note_on_c, 1, 70, 80
2, 134000, Note_on_c, 1, 74, 88
2, 134008, Note_off_c, 1, 77, 64
2, 134008, Note_on_c, 1, 65, 78
2, 134120, Control_c, 1, 64, 0
2, 134124, Note_on_c, 1, 62, 70
2, 134124, Note_on_c, 1, 58, 73
2, 134128, Note_on_c, 1, 53, 85
2, 134144, Note_off_c, 1, 62, 64
2, 134144, Note_off_c, 1, 58, 64
2, 134144, Note_off_c, 1, 53, 64
2, 134236, Note_off_c, 1, 65, 64
2, 134240, Note_off_c, 1, 74, 64
2, 134240, Note_on_c, 1, 77, 83
2, 134248, Note_off_c, 1, 70, 64
2, 134368, Note_on_c, 1, 29, 80
2, 134368, Note_on_c, 1, 74, 88
2, 134368, Note_on_c, 1, 41, 78
2, 134368, Note_on_c, 1, 70, 85
2, 134368, Note_on_c, 1, 65, 88
2, 134380, Control_c, 1, 64, 127
2, 134396, Note_off_c, 1, 29, 64
2, 134400, Note_off_c, 1, 41, 64
2, 134628, Note_on_c, 1, 53, 90
2, 134632, Note_on_c, 1, 62, 75
2, 134632, Note_on_c, 1, 58, 73
2, 134652, Note_off_c, 1, 53, 64
2, 134652, Note_off_c, 1, 62, 64
2, 134652, Note_off_c, 1, 58, 64
2, 134704, Note_off_c, 1, 77, 0
2, 134704, Note_off_c, 1, 74, 0
2, 134704, Control_c, 1, 64, 0
2, 134708, Note_off_c, 1, 65, 0
2, 134712, Note_off_c, 1, 70, 0
2, 134900, Note_on_c, 1, 34, 78
2, 134900, Note_on_c, 1, 46, 90
2, 134904, Note_on_c, 1, 77, 100
2, 134904, Control_c, 1, 64, 127
2, 134932, Note_off_c, 1, 34, 64
2, 134944, Note_off_c, 1, 46, 64
2, 135028, Note_on_c, 1, 70, 75
2, 135032, Note_on_c, 1, 74, 78
2, 135032, Note_on_c, 1, 65, 83
2, 135172, Note_on_c, 1, 62, 77
2, 135172, Note_on_c, 1, 53, 85
2, 135176, Note_on_c, 1, 58, 73
2, 135188, Note_off_c, 1, 62, 64
2, 135192, Note_off_c, 1, 58, 64
2, 135196, Note_off_c, 1, 53, 64
2, 135216, Note_off_c, 1, 77, 64
2, 135240, Note_off_c, 1, 74, 64
2, 135252, Note_off_c, 1, 65, 64
2, 135256, Note_off_c, 1, 70, 64
2, 135288, Note_on_c, 1, 77, 83
2, 135288, Control_c, 1, 64, 0
2, 135424, Note_on_c, 1, 29, 83
2, 135428, Note_on_c, 1, 41, 73
2, 135428, Note_on_c, 1, 74, 90
2, 135432, Note_on_c, 1, 70, 78
2, 135432, Note_on_c, 1, 65, 80
2, 135440, Control_c, 1, 64, 127
2, 135452, Note_off_c, 1, 29, 64
2, 135460, Note_off_c, 1, 41, 64
2, 135664, Note_off_c, 1, 65, 64
2, 135676, Note_off_c, 1, 74, 64
2, 135684, Note_off_c, 1, 70, 64
2, 135688, Note_off_c, 1, 77, 64
2, 135692, Note_on_c, 1, 53, 85
2, 135692, Note_on_c, 1, 62, 71
2, 135704, Note_on_c, 1, 58, 68
2, 135712, Note_off_c, 1, 62, 64
2, 135720, Note_off_c, 1, 53, 64
2, 135720, Note_off_c, 1, 58, 64
2, 135824, Note_on_c, 1, 70, 73
2, 135828, Note_on_c, 1, 67, 80
2, 135832, Control_c, 1, 64, 0
2, 135956, Note_on_c, 1, 39, 71
2, 135956, Note_on_c, 1, 27, 83
2, 136080, Control_c, 1, 64, 127
2, 136092, Note_off_c, 1, 70, 0
2, 136092, Note_on_c, 1, 72, 77
2, 136148, Note_off_c, 1, 67, 0
2, 136148, Note_off_c, 1, 39, 0
2, 136156, Note_off_c, 1, 27, 0
2, 136164, Note_off_c, 1, 72, 64
2, 136212, Control_c, 1, 64, 0
2, 136224, Note_on_c, 1, 74, 88
2, 136224, Note_on_c, 1, 67, 85
2, 136224, Note_on_c, 1, 41, 72
2, 136320, Control_c, 1, 64, 127
2, 136344, Note_off_c, 1, 41, 64
2, 136344, Note_on_c, 1, 70, 70
2, 136388, Note_off_c, 1, 74, 64
2, 136412, Note_off_c, 1, 67, 64
2, 136436, Note_off_c, 1, 70, 64
2, 136484, Note_on_c, 1, 72, 77
2, 136484, Note_on_c, 1, 67, 85
2, 136484, Control_c, 1, 64, 0
2, 136488, Note_on_c, 1, 43, 75
2, 136560, Control_c, 1, 64, 127
2, 136572, Note_off_c, 1, 43, 64
2, 136596, Note_off_c, 1, 72, 64
2, 136604, Note_on_c, 1, 74, 80
2, 136664, Note_off_c, 1, 67, 64
2, 136688, Note_off_c, 1, 74, 64
2, 136724, Control_c, 1, 64, 0
2, 136732, Note_on_c, 1, 72, 88
2, 136740, Note_on_c, 1, 67, 85
2, 136740, Note_on_c, 1, 45, 82
2, 136784, Control_c, 1, 64, 127
2, 136792, Note_off_c, 1, 45, 64
2, 136804, Note_off_c, 1, 67, 64
2, 136828, Note_off_c, 1, 72, 64
2, 136860, Note_on_c, 1, 70, 75
2, 136864, Note_on_c, 1, 65, 78
2, 136972, Control_c, 1, 64, 0
2, 137000, Note_on_c, 1, 46, 93
2, 137000, Note_on_c, 1, 34, 73
2, 137044, Control_c, 1, 64, 127
2, 137060, Note_off_c, 1, 34, 64
2, 137064, Note_off_c, 1, 46, 64
2, 137256, Note_on_c, 1, 62, 78
2, 137256, Note_on_c, 1, 53, 90
2, 137260, Note_on_c, 1, 58, 73
2, 137276, Note_off_c, 1, 62, 64
2, 137276, Note_off_c, 1, 58, 64
2, 137280, Note_off_c, 1, 53, 64
2, 137312, Control_c, 1, 64, 0
2, 137524, Note_on_c, 1, 29, 78
2, 137524, Note_on_c, 1, 41, 80
2, 137536, Control_c, 1, 64, 127
2, 137548, Note_off_c, 1, 29, 0
2, 137552, Note_off_c, 1, 41, 0
2, 137776, Note_off_c, 1, 65, 0
2, 137784, Note_off_c, 1, 70, 0
2, 137788, Note_on_c, 1, 62, 71
2, 137788, Note_on_c, 1, 53, 83
2, 137792, Note_on_c, 1, 58, 70
2, 137808, Note_off_c, 1, 62, 64
2, 137808, Note_off_c, 1, 58, 64
2, 137812, Note_off_c, 1, 53, 64
2, 137896, Control_c, 1, 64, 0
2, 137920, Note_on_c, 1, 65, 83
2, 138040, Note_off_c, 1, 65, 64
2, 138048, Note_on_c, 1, 77, 88
2, 138052, Note_on_c, 1, 34, 88
2, 138052, Control_c, 1, 64, 127
2, 138056, Note_on_c, 1, 46, 90
2, 138072, Note_off_c, 1, 34, 64
2, 138076, Note_off_c, 1, 46, 64
2, 138180, Note_on_c, 1, 74, 88
2, 138184, Note_on_c, 1, 70, 78
2, 138184, Note_on_c, 1, 65, 83
2, 138312, Note_on_c, 1, 62, 69
2, 138312, Note_on_c, 1, 58, 68
2, 138316, Note_on_c, 1, 53, 73
2, 138320, Note_off_c, 1, 77, 64
2, 138328, Note_off_c, 1, 62, 64
2, 138328, Note_off_c, 1, 58, 64
2, 138340, Note_off_c, 1, 53, 64
2, 138396, Control_c, 1, 64, 0
2, 138424, Note_off_c, 1, 74, 64
2, 138428, Note_off_c, 1, 65, 64
2, 138436, Note_off_c, 1, 70, 64
2, 138440, Note_on_c, 1, 77, 93
2, 138568, Note_on_c, 1, 29, 78
2, 138568, Note_on_c, 1, 74, 83
2, 138572, Note_on_c, 1, 70, 78
2, 138572, Note_on_c, 1, 65, 88
2, 138576, Note_on_c, 1, 41, 77
2, 138584, Control_c, 1, 64, 127
2, 138592, Note_off_c, 1, 29, 64
2, 138604, Note_off_c, 1, 41, 64
2, 138836, Note_on_c, 1, 53, 85
2, 138840, Note_on_c, 1, 62, 73
2, 138844, Note_on_c, 1, 58, 66
2, 138852, Note_off_c, 1, 62, 64
2, 138860, Note_off_c, 1, 53, 64
2, 138860, Note_off_c, 1, 58, 64
2, 138896, Note_off_c, 1, 77, 64
2, 138900, Note_off_c, 1, 74, 64
2, 138908, Note_off_c, 1, 70, 64
2, 138912, Note_off_c, 1, 65, 64
2, 138916, Control_c, 1, 64, 0
2, 139100, Note_on_c, 1, 77, 97
2, 139100, Note_on_c, 1, 46, 85
2, 139100, Note_on_c, 1, 34, 71
2, 139100, Control_c, 1, 64, 127
2, 139124, Note_off_c, 1, 34, 64
2, 139132, Note_off_c, 1, 46, 64
2, 139220, Note_on_c, 1, 70, 73
2, 139220, Note_on_c, 1, 74, 80
2, 139224, Note_on_c, 1, 65, 83
2, 139360, Note_on_c, 1, 58, 70
2, 139360, Note_on_c, 1, 53, 78
2, 139364, Note_on_c, 1, 62, 66
2, 139376, Note_off_c, 1, 77, 64
2, 139376, Note_off_c, 1, 62, 64
2, 139380, Note_off_c, 1, 58, 64
2, 139380, Note_off_c, 1, 53, 64
2, 139412, Note_off_c, 1, 74, 64
2, 139416, Note_off_c, 1, 70, 64
2, 139432, Note_off_c, 1, 65, 64
2, 139476, Control_c, 1, 64, 0
2, 139480, Note_on_c, 1, 77, 90
2, 139612, Note_on_c, 1, 74, 88
2, 139612, Note_on_c, 1, 70, 83
2, 139616, Note_on_c, 1, 65, 88
2, 139616, Note_on_c, 1, 29, 73
2, 139616, Note_on_c, 1, 41, 70
2, 139624, Control_c, 1, 64, 127
2, 139636, Note_off_c, 1, 29, 64
2, 139648, Note_off_c, 1, 41, 64
2, 139816, Note_off_c, 1, 70, 64
2, 139828, Note_off_c, 1, 74, 64
2, 139832, Note_off_c, 1, 77, 64
2, 139840, Note_off_c, 1, 65, 64
2, 139864, Note_on_c, 1, 62, 70
2, 139872, Note_on_c, 1, 58, 66
2, 139872, Note_on_c, 1, 53, 65
2, 139884, Note_off_c, 1, 62, 64
2, 139884, Note_off_c, 1, 58, 64
2, 139892, Note_off_c, 1, 53, 64
2, 139984, Note_on_c, 1, 67, 83
2, 139988, Note_on_c, 1, 64, 77
2, 140108, Note_on_c, 1, 48, 90
2, 140108, Control_c, 1, 64, 0
2, 140304, Note_off_c, 1, 64, 64
2, 140344, Note_off_c, 1, 67, 64
2, 140372, Note_on_c, 1, 74, 83
2, 140372, Note_on_c, 1, 55, 66
2, 140372, Note_on_c, 1, 58, 65
2, 140380, Note_on_c, 1, 64, 77
2, 140400, Control_c, 1, 64, 127
2, 140492, Note_off_c, 1, 58, 0
2, 140504, Note_off_c, 1, 48, 0
2, 140508, Note_off_c, 1, 74, 0
2, 140520, Note_off_c, 1, 64, 0
2, 140556, Note_off_c, 1, 55, 0
2, 140624, Note_on_c, 1, 48, 68
2, 140624, Control_c, 1, 64, 0
2, 140628, Note_on_c, 1, 72, 73
2, 140628, Note_on_c, 1, 64, 73
2, 140704, Note_off_c, 1, 64, 64
2, 140716, Note_off_c, 1, 72, 64
2, 140756, Note_on_c, 1, 74, 78
2, 140756, Note_on_c, 1, 64, 77
2, 140884, Note_on_c, 1, 58, 64
2, 140884, Note_on_c, 1, 55, 68
2, 140888, Control_c, 1, 64, 127
2, 140892, Note_off_c, 1, 64, 64
2, 140896, Note_off_c, 1, 74, 64
2, 140940, Note_off_c, 1, 58, 64
2, 140956, Note_off_c, 1, 55, 64
2, 140976, Note_off_c, 1, 48, 64
2, 141008, Note_on_c, 1, 65, 73
2, 141008, Note_on_c, 1, 72, 70
2, 141008, Note_on_c, 1, 69, 73
2, 141104, Control_c, 1, 64, 0
2, 141140, Note_on_c, 1, 53, 83
2, 141144, Note_on_c, 1, 41, 78
2, 141156, Note_off_c, 1, 65, 64
2, 141160, Note_off_c, 1, 72, 64
2, 141164, Note_off_c, 1, 69, 64
2, 141260, Note_off_c, 1, 53, 64
2, 141260, Note_off_c, 1, 41, 64
2, 141400, Note_on_c, 1, 77, 88
2, 141404, Note_on_c, 1, 65, 80
2, 141408, Note_on_c, 1, 41, 73
2, 141412, Note_on_c, 1, 53, 88
2, 141424, Control_c, 1, 64, 127
2, 141500, Note_off_c, 1, 77, 64
2, 141504, Note_off_c, 1, 65, 64
2, 141504, Note_off_c, 1, 41, 64
2, 141520, Note_off_c, 1, 53, 64
2, 141624, Control_c, 1, 64, 0
2, 141672, Note_on_c, 1, 76, 90
2, 141672, Note_on_c, 1, 64, 90
2, 141672, Note_on_c, 1, 43, 80
2, 141672, Note_on_c, 1, 55, 78
2, 141688, Control_c, 1, 64, 127
2, 141756, Note_off_c, 1, 55, 64
2, 141760, Note_off_c, 1, 64, 64
2, 141768, Note_off_c, 1, 76, 64
2, 141784, Note_off_c, 1, 43, 64
2, 141908, Control_c, 1, 64, 0
2, 141936, Note_on_c, 1, 45, 80
2, 141936, Note_on_c, 1, 75, 96
2, 141936, Note_on_c, 1, 57, 71
2, 141940, Note_on_c, 1, 63, 88
2, 141972, Control_c, 1, 64, 127
2, 142004, Note_off_c, 1, 57, 64
2, 142028, Note_off_c, 1, 45, 64
2, 142028, Note_off_c, 1, 63, 64
2, 142040, Note_off_c, 1, 75, 64
2, 142092, Control_c, 1, 64, 0
2, 142196, Note_on_c, 1, 77, 88
2, 142200, Note_on_c, 1, 34, 80
2, 142200, Note_on_c, 1, 46, 85
2, 142216, Control_c, 1, 64, 127
2, 142220, Note_off_c, 1, 34, 64
2, 142228, Note_off_c, 1, 46, 64
2, 142324, Note_on_c, 1, 74, 77
2, 142328, Note_on_c, 1, 70, 75
2, 142328, Note_on_c, 1, 65, 75
2, 142452, Note_on_c, 1, 62, 71
2, 142452, Note_on_c, 1, 53, 85
2, 142456, Note_on_c, 1, 58, 63
2, 142468, Note_off_c, 1, 62, 64
2, 142472, Note_off_c, 1, 58, 64
2, 142472, Control_c, 1, 64, 0
2, 142480, Note_off_c, 1, 53, 64
2, 142536, Note_off_c, 1, 77, 64
2, 142548, Note_off_c, 1, 74, 64
2, 142552, Note_off_c, 1, 65, 64
2, 142560, Note_off_c, 1, 70, 64
2, 142576, Note_on_c, 1, 77, 90
2, 142704, Note_on_c, 1, 29, 80
2, 142708, Note_on_c, 1, 74, 93
2, 142708, Note_on_c, 1, 41, 77
2, 142708, Note_on_c, 1, 70, 85
2, 142708, Note_on_c, 1, 65, 90
2, 142720, Control_c, 1, 64, 127
2, 142728, Note_off_c, 1, 29, 64
2, 142744, Note_off_c, 1, 41, 64
2, 142968, Note_on_c, 1, 62, 77
2, 142968, Note_on_c, 1, 53, 73
2, 142972, Note_on_c, 1, 58, 66
2, 142984, Note_off_c, 1, 58, 64
2, 142988, Note_off_c, 1, 62, 64
2, 142988, Note_off_c, 1, 53, 64
2, 143028, Control_c, 1, 64, 0
2, 143032, Note_off_c, 1, 74, 64
2, 143036, Note_off_c, 1, 77, 64
2, 143040, Note_off_c, 1, 65, 64
2, 143040, Note_off_c, 1, 70, 64
2, 143228, Note_on_c, 1, 77, 96
2, 143232, Note_on_c, 1, 46, 85
2, 143232, Note_on_c, 1, 34, 69
2, 143252, Control_c, 1, 64, 127
2, 143256, Note_off_c, 1, 34, 64
2, 143272, Note_off_c, 1, 46, 64
2, 143360, Note_on_c, 1, 70, 80
2, 143360, Note_on_c, 1, 74, 88
2, 143360, Note_on_c, 1, 65, 88
2, 143492, Note_on_c, 1, 53, 83
2, 143492, Note_on_c, 1, 62, 70
2, 143500, Note_off_c, 1, 74, 0
2, 143500, Note_on_c, 1, 58, 66
2, 143504, Note_off_c, 1, 77, 0
2, 143508, Note_off_c, 1, 62, 64
2, 143508, Note_off_c, 1, 58, 64
2, 143512, Note_off_c, 1, 70, 0
2, 143512, Note_off_c, 1, 53, 64
2, 143520, Note_off_c, 1, 65, 0
2, 143596, Control_c, 1, 64, 0
2, 143612, Note_on_c, 1, 77, 90
2, 143740, Note_on_c, 1, 29, 93
2, 143740, Note_on_c, 1, 74, 90
2, 143744, Note_on_c, 1, 70, 83
2, 143744, Note_on_c, 1, 41, 73
2, 143744, Note_on_c, 1, 65, 88
2, 143748, Control_c, 1, 64, 127
2, 143772, Note_off_c, 1, 29, 64
2, 143776, Note_off_c, 1, 41, 64
2, 143992, Note_off_c, 1, 74, 64
2, 144000, Note_off_c, 1, 65, 64
2, 144000, Note_on_c, 1, 53, 85
2, 144000, Note_on_c, 1, 58, 68
2, 144000, Note_on_c, 1, 62, 70
2, 144008, Note_off_c, 1, 77, 64
2, 144008, Note_off_c, 1, 70, 64
2, 144016, Note_off_c, 1, 58, 64
2, 144016, Note_off_c, 1, 62, 64
2, 144020, Note_off_c, 1, 53, 64
2, 144120, Note_on_c, 1, 70, 78
2, 144120, Note_on_c, 1, 67, 83
2, 144124, Control_c, 1, 64, 0
2, 144252, Note_on_c, 1, 39, 78
2, 144252, Note_on_c, 1, 27, 78
2, 144364, Control_c, 1, 64, 127
2, 144372, Note_on_c, 1, 72, 78
2, 144380, Note_off_c, 1, 70, 64
2, 144408, Note_off_c, 1, 67, 64
2, 144428, Note_off_c, 1, 27, 64
2, 144428, Note_off_c, 1, 39, 64
2, 144448, Note_off_c, 1, 72, 64
2, 144504, Note_on_c, 1, 70, 70
2, 144508, Note_on_c, 1, 67, 83
2, 144512, Note_on_c, 1, 27, 83
2, 144512, Note_on_c, 1, 39, 71
2, 144512, Control_c, 1, 64, 0
2, 144600, Control_c, 1, 64, 127
2, 144680, Note_off_c, 1, 39, 64
2, 144688, Note_off_c, 1, 67, 64
2, 144688, Note_off_c, 1, 27, 64
2, 144700, Note_off_c, 1, 70, 64
2, 144752, Control_c, 1, 64, 0
2, 144768, Note_on_c, 1, 27, 73
2, 144772, Note_on_c, 1, 39, 73
2, 144772, Note_on_c, 1, 72, 80
2, 144772, Note_on_c, 1, 67, 80
2, 144852, Note_off_c, 1, 67, 0
2, 144864, Note_off_c, 1, 72, 0
2, 144892, Control_c, 1, 64, 127
2, 144900, Note_on_c, 1, 70, 68
2, 144900, Note_on_c, 1, 67, 78
2, 144948, Note_off_c, 1, 39, 0
2, 144960, Note_off_c, 1, 27, 0
2, 144960, Note_off_c, 1, 67, 64
2, 144972, Note_off_c, 1, 70, 64
2, 145000, Control_c, 1, 64, 0
2, 145028, Note_on_c, 1, 72, 77
2, 145032, Note_on_c, 1, 67, 80
2, 145032, Note_on_c, 1, 27, 73
2, 145032, Note_on_c, 1, 39, 65
2, 145064, Note_off_c, 1, 67, 64
2, 145076, Note_off_c, 1, 72, 64
2, 145128, Note_off_c, 1, 39, 64
2, 145148, Note_off_c, 1, 27, 64
2, 145188, Note_on_c, 1, 66, 78
2, 145188, Note_on_c, 1, 74, 80
2, 145292, Note_on_c, 1, 26, 85
2, 145292, Note_on_c, 1, 38, 90
2, 145316, Control_c, 1, 64, 127
2, 145320, Note_off_c, 1, 26, 64
2, 145328, Note_off_c, 1, 38, 64
2, 145528, Control_c, 1, 64, 0
2, 145552, Note_on_c, 1, 45, 88
2, 145552, Note_on_c, 1, 57, 83
2, 145580, Control_c, 1, 64, 127
2, 145592, Note_off_c, 1, 57, 64
2, 145660, Note_off_c, 1, 45, 64
2, 145792, Control_c, 1, 64, 0
2, 145812, Note_on_c, 1, 54, 80
2, 145812, Note_on_c, 1, 42, 75
2, 145848, Control_c, 1, 64, 127
2, 145852, Note_off_c, 1, 54, 64
2, 145860, Note_off_c, 1, 42, 64
2, 146040, Control_c, 1, 64, 0
2, 146060, Note_on_c, 1, 50, 77
2, 146060, Note_on_c, 1, 38, 77
2, 146128, Note_off_c, 1, 50, 64
2, 146128, Note_off_c, 1, 38, 64
2, 146176, Note_off_c, 1, 66, 64
2, 146188, Note_on_c, 1, 70, 66
2, 146208, Note_off_c, 1, 74, 64
2, 146320, Note_on_c, 1, 74, 77
2, 146328, Note_off_c, 1, 70, 0
2, 146328, Note_on_c, 1, 58, 59
2, 146332, Note_on_c, 1, 46, 67
2, 146356, Note_off_c, 1, 46, 64
2, 146364, Note_off_c, 1, 58, 64
2, 146444, Note_on_c, 1, 70, 70
2, 146460, Note_off_c, 1, 74, 64
2, 146572, Note_on_c, 1, 44, 62
2, 146572, Note_on_c, 1, 56, 64
2, 146576, Note_on_c, 1, 72, 77
2, 146588, Control_c, 1, 64, 127
2, 146616, Note_off_c, 1, 70, 64
2, 146660, Note_off_c, 1, 56, 64
2, 146680, Note_off_c, 1, 44, 64
2, 146696, Note_on_c, 1, 74, 89
2, 146736, Note_off_c, 1, 72, 64
2, 146816, Note_on_c, 1, 43, 75
2, 146816, Note_on_c, 1, 72, 79
2, 146816, Control_c, 1, 64, 0
2, 146820, Note_on_c, 1, 55, 73
2, 146836, Note_off_c, 1, 74, 64
2, 146920, Control_c, 1, 64, 127
2, 146948, Note_on_c, 1, 70, 83
2, 146952, Note_off_c, 1, 43, 64
2, 146960, Note_off_c, 1, 72, 64
2, 146968, Note_off_c, 1, 55, 64
2, 147060, Note_off_c, 1, 70, 64
2, 147068, Note_on_c, 1, 68, 87
2, 147068, Control_c, 1, 64, 0
2, 147076, Note_on_c, 1, 41, 83
2, 147076, Note_on_c, 1, 53, 85
2, 147164, Control_c, 1, 64, 127
2, 147172, Note_off_c, 1, 53, 64
2, 147188, Note_off_c, 1, 41, 64
2, 147204, Note_on_c, 1, 74, 88
2, 147212, Note_off_c, 1, 68, 64
2, 147228, Note_off_c, 1, 74, 64
2, 147336, Control_c, 1, 64, 0
2, 147352, Note_on_c, 1, 51, 93
2, 147352, Note_on_c, 1, 39, 93
2, 147352, Note_on_c, 1, 67, 88
2, 147352, Note_on_c, 1, 75, 91
2, 147388, Control_c, 1, 64, 127
2, 147396, Note_off_c, 1, 39, 64
2, 147400, Note_off_c, 1, 51, 64
2, 147608, Note_off_c, 1, 75, 64
2, 147608, Note_on_c, 1, 51, 69
2, 147608, Note_on_c, 1, 60, 70
2, 147608, Note_on_c, 1, 74, 86
2, 147608, Note_on_c, 1, 55, 74
2, 147628, Note_off_c, 1, 60, 64
2, 147628, Note_off_c, 1, 55, 64
2, 147636, Note_off_c, 1, 51, 64
2, 147728, Note_off_c, 1, 74, 64
2, 147736, Note_on_c, 1, 72, 83
2, 147836, Control_c, 1, 64, 0
2, 147848, Note_on_c, 1, 40, 86
2, 147848, Note_on_c, 1, 52, 80
2, 147884, Control_c, 1, 64, 127
2, 147888, Note_off_c, 1, 52, 64
2, 147900, Note_off_c, 1, 40, 64
2, 147984, Note_on_c, 1, 70, 85
2, 147996, Note_off_c, 1, 67, 0
2, 147996, Note_off_c, 1, 72, 0
2, 148116, Note_on_c, 1, 52, 80
2, 148116, Note_on_c, 1, 55, 80
2, 148116, Note_on_c, 1, 61, 60
2, 148124, Note_off_c, 1, 70, 64
2, 148124, Note_on_c, 1, 67, 86
2, 148140, Note_off_c, 1, 61, 64
2, 148144, Note_off_c, 1, 52, 64
2, 148144, Note_off_c, 1, 55, 64
2, 148232, Note_off_c, 1, 67, 64
2, 148236, Note_on_c, 1, 70, 88
2, 148344, Control_c, 1, 64, 0
2, 148368, Note_off_c, 1, 70, 64
2, 148368, Note_on_c, 1, 41, 83
2, 148368, Note_on_c, 1, 65, 90
2, 148372, Note_on_c, 1, 53, 80
2, 148396, Control_c, 1, 64, 127
2, 148444, Note_off_c, 1, 41, 64
2, 148448, Note_off_c, 1, 65, 64
2, 148448, Note_off_c, 1, 53, 64
2, 148520, Note_on_c, 1, 77, 93
2, 148520, Note_on_c, 1, 65, 80
2, 148652, Note_off_c, 1, 77, 64
2, 148652, Note_on_c, 1, 53, 88
2, 148652, Note_on_c, 1, 62, 77
2, 148656, Note_on_c, 1, 58, 75
2, 148676, Note_off_c, 1, 62, 64
2, 148680, Note_off_c, 1, 58, 64
2, 148684, Note_off_c, 1, 53, 64
2, 148688, Note_off_c, 1, 65, 64
2, 148792, Note_on_c, 1, 74, 96
2, 148792, Note_on_c, 1, 65, 78
2, 148820, Note_off_c, 1, 74, 64
2, 148820, Note_off_c, 1, 65, 64
2, 148932, Note_on_c, 1, 70, 81
2, 148932, Note_on_c, 1, 72, 96
2, 148936, Note_on_c, 1, 64, 88
2, 148936, Note_on_c, 1, 43, 83
2, 148936, Note_on_c, 1, 55, 88
2, 148936, Control_c, 1, 64, 0
2, 149004, Control_c, 1, 64, 127
2, 149032, Note_off_c, 1, 64, 64
2, 149040, Note_off_c, 1, 70, 64
2, 149044, Note_off_c, 1, 55, 64
2, 149044, Note_off_c, 1, 72, 64
2, 149064, Note_off_c, 1, 43, 64
2, 149164, Control_c, 1, 64, 0
2, 149204, Note_on_c, 1, 72, 89
2, 149204, Note_on_c, 1, 45, 90
2, 149204, Note_on_c, 1, 57, 80
2, 149208, Note_on_c, 1, 63, 78
2, 149228, Control_c, 1, 64, 127
2, 149252, Note_off_c, 1, 45, 0
2, 149268, Note_off_c, 1, 57, 0
2, 149284, Note_off_c, 1, 72, 0
2, 149292, Note_off_c, 1, 63, 0
2, 149348, Note_on_c, 1, 70, 77
2, 149352, Note_on_c, 1, 62, 83
2, 149476, Note_off_c, 1, 62, 64
2, 149484, Control_c, 1, 64, 0
2, 149488, Note_off_c, 1, 70, 64
2, 149500, Note_on_c, 1, 46, 89
2, 149500, Note_on_c, 1, 58, 85
2, 149532, Control_c, 1, 64, 127
2, 149596, Note_off_c, 1, 58, 64
2, 149616, Note_off_c, 1, 46, 64
2, 149648, Note_on_c, 1, 70, 96
2, 149756, Control_c, 1, 64, 0
2, 149800, Note_on_c, 1, 74, 95
2, 149800, Note_on_c, 1, 41, 93
2, 149800, Note_on_c, 1, 53, 96
2, 149828, Control_c, 1, 64, 127
2, 149836, Note_off_c, 1, 53, 64
2, 149848, Note_off_c, 1, 41, 64
2, 149948, Control_c, 1, 64, 0
2, 149956, Note_off_c, 1, 74, 64
2, 149968, Note_on_c, 1, 77, 96
2, 150024, Note_off_c, 1, 77, 64
2, 150028, Note_off_c, 1, 70, 64
2, 150160, Note_on_c, 1, 82, 104
2, 150164, Note_on_c, 1, 74, 108
2, 150164, Note_on_c, 1, 77, 100
2, 150164, Note_on_c, 1, 70, 96
2, 150168, Note_on_c, 1, 34, 117
2, 150168, Note_on_c, 1, 46, 116
2, 150172, Control_c, 1, 64, 127
2, 150240, Note_off_c, 1, 46, 64
2, 150248, Note_off_c, 1, 74, 64
2, 150248, Note_off_c, 1, 70, 64
2, 150252, Note_off_c, 1, 77, 64
2, 150268, Note_off_c, 1, 34, 64
2, 150280, Note_off_c, 1, 82, 64
2, 150448, Control_c, 1, 64, 0
2, 150448, End_track
3, 0, Start_track
3, 0, Title_t, "Alessandro Simonetto, piano"
3, 0, Key_signature, 0, "major"
3, 0, End_track
4, 0, Start_track
4, 0, Title_t, "Info: www.kunstderfuge.com/ragtime.htm!"
4, 0, Key_signature, 0, "major"
4, 0, End_track
5, 0, Start_track
5, 0, Title_t, "All rights reserved,  2003"
5, 0, Key_signature, 0, "major"
5, 0, End_track
6, 0, Start_track
6, 0, Key_signature, 0, "major"
6, 0, End_track
7, 0, Start_track
7, 0, Key_signature, 0, "major"
7, 0, End_track
8, 0, Start_track
8, 0, Key_signature, 0, "major"
8, 0, End_track
9, 0, Start_track
9, 0, Key_signature, 0, "major"
9, 0, End_track
10, 0, Start_track
10, 0, Key_signature, 0, "major"
10, 0, End_track
11, 0, Start_track
11, 0, Key_signature, 0, "major"
11, 0, End_track
12, 0, Start_track
12, 0, Key_signature, 0, "major"
12, 0, End_track
13, 0, Start_track
13, 0, Key_signature, 0, "major"
13, 0, End_track
14, 0, Start_track
14, 1, Copyright_t, "___________________________________________________\012\012KUNSTDERFUGE.COM LARGE CLASSICAL MIDI COLLECTION\012ONCLASSICAL BY ALESSANDRO SIMONETTO, PROPRIETOR\012___________________________________________________\012\012! Attention: this file is under copyright !\012\012(c)onclassical, (c)simonetto, 2010\012___________________________________________________\012\012NO ONE MAY REPUBLISH THIS FILE WITHOUT PERMISSION\012COMMERCIAL USES OF THIS FILE IS STRICTLY PROHIBITED\012___________________________________________________\012\012Files & contributor's list: http://kunstderfuge.com/\012Terms and conditions: http://kunstderfuge.com/notes.htm"
14, 1, End_track
0, 0, End_of_file
