0, 0, Header, 1, 3, 384
1, 0, Start_track
1, 0, Title_t, "Weeping Willow"
1, 0, Text_t, "/music_category: Piano_Roll\012"
1, 0, Text_t, "/title: Weeping Willow\012"
1, 0, Text_t, "/subtitle: \012"
1, 0, Text_t, "/roll_type: 88n\012"
1, 0, Text_t, "/roll_manufacturer: QRS.\012"
1, 0, Text_t, "/roll_number: 198\012"
1, 0, Text_t, "/original roll #: 10277\012"
1, 0, Text_t, "/original manufacturer: Connorized\012"
1, 0, Text_t, "/performer: Joplin, Scott\012"
1, 0, Text_t, "/composer: Joplin, Scott\012"
1, 0, Text_t, "/lyricist: \012"
1, 0, Text_t, "/copyright: 1916\012"
1, 0, Text_t, "/scanned_by:  Mick Hamer\012"
1, 0, Text_t, "/scan_system:  Ampico Vorsetzer - Disklavier\012"
1, 0, Text_t, "/date_scanned: 2005\012"
1, 0, Text_t, "/owner: Mick Hamer\012"
1, 0, Time_signature, 4, 2, 24, 8
1, 0, Key_signature, 0, "major"
1, 0, Tempo, 512821
1, 0, End_track
2, 0, Start_track
2, 0, Title_t, "Weeping Willow"
2, 0, Control_c, 0, 64, 0
2, 748, Note_on_c, 0, 74, 77
2, 748, Note_on_c, 0, 62, 72
2, 854, Note_on_c, 0, 73, 72
2, 858, Note_on_c, 0, 74, 0
2, 858, Note_on_c, 0, 61, 67
2, 865, Note_on_c, 0, 62, 0
2, 951, Note_on_c, 0, 74, 73
2, 955, Note_on_c, 0, 62, 68
2, 959, Note_on_c, 0, 61, 0
2, 959, Note_on_c, 0, 73, 0
2, 1065, Note_on_c, 0, 76, 74
2, 1070, Note_on_c, 0, 62, 0
2, 1090, Note_on_c, 0, 64, 67
2, 1093, Note_on_c, 0, 74, 0
2, 1159, Note_on_c, 0, 78, 69
2, 1159, Note_on_c, 0, 66, 70
2, 1168, Note_on_c, 0, 64, 0
2, 1191, Note_on_c, 0, 76, 0
2, 1366, Note_on_c, 0, 67, 72
2, 1392, Note_on_c, 0, 79, 68
2, 1398, Note_on_c, 0, 78, 0
2, 1398, Note_on_c, 0, 66, 0
2, 1577, Note_on_c, 0, 67, 0
2, 1577, Note_on_c, 0, 62, 70
2, 1577, Note_on_c, 0, 74, 72
2, 1580, Note_on_c, 0, 79, 0
2, 1638, Control_c, 0, 64, 127
2, 1686, Note_on_c, 0, 74, 0
2, 1686, Note_on_c, 0, 62, 0
2, 1784, Note_on_c, 0, 74, 75
2, 1784, Note_on_c, 0, 62, 71
2, 1813, Control_c, 0, 64, 0
2, 2014, Note_on_c, 0, 62, 0
2, 2014, Note_on_c, 0, 74, 0
2, 2091, Note_on_c, 0, 64, 67
2, 2091, Note_on_c, 0, 76, 74
2, 2196, Note_on_c, 0, 76, 0
2, 2196, Note_on_c, 0, 64, 0
2, 2196, Note_on_c, 0, 60, 67
2, 2200, Note_on_c, 0, 72, 74
2, 2292, Note_on_c, 0, 72, 0
2, 2296, Note_on_c, 0, 60, 0
2, 2296, Note_on_c, 0, 57, 66
2, 2315, Note_on_c, 0, 69, 74
2, 2369, Note_on_c, 0, 69, 0
2, 2369, Note_on_c, 0, 57, 0
2, 2384, Control_c, 0, 64, 127
2, 2392, Note_on_c, 0, 67, 71
2, 2398, Note_on_c, 0, 55, 64
2, 2492, Note_on_c, 0, 67, 0
2, 2496, Note_on_c, 0, 66, 71
2, 2502, Note_on_c, 0, 54, 64
2, 2523, Note_on_c, 0, 55, 0
2, 2599, Note_on_c, 0, 55, 73
2, 2599, Note_on_c, 0, 67, 75
2, 2603, Note_on_c, 0, 54, 0
2, 2603, Note_on_c, 0, 66, 0
2, 2603, Control_c, 0, 64, 0
2, 2703, Note_on_c, 0, 67, 0
2, 2703, Note_on_c, 0, 69, 75
2, 2707, Note_on_c, 0, 57, 71
2, 2732, Note_on_c, 0, 55, 0
2, 2807, Note_on_c, 0, 57, 0
2, 2807, Note_on_c, 0, 69, 0
2, 2807, Note_on_c, 0, 59, 67
2, 2836, Note_on_c, 0, 71, 72
2, 3010, Note_on_c, 0, 59, 0
2, 3010, Note_on_c, 0, 60, 68
2, 3016, Note_on_c, 0, 71, 0
2, 3016, Note_on_c, 0, 72, 74
2, 3222, Note_on_c, 0, 60, 0
2, 3222, Note_on_c, 0, 62, 69
2, 3251, Note_on_c, 0, 50, 63
2, 3262, Note_on_c, 0, 72, 0
2, 3322, Note_on_c, 0, 62, 0
2, 3345, Note_on_c, 0, 50, 0
2, 3416, Note_on_c, 0, 62, 67
2, 3422, Note_on_c, 0, 50, 65
2, 3437, Control_c, 0, 64, 127
2, 3477, Control_c, 0, 64, 0
2, 3819, Note_on_c, 0, 62, 0
2, 3931, Note_on_c, 0, 67, 73
2, 3935, Note_on_c, 0, 55, 65
2, 3939, Note_on_c, 0, 50, 0
2, 4037, Note_on_c, 0, 67, 0
2, 4037, Note_on_c, 0, 69, 72
2, 4040, Note_on_c, 0, 57, 66
2, 4060, Note_on_c, 0, 55, 0
2, 4112, Note_on_c, 0, 57, 0
2, 4112, Note_on_c, 0, 69, 0
2, 4140, Note_on_c, 0, 59, 68
2, 4242, Note_on_c, 0, 59, 0
2, 4242, Note_on_c, 0, 67, 64
2, 4242, Note_on_c, 0, 62, 67
2, 4246, Note_on_c, 0, 74, 67
2, 4250, Note_on_c, 0, 71, 63
2, 4254, Note_on_c, 0, 43, 61
2, 4254, Control_c, 0, 64, 127
2, 4302, Control_c, 0, 64, 0
2, 4452, Note_on_c, 0, 55, 60
2, 4452, Note_on_c, 0, 59, 63
2, 4456, Note_on_c, 0, 50, 58
2, 4475, Note_on_c, 0, 43, 0
2, 4519, Note_on_c, 0, 67, 0
2, 4519, Note_on_c, 0, 59, 0
2, 4527, Note_on_c, 0, 62, 0
2, 4527, Note_on_c, 0, 71, 0
2, 4527, Note_on_c, 0, 50, 0
2, 4550, Note_on_c, 0, 55, 0
2, 4550, Note_on_c, 0, 74, 0
2, 4652, Note_on_c, 0, 67, 66
2, 4656, Note_on_c, 0, 79, 63
2, 4656, Note_on_c, 0, 38, 64
2, 4656, Note_on_c, 0, 71, 67
2, 4860, Note_on_c, 0, 55, 63
2, 4860, Note_on_c, 0, 50, 62
2, 4891, Note_on_c, 0, 59, 66
2, 4958, Note_on_c, 0, 59, 0
2, 4958, Note_on_c, 0, 79, 0
2, 4958, Note_on_c, 0, 67, 0
2, 4958, Note_on_c, 0, 50, 0
2, 4964, Note_on_c, 0, 71, 0
2, 4987, Note_on_c, 0, 55, 0
2, 4994, Note_on_c, 0, 38, 0
2, 5052, Note_on_c, 0, 43, 63
2, 5062, Note_on_c, 0, 59, 64
2, 5062, Control_c, 0, 64, 127
2, 5066, Note_on_c, 0, 67, 69
2, 5070, Note_on_c, 0, 71, 69
2, 5104, Control_c, 0, 64, 0
2, 5137, Note_on_c, 0, 67, 0
2, 5137, Note_on_c, 0, 43, 0
2, 5141, Note_on_c, 0, 59, 0
2, 5168, Note_on_c, 0, 58, 67
2, 5168, Note_on_c, 0, 70, 71
2, 5173, Note_on_c, 0, 71, 0
2, 5270, Note_on_c, 0, 58, 0
2, 5270, Note_on_c, 0, 59, 65
2, 5270, Note_on_c, 0, 67, 67
2, 5274, Note_on_c, 0, 70, 0
2, 5277, Note_on_c, 0, 71, 67
2, 5277, Note_on_c, 0, 55, 62
2, 5277, Note_on_c, 0, 50, 60
2, 5291, Note_on_c, 0, 67, 0
2, 5300, Note_on_c, 0, 71, 0
2, 5320, Note_on_c, 0, 59, 0
2, 5374, Note_on_c, 0, 55, 0
2, 5374, Note_on_c, 0, 62, 68
2, 5383, Note_on_c, 0, 50, 0
2, 5383, Note_on_c, 0, 65, 59
2, 5383, Note_on_c, 0, 67, 57
2, 5383, Note_on_c, 0, 74, 64
2, 5391, Note_on_c, 0, 71, 60
2, 5483, Note_on_c, 0, 62, 0
2, 5483, Note_on_c, 0, 47, 64
2, 5499, Note_on_c, 0, 65, 0
2, 5499, Note_on_c, 0, 67, 0
2, 5506, Note_on_c, 0, 71, 0
2, 5532, Note_on_c, 0, 74, 0
2, 5547, Note_on_c, 0, 47, 0
2, 5578, Note_on_c, 0, 65, 62
2, 5578, Note_on_c, 0, 62, 68
2, 5578, Note_on_c, 0, 67, 63
2, 5583, Note_on_c, 0, 71, 64
2, 5589, Note_on_c, 0, 74, 60
2, 5676, Note_on_c, 0, 59, 63
2, 5676, Note_on_c, 0, 50, 60
2, 5684, Note_on_c, 0, 55, 61
2, 5720, Note_on_c, 0, 67, 0
2, 5728, Note_on_c, 0, 74, 0
2, 5732, Note_on_c, 0, 62, 0
2, 5755, Note_on_c, 0, 65, 0
2, 5755, Note_on_c, 0, 71, 0
2, 5776, Note_on_c, 0, 55, 0
2, 5776, Note_on_c, 0, 59, 0
2, 5782, Note_on_c, 0, 50, 0
2, 5788, Note_on_c, 0, 76, 74
2, 5788, Note_on_c, 0, 64, 66
2, 5805, Note_on_c, 0, 64, 0
2, 5882, Note_on_c, 0, 62, 67
2, 5882, Note_on_c, 0, 67, 67
2, 5886, Note_on_c, 0, 74, 70
2, 5890, Note_on_c, 0, 48, 63
2, 5890, Note_on_c, 0, 64, 53
2, 5907, Note_on_c, 0, 76, 0
2, 5919, Control_c, 0, 64, 127
2, 5959, Control_c, 0, 64, 0
2, 5982, Note_on_c, 0, 74, 0
2, 5988, Note_on_c, 0, 62, 0
2, 5988, Note_on_c, 0, 60, 64
2, 5992, Note_on_c, 0, 72, 72
2, 6009, Note_on_c, 0, 60, 0
2, 6092, Note_on_c, 0, 52, 61
2, 6098, Note_on_c, 0, 55, 59
2, 6098, Note_on_c, 0, 60, 55
2, 6109, Note_on_c, 0, 67, 0
2, 6113, Note_on_c, 0, 64, 0
2, 6113, Note_on_c, 0, 55, 0
2, 6188, Note_on_c, 0, 67, 71
2, 6194, Note_on_c, 0, 64, 69
2, 6194, Note_on_c, 0, 55, 49
2, 6211, Note_on_c, 0, 72, 0
2, 6217, Note_on_c, 0, 60, 0
2, 6217, Note_on_c, 0, 48, 0
2, 6221, Note_on_c, 0, 52, 0
2, 6302, Note_on_c, 0, 48, 69
2, 6346, Note_on_c, 0, 67, 0
2, 6375, Note_on_c, 0, 55, 0
2, 6375, Note_on_c, 0, 64, 0
2, 6402, Note_on_c, 0, 63, 67
2, 6402, Note_on_c, 0, 57, 64
2, 6429, Note_on_c, 0, 69, 73
2, 6508, Note_on_c, 0, 51, 62
2, 6508, Note_on_c, 0, 55, 63
2, 6508, Note_on_c, 0, 60, 63
2, 6525, Note_on_c, 0, 55, 0
2, 6577, Note_on_c, 0, 57, 0
2, 6577, Note_on_c, 0, 69, 0
2, 6604, Note_on_c, 0, 67, 72
2, 6612, Note_on_c, 0, 55, 51
2, 6628, Note_on_c, 0, 51, 0
2, 6631, Note_on_c, 0, 60, 0
2, 6655, Note_on_c, 0, 63, 0
2, 6709, Note_on_c, 0, 48, 0
2, 6709, Note_on_c, 0, 67, 0
2, 6709, Note_on_c, 0, 55, 0
2, 6712, Note_on_c, 0, 59, 66
2, 6726, Note_on_c, 0, 43, 62
2, 6739, Control_c, 0, 64, 127
2, 6747, Note_on_c, 0, 71, 72
2, 6780, Control_c, 0, 64, 0
2, 6809, Note_on_c, 0, 43, 0
2, 6809, Note_on_c, 0, 59, 0
2, 6816, Note_on_c, 0, 71, 0
2, 6816, Note_on_c, 0, 67, 71
2, 6822, Note_on_c, 0, 55, 63
2, 6842, Note_on_c, 0, 55, 0
2, 6911, Note_on_c, 0, 67, 0
2, 6921, Note_on_c, 0, 59, 62
2, 6921, Note_on_c, 0, 52, 60
2, 6926, Note_on_c, 0, 55, 45
2, 6926, Note_on_c, 0, 64, 60
2, 6926, Note_on_c, 0, 50, 55
2, 6944, Note_on_c, 0, 50, 0
2, 7013, Note_on_c, 0, 59, 0
2, 7017, Note_on_c, 0, 52, 0
2, 7023, Note_on_c, 0, 62, 68
2, 7023, Note_on_c, 0, 50, 49
2, 7040, Note_on_c, 0, 64, 0
2, 7046, Note_on_c, 0, 55, 0
2, 7046, Note_on_c, 0, 50, 0
2, 7119, Note_on_c, 0, 59, 66
2, 7123, Note_on_c, 0, 55, 63
2, 7127, Note_on_c, 0, 50, 50
2, 7173, Note_on_c, 0, 62, 0
2, 7218, Note_on_c, 0, 67, 73
2, 7322, Note_on_c, 0, 67, 0
2, 7322, Note_on_c, 0, 59, 0
2, 7326, Note_on_c, 0, 69, 73
2, 7331, Note_on_c, 0, 57, 64
2, 7335, Note_on_c, 0, 50, 0
2, 7347, Note_on_c, 0, 55, 0
2, 7416, Note_on_c, 0, 69, 0
2, 7416, Note_on_c, 0, 57, 0
2, 7426, Note_on_c, 0, 59, 67
2, 7430, Note_on_c, 0, 71, 72
2, 7451, Note_on_c, 0, 71, 0
2, 7493, Note_on_c, 0, 59, 0
2, 7526, Note_on_c, 0, 62, 67
2, 7526, Note_on_c, 0, 67, 67
2, 7526, Note_on_c, 0, 71, 60
2, 7526, Note_on_c, 0, 74, 68
2, 7536, Note_on_c, 0, 43, 63
2, 7543, Control_c, 0, 64, 127
2, 7607, Control_c, 0, 64, 0
2, 7729, Note_on_c, 0, 59, 63
2, 7734, Note_on_c, 0, 55, 60
2, 7734, Note_on_c, 0, 50, 58
2, 7800, Note_on_c, 0, 59, 0
2, 7804, Note_on_c, 0, 50, 0
2, 7827, Note_on_c, 0, 67, 0
2, 7827, Note_on_c, 0, 55, 0
2, 7833, Note_on_c, 0, 71, 0
2, 7841, Note_on_c, 0, 62, 0
2, 7852, Note_on_c, 0, 43, 0
2, 7858, Note_on_c, 0, 74, 0
2, 7933, Note_on_c, 0, 67, 66
2, 7933, Note_on_c, 0, 40, 64
2, 7939, Note_on_c, 0, 79, 64
2, 7939, Note_on_c, 0, 71, 67
2, 8140, Note_on_c, 0, 59, 64
2, 8140, Note_on_c, 0, 55, 61
2, 8140, Note_on_c, 0, 52, 63
2, 8234, Note_on_c, 0, 59, 0
2, 8257, Note_on_c, 0, 79, 0
2, 8257, Note_on_c, 0, 67, 0
2, 8257, Note_on_c, 0, 55, 0
2, 8265, Note_on_c, 0, 52, 0
2, 8265, Note_on_c, 0, 71, 0
2, 8273, Control_c, 0, 64, 127
2, 8286, Note_on_c, 0, 40, 0
2, 8342, Note_on_c, 0, 33, 62
2, 8342, Note_on_c, 0, 74, 67
2, 8342, Note_on_c, 0, 66, 66
2, 8350, Note_on_c, 0, 78, 65
2, 8354, Control_c, 0, 64, 0
2, 8443, Note_on_c, 0, 78, 0
2, 8443, Note_on_c, 0, 66, 0
2, 8443, Note_on_c, 0, 74, 0
2, 8443, Note_on_c, 0, 65, 65
2, 8458, Note_on_c, 0, 77, 71
2, 8539, Note_on_c, 0, 77, 0
2, 8551, Note_on_c, 0, 62, 66
2, 8551, Note_on_c, 0, 66, 62
2, 8551, Note_on_c, 0, 57, 63
2, 8551, Note_on_c, 0, 78, 62
2, 8555, Note_on_c, 0, 74, 61
2, 8555, Note_on_c, 0, 54, 61
2, 8568, Note_on_c, 0, 74, 0
2, 8568, Note_on_c, 0, 78, 0
2, 8595, Note_on_c, 0, 65, 0
2, 8644, Note_on_c, 0, 54, 0
2, 8644, Note_on_c, 0, 57, 0
2, 8647, Note_on_c, 0, 66, 0
2, 8651, Note_on_c, 0, 62, 0
2, 8651, Note_on_c, 0, 69, 63
2, 8659, Note_on_c, 0, 78, 50
2, 8659, Note_on_c, 0, 74, 54
2, 8680, Note_on_c, 0, 81, 71
2, 8698, Note_on_c, 0, 33, 0
2, 8748, Note_on_c, 0, 74, 0
2, 8752, Note_on_c, 0, 30, 59
2, 8794, Note_on_c, 0, 69, 0
2, 8794, Note_on_c, 0, 81, 0
2, 8800, Note_on_c, 0, 78, 0
2, 8848, Note_on_c, 0, 74, 74
2, 8848, Note_on_c, 0, 62, 70
2, 8875, Note_on_c, 0, 62, 0
2, 8958, Note_on_c, 0, 66, 70
2, 8958, Note_on_c, 0, 62, 65
2, 8962, Note_on_c, 0, 78, 69
2, 8962, Note_on_c, 0, 57, 63
2, 8966, Note_on_c, 0, 54, 61
2, 8982, Note_on_c, 0, 74, 0
2, 9053, Note_on_c, 0, 57, 0
2, 9053, Note_on_c, 0, 66, 0
2, 9053, Note_on_c, 0, 78, 0
2, 9053, Note_on_c, 0, 54, 0
2, 9059, Note_on_c, 0, 62, 0
2, 9059, Note_on_c, 0, 69, 71
2, 9078, Note_on_c, 0, 30, 0
2, 9084, Note_on_c, 0, 81, 74
2, 9150, Note_on_c, 0, 73, 70
2, 9153, Note_on_c, 0, 81, 0
2, 9153, Note_on_c, 0, 69, 0
2, 9159, Control_c, 0, 64, 127
2, 9159, Note_on_c, 0, 28, 61
2, 9192, Note_on_c, 0, 71, 68
2, 9192, Note_on_c, 0, 83, 69
2, 9217, Control_c, 0, 64, 0
2, 9250, Note_on_c, 0, 83, 0
2, 9262, Note_on_c, 0, 67, 67
2, 9266, Note_on_c, 0, 79, 66
2, 9285, Note_on_c, 0, 71, 0
2, 9356, Note_on_c, 0, 67, 0
2, 9356, Note_on_c, 0, 73, 0
2, 9360, Note_on_c, 0, 79, 0
2, 9364, Note_on_c, 0, 55, 60
2, 9364, Note_on_c, 0, 57, 60
2, 9364, Note_on_c, 0, 61, 62
2, 9374, Note_on_c, 0, 76, 72
2, 9374, Note_on_c, 0, 64, 60
2, 9380, Note_on_c, 0, 61, 0
2, 9434, Note_on_c, 0, 57, 0
2, 9439, Note_on_c, 0, 28, 0
2, 9463, Note_on_c, 0, 55, 0
2, 9463, Note_on_c, 0, 64, 0
2, 9463, Note_on_c, 0, 73, 73
2, 9466, Note_on_c, 0, 76, 0
2, 9472, Note_on_c, 0, 61, 54
2, 9561, Note_on_c, 0, 33, 61
2, 9567, Note_on_c, 0, 45, 63
2, 9633, Note_on_c, 0, 61, 0
2, 9633, Note_on_c, 0, 73, 0
2, 9660, Note_on_c, 0, 69, 74
2, 9664, Note_on_c, 0, 57, 64
2, 9681, Note_on_c, 0, 57, 0
2, 9760, Note_on_c, 0, 69, 0
2, 9768, Note_on_c, 0, 67, 68
2, 9768, Note_on_c, 0, 61, 66
2, 9768, Note_on_c, 0, 71, 68
2, 9776, Note_on_c, 0, 57, 46
2, 9776, Note_on_c, 0, 55, 61
2, 9801, Note_on_c, 0, 59, 63
2, 9811, Note_on_c, 0, 61, 0
2, 9816, Note_on_c, 0, 33, 0
2, 9816, Note_on_c, 0, 45, 0
2, 9863, Note_on_c, 0, 67, 0
2, 9863, Note_on_c, 0, 59, 0
2, 9863, Note_on_c, 0, 57, 0
2, 9867, Note_on_c, 0, 55, 0
2, 9867, Note_on_c, 0, 73, 72
2, 9874, Note_on_c, 0, 71, 0
2, 9878, Note_on_c, 0, 61, 66
2, 9940, Note_on_c, 0, 61, 0
2, 9954, Control_c, 0, 64, 127
2, 9967, Note_on_c, 0, 73, 0
2, 9971, Note_on_c, 0, 74, 67
2, 9971, Note_on_c, 0, 62, 66
2, 9971, Note_on_c, 0, 66, 68
2, 9977, Note_on_c, 0, 50, 59
2, 9977, Note_on_c, 0, 57, 58
2, 10000, Control_c, 0, 64, 0
2, 10060, Note_on_c, 0, 57, 0
2, 10070, Note_on_c, 0, 50, 0
2, 10073, Note_on_c, 0, 48, 66
2, 10073, Note_on_c, 0, 60, 64
2, 10162, Note_on_c, 0, 48, 0
2, 10166, Note_on_c, 0, 60, 0
2, 10176, Note_on_c, 0, 57, 65
2, 10176, Note_on_c, 0, 45, 63
2, 10240, Note_on_c, 0, 45, 0
2, 10240, Note_on_c, 0, 57, 0
2, 10275, Note_on_c, 0, 52, 64
2, 10275, Note_on_c, 0, 40, 63
2, 10352, Note_on_c, 0, 40, 0
2, 10381, Note_on_c, 0, 52, 0
2, 10381, Note_on_c, 0, 50, 62
2, 10385, Note_on_c, 0, 38, 62
2, 10478, Note_on_c, 0, 66, 0
2, 10478, Note_on_c, 0, 74, 0
2, 10532, Note_on_c, 0, 62, 0
2, 10574, Note_on_c, 0, 67, 73
2, 10580, Note_on_c, 0, 55, 67
2, 10669, Note_on_c, 0, 55, 0
2, 10669, Note_on_c, 0, 67, 0
2, 10679, Note_on_c, 0, 59, 67
2, 10689, Note_on_c, 0, 71, 71
2, 10704, Note_on_c, 0, 71, 0
2, 10704, Note_on_c, 0, 38, 0
2, 10727, Note_on_c, 0, 50, 0
2, 10747, Note_on_c, 0, 59, 0
2, 10779, Note_on_c, 0, 62, 68
2, 10783, Note_on_c, 0, 74, 67
2, 10783, Note_on_c, 0, 67, 64
2, 10791, Note_on_c, 0, 71, 53
2, 10791, Note_on_c, 0, 43, 62
2, 10801, Control_c, 0, 64, 127
2, 10880, Control_c, 0, 64, 0
2, 10985, Note_on_c, 0, 59, 69
2, 10990, Note_on_c, 0, 50, 65
2, 10990, Note_on_c, 0, 55, 66
2, 11079, Note_on_c, 0, 59, 0
2, 11079, Note_on_c, 0, 67, 0
2, 11079, Note_on_c, 0, 43, 0
2, 11083, Note_on_c, 0, 74, 0
2, 11083, Note_on_c, 0, 50, 0
2, 11087, Note_on_c, 0, 62, 0
2, 11110, Note_on_c, 0, 55, 0
2, 11118, Note_on_c, 0, 71, 0
2, 11190, Note_on_c, 0, 38, 66
2, 11194, Note_on_c, 0, 71, 69
2, 11194, Note_on_c, 0, 67, 66
2, 11197, Note_on_c, 0, 79, 64
2, 11395, Note_on_c, 0, 59, 65
2, 11401, Note_on_c, 0, 50, 60
2, 11401, Note_on_c, 0, 55, 62
2, 11465, Note_on_c, 0, 59, 0
2, 11465, Note_on_c, 0, 67, 0
2, 11468, Note_on_c, 0, 79, 0
2, 11468, Note_on_c, 0, 50, 0
2, 11496, Note_on_c, 0, 55, 0
2, 11507, Note_on_c, 0, 71, 0
2, 11550, Note_on_c, 0, 38, 0
2, 11602, Note_on_c, 0, 59, 66
2, 11602, Note_on_c, 0, 67, 69
2, 11608, Note_on_c, 0, 71, 69
2, 11616, Note_on_c, 0, 43, 63
2, 11631, Control_c, 0, 64, 127
2, 11670, Note_on_c, 0, 43, 0
2, 11670, Note_on_c, 0, 59, 0
2, 11689, Control_c, 0, 64, 0
2, 11697, Note_on_c, 0, 67, 0
2, 11703, Note_on_c, 0, 58, 67
2, 11703, Note_on_c, 0, 70, 71
2, 11711, Note_on_c, 0, 71, 0
2, 11798, Note_on_c, 0, 70, 0
2, 11798, Note_on_c, 0, 58, 0
2, 11805, Note_on_c, 0, 59, 65
2, 11805, Note_on_c, 0, 71, 65
2, 11809, Note_on_c, 0, 67, 63
2, 11809, Note_on_c, 0, 50, 60
2, 11813, Note_on_c, 0, 55, 62
2, 11825, Note_on_c, 0, 67, 0
2, 11831, Note_on_c, 0, 71, 0
2, 11895, Note_on_c, 0, 55, 0
2, 11895, Note_on_c, 0, 59, 0
2, 11908, Note_on_c, 0, 50, 0
2, 11908, Note_on_c, 0, 62, 67
2, 11908, Note_on_c, 0, 65, 58
2, 11908, Note_on_c, 0, 67, 50
2, 11912, Note_on_c, 0, 71, 59
2, 11912, Note_on_c, 0, 74, 66
2, 11999, Note_on_c, 0, 67, 0
2, 12003, Note_on_c, 0, 74, 0
2, 12003, Note_on_c, 0, 62, 0
2, 12011, Note_on_c, 0, 71, 0
2, 12011, Note_on_c, 0, 47, 64
2, 12026, Note_on_c, 0, 65, 0
2, 12071, Note_on_c, 0, 47, 0
2, 12102, Note_on_c, 0, 65, 63
2, 12102, Note_on_c, 0, 62, 68
2, 12111, Note_on_c, 0, 67, 61
2, 12111, Note_on_c, 0, 74, 64
2, 12115, Note_on_c, 0, 71, 62
2, 12210, Note_on_c, 0, 59, 64
2, 12210, Note_on_c, 0, 50, 60
2, 12216, Note_on_c, 0, 55, 61
2, 12251, Note_on_c, 0, 67, 0
2, 12259, Note_on_c, 0, 71, 0
2, 12259, Note_on_c, 0, 62, 0
2, 12282, Note_on_c, 0, 65, 0
2, 12282, Note_on_c, 0, 74, 0
2, 12299, Note_on_c, 0, 55, 0
2, 12299, Note_on_c, 0, 59, 0
2, 12305, Note_on_c, 0, 50, 0
2, 12313, Note_on_c, 0, 76, 74
2, 12313, Note_on_c, 0, 64, 60
2, 12328, Note_on_c, 0, 64, 0
2, 12406, Note_on_c, 0, 76, 0
2, 12406, Note_on_c, 0, 67, 67
2, 12406, Note_on_c, 0, 62, 67
2, 12410, Note_on_c, 0, 74, 70
2, 12414, Note_on_c, 0, 64, 61
2, 12414, Note_on_c, 0, 48, 63
2, 12427, Control_c, 0, 64, 127
2, 12468, Control_c, 0, 64, 0
2, 12507, Note_on_c, 0, 48, 0
2, 12507, Note_on_c, 0, 74, 0
2, 12511, Note_on_c, 0, 62, 0
2, 12516, Note_on_c, 0, 60, 66
2, 12520, Note_on_c, 0, 72, 74
2, 12532, Note_on_c, 0, 60, 0
2, 12606, Note_on_c, 0, 64, 0
2, 12609, Note_on_c, 0, 67, 0
2, 12619, Note_on_c, 0, 52, 64
2, 12623, Note_on_c, 0, 55, 60
2, 12627, Note_on_c, 0, 60, 52
2, 12639, Note_on_c, 0, 55, 0
2, 12660, Note_on_c, 0, 72, 0
2, 12689, Note_on_c, 0, 60, 0
2, 12712, Note_on_c, 0, 67, 73
2, 12718, Note_on_c, 0, 52, 0
2, 12718, Note_on_c, 0, 55, 50
2, 12724, Note_on_c, 0, 64, 67
2, 12817, Note_on_c, 0, 48, 69
2, 12860, Note_on_c, 0, 67, 0
2, 12863, Note_on_c, 0, 55, 0
2, 12863, Note_on_c, 0, 64, 0
2, 12912, Note_on_c, 0, 48, 0
2, 12918, Note_on_c, 0, 63, 67
2, 12918, Note_on_c, 0, 57, 65
2, 12947, Note_on_c, 0, 69, 74
2, 13028, Note_on_c, 0, 51, 63
2, 13028, Note_on_c, 0, 60, 65
2, 13034, Note_on_c, 0, 55, 58
2, 13055, Note_on_c, 0, 55, 0
2, 13071, Note_on_c, 0, 57, 0
2, 13071, Note_on_c, 0, 63, 0
2, 13071, Note_on_c, 0, 69, 0
2, 13125, Note_on_c, 0, 60, 0
2, 13125, Note_on_c, 0, 67, 73
2, 13125, Note_on_c, 0, 55, 57
2, 13145, Note_on_c, 0, 51, 0
2, 13222, Note_on_c, 0, 55, 0
2, 13222, Note_on_c, 0, 67, 0
2, 13228, Note_on_c, 0, 59, 65
2, 13228, Note_on_c, 0, 62, 67
2, 13232, Note_on_c, 0, 71, 72
2, 13242, Note_on_c, 0, 43, 61
2, 13253, Control_c, 0, 64, 127
2, 13306, Control_c, 0, 64, 0
2, 13321, Note_on_c, 0, 43, 0
2, 13321, Note_on_c, 0, 59, 0
2, 13327, Note_on_c, 0, 67, 71
2, 13337, Note_on_c, 0, 55, 58
2, 13350, Note_on_c, 0, 62, 0
2, 13356, Note_on_c, 0, 71, 0
2, 13356, Note_on_c, 0, 55, 0
2, 13430, Note_on_c, 0, 59, 63
2, 13436, Note_on_c, 0, 52, 62
2, 13439, Note_on_c, 0, 55, 50
2, 13439, Note_on_c, 0, 64, 61
2, 13449, Note_on_c, 0, 67, 0
2, 13536, Note_on_c, 0, 62, 68
2, 13540, Note_on_c, 0, 50, 61
2, 13558, Note_on_c, 0, 59, 0
2, 13558, Note_on_c, 0, 64, 0
2, 13562, Note_on_c, 0, 52, 0
2, 13562, Note_on_c, 0, 55, 0
2, 13562, Note_on_c, 0, 50, 0
2, 13639, Note_on_c, 0, 59, 66
2, 13639, Note_on_c, 0, 55, 61
2, 13645, Note_on_c, 0, 50, 49
2, 13655, Note_on_c, 0, 59, 0
2, 13688, Note_on_c, 0, 62, 0
2, 13730, Note_on_c, 0, 55, 0
2, 13738, Note_on_c, 0, 59, 56
2, 13746, Note_on_c, 0, 50, 0
2, 13769, Note_on_c, 0, 71, 73
2, 13833, Note_on_c, 0, 59, 0
2, 13839, Note_on_c, 0, 70, 72
2, 13839, Note_on_c, 0, 58, 68
2, 13847, Note_on_c, 0, 71, 0
2, 13936, Note_on_c, 0, 58, 0
2, 13940, Note_on_c, 0, 70, 0
2, 13940, Note_on_c, 0, 71, 71
2, 13961, Note_on_c, 0, 59, 68
2, 13971, Note_on_c, 0, 71, 0
2, 14033, Note_on_c, 0, 59, 0
2, 14039, Note_on_c, 0, 71, 70
2, 14039, Note_on_c, 0, 63, 66
2, 14043, Note_on_c, 0, 75, 72
2, 14051, Note_on_c, 0, 42, 58
2, 14051, Note_on_c, 0, 54, 61
2, 14080, Control_c, 0, 64, 127
2, 14132, Control_c, 0, 64, 0
2, 14239, Note_on_c, 0, 57, 64
2, 14266, Note_on_c, 0, 59, 65
2, 14330, Note_on_c, 0, 75, 0
2, 14330, Note_on_c, 0, 63, 0
2, 14334, Note_on_c, 0, 57, 0
2, 14334, Note_on_c, 0, 42, 0
2, 14334, Note_on_c, 0, 54, 0
2, 14334, Note_on_c, 0, 59, 0
2, 14348, Note_on_c, 0, 71, 0
2, 14443, Note_on_c, 0, 35, 60
2, 14443, Note_on_c, 0, 78, 60
2, 14443, Note_on_c, 0, 66, 62
2, 14447, Note_on_c, 0, 75, 64
2, 14447, Note_on_c, 0, 47, 62
2, 14450, Note_on_c, 0, 71, 61
2, 14643, Note_on_c, 0, 59, 66
2, 14643, Note_on_c, 0, 57, 63
2, 14685, Note_on_c, 0, 75, 0
2, 14691, Note_on_c, 0, 78, 0
2, 14695, Note_on_c, 0, 71, 0
2, 14738, Note_on_c, 0, 57, 0
2, 14738, Note_on_c, 0, 47, 0
2, 14738, Note_on_c, 0, 59, 0
2, 14742, Note_on_c, 0, 35, 0
2, 14742, Note_on_c, 0, 66, 0
2, 14746, Note_on_c, 0, 81, 70
2, 14746, Note_on_c, 0, 69, 69
2, 14765, Note_on_c, 0, 69, 0
2, 14765, Note_on_c, 0, 81, 0
2, 14845, Note_on_c, 0, 52, 63
2, 14849, Note_on_c, 0, 40, 61
2, 14849, Note_on_c, 0, 81, 54
2, 14852, Note_on_c, 0, 71, 61
2, 14852, Note_on_c, 0, 69, 55
2, 14856, Note_on_c, 0, 76, 62
2, 14878, Control_c, 0, 64, 127
2, 14917, Note_on_c, 0, 69, 0
2, 14942, Note_on_c, 0, 81, 0
2, 14942, Control_c, 0, 64, 0
2, 14946, Note_on_c, 0, 67, 65
2, 14952, Note_on_c, 0, 79, 64
2, 15045, Note_on_c, 0, 67, 0
2, 15049, Note_on_c, 0, 79, 0
2, 15049, Note_on_c, 0, 66, 67
2, 15049, Note_on_c, 0, 59, 68
2, 15053, Note_on_c, 0, 55, 63
2, 15053, Note_on_c, 0, 78, 64
2, 15099, Note_on_c, 0, 71, 0
2, 15099, Note_on_c, 0, 76, 0
2, 15146, Note_on_c, 0, 66, 0
2, 15146, Note_on_c, 0, 59, 0
2, 15152, Note_on_c, 0, 40, 0
2, 15152, Note_on_c, 0, 78, 0
2, 15159, Note_on_c, 0, 67, 63
2, 15159, Note_on_c, 0, 70, 66
2, 15159, Note_on_c, 0, 79, 62
2, 15177, Note_on_c, 0, 55, 0
2, 15181, Note_on_c, 0, 52, 0
2, 15255, Note_on_c, 0, 79, 0
2, 15255, Note_on_c, 0, 67, 0
2, 15260, Note_on_c, 0, 37, 63
2, 15260, Note_on_c, 0, 49, 65
2, 15328, Note_on_c, 0, 37, 0
2, 15356, Note_on_c, 0, 49, 0
2, 15356, Note_on_c, 0, 67, 69
2, 15362, Note_on_c, 0, 79, 68
2, 15430, Note_on_c, 0, 67, 0
2, 15433, Note_on_c, 0, 79, 0
2, 15457, Note_on_c, 0, 58, 66
2, 15457, Note_on_c, 0, 52, 64
2, 15457, Note_on_c, 0, 66, 70
2, 15457, Note_on_c, 0, 78, 69
2, 15461, Note_on_c, 0, 55, 62
2, 15560, Note_on_c, 0, 55, 0
2, 15560, Note_on_c, 0, 58, 0
2, 15560, Note_on_c, 0, 66, 0
2, 15566, Note_on_c, 0, 52, 0
2, 15566, Note_on_c, 0, 78, 0
2, 15566, Note_on_c, 0, 64, 66
2, 15571, Note_on_c, 0, 76, 73
2, 15583, Note_on_c, 0, 64, 0
2, 15589, Note_on_c, 0, 76, 0
2, 15614, Note_on_c, 0, 70, 0
2, 15669, Note_on_c, 0, 50, 59
2, 15669, Note_on_c, 0, 38, 61
2, 15669, Note_on_c, 0, 71, 69
2, 15674, Note_on_c, 0, 76, 64
2, 15674, Note_on_c, 0, 64, 56
2, 15694, Control_c, 0, 64, 127
2, 15735, Control_c, 0, 64, 0
2, 15744, Note_on_c, 0, 64, 0
2, 15744, Note_on_c, 0, 38, 0
2, 15748, Note_on_c, 0, 50, 0
2, 15748, Note_on_c, 0, 71, 0
2, 15772, Note_on_c, 0, 76, 0
2, 15772, Note_on_c, 0, 62, 69
2, 15772, Note_on_c, 0, 74, 73
2, 15867, Note_on_c, 0, 73, 70
2, 15867, Note_on_c, 0, 59, 67
2, 15871, Note_on_c, 0, 74, 0
2, 15871, Note_on_c, 0, 62, 0
2, 15871, Note_on_c, 0, 55, 63
2, 15871, Note_on_c, 0, 61, 63
2, 15941, Note_on_c, 0, 61, 0
2, 15941, Note_on_c, 0, 59, 0
2, 15964, Note_on_c, 0, 55, 0
2, 15964, Note_on_c, 0, 73, 0
2, 15968, Note_on_c, 0, 74, 72
2, 15968, Note_on_c, 0, 62, 68
2, 16077, Note_on_c, 0, 38, 63
2, 16077, Note_on_c, 0, 50, 63
2, 16127, Note_on_c, 0, 62, 0
2, 16127, Note_on_c, 0, 74, 0
2, 16176, Note_on_c, 0, 50, 0
2, 16180, Note_on_c, 0, 38, 0
2, 16180, Note_on_c, 0, 60, 67
2, 16180, Note_on_c, 0, 72, 74
2, 16199, Note_on_c, 0, 60, 0
2, 16277, Note_on_c, 0, 72, 0
2, 16285, Note_on_c, 0, 57, 63
2, 16285, Note_on_c, 0, 54, 62
2, 16285, Note_on_c, 0, 60, 58
2, 16304, Note_on_c, 0, 54, 0
2, 16304, Note_on_c, 0, 69, 74
2, 16351, Note_on_c, 0, 69, 0
2, 16351, Note_on_c, 0, 57, 0
2, 16357, Note_on_c, 0, 60, 0
2, 16378, Note_on_c, 0, 66, 73
2, 16378, Note_on_c, 0, 54, 62
2, 16478, Note_on_c, 0, 54, 0
2, 16478, Note_on_c, 0, 66, 0
2, 16478, Note_on_c, 0, 67, 70
2, 16483, Note_on_c, 0, 55, 63
2, 16483, Note_on_c, 0, 59, 66
2, 16505, Control_c, 0, 64, 127
2, 16551, Control_c, 0, 64, 0
2, 16583, Note_on_c, 0, 52, 65
2, 16588, Note_on_c, 0, 64, 63
2, 16686, Note_on_c, 0, 62, 67
2, 16686, Note_on_c, 0, 50, 61
2, 16709, Note_on_c, 0, 64, 0
2, 16709, Note_on_c, 0, 52, 0
2, 16785, Note_on_c, 0, 63, 65
2, 16785, Note_on_c, 0, 51, 62
2, 16789, Note_on_c, 0, 50, 0
2, 16793, Note_on_c, 0, 62, 0
2, 16861, Note_on_c, 0, 52, 67
2, 16880, Note_on_c, 0, 63, 0
2, 16880, Note_on_c, 0, 67, 0
2, 16880, Note_on_c, 0, 51, 0
2, 16890, Note_on_c, 0, 64, 66
2, 16985, Note_on_c, 0, 59, 0
2, 16985, Note_on_c, 0, 67, 73
2, 16985, Note_on_c, 0, 63, 66
2, 16989, Note_on_c, 0, 64, 0
2, 16989, Note_on_c, 0, 52, 0
2, 16989, Note_on_c, 0, 51, 62
2, 17013, Note_on_c, 0, 55, 0
2, 17017, Note_on_c, 0, 79, 70
2, 17091, Note_on_c, 0, 67, 0
2, 17091, Note_on_c, 0, 63, 0
2, 17091, Note_on_c, 0, 62, 67
2, 17094, Note_on_c, 0, 79, 0
2, 17094, Note_on_c, 0, 81, 66
2, 17094, Note_on_c, 0, 69, 66
2, 17094, Note_on_c, 0, 50, 61
2, 17116, Note_on_c, 0, 51, 0
2, 17166, Note_on_c, 0, 69, 0
2, 17192, Note_on_c, 0, 81, 0
2, 17192, Note_on_c, 0, 59, 66
2, 17198, Note_on_c, 0, 62, 0
2, 17198, Note_on_c, 0, 50, 0
2, 17198, Note_on_c, 0, 71, 67
2, 17198, Note_on_c, 0, 47, 62
2, 17198, Note_on_c, 0, 83, 68
2, 17213, Note_on_c, 0, 83, 0
2, 17291, Note_on_c, 0, 47, 0
2, 17291, Note_on_c, 0, 59, 0
2, 17297, Note_on_c, 0, 55, 63
2, 17301, Note_on_c, 0, 71, 0
2, 17301, Note_on_c, 0, 79, 58
2, 17301, Note_on_c, 0, 74, 61
2, 17307, Note_on_c, 0, 43, 62
2, 17310, Note_on_c, 0, 83, 45
2, 17314, Note_on_c, 0, 86, 60
2, 17328, Control_c, 0, 64, 127
2, 17381, Control_c, 0, 64, 0
2, 17394, Note_on_c, 0, 55, 0
2, 17497, Note_on_c, 0, 59, 64
2, 17503, Note_on_c, 0, 55, 61
2, 17503, Note_on_c, 0, 50, 59
2, 17548, Note_on_c, 0, 83, 0
2, 17548, Note_on_c, 0, 79, 0
2, 17548, Note_on_c, 0, 74, 0
2, 17571, Note_on_c, 0, 86, 0
2, 17571, Note_on_c, 0, 59, 0
2, 17601, Note_on_c, 0, 50, 0
2, 17601, Note_on_c, 0, 55, 0
2, 17653, Note_on_c, 0, 43, 0
2, 17680, Note_on_c, 0, 79, 67
2, 17680, Note_on_c, 0, 83, 70
2, 17704, Note_on_c, 0, 91, 72
2, 17704, Note_on_c, 0, 38, 65
2, 17805, Note_on_c, 0, 79, 0
2, 17879, Note_on_c, 0, 79, 73
2, 17908, Note_on_c, 0, 59, 65
2, 17908, Note_on_c, 0, 50, 60
2, 17912, Note_on_c, 0, 55, 63
2, 17955, Note_on_c, 0, 83, 0
2, 17982, Note_on_c, 0, 91, 0
2, 17982, Note_on_c, 0, 59, 0
2, 17982, Note_on_c, 0, 55, 0
2, 17988, Note_on_c, 0, 50, 0
2, 18008, Note_on_c, 0, 79, 0
2, 18041, Note_on_c, 0, 38, 0
2, 18121, Note_on_c, 0, 43, 64
2, 18121, Note_on_c, 0, 71, 64
2, 18121, Note_on_c, 0, 79, 64
2, 18124, Note_on_c, 0, 83, 67
2, 18124, Control_c, 0, 64, 127
2, 18152, Control_c, 0, 64, 0
2, 18212, Note_on_c, 0, 83, 0
2, 18212, Note_on_c, 0, 79, 0
2, 18212, Note_on_c, 0, 43, 0
2, 18220, Note_on_c, 0, 71, 0
2, 18220, Note_on_c, 0, 82, 66
2, 18220, Note_on_c, 0, 70, 65
2, 18314, Note_on_c, 0, 59, 68
2, 18317, Note_on_c, 0, 70, 0
2, 18317, Note_on_c, 0, 82, 0
2, 18317, Note_on_c, 0, 50, 63
2, 18321, Note_on_c, 0, 55, 63
2, 18321, Note_on_c, 0, 83, 64
2, 18325, Note_on_c, 0, 79, 59
2, 18325, Note_on_c, 0, 71, 58
2, 18339, Note_on_c, 0, 79, 0
2, 18339, Note_on_c, 0, 83, 0
2, 18417, Note_on_c, 0, 55, 0
2, 18417, Note_on_c, 0, 59, 0
2, 18421, Note_on_c, 0, 50, 0
2, 18421, Note_on_c, 0, 71, 0
2, 18432, Note_on_c, 0, 74, 59
2, 18438, Note_on_c, 0, 83, 44
2, 18438, Note_on_c, 0, 79, 42
2, 18438, Note_on_c, 0, 86, 56
2, 18438, Note_on_c, 0, 77, 56
2, 18497, Note_on_c, 0, 74, 0
2, 18526, Note_on_c, 0, 47, 66
2, 18544, Note_on_c, 0, 86, 0
2, 18544, Note_on_c, 0, 77, 0
2, 18549, Note_on_c, 0, 83, 0
2, 18549, Note_on_c, 0, 79, 0
2, 18618, Note_on_c, 0, 47, 0
2, 18627, Note_on_c, 0, 79, 54
2, 18627, Note_on_c, 0, 83, 56
2, 18627, Note_on_c, 0, 74, 60
2, 18633, Note_on_c, 0, 77, 57
2, 18639, Note_on_c, 0, 86, 54
2, 18721, Note_on_c, 0, 59, 65
2, 18725, Note_on_c, 0, 74, 0
2, 18725, Note_on_c, 0, 50, 60
2, 18725, Note_on_c, 0, 55, 62
2, 18744, Note_on_c, 0, 83, 0
2, 18748, Note_on_c, 0, 77, 0
2, 18748, Note_on_c, 0, 79, 0
2, 18797, Note_on_c, 0, 86, 0
2, 18820, Note_on_c, 0, 59, 0
2, 18830, Note_on_c, 0, 50, 0
2, 18830, Note_on_c, 0, 88, 70
2, 18834, Note_on_c, 0, 76, 71
2, 18850, Note_on_c, 0, 76, 0
2, 18850, Note_on_c, 0, 55, 0
2, 18926, Note_on_c, 0, 48, 68
2, 18930, Note_on_c, 0, 88, 0
2, 18930, Note_on_c, 0, 74, 64
2, 18933, Note_on_c, 0, 79, 63
2, 18937, Note_on_c, 0, 76, 58
2, 18969, Note_on_c, 0, 86, 71
2, 18969, Control_c, 0, 64, 127
2, 19023, Note_on_c, 0, 86, 0
2, 19023, Control_c, 0, 64, 0
2, 19029, Note_on_c, 0, 74, 0
2, 19041, Note_on_c, 0, 72, 68
2, 19041, Note_on_c, 0, 84, 67
2, 19128, Note_on_c, 0, 76, 0
2, 19128, Note_on_c, 0, 52, 68
2, 19128, Note_on_c, 0, 55, 67
2, 19132, Note_on_c, 0, 79, 0
2, 19132, Note_on_c, 0, 60, 67
2, 19177, Note_on_c, 0, 84, 0
2, 19177, Note_on_c, 0, 72, 0
2, 19205, Note_on_c, 0, 48, 0
2, 19205, Note_on_c, 0, 60, 0
2, 19232, Note_on_c, 0, 55, 0
2, 19236, Note_on_c, 0, 52, 0
2, 19236, Note_on_c, 0, 67, 65
2, 19240, Note_on_c, 0, 79, 65
2, 19240, Note_on_c, 0, 76, 68
2, 19339, Note_on_c, 0, 48, 69
2, 19388, Note_on_c, 0, 79, 0
2, 19388, Note_on_c, 0, 67, 0
2, 19392, Note_on_c, 0, 76, 0
2, 19441, Note_on_c, 0, 81, 68
2, 19444, Note_on_c, 0, 75, 68
2, 19444, Note_on_c, 0, 69, 67
2, 19542, Note_on_c, 0, 51, 63
2, 19542, Note_on_c, 0, 60, 65
2, 19542, Note_on_c, 0, 55, 62
2, 19642, Note_on_c, 0, 60, 0
2, 19642, Note_on_c, 0, 81, 0
2, 19642, Note_on_c, 0, 48, 0
2, 19642, Note_on_c, 0, 69, 0
2, 19645, Note_on_c, 0, 55, 0
2, 19645, Note_on_c, 0, 67, 67
2, 19645, Note_on_c, 0, 79, 67
2, 19667, Note_on_c, 0, 51, 0
2, 19690, Note_on_c, 0, 75, 0
2, 19735, Control_c, 0, 64, 127
2, 19745, Note_on_c, 0, 67, 0
2, 19745, Note_on_c, 0, 79, 0
2, 19755, Note_on_c, 0, 74, 63
2, 19755, Note_on_c, 0, 43, 64
2, 19759, Note_on_c, 0, 83, 65
2, 19759, Control_c, 0, 64, 0
2, 19759, Note_on_c, 0, 71, 63
2, 19825, Note_on_c, 0, 83, 0
2, 19825, Note_on_c, 0, 74, 0
2, 19831, Note_on_c, 0, 71, 0
2, 19848, Note_on_c, 0, 67, 69
2, 19852, Note_on_c, 0, 79, 68
2, 19952, Note_on_c, 0, 79, 0
2, 19952, Note_on_c, 0, 67, 0
2, 19956, Note_on_c, 0, 59, 63
2, 19956, Note_on_c, 0, 55, 61
2, 19960, Note_on_c, 0, 76, 71
2, 19960, Note_on_c, 0, 50, 58
2, 19960, Note_on_c, 0, 64, 60
2, 20053, Note_on_c, 0, 64, 0
2, 20053, Note_on_c, 0, 59, 0
2, 20053, Note_on_c, 0, 74, 73
2, 20056, Note_on_c, 0, 76, 0
2, 20056, Note_on_c, 0, 50, 0
2, 20056, Note_on_c, 0, 62, 67
2, 20075, Note_on_c, 0, 55, 0
2, 20153, Note_on_c, 0, 55, 67
2, 20153, Note_on_c, 0, 50, 58
2, 20153, Note_on_c, 0, 59, 63
2, 20207, Note_on_c, 0, 74, 0
2, 20211, Note_on_c, 0, 62, 0
2, 20256, Note_on_c, 0, 67, 69
2, 20256, Note_on_c, 0, 79, 68
2, 20309, Note_on_c, 0, 43, 0
2, 20356, Note_on_c, 0, 67, 0
2, 20356, Note_on_c, 0, 59, 0
2, 20356, Note_on_c, 0, 55, 0
2, 20362, Note_on_c, 0, 79, 0
2, 20362, Note_on_c, 0, 50, 0
2, 20362, Note_on_c, 0, 81, 68
2, 20362, Note_on_c, 0, 69, 68
2, 20434, Note_on_c, 0, 69, 0
2, 20459, Note_on_c, 0, 81, 0
2, 20467, Note_on_c, 0, 71, 69
2, 20467, Note_on_c, 0, 83, 70
2, 20483, Note_on_c, 0, 83, 0
2, 20563, Note_on_c, 0, 71, 0
2, 20569, Note_on_c, 0, 74, 61
2, 20569, Note_on_c, 0, 79, 57
2, 20573, Note_on_c, 0, 43, 65
2, 20580, Note_on_c, 0, 83, 50
2, 20580, Note_on_c, 0, 86, 59
2, 20604, Control_c, 0, 64, 127
2, 20662, Control_c, 0, 64, 0
2, 20764, Note_on_c, 0, 59, 67
2, 20764, Note_on_c, 0, 55, 63
2, 20768, Note_on_c, 0, 50, 61
2, 20789, Note_on_c, 0, 74, 0
2, 20838, Note_on_c, 0, 86, 0
2, 20838, Note_on_c, 0, 79, 0
2, 20838, Note_on_c, 0, 83, 0
2, 20838, Note_on_c, 0, 59, 0
2, 20846, Note_on_c, 0, 50, 0
2, 20868, Note_on_c, 0, 55, 0
2, 20887, Note_on_c, 0, 43, 0
2, 20963, Note_on_c, 0, 40, 65
2, 20963, Note_on_c, 0, 91, 67
2, 20963, Note_on_c, 0, 79, 66
2, 20969, Note_on_c, 0, 83, 69
2, 21166, Note_on_c, 0, 59, 65
2, 21170, Note_on_c, 0, 52, 63
2, 21170, Note_on_c, 0, 55, 62
2, 21241, Note_on_c, 0, 59, 0
2, 21241, Note_on_c, 0, 83, 0
2, 21241, Note_on_c, 0, 79, 0
2, 21241, Note_on_c, 0, 91, 0
2, 21252, Note_on_c, 0, 52, 0
2, 21270, Note_on_c, 0, 55, 0
2, 21295, Note_on_c, 0, 40, 0
2, 21370, Note_on_c, 0, 78, 69
2, 21370, Note_on_c, 0, 45, 65
2, 21370, Note_on_c, 0, 90, 74
2, 21383, Control_c, 0, 64, 127
2, 21409, Note_on_c, 0, 86, 71
2, 21442, Note_on_c, 0, 90, 0
2, 21442, Control_c, 0, 64, 0
2, 21450, Note_on_c, 0, 78, 0
2, 21473, Note_on_c, 0, 45, 0
2, 21481, Note_on_c, 0, 77, 71
2, 21499, Note_on_c, 0, 86, 0
2, 21505, Note_on_c, 0, 89, 73
2, 21575, Note_on_c, 0, 77, 0
2, 21575, Note_on_c, 0, 78, 68
2, 21579, Note_on_c, 0, 89, 0
2, 21579, Note_on_c, 0, 62, 67
2, 21579, Note_on_c, 0, 57, 64
2, 21610, Note_on_c, 0, 54, 63
2, 21630, Note_on_c, 0, 78, 0
2, 21673, Note_on_c, 0, 54, 0
2, 21673, Note_on_c, 0, 57, 0
2, 21680, Note_on_c, 0, 62, 0
2, 21698, Note_on_c, 0, 81, 64
2, 21706, Note_on_c, 0, 90, 68
2, 21710, Note_on_c, 0, 93, 67
2, 21716, Note_on_c, 0, 86, 62
2, 21776, Note_on_c, 0, 42, 63
2, 21800, Note_on_c, 0, 86, 0
2, 21800, Note_on_c, 0, 90, 0
2, 21827, Note_on_c, 0, 81, 0
2, 21853, Note_on_c, 0, 42, 0
2, 21880, Note_on_c, 0, 74, 73
2, 21888, Note_on_c, 0, 93, 0
2, 21913, Note_on_c, 0, 86, 74
2, 21954, Note_on_c, 0, 86, 0
2, 21958, Note_on_c, 0, 74, 0
2, 21986, Note_on_c, 0, 78, 70
2, 21986, Note_on_c, 0, 90, 75
2, 21986, Note_on_c, 0, 57, 63
2, 21986, Note_on_c, 0, 62, 67
2, 21989, Note_on_c, 0, 54, 62
2, 22081, Note_on_c, 0, 54, 0
2, 22081, Note_on_c, 0, 57, 0
2, 22081, Note_on_c, 0, 90, 0
2, 22085, Note_on_c, 0, 78, 0
2, 22085, Note_on_c, 0, 81, 69
2, 22089, Note_on_c, 0, 62, 0
2, 22093, Note_on_c, 0, 93, 74
2, 22183, Note_on_c, 0, 81, 0
2, 22187, Note_on_c, 0, 40, 65
2, 22187, Note_on_c, 0, 85, 60
2, 22191, Note_on_c, 0, 93, 0
2, 22191, Note_on_c, 0, 95, 69
2, 22197, Note_on_c, 0, 83, 66
2, 22197, Control_c, 0, 64, 127
2, 22251, Control_c, 0, 64, 0
2, 22257, Note_on_c, 0, 83, 0
2, 22285, Note_on_c, 0, 40, 0
2, 22285, Note_on_c, 0, 79, 68
2, 22289, Note_on_c, 0, 95, 0
2, 22316, Note_on_c, 0, 91, 73
2, 22359, Note_on_c, 0, 91, 0
2, 22359, Note_on_c, 0, 85, 0
2, 22363, Note_on_c, 0, 79, 0
2, 22390, Note_on_c, 0, 61, 63
2, 22390, Note_on_c, 0, 55, 61
2, 22390, Note_on_c, 0, 76, 73
2, 22390, Note_on_c, 0, 57, 62
2, 22445, Note_on_c, 0, 88, 74
2, 22488, Note_on_c, 0, 57, 0
2, 22488, Note_on_c, 0, 61, 0
2, 22492, Note_on_c, 0, 55, 0
2, 22492, Note_on_c, 0, 73, 70
2, 22492, Note_on_c, 0, 85, 69
2, 22518, Note_on_c, 0, 76, 0
2, 22518, Note_on_c, 0, 88, 0
2, 22596, Note_on_c, 0, 45, 65
2, 22639, Note_on_c, 0, 73, 0
2, 22645, Note_on_c, 0, 85, 0
2, 22715, Note_on_c, 0, 45, 0
2, 22715, Note_on_c, 0, 69, 73
2, 22743, Note_on_c, 0, 81, 74
2, 22790, Note_on_c, 0, 69, 0
2, 22795, Note_on_c, 0, 61, 65
2, 22795, Note_on_c, 0, 55, 62
2, 22795, Note_on_c, 0, 57, 63
2, 22813, Note_on_c, 0, 81, 0
2, 22829, Note_on_c, 0, 79, 63
2, 22829, Note_on_c, 0, 83, 67
2, 22829, Note_on_c, 0, 71, 64
2, 22893, Note_on_c, 0, 83, 0
2, 22893, Note_on_c, 0, 61, 0
2, 22893, Note_on_c, 0, 57, 0
2, 22897, Note_on_c, 0, 73, 67
2, 22901, Note_on_c, 0, 71, 0
2, 22901, Note_on_c, 0, 85, 66
2, 22923, Note_on_c, 0, 55, 0
2, 22997, Note_on_c, 0, 73, 0
2, 22997, Note_on_c, 0, 79, 0
2, 22997, Note_on_c, 0, 85, 0
2, 23007, Note_on_c, 0, 62, 65
2, 23007, Note_on_c, 0, 57, 61
2, 23007, Note_on_c, 0, 50, 58
2, 23007, Note_on_c, 0, 74, 66
2, 23007, Note_on_c, 0, 78, 66
2, 23019, Control_c, 0, 64, 127
2, 23040, Note_on_c, 0, 86, 70
2, 23093, Note_on_c, 0, 57, 0
2, 23103, Note_on_c, 0, 62, 0
2, 23103, Note_on_c, 0, 50, 0
2, 23107, Note_on_c, 0, 48, 66
2, 23107, Note_on_c, 0, 60, 64
2, 23112, Control_c, 0, 64, 0
2, 23203, Note_on_c, 0, 60, 0
2, 23203, Note_on_c, 0, 45, 66
2, 23203, Note_on_c, 0, 57, 70
2, 23224, Note_on_c, 0, 48, 0
2, 23296, Note_on_c, 0, 57, 0
2, 23300, Note_on_c, 0, 45, 0
2, 23304, Note_on_c, 0, 40, 63
2, 23304, Note_on_c, 0, 52, 64
2, 23324, Note_on_c, 0, 86, 0
2, 23389, Note_on_c, 0, 86, 73
2, 23404, Note_on_c, 0, 40, 0
2, 23408, Note_on_c, 0, 52, 0
2, 23408, Note_on_c, 0, 50, 62
2, 23408, Note_on_c, 0, 38, 63
2, 23483, Note_on_c, 0, 50, 0
2, 23486, Note_on_c, 0, 74, 0
2, 23486, Note_on_c, 0, 38, 0
2, 23486, Note_on_c, 0, 78, 0
2, 23486, Note_on_c, 0, 35, 63
2, 23508, Note_on_c, 0, 86, 0
2, 23520, Note_on_c, 0, 47, 65
2, 23602, Note_on_c, 0, 47, 0
2, 23608, Note_on_c, 0, 35, 0
2, 23612, Note_on_c, 0, 67, 68
2, 23612, Note_on_c, 0, 33, 60
2, 23612, Note_on_c, 0, 79, 67
2, 23612, Note_on_c, 0, 45, 63
2, 23706, Note_on_c, 0, 79, 0
2, 23706, Note_on_c, 0, 67, 0
2, 23710, Note_on_c, 0, 33, 0
2, 23710, Note_on_c, 0, 45, 0
2, 23714, Note_on_c, 0, 35, 61
2, 23719, Note_on_c, 0, 71, 67
2, 23719, Note_on_c, 0, 47, 63
2, 23719, Note_on_c, 0, 83, 67
2, 23733, Note_on_c, 0, 83, 0
2, 23806, Note_on_c, 0, 47, 0
2, 23810, Note_on_c, 0, 35, 0
2, 23814, Note_on_c, 0, 71, 0
2, 23814, Note_on_c, 0, 31, 61
2, 23819, Control_c, 0, 64, 127
2, 23819, Note_on_c, 0, 74, 61
2, 23823, Note_on_c, 0, 79, 56
2, 23823, Note_on_c, 0, 43, 62
2, 23827, Note_on_c, 0, 86, 58
2, 23827, Note_on_c, 0, 83, 43
2, 23861, Control_c, 0, 64, 0
2, 24013, Note_on_c, 0, 59, 63
2, 24017, Note_on_c, 0, 55, 61
2, 24017, Note_on_c, 0, 50, 59
2, 24084, Note_on_c, 0, 59, 0
2, 24084, Note_on_c, 0, 83, 0
2, 24084, Note_on_c, 0, 79, 0
2, 24111, Note_on_c, 0, 50, 0
2, 24111, Note_on_c, 0, 55, 0
2, 24111, Note_on_c, 0, 86, 0
2, 24139, Note_on_c, 0, 31, 0
2, 24139, Note_on_c, 0, 43, 0
2, 24139, Note_on_c, 0, 74, 0
2, 24211, Note_on_c, 0, 38, 64
2, 24217, Note_on_c, 0, 26, 57
2, 24245, Note_on_c, 0, 91, 67
2, 24245, Note_on_c, 0, 79, 66
2, 24245, Note_on_c, 0, 83, 68
2, 24407, Note_on_c, 0, 59, 64
2, 24415, Note_on_c, 0, 55, 62
2, 24415, Note_on_c, 0, 50, 60
2, 24484, Note_on_c, 0, 59, 0
2, 24515, Note_on_c, 0, 50, 0
2, 24515, Note_on_c, 0, 55, 0
2, 24535, Note_on_c, 0, 79, 0
2, 24535, Note_on_c, 0, 83, 0
2, 24570, Note_on_c, 0, 38, 0
2, 24590, Note_on_c, 0, 91, 0
2, 24593, Note_on_c, 0, 26, 0
2, 24615, Note_on_c, 0, 31, 62
2, 24615, Note_on_c, 0, 79, 65
2, 24627, Note_on_c, 0, 71, 64
2, 24627, Note_on_c, 0, 43, 63
2, 24627, Note_on_c, 0, 83, 67
2, 24637, Control_c, 0, 64, 127
2, 24689, Control_c, 0, 64, 0
2, 24717, Note_on_c, 0, 83, 0
2, 24717, Note_on_c, 0, 79, 0
2, 24717, Note_on_c, 0, 43, 0
2, 24725, Note_on_c, 0, 71, 0
2, 24725, Note_on_c, 0, 31, 0
2, 24725, Note_on_c, 0, 70, 70
2, 24752, Note_on_c, 0, 82, 74
2, 24819, Note_on_c, 0, 82, 0
2, 24819, Note_on_c, 0, 70, 0
2, 24825, Note_on_c, 0, 59, 65
2, 24825, Note_on_c, 0, 50, 61
2, 24829, Note_on_c, 0, 55, 63
2, 24833, Note_on_c, 0, 79, 61
2, 24833, Note_on_c, 0, 83, 63
2, 24833, Note_on_c, 0, 71, 62
2, 24848, Note_on_c, 0, 83, 0
2, 24848, Note_on_c, 0, 79, 0
2, 24895, Note_on_c, 0, 59, 0
2, 24925, Note_on_c, 0, 50, 0
2, 24925, Note_on_c, 0, 55, 0
2, 24933, Note_on_c, 0, 71, 0
2, 24933, Note_on_c, 0, 74, 61
2, 24937, Note_on_c, 0, 83, 46
2, 24937, Note_on_c, 0, 79, 43
2, 24944, Note_on_c, 0, 77, 60
2, 24972, Note_on_c, 0, 86, 70
2, 24995, Note_on_c, 0, 77, 0
2, 24995, Note_on_c, 0, 83, 0
2, 24999, Note_on_c, 0, 74, 0
2, 24999, Note_on_c, 0, 79, 0
2, 25023, Note_on_c, 0, 35, 62
2, 25029, Note_on_c, 0, 47, 63
2, 25042, Note_on_c, 0, 86, 0
2, 25123, Note_on_c, 0, 47, 0
2, 25129, Note_on_c, 0, 35, 0
2, 25139, Note_on_c, 0, 77, 67
2, 25164, Note_on_c, 0, 74, 62
2, 25168, Note_on_c, 0, 79, 59
2, 25172, Note_on_c, 0, 83, 63
2, 25176, Note_on_c, 0, 86, 61
2, 25235, Note_on_c, 0, 59, 64
2, 25241, Note_on_c, 0, 50, 60
2, 25241, Note_on_c, 0, 55, 62
2, 25280, Note_on_c, 0, 83, 0
2, 25303, Note_on_c, 0, 86, 0
2, 25303, Note_on_c, 0, 79, 0
2, 25303, Note_on_c, 0, 77, 0
2, 25311, Note_on_c, 0, 74, 0
2, 25331, Note_on_c, 0, 59, 0
2, 25339, Note_on_c, 0, 88, 70
2, 25345, Note_on_c, 0, 76, 71
2, 25356, Note_on_c, 0, 50, 0
2, 25356, Note_on_c, 0, 55, 0
2, 25360, Note_on_c, 0, 76, 0
2, 25431, Note_on_c, 0, 88, 0
2, 25431, Note_on_c, 0, 74, 65
2, 25437, Note_on_c, 0, 48, 67
2, 25443, Note_on_c, 0, 36, 59
2, 25443, Note_on_c, 0, 79, 63
2, 25448, Note_on_c, 0, 76, 57
2, 25454, Control_c, 0, 64, 127
2, 25474, Note_on_c, 0, 86, 70
2, 25519, Control_c, 0, 64, 0
2, 25531, Note_on_c, 0, 86, 0
2, 25531, Note_on_c, 0, 48, 0
2, 25535, Note_on_c, 0, 74, 0
2, 25535, Note_on_c, 0, 36, 0
2, 25549, Note_on_c, 0, 84, 67
2, 25552, Note_on_c, 0, 72, 69
2, 25613, Note_on_c, 0, 79, 0
2, 25643, Note_on_c, 0, 76, 0
2, 25643, Note_on_c, 0, 52, 63
2, 25651, Note_on_c, 0, 55, 61
2, 25651, Note_on_c, 0, 60, 63
2, 25688, Note_on_c, 0, 84, 0
2, 25715, Note_on_c, 0, 72, 0
2, 25745, Note_on_c, 0, 60, 0
2, 25745, Note_on_c, 0, 52, 0
2, 25749, Note_on_c, 0, 67, 64
2, 25757, Note_on_c, 0, 79, 66
2, 25757, Note_on_c, 0, 76, 68
2, 25764, Note_on_c, 0, 55, 0
2, 25851, Note_on_c, 0, 48, 67
2, 25855, Note_on_c, 0, 36, 61
2, 25866, Note_on_c, 0, 79, 0
2, 25890, Note_on_c, 0, 67, 0
2, 25898, Note_on_c, 0, 76, 0
2, 25945, Note_on_c, 0, 48, 0
2, 25945, Note_on_c, 0, 36, 0
2, 25945, Note_on_c, 0, 69, 69
2, 25951, Note_on_c, 0, 75, 70
2, 25974, Note_on_c, 0, 81, 72
2, 26055, Note_on_c, 0, 51, 62
2, 26055, Note_on_c, 0, 55, 62
2, 26055, Note_on_c, 0, 60, 63
2, 26096, Note_on_c, 0, 81, 0
2, 26096, Note_on_c, 0, 69, 0
2, 26151, Note_on_c, 0, 55, 0
2, 26155, Note_on_c, 0, 60, 0
2, 26155, Note_on_c, 0, 79, 68
2, 26155, Note_on_c, 0, 67, 69
2, 26198, Note_on_c, 0, 75, 0
2, 26198, Note_on_c, 0, 51, 0
2, 26249, Note_on_c, 0, 79, 0
2, 26249, Note_on_c, 0, 67, 0
2, 26253, Note_on_c, 0, 31, 62
2, 26253, Note_on_c, 0, 43, 63
2, 26259, Note_on_c, 0, 74, 64
2, 26265, Note_on_c, 0, 83, 67
2, 26265, Note_on_c, 0, 71, 64
2, 26324, Note_on_c, 0, 83, 0
2, 26349, Note_on_c, 0, 74, 0
2, 26349, Note_on_c, 0, 31, 0
2, 26349, Note_on_c, 0, 43, 0
2, 26353, Note_on_c, 0, 71, 0
2, 26361, Note_on_c, 0, 79, 67
2, 26361, Note_on_c, 0, 67, 68
2, 26426, Note_on_c, 0, 79, 0
2, 26448, Note_on_c, 0, 67, 0
2, 26453, Note_on_c, 0, 59, 63
2, 26459, Note_on_c, 0, 50, 58
2, 26459, Note_on_c, 0, 55, 60
2, 26459, Note_on_c, 0, 76, 73
2, 26463, Note_on_c, 0, 64, 61
2, 26550, Note_on_c, 0, 64, 0
2, 26550, Note_on_c, 0, 59, 0
2, 26556, Note_on_c, 0, 50, 0
2, 26556, Note_on_c, 0, 76, 0
2, 26560, Note_on_c, 0, 74, 73
2, 26560, Note_on_c, 0, 62, 68
2, 26577, Note_on_c, 0, 55, 0
2, 26656, Note_on_c, 0, 59, 64
2, 26660, Note_on_c, 0, 50, 58
2, 26660, Note_on_c, 0, 55, 65
2, 26728, Note_on_c, 0, 59, 0
2, 26732, Note_on_c, 0, 74, 0
2, 26752, Note_on_c, 0, 55, 0
2, 26758, Note_on_c, 0, 50, 0
2, 26758, Note_on_c, 0, 62, 0
2, 26768, Note_on_c, 0, 71, 69
2, 26768, Note_on_c, 0, 83, 70
2, 26852, Note_on_c, 0, 83, 0
2, 26860, Note_on_c, 0, 71, 0
2, 26864, Note_on_c, 0, 70, 72
2, 26890, Note_on_c, 0, 82, 74
2, 26958, Note_on_c, 0, 70, 0
2, 26966, Note_on_c, 0, 71, 71
2, 26984, Note_on_c, 0, 82, 0
2, 26994, Note_on_c, 0, 83, 74
2, 27013, Note_on_c, 0, 83, 0
2, 27039, Note_on_c, 0, 71, 0
2, 27058, Note_on_c, 0, 83, 65
2, 27066, Note_on_c, 0, 42, 60
2, 27070, Note_on_c, 0, 75, 67
2, 27070, Note_on_c, 0, 54, 62
2, 27070, Note_on_c, 0, 87, 64
2, 27086, Control_c, 0, 64, 127
2, 27139, Control_c, 0, 64, 0
2, 27267, Note_on_c, 0, 59, 64
2, 27273, Note_on_c, 0, 57, 63
2, 27314, Note_on_c, 0, 83, 0
2, 27330, Note_on_c, 0, 75, 0
2, 27336, Note_on_c, 0, 87, 0
2, 27336, Note_on_c, 0, 57, 0
2, 27339, Note_on_c, 0, 59, 0
2, 27414, Note_on_c, 0, 54, 0
2, 27414, Note_on_c, 0, 42, 0
2, 27473, Note_on_c, 0, 35, 62
2, 27481, Note_on_c, 0, 47, 63
2, 27501, Note_on_c, 0, 78, 60
2, 27507, Note_on_c, 0, 90, 67
2, 27507, Note_on_c, 0, 83, 62
2, 27510, Note_on_c, 0, 87, 62
2, 27666, Note_on_c, 0, 59, 65
2, 27670, Note_on_c, 0, 57, 63
2, 27764, Note_on_c, 0, 59, 0
2, 27764, Note_on_c, 0, 90, 0
2, 27764, Note_on_c, 0, 83, 0
2, 27767, Note_on_c, 0, 87, 0
2, 27770, Note_on_c, 0, 81, 63
2, 27786, Note_on_c, 0, 57, 0
2, 27790, Note_on_c, 0, 78, 0
2, 27790, Note_on_c, 0, 81, 0
2, 27794, Note_on_c, 0, 93, 43
2, 27813, Note_on_c, 0, 47, 0
2, 27819, Note_on_c, 0, 93, 0
2, 27819, Note_on_c, 0, 35, 0
2, 27874, Note_on_c, 0, 52, 63
2, 27878, Note_on_c, 0, 81, 57
2, 27882, Note_on_c, 0, 40, 61
2, 27886, Note_on_c, 0, 83, 67
2, 27886, Note_on_c, 0, 88, 64
2, 27900, Control_c, 0, 64, 127
2, 27912, Note_on_c, 0, 93, 73
2, 27953, Control_c, 0, 64, 0
2, 27971, Note_on_c, 0, 40, 0
2, 27971, Note_on_c, 0, 81, 0
2, 27976, Note_on_c, 0, 52, 0
2, 27976, Note_on_c, 0, 93, 0
2, 27982, Note_on_c, 0, 91, 66
2, 27986, Note_on_c, 0, 79, 63
2, 28073, Note_on_c, 0, 79, 0
2, 28073, Note_on_c, 0, 91, 0
2, 28077, Note_on_c, 0, 59, 67
2, 28081, Note_on_c, 0, 78, 64
2, 28081, Note_on_c, 0, 55, 63
2, 28085, Note_on_c, 0, 90, 72
2, 28150, Note_on_c, 0, 90, 0
2, 28150, Note_on_c, 0, 83, 0
2, 28150, Note_on_c, 0, 59, 0
2, 28153, Note_on_c, 0, 88, 0
2, 28153, Note_on_c, 0, 78, 0
2, 28177, Note_on_c, 0, 55, 0
2, 28183, Note_on_c, 0, 91, 68
2, 28189, Note_on_c, 0, 79, 64
2, 28189, Note_on_c, 0, 82, 69
2, 28281, Note_on_c, 0, 79, 0
2, 28281, Note_on_c, 0, 91, 0
2, 28289, Note_on_c, 0, 37, 63
2, 28293, Note_on_c, 0, 49, 65
2, 28358, Note_on_c, 0, 37, 0
2, 28384, Note_on_c, 0, 49, 0
2, 28393, Note_on_c, 0, 91, 72
2, 28393, Note_on_c, 0, 79, 68
2, 28458, Note_on_c, 0, 91, 0
2, 28464, Note_on_c, 0, 79, 0
2, 28490, Note_on_c, 0, 78, 69
2, 28490, Note_on_c, 0, 52, 63
2, 28490, Note_on_c, 0, 58, 65
2, 28494, Note_on_c, 0, 90, 74
2, 28494, Note_on_c, 0, 55, 61
2, 28586, Note_on_c, 0, 90, 0
2, 28586, Note_on_c, 0, 58, 0
2, 28590, Note_on_c, 0, 52, 0
2, 28590, Note_on_c, 0, 82, 0
2, 28590, Note_on_c, 0, 55, 0
2, 28590, Note_on_c, 0, 78, 0
2, 28602, Note_on_c, 0, 76, 73
2, 28618, Note_on_c, 0, 76, 0
2, 28695, Note_on_c, 0, 50, 62
2, 28695, Note_on_c, 0, 38, 62
2, 28695, Note_on_c, 0, 76, 65
2, 28708, Control_c, 0, 64, 127
2, 28728, Note_on_c, 0, 88, 69
2, 28732, Note_on_c, 0, 83, 70
2, 28767, Note_on_c, 0, 88, 0
2, 28767, Control_c, 0, 64, 0
2, 28771, Note_on_c, 0, 38, 0
2, 28771, Note_on_c, 0, 50, 0
2, 28791, Note_on_c, 0, 76, 0
2, 28795, Note_on_c, 0, 74, 72
2, 28840, Note_on_c, 0, 86, 71
2, 28893, Note_on_c, 0, 86, 0
2, 28893, Note_on_c, 0, 74, 0
2, 28893, Note_on_c, 0, 83, 0
2, 28899, Note_on_c, 0, 59, 68
2, 28903, Note_on_c, 0, 73, 68
2, 28903, Note_on_c, 0, 85, 65
2, 28903, Note_on_c, 0, 55, 65
2, 28992, Note_on_c, 0, 55, 0
2, 28992, Note_on_c, 0, 59, 0
2, 28992, Note_on_c, 0, 73, 0
2, 28996, Note_on_c, 0, 85, 0
2, 29004, Note_on_c, 0, 74, 74
2, 29035, Note_on_c, 0, 86, 72
2, 29102, Note_on_c, 0, 50, 63
2, 29102, Note_on_c, 0, 38, 63
2, 29143, Note_on_c, 0, 86, 0
2, 29147, Note_on_c, 0, 74, 0
2, 29202, Note_on_c, 0, 50, 0
2, 29202, Note_on_c, 0, 38, 0
2, 29212, Note_on_c, 0, 72, 73
2, 29238, Note_on_c, 0, 84, 73
2, 29297, Note_on_c, 0, 72, 0
2, 29301, Note_on_c, 0, 84, 0
2, 29311, Note_on_c, 0, 69, 71
2, 29311, Note_on_c, 0, 54, 62
2, 29315, Note_on_c, 0, 57, 63
2, 29315, Note_on_c, 0, 60, 64
2, 29334, Note_on_c, 0, 81, 73
2, 29403, Note_on_c, 0, 81, 0
2, 29403, Note_on_c, 0, 69, 0
2, 29403, Note_on_c, 0, 57, 0
2, 29403, Note_on_c, 0, 54, 0
2, 29409, Note_on_c, 0, 60, 0
2, 29415, Note_on_c, 0, 66, 69
2, 29415, Note_on_c, 0, 78, 68
2, 29447, Control_c, 0, 64, 127
2, 29500, Control_c, 0, 64, 0
2, 29510, Note_on_c, 0, 66, 0
2, 29510, Note_on_c, 0, 59, 65
2, 29514, Note_on_c, 0, 78, 0
2, 29514, Note_on_c, 0, 67, 64
2, 29517, Note_on_c, 0, 55, 62
2, 29517, Note_on_c, 0, 79, 64
2, 29580, Note_on_c, 0, 59, 0
2, 29604, Note_on_c, 0, 67, 0
2, 29604, Note_on_c, 0, 55, 0
2, 29608, Note_on_c, 0, 79, 0
2, 29718, Note_on_c, 0, 74, 73
2, 29738, Note_on_c, 0, 74, 0
2, 29821, Note_on_c, 0, 74, 69
2, 29840, Note_on_c, 0, 74, 0
2, 29921, Note_on_c, 0, 59, 66
2, 29921, Note_on_c, 0, 74, 65
2, 29925, Note_on_c, 0, 47, 63
2, 29935, Note_on_c, 0, 86, 69
2, 30008, Note_on_c, 0, 86, 0
2, 30008, Note_on_c, 0, 47, 0
2, 30008, Note_on_c, 0, 59, 0
2, 30016, Note_on_c, 0, 74, 0
2, 30020, Note_on_c, 0, 57, 64
2, 30024, Note_on_c, 0, 45, 63
2, 30087, Note_on_c, 0, 57, 0
2, 30114, Note_on_c, 0, 45, 0
2, 30124, Note_on_c, 0, 83, 67
2, 30124, Note_on_c, 0, 56, 61
2, 30124, Note_on_c, 0, 74, 67
2, 30130, Note_on_c, 0, 44, 62
2, 30130, Note_on_c, 0, 77, 64
2, 30187, Note_on_c, 0, 77, 0
2, 30187, Note_on_c, 0, 83, 0
2, 30187, Note_on_c, 0, 56, 0
2, 30191, Note_on_c, 0, 74, 0
2, 30191, Note_on_c, 0, 44, 0
2, 30217, Note_on_c, 0, 59, 67
2, 30229, Note_on_c, 0, 47, 63
2, 30315, Note_on_c, 0, 47, 0
2, 30315, Note_on_c, 0, 59, 0
2, 30325, Note_on_c, 0, 78, 64
2, 30325, Control_c, 0, 64, 127
2, 30325, Note_on_c, 0, 74, 67
2, 30325, Note_on_c, 0, 57, 63
2, 30333, Note_on_c, 0, 84, 65
2, 30333, Note_on_c, 0, 45, 62
2, 30380, Control_c, 0, 64, 0
2, 30420, Note_on_c, 0, 45, 0
2, 30420, Note_on_c, 0, 57, 0
2, 30426, Note_on_c, 0, 59, 65
2, 30436, Note_on_c, 0, 47, 62
2, 30532, Note_on_c, 0, 48, 64
2, 30532, Note_on_c, 0, 60, 63
2, 30538, Note_on_c, 0, 54, 58
2, 30544, Note_on_c, 0, 47, 0
2, 30548, Note_on_c, 0, 59, 0
2, 30676, Note_on_c, 0, 54, 0
2, 30702, Note_on_c, 0, 48, 0
2, 30702, Note_on_c, 0, 60, 0
2, 30735, Note_on_c, 0, 42, 61
2, 30739, Note_on_c, 0, 54, 60
2, 30828, Note_on_c, 0, 54, 0
2, 30828, Note_on_c, 0, 84, 0
2, 30828, Note_on_c, 0, 42, 0
2, 30832, Note_on_c, 0, 74, 0
2, 30832, Note_on_c, 0, 78, 0
2, 30836, Note_on_c, 0, 59, 67
2, 30836, Note_on_c, 0, 68, 66
2, 30846, Note_on_c, 0, 71, 67
2, 30905, Note_on_c, 0, 59, 0
2, 30932, Note_on_c, 0, 68, 0
2, 30938, Note_on_c, 0, 71, 0
2, 30938, Note_on_c, 0, 60, 65
2, 30938, Note_on_c, 0, 69, 67
2, 30938, Note_on_c, 0, 50, 59
2, 30946, Note_on_c, 0, 54, 62
2, 30946, Note_on_c, 0, 72, 70
2, 31007, Note_on_c, 0, 54, 0
2, 31011, Note_on_c, 0, 50, 0
2, 31011, Note_on_c, 0, 60, 0
2, 31057, Note_on_c, 0, 69, 0
2, 31057, Note_on_c, 0, 72, 0
2, 31136, Note_on_c, 0, 68, 70
2, 31136, Note_on_c, 0, 65, 67
2, 31144, Note_on_c, 0, 56, 60
2, 31144, Note_on_c, 0, 38, 61
2, 31144, Note_on_c, 0, 50, 61
2, 31185, Control_c, 0, 64, 127
2, 31232, Note_on_c, 0, 56, 0
2, 31232, Note_on_c, 0, 68, 0
2, 31238, Note_on_c, 0, 50, 0
2, 31238, Note_on_c, 0, 38, 0
2, 31238, Note_on_c, 0, 66, 68
2, 31242, Note_on_c, 0, 57, 64
2, 31242, Note_on_c, 0, 69, 68
2, 31252, Control_c, 0, 64, 0
2, 31286, Note_on_c, 0, 65, 0
2, 31343, Note_on_c, 0, 60, 68
2, 31343, Note_on_c, 0, 50, 63
2, 31347, Note_on_c, 0, 54, 67
2, 31361, Note_on_c, 0, 66, 0
2, 31361, Note_on_c, 0, 69, 0
2, 31361, Note_on_c, 0, 57, 0
2, 31443, Note_on_c, 0, 60, 0
2, 31443, Note_on_c, 0, 50, 0
2, 31443, Note_on_c, 0, 54, 0
2, 31443, Note_on_c, 0, 68, 74
2, 31447, Note_on_c, 0, 59, 67
2, 31479, Note_on_c, 0, 71, 73
2, 31544, Note_on_c, 0, 59, 0
2, 31544, Note_on_c, 0, 68, 0
2, 31550, Note_on_c, 0, 69, 67
2, 31554, Note_on_c, 0, 71, 0
2, 31554, Note_on_c, 0, 60, 64
2, 31558, Note_on_c, 0, 54, 61
2, 31558, Note_on_c, 0, 42, 58
2, 31562, Note_on_c, 0, 72, 70
2, 31621, Note_on_c, 0, 42, 0
2, 31621, Note_on_c, 0, 54, 0
2, 31621, Note_on_c, 0, 60, 0
2, 31643, Note_on_c, 0, 72, 0
2, 31670, Note_on_c, 0, 69, 0
2, 31755, Note_on_c, 0, 60, 63
2, 31755, Note_on_c, 0, 50, 58
2, 31759, Note_on_c, 0, 72, 72
2, 31759, Note_on_c, 0, 54, 60
2, 31759, Note_on_c, 0, 76, 70
2, 31763, Note_on_c, 0, 64, 60
2, 31848, Note_on_c, 0, 54, 0
2, 31852, Note_on_c, 0, 50, 0
2, 31852, Note_on_c, 0, 60, 0
2, 31927, Note_on_c, 0, 64, 0
2, 31953, Note_on_c, 0, 73, 67
2, 31960, Note_on_c, 0, 61, 63
2, 31960, Note_on_c, 0, 70, 68
2, 31964, Note_on_c, 0, 55, 61
2, 31972, Control_c, 0, 64, 127
2, 31972, Note_on_c, 0, 43, 61
2, 31976, Note_on_c, 0, 72, 0
2, 31982, Note_on_c, 0, 76, 0
2, 32032, Control_c, 0, 64, 0
2, 32051, Note_on_c, 0, 73, 0
2, 32051, Note_on_c, 0, 55, 0
2, 32051, Note_on_c, 0, 61, 0
2, 32051, Note_on_c, 0, 43, 0
2, 32061, Note_on_c, 0, 70, 0
2, 32061, Note_on_c, 0, 74, 72
2, 32065, Note_on_c, 0, 62, 67
2, 32097, Note_on_c, 0, 71, 71
2, 32158, Note_on_c, 0, 62, 0
2, 32158, Note_on_c, 0, 74, 0
2, 32162, Note_on_c, 0, 71, 0
2, 32162, Note_on_c, 0, 59, 67
2, 32162, Note_on_c, 0, 50, 61
2, 32172, Note_on_c, 0, 55, 63
2, 32257, Note_on_c, 0, 50, 0
2, 32257, Note_on_c, 0, 59, 0
2, 32268, Note_on_c, 0, 74, 68
2, 32268, Note_on_c, 0, 79, 64
2, 32272, Note_on_c, 0, 71, 65
2, 32278, Note_on_c, 0, 55, 0
2, 32300, Note_on_c, 0, 83, 72
2, 32359, Note_on_c, 0, 79, 0
2, 32369, Note_on_c, 0, 38, 63
2, 32369, Note_on_c, 0, 50, 62
2, 32381, Note_on_c, 0, 83, 0
2, 32413, Note_on_c, 0, 74, 0
2, 32417, Note_on_c, 0, 71, 0
2, 32464, Note_on_c, 0, 50, 0
2, 32468, Note_on_c, 0, 38, 0
2, 32472, Note_on_c, 0, 73, 61
2, 32478, Note_on_c, 0, 70, 60
2, 32478, Note_on_c, 0, 82, 63
2, 32484, Note_on_c, 0, 79, 48
2, 32507, Note_on_c, 0, 79, 0
2, 32565, Note_on_c, 0, 73, 0
2, 32565, Note_on_c, 0, 70, 0
2, 32565, Note_on_c, 0, 82, 0
2, 32569, Note_on_c, 0, 74, 60
2, 32569, Note_on_c, 0, 59, 63
2, 32573, Note_on_c, 0, 55, 61
2, 32578, Note_on_c, 0, 50, 60
2, 32588, Note_on_c, 0, 74, 0
2, 32588, Note_on_c, 0, 83, 59
2, 32588, Note_on_c, 0, 71, 49
2, 32610, Note_on_c, 0, 71, 0
2, 32663, Note_on_c, 0, 59, 0
2, 32663, Note_on_c, 0, 83, 0
2, 32667, Note_on_c, 0, 55, 0
2, 32673, Note_on_c, 0, 50, 0
2, 32679, Note_on_c, 0, 74, 58
2, 32679, Note_on_c, 0, 67, 59
2, 32679, Note_on_c, 0, 79, 63
2, 32683, Note_on_c, 0, 71, 50
2, 32770, Note_on_c, 0, 79, 0
2, 32770, Note_on_c, 0, 74, 0
2, 32776, Note_on_c, 0, 55, 63
2, 32786, Note_on_c, 0, 43, 62
2, 32800, Note_on_c, 0, 71, 0
2, 32800, Control_c, 0, 64, 127
2, 32818, Note_on_c, 0, 67, 0
2, 32855, Note_on_c, 0, 78, 68
2, 32855, Note_on_c, 0, 66, 69
2, 32867, Control_c, 0, 64, 0
2, 32871, Note_on_c, 0, 55, 0
2, 32871, Note_on_c, 0, 43, 0
2, 32885, Note_on_c, 0, 42, 59
2, 32885, Note_on_c, 0, 54, 62
2, 32950, Note_on_c, 0, 78, 0
2, 32950, Note_on_c, 0, 66, 0
2, 32964, Note_on_c, 0, 67, 57
2, 32964, Note_on_c, 0, 74, 61
2, 32968, Note_on_c, 0, 79, 55
2, 32972, Note_on_c, 0, 71, 59
2, 32976, Note_on_c, 0, 42, 0
2, 32976, Note_on_c, 0, 54, 0
2, 32983, Note_on_c, 0, 53, 63
2, 32997, Note_on_c, 0, 41, 61
2, 33076, Note_on_c, 0, 41, 0
2, 33076, Note_on_c, 0, 53, 0
2, 33090, Note_on_c, 0, 55, 63
2, 33098, Note_on_c, 0, 43, 63
2, 33102, Note_on_c, 0, 79, 0
2, 33106, Note_on_c, 0, 74, 0
2, 33106, Note_on_c, 0, 71, 0
2, 33128, Note_on_c, 0, 67, 0
2, 33159, Note_on_c, 0, 66, 70
2, 33159, Note_on_c, 0, 78, 70
2, 33173, Note_on_c, 0, 43, 0
2, 33187, Note_on_c, 0, 52, 64
2, 33191, Note_on_c, 0, 40, 62
2, 33203, Note_on_c, 0, 55, 0
2, 33256, Note_on_c, 0, 78, 0
2, 33264, Note_on_c, 0, 74, 68
2, 33270, Note_on_c, 0, 79, 62
2, 33280, Note_on_c, 0, 40, 0
2, 33280, Note_on_c, 0, 66, 0
2, 33284, Note_on_c, 0, 52, 0
2, 33290, Note_on_c, 0, 67, 64
2, 33290, Note_on_c, 0, 39, 61
2, 33290, Note_on_c, 0, 51, 62
2, 33300, Note_on_c, 0, 71, 67
2, 33379, Note_on_c, 0, 67, 0
2, 33385, Note_on_c, 0, 39, 0
2, 33391, Note_on_c, 0, 50, 62
2, 33391, Note_on_c, 0, 38, 62
2, 33408, Note_on_c, 0, 51, 0
2, 33436, Note_on_c, 0, 74, 0
2, 33436, Note_on_c, 0, 79, 0
2, 33440, Note_on_c, 0, 71, 0
2, 33489, Note_on_c, 0, 50, 0
2, 33489, Note_on_c, 0, 38, 0
2, 33489, Note_on_c, 0, 67, 73
2, 33495, Note_on_c, 0, 55, 62
2, 33495, Note_on_c, 0, 37, 62
2, 33499, Note_on_c, 0, 49, 63
2, 33584, Note_on_c, 0, 49, 0
2, 33584, Note_on_c, 0, 37, 0
2, 33598, Note_on_c, 0, 48, 67
2, 33606, Note_on_c, 0, 67, 0
2, 33606, Note_on_c, 0, 36, 60
2, 33610, Note_on_c, 0, 55, 0
2, 33638, Control_c, 0, 64, 127
2, 33689, Note_on_c, 0, 67, 72
2, 33689, Control_c, 0, 64, 0
2, 33788, Note_on_c, 0, 67, 0
2, 33804, Note_on_c, 0, 72, 73
2, 33804, Note_on_c, 0, 60, 62
2, 33804, Note_on_c, 0, 55, 60
2, 33889, Note_on_c, 0, 60, 0
2, 33901, Note_on_c, 0, 76, 72
2, 33901, Note_on_c, 0, 64, 64
2, 33911, Note_on_c, 0, 72, 0
2, 33915, Note_on_c, 0, 55, 0
2, 33964, Note_on_c, 0, 48, 0
2, 33990, Note_on_c, 0, 64, 0
2, 33994, Note_on_c, 0, 76, 0
2, 33994, Note_on_c, 0, 36, 0
2, 34002, Note_on_c, 0, 67, 63
2, 34002, Note_on_c, 0, 52, 63
2, 34002, Note_on_c, 0, 40, 61
2, 34006, Note_on_c, 0, 79, 63
2, 34006, Note_on_c, 0, 72, 67
2, 34065, Note_on_c, 0, 40, 0
2, 34087, Note_on_c, 0, 72, 0
2, 34087, Note_on_c, 0, 67, 0
2, 34091, Note_on_c, 0, 79, 0
2, 34095, Note_on_c, 0, 52, 0
2, 34203, Note_on_c, 0, 39, 62
2, 34203, Note_on_c, 0, 72, 74
2, 34207, Note_on_c, 0, 51, 63
2, 34231, Note_on_c, 0, 81, 72
2, 34255, Note_on_c, 0, 69, 72
2, 34288, Note_on_c, 0, 69, 0
2, 34292, Note_on_c, 0, 72, 0
2, 34292, Note_on_c, 0, 39, 0
2, 34292, Note_on_c, 0, 81, 0
2, 34310, Note_on_c, 0, 67, 65
2, 34310, Note_on_c, 0, 71, 65
2, 34314, Note_on_c, 0, 51, 0
2, 34314, Note_on_c, 0, 79, 65
2, 34395, Note_on_c, 0, 71, 0
2, 34401, Note_on_c, 0, 50, 62
2, 34401, Note_on_c, 0, 38, 63
2, 34409, Note_on_c, 0, 67, 0
2, 34409, Control_c, 0, 64, 127
2, 34413, Note_on_c, 0, 79, 0
2, 34451, Control_c, 0, 64, 0
2, 34464, Note_on_c, 0, 50, 0
2, 34464, Note_on_c, 0, 38, 0
2, 34502, Note_on_c, 0, 71, 72
2, 34597, Note_on_c, 0, 71, 0
2, 34601, Note_on_c, 0, 59, 64
2, 34601, Note_on_c, 0, 74, 73
2, 34601, Note_on_c, 0, 62, 66
2, 34611, Note_on_c, 0, 55, 61
2, 34670, Note_on_c, 0, 59, 0
2, 34694, Note_on_c, 0, 55, 0
2, 34698, Note_on_c, 0, 62, 0
2, 34698, Note_on_c, 0, 74, 0
2, 34712, Note_on_c, 0, 64, 67
2, 34797, Note_on_c, 0, 64, 0
2, 34801, Note_on_c, 0, 65, 63
2, 34813, Note_on_c, 0, 55, 63
2, 34813, Note_on_c, 0, 71, 67
2, 34819, Note_on_c, 0, 43, 62
2, 34819, Note_on_c, 0, 76, 69
2, 34894, Note_on_c, 0, 43, 0
2, 34894, Note_on_c, 0, 55, 0
2, 34898, Note_on_c, 0, 65, 0
2, 34898, Note_on_c, 0, 76, 0
2, 34906, Note_on_c, 0, 62, 69
2, 34906, Note_on_c, 0, 74, 73
2, 34977, Note_on_c, 0, 71, 0
2, 35005, Note_on_c, 0, 74, 0
2, 35011, Note_on_c, 0, 65, 62
2, 35011, Note_on_c, 0, 35, 61
2, 35015, Note_on_c, 0, 67, 64
2, 35021, Note_on_c, 0, 76, 68
2, 35025, Note_on_c, 0, 47, 61
2, 35029, Note_on_c, 0, 62, 0
2, 35100, Note_on_c, 0, 47, 0
2, 35104, Note_on_c, 0, 67, 0
2, 35104, Note_on_c, 0, 76, 0
2, 35104, Note_on_c, 0, 35, 0
2, 35112, Note_on_c, 0, 62, 70
2, 35112, Note_on_c, 0, 74, 74
2, 35187, Note_on_c, 0, 65, 0
2, 35209, Note_on_c, 0, 74, 0
2, 35209, Note_on_c, 0, 62, 0
2, 35221, Note_on_c, 0, 67, 60
2, 35225, Note_on_c, 0, 60, 63
2, 35229, Note_on_c, 0, 64, 61
2, 35236, Note_on_c, 0, 67, 0
2, 35236, Note_on_c, 0, 48, 61
2, 35236, Note_on_c, 0, 36, 55
2, 35236, Note_on_c, 0, 72, 74
2, 35258, Control_c, 0, 64, 127
2, 35308, Note_on_c, 0, 36, 0
2, 35308, Note_on_c, 0, 64, 0
2, 35308, Note_on_c, 0, 60, 0
2, 35312, Control_c, 0, 64, 0
2, 35318, Note_on_c, 0, 67, 62
2, 35326, Note_on_c, 0, 72, 0
2, 35333, Note_on_c, 0, 48, 0
2, 35403, Note_on_c, 0, 67, 0
2, 35425, Note_on_c, 0, 60, 66
2, 35425, Note_on_c, 0, 72, 73
2, 35434, Note_on_c, 0, 55, 62
2, 35508, Note_on_c, 0, 55, 0
2, 35508, Note_on_c, 0, 72, 0
2, 35508, Note_on_c, 0, 60, 0
2, 35530, Note_on_c, 0, 76, 74
2, 35530, Note_on_c, 0, 64, 67
2, 35621, Note_on_c, 0, 52, 63
2, 35627, Note_on_c, 0, 67, 62
2, 35627, Note_on_c, 0, 40, 61
2, 35633, Note_on_c, 0, 79, 61
2, 35637, Note_on_c, 0, 64, 0
2, 35637, Note_on_c, 0, 76, 0
2, 35640, Note_on_c, 0, 72, 67
2, 35710, Note_on_c, 0, 72, 0
2, 35714, Note_on_c, 0, 67, 0
2, 35714, Note_on_c, 0, 40, 0
2, 35714, Note_on_c, 0, 79, 0
2, 35720, Note_on_c, 0, 52, 0
2, 35823, Note_on_c, 0, 81, 69
2, 35829, Note_on_c, 0, 51, 63
2, 35829, Note_on_c, 0, 39, 62
2, 35835, Note_on_c, 0, 72, 70
2, 35856, Note_on_c, 0, 69, 72
2, 35888, Note_on_c, 0, 69, 0
2, 35888, Note_on_c, 0, 39, 0
2, 35888, Note_on_c, 0, 81, 0
2, 35912, Note_on_c, 0, 51, 0
2, 35912, Note_on_c, 0, 72, 0
2, 35934, Note_on_c, 0, 74, 63
2, 35942, Note_on_c, 0, 79, 61
2, 35942, Note_on_c, 0, 71, 61
2, 35952, Note_on_c, 0, 83, 66
2, 36019, Note_on_c, 0, 79, 0
2, 36035, Note_on_c, 0, 50, 62
2, 36035, Note_on_c, 0, 38, 63
2, 36041, Note_on_c, 0, 83, 0
2, 36055, Control_c, 0, 64, 127
2, 36076, Note_on_c, 0, 71, 0
2, 36098, Note_on_c, 0, 38, 0
2, 36098, Note_on_c, 0, 74, 0
2, 36120, Control_c, 0, 64, 0
2, 36124, Note_on_c, 0, 50, 0
2, 36130, Note_on_c, 0, 67, 72
2, 36160, Note_on_c, 0, 79, 71
2, 36217, Note_on_c, 0, 79, 0
2, 36217, Note_on_c, 0, 67, 0
2, 36233, Note_on_c, 0, 59, 64
2, 36233, Note_on_c, 0, 62, 66
2, 36239, Note_on_c, 0, 55, 61
2, 36269, Note_on_c, 0, 71, 68
2, 36269, Note_on_c, 0, 83, 70
2, 36318, Note_on_c, 0, 83, 0
2, 36318, Note_on_c, 0, 59, 0
2, 36348, Note_on_c, 0, 55, 0
2, 36354, Note_on_c, 0, 62, 0
2, 36360, Note_on_c, 0, 71, 0
2, 36435, Note_on_c, 0, 55, 66
2, 36441, Note_on_c, 0, 43, 63
2, 36471, Note_on_c, 0, 74, 66
2, 36477, Note_on_c, 0, 79, 64
2, 36477, Note_on_c, 0, 83, 67
2, 36522, Note_on_c, 0, 43, 0
2, 36526, Note_on_c, 0, 86, 71
2, 36546, Note_on_c, 0, 86, 0
2, 36546, Note_on_c, 0, 83, 0
2, 36550, Note_on_c, 0, 55, 0
2, 36550, Note_on_c, 0, 79, 0
2, 36554, Note_on_c, 0, 74, 0
2, 36635, Note_on_c, 0, 56, 63
2, 36643, Note_on_c, 0, 44, 63
2, 36663, Note_on_c, 0, 74, 65
2, 36669, Note_on_c, 0, 83, 68
2, 36677, Note_on_c, 0, 77, 65
2, 36695, Note_on_c, 0, 77, 0
2, 36695, Note_on_c, 0, 56, 0
2, 36695, Note_on_c, 0, 83, 0
2, 36701, Note_on_c, 0, 44, 0
2, 36731, Note_on_c, 0, 74, 0
2, 36842, Note_on_c, 0, 38, 63
2, 36842, Note_on_c, 0, 78, 65
2, 36842, Note_on_c, 0, 74, 67
2, 36842, Note_on_c, 0, 50, 61
2, 36850, Note_on_c, 0, 84, 65
2, 36850, Control_c, 0, 64, 127
2, 36899, Control_c, 0, 64, 0
2, 36935, Note_on_c, 0, 50, 0
2, 37046, Note_on_c, 0, 60, 64
2, 37050, Note_on_c, 0, 54, 61
2, 37050, Note_on_c, 0, 50, 60
2, 37135, Note_on_c, 0, 50, 0
2, 37135, Note_on_c, 0, 60, 0
2, 37135, Note_on_c, 0, 54, 0
2, 37193, Note_on_c, 0, 38, 0
2, 37250, Note_on_c, 0, 42, 61
2, 37250, Note_on_c, 0, 54, 63
2, 37292, Note_on_c, 0, 78, 0
2, 37292, Note_on_c, 0, 84, 0
2, 37292, Note_on_c, 0, 74, 0
2, 37343, Note_on_c, 0, 42, 0
2, 37343, Note_on_c, 0, 54, 0
2, 37351, Note_on_c, 0, 68, 70
2, 37351, Note_on_c, 0, 59, 68
2, 37361, Note_on_c, 0, 71, 69
2, 37421, Note_on_c, 0, 59, 0
2, 37447, Note_on_c, 0, 68, 0
2, 37453, Note_on_c, 0, 71, 0
2, 37459, Note_on_c, 0, 69, 67
2, 37459, Note_on_c, 0, 72, 69
2, 37459, Note_on_c, 0, 54, 61
2, 37462, Note_on_c, 0, 60, 64
2, 37462, Note_on_c, 0, 50, 59
2, 37520, Note_on_c, 0, 54, 0
2, 37524, Note_on_c, 0, 60, 0
2, 37524, Note_on_c, 0, 50, 0
2, 37568, Note_on_c, 0, 72, 0
2, 37568, Note_on_c, 0, 69, 0
2, 37643, Note_on_c, 0, 68, 70
2, 37643, Note_on_c, 0, 65, 67
2, 37649, Note_on_c, 0, 50, 62
2, 37649, Note_on_c, 0, 38, 62
2, 37649, Note_on_c, 0, 56, 61
2, 37667, Control_c, 0, 64, 127
2, 37709, Control_c, 0, 64, 0
2, 37719, Note_on_c, 0, 56, 0
2, 37719, Note_on_c, 0, 68, 0
2, 37726, Note_on_c, 0, 38, 0
2, 37746, Note_on_c, 0, 50, 0
2, 37746, Note_on_c, 0, 65, 0
2, 37754, Note_on_c, 0, 66, 67
2, 37754, Note_on_c, 0, 57, 65
2, 37760, Note_on_c, 0, 69, 69
2, 37861, Note_on_c, 0, 50, 59
2, 37861, Note_on_c, 0, 60, 64
2, 37861, Note_on_c, 0, 54, 61
2, 37901, Note_on_c, 0, 69, 0
2, 37901, Note_on_c, 0, 66, 0
2, 37951, Note_on_c, 0, 57, 0
2, 37951, Note_on_c, 0, 54, 0
2, 37955, Note_on_c, 0, 50, 0
2, 37955, Note_on_c, 0, 60, 0
2, 37955, Note_on_c, 0, 68, 74
2, 37959, Note_on_c, 0, 59, 67
2, 37988, Note_on_c, 0, 71, 72
2, 38046, Note_on_c, 0, 59, 0
2, 38050, Note_on_c, 0, 68, 0
2, 38058, Note_on_c, 0, 71, 0
2, 38058, Note_on_c, 0, 60, 64
2, 38058, Note_on_c, 0, 69, 67
2, 38064, Note_on_c, 0, 72, 70
2, 38064, Note_on_c, 0, 42, 59
2, 38064, Note_on_c, 0, 54, 61
2, 38123, Note_on_c, 0, 54, 0
2, 38123, Note_on_c, 0, 69, 0
2, 38123, Note_on_c, 0, 42, 0
2, 38127, Note_on_c, 0, 60, 0
2, 38149, Note_on_c, 0, 72, 0
2, 38268, Note_on_c, 0, 60, 63
2, 38268, Note_on_c, 0, 54, 61
2, 38268, Note_on_c, 0, 72, 72
2, 38272, Note_on_c, 0, 76, 69
2, 38272, Note_on_c, 0, 50, 58
2, 38272, Note_on_c, 0, 64, 61
2, 38356, Note_on_c, 0, 72, 0
2, 38360, Note_on_c, 0, 54, 0
2, 38360, Note_on_c, 0, 60, 0
2, 38360, Note_on_c, 0, 64, 0
2, 38364, Note_on_c, 0, 50, 0
2, 38392, Note_on_c, 0, 76, 0
2, 38465, Note_on_c, 0, 73, 72
2, 38469, Note_on_c, 0, 55, 62
2, 38469, Note_on_c, 0, 61, 64
2, 38477, Note_on_c, 0, 43, 61
2, 38489, Control_c, 0, 64, 127
2, 38499, Note_on_c, 0, 70, 71
2, 38543, Control_c, 0, 64, 0
2, 38556, Note_on_c, 0, 43, 0
2, 38556, Note_on_c, 0, 61, 0
2, 38556, Note_on_c, 0, 73, 0
2, 38564, Note_on_c, 0, 70, 0
2, 38570, Note_on_c, 0, 74, 71
2, 38570, Note_on_c, 0, 62, 68
2, 38582, Note_on_c, 0, 55, 0
2, 38602, Note_on_c, 0, 71, 70
2, 38670, Note_on_c, 0, 59, 64
2, 38670, Note_on_c, 0, 55, 63
2, 38670, Note_on_c, 0, 50, 60
2, 38690, Note_on_c, 0, 71, 0
2, 38690, Note_on_c, 0, 74, 0
2, 38715, Note_on_c, 0, 62, 0
2, 38759, Note_on_c, 0, 59, 0
2, 38785, Note_on_c, 0, 55, 0
2, 38789, Note_on_c, 0, 50, 0
2, 38803, Note_on_c, 0, 74, 62
2, 38807, Note_on_c, 0, 71, 61
2, 38807, Note_on_c, 0, 79, 59
2, 38813, Note_on_c, 0, 83, 62
2, 38860, Note_on_c, 0, 79, 0
2, 38868, Note_on_c, 0, 50, 67
2, 38894, Note_on_c, 0, 38, 64
2, 38908, Note_on_c, 0, 83, 0
2, 38914, Note_on_c, 0, 71, 0
2, 38938, Note_on_c, 0, 74, 0
2, 38962, Note_on_c, 0, 50, 0
2, 38966, Note_on_c, 0, 38, 0
2, 38966, Note_on_c, 0, 73, 73
2, 39005, Note_on_c, 0, 70, 69
2, 39005, Note_on_c, 0, 82, 70
2, 39035, Note_on_c, 0, 73, 0
2, 39039, Note_on_c, 0, 82, 0
2, 39057, Note_on_c, 0, 83, 64
2, 39065, Note_on_c, 0, 70, 0
2, 39075, Note_on_c, 0, 74, 63
2, 39075, Note_on_c, 0, 59, 64
2, 39075, Note_on_c, 0, 50, 60
2, 39079, Note_on_c, 0, 55, 62
2, 39089, Note_on_c, 0, 74, 0
2, 39162, Note_on_c, 0, 83, 0
2, 39162, Note_on_c, 0, 59, 0
2, 39166, Note_on_c, 0, 50, 0
2, 39178, Note_on_c, 0, 74, 49
2, 39178, Note_on_c, 0, 67, 59
2, 39190, Note_on_c, 0, 55, 0
2, 39190, Note_on_c, 0, 71, 63
2, 39190, Note_on_c, 0, 79, 61
2, 39282, Note_on_c, 0, 55, 63
2, 39288, Note_on_c, 0, 43, 63
2, 39306, Control_c, 0, 64, 127
2, 39315, Note_on_c, 0, 67, 0
2, 39319, Note_on_c, 0, 79, 0
2, 39323, Note_on_c, 0, 74, 0
2, 39323, Note_on_c, 0, 71, 0
2, 39341, Note_on_c, 0, 43, 0
2, 39359, Control_c, 0, 64, 0
2, 39371, Note_on_c, 0, 55, 0
2, 39375, Note_on_c, 0, 66, 68
2, 39381, Note_on_c, 0, 78, 67
2, 39381, Note_on_c, 0, 42, 60
2, 39387, Note_on_c, 0, 54, 62
2, 39477, Note_on_c, 0, 54, 0
2, 39477, Note_on_c, 0, 66, 0
2, 39477, Note_on_c, 0, 78, 0
2, 39477, Note_on_c, 0, 42, 0
2, 39484, Note_on_c, 0, 53, 63
2, 39490, Note_on_c, 0, 67, 57
2, 39494, Note_on_c, 0, 74, 62
2, 39498, Note_on_c, 0, 79, 56
2, 39498, Note_on_c, 0, 41, 61
2, 39502, Note_on_c, 0, 71, 59
2, 39576, Note_on_c, 0, 41, 0
2, 39576, Note_on_c, 0, 79, 0
2, 39576, Note_on_c, 0, 67, 0
2, 39576, Note_on_c, 0, 53, 0
2, 39582, Note_on_c, 0, 74, 0
2, 39586, Note_on_c, 0, 71, 0
2, 39592, Note_on_c, 0, 55, 64
2, 39598, Note_on_c, 0, 43, 63
2, 39655, Note_on_c, 0, 43, 0
2, 39675, Note_on_c, 0, 55, 0
2, 39687, Note_on_c, 0, 66, 70
2, 39687, Note_on_c, 0, 52, 65
2, 39691, Note_on_c, 0, 78, 69
2, 39691, Note_on_c, 0, 40, 63
2, 39781, Note_on_c, 0, 40, 0
2, 39781, Note_on_c, 0, 66, 0
2, 39787, Note_on_c, 0, 78, 0
2, 39791, Note_on_c, 0, 52, 0
2, 39791, Note_on_c, 0, 51, 63
2, 39795, Note_on_c, 0, 39, 61
2, 39795, Note_on_c, 0, 67, 62
2, 39795, Note_on_c, 0, 74, 66
2, 39801, Note_on_c, 0, 79, 61
2, 39824, Note_on_c, 0, 71, 69
2, 39878, Note_on_c, 0, 67, 0
2, 39886, Note_on_c, 0, 39, 0
2, 39892, Note_on_c, 0, 50, 61
2, 39892, Note_on_c, 0, 38, 63
2, 39908, Note_on_c, 0, 51, 0
2, 39908, Note_on_c, 0, 79, 0
2, 39912, Note_on_c, 0, 74, 0
2, 39940, Note_on_c, 0, 71, 0
2, 39966, Note_on_c, 0, 38, 0
2, 39992, Note_on_c, 0, 67, 72
2, 40000, Note_on_c, 0, 55, 61
2, 40000, Note_on_c, 0, 37, 61
2, 40003, Note_on_c, 0, 50, 0
2, 40009, Note_on_c, 0, 49, 62
2, 40087, Note_on_c, 0, 49, 0
2, 40087, Note_on_c, 0, 37, 0
2, 40087, Note_on_c, 0, 67, 0
2, 40109, Note_on_c, 0, 36, 59
2, 40109, Note_on_c, 0, 48, 65
2, 40115, Note_on_c, 0, 55, 0
2, 40123, Control_c, 0, 64, 127
2, 40188, Control_c, 0, 64, 0
2, 40198, Note_on_c, 0, 67, 71
2, 40206, Note_on_c, 0, 55, 57
2, 40228, Note_on_c, 0, 55, 0
2, 40292, Note_on_c, 0, 67, 0
2, 40302, Note_on_c, 0, 55, 54
2, 40306, Note_on_c, 0, 72, 72
2, 40306, Note_on_c, 0, 60, 62
2, 40320, Note_on_c, 0, 64, 39
2, 40320, Note_on_c, 0, 64, 0
2, 40391, Note_on_c, 0, 72, 0
2, 40391, Note_on_c, 0, 55, 0
2, 40391, Note_on_c, 0, 60, 0
2, 40401, Note_on_c, 0, 64, 70
2, 40409, Note_on_c, 0, 76, 74
2, 40447, Note_on_c, 0, 48, 0
2, 40453, Note_on_c, 0, 36, 0
2, 40503, Note_on_c, 0, 64, 0
2, 40503, Note_on_c, 0, 76, 0
2, 40507, Note_on_c, 0, 52, 64
2, 40511, Note_on_c, 0, 67, 63
2, 40511, Note_on_c, 0, 40, 62
2, 40517, Note_on_c, 0, 79, 62
2, 40521, Note_on_c, 0, 72, 69
2, 40574, Note_on_c, 0, 72, 0
2, 40578, Note_on_c, 0, 40, 0
2, 40578, Note_on_c, 0, 79, 0
2, 40578, Note_on_c, 0, 67, 0
2, 40582, Note_on_c, 0, 52, 0
2, 40708, Note_on_c, 0, 51, 63
2, 40708, Note_on_c, 0, 39, 63
2, 40708, Note_on_c, 0, 72, 74
2, 40736, Note_on_c, 0, 81, 70
2, 40736, Note_on_c, 0, 69, 69
2, 40775, Note_on_c, 0, 69, 0
2, 40775, Note_on_c, 0, 39, 0
2, 40775, Note_on_c, 0, 81, 0
2, 40797, Note_on_c, 0, 72, 0
2, 40797, Note_on_c, 0, 51, 0
2, 40813, Note_on_c, 0, 67, 66
2, 40817, Note_on_c, 0, 79, 64
2, 40817, Note_on_c, 0, 71, 66
2, 40905, Note_on_c, 0, 50, 63
2, 40909, Note_on_c, 0, 71, 0
2, 40909, Note_on_c, 0, 38, 63
2, 40935, Control_c, 0, 64, 127
2, 40955, Note_on_c, 0, 79, 0
2, 40982, Control_c, 0, 64, 0
2, 41006, Note_on_c, 0, 38, 0
2, 41010, Note_on_c, 0, 50, 0
2, 41016, Note_on_c, 0, 64, 66
2, 41044, Note_on_c, 0, 76, 71
2, 41068, Note_on_c, 0, 71, 70
2, 41102, Note_on_c, 0, 67, 0
2, 41110, Note_on_c, 0, 71, 0
2, 41110, Note_on_c, 0, 62, 66
2, 41114, Note_on_c, 0, 55, 63
2, 41122, Note_on_c, 0, 43, 61
2, 41128, Note_on_c, 0, 64, 0
2, 41136, Note_on_c, 0, 74, 73
2, 41158, Note_on_c, 0, 76, 0
2, 41199, Note_on_c, 0, 43, 0
2, 41199, Note_on_c, 0, 55, 0
2, 41205, Note_on_c, 0, 62, 0
2, 41209, Note_on_c, 0, 59, 66
2, 41227, Note_on_c, 0, 59, 0
2, 41231, Note_on_c, 0, 74, 0
2, 41237, Note_on_c, 0, 71, 71
2, 41307, Note_on_c, 0, 71, 0
2, 41315, Note_on_c, 0, 52, 59
2, 41315, Note_on_c, 0, 59, 44
2, 41315, Note_on_c, 0, 62, 61
2, 41319, Note_on_c, 0, 55, 56
2, 41323, Note_on_c, 0, 64, 58
2, 41327, Note_on_c, 0, 47, 57
2, 41337, Note_on_c, 0, 59, 0
2, 41407, Note_on_c, 0, 55, 0
2, 41411, Note_on_c, 0, 64, 0
2, 41411, Note_on_c, 0, 59, 58
2, 41417, Note_on_c, 0, 71, 72
2, 41514, Note_on_c, 0, 52, 0
2, 41514, Note_on_c, 0, 67, 70
2, 41520, Note_on_c, 0, 71, 0
2, 41524, Note_on_c, 0, 55, 64
2, 41614, Note_on_c, 0, 59, 0
2, 41614, Note_on_c, 0, 67, 0
2, 41614, Note_on_c, 0, 47, 0
2, 41620, Note_on_c, 0, 62, 0
2, 41620, Note_on_c, 0, 52, 63
2, 41626, Note_on_c, 0, 64, 65
2, 41638, Note_on_c, 0, 55, 0
2, 41719, Note_on_c, 0, 64, 0
2, 41719, Note_on_c, 0, 52, 0
2, 41719, Note_on_c, 0, 67, 72
2, 41719, Note_on_c, 0, 61, 63
2, 41723, Note_on_c, 0, 57, 62
2, 41723, Note_on_c, 0, 45, 60
2, 41741, Control_c, 0, 64, 127
2, 41789, Control_c, 0, 64, 0
2, 41817, Note_on_c, 0, 57, 0
2, 41821, Note_on_c, 0, 45, 0
2, 41829, Note_on_c, 0, 55, 62
2, 41835, Note_on_c, 0, 43, 61
2, 41918, Note_on_c, 0, 43, 0
2, 41928, Note_on_c, 0, 52, 65
2, 41932, Note_on_c, 0, 40, 62
2, 41946, Note_on_c, 0, 55, 0
2, 42024, Note_on_c, 0, 67, 0
2, 42028, Note_on_c, 0, 40, 0
2, 42028, Note_on_c, 0, 52, 0
2, 42032, Note_on_c, 0, 39, 61
2, 42032, Note_on_c, 0, 51, 63
2, 42096, Note_on_c, 0, 61, 0
2, 42126, Note_on_c, 0, 39, 0
2, 42134, Note_on_c, 0, 66, 67
2, 42134, Note_on_c, 0, 50, 54
2, 42134, Note_on_c, 0, 69, 66
2, 42140, Note_on_c, 0, 62, 58
2, 42140, Note_on_c, 0, 38, 55
2, 42140, Note_on_c, 0, 57, 52
2, 42146, Note_on_c, 0, 69, 0
2, 42146, Note_on_c, 0, 66, 0
2, 42150, Note_on_c, 0, 51, 0
2, 42158, Note_on_c, 0, 62, 0
2, 42164, Note_on_c, 0, 57, 0
2, 42231, Note_on_c, 0, 62, 61
2, 42231, Note_on_c, 0, 66, 55
2, 42231, Note_on_c, 0, 57, 59
2, 42231, Note_on_c, 0, 69, 56
2, 42243, Note_on_c, 0, 60, 64
2, 42359, Note_on_c, 0, 62, 0
2, 42405, Note_on_c, 0, 57, 0
2, 42405, Note_on_c, 0, 69, 0
2, 42409, Note_on_c, 0, 66, 0
2, 42409, Note_on_c, 0, 60, 0
2, 42437, Note_on_c, 0, 62, 70
2, 42437, Note_on_c, 0, 67, 72
2, 42441, Note_on_c, 0, 59, 63
2, 42447, Note_on_c, 0, 55, 56
2, 42467, Note_on_c, 0, 55, 0
2, 42474, Note_on_c, 0, 50, 0
2, 42488, Note_on_c, 0, 38, 0
2, 42536, Control_c, 0, 64, 127
2, 42540, Note_on_c, 0, 55, 56
2, 42548, Note_on_c, 0, 43, 62
2, 42614, Control_c, 0, 64, 0
2, 42686, Note_on_c, 0, 67, 0
2, 42686, Note_on_c, 0, 59, 0
2, 42694, Note_on_c, 0, 62, 0
2, 42744, Note_on_c, 0, 74, 72
2, 42762, Note_on_c, 0, 74, 0
2, 42851, Note_on_c, 0, 74, 69
2, 42871, Note_on_c, 0, 74, 0
2, 42893, Note_on_c, 0, 55, 0
2, 42893, Note_on_c, 0, 43, 0
2, 42947, Note_on_c, 0, 59, 67
2, 42953, Note_on_c, 0, 47, 63
2, 42953, Note_on_c, 0, 74, 65
2, 42959, Note_on_c, 0, 86, 68
2, 43015, Note_on_c, 0, 47, 0
2, 43019, Note_on_c, 0, 59, 0
2, 43019, Note_on_c, 0, 86, 0
2, 43025, Note_on_c, 0, 74, 0
2, 43152, Note_on_c, 0, 56, 62
2, 43152, Note_on_c, 0, 44, 62
2, 43152, Note_on_c, 0, 74, 66
2, 43162, Note_on_c, 0, 83, 67
2, 43162, Note_on_c, 0, 77, 63
2, 43250, Note_on_c, 0, 56, 0
2, 43254, Note_on_c, 0, 83, 0
2, 43254, Note_on_c, 0, 44, 0
2, 43254, Note_on_c, 0, 77, 0
2, 43260, Note_on_c, 0, 74, 0
2, 43356, Note_on_c, 0, 57, 64
2, 43356, Note_on_c, 0, 45, 62
2, 43362, Note_on_c, 0, 90, 68
2, 43362, Control_c, 0, 64, 127
2, 43368, Note_on_c, 0, 86, 61
2, 43368, Note_on_c, 0, 96, 67
2, 43452, Note_on_c, 0, 45, 0
2, 43452, Note_on_c, 0, 57, 0
2, 43468, Control_c, 0, 64, 0
2, 43555, Note_on_c, 0, 50, 65
2, 43559, Note_on_c, 0, 54, 67
2, 43559, Note_on_c, 0, 60, 69
2, 43661, Note_on_c, 0, 60, 0
2, 43661, Note_on_c, 0, 54, 0
2, 43671, Note_on_c, 0, 50, 0
2, 43771, Note_on_c, 0, 42, 61
2, 43771, Note_on_c, 0, 54, 63
2, 43823, Note_on_c, 0, 90, 0
2, 43827, Note_on_c, 0, 96, 0
2, 43869, Note_on_c, 0, 42, 0
2, 43869, Note_on_c, 0, 54, 0
2, 43873, Note_on_c, 0, 86, 0
2, 43873, Note_on_c, 0, 80, 67
2, 43879, Note_on_c, 0, 83, 69
2, 43946, Note_on_c, 0, 83, 0
2, 43974, Note_on_c, 0, 81, 67
2, 43974, Note_on_c, 0, 50, 59
2, 43974, Note_on_c, 0, 54, 61
2, 43974, Note_on_c, 0, 60, 64
2, 43978, Note_on_c, 0, 80, 0
2, 43978, Note_on_c, 0, 84, 67
2, 44048, Note_on_c, 0, 54, 0
2, 44052, Note_on_c, 0, 60, 0
2, 44052, Note_on_c, 0, 81, 0
2, 44052, Note_on_c, 0, 84, 0
2, 44056, Note_on_c, 0, 50, 0
2, 44170, Note_on_c, 0, 50, 61
2, 44170, Note_on_c, 0, 38, 63
2, 44178, Note_on_c, 0, 80, 68
2, 44186, Note_on_c, 0, 77, 66
2, 44206, Control_c, 0, 64, 127
2, 44238, Control_c, 0, 64, 0
2, 44258, Note_on_c, 0, 77, 0
2, 44258, Note_on_c, 0, 38, 0
2, 44262, Note_on_c, 0, 80, 0
2, 44266, Note_on_c, 0, 50, 0
2, 44284, Note_on_c, 0, 81, 70
2, 44284, Note_on_c, 0, 78, 67
2, 44376, Note_on_c, 0, 50, 65
2, 44376, Note_on_c, 0, 60, 70
2, 44386, Note_on_c, 0, 54, 67
2, 44432, Note_on_c, 0, 81, 0
2, 44436, Note_on_c, 0, 78, 0
2, 44482, Note_on_c, 0, 60, 0
2, 44482, Note_on_c, 0, 54, 0
2, 44482, Note_on_c, 0, 80, 68
2, 44487, Note_on_c, 0, 50, 0
2, 44487, Note_on_c, 0, 83, 70
2, 44561, Note_on_c, 0, 83, 0
2, 44561, Note_on_c, 0, 80, 0
2, 44575, Note_on_c, 0, 50, 63
2, 44581, Note_on_c, 0, 38, 63
2, 44581, Note_on_c, 0, 81, 70
2, 44589, Note_on_c, 0, 84, 69
2, 44659, Note_on_c, 0, 84, 0
2, 44659, Note_on_c, 0, 50, 0
2, 44659, Note_on_c, 0, 38, 0
2, 44659, Note_on_c, 0, 81, 0
2, 44783, Note_on_c, 0, 60, 65
2, 44783, Note_on_c, 0, 50, 61
2, 44783, Note_on_c, 0, 84, 73
2, 44787, Note_on_c, 0, 54, 62
2, 44817, Note_on_c, 0, 88, 72
2, 44863, Note_on_c, 0, 54, 0
2, 44869, Note_on_c, 0, 88, 0
2, 44889, Note_on_c, 0, 84, 0
2, 44889, Note_on_c, 0, 60, 0
2, 44893, Note_on_c, 0, 50, 0
2, 44985, Note_on_c, 0, 55, 64
2, 44989, Note_on_c, 0, 85, 67
2, 44989, Note_on_c, 0, 82, 70
2, 44995, Note_on_c, 0, 43, 63
2, 45015, Control_c, 0, 64, 127
2, 45069, Control_c, 0, 64, 0
2, 45093, Note_on_c, 0, 43, 0
2, 45093, Note_on_c, 0, 55, 0
2, 45099, Note_on_c, 0, 82, 0
2, 45099, Note_on_c, 0, 85, 0
2, 45099, Note_on_c, 0, 83, 66
2, 45103, Note_on_c, 0, 86, 63
2, 45191, Note_on_c, 0, 55, 61
2, 45191, Note_on_c, 0, 50, 60
2, 45191, Note_on_c, 0, 59, 63
2, 45223, Note_on_c, 0, 86, 0
2, 45249, Note_on_c, 0, 83, 0
2, 45296, Note_on_c, 0, 59, 0
2, 45296, Note_on_c, 0, 55, 0
2, 45300, Note_on_c, 0, 50, 0
2, 45300, Note_on_c, 0, 95, 76
2, 45328, Note_on_c, 0, 91, 70
2, 45332, Note_on_c, 0, 86, 68
2, 45392, Note_on_c, 0, 50, 65
2, 45392, Note_on_c, 0, 38, 63
2, 45404, Note_on_c, 0, 91, 0
2, 45460, Note_on_c, 0, 95, 0
2, 45500, Note_on_c, 0, 38, 0
2, 45500, Note_on_c, 0, 85, 71
2, 45504, Note_on_c, 0, 86, 0
2, 45504, Note_on_c, 0, 50, 0
2, 45524, Note_on_c, 0, 94, 78
2, 45596, Note_on_c, 0, 50, 63
2, 45596, Note_on_c, 0, 59, 65
2, 45600, Note_on_c, 0, 55, 63
2, 45608, Note_on_c, 0, 94, 0
2, 45612, Note_on_c, 0, 85, 0
2, 45632, Note_on_c, 0, 95, 75
2, 45632, Note_on_c, 0, 86, 67
2, 45656, Note_on_c, 0, 86, 0
2, 45702, Note_on_c, 0, 59, 0
2, 45730, Note_on_c, 0, 55, 0
2, 45734, Note_on_c, 0, 50, 0
2, 45734, Note_on_c, 0, 91, 67
2, 45734, Note_on_c, 0, 86, 60
2, 45738, Note_on_c, 0, 83, 67
2, 45742, Note_on_c, 0, 95, 0
2, 45806, Note_on_c, 0, 55, 66
2, 45806, Control_c, 0, 64, 127
2, 45810, Note_on_c, 0, 43, 62
2, 45850, Control_c, 0, 64, 0
2, 45864, Note_on_c, 0, 83, 0
2, 45892, Note_on_c, 0, 91, 0
2, 45892, Note_on_c, 0, 86, 0
2, 45912, Note_on_c, 0, 43, 0
2, 45912, Note_on_c, 0, 42, 60
2, 45912, Note_on_c, 0, 54, 63
2, 45918, Note_on_c, 0, 55, 0
2, 45942, Note_on_c, 0, 90, 76
2, 45988, Note_on_c, 0, 54, 0
2, 45988, Note_on_c, 0, 42, 0
2, 45992, Note_on_c, 0, 90, 0
2, 46004, Note_on_c, 0, 53, 69
2, 46012, Note_on_c, 0, 41, 66
2, 46044, Note_on_c, 0, 91, 67
2, 46048, Note_on_c, 0, 83, 67
2, 46048, Note_on_c, 0, 86, 63
2, 46094, Note_on_c, 0, 91, 0
2, 46112, Note_on_c, 0, 53, 0
2, 46112, Note_on_c, 0, 41, 0
2, 46112, Note_on_c, 0, 55, 63
2, 46118, Note_on_c, 0, 83, 0
2, 46118, Note_on_c, 0, 86, 0
2, 46118, Note_on_c, 0, 43, 63
2, 46214, Note_on_c, 0, 43, 0
2, 46214, Note_on_c, 0, 55, 0
2, 46214, Note_on_c, 0, 52, 64
2, 46214, Note_on_c, 0, 40, 62
2, 46244, Note_on_c, 0, 90, 77
2, 46314, Note_on_c, 0, 39, 61
2, 46314, Note_on_c, 0, 51, 62
2, 46320, Note_on_c, 0, 40, 0
2, 46320, Note_on_c, 0, 83, 70
2, 46324, Note_on_c, 0, 90, 0
2, 46350, Note_on_c, 0, 52, 0
2, 46350, Note_on_c, 0, 91, 70
2, 46356, Note_on_c, 0, 86, 68
2, 46420, Note_on_c, 0, 50, 62
2, 46420, Note_on_c, 0, 38, 63
2, 46424, Note_on_c, 0, 39, 0
2, 46448, Note_on_c, 0, 51, 0
2, 46478, Note_on_c, 0, 86, 0
2, 46478, Note_on_c, 0, 91, 0
2, 46478, Note_on_c, 0, 83, 0
2, 46518, Note_on_c, 0, 37, 63
2, 46518, Note_on_c, 0, 49, 64
2, 46522, Note_on_c, 0, 79, 70
2, 46526, Note_on_c, 0, 38, 0
2, 46526, Note_on_c, 0, 50, 0
2, 46594, Note_on_c, 0, 49, 0
2, 46598, Note_on_c, 0, 37, 0
2, 46598, Note_on_c, 0, 79, 0
2, 46612, Note_on_c, 0, 48, 66
2, 46616, Note_on_c, 0, 36, 59
2, 46638, Control_c, 0, 64, 127
2, 46684, Control_c, 0, 64, 0
2, 46748, Note_on_c, 0, 79, 70
2, 46822, Note_on_c, 0, 55, 66
2, 46826, Note_on_c, 0, 84, 72
2, 46826, Note_on_c, 0, 60, 67
2, 46826, Note_on_c, 0, 64, 66
2, 46832, Note_on_c, 0, 79, 0
2, 46932, Note_on_c, 0, 60, 0
2, 46932, Note_on_c, 0, 84, 0
2, 46932, Note_on_c, 0, 55, 0
2, 46932, Note_on_c, 0, 64, 0
2, 46956, Note_on_c, 0, 88, 73
2, 47008, Note_on_c, 0, 48, 0
2, 47008, Note_on_c, 0, 36, 0
2, 47024, Note_on_c, 0, 52, 63
2, 47024, Note_on_c, 0, 40, 62
2, 47030, Note_on_c, 0, 79, 65
2, 47034, Note_on_c, 0, 84, 66
2, 47040, Note_on_c, 0, 88, 0
2, 47058, Note_on_c, 0, 91, 72
2, 47128, Note_on_c, 0, 40, 0
2, 47132, Note_on_c, 0, 79, 0
2, 47132, Note_on_c, 0, 52, 0
2, 47158, Note_on_c, 0, 84, 0
2, 47158, Note_on_c, 0, 91, 0
2, 47222, Note_on_c, 0, 39, 63
2, 47226, Note_on_c, 0, 51, 63
2, 47260, Note_on_c, 0, 81, 66
2, 47266, Note_on_c, 0, 84, 66
2, 47270, Note_on_c, 0, 93, 71
2, 47310, Note_on_c, 0, 84, 0
2, 47310, Note_on_c, 0, 81, 0
2, 47310, Note_on_c, 0, 39, 0
2, 47332, Note_on_c, 0, 51, 0
2, 47344, Note_on_c, 0, 93, 0
2, 47359, Note_on_c, 0, 91, 67
2, 47359, Note_on_c, 0, 79, 63
2, 47363, Note_on_c, 0, 83, 67
2, 47431, Note_on_c, 0, 38, 63
2, 47431, Note_on_c, 0, 50, 62
2, 47443, Note_on_c, 0, 83, 0
2, 47463, Control_c, 0, 64, 127
2, 47517, Control_c, 0, 64, 0
2, 47521, Note_on_c, 0, 91, 0
2, 47545, Note_on_c, 0, 79, 0
2, 47545, Note_on_c, 0, 38, 0
2, 47545, Note_on_c, 0, 50, 0
2, 47567, Note_on_c, 0, 83, 73
2, 47615, Note_on_c, 0, 83, 0
2, 47633, Note_on_c, 0, 59, 64
2, 47633, Note_on_c, 0, 55, 62
2, 47639, Note_on_c, 0, 62, 65
2, 47671, Note_on_c, 0, 86, 70
2, 47715, Note_on_c, 0, 59, 0
2, 47741, Note_on_c, 0, 55, 0
2, 47745, Note_on_c, 0, 62, 0
2, 47745, Note_on_c, 0, 86, 0
2, 47835, Note_on_c, 0, 55, 63
2, 47843, Note_on_c, 0, 43, 62
2, 47843, Note_on_c, 0, 83, 70
2, 47847, Note_on_c, 0, 77, 67
2, 47871, Note_on_c, 0, 88, 71
2, 47939, Note_on_c, 0, 43, 0
2, 47943, Note_on_c, 0, 77, 0
2, 47943, Note_on_c, 0, 55, 0
2, 47947, Note_on_c, 0, 88, 0
2, 47969, Note_on_c, 0, 83, 0
2, 47969, Note_on_c, 0, 86, 70
2, 48039, Note_on_c, 0, 35, 61
2, 48045, Note_on_c, 0, 47, 62
2, 48045, Note_on_c, 0, 77, 69
2, 48073, Note_on_c, 0, 86, 0
2, 48073, Note_on_c, 0, 79, 67
2, 48099, Note_on_c, 0, 88, 72
2, 48145, Note_on_c, 0, 47, 0
2, 48149, Note_on_c, 0, 79, 0
2, 48149, Note_on_c, 0, 35, 0
2, 48153, Note_on_c, 0, 88, 0
2, 48178, Note_on_c, 0, 86, 70
2, 48198, Note_on_c, 0, 77, 0
2, 48246, Note_on_c, 0, 48, 66
2, 48246, Control_c, 0, 64, 127
2, 48250, Note_on_c, 0, 86, 0
2, 48250, Note_on_c, 0, 36, 59
2, 48254, Note_on_c, 0, 79, 59
2, 48258, Note_on_c, 0, 84, 65
2, 48258, Note_on_c, 0, 76, 64
2, 48274, Note_on_c, 0, 79, 0
2, 48286, Control_c, 0, 64, 0
2, 48324, Note_on_c, 0, 84, 0
2, 48324, Note_on_c, 0, 36, 0
2, 48346, Note_on_c, 0, 79, 64
2, 48352, Note_on_c, 0, 48, 0
2, 48356, Note_on_c, 0, 76, 0
2, 48448, Note_on_c, 0, 55, 66
2, 48448, Note_on_c, 0, 84, 73
2, 48448, Note_on_c, 0, 60, 68
2, 48454, Note_on_c, 0, 64, 65
2, 48458, Note_on_c, 0, 79, 0
2, 48558, Note_on_c, 0, 60, 0
2, 48558, Note_on_c, 0, 55, 0
2, 48558, Note_on_c, 0, 84, 0
2, 48558, Note_on_c, 0, 64, 0
2, 48608, Note_on_c, 0, 88, 74
2, 48656, Note_on_c, 0, 52, 64
2, 48656, Note_on_c, 0, 40, 63
2, 48690, Note_on_c, 0, 88, 0
2, 48690, Note_on_c, 0, 79, 63
2, 48690, Note_on_c, 0, 91, 66
2, 48690, Note_on_c, 0, 84, 67
2, 48763, Note_on_c, 0, 84, 0
2, 48763, Note_on_c, 0, 79, 0
2, 48763, Note_on_c, 0, 91, 0
2, 48763, Note_on_c, 0, 40, 0
2, 48767, Note_on_c, 0, 52, 0
2, 48853, Note_on_c, 0, 39, 62
2, 48853, Note_on_c, 0, 51, 63
2, 48887, Note_on_c, 0, 81, 67
2, 48887, Note_on_c, 0, 84, 67
2, 48895, Note_on_c, 0, 93, 72
2, 48961, Note_on_c, 0, 51, 0
2, 48965, Note_on_c, 0, 84, 0
2, 48965, Note_on_c, 0, 39, 0
2, 48965, Note_on_c, 0, 81, 0
2, 48965, Note_on_c, 0, 95, 72
2, 48973, Note_on_c, 0, 93, 0
2, 48993, Note_on_c, 0, 91, 65
2, 48997, Note_on_c, 0, 83, 67
2, 48997, Note_on_c, 0, 86, 65
2, 49065, Note_on_c, 0, 50, 61
2, 49065, Note_on_c, 0, 38, 62
2, 49071, Note_on_c, 0, 91, 0
2, 49097, Control_c, 0, 64, 127
2, 49121, Note_on_c, 0, 86, 0
2, 49121, Note_on_c, 0, 83, 0
2, 49156, Note_on_c, 0, 95, 0
2, 49164, Control_c, 0, 64, 0
2, 49176, Note_on_c, 0, 50, 0
2, 49176, Note_on_c, 0, 38, 0
2, 49192, Note_on_c, 0, 91, 74
2, 49268, Note_on_c, 0, 59, 63
2, 49268, Note_on_c, 0, 55, 61
2, 49268, Note_on_c, 0, 95, 78
2, 49274, Note_on_c, 0, 62, 65
2, 49328, Note_on_c, 0, 91, 0
2, 49374, Note_on_c, 0, 59, 0
2, 49374, Note_on_c, 0, 55, 0
2, 49382, Note_on_c, 0, 62, 0
2, 49408, Note_on_c, 0, 95, 0
2, 49468, Note_on_c, 0, 55, 63
2, 49474, Note_on_c, 0, 95, 72
2, 49474, Note_on_c, 0, 91, 63
2, 49478, Note_on_c, 0, 43, 62
2, 49482, Note_on_c, 0, 98, 67
2, 49482, Note_on_c, 0, 86, 61
2, 49555, Note_on_c, 0, 43, 0
2, 49559, Note_on_c, 0, 91, 0
2, 49559, Note_on_c, 0, 86, 0
2, 49565, Note_on_c, 0, 95, 0
2, 49565, Note_on_c, 0, 98, 0
2, 49583, Note_on_c, 0, 55, 0
2, 49679, Note_on_c, 0, 56, 61
2, 49683, Note_on_c, 0, 95, 73
2, 49683, Note_on_c, 0, 44, 62
2, 49687, Note_on_c, 0, 86, 64
2, 49687, Note_on_c, 0, 89, 66
2, 49783, Note_on_c, 0, 56, 0
2, 49787, Note_on_c, 0, 86, 0
2, 49787, Note_on_c, 0, 44, 0
2, 49791, Note_on_c, 0, 89, 0
2, 49819, Note_on_c, 0, 95, 0
2, 49878, Note_on_c, 0, 57, 65
2, 49878, Note_on_c, 0, 45, 63
2, 49886, Control_c, 0, 64, 127
2, 49912, Note_on_c, 0, 90, 69
2, 49916, Note_on_c, 0, 86, 63
2, 49916, Note_on_c, 0, 96, 67
2, 49946, Control_c, 0, 64, 0
2, 49958, Note_on_c, 0, 45, 0
2, 49958, Note_on_c, 0, 57, 0
2, 50084, Note_on_c, 0, 50, 59
2, 50084, Note_on_c, 0, 60, 63
2, 50088, Note_on_c, 0, 54, 60
2, 50189, Note_on_c, 0, 54, 0
2, 50193, Note_on_c, 0, 60, 0
2, 50201, Note_on_c, 0, 50, 0
2, 50289, Note_on_c, 0, 42, 61
2, 50289, Note_on_c, 0, 54, 63
2, 50367, Note_on_c, 0, 86, 0
2, 50367, Note_on_c, 0, 90, 0
2, 50371, Note_on_c, 0, 96, 0
2, 50391, Note_on_c, 0, 54, 0
2, 50391, Note_on_c, 0, 42, 0
2, 50391, Note_on_c, 0, 80, 69
2, 50395, Note_on_c, 0, 83, 70
2, 50472, Note_on_c, 0, 83, 0
2, 50476, Note_on_c, 0, 80, 0
2, 50490, Note_on_c, 0, 60, 64
2, 50494, Note_on_c, 0, 50, 59
2, 50494, Note_on_c, 0, 81, 70
2, 50494, Note_on_c, 0, 54, 60
2, 50494, Note_on_c, 0, 84, 69
2, 50574, Note_on_c, 0, 84, 0
2, 50574, Note_on_c, 0, 81, 0
2, 50574, Note_on_c, 0, 54, 0
2, 50578, Note_on_c, 0, 50, 0
2, 50578, Note_on_c, 0, 60, 0
2, 50696, Control_c, 0, 64, 127
2, 50696, Note_on_c, 0, 80, 68
2, 50700, Note_on_c, 0, 38, 62
2, 50700, Note_on_c, 0, 50, 61
2, 50704, Note_on_c, 0, 77, 67
2, 50747, Control_c, 0, 64, 0
2, 50779, Note_on_c, 0, 77, 0
2, 50783, Note_on_c, 0, 80, 0
2, 50783, Note_on_c, 0, 38, 0
2, 50783, Note_on_c, 0, 50, 0
2, 50799, Note_on_c, 0, 78, 71
2, 50825, Note_on_c, 0, 81, 74
2, 50903, Note_on_c, 0, 60, 69
2, 50903, Note_on_c, 0, 50, 66
2, 50907, Note_on_c, 0, 54, 67
2, 50957, Note_on_c, 0, 81, 0
2, 50961, Note_on_c, 0, 78, 0
2, 51004, Note_on_c, 0, 54, 0
2, 51004, Note_on_c, 0, 80, 69
2, 51008, Note_on_c, 0, 60, 0
2, 51008, Note_on_c, 0, 83, 70
2, 51012, Note_on_c, 0, 50, 0
2, 51082, Note_on_c, 0, 83, 0
2, 51086, Note_on_c, 0, 80, 0
2, 51098, Note_on_c, 0, 81, 70
2, 51102, Note_on_c, 0, 42, 61
2, 51102, Note_on_c, 0, 54, 63
2, 51108, Note_on_c, 0, 84, 70
2, 51184, Note_on_c, 0, 84, 0
2, 51184, Note_on_c, 0, 81, 0
2, 51184, Note_on_c, 0, 42, 0
2, 51184, Note_on_c, 0, 54, 0
2, 51307, Note_on_c, 0, 60, 65
2, 51307, Note_on_c, 0, 50, 60
2, 51311, Note_on_c, 0, 54, 62
2, 51339, Note_on_c, 0, 84, 72
2, 51365, Note_on_c, 0, 88, 73
2, 51389, Note_on_c, 0, 84, 0
2, 51389, Note_on_c, 0, 54, 0
2, 51393, Note_on_c, 0, 60, 0
2, 51419, Note_on_c, 0, 88, 0
2, 51423, Note_on_c, 0, 50, 0
2, 51506, Note_on_c, 0, 55, 63
2, 51506, Note_on_c, 0, 85, 67
2, 51506, Note_on_c, 0, 82, 70
2, 51514, Note_on_c, 0, 43, 62
2, 51536, Control_c, 0, 64, 127
2, 51578, Control_c, 0, 64, 0
2, 51612, Note_on_c, 0, 43, 0
2, 51616, Note_on_c, 0, 55, 0
2, 51616, Note_on_c, 0, 85, 0
2, 51616, Note_on_c, 0, 83, 70
2, 51644, Note_on_c, 0, 82, 0
2, 51644, Note_on_c, 0, 86, 69
2, 51713, Note_on_c, 0, 55, 66
2, 51713, Note_on_c, 0, 50, 66
2, 51713, Note_on_c, 0, 59, 68
2, 51739, Note_on_c, 0, 83, 0
2, 51743, Note_on_c, 0, 86, 0
2, 51795, Note_on_c, 0, 59, 0
2, 51803, Note_on_c, 0, 50, 0
2, 51823, Note_on_c, 0, 55, 0
2, 51843, Note_on_c, 0, 91, 67
2, 51843, Note_on_c, 0, 95, 73
2, 51849, Note_on_c, 0, 86, 65
2, 51922, Note_on_c, 0, 50, 62
2, 51922, Note_on_c, 0, 38, 63
2, 51926, Note_on_c, 0, 91, 0
2, 52000, Note_on_c, 0, 95, 0
2, 52000, Note_on_c, 0, 86, 0
2, 52014, Note_on_c, 0, 85, 72
2, 52030, Note_on_c, 0, 38, 0
2, 52038, Note_on_c, 0, 50, 0
2, 52038, Note_on_c, 0, 94, 79
2, 52119, Note_on_c, 0, 50, 63
2, 52119, Note_on_c, 0, 59, 64
2, 52119, Note_on_c, 0, 55, 62
2, 52147, Note_on_c, 0, 94, 0
2, 52147, Note_on_c, 0, 95, 74
2, 52147, Note_on_c, 0, 86, 65
2, 52151, Note_on_c, 0, 85, 0
2, 52175, Note_on_c, 0, 86, 0
2, 52227, Note_on_c, 0, 55, 0
2, 52227, Note_on_c, 0, 59, 0
2, 52227, Note_on_c, 0, 83, 73
2, 52233, Note_on_c, 0, 50, 0
2, 52253, Note_on_c, 0, 91, 70
2, 52257, Note_on_c, 0, 86, 67
2, 52261, Note_on_c, 0, 95, 0
2, 52326, Note_on_c, 0, 55, 63
2, 52336, Note_on_c, 0, 43, 62
2, 52350, Control_c, 0, 64, 127
2, 52358, Note_on_c, 0, 91, 0
2, 52404, Control_c, 0, 64, 0
2, 52408, Note_on_c, 0, 83, 0
2, 52408, Note_on_c, 0, 42, 58
2, 52408, Note_on_c, 0, 54, 61
2, 52412, Note_on_c, 0, 43, 0
2, 52430, Note_on_c, 0, 90, 74
2, 52434, Note_on_c, 0, 55, 0
2, 52434, Note_on_c, 0, 86, 0
2, 52529, Note_on_c, 0, 90, 0
2, 52529, Note_on_c, 0, 83, 70
2, 52529, Note_on_c, 0, 53, 63
2, 52535, Note_on_c, 0, 54, 0
2, 52535, Note_on_c, 0, 42, 0
2, 52535, Note_on_c, 0, 41, 61
2, 52559, Note_on_c, 0, 91, 69
2, 52563, Note_on_c, 0, 86, 68
2, 52609, Note_on_c, 0, 83, 0
2, 52609, Note_on_c, 0, 53, 0
2, 52633, Note_on_c, 0, 55, 63
2, 52639, Note_on_c, 0, 41, 0
2, 52639, Note_on_c, 0, 43, 63
2, 52658, Note_on_c, 0, 86, 0
2, 52658, Note_on_c, 0, 91, 0
2, 52736, Note_on_c, 0, 43, 0
2, 52736, Note_on_c, 0, 52, 64
2, 52736, Note_on_c, 0, 40, 62
2, 52760, Note_on_c, 0, 90, 78
2, 52766, Note_on_c, 0, 55, 0
2, 52839, Note_on_c, 0, 39, 60
2, 52839, Note_on_c, 0, 91, 69
2, 52839, Note_on_c, 0, 51, 62
2, 52843, Note_on_c, 0, 90, 0
2, 52843, Note_on_c, 0, 40, 0
2, 52843, Note_on_c, 0, 83, 69
2, 52849, Note_on_c, 0, 52, 0
2, 52871, Note_on_c, 0, 86, 71
2, 52921, Note_on_c, 0, 39, 0
2, 52941, Note_on_c, 0, 50, 61
2, 52945, Note_on_c, 0, 51, 0
2, 52945, Note_on_c, 0, 38, 62
2, 52967, Note_on_c, 0, 83, 0
2, 52967, Note_on_c, 0, 91, 0
2, 52971, Note_on_c, 0, 86, 0
2, 53040, Note_on_c, 0, 37, 63
2, 53044, Note_on_c, 0, 49, 63
2, 53044, Note_on_c, 0, 79, 71
2, 53048, Note_on_c, 0, 38, 0
2, 53052, Note_on_c, 0, 50, 0
2, 53140, Note_on_c, 0, 48, 66
2, 53144, Note_on_c, 0, 49, 0
2, 53144, Note_on_c, 0, 79, 0
2, 53144, Control_c, 0, 64, 127
2, 53148, Note_on_c, 0, 37, 0
2, 53148, Note_on_c, 0, 36, 60
2, 53191, Control_c, 0, 64, 0
2, 53239, Note_on_c, 0, 79, 70
2, 53344, Note_on_c, 0, 84, 73
2, 53344, Note_on_c, 0, 55, 67
2, 53348, Note_on_c, 0, 60, 68
2, 53352, Note_on_c, 0, 79, 0
2, 53352, Note_on_c, 0, 64, 66
2, 53452, Note_on_c, 0, 64, 0
2, 53452, Note_on_c, 0, 60, 0
2, 53452, Note_on_c, 0, 84, 0
2, 53452, Note_on_c, 0, 55, 0
2, 53476, Note_on_c, 0, 88, 74
2, 53531, Note_on_c, 0, 48, 0
2, 53535, Note_on_c, 0, 36, 0
2, 53551, Note_on_c, 0, 40, 62
2, 53551, Note_on_c, 0, 52, 63
2, 53551, Note_on_c, 0, 79, 66
2, 53555, Note_on_c, 0, 84, 67
2, 53559, Note_on_c, 0, 88, 0
2, 53579, Note_on_c, 0, 91, 73
2, 53653, Note_on_c, 0, 91, 0
2, 53656, Note_on_c, 0, 84, 0
2, 53656, Note_on_c, 0, 40, 0
2, 53656, Note_on_c, 0, 79, 0
2, 53660, Note_on_c, 0, 52, 0
2, 53752, Note_on_c, 0, 51, 63
2, 53752, Note_on_c, 0, 39, 62
2, 53752, Note_on_c, 0, 81, 67
2, 53758, Note_on_c, 0, 84, 66
2, 53758, Note_on_c, 0, 93, 71
2, 53859, Note_on_c, 0, 84, 0
2, 53859, Note_on_c, 0, 81, 0
2, 53859, Note_on_c, 0, 39, 0
2, 53859, Note_on_c, 0, 91, 64
2, 53859, Note_on_c, 0, 79, 61
2, 53863, Note_on_c, 0, 83, 64
2, 53869, Note_on_c, 0, 93, 0
2, 53883, Note_on_c, 0, 51, 0
2, 53957, Note_on_c, 0, 50, 62
2, 53957, Note_on_c, 0, 38, 63
2, 53986, Control_c, 0, 64, 127
2, 54016, Note_on_c, 0, 91, 0
2, 54034, Control_c, 0, 64, 0
2, 54046, Note_on_c, 0, 38, 0
2, 54086, Note_on_c, 0, 50, 0
2, 54092, Note_on_c, 0, 88, 72
2, 54165, Note_on_c, 0, 55, 63
2, 54169, Note_on_c, 0, 88, 0
2, 54169, Note_on_c, 0, 83, 0
2, 54169, Note_on_c, 0, 79, 0
2, 54169, Note_on_c, 0, 86, 66
2, 54175, Note_on_c, 0, 43, 62
2, 54260, Note_on_c, 0, 83, 72
2, 54268, Note_on_c, 0, 43, 0
2, 54268, Note_on_c, 0, 55, 0
2, 54272, Note_on_c, 0, 86, 0
2, 54340, Note_on_c, 0, 83, 0
2, 54358, Note_on_c, 0, 55, 63
2, 54364, Note_on_c, 0, 52, 61
2, 54364, Note_on_c, 0, 74, 70
2, 54364, Note_on_c, 0, 59, 62
2, 54364, Note_on_c, 0, 76, 70
2, 54368, Note_on_c, 0, 47, 59
2, 54495, Note_on_c, 0, 83, 71
2, 54499, Note_on_c, 0, 76, 0
2, 54570, Note_on_c, 0, 79, 69
2, 54574, Note_on_c, 0, 83, 0
2, 54674, Note_on_c, 0, 47, 0
2, 54674, Note_on_c, 0, 59, 0
2, 54674, Note_on_c, 0, 79, 0
2, 54674, Note_on_c, 0, 76, 70
2, 54678, Note_on_c, 0, 74, 0
2, 54703, Note_on_c, 0, 55, 0
2, 54709, Note_on_c, 0, 52, 0
2, 54767, Note_on_c, 0, 73, 68
2, 54767, Note_on_c, 0, 79, 66
2, 54767, Note_on_c, 0, 57, 63
2, 54775, Note_on_c, 0, 45, 63
2, 54801, Note_on_c, 0, 76, 0
2, 54801, Control_c, 0, 64, 127
2, 54856, Control_c, 0, 64, 0
2, 54876, Note_on_c, 0, 57, 0
2, 54876, Note_on_c, 0, 45, 0
2, 54876, Note_on_c, 0, 55, 63
2, 54882, Note_on_c, 0, 43, 61
2, 54981, Note_on_c, 0, 43, 0
2, 54981, Note_on_c, 0, 55, 0
2, 54981, Note_on_c, 0, 52, 64
2, 54985, Note_on_c, 0, 40, 62
2, 55084, Note_on_c, 0, 73, 0
2, 55084, Note_on_c, 0, 57, 63
2, 55084, Note_on_c, 0, 45, 62
2, 55088, Note_on_c, 0, 79, 0
2, 55088, Note_on_c, 0, 40, 0
2, 55092, Note_on_c, 0, 52, 0
2, 55162, Note_on_c, 0, 57, 0
2, 55166, Note_on_c, 0, 45, 0
2, 55180, Note_on_c, 0, 81, 62
2, 55180, Note_on_c, 0, 78, 60
2, 55180, Note_on_c, 0, 50, 61
2, 55184, Note_on_c, 0, 74, 62
2, 55184, Note_on_c, 0, 38, 62
2, 55194, Note_on_c, 0, 72, 59
2, 55206, Note_on_c, 0, 74, 0
2, 55206, Note_on_c, 0, 81, 0
2, 55213, Note_on_c, 0, 78, 0
2, 55213, Note_on_c, 0, 72, 0
2, 55279, Note_on_c, 0, 81, 58
2, 55279, Note_on_c, 0, 78, 60
2, 55283, Note_on_c, 0, 74, 57
2, 55287, Note_on_c, 0, 72, 51
2, 55390, Note_on_c, 0, 72, 0
2, 55390, Note_on_c, 0, 81, 0
2, 55394, Note_on_c, 0, 78, 0
2, 55394, Note_on_c, 0, 74, 0
2, 55464, Note_on_c, 0, 35, 62
2, 55477, Note_on_c, 0, 38, 0
2, 55481, Note_on_c, 0, 50, 0
2, 55493, Note_on_c, 0, 74, 66
2, 55493, Note_on_c, 0, 79, 63
2, 55497, Note_on_c, 0, 47, 62
2, 55497, Note_on_c, 0, 71, 63
2, 55598, Note_on_c, 0, 47, 0
2, 55598, Note_on_c, 0, 55, 61
2, 55602, Note_on_c, 0, 35, 0
2, 55602, Control_c, 0, 64, 127
2, 55606, Note_on_c, 0, 43, 61
2, 55642, Control_c, 0, 64, 0
2, 55799, Note_on_c, 0, 50, 67
2, 55799, Note_on_c, 0, 62, 70
2, 55827, Note_on_c, 0, 43, 0
2, 55854, Note_on_c, 0, 55, 0
2, 56005, Note_on_c, 0, 52, 65
2, 56009, Note_on_c, 0, 79, 0
2, 56009, Note_on_c, 0, 64, 64
2, 56013, Note_on_c, 0, 74, 0
2, 56013, Note_on_c, 0, 71, 0
2, 56086, Note_on_c, 0, 62, 0
2, 56102, Note_on_c, 0, 50, 0
2, 56102, Note_on_c, 0, 67, 71
2, 56102, Note_on_c, 0, 55, 64
2, 56134, Note_on_c, 0, 64, 0
2, 56138, Note_on_c, 0, 52, 0
2, 56207, Note_on_c, 0, 50, 59
2, 56207, Note_on_c, 0, 57, 62
2, 56207, Note_on_c, 0, 62, 67
2, 56211, Note_on_c, 0, 67, 0
2, 56211, Note_on_c, 0, 55, 0
2, 56233, Note_on_c, 0, 69, 73
2, 56308, Note_on_c, 0, 59, 66
2, 56312, Note_on_c, 0, 69, 0
2, 56312, Note_on_c, 0, 57, 0
2, 56312, Note_on_c, 0, 71, 71
2, 56318, Note_on_c, 0, 62, 0
2, 56338, Note_on_c, 0, 71, 0
2, 56338, Note_on_c, 0, 50, 0
2, 56384, Note_on_c, 0, 59, 0
2, 56404, Note_on_c, 0, 74, 64
2, 56404, Note_on_c, 0, 62, 67
2, 56404, Note_on_c, 0, 67, 63
2, 56410, Note_on_c, 0, 71, 66
2, 56414, Note_on_c, 0, 43, 62
2, 56439, Control_c, 0, 64, 127
2, 56473, Control_c, 0, 64, 0
2, 56606, Note_on_c, 0, 59, 68
2, 56606, Note_on_c, 0, 50, 65
2, 56606, Note_on_c, 0, 55, 66
2, 56665, Note_on_c, 0, 43, 0
2, 56689, Note_on_c, 0, 67, 0
2, 56693, Note_on_c, 0, 59, 0
2, 56693, Note_on_c, 0, 74, 0
2, 56697, Note_on_c, 0, 62, 0
2, 56701, Note_on_c, 0, 71, 0
2, 56745, Note_on_c, 0, 55, 0
2, 56760, Note_on_c, 0, 50, 0
2, 56816, Note_on_c, 0, 79, 63
2, 56816, Note_on_c, 0, 67, 66
2, 56820, Note_on_c, 0, 38, 63
2, 56824, Note_on_c, 0, 71, 67
2, 57014, Note_on_c, 0, 59, 64
2, 57014, Note_on_c, 0, 50, 60
2, 57014, Note_on_c, 0, 55, 62
2, 57125, Note_on_c, 0, 59, 0
2, 57125, Note_on_c, 0, 67, 0
2, 57129, Note_on_c, 0, 79, 0
2, 57129, Note_on_c, 0, 71, 0
2, 57129, Note_on_c, 0, 55, 0
2, 57133, Note_on_c, 0, 38, 0
2, 57143, Note_on_c, 0, 50, 0
2, 57210, Control_c, 0, 64, 127
2, 57224, Note_on_c, 0, 59, 64
2, 57224, Note_on_c, 0, 67, 67
2, 57230, Note_on_c, 0, 71, 67
2, 57236, Note_on_c, 0, 43, 62
2, 57248, Control_c, 0, 64, 0
2, 57331, Note_on_c, 0, 58, 67
2, 57331, Note_on_c, 0, 70, 70
2, 57335, Note_on_c, 0, 43, 0
2, 57335, Note_on_c, 0, 67, 0
2, 57335, Note_on_c, 0, 59, 0
2, 57343, Note_on_c, 0, 71, 0
2, 57428, Note_on_c, 0, 67, 64
2, 57428, Note_on_c, 0, 59, 63
2, 57432, Note_on_c, 0, 50, 59
2, 57432, Note_on_c, 0, 55, 61
2, 57432, Note_on_c, 0, 71, 67
2, 57438, Note_on_c, 0, 70, 0
2, 57438, Note_on_c, 0, 58, 0
2, 57456, Note_on_c, 0, 67, 0
2, 57462, Note_on_c, 0, 71, 0
2, 57507, Note_on_c, 0, 59, 0
2, 57529, Note_on_c, 0, 74, 62
2, 57533, Note_on_c, 0, 62, 67
2, 57533, Note_on_c, 0, 67, 60
2, 57533, Note_on_c, 0, 65, 58
2, 57537, Note_on_c, 0, 55, 0
2, 57537, Note_on_c, 0, 71, 62
2, 57549, Note_on_c, 0, 50, 0
2, 57616, Note_on_c, 0, 62, 0
2, 57640, Note_on_c, 0, 67, 0
2, 57640, Note_on_c, 0, 74, 0
2, 57640, Note_on_c, 0, 65, 0
2, 57640, Note_on_c, 0, 47, 65
2, 57670, Note_on_c, 0, 71, 0
2, 57733, Note_on_c, 0, 74, 67
2, 57733, Note_on_c, 0, 65, 62
2, 57733, Note_on_c, 0, 62, 69
2, 57739, Note_on_c, 0, 47, 0
2, 57739, Note_on_c, 0, 67, 65
2, 57832, Note_on_c, 0, 50, 60
2, 57840, Note_on_c, 0, 59, 63
2, 57840, Note_on_c, 0, 55, 60
2, 57854, Note_on_c, 0, 62, 0
2, 57866, Note_on_c, 0, 67, 0
2, 57874, Note_on_c, 0, 74, 0
2, 57919, Note_on_c, 0, 65, 0
2, 57941, Note_on_c, 0, 59, 0
2, 57941, Note_on_c, 0, 64, 65
2, 57941, Note_on_c, 0, 76, 73
2, 57959, Note_on_c, 0, 50, 0
2, 57969, Note_on_c, 0, 55, 0
2, 57969, Note_on_c, 0, 64, 0
2, 58040, Note_on_c, 0, 67, 67
2, 58040, Note_on_c, 0, 64, 62
2, 58044, Note_on_c, 0, 62, 64
2, 58044, Note_on_c, 0, 48, 63
2, 58044, Note_on_c, 0, 74, 70
2, 58052, Control_c, 0, 64, 127
2, 58072, Note_on_c, 0, 76, 0
2, 58082, Control_c, 0, 64, 0
2, 58143, Note_on_c, 0, 60, 65
2, 58147, Note_on_c, 0, 74, 0
2, 58147, Note_on_c, 0, 72, 70
2, 58155, Note_on_c, 0, 62, 0
2, 58169, Note_on_c, 0, 60, 0
2, 58244, Note_on_c, 0, 64, 0
2, 58244, Note_on_c, 0, 52, 66
2, 58244, Note_on_c, 0, 55, 65
2, 58244, Note_on_c, 0, 60, 63
2, 58268, Note_on_c, 0, 55, 0
2, 58268, Note_on_c, 0, 67, 0
2, 58339, Note_on_c, 0, 67, 71
2, 58343, Note_on_c, 0, 72, 0
2, 58343, Note_on_c, 0, 55, 55
2, 58347, Note_on_c, 0, 60, 0
2, 58347, Note_on_c, 0, 64, 62
2, 58351, Note_on_c, 0, 48, 0
2, 58351, Note_on_c, 0, 52, 0
2, 58438, Note_on_c, 0, 48, 69
2, 58495, Note_on_c, 0, 64, 0
2, 58495, Note_on_c, 0, 67, 0
2, 58523, Note_on_c, 0, 55, 0
2, 58539, Note_on_c, 0, 57, 64
2, 58539, Note_on_c, 0, 63, 66
2, 58565, Note_on_c, 0, 69, 72
2, 58644, Note_on_c, 0, 60, 64
2, 58644, Note_on_c, 0, 51, 62
2, 58644, Note_on_c, 0, 55, 61
2, 58668, Note_on_c, 0, 55, 0
2, 58693, Note_on_c, 0, 57, 0
2, 58693, Note_on_c, 0, 69, 0
2, 58735, Note_on_c, 0, 55, 62
2, 58735, Note_on_c, 0, 67, 72
2, 58747, Note_on_c, 0, 60, 0
2, 58747, Note_on_c, 0, 51, 0
2, 58765, Note_on_c, 0, 63, 0
2, 58816, Note_on_c, 0, 67, 0
2, 58836, Note_on_c, 0, 71, 70
2, 58836, Note_on_c, 0, 59, 64
2, 58840, Control_c, 0, 64, 127
2, 58846, Note_on_c, 0, 55, 0
2, 58846, Note_on_c, 0, 48, 0
2, 58850, Note_on_c, 0, 43, 62
2, 58901, Control_c, 0, 64, 0
2, 58939, Note_on_c, 0, 67, 71
2, 58943, Note_on_c, 0, 55, 62
2, 58949, Note_on_c, 0, 43, 0
2, 58949, Note_on_c, 0, 59, 0
2, 58958, Note_on_c, 0, 71, 0
2, 58974, Note_on_c, 0, 55, 0
2, 59024, Note_on_c, 0, 67, 0
2, 59043, Note_on_c, 0, 59, 63
2, 59043, Note_on_c, 0, 55, 63
2, 59051, Note_on_c, 0, 50, 58
2, 59051, Note_on_c, 0, 64, 61
2, 59087, Note_on_c, 0, 50, 0
2, 59150, Note_on_c, 0, 62, 67
2, 59154, Note_on_c, 0, 64, 0
2, 59154, Note_on_c, 0, 59, 0
2, 59154, Note_on_c, 0, 50, 63
2, 59176, Note_on_c, 0, 55, 0
2, 59188, Note_on_c, 0, 50, 0
2, 59241, Note_on_c, 0, 59, 66
2, 59249, Note_on_c, 0, 55, 64
2, 59249, Note_on_c, 0, 50, 62
2, 59275, Note_on_c, 0, 55, 0
2, 59334, Note_on_c, 0, 62, 0
2, 59346, Note_on_c, 0, 67, 72
2, 59346, Note_on_c, 0, 55, 62
2, 59455, Note_on_c, 0, 59, 0
2, 59455, Note_on_c, 0, 69, 72
2, 59459, Note_on_c, 0, 55, 0
2, 59459, Note_on_c, 0, 67, 0
2, 59467, Note_on_c, 0, 50, 0
2, 59485, Note_on_c, 0, 57, 65
2, 59556, Note_on_c, 0, 59, 67
2, 59562, Note_on_c, 0, 57, 0
2, 59562, Note_on_c, 0, 69, 0
2, 59583, Note_on_c, 0, 71, 72
2, 59617, Note_on_c, 0, 71, 0
2, 59635, Note_on_c, 0, 59, 0
2, 59641, Control_c, 0, 64, 127
2, 59655, Note_on_c, 0, 67, 64
2, 59655, Note_on_c, 0, 74, 66
2, 59655, Note_on_c, 0, 62, 67
2, 59655, Note_on_c, 0, 71, 52
2, 59668, Note_on_c, 0, 43, 61
2, 59759, Control_c, 0, 64, 0
2, 59860, Note_on_c, 0, 59, 69
2, 59864, Note_on_c, 0, 55, 67
2, 59864, Note_on_c, 0, 50, 65
2, 59971, Note_on_c, 0, 55, 0
2, 59971, Note_on_c, 0, 59, 0
2, 59971, Note_on_c, 0, 67, 0
2, 59977, Note_on_c, 0, 71, 0
2, 59977, Note_on_c, 0, 74, 0
2, 59981, Note_on_c, 0, 62, 0
2, 59989, Note_on_c, 0, 50, 0
2, 60022, Note_on_c, 0, 43, 0
2, 60062, Note_on_c, 0, 67, 64
2, 60068, Note_on_c, 0, 40, 64
2, 60068, Note_on_c, 0, 79, 63
2, 60072, Note_on_c, 0, 71, 66
2, 60267, Note_on_c, 0, 59, 63
2, 60267, Note_on_c, 0, 52, 62
2, 60267, Note_on_c, 0, 55, 61
2, 60372, Note_on_c, 0, 59, 0
2, 60376, Note_on_c, 0, 79, 0
2, 60376, Note_on_c, 0, 67, 0
2, 60380, Note_on_c, 0, 71, 0
2, 60380, Note_on_c, 0, 55, 0
2, 60380, Note_on_c, 0, 52, 0
2, 60431, Note_on_c, 0, 40, 0
2, 60469, Note_on_c, 0, 33, 61
2, 60473, Note_on_c, 0, 78, 63
2, 60473, Note_on_c, 0, 66, 64
2, 60473, Note_on_c, 0, 74, 67
2, 60485, Control_c, 0, 64, 127
2, 60540, Control_c, 0, 64, 0
2, 60572, Note_on_c, 0, 65, 61
2, 60576, Note_on_c, 0, 66, 0
2, 60579, Note_on_c, 0, 74, 0
2, 60579, Note_on_c, 0, 78, 0
2, 60587, Note_on_c, 0, 77, 64
2, 60672, Note_on_c, 0, 66, 62
2, 60672, Note_on_c, 0, 78, 60
2, 60672, Note_on_c, 0, 62, 65
2, 60676, Note_on_c, 0, 77, 0
2, 60676, Note_on_c, 0, 74, 62
2, 60676, Note_on_c, 0, 57, 62
2, 60680, Note_on_c, 0, 54, 60
2, 60696, Note_on_c, 0, 74, 0
2, 60696, Note_on_c, 0, 78, 0
2, 60702, Note_on_c, 0, 65, 0
2, 60747, Note_on_c, 0, 54, 0
2, 60747, Note_on_c, 0, 66, 0
2, 60747, Note_on_c, 0, 57, 0
2, 60777, Note_on_c, 0, 74, 58
2, 60777, Note_on_c, 0, 81, 62
2, 60777, Note_on_c, 0, 69, 61
2, 60777, Note_on_c, 0, 78, 58
2, 60783, Note_on_c, 0, 62, 0
2, 60801, Note_on_c, 0, 33, 0
2, 60856, Note_on_c, 0, 74, 0
2, 60874, Note_on_c, 0, 30, 58
2, 60901, Note_on_c, 0, 81, 0
2, 60901, Note_on_c, 0, 69, 0
2, 60905, Note_on_c, 0, 78, 0
2, 60969, Note_on_c, 0, 62, 70
2, 60969, Note_on_c, 0, 74, 74
2, 61000, Note_on_c, 0, 62, 0
2, 61054, Note_on_c, 0, 74, 0
2, 61075, Note_on_c, 0, 62, 68
2, 61075, Note_on_c, 0, 78, 69
2, 61075, Note_on_c, 0, 57, 62
2, 61078, Note_on_c, 0, 66, 69
2, 61078, Note_on_c, 0, 54, 61
2, 61178, Note_on_c, 0, 54, 0
2, 61178, Note_on_c, 0, 57, 0
2, 61178, Note_on_c, 0, 81, 67
2, 61184, Note_on_c, 0, 78, 0
2, 61184, Note_on_c, 0, 66, 0
2, 61184, Note_on_c, 0, 69, 67
2, 61190, Note_on_c, 0, 62, 0
2, 61235, Note_on_c, 0, 30, 0
2, 61281, Note_on_c, 0, 81, 0
2, 61281, Note_on_c, 0, 69, 0
2, 61281, Note_on_c, 0, 73, 62
2, 61281, Note_on_c, 0, 28, 59
2, 61290, Control_c, 0, 64, 127
2, 61290, Note_on_c, 0, 83, 63
2, 61290, Note_on_c, 0, 71, 61
2, 61322, Control_c, 0, 64, 0
2, 61381, Note_on_c, 0, 67, 64
2, 61385, Note_on_c, 0, 83, 0
2, 61385, Note_on_c, 0, 79, 62
2, 61393, Note_on_c, 0, 71, 0
2, 61482, Note_on_c, 0, 61, 66
2, 61486, Note_on_c, 0, 67, 0
2, 61486, Note_on_c, 0, 79, 0
2, 61486, Note_on_c, 0, 73, 0
2, 61489, Note_on_c, 0, 57, 66
2, 61489, Note_on_c, 0, 55, 63
2, 61489, Note_on_c, 0, 76, 69
2, 61489, Note_on_c, 0, 64, 62
2, 61502, Note_on_c, 0, 61, 0
2, 61579, Note_on_c, 0, 73, 72
2, 61587, Note_on_c, 0, 57, 0
2, 61587, Note_on_c, 0, 55, 0
2, 61587, Note_on_c, 0, 64, 0
2, 61590, Note_on_c, 0, 61, 53
2, 61594, Note_on_c, 0, 28, 0
2, 61594, Note_on_c, 0, 76, 0
2, 61691, Note_on_c, 0, 33, 61
2, 61697, Note_on_c, 0, 45, 63
2, 61741, Note_on_c, 0, 73, 0
2, 61741, Note_on_c, 0, 61, 0
2, 61786, Note_on_c, 0, 57, 66
2, 61786, Note_on_c, 0, 69, 73
2, 61806, Note_on_c, 0, 57, 0
2, 61865, Note_on_c, 0, 69, 0
2, 61889, Note_on_c, 0, 59, 61
2, 61892, Note_on_c, 0, 61, 63
2, 61892, Note_on_c, 0, 67, 67
2, 61892, Note_on_c, 0, 57, 51
2, 61895, Note_on_c, 0, 71, 67
2, 61895, Note_on_c, 0, 55, 59
2, 61910, Note_on_c, 0, 61, 0
2, 61918, Note_on_c, 0, 45, 0
2, 61971, Note_on_c, 0, 33, 0
2, 61987, Note_on_c, 0, 73, 70
2, 61987, Note_on_c, 0, 61, 60
2, 61993, Note_on_c, 0, 59, 0
2, 61993, Note_on_c, 0, 67, 0
2, 61993, Note_on_c, 0, 57, 0
2, 61999, Note_on_c, 0, 71, 0
2, 62019, Note_on_c, 0, 55, 0
2, 62094, Note_on_c, 0, 73, 0
2, 62094, Note_on_c, 0, 61, 0
2, 62094, Note_on_c, 0, 66, 67
2, 62094, Note_on_c, 0, 57, 62
2, 62094, Note_on_c, 0, 74, 67
2, 62094, Note_on_c, 0, 62, 66
2, 62098, Note_on_c, 0, 50, 60
2, 62198, Note_on_c, 0, 57, 0
2, 62238, Note_on_c, 0, 50, 0
2, 62293, Note_on_c, 0, 57, 65
2, 62297, Note_on_c, 0, 45, 63
2, 62398, Note_on_c, 0, 57, 0
2, 62401, Note_on_c, 0, 45, 0
2, 62498, Note_on_c, 0, 50, 62
2, 62502, Note_on_c, 0, 38, 63
2, 62583, Note_on_c, 0, 66, 0
2, 62583, Note_on_c, 0, 74, 0
2, 62664, Note_on_c, 0, 62, 0
2, 62705, Note_on_c, 0, 67, 72
2, 62705, Note_on_c, 0, 55, 64
2, 62713, Note_on_c, 0, 38, 0
2, 62719, Note_on_c, 0, 50, 0
2, 62806, Note_on_c, 0, 71, 71
2, 62829, Note_on_c, 0, 67, 0
2, 62829, Note_on_c, 0, 59, 67
2, 62833, Note_on_c, 0, 71, 0
2, 62833, Note_on_c, 0, 55, 0
2, 62889, Control_c, 0, 64, 127
2, 62904, Note_on_c, 0, 59, 0
2, 62904, Note_on_c, 0, 62, 67
2, 62908, Note_on_c, 0, 74, 66
2, 62908, Note_on_c, 0, 67, 66
2, 62912, Note_on_c, 0, 71, 61
2, 62916, Note_on_c, 0, 43, 61
2, 62997, Control_c, 0, 64, 0
2, 63105, Note_on_c, 0, 59, 69
2, 63105, Note_on_c, 0, 55, 67
2, 63105, Note_on_c, 0, 50, 65
2, 63182, Note_on_c, 0, 59, 0
2, 63182, Note_on_c, 0, 67, 0
2, 63188, Note_on_c, 0, 62, 0
2, 63188, Note_on_c, 0, 74, 0
2, 63194, Note_on_c, 0, 71, 0
2, 63202, Note_on_c, 0, 50, 0
2, 63208, Note_on_c, 0, 55, 0
2, 63261, Note_on_c, 0, 43, 0
2, 63305, Note_on_c, 0, 67, 65
2, 63308, Note_on_c, 0, 38, 64
2, 63312, Note_on_c, 0, 79, 63
2, 63312, Note_on_c, 0, 71, 67
2, 63511, Note_on_c, 0, 59, 64
2, 63511, Note_on_c, 0, 50, 59
2, 63515, Note_on_c, 0, 55, 61
2, 63594, Note_on_c, 0, 79, 0
2, 63618, Note_on_c, 0, 67, 0
2, 63618, Note_on_c, 0, 59, 0
2, 63618, Note_on_c, 0, 55, 0
2, 63626, Note_on_c, 0, 71, 0
2, 63636, Note_on_c, 0, 50, 0
2, 63703, Note_on_c, 0, 38, 0
2, 63720, Note_on_c, 0, 59, 63
2, 63720, Note_on_c, 0, 67, 67
2, 63726, Note_on_c, 0, 71, 68
2, 63726, Control_c, 0, 64, 127
2, 63732, Note_on_c, 0, 43, 62
2, 63754, Control_c, 0, 64, 0
2, 63825, Note_on_c, 0, 43, 0
2, 63825, Note_on_c, 0, 59, 0
2, 63825, Note_on_c, 0, 67, 0
2, 63825, Note_on_c, 0, 58, 66
2, 63825, Note_on_c, 0, 70, 69
2, 63831, Note_on_c, 0, 71, 0
2, 63925, Note_on_c, 0, 59, 67
2, 63925, Note_on_c, 0, 67, 67
2, 63925, Note_on_c, 0, 50, 63
2, 63929, Note_on_c, 0, 70, 0
2, 63929, Note_on_c, 0, 58, 0
2, 63929, Note_on_c, 0, 55, 63
2, 63933, Note_on_c, 0, 71, 66
2, 63947, Note_on_c, 0, 67, 0
2, 63957, Note_on_c, 0, 71, 0
2, 64028, Note_on_c, 0, 59, 0
2, 64028, Note_on_c, 0, 62, 68
2, 64032, Note_on_c, 0, 65, 57
2, 64036, Note_on_c, 0, 67, 55
2, 64036, Note_on_c, 0, 74, 63
2, 64041, Note_on_c, 0, 71, 60
2, 64053, Note_on_c, 0, 50, 0
2, 64053, Note_on_c, 0, 55, 0
2, 64130, Note_on_c, 0, 67, 0
2, 64130, Note_on_c, 0, 74, 0
2, 64130, Note_on_c, 0, 47, 64
2, 64134, Note_on_c, 0, 62, 0
2, 64134, Note_on_c, 0, 71, 0
2, 64156, Note_on_c, 0, 65, 0
2, 64225, Note_on_c, 0, 47, 0
2, 64225, Note_on_c, 0, 62, 68
2, 64231, Note_on_c, 0, 74, 62
2, 64236, Note_on_c, 0, 65, 61
2, 64236, Note_on_c, 0, 67, 61
2, 64242, Note_on_c, 0, 71, 61
2, 64335, Note_on_c, 0, 59, 63
2, 64339, Note_on_c, 0, 50, 59
2, 64339, Note_on_c, 0, 55, 61
2, 64384, Note_on_c, 0, 67, 0
2, 64390, Note_on_c, 0, 71, 0
2, 64390, Note_on_c, 0, 62, 0
2, 64390, Note_on_c, 0, 74, 0
2, 64412, Note_on_c, 0, 65, 0
2, 64435, Note_on_c, 0, 55, 0
2, 64435, Note_on_c, 0, 59, 0
2, 64443, Note_on_c, 0, 64, 64
2, 64443, Note_on_c, 0, 76, 74
2, 64451, Note_on_c, 0, 50, 0
2, 64459, Note_on_c, 0, 64, 0
2, 64526, Control_c, 0, 64, 127
2, 64536, Note_on_c, 0, 48, 64
2, 64536, Note_on_c, 0, 67, 66
2, 64536, Note_on_c, 0, 62, 67
2, 64536, Note_on_c, 0, 74, 69
2, 64540, Note_on_c, 0, 76, 0
2, 64540, Note_on_c, 0, 64, 54
2, 64587, Control_c, 0, 64, 0
2, 64642, Note_on_c, 0, 62, 0
2, 64642, Note_on_c, 0, 74, 0
2, 64642, Note_on_c, 0, 60, 65
2, 64642, Note_on_c, 0, 72, 70
2, 64660, Note_on_c, 0, 60, 0
2, 64664, Note_on_c, 0, 48, 0
2, 64739, Note_on_c, 0, 67, 0
2, 64744, Note_on_c, 0, 64, 0
2, 64744, Note_on_c, 0, 55, 65
2, 64744, Note_on_c, 0, 52, 67
2, 64750, Note_on_c, 0, 60, 60
2, 64768, Note_on_c, 0, 55, 0
2, 64792, Note_on_c, 0, 72, 0
2, 64841, Note_on_c, 0, 67, 71
2, 64851, Note_on_c, 0, 52, 0
2, 64851, Note_on_c, 0, 60, 0
2, 64851, Note_on_c, 0, 55, 56
2, 64851, Note_on_c, 0, 64, 60
2, 64949, Note_on_c, 0, 48, 68
2, 65000, Note_on_c, 0, 67, 0
2, 65004, Note_on_c, 0, 55, 0
2, 65004, Note_on_c, 0, 64, 0
2, 65046, Note_on_c, 0, 63, 66
2, 65051, Note_on_c, 0, 48, 0
2, 65051, Note_on_c, 0, 57, 64
2, 65071, Note_on_c, 0, 69, 73
2, 65148, Note_on_c, 0, 60, 64
2, 65148, Note_on_c, 0, 51, 61
2, 65152, Note_on_c, 0, 55, 61
2, 65170, Note_on_c, 0, 57, 0
2, 65170, Note_on_c, 0, 63, 0
2, 65175, Note_on_c, 0, 69, 0
2, 65175, Note_on_c, 0, 55, 0
2, 65238, Note_on_c, 0, 67, 72
2, 65246, Note_on_c, 0, 55, 58
2, 65252, Note_on_c, 0, 60, 0
2, 65270, Note_on_c, 0, 51, 0
2, 65349, Note_on_c, 0, 67, 0
2, 65349, Note_on_c, 0, 55, 0
2, 65349, Note_on_c, 0, 59, 63
2, 65349, Note_on_c, 0, 71, 68
2, 65355, Note_on_c, 0, 62, 65
2, 65362, Note_on_c, 0, 43, 59
2, 65380, Control_c, 0, 64, 127
2, 65435, Control_c, 0, 64, 0
2, 65447, Note_on_c, 0, 67, 70
2, 65447, Note_on_c, 0, 55, 62
2, 65453, Note_on_c, 0, 43, 0
2, 65453, Note_on_c, 0, 59, 0
2, 65459, Note_on_c, 0, 62, 0
2, 65463, Note_on_c, 0, 71, 0
2, 65478, Note_on_c, 0, 55, 0
2, 65549, Note_on_c, 0, 67, 0
2, 65549, Note_on_c, 0, 59, 63
2, 65549, Note_on_c, 0, 55, 59
2, 65553, Note_on_c, 0, 52, 62
2, 65557, Note_on_c, 0, 64, 60
2, 65652, Note_on_c, 0, 64, 0
2, 65652, Note_on_c, 0, 59, 0
2, 65652, Note_on_c, 0, 62, 67
2, 65657, Note_on_c, 0, 52, 0
2, 65657, Note_on_c, 0, 50, 61
2, 65679, Note_on_c, 0, 55, 0
2, 65691, Note_on_c, 0, 50, 0
2, 65752, Note_on_c, 0, 59, 63
2, 65756, Note_on_c, 0, 55, 65
2, 65756, Note_on_c, 0, 50, 62
2, 65838, Note_on_c, 0, 62, 0
2, 65860, Note_on_c, 0, 59, 0
2, 65860, Note_on_c, 0, 71, 72
2, 65888, Note_on_c, 0, 55, 0
2, 65901, Note_on_c, 0, 50, 0
2, 65960, Note_on_c, 0, 70, 73
2, 65974, Note_on_c, 0, 71, 0
2, 66063, Note_on_c, 0, 71, 71
2, 66067, Note_on_c, 0, 70, 0
2, 66090, Note_on_c, 0, 71, 0
2, 66167, Note_on_c, 0, 75, 69
2, 66167, Note_on_c, 0, 71, 70
2, 66167, Note_on_c, 0, 42, 59
2, 66171, Note_on_c, 0, 54, 62
2, 66175, Control_c, 0, 64, 127
2, 66202, Control_c, 0, 64, 0
2, 66365, Note_on_c, 0, 59, 70
2, 66365, Note_on_c, 0, 57, 69
2, 66442, Note_on_c, 0, 75, 0
2, 66448, Note_on_c, 0, 59, 0
2, 66448, Note_on_c, 0, 54, 0
2, 66448, Note_on_c, 0, 57, 0
2, 66472, Note_on_c, 0, 42, 0
2, 66477, Note_on_c, 0, 71, 0
2, 66576, Note_on_c, 0, 78, 65
2, 66576, Note_on_c, 0, 75, 68
2, 66576, Note_on_c, 0, 35, 60
2, 66576, Note_on_c, 0, 47, 62
2, 66580, Note_on_c, 0, 71, 64
2, 66778, Note_on_c, 0, 59, 65
2, 66778, Note_on_c, 0, 57, 63
2, 66800, Note_on_c, 0, 75, 0
2, 66810, Note_on_c, 0, 71, 0
2, 66810, Note_on_c, 0, 78, 0
2, 66853, Note_on_c, 0, 59, 0
2, 66853, Note_on_c, 0, 57, 0
2, 66876, Note_on_c, 0, 81, 74
2, 66902, Note_on_c, 0, 81, 0
2, 66929, Note_on_c, 0, 47, 0
2, 66935, Note_on_c, 0, 35, 0
2, 66979, Note_on_c, 0, 81, 67
2, 66979, Note_on_c, 0, 52, 63
2, 66986, Note_on_c, 0, 40, 62
2, 66986, Note_on_c, 0, 71, 63
2, 66992, Note_on_c, 0, 76, 64
2, 67016, Control_c, 0, 64, 127
2, 67047, Control_c, 0, 64, 0
2, 67089, Note_on_c, 0, 81, 0
2, 67089, Note_on_c, 0, 79, 67
2, 67187, Note_on_c, 0, 59, 70
2, 67187, Note_on_c, 0, 78, 72
2, 67187, Note_on_c, 0, 55, 67
2, 67191, Note_on_c, 0, 79, 0
2, 67246, Note_on_c, 0, 76, 0
2, 67252, Note_on_c, 0, 71, 0
2, 67269, Note_on_c, 0, 59, 0
2, 67269, Note_on_c, 0, 78, 0
2, 67291, Note_on_c, 0, 55, 0
2, 67291, Note_on_c, 0, 52, 0
2, 67291, Note_on_c, 0, 70, 71
2, 67291, Note_on_c, 0, 79, 66
2, 67318, Note_on_c, 0, 40, 0
2, 67389, Note_on_c, 0, 37, 65
2, 67417, Note_on_c, 0, 79, 0
2, 67417, Note_on_c, 0, 49, 66
2, 67493, Note_on_c, 0, 49, 0
2, 67493, Note_on_c, 0, 37, 0
2, 67493, Note_on_c, 0, 79, 73
2, 67597, Note_on_c, 0, 58, 65
2, 67597, Note_on_c, 0, 52, 63
2, 67597, Note_on_c, 0, 78, 70
2, 67597, Note_on_c, 0, 55, 61
2, 67601, Note_on_c, 0, 79, 0
2, 67701, Note_on_c, 0, 78, 0
2, 67701, Note_on_c, 0, 58, 0
2, 67705, Note_on_c, 0, 52, 0
2, 67705, Note_on_c, 0, 76, 72
2, 67723, Note_on_c, 0, 76, 0
2, 67731, Note_on_c, 0, 55, 0
2, 67751, Note_on_c, 0, 70, 0
2, 67794, Control_c, 0, 64, 127
2, 67800, Note_on_c, 0, 50, 61
2, 67800, Note_on_c, 0, 71, 67
2, 67800, Note_on_c, 0, 38, 62
2, 67807, Note_on_c, 0, 76, 63
2, 67878, Note_on_c, 0, 38, 0
2, 67894, Control_c, 0, 64, 0
2, 67904, Note_on_c, 0, 76, 0
2, 67904, Note_on_c, 0, 74, 70
2, 67910, Note_on_c, 0, 71, 0
2, 67921, Note_on_c, 0, 50, 0
2, 68004, Note_on_c, 0, 73, 73
2, 68004, Note_on_c, 0, 59, 70
2, 68010, Note_on_c, 0, 74, 0
2, 68010, Note_on_c, 0, 55, 68
2, 68110, Note_on_c, 0, 55, 0
2, 68110, Note_on_c, 0, 73, 0
2, 68110, Note_on_c, 0, 74, 71
2, 68114, Note_on_c, 0, 59, 0
2, 68212, Note_on_c, 0, 38, 63
2, 68212, Note_on_c, 0, 50, 63
2, 68290, Note_on_c, 0, 74, 0
2, 68314, Note_on_c, 0, 38, 0
2, 68318, Note_on_c, 0, 72, 74
2, 68351, Note_on_c, 0, 50, 0
2, 68414, Note_on_c, 0, 72, 0
2, 68414, Note_on_c, 0, 57, 63
2, 68420, Note_on_c, 0, 60, 63
2, 68420, Note_on_c, 0, 54, 61
2, 68440, Note_on_c, 0, 69, 72
2, 68514, Note_on_c, 0, 69, 0
2, 68514, Note_on_c, 0, 54, 0
2, 68514, Note_on_c, 0, 57, 0
2, 68514, Note_on_c, 0, 66, 71
2, 68520, Note_on_c, 0, 60, 0
2, 68614, Note_on_c, 0, 59, 67
2, 68614, Note_on_c, 0, 67, 70
2, 68618, Note_on_c, 0, 66, 0
2, 68618, Note_on_c, 0, 55, 63
2, 68636, Control_c, 0, 64, 127
2, 68691, Control_c, 0, 64, 0
2, 68718, Note_on_c, 0, 55, 0
2, 68718, Note_on_c, 0, 67, 0
2, 68718, Note_on_c, 0, 59, 0
2, 69020, Note_on_c, 0, 55, 65
2, 69026, Note_on_c, 0, 67, 59
2, 69030, Note_on_c, 0, 74, 63
2, 69030, Note_on_c, 0, 79, 58
2, 69034, Note_on_c, 0, 71, 60
2, 69058, Note_on_c, 0, 43, 62
2, 69122, Note_on_c, 0, 43, 0
2, 69122, Note_on_c, 0, 67, 0
2, 69126, Note_on_c, 0, 79, 0
2, 69126, Note_on_c, 0, 55, 0
2, 69126, Note_on_c, 0, 74, 0
2, 69130, Note_on_c, 0, 71, 0
2, 69426, Note_on_c, 0, 52, 65
2, 69426, Note_on_c, 0, 48, 67
2, 69450, Control_c, 0, 64, 127
2, 69465, Note_on_c, 0, 64, 64
2, 69518, Control_c, 0, 64, 0
2, 69530, Note_on_c, 0, 67, 71
2, 69530, Note_on_c, 0, 55, 63
2, 69536, Note_on_c, 0, 52, 0
2, 69558, Note_on_c, 0, 55, 0
2, 69632, Note_on_c, 0, 67, 0
2, 69632, Note_on_c, 0, 52, 67
2, 69632, Note_on_c, 0, 55, 63
2, 69638, Note_on_c, 0, 72, 74
2, 69638, Note_on_c, 0, 60, 67
2, 69734, Note_on_c, 0, 72, 0
2, 69734, Note_on_c, 0, 55, 0
2, 69738, Note_on_c, 0, 64, 0
2, 69738, Note_on_c, 0, 60, 0
2, 69738, Note_on_c, 0, 74, 73
2, 69738, Note_on_c, 0, 62, 68
2, 69742, Note_on_c, 0, 52, 0
2, 69791, Note_on_c, 0, 48, 0
2, 69822, Note_on_c, 0, 74, 0
2, 69844, Note_on_c, 0, 62, 0
2, 69844, Note_on_c, 0, 64, 63
2, 69844, Note_on_c, 0, 76, 73
2, 69850, Note_on_c, 0, 43, 63
2, 69944, Note_on_c, 0, 67, 68
2, 69944, Note_on_c, 0, 79, 67
2, 69969, Note_on_c, 0, 76, 0
2, 70044, Note_on_c, 0, 64, 0
2, 70044, Note_on_c, 0, 52, 63
2, 70048, Note_on_c, 0, 55, 60
2, 70048, Note_on_c, 0, 60, 63
2, 70091, Note_on_c, 0, 67, 0
2, 70122, Note_on_c, 0, 79, 0
2, 70142, Note_on_c, 0, 55, 0
2, 70142, Note_on_c, 0, 68, 73
2, 70146, Note_on_c, 0, 52, 0
2, 70146, Note_on_c, 0, 60, 0
2, 70150, Note_on_c, 0, 64, 65
2, 70179, Note_on_c, 0, 76, 73
2, 70199, Note_on_c, 0, 43, 0
2, 70253, Note_on_c, 0, 47, 63
2, 70265, Control_c, 0, 64, 127
2, 70273, Note_on_c, 0, 68, 0
2, 70302, Note_on_c, 0, 64, 0
2, 70320, Control_c, 0, 64, 0
2, 70326, Note_on_c, 0, 47, 0
2, 70330, Note_on_c, 0, 63, 67
2, 70334, Note_on_c, 0, 76, 0
2, 70357, Note_on_c, 0, 75, 72
2, 70449, Note_on_c, 0, 75, 0
2, 70449, Note_on_c, 0, 63, 0
2, 70449, Note_on_c, 0, 68, 67
2, 70457, Note_on_c, 0, 52, 61
2, 70457, Note_on_c, 0, 56, 57
2, 70461, Note_on_c, 0, 76, 69
2, 70461, Note_on_c, 0, 62, 63
2, 70461, Note_on_c, 0, 64, 60
2, 70522, Note_on_c, 0, 56, 0
2, 70551, Note_on_c, 0, 52, 0
2, 70551, Note_on_c, 0, 68, 0
2, 70551, Note_on_c, 0, 64, 0
2, 70555, Note_on_c, 0, 62, 0
2, 70579, Note_on_c, 0, 76, 0
2, 70653, Note_on_c, 0, 40, 64
2, 70653, Note_on_c, 0, 68, 65
2, 70657, Note_on_c, 0, 65, 63
2, 70665, Note_on_c, 0, 77, 65
2, 70755, Note_on_c, 0, 77, 0
2, 70755, Note_on_c, 0, 40, 0
2, 70755, Note_on_c, 0, 68, 0
2, 70784, Note_on_c, 0, 65, 0
2, 70853, Note_on_c, 0, 68, 67
2, 70861, Note_on_c, 0, 52, 62
2, 70861, Note_on_c, 0, 62, 64
2, 70865, Note_on_c, 0, 56, 58
2, 70865, Note_on_c, 0, 76, 70
2, 70865, Note_on_c, 0, 64, 60
2, 70955, Note_on_c, 0, 56, 0
2, 70959, Note_on_c, 0, 68, 0
2, 70959, Note_on_c, 0, 64, 0
2, 70964, Note_on_c, 0, 52, 0
2, 70964, Note_on_c, 0, 76, 0
2, 70964, Note_on_c, 0, 62, 0
2, 70967, Note_on_c, 0, 69, 66
2, 70967, Note_on_c, 0, 60, 66
2, 70972, Note_on_c, 0, 72, 70
2, 71062, Note_on_c, 0, 45, 63
2, 71080, Control_c, 0, 64, 127
2, 71105, Note_on_c, 0, 72, 0
2, 71109, Note_on_c, 0, 69, 0
2, 71109, Note_on_c, 0, 60, 0
2, 71135, Control_c, 0, 64, 0
2, 71160, Note_on_c, 0, 45, 0
2, 71160, Note_on_c, 0, 59, 67
2, 71190, Note_on_c, 0, 71, 71
2, 71264, Note_on_c, 0, 59, 0
2, 71264, Note_on_c, 0, 69, 65
2, 71264, Note_on_c, 0, 52, 63
2, 71270, Note_on_c, 0, 71, 0
2, 71270, Note_on_c, 0, 60, 62
2, 71270, Note_on_c, 0, 57, 61
2, 71270, Note_on_c, 0, 72, 68
2, 71362, Note_on_c, 0, 72, 0
2, 71362, Note_on_c, 0, 69, 0
2, 71362, Note_on_c, 0, 57, 0
2, 71368, Note_on_c, 0, 60, 0
2, 71368, Note_on_c, 0, 52, 0
2, 71468, Note_on_c, 0, 64, 61
2, 71468, Note_on_c, 0, 70, 70
2, 71472, Note_on_c, 0, 55, 58
2, 71472, Note_on_c, 0, 60, 59
2, 71475, Note_on_c, 0, 72, 70
2, 71479, Note_on_c, 0, 43, 57
2, 71487, Note_on_c, 0, 70, 0
2, 71491, Note_on_c, 0, 60, 0
2, 71491, Note_on_c, 0, 64, 0
2, 71517, Note_on_c, 0, 72, 0
2, 71564, Note_on_c, 0, 43, 0
2, 71564, Note_on_c, 0, 55, 0
2, 71569, Note_on_c, 0, 60, 56
2, 71569, Note_on_c, 0, 70, 63
2, 71569, Note_on_c, 0, 72, 66
2, 71575, Note_on_c, 0, 64, 56
2, 71667, Note_on_c, 0, 48, 68
2, 71689, Note_on_c, 0, 72, 0
2, 71693, Note_on_c, 0, 60, 0
2, 71701, Note_on_c, 0, 36, 60
2, 71744, Note_on_c, 0, 64, 0
2, 71748, Note_on_c, 0, 70, 0
2, 71769, Note_on_c, 0, 36, 0
2, 71769, Note_on_c, 0, 65, 62
2, 71773, Note_on_c, 0, 60, 68
2, 71773, Note_on_c, 0, 69, 66
2, 71777, Note_on_c, 0, 72, 68
2, 71791, Note_on_c, 0, 48, 0
2, 71863, Note_on_c, 0, 53, 64
2, 71871, Note_on_c, 0, 41, 62
2, 71890, Control_c, 0, 64, 127
2, 71933, Control_c, 0, 64, 0
2, 71971, Note_on_c, 0, 60, 0
2, 72074, Note_on_c, 0, 60, 64
2, 72074, Note_on_c, 0, 57, 62
2, 72143, Note_on_c, 0, 57, 0
2, 72149, Note_on_c, 0, 60, 0
2, 72272, Note_on_c, 0, 41, 0
2, 72272, Note_on_c, 0, 69, 0
2, 72272, Note_on_c, 0, 53, 0
2, 72272, Note_on_c, 0, 48, 66
2, 72278, Note_on_c, 0, 36, 60
2, 72374, Note_on_c, 0, 36, 0
2, 72374, Note_on_c, 0, 72, 0
2, 72374, Note_on_c, 0, 65, 0
2, 72377, Note_on_c, 0, 48, 0
2, 72377, Note_on_c, 0, 69, 70
2, 72377, Note_on_c, 0, 57, 65
2, 72395, Note_on_c, 0, 57, 0
2, 72477, Note_on_c, 0, 69, 0
2, 72477, Note_on_c, 0, 57, 58
2, 72481, Note_on_c, 0, 60, 66
2, 72481, Note_on_c, 0, 72, 74
2, 72577, Note_on_c, 0, 72, 0
2, 72577, Note_on_c, 0, 60, 0
2, 72577, Note_on_c, 0, 57, 0
2, 72577, Note_on_c, 0, 65, 67
2, 72587, Note_on_c, 0, 77, 68
2, 72608, Note_on_c, 0, 77, 0
2, 72673, Note_on_c, 0, 53, 66
2, 72679, Note_on_c, 0, 65, 0
2, 72679, Note_on_c, 0, 41, 63
2, 72679, Note_on_c, 0, 81, 59
2, 72685, Note_on_c, 0, 69, 60
2, 72690, Note_on_c, 0, 72, 61
2, 72690, Note_on_c, 0, 77, 50
2, 72694, Control_c, 0, 64, 127
2, 72743, Control_c, 0, 64, 0
2, 72749, Note_on_c, 0, 77, 0
2, 72749, Note_on_c, 0, 41, 0
2, 72749, Note_on_c, 0, 81, 0
2, 72749, Note_on_c, 0, 53, 0
2, 72749, Note_on_c, 0, 72, 0
2, 72749, Note_on_c, 0, 69, 0
2, 72878, Note_on_c, 0, 57, 62
2, 72878, Note_on_c, 0, 65, 56
2, 72882, Note_on_c, 0, 60, 63
2, 72882, Note_on_c, 0, 81, 59
2, 72882, Note_on_c, 0, 69, 58
2, 72892, Note_on_c, 0, 72, 59
2, 72900, Note_on_c, 0, 77, 56
2, 72958, Note_on_c, 0, 77, 0
2, 72958, Note_on_c, 0, 57, 0
2, 72958, Note_on_c, 0, 60, 0
2, 72958, Note_on_c, 0, 69, 0
2, 72982, Note_on_c, 0, 72, 0
2, 72982, Note_on_c, 0, 81, 0
2, 72986, Note_on_c, 0, 65, 0
2, 73081, Note_on_c, 0, 53, 65
2, 73087, Note_on_c, 0, 69, 62
2, 73087, Note_on_c, 0, 81, 61
2, 73087, Note_on_c, 0, 41, 62
2, 73095, Note_on_c, 0, 72, 63
2, 73101, Note_on_c, 0, 77, 60
2, 73185, Note_on_c, 0, 72, 0
2, 73185, Note_on_c, 0, 41, 0
2, 73185, Note_on_c, 0, 81, 0
2, 73185, Note_on_c, 0, 53, 0
2, 73185, Note_on_c, 0, 69, 0
2, 73189, Note_on_c, 0, 77, 0
2, 73287, Note_on_c, 0, 68, 62
2, 73287, Note_on_c, 0, 54, 62
2, 73287, Note_on_c, 0, 42, 60
2, 73293, Note_on_c, 0, 75, 63
2, 73296, Note_on_c, 0, 80, 60
2, 73300, Note_on_c, 0, 72, 63
2, 73363, Note_on_c, 0, 72, 0
2, 73363, Note_on_c, 0, 54, 0
2, 73363, Note_on_c, 0, 42, 0
2, 73363, Note_on_c, 0, 75, 0
2, 73367, Note_on_c, 0, 68, 0
2, 73371, Note_on_c, 0, 80, 0
2, 73468, Control_c, 0, 64, 127
2, 73496, Note_on_c, 0, 55, 62
2, 73500, Note_on_c, 0, 67, 57
2, 73504, Note_on_c, 0, 43, 61
2, 73504, Note_on_c, 0, 79, 55
2, 73508, Note_on_c, 0, 72, 63
2, 73513, Note_on_c, 0, 76, 60
2, 73535, Control_c, 0, 64, 0
2, 73599, Note_on_c, 0, 55, 0
2, 73701, Note_on_c, 0, 60, 66
2, 73705, Note_on_c, 0, 76, 0
2, 73705, Note_on_c, 0, 55, 60
2, 73711, Note_on_c, 0, 64, 59
2, 73728, Note_on_c, 0, 64, 0
2, 73750, Note_on_c, 0, 67, 0
2, 73750, Note_on_c, 0, 79, 0
2, 73750, Note_on_c, 0, 72, 0
2, 73801, Note_on_c, 0, 55, 0
2, 73801, Note_on_c, 0, 64, 59
2, 73806, Note_on_c, 0, 60, 0
2, 73806, Note_on_c, 0, 76, 72
2, 73904, Note_on_c, 0, 43, 0
2, 73904, Note_on_c, 0, 72, 74
2, 73904, Note_on_c, 0, 57, 62
2, 73908, Note_on_c, 0, 45, 60
2, 73908, Note_on_c, 0, 60, 62
2, 73930, Note_on_c, 0, 64, 0
2, 73933, Note_on_c, 0, 76, 0
2, 74002, Note_on_c, 0, 45, 0
2, 74002, Note_on_c, 0, 57, 0
2, 74002, Note_on_c, 0, 72, 0
2, 74006, Note_on_c, 0, 60, 0
2, 74006, Note_on_c, 0, 74, 73
2, 74006, Note_on_c, 0, 62, 68
2, 74084, Note_on_c, 0, 74, 0
2, 74107, Note_on_c, 0, 62, 0
2, 74107, Note_on_c, 0, 57, 62
2, 74107, Note_on_c, 0, 60, 63
2, 74107, Note_on_c, 0, 76, 73
2, 74113, Note_on_c, 0, 64, 62
2, 74129, Note_on_c, 0, 60, 0
2, 74203, Note_on_c, 0, 57, 0
2, 74207, Note_on_c, 0, 76, 0
2, 74207, Note_on_c, 0, 60, 62
2, 74211, Note_on_c, 0, 72, 73
2, 74232, Note_on_c, 0, 64, 0
2, 74303, Note_on_c, 0, 72, 0
2, 74303, Note_on_c, 0, 59, 64
2, 74310, Note_on_c, 0, 60, 0
2, 74310, Note_on_c, 0, 47, 61
2, 74310, Note_on_c, 0, 71, 70
2, 74334, Note_on_c, 0, 71, 0
2, 74334, Control_c, 0, 64, 127
2, 74396, Control_c, 0, 64, 0
2, 74400, Note_on_c, 0, 47, 0
2, 74404, Note_on_c, 0, 59, 0
2, 74414, Note_on_c, 0, 71, 62
2, 74414, Note_on_c, 0, 83, 69
2, 74506, Note_on_c, 0, 83, 0
2, 74506, Note_on_c, 0, 59, 66
2, 74510, Note_on_c, 0, 55, 64
2, 74510, Note_on_c, 0, 67, 66
2, 74510, Note_on_c, 0, 64, 64
2, 74515, Note_on_c, 0, 71, 0
2, 74515, Note_on_c, 0, 79, 64
2, 74535, Note_on_c, 0, 64, 0
2, 74611, Note_on_c, 0, 67, 0
2, 74611, Note_on_c, 0, 59, 0
2, 74611, Note_on_c, 0, 55, 0
2, 74615, Note_on_c, 0, 79, 0
2, 74615, Note_on_c, 0, 64, 60
2, 74615, Note_on_c, 0, 76, 71
2, 74713, Note_on_c, 0, 47, 65
2, 74742, Note_on_c, 0, 76, 0
2, 74767, Note_on_c, 0, 64, 0
2, 74810, Note_on_c, 0, 47, 0
2, 74814, Note_on_c, 0, 67, 69
2, 74818, Note_on_c, 0, 79, 68
2, 74912, Note_on_c, 0, 59, 64
2, 74912, Note_on_c, 0, 63, 64
2, 74916, Note_on_c, 0, 67, 0
2, 74916, Note_on_c, 0, 57, 62
2, 74916, Note_on_c, 0, 66, 65
2, 74919, Note_on_c, 0, 79, 0
2, 74919, Note_on_c, 0, 78, 63
2, 74933, Note_on_c, 0, 63, 0
2, 74988, Note_on_c, 0, 66, 0
2, 74988, Note_on_c, 0, 57, 0
2, 74988, Note_on_c, 0, 59, 0
2, 74994, Note_on_c, 0, 78, 0
2, 75009, Note_on_c, 0, 63, 65
2, 75013, Note_on_c, 0, 75, 73
2, 75115, Note_on_c, 0, 75, 0
2, 75115, Note_on_c, 0, 63, 0
2, 75115, Note_on_c, 0, 59, 63
2, 75115, Note_on_c, 0, 52, 61
2, 75115, Note_on_c, 0, 76, 72
2, 75121, Note_on_c, 0, 55, 58
2, 75124, Note_on_c, 0, 64, 60
2, 75158, Control_c, 0, 64, 127
2, 75208, Control_c, 0, 64, 0
2, 75296, Note_on_c, 0, 59, 0
2, 75300, Note_on_c, 0, 76, 0
2, 75318, Note_on_c, 0, 64, 0
2, 75318, Note_on_c, 0, 55, 0
2, 75322, Note_on_c, 0, 52, 0
2, 75513, Note_on_c, 0, 67, 67
2, 75517, Note_on_c, 0, 53, 62
2, 75517, Note_on_c, 0, 79, 67
2, 75517, Note_on_c, 0, 59, 63
2, 75517, Note_on_c, 0, 55, 60
2, 75521, Note_on_c, 0, 50, 57
2, 75636, Note_on_c, 0, 50, 0
2, 75698, Note_on_c, 0, 53, 0
2, 75698, Note_on_c, 0, 59, 0
2, 75723, Note_on_c, 0, 55, 0
2, 75723, Note_on_c, 0, 31, 61
2, 75723, Note_on_c, 0, 43, 62
2, 75852, Note_on_c, 0, 43, 0
2, 75852, Note_on_c, 0, 31, 0
2, 75924, Note_on_c, 0, 67, 0
2, 75924, Note_on_c, 0, 52, 63
2, 75930, Note_on_c, 0, 79, 0
2, 75930, Note_on_c, 0, 48, 65
2, 75930, Note_on_c, 0, 64, 62
2, 75952, Control_c, 0, 64, 127
2, 76020, Control_c, 0, 64, 0
2, 76028, Note_on_c, 0, 67, 70
2, 76028, Note_on_c, 0, 55, 63
2, 76032, Note_on_c, 0, 52, 0
2, 76051, Note_on_c, 0, 55, 0
2, 76082, Note_on_c, 0, 48, 0
2, 76129, Note_on_c, 0, 52, 62
2, 76129, Note_on_c, 0, 55, 53
2, 76133, Note_on_c, 0, 67, 0
2, 76133, Note_on_c, 0, 60, 62
2, 76133, Note_on_c, 0, 72, 71
2, 76232, Note_on_c, 0, 72, 0
2, 76232, Note_on_c, 0, 74, 72
2, 76232, Note_on_c, 0, 62, 67
2, 76236, Note_on_c, 0, 52, 0
2, 76236, Note_on_c, 0, 60, 0
2, 76260, Note_on_c, 0, 55, 0
2, 76260, Note_on_c, 0, 64, 0
2, 76334, Note_on_c, 0, 62, 0
2, 76334, Note_on_c, 0, 76, 73
2, 76334, Note_on_c, 0, 64, 64
2, 76334, Note_on_c, 0, 43, 63
2, 76363, Note_on_c, 0, 74, 0
2, 76429, Note_on_c, 0, 67, 72
2, 76433, Note_on_c, 0, 43, 0
2, 76459, Note_on_c, 0, 79, 69
2, 76464, Note_on_c, 0, 76, 0
2, 76538, Note_on_c, 0, 64, 0
2, 76538, Note_on_c, 0, 52, 62
2, 76538, Note_on_c, 0, 55, 60
2, 76538, Note_on_c, 0, 60, 63
2, 76587, Note_on_c, 0, 67, 0
2, 76587, Note_on_c, 0, 79, 0
2, 76634, Note_on_c, 0, 68, 69
2, 76640, Note_on_c, 0, 55, 0
2, 76640, Note_on_c, 0, 60, 0
2, 76640, Note_on_c, 0, 76, 70
2, 76643, Note_on_c, 0, 52, 0
2, 76643, Note_on_c, 0, 64, 66
2, 76737, Note_on_c, 0, 47, 65
2, 76823, Note_on_c, 0, 76, 0
2, 76837, Note_on_c, 0, 47, 0
2, 76837, Note_on_c, 0, 63, 67
2, 76844, Note_on_c, 0, 64, 0
2, 76844, Note_on_c, 0, 68, 0
2, 76866, Note_on_c, 0, 75, 73
2, 76942, Note_on_c, 0, 68, 66
2, 76948, Note_on_c, 0, 75, 0
2, 76948, Note_on_c, 0, 63, 0
2, 76948, Note_on_c, 0, 52, 61
2, 76951, Note_on_c, 0, 56, 58
2, 76951, Note_on_c, 0, 76, 69
2, 76951, Note_on_c, 0, 64, 60
2, 76954, Note_on_c, 0, 62, 63
2, 77049, Note_on_c, 0, 56, 0
2, 77049, Note_on_c, 0, 68, 0
2, 77053, Note_on_c, 0, 62, 0
2, 77057, Note_on_c, 0, 52, 0
2, 77057, Note_on_c, 0, 76, 0
2, 77080, Note_on_c, 0, 64, 0
2, 77146, Note_on_c, 0, 68, 66
2, 77146, Note_on_c, 0, 65, 63
2, 77150, Note_on_c, 0, 40, 64
2, 77160, Note_on_c, 0, 77, 66
2, 77254, Note_on_c, 0, 77, 0
2, 77254, Note_on_c, 0, 40, 0
2, 77254, Note_on_c, 0, 68, 0
2, 77283, Note_on_c, 0, 65, 0
2, 77345, Note_on_c, 0, 68, 67
2, 77351, Note_on_c, 0, 52, 62
2, 77351, Note_on_c, 0, 56, 59
2, 77355, Note_on_c, 0, 62, 64
2, 77359, Note_on_c, 0, 64, 61
2, 77359, Note_on_c, 0, 76, 70
2, 77458, Note_on_c, 0, 56, 0
2, 77458, Note_on_c, 0, 60, 66
2, 77462, Note_on_c, 0, 62, 0
2, 77462, Note_on_c, 0, 68, 0
2, 77462, Note_on_c, 0, 52, 0
2, 77462, Note_on_c, 0, 72, 68
2, 77485, Note_on_c, 0, 64, 0
2, 77485, Note_on_c, 0, 69, 69
2, 77489, Note_on_c, 0, 76, 0
2, 77561, Note_on_c, 0, 45, 64
2, 77612, Note_on_c, 0, 72, 0
2, 77612, Note_on_c, 0, 69, 0
2, 77616, Note_on_c, 0, 60, 0
2, 77657, Note_on_c, 0, 59, 67
2, 77661, Note_on_c, 0, 45, 0
2, 77661, Note_on_c, 0, 71, 72
2, 77735, Note_on_c, 0, 59, 0
2, 77742, Note_on_c, 0, 71, 0
2, 77760, Note_on_c, 0, 52, 62
2, 77760, Note_on_c, 0, 69, 68
2, 77764, Note_on_c, 0, 60, 63
2, 77764, Note_on_c, 0, 72, 71
2, 77764, Note_on_c, 0, 57, 60
2, 77863, Note_on_c, 0, 57, 0
2, 77863, Note_on_c, 0, 69, 0
2, 77863, Note_on_c, 0, 72, 0
2, 77867, Note_on_c, 0, 60, 0
2, 77867, Note_on_c, 0, 52, 0
2, 77966, Note_on_c, 0, 70, 70
2, 77966, Note_on_c, 0, 55, 59
2, 77966, Note_on_c, 0, 64, 62
2, 77970, Note_on_c, 0, 60, 62
2, 77970, Note_on_c, 0, 72, 71
2, 77978, Note_on_c, 0, 43, 58
2, 77992, Note_on_c, 0, 72, 0
2, 77992, Note_on_c, 0, 64, 0
2, 77992, Note_on_c, 0, 70, 0
2, 78001, Note_on_c, 0, 60, 0
2, 78068, Note_on_c, 0, 70, 70
2, 78068, Note_on_c, 0, 60, 67
2, 78073, Note_on_c, 0, 43, 0
2, 78073, Note_on_c, 0, 64, 61
2, 78073, Note_on_c, 0, 72, 67
2, 78097, Note_on_c, 0, 55, 0
2, 78169, Note_on_c, 0, 48, 66
2, 78175, Note_on_c, 0, 60, 0
2, 78175, Note_on_c, 0, 36, 60
2, 78196, Note_on_c, 0, 72, 0
2, 78225, Note_on_c, 0, 70, 0
2, 78253, Note_on_c, 0, 64, 0
2, 78272, Note_on_c, 0, 65, 63
2, 78272, Note_on_c, 0, 60, 66
2, 78276, Note_on_c, 0, 36, 0
2, 78276, Note_on_c, 0, 48, 0
2, 78276, Note_on_c, 0, 69, 67
2, 78276, Note_on_c, 0, 72, 70
2, 78369, Note_on_c, 0, 53, 64
2, 78375, Note_on_c, 0, 41, 62
2, 78478, Note_on_c, 0, 53, 0
2, 78502, Note_on_c, 0, 41, 0
2, 78506, Note_on_c, 0, 60, 0
2, 78578, Note_on_c, 0, 57, 63
2, 78578, Note_on_c, 0, 60, 65
2, 78675, Note_on_c, 0, 57, 0
2, 78681, Note_on_c, 0, 60, 0
2, 78776, Note_on_c, 0, 48, 67
2, 78780, Note_on_c, 0, 69, 0
2, 78784, Note_on_c, 0, 36, 61
2, 78805, Note_on_c, 0, 72, 0
2, 78805, Note_on_c, 0, 65, 0
2, 78875, Note_on_c, 0, 69, 73
2, 78875, Note_on_c, 0, 57, 64
2, 78883, Note_on_c, 0, 48, 0
2, 78883, Note_on_c, 0, 36, 0
2, 78908, Note_on_c, 0, 57, 0
2, 78980, Note_on_c, 0, 57, 64
2, 78980, Note_on_c, 0, 60, 67
2, 78986, Note_on_c, 0, 69, 0
2, 78986, Note_on_c, 0, 72, 74
2, 79081, Note_on_c, 0, 65, 67
2, 79087, Note_on_c, 0, 57, 0
2, 79091, Note_on_c, 0, 60, 0
2, 79095, Note_on_c, 0, 77, 68
2, 79113, Note_on_c, 0, 77, 0
2, 79113, Note_on_c, 0, 72, 0
2, 79186, Note_on_c, 0, 53, 65
2, 79194, Note_on_c, 0, 69, 60
2, 79194, Note_on_c, 0, 72, 65
2, 79194, Note_on_c, 0, 41, 63
2, 79194, Note_on_c, 0, 81, 60
2, 79206, Note_on_c, 0, 77, 51
2, 79221, Note_on_c, 0, 65, 0
2, 79268, Note_on_c, 0, 53, 0
2, 79268, Note_on_c, 0, 69, 0
2, 79293, Note_on_c, 0, 41, 0
2, 79293, Note_on_c, 0, 72, 0
2, 79293, Note_on_c, 0, 81, 0
2, 79297, Note_on_c, 0, 77, 0
2, 79393, Note_on_c, 0, 60, 65
2, 79393, Note_on_c, 0, 57, 63
2, 79393, Note_on_c, 0, 65, 56
2, 79398, Note_on_c, 0, 81, 58
2, 79398, Note_on_c, 0, 69, 59
2, 79404, Note_on_c, 0, 72, 59
2, 79414, Note_on_c, 0, 77, 55
2, 79494, Note_on_c, 0, 72, 0
2, 79494, Note_on_c, 0, 57, 0
2, 79494, Note_on_c, 0, 69, 0
2, 79498, Note_on_c, 0, 81, 0
2, 79498, Note_on_c, 0, 60, 0
2, 79498, Note_on_c, 0, 77, 0
2, 79527, Note_on_c, 0, 65, 0
2, 79593, Note_on_c, 0, 53, 65
2, 79597, Note_on_c, 0, 69, 61
2, 79597, Note_on_c, 0, 81, 62
2, 79597, Note_on_c, 0, 41, 63
2, 79608, Note_on_c, 0, 72, 63
2, 79608, Note_on_c, 0, 77, 60
2, 79678, Note_on_c, 0, 72, 0
2, 79678, Note_on_c, 0, 41, 0
2, 79678, Note_on_c, 0, 81, 0
2, 79678, Note_on_c, 0, 53, 0
2, 79678, Note_on_c, 0, 69, 0
2, 79682, Note_on_c, 0, 77, 0
2, 79801, Note_on_c, 0, 72, 74
2, 79801, Note_on_c, 0, 42, 63
2, 79828, Note_on_c, 0, 68, 65
2, 79832, Note_on_c, 0, 80, 65
2, 79832, Note_on_c, 0, 54, 63
2, 79832, Note_on_c, 0, 75, 67
2, 79879, Note_on_c, 0, 75, 0
2, 79879, Note_on_c, 0, 42, 0
2, 79879, Note_on_c, 0, 54, 0
2, 79883, Note_on_c, 0, 68, 0
2, 79883, Note_on_c, 0, 72, 0
2, 79886, Note_on_c, 0, 80, 0
2, 80003, Note_on_c, 0, 55, 61
2, 80009, Note_on_c, 0, 72, 63
2, 80009, Note_on_c, 0, 67, 57
2, 80013, Note_on_c, 0, 43, 61
2, 80013, Note_on_c, 0, 76, 59
2, 80013, Note_on_c, 0, 79, 55
2, 80042, Control_c, 0, 64, 127
2, 80110, Control_c, 0, 64, 0
2, 80114, Note_on_c, 0, 55, 0
2, 80215, Note_on_c, 0, 60, 65
2, 80215, Note_on_c, 0, 55, 61
2, 80221, Note_on_c, 0, 64, 61
2, 80242, Note_on_c, 0, 64, 0
2, 80246, Note_on_c, 0, 76, 0
2, 80316, Note_on_c, 0, 64, 60
2, 80322, Note_on_c, 0, 72, 0
2, 80322, Note_on_c, 0, 60, 0
2, 80322, Note_on_c, 0, 67, 0
2, 80325, Note_on_c, 0, 79, 0
2, 80325, Note_on_c, 0, 55, 0
2, 80325, Note_on_c, 0, 76, 71
2, 80374, Note_on_c, 0, 43, 0
2, 80413, Note_on_c, 0, 72, 72
2, 80413, Note_on_c, 0, 60, 67
2, 80419, Note_on_c, 0, 57, 62
2, 80419, Note_on_c, 0, 45, 60
2, 80425, Note_on_c, 0, 76, 0
2, 80444, Note_on_c, 0, 64, 0
2, 80520, Note_on_c, 0, 57, 0
2, 80520, Note_on_c, 0, 72, 0
2, 80520, Note_on_c, 0, 62, 68
2, 80523, Note_on_c, 0, 60, 0
2, 80523, Note_on_c, 0, 45, 0
2, 80523, Note_on_c, 0, 74, 72
2, 80621, Note_on_c, 0, 57, 62
2, 80621, Note_on_c, 0, 76, 70
2, 80621, Note_on_c, 0, 60, 64
2, 80625, Note_on_c, 0, 64, 62
2, 80629, Note_on_c, 0, 74, 0
2, 80629, Note_on_c, 0, 62, 0
2, 80701, Note_on_c, 0, 57, 0
2, 80728, Note_on_c, 0, 60, 0
2, 80753, Note_on_c, 0, 64, 0
2, 80821, Note_on_c, 0, 60, 67
2, 80821, Note_on_c, 0, 66, 67
2, 80825, Note_on_c, 0, 50, 58
2, 80825, Note_on_c, 0, 62, 64
2, 80825, Control_c, 0, 64, 127
2, 80831, Note_on_c, 0, 72, 69
2, 80854, Note_on_c, 0, 76, 0
2, 80864, Control_c, 0, 64, 0
2, 81023, Note_on_c, 0, 57, 69
2, 81023, Note_on_c, 0, 45, 66
2, 81155, Note_on_c, 0, 45, 0
2, 81155, Note_on_c, 0, 57, 0
2, 81159, Note_on_c, 0, 66, 0
2, 81163, Note_on_c, 0, 60, 0
2, 81186, Note_on_c, 0, 72, 0
2, 81192, Note_on_c, 0, 62, 0
2, 81223, Note_on_c, 0, 50, 0
2, 81223, Note_on_c, 0, 65, 66
2, 81229, Note_on_c, 0, 62, 49
2, 81233, Note_on_c, 0, 55, 61
2, 81233, Note_on_c, 0, 71, 68
2, 81242, Note_on_c, 0, 43, 60
2, 81264, Note_on_c, 0, 71, 0
2, 81264, Note_on_c, 0, 62, 0
2, 81330, Note_on_c, 0, 62, 73
2, 81338, Note_on_c, 0, 74, 70
2, 81343, Note_on_c, 0, 71, 65
2, 81472, Note_on_c, 0, 74, 0
2, 81472, Note_on_c, 0, 62, 0
2, 81475, Note_on_c, 0, 71, 0
2, 81522, Note_on_c, 0, 65, 0
2, 81545, Note_on_c, 0, 55, 0
2, 81545, Note_on_c, 0, 67, 67
2, 81545, Note_on_c, 0, 60, 65
2, 81549, Note_on_c, 0, 43, 0
2, 81549, Note_on_c, 0, 64, 63
2, 81549, Note_on_c, 0, 72, 72
2, 81574, Note_on_c, 0, 60, 0
2, 81644, Note_on_c, 0, 60, 66
2, 81644, Note_on_c, 0, 48, 65
2, 81648, Control_c, 0, 64, 127
2, 81681, Control_c, 0, 64, 0
2, 81726, Note_on_c, 0, 48, 0
2, 81726, Note_on_c, 0, 60, 0
2, 81776, Note_on_c, 0, 72, 0
2, 81776, Note_on_c, 0, 67, 0
2, 81800, Note_on_c, 0, 64, 0
2, 81844, Note_on_c, 0, 55, 68
2, 81844, Note_on_c, 0, 67, 75
2, 81852, Note_on_c, 0, 43, 66
2, 81875, Note_on_c, 0, 55, 0
2, 81949, Note_on_c, 0, 43, 0
2, 81949, Note_on_c, 0, 67, 0
2, 81949, Note_on_c, 0, 55, 67
2, 82046, Note_on_c, 0, 66, 73
2, 82052, Note_on_c, 0, 45, 63
2, 82052, Note_on_c, 0, 54, 63
2, 82081, Note_on_c, 0, 55, 0
2, 82149, Note_on_c, 0, 57, 66
2, 82155, Note_on_c, 0, 66, 0
2, 82155, Note_on_c, 0, 54, 0
2, 82155, Note_on_c, 0, 45, 0
2, 82232, Note_on_c, 0, 57, 0
2, 82244, Note_on_c, 0, 53, 66
2, 82250, Note_on_c, 0, 47, 63
2, 82271, Note_on_c, 0, 65, 71
2, 82353, Note_on_c, 0, 59, 66
2, 82358, Note_on_c, 0, 47, 0
2, 82358, Note_on_c, 0, 53, 0
2, 82386, Note_on_c, 0, 65, 0
2, 82461, Note_on_c, 0, 59, 0
2, 82461, Note_on_c, 0, 48, 64
2, 82461, Note_on_c, 0, 60, 64
2, 82461, Note_on_c, 0, 64, 62
2, 82490, Note_on_c, 0, 76, 72
2, 82494, Control_c, 0, 64, 127
2, 82517, Control_c, 0, 64, 0
2, 82562, Note_on_c, 0, 67, 67
2, 82566, Note_on_c, 0, 60, 0
2, 82566, Note_on_c, 0, 79, 65
2, 82591, Note_on_c, 0, 64, 0
2, 82657, Note_on_c, 0, 60, 70
2, 82657, Note_on_c, 0, 55, 65
2, 82657, Note_on_c, 0, 52, 67
2, 82665, Note_on_c, 0, 79, 0
2, 82665, Note_on_c, 0, 72, 70
2, 82665, Note_on_c, 0, 84, 67
2, 82686, Note_on_c, 0, 67, 0
2, 82764, Note_on_c, 0, 72, 0
2, 82764, Note_on_c, 0, 55, 0
2, 82764, Note_on_c, 0, 74, 67
2, 82768, Note_on_c, 0, 84, 0
2, 82768, Note_on_c, 0, 52, 0
2, 82768, Note_on_c, 0, 60, 0
2, 82771, Note_on_c, 0, 76, 0
2, 82771, Note_on_c, 0, 86, 65
2, 82818, Note_on_c, 0, 48, 0
2, 82847, Note_on_c, 0, 74, 0
2, 82868, Note_on_c, 0, 86, 0
2, 82868, Note_on_c, 0, 43, 65
2, 82868, Note_on_c, 0, 76, 69
2, 82868, Note_on_c, 0, 88, 69
2, 82965, Note_on_c, 0, 79, 66
2, 82965, Note_on_c, 0, 91, 68
2, 82975, Note_on_c, 0, 88, 0
2, 83064, Note_on_c, 0, 52, 63
2, 83064, Note_on_c, 0, 55, 61
2, 83064, Note_on_c, 0, 60, 63
2, 83072, Note_on_c, 0, 76, 0
2, 83091, Note_on_c, 0, 91, 0
2, 83091, Note_on_c, 0, 79, 0
2, 83142, Note_on_c, 0, 60, 0
2, 83159, Note_on_c, 0, 80, 68
2, 83159, Note_on_c, 0, 76, 71
2, 83167, Note_on_c, 0, 52, 0
2, 83167, Note_on_c, 0, 55, 0
2, 83194, Note_on_c, 0, 88, 73
2, 83214, Note_on_c, 0, 43, 0
2, 83245, Control_c, 0, 64, 127
2, 83262, Note_on_c, 0, 47, 64
2, 83347, Note_on_c, 0, 88, 0
2, 83347, Note_on_c, 0, 76, 0
2, 83359, Control_c, 0, 64, 0
2, 83367, Note_on_c, 0, 47, 0
2, 83367, Note_on_c, 0, 75, 72
2, 83396, Note_on_c, 0, 80, 0
2, 83396, Note_on_c, 0, 87, 71
2, 83444, Note_on_c, 0, 75, 0
2, 83450, Note_on_c, 0, 87, 0
2, 83466, Note_on_c, 0, 52, 68
2, 83469, Note_on_c, 0, 56, 66
2, 83469, Note_on_c, 0, 80, 73
2, 83473, Note_on_c, 0, 62, 68
2, 83473, Note_on_c, 0, 76, 73
2, 83500, Note_on_c, 0, 88, 74
2, 83549, Note_on_c, 0, 56, 0
2, 83553, Note_on_c, 0, 62, 0
2, 83553, Note_on_c, 0, 52, 0
2, 83578, Note_on_c, 0, 80, 0
2, 83578, Note_on_c, 0, 88, 0
2, 83578, Note_on_c, 0, 76, 0
2, 83669, Note_on_c, 0, 80, 68
2, 83669, Note_on_c, 0, 40, 64
2, 83677, Note_on_c, 0, 77, 67
2, 83708, Note_on_c, 0, 89, 72
2, 83754, Note_on_c, 0, 77, 0
2, 83754, Note_on_c, 0, 80, 0
2, 83754, Note_on_c, 0, 40, 0
2, 83758, Note_on_c, 0, 89, 0
2, 83876, Note_on_c, 0, 80, 70
2, 83876, Note_on_c, 0, 56, 60
2, 83876, Note_on_c, 0, 52, 63
2, 83876, Note_on_c, 0, 62, 66
2, 83882, Note_on_c, 0, 76, 70
2, 83911, Note_on_c, 0, 88, 72
2, 83979, Note_on_c, 0, 81, 66
2, 83985, Note_on_c, 0, 56, 0
2, 83985, Note_on_c, 0, 80, 0
2, 83989, Note_on_c, 0, 52, 0
2, 83989, Note_on_c, 0, 62, 0
2, 83989, Note_on_c, 0, 88, 0
2, 83989, Note_on_c, 0, 72, 68
2, 84080, Control_c, 0, 64, 127
2, 84080, Note_on_c, 0, 45, 64
2, 84124, Control_c, 0, 64, 0
2, 84136, Note_on_c, 0, 72, 0
2, 84136, Note_on_c, 0, 81, 0
2, 84140, Note_on_c, 0, 76, 0
2, 84190, Note_on_c, 0, 45, 0
2, 84190, Note_on_c, 0, 71, 67
2, 84190, Note_on_c, 0, 83, 69
2, 84266, Note_on_c, 0, 83, 0
2, 84287, Note_on_c, 0, 52, 67
2, 84287, Note_on_c, 0, 60, 67
2, 84287, Note_on_c, 0, 57, 66
2, 84291, Note_on_c, 0, 81, 63
2, 84291, Note_on_c, 0, 76, 62
2, 84299, Note_on_c, 0, 71, 0
2, 84299, Note_on_c, 0, 72, 62
2, 84299, Note_on_c, 0, 84, 58
2, 84366, Note_on_c, 0, 84, 0
2, 84366, Note_on_c, 0, 81, 0
2, 84366, Note_on_c, 0, 60, 0
2, 84366, Note_on_c, 0, 57, 0
2, 84366, Note_on_c, 0, 72, 0
2, 84372, Note_on_c, 0, 52, 0
2, 84372, Note_on_c, 0, 76, 0
2, 84479, Note_on_c, 0, 55, 63
2, 84492, Note_on_c, 0, 72, 64
2, 84492, Note_on_c, 0, 43, 62
2, 84492, Note_on_c, 0, 76, 62
2, 84492, Note_on_c, 0, 82, 63
2, 84492, Note_on_c, 0, 84, 62
2, 84514, Note_on_c, 0, 84, 0
2, 84514, Note_on_c, 0, 76, 0
2, 84514, Note_on_c, 0, 72, 0
2, 84514, Note_on_c, 0, 82, 0
2, 84589, Note_on_c, 0, 52, 62
2, 84593, Note_on_c, 0, 55, 0
2, 84593, Note_on_c, 0, 43, 0
2, 84593, Note_on_c, 0, 40, 62
2, 84593, Note_on_c, 0, 72, 58
2, 84593, Note_on_c, 0, 76, 59
2, 84593, Note_on_c, 0, 82, 58
2, 84597, Note_on_c, 0, 84, 55
2, 84674, Note_on_c, 0, 84, 0
2, 84674, Note_on_c, 0, 40, 0
2, 84690, Note_on_c, 0, 48, 67
2, 84698, Note_on_c, 0, 72, 0
2, 84698, Note_on_c, 0, 36, 59
2, 84705, Note_on_c, 0, 52, 0
2, 84725, Note_on_c, 0, 76, 0
2, 84725, Note_on_c, 0, 82, 0
2, 84789, Note_on_c, 0, 52, 66
2, 84798, Note_on_c, 0, 81, 63
2, 84798, Note_on_c, 0, 40, 60
2, 84802, Note_on_c, 0, 48, 0
2, 84802, Note_on_c, 0, 36, 0
2, 84802, Note_on_c, 0, 84, 53
2, 84802, Note_on_c, 0, 77, 53
2, 84802, Note_on_c, 0, 72, 53
2, 84839, Note_on_c, 0, 52, 0
2, 84847, Note_on_c, 0, 40, 0
2, 84887, Note_on_c, 0, 53, 65
2, 84895, Note_on_c, 0, 41, 63
2, 85096, Note_on_c, 0, 60, 64
2, 85096, Note_on_c, 0, 57, 63
2, 85209, Note_on_c, 0, 57, 0
2, 85214, Note_on_c, 0, 60, 0
2, 85234, Note_on_c, 0, 53, 0
2, 85257, Note_on_c, 0, 41, 0
2, 85284, Note_on_c, 0, 81, 0
2, 85296, Note_on_c, 0, 84, 0
2, 85296, Note_on_c, 0, 77, 0
2, 85296, Note_on_c, 0, 72, 0
2, 85299, Note_on_c, 0, 48, 67
2, 85305, Note_on_c, 0, 36, 61
2, 85396, Note_on_c, 0, 81, 74
2, 85408, Note_on_c, 0, 36, 0
2, 85408, Note_on_c, 0, 48, 0
2, 85423, Note_on_c, 0, 69, 72
2, 85481, Note_on_c, 0, 69, 0
2, 85503, Note_on_c, 0, 60, 67
2, 85503, Note_on_c, 0, 57, 64
2, 85507, Note_on_c, 0, 81, 0
2, 85507, Note_on_c, 0, 72, 71
2, 85507, Note_on_c, 0, 84, 69
2, 85609, Note_on_c, 0, 84, 0
2, 85609, Note_on_c, 0, 60, 0
2, 85609, Note_on_c, 0, 57, 0
2, 85609, Note_on_c, 0, 72, 0
2, 85613, Note_on_c, 0, 77, 67
2, 85613, Note_on_c, 0, 89, 69
2, 85638, Note_on_c, 0, 89, 0
2, 85704, Note_on_c, 0, 53, 65
2, 85712, Note_on_c, 0, 77, 0
2, 85712, Note_on_c, 0, 41, 63
2, 85712, Note_on_c, 0, 81, 62
2, 85721, Note_on_c, 0, 93, 65
2, 85721, Note_on_c, 0, 89, 57
2, 85721, Note_on_c, 0, 84, 59
2, 85737, Control_c, 0, 64, 127
2, 85768, Control_c, 0, 64, 0
2, 85789, Note_on_c, 0, 84, 0
2, 85789, Note_on_c, 0, 53, 0
2, 85789, Note_on_c, 0, 81, 0
2, 85793, Note_on_c, 0, 89, 0
2, 85797, Note_on_c, 0, 93, 0
2, 85841, Note_on_c, 0, 41, 0
2, 85907, Note_on_c, 0, 65, 63
2, 85907, Note_on_c, 0, 60, 70
2, 85907, Note_on_c, 0, 57, 68
2, 85911, Note_on_c, 0, 81, 67
2, 85917, Note_on_c, 0, 84, 66
2, 85917, Note_on_c, 0, 89, 67
2, 85948, Note_on_c, 0, 93, 75
2, 86015, Note_on_c, 0, 84, 0
2, 86015, Note_on_c, 0, 81, 0
2, 86015, Note_on_c, 0, 57, 0
2, 86019, Note_on_c, 0, 60, 0
2, 86023, Note_on_c, 0, 89, 0
2, 86027, Note_on_c, 0, 93, 0
2, 86046, Note_on_c, 0, 65, 0
2, 86110, Note_on_c, 0, 53, 66
2, 86114, Note_on_c, 0, 81, 63
2, 86118, Note_on_c, 0, 41, 63
2, 86122, Note_on_c, 0, 84, 62
2, 86122, Note_on_c, 0, 93, 67
2, 86122, Note_on_c, 0, 89, 63
2, 86195, Note_on_c, 0, 81, 0
2, 86199, Note_on_c, 0, 41, 0
2, 86199, Note_on_c, 0, 84, 0
2, 86199, Note_on_c, 0, 53, 0
2, 86199, Note_on_c, 0, 89, 0
2, 86207, Note_on_c, 0, 93, 0
2, 86317, Note_on_c, 0, 42, 60
2, 86317, Note_on_c, 0, 80, 61
2, 86317, Note_on_c, 0, 92, 68
2, 86321, Note_on_c, 0, 54, 62
2, 86321, Note_on_c, 0, 84, 64
2, 86325, Note_on_c, 0, 87, 61
2, 86402, Note_on_c, 0, 87, 0
2, 86425, Note_on_c, 0, 54, 0
2, 86425, Note_on_c, 0, 42, 0
2, 86425, Note_on_c, 0, 84, 0
2, 86429, Note_on_c, 0, 80, 0
2, 86429, Note_on_c, 0, 92, 0
2, 86518, Note_on_c, 0, 55, 62
2, 86528, Note_on_c, 0, 79, 57
2, 86528, Note_on_c, 0, 43, 61
2, 86528, Note_on_c, 0, 91, 61
2, 86528, Note_on_c, 0, 84, 61
2, 86528, Note_on_c, 0, 88, 62
2, 86537, Control_c, 0, 64, 127
2, 86580, Control_c, 0, 64, 0
2, 86630, Note_on_c, 0, 55, 0
2, 86723, Note_on_c, 0, 55, 62
2, 86727, Note_on_c, 0, 60, 64
2, 86731, Note_on_c, 0, 88, 0
2, 86731, Note_on_c, 0, 64, 61
2, 86754, Note_on_c, 0, 84, 0
2, 86754, Note_on_c, 0, 79, 0
2, 86754, Note_on_c, 0, 91, 0
2, 86827, Note_on_c, 0, 88, 70
2, 86831, Note_on_c, 0, 60, 0
2, 86831, Note_on_c, 0, 76, 70
2, 86856, Note_on_c, 0, 55, 0
2, 86856, Note_on_c, 0, 64, 0
2, 86887, Note_on_c, 0, 43, 0
2, 86928, Note_on_c, 0, 57, 64
2, 86928, Note_on_c, 0, 72, 72
2, 86934, Note_on_c, 0, 88, 0
2, 86934, Note_on_c, 0, 45, 63
2, 87032, Note_on_c, 0, 72, 0
2, 87032, Note_on_c, 0, 57, 0
2, 87032, Note_on_c, 0, 74, 72
2, 87036, Note_on_c, 0, 76, 0
2, 87036, Note_on_c, 0, 45, 0
2, 87059, Note_on_c, 0, 86, 71
2, 87127, Note_on_c, 0, 57, 65
2, 87127, Note_on_c, 0, 76, 70
2, 87127, Note_on_c, 0, 60, 64
2, 87133, Note_on_c, 0, 86, 0
2, 87133, Note_on_c, 0, 64, 63
2, 87137, Note_on_c, 0, 74, 0
2, 87160, Note_on_c, 0, 88, 73
2, 87235, Note_on_c, 0, 57, 0
2, 87235, Note_on_c, 0, 72, 73
2, 87239, Note_on_c, 0, 60, 0
2, 87239, Note_on_c, 0, 88, 0
2, 87266, Note_on_c, 0, 64, 0
2, 87289, Note_on_c, 0, 76, 0
2, 87289, Note_on_c, 0, 72, 0
2, 87332, Note_on_c, 0, 47, 65
2, 87336, Note_on_c, 0, 83, 70
2, 87336, Note_on_c, 0, 71, 67
2, 87357, Note_on_c, 0, 83, 0
2, 87417, Note_on_c, 0, 47, 0
2, 87421, Note_on_c, 0, 71, 0
2, 87436, Note_on_c, 0, 95, 75
2, 87440, Note_on_c, 0, 83, 65
2, 87538, Note_on_c, 0, 55, 62
2, 87538, Note_on_c, 0, 59, 63
2, 87538, Note_on_c, 0, 91, 67
2, 87542, Note_on_c, 0, 83, 0
2, 87542, Note_on_c, 0, 79, 63
2, 87542, Note_on_c, 0, 64, 63
2, 87548, Note_on_c, 0, 95, 0
2, 87616, Note_on_c, 0, 59, 0
2, 87641, Note_on_c, 0, 79, 0
2, 87641, Note_on_c, 0, 91, 0
2, 87641, Note_on_c, 0, 55, 0
2, 87641, Note_on_c, 0, 88, 68
2, 87641, Note_on_c, 0, 76, 68
2, 87666, Note_on_c, 0, 64, 0
2, 87743, Note_on_c, 0, 47, 66
2, 87770, Note_on_c, 0, 76, 0
2, 87770, Note_on_c, 0, 88, 0
2, 87842, Note_on_c, 0, 47, 0
2, 87842, Note_on_c, 0, 79, 69
2, 87842, Note_on_c, 0, 91, 72
2, 87896, Note_on_c, 0, 91, 0
2, 87896, Note_on_c, 0, 79, 0
2, 87942, Note_on_c, 0, 78, 68
2, 87942, Note_on_c, 0, 63, 64
2, 87942, Note_on_c, 0, 59, 64
2, 87946, Note_on_c, 0, 57, 62
2, 87946, Note_on_c, 0, 90, 73
2, 88052, Note_on_c, 0, 90, 0
2, 88052, Note_on_c, 0, 59, 0
2, 88052, Note_on_c, 0, 57, 0
2, 88052, Note_on_c, 0, 63, 0
2, 88052, Note_on_c, 0, 87, 66
2, 88052, Note_on_c, 0, 75, 68
2, 88056, Note_on_c, 0, 78, 0
2, 88102, Note_on_c, 0, 75, 0
2, 88108, Note_on_c, 0, 87, 0
2, 88151, Note_on_c, 0, 59, 62
2, 88151, Note_on_c, 0, 52, 61
2, 88151, Note_on_c, 0, 79, 62
2, 88151, Note_on_c, 0, 55, 59
2, 88158, Note_on_c, 0, 76, 66
2, 88158, Note_on_c, 0, 83, 66
2, 88158, Note_on_c, 0, 64, 60
2, 88187, Note_on_c, 0, 88, 70
2, 88197, Control_c, 0, 64, 127
2, 88265, Control_c, 0, 64, 0
2, 88338, Note_on_c, 0, 83, 0
2, 88338, Note_on_c, 0, 59, 0
2, 88342, Note_on_c, 0, 88, 0
2, 88342, Note_on_c, 0, 76, 0
2, 88342, Note_on_c, 0, 52, 0
2, 88342, Note_on_c, 0, 79, 0
2, 88367, Note_on_c, 0, 64, 0
2, 88367, Note_on_c, 0, 55, 0
2, 88564, Note_on_c, 0, 55, 61
2, 88564, Note_on_c, 0, 59, 62
2, 88564, Note_on_c, 0, 53, 62
2, 88568, Note_on_c, 0, 79, 66
2, 88568, Note_on_c, 0, 50, 57
2, 88568, Note_on_c, 0, 83, 68
2, 88568, Note_on_c, 0, 89, 69
2, 88568, Note_on_c, 0, 91, 68
2, 88776, Note_on_c, 0, 43, 63
2, 88849, Note_on_c, 0, 91, 0
2, 88876, Note_on_c, 0, 53, 0
2, 88876, Note_on_c, 0, 59, 0
2, 88880, Note_on_c, 0, 79, 0
2, 88880, Note_on_c, 0, 43, 0
2, 88892, Note_on_c, 0, 50, 0
2, 88898, Note_on_c, 0, 89, 0
2, 88905, Note_on_c, 0, 55, 0
2, 88927, Note_on_c, 0, 83, 0
2, 88927, Control_c, 0, 64, 127
2, 88971, Note_on_c, 0, 48, 66
2, 88971, Note_on_c, 0, 76, 73
2, 88971, Note_on_c, 0, 64, 65
2, 89050, Control_c, 0, 64, 0
2, 89079, Note_on_c, 0, 79, 68
2, 89079, Note_on_c, 0, 67, 70
2, 89085, Note_on_c, 0, 48, 0
2, 89185, Note_on_c, 0, 67, 0
2, 89185, Note_on_c, 0, 52, 67
2, 89185, Note_on_c, 0, 55, 66
2, 89189, Note_on_c, 0, 79, 0
2, 89189, Note_on_c, 0, 64, 0
2, 89189, Note_on_c, 0, 60, 67
2, 89193, Note_on_c, 0, 84, 68
2, 89193, Note_on_c, 0, 72, 72
2, 89289, Note_on_c, 0, 84, 0
2, 89289, Note_on_c, 0, 60, 0
2, 89289, Note_on_c, 0, 74, 67
2, 89293, Note_on_c, 0, 86, 66
2, 89312, Note_on_c, 0, 72, 0
2, 89318, Note_on_c, 0, 52, 0
2, 89318, Note_on_c, 0, 55, 0
2, 89318, Note_on_c, 0, 76, 0
2, 89386, Note_on_c, 0, 76, 71
2, 89386, Note_on_c, 0, 43, 66
2, 89393, Note_on_c, 0, 86, 0
2, 89393, Note_on_c, 0, 74, 0
2, 89413, Note_on_c, 0, 88, 74
2, 89490, Note_on_c, 0, 43, 0
2, 89490, Note_on_c, 0, 79, 67
2, 89490, Note_on_c, 0, 91, 70
2, 89494, Note_on_c, 0, 88, 0
2, 89567, Note_on_c, 0, 76, 0
2, 89588, Note_on_c, 0, 52, 63
2, 89588, Note_on_c, 0, 55, 62
2, 89588, Note_on_c, 0, 60, 64
2, 89617, Note_on_c, 0, 79, 0
2, 89617, Note_on_c, 0, 91, 0
2, 89690, Note_on_c, 0, 80, 69
2, 89694, Note_on_c, 0, 76, 72
2, 89698, Note_on_c, 0, 55, 0
2, 89698, Note_on_c, 0, 60, 0
2, 89702, Note_on_c, 0, 52, 0
2, 89721, Note_on_c, 0, 88, 73
2, 89773, Control_c, 0, 64, 127
2, 89793, Note_on_c, 0, 47, 64
2, 89804, Control_c, 0, 64, 0
2, 89820, Note_on_c, 0, 88, 0
2, 89847, Note_on_c, 0, 76, 0
2, 89870, Note_on_c, 0, 80, 0
2, 89870, Note_on_c, 0, 47, 0
2, 89891, Note_on_c, 0, 87, 68
2, 89891, Note_on_c, 0, 75, 70
2, 89993, Note_on_c, 0, 75, 0
2, 89993, Note_on_c, 0, 52, 63
2, 89997, Note_on_c, 0, 80, 63
2, 89997, Note_on_c, 0, 56, 59
2, 89997, Note_on_c, 0, 62, 63
2, 89997, Note_on_c, 0, 76, 63
2, 90001, Note_on_c, 0, 87, 0
2, 90001, Note_on_c, 0, 88, 63
2, 90076, Note_on_c, 0, 56, 0
2, 90080, Note_on_c, 0, 80, 0
2, 90080, Note_on_c, 0, 88, 0
2, 90105, Note_on_c, 0, 52, 0
2, 90105, Note_on_c, 0, 76, 0
2, 90109, Note_on_c, 0, 62, 0
2, 90196, Note_on_c, 0, 80, 70
2, 90203, Note_on_c, 0, 40, 64
2, 90207, Note_on_c, 0, 77, 67
2, 90236, Note_on_c, 0, 89, 73
2, 90282, Note_on_c, 0, 89, 0
2, 90282, Note_on_c, 0, 77, 0
2, 90282, Note_on_c, 0, 80, 0
2, 90286, Note_on_c, 0, 40, 0
2, 90402, Note_on_c, 0, 80, 66
2, 90402, Note_on_c, 0, 52, 63
2, 90402, Note_on_c, 0, 56, 60
2, 90406, Note_on_c, 0, 62, 65
2, 90406, Note_on_c, 0, 88, 67
2, 90410, Note_on_c, 0, 76, 68
2, 90504, Note_on_c, 0, 81, 66
2, 90510, Note_on_c, 0, 88, 0
2, 90510, Note_on_c, 0, 56, 0
2, 90510, Note_on_c, 0, 52, 0
2, 90514, Note_on_c, 0, 62, 0
2, 90514, Note_on_c, 0, 80, 0
2, 90514, Note_on_c, 0, 72, 67
2, 90606, Control_c, 0, 64, 127
2, 90612, Note_on_c, 0, 45, 64
2, 90643, Note_on_c, 0, 76, 0
2, 90652, Control_c, 0, 64, 0
2, 90687, Note_on_c, 0, 72, 0
2, 90718, Note_on_c, 0, 81, 0
2, 90718, Note_on_c, 0, 83, 68
2, 90718, Note_on_c, 0, 71, 66
2, 90741, Note_on_c, 0, 45, 0
2, 90812, Note_on_c, 0, 81, 66
2, 90812, Note_on_c, 0, 52, 68
2, 90812, Note_on_c, 0, 57, 67
2, 90818, Note_on_c, 0, 83, 0
2, 90818, Note_on_c, 0, 60, 67
2, 90824, Note_on_c, 0, 71, 0
2, 90824, Note_on_c, 0, 72, 67
2, 90824, Note_on_c, 0, 84, 63
2, 90891, Note_on_c, 0, 84, 0
2, 90891, Note_on_c, 0, 81, 0
2, 90945, Note_on_c, 0, 57, 0
2, 90945, Note_on_c, 0, 72, 0
2, 90951, Note_on_c, 0, 60, 0
2, 90955, Note_on_c, 0, 52, 0
2, 91013, Note_on_c, 0, 55, 63
2, 91022, Note_on_c, 0, 72, 67
2, 91022, Note_on_c, 0, 82, 63
2, 91026, Note_on_c, 0, 84, 62
2, 91026, Note_on_c, 0, 43, 63
2, 91026, Note_on_c, 0, 76, 61
2, 91042, Note_on_c, 0, 72, 0
2, 91045, Note_on_c, 0, 84, 0
2, 91045, Note_on_c, 0, 82, 0
2, 91049, Note_on_c, 0, 76, 0
2, 91119, Note_on_c, 0, 52, 63
2, 91119, Note_on_c, 0, 76, 62
2, 91119, Note_on_c, 0, 40, 61
2, 91126, Note_on_c, 0, 43, 0
2, 91126, Note_on_c, 0, 55, 0
2, 91126, Note_on_c, 0, 84, 60
2, 91126, Note_on_c, 0, 72, 62
2, 91151, Note_on_c, 0, 82, 71
2, 91200, Note_on_c, 0, 84, 0
2, 91219, Note_on_c, 0, 48, 66
2, 91223, Note_on_c, 0, 72, 0
2, 91228, Note_on_c, 0, 40, 0
2, 91228, Note_on_c, 0, 36, 59
2, 91232, Note_on_c, 0, 52, 0
2, 91319, Note_on_c, 0, 52, 67
2, 91323, Note_on_c, 0, 81, 64
2, 91331, Note_on_c, 0, 82, 0
2, 91334, Note_on_c, 0, 72, 64
2, 91338, Note_on_c, 0, 77, 62
2, 91356, Note_on_c, 0, 40, 60
2, 91359, Note_on_c, 0, 36, 0
2, 91359, Note_on_c, 0, 48, 0
2, 91413, Note_on_c, 0, 76, 0
2, 91427, Note_on_c, 0, 53, 63
2, 91433, Note_on_c, 0, 40, 0
2, 91433, Note_on_c, 0, 84, 71
2, 91433, Note_on_c, 0, 41, 62
2, 91438, Note_on_c, 0, 52, 0
2, 91535, Note_on_c, 0, 53, 0
2, 91535, Note_on_c, 0, 41, 0
2, 91631, Note_on_c, 0, 57, 63
2, 91635, Note_on_c, 0, 60, 66
2, 91735, Note_on_c, 0, 60, 0
2, 91735, Note_on_c, 0, 57, 0
2, 91814, Note_on_c, 0, 77, 0
2, 91814, Note_on_c, 0, 81, 0
2, 91814, Note_on_c, 0, 84, 0
2, 91833, Note_on_c, 0, 48, 67
2, 91841, Note_on_c, 0, 72, 0
2, 91841, Note_on_c, 0, 36, 61
2, 91931, Note_on_c, 0, 81, 75
2, 91962, Note_on_c, 0, 69, 73
2, 91972, Note_on_c, 0, 36, 0
2, 91972, Note_on_c, 0, 48, 0
2, 92041, Note_on_c, 0, 57, 64
2, 92041, Note_on_c, 0, 60, 66
2, 92045, Note_on_c, 0, 81, 0
2, 92045, Note_on_c, 0, 69, 0
2, 92045, Note_on_c, 0, 72, 70
2, 92045, Note_on_c, 0, 84, 67
2, 92118, Note_on_c, 0, 84, 0
2, 92118, Note_on_c, 0, 57, 0
2, 92145, Note_on_c, 0, 72, 0
2, 92145, Note_on_c, 0, 77, 68
2, 92149, Note_on_c, 0, 60, 0
2, 92149, Note_on_c, 0, 89, 69
2, 92172, Note_on_c, 0, 89, 0
2, 92193, Control_c, 0, 64, 127
2, 92243, Control_c, 0, 64, 0
2, 92243, Note_on_c, 0, 53, 64
2, 92243, Note_on_c, 0, 81, 62
2, 92249, Note_on_c, 0, 77, 0
2, 92249, Note_on_c, 0, 41, 62
2, 92255, Note_on_c, 0, 84, 60
2, 92255, Note_on_c, 0, 93, 64
2, 92255, Note_on_c, 0, 89, 57
2, 92334, Note_on_c, 0, 89, 0
2, 92334, Note_on_c, 0, 93, 0
2, 92355, Note_on_c, 0, 41, 0
2, 92355, Note_on_c, 0, 53, 0
2, 92355, Note_on_c, 0, 81, 0
2, 92355, Note_on_c, 0, 84, 0
2, 92455, Note_on_c, 0, 60, 65
2, 92455, Note_on_c, 0, 81, 60
2, 92455, Note_on_c, 0, 57, 63
2, 92459, Note_on_c, 0, 65, 55
2, 92463, Note_on_c, 0, 93, 65
2, 92466, Note_on_c, 0, 89, 61
2, 92466, Note_on_c, 0, 84, 59
2, 92534, Note_on_c, 0, 84, 0
2, 92534, Note_on_c, 0, 81, 0
2, 92534, Note_on_c, 0, 60, 0
2, 92534, Note_on_c, 0, 57, 0
2, 92538, Note_on_c, 0, 89, 0
2, 92545, Note_on_c, 0, 93, 0
2, 92588, Note_on_c, 0, 65, 0
2, 92655, Note_on_c, 0, 53, 66
2, 92655, Note_on_c, 0, 81, 64
2, 92661, Note_on_c, 0, 41, 63
2, 92661, Note_on_c, 0, 84, 64
2, 92661, Note_on_c, 0, 93, 70
2, 92661, Note_on_c, 0, 89, 66
2, 92738, Note_on_c, 0, 84, 0
2, 92738, Note_on_c, 0, 81, 0
2, 92738, Note_on_c, 0, 53, 0
2, 92742, Note_on_c, 0, 89, 0
2, 92751, Note_on_c, 0, 93, 0
2, 92767, Note_on_c, 0, 41, 0
2, 92865, Note_on_c, 0, 42, 60
2, 92865, Note_on_c, 0, 80, 66
2, 92865, Note_on_c, 0, 84, 68
2, 92865, Note_on_c, 0, 87, 66
2, 92865, Note_on_c, 0, 54, 63
2, 92894, Note_on_c, 0, 92, 77
2, 92949, Note_on_c, 0, 92, 0
2, 92949, Note_on_c, 0, 80, 0
2, 92949, Note_on_c, 0, 87, 0
2, 92969, Note_on_c, 0, 42, 0
2, 92969, Note_on_c, 0, 54, 0
2, 92969, Note_on_c, 0, 84, 0
2, 93065, Note_on_c, 0, 55, 63
2, 93071, Note_on_c, 0, 79, 67
2, 93076, Note_on_c, 0, 84, 67
2, 93076, Note_on_c, 0, 43, 62
2, 93101, Note_on_c, 0, 91, 68
2, 93101, Note_on_c, 0, 88, 69
2, 93124, Control_c, 0, 64, 127
2, 93167, Control_c, 0, 64, 0
2, 93178, Note_on_c, 0, 55, 0
2, 93201, Note_on_c, 0, 43, 0
2, 93274, Note_on_c, 0, 55, 66
2, 93282, Note_on_c, 0, 88, 0
2, 93282, Note_on_c, 0, 60, 67
2, 93282, Note_on_c, 0, 64, 64
2, 93332, Note_on_c, 0, 84, 0
2, 93332, Note_on_c, 0, 79, 0
2, 93332, Note_on_c, 0, 91, 0
2, 93384, Note_on_c, 0, 60, 0
2, 93384, Note_on_c, 0, 76, 70
2, 93384, Note_on_c, 0, 88, 71
2, 93409, Note_on_c, 0, 64, 0
2, 93409, Note_on_c, 0, 55, 0
2, 93482, Note_on_c, 0, 57, 64
2, 93482, Note_on_c, 0, 72, 72
2, 93482, Note_on_c, 0, 45, 63
2, 93488, Note_on_c, 0, 88, 0
2, 93586, Note_on_c, 0, 57, 0
2, 93586, Note_on_c, 0, 74, 68
2, 93590, Note_on_c, 0, 45, 0
2, 93590, Note_on_c, 0, 72, 0
2, 93594, Note_on_c, 0, 76, 0
2, 93594, Note_on_c, 0, 86, 66
2, 93690, Note_on_c, 0, 57, 63
2, 93690, Note_on_c, 0, 60, 63
2, 93694, Note_on_c, 0, 86, 0
2, 93694, Note_on_c, 0, 88, 67
2, 93694, Note_on_c, 0, 76, 65
2, 93694, Note_on_c, 0, 64, 62
2, 93699, Note_on_c, 0, 74, 0
2, 93794, Note_on_c, 0, 88, 0
2, 93794, Note_on_c, 0, 57, 0
2, 93799, Note_on_c, 0, 60, 0
2, 93799, Note_on_c, 0, 76, 0
2, 93822, Note_on_c, 0, 64, 0
2, 93849, Control_c, 0, 64, 127
2, 93890, Note_on_c, 0, 78, 63
2, 93890, Note_on_c, 0, 62, 67
2, 93890, Control_c, 0, 64, 0
2, 93890, Note_on_c, 0, 50, 61
2, 93899, Note_on_c, 0, 72, 67
2, 93899, Note_on_c, 0, 84, 65
2, 93990, Note_on_c, 0, 60, 64
2, 93990, Note_on_c, 0, 48, 65
2, 93999, Note_on_c, 0, 50, 0
2, 93999, Note_on_c, 0, 62, 0
2, 94090, Note_on_c, 0, 57, 62
2, 94099, Note_on_c, 0, 60, 0
2, 94099, Note_on_c, 0, 45, 62
2, 94124, Note_on_c, 0, 48, 0
2, 94190, Note_on_c, 0, 56, 61
2, 94195, Note_on_c, 0, 84, 0
2, 94195, Note_on_c, 0, 57, 0
2, 94199, Note_on_c, 0, 78, 0
2, 94199, Note_on_c, 0, 45, 0
2, 94199, Note_on_c, 0, 44, 62
2, 94243, Note_on_c, 0, 72, 0
2, 94293, Note_on_c, 0, 56, 0
2, 94293, Note_on_c, 0, 55, 62
2, 94299, Note_on_c, 0, 44, 0
2, 94299, Note_on_c, 0, 74, 61
2, 94299, Note_on_c, 0, 43, 62
2, 94303, Note_on_c, 0, 83, 62
2, 94307, Note_on_c, 0, 77, 59
2, 94307, Note_on_c, 0, 86, 58
2, 94320, Note_on_c, 0, 77, 0
2, 94320, Note_on_c, 0, 83, 0
2, 94320, Note_on_c, 0, 74, 0
2, 94326, Note_on_c, 0, 86, 0
2, 94393, Note_on_c, 0, 74, 60
2, 94397, Note_on_c, 0, 83, 48
2, 94397, Note_on_c, 0, 77, 50
2, 94397, Note_on_c, 0, 86, 45
2, 94551, Note_on_c, 0, 86, 0
2, 94551, Note_on_c, 0, 83, 0
2, 94551, Note_on_c, 0, 74, 0
2, 94551, Note_on_c, 0, 77, 0
2, 94601, Note_on_c, 0, 52, 63
2, 94605, Note_on_c, 0, 43, 0
2, 94605, Note_on_c, 0, 40, 61
2, 94605, Note_on_c, 0, 84, 62
2, 94605, Note_on_c, 0, 79, 58
2, 94610, Note_on_c, 0, 72, 65
2, 94610, Note_on_c, 0, 76, 63
2, 94624, Control_c, 0, 64, 127
2, 94632, Note_on_c, 0, 55, 0
2, 94674, Control_c, 0, 64, 0
2, 94701, Note_on_c, 0, 48, 63
2, 94705, Note_on_c, 0, 60, 63
2, 94708, Note_on_c, 0, 40, 0
2, 94714, Note_on_c, 0, 52, 0
2, 94783, Note_on_c, 0, 84, 0
2, 94787, Note_on_c, 0, 79, 0
2, 94803, Note_on_c, 0, 52, 64
2, 94808, Note_on_c, 0, 72, 0
2, 94812, Note_on_c, 0, 76, 0
2, 94812, Note_on_c, 0, 60, 0
2, 94812, Note_on_c, 0, 48, 0
2, 94812, Note_on_c, 0, 64, 63
2, 94904, Note_on_c, 0, 55, 65
2, 94904, Note_on_c, 0, 67, 70
2, 94937, Note_on_c, 0, 64, 0
2, 94941, Note_on_c, 0, 52, 0
2, 95006, Note_on_c, 0, 69, 71
2, 95006, Note_on_c, 0, 57, 65
2, 95012, Note_on_c, 0, 67, 0
2, 95016, Note_on_c, 0, 55, 0
2, 95112, Note_on_c, 0, 71, 70
2, 95112, Note_on_c, 0, 59, 66
2, 95118, Note_on_c, 0, 69, 0
2, 95118, Note_on_c, 0, 57, 0
2, 95214, Note_on_c, 0, 60, 67
2, 95219, Note_on_c, 0, 59, 0
2, 95219, Note_on_c, 0, 72, 73
2, 95227, Note_on_c, 0, 71, 0
2, 95315, Note_on_c, 0, 74, 73
2, 95315, Note_on_c, 0, 62, 68
2, 95321, Note_on_c, 0, 72, 0
2, 95325, Note_on_c, 0, 60, 0
2, 95421, Note_on_c, 0, 64, 66
2, 95421, Note_on_c, 0, 76, 71
2, 95427, Note_on_c, 0, 74, 0
2, 95427, Note_on_c, 0, 62, 0
2, 95519, Note_on_c, 0, 55, 65
2, 95525, Note_on_c, 0, 74, 66
2, 95525, Note_on_c, 0, 67, 63
2, 95530, Note_on_c, 0, 76, 0
2, 95530, Note_on_c, 0, 71, 63
2, 95553, Note_on_c, 0, 64, 0
2, 95619, Note_on_c, 0, 66, 70
2, 95626, Note_on_c, 0, 67, 0
2, 95626, Note_on_c, 0, 55, 0
2, 95626, Note_on_c, 0, 54, 63
2, 95719, Note_on_c, 0, 65, 69
2, 95722, Note_on_c, 0, 53, 67
2, 95732, Note_on_c, 0, 54, 0
2, 95732, Note_on_c, 0, 66, 0
2, 95805, Note_on_c, 0, 53, 0
2, 95811, Note_on_c, 0, 74, 0
2, 95828, Note_on_c, 0, 52, 65
2, 95832, Note_on_c, 0, 64, 65
2, 95836, Note_on_c, 0, 65, 0
2, 95841, Note_on_c, 0, 71, 0
2, 95932, Note_on_c, 0, 50, 60
2, 95932, Note_on_c, 0, 62, 66
2, 95932, Note_on_c, 0, 67, 64
2, 95937, Note_on_c, 0, 79, 63
2, 95937, Note_on_c, 0, 71, 65
2, 95941, Note_on_c, 0, 52, 0
2, 95962, Note_on_c, 0, 64, 0
2, 96031, Note_on_c, 0, 48, 66
2, 96031, Note_on_c, 0, 60, 65
2, 96066, Note_on_c, 0, 62, 0
2, 96070, Note_on_c, 0, 50, 0
2, 96131, Note_on_c, 0, 59, 64
2, 96137, Note_on_c, 0, 47, 62
2, 96164, Note_on_c, 0, 48, 0
2, 96164, Note_on_c, 0, 60, 0
2, 96233, Note_on_c, 0, 47, 0
2, 96233, Note_on_c, 0, 57, 62
2, 96233, Note_on_c, 0, 45, 62
2, 96237, Note_on_c, 0, 59, 0
2, 96333, Note_on_c, 0, 55, 62
2, 96340, Note_on_c, 0, 57, 0
2, 96340, Note_on_c, 0, 67, 0
2, 96340, Note_on_c, 0, 45, 0
2, 96343, Note_on_c, 0, 79, 0
2, 96343, Note_on_c, 0, 43, 63
2, 96346, Note_on_c, 0, 71, 0
2, 96436, Note_on_c, 0, 74, 74
2, 96436, Note_on_c, 0, 62, 69
2, 96440, Note_on_c, 0, 43, 0
2, 96440, Note_on_c, 0, 55, 0
2, 96521, Note_on_c, 0, 74, 0
2, 96521, Note_on_c, 0, 62, 0
2, 96538, Note_on_c, 0, 56, 62
2, 96538, Note_on_c, 0, 71, 69
2, 96542, Note_on_c, 0, 83, 70
2, 96546, Note_on_c, 0, 44, 62
2, 96640, Note_on_c, 0, 44, 0
2, 96640, Note_on_c, 0, 83, 0
2, 96640, Note_on_c, 0, 56, 0
2, 96640, Note_on_c, 0, 62, 68
2, 96640, Note_on_c, 0, 74, 71
2, 96649, Note_on_c, 0, 71, 0
2, 96718, Note_on_c, 0, 74, 0
2, 96734, Note_on_c, 0, 65, 67
2, 96734, Note_on_c, 0, 57, 63
2, 96743, Note_on_c, 0, 45, 63
2, 96747, Note_on_c, 0, 62, 0
2, 96747, Note_on_c, 0, 77, 68
2, 96841, Note_on_c, 0, 81, 69
2, 96841, Note_on_c, 0, 69, 67
2, 96845, Note_on_c, 0, 77, 0
2, 96845, Note_on_c, 0, 45, 0
2, 96845, Note_on_c, 0, 57, 0
2, 96876, Note_on_c, 0, 65, 0
2, 96939, Note_on_c, 0, 59, 66
2, 96950, Note_on_c, 0, 81, 0
2, 96950, Note_on_c, 0, 69, 0
2, 96950, Note_on_c, 0, 67, 66
2, 96950, Note_on_c, 0, 79, 64
2, 96950, Note_on_c, 0, 47, 62
2, 97025, Note_on_c, 0, 47, 0
2, 97025, Note_on_c, 0, 59, 0
2, 97025, Note_on_c, 0, 67, 0
2, 97025, Note_on_c, 0, 79, 0
2, 97041, Note_on_c, 0, 65, 67
2, 97052, Note_on_c, 0, 77, 69
2, 97146, Note_on_c, 0, 77, 0
2, 97146, Note_on_c, 0, 48, 64
2, 97146, Note_on_c, 0, 76, 69
2, 97146, Note_on_c, 0, 60, 64
2, 97146, Note_on_c, 0, 64, 63
2, 97152, Note_on_c, 0, 65, 0
2, 97167, Control_c, 0, 64, 127
2, 97217, Control_c, 0, 64, 0
2, 97244, Note_on_c, 0, 63, 64
2, 97244, Note_on_c, 0, 75, 71
2, 97253, Note_on_c, 0, 60, 0
2, 97253, Note_on_c, 0, 48, 0
2, 97253, Note_on_c, 0, 76, 0
2, 97276, Note_on_c, 0, 64, 0
2, 97324, Note_on_c, 0, 75, 0
2, 97349, Note_on_c, 0, 63, 0
2, 97349, Note_on_c, 0, 60, 64
2, 97349, Note_on_c, 0, 55, 61
2, 97349, Note_on_c, 0, 76, 71
2, 97355, Note_on_c, 0, 64, 63
2, 97451, Note_on_c, 0, 67, 67
2, 97451, Note_on_c, 0, 79, 66
2, 97457, Note_on_c, 0, 60, 0
2, 97462, Note_on_c, 0, 76, 0
2, 97482, Note_on_c, 0, 64, 0
2, 97482, Note_on_c, 0, 55, 0
2, 97543, Note_on_c, 0, 52, 67
2, 97658, Note_on_c, 0, 52, 0
2, 97748, Note_on_c, 0, 55, 62
2, 97748, Note_on_c, 0, 60, 64
2, 97752, Note_on_c, 0, 64, 63
2, 97859, Note_on_c, 0, 64, 0
2, 97859, Note_on_c, 0, 67, 0
2, 97859, Note_on_c, 0, 60, 0
2, 97886, Note_on_c, 0, 55, 0
2, 97913, Note_on_c, 0, 79, 0
2, 97951, Control_c, 0, 64, 127
2, 97957, Note_on_c, 0, 60, 64
2, 97957, Note_on_c, 0, 63, 63
2, 97957, Note_on_c, 0, 57, 60
2, 97961, Note_on_c, 0, 72, 73
2, 97967, Note_on_c, 0, 54, 57
2, 97999, Control_c, 0, 64, 0
2, 98055, Note_on_c, 0, 75, 72
2, 98066, Note_on_c, 0, 72, 0
2, 98137, Note_on_c, 0, 75, 0
2, 98158, Note_on_c, 0, 66, 73
2, 98158, Note_on_c, 0, 78, 70
2, 98264, Note_on_c, 0, 81, 67
2, 98269, Note_on_c, 0, 66, 0
2, 98269, Note_on_c, 0, 69, 66
2, 98275, Note_on_c, 0, 78, 0
2, 98292, Note_on_c, 0, 57, 0
2, 98292, Note_on_c, 0, 54, 0
2, 98298, Note_on_c, 0, 60, 0
2, 98319, Note_on_c, 0, 63, 0
2, 98344, Note_on_c, 0, 69, 0
2, 98344, Note_on_c, 0, 81, 0
2, 98363, Note_on_c, 0, 55, 61
2, 98363, Note_on_c, 0, 67, 68
2, 98363, Note_on_c, 0, 60, 60
2, 98363, Note_on_c, 0, 79, 67
2, 98371, Note_on_c, 0, 64, 61
2, 98390, Note_on_c, 0, 64, 0
2, 98465, Note_on_c, 0, 64, 63
2, 98465, Note_on_c, 0, 76, 70
2, 98472, Note_on_c, 0, 67, 0
2, 98472, Note_on_c, 0, 79, 0
2, 98568, Note_on_c, 0, 79, 66
2, 98568, Note_on_c, 0, 67, 66
2, 98576, Note_on_c, 0, 76, 0
2, 98597, Note_on_c, 0, 60, 0
2, 98622, Note_on_c, 0, 55, 0
2, 98647, Note_on_c, 0, 64, 0
2, 98674, Note_on_c, 0, 67, 0
2, 98679, Note_on_c, 0, 79, 0
2, 98679, Note_on_c, 0, 72, 68
2, 98679, Note_on_c, 0, 84, 67
2, 98697, Note_on_c, 0, 84, 0
2, 98697, Note_on_c, 0, 72, 0
2, 98771, Note_on_c, 0, 50, 61
2, 98771, Note_on_c, 0, 62, 67
2, 98779, Note_on_c, 0, 74, 60
2, 98783, Note_on_c, 0, 72, 56
2, 98783, Note_on_c, 0, 84, 53
2, 98790, Note_on_c, 0, 77, 60
2, 98875, Note_on_c, 0, 77, 0
2, 98875, Note_on_c, 0, 72, 0
2, 98875, Note_on_c, 0, 84, 0
2, 98882, Note_on_c, 0, 50, 0
2, 98882, Note_on_c, 0, 74, 0
2, 98882, Note_on_c, 0, 62, 0
2, 98972, Note_on_c, 0, 59, 64
2, 98972, Note_on_c, 0, 55, 63
2, 98976, Note_on_c, 0, 65, 55
2, 98980, Note_on_c, 0, 74, 60
2, 98988, Note_on_c, 0, 71, 52
2, 98988, Note_on_c, 0, 83, 56
2, 98993, Note_on_c, 0, 77, 47
2, 99001, Note_on_c, 0, 74, 0
2, 99005, Note_on_c, 0, 83, 0
2, 99011, Note_on_c, 0, 71, 0
2, 99016, Note_on_c, 0, 77, 0
2, 99085, Note_on_c, 0, 59, 0
2, 99085, Note_on_c, 0, 55, 0
2, 99085, Note_on_c, 0, 74, 54
2, 99085, Note_on_c, 0, 77, 55
2, 99085, Note_on_c, 0, 71, 53
2, 99089, Note_on_c, 0, 65, 0
2, 99089, Note_on_c, 0, 83, 46
2, 99181, Note_on_c, 0, 55, 66
2, 99189, Note_on_c, 0, 77, 0
2, 99189, Note_on_c, 0, 43, 63
2, 99193, Note_on_c, 0, 74, 0
2, 99214, Note_on_c, 0, 83, 0
2, 99246, Note_on_c, 0, 71, 0
2, 99284, Note_on_c, 0, 74, 68
2, 99290, Note_on_c, 0, 55, 0
2, 99290, Note_on_c, 0, 43, 0
2, 99290, Note_on_c, 0, 70, 67
2, 99298, Note_on_c, 0, 77, 63
2, 99311, Note_on_c, 0, 77, 0
2, 99315, Note_on_c, 0, 74, 0
2, 99315, Note_on_c, 0, 82, 70
2, 99382, Note_on_c, 0, 55, 65
2, 99382, Note_on_c, 0, 59, 66
2, 99386, Note_on_c, 0, 65, 61
2, 99386, Note_on_c, 0, 74, 63
2, 99390, Note_on_c, 0, 70, 0
2, 99390, Note_on_c, 0, 77, 52
2, 99415, Note_on_c, 0, 82, 0
2, 99424, Note_on_c, 0, 83, 67
2, 99424, Note_on_c, 0, 71, 64
2, 99489, Note_on_c, 0, 83, 0
2, 99489, Note_on_c, 0, 65, 0
2, 99489, Note_on_c, 0, 59, 0
2, 99493, Note_on_c, 0, 74, 0
2, 99493, Note_on_c, 0, 77, 0
2, 99497, Note_on_c, 0, 55, 0
2, 99497, Note_on_c, 0, 71, 0
2, 99583, Note_on_c, 0, 59, 65
2, 99583, Note_on_c, 0, 65, 62
2, 99589, Control_c, 0, 64, 127
2, 99589, Note_on_c, 0, 74, 66
2, 99589, Note_on_c, 0, 47, 62
2, 99600, Note_on_c, 0, 77, 59
2, 99633, Control_c, 0, 64, 0
2, 99671, Note_on_c, 0, 47, 0
2, 99671, Note_on_c, 0, 59, 0
2, 99671, Note_on_c, 0, 46, 63
2, 99692, Note_on_c, 0, 58, 64
2, 99788, Note_on_c, 0, 57, 62
2, 99792, Note_on_c, 0, 45, 61
2, 99796, Note_on_c, 0, 58, 0
2, 99796, Note_on_c, 0, 46, 0
2, 99870, Note_on_c, 0, 57, 0
2, 99889, Note_on_c, 0, 56, 61
2, 99901, Note_on_c, 0, 45, 0
2, 99901, Note_on_c, 0, 44, 62
2, 99995, Note_on_c, 0, 55, 63
2, 99998, Note_on_c, 0, 44, 0
2, 99998, Note_on_c, 0, 56, 0
2, 100004, Note_on_c, 0, 74, 0
2, 100004, Note_on_c, 0, 43, 62
2, 100079, Note_on_c, 0, 65, 0
2, 100098, Note_on_c, 0, 74, 74
2, 100102, Note_on_c, 0, 77, 0
2, 100102, Note_on_c, 0, 43, 0
2, 100102, Note_on_c, 0, 55, 0
2, 100182, Note_on_c, 0, 74, 0
2, 100190, Note_on_c, 0, 55, 67
2, 100194, Note_on_c, 0, 65, 68
2, 100197, Note_on_c, 0, 59, 66
2, 100205, Note_on_c, 0, 77, 68
2, 100308, Note_on_c, 0, 77, 0
2, 100308, Note_on_c, 0, 59, 0
2, 100308, Note_on_c, 0, 55, 0
2, 100312, Note_on_c, 0, 83, 69
2, 100312, Note_on_c, 0, 71, 67
2, 100331, Note_on_c, 0, 83, 0
2, 100339, Note_on_c, 0, 65, 0
2, 100406, Note_on_c, 0, 60, 66
2, 100406, Note_on_c, 0, 48, 66
2, 100414, Note_on_c, 0, 83, 57
2, 100414, Note_on_c, 0, 72, 66
2, 100417, Note_on_c, 0, 71, 0
2, 100417, Note_on_c, 0, 76, 64
2, 100488, Note_on_c, 0, 83, 0
2, 100513, Note_on_c, 0, 72, 0
2, 100513, Note_on_c, 0, 48, 0
2, 100517, Note_on_c, 0, 60, 0
2, 100517, Note_on_c, 0, 76, 0
2, 100611, Note_on_c, 0, 60, 66
2, 100611, Note_on_c, 0, 81, 61
2, 100611, Note_on_c, 0, 55, 62
2, 100616, Note_on_c, 0, 69, 59
2, 100616, Note_on_c, 0, 64, 61
2, 100616, Note_on_c, 0, 76, 60
2, 100624, Note_on_c, 0, 72, 58
2, 100634, Note_on_c, 0, 69, 0
2, 100634, Note_on_c, 0, 81, 0
2, 100637, Note_on_c, 0, 76, 0
2, 100643, Note_on_c, 0, 72, 0
2, 100710, Note_on_c, 0, 81, 59
2, 100710, Note_on_c, 0, 69, 55
2, 100710, Note_on_c, 0, 72, 56
2, 100714, Note_on_c, 0, 60, 0
2, 100714, Note_on_c, 0, 64, 0
2, 100714, Note_on_c, 0, 55, 0
2, 100714, Note_on_c, 0, 76, 58
2, 100790, Note_on_c, 0, 69, 0
2, 100804, Note_on_c, 0, 55, 67
2, 100815, Note_on_c, 0, 81, 0
2, 100815, Note_on_c, 0, 72, 0
2, 100815, Note_on_c, 0, 43, 63
2, 100821, Note_on_c, 0, 76, 0
2, 100917, Note_on_c, 0, 68, 63
2, 100922, Note_on_c, 0, 43, 0
2, 100922, Note_on_c, 0, 55, 0
2, 100922, Note_on_c, 0, 80, 61
2, 100928, Note_on_c, 0, 76, 63
2, 100928, Note_on_c, 0, 72, 65
2, 100947, Note_on_c, 0, 72, 0
2, 100947, Note_on_c, 0, 76, 0
2, 101014, Note_on_c, 0, 55, 63
2, 101014, Note_on_c, 0, 81, 60
2, 101022, Note_on_c, 0, 68, 0
2, 101022, Note_on_c, 0, 64, 62
2, 101022, Note_on_c, 0, 69, 58
2, 101025, Note_on_c, 0, 80, 0
2, 101025, Note_on_c, 0, 60, 64
2, 101025, Note_on_c, 0, 72, 53
2, 101028, Note_on_c, 0, 76, 55
2, 101094, Note_on_c, 0, 64, 0
2, 101094, Note_on_c, 0, 69, 0
2, 101094, Note_on_c, 0, 81, 0
2, 101098, Note_on_c, 0, 60, 0
2, 101098, Note_on_c, 0, 76, 0
2, 101119, Note_on_c, 0, 72, 0
2, 101123, Note_on_c, 0, 55, 0
2, 101215, Note_on_c, 0, 60, 65
2, 101219, Note_on_c, 0, 48, 64
2, 101219, Note_on_c, 0, 76, 70
2, 101219, Note_on_c, 0, 64, 63
2, 101219, Note_on_c, 0, 72, 70
2, 101320, Note_on_c, 0, 59, 63
2, 101324, Note_on_c, 0, 60, 0
2, 101324, Note_on_c, 0, 47, 61
2, 101330, Note_on_c, 0, 48, 0
2, 101427, Note_on_c, 0, 47, 0
2, 101427, Note_on_c, 0, 57, 64
2, 101431, Note_on_c, 0, 59, 0
2, 101460, Note_on_c, 0, 45, 63
2, 101530, Note_on_c, 0, 56, 60
2, 101534, Note_on_c, 0, 57, 0
2, 101538, Note_on_c, 0, 45, 0
2, 101538, Note_on_c, 0, 44, 62
2, 101635, Note_on_c, 0, 56, 0
2, 101635, Note_on_c, 0, 55, 62
2, 101639, Note_on_c, 0, 44, 0
2, 101639, Note_on_c, 0, 43, 62
2, 101710, Note_on_c, 0, 72, 0
2, 101714, Note_on_c, 0, 76, 0
2, 101731, Note_on_c, 0, 67, 72
2, 101739, Note_on_c, 0, 64, 0
2, 101840, Note_on_c, 0, 67, 0
2, 101840, Note_on_c, 0, 43, 0
2, 101840, Note_on_c, 0, 72, 74
2, 101843, Note_on_c, 0, 55, 0
2, 101843, Note_on_c, 0, 60, 67
2, 101941, Note_on_c, 0, 72, 0
2, 101941, Note_on_c, 0, 64, 67
2, 101941, Note_on_c, 0, 76, 73
2, 101947, Note_on_c, 0, 60, 0
2, 102041, Note_on_c, 0, 55, 65
2, 102046, Note_on_c, 0, 67, 64
2, 102046, Note_on_c, 0, 74, 67
2, 102050, Note_on_c, 0, 76, 0
2, 102050, Note_on_c, 0, 71, 63
2, 102073, Note_on_c, 0, 64, 0
2, 102140, Note_on_c, 0, 66, 70
2, 102144, Note_on_c, 0, 67, 0
2, 102144, Note_on_c, 0, 54, 64
2, 102148, Note_on_c, 0, 55, 0
2, 102241, Note_on_c, 0, 65, 70
2, 102249, Note_on_c, 0, 66, 0
2, 102249, Note_on_c, 0, 54, 0
2, 102268, Note_on_c, 0, 53, 67
2, 102350, Note_on_c, 0, 52, 63
2, 102350, Note_on_c, 0, 64, 65
2, 102354, Note_on_c, 0, 53, 0
2, 102360, Note_on_c, 0, 71, 0
2, 102405, Note_on_c, 0, 65, 0
2, 102453, Note_on_c, 0, 50, 60
2, 102453, Note_on_c, 0, 62, 66
2, 102453, Note_on_c, 0, 67, 62
2, 102461, Note_on_c, 0, 52, 0
2, 102461, Note_on_c, 0, 74, 0
2, 102461, Note_on_c, 0, 79, 61
2, 102464, Note_on_c, 0, 71, 63
2, 102480, Note_on_c, 0, 64, 0
2, 102526, Note_on_c, 0, 48, 67
2, 102554, Note_on_c, 0, 60, 65
2, 102564, Note_on_c, 0, 62, 0
2, 102570, Note_on_c, 0, 50, 0
2, 102661, Note_on_c, 0, 48, 0
2, 102661, Note_on_c, 0, 59, 63
2, 102661, Note_on_c, 0, 47, 62
2, 102665, Note_on_c, 0, 60, 0
2, 102761, Note_on_c, 0, 59, 0
2, 102761, Note_on_c, 0, 47, 0
2, 102761, Note_on_c, 0, 57, 63
2, 102761, Note_on_c, 0, 45, 62
2, 102862, Note_on_c, 0, 57, 0
2, 102862, Note_on_c, 0, 67, 0
2, 102862, Note_on_c, 0, 55, 63
2, 102866, Note_on_c, 0, 45, 0
2, 102871, Note_on_c, 0, 43, 62
2, 102917, Note_on_c, 0, 79, 0
2, 102923, Note_on_c, 0, 71, 0
2, 102959, Note_on_c, 0, 74, 75
2, 102959, Note_on_c, 0, 62, 69
2, 102963, Note_on_c, 0, 55, 0
2, 102963, Note_on_c, 0, 43, 0
2, 103038, Note_on_c, 0, 44, 62
2, 103043, Note_on_c, 0, 74, 0
2, 103047, Note_on_c, 0, 62, 0
2, 103062, Note_on_c, 0, 56, 63
2, 103066, Note_on_c, 0, 71, 69
2, 103066, Note_on_c, 0, 83, 70
2, 103167, Note_on_c, 0, 83, 0
2, 103167, Note_on_c, 0, 56, 0
2, 103167, Note_on_c, 0, 74, 72
2, 103167, Note_on_c, 0, 62, 69
2, 103171, Note_on_c, 0, 44, 0
2, 103175, Note_on_c, 0, 71, 0
2, 103248, Note_on_c, 0, 74, 0
2, 103265, Note_on_c, 0, 65, 67
2, 103265, Note_on_c, 0, 45, 63
2, 103269, Note_on_c, 0, 57, 63
2, 103276, Note_on_c, 0, 62, 0
2, 103276, Note_on_c, 0, 77, 69
2, 103366, Note_on_c, 0, 81, 72
2, 103372, Note_on_c, 0, 77, 0
2, 103372, Note_on_c, 0, 57, 0
2, 103372, Note_on_c, 0, 45, 0
2, 103393, Note_on_c, 0, 69, 71
2, 103400, Note_on_c, 0, 65, 0
2, 103469, Note_on_c, 0, 59, 66
2, 103469, Note_on_c, 0, 67, 66
2, 103473, Note_on_c, 0, 81, 0
2, 103473, Note_on_c, 0, 47, 62
2, 103477, Note_on_c, 0, 69, 0
2, 103477, Note_on_c, 0, 79, 65
2, 103543, Note_on_c, 0, 65, 70
2, 103549, Note_on_c, 0, 47, 0
2, 103549, Note_on_c, 0, 59, 0
2, 103553, Note_on_c, 0, 79, 0
2, 103576, Note_on_c, 0, 67, 0
2, 103582, Note_on_c, 0, 77, 71
2, 103652, Note_on_c, 0, 48, 67
2, 103683, Note_on_c, 0, 77, 0
2, 103683, Note_on_c, 0, 76, 70
2, 103683, Note_on_c, 0, 60, 64
2, 103683, Note_on_c, 0, 64, 63
2, 103713, Note_on_c, 0, 65, 0
2, 103782, Note_on_c, 0, 63, 66
2, 103788, Note_on_c, 0, 60, 0
2, 103788, Note_on_c, 0, 48, 0
2, 103788, Note_on_c, 0, 76, 0
2, 103809, Note_on_c, 0, 75, 74
2, 103814, Note_on_c, 0, 64, 0
2, 103885, Note_on_c, 0, 75, 0
2, 103885, Note_on_c, 0, 63, 0
2, 103885, Note_on_c, 0, 60, 65
2, 103885, Note_on_c, 0, 55, 61
2, 103885, Note_on_c, 0, 76, 71
2, 103893, Note_on_c, 0, 64, 64
2, 103967, Note_on_c, 0, 60, 0
2, 103992, Note_on_c, 0, 55, 0
2, 103992, Note_on_c, 0, 64, 0
2, 103992, Note_on_c, 0, 70, 66
2, 103992, Note_on_c, 0, 67, 63
2, 103992, Note_on_c, 0, 79, 63
2, 103998, Note_on_c, 0, 76, 0
2, 104089, Note_on_c, 0, 52, 67
2, 104150, Note_on_c, 0, 79, 0
2, 104150, Note_on_c, 0, 67, 0
2, 104196, Note_on_c, 0, 76, 74
2, 104196, Note_on_c, 0, 64, 67
2, 104202, Note_on_c, 0, 52, 0
2, 104255, Note_on_c, 0, 64, 0
2, 104295, Note_on_c, 0, 67, 68
2, 104295, Note_on_c, 0, 58, 64
2, 104299, Note_on_c, 0, 79, 67
2, 104299, Note_on_c, 0, 60, 65
2, 104305, Note_on_c, 0, 76, 0
2, 104305, Note_on_c, 0, 64, 50
2, 104400, Note_on_c, 0, 58, 0
2, 104400, Note_on_c, 0, 67, 0
2, 104406, Note_on_c, 0, 79, 0
2, 104406, Note_on_c, 0, 70, 0
2, 104406, Note_on_c, 0, 60, 0
2, 104431, Note_on_c, 0, 64, 0
2, 104495, Note_on_c, 0, 53, 67
2, 104495, Note_on_c, 0, 65, 64
2, 104501, Note_on_c, 0, 69, 67
2, 104509, Note_on_c, 0, 77, 66
2, 104608, Note_on_c, 0, 65, 0
2, 104608, Note_on_c, 0, 53, 0
2, 104694, Note_on_c, 0, 65, 71
2, 104703, Note_on_c, 0, 60, 67
2, 104703, Note_on_c, 0, 57, 63
2, 104833, Note_on_c, 0, 57, 0
2, 104833, Note_on_c, 0, 65, 0
2, 104833, Note_on_c, 0, 60, 0
2, 104900, Note_on_c, 0, 48, 69
2, 104909, Note_on_c, 0, 69, 0
2, 104999, Note_on_c, 0, 69, 72
2, 104999, Note_on_c, 0, 57, 67
2, 105010, Note_on_c, 0, 77, 0
2, 105029, Note_on_c, 0, 57, 0
2, 105037, Note_on_c, 0, 48, 0
2, 105100, Note_on_c, 0, 65, 67
2, 105100, Note_on_c, 0, 57, 63
2, 105109, Note_on_c, 0, 60, 67
2, 105115, Note_on_c, 0, 69, 0
2, 105115, Note_on_c, 0, 72, 70
2, 105134, Note_on_c, 0, 65, 0
2, 105207, Note_on_c, 0, 65, 67
2, 105212, Note_on_c, 0, 72, 0
2, 105212, Note_on_c, 0, 57, 0
2, 105216, Note_on_c, 0, 60, 0
2, 105216, Note_on_c, 0, 77, 69
2, 105233, Note_on_c, 0, 77, 0
2, 105285, Note_on_c, 0, 41, 63
2, 105306, Note_on_c, 0, 69, 67
2, 105306, Note_on_c, 0, 53, 67
2, 105313, Note_on_c, 0, 77, 58
2, 105317, Note_on_c, 0, 65, 0
2, 105340, Note_on_c, 0, 81, 67
2, 105340, Control_c, 0, 64, 127
2, 105346, Note_on_c, 0, 72, 70
2, 105376, Control_c, 0, 64, 0
2, 105393, Note_on_c, 0, 72, 0
2, 105393, Note_on_c, 0, 69, 0
2, 105393, Note_on_c, 0, 77, 0
2, 105393, Note_on_c, 0, 41, 0
2, 105393, Note_on_c, 0, 81, 0
2, 105393, Note_on_c, 0, 53, 0
2, 105521, Note_on_c, 0, 57, 69
2, 105521, Note_on_c, 0, 60, 70
2, 105521, Note_on_c, 0, 65, 61
2, 105524, Note_on_c, 0, 69, 63
2, 105524, Note_on_c, 0, 81, 63
2, 105533, Note_on_c, 0, 72, 63
2, 105538, Note_on_c, 0, 77, 60
2, 105624, Note_on_c, 0, 77, 0
2, 105624, Note_on_c, 0, 81, 0
2, 105624, Note_on_c, 0, 69, 0
2, 105624, Note_on_c, 0, 60, 0
2, 105624, Note_on_c, 0, 57, 0
2, 105624, Note_on_c, 0, 72, 0
2, 105679, Note_on_c, 0, 65, 0
2, 105719, Note_on_c, 0, 53, 66
2, 105719, Note_on_c, 0, 69, 62
2, 105719, Note_on_c, 0, 81, 62
2, 105723, Note_on_c, 0, 41, 63
2, 105733, Note_on_c, 0, 72, 63
2, 105733, Note_on_c, 0, 77, 60
2, 105826, Note_on_c, 0, 72, 0
2, 105826, Note_on_c, 0, 53, 0
2, 105830, Note_on_c, 0, 41, 0
2, 105830, Note_on_c, 0, 69, 0
2, 105830, Note_on_c, 0, 77, 0
2, 105830, Note_on_c, 0, 81, 0
2, 105929, Note_on_c, 0, 68, 62
2, 105933, Note_on_c, 0, 42, 60
2, 105933, Note_on_c, 0, 80, 61
2, 105933, Note_on_c, 0, 54, 62
2, 105940, Note_on_c, 0, 75, 63
2, 105940, Note_on_c, 0, 72, 64
2, 106039, Note_on_c, 0, 72, 0
2, 106039, Note_on_c, 0, 54, 0
2, 106039, Note_on_c, 0, 42, 0
2, 106039, Note_on_c, 0, 68, 0
2, 106039, Note_on_c, 0, 75, 0
2, 106043, Note_on_c, 0, 80, 0
2, 106133, Note_on_c, 0, 55, 63
2, 106133, Note_on_c, 0, 67, 59
2, 106142, Note_on_c, 0, 43, 62
2, 106142, Note_on_c, 0, 72, 63
2, 106142, Note_on_c, 0, 79, 58
2, 106142, Note_on_c, 0, 76, 62
2, 106239, Note_on_c, 0, 43, 0
2, 106239, Note_on_c, 0, 55, 0
2, 106342, Note_on_c, 0, 55, 61
2, 106342, Note_on_c, 0, 60, 63
2, 106348, Note_on_c, 0, 76, 0
2, 106348, Note_on_c, 0, 64, 61
2, 106367, Note_on_c, 0, 64, 0
2, 106371, Note_on_c, 0, 79, 0
2, 106392, Note_on_c, 0, 72, 0
2, 106443, Note_on_c, 0, 64, 60
2, 106443, Note_on_c, 0, 76, 71
2, 106447, Note_on_c, 0, 67, 0
2, 106451, Note_on_c, 0, 60, 0
2, 106470, Note_on_c, 0, 55, 0
2, 106544, Note_on_c, 0, 60, 67
2, 106544, Note_on_c, 0, 57, 62
2, 106548, Note_on_c, 0, 72, 74
2, 106548, Note_on_c, 0, 45, 61
2, 106554, Note_on_c, 0, 76, 0
2, 106575, Note_on_c, 0, 64, 0
2, 106647, Note_on_c, 0, 72, 0
2, 106647, Note_on_c, 0, 57, 0
2, 106647, Note_on_c, 0, 45, 0
2, 106647, Note_on_c, 0, 74, 73
2, 106647, Note_on_c, 0, 62, 68
2, 106651, Note_on_c, 0, 60, 0
2, 106744, Note_on_c, 0, 57, 63
2, 106744, Note_on_c, 0, 60, 66
2, 106750, Note_on_c, 0, 62, 0
2, 106750, Note_on_c, 0, 76, 73
2, 106750, Note_on_c, 0, 64, 62
2, 106778, Note_on_c, 0, 74, 0
2, 106853, Note_on_c, 0, 57, 0
2, 106856, Note_on_c, 0, 60, 0
2, 106879, Note_on_c, 0, 64, 0
2, 106879, Note_on_c, 0, 76, 0
2, 106946, Note_on_c, 0, 66, 69
2, 106946, Note_on_c, 0, 50, 62
2, 106946, Note_on_c, 0, 62, 69
2, 106955, Note_on_c, 0, 72, 71
2, 107058, Note_on_c, 0, 62, 0
2, 107062, Note_on_c, 0, 50, 0
2, 107150, Note_on_c, 0, 57, 66
2, 107150, Note_on_c, 0, 45, 63
2, 107231, Note_on_c, 0, 45, 0
2, 107231, Note_on_c, 0, 57, 0
2, 107355, Note_on_c, 0, 55, 63
2, 107355, Note_on_c, 0, 65, 61
2, 107361, Note_on_c, 0, 66, 0
2, 107361, Note_on_c, 0, 74, 66
2, 107361, Note_on_c, 0, 43, 62
2, 107365, Note_on_c, 0, 71, 62
2, 107384, Note_on_c, 0, 71, 0
2, 107384, Note_on_c, 0, 72, 0
2, 107384, Note_on_c, 0, 65, 0
2, 107384, Note_on_c, 0, 74, 0
2, 107445, Note_on_c, 0, 65, 63
2, 107452, Note_on_c, 0, 74, 63
2, 107452, Note_on_c, 0, 71, 61
2, 107660, Note_on_c, 0, 43, 0
2, 107663, Note_on_c, 0, 64, 66
2, 107663, Note_on_c, 0, 67, 63
2, 107667, Note_on_c, 0, 74, 0
2, 107667, Note_on_c, 0, 71, 0
2, 107667, Note_on_c, 0, 72, 68
2, 107686, Note_on_c, 0, 55, 0
2, 107717, Note_on_c, 0, 65, 0
2, 107762, Note_on_c, 0, 48, 67
2, 107762, Note_on_c, 0, 60, 66
2, 107892, Note_on_c, 0, 67, 0
2, 107941, Note_on_c, 0, 72, 0
2, 107960, Note_on_c, 0, 67, 67
2, 107964, Note_on_c, 0, 79, 68
2, 107968, Note_on_c, 0, 60, 0
2, 107968, Note_on_c, 0, 48, 0
2, 107991, Note_on_c, 0, 64, 0
2, 108059, Note_on_c, 0, 81, 70
2, 108067, Note_on_c, 0, 79, 0
2, 108067, Note_on_c, 0, 67, 0
2, 108088, Note_on_c, 0, 69, 74
2, 108166, Note_on_c, 0, 69, 0
2, 108166, Note_on_c, 0, 81, 0
2, 108175, Note_on_c, 0, 71, 67
2, 108175, Note_on_c, 0, 83, 68
2, 108247, Note_on_c, 0, 83, 0
2, 108251, Note_on_c, 0, 71, 0
2, 108272, Note_on_c, 0, 84, 70
2, 108272, Note_on_c, 0, 72, 73
2, 108369, Note_on_c, 0, 72, 0
2, 108369, Note_on_c, 0, 84, 0
2, 108369, Note_on_c, 0, 74, 68
2, 108375, Note_on_c, 0, 86, 67
2, 108470, Note_on_c, 0, 86, 0
2, 108470, Note_on_c, 0, 88, 67
2, 108474, Note_on_c, 0, 74, 0
2, 108474, Note_on_c, 0, 76, 67
2, 108565, Note_on_c, 0, 55, 65
2, 108571, Note_on_c, 0, 74, 61
2, 108571, Note_on_c, 0, 67, 58
2, 108576, Note_on_c, 0, 76, 0
2, 108576, Note_on_c, 0, 88, 0
2, 108582, Note_on_c, 0, 83, 60
2, 108582, Note_on_c, 0, 86, 56
2, 108664, Note_on_c, 0, 66, 71
2, 108675, Note_on_c, 0, 67, 0
2, 108675, Note_on_c, 0, 55, 0
2, 108675, Note_on_c, 0, 54, 64
2, 108749, Note_on_c, 0, 54, 0
2, 108765, Note_on_c, 0, 65, 69
2, 108765, Note_on_c, 0, 53, 67
2, 108778, Note_on_c, 0, 66, 0
2, 108873, Note_on_c, 0, 52, 64
2, 108877, Note_on_c, 0, 83, 0
2, 108877, Note_on_c, 0, 53, 0
2, 108877, Note_on_c, 0, 64, 64
2, 108881, Note_on_c, 0, 74, 0
2, 108903, Note_on_c, 0, 86, 0
2, 108930, Note_on_c, 0, 65, 0
2, 108976, Note_on_c, 0, 50, 60
2, 108976, Note_on_c, 0, 62, 65
2, 108981, Note_on_c, 0, 52, 0
2, 108981, Note_on_c, 0, 79, 63
2, 108981, Note_on_c, 0, 91, 67
2, 108985, Note_on_c, 0, 83, 67
2, 109006, Note_on_c, 0, 64, 0
2, 109052, Note_on_c, 0, 48, 67
2, 109084, Note_on_c, 0, 62, 0
2, 109084, Note_on_c, 0, 60, 66
2, 109090, Note_on_c, 0, 50, 0
2, 109160, Note_on_c, 0, 48, 0
2, 109160, Note_on_c, 0, 60, 0
2, 109179, Note_on_c, 0, 59, 64
2, 109183, Note_on_c, 0, 47, 62
2, 109284, Note_on_c, 0, 47, 0
2, 109287, Note_on_c, 0, 59, 0
2, 109287, Note_on_c, 0, 57, 63
2, 109287, Note_on_c, 0, 45, 62
2, 109384, Note_on_c, 0, 57, 0
2, 109384, Note_on_c, 0, 55, 63
2, 109388, Note_on_c, 0, 79, 0
2, 109388, Note_on_c, 0, 45, 0
2, 109392, Note_on_c, 0, 43, 62
2, 109436, Note_on_c, 0, 83, 0
2, 109439, Note_on_c, 0, 91, 0
2, 109489, Note_on_c, 0, 43, 0
2, 109489, Note_on_c, 0, 74, 71
2, 109493, Note_on_c, 0, 86, 68
2, 109515, Note_on_c, 0, 55, 0
2, 109584, Note_on_c, 0, 56, 62
2, 109593, Note_on_c, 0, 86, 0
2, 109593, Note_on_c, 0, 74, 0
2, 109593, Note_on_c, 0, 95, 72
2, 109596, Note_on_c, 0, 83, 67
2, 109596, Note_on_c, 0, 44, 62
2, 109660, Note_on_c, 0, 83, 0
2, 109660, Note_on_c, 0, 56, 0
2, 109664, Note_on_c, 0, 44, 0
2, 109679, Note_on_c, 0, 74, 72
2, 109690, Note_on_c, 0, 86, 66
2, 109694, Note_on_c, 0, 95, 0
2, 109785, Note_on_c, 0, 57, 64
2, 109789, Note_on_c, 0, 86, 0
2, 109789, Note_on_c, 0, 45, 63
2, 109793, Note_on_c, 0, 74, 0
2, 109793, Note_on_c, 0, 89, 67
2, 109793, Note_on_c, 0, 77, 65
2, 109892, Note_on_c, 0, 57, 0
2, 109895, Note_on_c, 0, 45, 0
2, 109895, Note_on_c, 0, 77, 0
2, 109895, Note_on_c, 0, 81, 67
2, 109899, Note_on_c, 0, 89, 0
2, 109903, Note_on_c, 0, 93, 72
2, 109996, Note_on_c, 0, 59, 66
2, 110000, Note_on_c, 0, 81, 0
2, 110000, Note_on_c, 0, 79, 65
2, 110000, Note_on_c, 0, 91, 69
2, 110000, Note_on_c, 0, 47, 63
2, 110009, Note_on_c, 0, 93, 0
2, 110097, Note_on_c, 0, 47, 0
2, 110102, Note_on_c, 0, 91, 0
2, 110102, Note_on_c, 0, 79, 0
2, 110102, Note_on_c, 0, 89, 69
2, 110106, Note_on_c, 0, 77, 66
2, 110148, Note_on_c, 0, 59, 0
2, 110190, Note_on_c, 0, 48, 66
2, 110190, Note_on_c, 0, 60, 66
2, 110197, Note_on_c, 0, 77, 0
2, 110197, Note_on_c, 0, 88, 67
2, 110197, Note_on_c, 0, 76, 67
2, 110203, Note_on_c, 0, 89, 0
2, 110275, Note_on_c, 0, 88, 0
2, 110275, Note_on_c, 0, 60, 0
2, 110300, Note_on_c, 0, 48, 0
2, 110300, Note_on_c, 0, 76, 0
2, 110300, Note_on_c, 0, 87, 67
2, 110300, Note_on_c, 0, 75, 69
2, 110401, Note_on_c, 0, 75, 0
2, 110404, Note_on_c, 0, 55, 61
2, 110404, Note_on_c, 0, 60, 65
2, 110404, Note_on_c, 0, 76, 66
2, 110404, Note_on_c, 0, 88, 67
2, 110408, Note_on_c, 0, 87, 0
2, 110408, Note_on_c, 0, 64, 61
2, 110429, Note_on_c, 0, 88, 0
2, 110507, Note_on_c, 0, 55, 0
2, 110507, Note_on_c, 0, 64, 0
2, 110507, Note_on_c, 0, 60, 0
2, 110511, Note_on_c, 0, 91, 67
2, 110511, Note_on_c, 0, 79, 64
2, 110511, Note_on_c, 0, 88, 66
2, 110587, Note_on_c, 0, 76, 0
2, 110600, Note_on_c, 0, 40, 63
2, 110600, Note_on_c, 0, 52, 64
2, 110606, Note_on_c, 0, 84, 70
2, 110708, Note_on_c, 0, 52, 0
2, 110708, Note_on_c, 0, 40, 0
2, 110805, Note_on_c, 0, 55, 61
2, 110805, Note_on_c, 0, 60, 65
2, 110809, Note_on_c, 0, 64, 62
2, 110911, Note_on_c, 0, 55, 0
2, 110911, Note_on_c, 0, 84, 0
2, 110915, Note_on_c, 0, 91, 0
2, 110915, Note_on_c, 0, 79, 0
2, 110915, Note_on_c, 0, 88, 0
2, 110915, Note_on_c, 0, 64, 0
2, 110915, Note_on_c, 0, 60, 0
2, 110987, Control_c, 0, 64, 127
2, 111010, Note_on_c, 0, 60, 64
2, 111010, Note_on_c, 0, 57, 60
2, 111010, Note_on_c, 0, 63, 63
2, 111014, Note_on_c, 0, 72, 70
2, 111014, Note_on_c, 0, 84, 68
2, 111018, Note_on_c, 0, 54, 58
2, 111056, Control_c, 0, 64, 0
2, 111114, Note_on_c, 0, 72, 0
2, 111114, Note_on_c, 0, 75, 67
2, 111114, Note_on_c, 0, 87, 65
2, 111118, Note_on_c, 0, 84, 0
2, 111213, Note_on_c, 0, 78, 69
2, 111217, Note_on_c, 0, 75, 0
2, 111242, Note_on_c, 0, 87, 0
2, 111245, Note_on_c, 0, 90, 75
2, 111314, Note_on_c, 0, 57, 0
2, 111314, Note_on_c, 0, 63, 0
2, 111314, Note_on_c, 0, 54, 0
2, 111321, Note_on_c, 0, 60, 0
2, 111321, Note_on_c, 0, 78, 0
2, 111342, Note_on_c, 0, 81, 69
2, 111346, Note_on_c, 0, 90, 0
2, 111346, Note_on_c, 0, 93, 73
2, 111416, Note_on_c, 0, 60, 67
2, 111416, Note_on_c, 0, 55, 62
2, 111416, Note_on_c, 0, 79, 68
2, 111420, Note_on_c, 0, 81, 0
2, 111420, Note_on_c, 0, 64, 62
2, 111445, Note_on_c, 0, 91, 71
2, 111454, Note_on_c, 0, 93, 0
2, 111498, Note_on_c, 0, 79, 0
2, 111519, Note_on_c, 0, 76, 71
2, 111524, Note_on_c, 0, 91, 0
2, 111549, Note_on_c, 0, 88, 74
2, 111619, Note_on_c, 0, 60, 0
2, 111619, Note_on_c, 0, 91, 67
2, 111619, Note_on_c, 0, 79, 66
2, 111623, Note_on_c, 0, 76, 0
2, 111623, Note_on_c, 0, 88, 0
2, 111644, Note_on_c, 0, 55, 0
2, 111644, Note_on_c, 0, 64, 0
2, 111725, Note_on_c, 0, 79, 0
2, 111725, Note_on_c, 0, 91, 0
2, 111725, Note_on_c, 0, 84, 67
2, 111731, Note_on_c, 0, 96, 72
2, 111746, Note_on_c, 0, 84, 0
2, 111775, Note_on_c, 0, 96, 0
2, 111818, Control_c, 0, 64, 127
2, 111818, Note_on_c, 0, 62, 67
2, 111818, Note_on_c, 0, 50, 61
2, 111824, Note_on_c, 0, 96, 60
2, 111824, Note_on_c, 0, 89, 65
2, 111824, Note_on_c, 0, 84, 57
2, 111856, Note_on_c, 0, 86, 68
2, 111868, Control_c, 0, 64, 0
2, 111896, Note_on_c, 0, 86, 0
2, 111896, Note_on_c, 0, 84, 0
2, 111900, Note_on_c, 0, 50, 0
2, 111900, Note_on_c, 0, 62, 0
2, 111900, Note_on_c, 0, 89, 0
2, 111923, Note_on_c, 0, 96, 0
2, 112014, Note_on_c, 0, 55, 67
2, 112014, Note_on_c, 0, 59, 68
2, 112014, Note_on_c, 0, 65, 62
2, 112027, Note_on_c, 0, 95, 63
2, 112027, Note_on_c, 0, 89, 59
2, 112033, Note_on_c, 0, 83, 55
2, 112033, Note_on_c, 0, 86, 50
2, 112050, Note_on_c, 0, 83, 0
2, 112050, Note_on_c, 0, 95, 0
2, 112050, Note_on_c, 0, 89, 0
2, 112059, Note_on_c, 0, 86, 0
2, 112097, Note_on_c, 0, 59, 0
2, 112120, Note_on_c, 0, 65, 0
2, 112120, Note_on_c, 0, 55, 0
2, 112129, Note_on_c, 0, 83, 49
2, 112129, Note_on_c, 0, 95, 61
2, 112133, Note_on_c, 0, 86, 50
2, 112133, Note_on_c, 0, 89, 52
2, 112224, Note_on_c, 0, 55, 63
2, 112230, Note_on_c, 0, 83, 0
2, 112230, Note_on_c, 0, 43, 63
2, 112234, Note_on_c, 0, 89, 0
2, 112234, Note_on_c, 0, 86, 0
2, 112315, Note_on_c, 0, 95, 0
2, 112332, Note_on_c, 0, 43, 0
2, 112332, Note_on_c, 0, 55, 0
2, 112332, Note_on_c, 0, 94, 67
2, 112336, Note_on_c, 0, 82, 64
2, 112336, Note_on_c, 0, 86, 59
2, 112342, Note_on_c, 0, 89, 63
2, 112359, Note_on_c, 0, 89, 0
2, 112359, Note_on_c, 0, 86, 0
2, 112406, Note_on_c, 0, 82, 0
2, 112406, Note_on_c, 0, 94, 0
2, 112420, Note_on_c, 0, 55, 65
2, 112425, Note_on_c, 0, 59, 65
2, 112425, Note_on_c, 0, 65, 57
2, 112433, Note_on_c, 0, 95, 67
2, 112433, Note_on_c, 0, 89, 56
2, 112440, Note_on_c, 0, 86, 48
2, 112440, Note_on_c, 0, 83, 58
2, 112531, Note_on_c, 0, 59, 0
2, 112531, Note_on_c, 0, 55, 0
2, 112537, Note_on_c, 0, 89, 0
2, 112537, Note_on_c, 0, 86, 0
2, 112562, Note_on_c, 0, 65, 0
2, 112586, Note_on_c, 0, 83, 0
2, 112594, Note_on_c, 0, 95, 0
2, 112630, Note_on_c, 0, 59, 65
2, 112634, Note_on_c, 0, 47, 62
2, 112638, Note_on_c, 0, 86, 61
2, 112641, Note_on_c, 0, 89, 65
2, 112641, Note_on_c, 0, 77, 63
2, 112664, Control_c, 0, 64, 127
2, 112696, Control_c, 0, 64, 0
2, 112717, Note_on_c, 0, 47, 0
2, 112717, Note_on_c, 0, 59, 0
2, 112717, Note_on_c, 0, 46, 63
2, 112738, Note_on_c, 0, 58, 64
2, 112835, Note_on_c, 0, 57, 68
2, 112840, Note_on_c, 0, 45, 65
2, 112844, Note_on_c, 0, 58, 0
2, 112844, Note_on_c, 0, 46, 0
2, 112939, Note_on_c, 0, 57, 0
2, 112939, Note_on_c, 0, 56, 61
2, 112943, Note_on_c, 0, 45, 0
2, 112947, Note_on_c, 0, 44, 62
2, 113041, Note_on_c, 0, 56, 0
2, 113041, Note_on_c, 0, 55, 63
2, 113045, Note_on_c, 0, 77, 0
2, 113045, Note_on_c, 0, 44, 0
2, 113049, Note_on_c, 0, 89, 0
2, 113049, Note_on_c, 0, 43, 62
2, 113070, Note_on_c, 0, 86, 0
2, 113144, Note_on_c, 0, 43, 0
2, 113144, Note_on_c, 0, 74, 74
2, 113153, Note_on_c, 0, 55, 0
2, 113176, Note_on_c, 0, 86, 71
2, 113242, Note_on_c, 0, 55, 66
2, 113246, Note_on_c, 0, 59, 65
2, 113246, Note_on_c, 0, 65, 60
2, 113254, Note_on_c, 0, 86, 0
2, 113257, Note_on_c, 0, 74, 0
2, 113257, Note_on_c, 0, 89, 66
2, 113261, Note_on_c, 0, 77, 62
2, 113352, Note_on_c, 0, 59, 0
2, 113352, Note_on_c, 0, 55, 0
2, 113356, Note_on_c, 0, 77, 0
2, 113356, Note_on_c, 0, 89, 0
2, 113356, Note_on_c, 0, 95, 72
2, 113356, Note_on_c, 0, 83, 67
2, 113379, Note_on_c, 0, 65, 0
2, 113382, Note_on_c, 0, 95, 0
2, 113449, Note_on_c, 0, 48, 66
2, 113449, Note_on_c, 0, 60, 66
2, 113449, Note_on_c, 0, 95, 70
2, 113456, Note_on_c, 0, 83, 0
2, 113456, Note_on_c, 0, 84, 63
2, 113460, Note_on_c, 0, 88, 65
2, 113532, Note_on_c, 0, 84, 0
2, 113532, Note_on_c, 0, 60, 0
2, 113536, Note_on_c, 0, 95, 0
2, 113536, Note_on_c, 0, 88, 0
2, 113562, Note_on_c, 0, 48, 0
2, 113653, Note_on_c, 0, 55, 62
2, 113653, Note_on_c, 0, 60, 63
2, 113659, Note_on_c, 0, 81, 62
2, 113659, Note_on_c, 0, 64, 61
2, 113663, Note_on_c, 0, 88, 63
2, 113663, Note_on_c, 0, 84, 62
2, 113667, Note_on_c, 0, 93, 67
2, 113678, Note_on_c, 0, 84, 0
2, 113678, Note_on_c, 0, 81, 0
2, 113682, Note_on_c, 0, 88, 0
2, 113689, Note_on_c, 0, 93, 0
2, 113761, Note_on_c, 0, 55, 0
2, 113761, Note_on_c, 0, 81, 56
2, 113765, Note_on_c, 0, 60, 0
2, 113769, Note_on_c, 0, 84, 53
2, 113769, Note_on_c, 0, 88, 61
2, 113769, Note_on_c, 0, 93, 66
2, 113788, Note_on_c, 0, 64, 0
2, 113858, Note_on_c, 0, 55, 65
2, 113867, Note_on_c, 0, 43, 63
2, 113892, Note_on_c, 0, 88, 0
2, 113892, Note_on_c, 0, 84, 0
2, 113917, Note_on_c, 0, 81, 0
2, 113928, Note_on_c, 0, 93, 0
2, 113964, Note_on_c, 0, 43, 0
2, 113964, Note_on_c, 0, 55, 0
2, 113968, Note_on_c, 0, 80, 62
2, 113968, Note_on_c, 0, 92, 71
2, 113972, Note_on_c, 0, 84, 68
2, 113975, Note_on_c, 0, 88, 66
2, 113992, Note_on_c, 0, 88, 0
2, 113992, Note_on_c, 0, 84, 0
2, 114047, Note_on_c, 0, 80, 0
2, 114061, Note_on_c, 0, 55, 63
2, 114061, Note_on_c, 0, 81, 69
2, 114068, Note_on_c, 0, 60, 64
2, 114068, Note_on_c, 0, 64, 62
2, 114068, Note_on_c, 0, 84, 61
2, 114076, Note_on_c, 0, 92, 0
2, 114100, Note_on_c, 0, 93, 74
2, 114100, Note_on_c, 0, 88, 70
2, 114140, Note_on_c, 0, 81, 0
2, 114144, Note_on_c, 0, 84, 0
2, 114144, Note_on_c, 0, 60, 0
2, 114144, Note_on_c, 0, 55, 0
2, 114144, Note_on_c, 0, 88, 0
2, 114150, Note_on_c, 0, 93, 0
2, 114165, Note_on_c, 0, 64, 0
2, 114265, Note_on_c, 0, 48, 65
2, 114265, Note_on_c, 0, 60, 66
2, 114269, Control_c, 0, 64, 127
2, 114273, Note_on_c, 0, 84, 67
2, 114273, Note_on_c, 0, 88, 67
2, 114273, Note_on_c, 0, 76, 65
2, 114326, Control_c, 0, 64, 0
2, 114369, Note_on_c, 0, 59, 62
2, 114373, Note_on_c, 0, 47, 61
2, 114377, Note_on_c, 0, 60, 0
2, 114377, Note_on_c, 0, 48, 0
2, 114475, Note_on_c, 0, 59, 0
2, 114475, Note_on_c, 0, 47, 0
2, 114475, Note_on_c, 0, 57, 63
2, 114475, Note_on_c, 0, 45, 62
2, 114572, Note_on_c, 0, 56, 60
2, 114579, Note_on_c, 0, 57, 0
2, 114583, Note_on_c, 0, 45, 0
2, 114583, Note_on_c, 0, 44, 62
2, 114674, Note_on_c, 0, 56, 0
2, 114674, Note_on_c, 0, 55, 63
2, 114680, Note_on_c, 0, 44, 0
2, 114680, Note_on_c, 0, 43, 63
2, 114729, Note_on_c, 0, 84, 0
2, 114776, Note_on_c, 0, 67, 66
2, 114776, Note_on_c, 0, 79, 64
2, 114786, Note_on_c, 0, 88, 0
2, 114786, Note_on_c, 0, 76, 0
2, 114882, Note_on_c, 0, 43, 0
2, 114882, Note_on_c, 0, 67, 0
2, 114886, Note_on_c, 0, 79, 0
2, 114886, Note_on_c, 0, 84, 67
2, 114886, Note_on_c, 0, 72, 69
2, 114911, Note_on_c, 0, 55, 0
2, 114990, Note_on_c, 0, 72, 0
2, 114990, Note_on_c, 0, 84, 0
2, 114990, Note_on_c, 0, 88, 70
2, 114990, Note_on_c, 0, 76, 69
2, 115083, Note_on_c, 0, 55, 66
2, 115094, Note_on_c, 0, 67, 57
2, 115094, Note_on_c, 0, 74, 58
2, 115098, Note_on_c, 0, 76, 0
2, 115098, Note_on_c, 0, 88, 0
2, 115102, Note_on_c, 0, 83, 58
2, 115102, Note_on_c, 0, 86, 55
2, 115119, Control_c, 0, 64, 127
2, 115162, Note_on_c, 0, 67, 0
2, 115183, Note_on_c, 0, 66, 71
2, 115189, Note_on_c, 0, 55, 0
2, 115189, Note_on_c, 0, 54, 63
2, 115219, Control_c, 0, 64, 0
2, 115280, Note_on_c, 0, 65, 71
2, 115280, Note_on_c, 0, 53, 69
2, 115287, Note_on_c, 0, 54, 0
2, 115287, Note_on_c, 0, 66, 0
2, 115384, Note_on_c, 0, 52, 70
2, 115391, Note_on_c, 0, 83, 0
2, 115391, Note_on_c, 0, 53, 0
2, 115416, Note_on_c, 0, 65, 0
2, 115416, Note_on_c, 0, 64, 64
2, 115471, Note_on_c, 0, 74, 0
2, 115492, Note_on_c, 0, 50, 60
2, 115495, Note_on_c, 0, 62, 66
2, 115495, Note_on_c, 0, 79, 62
2, 115499, Note_on_c, 0, 83, 67
2, 115499, Note_on_c, 0, 91, 67
2, 115522, Note_on_c, 0, 86, 0
2, 115522, Note_on_c, 0, 52, 0
2, 115548, Note_on_c, 0, 64, 0
2, 115590, Note_on_c, 0, 48, 66
2, 115594, Note_on_c, 0, 60, 64
2, 115603, Note_on_c, 0, 50, 0
2, 115603, Note_on_c, 0, 62, 0
2, 115690, Note_on_c, 0, 59, 63
2, 115694, Note_on_c, 0, 48, 0
2, 115694, Note_on_c, 0, 47, 61
2, 115700, Note_on_c, 0, 60, 0
2, 115766, Note_on_c, 0, 59, 0
2, 115766, Note_on_c, 0, 47, 0
2, 115789, Note_on_c, 0, 57, 63
2, 115794, Note_on_c, 0, 45, 62
2, 115896, Note_on_c, 0, 57, 0
2, 115896, Note_on_c, 0, 55, 63
2, 115900, Note_on_c, 0, 91, 0
2, 115900, Note_on_c, 0, 45, 0
2, 115900, Note_on_c, 0, 43, 62
2, 115910, Control_c, 0, 64, 127
2, 115946, Note_on_c, 0, 83, 0
2, 115980, Control_c, 0, 64, 0
2, 115995, Note_on_c, 0, 43, 0
2, 115995, Note_on_c, 0, 74, 72
2, 116000, Note_on_c, 0, 79, 0
2, 116000, Note_on_c, 0, 55, 0
2, 116029, Note_on_c, 0, 86, 70
2, 116095, Note_on_c, 0, 56, 61
2, 116101, Note_on_c, 0, 95, 70
2, 116104, Note_on_c, 0, 86, 0
2, 116104, Note_on_c, 0, 74, 0
2, 116104, Note_on_c, 0, 44, 62
2, 116104, Note_on_c, 0, 83, 66
2, 116201, Note_on_c, 0, 74, 69
2, 116205, Note_on_c, 0, 83, 0
2, 116205, Note_on_c, 0, 56, 0
2, 116210, Note_on_c, 0, 44, 0
2, 116210, Note_on_c, 0, 86, 66
2, 116239, Note_on_c, 0, 95, 0
2, 116282, Note_on_c, 0, 74, 0
2, 116301, Note_on_c, 0, 57, 64
2, 116301, Note_on_c, 0, 45, 63
2, 116307, Note_on_c, 0, 86, 0
2, 116307, Note_on_c, 0, 89, 68
2, 116307, Note_on_c, 0, 77, 67
2, 116382, Note_on_c, 0, 45, 0
2, 116382, Note_on_c, 0, 57, 0
2, 116401, Note_on_c, 0, 81, 71
2, 116409, Note_on_c, 0, 77, 0
2, 116413, Note_on_c, 0, 89, 0
2, 116435, Note_on_c, 0, 93, 77
2, 116500, Note_on_c, 0, 59, 66
2, 116507, Note_on_c, 0, 81, 0
2, 116507, Note_on_c, 0, 79, 65
2, 116507, Note_on_c, 0, 91, 68
2, 116507, Note_on_c, 0, 47, 63
2, 116517, Note_on_c, 0, 93, 0
2, 116583, Note_on_c, 0, 59, 0
2, 116583, Note_on_c, 0, 47, 0
2, 116611, Note_on_c, 0, 79, 0
2, 116611, Note_on_c, 0, 91, 0
2, 116617, Note_on_c, 0, 89, 68
2, 116617, Note_on_c, 0, 77, 66
2, 116715, Note_on_c, 0, 77, 0
2, 116715, Note_on_c, 0, 48, 66
2, 116715, Note_on_c, 0, 60, 65
2, 116721, Note_on_c, 0, 89, 0
2, 116721, Note_on_c, 0, 88, 66
2, 116721, Note_on_c, 0, 76, 64
2, 116732, Control_c, 0, 64, 127
2, 116776, Control_c, 0, 64, 0
2, 116817, Note_on_c, 0, 75, 67
2, 116821, Note_on_c, 0, 76, 0
2, 116821, Note_on_c, 0, 88, 0
2, 116821, Note_on_c, 0, 48, 0
2, 116821, Note_on_c, 0, 60, 0
2, 116821, Note_on_c, 0, 87, 65
2, 116891, Note_on_c, 0, 75, 0
2, 116895, Note_on_c, 0, 87, 0
2, 116910, Note_on_c, 0, 60, 68
2, 116910, Note_on_c, 0, 55, 61
2, 116910, Note_on_c, 0, 76, 70
2, 116914, Note_on_c, 0, 88, 70
2, 116919, Note_on_c, 0, 64, 62
2, 117021, Note_on_c, 0, 55, 0
2, 117021, Note_on_c, 0, 60, 0
2, 117021, Note_on_c, 0, 82, 65
2, 117021, Note_on_c, 0, 91, 64
2, 117021, Note_on_c, 0, 79, 59
2, 117025, Note_on_c, 0, 88, 0
2, 117029, Note_on_c, 0, 76, 0
2, 117046, Note_on_c, 0, 64, 0
2, 117114, Note_on_c, 0, 52, 65
2, 117118, Note_on_c, 0, 40, 63
2, 117203, Note_on_c, 0, 91, 0
2, 117203, Note_on_c, 0, 79, 0
2, 117227, Note_on_c, 0, 40, 0
2, 117227, Note_on_c, 0, 76, 73
2, 117254, Note_on_c, 0, 88, 74
2, 117259, Note_on_c, 0, 52, 0
2, 117322, Note_on_c, 0, 91, 70
2, 117322, Note_on_c, 0, 58, 65
2, 117322, Note_on_c, 0, 79, 65
2, 117327, Note_on_c, 0, 60, 64
2, 117331, Note_on_c, 0, 64, 62
2, 117335, Note_on_c, 0, 88, 0
2, 117335, Note_on_c, 0, 76, 0
2, 117431, Note_on_c, 0, 60, 0
2, 117431, Note_on_c, 0, 58, 0
2, 117431, Note_on_c, 0, 91, 0
2, 117431, Note_on_c, 0, 82, 0
2, 117431, Note_on_c, 0, 79, 0
2, 117452, Note_on_c, 0, 64, 0
2, 117520, Note_on_c, 0, 53, 65
2, 117524, Note_on_c, 0, 81, 65
2, 117524, Note_on_c, 0, 41, 63
2, 117533, Note_on_c, 0, 89, 66
2, 117533, Note_on_c, 0, 77, 63
2, 117552, Control_c, 0, 64, 127
2, 117586, Control_c, 0, 64, 0
2, 117724, Note_on_c, 0, 65, 72
2, 117730, Note_on_c, 0, 57, 68
2, 117730, Note_on_c, 0, 60, 70
2, 117811, Note_on_c, 0, 57, 0
2, 117841, Note_on_c, 0, 60, 0
2, 117841, Note_on_c, 0, 65, 0
2, 117913, Note_on_c, 0, 53, 0
2, 117917, Note_on_c, 0, 41, 0
2, 117934, Note_on_c, 0, 48, 67
2, 117939, Note_on_c, 0, 36, 60
2, 117962, Note_on_c, 0, 81, 0
2, 118017, Note_on_c, 0, 77, 0
2, 118034, Note_on_c, 0, 81, 76
2, 118043, Note_on_c, 0, 89, 0
2, 118043, Note_on_c, 0, 36, 0
2, 118043, Note_on_c, 0, 48, 0
2, 118087, Note_on_c, 0, 69, 73
2, 118138, Note_on_c, 0, 65, 62
2, 118143, Note_on_c, 0, 69, 0
2, 118143, Note_on_c, 0, 81, 0
2, 118143, Note_on_c, 0, 57, 63
2, 118143, Note_on_c, 0, 60, 67
2, 118153, Note_on_c, 0, 84, 63
2, 118153, Note_on_c, 0, 72, 65
2, 118219, Note_on_c, 0, 60, 0
2, 118219, Note_on_c, 0, 57, 0
2, 118245, Note_on_c, 0, 72, 0
2, 118249, Note_on_c, 0, 84, 0
2, 118249, Note_on_c, 0, 65, 0
2, 118249, Note_on_c, 0, 89, 68
2, 118252, Note_on_c, 0, 77, 65
2, 118272, Note_on_c, 0, 89, 0
2, 118336, Note_on_c, 0, 53, 66
2, 118340, Note_on_c, 0, 81, 62
2, 118340, Note_on_c, 0, 41, 63
2, 118347, Note_on_c, 0, 77, 0
2, 118347, Note_on_c, 0, 89, 59
2, 118347, Note_on_c, 0, 93, 66
2, 118347, Note_on_c, 0, 84, 59
2, 118447, Note_on_c, 0, 84, 0
2, 118447, Note_on_c, 0, 81, 0
2, 118447, Note_on_c, 0, 41, 0
2, 118450, Note_on_c, 0, 53, 0
2, 118450, Note_on_c, 0, 89, 0
2, 118455, Note_on_c, 0, 93, 0
2, 118540, Note_on_c, 0, 60, 66
2, 118540, Note_on_c, 0, 81, 61
2, 118540, Note_on_c, 0, 57, 63
2, 118544, Note_on_c, 0, 65, 56
2, 118553, Note_on_c, 0, 93, 63
2, 118553, Note_on_c, 0, 89, 60
2, 118553, Note_on_c, 0, 84, 58
2, 118619, Note_on_c, 0, 57, 0
2, 118623, Note_on_c, 0, 81, 0
2, 118623, Note_on_c, 0, 60, 0
2, 118623, Note_on_c, 0, 84, 0
2, 118627, Note_on_c, 0, 89, 0
2, 118630, Note_on_c, 0, 93, 0
2, 118647, Note_on_c, 0, 65, 0
2, 118740, Note_on_c, 0, 53, 66
2, 118744, Note_on_c, 0, 41, 63
2, 118744, Note_on_c, 0, 81, 63
2, 118749, Note_on_c, 0, 93, 69
2, 118749, Note_on_c, 0, 89, 66
2, 118749, Note_on_c, 0, 84, 64
2, 118823, Note_on_c, 0, 84, 0
2, 118823, Note_on_c, 0, 41, 0
2, 118823, Note_on_c, 0, 53, 0
2, 118823, Note_on_c, 0, 81, 0
2, 118823, Note_on_c, 0, 89, 0
2, 118881, Note_on_c, 0, 93, 0
2, 118946, Note_on_c, 0, 80, 65
2, 118951, Note_on_c, 0, 87, 65
2, 118951, Note_on_c, 0, 84, 68
2, 118951, Note_on_c, 0, 42, 60
2, 118951, Note_on_c, 0, 54, 63
2, 118978, Note_on_c, 0, 92, 77
2, 119051, Note_on_c, 0, 54, 0
2, 119051, Note_on_c, 0, 84, 0
2, 119051, Note_on_c, 0, 87, 0
2, 119055, Note_on_c, 0, 80, 0
2, 119055, Note_on_c, 0, 42, 0
2, 119055, Note_on_c, 0, 92, 0
2, 119121, Note_on_c, 0, 55, 64
2, 119129, Note_on_c, 0, 43, 62
2, 119155, Note_on_c, 0, 79, 59
2, 119155, Note_on_c, 0, 91, 63
2, 119155, Note_on_c, 0, 88, 63
2, 119161, Note_on_c, 0, 84, 63
2, 119227, Note_on_c, 0, 43, 0
2, 119227, Note_on_c, 0, 55, 0
2, 119346, Note_on_c, 0, 60, 65
2, 119349, Note_on_c, 0, 55, 62
2, 119353, Note_on_c, 0, 88, 0
2, 119353, Note_on_c, 0, 79, 0
2, 119353, Note_on_c, 0, 91, 0
2, 119353, Note_on_c, 0, 84, 0
2, 119353, Note_on_c, 0, 64, 63
2, 119449, Note_on_c, 0, 76, 73
2, 119455, Note_on_c, 0, 60, 0
2, 119476, Note_on_c, 0, 55, 0
2, 119476, Note_on_c, 0, 88, 74
2, 119480, Note_on_c, 0, 64, 0
2, 119551, Note_on_c, 0, 57, 64
2, 119551, Note_on_c, 0, 45, 63
2, 119555, Note_on_c, 0, 88, 0
2, 119555, Note_on_c, 0, 72, 72
2, 119627, Note_on_c, 0, 57, 0
2, 119651, Note_on_c, 0, 45, 0
2, 119651, Note_on_c, 0, 72, 0
2, 119651, Note_on_c, 0, 74, 68
2, 119655, Note_on_c, 0, 76, 0
2, 119655, Note_on_c, 0, 86, 66
2, 119751, Note_on_c, 0, 60, 64
2, 119751, Note_on_c, 0, 57, 61
2, 119751, Note_on_c, 0, 88, 67
2, 119751, Note_on_c, 0, 76, 66
2, 119755, Note_on_c, 0, 64, 62
2, 119759, Note_on_c, 0, 74, 0
2, 119776, Note_on_c, 0, 86, 0
2, 119857, Note_on_c, 0, 57, 0
2, 119857, Note_on_c, 0, 88, 0
2, 119861, Note_on_c, 0, 60, 0
2, 119861, Note_on_c, 0, 76, 0
2, 119885, Note_on_c, 0, 64, 0
2, 119953, Note_on_c, 0, 78, 63
2, 119953, Note_on_c, 0, 62, 68
2, 119953, Note_on_c, 0, 50, 62
2, 119957, Note_on_c, 0, 84, 66
2, 119962, Note_on_c, 0, 72, 68
2, 120066, Note_on_c, 0, 62, 0
2, 120070, Note_on_c, 0, 50, 0
2, 120106, Control_c, 0, 64, 127
2, 120157, Control_c, 0, 64, 0
2, 120157, Note_on_c, 0, 57, 64
2, 120160, Note_on_c, 0, 45, 63
2, 120236, Note_on_c, 0, 57, 0
2, 120240, Note_on_c, 0, 45, 0
2, 120364, Note_on_c, 0, 55, 63
2, 120370, Note_on_c, 0, 74, 62
2, 120373, Note_on_c, 0, 84, 0
2, 120373, Note_on_c, 0, 43, 63
2, 120373, Note_on_c, 0, 83, 62
2, 120377, Note_on_c, 0, 78, 0
2, 120377, Note_on_c, 0, 77, 59
2, 120392, Note_on_c, 0, 77, 0
2, 120392, Note_on_c, 0, 83, 0
2, 120392, Note_on_c, 0, 72, 0
2, 120396, Note_on_c, 0, 74, 0
2, 120458, Note_on_c, 0, 74, 63
2, 120462, Note_on_c, 0, 77, 56
2, 120462, Note_on_c, 0, 83, 54
2, 120500, Note_on_c, 0, 86, 70
2, 120590, Note_on_c, 0, 86, 0
2, 120590, Note_on_c, 0, 77, 0
2, 120590, Note_on_c, 0, 83, 0
2, 120596, Note_on_c, 0, 74, 0
2, 120673, Note_on_c, 0, 43, 0
2, 120673, Note_on_c, 0, 79, 58
2, 120677, Note_on_c, 0, 84, 63
2, 120677, Note_on_c, 0, 72, 65
2, 120677, Note_on_c, 0, 76, 63
2, 120698, Note_on_c, 0, 55, 0
2, 120745, Control_c, 0, 64, 127
2, 120767, Note_on_c, 0, 48, 64
2, 120767, Note_on_c, 0, 60, 65
2, 120816, Control_c, 0, 64, 0
2, 120875, Note_on_c, 0, 60, 0
2, 120875, Note_on_c, 0, 48, 0
2, 120965, Note_on_c, 0, 55, 63
2, 120969, Note_on_c, 0, 79, 0
2, 120969, Note_on_c, 0, 72, 0
2, 120969, Note_on_c, 0, 84, 0
2, 120969, Note_on_c, 0, 43, 63
2, 120999, Note_on_c, 0, 76, 0
2, 121046, Note_on_c, 0, 43, 0
2, 121071, Note_on_c, 0, 55, 0
2, 121167, Note_on_c, 0, 48, 67
2, 121174, Note_on_c, 0, 84, 65
2, 121174, Note_on_c, 0, 36, 60
2, 121174, Note_on_c, 0, 88, 65
2, 121178, Note_on_c, 0, 96, 67
2, 121203, Note_on_c, 0, 91, 70
2, 121280, Note_on_c, 0, 91, 0
2, 121280, Note_on_c, 0, 88, 0
2, 121280, Note_on_c, 0, 84, 0
2, 121280, Note_on_c, 0, 48, 0
2, 121280, Note_on_c, 0, 96, 0
2, 121284, Note_on_c, 0, 36, 0
2, 121284, End_track
3, 0, Start_track
3, 1, Copyright_t, "___________________________________________________\012\012KUNSTDERFUGE.COM LARGE CLASSICAL MIDI COLLECTION\012ONCLASSICAL BY ALESSANDRO SIMONETTO, PROPRIETOR\012___________________________________________________\012\012! Attention: this file is under copyright !\012\012(c)onclassical, (nc)smythe, 2010\012___________________________________________________\012\012NO ONE MAY REPUBLISH THIS FILE WITHOUT PERMISSION\012COMMERCIAL USES OF THIS FILE IS STRICTLY PROHIBITED\012___________________________________________________\012\012Files & contributor's list: http://kunstderfuge.com/\012Terms and conditions: http://kunstderfuge.com/notes.htm"
3, 1, End_track
0, 0, End_of_file
