0, 0, Header, 1, 8, 192
1, 0, Start_track
1, 0, Title_t, "Weeping Willow Rag"
1, 0, Copyright_t, "May NOT be used for commercial purposes."
1, 0, Text_t, "Roll expression/accent tracks, where present, converted to MIDI velocties.\012"
1, 0, Text_t, "/music_category: Piano_Roll\012"
1, 0, Text_t, "/title: Weeping Willow Rag\012"
1, 0, Text_t, "/subtitle: \012"
1, 0, Text_t, "/roll_type: 88n\012"
1, 0, Text_t, "/roll_manufacturer: QRS\012"
1, 0, Text_t, "/roll_number: 198\012"
1, 0, Text_t, "/original roll #: ?\012"
1, 0, Text_t, "/original manufacturer: Connorized\012"
1, 0, Text_t, "/performer: Joplin, Scott\012"
1, 0, Text_t, "/composer: Joplin, Scott\012"
1, 0, Text_t, "/lyricist: \012"
1, 0, Text_t, "/copyright: 1903\012"
1, 0, Text_t, "/scanned_by: Terry Smythe\012"
1, 0, Text_t, "/scan_system: Stibbons Mk3a Twin Array w/optical encoder\012"
1, 0, Text_t, "/date_scanned:  January 2005\012"
1, 0, Text_t, "/owner: Terry Smythe\012"
1, 0, Time_signature, 4, 2, 24, 8
1, 0, Key_signature, 0, "major"
1, 0, Tempo, 500000
1, 0, Marker_t, "Standard MIDI:Standard 88:LPI 138:Tempo  65: 01-13-2005"
1, 0, End_track
2, 0, Start_track
2, 0, Title_t, "Weeping Willow Rag"
2, 0, Program_c, 0, 0
2, 10, Control_c, 0, 64, 127
2, 123, Control_c, 0, 64, 0
2, 198, Note_on_c, 0, 74, 60
2, 200, Note_on_c, 0, 62, 60
2, 205, Control_c, 0, 64, 127
2, 249, Note_on_c, 0, 73, 60
2, 252, Note_on_c, 0, 61, 60
2, 254, Note_on_c, 0, 74, 0
2, 256, Note_on_c, 0, 62, 0
2, 290, Note_on_c, 0, 74, 60
2, 299, Control_c, 0, 64, 0
2, 305, Note_on_c, 0, 73, 0
2, 305, Note_on_c, 0, 62, 60
2, 308, Note_on_c, 0, 61, 0
2, 343, Note_on_c, 0, 76, 60
2, 346, Note_on_c, 0, 74, 0
2, 360, Note_on_c, 0, 64, 60
2, 365, Note_on_c, 0, 62, 0
2, 402, Note_on_c, 0, 66, 60
2, 404, Note_on_c, 0, 76, 0
2, 414, Note_on_c, 0, 78, 60
2, 416, Note_on_c, 0, 64, 0
2, 517, Note_on_c, 0, 79, 60
2, 519, Note_on_c, 0, 67, 60
2, 534, Note_on_c, 0, 78, 0
2, 536, Note_on_c, 0, 66, 0
2, 626, Note_on_c, 0, 74, 60
2, 628, Note_on_c, 0, 79, 0
2, 628, Note_on_c, 0, 67, 0
2, 628, Note_on_c, 0, 62, 60
2, 658, Control_c, 0, 64, 127
2, 682, Note_on_c, 0, 74, 0
2, 684, Note_on_c, 0, 62, 0
2, 733, Note_on_c, 0, 74, 60
2, 733, Note_on_c, 0, 62, 60
2, 755, Control_c, 0, 64, 0
2, 855, Note_on_c, 0, 62, 0
2, 855, Note_on_c, 0, 74, 0
2, 891, Note_on_c, 0, 76, 60
2, 893, Note_on_c, 0, 64, 60
2, 943, Note_on_c, 0, 72, 60
2, 945, Note_on_c, 0, 60, 60
2, 947, Note_on_c, 0, 64, 0
2, 947, Note_on_c, 0, 76, 0
2, 999, Note_on_c, 0, 69, 60
2, 1001, Note_on_c, 0, 72, 0
2, 1001, Note_on_c, 0, 60, 0
2, 1001, Note_on_c, 0, 57, 60
2, 1037, Note_on_c, 0, 69, 0
2, 1039, Note_on_c, 0, 57, 0
2, 1041, Control_c, 0, 64, 127
2, 1050, Note_on_c, 0, 67, 60
2, 1052, Note_on_c, 0, 55, 60
2, 1104, Note_on_c, 0, 66, 60
2, 1105, Note_on_c, 0, 67, 0
2, 1105, Note_on_c, 0, 54, 60
2, 1123, Note_on_c, 0, 55, 0
2, 1157, Note_on_c, 0, 67, 60
2, 1157, Note_on_c, 0, 55, 60
2, 1159, Note_on_c, 0, 54, 0
2, 1159, Note_on_c, 0, 66, 0
2, 1208, Note_on_c, 0, 69, 60
2, 1210, Note_on_c, 0, 57, 60
2, 1213, Note_on_c, 0, 67, 0
2, 1225, Note_on_c, 0, 55, 0
2, 1230, Control_c, 0, 64, 0
2, 1262, Note_on_c, 0, 71, 60
2, 1262, Note_on_c, 0, 59, 60
2, 1264, Note_on_c, 0, 69, 0
2, 1266, Note_on_c, 0, 57, 0
2, 1368, Note_on_c, 0, 72, 60
2, 1371, Note_on_c, 0, 60, 60
2, 1373, Note_on_c, 0, 71, 0
2, 1373, Note_on_c, 0, 59, 0
2, 1476, Note_on_c, 0, 62, 60
2, 1480, Note_on_c, 0, 60, 0
2, 1480, Note_on_c, 0, 50, 60
2, 1488, Note_on_c, 0, 72, 0
2, 1532, Control_c, 0, 64, 127
2, 1534, Note_on_c, 0, 62, 0
2, 1544, Note_on_c, 0, 50, 0
2, 1581, Note_on_c, 0, 62, 60
2, 1587, Control_c, 0, 64, 0
2, 1596, Note_on_c, 0, 50, 60
2, 1780, Note_on_c, 0, 62, 0
2, 1842, Note_on_c, 0, 67, 60
2, 1844, Note_on_c, 0, 55, 60
2, 1847, Note_on_c, 0, 50, 0
2, 1894, Note_on_c, 0, 69, 60
2, 1896, Note_on_c, 0, 67, 0
2, 1896, Note_on_c, 0, 57, 60
2, 1897, Note_on_c, 0, 55, 0
2, 1934, Note_on_c, 0, 57, 0
2, 1934, Note_on_c, 0, 69, 0
2, 1943, Note_on_c, 0, 71, 60
2, 1946, Note_on_c, 0, 59, 60
2, 1962, Note_on_c, 0, 71, 0
2, 1996, Note_on_c, 0, 74, 60
2, 1996, Note_on_c, 0, 71, 60
2, 1998, Note_on_c, 0, 62, 60
2, 1998, Note_on_c, 0, 67, 60
2, 1998, Note_on_c, 0, 43, 60
2, 2000, Note_on_c, 0, 59, 0
2, 2000, Control_c, 0, 64, 127
2, 2056, Control_c, 0, 64, 0
2, 2105, Note_on_c, 0, 55, 60
2, 2105, Note_on_c, 0, 59, 60
2, 2105, Note_on_c, 0, 50, 60
2, 2122, Note_on_c, 0, 43, 0
2, 2146, Note_on_c, 0, 67, 0
2, 2146, Note_on_c, 0, 71, 0
2, 2146, Note_on_c, 0, 74, 0
2, 2146, Note_on_c, 0, 59, 0
2, 2148, Note_on_c, 0, 50, 0
2, 2148, Note_on_c, 0, 62, 0
2, 2160, Note_on_c, 0, 55, 0
2, 2210, Note_on_c, 0, 79, 60
2, 2210, Note_on_c, 0, 71, 60
2, 2212, Note_on_c, 0, 67, 60
2, 2228, Note_on_c, 0, 38, 60
2, 2317, Note_on_c, 0, 55, 60
2, 2319, Note_on_c, 0, 50, 60
2, 2330, Note_on_c, 0, 59, 60
2, 2371, Note_on_c, 0, 71, 0
2, 2371, Note_on_c, 0, 79, 0
2, 2373, Note_on_c, 0, 67, 0
2, 2373, Note_on_c, 0, 50, 0
2, 2373, Note_on_c, 0, 59, 0
2, 2386, Note_on_c, 0, 38, 0
2, 2386, Note_on_c, 0, 55, 0
2, 2399, Control_c, 0, 64, 127
2, 2414, Note_on_c, 0, 43, 60
2, 2426, Note_on_c, 0, 67, 60
2, 2426, Note_on_c, 0, 71, 60
2, 2426, Note_on_c, 0, 59, 60
2, 2458, Control_c, 0, 64, 0
2, 2467, Note_on_c, 0, 59, 0
2, 2467, Note_on_c, 0, 67, 0
2, 2470, Note_on_c, 0, 43, 0
2, 2477, Note_on_c, 0, 70, 60
2, 2480, Note_on_c, 0, 71, 0
2, 2480, Note_on_c, 0, 58, 60
2, 2533, Note_on_c, 0, 67, 60
2, 2533, Note_on_c, 0, 71, 60
2, 2533, Note_on_c, 0, 59, 60
2, 2536, Note_on_c, 0, 58, 0
2, 2536, Note_on_c, 0, 70, 0
2, 2536, Note_on_c, 0, 55, 60
2, 2536, Note_on_c, 0, 50, 60
2, 2550, Note_on_c, 0, 71, 0
2, 2550, Note_on_c, 0, 67, 0
2, 2564, Note_on_c, 0, 59, 0
2, 2587, Note_on_c, 0, 65, 60
2, 2587, Note_on_c, 0, 67, 60
2, 2587, Note_on_c, 0, 71, 60
2, 2587, Note_on_c, 0, 74, 60
2, 2587, Note_on_c, 0, 62, 60
2, 2592, Note_on_c, 0, 50, 0
2, 2592, Note_on_c, 0, 55, 0
2, 2639, Note_on_c, 0, 47, 60
2, 2642, Note_on_c, 0, 62, 0
2, 2651, Note_on_c, 0, 74, 0
2, 2651, Note_on_c, 0, 71, 0
2, 2651, Note_on_c, 0, 67, 0
2, 2651, Note_on_c, 0, 65, 0
2, 2681, Note_on_c, 0, 47, 0
2, 2689, Note_on_c, 0, 71, 60
2, 2691, Note_on_c, 0, 65, 60
2, 2691, Note_on_c, 0, 67, 60
2, 2691, Note_on_c, 0, 74, 60
2, 2691, Note_on_c, 0, 62, 60
2, 2750, Note_on_c, 0, 55, 60
2, 2750, Note_on_c, 0, 59, 60
2, 2750, Note_on_c, 0, 50, 60
2, 2780, Note_on_c, 0, 74, 0
2, 2780, Note_on_c, 0, 67, 0
2, 2782, Note_on_c, 0, 62, 0
2, 2790, Note_on_c, 0, 71, 0
2, 2792, Note_on_c, 0, 65, 0
2, 2801, Note_on_c, 0, 76, 60
2, 2803, Note_on_c, 0, 64, 60
2, 2806, Note_on_c, 0, 59, 0
2, 2806, Note_on_c, 0, 50, 0
2, 2806, Note_on_c, 0, 55, 0
2, 2820, Note_on_c, 0, 64, 0
2, 2846, Control_c, 0, 64, 127
2, 2856, Note_on_c, 0, 64, 60
2, 2856, Note_on_c, 0, 67, 60
2, 2856, Note_on_c, 0, 74, 60
2, 2856, Note_on_c, 0, 62, 60
2, 2858, Note_on_c, 0, 76, 0
2, 2858, Note_on_c, 0, 48, 60
2, 2904, Control_c, 0, 64, 0
2, 2910, Note_on_c, 0, 72, 60
2, 2912, Note_on_c, 0, 74, 0
2, 2912, Note_on_c, 0, 60, 60
2, 2914, Note_on_c, 0, 62, 0
2, 2925, Note_on_c, 0, 60, 0
2, 2964, Note_on_c, 0, 55, 60
2, 2964, Note_on_c, 0, 60, 60
2, 2964, Note_on_c, 0, 52, 60
2, 2975, Note_on_c, 0, 64, 0
2, 2975, Note_on_c, 0, 67, 0
2, 2976, Note_on_c, 0, 55, 0
2, 3013, Note_on_c, 0, 64, 60
2, 3013, Note_on_c, 0, 67, 60
2, 3013, Note_on_c, 0, 55, 60
2, 3025, Note_on_c, 0, 72, 0
2, 3027, Note_on_c, 0, 60, 0
2, 3027, Note_on_c, 0, 48, 0
2, 3027, Note_on_c, 0, 52, 0
2, 3067, Note_on_c, 0, 48, 60
2, 3092, Note_on_c, 0, 67, 0
2, 3105, Note_on_c, 0, 55, 0
2, 3105, Note_on_c, 0, 64, 0
2, 3116, Note_on_c, 0, 69, 60
2, 3118, Note_on_c, 0, 63, 60
2, 3118, Note_on_c, 0, 57, 60
2, 3169, Note_on_c, 0, 55, 60
2, 3169, Note_on_c, 0, 60, 60
2, 3169, Note_on_c, 0, 51, 60
2, 3186, Note_on_c, 0, 55, 0
2, 3212, Note_on_c, 0, 57, 0
2, 3212, Note_on_c, 0, 69, 0
2, 3222, Note_on_c, 0, 55, 60
2, 3222, Note_on_c, 0, 67, 60
2, 3238, Note_on_c, 0, 60, 0
2, 3238, Note_on_c, 0, 51, 0
2, 3250, Note_on_c, 0, 63, 0
2, 3274, Note_on_c, 0, 71, 60
2, 3276, Note_on_c, 0, 59, 60
2, 3276, Note_on_c, 0, 43, 60
2, 3278, Note_on_c, 0, 48, 0
2, 3278, Note_on_c, 0, 55, 0
2, 3278, Note_on_c, 0, 67, 0
2, 3278, Control_c, 0, 64, 127
2, 3325, Note_on_c, 0, 67, 60
2, 3325, Note_on_c, 0, 55, 60
2, 3328, Note_on_c, 0, 71, 0
2, 3328, Note_on_c, 0, 59, 0
2, 3330, Note_on_c, 0, 43, 0
2, 3332, Control_c, 0, 64, 0
2, 3342, Note_on_c, 0, 55, 0
2, 3377, Note_on_c, 0, 64, 60
2, 3379, Note_on_c, 0, 52, 60
2, 3379, Note_on_c, 0, 55, 60
2, 3379, Note_on_c, 0, 59, 60
2, 3379, Note_on_c, 0, 50, 60
2, 3381, Note_on_c, 0, 67, 0
2, 3394, Note_on_c, 0, 50, 0
2, 3432, Note_on_c, 0, 62, 60
2, 3434, Note_on_c, 0, 59, 0
2, 3434, Note_on_c, 0, 52, 0
2, 3434, Note_on_c, 0, 50, 60
2, 3447, Note_on_c, 0, 64, 0
2, 3450, Note_on_c, 0, 55, 0
2, 3450, Note_on_c, 0, 50, 0
2, 3486, Note_on_c, 0, 59, 60
2, 3488, Note_on_c, 0, 55, 60
2, 3488, Note_on_c, 0, 50, 60
2, 3518, Note_on_c, 0, 62, 0
2, 3537, Note_on_c, 0, 67, 60
2, 3591, Note_on_c, 0, 69, 60
2, 3591, Note_on_c, 0, 57, 60
2, 3593, Note_on_c, 0, 67, 0
2, 3593, Note_on_c, 0, 59, 0
2, 3593, Note_on_c, 0, 50, 0
2, 3605, Note_on_c, 0, 55, 0
2, 3640, Note_on_c, 0, 71, 60
2, 3640, Note_on_c, 0, 59, 60
2, 3642, Note_on_c, 0, 69, 0
2, 3645, Note_on_c, 0, 57, 0
2, 3657, Note_on_c, 0, 71, 0
2, 3694, Note_on_c, 0, 67, 60
2, 3694, Note_on_c, 0, 71, 60
2, 3694, Note_on_c, 0, 74, 60
2, 3694, Note_on_c, 0, 62, 60
2, 3696, Note_on_c, 0, 59, 0
2, 3696, Note_on_c, 0, 43, 60
2, 3711, Control_c, 0, 64, 127
2, 3768, Control_c, 0, 64, 0
2, 3800, Note_on_c, 0, 55, 60
2, 3800, Note_on_c, 0, 59, 60
2, 3800, Note_on_c, 0, 50, 60
2, 3843, Note_on_c, 0, 50, 0
2, 3843, Note_on_c, 0, 59, 0
2, 3856, Note_on_c, 0, 71, 0
2, 3856, Note_on_c, 0, 67, 0
2, 3856, Note_on_c, 0, 74, 0
2, 3859, Note_on_c, 0, 62, 0
2, 3859, Note_on_c, 0, 55, 0
2, 3887, Note_on_c, 0, 43, 0
2, 3910, Note_on_c, 0, 71, 60
2, 3910, Note_on_c, 0, 79, 60
2, 3910, Note_on_c, 0, 67, 60
2, 3912, Note_on_c, 0, 40, 60
2, 4019, Note_on_c, 0, 59, 60
2, 4019, Note_on_c, 0, 52, 60
2, 4021, Note_on_c, 0, 55, 60
2, 4075, Note_on_c, 0, 59, 0
2, 4075, Control_c, 0, 64, 127
2, 4085, Note_on_c, 0, 79, 0
2, 4087, Note_on_c, 0, 67, 0
2, 4087, Note_on_c, 0, 71, 0
2, 4087, Note_on_c, 0, 52, 0
2, 4087, Note_on_c, 0, 55, 0
2, 4103, Note_on_c, 0, 40, 0
2, 4124, Note_on_c, 0, 74, 60
2, 4124, Note_on_c, 0, 78, 60
2, 4124, Note_on_c, 0, 66, 60
2, 4126, Note_on_c, 0, 33, 60
2, 4171, Control_c, 0, 64, 0
2, 4177, Note_on_c, 0, 77, 60
2, 4179, Note_on_c, 0, 66, 0
2, 4179, Note_on_c, 0, 74, 0
2, 4179, Note_on_c, 0, 78, 0
2, 4179, Note_on_c, 0, 65, 60
2, 4231, Note_on_c, 0, 74, 60
2, 4231, Note_on_c, 0, 78, 60
2, 4231, Note_on_c, 0, 66, 60
2, 4233, Note_on_c, 0, 57, 60
2, 4233, Note_on_c, 0, 62, 60
2, 4233, Note_on_c, 0, 54, 60
2, 4235, Note_on_c, 0, 77, 0
2, 4246, Note_on_c, 0, 78, 0
2, 4246, Note_on_c, 0, 74, 0
2, 4259, Note_on_c, 0, 65, 0
2, 4282, Note_on_c, 0, 74, 60
2, 4282, Note_on_c, 0, 78, 60
2, 4282, Note_on_c, 0, 81, 60
2, 4282, Note_on_c, 0, 69, 60
2, 4286, Note_on_c, 0, 66, 0
2, 4286, Note_on_c, 0, 54, 0
2, 4286, Note_on_c, 0, 62, 0
2, 4286, Note_on_c, 0, 57, 0
2, 4314, Note_on_c, 0, 33, 0
2, 4336, Note_on_c, 0, 74, 0
2, 4338, Note_on_c, 0, 30, 60
2, 4362, Note_on_c, 0, 81, 0
2, 4362, Note_on_c, 0, 78, 0
2, 4362, Note_on_c, 0, 69, 0
2, 4387, Note_on_c, 0, 74, 60
2, 4387, Note_on_c, 0, 62, 60
2, 4404, Note_on_c, 0, 62, 0
2, 4440, Note_on_c, 0, 66, 60
2, 4440, Note_on_c, 0, 78, 60
2, 4440, Note_on_c, 0, 62, 60
2, 4442, Note_on_c, 0, 57, 60
2, 4442, Note_on_c, 0, 54, 60
2, 4456, Note_on_c, 0, 74, 0
2, 4492, Note_on_c, 0, 81, 60
2, 4492, Note_on_c, 0, 69, 60
2, 4494, Note_on_c, 0, 57, 0
2, 4494, Note_on_c, 0, 78, 0
2, 4494, Note_on_c, 0, 54, 0
2, 4494, Note_on_c, 0, 66, 0
2, 4496, Note_on_c, 0, 62, 0
2, 4524, Note_on_c, 0, 30, 0
2, 4543, Note_on_c, 0, 73, 60
2, 4543, Note_on_c, 0, 83, 60
2, 4543, Note_on_c, 0, 71, 60
2, 4545, Note_on_c, 0, 81, 0
2, 4548, Note_on_c, 0, 69, 0
2, 4548, Note_on_c, 0, 28, 60
2, 4548, Control_c, 0, 64, 127
2, 4597, Note_on_c, 0, 79, 60
2, 4599, Note_on_c, 0, 83, 0
2, 4599, Note_on_c, 0, 67, 60
2, 4606, Control_c, 0, 64, 0
2, 4611, Note_on_c, 0, 71, 0
2, 4651, Note_on_c, 0, 64, 60
2, 4651, Note_on_c, 0, 76, 60
2, 4651, Note_on_c, 0, 61, 60
2, 4653, Note_on_c, 0, 79, 0
2, 4653, Note_on_c, 0, 67, 0
2, 4653, Note_on_c, 0, 73, 0
2, 4653, Note_on_c, 0, 57, 60
2, 4653, Note_on_c, 0, 55, 60
2, 4665, Note_on_c, 0, 61, 0
2, 4693, Note_on_c, 0, 57, 0
2, 4695, Note_on_c, 0, 28, 0
2, 4704, Note_on_c, 0, 73, 60
2, 4704, Note_on_c, 0, 61, 60
2, 4706, Note_on_c, 0, 64, 0
2, 4706, Note_on_c, 0, 76, 0
2, 4708, Note_on_c, 0, 55, 0
2, 4757, Note_on_c, 0, 45, 60
2, 4759, Note_on_c, 0, 33, 60
2, 4798, Note_on_c, 0, 61, 0
2, 4798, Note_on_c, 0, 73, 0
2, 4809, Note_on_c, 0, 69, 60
2, 4811, Note_on_c, 0, 57, 60
2, 4825, Note_on_c, 0, 57, 0
2, 4862, Note_on_c, 0, 71, 60
2, 4862, Note_on_c, 0, 67, 60
2, 4865, Note_on_c, 0, 69, 0
2, 4865, Note_on_c, 0, 57, 60
2, 4865, Note_on_c, 0, 59, 60
2, 4865, Note_on_c, 0, 61, 60
2, 4865, Note_on_c, 0, 55, 60
2, 4892, Note_on_c, 0, 45, 0
2, 4895, Note_on_c, 0, 33, 0
2, 4914, Note_on_c, 0, 73, 60
2, 4918, Note_on_c, 0, 71, 0
2, 4918, Note_on_c, 0, 55, 0
2, 4918, Note_on_c, 0, 67, 0
2, 4918, Note_on_c, 0, 57, 0
2, 4918, Note_on_c, 0, 59, 0
2, 4947, Control_c, 0, 64, 127
2, 4959, Note_on_c, 0, 61, 0
2, 4969, Note_on_c, 0, 66, 60
2, 4969, Note_on_c, 0, 74, 60
2, 4969, Note_on_c, 0, 62, 60
2, 4971, Note_on_c, 0, 57, 60
2, 4973, Note_on_c, 0, 73, 0
2, 4973, Note_on_c, 0, 50, 60
2, 5022, Note_on_c, 0, 60, 60
2, 5022, Note_on_c, 0, 48, 60
2, 5025, Note_on_c, 0, 50, 0
2, 5025, Note_on_c, 0, 57, 0
2, 5042, Control_c, 0, 64, 0
2, 5076, Note_on_c, 0, 57, 60
2, 5078, Note_on_c, 0, 60, 0
2, 5078, Note_on_c, 0, 45, 60
2, 5081, Note_on_c, 0, 48, 0
2, 5123, Note_on_c, 0, 57, 0
2, 5123, Note_on_c, 0, 45, 0
2, 5136, Note_on_c, 0, 52, 60
2, 5136, Note_on_c, 0, 40, 60
2, 5179, Note_on_c, 0, 40, 0
2, 5189, Note_on_c, 0, 50, 60
2, 5189, Note_on_c, 0, 38, 60
2, 5192, Note_on_c, 0, 52, 0
2, 5245, Note_on_c, 0, 74, 0
2, 5245, Note_on_c, 0, 66, 0
2, 5276, Note_on_c, 0, 62, 0
2, 5297, Note_on_c, 0, 67, 60
2, 5297, Note_on_c, 0, 55, 60
2, 5351, Note_on_c, 0, 71, 60
2, 5352, Note_on_c, 0, 55, 0
2, 5352, Note_on_c, 0, 67, 0
2, 5352, Note_on_c, 0, 59, 60
2, 5367, Note_on_c, 0, 71, 0
2, 5367, Note_on_c, 0, 38, 0
2, 5380, Note_on_c, 0, 50, 0
2, 5380, Control_c, 0, 64, 127
2, 5403, Note_on_c, 0, 67, 60
2, 5403, Note_on_c, 0, 71, 60
2, 5403, Note_on_c, 0, 74, 60
2, 5403, Note_on_c, 0, 62, 60
2, 5406, Note_on_c, 0, 43, 60
2, 5408, Note_on_c, 0, 59, 0
2, 5509, Note_on_c, 0, 55, 60
2, 5509, Note_on_c, 0, 59, 60
2, 5509, Note_on_c, 0, 50, 60
2, 5513, Control_c, 0, 64, 0
2, 5560, Note_on_c, 0, 59, 0
2, 5560, Note_on_c, 0, 67, 0
2, 5560, Note_on_c, 0, 74, 0
2, 5562, Note_on_c, 0, 50, 0
2, 5562, Note_on_c, 0, 43, 0
2, 5565, Note_on_c, 0, 62, 0
2, 5573, Note_on_c, 0, 55, 0
2, 5573, Note_on_c, 0, 71, 0
2, 5614, Note_on_c, 0, 71, 60
2, 5614, Note_on_c, 0, 67, 60
2, 5616, Note_on_c, 0, 38, 60
2, 5628, Note_on_c, 0, 79, 60
2, 5720, Note_on_c, 0, 59, 60
2, 5720, Note_on_c, 0, 55, 60
2, 5723, Note_on_c, 0, 50, 60
2, 5761, Note_on_c, 0, 50, 0
2, 5761, Note_on_c, 0, 79, 0
2, 5761, Note_on_c, 0, 67, 0
2, 5761, Note_on_c, 0, 59, 0
2, 5774, Note_on_c, 0, 71, 0
2, 5774, Note_on_c, 0, 55, 0
2, 5802, Note_on_c, 0, 38, 0
2, 5812, Control_c, 0, 64, 127
2, 5823, Note_on_c, 0, 71, 60
2, 5826, Note_on_c, 0, 59, 60
2, 5826, Note_on_c, 0, 67, 60
2, 5826, Note_on_c, 0, 43, 60
2, 5866, Note_on_c, 0, 59, 0
2, 5868, Note_on_c, 0, 43, 0
2, 5877, Note_on_c, 0, 70, 60
2, 5879, Note_on_c, 0, 71, 0
2, 5879, Note_on_c, 0, 58, 60
2, 5881, Note_on_c, 0, 67, 0
2, 5911, Control_c, 0, 64, 0
2, 5930, Note_on_c, 0, 71, 60
2, 5932, Note_on_c, 0, 70, 0
2, 5932, Note_on_c, 0, 55, 60
2, 5932, Note_on_c, 0, 59, 60
2, 5932, Note_on_c, 0, 67, 60
2, 5932, Note_on_c, 0, 50, 60
2, 5934, Note_on_c, 0, 58, 0
2, 5948, Note_on_c, 0, 67, 0
2, 5948, Note_on_c, 0, 71, 0
2, 5986, Note_on_c, 0, 71, 60
2, 5986, Note_on_c, 0, 74, 60
2, 5986, Note_on_c, 0, 67, 60
2, 5988, Note_on_c, 0, 65, 60
2, 5988, Note_on_c, 0, 62, 60
2, 5990, Note_on_c, 0, 59, 0
2, 5990, Note_on_c, 0, 55, 0
2, 5990, Note_on_c, 0, 50, 0
2, 6040, Note_on_c, 0, 71, 0
2, 6040, Note_on_c, 0, 74, 0
2, 6040, Note_on_c, 0, 47, 60
2, 6042, Note_on_c, 0, 67, 0
2, 6044, Note_on_c, 0, 62, 0
2, 6054, Note_on_c, 0, 65, 0
2, 6080, Note_on_c, 0, 47, 0
2, 6091, Note_on_c, 0, 65, 60
2, 6091, Note_on_c, 0, 67, 60
2, 6091, Note_on_c, 0, 71, 60
2, 6091, Note_on_c, 0, 74, 60
2, 6091, Note_on_c, 0, 62, 60
2, 6143, Note_on_c, 0, 59, 60
2, 6144, Note_on_c, 0, 55, 60
2, 6144, Note_on_c, 0, 50, 60
2, 6172, Note_on_c, 0, 74, 0
2, 6172, Note_on_c, 0, 71, 0
2, 6172, Note_on_c, 0, 67, 0
2, 6174, Note_on_c, 0, 62, 0
2, 6187, Note_on_c, 0, 65, 0
2, 6195, Note_on_c, 0, 76, 60
2, 6195, Note_on_c, 0, 64, 60
2, 6198, Note_on_c, 0, 59, 0
2, 6198, Note_on_c, 0, 50, 0
2, 6198, Note_on_c, 0, 55, 0
2, 6211, Control_c, 0, 64, 127
2, 6213, Note_on_c, 0, 64, 0
2, 6249, Note_on_c, 0, 74, 60
2, 6251, Note_on_c, 0, 64, 60
2, 6251, Note_on_c, 0, 67, 60
2, 6251, Note_on_c, 0, 62, 60
2, 6254, Note_on_c, 0, 76, 0
2, 6254, Note_on_c, 0, 48, 60
2, 6305, Note_on_c, 0, 72, 60
2, 6307, Note_on_c, 0, 74, 0
2, 6307, Note_on_c, 0, 60, 60
2, 6310, Note_on_c, 0, 48, 0
2, 6310, Note_on_c, 0, 62, 0
2, 6312, Control_c, 0, 64, 0
2, 6322, Note_on_c, 0, 60, 0
2, 6360, Note_on_c, 0, 60, 60
2, 6360, Note_on_c, 0, 55, 60
2, 6362, Note_on_c, 0, 67, 0
2, 6362, Note_on_c, 0, 64, 0
2, 6362, Note_on_c, 0, 52, 60
2, 6376, Note_on_c, 0, 55, 0
2, 6390, Note_on_c, 0, 72, 0
2, 6404, Note_on_c, 0, 60, 0
2, 6414, Note_on_c, 0, 67, 60
2, 6414, Note_on_c, 0, 64, 60
2, 6416, Note_on_c, 0, 55, 60
2, 6418, Note_on_c, 0, 52, 0
2, 6468, Note_on_c, 0, 48, 60
2, 6496, Note_on_c, 0, 64, 0
2, 6498, Note_on_c, 0, 55, 0
2, 6498, Note_on_c, 0, 67, 0
2, 6519, Note_on_c, 0, 69, 60
2, 6519, Note_on_c, 0, 63, 60
2, 6521, Note_on_c, 0, 57, 60
2, 6523, Note_on_c, 0, 48, 0
2, 6573, Note_on_c, 0, 60, 60
2, 6573, Note_on_c, 0, 55, 60
2, 6575, Note_on_c, 0, 51, 60
2, 6587, Note_on_c, 0, 55, 0
2, 6600, Note_on_c, 0, 69, 0
2, 6602, Note_on_c, 0, 57, 0
2, 6602, Note_on_c, 0, 63, 0
2, 6626, Note_on_c, 0, 67, 60
2, 6626, Note_on_c, 0, 55, 60
2, 6628, Note_on_c, 0, 60, 0
2, 6643, Note_on_c, 0, 51, 0
2, 6677, Note_on_c, 0, 62, 60
2, 6677, Note_on_c, 0, 71, 60
2, 6677, Note_on_c, 0, 59, 60
2, 6679, Note_on_c, 0, 67, 0
2, 6679, Note_on_c, 0, 55, 0
2, 6679, Note_on_c, 0, 43, 60
2, 6693, Control_c, 0, 64, 127
2, 6729, Note_on_c, 0, 67, 60
2, 6729, Note_on_c, 0, 55, 60
2, 6731, Note_on_c, 0, 59, 0
2, 6733, Note_on_c, 0, 43, 0
2, 6745, Note_on_c, 0, 62, 0
2, 6745, Note_on_c, 0, 71, 0
2, 6745, Note_on_c, 0, 55, 0
2, 6748, Control_c, 0, 64, 0
2, 6782, Note_on_c, 0, 55, 60
2, 6782, Note_on_c, 0, 59, 60
2, 6782, Note_on_c, 0, 64, 60
2, 6782, Note_on_c, 0, 52, 60
2, 6797, Note_on_c, 0, 67, 0
2, 6834, Note_on_c, 0, 62, 60
2, 6834, Note_on_c, 0, 50, 60
2, 6848, Note_on_c, 0, 64, 0
2, 6848, Note_on_c, 0, 52, 0
2, 6848, Note_on_c, 0, 59, 0
2, 6851, Note_on_c, 0, 55, 0
2, 6851, Note_on_c, 0, 50, 0
2, 6885, Note_on_c, 0, 59, 60
2, 6888, Note_on_c, 0, 55, 60
2, 6888, Note_on_c, 0, 50, 60
2, 6900, Note_on_c, 0, 59, 0
2, 6915, Note_on_c, 0, 62, 0
2, 6936, Note_on_c, 0, 71, 60
2, 6938, Note_on_c, 0, 59, 60
2, 6940, Note_on_c, 0, 55, 0
2, 6940, Note_on_c, 0, 50, 0
2, 6990, Note_on_c, 0, 70, 60
2, 6992, Note_on_c, 0, 71, 0
2, 6992, Note_on_c, 0, 59, 0
2, 6992, Note_on_c, 0, 58, 60
2, 7046, Note_on_c, 0, 71, 60
2, 7048, Note_on_c, 0, 70, 0
2, 7050, Note_on_c, 0, 58, 0
2, 7062, Note_on_c, 0, 71, 0
2, 7062, Note_on_c, 0, 59, 60
2, 7099, Note_on_c, 0, 75, 60
2, 7099, Note_on_c, 0, 71, 60
2, 7101, Note_on_c, 0, 63, 60
2, 7101, Note_on_c, 0, 54, 60
2, 7104, Note_on_c, 0, 59, 0
2, 7104, Note_on_c, 0, 42, 60
2, 7128, Control_c, 0, 64, 127
2, 7182, Control_c, 0, 64, 0
2, 7201, Note_on_c, 0, 59, 60
2, 7204, Note_on_c, 0, 57, 60
2, 7253, Note_on_c, 0, 75, 0
2, 7253, Note_on_c, 0, 71, 0
2, 7255, Note_on_c, 0, 59, 0
2, 7255, Note_on_c, 0, 54, 0
2, 7255, Note_on_c, 0, 63, 0
2, 7255, Note_on_c, 0, 57, 0
2, 7255, Note_on_c, 0, 42, 0
2, 7300, Note_on_c, 0, 78, 60
2, 7300, Note_on_c, 0, 75, 60
2, 7302, Note_on_c, 0, 71, 60
2, 7302, Note_on_c, 0, 66, 60
2, 7304, Note_on_c, 0, 47, 60
2, 7304, Note_on_c, 0, 35, 60
2, 7410, Note_on_c, 0, 59, 60
2, 7410, Note_on_c, 0, 57, 60
2, 7438, Note_on_c, 0, 71, 0
2, 7438, Note_on_c, 0, 78, 0
2, 7438, Note_on_c, 0, 75, 0
2, 7461, Note_on_c, 0, 81, 60
2, 7463, Note_on_c, 0, 69, 60
2, 7465, Note_on_c, 0, 66, 0
2, 7465, Note_on_c, 0, 57, 0
2, 7465, Note_on_c, 0, 47, 0
2, 7465, Note_on_c, 0, 59, 0
2, 7467, Note_on_c, 0, 35, 0
2, 7476, Note_on_c, 0, 81, 0
2, 7478, Note_on_c, 0, 69, 0
2, 7518, Note_on_c, 0, 71, 60
2, 7518, Note_on_c, 0, 76, 60
2, 7518, Note_on_c, 0, 81, 60
2, 7518, Note_on_c, 0, 69, 60
2, 7521, Note_on_c, 0, 52, 60
2, 7523, Note_on_c, 0, 40, 60
2, 7523, Control_c, 0, 64, 127
2, 7560, Note_on_c, 0, 69, 0
2, 7572, Note_on_c, 0, 79, 60
2, 7572, Note_on_c, 0, 67, 60
2, 7574, Note_on_c, 0, 81, 0
2, 7602, Control_c, 0, 64, 0
2, 7624, Note_on_c, 0, 78, 60
2, 7624, Note_on_c, 0, 66, 60
2, 7626, Note_on_c, 0, 59, 60
2, 7626, Note_on_c, 0, 55, 60
2, 7628, Note_on_c, 0, 79, 0
2, 7628, Note_on_c, 0, 67, 0
2, 7652, Note_on_c, 0, 71, 0
2, 7652, Note_on_c, 0, 76, 0
2, 7675, Note_on_c, 0, 70, 60
2, 7675, Note_on_c, 0, 79, 60
2, 7675, Note_on_c, 0, 67, 60
2, 7677, Note_on_c, 0, 66, 0
2, 7677, Note_on_c, 0, 59, 0
2, 7677, Note_on_c, 0, 78, 0
2, 7681, Note_on_c, 0, 40, 0
2, 7694, Note_on_c, 0, 55, 0
2, 7694, Note_on_c, 0, 52, 0
2, 7732, Note_on_c, 0, 67, 0
2, 7732, Note_on_c, 0, 79, 0
2, 7732, Note_on_c, 0, 49, 60
2, 7732, Note_on_c, 0, 37, 60
2, 7786, Note_on_c, 0, 79, 60
2, 7786, Note_on_c, 0, 67, 60
2, 7790, Note_on_c, 0, 37, 0
2, 7790, Note_on_c, 0, 49, 0
2, 7826, Note_on_c, 0, 67, 0
2, 7826, Note_on_c, 0, 79, 0
2, 7837, Note_on_c, 0, 78, 60
2, 7837, Note_on_c, 0, 66, 60
2, 7840, Note_on_c, 0, 55, 60
2, 7840, Note_on_c, 0, 58, 60
2, 7840, Note_on_c, 0, 52, 60
2, 7889, Note_on_c, 0, 76, 60
2, 7889, Note_on_c, 0, 64, 60
2, 7891, Note_on_c, 0, 66, 0
2, 7891, Note_on_c, 0, 78, 0
2, 7893, Note_on_c, 0, 58, 0
2, 7893, Note_on_c, 0, 55, 0
2, 7893, Note_on_c, 0, 52, 0
2, 7904, Note_on_c, 0, 64, 0
2, 7904, Note_on_c, 0, 76, 0
2, 7917, Note_on_c, 0, 70, 0
2, 7929, Control_c, 0, 64, 127
2, 7941, Note_on_c, 0, 71, 60
2, 7941, Note_on_c, 0, 76, 60
2, 7941, Note_on_c, 0, 64, 60
2, 7943, Note_on_c, 0, 50, 60
2, 7943, Note_on_c, 0, 38, 60
2, 7983, Note_on_c, 0, 64, 0
2, 7983, Note_on_c, 0, 71, 0
2, 7985, Note_on_c, 0, 38, 0
2, 7985, Note_on_c, 0, 50, 0
2, 7993, Note_on_c, 0, 74, 60
2, 7995, Note_on_c, 0, 62, 60
2, 7998, Note_on_c, 0, 76, 0
2, 8028, Control_c, 0, 64, 0
2, 8049, Note_on_c, 0, 61, 60
2, 8049, Note_on_c, 0, 73, 60
2, 8049, Note_on_c, 0, 59, 60
2, 8051, Note_on_c, 0, 74, 0
2, 8051, Note_on_c, 0, 55, 60
2, 8054, Note_on_c, 0, 62, 0
2, 8092, Note_on_c, 0, 59, 0
2, 8092, Note_on_c, 0, 61, 0
2, 8103, Note_on_c, 0, 74, 60
2, 8103, Note_on_c, 0, 62, 60
2, 8105, Note_on_c, 0, 73, 0
2, 8107, Note_on_c, 0, 55, 0
2, 8157, Note_on_c, 0, 50, 60
2, 8157, Note_on_c, 0, 38, 60
2, 8184, Note_on_c, 0, 74, 0
2, 8186, Note_on_c, 0, 62, 0
2, 8208, Note_on_c, 0, 72, 60
2, 8209, Note_on_c, 0, 60, 60
2, 8212, Note_on_c, 0, 50, 0
2, 8212, Note_on_c, 0, 38, 0
2, 8225, Note_on_c, 0, 60, 0
2, 8261, Note_on_c, 0, 69, 60
2, 8263, Note_on_c, 0, 72, 0
2, 8263, Note_on_c, 0, 57, 60
2, 8263, Note_on_c, 0, 60, 60
2, 8263, Note_on_c, 0, 54, 60
2, 8279, Note_on_c, 0, 54, 0
2, 8304, Note_on_c, 0, 69, 0
2, 8304, Note_on_c, 0, 57, 0
2, 8304, Note_on_c, 0, 60, 0
2, 8315, Note_on_c, 0, 66, 60
2, 8317, Note_on_c, 0, 54, 60
2, 8366, Note_on_c, 0, 67, 60
2, 8368, Note_on_c, 0, 59, 60
2, 8368, Note_on_c, 0, 55, 60
2, 8371, Note_on_c, 0, 54, 0
2, 8371, Note_on_c, 0, 66, 0
2, 8371, Control_c, 0, 64, 127
2, 8420, Note_on_c, 0, 64, 60
2, 8422, Note_on_c, 0, 52, 60
2, 8426, Control_c, 0, 64, 0
2, 8473, Note_on_c, 0, 62, 60
2, 8475, Note_on_c, 0, 50, 60
2, 8491, Note_on_c, 0, 52, 0
2, 8491, Note_on_c, 0, 64, 0
2, 8526, Note_on_c, 0, 63, 60
2, 8529, Note_on_c, 0, 50, 0
2, 8529, Note_on_c, 0, 51, 60
2, 8531, Note_on_c, 0, 62, 0
2, 8569, Note_on_c, 0, 52, 60
2, 8582, Note_on_c, 0, 64, 60
2, 8585, Note_on_c, 0, 63, 0
2, 8585, Note_on_c, 0, 67, 0
2, 8585, Note_on_c, 0, 51, 0
2, 8634, Note_on_c, 0, 79, 60
2, 8636, Note_on_c, 0, 64, 0
2, 8636, Note_on_c, 0, 63, 60
2, 8636, Note_on_c, 0, 67, 60
2, 8636, Note_on_c, 0, 51, 60
2, 8638, Note_on_c, 0, 59, 0
2, 8638, Note_on_c, 0, 52, 0
2, 8651, Note_on_c, 0, 55, 0
2, 8689, Note_on_c, 0, 81, 60
2, 8689, Note_on_c, 0, 69, 60
2, 8691, Note_on_c, 0, 79, 0
2, 8691, Note_on_c, 0, 62, 60
2, 8691, Note_on_c, 0, 50, 60
2, 8693, Note_on_c, 0, 63, 0
2, 8693, Note_on_c, 0, 67, 0
2, 8707, Note_on_c, 0, 51, 0
2, 8735, Note_on_c, 0, 69, 0
2, 8745, Note_on_c, 0, 71, 60
2, 8745, Note_on_c, 0, 83, 60
2, 8745, Note_on_c, 0, 59, 60
2, 8747, Note_on_c, 0, 81, 0
2, 8747, Note_on_c, 0, 47, 60
2, 8749, Note_on_c, 0, 62, 0
2, 8749, Note_on_c, 0, 50, 0
2, 8762, Note_on_c, 0, 83, 0
2, 8794, Note_on_c, 0, 83, 60
2, 8796, Note_on_c, 0, 79, 60
2, 8796, Note_on_c, 0, 86, 60
2, 8796, Note_on_c, 0, 74, 60
2, 8799, Note_on_c, 0, 71, 0
2, 8799, Note_on_c, 0, 55, 60
2, 8799, Note_on_c, 0, 43, 60
2, 8801, Note_on_c, 0, 59, 0
2, 8801, Note_on_c, 0, 47, 0
2, 8811, Control_c, 0, 64, 127
2, 8852, Note_on_c, 0, 55, 0
2, 8865, Control_c, 0, 64, 0
2, 8899, Note_on_c, 0, 59, 60
2, 8902, Note_on_c, 0, 55, 60
2, 8902, Note_on_c, 0, 50, 60
2, 8942, Note_on_c, 0, 59, 0
2, 8942, Note_on_c, 0, 83, 0
2, 8942, Note_on_c, 0, 79, 0
2, 8942, Note_on_c, 0, 74, 0
2, 8954, Note_on_c, 0, 50, 0
2, 8954, Note_on_c, 0, 86, 0
2, 8957, Note_on_c, 0, 55, 0
2, 8980, Note_on_c, 0, 43, 0
2, 9001, Note_on_c, 0, 83, 60
2, 9001, Note_on_c, 0, 91, 60
2, 9001, Note_on_c, 0, 79, 60
2, 9004, Note_on_c, 0, 38, 60
2, 9111, Note_on_c, 0, 55, 60
2, 9111, Note_on_c, 0, 59, 60
2, 9111, Note_on_c, 0, 50, 60
2, 9149, Note_on_c, 0, 59, 0
2, 9149, Note_on_c, 0, 83, 0
2, 9149, Note_on_c, 0, 91, 0
2, 9152, Note_on_c, 0, 55, 0
2, 9152, Note_on_c, 0, 50, 0
2, 9165, Note_on_c, 0, 79, 0
2, 9179, Note_on_c, 0, 38, 0
2, 9205, Control_c, 0, 64, 127
2, 9216, Note_on_c, 0, 79, 60
2, 9216, Note_on_c, 0, 83, 60
2, 9216, Note_on_c, 0, 71, 60
2, 9218, Note_on_c, 0, 43, 60
2, 9267, Note_on_c, 0, 82, 60
2, 9267, Note_on_c, 0, 70, 60
2, 9271, Note_on_c, 0, 71, 0
2, 9271, Note_on_c, 0, 79, 0
2, 9271, Note_on_c, 0, 83, 0
2, 9274, Note_on_c, 0, 43, 0
2, 9299, Control_c, 0, 64, 0
2, 9318, Note_on_c, 0, 79, 60
2, 9318, Note_on_c, 0, 83, 60
2, 9318, Note_on_c, 0, 71, 60
2, 9321, Note_on_c, 0, 82, 0
2, 9321, Note_on_c, 0, 70, 0
2, 9321, Note_on_c, 0, 55, 60
2, 9321, Note_on_c, 0, 59, 60
2, 9321, Note_on_c, 0, 50, 60
2, 9334, Note_on_c, 0, 83, 0
2, 9336, Note_on_c, 0, 79, 0
2, 9370, Note_on_c, 0, 74, 60
2, 9372, Note_on_c, 0, 79, 60
2, 9372, Note_on_c, 0, 83, 60
2, 9372, Note_on_c, 0, 86, 60
2, 9372, Note_on_c, 0, 77, 60
2, 9374, Note_on_c, 0, 55, 0
2, 9374, Note_on_c, 0, 59, 0
2, 9374, Note_on_c, 0, 71, 0
2, 9377, Note_on_c, 0, 50, 0
2, 9413, Note_on_c, 0, 74, 0
2, 9428, Note_on_c, 0, 47, 60
2, 9438, Note_on_c, 0, 83, 0
2, 9441, Note_on_c, 0, 79, 0
2, 9441, Note_on_c, 0, 77, 0
2, 9441, Note_on_c, 0, 86, 0
2, 9477, Note_on_c, 0, 86, 60
2, 9477, Note_on_c, 0, 74, 60
2, 9480, Note_on_c, 0, 79, 60
2, 9480, Note_on_c, 0, 83, 60
2, 9480, Note_on_c, 0, 77, 60
2, 9483, Note_on_c, 0, 47, 0
2, 9530, Note_on_c, 0, 59, 60
2, 9532, Note_on_c, 0, 74, 0
2, 9532, Note_on_c, 0, 55, 60
2, 9532, Note_on_c, 0, 50, 60
2, 9546, Note_on_c, 0, 83, 0
2, 9546, Note_on_c, 0, 79, 0
2, 9546, Note_on_c, 0, 77, 0
2, 9579, Note_on_c, 0, 88, 60
2, 9579, Note_on_c, 0, 76, 60
2, 9584, Note_on_c, 0, 59, 0
2, 9584, Note_on_c, 0, 50, 0
2, 9584, Note_on_c, 0, 86, 0
2, 9597, Note_on_c, 0, 76, 0
2, 9600, Note_on_c, 0, 55, 0
2, 9631, Note_on_c, 0, 86, 60
2, 9633, Note_on_c, 0, 76, 60
2, 9633, Note_on_c, 0, 79, 60
2, 9633, Note_on_c, 0, 74, 60
2, 9635, Note_on_c, 0, 88, 0
2, 9635, Note_on_c, 0, 48, 60
2, 9638, Control_c, 0, 64, 127
2, 9685, Note_on_c, 0, 84, 60
2, 9687, Note_on_c, 0, 86, 0
2, 9687, Note_on_c, 0, 74, 0
2, 9687, Note_on_c, 0, 72, 60
2, 9734, Control_c, 0, 64, 0
2, 9741, Note_on_c, 0, 79, 0
2, 9741, Note_on_c, 0, 76, 0
2, 9741, Note_on_c, 0, 55, 60
2, 9741, Note_on_c, 0, 60, 60
2, 9741, Note_on_c, 0, 52, 60
2, 9766, Note_on_c, 0, 84, 0
2, 9768, Note_on_c, 0, 72, 0
2, 9783, Note_on_c, 0, 60, 0
2, 9793, Note_on_c, 0, 76, 60
2, 9793, Note_on_c, 0, 79, 60
2, 9793, Note_on_c, 0, 67, 60
2, 9798, Note_on_c, 0, 48, 0
2, 9798, Note_on_c, 0, 55, 0
2, 9798, Note_on_c, 0, 52, 0
2, 9849, Note_on_c, 0, 48, 60
2, 9877, Note_on_c, 0, 76, 0
2, 9877, Note_on_c, 0, 79, 0
2, 9880, Note_on_c, 0, 67, 0
2, 9901, Note_on_c, 0, 81, 60
2, 9903, Note_on_c, 0, 75, 60
2, 9903, Note_on_c, 0, 69, 60
2, 9955, Note_on_c, 0, 60, 60
2, 9957, Note_on_c, 0, 55, 60
2, 9957, Note_on_c, 0, 51, 60
2, 10004, Note_on_c, 0, 79, 60
2, 10006, Note_on_c, 0, 67, 60
2, 10008, Note_on_c, 0, 55, 0
2, 10008, Note_on_c, 0, 69, 0
2, 10008, Note_on_c, 0, 60, 0
2, 10010, Note_on_c, 0, 48, 0
2, 10010, Note_on_c, 0, 81, 0
2, 10021, Note_on_c, 0, 51, 0
2, 10033, Note_on_c, 0, 75, 0
2, 10033, Control_c, 0, 64, 127
2, 10055, Note_on_c, 0, 74, 60
2, 10055, Note_on_c, 0, 83, 60
2, 10055, Note_on_c, 0, 71, 60
2, 10059, Note_on_c, 0, 79, 0
2, 10059, Note_on_c, 0, 67, 0
2, 10059, Note_on_c, 0, 43, 60
2, 10100, Note_on_c, 0, 83, 0
2, 10100, Note_on_c, 0, 71, 0
2, 10100, Note_on_c, 0, 74, 0
2, 10108, Note_on_c, 0, 79, 60
2, 10110, Note_on_c, 0, 67, 60
2, 10129, Control_c, 0, 64, 0
2, 10162, Note_on_c, 0, 76, 60
2, 10164, Note_on_c, 0, 55, 60
2, 10164, Note_on_c, 0, 59, 60
2, 10164, Note_on_c, 0, 64, 60
2, 10164, Note_on_c, 0, 50, 60
2, 10166, Note_on_c, 0, 67, 0
2, 10169, Note_on_c, 0, 79, 0
2, 10213, Note_on_c, 0, 74, 60
2, 10216, Note_on_c, 0, 62, 60
2, 10218, Note_on_c, 0, 64, 0
2, 10218, Note_on_c, 0, 50, 0
2, 10218, Note_on_c, 0, 59, 0
2, 10220, Note_on_c, 0, 76, 0
2, 10232, Note_on_c, 0, 55, 0
2, 10267, Note_on_c, 0, 59, 60
2, 10269, Note_on_c, 0, 55, 60
2, 10269, Note_on_c, 0, 50, 60
2, 10296, Note_on_c, 0, 74, 0
2, 10299, Note_on_c, 0, 62, 0
2, 10320, Note_on_c, 0, 79, 60
2, 10320, Note_on_c, 0, 67, 60
2, 10350, Note_on_c, 0, 43, 0
2, 10371, Note_on_c, 0, 81, 60
2, 10371, Note_on_c, 0, 69, 60
2, 10374, Note_on_c, 0, 79, 0
2, 10374, Note_on_c, 0, 59, 0
2, 10374, Note_on_c, 0, 67, 0
2, 10376, Note_on_c, 0, 55, 0
2, 10376, Note_on_c, 0, 50, 0
2, 10416, Note_on_c, 0, 69, 0
2, 10425, Note_on_c, 0, 83, 60
2, 10425, Note_on_c, 0, 71, 60
2, 10430, Note_on_c, 0, 81, 0
2, 10440, Note_on_c, 0, 83, 0
2, 10470, Control_c, 0, 64, 127
2, 10479, Note_on_c, 0, 83, 60
2, 10479, Note_on_c, 0, 86, 60
2, 10479, Note_on_c, 0, 79, 60
2, 10481, Note_on_c, 0, 74, 60
2, 10483, Note_on_c, 0, 43, 60
2, 10486, Note_on_c, 0, 71, 0
2, 10569, Control_c, 0, 64, 0
2, 10590, Note_on_c, 0, 55, 60
2, 10590, Note_on_c, 0, 59, 60
2, 10590, Note_on_c, 0, 50, 60
2, 10605, Note_on_c, 0, 74, 0
2, 10631, Note_on_c, 0, 83, 0
2, 10631, Note_on_c, 0, 86, 0
2, 10631, Note_on_c, 0, 79, 0
2, 10631, Note_on_c, 0, 59, 0
2, 10632, Note_on_c, 0, 50, 0
2, 10646, Note_on_c, 0, 55, 0
2, 10660, Note_on_c, 0, 43, 0
2, 10691, Note_on_c, 0, 91, 60
2, 10691, Note_on_c, 0, 83, 60
2, 10693, Note_on_c, 0, 79, 60
2, 10695, Note_on_c, 0, 40, 60
2, 10800, Note_on_c, 0, 55, 60
2, 10800, Note_on_c, 0, 59, 60
2, 10800, Note_on_c, 0, 52, 60
2, 10838, Note_on_c, 0, 91, 0
2, 10841, Note_on_c, 0, 83, 0
2, 10841, Note_on_c, 0, 79, 0
2, 10841, Note_on_c, 0, 59, 0
2, 10843, Note_on_c, 0, 52, 0
2, 10855, Note_on_c, 0, 55, 0
2, 10871, Note_on_c, 0, 40, 0
2, 10902, Note_on_c, 0, 86, 60
2, 10905, Note_on_c, 0, 90, 60
2, 10905, Note_on_c, 0, 78, 60
2, 10909, Note_on_c, 0, 45, 60
2, 10909, Control_c, 0, 64, 127
2, 10949, Note_on_c, 0, 90, 0
2, 10952, Note_on_c, 0, 78, 0
2, 10961, Note_on_c, 0, 89, 60
2, 10963, Note_on_c, 0, 77, 60
2, 10965, Note_on_c, 0, 86, 0
2, 10967, Note_on_c, 0, 45, 0
2, 10968, Control_c, 0, 64, 0
2, 11014, Note_on_c, 0, 90, 60
2, 11016, Note_on_c, 0, 86, 60
2, 11016, Note_on_c, 0, 78, 60
2, 11018, Note_on_c, 0, 89, 0
2, 11018, Note_on_c, 0, 77, 0
2, 11018, Note_on_c, 0, 57, 60
2, 11018, Note_on_c, 0, 62, 60
2, 11018, Note_on_c, 0, 54, 60
2, 11031, Note_on_c, 0, 86, 0
2, 11031, Note_on_c, 0, 90, 0
2, 11046, Note_on_c, 0, 78, 0
2, 11067, Note_on_c, 0, 93, 60
2, 11069, Note_on_c, 0, 86, 60
2, 11069, Note_on_c, 0, 90, 60
2, 11069, Note_on_c, 0, 81, 60
2, 11074, Note_on_c, 0, 57, 0
2, 11074, Note_on_c, 0, 62, 0
2, 11074, Note_on_c, 0, 54, 0
2, 11125, Note_on_c, 0, 42, 60
2, 11138, Note_on_c, 0, 90, 0
2, 11153, Note_on_c, 0, 81, 0
2, 11170, Note_on_c, 0, 42, 0
2, 11179, Note_on_c, 0, 74, 60
2, 11181, Note_on_c, 0, 93, 0
2, 11219, Note_on_c, 0, 74, 0
2, 11230, Note_on_c, 0, 90, 60
2, 11230, Note_on_c, 0, 78, 60
2, 11232, Note_on_c, 0, 62, 60
2, 11232, Note_on_c, 0, 54, 60
2, 11234, Note_on_c, 0, 86, 0
2, 11234, Note_on_c, 0, 57, 60
2, 11283, Note_on_c, 0, 93, 60
2, 11283, Note_on_c, 0, 81, 60
2, 11288, Note_on_c, 0, 90, 0
2, 11290, Note_on_c, 0, 57, 0
2, 11290, Note_on_c, 0, 62, 0
2, 11290, Note_on_c, 0, 54, 0
2, 11290, Note_on_c, 0, 78, 0
2, 11339, Note_on_c, 0, 85, 60
2, 11339, Note_on_c, 0, 95, 60
2, 11339, Note_on_c, 0, 83, 60
2, 11341, Note_on_c, 0, 81, 0
2, 11341, Note_on_c, 0, 93, 0
2, 11344, Note_on_c, 0, 40, 60
2, 11356, Control_c, 0, 64, 127
2, 11380, Note_on_c, 0, 83, 0
2, 11388, Note_on_c, 0, 91, 60
2, 11391, Note_on_c, 0, 79, 60
2, 11393, Note_on_c, 0, 95, 0
2, 11397, Note_on_c, 0, 40, 0
2, 11412, Control_c, 0, 64, 0
2, 11433, Note_on_c, 0, 91, 0
2, 11433, Note_on_c, 0, 79, 0
2, 11442, Note_on_c, 0, 88, 60
2, 11442, Note_on_c, 0, 76, 60
2, 11444, Note_on_c, 0, 61, 60
2, 11447, Note_on_c, 0, 85, 0
2, 11447, Note_on_c, 0, 57, 60
2, 11447, Note_on_c, 0, 55, 60
2, 11496, Note_on_c, 0, 85, 60
2, 11497, Note_on_c, 0, 73, 60
2, 11499, Note_on_c, 0, 55, 0
2, 11499, Note_on_c, 0, 88, 0
2, 11499, Note_on_c, 0, 61, 0
2, 11499, Note_on_c, 0, 76, 0
2, 11502, Note_on_c, 0, 57, 0
2, 11553, Note_on_c, 0, 45, 60
2, 11579, Note_on_c, 0, 73, 0
2, 11579, Note_on_c, 0, 85, 0
2, 11616, Note_on_c, 0, 81, 60
2, 11617, Note_on_c, 0, 69, 60
2, 11624, Note_on_c, 0, 45, 0
2, 11656, Note_on_c, 0, 83, 60
2, 11656, Note_on_c, 0, 71, 60
2, 11658, Note_on_c, 0, 61, 60
2, 11658, Note_on_c, 0, 79, 60
2, 11658, Note_on_c, 0, 55, 60
2, 11661, Note_on_c, 0, 69, 0
2, 11661, Note_on_c, 0, 57, 60
2, 11673, Note_on_c, 0, 81, 0
2, 11708, Note_on_c, 0, 85, 60
2, 11708, Note_on_c, 0, 73, 60
2, 11712, Note_on_c, 0, 83, 0
2, 11712, Note_on_c, 0, 71, 0
2, 11712, Note_on_c, 0, 61, 0
2, 11712, Note_on_c, 0, 57, 0
2, 11725, Note_on_c, 0, 55, 0
2, 11750, Control_c, 0, 64, 127
2, 11759, Note_on_c, 0, 86, 60
2, 11759, Note_on_c, 0, 78, 60
2, 11760, Note_on_c, 0, 57, 60
2, 11760, Note_on_c, 0, 62, 60
2, 11760, Note_on_c, 0, 74, 60
2, 11760, Note_on_c, 0, 50, 60
2, 11763, Note_on_c, 0, 85, 0
2, 11763, Note_on_c, 0, 73, 0
2, 11763, Note_on_c, 0, 79, 0
2, 11814, Note_on_c, 0, 50, 0
2, 11814, Note_on_c, 0, 57, 0
2, 11814, Note_on_c, 0, 48, 60
2, 11814, Note_on_c, 0, 60, 60
2, 11816, Note_on_c, 0, 62, 0
2, 11866, Note_on_c, 0, 57, 60
2, 11866, Note_on_c, 0, 45, 60
2, 11868, Note_on_c, 0, 60, 0
2, 11880, Note_on_c, 0, 48, 0
2, 11883, Control_c, 0, 64, 0
2, 11917, Note_on_c, 0, 52, 60
2, 11917, Note_on_c, 0, 40, 60
2, 11919, Note_on_c, 0, 57, 0
2, 11919, Note_on_c, 0, 45, 0
2, 11971, Note_on_c, 0, 50, 60
2, 11971, Note_on_c, 0, 38, 60
2, 11973, Note_on_c, 0, 52, 0
2, 11973, Note_on_c, 0, 40, 0
2, 12011, Note_on_c, 0, 74, 0
2, 12011, Note_on_c, 0, 78, 0
2, 12011, Note_on_c, 0, 50, 0
2, 12014, Note_on_c, 0, 38, 0
2, 12014, Note_on_c, 0, 35, 60
2, 12024, Note_on_c, 0, 86, 0
2, 12026, Note_on_c, 0, 47, 60
2, 12075, Note_on_c, 0, 79, 60
2, 12077, Note_on_c, 0, 67, 60
2, 12080, Note_on_c, 0, 45, 60
2, 12082, Note_on_c, 0, 47, 0
2, 12082, Note_on_c, 0, 33, 60
2, 12084, Note_on_c, 0, 35, 0
2, 12131, Note_on_c, 0, 83, 60
2, 12133, Note_on_c, 0, 79, 0
2, 12133, Note_on_c, 0, 71, 60
2, 12136, Note_on_c, 0, 67, 0
2, 12136, Note_on_c, 0, 47, 60
2, 12138, Note_on_c, 0, 45, 0
2, 12138, Note_on_c, 0, 33, 0
2, 12138, Note_on_c, 0, 35, 60
2, 12148, Note_on_c, 0, 83, 0
2, 12185, Note_on_c, 0, 86, 60
2, 12185, Note_on_c, 0, 83, 60
2, 12187, Note_on_c, 0, 79, 60
2, 12187, Note_on_c, 0, 74, 60
2, 12189, Note_on_c, 0, 71, 0
2, 12192, Note_on_c, 0, 47, 0
2, 12192, Note_on_c, 0, 31, 60
2, 12192, Note_on_c, 0, 43, 60
2, 12192, Control_c, 0, 64, 127
2, 12193, Note_on_c, 0, 35, 0
2, 12247, Control_c, 0, 64, 0
2, 12294, Note_on_c, 0, 59, 60
2, 12296, Note_on_c, 0, 55, 60
2, 12296, Note_on_c, 0, 50, 60
2, 12335, Note_on_c, 0, 83, 0
2, 12336, Note_on_c, 0, 59, 0
2, 12336, Note_on_c, 0, 79, 0
2, 12347, Note_on_c, 0, 86, 0
2, 12352, Note_on_c, 0, 50, 0
2, 12354, Note_on_c, 0, 55, 0
2, 12362, Note_on_c, 0, 74, 0
2, 12364, Note_on_c, 0, 43, 0
2, 12366, Note_on_c, 0, 31, 0
2, 12399, Note_on_c, 0, 91, 60
2, 12399, Note_on_c, 0, 83, 60
2, 12401, Note_on_c, 0, 79, 60
2, 12403, Note_on_c, 0, 38, 60
2, 12403, Note_on_c, 0, 26, 60
2, 12505, Note_on_c, 0, 59, 60
2, 12505, Note_on_c, 0, 55, 60
2, 12508, Note_on_c, 0, 50, 60
2, 12547, Note_on_c, 0, 59, 0
2, 12559, Note_on_c, 0, 50, 0
2, 12559, Note_on_c, 0, 55, 0
2, 12572, Note_on_c, 0, 83, 0
2, 12572, Note_on_c, 0, 79, 0
2, 12583, Note_on_c, 0, 91, 0
2, 12587, Note_on_c, 0, 38, 0
2, 12602, Note_on_c, 0, 26, 0
2, 12606, Note_on_c, 0, 83, 60
2, 12606, Note_on_c, 0, 79, 60
2, 12608, Note_on_c, 0, 71, 60
2, 12613, Note_on_c, 0, 43, 60
2, 12613, Note_on_c, 0, 31, 60
2, 12627, Control_c, 0, 64, 127
2, 12664, Note_on_c, 0, 70, 60
2, 12667, Note_on_c, 0, 71, 0
2, 12667, Note_on_c, 0, 83, 0
2, 12667, Note_on_c, 0, 79, 0
2, 12669, Note_on_c, 0, 43, 0
2, 12669, Note_on_c, 0, 31, 0
2, 12675, Note_on_c, 0, 82, 60
2, 12718, Note_on_c, 0, 79, 60
2, 12718, Note_on_c, 0, 83, 60
2, 12718, Note_on_c, 0, 71, 60
2, 12720, Note_on_c, 0, 82, 0
2, 12720, Note_on_c, 0, 70, 0
2, 12720, Note_on_c, 0, 55, 60
2, 12720, Note_on_c, 0, 59, 60
2, 12720, Note_on_c, 0, 50, 60
2, 12726, Control_c, 0, 64, 0
2, 12733, Note_on_c, 0, 83, 0
2, 12733, Note_on_c, 0, 79, 0
2, 12761, Note_on_c, 0, 59, 0
2, 12769, Note_on_c, 0, 86, 60
2, 12769, Note_on_c, 0, 83, 60
2, 12771, Note_on_c, 0, 77, 60
2, 12771, Note_on_c, 0, 79, 60
2, 12771, Note_on_c, 0, 74, 60
2, 12773, Note_on_c, 0, 71, 0
2, 12775, Note_on_c, 0, 55, 0
2, 12775, Note_on_c, 0, 50, 0
2, 12812, Note_on_c, 0, 77, 0
2, 12812, Note_on_c, 0, 83, 0
2, 12812, Note_on_c, 0, 74, 0
2, 12812, Note_on_c, 0, 79, 0
2, 12825, Note_on_c, 0, 86, 0
2, 12825, Note_on_c, 0, 47, 60
2, 12827, Note_on_c, 0, 35, 60
2, 12872, Note_on_c, 0, 86, 60
2, 12872, Note_on_c, 0, 83, 60
2, 12874, Note_on_c, 0, 77, 60
2, 12874, Note_on_c, 0, 79, 60
2, 12874, Note_on_c, 0, 74, 60
2, 12878, Note_on_c, 0, 47, 0
2, 12881, Note_on_c, 0, 35, 0
2, 12928, Note_on_c, 0, 59, 60
2, 12928, Note_on_c, 0, 55, 60
2, 12930, Note_on_c, 0, 50, 60
2, 12953, Note_on_c, 0, 83, 0
2, 12966, Note_on_c, 0, 86, 0
2, 12966, Note_on_c, 0, 79, 0
2, 12966, Note_on_c, 0, 77, 0
2, 12966, Note_on_c, 0, 74, 0
2, 12977, Note_on_c, 0, 88, 60
2, 12977, Note_on_c, 0, 76, 60
2, 12981, Note_on_c, 0, 59, 0
2, 12994, Note_on_c, 0, 76, 0
2, 12996, Note_on_c, 0, 50, 0
2, 12996, Note_on_c, 0, 55, 0
2, 13026, Control_c, 0, 64, 127
2, 13031, Note_on_c, 0, 86, 60
2, 13031, Note_on_c, 0, 74, 60
2, 13032, Note_on_c, 0, 79, 60
2, 13032, Note_on_c, 0, 76, 60
2, 13034, Note_on_c, 0, 88, 0
2, 13034, Note_on_c, 0, 48, 60
2, 13036, Note_on_c, 0, 36, 60
2, 13081, Note_on_c, 0, 84, 60
2, 13083, Note_on_c, 0, 72, 60
2, 13086, Note_on_c, 0, 86, 0
2, 13086, Note_on_c, 0, 74, 0
2, 13088, Note_on_c, 0, 48, 0
2, 13088, Note_on_c, 0, 36, 0
2, 13118, Control_c, 0, 64, 0
2, 13125, Note_on_c, 0, 79, 0
2, 13135, Note_on_c, 0, 60, 60
2, 13137, Note_on_c, 0, 76, 0
2, 13137, Note_on_c, 0, 55, 60
2, 13137, Note_on_c, 0, 52, 60
2, 13163, Note_on_c, 0, 84, 0
2, 13176, Note_on_c, 0, 72, 0
2, 13184, Note_on_c, 0, 79, 60
2, 13186, Note_on_c, 0, 76, 60
2, 13186, Note_on_c, 0, 67, 60
2, 13191, Note_on_c, 0, 52, 0
2, 13191, Note_on_c, 0, 60, 0
2, 13201, Note_on_c, 0, 55, 0
2, 13245, Note_on_c, 0, 48, 60
2, 13245, Note_on_c, 0, 36, 60
2, 13257, Note_on_c, 0, 79, 0
2, 13270, Note_on_c, 0, 76, 0
2, 13270, Note_on_c, 0, 67, 0
2, 13296, Note_on_c, 0, 81, 60
2, 13296, Note_on_c, 0, 75, 60
2, 13297, Note_on_c, 0, 69, 60
2, 13302, Note_on_c, 0, 36, 0
2, 13315, Note_on_c, 0, 48, 0
2, 13353, Note_on_c, 0, 60, 60
2, 13353, Note_on_c, 0, 55, 60
2, 13356, Note_on_c, 0, 51, 60
2, 13379, Note_on_c, 0, 81, 0
2, 13384, Note_on_c, 0, 69, 0
2, 13405, Note_on_c, 0, 79, 60
2, 13407, Note_on_c, 0, 67, 60
2, 13409, Note_on_c, 0, 55, 0
2, 13409, Note_on_c, 0, 60, 0
2, 13435, Note_on_c, 0, 75, 0
2, 13437, Note_on_c, 0, 51, 0
2, 13459, Note_on_c, 0, 74, 60
2, 13461, Note_on_c, 0, 83, 60
2, 13463, Note_on_c, 0, 79, 0
2, 13463, Note_on_c, 0, 71, 60
2, 13464, Note_on_c, 0, 67, 0
2, 13464, Note_on_c, 0, 43, 60
2, 13464, Note_on_c, 0, 31, 60
2, 13501, Note_on_c, 0, 83, 0
2, 13512, Note_on_c, 0, 79, 60
2, 13514, Note_on_c, 0, 67, 60
2, 13516, Note_on_c, 0, 71, 0
2, 13516, Note_on_c, 0, 74, 0
2, 13518, Note_on_c, 0, 31, 0
2, 13518, Note_on_c, 0, 43, 0
2, 13555, Note_on_c, 0, 79, 0
2, 13567, Note_on_c, 0, 55, 60
2, 13567, Note_on_c, 0, 59, 60
2, 13567, Note_on_c, 0, 64, 60
2, 13567, Note_on_c, 0, 76, 60
2, 13567, Note_on_c, 0, 50, 60
2, 13570, Note_on_c, 0, 67, 0
2, 13619, Note_on_c, 0, 74, 60
2, 13621, Note_on_c, 0, 62, 60
2, 13623, Note_on_c, 0, 76, 0
2, 13623, Note_on_c, 0, 64, 0
2, 13623, Note_on_c, 0, 50, 0
2, 13625, Note_on_c, 0, 59, 0
2, 13636, Note_on_c, 0, 55, 0
2, 13673, Note_on_c, 0, 59, 60
2, 13675, Note_on_c, 0, 55, 60
2, 13675, Note_on_c, 0, 50, 60
2, 13715, Note_on_c, 0, 59, 0
2, 13717, Note_on_c, 0, 74, 0
2, 13724, Note_on_c, 0, 83, 60
2, 13728, Note_on_c, 0, 71, 60
2, 13730, Note_on_c, 0, 55, 0
2, 13732, Note_on_c, 0, 62, 0
2, 13732, Note_on_c, 0, 50, 0
2, 13779, Note_on_c, 0, 82, 60
2, 13781, Note_on_c, 0, 70, 60
2, 13783, Note_on_c, 0, 83, 0
2, 13783, Note_on_c, 0, 71, 0
2, 13831, Note_on_c, 0, 83, 60
2, 13835, Note_on_c, 0, 71, 60
2, 13837, Note_on_c, 0, 82, 0
2, 13837, Note_on_c, 0, 70, 0
2, 13850, Note_on_c, 0, 83, 0
2, 13865, Note_on_c, 0, 71, 0
2, 13882, Note_on_c, 0, 83, 60
2, 13884, Note_on_c, 0, 87, 60
2, 13886, Note_on_c, 0, 75, 60
2, 13889, Note_on_c, 0, 54, 60
2, 13891, Note_on_c, 0, 42, 60
2, 13903, Control_c, 0, 64, 127
2, 13993, Note_on_c, 0, 59, 60
2, 13993, Note_on_c, 0, 57, 60
2, 13997, Control_c, 0, 64, 0
2, 14021, Note_on_c, 0, 83, 0
2, 14032, Note_on_c, 0, 87, 0
2, 14032, Note_on_c, 0, 75, 0
2, 14034, Note_on_c, 0, 57, 0
2, 14034, Note_on_c, 0, 59, 0
2, 14079, Note_on_c, 0, 54, 0
2, 14079, Note_on_c, 0, 42, 0
2, 14098, Note_on_c, 0, 90, 60
2, 14100, Note_on_c, 0, 83, 60
2, 14100, Note_on_c, 0, 87, 60
2, 14100, Note_on_c, 0, 78, 60
2, 14103, Note_on_c, 0, 47, 60
2, 14105, Note_on_c, 0, 35, 60
2, 14209, Note_on_c, 0, 59, 60
2, 14209, Note_on_c, 0, 57, 60
2, 14256, Note_on_c, 0, 93, 60
2, 14258, Note_on_c, 0, 81, 60
2, 14261, Note_on_c, 0, 87, 0
2, 14261, Note_on_c, 0, 90, 0
2, 14261, Note_on_c, 0, 83, 0
2, 14265, Note_on_c, 0, 59, 0
2, 14274, Note_on_c, 0, 93, 0
2, 14274, Note_on_c, 0, 78, 0
2, 14274, Note_on_c, 0, 81, 0
2, 14274, Note_on_c, 0, 57, 0
2, 14289, Note_on_c, 0, 47, 0
2, 14289, Note_on_c, 0, 35, 0
2, 14304, Control_c, 0, 64, 127
2, 14308, Note_on_c, 0, 83, 60
2, 14308, Note_on_c, 0, 93, 60
2, 14308, Note_on_c, 0, 88, 60
2, 14310, Note_on_c, 0, 81, 60
2, 14312, Note_on_c, 0, 52, 60
2, 14312, Note_on_c, 0, 40, 60
2, 14361, Note_on_c, 0, 91, 60
2, 14361, Note_on_c, 0, 79, 60
2, 14364, Note_on_c, 0, 93, 0
2, 14366, Note_on_c, 0, 52, 0
2, 14366, Note_on_c, 0, 81, 0
2, 14368, Note_on_c, 0, 40, 0
2, 14398, Control_c, 0, 64, 0
2, 14415, Note_on_c, 0, 90, 60
2, 14417, Note_on_c, 0, 78, 60
2, 14420, Note_on_c, 0, 91, 0
2, 14420, Note_on_c, 0, 79, 0
2, 14420, Note_on_c, 0, 59, 60
2, 14420, Note_on_c, 0, 55, 60
2, 14458, Note_on_c, 0, 90, 0
2, 14460, Note_on_c, 0, 88, 0
2, 14460, Note_on_c, 0, 83, 0
2, 14460, Note_on_c, 0, 78, 0
2, 14462, Note_on_c, 0, 59, 0
2, 14469, Note_on_c, 0, 91, 60
2, 14471, Note_on_c, 0, 82, 60
2, 14471, Note_on_c, 0, 79, 60
2, 14475, Note_on_c, 0, 55, 0
2, 14526, Note_on_c, 0, 91, 0
2, 14528, Note_on_c, 0, 79, 0
2, 14528, Note_on_c, 0, 49, 60
2, 14528, Note_on_c, 0, 37, 60
2, 14575, Note_on_c, 0, 91, 60
2, 14575, Note_on_c, 0, 79, 60
2, 14582, Note_on_c, 0, 37, 0
2, 14582, Note_on_c, 0, 49, 0
2, 14618, Note_on_c, 0, 79, 0
2, 14618, Note_on_c, 0, 91, 0
2, 14629, Note_on_c, 0, 90, 60
2, 14629, Note_on_c, 0, 78, 60
2, 14631, Note_on_c, 0, 58, 60
2, 14631, Note_on_c, 0, 55, 60
2, 14634, Note_on_c, 0, 52, 60
2, 14683, Note_on_c, 0, 90, 0
2, 14683, Note_on_c, 0, 88, 60
2, 14683, Note_on_c, 0, 76, 60
2, 14685, Note_on_c, 0, 55, 0
2, 14685, Note_on_c, 0, 82, 0
2, 14685, Note_on_c, 0, 58, 0
2, 14685, Note_on_c, 0, 78, 0
2, 14687, Note_on_c, 0, 52, 0
2, 14698, Note_on_c, 0, 76, 0
2, 14698, Note_on_c, 0, 88, 0
2, 14734, Note_on_c, 0, 83, 60
2, 14734, Note_on_c, 0, 88, 60
2, 14734, Note_on_c, 0, 76, 60
2, 14738, Note_on_c, 0, 38, 60
2, 14738, Note_on_c, 0, 50, 60
2, 14738, Control_c, 0, 64, 127
2, 14779, Note_on_c, 0, 88, 0
2, 14781, Note_on_c, 0, 38, 0
2, 14781, Note_on_c, 0, 50, 0
2, 14787, Note_on_c, 0, 86, 60
2, 14787, Note_on_c, 0, 74, 60
2, 14792, Note_on_c, 0, 76, 0
2, 14836, Control_c, 0, 64, 0
2, 14843, Note_on_c, 0, 59, 60
2, 14843, Note_on_c, 0, 73, 60
2, 14843, Note_on_c, 0, 85, 60
2, 14843, Note_on_c, 0, 55, 60
2, 14845, Note_on_c, 0, 83, 0
2, 14845, Note_on_c, 0, 74, 0
2, 14845, Note_on_c, 0, 86, 0
2, 14890, Note_on_c, 0, 74, 60
2, 14892, Note_on_c, 0, 86, 60
2, 14895, Note_on_c, 0, 85, 0
2, 14897, Note_on_c, 0, 55, 0
2, 14897, Note_on_c, 0, 59, 0
2, 14897, Note_on_c, 0, 73, 0
2, 14948, Note_on_c, 0, 50, 60
2, 14948, Note_on_c, 0, 38, 60
2, 14961, Note_on_c, 0, 74, 0
2, 14974, Note_on_c, 0, 86, 0
2, 14995, Note_on_c, 0, 84, 60
2, 14998, Note_on_c, 0, 72, 60
2, 15001, Note_on_c, 0, 50, 0
2, 15001, Note_on_c, 0, 38, 0
2, 15048, Note_on_c, 0, 81, 60
2, 15048, Note_on_c, 0, 69, 60
2, 15050, Note_on_c, 0, 84, 0
2, 15050, Note_on_c, 0, 57, 60
2, 15050, Note_on_c, 0, 60, 60
2, 15050, Note_on_c, 0, 54, 60
2, 15053, Note_on_c, 0, 72, 0
2, 15100, Note_on_c, 0, 78, 60
2, 15102, Note_on_c, 0, 81, 0
2, 15102, Note_on_c, 0, 66, 60
2, 15104, Note_on_c, 0, 60, 0
2, 15104, Note_on_c, 0, 69, 0
2, 15104, Note_on_c, 0, 57, 0
2, 15106, Note_on_c, 0, 54, 0
2, 15132, Control_c, 0, 64, 127
2, 15156, Note_on_c, 0, 79, 60
2, 15158, Note_on_c, 0, 59, 60
2, 15158, Note_on_c, 0, 67, 60
2, 15158, Note_on_c, 0, 55, 60
2, 15160, Note_on_c, 0, 78, 0
2, 15160, Note_on_c, 0, 66, 0
2, 15201, Note_on_c, 0, 59, 0
2, 15214, Note_on_c, 0, 67, 0
2, 15214, Note_on_c, 0, 79, 0
2, 15216, Note_on_c, 0, 55, 0
2, 15228, Control_c, 0, 64, 0
2, 15261, Note_on_c, 0, 86, 60
2, 15261, Note_on_c, 0, 74, 60
2, 15278, Note_on_c, 0, 86, 0
2, 15280, Note_on_c, 0, 74, 0
2, 15314, Note_on_c, 0, 86, 60
2, 15314, Note_on_c, 0, 74, 60
2, 15332, Note_on_c, 0, 86, 0
2, 15334, Note_on_c, 0, 74, 0
2, 15365, Note_on_c, 0, 86, 60
2, 15367, Note_on_c, 0, 74, 60
2, 15370, Note_on_c, 0, 59, 60
2, 15370, Note_on_c, 0, 47, 60
2, 15421, Note_on_c, 0, 57, 60
2, 15423, Note_on_c, 0, 59, 0
2, 15423, Note_on_c, 0, 86, 0
2, 15423, Note_on_c, 0, 45, 60
2, 15426, Note_on_c, 0, 74, 0
2, 15426, Note_on_c, 0, 47, 0
2, 15464, Note_on_c, 0, 57, 0
2, 15473, Note_on_c, 0, 83, 60
2, 15475, Note_on_c, 0, 77, 60
2, 15475, Note_on_c, 0, 74, 60
2, 15477, Note_on_c, 0, 56, 60
2, 15477, Note_on_c, 0, 44, 60
2, 15479, Note_on_c, 0, 45, 0
2, 15517, Note_on_c, 0, 56, 0
2, 15517, Note_on_c, 0, 74, 0
2, 15517, Note_on_c, 0, 83, 0
2, 15517, Note_on_c, 0, 77, 0
2, 15520, Note_on_c, 0, 44, 0
2, 15526, Note_on_c, 0, 59, 60
2, 15530, Note_on_c, 0, 47, 60
2, 15571, Control_c, 0, 64, 127
2, 15577, Note_on_c, 0, 84, 60
2, 15579, Note_on_c, 0, 78, 60
2, 15579, Note_on_c, 0, 74, 60
2, 15581, Note_on_c, 0, 57, 60
2, 15584, Note_on_c, 0, 47, 0
2, 15584, Note_on_c, 0, 59, 0
2, 15584, Note_on_c, 0, 45, 60
2, 15633, Note_on_c, 0, 59, 60
2, 15635, Note_on_c, 0, 57, 0
2, 15635, Note_on_c, 0, 47, 60
2, 15637, Note_on_c, 0, 45, 0
2, 15668, Control_c, 0, 64, 0
2, 15689, Note_on_c, 0, 60, 60
2, 15691, Note_on_c, 0, 54, 60
2, 15691, Note_on_c, 0, 48, 60
2, 15703, Note_on_c, 0, 59, 0
2, 15706, Note_on_c, 0, 47, 0
2, 15770, Note_on_c, 0, 54, 0
2, 15783, Note_on_c, 0, 60, 0
2, 15785, Note_on_c, 0, 48, 0
2, 15795, Note_on_c, 0, 54, 60
2, 15795, Note_on_c, 0, 42, 60
2, 15847, Note_on_c, 0, 68, 60
2, 15847, Note_on_c, 0, 71, 60
2, 15847, Note_on_c, 0, 59, 60
2, 15849, Note_on_c, 0, 54, 0
2, 15849, Note_on_c, 0, 74, 0
2, 15849, Note_on_c, 0, 84, 0
2, 15849, Note_on_c, 0, 78, 0
2, 15851, Note_on_c, 0, 42, 0
2, 15889, Note_on_c, 0, 59, 0
2, 15901, Note_on_c, 0, 72, 60
2, 15901, Note_on_c, 0, 69, 60
2, 15903, Note_on_c, 0, 68, 0
2, 15903, Note_on_c, 0, 71, 0
2, 15903, Note_on_c, 0, 54, 60
2, 15903, Note_on_c, 0, 60, 60
2, 15903, Note_on_c, 0, 50, 60
2, 15941, Note_on_c, 0, 50, 0
2, 15941, Note_on_c, 0, 54, 0
2, 15941, Note_on_c, 0, 60, 0
2, 15967, Note_on_c, 0, 72, 0
2, 15967, Note_on_c, 0, 69, 0
2, 15990, Control_c, 0, 64, 127
2, 16004, Note_on_c, 0, 50, 60
2, 16004, Note_on_c, 0, 65, 60
2, 16004, Note_on_c, 0, 68, 60
2, 16004, Note_on_c, 0, 38, 60
2, 16006, Note_on_c, 0, 56, 60
2, 16053, Note_on_c, 0, 69, 60
2, 16055, Note_on_c, 0, 66, 60
2, 16055, Note_on_c, 0, 57, 60
2, 16056, Note_on_c, 0, 56, 0
2, 16056, Note_on_c, 0, 38, 0
2, 16056, Note_on_c, 0, 68, 0
2, 16056, Note_on_c, 0, 50, 0
2, 16082, Note_on_c, 0, 65, 0
2, 16106, Note_on_c, 0, 60, 60
2, 16108, Note_on_c, 0, 54, 60
2, 16108, Note_on_c, 0, 50, 60
2, 16121, Note_on_c, 0, 66, 0
2, 16121, Note_on_c, 0, 69, 0
2, 16123, Note_on_c, 0, 57, 0
2, 16123, Control_c, 0, 64, 0
2, 16159, Note_on_c, 0, 68, 60
2, 16159, Note_on_c, 0, 71, 60
2, 16159, Note_on_c, 0, 59, 60
2, 16162, Note_on_c, 0, 60, 0
2, 16162, Note_on_c, 0, 54, 0
2, 16162, Note_on_c, 0, 50, 0
2, 16213, Note_on_c, 0, 72, 60
2, 16213, Note_on_c, 0, 69, 60
2, 16215, Note_on_c, 0, 71, 0
2, 16215, Note_on_c, 0, 54, 60
2, 16215, Note_on_c, 0, 60, 60
2, 16215, Note_on_c, 0, 42, 60
2, 16218, Note_on_c, 0, 68, 0
2, 16218, Note_on_c, 0, 59, 0
2, 16256, Note_on_c, 0, 54, 0
2, 16256, Note_on_c, 0, 60, 0
2, 16258, Note_on_c, 0, 42, 0
2, 16271, Note_on_c, 0, 72, 0
2, 16284, Note_on_c, 0, 69, 0
2, 16318, Note_on_c, 0, 76, 60
2, 16320, Note_on_c, 0, 60, 60
2, 16320, Note_on_c, 0, 64, 60
2, 16320, Note_on_c, 0, 72, 60
2, 16320, Note_on_c, 0, 54, 60
2, 16322, Note_on_c, 0, 50, 60
2, 16373, Note_on_c, 0, 50, 0
2, 16373, Note_on_c, 0, 60, 0
2, 16373, Note_on_c, 0, 54, 0
2, 16410, Note_on_c, 0, 64, 0
2, 16420, Note_on_c, 0, 73, 60
2, 16423, Note_on_c, 0, 43, 60
2, 16423, Note_on_c, 0, 55, 60
2, 16423, Note_on_c, 0, 61, 60
2, 16423, Note_on_c, 0, 70, 60
2, 16423, Control_c, 0, 64, 127
2, 16425, Note_on_c, 0, 76, 0
2, 16438, Note_on_c, 0, 72, 0
2, 16472, Note_on_c, 0, 74, 60
2, 16474, Note_on_c, 0, 71, 60
2, 16474, Note_on_c, 0, 62, 60
2, 16476, Note_on_c, 0, 73, 0
2, 16476, Note_on_c, 0, 61, 0
2, 16476, Note_on_c, 0, 43, 0
2, 16476, Note_on_c, 0, 55, 0
2, 16476, Note_on_c, 0, 70, 0
2, 16521, Control_c, 0, 64, 0
2, 16528, Note_on_c, 0, 59, 60
2, 16528, Note_on_c, 0, 55, 60
2, 16530, Note_on_c, 0, 74, 0
2, 16530, Note_on_c, 0, 71, 0
2, 16530, Note_on_c, 0, 50, 60
2, 16532, Note_on_c, 0, 62, 0
2, 16582, Note_on_c, 0, 71, 60
2, 16582, Note_on_c, 0, 79, 60
2, 16582, Note_on_c, 0, 74, 60
2, 16584, Note_on_c, 0, 59, 0
2, 16585, Note_on_c, 0, 50, 0
2, 16594, Note_on_c, 0, 83, 60
2, 16598, Note_on_c, 0, 55, 0
2, 16639, Note_on_c, 0, 79, 0
2, 16639, Note_on_c, 0, 50, 60
2, 16639, Note_on_c, 0, 38, 60
2, 16652, Note_on_c, 0, 83, 0
2, 16665, Note_on_c, 0, 71, 0
2, 16667, Note_on_c, 0, 74, 0
2, 16688, Note_on_c, 0, 73, 60
2, 16688, Note_on_c, 0, 79, 60
2, 16688, Note_on_c, 0, 82, 60
2, 16688, Note_on_c, 0, 70, 60
2, 16690, Note_on_c, 0, 50, 0
2, 16693, Note_on_c, 0, 38, 0
2, 16705, Note_on_c, 0, 79, 0
2, 16742, Note_on_c, 0, 74, 60
2, 16742, Note_on_c, 0, 83, 60
2, 16742, Note_on_c, 0, 71, 60
2, 16744, Note_on_c, 0, 73, 0
2, 16744, Note_on_c, 0, 82, 0
2, 16744, Note_on_c, 0, 70, 0
2, 16744, Note_on_c, 0, 79, 60
2, 16744, Note_on_c, 0, 59, 60
2, 16746, Note_on_c, 0, 55, 60
2, 16746, Note_on_c, 0, 50, 60
2, 16759, Note_on_c, 0, 79, 0
2, 16759, Note_on_c, 0, 71, 0
2, 16761, Note_on_c, 0, 74, 0
2, 16796, Note_on_c, 0, 74, 60
2, 16798, Note_on_c, 0, 71, 60
2, 16798, Note_on_c, 0, 79, 60
2, 16798, Note_on_c, 0, 67, 60
2, 16800, Note_on_c, 0, 83, 0
2, 16801, Note_on_c, 0, 55, 0
2, 16801, Note_on_c, 0, 50, 0
2, 16801, Note_on_c, 0, 59, 0
2, 16857, Note_on_c, 0, 55, 60
2, 16859, Note_on_c, 0, 43, 60
2, 16872, Note_on_c, 0, 74, 0
2, 16872, Note_on_c, 0, 79, 0
2, 16872, Control_c, 0, 64, 127
2, 16885, Note_on_c, 0, 67, 0
2, 16885, Note_on_c, 0, 71, 0
2, 16907, Note_on_c, 0, 78, 60
2, 16911, Note_on_c, 0, 54, 60
2, 16911, Note_on_c, 0, 66, 60
2, 16911, Note_on_c, 0, 42, 60
2, 16915, Note_on_c, 0, 43, 0
2, 16915, Note_on_c, 0, 55, 0
2, 16965, Note_on_c, 0, 74, 60
2, 16967, Note_on_c, 0, 71, 60
2, 16967, Note_on_c, 0, 79, 60
2, 16967, Note_on_c, 0, 67, 60
2, 16968, Note_on_c, 0, 66, 0
2, 16968, Note_on_c, 0, 54, 0
2, 16968, Note_on_c, 0, 78, 0
2, 16968, Note_on_c, 0, 53, 60
2, 16968, Note_on_c, 0, 41, 60
2, 16970, Note_on_c, 0, 42, 0
2, 16973, Control_c, 0, 64, 0
2, 17017, Note_on_c, 0, 55, 60
2, 17017, Note_on_c, 0, 43, 60
2, 17020, Note_on_c, 0, 53, 0
2, 17020, Note_on_c, 0, 41, 0
2, 17048, Note_on_c, 0, 71, 0
2, 17048, Note_on_c, 0, 67, 0
2, 17048, Note_on_c, 0, 74, 0
2, 17048, Note_on_c, 0, 79, 0
2, 17069, Note_on_c, 0, 78, 60
2, 17071, Note_on_c, 0, 66, 60
2, 17071, Note_on_c, 0, 52, 60
2, 17073, Note_on_c, 0, 43, 0
2, 17073, Note_on_c, 0, 40, 60
2, 17087, Note_on_c, 0, 55, 0
2, 17121, Note_on_c, 0, 74, 60
2, 17123, Note_on_c, 0, 67, 60
2, 17123, Note_on_c, 0, 71, 60
2, 17123, Note_on_c, 0, 79, 60
2, 17123, Note_on_c, 0, 51, 60
2, 17125, Note_on_c, 0, 52, 0
2, 17125, Note_on_c, 0, 66, 0
2, 17125, Note_on_c, 0, 78, 0
2, 17125, Note_on_c, 0, 39, 60
2, 17127, Note_on_c, 0, 40, 0
2, 17176, Note_on_c, 0, 50, 60
2, 17176, Note_on_c, 0, 38, 60
2, 17179, Note_on_c, 0, 39, 0
2, 17181, Note_on_c, 0, 67, 0
2, 17191, Note_on_c, 0, 51, 0
2, 17204, Note_on_c, 0, 71, 0
2, 17204, Note_on_c, 0, 74, 0
2, 17204, Note_on_c, 0, 79, 0
2, 17230, Note_on_c, 0, 49, 60
2, 17230, Note_on_c, 0, 55, 60
2, 17230, Note_on_c, 0, 67, 60
2, 17230, Note_on_c, 0, 37, 60
2, 17232, Note_on_c, 0, 50, 0
2, 17232, Note_on_c, 0, 38, 0
2, 17283, Note_on_c, 0, 48, 60
2, 17283, Note_on_c, 0, 36, 60
2, 17285, Note_on_c, 0, 49, 0
2, 17296, Note_on_c, 0, 55, 0
2, 17296, Note_on_c, 0, 67, 0
2, 17299, Note_on_c, 0, 37, 0
2, 17309, Control_c, 0, 64, 127
2, 17334, Note_on_c, 0, 67, 60
2, 17337, Note_on_c, 0, 55, 60
2, 17352, Note_on_c, 0, 55, 0
2, 17367, Control_c, 0, 64, 0
2, 17388, Note_on_c, 0, 60, 60
2, 17388, Note_on_c, 0, 64, 60
2, 17388, Note_on_c, 0, 72, 60
2, 17388, Note_on_c, 0, 55, 60
2, 17390, Note_on_c, 0, 67, 0
2, 17403, Note_on_c, 0, 64, 0
2, 17440, Note_on_c, 0, 64, 60
2, 17440, Note_on_c, 0, 76, 60
2, 17442, Note_on_c, 0, 60, 0
2, 17452, Note_on_c, 0, 72, 0
2, 17454, Note_on_c, 0, 55, 0
2, 17489, Note_on_c, 0, 72, 60
2, 17489, Note_on_c, 0, 79, 60
2, 17489, Note_on_c, 0, 67, 60
2, 17491, Note_on_c, 0, 52, 60
2, 17491, Note_on_c, 0, 40, 60
2, 17493, Note_on_c, 0, 48, 0
2, 17493, Note_on_c, 0, 64, 0
2, 17493, Note_on_c, 0, 36, 0
2, 17493, Note_on_c, 0, 76, 0
2, 17534, Note_on_c, 0, 40, 0
2, 17546, Note_on_c, 0, 72, 0
2, 17546, Note_on_c, 0, 52, 0
2, 17546, Note_on_c, 0, 67, 0
2, 17546, Note_on_c, 0, 79, 0
2, 17598, Note_on_c, 0, 72, 60
2, 17602, Note_on_c, 0, 51, 60
2, 17602, Note_on_c, 0, 39, 60
2, 17613, Note_on_c, 0, 81, 60
2, 17613, Note_on_c, 0, 69, 60
2, 17651, Note_on_c, 0, 71, 60
2, 17654, Note_on_c, 0, 79, 60
2, 17654, Note_on_c, 0, 67, 60
2, 17656, Note_on_c, 0, 69, 0
2, 17656, Note_on_c, 0, 81, 0
2, 17656, Note_on_c, 0, 72, 0
2, 17658, Note_on_c, 0, 39, 0
2, 17671, Note_on_c, 0, 51, 0
2, 17710, Note_on_c, 0, 71, 0
2, 17710, Note_on_c, 0, 38, 60
2, 17710, Note_on_c, 0, 50, 60
2, 17710, Control_c, 0, 64, 127
2, 17722, Note_on_c, 0, 79, 0
2, 17722, Note_on_c, 0, 67, 0
2, 17748, Note_on_c, 0, 50, 0
2, 17750, Note_on_c, 0, 38, 0
2, 17757, Note_on_c, 0, 71, 60
2, 17759, Note_on_c, 0, 59, 60
2, 17765, Control_c, 0, 64, 0
2, 17776, Note_on_c, 0, 59, 0
2, 17808, Note_on_c, 0, 74, 60
2, 17809, Note_on_c, 0, 59, 60
2, 17812, Note_on_c, 0, 71, 0
2, 17812, Note_on_c, 0, 62, 60
2, 17812, Note_on_c, 0, 55, 60
2, 17853, Note_on_c, 0, 59, 0
2, 17863, Note_on_c, 0, 76, 60
2, 17865, Note_on_c, 0, 64, 60
2, 17868, Note_on_c, 0, 74, 0
2, 17868, Note_on_c, 0, 55, 0
2, 17868, Note_on_c, 0, 62, 0
2, 17879, Note_on_c, 0, 76, 0
2, 17917, Note_on_c, 0, 76, 60
2, 17917, Note_on_c, 0, 71, 60
2, 17919, Note_on_c, 0, 64, 0
2, 17919, Note_on_c, 0, 55, 60
2, 17919, Note_on_c, 0, 65, 60
2, 17919, Note_on_c, 0, 43, 60
2, 17971, Note_on_c, 0, 74, 60
2, 17973, Note_on_c, 0, 62, 60
2, 17975, Note_on_c, 0, 43, 0
2, 17975, Note_on_c, 0, 65, 0
2, 17975, Note_on_c, 0, 55, 0
2, 17975, Note_on_c, 0, 76, 0
2, 18018, Note_on_c, 0, 71, 0
2, 18028, Note_on_c, 0, 76, 60
2, 18028, Note_on_c, 0, 67, 60
2, 18030, Note_on_c, 0, 74, 0
2, 18030, Note_on_c, 0, 65, 60
2, 18030, Note_on_c, 0, 47, 60
2, 18032, Note_on_c, 0, 35, 60
2, 18048, Note_on_c, 0, 62, 0
2, 18082, Note_on_c, 0, 74, 60
2, 18084, Note_on_c, 0, 62, 60
2, 18086, Note_on_c, 0, 47, 0
2, 18086, Note_on_c, 0, 67, 0
2, 18086, Note_on_c, 0, 76, 0
2, 18088, Note_on_c, 0, 35, 0
2, 18126, Note_on_c, 0, 65, 0
2, 18133, Note_on_c, 0, 67, 60
2, 18135, Note_on_c, 0, 48, 60
2, 18135, Note_on_c, 0, 60, 60
2, 18135, Note_on_c, 0, 64, 60
2, 18135, Note_on_c, 0, 72, 60
2, 18135, Note_on_c, 0, 36, 60
2, 18138, Note_on_c, 0, 74, 0
2, 18140, Note_on_c, 0, 62, 0
2, 18150, Note_on_c, 0, 67, 0
2, 18150, Control_c, 0, 64, 127
2, 18187, Note_on_c, 0, 67, 60
2, 18189, Note_on_c, 0, 55, 60
2, 18191, Note_on_c, 0, 36, 0
2, 18191, Note_on_c, 0, 60, 0
2, 18191, Note_on_c, 0, 64, 0
2, 18204, Note_on_c, 0, 72, 0
2, 18204, Note_on_c, 0, 48, 0
2, 18204, Note_on_c, 0, 55, 0
2, 18240, Note_on_c, 0, 60, 60
2, 18240, Note_on_c, 0, 64, 60
2, 18240, Note_on_c, 0, 72, 60
2, 18240, Note_on_c, 0, 55, 60
2, 18242, Note_on_c, 0, 67, 0
2, 18246, Control_c, 0, 64, 0
2, 18255, Note_on_c, 0, 64, 0
2, 18296, Note_on_c, 0, 76, 60
2, 18296, Note_on_c, 0, 64, 60
2, 18298, Note_on_c, 0, 60, 0
2, 18298, Note_on_c, 0, 55, 0
2, 18298, Note_on_c, 0, 72, 0
2, 18345, Note_on_c, 0, 79, 60
2, 18347, Note_on_c, 0, 72, 60
2, 18347, Note_on_c, 0, 67, 60
2, 18349, Note_on_c, 0, 52, 60
2, 18349, Note_on_c, 0, 40, 60
2, 18364, Note_on_c, 0, 76, 0
2, 18364, Note_on_c, 0, 64, 0
2, 18401, Note_on_c, 0, 79, 0
2, 18403, Note_on_c, 0, 67, 0
2, 18403, Note_on_c, 0, 72, 0
2, 18403, Note_on_c, 0, 52, 0
2, 18403, Note_on_c, 0, 40, 0
2, 18452, Note_on_c, 0, 72, 60
2, 18452, Note_on_c, 0, 81, 60
2, 18452, Note_on_c, 0, 69, 60
2, 18455, Note_on_c, 0, 51, 60
2, 18455, Note_on_c, 0, 39, 60
2, 18493, Note_on_c, 0, 69, 0
2, 18493, Note_on_c, 0, 81, 0
2, 18495, Note_on_c, 0, 39, 0
2, 18504, Note_on_c, 0, 79, 60
2, 18504, Note_on_c, 0, 83, 60
2, 18504, Note_on_c, 0, 74, 60
2, 18505, Note_on_c, 0, 71, 60
2, 18507, Note_on_c, 0, 51, 0
2, 18507, Note_on_c, 0, 72, 0
2, 18544, Control_c, 0, 64, 127
2, 18554, Note_on_c, 0, 50, 60
2, 18557, Note_on_c, 0, 79, 0
2, 18557, Note_on_c, 0, 38, 60
2, 18570, Note_on_c, 0, 83, 0
2, 18582, Note_on_c, 0, 71, 0
2, 18582, Note_on_c, 0, 74, 0
2, 18598, Note_on_c, 0, 38, 0
2, 18608, Note_on_c, 0, 79, 60
2, 18608, Note_on_c, 0, 67, 60
2, 18610, Note_on_c, 0, 50, 0
2, 18638, Control_c, 0, 64, 0
2, 18657, Note_on_c, 0, 83, 60
2, 18657, Note_on_c, 0, 71, 60
2, 18660, Note_on_c, 0, 59, 60
2, 18660, Note_on_c, 0, 62, 60
2, 18660, Note_on_c, 0, 55, 60
2, 18662, Note_on_c, 0, 67, 0
2, 18662, Note_on_c, 0, 79, 0
2, 18713, Note_on_c, 0, 59, 0
2, 18713, Note_on_c, 0, 83, 0
2, 18730, Note_on_c, 0, 71, 0
2, 18730, Note_on_c, 0, 55, 0
2, 18730, Note_on_c, 0, 62, 0
2, 18767, Note_on_c, 0, 83, 60
2, 18767, Note_on_c, 0, 86, 60
2, 18767, Note_on_c, 0, 79, 60
2, 18768, Note_on_c, 0, 55, 60
2, 18768, Note_on_c, 0, 74, 60
2, 18768, Note_on_c, 0, 43, 60
2, 18820, Note_on_c, 0, 83, 0
2, 18822, Note_on_c, 0, 79, 0
2, 18822, Note_on_c, 0, 55, 0
2, 18822, Note_on_c, 0, 86, 0
2, 18822, Note_on_c, 0, 43, 0
2, 18822, Note_on_c, 0, 74, 0
2, 18869, Note_on_c, 0, 83, 60
2, 18871, Note_on_c, 0, 56, 60
2, 18871, Note_on_c, 0, 74, 60
2, 18871, Note_on_c, 0, 77, 60
2, 18871, Note_on_c, 0, 44, 60
2, 18912, Note_on_c, 0, 44, 0
2, 18912, Note_on_c, 0, 74, 0
2, 18912, Note_on_c, 0, 83, 0
2, 18912, Note_on_c, 0, 56, 0
2, 18912, Note_on_c, 0, 77, 0
2, 18977, Note_on_c, 0, 74, 60
2, 18977, Note_on_c, 0, 78, 60
2, 18977, Note_on_c, 0, 84, 60
2, 18977, Note_on_c, 0, 50, 60
2, 18979, Note_on_c, 0, 38, 60
2, 18979, Control_c, 0, 64, 127
2, 19034, Note_on_c, 0, 50, 0
2, 19064, Control_c, 0, 64, 0
2, 19085, Note_on_c, 0, 54, 60
2, 19085, Note_on_c, 0, 60, 60
2, 19085, Note_on_c, 0, 50, 60
2, 19139, Note_on_c, 0, 50, 0
2, 19139, Note_on_c, 0, 54, 0
2, 19139, Note_on_c, 0, 60, 0
2, 19169, Note_on_c, 0, 38, 0
2, 19193, Note_on_c, 0, 54, 60
2, 19195, Note_on_c, 0, 42, 60
2, 19221, Note_on_c, 0, 74, 0
2, 19221, Note_on_c, 0, 84, 0
2, 19221, Note_on_c, 0, 78, 0
2, 19244, Note_on_c, 0, 68, 60
2, 19244, Note_on_c, 0, 71, 60
2, 19244, Note_on_c, 0, 59, 60
2, 19247, Note_on_c, 0, 54, 0
2, 19248, Note_on_c, 0, 42, 0
2, 19287, Note_on_c, 0, 59, 0
2, 19297, Note_on_c, 0, 69, 60
2, 19297, Note_on_c, 0, 72, 60
2, 19297, Note_on_c, 0, 54, 60
2, 19299, Note_on_c, 0, 68, 0
2, 19299, Note_on_c, 0, 71, 0
2, 19299, Note_on_c, 0, 60, 60
2, 19299, Note_on_c, 0, 50, 60
2, 19341, Note_on_c, 0, 50, 0
2, 19341, Note_on_c, 0, 54, 0
2, 19341, Note_on_c, 0, 60, 0
2, 19366, Note_on_c, 0, 69, 0
2, 19366, Note_on_c, 0, 72, 0
2, 19407, Note_on_c, 0, 38, 60
2, 19407, Note_on_c, 0, 50, 60
2, 19407, Note_on_c, 0, 56, 60
2, 19407, Note_on_c, 0, 65, 60
2, 19407, Note_on_c, 0, 68, 60
2, 19407, Control_c, 0, 64, 127
2, 19449, Note_on_c, 0, 68, 0
2, 19452, Note_on_c, 0, 56, 0
2, 19452, Note_on_c, 0, 38, 0
2, 19463, Note_on_c, 0, 69, 60
2, 19463, Note_on_c, 0, 66, 60
2, 19464, Note_on_c, 0, 50, 0
2, 19464, Note_on_c, 0, 65, 0
2, 19464, Note_on_c, 0, 57, 60
2, 19508, Control_c, 0, 64, 0
2, 19515, Note_on_c, 0, 54, 60
2, 19515, Note_on_c, 0, 60, 60
2, 19515, Note_on_c, 0, 50, 60
2, 19543, Note_on_c, 0, 69, 0
2, 19543, Note_on_c, 0, 66, 0
2, 19567, Note_on_c, 0, 71, 60
2, 19567, Note_on_c, 0, 68, 60
2, 19569, Note_on_c, 0, 50, 0
2, 19569, Note_on_c, 0, 59, 60
2, 19571, Note_on_c, 0, 57, 0
2, 19571, Note_on_c, 0, 54, 0
2, 19571, Note_on_c, 0, 60, 0
2, 19616, Note_on_c, 0, 69, 60
2, 19619, Note_on_c, 0, 60, 60
2, 19619, Note_on_c, 0, 72, 60
2, 19619, Note_on_c, 0, 54, 60
2, 19621, Note_on_c, 0, 68, 0
2, 19621, Note_on_c, 0, 59, 0
2, 19621, Note_on_c, 0, 71, 0
2, 19621, Note_on_c, 0, 42, 60
2, 19659, Note_on_c, 0, 60, 0
2, 19659, Note_on_c, 0, 54, 0
2, 19659, Note_on_c, 0, 69, 0
2, 19661, Note_on_c, 0, 42, 0
2, 19674, Note_on_c, 0, 72, 0
2, 19726, Note_on_c, 0, 72, 60
2, 19726, Note_on_c, 0, 76, 60
2, 19726, Note_on_c, 0, 64, 60
2, 19728, Note_on_c, 0, 54, 60
2, 19728, Note_on_c, 0, 60, 60
2, 19728, Note_on_c, 0, 50, 60
2, 19781, Note_on_c, 0, 50, 0
2, 19781, Note_on_c, 0, 76, 0
2, 19781, Note_on_c, 0, 64, 0
2, 19781, Note_on_c, 0, 72, 0
2, 19781, Note_on_c, 0, 60, 0
2, 19781, Note_on_c, 0, 54, 0
2, 19809, Control_c, 0, 64, 127
2, 19835, Note_on_c, 0, 61, 60
2, 19835, Note_on_c, 0, 70, 60
2, 19835, Note_on_c, 0, 73, 60
2, 19835, Note_on_c, 0, 55, 60
2, 19837, Note_on_c, 0, 43, 60
2, 19884, Note_on_c, 0, 71, 60
2, 19884, Note_on_c, 0, 74, 60
2, 19884, Note_on_c, 0, 62, 60
2, 19886, Note_on_c, 0, 73, 0
2, 19886, Note_on_c, 0, 70, 0
2, 19888, Note_on_c, 0, 43, 0
2, 19888, Note_on_c, 0, 61, 0
2, 19901, Note_on_c, 0, 55, 0
2, 19903, Control_c, 0, 64, 0
2, 19940, Note_on_c, 0, 59, 60
2, 19940, Note_on_c, 0, 55, 60
2, 19942, Note_on_c, 0, 74, 0
2, 19942, Note_on_c, 0, 50, 60
2, 19955, Note_on_c, 0, 71, 0
2, 19968, Note_on_c, 0, 62, 0
2, 19989, Note_on_c, 0, 79, 60
2, 19991, Note_on_c, 0, 74, 60
2, 19991, Note_on_c, 0, 83, 60
2, 19991, Note_on_c, 0, 71, 60
2, 19993, Note_on_c, 0, 59, 0
2, 20008, Note_on_c, 0, 55, 0
2, 20008, Note_on_c, 0, 50, 0
2, 20046, Note_on_c, 0, 79, 0
2, 20046, Note_on_c, 0, 50, 60
2, 20046, Note_on_c, 0, 38, 60
2, 20072, Note_on_c, 0, 83, 0
2, 20074, Note_on_c, 0, 74, 0
2, 20077, Note_on_c, 0, 71, 0
2, 20098, Note_on_c, 0, 73, 60
2, 20098, Note_on_c, 0, 79, 60
2, 20098, Note_on_c, 0, 82, 60
2, 20098, Note_on_c, 0, 70, 60
2, 20102, Note_on_c, 0, 50, 0
2, 20102, Note_on_c, 0, 38, 0
2, 20111, Note_on_c, 0, 79, 0
2, 20138, Note_on_c, 0, 82, 0
2, 20138, Note_on_c, 0, 73, 0
2, 20149, Note_on_c, 0, 74, 60
2, 20149, Note_on_c, 0, 79, 60
2, 20149, Note_on_c, 0, 83, 60
2, 20149, Note_on_c, 0, 71, 60
2, 20152, Note_on_c, 0, 70, 0
2, 20152, Note_on_c, 0, 55, 60
2, 20152, Note_on_c, 0, 59, 60
2, 20152, Note_on_c, 0, 50, 60
2, 20164, Note_on_c, 0, 74, 0
2, 20166, Note_on_c, 0, 71, 0
2, 20166, Note_on_c, 0, 79, 0
2, 20201, Note_on_c, 0, 74, 60
2, 20205, Note_on_c, 0, 71, 60
2, 20205, Note_on_c, 0, 79, 60
2, 20205, Note_on_c, 0, 67, 60
2, 20208, Note_on_c, 0, 50, 0
2, 20208, Note_on_c, 0, 83, 0
2, 20208, Note_on_c, 0, 59, 0
2, 20222, Note_on_c, 0, 55, 0
2, 20246, Control_c, 0, 64, 127
2, 20258, Note_on_c, 0, 55, 60
2, 20260, Note_on_c, 0, 43, 60
2, 20284, Note_on_c, 0, 74, 0
2, 20284, Note_on_c, 0, 71, 0
2, 20286, Note_on_c, 0, 79, 0
2, 20286, Note_on_c, 0, 67, 0
2, 20300, Note_on_c, 0, 43, 0
2, 20307, Note_on_c, 0, 78, 60
2, 20307, Note_on_c, 0, 66, 60
2, 20310, Note_on_c, 0, 54, 60
2, 20310, Note_on_c, 0, 42, 60
2, 20312, Note_on_c, 0, 55, 0
2, 20340, Control_c, 0, 64, 0
2, 20359, Note_on_c, 0, 74, 60
2, 20361, Note_on_c, 0, 67, 60
2, 20361, Note_on_c, 0, 71, 60
2, 20361, Note_on_c, 0, 79, 60
2, 20361, Note_on_c, 0, 53, 60
2, 20363, Note_on_c, 0, 54, 0
2, 20363, Note_on_c, 0, 78, 0
2, 20363, Note_on_c, 0, 66, 0
2, 20363, Note_on_c, 0, 41, 60
2, 20366, Note_on_c, 0, 42, 0
2, 20415, Note_on_c, 0, 79, 0
2, 20415, Note_on_c, 0, 55, 60
2, 20415, Note_on_c, 0, 43, 60
2, 20417, Note_on_c, 0, 67, 0
2, 20417, Note_on_c, 0, 53, 0
2, 20417, Note_on_c, 0, 71, 0
2, 20417, Note_on_c, 0, 74, 0
2, 20417, Note_on_c, 0, 41, 0
2, 20469, Note_on_c, 0, 66, 60
2, 20469, Note_on_c, 0, 78, 60
2, 20469, Note_on_c, 0, 52, 60
2, 20471, Note_on_c, 0, 40, 60
2, 20472, Note_on_c, 0, 43, 0
2, 20472, Note_on_c, 0, 55, 0
2, 20520, Note_on_c, 0, 71, 60
2, 20520, Note_on_c, 0, 74, 60
2, 20520, Note_on_c, 0, 79, 60
2, 20520, Note_on_c, 0, 67, 60
2, 20521, Note_on_c, 0, 51, 60
2, 20524, Note_on_c, 0, 52, 0
2, 20524, Note_on_c, 0, 66, 0
2, 20524, Note_on_c, 0, 78, 0
2, 20524, Note_on_c, 0, 40, 0
2, 20524, Note_on_c, 0, 39, 60
2, 20573, Note_on_c, 0, 50, 60
2, 20573, Note_on_c, 0, 38, 60
2, 20575, Note_on_c, 0, 67, 0
2, 20577, Note_on_c, 0, 39, 0
2, 20589, Note_on_c, 0, 74, 0
2, 20589, Note_on_c, 0, 51, 0
2, 20589, Note_on_c, 0, 79, 0
2, 20601, Note_on_c, 0, 71, 0
2, 20614, Note_on_c, 0, 38, 0
2, 20624, Note_on_c, 0, 67, 60
2, 20624, Note_on_c, 0, 55, 60
2, 20627, Note_on_c, 0, 50, 0
2, 20627, Note_on_c, 0, 49, 60
2, 20627, Note_on_c, 0, 37, 60
2, 20678, Note_on_c, 0, 36, 60
2, 20678, Note_on_c, 0, 48, 60
2, 20678, Control_c, 0, 64, 127
2, 20680, Note_on_c, 0, 49, 0
2, 20680, Note_on_c, 0, 67, 0
2, 20693, Note_on_c, 0, 37, 0
2, 20693, Note_on_c, 0, 55, 0
2, 20730, Note_on_c, 0, 67, 60
2, 20730, Note_on_c, 0, 55, 60
2, 20744, Note_on_c, 0, 55, 0
2, 20761, Control_c, 0, 64, 0
2, 20781, Note_on_c, 0, 72, 60
2, 20783, Note_on_c, 0, 60, 60
2, 20783, Note_on_c, 0, 64, 60
2, 20783, Note_on_c, 0, 55, 60
2, 20787, Note_on_c, 0, 67, 0
2, 20798, Note_on_c, 0, 64, 0
2, 20834, Note_on_c, 0, 76, 60
2, 20834, Note_on_c, 0, 64, 60
2, 20836, Note_on_c, 0, 60, 0
2, 20836, Note_on_c, 0, 72, 0
2, 20836, Note_on_c, 0, 55, 0
2, 20864, Note_on_c, 0, 48, 0
2, 20866, Note_on_c, 0, 36, 0
2, 20890, Note_on_c, 0, 72, 60
2, 20890, Note_on_c, 0, 79, 60
2, 20890, Note_on_c, 0, 67, 60
2, 20892, Note_on_c, 0, 76, 0
2, 20892, Note_on_c, 0, 52, 60
2, 20892, Note_on_c, 0, 40, 60
2, 20894, Note_on_c, 0, 64, 0
2, 20930, Note_on_c, 0, 72, 0
2, 20933, Note_on_c, 0, 67, 0
2, 20933, Note_on_c, 0, 79, 0
2, 20933, Note_on_c, 0, 40, 0
2, 20933, Note_on_c, 0, 52, 0
2, 20993, Note_on_c, 0, 72, 60
2, 20993, Note_on_c, 0, 81, 60
2, 20993, Note_on_c, 0, 69, 60
2, 20995, Note_on_c, 0, 51, 60
2, 20995, Note_on_c, 0, 39, 60
2, 21036, Note_on_c, 0, 69, 0
2, 21036, Note_on_c, 0, 81, 0
2, 21038, Note_on_c, 0, 39, 0
2, 21047, Note_on_c, 0, 71, 60
2, 21047, Note_on_c, 0, 79, 60
2, 21047, Note_on_c, 0, 67, 60
2, 21048, Note_on_c, 0, 72, 0
2, 21050, Note_on_c, 0, 51, 0
2, 21099, Note_on_c, 0, 50, 60
2, 21099, Control_c, 0, 64, 127
2, 21102, Note_on_c, 0, 38, 60
2, 21127, Note_on_c, 0, 79, 0
2, 21153, Note_on_c, 0, 76, 60
2, 21153, Note_on_c, 0, 64, 60
2, 21155, Note_on_c, 0, 50, 0
2, 21158, Note_on_c, 0, 38, 0
2, 21200, Control_c, 0, 64, 0
2, 21207, Note_on_c, 0, 74, 60
2, 21207, Note_on_c, 0, 62, 60
2, 21209, Note_on_c, 0, 55, 60
2, 21211, Note_on_c, 0, 71, 0
2, 21211, Note_on_c, 0, 67, 0
2, 21211, Note_on_c, 0, 64, 0
2, 21211, Note_on_c, 0, 43, 60
2, 21219, Note_on_c, 0, 76, 0
2, 21256, Note_on_c, 0, 71, 60
2, 21258, Note_on_c, 0, 59, 60
2, 21261, Note_on_c, 0, 74, 0
2, 21261, Note_on_c, 0, 55, 0
2, 21263, Note_on_c, 0, 43, 0
2, 21263, Note_on_c, 0, 62, 0
2, 21273, Note_on_c, 0, 59, 0
2, 21312, Note_on_c, 0, 52, 60
2, 21312, Note_on_c, 0, 55, 60
2, 21312, Note_on_c, 0, 59, 60
2, 21312, Note_on_c, 0, 62, 60
2, 21312, Note_on_c, 0, 64, 60
2, 21312, Note_on_c, 0, 47, 60
2, 21313, Note_on_c, 0, 71, 0
2, 21327, Note_on_c, 0, 59, 0
2, 21360, Note_on_c, 0, 71, 60
2, 21360, Note_on_c, 0, 59, 60
2, 21363, Note_on_c, 0, 64, 0
2, 21365, Note_on_c, 0, 55, 0
2, 21414, Note_on_c, 0, 52, 0
2, 21414, Note_on_c, 0, 71, 0
2, 21414, Note_on_c, 0, 55, 60
2, 21414, Note_on_c, 0, 67, 60
2, 21468, Note_on_c, 0, 64, 60
2, 21468, Note_on_c, 0, 52, 60
2, 21470, Note_on_c, 0, 67, 0
2, 21470, Note_on_c, 0, 47, 0
2, 21470, Note_on_c, 0, 59, 0
2, 21472, Note_on_c, 0, 62, 0
2, 21483, Note_on_c, 0, 55, 0
2, 21519, Note_on_c, 0, 67, 60
2, 21522, Note_on_c, 0, 57, 60
2, 21522, Note_on_c, 0, 61, 60
2, 21522, Note_on_c, 0, 45, 60
2, 21524, Note_on_c, 0, 52, 0
2, 21524, Note_on_c, 0, 64, 0
2, 21534, Control_c, 0, 64, 127
2, 21575, Note_on_c, 0, 55, 60
2, 21575, Note_on_c, 0, 43, 60
2, 21577, Note_on_c, 0, 57, 0
2, 21577, Note_on_c, 0, 45, 0
2, 21626, Note_on_c, 0, 52, 60
2, 21626, Note_on_c, 0, 40, 60
2, 21628, Note_on_c, 0, 43, 0
2, 21630, Control_c, 0, 64, 0
2, 21642, Note_on_c, 0, 55, 0
2, 21680, Note_on_c, 0, 52, 0
2, 21680, Note_on_c, 0, 67, 0
2, 21680, Note_on_c, 0, 40, 0
2, 21680, Note_on_c, 0, 51, 60
2, 21680, Note_on_c, 0, 39, 60
2, 21719, Note_on_c, 0, 61, 0
2, 21729, Note_on_c, 0, 50, 60
2, 21729, Note_on_c, 0, 60, 60
2, 21729, Note_on_c, 0, 62, 60
2, 21729, Note_on_c, 0, 66, 60
2, 21729, Note_on_c, 0, 69, 60
2, 21729, Note_on_c, 0, 38, 60
2, 21731, Note_on_c, 0, 57, 60
2, 21733, Note_on_c, 0, 39, 0
2, 21744, Note_on_c, 0, 51, 0
2, 21744, Note_on_c, 0, 57, 0
2, 21744, Note_on_c, 0, 66, 0
2, 21744, Note_on_c, 0, 60, 0
2, 21744, Note_on_c, 0, 69, 0
2, 21746, Note_on_c, 0, 62, 0
2, 21778, Note_on_c, 0, 69, 60
2, 21778, Note_on_c, 0, 66, 60
2, 21783, Note_on_c, 0, 60, 60
2, 21783, Note_on_c, 0, 62, 60
2, 21783, Note_on_c, 0, 57, 60
2, 21851, Note_on_c, 0, 62, 0
2, 21875, Note_on_c, 0, 66, 0
2, 21875, Note_on_c, 0, 69, 0
2, 21875, Note_on_c, 0, 60, 0
2, 21879, Note_on_c, 0, 57, 0
2, 21886, Note_on_c, 0, 67, 60
2, 21888, Note_on_c, 0, 59, 60
2, 21888, Note_on_c, 0, 62, 60
2, 21888, Note_on_c, 0, 55, 60
2, 21903, Note_on_c, 0, 55, 0
2, 21903, Note_on_c, 0, 50, 0
2, 21915, Note_on_c, 0, 38, 0
2, 21926, Control_c, 0, 64, 127
2, 21941, Note_on_c, 0, 55, 60
2, 21943, Note_on_c, 0, 43, 60
2, 22011, Control_c, 0, 64, 0
2, 22022, Note_on_c, 0, 59, 0
2, 22022, Note_on_c, 0, 62, 0
2, 22022, Note_on_c, 0, 67, 0
2, 22044, Note_on_c, 0, 86, 60
2, 22044, Note_on_c, 0, 74, 60
2, 22061, Note_on_c, 0, 74, 0
2, 22061, Note_on_c, 0, 86, 0
2, 22097, Note_on_c, 0, 86, 60
2, 22100, Note_on_c, 0, 74, 60
2, 22114, Note_on_c, 0, 74, 0
2, 22114, Note_on_c, 0, 86, 0
2, 22128, Note_on_c, 0, 43, 0
2, 22129, Note_on_c, 0, 55, 0
2, 22151, Note_on_c, 0, 74, 60
2, 22151, Note_on_c, 0, 86, 60
2, 22151, Note_on_c, 0, 59, 60
2, 22152, Note_on_c, 0, 47, 60
2, 22196, Note_on_c, 0, 74, 0
2, 22198, Note_on_c, 0, 47, 0
2, 22198, Note_on_c, 0, 59, 0
2, 22213, Note_on_c, 0, 86, 0
2, 22262, Note_on_c, 0, 83, 60
2, 22262, Note_on_c, 0, 77, 60
2, 22264, Note_on_c, 0, 74, 60
2, 22264, Note_on_c, 0, 56, 60
2, 22267, Note_on_c, 0, 44, 60
2, 22318, Note_on_c, 0, 83, 0
2, 22320, Note_on_c, 0, 56, 0
2, 22320, Note_on_c, 0, 77, 0
2, 22320, Note_on_c, 0, 74, 0
2, 22320, Note_on_c, 0, 44, 0
2, 22361, Control_c, 0, 64, 127
2, 22371, Note_on_c, 0, 90, 60
2, 22371, Note_on_c, 0, 96, 60
2, 22371, Note_on_c, 0, 86, 60
2, 22375, Note_on_c, 0, 57, 60
2, 22375, Note_on_c, 0, 45, 60
2, 22427, Note_on_c, 0, 45, 0
2, 22427, Note_on_c, 0, 57, 0
2, 22476, Note_on_c, 0, 60, 60
2, 22478, Note_on_c, 0, 54, 60
2, 22478, Note_on_c, 0, 50, 60
2, 22493, Control_c, 0, 64, 0
2, 22532, Note_on_c, 0, 50, 0
2, 22532, Note_on_c, 0, 60, 0
2, 22532, Note_on_c, 0, 54, 0
2, 22584, Note_on_c, 0, 54, 60
2, 22585, Note_on_c, 0, 42, 60
2, 22613, Note_on_c, 0, 96, 0
2, 22613, Note_on_c, 0, 90, 0
2, 22634, Note_on_c, 0, 83, 60
2, 22636, Note_on_c, 0, 80, 60
2, 22641, Note_on_c, 0, 42, 0
2, 22641, Note_on_c, 0, 54, 0
2, 22643, Note_on_c, 0, 86, 0
2, 22680, Note_on_c, 0, 83, 0
2, 22692, Note_on_c, 0, 60, 60
2, 22692, Note_on_c, 0, 81, 60
2, 22692, Note_on_c, 0, 84, 60
2, 22692, Note_on_c, 0, 54, 60
2, 22695, Note_on_c, 0, 80, 0
2, 22695, Note_on_c, 0, 50, 60
2, 22733, Note_on_c, 0, 50, 0
2, 22733, Note_on_c, 0, 54, 0
2, 22733, Note_on_c, 0, 60, 0
2, 22733, Note_on_c, 0, 81, 0
2, 22733, Note_on_c, 0, 84, 0
2, 22800, Note_on_c, 0, 38, 60
2, 22800, Note_on_c, 0, 77, 60
2, 22800, Note_on_c, 0, 80, 60
2, 22800, Control_c, 0, 64, 127
2, 22801, Note_on_c, 0, 50, 60
2, 22840, Note_on_c, 0, 50, 0
2, 22840, Note_on_c, 0, 38, 0
2, 22840, Note_on_c, 0, 77, 0
2, 22840, Note_on_c, 0, 80, 0
2, 22847, Note_on_c, 0, 81, 60
2, 22847, Note_on_c, 0, 78, 60
2, 22894, Control_c, 0, 64, 0
2, 22900, Note_on_c, 0, 54, 60
2, 22900, Note_on_c, 0, 60, 60
2, 22900, Note_on_c, 0, 50, 60
2, 22928, Note_on_c, 0, 81, 0
2, 22930, Note_on_c, 0, 78, 0
2, 22951, Note_on_c, 0, 83, 60
2, 22951, Note_on_c, 0, 80, 60
2, 22953, Note_on_c, 0, 60, 0
2, 22953, Note_on_c, 0, 50, 0
2, 22953, Note_on_c, 0, 54, 0
2, 22994, Note_on_c, 0, 83, 0
2, 22994, Note_on_c, 0, 80, 0
2, 23005, Note_on_c, 0, 84, 60
2, 23005, Note_on_c, 0, 81, 60
2, 23007, Note_on_c, 0, 50, 60
2, 23007, Note_on_c, 0, 38, 60
2, 23045, Note_on_c, 0, 81, 0
2, 23045, Note_on_c, 0, 84, 0
2, 23047, Note_on_c, 0, 50, 0
2, 23047, Note_on_c, 0, 38, 0
2, 23110, Note_on_c, 0, 84, 60
2, 23110, Note_on_c, 0, 88, 60
2, 23110, Note_on_c, 0, 54, 60
2, 23112, Note_on_c, 0, 60, 60
2, 23112, Note_on_c, 0, 50, 60
2, 23150, Note_on_c, 0, 88, 0
2, 23153, Note_on_c, 0, 54, 0
2, 23165, Note_on_c, 0, 84, 0
2, 23165, Note_on_c, 0, 60, 0
2, 23165, Note_on_c, 0, 50, 0
2, 23210, Note_on_c, 0, 85, 60
2, 23210, Note_on_c, 0, 82, 60
2, 23212, Note_on_c, 0, 55, 60
2, 23214, Note_on_c, 0, 43, 60
2, 23228, Control_c, 0, 64, 127
2, 23264, Note_on_c, 0, 86, 60
2, 23264, Note_on_c, 0, 83, 60
2, 23268, Note_on_c, 0, 43, 0
2, 23268, Note_on_c, 0, 55, 0
2, 23268, Note_on_c, 0, 85, 0
2, 23268, Note_on_c, 0, 82, 0
2, 23285, Control_c, 0, 64, 0
2, 23322, Note_on_c, 0, 55, 60
2, 23322, Note_on_c, 0, 59, 60
2, 23322, Note_on_c, 0, 50, 60
2, 23334, Note_on_c, 0, 86, 0
2, 23350, Note_on_c, 0, 83, 0
2, 23371, Note_on_c, 0, 86, 60
2, 23373, Note_on_c, 0, 95, 60
2, 23373, Note_on_c, 0, 91, 60
2, 23377, Note_on_c, 0, 59, 0
2, 23379, Note_on_c, 0, 50, 0
2, 23379, Note_on_c, 0, 55, 0
2, 23428, Note_on_c, 0, 91, 0
2, 23431, Note_on_c, 0, 50, 60
2, 23431, Note_on_c, 0, 38, 60
2, 23444, Note_on_c, 0, 95, 0
2, 23472, Note_on_c, 0, 86, 0
2, 23482, Note_on_c, 0, 91, 60
2, 23482, Note_on_c, 0, 94, 60
2, 23482, Note_on_c, 0, 85, 60
2, 23486, Note_on_c, 0, 50, 0
2, 23489, Note_on_c, 0, 38, 0
2, 23499, Note_on_c, 0, 91, 0
2, 23536, Note_on_c, 0, 95, 60
2, 23536, Note_on_c, 0, 91, 60
2, 23538, Note_on_c, 0, 86, 60
2, 23540, Note_on_c, 0, 94, 0
2, 23540, Note_on_c, 0, 85, 0
2, 23540, Note_on_c, 0, 55, 60
2, 23540, Note_on_c, 0, 59, 60
2, 23540, Note_on_c, 0, 50, 60
2, 23555, Note_on_c, 0, 91, 0
2, 23555, Note_on_c, 0, 86, 0
2, 23592, Note_on_c, 0, 86, 60
2, 23592, Note_on_c, 0, 91, 60
2, 23592, Note_on_c, 0, 83, 60
2, 23593, Note_on_c, 0, 95, 0
2, 23595, Note_on_c, 0, 59, 0
2, 23609, Note_on_c, 0, 50, 0
2, 23611, Note_on_c, 0, 55, 0
2, 23637, Control_c, 0, 64, 127
2, 23649, Note_on_c, 0, 55, 60
2, 23649, Note_on_c, 0, 43, 60
2, 23675, Note_on_c, 0, 83, 0
2, 23675, Note_on_c, 0, 91, 0
2, 23677, Note_on_c, 0, 86, 0
2, 23696, Note_on_c, 0, 90, 60
2, 23700, Note_on_c, 0, 54, 60
2, 23700, Note_on_c, 0, 42, 60
2, 23703, Note_on_c, 0, 43, 0
2, 23703, Note_on_c, 0, 55, 0
2, 23733, Control_c, 0, 64, 0
2, 23743, Note_on_c, 0, 54, 0
2, 23743, Note_on_c, 0, 90, 0
2, 23745, Note_on_c, 0, 42, 0
2, 23752, Note_on_c, 0, 91, 60
2, 23752, Note_on_c, 0, 86, 60
2, 23754, Note_on_c, 0, 83, 60
2, 23756, Note_on_c, 0, 53, 60
2, 23756, Note_on_c, 0, 41, 60
2, 23809, Note_on_c, 0, 83, 0
2, 23809, Note_on_c, 0, 91, 0
2, 23809, Note_on_c, 0, 86, 0
2, 23809, Note_on_c, 0, 55, 60
2, 23809, Note_on_c, 0, 43, 60
2, 23811, Note_on_c, 0, 53, 0
2, 23811, Note_on_c, 0, 41, 0
2, 23861, Note_on_c, 0, 90, 60
2, 23863, Note_on_c, 0, 52, 60
2, 23863, Note_on_c, 0, 40, 60
2, 23865, Note_on_c, 0, 55, 0
2, 23865, Note_on_c, 0, 43, 0
2, 23917, Note_on_c, 0, 90, 0
2, 23917, Note_on_c, 0, 86, 60
2, 23917, Note_on_c, 0, 91, 60
2, 23917, Note_on_c, 0, 51, 60
2, 23917, Note_on_c, 0, 83, 60
2, 23919, Note_on_c, 0, 40, 0
2, 23919, Note_on_c, 0, 39, 60
2, 23933, Note_on_c, 0, 52, 0
2, 23973, Note_on_c, 0, 50, 60
2, 23973, Note_on_c, 0, 38, 60
2, 23975, Note_on_c, 0, 39, 0
2, 23987, Note_on_c, 0, 51, 0
2, 24000, Note_on_c, 0, 91, 0
2, 24000, Note_on_c, 0, 86, 0
2, 24000, Note_on_c, 0, 83, 0
2, 24025, Note_on_c, 0, 79, 60
2, 24028, Note_on_c, 0, 38, 0
2, 24028, Note_on_c, 0, 50, 0
2, 24028, Note_on_c, 0, 49, 60
2, 24028, Note_on_c, 0, 37, 60
2, 24067, Note_on_c, 0, 79, 0
2, 24069, Note_on_c, 0, 49, 0
2, 24077, Note_on_c, 0, 48, 60
2, 24077, Note_on_c, 0, 36, 60
2, 24079, Control_c, 0, 64, 127
2, 24081, Note_on_c, 0, 37, 0
2, 24128, Note_on_c, 0, 79, 60
2, 24173, Control_c, 0, 64, 0
2, 24178, Note_on_c, 0, 84, 60
2, 24180, Note_on_c, 0, 64, 60
2, 24182, Note_on_c, 0, 60, 60
2, 24182, Note_on_c, 0, 55, 60
2, 24184, Note_on_c, 0, 79, 0
2, 24229, Note_on_c, 0, 88, 60
2, 24234, Note_on_c, 0, 60, 0
2, 24234, Note_on_c, 0, 64, 0
2, 24234, Note_on_c, 0, 84, 0
2, 24234, Note_on_c, 0, 55, 0
2, 24274, Note_on_c, 0, 36, 0
2, 24281, Note_on_c, 0, 91, 60
2, 24281, Note_on_c, 0, 84, 60
2, 24283, Note_on_c, 0, 88, 0
2, 24283, Note_on_c, 0, 52, 60
2, 24283, Note_on_c, 0, 79, 60
2, 24285, Note_on_c, 0, 40, 60
2, 24287, Note_on_c, 0, 48, 0
2, 24334, Note_on_c, 0, 84, 0
2, 24334, Note_on_c, 0, 91, 0
2, 24336, Note_on_c, 0, 52, 0
2, 24336, Note_on_c, 0, 79, 0
2, 24336, Note_on_c, 0, 40, 0
2, 24384, Note_on_c, 0, 93, 60
2, 24385, Note_on_c, 0, 84, 60
2, 24385, Note_on_c, 0, 81, 60
2, 24387, Note_on_c, 0, 51, 60
2, 24389, Note_on_c, 0, 39, 60
2, 24426, Note_on_c, 0, 93, 0
2, 24429, Note_on_c, 0, 84, 0
2, 24429, Note_on_c, 0, 81, 0
2, 24431, Note_on_c, 0, 39, 0
2, 24434, Note_on_c, 0, 83, 60
2, 24436, Note_on_c, 0, 91, 60
2, 24436, Note_on_c, 0, 79, 60
2, 24441, Note_on_c, 0, 51, 0
2, 24495, Note_on_c, 0, 83, 0
2, 24495, Note_on_c, 0, 50, 60
2, 24495, Note_on_c, 0, 38, 60
2, 24509, Control_c, 0, 64, 127
2, 24520, Note_on_c, 0, 91, 0
2, 24544, Note_on_c, 0, 83, 60
2, 24546, Note_on_c, 0, 79, 0
2, 24548, Note_on_c, 0, 38, 0
2, 24548, Note_on_c, 0, 50, 0
2, 24565, Control_c, 0, 64, 0
2, 24589, Note_on_c, 0, 83, 0
2, 24598, Note_on_c, 0, 86, 60
2, 24600, Note_on_c, 0, 59, 60
2, 24600, Note_on_c, 0, 62, 60
2, 24600, Note_on_c, 0, 55, 60
2, 24638, Note_on_c, 0, 88, 60
2, 24643, Note_on_c, 0, 59, 0
2, 24655, Note_on_c, 0, 55, 0
2, 24655, Note_on_c, 0, 86, 0
2, 24655, Note_on_c, 0, 88, 0
2, 24657, Note_on_c, 0, 62, 0
2, 24709, Note_on_c, 0, 88, 60
2, 24709, Note_on_c, 0, 83, 60
2, 24711, Note_on_c, 0, 77, 60
2, 24711, Note_on_c, 0, 55, 60
2, 24713, Note_on_c, 0, 43, 60
2, 24762, Note_on_c, 0, 86, 60
2, 24767, Note_on_c, 0, 88, 0
2, 24768, Note_on_c, 0, 43, 0
2, 24768, Note_on_c, 0, 55, 0
2, 24768, Note_on_c, 0, 77, 0
2, 24781, Note_on_c, 0, 83, 0
2, 24820, Note_on_c, 0, 88, 60
2, 24822, Note_on_c, 0, 79, 60
2, 24822, Note_on_c, 0, 77, 60
2, 24824, Note_on_c, 0, 47, 60
2, 24824, Note_on_c, 0, 35, 60
2, 24826, Note_on_c, 0, 86, 0
2, 24873, Note_on_c, 0, 86, 60
2, 24876, Note_on_c, 0, 88, 0
2, 24878, Note_on_c, 0, 79, 0
2, 24878, Note_on_c, 0, 47, 0
2, 24878, Note_on_c, 0, 35, 0
2, 24901, Note_on_c, 0, 77, 0
2, 24912, Control_c, 0, 64, 127
2, 24925, Note_on_c, 0, 79, 60
2, 24925, Note_on_c, 0, 84, 60
2, 24925, Note_on_c, 0, 76, 60
2, 24927, Note_on_c, 0, 86, 0
2, 24927, Note_on_c, 0, 48, 60
2, 24927, Note_on_c, 0, 36, 60
2, 24939, Note_on_c, 0, 79, 0
2, 24965, Note_on_c, 0, 84, 0
2, 24967, Note_on_c, 0, 36, 0
2, 24979, Note_on_c, 0, 79, 60
2, 24981, Note_on_c, 0, 76, 0
2, 24983, Note_on_c, 0, 48, 0
2, 25012, Control_c, 0, 64, 0
2, 25032, Note_on_c, 0, 84, 60
2, 25034, Note_on_c, 0, 60, 60
2, 25034, Note_on_c, 0, 64, 60
2, 25034, Note_on_c, 0, 55, 60
2, 25036, Note_on_c, 0, 79, 0
2, 25085, Note_on_c, 0, 88, 60
2, 25090, Note_on_c, 0, 64, 0
2, 25090, Note_on_c, 0, 55, 0
2, 25090, Note_on_c, 0, 84, 0
2, 25090, Note_on_c, 0, 60, 0
2, 25139, Note_on_c, 0, 84, 60
2, 25139, Note_on_c, 0, 91, 60
2, 25139, Note_on_c, 0, 79, 60
2, 25141, Note_on_c, 0, 52, 60
2, 25143, Note_on_c, 0, 88, 0
2, 25143, Note_on_c, 0, 40, 60
2, 25197, Note_on_c, 0, 79, 0
2, 25197, Note_on_c, 0, 84, 0
2, 25197, Note_on_c, 0, 91, 0
2, 25199, Note_on_c, 0, 52, 0
2, 25200, Note_on_c, 0, 40, 0
2, 25246, Note_on_c, 0, 93, 60
2, 25246, Note_on_c, 0, 84, 60
2, 25248, Note_on_c, 0, 81, 60
2, 25250, Note_on_c, 0, 51, 60
2, 25250, Note_on_c, 0, 39, 60
2, 25297, Note_on_c, 0, 95, 60
2, 25299, Note_on_c, 0, 86, 60
2, 25299, Note_on_c, 0, 91, 60
2, 25299, Note_on_c, 0, 83, 60
2, 25301, Note_on_c, 0, 81, 0
2, 25301, Note_on_c, 0, 93, 0
2, 25301, Note_on_c, 0, 84, 0
2, 25303, Note_on_c, 0, 51, 0
2, 25306, Note_on_c, 0, 39, 0
2, 25355, Note_on_c, 0, 91, 0
2, 25355, Note_on_c, 0, 38, 60
2, 25355, Note_on_c, 0, 50, 60
2, 25355, Control_c, 0, 64, 127
2, 25379, Note_on_c, 0, 95, 0
2, 25379, Note_on_c, 0, 86, 0
2, 25379, Note_on_c, 0, 83, 0
2, 25402, Note_on_c, 0, 91, 60
2, 25409, Note_on_c, 0, 50, 0
2, 25411, Note_on_c, 0, 38, 0
2, 25426, Control_c, 0, 64, 0
2, 25456, Note_on_c, 0, 95, 60
2, 25458, Note_on_c, 0, 62, 60
2, 25460, Note_on_c, 0, 59, 60
2, 25460, Note_on_c, 0, 55, 60
2, 25488, Note_on_c, 0, 91, 0
2, 25513, Note_on_c, 0, 95, 0
2, 25515, Note_on_c, 0, 59, 0
2, 25515, Note_on_c, 0, 55, 0
2, 25517, Note_on_c, 0, 62, 0
2, 25562, Note_on_c, 0, 98, 60
2, 25562, Note_on_c, 0, 95, 60
2, 25564, Note_on_c, 0, 91, 60
2, 25564, Note_on_c, 0, 86, 60
2, 25567, Note_on_c, 0, 55, 60
2, 25569, Note_on_c, 0, 43, 60
2, 25606, Note_on_c, 0, 86, 0
2, 25606, Note_on_c, 0, 91, 0
2, 25606, Note_on_c, 0, 98, 0
2, 25606, Note_on_c, 0, 95, 0
2, 25609, Note_on_c, 0, 43, 0
2, 25627, Note_on_c, 0, 55, 0
2, 25668, Note_on_c, 0, 95, 60
2, 25670, Note_on_c, 0, 89, 60
2, 25670, Note_on_c, 0, 86, 60
2, 25672, Note_on_c, 0, 56, 60
2, 25674, Note_on_c, 0, 44, 60
2, 25726, Note_on_c, 0, 86, 0
2, 25726, Note_on_c, 0, 95, 0
2, 25726, Note_on_c, 0, 89, 0
2, 25728, Note_on_c, 0, 56, 0
2, 25728, Note_on_c, 0, 44, 0
2, 25776, Note_on_c, 0, 90, 60
2, 25776, Note_on_c, 0, 96, 60
2, 25776, Note_on_c, 0, 86, 60
2, 25781, Note_on_c, 0, 57, 60
2, 25781, Note_on_c, 0, 45, 60
2, 25796, Control_c, 0, 64, 127
2, 25820, Note_on_c, 0, 57, 0
2, 25822, Note_on_c, 0, 45, 0
2, 25849, Control_c, 0, 64, 0
2, 25884, Note_on_c, 0, 54, 60
2, 25886, Note_on_c, 0, 60, 60
2, 25886, Note_on_c, 0, 50, 60
2, 25937, Note_on_c, 0, 60, 0
2, 25940, Note_on_c, 0, 54, 0
2, 25940, Note_on_c, 0, 50, 0
2, 25991, Note_on_c, 0, 54, 60
2, 25991, Note_on_c, 0, 42, 60
2, 26016, Note_on_c, 0, 96, 0
2, 26016, Note_on_c, 0, 90, 0
2, 26018, Note_on_c, 0, 86, 0
2, 26038, Note_on_c, 0, 83, 60
2, 26040, Note_on_c, 0, 80, 60
2, 26044, Note_on_c, 0, 42, 0
2, 26044, Note_on_c, 0, 54, 0
2, 26081, Note_on_c, 0, 83, 0
2, 26081, Note_on_c, 0, 80, 0
2, 26088, Note_on_c, 0, 84, 60
2, 26089, Note_on_c, 0, 60, 60
2, 26089, Note_on_c, 0, 81, 60
2, 26089, Note_on_c, 0, 54, 60
2, 26091, Note_on_c, 0, 50, 60
2, 26135, Note_on_c, 0, 50, 0
2, 26135, Note_on_c, 0, 81, 0
2, 26135, Note_on_c, 0, 84, 0
2, 26135, Note_on_c, 0, 60, 0
2, 26135, Note_on_c, 0, 54, 0
2, 26192, Control_c, 0, 64, 127
2, 26203, Note_on_c, 0, 77, 60
2, 26205, Note_on_c, 0, 80, 60
2, 26207, Note_on_c, 0, 50, 60
2, 26207, Note_on_c, 0, 38, 60
2, 26246, Note_on_c, 0, 77, 0
2, 26248, Note_on_c, 0, 80, 0
2, 26248, Note_on_c, 0, 50, 0
2, 26250, Note_on_c, 0, 38, 0
2, 26258, Note_on_c, 0, 81, 60
2, 26258, Note_on_c, 0, 78, 60
2, 26290, Control_c, 0, 64, 0
2, 26312, Note_on_c, 0, 54, 60
2, 26312, Note_on_c, 0, 60, 60
2, 26312, Note_on_c, 0, 50, 60
2, 26337, Note_on_c, 0, 78, 0
2, 26337, Note_on_c, 0, 81, 0
2, 26361, Note_on_c, 0, 83, 60
2, 26361, Note_on_c, 0, 80, 60
2, 26365, Note_on_c, 0, 60, 0
2, 26365, Note_on_c, 0, 50, 0
2, 26365, Note_on_c, 0, 54, 0
2, 26404, Note_on_c, 0, 83, 0
2, 26404, Note_on_c, 0, 80, 0
2, 26412, Note_on_c, 0, 84, 60
2, 26412, Note_on_c, 0, 81, 60
2, 26417, Note_on_c, 0, 54, 60
2, 26417, Note_on_c, 0, 42, 60
2, 26455, Note_on_c, 0, 84, 0
2, 26457, Note_on_c, 0, 81, 0
2, 26457, Note_on_c, 0, 54, 0
2, 26459, Note_on_c, 0, 42, 0
2, 26520, Note_on_c, 0, 88, 60
2, 26520, Note_on_c, 0, 84, 60
2, 26523, Note_on_c, 0, 54, 60
2, 26523, Note_on_c, 0, 60, 60
2, 26523, Note_on_c, 0, 50, 60
2, 26563, Note_on_c, 0, 84, 0
2, 26563, Note_on_c, 0, 88, 0
2, 26565, Note_on_c, 0, 60, 0
2, 26565, Note_on_c, 0, 54, 0
2, 26579, Note_on_c, 0, 50, 0
2, 26624, Note_on_c, 0, 85, 60
2, 26624, Note_on_c, 0, 82, 60
2, 26626, Note_on_c, 0, 55, 60
2, 26629, Note_on_c, 0, 43, 60
2, 26629, Control_c, 0, 64, 127
2, 26678, Note_on_c, 0, 86, 60
2, 26678, Note_on_c, 0, 83, 60
2, 26682, Note_on_c, 0, 82, 0
2, 26682, Note_on_c, 0, 85, 0
2, 26685, Note_on_c, 0, 43, 0
2, 26685, Note_on_c, 0, 55, 0
2, 26727, Control_c, 0, 64, 0
2, 26734, Note_on_c, 0, 86, 0
2, 26734, Note_on_c, 0, 59, 60
2, 26734, Note_on_c, 0, 55, 60
2, 26736, Note_on_c, 0, 50, 60
2, 26748, Note_on_c, 0, 83, 0
2, 26776, Note_on_c, 0, 50, 0
2, 26783, Note_on_c, 0, 91, 60
2, 26783, Note_on_c, 0, 95, 60
2, 26783, Note_on_c, 0, 86, 60
2, 26789, Note_on_c, 0, 55, 0
2, 26789, Note_on_c, 0, 59, 0
2, 26840, Note_on_c, 0, 91, 0
2, 26840, Note_on_c, 0, 50, 60
2, 26843, Note_on_c, 0, 38, 60
2, 26866, Note_on_c, 0, 95, 0
2, 26866, Note_on_c, 0, 86, 0
2, 26890, Note_on_c, 0, 94, 60
2, 26892, Note_on_c, 0, 91, 60
2, 26892, Note_on_c, 0, 85, 60
2, 26899, Note_on_c, 0, 50, 0
2, 26899, Note_on_c, 0, 38, 0
2, 26909, Note_on_c, 0, 91, 0
2, 26946, Note_on_c, 0, 91, 60
2, 26946, Note_on_c, 0, 95, 60
2, 26946, Note_on_c, 0, 86, 60
2, 26948, Note_on_c, 0, 94, 0
2, 26948, Note_on_c, 0, 59, 60
2, 26948, Note_on_c, 0, 55, 60
2, 26950, Note_on_c, 0, 85, 0
2, 26950, Note_on_c, 0, 50, 60
2, 26960, Note_on_c, 0, 86, 0
2, 26960, Note_on_c, 0, 91, 0
2, 26995, Note_on_c, 0, 86, 60
2, 26997, Note_on_c, 0, 91, 60
2, 26999, Note_on_c, 0, 83, 60
2, 27001, Note_on_c, 0, 95, 0
2, 27003, Note_on_c, 0, 59, 0
2, 27003, Note_on_c, 0, 55, 0
2, 27003, Note_on_c, 0, 50, 0
2, 27052, Note_on_c, 0, 55, 60
2, 27052, Note_on_c, 0, 43, 60
2, 27065, Note_on_c, 0, 91, 0
2, 27068, Control_c, 0, 64, 127
2, 27089, Note_on_c, 0, 86, 0
2, 27089, Note_on_c, 0, 54, 60
2, 27091, Note_on_c, 0, 83, 0
2, 27091, Note_on_c, 0, 42, 60
2, 27093, Note_on_c, 0, 43, 0
2, 27099, Note_on_c, 0, 90, 60
2, 27108, Note_on_c, 0, 55, 0
2, 27123, Control_c, 0, 64, 0
2, 27151, Note_on_c, 0, 86, 60
2, 27151, Note_on_c, 0, 91, 60
2, 27151, Note_on_c, 0, 83, 60
2, 27155, Note_on_c, 0, 90, 0
2, 27155, Note_on_c, 0, 53, 60
2, 27155, Note_on_c, 0, 41, 60
2, 27157, Note_on_c, 0, 54, 0
2, 27160, Note_on_c, 0, 42, 0
2, 27192, Note_on_c, 0, 83, 0
2, 27193, Note_on_c, 0, 53, 0
2, 27204, Note_on_c, 0, 86, 0
2, 27204, Note_on_c, 0, 91, 0
2, 27204, Note_on_c, 0, 55, 60
2, 27207, Note_on_c, 0, 43, 60
2, 27209, Note_on_c, 0, 41, 0
2, 27254, Note_on_c, 0, 90, 60
2, 27260, Note_on_c, 0, 52, 60
2, 27260, Note_on_c, 0, 40, 60
2, 27263, Note_on_c, 0, 43, 0
2, 27277, Note_on_c, 0, 55, 0
2, 27307, Note_on_c, 0, 86, 60
2, 27307, Note_on_c, 0, 91, 60
2, 27307, Note_on_c, 0, 83, 60
2, 27310, Note_on_c, 0, 90, 0
2, 27312, Note_on_c, 0, 52, 0
2, 27312, Note_on_c, 0, 51, 60
2, 27313, Note_on_c, 0, 40, 0
2, 27313, Note_on_c, 0, 39, 60
2, 27354, Note_on_c, 0, 39, 0
2, 27362, Note_on_c, 0, 50, 60
2, 27365, Note_on_c, 0, 38, 60
2, 27367, Note_on_c, 0, 51, 0
2, 27376, Note_on_c, 0, 91, 0
2, 27378, Note_on_c, 0, 86, 0
2, 27378, Note_on_c, 0, 83, 0
2, 27416, Note_on_c, 0, 79, 60
2, 27418, Note_on_c, 0, 49, 60
2, 27421, Note_on_c, 0, 50, 0
2, 27421, Note_on_c, 0, 37, 60
2, 27423, Note_on_c, 0, 38, 0
2, 27459, Control_c, 0, 64, 127
2, 27470, Note_on_c, 0, 48, 60
2, 27470, Note_on_c, 0, 36, 60
2, 27472, Note_on_c, 0, 49, 0
2, 27472, Note_on_c, 0, 37, 0
2, 27472, Note_on_c, 0, 79, 0
2, 27517, Note_on_c, 0, 79, 60
2, 27553, Control_c, 0, 64, 0
2, 27571, Note_on_c, 0, 84, 60
2, 27573, Note_on_c, 0, 64, 60
2, 27575, Note_on_c, 0, 60, 60
2, 27575, Note_on_c, 0, 55, 60
2, 27576, Note_on_c, 0, 79, 0
2, 27624, Note_on_c, 0, 88, 60
2, 27628, Note_on_c, 0, 84, 0
2, 27630, Note_on_c, 0, 60, 0
2, 27630, Note_on_c, 0, 64, 0
2, 27630, Note_on_c, 0, 55, 0
2, 27675, Note_on_c, 0, 36, 0
2, 27679, Note_on_c, 0, 84, 60
2, 27682, Note_on_c, 0, 91, 60
2, 27682, Note_on_c, 0, 79, 60
2, 27684, Note_on_c, 0, 88, 0
2, 27684, Note_on_c, 0, 52, 60
2, 27686, Note_on_c, 0, 40, 60
2, 27688, Note_on_c, 0, 48, 0
2, 27738, Note_on_c, 0, 91, 0
2, 27738, Note_on_c, 0, 84, 0
2, 27740, Note_on_c, 0, 79, 0
2, 27740, Note_on_c, 0, 52, 0
2, 27742, Note_on_c, 0, 40, 0
2, 27789, Note_on_c, 0, 93, 60
2, 27789, Note_on_c, 0, 84, 60
2, 27791, Note_on_c, 0, 81, 60
2, 27793, Note_on_c, 0, 51, 60
2, 27795, Note_on_c, 0, 39, 60
2, 27840, Note_on_c, 0, 91, 60
2, 27840, Note_on_c, 0, 83, 60
2, 27842, Note_on_c, 0, 79, 60
2, 27844, Note_on_c, 0, 81, 0
2, 27844, Note_on_c, 0, 93, 0
2, 27844, Note_on_c, 0, 84, 0
2, 27849, Note_on_c, 0, 39, 0
2, 27862, Note_on_c, 0, 51, 0
2, 27898, Note_on_c, 0, 50, 60
2, 27900, Note_on_c, 0, 38, 60
2, 27902, Control_c, 0, 64, 127
2, 27926, Note_on_c, 0, 91, 0
2, 27943, Note_on_c, 0, 38, 0
2, 27949, Note_on_c, 0, 88, 60
2, 27956, Note_on_c, 0, 50, 0
2, 27960, Control_c, 0, 64, 0
2, 28005, Note_on_c, 0, 86, 60
2, 28009, Note_on_c, 0, 79, 0
2, 28009, Note_on_c, 0, 88, 0
2, 28009, Note_on_c, 0, 83, 0
2, 28009, Note_on_c, 0, 55, 60
2, 28009, Note_on_c, 0, 43, 60
2, 28060, Note_on_c, 0, 83, 60
2, 28062, Note_on_c, 0, 86, 0
2, 28065, Note_on_c, 0, 55, 0
2, 28067, Note_on_c, 0, 43, 0
2, 28105, Note_on_c, 0, 83, 0
2, 28116, Note_on_c, 0, 76, 60
2, 28116, Note_on_c, 0, 74, 60
2, 28118, Note_on_c, 0, 52, 60
2, 28118, Note_on_c, 0, 55, 60
2, 28118, Note_on_c, 0, 59, 60
2, 28118, Note_on_c, 0, 47, 60
2, 28168, Note_on_c, 0, 83, 60
2, 28172, Note_on_c, 0, 76, 0
2, 28224, Note_on_c, 0, 79, 60
2, 28225, Note_on_c, 0, 83, 0
2, 28264, Note_on_c, 0, 74, 0
2, 28274, Note_on_c, 0, 76, 60
2, 28276, Note_on_c, 0, 47, 0
2, 28276, Note_on_c, 0, 59, 0
2, 28276, Note_on_c, 0, 79, 0
2, 28290, Note_on_c, 0, 55, 0
2, 28290, Note_on_c, 0, 52, 0
2, 28328, Note_on_c, 0, 57, 60
2, 28328, Note_on_c, 0, 73, 60
2, 28328, Note_on_c, 0, 79, 60
2, 28328, Note_on_c, 0, 45, 60
2, 28330, Note_on_c, 0, 76, 0
2, 28345, Control_c, 0, 64, 127
2, 28377, Note_on_c, 0, 55, 60
2, 28379, Note_on_c, 0, 43, 60
2, 28382, Note_on_c, 0, 57, 0
2, 28384, Note_on_c, 0, 45, 0
2, 28401, Control_c, 0, 64, 0
2, 28433, Note_on_c, 0, 52, 60
2, 28433, Note_on_c, 0, 40, 60
2, 28435, Note_on_c, 0, 55, 0
2, 28435, Note_on_c, 0, 43, 0
2, 28483, Note_on_c, 0, 57, 60
2, 28485, Note_on_c, 0, 73, 0
2, 28485, Note_on_c, 0, 52, 0
2, 28485, Note_on_c, 0, 79, 0
2, 28485, Note_on_c, 0, 45, 60
2, 28487, Note_on_c, 0, 40, 0
2, 28527, Note_on_c, 0, 45, 0
2, 28527, Note_on_c, 0, 57, 0
2, 28537, Note_on_c, 0, 50, 60
2, 28537, Note_on_c, 0, 72, 60
2, 28537, Note_on_c, 0, 74, 60
2, 28537, Note_on_c, 0, 78, 60
2, 28537, Note_on_c, 0, 81, 60
2, 28537, Note_on_c, 0, 38, 60
2, 28551, Note_on_c, 0, 81, 0
2, 28551, Note_on_c, 0, 78, 0
2, 28551, Note_on_c, 0, 74, 0
2, 28553, Note_on_c, 0, 72, 0
2, 28587, Note_on_c, 0, 74, 60
2, 28587, Note_on_c, 0, 78, 60
2, 28587, Note_on_c, 0, 81, 60
2, 28587, Note_on_c, 0, 72, 60
2, 28643, Note_on_c, 0, 72, 0
2, 28643, Note_on_c, 0, 78, 0
2, 28643, Note_on_c, 0, 74, 0
2, 28643, Note_on_c, 0, 81, 0
2, 28683, Note_on_c, 0, 35, 60
2, 28685, Note_on_c, 0, 38, 0
2, 28685, Note_on_c, 0, 50, 0
2, 28690, Note_on_c, 0, 79, 60
2, 28692, Note_on_c, 0, 74, 60
2, 28692, Note_on_c, 0, 71, 60
2, 28694, Note_on_c, 0, 47, 60
2, 28735, Control_c, 0, 64, 127
2, 28746, Note_on_c, 0, 55, 60
2, 28748, Note_on_c, 0, 43, 60
2, 28750, Note_on_c, 0, 47, 0
2, 28752, Note_on_c, 0, 35, 0
2, 28833, Control_c, 0, 64, 0
2, 28854, Note_on_c, 0, 62, 60
2, 28854, Note_on_c, 0, 50, 60
2, 28868, Note_on_c, 0, 43, 0
2, 28880, Note_on_c, 0, 55, 0
2, 28955, Note_on_c, 0, 64, 60
2, 28955, Note_on_c, 0, 52, 60
2, 28957, Note_on_c, 0, 79, 0
2, 28957, Note_on_c, 0, 71, 0
2, 28957, Note_on_c, 0, 74, 0
2, 28998, Note_on_c, 0, 50, 0
2, 29000, Note_on_c, 0, 62, 0
2, 29009, Note_on_c, 0, 67, 60
2, 29011, Note_on_c, 0, 55, 60
2, 29026, Note_on_c, 0, 64, 0
2, 29026, Note_on_c, 0, 52, 0
2, 29064, Note_on_c, 0, 69, 60
2, 29066, Note_on_c, 0, 57, 60
2, 29066, Note_on_c, 0, 62, 60
2, 29066, Note_on_c, 0, 50, 60
2, 29068, Note_on_c, 0, 67, 0
2, 29068, Note_on_c, 0, 55, 0
2, 29120, Note_on_c, 0, 71, 60
2, 29120, Note_on_c, 0, 59, 60
2, 29122, Note_on_c, 0, 69, 0
2, 29122, Note_on_c, 0, 57, 0
2, 29122, Note_on_c, 0, 50, 0
2, 29124, Note_on_c, 0, 62, 0
2, 29159, Note_on_c, 0, 74, 60
2, 29159, Note_on_c, 0, 67, 60
2, 29160, Note_on_c, 0, 62, 60
2, 29160, Note_on_c, 0, 43, 60
2, 29163, Note_on_c, 0, 59, 0
2, 29163, Control_c, 0, 64, 127
2, 29227, Control_c, 0, 64, 0
2, 29233, Note_on_c, 0, 59, 60
2, 29233, Note_on_c, 0, 55, 60
2, 29235, Note_on_c, 0, 50, 60
2, 29263, Note_on_c, 0, 43, 0
2, 29272, Note_on_c, 0, 67, 0
2, 29272, Note_on_c, 0, 71, 0
2, 29272, Note_on_c, 0, 74, 0
2, 29272, Note_on_c, 0, 59, 0
2, 29274, Note_on_c, 0, 62, 0
2, 29298, Note_on_c, 0, 55, 0
2, 29298, Note_on_c, 0, 50, 0
2, 29334, Note_on_c, 0, 71, 60
2, 29334, Note_on_c, 0, 79, 60
2, 29334, Note_on_c, 0, 67, 60
2, 29336, Note_on_c, 0, 38, 60
2, 29424, Note_on_c, 0, 55, 60
2, 29424, Note_on_c, 0, 59, 60
2, 29424, Note_on_c, 0, 50, 60
2, 29452, Note_on_c, 0, 50, 0
2, 29452, Note_on_c, 0, 55, 0
2, 29452, Note_on_c, 0, 79, 0
2, 29452, Note_on_c, 0, 71, 0
2, 29452, Note_on_c, 0, 67, 0
2, 29452, Note_on_c, 0, 59, 0
2, 29454, Note_on_c, 0, 38, 0
2, 29477, Control_c, 0, 64, 127
2, 29499, Note_on_c, 0, 71, 60
2, 29501, Note_on_c, 0, 59, 60
2, 29501, Note_on_c, 0, 67, 60
2, 29501, Note_on_c, 0, 43, 60
2, 29548, Note_on_c, 0, 70, 60
2, 29550, Note_on_c, 0, 67, 0
2, 29550, Note_on_c, 0, 58, 60
2, 29552, Note_on_c, 0, 43, 0
2, 29552, Note_on_c, 0, 71, 0
2, 29552, Note_on_c, 0, 59, 0
2, 29568, Control_c, 0, 64, 0
2, 29602, Note_on_c, 0, 71, 60
2, 29602, Note_on_c, 0, 67, 60
2, 29604, Note_on_c, 0, 70, 0
2, 29604, Note_on_c, 0, 55, 60
2, 29604, Note_on_c, 0, 59, 60
2, 29604, Note_on_c, 0, 50, 60
2, 29606, Note_on_c, 0, 58, 0
2, 29618, Note_on_c, 0, 67, 0
2, 29618, Note_on_c, 0, 71, 0
2, 29646, Note_on_c, 0, 59, 0
2, 29655, Note_on_c, 0, 74, 60
2, 29658, Note_on_c, 0, 65, 60
2, 29658, Note_on_c, 0, 67, 60
2, 29658, Note_on_c, 0, 71, 60
2, 29658, Note_on_c, 0, 62, 60
2, 29660, Note_on_c, 0, 55, 0
2, 29662, Note_on_c, 0, 50, 0
2, 29702, Note_on_c, 0, 62, 0
2, 29715, Note_on_c, 0, 74, 0
2, 29715, Note_on_c, 0, 47, 60
2, 29717, Note_on_c, 0, 65, 0
2, 29717, Note_on_c, 0, 67, 0
2, 29730, Note_on_c, 0, 71, 0
2, 29764, Note_on_c, 0, 74, 60
2, 29769, Note_on_c, 0, 65, 60
2, 29769, Note_on_c, 0, 67, 60
2, 29769, Note_on_c, 0, 62, 60
2, 29771, Note_on_c, 0, 47, 0
2, 29820, Note_on_c, 0, 55, 60
2, 29820, Note_on_c, 0, 59, 60
2, 29820, Note_on_c, 0, 50, 60
2, 29822, Note_on_c, 0, 62, 0
2, 29832, Note_on_c, 0, 67, 0
2, 29832, Note_on_c, 0, 74, 0
2, 29860, Note_on_c, 0, 65, 0
2, 29869, Note_on_c, 0, 76, 60
2, 29872, Note_on_c, 0, 64, 60
2, 29874, Note_on_c, 0, 50, 0
2, 29874, Note_on_c, 0, 59, 0
2, 29886, Note_on_c, 0, 64, 0
2, 29886, Note_on_c, 0, 55, 0
2, 29914, Control_c, 0, 64, 127
2, 29923, Note_on_c, 0, 74, 60
2, 29925, Note_on_c, 0, 64, 60
2, 29925, Note_on_c, 0, 67, 60
2, 29925, Note_on_c, 0, 62, 60
2, 29928, Note_on_c, 0, 76, 0
2, 29928, Note_on_c, 0, 48, 60
2, 29966, Note_on_c, 0, 74, 0
2, 29976, Note_on_c, 0, 72, 60
2, 29976, Note_on_c, 0, 60, 60
2, 29980, Note_on_c, 0, 62, 0
2, 29991, Note_on_c, 0, 60, 0
2, 30010, Control_c, 0, 64, 0
2, 30030, Note_on_c, 0, 60, 60
2, 30030, Note_on_c, 0, 52, 60
2, 30032, Note_on_c, 0, 67, 0
2, 30032, Note_on_c, 0, 64, 0
2, 30032, Note_on_c, 0, 55, 60
2, 30045, Note_on_c, 0, 55, 0
2, 30081, Note_on_c, 0, 67, 60
2, 30083, Note_on_c, 0, 64, 60
2, 30083, Note_on_c, 0, 55, 60
2, 30086, Note_on_c, 0, 60, 0
2, 30086, Note_on_c, 0, 72, 0
2, 30086, Note_on_c, 0, 48, 0
2, 30086, Note_on_c, 0, 52, 0
2, 30137, Note_on_c, 0, 48, 60
2, 30165, Note_on_c, 0, 64, 0
2, 30165, Note_on_c, 0, 67, 0
2, 30177, Note_on_c, 0, 55, 0
2, 30189, Note_on_c, 0, 63, 60
2, 30189, Note_on_c, 0, 69, 60
2, 30189, Note_on_c, 0, 57, 60
2, 30241, Note_on_c, 0, 55, 60
2, 30241, Note_on_c, 0, 60, 60
2, 30241, Note_on_c, 0, 51, 60
2, 30257, Note_on_c, 0, 55, 0
2, 30267, Note_on_c, 0, 57, 0
2, 30267, Note_on_c, 0, 69, 0
2, 30288, Note_on_c, 0, 67, 60
2, 30293, Note_on_c, 0, 55, 60
2, 30295, Note_on_c, 0, 60, 0
2, 30295, Note_on_c, 0, 51, 0
2, 30308, Note_on_c, 0, 63, 0
2, 30308, Control_c, 0, 64, 127
2, 30336, Note_on_c, 0, 67, 0
2, 30347, Note_on_c, 0, 59, 60
2, 30347, Note_on_c, 0, 71, 60
2, 30347, Note_on_c, 0, 43, 60
2, 30349, Note_on_c, 0, 55, 0
2, 30351, Note_on_c, 0, 48, 0
2, 30400, Note_on_c, 0, 67, 60
2, 30403, Note_on_c, 0, 55, 60
2, 30405, Note_on_c, 0, 71, 0
2, 30405, Note_on_c, 0, 59, 0
2, 30407, Note_on_c, 0, 43, 0
2, 30408, Control_c, 0, 64, 0
2, 30419, Note_on_c, 0, 55, 0
2, 30445, Note_on_c, 0, 67, 0
2, 30457, Note_on_c, 0, 55, 60
2, 30457, Note_on_c, 0, 59, 60
2, 30457, Note_on_c, 0, 64, 60
2, 30457, Note_on_c, 0, 50, 60
2, 30475, Note_on_c, 0, 50, 0
2, 30513, Note_on_c, 0, 64, 0
2, 30513, Note_on_c, 0, 59, 0
2, 30513, Note_on_c, 0, 62, 60
2, 30513, Note_on_c, 0, 50, 60
2, 30528, Note_on_c, 0, 50, 0
2, 30528, Note_on_c, 0, 55, 0
2, 30563, Note_on_c, 0, 59, 60
2, 30565, Note_on_c, 0, 55, 60
2, 30565, Note_on_c, 0, 50, 60
2, 30580, Note_on_c, 0, 55, 0
2, 30605, Note_on_c, 0, 62, 0
2, 30612, Note_on_c, 0, 67, 60
2, 30614, Note_on_c, 0, 55, 60
2, 30666, Note_on_c, 0, 69, 60
2, 30668, Note_on_c, 0, 67, 0
2, 30668, Note_on_c, 0, 59, 0
2, 30668, Note_on_c, 0, 57, 60
2, 30670, Note_on_c, 0, 50, 0
2, 30670, Note_on_c, 0, 55, 0
2, 30720, Note_on_c, 0, 71, 60
2, 30721, Note_on_c, 0, 59, 60
2, 30723, Note_on_c, 0, 69, 0
2, 30723, Note_on_c, 0, 57, 0
2, 30749, Control_c, 0, 64, 127
2, 30772, Note_on_c, 0, 67, 60
2, 30772, Note_on_c, 0, 74, 60
2, 30772, Note_on_c, 0, 62, 60
2, 30777, Note_on_c, 0, 59, 0
2, 30777, Note_on_c, 0, 43, 60
2, 30886, Note_on_c, 0, 59, 60
2, 30888, Note_on_c, 0, 55, 60
2, 30888, Note_on_c, 0, 50, 60
2, 30892, Control_c, 0, 64, 0
2, 30939, Note_on_c, 0, 74, 0
2, 30939, Note_on_c, 0, 71, 0
2, 30941, Note_on_c, 0, 59, 0
2, 30941, Note_on_c, 0, 67, 0
2, 30941, Note_on_c, 0, 62, 0
2, 30941, Note_on_c, 0, 50, 0
2, 30941, Note_on_c, 0, 55, 0
2, 30983, Note_on_c, 0, 43, 0
2, 30991, Note_on_c, 0, 71, 60
2, 30991, Note_on_c, 0, 79, 60
2, 30991, Note_on_c, 0, 67, 60
2, 30993, Note_on_c, 0, 40, 60
2, 31098, Note_on_c, 0, 59, 60
2, 31100, Note_on_c, 0, 55, 60
2, 31100, Note_on_c, 0, 52, 60
2, 31153, Note_on_c, 0, 79, 0
2, 31155, Note_on_c, 0, 55, 0
2, 31155, Note_on_c, 0, 67, 0
2, 31155, Note_on_c, 0, 71, 0
2, 31155, Note_on_c, 0, 59, 0
2, 31155, Note_on_c, 0, 52, 0
2, 31181, Note_on_c, 0, 40, 0
2, 31181, Control_c, 0, 64, 127
2, 31202, Note_on_c, 0, 78, 60
2, 31202, Note_on_c, 0, 74, 60
2, 31205, Note_on_c, 0, 66, 60
2, 31207, Note_on_c, 0, 33, 60
2, 31254, Note_on_c, 0, 77, 60
2, 31256, Note_on_c, 0, 65, 60
2, 31258, Note_on_c, 0, 66, 0
2, 31258, Note_on_c, 0, 78, 0
2, 31258, Note_on_c, 0, 74, 0
2, 31273, Control_c, 0, 64, 0
2, 31310, Note_on_c, 0, 66, 60
2, 31310, Note_on_c, 0, 74, 60
2, 31310, Note_on_c, 0, 78, 60
2, 31310, Note_on_c, 0, 62, 60
2, 31312, Note_on_c, 0, 77, 0
2, 31312, Note_on_c, 0, 57, 60
2, 31312, Note_on_c, 0, 54, 60
2, 31324, Note_on_c, 0, 74, 0
2, 31324, Note_on_c, 0, 78, 0
2, 31324, Note_on_c, 0, 65, 0
2, 31350, Note_on_c, 0, 54, 0
2, 31350, Note_on_c, 0, 66, 0
2, 31350, Note_on_c, 0, 57, 0
2, 31359, Note_on_c, 0, 74, 60
2, 31359, Note_on_c, 0, 78, 60
2, 31359, Note_on_c, 0, 81, 60
2, 31359, Note_on_c, 0, 69, 60
2, 31366, Note_on_c, 0, 62, 0
2, 31378, Note_on_c, 0, 33, 0
2, 31404, Note_on_c, 0, 74, 0
2, 31416, Note_on_c, 0, 30, 60
2, 31430, Note_on_c, 0, 78, 0
2, 31430, Note_on_c, 0, 69, 0
2, 31430, Note_on_c, 0, 81, 0
2, 31464, Note_on_c, 0, 74, 60
2, 31466, Note_on_c, 0, 62, 60
2, 31483, Note_on_c, 0, 62, 0
2, 31509, Note_on_c, 0, 74, 0
2, 31519, Note_on_c, 0, 78, 60
2, 31519, Note_on_c, 0, 66, 60
2, 31522, Note_on_c, 0, 57, 60
2, 31522, Note_on_c, 0, 62, 60
2, 31522, Note_on_c, 0, 54, 60
2, 31573, Note_on_c, 0, 81, 60
2, 31573, Note_on_c, 0, 69, 60
2, 31575, Note_on_c, 0, 66, 0
2, 31575, Note_on_c, 0, 78, 0
2, 31578, Note_on_c, 0, 62, 0
2, 31578, Note_on_c, 0, 57, 0
2, 31578, Note_on_c, 0, 54, 0
2, 31616, Control_c, 0, 64, 127
2, 31618, Note_on_c, 0, 30, 0
2, 31625, Note_on_c, 0, 73, 60
2, 31625, Note_on_c, 0, 83, 60
2, 31625, Note_on_c, 0, 71, 60
2, 31627, Note_on_c, 0, 81, 0
2, 31627, Note_on_c, 0, 69, 0
2, 31627, Note_on_c, 0, 28, 60
2, 31676, Note_on_c, 0, 79, 60
2, 31678, Note_on_c, 0, 83, 0
2, 31678, Note_on_c, 0, 67, 60
2, 31680, Note_on_c, 0, 71, 0
2, 31705, Control_c, 0, 64, 0
2, 31725, Note_on_c, 0, 76, 60
2, 31725, Note_on_c, 0, 64, 60
2, 31728, Note_on_c, 0, 57, 60
2, 31728, Note_on_c, 0, 61, 60
2, 31728, Note_on_c, 0, 55, 60
2, 31729, Note_on_c, 0, 79, 0
2, 31729, Note_on_c, 0, 67, 0
2, 31729, Note_on_c, 0, 73, 0
2, 31742, Note_on_c, 0, 61, 0
2, 31776, Note_on_c, 0, 73, 60
2, 31778, Note_on_c, 0, 76, 0
2, 31778, Note_on_c, 0, 61, 60
2, 31780, Note_on_c, 0, 55, 0
2, 31780, Note_on_c, 0, 57, 0
2, 31780, Note_on_c, 0, 64, 0
2, 31783, Note_on_c, 0, 28, 0
2, 31834, Note_on_c, 0, 45, 60
2, 31836, Note_on_c, 0, 33, 60
2, 31862, Note_on_c, 0, 73, 0
2, 31862, Note_on_c, 0, 61, 0
2, 31888, Note_on_c, 0, 69, 60
2, 31888, Note_on_c, 0, 57, 60
2, 31905, Note_on_c, 0, 57, 0
2, 31930, Note_on_c, 0, 69, 0
2, 31942, Note_on_c, 0, 71, 60
2, 31944, Note_on_c, 0, 67, 60
2, 31944, Note_on_c, 0, 59, 60
2, 31945, Note_on_c, 0, 57, 60
2, 31945, Note_on_c, 0, 61, 60
2, 31945, Note_on_c, 0, 55, 60
2, 31961, Note_on_c, 0, 61, 0
2, 31963, Note_on_c, 0, 45, 0
2, 31991, Note_on_c, 0, 33, 0
2, 31997, Note_on_c, 0, 73, 60
2, 31999, Note_on_c, 0, 61, 60
2, 32001, Note_on_c, 0, 57, 0
2, 32001, Note_on_c, 0, 67, 0
2, 32001, Note_on_c, 0, 59, 0
2, 32001, Note_on_c, 0, 71, 0
2, 32014, Note_on_c, 0, 55, 0
2, 32053, Note_on_c, 0, 74, 60
2, 32055, Note_on_c, 0, 62, 60
2, 32055, Note_on_c, 0, 66, 60
2, 32055, Note_on_c, 0, 57, 60
2, 32057, Note_on_c, 0, 61, 0
2, 32057, Note_on_c, 0, 73, 0
2, 32057, Note_on_c, 0, 50, 60
2, 32059, Control_c, 0, 64, 127
2, 32111, Note_on_c, 0, 57, 0
2, 32125, Note_on_c, 0, 50, 0
2, 32153, Control_c, 0, 64, 0
2, 32161, Note_on_c, 0, 57, 60
2, 32161, Note_on_c, 0, 45, 60
2, 32217, Note_on_c, 0, 45, 0
2, 32217, Note_on_c, 0, 57, 0
2, 32269, Note_on_c, 0, 50, 60
2, 32269, Note_on_c, 0, 38, 60
2, 32309, Note_on_c, 0, 74, 0
2, 32309, Note_on_c, 0, 66, 0
2, 32350, Note_on_c, 0, 62, 0
2, 32372, Note_on_c, 0, 67, 60
2, 32372, Note_on_c, 0, 55, 60
2, 32374, Note_on_c, 0, 50, 0
2, 32376, Note_on_c, 0, 38, 0
2, 32425, Note_on_c, 0, 71, 60
2, 32427, Note_on_c, 0, 67, 0
2, 32438, Note_on_c, 0, 59, 60
2, 32440, Note_on_c, 0, 71, 0
2, 32442, Note_on_c, 0, 55, 0
2, 32453, Control_c, 0, 64, 127
2, 32474, Note_on_c, 0, 74, 60
2, 32476, Note_on_c, 0, 67, 60
2, 32476, Note_on_c, 0, 71, 60
2, 32476, Note_on_c, 0, 62, 60
2, 32478, Note_on_c, 0, 59, 0
2, 32478, Note_on_c, 0, 43, 60
2, 32581, Note_on_c, 0, 59, 60
2, 32584, Note_on_c, 0, 55, 60
2, 32584, Note_on_c, 0, 50, 60
2, 32588, Control_c, 0, 64, 0
2, 32622, Note_on_c, 0, 59, 0
2, 32622, Note_on_c, 0, 74, 0
2, 32622, Note_on_c, 0, 71, 0
2, 32622, Note_on_c, 0, 67, 0
2, 32624, Note_on_c, 0, 62, 0
2, 32624, Note_on_c, 0, 50, 0
2, 32637, Note_on_c, 0, 55, 0
2, 32678, Note_on_c, 0, 43, 0
2, 32684, Note_on_c, 0, 71, 60
2, 32684, Note_on_c, 0, 79, 60
2, 32684, Note_on_c, 0, 67, 60
2, 32687, Note_on_c, 0, 38, 60
2, 32791, Note_on_c, 0, 59, 60
2, 32791, Note_on_c, 0, 55, 60
2, 32793, Note_on_c, 0, 50, 60
2, 32830, Note_on_c, 0, 79, 0
2, 32845, Note_on_c, 0, 55, 0
2, 32845, Note_on_c, 0, 67, 0
2, 32845, Note_on_c, 0, 71, 0
2, 32845, Note_on_c, 0, 59, 0
2, 32845, Note_on_c, 0, 50, 0
2, 32885, Note_on_c, 0, 38, 0
2, 32885, Control_c, 0, 64, 127
2, 32892, Note_on_c, 0, 71, 60
2, 32892, Note_on_c, 0, 67, 60
2, 32894, Note_on_c, 0, 59, 60
2, 32896, Note_on_c, 0, 43, 60
2, 32945, Note_on_c, 0, 70, 60
2, 32950, Note_on_c, 0, 43, 0
2, 32950, Note_on_c, 0, 59, 0
2, 32950, Note_on_c, 0, 71, 0
2, 32950, Note_on_c, 0, 67, 0
2, 32950, Note_on_c, 0, 58, 60
2, 32981, Control_c, 0, 64, 0
2, 33000, Note_on_c, 0, 67, 60
2, 33000, Note_on_c, 0, 71, 60
2, 33000, Note_on_c, 0, 59, 60
2, 33003, Note_on_c, 0, 58, 0
2, 33003, Note_on_c, 0, 70, 0
2, 33003, Note_on_c, 0, 55, 60
2, 33003, Note_on_c, 0, 50, 60
2, 33016, Note_on_c, 0, 71, 0
2, 33018, Note_on_c, 0, 67, 0
2, 33054, Note_on_c, 0, 71, 60
2, 33054, Note_on_c, 0, 74, 60
2, 33054, Note_on_c, 0, 67, 60
2, 33056, Note_on_c, 0, 65, 60
2, 33056, Note_on_c, 0, 62, 60
2, 33059, Note_on_c, 0, 50, 0
2, 33059, Note_on_c, 0, 59, 0
2, 33072, Note_on_c, 0, 55, 0
2, 33108, Note_on_c, 0, 71, 0
2, 33108, Note_on_c, 0, 74, 0
2, 33108, Note_on_c, 0, 47, 60
2, 33110, Note_on_c, 0, 67, 0
2, 33110, Note_on_c, 0, 62, 0
2, 33122, Note_on_c, 0, 65, 0
2, 33157, Note_on_c, 0, 74, 60
2, 33159, Note_on_c, 0, 67, 60
2, 33159, Note_on_c, 0, 71, 60
2, 33159, Note_on_c, 0, 62, 60
2, 33162, Note_on_c, 0, 65, 60
2, 33164, Note_on_c, 0, 47, 0
2, 33217, Note_on_c, 0, 55, 60
2, 33217, Note_on_c, 0, 59, 60
2, 33217, Note_on_c, 0, 50, 60
2, 33242, Note_on_c, 0, 71, 0
2, 33242, Note_on_c, 0, 74, 0
2, 33242, Note_on_c, 0, 67, 0
2, 33244, Note_on_c, 0, 62, 0
2, 33260, Note_on_c, 0, 65, 0
2, 33268, Note_on_c, 0, 76, 60
2, 33270, Note_on_c, 0, 64, 60
2, 33272, Note_on_c, 0, 55, 0
2, 33272, Note_on_c, 0, 50, 0
2, 33272, Note_on_c, 0, 59, 0
2, 33286, Note_on_c, 0, 64, 0
2, 33322, Note_on_c, 0, 67, 60
2, 33322, Note_on_c, 0, 74, 60
2, 33322, Note_on_c, 0, 64, 60
2, 33324, Note_on_c, 0, 76, 0
2, 33324, Note_on_c, 0, 48, 60
2, 33324, Note_on_c, 0, 62, 60
2, 33324, Control_c, 0, 64, 127
2, 33376, Note_on_c, 0, 72, 60
2, 33378, Note_on_c, 0, 60, 60
2, 33380, Note_on_c, 0, 74, 0
2, 33384, Note_on_c, 0, 62, 0
2, 33395, Note_on_c, 0, 48, 0
2, 33395, Note_on_c, 0, 60, 0
2, 33423, Control_c, 0, 64, 0
2, 33431, Note_on_c, 0, 55, 60
2, 33431, Note_on_c, 0, 60, 60
2, 33431, Note_on_c, 0, 52, 60
2, 33433, Note_on_c, 0, 64, 0
2, 33433, Note_on_c, 0, 67, 0
2, 33446, Note_on_c, 0, 55, 0
2, 33458, Note_on_c, 0, 72, 0
2, 33482, Note_on_c, 0, 64, 60
2, 33482, Note_on_c, 0, 67, 60
2, 33482, Note_on_c, 0, 55, 60
2, 33486, Note_on_c, 0, 52, 0
2, 33486, Note_on_c, 0, 60, 0
2, 33533, Note_on_c, 0, 48, 60
2, 33561, Note_on_c, 0, 67, 0
2, 33561, Note_on_c, 0, 55, 0
2, 33561, Note_on_c, 0, 64, 0
2, 33585, Note_on_c, 0, 69, 60
2, 33585, Note_on_c, 0, 63, 60
2, 33587, Note_on_c, 0, 57, 60
2, 33589, Note_on_c, 0, 48, 0
2, 33641, Note_on_c, 0, 55, 60
2, 33641, Note_on_c, 0, 60, 60
2, 33641, Note_on_c, 0, 51, 60
2, 33653, Note_on_c, 0, 69, 0
2, 33656, Note_on_c, 0, 55, 0
2, 33656, Note_on_c, 0, 57, 0
2, 33656, Note_on_c, 0, 63, 0
2, 33695, Note_on_c, 0, 67, 60
2, 33695, Note_on_c, 0, 55, 60
2, 33696, Note_on_c, 0, 60, 0
2, 33712, Note_on_c, 0, 51, 0
2, 33724, Control_c, 0, 64, 127
2, 33745, Note_on_c, 0, 71, 60
2, 33747, Note_on_c, 0, 59, 60
2, 33747, Note_on_c, 0, 62, 60
2, 33747, Note_on_c, 0, 43, 60
2, 33750, Note_on_c, 0, 67, 0
2, 33750, Note_on_c, 0, 55, 0
2, 33797, Note_on_c, 0, 67, 60
2, 33799, Note_on_c, 0, 71, 0
2, 33799, Note_on_c, 0, 55, 60
2, 33801, Note_on_c, 0, 43, 0
2, 33801, Note_on_c, 0, 59, 0
2, 33806, Note_on_c, 0, 62, 0
2, 33815, Note_on_c, 0, 55, 0
2, 33818, Control_c, 0, 64, 0
2, 33850, Note_on_c, 0, 64, 60
2, 33850, Note_on_c, 0, 59, 60
2, 33853, Note_on_c, 0, 55, 60
2, 33853, Note_on_c, 0, 52, 60
2, 33855, Note_on_c, 0, 67, 0
2, 33904, Note_on_c, 0, 64, 0
2, 33904, Note_on_c, 0, 52, 0
2, 33904, Note_on_c, 0, 59, 0
2, 33904, Note_on_c, 0, 62, 60
2, 33904, Note_on_c, 0, 50, 60
2, 33919, Note_on_c, 0, 55, 0
2, 33921, Note_on_c, 0, 50, 0
2, 33958, Note_on_c, 0, 59, 60
2, 33958, Note_on_c, 0, 55, 60
2, 33960, Note_on_c, 0, 50, 60
2, 34005, Note_on_c, 0, 62, 0
2, 34011, Note_on_c, 0, 71, 60
2, 34031, Note_on_c, 0, 59, 0
2, 34031, Note_on_c, 0, 50, 0
2, 34031, Note_on_c, 0, 55, 0
2, 34062, Note_on_c, 0, 70, 60
2, 34069, Note_on_c, 0, 71, 0
2, 34118, Note_on_c, 0, 71, 60
2, 34123, Note_on_c, 0, 70, 0
2, 34135, Note_on_c, 0, 71, 0
2, 34163, Control_c, 0, 64, 127
2, 34170, Note_on_c, 0, 71, 60
2, 34172, Note_on_c, 0, 75, 60
2, 34174, Note_on_c, 0, 54, 60
2, 34174, Note_on_c, 0, 42, 60
2, 34257, Control_c, 0, 64, 0
2, 34278, Note_on_c, 0, 59, 60
2, 34278, Note_on_c, 0, 57, 60
2, 34320, Note_on_c, 0, 57, 0
2, 34320, Note_on_c, 0, 75, 0
2, 34320, Note_on_c, 0, 54, 0
2, 34320, Note_on_c, 0, 59, 0
2, 34332, Note_on_c, 0, 71, 0
2, 34334, Note_on_c, 0, 42, 0
2, 34386, Note_on_c, 0, 75, 60
2, 34386, Note_on_c, 0, 78, 60
2, 34386, Note_on_c, 0, 71, 60
2, 34388, Note_on_c, 0, 47, 60
2, 34390, Note_on_c, 0, 35, 60
2, 34492, Note_on_c, 0, 59, 60
2, 34492, Note_on_c, 0, 57, 60
2, 34506, Note_on_c, 0, 75, 0
2, 34508, Note_on_c, 0, 78, 0
2, 34508, Note_on_c, 0, 71, 0
2, 34532, Note_on_c, 0, 57, 0
2, 34532, Note_on_c, 0, 59, 0
2, 34539, Note_on_c, 0, 81, 60
2, 34557, Note_on_c, 0, 81, 0
2, 34572, Note_on_c, 0, 47, 0
2, 34572, Note_on_c, 0, 35, 0
2, 34593, Note_on_c, 0, 76, 60
2, 34593, Note_on_c, 0, 81, 60
2, 34593, Note_on_c, 0, 71, 60
2, 34595, Note_on_c, 0, 40, 60
2, 34595, Note_on_c, 0, 52, 60
2, 34595, Control_c, 0, 64, 127
2, 34645, Note_on_c, 0, 79, 60
2, 34647, Note_on_c, 0, 81, 0
2, 34692, Control_c, 0, 64, 0
2, 34696, Note_on_c, 0, 78, 60
2, 34698, Note_on_c, 0, 59, 60
2, 34698, Note_on_c, 0, 55, 60
2, 34701, Note_on_c, 0, 79, 0
2, 34726, Note_on_c, 0, 76, 0
2, 34726, Note_on_c, 0, 71, 0
2, 34739, Note_on_c, 0, 78, 0
2, 34739, Note_on_c, 0, 59, 0
2, 34752, Note_on_c, 0, 79, 60
2, 34752, Note_on_c, 0, 70, 60
2, 34753, Note_on_c, 0, 55, 0
2, 34753, Note_on_c, 0, 52, 0
2, 34769, Note_on_c, 0, 40, 0
2, 34807, Note_on_c, 0, 49, 60
2, 34807, Note_on_c, 0, 37, 60
2, 34823, Note_on_c, 0, 79, 0
2, 34856, Note_on_c, 0, 79, 60
2, 34875, Note_on_c, 0, 37, 0
2, 34875, Note_on_c, 0, 49, 0
2, 34910, Note_on_c, 0, 78, 60
2, 34912, Note_on_c, 0, 58, 60
2, 34912, Note_on_c, 0, 55, 60
2, 34915, Note_on_c, 0, 79, 0
2, 34915, Note_on_c, 0, 52, 60
2, 34962, Note_on_c, 0, 76, 60
2, 34964, Note_on_c, 0, 78, 0
2, 34966, Note_on_c, 0, 52, 0
2, 34966, Note_on_c, 0, 58, 0
2, 34979, Note_on_c, 0, 55, 0
2, 34979, Note_on_c, 0, 76, 0
2, 34992, Note_on_c, 0, 70, 0
2, 34993, Control_c, 0, 64, 127
2, 35015, Note_on_c, 0, 76, 60
2, 35015, Note_on_c, 0, 71, 60
2, 35017, Note_on_c, 0, 50, 60
2, 35017, Note_on_c, 0, 38, 60
2, 35062, Note_on_c, 0, 38, 0
2, 35070, Note_on_c, 0, 74, 60
2, 35073, Note_on_c, 0, 76, 0
2, 35073, Note_on_c, 0, 71, 0
2, 35075, Note_on_c, 0, 50, 0
2, 35126, Note_on_c, 0, 73, 60
2, 35129, Note_on_c, 0, 59, 60
2, 35129, Note_on_c, 0, 55, 60
2, 35131, Note_on_c, 0, 74, 0
2, 35133, Control_c, 0, 64, 0
2, 35180, Note_on_c, 0, 74, 60
2, 35182, Note_on_c, 0, 73, 0
2, 35182, Note_on_c, 0, 55, 0
2, 35182, Note_on_c, 0, 59, 0
2, 35233, Note_on_c, 0, 50, 60
2, 35235, Note_on_c, 0, 38, 60
2, 35272, Note_on_c, 0, 74, 0
2, 35280, Note_on_c, 0, 72, 60
2, 35287, Note_on_c, 0, 38, 0
2, 35298, Note_on_c, 0, 50, 0
2, 35334, Note_on_c, 0, 69, 60
2, 35336, Note_on_c, 0, 57, 60
2, 35336, Note_on_c, 0, 60, 60
2, 35336, Note_on_c, 0, 54, 60
2, 35338, Note_on_c, 0, 72, 0
2, 35390, Note_on_c, 0, 66, 60
2, 35392, Note_on_c, 0, 60, 0
2, 35392, Note_on_c, 0, 54, 0
2, 35392, Note_on_c, 0, 69, 0
2, 35392, Note_on_c, 0, 57, 0
2, 35441, Note_on_c, 0, 59, 60
2, 35441, Note_on_c, 0, 67, 60
2, 35441, Note_on_c, 0, 55, 60
2, 35443, Note_on_c, 0, 66, 0
2, 35471, Control_c, 0, 64, 127
2, 35498, Note_on_c, 0, 55, 0
2, 35498, Note_on_c, 0, 67, 0
2, 35514, Note_on_c, 0, 59, 0
2, 35545, Control_c, 0, 64, 0
2, 35653, Note_on_c, 0, 74, 60
2, 35653, Note_on_c, 0, 79, 60
2, 35653, Note_on_c, 0, 71, 60
2, 35655, Note_on_c, 0, 67, 60
2, 35655, Note_on_c, 0, 55, 60
2, 35657, Note_on_c, 0, 43, 60
2, 35707, Note_on_c, 0, 55, 0
2, 35707, Note_on_c, 0, 67, 0
2, 35707, Note_on_c, 0, 71, 0
2, 35707, Note_on_c, 0, 74, 0
2, 35707, Note_on_c, 0, 79, 0
2, 35709, Note_on_c, 0, 43, 0
2, 35860, Note_on_c, 0, 64, 60
2, 35862, Note_on_c, 0, 52, 60
2, 35862, Note_on_c, 0, 48, 60
2, 35865, Control_c, 0, 64, 127
2, 35914, Note_on_c, 0, 67, 60
2, 35916, Note_on_c, 0, 52, 0
2, 35916, Note_on_c, 0, 55, 60
2, 35928, Note_on_c, 0, 55, 0
2, 35959, Control_c, 0, 64, 0
2, 35963, Note_on_c, 0, 72, 60
2, 35965, Note_on_c, 0, 55, 60
2, 35965, Note_on_c, 0, 60, 60
2, 35965, Note_on_c, 0, 52, 60
2, 35968, Note_on_c, 0, 67, 0
2, 36017, Note_on_c, 0, 74, 60
2, 36017, Note_on_c, 0, 62, 60
2, 36019, Note_on_c, 0, 60, 0
2, 36019, Note_on_c, 0, 55, 0
2, 36019, Note_on_c, 0, 64, 0
2, 36019, Note_on_c, 0, 72, 0
2, 36019, Note_on_c, 0, 52, 0
2, 36059, Note_on_c, 0, 74, 0
2, 36062, Note_on_c, 0, 48, 0
2, 36068, Note_on_c, 0, 76, 60
2, 36071, Note_on_c, 0, 64, 60
2, 36072, Note_on_c, 0, 43, 60
2, 36074, Note_on_c, 0, 62, 0
2, 36126, Note_on_c, 0, 76, 0
2, 36126, Note_on_c, 0, 79, 60
2, 36126, Note_on_c, 0, 67, 60
2, 36184, Note_on_c, 0, 64, 0
2, 36184, Note_on_c, 0, 55, 60
2, 36184, Note_on_c, 0, 60, 60
2, 36184, Note_on_c, 0, 52, 60
2, 36210, Note_on_c, 0, 67, 0
2, 36210, Note_on_c, 0, 79, 0
2, 36233, Note_on_c, 0, 76, 60
2, 36235, Note_on_c, 0, 68, 60
2, 36235, Note_on_c, 0, 64, 60
2, 36238, Note_on_c, 0, 55, 0
2, 36238, Note_on_c, 0, 60, 0
2, 36238, Note_on_c, 0, 52, 0
2, 36263, Note_on_c, 0, 43, 0
2, 36278, Control_c, 0, 64, 127
2, 36290, Note_on_c, 0, 47, 60
2, 36306, Note_on_c, 0, 68, 0
2, 36318, Note_on_c, 0, 76, 0
2, 36318, Note_on_c, 0, 64, 0
2, 36329, Note_on_c, 0, 63, 60
2, 36334, Note_on_c, 0, 47, 0
2, 36342, Note_on_c, 0, 75, 60
2, 36374, Control_c, 0, 64, 0
2, 36396, Note_on_c, 0, 56, 60
2, 36396, Note_on_c, 0, 62, 60
2, 36396, Note_on_c, 0, 64, 60
2, 36396, Note_on_c, 0, 68, 60
2, 36396, Note_on_c, 0, 76, 60
2, 36396, Note_on_c, 0, 52, 60
2, 36398, Note_on_c, 0, 75, 0
2, 36398, Note_on_c, 0, 63, 0
2, 36438, Note_on_c, 0, 56, 0
2, 36452, Note_on_c, 0, 68, 0
2, 36452, Note_on_c, 0, 64, 0
2, 36452, Note_on_c, 0, 52, 0
2, 36452, Note_on_c, 0, 76, 0
2, 36454, Note_on_c, 0, 62, 0
2, 36499, Note_on_c, 0, 68, 60
2, 36501, Note_on_c, 0, 77, 60
2, 36501, Note_on_c, 0, 65, 60
2, 36503, Note_on_c, 0, 40, 60
2, 36556, Note_on_c, 0, 40, 0
2, 36556, Note_on_c, 0, 68, 0
2, 36556, Note_on_c, 0, 77, 0
2, 36574, Note_on_c, 0, 65, 0
2, 36607, Note_on_c, 0, 76, 60
2, 36610, Note_on_c, 0, 56, 60
2, 36610, Note_on_c, 0, 62, 60
2, 36610, Note_on_c, 0, 64, 60
2, 36610, Note_on_c, 0, 68, 60
2, 36610, Note_on_c, 0, 52, 60
2, 36663, Note_on_c, 0, 72, 60
2, 36663, Note_on_c, 0, 69, 60
2, 36665, Note_on_c, 0, 68, 0
2, 36665, Note_on_c, 0, 64, 0
2, 36665, Note_on_c, 0, 76, 0
2, 36665, Note_on_c, 0, 56, 0
2, 36665, Note_on_c, 0, 60, 60
2, 36668, Note_on_c, 0, 62, 0
2, 36668, Note_on_c, 0, 52, 0
2, 36706, Control_c, 0, 64, 127
2, 36717, Note_on_c, 0, 45, 60
2, 36743, Note_on_c, 0, 60, 0
2, 36743, Note_on_c, 0, 69, 0
2, 36744, Note_on_c, 0, 72, 0
2, 36766, Note_on_c, 0, 71, 60
2, 36768, Note_on_c, 0, 59, 60
2, 36770, Note_on_c, 0, 45, 0
2, 36800, Control_c, 0, 64, 0
2, 36819, Note_on_c, 0, 72, 60
2, 36819, Note_on_c, 0, 69, 60
2, 36821, Note_on_c, 0, 59, 0
2, 36821, Note_on_c, 0, 71, 0
2, 36821, Note_on_c, 0, 57, 60
2, 36821, Note_on_c, 0, 60, 60
2, 36821, Note_on_c, 0, 52, 60
2, 36875, Note_on_c, 0, 60, 0
2, 36875, Note_on_c, 0, 57, 0
2, 36875, Note_on_c, 0, 69, 0
2, 36877, Note_on_c, 0, 52, 0
2, 36879, Note_on_c, 0, 72, 0
2, 36926, Note_on_c, 0, 70, 60
2, 36929, Note_on_c, 0, 60, 60
2, 36929, Note_on_c, 0, 64, 60
2, 36929, Note_on_c, 0, 72, 60
2, 36929, Note_on_c, 0, 55, 60
2, 36931, Note_on_c, 0, 43, 60
2, 36943, Note_on_c, 0, 72, 0
2, 36943, Note_on_c, 0, 64, 0
2, 36943, Note_on_c, 0, 70, 0
2, 36943, Note_on_c, 0, 60, 0
2, 36982, Note_on_c, 0, 64, 60
2, 36982, Note_on_c, 0, 70, 60
2, 36982, Note_on_c, 0, 72, 60
2, 36982, Note_on_c, 0, 60, 60
2, 36986, Note_on_c, 0, 43, 0
2, 36986, Note_on_c, 0, 55, 0
2, 37035, Note_on_c, 0, 48, 60
2, 37051, Note_on_c, 0, 72, 0
2, 37051, Note_on_c, 0, 60, 0
2, 37051, Note_on_c, 0, 36, 60
2, 37077, Note_on_c, 0, 70, 0
2, 37077, Note_on_c, 0, 64, 0
2, 37087, Note_on_c, 0, 69, 60
2, 37087, Note_on_c, 0, 72, 60
2, 37087, Note_on_c, 0, 65, 60
2, 37089, Note_on_c, 0, 60, 60
2, 37093, Note_on_c, 0, 36, 0
2, 37104, Note_on_c, 0, 48, 0
2, 37143, Note_on_c, 0, 53, 60
2, 37143, Note_on_c, 0, 41, 60
2, 37145, Control_c, 0, 64, 127
2, 37196, Note_on_c, 0, 60, 0
2, 37213, Control_c, 0, 64, 0
2, 37248, Note_on_c, 0, 60, 60
2, 37248, Note_on_c, 0, 57, 60
2, 37291, Note_on_c, 0, 57, 0
2, 37291, Note_on_c, 0, 60, 0
2, 37354, Note_on_c, 0, 69, 0
2, 37354, Note_on_c, 0, 48, 60
2, 37354, Note_on_c, 0, 36, 60
2, 37357, Note_on_c, 0, 53, 0
2, 37357, Note_on_c, 0, 41, 0
2, 37406, Note_on_c, 0, 69, 60
2, 37408, Note_on_c, 0, 72, 0
2, 37408, Note_on_c, 0, 57, 60
2, 37410, Note_on_c, 0, 48, 0
2, 37410, Note_on_c, 0, 65, 0
2, 37410, Note_on_c, 0, 36, 0
2, 37425, Note_on_c, 0, 57, 0
2, 37460, Note_on_c, 0, 72, 60
2, 37460, Note_on_c, 0, 60, 60
2, 37462, Note_on_c, 0, 69, 0
2, 37462, Note_on_c, 0, 57, 60
2, 37512, Note_on_c, 0, 77, 60
2, 37515, Note_on_c, 0, 72, 0
2, 37515, Note_on_c, 0, 65, 60
2, 37517, Note_on_c, 0, 60, 0
2, 37517, Note_on_c, 0, 57, 0
2, 37530, Note_on_c, 0, 77, 0
2, 37566, Note_on_c, 0, 72, 60
2, 37566, Note_on_c, 0, 77, 60
2, 37566, Note_on_c, 0, 69, 60
2, 37568, Note_on_c, 0, 53, 60
2, 37568, Note_on_c, 0, 81, 60
2, 37568, Note_on_c, 0, 41, 60
2, 37571, Note_on_c, 0, 65, 0
2, 37584, Control_c, 0, 64, 127
2, 37608, Note_on_c, 0, 69, 0
2, 37608, Note_on_c, 0, 77, 0
2, 37608, Note_on_c, 0, 72, 0
2, 37608, Note_on_c, 0, 81, 0
2, 37609, Note_on_c, 0, 41, 0
2, 37609, Note_on_c, 0, 53, 0
2, 37637, Control_c, 0, 64, 0
2, 37671, Note_on_c, 0, 65, 60
2, 37674, Note_on_c, 0, 69, 60
2, 37674, Note_on_c, 0, 72, 60
2, 37674, Note_on_c, 0, 77, 60
2, 37674, Note_on_c, 0, 81, 60
2, 37674, Note_on_c, 0, 60, 60
2, 37676, Note_on_c, 0, 57, 60
2, 37716, Note_on_c, 0, 57, 0
2, 37716, Note_on_c, 0, 77, 0
2, 37716, Note_on_c, 0, 69, 0
2, 37716, Note_on_c, 0, 60, 0
2, 37729, Note_on_c, 0, 65, 0
2, 37729, Note_on_c, 0, 81, 0
2, 37729, Note_on_c, 0, 72, 0
2, 37778, Note_on_c, 0, 72, 60
2, 37778, Note_on_c, 0, 77, 60
2, 37778, Note_on_c, 0, 69, 60
2, 37780, Note_on_c, 0, 81, 60
2, 37780, Note_on_c, 0, 53, 60
2, 37782, Note_on_c, 0, 41, 60
2, 37834, Note_on_c, 0, 41, 0
2, 37834, Note_on_c, 0, 77, 0
2, 37834, Note_on_c, 0, 69, 0
2, 37834, Note_on_c, 0, 72, 0
2, 37834, Note_on_c, 0, 53, 0
2, 37834, Note_on_c, 0, 81, 0
2, 37883, Note_on_c, 0, 72, 60
2, 37883, Note_on_c, 0, 75, 60
2, 37883, Note_on_c, 0, 80, 60
2, 37883, Note_on_c, 0, 68, 60
2, 37885, Note_on_c, 0, 54, 60
2, 37888, Note_on_c, 0, 42, 60
2, 37926, Note_on_c, 0, 54, 0
2, 37926, Note_on_c, 0, 68, 0
2, 37926, Note_on_c, 0, 80, 0
2, 37926, Note_on_c, 0, 72, 0
2, 37926, Note_on_c, 0, 75, 0
2, 37928, Note_on_c, 0, 42, 0
2, 37982, Control_c, 0, 64, 127
2, 37991, Note_on_c, 0, 76, 60
2, 37991, Note_on_c, 0, 72, 60
2, 37992, Note_on_c, 0, 67, 60
2, 37992, Note_on_c, 0, 79, 60
2, 37992, Note_on_c, 0, 55, 60
2, 37994, Note_on_c, 0, 43, 60
2, 38046, Note_on_c, 0, 55, 0
2, 38076, Control_c, 0, 64, 0
2, 38095, Note_on_c, 0, 64, 60
2, 38095, Note_on_c, 0, 60, 60
2, 38097, Note_on_c, 0, 76, 0
2, 38097, Note_on_c, 0, 55, 60
2, 38112, Note_on_c, 0, 64, 0
2, 38123, Note_on_c, 0, 72, 0
2, 38125, Note_on_c, 0, 67, 0
2, 38127, Note_on_c, 0, 79, 0
2, 38146, Note_on_c, 0, 76, 60
2, 38146, Note_on_c, 0, 64, 60
2, 38151, Note_on_c, 0, 55, 0
2, 38151, Note_on_c, 0, 60, 0
2, 38198, Note_on_c, 0, 72, 60
2, 38202, Note_on_c, 0, 57, 60
2, 38202, Note_on_c, 0, 60, 60
2, 38202, Note_on_c, 0, 45, 60
2, 38205, Note_on_c, 0, 64, 0
2, 38205, Note_on_c, 0, 43, 0
2, 38217, Note_on_c, 0, 76, 0
2, 38254, Note_on_c, 0, 74, 60
2, 38254, Note_on_c, 0, 62, 60
2, 38256, Note_on_c, 0, 57, 0
2, 38256, Note_on_c, 0, 60, 0
2, 38256, Note_on_c, 0, 72, 0
2, 38256, Note_on_c, 0, 45, 0
2, 38296, Note_on_c, 0, 74, 0
2, 38304, Note_on_c, 0, 60, 60
2, 38304, Note_on_c, 0, 76, 60
2, 38304, Note_on_c, 0, 57, 60
2, 38307, Note_on_c, 0, 64, 60
2, 38309, Note_on_c, 0, 62, 0
2, 38322, Note_on_c, 0, 60, 0
2, 38360, Note_on_c, 0, 72, 60
2, 38363, Note_on_c, 0, 64, 0
2, 38363, Note_on_c, 0, 60, 60
2, 38365, Note_on_c, 0, 57, 0
2, 38367, Note_on_c, 0, 76, 0
2, 38414, Note_on_c, 0, 71, 60
2, 38414, Note_on_c, 0, 59, 60
2, 38416, Note_on_c, 0, 60, 0
2, 38416, Note_on_c, 0, 47, 60
2, 38416, Control_c, 0, 64, 127
2, 38419, Note_on_c, 0, 72, 0
2, 38431, Note_on_c, 0, 71, 0
2, 38466, Note_on_c, 0, 83, 60
2, 38468, Note_on_c, 0, 59, 0
2, 38468, Note_on_c, 0, 71, 60
2, 38470, Note_on_c, 0, 47, 0
2, 38510, Control_c, 0, 64, 0
2, 38517, Note_on_c, 0, 79, 60
2, 38519, Note_on_c, 0, 59, 60
2, 38519, Note_on_c, 0, 64, 60
2, 38519, Note_on_c, 0, 67, 60
2, 38519, Note_on_c, 0, 55, 60
2, 38521, Note_on_c, 0, 71, 0
2, 38521, Note_on_c, 0, 83, 0
2, 38534, Note_on_c, 0, 64, 0
2, 38570, Note_on_c, 0, 76, 60
2, 38570, Note_on_c, 0, 64, 60
2, 38572, Note_on_c, 0, 67, 0
2, 38572, Note_on_c, 0, 79, 0
2, 38572, Note_on_c, 0, 59, 0
2, 38572, Note_on_c, 0, 55, 0
2, 38624, Note_on_c, 0, 47, 60
2, 38639, Note_on_c, 0, 64, 0
2, 38639, Note_on_c, 0, 76, 0
2, 38677, Note_on_c, 0, 79, 60
2, 38677, Note_on_c, 0, 67, 60
2, 38680, Note_on_c, 0, 47, 0
2, 38731, Note_on_c, 0, 59, 60
2, 38731, Note_on_c, 0, 63, 60
2, 38731, Note_on_c, 0, 66, 60
2, 38731, Note_on_c, 0, 78, 60
2, 38731, Note_on_c, 0, 57, 60
2, 38733, Note_on_c, 0, 67, 0
2, 38733, Note_on_c, 0, 79, 0
2, 38746, Note_on_c, 0, 63, 0
2, 38769, Note_on_c, 0, 66, 0
2, 38769, Note_on_c, 0, 78, 0
2, 38769, Note_on_c, 0, 57, 0
2, 38780, Note_on_c, 0, 75, 60
2, 38780, Note_on_c, 0, 63, 60
2, 38783, Note_on_c, 0, 59, 0
2, 38835, Note_on_c, 0, 55, 60
2, 38835, Note_on_c, 0, 59, 60
2, 38835, Note_on_c, 0, 64, 60
2, 38835, Note_on_c, 0, 76, 60
2, 38835, Note_on_c, 0, 52, 60
2, 38838, Note_on_c, 0, 63, 0
2, 38838, Note_on_c, 0, 75, 0
2, 38887, Control_c, 0, 64, 127
2, 38902, Control_c, 0, 64, 0
2, 38928, Note_on_c, 0, 64, 0
2, 38928, Note_on_c, 0, 76, 0
2, 38941, Note_on_c, 0, 59, 0
2, 38941, Note_on_c, 0, 52, 0
2, 38941, Note_on_c, 0, 55, 0
2, 39049, Note_on_c, 0, 67, 60
2, 39049, Note_on_c, 0, 79, 60
2, 39049, Note_on_c, 0, 59, 60
2, 39052, Note_on_c, 0, 53, 60
2, 39052, Note_on_c, 0, 55, 60
2, 39052, Note_on_c, 0, 50, 60
2, 39105, Note_on_c, 0, 50, 0
2, 39146, Note_on_c, 0, 59, 0
2, 39146, Note_on_c, 0, 53, 0
2, 39159, Note_on_c, 0, 55, 0
2, 39159, Note_on_c, 0, 43, 60
2, 39159, Note_on_c, 0, 31, 60
2, 39227, Note_on_c, 0, 43, 0
2, 39230, Note_on_c, 0, 31, 0
2, 39253, Control_c, 0, 64, 127
2, 39264, Note_on_c, 0, 52, 60
2, 39264, Note_on_c, 0, 64, 60
2, 39264, Note_on_c, 0, 48, 60
2, 39266, Note_on_c, 0, 79, 0
2, 39266, Note_on_c, 0, 67, 0
2, 39317, Note_on_c, 0, 67, 60
2, 39317, Note_on_c, 0, 55, 60
2, 39319, Note_on_c, 0, 52, 0
2, 39333, Note_on_c, 0, 55, 0
2, 39345, Note_on_c, 0, 48, 0
2, 39347, Control_c, 0, 64, 0
2, 39369, Note_on_c, 0, 55, 60
2, 39369, Note_on_c, 0, 60, 60
2, 39369, Note_on_c, 0, 72, 60
2, 39369, Note_on_c, 0, 52, 60
2, 39373, Note_on_c, 0, 67, 0
2, 39420, Note_on_c, 0, 74, 60
2, 39422, Note_on_c, 0, 62, 60
2, 39425, Note_on_c, 0, 72, 0
2, 39425, Note_on_c, 0, 64, 0
2, 39425, Note_on_c, 0, 60, 0
2, 39425, Note_on_c, 0, 52, 0
2, 39437, Note_on_c, 0, 55, 0
2, 39474, Note_on_c, 0, 76, 60
2, 39476, Note_on_c, 0, 64, 60
2, 39478, Note_on_c, 0, 74, 0
2, 39478, Note_on_c, 0, 43, 60
2, 39480, Note_on_c, 0, 62, 0
2, 39529, Note_on_c, 0, 79, 60
2, 39529, Note_on_c, 0, 67, 60
2, 39531, Note_on_c, 0, 76, 0
2, 39533, Note_on_c, 0, 43, 0
2, 39585, Note_on_c, 0, 55, 60
2, 39585, Note_on_c, 0, 60, 60
2, 39585, Note_on_c, 0, 52, 60
2, 39587, Note_on_c, 0, 64, 0
2, 39610, Note_on_c, 0, 67, 0
2, 39610, Note_on_c, 0, 79, 0
2, 39634, Note_on_c, 0, 68, 60
2, 39634, Note_on_c, 0, 76, 60
2, 39634, Note_on_c, 0, 64, 60
2, 39636, Note_on_c, 0, 55, 0
2, 39636, Note_on_c, 0, 52, 0
2, 39638, Note_on_c, 0, 60, 0
2, 39690, Note_on_c, 0, 47, 60
2, 39705, Control_c, 0, 64, 127
2, 39728, Note_on_c, 0, 76, 0
2, 39730, Note_on_c, 0, 64, 0
2, 39741, Note_on_c, 0, 63, 60
2, 39744, Note_on_c, 0, 68, 0
2, 39744, Note_on_c, 0, 47, 0
2, 39754, Note_on_c, 0, 75, 60
2, 39794, Note_on_c, 0, 76, 60
2, 39796, Note_on_c, 0, 62, 60
2, 39796, Note_on_c, 0, 64, 60
2, 39796, Note_on_c, 0, 68, 60
2, 39796, Note_on_c, 0, 56, 60
2, 39799, Note_on_c, 0, 75, 0
2, 39799, Note_on_c, 0, 63, 0
2, 39799, Note_on_c, 0, 52, 60
2, 39801, Control_c, 0, 64, 0
2, 39852, Note_on_c, 0, 52, 0
2, 39852, Note_on_c, 0, 56, 0
2, 39852, Note_on_c, 0, 64, 0
2, 39852, Note_on_c, 0, 62, 0
2, 39852, Note_on_c, 0, 76, 0
2, 39852, Note_on_c, 0, 68, 0
2, 39906, Note_on_c, 0, 77, 60
2, 39906, Note_on_c, 0, 68, 60
2, 39908, Note_on_c, 0, 65, 60
2, 39908, Note_on_c, 0, 40, 60
2, 39960, Note_on_c, 0, 68, 0
2, 39961, Note_on_c, 0, 77, 0
2, 39961, Note_on_c, 0, 40, 0
2, 39975, Note_on_c, 0, 65, 0
2, 40007, Note_on_c, 0, 62, 60
2, 40007, Note_on_c, 0, 68, 60
2, 40007, Note_on_c, 0, 76, 60
2, 40007, Note_on_c, 0, 52, 60
2, 40008, Note_on_c, 0, 64, 60
2, 40008, Note_on_c, 0, 56, 60
2, 40062, Note_on_c, 0, 56, 0
2, 40062, Note_on_c, 0, 68, 0
2, 40062, Note_on_c, 0, 76, 0
2, 40062, Note_on_c, 0, 52, 0
2, 40062, Note_on_c, 0, 64, 0
2, 40062, Note_on_c, 0, 69, 60
2, 40062, Note_on_c, 0, 72, 60
2, 40062, Note_on_c, 0, 60, 60
2, 40064, Note_on_c, 0, 62, 0
2, 40118, Note_on_c, 0, 45, 60
2, 40133, Control_c, 0, 64, 127
2, 40146, Note_on_c, 0, 69, 0
2, 40146, Note_on_c, 0, 60, 0
2, 40146, Note_on_c, 0, 72, 0
2, 40169, Note_on_c, 0, 71, 60
2, 40169, Note_on_c, 0, 59, 60
2, 40174, Note_on_c, 0, 45, 0
2, 40191, Control_c, 0, 64, 0
2, 40214, Note_on_c, 0, 71, 0
2, 40224, Note_on_c, 0, 72, 60
2, 40224, Note_on_c, 0, 69, 60
2, 40227, Note_on_c, 0, 57, 60
2, 40227, Note_on_c, 0, 60, 60
2, 40227, Note_on_c, 0, 52, 60
2, 40229, Note_on_c, 0, 59, 0
2, 40280, Note_on_c, 0, 69, 0
2, 40280, Note_on_c, 0, 57, 0
2, 40280, Note_on_c, 0, 60, 0
2, 40280, Note_on_c, 0, 52, 0
2, 40283, Note_on_c, 0, 72, 0
2, 40327, Note_on_c, 0, 72, 60
2, 40330, Note_on_c, 0, 55, 60
2, 40330, Note_on_c, 0, 60, 60
2, 40330, Note_on_c, 0, 64, 60
2, 40330, Note_on_c, 0, 70, 60
2, 40330, Note_on_c, 0, 43, 60
2, 40344, Note_on_c, 0, 70, 0
2, 40344, Note_on_c, 0, 64, 0
2, 40344, Note_on_c, 0, 60, 0
2, 40344, Note_on_c, 0, 72, 0
2, 40381, Note_on_c, 0, 64, 60
2, 40381, Note_on_c, 0, 70, 60
2, 40381, Note_on_c, 0, 72, 60
2, 40381, Note_on_c, 0, 60, 60
2, 40388, Note_on_c, 0, 43, 0
2, 40396, Note_on_c, 0, 55, 0
2, 40435, Note_on_c, 0, 48, 60
2, 40435, Note_on_c, 0, 36, 60
2, 40437, Note_on_c, 0, 60, 0
2, 40450, Note_on_c, 0, 72, 0
2, 40463, Note_on_c, 0, 70, 0
2, 40463, Note_on_c, 0, 64, 0
2, 40484, Note_on_c, 0, 65, 60
2, 40484, Note_on_c, 0, 69, 60
2, 40484, Note_on_c, 0, 72, 60
2, 40484, Note_on_c, 0, 60, 60
2, 40486, Control_c, 0, 64, 127
2, 40488, Note_on_c, 0, 36, 0
2, 40488, Note_on_c, 0, 48, 0
2, 40537, Note_on_c, 0, 53, 60
2, 40537, Note_on_c, 0, 41, 60
2, 40591, Note_on_c, 0, 53, 0
2, 40606, Note_on_c, 0, 60, 0
2, 40606, Note_on_c, 0, 41, 0
2, 40621, Control_c, 0, 64, 0
2, 40642, Note_on_c, 0, 60, 60
2, 40644, Note_on_c, 0, 57, 60
2, 40698, Note_on_c, 0, 57, 0
2, 40698, Note_on_c, 0, 60, 0
2, 40739, Note_on_c, 0, 48, 60
2, 40739, Note_on_c, 0, 36, 60
2, 40741, Note_on_c, 0, 69, 0
2, 40753, Note_on_c, 0, 65, 0
2, 40753, Note_on_c, 0, 72, 0
2, 40790, Note_on_c, 0, 69, 60
2, 40792, Note_on_c, 0, 48, 0
2, 40792, Note_on_c, 0, 36, 0
2, 40792, Note_on_c, 0, 57, 60
2, 40807, Note_on_c, 0, 57, 0
2, 40844, Note_on_c, 0, 72, 60
2, 40846, Note_on_c, 0, 69, 0
2, 40846, Note_on_c, 0, 60, 60
2, 40846, Note_on_c, 0, 57, 60
2, 40897, Note_on_c, 0, 77, 60
2, 40897, Note_on_c, 0, 65, 60
2, 40901, Note_on_c, 0, 57, 0
2, 40901, Note_on_c, 0, 60, 0
2, 40914, Note_on_c, 0, 72, 0
2, 40914, Note_on_c, 0, 77, 0
2, 40950, Note_on_c, 0, 77, 60
2, 40952, Note_on_c, 0, 72, 60
2, 40952, Note_on_c, 0, 81, 60
2, 40952, Note_on_c, 0, 69, 60
2, 40955, Note_on_c, 0, 41, 60
2, 40955, Note_on_c, 0, 53, 60
2, 40955, Control_c, 0, 64, 127
2, 40966, Note_on_c, 0, 65, 0
2, 40992, Note_on_c, 0, 69, 0
2, 40993, Note_on_c, 0, 53, 0
2, 41004, Note_on_c, 0, 81, 0
2, 41006, Note_on_c, 0, 77, 0
2, 41006, Note_on_c, 0, 72, 0
2, 41006, Note_on_c, 0, 41, 0
2, 41008, Control_c, 0, 64, 0
2, 41056, Note_on_c, 0, 77, 60
2, 41056, Note_on_c, 0, 81, 60
2, 41056, Note_on_c, 0, 65, 60
2, 41058, Note_on_c, 0, 60, 60
2, 41058, Note_on_c, 0, 69, 60
2, 41058, Note_on_c, 0, 72, 60
2, 41058, Note_on_c, 0, 57, 60
2, 41111, Note_on_c, 0, 57, 0
2, 41111, Note_on_c, 0, 69, 0
2, 41111, Note_on_c, 0, 60, 0
2, 41111, Note_on_c, 0, 81, 0
2, 41111, Note_on_c, 0, 77, 0
2, 41111, Note_on_c, 0, 72, 0
2, 41126, Note_on_c, 0, 65, 0
2, 41162, Note_on_c, 0, 72, 60
2, 41162, Note_on_c, 0, 77, 60
2, 41162, Note_on_c, 0, 81, 60
2, 41162, Note_on_c, 0, 69, 60
2, 41164, Note_on_c, 0, 53, 60
2, 41164, Note_on_c, 0, 41, 60
2, 41203, Note_on_c, 0, 41, 0
2, 41203, Note_on_c, 0, 77, 0
2, 41203, Note_on_c, 0, 81, 0
2, 41203, Note_on_c, 0, 72, 0
2, 41203, Note_on_c, 0, 53, 0
2, 41203, Note_on_c, 0, 69, 0
2, 41267, Note_on_c, 0, 75, 60
2, 41267, Note_on_c, 0, 72, 60
2, 41269, Note_on_c, 0, 54, 60
2, 41269, Note_on_c, 0, 68, 60
2, 41269, Note_on_c, 0, 80, 60
2, 41269, Note_on_c, 0, 42, 60
2, 41312, Note_on_c, 0, 80, 0
2, 41312, Note_on_c, 0, 68, 0
2, 41312, Note_on_c, 0, 72, 0
2, 41312, Note_on_c, 0, 75, 0
2, 41314, Note_on_c, 0, 42, 0
2, 41314, Note_on_c, 0, 54, 0
2, 41355, Control_c, 0, 64, 127
2, 41376, Note_on_c, 0, 72, 60
2, 41378, Note_on_c, 0, 55, 60
2, 41378, Note_on_c, 0, 67, 60
2, 41378, Note_on_c, 0, 76, 60
2, 41378, Note_on_c, 0, 79, 60
2, 41378, Note_on_c, 0, 43, 60
2, 41432, Note_on_c, 0, 55, 0
2, 41479, Note_on_c, 0, 64, 60
2, 41481, Note_on_c, 0, 60, 60
2, 41481, Note_on_c, 0, 55, 60
2, 41486, Control_c, 0, 64, 0
2, 41495, Note_on_c, 0, 76, 0
2, 41496, Note_on_c, 0, 64, 0
2, 41530, Note_on_c, 0, 76, 60
2, 41533, Note_on_c, 0, 55, 0
2, 41533, Note_on_c, 0, 72, 0
2, 41533, Note_on_c, 0, 79, 0
2, 41533, Note_on_c, 0, 60, 0
2, 41533, Note_on_c, 0, 64, 60
2, 41535, Note_on_c, 0, 67, 0
2, 41561, Note_on_c, 0, 43, 0
2, 41584, Note_on_c, 0, 72, 60
2, 41589, Note_on_c, 0, 64, 0
2, 41589, Note_on_c, 0, 57, 60
2, 41589, Note_on_c, 0, 60, 60
2, 41589, Note_on_c, 0, 45, 60
2, 41592, Note_on_c, 0, 76, 0
2, 41638, Note_on_c, 0, 74, 60
2, 41638, Note_on_c, 0, 62, 60
2, 41640, Note_on_c, 0, 60, 0
2, 41640, Note_on_c, 0, 45, 0
2, 41640, Note_on_c, 0, 72, 0
2, 41640, Note_on_c, 0, 57, 0
2, 41691, Note_on_c, 0, 60, 60
2, 41691, Note_on_c, 0, 64, 60
2, 41691, Note_on_c, 0, 76, 60
2, 41691, Note_on_c, 0, 57, 60
2, 41693, Note_on_c, 0, 74, 0
2, 41695, Note_on_c, 0, 62, 0
2, 41732, Note_on_c, 0, 57, 0
2, 41744, Note_on_c, 0, 64, 0
2, 41747, Note_on_c, 0, 60, 0
2, 41785, Control_c, 0, 64, 127
2, 41796, Note_on_c, 0, 62, 60
2, 41796, Note_on_c, 0, 66, 60
2, 41796, Note_on_c, 0, 72, 60
2, 41796, Note_on_c, 0, 60, 60
2, 41798, Note_on_c, 0, 76, 0
2, 41798, Note_on_c, 0, 50, 60
2, 41880, Control_c, 0, 64, 0
2, 41901, Note_on_c, 0, 57, 60
2, 41901, Note_on_c, 0, 45, 60
2, 41970, Note_on_c, 0, 57, 0
2, 41970, Note_on_c, 0, 60, 0
2, 41970, Note_on_c, 0, 66, 0
2, 41972, Note_on_c, 0, 45, 0
2, 41982, Note_on_c, 0, 72, 0
2, 41998, Note_on_c, 0, 50, 0
2, 42005, Note_on_c, 0, 71, 60
2, 42005, Note_on_c, 0, 74, 60
2, 42005, Note_on_c, 0, 65, 60
2, 42008, Note_on_c, 0, 55, 60
2, 42008, Note_on_c, 0, 43, 60
2, 42025, Note_on_c, 0, 74, 0
2, 42025, Note_on_c, 0, 62, 0
2, 42025, Note_on_c, 0, 71, 0
2, 42061, Note_on_c, 0, 71, 60
2, 42061, Note_on_c, 0, 74, 60
2, 42061, Note_on_c, 0, 62, 60
2, 42130, Note_on_c, 0, 74, 0
2, 42130, Note_on_c, 0, 71, 0
2, 42132, Note_on_c, 0, 62, 0
2, 42158, Note_on_c, 0, 65, 0
2, 42168, Note_on_c, 0, 64, 60
2, 42168, Note_on_c, 0, 67, 60
2, 42168, Note_on_c, 0, 72, 60
2, 42168, Note_on_c, 0, 60, 60
2, 42170, Note_on_c, 0, 55, 0
2, 42172, Note_on_c, 0, 43, 0
2, 42184, Note_on_c, 0, 60, 0
2, 42209, Control_c, 0, 64, 127
2, 42222, Note_on_c, 0, 60, 60
2, 42222, Note_on_c, 0, 48, 60
2, 42264, Note_on_c, 0, 48, 0
2, 42264, Note_on_c, 0, 60, 0
2, 42290, Note_on_c, 0, 64, 0
2, 42290, Note_on_c, 0, 72, 0
2, 42290, Note_on_c, 0, 67, 0
2, 42308, Control_c, 0, 64, 0
2, 42331, Note_on_c, 0, 55, 60
2, 42331, Note_on_c, 0, 67, 60
2, 42331, Note_on_c, 0, 43, 60
2, 42346, Note_on_c, 0, 55, 0
2, 42384, Note_on_c, 0, 55, 60
2, 42386, Note_on_c, 0, 67, 0
2, 42389, Note_on_c, 0, 43, 0
2, 42438, Note_on_c, 0, 66, 60
2, 42438, Note_on_c, 0, 54, 60
2, 42440, Note_on_c, 0, 45, 60
2, 42456, Note_on_c, 0, 55, 0
2, 42494, Note_on_c, 0, 66, 0
2, 42494, Note_on_c, 0, 54, 0
2, 42494, Note_on_c, 0, 57, 60
2, 42496, Note_on_c, 0, 45, 0
2, 42536, Note_on_c, 0, 57, 0
2, 42548, Note_on_c, 0, 53, 60
2, 42548, Note_on_c, 0, 65, 60
2, 42548, Note_on_c, 0, 47, 60
2, 42597, Note_on_c, 0, 59, 60
2, 42599, Note_on_c, 0, 53, 0
2, 42600, Note_on_c, 0, 47, 0
2, 42614, Note_on_c, 0, 65, 0
2, 42648, Note_on_c, 0, 76, 60
2, 42650, Note_on_c, 0, 64, 60
2, 42650, Note_on_c, 0, 60, 60
2, 42652, Note_on_c, 0, 48, 60
2, 42652, Control_c, 0, 64, 127
2, 42654, Note_on_c, 0, 59, 0
2, 42703, Note_on_c, 0, 79, 60
2, 42703, Note_on_c, 0, 67, 60
2, 42708, Note_on_c, 0, 60, 0
2, 42708, Note_on_c, 0, 64, 0
2, 42757, Note_on_c, 0, 72, 60
2, 42757, Note_on_c, 0, 84, 60
2, 42757, Note_on_c, 0, 60, 60
2, 42759, Note_on_c, 0, 55, 60
2, 42759, Note_on_c, 0, 52, 60
2, 42762, Note_on_c, 0, 79, 0
2, 42762, Note_on_c, 0, 67, 0
2, 42766, Control_c, 0, 64, 0
2, 42809, Note_on_c, 0, 86, 60
2, 42811, Note_on_c, 0, 74, 60
2, 42813, Note_on_c, 0, 52, 0
2, 42813, Note_on_c, 0, 72, 0
2, 42813, Note_on_c, 0, 76, 0
2, 42813, Note_on_c, 0, 60, 0
2, 42815, Note_on_c, 0, 84, 0
2, 42815, Note_on_c, 0, 55, 0
2, 42853, Note_on_c, 0, 74, 0
2, 42856, Note_on_c, 0, 48, 0
2, 42862, Note_on_c, 0, 88, 60
2, 42862, Note_on_c, 0, 76, 60
2, 42866, Note_on_c, 0, 86, 0
2, 42866, Note_on_c, 0, 43, 60
2, 42913, Note_on_c, 0, 91, 60
2, 42915, Note_on_c, 0, 79, 60
2, 42917, Note_on_c, 0, 88, 0
2, 42967, Note_on_c, 0, 60, 60
2, 42969, Note_on_c, 0, 76, 0
2, 42969, Note_on_c, 0, 55, 60
2, 42969, Note_on_c, 0, 52, 60
2, 42982, Note_on_c, 0, 91, 0
2, 42984, Note_on_c, 0, 79, 0
2, 43011, Note_on_c, 0, 60, 0
2, 43020, Note_on_c, 0, 88, 60
2, 43020, Note_on_c, 0, 80, 60
2, 43023, Note_on_c, 0, 76, 60
2, 43025, Note_on_c, 0, 55, 0
2, 43025, Note_on_c, 0, 52, 0
2, 43051, Control_c, 0, 64, 127
2, 43053, Note_on_c, 0, 43, 0
2, 43076, Note_on_c, 0, 47, 60
2, 43104, Note_on_c, 0, 88, 0
2, 43104, Note_on_c, 0, 76, 0
2, 43128, Note_on_c, 0, 87, 60
2, 43128, Note_on_c, 0, 75, 60
2, 43129, Note_on_c, 0, 80, 0
2, 43131, Note_on_c, 0, 47, 0
2, 43170, Note_on_c, 0, 87, 0
2, 43173, Note_on_c, 0, 75, 0
2, 43181, Note_on_c, 0, 88, 60
2, 43183, Note_on_c, 0, 56, 60
2, 43183, Note_on_c, 0, 62, 60
2, 43183, Note_on_c, 0, 76, 60
2, 43183, Note_on_c, 0, 80, 60
2, 43183, Note_on_c, 0, 52, 60
2, 43189, Control_c, 0, 64, 0
2, 43225, Note_on_c, 0, 52, 0
2, 43225, Note_on_c, 0, 76, 0
2, 43225, Note_on_c, 0, 56, 0
2, 43225, Note_on_c, 0, 88, 0
2, 43225, Note_on_c, 0, 80, 0
2, 43228, Note_on_c, 0, 62, 0
2, 43288, Note_on_c, 0, 89, 60
2, 43290, Note_on_c, 0, 77, 60
2, 43290, Note_on_c, 0, 80, 60
2, 43290, Note_on_c, 0, 40, 60
2, 43331, Note_on_c, 0, 89, 0
2, 43333, Note_on_c, 0, 77, 0
2, 43333, Note_on_c, 0, 80, 0
2, 43333, Note_on_c, 0, 40, 0
2, 43392, Note_on_c, 0, 88, 60
2, 43395, Note_on_c, 0, 76, 60
2, 43395, Note_on_c, 0, 80, 60
2, 43395, Note_on_c, 0, 62, 60
2, 43397, Note_on_c, 0, 56, 60
2, 43397, Note_on_c, 0, 52, 60
2, 43446, Note_on_c, 0, 84, 60
2, 43448, Note_on_c, 0, 81, 60
2, 43448, Note_on_c, 0, 72, 60
2, 43450, Note_on_c, 0, 52, 0
2, 43450, Note_on_c, 0, 80, 0
2, 43450, Note_on_c, 0, 88, 0
2, 43450, Note_on_c, 0, 56, 0
2, 43450, Note_on_c, 0, 76, 0
2, 43453, Note_on_c, 0, 62, 0
2, 43502, Note_on_c, 0, 45, 60
2, 43504, Control_c, 0, 64, 127
2, 43532, Note_on_c, 0, 72, 0
2, 43534, Note_on_c, 0, 81, 0
2, 43534, Note_on_c, 0, 84, 0
2, 43554, Note_on_c, 0, 71, 60
2, 43554, Note_on_c, 0, 83, 60
2, 43558, Note_on_c, 0, 45, 0
2, 43594, Note_on_c, 0, 83, 0
2, 43598, Control_c, 0, 64, 0
2, 43605, Note_on_c, 0, 81, 60
2, 43605, Note_on_c, 0, 84, 60
2, 43605, Note_on_c, 0, 76, 60
2, 43607, Note_on_c, 0, 57, 60
2, 43607, Note_on_c, 0, 60, 60
2, 43607, Note_on_c, 0, 72, 60
2, 43607, Note_on_c, 0, 52, 60
2, 43608, Note_on_c, 0, 71, 0
2, 43645, Note_on_c, 0, 76, 0
2, 43648, Note_on_c, 0, 60, 0
2, 43648, Note_on_c, 0, 84, 0
2, 43648, Note_on_c, 0, 57, 0
2, 43648, Note_on_c, 0, 52, 0
2, 43648, Note_on_c, 0, 72, 0
2, 43648, Note_on_c, 0, 81, 0
2, 43709, Note_on_c, 0, 82, 60
2, 43709, Note_on_c, 0, 84, 60
2, 43709, Note_on_c, 0, 76, 60
2, 43712, Note_on_c, 0, 72, 60
2, 43714, Note_on_c, 0, 55, 60
2, 43714, Note_on_c, 0, 43, 60
2, 43727, Note_on_c, 0, 76, 0
2, 43727, Note_on_c, 0, 82, 0
2, 43727, Note_on_c, 0, 84, 0
2, 43728, Note_on_c, 0, 72, 0
2, 43765, Note_on_c, 0, 82, 60
2, 43765, Note_on_c, 0, 84, 60
2, 43765, Note_on_c, 0, 76, 60
2, 43767, Note_on_c, 0, 72, 60
2, 43767, Note_on_c, 0, 52, 60
2, 43770, Note_on_c, 0, 55, 0
2, 43770, Note_on_c, 0, 40, 60
2, 43772, Note_on_c, 0, 43, 0
2, 43808, Note_on_c, 0, 84, 0
2, 43810, Note_on_c, 0, 40, 0
2, 43821, Note_on_c, 0, 72, 0
2, 43821, Note_on_c, 0, 48, 60
2, 43821, Note_on_c, 0, 36, 60
2, 43823, Note_on_c, 0, 52, 0
2, 43834, Note_on_c, 0, 76, 0
2, 43834, Note_on_c, 0, 82, 0
2, 43868, Note_on_c, 0, 84, 60
2, 43870, Note_on_c, 0, 77, 60
2, 43870, Note_on_c, 0, 81, 60
2, 43870, Note_on_c, 0, 72, 60
2, 43872, Note_on_c, 0, 52, 60
2, 43874, Note_on_c, 0, 48, 0
2, 43874, Note_on_c, 0, 40, 60
2, 43876, Note_on_c, 0, 36, 0
2, 43890, Note_on_c, 0, 40, 0
2, 43900, Note_on_c, 0, 52, 0
2, 43925, Note_on_c, 0, 41, 60
2, 43925, Note_on_c, 0, 53, 60
2, 43925, Control_c, 0, 64, 127
2, 43981, Control_c, 0, 64, 0
2, 44028, Note_on_c, 0, 60, 60
2, 44028, Note_on_c, 0, 57, 60
2, 44082, Note_on_c, 0, 60, 0
2, 44084, Note_on_c, 0, 57, 0
2, 44097, Note_on_c, 0, 53, 0
2, 44110, Note_on_c, 0, 41, 0
2, 44120, Note_on_c, 0, 84, 0
2, 44120, Note_on_c, 0, 81, 0
2, 44123, Note_on_c, 0, 77, 0
2, 44136, Note_on_c, 0, 72, 0
2, 44136, Note_on_c, 0, 48, 60
2, 44136, Note_on_c, 0, 36, 60
2, 44191, Note_on_c, 0, 81, 60
2, 44191, Note_on_c, 0, 69, 60
2, 44195, Note_on_c, 0, 36, 0
2, 44195, Note_on_c, 0, 48, 0
2, 44236, Note_on_c, 0, 69, 0
2, 44245, Note_on_c, 0, 84, 60
2, 44247, Note_on_c, 0, 60, 60
2, 44247, Note_on_c, 0, 72, 60
2, 44247, Note_on_c, 0, 57, 60
2, 44249, Note_on_c, 0, 81, 0
2, 44294, Note_on_c, 0, 89, 60
2, 44296, Note_on_c, 0, 77, 60
2, 44301, Note_on_c, 0, 72, 0
2, 44301, Note_on_c, 0, 57, 0
2, 44301, Note_on_c, 0, 84, 0
2, 44301, Note_on_c, 0, 60, 0
2, 44311, Note_on_c, 0, 89, 0
2, 44348, Note_on_c, 0, 89, 60
2, 44348, Note_on_c, 0, 93, 60
2, 44348, Note_on_c, 0, 81, 60
2, 44350, Note_on_c, 0, 84, 60
2, 44352, Note_on_c, 0, 77, 0
2, 44352, Note_on_c, 0, 53, 60
2, 44352, Note_on_c, 0, 41, 60
2, 44388, Note_on_c, 0, 81, 0
2, 44388, Note_on_c, 0, 84, 0
2, 44388, Note_on_c, 0, 89, 0
2, 44388, Note_on_c, 0, 93, 0
2, 44390, Note_on_c, 0, 53, 0
2, 44403, Control_c, 0, 64, 127
2, 44433, Note_on_c, 0, 41, 0
2, 44452, Note_on_c, 0, 89, 60
2, 44452, Note_on_c, 0, 84, 60
2, 44454, Note_on_c, 0, 93, 60
2, 44454, Note_on_c, 0, 81, 60
2, 44456, Note_on_c, 0, 60, 60
2, 44456, Note_on_c, 0, 65, 60
2, 44456, Note_on_c, 0, 57, 60
2, 44461, Control_c, 0, 64, 0
2, 44508, Note_on_c, 0, 81, 0
2, 44508, Note_on_c, 0, 93, 0
2, 44508, Note_on_c, 0, 89, 0
2, 44508, Note_on_c, 0, 84, 0
2, 44510, Note_on_c, 0, 57, 0
2, 44510, Note_on_c, 0, 60, 0
2, 44525, Note_on_c, 0, 65, 0
2, 44559, Note_on_c, 0, 84, 60
2, 44559, Note_on_c, 0, 89, 60
2, 44559, Note_on_c, 0, 93, 60
2, 44559, Note_on_c, 0, 81, 60
2, 44564, Note_on_c, 0, 53, 60
2, 44564, Note_on_c, 0, 41, 60
2, 44602, Note_on_c, 0, 81, 0
2, 44602, Note_on_c, 0, 93, 0
2, 44602, Note_on_c, 0, 84, 0
2, 44602, Note_on_c, 0, 89, 0
2, 44604, Note_on_c, 0, 41, 0
2, 44604, Note_on_c, 0, 53, 0
2, 44662, Note_on_c, 0, 87, 60
2, 44662, Note_on_c, 0, 92, 60
2, 44662, Note_on_c, 0, 84, 60
2, 44664, Note_on_c, 0, 80, 60
2, 44666, Note_on_c, 0, 54, 60
2, 44666, Note_on_c, 0, 42, 60
2, 44705, Note_on_c, 0, 87, 0
2, 44717, Note_on_c, 0, 80, 0
2, 44717, Note_on_c, 0, 92, 0
2, 44717, Note_on_c, 0, 84, 0
2, 44720, Note_on_c, 0, 42, 0
2, 44720, Note_on_c, 0, 54, 0
2, 44745, Control_c, 0, 64, 127
2, 44767, Note_on_c, 0, 84, 60
2, 44767, Note_on_c, 0, 88, 60
2, 44767, Note_on_c, 0, 91, 60
2, 44767, Note_on_c, 0, 79, 60
2, 44769, Note_on_c, 0, 55, 60
2, 44769, Note_on_c, 0, 43, 60
2, 44827, Note_on_c, 0, 55, 0
2, 44842, Control_c, 0, 64, 0
2, 44874, Note_on_c, 0, 88, 0
2, 44874, Note_on_c, 0, 64, 60
2, 44874, Note_on_c, 0, 60, 60
2, 44876, Note_on_c, 0, 55, 60
2, 44891, Note_on_c, 0, 79, 0
2, 44891, Note_on_c, 0, 84, 0
2, 44891, Note_on_c, 0, 91, 0
2, 44928, Note_on_c, 0, 88, 60
2, 44928, Note_on_c, 0, 76, 60
2, 44931, Note_on_c, 0, 60, 0
2, 44947, Note_on_c, 0, 55, 0
2, 44947, Note_on_c, 0, 64, 0
2, 44959, Note_on_c, 0, 43, 0
2, 44978, Note_on_c, 0, 72, 60
2, 44981, Note_on_c, 0, 84, 60
2, 44983, Note_on_c, 0, 88, 0
2, 44983, Note_on_c, 0, 57, 60
2, 44983, Note_on_c, 0, 45, 60
2, 44985, Note_on_c, 0, 76, 0
2, 45034, Note_on_c, 0, 86, 60
2, 45037, Note_on_c, 0, 84, 0
2, 45037, Note_on_c, 0, 74, 60
2, 45039, Note_on_c, 0, 45, 0
2, 45039, Note_on_c, 0, 57, 0
2, 45039, Note_on_c, 0, 72, 0
2, 45088, Note_on_c, 0, 88, 60
2, 45088, Note_on_c, 0, 76, 60
2, 45090, Note_on_c, 0, 60, 60
2, 45090, Note_on_c, 0, 64, 60
2, 45090, Note_on_c, 0, 57, 60
2, 45093, Note_on_c, 0, 86, 0
2, 45093, Note_on_c, 0, 74, 0
2, 45142, Note_on_c, 0, 84, 60
2, 45144, Note_on_c, 0, 72, 60
2, 45145, Note_on_c, 0, 88, 0
2, 45145, Note_on_c, 0, 76, 0
2, 45145, Note_on_c, 0, 60, 0
2, 45145, Note_on_c, 0, 64, 0
2, 45148, Note_on_c, 0, 57, 0
2, 45171, Note_on_c, 0, 84, 0
2, 45176, Note_on_c, 0, 72, 0
2, 45185, Control_c, 0, 64, 127
2, 45195, Note_on_c, 0, 83, 60
2, 45195, Note_on_c, 0, 71, 60
2, 45197, Note_on_c, 0, 47, 60
2, 45215, Note_on_c, 0, 83, 0
2, 45240, Note_on_c, 0, 71, 0
2, 45242, Note_on_c, 0, 47, 0
2, 45246, Note_on_c, 0, 95, 60
2, 45248, Note_on_c, 0, 83, 60
2, 45285, Control_c, 0, 64, 0
2, 45302, Note_on_c, 0, 91, 60
2, 45304, Note_on_c, 0, 95, 0
2, 45304, Note_on_c, 0, 79, 60
2, 45307, Note_on_c, 0, 83, 0
2, 45307, Note_on_c, 0, 59, 60
2, 45307, Note_on_c, 0, 64, 60
2, 45307, Note_on_c, 0, 55, 60
2, 45347, Note_on_c, 0, 59, 0
2, 45356, Note_on_c, 0, 88, 60
2, 45356, Note_on_c, 0, 76, 60
2, 45358, Note_on_c, 0, 91, 0
2, 45360, Note_on_c, 0, 55, 0
2, 45360, Note_on_c, 0, 79, 0
2, 45360, Note_on_c, 0, 64, 0
2, 45413, Note_on_c, 0, 47, 60
2, 45426, Note_on_c, 0, 88, 0
2, 45429, Note_on_c, 0, 76, 0
2, 45462, Note_on_c, 0, 91, 60
2, 45465, Note_on_c, 0, 79, 60
2, 45471, Note_on_c, 0, 47, 0
2, 45493, Note_on_c, 0, 91, 0
2, 45495, Note_on_c, 0, 79, 0
2, 45516, Note_on_c, 0, 90, 60
2, 45518, Note_on_c, 0, 59, 60
2, 45518, Note_on_c, 0, 63, 60
2, 45518, Note_on_c, 0, 78, 60
2, 45518, Note_on_c, 0, 57, 60
2, 45568, Note_on_c, 0, 87, 60
2, 45568, Note_on_c, 0, 75, 60
2, 45570, Note_on_c, 0, 90, 0
2, 45572, Note_on_c, 0, 57, 0
2, 45572, Note_on_c, 0, 59, 0
2, 45572, Note_on_c, 0, 78, 0
2, 45572, Note_on_c, 0, 63, 0
2, 45598, Note_on_c, 0, 87, 0
2, 45600, Note_on_c, 0, 75, 0
2, 45624, Note_on_c, 0, 79, 60
2, 45624, Note_on_c, 0, 83, 60
2, 45624, Note_on_c, 0, 88, 60
2, 45624, Note_on_c, 0, 76, 60
2, 45625, Note_on_c, 0, 55, 60
2, 45625, Note_on_c, 0, 59, 60
2, 45625, Note_on_c, 0, 64, 60
2, 45625, Note_on_c, 0, 52, 60
2, 45668, Control_c, 0, 64, 127
2, 45720, Note_on_c, 0, 76, 0
2, 45720, Note_on_c, 0, 88, 0
2, 45720, Note_on_c, 0, 79, 0
2, 45720, Note_on_c, 0, 83, 0
2, 45721, Note_on_c, 0, 64, 0
2, 45721, Note_on_c, 0, 52, 0
2, 45721, Note_on_c, 0, 59, 0
2, 45723, Control_c, 0, 64, 0
2, 45732, Note_on_c, 0, 55, 0
2, 45833, Note_on_c, 0, 83, 60
2, 45833, Note_on_c, 0, 89, 60
2, 45833, Note_on_c, 0, 91, 60
2, 45833, Note_on_c, 0, 79, 60
2, 45835, Note_on_c, 0, 59, 60
2, 45835, Note_on_c, 0, 55, 60
2, 45838, Note_on_c, 0, 53, 60
2, 45838, Note_on_c, 0, 50, 60
2, 45940, Note_on_c, 0, 43, 60
2, 45991, Note_on_c, 0, 79, 0
2, 45991, Note_on_c, 0, 91, 0
2, 45993, Note_on_c, 0, 50, 0
2, 45993, Note_on_c, 0, 43, 0
2, 45993, Note_on_c, 0, 59, 0
2, 45993, Note_on_c, 0, 53, 0
2, 46007, Note_on_c, 0, 55, 0
2, 46007, Control_c, 0, 64, 127
2, 46019, Note_on_c, 0, 89, 0
2, 46019, Note_on_c, 0, 83, 0
2, 46043, Note_on_c, 0, 76, 60
2, 46045, Note_on_c, 0, 64, 60
2, 46045, Note_on_c, 0, 48, 60
2, 46101, Note_on_c, 0, 79, 60
2, 46101, Note_on_c, 0, 67, 60
2, 46103, Note_on_c, 0, 48, 0
2, 46146, Control_c, 0, 64, 0
2, 46150, Note_on_c, 0, 84, 60
2, 46150, Note_on_c, 0, 72, 60
2, 46152, Note_on_c, 0, 60, 60
2, 46154, Note_on_c, 0, 79, 0
2, 46154, Note_on_c, 0, 55, 60
2, 46154, Note_on_c, 0, 52, 60
2, 46156, Note_on_c, 0, 67, 0
2, 46156, Note_on_c, 0, 64, 0
2, 46203, Note_on_c, 0, 86, 60
2, 46203, Note_on_c, 0, 74, 60
2, 46207, Note_on_c, 0, 60, 0
2, 46207, Note_on_c, 0, 84, 0
2, 46218, Note_on_c, 0, 76, 0
2, 46221, Note_on_c, 0, 72, 0
2, 46221, Note_on_c, 0, 55, 0
2, 46221, Note_on_c, 0, 52, 0
2, 46254, Note_on_c, 0, 88, 60
2, 46254, Note_on_c, 0, 76, 60
2, 46257, Note_on_c, 0, 43, 60
2, 46259, Note_on_c, 0, 74, 0
2, 46259, Note_on_c, 0, 86, 0
2, 46306, Note_on_c, 0, 91, 60
2, 46310, Note_on_c, 0, 79, 60
2, 46313, Note_on_c, 0, 88, 0
2, 46315, Note_on_c, 0, 43, 0
2, 46353, Note_on_c, 0, 76, 0
2, 46366, Note_on_c, 0, 55, 60
2, 46366, Note_on_c, 0, 60, 60
2, 46366, Note_on_c, 0, 52, 60
2, 46379, Note_on_c, 0, 91, 0
2, 46379, Note_on_c, 0, 79, 0
2, 46413, Note_on_c, 0, 88, 60
2, 46413, Note_on_c, 0, 76, 60
2, 46416, Note_on_c, 0, 80, 60
2, 46419, Note_on_c, 0, 60, 0
2, 46419, Note_on_c, 0, 52, 0
2, 46419, Note_on_c, 0, 55, 0
2, 46445, Control_c, 0, 64, 127
2, 46468, Note_on_c, 0, 47, 60
2, 46482, Note_on_c, 0, 88, 0
2, 46496, Note_on_c, 0, 76, 0
2, 46510, Note_on_c, 0, 80, 0
2, 46510, Note_on_c, 0, 47, 0
2, 46518, Note_on_c, 0, 87, 60
2, 46518, Note_on_c, 0, 75, 60
2, 46539, Control_c, 0, 64, 0
2, 46571, Note_on_c, 0, 88, 60
2, 46574, Note_on_c, 0, 80, 60
2, 46574, Note_on_c, 0, 76, 60
2, 46576, Note_on_c, 0, 75, 0
2, 46576, Note_on_c, 0, 87, 0
2, 46576, Note_on_c, 0, 56, 60
2, 46576, Note_on_c, 0, 62, 60
2, 46576, Note_on_c, 0, 52, 60
2, 46614, Note_on_c, 0, 88, 0
2, 46616, Note_on_c, 0, 56, 0
2, 46616, Note_on_c, 0, 80, 0
2, 46630, Note_on_c, 0, 76, 0
2, 46630, Note_on_c, 0, 52, 0
2, 46630, Note_on_c, 0, 62, 0
2, 46677, Note_on_c, 0, 89, 60
2, 46679, Note_on_c, 0, 80, 60
2, 46679, Note_on_c, 0, 77, 60
2, 46680, Note_on_c, 0, 40, 60
2, 46721, Note_on_c, 0, 77, 0
2, 46721, Note_on_c, 0, 89, 0
2, 46721, Note_on_c, 0, 80, 0
2, 46724, Note_on_c, 0, 40, 0
2, 46785, Note_on_c, 0, 80, 60
2, 46785, Note_on_c, 0, 88, 60
2, 46785, Note_on_c, 0, 76, 60
2, 46788, Note_on_c, 0, 62, 60
2, 46790, Note_on_c, 0, 56, 60
2, 46790, Note_on_c, 0, 52, 60
2, 46839, Note_on_c, 0, 84, 60
2, 46839, Note_on_c, 0, 81, 60
2, 46841, Note_on_c, 0, 72, 60
2, 46843, Note_on_c, 0, 76, 0
2, 46843, Note_on_c, 0, 80, 0
2, 46843, Note_on_c, 0, 88, 0
2, 46846, Note_on_c, 0, 62, 0
2, 46846, Note_on_c, 0, 56, 0
2, 46846, Note_on_c, 0, 52, 0
2, 46896, Note_on_c, 0, 45, 60
2, 46910, Note_on_c, 0, 84, 0
2, 46924, Control_c, 0, 64, 127
2, 46935, Note_on_c, 0, 72, 0
2, 46944, Note_on_c, 0, 83, 60
2, 46946, Note_on_c, 0, 71, 60
2, 46952, Note_on_c, 0, 81, 0
2, 46963, Note_on_c, 0, 45, 0
2, 46978, Control_c, 0, 64, 0
2, 46997, Note_on_c, 0, 84, 60
2, 46999, Note_on_c, 0, 72, 60
2, 46999, Note_on_c, 0, 81, 60
2, 46999, Note_on_c, 0, 60, 60
2, 47001, Note_on_c, 0, 83, 0
2, 47001, Note_on_c, 0, 57, 60
2, 47001, Note_on_c, 0, 52, 60
2, 47004, Note_on_c, 0, 71, 0
2, 47040, Note_on_c, 0, 81, 0
2, 47042, Note_on_c, 0, 84, 0
2, 47070, Note_on_c, 0, 60, 0
2, 47070, Note_on_c, 0, 72, 0
2, 47070, Note_on_c, 0, 57, 0
2, 47070, Note_on_c, 0, 52, 0
2, 47109, Note_on_c, 0, 76, 60
2, 47109, Note_on_c, 0, 82, 60
2, 47109, Note_on_c, 0, 84, 60
2, 47109, Note_on_c, 0, 72, 60
2, 47111, Note_on_c, 0, 55, 60
2, 47111, Note_on_c, 0, 43, 60
2, 47126, Note_on_c, 0, 72, 0
2, 47126, Note_on_c, 0, 84, 0
2, 47126, Note_on_c, 0, 76, 0
2, 47126, Note_on_c, 0, 82, 0
2, 47162, Note_on_c, 0, 76, 60
2, 47162, Note_on_c, 0, 82, 60
2, 47162, Note_on_c, 0, 84, 60
2, 47162, Note_on_c, 0, 72, 60
2, 47164, Note_on_c, 0, 52, 60
2, 47166, Note_on_c, 0, 55, 0
2, 47166, Note_on_c, 0, 40, 60
2, 47171, Note_on_c, 0, 43, 0
2, 47203, Note_on_c, 0, 84, 0
2, 47218, Note_on_c, 0, 72, 0
2, 47218, Note_on_c, 0, 48, 60
2, 47218, Note_on_c, 0, 36, 60
2, 47220, Note_on_c, 0, 52, 0
2, 47220, Note_on_c, 0, 40, 0
2, 47265, Note_on_c, 0, 84, 60
2, 47267, Note_on_c, 0, 82, 0
2, 47267, Note_on_c, 0, 76, 0
2, 47267, Note_on_c, 0, 77, 60
2, 47267, Note_on_c, 0, 81, 60
2, 47267, Note_on_c, 0, 72, 60
2, 47269, Note_on_c, 0, 52, 60
2, 47284, Note_on_c, 0, 48, 0
2, 47284, Note_on_c, 0, 40, 60
2, 47286, Note_on_c, 0, 36, 0
2, 47321, Note_on_c, 0, 53, 60
2, 47321, Note_on_c, 0, 41, 60
2, 47323, Note_on_c, 0, 52, 0
2, 47323, Note_on_c, 0, 40, 0
2, 47323, Control_c, 0, 64, 127
2, 47374, Note_on_c, 0, 53, 0
2, 47387, Note_on_c, 0, 41, 0
2, 47404, Control_c, 0, 64, 0
2, 47424, Note_on_c, 0, 60, 60
2, 47425, Note_on_c, 0, 57, 60
2, 47479, Note_on_c, 0, 57, 0
2, 47479, Note_on_c, 0, 60, 0
2, 47518, Note_on_c, 0, 84, 0
2, 47518, Note_on_c, 0, 81, 0
2, 47518, Note_on_c, 0, 77, 0
2, 47530, Note_on_c, 0, 72, 0
2, 47530, Note_on_c, 0, 48, 60
2, 47530, Note_on_c, 0, 36, 60
2, 47579, Note_on_c, 0, 81, 60
2, 47579, Note_on_c, 0, 69, 60
2, 47596, Note_on_c, 0, 36, 0
2, 47610, Note_on_c, 0, 48, 0
2, 47631, Note_on_c, 0, 84, 60
2, 47631, Note_on_c, 0, 72, 60
2, 47633, Note_on_c, 0, 81, 0
2, 47633, Note_on_c, 0, 69, 0
2, 47633, Note_on_c, 0, 60, 60
2, 47633, Note_on_c, 0, 57, 60
2, 47671, Note_on_c, 0, 84, 0
2, 47674, Note_on_c, 0, 57, 0
2, 47680, Note_on_c, 0, 89, 60
2, 47680, Note_on_c, 0, 77, 60
2, 47685, Note_on_c, 0, 60, 0
2, 47685, Note_on_c, 0, 72, 0
2, 47695, Note_on_c, 0, 89, 0
2, 47697, Control_c, 0, 64, 127
2, 47732, Note_on_c, 0, 89, 60
2, 47734, Note_on_c, 0, 84, 60
2, 47734, Note_on_c, 0, 93, 60
2, 47734, Note_on_c, 0, 81, 60
2, 47736, Note_on_c, 0, 53, 60
2, 47736, Note_on_c, 0, 41, 60
2, 47742, Note_on_c, 0, 77, 0
2, 47774, Note_on_c, 0, 93, 0
2, 47774, Note_on_c, 0, 89, 0
2, 47789, Note_on_c, 0, 81, 0
2, 47789, Note_on_c, 0, 84, 0
2, 47791, Note_on_c, 0, 41, 0
2, 47791, Note_on_c, 0, 53, 0
2, 47834, Control_c, 0, 64, 0
2, 47838, Note_on_c, 0, 93, 60
2, 47838, Note_on_c, 0, 89, 60
2, 47841, Note_on_c, 0, 84, 60
2, 47841, Note_on_c, 0, 81, 60
2, 47843, Note_on_c, 0, 60, 60
2, 47843, Note_on_c, 0, 65, 60
2, 47843, Note_on_c, 0, 57, 60
2, 47883, Note_on_c, 0, 93, 0
2, 47885, Note_on_c, 0, 84, 0
2, 47885, Note_on_c, 0, 60, 0
2, 47885, Note_on_c, 0, 81, 0
2, 47885, Note_on_c, 0, 89, 0
2, 47885, Note_on_c, 0, 57, 0
2, 47911, Note_on_c, 0, 65, 0
2, 47948, Note_on_c, 0, 84, 60
2, 47948, Note_on_c, 0, 89, 60
2, 47948, Note_on_c, 0, 93, 60
2, 47948, Note_on_c, 0, 81, 60
2, 47952, Note_on_c, 0, 53, 60
2, 47952, Note_on_c, 0, 41, 60
2, 47991, Note_on_c, 0, 93, 0
2, 47991, Note_on_c, 0, 84, 0
2, 47991, Note_on_c, 0, 89, 0
2, 47993, Note_on_c, 0, 81, 0
2, 47993, Note_on_c, 0, 53, 0
2, 48010, Note_on_c, 0, 41, 0
2, 48057, Note_on_c, 0, 84, 60
2, 48059, Note_on_c, 0, 87, 60
2, 48059, Note_on_c, 0, 92, 60
2, 48059, Note_on_c, 0, 80, 60
2, 48061, Note_on_c, 0, 54, 60
2, 48061, Note_on_c, 0, 42, 60
2, 48102, Note_on_c, 0, 80, 0
2, 48102, Note_on_c, 0, 92, 0
2, 48102, Note_on_c, 0, 87, 0
2, 48117, Note_on_c, 0, 84, 0
2, 48117, Note_on_c, 0, 54, 0
2, 48119, Note_on_c, 0, 42, 0
2, 48166, Note_on_c, 0, 88, 60
2, 48166, Note_on_c, 0, 91, 60
2, 48166, Note_on_c, 0, 84, 60
2, 48168, Note_on_c, 0, 79, 60
2, 48168, Note_on_c, 0, 55, 60
2, 48170, Note_on_c, 0, 43, 60
2, 48188, Control_c, 0, 64, 127
2, 48226, Note_on_c, 0, 55, 0
2, 48240, Note_on_c, 0, 43, 0
2, 48277, Note_on_c, 0, 64, 60
2, 48277, Note_on_c, 0, 60, 60
2, 48280, Note_on_c, 0, 88, 0
2, 48280, Note_on_c, 0, 55, 60
2, 48284, Control_c, 0, 64, 0
2, 48305, Note_on_c, 0, 79, 0
2, 48305, Note_on_c, 0, 91, 0
2, 48305, Note_on_c, 0, 84, 0
2, 48329, Note_on_c, 0, 88, 60
2, 48329, Note_on_c, 0, 76, 60
2, 48333, Note_on_c, 0, 60, 0
2, 48346, Note_on_c, 0, 55, 0
2, 48346, Note_on_c, 0, 64, 0
2, 48380, Note_on_c, 0, 84, 60
2, 48383, Note_on_c, 0, 72, 60
2, 48384, Note_on_c, 0, 88, 0
2, 48384, Note_on_c, 0, 57, 60
2, 48384, Note_on_c, 0, 45, 60
2, 48388, Note_on_c, 0, 76, 0
2, 48432, Note_on_c, 0, 86, 60
2, 48432, Note_on_c, 0, 74, 60
2, 48435, Note_on_c, 0, 72, 0
2, 48435, Note_on_c, 0, 84, 0
2, 48438, Note_on_c, 0, 45, 0
2, 48438, Note_on_c, 0, 57, 0
2, 48487, Note_on_c, 0, 88, 60
2, 48487, Note_on_c, 0, 76, 60
2, 48489, Note_on_c, 0, 60, 60
2, 48489, Note_on_c, 0, 64, 60
2, 48489, Note_on_c, 0, 57, 60
2, 48491, Note_on_c, 0, 74, 0
2, 48491, Note_on_c, 0, 86, 0
2, 48543, Note_on_c, 0, 88, 0
2, 48543, Note_on_c, 0, 60, 0
2, 48543, Note_on_c, 0, 76, 0
2, 48543, Note_on_c, 0, 57, 0
2, 48543, Note_on_c, 0, 64, 0
2, 48583, Control_c, 0, 64, 127
2, 48590, Note_on_c, 0, 84, 60
2, 48592, Note_on_c, 0, 78, 60
2, 48592, Note_on_c, 0, 72, 60
2, 48594, Note_on_c, 0, 62, 60
2, 48594, Note_on_c, 0, 50, 60
2, 48648, Note_on_c, 0, 60, 60
2, 48648, Note_on_c, 0, 48, 60
2, 48649, Note_on_c, 0, 50, 0
2, 48649, Note_on_c, 0, 62, 0
2, 48677, Control_c, 0, 64, 0
2, 48699, Note_on_c, 0, 60, 0
2, 48699, Note_on_c, 0, 57, 60
2, 48699, Note_on_c, 0, 45, 60
2, 48714, Note_on_c, 0, 48, 0
2, 48750, Note_on_c, 0, 78, 0
2, 48750, Note_on_c, 0, 84, 0
2, 48750, Note_on_c, 0, 56, 60
2, 48750, Note_on_c, 0, 44, 60
2, 48752, Note_on_c, 0, 57, 0
2, 48752, Note_on_c, 0, 45, 0
2, 48778, Note_on_c, 0, 72, 0
2, 48799, Note_on_c, 0, 83, 60
2, 48799, Note_on_c, 0, 86, 60
2, 48799, Note_on_c, 0, 77, 60
2, 48802, Note_on_c, 0, 74, 60
2, 48802, Note_on_c, 0, 55, 60
2, 48804, Note_on_c, 0, 56, 0
2, 48804, Note_on_c, 0, 43, 60
2, 48806, Note_on_c, 0, 44, 0
2, 48816, Note_on_c, 0, 86, 0
2, 48816, Note_on_c, 0, 83, 0
2, 48816, Note_on_c, 0, 74, 0
2, 48818, Note_on_c, 0, 77, 0
2, 48853, Note_on_c, 0, 77, 60
2, 48853, Note_on_c, 0, 83, 60
2, 48853, Note_on_c, 0, 86, 60
2, 48853, Note_on_c, 0, 74, 60
2, 48935, Note_on_c, 0, 86, 0
2, 48936, Note_on_c, 0, 83, 0
2, 48936, Note_on_c, 0, 77, 0
2, 48936, Note_on_c, 0, 74, 0
2, 48960, Note_on_c, 0, 84, 60
2, 48962, Note_on_c, 0, 76, 60
2, 48962, Note_on_c, 0, 79, 60
2, 48962, Note_on_c, 0, 72, 60
2, 48964, Note_on_c, 0, 52, 60
2, 48964, Note_on_c, 0, 40, 60
2, 48966, Note_on_c, 0, 43, 0
2, 48977, Control_c, 0, 64, 127
2, 48980, Note_on_c, 0, 55, 0
2, 49016, Note_on_c, 0, 60, 60
2, 49016, Note_on_c, 0, 48, 60
2, 49018, Note_on_c, 0, 40, 0
2, 49018, Note_on_c, 0, 52, 0
2, 49055, Note_on_c, 0, 84, 0
2, 49056, Note_on_c, 0, 79, 0
2, 49067, Note_on_c, 0, 76, 0
2, 49067, Note_on_c, 0, 64, 60
2, 49067, Note_on_c, 0, 52, 60
2, 49069, Note_on_c, 0, 72, 0
2, 49069, Note_on_c, 0, 60, 0
2, 49069, Note_on_c, 0, 48, 0
2, 49121, Note_on_c, 0, 67, 60
2, 49121, Note_on_c, 0, 55, 60
2, 49123, Note_on_c, 0, 64, 0
2, 49123, Control_c, 0, 64, 0
2, 49135, Note_on_c, 0, 52, 0
2, 49175, Note_on_c, 0, 69, 60
2, 49176, Note_on_c, 0, 67, 0
2, 49176, Note_on_c, 0, 55, 0
2, 49176, Note_on_c, 0, 57, 60
2, 49227, Note_on_c, 0, 71, 60
2, 49230, Note_on_c, 0, 59, 60
2, 49232, Note_on_c, 0, 57, 0
2, 49232, Note_on_c, 0, 69, 0
2, 49283, Note_on_c, 0, 72, 60
2, 49283, Note_on_c, 0, 60, 60
2, 49286, Note_on_c, 0, 71, 0
2, 49286, Note_on_c, 0, 59, 0
2, 49335, Note_on_c, 0, 74, 60
2, 49337, Note_on_c, 0, 62, 60
2, 49339, Note_on_c, 0, 72, 0
2, 49341, Note_on_c, 0, 60, 0
2, 49386, Note_on_c, 0, 76, 60
2, 49389, Note_on_c, 0, 64, 60
2, 49391, Note_on_c, 0, 74, 0
2, 49394, Note_on_c, 0, 62, 0
2, 49440, Note_on_c, 0, 71, 60
2, 49440, Note_on_c, 0, 74, 60
2, 49440, Note_on_c, 0, 67, 60
2, 49441, Note_on_c, 0, 55, 60
2, 49444, Note_on_c, 0, 76, 0
2, 49444, Note_on_c, 0, 64, 0
2, 49457, Control_c, 0, 64, 127
2, 49493, Note_on_c, 0, 66, 60
2, 49495, Note_on_c, 0, 67, 0
2, 49495, Note_on_c, 0, 55, 0
2, 49495, Note_on_c, 0, 54, 60
2, 49549, Note_on_c, 0, 65, 60
2, 49551, Note_on_c, 0, 54, 0
2, 49551, Note_on_c, 0, 66, 0
2, 49551, Note_on_c, 0, 53, 60
2, 49553, Control_c, 0, 64, 0
2, 49589, Note_on_c, 0, 74, 0
2, 49591, Note_on_c, 0, 53, 0
2, 49600, Note_on_c, 0, 64, 60
2, 49603, Note_on_c, 0, 52, 60
2, 49605, Note_on_c, 0, 71, 0
2, 49605, Note_on_c, 0, 65, 0
2, 49656, Note_on_c, 0, 71, 60
2, 49656, Note_on_c, 0, 79, 60
2, 49656, Note_on_c, 0, 67, 60
2, 49657, Note_on_c, 0, 62, 60
2, 49657, Note_on_c, 0, 50, 60
2, 49660, Note_on_c, 0, 64, 0
2, 49660, Note_on_c, 0, 52, 0
2, 49709, Note_on_c, 0, 60, 60
2, 49709, Note_on_c, 0, 48, 60
2, 49725, Note_on_c, 0, 50, 0
2, 49727, Note_on_c, 0, 62, 0
2, 49763, Note_on_c, 0, 59, 60
2, 49763, Note_on_c, 0, 47, 60
2, 49777, Note_on_c, 0, 60, 0
2, 49777, Note_on_c, 0, 48, 0
2, 49816, Note_on_c, 0, 57, 60
2, 49816, Note_on_c, 0, 45, 60
2, 49819, Note_on_c, 0, 59, 0
2, 49819, Note_on_c, 0, 47, 0
2, 49868, Note_on_c, 0, 71, 0
2, 49868, Note_on_c, 0, 79, 0
2, 49868, Note_on_c, 0, 55, 60
2, 49870, Note_on_c, 0, 57, 0
2, 49870, Note_on_c, 0, 67, 0
2, 49870, Note_on_c, 0, 45, 0
2, 49870, Note_on_c, 0, 43, 60
2, 49870, Control_c, 0, 64, 127
2, 49920, Note_on_c, 0, 74, 60
2, 49921, Note_on_c, 0, 62, 60
2, 49923, Note_on_c, 0, 55, 0
2, 49925, Note_on_c, 0, 43, 0
2, 49962, Note_on_c, 0, 74, 0
2, 49967, Note_on_c, 0, 62, 0
2, 49967, Control_c, 0, 64, 0
2, 49970, Note_on_c, 0, 83, 60
2, 49972, Note_on_c, 0, 71, 60
2, 49974, Note_on_c, 0, 56, 60
2, 49974, Note_on_c, 0, 44, 60
2, 50026, Note_on_c, 0, 74, 60
2, 50026, Note_on_c, 0, 62, 60
2, 50028, Note_on_c, 0, 71, 0
2, 50028, Note_on_c, 0, 83, 0
2, 50030, Note_on_c, 0, 44, 0
2, 50030, Note_on_c, 0, 56, 0
2, 50069, Note_on_c, 0, 74, 0
2, 50080, Note_on_c, 0, 77, 60
2, 50080, Note_on_c, 0, 65, 60
2, 50082, Note_on_c, 0, 57, 60
2, 50082, Note_on_c, 0, 45, 60
2, 50084, Note_on_c, 0, 62, 0
2, 50133, Note_on_c, 0, 81, 60
2, 50133, Note_on_c, 0, 69, 60
2, 50136, Note_on_c, 0, 57, 0
2, 50137, Note_on_c, 0, 45, 0
2, 50139, Note_on_c, 0, 77, 0
2, 50150, Note_on_c, 0, 65, 0
2, 50184, Note_on_c, 0, 79, 60
2, 50184, Note_on_c, 0, 67, 60
2, 50186, Note_on_c, 0, 69, 0
2, 50186, Note_on_c, 0, 81, 0
2, 50186, Note_on_c, 0, 59, 60
2, 50186, Note_on_c, 0, 47, 60
2, 50225, Note_on_c, 0, 59, 0
2, 50225, Note_on_c, 0, 79, 0
2, 50228, Note_on_c, 0, 67, 0
2, 50228, Note_on_c, 0, 47, 0
2, 50235, Note_on_c, 0, 77, 60
2, 50235, Note_on_c, 0, 65, 60
2, 50289, Note_on_c, 0, 64, 60
2, 50289, Note_on_c, 0, 76, 60
2, 50289, Note_on_c, 0, 60, 60
2, 50291, Note_on_c, 0, 77, 0
2, 50291, Note_on_c, 0, 48, 60
2, 50294, Note_on_c, 0, 65, 0
2, 50306, Control_c, 0, 64, 127
2, 50341, Note_on_c, 0, 75, 60
2, 50341, Note_on_c, 0, 63, 60
2, 50343, Note_on_c, 0, 60, 0
2, 50343, Note_on_c, 0, 76, 0
2, 50343, Note_on_c, 0, 64, 0
2, 50345, Note_on_c, 0, 48, 0
2, 50383, Note_on_c, 0, 75, 0
2, 50392, Note_on_c, 0, 76, 60
2, 50394, Note_on_c, 0, 64, 60
2, 50397, Note_on_c, 0, 63, 0
2, 50397, Note_on_c, 0, 60, 60
2, 50397, Note_on_c, 0, 55, 60
2, 50400, Control_c, 0, 64, 0
2, 50446, Note_on_c, 0, 79, 60
2, 50446, Note_on_c, 0, 67, 60
2, 50449, Note_on_c, 0, 60, 0
2, 50449, Note_on_c, 0, 76, 0
2, 50449, Note_on_c, 0, 64, 0
2, 50461, Note_on_c, 0, 55, 0
2, 50499, Note_on_c, 0, 52, 60
2, 50550, Note_on_c, 0, 52, 0
2, 50600, Note_on_c, 0, 64, 60
2, 50602, Note_on_c, 0, 60, 60
2, 50602, Note_on_c, 0, 55, 60
2, 50656, Note_on_c, 0, 60, 0
2, 50656, Note_on_c, 0, 64, 0
2, 50656, Note_on_c, 0, 67, 0
2, 50672, Note_on_c, 0, 55, 0
2, 50683, Note_on_c, 0, 79, 0
2, 50698, Control_c, 0, 64, 127
2, 50711, Note_on_c, 0, 72, 60
2, 50711, Note_on_c, 0, 63, 60
2, 50713, Note_on_c, 0, 57, 60
2, 50713, Note_on_c, 0, 60, 60
2, 50713, Note_on_c, 0, 54, 60
2, 50766, Note_on_c, 0, 75, 60
2, 50769, Note_on_c, 0, 72, 0
2, 50799, Control_c, 0, 64, 0
2, 50809, Note_on_c, 0, 75, 0
2, 50820, Note_on_c, 0, 78, 60
2, 50820, Note_on_c, 0, 66, 60
2, 50874, Note_on_c, 0, 81, 60
2, 50874, Note_on_c, 0, 69, 60
2, 50876, Note_on_c, 0, 66, 0
2, 50876, Note_on_c, 0, 78, 0
2, 50889, Note_on_c, 0, 60, 0
2, 50889, Note_on_c, 0, 54, 0
2, 50889, Note_on_c, 0, 57, 0
2, 50904, Note_on_c, 0, 63, 0
2, 50917, Note_on_c, 0, 81, 0
2, 50917, Note_on_c, 0, 69, 0
2, 50925, Note_on_c, 0, 67, 60
2, 50925, Note_on_c, 0, 79, 60
2, 50925, Note_on_c, 0, 55, 60
2, 50928, Note_on_c, 0, 64, 60
2, 50928, Note_on_c, 0, 60, 60
2, 50942, Note_on_c, 0, 64, 0
2, 50978, Note_on_c, 0, 76, 60
2, 50978, Note_on_c, 0, 64, 60
2, 50980, Note_on_c, 0, 79, 0
2, 50980, Note_on_c, 0, 67, 0
2, 51032, Note_on_c, 0, 79, 60
2, 51032, Note_on_c, 0, 67, 60
2, 51036, Note_on_c, 0, 76, 0
2, 51048, Note_on_c, 0, 60, 0
2, 51062, Note_on_c, 0, 55, 0
2, 51062, Note_on_c, 0, 64, 0
2, 51086, Note_on_c, 0, 84, 60
2, 51086, Note_on_c, 0, 72, 60
2, 51088, Note_on_c, 0, 79, 0
2, 51090, Note_on_c, 0, 67, 0
2, 51100, Note_on_c, 0, 84, 0
2, 51102, Note_on_c, 0, 72, 0
2, 51133, Control_c, 0, 64, 127
2, 51142, Note_on_c, 0, 84, 60
2, 51142, Note_on_c, 0, 77, 60
2, 51144, Note_on_c, 0, 72, 60
2, 51144, Note_on_c, 0, 74, 60
2, 51144, Note_on_c, 0, 62, 60
2, 51145, Note_on_c, 0, 50, 60
2, 51197, Note_on_c, 0, 84, 0
2, 51199, Note_on_c, 0, 72, 0
2, 51199, Note_on_c, 0, 74, 0
2, 51199, Note_on_c, 0, 77, 0
2, 51199, Note_on_c, 0, 50, 0
2, 51199, Note_on_c, 0, 62, 0
2, 51229, Control_c, 0, 64, 0
2, 51248, Note_on_c, 0, 77, 60
2, 51248, Note_on_c, 0, 83, 60
2, 51248, Note_on_c, 0, 71, 60
2, 51250, Note_on_c, 0, 59, 60
2, 51250, Note_on_c, 0, 65, 60
2, 51250, Note_on_c, 0, 74, 60
2, 51250, Note_on_c, 0, 55, 60
2, 51265, Note_on_c, 0, 74, 0
2, 51265, Note_on_c, 0, 77, 0
2, 51265, Note_on_c, 0, 83, 0
2, 51265, Note_on_c, 0, 71, 0
2, 51302, Note_on_c, 0, 77, 60
2, 51302, Note_on_c, 0, 83, 60
2, 51302, Note_on_c, 0, 74, 60
2, 51304, Note_on_c, 0, 71, 60
2, 51306, Note_on_c, 0, 59, 0
2, 51306, Note_on_c, 0, 55, 0
2, 51306, Note_on_c, 0, 65, 0
2, 51356, Note_on_c, 0, 55, 60
2, 51358, Note_on_c, 0, 77, 0
2, 51358, Note_on_c, 0, 74, 0
2, 51358, Note_on_c, 0, 43, 60
2, 51370, Note_on_c, 0, 83, 0
2, 51385, Note_on_c, 0, 71, 0
2, 51408, Note_on_c, 0, 74, 60
2, 51408, Note_on_c, 0, 77, 60
2, 51408, Note_on_c, 0, 82, 60
2, 51408, Note_on_c, 0, 70, 60
2, 51413, Note_on_c, 0, 55, 0
2, 51413, Note_on_c, 0, 43, 0
2, 51426, Note_on_c, 0, 77, 0
2, 51426, Note_on_c, 0, 74, 0
2, 51462, Note_on_c, 0, 74, 60
2, 51462, Note_on_c, 0, 77, 60
2, 51462, Note_on_c, 0, 83, 60
2, 51462, Note_on_c, 0, 71, 60
2, 51464, Note_on_c, 0, 59, 60
2, 51464, Note_on_c, 0, 65, 60
2, 51464, Note_on_c, 0, 55, 60
2, 51467, Note_on_c, 0, 70, 0
2, 51467, Note_on_c, 0, 82, 0
2, 51518, Note_on_c, 0, 65, 0
2, 51518, Note_on_c, 0, 77, 0
2, 51518, Note_on_c, 0, 74, 0
2, 51518, Note_on_c, 0, 83, 0
2, 51518, Note_on_c, 0, 71, 0
2, 51520, Note_on_c, 0, 55, 0
2, 51520, Note_on_c, 0, 59, 0
2, 51570, Note_on_c, 0, 77, 60
2, 51570, Note_on_c, 0, 74, 60
2, 51572, Note_on_c, 0, 65, 60
2, 51572, Note_on_c, 0, 59, 60
2, 51574, Note_on_c, 0, 47, 60
2, 51614, Note_on_c, 0, 59, 0
2, 51614, Note_on_c, 0, 46, 60
2, 51617, Note_on_c, 0, 47, 0
2, 51627, Note_on_c, 0, 58, 60
2, 51653, Control_c, 0, 64, 127
2, 51670, Control_c, 0, 64, 0
2, 51678, Note_on_c, 0, 57, 60
2, 51678, Note_on_c, 0, 45, 60
2, 51681, Note_on_c, 0, 58, 0
2, 51681, Note_on_c, 0, 46, 0
2, 51717, Note_on_c, 0, 57, 0
2, 51728, Note_on_c, 0, 56, 60
2, 51730, Note_on_c, 0, 44, 60
2, 51732, Note_on_c, 0, 45, 0
2, 51781, Note_on_c, 0, 74, 0
2, 51781, Note_on_c, 0, 55, 60
2, 51781, Note_on_c, 0, 43, 60
2, 51784, Note_on_c, 0, 56, 0
2, 51784, Note_on_c, 0, 44, 0
2, 51822, Note_on_c, 0, 65, 0
2, 51833, Note_on_c, 0, 74, 60
2, 51835, Note_on_c, 0, 77, 0
2, 51835, Note_on_c, 0, 55, 0
2, 51837, Note_on_c, 0, 43, 0
2, 51878, Note_on_c, 0, 74, 0
2, 51888, Note_on_c, 0, 77, 60
2, 51888, Note_on_c, 0, 65, 60
2, 51890, Note_on_c, 0, 59, 60
2, 51890, Note_on_c, 0, 55, 60
2, 51942, Note_on_c, 0, 83, 60
2, 51942, Note_on_c, 0, 71, 60
2, 51946, Note_on_c, 0, 55, 0
2, 51946, Note_on_c, 0, 59, 0
2, 51946, Note_on_c, 0, 77, 0
2, 51961, Note_on_c, 0, 65, 0
2, 51961, Note_on_c, 0, 83, 0
2, 51974, Control_c, 0, 64, 127
2, 51995, Note_on_c, 0, 76, 60
2, 51995, Note_on_c, 0, 83, 60
2, 51995, Note_on_c, 0, 72, 60
2, 51997, Note_on_c, 0, 60, 60
2, 51997, Note_on_c, 0, 48, 60
2, 52002, Note_on_c, 0, 71, 0
2, 52036, Note_on_c, 0, 83, 0
2, 52047, Note_on_c, 0, 72, 0
2, 52047, Note_on_c, 0, 76, 0
2, 52049, Note_on_c, 0, 48, 0
2, 52049, Note_on_c, 0, 60, 0
2, 52064, Control_c, 0, 64, 0
2, 52098, Note_on_c, 0, 64, 60
2, 52098, Note_on_c, 0, 69, 60
2, 52098, Note_on_c, 0, 72, 60
2, 52098, Note_on_c, 0, 76, 60
2, 52098, Note_on_c, 0, 81, 60
2, 52098, Note_on_c, 0, 60, 60
2, 52101, Note_on_c, 0, 55, 60
2, 52115, Note_on_c, 0, 81, 0
2, 52115, Note_on_c, 0, 76, 0
2, 52115, Note_on_c, 0, 72, 0
2, 52115, Note_on_c, 0, 69, 0
2, 52150, Note_on_c, 0, 81, 60
2, 52150, Note_on_c, 0, 72, 60
2, 52152, Note_on_c, 0, 76, 60
2, 52152, Note_on_c, 0, 69, 60
2, 52153, Note_on_c, 0, 64, 0
2, 52153, Note_on_c, 0, 60, 0
2, 52153, Note_on_c, 0, 55, 0
2, 52192, Note_on_c, 0, 69, 0
2, 52205, Note_on_c, 0, 81, 0
2, 52205, Note_on_c, 0, 76, 0
2, 52205, Note_on_c, 0, 72, 0
2, 52205, Note_on_c, 0, 55, 60
2, 52205, Note_on_c, 0, 43, 60
2, 52254, Note_on_c, 0, 80, 60
2, 52254, Note_on_c, 0, 76, 60
2, 52256, Note_on_c, 0, 72, 60
2, 52256, Note_on_c, 0, 68, 60
2, 52261, Note_on_c, 0, 43, 0
2, 52263, Note_on_c, 0, 55, 0
2, 52272, Note_on_c, 0, 72, 0
2, 52272, Note_on_c, 0, 76, 0
2, 52308, Note_on_c, 0, 81, 60
2, 52308, Note_on_c, 0, 76, 60
2, 52310, Note_on_c, 0, 60, 60
2, 52310, Note_on_c, 0, 64, 60
2, 52310, Note_on_c, 0, 69, 60
2, 52310, Note_on_c, 0, 72, 60
2, 52310, Note_on_c, 0, 55, 60
2, 52312, Note_on_c, 0, 68, 0
2, 52312, Note_on_c, 0, 80, 0
2, 52348, Note_on_c, 0, 76, 0
2, 52348, Note_on_c, 0, 81, 0
2, 52350, Note_on_c, 0, 64, 0
2, 52350, Note_on_c, 0, 60, 0
2, 52350, Note_on_c, 0, 69, 0
2, 52362, Note_on_c, 0, 72, 0
2, 52364, Note_on_c, 0, 55, 0
2, 52404, Control_c, 0, 64, 127
2, 52415, Note_on_c, 0, 72, 60
2, 52415, Note_on_c, 0, 76, 60
2, 52415, Note_on_c, 0, 64, 60
2, 52417, Note_on_c, 0, 60, 60
2, 52417, Note_on_c, 0, 48, 60
2, 52468, Note_on_c, 0, 60, 0
2, 52468, Note_on_c, 0, 59, 60
2, 52468, Note_on_c, 0, 47, 60
2, 52470, Note_on_c, 0, 48, 0
2, 52498, Control_c, 0, 64, 0
2, 52520, Note_on_c, 0, 59, 0
2, 52520, Note_on_c, 0, 57, 60
2, 52522, Note_on_c, 0, 47, 0
2, 52535, Note_on_c, 0, 45, 60
2, 52576, Note_on_c, 0, 56, 60
2, 52578, Note_on_c, 0, 45, 0
2, 52578, Note_on_c, 0, 57, 0
2, 52578, Note_on_c, 0, 44, 60
2, 52629, Note_on_c, 0, 55, 60
2, 52631, Note_on_c, 0, 56, 0
2, 52631, Note_on_c, 0, 43, 60
2, 52633, Note_on_c, 0, 44, 0
2, 52670, Note_on_c, 0, 76, 0
2, 52670, Note_on_c, 0, 72, 0
2, 52672, Note_on_c, 0, 64, 0
2, 52682, Note_on_c, 0, 67, 60
2, 52733, Note_on_c, 0, 72, 60
2, 52733, Note_on_c, 0, 60, 60
2, 52736, Note_on_c, 0, 67, 0
2, 52736, Note_on_c, 0, 55, 0
2, 52738, Note_on_c, 0, 43, 0
2, 52789, Note_on_c, 0, 76, 60
2, 52789, Note_on_c, 0, 64, 60
2, 52792, Note_on_c, 0, 60, 0
2, 52792, Note_on_c, 0, 72, 0
2, 52839, Note_on_c, 0, 74, 60
2, 52841, Note_on_c, 0, 71, 60
2, 52841, Note_on_c, 0, 67, 60
2, 52843, Note_on_c, 0, 55, 60
2, 52845, Note_on_c, 0, 76, 0
2, 52845, Note_on_c, 0, 64, 0
2, 52845, Control_c, 0, 64, 127
2, 52895, Note_on_c, 0, 66, 60
2, 52895, Note_on_c, 0, 54, 60
2, 52896, Note_on_c, 0, 67, 0
2, 52896, Note_on_c, 0, 55, 0
2, 52945, Note_on_c, 0, 65, 60
2, 52947, Note_on_c, 0, 66, 0
2, 52950, Note_on_c, 0, 54, 0
2, 52961, Note_on_c, 0, 53, 60
2, 52978, Control_c, 0, 64, 0
2, 53001, Note_on_c, 0, 64, 60
2, 53001, Note_on_c, 0, 52, 60
2, 53003, Note_on_c, 0, 53, 0
2, 53003, Note_on_c, 0, 71, 0
2, 53029, Note_on_c, 0, 65, 0
2, 53053, Note_on_c, 0, 71, 60
2, 53053, Note_on_c, 0, 79, 60
2, 53053, Note_on_c, 0, 67, 60
2, 53055, Note_on_c, 0, 74, 0
2, 53055, Note_on_c, 0, 64, 0
2, 53055, Note_on_c, 0, 62, 60
2, 53055, Note_on_c, 0, 50, 60
2, 53057, Note_on_c, 0, 52, 0
2, 53093, Note_on_c, 0, 48, 60
2, 53104, Note_on_c, 0, 60, 60
2, 53109, Note_on_c, 0, 62, 0
2, 53109, Note_on_c, 0, 50, 0
2, 53156, Note_on_c, 0, 59, 60
2, 53158, Note_on_c, 0, 60, 0
2, 53158, Note_on_c, 0, 47, 60
2, 53173, Note_on_c, 0, 48, 0
2, 53205, Note_on_c, 0, 57, 60
2, 53207, Note_on_c, 0, 45, 60
2, 53211, Note_on_c, 0, 59, 0
2, 53211, Note_on_c, 0, 47, 0
2, 53258, Note_on_c, 0, 55, 60
2, 53260, Note_on_c, 0, 57, 0
2, 53260, Note_on_c, 0, 67, 0
2, 53260, Note_on_c, 0, 45, 0
2, 53260, Note_on_c, 0, 43, 60
2, 53276, Control_c, 0, 64, 127
2, 53288, Note_on_c, 0, 71, 0
2, 53288, Note_on_c, 0, 79, 0
2, 53309, Note_on_c, 0, 74, 60
2, 53309, Note_on_c, 0, 62, 60
2, 53316, Note_on_c, 0, 55, 0
2, 53318, Note_on_c, 0, 43, 0
2, 53331, Control_c, 0, 64, 0
2, 53352, Note_on_c, 0, 74, 0
2, 53352, Note_on_c, 0, 44, 60
2, 53356, Note_on_c, 0, 62, 0
2, 53363, Note_on_c, 0, 83, 60
2, 53365, Note_on_c, 0, 71, 60
2, 53365, Note_on_c, 0, 56, 60
2, 53415, Note_on_c, 0, 74, 60
2, 53417, Note_on_c, 0, 83, 0
2, 53417, Note_on_c, 0, 62, 60
2, 53419, Note_on_c, 0, 56, 0
2, 53419, Note_on_c, 0, 44, 0
2, 53419, Note_on_c, 0, 71, 0
2, 53457, Note_on_c, 0, 74, 0
2, 53466, Note_on_c, 0, 77, 60
2, 53466, Note_on_c, 0, 65, 60
2, 53470, Note_on_c, 0, 57, 60
2, 53470, Note_on_c, 0, 45, 60
2, 53472, Note_on_c, 0, 62, 0
2, 53518, Note_on_c, 0, 81, 60
2, 53520, Note_on_c, 0, 69, 60
2, 53521, Note_on_c, 0, 77, 0
2, 53523, Note_on_c, 0, 45, 0
2, 53523, Note_on_c, 0, 57, 0
2, 53537, Note_on_c, 0, 65, 0
2, 53573, Note_on_c, 0, 67, 60
2, 53573, Note_on_c, 0, 79, 60
2, 53573, Note_on_c, 0, 59, 60
2, 53575, Note_on_c, 0, 69, 0
2, 53575, Note_on_c, 0, 81, 0
2, 53575, Note_on_c, 0, 47, 60
2, 53614, Note_on_c, 0, 65, 60
2, 53616, Note_on_c, 0, 47, 0
2, 53616, Note_on_c, 0, 79, 0
2, 53616, Note_on_c, 0, 59, 0
2, 53628, Note_on_c, 0, 77, 60
2, 53631, Note_on_c, 0, 67, 0
2, 53669, Note_on_c, 0, 48, 60
2, 53671, Control_c, 0, 64, 127
2, 53680, Note_on_c, 0, 76, 60
2, 53682, Note_on_c, 0, 64, 60
2, 53682, Note_on_c, 0, 60, 60
2, 53684, Note_on_c, 0, 77, 0
2, 53699, Note_on_c, 0, 65, 0
2, 53737, Note_on_c, 0, 64, 0
2, 53737, Note_on_c, 0, 76, 0
2, 53737, Note_on_c, 0, 60, 0
2, 53737, Note_on_c, 0, 63, 60
2, 53739, Note_on_c, 0, 48, 0
2, 53751, Note_on_c, 0, 75, 60
2, 53772, Control_c, 0, 64, 0
2, 53789, Note_on_c, 0, 76, 60
2, 53791, Note_on_c, 0, 64, 60
2, 53793, Note_on_c, 0, 75, 0
2, 53793, Note_on_c, 0, 60, 60
2, 53793, Note_on_c, 0, 55, 60
2, 53795, Note_on_c, 0, 63, 0
2, 53834, Note_on_c, 0, 60, 0
2, 53845, Note_on_c, 0, 70, 60
2, 53845, Note_on_c, 0, 79, 60
2, 53845, Note_on_c, 0, 67, 60
2, 53847, Note_on_c, 0, 64, 0
2, 53847, Note_on_c, 0, 76, 0
2, 53849, Note_on_c, 0, 55, 0
2, 53901, Note_on_c, 0, 52, 60
2, 53928, Note_on_c, 0, 79, 0
2, 53928, Note_on_c, 0, 67, 0
2, 53950, Note_on_c, 0, 76, 60
2, 53952, Note_on_c, 0, 64, 60
2, 53953, Note_on_c, 0, 52, 0
2, 53971, Note_on_c, 0, 64, 0
2, 54005, Note_on_c, 0, 67, 60
2, 54005, Note_on_c, 0, 79, 60
2, 54005, Note_on_c, 0, 64, 60
2, 54007, Note_on_c, 0, 60, 60
2, 54007, Note_on_c, 0, 58, 60
2, 54009, Note_on_c, 0, 76, 0
2, 54059, Note_on_c, 0, 70, 0
2, 54061, Note_on_c, 0, 67, 0
2, 54061, Note_on_c, 0, 64, 0
2, 54061, Note_on_c, 0, 60, 0
2, 54061, Note_on_c, 0, 58, 0
2, 54063, Note_on_c, 0, 79, 0
2, 54110, Note_on_c, 0, 69, 60
2, 54110, Note_on_c, 0, 77, 60
2, 54110, Note_on_c, 0, 65, 60
2, 54112, Note_on_c, 0, 53, 60
2, 54115, Control_c, 0, 64, 127
2, 54168, Note_on_c, 0, 53, 0
2, 54168, Note_on_c, 0, 65, 0
2, 54213, Control_c, 0, 64, 0
2, 54219, Note_on_c, 0, 65, 60
2, 54219, Note_on_c, 0, 60, 60
2, 54221, Note_on_c, 0, 57, 60
2, 54288, Note_on_c, 0, 57, 0
2, 54288, Note_on_c, 0, 65, 0
2, 54288, Note_on_c, 0, 60, 0
2, 54329, Note_on_c, 0, 69, 0
2, 54329, Note_on_c, 0, 48, 60
2, 54380, Note_on_c, 0, 69, 60
2, 54380, Note_on_c, 0, 57, 60
2, 54382, Note_on_c, 0, 77, 0
2, 54397, Note_on_c, 0, 48, 0
2, 54397, Note_on_c, 0, 57, 0
2, 54433, Note_on_c, 0, 60, 60
2, 54433, Note_on_c, 0, 65, 60
2, 54433, Note_on_c, 0, 72, 60
2, 54433, Note_on_c, 0, 57, 60
2, 54435, Note_on_c, 0, 69, 0
2, 54451, Note_on_c, 0, 65, 0
2, 54484, Note_on_c, 0, 77, 60
2, 54487, Note_on_c, 0, 65, 60
2, 54489, Note_on_c, 0, 60, 0
2, 54489, Note_on_c, 0, 72, 0
2, 54491, Note_on_c, 0, 57, 0
2, 54504, Note_on_c, 0, 77, 0
2, 54529, Note_on_c, 0, 41, 60
2, 54538, Note_on_c, 0, 81, 60
2, 54538, Note_on_c, 0, 77, 60
2, 54540, Note_on_c, 0, 72, 60
2, 54540, Note_on_c, 0, 69, 60
2, 54543, Note_on_c, 0, 65, 0
2, 54543, Note_on_c, 0, 53, 60
2, 54545, Control_c, 0, 64, 127
2, 54581, Note_on_c, 0, 53, 0
2, 54581, Note_on_c, 0, 69, 0
2, 54581, Note_on_c, 0, 77, 0
2, 54581, Note_on_c, 0, 72, 0
2, 54581, Note_on_c, 0, 81, 0
2, 54583, Note_on_c, 0, 41, 0
2, 54639, Note_on_c, 0, 77, 60
2, 54639, Note_on_c, 0, 81, 60
2, 54639, Note_on_c, 0, 60, 60
2, 54641, Note_on_c, 0, 65, 60
2, 54641, Note_on_c, 0, 69, 60
2, 54641, Note_on_c, 0, 72, 60
2, 54641, Note_on_c, 0, 57, 60
2, 54648, Control_c, 0, 64, 0
2, 54696, Note_on_c, 0, 57, 0
2, 54696, Note_on_c, 0, 69, 0
2, 54696, Note_on_c, 0, 81, 0
2, 54696, Note_on_c, 0, 77, 0
2, 54696, Note_on_c, 0, 60, 0
2, 54696, Note_on_c, 0, 72, 0
2, 54709, Note_on_c, 0, 65, 0
2, 54745, Note_on_c, 0, 69, 60
2, 54745, Note_on_c, 0, 72, 60
2, 54745, Note_on_c, 0, 77, 60
2, 54745, Note_on_c, 0, 81, 60
2, 54745, Note_on_c, 0, 53, 60
2, 54748, Note_on_c, 0, 41, 60
2, 54799, Note_on_c, 0, 53, 0
2, 54799, Note_on_c, 0, 81, 0
2, 54799, Note_on_c, 0, 77, 0
2, 54799, Note_on_c, 0, 69, 0
2, 54799, Note_on_c, 0, 72, 0
2, 54801, Note_on_c, 0, 41, 0
2, 54851, Note_on_c, 0, 80, 60
2, 54851, Note_on_c, 0, 75, 60
2, 54853, Note_on_c, 0, 68, 60
2, 54853, Note_on_c, 0, 72, 60
2, 54853, Note_on_c, 0, 54, 60
2, 54855, Note_on_c, 0, 42, 60
2, 54904, Note_on_c, 0, 54, 0
2, 54904, Note_on_c, 0, 72, 0
2, 54904, Note_on_c, 0, 68, 0
2, 54904, Note_on_c, 0, 80, 0
2, 54904, Note_on_c, 0, 75, 0
2, 54907, Note_on_c, 0, 42, 0
2, 54954, Note_on_c, 0, 76, 60
2, 54954, Note_on_c, 0, 79, 60
2, 54954, Note_on_c, 0, 72, 60
2, 54956, Note_on_c, 0, 67, 60
2, 54956, Note_on_c, 0, 55, 60
2, 54958, Note_on_c, 0, 43, 60
2, 54970, Control_c, 0, 64, 127
2, 55009, Note_on_c, 0, 43, 0
2, 55009, Note_on_c, 0, 55, 0
2, 55026, Control_c, 0, 64, 0
2, 55058, Note_on_c, 0, 76, 0
2, 55058, Note_on_c, 0, 60, 60
2, 55058, Note_on_c, 0, 64, 60
2, 55058, Note_on_c, 0, 55, 60
2, 55071, Note_on_c, 0, 79, 0
2, 55074, Note_on_c, 0, 64, 0
2, 55084, Note_on_c, 0, 72, 0
2, 55109, Note_on_c, 0, 76, 60
2, 55112, Note_on_c, 0, 64, 60
2, 55114, Note_on_c, 0, 67, 0
2, 55114, Note_on_c, 0, 60, 0
2, 55127, Note_on_c, 0, 55, 0
2, 55163, Note_on_c, 0, 72, 60
2, 55165, Note_on_c, 0, 57, 60
2, 55165, Note_on_c, 0, 60, 60
2, 55165, Note_on_c, 0, 45, 60
2, 55168, Note_on_c, 0, 64, 0
2, 55168, Note_on_c, 0, 76, 0
2, 55217, Note_on_c, 0, 74, 60
2, 55219, Note_on_c, 0, 62, 60
2, 55221, Note_on_c, 0, 60, 0
2, 55221, Note_on_c, 0, 72, 0
2, 55224, Note_on_c, 0, 45, 0
2, 55224, Note_on_c, 0, 57, 0
2, 55271, Note_on_c, 0, 76, 60
2, 55272, Note_on_c, 0, 60, 60
2, 55272, Note_on_c, 0, 64, 60
2, 55272, Note_on_c, 0, 57, 60
2, 55274, Note_on_c, 0, 74, 0
2, 55276, Note_on_c, 0, 62, 0
2, 55326, Note_on_c, 0, 64, 0
2, 55326, Note_on_c, 0, 60, 0
2, 55326, Note_on_c, 0, 57, 0
2, 55326, Note_on_c, 0, 76, 0
2, 55370, Control_c, 0, 64, 127
2, 55382, Note_on_c, 0, 72, 60
2, 55382, Note_on_c, 0, 66, 60
2, 55384, Note_on_c, 0, 62, 60
2, 55384, Note_on_c, 0, 50, 60
2, 55388, Control_c, 0, 64, 0
2, 55441, Note_on_c, 0, 50, 0
2, 55443, Note_on_c, 0, 62, 0
2, 55495, Note_on_c, 0, 57, 60
2, 55497, Note_on_c, 0, 45, 60
2, 55537, Note_on_c, 0, 57, 0
2, 55540, Note_on_c, 0, 45, 0
2, 55598, Note_on_c, 0, 74, 60
2, 55598, Note_on_c, 0, 71, 60
2, 55600, Note_on_c, 0, 65, 60
2, 55600, Note_on_c, 0, 55, 60
2, 55602, Note_on_c, 0, 66, 0
2, 55602, Note_on_c, 0, 72, 0
2, 55602, Note_on_c, 0, 43, 60
2, 55615, Note_on_c, 0, 71, 0
2, 55615, Note_on_c, 0, 74, 0
2, 55617, Note_on_c, 0, 65, 0
2, 55652, Note_on_c, 0, 74, 60
2, 55652, Note_on_c, 0, 71, 60
2, 55654, Note_on_c, 0, 65, 60
2, 55756, Note_on_c, 0, 72, 60
2, 55756, Note_on_c, 0, 67, 60
2, 55758, Note_on_c, 0, 71, 0
2, 55758, Note_on_c, 0, 64, 60
2, 55760, Note_on_c, 0, 74, 0
2, 55762, Note_on_c, 0, 43, 0
2, 55774, Note_on_c, 0, 55, 0
2, 55786, Note_on_c, 0, 65, 0
2, 55810, Control_c, 0, 64, 127
2, 55810, Note_on_c, 0, 48, 60
2, 55810, Note_on_c, 0, 60, 60
2, 55878, Note_on_c, 0, 67, 0
2, 55904, Note_on_c, 0, 72, 0
2, 55908, Control_c, 0, 64, 0
2, 55913, Note_on_c, 0, 79, 60
2, 55915, Note_on_c, 0, 67, 60
2, 55919, Note_on_c, 0, 64, 0
2, 55919, Note_on_c, 0, 60, 0
2, 55919, Note_on_c, 0, 48, 0
2, 55966, Note_on_c, 0, 81, 60
2, 55968, Note_on_c, 0, 79, 0
2, 55968, Note_on_c, 0, 69, 60
2, 55970, Note_on_c, 0, 67, 0
2, 56019, Note_on_c, 0, 83, 60
2, 56019, Note_on_c, 0, 71, 60
2, 56021, Note_on_c, 0, 69, 0
2, 56021, Note_on_c, 0, 81, 0
2, 56058, Note_on_c, 0, 83, 0
2, 56060, Note_on_c, 0, 71, 0
2, 56066, Note_on_c, 0, 84, 60
2, 56066, Note_on_c, 0, 72, 60
2, 56120, Note_on_c, 0, 86, 60
2, 56122, Note_on_c, 0, 74, 60
2, 56124, Note_on_c, 0, 72, 0
2, 56124, Note_on_c, 0, 84, 0
2, 56176, Note_on_c, 0, 88, 60
2, 56176, Note_on_c, 0, 76, 60
2, 56178, Note_on_c, 0, 86, 0
2, 56180, Note_on_c, 0, 74, 0
2, 56232, Note_on_c, 0, 83, 60
2, 56232, Note_on_c, 0, 86, 60
2, 56232, Note_on_c, 0, 74, 60
2, 56233, Note_on_c, 0, 88, 0
2, 56233, Note_on_c, 0, 67, 60
2, 56233, Note_on_c, 0, 55, 60
2, 56235, Note_on_c, 0, 76, 0
2, 56249, Control_c, 0, 64, 127
2, 56284, Note_on_c, 0, 66, 60
2, 56287, Note_on_c, 0, 54, 60
2, 56289, Note_on_c, 0, 67, 0
2, 56289, Note_on_c, 0, 55, 0
2, 56317, Control_c, 0, 64, 0
2, 56326, Note_on_c, 0, 54, 0
2, 56338, Note_on_c, 0, 65, 60
2, 56340, Note_on_c, 0, 66, 0
2, 56340, Note_on_c, 0, 53, 60
2, 56390, Note_on_c, 0, 64, 60
2, 56392, Note_on_c, 0, 83, 0
2, 56392, Note_on_c, 0, 74, 0
2, 56392, Note_on_c, 0, 52, 60
2, 56394, Note_on_c, 0, 53, 0
2, 56416, Note_on_c, 0, 86, 0
2, 56418, Note_on_c, 0, 65, 0
2, 56441, Note_on_c, 0, 83, 60
2, 56441, Note_on_c, 0, 91, 60
2, 56441, Note_on_c, 0, 79, 60
2, 56443, Note_on_c, 0, 64, 0
2, 56443, Note_on_c, 0, 62, 60
2, 56443, Note_on_c, 0, 50, 60
2, 56446, Note_on_c, 0, 52, 0
2, 56482, Note_on_c, 0, 48, 60
2, 56495, Note_on_c, 0, 60, 60
2, 56496, Note_on_c, 0, 62, 0
2, 56496, Note_on_c, 0, 50, 0
2, 56538, Note_on_c, 0, 48, 0
2, 56538, Note_on_c, 0, 60, 0
2, 56548, Note_on_c, 0, 59, 60
2, 56548, Note_on_c, 0, 47, 60
2, 56604, Note_on_c, 0, 45, 60
2, 56606, Note_on_c, 0, 57, 60
2, 56608, Note_on_c, 0, 47, 0
2, 56608, Note_on_c, 0, 59, 0
2, 56649, Control_c, 0, 64, 127
2, 56660, Note_on_c, 0, 55, 60
2, 56662, Note_on_c, 0, 45, 0
2, 56662, Note_on_c, 0, 79, 0
2, 56662, Note_on_c, 0, 57, 0
2, 56662, Note_on_c, 0, 43, 60
2, 56688, Note_on_c, 0, 91, 0
2, 56688, Note_on_c, 0, 83, 0
2, 56709, Note_on_c, 0, 74, 60
2, 56711, Note_on_c, 0, 86, 60
2, 56717, Note_on_c, 0, 43, 0
2, 56730, Note_on_c, 0, 55, 0
2, 56745, Control_c, 0, 64, 0
2, 56764, Note_on_c, 0, 95, 60
2, 56764, Note_on_c, 0, 83, 60
2, 56766, Note_on_c, 0, 86, 0
2, 56766, Note_on_c, 0, 56, 60
2, 56768, Note_on_c, 0, 74, 0
2, 56768, Note_on_c, 0, 44, 60
2, 56805, Note_on_c, 0, 83, 0
2, 56808, Note_on_c, 0, 56, 0
2, 56808, Note_on_c, 0, 44, 0
2, 56815, Note_on_c, 0, 86, 60
2, 56815, Note_on_c, 0, 74, 60
2, 56818, Note_on_c, 0, 95, 0
2, 56869, Note_on_c, 0, 89, 60
2, 56869, Note_on_c, 0, 77, 60
2, 56874, Note_on_c, 0, 74, 0
2, 56874, Note_on_c, 0, 57, 60
2, 56874, Note_on_c, 0, 45, 60
2, 56884, Note_on_c, 0, 86, 0
2, 56921, Note_on_c, 0, 93, 60
2, 56923, Note_on_c, 0, 89, 0
2, 56923, Note_on_c, 0, 81, 60
2, 56925, Note_on_c, 0, 77, 0
2, 56927, Note_on_c, 0, 57, 0
2, 56927, Note_on_c, 0, 45, 0
2, 56972, Note_on_c, 0, 91, 60
2, 56974, Note_on_c, 0, 79, 60
2, 56976, Note_on_c, 0, 93, 0
2, 56976, Note_on_c, 0, 59, 60
2, 56978, Note_on_c, 0, 81, 0
2, 56978, Note_on_c, 0, 47, 60
2, 57027, Note_on_c, 0, 89, 60
2, 57029, Note_on_c, 0, 77, 60
2, 57032, Note_on_c, 0, 79, 0
2, 57032, Note_on_c, 0, 91, 0
2, 57034, Note_on_c, 0, 47, 0
2, 57074, Note_on_c, 0, 59, 0
2, 57083, Note_on_c, 0, 88, 60
2, 57083, Note_on_c, 0, 76, 60
2, 57085, Note_on_c, 0, 89, 0
2, 57085, Note_on_c, 0, 60, 60
2, 57088, Note_on_c, 0, 77, 0
2, 57088, Note_on_c, 0, 48, 60
2, 57088, Control_c, 0, 64, 127
2, 57126, Note_on_c, 0, 88, 0
2, 57128, Note_on_c, 0, 60, 0
2, 57137, Note_on_c, 0, 87, 60
2, 57139, Note_on_c, 0, 75, 60
2, 57141, Note_on_c, 0, 76, 0
2, 57144, Note_on_c, 0, 48, 0
2, 57186, Control_c, 0, 64, 0
2, 57191, Note_on_c, 0, 88, 60
2, 57191, Note_on_c, 0, 76, 60
2, 57192, Note_on_c, 0, 64, 60
2, 57194, Note_on_c, 0, 87, 0
2, 57194, Note_on_c, 0, 75, 0
2, 57194, Note_on_c, 0, 60, 60
2, 57194, Note_on_c, 0, 55, 60
2, 57207, Note_on_c, 0, 88, 0
2, 57241, Note_on_c, 0, 88, 60
2, 57241, Note_on_c, 0, 91, 60
2, 57241, Note_on_c, 0, 84, 60
2, 57243, Note_on_c, 0, 79, 60
2, 57246, Note_on_c, 0, 60, 0
2, 57246, Note_on_c, 0, 64, 0
2, 57246, Note_on_c, 0, 76, 0
2, 57248, Note_on_c, 0, 55, 0
2, 57299, Note_on_c, 0, 52, 60
2, 57302, Note_on_c, 0, 40, 60
2, 57358, Note_on_c, 0, 40, 0
2, 57358, Note_on_c, 0, 52, 0
2, 57407, Note_on_c, 0, 64, 60
2, 57408, Note_on_c, 0, 60, 60
2, 57408, Note_on_c, 0, 55, 60
2, 57460, Note_on_c, 0, 64, 0
2, 57460, Note_on_c, 0, 91, 0
2, 57460, Note_on_c, 0, 79, 0
2, 57460, Note_on_c, 0, 88, 0
2, 57460, Note_on_c, 0, 84, 0
2, 57462, Note_on_c, 0, 55, 0
2, 57462, Note_on_c, 0, 60, 0
2, 57488, Control_c, 0, 64, 127
2, 57509, Note_on_c, 0, 84, 60
2, 57511, Note_on_c, 0, 57, 60
2, 57511, Note_on_c, 0, 60, 60
2, 57511, Note_on_c, 0, 63, 60
2, 57511, Note_on_c, 0, 72, 60
2, 57511, Note_on_c, 0, 54, 60
2, 57558, Note_on_c, 0, 87, 60
2, 57558, Note_on_c, 0, 75, 60
2, 57563, Note_on_c, 0, 72, 0
2, 57563, Note_on_c, 0, 84, 0
2, 57579, Control_c, 0, 64, 0
2, 57612, Note_on_c, 0, 78, 60
2, 57614, Note_on_c, 0, 75, 0
2, 57623, Note_on_c, 0, 90, 60
2, 57626, Note_on_c, 0, 87, 0
2, 57661, Note_on_c, 0, 93, 60
2, 57663, Note_on_c, 0, 81, 60
2, 57666, Note_on_c, 0, 90, 0
2, 57668, Note_on_c, 0, 54, 0
2, 57668, Note_on_c, 0, 57, 0
2, 57668, Note_on_c, 0, 60, 0
2, 57668, Note_on_c, 0, 63, 0
2, 57668, Note_on_c, 0, 78, 0
2, 57715, Note_on_c, 0, 91, 60
2, 57717, Note_on_c, 0, 79, 60
2, 57719, Note_on_c, 0, 81, 0
2, 57719, Note_on_c, 0, 93, 0
2, 57719, Note_on_c, 0, 60, 60
2, 57719, Note_on_c, 0, 64, 60
2, 57719, Note_on_c, 0, 55, 60
2, 57760, Note_on_c, 0, 79, 0
2, 57770, Note_on_c, 0, 88, 60
2, 57770, Note_on_c, 0, 76, 60
2, 57772, Note_on_c, 0, 91, 0
2, 57824, Note_on_c, 0, 91, 60
2, 57824, Note_on_c, 0, 79, 60
2, 57826, Note_on_c, 0, 88, 0
2, 57826, Note_on_c, 0, 76, 0
2, 57828, Note_on_c, 0, 60, 0
2, 57828, Note_on_c, 0, 64, 0
2, 57843, Note_on_c, 0, 55, 0
2, 57875, Note_on_c, 0, 96, 60
2, 57877, Note_on_c, 0, 84, 60
2, 57880, Note_on_c, 0, 91, 0
2, 57882, Note_on_c, 0, 79, 0
2, 57892, Note_on_c, 0, 96, 0
2, 57894, Note_on_c, 0, 84, 0
2, 57920, Control_c, 0, 64, 127
2, 57927, Note_on_c, 0, 96, 60
2, 57927, Note_on_c, 0, 89, 60
2, 57929, Note_on_c, 0, 86, 60
2, 57929, Note_on_c, 0, 84, 60
2, 57931, Note_on_c, 0, 62, 60
2, 57933, Note_on_c, 0, 50, 60
2, 57969, Note_on_c, 0, 84, 0
2, 57969, Note_on_c, 0, 86, 0
2, 57969, Note_on_c, 0, 96, 0
2, 57969, Note_on_c, 0, 89, 0
2, 57971, Note_on_c, 0, 50, 0
2, 57971, Note_on_c, 0, 62, 0
2, 58032, Control_c, 0, 64, 0
2, 58035, Note_on_c, 0, 86, 60
2, 58035, Note_on_c, 0, 89, 60
2, 58035, Note_on_c, 0, 95, 60
2, 58035, Note_on_c, 0, 83, 60
2, 58038, Note_on_c, 0, 65, 60
2, 58038, Note_on_c, 0, 59, 60
2, 58040, Note_on_c, 0, 55, 60
2, 58053, Note_on_c, 0, 83, 0
2, 58053, Note_on_c, 0, 95, 0
2, 58053, Note_on_c, 0, 86, 0
2, 58053, Note_on_c, 0, 89, 0
2, 58089, Note_on_c, 0, 95, 60
2, 58089, Note_on_c, 0, 89, 60
2, 58091, Note_on_c, 0, 86, 60
2, 58091, Note_on_c, 0, 83, 60
2, 58096, Note_on_c, 0, 59, 0
2, 58096, Note_on_c, 0, 65, 0
2, 58098, Note_on_c, 0, 55, 0
2, 58147, Note_on_c, 0, 89, 0
2, 58147, Note_on_c, 0, 55, 60
2, 58147, Note_on_c, 0, 43, 60
2, 58150, Note_on_c, 0, 86, 0
2, 58150, Note_on_c, 0, 83, 0
2, 58173, Note_on_c, 0, 95, 0
2, 58199, Note_on_c, 0, 86, 60
2, 58199, Note_on_c, 0, 89, 60
2, 58199, Note_on_c, 0, 94, 60
2, 58199, Note_on_c, 0, 82, 60
2, 58202, Note_on_c, 0, 43, 0
2, 58202, Note_on_c, 0, 55, 0
2, 58213, Note_on_c, 0, 89, 0
2, 58213, Note_on_c, 0, 86, 0
2, 58241, Note_on_c, 0, 82, 0
2, 58241, Note_on_c, 0, 94, 0
2, 58249, Note_on_c, 0, 89, 60
2, 58249, Note_on_c, 0, 95, 60
2, 58249, Note_on_c, 0, 83, 60
2, 58252, Note_on_c, 0, 65, 60
2, 58252, Note_on_c, 0, 86, 60
2, 58252, Note_on_c, 0, 59, 60
2, 58254, Note_on_c, 0, 55, 60
2, 58305, Note_on_c, 0, 89, 0
2, 58308, Note_on_c, 0, 59, 0
2, 58308, Note_on_c, 0, 86, 0
2, 58308, Note_on_c, 0, 55, 0
2, 58320, Note_on_c, 0, 65, 0
2, 58333, Note_on_c, 0, 83, 0
2, 58333, Note_on_c, 0, 95, 0
2, 58357, Note_on_c, 0, 86, 60
2, 58357, Note_on_c, 0, 89, 60
2, 58357, Note_on_c, 0, 77, 60
2, 58359, Note_on_c, 0, 59, 60
2, 58359, Note_on_c, 0, 47, 60
2, 58361, Control_c, 0, 64, 127
2, 58399, Note_on_c, 0, 46, 60
2, 58402, Note_on_c, 0, 47, 0
2, 58402, Note_on_c, 0, 59, 0
2, 58413, Note_on_c, 0, 58, 60
2, 58458, Control_c, 0, 64, 0
2, 58466, Note_on_c, 0, 57, 60
2, 58468, Note_on_c, 0, 58, 0
2, 58468, Note_on_c, 0, 45, 60
2, 58470, Note_on_c, 0, 46, 0
2, 58519, Note_on_c, 0, 56, 60
2, 58519, Note_on_c, 0, 44, 60
2, 58521, Note_on_c, 0, 57, 0
2, 58521, Note_on_c, 0, 45, 0
2, 58575, Note_on_c, 0, 77, 0
2, 58575, Note_on_c, 0, 89, 0
2, 58575, Note_on_c, 0, 55, 60
2, 58575, Note_on_c, 0, 43, 60
2, 58577, Note_on_c, 0, 56, 0
2, 58577, Note_on_c, 0, 44, 0
2, 58588, Note_on_c, 0, 86, 0
2, 58622, Note_on_c, 0, 86, 60
2, 58625, Note_on_c, 0, 74, 60
2, 58629, Note_on_c, 0, 55, 0
2, 58631, Note_on_c, 0, 43, 0
2, 58674, Note_on_c, 0, 89, 60
2, 58676, Note_on_c, 0, 77, 60
2, 58678, Note_on_c, 0, 59, 60
2, 58678, Note_on_c, 0, 65, 60
2, 58678, Note_on_c, 0, 55, 60
2, 58680, Note_on_c, 0, 74, 0
2, 58691, Note_on_c, 0, 86, 0
2, 58723, Note_on_c, 0, 95, 60
2, 58723, Note_on_c, 0, 83, 60
2, 58728, Note_on_c, 0, 89, 0
2, 58729, Note_on_c, 0, 55, 0
2, 58729, Note_on_c, 0, 77, 0
2, 58729, Note_on_c, 0, 59, 0
2, 58740, Note_on_c, 0, 95, 0
2, 58742, Note_on_c, 0, 65, 0
2, 58778, Note_on_c, 0, 95, 60
2, 58778, Note_on_c, 0, 88, 60
2, 58780, Note_on_c, 0, 83, 0
2, 58780, Note_on_c, 0, 84, 60
2, 58782, Note_on_c, 0, 60, 60
2, 58785, Note_on_c, 0, 48, 60
2, 58822, Note_on_c, 0, 95, 0
2, 58824, Note_on_c, 0, 88, 0
2, 58824, Note_on_c, 0, 84, 0
2, 58825, Note_on_c, 0, 60, 0
2, 58836, Control_c, 0, 64, 127
2, 58851, Note_on_c, 0, 48, 0
2, 58869, Control_c, 0, 64, 0
2, 58886, Note_on_c, 0, 84, 60
2, 58888, Note_on_c, 0, 88, 60
2, 58888, Note_on_c, 0, 93, 60
2, 58888, Note_on_c, 0, 81, 60
2, 58890, Note_on_c, 0, 64, 60
2, 58890, Note_on_c, 0, 60, 60
2, 58892, Note_on_c, 0, 55, 60
2, 58902, Note_on_c, 0, 93, 0
2, 58905, Note_on_c, 0, 81, 0
2, 58905, Note_on_c, 0, 84, 0
2, 58905, Note_on_c, 0, 88, 0
2, 58941, Note_on_c, 0, 93, 60
2, 58941, Note_on_c, 0, 88, 60
2, 58944, Note_on_c, 0, 84, 60
2, 58944, Note_on_c, 0, 81, 60
2, 58947, Note_on_c, 0, 55, 0
2, 58947, Note_on_c, 0, 60, 0
2, 58947, Note_on_c, 0, 64, 0
2, 58999, Note_on_c, 0, 55, 60
2, 59001, Note_on_c, 0, 43, 60
2, 59014, Note_on_c, 0, 88, 0
2, 59014, Note_on_c, 0, 84, 0
2, 59027, Note_on_c, 0, 81, 0
2, 59027, Note_on_c, 0, 93, 0
2, 59048, Note_on_c, 0, 88, 60
2, 59048, Note_on_c, 0, 92, 60
2, 59048, Note_on_c, 0, 84, 60
2, 59050, Note_on_c, 0, 80, 60
2, 59055, Note_on_c, 0, 43, 0
2, 59055, Note_on_c, 0, 55, 0
2, 59064, Note_on_c, 0, 84, 0
2, 59064, Note_on_c, 0, 88, 0
2, 59093, Note_on_c, 0, 80, 0
2, 59099, Note_on_c, 0, 84, 60
2, 59099, Note_on_c, 0, 88, 60
2, 59099, Note_on_c, 0, 93, 60
2, 59099, Note_on_c, 0, 81, 60
2, 59102, Note_on_c, 0, 60, 60
2, 59102, Note_on_c, 0, 64, 60
2, 59102, Note_on_c, 0, 55, 60
2, 59104, Note_on_c, 0, 92, 0
2, 59142, Note_on_c, 0, 81, 0
2, 59142, Note_on_c, 0, 60, 0
2, 59142, Note_on_c, 0, 88, 0
2, 59142, Note_on_c, 0, 93, 0
2, 59142, Note_on_c, 0, 84, 0
2, 59142, Note_on_c, 0, 64, 0
2, 59144, Note_on_c, 0, 55, 0
2, 59196, Control_c, 0, 64, 127
2, 59207, Note_on_c, 0, 84, 60
2, 59207, Note_on_c, 0, 88, 60
2, 59207, Note_on_c, 0, 76, 60
2, 59208, Note_on_c, 0, 60, 60
2, 59208, Note_on_c, 0, 48, 60
2, 59260, Note_on_c, 0, 59, 60
2, 59262, Note_on_c, 0, 48, 0
2, 59262, Note_on_c, 0, 60, 0
2, 59262, Note_on_c, 0, 47, 60
2, 59292, Control_c, 0, 64, 0
2, 59313, Note_on_c, 0, 57, 60
2, 59313, Note_on_c, 0, 45, 60
2, 59316, Note_on_c, 0, 47, 0
2, 59316, Note_on_c, 0, 59, 0
2, 59365, Note_on_c, 0, 56, 60
2, 59365, Note_on_c, 0, 44, 60
2, 59367, Note_on_c, 0, 57, 0
2, 59367, Note_on_c, 0, 45, 0
2, 59414, Note_on_c, 0, 55, 60
2, 59416, Note_on_c, 0, 56, 0
2, 59416, Note_on_c, 0, 43, 60
2, 59419, Note_on_c, 0, 44, 0
2, 59442, Note_on_c, 0, 84, 0
2, 59466, Note_on_c, 0, 67, 60
2, 59468, Note_on_c, 0, 76, 0
2, 59468, Note_on_c, 0, 88, 0
2, 59468, Note_on_c, 0, 79, 60
2, 59520, Note_on_c, 0, 84, 60
2, 59521, Note_on_c, 0, 72, 60
2, 59523, Note_on_c, 0, 79, 0
2, 59523, Note_on_c, 0, 67, 0
2, 59525, Note_on_c, 0, 43, 0
2, 59536, Note_on_c, 0, 55, 0
2, 59574, Note_on_c, 0, 88, 60
2, 59574, Note_on_c, 0, 76, 60
2, 59577, Note_on_c, 0, 84, 0
2, 59579, Note_on_c, 0, 72, 0
2, 59628, Note_on_c, 0, 83, 60
2, 59628, Note_on_c, 0, 86, 60
2, 59628, Note_on_c, 0, 74, 60
2, 59630, Note_on_c, 0, 67, 60
2, 59630, Note_on_c, 0, 55, 60
2, 59633, Note_on_c, 0, 88, 0
2, 59633, Note_on_c, 0, 76, 0
2, 59633, Control_c, 0, 64, 127
2, 59671, Note_on_c, 0, 67, 0
2, 59684, Note_on_c, 0, 55, 0
2, 59684, Note_on_c, 0, 66, 60
2, 59684, Note_on_c, 0, 54, 60
2, 59737, Note_on_c, 0, 54, 0
2, 59737, Note_on_c, 0, 66, 0
2, 59737, Note_on_c, 0, 65, 60
2, 59737, Note_on_c, 0, 53, 60
2, 59769, Control_c, 0, 64, 0
2, 59788, Note_on_c, 0, 64, 60
2, 59791, Note_on_c, 0, 53, 0
2, 59791, Note_on_c, 0, 83, 0
2, 59791, Note_on_c, 0, 52, 60
2, 59806, Note_on_c, 0, 65, 0
2, 59830, Note_on_c, 0, 74, 0
2, 59840, Note_on_c, 0, 83, 60
2, 59840, Note_on_c, 0, 91, 60
2, 59840, Note_on_c, 0, 79, 60
2, 59842, Note_on_c, 0, 62, 60
2, 59842, Note_on_c, 0, 50, 60
2, 59857, Note_on_c, 0, 86, 0
2, 59857, Note_on_c, 0, 64, 0
2, 59859, Note_on_c, 0, 52, 0
2, 59894, Note_on_c, 0, 60, 60
2, 59894, Note_on_c, 0, 48, 60
2, 59898, Note_on_c, 0, 50, 0
2, 59900, Note_on_c, 0, 62, 0
2, 59952, Note_on_c, 0, 59, 60
2, 59952, Note_on_c, 0, 47, 60
2, 59953, Note_on_c, 0, 60, 0
2, 59953, Note_on_c, 0, 48, 0
2, 59992, Note_on_c, 0, 59, 0
2, 59992, Note_on_c, 0, 47, 0
2, 60002, Note_on_c, 0, 57, 60
2, 60002, Note_on_c, 0, 45, 60
2, 60058, Note_on_c, 0, 91, 0
2, 60058, Note_on_c, 0, 55, 60
2, 60058, Note_on_c, 0, 43, 60
2, 60061, Note_on_c, 0, 57, 0
2, 60061, Note_on_c, 0, 45, 0
2, 60072, Control_c, 0, 64, 127
2, 60086, Note_on_c, 0, 83, 0
2, 60110, Note_on_c, 0, 86, 60
2, 60110, Note_on_c, 0, 74, 60
2, 60114, Note_on_c, 0, 79, 0
2, 60114, Note_on_c, 0, 55, 0
2, 60114, Note_on_c, 0, 43, 0
2, 60129, Control_c, 0, 64, 0
2, 60161, Note_on_c, 0, 95, 60
2, 60164, Note_on_c, 0, 83, 60
2, 60164, Note_on_c, 0, 56, 60
2, 60166, Note_on_c, 0, 74, 0
2, 60166, Note_on_c, 0, 44, 60
2, 60178, Note_on_c, 0, 86, 0
2, 60216, Note_on_c, 0, 86, 60
2, 60216, Note_on_c, 0, 74, 60
2, 60219, Note_on_c, 0, 56, 0
2, 60219, Note_on_c, 0, 83, 0
2, 60219, Note_on_c, 0, 95, 0
2, 60221, Note_on_c, 0, 44, 0
2, 60260, Note_on_c, 0, 74, 0
2, 60268, Note_on_c, 0, 89, 60
2, 60270, Note_on_c, 0, 57, 60
2, 60270, Note_on_c, 0, 77, 60
2, 60270, Note_on_c, 0, 45, 60
2, 60286, Note_on_c, 0, 86, 0
2, 60313, Note_on_c, 0, 45, 0
2, 60313, Note_on_c, 0, 57, 0
2, 60322, Note_on_c, 0, 93, 60
2, 60322, Note_on_c, 0, 81, 60
2, 60324, Note_on_c, 0, 89, 0
2, 60326, Note_on_c, 0, 77, 0
2, 60375, Note_on_c, 0, 91, 60
2, 60375, Note_on_c, 0, 79, 60
2, 60378, Note_on_c, 0, 93, 0
2, 60378, Note_on_c, 0, 59, 60
2, 60378, Note_on_c, 0, 47, 60
2, 60380, Note_on_c, 0, 81, 0
2, 60418, Note_on_c, 0, 59, 0
2, 60418, Note_on_c, 0, 47, 0
2, 60429, Note_on_c, 0, 89, 60
2, 60429, Note_on_c, 0, 77, 60
2, 60431, Note_on_c, 0, 91, 0
2, 60431, Note_on_c, 0, 79, 0
2, 60469, Control_c, 0, 64, 127
2, 60476, Note_on_c, 0, 88, 60
2, 60478, Note_on_c, 0, 76, 60
2, 60480, Note_on_c, 0, 60, 60
2, 60480, Note_on_c, 0, 48, 60
2, 60482, Note_on_c, 0, 89, 0
2, 60482, Note_on_c, 0, 77, 0
2, 60529, Note_on_c, 0, 87, 60
2, 60529, Note_on_c, 0, 75, 60
2, 60531, Note_on_c, 0, 88, 0
2, 60533, Note_on_c, 0, 48, 0
2, 60533, Note_on_c, 0, 76, 0
2, 60533, Note_on_c, 0, 60, 0
2, 60572, Note_on_c, 0, 75, 0
2, 60572, Note_on_c, 0, 87, 0
2, 60578, Note_on_c, 0, 88, 60
2, 60580, Note_on_c, 0, 76, 60
2, 60583, Note_on_c, 0, 60, 60
2, 60583, Note_on_c, 0, 64, 60
2, 60583, Note_on_c, 0, 55, 60
2, 60600, Control_c, 0, 64, 0
2, 60636, Note_on_c, 0, 82, 60
2, 60636, Note_on_c, 0, 91, 60
2, 60636, Note_on_c, 0, 79, 60
2, 60639, Note_on_c, 0, 55, 0
2, 60639, Note_on_c, 0, 64, 0
2, 60639, Note_on_c, 0, 88, 0
2, 60639, Note_on_c, 0, 60, 0
2, 60639, Note_on_c, 0, 76, 0
2, 60692, Note_on_c, 0, 52, 60
2, 60692, Note_on_c, 0, 40, 60
2, 60733, Note_on_c, 0, 79, 0
2, 60733, Note_on_c, 0, 91, 0
2, 60745, Note_on_c, 0, 76, 60
2, 60747, Note_on_c, 0, 40, 0
2, 60758, Note_on_c, 0, 88, 60
2, 60761, Note_on_c, 0, 52, 0
2, 60797, Note_on_c, 0, 64, 60
2, 60797, Note_on_c, 0, 79, 60
2, 60797, Note_on_c, 0, 91, 60
2, 60797, Note_on_c, 0, 60, 60
2, 60799, Note_on_c, 0, 76, 0
2, 60799, Note_on_c, 0, 88, 0
2, 60799, Note_on_c, 0, 58, 60
2, 60850, Note_on_c, 0, 58, 0
2, 60850, Note_on_c, 0, 60, 0
2, 60850, Note_on_c, 0, 64, 0
2, 60850, Note_on_c, 0, 82, 0
2, 60853, Note_on_c, 0, 91, 0
2, 60855, Note_on_c, 0, 79, 0
2, 60902, Note_on_c, 0, 41, 60
2, 60902, Note_on_c, 0, 53, 60
2, 60902, Note_on_c, 0, 77, 60
2, 60902, Note_on_c, 0, 81, 60
2, 60902, Note_on_c, 0, 89, 60
2, 60902, Control_c, 0, 64, 127
2, 61000, Control_c, 0, 64, 0
2, 61011, Note_on_c, 0, 60, 60
2, 61011, Note_on_c, 0, 65, 60
2, 61011, Note_on_c, 0, 57, 60
2, 61050, Note_on_c, 0, 57, 0
2, 61064, Note_on_c, 0, 65, 0
2, 61064, Note_on_c, 0, 60, 0
2, 61103, Note_on_c, 0, 53, 0
2, 61116, Note_on_c, 0, 48, 60
2, 61116, Note_on_c, 0, 36, 60
2, 61118, Note_on_c, 0, 41, 0
2, 61130, Note_on_c, 0, 81, 0
2, 61167, Note_on_c, 0, 81, 60
2, 61170, Note_on_c, 0, 89, 0
2, 61170, Note_on_c, 0, 77, 0
2, 61182, Note_on_c, 0, 69, 60
2, 61184, Note_on_c, 0, 36, 0
2, 61184, Note_on_c, 0, 48, 0
2, 61219, Note_on_c, 0, 57, 60
2, 61221, Note_on_c, 0, 65, 60
2, 61221, Note_on_c, 0, 72, 60
2, 61221, Note_on_c, 0, 84, 60
2, 61221, Note_on_c, 0, 60, 60
2, 61223, Note_on_c, 0, 81, 0
2, 61223, Note_on_c, 0, 69, 0
2, 61264, Note_on_c, 0, 57, 0
2, 61264, Note_on_c, 0, 60, 0
2, 61272, Note_on_c, 0, 89, 60
2, 61274, Note_on_c, 0, 77, 60
2, 61276, Note_on_c, 0, 65, 0
2, 61276, Note_on_c, 0, 84, 0
2, 61276, Note_on_c, 0, 72, 0
2, 61289, Note_on_c, 0, 89, 0
2, 61323, Note_on_c, 0, 93, 60
2, 61323, Note_on_c, 0, 84, 60
2, 61325, Note_on_c, 0, 89, 60
2, 61325, Note_on_c, 0, 81, 60
2, 61328, Note_on_c, 0, 53, 60
2, 61328, Note_on_c, 0, 41, 60
2, 61330, Note_on_c, 0, 77, 0
2, 61341, Control_c, 0, 64, 127
2, 61381, Note_on_c, 0, 53, 0
2, 61381, Note_on_c, 0, 84, 0
2, 61381, Note_on_c, 0, 89, 0
2, 61381, Note_on_c, 0, 93, 0
2, 61381, Note_on_c, 0, 41, 0
2, 61381, Note_on_c, 0, 81, 0
2, 61433, Note_on_c, 0, 84, 60
2, 61433, Note_on_c, 0, 89, 60
2, 61433, Note_on_c, 0, 93, 60
2, 61433, Note_on_c, 0, 81, 60
2, 61435, Note_on_c, 0, 60, 60
2, 61435, Note_on_c, 0, 65, 60
2, 61435, Note_on_c, 0, 57, 60
2, 61440, Control_c, 0, 64, 0
2, 61475, Note_on_c, 0, 57, 0
2, 61475, Note_on_c, 0, 89, 0
2, 61475, Note_on_c, 0, 81, 0
2, 61475, Note_on_c, 0, 93, 0
2, 61475, Note_on_c, 0, 84, 0
2, 61475, Note_on_c, 0, 60, 0
2, 61488, Note_on_c, 0, 65, 0
2, 61537, Note_on_c, 0, 84, 60
2, 61537, Note_on_c, 0, 89, 60
2, 61537, Note_on_c, 0, 93, 60
2, 61537, Note_on_c, 0, 81, 60
2, 61539, Note_on_c, 0, 53, 60
2, 61539, Note_on_c, 0, 41, 60
2, 61583, Note_on_c, 0, 41, 0
2, 61583, Note_on_c, 0, 81, 0
2, 61583, Note_on_c, 0, 89, 0
2, 61583, Note_on_c, 0, 84, 0
2, 61583, Note_on_c, 0, 53, 0
2, 61595, Note_on_c, 0, 93, 0
2, 61645, Note_on_c, 0, 87, 60
2, 61645, Note_on_c, 0, 92, 60
2, 61645, Note_on_c, 0, 84, 60
2, 61647, Note_on_c, 0, 54, 60
2, 61647, Note_on_c, 0, 80, 60
2, 61647, Note_on_c, 0, 42, 60
2, 61698, Note_on_c, 0, 92, 0
2, 61698, Note_on_c, 0, 87, 0
2, 61701, Note_on_c, 0, 80, 0
2, 61701, Note_on_c, 0, 54, 0
2, 61701, Note_on_c, 0, 42, 0
2, 61701, Note_on_c, 0, 84, 0
2, 61736, Note_on_c, 0, 43, 60
2, 61736, Note_on_c, 0, 55, 60
2, 61736, Control_c, 0, 64, 127
2, 61748, Note_on_c, 0, 91, 60
2, 61748, Note_on_c, 0, 88, 60
2, 61750, Note_on_c, 0, 84, 60
2, 61750, Note_on_c, 0, 79, 60
2, 61792, Note_on_c, 0, 55, 0
2, 61792, Note_on_c, 0, 43, 0
2, 61831, Control_c, 0, 64, 0
2, 61854, Note_on_c, 0, 60, 60
2, 61854, Note_on_c, 0, 64, 60
2, 61854, Note_on_c, 0, 55, 60
2, 61856, Note_on_c, 0, 84, 0
2, 61856, Note_on_c, 0, 91, 0
2, 61856, Note_on_c, 0, 88, 0
2, 61856, Note_on_c, 0, 79, 0
2, 61906, Note_on_c, 0, 76, 60
2, 61910, Note_on_c, 0, 60, 0
2, 61920, Note_on_c, 0, 88, 60
2, 61922, Note_on_c, 0, 55, 0
2, 61922, Note_on_c, 0, 64, 0
2, 61957, Note_on_c, 0, 84, 60
2, 61957, Note_on_c, 0, 72, 60
2, 61959, Note_on_c, 0, 88, 0
2, 61959, Note_on_c, 0, 57, 60
2, 61959, Note_on_c, 0, 45, 60
2, 61962, Note_on_c, 0, 76, 0
2, 62000, Note_on_c, 0, 57, 0
2, 62009, Note_on_c, 0, 86, 60
2, 62011, Note_on_c, 0, 74, 60
2, 62013, Note_on_c, 0, 72, 0
2, 62013, Note_on_c, 0, 45, 0
2, 62013, Note_on_c, 0, 84, 0
2, 62062, Note_on_c, 0, 88, 60
2, 62064, Note_on_c, 0, 60, 60
2, 62064, Note_on_c, 0, 64, 60
2, 62064, Note_on_c, 0, 76, 60
2, 62064, Note_on_c, 0, 57, 60
2, 62066, Note_on_c, 0, 74, 0
2, 62079, Note_on_c, 0, 86, 0
2, 62117, Note_on_c, 0, 88, 0
2, 62120, Note_on_c, 0, 64, 0
2, 62120, Note_on_c, 0, 60, 0
2, 62120, Note_on_c, 0, 76, 0
2, 62120, Note_on_c, 0, 57, 0
2, 62169, Note_on_c, 0, 78, 60
2, 62169, Note_on_c, 0, 84, 60
2, 62169, Note_on_c, 0, 72, 60
2, 62171, Note_on_c, 0, 50, 60
2, 62171, Note_on_c, 0, 62, 60
2, 62171, Control_c, 0, 64, 127
2, 62225, Note_on_c, 0, 62, 0
2, 62225, Note_on_c, 0, 50, 0
2, 62265, Control_c, 0, 64, 0
2, 62274, Note_on_c, 0, 57, 60
2, 62274, Note_on_c, 0, 45, 60
2, 62317, Note_on_c, 0, 45, 0
2, 62317, Note_on_c, 0, 57, 0
2, 62381, Note_on_c, 0, 74, 60
2, 62381, Note_on_c, 0, 77, 60
2, 62381, Note_on_c, 0, 83, 60
2, 62381, Note_on_c, 0, 86, 60
2, 62381, Note_on_c, 0, 55, 60
2, 62383, Note_on_c, 0, 72, 0
2, 62383, Note_on_c, 0, 84, 0
2, 62383, Note_on_c, 0, 43, 60
2, 62385, Note_on_c, 0, 78, 0
2, 62396, Note_on_c, 0, 74, 0
2, 62396, Note_on_c, 0, 83, 0
2, 62400, Note_on_c, 0, 77, 0
2, 62400, Note_on_c, 0, 86, 0
2, 62439, Note_on_c, 0, 77, 60
2, 62439, Note_on_c, 0, 83, 60
2, 62439, Note_on_c, 0, 86, 60
2, 62439, Note_on_c, 0, 74, 60
2, 62509, Note_on_c, 0, 74, 0
2, 62509, Note_on_c, 0, 83, 0
2, 62509, Note_on_c, 0, 77, 0
2, 62509, Note_on_c, 0, 86, 0
2, 62544, Note_on_c, 0, 84, 60
2, 62544, Note_on_c, 0, 76, 60
2, 62547, Note_on_c, 0, 43, 0
2, 62547, Note_on_c, 0, 72, 60
2, 62547, Note_on_c, 0, 79, 60
2, 62563, Note_on_c, 0, 55, 0
2, 62584, Control_c, 0, 64, 127
2, 62601, Note_on_c, 0, 60, 60
2, 62601, Note_on_c, 0, 48, 60
2, 62655, Note_on_c, 0, 48, 0
2, 62655, Note_on_c, 0, 60, 0
2, 62670, Control_c, 0, 64, 0
2, 62704, Note_on_c, 0, 55, 60
2, 62704, Note_on_c, 0, 43, 60
2, 62709, Note_on_c, 0, 79, 0
2, 62709, Note_on_c, 0, 72, 0
2, 62709, Note_on_c, 0, 76, 0
2, 62709, Note_on_c, 0, 84, 0
2, 62760, Note_on_c, 0, 43, 0
2, 62761, Note_on_c, 0, 55, 0
2, 62808, Note_on_c, 0, 84, 60
2, 62811, Note_on_c, 0, 48, 60
2, 62811, Note_on_c, 0, 88, 60
2, 62811, Note_on_c, 0, 91, 60
2, 62811, Note_on_c, 0, 96, 60
2, 62811, Note_on_c, 0, 36, 60
2, 62862, Note_on_c, 0, 36, 0
2, 62862, Note_on_c, 0, 48, 0
2, 62862, Note_on_c, 0, 88, 0
2, 62862, Note_on_c, 0, 84, 0
2, 62862, Note_on_c, 0, 96, 0
2, 62862, Note_on_c, 0, 91, 0
2, 62862, End_track
3, 0, Start_track
3, 0, Title_t, ""
3, 0, End_track
4, 0, Start_track
4, 0, Title_t, ""
4, 0, End_track
5, 0, Start_track
5, 0, Title_t, ""
5, 0, End_track
6, 0, Start_track
6, 0, Title_t, "Scan of a player piano roll"
6, 0, End_track
7, 0, Start_track
7, 0, Title_t, "by Terry Smythe, Winnipeg, Canada"
7, 0, End_track
8, 0, Start_track
8, 1, Copyright_t, "___________________________________________________\012\012KUNSTDERFUGE.COM LARGE CLASSICAL MIDI COLLECTION\012ONCLASSICAL BY ALESSANDRO SIMONETTO, PROPRIETOR\012___________________________________________________\012\012! Attention: this file is under copyright !\012\012(c)onclassical, (nc)smythe, 2010\012___________________________________________________\012\012NO ONE MAY REPUBLISH THIS FILE WITHOUT PERMISSION\012COMMERCIAL USES OF THIS FILE IS STRICTLY PROHIBITED\012___________________________________________________\012\012Files & contributor's list: http://kunstderfuge.com/\012Terms and conditions: http://kunstderfuge.com/notes.htm"
8, 1, End_track
0, 0, End_of_file
