0, 0, Header, 1, 8, 192
1, 0, Start_track
1, 0, Title_t, "WEEPS"
1, 0, Copyright_t, "May NOT be used for commercial purposes."
1, 0, Text_t, "Roll expression/accent tracks, where present, converted to MIDI velocties.\012"
1, 0, Time_signature, 4, 2, 24, 8
1, 0, Key_signature, 0, "major"
1, 0, Tempo, 500000
1, 0, Marker_t, "Standard MIDI:LPI 128:Tempo  65: 05-11-2004"
1, 0, End_track
2, 0, Start_track
2, 0, Title_t, "Weeping Willow Rag (1911)"
2, 215, Control_c, 0, 64, 127
2, 226, Note_on_c, 0, 74, 80
2, 231, Note_on_c, 0, 62, 80
2, 282, Note_on_c, 0, 62, 0
2, 282, Note_on_c, 0, 73, 80
2, 287, Note_on_c, 0, 61, 80
2, 293, Note_on_c, 0, 74, 0
2, 330, Control_c, 0, 64, 0
2, 330, Note_on_c, 0, 62, 80
2, 332, Note_on_c, 0, 74, 80
2, 336, Note_on_c, 0, 61, 0
2, 341, Note_on_c, 0, 73, 0
2, 385, Note_on_c, 0, 64, 80
2, 385, Note_on_c, 0, 76, 80
2, 387, Note_on_c, 0, 74, 0
2, 389, Note_on_c, 0, 62, 0
2, 435, Note_on_c, 0, 66, 80
2, 435, Note_on_c, 0, 78, 80
2, 437, Note_on_c, 0, 64, 0
2, 449, Note_on_c, 0, 76, 0
2, 541, Note_on_c, 0, 79, 80
2, 546, Note_on_c, 0, 67, 80
2, 552, Note_on_c, 0, 78, 0
2, 554, Note_on_c, 0, 66, 0
2, 647, Control_c, 0, 64, 127
2, 651, Note_on_c, 0, 62, 80
2, 653, Note_on_c, 0, 74, 80
2, 660, Note_on_c, 0, 79, 0
2, 660, Note_on_c, 0, 67, 0
2, 704, Note_on_c, 0, 62, 0
2, 720, Note_on_c, 0, 74, 0
2, 732, Control_c, 0, 64, 0
2, 755, Note_on_c, 0, 74, 80
2, 765, Note_on_c, 0, 62, 80
2, 891, Note_on_c, 0, 62, 0
2, 901, Note_on_c, 0, 74, 0
2, 922, Note_on_c, 0, 64, 80
2, 922, Note_on_c, 0, 76, 80
2, 973, Note_on_c, 0, 64, 0
2, 973, Note_on_c, 0, 60, 80
2, 973, Note_on_c, 0, 72, 80
2, 978, Note_on_c, 0, 76, 0
2, 1017, Note_on_c, 0, 60, 0
2, 1022, Note_on_c, 0, 57, 80
2, 1027, Note_on_c, 0, 69, 80
2, 1032, Note_on_c, 0, 72, 0
2, 1059, Control_c, 0, 64, 127
2, 1061, Note_on_c, 0, 55, 80
2, 1073, Note_on_c, 0, 57, 0
2, 1075, Note_on_c, 0, 67, 80
2, 1077, Note_on_c, 0, 69, 0
2, 1109, Note_on_c, 0, 54, 80
2, 1114, Note_on_c, 0, 66, 80
2, 1119, Note_on_c, 0, 55, 0
2, 1121, Note_on_c, 0, 67, 0
2, 1139, Control_c, 0, 64, 0
2, 1160, Note_on_c, 0, 55, 80
2, 1167, Note_on_c, 0, 54, 0
2, 1174, Note_on_c, 0, 67, 80
2, 1176, Note_on_c, 0, 66, 0
2, 1220, Note_on_c, 0, 57, 80
2, 1224, Note_on_c, 0, 67, 0
2, 1224, Note_on_c, 0, 69, 80
2, 1226, Note_on_c, 0, 55, 0
2, 1274, Note_on_c, 0, 59, 80
2, 1279, Note_on_c, 0, 69, 0
2, 1279, Note_on_c, 0, 57, 0
2, 1279, Note_on_c, 0, 71, 80
2, 1390, Note_on_c, 0, 59, 0
2, 1390, Note_on_c, 0, 60, 80
2, 1390, Note_on_c, 0, 72, 80
2, 1401, Note_on_c, 0, 71, 0
2, 1487, Control_c, 0, 64, 127
2, 1498, Note_on_c, 0, 60, 0
2, 1498, Note_on_c, 0, 62, 80
2, 1500, Note_on_c, 0, 50, 80
2, 1510, Note_on_c, 0, 72, 0
2, 1551, Note_on_c, 0, 62, 0
2, 1558, Note_on_c, 0, 50, 0
2, 1583, Control_c, 0, 64, 0
2, 1599, Note_on_c, 0, 50, 80
2, 1608, Note_on_c, 0, 62, 80
2, 1747, Note_on_c, 0, 62, 0
2, 1763, Note_on_c, 0, 55, 80
2, 1768, Note_on_c, 0, 50, 0
2, 1773, Note_on_c, 0, 67, 80
2, 1819, Note_on_c, 0, 55, 0
2, 1819, Note_on_c, 0, 57, 80
2, 1824, Note_on_c, 0, 67, 0
2, 1824, Note_on_c, 0, 69, 80
2, 1870, Note_on_c, 0, 59, 80
2, 1874, Note_on_c, 0, 71, 80
2, 1876, Note_on_c, 0, 57, 0
2, 1881, Note_on_c, 0, 69, 0
2, 1918, Note_on_c, 0, 43, 80
2, 1920, Control_c, 0, 64, 127
2, 1921, Note_on_c, 0, 74, 80
2, 1926, Note_on_c, 0, 59, 0
2, 1926, Note_on_c, 0, 62, 80
2, 1931, Note_on_c, 0, 67, 80
2, 2012, Control_c, 0, 64, 0
2, 2028, Note_on_c, 0, 50, 80
2, 2033, Note_on_c, 0, 55, 80
2, 2040, Note_on_c, 0, 59, 80
2, 2058, Note_on_c, 0, 43, 0
2, 2092, Note_on_c, 0, 59, 0
2, 2092, Note_on_c, 0, 50, 0
2, 2097, Note_on_c, 0, 55, 0
2, 2099, Note_on_c, 0, 62, 0
2, 2099, Note_on_c, 0, 67, 0
2, 2101, Note_on_c, 0, 71, 0
2, 2103, Note_on_c, 0, 74, 0
2, 2144, Note_on_c, 0, 38, 80
2, 2146, Note_on_c, 0, 71, 80
2, 2146, Note_on_c, 0, 79, 80
2, 2151, Note_on_c, 0, 67, 80
2, 2246, Note_on_c, 0, 55, 80
2, 2246, Note_on_c, 0, 59, 80
2, 2253, Note_on_c, 0, 50, 80
2, 2304, Note_on_c, 0, 50, 0
2, 2313, Note_on_c, 0, 55, 0
2, 2313, Note_on_c, 0, 59, 0
2, 2315, Note_on_c, 0, 79, 0
2, 2315, Note_on_c, 0, 67, 0
2, 2317, Note_on_c, 0, 71, 0
2, 2333, Note_on_c, 0, 38, 0
2, 2340, Note_on_c, 0, 43, 80
2, 2345, Control_c, 0, 64, 127
2, 2352, Note_on_c, 0, 59, 80
2, 2356, Note_on_c, 0, 71, 80
2, 2361, Note_on_c, 0, 67, 80
2, 2402, Note_on_c, 0, 43, 0
2, 2412, Note_on_c, 0, 70, 80
2, 2414, Note_on_c, 0, 59, 0
2, 2416, Note_on_c, 0, 71, 0
2, 2416, Note_on_c, 0, 58, 80
2, 2418, Note_on_c, 0, 67, 0
2, 2436, Control_c, 0, 64, 0
2, 2457, Note_on_c, 0, 50, 80
2, 2457, Note_on_c, 0, 55, 80
2, 2462, Note_on_c, 0, 59, 80
2, 2462, Note_on_c, 0, 71, 80
2, 2467, Note_on_c, 0, 58, 0
2, 2467, Note_on_c, 0, 70, 0
2, 2469, Note_on_c, 0, 67, 80
2, 2508, Note_on_c, 0, 74, 80
2, 2513, Note_on_c, 0, 62, 80
2, 2515, Note_on_c, 0, 59, 0
2, 2515, Note_on_c, 0, 55, 0
2, 2517, Note_on_c, 0, 50, 0
2, 2517, Note_on_c, 0, 65, 80
2, 2556, Note_on_c, 0, 47, 80
2, 2569, Note_on_c, 0, 62, 0
2, 2594, Note_on_c, 0, 74, 0
2, 2616, Note_on_c, 0, 47, 0
2, 2617, Note_on_c, 0, 62, 80
2, 2619, Note_on_c, 0, 74, 80
2, 2670, Note_on_c, 0, 55, 80
2, 2672, Note_on_c, 0, 50, 80
2, 2672, Note_on_c, 0, 59, 80
2, 2707, Note_on_c, 0, 62, 0
2, 2707, Note_on_c, 0, 71, 0
2, 2707, Note_on_c, 0, 67, 0
2, 2709, Note_on_c, 0, 74, 0
2, 2711, Note_on_c, 0, 65, 0
2, 2727, Note_on_c, 0, 64, 80
2, 2732, Note_on_c, 0, 76, 80
2, 2734, Note_on_c, 0, 59, 0
2, 2734, Note_on_c, 0, 55, 0
2, 2736, Note_on_c, 0, 50, 0
2, 2760, Note_on_c, 0, 64, 0
2, 2779, Control_c, 0, 64, 127
2, 2784, Note_on_c, 0, 48, 80
2, 2785, Note_on_c, 0, 64, 80
2, 2787, Note_on_c, 0, 74, 80
2, 2789, Note_on_c, 0, 62, 80
2, 2791, Note_on_c, 0, 67, 80
2, 2796, Note_on_c, 0, 76, 0
2, 2840, Note_on_c, 0, 60, 80
2, 2840, Note_on_c, 0, 72, 80
2, 2842, Note_on_c, 0, 62, 0
2, 2842, Note_on_c, 0, 74, 0
2, 2865, Control_c, 0, 64, 0
2, 2886, Note_on_c, 0, 55, 80
2, 2893, Note_on_c, 0, 52, 80
2, 2937, Note_on_c, 0, 48, 0
2, 2944, Note_on_c, 0, 52, 0
2, 2949, Note_on_c, 0, 72, 0
2, 2951, Note_on_c, 0, 60, 0
2, 2980, Note_on_c, 0, 48, 80
2, 3022, Note_on_c, 0, 55, 0
2, 3024, Note_on_c, 0, 64, 0
2, 3024, Note_on_c, 0, 67, 0
2, 3040, Note_on_c, 0, 57, 80
2, 3042, Note_on_c, 0, 69, 80
2, 3047, Note_on_c, 0, 63, 80
2, 3081, Note_on_c, 0, 51, 80
2, 3083, Note_on_c, 0, 55, 80
2, 3090, Note_on_c, 0, 60, 80
2, 3115, Note_on_c, 0, 57, 0
2, 3120, Note_on_c, 0, 69, 0
2, 3138, Note_on_c, 0, 60, 0
2, 3138, Note_on_c, 0, 67, 80
2, 3140, Note_on_c, 0, 51, 0
2, 3168, Control_c, 0, 64, 127
2, 3168, Note_on_c, 0, 43, 80
2, 3169, Note_on_c, 0, 63, 0
2, 3181, Note_on_c, 0, 48, 0
2, 3181, Note_on_c, 0, 59, 80
2, 3181, Note_on_c, 0, 71, 80
2, 3191, Note_on_c, 0, 67, 0
2, 3191, Note_on_c, 0, 55, 0
2, 3225, Note_on_c, 0, 55, 80
2, 3227, Note_on_c, 0, 43, 0
2, 3237, Note_on_c, 0, 59, 0
2, 3241, Note_on_c, 0, 67, 80
2, 3243, Note_on_c, 0, 71, 0
2, 3253, Control_c, 0, 64, 0
2, 3276, Note_on_c, 0, 59, 80
2, 3281, Note_on_c, 0, 52, 80
2, 3281, Note_on_c, 0, 64, 80
2, 3286, Note_on_c, 0, 50, 80
2, 3292, Note_on_c, 0, 67, 0
2, 3311, Note_on_c, 0, 50, 0
2, 3334, Note_on_c, 0, 62, 80
2, 3336, Note_on_c, 0, 52, 0
2, 3336, Note_on_c, 0, 64, 0
2, 3336, Note_on_c, 0, 55, 0
2, 3336, Note_on_c, 0, 59, 0
2, 3340, Note_on_c, 0, 50, 80
2, 3359, Note_on_c, 0, 50, 0
2, 3382, Note_on_c, 0, 55, 80
2, 3382, Note_on_c, 0, 59, 80
2, 3388, Note_on_c, 0, 50, 80
2, 3413, Note_on_c, 0, 62, 0
2, 3443, Note_on_c, 0, 67, 80
2, 3491, Note_on_c, 0, 57, 80
2, 3493, Note_on_c, 0, 55, 0
2, 3495, Note_on_c, 0, 67, 0
2, 3495, Note_on_c, 0, 50, 0
2, 3497, Note_on_c, 0, 69, 80
2, 3499, Note_on_c, 0, 59, 0
2, 3535, Note_on_c, 0, 59, 80
2, 3540, Note_on_c, 0, 71, 80
2, 3547, Note_on_c, 0, 69, 0
2, 3547, Note_on_c, 0, 57, 0
2, 3570, Note_on_c, 0, 71, 0
2, 3583, Note_on_c, 0, 43, 80
2, 3588, Control_c, 0, 64, 127
2, 3588, Note_on_c, 0, 74, 80
2, 3590, Note_on_c, 0, 62, 80
2, 3592, Note_on_c, 0, 67, 80
2, 3592, Note_on_c, 0, 71, 80
2, 3594, Note_on_c, 0, 59, 0
2, 3658, Control_c, 0, 64, 0
2, 3674, Note_on_c, 0, 55, 80
2, 3674, Note_on_c, 0, 59, 80
2, 3684, Note_on_c, 0, 50, 80
2, 3732, Note_on_c, 0, 55, 0
2, 3734, Note_on_c, 0, 59, 0
2, 3736, Note_on_c, 0, 50, 0
2, 3736, Note_on_c, 0, 62, 0
2, 3738, Note_on_c, 0, 67, 0
2, 3738, Note_on_c, 0, 74, 0
2, 3744, Note_on_c, 0, 71, 0
2, 3754, Note_on_c, 0, 43, 0
2, 3766, Note_on_c, 0, 40, 80
2, 3784, Note_on_c, 0, 67, 80
2, 3784, Note_on_c, 0, 71, 80
2, 3784, Note_on_c, 0, 79, 80
2, 3876, Note_on_c, 0, 52, 80
2, 3876, Note_on_c, 0, 55, 80
2, 3876, Note_on_c, 0, 59, 80
2, 3932, Note_on_c, 0, 59, 0
2, 3932, Note_on_c, 0, 52, 0
2, 3932, Note_on_c, 0, 67, 0
2, 3932, Note_on_c, 0, 55, 0
2, 3934, Note_on_c, 0, 79, 0
2, 3940, Note_on_c, 0, 71, 0
2, 3950, Note_on_c, 0, 40, 0
2, 3966, Note_on_c, 0, 33, 80
2, 3968, Control_c, 0, 64, 127
2, 3973, Note_on_c, 0, 74, 80
2, 3975, Note_on_c, 0, 66, 80
2, 3977, Note_on_c, 0, 78, 80
2, 4028, Note_on_c, 0, 65, 80
2, 4034, Note_on_c, 0, 78, 0
2, 4034, Note_on_c, 0, 66, 0
2, 4034, Note_on_c, 0, 74, 0
2, 4036, Note_on_c, 0, 77, 80
2, 4057, Control_c, 0, 64, 0
2, 4080, Note_on_c, 0, 54, 80
2, 4080, Note_on_c, 0, 66, 80
2, 4080, Note_on_c, 0, 74, 80
2, 4082, Note_on_c, 0, 62, 80
2, 4084, Note_on_c, 0, 57, 80
2, 4084, Note_on_c, 0, 78, 80
2, 4094, Note_on_c, 0, 77, 0
2, 4094, Note_on_c, 0, 65, 0
2, 4133, Note_on_c, 0, 57, 0
2, 4135, Note_on_c, 0, 62, 0
2, 4140, Note_on_c, 0, 69, 80
2, 4140, Note_on_c, 0, 81, 80
2, 4142, Note_on_c, 0, 54, 0
2, 4144, Note_on_c, 0, 66, 0
2, 4160, Note_on_c, 0, 33, 0
2, 4181, Note_on_c, 0, 30, 80
2, 4195, Note_on_c, 0, 74, 0
2, 4224, Note_on_c, 0, 69, 0
2, 4224, Note_on_c, 0, 81, 0
2, 4224, Note_on_c, 0, 78, 0
2, 4236, Note_on_c, 0, 74, 80
2, 4238, Note_on_c, 0, 62, 80
2, 4289, Note_on_c, 0, 54, 80
2, 4291, Note_on_c, 0, 57, 80
2, 4291, Note_on_c, 0, 66, 80
2, 4293, Note_on_c, 0, 74, 0
2, 4295, Note_on_c, 0, 78, 80
2, 4341, Note_on_c, 0, 62, 0
2, 4345, Note_on_c, 0, 57, 0
2, 4345, Note_on_c, 0, 69, 80
2, 4347, Note_on_c, 0, 54, 0
2, 4349, Note_on_c, 0, 66, 0
2, 4349, Note_on_c, 0, 78, 0
2, 4349, Note_on_c, 0, 81, 80
2, 4359, Note_on_c, 0, 30, 0
2, 4370, Note_on_c, 0, 28, 80
2, 4380, Control_c, 0, 64, 127
2, 4382, Note_on_c, 0, 73, 80
2, 4387, Note_on_c, 0, 71, 80
2, 4396, Note_on_c, 0, 69, 0
2, 4396, Note_on_c, 0, 83, 80
2, 4398, Note_on_c, 0, 81, 0
2, 4438, Note_on_c, 0, 79, 80
2, 4442, Note_on_c, 0, 67, 80
2, 4444, Note_on_c, 0, 83, 0
2, 4446, Note_on_c, 0, 71, 0
2, 4463, Control_c, 0, 64, 0
2, 4484, Note_on_c, 0, 55, 80
2, 4484, Note_on_c, 0, 61, 80
2, 4484, Note_on_c, 0, 76, 80
2, 4486, Note_on_c, 0, 57, 80
2, 4486, Note_on_c, 0, 64, 80
2, 4492, Note_on_c, 0, 79, 0
2, 4492, Note_on_c, 0, 73, 0
2, 4492, Note_on_c, 0, 67, 0
2, 4522, Note_on_c, 0, 28, 0
2, 4529, Note_on_c, 0, 73, 80
2, 4534, Note_on_c, 0, 57, 0
2, 4538, Note_on_c, 0, 55, 0
2, 4538, Note_on_c, 0, 64, 0
2, 4545, Note_on_c, 0, 76, 0
2, 4580, Note_on_c, 0, 33, 80
2, 4582, Note_on_c, 0, 45, 80
2, 4616, Note_on_c, 0, 61, 0
2, 4618, Note_on_c, 0, 73, 0
2, 4632, Note_on_c, 0, 57, 80
2, 4641, Note_on_c, 0, 69, 80
2, 4689, Note_on_c, 0, 55, 80
2, 4689, Note_on_c, 0, 59, 80
2, 4689, Note_on_c, 0, 61, 80
2, 4689, Note_on_c, 0, 71, 80
2, 4694, Note_on_c, 0, 67, 80
2, 4696, Note_on_c, 0, 69, 0
2, 4714, Note_on_c, 0, 33, 0
2, 4714, Note_on_c, 0, 45, 0
2, 4739, Note_on_c, 0, 73, 80
2, 4744, Note_on_c, 0, 59, 0
2, 4749, Note_on_c, 0, 55, 0
2, 4751, Note_on_c, 0, 67, 0
2, 4751, Note_on_c, 0, 71, 0
2, 4751, Note_on_c, 0, 57, 0
2, 4790, Note_on_c, 0, 66, 80
2, 4792, Control_c, 0, 64, 127
2, 4794, Note_on_c, 0, 50, 80
2, 4794, Note_on_c, 0, 62, 80
2, 4796, Note_on_c, 0, 74, 80
2, 4798, Note_on_c, 0, 57, 80
2, 4800, Note_on_c, 0, 73, 0
2, 4800, Note_on_c, 0, 61, 0
2, 4844, Note_on_c, 0, 48, 80
2, 4846, Note_on_c, 0, 50, 0
2, 4846, Note_on_c, 0, 60, 80
2, 4857, Note_on_c, 0, 57, 0
2, 4871, Control_c, 0, 64, 0
2, 4892, Note_on_c, 0, 57, 80
2, 4896, Note_on_c, 0, 45, 80
2, 4898, Note_on_c, 0, 48, 0
2, 4903, Note_on_c, 0, 60, 0
2, 4943, Note_on_c, 0, 40, 80
2, 4952, Note_on_c, 0, 57, 0
2, 4952, Note_on_c, 0, 45, 0
2, 4954, Note_on_c, 0, 52, 80
2, 4995, Note_on_c, 0, 38, 80
2, 4997, Note_on_c, 0, 50, 80
2, 5004, Note_on_c, 0, 52, 0
2, 5004, Note_on_c, 0, 40, 0
2, 5045, Note_on_c, 0, 74, 0
2, 5059, Note_on_c, 0, 66, 0
2, 5080, Note_on_c, 0, 62, 0
2, 5101, Note_on_c, 0, 55, 80
2, 5103, Note_on_c, 0, 67, 80
2, 5151, Note_on_c, 0, 59, 80
2, 5151, Note_on_c, 0, 71, 80
2, 5156, Note_on_c, 0, 67, 0
2, 5158, Note_on_c, 0, 55, 0
2, 5174, Note_on_c, 0, 50, 0
2, 5176, Note_on_c, 0, 38, 0
2, 5189, Control_c, 0, 64, 127
2, 5191, Note_on_c, 0, 43, 80
2, 5191, Note_on_c, 0, 74, 80
2, 5196, Note_on_c, 0, 62, 80
2, 5196, Note_on_c, 0, 67, 80
2, 5203, Note_on_c, 0, 59, 0
2, 5300, Control_c, 0, 64, 0
2, 5300, Note_on_c, 0, 50, 80
2, 5300, Note_on_c, 0, 55, 80
2, 5300, Note_on_c, 0, 59, 80
2, 5348, Note_on_c, 0, 50, 0
2, 5350, Note_on_c, 0, 43, 0
2, 5352, Note_on_c, 0, 59, 0
2, 5353, Note_on_c, 0, 67, 0
2, 5355, Note_on_c, 0, 55, 0
2, 5355, Note_on_c, 0, 62, 0
2, 5357, Note_on_c, 0, 74, 0
2, 5359, Note_on_c, 0, 71, 0
2, 5396, Note_on_c, 0, 79, 80
2, 5402, Note_on_c, 0, 38, 80
2, 5409, Note_on_c, 0, 67, 80
2, 5409, Note_on_c, 0, 71, 80
2, 5501, Note_on_c, 0, 55, 80
2, 5506, Note_on_c, 0, 59, 80
2, 5511, Note_on_c, 0, 50, 80
2, 5559, Note_on_c, 0, 50, 0
2, 5564, Note_on_c, 0, 55, 0
2, 5564, Note_on_c, 0, 79, 0
2, 5564, Note_on_c, 0, 67, 0
2, 5564, Note_on_c, 0, 59, 0
2, 5568, Note_on_c, 0, 71, 0
2, 5587, Note_on_c, 0, 38, 0
2, 5600, Note_on_c, 0, 43, 80
2, 5602, Control_c, 0, 64, 127
2, 5604, Note_on_c, 0, 59, 80
2, 5609, Note_on_c, 0, 71, 80
2, 5614, Note_on_c, 0, 67, 80
2, 5658, Note_on_c, 0, 43, 0
2, 5658, Note_on_c, 0, 70, 80
2, 5660, Note_on_c, 0, 58, 80
2, 5662, Note_on_c, 0, 59, 0
2, 5664, Note_on_c, 0, 67, 0
2, 5665, Note_on_c, 0, 71, 0
2, 5687, Control_c, 0, 64, 0
2, 5703, Note_on_c, 0, 50, 80
2, 5703, Note_on_c, 0, 55, 80
2, 5708, Note_on_c, 0, 59, 80
2, 5708, Note_on_c, 0, 71, 80
2, 5710, Note_on_c, 0, 58, 0
2, 5712, Note_on_c, 0, 70, 0
2, 5712, Note_on_c, 0, 67, 80
2, 5748, Note_on_c, 0, 74, 80
2, 5753, Note_on_c, 0, 50, 0
2, 5753, Note_on_c, 0, 65, 80
2, 5758, Note_on_c, 0, 59, 0
2, 5758, Note_on_c, 0, 62, 80
2, 5762, Note_on_c, 0, 55, 0
2, 5804, Note_on_c, 0, 47, 80
2, 5808, Note_on_c, 0, 62, 0
2, 5810, Note_on_c, 0, 67, 0
2, 5810, Note_on_c, 0, 74, 0
2, 5817, Note_on_c, 0, 71, 0
2, 5817, Note_on_c, 0, 65, 0
2, 5847, Note_on_c, 0, 74, 80
2, 5849, Note_on_c, 0, 62, 80
2, 5849, Note_on_c, 0, 65, 80
2, 5851, Note_on_c, 0, 67, 80
2, 5851, Note_on_c, 0, 71, 80
2, 5856, Note_on_c, 0, 47, 0
2, 5906, Note_on_c, 0, 50, 80
2, 5906, Note_on_c, 0, 55, 80
2, 5906, Note_on_c, 0, 59, 80
2, 5934, Note_on_c, 0, 62, 0
2, 5936, Note_on_c, 0, 65, 0
2, 5936, Note_on_c, 0, 74, 0
2, 5941, Note_on_c, 0, 67, 0
2, 5941, Note_on_c, 0, 71, 0
2, 5952, Note_on_c, 0, 50, 0
2, 5954, Note_on_c, 0, 64, 80
2, 5956, Note_on_c, 0, 59, 0
2, 5958, Note_on_c, 0, 76, 80
2, 5960, Note_on_c, 0, 55, 0
2, 6004, Note_on_c, 0, 48, 80
2, 6006, Control_c, 0, 64, 127
2, 6008, Note_on_c, 0, 74, 80
2, 6010, Note_on_c, 0, 62, 80
2, 6022, Note_on_c, 0, 76, 0
2, 6022, Note_on_c, 0, 67, 80
2, 6066, Note_on_c, 0, 48, 0
2, 6071, Note_on_c, 0, 60, 80
2, 6071, Note_on_c, 0, 72, 80
2, 6072, Note_on_c, 0, 62, 0
2, 6074, Note_on_c, 0, 74, 0
2, 6096, Control_c, 0, 64, 0
2, 6105, Note_on_c, 0, 60, 0
2, 6121, Note_on_c, 0, 55, 80
2, 6126, Note_on_c, 0, 64, 0
2, 6126, Note_on_c, 0, 52, 80
2, 6131, Note_on_c, 0, 60, 80
2, 6138, Note_on_c, 0, 67, 0
2, 6154, Note_on_c, 0, 55, 0
2, 6164, Note_on_c, 0, 72, 0
2, 6177, Note_on_c, 0, 55, 80
2, 6177, Note_on_c, 0, 64, 80
2, 6182, Note_on_c, 0, 60, 0
2, 6187, Note_on_c, 0, 67, 80
2, 6189, Note_on_c, 0, 52, 0
2, 6237, Note_on_c, 0, 48, 80
2, 6264, Note_on_c, 0, 64, 0
2, 6274, Note_on_c, 0, 67, 0
2, 6274, Note_on_c, 0, 55, 0
2, 6292, Note_on_c, 0, 48, 0
2, 6294, Note_on_c, 0, 57, 80
2, 6294, Note_on_c, 0, 69, 80
2, 6296, Note_on_c, 0, 63, 80
2, 6344, Note_on_c, 0, 51, 80
2, 6344, Note_on_c, 0, 55, 80
2, 6346, Note_on_c, 0, 60, 80
2, 6369, Note_on_c, 0, 57, 0
2, 6379, Note_on_c, 0, 63, 0
2, 6381, Note_on_c, 0, 69, 0
2, 6392, Note_on_c, 0, 51, 0
2, 6397, Note_on_c, 0, 67, 80
2, 6399, Note_on_c, 0, 60, 0
2, 6438, Control_c, 0, 64, 127
2, 6440, Note_on_c, 0, 43, 80
2, 6440, Note_on_c, 0, 59, 80
2, 6445, Note_on_c, 0, 62, 80
2, 6445, Note_on_c, 0, 71, 80
2, 6450, Note_on_c, 0, 55, 0
2, 6455, Note_on_c, 0, 67, 0
2, 6491, Note_on_c, 0, 43, 0
2, 6493, Note_on_c, 0, 55, 80
2, 6498, Note_on_c, 0, 59, 0
2, 6498, Note_on_c, 0, 62, 0
2, 6498, Note_on_c, 0, 67, 80
2, 6503, Note_on_c, 0, 71, 0
2, 6514, Control_c, 0, 64, 0
2, 6542, Note_on_c, 0, 64, 80
2, 6547, Note_on_c, 0, 52, 80
2, 6547, Note_on_c, 0, 59, 80
2, 6552, Note_on_c, 0, 67, 0
2, 6596, Note_on_c, 0, 50, 80
2, 6598, Note_on_c, 0, 59, 0
2, 6598, Note_on_c, 0, 62, 80
2, 6602, Note_on_c, 0, 52, 0
2, 6602, Note_on_c, 0, 55, 0
2, 6602, Note_on_c, 0, 64, 0
2, 6624, Note_on_c, 0, 50, 0
2, 6645, Note_on_c, 0, 55, 80
2, 6647, Note_on_c, 0, 50, 80
2, 6647, Note_on_c, 0, 59, 80
2, 6676, Note_on_c, 0, 62, 0
2, 6699, Note_on_c, 0, 50, 0
2, 6704, Note_on_c, 0, 71, 80
2, 6709, Note_on_c, 0, 55, 0
2, 6762, Note_on_c, 0, 70, 80
2, 6764, Note_on_c, 0, 71, 0
2, 6764, Note_on_c, 0, 58, 80
2, 6768, Note_on_c, 0, 59, 0
2, 6810, Note_on_c, 0, 59, 80
2, 6812, Note_on_c, 0, 58, 0
2, 6814, Note_on_c, 0, 71, 80
2, 6818, Note_on_c, 0, 70, 0
2, 6860, Control_c, 0, 64, 127
2, 6866, Note_on_c, 0, 42, 80
2, 6866, Note_on_c, 0, 54, 80
2, 6866, Note_on_c, 0, 63, 80
2, 6871, Note_on_c, 0, 59, 0
2, 6871, Note_on_c, 0, 75, 80
2, 6945, Control_c, 0, 64, 0
2, 6973, Note_on_c, 0, 59, 80
2, 6975, Note_on_c, 0, 57, 80
2, 7026, Note_on_c, 0, 59, 0
2, 7028, Note_on_c, 0, 54, 0
2, 7028, Note_on_c, 0, 42, 0
2, 7030, Note_on_c, 0, 57, 0
2, 7032, Note_on_c, 0, 75, 0
2, 7033, Note_on_c, 0, 63, 0
2, 7033, Note_on_c, 0, 71, 0
2, 7070, Note_on_c, 0, 35, 80
2, 7075, Note_on_c, 0, 66, 80
2, 7075, Note_on_c, 0, 71, 80
2, 7080, Note_on_c, 0, 47, 80
2, 7084, Note_on_c, 0, 75, 80
2, 7084, Note_on_c, 0, 78, 80
2, 7176, Note_on_c, 0, 59, 80
2, 7181, Note_on_c, 0, 57, 80
2, 7211, Note_on_c, 0, 75, 0
2, 7216, Note_on_c, 0, 71, 0
2, 7216, Note_on_c, 0, 78, 0
2, 7225, Note_on_c, 0, 35, 0
2, 7227, Note_on_c, 0, 47, 0
2, 7232, Note_on_c, 0, 59, 0
2, 7232, Note_on_c, 0, 81, 80
2, 7237, Note_on_c, 0, 69, 80
2, 7242, Note_on_c, 0, 66, 0
2, 7244, Note_on_c, 0, 57, 0
2, 7269, Note_on_c, 0, 81, 0
2, 7271, Note_on_c, 0, 40, 80
2, 7272, Control_c, 0, 64, 127
2, 7279, Note_on_c, 0, 71, 80
2, 7286, Note_on_c, 0, 52, 80
2, 7291, Note_on_c, 0, 76, 80
2, 7291, Note_on_c, 0, 81, 80
2, 7337, Note_on_c, 0, 67, 80
2, 7337, Note_on_c, 0, 79, 80
2, 7339, Note_on_c, 0, 69, 0
2, 7348, Note_on_c, 0, 81, 0
2, 7362, Control_c, 0, 64, 0
2, 7387, Note_on_c, 0, 55, 80
2, 7387, Note_on_c, 0, 59, 80
2, 7387, Note_on_c, 0, 66, 80
2, 7396, Note_on_c, 0, 78, 80
2, 7398, Note_on_c, 0, 79, 0
2, 7398, Note_on_c, 0, 67, 0
2, 7426, Note_on_c, 0, 76, 0
2, 7426, Note_on_c, 0, 71, 0
2, 7438, Note_on_c, 0, 40, 0
2, 7444, Note_on_c, 0, 79, 80
2, 7446, Note_on_c, 0, 59, 0
2, 7446, Note_on_c, 0, 78, 0
2, 7446, Note_on_c, 0, 67, 80
2, 7451, Note_on_c, 0, 70, 80
2, 7453, Note_on_c, 0, 66, 0
2, 7453, Note_on_c, 0, 52, 0
2, 7453, Note_on_c, 0, 55, 0
2, 7488, Note_on_c, 0, 37, 80
2, 7506, Note_on_c, 0, 67, 0
2, 7506, Note_on_c, 0, 49, 80
2, 7538, Note_on_c, 0, 79, 0
2, 7561, Note_on_c, 0, 79, 80
2, 7563, Note_on_c, 0, 49, 0
2, 7565, Note_on_c, 0, 37, 0
2, 7565, Note_on_c, 0, 67, 80
2, 7609, Note_on_c, 0, 55, 80
2, 7609, Note_on_c, 0, 66, 80
2, 7619, Note_on_c, 0, 52, 80
2, 7619, Note_on_c, 0, 78, 80
2, 7624, Note_on_c, 0, 79, 0
2, 7624, Note_on_c, 0, 58, 80
2, 7626, Note_on_c, 0, 67, 0
2, 7674, Note_on_c, 0, 64, 80
2, 7676, Note_on_c, 0, 58, 0
2, 7676, Note_on_c, 0, 76, 80
2, 7678, Note_on_c, 0, 55, 0
2, 7678, Note_on_c, 0, 52, 0
2, 7682, Note_on_c, 0, 66, 0
2, 7682, Note_on_c, 0, 78, 0
2, 7712, Note_on_c, 0, 70, 0
2, 7722, Control_c, 0, 64, 127
2, 7727, Note_on_c, 0, 38, 80
2, 7728, Note_on_c, 0, 50, 80
2, 7733, Note_on_c, 0, 71, 80
2, 7779, Note_on_c, 0, 62, 80
2, 7779, Note_on_c, 0, 74, 80
2, 7781, Note_on_c, 0, 38, 0
2, 7783, Note_on_c, 0, 50, 0
2, 7785, Note_on_c, 0, 64, 0
2, 7790, Note_on_c, 0, 71, 0
2, 7790, Note_on_c, 0, 76, 0
2, 7806, Control_c, 0, 64, 0
2, 7823, Note_on_c, 0, 55, 80
2, 7823, Note_on_c, 0, 61, 80
2, 7824, Note_on_c, 0, 59, 80
2, 7826, Note_on_c, 0, 73, 80
2, 7833, Note_on_c, 0, 62, 0
2, 7835, Note_on_c, 0, 74, 0
2, 7874, Note_on_c, 0, 74, 80
2, 7881, Note_on_c, 0, 62, 80
2, 7883, Note_on_c, 0, 59, 0
2, 7888, Note_on_c, 0, 61, 0
2, 7888, Note_on_c, 0, 55, 0
2, 7890, Note_on_c, 0, 73, 0
2, 7922, Note_on_c, 0, 38, 80
2, 7929, Note_on_c, 0, 50, 80
2, 7959, Note_on_c, 0, 62, 0
2, 7961, Note_on_c, 0, 74, 0
2, 7979, Note_on_c, 0, 72, 80
2, 7981, Note_on_c, 0, 60, 80
2, 7983, Note_on_c, 0, 50, 0
2, 7985, Note_on_c, 0, 38, 0
2, 8010, Note_on_c, 0, 60, 0
2, 8023, Note_on_c, 0, 54, 80
2, 8030, Note_on_c, 0, 57, 80
2, 8030, Note_on_c, 0, 69, 80
2, 8035, Note_on_c, 0, 60, 80
2, 8037, Note_on_c, 0, 72, 0
2, 8081, Note_on_c, 0, 66, 80
2, 8083, Note_on_c, 0, 57, 0
2, 8088, Note_on_c, 0, 60, 0
2, 8089, Note_on_c, 0, 69, 0
2, 8134, Control_c, 0, 64, 127
2, 8134, Note_on_c, 0, 55, 80
2, 8134, Note_on_c, 0, 59, 80
2, 8140, Note_on_c, 0, 67, 80
2, 8145, Note_on_c, 0, 54, 0
2, 8147, Note_on_c, 0, 66, 0
2, 8191, Note_on_c, 0, 52, 80
2, 8196, Note_on_c, 0, 64, 80
2, 8219, Control_c, 0, 64, 0
2, 8247, Note_on_c, 0, 50, 80
2, 8249, Note_on_c, 0, 64, 0
2, 8249, Note_on_c, 0, 62, 80
2, 8254, Note_on_c, 0, 52, 0
2, 8298, Note_on_c, 0, 51, 80
2, 8303, Note_on_c, 0, 50, 0
2, 8304, Note_on_c, 0, 63, 80
2, 8306, Note_on_c, 0, 62, 0
2, 8354, Note_on_c, 0, 51, 0
2, 8354, Note_on_c, 0, 52, 80
2, 8354, Note_on_c, 0, 64, 80
2, 8361, Note_on_c, 0, 63, 0
2, 8405, Note_on_c, 0, 51, 80
2, 8405, Note_on_c, 0, 79, 80
2, 8407, Note_on_c, 0, 63, 80
2, 8412, Note_on_c, 0, 59, 0
2, 8412, Note_on_c, 0, 52, 0
2, 8412, Note_on_c, 0, 55, 0
2, 8412, Note_on_c, 0, 64, 0
2, 8463, Note_on_c, 0, 50, 80
2, 8463, Note_on_c, 0, 62, 80
2, 8465, Note_on_c, 0, 79, 0
2, 8465, Note_on_c, 0, 51, 0
2, 8467, Note_on_c, 0, 63, 0
2, 8467, Note_on_c, 0, 69, 80
2, 8467, Note_on_c, 0, 81, 80
2, 8469, Note_on_c, 0, 67, 0
2, 8505, Note_on_c, 0, 59, 80
2, 8505, Note_on_c, 0, 71, 80
2, 8510, Note_on_c, 0, 47, 80
2, 8512, Note_on_c, 0, 50, 0
2, 8512, Note_on_c, 0, 62, 0
2, 8514, Note_on_c, 0, 83, 80
2, 8516, Note_on_c, 0, 81, 0
2, 8516, Note_on_c, 0, 69, 0
2, 8541, Note_on_c, 0, 83, 0
2, 8552, Note_on_c, 0, 55, 80
2, 8554, Control_c, 0, 64, 127
2, 8554, Note_on_c, 0, 43, 80
2, 8554, Note_on_c, 0, 79, 80
2, 8556, Note_on_c, 0, 74, 80
2, 8558, Note_on_c, 0, 47, 0
2, 8560, Note_on_c, 0, 59, 0
2, 8565, Note_on_c, 0, 83, 80
2, 8565, Note_on_c, 0, 86, 80
2, 8567, Note_on_c, 0, 71, 0
2, 8613, Note_on_c, 0, 55, 0
2, 8629, Control_c, 0, 64, 0
2, 8657, Note_on_c, 0, 55, 80
2, 8657, Note_on_c, 0, 59, 80
2, 8662, Note_on_c, 0, 50, 80
2, 8710, Note_on_c, 0, 59, 0
2, 8710, Note_on_c, 0, 55, 0
2, 8710, Note_on_c, 0, 74, 0
2, 8712, Note_on_c, 0, 50, 0
2, 8712, Note_on_c, 0, 79, 0
2, 8723, Note_on_c, 0, 83, 0
2, 8723, Note_on_c, 0, 86, 0
2, 8725, Note_on_c, 0, 43, 0
2, 8758, Note_on_c, 0, 38, 80
2, 8760, Note_on_c, 0, 79, 80
2, 8760, Note_on_c, 0, 83, 80
2, 8760, Note_on_c, 0, 91, 80
2, 8866, Note_on_c, 0, 55, 80
2, 8866, Note_on_c, 0, 59, 80
2, 8871, Note_on_c, 0, 50, 80
2, 8917, Note_on_c, 0, 50, 0
2, 8922, Note_on_c, 0, 91, 0
2, 8922, Note_on_c, 0, 59, 0
2, 8927, Note_on_c, 0, 55, 0
2, 8936, Note_on_c, 0, 83, 0
2, 8952, Note_on_c, 0, 38, 0
2, 8959, Note_on_c, 0, 43, 80
2, 8966, Control_c, 0, 64, 127
2, 8973, Note_on_c, 0, 71, 80
2, 8973, Note_on_c, 0, 83, 80
2, 9014, Note_on_c, 0, 43, 0
2, 9024, Note_on_c, 0, 70, 80
2, 9030, Note_on_c, 0, 79, 0
2, 9030, Note_on_c, 0, 71, 0
2, 9035, Note_on_c, 0, 83, 0
2, 9037, Note_on_c, 0, 82, 80
2, 9050, Control_c, 0, 64, 0
2, 9067, Note_on_c, 0, 55, 80
2, 9069, Note_on_c, 0, 50, 80
2, 9069, Note_on_c, 0, 59, 80
2, 9069, Note_on_c, 0, 79, 80
2, 9073, Note_on_c, 0, 71, 80
2, 9073, Note_on_c, 0, 83, 80
2, 9078, Note_on_c, 0, 70, 0
2, 9088, Note_on_c, 0, 82, 0
2, 9106, Note_on_c, 0, 83, 0
2, 9113, Note_on_c, 0, 74, 80
2, 9122, Note_on_c, 0, 50, 0
2, 9124, Note_on_c, 0, 59, 0
2, 9124, Note_on_c, 0, 77, 80
2, 9126, Note_on_c, 0, 55, 0
2, 9126, Note_on_c, 0, 86, 80
2, 9128, Note_on_c, 0, 83, 80
2, 9133, Note_on_c, 0, 71, 0
2, 9163, Note_on_c, 0, 47, 80
2, 9176, Note_on_c, 0, 74, 0
2, 9216, Note_on_c, 0, 47, 0
2, 9216, Note_on_c, 0, 74, 80
2, 9262, Note_on_c, 0, 55, 80
2, 9266, Note_on_c, 0, 50, 80
2, 9266, Note_on_c, 0, 59, 80
2, 9268, Note_on_c, 0, 74, 0
2, 9293, Note_on_c, 0, 79, 0
2, 9303, Note_on_c, 0, 83, 0
2, 9308, Note_on_c, 0, 77, 0
2, 9308, Note_on_c, 0, 86, 0
2, 9310, Note_on_c, 0, 88, 80
2, 9312, Note_on_c, 0, 76, 80
2, 9313, Note_on_c, 0, 50, 0
2, 9315, Note_on_c, 0, 59, 0
2, 9317, Note_on_c, 0, 55, 0
2, 9354, Note_on_c, 0, 48, 80
2, 9356, Note_on_c, 0, 74, 80
2, 9356, Note_on_c, 0, 79, 80
2, 9358, Note_on_c, 0, 88, 0
2, 9358, Control_c, 0, 64, 127
2, 9360, Note_on_c, 0, 86, 80
2, 9406, Note_on_c, 0, 72, 80
2, 9412, Note_on_c, 0, 74, 0
2, 9414, Note_on_c, 0, 86, 0
2, 9419, Note_on_c, 0, 84, 80
2, 9440, Control_c, 0, 64, 0
2, 9454, Note_on_c, 0, 55, 80
2, 9460, Note_on_c, 0, 79, 0
2, 9462, Note_on_c, 0, 52, 80
2, 9462, Note_on_c, 0, 60, 80
2, 9469, Note_on_c, 0, 76, 0
2, 9490, Note_on_c, 0, 72, 0
2, 9500, Note_on_c, 0, 84, 0
2, 9509, Note_on_c, 0, 76, 80
2, 9511, Note_on_c, 0, 48, 0
2, 9513, Note_on_c, 0, 67, 80
2, 9513, Note_on_c, 0, 79, 80
2, 9518, Note_on_c, 0, 55, 0
2, 9518, Note_on_c, 0, 52, 0
2, 9518, Note_on_c, 0, 60, 0
2, 9559, Note_on_c, 0, 48, 80
2, 9587, Note_on_c, 0, 79, 0
2, 9599, Note_on_c, 0, 76, 0
2, 9599, Note_on_c, 0, 67, 0
2, 9617, Note_on_c, 0, 69, 80
2, 9617, Note_on_c, 0, 75, 80
2, 9622, Note_on_c, 0, 81, 80
2, 9661, Note_on_c, 0, 55, 80
2, 9668, Note_on_c, 0, 51, 80
2, 9670, Note_on_c, 0, 60, 80
2, 9716, Note_on_c, 0, 79, 80
2, 9718, Note_on_c, 0, 51, 0
2, 9722, Note_on_c, 0, 48, 0
2, 9722, Note_on_c, 0, 55, 0
2, 9724, Note_on_c, 0, 60, 0
2, 9724, Note_on_c, 0, 67, 80
2, 9726, Note_on_c, 0, 81, 0
2, 9726, Note_on_c, 0, 69, 0
2, 9754, Note_on_c, 0, 75, 0
2, 9759, Note_on_c, 0, 43, 80
2, 9761, Control_c, 0, 64, 127
2, 9768, Note_on_c, 0, 74, 80
2, 9772, Note_on_c, 0, 71, 80
2, 9772, Note_on_c, 0, 83, 80
2, 9777, Note_on_c, 0, 79, 0
2, 9779, Note_on_c, 0, 67, 0
2, 9809, Note_on_c, 0, 79, 80
2, 9818, Note_on_c, 0, 67, 80
2, 9825, Note_on_c, 0, 74, 0
2, 9827, Note_on_c, 0, 71, 0
2, 9827, Note_on_c, 0, 83, 0
2, 9843, Control_c, 0, 64, 0
2, 9860, Note_on_c, 0, 55, 80
2, 9864, Note_on_c, 0, 50, 80
2, 9864, Note_on_c, 0, 59, 80
2, 9866, Note_on_c, 0, 64, 80
2, 9868, Note_on_c, 0, 76, 80
2, 9870, Note_on_c, 0, 79, 0
2, 9875, Note_on_c, 0, 67, 0
2, 9914, Note_on_c, 0, 64, 0
2, 9914, Note_on_c, 0, 74, 80
2, 9916, Note_on_c, 0, 62, 80
2, 9918, Note_on_c, 0, 50, 0
2, 9918, Note_on_c, 0, 59, 0
2, 9923, Note_on_c, 0, 55, 0
2, 9928, Note_on_c, 0, 76, 0
2, 9956, Note_on_c, 0, 55, 80
2, 9960, Note_on_c, 0, 50, 80
2, 9960, Note_on_c, 0, 59, 80
2, 9993, Note_on_c, 0, 74, 0
2, 9993, Note_on_c, 0, 62, 0
2, 10014, Note_on_c, 0, 67, 80
2, 10014, Note_on_c, 0, 79, 80
2, 10039, Note_on_c, 0, 43, 0
2, 10064, Note_on_c, 0, 50, 0
2, 10066, Note_on_c, 0, 59, 0
2, 10068, Note_on_c, 0, 55, 0
2, 10068, Note_on_c, 0, 67, 0
2, 10068, Note_on_c, 0, 79, 0
2, 10073, Note_on_c, 0, 69, 80
2, 10073, Note_on_c, 0, 81, 80
2, 10117, Note_on_c, 0, 71, 80
2, 10122, Note_on_c, 0, 83, 80
2, 10128, Note_on_c, 0, 69, 0
2, 10130, Note_on_c, 0, 81, 0
2, 10160, Control_c, 0, 64, 127
2, 10165, Note_on_c, 0, 43, 80
2, 10170, Note_on_c, 0, 74, 80
2, 10170, Note_on_c, 0, 79, 80
2, 10179, Note_on_c, 0, 86, 80
2, 10181, Note_on_c, 0, 71, 0
2, 10255, Control_c, 0, 64, 0
2, 10272, Note_on_c, 0, 55, 80
2, 10276, Note_on_c, 0, 59, 80
2, 10278, Note_on_c, 0, 50, 80
2, 10313, Note_on_c, 0, 74, 0
2, 10329, Note_on_c, 0, 50, 0
2, 10329, Note_on_c, 0, 55, 0
2, 10331, Note_on_c, 0, 79, 0
2, 10336, Note_on_c, 0, 59, 0
2, 10338, Note_on_c, 0, 83, 0
2, 10340, Note_on_c, 0, 86, 0
2, 10351, Note_on_c, 0, 43, 0
2, 10365, Note_on_c, 0, 40, 80
2, 10374, Note_on_c, 0, 79, 80
2, 10379, Note_on_c, 0, 91, 80
2, 10384, Note_on_c, 0, 83, 80
2, 10479, Note_on_c, 0, 59, 80
2, 10484, Note_on_c, 0, 52, 80
2, 10484, Note_on_c, 0, 55, 80
2, 10535, Note_on_c, 0, 59, 0
2, 10539, Note_on_c, 0, 52, 0
2, 10539, Note_on_c, 0, 83, 0
2, 10539, Note_on_c, 0, 79, 0
2, 10539, Note_on_c, 0, 55, 0
2, 10541, Note_on_c, 0, 91, 0
2, 10558, Note_on_c, 0, 40, 0
2, 10569, Control_c, 0, 64, 127
2, 10579, Note_on_c, 0, 45, 80
2, 10584, Note_on_c, 0, 78, 80
2, 10588, Note_on_c, 0, 86, 80
2, 10588, Note_on_c, 0, 90, 80
2, 10630, Note_on_c, 0, 45, 0
2, 10634, Note_on_c, 0, 77, 80
2, 10634, Note_on_c, 0, 89, 80
2, 10636, Note_on_c, 0, 90, 0
2, 10641, Note_on_c, 0, 78, 0
2, 10643, Note_on_c, 0, 86, 0
2, 10656, Control_c, 0, 64, 0
2, 10673, Note_on_c, 0, 54, 80
2, 10678, Note_on_c, 0, 78, 80
2, 10680, Note_on_c, 0, 89, 0
2, 10680, Note_on_c, 0, 62, 80
2, 10681, Note_on_c, 0, 57, 80
2, 10681, Note_on_c, 0, 86, 80
2, 10681, Note_on_c, 0, 90, 80
2, 10686, Note_on_c, 0, 77, 0
2, 10707, Note_on_c, 0, 90, 0
2, 10712, Note_on_c, 0, 78, 0
2, 10714, Note_on_c, 0, 86, 0
2, 10724, Note_on_c, 0, 93, 80
2, 10728, Note_on_c, 0, 81, 80
2, 10733, Note_on_c, 0, 62, 0
2, 10733, Note_on_c, 0, 90, 80
2, 10735, Note_on_c, 0, 54, 0
2, 10735, Note_on_c, 0, 57, 0
2, 10737, Note_on_c, 0, 86, 80
2, 10770, Note_on_c, 0, 42, 80
2, 10816, Note_on_c, 0, 90, 0
2, 10816, Note_on_c, 0, 81, 0
2, 10832, Note_on_c, 0, 42, 0
2, 10832, Note_on_c, 0, 93, 0
2, 10834, Note_on_c, 0, 74, 80
2, 10880, Note_on_c, 0, 78, 80
2, 10885, Note_on_c, 0, 54, 80
2, 10885, Note_on_c, 0, 57, 80
2, 10885, Note_on_c, 0, 62, 80
2, 10890, Note_on_c, 0, 90, 80
2, 10892, Note_on_c, 0, 74, 0
2, 10894, Note_on_c, 0, 86, 0
2, 10938, Note_on_c, 0, 62, 0
2, 10940, Note_on_c, 0, 57, 0
2, 10940, Note_on_c, 0, 93, 80
2, 10942, Note_on_c, 0, 54, 0
2, 10942, Note_on_c, 0, 81, 80
2, 10944, Note_on_c, 0, 90, 0
2, 10948, Note_on_c, 0, 78, 0
2, 10981, Note_on_c, 0, 40, 80
2, 10986, Control_c, 0, 64, 127
2, 10986, Note_on_c, 0, 95, 80
2, 10991, Note_on_c, 0, 93, 0
2, 10995, Note_on_c, 0, 83, 80
2, 10995, Note_on_c, 0, 85, 80
2, 10997, Note_on_c, 0, 81, 0
2, 11037, Note_on_c, 0, 40, 0
2, 11039, Note_on_c, 0, 79, 80
2, 11039, Note_on_c, 0, 91, 80
2, 11045, Note_on_c, 0, 83, 0
2, 11050, Note_on_c, 0, 95, 0
2, 11064, Control_c, 0, 64, 0
2, 11080, Note_on_c, 0, 88, 80
2, 11085, Note_on_c, 0, 55, 80
2, 11085, Note_on_c, 0, 76, 80
2, 11087, Note_on_c, 0, 61, 80
2, 11088, Note_on_c, 0, 57, 80
2, 11090, Note_on_c, 0, 79, 0
2, 11090, Note_on_c, 0, 91, 0
2, 11092, Note_on_c, 0, 85, 0
2, 11134, Note_on_c, 0, 73, 80
2, 11136, Note_on_c, 0, 88, 0
2, 11136, Note_on_c, 0, 61, 0
2, 11136, Note_on_c, 0, 85, 80
2, 11137, Note_on_c, 0, 57, 0
2, 11139, Note_on_c, 0, 55, 0
2, 11144, Note_on_c, 0, 76, 0
2, 11184, Note_on_c, 0, 45, 80
2, 11218, Note_on_c, 0, 73, 0
2, 11218, Note_on_c, 0, 85, 0
2, 11239, Note_on_c, 0, 45, 0
2, 11241, Note_on_c, 0, 69, 80
2, 11241, Note_on_c, 0, 81, 80
2, 11278, Note_on_c, 0, 55, 80
2, 11280, Note_on_c, 0, 79, 80
2, 11281, Note_on_c, 0, 57, 80
2, 11281, Note_on_c, 0, 61, 80
2, 11281, Note_on_c, 0, 71, 80
2, 11286, Note_on_c, 0, 83, 80
2, 11288, Note_on_c, 0, 81, 0
2, 11288, Note_on_c, 0, 69, 0
2, 11328, Note_on_c, 0, 73, 80
2, 11332, Note_on_c, 0, 57, 0
2, 11332, Note_on_c, 0, 55, 0
2, 11332, Note_on_c, 0, 85, 80
2, 11334, Note_on_c, 0, 61, 0
2, 11336, Note_on_c, 0, 83, 0
2, 11341, Note_on_c, 0, 71, 0
2, 11366, Control_c, 0, 64, 127
2, 11373, Note_on_c, 0, 50, 80
2, 11373, Note_on_c, 0, 74, 80
2, 11377, Note_on_c, 0, 57, 80
2, 11379, Note_on_c, 0, 78, 80
2, 11381, Note_on_c, 0, 62, 80
2, 11381, Note_on_c, 0, 86, 80
2, 11383, Note_on_c, 0, 73, 0
2, 11383, Note_on_c, 0, 79, 0
2, 11383, Note_on_c, 0, 85, 0
2, 11424, Note_on_c, 0, 48, 80
2, 11429, Note_on_c, 0, 62, 0
2, 11429, Note_on_c, 0, 60, 80
2, 11431, Note_on_c, 0, 57, 0
2, 11433, Note_on_c, 0, 50, 0
2, 11477, Note_on_c, 0, 45, 80
2, 11477, Note_on_c, 0, 57, 80
2, 11479, Note_on_c, 0, 48, 0
2, 11489, Note_on_c, 0, 60, 0
2, 11489, Control_c, 0, 64, 0
2, 11530, Note_on_c, 0, 40, 80
2, 11540, Note_on_c, 0, 45, 0
2, 11540, Note_on_c, 0, 57, 0
2, 11540, Note_on_c, 0, 52, 80
2, 11592, Note_on_c, 0, 40, 0
2, 11594, Note_on_c, 0, 52, 0
2, 11594, Note_on_c, 0, 38, 80
2, 11596, Note_on_c, 0, 50, 80
2, 11642, Note_on_c, 0, 35, 80
2, 11644, Note_on_c, 0, 47, 80
2, 11649, Note_on_c, 0, 50, 0
2, 11651, Note_on_c, 0, 38, 0
2, 11658, Note_on_c, 0, 86, 0
2, 11658, Note_on_c, 0, 78, 0
2, 11658, Note_on_c, 0, 74, 0
2, 11694, Note_on_c, 0, 47, 0
2, 11694, Note_on_c, 0, 45, 80
2, 11694, Note_on_c, 0, 79, 80
2, 11696, Note_on_c, 0, 35, 0
2, 11696, Note_on_c, 0, 33, 80
2, 11703, Note_on_c, 0, 67, 80
2, 11749, Note_on_c, 0, 35, 80
2, 11751, Note_on_c, 0, 33, 0
2, 11751, Note_on_c, 0, 47, 80
2, 11756, Note_on_c, 0, 45, 0
2, 11756, Note_on_c, 0, 71, 80
2, 11756, Note_on_c, 0, 83, 80
2, 11758, Note_on_c, 0, 79, 0
2, 11760, Note_on_c, 0, 67, 0
2, 11794, Note_on_c, 0, 83, 0
2, 11796, Note_on_c, 0, 31, 80
2, 11798, Control_c, 0, 64, 127
2, 11803, Note_on_c, 0, 79, 80
2, 11805, Note_on_c, 0, 43, 80
2, 11807, Note_on_c, 0, 74, 80
2, 11808, Note_on_c, 0, 47, 0
2, 11813, Note_on_c, 0, 35, 0
2, 11815, Note_on_c, 0, 71, 0
2, 11815, Note_on_c, 0, 83, 80
2, 11820, Note_on_c, 0, 86, 80
2, 11894, Control_c, 0, 64, 0
2, 11910, Note_on_c, 0, 55, 80
2, 11910, Note_on_c, 0, 59, 80
2, 11912, Note_on_c, 0, 50, 80
2, 11963, Note_on_c, 0, 59, 0
2, 11963, Note_on_c, 0, 79, 0
2, 11968, Note_on_c, 0, 50, 0
2, 11968, Note_on_c, 0, 86, 0
2, 11968, Note_on_c, 0, 55, 0
2, 11970, Note_on_c, 0, 83, 0
2, 11981, Note_on_c, 0, 43, 0
2, 11983, Note_on_c, 0, 31, 0
2, 11985, Note_on_c, 0, 74, 0
2, 12001, Note_on_c, 0, 26, 80
2, 12001, Note_on_c, 0, 38, 80
2, 12003, Note_on_c, 0, 79, 80
2, 12003, Note_on_c, 0, 83, 80
2, 12013, Note_on_c, 0, 91, 80
2, 12105, Note_on_c, 0, 55, 80
2, 12110, Note_on_c, 0, 50, 80
2, 12110, Note_on_c, 0, 59, 80
2, 12161, Note_on_c, 0, 59, 0
2, 12161, Note_on_c, 0, 50, 0
2, 12170, Note_on_c, 0, 55, 0
2, 12187, Note_on_c, 0, 38, 0
2, 12196, Note_on_c, 0, 91, 0
2, 12196, Note_on_c, 0, 79, 0
2, 12208, Control_c, 0, 64, 127
2, 12208, Note_on_c, 0, 31, 80
2, 12210, Note_on_c, 0, 26, 0
2, 12210, Note_on_c, 0, 43, 80
2, 12219, Note_on_c, 0, 71, 80
2, 12219, Note_on_c, 0, 79, 80
2, 12267, Note_on_c, 0, 43, 0
2, 12267, Note_on_c, 0, 31, 0
2, 12274, Note_on_c, 0, 79, 0
2, 12274, Note_on_c, 0, 70, 80
2, 12279, Note_on_c, 0, 71, 0
2, 12279, Note_on_c, 0, 83, 0
2, 12281, Note_on_c, 0, 82, 80
2, 12297, Control_c, 0, 64, 0
2, 12322, Note_on_c, 0, 50, 80
2, 12322, Note_on_c, 0, 59, 80
2, 12322, Note_on_c, 0, 79, 80
2, 12327, Note_on_c, 0, 70, 0
2, 12327, Note_on_c, 0, 55, 80
2, 12327, Note_on_c, 0, 71, 80
2, 12334, Note_on_c, 0, 82, 0
2, 12334, Note_on_c, 0, 83, 80
2, 12375, Note_on_c, 0, 74, 80
2, 12380, Note_on_c, 0, 59, 0
2, 12380, Note_on_c, 0, 50, 0
2, 12380, Note_on_c, 0, 77, 80
2, 12384, Note_on_c, 0, 71, 0
2, 12384, Note_on_c, 0, 55, 0
2, 12386, Note_on_c, 0, 86, 80
2, 12421, Note_on_c, 0, 35, 80
2, 12423, Note_on_c, 0, 47, 80
2, 12434, Note_on_c, 0, 83, 0
2, 12434, Note_on_c, 0, 79, 0
2, 12434, Note_on_c, 0, 74, 0
2, 12439, Note_on_c, 0, 86, 0
2, 12439, Note_on_c, 0, 77, 0
2, 12479, Note_on_c, 0, 47, 0
2, 12479, Note_on_c, 0, 74, 80
2, 12480, Note_on_c, 0, 79, 80
2, 12482, Note_on_c, 0, 35, 0
2, 12484, Note_on_c, 0, 83, 80
2, 12484, Note_on_c, 0, 86, 80
2, 12489, Note_on_c, 0, 77, 80
2, 12533, Note_on_c, 0, 55, 80
2, 12535, Note_on_c, 0, 50, 80
2, 12535, Note_on_c, 0, 59, 80
2, 12560, Note_on_c, 0, 79, 0
2, 12560, Note_on_c, 0, 74, 0
2, 12565, Note_on_c, 0, 83, 0
2, 12570, Note_on_c, 0, 77, 0
2, 12576, Note_on_c, 0, 86, 0
2, 12578, Note_on_c, 0, 88, 80
2, 12588, Note_on_c, 0, 50, 0
2, 12590, Note_on_c, 0, 55, 0
2, 12590, Note_on_c, 0, 76, 80
2, 12592, Note_on_c, 0, 59, 0
2, 12624, Control_c, 0, 64, 127
2, 12629, Note_on_c, 0, 36, 80
2, 12629, Note_on_c, 0, 48, 80
2, 12634, Note_on_c, 0, 88, 0
2, 12634, Note_on_c, 0, 74, 80
2, 12634, Note_on_c, 0, 79, 80
2, 12644, Note_on_c, 0, 86, 80
2, 12688, Note_on_c, 0, 36, 0
2, 12690, Note_on_c, 0, 48, 0
2, 12690, Note_on_c, 0, 72, 80
2, 12695, Note_on_c, 0, 74, 0
2, 12699, Note_on_c, 0, 86, 0
2, 12699, Note_on_c, 0, 84, 80
2, 12713, Control_c, 0, 64, 0
2, 12741, Note_on_c, 0, 55, 80
2, 12743, Note_on_c, 0, 52, 80
2, 12743, Note_on_c, 0, 60, 80
2, 12747, Note_on_c, 0, 79, 0
2, 12752, Note_on_c, 0, 76, 0
2, 12777, Note_on_c, 0, 72, 0
2, 12782, Note_on_c, 0, 84, 0
2, 12792, Note_on_c, 0, 79, 80
2, 12796, Note_on_c, 0, 67, 80
2, 12801, Note_on_c, 0, 60, 0
2, 12801, Note_on_c, 0, 76, 80
2, 12803, Note_on_c, 0, 55, 0
2, 12803, Note_on_c, 0, 52, 0
2, 12847, Note_on_c, 0, 48, 80
2, 12849, Note_on_c, 0, 36, 80
2, 12882, Note_on_c, 0, 79, 0
2, 12887, Note_on_c, 0, 67, 0
2, 12896, Note_on_c, 0, 76, 0
2, 12906, Note_on_c, 0, 48, 0
2, 12908, Note_on_c, 0, 36, 0
2, 12912, Note_on_c, 0, 69, 80
2, 12912, Note_on_c, 0, 75, 80
2, 12924, Note_on_c, 0, 81, 80
2, 12963, Note_on_c, 0, 51, 80
2, 12973, Note_on_c, 0, 55, 80
2, 12973, Note_on_c, 0, 60, 80
2, 13003, Note_on_c, 0, 69, 0
2, 13008, Note_on_c, 0, 81, 0
2, 13029, Note_on_c, 0, 51, 0
2, 13031, Note_on_c, 0, 67, 80
2, 13031, Note_on_c, 0, 79, 80
2, 13032, Note_on_c, 0, 55, 0
2, 13034, Note_on_c, 0, 60, 0
2, 13062, Note_on_c, 0, 75, 0
2, 13074, Note_on_c, 0, 43, 80
2, 13076, Control_c, 0, 64, 127
2, 13076, Note_on_c, 0, 31, 80
2, 13078, Note_on_c, 0, 74, 80
2, 13082, Note_on_c, 0, 71, 80
2, 13089, Note_on_c, 0, 83, 80
2, 13091, Note_on_c, 0, 79, 0
2, 13091, Note_on_c, 0, 67, 0
2, 13128, Note_on_c, 0, 79, 80
2, 13134, Note_on_c, 0, 31, 0
2, 13134, Note_on_c, 0, 43, 0
2, 13136, Note_on_c, 0, 67, 80
2, 13141, Note_on_c, 0, 71, 0
2, 13143, Note_on_c, 0, 74, 0
2, 13143, Note_on_c, 0, 83, 0
2, 13168, Control_c, 0, 64, 0
2, 13184, Note_on_c, 0, 55, 80
2, 13184, Note_on_c, 0, 59, 80
2, 13189, Note_on_c, 0, 50, 80
2, 13189, Note_on_c, 0, 64, 80
2, 13189, Note_on_c, 0, 76, 80
2, 13194, Note_on_c, 0, 79, 0
2, 13194, Note_on_c, 0, 67, 0
2, 13238, Note_on_c, 0, 74, 80
2, 13243, Note_on_c, 0, 50, 0
2, 13243, Note_on_c, 0, 62, 80
2, 13245, Note_on_c, 0, 59, 0
2, 13249, Note_on_c, 0, 55, 0
2, 13249, Note_on_c, 0, 64, 0
2, 13249, Note_on_c, 0, 76, 0
2, 13294, Note_on_c, 0, 55, 80
2, 13294, Note_on_c, 0, 59, 80
2, 13296, Note_on_c, 0, 50, 80
2, 13346, Note_on_c, 0, 71, 80
2, 13346, Note_on_c, 0, 83, 80
2, 13348, Note_on_c, 0, 50, 0
2, 13350, Note_on_c, 0, 59, 0
2, 13350, Note_on_c, 0, 62, 0
2, 13350, Note_on_c, 0, 55, 0
2, 13350, Note_on_c, 0, 74, 0
2, 13401, Note_on_c, 0, 70, 80
2, 13403, Note_on_c, 0, 83, 0
2, 13403, Note_on_c, 0, 71, 0
2, 13403, Note_on_c, 0, 82, 80
2, 13444, Note_on_c, 0, 71, 80
2, 13454, Note_on_c, 0, 83, 80
2, 13456, Note_on_c, 0, 82, 0
2, 13456, Note_on_c, 0, 70, 0
2, 13479, Note_on_c, 0, 71, 0
2, 13497, Note_on_c, 0, 42, 80
2, 13497, Note_on_c, 0, 54, 80
2, 13499, Control_c, 0, 64, 127
2, 13501, Note_on_c, 0, 87, 80
2, 13506, Note_on_c, 0, 75, 80
2, 13608, Note_on_c, 0, 57, 80
2, 13608, Note_on_c, 0, 59, 80
2, 13644, Control_c, 0, 64, 0
2, 13662, Note_on_c, 0, 57, 0
2, 13664, Note_on_c, 0, 75, 0
2, 13664, Note_on_c, 0, 83, 0
2, 13664, Note_on_c, 0, 59, 0
2, 13666, Note_on_c, 0, 87, 0
2, 13689, Note_on_c, 0, 42, 0
2, 13694, Note_on_c, 0, 54, 0
2, 13705, Note_on_c, 0, 35, 80
2, 13710, Note_on_c, 0, 87, 80
2, 13712, Note_on_c, 0, 47, 80
2, 13714, Note_on_c, 0, 78, 80
2, 13714, Note_on_c, 0, 83, 80
2, 13716, Note_on_c, 0, 90, 80
2, 13823, Note_on_c, 0, 57, 80
2, 13823, Note_on_c, 0, 59, 80
2, 13875, Note_on_c, 0, 57, 0
2, 13877, Note_on_c, 0, 59, 0
2, 13877, Note_on_c, 0, 81, 80
2, 13877, Note_on_c, 0, 93, 80
2, 13879, Note_on_c, 0, 83, 0
2, 13879, Note_on_c, 0, 78, 0
2, 13879, Note_on_c, 0, 87, 0
2, 13879, Note_on_c, 0, 90, 0
2, 13900, Note_on_c, 0, 35, 0
2, 13900, Note_on_c, 0, 93, 0
2, 13900, Note_on_c, 0, 47, 0
2, 13917, Note_on_c, 0, 40, 80
2, 13919, Control_c, 0, 64, 127
2, 13923, Note_on_c, 0, 88, 80
2, 13925, Note_on_c, 0, 52, 80
2, 13927, Note_on_c, 0, 83, 80
2, 13932, Note_on_c, 0, 93, 80
2, 13968, Note_on_c, 0, 79, 80
2, 13970, Note_on_c, 0, 40, 0
2, 13972, Note_on_c, 0, 91, 80
2, 13974, Note_on_c, 0, 93, 0
2, 13979, Note_on_c, 0, 52, 0
2, 13984, Note_on_c, 0, 81, 0
2, 14007, Control_c, 0, 64, 0
2, 14025, Note_on_c, 0, 55, 80
2, 14030, Note_on_c, 0, 79, 0
2, 14030, Note_on_c, 0, 59, 80
2, 14030, Note_on_c, 0, 78, 80
2, 14035, Note_on_c, 0, 91, 0
2, 14035, Note_on_c, 0, 90, 80
2, 14076, Note_on_c, 0, 79, 80
2, 14076, Note_on_c, 0, 91, 80
2, 14078, Note_on_c, 0, 88, 0
2, 14080, Note_on_c, 0, 55, 0
2, 14080, Note_on_c, 0, 59, 0
2, 14082, Note_on_c, 0, 90, 0
2, 14082, Note_on_c, 0, 82, 80
2, 14087, Note_on_c, 0, 83, 0
2, 14087, Note_on_c, 0, 78, 0
2, 14119, Note_on_c, 0, 37, 80
2, 14133, Note_on_c, 0, 49, 80
2, 14135, Note_on_c, 0, 79, 0
2, 14135, Note_on_c, 0, 91, 0
2, 14181, Note_on_c, 0, 79, 80
2, 14181, Note_on_c, 0, 91, 80
2, 14183, Note_on_c, 0, 37, 0
2, 14184, Note_on_c, 0, 49, 0
2, 14235, Note_on_c, 0, 52, 80
2, 14235, Note_on_c, 0, 78, 80
2, 14237, Note_on_c, 0, 91, 0
2, 14239, Note_on_c, 0, 55, 80
2, 14239, Note_on_c, 0, 58, 80
2, 14239, Note_on_c, 0, 90, 80
2, 14246, Note_on_c, 0, 79, 0
2, 14287, Note_on_c, 0, 88, 80
2, 14294, Note_on_c, 0, 76, 80
2, 14296, Note_on_c, 0, 58, 0
2, 14296, Note_on_c, 0, 55, 0
2, 14296, Note_on_c, 0, 52, 0
2, 14296, Note_on_c, 0, 90, 0
2, 14301, Note_on_c, 0, 78, 0
2, 14301, Note_on_c, 0, 82, 0
2, 14342, Control_c, 0, 64, 127
2, 14344, Note_on_c, 0, 38, 80
2, 14351, Note_on_c, 0, 50, 80
2, 14355, Note_on_c, 0, 83, 80
2, 14395, Note_on_c, 0, 88, 0
2, 14397, Note_on_c, 0, 74, 80
2, 14399, Note_on_c, 0, 38, 0
2, 14400, Note_on_c, 0, 50, 0
2, 14405, Note_on_c, 0, 76, 0
2, 14407, Note_on_c, 0, 86, 80
2, 14430, Control_c, 0, 64, 0
2, 14447, Note_on_c, 0, 73, 80
2, 14451, Note_on_c, 0, 55, 80
2, 14451, Note_on_c, 0, 59, 80
2, 14453, Note_on_c, 0, 85, 80
2, 14458, Note_on_c, 0, 86, 0
2, 14458, Note_on_c, 0, 74, 0
2, 14463, Note_on_c, 0, 83, 0
2, 14497, Note_on_c, 0, 74, 80
2, 14507, Note_on_c, 0, 73, 0
2, 14507, Note_on_c, 0, 85, 0
2, 14509, Note_on_c, 0, 59, 0
2, 14509, Note_on_c, 0, 55, 0
2, 14509, Note_on_c, 0, 86, 80
2, 14557, Note_on_c, 0, 38, 80
2, 14559, Note_on_c, 0, 50, 80
2, 14582, Note_on_c, 0, 74, 0
2, 14589, Note_on_c, 0, 86, 0
2, 14595, Note_on_c, 0, 72, 80
2, 14602, Note_on_c, 0, 84, 80
2, 14604, Note_on_c, 0, 38, 0
2, 14606, Note_on_c, 0, 50, 0
2, 14650, Note_on_c, 0, 54, 80
2, 14650, Note_on_c, 0, 57, 80
2, 14652, Note_on_c, 0, 60, 80
2, 14654, Note_on_c, 0, 81, 80
2, 14656, Note_on_c, 0, 72, 0
2, 14656, Note_on_c, 0, 69, 80
2, 14658, Note_on_c, 0, 84, 0
2, 14690, Note_on_c, 0, 66, 80
2, 14690, Note_on_c, 0, 78, 80
2, 14697, Note_on_c, 0, 57, 0
2, 14702, Note_on_c, 0, 54, 0
2, 14702, Note_on_c, 0, 60, 0
2, 14702, Note_on_c, 0, 69, 0
2, 14707, Note_on_c, 0, 81, 0
2, 14735, Control_c, 0, 64, 127
2, 14736, Note_on_c, 0, 79, 80
2, 14741, Note_on_c, 0, 55, 80
2, 14741, Note_on_c, 0, 59, 80
2, 14746, Note_on_c, 0, 67, 80
2, 14748, Note_on_c, 0, 78, 0
2, 14748, Note_on_c, 0, 66, 0
2, 14794, Note_on_c, 0, 79, 0
2, 14796, Note_on_c, 0, 55, 0
2, 14798, Note_on_c, 0, 59, 0
2, 14798, Note_on_c, 0, 67, 0
2, 14816, Control_c, 0, 64, 0
2, 14834, Note_on_c, 0, 74, 80
2, 14834, Note_on_c, 0, 86, 80
2, 14915, Note_on_c, 0, 86, 0
2, 14936, Note_on_c, 0, 47, 80
2, 14936, Note_on_c, 0, 59, 80
2, 14941, Note_on_c, 0, 86, 80
2, 14992, Note_on_c, 0, 45, 80
2, 14992, Note_on_c, 0, 57, 80
2, 14994, Note_on_c, 0, 59, 0
2, 14994, Note_on_c, 0, 74, 0
2, 14994, Note_on_c, 0, 47, 0
2, 15000, Note_on_c, 0, 86, 0
2, 15040, Note_on_c, 0, 44, 80
2, 15042, Note_on_c, 0, 56, 80
2, 15042, Note_on_c, 0, 74, 80
2, 15047, Note_on_c, 0, 45, 0
2, 15048, Note_on_c, 0, 77, 80
2, 15048, Note_on_c, 0, 83, 80
2, 15050, Note_on_c, 0, 57, 0
2, 15090, Note_on_c, 0, 59, 80
2, 15092, Note_on_c, 0, 47, 80
2, 15094, Note_on_c, 0, 44, 0
2, 15100, Note_on_c, 0, 74, 0
2, 15100, Note_on_c, 0, 56, 0
2, 15100, Note_on_c, 0, 83, 0
2, 15102, Note_on_c, 0, 77, 0
2, 15132, Control_c, 0, 64, 127
2, 15137, Note_on_c, 0, 74, 80
2, 15139, Note_on_c, 0, 45, 80
2, 15139, Note_on_c, 0, 78, 80
2, 15144, Note_on_c, 0, 57, 80
2, 15145, Note_on_c, 0, 47, 0
2, 15145, Note_on_c, 0, 84, 80
2, 15152, Note_on_c, 0, 59, 0
2, 15187, Note_on_c, 0, 47, 80
2, 15187, Note_on_c, 0, 59, 80
2, 15196, Note_on_c, 0, 45, 0
2, 15201, Note_on_c, 0, 57, 0
2, 15222, Control_c, 0, 64, 0
2, 15243, Note_on_c, 0, 48, 80
2, 15243, Note_on_c, 0, 54, 80
2, 15245, Note_on_c, 0, 60, 80
2, 15247, Note_on_c, 0, 47, 0
2, 15252, Note_on_c, 0, 59, 0
2, 15298, Note_on_c, 0, 54, 0
2, 15298, Note_on_c, 0, 48, 0
2, 15300, Note_on_c, 0, 60, 0
2, 15336, Note_on_c, 0, 42, 80
2, 15343, Note_on_c, 0, 54, 80
2, 15391, Note_on_c, 0, 59, 80
2, 15391, Note_on_c, 0, 71, 80
2, 15398, Note_on_c, 0, 42, 0
2, 15400, Note_on_c, 0, 68, 80
2, 15402, Note_on_c, 0, 54, 0
2, 15407, Note_on_c, 0, 78, 0
2, 15407, Note_on_c, 0, 74, 0
2, 15411, Note_on_c, 0, 84, 0
2, 15441, Note_on_c, 0, 72, 80
2, 15446, Note_on_c, 0, 50, 80
2, 15446, Note_on_c, 0, 54, 80
2, 15446, Note_on_c, 0, 60, 80
2, 15446, Note_on_c, 0, 69, 80
2, 15448, Note_on_c, 0, 59, 0
2, 15448, Note_on_c, 0, 68, 0
2, 15450, Note_on_c, 0, 71, 0
2, 15496, Note_on_c, 0, 50, 0
2, 15498, Note_on_c, 0, 54, 0
2, 15500, Note_on_c, 0, 60, 0
2, 15529, Note_on_c, 0, 72, 0
2, 15529, Note_on_c, 0, 69, 0
2, 15536, Control_c, 0, 64, 127
2, 15541, Note_on_c, 0, 38, 80
2, 15543, Note_on_c, 0, 65, 80
2, 15545, Note_on_c, 0, 50, 80
2, 15545, Note_on_c, 0, 56, 80
2, 15545, Note_on_c, 0, 68, 80
2, 15596, Note_on_c, 0, 57, 80
2, 15596, Note_on_c, 0, 66, 80
2, 15600, Note_on_c, 0, 69, 80
2, 15602, Note_on_c, 0, 56, 0
2, 15602, Note_on_c, 0, 38, 0
2, 15604, Note_on_c, 0, 50, 0
2, 15606, Note_on_c, 0, 68, 0
2, 15608, Note_on_c, 0, 65, 0
2, 15652, Note_on_c, 0, 54, 80
2, 15654, Control_c, 0, 64, 0
2, 15654, Note_on_c, 0, 50, 80
2, 15654, Note_on_c, 0, 60, 80
2, 15682, Note_on_c, 0, 69, 0
2, 15687, Note_on_c, 0, 57, 0
2, 15687, Note_on_c, 0, 66, 0
2, 15700, Note_on_c, 0, 59, 80
2, 15705, Note_on_c, 0, 71, 80
2, 15710, Note_on_c, 0, 50, 0
2, 15710, Note_on_c, 0, 68, 80
2, 15712, Note_on_c, 0, 54, 0
2, 15712, Note_on_c, 0, 60, 0
2, 15756, Note_on_c, 0, 60, 80
2, 15758, Note_on_c, 0, 42, 80
2, 15758, Note_on_c, 0, 54, 80
2, 15758, Note_on_c, 0, 72, 80
2, 15763, Note_on_c, 0, 69, 80
2, 15768, Note_on_c, 0, 59, 0
2, 15768, Note_on_c, 0, 68, 0
2, 15768, Note_on_c, 0, 71, 0
2, 15814, Note_on_c, 0, 60, 0
2, 15816, Note_on_c, 0, 42, 0
2, 15820, Note_on_c, 0, 54, 0
2, 15820, Note_on_c, 0, 72, 0
2, 15843, Note_on_c, 0, 69, 0
2, 15855, Note_on_c, 0, 64, 80
2, 15860, Note_on_c, 0, 54, 80
2, 15860, Note_on_c, 0, 60, 80
2, 15860, Note_on_c, 0, 72, 80
2, 15860, Note_on_c, 0, 76, 80
2, 15864, Note_on_c, 0, 50, 80
2, 15915, Note_on_c, 0, 50, 0
2, 15915, Note_on_c, 0, 54, 0
2, 15917, Note_on_c, 0, 60, 0
2, 15940, Note_on_c, 0, 64, 0
2, 15952, Control_c, 0, 64, 127
2, 15957, Note_on_c, 0, 43, 80
2, 15959, Note_on_c, 0, 55, 80
2, 15959, Note_on_c, 0, 61, 80
2, 15960, Note_on_c, 0, 73, 80
2, 15962, Note_on_c, 0, 70, 80
2, 15969, Note_on_c, 0, 76, 0
2, 15969, Note_on_c, 0, 72, 0
2, 16008, Note_on_c, 0, 43, 0
2, 16008, Note_on_c, 0, 74, 80
2, 16010, Note_on_c, 0, 62, 80
2, 16010, Note_on_c, 0, 71, 80
2, 16015, Note_on_c, 0, 73, 0
2, 16017, Note_on_c, 0, 70, 0
2, 16017, Note_on_c, 0, 61, 0
2, 16022, Note_on_c, 0, 55, 0
2, 16043, Control_c, 0, 64, 0
2, 16061, Note_on_c, 0, 55, 80
2, 16063, Note_on_c, 0, 50, 80
2, 16063, Note_on_c, 0, 59, 80
2, 16068, Note_on_c, 0, 74, 0
2, 16068, Note_on_c, 0, 62, 0
2, 16107, Note_on_c, 0, 74, 80
2, 16107, Note_on_c, 0, 79, 80
2, 16112, Note_on_c, 0, 55, 0
2, 16112, Note_on_c, 0, 50, 0
2, 16112, Note_on_c, 0, 83, 80
2, 16117, Note_on_c, 0, 59, 0
2, 16156, Note_on_c, 0, 38, 80
2, 16158, Note_on_c, 0, 50, 80
2, 16165, Note_on_c, 0, 79, 0
2, 16193, Note_on_c, 0, 74, 0
2, 16195, Note_on_c, 0, 83, 0
2, 16200, Note_on_c, 0, 71, 0
2, 16200, Note_on_c, 0, 73, 80
2, 16209, Note_on_c, 0, 70, 80
2, 16209, Note_on_c, 0, 79, 80
2, 16214, Note_on_c, 0, 50, 0
2, 16216, Note_on_c, 0, 38, 0
2, 16221, Note_on_c, 0, 82, 80
2, 16253, Note_on_c, 0, 74, 80
2, 16255, Note_on_c, 0, 55, 80
2, 16255, Note_on_c, 0, 59, 80
2, 16260, Note_on_c, 0, 50, 80
2, 16260, Note_on_c, 0, 71, 80
2, 16270, Note_on_c, 0, 70, 0
2, 16270, Note_on_c, 0, 83, 80
2, 16272, Note_on_c, 0, 82, 0
2, 16272, Note_on_c, 0, 73, 0
2, 16313, Note_on_c, 0, 67, 80
2, 16315, Note_on_c, 0, 59, 0
2, 16317, Note_on_c, 0, 50, 0
2, 16317, Note_on_c, 0, 55, 0
2, 16321, Note_on_c, 0, 83, 0
2, 16363, Control_c, 0, 64, 127
2, 16365, Note_on_c, 0, 43, 80
2, 16365, Note_on_c, 0, 55, 80
2, 16399, Note_on_c, 0, 74, 0
2, 16399, Note_on_c, 0, 79, 0
2, 16399, Note_on_c, 0, 71, 0
2, 16404, Note_on_c, 0, 67, 0
2, 16411, Note_on_c, 0, 43, 0
2, 16413, Note_on_c, 0, 66, 80
2, 16415, Note_on_c, 0, 42, 80
2, 16416, Note_on_c, 0, 54, 80
2, 16421, Note_on_c, 0, 78, 80
2, 16423, Note_on_c, 0, 55, 0
2, 16448, Control_c, 0, 64, 0
2, 16460, Note_on_c, 0, 41, 80
2, 16462, Note_on_c, 0, 79, 80
2, 16466, Note_on_c, 0, 53, 80
2, 16466, Note_on_c, 0, 74, 80
2, 16468, Note_on_c, 0, 42, 0
2, 16470, Note_on_c, 0, 66, 0
2, 16470, Note_on_c, 0, 67, 80
2, 16470, Note_on_c, 0, 71, 80
2, 16475, Note_on_c, 0, 54, 0
2, 16475, Note_on_c, 0, 78, 0
2, 16508, Note_on_c, 0, 55, 80
2, 16512, Note_on_c, 0, 43, 80
2, 16514, Note_on_c, 0, 41, 0
2, 16521, Note_on_c, 0, 53, 0
2, 16544, Note_on_c, 0, 79, 0
2, 16546, Note_on_c, 0, 71, 0
2, 16548, Note_on_c, 0, 67, 0
2, 16548, Note_on_c, 0, 74, 0
2, 16558, Note_on_c, 0, 40, 80
2, 16560, Note_on_c, 0, 43, 0
2, 16561, Note_on_c, 0, 66, 80
2, 16571, Note_on_c, 0, 55, 0
2, 16571, Note_on_c, 0, 52, 80
2, 16571, Note_on_c, 0, 78, 80
2, 16608, Note_on_c, 0, 39, 80
2, 16608, Note_on_c, 0, 51, 80
2, 16608, Note_on_c, 0, 74, 80
2, 16608, Note_on_c, 0, 79, 80
2, 16609, Note_on_c, 0, 71, 80
2, 16611, Note_on_c, 0, 40, 0
2, 16613, Note_on_c, 0, 67, 80
2, 16615, Note_on_c, 0, 78, 0
2, 16615, Note_on_c, 0, 66, 0
2, 16620, Note_on_c, 0, 52, 0
2, 16655, Note_on_c, 0, 38, 80
2, 16656, Note_on_c, 0, 50, 80
2, 16658, Note_on_c, 0, 39, 0
2, 16660, Note_on_c, 0, 51, 0
2, 16665, Note_on_c, 0, 67, 0
2, 16690, Note_on_c, 0, 74, 0
2, 16690, Note_on_c, 0, 71, 0
2, 16690, Note_on_c, 0, 79, 0
2, 16700, Note_on_c, 0, 37, 80
2, 16702, Note_on_c, 0, 55, 80
2, 16713, Note_on_c, 0, 38, 0
2, 16713, Note_on_c, 0, 50, 0
2, 16713, Note_on_c, 0, 49, 80
2, 16718, Note_on_c, 0, 67, 80
2, 16746, Control_c, 0, 64, 127
2, 16752, Note_on_c, 0, 36, 80
2, 16754, Note_on_c, 0, 48, 80
2, 16759, Note_on_c, 0, 49, 0
2, 16759, Note_on_c, 0, 37, 0
2, 16761, Note_on_c, 0, 67, 0
2, 16761, Note_on_c, 0, 55, 0
2, 16800, Note_on_c, 0, 55, 80
2, 16810, Note_on_c, 0, 67, 80
2, 16831, Control_c, 0, 64, 0
2, 16852, Note_on_c, 0, 72, 80
2, 16857, Note_on_c, 0, 60, 80
2, 16862, Note_on_c, 0, 67, 0
2, 16862, Note_on_c, 0, 64, 80
2, 16883, Note_on_c, 0, 64, 0
2, 16913, Note_on_c, 0, 55, 0
2, 16913, Note_on_c, 0, 64, 80
2, 16913, Note_on_c, 0, 76, 80
2, 16922, Note_on_c, 0, 72, 0
2, 16922, Note_on_c, 0, 60, 0
2, 16936, Note_on_c, 0, 48, 0
2, 16957, Note_on_c, 0, 40, 80
2, 16964, Note_on_c, 0, 72, 80
2, 16968, Note_on_c, 0, 36, 0
2, 16968, Note_on_c, 0, 64, 0
2, 16970, Note_on_c, 0, 52, 80
2, 16970, Note_on_c, 0, 79, 80
2, 16975, Note_on_c, 0, 67, 80
2, 16980, Note_on_c, 0, 76, 0
2, 17019, Note_on_c, 0, 40, 0
2, 17024, Note_on_c, 0, 52, 0
2, 17029, Note_on_c, 0, 79, 0
2, 17031, Note_on_c, 0, 67, 0
2, 17031, Note_on_c, 0, 72, 0
2, 17072, Note_on_c, 0, 51, 80
2, 17074, Note_on_c, 0, 39, 80
2, 17076, Note_on_c, 0, 69, 80
2, 17076, Note_on_c, 0, 72, 80
2, 17083, Note_on_c, 0, 81, 80
2, 17124, Note_on_c, 0, 79, 80
2, 17129, Note_on_c, 0, 39, 0
2, 17129, Note_on_c, 0, 51, 0
2, 17129, Note_on_c, 0, 67, 80
2, 17129, Note_on_c, 0, 71, 80
2, 17134, Note_on_c, 0, 81, 0
2, 17138, Note_on_c, 0, 72, 0
2, 17138, Note_on_c, 0, 69, 0
2, 17180, Control_c, 0, 64, 127
2, 17180, Note_on_c, 0, 50, 80
2, 17186, Note_on_c, 0, 71, 0
2, 17186, Note_on_c, 0, 38, 80
2, 17211, Note_on_c, 0, 79, 0
2, 17211, Note_on_c, 0, 67, 0
2, 17230, Note_on_c, 0, 71, 80
2, 17232, Note_on_c, 0, 50, 0
2, 17232, Note_on_c, 0, 59, 80
2, 17233, Note_on_c, 0, 38, 0
2, 17261, Note_on_c, 0, 59, 0
2, 17263, Control_c, 0, 64, 0
2, 17277, Note_on_c, 0, 55, 80
2, 17283, Note_on_c, 0, 59, 80
2, 17283, Note_on_c, 0, 62, 80
2, 17283, Note_on_c, 0, 74, 80
2, 17290, Note_on_c, 0, 71, 0
2, 17329, Note_on_c, 0, 64, 80
2, 17329, Note_on_c, 0, 76, 80
2, 17336, Note_on_c, 0, 62, 0
2, 17336, Note_on_c, 0, 55, 0
2, 17336, Note_on_c, 0, 59, 0
2, 17341, Note_on_c, 0, 74, 0
2, 17377, Note_on_c, 0, 55, 80
2, 17382, Note_on_c, 0, 71, 80
2, 17384, Note_on_c, 0, 43, 80
2, 17386, Note_on_c, 0, 65, 80
2, 17388, Note_on_c, 0, 64, 0
2, 17424, Note_on_c, 0, 74, 80
2, 17429, Note_on_c, 0, 43, 0
2, 17431, Note_on_c, 0, 62, 80
2, 17436, Note_on_c, 0, 55, 0
2, 17441, Note_on_c, 0, 65, 0
2, 17443, Note_on_c, 0, 76, 0
2, 17471, Note_on_c, 0, 71, 0
2, 17475, Note_on_c, 0, 35, 80
2, 17477, Note_on_c, 0, 76, 80
2, 17482, Note_on_c, 0, 47, 80
2, 17482, Note_on_c, 0, 65, 80
2, 17482, Note_on_c, 0, 67, 80
2, 17487, Note_on_c, 0, 62, 0
2, 17489, Note_on_c, 0, 74, 0
2, 17523, Note_on_c, 0, 74, 80
2, 17530, Note_on_c, 0, 62, 80
2, 17535, Note_on_c, 0, 35, 0
2, 17537, Note_on_c, 0, 67, 0
2, 17539, Note_on_c, 0, 76, 0
2, 17557, Note_on_c, 0, 47, 0
2, 17564, Note_on_c, 0, 65, 0
2, 17575, Control_c, 0, 64, 127
2, 17577, Note_on_c, 0, 36, 80
2, 17577, Note_on_c, 0, 48, 80
2, 17579, Note_on_c, 0, 62, 0
2, 17584, Note_on_c, 0, 60, 80
2, 17584, Note_on_c, 0, 64, 80
2, 17584, Note_on_c, 0, 72, 80
2, 17586, Note_on_c, 0, 67, 80
2, 17588, Note_on_c, 0, 74, 0
2, 17629, Note_on_c, 0, 55, 80
2, 17634, Note_on_c, 0, 36, 0
2, 17636, Note_on_c, 0, 48, 0
2, 17640, Note_on_c, 0, 60, 0
2, 17640, Note_on_c, 0, 64, 0
2, 17640, Note_on_c, 0, 72, 0
2, 17664, Control_c, 0, 64, 0
2, 17691, Note_on_c, 0, 60, 80
2, 17691, Note_on_c, 0, 64, 80
2, 17691, Note_on_c, 0, 72, 80
2, 17696, Note_on_c, 0, 67, 0
2, 17714, Note_on_c, 0, 64, 0
2, 17749, Note_on_c, 0, 64, 80
2, 17749, Note_on_c, 0, 76, 80
2, 17754, Note_on_c, 0, 55, 0
2, 17756, Note_on_c, 0, 60, 0
2, 17758, Note_on_c, 0, 72, 0
2, 17794, Note_on_c, 0, 72, 80
2, 17794, Note_on_c, 0, 79, 80
2, 17796, Note_on_c, 0, 40, 80
2, 17798, Note_on_c, 0, 52, 80
2, 17805, Note_on_c, 0, 64, 0
2, 17807, Note_on_c, 0, 76, 0
2, 17808, Note_on_c, 0, 67, 80
2, 17850, Note_on_c, 0, 40, 0
2, 17852, Note_on_c, 0, 79, 0
2, 17852, Note_on_c, 0, 67, 0
2, 17856, Note_on_c, 0, 52, 0
2, 17861, Note_on_c, 0, 72, 0
2, 17898, Note_on_c, 0, 39, 80
2, 17898, Note_on_c, 0, 51, 80
2, 17903, Note_on_c, 0, 72, 80
2, 17904, Note_on_c, 0, 69, 80
2, 17906, Note_on_c, 0, 81, 80
2, 17948, Note_on_c, 0, 74, 80
2, 17952, Note_on_c, 0, 39, 0
2, 17952, Note_on_c, 0, 79, 80
2, 17957, Note_on_c, 0, 51, 0
2, 17957, Note_on_c, 0, 71, 80
2, 17957, Note_on_c, 0, 83, 80
2, 17962, Note_on_c, 0, 69, 0
2, 17962, Note_on_c, 0, 81, 0
2, 17962, Note_on_c, 0, 72, 0
2, 17997, Control_c, 0, 64, 127
2, 18006, Note_on_c, 0, 50, 80
2, 18008, Note_on_c, 0, 79, 0
2, 18008, Note_on_c, 0, 38, 80
2, 18033, Note_on_c, 0, 74, 0
2, 18038, Note_on_c, 0, 71, 0
2, 18040, Note_on_c, 0, 83, 0
2, 18056, Note_on_c, 0, 79, 80
2, 18061, Note_on_c, 0, 50, 0
2, 18063, Note_on_c, 0, 38, 0
2, 18068, Note_on_c, 0, 67, 80
2, 18089, Control_c, 0, 64, 0
2, 18105, Note_on_c, 0, 59, 80
2, 18110, Note_on_c, 0, 55, 80
2, 18112, Note_on_c, 0, 71, 80
2, 18114, Note_on_c, 0, 62, 80
2, 18116, Note_on_c, 0, 67, 0
2, 18116, Note_on_c, 0, 79, 0
2, 18116, Note_on_c, 0, 83, 80
2, 18164, Note_on_c, 0, 59, 0
2, 18164, Note_on_c, 0, 62, 0
2, 18168, Note_on_c, 0, 55, 0
2, 18170, Note_on_c, 0, 83, 0
2, 18170, Note_on_c, 0, 71, 0
2, 18207, Note_on_c, 0, 43, 80
2, 18209, Note_on_c, 0, 79, 80
2, 18211, Note_on_c, 0, 55, 80
2, 18213, Note_on_c, 0, 74, 80
2, 18213, Note_on_c, 0, 83, 80
2, 18217, Note_on_c, 0, 86, 80
2, 18262, Note_on_c, 0, 43, 0
2, 18266, Note_on_c, 0, 55, 0
2, 18268, Note_on_c, 0, 79, 0
2, 18270, Note_on_c, 0, 74, 0
2, 18275, Note_on_c, 0, 83, 0
2, 18280, Note_on_c, 0, 86, 0
2, 18324, Note_on_c, 0, 44, 80
2, 18324, Note_on_c, 0, 74, 80
2, 18334, Note_on_c, 0, 56, 80
2, 18334, Note_on_c, 0, 83, 80
2, 18340, Note_on_c, 0, 77, 80
2, 18386, Note_on_c, 0, 44, 0
2, 18396, Note_on_c, 0, 74, 0
2, 18396, Note_on_c, 0, 56, 0
2, 18401, Note_on_c, 0, 83, 0
2, 18401, Note_on_c, 0, 77, 0
2, 18437, Control_c, 0, 64, 127
2, 18444, Note_on_c, 0, 74, 80
2, 18449, Note_on_c, 0, 38, 80
2, 18451, Note_on_c, 0, 50, 80
2, 18451, Note_on_c, 0, 78, 80
2, 18456, Note_on_c, 0, 84, 80
2, 18504, Note_on_c, 0, 50, 0
2, 18528, Control_c, 0, 64, 0
2, 18558, Note_on_c, 0, 54, 80
2, 18563, Note_on_c, 0, 50, 80
2, 18563, Note_on_c, 0, 60, 80
2, 18609, Note_on_c, 0, 50, 0
2, 18614, Note_on_c, 0, 60, 0
2, 18619, Note_on_c, 0, 54, 0
2, 18635, Note_on_c, 0, 38, 0
2, 18656, Note_on_c, 0, 42, 80
2, 18663, Note_on_c, 0, 54, 80
2, 18699, Note_on_c, 0, 74, 0
2, 18699, Note_on_c, 0, 78, 0
2, 18701, Note_on_c, 0, 84, 0
2, 18713, Note_on_c, 0, 59, 80
2, 18713, Note_on_c, 0, 71, 80
2, 18718, Note_on_c, 0, 42, 0
2, 18718, Note_on_c, 0, 54, 0
2, 18720, Note_on_c, 0, 68, 80
2, 18764, Note_on_c, 0, 50, 80
2, 18764, Note_on_c, 0, 54, 80
2, 18764, Note_on_c, 0, 72, 80
2, 18773, Note_on_c, 0, 59, 0
2, 18773, Note_on_c, 0, 60, 80
2, 18773, Note_on_c, 0, 69, 80
2, 18775, Note_on_c, 0, 68, 0
2, 18777, Note_on_c, 0, 71, 0
2, 18823, Note_on_c, 0, 50, 0
2, 18823, Note_on_c, 0, 54, 0
2, 18828, Note_on_c, 0, 60, 0
2, 18853, Note_on_c, 0, 69, 0
2, 18853, Note_on_c, 0, 72, 0
2, 18858, Control_c, 0, 64, 127
2, 18864, Note_on_c, 0, 68, 80
2, 18869, Note_on_c, 0, 38, 80
2, 18869, Note_on_c, 0, 50, 80
2, 18871, Note_on_c, 0, 65, 80
2, 18873, Note_on_c, 0, 56, 80
2, 18917, Note_on_c, 0, 57, 80
2, 18917, Note_on_c, 0, 66, 80
2, 18922, Note_on_c, 0, 56, 0
2, 18922, Note_on_c, 0, 50, 0
2, 18922, Note_on_c, 0, 38, 0
2, 18922, Note_on_c, 0, 69, 80
2, 18927, Note_on_c, 0, 68, 0
2, 18932, Note_on_c, 0, 65, 0
2, 18948, Control_c, 0, 64, 0
2, 18969, Note_on_c, 0, 50, 80
2, 18969, Note_on_c, 0, 54, 80
2, 18974, Note_on_c, 0, 60, 80
2, 19008, Note_on_c, 0, 66, 0
2, 19008, Note_on_c, 0, 69, 0
2, 19025, Note_on_c, 0, 60, 0
2, 19025, Note_on_c, 0, 59, 80
2, 19025, Note_on_c, 0, 68, 80
2, 19027, Note_on_c, 0, 57, 0
2, 19029, Note_on_c, 0, 50, 0
2, 19029, Note_on_c, 0, 54, 0
2, 19029, Note_on_c, 0, 71, 80
2, 19084, Note_on_c, 0, 59, 0
2, 19084, Note_on_c, 0, 42, 80
2, 19084, Note_on_c, 0, 54, 80
2, 19084, Note_on_c, 0, 72, 80
2, 19086, Note_on_c, 0, 60, 80
2, 19088, Note_on_c, 0, 71, 0
2, 19088, Note_on_c, 0, 68, 0
2, 19088, Note_on_c, 0, 69, 80
2, 19141, Note_on_c, 0, 54, 0
2, 19143, Note_on_c, 0, 72, 0
2, 19143, Note_on_c, 0, 42, 0
2, 19143, Note_on_c, 0, 60, 0
2, 19143, Note_on_c, 0, 69, 0
2, 19191, Note_on_c, 0, 50, 80
2, 19191, Note_on_c, 0, 54, 80
2, 19193, Note_on_c, 0, 72, 80
2, 19195, Note_on_c, 0, 60, 80
2, 19197, Note_on_c, 0, 64, 80
2, 19197, Note_on_c, 0, 76, 80
2, 19245, Note_on_c, 0, 64, 0
2, 19247, Note_on_c, 0, 60, 0
2, 19247, Note_on_c, 0, 50, 0
2, 19248, Note_on_c, 0, 54, 0
2, 19248, Note_on_c, 0, 76, 0
2, 19248, Note_on_c, 0, 72, 0
2, 19288, Note_on_c, 0, 43, 80
2, 19288, Note_on_c, 0, 61, 80
2, 19290, Control_c, 0, 64, 127
2, 19290, Note_on_c, 0, 73, 80
2, 19292, Note_on_c, 0, 55, 80
2, 19292, Note_on_c, 0, 70, 80
2, 19340, Note_on_c, 0, 43, 0
2, 19344, Note_on_c, 0, 71, 80
2, 19344, Note_on_c, 0, 74, 80
2, 19346, Note_on_c, 0, 55, 0
2, 19346, Note_on_c, 0, 70, 0
2, 19348, Note_on_c, 0, 73, 0
2, 19350, Note_on_c, 0, 61, 0
2, 19350, Note_on_c, 0, 62, 80
2, 19373, Control_c, 0, 64, 0
2, 19396, Note_on_c, 0, 74, 0
2, 19396, Note_on_c, 0, 59, 80
2, 19401, Note_on_c, 0, 50, 80
2, 19401, Note_on_c, 0, 55, 80
2, 19429, Note_on_c, 0, 62, 0
2, 19447, Note_on_c, 0, 74, 80
2, 19447, Note_on_c, 0, 79, 80
2, 19452, Note_on_c, 0, 50, 0
2, 19452, Note_on_c, 0, 55, 0
2, 19452, Note_on_c, 0, 59, 0
2, 19452, Note_on_c, 0, 83, 80
2, 19505, Note_on_c, 0, 38, 80
2, 19507, Note_on_c, 0, 50, 80
2, 19509, Note_on_c, 0, 79, 0
2, 19534, Note_on_c, 0, 74, 0
2, 19536, Note_on_c, 0, 71, 0
2, 19537, Note_on_c, 0, 83, 0
2, 19544, Note_on_c, 0, 73, 80
2, 19546, Note_on_c, 0, 70, 80
2, 19546, Note_on_c, 0, 79, 80
2, 19551, Note_on_c, 0, 50, 0
2, 19551, Note_on_c, 0, 82, 80
2, 19553, Note_on_c, 0, 38, 0
2, 19594, Note_on_c, 0, 74, 80
2, 19596, Note_on_c, 0, 55, 80
2, 19596, Note_on_c, 0, 59, 80
2, 19596, Note_on_c, 0, 71, 80
2, 19601, Note_on_c, 0, 50, 80
2, 19603, Note_on_c, 0, 73, 0
2, 19605, Note_on_c, 0, 70, 0
2, 19607, Note_on_c, 0, 83, 80
2, 19611, Note_on_c, 0, 82, 0
2, 19628, Note_on_c, 0, 79, 0
2, 19653, Note_on_c, 0, 50, 0
2, 19653, Note_on_c, 0, 79, 80
2, 19655, Note_on_c, 0, 59, 0
2, 19655, Note_on_c, 0, 55, 0
2, 19655, Note_on_c, 0, 67, 80
2, 19656, Note_on_c, 0, 83, 0
2, 19696, Control_c, 0, 64, 127
2, 19701, Note_on_c, 0, 43, 80
2, 19705, Note_on_c, 0, 55, 80
2, 19738, Note_on_c, 0, 71, 0
2, 19738, Note_on_c, 0, 79, 0
2, 19743, Note_on_c, 0, 67, 0
2, 19743, Note_on_c, 0, 74, 0
2, 19754, Note_on_c, 0, 43, 0
2, 19754, Note_on_c, 0, 42, 80
2, 19764, Note_on_c, 0, 54, 80
2, 19764, Note_on_c, 0, 78, 80
2, 19769, Note_on_c, 0, 55, 0
2, 19769, Note_on_c, 0, 66, 80
2, 19794, Control_c, 0, 64, 0
2, 19822, Note_on_c, 0, 74, 80
2, 19822, Note_on_c, 0, 79, 80
2, 19824, Note_on_c, 0, 53, 80
2, 19825, Note_on_c, 0, 66, 0
2, 19825, Note_on_c, 0, 42, 0
2, 19825, Note_on_c, 0, 54, 0
2, 19825, Note_on_c, 0, 41, 80
2, 19825, Note_on_c, 0, 67, 80
2, 19825, Note_on_c, 0, 71, 80
2, 19827, Note_on_c, 0, 78, 0
2, 19875, Note_on_c, 0, 43, 80
2, 19877, Note_on_c, 0, 41, 0
2, 19877, Note_on_c, 0, 74, 0
2, 19879, Note_on_c, 0, 55, 80
2, 19881, Note_on_c, 0, 79, 0
2, 19881, Note_on_c, 0, 53, 0
2, 19881, Note_on_c, 0, 67, 0
2, 19881, Note_on_c, 0, 71, 0
2, 19918, Note_on_c, 0, 43, 0
2, 19920, Note_on_c, 0, 40, 80
2, 19926, Note_on_c, 0, 66, 80
2, 19926, Note_on_c, 0, 78, 80
2, 19928, Note_on_c, 0, 55, 0
2, 19928, Note_on_c, 0, 52, 80
2, 19974, Note_on_c, 0, 51, 80
2, 19981, Note_on_c, 0, 52, 0
2, 19981, Note_on_c, 0, 40, 0
2, 19981, Note_on_c, 0, 74, 80
2, 19983, Note_on_c, 0, 39, 80
2, 19985, Note_on_c, 0, 66, 0
2, 19985, Note_on_c, 0, 71, 80
2, 19985, Note_on_c, 0, 79, 80
2, 19990, Note_on_c, 0, 78, 0
2, 19990, Note_on_c, 0, 67, 80
2, 20024, Note_on_c, 0, 39, 0
2, 20024, Note_on_c, 0, 51, 0
2, 20031, Note_on_c, 0, 50, 80
2, 20033, Note_on_c, 0, 38, 80
2, 20038, Note_on_c, 0, 67, 0
2, 20061, Note_on_c, 0, 79, 0
2, 20065, Note_on_c, 0, 74, 0
2, 20065, Note_on_c, 0, 71, 0
2, 20075, Note_on_c, 0, 37, 80
2, 20080, Note_on_c, 0, 55, 80
2, 20082, Note_on_c, 0, 38, 0
2, 20082, Note_on_c, 0, 67, 80
2, 20084, Note_on_c, 0, 50, 0
2, 20084, Note_on_c, 0, 49, 80
2, 20125, Control_c, 0, 64, 127
2, 20125, Note_on_c, 0, 36, 80
2, 20127, Note_on_c, 0, 49, 0
2, 20127, Note_on_c, 0, 37, 0
2, 20129, Note_on_c, 0, 48, 80
2, 20134, Note_on_c, 0, 67, 0
2, 20134, Note_on_c, 0, 55, 0
2, 20182, Note_on_c, 0, 55, 80
2, 20186, Note_on_c, 0, 67, 80
2, 20208, Control_c, 0, 64, 0
2, 20229, Note_on_c, 0, 64, 80
2, 20229, Note_on_c, 0, 72, 80
2, 20231, Note_on_c, 0, 67, 0
2, 20232, Note_on_c, 0, 60, 80
2, 20249, Note_on_c, 0, 64, 0
2, 20277, Note_on_c, 0, 60, 0
2, 20279, Note_on_c, 0, 64, 80
2, 20280, Note_on_c, 0, 72, 0
2, 20280, Note_on_c, 0, 76, 80
2, 20282, Note_on_c, 0, 55, 0
2, 20296, Note_on_c, 0, 48, 0
2, 20296, Note_on_c, 0, 36, 0
2, 20314, Note_on_c, 0, 40, 80
2, 20326, Note_on_c, 0, 79, 80
2, 20328, Note_on_c, 0, 67, 80
2, 20328, Note_on_c, 0, 72, 80
2, 20332, Note_on_c, 0, 64, 0
2, 20332, Note_on_c, 0, 52, 80
2, 20337, Note_on_c, 0, 76, 0
2, 20370, Note_on_c, 0, 40, 0
2, 20375, Note_on_c, 0, 52, 0
2, 20376, Note_on_c, 0, 79, 0
2, 20378, Note_on_c, 0, 67, 0
2, 20383, Note_on_c, 0, 72, 0
2, 20424, Note_on_c, 0, 51, 80
2, 20424, Note_on_c, 0, 72, 80
2, 20429, Note_on_c, 0, 39, 80
2, 20429, Note_on_c, 0, 81, 80
2, 20436, Note_on_c, 0, 69, 80
2, 20477, Note_on_c, 0, 79, 80
2, 20479, Note_on_c, 0, 39, 0
2, 20479, Note_on_c, 0, 51, 0
2, 20481, Note_on_c, 0, 67, 80
2, 20481, Note_on_c, 0, 71, 80
2, 20483, Note_on_c, 0, 72, 0
2, 20483, Note_on_c, 0, 69, 0
2, 20490, Note_on_c, 0, 81, 0
2, 20526, Control_c, 0, 64, 127
2, 20528, Note_on_c, 0, 38, 80
2, 20533, Note_on_c, 0, 50, 80
2, 20561, Note_on_c, 0, 79, 0
2, 20577, Note_on_c, 0, 64, 80
2, 20577, Note_on_c, 0, 76, 80
2, 20582, Note_on_c, 0, 50, 0
2, 20584, Note_on_c, 0, 38, 0
2, 20609, Control_c, 0, 64, 0
2, 20622, Note_on_c, 0, 74, 80
2, 20627, Note_on_c, 0, 43, 80
2, 20627, Note_on_c, 0, 55, 80
2, 20627, Note_on_c, 0, 62, 80
2, 20634, Note_on_c, 0, 64, 0
2, 20634, Note_on_c, 0, 67, 0
2, 20640, Note_on_c, 0, 71, 0
2, 20645, Note_on_c, 0, 76, 0
2, 20670, Note_on_c, 0, 43, 0
2, 20672, Note_on_c, 0, 59, 80
2, 20677, Note_on_c, 0, 71, 80
2, 20682, Note_on_c, 0, 62, 0
2, 20684, Note_on_c, 0, 74, 0
2, 20686, Note_on_c, 0, 55, 0
2, 20720, Note_on_c, 0, 47, 80
2, 20720, Note_on_c, 0, 55, 80
2, 20722, Note_on_c, 0, 62, 80
2, 20729, Note_on_c, 0, 52, 80
2, 20729, Note_on_c, 0, 64, 80
2, 20738, Note_on_c, 0, 71, 0
2, 20771, Note_on_c, 0, 71, 80
2, 20781, Note_on_c, 0, 64, 0
2, 20827, Note_on_c, 0, 67, 80
2, 20833, Note_on_c, 0, 71, 0
2, 20868, Note_on_c, 0, 64, 80
2, 20870, Note_on_c, 0, 47, 0
2, 20872, Note_on_c, 0, 62, 0
2, 20872, Note_on_c, 0, 59, 0
2, 20879, Note_on_c, 0, 55, 0
2, 20883, Note_on_c, 0, 67, 0
2, 20916, Note_on_c, 0, 57, 80
2, 20918, Control_c, 0, 64, 127
2, 20920, Note_on_c, 0, 45, 80
2, 20925, Note_on_c, 0, 52, 0
2, 20925, Note_on_c, 0, 64, 0
2, 20927, Note_on_c, 0, 61, 80
2, 20927, Note_on_c, 0, 67, 80
2, 20966, Note_on_c, 0, 43, 80
2, 20966, Note_on_c, 0, 55, 80
2, 20971, Note_on_c, 0, 57, 0
2, 20977, Note_on_c, 0, 45, 0
2, 21000, Control_c, 0, 64, 0
2, 21014, Note_on_c, 0, 40, 80
2, 21019, Note_on_c, 0, 43, 0
2, 21025, Note_on_c, 0, 55, 0
2, 21027, Note_on_c, 0, 52, 80
2, 21069, Note_on_c, 0, 51, 80
2, 21073, Note_on_c, 0, 39, 80
2, 21075, Note_on_c, 0, 40, 0
2, 21082, Note_on_c, 0, 52, 0
2, 21082, Note_on_c, 0, 67, 0
2, 21112, Note_on_c, 0, 61, 0
2, 21130, Note_on_c, 0, 38, 80
2, 21132, Note_on_c, 0, 51, 0
2, 21132, Note_on_c, 0, 39, 0
2, 21132, Note_on_c, 0, 50, 80
2, 21132, Note_on_c, 0, 57, 80
2, 21132, Note_on_c, 0, 62, 80
2, 21132, Note_on_c, 0, 66, 80
2, 21137, Note_on_c, 0, 60, 80
2, 21139, Note_on_c, 0, 69, 80
2, 21164, Note_on_c, 0, 60, 0
2, 21164, Note_on_c, 0, 57, 0
2, 21166, Note_on_c, 0, 69, 0
2, 21187, Note_on_c, 0, 57, 80
2, 21189, Note_on_c, 0, 60, 80
2, 21195, Note_on_c, 0, 69, 80
2, 21269, Note_on_c, 0, 57, 0
2, 21269, Note_on_c, 0, 62, 0
2, 21274, Note_on_c, 0, 60, 0
2, 21274, Note_on_c, 0, 66, 0
2, 21274, Note_on_c, 0, 69, 0
2, 21290, Note_on_c, 0, 50, 0
2, 21290, Note_on_c, 0, 55, 80
2, 21290, Note_on_c, 0, 59, 80
2, 21295, Note_on_c, 0, 62, 80
2, 21295, Note_on_c, 0, 67, 80
2, 21318, Note_on_c, 0, 38, 0
2, 21335, Control_c, 0, 64, 127
2, 21336, Note_on_c, 0, 43, 80
2, 21420, Control_c, 0, 64, 0
2, 21422, Note_on_c, 0, 62, 0
2, 21422, Note_on_c, 0, 59, 0
2, 21424, Note_on_c, 0, 67, 0
2, 21440, Note_on_c, 0, 74, 80
2, 21452, Note_on_c, 0, 86, 80
2, 21519, Note_on_c, 0, 43, 0
2, 21519, Note_on_c, 0, 55, 0
2, 21540, Note_on_c, 0, 47, 80
2, 21545, Note_on_c, 0, 59, 80
2, 21591, Note_on_c, 0, 47, 0
2, 21596, Note_on_c, 0, 59, 0
2, 21600, Note_on_c, 0, 74, 0
2, 21605, Note_on_c, 0, 86, 0
2, 21638, Note_on_c, 0, 74, 80
2, 21643, Note_on_c, 0, 56, 80
2, 21645, Note_on_c, 0, 44, 80
2, 21651, Note_on_c, 0, 77, 80
2, 21651, Note_on_c, 0, 83, 80
2, 21696, Note_on_c, 0, 44, 0
2, 21696, Note_on_c, 0, 74, 0
2, 21696, Note_on_c, 0, 56, 0
2, 21707, Note_on_c, 0, 77, 0
2, 21707, Note_on_c, 0, 83, 0
2, 21737, Control_c, 0, 64, 127
2, 21744, Note_on_c, 0, 96, 80
2, 21745, Note_on_c, 0, 45, 80
2, 21745, Note_on_c, 0, 57, 80
2, 21750, Note_on_c, 0, 90, 80
2, 21755, Note_on_c, 0, 86, 80
2, 21796, Note_on_c, 0, 45, 0
2, 21801, Note_on_c, 0, 57, 0
2, 21852, Note_on_c, 0, 50, 80
2, 21852, Note_on_c, 0, 54, 80
2, 21852, Note_on_c, 0, 60, 80
2, 21885, Control_c, 0, 64, 0
2, 21906, Note_on_c, 0, 60, 0
2, 21911, Note_on_c, 0, 50, 0
2, 21911, Note_on_c, 0, 54, 0
2, 21950, Note_on_c, 0, 42, 80
2, 21955, Note_on_c, 0, 54, 80
2, 21983, Note_on_c, 0, 96, 0
2, 21994, Note_on_c, 0, 90, 0
2, 22008, Note_on_c, 0, 80, 80
2, 22008, Note_on_c, 0, 83, 80
2, 22014, Note_on_c, 0, 42, 0
2, 22014, Note_on_c, 0, 54, 0
2, 22014, Note_on_c, 0, 86, 0
2, 22054, Note_on_c, 0, 50, 80
2, 22054, Note_on_c, 0, 60, 80
2, 22056, Note_on_c, 0, 54, 80
2, 22065, Note_on_c, 0, 83, 0
2, 22065, Note_on_c, 0, 81, 80
2, 22065, Note_on_c, 0, 84, 80
2, 22067, Note_on_c, 0, 80, 0
2, 22104, Note_on_c, 0, 50, 0
2, 22105, Note_on_c, 0, 54, 0
2, 22105, Note_on_c, 0, 60, 0
2, 22110, Note_on_c, 0, 81, 0
2, 22117, Note_on_c, 0, 84, 0
2, 22142, Control_c, 0, 64, 127
2, 22149, Note_on_c, 0, 50, 80
2, 22151, Note_on_c, 0, 38, 80
2, 22151, Note_on_c, 0, 80, 80
2, 22157, Note_on_c, 0, 77, 80
2, 22199, Note_on_c, 0, 78, 80
2, 22199, Note_on_c, 0, 81, 80
2, 22200, Note_on_c, 0, 38, 0
2, 22202, Note_on_c, 0, 50, 0
2, 22204, Note_on_c, 0, 80, 0
2, 22206, Note_on_c, 0, 77, 0
2, 22224, Control_c, 0, 64, 0
2, 22238, Note_on_c, 0, 54, 80
2, 22240, Note_on_c, 0, 50, 80
2, 22245, Note_on_c, 0, 60, 80
2, 22272, Note_on_c, 0, 78, 0
2, 22277, Note_on_c, 0, 81, 0
2, 22294, Note_on_c, 0, 60, 0
2, 22294, Note_on_c, 0, 80, 80
2, 22298, Note_on_c, 0, 83, 80
2, 22300, Note_on_c, 0, 54, 0
2, 22302, Note_on_c, 0, 50, 0
2, 22330, Note_on_c, 0, 38, 80
2, 22335, Note_on_c, 0, 50, 80
2, 22344, Note_on_c, 0, 80, 0
2, 22344, Note_on_c, 0, 81, 80
2, 22346, Note_on_c, 0, 84, 80
2, 22348, Note_on_c, 0, 83, 0
2, 22394, Note_on_c, 0, 50, 0
2, 22394, Note_on_c, 0, 38, 0
2, 22401, Note_on_c, 0, 81, 0
2, 22403, Note_on_c, 0, 84, 0
2, 22442, Note_on_c, 0, 88, 80
2, 22447, Note_on_c, 0, 50, 80
2, 22447, Note_on_c, 0, 54, 80
2, 22447, Note_on_c, 0, 60, 80
2, 22461, Note_on_c, 0, 84, 80
2, 22500, Note_on_c, 0, 50, 0
2, 22502, Note_on_c, 0, 54, 0
2, 22504, Note_on_c, 0, 88, 0
2, 22509, Note_on_c, 0, 60, 0
2, 22511, Note_on_c, 0, 84, 0
2, 22543, Control_c, 0, 64, 127
2, 22548, Note_on_c, 0, 43, 80
2, 22561, Note_on_c, 0, 55, 80
2, 22561, Note_on_c, 0, 82, 80
2, 22561, Note_on_c, 0, 85, 80
2, 22609, Note_on_c, 0, 43, 0
2, 22611, Note_on_c, 0, 83, 80
2, 22611, Note_on_c, 0, 86, 80
2, 22613, Note_on_c, 0, 82, 0
2, 22618, Note_on_c, 0, 85, 0
2, 22618, Note_on_c, 0, 55, 0
2, 22639, Control_c, 0, 64, 0
2, 22653, Note_on_c, 0, 59, 80
2, 22657, Note_on_c, 0, 55, 80
2, 22659, Note_on_c, 0, 50, 80
2, 22671, Note_on_c, 0, 86, 0
2, 22692, Note_on_c, 0, 83, 0
2, 22708, Note_on_c, 0, 59, 0
2, 22708, Note_on_c, 0, 91, 80
2, 22708, Note_on_c, 0, 95, 80
2, 22713, Note_on_c, 0, 55, 0
2, 22713, Note_on_c, 0, 50, 0
2, 22715, Note_on_c, 0, 86, 80
2, 22759, Note_on_c, 0, 50, 80
2, 22761, Note_on_c, 0, 38, 80
2, 22796, Note_on_c, 0, 95, 0
2, 22800, Note_on_c, 0, 86, 0
2, 22812, Note_on_c, 0, 50, 0
2, 22814, Note_on_c, 0, 38, 0
2, 22816, Note_on_c, 0, 85, 80
2, 22816, Note_on_c, 0, 94, 80
2, 22837, Note_on_c, 0, 91, 0
2, 22858, Note_on_c, 0, 50, 80
2, 22858, Note_on_c, 0, 59, 80
2, 22860, Note_on_c, 0, 55, 80
2, 22862, Note_on_c, 0, 94, 0
2, 22862, Note_on_c, 0, 85, 0
2, 22862, Note_on_c, 0, 86, 80
2, 22862, Note_on_c, 0, 91, 80
2, 22862, Note_on_c, 0, 95, 80
2, 22906, Note_on_c, 0, 59, 0
2, 22908, Note_on_c, 0, 83, 80
2, 22910, Note_on_c, 0, 55, 0
2, 22910, Note_on_c, 0, 50, 0
2, 22920, Note_on_c, 0, 95, 0
2, 22947, Control_c, 0, 64, 127
2, 22952, Note_on_c, 0, 43, 80
2, 22952, Note_on_c, 0, 55, 80
2, 22985, Note_on_c, 0, 91, 0
2, 22990, Note_on_c, 0, 83, 0
2, 22994, Note_on_c, 0, 86, 0
2, 23001, Note_on_c, 0, 43, 0
2, 23003, Note_on_c, 0, 42, 80
2, 23010, Note_on_c, 0, 55, 0
2, 23010, Note_on_c, 0, 54, 80
2, 23010, Note_on_c, 0, 90, 80
2, 23035, Control_c, 0, 64, 0
2, 23056, Note_on_c, 0, 41, 80
2, 23056, Note_on_c, 0, 53, 80
2, 23058, Note_on_c, 0, 91, 80
2, 23060, Note_on_c, 0, 54, 0
2, 23060, Note_on_c, 0, 42, 0
2, 23062, Note_on_c, 0, 83, 80
2, 23062, Note_on_c, 0, 86, 80
2, 23068, Note_on_c, 0, 90, 0
2, 23103, Note_on_c, 0, 43, 80
2, 23105, Note_on_c, 0, 41, 0
2, 23105, Note_on_c, 0, 55, 80
2, 23112, Note_on_c, 0, 53, 0
2, 23113, Note_on_c, 0, 86, 0
2, 23113, Note_on_c, 0, 91, 0
2, 23118, Note_on_c, 0, 83, 0
2, 23151, Note_on_c, 0, 40, 80
2, 23160, Note_on_c, 0, 55, 0
2, 23160, Note_on_c, 0, 43, 0
2, 23162, Note_on_c, 0, 52, 80
2, 23164, Note_on_c, 0, 90, 80
2, 23212, Note_on_c, 0, 51, 80
2, 23214, Note_on_c, 0, 40, 0
2, 23214, Note_on_c, 0, 91, 80
2, 23216, Note_on_c, 0, 39, 80
2, 23218, Note_on_c, 0, 83, 80
2, 23220, Note_on_c, 0, 52, 0
2, 23220, Note_on_c, 0, 90, 0
2, 23222, Note_on_c, 0, 86, 80
2, 23263, Note_on_c, 0, 38, 80
2, 23268, Note_on_c, 0, 50, 80
2, 23270, Note_on_c, 0, 51, 0
2, 23270, Note_on_c, 0, 39, 0
2, 23295, Note_on_c, 0, 91, 0
2, 23300, Note_on_c, 0, 83, 0
2, 23302, Note_on_c, 0, 86, 0
2, 23308, Note_on_c, 0, 37, 80
2, 23318, Note_on_c, 0, 79, 80
2, 23323, Note_on_c, 0, 38, 0
2, 23323, Note_on_c, 0, 49, 80
2, 23328, Note_on_c, 0, 50, 0
2, 23364, Note_on_c, 0, 48, 80
2, 23366, Control_c, 0, 64, 127
2, 23371, Note_on_c, 0, 36, 80
2, 23376, Note_on_c, 0, 79, 0
2, 23376, Note_on_c, 0, 49, 0
2, 23376, Note_on_c, 0, 37, 0
2, 23424, Note_on_c, 0, 79, 80
2, 23451, Control_c, 0, 64, 0
2, 23470, Note_on_c, 0, 55, 80
2, 23474, Note_on_c, 0, 64, 80
2, 23476, Note_on_c, 0, 60, 80
2, 23483, Note_on_c, 0, 79, 0
2, 23483, Note_on_c, 0, 84, 80
2, 23522, Note_on_c, 0, 88, 80
2, 23534, Note_on_c, 0, 64, 0
2, 23534, Note_on_c, 0, 55, 0
2, 23536, Note_on_c, 0, 60, 0
2, 23538, Note_on_c, 0, 84, 0
2, 23551, Note_on_c, 0, 36, 0
2, 23556, Note_on_c, 0, 48, 0
2, 23563, Note_on_c, 0, 40, 80
2, 23576, Note_on_c, 0, 88, 0
2, 23576, Note_on_c, 0, 79, 80
2, 23581, Note_on_c, 0, 91, 80
2, 23583, Note_on_c, 0, 52, 80
2, 23588, Note_on_c, 0, 84, 80
2, 23629, Note_on_c, 0, 79, 0
2, 23629, Note_on_c, 0, 40, 0
2, 23634, Note_on_c, 0, 91, 0
2, 23639, Note_on_c, 0, 52, 0
2, 23639, Note_on_c, 0, 84, 0
2, 23675, Note_on_c, 0, 39, 80
2, 23675, Note_on_c, 0, 51, 80
2, 23682, Note_on_c, 0, 93, 80
2, 23687, Note_on_c, 0, 81, 80
2, 23693, Note_on_c, 0, 84, 80
2, 23730, Note_on_c, 0, 39, 0
2, 23735, Note_on_c, 0, 51, 0
2, 23736, Note_on_c, 0, 79, 80
2, 23736, Note_on_c, 0, 91, 80
2, 23741, Note_on_c, 0, 93, 0
2, 23741, Note_on_c, 0, 83, 80
2, 23753, Note_on_c, 0, 84, 0
2, 23753, Note_on_c, 0, 81, 0
2, 23785, Control_c, 0, 64, 127
2, 23790, Note_on_c, 0, 38, 80
2, 23800, Note_on_c, 0, 50, 80
2, 23805, Note_on_c, 0, 83, 0
2, 23828, Note_on_c, 0, 91, 0
2, 23856, Note_on_c, 0, 50, 0
2, 23856, Note_on_c, 0, 38, 0
2, 23857, Note_on_c, 0, 79, 0
2, 23859, Note_on_c, 0, 83, 80
2, 23887, Control_c, 0, 64, 0
2, 23905, Note_on_c, 0, 55, 80
2, 23907, Note_on_c, 0, 59, 80
2, 23909, Note_on_c, 0, 62, 80
2, 23916, Note_on_c, 0, 86, 80
2, 23921, Note_on_c, 0, 83, 0
2, 23962, Note_on_c, 0, 88, 80
2, 23969, Note_on_c, 0, 55, 0
2, 23974, Note_on_c, 0, 62, 0
2, 23974, Note_on_c, 0, 59, 0
2, 23983, Note_on_c, 0, 86, 0
2, 24000, Note_on_c, 0, 88, 0
2, 24018, Note_on_c, 0, 43, 80
2, 24020, Note_on_c, 0, 55, 80
2, 24022, Note_on_c, 0, 88, 80
2, 24024, Note_on_c, 0, 77, 80
2, 24024, Note_on_c, 0, 83, 80
2, 24070, Note_on_c, 0, 43, 0
2, 24076, Note_on_c, 0, 88, 0
2, 24078, Note_on_c, 0, 55, 0
2, 24080, Note_on_c, 0, 86, 80
2, 24087, Note_on_c, 0, 77, 0
2, 24103, Note_on_c, 0, 83, 0
2, 24121, Note_on_c, 0, 35, 80
2, 24123, Note_on_c, 0, 47, 80
2, 24123, Note_on_c, 0, 79, 80
2, 24125, Note_on_c, 0, 88, 80
2, 24135, Note_on_c, 0, 77, 80
2, 24140, Note_on_c, 0, 86, 0
2, 24172, Note_on_c, 0, 88, 0
2, 24179, Note_on_c, 0, 47, 0
2, 24181, Note_on_c, 0, 35, 0
2, 24183, Note_on_c, 0, 79, 0
2, 24183, Note_on_c, 0, 86, 80
2, 24216, Note_on_c, 0, 77, 0
2, 24222, Control_c, 0, 64, 127
2, 24224, Note_on_c, 0, 36, 80
2, 24226, Note_on_c, 0, 48, 80
2, 24226, Note_on_c, 0, 79, 80
2, 24233, Note_on_c, 0, 76, 80
2, 24238, Note_on_c, 0, 84, 80
2, 24240, Note_on_c, 0, 86, 0
2, 24281, Note_on_c, 0, 48, 0
2, 24283, Note_on_c, 0, 36, 0
2, 24289, Note_on_c, 0, 76, 0
2, 24289, Note_on_c, 0, 84, 0
2, 24308, Control_c, 0, 64, 0
2, 24326, Note_on_c, 0, 64, 80
2, 24328, Note_on_c, 0, 79, 0
2, 24328, Note_on_c, 0, 55, 80
2, 24328, Note_on_c, 0, 60, 80
2, 24339, Note_on_c, 0, 84, 80
2, 24376, Note_on_c, 0, 88, 80
2, 24383, Note_on_c, 0, 64, 0
2, 24384, Note_on_c, 0, 55, 0
2, 24384, Note_on_c, 0, 60, 0
2, 24389, Note_on_c, 0, 84, 0
2, 24431, Note_on_c, 0, 40, 80
2, 24435, Note_on_c, 0, 91, 80
2, 24437, Note_on_c, 0, 88, 0
2, 24439, Note_on_c, 0, 52, 80
2, 24439, Note_on_c, 0, 79, 80
2, 24446, Note_on_c, 0, 84, 80
2, 24485, Note_on_c, 0, 40, 0
2, 24490, Note_on_c, 0, 79, 0
2, 24495, Note_on_c, 0, 91, 0
2, 24495, Note_on_c, 0, 52, 0
2, 24500, Note_on_c, 0, 84, 0
2, 24544, Note_on_c, 0, 51, 80
2, 24546, Note_on_c, 0, 39, 80
2, 24546, Note_on_c, 0, 93, 80
2, 24551, Note_on_c, 0, 81, 80
2, 24560, Note_on_c, 0, 84, 80
2, 24604, Note_on_c, 0, 39, 0
2, 24609, Note_on_c, 0, 51, 0
2, 24611, Note_on_c, 0, 93, 0
2, 24611, Note_on_c, 0, 83, 80
2, 24611, Note_on_c, 0, 91, 80
2, 24611, Note_on_c, 0, 95, 80
2, 24613, Note_on_c, 0, 81, 0
2, 24615, Note_on_c, 0, 86, 80
2, 24617, Note_on_c, 0, 84, 0
2, 24653, Control_c, 0, 64, 127
2, 24658, Note_on_c, 0, 38, 80
2, 24663, Note_on_c, 0, 50, 80
2, 24696, Note_on_c, 0, 83, 0
2, 24697, Note_on_c, 0, 86, 0
2, 24697, Note_on_c, 0, 95, 0
2, 24714, Note_on_c, 0, 50, 0
2, 24719, Note_on_c, 0, 38, 0
2, 24740, Control_c, 0, 64, 0
2, 24765, Note_on_c, 0, 55, 80
2, 24765, Note_on_c, 0, 59, 80
2, 24767, Note_on_c, 0, 62, 80
2, 24773, Note_on_c, 0, 95, 80
2, 24798, Note_on_c, 0, 91, 0
2, 24823, Note_on_c, 0, 62, 0
2, 24823, Note_on_c, 0, 59, 0
2, 24825, Note_on_c, 0, 55, 0
2, 24830, Note_on_c, 0, 95, 0
2, 24864, Note_on_c, 0, 43, 80
2, 24869, Note_on_c, 0, 91, 80
2, 24874, Note_on_c, 0, 55, 80
2, 24874, Note_on_c, 0, 98, 80
2, 24879, Note_on_c, 0, 95, 80
2, 24884, Note_on_c, 0, 86, 80
2, 24923, Note_on_c, 0, 43, 0
2, 24925, Note_on_c, 0, 98, 0
2, 24925, Note_on_c, 0, 55, 0
2, 24927, Note_on_c, 0, 91, 0
2, 24932, Note_on_c, 0, 95, 0
2, 24934, Note_on_c, 0, 86, 0
2, 24970, Note_on_c, 0, 44, 80
2, 24972, Note_on_c, 0, 89, 80
2, 24977, Note_on_c, 0, 56, 80
2, 24977, Note_on_c, 0, 86, 80
2, 24977, Note_on_c, 0, 95, 80
2, 25028, Note_on_c, 0, 44, 0
2, 25030, Note_on_c, 0, 89, 0
2, 25030, Note_on_c, 0, 56, 0
2, 25034, Note_on_c, 0, 95, 0
2, 25036, Note_on_c, 0, 86, 0
2, 25069, Control_c, 0, 64, 127
2, 25071, Note_on_c, 0, 45, 80
2, 25076, Note_on_c, 0, 57, 80
2, 25078, Note_on_c, 0, 96, 80
2, 25082, Note_on_c, 0, 90, 80
2, 25084, Note_on_c, 0, 86, 80
2, 25130, Note_on_c, 0, 45, 0
2, 25135, Note_on_c, 0, 57, 0
2, 25153, Control_c, 0, 64, 0
2, 25181, Note_on_c, 0, 50, 80
2, 25181, Note_on_c, 0, 60, 80
2, 25183, Note_on_c, 0, 54, 80
2, 25241, Note_on_c, 0, 54, 0
2, 25241, Note_on_c, 0, 50, 0
2, 25243, Note_on_c, 0, 60, 0
2, 25287, Note_on_c, 0, 42, 80
2, 25294, Note_on_c, 0, 54, 80
2, 25317, Note_on_c, 0, 96, 0
2, 25326, Note_on_c, 0, 90, 0
2, 25328, Note_on_c, 0, 86, 0
2, 25351, Note_on_c, 0, 42, 0
2, 25351, Note_on_c, 0, 83, 80
2, 25353, Note_on_c, 0, 54, 0
2, 25353, Note_on_c, 0, 80, 80
2, 25399, Note_on_c, 0, 60, 80
2, 25401, Note_on_c, 0, 50, 80
2, 25401, Note_on_c, 0, 54, 80
2, 25403, Note_on_c, 0, 80, 0
2, 25403, Note_on_c, 0, 83, 0
2, 25405, Note_on_c, 0, 81, 80
2, 25410, Note_on_c, 0, 84, 80
2, 25454, Note_on_c, 0, 50, 0
2, 25456, Note_on_c, 0, 54, 0
2, 25458, Note_on_c, 0, 60, 0
2, 25460, Note_on_c, 0, 81, 0
2, 25464, Note_on_c, 0, 84, 0
2, 25492, Control_c, 0, 64, 127
2, 25499, Note_on_c, 0, 38, 80
2, 25501, Note_on_c, 0, 50, 80
2, 25508, Note_on_c, 0, 80, 80
2, 25512, Note_on_c, 0, 77, 80
2, 25554, Note_on_c, 0, 50, 0
2, 25554, Note_on_c, 0, 38, 0
2, 25559, Note_on_c, 0, 81, 80
2, 25563, Note_on_c, 0, 80, 0
2, 25563, Note_on_c, 0, 78, 80
2, 25573, Note_on_c, 0, 77, 0
2, 25583, Control_c, 0, 64, 0
2, 25606, Note_on_c, 0, 50, 80
2, 25606, Note_on_c, 0, 54, 80
2, 25610, Note_on_c, 0, 60, 80
2, 25640, Note_on_c, 0, 78, 0
2, 25645, Note_on_c, 0, 81, 0
2, 25661, Note_on_c, 0, 50, 0
2, 25661, Note_on_c, 0, 83, 80
2, 25666, Note_on_c, 0, 54, 0
2, 25666, Note_on_c, 0, 60, 0
2, 25666, Note_on_c, 0, 80, 80
2, 25707, Note_on_c, 0, 42, 80
2, 25707, Note_on_c, 0, 54, 80
2, 25712, Note_on_c, 0, 81, 80
2, 25717, Note_on_c, 0, 80, 0
2, 25719, Note_on_c, 0, 84, 80
2, 25721, Note_on_c, 0, 83, 0
2, 25765, Note_on_c, 0, 54, 0
2, 25765, Note_on_c, 0, 42, 0
2, 25772, Note_on_c, 0, 81, 0
2, 25772, Note_on_c, 0, 84, 0
2, 25801, Note_on_c, 0, 88, 80
2, 25803, Note_on_c, 0, 54, 80
2, 25808, Note_on_c, 0, 50, 80
2, 25808, Note_on_c, 0, 60, 80
2, 25818, Note_on_c, 0, 84, 80
2, 25864, Note_on_c, 0, 88, 0
2, 25866, Note_on_c, 0, 60, 0
2, 25871, Note_on_c, 0, 54, 0
2, 25871, Note_on_c, 0, 50, 0
2, 25875, Note_on_c, 0, 84, 0
2, 25912, Note_on_c, 0, 55, 80
2, 25914, Control_c, 0, 64, 127
2, 25914, Note_on_c, 0, 43, 80
2, 25920, Note_on_c, 0, 82, 80
2, 25920, Note_on_c, 0, 85, 80
2, 25967, Note_on_c, 0, 43, 0
2, 25968, Note_on_c, 0, 83, 80
2, 25970, Note_on_c, 0, 85, 0
2, 25972, Note_on_c, 0, 55, 0
2, 25972, Note_on_c, 0, 86, 80
2, 25979, Note_on_c, 0, 82, 0
2, 25995, Control_c, 0, 64, 0
2, 26016, Note_on_c, 0, 59, 80
2, 26018, Note_on_c, 0, 55, 80
2, 26023, Note_on_c, 0, 50, 80
2, 26035, Note_on_c, 0, 86, 0
2, 26060, Note_on_c, 0, 83, 0
2, 26069, Note_on_c, 0, 50, 0
2, 26069, Note_on_c, 0, 91, 80
2, 26074, Note_on_c, 0, 86, 80
2, 26074, Note_on_c, 0, 95, 80
2, 26076, Note_on_c, 0, 59, 0
2, 26078, Note_on_c, 0, 55, 0
2, 26114, Note_on_c, 0, 50, 80
2, 26116, Note_on_c, 0, 38, 80
2, 26121, Note_on_c, 0, 91, 0
2, 26156, Note_on_c, 0, 95, 0
2, 26156, Note_on_c, 0, 86, 0
2, 26167, Note_on_c, 0, 91, 80
2, 26172, Note_on_c, 0, 85, 80
2, 26172, Note_on_c, 0, 94, 80
2, 26174, Note_on_c, 0, 50, 0
2, 26174, Note_on_c, 0, 38, 0
2, 26215, Note_on_c, 0, 50, 80
2, 26215, Note_on_c, 0, 55, 80
2, 26220, Note_on_c, 0, 94, 0
2, 26220, Note_on_c, 0, 86, 80
2, 26220, Note_on_c, 0, 95, 80
2, 26222, Note_on_c, 0, 85, 0
2, 26222, Note_on_c, 0, 59, 80
2, 26266, Note_on_c, 0, 50, 0
2, 26271, Note_on_c, 0, 55, 0
2, 26271, Note_on_c, 0, 59, 0
2, 26271, Note_on_c, 0, 83, 80
2, 26273, Note_on_c, 0, 95, 0
2, 26307, Control_c, 0, 64, 127
2, 26307, Note_on_c, 0, 43, 80
2, 26314, Note_on_c, 0, 55, 80
2, 26347, Note_on_c, 0, 91, 0
2, 26352, Note_on_c, 0, 42, 80
2, 26353, Note_on_c, 0, 43, 0
2, 26360, Note_on_c, 0, 55, 0
2, 26360, Note_on_c, 0, 54, 80
2, 26365, Note_on_c, 0, 90, 80
2, 26367, Note_on_c, 0, 83, 0
2, 26372, Note_on_c, 0, 86, 0
2, 26385, Control_c, 0, 64, 0
2, 26401, Note_on_c, 0, 53, 80
2, 26403, Note_on_c, 0, 41, 80
2, 26408, Note_on_c, 0, 83, 80
2, 26410, Note_on_c, 0, 86, 80
2, 26410, Note_on_c, 0, 91, 80
2, 26412, Note_on_c, 0, 42, 0
2, 26417, Note_on_c, 0, 54, 0
2, 26417, Note_on_c, 0, 90, 0
2, 26451, Note_on_c, 0, 43, 80
2, 26451, Note_on_c, 0, 55, 80
2, 26453, Note_on_c, 0, 41, 0
2, 26455, Note_on_c, 0, 53, 0
2, 26462, Note_on_c, 0, 91, 0
2, 26464, Note_on_c, 0, 83, 0
2, 26466, Note_on_c, 0, 86, 0
2, 26498, Note_on_c, 0, 43, 0
2, 26498, Note_on_c, 0, 40, 80
2, 26505, Note_on_c, 0, 55, 0
2, 26510, Note_on_c, 0, 52, 80
2, 26512, Note_on_c, 0, 90, 80
2, 26553, Note_on_c, 0, 51, 80
2, 26555, Note_on_c, 0, 40, 0
2, 26555, Note_on_c, 0, 39, 80
2, 26557, Note_on_c, 0, 91, 80
2, 26562, Note_on_c, 0, 86, 80
2, 26567, Note_on_c, 0, 52, 0
2, 26567, Note_on_c, 0, 90, 0
2, 26571, Note_on_c, 0, 83, 80
2, 26611, Note_on_c, 0, 39, 0
2, 26613, Note_on_c, 0, 38, 80
2, 26615, Note_on_c, 0, 51, 0
2, 26616, Note_on_c, 0, 50, 80
2, 26644, Note_on_c, 0, 91, 0
2, 26654, Note_on_c, 0, 83, 0
2, 26654, Note_on_c, 0, 86, 0
2, 26659, Note_on_c, 0, 37, 80
2, 26664, Note_on_c, 0, 79, 80
2, 26670, Note_on_c, 0, 38, 0
2, 26672, Note_on_c, 0, 50, 0
2, 26672, Note_on_c, 0, 49, 80
2, 26712, Control_c, 0, 64, 127
2, 26712, Note_on_c, 0, 36, 80
2, 26716, Note_on_c, 0, 37, 0
2, 26721, Note_on_c, 0, 48, 80
2, 26726, Note_on_c, 0, 79, 0
2, 26726, Note_on_c, 0, 49, 0
2, 26770, Note_on_c, 0, 79, 80
2, 26800, Control_c, 0, 64, 0
2, 26825, Note_on_c, 0, 55, 80
2, 26825, Note_on_c, 0, 60, 80
2, 26827, Note_on_c, 0, 79, 0
2, 26829, Note_on_c, 0, 64, 80
2, 26833, Note_on_c, 0, 84, 80
2, 26868, Note_on_c, 0, 88, 80
2, 26878, Note_on_c, 0, 64, 0
2, 26878, Note_on_c, 0, 55, 0
2, 26880, Note_on_c, 0, 60, 0
2, 26886, Note_on_c, 0, 84, 0
2, 26898, Note_on_c, 0, 48, 0
2, 26903, Note_on_c, 0, 36, 0
2, 26914, Note_on_c, 0, 40, 80
2, 26926, Note_on_c, 0, 52, 80
2, 26928, Note_on_c, 0, 88, 0
2, 26928, Note_on_c, 0, 79, 80
2, 26928, Note_on_c, 0, 91, 80
2, 26932, Note_on_c, 0, 84, 80
2, 26976, Note_on_c, 0, 40, 0
2, 26981, Note_on_c, 0, 91, 0
2, 26981, Note_on_c, 0, 52, 0
2, 26986, Note_on_c, 0, 79, 0
2, 26988, Note_on_c, 0, 84, 0
2, 27018, Note_on_c, 0, 39, 80
2, 27018, Note_on_c, 0, 51, 80
2, 27031, Note_on_c, 0, 81, 80
2, 27031, Note_on_c, 0, 84, 80
2, 27031, Note_on_c, 0, 93, 80
2, 27072, Note_on_c, 0, 39, 0
2, 27074, Note_on_c, 0, 79, 80
2, 27074, Note_on_c, 0, 91, 80
2, 27076, Note_on_c, 0, 51, 0
2, 27081, Note_on_c, 0, 93, 0
2, 27081, Note_on_c, 0, 83, 80
2, 27091, Note_on_c, 0, 84, 0
2, 27091, Note_on_c, 0, 81, 0
2, 27116, Control_c, 0, 64, 127
2, 27122, Note_on_c, 0, 50, 80
2, 27124, Note_on_c, 0, 38, 80
2, 27157, Note_on_c, 0, 91, 0
2, 27178, Note_on_c, 0, 88, 80
2, 27185, Note_on_c, 0, 50, 0
2, 27185, Note_on_c, 0, 38, 0
2, 27208, Control_c, 0, 64, 0
2, 27226, Note_on_c, 0, 43, 80
2, 27231, Note_on_c, 0, 55, 80
2, 27233, Note_on_c, 0, 88, 0
2, 27240, Note_on_c, 0, 86, 80
2, 27241, Note_on_c, 0, 79, 0
2, 27241, Note_on_c, 0, 83, 0
2, 27283, Note_on_c, 0, 43, 0
2, 27289, Note_on_c, 0, 55, 0
2, 27289, Note_on_c, 0, 83, 80
2, 27296, Note_on_c, 0, 86, 0
2, 27336, Note_on_c, 0, 47, 80
2, 27336, Note_on_c, 0, 52, 80
2, 27336, Note_on_c, 0, 55, 80
2, 27336, Note_on_c, 0, 59, 80
2, 27340, Note_on_c, 0, 76, 80
2, 27342, Note_on_c, 0, 74, 80
2, 27347, Note_on_c, 0, 83, 0
2, 27391, Note_on_c, 0, 83, 80
2, 27401, Note_on_c, 0, 76, 0
2, 27435, Note_on_c, 0, 79, 80
2, 27447, Note_on_c, 0, 83, 0
2, 27472, Note_on_c, 0, 74, 0
2, 27488, Note_on_c, 0, 47, 0
2, 27490, Note_on_c, 0, 76, 80
2, 27492, Note_on_c, 0, 59, 0
2, 27492, Note_on_c, 0, 52, 0
2, 27492, Note_on_c, 0, 55, 0
2, 27492, Note_on_c, 0, 79, 0
2, 27528, Control_c, 0, 64, 127
2, 27538, Note_on_c, 0, 45, 80
2, 27538, Note_on_c, 0, 57, 80
2, 27540, Note_on_c, 0, 73, 80
2, 27540, Note_on_c, 0, 79, 80
2, 27553, Note_on_c, 0, 76, 0
2, 27578, Note_on_c, 0, 43, 80
2, 27583, Note_on_c, 0, 55, 80
2, 27588, Note_on_c, 0, 45, 0
2, 27593, Note_on_c, 0, 57, 0
2, 27614, Control_c, 0, 64, 0
2, 27621, Note_on_c, 0, 40, 80
2, 27630, Note_on_c, 0, 52, 80
2, 27635, Note_on_c, 0, 43, 0
2, 27637, Note_on_c, 0, 55, 0
2, 27676, Note_on_c, 0, 40, 0
2, 27678, Note_on_c, 0, 45, 80
2, 27678, Note_on_c, 0, 57, 80
2, 27680, Note_on_c, 0, 52, 0
2, 27690, Note_on_c, 0, 79, 0
2, 27690, Note_on_c, 0, 73, 0
2, 27729, Note_on_c, 0, 38, 80
2, 27729, Note_on_c, 0, 72, 80
2, 27729, Note_on_c, 0, 74, 80
2, 27731, Note_on_c, 0, 50, 80
2, 27733, Note_on_c, 0, 45, 0
2, 27733, Note_on_c, 0, 57, 0
2, 27733, Note_on_c, 0, 78, 80
2, 27735, Note_on_c, 0, 81, 80
2, 27756, Note_on_c, 0, 74, 0
2, 27781, Note_on_c, 0, 74, 80
2, 27834, Note_on_c, 0, 74, 0
2, 27834, Note_on_c, 0, 72, 0
2, 27834, Note_on_c, 0, 78, 0
2, 27843, Note_on_c, 0, 81, 0
2, 27876, Note_on_c, 0, 35, 80
2, 27876, Note_on_c, 0, 47, 80
2, 27876, Note_on_c, 0, 74, 80
2, 27881, Note_on_c, 0, 71, 80
2, 27881, Note_on_c, 0, 79, 80
2, 27883, Note_on_c, 0, 38, 0
2, 27885, Note_on_c, 0, 50, 0
2, 27931, Note_on_c, 0, 43, 80
2, 27931, Note_on_c, 0, 55, 80
2, 27933, Control_c, 0, 64, 127
2, 27937, Note_on_c, 0, 47, 0
2, 27937, Note_on_c, 0, 35, 0
2, 28016, Control_c, 0, 64, 0
2, 28037, Note_on_c, 0, 50, 80
2, 28039, Note_on_c, 0, 62, 80
2, 28064, Note_on_c, 0, 43, 0
2, 28071, Note_on_c, 0, 55, 0
2, 28145, Note_on_c, 0, 52, 80
2, 28145, Note_on_c, 0, 64, 80
2, 28147, Note_on_c, 0, 74, 0
2, 28152, Note_on_c, 0, 71, 0
2, 28153, Note_on_c, 0, 79, 0
2, 28175, Note_on_c, 0, 50, 0
2, 28175, Note_on_c, 0, 62, 0
2, 28191, Note_on_c, 0, 55, 80
2, 28196, Note_on_c, 0, 67, 80
2, 28200, Note_on_c, 0, 64, 0
2, 28202, Note_on_c, 0, 52, 0
2, 28242, Note_on_c, 0, 55, 0
2, 28244, Note_on_c, 0, 50, 80
2, 28244, Note_on_c, 0, 62, 80
2, 28246, Note_on_c, 0, 67, 0
2, 28246, Note_on_c, 0, 57, 80
2, 28250, Note_on_c, 0, 69, 80
2, 28283, Note_on_c, 0, 59, 80
2, 28293, Note_on_c, 0, 57, 0
2, 28293, Note_on_c, 0, 50, 0
2, 28293, Note_on_c, 0, 62, 0
2, 28297, Note_on_c, 0, 71, 80
2, 28299, Note_on_c, 0, 69, 0
2, 28332, Control_c, 0, 64, 127
2, 28337, Note_on_c, 0, 43, 80
2, 28339, Note_on_c, 0, 62, 80
2, 28339, Note_on_c, 0, 74, 80
2, 28344, Note_on_c, 0, 67, 80
2, 28353, Note_on_c, 0, 59, 0
2, 28432, Note_on_c, 0, 59, 80
2, 28434, Note_on_c, 0, 55, 80
2, 28439, Control_c, 0, 64, 0
2, 28439, Note_on_c, 0, 50, 80
2, 28462, Note_on_c, 0, 43, 0
2, 28491, Note_on_c, 0, 50, 0
2, 28491, Note_on_c, 0, 62, 0
2, 28491, Note_on_c, 0, 59, 0
2, 28493, Note_on_c, 0, 55, 0
2, 28495, Note_on_c, 0, 71, 0
2, 28495, Note_on_c, 0, 74, 0
2, 28497, Note_on_c, 0, 67, 0
2, 28536, Note_on_c, 0, 79, 80
2, 28538, Note_on_c, 0, 38, 80
2, 28540, Note_on_c, 0, 67, 80
2, 28540, Note_on_c, 0, 71, 80
2, 28642, Note_on_c, 0, 55, 80
2, 28642, Note_on_c, 0, 59, 80
2, 28647, Note_on_c, 0, 50, 80
2, 28704, Note_on_c, 0, 50, 0
2, 28704, Note_on_c, 0, 55, 0
2, 28704, Note_on_c, 0, 38, 0
2, 28704, Note_on_c, 0, 59, 0
2, 28709, Note_on_c, 0, 79, 0
2, 28709, Note_on_c, 0, 71, 0
2, 28709, Note_on_c, 0, 67, 0
2, 28744, Control_c, 0, 64, 127
2, 28749, Note_on_c, 0, 43, 80
2, 28751, Note_on_c, 0, 59, 80
2, 28751, Note_on_c, 0, 71, 80
2, 28755, Note_on_c, 0, 67, 80
2, 28803, Note_on_c, 0, 43, 0
2, 28805, Note_on_c, 0, 70, 80
2, 28807, Note_on_c, 0, 58, 80
2, 28809, Note_on_c, 0, 67, 0
2, 28811, Note_on_c, 0, 59, 0
2, 28813, Note_on_c, 0, 71, 0
2, 28831, Control_c, 0, 64, 0
2, 28854, Note_on_c, 0, 59, 80
2, 28859, Note_on_c, 0, 55, 80
2, 28859, Note_on_c, 0, 67, 80
2, 28859, Note_on_c, 0, 71, 80
2, 28864, Note_on_c, 0, 50, 80
2, 28866, Note_on_c, 0, 70, 0
2, 28866, Note_on_c, 0, 58, 0
2, 28889, Note_on_c, 0, 67, 0
2, 28907, Note_on_c, 0, 65, 80
2, 28909, Note_on_c, 0, 50, 0
2, 28909, Note_on_c, 0, 74, 80
2, 28911, Note_on_c, 0, 67, 80
2, 28913, Note_on_c, 0, 55, 0
2, 28913, Note_on_c, 0, 59, 0
2, 28915, Note_on_c, 0, 62, 80
2, 28951, Note_on_c, 0, 47, 80
2, 28961, Note_on_c, 0, 62, 0
2, 29005, Note_on_c, 0, 71, 0
2, 29012, Note_on_c, 0, 62, 80
2, 29014, Note_on_c, 0, 47, 0
2, 29055, Note_on_c, 0, 50, 80
2, 29055, Note_on_c, 0, 55, 80
2, 29057, Note_on_c, 0, 59, 80
2, 29059, Note_on_c, 0, 62, 0
2, 29095, Note_on_c, 0, 65, 0
2, 29097, Note_on_c, 0, 74, 0
2, 29097, Note_on_c, 0, 67, 0
2, 29111, Note_on_c, 0, 64, 80
2, 29111, Note_on_c, 0, 76, 80
2, 29117, Note_on_c, 0, 59, 0
2, 29117, Note_on_c, 0, 55, 0
2, 29117, Note_on_c, 0, 50, 0
2, 29154, Control_c, 0, 64, 127
2, 29156, Note_on_c, 0, 48, 80
2, 29156, Note_on_c, 0, 74, 80
2, 29160, Note_on_c, 0, 62, 80
2, 29160, Note_on_c, 0, 67, 80
2, 29170, Note_on_c, 0, 76, 0
2, 29214, Note_on_c, 0, 72, 80
2, 29224, Note_on_c, 0, 62, 0
2, 29224, Note_on_c, 0, 60, 80
2, 29231, Note_on_c, 0, 74, 0
2, 29244, Control_c, 0, 64, 0
2, 29249, Note_on_c, 0, 60, 0
2, 29272, Note_on_c, 0, 55, 80
2, 29277, Note_on_c, 0, 60, 80
2, 29281, Note_on_c, 0, 52, 80
2, 29326, Note_on_c, 0, 48, 0
2, 29332, Note_on_c, 0, 52, 0
2, 29337, Note_on_c, 0, 72, 0
2, 29337, Note_on_c, 0, 60, 0
2, 29381, Note_on_c, 0, 48, 80
2, 29418, Note_on_c, 0, 55, 0
2, 29420, Note_on_c, 0, 64, 0
2, 29422, Note_on_c, 0, 67, 0
2, 29438, Note_on_c, 0, 57, 80
2, 29443, Note_on_c, 0, 63, 80
2, 29448, Note_on_c, 0, 69, 80
2, 29484, Note_on_c, 0, 51, 80
2, 29484, Note_on_c, 0, 55, 80
2, 29489, Note_on_c, 0, 60, 80
2, 29523, Note_on_c, 0, 57, 0
2, 29530, Note_on_c, 0, 69, 0
2, 29546, Note_on_c, 0, 51, 0
2, 29548, Note_on_c, 0, 60, 0
2, 29548, Note_on_c, 0, 67, 80
2, 29578, Note_on_c, 0, 63, 0
2, 29592, Note_on_c, 0, 48, 0
2, 29592, Control_c, 0, 64, 127
2, 29593, Note_on_c, 0, 43, 80
2, 29598, Note_on_c, 0, 59, 80
2, 29598, Note_on_c, 0, 71, 80
2, 29603, Note_on_c, 0, 55, 0
2, 29605, Note_on_c, 0, 67, 0
2, 29644, Note_on_c, 0, 55, 80
2, 29651, Note_on_c, 0, 43, 0
2, 29656, Note_on_c, 0, 59, 0
2, 29656, Note_on_c, 0, 67, 80
2, 29661, Note_on_c, 0, 71, 0
2, 29682, Control_c, 0, 64, 0
2, 29698, Note_on_c, 0, 59, 80
2, 29703, Note_on_c, 0, 50, 80
2, 29708, Note_on_c, 0, 64, 80
2, 29714, Note_on_c, 0, 67, 0
2, 29733, Note_on_c, 0, 50, 0
2, 29758, Note_on_c, 0, 50, 80
2, 29758, Note_on_c, 0, 62, 80
2, 29764, Note_on_c, 0, 55, 0
2, 29764, Note_on_c, 0, 64, 0
2, 29764, Note_on_c, 0, 59, 0
2, 29804, Note_on_c, 0, 59, 80
2, 29808, Note_on_c, 0, 55, 80
2, 29838, Note_on_c, 0, 62, 0
2, 29866, Note_on_c, 0, 67, 80
2, 29919, Note_on_c, 0, 57, 80
2, 29926, Note_on_c, 0, 67, 0
2, 29926, Note_on_c, 0, 59, 0
2, 29926, Note_on_c, 0, 69, 80
2, 29928, Note_on_c, 0, 55, 0
2, 29929, Note_on_c, 0, 50, 0
2, 29974, Note_on_c, 0, 59, 80
2, 29980, Note_on_c, 0, 57, 0
2, 29980, Note_on_c, 0, 71, 80
2, 29987, Note_on_c, 0, 69, 0
2, 30024, Control_c, 0, 64, 127
2, 30028, Note_on_c, 0, 43, 80
2, 30038, Note_on_c, 0, 62, 80
2, 30038, Note_on_c, 0, 74, 80
2, 30043, Note_on_c, 0, 67, 80
2, 30045, Note_on_c, 0, 59, 0
2, 30120, Control_c, 0, 64, 0
2, 30139, Note_on_c, 0, 55, 80
2, 30139, Note_on_c, 0, 59, 80
2, 30141, Note_on_c, 0, 50, 80
2, 30196, Note_on_c, 0, 50, 0
2, 30203, Note_on_c, 0, 59, 0
2, 30203, Note_on_c, 0, 74, 0
2, 30203, Note_on_c, 0, 55, 0
2, 30208, Note_on_c, 0, 62, 0
2, 30208, Note_on_c, 0, 67, 0
2, 30213, Note_on_c, 0, 71, 0
2, 30224, Note_on_c, 0, 43, 0
2, 30234, Note_on_c, 0, 40, 80
2, 30250, Note_on_c, 0, 67, 80
2, 30250, Note_on_c, 0, 71, 80
2, 30250, Note_on_c, 0, 79, 80
2, 30352, Note_on_c, 0, 55, 80
2, 30354, Note_on_c, 0, 59, 80
2, 30359, Note_on_c, 0, 52, 80
2, 30411, Note_on_c, 0, 52, 0
2, 30411, Note_on_c, 0, 71, 0
2, 30411, Note_on_c, 0, 55, 0
2, 30416, Note_on_c, 0, 59, 0
2, 30416, Note_on_c, 0, 67, 0
2, 30418, Note_on_c, 0, 79, 0
2, 30432, Note_on_c, 0, 40, 0
2, 30441, Control_c, 0, 64, 127
2, 30448, Note_on_c, 0, 33, 80
2, 30455, Note_on_c, 0, 66, 80
2, 30455, Note_on_c, 0, 74, 80
2, 30456, Note_on_c, 0, 78, 80
2, 30507, Note_on_c, 0, 65, 80
2, 30512, Note_on_c, 0, 77, 80
2, 30514, Note_on_c, 0, 78, 0
2, 30514, Note_on_c, 0, 74, 0
2, 30519, Note_on_c, 0, 66, 0
2, 30532, Control_c, 0, 64, 0
2, 30553, Note_on_c, 0, 57, 80
2, 30553, Note_on_c, 0, 66, 80
2, 30553, Note_on_c, 0, 74, 80
2, 30555, Note_on_c, 0, 62, 80
2, 30557, Note_on_c, 0, 54, 80
2, 30559, Note_on_c, 0, 78, 80
2, 30566, Note_on_c, 0, 65, 0
2, 30576, Note_on_c, 0, 77, 0
2, 30610, Note_on_c, 0, 57, 0
2, 30615, Note_on_c, 0, 54, 0
2, 30615, Note_on_c, 0, 62, 0
2, 30615, Note_on_c, 0, 69, 80
2, 30615, Note_on_c, 0, 81, 80
2, 30620, Note_on_c, 0, 66, 0
2, 30631, Note_on_c, 0, 33, 0
2, 30649, Note_on_c, 0, 30, 80
2, 30672, Note_on_c, 0, 74, 0
2, 30700, Note_on_c, 0, 69, 0
2, 30705, Note_on_c, 0, 78, 0
2, 30707, Note_on_c, 0, 81, 0
2, 30720, Note_on_c, 0, 62, 80
2, 30720, Note_on_c, 0, 74, 80
2, 30753, Note_on_c, 0, 62, 0
2, 30771, Note_on_c, 0, 66, 80
2, 30773, Note_on_c, 0, 57, 80
2, 30778, Note_on_c, 0, 54, 80
2, 30778, Note_on_c, 0, 78, 80
2, 30780, Note_on_c, 0, 74, 0
2, 30782, Note_on_c, 0, 62, 80
2, 30833, Note_on_c, 0, 62, 0
2, 30833, Note_on_c, 0, 54, 0
2, 30838, Note_on_c, 0, 69, 80
2, 30838, Note_on_c, 0, 81, 80
2, 30842, Note_on_c, 0, 57, 0
2, 30842, Note_on_c, 0, 66, 0
2, 30842, Note_on_c, 0, 78, 0
2, 30854, Note_on_c, 0, 30, 0
2, 30865, Note_on_c, 0, 28, 80
2, 30875, Control_c, 0, 64, 127
2, 30885, Note_on_c, 0, 73, 80
2, 30889, Note_on_c, 0, 71, 80
2, 30889, Note_on_c, 0, 83, 80
2, 30899, Note_on_c, 0, 69, 0
2, 30899, Note_on_c, 0, 81, 0
2, 30936, Note_on_c, 0, 79, 80
2, 30940, Note_on_c, 0, 67, 80
2, 30945, Note_on_c, 0, 83, 0
2, 30950, Note_on_c, 0, 71, 0
2, 30973, Control_c, 0, 64, 0
2, 30989, Note_on_c, 0, 64, 80
2, 30991, Note_on_c, 0, 61, 80
2, 30991, Note_on_c, 0, 76, 80
2, 30993, Note_on_c, 0, 55, 80
2, 30993, Note_on_c, 0, 57, 80
2, 30998, Note_on_c, 0, 73, 0
2, 31000, Note_on_c, 0, 67, 0
2, 31002, Note_on_c, 0, 79, 0
2, 31020, Note_on_c, 0, 61, 0
2, 31032, Note_on_c, 0, 28, 0
2, 31038, Note_on_c, 0, 73, 80
2, 31045, Note_on_c, 0, 61, 80
2, 31047, Note_on_c, 0, 57, 0
2, 31052, Note_on_c, 0, 76, 0
2, 31052, Note_on_c, 0, 55, 0
2, 31054, Note_on_c, 0, 64, 0
2, 31090, Note_on_c, 0, 33, 80
2, 31097, Note_on_c, 0, 45, 80
2, 31131, Note_on_c, 0, 61, 0
2, 31131, Note_on_c, 0, 73, 0
2, 31143, Note_on_c, 0, 57, 80
2, 31148, Note_on_c, 0, 69, 80
2, 31192, Note_on_c, 0, 59, 80
2, 31192, Note_on_c, 0, 61, 80
2, 31194, Note_on_c, 0, 67, 80
2, 31196, Note_on_c, 0, 55, 80
2, 31196, Note_on_c, 0, 71, 80
2, 31202, Note_on_c, 0, 69, 0
2, 31221, Note_on_c, 0, 33, 0
2, 31227, Note_on_c, 0, 45, 0
2, 31248, Note_on_c, 0, 73, 80
2, 31250, Note_on_c, 0, 55, 0
2, 31250, Note_on_c, 0, 59, 0
2, 31255, Note_on_c, 0, 71, 0
2, 31257, Note_on_c, 0, 57, 0
2, 31262, Note_on_c, 0, 67, 0
2, 31292, Control_c, 0, 64, 127
2, 31298, Note_on_c, 0, 74, 80
2, 31300, Note_on_c, 0, 66, 80
2, 31302, Note_on_c, 0, 61, 0
2, 31302, Note_on_c, 0, 50, 80
2, 31302, Note_on_c, 0, 57, 80
2, 31304, Note_on_c, 0, 62, 80
2, 31309, Note_on_c, 0, 73, 0
2, 31353, Note_on_c, 0, 50, 0
2, 31360, Note_on_c, 0, 57, 0
2, 31381, Control_c, 0, 64, 0
2, 31409, Note_on_c, 0, 45, 80
2, 31409, Note_on_c, 0, 57, 80
2, 31462, Note_on_c, 0, 45, 0
2, 31471, Note_on_c, 0, 57, 0
2, 31512, Note_on_c, 0, 38, 80
2, 31517, Note_on_c, 0, 50, 80
2, 31570, Note_on_c, 0, 74, 0
2, 31580, Note_on_c, 0, 66, 0
2, 31598, Note_on_c, 0, 62, 0
2, 31614, Note_on_c, 0, 55, 80
2, 31619, Note_on_c, 0, 67, 80
2, 31621, Note_on_c, 0, 38, 0
2, 31621, Note_on_c, 0, 50, 0
2, 31667, Note_on_c, 0, 59, 80
2, 31669, Note_on_c, 0, 71, 80
2, 31674, Note_on_c, 0, 55, 0
2, 31676, Note_on_c, 0, 67, 0
2, 31708, Control_c, 0, 64, 127
2, 31713, Note_on_c, 0, 43, 80
2, 31713, Note_on_c, 0, 74, 80
2, 31715, Note_on_c, 0, 62, 80
2, 31715, Note_on_c, 0, 67, 80
2, 31727, Note_on_c, 0, 59, 0
2, 31812, Note_on_c, 0, 50, 80
2, 31812, Note_on_c, 0, 55, 80
2, 31812, Note_on_c, 0, 59, 80
2, 31840, Control_c, 0, 64, 0
2, 31863, Note_on_c, 0, 59, 0
2, 31863, Note_on_c, 0, 62, 0
2, 31863, Note_on_c, 0, 74, 0
2, 31868, Note_on_c, 0, 50, 0
2, 31868, Note_on_c, 0, 55, 0
2, 31872, Note_on_c, 0, 71, 0
2, 31872, Note_on_c, 0, 67, 0
2, 31889, Note_on_c, 0, 43, 0
2, 31902, Note_on_c, 0, 38, 80
2, 31907, Note_on_c, 0, 79, 80
2, 31917, Note_on_c, 0, 67, 80
2, 31917, Note_on_c, 0, 71, 80
2, 32012, Note_on_c, 0, 50, 80
2, 32012, Note_on_c, 0, 55, 80
2, 32012, Note_on_c, 0, 59, 80
2, 32074, Note_on_c, 0, 59, 0
2, 32074, Note_on_c, 0, 50, 0
2, 32074, Note_on_c, 0, 79, 0
2, 32074, Note_on_c, 0, 67, 0
2, 32074, Note_on_c, 0, 55, 0
2, 32084, Note_on_c, 0, 71, 0
2, 32105, Note_on_c, 0, 38, 0
2, 32114, Control_c, 0, 64, 127
2, 32121, Note_on_c, 0, 43, 80
2, 32123, Note_on_c, 0, 59, 80
2, 32128, Note_on_c, 0, 67, 80
2, 32128, Note_on_c, 0, 71, 80
2, 32174, Note_on_c, 0, 43, 0
2, 32185, Note_on_c, 0, 59, 0
2, 32185, Note_on_c, 0, 58, 80
2, 32185, Note_on_c, 0, 70, 80
2, 32190, Note_on_c, 0, 67, 0
2, 32190, Note_on_c, 0, 71, 0
2, 32207, Control_c, 0, 64, 0
2, 32223, Note_on_c, 0, 55, 80
2, 32223, Note_on_c, 0, 59, 80
2, 32230, Note_on_c, 0, 50, 80
2, 32234, Note_on_c, 0, 70, 0
2, 32234, Note_on_c, 0, 71, 80
2, 32236, Note_on_c, 0, 58, 0
2, 32236, Note_on_c, 0, 67, 80
2, 32264, Note_on_c, 0, 71, 0
2, 32278, Note_on_c, 0, 62, 80
2, 32280, Note_on_c, 0, 50, 0
2, 32280, Note_on_c, 0, 74, 80
2, 32284, Note_on_c, 0, 55, 0
2, 32289, Note_on_c, 0, 59, 0
2, 32289, Note_on_c, 0, 65, 80
2, 32289, Note_on_c, 0, 71, 80
2, 32328, Note_on_c, 0, 47, 80
2, 32338, Note_on_c, 0, 65, 0
2, 32338, Note_on_c, 0, 62, 0
2, 32340, Note_on_c, 0, 71, 0
2, 32340, Note_on_c, 0, 67, 0
2, 32342, Note_on_c, 0, 74, 0
2, 32378, Note_on_c, 0, 47, 0
2, 32378, Note_on_c, 0, 74, 80
2, 32388, Note_on_c, 0, 62, 80
2, 32388, Note_on_c, 0, 65, 80
2, 32388, Note_on_c, 0, 71, 80
2, 32393, Note_on_c, 0, 67, 80
2, 32429, Note_on_c, 0, 55, 80
2, 32429, Note_on_c, 0, 59, 80
2, 32434, Note_on_c, 0, 50, 80
2, 32464, Note_on_c, 0, 62, 0
2, 32466, Note_on_c, 0, 67, 0
2, 32468, Note_on_c, 0, 74, 0
2, 32468, Note_on_c, 0, 65, 0
2, 32472, Note_on_c, 0, 71, 0
2, 32484, Note_on_c, 0, 59, 0
2, 32484, Note_on_c, 0, 55, 0
2, 32484, Note_on_c, 0, 50, 0
2, 32484, Note_on_c, 0, 64, 80
2, 32484, Note_on_c, 0, 76, 80
2, 32528, Control_c, 0, 64, 127
2, 32528, Note_on_c, 0, 48, 80
2, 32530, Note_on_c, 0, 62, 80
2, 32530, Note_on_c, 0, 74, 80
2, 32535, Note_on_c, 0, 67, 80
2, 32544, Note_on_c, 0, 76, 0
2, 32572, Note_on_c, 0, 48, 0
2, 32572, Note_on_c, 0, 72, 80
2, 32577, Note_on_c, 0, 62, 0
2, 32577, Note_on_c, 0, 60, 80
2, 32584, Note_on_c, 0, 74, 0
2, 32600, Control_c, 0, 64, 0
2, 32618, Note_on_c, 0, 55, 80
2, 32628, Note_on_c, 0, 52, 80
2, 32630, Note_on_c, 0, 64, 0
2, 32640, Note_on_c, 0, 67, 0
2, 32658, Note_on_c, 0, 55, 0
2, 32660, Note_on_c, 0, 72, 0
2, 32678, Note_on_c, 0, 64, 80
2, 32683, Note_on_c, 0, 60, 0
2, 32683, Note_on_c, 0, 55, 80
2, 32683, Note_on_c, 0, 67, 80
2, 32688, Note_on_c, 0, 52, 0
2, 32734, Note_on_c, 0, 48, 80
2, 32768, Note_on_c, 0, 55, 0
2, 32770, Note_on_c, 0, 67, 0
2, 32770, Note_on_c, 0, 64, 0
2, 32788, Note_on_c, 0, 48, 0
2, 32790, Note_on_c, 0, 57, 80
2, 32790, Note_on_c, 0, 63, 80
2, 32790, Note_on_c, 0, 69, 80
2, 32843, Note_on_c, 0, 51, 80
2, 32843, Note_on_c, 0, 55, 80
2, 32848, Note_on_c, 0, 60, 80
2, 32873, Note_on_c, 0, 63, 0
2, 32875, Note_on_c, 0, 57, 0
2, 32880, Note_on_c, 0, 69, 0
2, 32891, Note_on_c, 0, 51, 0
2, 32898, Note_on_c, 0, 60, 0
2, 32903, Note_on_c, 0, 67, 80
2, 32944, Control_c, 0, 64, 127
2, 32946, Note_on_c, 0, 43, 80
2, 32948, Note_on_c, 0, 59, 80
2, 32948, Note_on_c, 0, 71, 80
2, 32950, Note_on_c, 0, 55, 0
2, 32950, Note_on_c, 0, 62, 80
2, 32956, Note_on_c, 0, 67, 0
2, 32998, Note_on_c, 0, 55, 80
2, 32998, Note_on_c, 0, 67, 80
2, 33000, Note_on_c, 0, 62, 0
2, 33000, Note_on_c, 0, 43, 0
2, 33004, Note_on_c, 0, 59, 0
2, 33009, Note_on_c, 0, 71, 0
2, 33027, Control_c, 0, 64, 0
2, 33048, Note_on_c, 0, 59, 80
2, 33050, Note_on_c, 0, 52, 80
2, 33050, Note_on_c, 0, 64, 80
2, 33057, Note_on_c, 0, 67, 0
2, 33098, Note_on_c, 0, 62, 80
2, 33100, Note_on_c, 0, 50, 80
2, 33102, Note_on_c, 0, 52, 0
2, 33102, Note_on_c, 0, 64, 0
2, 33109, Note_on_c, 0, 55, 0
2, 33109, Note_on_c, 0, 59, 0
2, 33125, Note_on_c, 0, 50, 0
2, 33146, Note_on_c, 0, 55, 80
2, 33148, Note_on_c, 0, 59, 80
2, 33153, Note_on_c, 0, 50, 80
2, 33178, Note_on_c, 0, 62, 0
2, 33196, Note_on_c, 0, 55, 0
2, 33198, Note_on_c, 0, 50, 0
2, 33200, Note_on_c, 0, 71, 80
2, 33202, Note_on_c, 0, 59, 0
2, 33243, Note_on_c, 0, 70, 80
2, 33255, Note_on_c, 0, 71, 0
2, 33299, Note_on_c, 0, 70, 0
2, 33299, Note_on_c, 0, 71, 80
2, 33343, Control_c, 0, 64, 127
2, 33343, Note_on_c, 0, 42, 80
2, 33353, Note_on_c, 0, 54, 80
2, 33355, Note_on_c, 0, 75, 80
2, 33431, Control_c, 0, 64, 0
2, 33456, Note_on_c, 0, 57, 80
2, 33456, Note_on_c, 0, 59, 80
2, 33502, Note_on_c, 0, 42, 0
2, 33506, Note_on_c, 0, 75, 0
2, 33508, Note_on_c, 0, 57, 0
2, 33513, Note_on_c, 0, 71, 0
2, 33513, Note_on_c, 0, 59, 0
2, 33513, Note_on_c, 0, 54, 0
2, 33543, Note_on_c, 0, 35, 80
2, 33548, Note_on_c, 0, 47, 80
2, 33552, Note_on_c, 0, 71, 80
2, 33554, Note_on_c, 0, 75, 80
2, 33556, Note_on_c, 0, 78, 80
2, 33647, Note_on_c, 0, 59, 80
2, 33651, Note_on_c, 0, 57, 80
2, 33684, Note_on_c, 0, 78, 0
2, 33684, Note_on_c, 0, 75, 0
2, 33684, Note_on_c, 0, 71, 0
2, 33707, Note_on_c, 0, 59, 0
2, 33707, Note_on_c, 0, 57, 0
2, 33707, Note_on_c, 0, 81, 80
2, 33723, Note_on_c, 0, 47, 0
2, 33725, Note_on_c, 0, 35, 0
2, 33739, Control_c, 0, 64, 127
2, 33739, Note_on_c, 0, 40, 80
2, 33748, Note_on_c, 0, 52, 80
2, 33748, Note_on_c, 0, 71, 80
2, 33748, Note_on_c, 0, 76, 80
2, 33799, Note_on_c, 0, 79, 80
2, 33816, Note_on_c, 0, 81, 0
2, 33825, Control_c, 0, 64, 0
2, 33846, Note_on_c, 0, 55, 80
2, 33846, Note_on_c, 0, 59, 80
2, 33848, Note_on_c, 0, 78, 80
2, 33858, Note_on_c, 0, 79, 0
2, 33883, Note_on_c, 0, 71, 0
2, 33885, Note_on_c, 0, 76, 0
2, 33896, Note_on_c, 0, 79, 80
2, 33901, Note_on_c, 0, 55, 0
2, 33901, Note_on_c, 0, 59, 0
2, 33901, Note_on_c, 0, 70, 80
2, 33903, Note_on_c, 0, 52, 0
2, 33903, Note_on_c, 0, 78, 0
2, 33919, Note_on_c, 0, 40, 0
2, 33936, Note_on_c, 0, 37, 80
2, 33952, Note_on_c, 0, 49, 80
2, 34000, Note_on_c, 0, 37, 0
2, 34002, Note_on_c, 0, 49, 0
2, 34053, Note_on_c, 0, 52, 80
2, 34057, Note_on_c, 0, 79, 0
2, 34057, Note_on_c, 0, 55, 80
2, 34057, Note_on_c, 0, 58, 80
2, 34062, Note_on_c, 0, 78, 80
2, 34113, Note_on_c, 0, 76, 80
2, 34115, Note_on_c, 0, 78, 0
2, 34115, Note_on_c, 0, 58, 0
2, 34117, Note_on_c, 0, 55, 0
2, 34117, Note_on_c, 0, 52, 0
2, 34145, Note_on_c, 0, 70, 0
2, 34145, Note_on_c, 0, 76, 0
2, 34154, Control_c, 0, 64, 127
2, 34166, Note_on_c, 0, 38, 80
2, 34166, Note_on_c, 0, 71, 80
2, 34168, Note_on_c, 0, 50, 80
2, 34168, Note_on_c, 0, 76, 80
2, 34219, Note_on_c, 0, 38, 0
2, 34219, Note_on_c, 0, 74, 80
2, 34221, Note_on_c, 0, 50, 0
2, 34227, Note_on_c, 0, 76, 0
2, 34229, Note_on_c, 0, 71, 0
2, 34243, Control_c, 0, 64, 0
2, 34264, Note_on_c, 0, 73, 80
2, 34266, Note_on_c, 0, 55, 80
2, 34266, Note_on_c, 0, 59, 80
2, 34272, Note_on_c, 0, 74, 0
2, 34314, Note_on_c, 0, 74, 80
2, 34319, Note_on_c, 0, 59, 0
2, 34320, Note_on_c, 0, 73, 0
2, 34322, Note_on_c, 0, 55, 0
2, 34364, Note_on_c, 0, 38, 80
2, 34366, Note_on_c, 0, 50, 80
2, 34395, Note_on_c, 0, 74, 0
2, 34416, Note_on_c, 0, 72, 80
2, 34418, Note_on_c, 0, 50, 0
2, 34418, Note_on_c, 0, 38, 0
2, 34455, Note_on_c, 0, 54, 80
2, 34462, Note_on_c, 0, 60, 80
2, 34464, Note_on_c, 0, 57, 80
2, 34464, Note_on_c, 0, 69, 80
2, 34468, Note_on_c, 0, 72, 0
2, 34508, Note_on_c, 0, 66, 80
2, 34510, Note_on_c, 0, 57, 0
2, 34514, Note_on_c, 0, 54, 0
2, 34516, Note_on_c, 0, 60, 0
2, 34518, Note_on_c, 0, 69, 0
2, 34551, Control_c, 0, 64, 127
2, 34553, Note_on_c, 0, 55, 80
2, 34553, Note_on_c, 0, 59, 80
2, 34558, Note_on_c, 0, 67, 80
2, 34567, Note_on_c, 0, 66, 0
2, 34602, Note_on_c, 0, 59, 0
2, 34607, Note_on_c, 0, 55, 0
2, 34607, Note_on_c, 0, 67, 0
2, 34632, Control_c, 0, 64, 0
2, 34758, Note_on_c, 0, 43, 80
2, 34768, Note_on_c, 0, 79, 80
2, 34770, Note_on_c, 0, 55, 80
2, 34770, Note_on_c, 0, 71, 80
2, 34772, Note_on_c, 0, 67, 80
2, 34772, Note_on_c, 0, 74, 80
2, 34820, Note_on_c, 0, 43, 0
2, 34826, Note_on_c, 0, 55, 0
2, 34831, Note_on_c, 0, 79, 0
2, 34831, Note_on_c, 0, 67, 0
2, 34831, Note_on_c, 0, 74, 0
2, 34838, Note_on_c, 0, 71, 0
2, 34979, Control_c, 0, 64, 127
2, 34979, Note_on_c, 0, 48, 80
2, 34986, Note_on_c, 0, 52, 80
2, 34986, Note_on_c, 0, 64, 80
2, 35034, Note_on_c, 0, 55, 80
2, 35043, Note_on_c, 0, 52, 0
2, 35045, Note_on_c, 0, 67, 80
2, 35064, Control_c, 0, 64, 0
2, 35093, Note_on_c, 0, 60, 80
2, 35093, Note_on_c, 0, 72, 80
2, 35095, Note_on_c, 0, 67, 0
2, 35097, Note_on_c, 0, 52, 80
2, 35141, Note_on_c, 0, 74, 80
2, 35143, Note_on_c, 0, 62, 80
2, 35145, Note_on_c, 0, 52, 0
2, 35145, Note_on_c, 0, 64, 0
2, 35150, Note_on_c, 0, 55, 0
2, 35150, Note_on_c, 0, 60, 0
2, 35155, Note_on_c, 0, 72, 0
2, 35168, Note_on_c, 0, 48, 0
2, 35186, Note_on_c, 0, 43, 80
2, 35196, Note_on_c, 0, 62, 0
2, 35196, Note_on_c, 0, 64, 80
2, 35196, Note_on_c, 0, 76, 80
2, 35198, Note_on_c, 0, 74, 0
2, 35249, Note_on_c, 0, 79, 80
2, 35254, Note_on_c, 0, 67, 80
2, 35265, Note_on_c, 0, 76, 0
2, 35298, Note_on_c, 0, 60, 80
2, 35300, Note_on_c, 0, 55, 80
2, 35306, Note_on_c, 0, 52, 80
2, 35331, Note_on_c, 0, 67, 0
2, 35336, Note_on_c, 0, 79, 0
2, 35352, Note_on_c, 0, 55, 0
2, 35352, Note_on_c, 0, 52, 0
2, 35354, Note_on_c, 0, 76, 80
2, 35359, Note_on_c, 0, 68, 80
2, 35361, Note_on_c, 0, 60, 0
2, 35375, Note_on_c, 0, 43, 0
2, 35393, Control_c, 0, 64, 127
2, 35406, Note_on_c, 0, 47, 80
2, 35439, Note_on_c, 0, 64, 0
2, 35441, Note_on_c, 0, 68, 0
2, 35450, Note_on_c, 0, 76, 0
2, 35462, Note_on_c, 0, 47, 0
2, 35464, Note_on_c, 0, 63, 80
2, 35466, Note_on_c, 0, 75, 80
2, 35494, Control_c, 0, 64, 0
2, 35521, Note_on_c, 0, 52, 80
2, 35521, Note_on_c, 0, 64, 80
2, 35523, Note_on_c, 0, 75, 0
2, 35525, Note_on_c, 0, 63, 0
2, 35525, Note_on_c, 0, 56, 80
2, 35527, Note_on_c, 0, 76, 80
2, 35529, Note_on_c, 0, 62, 80
2, 35531, Note_on_c, 0, 68, 80
2, 35577, Note_on_c, 0, 64, 0
2, 35582, Note_on_c, 0, 62, 0
2, 35584, Note_on_c, 0, 52, 0
2, 35584, Note_on_c, 0, 56, 0
2, 35584, Note_on_c, 0, 68, 0
2, 35593, Note_on_c, 0, 76, 0
2, 35626, Note_on_c, 0, 40, 80
2, 35633, Note_on_c, 0, 65, 80
2, 35635, Note_on_c, 0, 68, 80
2, 35644, Note_on_c, 0, 77, 80
2, 35686, Note_on_c, 0, 40, 0
2, 35697, Note_on_c, 0, 68, 0
2, 35702, Note_on_c, 0, 65, 0
2, 35702, Note_on_c, 0, 77, 0
2, 35746, Note_on_c, 0, 52, 80
2, 35746, Note_on_c, 0, 64, 80
2, 35748, Note_on_c, 0, 56, 80
2, 35748, Note_on_c, 0, 62, 80
2, 35748, Note_on_c, 0, 68, 80
2, 35748, Note_on_c, 0, 76, 80
2, 35796, Note_on_c, 0, 60, 80
2, 35798, Note_on_c, 0, 68, 0
2, 35798, Note_on_c, 0, 62, 0
2, 35798, Note_on_c, 0, 56, 0
2, 35798, Note_on_c, 0, 52, 0
2, 35798, Note_on_c, 0, 69, 80
2, 35798, Note_on_c, 0, 72, 80
2, 35803, Note_on_c, 0, 64, 0
2, 35812, Note_on_c, 0, 76, 0
2, 35842, Control_c, 0, 64, 127
2, 35844, Note_on_c, 0, 45, 80
2, 35880, Note_on_c, 0, 69, 0
2, 35880, Note_on_c, 0, 72, 0
2, 35880, Note_on_c, 0, 60, 0
2, 35902, Note_on_c, 0, 45, 0
2, 35902, Note_on_c, 0, 59, 80
2, 35902, Note_on_c, 0, 71, 80
2, 35934, Control_c, 0, 64, 0
2, 35948, Note_on_c, 0, 72, 80
2, 35950, Note_on_c, 0, 60, 80
2, 35952, Note_on_c, 0, 59, 0
2, 35952, Note_on_c, 0, 52, 80
2, 35952, Note_on_c, 0, 57, 80
2, 35952, Note_on_c, 0, 69, 80
2, 35956, Note_on_c, 0, 71, 0
2, 36004, Note_on_c, 0, 57, 0
2, 36004, Note_on_c, 0, 52, 0
2, 36011, Note_on_c, 0, 60, 0
2, 36013, Note_on_c, 0, 69, 0
2, 36013, Note_on_c, 0, 72, 0
2, 36049, Note_on_c, 0, 43, 80
2, 36049, Note_on_c, 0, 55, 80
2, 36054, Note_on_c, 0, 64, 80
2, 36054, Note_on_c, 0, 72, 80
2, 36059, Note_on_c, 0, 60, 80
2, 36064, Note_on_c, 0, 70, 80
2, 36085, Note_on_c, 0, 60, 0
2, 36085, Note_on_c, 0, 72, 0
2, 36090, Note_on_c, 0, 70, 0
2, 36108, Note_on_c, 0, 43, 0
2, 36110, Note_on_c, 0, 60, 80
2, 36110, Note_on_c, 0, 72, 80
2, 36112, Note_on_c, 0, 70, 80
2, 36119, Note_on_c, 0, 55, 0
2, 36153, Note_on_c, 0, 36, 80
2, 36153, Note_on_c, 0, 48, 80
2, 36167, Note_on_c, 0, 72, 0
2, 36167, Note_on_c, 0, 60, 0
2, 36196, Note_on_c, 0, 70, 0
2, 36196, Note_on_c, 0, 64, 0
2, 36215, Note_on_c, 0, 36, 0
2, 36219, Note_on_c, 0, 48, 0
2, 36221, Note_on_c, 0, 60, 80
2, 36221, Note_on_c, 0, 65, 80
2, 36221, Note_on_c, 0, 69, 80
2, 36221, Note_on_c, 0, 72, 80
2, 36261, Control_c, 0, 64, 127
2, 36263, Note_on_c, 0, 41, 80
2, 36272, Note_on_c, 0, 53, 80
2, 36339, Note_on_c, 0, 60, 0
2, 36351, Control_c, 0, 64, 0
2, 36376, Note_on_c, 0, 57, 80
2, 36376, Note_on_c, 0, 60, 80
2, 36436, Note_on_c, 0, 60, 0
2, 36436, Note_on_c, 0, 57, 0
2, 36461, Note_on_c, 0, 69, 0
2, 36471, Note_on_c, 0, 36, 80
2, 36478, Note_on_c, 0, 41, 0
2, 36478, Note_on_c, 0, 48, 80
2, 36484, Note_on_c, 0, 53, 0
2, 36528, Note_on_c, 0, 36, 0
2, 36530, Note_on_c, 0, 57, 80
2, 36532, Note_on_c, 0, 48, 0
2, 36539, Note_on_c, 0, 65, 0
2, 36539, Note_on_c, 0, 72, 0
2, 36541, Note_on_c, 0, 69, 80
2, 36559, Note_on_c, 0, 57, 0
2, 36580, Note_on_c, 0, 72, 80
2, 36585, Note_on_c, 0, 57, 80
2, 36585, Note_on_c, 0, 60, 80
2, 36587, Note_on_c, 0, 69, 0
2, 36638, Note_on_c, 0, 65, 80
2, 36640, Note_on_c, 0, 72, 0
2, 36640, Note_on_c, 0, 57, 0
2, 36642, Note_on_c, 0, 60, 0
2, 36644, Note_on_c, 0, 77, 80
2, 36672, Control_c, 0, 64, 127
2, 36676, Note_on_c, 0, 41, 80
2, 36678, Note_on_c, 0, 53, 80
2, 36678, Note_on_c, 0, 72, 80
2, 36692, Note_on_c, 0, 65, 0
2, 36694, Note_on_c, 0, 69, 80
2, 36694, Note_on_c, 0, 81, 80
2, 36738, Note_on_c, 0, 53, 0
2, 36740, Note_on_c, 0, 41, 0
2, 36744, Note_on_c, 0, 72, 0
2, 36746, Note_on_c, 0, 77, 0
2, 36746, Note_on_c, 0, 81, 0
2, 36748, Note_on_c, 0, 69, 0
2, 36767, Control_c, 0, 64, 0
2, 36788, Note_on_c, 0, 57, 80
2, 36792, Note_on_c, 0, 72, 80
2, 36797, Note_on_c, 0, 60, 80
2, 36797, Note_on_c, 0, 65, 80
2, 36797, Note_on_c, 0, 69, 80
2, 36802, Note_on_c, 0, 77, 80
2, 36802, Note_on_c, 0, 81, 80
2, 36848, Note_on_c, 0, 69, 0
2, 36848, Note_on_c, 0, 60, 0
2, 36848, Note_on_c, 0, 57, 0
2, 36848, Note_on_c, 0, 72, 0
2, 36853, Note_on_c, 0, 65, 0
2, 36858, Note_on_c, 0, 81, 0
2, 36858, Note_on_c, 0, 77, 0
2, 36899, Note_on_c, 0, 41, 80
2, 36899, Note_on_c, 0, 53, 80
2, 36899, Note_on_c, 0, 72, 80
2, 36909, Note_on_c, 0, 69, 80
2, 36909, Note_on_c, 0, 81, 80
2, 36913, Note_on_c, 0, 77, 80
2, 36964, Note_on_c, 0, 41, 0
2, 36966, Note_on_c, 0, 53, 0
2, 36971, Note_on_c, 0, 69, 0
2, 36971, Note_on_c, 0, 77, 0
2, 36976, Note_on_c, 0, 72, 0
2, 36976, Note_on_c, 0, 81, 0
2, 37010, Note_on_c, 0, 42, 80
2, 37015, Note_on_c, 0, 54, 80
2, 37020, Note_on_c, 0, 68, 80
2, 37020, Note_on_c, 0, 72, 80
2, 37020, Note_on_c, 0, 75, 80
2, 37022, Note_on_c, 0, 80, 80
2, 37070, Note_on_c, 0, 42, 0
2, 37075, Note_on_c, 0, 75, 0
2, 37075, Note_on_c, 0, 54, 0
2, 37075, Note_on_c, 0, 80, 0
2, 37080, Note_on_c, 0, 72, 0
2, 37080, Note_on_c, 0, 68, 0
2, 37107, Control_c, 0, 64, 127
2, 37112, Note_on_c, 0, 43, 80
2, 37114, Note_on_c, 0, 55, 80
2, 37119, Note_on_c, 0, 72, 80
2, 37119, Note_on_c, 0, 79, 80
2, 37124, Note_on_c, 0, 67, 80
2, 37124, Note_on_c, 0, 76, 80
2, 37179, Note_on_c, 0, 55, 0
2, 37196, Control_c, 0, 64, 0
2, 37221, Note_on_c, 0, 55, 80
2, 37221, Note_on_c, 0, 60, 80
2, 37225, Note_on_c, 0, 64, 80
2, 37230, Note_on_c, 0, 76, 0
2, 37248, Note_on_c, 0, 67, 0
2, 37250, Note_on_c, 0, 79, 0
2, 37255, Note_on_c, 0, 72, 0
2, 37273, Note_on_c, 0, 76, 80
2, 37278, Note_on_c, 0, 60, 0
2, 37278, Note_on_c, 0, 55, 0
2, 37318, Note_on_c, 0, 43, 0
2, 37318, Note_on_c, 0, 72, 80
2, 37320, Note_on_c, 0, 60, 80
2, 37321, Note_on_c, 0, 64, 0
2, 37321, Note_on_c, 0, 45, 80
2, 37321, Note_on_c, 0, 57, 80
2, 37326, Note_on_c, 0, 76, 0
2, 37368, Note_on_c, 0, 62, 80
2, 37368, Note_on_c, 0, 74, 80
2, 37372, Note_on_c, 0, 45, 0
2, 37372, Note_on_c, 0, 57, 0
2, 37372, Note_on_c, 0, 72, 0
2, 37374, Note_on_c, 0, 60, 0
2, 37414, Note_on_c, 0, 57, 80
2, 37414, Note_on_c, 0, 60, 80
2, 37414, Note_on_c, 0, 64, 80
2, 37418, Note_on_c, 0, 76, 80
2, 37420, Note_on_c, 0, 62, 0
2, 37420, Note_on_c, 0, 74, 0
2, 37441, Note_on_c, 0, 60, 0
2, 37466, Note_on_c, 0, 57, 0
2, 37468, Note_on_c, 0, 60, 80
2, 37468, Note_on_c, 0, 72, 80
2, 37473, Note_on_c, 0, 76, 0
2, 37475, Note_on_c, 0, 64, 0
2, 37505, Control_c, 0, 64, 127
2, 37510, Note_on_c, 0, 59, 80
2, 37512, Note_on_c, 0, 47, 80
2, 37518, Note_on_c, 0, 71, 80
2, 37523, Note_on_c, 0, 60, 0
2, 37523, Note_on_c, 0, 72, 0
2, 37560, Note_on_c, 0, 47, 0
2, 37576, Note_on_c, 0, 83, 80
2, 37578, Note_on_c, 0, 59, 0
2, 37591, Control_c, 0, 64, 0
2, 37619, Note_on_c, 0, 55, 80
2, 37619, Note_on_c, 0, 59, 80
2, 37621, Note_on_c, 0, 64, 80
2, 37623, Note_on_c, 0, 67, 80
2, 37623, Note_on_c, 0, 79, 80
2, 37628, Note_on_c, 0, 71, 0
2, 37632, Note_on_c, 0, 83, 0
2, 37667, Note_on_c, 0, 59, 0
2, 37672, Note_on_c, 0, 55, 0
2, 37672, Note_on_c, 0, 67, 0
2, 37674, Note_on_c, 0, 79, 0
2, 37674, Note_on_c, 0, 76, 80
2, 37713, Note_on_c, 0, 47, 80
2, 37748, Note_on_c, 0, 64, 0
2, 37757, Note_on_c, 0, 76, 0
2, 37771, Note_on_c, 0, 79, 80
2, 37773, Note_on_c, 0, 47, 0
2, 37775, Note_on_c, 0, 67, 80
2, 37819, Note_on_c, 0, 57, 80
2, 37819, Note_on_c, 0, 59, 80
2, 37819, Note_on_c, 0, 66, 80
2, 37821, Note_on_c, 0, 63, 80
2, 37823, Note_on_c, 0, 79, 0
2, 37824, Note_on_c, 0, 78, 80
2, 37826, Note_on_c, 0, 67, 0
2, 37868, Note_on_c, 0, 75, 80
2, 37872, Note_on_c, 0, 59, 0
2, 37872, Note_on_c, 0, 57, 0
2, 37884, Note_on_c, 0, 66, 0
2, 37884, Note_on_c, 0, 78, 0
2, 37914, Control_c, 0, 64, 127
2, 37916, Note_on_c, 0, 52, 80
2, 37916, Note_on_c, 0, 55, 80
2, 37916, Note_on_c, 0, 59, 80
2, 37918, Note_on_c, 0, 64, 80
2, 37918, Note_on_c, 0, 76, 80
2, 37922, Note_on_c, 0, 75, 0
2, 37927, Note_on_c, 0, 63, 0
2, 37994, Control_c, 0, 64, 0
2, 38019, Note_on_c, 0, 55, 0
2, 38019, Note_on_c, 0, 64, 0
2, 38021, Note_on_c, 0, 52, 0
2, 38031, Note_on_c, 0, 59, 0
2, 38031, Note_on_c, 0, 76, 0
2, 38121, Note_on_c, 0, 53, 80
2, 38121, Note_on_c, 0, 55, 80
2, 38126, Note_on_c, 0, 50, 80
2, 38126, Note_on_c, 0, 59, 80
2, 38126, Note_on_c, 0, 67, 80
2, 38126, Note_on_c, 0, 79, 80
2, 38182, Note_on_c, 0, 50, 0
2, 38226, Note_on_c, 0, 43, 80
2, 38228, Note_on_c, 0, 31, 80
2, 38244, Note_on_c, 0, 59, 0
2, 38244, Note_on_c, 0, 53, 0
2, 38246, Note_on_c, 0, 55, 0
2, 38282, Note_on_c, 0, 31, 0
2, 38287, Note_on_c, 0, 43, 0
2, 38331, Control_c, 0, 64, 127
2, 38338, Note_on_c, 0, 48, 80
2, 38343, Note_on_c, 0, 52, 80
2, 38343, Note_on_c, 0, 64, 80
2, 38348, Note_on_c, 0, 67, 0
2, 38350, Note_on_c, 0, 79, 0
2, 38398, Note_on_c, 0, 55, 80
2, 38400, Note_on_c, 0, 52, 0
2, 38401, Note_on_c, 0, 67, 80
2, 38418, Note_on_c, 0, 48, 0
2, 38446, Control_c, 0, 64, 0
2, 38446, Note_on_c, 0, 52, 80
2, 38446, Note_on_c, 0, 60, 80
2, 38446, Note_on_c, 0, 72, 80
2, 38452, Note_on_c, 0, 67, 0
2, 38494, Note_on_c, 0, 74, 80
2, 38496, Note_on_c, 0, 62, 80
2, 38500, Note_on_c, 0, 55, 0
2, 38502, Note_on_c, 0, 64, 0
2, 38502, Note_on_c, 0, 52, 0
2, 38502, Note_on_c, 0, 60, 0
2, 38502, Note_on_c, 0, 72, 0
2, 38532, Note_on_c, 0, 43, 80
2, 38537, Note_on_c, 0, 64, 80
2, 38542, Note_on_c, 0, 76, 80
2, 38546, Note_on_c, 0, 62, 0
2, 38548, Note_on_c, 0, 74, 0
2, 38583, Note_on_c, 0, 43, 0
2, 38594, Note_on_c, 0, 67, 80
2, 38594, Note_on_c, 0, 79, 80
2, 38604, Note_on_c, 0, 76, 0
2, 38634, Note_on_c, 0, 55, 80
2, 38639, Note_on_c, 0, 52, 80
2, 38640, Note_on_c, 0, 60, 80
2, 38650, Note_on_c, 0, 64, 0
2, 38671, Note_on_c, 0, 79, 0
2, 38671, Note_on_c, 0, 67, 0
2, 38688, Note_on_c, 0, 64, 80
2, 38689, Note_on_c, 0, 68, 80
2, 38691, Note_on_c, 0, 55, 0
2, 38691, Note_on_c, 0, 60, 0
2, 38691, Note_on_c, 0, 76, 80
2, 38696, Note_on_c, 0, 52, 0
2, 38721, Control_c, 0, 64, 127
2, 38731, Note_on_c, 0, 47, 80
2, 38770, Note_on_c, 0, 64, 0
2, 38780, Note_on_c, 0, 76, 0
2, 38786, Note_on_c, 0, 47, 0
2, 38791, Note_on_c, 0, 75, 80
2, 38793, Note_on_c, 0, 68, 0
2, 38793, Note_on_c, 0, 63, 80
2, 38816, Control_c, 0, 64, 0
2, 38839, Note_on_c, 0, 52, 80
2, 38839, Note_on_c, 0, 62, 80
2, 38839, Note_on_c, 0, 64, 80
2, 38841, Note_on_c, 0, 56, 80
2, 38841, Note_on_c, 0, 68, 80
2, 38843, Note_on_c, 0, 76, 80
2, 38845, Note_on_c, 0, 75, 0
2, 38847, Note_on_c, 0, 63, 0
2, 38891, Note_on_c, 0, 56, 0
2, 38893, Note_on_c, 0, 64, 0
2, 38895, Note_on_c, 0, 52, 0
2, 38895, Note_on_c, 0, 68, 0
2, 38897, Note_on_c, 0, 62, 0
2, 38902, Note_on_c, 0, 76, 0
2, 38931, Note_on_c, 0, 40, 80
2, 38943, Note_on_c, 0, 68, 80
2, 38948, Note_on_c, 0, 65, 80
2, 38952, Note_on_c, 0, 77, 80
2, 38997, Note_on_c, 0, 40, 0
2, 39001, Note_on_c, 0, 68, 0
2, 39001, Note_on_c, 0, 65, 0
2, 39006, Note_on_c, 0, 77, 0
2, 39048, Note_on_c, 0, 62, 80
2, 39049, Note_on_c, 0, 56, 80
2, 39049, Note_on_c, 0, 64, 80
2, 39049, Note_on_c, 0, 68, 80
2, 39051, Note_on_c, 0, 52, 80
2, 39051, Note_on_c, 0, 76, 80
2, 39097, Note_on_c, 0, 56, 0
2, 39099, Note_on_c, 0, 60, 80
2, 39099, Note_on_c, 0, 72, 80
2, 39101, Note_on_c, 0, 52, 0
2, 39101, Note_on_c, 0, 62, 0
2, 39101, Note_on_c, 0, 64, 0
2, 39103, Note_on_c, 0, 69, 80
2, 39108, Note_on_c, 0, 76, 0
2, 39108, Note_on_c, 0, 68, 0
2, 39133, Control_c, 0, 64, 127
2, 39144, Note_on_c, 0, 45, 80
2, 39174, Note_on_c, 0, 60, 0
2, 39179, Note_on_c, 0, 69, 0
2, 39179, Note_on_c, 0, 72, 0
2, 39186, Note_on_c, 0, 59, 80
2, 39191, Note_on_c, 0, 45, 0
2, 39197, Note_on_c, 0, 71, 80
2, 39218, Control_c, 0, 64, 0
2, 39237, Note_on_c, 0, 57, 80
2, 39241, Note_on_c, 0, 72, 80
2, 39243, Note_on_c, 0, 52, 80
2, 39243, Note_on_c, 0, 60, 80
2, 39243, Note_on_c, 0, 69, 80
2, 39245, Note_on_c, 0, 59, 0
2, 39252, Note_on_c, 0, 71, 0
2, 39288, Note_on_c, 0, 57, 0
2, 39293, Note_on_c, 0, 52, 0
2, 39293, Note_on_c, 0, 60, 0
2, 39295, Note_on_c, 0, 69, 0
2, 39300, Note_on_c, 0, 72, 0
2, 39335, Note_on_c, 0, 43, 80
2, 39335, Note_on_c, 0, 60, 80
2, 39335, Note_on_c, 0, 72, 80
2, 39336, Note_on_c, 0, 55, 80
2, 39341, Note_on_c, 0, 64, 80
2, 39341, Note_on_c, 0, 70, 80
2, 39381, Note_on_c, 0, 43, 0
2, 39387, Note_on_c, 0, 55, 0
2, 39427, Note_on_c, 0, 36, 80
2, 39432, Note_on_c, 0, 48, 80
2, 39466, Note_on_c, 0, 64, 0
2, 39471, Note_on_c, 0, 70, 0
2, 39484, Note_on_c, 0, 36, 0
2, 39486, Note_on_c, 0, 48, 0
2, 39488, Note_on_c, 0, 65, 80
2, 39490, Note_on_c, 0, 69, 80
2, 39531, Control_c, 0, 64, 127
2, 39536, Note_on_c, 0, 41, 80
2, 39536, Note_on_c, 0, 53, 80
2, 39589, Note_on_c, 0, 41, 0
2, 39599, Note_on_c, 0, 60, 0
2, 39599, Note_on_c, 0, 53, 0
2, 39620, Control_c, 0, 64, 0
2, 39643, Note_on_c, 0, 57, 80
2, 39648, Note_on_c, 0, 60, 80
2, 39700, Note_on_c, 0, 60, 0
2, 39702, Note_on_c, 0, 57, 0
2, 39739, Note_on_c, 0, 36, 80
2, 39744, Note_on_c, 0, 48, 80
2, 39757, Note_on_c, 0, 65, 0
2, 39757, Note_on_c, 0, 69, 0
2, 39759, Note_on_c, 0, 72, 0
2, 39795, Note_on_c, 0, 57, 80
2, 39797, Note_on_c, 0, 36, 0
2, 39799, Note_on_c, 0, 48, 0
2, 39809, Note_on_c, 0, 69, 80
2, 39853, Note_on_c, 0, 72, 80
2, 39858, Note_on_c, 0, 60, 80
2, 39860, Note_on_c, 0, 69, 0
2, 39906, Note_on_c, 0, 57, 0
2, 39906, Note_on_c, 0, 65, 80
2, 39906, Note_on_c, 0, 77, 80
2, 39908, Note_on_c, 0, 60, 0
2, 39912, Note_on_c, 0, 72, 0
2, 39945, Control_c, 0, 64, 127
2, 39945, Note_on_c, 0, 41, 80
2, 39947, Note_on_c, 0, 53, 80
2, 39952, Note_on_c, 0, 72, 80
2, 39959, Note_on_c, 0, 69, 80
2, 39959, Note_on_c, 0, 81, 80
2, 39960, Note_on_c, 0, 65, 0
2, 39993, Note_on_c, 0, 41, 0
2, 40000, Note_on_c, 0, 53, 0
2, 40009, Note_on_c, 0, 72, 0
2, 40009, Note_on_c, 0, 77, 0
2, 40009, Note_on_c, 0, 81, 0
2, 40009, Note_on_c, 0, 69, 0
2, 40021, Control_c, 0, 64, 0
2, 40044, Note_on_c, 0, 57, 80
2, 40044, Note_on_c, 0, 72, 80
2, 40049, Note_on_c, 0, 60, 80
2, 40054, Note_on_c, 0, 65, 80
2, 40054, Note_on_c, 0, 69, 80
2, 40054, Note_on_c, 0, 81, 80
2, 40056, Note_on_c, 0, 77, 80
2, 40097, Note_on_c, 0, 57, 0
2, 40102, Note_on_c, 0, 69, 0
2, 40102, Note_on_c, 0, 65, 0
2, 40102, Note_on_c, 0, 60, 0
2, 40106, Note_on_c, 0, 72, 0
2, 40106, Note_on_c, 0, 81, 0
2, 40111, Note_on_c, 0, 77, 0
2, 40141, Note_on_c, 0, 41, 80
2, 40143, Note_on_c, 0, 72, 80
2, 40150, Note_on_c, 0, 53, 80
2, 40156, Note_on_c, 0, 77, 80
2, 40158, Note_on_c, 0, 69, 80
2, 40160, Note_on_c, 0, 81, 80
2, 40195, Note_on_c, 0, 41, 0
2, 40201, Note_on_c, 0, 53, 0
2, 40203, Note_on_c, 0, 72, 0
2, 40210, Note_on_c, 0, 69, 0
2, 40210, Note_on_c, 0, 81, 0
2, 40212, Note_on_c, 0, 77, 0
2, 40245, Note_on_c, 0, 42, 80
2, 40249, Note_on_c, 0, 72, 80
2, 40254, Note_on_c, 0, 54, 80
2, 40254, Note_on_c, 0, 80, 80
2, 40261, Note_on_c, 0, 68, 80
2, 40261, Note_on_c, 0, 75, 80
2, 40309, Note_on_c, 0, 42, 0
2, 40314, Note_on_c, 0, 68, 0
2, 40314, Note_on_c, 0, 80, 0
2, 40314, Note_on_c, 0, 54, 0
2, 40316, Note_on_c, 0, 72, 0
2, 40318, Note_on_c, 0, 75, 0
2, 40350, Control_c, 0, 64, 127
2, 40357, Note_on_c, 0, 43, 80
2, 40357, Note_on_c, 0, 55, 80
2, 40362, Note_on_c, 0, 72, 80
2, 40364, Note_on_c, 0, 67, 80
2, 40364, Note_on_c, 0, 79, 80
2, 40366, Note_on_c, 0, 76, 80
2, 40410, Note_on_c, 0, 55, 0
2, 40435, Control_c, 0, 64, 0
2, 40463, Note_on_c, 0, 55, 80
2, 40463, Note_on_c, 0, 60, 80
2, 40463, Note_on_c, 0, 64, 80
2, 40490, Note_on_c, 0, 64, 0
2, 40513, Note_on_c, 0, 64, 80
2, 40515, Note_on_c, 0, 55, 0
2, 40520, Note_on_c, 0, 67, 0
2, 40520, Note_on_c, 0, 79, 0
2, 40522, Note_on_c, 0, 60, 0
2, 40524, Note_on_c, 0, 72, 0
2, 40531, Note_on_c, 0, 43, 0
2, 40563, Note_on_c, 0, 45, 80
2, 40565, Note_on_c, 0, 64, 0
2, 40565, Note_on_c, 0, 57, 80
2, 40565, Note_on_c, 0, 60, 80
2, 40565, Note_on_c, 0, 72, 80
2, 40579, Note_on_c, 0, 76, 0
2, 40613, Note_on_c, 0, 45, 0
2, 40620, Note_on_c, 0, 62, 80
2, 40622, Note_on_c, 0, 57, 0
2, 40622, Note_on_c, 0, 74, 80
2, 40627, Note_on_c, 0, 72, 0
2, 40627, Note_on_c, 0, 60, 0
2, 40666, Note_on_c, 0, 57, 80
2, 40666, Note_on_c, 0, 64, 80
2, 40673, Note_on_c, 0, 62, 0
2, 40673, Note_on_c, 0, 60, 80
2, 40673, Note_on_c, 0, 76, 80
2, 40675, Note_on_c, 0, 74, 0
2, 40721, Note_on_c, 0, 60, 0
2, 40721, Note_on_c, 0, 57, 0
2, 40726, Note_on_c, 0, 64, 0
2, 40762, Control_c, 0, 64, 127
2, 40769, Note_on_c, 0, 50, 80
2, 40774, Note_on_c, 0, 60, 80
2, 40774, Note_on_c, 0, 66, 80
2, 40774, Note_on_c, 0, 72, 80
2, 40776, Note_on_c, 0, 62, 80
2, 40787, Note_on_c, 0, 76, 0
2, 40856, Control_c, 0, 64, 0
2, 40879, Note_on_c, 0, 45, 80
2, 40886, Note_on_c, 0, 57, 80
2, 40944, Note_on_c, 0, 45, 0
2, 40944, Note_on_c, 0, 60, 0
2, 40950, Note_on_c, 0, 72, 0
2, 40950, Note_on_c, 0, 57, 0
2, 40952, Note_on_c, 0, 66, 0
2, 40973, Note_on_c, 0, 50, 0
2, 40978, Note_on_c, 0, 62, 0
2, 40994, Note_on_c, 0, 43, 80
2, 40994, Note_on_c, 0, 55, 80
2, 41004, Note_on_c, 0, 74, 80
2, 41006, Note_on_c, 0, 62, 80
2, 41006, Note_on_c, 0, 65, 80
2, 41006, Note_on_c, 0, 71, 80
2, 41036, Note_on_c, 0, 62, 0
2, 41059, Note_on_c, 0, 62, 80
2, 41142, Note_on_c, 0, 62, 0
2, 41144, Note_on_c, 0, 74, 0
2, 41146, Note_on_c, 0, 65, 0
2, 41151, Note_on_c, 0, 71, 0
2, 41156, Note_on_c, 0, 43, 0
2, 41162, Note_on_c, 0, 64, 80
2, 41167, Note_on_c, 0, 60, 80
2, 41167, Note_on_c, 0, 72, 80
2, 41169, Note_on_c, 0, 55, 0
2, 41171, Note_on_c, 0, 67, 80
2, 41194, Note_on_c, 0, 60, 0
2, 41206, Control_c, 0, 64, 127
2, 41215, Note_on_c, 0, 48, 80
2, 41220, Note_on_c, 0, 60, 80
2, 41268, Note_on_c, 0, 48, 0
2, 41275, Note_on_c, 0, 60, 0
2, 41296, Control_c, 0, 64, 0
2, 41303, Note_on_c, 0, 67, 0
2, 41303, Note_on_c, 0, 64, 0
2, 41303, Note_on_c, 0, 72, 0
2, 41309, Note_on_c, 0, 43, 80
2, 41323, Note_on_c, 0, 55, 80
2, 41328, Note_on_c, 0, 67, 80
2, 41376, Note_on_c, 0, 43, 0
2, 41387, Note_on_c, 0, 67, 0
2, 41420, Note_on_c, 0, 54, 80
2, 41420, Note_on_c, 0, 66, 80
2, 41424, Note_on_c, 0, 45, 80
2, 41426, Note_on_c, 0, 55, 0
2, 41474, Note_on_c, 0, 54, 0
2, 41474, Note_on_c, 0, 45, 0
2, 41476, Note_on_c, 0, 57, 80
2, 41483, Note_on_c, 0, 66, 0
2, 41520, Note_on_c, 0, 53, 80
2, 41524, Note_on_c, 0, 47, 80
2, 41526, Note_on_c, 0, 57, 0
2, 41528, Note_on_c, 0, 65, 80
2, 41581, Note_on_c, 0, 47, 0
2, 41581, Note_on_c, 0, 53, 0
2, 41583, Note_on_c, 0, 59, 80
2, 41585, Note_on_c, 0, 65, 0
2, 41626, Control_c, 0, 64, 127
2, 41631, Note_on_c, 0, 48, 80
2, 41636, Note_on_c, 0, 59, 0
2, 41636, Note_on_c, 0, 64, 80
2, 41640, Note_on_c, 0, 60, 80
2, 41642, Note_on_c, 0, 76, 80
2, 41693, Note_on_c, 0, 79, 80
2, 41698, Note_on_c, 0, 60, 0
2, 41698, Note_on_c, 0, 64, 0
2, 41703, Note_on_c, 0, 67, 80
2, 41719, Control_c, 0, 64, 0
2, 41742, Note_on_c, 0, 55, 80
2, 41742, Note_on_c, 0, 72, 80
2, 41747, Note_on_c, 0, 60, 80
2, 41749, Note_on_c, 0, 79, 0
2, 41751, Note_on_c, 0, 52, 80
2, 41753, Note_on_c, 0, 67, 0
2, 41755, Note_on_c, 0, 84, 80
2, 41794, Note_on_c, 0, 74, 80
2, 41801, Note_on_c, 0, 52, 0
2, 41803, Note_on_c, 0, 76, 0
2, 41803, Note_on_c, 0, 55, 0
2, 41803, Note_on_c, 0, 60, 0
2, 41805, Note_on_c, 0, 72, 0
2, 41805, Note_on_c, 0, 86, 80
2, 41807, Note_on_c, 0, 84, 0
2, 41820, Note_on_c, 0, 48, 0
2, 41841, Note_on_c, 0, 43, 80
2, 41848, Note_on_c, 0, 76, 80
2, 41850, Note_on_c, 0, 88, 80
2, 41855, Note_on_c, 0, 86, 0
2, 41859, Note_on_c, 0, 74, 0
2, 41899, Note_on_c, 0, 88, 0
2, 41901, Note_on_c, 0, 79, 80
2, 41910, Note_on_c, 0, 91, 80
2, 41952, Note_on_c, 0, 55, 80
2, 41956, Note_on_c, 0, 52, 80
2, 41956, Note_on_c, 0, 60, 80
2, 41966, Note_on_c, 0, 76, 0
2, 41984, Note_on_c, 0, 91, 0
2, 41989, Note_on_c, 0, 79, 0
2, 42005, Note_on_c, 0, 52, 0
2, 42005, Note_on_c, 0, 88, 80
2, 42007, Note_on_c, 0, 60, 0
2, 42007, Note_on_c, 0, 76, 80
2, 42007, Note_on_c, 0, 80, 80
2, 42012, Note_on_c, 0, 55, 0
2, 42025, Note_on_c, 0, 43, 0
2, 42048, Control_c, 0, 64, 127
2, 42053, Note_on_c, 0, 47, 80
2, 42083, Note_on_c, 0, 88, 0
2, 42095, Note_on_c, 0, 76, 0
2, 42106, Note_on_c, 0, 87, 80
2, 42108, Note_on_c, 0, 47, 0
2, 42110, Note_on_c, 0, 75, 80
2, 42112, Note_on_c, 0, 80, 0
2, 42137, Control_c, 0, 64, 0
2, 42158, Note_on_c, 0, 88, 80
2, 42163, Note_on_c, 0, 52, 80
2, 42163, Note_on_c, 0, 56, 80
2, 42165, Note_on_c, 0, 62, 80
2, 42165, Note_on_c, 0, 76, 80
2, 42167, Note_on_c, 0, 80, 80
2, 42168, Note_on_c, 0, 75, 0
2, 42168, Note_on_c, 0, 87, 0
2, 42208, Note_on_c, 0, 56, 0
2, 42208, Note_on_c, 0, 62, 0
2, 42210, Note_on_c, 0, 88, 0
2, 42212, Note_on_c, 0, 80, 0
2, 42212, Note_on_c, 0, 52, 0
2, 42216, Note_on_c, 0, 76, 0
2, 42251, Note_on_c, 0, 40, 80
2, 42267, Note_on_c, 0, 80, 80
2, 42267, Note_on_c, 0, 89, 80
2, 42272, Note_on_c, 0, 77, 80
2, 42318, Note_on_c, 0, 40, 0
2, 42323, Note_on_c, 0, 89, 0
2, 42328, Note_on_c, 0, 80, 0
2, 42330, Note_on_c, 0, 77, 0
2, 42374, Note_on_c, 0, 88, 80
2, 42376, Note_on_c, 0, 52, 80
2, 42378, Note_on_c, 0, 56, 80
2, 42383, Note_on_c, 0, 76, 80
2, 42384, Note_on_c, 0, 62, 80
2, 42391, Note_on_c, 0, 80, 80
2, 42432, Note_on_c, 0, 72, 80
2, 42434, Note_on_c, 0, 56, 0
2, 42434, Note_on_c, 0, 88, 0
2, 42436, Note_on_c, 0, 62, 0
2, 42436, Note_on_c, 0, 52, 0
2, 42436, Note_on_c, 0, 81, 80
2, 42441, Note_on_c, 0, 76, 0
2, 42446, Note_on_c, 0, 80, 0
2, 42446, Note_on_c, 0, 84, 80
2, 42476, Control_c, 0, 64, 127
2, 42487, Note_on_c, 0, 45, 80
2, 42524, Note_on_c, 0, 72, 0
2, 42528, Note_on_c, 0, 81, 0
2, 42528, Note_on_c, 0, 84, 0
2, 42545, Note_on_c, 0, 45, 0
2, 42547, Note_on_c, 0, 71, 80
2, 42547, Note_on_c, 0, 83, 80
2, 42570, Control_c, 0, 64, 0
2, 42593, Note_on_c, 0, 57, 80
2, 42598, Note_on_c, 0, 52, 80
2, 42598, Note_on_c, 0, 60, 80
2, 42600, Note_on_c, 0, 72, 80
2, 42601, Note_on_c, 0, 76, 80
2, 42601, Note_on_c, 0, 81, 80
2, 42603, Note_on_c, 0, 83, 0
2, 42603, Note_on_c, 0, 71, 0
2, 42605, Note_on_c, 0, 84, 80
2, 42649, Note_on_c, 0, 52, 0
2, 42654, Note_on_c, 0, 72, 0
2, 42654, Note_on_c, 0, 57, 0
2, 42656, Note_on_c, 0, 60, 0
2, 42656, Note_on_c, 0, 81, 0
2, 42656, Note_on_c, 0, 84, 0
2, 42661, Note_on_c, 0, 76, 0
2, 42696, Note_on_c, 0, 43, 80
2, 42697, Note_on_c, 0, 55, 80
2, 42697, Note_on_c, 0, 72, 80
2, 42707, Note_on_c, 0, 76, 80
2, 42712, Note_on_c, 0, 82, 80
2, 42712, Note_on_c, 0, 84, 80
2, 42740, Note_on_c, 0, 84, 0
2, 42744, Note_on_c, 0, 40, 80
2, 42746, Note_on_c, 0, 52, 80
2, 42753, Note_on_c, 0, 43, 0
2, 42755, Note_on_c, 0, 55, 0
2, 42762, Note_on_c, 0, 84, 80
2, 42792, Note_on_c, 0, 36, 80
2, 42796, Note_on_c, 0, 40, 0
2, 42796, Note_on_c, 0, 48, 80
2, 42803, Note_on_c, 0, 52, 0
2, 42813, Note_on_c, 0, 84, 0
2, 42829, Note_on_c, 0, 76, 0
2, 42836, Note_on_c, 0, 82, 0
2, 42836, Note_on_c, 0, 40, 80
2, 42840, Note_on_c, 0, 48, 0
2, 42842, Note_on_c, 0, 36, 0
2, 42847, Note_on_c, 0, 52, 80
2, 42859, Note_on_c, 0, 77, 80
2, 42859, Note_on_c, 0, 81, 80
2, 42859, Note_on_c, 0, 84, 80
2, 42868, Note_on_c, 0, 40, 0
2, 42878, Note_on_c, 0, 52, 0
2, 42888, Control_c, 0, 64, 127
2, 42894, Note_on_c, 0, 41, 80
2, 42894, Note_on_c, 0, 53, 80
2, 42982, Control_c, 0, 64, 0
2, 43003, Note_on_c, 0, 57, 80
2, 43009, Note_on_c, 0, 60, 80
2, 43060, Note_on_c, 0, 60, 0
2, 43060, Note_on_c, 0, 57, 0
2, 43077, Note_on_c, 0, 41, 0
2, 43088, Note_on_c, 0, 53, 0
2, 43100, Note_on_c, 0, 36, 80
2, 43102, Note_on_c, 0, 48, 80
2, 43115, Note_on_c, 0, 72, 0
2, 43117, Note_on_c, 0, 81, 0
2, 43117, Note_on_c, 0, 84, 0
2, 43122, Note_on_c, 0, 77, 0
2, 43152, Note_on_c, 0, 36, 0
2, 43156, Note_on_c, 0, 48, 0
2, 43158, Note_on_c, 0, 69, 80
2, 43160, Note_on_c, 0, 81, 80
2, 43204, Note_on_c, 0, 57, 80
2, 43204, Note_on_c, 0, 60, 80
2, 43204, Note_on_c, 0, 72, 80
2, 43214, Note_on_c, 0, 69, 0
2, 43216, Note_on_c, 0, 81, 0
2, 43225, Note_on_c, 0, 84, 80
2, 43260, Note_on_c, 0, 89, 80
2, 43262, Note_on_c, 0, 60, 0
2, 43262, Note_on_c, 0, 57, 0
2, 43267, Note_on_c, 0, 72, 0
2, 43269, Note_on_c, 0, 84, 0
2, 43271, Note_on_c, 0, 77, 80
2, 43289, Note_on_c, 0, 89, 0
2, 43296, Control_c, 0, 64, 127
2, 43302, Note_on_c, 0, 41, 80
2, 43307, Note_on_c, 0, 53, 80
2, 43312, Note_on_c, 0, 89, 80
2, 43312, Note_on_c, 0, 93, 80
2, 43323, Note_on_c, 0, 77, 0
2, 43323, Note_on_c, 0, 81, 80
2, 43323, Note_on_c, 0, 84, 80
2, 43335, Control_c, 0, 64, 0
2, 43348, Note_on_c, 0, 41, 0
2, 43360, Note_on_c, 0, 53, 0
2, 43362, Note_on_c, 0, 89, 0
2, 43367, Note_on_c, 0, 93, 0
2, 43368, Note_on_c, 0, 81, 0
2, 43373, Note_on_c, 0, 84, 0
2, 43408, Note_on_c, 0, 57, 80
2, 43408, Note_on_c, 0, 60, 80
2, 43408, Note_on_c, 0, 65, 80
2, 43419, Note_on_c, 0, 84, 80
2, 43419, Note_on_c, 0, 89, 80
2, 43421, Note_on_c, 0, 81, 80
2, 43421, Note_on_c, 0, 93, 80
2, 43461, Note_on_c, 0, 93, 0
2, 43461, Note_on_c, 0, 60, 0
2, 43461, Note_on_c, 0, 57, 0
2, 43461, Note_on_c, 0, 89, 0
2, 43463, Note_on_c, 0, 65, 0
2, 43472, Note_on_c, 0, 81, 0
2, 43472, Note_on_c, 0, 84, 0
2, 43497, Note_on_c, 0, 41, 80
2, 43499, Note_on_c, 0, 53, 80
2, 43512, Note_on_c, 0, 84, 80
2, 43512, Note_on_c, 0, 89, 80
2, 43514, Note_on_c, 0, 81, 80
2, 43514, Note_on_c, 0, 93, 80
2, 43549, Note_on_c, 0, 41, 0
2, 43559, Note_on_c, 0, 89, 0
2, 43560, Note_on_c, 0, 81, 0
2, 43560, Note_on_c, 0, 53, 0
2, 43562, Note_on_c, 0, 93, 0
2, 43564, Note_on_c, 0, 84, 0
2, 43604, Note_on_c, 0, 42, 80
2, 43604, Note_on_c, 0, 54, 80
2, 43613, Note_on_c, 0, 80, 80
2, 43613, Note_on_c, 0, 87, 80
2, 43618, Note_on_c, 0, 84, 80
2, 43618, Note_on_c, 0, 92, 80
2, 43655, Note_on_c, 0, 42, 0
2, 43661, Note_on_c, 0, 92, 0
2, 43666, Note_on_c, 0, 54, 0
2, 43668, Note_on_c, 0, 80, 0
2, 43670, Note_on_c, 0, 87, 0
2, 43680, Note_on_c, 0, 84, 0
2, 43704, Control_c, 0, 64, 127
2, 43704, Note_on_c, 0, 43, 80
2, 43706, Note_on_c, 0, 55, 80
2, 43713, Note_on_c, 0, 88, 80
2, 43718, Note_on_c, 0, 79, 80
2, 43718, Note_on_c, 0, 91, 80
2, 43720, Note_on_c, 0, 84, 80
2, 43768, Note_on_c, 0, 55, 0
2, 43793, Control_c, 0, 64, 0
2, 43818, Note_on_c, 0, 55, 80
2, 43818, Note_on_c, 0, 60, 80
2, 43820, Note_on_c, 0, 88, 0
2, 43826, Note_on_c, 0, 64, 80
2, 43854, Note_on_c, 0, 91, 0
2, 43854, Note_on_c, 0, 79, 0
2, 43861, Note_on_c, 0, 84, 0
2, 43863, Note_on_c, 0, 88, 80
2, 43872, Note_on_c, 0, 60, 0
2, 43872, Note_on_c, 0, 64, 0
2, 43872, Note_on_c, 0, 55, 0
2, 43882, Note_on_c, 0, 76, 80
2, 43896, Note_on_c, 0, 43, 0
2, 43912, Note_on_c, 0, 45, 80
2, 43919, Note_on_c, 0, 72, 80
2, 43923, Note_on_c, 0, 88, 0
2, 43923, Note_on_c, 0, 57, 80
2, 43935, Note_on_c, 0, 76, 0
2, 43937, Note_on_c, 0, 84, 80
2, 43976, Note_on_c, 0, 45, 0
2, 43978, Note_on_c, 0, 57, 0
2, 43978, Note_on_c, 0, 74, 80
2, 43983, Note_on_c, 0, 72, 0
2, 43985, Note_on_c, 0, 86, 80
2, 43992, Note_on_c, 0, 84, 0
2, 44021, Note_on_c, 0, 57, 80
2, 44021, Note_on_c, 0, 60, 80
2, 44021, Note_on_c, 0, 64, 80
2, 44021, Note_on_c, 0, 88, 80
2, 44023, Note_on_c, 0, 74, 0
2, 44023, Note_on_c, 0, 76, 80
2, 44035, Note_on_c, 0, 86, 0
2, 44069, Note_on_c, 0, 88, 0
2, 44071, Note_on_c, 0, 72, 80
2, 44073, Note_on_c, 0, 57, 0
2, 44075, Note_on_c, 0, 64, 0
2, 44075, Note_on_c, 0, 60, 0
2, 44080, Note_on_c, 0, 76, 0
2, 44080, Note_on_c, 0, 84, 80
2, 44103, Note_on_c, 0, 72, 0
2, 44108, Note_on_c, 0, 84, 0
2, 44110, Control_c, 0, 64, 127
2, 44114, Note_on_c, 0, 47, 80
2, 44126, Note_on_c, 0, 71, 80
2, 44128, Note_on_c, 0, 83, 80
2, 44156, Note_on_c, 0, 83, 0
2, 44172, Note_on_c, 0, 47, 0
2, 44177, Note_on_c, 0, 71, 0
2, 44177, Note_on_c, 0, 95, 80
2, 44182, Note_on_c, 0, 83, 80
2, 44198, Control_c, 0, 64, 0
2, 44214, Note_on_c, 0, 55, 80
2, 44219, Note_on_c, 0, 59, 80
2, 44219, Note_on_c, 0, 79, 80
2, 44224, Note_on_c, 0, 64, 80
2, 44224, Note_on_c, 0, 91, 80
2, 44226, Note_on_c, 0, 95, 0
2, 44232, Note_on_c, 0, 83, 0
2, 44272, Note_on_c, 0, 79, 0
2, 44274, Note_on_c, 0, 55, 0
2, 44274, Note_on_c, 0, 59, 0
2, 44274, Note_on_c, 0, 91, 0
2, 44274, Note_on_c, 0, 76, 80
2, 44274, Note_on_c, 0, 88, 80
2, 44279, Note_on_c, 0, 64, 0
2, 44320, Note_on_c, 0, 47, 80
2, 44356, Note_on_c, 0, 88, 0
2, 44358, Note_on_c, 0, 76, 0
2, 44372, Note_on_c, 0, 47, 0
2, 44374, Note_on_c, 0, 79, 80
2, 44378, Note_on_c, 0, 91, 80
2, 44401, Note_on_c, 0, 91, 0
2, 44406, Note_on_c, 0, 79, 0
2, 44427, Note_on_c, 0, 59, 80
2, 44429, Note_on_c, 0, 63, 80
2, 44431, Note_on_c, 0, 57, 80
2, 44433, Note_on_c, 0, 78, 80
2, 44440, Note_on_c, 0, 90, 80
2, 44479, Note_on_c, 0, 87, 80
2, 44481, Note_on_c, 0, 57, 0
2, 44481, Note_on_c, 0, 59, 0
2, 44481, Note_on_c, 0, 63, 0
2, 44486, Note_on_c, 0, 78, 0
2, 44486, Note_on_c, 0, 90, 0
2, 44486, Note_on_c, 0, 75, 80
2, 44509, Note_on_c, 0, 75, 0
2, 44511, Note_on_c, 0, 87, 0
2, 44518, Control_c, 0, 64, 127
2, 44524, Note_on_c, 0, 59, 80
2, 44529, Note_on_c, 0, 52, 80
2, 44529, Note_on_c, 0, 55, 80
2, 44529, Note_on_c, 0, 64, 80
2, 44529, Note_on_c, 0, 79, 80
2, 44529, Note_on_c, 0, 88, 80
2, 44531, Note_on_c, 0, 76, 80
2, 44536, Note_on_c, 0, 83, 80
2, 44603, Control_c, 0, 64, 0
2, 44628, Note_on_c, 0, 52, 0
2, 44628, Note_on_c, 0, 59, 0
2, 44630, Note_on_c, 0, 79, 0
2, 44630, Note_on_c, 0, 88, 0
2, 44632, Note_on_c, 0, 64, 0
2, 44632, Note_on_c, 0, 55, 0
2, 44634, Note_on_c, 0, 83, 0
2, 44636, Note_on_c, 0, 76, 0
2, 44719, Note_on_c, 0, 55, 80
2, 44724, Note_on_c, 0, 50, 80
2, 44724, Note_on_c, 0, 53, 80
2, 44724, Note_on_c, 0, 59, 80
2, 44724, Note_on_c, 0, 79, 80
2, 44724, Note_on_c, 0, 89, 80
2, 44729, Note_on_c, 0, 91, 80
2, 44738, Note_on_c, 0, 83, 80
2, 44808, Note_on_c, 0, 43, 80
2, 44860, Note_on_c, 0, 43, 0
2, 44872, Note_on_c, 0, 55, 0
2, 44872, Note_on_c, 0, 79, 0
2, 44872, Note_on_c, 0, 59, 0
2, 44872, Note_on_c, 0, 53, 0
2, 44872, Note_on_c, 0, 50, 0
2, 44877, Note_on_c, 0, 91, 0
2, 44902, Note_on_c, 0, 89, 0
2, 44904, Note_on_c, 0, 83, 0
2, 44915, Control_c, 0, 64, 127
2, 44917, Note_on_c, 0, 48, 80
2, 44924, Note_on_c, 0, 64, 80
2, 44928, Note_on_c, 0, 76, 80
2, 44968, Note_on_c, 0, 48, 0
2, 44973, Note_on_c, 0, 79, 80
2, 44977, Note_on_c, 0, 67, 80
2, 45024, Note_on_c, 0, 55, 80
2, 45024, Note_on_c, 0, 72, 80
2, 45028, Control_c, 0, 64, 0
2, 45028, Note_on_c, 0, 52, 80
2, 45030, Note_on_c, 0, 60, 80
2, 45032, Note_on_c, 0, 79, 0
2, 45032, Note_on_c, 0, 64, 0
2, 45037, Note_on_c, 0, 67, 0
2, 45042, Note_on_c, 0, 84, 80
2, 45083, Note_on_c, 0, 60, 0
2, 45083, Note_on_c, 0, 55, 0
2, 45083, Note_on_c, 0, 52, 0
2, 45083, Note_on_c, 0, 74, 80
2, 45088, Note_on_c, 0, 76, 0
2, 45088, Note_on_c, 0, 72, 0
2, 45090, Note_on_c, 0, 84, 0
2, 45090, Note_on_c, 0, 86, 80
2, 45129, Note_on_c, 0, 43, 80
2, 45136, Note_on_c, 0, 88, 80
2, 45141, Note_on_c, 0, 76, 80
2, 45143, Note_on_c, 0, 74, 0
2, 45152, Note_on_c, 0, 86, 0
2, 45180, Note_on_c, 0, 43, 0
2, 45182, Note_on_c, 0, 88, 0
2, 45184, Note_on_c, 0, 79, 80
2, 45189, Note_on_c, 0, 91, 80
2, 45233, Note_on_c, 0, 55, 80
2, 45233, Note_on_c, 0, 60, 80
2, 45242, Note_on_c, 0, 52, 80
2, 45247, Note_on_c, 0, 76, 0
2, 45265, Note_on_c, 0, 79, 0
2, 45270, Note_on_c, 0, 91, 0
2, 45282, Note_on_c, 0, 76, 80
2, 45288, Note_on_c, 0, 60, 0
2, 45288, Note_on_c, 0, 80, 80
2, 45288, Note_on_c, 0, 88, 80
2, 45293, Note_on_c, 0, 55, 0
2, 45293, Note_on_c, 0, 52, 0
2, 45326, Control_c, 0, 64, 127
2, 45336, Note_on_c, 0, 47, 80
2, 45359, Note_on_c, 0, 88, 0
2, 45370, Note_on_c, 0, 76, 0
2, 45384, Note_on_c, 0, 47, 0
2, 45390, Note_on_c, 0, 87, 80
2, 45392, Note_on_c, 0, 80, 0
2, 45394, Note_on_c, 0, 75, 80
2, 45412, Control_c, 0, 64, 0
2, 45433, Note_on_c, 0, 56, 80
2, 45435, Note_on_c, 0, 52, 80
2, 45435, Note_on_c, 0, 62, 80
2, 45435, Note_on_c, 0, 76, 80
2, 45437, Note_on_c, 0, 75, 0
2, 45437, Note_on_c, 0, 80, 80
2, 45437, Note_on_c, 0, 88, 80
2, 45447, Note_on_c, 0, 87, 0
2, 45481, Note_on_c, 0, 88, 0
2, 45483, Note_on_c, 0, 56, 0
2, 45485, Note_on_c, 0, 62, 0
2, 45487, Note_on_c, 0, 52, 0
2, 45487, Note_on_c, 0, 80, 0
2, 45494, Note_on_c, 0, 76, 0
2, 45524, Note_on_c, 0, 40, 80
2, 45540, Note_on_c, 0, 80, 80
2, 45540, Note_on_c, 0, 89, 80
2, 45542, Note_on_c, 0, 77, 80
2, 45576, Note_on_c, 0, 40, 0
2, 45581, Note_on_c, 0, 80, 0
2, 45583, Note_on_c, 0, 89, 0
2, 45588, Note_on_c, 0, 77, 0
2, 45627, Note_on_c, 0, 62, 80
2, 45629, Note_on_c, 0, 52, 80
2, 45629, Note_on_c, 0, 56, 80
2, 45629, Note_on_c, 0, 88, 80
2, 45631, Note_on_c, 0, 76, 80
2, 45636, Note_on_c, 0, 80, 80
2, 45682, Note_on_c, 0, 72, 80
2, 45687, Note_on_c, 0, 88, 0
2, 45687, Note_on_c, 0, 62, 0
2, 45689, Note_on_c, 0, 56, 0
2, 45689, Note_on_c, 0, 52, 0
2, 45689, Note_on_c, 0, 80, 0
2, 45691, Note_on_c, 0, 76, 0
2, 45696, Note_on_c, 0, 81, 80
2, 45700, Note_on_c, 0, 84, 80
2, 45723, Control_c, 0, 64, 127
2, 45740, Note_on_c, 0, 45, 80
2, 45779, Note_on_c, 0, 72, 0
2, 45784, Note_on_c, 0, 84, 0
2, 45789, Note_on_c, 0, 71, 80
2, 45791, Note_on_c, 0, 45, 0
2, 45797, Note_on_c, 0, 83, 80
2, 45799, Note_on_c, 0, 81, 0
2, 45817, Control_c, 0, 64, 0
2, 45840, Note_on_c, 0, 57, 80
2, 45845, Note_on_c, 0, 52, 80
2, 45845, Note_on_c, 0, 60, 80
2, 45845, Note_on_c, 0, 72, 80
2, 45847, Note_on_c, 0, 71, 0
2, 45852, Note_on_c, 0, 83, 0
2, 45854, Note_on_c, 0, 81, 80
2, 45854, Note_on_c, 0, 84, 80
2, 45898, Note_on_c, 0, 60, 0
2, 45898, Note_on_c, 0, 52, 0
2, 45898, Note_on_c, 0, 57, 0
2, 45905, Note_on_c, 0, 72, 0
2, 45905, Note_on_c, 0, 81, 0
2, 45910, Note_on_c, 0, 84, 0
2, 45933, Note_on_c, 0, 43, 80
2, 45939, Note_on_c, 0, 55, 80
2, 45946, Note_on_c, 0, 72, 80
2, 45948, Note_on_c, 0, 76, 80
2, 45955, Note_on_c, 0, 82, 80
2, 45955, Note_on_c, 0, 84, 80
2, 45978, Note_on_c, 0, 82, 0
2, 45983, Note_on_c, 0, 40, 80
2, 45992, Note_on_c, 0, 43, 0
2, 45994, Note_on_c, 0, 52, 80
2, 45999, Note_on_c, 0, 55, 0
2, 46001, Note_on_c, 0, 82, 80
2, 46031, Note_on_c, 0, 36, 80
2, 46035, Note_on_c, 0, 48, 80
2, 46040, Note_on_c, 0, 40, 0
2, 46040, Note_on_c, 0, 52, 0
2, 46050, Note_on_c, 0, 72, 0
2, 46055, Note_on_c, 0, 84, 0
2, 46080, Note_on_c, 0, 40, 80
2, 46084, Note_on_c, 0, 48, 0
2, 46091, Note_on_c, 0, 72, 80
2, 46093, Note_on_c, 0, 36, 0
2, 46093, Note_on_c, 0, 52, 80
2, 46098, Note_on_c, 0, 77, 80
2, 46100, Note_on_c, 0, 81, 80
2, 46102, Note_on_c, 0, 76, 0
2, 46102, Note_on_c, 0, 84, 80
2, 46104, Note_on_c, 0, 82, 0
2, 46127, Control_c, 0, 64, 127
2, 46136, Note_on_c, 0, 41, 80
2, 46136, Note_on_c, 0, 53, 80
2, 46138, Note_on_c, 0, 40, 0
2, 46150, Note_on_c, 0, 52, 0
2, 46184, Note_on_c, 0, 41, 0
2, 46194, Note_on_c, 0, 53, 0
2, 46222, Control_c, 0, 64, 0
2, 46233, Note_on_c, 0, 57, 80
2, 46240, Note_on_c, 0, 60, 80
2, 46300, Note_on_c, 0, 60, 0
2, 46300, Note_on_c, 0, 57, 0
2, 46351, Note_on_c, 0, 36, 80
2, 46353, Note_on_c, 0, 48, 80
2, 46365, Note_on_c, 0, 72, 0
2, 46365, Note_on_c, 0, 77, 0
2, 46367, Note_on_c, 0, 84, 0
2, 46371, Note_on_c, 0, 81, 0
2, 46401, Note_on_c, 0, 48, 0
2, 46403, Note_on_c, 0, 36, 0
2, 46413, Note_on_c, 0, 69, 80
2, 46417, Note_on_c, 0, 81, 80
2, 46465, Note_on_c, 0, 57, 80
2, 46465, Note_on_c, 0, 72, 80
2, 46470, Note_on_c, 0, 60, 80
2, 46477, Note_on_c, 0, 81, 0
2, 46477, Note_on_c, 0, 69, 0
2, 46482, Note_on_c, 0, 84, 80
2, 46526, Note_on_c, 0, 60, 0
2, 46526, Note_on_c, 0, 89, 80
2, 46533, Note_on_c, 0, 72, 0
2, 46533, Note_on_c, 0, 57, 0
2, 46535, Note_on_c, 0, 77, 80
2, 46536, Note_on_c, 0, 84, 0
2, 46564, Note_on_c, 0, 89, 0
2, 46571, Control_c, 0, 64, 127
2, 46573, Note_on_c, 0, 41, 80
2, 46573, Note_on_c, 0, 53, 80
2, 46586, Note_on_c, 0, 77, 0
2, 46586, Note_on_c, 0, 81, 80
2, 46586, Note_on_c, 0, 84, 80
2, 46586, Note_on_c, 0, 89, 80
2, 46591, Note_on_c, 0, 93, 80
2, 46628, Note_on_c, 0, 41, 0
2, 46632, Note_on_c, 0, 89, 0
2, 46637, Note_on_c, 0, 93, 0
2, 46639, Note_on_c, 0, 53, 0
2, 46646, Note_on_c, 0, 81, 0
2, 46646, Note_on_c, 0, 84, 0
2, 46662, Control_c, 0, 64, 0
2, 46683, Note_on_c, 0, 57, 80
2, 46693, Note_on_c, 0, 60, 80
2, 46698, Note_on_c, 0, 65, 80
2, 46698, Note_on_c, 0, 84, 80
2, 46700, Note_on_c, 0, 81, 80
2, 46700, Note_on_c, 0, 89, 80
2, 46700, Note_on_c, 0, 93, 80
2, 46748, Note_on_c, 0, 89, 0
2, 46748, Note_on_c, 0, 57, 0
2, 46748, Note_on_c, 0, 60, 0
2, 46748, Note_on_c, 0, 65, 0
2, 46750, Note_on_c, 0, 81, 0
2, 46752, Note_on_c, 0, 93, 0
2, 46758, Note_on_c, 0, 84, 0
2, 46783, Note_on_c, 0, 41, 80
2, 46790, Note_on_c, 0, 53, 80
2, 46801, Note_on_c, 0, 89, 80
2, 46801, Note_on_c, 0, 93, 80
2, 46803, Note_on_c, 0, 81, 80
2, 46808, Note_on_c, 0, 84, 80
2, 46843, Note_on_c, 0, 93, 0
2, 46845, Note_on_c, 0, 89, 0
2, 46845, Note_on_c, 0, 41, 0
2, 46847, Note_on_c, 0, 53, 0
2, 46856, Note_on_c, 0, 81, 0
2, 46856, Note_on_c, 0, 84, 0
2, 46891, Note_on_c, 0, 42, 80
2, 46893, Note_on_c, 0, 54, 80
2, 46899, Note_on_c, 0, 87, 80
2, 46901, Note_on_c, 0, 80, 80
2, 46901, Note_on_c, 0, 84, 80
2, 46901, Note_on_c, 0, 92, 80
2, 46943, Note_on_c, 0, 42, 0
2, 46944, Note_on_c, 0, 54, 0
2, 46951, Note_on_c, 0, 92, 0
2, 46956, Note_on_c, 0, 80, 0
2, 46958, Note_on_c, 0, 84, 0
2, 46958, Note_on_c, 0, 87, 0
2, 46983, Control_c, 0, 64, 127
2, 46990, Note_on_c, 0, 43, 80
2, 46999, Note_on_c, 0, 55, 80
2, 47001, Note_on_c, 0, 88, 80
2, 47001, Note_on_c, 0, 91, 80
2, 47003, Note_on_c, 0, 79, 80
2, 47015, Note_on_c, 0, 84, 80
2, 47044, Note_on_c, 0, 43, 0
2, 47056, Note_on_c, 0, 55, 0
2, 47079, Control_c, 0, 64, 0
2, 47104, Note_on_c, 0, 55, 80
2, 47106, Note_on_c, 0, 64, 80
2, 47108, Note_on_c, 0, 88, 0
2, 47112, Note_on_c, 0, 60, 80
2, 47137, Note_on_c, 0, 79, 0
2, 47144, Note_on_c, 0, 91, 0
2, 47154, Note_on_c, 0, 84, 0
2, 47159, Note_on_c, 0, 88, 80
2, 47165, Note_on_c, 0, 64, 0
2, 47167, Note_on_c, 0, 60, 0
2, 47167, Note_on_c, 0, 55, 0
2, 47169, Note_on_c, 0, 76, 80
2, 47208, Note_on_c, 0, 45, 80
2, 47215, Note_on_c, 0, 72, 80
2, 47217, Note_on_c, 0, 88, 0
2, 47217, Note_on_c, 0, 57, 80
2, 47222, Note_on_c, 0, 76, 0
2, 47227, Note_on_c, 0, 84, 80
2, 47268, Note_on_c, 0, 74, 80
2, 47275, Note_on_c, 0, 57, 0
2, 47275, Note_on_c, 0, 45, 0
2, 47280, Note_on_c, 0, 72, 0
2, 47286, Note_on_c, 0, 86, 80
2, 47288, Note_on_c, 0, 84, 0
2, 47318, Note_on_c, 0, 60, 80
2, 47320, Note_on_c, 0, 57, 80
2, 47322, Note_on_c, 0, 88, 80
2, 47328, Note_on_c, 0, 74, 0
2, 47328, Note_on_c, 0, 64, 80
2, 47330, Note_on_c, 0, 76, 80
2, 47337, Note_on_c, 0, 86, 0
2, 47376, Note_on_c, 0, 88, 0
2, 47376, Note_on_c, 0, 57, 0
2, 47376, Note_on_c, 0, 60, 0
2, 47378, Note_on_c, 0, 64, 0
2, 47388, Note_on_c, 0, 76, 0
2, 47416, Control_c, 0, 64, 127
2, 47427, Note_on_c, 0, 50, 80
2, 47429, Note_on_c, 0, 62, 80
2, 47431, Note_on_c, 0, 72, 80
2, 47431, Note_on_c, 0, 78, 80
2, 47438, Note_on_c, 0, 84, 80
2, 47472, Note_on_c, 0, 48, 80
2, 47482, Note_on_c, 0, 60, 80
2, 47484, Note_on_c, 0, 62, 0
2, 47484, Note_on_c, 0, 50, 0
2, 47505, Control_c, 0, 64, 0
2, 47528, Note_on_c, 0, 48, 0
2, 47530, Note_on_c, 0, 45, 80
2, 47540, Note_on_c, 0, 60, 0
2, 47540, Note_on_c, 0, 57, 80
2, 47581, Note_on_c, 0, 44, 80
2, 47581, Note_on_c, 0, 56, 80
2, 47583, Note_on_c, 0, 45, 0
2, 47588, Note_on_c, 0, 57, 0
2, 47597, Note_on_c, 0, 78, 0
2, 47602, Note_on_c, 0, 84, 0
2, 47618, Note_on_c, 0, 72, 0
2, 47625, Note_on_c, 0, 43, 80
2, 47630, Note_on_c, 0, 55, 80
2, 47632, Note_on_c, 0, 44, 0
2, 47641, Note_on_c, 0, 74, 80
2, 47646, Note_on_c, 0, 56, 0
2, 47648, Note_on_c, 0, 83, 80
2, 47648, Note_on_c, 0, 86, 80
2, 47653, Note_on_c, 0, 77, 80
2, 47674, Note_on_c, 0, 77, 0
2, 47674, Note_on_c, 0, 83, 0
2, 47699, Note_on_c, 0, 77, 80
2, 47699, Note_on_c, 0, 83, 80
2, 47783, Note_on_c, 0, 74, 0
2, 47787, Note_on_c, 0, 77, 0
2, 47787, Note_on_c, 0, 86, 0
2, 47787, Note_on_c, 0, 83, 0
2, 47787, Note_on_c, 0, 40, 80
2, 47797, Note_on_c, 0, 43, 0
2, 47804, Note_on_c, 0, 52, 80
2, 47804, Note_on_c, 0, 79, 80
2, 47806, Note_on_c, 0, 72, 80
2, 47806, Note_on_c, 0, 76, 80
2, 47808, Note_on_c, 0, 55, 0
2, 47814, Note_on_c, 0, 84, 80
2, 47842, Control_c, 0, 64, 127
2, 47849, Note_on_c, 0, 48, 80
2, 47856, Note_on_c, 0, 40, 0
2, 47860, Note_on_c, 0, 60, 80
2, 47862, Note_on_c, 0, 52, 0
2, 47904, Note_on_c, 0, 48, 0
2, 47910, Note_on_c, 0, 52, 80
2, 47910, Note_on_c, 0, 64, 80
2, 47915, Note_on_c, 0, 76, 0
2, 47915, Note_on_c, 0, 60, 0
2, 47917, Note_on_c, 0, 79, 0
2, 47917, Note_on_c, 0, 72, 0
2, 47922, Note_on_c, 0, 84, 0
2, 47935, Control_c, 0, 64, 0
2, 47963, Note_on_c, 0, 64, 0
2, 47965, Note_on_c, 0, 55, 80
2, 47967, Note_on_c, 0, 52, 0
2, 47969, Note_on_c, 0, 67, 80
2, 48010, Note_on_c, 0, 57, 80
2, 48020, Note_on_c, 0, 55, 0
2, 48022, Note_on_c, 0, 69, 80
2, 48024, Note_on_c, 0, 67, 0
2, 48063, Note_on_c, 0, 59, 80
2, 48072, Note_on_c, 0, 69, 0
2, 48072, Note_on_c, 0, 57, 0
2, 48074, Note_on_c, 0, 71, 80
2, 48122, Note_on_c, 0, 60, 80
2, 48122, Note_on_c, 0, 72, 80
2, 48127, Note_on_c, 0, 71, 0
2, 48127, Note_on_c, 0, 59, 0
2, 48168, Note_on_c, 0, 74, 80
2, 48170, Note_on_c, 0, 62, 80
2, 48175, Note_on_c, 0, 60, 0
2, 48182, Note_on_c, 0, 72, 0
2, 48223, Note_on_c, 0, 64, 80
2, 48228, Note_on_c, 0, 76, 80
2, 48233, Note_on_c, 0, 74, 0
2, 48233, Note_on_c, 0, 62, 0
2, 48269, Control_c, 0, 64, 127
2, 48271, Note_on_c, 0, 74, 80
2, 48276, Note_on_c, 0, 55, 80
2, 48281, Note_on_c, 0, 67, 80
2, 48281, Note_on_c, 0, 71, 80
2, 48286, Note_on_c, 0, 64, 0
2, 48290, Note_on_c, 0, 76, 0
2, 48323, Note_on_c, 0, 54, 80
2, 48328, Note_on_c, 0, 55, 0
2, 48330, Note_on_c, 0, 66, 80
2, 48336, Note_on_c, 0, 67, 0
2, 48378, Control_c, 0, 64, 0
2, 48378, Note_on_c, 0, 53, 80
2, 48384, Note_on_c, 0, 54, 0
2, 48386, Note_on_c, 0, 66, 0
2, 48386, Note_on_c, 0, 65, 80
2, 48431, Note_on_c, 0, 53, 0
2, 48431, Note_on_c, 0, 64, 80
2, 48432, Note_on_c, 0, 74, 0
2, 48434, Note_on_c, 0, 52, 80
2, 48441, Note_on_c, 0, 65, 0
2, 48441, Note_on_c, 0, 71, 0
2, 48480, Note_on_c, 0, 50, 80
2, 48482, Note_on_c, 0, 52, 0
2, 48482, Note_on_c, 0, 79, 80
2, 48487, Note_on_c, 0, 62, 80
2, 48487, Note_on_c, 0, 67, 80
2, 48487, Note_on_c, 0, 71, 80
2, 48489, Note_on_c, 0, 64, 0
2, 48537, Note_on_c, 0, 62, 0
2, 48537, Note_on_c, 0, 50, 0
2, 48537, Note_on_c, 0, 48, 80
2, 48539, Note_on_c, 0, 60, 80
2, 48583, Note_on_c, 0, 48, 0
2, 48585, Note_on_c, 0, 59, 80
2, 48590, Note_on_c, 0, 60, 0
2, 48590, Note_on_c, 0, 47, 80
2, 48636, Note_on_c, 0, 45, 80
2, 48638, Note_on_c, 0, 47, 0
2, 48640, Note_on_c, 0, 57, 80
2, 48645, Note_on_c, 0, 59, 0
2, 48681, Control_c, 0, 64, 127
2, 48683, Note_on_c, 0, 43, 80
2, 48690, Note_on_c, 0, 55, 80
2, 48692, Note_on_c, 0, 45, 0
2, 48692, Note_on_c, 0, 57, 0
2, 48696, Note_on_c, 0, 79, 0
2, 48701, Note_on_c, 0, 67, 0
2, 48703, Note_on_c, 0, 71, 0
2, 48740, Note_on_c, 0, 43, 0
2, 48742, Note_on_c, 0, 74, 80
2, 48744, Note_on_c, 0, 62, 80
2, 48750, Note_on_c, 0, 55, 0
2, 48771, Control_c, 0, 64, 0
2, 48790, Note_on_c, 0, 44, 80
2, 48796, Note_on_c, 0, 62, 0
2, 48796, Note_on_c, 0, 56, 80
2, 48796, Note_on_c, 0, 71, 80
2, 48796, Note_on_c, 0, 83, 80
2, 48798, Note_on_c, 0, 74, 0
2, 48835, Note_on_c, 0, 44, 0
2, 48835, Note_on_c, 0, 74, 80
2, 48840, Note_on_c, 0, 62, 80
2, 48849, Note_on_c, 0, 71, 0
2, 48849, Note_on_c, 0, 56, 0
2, 48859, Note_on_c, 0, 83, 0
2, 48887, Note_on_c, 0, 45, 80
2, 48888, Note_on_c, 0, 57, 80
2, 48895, Note_on_c, 0, 62, 0
2, 48897, Note_on_c, 0, 74, 0
2, 48899, Note_on_c, 0, 65, 80
2, 48904, Note_on_c, 0, 77, 80
2, 48936, Note_on_c, 0, 45, 0
2, 48943, Note_on_c, 0, 57, 0
2, 48945, Note_on_c, 0, 69, 80
2, 48950, Note_on_c, 0, 65, 0
2, 48950, Note_on_c, 0, 81, 80
2, 48957, Note_on_c, 0, 77, 0
2, 48982, Note_on_c, 0, 59, 80
2, 48986, Note_on_c, 0, 47, 80
2, 48986, Note_on_c, 0, 79, 80
2, 48991, Note_on_c, 0, 67, 80
2, 48993, Note_on_c, 0, 81, 0
2, 48993, Note_on_c, 0, 69, 0
2, 49030, Note_on_c, 0, 47, 0
2, 49034, Note_on_c, 0, 59, 0
2, 49036, Note_on_c, 0, 65, 80
2, 49041, Note_on_c, 0, 67, 0
2, 49041, Note_on_c, 0, 79, 0
2, 49041, Note_on_c, 0, 77, 80
2, 49076, Control_c, 0, 64, 127
2, 49087, Note_on_c, 0, 48, 80
2, 49089, Note_on_c, 0, 60, 80
2, 49096, Note_on_c, 0, 65, 0
2, 49096, Note_on_c, 0, 64, 80
2, 49096, Note_on_c, 0, 76, 80
2, 49105, Note_on_c, 0, 77, 0
2, 49142, Note_on_c, 0, 48, 0
2, 49147, Note_on_c, 0, 63, 80
2, 49149, Note_on_c, 0, 64, 0
2, 49151, Note_on_c, 0, 60, 0
2, 49151, Note_on_c, 0, 75, 80
2, 49155, Note_on_c, 0, 76, 0
2, 49167, Control_c, 0, 64, 0
2, 49192, Note_on_c, 0, 55, 80
2, 49194, Note_on_c, 0, 60, 80
2, 49203, Note_on_c, 0, 64, 80
2, 49203, Note_on_c, 0, 76, 80
2, 49205, Note_on_c, 0, 75, 0
2, 49207, Note_on_c, 0, 63, 0
2, 49244, Note_on_c, 0, 79, 80
2, 49248, Note_on_c, 0, 55, 0
2, 49248, Note_on_c, 0, 67, 80
2, 49255, Note_on_c, 0, 60, 0
2, 49255, Note_on_c, 0, 64, 0
2, 49262, Note_on_c, 0, 76, 0
2, 49301, Note_on_c, 0, 52, 80
2, 49362, Note_on_c, 0, 52, 0
2, 49403, Note_on_c, 0, 55, 80
2, 49408, Note_on_c, 0, 60, 80
2, 49410, Note_on_c, 0, 64, 80
2, 49458, Note_on_c, 0, 64, 0
2, 49460, Note_on_c, 0, 55, 0
2, 49462, Note_on_c, 0, 60, 0
2, 49466, Note_on_c, 0, 67, 0
2, 49488, Note_on_c, 0, 79, 0
2, 49497, Control_c, 0, 64, 127
2, 49504, Note_on_c, 0, 54, 80
2, 49504, Note_on_c, 0, 57, 80
2, 49504, Note_on_c, 0, 60, 80
2, 49504, Note_on_c, 0, 63, 80
2, 49509, Note_on_c, 0, 72, 80
2, 49561, Note_on_c, 0, 75, 80
2, 49563, Note_on_c, 0, 72, 0
2, 49586, Control_c, 0, 64, 0
2, 49608, Note_on_c, 0, 66, 80
2, 49608, Note_on_c, 0, 78, 80
2, 49619, Note_on_c, 0, 75, 0
2, 49665, Note_on_c, 0, 66, 0
2, 49665, Note_on_c, 0, 69, 80
2, 49665, Note_on_c, 0, 81, 80
2, 49670, Note_on_c, 0, 78, 0
2, 49688, Note_on_c, 0, 54, 0
2, 49690, Note_on_c, 0, 63, 0
2, 49692, Note_on_c, 0, 57, 0
2, 49702, Note_on_c, 0, 55, 80
2, 49706, Note_on_c, 0, 64, 80
2, 49706, Note_on_c, 0, 67, 80
2, 49706, Note_on_c, 0, 79, 80
2, 49713, Note_on_c, 0, 69, 0
2, 49715, Note_on_c, 0, 81, 0
2, 49761, Note_on_c, 0, 76, 80
2, 49768, Note_on_c, 0, 67, 0
2, 49768, Note_on_c, 0, 79, 0
2, 49812, Note_on_c, 0, 79, 80
2, 49817, Note_on_c, 0, 67, 80
2, 49822, Note_on_c, 0, 76, 0
2, 49843, Note_on_c, 0, 60, 0
2, 49848, Note_on_c, 0, 55, 0
2, 49848, Note_on_c, 0, 64, 0
2, 49866, Note_on_c, 0, 72, 80
2, 49872, Note_on_c, 0, 79, 0
2, 49877, Note_on_c, 0, 67, 0
2, 49879, Note_on_c, 0, 84, 80
2, 49907, Control_c, 0, 64, 127
2, 49919, Note_on_c, 0, 50, 80
2, 49919, Note_on_c, 0, 74, 80
2, 49923, Note_on_c, 0, 62, 80
2, 49933, Note_on_c, 0, 77, 80
2, 49966, Note_on_c, 0, 50, 0
2, 49975, Note_on_c, 0, 62, 0
2, 49980, Note_on_c, 0, 74, 0
2, 49980, Note_on_c, 0, 72, 0
2, 49985, Note_on_c, 0, 77, 0
2, 49990, Note_on_c, 0, 84, 0
2, 49992, Control_c, 0, 64, 0
2, 50016, Note_on_c, 0, 59, 80
2, 50021, Note_on_c, 0, 55, 80
2, 50023, Note_on_c, 0, 74, 80
2, 50025, Note_on_c, 0, 65, 80
2, 50027, Note_on_c, 0, 71, 80
2, 50027, Note_on_c, 0, 83, 80
2, 50034, Note_on_c, 0, 77, 80
2, 50073, Note_on_c, 0, 55, 0
2, 50075, Note_on_c, 0, 65, 0
2, 50075, Note_on_c, 0, 59, 0
2, 50112, Note_on_c, 0, 43, 80
2, 50113, Note_on_c, 0, 55, 80
2, 50120, Note_on_c, 0, 74, 0
2, 50130, Note_on_c, 0, 77, 0
2, 50151, Note_on_c, 0, 71, 0
2, 50156, Note_on_c, 0, 83, 0
2, 50165, Note_on_c, 0, 43, 0
2, 50165, Note_on_c, 0, 74, 80
2, 50175, Note_on_c, 0, 55, 0
2, 50177, Note_on_c, 0, 70, 80
2, 50177, Note_on_c, 0, 77, 80
2, 50177, Note_on_c, 0, 82, 80
2, 50218, Note_on_c, 0, 55, 80
2, 50223, Note_on_c, 0, 59, 80
2, 50223, Note_on_c, 0, 65, 80
2, 50223, Note_on_c, 0, 71, 80
2, 50223, Note_on_c, 0, 83, 80
2, 50230, Note_on_c, 0, 82, 0
2, 50230, Note_on_c, 0, 70, 0
2, 50264, Note_on_c, 0, 59, 0
2, 50269, Note_on_c, 0, 55, 0
2, 50276, Note_on_c, 0, 71, 0
2, 50276, Note_on_c, 0, 74, 0
2, 50278, Note_on_c, 0, 65, 0
2, 50278, Note_on_c, 0, 83, 0
2, 50278, Note_on_c, 0, 77, 0
2, 50303, Control_c, 0, 64, 127
2, 50312, Note_on_c, 0, 59, 80
2, 50314, Note_on_c, 0, 47, 80
2, 50316, Note_on_c, 0, 65, 80
2, 50316, Note_on_c, 0, 74, 80
2, 50328, Note_on_c, 0, 77, 80
2, 50351, Note_on_c, 0, 46, 80
2, 50364, Note_on_c, 0, 47, 0
2, 50364, Note_on_c, 0, 59, 0
2, 50366, Note_on_c, 0, 58, 80
2, 50384, Control_c, 0, 64, 0
2, 50412, Note_on_c, 0, 46, 0
2, 50417, Note_on_c, 0, 45, 80
2, 50417, Note_on_c, 0, 57, 80
2, 50419, Note_on_c, 0, 58, 0
2, 50467, Note_on_c, 0, 45, 0
2, 50473, Note_on_c, 0, 44, 80
2, 50473, Note_on_c, 0, 56, 80
2, 50475, Note_on_c, 0, 57, 0
2, 50517, Note_on_c, 0, 44, 0
2, 50517, Note_on_c, 0, 43, 80
2, 50523, Note_on_c, 0, 55, 80
2, 50525, Note_on_c, 0, 56, 0
2, 50560, Note_on_c, 0, 65, 0
2, 50569, Note_on_c, 0, 43, 0
2, 50581, Note_on_c, 0, 55, 0
2, 50594, Note_on_c, 0, 77, 0
2, 50624, Note_on_c, 0, 55, 80
2, 50626, Note_on_c, 0, 65, 80
2, 50628, Note_on_c, 0, 59, 80
2, 50633, Note_on_c, 0, 74, 0
2, 50638, Note_on_c, 0, 77, 80
2, 50674, Note_on_c, 0, 71, 80
2, 50679, Note_on_c, 0, 55, 0
2, 50679, Note_on_c, 0, 59, 0
2, 50684, Note_on_c, 0, 83, 80
2, 50686, Note_on_c, 0, 65, 0
2, 50692, Note_on_c, 0, 77, 0
2, 50715, Control_c, 0, 64, 127
2, 50727, Note_on_c, 0, 48, 80
2, 50729, Note_on_c, 0, 60, 80
2, 50729, Note_on_c, 0, 72, 80
2, 50734, Note_on_c, 0, 71, 0
2, 50734, Note_on_c, 0, 76, 80
2, 50770, Note_on_c, 0, 48, 0
2, 50777, Note_on_c, 0, 60, 0
2, 50782, Note_on_c, 0, 72, 0
2, 50786, Note_on_c, 0, 83, 0
2, 50786, Note_on_c, 0, 76, 0
2, 50791, Control_c, 0, 64, 0
2, 50816, Note_on_c, 0, 64, 80
2, 50818, Note_on_c, 0, 55, 80
2, 50820, Note_on_c, 0, 72, 80
2, 50820, Note_on_c, 0, 76, 80
2, 50822, Note_on_c, 0, 60, 80
2, 50822, Note_on_c, 0, 69, 80
2, 50829, Note_on_c, 0, 81, 80
2, 50850, Note_on_c, 0, 69, 0
2, 50875, Note_on_c, 0, 55, 0
2, 50875, Note_on_c, 0, 64, 0
2, 50875, Note_on_c, 0, 60, 0
2, 50880, Note_on_c, 0, 69, 80
2, 50914, Note_on_c, 0, 43, 80
2, 50916, Note_on_c, 0, 55, 80
2, 50929, Note_on_c, 0, 69, 0
2, 50929, Note_on_c, 0, 76, 0
2, 50929, Note_on_c, 0, 72, 0
2, 50929, Note_on_c, 0, 81, 0
2, 50959, Note_on_c, 0, 43, 0
2, 50961, Note_on_c, 0, 72, 80
2, 50968, Note_on_c, 0, 55, 0
2, 50970, Note_on_c, 0, 76, 80
2, 50970, Note_on_c, 0, 80, 80
2, 50975, Note_on_c, 0, 68, 80
2, 50996, Note_on_c, 0, 76, 0
2, 51002, Note_on_c, 0, 55, 80
2, 51016, Note_on_c, 0, 60, 80
2, 51016, Note_on_c, 0, 64, 80
2, 51018, Note_on_c, 0, 68, 0
2, 51018, Note_on_c, 0, 69, 80
2, 51020, Note_on_c, 0, 76, 80
2, 51022, Note_on_c, 0, 80, 0
2, 51026, Note_on_c, 0, 81, 80
2, 51068, Note_on_c, 0, 55, 0
2, 51068, Note_on_c, 0, 64, 0
2, 51070, Note_on_c, 0, 60, 0
2, 51072, Note_on_c, 0, 76, 0
2, 51072, Note_on_c, 0, 72, 0
2, 51072, Note_on_c, 0, 69, 0
2, 51076, Note_on_c, 0, 81, 0
2, 51101, Control_c, 0, 64, 127
2, 51113, Note_on_c, 0, 48, 80
2, 51118, Note_on_c, 0, 60, 80
2, 51118, Note_on_c, 0, 64, 80
2, 51118, Note_on_c, 0, 72, 80
2, 51124, Note_on_c, 0, 76, 80
2, 51166, Note_on_c, 0, 48, 0
2, 51172, Note_on_c, 0, 47, 80
2, 51172, Note_on_c, 0, 59, 80
2, 51177, Note_on_c, 0, 60, 0
2, 51195, Control_c, 0, 64, 0
2, 51223, Note_on_c, 0, 47, 0
2, 51225, Note_on_c, 0, 45, 80
2, 51227, Note_on_c, 0, 57, 80
2, 51229, Note_on_c, 0, 59, 0
2, 51268, Note_on_c, 0, 44, 80
2, 51275, Note_on_c, 0, 45, 0
2, 51282, Note_on_c, 0, 57, 0
2, 51282, Note_on_c, 0, 56, 80
2, 51318, Note_on_c, 0, 43, 80
2, 51323, Note_on_c, 0, 44, 0
2, 51323, Note_on_c, 0, 55, 80
2, 51330, Note_on_c, 0, 56, 0
2, 51358, Note_on_c, 0, 64, 0
2, 51360, Note_on_c, 0, 72, 0
2, 51364, Note_on_c, 0, 76, 0
2, 51378, Note_on_c, 0, 67, 80
2, 51422, Note_on_c, 0, 43, 0
2, 51424, Note_on_c, 0, 60, 80
2, 51429, Note_on_c, 0, 72, 80
2, 51433, Note_on_c, 0, 67, 0
2, 51433, Note_on_c, 0, 55, 0
2, 51473, Note_on_c, 0, 64, 80
2, 51478, Note_on_c, 0, 76, 80
2, 51480, Note_on_c, 0, 60, 0
2, 51480, Note_on_c, 0, 72, 0
2, 51514, Control_c, 0, 64, 127
2, 51521, Note_on_c, 0, 55, 80
2, 51526, Note_on_c, 0, 67, 80
2, 51526, Note_on_c, 0, 71, 80
2, 51526, Note_on_c, 0, 74, 80
2, 51530, Note_on_c, 0, 64, 0
2, 51535, Note_on_c, 0, 76, 0
2, 51572, Note_on_c, 0, 55, 0
2, 51572, Note_on_c, 0, 54, 80
2, 51572, Note_on_c, 0, 66, 80
2, 51585, Note_on_c, 0, 67, 0
2, 51615, Note_on_c, 0, 53, 80
2, 51622, Note_on_c, 0, 65, 80
2, 51626, Note_on_c, 0, 54, 0
2, 51626, Note_on_c, 0, 66, 0
2, 51643, Control_c, 0, 64, 0
2, 51671, Note_on_c, 0, 64, 80
2, 51675, Note_on_c, 0, 53, 0
2, 51675, Note_on_c, 0, 71, 0
2, 51675, Note_on_c, 0, 65, 0
2, 51675, Note_on_c, 0, 52, 80
2, 51715, Note_on_c, 0, 50, 80
2, 51721, Note_on_c, 0, 67, 80
2, 51721, Note_on_c, 0, 71, 80
2, 51721, Note_on_c, 0, 79, 80
2, 51723, Note_on_c, 0, 52, 0
2, 51725, Note_on_c, 0, 62, 80
2, 51727, Note_on_c, 0, 64, 0
2, 51727, Note_on_c, 0, 74, 0
2, 51773, Note_on_c, 0, 50, 0
2, 51773, Note_on_c, 0, 48, 80
2, 51775, Note_on_c, 0, 60, 80
2, 51777, Note_on_c, 0, 62, 0
2, 51828, Note_on_c, 0, 47, 80
2, 51830, Note_on_c, 0, 48, 0
2, 51832, Note_on_c, 0, 59, 80
2, 51834, Note_on_c, 0, 60, 0
2, 51882, Note_on_c, 0, 47, 0
2, 51888, Note_on_c, 0, 59, 0
2, 51888, Note_on_c, 0, 45, 80
2, 51888, Note_on_c, 0, 57, 80
2, 51930, Control_c, 0, 64, 127
2, 51935, Note_on_c, 0, 43, 80
2, 51936, Note_on_c, 0, 55, 80
2, 51941, Note_on_c, 0, 45, 0
2, 51948, Note_on_c, 0, 57, 0
2, 51953, Note_on_c, 0, 67, 0
2, 51981, Note_on_c, 0, 79, 0
2, 51981, Note_on_c, 0, 71, 0
2, 51992, Note_on_c, 0, 55, 0
2, 51997, Note_on_c, 0, 43, 0
2, 51997, Note_on_c, 0, 74, 80
2, 52002, Note_on_c, 0, 62, 80
2, 52027, Control_c, 0, 64, 0
2, 52050, Note_on_c, 0, 44, 80
2, 52055, Note_on_c, 0, 56, 80
2, 52055, Note_on_c, 0, 71, 80
2, 52059, Note_on_c, 0, 83, 80
2, 52061, Note_on_c, 0, 62, 0
2, 52061, Note_on_c, 0, 74, 0
2, 52107, Note_on_c, 0, 56, 0
2, 52107, Note_on_c, 0, 44, 0
2, 52107, Note_on_c, 0, 74, 80
2, 52109, Note_on_c, 0, 62, 80
2, 52116, Note_on_c, 0, 83, 0
2, 52116, Note_on_c, 0, 71, 0
2, 52155, Note_on_c, 0, 45, 80
2, 52155, Note_on_c, 0, 57, 80
2, 52162, Note_on_c, 0, 62, 0
2, 52162, Note_on_c, 0, 65, 80
2, 52169, Note_on_c, 0, 74, 0
2, 52169, Note_on_c, 0, 77, 80
2, 52215, Note_on_c, 0, 57, 0
2, 52215, Note_on_c, 0, 45, 0
2, 52222, Note_on_c, 0, 65, 0
2, 52222, Note_on_c, 0, 69, 80
2, 52222, Note_on_c, 0, 81, 80
2, 52228, Note_on_c, 0, 77, 0
2, 52261, Note_on_c, 0, 47, 80
2, 52266, Note_on_c, 0, 67, 80
2, 52266, Note_on_c, 0, 79, 80
2, 52268, Note_on_c, 0, 59, 80
2, 52274, Note_on_c, 0, 69, 0
2, 52279, Note_on_c, 0, 81, 0
2, 52316, Note_on_c, 0, 65, 80
2, 52320, Note_on_c, 0, 47, 0
2, 52322, Note_on_c, 0, 59, 0
2, 52324, Note_on_c, 0, 67, 0
2, 52324, Note_on_c, 0, 79, 0
2, 52326, Note_on_c, 0, 77, 80
2, 52354, Control_c, 0, 64, 127
2, 52361, Note_on_c, 0, 48, 80
2, 52363, Note_on_c, 0, 60, 80
2, 52372, Note_on_c, 0, 65, 0
2, 52372, Note_on_c, 0, 64, 80
2, 52377, Note_on_c, 0, 76, 80
2, 52379, Note_on_c, 0, 77, 0
2, 52414, Note_on_c, 0, 48, 0
2, 52420, Note_on_c, 0, 63, 80
2, 52422, Note_on_c, 0, 64, 0
2, 52424, Note_on_c, 0, 60, 0
2, 52424, Note_on_c, 0, 75, 80
2, 52431, Note_on_c, 0, 76, 0
2, 52440, Control_c, 0, 64, 0
2, 52470, Note_on_c, 0, 60, 80
2, 52472, Note_on_c, 0, 64, 80
2, 52474, Note_on_c, 0, 55, 80
2, 52476, Note_on_c, 0, 63, 0
2, 52476, Note_on_c, 0, 76, 80
2, 52481, Note_on_c, 0, 75, 0
2, 52532, Note_on_c, 0, 64, 0
2, 52532, Note_on_c, 0, 60, 0
2, 52532, Note_on_c, 0, 79, 80
2, 52534, Note_on_c, 0, 55, 0
2, 52534, Note_on_c, 0, 70, 80
2, 52536, Note_on_c, 0, 67, 80
2, 52540, Note_on_c, 0, 76, 0
2, 52584, Note_on_c, 0, 52, 80
2, 52619, Note_on_c, 0, 79, 0
2, 52624, Note_on_c, 0, 67, 0
2, 52642, Note_on_c, 0, 64, 80
2, 52647, Note_on_c, 0, 76, 80
2, 52649, Note_on_c, 0, 52, 0
2, 52677, Note_on_c, 0, 64, 0
2, 52698, Note_on_c, 0, 60, 80
2, 52700, Note_on_c, 0, 58, 80
2, 52700, Note_on_c, 0, 64, 80
2, 52700, Note_on_c, 0, 79, 80
2, 52704, Note_on_c, 0, 76, 0
2, 52704, Note_on_c, 0, 67, 80
2, 52749, Note_on_c, 0, 64, 0
2, 52753, Note_on_c, 0, 70, 0
2, 52753, Note_on_c, 0, 58, 0
2, 52753, Note_on_c, 0, 60, 0
2, 52755, Note_on_c, 0, 79, 0
2, 52760, Note_on_c, 0, 67, 0
2, 52790, Control_c, 0, 64, 127
2, 52800, Note_on_c, 0, 53, 80
2, 52804, Note_on_c, 0, 65, 80
2, 52811, Note_on_c, 0, 69, 80
2, 52813, Note_on_c, 0, 77, 80
2, 52861, Note_on_c, 0, 65, 0
2, 52861, Note_on_c, 0, 53, 0
2, 52879, Control_c, 0, 64, 0
2, 52897, Note_on_c, 0, 57, 80
2, 52907, Note_on_c, 0, 60, 80
2, 52907, Note_on_c, 0, 65, 80
2, 52963, Note_on_c, 0, 60, 0
2, 52963, Note_on_c, 0, 57, 0
2, 52969, Note_on_c, 0, 65, 0
2, 53009, Note_on_c, 0, 48, 80
2, 53039, Note_on_c, 0, 69, 0
2, 53052, Note_on_c, 0, 48, 0
2, 53059, Note_on_c, 0, 57, 80
2, 53064, Note_on_c, 0, 69, 80
2, 53073, Note_on_c, 0, 77, 0
2, 53089, Note_on_c, 0, 57, 0
2, 53112, Note_on_c, 0, 57, 80
2, 53112, Note_on_c, 0, 72, 80
2, 53114, Note_on_c, 0, 60, 80
2, 53114, Note_on_c, 0, 65, 80
2, 53121, Note_on_c, 0, 69, 0
2, 53144, Note_on_c, 0, 65, 0
2, 53172, Note_on_c, 0, 57, 0
2, 53172, Note_on_c, 0, 60, 0
2, 53174, Note_on_c, 0, 65, 80
2, 53176, Note_on_c, 0, 72, 0
2, 53176, Note_on_c, 0, 77, 80
2, 53212, Control_c, 0, 64, 127
2, 53219, Note_on_c, 0, 41, 80
2, 53221, Note_on_c, 0, 53, 80
2, 53226, Note_on_c, 0, 72, 80
2, 53231, Note_on_c, 0, 65, 0
2, 53231, Note_on_c, 0, 69, 80
2, 53231, Note_on_c, 0, 81, 80
2, 53275, Note_on_c, 0, 41, 0
2, 53281, Note_on_c, 0, 53, 0
2, 53286, Note_on_c, 0, 69, 0
2, 53286, Note_on_c, 0, 77, 0
2, 53286, Note_on_c, 0, 81, 0
2, 53286, Note_on_c, 0, 72, 0
2, 53303, Control_c, 0, 64, 0
2, 53330, Note_on_c, 0, 57, 80
2, 53332, Note_on_c, 0, 65, 80
2, 53332, Note_on_c, 0, 72, 80
2, 53337, Note_on_c, 0, 60, 80
2, 53339, Note_on_c, 0, 69, 80
2, 53344, Note_on_c, 0, 77, 80
2, 53344, Note_on_c, 0, 81, 80
2, 53390, Note_on_c, 0, 72, 0
2, 53390, Note_on_c, 0, 57, 0
2, 53395, Note_on_c, 0, 60, 0
2, 53397, Note_on_c, 0, 65, 0
2, 53399, Note_on_c, 0, 69, 0
2, 53399, Note_on_c, 0, 77, 0
2, 53403, Note_on_c, 0, 81, 0
2, 53433, Note_on_c, 0, 41, 80
2, 53440, Note_on_c, 0, 53, 80
2, 53440, Note_on_c, 0, 72, 80
2, 53447, Note_on_c, 0, 69, 80
2, 53447, Note_on_c, 0, 81, 80
2, 53451, Note_on_c, 0, 77, 80
2, 53484, Note_on_c, 0, 41, 0
2, 53496, Note_on_c, 0, 53, 0
2, 53497, Note_on_c, 0, 69, 0
2, 53499, Note_on_c, 0, 72, 0
2, 53499, Note_on_c, 0, 77, 0
2, 53499, Note_on_c, 0, 81, 0
2, 53539, Note_on_c, 0, 42, 80
2, 53544, Note_on_c, 0, 54, 80
2, 53548, Note_on_c, 0, 72, 80
2, 53548, Note_on_c, 0, 75, 80
2, 53550, Note_on_c, 0, 68, 80
2, 53552, Note_on_c, 0, 80, 80
2, 53596, Note_on_c, 0, 42, 0
2, 53601, Note_on_c, 0, 72, 0
2, 53601, Note_on_c, 0, 75, 0
2, 53601, Note_on_c, 0, 54, 0
2, 53601, Note_on_c, 0, 80, 0
2, 53601, Note_on_c, 0, 68, 0
2, 53636, Control_c, 0, 64, 127
2, 53642, Note_on_c, 0, 43, 80
2, 53642, Note_on_c, 0, 55, 80
2, 53647, Note_on_c, 0, 72, 80
2, 53647, Note_on_c, 0, 76, 80
2, 53647, Note_on_c, 0, 79, 80
2, 53649, Note_on_c, 0, 67, 80
2, 53695, Note_on_c, 0, 43, 0
2, 53702, Note_on_c, 0, 55, 0
2, 53720, Control_c, 0, 64, 0
2, 53745, Note_on_c, 0, 55, 80
2, 53745, Note_on_c, 0, 60, 80
2, 53755, Note_on_c, 0, 76, 0
2, 53755, Note_on_c, 0, 64, 80
2, 53784, Note_on_c, 0, 79, 0
2, 53784, Note_on_c, 0, 72, 0
2, 53801, Note_on_c, 0, 55, 0
2, 53806, Note_on_c, 0, 76, 80
2, 53810, Note_on_c, 0, 67, 0
2, 53812, Note_on_c, 0, 60, 0
2, 53845, Note_on_c, 0, 45, 80
2, 53850, Note_on_c, 0, 60, 80
2, 53855, Note_on_c, 0, 57, 80
2, 53856, Note_on_c, 0, 72, 80
2, 53858, Note_on_c, 0, 64, 0
2, 53863, Note_on_c, 0, 76, 0
2, 53907, Note_on_c, 0, 57, 0
2, 53907, Note_on_c, 0, 45, 0
2, 53912, Note_on_c, 0, 74, 80
2, 53917, Note_on_c, 0, 60, 0
2, 53917, Note_on_c, 0, 62, 80
2, 53919, Note_on_c, 0, 72, 0
2, 53967, Note_on_c, 0, 64, 80
2, 53969, Note_on_c, 0, 62, 0
2, 53971, Note_on_c, 0, 57, 80
2, 53971, Note_on_c, 0, 60, 80
2, 53971, Note_on_c, 0, 76, 80
2, 53973, Note_on_c, 0, 74, 0
2, 54028, Note_on_c, 0, 57, 0
2, 54033, Note_on_c, 0, 64, 0
2, 54033, Note_on_c, 0, 60, 0
2, 54033, Note_on_c, 0, 76, 0
2, 54070, Control_c, 0, 64, 127
2, 54076, Note_on_c, 0, 66, 80
2, 54076, Note_on_c, 0, 72, 80
2, 54081, Note_on_c, 0, 50, 80
2, 54081, Note_on_c, 0, 62, 80
2, 54134, Note_on_c, 0, 50, 0
2, 54136, Note_on_c, 0, 62, 0
2, 54161, Control_c, 0, 64, 0
2, 54179, Note_on_c, 0, 45, 80
2, 54181, Note_on_c, 0, 57, 80
2, 54234, Note_on_c, 0, 45, 0
2, 54240, Note_on_c, 0, 57, 0
2, 54280, Note_on_c, 0, 43, 80
2, 54285, Note_on_c, 0, 74, 80
2, 54287, Note_on_c, 0, 55, 80
2, 54287, Note_on_c, 0, 65, 80
2, 54287, Note_on_c, 0, 71, 80
2, 54291, Note_on_c, 0, 66, 0
2, 54293, Note_on_c, 0, 72, 0
2, 54316, Note_on_c, 0, 65, 0
2, 54341, Note_on_c, 0, 65, 80
2, 54429, Note_on_c, 0, 43, 0
2, 54433, Note_on_c, 0, 55, 0
2, 54433, Note_on_c, 0, 64, 80
2, 54433, Note_on_c, 0, 72, 80
2, 54438, Note_on_c, 0, 67, 80
2, 54440, Note_on_c, 0, 74, 0
2, 54442, Note_on_c, 0, 71, 0
2, 54447, Note_on_c, 0, 65, 0
2, 54470, Control_c, 0, 64, 127
2, 54481, Note_on_c, 0, 48, 80
2, 54483, Note_on_c, 0, 60, 80
2, 54546, Note_on_c, 0, 67, 0
2, 54557, Control_c, 0, 64, 0
2, 54564, Note_on_c, 0, 72, 0
2, 54580, Note_on_c, 0, 48, 0
2, 54582, Note_on_c, 0, 79, 80
2, 54587, Note_on_c, 0, 64, 0
2, 54587, Note_on_c, 0, 60, 0
2, 54592, Note_on_c, 0, 67, 80
2, 54643, Note_on_c, 0, 69, 80
2, 54649, Note_on_c, 0, 67, 0
2, 54649, Note_on_c, 0, 79, 0
2, 54649, Note_on_c, 0, 81, 80
2, 54696, Note_on_c, 0, 71, 80
2, 54702, Note_on_c, 0, 69, 0
2, 54702, Note_on_c, 0, 83, 80
2, 54704, Note_on_c, 0, 81, 0
2, 54744, Note_on_c, 0, 72, 80
2, 54750, Note_on_c, 0, 71, 0
2, 54752, Note_on_c, 0, 83, 0
2, 54764, Note_on_c, 0, 84, 80
2, 54800, Note_on_c, 0, 74, 80
2, 54802, Note_on_c, 0, 72, 0
2, 54812, Note_on_c, 0, 84, 0
2, 54812, Note_on_c, 0, 86, 80
2, 54844, Note_on_c, 0, 88, 80
2, 54851, Note_on_c, 0, 76, 80
2, 54853, Note_on_c, 0, 74, 0
2, 54860, Note_on_c, 0, 86, 0
2, 54885, Control_c, 0, 64, 127
2, 54891, Note_on_c, 0, 74, 80
2, 54896, Note_on_c, 0, 55, 80
2, 54901, Note_on_c, 0, 88, 0
2, 54901, Note_on_c, 0, 76, 0
2, 54901, Note_on_c, 0, 67, 80
2, 54903, Note_on_c, 0, 83, 80
2, 54910, Note_on_c, 0, 86, 80
2, 54946, Note_on_c, 0, 55, 0
2, 54946, Note_on_c, 0, 54, 80
2, 54946, Note_on_c, 0, 66, 80
2, 54953, Note_on_c, 0, 67, 0
2, 54989, Control_c, 0, 64, 0
2, 54989, Note_on_c, 0, 53, 80
2, 54999, Note_on_c, 0, 54, 0
2, 55001, Note_on_c, 0, 65, 80
2, 55008, Note_on_c, 0, 66, 0
2, 55052, Note_on_c, 0, 53, 0
2, 55052, Note_on_c, 0, 65, 0
2, 55052, Note_on_c, 0, 52, 80
2, 55052, Note_on_c, 0, 64, 80
2, 55054, Note_on_c, 0, 74, 0
2, 55056, Note_on_c, 0, 83, 0
2, 55056, Note_on_c, 0, 86, 0
2, 55092, Note_on_c, 0, 62, 80
2, 55094, Note_on_c, 0, 52, 0
2, 55094, Note_on_c, 0, 50, 80
2, 55096, Note_on_c, 0, 79, 80
2, 55096, Note_on_c, 0, 83, 80
2, 55096, Note_on_c, 0, 91, 80
2, 55098, Note_on_c, 0, 64, 0
2, 55139, Note_on_c, 0, 48, 80
2, 55141, Note_on_c, 0, 60, 80
2, 55143, Note_on_c, 0, 62, 0
2, 55143, Note_on_c, 0, 50, 0
2, 55187, Note_on_c, 0, 48, 0
2, 55189, Note_on_c, 0, 47, 80
2, 55194, Note_on_c, 0, 60, 0
2, 55199, Note_on_c, 0, 59, 80
2, 55238, Note_on_c, 0, 47, 0
2, 55243, Note_on_c, 0, 59, 0
2, 55243, Note_on_c, 0, 45, 80
2, 55248, Note_on_c, 0, 57, 80
2, 55284, Control_c, 0, 64, 127
2, 55289, Note_on_c, 0, 43, 80
2, 55296, Note_on_c, 0, 55, 80
2, 55297, Note_on_c, 0, 57, 0
2, 55297, Note_on_c, 0, 45, 0
2, 55302, Note_on_c, 0, 79, 0
2, 55332, Note_on_c, 0, 91, 0
2, 55339, Note_on_c, 0, 83, 0
2, 55344, Note_on_c, 0, 43, 0
2, 55348, Note_on_c, 0, 74, 80
2, 55355, Note_on_c, 0, 55, 0
2, 55365, Note_on_c, 0, 86, 80
2, 55376, Control_c, 0, 64, 0
2, 55397, Note_on_c, 0, 44, 80
2, 55407, Note_on_c, 0, 83, 80
2, 55409, Note_on_c, 0, 74, 0
2, 55411, Note_on_c, 0, 56, 80
2, 55411, Note_on_c, 0, 95, 80
2, 55420, Note_on_c, 0, 86, 0
2, 55453, Note_on_c, 0, 44, 0
2, 55455, Note_on_c, 0, 74, 80
2, 55460, Note_on_c, 0, 83, 0
2, 55460, Note_on_c, 0, 56, 0
2, 55466, Note_on_c, 0, 86, 80
2, 55468, Note_on_c, 0, 95, 0
2, 55498, Note_on_c, 0, 45, 80
2, 55508, Note_on_c, 0, 57, 80
2, 55510, Note_on_c, 0, 74, 0
2, 55512, Note_on_c, 0, 77, 80
2, 55512, Note_on_c, 0, 89, 80
2, 55521, Note_on_c, 0, 86, 0
2, 55558, Note_on_c, 0, 45, 0
2, 55558, Note_on_c, 0, 81, 80
2, 55560, Note_on_c, 0, 57, 0
2, 55560, Note_on_c, 0, 93, 80
2, 55564, Note_on_c, 0, 89, 0
2, 55566, Note_on_c, 0, 77, 0
2, 55596, Note_on_c, 0, 59, 80
2, 55601, Note_on_c, 0, 47, 80
2, 55606, Note_on_c, 0, 91, 80
2, 55608, Note_on_c, 0, 93, 0
2, 55608, Note_on_c, 0, 79, 80
2, 55619, Note_on_c, 0, 81, 0
2, 55652, Note_on_c, 0, 47, 0
2, 55656, Note_on_c, 0, 91, 0
2, 55656, Note_on_c, 0, 79, 0
2, 55663, Note_on_c, 0, 77, 80
2, 55663, Note_on_c, 0, 89, 80
2, 55677, Note_on_c, 0, 59, 0
2, 55688, Control_c, 0, 64, 127
2, 55702, Note_on_c, 0, 48, 80
2, 55702, Note_on_c, 0, 60, 80
2, 55702, Note_on_c, 0, 88, 80
2, 55704, Note_on_c, 0, 89, 0
2, 55704, Note_on_c, 0, 76, 80
2, 55715, Note_on_c, 0, 77, 0
2, 55752, Note_on_c, 0, 48, 0
2, 55753, Note_on_c, 0, 60, 0
2, 55753, Note_on_c, 0, 75, 80
2, 55755, Note_on_c, 0, 88, 0
2, 55757, Note_on_c, 0, 87, 80
2, 55764, Note_on_c, 0, 76, 0
2, 55774, Control_c, 0, 64, 0
2, 55795, Note_on_c, 0, 64, 80
2, 55800, Note_on_c, 0, 55, 80
2, 55800, Note_on_c, 0, 60, 80
2, 55800, Note_on_c, 0, 76, 80
2, 55801, Note_on_c, 0, 87, 0
2, 55801, Note_on_c, 0, 75, 0
2, 55848, Note_on_c, 0, 79, 80
2, 55852, Note_on_c, 0, 60, 0
2, 55852, Note_on_c, 0, 55, 0
2, 55852, Note_on_c, 0, 88, 80
2, 55852, Note_on_c, 0, 91, 80
2, 55854, Note_on_c, 0, 64, 0
2, 55856, Note_on_c, 0, 76, 0
2, 55861, Note_on_c, 0, 84, 80
2, 55891, Note_on_c, 0, 40, 80
2, 55904, Note_on_c, 0, 52, 80
2, 55950, Note_on_c, 0, 40, 0
2, 55960, Note_on_c, 0, 52, 0
2, 56001, Note_on_c, 0, 55, 80
2, 56006, Note_on_c, 0, 64, 80
2, 56011, Note_on_c, 0, 60, 80
2, 56064, Note_on_c, 0, 64, 0
2, 56065, Note_on_c, 0, 88, 0
2, 56065, Note_on_c, 0, 60, 0
2, 56067, Note_on_c, 0, 91, 0
2, 56067, Note_on_c, 0, 55, 0
2, 56067, Note_on_c, 0, 79, 0
2, 56072, Note_on_c, 0, 84, 0
2, 56102, Control_c, 0, 64, 127
2, 56109, Note_on_c, 0, 57, 80
2, 56111, Note_on_c, 0, 60, 80
2, 56111, Note_on_c, 0, 63, 80
2, 56112, Note_on_c, 0, 54, 80
2, 56117, Note_on_c, 0, 72, 80
2, 56122, Note_on_c, 0, 84, 80
2, 56159, Note_on_c, 0, 75, 80
2, 56163, Note_on_c, 0, 87, 80
2, 56165, Note_on_c, 0, 72, 0
2, 56177, Note_on_c, 0, 84, 0
2, 56182, Control_c, 0, 64, 0
2, 56211, Note_on_c, 0, 78, 80
2, 56213, Note_on_c, 0, 87, 0
2, 56213, Note_on_c, 0, 75, 0
2, 56218, Note_on_c, 0, 90, 80
2, 56253, Note_on_c, 0, 57, 0
2, 56257, Note_on_c, 0, 60, 0
2, 56257, Note_on_c, 0, 54, 0
2, 56257, Note_on_c, 0, 63, 0
2, 56262, Note_on_c, 0, 93, 80
2, 56264, Note_on_c, 0, 78, 0
2, 56264, Note_on_c, 0, 90, 0
2, 56266, Note_on_c, 0, 81, 80
2, 56299, Note_on_c, 0, 55, 80
2, 56299, Note_on_c, 0, 60, 80
2, 56304, Note_on_c, 0, 64, 80
2, 56304, Note_on_c, 0, 79, 80
2, 56308, Note_on_c, 0, 91, 80
2, 56310, Note_on_c, 0, 93, 0
2, 56317, Note_on_c, 0, 81, 0
2, 56352, Note_on_c, 0, 88, 80
2, 56353, Note_on_c, 0, 76, 80
2, 56355, Note_on_c, 0, 79, 0
2, 56360, Note_on_c, 0, 91, 0
2, 56393, Note_on_c, 0, 79, 80
2, 56398, Note_on_c, 0, 64, 0
2, 56400, Note_on_c, 0, 91, 80
2, 56401, Note_on_c, 0, 55, 0
2, 56403, Note_on_c, 0, 88, 0
2, 56405, Note_on_c, 0, 60, 0
2, 56410, Note_on_c, 0, 76, 0
2, 56447, Note_on_c, 0, 79, 0
2, 56451, Note_on_c, 0, 96, 80
2, 56453, Note_on_c, 0, 91, 0
2, 56458, Note_on_c, 0, 84, 80
2, 56472, Note_on_c, 0, 96, 0
2, 56478, Control_c, 0, 64, 127
2, 56488, Note_on_c, 0, 84, 0
2, 56493, Note_on_c, 0, 50, 80
2, 56502, Note_on_c, 0, 62, 80
2, 56504, Note_on_c, 0, 89, 80
2, 56504, Note_on_c, 0, 96, 80
2, 56506, Note_on_c, 0, 86, 80
2, 56511, Note_on_c, 0, 84, 80
2, 56552, Note_on_c, 0, 50, 0
2, 56554, Note_on_c, 0, 96, 0
2, 56556, Note_on_c, 0, 62, 0
2, 56563, Note_on_c, 0, 89, 0
2, 56565, Note_on_c, 0, 84, 0
2, 56565, Note_on_c, 0, 86, 0
2, 56578, Control_c, 0, 64, 0
2, 56603, Note_on_c, 0, 55, 80
2, 56603, Note_on_c, 0, 59, 80
2, 56603, Note_on_c, 0, 65, 80
2, 56613, Note_on_c, 0, 83, 80
2, 56613, Note_on_c, 0, 89, 80
2, 56613, Note_on_c, 0, 95, 80
2, 56617, Note_on_c, 0, 86, 80
2, 56642, Note_on_c, 0, 83, 0
2, 56644, Note_on_c, 0, 95, 0
2, 56644, Note_on_c, 0, 89, 0
2, 56644, Note_on_c, 0, 86, 0
2, 56661, Note_on_c, 0, 59, 0
2, 56665, Note_on_c, 0, 55, 0
2, 56665, Note_on_c, 0, 83, 80
2, 56667, Note_on_c, 0, 86, 80
2, 56669, Note_on_c, 0, 65, 0
2, 56669, Note_on_c, 0, 89, 80
2, 56669, Note_on_c, 0, 95, 80
2, 56713, Note_on_c, 0, 43, 80
2, 56715, Note_on_c, 0, 55, 80
2, 56722, Note_on_c, 0, 89, 0
2, 56732, Note_on_c, 0, 83, 0
2, 56732, Note_on_c, 0, 86, 0
2, 56755, Note_on_c, 0, 43, 0
2, 56757, Note_on_c, 0, 95, 0
2, 56768, Note_on_c, 0, 55, 0
2, 56773, Note_on_c, 0, 82, 80
2, 56773, Note_on_c, 0, 89, 80
2, 56778, Note_on_c, 0, 86, 80
2, 56778, Note_on_c, 0, 94, 80
2, 56803, Note_on_c, 0, 89, 0
2, 56805, Note_on_c, 0, 86, 0
2, 56814, Note_on_c, 0, 59, 80
2, 56816, Note_on_c, 0, 55, 80
2, 56826, Note_on_c, 0, 65, 80
2, 56826, Note_on_c, 0, 83, 80
2, 56826, Note_on_c, 0, 89, 80
2, 56828, Note_on_c, 0, 94, 0
2, 56830, Note_on_c, 0, 86, 80
2, 56830, Note_on_c, 0, 95, 80
2, 56836, Note_on_c, 0, 82, 0
2, 56866, Note_on_c, 0, 55, 0
2, 56873, Note_on_c, 0, 59, 0
2, 56873, Note_on_c, 0, 89, 0
2, 56878, Note_on_c, 0, 65, 0
2, 56880, Note_on_c, 0, 86, 0
2, 56903, Note_on_c, 0, 95, 0
2, 56903, Control_c, 0, 64, 127
2, 56907, Note_on_c, 0, 83, 0
2, 56912, Note_on_c, 0, 59, 80
2, 56914, Note_on_c, 0, 47, 80
2, 56924, Note_on_c, 0, 89, 80
2, 56926, Note_on_c, 0, 86, 80
2, 56930, Note_on_c, 0, 77, 80
2, 56955, Note_on_c, 0, 46, 80
2, 56960, Note_on_c, 0, 47, 0
2, 56967, Note_on_c, 0, 59, 0
2, 56967, Note_on_c, 0, 58, 80
2, 56985, Control_c, 0, 64, 0
2, 57003, Note_on_c, 0, 46, 0
2, 57005, Note_on_c, 0, 45, 80
2, 57005, Note_on_c, 0, 57, 80
2, 57012, Note_on_c, 0, 58, 0
2, 57047, Note_on_c, 0, 44, 80
2, 57051, Note_on_c, 0, 56, 80
2, 57053, Note_on_c, 0, 45, 0
2, 57053, Note_on_c, 0, 57, 0
2, 57088, Note_on_c, 0, 43, 80
2, 57097, Note_on_c, 0, 44, 0
2, 57099, Note_on_c, 0, 55, 80
2, 57101, Note_on_c, 0, 89, 0
2, 57101, Note_on_c, 0, 56, 0
2, 57108, Note_on_c, 0, 77, 0
2, 57113, Note_on_c, 0, 86, 0
2, 57138, Note_on_c, 0, 43, 0
2, 57144, Note_on_c, 0, 55, 0
2, 57151, Note_on_c, 0, 74, 80
2, 57156, Note_on_c, 0, 86, 80
2, 57197, Note_on_c, 0, 55, 80
2, 57199, Note_on_c, 0, 65, 80
2, 57201, Note_on_c, 0, 59, 80
2, 57201, Note_on_c, 0, 89, 80
2, 57203, Note_on_c, 0, 74, 0
2, 57208, Note_on_c, 0, 77, 80
2, 57210, Note_on_c, 0, 86, 0
2, 57254, Note_on_c, 0, 59, 0
2, 57254, Note_on_c, 0, 55, 0
2, 57256, Note_on_c, 0, 65, 0
2, 57256, Note_on_c, 0, 89, 0
2, 57258, Note_on_c, 0, 83, 80
2, 57263, Note_on_c, 0, 77, 0
2, 57263, Note_on_c, 0, 95, 80
2, 57288, Control_c, 0, 64, 127
2, 57301, Note_on_c, 0, 48, 80
2, 57301, Note_on_c, 0, 88, 80
2, 57308, Note_on_c, 0, 60, 80
2, 57314, Note_on_c, 0, 83, 0
2, 57321, Note_on_c, 0, 84, 80
2, 57356, Note_on_c, 0, 88, 0
2, 57356, Note_on_c, 0, 48, 0
2, 57358, Note_on_c, 0, 60, 0
2, 57369, Note_on_c, 0, 95, 0
2, 57371, Note_on_c, 0, 84, 0
2, 57381, Control_c, 0, 64, 0
2, 57406, Note_on_c, 0, 55, 80
2, 57410, Note_on_c, 0, 64, 80
2, 57410, Note_on_c, 0, 88, 80
2, 57412, Note_on_c, 0, 60, 80
2, 57414, Note_on_c, 0, 93, 80
2, 57424, Note_on_c, 0, 81, 80
2, 57424, Note_on_c, 0, 84, 80
2, 57437, Note_on_c, 0, 88, 0
2, 57449, Note_on_c, 0, 84, 0
2, 57462, Note_on_c, 0, 64, 0
2, 57464, Note_on_c, 0, 60, 0
2, 57464, Note_on_c, 0, 55, 0
2, 57464, Note_on_c, 0, 88, 80
2, 57478, Note_on_c, 0, 84, 80
2, 57503, Note_on_c, 0, 43, 80
2, 57503, Note_on_c, 0, 55, 80
2, 57537, Note_on_c, 0, 88, 0
2, 57544, Note_on_c, 0, 93, 0
2, 57549, Note_on_c, 0, 81, 0
2, 57560, Note_on_c, 0, 43, 0
2, 57565, Note_on_c, 0, 88, 80
2, 57567, Note_on_c, 0, 55, 0
2, 57567, Note_on_c, 0, 92, 80
2, 57574, Note_on_c, 0, 80, 80
2, 57592, Note_on_c, 0, 88, 0
2, 57608, Note_on_c, 0, 55, 80
2, 57613, Note_on_c, 0, 64, 80
2, 57615, Note_on_c, 0, 88, 80
2, 57620, Note_on_c, 0, 60, 80
2, 57622, Note_on_c, 0, 92, 0
2, 57626, Note_on_c, 0, 80, 0
2, 57626, Note_on_c, 0, 81, 80
2, 57626, Note_on_c, 0, 93, 80
2, 57671, Note_on_c, 0, 64, 0
2, 57671, Note_on_c, 0, 60, 0
2, 57672, Note_on_c, 0, 55, 0
2, 57672, Note_on_c, 0, 88, 0
2, 57677, Note_on_c, 0, 93, 0
2, 57679, Note_on_c, 0, 84, 0
2, 57679, Note_on_c, 0, 81, 0
2, 57702, Control_c, 0, 64, 127
2, 57716, Note_on_c, 0, 48, 80
2, 57716, Note_on_c, 0, 88, 80
2, 57722, Note_on_c, 0, 60, 80
2, 57722, Note_on_c, 0, 76, 80
2, 57729, Note_on_c, 0, 84, 80
2, 57759, Note_on_c, 0, 48, 0
2, 57764, Note_on_c, 0, 47, 80
2, 57764, Note_on_c, 0, 59, 80
2, 57766, Note_on_c, 0, 60, 0
2, 57793, Control_c, 0, 64, 0
2, 57815, Note_on_c, 0, 47, 0
2, 57815, Note_on_c, 0, 45, 80
2, 57819, Note_on_c, 0, 59, 0
2, 57819, Note_on_c, 0, 57, 80
2, 57867, Note_on_c, 0, 45, 0
2, 57869, Note_on_c, 0, 44, 80
2, 57869, Note_on_c, 0, 56, 80
2, 57876, Note_on_c, 0, 57, 0
2, 57920, Note_on_c, 0, 43, 80
2, 57925, Note_on_c, 0, 56, 0
2, 57925, Note_on_c, 0, 55, 80
2, 57927, Note_on_c, 0, 44, 0
2, 57966, Note_on_c, 0, 84, 0
2, 57984, Note_on_c, 0, 88, 0
2, 57986, Note_on_c, 0, 67, 80
2, 57986, Note_on_c, 0, 79, 80
2, 57988, Note_on_c, 0, 76, 0
2, 58032, Note_on_c, 0, 43, 0
2, 58042, Note_on_c, 0, 55, 0
2, 58042, Note_on_c, 0, 72, 80
2, 58044, Note_on_c, 0, 79, 0
2, 58044, Note_on_c, 0, 67, 0
2, 58056, Note_on_c, 0, 84, 80
2, 58090, Note_on_c, 0, 88, 80
2, 58097, Note_on_c, 0, 76, 80
2, 58099, Note_on_c, 0, 72, 0
2, 58108, Note_on_c, 0, 84, 0
2, 58143, Control_c, 0, 64, 127
2, 58152, Note_on_c, 0, 74, 80
2, 58154, Note_on_c, 0, 88, 0
2, 58154, Note_on_c, 0, 55, 80
2, 58156, Note_on_c, 0, 67, 80
2, 58158, Note_on_c, 0, 83, 80
2, 58163, Note_on_c, 0, 86, 80
2, 58165, Note_on_c, 0, 76, 0
2, 58190, Note_on_c, 0, 67, 0
2, 58201, Note_on_c, 0, 54, 80
2, 58206, Note_on_c, 0, 66, 80
2, 58208, Note_on_c, 0, 55, 0
2, 58259, Note_on_c, 0, 53, 80
2, 58259, Note_on_c, 0, 65, 80
2, 58264, Note_on_c, 0, 54, 0
2, 58275, Note_on_c, 0, 66, 0
2, 58282, Control_c, 0, 64, 0
2, 58312, Note_on_c, 0, 53, 0
2, 58312, Note_on_c, 0, 52, 80
2, 58312, Note_on_c, 0, 64, 80
2, 58325, Note_on_c, 0, 83, 0
2, 58325, Note_on_c, 0, 65, 0
2, 58344, Note_on_c, 0, 74, 0
2, 58367, Note_on_c, 0, 62, 80
2, 58368, Note_on_c, 0, 64, 0
2, 58368, Note_on_c, 0, 79, 80
2, 58370, Note_on_c, 0, 52, 0
2, 58370, Note_on_c, 0, 50, 80
2, 58370, Note_on_c, 0, 91, 80
2, 58375, Note_on_c, 0, 83, 80
2, 58377, Note_on_c, 0, 86, 0
2, 58405, Note_on_c, 0, 48, 80
2, 58418, Note_on_c, 0, 50, 0
2, 58418, Note_on_c, 0, 62, 0
2, 58420, Note_on_c, 0, 60, 80
2, 58462, Note_on_c, 0, 47, 80
2, 58464, Note_on_c, 0, 48, 0
2, 58465, Note_on_c, 0, 59, 80
2, 58475, Note_on_c, 0, 60, 0
2, 58514, Note_on_c, 0, 47, 0
2, 58516, Note_on_c, 0, 45, 80
2, 58521, Note_on_c, 0, 57, 80
2, 58523, Note_on_c, 0, 59, 0
2, 58564, Control_c, 0, 64, 127
2, 58566, Note_on_c, 0, 43, 80
2, 58571, Note_on_c, 0, 55, 80
2, 58573, Note_on_c, 0, 45, 0
2, 58580, Note_on_c, 0, 57, 0
2, 58582, Note_on_c, 0, 91, 0
2, 58616, Note_on_c, 0, 83, 0
2, 58623, Note_on_c, 0, 43, 0
2, 58630, Note_on_c, 0, 55, 0
2, 58636, Note_on_c, 0, 74, 80
2, 58641, Note_on_c, 0, 79, 0
2, 58641, Note_on_c, 0, 86, 80
2, 58657, Control_c, 0, 64, 0
2, 58685, Note_on_c, 0, 44, 80
2, 58690, Note_on_c, 0, 83, 80
2, 58692, Note_on_c, 0, 74, 0
2, 58694, Note_on_c, 0, 56, 80
2, 58694, Note_on_c, 0, 95, 80
2, 58699, Note_on_c, 0, 86, 0
2, 58738, Note_on_c, 0, 44, 0
2, 58740, Note_on_c, 0, 74, 80
2, 58745, Note_on_c, 0, 56, 0
2, 58752, Note_on_c, 0, 86, 80
2, 58753, Note_on_c, 0, 83, 0
2, 58753, Note_on_c, 0, 95, 0
2, 58793, Note_on_c, 0, 45, 80
2, 58795, Note_on_c, 0, 57, 80
2, 58797, Note_on_c, 0, 74, 0
2, 58799, Note_on_c, 0, 89, 80
2, 58800, Note_on_c, 0, 77, 80
2, 58807, Note_on_c, 0, 86, 0
2, 58844, Note_on_c, 0, 45, 0
2, 58848, Note_on_c, 0, 57, 0
2, 58850, Note_on_c, 0, 89, 0
2, 58850, Note_on_c, 0, 81, 80
2, 58852, Note_on_c, 0, 93, 80
2, 58857, Note_on_c, 0, 77, 0
2, 58898, Note_on_c, 0, 47, 80
2, 58898, Note_on_c, 0, 91, 80
2, 58900, Note_on_c, 0, 79, 80
2, 58902, Note_on_c, 0, 93, 0
2, 58902, Note_on_c, 0, 59, 80
2, 58909, Note_on_c, 0, 81, 0
2, 58950, Note_on_c, 0, 59, 0
2, 58950, Note_on_c, 0, 47, 0
2, 58955, Note_on_c, 0, 91, 0
2, 58960, Note_on_c, 0, 79, 0
2, 58960, Note_on_c, 0, 77, 80
2, 58960, Note_on_c, 0, 89, 80
2, 58992, Control_c, 0, 64, 127
2, 58999, Note_on_c, 0, 48, 80
2, 59006, Note_on_c, 0, 60, 80
2, 59006, Note_on_c, 0, 88, 80
2, 59008, Note_on_c, 0, 89, 0
2, 59010, Note_on_c, 0, 76, 80
2, 59012, Note_on_c, 0, 77, 0
2, 59053, Note_on_c, 0, 48, 0
2, 59055, Note_on_c, 0, 88, 0
2, 59055, Note_on_c, 0, 75, 80
2, 59057, Note_on_c, 0, 60, 0
2, 59057, Note_on_c, 0, 87, 80
2, 59062, Note_on_c, 0, 76, 0
2, 59080, Control_c, 0, 64, 0
2, 59101, Note_on_c, 0, 55, 80
2, 59101, Note_on_c, 0, 64, 80
2, 59101, Note_on_c, 0, 88, 80
2, 59106, Note_on_c, 0, 60, 80
2, 59106, Note_on_c, 0, 76, 80
2, 59112, Note_on_c, 0, 87, 0
2, 59112, Note_on_c, 0, 75, 0
2, 59149, Note_on_c, 0, 91, 80
2, 59151, Note_on_c, 0, 60, 0
2, 59153, Note_on_c, 0, 55, 0
2, 59153, Note_on_c, 0, 79, 80
2, 59153, Note_on_c, 0, 82, 80
2, 59158, Note_on_c, 0, 88, 0
2, 59162, Note_on_c, 0, 64, 0
2, 59164, Note_on_c, 0, 76, 0
2, 59187, Note_on_c, 0, 40, 80
2, 59201, Note_on_c, 0, 52, 80
2, 59231, Note_on_c, 0, 79, 0
2, 59231, Note_on_c, 0, 91, 0
2, 59242, Note_on_c, 0, 40, 0
2, 59247, Note_on_c, 0, 88, 80
2, 59258, Note_on_c, 0, 52, 0
2, 59260, Note_on_c, 0, 76, 80
2, 59302, Note_on_c, 0, 60, 80
2, 59304, Note_on_c, 0, 79, 80
2, 59305, Note_on_c, 0, 64, 80
2, 59305, Note_on_c, 0, 91, 80
2, 59307, Note_on_c, 0, 88, 0
2, 59317, Note_on_c, 0, 76, 0
2, 59317, Note_on_c, 0, 58, 80
2, 59368, Note_on_c, 0, 58, 0
2, 59370, Note_on_c, 0, 91, 0
2, 59370, Note_on_c, 0, 60, 0
2, 59370, Note_on_c, 0, 79, 0
2, 59370, Note_on_c, 0, 64, 0
2, 59375, Note_on_c, 0, 82, 0
2, 59411, Control_c, 0, 64, 127
2, 59423, Note_on_c, 0, 41, 80
2, 59423, Note_on_c, 0, 53, 80
2, 59429, Note_on_c, 0, 77, 80
2, 59436, Note_on_c, 0, 81, 80
2, 59436, Note_on_c, 0, 89, 80
2, 59503, Control_c, 0, 64, 0
2, 59531, Note_on_c, 0, 60, 80
2, 59536, Note_on_c, 0, 57, 80
2, 59536, Note_on_c, 0, 65, 80
2, 59587, Note_on_c, 0, 57, 0
2, 59589, Note_on_c, 0, 60, 0
2, 59595, Note_on_c, 0, 65, 0
2, 59605, Note_on_c, 0, 41, 0
2, 59612, Note_on_c, 0, 53, 0
2, 59633, Note_on_c, 0, 36, 80
2, 59638, Note_on_c, 0, 48, 80
2, 59644, Note_on_c, 0, 81, 0
2, 59677, Note_on_c, 0, 77, 0
2, 59687, Note_on_c, 0, 48, 0
2, 59687, Note_on_c, 0, 36, 0
2, 59691, Note_on_c, 0, 89, 0
2, 59693, Note_on_c, 0, 69, 80
2, 59693, Note_on_c, 0, 81, 80
2, 59735, Note_on_c, 0, 57, 80
2, 59739, Note_on_c, 0, 60, 80
2, 59739, Note_on_c, 0, 72, 80
2, 59744, Note_on_c, 0, 69, 0
2, 59746, Note_on_c, 0, 65, 80
2, 59748, Note_on_c, 0, 84, 80
2, 59758, Note_on_c, 0, 81, 0
2, 59790, Note_on_c, 0, 60, 0
2, 59797, Note_on_c, 0, 65, 0
2, 59797, Note_on_c, 0, 72, 0
2, 59797, Note_on_c, 0, 57, 0
2, 59797, Note_on_c, 0, 77, 80
2, 59807, Note_on_c, 0, 84, 0
2, 59828, Control_c, 0, 64, 127
2, 59837, Note_on_c, 0, 41, 80
2, 59839, Note_on_c, 0, 53, 80
2, 59849, Note_on_c, 0, 81, 80
2, 59849, Note_on_c, 0, 84, 80
2, 59849, Note_on_c, 0, 89, 80
2, 59849, Note_on_c, 0, 93, 80
2, 59854, Note_on_c, 0, 77, 0
2, 59888, Note_on_c, 0, 41, 0
2, 59893, Note_on_c, 0, 53, 0
2, 59893, Note_on_c, 0, 89, 0
2, 59898, Note_on_c, 0, 93, 0
2, 59903, Note_on_c, 0, 81, 0
2, 59904, Note_on_c, 0, 84, 0
2, 59914, Control_c, 0, 64, 0
2, 59947, Note_on_c, 0, 60, 80
2, 59947, Note_on_c, 0, 65, 80
2, 59949, Note_on_c, 0, 57, 80
2, 59949, Note_on_c, 0, 89, 80
2, 59951, Note_on_c, 0, 81, 80
2, 59951, Note_on_c, 0, 84, 80
2, 59952, Note_on_c, 0, 93, 80
2, 59994, Note_on_c, 0, 60, 0
2, 59999, Note_on_c, 0, 57, 0
2, 60000, Note_on_c, 0, 89, 0
2, 60000, Note_on_c, 0, 93, 0
2, 60002, Note_on_c, 0, 65, 0
2, 60007, Note_on_c, 0, 81, 0
2, 60007, Note_on_c, 0, 84, 0
2, 60044, Note_on_c, 0, 41, 80
2, 60044, Note_on_c, 0, 53, 80
2, 60053, Note_on_c, 0, 89, 80
2, 60058, Note_on_c, 0, 81, 80
2, 60058, Note_on_c, 0, 93, 80
2, 60060, Note_on_c, 0, 84, 80
2, 60093, Note_on_c, 0, 41, 0
2, 60099, Note_on_c, 0, 53, 0
2, 60099, Note_on_c, 0, 89, 0
2, 60101, Note_on_c, 0, 93, 0
2, 60113, Note_on_c, 0, 84, 0
2, 60115, Note_on_c, 0, 81, 0
2, 60147, Note_on_c, 0, 42, 80
2, 60154, Note_on_c, 0, 54, 80
2, 60161, Note_on_c, 0, 87, 80
2, 60166, Note_on_c, 0, 80, 80
2, 60166, Note_on_c, 0, 92, 80
2, 60172, Note_on_c, 0, 84, 80
2, 60200, Note_on_c, 0, 42, 0
2, 60214, Note_on_c, 0, 54, 0
2, 60218, Note_on_c, 0, 87, 0
2, 60218, Note_on_c, 0, 80, 0
2, 60218, Note_on_c, 0, 84, 0
2, 60223, Note_on_c, 0, 92, 0
2, 60253, Control_c, 0, 64, 127
2, 60255, Note_on_c, 0, 88, 80
2, 60257, Note_on_c, 0, 43, 80
2, 60257, Note_on_c, 0, 55, 80
2, 60264, Note_on_c, 0, 79, 80
2, 60270, Note_on_c, 0, 84, 80
2, 60270, Note_on_c, 0, 91, 80
2, 60300, Note_on_c, 0, 43, 0
2, 60307, Note_on_c, 0, 55, 0
2, 60336, Control_c, 0, 64, 0
2, 60350, Note_on_c, 0, 55, 80
2, 60355, Note_on_c, 0, 88, 0
2, 60357, Note_on_c, 0, 60, 80
2, 60357, Note_on_c, 0, 64, 80
2, 60366, Note_on_c, 0, 84, 0
2, 60366, Note_on_c, 0, 79, 0
2, 60368, Note_on_c, 0, 91, 0
2, 60401, Note_on_c, 0, 55, 0
2, 60406, Note_on_c, 0, 76, 80
2, 60410, Note_on_c, 0, 60, 0
2, 60410, Note_on_c, 0, 64, 0
2, 60410, Note_on_c, 0, 88, 80
2, 60455, Note_on_c, 0, 45, 80
2, 60455, Note_on_c, 0, 57, 80
2, 60459, Note_on_c, 0, 72, 80
2, 60461, Note_on_c, 0, 88, 0
2, 60461, Note_on_c, 0, 84, 80
2, 60463, Note_on_c, 0, 76, 0
2, 60503, Note_on_c, 0, 45, 0
2, 60504, Note_on_c, 0, 74, 80
2, 60506, Note_on_c, 0, 57, 0
2, 60508, Note_on_c, 0, 86, 80
2, 60515, Note_on_c, 0, 72, 0
2, 60520, Note_on_c, 0, 84, 0
2, 60545, Note_on_c, 0, 57, 80
2, 60547, Note_on_c, 0, 74, 0
2, 60549, Note_on_c, 0, 64, 80
2, 60549, Note_on_c, 0, 88, 80
2, 60555, Note_on_c, 0, 60, 80
2, 60555, Note_on_c, 0, 76, 80
2, 60557, Note_on_c, 0, 86, 0
2, 60594, Note_on_c, 0, 88, 0
2, 60596, Note_on_c, 0, 64, 0
2, 60600, Note_on_c, 0, 57, 0
2, 60600, Note_on_c, 0, 60, 0
2, 60600, Note_on_c, 0, 76, 0
2, 60635, Control_c, 0, 64, 127
2, 60647, Note_on_c, 0, 50, 80
2, 60647, Note_on_c, 0, 62, 80
2, 60647, Note_on_c, 0, 78, 80
2, 60651, Note_on_c, 0, 72, 80
2, 60661, Note_on_c, 0, 84, 80
2, 60700, Note_on_c, 0, 50, 0
2, 60705, Note_on_c, 0, 62, 0
2, 60730, Control_c, 0, 64, 0
2, 60755, Note_on_c, 0, 45, 80
2, 60760, Note_on_c, 0, 57, 80
2, 60811, Note_on_c, 0, 45, 0
2, 60817, Note_on_c, 0, 57, 0
2, 60857, Note_on_c, 0, 43, 80
2, 60866, Note_on_c, 0, 55, 80
2, 60866, Note_on_c, 0, 74, 80
2, 60868, Note_on_c, 0, 77, 80
2, 60868, Note_on_c, 0, 86, 80
2, 60873, Note_on_c, 0, 72, 0
2, 60873, Note_on_c, 0, 78, 0
2, 60873, Note_on_c, 0, 83, 80
2, 60883, Note_on_c, 0, 84, 0
2, 60908, Note_on_c, 0, 77, 0
2, 60931, Note_on_c, 0, 77, 80
2, 61005, Note_on_c, 0, 77, 0
2, 61005, Note_on_c, 0, 83, 0
2, 61005, Note_on_c, 0, 74, 0
2, 61009, Note_on_c, 0, 86, 0
2, 61016, Note_on_c, 0, 43, 0
2, 61023, Note_on_c, 0, 72, 80
2, 61023, Note_on_c, 0, 76, 80
2, 61023, Note_on_c, 0, 79, 80
2, 61028, Note_on_c, 0, 55, 0
2, 61028, Note_on_c, 0, 84, 80
2, 61062, Control_c, 0, 64, 127
2, 61072, Note_on_c, 0, 48, 80
2, 61079, Note_on_c, 0, 60, 80
2, 61123, Note_on_c, 0, 48, 0
2, 61128, Note_on_c, 0, 60, 0
2, 61152, Control_c, 0, 64, 0
2, 61169, Note_on_c, 0, 43, 80
2, 61180, Note_on_c, 0, 55, 80
2, 61185, Note_on_c, 0, 79, 0
2, 61185, Note_on_c, 0, 72, 0
2, 61190, Note_on_c, 0, 84, 0
2, 61190, Note_on_c, 0, 76, 0
2, 61224, Note_on_c, 0, 43, 0
2, 61234, Note_on_c, 0, 55, 0
2, 61271, Note_on_c, 0, 36, 80
2, 61272, Note_on_c, 0, 48, 80
2, 61272, Note_on_c, 0, 88, 80
2, 61286, Note_on_c, 0, 91, 80
2, 61286, Note_on_c, 0, 96, 80
2, 61291, Note_on_c, 0, 84, 80
2, 61320, Note_on_c, 0, 36, 0
2, 61325, Note_on_c, 0, 48, 0
2, 61327, Note_on_c, 0, 88, 0
2, 61329, Note_on_c, 0, 91, 0
2, 61329, Note_on_c, 0, 96, 0
2, 61343, Note_on_c, 0, 84, 0
2, 61343, End_track
3, 0, Start_track
3, 0, Title_t, "c/b Scott Joplin"
3, 0, End_track
4, 0, Start_track
4, 0, Title_t, "p/b Scott Joplin"
4, 0, End_track
5, 0, Start_track
5, 0, Title_t, "Jazz Classics"
5, 0, End_track
6, 0, Start_track
6, 0, Title_t, "Scan of a player piano roll"
6, 0, End_track
7, 0, Start_track
7, 0, Title_t, "by Terry Smythe, Winnipeg, Canada"
7, 0, End_track
8, 0, Start_track
8, 1, Copyright_t, "___________________________________________________\012\012KUNSTDERFUGE.COM LARGE CLASSICAL MIDI COLLECTION\012ONCLASSICAL BY ALESSANDRO SIMONETTO, PROPRIETOR\012___________________________________________________\012\012! Attention: this file is under copyright !\012\012(c)onclassical, (nc)smythe, 2010\012___________________________________________________\012\012NO ONE MAY REPUBLISH THIS FILE WITHOUT PERMISSION\012COMMERCIAL USES OF THIS FILE IS STRICTLY PROHIBITED\012___________________________________________________\012\012Files & contributor's list: http://kunstderfuge.com/\012Terms and conditions: http://kunstderfuge.com/notes.htm"
8, 1, End_track
0, 0, End_of_file
